<?xml version="1.0" standalone="no"?>
<!DOCTYPE svg PUBLIC "-//W3C//DTD SVG 1.1//EN" "http://www.w3.org/Graphics/SVG/1.1/DTD/svg11.dtd" >
<svg xmlns="http://www.w3.org/2000/svg">
<metadata></metadata>
<defs>
<font id="negotiatefree" horiz-adv-x="603" >
<font-face units-per-em="1000" ascent="746" descent="-254" />
<missing-glyph horiz-adv-x="197" />
<glyph horiz-adv-x="1000" />
<glyph horiz-adv-x="1000" />
<glyph unicode="&#xd;" horiz-adv-x="144" />
<glyph unicode=" "  horiz-adv-x="197" />
<glyph unicode="&#x09;" horiz-adv-x="197" />
<glyph unicode="&#xa0;" horiz-adv-x="197" />
<glyph unicode="!" horiz-adv-x="237" d="M147 193h-57l-32 442q0 17 2 32t8.5 26.5t18.5 18t32 6.5q19 0 31 -6.5t18 -18t8 -26.5t2 -32zM177 54q0 -36 -11 -46t-47 -10t-47 10t-11 46q0 35 11 45.5t47 10.5t47 -10.5t11 -45.5z" />
<glyph unicode="&#x22;" horiz-adv-x="350" d="M266 495h-36l-23 136q-2 10 -3.5 20t-0.5 20q0 48 45 48t45 -48q0 -10 -1 -20t-3 -20zM118 495h-36l-23 136q-2 10 -3.5 20t-0.5 20q0 48 45 48t45 -48q0 -10 -1 -20t-3 -20z" />
<glyph unicode="#" horiz-adv-x="499" d="M388 528h78v-63h-87l-18 -140h84v-63h-92l-23 -193h-70l25 193h-106l-24 -193h-69l24 193h-77v63h86l19 140h-84v63h92l21 168h68l-21 -168h105l22 168h68zM205 465l-19 -140h107l19 140h-107z" />
<glyph unicode="$" horiz-adv-x="554" d="M308 622q72 -3 113 -30t41 -64q0 -21 -14 -36t-34 -15q-16 0 -28 9.5t-27 21t-35 21t-52 9.5q-14 0 -28.5 -3t-26.5 -10t-19.5 -19t-7.5 -29q0 -18 12 -30.5t32 -21.5t46.5 -16.5t55.5 -15.5q31 -10 57 -22.5t44.5 -30.5t28.5 -44t10 -63q0 -28 -11 -54.5t-32 -48 t-52.5 -36.5t-72.5 -20v-93h-65v93q-62 6 -111 39.5t-67 95.5l76 18q17 -38 54.5 -54t77.5 -16q15 0 31 3.5t29.5 11.5t22.5 21t9 31q0 17 -7 29.5t-21.5 22.5t-36 18t-51.5 16q-31 9 -61 19t-53.5 28t-38 45.5t-14.5 71.5q0 63 41.5 101.5t119.5 46.5v93h65v-93z" />
<glyph unicode="%" horiz-adv-x="757" d="M203 0h-79l441 696h80zM171 703q36 0 63 -9t44.5 -30.5t26 -56.5t8.5 -86q0 -104 -34.5 -146.5t-107.5 -42.5q-37 0 -63.5 10t-44 32.5t-26 58.5t-8.5 88q0 51 8.5 86t26.5 56.5t44.5 30.5t62.5 9zM171 639q-15 0 -27 -5t-19.5 -18.5t-11.5 -36.5t-4 -58q0 -72 15.5 -99 t46.5 -27q32 0 47.5 27t15.5 99q0 35 -4 58t-12 36.5t-19.5 18.5t-27.5 5zM585 364q73 0 108 -40.5t35 -142.5q0 -104 -34.5 -146.5t-108.5 -42.5q-73 0 -108 42.5t-35 146.5q0 102 35 142.5t108 40.5zM585 300q-15 0 -27 -5t-20 -18.5t-12 -36.5t-4 -58q0 -73 15.5 -100 t47.5 -27t47.5 27t15.5 100q0 35 -4 58t-12 36.5t-19.5 18.5t-27.5 5z" />
<glyph unicode="&#x26;" horiz-adv-x="630" d="M423 564q-5 33 -21 49t-40 16q-60 0 -60 -69q0 -32 9 -76t24.5 -92.5t38 -97.5t49.5 -92q28 38 47 77t27 68l76 -23q-15 -51 -38.5 -100t-56.5 -94q23 -24 48 -37.5t49 -13.5t36 -13t12 -31q0 -16 -12 -29.5t-38 -13.5q-42 0 -80.5 19t-73.5 54q-39 -34 -84 -53.5 t-97 -19.5q-109 0 -159.5 59.5t-50.5 177.5q0 48 12 84t33 60t48.5 36t58.5 12q27 0 49 -13q-12 36 -20.5 75t-8.5 84q0 70 38 110.5t107 40.5q57 0 97 -33.5t52 -103.5zM358 133q-30 42 -54.5 89t-45.5 96q-8 15 -20.5 24t-30.5 9q-30 0 -53 -30t-23 -85q0 -44 9.5 -73 t26 -46.5t38 -25t44.5 -7.5q29 0 56.5 13.5t52.5 35.5z" />
<glyph unicode="'" horiz-adv-x="201" d="M118 495h-36l-23 136q-2 10 -3.5 20t-0.5 20q0 48 45 48t45 -48q0 -10 -1 -20t-3 -20z" />
<glyph unicode="(" horiz-adv-x="259" d="M248 725q-60 -85 -84 -197t-24 -233q0 -126 23.5 -238.5t83.5 -197.5l-36 -28q-75 88 -113 208.5t-38 255.5q0 134 38.5 250.5t113.5 206.5z" />
<glyph unicode=")" horiz-adv-x="259" d="M47 752q75 -90 113 -206.5t38 -250.5q0 -135 -38 -255.5t-113 -208.5l-36 28q60 85 83.5 197.5t23.5 238.5q0 121 -23.5 233t-83.5 197z" />
<glyph unicode="*" horiz-adv-x="443" d="M248 525l115 75q11 8 21 8q11 0 19.5 -10.5t8.5 -26.5q0 -15 -11 -21.5t-22 -10.5l-117 -39l138 -46q8 -4 12 -11t4 -14q0 -14 -10 -25t-21 -11q-8 -1 -14 2t-17 11l-104 69l45 -126q4 -9 4 -20q0 -13 -8 -21t-25 -8q-14 0 -21 11t-9 26l-14 129l-70 -116 q-12 -20 -27 -20q-12 0 -23 10t-11 23t13 26l95 93l-115 -15q-6 -1 -13.5 -1.5t-14.5 -0.5q-11 0 -18 10t-7 23t6 22t20 9h8t9 -1l124 -16l-98 94q-13 13 -13 24q0 14 10 23.5t23 9.5q19 0 30 -18l69 -113l12 124q2 24 10.5 33t19.5 9q16 0 26 -8t10 -22q0 -7 -3 -16z" />
<glyph unicode="+" horiz-adv-x="407" d="M371 278h-133v-134h-67v134h-134v67h134v133h67v-133h133v-67z" />
<glyph unicode="," horiz-adv-x="176" d="M32 -94q17 23 29 43.5t12 37.5q0 7 -6 12.5t-13.5 12t-13.5 16t-6 26.5q0 36 11 46t45 10q35 0 45.5 -11t10.5 -45q0 -20 -8 -41.5t-20.5 -43.5t-28 -43t-30.5 -40z" />
<glyph unicode="-" horiz-adv-x="300" d="M273 282h-246v64h246v-64z" />
<glyph unicode="." horiz-adv-x="198" d="M163 54q0 -36 -11 -46t-47 -10t-47 10t-11 46q0 35 11 45.5t47 10.5t47 -10.5t11 -45.5z" />
<glyph unicode="/" horiz-adv-x="293" d="M59 -60h-69l239 804h69z" />
<glyph unicode="0" horiz-adv-x="524" d="M263 704q58 0 100.5 -15.5t70 -55.5t41 -109t14.5 -177q0 -104 -13 -172.5t-40.5 -109t-70.5 -57t-103 -16.5q-59 0 -102 16.5t-71 57t-41.5 109t-13.5 172.5q0 108 13.5 177t42 109t71.5 55.5t102 15.5zM263 618q-28 0 -49.5 -12t-36 -43t-22 -83t-7.5 -133 q0 -80 7.5 -132t22 -82.5t36 -42.5t49.5 -12t49 12t35 42.5t21 82.5t7 132q0 81 -7 133t-21 83t-35 43t-49 12z" />
<glyph unicode="1" horiz-adv-x="354" d="M266 0h-108v549q-38 -34 -99 -56l-34 78q48 21 88 53t70 77l83 -8v-693z" />
<glyph unicode="2" horiz-adv-x="459" d="M434 0h-404l-28 57q15 78 67.5 148t130.5 127q60 44 89.5 84.5t29.5 91.5q0 48 -25 71.5t-67 23.5q-35 0 -61 -11.5t-43 -40.5q-9 -16 -22 -23t-27 -7q-20 0 -35.5 13.5t-15.5 36.5q0 18 13 40q30 48 79 68.5t100 20.5q52 0 90.5 -14t64.5 -39.5t39 -61t13 -77.5 q0 -20 -2 -38.5t-8.5 -38t-19.5 -40t-34 -42.5q-27 -28 -66.5 -54t-78.5 -55t-71.5 -63.5t-45.5 -79.5h338v-97z" />
<glyph unicode="3" horiz-adv-x="473" d="M210 415q45 0 71.5 28t26.5 77q0 45 -24 73t-72 28q-30 0 -56 -16t-40 -46q-8 -17 -20 -24.5t-25 -7.5q-19 0 -34 13.5t-15 34.5q0 14 8 30q31 58 80 78.5t106 20.5q94 0 146 -43.5t52 -128.5q0 -60 -26 -96.5t-75 -55.5q60 -17 91.5 -60.5t31.5 -122.5q0 -53 -16 -91.5 t-44.5 -63.5t-69 -37t-89.5 -12q-53 0 -91 18t-63.5 45t-39 57.5t-17.5 55.5l66 21q5 -22 16.5 -42t29 -35.5t40.5 -25t51 -9.5q54 0 88 30.5t34 96.5t-31 98t-88 32h-76v80h74z" />
<glyph unicode="4" horiz-adv-x="493" d="M427 290h53v-91h-53v-199h-108v199h-292l-21 74l324 433l97 -23v-393zM116 290h203v268z" />
<glyph unicode="5" horiz-adv-x="488" d="M416 644q-16 -12 -38 -21t-47.5 -14.5t-53 -8t-54.5 -2.5q-26 0 -49.5 1.5t-40.5 4.5l-16 -154q22 20 51 28.5t69 8.5q106 0 158 -61t52 -176q0 -60 -13 -108t-40.5 -81t-72 -51t-107.5 -18q-40 0 -76 10t-63.5 27t-43.5 40.5t-16 50.5q0 21 14 33.5t33 12.5q12 0 24 -7 t17 -23q8 -24 38.5 -42t70.5 -18q60 0 91.5 39.5t31.5 134.5q0 69 -26.5 109.5t-90.5 40.5q-35 0 -64 -15t-55 -43l-69 25l31 334q42 -5 89 -8t98 -3q88 0 157 12z" />
<glyph unicode="6" horiz-adv-x="503" d="M134 357q18 42 60.5 65.5t96.5 23.5q88 0 133.5 -57t45.5 -157q0 -118 -55.5 -179t-161.5 -61q-57 0 -98 19t-67.5 59.5t-39 103.5t-12.5 150q0 109 15 182t44.5 117t73 62.5t100.5 18.5q70 0 110.5 -24.5t64.5 -69.5q6 -14 6 -24q0 -20 -15.5 -33.5t-33.5 -13.5 q-25 0 -36 23q-16 29 -42 44t-58 15q-40 0 -65.5 -21t-40 -55.5t-20 -78t-5.5 -88.5v-21zM150 244q2 -36 8.5 -66t18.5 -52.5t30.5 -35t45.5 -12.5q51 0 79 39.5t28 111.5q0 70 -27 106t-72 36q-48 0 -74 -34.5t-37 -92.5z" />
<glyph unicode="7" horiz-adv-x="415" d="M415 621q-47 -64 -80 -131.5t-57.5 -139t-41.5 -147.5t-30 -157q-5 -26 -17 -40t-45 -14q-27 0 -44 14t-17 44q0 29 9 73t21 84q30 103 80 202t128 190h-321v97h394z" />
<glyph unicode="8" horiz-adv-x="515" d="M357 379q57 -17 89 -59.5t32 -114.5q0 -59 -13.5 -100t-41 -66t-69 -36t-97.5 -11q-55 0 -96.5 11t-69 36t-41.5 66t-14 100q0 69 32 112t89 60q-51 20 -73.5 58.5t-22.5 83.5q0 99 49.5 142t146.5 43q48 0 84.5 -9.5t61 -31.5t37.5 -57t13 -87q0 -48 -22.5 -85.5 t-73.5 -54.5zM259 342q-60 0 -86.5 -35t-26.5 -102q0 -136 113 -136q55 0 84.5 33.5t29.5 102.5q0 67 -27 102t-87 35zM260 628q-48 0 -72 -24.5t-24 -79.5q0 -111 96 -111q46 0 71.5 28t25.5 83t-24.5 79.5t-72.5 24.5z" />
<glyph unicode="9" horiz-adv-x="513" d="M376 333q-24 -39 -63.5 -59t-90.5 -20q-85 0 -132.5 56.5t-47.5 153.5q0 121 55 180.5t161 59.5q58 0 99 -18t67 -56.5t38 -98.5t12 -145q0 -114 -15 -189.5t-44.5 -121t-73.5 -64.5t-101 -19q-66 0 -107 23t-66 71q-6 13 -6 24q0 20 15.5 33.5t33.5 13.5q24 0 36 -23 q15 -28 41 -43.5t57 -15.5q38 0 63 19.5t40 54t21.5 81.5t7.5 103zM362 450q-2 37 -7.5 68t-17.5 53.5t-31 34.5t-48 12q-51 0 -78.5 -39t-27.5 -112q0 -69 27 -103t73 -34q48 0 74.5 33t35.5 87z" />
<glyph unicode=":" horiz-adv-x="198" d="M163 54q0 -36 -11 -46t-47 -10t-47 10t-11 46q0 35 11 45.5t47 10.5t47 -10.5t11 -45.5zM163 418q0 -36 -11 -45.5t-47 -9.5t-47 9.5t-11 45.5t11 46.5t47 10.5t47 -10.5t11 -46.5z" />
<glyph unicode=";" horiz-adv-x="184" d="M151 418q0 -36 -11 -45.5t-47 -9.5t-47.5 9.5t-11.5 45.5t11.5 46.5t47.5 10.5t47 -10.5t11 -46.5zM34 -94q17 23 29 43.5t12 37.5q0 7 -6 12.5t-13.5 12t-13.5 16t-6 26.5q0 36 11 46t45 10q35 0 45.5 -11t10.5 -45q0 -20 -8 -41.5t-20.5 -43.5t-28 -43t-30.5 -40z" />
<glyph unicode="&#x3c;" horiz-adv-x="471" d="M407 434l-258 -137l258 -139v-81l-343 193v55l343 193v-84z" />
<glyph unicode="=" horiz-adv-x="406" d="M370 373h-334v67h334v-67zM370 184h-334v67h334v-67z" />
<glyph unicode="&#x3e;" horiz-adv-x="471" d="M407 270l-343 -193v81l257 139l-257 137v84l343 -193v-55z" />
<glyph unicode="?" horiz-adv-x="479" d="M214 186q-20 17 -30 40.5t-10 43.5q0 34 11.5 59.5t28 46.5t36.5 39t36.5 37t28 40.5t11.5 49.5q0 48 -26 67t-66 19q-34 0 -58.5 -17.5t-41.5 -60.5q-6 -14 -16.5 -20.5t-22.5 -6.5q-16 0 -32 13t-16 35q0 33 16.5 60t43.5 46t62 29.5t73 10.5q42 0 77.5 -9t61 -28.5 t40 -51t14.5 -77.5q0 -41 -12.5 -70.5t-31.5 -52t-40.5 -41t-40.5 -36.5t-31.5 -39t-12.5 -49q0 -17 2 -36t7 -34zM295 54q0 -36 -11 -46t-47 -10t-47 10t-11 46q0 35 11 45.5t47 10.5t47 -10.5t11 -45.5z" />
<glyph unicode="@" horiz-adv-x="747" d="M521 186q0 -22 9 -33.5t32 -11.5q42 0 64.5 40t22.5 106q0 64 -18.5 110t-52 75.5t-80.5 43t-104 13.5q-59 0 -110 -16.5t-88.5 -53t-59 -95t-21.5 -142.5q0 -62 15 -115.5t47.5 -93t84 -62t124.5 -22.5q48 0 94.5 6.5t88.5 33.5l28 -56q-35 -28 -91 -42.5t-122 -14.5 q-95 0 -161.5 29t-108.5 79t-61 116.5t-19 141.5q0 104 29 177t78.5 118.5t115 66t138.5 20.5t132 -19.5t100.5 -58.5t64 -97.5t22.5 -135.5q0 -42 -11 -79.5t-31 -65.5t-49 -44.5t-65 -16.5q-32 0 -57 11.5t-36 41.5q-17 -26 -41 -43t-67 -17q-45 0 -74 36t-29 100 q0 37 9.5 68.5t26.5 54.5t42 36t56 13t52 -14t34 -38l5 35h53zM468 296q-26 35 -63 35q-38 0 -62 -30.5t-24 -85.5q0 -38 15.5 -58t42.5 -20t48 13t34 34z" />
<glyph unicode="A" d="M587 0h-127l-44 143h-245l-42 -143h-111l224 710h114zM194 226h198l-100 314z" />
<glyph unicode="B" horiz-adv-x="578" d="M192 342v-257q42 -3 85 -3q37 0 63.5 5.5t44 20t26 40t8.5 64.5q0 40 -10 65t-29.5 39.5t-47.5 20t-65 5.5h-75zM73 709q54 2 110 3t116 1q114 0 162.5 -45t48.5 -124q0 -66 -26.5 -103t-78.5 -52q68 -17 101 -59.5t33 -122.5q0 -69 -20.5 -110.5t-58.5 -63.5t-92 -29 t-120 -7q-84 0 -175 6v706zM192 421h78q58 0 90 23.5t32 88.5q0 49 -21.5 72t-75.5 23q-52 0 -103 -3v-204z" />
<glyph unicode="C" horiz-adv-x="622" d="M593 169q-15 -45 -41 -78t-59 -55t-72 -33t-80 -11q-156 0 -232 88t-76 274q0 97 21 166.5t61 113t96.5 64t127.5 20.5q34 0 68.5 -6.5t66 -21t57.5 -37.5t42 -55q8 -16 8 -32q0 -21 -14.5 -33.5t-32.5 -12.5q-11 0 -22 5.5t-18 18.5q-25 45 -66 66.5t-89 21.5 q-88 0 -131.5 -67.5t-43.5 -208.5t44.5 -209.5t143.5 -68.5q63 0 107.5 30.5t67.5 81.5z" />
<glyph unicode="D" horiz-adv-x="631" d="M73 706q54 4 109 5.5t106 1.5q90 0 149.5 -18.5t95.5 -60.5t50.5 -110.5t14.5 -168.5q0 -96 -14.5 -163.5t-50.5 -111t-96 -63.5t-150 -20q-63 0 -116 1t-98 3v705zM192 85q23 -2 49.5 -2.5t50.5 -0.5q49 0 84 13.5t58 45.5t34 84t11 130q0 79 -10 132t-32.5 84t-59 44 t-88.5 13q-26 0 -51.5 -0.5t-45.5 -1.5v-541z" />
<glyph unicode="E" horiz-adv-x="500" d="M461 613h-269v-197h226v-81h-226v-239h276v-96h-395v710h388v-97z" />
<glyph unicode="F" horiz-adv-x="503" d="M468 613h-276v-194h221v-81h-221v-338h-119v710h395v-97z" />
<glyph unicode="G" horiz-adv-x="636" d="M582 84q-37 -45 -103 -68.5t-144 -23.5q-149 0 -225.5 88.5t-76.5 271.5q0 99 21 168.5t60.5 113.5t95.5 64t127 20q33 0 68 -6.5t66.5 -21t58 -37.5t42.5 -55q9 -17 9 -32q0 -21 -15 -33.5t-33 -12.5q-11 0 -22 5t-18 19q-25 45 -66 66.5t-90 21.5q-85 0 -129 -67.5 t-44 -211.5q0 -138 44.5 -206.5t138.5 -68.5q42 0 72 10.5t50 27.5v172h-137l6 84h244v-288z" />
<glyph unicode="H" horiz-adv-x="645" d="M572 0h-119v345h-261v-345h-119v710h119v-281h261v281h119v-710z" />
<glyph unicode="I" horiz-adv-x="273" d="M196 0h-120v710h120v-710z" />
<glyph unicode="J" horiz-adv-x="423" d="M357 39q0 -47 -10 -85t-32.5 -65.5t-58 -42.5t-86.5 -15q-60 0 -103.5 30.5t-64.5 90.5l66 22q11 -29 34 -45t53 -16q39 0 61 28.5t22 82.5v686h119v-671z" />
<glyph unicode="K" horiz-adv-x="559" d="M329 450l240 -450h-137l-174 363l-66 -80v-283h-119v710h119v-298l229 298h128z" />
<glyph unicode="L" horiz-adv-x="462" d="M192 96h253v-96h-372v710h119v-614z" />
<glyph unicode="M" horiz-adv-x="835" d="M781 0h-111l-27 488l-169 -458h-111l-169 459l-27 -489h-111l50 710h123l192 -530l193 530h118z" />
<glyph unicode="N" horiz-adv-x="673" d="M599 0h-104l-313 474v-474h-108v710h103l313 -477v477h109v-710z" />
<glyph unicode="O" horiz-adv-x="679" d="M340 718q73 0 130 -20t96 -64t59.5 -113.5t20.5 -169.5q0 -99 -20 -167t-59 -111t-96 -62t-131 -19q-73 0 -130 18.5t-96.5 61t-60 111t-20.5 168.5q0 101 20.5 171t60 113.5t96.5 63t130 19.5zM337 632q-91 0 -133 -64.5t-42 -203.5q0 -150 46 -218t135 -68 q43 0 75.5 14t54.5 45.5t33 82t11 123.5q0 79 -11.5 134t-34 89.5t-56.5 50t-78 15.5z" />
<glyph unicode="P" horiz-adv-x="543" d="M192 0h-119v709q39 2 86.5 3t104.5 1q66 0 112.5 -11.5t76 -37.5t43 -67.5t13.5 -100.5q0 -57 -16 -98.5t-45.5 -68t-70 -39.5t-89.5 -13q-26 0 -49.5 2t-46.5 5v-284zM192 366q18 -2 36.5 -3.5t38.5 -1.5q63 0 92.5 31t29.5 103q0 69 -27 101t-93 32q-20 0 -39.5 -0.5 t-37.5 -1.5v-260z" />
<glyph unicode="Q" horiz-adv-x="673" d="M614 -186q-34 -17 -88.5 -26.5t-111.5 -9.5q-39 0 -84 5t-83 20.5t-63 43.5t-25 73q0 58 40 95q-81 31 -123.5 111.5t-42.5 224.5q0 101 20.5 171t60 113.5t96.5 63t130 19.5t130 -20t96 -64t59.5 -113.5t20.5 -169.5q0 -99 -20 -167t-59 -111t-96 -62t-131 -19 q-31 0 -59 3q-30 -21 -30 -64q0 -25 21.5 -39t51.5 -20.5t61.5 -8t51.5 -1.5q40 0 80 5t77 13zM337 632q-91 0 -133 -64.5t-42 -203.5q0 -150 46 -218t135 -68q43 0 75.5 14t54.5 45.5t33 82t11 123.5q0 79 -11.5 134t-34 89.5t-56.5 50t-78 15.5z" />
<glyph unicode="R" horiz-adv-x="571" d="M554 0h-128l-131 314q-24 0 -49 0.5t-54 4.5v-319h-119v709q38 2 84.5 3t109.5 1q68 0 115.5 -9t77 -31.5t43 -59.5t13.5 -94q0 -77 -30.5 -119.5t-79.5 -60.5zM192 395q37 -3 79 -3q31 0 54.5 5.5t39.5 19t24 36.5t8 59q0 67 -31.5 91.5t-92.5 24.5q-25 0 -45 -0.5 t-36 -1.5v-231z" />
<glyph unicode="S" horiz-adv-x="543" d="M104 185q20 -55 61.5 -77.5t98.5 -22.5q22 0 44.5 4.5t40.5 16t29 29.5t11 45q0 31 -16 52.5t-42 36.5t-58.5 26.5t-66.5 24.5t-62.5 29.5t-49.5 40.5t-32.5 57t-11.5 79t16 82t44.5 60.5t67.5 37t86 12.5q40 0 79.5 -9.5t70.5 -28t50 -45.5t19 -61q0 -23 -15.5 -36.5 t-33.5 -13.5q-29 0 -44 31q-20 42 -57 53.5t-85 11.5q-42 0 -64.5 -22.5t-22.5 -55.5q0 -24 10.5 -42t29.5 -31.5t46 -24t61 -20.5q39 -13 74.5 -29t61.5 -41t41.5 -62.5t15.5 -94.5q0 -45 -16.5 -83t-47 -65t-75 -42t-101.5 -15q-90 0 -147.5 44t-75.5 128z" />
<glyph unicode="T" horiz-adv-x="488" d="M486 613h-185v-613h-119v613h-180v97h484v-97z" />
<glyph unicode="U" horiz-adv-x="651" d="M578 248q0 -64 -12 -112t-40.5 -80t-77.5 -48t-122 -16q-74 0 -122.5 16t-77.5 48t-41 80t-12 112v462h124v-458q0 -46 6.5 -78t22 -52t40.5 -29t63 -9t64 9t41.5 28.5t22.5 51.5t7 79v458h114v-462z" />
<glyph unicode="V" horiz-adv-x="560" d="M345 0h-114l-231 710h127l168 -540l163 540h111z" />
<glyph unicode="W" horiz-adv-x="945" d="M750 0h-106l-166 518l-162 -518h-108l-195 710h117l139 -539l162 539h108l164 -539l136 539h103z" />
<glyph unicode="X" horiz-adv-x="623" d="M376 378l219 -378h-137l-158 282l-155 -282h-118l220 372l-199 338h139l135 -242l133 242h119z" />
<glyph unicode="Y" horiz-adv-x="563" d="M341 312v-312h-119v310l-209 400h136l148 -296l156 296h108z" />
<glyph unicode="Z" horiz-adv-x="524" d="M494 661l-316 -555h316v-106h-446l-21 47l317 556h-302v107h432z" />
<glyph unicode="[" horiz-adv-x="263" d="M259 696h-97v-752h97v-64h-178v881h178v-65z" />
<glyph unicode="\" horiz-adv-x="293" d="M303 -60h-68l-240 804h69z" />
<glyph unicode="]" horiz-adv-x="265" d="M185 -120h-180v64h98v752h-98v65h180v-881z" />
<glyph unicode="^" horiz-adv-x="514" d="M450 386h-90l-102 223l-109 -223h-84l158 323h73z" />
<glyph unicode="_" horiz-adv-x="487" d="M487 -128h-487v58h487v-58z" />
<glyph unicode="`" horiz-adv-x="276" d="M222 558l-175 65l30 62l164 -90z" />
<glyph unicode="a" horiz-adv-x="489" d="M415 110q0 -23 5 -34.5t19 -11.5q12 0 19 7l13 -38q-12 -18 -29.5 -28t-48.5 -10q-52 0 -74 54q-20 -26 -53.5 -41.5t-78.5 -15.5q-70 0 -111 37.5t-41 115.5t49.5 119t149.5 41q19 0 38.5 -1.5t34.5 -3.5v43q0 42 -16 61.5t-54 19.5q-34 0 -59 -11t-40 -36 q-8 -12 -18.5 -17.5t-21.5 -5.5q-19 0 -33 11.5t-14 31.5q0 15 9 30q25 39 73.5 59t112.5 20q92 0 130.5 -43.5t38.5 -120.5v-232zM308 240q-20 4 -57 4q-54 0 -82 -21t-28 -69q0 -40 23 -61t61 -21q30 0 51 10.5t32 24.5v133z" />
<glyph unicode="b" horiz-adv-x="522" d="M176 450q26 32 58.5 44t71.5 12q37 0 69.5 -11t57 -39.5t38.5 -77t14 -124.5q0 -71 -13.5 -120.5t-37.5 -81t-56 -46t-69 -14.5q-45 0 -83.5 16.5t-57.5 45.5l-1 -54h-99v744h108v-294zM176 113q17 -18 41 -27.5t51 -9.5q45 0 76.5 42t31.5 137q0 48 -8.5 80.5t-23 51.5 t-35 27t-44.5 8q-23 0 -47 -8.5t-42 -25.5v-275z" />
<glyph unicode="c" horiz-adv-x="480" d="M447 138q-16 -64 -62.5 -105t-121.5 -41q-115 0 -170.5 64.5t-55.5 197.5t58.5 192.5t168.5 59.5q29 0 61 -8.5t58.5 -24t44 -37t17.5 -47.5q0 -20 -15 -32.5t-33 -12.5q-11 0 -21.5 5.5t-17.5 18.5q-14 27 -39.5 40.5t-54.5 13.5q-55 0 -86.5 -42t-31.5 -127 q0 -88 32 -132.5t92 -44.5q43 0 69.5 20.5t40.5 60.5z" />
<glyph unicode="d" horiz-adv-x="521" d="M344 388q-37 34 -88 34q-25 0 -45.5 -8t-35 -27.5t-22.5 -51.5t-8 -80q0 -95 30.5 -137t77.5 -42q57 0 91 37v275zM453 0h-100l-2 54q-19 -29 -56.5 -45.5t-82.5 -16.5q-38 0 -70 14t-55.5 45.5t-37 81.5t-13.5 121q0 74 13.5 123t37.5 77.5t56.5 40t70.5 11.5 q40 0 72 -12t58 -44v294h109v-744z" />
<glyph unicode="e" horiz-adv-x="493" d="M143 235q1 -78 34 -118.5t94 -40.5q43 0 70 20t39 55l68 -18q-20 -69 -68.5 -105t-114.5 -36q-112 0 -170 63.5t-58 198.5q0 252 215 252q102 0 153 -61t51 -164q0 -11 -1 -22.5t-3 -23.5h-309zM352 299q-2 63 -29.5 95.5t-72.5 32.5q-48 0 -76 -34t-30 -94h208z" />
<glyph unicode="f" horiz-adv-x="313" d="M304 425h-121v-425h-108v425h-66v74h66v104q0 36 11.5 63t31.5 45t47.5 27t60.5 9q17 0 38.5 -4t41 -13t33 -24t13.5 -37q0 -19 -13 -32t-30 -13q-11 0 -18.5 6.5t-16 15t-19.5 15t-27 6.5q-21 0 -33 -14t-12 -52v-102h121v-74z" />
<glyph unicode="g" horiz-adv-x="515" d="M449 -50q0 -57 -13.5 -96.5t-38.5 -63.5t-60.5 -35t-79.5 -11q-78 0 -127 31t-71 88l68 22q14 -26 44 -41.5t73 -15.5q45 0 71 24.5t26 84.5v112q-21 -22 -53 -34.5t-75 -12.5q-38 0 -70.5 11.5t-56 40t-36.5 76.5t-13 120q0 69 13.5 118t37.5 79.5t56 44.5t70 14 q42 0 76.5 -13t57.5 -34l1 40h100v-549zM341 391q-38 36 -92 36q-51 0 -78 -41t-27 -137q0 -92 27.5 -130t80.5 -38q24 0 47 8.5t42 26.5v275z" />
<glyph unicode="h" horiz-adv-x="546" d="M181 443q26 32 60 47.5t85 15.5q33 0 61 -9t48 -33t31.5 -66.5t11.5 -108.5v-289h-108v307q0 63 -22.5 89t-67.5 26q-28 0 -53.5 -10.5t-45.5 -31.5v-380h-108v744h108v-301z" />
<glyph unicode="i" horiz-adv-x="236" d="M172 0h-108v499h108v-499zM176 638q0 -32 -11.5 -41t-46.5 -9q-18 0 -29.5 2t-18 7.5t-9 15t-2.5 25.5q0 31 11.5 41t47.5 10q35 0 46.5 -10t11.5 -41z" />
<glyph unicode="j" horiz-adv-x="254" d="M192 -80q-1 -96 -40.5 -136t-110.5 -40q-59 0 -91.5 27.5t-47.5 70.5l67 23q11 -21 27 -29t34 -8q26 0 40 16.5t14 56.5v598h108v-579zM195 638q0 -32 -11.5 -41t-46.5 -9q-18 0 -29.5 2t-18 7.5t-9 15t-2.5 25.5q0 31 11.5 41t47.5 10q35 0 46.5 -10t11.5 -41z" />
<glyph unicode="k" horiz-adv-x="482" d="M319 330l166 -330h-120l-121 251l-65 -67v-184h-107v744h107v-450l181 205h123z" />
<glyph unicode="l" horiz-adv-x="255" d="M180 0h-107v744h107v-744z" />
<glyph unicode="m" horiz-adv-x="801" d="M733 0h-108v296q0 66 -18.5 96t-64.5 30q-52 0 -94 -49q3 -17 4 -37.5t1 -43.5v-292h-103v298q0 66 -18.5 95t-64.5 29q-27 0 -49 -11t-41 -31v-380h-108v499h99l3 -54q26 33 62 47t79 14q39 0 71 -14.5t49 -54.5q58 69 155 69q32 0 59 -9t46.5 -33t30 -66t10.5 -108 v-290z" />
<glyph unicode="n" horiz-adv-x="543" d="M474 0h-108v296q0 66 -20.5 96t-68.5 30q-60 0 -100 -42v-380h-108v499h99l2 -56q51 63 152 63q33 0 61 -9t48 -33t31.5 -66t11.5 -108v-290z" />
<glyph unicode="o" horiz-adv-x="516" d="M259 506q112 0 166 -60t54 -194q0 -136 -54.5 -198.5t-165.5 -62.5q-115 0 -168.5 63t-53.5 201q0 132 54.5 191.5t167.5 59.5zM257 422q-54 0 -82.5 -38t-28.5 -123q0 -50 7.5 -85.5t22 -57.5t36 -32t48.5 -10q111 0 111 170q0 95 -28 135.5t-86 40.5z" />
<glyph unicode="p" horiz-adv-x="522" d="M169 446q19 28 57 44t83 16q36 0 68 -14t56 -44.5t38 -80.5t14 -122t-13 -121t-37 -78t-57 -41.5t-72 -12.5q-40 0 -72 12t-58 44v-301h-108v752h100zM176 111q35 -35 89 -35q25 0 45.5 8.5t35 28t22.5 52t8 79.5q0 93 -29 135.5t-81 42.5q-55 0 -90 -35v-276z" />
<glyph unicode="q" horiz-adv-x="520" d="M454 -253h-109v302q-26 -33 -58 -45t-71 -12q-40 0 -73 12t-56.5 41.5t-36.5 78t-13 121.5q0 71 13.5 120.5t37.5 81t56 45.5t70 14q45 0 82 -16t57 -44l1 53h100v-752zM345 387q-35 35 -91 35q-52 0 -80 -43.5t-28 -134.5q0 -47 8 -79t22.5 -52t35 -28.5t44.5 -8.5 q29 0 50.5 9.5t38.5 25.5v276z" />
<glyph unicode="r" horiz-adv-x="415" d="M169 435q18 32 52 51.5t74 19.5q15 0 34 -5.5t35.5 -16t27.5 -25t11 -32.5q0 -20 -14 -34.5t-32 -14.5q-14 0 -22.5 7.5t-18 17t-21.5 17t-31 7.5q-26 0 -52.5 -19t-35.5 -50v-358h-108v499h99z" />
<glyph unicode="s" horiz-adv-x="443" d="M107 143q14 -37 47 -54.5t66 -17.5q15 0 30.5 3t28 10.5t20.5 20t8 31.5q0 26 -18.5 40.5t-46.5 24.5t-60.5 19.5t-60.5 26.5t-46.5 46t-18.5 77q0 64 45.5 100t126.5 36q44 0 75.5 -9.5t51 -23.5t28.5 -29t9 -27q0 -19 -13.5 -33t-31.5 -14q-8 0 -17 3.5t-20 14.5 q-17 17 -36 28.5t-50 11.5q-27 0 -51 -13t-24 -45q0 -26 20 -39t73 -28q35 -10 64.5 -21t51 -28.5t33.5 -45t12 -69.5q0 -27 -11 -53.5t-33.5 -47.5t-56.5 -33.5t-80 -12.5q-31 0 -60 8.5t-53.5 25t-42.5 42t-27 58.5z" />
<glyph unicode="t" horiz-adv-x="360" d="M192 499h116v-74h-116v-289q0 -32 13 -45.5t37 -13.5q23 0 36.5 7.5t23.5 22.5l35 -29q-13 -39 -41 -62.5t-82 -23.5q-67 0 -98.5 39t-31.5 114v280h-68v74h68v125l108 15v-140z" />
<glyph unicode="u" horiz-adv-x="534" d="M464 173q0 -88 -47 -135t-152 -47t-150.5 47t-45.5 135v326h111v-326q0 -21 3 -39t12.5 -30.5t26.5 -20t45 -7.5t46 7.5t28 20t14 30.5t4 39v326h105v-326z" />
<glyph unicode="v" horiz-adv-x="462" d="M291 0h-115l-163 499h111l114 -381l114 381h99z" />
<glyph unicode="w" horiz-adv-x="750" d="M596 0h-111l-108 372l-106 -372h-111l-140 499h109l99 -376l105 376h104l106 -376l99 376h92z" />
<glyph unicode="x" horiz-adv-x="480" d="M292 264l172 -264h-118l-117 195l-115 -195h-104l171 261l-154 238h117l100 -167l95 167h106z" />
<glyph unicode="y" horiz-adv-x="469" d="M264 -95q-10 -30 -24.5 -59t-35.5 -51.5t-49 -36.5t-65 -14q-22 0 -36 11.5t-14 31.5t13.5 31t31.5 11q25 0 43.5 13.5t32 35t23 48t15.5 52.5l-189 521h113l120 -387l119 387h98z" />
<glyph unicode="z" horiz-adv-x="415" d="M393 437l-240 -352h246v-85h-361l-21 61l240 352h-224v86h345z" />
<glyph unicode="{" horiz-adv-x="293" d="M272 696h-49q-32 0 -40 -21.5t-8 -56.5q0 -45 5 -91t5 -88q0 -89 -63 -120q32 -16 47.5 -44.5t15.5 -73.5q0 -42 -5 -89.5t-5 -90.5q0 -45 10.5 -61t37.5 -16h49v-64h-72q-57 0 -81 34.5t-24 94.5q0 45 4 96t4 91q0 46 -15.5 69t-64.5 26v56q49 5 64.5 35.5t15.5 82.5 q0 16 -1.5 36t-3 41t-2.5 42.5t-1 39.5q0 67 25.5 102t79.5 35h72v-65z" />
<glyph unicode="|" horiz-adv-x="221" d="M145 -182h-70v968h70v-968z" />
<glyph unicode="}" horiz-adv-x="292" d="M92 761q54 0 79.5 -35t25.5 -102q0 -18 -1.5 -39.5t-3 -42.5t-2.5 -41t-1 -36q0 -52 14.5 -82t64.5 -36v-56q-50 -4 -64.5 -26.5t-14.5 -68.5q0 -40 4 -91t4 -96q0 -60 -24 -94.5t-81 -34.5h-74v64h50q27 0 37.5 16t10.5 61q0 43 -4.5 90.5t-4.5 89.5q0 45 15.5 73.5 t47.5 44.5q-63 31 -63 120q0 42 4.5 88t4.5 91q0 35 -7.5 56.5t-40.5 21.5h-50v65h74z" />
<glyph unicode="~" horiz-adv-x="466" d="M420 359q-11 -56 -40 -78.5t-65 -22.5q-29 0 -51.5 9t-41.5 20.5t-37 20.5t-37 9q-25 0 -40.5 -21.5t-20.5 -47.5l-41 30q11 55 39.5 77.5t65.5 22.5q28 0 51 -9t42.5 -20t37 -20t36.5 -9q25 0 40.5 21t19.5 46z" />
<glyph unicode="&#xa1;" horiz-adv-x="237" d="M59 0zM90.0088 436.012h56.9971l31.998 -441.973q0 -16.999 -2 -31.998t-8.5 -26.499q-6.49902 -11.499 -18.499 -17.999q-11.999 -6.49902 -31.998 -6.49902q-18.998 0 -30.998 6.49902q-11.999 6.5 -17.999 17.999q-5.99902 11.5 -7.99902 26.499t-2 31.998z M60.0107 575.003q0 35.998 10.999 45.9971q11 10 46.9971 10q35.998 0 46.9971 -10q11 -9.99902 11 -45.9971q0 -34.9971 -11 -45.4971q-10.999 -10.499 -46.9971 -10.499q-35.9971 0 -46.9971 10.499q-10.999 10.5 -10.999 45.4971z" />
<glyph unicode="&#xa2;" horiz-adv-x="555" d="M328 621q52 -6 96 -33t62 -75q3 -9 3 -17q0 -20 -15 -33t-35 -13q-12 0 -23.5 5.5t-18.5 20.5q-5 10 -15.5 20.5t-25 18.5t-30.5 13.5t-31 5.5q-58 0 -92 -45.5t-34 -136.5q0 -97 35 -144.5t101 -47.5q45 0 72.5 23t41.5 65l69 -21q-15 -60 -56 -101.5t-104 -51.5v-93 h-66v92q-206 16 -206 280q0 132 53 196.5t153 72.5v93h66v-94z" />
<glyph unicode="&#xa3;" horiz-adv-x="540" d="M427 266h-154q0 -25 -6.5 -47t-17 -40.5t-23.5 -33t-26 -24.5q25 -1 49 -9t47.5 -17t46 -16t45.5 -7t47 7t46 30l23 -56q-38 -59 -114 -59q-35 0 -62.5 6t-52 13t-49 13t-54.5 6q-31 0 -58 -9.5t-48 -34.5l-32 21q7 31 24 57t40 40q37 27 53 68t18 92h-68v57h66 q-2 35 -6 71.5t-4 79.5q0 64 14 108t40.5 70.5t63.5 38t83 11.5q34 0 61 -9.5t46 -24t29 -32.5t10 -35t-10.5 -26.5t-24.5 -9.5q-19 0 -28 19q-11 23 -30 36.5t-46 13.5q-57 0 -80 -46t-23 -121q0 -35 4 -71t6 -73h155v-57z" />
<glyph unicode="&#xa5;" horiz-adv-x="510" d="M313 358h124v-68h-132v-82h132v-67h-132v-141h-109v141h-129v67h129v82h-129v68h120l-164 338h106l130 -277l135 277h94z" />
<glyph unicode="&#xa6;" horiz-adv-x="222" d="M146 367h-71v377h71v-377zM146 -197h-71v377h71v-377z" />
<glyph unicode="&#xa7;" horiz-adv-x="454" d="M125 137q10 -36 39 -52t65 -16q29 0 51 16.5t22 40.5q0 23 -16.5 37.5t-41.5 26t-54 23t-54 28t-41.5 41.5t-16.5 64t19.5 72t54.5 51q-35 17 -59.5 43.5t-24.5 73.5q0 63 39.5 97t111.5 34q36 0 64 -8t46.5 -20t28 -27.5t9.5 -30.5q0 -19 -12.5 -31.5t-29.5 -12.5 q-14 0 -23 8.5t-19 19t-25 19t-40 8.5q-31 0 -47 -16.5t-16 -35.5q0 -18 11.5 -28t31.5 -20q42 -20 76 -35.5t58 -33.5t37 -40.5t13 -56.5q0 -40 -16 -71t-45 -48q32 -20 51 -48.5t19 -76.5q0 -27 -10.5 -51.5t-30.5 -44t-50.5 -31t-69.5 -11.5q-31 0 -59 7.5t-50 23.5 t-37 40.5t-21 57.5zM218 443q-56 -17 -56 -72q0 -31 28 -54.5t76 -37.5q17 14 27 31.5t10 37.5q0 35 -24.5 58t-60.5 37z" />
<glyph unicode="&#xa8;" horiz-adv-x="352" d="M317 611q0 -30 -9.5 -38.5t-40.5 -8.5q-32 0 -41.5 8.5t-9.5 38.5t9.5 38.5t41.5 8.5q31 0 40.5 -8.5t9.5 -38.5zM148 611q0 -30 -9.5 -38.5t-41.5 -8.5q-31 0 -40.5 8.5t-9.5 38.5t9.5 38.5t40.5 8.5q32 0 41.5 -8.5t9.5 -38.5z" />
<glyph unicode="&#xa9;" horiz-adv-x="786" d="M750 345q0 -77 -27.5 -142t-75.5 -113t-113.5 -75t-141.5 -27t-141 27t-113 75t-75.5 113t-27.5 142q0 76 27.5 141t75.5 113t113 75.5t141 27.5q74 0 139 -26.5t114 -74t77 -113t28 -143.5zM704 345q0 66 -24 123t-66 98.5t-99 65.5t-123 24q-64 0 -120.5 -23.5t-99 -65 t-67 -98.5t-24.5 -124q0 -66 24 -123t66 -99t98.5 -66t122.5 -24t123 24t99 66t66 99t24 123zM550 236q-17 -51 -59 -77t-97 -26q-46 0 -82 15.5t-61 44t-38 67.5t-13 87q0 49 14.5 87.5t41 65t63.5 40.5t81 14q21 0 43.5 -4t43.5 -13t37.5 -22.5t25.5 -32.5q4 -7 5 -10.5 t1 -6.5q0 -11 -7 -18t-17 -7q-12 0 -20 14q-15 29 -46 42.5t-66 13.5q-63 0 -105.5 -41t-42.5 -122q0 -42 11 -73.5t30.5 -53t46 -32.5t56.5 -11q48 0 78 16t46 50z" />
<glyph unicode="&#xaa;" horiz-adv-x="338" d="M296 384q0 -14 2.5 -21t10.5 -7q6 0 14 5l11 -30q-10 -14 -23 -21t-34 -7q-16 0 -29.5 8.5t-21.5 28.5q-15 -20 -39 -30t-53 -10q-48 0 -76.5 27.5t-28.5 81.5q0 29 10.5 50t28.5 35t42.5 20.5t52.5 6.5q12 0 26 -1.5t26 -5.5v31q0 26 -10.5 39t-34.5 13 q-21 0 -38.5 -7.5t-26.5 -23.5q-11 -18 -30 -18q-15 0 -25 9.5t-10 23.5q0 19 12 33.5t31.5 24.5t44 15t48.5 5q66 0 93 -30.5t27 -84.5v-160zM215 467q-20 5 -35 5q-71 0 -71 -57q0 -25 14.5 -38t39.5 -13q37 0 52 20v83z" />
<glyph unicode="&#xab;" horiz-adv-x="435" d="M305 261l108 -151l-54 -44l-133 195l133 195l54 -44zM106 261l108 -151l-54 -44l-133 195l133 195l54 -44z" />
<glyph unicode="&#xad;" horiz-adv-x="300" d="M273 282h-246v64h246v-64z" />
<glyph unicode="&#xae;" horiz-adv-x="540" d="M508 488q0 -51 -18 -94.5t-50.5 -75.5t-76 -50t-94.5 -18q-50 0 -93.5 18t-75.5 50t-50.5 75.5t-18.5 94.5q0 50 18.5 93.5t50.5 75.5t75.5 50.5t93.5 18.5t93.5 -18t76 -49.5t51 -75t18.5 -95.5zM467 488q0 42 -15 78t-42 62.5t-63 41.5t-78 15q-41 0 -76.5 -15 t-62.5 -41.5t-42.5 -62.5t-15.5 -78t15 -78.5t41.5 -63t62.5 -41.5t78 -15t78.5 15t63 41.5t41.5 63t15 78.5zM372 361h-45l-66 113h-36v-113h-40v264q18 2 35 3t33 1q51 0 74 -17t23 -59q0 -30 -13.5 -47t-35.5 -25zM225 508q5 -1 15 -1h15q26 0 41.5 9t15.5 35 q0 23 -14.5 32t-40.5 9q-9 0 -16.5 -0.5t-15.5 -1.5v-82z" />
<glyph unicode="&#xaf;" horiz-adv-x="329" d="M294 586h-247v64h247v-64z" />
<glyph unicode="&#xb0;" horiz-adv-x="301" d="M153 717q127 0 127 -129q0 -64 -32 -97.5t-95 -33.5t-94.5 33.5t-31.5 97.5q0 129 126 129zM153 667q-68 0 -68 -79q0 -80 68 -80q69 0 69 80q0 79 -69 79z" />
<glyph unicode="&#xb1;" horiz-adv-x="408" d="M372 21h-335v67h335v-67zM371 278h-133v-134h-67v134h-134v67h134v133h67v-133h133v-67z" />
<glyph unicode="&#xb2;" horiz-adv-x="290" d="M263 392h-228l-12 22q8 37 25 64.5t38 49.5t42.5 39.5t39.5 34t29.5 34t11.5 38.5q0 23 -18 42.5t-46 19.5q-27 0 -41.5 -9t-23 -20t-15 -20t-17.5 -9q-9 0 -16 6t-7 17q0 14 10.5 28.5t27 26t36.5 19t40 7.5q57 0 87.5 -31t30.5 -79q0 -43 -21.5 -70.5t-50.5 -51 t-59 -49t-47 -64.5h184v-45z" />
<glyph unicode="&#xb3;" horiz-adv-x="288" d="M94 578v41h46q27 0 45.5 16.5t18.5 43.5q0 28 -18 42t-46 14q-19 0 -37 -8t-26 -26q-6 -17 -22 -17q-8 0 -16 7t-8 18q0 16 11 29.5t27.5 23.5t35.5 15t35 5q22 0 42.5 -5.5t36 -17.5t25 -31t9.5 -46q0 -26 -13.5 -48t-39.5 -32q28 -10 46.5 -36t18.5 -60q0 -54 -34 -87 t-89 -33q-27 0 -48.5 9t-36.5 23.5t-24 32t-11 35.5l34 9q5 -28 28 -45t58 -17q30 0 52 19.5t22 54.5q0 34 -20.5 52.5t-56.5 18.5h-45z" />
<glyph unicode="&#xb4;" horiz-adv-x="276" d="M241 623l-174 -65l-20 37l164 90z" />
<glyph unicode="&#xb7;" horiz-adv-x="199" d="M157 323q0 -36 -11.5 -46t-47.5 -10q-35 0 -46.5 10t-11.5 46q0 35 11.5 45.5t46.5 10.5q36 0 47.5 -10.5t11.5 -45.5z" />
<glyph unicode="&#xb8;" horiz-adv-x="223" d="M113 -43q31 0 52.5 -19t21.5 -53q0 -40 -23.5 -61t-56.5 -21q-19 0 -35.5 9t-24.5 25l27 23q5 -8 15.5 -12t18.5 -4q36 0 36 41q0 15 -11.5 27t-27.5 12q-9 0 -12 -1l-19 20l15 59h35z" />
<glyph unicode="&#xb9;" horiz-adv-x="209" d="M148 391h-49v307q-11 -8 -26.5 -15.5t-31.5 -12.5l-21 40q56 20 92 69l36 -1v-387z" />
<glyph unicode="&#xba;" horiz-adv-x="335" d="M168 659q79 0 116.5 -41.5t37.5 -135.5q0 -97 -38 -140t-116 -43q-79 0 -117.5 44t-38.5 140q0 93 38.5 134.5t117.5 41.5zM166 595q-36 0 -54.5 -25.5t-18.5 -82.5q0 -69 19.5 -96.5t56.5 -27.5q73 0 73 114q0 64 -18.5 91t-57.5 27z" />
<glyph unicode="&#xbb;" horiz-adv-x="434" d="M406 261l-133 -195l-54 44l108 151l-108 151l54 44zM207 261l-133 -195l-54 44l108 151l-108 151l54 44z" />
<glyph unicode="&#xbc;" horiz-adv-x="713" d="M148 -23l-42 24l434 724l42 -25zM171 342h-49v307q-25 -19 -58 -29l-21 40q28 11 52.5 28t52.5 42l23 -1v-387zM651 141h31v-47h-31v-118h-47v118h-172l-13 27l189 247l43 -11v-216zM492 141h112v142z" />
<glyph unicode="&#xbd;" horiz-adv-x="738" d="M687 -23h-228l-12 22q8 37 25 64.5t37.5 49.5t42.5 39.5t40 34t29.5 34t11.5 38.5q0 23 -18 42.5t-46 19.5q-27 0 -41.5 -9t-23 -20t-15 -20t-17.5 -9q-9 0 -16 6t-7 17q0 14 10.5 28.5t27 26t36.5 19t40 7.5q57 0 87.5 -31t30.5 -79q0 -43 -21.5 -70.5t-50.5 -51 t-59 -49t-47 -64.5h184v-45zM568 700q-109 -183 -217 -361.5t-217 -360.5l-42 23l433 724zM157 342h-49v307q-26 -18 -58 -29l-21 40q56 20 92 69h36v-387z" />
<glyph unicode="&#xbe;" horiz-adv-x="733" d="M179 -23l-42 24l433 724l43 -25zM682 141h31v-47h-31v-118h-47v118h-172l-14 27l190 247l43 -11v-216zM522 141h113v142zM101 529v41h45q27 0 46 16.5t19 43.5q0 28 -18.5 42t-46.5 14q-18 0 -36 -8t-26 -26q-8 -17 -22 -17q-9 0 -17 7t-8 18q0 8 4.5 16t10.5 15 q17 22 42 32t52 10q22 0 42.5 -5.5t36 -17.5t25 -31t9.5 -46q0 -26 -13 -48t-39 -32q27 -10 46 -36t19 -60q0 -54 -34 -87t-89 -33q-27 0 -48.5 9t-37 23.5t-24 32t-10.5 35.5l33 9q6 -28 29 -45t57 -17q31 0 53 19.5t22 54.5q0 34 -20.5 52.5t-57.5 18.5h-44z" />
<glyph unicode="&#xbf;" horiz-adv-x="479" d="M58 0zM279.013 442.012q19.999 -16.999 29.999 -40.498q9.99902 -23.498 9.99902 -43.4971q0 -33.998 -11.499 -59.4961q-11.5 -25.499 -27.999 -46.4971q-16.499 -20.999 -36.4971 -38.998q-19.999 -17.999 -36.498 -36.998t-27.998 -40.4971 q-11.5 -21.499 -11.5 -49.4971q0 -47.9971 25.999 -66.9961q25.998 -18.999 65.9961 -18.999q33.9971 0 58.4961 17.499q24.498 17.499 41.4971 60.4961q6 14 16.499 20.499q10.5 6.5 22.499 6.5q15.999 0 31.998 -12.999q15.999 -13 15.999 -34.998 q0 -32.998 -16.499 -59.9971q-16.499 -26.998 -43.4971 -45.9971q-26.999 -18.998 -61.9961 -29.498q-34.998 -10.499 -72.9961 -10.499q-41.9971 0 -77.4951 8.99902q-35.498 9 -60.9961 28.498q-25.499 19.499 -39.998 50.9971t-14.499 77.4951q0 40.998 12.499 70.4961 q12.5 29.498 31.498 51.9971q18.999 22.498 40.498 40.9971t40.4971 36.498q18.999 17.999 31.498 38.998q12.5 20.998 12.5 48.9961q0 16.999 -2 35.998t-7 33.998zM198.018 574.003q0 35.998 11 45.9971q10.999 10 46.9971 10t46.9971 -10 q10.999 -9.99902 10.999 -45.9971q0 -34.9971 -10.999 -45.4971q-10.999 -10.499 -46.9971 -10.499t-46.9971 10.499q-11 10.5 -11 45.4971z" />
<glyph unicode="&#xc0;" d="M18 0zM587 0h-127l-44 143h-245l-42 -143h-111l224 710h114zM194 226h198l-100 314zM349 769l-175 65l30 62l164 -90z" />
<glyph unicode="&#xc1;" d="M18 0zM587 0h-127l-44 143h-245l-42 -143h-111l224 710h114zM194 226h198l-100 314zM428 834l-174 -65l-20 37l164 90z" />
<glyph unicode="&#xc2;" d="M18 0zM587 0h-127l-44 143h-245l-42 -143h-111l224 710h114zM194 226h198l-100 314zM424 790l-33 -36l-89 78l-90 -78l-34 36l94 100h58z" />
<glyph unicode="&#xc3;" d="M18 0zM587 0h-127l-44 143h-245l-42 -143h-111l224 710h114zM194 226h198l-100 314zM442 834q-20 -32 -40 -43.5t-40 -11.5q-17 0 -31.5 5.5t-28.5 12t-29 12t-31 5.5q-20 0 -33.5 -11.5t-21.5 -22.5l-28 35q20 32 40 43.5t40 11.5q18 0 33 -5.5t29 -12t28 -12t30 -5.5 q20 0 33.5 11.5t21.5 22.5z" />
<glyph unicode="&#xc4;" d="M18 0zM587 0h-127l-44 143h-245l-42 -143h-111l224 710h114zM194 226h198l-100 314zM436 822q0 -30 -9.5 -38.5t-40.5 -8.5q-32 0 -41.5 8.5t-9.5 38.5t9.5 38.5t41.5 8.5q31 0 40.5 -8.5t9.5 -38.5zM267 822q0 -30 -9.5 -38.5t-41.5 -8.5q-31 0 -40.5 8.5t-9.5 38.5 t9.5 38.5t40.5 8.5q32 0 41.5 -8.5t9.5 -38.5z" />
<glyph unicode="&#xc5;" d="M18 0zM587 0h-127l-44 143h-245l-42 -143h-111l224 710h114zM194 226h198l-100 314zM395 841q0 -42 -22.5 -63t-71.5 -21q-94 0 -94 84q0 83 94 83q49 0 71.5 -20.5t22.5 -62.5zM350 841q0 42 -49 42t-49 -42q0 -44 49 -44t49 44z" />
<glyph unicode="&#xc6;" horiz-adv-x="744" d="M706 613h-258v-197h216v-81h-216v-239h265v-96h-385v150h-181l-36 -150h-114l178 710h531v-97zM262 621l-97 -383h163v383h-66z" />
<glyph unicode="&#xc7;" horiz-adv-x="622" d="M593 169q-14 -42 -38 -74t-54.5 -54t-66.5 -34t-75 -14l-8 -36q31 0 52.5 -19t21.5 -53q0 -40 -23.5 -61t-56.5 -21q-19 0 -35.5 9t-24.5 25l26 23q6 -8 16.5 -12t18.5 -4q36 0 36 41q0 15 -12 27t-27 12q-10 0 -12 -1l-19 20l12 49q-147 5 -219 93.5t-72 268.5 q0 97 21 166.5t61 113t96.5 64t127.5 20.5q34 0 68.5 -6.5t66 -21t57.5 -37.5t42 -55q8 -16 8 -32q0 -21 -14.5 -33.5t-32.5 -12.5q-11 0 -22 5.5t-18 18.5q-25 45 -66 66.5t-89 21.5q-88 0 -131.5 -67.5t-43.5 -208.5t44.5 -209.5t143.5 -68.5q63 0 107.5 30.5t67.5 81.5z " />
<glyph unicode="&#xc8;" horiz-adv-x="500" d="M73 0zM461 613h-269v-197h226v-81h-226v-239h276v-96h-395v710h388v-97zM312 769l-175 65l30 62l164 -90z" />
<glyph unicode="&#xc9;" horiz-adv-x="500" d="M73 0zM461 613h-269v-197h226v-81h-226v-239h276v-96h-395v710h388v-97zM391 834l-174 -65l-20 37l164 90z" />
<glyph unicode="&#xca;" horiz-adv-x="500" d="M73 0zM461 613h-269v-197h226v-81h-226v-239h276v-96h-395v710h388v-97zM387 790l-33 -36l-89 78l-90 -78l-34 36l94 100h58z" />
<glyph unicode="&#xcb;" horiz-adv-x="500" d="M73 0zM461 613h-269v-197h226v-81h-226v-239h276v-96h-395v710h388v-97zM400 822q0 -30 -9.5 -38.5t-40.5 -8.5q-32 0 -41.5 8.5t-9.5 38.5t9.5 38.5t41.5 8.5q31 0 40.5 -8.5t9.5 -38.5zM231 822q0 -30 -9.5 -38.5t-41.5 -8.5q-31 0 -40.5 8.5t-9.5 38.5t9.5 38.5 t40.5 8.5q32 0 41.5 -8.5t9.5 -38.5z" />
<glyph unicode="&#xcc;" horiz-adv-x="273" d="M10 0zM196 0h-120v710h120v-710zM185 769l-175 65l30 62l164 -90z" />
<glyph unicode="&#xcd;" horiz-adv-x="273" d="M69 0zM196 0h-120v710h120v-710zM263 834l-174 -65l-20 37l164 90z" />
<glyph unicode="&#xce;" horiz-adv-x="273" d="M15 0zM196 0h-120v710h120v-710zM261 790l-33 -36l-89 78l-90 -78l-34 36l94 100h58z" />
<glyph unicode="&#xcf;" horiz-adv-x="273" d="M3 0zM196 0h-120v710h120v-710zM273 822q0 -30 -9.5 -38.5t-40.5 -8.5q-32 0 -41.5 8.5t-9.5 38.5t9.5 38.5t41.5 8.5q31 0 40.5 -8.5t9.5 -38.5zM104 822q0 -30 -9.5 -38.5t-41.5 -8.5q-31 0 -40.5 8.5t-9.5 38.5t9.5 38.5t40.5 8.5q32 0 41.5 -8.5t9.5 -38.5z" />
<glyph unicode="&#xd0;" horiz-adv-x="637" d="M78 706q55 4 110 5.5t106 1.5q90 0 149.5 -18.5t95.5 -60.5t50.5 -110.5t14.5 -168.5q0 -96 -15 -163.5t-50.5 -111t-95.5 -63.5t-150 -20q-63 0 -116.5 1t-98.5 3v334h-57v81h57v290zM197 416h127v-81h-127v-250q23 -2 49.5 -2.5t51.5 -0.5q49 0 84 13.5t57.5 45.5 t33.5 84t11 130q0 79 -10 132t-32.5 84t-59 44t-88.5 13q-25 0 -51 -0.5t-46 -1.5v-210z" />
<glyph unicode="&#xd1;" horiz-adv-x="673" d="M74 0zM599 0h-104l-313 474v-474h-108v710h103l313 -477v477h109v-710zM477 834q-20 -32 -40 -43.5t-40 -11.5q-17 0 -31.5 5.5t-28.5 12t-29 12t-31 5.5q-20 0 -33.5 -11.5t-21.5 -22.5l-28 35q20 32 40 43.5t40 11.5q18 0 33 -5.5t29 -12t28 -12t30 -5.5 q20 0 33.5 11.5t21.5 22.5z" />
<glyph unicode="&#xd2;" horiz-adv-x="679" d="M33 0zM340 718q73 0 130 -20t96 -64t59.5 -113.5t20.5 -169.5q0 -99 -20 -167t-59 -111t-96 -62t-131 -19q-73 0 -130 18.5t-96.5 61t-60 111t-20.5 168.5q0 101 20.5 171t60 113.5t96.5 63t130 19.5zM337 632q-91 0 -133 -64.5t-42 -203.5q0 -150 46 -218t135 -68 q43 0 75.5 14t54.5 45.5t33 82t11 123.5q0 79 -11.5 134t-34 89.5t-56.5 50t-78 15.5zM387 769l-175 65l30 62l164 -90z" />
<glyph unicode="&#xd3;" horiz-adv-x="679" d="M33 0zM340 718q73 0 130 -20t96 -64t59.5 -113.5t20.5 -169.5q0 -99 -20 -167t-59 -111t-96 -62t-131 -19q-73 0 -130 18.5t-96.5 61t-60 111t-20.5 168.5q0 101 20.5 171t60 113.5t96.5 63t130 19.5zM337 632q-91 0 -133 -64.5t-42 -203.5q0 -150 46 -218t135 -68 q43 0 75.5 14t54.5 45.5t33 82t11 123.5q0 79 -11.5 134t-34 89.5t-56.5 50t-78 15.5zM466 834l-174 -65l-20 37l164 90z" />
<glyph unicode="&#xd4;" horiz-adv-x="679" d="M33 0zM340 718q73 0 130 -20t96 -64t59.5 -113.5t20.5 -169.5q0 -99 -20 -167t-59 -111t-96 -62t-131 -19q-73 0 -130 18.5t-96.5 61t-60 111t-20.5 168.5q0 101 20.5 171t60 113.5t96.5 63t130 19.5zM337 632q-91 0 -133 -64.5t-42 -203.5q0 -150 46 -218t135 -68 q43 0 75.5 14t54.5 45.5t33 82t11 123.5q0 79 -11.5 134t-34 89.5t-56.5 50t-78 15.5zM462 790l-33 -36l-89 78l-90 -78l-34 36l94 100h58z" />
<glyph unicode="&#xd5;" horiz-adv-x="679" d="M33 0zM340 718q73 0 130 -20t96 -64t59.5 -113.5t20.5 -169.5q0 -99 -20 -167t-59 -111t-96 -62t-131 -19q-73 0 -130 18.5t-96.5 61t-60 111t-20.5 168.5q0 101 20.5 171t60 113.5t96.5 63t130 19.5zM337 632q-91 0 -133 -64.5t-42 -203.5q0 -150 46 -218t135 -68 q43 0 75.5 14t54.5 45.5t33 82t11 123.5q0 79 -11.5 134t-34 89.5t-56.5 50t-78 15.5zM480 834q-20 -32 -40 -43.5t-40 -11.5q-17 0 -31.5 5.5t-28.5 12t-29 12t-31 5.5q-20 0 -33.5 -11.5t-21.5 -22.5l-28 35q20 32 40 43.5t40 11.5q18 0 33 -5.5t29 -12t28 -12t30 -5.5 q20 0 33.5 11.5t21.5 22.5z" />
<glyph unicode="&#xd6;" horiz-adv-x="679" d="M33 0zM340 718q73 0 130 -20t96 -64t59.5 -113.5t20.5 -169.5q0 -99 -20 -167t-59 -111t-96 -62t-131 -19q-73 0 -130 18.5t-96.5 61t-60 111t-20.5 168.5q0 101 20.5 171t60 113.5t96.5 63t130 19.5zM337 632q-91 0 -133 -64.5t-42 -203.5q0 -150 46 -218t135 -68 q43 0 75.5 14t54.5 45.5t33 82t11 123.5q0 79 -11.5 134t-34 89.5t-56.5 50t-78 15.5zM474 822q0 -30 -9.5 -38.5t-40.5 -8.5q-32 0 -41.5 8.5t-9.5 38.5t9.5 38.5t41.5 8.5q31 0 40.5 -8.5t9.5 -38.5zM305 822q0 -30 -9.5 -38.5t-41.5 -8.5q-31 0 -40.5 8.5t-9.5 38.5 t9.5 38.5t40.5 8.5q32 0 41.5 -8.5t9.5 -38.5z" />
<glyph unicode="&#xd7;" horiz-adv-x="356" d="M226 311l94 -94l-47 -48l-95 95l-95 -95l-47 47l95 95l-95 95l48 47l94 -94l94 93l48 -47z" />
<glyph unicode="&#xd8;" horiz-adv-x="684" d="M577 620q34 -45 51.5 -110t17.5 -159q0 -99 -20 -167t-59 -111t-96 -62t-131 -19q-66 0 -117.5 14.5t-90.5 46.5l-58 -74l-35 29l62 78q-34 43 -51 107.5t-17 157.5q0 101 20.5 171t60 113.5t96.5 63t130 19.5q66 0 117.5 -15.5t89.5 -49.5l55 70l34 -28zM474 561 q-23 37 -57 54t-80 17q-91 0 -133 -64.5t-42 -203.5q0 -108 23 -171zM206 148q45 -70 137 -70q43 0 75.5 14t54.5 45.5t33 82t11 123.5q0 109 -22 172z" />
<glyph unicode="&#xd9;" horiz-adv-x="651" d="M73 0zM578 248q0 -64 -12 -112t-40.5 -80t-77.5 -48t-122 -16q-74 0 -122.5 16t-77.5 48t-41 80t-12 112v462h124v-458q0 -46 6.5 -78t22 -52t40.5 -29t63 -9t64 9t41.5 28.5t22.5 51.5t7 79v458h114v-462zM373 769l-175 65l30 62l164 -90z" />
<glyph unicode="&#xda;" horiz-adv-x="651" d="M73 0zM578 248q0 -64 -12 -112t-40.5 -80t-77.5 -48t-122 -16q-74 0 -122.5 16t-77.5 48t-41 80t-12 112v462h124v-458q0 -46 6.5 -78t22 -52t40.5 -29t63 -9t64 9t41.5 28.5t22.5 51.5t7 79v458h114v-462zM452 834l-174 -65l-20 37l164 90z" />
<glyph unicode="&#xdb;" horiz-adv-x="651" d="M73 0zM578 248q0 -64 -12 -112t-40.5 -80t-77.5 -48t-122 -16q-74 0 -122.5 16t-77.5 48t-41 80t-12 112v462h124v-458q0 -46 6.5 -78t22 -52t40.5 -29t63 -9t64 9t41.5 28.5t22.5 51.5t7 79v458h114v-462zM448 790l-33 -36l-89 78l-90 -78l-34 36l94 100h58z" />
<glyph unicode="&#xdc;" horiz-adv-x="651" d="M73 0zM578 248q0 -64 -12 -112t-40.5 -80t-77.5 -48t-122 -16q-74 0 -122.5 16t-77.5 48t-41 80t-12 112v462h124v-458q0 -46 6.5 -78t22 -52t40.5 -29t63 -9t64 9t41.5 28.5t22.5 51.5t7 79v458h114v-462zM460 822q0 -30 -9.5 -38.5t-40.5 -8.5q-32 0 -41.5 8.5 t-9.5 38.5t9.5 38.5t41.5 8.5q31 0 40.5 -8.5t9.5 -38.5zM291 822q0 -30 -9.5 -38.5t-41.5 -8.5q-31 0 -40.5 8.5t-9.5 38.5t9.5 38.5t40.5 8.5q32 0 41.5 -8.5t9.5 -38.5z" />
<glyph unicode="&#xdd;" horiz-adv-x="563" d="M13 0zM341 312v-312h-119v310l-209 400h136l148 -296l156 296h108zM408 834l-174 -65l-20 37l164 90z" />
<glyph unicode="&#xde;" horiz-adv-x="545" d="M193 579q35 0 68 -1t64 -3q97 -8 140.5 -59t43.5 -154q0 -57 -16 -98t-45.5 -68t-70 -39.5t-89.5 -12.5q-52 0 -95 6v-150h-120v710h120v-131zM193 232q18 -2 36.5 -3t38.5 -1q63 0 92.5 31.5t29.5 101.5q0 69 -27 101t-93 32q-20 0 -39.5 -0.5t-37.5 -1.5v-260z" />
<glyph unicode="&#xdf;" horiz-adv-x="572" d="M180 0h-107v563q0 42 9 75t29 56.5t52.5 35.5t80.5 12q172 0 172 -133q0 -29 -8 -49t-17.5 -36t-17.5 -31.5t-8 -36.5q0 -27 12.5 -46t30.5 -35.5t40 -33t40 -39.5t30.5 -54.5t12.5 -77.5q0 -85 -48.5 -131t-126.5 -46q-48 0 -80 13.5t-51 38.5l23 52q19 -18 41.5 -25 t47.5 -7q16 0 32 5.5t28 17.5t19.5 31.5t7.5 48.5q0 35 -12 61t-30 47t-39 38.5t-39 37t-30 42.5t-12 55q0 29 8 47.5t17 34.5t17 32t8 40t-14.5 43.5t-49.5 19.5q-22 0 -35.5 -8t-20.5 -22t-9.5 -33.5t-2.5 -42.5v-560z" />
<glyph unicode="&#xe0;" horiz-adv-x="489" d="M35 0zM415 110q0 -23 5 -34.5t19 -11.5q12 0 19 7l13 -38q-12 -18 -29.5 -28t-48.5 -10q-52 0 -74 54q-20 -26 -53.5 -41.5t-78.5 -15.5q-70 0 -111 37.5t-41 115.5t49.5 119t149.5 41q19 0 38.5 -1.5t34.5 -3.5v43q0 42 -16 61.5t-54 19.5q-34 0 -59 -11t-40 -36 q-8 -12 -18.5 -17.5t-21.5 -5.5q-19 0 -33 11.5t-14 31.5q0 15 9 30q25 39 73.5 59t112.5 20q92 0 130.5 -43.5t38.5 -120.5v-232zM308 240q-20 4 -57 4q-54 0 -82 -21t-28 -69q0 -40 23 -61t61 -21q30 0 51 10.5t32 24.5v133zM292 558l-175 65l30 62l164 -90z" />
<glyph unicode="&#xe1;" horiz-adv-x="489" d="M35 0zM415 110q0 -23 5 -34.5t19 -11.5q12 0 19 7l13 -38q-12 -18 -29.5 -28t-48.5 -10q-52 0 -74 54q-20 -26 -53.5 -41.5t-78.5 -15.5q-70 0 -111 37.5t-41 115.5t49.5 119t149.5 41q19 0 38.5 -1.5t34.5 -3.5v43q0 42 -16 61.5t-54 19.5q-34 0 -59 -11t-40 -36 q-8 -12 -18.5 -17.5t-21.5 -5.5q-19 0 -33 11.5t-14 31.5q0 15 9 30q25 39 73.5 59t112.5 20q92 0 130.5 -43.5t38.5 -120.5v-232zM308 240q-20 4 -57 4q-54 0 -82 -21t-28 -69q0 -40 23 -61t61 -21q30 0 51 10.5t32 24.5v133zM371 623l-174 -65l-20 37l164 90z" />
<glyph unicode="&#xe2;" horiz-adv-x="489" d="M35 0zM415 110q0 -23 5 -34.5t19 -11.5q12 0 19 7l13 -38q-12 -18 -29.5 -28t-48.5 -10q-52 0 -74 54q-20 -26 -53.5 -41.5t-78.5 -15.5q-70 0 -111 37.5t-41 115.5t49.5 119t149.5 41q19 0 38.5 -1.5t34.5 -3.5v43q0 42 -16 61.5t-54 19.5q-34 0 -59 -11t-40 -36 q-8 -12 -18.5 -17.5t-21.5 -5.5q-19 0 -33 11.5t-14 31.5q0 15 9 30q25 39 73.5 59t112.5 20q92 0 130.5 -43.5t38.5 -120.5v-232zM308 240q-20 4 -57 4q-54 0 -82 -21t-28 -69q0 -40 23 -61t61 -21q30 0 51 10.5t32 24.5v133zM367 579l-33 -36l-89 78l-90 -78l-34 36 l94 100h58z" />
<glyph unicode="&#xe3;" horiz-adv-x="489" d="M35 0zM415 110q0 -23 5 -34.5t19 -11.5q12 0 19 7l13 -38q-12 -18 -29.5 -28t-48.5 -10q-52 0 -74 54q-20 -26 -53.5 -41.5t-78.5 -15.5q-70 0 -111 37.5t-41 115.5t49.5 119t149.5 41q19 0 38.5 -1.5t34.5 -3.5v43q0 42 -16 61.5t-54 19.5q-34 0 -59 -11t-40 -36 q-8 -12 -18.5 -17.5t-21.5 -5.5q-19 0 -33 11.5t-14 31.5q0 15 9 30q25 39 73.5 59t112.5 20q92 0 130.5 -43.5t38.5 -120.5v-232zM308 240q-20 4 -57 4q-54 0 -82 -21t-28 -69q0 -40 23 -61t61 -21q30 0 51 10.5t32 24.5v133zM385 623q-20 -32 -40 -43.5t-40 -11.5 q-17 0 -31.5 5.5t-28.5 12t-29 12t-31 5.5q-20 0 -33.5 -11.5t-21.5 -22.5l-28 35q20 32 40 43.5t40 11.5q18 0 33 -5.5t29 -12t28 -12t30 -5.5q20 0 33.5 11.5t21.5 22.5z" />
<glyph unicode="&#xe4;" horiz-adv-x="489" d="M35 0zM415 110q0 -23 5 -34.5t19 -11.5q12 0 19 7l13 -38q-12 -18 -29.5 -28t-48.5 -10q-52 0 -74 54q-20 -26 -53.5 -41.5t-78.5 -15.5q-70 0 -111 37.5t-41 115.5t49.5 119t149.5 41q19 0 38.5 -1.5t34.5 -3.5v43q0 42 -16 61.5t-54 19.5q-34 0 -59 -11t-40 -36 q-8 -12 -18.5 -17.5t-21.5 -5.5q-19 0 -33 11.5t-14 31.5q0 15 9 30q25 39 73.5 59t112.5 20q92 0 130.5 -43.5t38.5 -120.5v-232zM308 240q-20 4 -57 4q-54 0 -82 -21t-28 -69q0 -40 23 -61t61 -21q30 0 51 10.5t32 24.5v133zM379 611q0 -30 -9.5 -38.5t-40.5 -8.5 q-32 0 -41.5 8.5t-9.5 38.5t9.5 38.5t41.5 8.5q31 0 40.5 -8.5t9.5 -38.5zM210 611q0 -30 -9.5 -38.5t-41.5 -8.5q-31 0 -40.5 8.5t-9.5 38.5t9.5 38.5t40.5 8.5q32 0 41.5 -8.5t9.5 -38.5z" />
<glyph unicode="&#xe5;" horiz-adv-x="489" d="M35 0zM415 110q0 -23 5 -34.5t19 -11.5q12 0 19 7l13 -38q-12 -18 -29.5 -28t-48.5 -10q-52 0 -74 54q-20 -26 -53.5 -41.5t-78.5 -15.5q-70 0 -111 37.5t-41 115.5t49.5 119t149.5 41q19 0 38.5 -1.5t34.5 -3.5v43q0 42 -16 61.5t-54 19.5q-34 0 -59 -11t-40 -36 q-8 -12 -18.5 -17.5t-21.5 -5.5q-19 0 -33 11.5t-14 31.5q0 15 9 30q25 39 73.5 59t112.5 20q92 0 130.5 -43.5t38.5 -120.5v-232zM308 240q-20 4 -57 4q-54 0 -82 -21t-28 -69q0 -40 23 -61t61 -21q30 0 51 10.5t32 24.5v133zM338 630q0 -42 -22.5 -63t-71.5 -21 q-94 0 -94 84q0 83 94 83q49 0 71.5 -20.5t22.5 -62.5zM293 630q0 42 -49 42t-49 -42q0 -44 49 -44t49 44z" />
<glyph unicode="&#xe6;" horiz-adv-x="759" d="M409 235q2 -78 34 -118.5t95 -40.5q43 0 70 20t39 55l68 -18q-20 -69 -69 -104.5t-115 -35.5t-110 22.5t-67 64.5q-29 -35 -67.5 -61t-98.5 -26q-70 0 -111 37t-41 115q0 160 199 160q17 0 37 -1t36 -4q0 17 -1.5 38.5t-8.5 40.5t-21.5 32t-39.5 13q-34 0 -59 -11 t-40 -36q-8 -12 -18.5 -17.5t-21.5 -5.5q-19 0 -33 11.5t-14 31.5q0 15 9 30q25 39 73.5 59t112.5 20q42 0 71.5 -13t52.5 -54q24 32 62.5 49.5t90.5 17.5q99 0 149 -61t50 -164q0 -22 -3 -46h-310zM331 127q-9 23 -14.5 52.5t-5.5 61.5q-12 2 -28.5 3t-31.5 1 q-54 0 -82 -20.5t-28 -68.5q0 -42 23 -62.5t61 -20.5q35 0 62 15t44 39zM618 299q-1 63 -29.5 95.5t-71.5 32.5q-49 0 -76.5 -34t-30.5 -94h208z" />
<glyph unicode="&#xe7;" horiz-adv-x="480" d="M447 138q-15 -61 -58 -100.5t-110 -44.5l-8 -36q31 0 52.5 -19t21.5 -53q0 -40 -23.5 -61t-56.5 -21q-19 0 -35.5 9t-24.5 25l27 23q5 -8 15.5 -12t18.5 -4q36 0 36 41q0 15 -11.5 27t-27.5 12q-9 0 -12 -1l-19 20l12 50q-106 5 -156.5 69t-50.5 192q0 133 58.5 192.5 t168.5 59.5q29 0 61 -8.5t58.5 -24t44 -37t17.5 -47.5q0 -20 -15 -32.5t-33 -12.5q-11 0 -21.5 5.5t-17.5 18.5q-14 27 -39.5 40.5t-54.5 13.5q-55 0 -86.5 -42t-31.5 -127q0 -88 32 -132.5t92 -44.5q43 0 69.5 20.5t40.5 60.5z" />
<glyph unicode="&#xe8;" horiz-adv-x="493" d="M37 0zM143 235q1 -78 34 -118.5t94 -40.5q43 0 70 20t39 55l68 -18q-20 -69 -68.5 -105t-114.5 -36q-112 0 -170 63.5t-58 198.5q0 252 215 252q102 0 153 -61t51 -164q0 -11 -1 -22.5t-3 -23.5h-309zM352 299q-2 63 -29.5 95.5t-72.5 32.5q-48 0 -76 -34t-30 -94h208z M294 558l-175 65l30 62l164 -90z" />
<glyph unicode="&#xe9;" horiz-adv-x="493" d="M37 0zM143 235q1 -78 34 -118.5t94 -40.5q43 0 70 20t39 55l68 -18q-20 -69 -68.5 -105t-114.5 -36q-112 0 -170 63.5t-58 198.5q0 252 215 252q102 0 153 -61t51 -164q0 -11 -1 -22.5t-3 -23.5h-309zM352 299q-2 63 -29.5 95.5t-72.5 32.5q-48 0 -76 -34t-30 -94h208z M373 623l-174 -65l-20 37l164 90z" />
<glyph unicode="&#xea;" horiz-adv-x="493" d="M37 0zM143 235q1 -78 34 -118.5t94 -40.5q43 0 70 20t39 55l68 -18q-20 -69 -68.5 -105t-114.5 -36q-112 0 -170 63.5t-58 198.5q0 252 215 252q102 0 153 -61t51 -164q0 -11 -1 -22.5t-3 -23.5h-309zM352 299q-2 63 -29.5 95.5t-72.5 32.5q-48 0 -76 -34t-30 -94h208z M368 579l-33 -36l-89 78l-90 -78l-34 36l94 100h58z" />
<glyph unicode="&#xeb;" horiz-adv-x="493" d="M37 0zM143 235q1 -78 34 -118.5t94 -40.5q43 0 70 20t39 55l68 -18q-20 -69 -68.5 -105t-114.5 -36q-112 0 -170 63.5t-58 198.5q0 252 215 252q102 0 153 -61t51 -164q0 -11 -1 -22.5t-3 -23.5h-309zM352 299q-2 63 -29.5 95.5t-72.5 32.5q-48 0 -76 -34t-30 -94h208z M381 611q0 -30 -9.5 -38.5t-40.5 -8.5q-32 0 -41.5 8.5t-9.5 38.5t9.5 38.5t41.5 8.5q31 0 40.5 -8.5t9.5 -38.5zM212 611q0 -30 -9.5 -38.5t-41.5 -8.5q-31 0 -40.5 8.5t-9.5 38.5t9.5 38.5t40.5 8.5q32 0 41.5 -8.5t9.5 -38.5z" />
<glyph unicode="&#xec;" horiz-adv-x="252" d="M0 0zM175 558l-175 65l30 62l164 -90zM180 0h-107v499h107v-499z" />
<glyph unicode="&#xed;" horiz-adv-x="252" d="M59 0zM253 623l-174 -65l-20 37l164 90zM180 0h-107v499h107v-499z" />
<glyph unicode="&#xee;" horiz-adv-x="252" d="M4 0zM180 0h-107v499h107v-499zM250 579l-33 -36l-89 78l-90 -78l-34 36l94 100h58z" />
<glyph unicode="&#xef;" horiz-adv-x="252" d="M0 0zM262 611q0 -30 -9.5 -38.5t-40.5 -8.5q-32 0 -41.5 8.5t-9.5 38.5t9.5 38.5t41.5 8.5q31 0 40.5 -8.5t9.5 -38.5zM93 611q0 -30 -9.5 -38.5t-41.5 -8.5q-31 0 -40.5 8.5t-9.5 38.5t9.5 38.5t40.5 8.5q32 0 41.5 -8.5t9.5 -38.5zM180 0h-107v499h107v-499z" />
<glyph unicode="&#xf0;" horiz-adv-x="524" d="M473 698l-75 -48q45 -81 65.5 -174.5t20.5 -186.5q0 -64 -11.5 -118.5t-38 -94t-69 -62t-105.5 -22.5q-112 0 -167.5 71t-55.5 193q0 111 50 169t146 58q54 0 92 -22t63 -62q-5 51 -21.5 105.5t-38.5 100.5l-96 -61l-21 34l99 64q-15 26 -28.5 44t-22.5 28l63 39 q15 -16 29 -33t26 -36l74 48zM387 280q-11 63 -44 94t-84 31q-54 0 -83 -36.5t-29 -111.5q0 -94 32.5 -137.5t92.5 -43.5q54 0 84 48t31 156z" />
<glyph unicode="&#xf1;" horiz-adv-x="543" d="M69 0zM474 0h-108v296q0 66 -20.5 96t-68.5 30q-60 0 -100 -42v-380h-108v499h99l2 -56q51 63 152 63q33 0 61 -9t48 -33t31.5 -66t11.5 -108v-290zM412 623q-20 -32 -40 -43.5t-40 -11.5q-17 0 -31.5 5.5t-28.5 12t-29 12t-31 5.5q-20 0 -33.5 -11.5t-21.5 -22.5l-28 35 q20 32 40 43.5t40 11.5q18 0 33 -5.5t29 -12t28 -12t30 -5.5q20 0 33.5 11.5t21.5 22.5z" />
<glyph unicode="&#xf2;" horiz-adv-x="516" d="M37 0zM259 506q112 0 166 -60t54 -194q0 -136 -54.5 -198.5t-165.5 -62.5q-115 0 -168.5 63t-53.5 201q0 132 54.5 191.5t167.5 59.5zM257 422q-54 0 -82.5 -38t-28.5 -123q0 -50 7.5 -85.5t22 -57.5t36 -32t48.5 -10q111 0 111 170q0 95 -28 135.5t-86 40.5zM305 558 l-175 65l30 62l164 -90z" />
<glyph unicode="&#xf3;" horiz-adv-x="516" d="M37 0zM259 506q112 0 166 -60t54 -194q0 -136 -54.5 -198.5t-165.5 -62.5q-115 0 -168.5 63t-53.5 201q0 132 54.5 191.5t167.5 59.5zM257 422q-54 0 -82.5 -38t-28.5 -123q0 -50 7.5 -85.5t22 -57.5t36 -32t48.5 -10q111 0 111 170q0 95 -28 135.5t-86 40.5zM384 623 l-174 -65l-20 37l164 90z" />
<glyph unicode="&#xf4;" horiz-adv-x="516" d="M37 0zM259 506q112 0 166 -60t54 -194q0 -136 -54.5 -198.5t-165.5 -62.5q-115 0 -168.5 63t-53.5 201q0 132 54.5 191.5t167.5 59.5zM257 422q-54 0 -82.5 -38t-28.5 -123q0 -50 7.5 -85.5t22 -57.5t36 -32t48.5 -10q111 0 111 170q0 95 -28 135.5t-86 40.5zM380 579 l-33 -36l-89 78l-90 -78l-34 36l94 100h58z" />
<glyph unicode="&#xf5;" horiz-adv-x="516" d="M37 0zM259 506q112 0 166 -60t54 -194q0 -136 -54.5 -198.5t-165.5 -62.5q-115 0 -168.5 63t-53.5 201q0 132 54.5 191.5t167.5 59.5zM257 422q-54 0 -82.5 -38t-28.5 -123q0 -50 7.5 -85.5t22 -57.5t36 -32t48.5 -10q111 0 111 170q0 95 -28 135.5t-86 40.5zM399 623 q-20 -32 -40 -43.5t-40 -11.5q-17 0 -31.5 5.5t-28.5 12t-29 12t-31 5.5q-20 0 -33.5 -11.5t-21.5 -22.5l-28 35q20 32 40 43.5t40 11.5q18 0 33 -5.5t29 -12t28 -12t30 -5.5q20 0 33.5 11.5t21.5 22.5z" />
<glyph unicode="&#xf6;" horiz-adv-x="516" d="M37 0zM259 506q112 0 166 -60t54 -194q0 -136 -54.5 -198.5t-165.5 -62.5q-115 0 -168.5 63t-53.5 201q0 132 54.5 191.5t167.5 59.5zM257 422q-54 0 -82.5 -38t-28.5 -123q0 -50 7.5 -85.5t22 -57.5t36 -32t48.5 -10q111 0 111 170q0 95 -28 135.5t-86 40.5zM392 611 q0 -30 -9.5 -38.5t-40.5 -8.5q-32 0 -41.5 8.5t-9.5 38.5t9.5 38.5t41.5 8.5q31 0 40.5 -8.5t9.5 -38.5zM223 611q0 -30 -9.5 -38.5t-41.5 -8.5q-31 0 -40.5 8.5t-9.5 38.5t9.5 38.5t40.5 8.5q32 0 41.5 -8.5t9.5 -38.5z" />
<glyph unicode="&#xf7;" horiz-adv-x="406" d="M370 278h-334v67h334v-67zM204 198q28 0 36.5 -8.5t8.5 -38.5q0 -31 -8.5 -39t-36.5 -8q-29 0 -37.5 8t-8.5 39q0 30 8.5 38.5t37.5 8.5zM204 527q28 0 36.5 -8.5t8.5 -38.5q0 -31 -8.5 -39t-36.5 -8q-29 0 -37.5 8t-8.5 39q0 30 8.5 38.5t37.5 8.5z" />
<glyph unicode="&#xf8;" horiz-adv-x="516" d="M429 441q50 -61 50 -189q0 -136 -54.5 -198.5t-165.5 -62.5q-90 0 -142 39l-39 -51l-34 27l42 55q-49 64 -49 194q0 132 54.5 191.5t167.5 59.5q86 0 138 -35l37 49l34 -28zM179 112q27 -36 81 -36q111 0 111 170q0 66 -13 102zM336 390q-29 32 -79 32q-54 0 -82.5 -38 t-28.5 -123q0 -65 12 -105z" />
<glyph unicode="&#xf9;" horiz-adv-x="534" d="M69 0zM464 173q0 -88 -47 -135t-152 -47t-150.5 47t-45.5 135v326h111v-326q0 -21 3 -39t12.5 -30.5t26.5 -20t45 -7.5t46 7.5t28 20t14 30.5t4 39v326h105v-326zM314 558l-175 65l30 62l164 -90z" />
<glyph unicode="&#xfa;" horiz-adv-x="534" d="M69 0zM464 173q0 -88 -47 -135t-152 -47t-150.5 47t-45.5 135v326h111v-326q0 -21 3 -39t12.5 -30.5t26.5 -20t45 -7.5t46 7.5t28 20t14 30.5t4 39v326h105v-326zM393 623l-174 -65l-20 37l164 90z" />
<glyph unicode="&#xfb;" horiz-adv-x="534" d="M69 0zM464 173q0 -88 -47 -135t-152 -47t-150.5 47t-45.5 135v326h111v-326q0 -21 3 -39t12.5 -30.5t26.5 -20t45 -7.5t46 7.5t28 20t14 30.5t4 39v326h105v-326zM389 579l-33 -36l-89 78l-90 -78l-34 36l94 100h58z" />
<glyph unicode="&#xfc;" horiz-adv-x="534" d="M69 0zM464 173q0 -88 -47 -135t-152 -47t-150.5 47t-45.5 135v326h111v-326q0 -21 3 -39t12.5 -30.5t26.5 -20t45 -7.5t46 7.5t28 20t14 30.5t4 39v326h105v-326zM401 611q0 -30 -9.5 -38.5t-40.5 -8.5q-32 0 -41.5 8.5t-9.5 38.5t9.5 38.5t41.5 8.5q31 0 40.5 -8.5 t9.5 -38.5zM232 611q0 -30 -9.5 -38.5t-41.5 -8.5q-31 0 -40.5 8.5t-9.5 38.5t9.5 38.5t40.5 8.5q32 0 41.5 -8.5t9.5 -38.5z" />
<glyph unicode="&#xfd;" horiz-adv-x="469" d="M10 0zM264 -95q-10 -30 -24.5 -59t-35.5 -51.5t-49 -36.5t-65 -14q-22 0 -36 11.5t-14 31.5t13.5 31t31.5 11q25 0 43.5 13.5t32 35t23 48t15.5 52.5l-189 521h113l120 -387l119 387h98zM361 623l-174 -65l-20 37l164 90z" />
<glyph unicode="&#xfe;" horiz-adv-x="525" d="M180 450q26 32 58.5 44t71.5 12q37 0 69.5 -11t56.5 -39.5t38 -77t14 -124.5t-13 -126.5t-36.5 -80.5t-56.5 -42.5t-73 -12.5q-39 0 -71 12t-58 44v-301h-108v997h108v-294zM180 111q17 -17 38.5 -26t50.5 -9q60 0 85 45.5t25 133.5q0 48 -8 80.5t-23 51.5t-35 27t-44 8 q-23 0 -47 -8.5t-42 -25.5v-277z" />
<glyph unicode="&#xff;" horiz-adv-x="469" d="M10 0zM264 -95q-10 -30 -24.5 -59t-35.5 -51.5t-49 -36.5t-65 -14q-22 0 -36 11.5t-14 31.5t13.5 31t31.5 11q25 0 43.5 13.5t32 35t23 48t15.5 52.5l-189 521h113l120 -387l119 387h98zM369 611q0 -30 -9.5 -38.5t-40.5 -8.5q-32 0 -41.5 8.5t-9.5 38.5t9.5 38.5 t41.5 8.5q31 0 40.5 -8.5t9.5 -38.5zM200 611q0 -30 -9.5 -38.5t-41.5 -8.5q-31 0 -40.5 8.5t-9.5 38.5t9.5 38.5t40.5 8.5q32 0 41.5 -8.5t9.5 -38.5z" />
<glyph unicode="&#x131;" horiz-adv-x="252" d="M180 0h-107v499h107v-499z" />
<glyph unicode="&#x152;" horiz-adv-x="881" d="M841 613h-269v-197h226v-81h-226v-239h276v-96h-395v17q-24 -13 -53 -19t-60 -6q-73 0 -130 18.5t-96.5 61t-60 111t-20.5 168.5q0 101 20.5 171t60 113.5t96.5 63t130 19.5q31 0 59.5 -5.5t53.5 -19.5v17h388v-97zM453 589q-43 43 -116 43q-91 0 -133 -64.5t-42 -203.5 q0 -150 46 -218t135 -68q34 0 61.5 8t48.5 28v475z" />
<glyph unicode="&#x153;" horiz-adv-x="824" d="M474 235q2 -78 34 -118.5t95 -40.5q43 0 70 20t39 55l68 -18q-20 -69 -68 -105t-109 -36q-69 0 -111.5 23.5t-65.5 65.5q-26 -43 -68.5 -66.5t-105.5 -23.5q-108 0 -161.5 64t-53.5 200q0 132 53.5 191.5t162.5 59.5q61 0 104.5 -23t67.5 -62q44 85 165 85q99 0 148 -61 t49 -164q0 -22 -3 -46h-310zM257 422q-54 0 -82.5 -38t-28.5 -123q0 -100 29.5 -142.5t84.5 -42.5q111 0 111 170q0 95 -28.5 135.5t-85.5 40.5zM683 299q-1 63 -29.5 95.5t-71.5 32.5q-49 0 -76.5 -34t-30.5 -94h208z" />
<glyph unicode="&#x178;" horiz-adv-x="563" d="M13 0zM341 312v-312h-119v310l-209 400h136l148 -296l156 296h108zM416 822q0 -30 -9.5 -38.5t-40.5 -8.5q-32 0 -41.5 8.5t-9.5 38.5t9.5 38.5t41.5 8.5q31 0 40.5 -8.5t9.5 -38.5zM247 822q0 -30 -9.5 -38.5t-41.5 -8.5q-31 0 -40.5 8.5t-9.5 38.5t9.5 38.5t40.5 8.5 q32 0 41.5 -8.5t9.5 -38.5z" />
<glyph unicode="&#x2c6;" horiz-adv-x="328" d="M293 579l-33 -36l-89 78l-90 -78l-34 36l94 100h58z" />
<glyph unicode="&#x2da;" horiz-adv-x="270" d="M235 630q0 -42 -22.5 -63t-71.5 -21q-94 0 -94 84q0 83 94 83q49 0 71.5 -20.5t22.5 -62.5zM190 630q0 42 -49 42t-49 -42q0 -44 49 -44t49 44z" />
<glyph unicode="&#x2dc;" horiz-adv-x="365" d="M330 623q-20 -32 -40 -43.5t-40 -11.5q-17 0 -31.5 5.5t-28.5 12t-29 12t-31 5.5q-20 0 -33.5 -11.5t-21.5 -22.5l-28 35q20 32 40 43.5t40 11.5q18 0 33 -5.5t29 -12t28 -12t30 -5.5q20 0 33.5 11.5t21.5 22.5z" />
<glyph unicode="&#x2000;" horiz-adv-x="462" />
<glyph unicode="&#x2001;" horiz-adv-x="924" />
<glyph unicode="&#x2002;" horiz-adv-x="462" />
<glyph unicode="&#x2003;" horiz-adv-x="924" />
<glyph unicode="&#x2004;" horiz-adv-x="308" />
<glyph unicode="&#x2005;" horiz-adv-x="231" />
<glyph unicode="&#x2006;" horiz-adv-x="154" />
<glyph unicode="&#x2007;" horiz-adv-x="154" />
<glyph unicode="&#x2008;" horiz-adv-x="115" />
<glyph unicode="&#x2009;" horiz-adv-x="184" />
<glyph unicode="&#x200a;" horiz-adv-x="51" />
<glyph unicode="&#x2010;" horiz-adv-x="300" d="M273 282h-246v64h246v-64z" />
<glyph unicode="&#x2011;" horiz-adv-x="300" d="M273 282h-246v64h246v-64z" />
<glyph unicode="&#x2012;" horiz-adv-x="300" d="M273 282h-246v64h246v-64z" />
<glyph unicode="&#x2013;" horiz-adv-x="477" d="M450 282h-423v64h423v-64z" />
<glyph unicode="&#x2014;" horiz-adv-x="838" d="M811 282h-784v64h784v-64z" />
<glyph unicode="&#x2018;" horiz-adv-x="179" d="M150 748q-17 -23 -29 -43.5t-12 -37.5q0 -8 6 -13t13.5 -11.5t13.5 -16.5t6 -26q0 -36 -11 -46.5t-45 -10.5q-36 0 -46 11.5t-10 45.5q0 19 8 41t20.5 44t28 43t30.5 40z" />
<glyph unicode="&#x2019;" horiz-adv-x="179" d="M45 533q17 24 28.5 44.5t11.5 37.5q0 8 -6 13t-13 11.5t-13 16t-6 26.5q0 35 10.5 45.5t45.5 10.5q34 0 45 -10.5t11 -45.5q0 -20 -8 -41.5t-20.5 -43.5t-28 -43t-31.5 -40z" />
<glyph unicode="&#x201a;" horiz-adv-x="179" d="M29 -94q17 23 29 43.5t12 37.5q0 7 -6 12.5t-13.5 12t-13.5 16t-6 26.5q0 36 11 46t45 10q35 0 45.5 -11t10.5 -45q0 -20 -8 -41.5t-20.5 -43.5t-28 -43t-30.5 -40z" />
<glyph unicode="&#x201c;" horiz-adv-x="352" d="M323 748q-17 -23 -29 -43.5t-12 -37.5q0 -8 6 -13t13.5 -11.5t13.5 -16.5t6 -26q0 -36 -11 -46.5t-45 -10.5q-36 0 -46 11.5t-10 45.5q0 19 8 41t20.5 44t28 43t30.5 40zM150 748q-17 -23 -29 -43.5t-12 -37.5q0 -8 6 -13t13.5 -11.5t13.5 -16.5t6 -26q0 -36 -11 -46.5 t-45 -10.5q-36 0 -46 11.5t-10 45.5q0 19 8 41t20.5 44t28 43t30.5 40z" />
<glyph unicode="&#x201d;" horiz-adv-x="352" d="M45 533q17 24 28.5 44.5t11.5 37.5q0 8 -6 13t-13 11.5t-13 16t-6 26.5q0 35 10.5 45.5t45.5 10.5q34 0 45 -10.5t11 -45.5q0 -20 -8 -41.5t-20.5 -43.5t-28 -43t-31.5 -40zM218 533q17 24 28.5 44.5t11.5 37.5q0 8 -6 13t-13 11.5t-13 16t-6 26.5q0 35 10.5 45.5 t45.5 10.5q34 0 45 -10.5t11 -45.5q0 -20 -8 -41.5t-20.5 -43.5t-28 -43t-31.5 -40z" />
<glyph unicode="&#x201e;" horiz-adv-x="352" d="M29 -94q17 23 29 43.5t12 37.5q0 7 -6 12.5t-13.5 12t-13.5 16t-6 26.5q0 36 11 46t45 10q35 0 45.5 -11t10.5 -45q0 -20 -8 -41.5t-20.5 -43.5t-28 -43t-30.5 -40zM202 -94q17 23 29 43.5t12 37.5q0 7 -6 12.5t-13.5 12t-13.5 16t-6 26.5q0 36 11 46t45 10 q35 0 45.5 -11t10.5 -45q0 -20 -8 -41.5t-20.5 -43.5t-28 -43t-30.5 -40z" />
<glyph unicode="&#x2022;" horiz-adv-x="372" d="M343 355q0 -31 -12.5 -58.5t-33.5 -48t-49.5 -32.5t-60.5 -12q-33 0 -61.5 12t-49.5 32.5t-33.5 48t-12.5 58.5q0 32 12.5 60t33.5 48.5t49.5 32.5t61.5 12t61.5 -12t49.5 -32.5t33 -48.5t12 -60z" />
<glyph unicode="&#x2026;" horiz-adv-x="832" d="M230 54q0 -36 -11.5 -46t-46.5 -10q-36 0 -47.5 10t-11.5 46q0 35 11.5 45.5t47.5 10.5q35 0 46.5 -10.5t11.5 -45.5zM474 54q0 -36 -11 -46t-47 -10t-47 10t-11 46q0 35 11 45.5t47 10.5t47 -10.5t11 -45.5zM719 54q0 -36 -11 -46t-47 -10t-47.5 10t-11.5 46t11.5 46 t47.5 10t47 -10.5t11 -45.5z" />
<glyph unicode="&#x202f;" horiz-adv-x="184" />
<glyph unicode="&#x2039;" horiz-adv-x="235" d="M106 261l108 -151l-54 -44l-133 195l133 195l54 -44z" />
<glyph unicode="&#x203a;" horiz-adv-x="234" d="M207 261l-133 -195l-54 44l108 151l-108 151l54 44z" />
<glyph unicode="&#x205f;" horiz-adv-x="231" />
<glyph unicode="&#x20ac;" horiz-adv-x="477" d="M379 393h-208v-85h188l-16 -68h-167q10 -88 41.5 -135t91.5 -47q35 0 63.5 16t45.5 63l50 -25q-14 -54 -57 -87t-109 -33q-108 0 -161 63.5t-67 184.5h-63l17 68h41v85h-58l17 68h46q14 120 69 180.5t163 60.5q29 0 56.5 -7.5t49 -19.5t34.5 -27t13 -30q0 -16 -10.5 -27 t-24.5 -11q-15 0 -25 12q-16 19 -41.5 31.5t-48.5 12.5q-115 0 -134 -175h221z" />
<glyph unicode="&#x2122;" horiz-adv-x="592" d="M240 676h-80v-246h-50v246h-81v48h211v-48zM557 430h-45v194l-68 -194h-39l-74 196v-196h-46v294h59l81 -217l71 217h61v-294z" />
<glyph unicode="&#xe000;" horiz-adv-x="500" d="M0 500h500v-500h-500v500z" />
<glyph horiz-adv-x="165" d="M0 0z" />
</font>
</defs>
</svg>
