<?xml version="1.0" standalone="no"?>
<!DOCTYPE svg PUBLIC "-//W3C//DTD SVG 1.1//EN" "http://www.w3.org/Graphics/SVG/1.1/DTD/svg11.dtd" >
<svg xmlns="http://www.w3.org/2000/svg">
<metadata></metadata>
<defs>
<font id="studebakerregular" horiz-adv-x="500" >
<font-face units-per-em="1000" ascent="800" descent="-200" />
<missing-glyph horiz-adv-x="331" />
<glyph horiz-adv-x="1000" />
<glyph horiz-adv-x="1000" />
<glyph unicode="&#xd;" horiz-adv-x="1000" />
<glyph unicode=" "  horiz-adv-x="331" />
<glyph unicode="&#x09;" horiz-adv-x="331" />
<glyph unicode="&#xa0;" horiz-adv-x="331" />
<glyph unicode="!" horiz-adv-x="121" d="M115 55q0 -22 -16 -38.5t-39 -16.5q-22 0 -38.5 16.5t-16.5 38.5q0 23 16.5 39t38.5 16q23 0 39 -16t16 -39v0zM115 669q0 -45 -7.5 -108t-16.5 -133q-3 -22 -5.5 -44.5t-5.5 -44.5q-5 -50 -9 -98.5t-4 -92.5h-13q0 44 -4 92.5t-9 98.5q-3 22 -6 44.5t-5 44.5 q-10 70 -17.5 133t-7.5 108q0 23 16.5 39t38.5 16q23 0 39 -16t16 -39v0z" />
<glyph unicode="&#x22;" horiz-adv-x="231" d="M112 689q1 -4 1 -7.5v-7.5q0 -27 -12.5 -51.5t-33.5 -41.5l-9 10q13 10 22.5 23.5t13.5 29.5q-7 -7 -16.5 -10.5t-20.5 -3.5q-22 0 -38 16.5t-16 38.5q0 23 16 39t38 16t38 -15t17 -36v0zM222 689q1 -4 1 -7.5v-7.5q0 -27 -12.5 -51.5t-33.5 -41.5l-9 10q13 10 22.5 23.5 t13.5 29.5q-7 -7 -16.5 -10.5t-20.5 -3.5q-22 0 -38 16.5t-16 38.5q0 23 16 39t38 16t38 -15t17 -36v0z" />
<glyph unicode="#" />
<glyph unicode="$" horiz-adv-x="465" d="M444 609h-36q-25 0 -45.5 -18.5t-35.5 -47.5q-17 -34 -26.5 -80t-10.5 -95q0 -11 -1 -22.5t-2 -23.5q-3 -23 -9 -45.5t-16 -43.5v-233h-13v207q-7 -13 -16.5 -25.5t-20.5 -23.5v-158h-13v147q-22 -17 -49.5 -27t-61.5 -10h-67v19h36q29 0 50 17t35 45q18 35 26 81.5 t7 95.5v2v2v2v2q0 8 0.5 15.5t1.5 15.5q2 23 7.5 46t14.5 45v226h13v-199q8 14 17.5 27t19.5 24v148h13v-137q23 19 52 29.5t63 10.5h67v-18v0z" />
<glyph unicode="%" />
<glyph unicode="&#x26;" horiz-adv-x="588" d="M561 282q0 -52 -17 -99t-46 -85l42 -98h-140l-8 19q-22 -9 -45.5 -14t-48.5 -5q-112 1 -191.5 66t-79.5 149q0 67 52 123.5t131 78.5q2 1 4 1.5t3 1.5q2 0 3.5 0.5t2.5 1.5l-127 302h289v-13h-149l235 -549q9 26 14 55.5t5 60.5q0 53 -14 100t-38 83h65 q27 -37 42.5 -82.5t15.5 -96.5v0zM383 40l-143 342q-29 -25 -46.5 -67.5t-17.5 -99.5q0 -80 34 -134t88 -68q23 0 44.5 7t40.5 20v0z" />
<glyph unicode="'" horiz-adv-x="121" d="M115 689q1 -4 1 -7.5v-7.5q0 -27 -12.5 -51.5t-33.5 -41.5l-9 10q13 10 22.5 23.5t13.5 29.5q-7 -7 -16.5 -10.5t-20.5 -3.5q-22 0 -38 16.5t-16 38.5q0 23 16 39t38 16t38 -15t17 -36v0z" />
<glyph unicode="(" horiz-adv-x="290" d="M277 -49q-132 10 -198 136t-66 277v1.5v1.5q1 149 67 274t197 133v-15q-56 -18 -88.5 -136.5t-36.5 -257.5v-15.5v-15.5q1 -134 31 -244t94 -124v-15v0z" />
<glyph unicode=")" horiz-adv-x="290" d="M17 -49v14q65 15 95 126.5t30 246.5v14v14q-4 139 -36.5 257.5t-88.5 135.5v15q132 -9 198 -135.5t66 -277.5v-1.5v-1.5q-1 -149 -67 -273.5t-197 -132.5v-1z" />
<glyph unicode="*" horiz-adv-x="254" d="M243 625l-89 -21l88 -21l-37 -65l-65 69l27 -91h-74l26 88l-62 -67l-38 65l92 22l-92 22l37 64l63 -66l-26 87h74l-27 -91l65 70l38 -65v0z" />
<glyph unicode="+" />
<glyph unicode="," horiz-adv-x="121" d="M115 59q1 -4 1 -7.5v-7.5q0 -27 -12.5 -51.5t-33.5 -40.5l-9 9q13 11 22.5 24.5t13.5 28.5q-7 -7 -16.5 -10.5t-20.5 -3.5q-22 0 -38 16.5t-16 38.5q0 23 16 39t38 16t38 -15t17 -36v0z" />
<glyph unicode="-" horiz-adv-x="145" d="M138 350h-123v18h123v-18v0z" />
<glyph unicode="." horiz-adv-x="121" d="M115 55q0 -22 -16 -38.5t-39 -16.5q-22 0 -38.5 16.5t-16.5 38.5q0 23 16.5 39t38.5 16q23 0 39 -16t16 -39v0z" />
<glyph unicode="/" horiz-adv-x="278" d="M-23 -93l324 829h46l-322 -829h-48v0z" />
<glyph unicode="0" horiz-adv-x="584" d="M292 1q-133 8 -199.5 119t-65.5 243v1.5v1.5q1 130 67 239.5t198 117.5q132 -8 198.5 -118t66.5 -241v-1.5v-1.5q0 -131 -66 -241.5t-199 -118.5v0zM292 15q66 14 96.5 111t30.5 215v11.5v10.5q-3 122 -36.5 225.5t-90.5 119.5q-58 -17 -91 -122t-36 -228v-10.5v-11.5 q1 -116 31.5 -211.5t95.5 -109.5v0z" />
<glyph unicode="1" horiz-adv-x="239" d="M215 0h-140v711h-48v13h188v-724v0z" />
<glyph unicode="2" horiz-adv-x="364" d="M341 534l-175 -521h148v-13h-297l178 534q3 10 4.5 20.5t1.5 21.5v2.5v3.5q-2 48 -34.5 88t-85.5 40h-47v14h30h31h30h30q11 0 21.5 -1t21.5 -4q57 -12 103.5 -51t46.5 -95q0 -10 -2 -19.5t-5 -19.5v0z" />
<glyph unicode="3" horiz-adv-x="351" d="M335 215q0 -85 -80 -150t-193 -65h-22.5h-23.5v13h4h3q69 0 115.5 53.5t46.5 148.5t-46.5 148.5t-115.5 53.5h-3h-4v3v5v2.5v2.5q47 2 81 39t34 103t-34 101.5t-81 36.5v14h18h18h17h18q80 0 136 -46t56 -106q0 -49 -40.5 -92t-102.5 -57q2 -1 4.5 -2t4.5 -2t3.5 -1 t2.5 -1q80 -22 132 -78.5t52 -123.5v0z" />
<glyph unicode="4" horiz-adv-x="399" d="M381 294h-50v-294h-139v294h-169l116 430h13l-112 -417h152v417h139v-417h50v-13v0z" />
<glyph unicode="5" horiz-adv-x="359" d="M343 266q0 -103 -80 -184.5t-193 -81.5h-54v13h20q69 0 118 69t49 184q0 114 -49 183t-118 69h-9.5h-10.5v206h223v-13h-210v-180h41q113 0 193 -81t80 -184v0z" />
<glyph unicode="6" horiz-adv-x="493" d="M471 266q-4 -94 -74.5 -173t-168.5 -93q-106 26 -156 121.5t-49 207.5v14.5t1 15.5q8 137 82.5 251t202.5 114l-1 -15h-0.5h-0.5l-0.5 -0.5l-0.5 -0.5q-37 -10 -66 -59t-49 -118h19q110 0 185.5 -77.5t75.5 -177.5v-5.5v-4.5v0zM331 266v6t1 6v5v6q-1 99 -42 160.5 t-102 68.5q-10 -41 -16.5 -87.5t-9.5 -94.5q0 -13 -0.5 -25.5t-0.5 -25.5q0 -88 16.5 -163t51.5 -110q41 29 69 99.5t33 149.5v3v2v0z" />
<glyph unicode="7" horiz-adv-x="377" d="M359 724l-202 -724h-140l203 711h-150v13h289v0z" />
<glyph unicode="8" horiz-adv-x="587" d="M561 215q0 -84 -79 -149t-188 -66q-109 1 -188 66t-79 149q0 67 52 123.5t131 78.5q2 1 3 1t3 1t4.5 2t4.5 2q-61 14 -102 57t-41 92q0 60 56.5 106t135.5 46h19.5h19.5q80 0 136 -46t56 -106q0 -49 -40.5 -92t-102.5 -57q2 -1 4.5 -2t4.5 -2t3.5 -1t2.5 -1 q80 -22 132 -78.5t52 -123.5v0zM411 215q0 80 -33.5 131t-83.5 66q-51 -15 -84.5 -66t-33.5 -131t33.5 -134t84.5 -68q50 14 83.5 68t33.5 134v0zM356 572q0 48 -18 86.5t-44 52.5q-27 -14 -45 -52.5t-18 -86.5t18 -81t45 -49q26 16 44 49t18 81v0z" />
<glyph unicode="9" horiz-adv-x="492" d="M302 192h-19q-109 0 -185 77.5t-75 177.5v5v6q4 93 74 172t168 93q104 -26 154.5 -123t50.5 -213v-12t-1 -11q-6 -133 -77.5 -244.5t-204.5 -119.5h-1.5h-1.5l1 16q1 -1 1.5 -1h0.5q38 11 67 59.5t48 117.5v0zM305 206q11 41 17 87t9 93q0 14 0.5 27.5t0.5 26.5 q0 88 -16.5 162.5t-51.5 108.5q-41 -28 -68.5 -97.5t-32.5 -146.5q-1 -2 -1 -4.5v-4.5v-9.5v-9.5q0 -102 41 -164.5t102 -68.5v0z" />
<glyph unicode=":" horiz-adv-x="121" d="M115 55q0 -22 -16 -38.5t-39 -16.5q-22 0 -38.5 16.5t-16.5 38.5q0 23 16.5 39t38.5 16q23 0 39 -16t16 -39v0zM115 235q0 -22 -16 -38.5t-39 -16.5q-22 0 -38.5 16.5t-16.5 38.5q0 23 16.5 39t38.5 16q23 0 39 -16t16 -39v0z" />
<glyph unicode=";" horiz-adv-x="121" d="M115 59q1 -4 1 -7.5v-7.5q0 -27 -12.5 -51.5t-33.5 -40.5l-9 9q13 11 22.5 24.5t13.5 28.5q-7 -7 -16.5 -10.5t-20.5 -3.5q-22 0 -38 16.5t-16 38.5q0 23 16 39t38 16t38 -15t17 -36v0zM115 235q0 -22 -16 -38.5t-39 -16.5q-22 0 -38.5 16.5t-16.5 38.5q0 23 16.5 39 t38.5 16q23 0 39 -16t16 -39v0z" />
<glyph unicode="&#x3c;" horiz-adv-x="833" d="M704 37l-575 236v50l575 236v-62l-488 -199l488 -198v-63v0z" />
<glyph unicode="=" />
<glyph unicode="&#x3e;" horiz-adv-x="833" d="M704 273l-575 -236v63l488 198l-488 199v62l575 -236v-50v0z" />
<glyph unicode="?" horiz-adv-x="311" d="M172 55q0 -22 -16 -38.5t-39 -16.5q-22 0 -38.5 16.5t-16.5 38.5q0 23 16.5 39t38.5 16q23 0 39 -16t16 -39v0zM298 554q0 -39 -16.5 -72.5t-44.5 -57.5q-3 -3 -6.5 -5.5t-6.5 -5.5q-47 -41 -86.5 -88.5t-39.5 -98.5q0 -11 2.5 -22.5t7.5 -22.5q2 -5 4.5 -10t4.5 -10 t4.5 -10t4.5 -10l-12 -5q-9 20 -18 40.5t-17 40.5q-13 31 -19.5 58t-5.5 51q0 54 27 96.5t70 81.5q20 19 36 41t16 51q0 48 -33 77t-74 29q-19 0 -37.5 -7t-34.5 -22l-6 9q23 20 51.5 31t59.5 11q70 0 119.5 -49.5t49.5 -120.5v0z" />
<glyph unicode="@" horiz-adv-x="890" d="M606 705l-243 -718q-14 -42 -51 -67.5t-80 -25.5q-4 0 -8.5 0.5t-8.5 0.5q-5 1 -9 2t-9 2l8 35q6 -1 12 -1.5t12 -0.5q33 0 60.5 20.5t37.5 49.5l218 643q-13 -5 -27 -7.5t-28 -2.5q-34 0 -70 11t-72 25q-3 2 -6.5 3t-6.5 3q-39 15 -77.5 27.5t-74.5 13.5h-3.5h-4.5 q-10 0 -24 -1.5t-29 -6.5q-19 -6 -36 -19.5t-25 -37.5q-2 -7 -3.5 -14.5t-1.5 -14.5q1 -26 15.5 -48t43.5 -30l-8 -37q-43 11 -65.5 45t-22.5 74q0 5 0.5 10t1.5 10q0 5 1.5 10t2.5 10q17 50 54.5 69t82.5 19q12 0 24 -1t24 -3q32 -5 62.5 -14.5t57.5 -19.5q9 -4 21.5 -8.5 t26.5 -9.5q15 -5 31.5 -10t33.5 -9q13 -3 26.5 -4.5t25.5 -1.5q26 0 46.5 9.5t28.5 34.5l36 -14v0zM872 189l-154 -81q6 -2 12 -3.5t13 -1.5h4.5t4.5 1q24 2 45 16.5t32 32.5l33 -21q-17 -28 -49.5 -47.5t-67.5 -19.5q-4 0 -8.5 0.5t-8.5 1.5q-4 0 -8.5 1.5t-8.5 2.5 q-27 9 -39 25.5t-12 35.5q0 5 1 10l2 10q10 36 46 65.5t80 29.5q5 0 9 -0.5t9 -0.5q4 -1 8.5 -2t8.5 -3t11 -6.5t15 -12.5q6 -6 12 -14.5t10 -18.5v0zM817 204l-0.5 0.5l-0.5 0.5q-1 0 -1.5 0.5l-0.5 0.5q-5 2 -10.5 2.5t-10.5 0.5q-4 0 -7.5 -0.5t-6.5 -0.5 q-27 -5 -50.5 -23.5t-28.5 -41.5l117 61v0zM731 688q-3 0 -6.5 -0.5t-6.5 -1.5q-14 -4 -26.5 -15.5t-17.5 -25.5l-147 -436q2 2 5 4t5 4q11 8 23.5 15t24.5 10q5 2 9.5 2.5t8.5 0.5q13 0 22.5 -5t16.5 -15q8 -10 10.5 -23t2.5 -27v-7.5t-1 -7.5q-1 -15 -4 -29t-7 -26 q-2 -9 -4.5 -16t-4.5 -12l-36 15q2 4 4 10l4 12q3 8 5 17t4 19q2 7 2.5 15t0.5 15q0 8 -1.5 14.5t-4.5 10.5q-1 1 -2 1.5t-4 0.5q-6 0 -12 -1.5t-12 -4.5q-21 -9 -40.5 -30t-34.5 -45q-9 -13 -15 -25.5t-10 -23.5l-37 15l193 568q10 26 35.5 45.5t54.5 19.5l3 -37v0z" />
<glyph unicode="A" horiz-adv-x="481" d="M456 0h-140v294h-158v-294h-139v451q0 113 80.5 193t192.5 80h82h82v-724v0zM316 307v404q-65 -4 -111.5 -52.5t-46.5 -114.5v-237h158v0z" />
<glyph unicode="B" horiz-adv-x="527" d="M503 509q0 -67 -52 -123.5t-132 -79.5q75 -4 127 -51t52 -103q0 -60 -56 -106t-136 -46h-282v724h206q113 0 193 -65.5t80 -149.5v0zM349 152q0 67 -34.5 104.5t-83.5 37.5h-67v-280h67q49 0 83.5 35.5t34.5 102.5v0zM353 509q0 95 -46.5 148.5t-115.5 53.5h-27v-404h27 q69 0 115.5 53.5t46.5 148.5v0z" />
<glyph unicode="C" horiz-adv-x="417" d="M388 0h-88q-141 0 -211.5 113t-70.5 249t70.5 249t211.5 113h88v-13h-44q-81 0 -126.5 -108.5t-48.5 -239.5v-10.5v-11.5q0 -125 42.5 -226.5t132.5 -101.5h44v-13v0z" />
<glyph unicode="D" horiz-adv-x="523" d="M500 362q0 -14 -1 -28t-2 -29q-13 -114 -81 -209.5t-197 -95.5h-195v724h195q140 0 210.5 -113t70.5 -249v0zM349 362v1.5v1.5q-4 130 -49 238t-126 108h-11v-698h11q91 0 133.5 101t41.5 227v10.5v10.5v0z" />
<glyph unicode="E" horiz-adv-x="349" d="M337 0h-36q-140 0 -210.5 113t-70.5 249t70.5 249t210.5 113h36v-8q-60 -5 -94.5 -64t-51.5 -129q-10 -44 -15 -85.5t-6 -69.5h167v-13h-167q-2 -128 38.5 -235t128.5 -112v-8v0z" />
<glyph unicode="F" horiz-adv-x="349" d="M333 716q-76 -7 -121 -113.5t-45 -234.5h128v-13h-128v-355h-151v368q0 134 71 245t210 111h36v-8v0z" />
<glyph unicode="G" horiz-adv-x="523" d="M500 0h-195q-140 0 -210.5 112.5t-70.5 247.5v1.5v1.5q0 136 70.5 248.5t210.5 112.5h88v-13h-44q-81 0 -126 -109t-49 -240v-10v-10q0 -126 42.5 -227.5t132.5 -101.5h3h3h2.5h2.5v281h-56v13h196v-307v0z" />
<glyph unicode="H" horiz-adv-x="469" d="M447 0h-139v294h-147v-294h-140v724h140v-417h147v417h139v-724v0z" />
<glyph unicode="I" horiz-adv-x="165" d="M148 0h-140v724h140v-724v0z" />
<glyph unicode="J" horiz-adv-x="340" d="M325 171q0 -112 -80 -191.5t-193 -79.5l-37 -1v13h3q69 1 118 49.5t49 117.5v645h140v-553v0z" />
<glyph unicode="K" horiz-adv-x="510" d="M510 724l-344 -417h296v-307h-140v294h-169v-294h-139v724h139v-413l340 413h17v0z" />
<glyph unicode="L" horiz-adv-x="318" d="M304 0h-290v724h140v-711h150v-13v0z" />
<glyph unicode="M" horiz-adv-x="766" d="M741 0h-140v584q0 41 -29.5 70.5t-71.5 29.5q-24 0 -44.5 -10.5t-34.5 -28.5q16 -22 24.5 -49t8.5 -57v-539h-139v584q0 41 -29.5 70.5t-71.5 29.5q-16 0 -31.5 -5t-28.5 -15v-664h-140v724h140v-42q24 20 53.5 31t62.5 11q44 0 81 -18.5t62 -50.5q26 32 63 50.5t80 18.5 q77 0 131 -54t54 -131v-539v0z" />
<glyph unicode="N" horiz-adv-x="512" d="M488 0h-139v573q0 44 -30.5 74.5t-73.5 30.5q-30 0 -54.5 -15.5t-38.5 -40.5v-622h-139v724h139v-81q25 37 65 59t87 22q76 0 130 -54t54 -130v-540v0z" />
<glyph unicode="O" horiz-adv-x="566" d="M281 1q-133 8 -199.5 119t-65.5 243v1.5v1.5q1 130 67 239.5t198 117.5q132 -8 198.5 -118t66.5 -241v-1.5v-1.5q0 -131 -66 -241.5t-199 -118.5v0zM281 15q66 14 96.5 111t30.5 215v11.5v10.5q-3 122 -36.5 225.5t-90.5 119.5q-58 -17 -91 -122t-36 -228v-10.5v-11.5 q1 -116 31.5 -211.5t95.5 -109.5v0z" />
<glyph unicode="P" horiz-adv-x="496" d="M469 458q0 -103 -79.5 -184.5t-192.5 -81.5h-42v-192h-139v724h139h42q113 0 192.5 -81t79.5 -185v0zM330 458q0 114 -49.5 183.5t-118.5 69.5h-7v-506h7q69 0 118.5 69.5t49.5 183.5v0z" />
<glyph unicode="Q" horiz-adv-x="563" d="M521 0h-240q-133 0 -199.5 110.5t-65.5 243.5v3.5v2.5q2 132 68 243.5t197 119.5q134 -8 200 -119.5t66 -243.5q0 -113 -50 -213t-149 -134h173v-13v0zM281 14q66 14 96.5 111t30.5 215v11.5v10.5q-3 122 -36.5 226t-90.5 120q-57 -17 -90.5 -122t-35.5 -228v-10.5v-11.5 q0 -116 30.5 -212t95.5 -110v0z" />
<glyph unicode="R" horiz-adv-x="509" d="M475 0h-139v294h-184v-294h-140v724h140h36q113 0 193 -65.5t80 -149.5q0 -67 -51.5 -123t-130.5 -79h196v-307v0zM311 509q0 94 -45.5 147.5t-113.5 54.5v-404q68 1 113.5 54.5t45.5 147.5v0z" />
<glyph unicode="S" horiz-adv-x="614" d="M600 711h-44q-81 0 -127 -108t-48 -238v-1.5v-1.5q-1 -136 -71 -249t-210 -113h-89v13h44q95 0 136 109t39 240q-1 136 70 249t211 113h89v-13v0z" />
<glyph unicode="T" horiz-adv-x="386" d="M368 711h-105v-711h-140v711h-105v13h350v-13v0z" />
<glyph unicode="U" horiz-adv-x="523" d="M499 0h-140v81q-25 -37 -65 -59t-87 -22q-76 0 -129.5 54t-53.5 130v540h139v-574q0 -43 30.5 -73.5t73.5 -30.5q30 0 54.5 15.5t37.5 40.5v622h140v-724v0z" />
<glyph unicode="V" horiz-adv-x="553" d="M544 724l-194 -724h-147l-194 724h144l189 -705l189 705h13v0z" />
<glyph unicode="W" horiz-adv-x="759" d="M741 0h-140v41q-24 -19 -53.5 -30t-62.5 -11q-43 0 -80 18.5t-63 49.5q-25 -31 -62.5 -49.5t-80.5 -18.5q-76 0 -130.5 54t-54.5 130v540h140v-584q0 -41 29.5 -71t70.5 -30q25 0 46 11t34 28q-16 23 -25 50t-9 56v540h140v-584q0 -41 29.5 -71t71.5 -30q17 0 32 5.5 t28 14.5v665h140v-724v0z" />
<glyph unicode="X" horiz-adv-x="429" d="M422 0h-148l-112 305l-111 -305h-14l118 324l-145 400h148l72 -196l71 196h14l-78 -215l185 -509v0z" />
<glyph unicode="Y" horiz-adv-x="478" d="M460 273q0 -112 -80 -192.5t-193 -80.5h-88v13h54q69 0 118.5 49t49.5 118v69q-25 -22 -56 -34t-66 -12q-76 0 -130 53.5t-54 129.5v338h139v-371q0 -43 30.5 -73.5t73.5 -30.5q18 0 34 5.5t29 15.5v454h139v-451v0z" />
<glyph unicode="Z" horiz-adv-x="513" d="M503 724l-340 -711h249v-13h-399l339 711h-209v13h360v0z" />
<glyph unicode="[" horiz-adv-x="229" d="M218 -51h-208v825h208v-12h-68v-800h68v-13v0z" />
<glyph unicode="\" horiz-adv-x="278" d="M333 -93h-48l-322 829h46l324 -829v0z" />
<glyph unicode="]" horiz-adv-x="229" d="M218 -51h-208v13h68v800h-68v12h208v-825v0z" />
<glyph unicode="^" horiz-adv-x="1000" d="M797 438h-45l-253 213l-254 -213h-44l255 276h87l254 -276v0z" />
<glyph unicode="_" horiz-adv-x="403" d="M504 -20h-492v18h492v-18v0z" />
<glyph unicode="`" horiz-adv-x="230" d="M185 753l-5 -32l-135 24l6 32l134 -24v0z" />
<glyph unicode="a" />
<glyph unicode="b" />
<glyph unicode="c" />
<glyph unicode="d" />
<glyph unicode="e" />
<glyph unicode="f" />
<glyph unicode="g" />
<glyph unicode="h" />
<glyph unicode="i" />
<glyph unicode="j" />
<glyph unicode="k" />
<glyph unicode="l" />
<glyph unicode="m" />
<glyph unicode="n" />
<glyph unicode="o" />
<glyph unicode="p" />
<glyph unicode="q" />
<glyph unicode="r" />
<glyph unicode="s" />
<glyph unicode="t" />
<glyph unicode="u" />
<glyph unicode="v" />
<glyph unicode="w" />
<glyph unicode="x" />
<glyph unicode="y" />
<glyph unicode="z" />
<glyph unicode="{" />
<glyph unicode="|" d="M281 -236h-62v1000h62v-1000v0z" />
<glyph unicode="}" />
<glyph unicode="~" horiz-adv-x="833" d="M747 266q-49 -35 -96.5 -52.5t-92.5 -17.5q-22 0 -45 4.5t-48 12.5q-7 2 -13.5 4.5t-12.5 4.5q-32 11 -62 21.5t-59 15.5q-11 2 -21.5 3t-21.5 1h-6h-7q-41 -3 -83.5 -23t-91.5 -55v85q51 35 98.5 53t90.5 18q39 0 73.5 -10t68.5 -22q2 -1 4 -1.5t4 -1.5q13 -4 25.5 -8.5 t24.5 -8.5q20 -7 40.5 -11t42.5 -4q6 0 12.5 0.5t13.5 1.5q38 5 77.5 24t84.5 50v-84v0z" />
<glyph unicode="&#xa1;" horiz-adv-x="121" d="M5 -137q0 46 7.5 108.5t16.5 132.5q3 22 5.5 44.5t5.5 44.5q5 50 9 98.5t4 92.5h13q0 -44 4 -92.5t9 -98.5q3 -22 6 -44.5t6 -44.5q9 -70 16.5 -132.5t7.5 -107.5q0 -23 -16 -39t-39 -16q-22 0 -38.5 16t-16.5 39v-1zM5 477q0 23 16.5 39t38.5 16q23 0 39 -16t16 -39 q0 -22 -16 -38.5t-39 -16.5q-22 0 -38.5 16.5t-16.5 38.5v0z" />
<glyph unicode="&#xa2;" horiz-adv-x="296" d="M283 110h-68q-10 0 -19.5 1t-18.5 2v-113h-13v117q-75 21 -113 94.5t-38 157.5q0 8 0.5 16.5t1.5 16.5q6 72 43 135t106 83v104h13v-100q9 2 19.5 2.5t20.5 0.5h66v-18h-36q-21 0 -38.5 -12.5t-31.5 -34.5v-397q14 -17 31 -26.5t39 -9.5h36v-19v0zM164 185v354 q-8 -17 -14 -37.5t-11 -42.5q-5 -25 -7.5 -51.5t-2.5 -52.5v-12t1 -12q0 -18 2.5 -36t5.5 -35q5 -21 11 -40t15 -35v0z" />
<glyph unicode="&#xa3;" horiz-adv-x="410" d="M391 117q-1 -49 -35.5 -83t-83.5 -34h-253v13h39v281h-38v13h38v301q0 48 34.5 82t81.5 34h174v-13h-62q-36 0 -62 -26t-26 -63v-315h48v-13h-48v-281h74q43 0 73.5 30.5t31.5 73.5h14v0z" />
<glyph unicode="&#xa4;" horiz-adv-x="457" d="M436 0h-88q-133 0 -202.5 101.5t-77.5 228.5h-43l6 13h36q0 3 -0.5 5.5t-0.5 4.5v4.5v5.5v4.5t1 4.5v4.5v4.5h-46l6 13h41q8 127 77.5 228.5t202.5 101.5h88v-13h-44q-76 0 -121 -97.5t-53 -219.5h142l-6 -13h-136q0 -5 -0.5 -9.5t-0.5 -9.5v-9.5v-9.5h118l-7 -13h-111 q2 -122 44.5 -219.5t130.5 -97.5h44v-13v0z" />
<glyph unicode="&#xa5;" horiz-adv-x="421" d="M402 724l-88 -330h78v-13h-82l-10 -38h92v-13h-95l-11 -42v-288h-149v285l-12 45h-79v13h75l-10 38h-65v13h62l-89 330h145l111 -417h2l112 417h13v0z" />
<glyph unicode="&#xa6;" />
<glyph unicode="&#xa7;" />
<glyph unicode="&#xa8;" horiz-adv-x="230" d="M106 756q0 -12 -8 -20.5t-20 -8.5t-20 8.5t-8 20.5q0 11 8 19.5t20 8.5t20 -8.5t8 -19.5v0zM181 756q0 -12 -8.5 -20.5t-19.5 -8.5q-12 0 -20.5 8.5t-8.5 20.5q0 11 8.5 19.5t20.5 8.5q11 0 19.5 -8.5t8.5 -19.5v0z" />
<glyph unicode="&#xa9;" horiz-adv-x="806" d="M770 364q0 -150 -108.5 -257.5t-258.5 -107.5q-151 0 -258.5 107t-107.5 258t107.5 259t258.5 108q150 0 258.5 -108.5t108.5 -258.5v0zM701 364q0 122 -88 210.5t-210 88.5q-123 0 -210.5 -88t-87.5 -211q0 -124 87.5 -211t210.5 -87t210.5 88t87.5 210v0zM582 283 q-14 -59 -61.5 -95.5t-109.5 -36.5q-96 0 -148 56t-52 150q0 96 50.5 152.5t148.5 56.5q58 0 102.5 -29t61.5 -85l-58 -15q-18 36 -43.5 55.5t-69.5 19.5q-66 0 -96 -46t-30 -107q0 -64 29 -107.5t99 -43.5q41 0 75 26.5t42 66.5l60 -18v0z" />
<glyph unicode="&#xaa;" horiz-adv-x="270" d="M254 344h-82v147h-67v-147h-82v232q0 59 42.5 100.5t100.5 41.5h41.5h46.5v-374v0zM172 510v189q-28 -4 -47.5 -26t-19.5 -51v-112h67v0z" />
<glyph unicode="&#xab;" horiz-adv-x="174" d="M118 298l-12 -12l-92 92l92 91l12 -12l-80 -79l80 -80v0zM168 298l-12 -12l-92 92l92 91l12 -12l-80 -79l80 -80v0z" />
<glyph unicode="&#xac;" />
<glyph unicode="&#xad;" />
<glyph unicode="&#xae;" horiz-adv-x="348" d="M332 573q0 -65 -46.5 -111.5t-111.5 -46.5t-111.5 46t-46.5 112q0 65 47 111.5t111 46.5t111 -47.5t47 -110.5v0zM309 573q0 54 -40 94.5t-95 40.5t-95 -39.5t-40 -95.5q0 -57 39.5 -96t95.5 -39t95.5 40t39.5 95v0zM251 489h-34l-37 73h-33v-73h-32v176h61q6 0 12 -0.5 t12 -1.5q19 -4 35 -15t16 -31q0 -19 -11 -31.5t-28 -17.5l39 -79v0zM212 613q0 11 -9 18t-20 9q-3 1 -6.5 1.5t-6.5 0.5h-23v-56h34q13 0 22 7t9 20v0z" />
<glyph unicode="&#xaf;" horiz-adv-x="331" />
<glyph unicode="&#xb0;" />
<glyph unicode="&#xb1;" />
<glyph unicode="&#xb2;" />
<glyph unicode="&#xb3;" />
<glyph unicode="&#xb4;" horiz-adv-x="186" d="M162 745l-135 -24l-5 32l134 24l6 -32v0z" />
<glyph unicode="&#xb5;" />
<glyph unicode="&#xb6;" />
<glyph unicode="&#xb7;" horiz-adv-x="331" />
<glyph unicode="&#xb8;" horiz-adv-x="215" d="M111 19l29 -13l-18 -38q2 1 4 1h4q4 -1 8.5 -2t7.5 -2q17 -3 28.5 -13t11.5 -27q0 -6 -1.5 -11.5t-4.5 -9.5q-5 -6 -13 -10.5t-17 -5.5q-5 -2 -11 -3t-13 -1q-3 -1 -6 -1h-6h-2.5h-2.5q-23 1 -43.5 6t-30.5 13l19 22q6 -3 22 -6.5t34 -3.5h2h2q8 0 15 1t13 3q5 1 8.5 2.5 t4.5 3.5v0q0 5 -4.5 7t-10.5 4q-3 1 -7 1.5t-8 1.5q-7 1 -14 1h-13l-24 -1l11 22l26 59v0z" />
<glyph unicode="&#xb9;" />
<glyph unicode="&#xba;" horiz-adv-x="282" d="M142 362q-67 4 -100 59t-33 121t33.5 121.5t99.5 59.5q67 -4 100 -60t33 -122v-1.5v-1.5q-1 -65 -34.5 -119t-98.5 -57v0zM142 379q33 6 48.5 51.5t15.5 100.5v4.5v4.5q-1 58 -17.5 107.5t-46.5 56.5q-28 -7 -44.5 -54.5t-18.5 -103.5v-7.5v-7.5q0 -55 15 -100.5 t48 -51.5v0z" />
<glyph unicode="&#xbb;" horiz-adv-x="174" d="M122 378l-92 -92l-12 12l80 80l-80 79l12 12l92 -91v0zM172 378l-92 -92l-12 12l80 80l-80 79l12 12l92 -91v0z" />
<glyph unicode="&#xbc;" />
<glyph unicode="&#xbd;" />
<glyph unicode="&#xbe;" />
<glyph unicode="&#xbf;" horiz-adv-x="311" d="M22 -22q0 39 16.5 72.5t44.5 57.5q3 3 6.5 5.5t6.5 5.5q47 41 86.5 88.5t39.5 98.5q0 11 -2.5 22.5t-7.5 22.5q-2 5 -4.5 10t-4.5 10t-4.5 10t-4.5 10l12 5q9 -20 18 -40.5t17 -40.5q14 -31 20 -58t5 -51q0 -54 -26.5 -96.5t-70.5 -81.5q-19 -19 -35.5 -40.5t-16.5 -50.5 q0 -48 33.5 -77t73.5 -29q20 0 38 7t34 22l6 -10q-22 -19 -50.5 -30t-60.5 -11q-70 0 -119.5 49.5t-49.5 120.5v-1zM148 477q0 23 16.5 39t38.5 16q23 0 39 -16t16 -39q0 -22 -16 -38.5t-39 -16.5q-22 0 -38.5 16.5t-16.5 38.5v0z" />
<glyph unicode="&#xc0;" horiz-adv-x="481" d="M456 0h-140v294h-158v-294h-139v451q0 113 80.5 193t192.5 80h82h82v-724v0zM316 307v404q-65 -4 -111.5 -52.5t-46.5 -114.5v-237h158v0zM345 773l-5 -32l-135 24l6 32l134 -24v0z" />
<glyph unicode="&#xc1;" horiz-adv-x="481" d="M456 0h-140v294h-158v-294h-139v451q0 113 80.5 193t192.5 80h82h82v-724v0zM316 307v404q-65 -4 -111.5 -52.5t-46.5 -114.5v-237h158v0zM392 765l-135 -24l-5 32l134 24l6 -32v0z" />
<glyph unicode="&#xc2;" horiz-adv-x="481" d="M456 0h-140v294h-158v-294h-139v451q0 113 80.5 193t192.5 80h82h82v-724v0zM316 307v404q-65 -4 -111.5 -52.5t-46.5 -114.5v-237h158v0zM367 770l-11 -30l-81 29l-80 -29l-12 30l92 33l92 -33v0z" />
<glyph unicode="&#xc3;" horiz-adv-x="481" d="M456 0h-140v294h-158v-294h-139v451q0 113 80.5 193t192.5 80h82h82v-724v0zM316 307v404q-65 -4 -111.5 -52.5t-46.5 -114.5v-237h158v0zM367 802q0 -4 -1.5 -11.5t-5.5 -15.5q-5 -12 -16.5 -22t-32.5 -10q-5 0 -9.5 0.5t-9.5 2.5q-5 1 -9.5 3t-9.5 5q-12 7 -17 10t-9 4 h-2.5h-2.5q-2 0 -5 -1t-7 -2q-4 -3 -8 -8t-6 -14h-33q3 21 11.5 32t17.5 17q10 6 19 7t11 1q4 0 8 -0.5t8 -1.5q6 -2 12.5 -5t14.5 -8q7 -4 11.5 -7t9.5 -4h1h2q9 0 15.5 6.5t9.5 21.5h33v0z" />
<glyph unicode="&#xc4;" horiz-adv-x="481" d="M456 0h-140v294h-158v-294h-139v451q0 113 80.5 193t192.5 80h82h82v-724v0zM316 307v404q-65 -4 -111.5 -52.5t-46.5 -114.5v-237h158v0zM256 766q0 -12 -8 -20.5t-20 -8.5t-20 8.5t-8 20.5q0 11 8 19.5t20 8.5t20 -8.5t8 -19.5v0zM331 766q0 -12 -8.5 -20.5t-19.5 -8.5 q-12 0 -20.5 8.5t-8.5 20.5q0 11 8.5 19.5t20.5 8.5q11 0 19.5 -8.5t8.5 -19.5v0z" />
<glyph unicode="&#xc5;" horiz-adv-x="481" d="M456 0h-140v294h-158v-294h-139v451q0 113 80.5 193t192.5 80h82h82v-724v0zM316 307v404q-65 -4 -111.5 -52.5t-46.5 -114.5v-237h158v0zM319 779q0 -19 -12 -31.5t-32 -12.5q-17 0 -26 7.5t-13 16.5q-3 6 -4 11.5t-1 8.5q0 17 12 30t32 13t32 -12.5t12 -30.5v0z M293 779q0 8 -5 13t-13 5q-7 0 -12.5 -5.5t-5.5 -12.5q0 -10 5.5 -14.5t12.5 -4.5q8 0 13 6t5 13v0z" />
<glyph unicode="&#xc6;" horiz-adv-x="675" d="M658 0h-343v294h-157v-294h-140v451q0 113 80.5 193t192.5 80h367v-13h-203v-404h122v-13h-122v-281h203v-13v0zM315 307v404q-65 -4 -111 -52.5t-46 -114.5v-237h157v0z" />
<glyph unicode="&#xc7;" horiz-adv-x="417" d="M261 19l29 -13l-18 -38q2 1 4 1h4q4 -1 8.5 -2t7.5 -2q17 -3 28.5 -13t11.5 -27q0 -6 -1.5 -11.5t-4.5 -9.5q-5 -6 -13 -10.5t-17 -5.5q-5 -2 -11 -3t-13 -1q-3 -1 -6 -1h-6h-2.5h-2.5q-23 1 -43.5 6t-30.5 13l19 22q6 -3 22 -6.5t34 -3.5h2h2q8 0 15 1t13 3q5 1 8.5 2.5 t4.5 3.5v0q0 5 -4.5 7t-10.5 4q-3 1 -7 1.5t-8 1.5q-7 1 -14 1h-13l-24 -1l11 22l26 59v0zM388 0h-88q-141 0 -211.5 113t-70.5 249t70.5 249t211.5 113h88v-13h-44q-81 0 -126.5 -108.5t-48.5 -239.5v-10.5v-11.5q0 -125 42.5 -226.5t132.5 -101.5h44v-13v0z" />
<glyph unicode="&#xc8;" horiz-adv-x="349" d="M337 0h-36q-140 0 -210.5 113t-70.5 249t70.5 249t210.5 113h36v-8q-60 -5 -94.5 -64t-51.5 -129q-10 -44 -15 -85.5t-6 -69.5h167v-13h-167q-2 -128 38.5 -235t128.5 -112v-8v0zM305 773l-5 -32l-135 24l6 32l134 -24v0z" />
<glyph unicode="&#xc9;" horiz-adv-x="349" d="M337 0h-36q-140 0 -210.5 113t-70.5 249t70.5 249t210.5 113h36v-8q-60 -5 -94.5 -64t-51.5 -129q-10 -44 -15 -85.5t-6 -69.5h167v-13h-167q-2 -128 38.5 -235t128.5 -112v-8v0zM342 755l-135 -24l-5 32l134 24l6 -32v0z" />
<glyph unicode="&#xca;" horiz-adv-x="349" d="M337 0h-36q-140 0 -210.5 113t-70.5 249t70.5 249t210.5 113h36v-8q-60 -5 -94.5 -64t-51.5 -129q-10 -44 -15 -85.5t-6 -69.5h167v-13h-167q-2 -128 38.5 -235t128.5 -112v-8v0zM347 770l-11 -30l-81 29l-80 -29l-12 30l92 33l92 -33v0z" />
<glyph unicode="&#xcb;" horiz-adv-x="349" d="M337 0h-36q-140 0 -210.5 113t-70.5 249t70.5 249t210.5 113h36v-8q-60 -5 -94.5 -64t-51.5 -129q-10 -44 -15 -85.5t-6 -69.5h167v-13h-167q-2 -128 38.5 -235t128.5 -112v-8v0zM246 766q0 -12 -8 -20.5t-20 -8.5t-20 8.5t-8 20.5q0 11 8 19.5t20 8.5t20 -8.5t8 -19.5v0 zM321 766q0 -12 -8.5 -20.5t-19.5 -8.5q-12 0 -20.5 8.5t-8.5 20.5q0 11 8.5 19.5t20.5 8.5q11 0 19.5 -8.5t8.5 -19.5v0z" />
<glyph unicode="&#xcc;" horiz-adv-x="165" d="M148 0h-140v724h140v-724v0zM145 773l-5 -32l-135 24l6 32l134 -24v0z" />
<glyph unicode="&#xcd;" horiz-adv-x="165" d="M148 0h-140v724h140v-724v0zM152 765l-135 -24l-5 32l134 24l6 -32v0z" />
<glyph unicode="&#xce;" horiz-adv-x="165" d="M148 0h-140v724h140v-724v0zM167 760l-11 -30l-81 29l-80 -29l-12 30l92 33l92 -33v0z" />
<glyph unicode="&#xcf;" horiz-adv-x="165" d="M148 0h-140v724h140v-724v0zM72 766q0 -12 -8 -20.5t-20 -8.5t-20 8.5t-8 20.5q0 11 8 19.5t20 8.5t20 -8.5t8 -19.5v0zM147 766q0 -12 -8.5 -20.5t-19.5 -8.5q-12 0 -20.5 8.5t-8.5 20.5q0 11 8.5 19.5t20.5 8.5q11 0 19.5 -8.5t8.5 -19.5v0z" />
<glyph unicode="&#xd0;" horiz-adv-x="532" d="M236 0h-194v355h-35v13h35v356h194q140 0 210.5 -112.5t70.5 -247.5v-1.5v-1.5q0 -136 -70.5 -248.5t-210.5 -112.5v0zM220 355h-39v-342h11q91 0 133.5 102t41.5 229v10v10q-4 130 -49 238.5t-126 108.5h-11v-343h39v-13v0z" />
<glyph unicode="&#xd1;" horiz-adv-x="512" d="M488 0h-139v573q0 44 -30.5 74.5t-73.5 30.5q-30 0 -54.5 -15.5t-38.5 -40.5v-622h-139v724h139v-81q25 37 65 59t87 22q76 0 130 -54t54 -130v-540v0zM357 802q0 -4 -1.5 -11.5t-5.5 -15.5q-5 -12 -16.5 -22t-32.5 -10q-5 0 -9.5 0.5t-9.5 2.5q-5 1 -9.5 3t-9.5 5 q-12 7 -17 10t-9 4h-2.5h-2.5q-2 0 -5 -1t-7 -2q-4 -3 -8 -8t-6 -14h-33q3 21 11.5 32t17.5 17q10 6 19 7t11 1q4 0 8 -0.5t8 -1.5q6 -2 12.5 -5t14.5 -8q7 -4 11.5 -7t9.5 -4h1h2q9 0 15.5 6.5t9.5 21.5h33v0z" />
<glyph unicode="&#xd2;" horiz-adv-x="331" />
<glyph unicode="&#xd3;" horiz-adv-x="566" d="M281 1q-133 8 -199.5 119t-65.5 243v1.5v1.5q1 130 67 239.5t198 117.5q132 -8 198.5 -118t66.5 -241v-1.5v-1.5q0 -131 -66 -241.5t-199 -118.5v0zM281 15q66 14 96.5 111t30.5 215v11.5v10.5q-3 122 -36.5 225.5t-90.5 119.5q-58 -17 -91 -122t-36 -228v-10.5v-11.5 q1 -116 31.5 -211.5t95.5 -109.5v0zM402 755l-135 -24l-5 32l134 24l6 -32v0z" />
<glyph unicode="&#xd4;" horiz-adv-x="566" d="M281 1q-133 8 -199.5 119t-65.5 243v1.5v1.5q1 130 67 239.5t198 117.5q132 -8 198.5 -118t66.5 -241v-1.5v-1.5q0 -131 -66 -241.5t-199 -118.5v0zM281 15q66 14 96.5 111t30.5 215v11.5v10.5q-3 122 -36.5 225.5t-90.5 119.5q-58 -17 -91 -122t-36 -228v-10.5v-11.5 q1 -116 31.5 -211.5t95.5 -109.5v0zM367 750l-11 -30l-81 29l-80 -29l-12 30l92 33l92 -33v0z" />
<glyph unicode="&#xd5;" horiz-adv-x="566" d="M281 1q-133 8 -199.5 119t-65.5 243v1.5v1.5q1 130 67 239.5t198 117.5q132 -8 198.5 -118t66.5 -241v-1.5v-1.5q0 -131 -66 -241.5t-199 -118.5v0zM281 15q66 14 96.5 111t30.5 215v11.5v10.5q-3 122 -36.5 225.5t-90.5 119.5q-58 -17 -91 -122t-36 -228v-10.5v-11.5 q1 -116 31.5 -211.5t95.5 -109.5v0zM377 792q0 -4 -1.5 -11.5t-5.5 -15.5q-5 -12 -16.5 -22t-32.5 -10q-5 0 -9.5 0.5t-9.5 2.5q-5 1 -9.5 3t-9.5 5q-12 7 -17 10t-9 4h-2.5h-2.5q-2 0 -5 -1t-7 -2q-4 -3 -8 -8t-6 -14h-33q3 21 11.5 32t17.5 17q10 6 19 7t11 1q4 0 8 -0.5 t8 -1.5q6 -2 12.5 -5t14.5 -8q7 -4 11.5 -7t9.5 -4h1h2q9 0 15.5 6.5t9.5 21.5h33v0z" />
<glyph unicode="&#xd6;" horiz-adv-x="566" d="M281 1q-133 8 -199.5 119t-65.5 243v1.5v1.5q1 130 67 239.5t198 117.5q132 -8 198.5 -118t66.5 -241v-1.5v-1.5q0 -131 -66 -241.5t-199 -118.5v0zM281 15q66 14 96.5 111t30.5 215v11.5v10.5q-3 122 -36.5 225.5t-90.5 119.5q-58 -17 -91 -122t-36 -228v-10.5v-11.5 q1 -116 31.5 -211.5t95.5 -109.5v0zM266 766q0 -12 -8 -20.5t-20 -8.5t-20 8.5t-8 20.5q0 11 8 19.5t20 8.5t20 -8.5t8 -19.5v0zM341 766q0 -12 -8.5 -20.5t-19.5 -8.5q-12 0 -20.5 8.5t-8.5 20.5q0 11 8.5 19.5t20.5 8.5q11 0 19.5 -8.5t8.5 -19.5v0z" />
<glyph unicode="&#xd7;" />
<glyph unicode="&#xd8;" horiz-adv-x="584" d="M506 719l-45 -77q47 -51 71.5 -123.5t25.5 -148.5v-5v-4q-1 -131 -67 -241.5t-199 -118.5q-49 3 -89 21.5t-71 49.5l-43 -74l-11 6l45 77q-48 53 -72.5 128t-23.5 154q0 131 66.5 241.5t198.5 118.5q50 -3 89.5 -21.5t70.5 -49.5l43 74l11 -7v0zM398 532l-213 -369 q14 -59 40.5 -99.5t66.5 -48.5q66 14 96.5 111t30.5 214q0 8 -0.5 16.5t-0.5 16.5q-2 42 -7 82.5t-13 76.5v0zM394 551q-16 62 -41.5 104.5t-60.5 52.5q-58 -16 -90.5 -121t-36.5 -227v-12.5v-12.5q0 -40 4 -79.5t11 -74.5l214 370v0z" />
<glyph unicode="&#xd9;" horiz-adv-x="523" d="M499 0h-140v81q-25 -37 -65 -59t-87 -22q-76 0 -129.5 54t-53.5 130v540h139v-574q0 -43 30.5 -73.5t73.5 -30.5q30 0 54.5 15.5t37.5 40.5v622h140v-724v0zM325 753l-5 -32l-135 24l6 32l134 -24v0z" />
<glyph unicode="&#xda;" horiz-adv-x="523" d="M499 0h-140v81q-25 -37 -65 -59t-87 -22q-76 0 -129.5 54t-53.5 130v540h139v-574q0 -43 30.5 -73.5t73.5 -30.5q30 0 54.5 15.5t37.5 40.5v622h140v-724v0zM342 745l-135 -24l-5 32l134 24l6 -32v0z" />
<glyph unicode="&#xdb;" horiz-adv-x="523" d="M499 0h-140v81q-25 -37 -65 -59t-87 -22q-76 0 -129.5 54t-53.5 130v540h139v-574q0 -43 30.5 -73.5t73.5 -30.5q30 0 54.5 15.5t37.5 40.5v622h140v-724v0zM354 750l-11 -30l-81 29l-80 -29l-12 30l92 33l92 -33v0z" />
<glyph unicode="&#xdc;" horiz-adv-x="523" d="M499 0h-140v81q-25 -37 -65 -59t-87 -22q-76 0 -129.5 54t-53.5 130v540h139v-574q0 -43 30.5 -73.5t73.5 -30.5q30 0 54.5 15.5t37.5 40.5v622h140v-724v0zM256 756q0 -12 -8 -20.5t-20 -8.5t-20 8.5t-8 20.5q0 11 8 19.5t20 8.5t20 -8.5t8 -19.5v0zM331 756 q0 -12 -8.5 -20.5t-19.5 -8.5q-12 0 -20.5 8.5t-8.5 20.5q0 11 8.5 19.5t20.5 8.5q11 0 19.5 -8.5t8.5 -19.5v0z" />
<glyph unicode="&#xdd;" horiz-adv-x="331" />
<glyph unicode="&#xde;" horiz-adv-x="456" d="M435 370q0 -103 -79.5 -184.5t-192.5 -81.5h-3v-104h-139v724h139v-89h3q113 0 192.5 -80.5t79.5 -184.5v0zM296 370q0 101 -39 167t-97 81v-497q58 15 97 82t39 167v0z" />
<glyph unicode="&#xdf;" horiz-adv-x="535" d="M482 35q-4 -6 -8.5 -12t-9.5 -12q-4 -7 -8.5 -12.5t-9.5 -11.5l-22 15q2 3 4 5.5t3 4.5v0v0q2 2 3.5 4.5t4.5 6.5q6 8 8.5 16.5t2.5 17.5q0 6 -1.5 13t-3.5 13q-9 22 -26.5 43.5t-37.5 39.5q-15 13 -28.5 23.5t-23.5 17.5q-43 29 -70.5 76.5t-27.5 99.5q0 25 8 49.5 t24 47.5q6 8 11 15.5t10 14.5q8 14 13.5 29.5t5.5 36.5q0 40 -19 68.5t-46 28.5t-46 -28.5t-19 -68.5l1 -576h-150v572q0 63 45 107.5t107 44.5q63 0 107.5 -44.5t44.5 -107.5q0 -21 -5.5 -36.5t-11.5 -29.5q-3 -5 -5 -9t-4 -9q-4 -9 -6.5 -18.5t-2.5 -19.5t3 -20.5 t10 -23.5q4 -7 8.5 -13.5t9.5 -13.5q15 -21 35.5 -41t43.5 -37q44 -31 76 -79t32 -101q0 -22 -7 -43.5t-22 -42.5v0z" />
<glyph unicode="&#xe0;" />
<glyph unicode="&#xe1;" />
<glyph unicode="&#xe2;" />
<glyph unicode="&#xe3;" />
<glyph unicode="&#xe4;" />
<glyph unicode="&#xe5;" />
<glyph unicode="&#xe6;" />
<glyph unicode="&#xe7;" />
<glyph unicode="&#xe8;" />
<glyph unicode="&#xe9;" />
<glyph unicode="&#xea;" />
<glyph unicode="&#xeb;" />
<glyph unicode="&#xec;" />
<glyph unicode="&#xed;" />
<glyph unicode="&#xee;" />
<glyph unicode="&#xef;" />
<glyph unicode="&#xf0;" />
<glyph unicode="&#xf1;" />
<glyph unicode="&#xf2;" />
<glyph unicode="&#xf3;" />
<glyph unicode="&#xf4;" />
<glyph unicode="&#xf5;" />
<glyph unicode="&#xf6;" />
<glyph unicode="&#xf7;" />
<glyph unicode="&#xf8;" />
<glyph unicode="&#xf9;" />
<glyph unicode="&#xfa;" />
<glyph unicode="&#xfb;" />
<glyph unicode="&#xfc;" />
<glyph unicode="&#xfd;" horiz-adv-x="331" />
<glyph unicode="&#xfe;" />
<glyph unicode="&#xff;" />
<glyph unicode="&#x152;" horiz-adv-x="745" d="M732 0h-37q-70 0 -123.5 31.5t-88.5 83.5q-33 -48 -82 -79t-114 -35q-133 8 -199.5 119t-65.5 243v1.5v1.5q1 130 67 239.5t198 117.5q65 -4 114 -35t82 -79q35 52 88.5 83.5t123.5 31.5h37v-8q-76 -7 -119.5 -113.5t-47.5 -234.5h167v-13h-167q-2 -128 38.5 -235 t128.5 -112v-8v0zM287 15q66 14 96.5 111t30.5 215v11.5v10.5q-3 122 -36.5 225.5t-90.5 119.5q-58 -17 -91 -122t-36 -228v-10.5v-11.5q1 -116 31.5 -211.5t95.5 -109.5v0z" />
<glyph unicode="&#x153;" />
<glyph unicode="&#x178;" horiz-adv-x="478" d="M460 273q0 -112 -80 -192.5t-193 -80.5h-88v13h54q69 0 118.5 49t49.5 118v69q-25 -22 -56 -34t-66 -12q-76 0 -130 53.5t-54 129.5v338h139v-371q0 -43 30.5 -73.5t73.5 -30.5q18 0 34 5.5t29 15.5v454h139v-451v0zM226 756q0 -12 -8 -20.5t-20 -8.5t-20 8.5t-8 20.5 q0 11 8 19.5t20 8.5t20 -8.5t8 -19.5v0zM301 756q0 -12 -8.5 -20.5t-19.5 -8.5q-12 0 -20.5 8.5t-8.5 20.5q0 11 8.5 19.5t20.5 8.5q11 0 19.5 -8.5t8.5 -19.5v0z" />
<glyph unicode="&#x2c6;" horiz-adv-x="230" d="M207 782q0 -4 -1.5 -11.5t-5.5 -15.5q-5 -12 -16.5 -22t-32.5 -10q-5 0 -9.5 0.5t-9.5 2.5q-5 1 -9.5 3t-9.5 5q-12 7 -17 10t-9 4h-2.5h-2.5q-2 0 -5 -1t-7 -2q-4 -3 -8 -8t-6 -14h-33q3 21 11.5 32t17.5 17q10 6 19 7t11 1q4 0 8 -0.5t8 -1.5q6 -2 12.5 -5t14.5 -8 q7 -4 11.5 -7t9.5 -4h1h2q9 0 15.5 6.5t9.5 21.5h33v0z" />
<glyph unicode="&#x2dc;" horiz-adv-x="230" d="M207 730l-11 -30l-81 29l-80 -29l-12 30l92 33l92 -33v0z" />
<glyph unicode="&#x2000;" horiz-adv-x="411" />
<glyph unicode="&#x2001;" horiz-adv-x="822" />
<glyph unicode="&#x2002;" horiz-adv-x="411" />
<glyph unicode="&#x2003;" horiz-adv-x="822" />
<glyph unicode="&#x2004;" horiz-adv-x="274" />
<glyph unicode="&#x2005;" horiz-adv-x="205" />
<glyph unicode="&#x2006;" horiz-adv-x="137" />
<glyph unicode="&#x2007;" horiz-adv-x="137" />
<glyph unicode="&#x2008;" horiz-adv-x="102" />
<glyph unicode="&#x2009;" horiz-adv-x="164" />
<glyph unicode="&#x200a;" horiz-adv-x="45" />
<glyph unicode="&#x2010;" horiz-adv-x="145" d="M138 350h-123v18h123v-18v0z" />
<glyph unicode="&#x2011;" horiz-adv-x="145" d="M138 350h-123v18h123v-18v0z" />
<glyph unicode="&#x2012;" horiz-adv-x="145" d="M138 350h-123v18h123v-18v0z" />
<glyph unicode="&#x2013;" horiz-adv-x="246" d="M243 350h-246v18h246v-18v0z" />
<glyph unicode="&#x2014;" horiz-adv-x="492" d="M490 350h-492v18h492v-18v0z" />
<glyph unicode="&#x2018;" horiz-adv-x="121" d="M9 633q-1 4 -1 7.5v7.5q0 27 12.5 52t33.5 41l9 -10q-13 -10 -22 -23.5t-14 -29.5q8 7 17 10.5t20 3.5q23 0 38.5 -16t15.5 -39q0 -22 -15.5 -38.5t-38.5 -16.5q-22 0 -37.5 15t-17.5 36v0z" />
<glyph unicode="&#x2019;" horiz-adv-x="121" d="M115 689q1 -4 1 -7.5v-7.5q0 -27 -12.5 -51.5t-33.5 -41.5l-9 10q13 10 22.5 23.5t13.5 29.5q-7 -7 -16.5 -10.5t-20.5 -3.5q-22 0 -38 16.5t-16 38.5q0 23 16 39t38 16t38 -15t17 -36v0z" />
<glyph unicode="&#x201a;" horiz-adv-x="121" d="M115 59q1 -4 1 -7.5v-7.5q0 -27 -12.5 -51.5t-33.5 -40.5l-9 9q13 11 22.5 24.5t13.5 28.5q-7 -7 -16.5 -10.5t-20.5 -3.5q-22 0 -38 16.5t-16 38.5q0 23 16 39t38 16t38 -15t17 -36v0z" />
<glyph unicode="&#x201c;" horiz-adv-x="231" d="M6 633q-1 4 -1 7.5v7.5q0 27 12.5 52t33.5 41l9 -10q-13 -10 -22 -23.5t-14 -29.5q8 7 17 10.5t20 3.5q23 0 38.5 -16t15.5 -39q0 -22 -15.5 -38.5t-38.5 -16.5q-22 0 -37.5 15t-17.5 36v0zM116 633q-1 4 -1 7.5v7.5q0 27 12.5 52t33.5 41l9 -10q-13 -10 -22 -23.5 t-14 -29.5q8 7 17 10.5t20 3.5q23 0 38.5 -16t15.5 -39q0 -22 -15.5 -38.5t-38.5 -16.5q-22 0 -37.5 15t-17.5 36v0z" />
<glyph unicode="&#x201d;" horiz-adv-x="231" d="M112 689q1 -4 1 -7.5v-7.5q0 -27 -12.5 -51.5t-33.5 -41.5l-9 10q13 10 22.5 23.5t13.5 29.5q-7 -7 -16.5 -10.5t-20.5 -3.5q-22 0 -38 16.5t-16 38.5q0 23 16 39t38 16t38 -15t17 -36v0zM222 689q1 -4 1 -7.5v-7.5q0 -27 -12.5 -51.5t-33.5 -41.5l-9 10q13 10 22.5 23.5 t13.5 29.5q-7 -7 -16.5 -10.5t-20.5 -3.5q-22 0 -38 16.5t-16 38.5q0 23 16 39t38 16t38 -15t17 -36v0z" />
<glyph unicode="&#x201e;" horiz-adv-x="246" d="M115 59q1 -4 1 -7.5v-7.5q0 -27 -12.5 -51.5t-33.5 -40.5l-9 9q13 11 22.5 24.5t13.5 28.5q-7 -7 -16.5 -10.5t-20.5 -3.5q-22 0 -38 16.5t-16 38.5q0 23 16 39t38 16t38 -15t17 -36v0zM235 59q1 -4 1 -7.5v-7.5q0 -27 -12.5 -51.5t-33.5 -40.5l-9 9q13 11 22.5 24.5 t13.5 28.5q-7 -7 -16.5 -10.5t-20.5 -3.5q-22 0 -38 16.5t-16 38.5q0 23 16 39t38 16t38 -15t17 -36v0z" />
<glyph unicode="&#x2022;" horiz-adv-x="182" d="M173 353q0 -34 -24.5 -58.5t-58.5 -24.5t-58 24.5t-24 58.5t24 58t58 24t58.5 -24t24.5 -58v0z" />
<glyph unicode="&#x2026;" horiz-adv-x="419" d="M140 55q0 -22 -16 -38.5t-39 -16.5q-22 0 -38.5 16.5t-16.5 38.5q0 23 16.5 39t38.5 16q23 0 39 -16t16 -39v0zM270 55q0 -22 -16 -38.5t-39 -16.5q-22 0 -38.5 16.5t-16.5 38.5q0 23 16.5 39t38.5 16q23 0 39 -16t16 -39v0zM400 55q0 -22 -16 -38.5t-39 -16.5 q-22 0 -38.5 16.5t-16.5 38.5q0 23 16.5 39t38.5 16q23 0 39 -16t16 -39v0z" />
<glyph unicode="&#x202f;" horiz-adv-x="164" />
<glyph unicode="&#x2039;" horiz-adv-x="129" d="M118 298l-12 -12l-92 92l92 91l12 -12l-80 -79l80 -80v0z" />
<glyph unicode="&#x203a;" horiz-adv-x="129" d="M132 378l-92 -92l-12 12l80 80l-80 79l12 12l92 -91v0z" />
<glyph unicode="&#x205f;" horiz-adv-x="205" />
<glyph unicode="&#x2122;" />
<glyph unicode="&#xe000;" d="M0 0v0v0v0v0z" />
</font>
</defs>
</svg>
