<?xml version="1.0" standalone="no"?>
<!DOCTYPE svg PUBLIC "-//W3C//DTD SVG 1.1//EN" "http://www.w3.org/Graphics/SVG/1.1/DTD/svg11.dtd" >
<svg xmlns="http://www.w3.org/2000/svg">
<metadata></metadata>
<defs>
<font id="karatulaitalic" horiz-adv-x="624" >
<font-face units-per-em="1000" ascent="800" descent="-200" />
<missing-glyph horiz-adv-x="738" />
<glyph horiz-adv-x="1000" />
<glyph horiz-adv-x="1000" />
<glyph unicode="&#xd;" horiz-adv-x="738" />
<glyph unicode=" "  horiz-adv-x="738" />
<glyph unicode="&#x09;" horiz-adv-x="738" />
<glyph unicode="&#xa0;" horiz-adv-x="738" />
<glyph unicode="!" horiz-adv-x="392" d="M516 723q-1 -3 -9 -17.5t-9 -17.5l-146 -403q-6 -15 -26 -37q-24 -26 -40 -26q-23 0 -23 39q0 17 3 25l146 401q11 31 30 61q30 49 58 49q23 0 23 -33q0 -23 -7 -41zM290 78q-10 -28 -28 -46q-38 -38 -60 -66q-15 -19 -37 -19q-24 0 -24 36q0 20 6 35q11 31 57 80t68 49 q25 0 25 -32q0 -19 -7 -37z" />
<glyph unicode="&#x22;" horiz-adv-x="793" d="M651 709q-4 -12 -20 -36q-18 -27 -28 -35q-24 -14 -72 -49q-47 -44 -142 -128q-14 -12 -33 -12q-29 0 -29 44q0 26 7 45q21 57 124 141q1 1 56 53q38 35 76 58q15 8 34 8q34 0 34 -46q0 -24 -7 -43zM966 706q-4 -12 -20 -36q-18 -27 -28 -35q-24 -14 -72 -49 q-47 -44 -142 -128q-14 -12 -33 -12q-29 0 -29 44q0 26 7 45q21 57 124 141q1 1 56 53q38 35 77 58q14 8 34 8q33 0 33 -46q0 -24 -7 -43z" />
<glyph unicode="#" horiz-adv-x="840" d="M874 331q-21 -56 -54 -65q-29 -8 -90 -8q-23 -97 -49 -201q-8 -21 -24 -44q-25 -37 -49 -37q-12 0 -19 13t-5 25q10 31 26 91q12 66 31 139h-18q-15 0 -86 -18q-66 -17 -84 -24q-16 -50 -40 -140q1 -7 2 -18q-1 -21 -5 -33q-8 -21 -26 -42q-23 -27 -43 -27q-28 0 -28 40 q0 22 14 75q13 41 29 110q-28 -11 -76 -30q-7 -3 -30 -16q-13 -7 -23 -7q-23 0 -23 34q0 19 5 34q17 46 83 87q8 1 26 5q22 7 84 35q16 47 22 81q-24 -11 -60 -22q-20 -7 -38 -16q-12 -8 -24 -15q-15 -8 -27 -8q-25 0 -25 28q0 17 8 38q20 57 84 85q61 23 123 47 q20 82 43 170q8 23 25 44q23 28 44 28q23 0 23 -32q0 -11 -14 -67q-10 -38 -27 -116q93 26 158 31q43 156 52 181q7 20 24 42q23 30 45 30q24 0 24 -32q0 -6 -1 -12q-7 -27 -58 -203q78 -4 96 -9q40 -10 40 -42q0 -15 -8 -36.5t-26 -43.5q-24 -28 -45 -28q-3 0 -11.5 7 t-11.5 8q-12 6 -32 6h-31q-1 1 -4 -5q-4 -11 -7 -56l89 8q27 0 27 -35q0 -18 -5 -34zM671 380q3 20 15 71h-19q-25 0 -149 -33q-7 -28 -22 -76q54 15 175 38z" />
<glyph unicode="$" horiz-adv-x="794" d="M917 558q-22 -28 -42 -28q-3 0 -18.5 9t-22.5 12q-18 6 -48 6q-57 0 -115 -18q-15 -50 -45 -153q15 3 41 3q56 0 93 -20q45 -25 45 -76q0 -24 -11 -53q-16 -45 -66 -96q-57 -58 -115 -73l-34 -11q-13 -3 -41 -15q-3 -18 -26 -50q-28 -39 -52 -39t-24 39q0 19 6 33 q-21 -3 -47 -3q-57 0 -57 37q0 16 8.5 38.5t27.5 44.5q24 29 46 29q3 0 12.5 -4t13.5 -4q3 0 12 1t13 1q7 20 19 59q-32 -9 -93 -25q-76 -17 -117 -17q-78 0 -78 76q0 25 10 52q11 31 35 64q27 37 76 80q90 78 180 132q42 20 123 67q20 52 41 104q45 100 84 100q24 0 24 -38 q0 -17 -11 -42q-9 -20 -17 -38.5t-24 -52.5l113 9q113 0 113 -63q0 -16 -7 -35.5t-25 -41.5zM687 234q-4 3 -30.5 8.5t-39.5 5.5q-3 0 -15.5 -1.5t-17.5 -1.5q-13 -46 -17 -57q70 15 117 39q1 2 3 7zM533 370q11 35 39 132q-59 -28 -131 -77q-76 -51 -121 -96h42 q5 -1 171 41z" />
<glyph unicode="%" horiz-adv-x="942" d="M999 752q-8 -24 -20 -37q-15 -16 -153 -173q-92 -105 -169 -181.5t-233 -231.5q-36 -40 -105 -118q-11 -11 -28 -11q-24 0 -24 33q0 22 8 44q16 44 101 128q106 104 312 314q84 96 257 286q17 17 37 17q24 0 24 -33q0 -19 -7 -37zM944 199q-25 -68 -101 -144 q-89 -88 -164 -88t-75 89q0 48 20 102q16 46 60 113q62 97 108 97q4 0 16.5 -7t15.5 -7t20 3t21 3q90 0 90 -98q0 -32 -11 -63zM653 653q-28 -77 -120 -149q-94 -75 -174 -75q-68 0 -68 74q0 33 13 69q23 63 86 142q84 105 155 105q19 0 23 -4q3 -9 14 -23q12 -3 43 -15 q38 -19 38 -73q0 -10 -2 -18q-3 -13 -8 -33zM853 200q-10 17 -40 17q-4 0 -24 -4t-23 -4l-21 8q-27 -41 -33.5 -59.5t-6.5 -27.5q0 -20 25 -20q28 0 69.5 29.5t53.5 60.5zM550 642q-10 6 -26 6h-10q-7 -1 -11 -1q-25 0 -37 18q-62 -60 -70 -81l-3 -9q4 -3 21 -3 q29 0 67.5 20t68.5 50z" />
<glyph unicode="&#x26;" horiz-adv-x="718" d="M669 59q-8 -20 -25 -41q-22 -27 -42 -27q-28 0 -22 64q4 42 3 51q-69 -37 -101 -37q-36 0 -36 58q0 29 6 50q11 36 35 75q-19 -2 -64 -7q-41 -4 -43 -4q-128 0 -128 104q0 34 16 78q20 54 69 121q31 42 80 83q53 45 100 65q129 56 218 56q3 0 16 -1.5t15 -1.5 q5 0 33.5 45.5t53.5 45.5q22 0 22 -32q0 -20 -6 -38q-11 -18 -28 -51q-5 -16 -14.5 -44.5t-25.5 -53.5q-27 -41 -51 -41q-11 0 -17 13l-8 18q-5 6 -41 6q-67 0 -149 -32q-100 -40 -154 -108q-22 -28 -29 -47q-3 -8 -3 -14q0 -36 80 -36q42 0 117.5 17t76.5 17q27 0 27 -29 q0 -16 -8.5 -39t-35.5 -55q-36 -42 -54 -71q-2 -2 0 -6q10 2 43 19q27 14 38 14q39 0 45.5 -12t1.5 -56q-3 -28 -5 -55.5t-6 -60.5z" />
<glyph unicode="'" horiz-adv-x="441" d="M619 709q-4 -12 -20 -36q-18 -27 -28 -35q-24 -14 -72 -49q-47 -44 -142 -128q-14 -12 -33 -12q-29 0 -29 44q0 26 7 45q21 57 124 141q1 1 56 53q38 35 76 58q15 8 34 8q34 0 34 -46q0 -24 -7 -43z" />
<glyph unicode="(" horiz-adv-x="485" d="M421 73q-8 -23 -28 -46q-26 -29 -51 -29q-15 0 -22 16q-9 23 -12 26q-54 54 -54 147q0 36 10 93q5 29 28 95q10 28 60 134q33 66 122 167q108 124 166 124q25 0 25 -34q0 -17 -5 -31q-13 -35 -36 -51q-14 -7 -39 -19q-52 -34 -126 -128q-55 -73 -92 -172 q-18 -51 -18 -107q0 -79 43 -104q2 -7 9 -16q6 -1 18 -7q9 -8 9 -24q0 -15 -7 -34z" />
<glyph unicode=")" horiz-adv-x="493" d="M519 326q-42 -116 -105 -201q-31 -42 -67 -72q-25 -20 -64 -44q-45 -28 -61 -28q-22 0 -22 33q0 19 5.5 34t21.5 37q20 28 36 33q73 23 122 97q26 38 52 110q16 45 22 78q7 39 7 79q0 98 -38 162q-3 5 -15 11q-16 8 -20 11q-10 8 -11 31q0 18 6 33.5t24 37.5q23 30 44 30 q5 0 22.5 -11.5t28.5 -22.5q12 -14 22 -40q30 -88 30 -180q0 -107 -40 -218z" />
<glyph unicode="*" horiz-adv-x="708" d="M731 346q-6 -18 -24 -40q-23 -29 -44 -29q-13 0 -17 6q-42 61 -123 115l-2 -2l-3 -7q16 -5 16 -32q0 -18 -6 -36q-9 -25 -34 -50q-31 -31 -59 -31q-26 0 -26 38q0 22 8 56l10 32q-25 -23 -75 -76q-9 -14 -29 -44q-8 -12 -24.5 -22t-26.5 -10q-26 0 -26 34q0 21 7 39 q8 23 20 39q30 40 95 102l59 56q1 3 -19 27q-26 31 -32 39q-9 12 -5 38q1 14 5 24q6 18 25 39q23 28 43 28q8 0 15 -4q6 -10 22 -33q13 -16 44 -47q17 44 43 98q12 27 25 53q30 51 62 51q24 0 24 -35q0 -17 -5 -31q-13 -21 -34 -64q-7 -13 -18 -41q47 31 93 62q57 36 84 36 t27 -35q0 -17 -5 -32q-18 -50 -50 -64q-14 -3 -42 -15q-22 -11 -106 -69q38 -33 77 -67q36 -37 36 -69q0 -13 -5 -27z" />
<glyph unicode="+" horiz-adv-x="734" d="M747 374q-27 -36 -45 -36h-134q-9 -6 -15 -24q-8 -23 -11 -28q-16 -36 -32 -73q-37 -69 -73 -69q-28 0 -28 32q0 24 24 82q13 32 26 68q-5 2 -37 -2q-24 -2 -78 -12q-49 -9 -52 -9q-29 0 -29 40q0 23 7 42q9 24 31 50.5t40 29.5q59 8 178 29q16 47 33 93q31 73 72 73 q25 0 25 -39q0 -34 -29 -124h140q19 0 19 -35q0 -29 -5.5 -44.5t-26.5 -43.5z" />
<glyph unicode="," horiz-adv-x="550" d="M477 146q-9 -24 -27 -46q-34 -42 -92 -91q-76 -65 -182 -147q-13 -10 -27 -10q-25 0 -25 39q0 22 6 38q14 39 41 61q47 37 138 109q16 13 56 50q20 19 40 39q38 35 54 35q24 0 24 -37q0 -22 -6 -40z" />
<glyph unicode="-" d="M642 404q-8 -24 -28 -47q-23 -26 -44 -26q-3 0 -7 1.5t-8 1.5q-48 0 -147.5 -21.5t-98.5 -21.5q-38 0 -38 33q0 16 9 41q20 55 55 71q24 4 69 14q141 33 213 33q30 0 30 -46q0 -19 -5 -33z" />
<glyph unicode="." horiz-adv-x="422" d="M322 93q-8 -22 -20 -38q-16 -14 -47 -46q-39 -47 -65 -47t-26 32q0 20 8 43q4 10 16 34q5 6 54 57q10 11 36 31q16 10 28 10q23 0 23 -35q0 -23 -7 -41z" />
<glyph unicode="/" horiz-adv-x="792" d="M960 732q-2 -6 -15.5 -27t-17.5 -24q-57 -37 -120 -100q-50 -50 -100 -101q-14 -14 -78 -85q-69 -76 -211 -204q-29 -25 -88 -76q-33 -33 -67 -66q-61 -57 -77 -57q-22 0 -22 32q0 19 6 37q13 35 83 102q10 11 100 91q61 54 188 172q26 26 54 55q78 83 157 166 q149 150 188 150q25 0 25 -35q0 -17 -5 -30z" />
<glyph unicode="0" horiz-adv-x="537" d="M635 487q-31 -85 -108 -218q-82 -139 -132 -187q-28 -28 -57 -55q-43 -38 -70 -41t-23 -3q-64 0 -64 97q0 98 55 250q41 114 117 258q123 212 206 212q29 0 36.5 -16t35.5 -18q24 -2 36 -60q4 -18 4 -41q0 -80 -36 -178zM549 483q20 56 20 107q0 21 -4 36q-10 2 -17 2 q-17 0 -31.5 -9.5t-21.5 -9.5t-14.5 7t-5.5 12q-34 -42 -78 -127q-47 -90 -79 -178q-37 -103 -37 -166q0 -32 16 -32q35 0 111 102q20 27 67 108q55 97 74 148z" />
<glyph unicode="1" horiz-adv-x="450" d="M559 725q-25 -47 -70 -141q-5 -12 -47 -127q-38 -106 -57.5 -175t-42.5 -130q-25 -69 -31 -82q-36 -75 -73 -75q-24 0 -24 35q0 23 6 36q19 45 49 125q20 73 43 154l86 236l5 13q-5 5 -13 17q-5 18 7 52q8 22 22 41q11 17 54 53q50 43 69 43q24 0 24 -35q0 -22 -7 -40z " />
<glyph unicode="2" horiz-adv-x="722" d="M601 34q-25 -30 -47 -30q-3 0 -22 3t-28 4q-64 7 -108 7q-82 0 -135.5 -14t-71.5 -14q-29 0 -29 32q0 18 8 39q5 17 27 49q31 27 91 71q73 54 98 75q98 78 185 165q135 135 135 189q0 44 -83 44q-38 0 -84 -16q-51 -17 -79 -45q-4 -7 -12 -19q-16 -24 -37 -34 q-8 -4 -17 -4q-28 0 -28 40q0 22 6 39q29 81 140 137q93 48 164 48q135 0 135 -117q0 -41 -18 -89q-66 -181 -366 -428q41 -4 127 -10l36 -2q22 -2 38 -11q9 -5 9 -25q0 -23 -7 -42t-27 -42z" />
<glyph unicode="3" horiz-adv-x="643" d="M778 675q-25 -70 -129 -173q-29 -30 -182 -167q6 -2 22 -3q67 -6 67 -73q0 -23 -9 -48q-58 -160 -310 -203q-81 -13 -70 -13q-22 0 -22 32q0 18 5 30q18 52 46 59q50 10 167 36q37 9 94 49q-1 8 -40 8q-31 0 -44 -4q-23 -6 -75 -26q-47 -18 -49 -18q-21 0 -21 28 q0 18 6 35q14 38 65 83q51 39 150 120q105 92 124 110q83 76 122 127q-7 11 -59 11q-68 0 -164 -30t-97 -30q-22 0 -22 31q0 16 5 30q9 24 41.5 57t51.5 33q3 0 10 -4.5t9 -4.5t36 11q39 12 58 17q71 15 120 15q105 0 105 -73q0 -23 -11 -52z" />
<glyph unicode="4" horiz-adv-x="703" d="M668 124q-9 -11 -30 -23q-3 -26 -25 -66q-27 -51 -55 -51q-21 0 -21 31q0 28 18 76q1 4 0 9q-16 0 -53 3t-39 3h-244q-60 0 -60 48q0 14 6 31q11 29 61 88q37 42 75 84q60 67 185 220q47 64 70 101q11 17 30 48q8 14 17 28.5t23 24t25 9.5q21 0 21 -30q0 -20 -6 -39 q-5 -12 -50 -85q-58 -93 -149 -202q-40 -49 -169 -194q3 -4 8 -4h294l62 171q31 96 65 198q40 111 82 111q13 0 19 -15t3 -29q-1 -8 -7 -23q-43 -129 -89 -265l-52 -143q8 -7 18 -23q2 -24 -5.5 -46t-27.5 -46z" />
<glyph unicode="5" horiz-adv-x="656" d="M901 731q-25 -67 -79 -67q-3 0 -58.5 1t-58.5 1q-178 0 -248 -17l-81 -223q-7 -20 -32 -75l-2 -9q75 52 158 52q27 0 75 -13q44 -11 59 -30t15 -51q0 -28 -10 -57q-36 -96 -179 -178q-128 -72 -214 -72q-26 0 -31 3q-13 8 -13 32q0 20 7 38.5t25 40.5q22 27 41 27 q3 0 12 -5t12 -5q43 0 130 41t118 73q-32 22 -95 22q-53 0 -104 -28q-27 -15 -73 -52q-35 -28 -48 -28q-23 0 -23 28q0 26 20 74q11 23 21 46q11 31 46.5 124t77.5 209q-21 10 -21 34q0 13 8 35q16 45 49 63q9 1 31 7q11 9 33 22q4 1 8 1q2 0 11.5 -5t14.5 -5h7 q75 15 253 15q37 0 81 -2q20 0 52 -7q11 -4 11 -26q0 -19 -6 -34z" />
<glyph unicode="6" horiz-adv-x="714" d="M760 319q-42 -115 -205 -222q-150 -98 -245 -98q-55 0 -92 30q-43 34 -43 94q0 11 2 22q4 33 19 75q26 71 76 148q36 47 112 148q42 56 138 153q126 128 167 128q30 0 30 -34q0 -17 -6.5 -34.5t-21.5 -36.5q-20 -25 -37 -25q-3 0 -4.5 1t-4.5 1q-10 0 -58 -44 q-40 -37 -59 -59q-120 -138 -140 -164q-92 -115 -117 -183q-5 -14 -7 -32q0 -8 19 -38h6q5 21 25 40q80 80 201 158q136 87 202 87q55 0 55 -56q0 -26 -12 -59zM676 311q-51 -3 -153 -68q-83 -52 -161 -118h16q43 0 161 71.5t137 114.5z" />
<glyph unicode="7" horiz-adv-x="620" d="M832 645q-20 -57 -116 -173q-47 -54 -94 -109q1 -5 2 -14q-1 -12 -8 -32q-24 -65 -63 -65q-3 0 -11 4.5t-12 5.5q-71 -64 -210 -195q-14 -19 -29 -39q-28 -36 -48 -36q-21 0 -21 30q0 18 6 35q29 78 166 188q-8 3 -41 -7q-36 -11 -45 -11q-24 0 -24 28q0 17 7 36.5 t12 27.5q10 17 27 29q2 1 39 12q65 19 126 29q12 2 46 3q90 99 101 112q66 75 107 132q-2 3 -5 5q-60 29 -136 29q-132 0 -217 -47q-10 -6 -26 -6q-23 0 -23 30q0 19 6 35q15 40 35 52q111 66 274 66q12 0 99.5 -14.5t87.5 -84.5q0 -26 -12 -56z" />
<glyph unicode="8" horiz-adv-x="643" d="M823 674q-17 -47 -168.5 -191.5l-151.5 -144.5l5 -24q6 -29 6 -55q0 -41 -16 -84q-21 -57 -72 -112q-65 -70 -128 -70q-66 0 -66 83q0 35 11 65q19 52 127 179q-71 76 -73 79q-34 42 -34 83q0 83 99 169q56 48 153 96q104 50 156 50q53 0 53 -40q0 -16 -9 -39 q-23 -64 -61 -64q-3 0 -14.5 8.5t-14.5 8.5q-18 0 -48 -11q-92 -33 -182 -93q-32 -21 -36 -31q-2 -6 104 -120q78 71 242 227q24 28 69 77q18 18 33 18q21 0 21 -31q0 -19 -5 -33zM419 177q10 26 -7 71q-11 -10 -45 -48q-40 -46 -44 -58q-4 -9 4 -15t18 -6q18 0 42.5 18 t31.5 38z" />
<glyph unicode="9" horiz-adv-x="747" d="M891 623q-13 -35 -105 -189q-15 -34 -46 -101l-81 -166q-16 -46 -55 -132q-22 -41 -52 -41q-21 0 -21 31t21 87q2 6 72 160q-175 -130 -295 -130q-114 0 -114 106q0 35 15 76q44 121 180 257q148 148 295 196q72 23 96 23q31 0 57 -10q36 -13 36 -39q0 -7 -2 -19t-2 -16 t1 -7q9 -18 9 -39q0 -22 -9 -47zM804 646q-3 4 -8 10q-26 6 -43 6q-48 0 -142 -46q-99 -49 -143 -100q-13 -12 -35.5 -34t-58.5 -64l-36 -48q-24 -35 -24 -53q0 -20 23 -31q18 -9 41 -9q74 0 194.5 76t161.5 147q3 6 70 146z" />
<glyph unicode=":" horiz-adv-x="338" d="M262 93q-8 -22 -21 -38q-16 -14 -46 -46q-40 -47 -66 -47q-25 0 -25 32q0 20 8 43q3 10 16 34q4 6 54 57q10 11 36 31q15 10 27 10q24 0 24 -35q0 -23 -7 -41zM382 410q-8 -22 -21 -38q-16 -14 -47 -46q-39 -47 -65 -47q-25 0 -25 32q0 20 8 43q3 10 16 34q4 6 54 57 q10 11 35 31q16 10 28 10q24 0 24 -35q0 -22 -7 -41z" />
<glyph unicode=";" horiz-adv-x="460" d="M437 146q-9 -24 -27 -46q-34 -42 -92 -91q-76 -65 -182 -147q-13 -10 -27 -10q-25 0 -25 39q0 22 6 38q14 39 41 61q47 37 138 109q16 13 56 50q20 19 40 39q38 35 54 35q24 0 24 -37q0 -22 -6 -40zM517 536q-8 -22 -20 -38q-16 -14 -47 -46q-39 -47 -65 -47t-26 32 q0 21 8 43q3 10 16 34q5 6 54 58q10 10 36 31q16 10 28 10q23 0 23 -36q0 -22 -7 -41z" />
<glyph unicode="&#x3c;" horiz-adv-x="657" d="M594 65q-8 -21 -25 -42q-23 -28 -44 -28q-9 0 -29 20q-31 32 -32 32q-24 23 -93 83q-18 20 -56 60q-4 4 -53 43q-35 27 -46 52q-7 19 4.5 51t33.5 53q34 26 106 83q29 23 80 65q67 56 173 132l176 124q10 7 20 7q22 0 22 -33q0 -21 -6 -37q-18 -51 -89 -95 q-113 -72 -376 -282q-1 -3 5 -9q59 -56 175 -166q37 -34 44 -43q16 -19 16 -39q0 -14 -6 -31z" />
<glyph unicode="=" horiz-adv-x="589" d="M673 554q-9 -24 -29 -47q-23 -26 -44 -26q-3 0 -7 1.5t-7 1.5q-48 0 -148 -21.5t-99 -21.5q-38 0 -38 33q0 16 10 41q20 55 55 71q24 4 68 14q142 33 213 33q31 0 31 -46q0 -19 -5 -33zM585 306q-9 -24 -29 -47q-23 -26 -44 -26q-3 0 -7 1.5t-8 1.5q-48 0 -147.5 -22 t-98.5 -22q-38 0 -38 34q0 16 9 41q20 55 55 71q24 4 69 13q141 34 213 34q30 0 30 -46q0 -19 -4 -33z" />
<glyph unicode="&#x3e;" horiz-adv-x="669" d="M699 371q-57 -49 -256 -198q-46 -35 -116 -79q-20 -13 -88 -51q-77 -44 -85 -44q-22 0 -22 35q0 20 5 34t21 36q19 26 34 33q168 81 402 272q-75 87 -218 268q-12 16 2 55q7 18 24 39q23 29 45 29q14 0 23 -12q70 -85 208 -257q20 -21 39 -42q16 -18 16 -36 q0 -15 -7 -34.5t-27 -47.5z" />
<glyph unicode="?" horiz-adv-x="808" d="M976 698q-18 -48 -57 -80q-48 -41 -213 -157q-168 -117 -212 -153q24 -7 24 -39q0 -16 -5 -30q-8 -22 -25 -41q-22 -24 -44 -24q-34 0 -58.5 15.5t-24.5 46.5q0 19 9 45q17 45 54 82q57 55 197 154q118 83 235 166q-3 4 -33.5 9.5t-49.5 5.5q-63 0 -145 -23 q-96 -27 -165 -72q-13 -7 -39 -23q-17 -16 -55 -45q-13 -9 -30 -9q-27 0 -27 34q0 18 6 34q9 25 24 41q45 49 205 131q71 37 169 55q46 9 100 9q168 0 168 -91q0 -19 -8 -41zM520 95q-24 -66 -122 -106q-4 -2 -21 -14q-13 -9 -24 -9q-23 0 -23 29q0 18 7 39q13 34 41 56 q24 20 80 45q0 1 21 15q16 11 25 11q21 0 21 -33q0 -19 -5 -33z" />
<glyph unicode="@" horiz-adv-x="1044" d="M1099 463q-23 -62 -64 -115q-54 -70 -118 -90q-50 -17 -70 -17q-24 0 -47 13.5t-31 35.5q-49 -49 -112 -89q-71 -45 -112 -45q-65 0 -65 78q0 43 17 92q24 64 60 114q52 73 114 121q69 55 123 55q44 0 75 -24t31 -65q0 -40 -29 -87q-11 -18 -2 -36q7 -14 32 -14 q21 0 51 12q37 15 46 38q3 8 9 23q13 35 13 66q0 69 -55 113q-51 39 -118 39q-106 0 -213 -47q-131 -58 -217 -172q-59 -78 -74 -119.5t-15 -75.5q0 -84 85 -125q66 -32 157 -32q61 0 133 20q44 12 106 37q50 20 58 20q24 0 24 -31q0 -21 -8 -43q-4 -11 -9 -21.5t-28 -35.5 q-7 -8 -35 -18q-5 -3 -63 -26q-73 -30 -141 -41q-38 -7 -90 -7q-138 0 -216 57t-78 167q0 69 31 154t120 204q106 145 265 220q134 64 265 64q44 0 101 -25q118 -52 118 -206q0 -69 -24 -136zM784 455q-3 3 -20.5 9t-23.5 6q-36 0 -98.5 -65.5t-58.5 -94.5q6 -9 15 -9 q29 0 104 59q79 61 82 95z" />
<glyph unicode="A" horiz-adv-x="847" d="M805 102q-7 -19 -22 -39q-22 -29 -42 -29q-12 0 -16 15l-4 22q-24 2 -114 3q-44 -1 -89 -2q-38 -2 -117 -11q-38 -5 -177 -17q-16 -19 -31 -37q-22 -22 -41 -22q-23 0 -23 28q0 16 7 37q10 27 38 67q26 35 52 71q69 95 264 324q71 86 222 255q15 16 47 29q3 1 9 1 q21 0 26 -34q0 -1 1 -42q1 -29 -2 -73q-5 -62 -5 -72q-4 -83 1 -150q3 -42 24 -279q2 -19 -8 -45zM710 199q-14 227 -14 261q0 38 4 97q5 82 5 88q-239 -271 -396 -470q46 6 220 20q92 5 181 4z" />
<glyph unicode="B" horiz-adv-x="708" d="M744 209q-17 -45 -62 -84q-159 -136 -383 -136q-77 0 -151 11q-8 1 -9 13q-3 28 3 49q73 219 165 452q11 23 24 52q2 3 -1.5 10.5t-3.5 8.5q-3 16 8 46q9 26 23 41q5 6 37 32q5 6 13 18q20 22 38 22q3 0 7.5 -2.5t8.5 -2.5q-4 0 50 20q111 41 203 41q24 0 61 -6.5 t48 -13.5q67 -42 67 -114q0 -27 -10 -55q-23 -63 -95 -121q-42 -35 -173 -117l6 -3q59 -12 94 -42q40 -32 40 -77q0 -20 -8 -42zM786 610q-4 26 -49 42q-36 12 -76 12q-35 0 -103 -17q-64 -16 -96 -30q-12 -4 -29 -15q-17 -25 -37 -77l-76 -204q321 177 466 289zM630 203 q-36 33 -98 33q-58 0 -136 -19.5t-129 -47.5l-15 -42h57.5h38.5q141 0 230 43q26 13 52 33z" />
<glyph unicode="C" horiz-adv-x="765" d="M752 180q-21 -57 -74 -98q-41 -32 -140 -80q-47 -22 -119 -22q-115 0 -179 66q-61 62 -61 163q0 62 24 128q25 71 99 172q100 138 220.5 213t241.5 75q19 0 86 -15.5t67 -93.5q0 -33 -13 -67q-6 -17 -56 -99q-20 -33 -83 -78t-89 -45q-28 0 -28 41q0 19 5 32q17 47 50 64 q8 2 21 5q20 5 53 31.5t39 43.5q7 19 -44 33q-37 10 -56 10q-98 0 -204 -67q-94 -60 -158 -149q-22 -31 -45 -62q-8 -13 -20 -44q-12 -34 -12 -65q0 -72 66 -115q57 -37 129 -37q104 0 208 87q8 12 31 37q11 9 26 9q23 0 23 -31q0 -21 -8 -42z" />
<glyph unicode="D" horiz-adv-x="680" d="M846 476q-42 -116 -159 -232q-126 -124 -284 -193q-39 -19 -115 -49q-61 -19 -102 -19q-38 0 -38 33q0 26 22 69q12 21 28 81l24 84q78 247 85 264l35 97q-21 2 -21 32q0 20 7 38q12 33 40 58q11 4 34 18q4 4 12 13q22 19 35 19q3 0 9.5 -5t8.5 -5q1 0 29 7q57 14 121 14 q114 0 182 -53q70 -56 70 -153q0 -55 -23 -118zM764 474q10 27 10 51q0 69 -78 109q-61 31 -130 31q-44 0 -127 -19l-56 -153q-25 -65 -115 -370q103 21 239 102q154 91 219 188q33 49 38 61z" />
<glyph unicode="E" horiz-adv-x="757" d="M764 165q-19 -51 -51 -65q-129 -56 -162 -69q-101 -37 -154 -37q-178 0 -178 168q0 73 34 181q7 23 55 154l46 125q-10 5 -10 26t7 40.5t28 45.5q12 8 31 25q35 41 54 41q3 0 13 -8t13 -8t32.5 5.5t41.5 6.5q41 4 83 4q106 0 211 -17q17 -3 17 -33q0 -20 -5 -35 q-25 -69 -85 -69q-1 0 -37 4.5t-55 5.5q-87 4 -97 4q-61 0 -89 -5q-19 -1 -60 -14q-18 -40 -51 -132q-17 -45 -46 -136q1 -7 25 -7q39 0 172 22q17 3 69 14q46 9 49 9q25 0 25 -30q0 -19 -7 -40q-20 -53 -52 -66q-12 -5 -88 -18q-42 -7 -227 -34q11 -89 128 -89q80 0 241 78 q10 10 31 28q10 7 21 7q31 0 31 -50q0 -20 -4 -32z" />
<glyph unicode="F" horiz-adv-x="598" d="M822 643q-22 -30 -45 -30q-3 0 -11 6t-12 6q-40 9 -85 9q-151 0 -271 -42l-39 -108q-13 -47 -42 -142q1 0 2 -1t5 -1q-7 0 96 29.5t185 29.5q61 0 61 -28q0 -14 -9 -41q-22 -59 -58 -68q-18 -1 -58 -3q-111 -5 -241 -56l-2 -19.5t-1 -29.5q2 -14 9 -14q4 0 5.5 1t5.5 1 q23 0 23 -32q0 -20 -7 -38q-8 -22 -31 -51q-28 -35 -49 -35q-22 0 -39 35q-8 15 -17 47q0 -6 5 84q7 158 90 385q0 2 46 120q55 140 101 140q22 0 22 -38q0 -11 -3 -18q0 -1 3 -4q117 35 258 35q38 0 54 -2q24 -1 68 -12q13 -6 13 -30q0 -21 -8 -42t-24 -43z" />
<glyph unicode="G" horiz-adv-x="824" d="M817 219q-20 -53 -78 -91q-33 -21 -127 -60q-84 -36 -117 -47q-68 -24 -123 -29q-19 -2 -42 -2q-42 0 -57 3q-33 5 -53 25q-46 46 -46 132q0 64 25 133t90 161q112 161 289 263q163 93 298 93q87 0 87 -51q0 -15 -7.5 -34.5t-23.5 -38.5q-20 -25 -38 -25q-6 0 -13 8 t-11 11t-37 3q-111 0 -237 -65q-140 -72 -242 -199q-56 -70 -77 -127q-15 -40 -15 -73q0 -94 112 -94q97 0 266 77q-28 2 -73 -3q-72 -9 -76 -9q-12 -1 -48 -8.5t-38 -7.5q-24 0 -24 31q0 16 5 31q16 42 44 59q21 12 121 23q89 10 146 10q55 0 80 -7q47 -13 47 -55 q0 -16 -7 -37z" />
<glyph unicode="H" horiz-adv-x="764" d="M723 84q-7 -20 -24 -41q-22 -27 -43 -27q-29 0 -25 35q3 28 17 70l24 72q-49 5 -93 5q-63 0 -156 -16q-99 -17 -130 -38q-5 -32 -26 -78q-30 -66 -64 -66q-24 0 -24 31q0 19 11 54q14 44 16 54q22 114 56 227q68 232 109 345q32 89 73 89q20 0 20 -30q0 -29 -23 -94 q-6 -19 -47 -146q-30 -90 -73 -249q11 -1 40 9q40 14 76 22q95 19 193 19q40 0 81 -3q9 12 48 132q32 118 67 242q25 69 64 69q23 0 23 -27q0 -29 -12 -75q-40 -158 -62 -216l-45 -126q-1 -3 -35 -121.5t-36 -121.5z" />
<glyph unicode="I" horiz-adv-x="673" d="M601 62q-22 -28 -41 -28q-3 0 -38 5t-39 5q-101 0 -225 -16q-18 -3 -64 -17t-48 -14q-26 0 -26 30q0 18 8 39t9 24q6 12 20.5 25.5t45.5 23.5q20 6 41 11q14 5 118 21q-3 -2 38 106q40 94 121 282l29 86q-102 -27 -93 -27q-25 0 -25 34q0 18 6 33q13 36 40 59q5 4 55 19 q106 34 195 34q30 0 36 -1q13 -2 13 -33q0 -20 -4 -33q-26 -70 -90 -70h-17q-15 1 -24 1q-34 -94 -103 -260q-37 -85 -77 -176q0 -2 -6 -20.5t-9 -28.5q43 3 79 3q52 0 66 -3q40 -9 40 -42q0 -14 -6.5 -32.5t-24.5 -39.5z" />
<glyph unicode="J" horiz-adv-x="875" d="M1062 730q-23 -63 -59 -70l-90 -6q-2 -5 1 -15q16 -51 16 -114q0 -106 -44 -226q-30 -84 -102 -157q-84 -86 -189 -116q-96 -28 -142 -30q-47 -1 -85 11q-16 5 -66 28q-44 21 -122 108q-21 23 -21 39q0 14 7 33q12 34 36.5 57t53.5 23q7 0 14 -1q13 -3 30 -21 q17 -24 61 -65l42 -40q38 -28 99 -28q76 0 162 39q108 48 137 128q26 72 26 137q0 75 -40 201q-32 -4 -112 -19q-74 -14 -77 -14q-28 0 -28 35q0 19 8 41.5t25 43.5q24 29 48 29q3 0 9 -1t10 -1q-4 0 61 12q58 12 102 17q108 12 182 12q35 0 38 -1q18 -6 18 -30 q0 -17 -9 -39z" />
<glyph unicode="K" horiz-adv-x="770" d="M711 61q-26 -71 -71 -71q-5 0 -36 15q-47 24 -127.5 41t-141.5 17q14 0 -132 -7q-33 -58 -66 -58q-22 0 -22 30q0 25 22 84q1 4 83 206.5t83 205.5q33 90 47.5 144.5t14.5 55.5q7 20 24 42q23 28 42 28q11 0 19 -10t7 -20q-7 -61 -31 -133q0 -1 -43 -118 q-22 -61 -72 -190q-19 -41 -41 -89l-9 -26h2q55 52 159 148q87 77 254 231q23 22 81 90q105 120 139 120q23 0 23 -31q0 -19 -6 -38q-11 -29 -34 -52q-32 -31 -65 -63q-33 -39 -116 -128q-32 -32 -308 -281q182 -9 317 -76q17 -9 11 -44q-1 -6 -7 -23z" />
<glyph unicode="L" horiz-adv-x="793" d="M840 152q-20 -26 -36 -28q-19 -1 -57 -7q-54 -9 -201 -54q-56 -20 -113 -40q-94 -30 -140 -30q-31 0 -59 18q-36 24 -34 66q12 186 134 521q36 98 39 106q43 94 82 94q23 0 23 -34q0 -18 -13 -46l-22 -44q-16 -40 -40 -115q-11 -30 -31 -91q-7 -20 -18 -58 q-5 -14 -14 -44q-6 -22 -32 -139q-13 -57 -10 -75q3 -23 46 -23q36 0 106 22l98 34q212 72 287 72q35 0 35 -33q0 -14 -6.5 -32.5t-23.5 -39.5z" />
<glyph unicode="M" horiz-adv-x="890" d="M1026 758q13 16 32 16q23 0 23 -33q0 -21 -7 -40q-2 -3 -40.5 -95t-39.5 -95q-33 -92 -68 -210q-20 -67 -43 -181l-14 -36q-6 -18 -25 -43q-25 -32 -45 -32t-20 31q0 26 14 73q7 22 15 44q23 98 48 176.5t50 158.5q-83 -99 -167 -197q-100 -119 -146 -198q-6 -13 -19 -38 q-6 -12 -24 -29q-22 -21 -35 -21q-22 0 -22 32q0 5 10 54q5 24 -13 59q-2 3 -41 93q-50 114 -64 250q-14 -43 -30 -91l-71 -196q-1 -3 -23 -76.5t-23 -76.5q-24 -68 -64 -68q-21 0 -22 26q0 15 13 68.5t24 83.5l64 177q1 3 58.5 178.5t58.5 178.5q35 96 79 96q30 0 28 -24 q-1 -13 -3 -33q0 -6 -1 -21v-23q1 -129 44 -294q21 -77 74 -168q36 41 215 254q74 92 220 270z" />
<glyph unicode="N" horiz-adv-x="788" d="M741 96q-9 -23 -26 -43q-23 -25 -47 -25q-23 0 -25 27q0 23 1 45q-8 4 -23 13q-70 66 -142 176q-78 120 -94 199q-4 -4 -8 -19q-51 -192 -100 -363q-3 -15 -7 -37q-7 -19 -26 -43q-23 -29 -43 -29q-4 0 -12 5.5t-9.5 12.5t-1.5 15q0 14 21 89l68 242q36 138 102 360 q6 19 23 41q23 30 44 30q12 0 19 -12.5t5 -24.5q-3 -10 -6 -26q1 2 2 -30q4 -21 9 -62q15 -162 208 -375q21 58 45 154q33 133 58 218q11 45 24 98q6 18 21 38q22 30 42 30q21 0 21 -38q0 -21 -3.5 -36.5t-9.5 -42.5q-17 -65 -32 -116q-8 -30 -21.5 -80t-56.5 -211 q-5 -16 -23 -110q-1 -6 7 -20q2 -4 0 -22q-1 -19 -4 -28z" />
<glyph unicode="O" horiz-adv-x="824" d="M938 515q-21 -56 -55 -113q-109 -179 -256 -270q-73 -45 -158 -84q-116 -54 -172 -54q-117 0 -117 131q0 61 23 126q59 160 218.5 322.5t297.5 204.5q74 22 105 22q20 0 35 -9q9 -5 10.5 -16t2.5 -20q96 -6 96 -103q0 -54 -30 -137zM857 518q17 46 17 64q0 40 -50 40 q-30 0 -87 -11q-73 -14 -61 -14q-13 0 -19 12q-2 10 -8 26q-117 -58 -228 -179q-102 -111 -136 -204q-13 -36 -13 -63q0 -63 73 -63q40 0 147 48q123 54 214 133q109 96 151 211z" />
<glyph unicode="P" horiz-adv-x="712" d="M906 553q-10 -30 -54 -96q-25 -37 -134 -111q-89 -61 -197 -110q-98 -43 -195 -85q-3 -6 -13 -37t-20 -63q-26 -59 -62 -59q-26 0 -23 33q3 37 22 97q130 428 128 428t-9 -2.5t-10 -2.5q-32 0 -32 40q0 17 6 34q18 48 67 78q11 5 35 19q3 13 22 43q27 41 52 41 q12 0 18 -15t6 -28q91 32 169 32q89 0 157 -39q81 -46 81 -128q0 -33 -14 -69zM821 558q0 25 -52 56q-45 27 -64 29l-73 7q-74 0 -167 -36q-35 -122 -96 -316q11 2 28 6q220 90 339 173q85 60 85 81z" />
<glyph unicode="Q" horiz-adv-x="811" d="M807 131q-24 -66 -64 -66q-3 0 -56 28q-64 34 -90 46q-84 -66 -173 -106t-153 -40q-111 0 -111 113q0 58 28 136q14 39 21 53q12 27 52 96q21 36 96 125q97 113 183 185q115 95 188 95q28 0 42 -28q42 -2 59 -6q33 -9 47 -32q22 -39 14 -117q-5 -44 -28 -106 q-49 -136 -153 -259q36 -18 99 -57q7 -5 8 -28q0 -9 -9 -32zM783 508q11 29 14 64q3 37 -6 46q-16 17 -62 17q-50 0 -106 -24.5t-55 -24.5q-4 0 -10.5 4t-8.5 4q-13 0 -101 -96q-75 -83 -96 -110q-32 -42 -55 -82q-16 -26 -29.5 -63t-13.5 -63q0 -57 63 -57q51 0 152 48 q-11 1 -37 0q-31 -2 -27 -2q-29 0 -29 33q0 15 6 33q17 46 47 60q21 10 68 10q55 0 134 -23q49 45 94 114q40 62 58 112z" />
<glyph unicode="R" horiz-adv-x="649" d="M676 112q-24 -66 -66 -66q-10 0 -137.5 51t-165.5 51q-8 0 -42 -7q-14 -3 -31 -11q-5 -26 -20 -73q-31 -61 -65 -61q-22 0 -23 32q0 58 45 182l100 275q1 3 21.5 74t22.5 75q5 14 14 27l38 84q36 72 70 72q16 0 20 -24q3 -18 -1 -36q93 42 173 42q84 0 148 -45 q67 -48 67 -118q0 -25 -9 -51q-29 -80 -143 -170q-71 -55 -235 -155q51 -19 137 -54q32 -12 65 -24q25 -11 25 -33q0 -14 -8 -37zM744 580q4 10 -29 36q-27 22 -42 30q-18 8 -38 13q-24 6 -53 6q-49 0 -108 -20q-43 -15 -53 -25q-5 -8 -16 -24q-9 -8 -22 -21q-1 -2 -6 -15 q-17 -54 -100 -283q271 146 416 257q47 36 51 46z" />
<glyph unicode="S" horiz-adv-x="734" d="M960 617q-29 -80 -71 -80q-24 0 -24 29q0 12 5 31.5l5 19.5q0 24 -32 36q-24 9 -52 9q-117 0 -302 -159q-167 -145 -217 -251q10 -7 37 -7q35 0 109 31q125 54 141 59q89 32 158 32q22 0 31 -1q38 -4 38 -55q0 -27 -9 -53q-19 -52 -68 -103q-56 -58 -154 -114t-146 -56 q-26 0 -26 32q0 19 6.5 38t23.5 40q23 30 46 30q3 0 3.5 -1t3.5 -1q15 0 68 27q45 22 59 31q31 22 67 49q-76 0 -214.5 -61.5t-187.5 -61.5q-85 0 -85 74q0 30 14 69q22 61 110 175q106 135 261 249q173 126 283 126q64 0 98.5 -30.5t34.5 -82.5q0 -33 -14 -70z" />
<glyph unicode="T" horiz-adv-x="758" d="M1093 728q-21 -60 -58 -69q-19 -1 -51 -4q-90 -10 -267 -34l-90 -247q-18 -72 -52 -190l-45 -129q-7 -21 -25 -43q-23 -28 -45 -28q-24 0 -24 38q0 14 3 21l38 103q5 21 16 57q13 48 40 142q12 40 39 109l56 153q-44 0 -136 -15t-122 -15q-43 0 -43 32q0 14 9 39 q14 39 39 55.5t75 16.5q-3 0 135 19q128 18 390 48q111 13 98 13q28 0 28 -33q0 -19 -8 -39z" />
<glyph unicode="U" horiz-adv-x="812" d="M807 154q-5 -13 -24 -44q-11 -29 -23 -57q-28 -55 -62 -55q-28 0 -24 54q-34 -10 -58 -14q-2 0 -157 -18q-42 -7 -83 -14q-66 -11 -103 -11q-102 0 -102 88q0 59 26 149q39 142 118 359q36 99 64 159q7 15 26 31t35 16q25 0 25 -39q0 -19 -5 -31q-8 -17 -20 -45 q-32 -80 -46 -122q-16 -53 -52 -160q-32 -90 -38 -112q-21 -66 -27 -123q-1 -11 11.5 -16.5t44.5 -5.5q14 0 140 19q61 6 122 13q72 8 125 27q28 108 92 323q25 79 65 187q28 77 73 77q26 0 26 -42q0 -13 -3 -19l-54 -149q-6 -18 -41 -135q-44 -145 -62 -220q0 -24 -9 -70z " />
<glyph unicode="V" horiz-adv-x="672" d="M936 729q-13 -35 -66 -83q-59 -54 -69 -72q-5 -6 -15 -16q-95 -116 -150 -189q-69 -93 -139 -186q-146 -185 -193 -185q-27 0 -39 62q-6 35 -6 66l-3 132q1 35 5 190q4 116 1 190q-1 21 6.5 42t23.5 40q22 26 43 26q24 0 29 -21q2 -9 -1 -28l-4 -32q0 -86 -4 -206 q-4 -113 -4 -156q0 -84 9 -157q49 49 144 175q148 198 169 224q97 121 193 214q38 37 54 37q22 0 22 -33q0 -19 -6 -34z" />
<glyph unicode="W" horiz-adv-x="899" d="M200 85q7 28 23 102q22 107 43 228q9 65 18 129q18 119 33 159q6 17 24 39q22 28 40 28q7 0 14.5 -9.5t6.5 -18.5q0 -1 -21 -102q-8 -61 -25 -174q-17 -93 -53 -283q86 144 134 213q120 174 280 351q43 48 67 48q23 0 23 -29q0 -17 -13 -48q-16 -36 -19 -49 q-9 -40 -15 -163q-1 -18 7 -120q8 -92 20 -163q21 32 126 202q77 123 128 193q18 25 72 101q55 81 83 81q22 0 22 -28q0 -18 -6 -36q-8 -22 -15 -30q-71 -90 -167.5 -232t-198.5 -320q-16 -33 -32 -67q-32 -55 -60 -55q-16 0 -29 15q-5 7 -6 28q-1 34 -6 59q-28 170 -28 289 q0 74 9 160h-2q-160 -179 -306 -426q-13 -21 -35 -65q-7 -18 -25 -57q-24 -45 -60 -45q-9 0 -17 4q-38 18 -38 59q0 14 4 32z" />
<glyph unicode="X" horiz-adv-x="804" d="M984 686q-22 -27 -41 -27q-3 0 -4 1t-4 1q-23 0 -176 -141q-147 -135 -150 -144q-1 -3 5 -12q9 -13 11 -17q21 -43 42 -85q22 -50 22 -85q0 -19 -6 -34q-7 -21 -25 -44q-23 -30 -43 -30q-14 0 -19 11l-8 40q-16 62 -76 159q-145 -136 -201 -211q-6 -13 -20 -37 q-38 -48 -65 -48q-21 0 -21 33q0 20 6 36q8 23 30 53q45 60 90 110q65 66 133 137q0 1 -17 29q-51 84 -123 244q-17 38 -4 73q8 22 25 41q22 24 42 24q37 0 39 -29q-1 -14 0 -34q13 -39 66 -132q42 -75 70 -116q15 12 68 65q74 73 158 147q154 136 196 136q30 0 30 -40 q0 -18 -6 -35.5t-24 -38.5z" />
<glyph unicode="Y" horiz-adv-x="773" d="M1020 727q-11 -30 -48 -77q-69 -87 -70 -88q-35 -49 -83 -106q-114 -131 -339 -391q-13 -21 -26 -41q-27 -36 -50 -36q-24 0 -24 30q0 19 8 40q11 32 30 59t68 84q46 52 47 55t-60 99q-73 117 -94 152q-26 46 -73 154q-10 22 4 58q6 18 24 40q23 29 45 29q17 0 22 -17 q22 -65 96 -191l130 -216q120 127 208 242q41 56 138 175q13 15 32 15q23 0 23 -29q0 -18 -8 -40z" />
<glyph unicode="Z" horiz-adv-x="906" d="M870 64q-24 -28 -46 -28q-3 0 -21.5 10t-28.5 13q-4 1 -59 1t-108 -5q-103 -10 -342 -41q-18 -2 -73 -13q-48 -9 -56 -9q-33 0 -33 37q0 19 9 41q21 59 70 87q259 144 465 333q61 56 164 156q-10 2 -51 2q-4 0 -130 -7.5t-129 -7.5q-37 0 -37 36q0 17 8 42q27 74 78 79 q99 10 282 10q100 0 142 -4q11 -1 29 -12q11 -7 11 -31q0 -23 -7 -44q-17 -44 -44 -66q-82 -66 -254 -227q-146 -137 -277 -232q4 -3 19 -1q82 10 165 21q61 8 143 8q71 0 95 -6q53 -12 53 -56q0 -17 -8.5 -40t-28.5 -46z" />
<glyph unicode="[" horiz-adv-x="524" d="M450 113q-9 -26 -12 -32q-12 -19 -36 -32q-25 -7 -77 -26q-61 -27 -107 -27q-30 0 -31 1q-21 10 -21 37q0 21 13 56l20 54q28 91 92 267q11 32 89 237q57 150 222 150q42 0 42 -33q0 -15 -8 -37q-17 -48 -46 -62q-13 -7 -56.5 -9.5t-71.5 -19.5q-102 -268 -162 -447 q-10 -28 -16 -56q148 49 151 49q22 0 22 -30q0 -21 -7 -40z" />
<glyph unicode="\" horiz-adv-x="717" d="M592 18q-23 -30 -43 -30q-18 0 -21 16q-4 38 -17 112q-32 98 -65 195q-49 153 -58 251q-2 28 -9 75q-6 37 -6 54q0 21 6 37.5t24 39.5q24 32 45 32q5 0 13 -6t9 -11q4 -36 13 -109.5t15 -102.5q14 -59 40 -151l48 -138q37 -113 37 -176q0 -28 -7 -47t-24 -41z" />
<glyph unicode="]" horiz-adv-x="524" d="M449 104q-23 -62 -99 -110q-19 -12 -55 -12q-46 0 -81 22q-41 26 -41 68q0 16 6.5 34t23.5 39q22 28 42 28q13 0 20 -11q10 -17 19 -24q22 -16 58 -16q18 0 27 4q33 104 95 297q25 75 38 118q21 74 21 86q0 30 -28 30q-3 0 -45.5 -10.5t-45.5 -10.5q-22 0 -22 35 q0 20 5 34q18 50 48 64q62 28 113 28q59 0 70 -57q7 -43 -5 -103q-8 -35 -54 -186q-44 -143 -55 -175l-36 -97q-1 -3 -9.5 -37z" />
<glyph unicode="^" horiz-adv-x="605" d="M679 487q-24 -66 -64 -66q-15 0 -32 26q-14 22 -20 44.5t-6 45.5q0 14 3 38.5t3 36.5q-34 -28 -100 -82l-74 -64q-74 -63 -89 -63q-23 0 -23 32q0 20 7 36q11 31 36 55q14 10 44 34q280 238 301 238q24 0 24 -34q-1 -18 -15 -58q-17 -47 -20 -64q-2 -9 -2 -19 q0 -50 28 -79q15 -15 -1 -57z" />
<glyph unicode="_" horiz-adv-x="536" d="M573 23q-6 -17 -20 -34q-18 -22 -36 -22q-3 0 -150 7.5t-149 7.5q-49 0 -116 -7q-6 -1 -28 -5.5t-24 -4.5q-24 0 -24 26q0 14 6 32q16 43 42 53q21 8 71 13q69 8 111 8q1 0 38.5 -3t56.5 -3q12 -1 41 -2q4 -1 41 -3q35 0 71 1q44 -1 66 -11q9 -4 8 -24q0 -16 -5 -29z" />
<glyph unicode="`" horiz-adv-x="594" d="M630 544q-11 -32 -35 -60q-29 -33 -57 -33q-25 0 -48 38q-19 31 -28 67q-15 46 -40 142q-4 23 9 57q9 26 32 56q33 43 62 43t41 -34q3 -10 7 -46q6 -48 29 -104q11 -15 32 -48q15 -28 -4 -78z" />
<glyph unicode="a" horiz-adv-x="847" d="M805 102q-7 -19 -22 -39q-22 -29 -42 -29q-12 0 -16 15l-4 22q-24 2 -114 3q-44 -1 -89 -2q-38 -2 -117 -11q-38 -5 -177 -17q-16 -19 -31 -37q-22 -22 -41 -22q-23 0 -23 28q0 16 7 37q10 27 38 67q26 35 52 71q69 95 264 324q71 86 222 255q15 16 47 29q3 1 9 1 q21 0 26 -34q0 -1 1 -42q1 -29 -2 -73q-5 -62 -5 -72q-4 -83 1 -150q3 -42 24 -279q2 -19 -8 -45zM710 199q-14 227 -14 261q0 38 4 97q5 82 5 88q-239 -271 -396 -470q46 6 220 20q92 5 181 4z" />
<glyph unicode="b" horiz-adv-x="708" d="M744 209q-17 -45 -62 -84q-159 -136 -383 -136q-77 0 -151 11q-8 1 -9 13q-3 28 3 49q73 219 165 452q11 23 24 52q2 3 -1.5 10.5t-3.5 8.5q-3 16 8 46q9 26 23 41q5 6 37 32q5 6 13 18q20 22 38 22q3 0 7.5 -2.5t8.5 -2.5q-4 0 50 20q111 41 203 41q24 0 61 -6.5 t48 -13.5q67 -42 67 -114q0 -27 -10 -55q-23 -63 -95 -121q-42 -35 -173 -117l6 -3q59 -12 94 -42q40 -32 40 -77q0 -20 -8 -42zM786 610q-4 26 -49 42q-36 12 -76 12q-35 0 -103 -17q-64 -16 -96 -30q-12 -4 -29 -15q-17 -25 -37 -77l-76 -204q321 177 466 289zM630 203 q-36 33 -98 33q-58 0 -136 -19.5t-129 -47.5l-15 -42h57.5h38.5q141 0 230 43q26 13 52 33z" />
<glyph unicode="c" horiz-adv-x="765" d="M752 180q-21 -57 -74 -98q-41 -32 -140 -80q-47 -22 -119 -22q-115 0 -179 66q-61 62 -61 163q0 62 24 128q25 71 99 172q100 138 220.5 213t241.5 75q19 0 86 -15.5t67 -93.5q0 -33 -13 -67q-6 -17 -56 -99q-20 -33 -83 -78t-89 -45q-28 0 -28 41q0 19 5 32q17 47 50 64 q8 2 21 5q20 5 53 31.5t39 43.5q7 19 -44 33q-37 10 -56 10q-98 0 -204 -67q-94 -60 -158 -149q-22 -31 -45 -62q-8 -13 -20 -44q-12 -34 -12 -65q0 -72 66 -115q57 -37 129 -37q104 0 208 87q8 12 31 37q11 9 26 9q23 0 23 -31q0 -21 -8 -42z" />
<glyph unicode="d" horiz-adv-x="680" d="M846 476q-42 -116 -159 -232q-126 -124 -284 -193q-39 -19 -115 -49q-61 -19 -102 -19q-38 0 -38 33q0 26 22 69q12 21 28 81l24 84q78 247 85 264l35 97q-21 2 -21 32q0 20 7 38q12 33 40 58q11 4 34 18q4 4 12 13q22 19 35 19q3 0 9.5 -5t8.5 -5q1 0 29 7q57 14 121 14 q114 0 182 -53q70 -56 70 -153q0 -55 -23 -118zM764 474q10 27 10 51q0 69 -78 109q-61 31 -130 31q-44 0 -127 -19l-56 -153q-25 -65 -115 -370q103 21 239 102q154 91 219 188q33 49 38 61z" />
<glyph unicode="e" horiz-adv-x="757" d="M764 165q-19 -51 -51 -65q-129 -56 -162 -69q-101 -37 -154 -37q-178 0 -178 168q0 73 34 181q7 23 55 154l46 125q-10 5 -10 26t7 40.5t28 45.5q12 8 31 25q35 41 54 41q3 0 13 -8t13 -8t32.5 5.5t41.5 6.5q41 4 83 4q106 0 211 -17q17 -3 17 -33q0 -20 -5 -35 q-25 -69 -85 -69q-1 0 -37 4.5t-55 5.5q-87 4 -97 4q-61 0 -89 -5q-19 -1 -60 -14q-18 -40 -51 -132q-17 -45 -46 -136q1 -7 25 -7q39 0 172 22q17 3 69 14q46 9 49 9q25 0 25 -30q0 -19 -7 -40q-20 -53 -52 -66q-12 -5 -88 -18q-42 -7 -227 -34q11 -89 128 -89q80 0 241 78 q10 10 31 28q10 7 21 7q31 0 31 -50q0 -20 -4 -32z" />
<glyph unicode="f" horiz-adv-x="598" d="M822 643q-22 -30 -45 -30q-3 0 -11 6t-12 6q-40 9 -85 9q-151 0 -271 -42l-39 -108q-13 -47 -42 -142q1 0 2 -1t5 -1q-7 0 96 29.5t185 29.5q61 0 61 -28q0 -14 -9 -41q-22 -59 -58 -68q-18 -1 -58 -3q-111 -5 -241 -56l-2 -19.5t-1 -29.5q2 -14 9 -14q4 0 5.5 1t5.5 1 q23 0 23 -32q0 -20 -7 -38q-8 -22 -31 -51q-28 -35 -49 -35q-22 0 -39 35q-8 15 -17 47q0 -6 5 84q7 158 90 385q0 2 46 120q55 140 101 140q22 0 22 -38q0 -11 -3 -18q0 -1 3 -4q117 35 258 35q38 0 54 -2q24 -1 68 -12q13 -6 13 -30q0 -21 -8 -42t-24 -43z" />
<glyph unicode="g" horiz-adv-x="824" d="M817 219q-20 -53 -78 -91q-33 -21 -127 -60q-84 -36 -117 -47q-68 -24 -123 -29q-19 -2 -42 -2q-42 0 -57 3q-33 5 -53 25q-46 46 -46 132q0 64 25 133t90 161q112 161 289 263q163 93 298 93q87 0 87 -51q0 -15 -7.5 -34.5t-23.5 -38.5q-20 -25 -38 -25q-6 0 -13 8 t-11 11t-37 3q-111 0 -237 -65q-140 -72 -242 -199q-56 -70 -77 -127q-15 -40 -15 -73q0 -94 112 -94q97 0 266 77q-28 2 -73 -3q-72 -9 -76 -9q-12 -1 -48 -8.5t-38 -7.5q-24 0 -24 31q0 16 5 31q16 42 44 59q21 12 121 23q89 10 146 10q55 0 80 -7q47 -13 47 -55 q0 -16 -7 -37z" />
<glyph unicode="h" horiz-adv-x="764" d="M723 84q-7 -20 -24 -41q-22 -27 -43 -27q-29 0 -25 35q3 28 17 70l24 72q-49 5 -93 5q-63 0 -156 -16q-99 -17 -130 -38q-5 -32 -26 -78q-30 -66 -64 -66q-24 0 -24 31q0 19 11 54q14 44 16 54q22 114 56 227q68 232 109 345q32 89 73 89q20 0 20 -30q0 -29 -23 -94 q-6 -19 -47 -146q-30 -90 -73 -249q11 -1 40 9q40 14 76 22q95 19 193 19q40 0 81 -3q9 12 48 132q32 118 67 242q25 69 64 69q23 0 23 -27q0 -29 -12 -75q-40 -158 -62 -216l-45 -126q-1 -3 -35 -121.5t-36 -121.5z" />
<glyph unicode="i" horiz-adv-x="386" d="M533 711q-7 -21 -28 -45q-7 -3 -17 -13q-18 -34 -46 -110l-111 -303q-20 -58 -38 -137q-1 -17 -4 -41q-10 -27 -35 -49t-52 -22q-41 0 -41 46q0 26 13 49q6 9 15 27l39 144l173 476q7 19 38 42t49 23q6 0 18 -7q32 -16 32 -53q0 -14 -5 -27z" />
<glyph unicode="j" horiz-adv-x="805" d="M828 253q-18 -48 -58 -121q-47 -85 -113 -115q-24 -11 -45 -14q-34 -6 -106 -3q-62 3 -79 7q-120 27 -184 69q-32 21 -94 86q-7 7 -5 33q2 22 7 35q8 24 26 45q24 29 47 29q12 0 29 -22q15 -18 36 -36q24 -25 77 -66q72 -40 151 -40q45 -1 109 4q23 2 32 4q24 6 36 19 q21 23 43 84q8 21 16 55q3 58 -5 148q-10 129 -10.5 146.5t-3.5 50.5q-19 -4 -67 -19q-42 -12 -46 -12q-28 0 -28 36q0 18 7 36q18 52 50 67q16 4 47 13q81 28 130 28q25 0 29 -4q12 -12 12 -32q0 -22 -16 -56q-4 -5 -7 -9q-5 -7 -5 -12q3 -55 12 -151q7 -76 7 -114 q0 -84 -31 -169z" />
<glyph unicode="k" horiz-adv-x="770" d="M711 61q-26 -71 -71 -71q-5 0 -36 15q-47 24 -127.5 41t-141.5 17q14 0 -132 -7q-33 -58 -66 -58q-22 0 -22 30q0 25 22 84q1 4 83 206.5t83 205.5q33 90 47.5 144.5t14.5 55.5q7 20 24 42q23 28 42 28q11 0 19 -10t7 -20q-7 -61 -31 -133q0 -1 -43 -118 q-22 -61 -72 -190q-19 -41 -41 -89l-9 -26h2q55 52 159 148q87 77 254 231q23 22 81 90q105 120 139 120q23 0 23 -31q0 -19 -6 -38q-11 -29 -34 -52q-32 -31 -65 -63q-33 -39 -116 -128q-32 -32 -308 -281q182 -9 317 -76q17 -9 11 -44q-1 -6 -7 -23z" />
<glyph unicode="l" horiz-adv-x="777" d="M824 152q-20 -26 -36 -28q-19 -1 -57 -7q-54 -9 -201 -54q-56 -20 -113 -40q-94 -30 -140 -30q-31 0 -59 18q-36 24 -34 66q12 186 134 521q36 98 39 106q43 94 82 94q23 0 23 -34q0 -18 -13 -46l-22 -44q-16 -40 -40 -115q-11 -30 -31 -91q-7 -20 -18 -58 q-5 -14 -14 -44q-6 -22 -32 -139q-13 -57 -10 -75q3 -23 46 -23q36 0 106 22l98 34q212 72 287 72q35 0 35 -33q0 -14 -6.5 -32.5t-23.5 -39.5z" />
<glyph unicode="m" horiz-adv-x="890" d="M1026 758q13 16 32 16q23 0 23 -33q0 -21 -7 -40q-2 -3 -40.5 -95t-39.5 -95q-33 -92 -68 -210q-20 -67 -43 -181l-14 -36q-6 -18 -25 -43q-25 -32 -45 -32t-20 31q0 26 14 73q7 22 15 44q23 98 48 176.5t50 158.5q-83 -99 -167 -197q-100 -119 -146 -198q-6 -13 -19 -38 q-6 -12 -24 -29q-22 -21 -35 -21q-22 0 -22 32q0 5 10 54q5 24 -13 59q-2 3 -41 93q-50 114 -64 250q-14 -43 -30 -91l-71 -196q-1 -3 -23 -76.5t-23 -76.5q-24 -68 -64 -68q-21 0 -22 26q0 15 13 68.5t24 83.5l64 177q1 3 58.5 178.5t58.5 178.5q35 96 79 96q30 0 28 -24 q-1 -13 -3 -33q0 -6 -1 -21v-23q1 -129 44 -294q21 -77 74 -168q36 40 215 254q74 92 220 270z" />
<glyph unicode="n" horiz-adv-x="788" d="M741 96q-9 -23 -26 -43q-23 -25 -47 -25q-23 0 -25 27q0 23 1 45q-8 4 -23 13q-70 66 -142 176q-78 120 -94 199q-4 -4 -8 -19q-51 -192 -100 -363q-3 -15 -7 -37q-7 -19 -26 -43q-23 -29 -43 -29q-4 0 -12 5.5t-9.5 12.5t-1.5 15q0 14 21 89l68 242q36 138 102 360 q6 19 23 41q23 30 44 30q12 0 19 -12.5t5 -24.5q-3 -10 -6 -26q1 2 2 -30q4 -21 9 -62q15 -162 208 -375q21 58 45 154q33 133 58 218q11 45 24 98q6 18 21 38q22 30 42 30q21 0 21 -38q0 -21 -3.5 -36.5t-9.5 -42.5q-17 -65 -32 -116q-8 -30 -21.5 -80t-56.5 -211 q-5 -16 -23 -110q-1 -6 7 -20q2 -4 0 -22q-1 -19 -4 -28z" />
<glyph unicode="o" horiz-adv-x="824" d="M938 515q-21 -56 -55 -113q-109 -179 -256 -270q-73 -45 -157 -84q-117 -54 -173 -54q-117 0 -117 131q0 61 23 126q59 160 218.5 322.5t297.5 204.5q74 22 105 22q20 0 35 -9q9 -5 10.5 -16t2.5 -20q96 -6 96 -103q0 -54 -30 -137zM857 518q17 46 17 64q0 40 -50 40 q-30 0 -87 -11q-73 -14 -61 -14q-13 0 -19 12q-2 10 -8 26q-117 -58 -228 -179q-102 -111 -136 -204q-13 -36 -13 -63q0 -63 73 -63q40 0 147 48q123 54 214 133q109 96 151 211z" />
<glyph unicode="p" horiz-adv-x="712" d="M906 553q-10 -30 -54 -96q-25 -37 -134 -111q-89 -61 -197 -110q-98 -43 -195 -85q-3 -6 -13 -37t-20 -63q-26 -59 -62 -59q-26 0 -23 33q3 37 22 97q130 428 128 428t-9 -2.5t-10 -2.5q-32 0 -32 40q0 17 6 34q18 48 67 78q11 5 35 19q3 13 22 43q27 41 52 41 q12 0 18 -15t6 -28q91 32 169 32q89 0 157 -39q81 -46 81 -128q0 -33 -14 -69zM821 558q0 25 -52 56q-45 27 -64 29l-73 7q-74 0 -167 -36q-35 -122 -96 -316q11 2 28 6q220 90 339 173q85 60 85 81z" />
<glyph unicode="q" horiz-adv-x="811" d="M807 131q-24 -66 -64 -66q-3 0 -56 28q-64 34 -90 46q-84 -66 -173 -106t-153 -40q-111 0 -111 113q0 58 28 136q14 39 21 53q12 27 52 96q21 36 96 125q97 113 183 185q115 95 188 95q28 0 42 -28q42 -2 59 -6q33 -9 47 -32q22 -39 14 -117q-5 -44 -28 -106 q-49 -136 -153 -259q36 -18 99 -57q7 -5 8 -28q0 -9 -9 -32zM783 508q11 29 14 64q3 37 -6 46q-16 17 -62 17q-50 0 -106 -24.5t-55 -24.5q-4 0 -10.5 4t-8.5 4q-13 0 -101 -96q-75 -83 -96 -110q-32 -42 -55 -82q-16 -26 -29.5 -63t-13.5 -63q0 -57 63 -57q51 0 152 48 q-11 1 -37 0q-31 -2 -27 -2q-29 0 -29 33q0 15 6 33q17 46 47 60q21 10 68 10q55 0 134 -23q49 45 94 114q40 62 58 112z" />
<glyph unicode="r" horiz-adv-x="649" d="M676 112q-24 -66 -66 -66q-10 0 -137.5 51t-165.5 51q-8 0 -42 -7q-14 -3 -31 -11q-5 -26 -20 -73q-31 -61 -65 -61q-22 0 -23 32q0 58 45 182l100 275q1 3 21.5 74t22.5 75q5 14 14 27l38 84q36 72 70 72q16 0 20 -24q3 -18 -1 -36q93 42 173 42q84 0 148 -45 q67 -48 67 -118q0 -25 -9 -51q-29 -80 -143 -170q-71 -55 -235 -155q51 -19 137 -54q32 -12 65 -24q25 -11 25 -33q0 -14 -8 -37zM744 580q4 10 -29 36q-27 22 -42 30q-18 8 -38 13q-24 6 -53 6q-49 0 -108 -20q-43 -15 -53 -25q-5 -8 -16 -24q-9 -8 -22 -21q-1 -2 -6 -15 q-17 -54 -100 -283q271 146 416 257q47 36 51 46z" />
<glyph unicode="s" horiz-adv-x="734" d="M960 617q-29 -80 -71 -80q-24 0 -24 29q0 12 5 31.5l5 19.5q0 24 -32 36q-24 9 -52 9q-117 0 -302 -159q-167 -145 -217 -251q10 -7 37 -7q35 0 109 31q125 54 141 59q89 32 158 32q22 0 31 -1q38 -4 38 -55q0 -27 -9 -53q-19 -52 -68 -103q-56 -58 -154 -114t-146 -56 q-26 0 -26 32q0 19 6.5 38t23.5 40q23 30 46 30q3 0 3.5 -1t3.5 -1q15 0 68 27q45 22 59 31q31 22 67 49q-76 0 -214.5 -61.5t-187.5 -61.5q-85 0 -85 74q0 30 14 69q22 61 110 175q106 135 261 249q173 126 283 126q64 0 98.5 -30.5t34.5 -82.5q0 -33 -14 -70z" />
<glyph unicode="t" horiz-adv-x="758" d="M1093 728q-21 -60 -58 -69q-19 -1 -51 -4q-90 -10 -267 -34l-90 -247q-18 -72 -52 -190l-45 -129q-7 -21 -25 -43q-23 -28 -45 -28q-24 0 -24 38q0 14 3 21l38 103q5 21 16 57q13 48 40 142q12 40 39 109l56 153q-44 0 -136 -15t-122 -15q-43 0 -43 32q0 14 9 39 q14 39 39 55.5t75 16.5q-3 0 135 19q128 18 390 48q111 13 98 13q28 0 28 -33q0 -19 -8 -39z" />
<glyph unicode="u" horiz-adv-x="812" d="M807 154q-5 -13 -24 -44q-11 -29 -23 -57q-28 -55 -62 -55q-28 0 -24 54q-34 -10 -58 -14q-2 0 -157 -18q-42 -7 -83 -14q-66 -11 -103 -11q-102 0 -102 88q0 59 26 149q39 142 118 359q36 99 64 159q7 15 26 31t35 16q25 0 25 -39q0 -19 -5 -31q-8 -17 -20 -45 q-32 -80 -46 -122q-16 -53 -52 -160q-32 -90 -38 -112q-21 -66 -27 -123q-1 -11 11.5 -16.5t44.5 -5.5q14 0 140 19q61 6 122 13q72 8 125 27q28 107 92 323q25 79 65 187q28 77 73 77q26 0 26 -42q0 -13 -3 -19l-54 -149q-6 -18 -41 -135q-44 -145 -62 -220q0 -24 -9 -70z " />
<glyph unicode="v" horiz-adv-x="672" d="M936 729q-13 -35 -66 -83q-59 -54 -69 -72q-5 -6 -15 -16q-95 -116 -150 -189q-69 -93 -139 -186q-146 -185 -193 -185q-27 0 -39 62q-6 35 -6 66l-3 132q1 35 5 190q4 116 1 190q-1 21 6.5 42t23.5 40q22 26 43 26q24 0 29 -21q2 -9 -1 -28l-4 -32q0 -86 -4 -206 q-4 -113 -4 -156q0 -84 9 -157q49 49 144 175q148 198 169 224q97 121 193 214q38 37 54 37q22 0 22 -33q0 -19 -6 -34z" />
<glyph unicode="w" horiz-adv-x="899" d="M200 85q7 28 23 102q22 107 43 228q9 65 18 129q18 119 33 159q6 17 24 39q22 28 40 28q7 0 14.5 -9.5t6.5 -18.5q0 -1 -21 -102q-8 -61 -25 -174q-17 -93 -53 -283q86 144 134 213q120 174 280 351q43 48 67 48q23 0 23 -29q0 -17 -13 -48q-16 -36 -19 -49 q-9 -40 -15 -163q-1 -18 7 -120q8 -92 20 -163q21 32 126 202q77 123 128 193q18 25 72 101q55 81 83 81q22 0 22 -28q0 -18 -6 -36q-8 -22 -15 -30q-71 -90 -167.5 -232t-198.5 -320q-16 -33 -32 -67q-32 -55 -60 -55q-16 0 -29 15q-5 7 -6 28q-1 31 -6 59q-28 170 -28 289 q0 74 9 160h-2q-160 -179 -306 -426q-13 -21 -35 -65q-7 -18 -25 -57q-24 -45 -60 -45q-9 0 -17 4q-38 18 -38 59q0 14 4 32z" />
<glyph unicode="x" horiz-adv-x="804" d="M984 686q-22 -27 -41 -27q-3 0 -4 1t-4 1q-23 0 -176 -141q-147 -135 -150 -144q-1 -3 5 -12q9 -13 11 -17q21 -43 42 -85q22 -50 22 -85q0 -19 -6 -34q-7 -21 -25 -44q-23 -30 -43 -30q-14 0 -19 11l-8 40q-16 62 -76 159q-145 -136 -201 -211q-6 -13 -20 -37 q-38 -48 -65 -48q-21 0 -21 33q0 20 6 36q8 23 30 53q45 60 90 110q65 66 133 137q0 1 -17 29q-51 84 -123 244q-17 38 -4 73q8 22 25 41q22 24 42 24q37 0 39 -29q-1 -14 0 -34q13 -39 66 -132q42 -75 70 -116q15 12 68 65q74 73 158 147q154 136 196 136q30 0 30 -40 q0 -18 -6 -35.5t-24 -38.5z" />
<glyph unicode="y" horiz-adv-x="773" d="M1020 727q-11 -30 -48 -77q-69 -87 -70 -88q-35 -49 -83 -106q-114 -131 -339 -391q-13 -21 -26 -41q-27 -36 -50 -36q-24 0 -24 30q0 19 8 40q11 32 30 59t68 84q46 52 47 55t-60 99q-73 117 -94 152q-26 46 -73 154q-10 22 4 58q6 18 24 40q23 29 45 29q17 0 22 -17 q22 -65 96 -191l130 -216q120 127 208 242q41 56 138 175q13 15 32 15q23 0 23 -29q0 -18 -8 -40z" />
<glyph unicode="z" horiz-adv-x="906" d="M870 64q-24 -28 -46 -28q-3 0 -21.5 10t-28.5 13q-4 1 -59 1t-108 -5q-103 -10 -342 -41q-18 -2 -73 -13q-48 -9 -56 -9q-33 0 -33 37q0 19 9 41q21 59 70 87q259 144 465 333q61 56 164 156q-10 2 -51 2q-4 0 -130 -7.5t-129 -7.5q-37 0 -37 36q0 17 8 42q27 74 78 79 q99 10 282 10q100 0 142 -4q11 -1 29 -12q11 -7 11 -31q0 -23 -7 -44q-17 -44 -44 -66q-82 -66 -254 -227q-146 -137 -277 -232q4 -3 19 -1q82 10 165 21q61 8 143 8q71 0 95 -6q53 -12 53 -56q0 -17 -8.5 -40t-28.5 -46z" />
<glyph unicode="{" horiz-adv-x="512" d="M579 601q-9 -25 -27 -47q-23 -26 -44 -26q-23 0 -59 58q-30 50 -37 79q-6 26 5 56q7 20 26 44q26 33 50 33q11 0 16 -7q8 -22 29 -66q17 -20 46 -67q9 -20 -5 -57zM517 375q-24 -66 -59 -72q-32 -1 -94 -3q-42 -2 -67 -11q-40 -13 -38 -13q-25 0 -25 39q0 22 5.5 37 t19.5 36q19 27 36 35q67 30 167 30q64 0 64 -38q0 -15 -9 -40zM471 169q-5 -17 -9 -33q-5 -9 -33 -31q-34 -27 -91 -53q-49 -23 -97 -45q-20 -10 -35 -10q-28 0 -28 38q0 21 6 39q20 54 56 70q11 3 32 11q45 22 89 44q84 42 93 42q25 0 25 -31q0 -19 -8 -41z" />
<glyph unicode="|" horiz-adv-x="507" d="M590 742q-2 -4 -13 -24t-13 -24l-241 -664q-8 -21 -37 -52q-33 -36 -56 -36q-32 0 -32 55q0 23 4 34l241 662q15 41 42 84q43 69 82 69q32 0 32 -46q0 -31 -9 -58z" />
<glyph unicode="}" horiz-adv-x="563" d="M694 718q-17 -46 -46 -63q-11 -2 -31 -8q-15 -8 -105 -85q-79 -69 -97 -69q-25 0 -25 29q0 18 9 42q8 21 9 23q4 8 27 35q13 15 103 89q105 86 130 86q34 0 34 -39q0 -19 -8 -40zM540 356q-9 -24 -29 -46q-21 -25 -38 -27q-24 1 -68 -2l-119 -15q-42 0 -42 35q0 16 8 38 q24 66 64 72q117 18 180 18q2 0 29 -1q20 -1 20 -36q0 -23 -5 -36zM459 56q-27 -75 -82 -75q-37 0 -77 39q-22 23 -63 80q-3 4 -1 24q1 19 6 33q8 21 24 43q24 32 49 32q12 0 16 -7q29 -43 41 -58q24 -29 47 -39q15 2 36 -4q12 -15 12 -32q0 -12 -8 -36z" />
<glyph unicode="~" horiz-adv-x="867" d="M869 431q-19 -54 -70 -103q-62 -60 -137 -75q-34 -7 -40 -7q-51 0 -88 37q-7 7 -51 68q-26 37 -52 37q-35 0 -98 -52q-6 -9 -17 -29q-8 -13 -27.5 -26.5t-29.5 -13.5q-21 0 -21 31q0 22 6 41q21 58 94 119q79 66 142 66q44 0 74 -37q22 -34 45 -68q30 -37 72 -37 q21 0 56 13q44 16 59 39l22 46q24 41 50 41q22 0 22 -33q0 -27 -11 -57z" />
<glyph unicode="&#xa3;" horiz-adv-x="1011" d="M914 67q-9 -24 -29 -47q-25 -29 -48 -29q3 0 -54 14q-69 16 -155 28q-28 4 -111 4q-32 0 -76 -2q-25 0 -83 -8q-28 -5 -101 -23q-63 -16 -67 -16q-28 0 -28 33q0 19 8 42q20 55 55 71q12 5 84 22q34 8 86 43t79 68q21 25 59 80q0 2 -11 2q-3 0 -49 -8.5t-49 -8.5 q-29 0 -29 35q0 20 7 40q23 62 65 74q55 15 156 22q5 3 9 7q63 114 136 188q100 102 199 102q55 0 85 -30t30 -77q0 -28 -11 -58q-6 -19 -25 -42q-25 -30 -46 -30q-20 0 -23 23q-4 37 -7 43q-13 23 -57 23q-48 0 -104 -45q-51 -42 -78 -96h143q20 0 20 -37q0 -26 -5 -38 q-6 -17 -26 -43q-25 -32 -43 -32h-178q-22 -36 -121 -174q1 1 142 -3q36 -1 131.5 -22t91.5 -21q3 0 4.5 1.5t5.5 1.5q23 0 23 -37q0 -24 -5 -40z" />
<glyph unicode="&#xa5;" horiz-adv-x="1055" d="M1177 569q-24 -68 -67 -77q-22 -5 -55 -5q-47 0 -57 -1q-9 -27 -44 -100q-46 -98 -190 -190q-118 -76 -207 -98q-27 -7 -67 -7q-17 0 -52 6q-13 -29 -26 -57q-26 -44 -57 -44q-27 0 -27 35q0 18 9 48.5t26 86.5q6 21 32 100q16 48 15 59q-40 -14 -79 -28q-62 -22 -80 -22 q-28 0 -28 37q0 22 8.5 46t25.5 47q24 33 49 33q4 0 9 -3t9 -3q12 0 144 55q12 29 24 86q0 3 -8 9t-9 11q-5 29 7 62q13 38 76 88q11 12 22 22.5t28 10.5q3 0 8 -1.5t8 -1.5q4 0 20 6q20 6 26 8q60 13 108 13q182 0 226 -166q22 1 85 6q58 6 61 6q35 0 35 -37q0 -19 -8 -40z M849 605q-44 41 -127 41q-53 0 -116 -18q-12 -39 -33 -107q174 57 276 84zM886 436l12 34h-10q-137 -28 -366 -103q-22 -60 -35 -107q12 -2 25 -11q9 -7 30 -7q55 0 156 49q105 51 156 106q29 32 32 39z" />
<glyph unicode="&#xa9;" horiz-adv-x="976" d="M888 429q0 -99 -44 -193q-26 -56 -38 -78q-29 -49 -70 -96q-18 -19 -57 -37q-33 -15 -59 -20q-47 -10 -115 -10q-129 0 -216 30q-30 10 -78 57q-96 95 -96 265q0 56 9 103q12 66 48 128q3 5 39 51.5t108 85.5q30 16 114 51q6 10 21 25q18 9 81 9q99 0 157 -23 q23 -8 35 -18q97 -80 133 -165q28 -65 28 -165zM803 437q0 49 -9.5 75t-49.5 72q-43 49 -73 60q-20 7 -59 13q-23 2 -67 7q-9 -37 -42 -37q-3 0 -19.5 2.5t-19.5 2.5q-25 0 -90 -32q-56 -27 -75.5 -42.5t-47.5 -51t-34 -54.5q-14 -42 -16 -60q-1 -6 -1 -47q0 -107 65 -154 q17 -15 46 -33q84 -22 113 -24h81q61 0 80 2q35 4 77 21.5t90 109.5q51 97 51 170zM677 315q0 -23 -12 -46q-14 -27 -34 -28q-2 0 -81 -18q-74 -18 -114 -18q-58 0 -104 41q-49 44 -49 107q0 15 10 46.5t18 42.5q15 22 31.5 45t34.5 37q59 47 103 47q49 0 83 -31t34 -80 q0 -27 -9 -49q-13 -30 -36 -30q-21 0 -30 25.5t-39 25.5q-20 0 -60.5 -27t-40.5 -44q0 -15 57 -17q36 0 91 13q80 19 87 20q2 0 8 2t10 2q19 0 32 -24q10 -20 10 -42z" />
<glyph unicode="&#xad;" d="M642 404q-8 -24 -28 -47q-23 -26 -44 -26q-3 0 -7 1.5t-8 1.5q-48 0 -147.5 -21.5t-98.5 -21.5q-38 0 -38 33q0 16 9 41q20 55 55 71q24 4 69 14q141 33 213 33q30 0 30 -46q0 -19 -5 -33z" />
<glyph unicode="&#xae;" horiz-adv-x="1019" d="M914 437q0 -52 -6 -91q-1 -7 -17 -55q-21 -66 -25 -76q-16 -41 -40 -74t-71 -68q-41 -31 -77 -46q-45 -19 -161 -19q-92 0 -174 17q-13 2 -81 40t-102 95q-16 29 -30.5 85t-14.5 87q0 41 18.5 115t34.5 99q9 16 29 44q178 189 302 189q3 0 32.5 -5.5t32.5 -5.5t42.5 2.5 t42.5 2.5q140 0 210 -115q55 -91 55 -221zM671 456q0 15 -34 28q-29 10 -45 10q-64 0 -140 -63q4 -30 3 -70q20 4 53 11q50 14 68 20q41 15 68 35.5t27 28.5zM833 444q0 28 -12 70q-38 126 -172 126q-44 0 -149 -19q-6 -1 -22 -9t-18 -8q-12 0 -33 21q-21 0 -99 -67 q-68 -58 -77.5 -70.5t-30.5 -48.5q-3 -6 -11 -41q-10 -42 -10 -65q0 -15 9 -46t20 -46q24 -30 91 -66q38 -21 48 -20h6q1 -5 1 213q0 25 -10.5 50.5t-10.5 42.5q0 7 5 26.5t8 22.5q46 48 109 83q68 37 117 37q67 0 119 -54t52 -122q0 -35 -20 -73q-22 -43 -59 -71 q27 -7 54 -13q34 -8 47 -33q48 107 48 180zM682 172q-161 31 -224 58q2 -77 -1 -86h121q31 -1 79 14q9 6 25 14z" />
<glyph unicode="&#xc9;" horiz-adv-x="648" d="M722 734q-9 -24 -32 -50q-5 -6 -17 -10q-15 -6 -16 -7q-28 -20 -55 -40q-46 -33 -66 -33q-23 0 -23 29q0 17 7.5 37.5t9.5 23.5q5 11 19 24q16 9 41 24q29 23 87 64q6 4 21 4q31 0 31 -32q0 -15 -7 -34zM641 142q-14 -38 -36 -55q-43 -30 -147 -63q-92 -28 -161 -28 q-41 0 -63 8q-44 16 -44 101q0 80 30 161l48 134q1 3 2.5 16.5t2.5 16.5q9 15 24 41q19 36 23 42q21 30 45 30q12 0 17 -11.5t8 -11.5t14 4.5t15 5.5q74 14 149 28q57 11 122 11q45 0 52 -2q26 -5 26 -30q0 -13 -7 -33q-6 -16 -22 -38q-22 -29 -39 -29h-121q-27 0 -194 -37 q-18 -4 -43 -16q-7 -19 -20 -58t-21 -60q1 0 3 -1t6 -1q3 0 146.5 39.5t147.5 39.5q22 0 22 -32q0 -19 -6 -34q-21 -60 -85 -72q-31 -9 -102 -28q-47 -13 -143 -41q11 -11 54 -11q62 0 105 13q37 11 116 40q14 7 29 14q23 11 31 11q22 0 22 -30q0 -18 -6 -34z" />
<glyph unicode="&#xd1;" horiz-adv-x="677" d="M867 733q-22 -59 -79 -94q-53 -32 -112 -32q-28 0 -65.5 12t-80.5 12q-118 0 -159 -36q-15 -18 -44 -39q-3 -1 -9 -1q-22 0 -22 31q0 19 6 35q53 145 276 145q51 0 83.5 -11.5t62.5 -11.5q40 0 65 14q10 6 32 28q15 15 31 15q23 0 23 -27q0 -18 -8 -40zM671 144 q-45 -123 -88 -123q-31 0 -229 310q2 9 -78 -218q-6 -23 -14 -52q-8 -22 -23 -42q-21 -30 -43 -30q-23 0 -23 35q0 29 11 58l63 174q38 104 50 159q0 19 5 49q7 18 30 48q30 38 51 38q14 0 21 -19q-3 -13 -1 -34q61 -101 148 -228q19 -25 54 -71q3 2 7 15q32 88 52 191 q8 49 17 99q7 17 23 38q22 30 42 30q22 0 22 -46q0 -113 -97 -381z" />
<glyph unicode="&#xe9;" horiz-adv-x="648" d="M708 734q-9 -24 -32 -50q-5 -6 -17 -10q-15 -6 -16 -7q-28 -20 -55 -40q-46 -33 -66 -33q-23 0 -23 29q0 17 7.5 37.5t9.5 23.5q5 11 19 24q16 9 41 24q29 23 87 64q6 4 21 4q31 0 31 -32q0 -15 -7 -34zM627 142q-14 -38 -36 -55q-43 -30 -147 -63q-92 -28 -161 -28 q-41 0 -63 8q-44 16 -44 101q0 80 30 161l48 134q1 3 2.5 16.5t2.5 16.5q9 15 24 41q19 36 23 42q21 30 45 30q12 0 17 -11.5t8 -11.5t14 4.5t15 5.5q74 14 149 28q57 11 122 11q45 0 52 -2q26 -5 26 -30q0 -13 -7 -33q-6 -16 -22 -38q-22 -29 -39 -29h-121q-27 0 -194 -37 q-18 -4 -43 -16q-7 -19 -20 -58t-21 -60q1 0 3 -1t6 -1q3 0 146.5 39.5t147.5 39.5q22 0 22 -32q0 -19 -6 -34q-21 -60 -85 -72q-31 -9 -102 -28q-47 -13 -143 -41q11 -11 54 -11q62 0 105 13q37 11 116 40q14 7 29 14q23 11 31 11q22 0 22 -30q0 -18 -6 -34z" />
<glyph unicode="&#xf1;" horiz-adv-x="733" d="M895 733q-22 -59 -79 -94q-53 -32 -112 -32q-28 0 -65.5 12t-80.5 12q-118 0 -159 -36q-15 -18 -44 -39q-3 -1 -9 -1q-22 0 -22 31q0 19 6 35q53 145 276 145q51 0 83.5 -11.5t62.5 -11.5q40 0 65 14q10 6 32 28q15 15 31 15q23 0 23 -27q0 -18 -8 -40zM699 144 q-45 -123 -88 -123q-31 0 -229 310q2 9 -78 -218q-6 -23 -14 -52q-8 -22 -23 -42q-21 -30 -43 -30q-23 0 -23 35q0 29 11 58l63 174q38 104 50 159q0 19 5 49q7 18 30 48q30 38 51 38q14 0 21 -19q-3 -13 -1 -34q61 -101 148 -228q19 -25 54 -71q3 2 7 15q32 88 52 191 q8 49 17 99q7 17 23 38q22 30 42 30q22 0 22 -46q0 -113 -97 -381z" />
<glyph unicode="&#x2000;" horiz-adv-x="430" />
<glyph unicode="&#x2001;" horiz-adv-x="860" />
<glyph unicode="&#x2002;" horiz-adv-x="430" />
<glyph unicode="&#x2003;" horiz-adv-x="860" />
<glyph unicode="&#x2004;" horiz-adv-x="286" />
<glyph unicode="&#x2005;" horiz-adv-x="215" />
<glyph unicode="&#x2006;" horiz-adv-x="143" />
<glyph unicode="&#x2007;" horiz-adv-x="143" />
<glyph unicode="&#x2008;" horiz-adv-x="107" />
<glyph unicode="&#x2009;" horiz-adv-x="172" />
<glyph unicode="&#x200a;" horiz-adv-x="47" />
<glyph unicode="&#x2010;" d="M642 404q-8 -24 -28 -47q-23 -26 -44 -26q-3 0 -7 1.5t-8 1.5q-48 0 -147.5 -21.5t-98.5 -21.5q-38 0 -38 33q0 16 9 41q20 55 55 71q24 4 69 14q141 33 213 33q30 0 30 -46q0 -19 -5 -33z" />
<glyph unicode="&#x2011;" d="M642 404q-8 -24 -28 -47q-23 -26 -44 -26q-3 0 -7 1.5t-8 1.5q-48 0 -147.5 -21.5t-98.5 -21.5q-38 0 -38 33q0 16 9 41q20 55 55 71q24 4 69 14q141 33 213 33q30 0 30 -46q0 -19 -5 -33z" />
<glyph unicode="&#x2012;" d="M642 404q-8 -24 -28 -47q-23 -26 -44 -26q-3 0 -7 1.5t-8 1.5q-48 0 -147.5 -21.5t-98.5 -21.5q-38 0 -38 33q0 16 9 41q20 55 55 71q24 4 69 14q141 33 213 33q30 0 30 -46q0 -19 -5 -33z" />
<glyph unicode="&#x2013;" horiz-adv-x="748" d="M764 404q-10 -24 -37 -47q-30 -26 -58 -26q-4 0 -9.5 1.5t-10.5 1.5q-64 0 -196.5 -21.5t-130.5 -21.5q-51 0 -51 33q0 16 12 41q27 55 73 71q32 4 92 14q187 33 283 33q40 0 40 -46q0 -19 -7 -33z" />
<glyph unicode="&#x2014;" horiz-adv-x="1248" d="M1258 404q-22 -24 -75 -47q-61 -26 -117 -26q-8 0 -18.5 1.5t-21.5 1.5q-127 0 -392 -21.5t-262 -21.5q-101 0 -101 33q0 16 24 41q53 55 146 71q64 4 184 14q375 33 566 33q80 0 80 -46q0 -19 -13 -33z" />
<glyph unicode="&#x202f;" horiz-adv-x="172" />
<glyph unicode="&#x205f;" horiz-adv-x="215" />
<glyph unicode="&#x2122;" horiz-adv-x="1011" d="M874 445q0 -22 -12 -43q-14 -27 -37 -27q-37 0 -48 50q-4 32 -7 64q0 19 -6 64q-8 -11 -25 -54t-29 -61q-20 -30 -43 -30q-31 0 -54 49l-24 64q-6 19 -23 57q-10 -43 -15 -94q-11 -94 -53 -94q-49 0 -49 72q0 57 26 174q35 156 82 156q31 0 49 -59q12 -21 33 -62 q10 -24 31 -70q4 2 7 12q15 44 40 92q45 87 81 87q18 0 32.5 -16.5t17.5 -40.5q26 -250 26 -290zM457 735q0 -23 -10 -41q-13 -23 -38 -23h-63v-212q0 -21 -14.5 -41t-35.5 -20q-18 0 -32.5 18t-14.5 31v212q-94 -10 -85 -10q-26 0 -41 20t-15 44q0 20 12.5 41t33.5 24 q179 26 239 26q64 0 64 -69z" />
<glyph unicode="&#xe000;" horiz-adv-x="800" d="M0 800h800v-800h-800v800z" />
</font>
</defs>
</svg>
