<?xml version="1.0" standalone="no"?>
<!DOCTYPE svg PUBLIC "-//W3C//DTD SVG 1.1//EN" "http://www.w3.org/Graphics/SVG/1.1/DTD/svg11.dtd" >
<svg xmlns="http://www.w3.org/2000/svg">
<metadata></metadata>
<defs>
<font id="dymaxionscriptregular" horiz-adv-x="400" >
<font-face units-per-em="1000" ascent="800" descent="-200" />
<missing-glyph horiz-adv-x="146" />
<glyph horiz-adv-x="1000" />
<glyph horiz-adv-x="1000" />
<glyph unicode="&#xd;" horiz-adv-x="1000" />
<glyph unicode=" "  horiz-adv-x="146" />
<glyph unicode="&#x09;" horiz-adv-x="146" />
<glyph unicode="&#xa0;" horiz-adv-x="146" />
<glyph unicode="!" horiz-adv-x="204" d="M89 97q0 -16 -11.5 -27t-27.5 -11t-27.5 11t-11.5 27q0 17 11.5 28t27.5 11t27.5 -11t11.5 -28v0zM205 560l-107 -371l-44 12l103 359h48v0z" />
<glyph unicode="&#x22;" horiz-adv-x="165" d="M100 725l-53 -113l-35 12q3 9 7.5 27t10.5 37q1 5 2.5 9.5t2.5 9.5q6 19 11 34t9 18q5 4 10 6t11 2t11.5 -2t9.5 -6q2 -2 3.5 -4.5t2.5 -4.5q1 -3 1.5 -5.5t0.5 -4.5q-1 -4 -2 -7.5t-3 -7.5v0zM175 725l-53 -113l-35 12q3 9 7.5 27t10.5 37q1 5 2.5 9.5t2.5 9.5 q6 19 11 34t9 18q5 4 10 6t11 2t11.5 -2t9.5 -6q2 -2 3.5 -4.5t2.5 -4.5q1 -3 1.5 -5.5t0.5 -4.5q-1 -4 -2 -7.5t-3 -7.5v0z" />
<glyph unicode="#" horiz-adv-x="334" d="M333 386l-17 -51h-82l-9 -29h85l-15 -50h-84l-60 -209h-50l59 209h-25l-59 -209h-51l59 209h-82l15 50h81l9 29h-82l14 51h82l52 183h50l-51 -183h25l52 183h50l-52 -183h86v0zM183 335h-26l-8 -29h25l9 29v0z" />
<glyph unicode="$" horiz-adv-x="435" d="M408 746l-69 -239q38 -1 57 -16t19 -38q0 -10 -3.5 -20.5t-11.5 -21.5q-10 -15 -28 -30t-44 -28l-20 41q65 32 58.5 47.5t-41.5 15.5l-47 -164q26 -19 43 -43.5t17 -52.5q0 -14 -5.5 -29t-17.5 -30q-18 -20 -42.5 -32t-53.5 -17l-75 -263h-46l74 257q-4 0 -8.5 -0.5 t-8.5 -0.5q-29 -1 -57 -1h-52h-13.5h-12.5v46h9.5h14.5q9 -1 19.5 -1h22.5q15 0 31.5 0.5t33.5 1.5q9 0 17.5 1t16.5 2l42 144q-2 1 -4 2.5t-4 2.5q-28 18 -51.5 40.5t-23.5 61.5v7.5t1 7.5l2 9q15 36 47.5 57.5t68.5 32.5l8 2l8 2q2 0 3.5 0.5t3.5 1.5q1 0 3 0.5t3 0.5 l70 243h46v0zM291 196q0 17 -7.5 29.5t-18.5 22.5l-31 -108q24 8 40 21.5t17 34.5v0zM277 450q-31 -7 -57 -23t-31 -40v-1.5v-1.5q0 -4 1.5 -9t3.5 -9q6 -11 15.5 -21t20.5 -18q2 -2 4.5 -3.5t4.5 -3.5l38 130v0z" />
<glyph unicode="%" horiz-adv-x="335" d="M289 582l-182 -515h-51l181 515h52v0zM338 148q0 -33 -24 -57t-57 -24q-34 0 -58 23.5t-24 57.5t24 58.5t58 24.5q33 0 57 -24.5t24 -58.5v0zM291 148q0 14 -10 24.5t-24 10.5q-15 0 -25 -10t-10 -25q0 -14 10 -24t25 -10q14 0 24 10t10 24v0zM167 501q0 -34 -24.5 -58 t-57.5 -24q-34 0 -58 24t-24 58q0 33 24 57.5t58 24.5q33 0 57.5 -24.5t24.5 -57.5v0zM119 501q0 14 -10 24.5t-24 10.5t-24.5 -10.5t-10.5 -24.5q0 -15 10.5 -25t24.5 -10t24 10t10 25v0z" />
<glyph unicode="&#x26;" horiz-adv-x="440" d="M417 542q2 -4 2.5 -7.5t0.5 -8.5q0 -11 -5.5 -23t-14.5 -25t-21.5 -26t-24.5 -25q-18 -17 -34.5 -30.5t-25.5 -21.5l-31 34l90 83q14 12 18 20.5t4 11.5v1v0l-0.5 0.5t-1.5 0.5q-2 1 -5 1.5t-8 0.5h-76h-4h-4q-38 -2 -71 -24.5t-44 -59.5q-1 -6 -2 -11.5t-1 -10.5 q0 -7 1.5 -13t3.5 -11l30 -64q2 -4 3 -8t1 -9v-2.5t-1 -3.5q-1 -8 -5.5 -16t-12.5 -13l-15 -12q-52 -40 -74.5 -72t-22.5 -51v-4t1 -4q3 -9 17 -14.5t36 -5.5q13 0 27 2.5t27 6.5q28 9 55 25.5t50 38.5l-47 73l38 25l41 -64q19 23 33.5 49.5t22.5 54.5l44 -13 q-10 -36 -29.5 -69t-44.5 -62l72 -113l-38 -25l-67 105q-37 -33 -85 -56t-99 -23q-37 0 -57.5 10t-29.5 22q-3 5 -5.5 9.5t-3.5 8.5q-2 5 -3 11t-1 13q1 34 30.5 74.5t84.5 83.5l2.5 2t5.5 4v0h1q2 2 4 3t3 2l-6 12t-8 17v0.5v0.5q-6 12 -10.5 22l-4.5 10q-4 10 -6.5 20.5 t-2.5 21.5q0 8 1.5 17t3.5 18q14 51 61 84t105 33h76q18 0 34 -7t23 -24v0z" />
<glyph unicode="'" horiz-adv-x="143" d="M120 713l-53 -112l-34 12q3 9 7.5 27t10.5 38q1 3 2 7t2 7q6 20 11.5 36t8.5 20q5 4 10.5 5.5t11.5 1.5t11 -2t9 -5q2 -3 3.5 -5.5t2.5 -4.5t1.5 -4.5t0.5 -5.5q-1 -4 -2 -7.5t-3 -7.5v0z" />
<glyph unicode="(" horiz-adv-x="200" d="M149 -216q-67 3 -91.5 62t-24.5 139q0 16 1 34t3 36q3 43 10.5 84.5t15.5 76.5q5 23 10 42.5t9 33.5q11 37 34 104.5t58 141.5q48 102 116 187.5t153 90.5l-34 -64q-3 0 -6.5 -1t-6.5 -2q-49 -16 -96 -85t-84 -149q-33 -70 -56.5 -133.5t-30.5 -89.5q-3 -12 -8.5 -35 t-11.5 -53q-5 -30 -10.5 -65t-9.5 -71q-2 -21 -3 -42.5t-1 -40.5q0 -63 15 -108t54 -46l-5 -47v0z" />
<glyph unicode=")" horiz-adv-x="200" d="M298 292q-10 -36 -33.5 -101.5t-57.5 -137.5q-49 -98 -117 -181.5t-150 -86.5l14 55q9 1 17 3.5t17 6.5q43 22 86.5 86t78.5 136q34 70 57.5 133t30.5 87q4 14 10.5 40t13.5 59q6 29 12 62t10 67q3 27 5 53.5t2 50.5q0 56 -13 95t-46 43l4 54q66 -4 90 -61.5t24 -135.5 q0 -20 -1 -40t-4 -40q-4 -42 -11.5 -83t-15.5 -76q-7 -27 -12.5 -49.5t-10.5 -38.5v0z" />
<glyph unicode="*" horiz-adv-x="304" d="M290 635q0 -16 -11.5 -28t-28.5 -12q-7 0 -13.5 4.5t-13.5 9.5q-6 5 -12.5 9.5t-12.5 4.5h-25l12 -21q3 -6 9.5 -9t13.5 -6q1 0 2 -0.5t2 -0.5q11 -4 20 -11t9 -25q0 -17 -11.5 -28.5t-28.5 -11.5q-14 0 -26 9.5t-12 24.5q0 4 0.5 8t1.5 8t1.5 8t0.5 8q0 7 -2.5 13 t-5.5 11l-2 4t-3 4q0 1 -0.5 2t-1.5 2q-1 -2 -2.5 -4.5t-2.5 -4.5q0 -1 -0.5 -1.5l-1.5 -1.5q-3 -6 -5.5 -11.5t-2.5 -12.5q0 -4 0.5 -8t1.5 -8q0 -5 0.5 -9t0.5 -8q0 -17 -12.5 -24.5t-27.5 -8.5h-1.5h-1.5q-14 0 -22.5 11t-10.5 24q-1 2 -1 5v5q0 14 9 20t20 10h1h1 q7 3 14 6.5t11 9.5l12 22h-25q-5 0 -9.5 -2.5t-9.5 -5.5q-2 -2 -3.5 -3t-3.5 -3q-6 -5 -13.5 -9.5t-18.5 -4.5t-20 9t-12 20q-1 3 -1.5 5.5t-0.5 5.5q0 16 12 28t28 12q6 0 9.5 -2t7.5 -5q2 -1 4 -3t5 -4q7 -5 18 -9.5t33 -4.5l-13 22q-3 6 -9.5 9t-13.5 6h-1.5t-1.5 1 q-11 4 -20 10.5t-9 24.5q0 17 12 28.5t28 11.5h1.5h1.5q13 -1 23.5 -10.5t10.5 -23.5q0 -4 -0.5 -8t-0.5 -8q-1 -4 -1.5 -8t-0.5 -8q0 -7 2 -12t5 -10q1 -2 2.5 -4.5t3.5 -4.5q0 -1 0.5 -2t1.5 -2q2 3 4 6.5t4 6.5l4 10t2 12q0 4 -0.5 8t-0.5 8q-1 4 -1.5 8t-0.5 8 q0 14 10.5 23.5t23.5 10.5h1.5h1.5q17 0 28.5 -11.5t11.5 -28.5t-9 -24t-20 -12q-1 0 -2.5 -0.5t-2.5 -0.5q-7 -3 -12.5 -6t-8.5 -8l-13 -22h26q6 0 11.5 3.5t10.5 7.5q1 1 2 1.5t2 1.5q6 5 12.5 9.5t13.5 4.5q16 0 28 -12t12 -28v0z" />
<glyph unicode="+" d="M376 292h-146v-145h-66v145h-145v66h145v146h66v-146h146v-66v0z" />
<glyph unicode="," horiz-adv-x="115" d="M101 97v-2v-2t-0.5 -2t-0.5 -2v-2t-1 -2l-20 -71h-47l14 48q-10 5 -16 14.5t-6 20.5q0 17 11.5 28t27.5 11t27 -11t11 -28v0z" />
<glyph unicode="-" horiz-adv-x="200" d="M188 287h-188v76h188v-76v0z" />
<glyph unicode="." horiz-adv-x="98" d="M89 97q0 -16 -11.5 -27t-27.5 -11t-27.5 11t-11.5 27q0 17 11.5 28t27.5 11t27.5 -11t11.5 -28v0z" />
<glyph unicode="/" horiz-adv-x="305" d="M291 772l-207 -772h-55l207 772h55v0z" />
<glyph unicode="0" horiz-adv-x="361" d="M337 237q-19 -64 -69 -112t-107 -58q-6 -1 -12.5 -1.5t-12.5 -0.5q-29 0 -53 11.5t-40 33.5q-13 17 -19.5 38.5t-6.5 45.5q0 14 2 28t6 28q18 64 68 112t107 58q6 1 12.5 1.5t12.5 0.5q29 0 53.5 -11.5t40.5 -33.5q13 -17 19.5 -38.5t6.5 -46.5q0 -13 -2 -27t-6 -28v0z M293 250q3 11 4.5 21.5t1.5 20.5q0 17 -4.5 32t-12.5 26q-10 13 -24.5 20t-32.5 7q-7 0 -14.5 -1t-14.5 -3q-41 -12 -77.5 -50t-50.5 -86q-3 -11 -4.5 -21.5t-1.5 -20.5q0 -17 4.5 -32t12.5 -26q10 -13 24.5 -20t32.5 -7q7 0 14.5 1t14.5 3q41 12 77.5 50t50.5 86v0z" />
<glyph unicode="1" horiz-adv-x="182" d="M174 438l-105 -364h-47l83 289l-80 -31l-17 42q41 17 82.5 32.5t83.5 31.5v0z" />
<glyph unicode="2" horiz-adv-x="354" d="M335 330q-5 -18 -18.5 -34.5t-33.5 -28.5q-18 -12 -39.5 -25.5t-44.5 -28.5q-20 -14 -39.5 -28.5t-35.5 -28.5q-11 -10 -20 -19t-16 -18h135h3.5t3.5 1q15 2 28 13.5t17 25.5l43 -12q-8 -31 -35.5 -52t-59.5 -21h-103.5h-103.5q26 70 81.5 117t117.5 86l22 14l22 14 q13 8 21 18t11 20q0 1 0.5 2.5t0.5 2.5q1 1 1 2.5v2.5q0 4 -1.5 7.5t-4.5 6.5q-6 9 -18.5 14t-29.5 5h-4.5h-5.5q-28 -3 -53 -19t-31 -37q-1 -2 -1 -4v-4v-2t1 -2v-1.5v-1.5q-4 -1 -7.5 -2t-6.5 -2q-9 -2 -16 -4.5t-11 -1.5q-4 0 -6 2.5t-2 7.5t1.5 11.5t4.5 16.5 q11 37 50.5 62.5t86.5 25.5q27 0 49.5 -9.5t35.5 -26.5q7 -10 10.5 -21.5t3.5 -23.5q0 -4 -0.5 -9.5t-2.5 -10.5v0z" />
<glyph unicode="3" horiz-adv-x="346" d="M327 323q-10 -34 -36.5 -51t-56.5 -28q-1 -1 -2 -1.5t-2 -0.5q14 -6 25 -14.5t19 -19.5q9 -12 13.5 -26t4.5 -29v-7.5t-1 -6.5q0 -4 -1 -7.5t-2 -7.5q-14 -49 -65.5 -83.5t-112.5 -34.5h-94v45h12h12h31t33 1q46 2 86.5 19t54.5 65q1 5 1.5 8.5t0.5 7.5q0 8 -2 15.5 t-7 13.5q-10 14 -28 21t-41 7q-12 0 -23.5 -2t-22.5 -6q-4 -1 -7.5 -2t-7.5 -3q-1 4 -3 9l-4 10q0 2 -1 4t-1 4q-2 5 -3.5 9t-3.5 7l141 53q3 1 5.5 2t5.5 3q13 5 24 15t15 24q1 2 1 4.5v3.5q0 5 -1.5 10t-4.5 9q-7 11 -22.5 17t-34.5 6h-6t-6 -1q-30 -4 -55.5 -22 t-31.5 -40q-1 -4 -1.5 -7.5t-0.5 -8.5q-5 0 -10 -1t-10 -1l-10 -2t-8 -1q-4 0 -6.5 2.5t-2.5 7.5t1.5 10.5t3.5 13.5q11 40 52.5 67.5t90.5 27.5q29 0 54 -10.5t40 -30.5q8 -10 11.5 -22t3.5 -24q0 -5 -0.5 -10.5t-2.5 -10.5v0z" />
<glyph unicode="4" horiz-adv-x="389" d="M372 429l-89 -310h42v-45h-55l-38 -133l-44 12l35 121h-205q29 141 120.5 229.5t233.5 125.5v0zM305 362q-79 -31 -142 -96t-89 -147h162l69 243v0z" />
<glyph unicode="5" horiz-adv-x="376" d="M359 386h-175q-3 0 -6.5 -2.5t-6.5 -6.5q-6 -6 -11 -16l-10 -20q-6 -16 -11 -29t-6 -16q16 8 33 13t35 5q26 0 47.5 -10t35.5 -30q11 -15 17 -33.5t6 -39.5q0 -11 -1.5 -22.5t-5.5 -23.5q-16 -56 -59.5 -97.5t-92.5 -50.5q-6 -1 -11.5 -1.5t-10.5 -0.5h-109v45h109 q39 0 72 29t50 64q3 6 5 12l4 12q2 9 3.5 18t1.5 17q0 14 -3.5 25t-10.5 20q-8 11 -20 16.5t-27 5.5q-8 0 -16 -1.5t-16 -4.5q-24 -9 -46.5 -29t-37.5 -47l-41 21l79 179q9 20 25.5 32t35.5 12h175v-45v0z" />
<glyph unicode="6" horiz-adv-x="371" d="M346 242q-19 -65 -71.5 -114t-111.5 -57q-6 -1 -11.5 -1.5t-10.5 -0.5q-31 0 -56 12.5t-42 34.5q-13 17 -19.5 39t-6.5 46q0 11 1.5 22t3.5 22q5 21 12 43t16 44q3 7 6.5 14.5t7.5 14.5q30 57 69.5 102t80.5 71q24 15 47.5 23t45.5 8q6 0 12 -0.5t12 -2.5l-11 -44 q-4 1 -7.5 1.5t-7.5 0.5q-10 0 -21 -3.5t-23 -8.5q-19 -10 -38.5 -25t-35.5 -31q-14 -13 -25.5 -26t-18.5 -23q21 11 43.5 17t44.5 6q30 0 55 -11.5t42 -34.5q13 -17 19.5 -38.5t6.5 -45.5q0 -8 -1 -17.5t-3 -18.5q-1 -4 -2 -8.5t-2 -9.5v0zM303 254q3 11 4.5 21.5t1.5 20.5 q0 17 -4.5 31.5t-12.5 25.5q-10 14 -25.5 21t-35.5 7q-6 0 -12 -0.5t-12 -2.5q-45 -9 -84.5 -47.5t-54.5 -88.5v-1.5v-0.5q-1 -1 -1 -1.5v-1.5t-0.5 -2t-0.5 -2q0 -2 -0.5 -3t-0.5 -2q-1 -4 -1.5 -7.5t-0.5 -6.5q-1 -4 -1 -7.5v-7.5q0 -16 4.5 -30.5t12.5 -25.5 q11 -13 27 -20.5t35 -7.5q7 0 13.5 1t13.5 2q43 11 82 49t53 87v0z" />
<glyph unicode="7" horiz-adv-x="341" d="M326 431l-186 -296q-4 -6 -13 -25t-19 -43q-3 -7 -5.5 -14t-5.5 -15q-4 -9 -7 -18.5t-6 -18.5l-43 13q25 83 67.5 156t89.5 144q1 2 2 3.5t2 3.5q10 16 21 32.5t21 32.5h-169q-2 0 -4 -1l-4 -2q0 -1 -0.5 -1.5t-1.5 -0.5q-2 -2 -3 -5.5t-1 -8.5v-2v-2l6 -79l-45 -4l-6 79 v4.5v4.5q0 13 4 24t12 19q8 10 19.5 15t23.5 5h63h63h62.5h62.5v0z" />
<glyph unicode="8" horiz-adv-x="383" d="M357 402l-44 11l6 22q2 5 2 8.5v5.5q0 3 -0.5 4.5t-1.5 1.5l-1.5 1.5l-0.5 0.5q-4 2 -9.5 3.5t-12.5 1.5q-11 0 -23.5 -2.5t-25.5 -6.5q-18 -6 -35.5 -15t-28.5 -19q-10 -10 -13.5 -19t-3.5 -15v-2t1 -2v-1v-1q4 -4 19 -19.5t32 -34.5l68 39l23 -39l-59 -34 q14 -15 24 -25.5l10 -10.5q19 -20 25.5 -39t6.5 -34q0 -10 -2 -18.5t-5 -14.5q-16 -36 -60.5 -58t-103.5 -22q-45 0 -74 5.5t-43 23.5q-3 4 -4.5 8t-3.5 8q-1 3 -1.5 7t-0.5 8q0 6 1 11l2 10q1 1 1.5 3t0.5 3q13 44 47 73t73 52q9 5 17.5 10t17.5 10q-6 6 -11.5 12.5 t-11.5 12.5t-11.5 12t-11.5 12q-5 6 -8 15t-3 19q0 7 1 14t4 14q4 10 10.5 20.5t15.5 19.5q16 15 43 28.5t56 20.5q11 3 22 4.5t22 1.5q13 0 24.5 -2.5t21.5 -8.5q15 -9 20.5 -21t5.5 -26q0 -6 -1 -11.5t-2 -11.5l-2 -8l-2 -8q0 -2 -0.5 -4t-1.5 -4v0zM267 167q1 2 1.5 4 t0.5 4q1 2 1 4v4q0 10 -5 20.5t-15 20.5l-12 13t-29 31q-20 -12 -34.5 -20.5l-14.5 -8.5q-54 -31 -72 -55t-23 -40q-1 -6 -1.5 -9.5t-0.5 -5.5v-3v-1q1 -1 3 -2t6 -2q7 -2 24 -4t48 -2q48 0 79 14.5t41 32.5q1 1 1.5 2.5t1.5 2.5v0z" />
<glyph unicode="9" horiz-adv-x="371" d="M349 260q-4 -21 -11 -43t-17 -44q-3 -7 -6.5 -14.5t-7.5 -14.5q-30 -57 -69.5 -101t-80.5 -70q-24 -16 -47.5 -24t-45.5 -8q-6 0 -12 0.5t-12 2.5l11 43q1 1 2.5 0.5t2.5 -0.5q2 0 4.5 -0.5t5.5 -0.5q22 1 51 15t58 42q14 13 27.5 28t26.5 32q-21 -11 -43 -18t-45 -7 q-30 0 -55.5 12.5t-42.5 34.5q-13 17 -19.5 38.5t-6.5 45.5q0 9 1 18t3 18q1 4 2 9t2 9q19 69 75 118.5t119 54.5h6h6q30 0 55.5 -12t41.5 -35q13 -17 20 -39t6 -46q0 -10 -1 -21.5t-4 -22.5v0zM306 277q1 4 1.5 7.5t0.5 7.5q1 3 1 6.5v7.5q0 17 -4.5 31t-12.5 25 q-10 14 -25.5 21t-35.5 7q-6 0 -12 -0.5t-12 -2.5q-45 -9 -84.5 -47.5t-54.5 -88.5q-3 -11 -4.5 -21.5t-1.5 -20.5q0 -16 4.5 -31t12.5 -26q11 -13 27 -20.5t35 -7.5q7 0 13.5 1t13.5 2q43 11 82 49t53 87v1.5t1 1.5v0.5v1.5t0.5 2t0.5 3q0 1 0.5 2t0.5 2v0z" />
<glyph unicode=":" horiz-adv-x="98" d="M89 97q0 -16 -11.5 -27t-27.5 -11t-27.5 11t-11.5 27q0 17 11.5 28t27.5 11t27.5 -11t11.5 -28v0zM89 277q0 -16 -11.5 -27t-27.5 -11t-27.5 11t-11.5 27q0 17 11.5 28t27.5 11t27.5 -11t11.5 -28v0z" />
<glyph unicode=";" horiz-adv-x="98" d="M91 97v-2v-2t-0.5 -2t-0.5 -2v-2t-1 -2l-20 -71h-47l14 48q-10 5 -16 14.5t-6 20.5q0 17 11.5 28t27.5 11t27 -11t11 -28v0zM89 277q0 -16 -11.5 -27t-27.5 -11t-27.5 11t-11.5 27q0 17 11.5 28t27.5 11t27.5 -11t11.5 -28v0z" />
<glyph unicode="&#x3c;" d="M379 111l-375 217v57l375 217v-92l-250 -154l250 -154v-91v0z" />
<glyph unicode="=" d="M400 207h-405v76h405v-76v0zM400 357h-405v76h405v-76v0z" />
<glyph unicode="&#x3e;" d="M381 328l-375 -217v91l251 154l-251 154v92l375 -217v-57v0z" />
<glyph unicode="?" horiz-adv-x="345" d="M113 97q0 -16 -11.5 -27t-27.5 -11t-27.5 11t-11.5 27q0 17 11.5 28t27.5 11t27.5 -11t11.5 -28v0zM324 520q3 -7 4.5 -15.5t1.5 -16.5v-4.5t-1 -5.5q-2 -22 -14 -43.5t-32 -38.5l-104 -87q-27 -23 -39 -52.5t-21 -60.5q0 -1 -0.5 -2.5t-0.5 -2.5l-44 12q11 40 26.5 76 t49.5 64l103 88q6 5 10.5 10t7.5 9q7 10 10 20t3 18q0 5 -0.5 8.5t-2.5 7.5q-4 11 -13 17.5t-21 6.5h-111h-3.5t-2.5 -1q-12 -2 -23 -12t-14 -21l-34 -117l-43 13l33 117q8 27 33 46.5t54 19.5h111q26 0 47 -14t30 -39v0z" />
<glyph unicode="@" horiz-adv-x="581" d="M554 332q0 -6 -0.5 -12.5t-0.5 -12.5q-9 -70 -57.5 -128.5t-123.5 -58.5q-18 0 -27 6.5t-16 19.5l-2 4l-2 4q-20 -16 -45.5 -26.5t-51.5 -10.5q-46 0 -67.5 32.5t-25.5 71.5q-1 6 -1.5 13t-0.5 13q0 80 56.5 139t135.5 59q20 0 30.5 -7t18.5 -17l4 -4l4 -4q3 -4 7 -7.5 t8 -6.5l8 31h40q-38 -106 -54.5 -151t-23.5 -78q-2 -6 -3.5 -13t-2.5 -15v-0.5v-1.5v-1.5v-0.5q0 -9 7 -13t15 -6h4h4q38 0 66 34.5t43 75.5q8 20 12 40t4 35q0 83 -63.5 133.5t-142.5 50.5q-99 0 -176.5 -69t-77.5 -171v-9q-1 -99 73.5 -159t164.5 -67q5 -1 11 -1h12 q62 0 102 23.5t76 64.5q2 4 4.5 7t5.5 6h40q-40 -68 -99.5 -102t-139.5 -34q-115 0 -202 73.5t-87 194.5q0 130 89.5 204t211.5 74q96 0 166 -62t70 -160v0zM373 347v1.5t-1 1.5q-5 25 -19 45.5t-43 20.5q-44 0 -77.5 -36.5t-48.5 -80.5q-6 -15 -9 -30.5t-3 -29.5 q0 -28 10.5 -52t40.5 -31l0.5 -0.5t1.5 -0.5h1.5h0.5q2 0 3.5 -0.5t2.5 -0.5q2 0 3.5 -0.5t2.5 -0.5q52 0 74 30.5t38 79.5q4 15 9 31t11 33q0 1 0.5 3t0.5 5v0.5v1.5v6t1 4v0z" />
<glyph unicode="A" horiz-adv-x="873" d="M895 633l-96 -337h61v-45h-75l-57 -201l-168 199l-9 -12q-46 -64 -115 -113.5t-220 -49.5h-173v46h173q104 0 171.5 30.5t127.5 113.5q7 9 10.5 12.5t4.5 6.5q0 2 -2.5 4.5t-7.5 8.5h18l265 366q8 11 17.5 18.5t19.5 11.5q7 3 13 4.5t12 1.5q14 0 24 -9t10 -29 q0 -6 -1 -12.5t-3 -14.5v0zM738 251h-120l90 -107q4 14 7.5 27t7.5 27q4 13 7.5 26.5t7.5 26.5v0zM853 650q-3 -2 -6 -5.5t-8 -8.5l-45 -62.5t-99 -136.5q-28 -39 -54.5 -76t-46.5 -65h157l101 350l1 4v0z" />
<glyph unicode="B" horiz-adv-x="657" d="M672 704q15 -13 21 -29t6 -35q0 -13 -2.5 -26.5t-7.5 -26.5q-10 -27 -26 -53t-33 -47q-9 -10 -17.5 -18.5t-16.5 -14.5l-113 -85q41 -25 74.5 -58.5t33.5 -80.5q0 -10 -1.5 -19.5t-5.5 -20.5q-23 -71 -97 -92t-158 -23h-12.5h-12.5h-271v45h271h1.5h0.5q20 0 47.5 0.5 t56.5 4.5q43 7 81 24t50 55q2 7 3 13t1 12q-1 34 -29 60t-62 46q-14 8 -27.5 15.5t-25.5 14.5q20 15 44.5 31.5t48.5 33.5q58 41 107 91t51 114q0 12 -2.5 21t-7.5 13q-5 5 -11.5 7t-14.5 2q-19 0 -43.5 -12t-49.5 -31q-14 -10 -27.5 -21t-26.5 -22q-23 -21 -42 -40.5 t-30 -31.5q-1 -5 -2.5 -9.5t-2.5 -9.5q-1 -2 -1.5 -4t-1.5 -4q-22 -77 -40.5 -140.5l-18.5 -63.5q-12 -41 -36.5 -72t-51.5 -43q-6 -2 -12.5 -3.5t-12.5 -1.5q-3 0 -6 0.5t-6 1.5t-7 2.5t-8 5.5q-7 5 -13 16t-6 29q0 7 1 14.5t3 16.5q16 63 61.5 135t119.5 153l53 184 l44 -12l-29 -102q9 9 23 21t31 25q19 14 41 27.5t44 22.5q14 6 28.5 9.5t28.5 3.5t27.5 -4t24.5 -14v0zM326 438q-8 -11 -22 -30.5t-29 -42.5q-7 -10 -13.5 -21t-12.5 -21q-14 -26 -24 -51t-10 -43q0 -4 0.5 -7.5t1.5 -6.5h1.5h1.5q23 0 42 35.5t33 77.5q12 36 20 68t11 42 v0z" />
<glyph unicode="C" horiz-adv-x="476" d="M548 663q1 -4 1.5 -8.5t0.5 -8.5q0 -40 -37 -72.5t-81 -56.5q-24 -14 -46.5 -25t-39.5 -19l-20 41q13 6 36 17t48 25t48 30t35 32q6 8 9 15t3 14v1.5v1.5q-1 1 -1 1.5v1.5t-0.5 1.5l-0.5 0.5q-3 4 -14 7.5t-31 3.5q-29 0 -62 -11t-67 -31q-70 -41 -133.5 -110.5 t-94.5 -144.5q-4 -9 -7.5 -19t-6.5 -19q-8 -27 -12 -51.5t-4 -46.5q0 -27 6.5 -49t18.5 -39q19 -24 50 -36t74 -12q18 0 37 3t39 9q28 8 55 21t49 29l27 -36q-29 -22 -65.5 -38.5t-74.5 -25.5q-17 -4 -34 -6t-33 -2q-54 0 -94.5 17t-65.5 50q-17 23 -25.5 52t-8.5 64 q0 25 4.5 52t12.5 57q1 2 1.5 4.5t1.5 4.5q31 99 111.5 189t171.5 136q33 16 66 25.5t63 9.5q41 0 60.5 -12t25.5 -26q2 -3 2.5 -5.5t1.5 -5.5v0z" />
<glyph unicode="D" horiz-adv-x="695" d="M687 304q0 -11 -0.5 -22t-2.5 -22q-10 -70 -65.5 -128t-198.5 -58h-387v46h18h18q11 -1 22.5 -1h23.5q63 1 121 19t89 86l155 333q-15 16 -34 37.5t-41 43.5q-14 14 -28.5 27.5t-28.5 25.5q-20 18 -40.5 32t-38.5 21q-16 7 -31 9.5t-27 2.5q-13 0 -22.5 -3.5t-12.5 -8.5 q-1 -1 -1.5 -3.5t-0.5 -5.5q0 -20 37 -68.5t146 -126.5l-26 -37q-10 7 -38.5 28t-61.5 50q-22 20 -43 42.5t-36 45.5q-11 17 -17.5 33.5t-6.5 32.5q0 8 2 15.5t6 14.5q10 18 30.5 27.5t46.5 9.5q17 -1 35.5 -4.5t37.5 -11.5q31 -13 76.5 -51t94.5 -87q11 -11 22 -22.5 t22 -23.5l35 76l41 -19l-43 -93q47 -52 82.5 -98.5t48.5 -72.5q11 -22 16.5 -45t5.5 -46v0zM642 304q0 18 -4.5 36t-13.5 35q-10 20 -40 59.5t-71 85.5q-10 -21 -20.5 -44t-21.5 -45q-39 -85 -72 -155.5l-33 -70.5q-12 -27 -30 -48t-42 -37h63.5h62.5q95 0 158.5 39.5 t63.5 144.5v0z" />
<glyph unicode="E" horiz-adv-x="512" d="M577 676q2 -4 2.5 -9t0.5 -10q0 -11 -3.5 -22t-8.5 -23q-6 -12 -14 -23.5t-16 -23.5q-7 -10 -13.5 -19.5t-12.5 -17.5l-38 25q5 7 12.5 17t15.5 22q2 3 4.5 6.5t4.5 7.5q10 15 17 29t7 23v0.5v1.5q-1 1 -1 1.5v0.5q-2 8 -7 12.5t-13 7.5q-5 2 -12.5 3t-15.5 1 q-19 0 -46 -7.5t-59 -26.5q-23 -13 -43 -28.5t-35 -30.5q-19 -18 -30.5 -35.5t-14.5 -31.5v-1.5v-0.5v-1.5v-1.5q0 -7 3.5 -15t9.5 -17q3 -4 6.5 -8.5t7.5 -9.5q6 -8 12 -15t10 -12q-20 -11 -45.5 -27t-52.5 -36q-51 -37 -94 -84.5t-43 -97.5q0 -8 1.5 -17t5.5 -18 q8 -18 24.5 -27t35.5 -13q11 -2 22 -3t20 -1h303v-46h-303q-8 0 -16 0.5t-16 1.5q-34 4 -65.5 20t-46.5 50q-4 12 -6.5 24t-2.5 25q0 32 15.5 67t44.5 70q27 32 65.5 64t87.5 62q-7 9 -12.5 16.5l-5.5 7.5q-5 8 -8 17.5t-3 19.5v4t1 5q0 2 0.5 4t0.5 4q3 16 13 33.5t25 35.5 q20 23 47 45t60 41q35 20 67 30.5t60 10.5q12 0 23 -2t21 -6q17 -6 29.5 -18.5t17.5 -29.5v0z" />
<glyph unicode="F" horiz-adv-x="507" d="M518 715q15 -8 22 -22t7 -36q0 -31 -12.5 -80t-33.5 -122l-12 -42t-11 -41l-12 -42l-12 -42h46v-45h-59l-121 -438l-44 12l118 426h-116v45h129q4 15 17.5 59.5t28.5 98.5l4 16l4 16q16 57 27.5 108.5t11.5 74.5q0 6 -1 9.5t-3 4.5q-4 2 -9.5 3t-13.5 1q-31 0 -83.5 -20 t-109.5 -60q-17 -12 -34.5 -26t-33.5 -30q-70 -67 -105.5 -125.5t-35.5 -85.5v0v0v-1v0v-2t1 -2q0 -1 0.5 -2t1.5 -2q4 -4 8 -5.5t8 -1.5h1.5h1.5q22 2 60 33.5t91 92.5q13 15 24.5 31t23.5 32q1 1 2 2.5t2 3.5q8 10 15.5 20.5t15.5 20.5l36 -28q-10 -12 -19 -24.5 t-18 -25.5q-11 -15 -22.5 -30.5t-24.5 -30.5q-63 -73 -106.5 -107t-76.5 -36h-0.5h-1.5h-1.5h-0.5q-13 0 -25 4.5t-23 14.5l-1.5 1.5l-1.5 1.5q-5 5 -9.5 14t-5.5 24v1.5v1.5q0 38 33 94t90 116q7 8 15 16l16 16q29 28 62.5 52.5t67.5 43.5q45 25 88.5 39.5t76.5 14.5 q13 0 24 -2.5t19 -7.5v0z" />
<glyph unicode="G" horiz-adv-x="646" d="M662 750q5 -10 8 -22t3 -25q0 -23 -9.5 -48t-30.5 -51q-18 -21 -44 -42.5t-62 -41.5l-22 40q10 6 24.5 15t30.5 22q26 21 47.5 48t21.5 56q0 8 -1.5 14.5t-5.5 13.5q-7 14 -21 21.5t-31 7.5q-10 0 -21 -3t-22 -8q-31 -15 -76 -44.5t-93 -80.5q-28 -31 -56 -70.5 t-53 -88.5q-32 -63 -45 -110t-13 -77q1 -15 3.5 -25.5t6.5 -17.5q1 -1 2 -2.5t2 -2.5q4 -4 10.5 -7t17.5 -3q27 0 56 11.5t59 33.5q46 33 90.5 88t79.5 124l42 -17q-13 -42 -25.5 -84.5t-25.5 -84.5t-25.5 -84.5t-25.5 -84.5h185l-20 -45h-183q-40 -81 -122.5 -133 t-173.5 -57h-7.5h-7.5q-25 0 -45 6t-34 19q-13 11 -20 27.5t-7 35.5q0 5 0.5 10t1.5 10q9 47 57 87t120 40h208q11 33 20.5 66t19.5 66q5 17 10 33.5t10 32.5l-10 -12t-10 -11q-41 -46 -98 -84.5t-119 -38.5q-24 0 -42 9.5t-29 28.5q-8 13 -12 30t-4 37q0 41 16 93.5 t47 113.5q27 53 57 95t61 75q51 55 99 87t81 47q17 8 33 11.5t31 3.5q32 0 55.5 -15t35.5 -38v0zM388 75h-186q-10 0 -21 -1.5t-22 -5.5q-34 -10 -62.5 -34.5t-28.5 -60.5q0 -9 3 -16.5t9 -12.5q8 -7 20.5 -10.5t28.5 -3.5h2.5h3.5q76 2 145.5 42t107.5 103v0z" />
<glyph unicode="H" horiz-adv-x="704" d="M725 262h-122l-65 -225l-43 13l60 212h-102q-37 -78 -114.5 -129t-162.5 -60q-9 -1 -17.5 -1.5t-17.5 -0.5q-25 0 -45 6.5t-34 18.5q-13 12 -20 28.5t-7 35.5q0 5 0.5 10t1.5 10q9 48 57 88t120 40h208q16 51 31.5 103.5t30.5 104.5q3 13 7 26.5t7 26.5q8 26 15.5 52 t14.5 52l43 -12l-102 -353h99l106 367l43 -13l-101 -354h109v-46v0zM401 262h-187q-10 0 -21 -1.5t-22 -5.5q-34 -10 -62.5 -34.5t-28.5 -60.5q0 -10 3 -17t9 -13q8 -7 20.5 -10t28.5 -3h5.5h5.5q75 3 144 44t105 101v0z" />
<glyph unicode="I" horiz-adv-x="494" d="M526 602l-20 -68t-44 -151q-5 -17 -10 -34.5t-10 -34.5q14 -7 29.5 -13t33.5 -11l-13 -44q-16 5 -31.5 10.5t-30.5 12.5q-14 -48 -23.5 -80l-9.5 -32q-9 -33 -37.5 -56.5t-61.5 -26.5h-3.5h-3.5h-266v46h266h3.5h3.5q18 3 34.5 17t21.5 32l10 36t25 88q-36 26 -53 62.5 t-17 85.5q0 14 1.5 28.5t3.5 30.5q2 14 12.5 45.5t26.5 66.5q22 44 53 81.5t70 37.5q11 0 20 -5t16 -13q6 -8 9 -19.5t4 -22.5v-4v-4v-2v-2q0 -12 -2 -23t-3 -19q-1 -5 -2 -8.5t-2 -6.5v0zM486 685q-7 0 -15 -4.5t-16 -12.5q-15 -15 -29.5 -39t-26.5 -50 q-12 -24 -19.5 -47.5t-10.5 -38.5q-2 -14 -3.5 -27t-1.5 -25q0 -32 10 -56.5t29 -43.5q3 12 7 24.5t7 25.5q1 1 1 2v2q24 83 44 151.5l20 68.5q5 15 6.5 27.5t1.5 21.5q0 8 -1 14t-3 7v0z" />
<glyph unicode="J" horiz-adv-x="521" d="M553 603l-16 -55t-35 -121q-12 -41 -23 -80t-18 -65q9 0 16 0.5t12 0.5q6 0 10 0.5t7 0.5q7 0 9 -2t1 -8q0 -3 -0.5 -6.5t-0.5 -8.5q0 -4 -0.5 -10t-0.5 -13q-9 1 -18 1h-18h-8h-7q-4 -1 -8 -1h-8q-9 -27 -25 -59.5t-37 -65.5q-17 -28 -35.5 -54.5t-38.5 -50.5 q-12 -15 -25 -29t-25 -26q-48 -45 -90 -68t-74 -23q-8 0 -15.5 1.5t-14.5 4.5q-3 2 -7 4.5t-7 5.5q-10 9 -18 26t-8 46v4.5v4.5q2 27 11.5 57t28.5 62q23 41 61.5 80.5t92.5 69.5q45 26 92.5 38t99.5 16q7 23 19 66t26 90q19 67 35 123l16 56q7 24 9 38t2 21q0 3 -0.5 5 t-0.5 3t-0.5 2l-0.5 1h-1.5h-3.5q-9 0 -18 -3.5t-18 -9.5q-20 -15 -40 -40t-34 -52q-11 -20 -17.5 -39.5t-7.5 -34.5q-1 -45 7.5 -81t27.5 -64l-37 -26q-24 35 -33.5 76t-9.5 83v3.5v3.5v3.5v3.5q1 19 8.5 43t20.5 49q25 49 65.5 89.5t85.5 41.5q30 1 40.5 -17.5t10.5 -42.5 v-7.5t-1 -7.5q-1 -12 -3 -23.5t-5 -21.5q0 -2 -0.5 -4t-1.5 -4v0zM398 233q-47 -5 -84 -16t-71 -31q-44 -25 -77 -57.5t-54 -65.5q-18 -30 -28 -57.5t-12 -51.5v-8.5t1 -9.5q0 -9 3 -17t10 -11q2 -2 5.5 -2h7.5q20 0 53.5 18.5t77.5 59.5q12 11 24.5 25t25.5 30 q17 21 33 44.5t31 47.5q17 27 31 53t23 49v0z" />
<glyph unicode="K" horiz-adv-x="801" d="M877 695l-347 -375l248 -281l-34 -30l-272 308q-28 -97 -114 -170t-191 -73q-37 0 -68.5 11t-56.5 31l29 35q20 -16 45 -23.5t51 -7.5q6 0 12.5 0.5t12.5 1.5q77 9 144.5 65.5t89.5 133.5l112 392l44 -13l-107 -372l368 398l34 -31v0z" />
<glyph unicode="L" horiz-adv-x="522" d="M551 541q-8 -21 -17 -40.5t-19 -38.5q-14 -26 -31 -52.5t-39 -56.5l-37 26q35 48 55 82.5t33 67.5q4 7 6.5 14.5t5.5 14.5q6 15 9 28.5t3 24.5q0 17 -6 28t-18 15q-4 2 -8 2.5t-9 0.5t-10.5 -1t-10.5 -3q-15 -5 -29.5 -18t-22.5 -34q-6 -14 -11.5 -28t-10.5 -28 q-7 -21 -14 -41.5t-14 -42.5q-15 -49 -32.5 -100.5t-46.5 -108.5l-4 -8t-5 -8q-18 -32 -44 -62.5t-59 -53.5h301v-46h-439v46q70 0 125 47t84 105q27 55 44.5 105t32.5 98q11 35 23 71t28 73q15 33 39.5 53t51.5 27q6 1 12.5 2t12.5 1q9 0 17.5 -1.5t15.5 -4.5 q21 -8 36.5 -29.5t15.5 -56.5q0 -15 -3 -32t-11 -37v0z" />
<glyph unicode="M" horiz-adv-x="626" d="M686 664q5 -7 7.5 -17.5t2.5 -24.5q0 -34 -14 -90t-37 -133l-120 -413l-44 13q15 52 30 103.5t30 103.5q15 51 30.5 102.5t30.5 103.5q4 13 10 33t13 43q3 8 5.5 16.5t4.5 17.5q7 27 12 52.5t5 43.5v8.5t-1 6.5q-8 -1 -16.5 -6t-16.5 -13q-20 -21 -42 -61t-48 -93 q-11 -23 -24.5 -49.5t-28.5 -54.5l-128 -244q-9 -16 -18 -23.5t-19 -7.5h-2.5t-2.5 1q-1 0 -2.5 0.5t-2.5 0.5q-9 4 -13 12.5t-4 21.5q0 12 3 27t8 34l52 185q5 17 10.5 35t10.5 37q1 1 1.5 2.5t0.5 2.5q1 5 3 10t3 10q3 10 6.5 20.5t7.5 21.5q1 6 3 12l4 12q10 32 17.5 62 t8.5 46q-15 -7 -58.5 -60t-124.5 -217q-21 -43 -57 -112.5t-93 -176.5q-4 2 -8.5 4.5t-8.5 4.5q-7 4 -13.5 7t-13.5 5l141 478q7 23 9.5 39.5t2.5 26.5q0 9 -1 14t-3 8q0 1 -0.5 2t-1.5 1h-1.5h-1.5q-6 0 -19.5 -9t-28.5 -29q-3 -4 -5.5 -8t-5.5 -9q-10 -17 -17.5 -32 t-13.5 -30t-11.5 -31t-10.5 -35l-44 11q8 31 18.5 58t24.5 54q4 7 7.5 13.5t7.5 13.5q13 22 28.5 39t31.5 27q10 6 20 9t19 3q5 0 10.5 -1t9.5 -3q13 -5 23 -19.5t10 -46.5q0 -15 -3 -34.5t-11 -44.5l-82 -278q7 13 13.5 25.5t12.5 25.5q7 12 13.5 24.5t12.5 25.5 q96 196 149 250.5t82 54.5h5.5t4.5 -1q7 -1 12 -5t9 -10q3 -5 4.5 -12t1.5 -15q0 -25 -12.5 -71t-35.5 -122q-8 -25 -15.5 -49t-14.5 -46l-8 -29t-18 -65q-2 -8 -4.5 -17t-4.5 -17q4 7 8 14.5t7 14.5q25 47 45.5 86l20.5 39q15 28 28 54t25 49q17 35 32.5 65.5t30.5 54.5 q24 37 48.5 58t56.5 21q9 0 17 -4t13 -11v0z" />
<glyph unicode="N" horiz-adv-x="458" d="M519 660q5 -9 7.5 -21t2.5 -27q0 -22 -5 -50t-15 -64l-147 -512l-43 13l146 511q11 39 15 64t4 38q0 8 -1 13.5t-2 8.5l-1.5 1.5t-0.5 1.5q-1 2 -1.5 2.5t-1.5 0.5h-1.5h-2.5q-22 0 -73.5 -51.5t-109.5 -153.5l-205 -363l-41 17l155 547l8 28h-1.5h-1.5q-6 0 -10.5 -1.5 t-8.5 -5.5q-5 -5 -9.5 -12.5t-10.5 -19.5t-12 -23.5t-12 -22.5q-7 -11 -13 -22.5t-12 -22.5q-8 -14 -16.5 -29.5t-17.5 -30.5q-4 -7 -8 -14.5t-8 -15.5l-40 21q12 23 24.5 46t25.5 45q6 11 11.5 21.5t11.5 20.5q6 11 11.5 21.5t11.5 20.5q0 1 0.5 2t1.5 1q13 26 29.5 46.5 t50.5 20.5q14 0 24 -4.5t16 -12.5q5 -6 6.5 -12.5t1.5 -13.5q0 -9 -2 -18.5t-5 -17.5q0 -2 -0.5 -3.5t-1.5 -3.5l-103 -363l110 196q4 7 8.5 14.5t8.5 14.5q25 40 53 78.5t57 66.5q26 25 51 40t47 15q4 0 7.5 -0.5t6.5 -1.5q10 -2 18 -8.5t13 -15.5v0z" />
<glyph unicode="O" horiz-adv-x="423" d="M533 644h-140q-77 0 -142.5 -63.5t-108.5 -140.5q-18 -33 -32 -66t-22 -60q-9 -30 -13 -57t-4 -50q0 -24 5 -43t15 -33q11 -15 28.5 -22t41.5 -7q23 0 62 18t81 57q32 29 62.5 71.5t54.5 98.5q29 68 38.5 111.5t9.5 68.5q0 14 -2 23t-5 14q0 1 -0.5 2t-1.5 2 q0 1 -0.5 1.5l-0.5 0.5q-4 5 -11.5 9t-23.5 4q-10 0 -21.5 -3.5t-23.5 -9.5q-27 -16 -52 -48t-38 -78q-3 -10 -4 -19t-1 -16q0 -9 1.5 -13.5t2.5 -6.5l-1 -44q-10 0 -19.5 4.5t-15.5 12.5q-7 9 -10 21.5t-3 26.5q0 11 1.5 22.5t5.5 23.5q20 71 68 119.5t101 53.5h4.5h4.5 q27 0 43.5 -9t25.5 -19q1 -2 2.5 -3.5t2.5 -3.5q8 -13 12.5 -29.5t4.5 -37.5q0 -36 -13 -85.5t-39 -111.5q-29 -70 -69 -121.5t-81 -85.5q-42 -34 -82.5 -50.5t-69.5 -16.5q-38 0 -62 12t-37 27q-2 2 -3.5 4.5t-3.5 4.5q-15 20 -22.5 46t-7.5 59q0 26 5 55.5t14 62.5 q1 4 2.5 8.5t2.5 8.5q42 129 137.5 237t206.5 108h140v-45v0z" />
<glyph unicode="P" horiz-adv-x="435" d="M542 632q3 -11 4.5 -23.5t1.5 -25.5q0 -25 -5.5 -52t-16.5 -55q-8 -21 -19.5 -42.5t-25.5 -41.5q-36 -53 -81 -93.5t-92 -64.5q-29 -14 -57 -22t-54 -8h-4t-3 1h-4h-4l4 46h3.5h3.5q2 -1 3.5 -1h3.5q7 0 14.5 1t14.5 2q48 10 93.5 43t80.5 71q12 13 22.5 26t18.5 25 q11 16 20 33t16 34q11 26 16.5 51.5t5.5 47.5q0 10 -1 19t-3 17q-1 4 -2.5 7.5t-2.5 7.5q-4 9 -11 16.5t-17 12.5q-4 2 -11.5 4t-16.5 2q-7 0 -16.5 -1.5t-20.5 -6.5q-37 -16 -105.5 -94t-149.5 -298l-75 -261l-44 12l73 255l46 159q12 44 18.5 100t6.5 117v5.5v5.5v5.5v5.5 l45 1v-8t1 -9v-8v-9q0 -15 -0.5 -30.5t-2.5 -31.5q-1 -16 -2.5 -31.5t-3.5 -30.5q52 89 97 131t79 56q15 7 29 9.5t26 2.5q14 0 26 -3t20 -7q21 -10 36 -29t22 -45v0z" />
<glyph unicode="Q" horiz-adv-x="562" d="M610 607q2 -7 3 -15.5t1 -17.5q-1 -44 -24.5 -99.5t-68.5 -116.5q-59 -82 -127 -136t-146 -100q32 -7 65 -10t69 -3q29 0 60 2.5t62 6.5l6 -45q-16 -2 -32.5 -4t-32.5 -3t-32.5 -1.5t-32.5 -0.5q-45 0 -89 5t-87 17l-41 -11q-12 -7 -29 -10.5t-35 -3.5q-5 0 -11 0.5 t-12 0.5q-11 2 -22 6.5t-18 13.5q-2 3 -3.5 6.5t-2.5 7.5v3.5v3.5v4.5t1 4.5q5 18 27 29t54 11q6 0 13.5 -0.5t15.5 -2.5q2 0 4 -0.5t4 -1.5h-1l8 -2t19 -5q2 0 4.5 -0.5t4.5 -1.5q88 49 162.5 104.5t138.5 142.5q41 55 62 105t21 86q0 6 -0.5 11.5t-1.5 9.5 q-4 14 -11.5 23.5t-21.5 16.5q-13 6 -25.5 9t-25.5 3q-46 0 -89.5 -30t-77.5 -66q-10 -12 -20 -23.5t-18 -21.5q-19 -25 -34 -48t-26 -45l-41 19q13 28 30 53.5t36 49.5q17 21 33.5 39.5t33.5 33.5q44 42 88.5 63.5t85.5 21.5q18 0 36 -4.5t34 -12.5q23 -11 37 -29t20 -42v0 zM111 107h-2.5h-2.5q-2 -1 -3 -1h-2h2.5h2.5t2.5 0.5t2.5 0.5v0z" />
<glyph unicode="R" horiz-adv-x="497" d="M586 629q1 -4 1 -8.5v-9.5q0 -18 -4 -37t-12 -38q-10 -26 -26.5 -51t-37.5 -48q-14 -15 -27.5 -27.5t-26.5 -23.5q-42 -34 -86 -55.5t-98 -40.5q-8 -3 -17 -6l-18 -6l172 -179l-33 -31q-52 54 -103.5 108t-104.5 108q-6 -12 -11.5 -24t-10.5 -24t-10.5 -24.5t-10.5 -24.5 q-12 -26 -24.5 -54t-27.5 -60l-42 16l175 610l44 -12l-95 -329q32 60 70 117t78 111q23 32 50 56.5t54 41.5q24 14 48 22t46 8q14 0 27 -3.5t24 -11.5q16 -11 25.5 -29t11.5 -41v0zM541 624q0 3 -0.5 6.5t-2.5 7.5q-1 7 -5 13t-10 10q-5 4 -12 5.5t-15 1.5q-20 0 -46 -11.5 t-53 -33.5q-16 -12 -31.5 -28.5t-29.5 -35.5q-59 -80 -96.5 -140.5t-63.5 -112.5q11 4 22.5 7.5t22.5 7.5q71 25 133 55.5t120 91.5q5 5 9.5 10.5t8.5 10.5q27 35 38.5 68t11.5 56v3v3q-1 1 -1 2.5v2.5v0z" />
<glyph unicode="S" horiz-adv-x="594" d="M655 648q0 -41 -32.5 -70t-70.5 -50q-6 -3 -11.5 -6t-11.5 -6l-20 41l20 10t25 14q21 14 38.5 31t17.5 37q0 7 -3 12.5t-9 9.5q-10 8 -28 12.5t-44 4.5q-17 0 -36.5 -2.5t-42.5 -7.5q-50 -13 -86.5 -35t-57.5 -45q-11 -13 -17 -25t-7 -23v-0.5v-1.5v-1.5v-0.5 q0 -6 1 -11.5t4 -11.5q9 -25 33 -48.5t50 -43.5q25 -19 47 -33t33 -23q37 -28 56 -63t18 -71q0 -16 -4 -32t-13 -32q-28 -49 -88 -76t-143 -27h-242v45h242q15 0 32 1.5t33 4.5q39 6 73.5 23.5t53.5 51.5q6 11 8.5 21.5t2.5 21.5q0 4 -0.5 8t-1.5 9q-4 20 -17.5 40.5 t-37.5 38.5q-15 12 -36 26t-43 30q-40 30 -73 67.5t-33 82.5v2v2v2v2q3 53 60 100t142 69q24 6 47 9t44 3q32 0 57.5 -6.5t42.5 -20.5q14 -11 21 -26.5t7 -32.5v0z" />
<glyph unicode="T" horiz-adv-x="436" d="M518 719l-380 -887l-42 18l344 803l-300 -72q-4 -1 -7.5 -2t-7.5 -2q-33 -9 -43.5 -18t-11.5 -12q-1 -4 17 -22t83 -47l-18 -41q-10 4 -25.5 11t-32.5 17q-26 15 -47.5 35.5t-21.5 45.5q0 3 0.5 6t1.5 7q6 22 26.5 35.5t43.5 21.5q8 3 16.5 5t15.5 4q98 23 195 46.5 t194 47.5v0z" />
<glyph unicode="U" horiz-adv-x="487" d="M528 645l-101 -352q-6 -23 -12 -50t-11 -55q-6 -32 -10 -62t-5 -54l-45 2q1 20 3 40t5 41q5 35 12 70.5t16 68.5q-8 -15 -16.5 -30t-17.5 -31q-41 -68 -93 -125t-117 -57q-22 0 -36 7.5t-22 15.5q-1 2 -2 3l-2 2q-10 14 -15 33.5t-5 41.5q0 23 4 48.5t10 50.5 q4 16 8 31.5t8 30.5q2 8 4.5 16t4.5 15q7 23 14.5 50.5t16.5 56.5q18 65 33 119l15 54q1 2 1.5 5t1.5 6q0 2 0.5 3.5t0.5 2.5q2 5 2.5 9t0.5 7v0h-1q-9 0 -20 -10.5t-23 -26.5q-7 -11 -14.5 -23.5t-14.5 -25.5q-14 -25 -24.5 -47.5t-15.5 -32.5l-41 20q8 16 18 38t23 45 q22 40 50.5 74t61.5 34q12 0 20 -4t13 -8l2 -2l2 -2q5 -7 7 -14.5t2 -15.5q0 -9 -1.5 -17t-3.5 -15q-1 -3 -1.5 -6t-1.5 -6l-74 -260q-4 -12 -8.5 -28t-9.5 -34q-4 -13 -7.5 -26.5t-6.5 -26.5q-5 -23 -8.5 -44.5t-3.5 -40.5q0 -15 3 -27.5t9 -20.5l1.5 -1.5t2.5 -1.5 q3 -3 8 -5t14 -2q47 0 89.5 48.5t77.5 106.5q12 20 23 39.5t20 36.5l1 1q7 13 26.5 58.5t40.5 98.5q1 1 1.5 2.5t0.5 2.5q9 23 18 44.5t17 41.5q12 29 21 51.5l13 32.5l43 -15v0z" />
<glyph unicode="V" horiz-adv-x="567" d="M614 696q-10 -42 -36 -126t-65 -175q-54 -126 -126.5 -230t-155.5 -104q-16 0 -28.5 5t-21.5 15q-10 13 -15 31.5t-5 44.5q0 19 2 42t6 51q5 32 9.5 64.5t9.5 63.5q1 6 2 12.5t2 12.5q5 31 9.5 63t8.5 64q4 25 6.5 50.5t3.5 50.5v2v3v4.5v4.5q0 5 -0.5 10t-2.5 7 q-1 2 -3.5 2h-6.5q-6 0 -10.5 -1.5t-7.5 -5.5q-4 -4 -8.5 -11t-10.5 -19l-101 -183l-40 22q8 15 16 29.5t16 28.5q17 29 33 58.5t31 58.5q0 1 0.5 1.5l1.5 1.5q0 1 1 2.5t2 3.5q13 23 29 41.5t48 18.5q14 0 24.5 -4.5t18.5 -12.5q7 -7 10.5 -16.5t4.5 -19.5q1 -3 1 -6.5 v-6.5v-4v-4q-1 -2 -1 -4v-4q-1 -16 -2.5 -32t-2.5 -33q-5 -42 -11 -83.5t-12 -83.5q-1 -6 -2 -12.5t-2 -12.5q-3 -16 -5.5 -32t-4.5 -31q-2 -16 -4.5 -32t-4.5 -32q-1 -5 -1.5 -11t-1.5 -12l-2 -16t-1 -16q-1 -9 -1.5 -17.5t-0.5 -16.5q0 -15 2.5 -26.5t6.5 -17.5 q1 0 1.5 -0.5t0.5 -1.5q2 -1 5 -2t9 -1q28 0 60 25t64 69q53 71 102.5 179.5t84.5 224.5q8 26 15 52t13 51l44 -11v0z" />
<glyph unicode="W" horiz-adv-x="792" d="M863 698q-6 -43 -31 -126.5t-64 -175.5q-52 -126 -125 -230.5t-154 -104.5q-10 0 -20 4.5t-17 13.5q-14 17 -19.5 47t-5.5 63v2.5v2.5q0 24 2.5 47t4.5 41q1 9 2.5 17t2.5 14q8 44 14.5 88.5t13.5 89.5q-7 -16 -14.5 -31.5t-14.5 -31.5q-21 -42 -42.5 -83.5t-44.5 -79.5 q-50 -87 -96.5 -145.5t-77.5 -58.5q-7 0 -14.5 3t-12.5 9q-7 8 -10.5 21.5t-3.5 34.5t3.5 51t10.5 71q2 10 4 19.5t4 19.5q3 16 6.5 32.5t7.5 32.5q3 13 5.5 26t5.5 25q6 28 12.5 56.5t12.5 57.5q5 28 10 56.5t8 56.5v2t1 3v2v2q0 8 -2 14.5t-5 10.5q-1 2 -2 2h-2 q-6 0 -14 -5t-16 -15q-5 -6 -10 -13.5t-10 -16.5q-10 -19 -20.5 -38t-21.5 -37q-2 -4 -4.5 -8t-4.5 -8q-8 -15 -17 -30t-17 -30l-40 22q8 15 17 30t17 30q2 4 4.5 7.5t4.5 7.5q11 19 21.5 37.5t20.5 37.5q1 1 1.5 2.5t1.5 2.5q14 26 36.5 47.5t50.5 21.5q11 0 21 -4.5 t17 -12.5t11 -18t6 -20q0 -5 0.5 -9.5t0.5 -8.5v-7.5t-1 -6.5q-2 -19 -5 -38.5t-6 -38.5q-7 -39 -15.5 -77.5t-17.5 -76.5q-2 -9 -4 -18.5t-4 -19.5q-4 -16 -7.5 -32t-6.5 -32q-3 -13 -5.5 -25.5t-4.5 -25.5q-7 -45 -10.5 -72.5t-3.5 -42.5q0 -7 0.5 -11.5t1.5 -7.5 q23 14 70 83.5t98 166.5q24 43 46.5 89.5t43.5 93.5q17 40 32.5 79.5t27.5 77.5l43 -11q-9 -53 -17.5 -106t-16.5 -106q-4 -28 -8.5 -56.5t-8.5 -57.5q-3 -14 -5 -28.5t-5 -28.5q-6 -34 -8.5 -64t-2.5 -54q0 -31 4 -51t10 -28q2 -1 2.5 -1.5l0.5 -0.5q27 0 59 27t65 72 q42 58 82 137.5t71 163.5q18 52 31.5 102.5t20.5 96.5l45 -7v0z" />
<glyph unicode="X" horiz-adv-x="606" d="M637 696l-1 -46h-3.5h-3.5h-3.5h-3.5q-41 0 -71 -12.5t-56 -48.5l-144 -190v-213q0 -25 7.5 -45t35.5 -20h187l-20 -46h-167q-49 0 -68.5 33t-19.5 78v153l-59 -78q-35 -46 -77.5 -85t-86.5 -76q-5 -4 -11 -9l-12 -10l-30 34q5 5 10.5 9t10.5 9q43 36 84.5 73t74.5 82 l29 38t67 88v248v0.5v1.5q-2 0 -6 -1t-9 -3q-1 -1 -2 -1.5t-2 -1.5q-22 -15 -38 -33.5t-28 -37.5l-10 -16t-9 -16l-39 23q20 34 42.5 64.5t55.5 52.5q8 6 17.5 9.5t19.5 5.5h4h4h5.5t5.5 -1t5.5 -1.5t5.5 -2.5q2 -1 4 -2.5t4 -2.5q5 -5 10 -14t5 -23v-187q9 12 20 26.5 t22 29.5q25 32 45 59l20 27q34 46 75 62.5t93 16.5h3h3h2.5h2.5v0z" />
<glyph unicode="Y" horiz-adv-x="717" d="M723 -7h-271q-37 -77 -114.5 -127.5t-162.5 -59.5q-9 -1 -17.5 -1.5t-17.5 -0.5q-25 0 -44.5 6t-33.5 19q-13 11 -20.5 27.5t-7.5 35.5q0 5 0.5 10t1.5 10q9 48 57.5 87.5t120.5 39.5h207q32 109 63 218.5t62 218.5q-6 -12 -13 -24t-13 -24q-13 -25 -26.5 -49t-28.5 -47 q-3 -5 -6.5 -10.5t-6.5 -10.5q-54 -88 -117.5 -160.5t-137.5 -72.5q-29 0 -40.5 20.5t-11.5 50.5q0 14 2 29.5t5 31.5t7.5 32t8.5 31q7 23 13.5 41t8.5 25q7 24 16 54.5t18 62.5q0 2 1 4t1 4q20 70 36.5 129t16.5 58q1 2 1.5 5.5t1.5 6.5q0 1 0.5 2.5t0.5 2.5q1 5 2 9.5 t1 7.5h-1v0q-9 0 -20.5 -11.5t-23.5 -28.5q-7 -10 -14 -22l-14 -24q-14 -25 -24.5 -47.5t-15.5 -32.5l-41 20q8 16 18.5 38t23.5 46q22 40 50 73.5t61 33.5q12 0 20 -4t13 -8l2 -2l2 -2q5 -7 7 -14.5t2 -15.5q0 -4 -0.5 -7.5t-0.5 -7.5q-1 -5 -2 -9t-2 -9q-1 -3 -1.5 -6 t-1.5 -6q-7 -26 -14.5 -52t-15.5 -52q-3 -13 -7 -26t-7 -26q-11 -40 -22.5 -79t-23.5 -78q-3 -11 -8 -28t-11 -36q-2 -7 -3.5 -14.5t-3.5 -14.5q-7 -26 -11.5 -50.5t-4.5 -40.5q0 -7 1 -12t3 -7q3 -1 6 -1.5t7 -0.5q17 0 37 12t40 31q17 17 34 37.5t33 41.5q26 35 46 67 t29 46q8 14 33.5 59.5t54.5 98.5q1 2 2.5 4t2.5 4q29 53 53.5 100.5t31.5 63.5l43 -15q-22 -79 -44.5 -158t-44.5 -158q-23 -79 -45 -158t-45 -158h254v-46v0zM401 -7h-187q-10 1 -20 -0.5t-21 -4.5q-35 -10 -64 -34.5t-29 -61.5q0 -9 3 -16.5t9 -12.5q8 -7 20 -10.5 t28 -3.5h2.5h3.5q77 2 147.5 43t107.5 102v-1z" />
<glyph unicode="Z" horiz-adv-x="641" d="M680 647q-1 -4 -2.5 -7.5t-4.5 -7.5q-6 -10 -14.5 -20.5t-18.5 -19.5q-7 -7 -13.5 -12.5t-12.5 -10.5l-79 -64t-174 -140q-96 -77 -175 -140.5l-79 -63.5l-6 -6l-6 -6q-7 -8 -11.5 -15.5t-5.5 -11.5q1 0 1.5 -0.5t1.5 -0.5q3 -1 7 -1.5t9 -0.5h508v-45h-508h-7.5t-7.5 1 q-15 2 -28.5 8.5t-18.5 22.5q-1 4 -2 7.5t0 7.5v4.5t1 5.5q3 14 12 28t19 24q4 4 7.5 7t6.5 6l507 408q22 18 33 31t15 20q-2 2 -5.5 3.5t-7.5 2.5q-21 8 -68 14.5t-117 6.5q-87 0 -151 -15t-82 -34q-2 -2 -3.5 -4.5t-2.5 -4.5q-1 -1 -1.5 -3.5t0.5 -4.5q0 -3 1 -6t4 -8 q3 -4 7 -7.5t9 -7.5q16 -11 44 -20.5t69 -13.5l-4 -45q-14 1 -29.5 3.5t-31.5 6.5q-30 8 -57.5 22t-43.5 37q-7 10 -10.5 20.5t-3.5 20.5q0 5 1 9.5t2 8.5q9 33 51 51.5t91 27.5q48 9 89.5 10.5t51.5 1.5q20 0 49 -1t60 -4q41 -4 78 -14t51 -28q4 -5 5.5 -11t1.5 -12v-4.5 t-1 -5.5v0z" />
<glyph unicode="[" horiz-adv-x="212" d="M110 -165h-150l270 937h150l-16 -55h-100l-238 -827h100l-16 -55v0z" />
<glyph unicode="\" horiz-adv-x="382" d="M272 0h-55l-207 772h55l207 -772v0z" />
<glyph unicode="]" horiz-adv-x="198" d="M64 -165h-150l16 55h100l238 827h-100l16 55h150l-270 -937v0z" />
<glyph unicode="^" horiz-adv-x="366" d="M346 609l-70 -72l-93 83l-93 -83l-70 72l163 163l163 -163v0z" />
<glyph unicode="_" horiz-adv-x="800" d="M815 -83h-830v76h830v-76v0z" />
<glyph unicode="`" horiz-adv-x="362" d="M248 612l-20 -19l-164 120l40 23l144 -124v0z" />
<glyph unicode="a" horiz-adv-x="534" d="M609 119l-13 -45h-297q-31 0 -42 14.5t-11 36.5q0 8 1 16t3 17q2 7 4 14.5t5 14.5q3 10 5.5 18.5t4.5 14.5l-12 -12l-13 -13l-55.5 -55.5l-25.5 -25.5q-25 -25 -45.5 -32.5t-34.5 -7.5q-7 0 -11.5 1t-7.5 2q-16 5 -25.5 19.5t-9.5 31.5v4.5t1 5.5q0 2 0.5 4.5t1.5 4.5 q1 4 2 7.5t2 8.5q4 14 7.5 31.5t8.5 34.5q12 43 35 79t70 36h193l-57 -198q0 -1 -0.5 -2t-0.5 -2v-2v-2q0 -7 5.5 -13t14.5 -6h297v0zM292 299l-148 -1q-10 0 -18 -4t-11 -15l-38 -132q-1 -1 -1 -2.5v-3.5q0 -7 4 -13t10 -8q2 -1 3.5 -1h3.5q3 0 6 1l6 2q5 3 10 7t9 8 q2 1 3 2l2 2l159 158v0z" />
<glyph unicode="b" horiz-adv-x="587" d="M635 120l-13 -45h-160.5h-134.5h-135h-162l136 472h45l-92 -321q10 11 24.5 24.5t31.5 28.5q16 12 32.5 24.5t33.5 22.5q20 13 40.5 20.5t37.5 7.5q4 0 8.5 -0.5t9.5 -2.5q9 -3 17 -13t8 -30q0 -7 -1.5 -16.5t-4.5 -20.5q-2 -8 -4.5 -16t-4.5 -16q-1 -6 -2.5 -11.5 t-2.5 -10.5q-7 -27 -17 -52.5t-29 -44.5h339v0zM310 271q0 1 1 3t1 5q1 2 1.5 4.5t1.5 5.5v3.5v3.5q0 5 -2 9t-7 4q-16 0 -43.5 -16t-57.5 -41q-18 -14 -35 -30t-32 -32q-16 -19 -28.5 -37t-17.5 -33h126q32 0 49 26.5t27 58.5q5 17 8 33t7 28q0 1 0.5 2.5t0.5 2.5v0z" />
<glyph unicode="c" horiz-adv-x="447" d="M490 119l-13 -45h-346q-63 0 -85.5 27.5t-22.5 67.5q0 15 2.5 31t6.5 32q3 14 7 27.5t8 27.5q6 16 10.5 30.5t8.5 26.5h165q22 0 29.5 -10.5t7.5 -25.5q0 -6 -1 -12l-2 -12q-1 -5 -2.5 -11t-3.5 -11q-2 -8 -4.5 -15t-3.5 -12h-46q1 2 3 7.5t5 13.5q1 3 1.5 5.5t1.5 4.5 q2 8 3.5 14.5t1.5 11.5q0 3 -0.5 4.5t-2.5 1.5h-120q-2 -9 -5.5 -18.5t-6.5 -20.5q-2 -6 -4 -13l-4 -14q-4 -13 -6 -26.5t-2 -25.5q0 -26 15.5 -43.5t58.5 -17.5h346v0z" />
<glyph unicode="d" horiz-adv-x="551" d="M609 119l-13 -45h-297q-31 0 -42 14.5t-11 35.5q0 7 1 14.5t3 15.5q1 7 3.5 14.5t4.5 14.5q2 9 4.5 16.5l4.5 13.5q-12 -11 -27 -26.5t-31 -31.5q-13 -12 -27 -24.5t-28 -22.5q-20 -15 -39.5 -24t-36.5 -9q-5 0 -9.5 1.5t-9.5 2.5q-14 5 -22 18.5t-8 30.5q0 5 1 9.5 t2 9.5l39 138q8 24 27.5 41.5t45.5 17.5h161l58 202h45l-115 -400q0 -1 -0.5 -2t-0.5 -2v-2v-2q0 -7 5.5 -13t14.5 -6h297v0zM292 298h-161q-7 0 -9.5 -3.5t-4.5 -9.5l-40 -138v-2v-1q-1 -1 -1 -2v-2q0 -6 2.5 -11.5t7.5 -7.5h1.5h1.5q0 -1 0.5 -1h1.5q8 0 18 6t21 16 l158 143l4 13v0z" />
<glyph unicode="e" horiz-adv-x="486" d="M561 119l-13 -45h-458q-30 0 -47 18t-16 44q0 5 1 10.5t2 11.5q5 17 16 32.5t26 26.5q-6 8 -9.5 17t-3.5 19v4t1 5q0 2 0.5 4t1.5 4q9 30 38.5 51.5t62.5 22.5h2h2h175l-13 -45h-175q-3 0 -7 -0.5t-8 -1.5q-10 -3 -19 -10t-12 -17q-1 -1 -1 -2.5v-3.5q0 -9 9 -15.5 t22 -6.5h109l-13 -46h-109q-16 0 -30.5 -11.5t-19.5 -26.5q-1 -3 -1.5 -5.5t0.5 -4.5q0 -13 8 -21t21 -8h458v0z" />
<glyph unicode="f" horiz-adv-x="482" d="M537 344l-13 -46h-329q26 -31 36.5 -68t10.5 -75q0 -25 -4 -49.5t-11 -48.5q-13 -43 -49 -71.5t-76 -30.5h-2h-2q-33 0 -52.5 20t-19.5 49q0 7 1 13.5t3 13.5l70 247h-57l13 46h57l58 202h46l-58 -202h378v0zM182 58q5 14 8 28.5t4 29.5q1 7 1.5 14.5t0.5 14.5 q0 38 -12.5 73t-42.5 62l-66 -229q-1 -4 -1.5 -7.5t-0.5 -7.5q0 -15 10 -25.5t28 -10.5q26 0 45 18t26 40v0z" />
<glyph unicode="g" horiz-adv-x="583" d="M625 119l-13 -45h-313q-7 0 -13.5 -0.5t-12.5 -1.5l-35 -123q-6 -20 -24 -36t-41 -16l-128 -1q21 74 68.5 130t123.5 81l33 113l-107 -106q-25 -25 -45 -32.5t-34 -7.5q-7 0 -11.5 1t-7.5 2q-16 5 -25.5 19.5t-9.5 33.5q0 4 0.5 8.5t1.5 8.5t2.5 9t2.5 10q4 15 7.5 31 t7.5 32q12 43 35 79t71 36h193l-65 -226q6 1 12.5 1h13.5h313v0zM223 57q-38 -16 -69.5 -46.5t-48.5 -68.5l81 -1l2.5 2.5l2.5 2.5q0 1 0.5 2t0.5 2l31 107v0zM292 298h-147q-10 0 -18 -4t-11 -15l-38 -132q-1 -1 -1 -2.5v-3.5q0 -7 4 -13t10 -8q2 -1 3.5 -1h2.5q3 0 7 1 t7 3q5 3 9.5 6.5t8.5 7.5q2 1 3 2l2 2l158 157v0z" />
<glyph unicode="h" horiz-adv-x="540" d="M575 119l-13 -45h-253q-25 0 -37 13t-12 32q0 7 1.5 14t3.5 14l37 132q1 2 1.5 5t0.5 7q0 5 -1.5 10t-6.5 6q-6 2 -17 -4.5t-23 -20.5l-190 -208h-39l136 472h45l-108 -375l124 135q26 29 47 37.5t34 8.5q5 0 9 -0.5t7 -1.5q15 -4 23 -17t8 -30q0 -6 -1 -12t-3 -12 l-38 -132q-1 -4 -2 -8.5t-1 -7.5q0 -6 3.5 -9t11.5 -3h253v0z" />
<glyph unicode="i" horiz-adv-x="311" d="M356 119l-13 -45h-274q-24 0 -38 14.5t-14 36.5q0 3 0.5 6t0.5 6q1 1 1.5 3t0.5 3l61 215h46l-62 -215q0 -1 -0.5 -2l-0.5 -1v-2v-2q0 -7 5 -12t13 -5h274v0zM161 428q0 -18 -13 -31t-32 -13t-32 13t-13 31q0 19 13 32t32 13t32 -13t13 -32v0z" />
<glyph unicode="j" horiz-adv-x="566" d="M600 119l-13 -45h-304q-7 0 -13.5 -0.5t-12.5 -1.5l-35 -123q-6 -20 -24 -36t-41 -16l-128 -1q21 74 68.5 130t123.5 81l49 169l-202 -193l-28 27l258 247h41l-69 -239q6 1 12.5 1h13.5h304v0zM207 57q-38 -16 -69.5 -46.5t-48.5 -68.5l81 -1l2.5 2.5l2.5 2.5q0 1 0.5 2 t0.5 2l31 107v0zM373 428q0 -18 -13 -31t-32 -13q-18 0 -31.5 13t-13.5 31q0 19 13.5 32t31.5 13q19 0 32 -13t13 -32v0z" />
<glyph unicode="k" horiz-adv-x="653" d="M215 546l-136 -472h-46l137 472h45v0zM702 119l-13 -45h-409q-25 0 -34 10.5t-9 26.5q0 7 1.5 14.5t3.5 15.5q1 5 2.5 10t3.5 10q4 13 7 24t3 18q0 4 -1.5 6t-5.5 2h-5h-7q-3 -1 -7 -1h-8h-4h-4q-14 1 -26 5t-15 14q-1 2 -1 3.5v2.5q0 8 5 17t15 19l99 103l30 -26 l-88 -91h29q24 0 33 -10.5t9 -25.5q0 -8 -2 -16l-4 -16q-1 -5 -2.5 -9t-2.5 -8q-4 -13 -7.5 -24.5t-3.5 -18.5q0 -4 2.5 -7t6.5 -3h409v0z" />
<glyph unicode="l" horiz-adv-x="299" d="M356 119l-13 -45h-274q-24 0 -38 15t-14 36q0 5 1 9.5t2 8.5l115 404h46l-116 -404q0 -1 -0.5 -2l-0.5 -1v-2v-2q0 -7 5 -12t13 -5h274v0z" />
<glyph unicode="m" horiz-adv-x="691" d="M738 119l-13 -45h-225q-49 0 -66.5 21.5t-17.5 52.5q0 12 2 25t5 26q3 10 5.5 19.5t5.5 19.5q4 11 7 21.5t6 20.5q1 2 1 3.5v3.5q0 6 -3.5 11.5t-10.5 6.5h-1.5h-2.5q-7 0 -14 -5t-11 -12q-1 0 -1.5 -0.5t-0.5 -1.5l-149 -212h-45l59 206q0 1 0.5 2t0.5 2v2v2 q0 6 -2.5 11t-8.5 6h-2h-2q-5 -1 -10 -4.5t-9 -7.5l-4 -4t-3 -4l-161 -211h-32l78 270h45l-39 -136l73 96q6 8 12 14t12 11q14 12 27.5 16.5t25.5 4.5h6t5 -1q20 -4 27.5 -18t7.5 -33q0 -8 -1.5 -16.5t-3.5 -16.5q-2 -9 -4.5 -17.5t-4.5 -16.5q-4 -12 -7.5 -22t-5.5 -17 l78 111q8 11 16.5 19t16.5 14q12 7 23.5 10.5t21.5 3.5h6t6 -1q22 -4 30 -18.5t8 -33.5q0 -8 -1 -16t-3 -16q-2 -9 -4.5 -17.5t-5.5 -16.5q-3 -11 -6.5 -21t-5.5 -17q-3 -11 -5 -20.5t-2 -17.5q0 -17 12 -26.5t40 -9.5h225v0z" />
<glyph unicode="n" horiz-adv-x="554" d="M602 119l-13 -45h-271q-49 0 -67 19t-18 47q0 11 2 23.5t5 25.5q2 8 4.5 15.5t5.5 15.5q6 20 11 37t5 29q0 8 -3 12.5t-9 5.5h-1.5t-0.5 1h-1.5h-1.5q-6 0 -12 -4t-11 -9q-1 -2 -2.5 -3.5t-2.5 -3.5l-160 -211h-32l77 270h46l-39 -136l73 96q7 9 13.5 15.5t13.5 11.5 q13 11 26.5 15t24.5 4h7t6 -1q21 -5 29 -17.5t8 -29.5q0 -15 -4.5 -31.5t-9.5 -33.5q-1 -2 -1.5 -4t-0.5 -4q-7 -19 -12 -37t-5 -33q0 -18 11 -29t39 -11h271v0z" />
<glyph unicode="o" horiz-adv-x="498" d="M545 119l-13 -45h-404q-55 0 -79 32t-23 75q0 14 2 28t6 28q7 24 16 46.5t30 38.5q14 11 31.5 16.5t39.5 5.5h269l-13 -46h-269h-6t-5 -1q-6 -1 -11.5 -2.5t-10.5 -5.5q-8 -7 -14 -20.5t-11 -30.5q-2 -8 -4 -18t-3 -21v-4.5v-5.5q0 -27 13 -48.5t47 -21.5q48 0 75.5 34 t42.5 74q2 8 4.5 15.5t4.5 14.5h46q-12 -40 -27.5 -74t-50.5 -64h317v0z" />
<glyph unicode="p" horiz-adv-x="575" d="M646 120l-13 -46h-420h-120l-51 -179h-46l133 463h46l-35 -120q9 10 21.5 21.5t27.5 23.5q16 14 34.5 27t37.5 23q18 10 35.5 15.5t33.5 5.5q3 0 8.5 -0.5t11.5 -3.5q8 -3 15.5 -12t7.5 -28q0 -7 -1.5 -15.5t-4.5 -18.5q-2 -6 -3.5 -12t-2.5 -13q-2 -8 -4 -16.5t-5 -17.5 q-7 -26 -17 -52t-27 -45h338v0zM322 276q0 1 0.5 2.5t1.5 3.5q0 2 0.5 5t1.5 6v2.5v2.5q0 5 -2 8t-7 3q-16 0 -43 -15t-57 -38q-24 -20 -46.5 -43t-39.5 -47q-8 -12 -14 -23.5t-10 -22.5h119q34 0 52 28t27 61q5 16 8.5 31.5t6.5 28.5q1 2 1.5 3.5t0.5 3.5v0z" />
<glyph unicode="q" horiz-adv-x="606" d="M690 119l-13 -45h-271q-53 0 -100 -37t-62 -88l-45 -1l67 232q-9 -10 -21.5 -21.5t-27.5 -23.5q-16 -14 -34.5 -26.5t-37.5 -23.5q-18 -9 -35.5 -15t-33.5 -6q-3 0 -8.5 0.5t-11.5 3.5q-9 4 -16 13t-7 28q0 7 1 15.5t4 18.5q1 5 2.5 9.5t2.5 9.5q3 11 6 21.5t6 22.5 q15 51 43.5 94.5t94.5 43.5h165l-80 -280q29 24 66 39.5t75 15.5h271v0zM299 299h-119q-34 0 -52 -27.5t-28 -61.5q-5 -17 -8.5 -33.5t-6.5 -28.5q0 -2 -0.5 -3t-0.5 -2t-0.5 -2.5t-1.5 -3.5q0 -2 -0.5 -5t-1.5 -6v-2.5v-2.5q0 -5 2 -8.5t7 -3.5q16 0 43 15t57 39 q24 19 47 43t39 48q8 12 14 23t10 22v0z" />
<glyph unicode="r" horiz-adv-x="554" d="M601 119l-13 -45h-284q-43 0 -59 22t-16 53q0 11 1.5 23t4.5 24q3 13 6.5 26t7.5 24q5 16 9.5 29.5l7.5 22.5h-119l-49 -170q-7 -22 -26.5 -38t-42.5 -16l13 45h1.5h0.5q3 1 5 3.5t3 5.5l77 267h45l-14 -51h220l-13 -46h-56l-35 -122q-1 -4 -1.5 -7.5t-0.5 -7.5 q0 -17 12 -29.5t31 -12.5h284v0z" />
<glyph unicode="s" horiz-adv-x="548" d="M601 119l-13 -45h-213.5h-213.5l13 45h6h6h5h5q27 0 51 7.5t34 40.5q0 2 0.5 3t0.5 3v2.5v2.5q0 11 -5 23t-12 24q-3 5 -6.5 10t-6.5 11q-8 11 -15 22t-11 21q-4 -6 -8.5 -12t-8.5 -11q0 -1 -0.5 -1.5l-1.5 -1.5q-36 -50 -66 -92.5l-30 -42.5q-23 -34 -45 -44t-37 -10 l13 45q7 0 13 5t11 11q2 3 4.5 6t3.5 5l192 269l37 -17l-34 -48q-1 -4 -2 -7.5t-1 -7.5q0 -10 5 -20t10 -19q2 -3 3.5 -5.5t3.5 -5.5q3 -5 5.5 -9.5t5.5 -9.5q3 -4 5 -7.5t5 -7.5q8 -14 14.5 -29t6.5 -32q0 -5 -1 -11t-3 -12q-4 -13 -11 -25t-16 -23h302v0z" />
<glyph unicode="t" horiz-adv-x="374" d="M434 119l-13 -45h-280q-43 0 -59 21.5t-16 52.5q0 11 2 23l4 24q3 13 6.5 25.5t7.5 24.5q5 15 9.5 29t7.5 24h-82l13 46h82l41 143h46l-41 -143h83l-13 -46h-83l-35 -122q-1 -4 -1.5 -8t-0.5 -8q0 -17 11.5 -29t30.5 -12h280v0z" />
<glyph unicode="u" horiz-adv-x="559" d="M610 119l-13 -45h-296q-30 0 -41 15.5t-11 37.5q0 9 1.5 19t3.5 21q2 9 5 18.5t6 17.5q4 13 7.5 23.5t5.5 17.5q-4 -5 -8.5 -10.5t-8.5 -11.5q-22 -27 -44.5 -53.5t-47.5 -50.5q-7 -7 -15 -13.5t-15 -11.5q-16 -10 -31 -15t-29 -5q-5 0 -10 1l-10 2q-14 6 -22 18t-8 28 v5.5t1 4.5q0 2 0.5 4.5t1.5 5.5l58 202h45l-58 -202q0 -1 -0.5 -2l-0.5 -1v-2v-2q0 -5 2.5 -9t7.5 -6q2 -1 3.5 -1h3.5q8 0 20 6t28 20q15 15 32.5 34.5t34.5 40.5l18 22t17 22q16 21 31 41.5t27 38.5h51l-57 -198q0 -1 -0.5 -2t-0.5 -2v-2v-2q0 -7 5.5 -13t14.5 -6h296v0z " />
<glyph unicode="v" horiz-adv-x="523" d="M587 120l-13 -46h-546l63 220l-0.5 1l-0.5 1q-1 1 -1.5 2t-1.5 1h-54l13 45h55q17 0 27 -11t10 -27q0 -3 -0.5 -6t-1.5 -6l-49 -173q88 9 145.5 75.5t80.5 145.5h45q-19 -67 -58.5 -125.5t-98.5 -96.5h386v0z" />
<glyph unicode="w" horiz-adv-x="694" d="M758 119l-13 -45h-148h-121h-122h-148l25 87q-40 -44 -87.5 -65.5t-107.5 -21.5l63 220v0.5v1.5t-0.5 1.5l-0.5 0.5h-42l13 46h45q17 0 25 -12t8 -26q0 -3 -0.5 -6t-1.5 -6l-50 -173q57 10 97.5 56t64.5 99q8 17 14.5 34t11.5 33h45l-63 -222q56 10 96.5 55.5t65.5 98.5 q8 17 14 33.5t11 32.5h45q-1 -5 -3 -10.5t-3 -10.5q-19 -57 -52.5 -111t-82.5 -90h402v0z" />
<glyph unicode="x" horiz-adv-x="516" d="M576 119l-13 -45h-269q-26 0 -46 13t-31 37l-6.5 16.5t-16.5 39.5q-27 -25 -45 -41l-18 -16q-19 -17 -35.5 -27.5t-32.5 -15.5q-9 -3 -18 -4.5t-18 -1.5l13 45q12 0 26.5 7.5t30.5 18.5q8 6 16 13l16 14q15 14 27.5 26.5t20.5 19.5l-30 72q0 1 -0.5 2t-1.5 2q-1 2 -2 3 l-1 1h-94l13 46h94q14 0 23 -8t14 -20l8 -18t18 -43l98 89h58q-12 -11 -45.5 -41.5t-72.5 -65.5l-2 -2l-2 -2q-5 -4 -9.5 -8t-8.5 -8q11 -27 19.5 -46.5l8.5 -19.5q7 -16 18.5 -24t26.5 -8h269v0z" />
<glyph unicode="y" horiz-adv-x="570" d="M620 119l-13 -45h-312h-6.5t-6.5 -1q-3 0 -6.5 -0.5t-6.5 -0.5q-4 -13 -8.5 -35t-11.5 -45q-10 -35 -28.5 -65t-51.5 -30l-128 -1q21 74 69 130t124 81l36 126q-26 -34 -55.5 -63.5t-62.5 -56.5q-25 -22 -44 -29t-32 -7q-7 0 -12 1.5t-9 2.5q-12 5 -18.5 17t-6.5 27 q0 5 1 10.5t2 11.5l56 197h45l-56 -197q0 -1 -0.5 -2.5t-0.5 -3.5v-1.5v-1.5q0 -4 1.5 -8.5t5.5 -6.5q6 -2 17.5 3t26.5 18q27 22 48.5 43t38.5 42q23 27 41.5 54t36.5 56q1 1 1.5 2.5t1.5 2.5h51l-65 -226q3 0 6.5 0.5t6.5 0.5h6.5h6.5h312v0zM219 57q-38 -16 -69.5 -46.5 t-48.5 -68.5l81 -1q3 1 7.5 12t8.5 26q2 5 3.5 10.5t3.5 10.5q5 19 9 35.5t5 21.5v0z" />
<glyph unicode="z" horiz-adv-x="450" d="M499 119l-13 -45h-417h-4h-4q-13 2 -23.5 8.5t-13.5 19.5v1.5v1.5q-1 1 -1 2v2q0 8 5.5 20.5t21.5 27.5l153 141h-147l13 46h241l-232 -215q-5 -4 -4.5 -7t5.5 -3h1.5h1.5h417v0z" />
<glyph unicode="{" horiz-adv-x="204" d="M65 -172h-17q-34 1 -48 14t-14 40q0 24 9 60t23 84l31 107q3 9 5.5 18.5t4.5 19.5l4 26t2 24q0 20 -7 33.5t-26 13.5l19 64q28 0 48 29.5t34 65.5q3 10 6.5 20.5l6.5 19.5l30 107q7 25 13.5 46.5t13.5 40.5q19 57 43.5 84t74.5 27h17l-11 -35q-27 0 -45 -16t-26 -44 l-40 -141q-7 -23 -13 -44.5t-12 -40.5q-20 -61 -42 -100.5t-59 -50.5q14 -4 19 -19t5 -38q0 -34 -10 -80t-24 -95q-2 -9 -4.5 -18t-5.5 -18q-3 -10 -5.5 -19.5t-5.5 -17.5l-20 -72q-2 -6 -3 -12t-1 -11q0 -17 10.5 -26.5t30.5 -9.5l-11 -36v0z" />
<glyph unicode="|" horiz-adv-x="130" d="M95 -171h-50v943h50v-943v0z" />
<glyph unicode="}" horiz-adv-x="266" d="M227 268q-28 0 -48.5 -29.5t-33.5 -65.5q-4 -10 -7 -20.5t-6 -19.5l-31 -107q-7 -24 -13 -44.5t-12 -38.5q-20 -58 -44.5 -86t-73.5 -28l-18 -1l10 35q28 1 46 17t26 44l20 70q5 17 10 35t11 35q24 83 54.5 153.5t69.5 82.5q-16 6 -23 20t-6 35q0 32 12 77.5t28 103.5 l41 141q2 7 3 13t1 11q0 17 -10.5 26.5t-30.5 9.5l11 35h17q35 0 49 -13t14 -40q-1 -24 -10.5 -60t-23.5 -85l-30 -107q-3 -10 -5.5 -20t-4.5 -20q-3 -13 -4.5 -25t-1.5 -23q0 -20 7 -33.5t26 -13.5l-19 -64v0z" />
<glyph unicode="~" horiz-adv-x="485" d="M485 321q-36 -44 -74 -61.5t-82 -17.5q-29 0 -51 11t-41 24q-4 2 -7.5 4t-6.5 5q-16 10 -32 17.5t-36 7.5q-25 0 -49.5 -10.5t-47.5 -39.5l-55 48q34 42 72 58.5t81 16.5q30 0 51.5 -10.5t41.5 -22.5q3 -3 6.5 -5t7.5 -5q15 -10 31 -17t36 -7q19 0 37 5.5t36 20.5 q6 5 12 11t12 13l58 -46v0z" />
<glyph unicode="&#xa1;" horiz-adv-x="204" d="M3 -106l107 371l44 -12l-103 -359h-48v0zM119 357q0 16 11.5 27t27.5 11t27.5 -11t11.5 -27t-11.5 -27.5t-27.5 -11.5t-27.5 11.5t-11.5 27.5v0z" />
<glyph unicode="&#xa2;" horiz-adv-x="384" d="M327 746l-77 -271h33q21 0 29 -10.5t7 -25.5q0 -6 -1 -12.5t-3 -13.5q-1 -5 -2.5 -10t-2.5 -10q-2 -7 -4.5 -14t-3.5 -12h-45q0 1 2.5 8t5.5 16q1 2 1.5 4t1.5 4q2 7 3.5 14t1.5 12q0 2 -0.5 3.5t-2.5 1.5h-34l-51 -179h2.5h2.5h2.5h2.5h78l-13 -46h-78h-2.5t-2.5 1h-2.5 h-2.5l-108 -380h-47l111 387q-30 11 -42 34.5t-12 52.5q0 14 2.5 29t5.5 30t7.5 30t9.5 29q5 16 9.5 30.5t8.5 26.5h86l78 271h46v0zM190 430h-40q-2 -8 -5 -17t-7 -19q-2 -8 -4.5 -16.5t-5.5 -17.5q-3 -12 -5 -24.5t-2 -23.5q0 -15 5 -28t17 -21l47 167v0z" />
<glyph unicode="&#xa3;" horiz-adv-x="644" d="M611 74h-582v45h79h6.5t7.5 1q43 6 81.5 40t57.5 74q2 6 4 11.5t4 11.5l4 12t8 28h-113v45h125q2 4 2.5 7.5t1.5 7.5q22 79 56.5 126t70.5 69q19 11 37 16t35 5q30 0 58 -4.5t45 -27.5q8 -10 11.5 -23t3.5 -30q0 -13 -2.5 -29t-7.5 -35l-14 -50l-44 13l14 49q5 17 7 30 t2 22q0 10 -2 16t-4 9q-7 9 -24 12t-43 3q-45 0 -77 -35.5t-52 -77.5q-9 -20 -16 -39t-11 -34h112v-45h-124l-15 -52q-1 -4 -2.5 -9t-3.5 -9q-11 -29 -32.5 -57.5t-49.5 -50.5h386v-45v0z" />
<glyph unicode="&#xa4;" horiz-adv-x="454" d="M433 428l-37 -26q-12 17 -30.5 27t-39.5 14q-2 0 -4.5 0.5t-4.5 0.5h-5.5h-4.5q-13 0 -26 -2t-26 -6q-19 -6 -38.5 -15.5t-37.5 -23.5q-14 -11 -26.5 -24t-22.5 -27h226v-46h-250q-2 -4 -3.5 -9t-3.5 -10h238v-45h-243q1 -16 5.5 -30.5t13.5 -26.5q11 -16 29 -27t41 -14 q5 -1 10.5 -1.5t11.5 -0.5q11 0 22.5 2t23.5 5q20 6 40 16t38 24l28 -35q-32 -25 -72 -41t-82 -16q-7 0 -13.5 0.5t-13.5 1.5q-31 5 -57 20t-43 39q-13 19 -20 40t-8 44h-27v45h31q3 13 5 16.5t-3 3.5h-2h-3q-2 -1 -4.5 -1h-5.5v46h37q14 25 33.5 47t42.5 40q26 20 55 33.5 t59 18.5q10 2 19.5 3t19.5 1h6.5t7.5 -1q4 0 7.5 -0.5t6.5 -0.5q32 -4 58 -19.5t42 -39.5v0z" />
<glyph unicode="&#xa5;" horiz-adv-x="488" d="M466 300l-24 -46h-91q-6 0 -12.5 -0.5t-13.5 -1.5q-1 -4 -1.5 -8.5t-2.5 -9.5h119l-26 -46h-104q-1 -5 -2.5 -9.5t-2.5 -9.5q-10 -35 -28.5 -64t-50.5 -29h-129q9 32 22.5 60t32.5 52h-130l26 46h147q20 17 43.5 30.5t51.5 22.5l36 126q-25 -33 -55 -63t-62 -57 q-24 -20 -42.5 -27.5t-31.5 -8.5h-1h-2h-3h-94l26 46h25q0 5 1 11.5t2 13.5l57 196h45l-56 -196q-1 -2 -1 -5v-6q0 -4 1 -8t5 -6h0.5h1.5q1 -1 1.5 -1h0.5q7 1 17.5 6.5t22.5 15.5q27 22 48.5 43t39.5 42q23 27 41.5 54t36.5 56q1 1 1.5 2.5t1.5 2.5h50l-64 -226q3 0 6 0.5 t7 0.5q3 1 6 1h6h102v0zM276 237q-38 -16 -69.5 -46.5t-48.5 -69.5h81q3 0 7.5 12.5t9.5 29.5q1 4 2.5 8.5t2.5 8.5q5 19 9 35.5t6 21.5v0z" />
<glyph unicode="&#xa6;" horiz-adv-x="500" />
<glyph unicode="&#xa7;" horiz-adv-x="418" d="M403 206q0 -93 -63.5 -151.5t-144.5 -58.5q-55 0 -88.5 11t-56.5 24l55 106q2 -1 4 -2.5t4 -2.5q10 -7 22 -9.5t28 -2.5q18 0 31.5 16t15.5 35v2.5v2.5q0 5 -0.5 9.5t-0.5 8.5q-4 27 -23 58t-65 81q-11 12 -21.5 24t-19.5 23q-31 38 -48 80t-17 106q0 93 63.5 152 t144.5 59q55 0 88.5 -11t56.5 -25l-55 -106q-2 2 -4 3l-4 2q-10 7 -21.5 9.5t-28.5 2.5q-18 0 -31.5 -16t-15.5 -35v-2.5v-2.5q0 -5 0.5 -9.5t0.5 -8.5q4 -27 23 -58t65 -81q11 -12 21.5 -24t19.5 -23q31 -38 48 -80t17 -106v0zM318 206q0 26 -4 47t-14 41q-9 19 -25.5 40 t-40.5 47q-8 8 -15.5 16.5t-14.5 17.5q-35 40 -58 83t-23 98q0 8 1 17.5t4 18.5q2 8 5 16t8 15q-21 -22 -30.5 -45t-9.5 -49t4 -47t14 -40q9 -20 25.5 -41t40.5 -47q8 -8 15.5 -16.5t14.5 -17.5q35 -40 58 -83t23 -98q0 -8 -1 -17.5t-4 -18.5q-2 -8 -5 -16t-8 -15 q21 22 30.5 45t9.5 49v0z" />
<glyph unicode="&#xa8;" horiz-adv-x="426" d="M209 692l-20 -70h-56l20 70h56v0zM313 692l-20 -70h-56l20 70h56v0z" />
<glyph unicode="&#xa9;" horiz-adv-x="806" d="M770 364q0 -150 -108.5 -257.5t-258.5 -107.5q-151 0 -258.5 107t-107.5 258t107.5 259t258.5 108q150 0 258.5 -108.5t108.5 -258.5v0zM701 364q0 122 -88 210.5t-210 88.5q-123 0 -210.5 -88t-87.5 -211q0 -124 87.5 -211t210.5 -87t210.5 88t87.5 210v0zM582 283 q-14 -59 -61.5 -95.5t-109.5 -36.5q-96 0 -148 56t-52 150q0 96 50.5 152.5t148.5 56.5q58 0 102.5 -29t61.5 -85l-58 -15q-18 36 -43.5 55.5t-69.5 19.5q-66 0 -96 -46t-30 -107q0 -64 29 -107.5t99 -43.5q41 0 75 26.5t42 66.5l60 -18v0z" />
<glyph unicode="&#xaa;" horiz-adv-x="315" d="M302 363h-272v30h272v-30v0zM301 449l-8 -31h-99q-21 0 -28.5 10t-6.5 25q0 5 1 11t2 11t2.5 10t2.5 9l4 12t3 10l-8.5 -8.5l-9.5 -9.5l-36.5 -36.5l-16.5 -16.5q-17 -16 -30.5 -21.5t-22.5 -5.5q-4 0 -7.5 0.5t-5.5 1.5q-11 4 -17.5 14t-6.5 22q0 2 0.5 5t1.5 6 q1 2 1.5 4.5t0.5 4.5q3 10 5.5 22t5.5 24q8 29 23.5 53t47.5 24h129l-38 -132v-1.5v-0.5v-1.5v-1.5q0 -5 3.5 -9t9.5 -4h98v0zM190 569l-100 -1q-6 0 -11.5 -2.5t-7.5 -9.5l-25 -89v-0.5v-1.5q-1 -1 -1 -1.5v-0.5q1 -4 3 -8t6 -6h1.5h1.5q0 -1 0.5 -1h1.5q2 0 4 1l4 2 q4 2 8.5 5.5t7.5 6.5l107 106v0z" />
<glyph unicode="&#xab;" horiz-adv-x="280" d="M158 197l-173 177l173 170v-101l-72 -71l72 -73v-102v0zM318 197l-172 177l172 170v-101l-72 -71l72 -73v-102v0z" />
<glyph unicode="&#xac;" d="M387 236h-46v116h-331v46h375v-4h2v-158v0z" />
<glyph unicode="&#xad;" horiz-adv-x="500" />
<glyph unicode="&#xae;" horiz-adv-x="348" d="M16 573q0 65 47 111.5t111 46.5t111 -47.5t47 -110.5q0 -65 -46.5 -111.5t-111.5 -46.5t-111.5 46t-46.5 112v0zM39 573q0 -57 39.5 -96t95.5 -39t95.5 40t39.5 95q0 54 -40 94.5t-95 40.5t-95 -39.5t-40 -95.5v0zM115 489v176h61q6 0 12 -0.5t12 -1.5q19 -4 35 -15 t16 -31q0 -19 -11 -31.5t-28 -17.5l39 -79h-34l-37 73h-33v-73h-32v0zM170 642h-23v-56h34q13 0 22 7t9 20q0 11 -9 18t-20 9q-3 1 -6.5 1.5t-6.5 0.5v0z" />
<glyph unicode="&#xaf;" horiz-adv-x="146" />
<glyph unicode="&#xb0;" horiz-adv-x="250" d="M234 643q0 -44 -31.5 -75.5t-75.5 -31.5q-45 0 -76.5 31.5t-31.5 75.5t32 75.5t76 31.5q43 0 75 -31.5t32 -75.5v0zM193 643q0 27 -19.5 47t-46.5 20q-28 0 -47.5 -19.5t-19.5 -47.5t19.5 -47.5t47.5 -19.5q27 0 46.5 19.5t19.5 47.5v0z" />
<glyph unicode="&#xb1;" d="M400 67h-405v76h405v-76v0zM400 337h-165v-164h-76v164h-164v76h164v165h76v-165h165v-76v0z" />
<glyph unicode="&#xb2;" horiz-adv-x="500" />
<glyph unicode="&#xb3;" horiz-adv-x="500" />
<glyph unicode="&#xb4;" horiz-adv-x="362" d="M298 713l-164 -120l-40 9l144 134l60 -23v0z" />
<glyph unicode="&#xb5;" horiz-adv-x="413" d="M411 501l-58 -279q-1 -4 -1 -8.5v-9.5q0 -18 11 -34t47 -24l-32 -72q-31 7 -51.5 20t-32.5 30q-24 -21 -54.5 -34.5t-62.5 -13.5q-19 0 -38 6t-36 17l-34 -164l-79 -3l122 572l75 -3q-5 -21 -11.5 -51.5t-13.5 -63.5l-2 -8l-2 -8q-11 -50 -19.5 -95t-8.5 -62 q0 -25 13.5 -42.5t40.5 -17.5q7 0 14 1.5t15 4.5q21 8 39 24t22 35l61 286l76 -3v0z" />
<glyph unicode="&#xb6;" horiz-adv-x="431" d="M282 -125h-75v410q-87 16 -144.5 85.5t-57.5 157.5q0 98 61 162.5t153 83.5q3 1 6 1h6h5.5h5.5q3 -1 6.5 -1h7.5q6 0 12.5 0.5t13.5 1.5v-901v0zM447 699h-45v-824h-74v900h119v-76v0z" />
<glyph unicode="&#xb7;" horiz-adv-x="146" />
<glyph unicode="&#xb8;" horiz-adv-x="362" d="M185 16l-67 -161l-53 43l81 132l39 -14v0z" />
<glyph unicode="&#xb9;" horiz-adv-x="500" />
<glyph unicode="&#xba;" horiz-adv-x="320" d="M302 363h-272v30h272v-30v0zM303 444l-9 -30h-210q-37 0 -53 21.5t-16 50.5q0 5 0.5 9.5t1.5 9.5q0 4 1.5 9t2.5 9q5 16 11 31t19 26q10 7 22 11t26 4h180l-8 -31h-181h-4.5t-4.5 -1q-4 0 -7 -1.5t-6 -3.5q-5 -4 -9 -13.5t-8 -20.5q-2 -7 -3.5 -15.5t-0.5 -17.5 q0 -18 8.5 -32.5t31.5 -14.5q31 0 50 22.5t28 48.5q2 6 4 11t3 10h31q-8 -27 -18.5 -49.5t-33.5 -42.5h152v0z" />
<glyph unicode="&#xbb;" horiz-adv-x="280" d="M180 374l-174 -176v101l72 73l-72 71v101l174 -170v0zM340 374l-174 -176v101l72 73l-72 71v101l174 -170v0z" />
<glyph unicode="&#xbc;" horiz-adv-x="315" d="M302 363h-272v30h272v-30v0z" />
<glyph unicode="&#xbd;" horiz-adv-x="500" />
<glyph unicode="&#xbe;" horiz-adv-x="500" />
<glyph unicode="&#xbf;" horiz-adv-x="345" d="M20 -106q-3 8 -4.5 16.5t-1.5 16.5q1 25 13 48.5t34 42.5l104 87q27 23 39 52.5t21 60.5q0 1 0.5 2.5t0.5 2.5l44 -12q-11 -40 -26.5 -76t-49.5 -64l-103 -88q-6 -4 -10.5 -9t-7.5 -9q-7 -10 -10 -20t-3 -18q0 -5 1 -8.5t2 -7.5q4 -11 13 -17.5t21 -6.5l111 -1q2 1 3.5 1 t2.5 1q12 2 23 12t14 21l34 116l43 -13l-33 -117q-8 -26 -33 -45.5t-54 -19.5l-111 -1q-26 1 -47 15t-30 39v-1zM231 317q0 16 11.5 27t27.5 11q17 0 28 -11t11 -27t-11 -27.5t-28 -11.5q-16 0 -27.5 11.5t-11.5 27.5v0z" />
<glyph unicode="&#xc0;" horiz-adv-x="856" d="M895 633l-96 -337h61v-45h-75l-57 -201l-168 199l-9 -12q-46 -64 -115 -113.5t-220 -49.5h-173v46h173q104 0 171.5 30.5t127.5 113.5q7 9 10.5 12.5t4.5 6.5q0 2 -2.5 4.5t-7.5 8.5h18l265 366q8 11 17.5 18.5t19.5 11.5q7 3 13 4.5t12 1.5q14 0 24 -9t10 -29 q0 -6 -1 -12.5t-3 -14.5v0zM738 251h-120l90 -107q4 14 7.5 27t7.5 27q4 13 7.5 26.5t7.5 26.5v0zM853 650q-3 -2 -6 -5.5t-8 -8.5l-45 -62.5t-99 -136.5q-28 -39 -54.5 -76t-46.5 -65h157l101 350l1 4v0zM924 756l-20 -19l-164 120l40 23l144 -124v0z" />
<glyph unicode="&#xc1;" horiz-adv-x="859" d="M895 633l-96 -337h61v-45h-75l-57 -201l-168 199l-9 -12q-46 -64 -115 -113.5t-220 -49.5h-173v46h173q104 0 171.5 30.5t127.5 113.5q7 9 10.5 12.5t4.5 6.5q0 2 -2.5 4.5t-7.5 8.5h18l265 366q8 11 17.5 18.5t19.5 11.5q7 3 13 4.5t12 1.5q14 0 24 -9t10 -29 q0 -6 -1 -12.5t-3 -14.5v0zM738 251h-120l90 -107q4 14 7.5 27t7.5 27q4 13 7.5 26.5t7.5 26.5v0zM853 650q-3 -2 -6 -5.5t-8 -8.5l-45 -62.5t-99 -136.5q-28 -39 -54.5 -76t-46.5 -65h157l101 350l1 4v0zM995 847l-164 -120l-40 9l144 134l60 -23v0z" />
<glyph unicode="&#xc2;" horiz-adv-x="856" d="M895 633l-96 -337h61v-45h-75l-57 -201l-168 199l-9 -12q-46 -64 -115 -113.5t-220 -49.5h-173v46h173q104 0 171.5 30.5t127.5 113.5q7 9 10.5 12.5t4.5 6.5q0 2 -2.5 4.5t-7.5 8.5h18l265 366q8 11 17.5 18.5t19.5 11.5q7 3 13 4.5t12 1.5q14 0 24 -9t10 -29 q0 -6 -1 -12.5t-3 -14.5v0zM738 251h-120l90 -107q4 14 7.5 27t7.5 27q4 13 7.5 26.5t7.5 26.5v0zM853 650q-3 -2 -6 -5.5t-8 -8.5l-45 -62.5t-99 -136.5q-28 -39 -54.5 -76t-46.5 -65h157l101 350l1 4v0zM991 723l-34 -12l-92 42l-92 -42l-35 12l127 83l126 -83v0z" />
<glyph unicode="&#xc3;" horiz-adv-x="856" d="M895 633l-96 -337h61v-45h-75l-57 -201l-168 199l-9 -12q-46 -64 -115 -113.5t-220 -49.5h-173v46h173q104 0 171.5 30.5t127.5 113.5q7 9 10.5 12.5t4.5 6.5q0 2 -2.5 4.5t-7.5 8.5h18l265 366q8 11 17.5 18.5t19.5 11.5q7 3 13 4.5t12 1.5q14 0 24 -9t10 -29 q0 -6 -1 -12.5t-3 -14.5v0zM738 251h-120l90 -107q4 14 7.5 27t7.5 27q4 13 7.5 26.5t7.5 26.5v0zM853 650q-3 -2 -6 -5.5t-8 -8.5l-45 -62.5t-99 -136.5q-28 -39 -54.5 -76t-46.5 -65h157l101 350l1 4v0zM1020 775q-14 -17 -31 -29t-34 -19q-10 -3 -19.5 -5t-18.5 -2 q-20 0 -32 3.5t-22 7.5h-1.5t-1.5 1q-9 3 -19.5 6t-26.5 3q-18 0 -34 -5t-24 -14l-39 5q22 27 47.5 40.5t56.5 13.5q20 0 31.5 -3.5t20.5 -7.5q1 0 1.5 -0.5t1.5 -0.5q9 -4 18.5 -7t24.5 -3q19 0 35.5 6t25.5 15l40 -5v0z" />
<glyph unicode="&#xc4;" horiz-adv-x="859" d="M895 633l-96 -337h61v-45h-75l-57 -201l-168 199l-9 -12q-46 -64 -115 -113.5t-220 -49.5h-173v46h173q104 0 171.5 30.5t127.5 113.5q7 9 10.5 12.5t4.5 6.5q0 2 -2.5 4.5t-7.5 8.5h18l265 366q8 11 17.5 18.5t19.5 11.5q7 3 13 4.5t12 1.5q14 0 24 -9t10 -29 q0 -6 -1 -12.5t-3 -14.5v0zM738 251h-120l90 -107q4 14 7.5 27t7.5 27q4 13 7.5 26.5t7.5 26.5v0zM853 650q-3 -2 -6 -5.5t-8 -8.5l-45 -62.5t-99 -136.5q-28 -39 -54.5 -76t-46.5 -65h157l101 350l1 4v0zM867 810l-20 -70h-56l20 70h56v0zM971 810l-20 -70h-56l20 70h56v0z " />
<glyph unicode="&#xc5;" horiz-adv-x="868" d="M895 633l-96 -337h61v-45h-75l-57 -201l-168 199l-9 -12q-46 -64 -115 -113.5t-220 -49.5h-173v46h173q104 0 171.5 30.5t127.5 113.5q7 9 10.5 12.5t4.5 6.5q0 2 -2.5 4.5t-7.5 8.5h18l265 366q8 11 17.5 18.5t19.5 11.5q7 3 13 4.5t12 1.5q14 0 24 -9t10 -29 q0 -6 -1 -12.5t-3 -14.5v0zM738 251h-120l90 -107q4 14 7.5 27t7.5 27q4 13 7.5 26.5t7.5 26.5v0zM853 650q-3 -2 -6 -5.5t-8 -8.5l-45 -62.5t-99 -136.5q-28 -39 -54.5 -76t-46.5 -65h157l101 350l1 4v0zM913 787q0 -26 -19 -44.5t-45 -18.5q-27 0 -45.5 18.5t-18.5 44.5 t18.5 44.5t45.5 18.5q26 0 45 -18.5t19 -44.5v0zM871 787q0 9 -6.5 16t-16.5 7q-9 0 -16 -7t-7 -16q0 -10 7 -17t16 -7q10 0 16.5 7t6.5 17v0z" />
<glyph unicode="&#xc6;" horiz-adv-x="1168" d="M1243 676q2 -4 2.5 -8.5t0.5 -9.5q0 -10 -3 -20t-7 -21q-7 -14 -15.5 -27.5t-17.5 -26.5q-7 -10 -13.5 -18.5t-11.5 -16.5l-38 25q5 7 12.5 17t15.5 22q2 3 4.5 6.5t4.5 7.5q10 15 17 29t7 23v0.5v1.5q-1 1 -1 1.5v0.5q-2 8 -7 12.5t-13 7.5q-5 2 -12.5 3t-15.5 1 q-19 0 -46 -7.5t-59 -26.5q-23 -13 -43 -28.5t-35 -30.5q-19 -18 -30.5 -35.5t-14.5 -31.5v-1.5v-0.5v-1.5v-1.5q0 -7 3.5 -15t9.5 -17q3 -4 6.5 -8.5t7.5 -9.5q6 -8 12 -15t10 -12q-20 -11 -45.5 -27t-52.5 -36q-51 -37 -94 -84.5t-43 -97.5q0 -8 1.5 -17t5.5 -18 q7 -18 24 -27t36 -13q11 -3 22 -3.5t20 -0.5h303v-46h-303q-8 0 -17 0.5t-17 1.5q-30 4 -57.5 16.5t-44.5 38.5l-23 -81l-168 199q-5 -7 -9.5 -13.5t-9.5 -12.5q-64 -81 -136.5 -115t-188.5 -34h-173v46h173q104 0 171.5 30.5t127.5 113.5q7 9 10.5 12.5t4.5 6.5q0 2 -2 4.5 t-7 8.5h17l265 366q8 11 17.5 18.5t19.5 11.5q7 3 13 4.5t12 1.5q15 0 25 -9.5t10 -29.5q0 -5 -1 -11.5t-3 -14.5l-80 -277q26 26 58.5 51.5t72.5 50.5q-4 5 -7.5 10t-6.5 10q-7 10 -11.5 20t-4.5 23q0 2 0.5 4.5t0.5 5.5q0 1 0.5 2.5t0.5 2.5q4 16 14 33.5t25 35.5 q20 23 47 45t59 41q35 20 67.5 30.5t60.5 10.5q12 0 23 -2t21 -6q17 -6 29.5 -18.5t17.5 -29.5v0zM699 251h-121l90 -107q4 14 7.5 27t7.5 27q4 13 8 26.5t8 26.5v0zM813 650q-3 -2 -6 -5.5t-7 -8.5l-246 -340h158l101 354v0z" />
<glyph unicode="&#xc7;" horiz-adv-x="491" d="M548 663q1 -4 1.5 -8.5t0.5 -8.5q0 -40 -37 -72.5t-81 -56.5q-24 -14 -46.5 -25t-39.5 -19l-20 41q13 6 36 17t48 25t48 30t35 32q6 8 9 15t3 14v1.5v1.5q-1 1 -1 1.5v1.5t-0.5 1.5l-0.5 0.5q-3 4 -14 7.5t-31 3.5q-29 0 -62 -11t-67 -31q-70 -41 -133.5 -110.5 t-94.5 -144.5q-4 -9 -7.5 -19t-6.5 -19q-8 -27 -12 -51.5t-4 -46.5q0 -27 6.5 -49t18.5 -39q19 -24 50 -36t74 -12q18 0 37 3t39 9q28 8 55 21t49 29l27 -36q-29 -22 -66 -38.5t-75 -25.5q-14 -3 -28.5 -5t-28.5 -3l-68 -136l-46 33l65 107q-40 5 -70 21t-50 42 q-17 23 -25.5 52t-8.5 64q0 25 4.5 52t12.5 57q1 2 1.5 4.5t1.5 4.5q31 99 111.5 189t171.5 136q33 16 66 25.5t63 9.5q41 0 60.5 -12t25.5 -26q2 -3 2.5 -5.5t1.5 -5.5v0z" />
<glyph unicode="&#xc8;" horiz-adv-x="482" d="M577 676q2 -4 2.5 -9t0.5 -10q0 -11 -3.5 -22t-8.5 -23q-6 -12 -14 -23.5t-16 -23.5q-7 -10 -13.5 -19.5t-12.5 -17.5l-38 25q5 7 12.5 17t15.5 22q2 3 4.5 6.5t4.5 7.5q10 15 17 29t7 23v0.5v1.5q-1 1 -1 1.5v0.5q-2 8 -7 12.5t-13 7.5q-5 2 -12.5 3t-15.5 1 q-19 0 -46 -7.5t-59 -26.5q-23 -13 -43 -28.5t-35 -30.5q-19 -18 -30.5 -35.5t-14.5 -31.5v-1.5v-0.5v-1.5v-1.5q0 -7 3.5 -15t9.5 -17q3 -4 6.5 -8.5t7.5 -9.5q6 -8 12 -15t10 -12q-20 -11 -45.5 -27t-52.5 -36q-51 -37 -94 -84.5t-43 -97.5q0 -8 1.5 -17t5.5 -18 q8 -18 24.5 -27t35.5 -13q11 -2 22 -3t20 -1h303v-46h-303q-8 0 -16 0.5t-16 1.5q-34 4 -65.5 20t-46.5 50q-4 12 -6.5 24t-2.5 25q0 32 15.5 67t44.5 70q27 32 65.5 64t87.5 62q-7 9 -12.5 16.5l-5.5 7.5q-5 8 -8 17.5t-3 19.5v4t1 5q0 2 0.5 4t0.5 4q3 16 13 33.5t25 35.5 q20 23 47 45t60 41q35 20 67 30.5t60 10.5q12 0 23 -2t21 -6q17 -6 29.5 -18.5t17.5 -29.5v0zM503 778l-20 -19l-164 120l40 23l144 -124v0z" />
<glyph unicode="&#xc9;" horiz-adv-x="479" d="M577 676q2 -4 2.5 -9t0.5 -10q0 -11 -3.5 -22t-8.5 -23q-6 -12 -14 -23.5t-16 -23.5q-7 -10 -13.5 -19.5t-12.5 -17.5l-38 25q5 7 12.5 17t15.5 22q2 3 4.5 6.5t4.5 7.5q10 15 17 29t7 23v0.5v1.5q-1 1 -1 1.5v0.5q-2 8 -7 12.5t-13 7.5q-5 2 -12.5 3t-15.5 1 q-19 0 -46 -7.5t-59 -26.5q-23 -13 -43 -28.5t-35 -30.5q-19 -18 -30.5 -35.5t-14.5 -31.5v-1.5v-0.5v-1.5v-1.5q0 -7 3.5 -15t9.5 -17q3 -4 6.5 -8.5t7.5 -9.5q6 -8 12 -15t10 -12q-20 -11 -45.5 -27t-52.5 -36q-51 -37 -94 -84.5t-43 -97.5q0 -8 1.5 -17t5.5 -18 q8 -18 24.5 -27t35.5 -13q11 -2 22 -3t20 -1h303v-46h-303q-8 0 -16 0.5t-16 1.5q-34 4 -65.5 20t-46.5 50q-4 12 -6.5 24t-2.5 25q0 32 15.5 67t44.5 70q27 32 65.5 64t87.5 62q-7 9 -12.5 16.5l-5.5 7.5q-5 8 -8 17.5t-3 19.5v4t1 5q0 2 0.5 4t0.5 4q3 16 13 33.5t25 35.5 q20 23 47 45t60 41q35 20 67 30.5t60 10.5q12 0 23 -2t21 -6q17 -6 29.5 -18.5t17.5 -29.5v0zM603 875l-164 -120l-40 9l144 134l60 -23v0z" />
<glyph unicode="&#xca;" horiz-adv-x="479" d="M577 676q2 -4 2.5 -9t0.5 -10q0 -11 -3.5 -22t-8.5 -23q-6 -12 -14 -23.5t-16 -23.5q-7 -10 -13.5 -19.5t-12.5 -17.5l-38 25q5 7 12.5 17t15.5 22q2 3 4.5 6.5t4.5 7.5q10 15 17 29t7 23v0.5v1.5q-1 1 -1 1.5v0.5q-2 8 -7 12.5t-13 7.5q-5 2 -12.5 3t-15.5 1 q-19 0 -46 -7.5t-59 -26.5q-23 -13 -43 -28.5t-35 -30.5q-19 -18 -30.5 -35.5t-14.5 -31.5v-1.5v-0.5v-1.5v-1.5q0 -7 3.5 -15t9.5 -17q3 -4 6.5 -8.5t7.5 -9.5q6 -8 12 -15t10 -12q-20 -11 -45.5 -27t-52.5 -36q-51 -37 -94 -84.5t-43 -97.5q0 -8 1.5 -17t5.5 -18 q8 -18 24.5 -27t35.5 -13q11 -2 22 -3t20 -1h303v-46h-303q-8 0 -16 0.5t-16 1.5q-34 4 -65.5 20t-46.5 50q-4 12 -6.5 24t-2.5 25q0 32 15.5 67t44.5 70q27 32 65.5 64t87.5 62q-7 9 -12.5 16.5l-5.5 7.5q-5 8 -8 17.5t-3 19.5v4t1 5q0 2 0.5 4t0.5 4q3 16 13 33.5t25 35.5 q20 23 47 45t60 41q35 20 67 30.5t60 10.5q12 0 23 -2t21 -6q17 -6 29.5 -18.5t17.5 -29.5v0zM595 763l-34 -12l-92 42l-92 -42l-35 12l127 83l126 -83v0z" />
<glyph unicode="&#xcb;" horiz-adv-x="479" d="M577 676q2 -4 2.5 -9t0.5 -10q0 -11 -3.5 -22t-8.5 -23q-6 -12 -14 -23.5t-16 -23.5q-7 -10 -13.5 -19.5t-12.5 -17.5l-38 25q5 7 12.5 17t15.5 22q2 3 4.5 6.5t4.5 7.5q10 15 17 29t7 23v0.5v1.5q-1 1 -1 1.5v0.5q-2 8 -7 12.5t-13 7.5q-5 2 -12.5 3t-15.5 1 q-19 0 -46 -7.5t-59 -26.5q-23 -13 -43 -28.5t-35 -30.5q-19 -18 -30.5 -35.5t-14.5 -31.5v-1.5v-0.5v-1.5v-1.5q0 -7 3.5 -15t9.5 -17q3 -4 6.5 -8.5t7.5 -9.5q6 -8 12 -15t10 -12q-20 -11 -45.5 -27t-52.5 -36q-51 -37 -94 -84.5t-43 -97.5q0 -8 1.5 -17t5.5 -18 q8 -18 24.5 -27t35.5 -13q11 -2 22 -3t20 -1h303v-46h-303q-8 0 -16 0.5t-16 1.5q-34 4 -65.5 20t-46.5 50q-4 12 -6.5 24t-2.5 25q0 32 15.5 67t44.5 70q27 32 65.5 64t87.5 62q-7 9 -12.5 16.5l-5.5 7.5q-5 8 -8 17.5t-3 19.5v4t1 5q0 2 0.5 4t0.5 4q3 16 13 33.5t25 35.5 q20 23 47 45t60 41q35 20 67 30.5t60 10.5q12 0 23 -2t21 -6q17 -6 29.5 -18.5t17.5 -29.5v0zM481 824l-20 -70h-56l20 70h56v0zM585 824l-20 -70h-56l20 70h56v0z" />
<glyph unicode="&#xcc;" horiz-adv-x="452" d="M526 602l-20 -68t-44 -151q-5 -17 -10 -34.5t-10 -34.5q14 -7 29.5 -13t33.5 -11l-13 -44q-16 5 -31.5 10.5t-30.5 12.5q-14 -48 -23.5 -80l-9.5 -32q-9 -33 -37.5 -56.5t-61.5 -26.5h-3.5h-3.5h-266v46h266h3.5h3.5q18 3 34.5 17t21.5 32l10 36t25 88q-36 26 -53 62.5 t-17 85.5q0 14 1.5 28.5t3.5 30.5q2 14 12.5 45.5t26.5 66.5q22 44 53 81.5t70 37.5q11 0 20 -5t16 -13q6 -8 9 -19.5t4 -22.5v-4v-4v-2v-2q0 -12 -2 -23t-3 -19q-1 -5 -2 -8.5t-2 -6.5v0zM486 685q-7 0 -15 -4.5t-16 -12.5q-15 -15 -29.5 -39t-26.5 -50 q-12 -24 -19.5 -47.5t-10.5 -38.5q-2 -14 -3.5 -27t-1.5 -25q0 -32 10 -56.5t29 -43.5q3 12 7 24.5t7 25.5q1 1 1 2v2q24 83 44 151.5l20 68.5q5 15 6.5 27.5t1.5 21.5q0 8 -1 14t-3 7v0zM524 778l-20 -19l-164 120l40 23l144 -124v0z" />
<glyph unicode="&#xcd;" horiz-adv-x="434" d="M526 602l-20 -68t-44 -151q-5 -17 -10 -34.5t-10 -34.5q14 -7 29.5 -13t33.5 -11l-13 -44q-16 5 -31.5 10.5t-30.5 12.5q-14 -48 -23.5 -80l-9.5 -32q-9 -33 -37.5 -56.5t-61.5 -26.5h-3.5h-3.5h-266v46h266h3.5h3.5q18 3 34.5 17t21.5 32l10 36t25 88q-36 26 -53 62.5 t-17 85.5q0 14 1.5 28.5t3.5 30.5q2 14 12.5 45.5t26.5 66.5q22 44 53 81.5t70 37.5q11 0 20 -5t16 -13q6 -8 9 -19.5t4 -22.5v-4v-4v-2v-2q0 -12 -2 -23t-3 -19q-1 -5 -2 -8.5t-2 -6.5v0zM486 685q-7 0 -15 -4.5t-16 -12.5q-15 -15 -29.5 -39t-26.5 -50 q-12 -24 -19.5 -47.5t-10.5 -38.5q-2 -14 -3.5 -27t-1.5 -25q0 -32 10 -56.5t29 -43.5q3 12 7 24.5t7 25.5q1 1 1 2v2q24 83 44 151.5l20 68.5q5 15 6.5 27.5t1.5 21.5q0 8 -1 14t-3 7v0zM656 880l-164 -120l-40 9l144 134l60 -23v0z" />
<glyph unicode="&#xce;" horiz-adv-x="419" d="M526 602l-20 -68t-44 -151q-5 -17 -10 -34.5t-10 -34.5q14 -7 29.5 -13t33.5 -11l-13 -44q-16 5 -31.5 10.5t-30.5 12.5q-14 -48 -23.5 -80l-9.5 -32q-9 -33 -37.5 -56.5t-61.5 -26.5h-3.5h-3.5h-266v46h266h3.5h3.5q18 3 34.5 17t21.5 32l10 36t25 88q-36 26 -53 62.5 t-17 85.5q0 14 1.5 28.5t3.5 30.5q2 14 12.5 45.5t26.5 66.5q22 44 53 81.5t70 37.5q11 0 20 -5t16 -13q6 -8 9 -19.5t4 -22.5v-4v-4v-2v-2q0 -12 -2 -23t-3 -19q-1 -5 -2 -8.5t-2 -6.5v0zM486 685q-7 0 -15 -4.5t-16 -12.5q-15 -15 -29.5 -39t-26.5 -50 q-12 -24 -19.5 -47.5t-10.5 -38.5q-2 -14 -3.5 -27t-1.5 -25q0 -32 10 -56.5t29 -43.5q3 12 7 24.5t7 25.5q1 1 1 2v2q24 83 44 151.5l20 68.5q5 15 6.5 27.5t1.5 21.5q0 8 -1 14t-3 7v0zM607 761l-34 -12l-92 42l-92 -42l-35 12l127 83l126 -83v0z" />
<glyph unicode="&#xcf;" horiz-adv-x="430" d="M526 602l-20 -68t-44 -151q-5 -17 -10 -34.5t-10 -34.5q14 -7 29.5 -13t33.5 -11l-13 -44q-16 5 -31.5 10.5t-30.5 12.5q-14 -48 -23.5 -80l-9.5 -32q-9 -33 -37.5 -56.5t-61.5 -26.5h-3.5h-3.5h-266v46h266h3.5h3.5q18 3 34.5 17t21.5 32l10 36t25 88q-36 26 -53 62.5 t-17 85.5q0 14 1.5 28.5t3.5 30.5q2 14 12.5 45.5t26.5 66.5q22 44 53 81.5t70 37.5q11 0 20 -5t16 -13q6 -8 9 -19.5t4 -22.5v-4v-4v-2v-2q0 -12 -2 -23t-3 -19q-1 -5 -2 -8.5t-2 -6.5v0zM486 685q-7 0 -15 -4.5t-16 -12.5q-15 -15 -29.5 -39t-26.5 -50 q-12 -24 -19.5 -47.5t-10.5 -38.5q-2 -14 -3.5 -27t-1.5 -25q0 -32 10 -56.5t29 -43.5q3 12 7 24.5t7 25.5q1 1 1 2v2q24 83 44 151.5l20 68.5q5 15 6.5 27.5t1.5 21.5q0 8 -1 14t-3 7v0zM488 838l-20 -70h-56l20 70h56v0zM592 838l-20 -70h-56l20 70h56v0z" />
<glyph unicode="&#xd0;" horiz-adv-x="720" d="M687 304q0 -11 -0.5 -22t-2.5 -22q-10 -70 -65.5 -128t-198.5 -58h-387v46h18h18q11 -1 22.5 -1h23.5q63 1 121 19t89 86l3 7h-113l13 46h122l130 280q-15 16 -34 37.5t-41 43.5q-14 14 -28.5 27.5t-28.5 25.5q-20 18 -40.5 32t-38.5 21q-16 7 -31 9.5t-27 2.5 q-13 0 -22.5 -3.5t-12.5 -8.5q-1 -1 -1.5 -3.5t-0.5 -5.5q0 -20 37 -68.5t146 -126.5l-26 -37q-10 7 -38.5 28t-61.5 50q-22 20 -43 42.5t-36 45.5q-11 17 -17.5 33.5t-6.5 32.5q0 8 2 15.5t6 14.5q10 18 30.5 27.5t46.5 9.5q17 -1 35.5 -4.5t37.5 -11.5q31 -13 76.5 -51 t94.5 -87q11 -11 22 -22.5t22 -23.5l35 76l41 -19l-43 -93q47 -52 82.5 -98.5t48.5 -72.5q11 -22 16.5 -45t5.5 -46v0zM642 304q0 18 -4.5 36t-13.5 35q-10 20 -40 59.5t-71 85.5q-9 -19 -18.5 -39.5t-19.5 -40.5q-1 -2 -2 -4.5t-2 -4.5q-19 -42 -37.5 -82t-33.5 -72h89 l-13 -46h-97l-9.5 -19l-3.5 -7q-12 -27 -30 -48t-42 -37h63.5h62.5q95 0 158.5 39.5t63.5 144.5v0z" />
<glyph unicode="&#xd1;" horiz-adv-x="470" d="M519 660q5 -9 7.5 -21t2.5 -27q0 -22 -5 -50t-15 -64l-147 -512l-43 13l146 511q11 39 15 64t4 38q0 8 -1 13.5t-2 8.5l-1.5 1.5t-0.5 1.5q-1 2 -1.5 2.5t-1.5 0.5h-1.5h-2.5q-22 0 -73.5 -51.5t-109.5 -153.5l-205 -363l-41 17l155 547l8 28h-1.5h-1.5q-6 0 -10.5 -1.5 t-8.5 -5.5q-5 -5 -9.5 -12.5t-10.5 -19.5t-12 -23.5t-12 -22.5q-7 -11 -13 -22.5t-12 -22.5q-8 -14 -16.5 -29.5t-17.5 -30.5q-4 -7 -8 -14.5t-8 -15.5l-40 21q12 23 24.5 46t25.5 45q6 11 11.5 21.5t11.5 20.5q6 11 11.5 21.5t11.5 20.5q0 1 0.5 2t1.5 1q13 26 29.5 46.5 t50.5 20.5q14 0 24 -4.5t16 -12.5q5 -6 6.5 -12.5t1.5 -13.5q0 -9 -2 -18.5t-5 -17.5q0 -2 -0.5 -3.5t-1.5 -3.5l-103 -363l110 196q4 7 8.5 14.5t8.5 14.5q25 40 53 78.5t57 66.5q26 25 51 40t47 15q4 0 7.5 -0.5t6.5 -1.5q10 -2 18 -8.5t13 -15.5v0zM523 795 q-14 -17 -31 -29t-34 -19q-10 -3 -19.5 -5t-18.5 -2q-20 0 -32 3.5t-22 7.5h-1.5t-1.5 1q-9 3 -19.5 6t-26.5 3q-18 0 -34 -5t-24 -14l-39 5q22 27 47.5 40.5t56.5 13.5q20 0 31.5 -3.5t20.5 -7.5q1 0 1.5 -0.5t1.5 -0.5q9 -4 18.5 -7t24.5 -3q19 0 35.5 6t25.5 15l40 -5v0z " />
<glyph unicode="&#xd2;" horiz-adv-x="146" />
<glyph unicode="&#xd3;" horiz-adv-x="480" d="M533 644h-140q-77 0 -142.5 -63.5t-108.5 -140.5q-18 -33 -32 -66t-22 -60q-9 -30 -13 -57t-4 -50q0 -24 5 -43t15 -33q11 -15 28.5 -22t41.5 -7q23 0 62 18t81 57q32 29 62.5 71.5t54.5 98.5q29 68 38.5 111.5t9.5 68.5q0 14 -2 23t-5 14q0 1 -0.5 2t-1.5 2 q0 1 -0.5 1.5l-0.5 0.5q-4 5 -11.5 9t-23.5 4q-10 0 -21.5 -3.5t-23.5 -9.5q-27 -16 -52 -48t-38 -78q-3 -10 -4 -19t-1 -16q0 -9 1.5 -13.5t2.5 -6.5l-1 -44q-10 0 -19.5 4.5t-15.5 12.5q-7 9 -10 21.5t-3 26.5q0 11 1.5 22.5t5.5 23.5q20 71 68 119.5t101 53.5h4.5h4.5 q27 0 43.5 -9t25.5 -19q1 -2 2.5 -3.5t2.5 -3.5q8 -13 12.5 -29.5t4.5 -37.5q0 -36 -13 -85.5t-39 -111.5q-29 -70 -69 -121.5t-81 -85.5q-42 -34 -82.5 -50.5t-69.5 -16.5q-38 0 -62 12t-37 27q-2 2 -3.5 4.5t-3.5 4.5q-15 20 -22.5 46t-7.5 59q0 26 5 55.5t14 62.5 q1 4 2.5 8.5t2.5 8.5q42 129 137.5 237t206.5 108h140v-45v0zM542 833l-164 -120l-40 9l144 134l60 -23v0z" />
<glyph unicode="&#xd4;" horiz-adv-x="480" d="M533 644h-140q-77 0 -142.5 -63.5t-108.5 -140.5q-18 -33 -32 -66t-22 -60q-9 -30 -13 -57t-4 -50q0 -24 5 -43t15 -33q11 -15 28.5 -22t41.5 -7q23 0 62 18t81 57q32 29 62.5 71.5t54.5 98.5q29 68 38.5 111.5t9.5 68.5q0 14 -2 23t-5 14q0 1 -0.5 2t-1.5 2 q0 1 -0.5 1.5l-0.5 0.5q-4 5 -11.5 9t-23.5 4q-10 0 -21.5 -3.5t-23.5 -9.5q-27 -16 -52 -48t-38 -78q-3 -10 -4 -19t-1 -16q0 -9 1.5 -13.5t2.5 -6.5l-1 -44q-10 0 -19.5 4.5t-15.5 12.5q-7 9 -10 21.5t-3 26.5q0 11 1.5 22.5t5.5 23.5q20 71 68 119.5t101 53.5h4.5h4.5 q27 0 43.5 -9t25.5 -19q1 -2 2.5 -3.5t2.5 -3.5q8 -13 12.5 -29.5t4.5 -37.5q0 -36 -13 -85.5t-39 -111.5q-29 -70 -69 -121.5t-81 -85.5q-42 -34 -82.5 -50.5t-69.5 -16.5q-38 0 -62 12t-37 27q-2 2 -3.5 4.5t-3.5 4.5q-15 20 -22.5 46t-7.5 59q0 26 5 55.5t14 62.5 q1 4 2.5 8.5t2.5 8.5q42 129 137.5 237t206.5 108h140v-45v0zM520 725l-34 -12l-92 42l-92 -42l-35 12l127 83l126 -83v0z" />
<glyph unicode="&#xd5;" horiz-adv-x="480" d="M533 644h-140q-77 0 -142.5 -63.5t-108.5 -140.5q-18 -33 -32 -66t-22 -60q-9 -30 -13 -57t-4 -50q0 -24 5 -43t15 -33q11 -15 28.5 -22t41.5 -7q23 0 62 18t81 57q32 29 62.5 71.5t54.5 98.5q29 68 38.5 111.5t9.5 68.5q0 14 -2 23t-5 14q0 1 -0.5 2t-1.5 2 q0 1 -0.5 1.5l-0.5 0.5q-4 5 -11.5 9t-23.5 4q-10 0 -21.5 -3.5t-23.5 -9.5q-27 -16 -52 -48t-38 -78q-3 -10 -4 -19t-1 -16q0 -9 1.5 -13.5t2.5 -6.5l-1 -44q-10 0 -19.5 4.5t-15.5 12.5q-7 9 -10 21.5t-3 26.5q0 11 1.5 22.5t5.5 23.5q20 71 68 119.5t101 53.5h4.5h4.5 q27 0 43.5 -9t25.5 -19q1 -2 2.5 -3.5t2.5 -3.5q8 -13 12.5 -29.5t4.5 -37.5q0 -36 -13 -85.5t-39 -111.5q-29 -70 -69 -121.5t-81 -85.5q-42 -34 -82.5 -50.5t-69.5 -16.5q-38 0 -62 12t-37 27q-2 2 -3.5 4.5t-3.5 4.5q-15 20 -22.5 46t-7.5 59q0 26 5 55.5t14 62.5 q1 4 2.5 8.5t2.5 8.5q42 129 137.5 237t206.5 108h140v-45v0zM544 779q-14 -17 -31 -29t-34 -19q-10 -3 -19.5 -5t-18.5 -2q-20 0 -32 3.5t-22 7.5h-1.5t-1.5 1q-9 3 -19.5 6t-26.5 3q-18 0 -34 -5t-24 -14l-39 5q22 27 47.5 40.5t56.5 13.5q20 0 31.5 -3.5t20.5 -7.5 q1 0 1.5 -0.5t1.5 -0.5q9 -4 18.5 -7t24.5 -3q19 0 35.5 6t25.5 15l40 -5v0z" />
<glyph unicode="&#xd6;" horiz-adv-x="480" d="M533 644h-140q-77 0 -142.5 -63.5t-108.5 -140.5q-18 -33 -32 -66t-22 -60q-9 -30 -13 -57t-4 -50q0 -24 5 -43t15 -33q11 -15 28.5 -22t41.5 -7q23 0 62 18t81 57q32 29 62.5 71.5t54.5 98.5q29 68 38.5 111.5t9.5 68.5q0 14 -2 23t-5 14q0 1 -0.5 2t-1.5 2 q0 1 -0.5 1.5l-0.5 0.5q-4 5 -11.5 9t-23.5 4q-10 0 -21.5 -3.5t-23.5 -9.5q-27 -16 -52 -48t-38 -78q-3 -10 -4 -19t-1 -16q0 -9 1.5 -13.5t2.5 -6.5l-1 -44q-10 0 -19.5 4.5t-15.5 12.5q-7 9 -10 21.5t-3 26.5q0 11 1.5 22.5t5.5 23.5q20 71 68 119.5t101 53.5h4.5h4.5 q27 0 43.5 -9t25.5 -19q1 -2 2.5 -3.5t2.5 -3.5q8 -13 12.5 -29.5t4.5 -37.5q0 -36 -13 -85.5t-39 -111.5q-29 -70 -69 -121.5t-81 -85.5q-42 -34 -82.5 -50.5t-69.5 -16.5q-38 0 -62 12t-37 27q-2 2 -3.5 4.5t-3.5 4.5q-15 20 -22.5 46t-7.5 59q0 26 5 55.5t14 62.5 q1 4 2.5 8.5t2.5 8.5q42 129 137.5 237t206.5 108h140v-45v0zM389 792l-20 -70h-56l20 70h56v0zM493 792l-20 -70h-56l20 70h56v0z" />
<glyph unicode="&#xd7;" d="M373 339l-123 -124l122 -123l-51 -52l-123 122l-124 -122l-51 52l121 123l-122 125l51 51l124 -122l125 122l51 -52v0z" />
<glyph unicode="&#xd8;" horiz-adv-x="503" d="M554 644h-109l-11 -20q41 -13 61.5 -53.5t20.5 -95.5q0 -22 -3 -44.5t-10 -45.5q-4 -14 -9 -27.5t-11 -27.5q-29 -70 -69 -121.5t-81 -85.5q-42 -34 -82.5 -50.5t-69.5 -16.5q-21 0 -37.5 4t-29.5 11l-48 -83l-40 23l52 89q-1 1 -1.5 2t-1.5 2q-15 20 -22 46t-7 59 q0 26 4.5 55.5t14.5 62.5q8 26 19 55t26 59q47 93 126.5 170.5t181.5 77.5l42 72l39 -23l-28 -49h83v-45v0zM441 347q17 40 23 70.5t6 54.5q0 26 -5.5 43.5t-12.5 29.5q-5 9 -10 14.5t-7 8.5q-3 5 -8.5 9t-16.5 6l-273 -473q9 -4 20 -6t24 -2q23 0 61.5 17.5t80.5 55.5 q32 30 63 72.5t55 99.5v0zM391 642q-15 -2 -30 -7.5t-30 -13.5q-69 -37 -131 -120.5t-92 -186.5q-8 -30 -12.5 -57t-4.5 -50q0 -19 3 -35t9 -28l125 216l-0.5 0.5l-0.5 0.5l-0.5 0.5l-0.5 0.5q-7 9 -10 21t-3 27q0 11 1.5 22.5t5.5 23.5q20 69 65.5 117t97.5 55l8 14v0z M347 566q-25 -16 -48 -47.5t-35 -74.5q-3 -10 -4 -17.5t-2 -14.5l89 154v0z" />
<glyph unicode="&#xd9;" horiz-adv-x="491" d="M528 645l-101 -352q-6 -23 -12 -50t-11 -55q-6 -32 -10 -62t-5 -54l-45 2q1 20 3 40t5 41q5 35 12 70.5t16 68.5q-8 -15 -16.5 -30t-17.5 -31q-41 -68 -93 -125t-117 -57q-22 0 -36 7.5t-22 15.5q-1 2 -2 3l-2 2q-10 14 -15 33.5t-5 41.5q0 23 4 48.5t10 50.5 q4 16 8 31.5t8 30.5q2 8 4.5 16t4.5 15q7 23 14.5 50.5t16.5 56.5q18 65 33 119l15 54q1 2 1.5 5t1.5 6q0 2 0.5 3.5t0.5 2.5q2 5 2.5 9t0.5 7v0h-1q-9 0 -20 -10.5t-23 -26.5q-7 -11 -14.5 -23.5t-14.5 -25.5q-14 -25 -24.5 -47.5t-15.5 -32.5l-41 20q8 16 18 38t23 45 q22 40 50.5 74t61.5 34q12 0 20 -4t13 -8l2 -2l2 -2q5 -7 7 -14.5t2 -15.5q0 -9 -1.5 -17t-3.5 -15q-1 -3 -1.5 -6t-1.5 -6l-74 -260q-4 -12 -8.5 -28t-9.5 -34q-4 -13 -7.5 -26.5t-6.5 -26.5q-5 -23 -8.5 -44.5t-3.5 -40.5q0 -15 3 -27.5t9 -20.5l1.5 -1.5t2.5 -1.5 q3 -3 8 -5t14 -2q47 0 89.5 48.5t77.5 106.5q12 20 23 39.5t20 36.5l1 1q7 13 26.5 58.5t40.5 98.5q1 1 1.5 2.5t0.5 2.5q9 23 18 44.5t17 41.5q12 29 21 51.5l13 32.5l43 -15v0zM423 698l-20 -19l-164 120l40 23l144 -124v0z" />
<glyph unicode="&#xda;" horiz-adv-x="491" d="M528 645l-101 -352q-6 -23 -12 -50t-11 -55q-6 -32 -10 -62t-5 -54l-45 2q1 20 3 40t5 41q5 35 12 70.5t16 68.5q-8 -15 -16.5 -30t-17.5 -31q-41 -68 -93 -125t-117 -57q-22 0 -36 7.5t-22 15.5q-1 2 -2 3l-2 2q-10 14 -15 33.5t-5 41.5q0 23 4 48.5t10 50.5 q4 16 8 31.5t8 30.5q2 8 4.5 16t4.5 15q7 23 14.5 50.5t16.5 56.5q18 65 33 119l15 54q1 2 1.5 5t1.5 6q0 2 0.5 3.5t0.5 2.5q2 5 2.5 9t0.5 7v0h-1q-9 0 -20 -10.5t-23 -26.5q-7 -11 -14.5 -23.5t-14.5 -25.5q-14 -25 -24.5 -47.5t-15.5 -32.5l-41 20q8 16 18 38t23 45 q22 40 50.5 74t61.5 34q12 0 20 -4t13 -8l2 -2l2 -2q5 -7 7 -14.5t2 -15.5q0 -9 -1.5 -17t-3.5 -15q-1 -3 -1.5 -6t-1.5 -6l-74 -260q-4 -12 -8.5 -28t-9.5 -34q-4 -13 -7.5 -26.5t-6.5 -26.5q-5 -23 -8.5 -44.5t-3.5 -40.5q0 -15 3 -27.5t9 -20.5l1.5 -1.5t2.5 -1.5 q3 -3 8 -5t14 -2q47 0 89.5 48.5t77.5 106.5q12 20 23 39.5t20 36.5l1 1q7 13 26.5 58.5t40.5 98.5q1 1 1.5 2.5t0.5 2.5q9 23 18 44.5t17 41.5q12 29 21 51.5l13 32.5l43 -15v0zM495 793l-164 -120l-40 9l144 134l60 -23v0z" />
<glyph unicode="&#xdb;" horiz-adv-x="491" d="M528 645l-101 -352q-6 -23 -12 -50t-11 -55q-6 -32 -10 -62t-5 -54l-45 2q1 20 3 40t5 41q5 35 12 70.5t16 68.5q-8 -15 -16.5 -30t-17.5 -31q-41 -68 -93 -125t-117 -57q-22 0 -36 7.5t-22 15.5q-1 2 -2 3l-2 2q-10 14 -15 33.5t-5 41.5q0 23 4 48.5t10 50.5 q4 16 8 31.5t8 30.5q2 8 4.5 16t4.5 15q7 23 14.5 50.5t16.5 56.5q18 65 33 119l15 54q1 2 1.5 5t1.5 6q0 2 0.5 3.5t0.5 2.5q2 5 2.5 9t0.5 7v0h-1q-9 0 -20 -10.5t-23 -26.5q-7 -11 -14.5 -23.5t-14.5 -25.5q-14 -25 -24.5 -47.5t-15.5 -32.5l-41 20q8 16 18 38t23 45 q22 40 50.5 74t61.5 34q12 0 20 -4t13 -8l2 -2l2 -2q5 -7 7 -14.5t2 -15.5q0 -9 -1.5 -17t-3.5 -15q-1 -3 -1.5 -6t-1.5 -6l-74 -260q-4 -12 -8.5 -28t-9.5 -34q-4 -13 -7.5 -26.5t-6.5 -26.5q-5 -23 -8.5 -44.5t-3.5 -40.5q0 -15 3 -27.5t9 -20.5l1.5 -1.5t2.5 -1.5 q3 -3 8 -5t14 -2q47 0 89.5 48.5t77.5 106.5q12 20 23 39.5t20 36.5l1 1q7 13 26.5 58.5t40.5 98.5q1 1 1.5 2.5t0.5 2.5q9 23 18 44.5t17 41.5q12 29 21 51.5l13 32.5l43 -15v0zM486 707l-34 -12l-92 42l-92 -42l-35 12l127 83l126 -83v0z" />
<glyph unicode="&#xdc;" horiz-adv-x="491" d="M528 645l-101 -352q-6 -23 -12 -50t-11 -55q-6 -32 -10 -62t-5 -54l-45 2q1 20 3 40t5 41q5 35 12 70.5t16 68.5q-8 -15 -16.5 -30t-17.5 -31q-41 -68 -93 -125t-117 -57q-22 0 -36 7.5t-22 15.5q-1 2 -2 3l-2 2q-10 14 -15 33.5t-5 41.5q0 23 4 48.5t10 50.5 q4 16 8 31.5t8 30.5q2 8 4.5 16t4.5 15q7 23 14.5 50.5t16.5 56.5q18 65 33 119l15 54q1 2 1.5 5t1.5 6q0 2 0.5 3.5t0.5 2.5q2 5 2.5 9t0.5 7v0h-1q-9 0 -20 -10.5t-23 -26.5q-7 -11 -14.5 -23.5t-14.5 -25.5q-14 -25 -24.5 -47.5t-15.5 -32.5l-41 20q8 16 18 38t23 45 q22 40 50.5 74t61.5 34q12 0 20 -4t13 -8l2 -2l2 -2q5 -7 7 -14.5t2 -15.5q0 -9 -1.5 -17t-3.5 -15q-1 -3 -1.5 -6t-1.5 -6l-74 -260q-4 -12 -8.5 -28t-9.5 -34q-4 -13 -7.5 -26.5t-6.5 -26.5q-5 -23 -8.5 -44.5t-3.5 -40.5q0 -15 3 -27.5t9 -20.5l1.5 -1.5t2.5 -1.5 q3 -3 8 -5t14 -2q47 0 89.5 48.5t77.5 106.5q12 20 23 39.5t20 36.5l1 1q7 13 26.5 58.5t40.5 98.5q1 1 1.5 2.5t0.5 2.5q9 23 18 44.5t17 41.5q12 29 21 51.5l13 32.5l43 -15v0zM357 787l-20 -70h-56l20 70h56v0zM461 787l-20 -70h-56l20 70h56v0z" />
<glyph unicode="&#xdd;" horiz-adv-x="146" />
<glyph unicode="&#xde;" horiz-adv-x="555" d="M523 573q3 -11 4.5 -23.5t1.5 -25.5q0 -28 -6.5 -57.5t-18.5 -59.5q-8 -19 -18.5 -37.5t-22.5 -36.5q-36 -52 -81 -92.5t-92 -64.5q-29 -14 -57 -22t-54 -8h-4h-4t-4 0.5t-4 0.5l5 45h3.5h3.5q1 -1 3 -1h3q6 0 12 0.5t12 1.5q49 8 95.5 41.5t81.5 71.5q13 14 23.5 27.5 t19.5 25.5q11 16 20 32.5t16 32.5q11 26 17 51.5t6 48.5q0 10 -1.5 19.5t-3.5 17.5q-1 3 -2 6.5t-2 6.5q-4 10 -11 18.5t-17 13.5q-5 2 -12 4t-15 2t-17.5 -2t-20.5 -7q-37 -15 -106 -93.5t-150 -298.5l-57 -202l-44 12l224 781h45l-105 -343q51 89 96 130.5t79 55.5 q16 7 30 9.5t26 2.5q14 0 26 -3t20 -7q21 -10 35.5 -29t21.5 -45v0z" />
<glyph unicode="&#xdf;" horiz-adv-x="515" d="M572 119l-13 -45h-99h-99h-99.5h-99.5q-13 0 -24.5 5.5t-19.5 15.5q-5 7 -8 15.5t-3 17.5q0 5 1 9.5t2 8.5l29 102l43 -13l-29 -102v-0.5v-1.5q-1 -1 -1 -1.5v-1.5t0.5 -2.5t1.5 -3.5q1 -1 2 -1.5t2 -0.5q1 -1 2 -1h2h114q8 0 15.5 3t11.5 9q2 4 3.5 8.5t1.5 10.5 q0 5 -1 9.5t-3 9.5l-4.5 11t-9.5 24q-5 14 -9.5 25.5l-4.5 11.5q-4 9 -5.5 18t-1.5 16q0 18 8.5 32.5t24.5 21.5l56 23q4 2 10 8t13 15q5 9 10.5 20t9.5 25q2 8 3.5 16t1.5 15q0 33 -21.5 55t-59.5 22q-5 0 -10 -0.5t-10 -1.5q-44 -7 -83 -41t-51 -78l-97 -333h-47 q5 18 19.5 67t30.5 105q1 2 1.5 4t0.5 4q4 11 7 21.5t6 21.5h-39v45h52l22 78q17 59 70 103t113 49q4 1 7.5 1h7.5q30 0 57.5 -12t45.5 -36q12 -16 17.5 -34.5t5.5 -38.5q0 -11 -2 -22.5t-5 -22.5q-10 -35 -29 -61.5t-39 -34.5l-56 -24q-4 -1 -5 -4.5t-1 -7.5q0 -3 0.5 -6 t1.5 -5t1.5 -4l0.5 -2l28 -73q4 -10 5.5 -19.5t1.5 -18.5v-6.5t-1 -7.5t-1.5 -7.5t-2.5 -6.5h224v0z" />
<glyph unicode="&#xe0;" horiz-adv-x="577" d="M609 119l-13 -45h-297q-31 0 -42 14.5t-11 36.5q0 8 1 16t3 17q2 7 4 14.5t5 14.5q3 10 5.5 18.5t4.5 14.5l-12 -12l-13 -13l-55.5 -55.5l-25.5 -25.5q-25 -25 -45.5 -32.5t-34.5 -7.5q-7 0 -11.5 1t-7.5 2q-16 5 -25.5 19.5t-9.5 31.5v4.5t1 5.5q0 2 0.5 4.5t1.5 4.5 q1 4 2 7.5t2 8.5q4 14 7.5 31.5t8.5 34.5q12 43 35 79t70 36h193l-57 -198q0 -1 -0.5 -2t-0.5 -2v-2v-2q0 -7 5.5 -13t14.5 -6h297v0zM292 299l-148 -1q-10 0 -18 -4t-11 -15l-38 -132q-1 -1 -1 -2.5v-3.5q0 -7 4 -13t10 -8q2 -1 3.5 -1h3.5q3 0 6 1l6 2q5 3 10 7t9 8 q2 1 3 2l2 2l159 158v0zM287 414l-20 -19l-164 120l40 23l144 -124v0z" />
<glyph unicode="&#xe1;" horiz-adv-x="558" d="M609 119l-13 -45h-297q-31 0 -42 14.5t-11 36.5q0 8 1 16t3 17q2 7 4 14.5t5 14.5q3 10 5.5 18.5t4.5 14.5l-12 -12l-13 -13l-55.5 -55.5l-25.5 -25.5q-25 -25 -45.5 -32.5t-34.5 -7.5q-7 0 -11.5 1t-7.5 2q-16 5 -25.5 19.5t-9.5 31.5v4.5t1 5.5q0 2 0.5 4.5t1.5 4.5 q1 4 2 7.5t2 8.5q4 14 7.5 31.5t8.5 34.5q12 43 35 79t70 36h193l-57 -198q0 -1 -0.5 -2t-0.5 -2v-2v-2q0 -7 5.5 -13t14.5 -6h297v0zM292 299l-148 -1q-10 0 -18 -4t-11 -15l-38 -132q-1 -1 -1 -2.5v-3.5q0 -7 4 -13t10 -8q2 -1 3.5 -1h3.5q3 0 6 1l6 2q5 3 10 7t9 8 q2 1 3 2l2 2l159 158v0zM384 500l-164 -120l-40 9l144 134l60 -23v0z" />
<glyph unicode="&#xe2;" horiz-adv-x="566" d="M609 119l-13 -45h-297q-31 0 -42 14.5t-11 36.5q0 8 1 16t3 17q2 7 4 14.5t5 14.5q3 10 5.5 18.5t4.5 14.5l-12 -12l-13 -13l-55.5 -55.5l-25.5 -25.5q-25 -25 -45.5 -32.5t-34.5 -7.5q-7 0 -11.5 1t-7.5 2q-16 5 -25.5 19.5t-9.5 31.5v4.5t1 5.5q0 2 0.5 4.5t1.5 4.5 q1 4 2 7.5t2 8.5q4 14 7.5 31.5t8.5 34.5q12 43 35 79t70 36h193l-57 -198q0 -1 -0.5 -2t-0.5 -2v-2v-2q0 -7 5.5 -13t14.5 -6h297v0zM292 299l-148 -1q-10 0 -18 -4t-11 -15l-38 -132q-1 -1 -1 -2.5v-3.5q0 -7 4 -13t10 -8q2 -1 3.5 -1h3.5q3 0 6 1l6 2q5 3 10 7t9 8 q2 1 3 2l2 2l159 158v0zM349 385l-34 -12l-92 42l-92 -42l-35 12l127 83l126 -83v0z" />
<glyph unicode="&#xe3;" horiz-adv-x="566" d="M609 119l-13 -45h-297q-31 0 -42 14.5t-11 36.5q0 8 1 16t3 17q2 7 4 14.5t5 14.5q3 10 5.5 18.5t4.5 14.5l-12 -12l-13 -13l-55.5 -55.5l-25.5 -25.5q-25 -25 -45.5 -32.5t-34.5 -7.5q-7 0 -11.5 1t-7.5 2q-16 5 -25.5 19.5t-9.5 31.5v4.5t1 5.5q0 2 0.5 4.5t1.5 4.5 q1 4 2 7.5t2 8.5q4 14 7.5 31.5t8.5 34.5q12 43 35 79t70 36h193l-57 -198q0 -1 -0.5 -2t-0.5 -2v-2v-2q0 -7 5.5 -13t14.5 -6h297v0zM292 299l-148 -1q-10 0 -18 -4t-11 -15l-38 -132q-1 -1 -1 -2.5v-3.5q0 -7 4 -13t10 -8q2 -1 3.5 -1h3.5q3 0 6 1l6 2q5 3 10 7t9 8 q2 1 3 2l2 2l159 158v0zM379 459q-14 -17 -31 -29t-34 -19q-10 -3 -19.5 -5t-18.5 -2q-20 0 -32 3.5t-22 7.5h-1.5t-1.5 1q-9 3 -19.5 6t-26.5 3q-18 0 -34 -5t-24 -14l-39 5q22 27 47.5 40.5t56.5 13.5q20 0 31.5 -3.5t20.5 -7.5q1 0 1.5 -0.5t1.5 -0.5q9 -4 18.5 -7 t24.5 -3q19 0 35.5 6t25.5 15l40 -5v0z" />
<glyph unicode="&#xe4;" horiz-adv-x="566" d="M609 119l-13 -45h-297q-31 0 -42 14.5t-11 36.5q0 8 1 16t3 17q2 7 4 14.5t5 14.5q3 10 5.5 18.5t4.5 14.5l-12 -12l-13 -13l-55.5 -55.5l-25.5 -25.5q-25 -25 -45.5 -32.5t-34.5 -7.5q-7 0 -11.5 1t-7.5 2q-16 5 -25.5 19.5t-9.5 31.5v4.5t1 5.5q0 2 0.5 4.5t1.5 4.5 q1 4 2 7.5t2 8.5q4 14 7.5 31.5t8.5 34.5q12 43 35 79t70 36h193l-57 -198q0 -1 -0.5 -2t-0.5 -2v-2v-2q0 -7 5.5 -13t14.5 -6h297v0zM292 299l-148 -1q-10 0 -18 -4t-11 -15l-38 -132q-1 -1 -1 -2.5v-3.5q0 -7 4 -13t10 -8q2 -1 3.5 -1h3.5q3 0 6 1l6 2q5 3 10 7t9 8 q2 1 3 2l2 2l159 158v0zM220 462l-20 -70h-56l20 70h56v0zM324 462l-20 -70h-56l20 70h56v0z" />
<glyph unicode="&#xe5;" horiz-adv-x="569" d="M609 119l-13 -45h-297q-31 0 -42 14.5t-11 36.5q0 8 1 16t3 17q2 7 4 14.5t5 14.5q3 10 5.5 18.5t4.5 14.5l-12 -12l-13 -13l-55.5 -55.5l-25.5 -25.5q-25 -25 -45.5 -32.5t-34.5 -7.5q-7 0 -11.5 1t-7.5 2q-16 5 -25.5 19.5t-9.5 31.5v4.5t1 5.5q0 2 0.5 4.5t1.5 4.5 q1 4 2 7.5t2 8.5q4 14 7.5 31.5t8.5 34.5q12 43 35 79t70 36h193l-57 -198q0 -1 -0.5 -2t-0.5 -2v-2v-2q0 -7 5.5 -13t14.5 -6h297v0zM292 299l-148 -1q-10 0 -18 -4t-11 -15l-38 -132q-1 -1 -1 -2.5v-3.5q0 -7 4 -13t10 -8q2 -1 3.5 -1h3.5q3 0 6 1l6 2q5 3 10 7t9 8 q2 1 3 2l2 2l159 158v0zM297 441q0 -26 -19 -44.5t-45 -18.5q-27 0 -45.5 18.5t-18.5 44.5t18.5 44.5t45.5 18.5q26 0 45 -18.5t19 -44.5v0zM255 441q0 9 -6.5 16t-16.5 7q-9 0 -16 -7t-7 -16q0 -10 7 -17t16 -7q10 0 16.5 7t6.5 17v0z" />
<glyph unicode="&#xe6;" horiz-adv-x="564" d="M614 120l-13 -45h-296q-30 0 -47 18t-16 44q0 5 1 10.5t2 11.5q5 17 16.5 32.5t25.5 27.5q-4 4 -6 9l-4 10q-7 -8 -12 -13.5t-4 -3.5l-12.5 -12.5l-13.5 -13.5q-30 -30 -55.5 -55l-25.5 -25q-25 -25 -45.5 -32.5t-34.5 -7.5q-6 0 -11 1t-8 2q-16 6 -25 20.5t-9 32.5 q0 4 0.5 8.5t1.5 8.5q1 5 2.5 10t2.5 10q4 14 7.5 29.5t7.5 32.5q12 43 35 79t70 36h194l-3 -9q5 2 10.5 4t11.5 3q5 1 10.5 1.5t10.5 0.5h175l-13 -45h-175q-3 0 -7 -0.5t-8 -1.5q-10 -3 -19 -10t-12 -17q-1 -1 -1 -2.5v-3.5q0 -9 9 -15.5t22 -6.5h109l-13 -46h-109h-3.5 t-2.5 -1q-15 -2 -27.5 -12.5t-15.5 -24.5q-1 -3 -1.5 -6t-0.5 -5q1 -12 8.5 -20t20.5 -8h296v0zM284 300l-149 -1q-9 0 -17 -4t-11 -14l-38 -133q-1 -1 -1 -2.5v-3.5q0 -7 4 -13t10 -8q2 -1 3.5 -1h3.5q3 0 6 1l6 2q5 3 10 7t9 8q2 1 3 2l2 2l159 158v0z" />
<glyph unicode="&#xe7;" horiz-adv-x="444" d="M490 119l-13 -45h-52t-117 1h-10h-9h-115.5h-68.5l-7 -15t-15 -33t-15 -33l-7 -15l-56 -1q0 1 9 17t20 36t20 36.5l9 16.5q-25 11 -34.5 32t-9.5 47q0 16 3 33.5t8 34.5q3 13 7 25.5t8 24.5q6 18 11.5 34t9.5 29h165q22 0 29.5 -10.5t7.5 -25.5q0 -6 -1 -12l-2 -12 q-1 -5 -2.5 -11t-3.5 -11q-2 -8 -4.5 -15t-3.5 -12h-46q1 2 3 7.5t5 13.5q1 3 1.5 5.5t1.5 4.5q2 8 3.5 14.5t1.5 11.5q0 3 -0.5 4.5t-2.5 1.5h-120q-2 -9 -5.5 -18.5t-6.5 -20.5q-2 -6 -4 -13l-4 -14q-4 -13 -6 -26.5t-2 -25.5q0 -26 15.5 -43.5t58.5 -17.5h346v0z" />
<glyph unicode="&#xe8;" horiz-adv-x="518" d="M561 119l-13 -45h-458q-30 0 -47 18t-16 44q0 5 1 10.5t2 11.5q5 17 16 32.5t26 26.5q-6 8 -9.5 17t-3.5 19v4t1 5q0 2 0.5 4t1.5 4q9 30 38.5 51.5t62.5 22.5h2h2h175l-13 -45h-175q-3 0 -7 -0.5t-8 -1.5q-10 -3 -19 -10t-12 -17q-1 -1 -1 -2.5v-3.5q0 -9 9 -15.5 t22 -6.5h109l-13 -46h-109q-16 0 -30.5 -11.5t-19.5 -26.5q-1 -3 -1.5 -5.5t0.5 -4.5q0 -13 8 -21t21 -8h458v0zM299 382l-20 -19l-164 120l40 23l144 -124v0z" />
<glyph unicode="&#xe9;" horiz-adv-x="525" d="M561 119l-13 -45h-458q-30 0 -47 18t-16 44q0 5 1 10.5t2 11.5q5 17 16 32.5t26 26.5q-6 8 -9.5 17t-3.5 19v4t1 5q0 2 0.5 4t1.5 4q9 30 38.5 51.5t62.5 22.5h2h2h175l-13 -45h-175q-3 0 -7 -0.5t-8 -1.5q-10 -3 -19 -10t-12 -17q-1 -1 -1 -2.5v-3.5q0 -9 9 -15.5 t22 -6.5h109l-13 -46h-109q-16 0 -30.5 -11.5t-19.5 -26.5q-1 -3 -1.5 -5.5t0.5 -4.5q0 -13 8 -21t21 -8h458v0zM387 493l-164 -120l-40 9l144 134l60 -23v0z" />
<glyph unicode="&#xea;" horiz-adv-x="518" d="M561 119l-13 -45h-458q-30 0 -47 18t-16 44q0 5 1 10.5t2 11.5q5 17 16 32.5t26 26.5q-6 8 -9.5 17t-3.5 19v4t1 5q0 2 0.5 4t1.5 4q9 30 38.5 51.5t62.5 22.5h2h2h175l-13 -45h-175q-3 0 -7 -0.5t-8 -1.5q-10 -3 -19 -10t-12 -17q-1 -1 -1 -2.5v-3.5q0 -9 9 -15.5 t22 -6.5h109l-13 -46h-109q-16 0 -30.5 -11.5t-19.5 -26.5q-1 -3 -1.5 -5.5t0.5 -4.5q0 -13 8 -21t21 -8h458v0zM352 379l-34 -12l-92 42l-92 -42l-35 12l127 83l126 -83v0z" />
<glyph unicode="&#xeb;" horiz-adv-x="525" d="M561 119l-13 -45h-458q-30 0 -47 18t-16 44q0 5 1 10.5t2 11.5q5 17 16 32.5t26 26.5q-6 8 -9.5 17t-3.5 19v4t1 5q0 2 0.5 4t1.5 4q9 30 38.5 51.5t62.5 22.5h2h2h175l-13 -45h-175q-3 0 -7 -0.5t-8 -1.5q-10 -3 -19 -10t-12 -17q-1 -1 -1 -2.5v-3.5q0 -9 9 -15.5 t22 -6.5h109l-13 -46h-109q-16 0 -30.5 -11.5t-19.5 -26.5q-1 -3 -1.5 -5.5t0.5 -4.5q0 -13 8 -21t21 -8h458v0zM238 437l-20 -70h-56l20 70h56v0zM342 437l-20 -70h-56l20 70h56v0z" />
<glyph unicode="&#xec;" horiz-adv-x="318" d="M356 119l-13 -45h-274q-24 0 -38 14.5t-14 36.5q0 3 0.5 6t0.5 6q1 1 1.5 3t0.5 3l61 215h46l-62 -215q0 -1 -0.5 -2l-0.5 -1v-2v-2q0 -7 5 -12t13 -5h274v0zM147 398l-20 -19l-164 120l40 23l144 -124v0z" />
<glyph unicode="&#xed;" horiz-adv-x="318" d="M356 119l-13 -45h-274q-24 0 -38 14.5t-14 36.5q0 3 0.5 6t0.5 6q1 1 1.5 3t0.5 3l61 215h46l-62 -215q0 -1 -0.5 -2l-0.5 -1v-2v-2q0 -7 5 -12t13 -5h274v0zM283 499l-164 -120l-40 9l144 134l60 -23v0z" />
<glyph unicode="&#xee;" horiz-adv-x="311" d="M356 119l-13 -45h-274q-24 0 -38 14.5t-14 36.5q0 3 0.5 6t0.5 6q1 1 1.5 3t0.5 3l61 215h46l-62 -215q0 -1 -0.5 -2l-0.5 -1v-2v-2q0 -7 5 -12t13 -5h274v0zM238 381l-34 -12l-92 42l-92 -42l-35 12l127 83l126 -83v0z" />
<glyph unicode="&#xef;" horiz-adv-x="318" d="M356 119l-13 -45h-274q-24 0 -38 14.5t-14 36.5q0 3 0.5 6t0.5 6q1 1 1.5 3t0.5 3l61 215h46l-62 -215q0 -1 -0.5 -2l-0.5 -1v-2v-2q0 -7 5 -12t13 -5h274v0zM117 472l-20 -70h-56l20 70h56v0zM221 472l-20 -70h-56l20 70h56v0z" />
<glyph unicode="&#xf0;" horiz-adv-x="579" d="M606 120l-13 -45h-297q-31 0 -42 14.5t-11 35.5q0 7 1 14.5t3 15.5q1 7 3.5 14.5t4.5 14.5q2 9 4.5 16.5l4.5 13.5q-12 -11 -27 -26.5t-31 -31.5q-13 -12 -27 -24.5t-28 -22.5q-20 -15 -39.5 -24t-36.5 -9q-5 0 -9.5 1.5t-9.5 2.5q-14 6 -22 19.5t-8 29.5q0 5 1 9.5 t2 9.5l39 138q8 24 27.5 41.5t45.5 17.5h161l20 70l-65 -19v47l80 23q1 5 1.5 8.5t0.5 7.5q0 8 -4 14t-15 6h-74l13 45h74q30 0 41.5 -14.5t11.5 -34.5q0 -4 -0.5 -8.5t-1.5 -9.5l52 14v-47l-64 -18q-1 -1 -1.5 -2.5t-0.5 -3.5h-1l-79 -276q0 -1 -0.5 -2t-0.5 -2v-2v-2 q0 -7 5.5 -13t14.5 -6h297v0zM289 299h-161q-7 0 -9.5 -3.5t-4.5 -9.5l-40 -138v-2v-1q-1 -1 -1 -2v-2q0 -6 2.5 -11t7.5 -7q2 -1 3.5 -1h2.5q8 0 17.5 5.5t20.5 15.5l158 143l4 13v0z" />
<glyph unicode="&#xf1;" horiz-adv-x="565" d="M602 119l-13 -45h-271q-49 0 -67 19t-18 47q0 11 2 23.5t5 25.5q2 8 4.5 15.5t5.5 15.5q6 20 11 37t5 29q0 8 -3 12.5t-9 5.5h-1.5t-0.5 1h-1.5h-1.5q-6 0 -12 -4t-11 -9q-1 -2 -2.5 -3.5t-2.5 -3.5l-160 -211h-32l77 270h46l-39 -136l73 96q7 9 13.5 15.5t13.5 11.5 q13 11 26.5 15t24.5 4h7t6 -1q21 -5 29 -17.5t8 -29.5q0 -15 -4.5 -31.5t-9.5 -33.5q-1 -2 -1.5 -4t-0.5 -4q-7 -19 -12 -37t-5 -33q0 -18 11 -29t39 -11h271v0zM386 435q-14 -17 -31 -29t-34 -19q-10 -3 -19.5 -5t-18.5 -2q-20 0 -32 3.5t-22 7.5h-1.5t-1.5 1q-9 3 -19.5 6 t-26.5 3q-18 0 -34 -5t-24 -14l-39 5q22 27 47.5 40.5t56.5 13.5q20 0 31.5 -3.5t20.5 -7.5q1 0 1.5 -0.5t1.5 -0.5q9 -4 18.5 -7t24.5 -3q19 0 35.5 6t25.5 15l40 -5v0z" />
<glyph unicode="&#xf2;" horiz-adv-x="504" d="M545 119l-13 -45h-404q-55 0 -79 32t-23 75q0 14 2 28t6 28q7 24 16 46.5t30 38.5q14 11 31.5 16.5t39.5 5.5h269l-13 -46h-269h-6t-5 -1q-6 -1 -11.5 -2.5t-10.5 -5.5q-8 -7 -14 -20.5t-11 -30.5q-2 -8 -4 -18t-3 -21v-4.5v-5.5q0 -27 13 -48.5t47 -21.5q48 0 75.5 34 t42.5 74q2 8 4.5 15.5t4.5 14.5h46q-12 -40 -27.5 -74t-50.5 -64h317v0zM286 387l-20 -19l-164 120l40 23l144 -124v0z" />
<glyph unicode="&#xf3;" horiz-adv-x="511" d="M545 119l-13 -45h-404q-55 0 -79 32t-23 75q0 14 2 28t6 28q7 24 16 46.5t30 38.5q14 11 31.5 16.5t39.5 5.5h269l-13 -46h-269h-6t-5 -1q-6 -1 -11.5 -2.5t-10.5 -5.5q-8 -7 -14 -20.5t-11 -30.5q-2 -8 -4 -18t-3 -21v-4.5v-5.5q0 -27 13 -48.5t47 -21.5q48 0 75.5 34 t42.5 74q2 8 4.5 15.5t4.5 14.5h46q-12 -40 -27.5 -74t-50.5 -64h317v0zM373 478l-164 -120l-40 9l144 134l60 -23v0z" />
<glyph unicode="&#xf4;" horiz-adv-x="515" d="M545 119l-13 -45h-404q-55 0 -79 32t-23 75q0 14 2 28t6 28q7 24 16 46.5t30 38.5q14 11 31.5 16.5t39.5 5.5h269l-13 -46h-269h-6t-5 -1q-6 -1 -11.5 -2.5t-10.5 -5.5q-8 -7 -14 -20.5t-11 -30.5q-2 -8 -4 -18t-3 -21v-4.5v-5.5q0 -27 13 -48.5t47 -21.5q48 0 75.5 34 t42.5 74q2 8 4.5 15.5t4.5 14.5h46q-12 -40 -27.5 -74t-50.5 -64h317v0zM333 381l-34 -12l-92 42l-92 -42l-35 12l127 83l126 -83v0z" />
<glyph unicode="&#xf5;" horiz-adv-x="504" d="M545 119l-13 -45h-404q-55 0 -79 32t-23 75q0 14 2 28t6 28q7 24 16 46.5t30 38.5q14 11 31.5 16.5t39.5 5.5h269l-13 -46h-269h-6t-5 -1q-6 -1 -11.5 -2.5t-10.5 -5.5q-8 -7 -14 -20.5t-11 -30.5q-2 -8 -4 -18t-3 -21v-4.5v-5.5q0 -27 13 -48.5t47 -21.5q48 0 75.5 34 t42.5 74q2 8 4.5 15.5t4.5 14.5h46q-12 -40 -27.5 -74t-50.5 -64h317v0zM370 430q-14 -17 -31 -29t-34 -19q-10 -3 -19.5 -5t-18.5 -2q-20 0 -32 3.5t-22 7.5h-1.5t-1.5 1q-9 3 -19.5 6t-26.5 3q-18 0 -34 -5t-24 -14l-39 5q22 27 47.5 40.5t56.5 13.5q20 0 31.5 -3.5 t20.5 -7.5q1 0 1.5 -0.5t1.5 -0.5q9 -4 18.5 -7t24.5 -3q19 0 35.5 6t25.5 15l40 -5v0z" />
<glyph unicode="&#xf6;" horiz-adv-x="511" d="M545 119l-13 -45h-404q-55 0 -79 32t-23 75q0 14 2 28t6 28q7 24 16 46.5t30 38.5q14 11 31.5 16.5t39.5 5.5h269l-13 -46h-269h-6t-5 -1q-6 -1 -11.5 -2.5t-10.5 -5.5q-8 -7 -14 -20.5t-11 -30.5q-2 -8 -4 -18t-3 -21v-4.5v-5.5q0 -27 13 -48.5t47 -21.5q48 0 75.5 34 t42.5 74q2 8 4.5 15.5t4.5 14.5h46q-12 -40 -27.5 -74t-50.5 -64h317v0zM222 445l-20 -70h-56l20 70h56v0zM326 445l-20 -70h-56l20 70h56v0z" />
<glyph unicode="&#xf7;" d="M253 262q0 -3 -1 -7t-3 -8q-5 -11 -15 -21t-21 -11h-1.5h-1.5h-9q-3 0 -7 1t-7 3q-8 4 -14.5 11t-10.5 14q-2 3 -3 6.5t-1 6.5v9q0 12 10 23t22 17l8 2t7 1q19 0 33.5 -14t14.5 -33v0zM400 337h-405v76h405v-76v0zM253 482q0 -3 -1 -7t-3 -8q-5 -11 -15 -21t-21 -11h-1.5 h-1.5h-9q-3 0 -7 1t-7 3q-8 4 -14.5 11t-10.5 14q-2 3 -3 6.5t-1 6.5v9q0 12 10 23t22 17l8 2t7 1q19 0 33.5 -14t14.5 -33v0z" />
<glyph unicode="&#xf8;" horiz-adv-x="543" d="M576 119l-13 -45h-410h-1.5h-1.5h-3h-3q-2 0 -3.5 0.5t-3.5 0.5l-85 -148l-25 14l82 141q-26 12 -40.5 37.5t-14.5 58.5q0 11 1.5 23t5.5 24l3 12q0 1 0.5 2t0.5 2q7 22 15.5 43.5t29.5 37.5q14 11 31.5 16.5t39.5 5.5h79l110 191l25 -14l-103 -177h158l-13 -46h-171 l-103 -179q37 0 69 30t46 66q1 2 1.5 4.5t1.5 5.5l9 32h46l-9 -32q-9 -31 -27 -58t-42 -48h318v0zM233 298h-65h-7t-7 -1q-6 -1 -11.5 -2.5t-9.5 -4.5q-8 -7 -13 -21t-10 -31l-4 -13q-1 -4 -2 -8.5t-2 -8.5q0 -4 -0.5 -8.5t-0.5 -8.5q1 -21 9 -38.5t24 -26.5l99 172v0z" />
<glyph unicode="&#xf9;" horiz-adv-x="577" d="M610 119l-13 -45h-296q-30 0 -41 15.5t-11 37.5q0 9 1.5 19t3.5 21q2 9 5 18.5t6 17.5q4 13 7.5 23.5t5.5 17.5q-4 -5 -8.5 -10.5t-8.5 -11.5q-22 -27 -44.5 -53.5t-47.5 -50.5q-7 -7 -15 -13.5t-15 -11.5q-16 -10 -31 -15t-29 -5q-5 0 -10 1l-10 2q-14 6 -22 18t-8 28 v5.5t1 4.5q0 2 0.5 4.5t1.5 5.5l58 202h45l-58 -202q0 -1 -0.5 -2l-0.5 -1v-2v-2q0 -5 2.5 -9t7.5 -6q2 -1 3.5 -1h3.5q8 0 20 6t28 20q15 15 32.5 34.5t34.5 40.5l18 22t17 22q16 21 31 41.5t27 38.5h51l-57 -198q0 -1 -0.5 -2t-0.5 -2v-2v-2q0 -7 5.5 -13t14.5 -6h296v0z M285 392l-20 -19l-164 120l40 23l144 -124v0z" />
<glyph unicode="&#xfa;" horiz-adv-x="566" d="M610 119l-13 -45h-296q-30 0 -41 15.5t-11 37.5q0 9 1.5 19t3.5 21q2 9 5 18.5t6 17.5q4 13 7.5 23.5t5.5 17.5q-4 -5 -8.5 -10.5t-8.5 -11.5q-22 -27 -44.5 -53.5t-47.5 -50.5q-7 -7 -15 -13.5t-15 -11.5q-16 -10 -31 -15t-29 -5q-5 0 -10 1l-10 2q-14 6 -22 18t-8 28 v5.5t1 4.5q0 2 0.5 4.5t1.5 5.5l58 202h45l-58 -202q0 -1 -0.5 -2l-0.5 -1v-2v-2q0 -5 2.5 -9t7.5 -6q2 -1 3.5 -1h3.5q8 0 20 6t28 20q15 15 32.5 34.5t34.5 40.5l18 22t17 22q16 21 31 41.5t27 38.5h51l-57 -198q0 -1 -0.5 -2t-0.5 -2v-2v-2q0 -7 5.5 -13t14.5 -6h296v0z M378 487l-164 -120l-40 9l144 134l60 -23v0z" />
<glyph unicode="&#xfb;" horiz-adv-x="573" d="M610 119l-13 -45h-296q-30 0 -41 15.5t-11 37.5q0 9 1.5 19t3.5 21q2 9 5 18.5t6 17.5q4 13 7.5 23.5t5.5 17.5q-4 -5 -8.5 -10.5t-8.5 -11.5q-22 -27 -44.5 -53.5t-47.5 -50.5q-7 -7 -15 -13.5t-15 -11.5q-16 -10 -31 -15t-29 -5q-5 0 -10 1l-10 2q-14 6 -22 18t-8 28 v5.5t1 4.5q0 2 0.5 4.5t1.5 5.5l58 202h45l-58 -202q0 -1 -0.5 -2l-0.5 -1v-2v-2q0 -5 2.5 -9t7.5 -6q2 -1 3.5 -1h3.5q8 0 20 6t28 20q15 15 32.5 34.5t34.5 40.5l18 22t17 22q16 21 31 41.5t27 38.5h51l-57 -198q0 -1 -0.5 -2t-0.5 -2v-2v-2q0 -7 5.5 -13t14.5 -6h296v0z M354 395l-34 -12l-92 42l-92 -42l-35 12l127 83l126 -83v0z" />
<glyph unicode="&#xfc;" horiz-adv-x="566" d="M610 119l-13 -45h-296q-30 0 -41 15.5t-11 37.5q0 9 1.5 19t3.5 21q2 9 5 18.5t6 17.5q4 13 7.5 23.5t5.5 17.5q-4 -5 -8.5 -10.5t-8.5 -11.5q-22 -27 -44.5 -53.5t-47.5 -50.5q-7 -7 -15 -13.5t-15 -11.5q-16 -10 -31 -15t-29 -5q-5 0 -10 1l-10 2q-14 6 -22 18t-8 28 v5.5t1 4.5q0 2 0.5 4.5t1.5 5.5l58 202h45l-58 -202q0 -1 -0.5 -2l-0.5 -1v-2v-2q0 -5 2.5 -9t7.5 -6q2 -1 3.5 -1h3.5q8 0 20 6t28 20q15 15 32.5 34.5t34.5 40.5l18 22t17 22q16 21 31 41.5t27 38.5h51l-57 -198q0 -1 -0.5 -2t-0.5 -2v-2v-2q0 -7 5.5 -13t14.5 -6h296v0z M210 465l-20 -70h-56l20 70h56v0zM314 465l-20 -70h-56l20 70h56v0z" />
<glyph unicode="&#xfd;" horiz-adv-x="146" />
<glyph unicode="&#xfe;" horiz-adv-x="678" d="M705 120l-13 -46h-540l-73 -258h-45l218 765h45l-98 -343q9 10 21.5 21.5t27.5 23.5q16 14 34.5 27t36.5 23q19 10 36.5 15.5t33.5 5.5q3 0 8.5 -0.5t11.5 -3.5q8 -3 15.5 -12t7.5 -28q0 -7 -1.5 -15.5t-4.5 -18.5q0 -2 -0.5 -3.5t-1.5 -2.5q-3 -14 -7 -29.5t-8 -30.5 q-7 -25 -17 -49t-25 -41h338v0zM375 309q-16 0 -43 -15t-57 -39q-23 -19 -46 -42t-39 -47q-8 -12 -14.5 -23.5t-10.5 -22.5q7 0 15 -0.5t17 -1.5q11 0 23 -0.5t24 -0.5q35 0 66 10.5t41 46.5l5 13.5t10 32.5q2 5 3.5 10.5t3.5 11.5q4 15 6.5 29t2.5 24q0 6 -1.5 10t-5.5 4v0 z" />
<glyph unicode="&#xff;" horiz-adv-x="583" d="M620 119l-13 -45h-312h-6.5t-6.5 -1q-3 0 -6.5 -0.5t-6.5 -0.5q-4 -13 -8.5 -35t-11.5 -45q-10 -35 -28.5 -65t-51.5 -30l-128 -1q21 74 69 130t124 81l36 126q-26 -34 -55.5 -63.5t-62.5 -56.5q-25 -22 -44 -29t-32 -7q-7 0 -12 1.5t-9 2.5q-12 5 -18.5 17t-6.5 27 q0 5 1 10.5t2 11.5l56 197h45l-56 -197q0 -1 -0.5 -2.5t-0.5 -3.5v-1.5v-1.5q0 -4 1.5 -8.5t5.5 -6.5q6 -2 17.5 3t26.5 18q27 22 48.5 43t38.5 42q23 27 41.5 54t36.5 56q1 1 1.5 2.5t1.5 2.5h51l-65 -226q3 0 6.5 0.5t6.5 0.5h6.5h6.5h312v0zM219 57q-38 -16 -69.5 -46.5 t-48.5 -68.5l81 -1q3 1 7.5 12t8.5 26q2 5 3.5 10.5t3.5 10.5q5 19 9 35.5t5 21.5v0zM227 455l-20 -70h-56l20 70h56v0zM331 455l-20 -70h-56l20 70h56v0z" />
<glyph unicode="&#x152;" horiz-adv-x="859" d="M931 676q2 -4 2.5 -9t0.5 -10q0 -11 -3.5 -22t-8.5 -23q-6 -12 -14 -23.5t-16 -23.5q-7 -10 -13.5 -19.5t-12.5 -17.5l-38 25q5 7 12.5 17t15.5 22q2 3 4.5 6.5t4.5 7.5q10 15 17 29t7 23v0.5v1.5q-1 1 -1 1.5v0.5q-2 8 -7 12.5t-13 7.5q-5 2 -12.5 3t-15.5 1 q-19 0 -46 -7.5t-59 -26.5q-6 -4 -23.5 -16.5t-37.5 -28.5q-10 -9 -19.5 -18t-17.5 -18q-12 -13 -19.5 -25.5t-7.5 -23.5q0 -4 1 -7t3 -6l47 -65q-6 -4 -12 -7.5t-12 -6.5q-61 -37 -109.5 -78t-87.5 -103q-7 -14 -10 -27.5t-3 -26.5q0 -8 1.5 -15.5t4.5 -15.5 q8 -18 24.5 -27t35.5 -13q11 -2 22 -3t20 -1h303v-46h-303q-8 0 -16 0.5t-16 1.5q-34 4 -65.5 20t-46.5 50q-2 7 -4 13.5t-3 13.5q-12 -14 -25 -26t-26 -22q-43 -35 -83.5 -51.5t-69.5 -16.5q-39 0 -63 12.5t-37 27.5l-3.5 3.5t-2.5 3.5q-15 20 -22.5 46.5t-6.5 59.5 q0 26 4.5 55.5t13.5 61.5q1 4 2.5 8.5t2.5 8.5q42 129 137.5 237t206.5 108h140v-45h-140q-77 0 -142 -63t-108 -139q-19 -34 -33 -67t-22 -60q-9 -30 -13 -57t-4 -50q0 -25 5 -44t15 -33q11 -14 28.5 -21.5t41.5 -7.5t63 18.5t81 57.5q21 19 41.5 44t39.5 56q2 4 4.5 8.5 t4.5 8.5l1.5 3l1.5 3q6 11 12 22.5t11 23.5q29 68 38.5 111.5t9.5 68.5q0 14 -2 23t-5 14q0 1 -0.5 2t-1.5 2t-1.5 2t-1.5 2q-3 4 -10.5 8t-22.5 4q-10 0 -21.5 -3.5t-23.5 -9.5q-27 -16 -52 -48.5t-38 -78.5l-1 -55q-1 2 -2 -1.5t-1 -9.5v-4.5v-5.5t0.5 -5.5t0.5 -5.5 q0 -4 0.5 -7.5t0.5 -4.5q-27 0 -37 20t-10 44v1.5v1.5q0 13 1.5 24.5t4.5 20.5q20 71 68 119t101 53h4.5h4.5q27 0 43.5 -9t25.5 -19q1 -2 2.5 -3.5t2.5 -3.5q8 -13 12.5 -29.5t4.5 -37.5q0 -26 -6.5 -59t-20.5 -73q19 16 41 31.5t47 31.5q-4 6 -8.5 11.5t-7.5 11.5 q-6 9 -9.5 18t-3.5 20q0 4 0.5 8.5t1.5 8.5q3 16 13 33.5t25 35.5q20 23 47 45t60 41q35 20 67 30.5t60 10.5q12 0 23 -2t21 -6q17 -6 29.5 -18.5t17.5 -29.5v0z" />
<glyph unicode="&#x153;" horiz-adv-x="700" d="M776 119l-13 -45h-458q-25 0 -41 13t-21 33v-0.5t-1 -0.5l-0.5 -0.5l-0.5 -0.5l-3.5 -3.5l-3.5 -3.5q-15 -14 -40 -25t-59 -12h-0.5h-1.5h-1.5h-0.5q-49 1 -72 33t-23 74q1 11 2.5 22t4.5 22q1 2 1.5 4t0.5 4q1 2 1.5 3.5t0.5 3.5q7 23 16 44.5t29 37.5q14 11 32 16.5 t40 5.5h393l-13 -45h-124q0 -1 -2 -1h-4h-6t-7 1h-8.5h-9.5h-6.5t-7.5 -1q-15 -1 -28.5 -7t-17.5 -21q-1 -1 -1 -2.5v-3.5q0 -9 9 -15.5t22 -6.5h109l-13 -46h-109h-3.5t-2.5 -1q-15 -2 -27.5 -12.5t-15.5 -24.5q-1 -3 -1.5 -6t-0.5 -5q1 -12 8.5 -20t20.5 -8h458v0z M292 298h-141h-8t-8 -1q-6 -1 -11 -2.5t-9 -4.5q-8 -7 -13 -21t-10 -31q-3 -11 -5 -23t-2 -25q0 -28 13.5 -49.5t47.5 -21.5q35 0 59 21.5t39 47.5t22.5 47.5t8.5 21.5v3.5t1 3.5q0 1 0.5 3t0.5 3q2 8 6 15t9 13v0z" />
<glyph unicode="&#x178;" horiz-adv-x="663" d="M723 -7h-271q-37 -77 -114.5 -127.5t-162.5 -59.5q-9 -1 -17.5 -1.5t-17.5 -0.5q-25 0 -44.5 6t-33.5 19q-13 11 -20.5 27.5t-7.5 35.5q0 5 0.5 10t1.5 10q9 48 57.5 87.5t120.5 39.5h207q32 109 63 218.5t62 218.5q-6 -12 -13 -24t-13 -24q-13 -25 -26.5 -49t-28.5 -47 q-3 -5 -6.5 -10.5t-6.5 -10.5q-54 -88 -117.5 -160.5t-137.5 -72.5q-29 0 -40.5 20.5t-11.5 50.5q0 14 2 29.5t5 31.5t7.5 32t8.5 31q7 23 13.5 41t8.5 25q7 24 16 54.5t18 62.5q0 2 1 4t1 4q20 70 36.5 129t16.5 58q1 2 1.5 5.5t1.5 6.5q0 1 0.5 2.5t0.5 2.5q1 5 2 9.5 t1 7.5h-1v0q-9 0 -20.5 -11.5t-23.5 -28.5q-7 -10 -14 -22l-14 -24q-14 -25 -24.5 -47.5t-15.5 -32.5l-41 20q8 16 18.5 38t23.5 46q22 40 50 73.5t61 33.5q12 0 20 -4t13 -8l2 -2l2 -2q5 -7 7 -14.5t2 -15.5q0 -4 -0.5 -7.5t-0.5 -7.5q-1 -5 -2 -9t-2 -9q-1 -3 -1.5 -6 t-1.5 -6q-7 -26 -14.5 -52t-15.5 -52q-3 -13 -7 -26t-7 -26q-11 -40 -22.5 -79t-23.5 -78q-3 -11 -8 -28t-11 -36q-2 -7 -3.5 -14.5t-3.5 -14.5q-7 -26 -11.5 -50.5t-4.5 -40.5q0 -7 1 -12t3 -7q3 -1 6 -1.5t7 -0.5q17 0 37 12t40 31q17 17 34 37.5t33 41.5q26 35 46 67 t29 46q8 14 33.5 59.5t54.5 98.5q1 2 2.5 4t2.5 4q29 53 53.5 100.5t31.5 63.5l43 -15q-22 -79 -44.5 -158t-44.5 -158q-23 -79 -45 -158t-45 -158h254v-46v0zM401 -7h-187q-10 1 -20 -0.5t-21 -4.5q-35 -10 -64 -34.5t-29 -61.5q0 -9 3 -16.5t9 -12.5q8 -7 20 -10.5 t28 -3.5h2.5h3.5q77 2 147.5 43t107.5 102v-1zM460 798l-20 -70h-56l20 70h56v0zM564 798l-20 -70h-56l20 70h56v0z" />
<glyph unicode="&#x2c6;" horiz-adv-x="362" d="M325 671q-14 -17 -31 -29t-34 -19q-10 -3 -19.5 -5t-18.5 -2q-20 0 -32 3.5t-22 7.5h-1.5t-1.5 1q-9 3 -19.5 6t-26.5 3q-18 0 -34 -5t-24 -14l-39 5q22 27 47.5 40.5t56.5 13.5q20 0 31.5 -3.5t20.5 -7.5q1 0 1.5 -0.5t1.5 -0.5q9 -4 18.5 -7t24.5 -3q19 0 35.5 6 t25.5 15l40 -5v0z" />
<glyph unicode="&#x2dc;" horiz-adv-x="362" d="M299 621l-34 -12l-92 42l-92 -42l-35 12l127 83l126 -83v0z" />
<glyph unicode="&#x2000;" horiz-adv-x="451" />
<glyph unicode="&#x2001;" horiz-adv-x="903" />
<glyph unicode="&#x2002;" horiz-adv-x="451" />
<glyph unicode="&#x2003;" horiz-adv-x="903" />
<glyph unicode="&#x2004;" horiz-adv-x="301" />
<glyph unicode="&#x2005;" horiz-adv-x="225" />
<glyph unicode="&#x2006;" horiz-adv-x="150" />
<glyph unicode="&#x2007;" horiz-adv-x="150" />
<glyph unicode="&#x2008;" horiz-adv-x="112" />
<glyph unicode="&#x2009;" horiz-adv-x="180" />
<glyph unicode="&#x200a;" horiz-adv-x="50" />
<glyph unicode="&#x2010;" horiz-adv-x="200" d="M188 287h-188v76h188v-76v0z" />
<glyph unicode="&#x2011;" horiz-adv-x="200" d="M188 287h-188v76h188v-76v0z" />
<glyph unicode="&#x2012;" horiz-adv-x="200" d="M188 287h-188v76h188v-76v0z" />
<glyph unicode="&#x2013;" d="M400 257h-405v56h405v-56v0z" />
<glyph unicode="&#x2014;" horiz-adv-x="800" d="M785 257h-780v56h780v-56v0z" />
<glyph unicode="&#x2018;" horiz-adv-x="107" d="M16 626l53 114l35 -12q-3 -9 -8 -27t-10 -38q-1 -3 -2 -6.5t-2 -6.5q-6 -21 -11.5 -37.5t-9.5 -20.5t-9.5 -6t-11.5 -2t-11.5 2.5t-9.5 6.5l-4 6t-3 6q-1 1 -1 3v3q1 4 2 7.5t3 7.5v0z" />
<glyph unicode="&#x2019;" horiz-adv-x="107" d="M100 695l-53 -113l-35 12q3 9 7.5 27t10.5 37q1 5 2.5 9.5t2.5 9.5q6 19 11 34t9 18q5 4 10 6t11 2t11.5 -2t9.5 -6q2 -2 3.5 -4.5t2.5 -4.5q1 -3 1.5 -5.5t0.5 -4.5q-1 -4 -2 -7.5t-3 -7.5v0z" />
<glyph unicode="&#x201a;" horiz-adv-x="112" d="M101 97v-2v-2t-0.5 -2t-0.5 -2v-2t-1 -2l-20 -71h-47l14 48q-10 5 -16 14.5t-6 20.5q0 17 11.5 28t27.5 11t27 -11t11 -28v0z" />
<glyph unicode="&#x201c;" horiz-adv-x="165" d="M16 626l53 114l35 -12q-3 -9 -8 -27t-10 -38q-1 -3 -2 -6.5t-2 -6.5q-6 -21 -11.5 -37.5t-9.5 -20.5t-9.5 -6t-11.5 -2t-11.5 2.5t-9.5 6.5l-4 6t-3 6q-1 1 -1 3v3q1 4 2 7.5t3 7.5v0zM91 626l53 114l35 -12q-3 -9 -8 -27t-10 -38q-1 -3 -2 -6.5t-2 -6.5 q-6 -21 -11.5 -37.5t-9.5 -20.5t-9.5 -6t-11.5 -2t-11.5 2.5t-9.5 6.5l-4 6t-3 6q-1 1 -1 3v3q1 4 2 7.5t3 7.5v0z" />
<glyph unicode="&#x201d;" horiz-adv-x="165" d="M100 675l-53 -113l-35 12q3 9 7.5 27t10.5 37q1 5 2.5 9.5t2.5 9.5q6 19 11 34t9 18q5 4 10 6t11 2t11.5 -2t9.5 -6q2 -2 3.5 -4.5t2.5 -4.5q1 -3 1.5 -5.5t0.5 -4.5q-1 -4 -2 -7.5t-3 -7.5v0zM175 675l-53 -113l-35 12q3 9 7.5 27t10.5 37q1 5 2.5 9.5t2.5 9.5 q6 19 11 34t9 18q5 4 10 6t11 2t11.5 -2t9.5 -6q2 -2 3.5 -4.5t2.5 -4.5q1 -3 1.5 -5.5t0.5 -4.5q-1 -4 -2 -7.5t-3 -7.5v0z" />
<glyph unicode="&#x201e;" horiz-adv-x="244" d="M111 97v-2v-2t-0.5 -2t-0.5 -2v-2t-1 -2l-20 -71h-47l14 48q-10 5 -16 14.5t-6 20.5q0 17 11.5 28t27.5 11t27 -11t11 -28v0zM231 97v-2v-2t-0.5 -2t-0.5 -2v-2t-1 -2l-20 -71h-47l14 48q-10 5 -16 14.5t-6 20.5q0 17 11.5 28t27.5 11t27 -11t11 -28v0z" />
<glyph unicode="&#x2022;" horiz-adv-x="349" d="M177 440q64 0 109 -45t45 -109t-45 -109t-109 -45t-109 45t-45 109t45 109t109 45v0z" />
<glyph unicode="&#x2026;" horiz-adv-x="341" d="M89 97q0 -16 -11.5 -27t-27.5 -11t-27.5 11t-11.5 27q0 17 11.5 28t27.5 11t27.5 -11t11.5 -28v0zM209 97q0 -16 -11.5 -27t-27.5 -11t-27.5 11t-11.5 27q0 17 11.5 28t27.5 11t27.5 -11t11.5 -28v0zM329 97q0 -16 -11.5 -27t-27.5 -11t-27.5 11t-11.5 27q0 17 11.5 28 t27.5 11t27.5 -11t11.5 -28v0z" />
<glyph unicode="&#x202f;" horiz-adv-x="180" />
<glyph unicode="&#x2039;" horiz-adv-x="149" d="M158 197l-173 177l173 170v-101l-72 -71l72 -73v-102v0z" />
<glyph unicode="&#x203a;" horiz-adv-x="149" d="M170 374l-174 -176v101l72 73l-72 71v101l174 -170v0z" />
<glyph unicode="&#x205f;" horiz-adv-x="225" />
<glyph unicode="&#x2122;" horiz-adv-x="333" d="M124 724h-41v-230h-31v230h-42v31h114v-31v0zM310 494h-31v229q-14 -2 -25 -10.5t-11 -25.5v-120h-30v120q0 17 -10.5 25.5t-24.5 10.5v-229h-33v260q30 0 49.5 -3.5t33.5 -20.5q14 17 34 20.5t48 4.5v-261v0z" />
<glyph unicode="&#xe000;" horiz-adv-x="345" d="M0 345h345v-345h-345v345z" />
</font>
</defs>
</svg>
