<?xml version="1.0" standalone="no"?>
<!DOCTYPE svg PUBLIC "-//W3C//DTD SVG 1.1//EN" "http://www.w3.org/Graphics/SVG/1.1/DTD/svg11.dtd" >
<svg xmlns="http://www.w3.org/2000/svg">
<metadata></metadata>
<defs>
<font id="paloaltoheavy" horiz-adv-x="630" >
<font-face units-per-em="1000" ascent="800" descent="-200" />
<missing-glyph horiz-adv-x="315" />
<glyph horiz-adv-x="1000" />
<glyph horiz-adv-x="1000" />
<glyph unicode="&#xd;" horiz-adv-x="315" />
<glyph unicode=" "  horiz-adv-x="315" />
<glyph unicode="&#x09;" horiz-adv-x="315" />
<glyph unicode="&#xa0;" horiz-adv-x="315" />
<glyph unicode="!" horiz-adv-x="296" d="M44 236q12 43 24 93.5t25.5 109t28 127t29.5 148.5h185q-27 -80 -49.5 -148.5t-40.5 -127t-32.5 -109t-26.5 -93.5h-143zM-18 0q-9 0 -13.5 6.5t-2.5 16.5l37 140q2 10 10.5 16.5t17.5 6.5h142q9 0 13.5 -6.5t2.5 -16.5l-38 -140q-2 -10 -10.5 -16.5t-17.5 -6.5h-141z " />
<glyph unicode="&#x22;" horiz-adv-x="500" d="M342 714h144l-97 -360h-144zM110 714h144l-97 -360h-144z" />
<glyph unicode="#" d="M488 190h-77l-77 -190h-115l77 190h-81l-77 -190h-115l77 190h-74l28 105h89l45 110h-74l28 105h89l76 187h115l-76 -187h81l76 187h115l-76 -187h62l-28 -105h-77l-45 -110h62zM303 405l-45 -110h81l45 110h-81z" />
<glyph unicode="$" d="M182 -14q-59 2 -105.5 9.5t-79.5 16.5t-51 16t-19 7l2 7t6 19.5t8 28t9 32.5l24 88q16 -9 43 -24t60.5 -29t72 -25t77.5 -12q15 0 41 1.5t52 8.5t48 22t29 41q5 19 -9 32.5t-40.5 23.5t-61 19t-70.5 21t-69 28t-55.5 40t-31.5 58t4 81q13 48 45.5 84t75.5 61t92 39.5 t95 20.5l25 94h82l-24 -91q73 -2 130.5 -12t91.5 -21l-3.5 -12.5t-8.5 -31t-11 -40t-11 -39.5t-8.5 -30l-3.5 -12q-14 12 -39.5 23.5t-55.5 20.5t-62.5 14.5t-61.5 5.5q-16 0 -41 -0.5t-50 -6t-45 -18t-26 -35.5q-6 -21 8.5 -34.5t41 -24t61 -20t70.5 -21t69.5 -27 t56.5 -38.5t32 -56t-3 -79q-14 -53 -44 -93t-72 -67t-94.5 -42.5t-112.5 -20.5l-25 -92h-82z" />
<glyph unicode="%" horiz-adv-x="1019" d="M236 514q-4 -15 -8.5 -34t-4 -36.5t8.5 -29.5t29 -12q20 0 34 12t24 29.5t16 36.5t10 34t8 34t4 36.5t-8 29.5t-28 12q-21 0 -35.5 -12t-24 -29.5t-15.5 -36.5t-10 -34zM159 -27l605 751h99l-605 -751h-99zM119 514q11 41 31 76t48 61t64 40.5t80 14.5t73 -14t43 -39 t15 -60.5t-11 -78.5q-11 -42 -30 -77.5t-47 -61t-64 -39.5t-82 -14q-45 0 -73.5 14t-42.5 40t-14.5 61t10.5 77zM557 183q11 41 31 76t48.5 61t64.5 40.5t80 14.5t72.5 -14t43 -39t15 -60.5t-11.5 -78.5q-11 -42 -30 -77.5t-46.5 -61t-64 -39.5t-81.5 -14q-46 0 -74.5 14 t-42.5 40t-14.5 61t10.5 77zM674 183q-4 -15 -8 -34t-3.5 -36.5t8 -29.5t28.5 -12q20 0 34.5 12t24 29.5t15.5 36.5t10 34t8.5 34t4 36.5t-8.5 29.5t-28 12q-21 0 -35 -12t-24 -29.5t-16 -36.5t-10 -34z" />
<glyph unicode="&#x26;" horiz-adv-x="722" d="M504 234q48 40 93 91l69 -110q-51 -54 -97 -90l51 -84l-148 -100l-50 89q-56 -25 -107.5 -35t-100.5 -10q-50 0 -96 10t-78.5 35t-45 67t4.5 106q10 40 32.5 72t52 57.5t63.5 44.5t69 34q-7 13 -14.5 26t-12.5 29t-5.5 36t6.5 46q9 35 31.5 68t55.5 58t75 40t90 15 q43 0 76 -13.5t54 -38t27.5 -58.5t-4.5 -75q-6 -20 -17 -42.5t-30.5 -46t-49.5 -46t-73 -42.5zM251 125q52 0 107 20l-91 162q-14 -5 -29.5 -12.5t-30.5 -19t-26.5 -26.5t-17.5 -36q-6 -24 -1.5 -41t17.5 -27.5t31.5 -15t40.5 -4.5zM413 609q-23 0 -43.5 -15t-26.5 -38 q-5 -18 -1.5 -34t9.5 -29q7 -15 18 -27q20 9 38 22q15 11 30 27t21 39q8 29 -7 42t-38 13z" />
<glyph unicode="'" horiz-adv-x="296" d="M189 714h144l-97 -360h-144z" />
<glyph unicode="(" horiz-adv-x="296" d="M425 729q-78 -104 -139.5 -219t-91.5 -236q-34 -116 -33.5 -230t23.5 -218h-159q-14 60 -20.5 113.5t-5 106.5t10.5 108.5t25 119.5q19 67 39.5 123.5t47.5 110t62 107.5t82 114h159z" />
<glyph unicode=")" horiz-adv-x="296" d="M270 729q15 -60 21 -114t4.5 -107.5t-11 -110t-25.5 -123.5q-18 -64 -39 -119.5t-47.5 -108.5t-61.5 -106.5t-82 -113.5h-158q39 52 74 106.5t64.5 111.5t52.5 114.5t38 115.5q35 121 34.5 236t-23.5 219h159z" />
<glyph unicode="*" horiz-adv-x="444" d="M198 453q-21 -31 -39 -56q-16 -21 -33.5 -39.5t-29.5 -20.5q-13 -2 -25.5 2.5t-21.5 12.5t-14.5 19.5t-3.5 24.5q1 12 19.5 30t40.5 35q26 19 57 40q-33 2 -59 6q-23 4 -42.5 10.5t-21.5 17.5q-3 11 1 25t11.5 27.5t19 24.5t23.5 17q13 6 31.5 -1.5t35.5 -18.5 q20 -13 41 -32q1 32 5 59q3 23 9 45.5t17 31.5t25.5 13.5t28.5 4.5t26.5 -4.5t18.5 -13.5q7 -9 1.5 -31.5t-14.5 -45.5q-11 -27 -27 -58q31 18 58 31q23 11 45.5 18t32.5 1t15 -17t5.5 -24.5t-3.5 -27.5t-13 -25q-8 -11 -31 -17.5t-47 -9.5q-28 -4 -62 -5q20 -22 34 -41 q12 -17 20 -35t3 -30t-16 -23.5t-24.5 -20t-28 -12.5t-26.5 -2t-20 20t-13 39q-6 25 -9 56z" />
<glyph unicode="+" horiz-adv-x="600" d="M295 506h144l-48 -181h180l-39 -144h-180l-48 -181h-144l48 181h-180l39 144h180z" />
<glyph unicode="," horiz-adv-x="316" d="M85 0q-9 0 -13.5 6.5t-2.5 16.5l38 140q2 10 10.5 16.5t17.5 6.5h142q9 0 13.5 -6.5t2.5 -16.5l-38 -142q-15 -54 -43 -90t-62 -58.5t-69.5 -33t-64.5 -13.5l22 80q43 11 67.5 33t39.5 61h-60z" />
<glyph unicode="-" horiz-adv-x="407" d="M28 200l39 144h311l-39 -144h-311z" />
<glyph unicode="." horiz-adv-x="316" d="M62 0q-9 0 -14 6.5t-2 16.5l37 140q3 10 11 16.5t17 6.5h142q9 0 14 -6.5t2 -16.5l-37 -140q-3 -10 -11 -16.5t-17 -6.5h-142z" />
<glyph unicode="/" horiz-adv-x="407" d="M359 729l147 -13l-459 -731l-144 15z" />
<glyph unicode="0" d="M267 114q42 0 71.5 24t50 59.5t34 76.5t22.5 75t17.5 75t7 76t-18.5 59t-59 24q-41 0 -70 -24t-49.5 -59t-34 -76t-22.5 -75t-17.5 -75t-7 -76.5t18 -59.5t57.5 -24zM229 -9q-74 0 -118 30t-63 79.5t-16.5 114t20.5 134.5t50 134.5t78 114t106 79t134 29.5 q76 0 122 -29.5t67 -79t19.5 -114t-19.5 -134.5q-19 -70 -52 -134.5t-80.5 -114t-109.5 -79.5t-138 -30z" />
<glyph unicode="1" d="M171 616q128 50 226 71.5t154 21.5l-189 -709h-169l143 534q-25 -3 -80.5 -20t-127.5 -55z" />
<glyph unicode="2" d="M81 196q29 25 66 50.5t76.5 50.5t78.5 50t71 49.5t54 48t28 46.5q7 25 1 42.5t-20 27.5t-33.5 13.5t-38.5 2.5q-38 -2 -75 -8.5t-69.5 -15.5t-60 -19t-47.5 -19l3 11.5t7.5 28.5t9.5 36.5t9.5 36.5t7 28l2.5 11q1 0 19.5 6.5t51 14t76.5 13.5t95 6q66 0 117 -12.5 t82.5 -38.5t42 -66.5t-4.5 -97.5q-12 -45 -40 -84t-84 -80q-44 -32 -83 -57t-73 -46t-62 -40.5t-51 -40.5h312l-38 -144h-558q9 33 21 59.5t27.5 49.5t35 43.5t44.5 43.5z" />
<glyph unicode="3" d="M206 -8q-88 0 -146.5 13.5t-87.5 24.5l40 153q18 -10 41.5 -21t50 -20t55.5 -15t59 -6q68 0 114 21t60 74q11 41 -3.5 60.5t-43.5 26.5t-66.5 6.5t-71.5 0.5l31 116q35 0 68 -1.5t61 4.5t48.5 22.5t30.5 52.5q8 29 -1.5 44t-28 22t-40.5 7.5t-40 0.5q-51 0 -106 -13.5 t-101 -30.5l38 143q28 8 62 15q29 5 67.5 10t82.5 5q72 0 123 -14.5t81 -41t39.5 -63.5t-2.5 -81q-11 -42 -44 -78.5t-81 -53.5q42 -25 60 -67t2 -102q-12 -46 -38 -85.5t-68.5 -68t-103 -44.5t-141.5 -16z" />
<glyph unicode="4" d="M406 524q-27 -24 -51 -45q-20 -18 -40 -36.5t-31 -28.5q-12 -11 -31 -30l-38 -38q-22 -22 -46 -47h178l61 225h-2zM619 697l-107 -398h91l-38 -144h-91l-42 -155h-170l42 155h-304l29 114q7 23 18.5 42.5t32.5 39.5q12 12 53 52t104 97q27 25 63 58.5t71 64.5t64.5 52.5 t44.5 21.5h139z" />
<glyph unicode="5" d="M496 428q34 -17 53.5 -39.5t28 -49.5t6.5 -56t-10 -59q-13 -50 -39 -92t-68.5 -73t-102.5 -48.5t-142 -18.5q-44 -1 -80.5 3t-66 10t-51.5 12.5t-36 12.5l40 153q18 -10 41.5 -21t50.5 -20t56 -15t59 -6t57 4.5t49.5 16.5t39 33.5t25.5 54.5q8 30 2.5 50t-21.5 31.5 t-40.5 16.5t-54.5 5q-35 0 -69 -1.5t-61 -3.5t-44 -3t-20 -1l156 373h420l-38 -144h-285l-43 -106q6 2 27 4t48 1t57 -6.5t56 -17.5z" />
<glyph unicode="6" d="M562 635q-22 -9 -52.5 -24t-66 -37.5t-73.5 -52t-74 -67.5v-2q11 4 22 9t25 8.5t32 6t44 2.5q48 0 84.5 -18t58.5 -49.5t28 -73t-7 -89.5q-17 -62 -51.5 -110t-81 -80.5t-101.5 -49t-112 -16.5q-60 0 -105 21.5t-71.5 61t-33 94.5t11.5 122q16 61 44 112t62.5 93.5t73 76 t76.5 59.5q89 61 190 97zM193 235q-12 -45 10 -75.5t72 -30.5q27 0 51 9t43.5 23.5t33 34t19.5 40.5q14 49 -8 83t-80 34t-92.5 -30t-46.5 -75z" />
<glyph unicode="7" d="M170 698h536q-39 -59 -86 -127q-40 -58 -93.5 -133t-113.5 -156q-27 -36 -56 -74.5l-58 -77t-58.5 -75.5t-56.5 -71l-155 38q202 241 301.5 375t101.5 145l1 1h-304z" />
<glyph unicode="8" d="M313 316q-2 0 -21.5 -4t-44 -15.5t-48.5 -32.5t-33 -55q-6 -23 -1 -40t18.5 -29t32.5 -18t42 -6q22 0 44.5 6t42 18t34 29t20.5 40q9 34 -2.5 55t-29.5 32.5t-35.5 15.5t-18.5 4zM-4 205q8 30 25 58t40.5 50t52 37t59.5 20l1 2q-47 12 -63.5 52t-2.5 90q14 52 47.5 88.5 t77.5 59.5t92.5 33.5t92.5 10.5q45 0 87.5 -10.5t73.5 -34t44.5 -60t-0.5 -88.5q-6 -24 -19.5 -47t-32 -42t-41.5 -33t-48 -19l-1 -2q57 -12 81 -55.5t6 -109.5q-15 -58 -51 -98.5t-83.5 -66t-101.5 -37.5t-106 -12q-51 0 -99.5 10.5t-83 35.5t-49.5 66t2 102zM383 581 q-21 0 -41.5 -4.5t-37.5 -14t-29.5 -23.5t-17.5 -33q-8 -29 3 -46t28 -26t33 -12t18 -3t20 3t40 12t42.5 26t28.5 46q5 18 -0.5 32t-17.5 23.5t-30 14.5t-39 5z" />
<glyph unicode="9" d="M103 64q22 9 52.5 24t66 37.5t73.5 52t74 67.5v2q-11 -5 -22 -9.5t-25 -8t-32.5 -6t-43.5 -2.5q-48 0 -84.5 18t-58.5 49.5t-28 73t7 89.5q16 62 51 110t81.5 80.5t101.5 49t112 16.5q60 0 105 -21.5t72 -61t33 -94.5t-12 -122q-17 -61 -44.5 -112.5t-62 -93.5t-73 -75.5 t-76.5 -59.5q-89 -61 -190 -97zM472 464q12 45 -10 75.5t-72 30.5q-27 0 -51 -9t-43.5 -23.5t-33 -34t-19.5 -40.5q-14 -49 8 -83t80 -34t92.5 30t46.5 75z" />
<glyph unicode=":" horiz-adv-x="316" d="M17 0q-9 0 -13.5 6.5t-2.5 16.5l38 140q2 10 10.5 16.5t17.5 6.5h142q9 0 13.5 -6.5t2.5 -16.5l-38 -140q-2 -10 -10.5 -16.5t-17.5 -6.5h-142zM106 333q-9 0 -13.5 6.5t-2.5 16.5l38 140q2 10 10.5 16.5t17.5 6.5h142q9 0 13.5 -6.5t2.5 -16.5l-38 -140 q-2 -10 -10.5 -16.5t-17.5 -6.5h-142z" />
<glyph unicode=";" horiz-adv-x="316" d="M100 0q-15 -39 -39 -61t-67 -33l-21 -80q28 3 63.5 13.5t69 33t61.5 58.5t43 90l38 142q2 10 -2.5 16.5t-13.5 6.5h-142q-9 0 -17.5 -6.5t-10.5 -16.5l-38 -140q-2 -10 2.5 -16.5t13.5 -6.5h60zM130 333q-9 0 -14 6.5t-2 16.5l37 140q3 10 11 16.5t17 6.5h142 q9 0 14 -6.5t2 -16.5l-37 -140q-3 -10 -11 -16.5t-17 -6.5h-142z" />
<glyph unicode="&#x3c;" horiz-adv-x="600" d="M26 182l39 142l558 190l-41 -154l-335 -106l-1 -2l279 -106l-41 -154z" />
<glyph unicode="=" horiz-adv-x="600" d="M565 305h-504l39 144h504zM499 57h-503l38 144h504z" />
<glyph unicode="&#x3e;" horiz-adv-x="600" d="M17 146l335 106l1 2l-279 106l41 154l458 -190l-39 -142l-557 -190z" />
<glyph unicode="?" horiz-adv-x="574" d="M139 236q0 28 6 49q11 41 33.5 72.5t50.5 56t58 44t55.5 37t44.5 35t24 37.5q4 16 -3.5 25t-21 13.5t-30.5 5t-31 0.5q-26 0 -58.5 -5t-64 -12.5t-60 -17t-46.5 -18.5l4 15.5t9 36.5t10 41.5t8 31.5q2 7 29 15.5t65.5 16t80.5 12.5t73 5q43 0 87.5 -9.5t78.5 -29.5 t51 -52t5 -78q-8 -32 -31 -56.5t-52.5 -46t-63.5 -41.5t-64 -42.5t-53.5 -49.5t-32.5 -62q-2 -8 -2.5 -15.5t1.5 -13.5h-160zM89 0q-9 0 -13.5 6.5t-1.5 16.5l37 140q3 10 11 16.5t17 6.5h142q9 0 14 -6.5t2 -16.5l-37 -140q-3 -10 -11.5 -16.5t-17.5 -6.5h-142z" />
<glyph unicode="@" horiz-adv-x="800" d="M524 0q1 0 -10.5 -2.5t-36 -5t-63.5 -5t-94 -2.5q-75 0 -138 25t-103.5 72.5t-54.5 116.5t10 158q24 88 74.5 157.5t116.5 117t142.5 72.5t151.5 25t137.5 -24.5t104.5 -72.5q23 -27 35.5 -56t16.5 -58.5t1.5 -57.5t-9.5 -53q-23 -85 -70 -134.5t-105.5 -75t-122.5 -32.5 t-119 -7q-48 0 -90 9.5t-71 30.5t-40.5 55.5t1.5 84.5t40 89t65 65.5t85.5 40.5t102.5 14q66 0 107.5 -10.5t53.5 -20.5l-108 -247q20 3 43.5 10.5t46 23.5t41.5 43t30 69q13 48 -0.5 88t-43.5 69t-71.5 45.5t-85.5 16.5q-54 0 -109.5 -20.5t-104 -57t-85 -87.5t-52.5 -112 q-17 -61 -7.5 -112t38 -87.5t73 -57t98.5 -20.5q51 0 91 3t68.5 6t44 5.5t15.5 1.5zM362 268h38q11 0 21 1l72 165q-5 1 -14 2q-8 1 -20 1.5t-29 0.5q-44 0 -77 -21.5t-47 -62.5q-15 -42 2 -64t54 -22z" />
<glyph unicode="A" horiz-adv-x="662" d="M249 266h162l-12 250h-2zM357 714h189l76 -714h-194l-9 133h-249l-80 -133h-190z" />
<glyph unicode="B" horiz-adv-x="703" d="M170 689q37 11 82 20q38 8 90.5 14.5t115.5 6.5q69 0 122.5 -15.5t88 -43t47.5 -66t1 -84.5q-13 -47 -48 -78.5t-69 -50.5q23 -11 39 -29t24.5 -40.5t9.5 -48t-6 -51.5q-15 -54 -51 -98t-87.5 -75t-115.5 -47.5t-135 -16.5q-66 0 -119.5 4t-91 9.5t-57.5 10l-20 4.5z M488 223q11 41 -1.5 60t-44 26t-79 6t-107.5 0l-51 -189q11 -2 26 -4q12 -2 29 -3t37 -1q34 0 65.5 6.5t57 19.5t43.5 32.5t25 46.5zM528 511q8 29 -1 46.5t-26 27.5t-38.5 13t-39.5 3q-37 0 -65 -6.5t-29 -6.5l-41 -154q35 0 73.5 -1.5t72 4t59.5 22t35 52.5z" />
<glyph unicode="C" horiz-adv-x="683" d="M223 356q-12 -45 -11.5 -87.5t16 -75.5t47 -52.5t81.5 -19.5q32 0 67 7t69.5 18t68 24t62.5 25l-43 -159q-23 -6 -48.5 -15t-58.5 -16.5t-74.5 -13t-96.5 -5.5q-84 0 -144.5 26t-94.5 75t-41 118.5t16 156.5q22 83 66 151t104 116.5t134.5 75t158.5 26.5q55 0 94 -5.5 t67.5 -13t50 -16t40.5 -15.5l-42 -158q-23 11 -49.5 24t-55.5 23.5t-60 17.5t-63 7q-50 0 -92 -20.5t-75.5 -54.5t-57 -76.5t-35.5 -87.5z" />
<glyph unicode="D" horiz-adv-x="736" d="M170 689q0 -1 20 5.5t57 14.5t90.5 14.5t119.5 6.5q91 0 154.5 -27t99.5 -75.5t43 -116.5t-15 -151q-24 -89 -63.5 -158t-98 -117t-136.5 -73t-177 -26q-48 0 -97 4t-88 9t-64 10l-25 5zM426 601q-18 0 -35 -1.5t-31 -3.5l-30 -5l-125 -464l8 -2t20.5 -4t29 -3t32.5 -1 q56 0 97 15.5t71.5 46t52 75.5t37.5 104q5 20 9.5 45.5t4 52.5t-7 53t-22 46.5t-43 33t-68.5 12.5z" />
<glyph unicode="E" horiz-adv-x="679" d="M180 714h569l-35 -132h-383l-40 -149h350l-36 -132h-350l-44 -167h393l-36 -134h-578z" />
<glyph unicode="F" horiz-adv-x="611" d="M180 714h526l-35 -132h-340l-40 -148h294l-35 -132h-294l-81 -302h-185z" />
<glyph unicode="G" horiz-adv-x="733" d="M386 258l35 133h300l-91 -341q-24 -9 -57.5 -20.5t-75.5 -21t-91 -16t-104 -6.5q-84 0 -144.5 26t-94.5 75t-41 118.5t16 156.5q22 83 66 151t104 116.5t134.5 75t158.5 26.5q55 0 94 -5.5t67.5 -13t50 -16t40.5 -15.5l-42 -158q-23 11 -49.5 24t-55.5 24t-60 18t-63 7 q-50 0 -92.5 -21t-77 -54.5t-58.5 -76.5t-36 -88t-11 -87.5t17.5 -75.5t48.5 -52.5t82 -19.5q32 0 63 6.5t65 17.5q1 0 6 18t10.5 39t10 38.5l4.5 17.5h-129z" />
<glyph unicode="H" horiz-adv-x="742" d="M180 714h186l-75 -281h245l75 281h186l-191 -714h-186l81 302h-245l-81 -302h-185z" />
<glyph unicode="I" horiz-adv-x="311" d="M180 714h186l-191 -714h-185z" />
<glyph unicode="J" horiz-adv-x="319" d="M-151 -105q58 31 105.5 80t68.5 124l165 616h186l-169 -631q-17 -57 -43.5 -103t-59.5 -82.5t-72.5 -65.5t-81.5 -53z" />
<glyph unicode="K" horiz-adv-x="732" d="M180 714h186l-76 -284l311 284h231l-342 -291l184 -423h-231l-160 403l-108 -403h-185z" />
<glyph unicode="L" horiz-adv-x="581" d="M180 714h186l-148 -554h333l-43 -160h-518z" />
<glyph unicode="M" horiz-adv-x="940" d="M469 714q-3 -89 -6 -162l-2 -62t-1.5 -57t-1 -45t-0.5 -26q0 -20 -1.5 -46.5t-3.5 -50.5q-2 -28 -4 -57h2q13 29 26 57q11 24 23.5 50.5t23.5 46.5q4 7 13.5 26l22.5 45l28.5 57t31.5 62q37 73 81 162h274l-151 -714h-185l115 542h-2l-283 -542h-150l7 542h-2l-175 -542 h-184l230 714h274z" />
<glyph unicode="N" horiz-adv-x="741" d="M180 714h191l130 -440h2l118 440h175l-191 -714h-191l-129 445h-2l-119 -445h-174z" />
<glyph unicode="O" horiz-adv-x="738" d="M37 357q21 78 62 145.5t99.5 118t132 79.5t157.5 29t142 -29t89.5 -79.5t37 -118t-15.5 -145.5t-62.5 -145.5t-100 -118t-132 -79.5t-157.5 -29t-142 29t-89 79.5t-36.5 118t15.5 145.5zM223 357q-11 -40 -13 -81.5t8.5 -75.5t36.5 -56t71 -22t82.5 22t66.5 56t49 75.5 t31 81.5q10 40 12 81.5t-8.5 75.5t-36.5 56t-71 22t-82.5 -22t-66 -56t-49 -75.5t-30.5 -81.5z" />
<glyph unicode="P" horiz-adv-x="677" d="M543 489q14 55 -15 83.5t-95 28.5q-20 0 -38.5 -2.5t-32.5 -4.5q-17 -3 -30 -6l-52 -195h94q34 0 62 4t49 14.5t35.5 29.5t22.5 48zM175 0h-185l184 692l23 6t63.5 13t97 13t122.5 6q71 0 123 -16.5t83.5 -47.5t41.5 -75t-5 -98q-19 -70 -54 -115.5t-80 -72.5t-97 -37.5 t-105 -10.5q-11 0 -35 -0.5t-48 -0.5h-42t-18 1z" />
<glyph unicode="Q" horiz-adv-x="743" d="M646 14q-16 -17 -33 -30q-14 -11 -31.5 -20.5t-33.5 -9.5t-28 6.5t-20 14.5q-10 9 -17 21l-18 26q-83 -37 -176 -37q-84 0 -142 29t-89 79.5t-36.5 118t15.5 145.5t62 145.5t99.5 118t132 79.5t157.5 29t142 -29t89.5 -79.5t37 -118t-15.5 -145.5q-21 -77 -61.5 -143 t-97.5 -117zM435 291l55 -72q21 28 38 65t27 73q10 40 12.5 81.5t-8.5 75.5t-36.5 56t-70.5 22t-82.5 -22t-66.5 -56t-49.5 -75.5t-30.5 -81.5q-11 -40 -13 -81.5t8.5 -75.5t36.5 -56t71 -22q11 0 28.5 2.5t27.5 7.5l-53 72z" />
<glyph unicode="R" horiz-adv-x="712" d="M543 489q14 55 -15 83.5t-95 28.5q-20 0 -38.5 -2.5t-32.5 -4.5q-17 -3 -30 -6l-52 -195h88.5t78 7.5t60.5 27.5t36 61zM525 277q16 -50 37 -99.5t40 -89.5q22 -47 44 -89h-214q-18 37 -35 79q-14 36 -29.5 82t-24.5 97h-37h-62l-69 -257h-185l184 692l23 6t64 13t97 13 t122 6q71 0 123 -16.5t83.5 -47.5t41.5 -75t-5 -98q-26 -94 -78.5 -144.5t-119.5 -71.5z" />
<glyph unicode="S" horiz-adv-x="621" d="M92 520q15 57 54.5 96.5t89.5 64.5t105 36.5t102 11.5q82 0 146 -11.5t101 -22.5l-3 -12.5t-8.5 -31t-11.5 -40t-11 -39.5t-8.5 -30l-3.5 -12q-14 12 -39.5 23.5t-55.5 20.5t-62.5 14.5t-61.5 5.5q-16 0 -38.5 -0.5t-44.5 -6t-40 -18t-24 -35.5q-6 -21 7.5 -35.5 t38.5 -27t58 -24t67 -25t65.5 -31.5t53 -42.5t29.5 -58.5t-4 -80q-16 -59 -51 -101.5t-84.5 -70t-111.5 -40.5t-131 -13q-65 0 -112.5 6t-79 13t-47 13.5t-16.5 6.5l2 7t5.5 19t7.5 27.5t9 31.5q11 38 23 86q16 -9 42 -22t56.5 -25t64 -20t64.5 -8q15 0 41 1.5t52 8.5t48 22 t29 41t-18.5 43t-65.5 32t-87 33t-84 45.5t-55.5 69t-1.5 104.5z" />
<glyph unicode="T" horiz-adv-x="615" d="M682 554h-213l-148 -554h-186l148 554h-213l43 160h612z" />
<glyph unicode="U" horiz-adv-x="713" d="M671 295q-42 -155 -137 -232.5t-257 -77.5t-215.5 77.5t-12.5 232.5l112 419h186l-116 -432q-9 -35 -10 -64t8.5 -50t30 -33t54.5 -12q68 0 108.5 45t58.5 114l116 432h186z" />
<glyph unicode="V" horiz-adv-x="604" d="M332 0h-214l-34 714h194l-2 -531h2l282 531h194z" />
<glyph unicode="W" horiz-adv-x="952" d="M414 16q-44 -11 -96 -21t-114 -10q-83 0 -123 22t-52.5 54.5t-7 69t13.5 66.5l138 517h184l-118 -441q-8 -28 -15.5 -55t-6.5 -48.5t15.5 -34.5t51.5 -13q20 0 33.5 4t22.5 9q11 5 17 13l99 372h179l-99 -372q3 -8 10 -13q6 -5 17.5 -9t31.5 -4q37 0 58.5 13t34 34.5 t19 48.5t14.5 55l118 441h183l-138 -517q-8 -30 -22 -66.5t-44 -69t-81.5 -54.5t-135.5 -22q-60 0 -104.5 10t-81.5 21h-1z" />
<glyph unicode="X" horiz-adv-x="666" d="M250 375l-142 339h219l61 -222l186 222h212l-322 -339l152 -375h-226l-70 238l-210 -238h-213z" />
<glyph unicode="Y" horiz-adv-x="626" d="M141 0l70 260q-109 21 -140.5 96t3.5 207l40 151h186l-44 -164q-9 -35 -10 -64t8.5 -50t30 -33t54.5 -12q68 0 108.5 45t58.5 114l44 164h186l-40 -151q-35 -132 -108 -207t-191 -96l-70 -260h-186z" />
<glyph unicode="Z" horiz-adv-x="636" d="M100 555l42 159h584q-7 -27 -14 -53t-12 -46q-8 -31 -18 -44.5t-27 -27.5q-8 -7 -31 -26.5t-56.5 -48t-73.5 -62t-80.5 -68t-78.5 -67t-67.5 -57t-47.5 -40l-18 -15.5h388l-42 -159h-618q3 13 7.5 29.5t9 32.5t8 30.5t6.5 25.5q4 16 8.5 25t9.5 15.5t11 11t13 11.5 q7 6 30 25.5t55.5 47l71.5 60.5t78.5 66t76.5 64.5t65.5 56t46 39.5l17.5 15h-344z" />
<glyph unicode="[" horiz-adv-x="370" d="M483 729l-38 -144h-135l-165 -615h135l-38 -144h-271q-9 0 -14 6.5t-2 16.5l228 857q3 10 11 16.5t17 6.5h272z" />
<glyph unicode="\" horiz-adv-x="407" d="M313 0l-153 -15l-69 729l155 15z" />
<glyph unicode="]" horiz-adv-x="370" d="M399 729q9 0 14 -6.5t2 -16.5l-229 -857q-3 -10 -11 -16.5t-17 -6.5h-271l38 144h134l165 615h-135l38 144h272z" />
<glyph unicode="^" horiz-adv-x="600" d="M-1 332l258 365h182l65 -365h-160l-30 238l-157 -238h-158z" />
<glyph unicode="_" horiz-adv-x="500" d="M-6 -125l12 50h500l-13 -50h-499z" />
<glyph unicode="`" horiz-adv-x="296" d="M312 575h-120l-117 149h179z" />
<glyph unicode="a" horiz-adv-x="633" d="M192 251q-7 -25 -10 -49.5t2 -45.5t21 -36.5t48 -22.5q20 -5 39.5 -1t33.5 12q17 8 32 21l73 272q-11 6 -22 11t-24 8.5t-29 3.5q-39 0 -66.5 -17t-47 -42.5t-31.5 -56t-19 -57.5zM495 0h-170l5 18q-16 -10 -34 -17q-16 -6 -37 -11t-45 -5q-77 0 -121 24.5t-63.5 63 t-19 84.5t11.5 90q16 62 44 114.5t69 90.5t96 60t126 22q66 0 116 -8t83 -19q39 -12 67 -28z" />
<glyph unicode="b" horiz-adv-x="621" d="M423 279q6 24 9 49.5t-4 46.5t-26.5 35t-58.5 14q-15 0 -30 -3.5t-28 -8.5q-15 -5 -28 -11l-76 -281q11 -9 24 -15q11 -5 27.5 -9t36.5 0q36 6 62 25.5t44 45.5t29.5 55.5t18.5 56.5zM169 713h170l-54 -201q14 6 32 11q15 5 36 8.5t45 3.5q77 0 122 -21t65.5 -56.5 t20 -81.5t-13.5 -97q-15 -55 -42.5 -107.5t-69.5 -94t-98 -67t-127 -25.5q-67 -1 -116.5 7.5t-82.5 19.5q-39 12 -66 28z" />
<glyph unicode="c" horiz-adv-x="557" d="M192 258q-9 -34 -7 -64t16 -52t40.5 -34.5t66.5 -12.5q25 0 49 5.5t47.5 13.5t46 17.5t45.5 18.5l-34 -127q-18 -5 -38.5 -11.5t-46.5 -12.5t-59.5 -10t-76.5 -4q-68 0 -116.5 19t-77 54.5t-35 87t10.5 116.5q17 63 51 113.5t81 86t106 54.5t127 19q43 0 74 -4t54 -10 t40 -12.5t33 -11.5l-34 -127q-18 9 -35.5 18.5t-36.5 17.5t-40 13.5t-46 5.5q-40 0 -73.5 -13.5t-60 -36.5t-44.5 -53t-27 -64z" />
<glyph unicode="d" d="M194 259q-8 -27 -11.5 -53.5t1.5 -49t21.5 -38.5t49.5 -22q17 -4 35.5 0t32.5 9q17 6 32 15l76 281q-11 6 -22 11q-10 5 -23 8t-27 4q-40 0 -68 -16.5t-47.5 -41.5t-31.5 -53.5t-18 -53.5zM505 40q-36 -16 -82 -28q-39 -11 -93.5 -19.5t-120.5 -7.5q-71 0 -114 22.5 t-63.5 60t-21 87t14.5 104.5q13 51 38.5 100.5t65.5 88.5t97 63t134 24q24 0 42.5 -3.5t31.5 -8.5q15 -5 27 -11l54 201h170z" />
<glyph unicode="e" horiz-adv-x="597" d="M420 321q4 22 3 41t-9 33t-24.5 22t-42.5 8q-53 0 -85.5 -28t-52.5 -76h211zM181 217q-5 -21 -3 -42.5t14 -39t35 -29t61 -11.5q25 0 55.5 5.5t61 13.5t59.5 17.5t52 18.5l-60 -134q-1 -2 -21 -7t-51 -10.5t-69 -9.5t-74 -4q-68 0 -116.5 19t-77 54.5t-35 87t10.5 116.5 q18 67 54 118t83 85.5t103 52t113 17.5q55 0 96 -17t66.5 -47t36 -69.5t5.5 -84.5q-3 -24 -8.5 -49t-16.5 -51h-374z" />
<glyph unicode="f" horiz-adv-x="386" d="M206 78q-16 -52 -40 -94t-54.5 -76t-66 -60.5t-74.5 -47.5l-91 105q53 28 96.5 73t62.5 113l84 318h-82l30 110h82q17 52 43 89t65.5 60.5t94 34.5t128.5 11l-31 -115q-54 0 -86 -15.5t-45 -64.5h103l-30 -110h-102z" />
<glyph unicode="g" horiz-adv-x="622" d="M186 264q-7 -25 -7.5 -47t7 -39t24 -27t44.5 -10q14 0 33 5.5t37 13.5q21 8 44 19l54 199q-13 7 -28 12q-13 5 -30.5 9t-36.5 4q-29 0 -52 -11.5t-40.5 -31t-29.5 -44.5t-19 -52zM344 88h-2q-33 -36 -74.5 -56t-83.5 -20q-59 0 -96.5 20t-56.5 54.5t-20 81.5t14 102 q23 86 79 151q43 50 104.5 80.5t143.5 31.5q66 0 115 -8t81 -19q38 -12 64 -28l-130 -486q-14 -55 -42 -89t-64.5 -53t-79 -25.5t-85.5 -6.5q-20 0 -52.5 2t-68 6.5t-68 11.5t-50.5 18l32 127q15 -7 40 -16.5t54.5 -18t59.5 -14.5t54 -6q21 0 37.5 2t30 9t23.5 21t17 38z " />
<glyph unicode="h" horiz-adv-x="636" d="M180 714h170q-14 -54 -26 -100.5t-24 -91.5q32 5 66.5 8.5t69.5 3.5q53 0 86.5 -9.5t53 -26t27 -37t7.5 -43t-4.5 -44.5t-9.5 -41l-89 -333h-170l75 279q7 27 13.5 52.5t5 45.5t-16 32.5t-49.5 12.5q-19 0 -36.5 -3.5t-31.5 -8.5q-17 -5 -31 -12l-106 -398h-170z" />
<glyph unicode="i" horiz-adv-x="295" d="M128 519h170l-139 -519h-169zM315 584h-170l35 130h170z" />
<glyph unicode="j" horiz-adv-x="301" d="M321 584h-170l35 130h170zM-139 -95q53 28 96.5 73t62.5 113l115 428h170l-118 -441q-16 -52 -40 -94t-54.5 -76t-66 -60.5t-74.5 -47.5z" />
<glyph unicode="k" horiz-adv-x="595" d="M180 714h170l-104 -388l207 193h197l-248 -216l133 -303h-205l-101 263l-70 -263h-169z" />
<glyph unicode="l" horiz-adv-x="295" d="M180 714h170l-191 -714h-169z" />
<glyph unicode="m" horiz-adv-x="930" d="M116 479l23.5 8.5t63.5 19t93 19t113 8.5q44 0 74.5 -8.5t50.5 -19.5q39 10 89 19t107 9q53 0 86.5 -9.5t53 -26t27 -37t7.5 -43t-4.5 -44.5t-9.5 -41l-89 -333h-170l75 280q8 31 15.5 57t8.5 45t-8 30t-33 11q-19 0 -37.5 -3.5t-32.5 -8.5q-17 -5 -32 -12 q-1 -5 -2.5 -10.5t-5.5 -19t-10.5 -38t-18 -67.5t-28.5 -107t-42 -157h-170l75 280q8 30 15.5 56.5t8 45.5t-8 30t-32.5 11q-19 0 -37.5 -3.5t-32.5 -8.5q-17 -5 -32 -12l-107 -399h-169z" />
<glyph unicode="n" horiz-adv-x="635" d="M116 479l27.5 8.5t72.5 19t102 19t117 8.5q53 0 86.5 -9.5t53 -26t27 -37t7.5 -43t-4.5 -44.5t-9.5 -41l-89 -333h-170l75 280q7 27 13.5 52.5t5 45.5t-16 32.5t-49.5 12.5q-19 0 -36.5 -3.5t-31.5 -8.5q-16 -5 -30 -12l-107 -399h-169z" />
<glyph unicode="o" horiz-adv-x="596" d="M189 259q-9 -32 -12 -61.5t2.5 -52.5t22 -36.5t48.5 -13.5q31 0 55.5 13.5t42.5 36.5t30.5 52.5t21.5 61.5q9 33 12.5 63t-2.5 53t-23 36.5t-48 13.5t-55 -13.5t-42 -36.5t-31 -53t-22 -63zM22 260q15 58 47 108.5t77 87t101.5 58t120.5 21.5t109.5 -21t71 -58 t30.5 -87.5t-10 -108.5q-16 -59 -48 -109t-77 -87t-102 -58t-121 -21t-109 21.5t-70 58t-30 86.5t10 109z" />
<glyph unicode="p" d="M431 261q7 28 10.5 57t-3.5 53t-27.5 39.5t-59.5 15.5q-16 0 -31 -4t-26 -9q-13 -6 -25 -13l-75 -281q14 -9 29 -14q13 -5 29 -8t33 1q37 7 62 24.5t41.5 40t26 48t16.5 50.5zM120 480q35 16 81 28q39 11 93.5 19t120.5 8q71 0 114 -22.5t64 -60t21.5 -87t-14.5 -104.5 q-14 -51 -39 -100.5t-65.5 -88.5t-97.5 -63t-134 -24q-24 0 -43 3t-32 8q-15 5 -26 12l-49 -182h-169z" />
<glyph unicode="q" horiz-adv-x="636" d="M194 247q-6 -25 -9.5 -48.5t1.5 -43.5t21 -35t49 -22q15 -4 33 -1t34 8q18 5 36 14l75 280q-8 7 -19 13q-9 5 -22 9t-29 4q-39 0 -67.5 -17.5t-49 -44t-33.5 -58t-20 -58.5zM452 -174h-170l48 182q-15 -7 -33 -12q-15 -5 -35.5 -8t-44.5 -3q-77 0 -121.5 22t-65 58.5 t-20 83.5t14.5 98q15 55 42.5 106.5t69 91.5t97 64.5t126.5 24.5q66 0 116 -8t83 -19q39 -12 67 -28z" />
<glyph unicode="r" horiz-adv-x="423" d="M118 483q33 15 77 26q38 10 91 18t121 8q15 0 32.5 -1.5t31.5 -3t23 -3.5t8 -2l-31 -118q-6 3 -18 6t-26.5 5t-30.5 3.5t-29 1.5q-22 0 -41 -4.5t-32.5 -9.5t-21.5 -9.5t-8 -5.5l-105 -394h-169z" />
<glyph unicode="s" horiz-adv-x="541" d="M67 380q11 42 43 71.5t73 48t87 27t85 8.5q69 0 121 -15t84 -24l-5 -19t-12 -42t-12.5 -41.5l-5.5 -18.5q-12 9 -33 17.5t-46.5 15.5t-53 11.5t-51.5 4.5q-13 0 -29 -0.5t-30.5 -4.5t-26 -12.5t-15.5 -23.5q-6 -21 14 -32.5t51.5 -21t69 -20t66.5 -29.5t43.5 -49.5 t1.5 -79.5q-12 -44 -39 -75.5t-66 -52t-89 -30t-108 -9.5q-54 0 -96.5 6t-71.5 12.5t-44.5 12.5t-16.5 6q3 9 6 20q2 9 5 20.5t7 24.5q8 28 18 65q13 -7 35 -16.5t49.5 -17.5t58.5 -14.5t64 -7.5q13 0 30 0.5t33.5 5t29 13t17.5 25.5q6 21 -13.5 33t-51 21.5t-68 21 t-65.5 31t-43 51.5t0 83z" />
<glyph unicode="t" horiz-adv-x="376" d="M391 409h-107l-63 -238q-7 -24 -3 -36t16.5 -16.5t33.5 -4t48 0.5l-31 -115q-22 -2 -51 -4t-58.5 -2t-55 3t-40.5 12q-14 8 -24 19t-15.5 26.5t-5 37.5t8.5 51l71 266h-85l30 110h85l42 157h170l-43 -157h107z" />
<glyph unicode="u" horiz-adv-x="636" d="M509 40l-27.5 -8.5t-72.5 -19t-102 -19t-117 -8.5q-79 0 -116.5 21t-49.5 51.5t-7 65.5t13 63l89 333h170l-75 -280q-7 -27 -13.5 -52.5t-5 -45.5t16 -32.5t49.5 -12.5q19 0 36.5 3.5t31.5 8.5q16 5 30 12l107 399h170z" />
<glyph unicode="v" horiz-adv-x="537" d="M100 0l-34 519h177q0 -96 1 -172v-63v-55v-38.5v-14.5h6q-1 0 6.5 14.5t20 38.5t29 55t33.5 63q40 76 93 172h177q-86 -146 -155 -260q-29 -49 -57 -95.5t-50 -83t-36 -58.5l-14 -22h-197z" />
<glyph unicode="w" horiz-adv-x="923" d="M389 14q-42 -10 -91 -19.5t-108 -9.5q-79 0 -116.5 21t-49.5 51.5t-7 65.5t13 63l89 333h170l-75 -280q-7 -27 -13.5 -52.5t-5 -45.5t16 -32.5t49.5 -12.5q19 0 32 3.5t21 8.5q10 5 15 12l78 289h170l-78 -289q2 -7 9 -12q6 -5 17 -8.5t30 -3.5q35 0 56 12.5t33.5 32.5 t19.5 45.5t14 52.5l75 280h170l-89 -333q-8 -28 -21 -63t-41.5 -65.5t-77.5 -51.5t-128 -21q-57 0 -99 9t-77 20h-1z" />
<glyph unicode="x" horiz-adv-x="527" d="M172 272l-99 247h188l40 -124l106 124h180l-227 -244l110 -275h-188l-50 150l-125 -150h-187z" />
<glyph unicode="y" horiz-adv-x="512" d="M103 41q-1 10 -3 31.5t-7 72t-14 139.5t-24 235h180l7 -338h2l189 338h174l-299 -466q-33 -51 -61.5 -88.5t-58 -66t-64 -52t-79.5 -46.5l-90 105q25 10 52 25t49 33t35 37.5t12 40.5z" />
<glyph unicode="z" horiz-adv-x="546" d="M77 389l35 130h454q-12 -45 -21 -78q-5 -19 -10 -31t-10 -20t-10.5 -13t-12.5 -10q-8 -6 -32 -25.5t-56 -45t-68 -53.5t-66.5 -52t-52 -41t-24.5 -20h278l-35 -130h-493q12 45 21 78q5 19 10 31t10 20t10.5 13t11.5 10q8 6 32 25.5t56 45t68 53.5t66.5 52t51.5 41t25 20 h-238z" />
<glyph unicode="{" horiz-adv-x="370" d="M444 609h-41q-18 0 -30.5 -6.5t-20.5 -16t-12 -21t-7 -21.5l-44 -164q-8 -29 -25 -47.5t-37.5 -29t-41.5 -14.5t-37 -5l-1 -3q16 -1 35 -4.5t33.5 -14t21 -30.5t-2.5 -56l-44 -165q-3 -10 -4.5 -21.5t1.5 -21t12 -16t27 -6.5h41l-32 -120h-118q-28 0 -50 8t-35.5 26 t-17 46t6.5 68l55 203q6 24 -1 37.5t-19.5 21t-27 9.5t-23.5 2l16 60q9 0 24.5 2t32 8t30 18t19.5 33l58 218q11 40 29 67.5t40.5 44.5t49 24t54.5 7h118z" />
<glyph unicode="|" horiz-adv-x="222" d="M172 786h144l-267 -1000h-143z" />
<glyph unicode="}" horiz-adv-x="370" d="M-74 -54h41q18 0 30 6.5t20 16t12 21t7 21.5l44 165q10 36 28 56t38 30.5t40.5 14t36.5 4.5l1 3q-15 1 -34 5t-33.5 14.5t-22 29t0.5 47.5l44 164q3 10 4.5 21.5t-1.5 21t-12 16t-27 6.5h-41l32 120h118q28 0 50.5 -7t36.5 -24t17.5 -44.5t-7.5 -67.5l-61 -228 q-6 -21 1.5 -33t20.5 -18t27.5 -8t23.5 -2l-14 -50q-9 0 -24.5 -2t-32 -9.5t-30.5 -21t-20 -37.5l-55 -203q-11 -40 -29 -68t-41 -46t-49.5 -26t-54.5 -8h-117z" />
<glyph unicode="~" horiz-adv-x="600" d="M525 233q-15 -16 -31.5 -31.5t-34.5 -27.5t-38.5 -19.5t-43.5 -7.5q-28 0 -50 9.5t-43 23.5q-20 14 -45.5 24.5t-60.5 10.5q-17 0 -31.5 -6.5t-27 -16.5t-24 -23t-20.5 -26l-1 130q12 16 27.5 31.5t34 27.5t40 19.5t46.5 7.5q26 0 51.5 -9.5t50.5 -22.5q25 -12 49 -24 t44 -12q30 0 56.5 23t50.5 49z" />
<glyph unicode="&#xa1;" horiz-adv-x="296" d="M252 311q-23 -87 -49.5 -202.5t-57.5 -275.5h-184q54 160 89.5 275.5t58.5 202.5h143zM314 547q9 0 13.5 -6.5t2.5 -16.5l-38 -140q-2 -10 -10.5 -16.5t-17.5 -6.5h-142q-9 0 -13.5 6.5t-2.5 16.5l38 140q2 10 10.5 16.5t17.5 6.5h142z" />
<glyph unicode="&#xa2;" d="M267 -105h-82l26 94q-106 15 -148.5 86t-11.5 187q15 56 43.5 102t67.5 80.5t88 56.5t106 30l22 81h82l-21 -77q37 -1 64 -5.5t47.5 -10t36 -12t30.5 -10.5l-34 -127q-18 9 -36 18.5t-36.5 17.5t-40 13.5t-46.5 5.5q-40 0 -73.5 -13.5t-59.5 -36.5t-44 -53t-27 -64 t-7 -64t16 -52t40.5 -34.5t66.5 -12.5q25 0 49 5.5t47.5 13.5t46 17.5t45.5 18.5l-34 -127q-17 -5 -36 -11t-42.5 -11.5t-53 -10t-66.5 -5.5z" />
<glyph unicode="&#xa3;" d="M53 405h73l-16 34t-13.5 35.5t-6 40t6.5 48.5q12 46 47 78t80 52t94.5 29.5t92.5 9.5q31 0 70 -5t73 -12.5t56.5 -16t21.5 -15.5q-3 -11 -9 -31.5t-12 -41.5t-10.5 -36.5l-4.5 -15.5q-13 9 -36.5 18.5t-51 17t-57.5 12.5t-56 5q-14 0 -31.5 -0.5t-33 -5t-28 -13.5 t-16.5 -25q-5 -18 -4.5 -37.5t4 -40t9 -41.5t10.5 -43h117l-28 -105h-85q0 -4 -1 -7.5t-2 -7.5q-11 -42 -29 -69.5t-35 -45.5q-20 -21 -43 -34l1 -2q19 11 40 14.5t41 3.5q26 0 55 -9.5t58 -9.5q32 0 53.5 11t47.5 34l36 -123q-54 -44 -100.5 -57.5t-92.5 -13.5 q-25 0 -49.5 6t-49 13.5t-50.5 13.5t-53 6q-29 0 -59 -12t-58 -27l-39 102q2 3 23 15.5t48 35t52.5 54.5t36.5 74q4 18 6 35h-121z" />
<glyph unicode="&#xa4;" d="M686 656l-87 -134q-64 49 -128 49q-94 0 -159 -101h251l-56 -85h-234q-3 -10 -6 -18.5t-5 -16.5q-1 -3 -3 -12t-5 -23h209l-58 -85h-157q-2 -107 107 -107q74 0 169 61l-41 -154q-81 -38 -170 -38q-124 0 -182 76q-49 66 -40 162h-88l55 85h44l5 16q1 5 1.5 10.5 t2.5 10.5q3 10 6 18t5 15h-78l56 85h57q53 104 139 166q98 70 220 70q85 0 170 -50z" />
<glyph unicode="&#xa5;" d="M73 389h71q-49 37 -58.5 102t16.5 162l16 61h186l-20 -74q-9 -35 -10 -64t8.5 -50t30 -33t54.5 -12q68 0 108.5 45t58.5 114l20 74h186l-16 -61q-26 -97 -71 -162t-114 -102h72l-28 -105h-176l-13 -48h176l-28 -105h-176l-35 -131h-186l35 131h-176l28 105h176l13 48 h-176z" />
<glyph unicode="&#xa6;" horiz-adv-x="222" d="M5 161h144l-67 -250h-143zM216 411h-144l67 250h144z" />
<glyph unicode="&#xa7;" d="M383 185q11 3 26 11.5t22 19.5q15 20 9.5 41t-34.5 40l-132 70q-14 8 -26.5 8t-23.5 -6t-19 -16.5t-12 -23.5q-7 -20 2.5 -31.5t24.5 -22.5zM466 534q9 33 -7 52q-15 18 -48 18q-23 0 -45.5 -13t-29.5 -39q-4 -14 0.5 -24.5t13.5 -18.5t20 -14.5t21 -11.5l144 -81 q17 -12 31 -25t22.5 -29t10 -36t-5.5 -46t-20 -49.5t-31.5 -43.5t-41.5 -35t-50 -22q19 -20 24.5 -48.5t-3.5 -61.5q-13 -48 -42 -83.5t-67 -59t-82 -34.5t-87 -11q-49 0 -88.5 11.5t-64.5 36t-33 63t6 93.5h147q-5 -19 -2 -33.5t11 -25.5q18 -20 55 -20q30 0 54.5 16.5 t32.5 45.5q7 25 -14 44t-55 36.5t-74 36t-72 43t-49 58t-5 80.5q16 57 54 95t92 57q-14 23 -16.5 46t5.5 54q12 44 41 76.5t66.5 54.5t79 32.5t79.5 10.5q46 0 83 -12t60 -36.5t31 -61t-4 -85.5h-147z" />
<glyph unicode="&#xa8;" horiz-adv-x="296" d="M283 589l33 125h150l-33 -125h-150zM104 714h149l-33 -125h-149z" />
<glyph unicode="&#xa9;" horiz-adv-x="800" d="M300 -15q-75 0 -138 25t-103.5 72.5t-54.5 116.5t10 158q24 88 74.5 157.5t116.5 117t142.5 72.5t151.5 25t138 -25t104 -72.5t55 -117t-10 -157.5q-24 -89 -75 -158t-117.5 -116.5t-142.5 -72.5t-151 -25zM325 80q53 0 108.5 20.5t104 57t85.5 87.5t54 112q16 61 6 112 t-38.5 87.5t-73 57t-97.5 20.5q-54 0 -109.5 -20.5t-104 -57t-85 -87.5t-52.5 -112q-17 -61 -7.5 -112t38 -87.5t73 -57t98.5 -20.5zM324 360q-7 -27 -6.5 -50.5t8 -41t22 -27.5t34.5 -10q18 0 36 5.5t35 14t33.5 17.5t32.5 16l-6 -98q-13 -4 -28 -10.5t-33.5 -13 t-42.5 -11.5t-55 -5q-95 0 -134.5 57t-12.5 159q13 49 38 88.5t59 67.5t76 42.5t89 14.5q31 0 52 -5t36.5 -11.5t26.5 -13t22 -10.5l-46 -98q-12 7 -24 16t-24.5 17t-27.5 14t-33 6q-20 0 -40 -10.5t-37 -28.5t-30 -41.5t-20 -49.5z" />
<glyph unicode="&#xaa;" horiz-adv-x="377" d="M236 520q-20 -7 -36.5 -10t-36.5 -7t-35.5 -12.5t-20.5 -27.5q-5 -15 7.5 -22.5t31.5 -7.5q67 0 85 68zM30 592q11 38 31 59.5t46 33.5q26 11 57 16t71 5q37 0 68 -4t51.5 -16t28.5 -34.5t-2 -58.5l-38 -139q-5 -20 -9 -42t-2 -50h-129q-2 8 -1.5 14.5t1.5 14.5 q-17 -10 -33 -17t-30 -12q-29 -9 -58 -9q-60 0 -88.5 23t-15.5 71q12 45 37.5 66.5t58.5 32.5q34 11 71.5 14t75.5 10q15 3 24 9t13 20t-12.5 20.5t-33.5 6.5q-47 0 -64 -34h-118z" />
<glyph unicode="&#xab;" horiz-adv-x="444" d="M65 346l193 128l-37 -137l-104 -67l69 -66l-37 -137l-125 127zM260 346l193 128l-37 -137l-104 -67l69 -66l-37 -137l-125 127z" />
<glyph unicode="&#xac;" horiz-adv-x="600" d="M413 305h-360l39 144h504l-89 -329h-144z" />
<glyph unicode="&#xad;" horiz-adv-x="407" d="M28 200l39 144h311l-39 -144h-311z" />
<glyph unicode="&#xae;" horiz-adv-x="800" d="M300 -15q-75 0 -138 25t-103.5 72.5t-54.5 116.5t10 158q24 88 74.5 157.5t116.5 117t142.5 72.5t151.5 25t138 -25t104 -72.5t55 -117t-10 -157.5q-24 -89 -75 -158t-117.5 -116.5t-142.5 -72.5t-151 -25zM325 80q53 0 108.5 20.5t104 57t85.5 87.5t54 112q16 61 6 112 t-38.5 87.5t-73 57t-97.5 20.5q-54 0 -109.5 -20.5t-104 -57t-85 -87.5t-52.5 -112q-17 -61 -7.5 -112t38 -87.5t73 -57t98.5 -20.5zM498 446q8 26 -9 39t-52 13q-11 0 -21 -1t-18 -3q-9 -2 -16 -4l-25 -94q25 0 47.5 -0.5t41.5 3t32.5 14t19.5 33.5zM447 330 q8 -29 19 -59.5t20 -56.5q11 -30 22 -59h-100q-9 27 -18 56q-8 25 -15 54.5t-12 58.5h-25l-45 -168h-100l105 395q21 6 47 10q22 4 52 7.5t66 3.5q77 0 111 -37t17 -100q-14 -53 -52 -80t-92 -25zM190 414h3h-3h-2h2z" />
<glyph unicode="&#xaf;" horiz-adv-x="296" d="M95 604l23 86h324l-23 -86h-324z" />
<glyph unicode="&#xb0;" horiz-adv-x="400" d="M40 546q9 33 29 62t47.5 51t60 34.5t65.5 12.5t59 -12.5t42 -34.5t21 -51t-4 -62t-29.5 -62t-48 -51t-60 -34.5t-65.5 -12.5t-59 12.5t-41.5 34.5t-20.5 51t4 62zM176 457q37 0 65 26t39 63q10 37 -5 63t-52 26t-65 -26t-38 -63q-11 -37 4 -63t52 -26z" />
<glyph unicode="&#xb1;" horiz-adv-x="600" d="M299 518h144l-28 -101h180l-38 -144h-180l-27 -101h-144l27 101h-180l38 144h180zM15 132h504l-39 -144h-503z" />
<glyph unicode="&#xb2;" horiz-adv-x="378" d="M-51 278q12 45 40 82.5t69 63.5q36 23 71.5 40.5t66.5 32.5q29 16 50 31.5t25 30.5q7 24 -5 38t-37 14q-38 0 -59 -25t-31 -59h-125q11 41 31.5 74t51.5 56q29 23 68 36t89 13q38 0 69 -8.5t51 -25.5t27 -43t-2 -61q-7 -27 -22.5 -47.5t-36.5 -37t-47 -29.5t-55 -26 q-35 -16 -57 -27t-36 -28h194l-26 -95h-364z" />
<glyph unicode="&#xb3;" horiz-adv-x="378" d="M180 537q8 0 14.5 -0.5t13.5 -0.5q9 0 21 1.5t23.5 6t20 11.5t11.5 18q5 17 -10 27.5t-36 10.5q-28 0 -49.5 -15t-27.5 -41h-125q23 77 83 114t143 37q35 0 66 -6.5t53 -21t31 -38t0 -58.5q-8 -29 -31 -52t-60 -28v-2q38 -5 50 -29.5t1 -65.5q-10 -36 -33 -62 t-53.5 -42.5t-67 -24t-73.5 -7.5q-42 0 -75 8t-54.5 25.5t-30 44t-0.5 64.5l6 23h124q-9 -35 5 -52q15 -18 49 -18q12 0 24.5 2.5t23.5 8t19 13t11 17.5q8 30 -11.5 40.5t-48.5 10.5q-7 0 -14 -0.5t-15 -0.5z" />
<glyph unicode="&#xb4;" horiz-adv-x="296" d="M501 724l-196 -149h-120l136 149h180z" />
<glyph unicode="&#xb5;" horiz-adv-x="652" d="M525 40l-27.5 -8.5t-72.5 -19t-102 -19t-117 -8.5q-12 0 -22.5 0.5t-21.5 1.5l-43 -161h-169l184 693h171l-75 -280q-7 -27 -13.5 -52.5t-5 -45.5t16 -32.5t49.5 -12.5q19 0 36.5 3.5t31.5 8.5q16 5 30 12l107 399h170z" />
<glyph unicode="&#xb6;" horiz-adv-x="620" d="M230 365q-109 0 -154 45t-23 126q15 54 43 88.5t66.5 54.5t85.5 27.5t99 7.5h314l-237 -883h-120l213 793h-97l-213 -793h-120z" />
<glyph unicode="&#xb7;" horiz-adv-x="315" d="M65 286q5 19 16.5 36t27.5 29.5t35 20t38 7.5t34 -7.5t24.5 -20t12.5 -29.5t-2 -36t-17 -36t-28 -29.5t-35 -20t-38 -7.5t-34 7.5t-24.5 20t-12 29.5t2.5 36z" />
<glyph unicode="&#xb8;" horiz-adv-x="296" d="M219 0l-56 -60l1 -2q11 3 20.5 4t21.5 1q14 0 28 -4t23.5 -13.5t13.5 -25t-2 -37.5q-7 -27 -22 -45.5t-35.5 -30t-45.5 -16.5t-51 -5q-33 0 -61.5 10.5t-48.5 20.5l32 45q18 -7 37 -12t39 -7q21 -2 38.5 7t22.5 28q10 38 -33 38q-11 0 -21 -2t-21 -5l-17 19l82 92h55z " />
<glyph unicode="&#xb9;" horiz-adv-x="378" d="M63 523l24 90q24 0 48.5 4t46 13.5t38 26t24.5 40.5h100l-113 -419h-125l66 245h-109z" />
<glyph unicode="&#xba;" horiz-adv-x="387" d="M171 448q21 0 36.5 8t26.5 20t18.5 26t10.5 27q4 13 4.5 27.5t-4.5 26.5t-16.5 20t-32.5 8q-20 0 -35.5 -8t-27 -20t-18.5 -26.5t-11 -27.5q-3 -13 -3.5 -27t4.5 -26t16.5 -20t31.5 -8zM145 353q-92 0 -130 48.5t-17 127.5q10 40 32 72.5t53.5 55.5t71 36t85.5 13 q93 0 131.5 -48.5t16.5 -128.5q-11 -39 -32.5 -71.5t-53 -56t-71.5 -36t-86 -12.5z" />
<glyph unicode="&#xbb;" horiz-adv-x="444" d="M378 195l-193 -128l37 137l104 67l-69 66l37 137l125 -127zM183 195l-192 -128l36 137l104 67l-69 66l37 137l125 -127z" />
<glyph unicode="&#xbc;" horiz-adv-x="945" d="M98 -27l612 751h99l-612 -751h-99zM72 523l24 90q24 0 48.5 4t46 13.5t38 26t24.5 40.5h100l-112 -419h-125l65 245h-109zM873 179l-24 -90h-64l-24 -89h-126l24 89h-199l26 99l265 231h122l-64 -240h64zM684 179l33 123l-139 -123h106z" />
<glyph unicode="&#xbd;" horiz-adv-x="945" d="M73 -27l612 751h99l-612 -751h-99zM61 523l24 90q24 0 48.5 4t46 13.5t38 26t24.5 40.5h100l-112 -419h-125l65 245h-109zM463 0q12 45 40.5 82.5t69.5 63.5q36 23 71.5 40.5t66.5 32.5q29 16 50 31.5t25 30.5q7 24 -5 38t-37 14q-38 0 -59 -25t-31 -59h-125 q11 41 31.5 74t51.5 56q29 23 68 36t89 13q38 0 69 -8.5t51 -25.5t27 -43t-2 -61q-7 -27 -22.5 -47.5t-36.5 -37t-47 -29.5t-55 -26q-35 -16 -57 -27t-36 -28h194l-26 -95h-365z" />
<glyph unicode="&#xbe;" horiz-adv-x="945" d="M226 535q8 0 15 -0.5t14 -0.5q9 0 21 1.5t23.5 6t20.5 12t12 19.5q5 17 -10.5 27.5t-36.5 10.5q-28 0 -49.5 -15t-27.5 -41h-125q23 77 83 114t143 37q35 0 66 -6.5t53 -21t31 -38t0 -58.5q-8 -29 -30.5 -52t-59.5 -28l-1 -2q38 -5 50.5 -29.5t1.5 -65.5q-10 -36 -33 -62 t-54 -42.5t-67.5 -24t-73.5 -7.5q-42 0 -75 8t-55 25.5t-30.5 44t-0.5 64.5l6 23h125q-8 -35 5 -52q15 -18 50 -18q12 0 24.5 2.5t23.5 8t19 13t11 17.5q4 14 0 23.5t-12.5 15t-21.5 8t-27 2.5q-7 0 -14 -0.5t-15 -0.5zM152 -27l612 751h99l-612 -751h-99zM884 179l-24 -90 h-64l-24 -89h-126l24 89h-199l26 99l265 231h122l-64 -240h64zM695 179l33 123l-139 -123h106z" />
<glyph unicode="&#xbf;" horiz-adv-x="574" d="M258 311q2 -6 1.5 -13.5t-2.5 -15.5q-10 -35 -33 -62t-53 -49.5t-63.5 -42.5t-63 -41.5t-52.5 -46t-31 -56.5q-12 -46 5 -78t50.5 -52.5t78 -29.5t87.5 -9q31 0 73 5t80 12.5t65.5 16t29.5 15.5q3 10 8 31l10 42t9 36.5l4 15.5q-18 -9 -46.5 -18.5t-60 -17t-64 -12.5 t-58.5 -5q-14 0 -31 0.5t-30.5 5t-21.5 13t-3 25.5q5 20 24 37.5t44.5 35t55.5 37t58 44t50.5 56t33.5 72.5q6 21 6 49h-160zM468 547q9 0 13.5 -6.5t1.5 -16.5l-37 -140q-3 -10 -11 -16.5t-17 -6.5h-142q-9 0 -14 6.5t-2 16.5l37 140q3 10 11.5 16.5t17.5 6.5h142z" />
<glyph unicode="&#xc0;" horiz-adv-x="704" d="M0 0zM246 266h162l-12 250h-2zM354 714h189l76 -714h-194l-9 133h-249l-80 -133h-190zM516 758h-120l-117 149h179z" />
<glyph unicode="&#xc1;" horiz-adv-x="704" d="M0 0zM246 266h162l-12 250h-2zM354 714h189l76 -714h-194l-9 133h-249l-80 -133h-190zM705 907l-196 -149h-120l136 149h180z" />
<glyph unicode="&#xc2;" horiz-adv-x="704" d="M0 0zM246 266h162l-12 250h-2zM354 714h189l76 -714h-194l-9 133h-249l-80 -133h-190zM392 758h-127l150 149h152l73 -149h-128l-39 80z" />
<glyph unicode="&#xc3;" horiz-adv-x="704" d="M0 0zM246 266h162l-12 250h-2zM354 714h189l76 -714h-194l-9 133h-249l-80 -133h-190zM680 897q-10 -26 -24.5 -49t-33.5 -40t-43 -27.5t-52 -10.5q-23 0 -41.5 5.5t-34.5 12.5q-17 7 -31.5 12.5t-28.5 5.5q-17 0 -32.5 -14t-23.5 -31h-70q10 24 25.5 48.5t36 44 t44.5 31.5t51 12q20 0 38.5 -6t35.5 -14t32.5 -14.5t27.5 -6.5q17 0 31.5 13t21.5 28h71z" />
<glyph unicode="&#xc4;" horiz-adv-x="704" d="M0 0zM246 266h162l-12 250h-2zM354 714h189l76 -714h-194l-9 133h-249l-80 -133h-190zM487 772l33 125h150l-33 -125h-150zM308 897h149l-33 -125h-149z" />
<glyph unicode="&#xc5;" horiz-adv-x="704" d="M0 0zM246 266h162l-12 250h-2zM354 714h189l76 -714h-194l-9 133h-249l-80 -133h-190zM443 737q-22 0 -39.5 8.5t-28 23.5t-13.5 34.5t3 40.5q6 22 19.5 41.5t32 34t40 23t43.5 8.5t39 -8.5t28 -22.5t14.5 -34t-2.5 -42t-19.5 -41.5t-32 -34t-40.5 -23t-44 -8.5zM458 792 q22 0 41 15.5t25 36.5q6 23 -5.5 37.5t-33.5 14.5t-40.5 -14.5t-24.5 -37.5q-6 -21 5 -36.5t33 -15.5z" />
<glyph unicode="&#xc6;" horiz-adv-x="1002" d="M282 266h162l80 299h-32zM424 714h648l-40 -149h-328l-33 -125h306l-39 -144h-306l-36 -136h337l-43 -160h-517l34 128h-218l-92 -128h-197z" />
<glyph unicode="&#xc7;" horiz-adv-x="759" d="M285 -13l-70 -79l17 -19q11 3 21 5t21 2q43 0 33 -38q-5 -19 -22.5 -28t-38.5 -7q-20 2 -39 7t-37 12l-31 -45q19 -10 47.5 -20.5t61.5 -10.5q26 0 51 5t45.5 16.5t35.5 30t22 45.5q6 22 2 37.5t-13.5 25t-23.5 13.5t-28 4q-12 0 -21.5 -1t-20.5 -4l-1 2l43 46zM244 356 q-12 -45 -11.5 -87.5t16.5 -75.5t47 -52.5t81 -19.5q32 0 67 7t70 18t68 24t62 25l-42 -159q-23 -6 -49 -15t-59 -16.5t-74.5 -13t-96.5 -5.5q-84 0 -144 26t-94 75t-41 118.5t16 156.5q22 83 65.5 151t104 116.5t135 75t158.5 26.5q55 0 94 -5.5t67.5 -13t49.5 -16 t40 -15.5l-42 -158q-23 11 -49.5 24t-55.5 23.5t-60 17.5t-63 7q-50 0 -92 -20.5t-75.5 -54.5t-57 -76.5t-35.5 -87.5z" />
<glyph unicode="&#xc8;" horiz-adv-x="685" d="M0 0zM160 714h569l-35 -132h-383l-40 -149h350l-36 -132h-350l-44 -167h393l-36 -134h-578zM507 758h-120l-117 149h179z" />
<glyph unicode="&#xc9;" horiz-adv-x="685" d="M0 0zM160 714h569l-35 -132h-383l-40 -149h350l-36 -132h-350l-44 -167h393l-36 -134h-578zM696 907l-196 -149h-120l136 149h180z" />
<glyph unicode="&#xca;" horiz-adv-x="685" d="M0 0zM160 714h569l-35 -132h-383l-40 -149h350l-36 -132h-350l-44 -167h393l-36 -134h-578zM383 758h-127l150 149h152l73 -149h-128l-39 80z" />
<glyph unicode="&#xcb;" horiz-adv-x="685" d="M0 0zM160 714h569l-35 -132h-383l-40 -149h350l-36 -132h-350l-44 -167h393l-36 -134h-578zM478 772l33 125h150l-33 -125h-150zM299 897h149l-33 -125h-149z" />
<glyph unicode="&#xcc;" horiz-adv-x="315" d="M0 0zM160 714h186l-191 -714h-185zM322 758h-120l-117 149h179z" />
<glyph unicode="&#xcd;" horiz-adv-x="315" d="M0 0zM160 714h186l-191 -714h-185zM511 907l-196 -149h-120l136 149h180z" />
<glyph unicode="&#xce;" horiz-adv-x="315" d="M0 0zM160 714h186l-191 -714h-185zM198 758h-127l150 149h152l73 -149h-128l-39 80z" />
<glyph unicode="&#xcf;" horiz-adv-x="315" d="M0 0zM160 714h186l-191 -714h-185zM293 772l33 125h150l-33 -125h-150zM114 897h149l-33 -125h-149z" />
<glyph unicode="&#xd0;" horiz-adv-x="759" d="M47 296h-72l37 144h73l67 249q0 -1 20 5.5t57 14.5t90.5 14.5t119.5 6.5q91 0 154.5 -27t99.5 -75.5t43 -116.5t-15 -151q-24 -89 -63.5 -158t-98 -117t-136.5 -73t-177 -26q-48 0 -97 4t-88 9t-64 10l-25 5zM232 296l-45 -169l8 -2t20.5 -4t29 -3t32.5 -1q56 0 97 15.5 t71.5 46t52 75.5t37.5 104q5 20 9.5 45.5t4 52.5t-7 53t-22 46.5t-43 33t-68.5 12.5q-18 0 -35 -1.5t-31 -3.5l-30 -5l-42 -151h158l-38 -144h-158z" />
<glyph unicode="&#xd1;" horiz-adv-x="741" d="M0 0zM158 714h191l130 -440h2l118 440h175l-191 -714h-191l-129 445h-2l-119 -445h-174zM699 897q-10 -26 -24.5 -49t-33.5 -40t-43 -27.5t-52 -10.5q-23 0 -41.5 5.5t-34.5 12.5q-17 7 -31.5 12.5t-28.5 5.5q-17 0 -32.5 -14t-23.5 -31h-70q10 24 25.5 48.5t36 44 t44.5 31.5t51 12q20 0 38.5 -6t35.5 -14t32.5 -14.5t27.5 -6.5q17 0 31.5 13t21.5 28h71z" />
<glyph unicode="&#xd2;" horiz-adv-x="778" d="M21 0zM37 357q21 78 62 145.5t99.5 118t132 79.5t157.5 29t142 -29t89.5 -79.5t37 -118t-15.5 -145.5t-62.5 -145.5t-100 -118t-132 -79.5t-157.5 -29t-142 29t-89 79.5t-36.5 118t15.5 145.5zM223 357q-11 -40 -13 -81.5t8.5 -75.5t36.5 -56t71 -22t82.5 22t66.5 56 t49 75.5t31 81.5q10 40 12 81.5t-8.5 75.5t-36.5 56t-71 22t-82.5 -22t-66 -56t-49 -75.5t-30.5 -81.5zM553 758h-120l-117 149h179z" />
<glyph unicode="&#xd3;" horiz-adv-x="778" d="M21 0zM37 357q21 78 62 145.5t99.5 118t132 79.5t157.5 29t142 -29t89.5 -79.5t37 -118t-15.5 -145.5t-62.5 -145.5t-100 -118t-132 -79.5t-157.5 -29t-142 29t-89 79.5t-36.5 118t15.5 145.5zM223 357q-11 -40 -13 -81.5t8.5 -75.5t36.5 -56t71 -22t82.5 22t66.5 56 t49 75.5t31 81.5q10 40 12 81.5t-8.5 75.5t-36.5 56t-71 22t-82.5 -22t-66 -56t-49 -75.5t-30.5 -81.5zM742 907l-196 -149h-120l136 149h180z" />
<glyph unicode="&#xd4;" horiz-adv-x="778" d="M21 0zM37 357q21 78 62 145.5t99.5 118t132 79.5t157.5 29t142 -29t89.5 -79.5t37 -118t-15.5 -145.5t-62.5 -145.5t-100 -118t-132 -79.5t-157.5 -29t-142 29t-89 79.5t-36.5 118t15.5 145.5zM223 357q-11 -40 -13 -81.5t8.5 -75.5t36.5 -56t71 -22t82.5 22t66.5 56 t49 75.5t31 81.5q10 40 12 81.5t-8.5 75.5t-36.5 56t-71 22t-82.5 -22t-66 -56t-49 -75.5t-30.5 -81.5zM429 758h-127l150 149h152l73 -149h-128l-39 80z" />
<glyph unicode="&#xd5;" horiz-adv-x="778" d="M21 0zM37 357q21 78 62 145.5t99.5 118t132 79.5t157.5 29t142 -29t89.5 -79.5t37 -118t-15.5 -145.5t-62.5 -145.5t-100 -118t-132 -79.5t-157.5 -29t-142 29t-89 79.5t-36.5 118t15.5 145.5zM223 357q-11 -40 -13 -81.5t8.5 -75.5t36.5 -56t71 -22t82.5 22t66.5 56 t49 75.5t31 81.5q10 40 12 81.5t-8.5 75.5t-36.5 56t-71 22t-82.5 -22t-66 -56t-49 -75.5t-30.5 -81.5zM717 897q-10 -26 -24.5 -49t-33.5 -40t-43 -27.5t-52 -10.5q-23 0 -41.5 5.5t-34.5 12.5q-17 7 -31.5 12.5t-28.5 5.5q-17 0 -32.5 -14t-23.5 -31h-70q10 24 25.5 48.5 t36 44t44.5 31.5t51 12q20 0 38.5 -6t35.5 -14t32.5 -14.5t27.5 -6.5q17 0 31.5 13t21.5 28h71z" />
<glyph unicode="&#xd6;" horiz-adv-x="778" d="M21 0zM37 357q21 78 62 145.5t99.5 118t132 79.5t157.5 29t142 -29t89.5 -79.5t37 -118t-15.5 -145.5t-62.5 -145.5t-100 -118t-132 -79.5t-157.5 -29t-142 29t-89 79.5t-36.5 118t15.5 145.5zM223 357q-11 -40 -13 -81.5t8.5 -75.5t36.5 -56t71 -22t82.5 22t66.5 56 t49 75.5t31 81.5q10 40 12 81.5t-8.5 75.5t-36.5 56t-71 22t-82.5 -22t-66 -56t-49 -75.5t-30.5 -81.5zM524 772l33 125h150l-33 -125h-150zM345 897h149l-33 -125h-149z" />
<glyph unicode="&#xd7;" horiz-adv-x="600" d="M92 397l129 102l106 -144l182 144l75 -102l-182 -144l105 -144l-129 -102l-106 144l-182 -144l-75 102l183 144z" />
<glyph unicode="&#xd8;" horiz-adv-x="778" d="M-70 10l119 101q-26 49 -28.5 111.5t16.5 134.5q21 78 62.5 145.5t100 118t132 79.5t157.5 29q68 0 118.5 -19t84.5 -53l106 90l45 -50l-113 -95q25 -49 28 -111.5t-17 -133.5q-21 -78 -62 -145.5t-99.5 -118t-132 -79.5t-157.5 -29q-69 0 -119 19t-84 53l-113 -97z M223 357q-7 -27 -10.5 -54.5t-2.5 -53.5l341 288q-14 25 -38 40t-61 15q-45 0 -82.5 -22t-66.5 -56t-49 -75.5t-31 -81.5zM555 357q8 26 11.5 53.5t1.5 53.5l-340 -288q14 -25 37 -39.5t61 -14.5q45 0 82.5 22t66.5 56t49 75.5t31 81.5z" />
<glyph unicode="&#xd9;" horiz-adv-x="741" d="M45 0zM667 295q-42 -155 -137 -232.5t-257 -77.5t-215.5 77.5t-12.5 232.5l112 419h186l-116 -432q-9 -35 -10 -64t8.5 -50t30 -33t54.5 -12q68 0 108.5 45t58.5 114l116 432h186zM535 758h-120l-117 149h179z" />
<glyph unicode="&#xda;" horiz-adv-x="741" d="M45 0zM667 295q-42 -155 -137 -232.5t-257 -77.5t-215.5 77.5t-12.5 232.5l112 419h186l-116 -432q-9 -35 -10 -64t8.5 -50t30 -33t54.5 -12q68 0 108.5 45t58.5 114l116 432h186zM724 907l-196 -149h-120l136 149h180z" />
<glyph unicode="&#xdb;" horiz-adv-x="741" d="M45 0zM667 295q-42 -155 -137 -232.5t-257 -77.5t-215.5 77.5t-12.5 232.5l112 419h186l-116 -432q-9 -35 -10 -64t8.5 -50t30 -33t54.5 -12q68 0 108.5 45t58.5 114l116 432h186zM411 758h-127l150 149h152l73 -149h-128l-39 80z" />
<glyph unicode="&#xdc;" horiz-adv-x="741" d="M45 0zM667 295q-42 -155 -137 -232.5t-257 -77.5t-215.5 77.5t-12.5 232.5l112 419h186l-116 -432q-9 -35 -10 -64t8.5 -50t30 -33t54.5 -12q68 0 108.5 45t58.5 114l116 432h186zM506 772l33 125h150l-33 -125h-150zM327 897h149l-33 -125h-149z" />
<glyph unicode="&#xdd;" horiz-adv-x="667" d="M74 0zM145 0l70 260q-109 21 -140.5 96t3.5 207l40 151h186l-44 -164q-9 -35 -10 -64t8.5 -50t30 -33t54.5 -12q68 0 108.5 45t58.5 114l44 164h186l-40 -151q-35 -132 -108 -207t-191 -96l-70 -260h-186zM687 907l-196 -149h-120l136 149h180z" />
<glyph unicode="&#xde;" horiz-adv-x="685" />
<glyph unicode="&#xdf;" d="M320 362q0 1 16.5 14t39 33.5t44.5 45t31 48.5q12 31 9.5 53.5t-13.5 37t-27 21t-30 6.5q-17 0 -35.5 -7t-35.5 -20t-30.5 -32.5t-20.5 -43.5l-137 -517h-169l136 511q17 52 43 92.5t65 68.5t93.5 42.5t128.5 14.5q39 0 75.5 -7t65 -24.5t46 -46.5t17.5 -73 q0 -48 -19.5 -90.5t-64.5 -80.5q-16 -14 -32.5 -27.5t-27.5 -18.5q18 -28 34 -51t25.5 -46.5t11 -49.5t-7.5 -61q-10 -36 -34 -65.5t-59.5 -50.5t-80.5 -32.5t-96 -11.5q-26 0 -51 2l-50 4l30 115q23 -2 42 -4t36 -2q33 0 61.5 16.5t38.5 53.5q9 31 -1 63.5t-25 58.5 t-28.5 43t-13.5 18z" />
<glyph unicode="&#xe0;" horiz-adv-x="600" d="M0 0zM168 251q-7 -25 -10 -49.5t2 -45.5t21 -36.5t48 -22.5q20 -5 39.5 -1t33.5 12q17 8 32 21l73 272q-11 6 -22 11t-24 8.5t-29 3.5q-39 0 -66.5 -17t-47 -42.5t-31.5 -56t-19 -57.5zM471 0h-170l5 18q-16 -10 -34 -17q-16 -6 -37 -11t-45 -5q-77 0 -121 24.5t-63.5 63 t-19 84.5t11.5 90q16 62 44 114.5t69 90.5t96 60t126 22q66 0 116 -8t83 -19q39 -12 67 -28zM468 575h-120l-117 149h179z" />
<glyph unicode="&#xe1;" horiz-adv-x="600" d="M0 0zM168 251q-7 -25 -10 -49.5t2 -45.5t21 -36.5t48 -22.5q20 -5 39.5 -1t33.5 12q17 8 32 21l73 272q-11 6 -22 11t-24 8.5t-29 3.5q-39 0 -66.5 -17t-47 -42.5t-31.5 -56t-19 -57.5zM471 0h-170l5 18q-16 -10 -34 -17q-16 -6 -37 -11t-45 -5q-77 0 -121 24.5t-63.5 63 t-19 84.5t11.5 90q16 62 44 114.5t69 90.5t96 60t126 22q66 0 116 -8t83 -19q39 -12 67 -28zM657 724l-196 -149h-120l136 149h180z" />
<glyph unicode="&#xe2;" horiz-adv-x="600" d="M0 0zM168 251q-7 -25 -10 -49.5t2 -45.5t21 -36.5t48 -22.5q20 -5 39.5 -1t33.5 12q17 8 32 21l73 272q-11 6 -22 11t-24 8.5t-29 3.5q-39 0 -66.5 -17t-47 -42.5t-31.5 -56t-19 -57.5zM471 0h-170l5 18q-16 -10 -34 -17q-16 -6 -37 -11t-45 -5q-77 0 -121 24.5t-63.5 63 t-19 84.5t11.5 90q16 62 44 114.5t69 90.5t96 60t126 22q66 0 116 -8t83 -19q39 -12 67 -28zM344 575h-127l150 149h152l73 -149h-128l-39 80z" />
<glyph unicode="&#xe3;" horiz-adv-x="600" d="M0 0zM168 251q-7 -25 -10 -49.5t2 -45.5t21 -36.5t48 -22.5q20 -5 39.5 -1t33.5 12q17 8 32 21l73 272q-11 6 -22 11t-24 8.5t-29 3.5q-39 0 -66.5 -17t-47 -42.5t-31.5 -56t-19 -57.5zM471 0h-170l5 18q-16 -10 -34 -17q-16 -6 -37 -11t-45 -5q-77 0 -121 24.5t-63.5 63 t-19 84.5t11.5 90q16 62 44 114.5t69 90.5t96 60t126 22q66 0 116 -8t83 -19q39 -12 67 -28zM632 714q-10 -26 -24.5 -49t-33.5 -40t-43 -27.5t-52 -10.5q-23 0 -41.5 5.5t-34.5 12.5q-17 7 -31.5 12.5t-28.5 5.5q-17 0 -32.5 -14t-23.5 -31h-70q10 24 25.5 48.5t36 44 t44.5 31.5t51 12q20 0 38.5 -6t35.5 -14t32.5 -14.5t27.5 -6.5q17 0 31.5 13t21.5 28h71z" />
<glyph unicode="&#xe4;" horiz-adv-x="600" d="M0 0zM168 251q-7 -25 -10 -49.5t2 -45.5t21 -36.5t48 -22.5q20 -5 39.5 -1t33.5 12q17 8 32 21l73 272q-11 6 -22 11t-24 8.5t-29 3.5q-39 0 -66.5 -17t-47 -42.5t-31.5 -56t-19 -57.5zM471 0h-170l5 18q-16 -10 -34 -17q-16 -6 -37 -11t-45 -5q-77 0 -121 24.5t-63.5 63 t-19 84.5t11.5 90q16 62 44 114.5t69 90.5t96 60t126 22q66 0 116 -8t83 -19q39 -12 67 -28zM439 589l33 125h150l-33 -125h-150zM260 714h149l-33 -125h-149z" />
<glyph unicode="&#xe5;" horiz-adv-x="600" d="M0 0zM168 251q-7 -25 -10 -49.5t2 -45.5t21 -36.5t48 -22.5q20 -5 39.5 -1t33.5 12q17 8 32 21l73 272q-11 6 -22 11t-24 8.5t-29 3.5q-39 0 -66.5 -17t-47 -42.5t-31.5 -56t-19 -57.5zM471 0h-170l5 18q-16 -10 -34 -17q-16 -6 -37 -11t-45 -5q-77 0 -121 24.5t-63.5 63 t-19 84.5t11.5 90q16 62 44 114.5t69 90.5t96 60t126 22q66 0 116 -8t83 -19q39 -12 67 -28zM395 560q-22 0 -39.5 8.5t-28 23.5t-13.5 34.5t3 40.5q6 22 19.5 41.5t32 34t40 23t43.5 8.5t39 -8.5t28 -22.5t14.5 -34t-2.5 -42t-19.5 -41.5t-32 -34t-40.5 -23t-44 -8.5z M410 615q22 0 41 15.5t25 36.5q6 23 -5.5 37.5t-33.5 14.5t-40.5 -14.5t-24.5 -37.5q-6 -21 5 -36.5t33 -15.5z" />
<glyph unicode="&#xe6;" horiz-adv-x="944" d="M177 154q-8 -32 9 -45.5t46 -13.5q34 0 60 3.5t41 8.5l31 119q-8 0 -21.5 -0.5t-28 -1t-28 -2t-21.5 -2.5q-31 -7 -55.5 -21t-32.5 -45zM767 321q4 22 3 41t-9 33t-24.5 22t-42.5 8q-53 0 -85.5 -28t-52.5 -76h211zM528 217q-5 -21 -3 -42.5t14 -39t35 -29t61 -11.5 q25 0 55.5 5.5t61 13.5t59.5 17.5t52 18.5l-60 -134q-1 -2 -21 -7t-51 -10.5t-69 -9.5t-74 -4q-121 0 -167 61q-20 -11 -43.5 -22t-50 -19.5t-55 -13.5t-58.5 -5q-50 0 -92.5 5t-72 21.5t-42.5 47t-2 82.5q9 47 35 78.5t62.5 52t79 32.5t84.5 19q18 3 38.5 5.5t39 4t32 2 t17.5 0.5l5 18q6 24 4.5 38t-10 21t-23.5 9t-36 2q-24 0 -55.5 -6t-63.5 -14.5t-60.5 -18t-47.5 -16.5l34 127q24 7 59 13.5t71 12t68 9t52 3.5q27 0 52.5 -2.5t48 -8.5t40.5 -17t30 -27q41 28 83 42t79 14q55 0 96 -17t66.5 -47t36 -69.5t5.5 -84.5q-3 -24 -8.5 -49 t-16.5 -51h-374z" />
<glyph unicode="&#xe7;" horiz-adv-x="508" d="M499 378q0 -1 -8.5 3.5t-26 10t-44 10.5t-63.5 5q-31 0 -58 -11t-48.5 -30.5t-37 -45.5t-22.5 -55q-8 -29 -6.5 -55t13 -45.5t32 -30.5t51.5 -11q37 0 66.5 5.5t50 12.5t31.5 12.5l11 5.5l-30 -150q-34 -9 -74 -15.5t-94 -8.5l-43 -45q12 2 21.5 2.5t21.5 0.5q14 0 28 -4 t24 -13.5t14 -25t-2 -37.5q-7 -27 -22 -45.5t-35.5 -30t-45.5 -16.5t-51 -5q-23 0 -43.5 6.5t-37.5 11.5q3 16 6 27q2 10 4.5 18t2.5 9q17 -7 31.5 -10t34.5 -5t38 7t23 28q5 21 -1.5 30.5t-21 12.5t-35 1.5t-41.5 -2.5l76 87q-59 6 -97.5 31.5t-58 63.5t-21.5 85.5t12 99.5 q15 55 46 105.5t76.5 89t104.5 62t130 23.5q60 0 98.5 -7t69.5 -16z" />
<glyph unicode="&#xe8;" horiz-adv-x="607" d="M19 0zM427 321q4 22 3 41t-9 33t-24.5 22t-42.5 8q-53 0 -85.5 -28t-52.5 -76h211zM188 217q-5 -21 -3 -42.5t14 -39t35 -29t61 -11.5q25 0 55.5 5.5t61 13.5t59.5 17.5t52 18.5l-60 -134q-1 -2 -21 -7t-51 -10.5t-69 -9.5t-74 -4q-68 0 -116.5 19t-77 54.5t-35 87 t10.5 116.5q18 67 54 118t83 85.5t103 52t113 17.5q55 0 96 -17t66.5 -47t36 -69.5t5.5 -84.5q-3 -24 -8.5 -49t-16.5 -51h-374zM468 575h-120l-117 149h179z" />
<glyph unicode="&#xe9;" horiz-adv-x="607" d="M19 0zM427 321q4 22 3 41t-9 33t-24.5 22t-42.5 8q-53 0 -85.5 -28t-52.5 -76h211zM188 217q-5 -21 -3 -42.5t14 -39t35 -29t61 -11.5q25 0 55.5 5.5t61 13.5t59.5 17.5t52 18.5l-60 -134q-1 -2 -21 -7t-51 -10.5t-69 -9.5t-74 -4q-68 0 -116.5 19t-77 54.5t-35 87 t10.5 116.5q18 67 54 118t83 85.5t103 52t113 17.5q55 0 96 -17t66.5 -47t36 -69.5t5.5 -84.5q-3 -24 -8.5 -49t-16.5 -51h-374zM657 724l-196 -149h-120l136 149h180z" />
<glyph unicode="&#xea;" horiz-adv-x="607" d="M19 0zM427 321q4 22 3 41t-9 33t-24.5 22t-42.5 8q-53 0 -85.5 -28t-52.5 -76h211zM188 217q-5 -21 -3 -42.5t14 -39t35 -29t61 -11.5q25 0 55.5 5.5t61 13.5t59.5 17.5t52 18.5l-60 -134q-1 -2 -21 -7t-51 -10.5t-69 -9.5t-74 -4q-68 0 -116.5 19t-77 54.5t-35 87 t10.5 116.5q18 67 54 118t83 85.5t103 52t113 17.5q55 0 96 -17t66.5 -47t36 -69.5t5.5 -84.5q-3 -24 -8.5 -49t-16.5 -51h-374zM344 575h-127l150 149h152l73 -149h-128l-39 80z" />
<glyph unicode="&#xeb;" horiz-adv-x="607" d="M19 0zM427 321q4 22 3 41t-9 33t-24.5 22t-42.5 8q-53 0 -85.5 -28t-52.5 -76h211zM188 217q-5 -21 -3 -42.5t14 -39t35 -29t61 -11.5q25 0 55.5 5.5t61 13.5t59.5 17.5t52 18.5l-60 -134q-1 -2 -21 -7t-51 -10.5t-69 -9.5t-74 -4q-68 0 -116.5 19t-77 54.5t-35 87 t10.5 116.5q18 67 54 118t83 85.5t103 52t113 17.5q55 0 96 -17t66.5 -47t36 -69.5t5.5 -84.5q-3 -24 -8.5 -49t-16.5 -51h-374zM439 589l33 125h150l-33 -125h-150zM260 714h149l-33 -125h-149z" />
<glyph unicode="&#xec;" horiz-adv-x="290" d="M0 0zM-6 0l138 519h170l-139 -519h-169zM312 575h-120l-117 149h179z" />
<glyph unicode="&#xed;" horiz-adv-x="290" d="M0 0zM-1 0l138 519h170l-139 -519h-169zM506 724l-196 -149h-120l136 149h180z" />
<glyph unicode="&#xee;" horiz-adv-x="290" d="M0 0zM-6 0l138 519h170l-139 -519h-169zM188 575h-127l150 149h152l73 -149h-128l-39 80z" />
<glyph unicode="&#xef;" horiz-adv-x="290" d="M0 0zM-6 0l138 519h170l-139 -519h-169zM283 589l33 125h150l-33 -125h-150zM104 714h149l-33 -125h-149z" />
<glyph unicode="&#xf0;" horiz-adv-x="611" d="M163 242q-5 -20 -6 -42.5t5.5 -41.5t23 -31t46.5 -12t53 12t40.5 31t28.5 41.5t16 42.5t6 42.5t-6 41t-23.5 31t-46.5 12.5t-53 -12.5t-40 -31t-28 -41t-16 -42.5zM283 648q-23 19 -46 32t-42 20l134 78q32 -12 58.5 -29.5t37.5 -31.5l143 68l51 -61l-136 -65 q28 -30 47.5 -72t29 -91t8 -103.5t-16.5 -110.5q-19 -70 -54 -125t-81.5 -93.5t-102.5 -58.5t-116 -20t-105 19.5t-71.5 54t-34 81.5t7.5 102q14 55 46 102t74.5 81.5t92 54t98.5 19.5q25 0 49.5 -3.5t41.5 -17.5l3 2q-7 31 -22 59t-35 53l-147 -70l-51 60z" />
<glyph unicode="&#xf1;" horiz-adv-x="633" d="M0 0zM116 479l27.5 8.5t72.5 19t102 19t117 8.5q53 0 86.5 -9.5t53 -26t27 -37t7.5 -43t-4.5 -44.5t-9.5 -41l-89 -333h-170l75 280q7 27 13.5 52.5t5 45.5t-16 32.5t-49.5 12.5q-19 0 -36.5 -3.5t-31.5 -8.5q-16 -5 -30 -12l-107 -399h-169zM647 714q-10 -26 -24.5 -49 t-33.5 -40t-43 -27.5t-52 -10.5q-23 0 -41.5 5.5t-34.5 12.5q-17 7 -31.5 12.5t-28.5 5.5q-17 0 -32.5 -14t-23.5 -31h-70q10 24 25.5 48.5t36 44t44.5 31.5t51 12q20 0 38.5 -6t35.5 -14t32.5 -14.5t27.5 -6.5q17 0 31.5 13t21.5 28h71z" />
<glyph unicode="&#xf2;" horiz-adv-x="607" d="M20 0zM197 259q-9 -32 -12 -61.5t2.5 -52.5t22 -36.5t48.5 -13.5q31 0 55.5 13.5t42.5 36.5t30.5 52.5t21.5 61.5q9 33 12.5 63t-2.5 53t-23 36.5t-48 13.5t-55 -13.5t-42 -36.5t-31 -53t-22 -63zM30 260q15 58 47 108.5t77 87t101.5 58t120.5 21.5t109.5 -21t71 -58 t30.5 -87.5t-10 -108.5q-16 -59 -48 -109t-77 -87t-102 -58t-121 -21t-109 21.5t-70 58t-30 86.5t10 109zM468 575h-120l-117 149h179z" />
<glyph unicode="&#xf3;" horiz-adv-x="607" d="M20 0zM197 259q-9 -32 -12 -61.5t2.5 -52.5t22 -36.5t48.5 -13.5q31 0 55.5 13.5t42.5 36.5t30.5 52.5t21.5 61.5q9 33 12.5 63t-2.5 53t-23 36.5t-48 13.5t-55 -13.5t-42 -36.5t-31 -53t-22 -63zM30 260q15 58 47 108.5t77 87t101.5 58t120.5 21.5t109.5 -21t71 -58 t30.5 -87.5t-10 -108.5q-16 -59 -48 -109t-77 -87t-102 -58t-121 -21t-109 21.5t-70 58t-30 86.5t10 109zM657 724l-196 -149h-120l136 149h180z" />
<glyph unicode="&#xf4;" horiz-adv-x="607" d="M20 0zM197 259q-9 -32 -12 -61.5t2.5 -52.5t22 -36.5t48.5 -13.5q31 0 55.5 13.5t42.5 36.5t30.5 52.5t21.5 61.5q9 33 12.5 63t-2.5 53t-23 36.5t-48 13.5t-55 -13.5t-42 -36.5t-31 -53t-22 -63zM30 260q15 58 47 108.5t77 87t101.5 58t120.5 21.5t109.5 -21t71 -58 t30.5 -87.5t-10 -108.5q-16 -59 -48 -109t-77 -87t-102 -58t-121 -21t-109 21.5t-70 58t-30 86.5t10 109zM344 575h-127l150 149h152l73 -149h-128l-39 80z" />
<glyph unicode="&#xf5;" horiz-adv-x="607" d="M20 0zM197 259q-9 -32 -12 -61.5t2.5 -52.5t22 -36.5t48.5 -13.5q31 0 55.5 13.5t42.5 36.5t30.5 52.5t21.5 61.5q9 33 12.5 63t-2.5 53t-23 36.5t-48 13.5t-55 -13.5t-42 -36.5t-31 -53t-22 -63zM30 260q15 58 47 108.5t77 87t101.5 58t120.5 21.5t109.5 -21t71 -58 t30.5 -87.5t-10 -108.5q-16 -59 -48 -109t-77 -87t-102 -58t-121 -21t-109 21.5t-70 58t-30 86.5t10 109zM632 714q-10 -26 -24.5 -49t-33.5 -40t-43 -27.5t-52 -10.5q-23 0 -41.5 5.5t-34.5 12.5q-17 7 -31.5 12.5t-28.5 5.5q-17 0 -32.5 -14t-23.5 -31h-70 q10 24 25.5 48.5t36 44t44.5 31.5t51 12q20 0 38.5 -6t35.5 -14t32.5 -14.5t27.5 -6.5q17 0 31.5 13t21.5 28h71z" />
<glyph unicode="&#xf6;" horiz-adv-x="609" d="M22 0zM199 259q-9 -32 -12 -61.5t2.5 -52.5t22 -36.5t48.5 -13.5q31 0 55.5 13.5t42.5 36.5t30.5 52.5t21.5 61.5q9 33 12.5 63t-2.5 53t-23 36.5t-48 13.5t-55 -13.5t-42 -36.5t-31 -53t-22 -63zM32 260q15 58 47 108.5t77 87t101.5 58t120.5 21.5t109.5 -21t71 -58 t30.5 -87.5t-10 -108.5q-16 -59 -48 -109t-77 -87t-102 -58t-121 -21t-109 21.5t-70 58t-30 86.5t10 109zM441 589l33 125h150l-33 -125h-150zM262 714h149l-33 -125h-149z" />
<glyph unicode="&#xf7;" horiz-adv-x="600" d="M28 181l39 144h504l-39 -144h-504zM256 460q6 21 18.5 39t29 31.5t36.5 21t41 7.5q42 0 63 -28.5t10 -70.5q-6 -20 -18.5 -38t-29.5 -31.5t-37 -21.5t-41 -8q-42 0 -62.5 29t-9.5 70zM145 46q6 21 18.5 39t29.5 31.5t37 21t41 7.5q42 0 62.5 -28.5t9.5 -70.5 q-5 -20 -17.5 -38t-29.5 -31.5t-37 -21.5t-41 -8t-37 8t-25.5 21.5t-12.5 31.5t2 38z" />
<glyph unicode="&#xf8;" horiz-adv-x="611" d="M403 377q-10 13 -24 20t-35 7q-30 0 -53 -13.5t-40.5 -34.5t-29.5 -46.5t-19 -50.5q-10 -35 -8 -67zM210 141q15 -26 57 -26q30 0 53.5 13t41 34t29.5 46.5t18 50.5q9 31 9 65zM-23 -2l77 69q-26 37 -31.5 86t9.5 106q16 58 49.5 108.5t79.5 87.5t102 58t116 21 q91 0 147 -48l67 60l34 -38l-68 -60q25 -37 30 -85t-10 -104q-15 -59 -48.5 -109t-80 -86.5t-102.5 -57.5t-116 -21q-91 0 -147 47l-75 -66z" />
<glyph unicode="&#xf9;" horiz-adv-x="633" d="M24 0zM516 40l-27.5 -8.5t-72.5 -19t-102 -19t-117 -8.5q-79 0 -116.5 21t-49.5 51.5t-7 65.5t13 63l89 333h170l-75 -280q-7 -27 -13.5 -52.5t-5 -45.5t16 -32.5t49.5 -12.5q19 0 36.5 3.5t31.5 8.5q16 5 30 12l107 399h170zM478 575h-120l-117 149h179z" />
<glyph unicode="&#xfa;" horiz-adv-x="633" d="M24 0zM516 40l-27.5 -8.5t-72.5 -19t-102 -19t-117 -8.5q-79 0 -116.5 21t-49.5 51.5t-7 65.5t13 63l89 333h170l-75 -280q-7 -27 -13.5 -52.5t-5 -45.5t16 -32.5t49.5 -12.5q19 0 36.5 3.5t31.5 8.5q16 5 30 12l107 399h170zM667 724l-196 -149h-120l136 149h180z" />
<glyph unicode="&#xfb;" horiz-adv-x="633" d="M24 0zM516 40l-27.5 -8.5t-72.5 -19t-102 -19t-117 -8.5q-79 0 -116.5 21t-49.5 51.5t-7 65.5t13 63l89 333h170l-75 -280q-7 -27 -13.5 -52.5t-5 -45.5t16 -32.5t49.5 -12.5q19 0 36.5 3.5t31.5 8.5q16 5 30 12l107 399h170zM354 575h-127l150 149h152l73 -149h-128 l-39 80z" />
<glyph unicode="&#xfc;" horiz-adv-x="633" d="M24 0zM516 40l-27.5 -8.5t-72.5 -19t-102 -19t-117 -8.5q-79 0 -116.5 21t-49.5 51.5t-7 65.5t13 63l89 333h170l-75 -280q-7 -27 -13.5 -52.5t-5 -45.5t16 -32.5t49.5 -12.5q19 0 36.5 3.5t31.5 8.5q16 5 30 12l107 399h170zM449 589l33 125h150l-33 -125h-150zM270 714 h149l-33 -125h-149z" />
<glyph unicode="&#xfd;" horiz-adv-x="537" d="M0 0zM137 41q-1 10 -3 31.5t-7 72t-14 139.5t-24 235h180l7 -338h2l189 338h174l-299 -466q-33 -51 -61.5 -88.5t-58 -66t-64 -52t-79.5 -46.5l-90 105q25 10 52 25t49 33t35 37.5t12 40.5zM622 724l-196 -149h-120l136 149h180z" />
<glyph unicode="&#xfe;" d="M278 462h2q72 72 167 72q56 0 91 -24t51.5 -64t16 -91.5t-15.5 -106.5q-14 -51 -40.5 -98t-63.5 -84t-84 -59t-102 -22q-94 0 -129 71h-2l-61 -230h-169l236 888h170zM360 404q-17 0 -37 -6.5t-39.5 -22.5t-36.5 -43t-28 -67q-9 -34 -11 -62t4.5 -47.5t23.5 -30t46 -10.5 q28 0 51.5 13.5t41 35t30 48t19.5 53.5q7 25 8.5 49.5t-5.5 44.5t-23 32.5t-44 12.5z" />
<glyph unicode="&#xff;" horiz-adv-x="537" d="M0 0zM137 41q-1 10 -3 31.5t-7 72t-14 139.5t-24 235h180l7 -338h2l189 338h174l-299 -466q-33 -51 -61.5 -88.5t-58 -66t-64 -52t-79.5 -46.5l-90 105q25 10 52 25t49 33t35 37.5t12 40.5zM404 589l33 125h150l-33 -125h-150zM225 714h149l-33 -125h-149z" />
<glyph unicode="&#x131;" horiz-adv-x="293" d="M-10 0l138 519h170l-139 -519h-169z" />
<glyph unicode="&#x152;" horiz-adv-x="1083" d="M1113 565h-347l-33 -125h317l-39 -144h-317l-36 -136h355l-43 -160h-529l12 45q-41 -35 -90 -47.5t-88 -12.5q-80 0 -134 31t-84 82.5t-35 119t14 139.5t60 139.5t98.5 119t128.5 82.5t151 31q44 0 84.5 -13t59.5 -49h2l12 47h521zM451 569q-49 0 -87 -18t-66 -48 t-47 -68t-29 -78q-11 -40 -12.5 -78t11 -68t40.5 -48t77 -18q34 0 63.5 14t53.5 37t41 52.5t26 60.5l25 96q9 31 7.5 60.5t-13 52.5t-34 37t-56.5 14z" />
<glyph unicode="&#x153;" horiz-adv-x="945" d="M768 321q4 22 3 41t-9 33t-24.5 22t-42.5 8q-53 0 -85.5 -28t-52.5 -76h211zM189 259q-9 -32 -12 -61.5t2.5 -52.5t22 -36.5t48.5 -13.5q31 0 55.5 13.5t42.5 36.5t30.5 52.5t21.5 61.5q9 33 12.5 63t-2.5 53t-23 36.5t-48 13.5t-55 -13.5t-42 -36.5t-31 -53t-22 -63z M22 260q15 58 47 108.5t77 87t101.5 58t120.5 21.5q60 0 102.5 -20t59.5 -58l-1 -3q87 81 195 81q55 0 96 -17t66.5 -47t36 -69.5t5.5 -84.5q-3 -24 -8.5 -49t-16.5 -51h-374q-5 -21 -3 -42.5t14 -39t35 -29t61 -11.5q25 0 55.5 5.5t61 13.5t59.5 17.5t52 18.5l-60 -134 q-1 -2 -21 -7t-51 -10.5t-69 -9.5t-74 -4q-70 0 -111.5 19.5t-59.5 57.5l-1 -1q-15 -16 -36.5 -29.5t-47 -24t-54.5 -16.5t-58 -6q-64 0 -109 21.5t-70 58t-30 86.5t10 109z" />
<glyph unicode="&#x178;" horiz-adv-x="667" d="M74 0zM145 0l70 260q-109 21 -140.5 96t3.5 207l40 151h186l-44 -164q-9 -35 -10 -64t8.5 -50t30 -33t54.5 -12q68 0 108.5 45t58.5 114l44 164h186l-40 -151q-35 -132 -108 -207t-191 -96l-70 -260h-186zM469 772l33 125h150l-33 -125h-150zM290 897h149l-33 -125h-149z " />
<glyph unicode="&#x2c6;" horiz-adv-x="296" d="M188 575h-127l150 149h152l73 -149h-128l-39 80z" />
<glyph unicode="&#x2da;" horiz-adv-x="296" d="M239 560q-22 0 -39.5 8.5t-28 23.5t-13.5 34.5t3 40.5q6 22 19.5 41.5t32 34t40 23t43.5 8.5t39 -8.5t28 -22.5t14.5 -34t-2.5 -42t-19.5 -41.5t-32 -34t-40.5 -23t-44 -8.5zM254 615q22 0 41 15.5t25 36.5q6 23 -5.5 37.5t-33.5 14.5t-40.5 -14.5t-24.5 -37.5 q-6 -21 5 -36.5t33 -15.5z" />
<glyph unicode="&#x2dc;" horiz-adv-x="296" d="M476 714q-10 -26 -24.5 -49t-33.5 -40t-43 -27.5t-52 -10.5q-23 0 -41.5 5.5t-34.5 12.5q-17 7 -31.5 12.5t-28.5 5.5q-17 0 -32.5 -14t-23.5 -31h-70q10 24 25.5 48.5t36 44t44.5 31.5t51 12q20 0 38.5 -6t35.5 -14t32.5 -14.5t27.5 -6.5q17 0 31.5 13t21.5 28h71z" />
<glyph unicode="&#x2000;" horiz-adv-x="475" />
<glyph unicode="&#x2001;" horiz-adv-x="951" />
<glyph unicode="&#x2002;" horiz-adv-x="475" />
<glyph unicode="&#x2003;" horiz-adv-x="951" />
<glyph unicode="&#x2004;" horiz-adv-x="317" />
<glyph unicode="&#x2005;" horiz-adv-x="237" />
<glyph unicode="&#x2006;" horiz-adv-x="158" />
<glyph unicode="&#x2007;" horiz-adv-x="158" />
<glyph unicode="&#x2008;" horiz-adv-x="118" />
<glyph unicode="&#x2009;" horiz-adv-x="190" />
<glyph unicode="&#x200a;" horiz-adv-x="52" />
<glyph unicode="&#x2010;" horiz-adv-x="407" d="M28 200l39 144h311l-39 -144h-311z" />
<glyph unicode="&#x2011;" horiz-adv-x="407" d="M28 200l39 144h311l-39 -144h-311z" />
<glyph unicode="&#x2012;" horiz-adv-x="407" d="M28 200l39 144h311l-39 -144h-311z" />
<glyph unicode="&#x2013;" horiz-adv-x="500" d="M19 344h500l-39 -144h-499z" />
<glyph unicode="&#x2014;" horiz-adv-x="1000" d="M149 344h740l-39 -144h-740z" />
<glyph unicode="&#x2018;" horiz-adv-x="269" d="M258 540q9 0 13.5 -6.5t2.5 -16.5l-38 -140q-2 -10 -10.5 -16.5t-17.5 -6.5h-114q-9 0 -13.5 6.5t-2.5 16.5l38 142q13 49 37 84.5t53 59t60.5 36t60.5 15.5l-22 -80q-43 -11 -66 -36.5t-31 -57.5h50z" />
<glyph unicode="&#x2019;" horiz-adv-x="269" d="M146 528q-9 0 -13.5 6.5t-2.5 16.5l38 140q2 10 10.5 16.5t17.5 6.5h114q9 0 13.5 -6.5t2.5 -16.5l-38 -142q-14 -50 -37.5 -85t-52.5 -58.5t-60.5 -36t-60.5 -15.5l22 80q43 11 66 36.5t31 57.5h-50z" />
<glyph unicode="&#x201a;" horiz-adv-x="296" d="M90 0q-9 0 -13.5 6.5t-2.5 16.5l38 140q2 10 10.5 16.5t17.5 6.5h114q9 0 13.5 -6.5t2.5 -16.5l-38 -142q-14 -50 -37.5 -85t-52.5 -58.5t-60.5 -36t-60.5 -15.5l22 80q43 11 66 36.5t31 57.5h-50z" />
<glyph unicode="&#x201c;" horiz-adv-x="500" d="M489 540q9 0 13.5 -6.5t2.5 -16.5l-38 -140q-2 -10 -10.5 -16.5t-17.5 -6.5h-114q-9 0 -13.5 6.5t-2.5 16.5l38 142q13 49 37 84.5t53 59t60.5 36t60.5 15.5l-22 -80q-43 -11 -66 -36.5t-31 -57.5h50zM258 540q9 0 13.5 -6.5t2.5 -16.5l-38 -140q-2 -10 -10.5 -16.5 t-17.5 -6.5h-114q-9 0 -13.5 6.5t-2.5 16.5l38 142q13 49 37 84.5t53 59t60.5 36t60.5 15.5l-22 -80q-43 -11 -66 -36.5t-31 -57.5h50z" />
<glyph unicode="&#x201d;" horiz-adv-x="500" d="M146 528q-9 0 -13.5 6.5t-2.5 16.5l38 140q2 10 10.5 16.5t17.5 6.5h114q9 0 13.5 -6.5t2.5 -16.5l-38 -142q-14 -50 -37.5 -85t-52.5 -58.5t-60.5 -36t-60.5 -15.5l22 80q43 11 66 36.5t31 57.5h-50zM377 528q-9 0 -13.5 6.5t-2.5 16.5l38 140q2 10 10.5 16.5t17.5 6.5 h114q9 0 13.5 -6.5t2.5 -16.5l-38 -142q-14 -50 -37.5 -85t-52.5 -58.5t-60.5 -36t-60.5 -15.5l22 80q43 11 66 36.5t31 57.5h-50z" />
<glyph unicode="&#x201e;" horiz-adv-x="500" d="M75 0q-9 0 -13.5 6.5t-2.5 16.5l38 140q2 10 10.5 16.5t17.5 6.5h114q9 0 13.5 -6.5t2.5 -16.5l-38 -142q-14 -50 -37.5 -85t-52.5 -58.5t-60.5 -36t-60.5 -15.5l22 80q43 11 66 36.5t31 57.5h-50zM306 0q-9 0 -13.5 6.5t-2.5 16.5l38 140q2 10 10.5 16.5t17.5 6.5h114 q9 0 13.5 -6.5t2.5 -16.5l-38 -142q-14 -50 -37.5 -85t-52.5 -58.5t-60.5 -36t-60.5 -15.5l22 80q43 11 66 36.5t31 57.5h-50z" />
<glyph unicode="&#x2022;" horiz-adv-x="500" d="M72 357q10 37 32.5 69.5t53 56.5t66.5 38t73 14t66 -14t47 -38t23.5 -56.5t-4.5 -69.5t-33 -69.5t-53.5 -57t-67 -38.5t-73.5 -14t-66 14t-46.5 38.5t-22.5 57t5 69.5z" />
<glyph unicode="&#x2026;" horiz-adv-x="1000" d="M49 0l49 186h186l-49 -186h-186zM382 0l49 186h186l-49 -186h-186zM715 0l49 186h186l-49 -186h-186z" />
<glyph unicode="&#x202f;" horiz-adv-x="190" />
<glyph unicode="&#x2039;" horiz-adv-x="241" d="M61 346l193 128l-37 -137l-104 -67l69 -66l-37 -137l-125 127z" />
<glyph unicode="&#x203a;" horiz-adv-x="241" d="M179 195l-192 -128l36 137l104 67l-69 66l37 137l125 -127z" />
<glyph unicode="&#x205f;" horiz-adv-x="237" />
<glyph unicode="&#x20ac;" d="M-15 307h72q2 10 4.5 20.5t5.5 21.5q5 18 10 32h-73l22 82h84q28 56 65.5 101.5t82.5 77t97 48.5t108 17q45 0 77.5 -3.5t56.5 -9t41.5 -12.5t33.5 -13l-41 -154q-37 23 -85.5 41.5t-101.5 18.5t-97 -32t-76 -80h282l-54 -82h-268q-5 -10 -7.5 -18.5t-4.5 -18.5 q-3 -10 -4.5 -19t-3.5 -18h240l-54 -82h-190q6 -48 33 -78.5t81 -30.5q26 0 55 7t58 17.5t57 23t52 24.5l-41 -155q-20 -6 -41.5 -14.5t-49 -16t-62 -12.5t-79.5 -5q-112 0 -169 63t-54 177h-84z" />
<glyph unicode="&#x2122;" horiz-adv-x="1000" d="M415 619h-110l-85 -317h-125l85 317h-110l26 95h345zM705 475l153 239h156l-111 -412h-110l73 270h-2l-162 -270h-88l-16 270h-2l-73 -270h-110l111 412h156z" />
<glyph unicode="&#xe000;" horiz-adv-x="520" d="M0 520h520v-520h-520v520z" />
<glyph unicode="&#xfb01;" horiz-adv-x="661" d="M681 584h-170l35 130h170zM206 78q-16 -52 -40 -94t-54.5 -76t-66 -60.5t-74.5 -47.5l-91 105q53 28 96.5 73t62.5 113l84 318h-82l30 110h82q17 52 43 89t65.5 60.5t94 34.5t128.5 11l-31 -115q-54 0 -86 -15.5t-45 -64.5h342l-139 -519h-170l109 409h-171z" />
<glyph unicode="&#xfb02;" horiz-adv-x="672" d="M206 78q-16 -52 -40 -94t-54.5 -76t-66 -60.5t-74.5 -47.5l-91 105q53 28 96.5 73t62.5 113l84 318h-82l30 110h82q17 52 43 89t65.5 60.5t94 34.5t128.5 11h243l-191 -714h-170l160 599h-73q-54 0 -86 -15.5t-45 -64.5h103l-30 -110h-102z" />
<glyph d="M0 0z" />
</font>
</defs>
</svg>
