<?xml version="1.0" standalone="no"?>
<!DOCTYPE svg PUBLIC "-//W3C//DTD SVG 1.1//EN" "http://www.w3.org/Graphics/SVG/1.1/DTD/svg11.dtd" >
<svg xmlns="http://www.w3.org/2000/svg">
<metadata></metadata>
<defs>
<font id="eastmarketregular" horiz-adv-x="500" >
<font-face units-per-em="1000" ascent="800" descent="-200" />
<missing-glyph horiz-adv-x="333" />
<glyph horiz-adv-x="1000" />
<glyph horiz-adv-x="1000" />
<glyph unicode="&#xd;" horiz-adv-x="1000" />
<glyph unicode=" "  horiz-adv-x="333" />
<glyph unicode="&#x09;" horiz-adv-x="333" />
<glyph unicode="&#xa0;" horiz-adv-x="333" />
<glyph unicode="!" horiz-adv-x="278" d="M248 81q0 -36 -32 -61t-77 -25t-77 25t-32 61q0 35 32 60.5t77 25.5t77 -25.5t32 -60.5v0zM265 635q0 -39 -18 -118t-40 -173q-5 -24 -10.5 -48t-10.5 -48q0 -3 -0.5 -5.5t-1.5 -4.5h-90q-1 2 -1.5 4.5t-0.5 5.5q-5 21 -9.5 42.5t-9.5 41.5q-23 98 -41.5 180t-18.5 123 t37 71t89 30t89 -30t37 -71v0z" />
<glyph unicode="&#x22;" horiz-adv-x="479" d="M236 640q0 -61 -29.5 -101t-65.5 -64q-13 -8 -26 -15t-25 -12l-38 22l12.5 7t27.5 21q15 13 27.5 31.5t12.5 40.5q0 8 -7.5 12t-23.5 6q-6 1 -11.5 2.5t-11.5 3.5q-25 8 -46 28t-21 49q0 37 27.5 59.5t60.5 27.5q5 0 9 0.5t8 0.5q52 0 83.5 -33t35.5 -73q1 -3 1 -6.5 v-6.5v0zM466 640q0 -61 -29.5 -101t-65.5 -64q-13 -8 -26 -15t-25 -12l-38 22l12.5 7t27.5 21q15 13 27.5 31.5t12.5 40.5q0 8 -7.5 12t-23.5 6q-6 1 -11.5 2.5t-11.5 3.5q-25 8 -46 28t-21 49q0 37 27.5 59.5t60.5 27.5q5 0 9 0.5t8 0.5q52 0 83.5 -33t35.5 -73 q1 -3 1 -6.5v-6.5v0z" />
<glyph unicode="#" />
<glyph unicode="$" horiz-adv-x="342" d="M326 285q0 -47 -36 -85.5t-95 -70.5v-111h-59v84l-59 41q20 14 30.5 28.5t14.5 28.5q2 5 2.5 10t0.5 10q0 29 -18 57t-42 54q-26 29 -38 55t-12 50q1 44 35 81.5t86 69.5v117h59v-85q3 2 5.5 3t4.5 2q2 2 4.5 3t5.5 2l106 -71l-67 -44l-39 18q-7 -5 -11.5 -11.5 t-4.5 -15.5q0 -4 1 -9.5t3 -10.5q2 -4 4.5 -8.5t5.5 -8.5q6 -8 12.5 -15.5t13.5 -14.5q3 -4 6.5 -8t7.5 -8q27 -30 50 -62.5t23 -74.5v0z" />
<glyph unicode="%" />
<glyph unicode="&#x26;" horiz-adv-x="816" d="M779 278l-53 -35q-10 17 -22 23.5t-30 10.5q-7 2 -13 2.5t-12 0.5q-7 0 -13 -0.5t-12 -2.5q5 -15 8 -30.5t3 -31.5v-4v-4q-1 -2 -1 -4v-4q-2 -26 -11.5 -50t-26.5 -45l32 -50h47v-54h-221l-5 9q-22 -6 -46.5 -9t-50.5 -3q-9 0 -18 0.5t-18 1.5q-118 9 -198.5 79 t-80.5 159v4t1 4v3v4q5 59 45.5 105.5t102.5 71.5l-33 53q-16 26 -23.5 50t-7.5 46q0 68 63 107.5t148 39.5h8t8 -1q3 0 7 -0.5t8 -0.5q91 -7 136 -54.5t45 -109.5v-4v-4q-1 -2 -1 -4v-4q-1 -19 -8.5 -35t-18.5 -30h-129l1 9l1.5 1.5l1.5 1.5q11 11 21 27.5t12 35.5v4.5v4.5 q0 34 -20 59t-47 28h-1.5h-2.5q-4 0 -9 -1l-10 -2q-14 -5 -26.5 -17t-11.5 -29q0 -6 2 -12t6 -14l120 -194q5 -1 9 -2l8 -2q7 -1 13 -2t11 -1q17 0 31 4.5t27 10.5q3 1 5.5 2t5.5 3q17 7 35 13t41 6h3.5h3.5q1 -1 3 -1h3q62 -5 99 -42t56 -91v0zM415 63l-150 240 q-19 -19 -28.5 -43t-9.5 -50v-6t1 -6q4 -53 40.5 -97.5t91.5 -49.5h3.5h2.5q14 0 26 3t23 9v0zM564 159q0 51 -26 92.5t-69 60.5l95 -153v0z" />
<glyph unicode="'" horiz-adv-x="247" d="M236 640q0 -61 -29.5 -101t-65.5 -64q-13 -8 -26 -15t-25 -12l-38 22l12.5 7t27.5 21q15 13 27.5 31.5t12.5 40.5q0 8 -7.5 12t-23.5 6q-6 1 -11.5 2.5t-11.5 3.5q-25 8 -46 28t-21 49q0 37 27.5 59.5t60.5 27.5q5 0 9 0.5t8 0.5q52 0 83.5 -33t35.5 -73q1 -3 1 -6.5 v-6.5v0z" />
<glyph unicode="(" horiz-adv-x="314" d="M300 -150q-115 5 -200.5 103t-85.5 345q0 248 85.5 346t200.5 102v-57q-37 -12 -61 -98t-24 -293q0 -206 24 -293.5t61 -99.5v-55v0z" />
<glyph unicode=")" horiz-adv-x="314" d="M302 298q0 -247 -85 -345t-201 -102v53q37 13 61 100.5t24 293.5q0 207 -24 293t-61 98v57q116 -4 201 -102t85 -346v0z" />
<glyph unicode="*" horiz-adv-x="391" d="M373 542l-123 28l86 -92l-103 -60l-37 120l-37 -121l-104 60l86 91l-123 -27v119l123 -29l-87 94l104 60l36 -122l37 122l104 -60l-87 -93l125 29v-119v0z" />
<glyph unicode="+" />
<glyph unicode="," horiz-adv-x="247" d="M236 50q0 -60 -29.5 -100t-65.5 -64q-13 -8 -26 -15t-25 -12l-38 21q0 1 12.5 8t27.5 20q15 14 27.5 32t12.5 41q0 8 -7.5 12t-23.5 6q-6 1 -11.5 2t-11.5 3q-25 8 -46 28t-21 49q0 37 27.5 59.5t60.5 27.5q5 0 9 0.5t8 0.5q52 0 83.5 -33t35.5 -73q1 -3 1 -6.5v-6.5v0z " />
<glyph unicode="-" horiz-adv-x="241" d="M210 259h-179v59h179v-59v0z" />
<glyph unicode="." horiz-adv-x="278" d="M248 81q0 -36 -32 -61t-77 -25t-77 25t-32 61q0 35 32 60.5t77 25.5t77 -25.5t32 -60.5v0z" />
<glyph unicode="/" horiz-adv-x="300" d="M358 800l-330 -980h-78l330 980h78v0z" />
<glyph unicode="0" horiz-adv-x="559" d="M533 243q0 -128 -73.5 -187.5t-180.5 -59.5q-106 0 -180 59.5t-74 187.5t74 188.5t180 60.5q107 0 180.5 -60.5t73.5 -188.5v0zM330 243q0 79 -11 135t-40 56q-28 0 -39.5 -56t-11.5 -135t11.5 -134.5t39.5 -55.5q29 0 40 55.5t11 134.5v0z" />
<glyph unicode="1" horiz-adv-x="324" d="M309 0h-286v59h41v360h-49v64h253v-424h41v-59v0z" />
<glyph unicode="2" horiz-adv-x="462" d="M441 358v-4v-4q0 -46 -44.5 -90t-112.5 -76q-9 -4 -18.5 -9.5t-19.5 -11.5q-27 -17 -50 -39.5t-28 -45.5q0 -3 -0.5 -5.5t-0.5 -4.5v-2t1 -1v-2v-2h160l12 39h95v-100h-406q0 5 -1.5 12t-2.5 16q-1 10 -2.5 21.5t-1.5 24.5q0 26 8 56.5t33 61.5q6 6 12.5 13t13.5 14 q6 5 12 10.5t12 10.5q5 4 9.5 8t8.5 8q27 22 51.5 43.5t37.5 39.5q8 11 11.5 20t2.5 17q0 23 -23.5 35t-52.5 12h-6t-6 -1q-4 0 -7 -0.5t-6 -1.5l-13 -32h-93v78q2 0 4.5 0.5t4.5 1.5q3 1 6.5 1.5t6.5 1.5q17 3 35.5 6.5t39.5 5.5q17 2 33 2.5t32 0.5q105 0 176 -34t77 -94 v0z" />
<glyph unicode="3" horiz-adv-x="477" d="M455 38q0 -91 -88 -146.5t-215 -55.5q-35 0 -65 1.5t-55 5.5v65q6 0 12.5 -1t13.5 -1q7 -1 13.5 -1h12.5q53 0 98 24.5t53 88.5q1 5 1 10.5v9.5q0 55 -34.5 82.5t-76.5 38.5q-8 2 -17 3.5t-17 2.5v63q9 2 16.5 3.5t14.5 3.5q25 5 42 15.5t32 43.5q5 12 7.5 22.5t2.5 20.5 q-1 32 -23 53t-54 29l-16 -34h-91v96q22 3 47 4.5t53 1.5q127 0 210.5 -41.5t83.5 -118.5q0 -45 -39.5 -75t-89.5 -52q63 -20 115.5 -61.5t52.5 -100.5v0z" />
<glyph unicode="4" horiz-adv-x="601" d="M573 -165h-285v59h40v147h-301l150 440h228l-230 -376h153v149l204 64v-213h31v-64h-31v-147h41v-59v0z" />
<glyph unicode="5" horiz-adv-x="466" d="M445 79q0 -112 -88.5 -177.5t-215.5 -65.5q-35 0 -64.5 2t-55.5 6v57q14 -2 28 -3.5t28 -1.5h4h4q56 2 102.5 35t47.5 117q1 95 -57 138t-147 53v244h372v-61h-170v-133q17 -5 38 -11.5t42 -16.5q49 -23 90.5 -66.5t41.5 -115.5v0z" />
<glyph unicode="6" horiz-adv-x="551" d="M526 214q0 -112 -72.5 -165t-174.5 -53q-148 0 -201 84t-53 202q0 199 93.5 282t223.5 83h39.5t38.5 -1l1 -61q-4 1 -8.5 1.5t-8.5 0.5q-4 1 -8.5 1h-8.5q-23 0 -45 -6t-41 -18q-30 -19 -43 -52t-13 -72v-3.5v-4.5q4 0 8.5 0.5t8.5 0.5q4 1 8.5 1h8.5q102 0 174.5 -53.5 t72.5 -166.5v0zM330 213q0 66 -14.5 113.5t-39.5 47.5h-6t-5 -1q-8 -1 -15 -6t-12 -16q-1 -20 -2 -43.5t-1 -47.5q0 -16 0.5 -32t1.5 -32q0 -10 1 -29t3 -40q4 -28 11.5 -52t23.5 -24q26 0 40 47.5t14 114.5v0z" />
<glyph unicode="7" horiz-adv-x="532" d="M507 485l-150 -650h-233l250 586h-239l-20 -92h-91v156h483v0z" />
<glyph unicode="8" horiz-adv-x="562" d="M537 183q0 -79 -67.5 -135.5t-188.5 -56.5q-120 0 -187.5 56.5t-67.5 135.5q0 47 27.5 91.5t73.5 75.5q-37 26 -59.5 60.5t-22.5 72.5q0 70 65.5 119.5t171.5 49.5t172 -49.5t66 -119.5q0 -38 -23 -73t-61 -61q46 -31 73.5 -75t27.5 -91v0zM356 125v2.5v2.5v2.5v2.5 q0 18 -5.5 28.5t-12.5 19.5v0.5t-1 0.5q0 2 -1 3l-2 2q-6 9 -21 22.5t-33 27.5q-5 4 -9.5 7t-8.5 7q-18 13 -34 24t-27 18q-24 -32 -32.5 -59t-8.5 -50q0 -10 1.5 -20.5t2.5 -20.5q5 -33 34 -60t72 -29h1.5h1.5h0.5h1.5q36 0 58 21.5t23 47.5v0zM381 526q-6 26 -28 44.5 t-53 18.5q-24 0 -41 -13.5t-23 -29.5q-2 -4 -3 -8t-1 -8q0 -17 6 -27t12 -18l1.5 -1.5l1.5 -1.5q5 -5 19 -16t31 -23q2 -2 4.5 -3.5t4.5 -3.5q15 -10 28 -18.5t22 -13.5q15 23 20 42.5t5 36.5q0 11 -2 22t-4 21v0z" />
<glyph unicode="9" horiz-adv-x="551" d="M526 200q0 -198 -93.5 -281t-224.5 -83h-39.5t-38.5 2v59q4 0 8.5 -0.5t8.5 -0.5q4 -1 8.5 -1h8.5q23 0 44.5 6t40.5 18q31 20 44 52t13 71v4v4q-4 0 -8.5 -0.5t-8.5 -0.5h-9h-9q-101 0 -173.5 53.5t-72.5 165.5q0 113 72.5 166t173.5 53q149 0 202 -84.5t53 -202.5v0z M314 287q0 10 -1 29t-3 39q-4 29 -12 52.5t-24 23.5q-25 0 -39 -47t-14 -114t14.5 -114t38.5 -47h3.5h3.5q9 1 17.5 5t14.5 18q2 20 2.5 43.5t0.5 47.5q0 17 -0.5 32.5t-1.5 31.5v0z" />
<glyph unicode=":" horiz-adv-x="278" d="M248 81q0 -36 -32 -61t-77 -25t-77 25t-32 61q0 35 32 60.5t77 25.5t77 -25.5t32 -60.5v0zM248 321q0 -36 -32 -61.5t-77 -25.5t-77 25.5t-32 61.5q0 35 32 60.5t77 25.5t77 -25.5t32 -60.5v0z" />
<glyph unicode=";" horiz-adv-x="278" d="M256 50q0 -60 -29.5 -100t-65.5 -64q-13 -8 -26 -15t-25 -12l-38 21q0 1 12.5 8t27.5 20q15 14 27.5 32t12.5 41q0 8 -7.5 12t-23.5 6q-6 1 -11.5 2t-11.5 3q-25 8 -46 28t-21 49q0 37 27.5 59.5t60.5 27.5q5 0 9 0.5t8 0.5q52 0 83.5 -33t35.5 -73q1 -3 1 -6.5v-6.5v0z M248 321q0 -36 -32 -61.5t-77 -25.5t-77 25.5t-32 61.5q0 35 32 60.5t77 25.5t77 -25.5t32 -60.5v0z" />
<glyph unicode="&#x3c;" horiz-adv-x="400" d="M379 111l-375 217v57l375 217v-92l-250 -154l250 -154v-91v0z" />
<glyph unicode="=" />
<glyph unicode="&#x3e;" horiz-adv-x="400" d="M381 328l-375 -217v91l251 154l-251 154v92l375 -217v-57v0z" />
<glyph unicode="?" horiz-adv-x="520" d="M319 81q0 -36 -32 -61t-77 -25t-77 25t-32 61q0 35 32 60.5t77 25.5t77 -25.5t32 -60.5v0zM497 546q0 -56 -36.5 -92t-80.5 -66q-6 -4 -11.5 -7.5t-11.5 -7.5q-38 -26 -66 -53.5t-28 -67.5v-7.5t1 -8.5h-97q-6 23 -11 42t-5 38q0 25 12 52t45 64q6 7 12 13.5t11 13.5 l8 10t8 11q5 7 10 15.5t10 18.5q7 14 10 27t3 25q0 47 -42.5 73.5t-100.5 26.5h-5h-6l-11 -49h-91v94q9 1 19 3t21 4t23 4.5t23 3.5q5 0 9.5 0.5t9.5 0.5q12 1 23.5 1h22.5q142 0 232 -47t90 -135v0z" />
<glyph unicode="@" horiz-adv-x="850" d="M812 353q0 -84 -54.5 -144.5t-139.5 -60.5q-37 0 -71.5 13.5t-60.5 37.5q-24 -21 -62.5 -35.5t-79.5 -16.5q-6 -1 -11.5 -1h-10.5q-58 0 -103 27.5t-46 91.5q-1 80 61 129t136 72q29 8 56.5 13t51.5 6q2 9 3 16.5t1 13.5q0 23 -14 32.5t-43 10.5h-4h-4q-2 -1 -4 -1h-4 l-21 -36h-87l17 78q27 7 57 12t61 6h9.5h8.5q80 0 144 -31t63 -108q0 -9 -1 -18t-3 -20q-3 -13 -6 -26.5t-6 -27.5q-6 -27 -11.5 -54t-9.5 -54v-2v-2q-1 -1 -1 -2v-2q1 -21 16 -34t33 -12q7 0 13.5 2t12.5 6q29 20 42 53t13 68q0 160 -88 248.5t-237 88.5 q-136 0 -233.5 -96.5t-97.5 -233.5q0 -136 97.5 -233.5t233.5 -97.5q68 0 128 26t105 71q6 5 12 7.5t11 2.5q12 0 20.5 -8.5t8.5 -20.5q0 -3 -0.5 -5.5t-2.5 -5.5q-1 -3 -3 -5.5t-5 -5.5q-52 -53 -123 -83t-151 -30q-161 0 -275 113.5t-114 274.5t114 275t275 114 q176 0 280 -105t104 -291v0zM466 427q-28 -7 -52.5 -30t-38.5 -60q-9 -24 -14.5 -44.5t-5.5 -36.5q1 -16 6.5 -26.5t18.5 -13.5h1.5h1.5q1 -1 1.5 -1h0.5q4 0 8.5 1t8.5 4q7 4 13.5 10.5t12.5 16.5q9 45 18.5 90t19.5 90v0z" />
<glyph unicode="A" horiz-adv-x="665" d="M645 0h-250v259h-125v-259h-250v64h35v195h-34v61h34v209q0 84 81 143t196 59q116 0 197 -59t81 -143v-465h35v-64v0zM395 320v274v4v4q-3 27 -19.5 49t-43.5 22t-43 -22t-19 -49v-4v-4v-274h125v0z" />
<glyph unicode="B" horiz-adv-x="616" d="M591 227q0 -98 -73.5 -150t-161.5 -69q-23 -4 -46 -6t-45 -2h-250v64h34v594h-34v64h225q15 0 60 -5t96 -20q61 -18 111.5 -55.5t50.5 -104.5q0 -39 -21.5 -70.5t-63.5 -53.5q54 -29 86 -73.5t32 -112.5v0zM377 212q0 68 -17 107t-46 56q-12 -1 -24 -1h-25v-308 q47 4 79.5 37t32.5 109v0zM350 548q0 7 -1 15.5t-3 16.5q-7 29 -27 53.5t-52 23.5h-0.5h-0.5h-0.5h-0.5v-219h1.5h1.5q37 0 56.5 27.5t24.5 60.5q0 6 0.5 11.5t0.5 10.5v0z" />
<glyph unicode="C" horiz-adv-x="488" d="M474 615h-91l-15 48h-2t-2 1h-3h-2q-43 0 -66 -51t-32 -112q-7 -39 -9 -75.5t-3 -59.5q0 -23 0.5 -48t3.5 -51q8 -80 42.5 -146.5t121.5 -65.5q13 0 26.5 1.5t28.5 5.5v-57q-24 -4 -51 -6.5t-57 -2.5q-188 0 -265.5 99.5t-78.5 276.5q-1 162 82.5 258.5t261.5 96.5 q31 0 58 -2t52 -7v-103v0z" />
<glyph unicode="D" horiz-adv-x="625" d="M599 361q0 -205 -102 -283t-238 -78h-241v64h34v594h-34v64h242q136 0 237.5 -78t101.5 -283v0zM371 361q0 173 -29.5 231t-73.5 65v-595q44 8 73.5 67.5t29.5 231.5v0z" />
<glyph unicode="E" horiz-adv-x="521" d="M503 0h-296q-64 0 -111 46.5t-47 111.5v101h-36v59h36v246q0 65 47 111.5t111 46.5h281v-104h-80l-12 43h-70q-25 0 -43.5 -18.5t-18.5 -44.5v-280h165v-59h-165v-135q0 -26 18.5 -44.5t43.5 -18.5h85l12 43h80v-104v0z" />
<glyph unicode="F" horiz-adv-x="527" d="M505 571h-81l-13 90h-85q-25 0 -43.5 -18.5t-18.5 -44.5v-280h165v-59h-165v-195h33v-64h-281v64h33v195h-35v59h35v246q0 65 47 111.5t112 46.5h297v-151v0z" />
<glyph unicode="G" horiz-adv-x="626" d="M605 44q-52 -32 -109 -39.5t-116 -8.5h-10.5h-10.5q-187 0 -264.5 99.5t-79.5 276.5q-1 177 98 266t295 89q25 0 47.5 -3t43.5 -7l10 -2l10 -2v-98h-91l-15 48h-3t-3 1h-3.5h-3.5q-61 0 -93.5 -51t-45.5 -112q-9 -39 -12.5 -75.5t-3.5 -59.5q0 -24 0.5 -50t3.5 -53 q7 -76 37.5 -140t104.5 -70v238q0 23 -14.5 34.5t-39.5 11.5v58h81q77 0 132 -52.5t55 -129.5v-169v0z" />
<glyph unicode="H" horiz-adv-x="676" d="M652 0h-250v259h-134v-259h-250v64h34v195h-34v61h34v338h-34v64h250v-402h134v402h250v-64h-34v-594h34v-64v0z" />
<glyph unicode="I" horiz-adv-x="308" d="M294 0h-280v64h34v594h-34v64h280v-64h-30v-594h30v-64v0z" />
<glyph unicode="J" horiz-adv-x="390" d="M371 656h-33v-589q0 -95 -68 -163t-164 -68l-102 -1v63q2 1 4 1h4q45 1 82 19.5t37 75.5v662h-35v66h275v-66v0z" />
<glyph unicode="K" horiz-adv-x="637" d="M621 0h-232q-10 60 -41.5 111t-78.5 85v-196h-250v64h34v594h-34v64h250v-379q3 0 6 -0.5t6 -1.5t6 -1.5t6 -0.5l188 383h119v-64h-35l-175 -355q71 -37 123 -99t75 -140h33v-64v0z" />
<glyph unicode="L" horiz-adv-x="534" d="M509 0h-498v64h34v594h-34v64h280v-64h-30v-594h127l30 112h91v-176v0z" />
<glyph unicode="M" horiz-adv-x="990" d="M975 0h-250v594v4v4q-3 27 -19 49t-43 22t-43.5 -22t-19.5 -49v-4v-4v-594h-210v594v4v4q-3 27 -19.5 49t-43.5 22t-43 -22t-19 -49v-4v-4v-594h-250v64h34v465q0 84 81.5 143t196.5 59q47 0 90 -10.5t78 -30.5q35 20 78 30.5t90 10.5q115 0 196.5 -59t81.5 -143v-465h34 v-64v0z" />
<glyph unicode="N" horiz-adv-x="662" d="M645 0h-259v587q0 24 -17 41t-41 17q-27 0 -44.5 -19t-17.5 -45v-581h-252v62h37v596h-37v64h252v-52q25 23 59 36t70 15h5h4q83 0 142 -59t59 -142v-463h40v-57v0z" />
<glyph unicode="O" horiz-adv-x="630" d="M611 363q0 -181 -72 -274t-224 -93t-224 93t-72 274q0 182 72 275t224 93t224 -93t72 -275v0zM379 363q0 127 -9.5 217t-54.5 90t-54.5 -90t-9.5 -217t9.5 -217t54.5 -90t54.5 90t9.5 217v0z" />
<glyph unicode="P" horiz-adv-x="596" d="M583 484q0 -97 -94 -174.5t-225 -97.5v-148h31v-64h-281v64h35v594h-35v64h236q137 0 235 -68.5t98 -169.5v0zM350 436q5 20 6.5 38t1.5 35q0 57 -19 96.5t-49 48.5q-3 1 -6 1.5t-6 0.5h-3.5t-3.5 -1q-2 0 -3.5 -0.5t-3.5 -0.5v-382q28 21 51 64.5t35 99.5v0z" />
<glyph unicode="Q" horiz-adv-x="634" d="M612 363q0 -151 -49 -240.5t-153 -116.5v-13q0 -56 37 -74.5t82 -19.5h4h4v-64h-102q-80 1 -142 50.5t-82 123.5q-97 29 -144 118.5t-47 235.5q0 182 72 275t224 93t224 -93t72 -275v0zM380 363q0 127 -9.5 217t-54.5 90t-54.5 -90t-9.5 -217t9.5 -217t54.5 -90t54.5 90 t9.5 217v0z" />
<glyph unicode="R" horiz-adv-x="604" d="M597 0h-217q-12 73 -41 124t-78 76v-200h-250v64h35v594h-35v64h236q137 0 235 -68.5t98 -169.5q0 -64 -43 -121.5t-113 -96.5q56 -37 88.5 -89t50.5 -113h34v-64v0zM347 436q5 20 6.5 38t1.5 35q0 57 -19 96.5t-49 48.5q-3 1 -6 1.5t-6 0.5h-3.5t-3.5 -1q-2 0 -3.5 -0.5 t-3.5 -0.5v-382q27 21 50.5 64.5t35.5 99.5v0z" />
<glyph unicode="S" horiz-adv-x="402" d="M384 243q0 -84 -64.5 -148.5t-189.5 -116.5l-69 45q58 31 81.5 68t23.5 75q0 42 -22 83t-52 75q-43 49 -61.5 92t-18.5 81q0 80 68 140t161 108l133 -88l-66 -44l-45 19q-15 -11 -21 -27.5t-6 -33.5v-3.5v-2.5q1 -22 8.5 -42t17.5 -33q15 -20 30 -38.5t28 -35.5 q27 -36 45 -75.5t19 -97.5v0z" />
<glyph unicode="T" horiz-adv-x="637" d="M631 546h-91l-30 112h-78v-594h31v-64h-1h-281v64h31v594h-78l-30 -112h-91v176h309.5h308.5v-176v0z" />
<glyph unicode="U" horiz-adv-x="662" d="M652 658h-34v-439q0 -92 -83 -157.5t-200 -65.5t-200 65.5t-83 157.5v439h-34v64h250v-602q0 -28 18.5 -47.5t46.5 -19.5t47.5 19.5t19.5 47.5v602h252v-64v0z" />
<glyph unicode="V" horiz-adv-x="609" d="M639 658h-34l-196 -658h-169l-201 663h-36v59h225l142 -472l143 472h126v-64v0z" />
<glyph unicode="W" horiz-adv-x="930" d="M977 658h-35l-195 -658h-170l-82 271l-80 -271h-169l-201 663h-37v59h225l143 -472l63 208l-62 205h-37v59h225l143 -472l142 472h127v-64v0z" />
<glyph unicode="X" horiz-adv-x="595" d="M578 0h-221l-105 230l-120 -230h-125v64h34l157 286l-140 308h-35v64h229l87 -199l103 199h126v-64h-34l-142 -257l149 -342h37v-59v0z" />
<glyph unicode="Y" horiz-adv-x="661" d="M648 658h-48v-410q0 -103 -73 -175.5t-176 -72.5l-244 -1v147h91l30 -79h51q42 0 75.5 30.5t33.5 71.5l-1 114q-27 -24 -61.5 -38t-73.5 -14q-85 0 -144.5 56.5t-59.5 147.5v223h-41v64h243v-355q0 -21 18 -37.5t39 -20.5q3 0 6 -0.5t6 -0.5q28 0 48 20t20 45v349h261 v-64v0z" />
<glyph unicode="Z" horiz-adv-x="518" d="M502 722l-248 -655h137l12 40h98v-107h-490l237 655h-111l-12 -40h-93v107h470v0z" />
<glyph unicode="[" horiz-adv-x="265" d="M253 -147h-241v903h241v-64h-79v-776h79v-63v0z" />
<glyph unicode="\" horiz-adv-x="300" d="M369 -180h-78l-330 980h78l330 -980v0z" />
<glyph unicode="]" horiz-adv-x="265" d="M258 -147h-241v63h79v776h-79v64h241v-903v0z" />
<glyph unicode="^" horiz-adv-x="300" d="M313 647h-95l-62 64l-61 -64h-95l142 152h29l142 -152v0z" />
<glyph unicode="_" horiz-adv-x="800" d="M815 -103h-830v76h830v-76v0z" />
<glyph unicode="`" horiz-adv-x="391" d="M326 668l-48 -32l-211 101l110 64l149 -133v0z" />
<glyph unicode="a" horiz-adv-x="559" d="M534 0h-219v35l-56 -37q-8 0 -16.5 -0.5t-16.5 -0.5q-71 1 -126.5 32.5t-69.5 91.5q-2 10 -3 19.5t-1 18.5q0 73 59 117t130 62q22 6 44 9t42 4q0 42 -16 59t-54 17h-9t-10 -1l-13 -37h-92v82q30 9 66 14t73 5h5.5h5.5q91 -2 166 -43.5t75 -141.5v-246h36v-59v0zM301 103 v188q-28 -7 -48.5 -31.5t-27.5 -63.5q-3 -14 -4 -27.5t-1 -25.5q0 -29 9 -48.5t28 -24.5h1.5h1.5q1 -1 1.5 -1h1.5q2 0 3.5 0.5t2.5 0.5q9 2 17.5 10t14.5 23v0z" />
<glyph unicode="b" horiz-adv-x="600" d="M546 109q-31 -56 -90.5 -85.5t-129.5 -29.5h-5.5h-5.5t-5.5 0.5t-5.5 0.5l-41 26v-21h-236v59h37v599h-35v64h234v-241q19 -1 38.5 -4t39.5 -8q19 -5 38.5 -12.5t38.5 -16.5q71 -34 111 -93t44 -123v-6v-6q0 -27 -6.5 -53t-20.5 -50v0zM359 271q-14 60 -37 100.5 t-59 47.5v-326q11 -11 21.5 -17t23.5 -6h4.5t4.5 1q25 6 38.5 39.5t13.5 79.5q0 19 -2.5 39.5t-7.5 41.5v0z" />
<glyph unicode="c" horiz-adv-x="462" d="M441 3q-25 -3 -55 -5t-65 -2q-127 0 -213.5 66.5t-86.5 180.5q0 115 86.5 179.5t213.5 64.5q28 0 53 -2t47 -7v-94h-91l-13 38q-37 -7 -56.5 -51t-19.5 -109q0 -4 0.5 -7.5t0.5 -7.5q0 -8 0.5 -16t1.5 -16q8 -88 53 -123.5t100 -35.5h2.5h2.5h2.5h2.5q9 0 18 1.5t16 2.5 v-57v0z" />
<glyph unicode="d" horiz-adv-x="600" d="M573 0h-236v21l-41 -27q-3 1 -6 0.5t-5 -0.5h-6h-6q-69 0 -128 29.5t-91 85.5q-13 25 -20 51t-7 52q0 68 40.5 130t114.5 98q19 9 38.5 16.5t39.5 12.5q19 5 38.5 8t38.5 4v177h-34v64h233v-663h37v-59v0zM337 93v326q-36 -7 -59 -47.5t-37 -100.5q-5 -21 -7.5 -41.5 t-2.5 -40.5q0 -46 13.5 -79t38.5 -39q1 0 2.5 -0.5t2.5 -0.5h2.5h2.5q12 0 23 6t21 17v0z" />
<glyph unicode="e" horiz-adv-x="538" d="M505 376q5 -12 7 -24t2 -25q-1 -54 -43.5 -102t-125.5 -68q-13 -3 -25.5 -6t-24.5 -5q-5 -1 -9 -2t-8 -1q-8 -2 -16.5 -3.5t-17.5 -3.5q8 -43 43 -61t75 -19h3.5h3.5q16 0 31.5 2t28.5 6v-57q-23 -6 -48 -8.5t-51 -2.5q-136 0 -221 59.5t-85 187.5q0 114 67 181t199 67 q15 0 30.5 -1.5t31.5 -4.5q49 -9 92.5 -35t60.5 -74v0zM317 309q0 4 0.5 7.5t0.5 7.5q1 3 1 6.5v7.5q0 37 -10 64t-27 29h-1.5h-1.5h-3t-3 -1q-8 -1 -15 -7t-12 -18q-11 -28 -14 -60.5t-4 -69.5q0 -4 0.5 -15t1.5 -22v-5.5v-4.5q1 -9 1.5 -16.5t0.5 -11.5q40 4 59.5 35 t24.5 68q0 1 0.5 2.5t0.5 3.5v0z" />
<glyph unicode="f" horiz-adv-x="391" d="M373 662h-31q-37 0 -64 -12.5t-27 -50.5v-116h111v-62h-111v-357h34v-64h-267v64h34v357h-34v62h34v46q0 110 65.5 151.5t157.5 41.5h98v-60v0z" />
<glyph unicode="g" horiz-adv-x="563" d="M555 532q-6 -20 -22.5 -30.5t-35.5 -13.5q-4 0 -8.5 -0.5t-8.5 -0.5h-3.5h-3.5t-3.5 0.5t-3.5 0.5q-4 1 -7.5 1h-5.5q-6 0 -9.5 -1.5t-4.5 -6.5q-1 -4 -2 -8.5t-1 -9.5q1 -10 4 -19t7 -17q29 -25 44.5 -59t15.5 -72q0 -64 -44 -113t-124 -69q-9 -3 -16 -10t-11 -14l-2 -6 l-2 -6q0 -1 -0.5 -2.5t-0.5 -2.5v-2.5v-2.5q0 -15 8.5 -27t20.5 -24l2.5 -2.5t3.5 -2.5q12 -12 23 -26.5t11 -34.5q0 -44 -44 -74t-113 -46l-53 35q5 3 9 5t7 4q12 7 17 14t7 17q1 3 1 5.5v4.5q0 20 -14 35t-32 29l-2 2l-2 2q-19 15 -35 31.5t-16 39.5q0 20 12.5 36.5 t34.5 28.5q-70 22 -107 69.5t-37 106.5q0 79 65 135t184 56q34 0 63.5 -5t54.5 -14q-4 11 -6 23.5t-2 25.5q0 10 1.5 20.5t4.5 21.5q8 28 32.5 48.5t58.5 20.5q7 0 14 -1t14 -3q25 -7 45 -27.5t20 -47.5q0 -4 -0.5 -8t-2.5 -9v0zM306 296q0 55 -10.5 93.5t-37.5 38.5 t-37 -38.5t-10 -93.5q0 -54 10 -92.5t37 -38.5t37.5 38.5t10.5 92.5v0z" />
<glyph unicode="h" horiz-adv-x="596" d="M585 0h-236v360q0 22 -15 37t-37 15q-25 0 -39 -17.5t-14 -40.5v-354h-233v64h34v594h-34v64h233v-287q25 22 56 34.5t66 12.5q75 0 129 -54t54 -129v-240h36v-59v0z" />
<glyph unicode="i" horiz-adv-x="290" d="M272 0h-235v419h-35v64h234v-424h36v-59v0zM248 640q0 -36 -32 -61.5t-77 -25.5t-77 25.5t-32 61.5t32 61.5t77 25.5t77 -25.5t32 -61.5v0z" />
<glyph unicode="j" horiz-adv-x="342" d="M319 58q0 -91 -65 -156.5t-157 -65.5l-98 -1v61h30q38 1 65 27.5t27 64.5v431h-34v64h232v-425v0zM330 640q0 -36 -32 -61.5t-77 -25.5t-77 25.5t-32 61.5t32 61.5t77 25.5t77 -25.5t32 -61.5v0z" />
<glyph unicode="k" horiz-adv-x="609" d="M594 0h-232q-10 59 -40 108.5t-75 83.5v-192h-233v64h34v594h-34v64h233v-437l159 198h115v-64h-34l-104 -127q63 -38 109.5 -97t67.5 -131h34v-64v0z" />
<glyph unicode="l" horiz-adv-x="297" d="M283 0h-235v658h-35v64h234v-663h36v-59v0z" />
<glyph unicode="m" horiz-adv-x="906" d="M895 0h-235v360q0 22 -14.5 37t-38.5 15q-23 0 -37.5 -17.5t-14.5 -40.5v-354h-202v360q0 22 -15 37t-37 15q-25 0 -38.5 -17.5t-13.5 -40.5v-354h-234v64h34v355h-34v64h234v-48q24 22 55 34.5t66 12.5q26 0 51 -7.5t46 -20.5q23 17 57.5 22.5t82.5 5.5 q113 0 182.5 -48.5t69.5 -134.5v-240h36v-59v0z" />
<glyph unicode="n" horiz-adv-x="614" d="M589 0h-236v360q0 22 -15 37t-37 15q-25 0 -39 -17.5t-14 -40.5v-354h-233v64h34v355h-34v64h233v-48q25 22 56 34.5t66 12.5q75 0 129 -54t54 -129v-240h36v-59v0z" />
<glyph unicode="o" horiz-adv-x="541" d="M522 243q0 -128 -73.5 -187.5t-180.5 -59.5q-106 0 -180 59.5t-74 187.5t74 188t180 60q107 0 180.5 -60t73.5 -188v0zM319 243q0 79 -11 135t-40 56q-28 0 -39.5 -56t-11.5 -135t11.5 -134.5t39.5 -55.5q29 0 40 55.5t11 134.5v0z" />
<glyph unicode="p" horiz-adv-x="578" d="M532 373q14 -25 20.5 -51t6.5 -52v-3.5v-2.5q-2 -66 -42.5 -126t-112.5 -96q-19 -9 -38.5 -16t-38.5 -12q-20 -5 -39.5 -8t-38.5 -4v-103h34v-64h-268v64h35v525h-37v59h236v-21l41 27h5.5t4.5 1h4.5h5.5q71 -1 131 -30.5t91 -86.5v0zM345 211q1 5 2.5 10.5t2.5 10.5 q2 16 3.5 31.5t1.5 30.5q0 46 -13.5 78.5t-38.5 38.5q-3 1 -6 1h-6q-11 0 -21.5 -6t-20.5 -17v-326q36 8 59 48t37 100v0z" />
<glyph unicode="q" horiz-adv-x="582" d="M562 424h-37v-525h35v-64h-234v167q-19 1 -38.5 4t-38.5 8q-20 5 -39.5 12t-38.5 16q-74 37 -114.5 99.5t-40.5 129.5q0 26 7 52t20 50q32 57 92.5 87t130.5 30h4.5h5.5q2 -1 4.5 -1h4.5l41 -27v21h236v-59v0zM326 63v326q-10 11 -20.5 17.5t-22.5 5.5h-2.5h-2.5 q-2 0 -3 -0.5t-3 -0.5q-25 -6 -38.5 -39t-13.5 -80q0 -19 2.5 -39.5t7.5 -41.5q14 -60 37 -100t59 -48v0z" />
<glyph unicode="r" horiz-adv-x="444" d="M424 364h-91l-13 38q-1 0 -2.5 -0.5t-2.5 -0.5q-23 -7 -42 -31t-19 -59v-252h36v-59h-236v419h-34v64h234v-27q29 15 59.5 23t63.5 8q11 0 23 -1t24 -3v-119v0z" />
<glyph unicode="s" horiz-adv-x="342" d="M326 161q0 -57 -52.5 -102.5t-135.5 -80.5l-61 41q20 14 30.5 28.5t14.5 28.5q2 5 2.5 10t0.5 10q0 29 -18 57t-42 54q-26 29 -38 55t-11 50q0 59 59.5 107t139.5 87l106 -71l-67 -44l-39 17q-7 -4 -11.5 -10.5t-4.5 -15.5q0 -4 1 -9.5t3 -10.5t4.5 -9.5t5.5 -8.5 q4 -5 9 -10.5t9 -11.5q6 -6 11.5 -12t10.5 -12q27 -29 50 -62t23 -75v0z" />
<glyph unicode="t" horiz-adv-x="394" d="M374 0h-98q-92 0 -157.5 43.5t-65.5 134.5v249h-37v61h2.5h3.5h1h2h1.5h0.5q52 0 91 40.5t46 98.5h88v-139h109v-61h-109v-300q0 -37 27 -52t64 -15h31v-60v0z" />
<glyph unicode="u" horiz-adv-x="607" d="M592 0h-234v47q-24 -22 -55 -34t-66 -12q-76 0 -129.5 53.5t-53.5 129.5v240h-36v59h235v-360q0 -22 15.5 -37.5t37.5 -15.5q25 0 38.5 17.5t13.5 40.5v355h234v-64h-34v-355h34v-64v0z" />
<glyph unicode="v" horiz-adv-x="533" d="M525 419h-35l-167 -419h-120l-163 424h-36v59h206l99 -263l97 263h119v-64v0z" />
<glyph unicode="w" horiz-adv-x="893" d="M883 424h-36v-240q0 -87 -70 -137t-182 -50q-10 0 -19.5 0.5t-19.5 0.5q-29 2 -57.5 9.5t-51.5 26.5q-34 -24 -70.5 -30.5t-77.5 -6.5q-112 0 -182 50t-70 137v240h-36v59h235v-360q0 -22 14.5 -37.5t38.5 -15.5q23 0 37.5 17.5t14.5 40.5v355h96h95v-355q0 -23 15 -40.5 t38 -17.5t37.5 15.5t14.5 37.5v360h236v-59v0z" />
<glyph unicode="x" horiz-adv-x="525" d="M498 0h-216l-75 134l-94 -134h-103v59h37l111 163l-111 197h-34v64h214l69 -124l91 124h101v-64h-34l-110 -148l118 -212h36v-59v0z" />
<glyph unicode="y" horiz-adv-x="596" d="M578 419h-35v-361q0 -91 -65 -156.5t-157 -65.5l-98 -1v60h30q38 1 65 28t27 65l-1 123q-24 -22 -55 -34t-66 -12q-76 0 -129.5 53.5t-53.5 129.5v176h-36v59h235v-297q0 -21 15.5 -36.5t37.5 -15.5q25 0 38.5 17.5t13.5 40.5v291h234v-64v0z" />
<glyph unicode="z" horiz-adv-x="473" d="M451 0h-430l183 418h-68l-13 -38h-94v103h406l-188 -419h98l12 39h94v-103v0z" />
<glyph unicode="{" horiz-adv-x="416" d="M399 -149h-35q-126 1 -170.5 45t-44.5 154v104q0 59 -25.5 83t-111.5 31v85q86 8 111.5 31.5t25.5 82.5v104q0 111 44.5 155t170.5 44h35v-85q-79 -1 -99.5 -23t-20.5 -76v-70q0 -82 -14 -131t-61 -75q47 -26 61 -75t14 -131v-70q0 -53 20.5 -74.5t99.5 -22.5v-86v0z" />
<glyph unicode="|" horiz-adv-x="168" d="M153 -266h-122v1060h122v-1060v0z" />
<glyph unicode="}" horiz-adv-x="419" d="M408 268q-85 -7 -111 -31t-26 -83v-104q0 -110 -45 -154t-170 -44l-35 -1v85q79 2 99.5 23.5t20.5 74.5v70q0 82 14.5 131t60.5 75q-46 26 -60.5 75t-14.5 131v70q0 54 -20.5 76t-99.5 23v85h35q125 0 170 -44t45 -155v-104q0 -59 25.5 -82.5t111.5 -31.5v-85v0z" />
<glyph unicode="~" horiz-adv-x="485" d="M485 352q-36 -45 -74 -62.5t-82 -17.5q-29 0 -51 11t-41 24q-4 2 -7.5 4t-6.5 5q-16 10 -32 17.5t-36 7.5q-25 0 -49.5 -10t-47.5 -39l-55 86q34 43 72 59.5t81 16.5q30 0 51.5 -10.5t41.5 -22.5q3 -3 6.5 -5t7.5 -5q15 -10 31 -17t36 -7q19 0 37 5.5t36 19.5 q6 5 12 11.5t12 13.5l58 -85v0z" />
<glyph unicode="&#xa1;" horiz-adv-x="278" d="M265 -93q0 -40 -36.5 -70t-89.5 -30q-52 0 -89 30t-37 71q0 39 18 117.5t40 172.5q5 24 10.5 48t10.5 48q0 3 0.5 5.5t1.5 4.5h90q1 -2 1.5 -4.5t0.5 -5.5q5 -21 9.5 -42.5t9.5 -41.5q23 -98 41.5 -179.5t18.5 -122.5v-1zM248 461q0 -35 -32 -60.5t-77 -25.5t-77 25.5 t-32 60.5q0 36 32 61.5t77 25.5t77 -25.5t32 -61.5v0z" />
<glyph unicode="&#xa2;" horiz-adv-x="462" d="M441 109q-24 -4 -52.5 -6t-61.5 -2v-83h-58v86q-108 14 -178 78.5t-70 166.5q0 103 70 165.5t178 75.5v114h58v-111q26 -1 49.5 -3t44.5 -6v-94h-91l-13 38q-37 -7 -56.5 -51t-19.5 -109q0 -4 0.5 -7.5t0.5 -7.5q0 -8 0.5 -16t1.5 -17q8 -88 53 -123t100 -35h2.5h2.5h2.5 h2.5q9 0 18 1.5t16 2.5v-57v0z" />
<glyph unicode="&#xa3;" horiz-adv-x="577" d="M551 644q0 -25 -24 -42.5t-58 -17.5q-6 0 -12 1.5t-12 3.5q-22 8 -40 27t-18 43v0v1v0v0q-45 -4 -65.5 -56t-27.5 -113q-5 -42 -6 -81t-1 -62v-4v-4h175v-59h-175v-46q0 -17 -4 -35.5t-10 -36.5q-3 -11 -7.5 -22t-8.5 -22q-5 -14 -10.5 -28t-9.5 -27h176l31 114h96v-178 h-514v64h51v217h-51v59h51q0 173 66 274.5t191 107.5h11h13q16 0 36 -1t40 -4q44 -5 80.5 -21.5t36.5 -51.5v0z" />
<glyph unicode="&#xa4;" horiz-adv-x="529" d="M505 453l-49 -62h-145v-59h135l-49 -62h-86v-111q0 -22 15.5 -37t37.5 -15h59l11 36h68v-89h-239q-55 0 -94.5 40t-39.5 95v81h-105l49 62h56v59h-105l49 62h56v81q0 56 39.5 95t94.5 39h239v-89h-68l-11 37h-59q-22 0 -37.5 -15.5t-15.5 -37.5v-110h194v0z" />
<glyph unicode="&#xa5;" horiz-adv-x="665" d="M635 658h-34l-107 -233h76v-62h-105l-26 -59h131v-62h-137v-183h41v-59h-285v59h40v183h-140v62h125l-24 59h-101v62h76l-98 238h-37v59h221l128 -312l145 312h111v-64v0z" />
<glyph unicode="&#xa6;" />
<glyph unicode="&#xa7;" />
<glyph unicode="&#xa8;" horiz-adv-x="234" d="M101 721q0 -17 -12 -29t-29 -12t-29 12t-12 29t12 29t29 12t29 -12t12 -29v0zM213 721q0 -17 -12 -29t-29 -12t-29 12t-12 29t12 29t29 12t29 -12t12 -29v0z" />
<glyph unicode="&#xa9;" horiz-adv-x="577" d="M551 359q0 -109 -77 -185.5t-185 -76.5q-109 0 -186 77t-77 185t77 185t186 77q108 0 185 -77t77 -185v0zM518 359q0 95 -67 162.5t-162 67.5t-162.5 -67.5t-67.5 -162.5q0 -94 67.5 -162t162.5 -68t162 67.5t67 162.5v0zM420 227q-25 -25 -56.5 -38.5t-63.5 -15.5h-6h-6 q-36 0 -70 13.5t-61 40.5q-27 28 -40.5 62.5t-13.5 70.5v5.5v5.5q2 32 15.5 63.5t38.5 56.5q27 27 61.5 40.5t70.5 13.5h5.5h5.5q32 -2 63.5 -15.5t56.5 -38.5l-54 -54q-16 16 -36.5 24t-41.5 7q-21 0 -41 -7.5t-36 -23.5t-24 -36.5t-8 -42.5q0 -21 8 -41t24 -36t36 -24 t42 -8q21 0 41 8t36 24l54 -54v0z" />
<glyph unicode="&#xaa;" horiz-adv-x="280" d="M267 480h-109v18l-28 -19q-2 0 -4 -0.5t-4 -0.5h-5h-4q-35 0 -63 16.5t-35 46.5q-1 5 -1.5 10t-0.5 9q0 36 29.5 58t65.5 31q11 3 22 4.5t21 2.5q0 20 -7.5 29t-26.5 9h-2.5h-2.5q-2 -1 -3 -1h-3l-6 -18h-46v41q15 5 32.5 7.5t36.5 2.5h2.5h3.5q45 -2 82.5 -22.5 t37.5 -70.5v-123h18v-30v0zM151 532v94q-14 -4 -24.5 -16t-13.5 -32l-2 -14t-1 -13q0 -14 4.5 -24t14.5 -12h2.5h2.5q5 1 9.5 5t7.5 12v0z" />
<glyph unicode="&#xab;" horiz-adv-x="420" d="M253 183l-65 -65l-174 183l174 183l65 -65l-106 -118l106 -118v0zM413 183l-65 -65l-174 183l174 183l65 -65l-106 -118l106 -118v0z" />
<glyph unicode="&#xac;" />
<glyph unicode="&#xad;" />
<glyph unicode="&#xae;" horiz-adv-x="335" d="M320 567q0 -63 -45 -107.5t-107 -44.5q-63 0 -108 44.5t-45 107.5t45 107.5t108 44.5q62 0 107 -44.5t45 -107.5v0zM291 567q0 51 -36.5 87t-86.5 36q-51 0 -87.5 -36t-36.5 -87t36.5 -87t87.5 -36q50 0 86.5 36t36.5 87v0zM235 484h-50q-3 17 -9.5 28.5t-17.5 17.5v-46 h-58v15h8v136h-8v15h54q32 0 54.5 -16t22.5 -39q0 -14 -10 -27.5t-26 -22.5q13 -8 20.5 -20t11.5 -26h8v-15v0zM177 585q1 5 1.5 9t0.5 8q0 13 -4.5 22t-10.5 11h-2.5h-3.5v-88q6 5 11.5 15t7.5 23v0z" />
<glyph unicode="&#xaf;" horiz-adv-x="333" />
<glyph unicode="&#xb0;" />
<glyph unicode="&#xb1;" />
<glyph unicode="&#xb2;" />
<glyph unicode="&#xb3;" />
<glyph unicode="&#xb4;" horiz-adv-x="277" d="M268 737l-211 -101l-48 32l149 133l110 -64v0z" />
<glyph unicode="&#xb5;" />
<glyph unicode="&#xb6;" horiz-adv-x="464" d="M282 -125h-75v410q-87 16 -144.5 85.5t-57.5 157.5q0 98 61 162.5t153 83.5q3 1 6 1h6h5.5h5.5q3 -1 6.5 -1h7.5q6 0 12.5 0.5t13.5 1.5v-901v0zM447 699h-45v-824h-74v900h119v-76v0z" />
<glyph unicode="&#xb7;" horiz-adv-x="333" />
<glyph unicode="&#xb8;" horiz-adv-x="391" d="M244 19l-94 -169l-132 51l153 127l73 -9v0z" />
<glyph unicode="&#xb9;" />
<glyph unicode="&#xba;" horiz-adv-x="280" d="M261 596q0 -64 -36.5 -94.5t-90.5 -30.5q-53 0 -90 30.5t-37 94.5t37 94t90 30q54 0 90.5 -30t36.5 -94v0zM160 596q0 39 -6 67t-20 28q-13 0 -19 -28t-6 -67q0 -40 6 -67.5t19 -27.5q14 0 20 27.5t6 67.5v0z" />
<glyph unicode="&#xbb;" horiz-adv-x="420" d="M250 301l-174 -183l-65 65l106 118l-106 118l65 65l174 -183v0zM410 301l-174 -183l-65 65l106 118l-106 118l65 65l174 -183v0z" />
<glyph unicode="&#xbc;" />
<glyph unicode="&#xbd;" />
<glyph unicode="&#xbe;" />
<glyph unicode="&#xbf;" horiz-adv-x="520" d="M496 -179q-9 0 -19 -2t-21 -4t-23 -4.5t-23 -3.5q-5 0 -9.5 -0.5t-9.5 -0.5q-12 -1 -23.5 -1h-22.5q-142 0 -232 47t-90 135q0 55 36.5 91t80.5 66q6 4 11.5 7.5t11.5 7.5q38 26 66 53.5t28 67.5v8t-1 8h97q6 -22 11 -41.5t5 -38.5q0 -25 -12 -52t-45 -64 q-6 -7 -12 -13.5t-11 -13.5l-8 -10t-8 -11q-5 -7 -10 -15.5t-10 -18.5q-7 -14 -10 -26.5t-3 -24.5q0 -47 42.5 -73.5t100.5 -26.5h5h6l11 48h91v-94v0zM419 451q0 -35 -32 -60.5t-77 -25.5t-77 25.5t-32 60.5q0 36 32 61.5t77 25.5t77 -25.5t32 -61.5v0z" />
<glyph unicode="&#xc0;" horiz-adv-x="687" d="M645 0h-250v259h-125v-259h-250v64h35v195h-34v61h34v209q0 84 81 143t196 59q116 0 197 -59t81 -143v-465h35v-64v0zM395 320v274v4v4q-3 27 -19.5 49t-43.5 22t-43 -22t-19 -49v-4v-4v-274h125v0zM410 779l-48 -32l-211 101l110 64l149 -133v0z" />
<glyph unicode="&#xc1;" horiz-adv-x="687" d="M645 0h-250v259h-125v-259h-250v64h35v195h-34v61h34v209q0 84 81 143t196 59q116 0 197 -59t81 -143v-465h35v-64v0zM395 320v274v4v4q-3 27 -19.5 49t-43.5 22t-43 -22t-19 -49v-4v-4v-274h125v0zM532 845l-211 -101l-48 32l149 133l110 -64v0z" />
<glyph unicode="&#xc2;" horiz-adv-x="687" d="M645 0h-250v259h-125v-259h-250v64h35v195h-34v61h34v209q0 84 81 143t196 59q116 0 197 -59t81 -143v-465h35v-64v0zM395 320v274v4v4q-3 27 -19.5 49t-43.5 22t-43 -22t-19 -49v-4v-4v-274h125v0zM488 786l-54 -38l-98 45l-98 -45l-54 38l152 101l152 -101v0z" />
<glyph unicode="&#xc3;" horiz-adv-x="687" d="M645 0h-250v259h-125v-259h-250v64h35v195h-34v61h34v209q0 84 81 143t196 59q116 0 197 -59t81 -143v-465h35v-64v0zM395 320v274v4v4q-3 27 -19.5 49t-43.5 22t-43 -22t-19 -49v-4v-4v-274h125v0zM490 798q-15 -15 -32 -25.5t-35 -15.5q-9 -2 -17.5 -3.5t-17.5 -1.5 q-20 0 -32 3t-22 6q-1 0 -1.5 0.5t-1.5 0.5q-9 3 -19.5 5.5t-26.5 2.5q-18 0 -33.5 -4t-23.5 -12l-41 49q22 23 47.5 34t55.5 11q20 0 31.5 -3t20.5 -6q1 -1 1.5 -1t1.5 -1q9 -3 18.5 -5.5t24.5 -2.5q19 0 35.5 5.5t24.5 12.5l42 -49v0z" />
<glyph unicode="&#xc4;" horiz-adv-x="687" d="M645 0h-250v259h-125v-259h-250v64h35v195h-34v61h34v209q0 84 81 143t196 59q116 0 197 -59t81 -143v-465h35v-64v0zM395 320v274v4v4q-3 27 -19.5 49t-43.5 22t-43 -22t-19 -49v-4v-4v-274h125v0zM327 784q0 -17 -12 -29t-29 -12t-29 12t-12 29t12 29t29 12t29 -12 t12 -29v0zM439 784q0 -17 -12 -29t-29 -12t-29 12t-12 29t12 29t29 12t29 -12t12 -29v0z" />
<glyph unicode="&#xc5;" horiz-adv-x="687" d="M645 0h-250v259h-125v-259h-250v64h35v195h-34v61h34v209q0 84 81 143t196 59q116 0 197 -59t81 -143v-465h35v-64v0zM395 320v274v4v4q-3 27 -19.5 49t-43.5 22t-43 -22t-19 -49v-4v-4v-274h125v0zM416 812q0 -31 -22 -53t-53 -22t-53.5 22t-22.5 53q0 32 22.5 53.5 t53.5 21.5t53 -21.5t22 -53.5v0zM374 812q0 14 -9.5 23.5t-23.5 9.5q-13 0 -23 -9.5t-10 -23.5q0 -13 10 -23t23 -10q14 0 23.5 10t9.5 23v0z" />
<glyph unicode="&#xc6;" horiz-adv-x="871" d="M848 0h-315q-65 0 -102 36.5t-37 101.5v121h-125v-259h-250v64h35v195h-34v61h34v209q0 84 81.5 143t196.5 59q39 0 76 -7.5t68 -21.5q17 10 36 15t40 5h281v-104h-80l-12 42h-70q-25 0 -43.5 -18t-18.5 -44v-280h165v-59h-165v-135q0 -26 18.5 -44.5t43.5 -18.5h84 l13 43h80v-104v0zM394 318v138v137v2.5v2.5q-2 28 -18.5 51.5t-43.5 23.5t-44 -23.5t-19 -51.5v-2.5v-2.5v-275h125v0z" />
<glyph unicode="&#xc7;" horiz-adv-x="499" d="M373 10l-94 -169l-132 51l153 127l73 -9v0zM474 615h-91l-15 48h-2t-2 1h-3h-2q-43 0 -66 -51t-32 -112q-7 -39 -9 -75.5t-3 -59.5q0 -23 0.5 -48t3.5 -51q8 -80 42.5 -146.5t121.5 -65.5q13 0 26.5 1.5t28.5 5.5v-57q-24 -4 -51 -6.5t-57 -2.5q-188 0 -265.5 99.5 t-78.5 276.5q-1 162 82.5 258.5t261.5 96.5q31 0 58 -2t52 -7v-103v0z" />
<glyph unicode="&#xc8;" horiz-adv-x="539" d="M503 0h-296q-64 0 -111 46.5t-47 111.5v101h-36v59h36v246q0 65 47 111.5t111 46.5h281v-104h-80l-12 43h-70q-25 0 -43.5 -18.5t-18.5 -44.5v-280h165v-59h-165v-135q0 -26 18.5 -44.5t43.5 -18.5h85l12 43h80v-104v0zM395 767l-48 -32l-211 101l110 64l149 -133v0z" />
<glyph unicode="&#xc9;" horiz-adv-x="539" d="M503 0h-296q-64 0 -111 46.5t-47 111.5v101h-36v59h36v246q0 65 47 111.5t111 46.5h281v-104h-80l-12 43h-70q-25 0 -43.5 -18.5t-18.5 -44.5v-280h165v-59h-165v-135q0 -26 18.5 -44.5t43.5 -18.5h85l12 43h80v-104v0zM499 836l-211 -101l-48 32l149 133l110 -64v0z" />
<glyph unicode="&#xca;" horiz-adv-x="539" d="M503 0h-296q-64 0 -111 46.5t-47 111.5v101h-36v59h36v246q0 65 47 111.5t111 46.5h281v-104h-80l-12 43h-70q-25 0 -43.5 -18.5t-18.5 -44.5v-280h165v-59h-165v-135q0 -26 18.5 -44.5t43.5 -18.5h85l12 43h80v-104v0zM446 776l-54 -38l-98 45l-98 -45l-54 38l152 101 l152 -101v0z" />
<glyph unicode="&#xcb;" horiz-adv-x="539" d="M503 0h-296q-64 0 -111 46.5t-47 111.5v101h-36v59h36v246q0 65 47 111.5t111 46.5h281v-104h-80l-12 43h-70q-25 0 -43.5 -18.5t-18.5 -44.5v-280h165v-59h-165v-135q0 -26 18.5 -44.5t43.5 -18.5h85l12 43h80v-104v0zM299 773q0 -17 -12 -29t-29 -12t-29 12t-12 29 t12 29t29 12t29 -12t12 -29v0zM411 773q0 -17 -12 -29t-29 -12t-29 12t-12 29t12 29t29 12t29 -12t12 -29v0z" />
<glyph unicode="&#xcc;" horiz-adv-x="308" d="M294 0h-280v64h34v594h-34v64h280v-64h-30v-594h30v-64v0zM260 767l-48 -32l-211 101l110 64l149 -133v0z" />
<glyph unicode="&#xcd;" horiz-adv-x="308" d="M294 0h-280v64h34v594h-34v64h280v-64h-30v-594h30v-64v0zM325 836l-211 -101l-48 32l149 133l110 -64v0z" />
<glyph unicode="&#xce;" horiz-adv-x="308" d="M294 0h-280v64h34v594h-34v64h280v-64h-30v-594h30v-64v0zM317 779l-54 -38l-98 45l-98 -45l-54 38l152 101l152 -101v0z" />
<glyph unicode="&#xcf;" horiz-adv-x="308" d="M294 0h-280v64h34v594h-34v64h280v-64h-30v-594h30v-64v0zM149 778q0 -17 -12 -29t-29 -12t-29 12t-12 29t12 29t29 12t29 -12t12 -29v0zM261 778q0 -17 -12 -29t-29 -12t-29 12t-12 29t12 29t29 12t29 -12t12 -29v0z" />
<glyph unicode="&#xd0;" horiz-adv-x="648" d="M619 361q0 -205 -102 -283t-239 -78h-240v64h34v190h-43v60h43v344h-34v64h241q137 0 238.5 -78t101.5 -283v0zM391 361q0 173 -29.5 231t-73.5 65v-343h45v-60h-45v-192q44 8 73.5 67.5t29.5 231.5v0z" />
<glyph unicode="&#xd1;" horiz-adv-x="695" d="M645 0h-259v587q0 24 -17 41t-41 17q-27 0 -44.5 -19t-17.5 -45v-581h-252v62h37v596h-37v64h252v-52q25 23 59 36t70 15h5h4q83 0 142 -59t59 -142v-463h40v-57v0zM466 792q-15 -15 -32 -25.5t-35 -15.5q-9 -2 -17.5 -3.5t-17.5 -1.5q-20 0 -32 3t-22 6q-1 0 -1.5 0.5 t-1.5 0.5q-9 3 -19.5 5.5t-26.5 2.5q-18 0 -33.5 -4t-23.5 -12l-41 49q22 23 47.5 34t55.5 11q20 0 31.5 -3t20.5 -6q1 -1 1.5 -1t1.5 -1q9 -3 18.5 -5.5t24.5 -2.5q19 0 35.5 5.5t24.5 12.5l42 -49v0z" />
<glyph unicode="&#xd2;" horiz-adv-x="333" />
<glyph unicode="&#xd3;" horiz-adv-x="652" d="M611 363q0 -181 -72 -274t-224 -93t-224 93t-72 274q0 182 72 275t224 93t224 -93t72 -275v0zM379 363q0 127 -9.5 217t-54.5 90t-54.5 -90t-9.5 -217t9.5 -217t54.5 -90t54.5 90t9.5 217v0zM517 845l-211 -101l-48 32l149 133l110 -64v0z" />
<glyph unicode="&#xd4;" horiz-adv-x="652" d="M611 363q0 -181 -72 -274t-224 -93t-224 93t-72 274q0 182 72 275t224 93t224 -93t72 -275v0zM379 363q0 127 -9.5 217t-54.5 90t-54.5 -90t-9.5 -217t9.5 -217t54.5 -90t54.5 90t9.5 217v0zM470 784l-54 -38l-98 45l-98 -45l-54 38l152 101l152 -101v0z" />
<glyph unicode="&#xd5;" horiz-adv-x="652" d="M611 363q0 -181 -72 -274t-224 -93t-224 93t-72 274q0 182 72 275t224 93t224 -93t72 -275v0zM379 363q0 127 -9.5 217t-54.5 90t-54.5 -90t-9.5 -217t9.5 -217t54.5 -90t54.5 90t9.5 217v0zM478 801q-15 -15 -32 -25.5t-35 -15.5q-9 -2 -17.5 -3.5t-17.5 -1.5 q-20 0 -32 3t-22 6q-1 0 -1.5 0.5t-1.5 0.5q-9 3 -19.5 5.5t-26.5 2.5q-18 0 -33.5 -4t-23.5 -12l-41 49q22 23 47.5 34t55.5 11q20 0 31.5 -3t20.5 -6q1 -1 1.5 -1t1.5 -1q9 -3 18.5 -5.5t24.5 -2.5q19 0 35.5 5.5t24.5 12.5l42 -49v0z" />
<glyph unicode="&#xd6;" horiz-adv-x="652" d="M611 363q0 -181 -72 -274t-224 -93t-224 93t-72 274q0 182 72 275t224 93t224 -93t72 -275v0zM379 363q0 127 -9.5 217t-54.5 90t-54.5 -90t-9.5 -217t9.5 -217t54.5 -90t54.5 90t9.5 217v0zM311 778q0 -17 -12 -29t-29 -12t-29 12t-12 29t12 29t29 12t29 -12t12 -29v0z M423 778q0 -17 -12 -29t-29 -12t-29 12t-12 29t12 29t29 12t29 -12t12 -29v0z" />
<glyph unicode="&#xd7;" />
<glyph unicode="&#xd8;" horiz-adv-x="652" d="M622 363q0 -181 -72 -274t-224 -93q-48 0 -87.5 8.5t-71.5 27.5l-24 -37h-82l52 80q-42 47 -62.5 119t-20.5 169q0 182 72 275t224 93q56 0 102 -13t80 -39l28 43h82l-61 -94q33 -46 49 -112.5t16 -152.5v0zM390 363v4.5v4.5l-123 -187q5 -58 18.5 -93.5t40.5 -35.5 q45 0 54.5 90t9.5 217v0zM388 495q-4 77 -17 126t-45 49q-45 0 -54.5 -90t-9.5 -217v-30v-30l126 192v0z" />
<glyph unicode="&#xd9;" horiz-adv-x="698" d="M652 658h-34v-439q0 -92 -83 -157.5t-200 -65.5t-200 65.5t-83 157.5v439h-34v64h250v-602q0 -28 18.5 -47.5t46.5 -19.5t47.5 19.5t19.5 47.5v602h252v-64v0zM437 770l-48 -32l-211 101l110 64l149 -133v0z" />
<glyph unicode="&#xda;" horiz-adv-x="698" d="M652 658h-34v-439q0 -92 -83 -157.5t-200 -65.5t-200 65.5t-83 157.5v439h-34v64h250v-602q0 -28 18.5 -47.5t46.5 -19.5t47.5 19.5t19.5 47.5v602h252v-64v0zM562 833l-211 -101l-48 32l149 133l110 -64v0z" />
<glyph unicode="&#xdb;" horiz-adv-x="698" d="M652 658h-34v-439q0 -92 -83 -157.5t-200 -65.5t-200 65.5t-83 157.5v439h-34v64h250v-602q0 -28 18.5 -47.5t46.5 -19.5t47.5 19.5t19.5 47.5v602h252v-64v0zM491 770l-54 -38l-98 45l-98 -45l-54 38l152 101l152 -101v0z" />
<glyph unicode="&#xdc;" horiz-adv-x="698" d="M652 658h-34v-439q0 -92 -83 -157.5t-200 -65.5t-200 65.5t-83 157.5v439h-34v64h250v-602q0 -28 18.5 -47.5t46.5 -19.5t47.5 19.5t19.5 47.5v602h252v-64v0zM335 774q0 -17 -12 -29t-29 -12t-29 12t-12 29t12 29t29 12t29 -12t12 -29v0zM447 774q0 -17 -12 -29t-29 -12 t-29 12t-12 29t12 29t29 12t29 -12t12 -29v0z" />
<glyph unicode="&#xdd;" horiz-adv-x="333" />
<glyph unicode="&#xde;" horiz-adv-x="625" d="M597 391q0 -98 -94 -175.5t-225 -97.5v-54h31v-64h-281v64h35v297.5v296.5h-35v64h281v-64h-31v-30q133 -4 226 -71.5t93 -165.5v0zM364 343q5 20 6.5 38t1.5 35q0 57 -19 96.5t-49 48.5q-2 0 -3.5 0.5t-3.5 0.5h-3.5h-3.5h-6t-6 -1v-382q28 21 51 64.5t35 99.5v0z" />
<glyph unicode="&#xdf;" horiz-adv-x="630" d="M602 161q0 -57 -53 -102.5t-136 -80.5l-60 41q20 14 30.5 28.5t14.5 28.5q2 5 2.5 10t0.5 10q0 29 -18 57t-42 54q-26 29 -38 55t-12 50q0 41 30 76t76 65q17 11 25 27t8 32q0 29 -20.5 52t-55.5 23q-40 0 -67 -27t-27 -65v-247.5v-247.5h-231v64h32v284h-32v64h32v13 q0 92 66 157t162 65q100 0 169 -45t69 -110q0 -25 -11 -47t-31 -41q-5 -5 -7.5 -11t-2.5 -13q0 -10 4 -19t10 -17q4 -5 9 -10.5t9 -11.5q6 -6 11.5 -12t10.5 -12q27 -29 50 -62t23 -75v0z" />
<glyph unicode="&#xe0;" horiz-adv-x="559" d="M534 0h-219v35l-56 -37q-8 0 -16.5 -0.5t-16.5 -0.5q-71 1 -126.5 32.5t-69.5 91.5q-2 10 -3 19.5t-1 18.5q0 73 59 117t130 62q22 6 44 9t42 4q0 42 -16 59t-54 17h-9t-10 -1l-13 -37h-92v82q30 9 66 14t73 5h5.5h5.5q91 -2 166 -43.5t75 -141.5v-246h36v-59v0zM301 103 v188q-28 -7 -48.5 -31.5t-27.5 -63.5q-3 -14 -4 -27.5t-1 -25.5q0 -29 9 -48.5t28 -24.5h1.5h1.5q1 -1 1.5 -1h1.5q2 0 3.5 0.5t2.5 0.5q9 2 17.5 10t14.5 23v0zM368 536l-48 -32l-211 101l110 64l149 -133v0z" />
<glyph unicode="&#xe1;" horiz-adv-x="559" d="M534 0h-219v35l-56 -37q-8 0 -16.5 -0.5t-16.5 -0.5q-71 1 -126.5 32.5t-69.5 91.5q-2 10 -3 19.5t-1 18.5q0 73 59 117t130 62q22 6 44 9t42 4q0 42 -16 59t-54 17h-9t-10 -1l-13 -37h-92v82q30 9 66 14t73 5h5.5h5.5q91 -2 166 -43.5t75 -141.5v-246h36v-59v0zM301 103 v188q-28 -7 -48.5 -31.5t-27.5 -63.5q-3 -14 -4 -27.5t-1 -25.5q0 -29 9 -48.5t28 -24.5h1.5h1.5q1 -1 1.5 -1h1.5q2 0 3.5 0.5t2.5 0.5q9 2 17.5 10t14.5 23v0zM508 608l-211 -101l-48 32l149 133l110 -64v0z" />
<glyph unicode="&#xe2;" horiz-adv-x="559" d="M534 0h-219v35l-56 -37q-8 0 -16.5 -0.5t-16.5 -0.5q-71 1 -126.5 32.5t-69.5 91.5q-2 10 -3 19.5t-1 18.5q0 73 59 117t130 62q22 6 44 9t42 4q0 42 -16 59t-54 17h-9t-10 -1l-13 -37h-92v82q30 9 66 14t73 5h5.5h5.5q91 -2 166 -43.5t75 -141.5v-246h36v-59v0zM301 103 v188q-28 -7 -48.5 -31.5t-27.5 -63.5q-3 -14 -4 -27.5t-1 -25.5q0 -29 9 -48.5t28 -24.5h1.5h1.5q1 -1 1.5 -1h1.5q2 0 3.5 0.5t2.5 0.5q9 2 17.5 10t14.5 23v0zM413 545l-54 -38l-98 45l-98 -45l-54 38l152 101l152 -101v0z" />
<glyph unicode="&#xe3;" horiz-adv-x="559" d="M534 0h-219v35l-56 -37q-8 0 -16.5 -0.5t-16.5 -0.5q-71 1 -126.5 32.5t-69.5 91.5q-2 10 -3 19.5t-1 18.5q0 73 59 117t130 62q22 6 44 9t42 4q0 42 -16 59t-54 17h-9t-10 -1l-13 -37h-92v82q30 9 66 14t73 5h5.5h5.5q91 -2 166 -43.5t75 -141.5v-246h36v-59v0zM301 103 v188q-28 -7 -48.5 -31.5t-27.5 -63.5q-3 -14 -4 -27.5t-1 -25.5q0 -29 9 -48.5t28 -24.5h1.5h1.5q1 -1 1.5 -1h1.5q2 0 3.5 0.5t2.5 0.5q9 2 17.5 10t14.5 23v0zM430 561q-15 -15 -32 -25.5t-35 -15.5q-9 -2 -17.5 -3.5t-17.5 -1.5q-20 0 -32 3t-22 6q-1 0 -1.5 0.5 t-1.5 0.5q-9 3 -19.5 5.5t-26.5 2.5q-18 0 -33.5 -4t-23.5 -12l-41 49q22 23 47.5 34t55.5 11q20 0 31.5 -3t20.5 -6q1 -1 1.5 -1t1.5 -1q9 -3 18.5 -5.5t24.5 -2.5q19 0 35.5 5.5t24.5 12.5l42 -49v0z" />
<glyph unicode="&#xe4;" horiz-adv-x="559" d="M534 0h-219v35l-56 -37q-8 0 -16.5 -0.5t-16.5 -0.5q-71 1 -126.5 32.5t-69.5 91.5q-2 10 -3 19.5t-1 18.5q0 73 59 117t130 62q22 6 44 9t42 4q0 42 -16 59t-54 17h-9t-10 -1l-13 -37h-92v82q30 9 66 14t73 5h5.5h5.5q91 -2 166 -43.5t75 -141.5v-246h36v-59v0zM301 103 v188q-28 -7 -48.5 -31.5t-27.5 -63.5q-3 -14 -4 -27.5t-1 -25.5q0 -29 9 -48.5t28 -24.5h1.5h1.5q1 -1 1.5 -1h1.5q2 0 3.5 0.5t2.5 0.5q9 2 17.5 10t14.5 23v0zM266 547q0 -17 -12 -29t-29 -12t-29 12t-12 29t12 29t29 12t29 -12t12 -29v0zM378 547q0 -17 -12 -29t-29 -12 t-29 12t-12 29t12 29t29 12t29 -12t12 -29v0z" />
<glyph unicode="&#xe5;" horiz-adv-x="559" d="M534 0h-219v35l-56 -37q-8 0 -16.5 -0.5t-16.5 -0.5q-71 1 -126.5 32.5t-69.5 91.5q-2 10 -3 19.5t-1 18.5q0 73 59 117t130 62q22 6 44 9t42 4q0 42 -16 59t-54 17h-9t-10 -1l-13 -37h-92v82q30 9 66 14t73 5h5.5h5.5q91 -2 166 -43.5t75 -141.5v-246h36v-59v0zM301 103 v188q-28 -7 -48.5 -31.5t-27.5 -63.5q-3 -14 -4 -27.5t-1 -25.5q0 -29 9 -48.5t28 -24.5h1.5h1.5q1 -1 1.5 -1h1.5q2 0 3.5 0.5t2.5 0.5q9 2 17.5 10t14.5 23v0zM341 578q0 -31 -22 -53t-53 -22t-53.5 22t-22.5 53q0 32 22.5 53.5t53.5 21.5t53 -21.5t22 -53.5v0zM299 578 q0 14 -9.5 23.5t-23.5 9.5q-13 0 -23 -9.5t-10 -23.5q0 -13 10 -23t23 -10q14 0 23.5 10t9.5 23v0z" />
<glyph unicode="&#xe6;" horiz-adv-x="849" d="M802 376q5 -12 7 -24t2 -25q-1 -54 -43.5 -102t-124.5 -68l-26 -6t-25 -5l-8 -2t-9 -1q-8 -2 -16.5 -3.5t-17.5 -3.5q9 -43 44 -61t75 -19h3.5h3.5q16 0 31.5 2t28.5 6v-57q-24 -6 -49 -8.5t-51 -2.5q-67 0 -121.5 14t-95.5 42q-29 -25 -71.5 -39t-87.5 -16h-7.5h-6.5 q-66 0 -122.5 29.5t-71.5 94.5q-2 10 -3 19.5t-1 18.5q0 73 59 117t130 62q22 6 44 9t42 4q0 42 -16 59t-54 17h-9t-10 -1l-13 -37h-91v82q30 9 65.5 14t72.5 5q45 0 88.5 -8.5t77.5 -28.5q32 19 72.5 28.5t90.5 9.5q15 0 31 -1.5t33 -4.5q47 -10 90 -36t60 -73v0zM314 103 v188q-28 -7 -48 -31.5t-28 -63.5q-3 -14 -4 -27.5t-1 -25.5q0 -29 9 -48.5t29 -24.5h1.5h1.5q1 -1 1.5 -1h1.5q2 0 4.5 0.5t5.5 1.5q8 3 15 11t12 21v0zM614 309q0 4 0.5 7.5t0.5 7.5q1 3 1 6.5v7.5q0 37 -10 64t-27 29h-1.5h-1.5q-3 0 -6 -0.5t-6 -2.5q-6 -2 -11.5 -7.5 t-9.5 -15.5q-11 -28 -14 -60.5t-4 -69.5q0 -4 0.5 -15t1.5 -22v-5.5v-4.5q1 -9 1.5 -16.5t0.5 -11.5q40 4 59.5 35t24.5 68q0 1 0.5 2.5t0.5 3.5v0z" />
<glyph unicode="&#xe7;" horiz-adv-x="462" d="M343 13l-94 -169l-132 51l153 127l73 -9v0zM441 3q-25 -3 -55 -5t-65 -2q-127 0 -213.5 66.5t-86.5 180.5q0 115 86.5 179.5t213.5 64.5q28 0 53 -2t47 -7v-94h-91l-13 38q-37 -7 -56.5 -51t-19.5 -109q0 -4 0.5 -7.5t0.5 -7.5q0 -8 0.5 -16t1.5 -16q8 -88 53 -123.5 t100 -35.5h2.5h2.5h2.5h2.5q9 0 18 1.5t16 2.5v-57v0z" />
<glyph unicode="&#xe8;" horiz-adv-x="538" d="M505 376q5 -12 7 -24t2 -25q-1 -54 -43.5 -102t-125.5 -68q-13 -3 -25.5 -6t-24.5 -5q-5 -1 -9 -2t-8 -1q-8 -2 -16.5 -3.5t-17.5 -3.5q8 -43 43 -61t75 -19h3.5h3.5q16 0 31.5 2t28.5 6v-57q-23 -6 -48 -8.5t-51 -2.5q-136 0 -221 59.5t-85 187.5q0 114 67 181t199 67 q15 0 30.5 -1.5t31.5 -4.5q49 -9 92.5 -35t60.5 -74v0zM317 309q0 4 0.5 7.5t0.5 7.5q1 3 1 6.5v7.5q0 37 -10 64t-27 29h-1.5h-1.5h-3t-3 -1q-8 -1 -15 -7t-12 -18q-11 -28 -14 -60.5t-4 -69.5q0 -4 0.5 -15t1.5 -22v-5.5v-4.5q1 -9 1.5 -16.5t0.5 -11.5q40 4 59.5 35 t24.5 68q0 1 0.5 2.5t0.5 3.5v0zM353 539l-48 -32l-211 101l110 64l149 -133v0z" />
<glyph unicode="&#xe9;" horiz-adv-x="538" d="M505 376q5 -12 7 -24t2 -25q-1 -54 -43.5 -102t-125.5 -68q-13 -3 -25.5 -6t-24.5 -5q-5 -1 -9 -2t-8 -1q-8 -2 -16.5 -3.5t-17.5 -3.5q8 -43 43 -61t75 -19h3.5h3.5q16 0 31.5 2t28.5 6v-57q-23 -6 -48 -8.5t-51 -2.5q-136 0 -221 59.5t-85 187.5q0 114 67 181t199 67 q15 0 30.5 -1.5t31.5 -4.5q49 -9 92.5 -35t60.5 -74v0zM317 309q0 4 0.5 7.5t0.5 7.5q1 3 1 6.5v7.5q0 37 -10 64t-27 29h-1.5h-1.5h-3t-3 -1q-8 -1 -15 -7t-12 -18q-11 -28 -14 -60.5t-4 -69.5q0 -4 0.5 -15t1.5 -22v-5.5v-4.5q1 -9 1.5 -16.5t0.5 -11.5q40 4 59.5 35 t24.5 68q0 1 0.5 2.5t0.5 3.5v0zM469 605l-211 -101l-48 32l149 133l110 -64v0z" />
<glyph unicode="&#xea;" horiz-adv-x="538" d="M505 376q5 -12 7 -24t2 -25q-1 -54 -43.5 -102t-125.5 -68q-13 -3 -25.5 -6t-24.5 -5q-5 -1 -9 -2t-8 -1q-8 -2 -16.5 -3.5t-17.5 -3.5q8 -43 43 -61t75 -19h3.5h3.5q16 0 31.5 2t28.5 6v-57q-23 -6 -48 -8.5t-51 -2.5q-136 0 -221 59.5t-85 187.5q0 114 67 181t199 67 q15 0 30.5 -1.5t31.5 -4.5q49 -9 92.5 -35t60.5 -74v0zM317 309q0 4 0.5 7.5t0.5 7.5q1 3 1 6.5v7.5q0 37 -10 64t-27 29h-1.5h-1.5h-3t-3 -1q-8 -1 -15 -7t-12 -18q-11 -28 -14 -60.5t-4 -69.5q0 -4 0.5 -15t1.5 -22v-5.5v-4.5q1 -9 1.5 -16.5t0.5 -11.5q40 4 59.5 35 t24.5 68q0 1 0.5 2.5t0.5 3.5v0zM428 539l-54 -38l-98 45l-98 -45l-54 38l152 101l152 -101v0z" />
<glyph unicode="&#xeb;" horiz-adv-x="538" d="M505 376q5 -12 7 -24t2 -25q-1 -54 -43.5 -102t-125.5 -68q-13 -3 -25.5 -6t-24.5 -5q-5 -1 -9 -2t-8 -1q-8 -2 -16.5 -3.5t-17.5 -3.5q8 -43 43 -61t75 -19h3.5h3.5q16 0 31.5 2t28.5 6v-57q-23 -6 -48 -8.5t-51 -2.5q-136 0 -221 59.5t-85 187.5q0 114 67 181t199 67 q15 0 30.5 -1.5t31.5 -4.5q49 -9 92.5 -35t60.5 -74v0zM317 309q0 4 0.5 7.5t0.5 7.5q1 3 1 6.5v7.5q0 37 -10 64t-27 29h-1.5h-1.5h-3t-3 -1q-8 -1 -15 -7t-12 -18q-11 -28 -14 -60.5t-4 -69.5q0 -4 0.5 -15t1.5 -22v-5.5v-4.5q1 -9 1.5 -16.5t0.5 -11.5q40 4 59.5 35 t24.5 68q0 1 0.5 2.5t0.5 3.5v0zM260 547q0 -17 -12 -29t-29 -12t-29 12t-12 29t12 29t29 12t29 -12t12 -29v0zM372 547q0 -17 -12 -29t-29 -12t-29 12t-12 29t12 29t29 12t29 -12t12 -29v0z" />
<glyph unicode="&#xec;" horiz-adv-x="297" d="M283 0h-235v419h-35v64h234v-424h36v-59v0zM236 533l-48 -32l-211 101l110 64l149 -133v0z" />
<glyph unicode="&#xed;" horiz-adv-x="297" d="M283 0h-235v419h-35v64h234v-424h36v-59v0zM319 602l-211 -101l-48 32l149 133l110 -64v0z" />
<glyph unicode="&#xee;" horiz-adv-x="297" d="M283 0h-235v419h-35v64h234v-424h36v-59v0zM291 542l-54 -38l-98 45l-98 -45l-54 38l152 101l152 -101v0z" />
<glyph unicode="&#xef;" horiz-adv-x="297" d="M283 0h-235v419h-35v64h234v-424h36v-59v0zM125 538q0 -17 -12 -29t-29 -12t-29 12t-12 29t12 29t29 12t29 -12t12 -29v0zM237 538q0 -17 -12 -29t-29 -12t-29 12t-12 29t12 29t29 12t29 -12t12 -29v0z" />
<glyph unicode="&#xf0;" horiz-adv-x="559" d="M533 243q0 -128 -73.5 -187.5t-180.5 -59.5q-106 0 -180 59.5t-74 187.5t74 188t180 60q15 0 29 -1t27 -3v100q0 8 -1.5 16t-3.5 15l-94 -54l-30 52l85 49q-10 7 -22 10.5t-26 3.5h-30v60h98q21 0 41.5 -4t39.5 -11l63 36l30 -52l-33 -19q38 -31 59.5 -75.5t21.5 -97.5 v-45.5v-45.5q0 -45 0.5 -90.5t-0.5 -91.5v0zM330 243q0 79 -11 135t-40 56q-28 0 -39.5 -56t-11.5 -135t11.5 -134.5t39.5 -55.5q29 0 40 55.5t11 134.5v0z" />
<glyph unicode="&#xf1;" horiz-adv-x="632" d="M589 0h-236v360q0 22 -15 37t-37 15q-25 0 -39 -17.5t-14 -40.5v-354h-233v64h34v355h-34v64h233v-48q25 22 56 34.5t66 12.5q75 0 129 -54t54 -129v-240h36v-59v0zM459 555q-15 -15 -32 -25.5t-35 -15.5q-9 -2 -17.5 -3.5t-17.5 -1.5q-20 0 -32 3t-22 6q-1 0 -1.5 0.5 t-1.5 0.5q-9 3 -19.5 5.5t-26.5 2.5q-18 0 -33.5 -4t-23.5 -12l-41 49q22 23 47.5 34t55.5 11q20 0 31.5 -3t20.5 -6q1 -1 1.5 -1t1.5 -1q9 -3 18.5 -5.5t24.5 -2.5q19 0 35.5 5.5t24.5 12.5l42 -49v0z" />
<glyph unicode="&#xf2;" horiz-adv-x="559" d="M522 243q0 -128 -73.5 -187.5t-180.5 -59.5q-106 0 -180 59.5t-74 187.5t74 188t180 60q107 0 180.5 -60t73.5 -188v0zM319 243q0 79 -11 135t-40 56q-28 0 -39.5 -56t-11.5 -135t11.5 -134.5t39.5 -55.5q29 0 40 55.5t11 134.5v0zM344 539l-48 -32l-211 101l110 64 l149 -133v0z" />
<glyph unicode="&#xf3;" horiz-adv-x="559" d="M522 243q0 -128 -73.5 -187.5t-180.5 -59.5q-106 0 -180 59.5t-74 187.5t74 188t180 60q107 0 180.5 -60t73.5 -188v0zM319 243q0 79 -11 135t-40 56q-28 0 -39.5 -56t-11.5 -135t11.5 -134.5t39.5 -55.5q29 0 40 55.5t11 134.5v0zM469 611l-211 -101l-48 32l149 133 l110 -64v0z" />
<glyph unicode="&#xf4;" horiz-adv-x="559" d="M522 243q0 -128 -73.5 -187.5t-180.5 -59.5q-106 0 -180 59.5t-74 187.5t74 188t180 60q107 0 180.5 -60t73.5 -188v0zM319 243q0 79 -11 135t-40 56q-28 0 -39.5 -56t-11.5 -135t11.5 -134.5t39.5 -55.5q29 0 40 55.5t11 134.5v0zM431 538l-54 -38l-98 45l-98 -45 l-54 38l152 101l152 -101v0z" />
<glyph unicode="&#xf5;" horiz-adv-x="559" d="M522 243q0 -128 -73.5 -187.5t-180.5 -59.5q-106 0 -180 59.5t-74 187.5t74 188t180 60q107 0 180.5 -60t73.5 -188v0zM319 243q0 79 -11 135t-40 56q-28 0 -39.5 -56t-11.5 -135t11.5 -134.5t39.5 -55.5q29 0 40 55.5t11 134.5v0zM415 581q-15 -15 -32 -25.5t-35 -15.5 q-9 -2 -17.5 -3.5t-17.5 -1.5q-20 0 -32 3t-22 6q-1 0 -1.5 0.5t-1.5 0.5q-9 3 -19.5 5.5t-26.5 2.5q-18 0 -33.5 -4t-23.5 -12l-41 49q22 23 47.5 34t55.5 11q20 0 31.5 -3t20.5 -6q1 -1 1.5 -1t1.5 -1q9 -3 18.5 -5.5t24.5 -2.5q19 0 35.5 5.5t24.5 12.5l42 -49v0z" />
<glyph unicode="&#xf6;" horiz-adv-x="559" d="M522 243q0 -128 -73.5 -187.5t-180.5 -59.5q-106 0 -180 59.5t-74 187.5t74 188t180 60q107 0 180.5 -60t73.5 -188v0zM319 243q0 79 -11 135t-40 56q-28 0 -39.5 -56t-11.5 -135t11.5 -134.5t39.5 -55.5q29 0 40 55.5t11 134.5v0zM263 543q0 -17 -12 -29t-29 -12t-29 12 t-12 29t12 29t29 12t29 -12t12 -29v0zM375 543q0 -17 -12 -29t-29 -12t-29 12t-12 29t12 29t29 12t29 -12t12 -29v0z" />
<glyph unicode="&#xf7;" />
<glyph unicode="&#xf8;" horiz-adv-x="628" d="M600 489l-82 -82q23 -30 36.5 -70.5t13.5 -93.5q0 -128 -73.5 -187.5t-180.5 -59.5q-46 0 -88 11t-75 34l-40 -41h-82l80 81q-23 29 -36 69.5t-13 92.5q0 128 73.5 188t180.5 60q47 0 88 -10.5t73 -33.5l43 42h82v0zM365 243v6v5l-98 -98q5 -46 16 -74.5t31 -28.5 q29 0 40 55.5t11 134.5v0zM361 332q-4 46 -15.5 74t-31.5 28q-28 0 -39.5 -56t-11.5 -135v-4.5v-4.5l98 98v0z" />
<glyph unicode="&#xf9;" horiz-adv-x="632" d="M592 0h-234v47q-24 -22 -55 -34t-66 -12q-76 0 -129.5 53.5t-53.5 129.5v240h-36v59h235v-360q0 -22 15.5 -37.5t37.5 -15.5q25 0 38.5 17.5t13.5 40.5v355h234v-64h-34v-355h34v-64v0zM383 530l-48 -32l-211 101l110 64l149 -133v0z" />
<glyph unicode="&#xfa;" horiz-adv-x="632" d="M592 0h-234v47q-24 -22 -55 -34t-66 -12q-76 0 -129.5 53.5t-53.5 129.5v240h-36v59h235v-360q0 -22 15.5 -37.5t37.5 -15.5q25 0 38.5 17.5t13.5 40.5v355h234v-64h-34v-355h34v-64v0zM523 599l-211 -101l-48 32l149 133l110 -64v0z" />
<glyph unicode="&#xfb;" horiz-adv-x="632" d="M592 0h-234v47q-24 -22 -55 -34t-66 -12q-76 0 -129.5 53.5t-53.5 129.5v240h-36v59h235v-360q0 -22 15.5 -37.5t37.5 -15.5q25 0 38.5 17.5t13.5 40.5v355h234v-64h-34v-355h34v-64v0zM466 557l-54 -38l-98 45l-98 -45l-54 38l152 101l152 -101v0z" />
<glyph unicode="&#xfc;" horiz-adv-x="632" d="M592 0h-234v47q-24 -22 -55 -34t-66 -12q-76 0 -129.5 53.5t-53.5 129.5v240h-36v59h235v-360q0 -22 15.5 -37.5t37.5 -15.5q25 0 38.5 17.5t13.5 40.5v355h234v-64h-34v-355h34v-64v0zM299 533q0 -17 -12 -29t-29 -12t-29 12t-12 29t12 29t29 12t29 -12t12 -29v0z M411 533q0 -17 -12 -29t-29 -12t-29 12t-12 29t12 29t29 12t29 -12t12 -29v0z" />
<glyph unicode="&#xfd;" horiz-adv-x="333" />
<glyph unicode="&#xfe;" horiz-adv-x="600" d="M546 373q14 -25 20.5 -51t6.5 -52v-3.5v-2.5q-2 -66 -42.5 -126t-112.5 -96q-19 -9 -38.5 -16t-38.5 -12q-20 -5 -39.5 -8t-38.5 -4v-103h34v-64h-268v64h35v642l-37 -9v59l236 58v-187l41 27h5.5t4.5 1h4.5h5.5q71 -1 131 -30.5t91 -86.5v0zM359 211q1 5 2.5 10.5 t2.5 10.5q2 16 3.5 31.5t1.5 30.5q0 46 -13.5 78.5t-38.5 38.5q-3 1 -6 1h-6q-11 0 -21.5 -6t-20.5 -17v-326q36 8 59 48t37 100v0z" />
<glyph unicode="&#xff;" horiz-adv-x="632" d="M578 419h-35v-361q0 -91 -65 -156.5t-157 -65.5l-98 -1v60h30q38 1 65 28t27 65l-1 123q-24 -22 -55 -34t-66 -12q-76 0 -129.5 53.5t-53.5 129.5v176h-36v59h235v-297q0 -21 15.5 -36.5t37.5 -15.5q25 0 38.5 17.5t13.5 40.5v291h234v-64v0zM299 540q0 -17 -12 -29 t-29 -12t-29 12t-12 29t12 29t29 12t29 -12t12 -29v0zM411 540q0 -17 -12 -29t-29 -12t-29 12t-12 29t12 29t29 12t29 -12t12 -29v0z" />
<glyph unicode="&#x152;" horiz-adv-x="870" d="M847 0h-296q-24 0 -46 7t-41 19q-31 -15 -67.5 -22.5t-80.5 -7.5q-152 0 -224.5 93t-72.5 274q0 182 72.5 275t224.5 93q45 0 83 -8t69 -25q18 11 39.5 17.5t43.5 6.5h281v-104h-80l-12 42h-70q-25 0 -43.5 -18t-18.5 -44v-280h165v-59h-165v-135q0 -26 18.5 -44.5 t43.5 -18.5h84l13 43h80v-104v0zM379 363q0 127 -9.5 217t-53.5 90q-45 0 -54.5 -90t-9.5 -217t9.5 -217t54.5 -90q44 0 53.5 90t9.5 217v0z" />
<glyph unicode="&#x153;" horiz-adv-x="828" d="M806 376q5 -12 6.5 -24t1.5 -24q0 -55 -42.5 -103t-125.5 -68q-12 -3 -23 -5.5t-22 -4.5q-6 -1 -11.5 -2t-10.5 -2q-9 -2 -17.5 -3.5t-17.5 -3.5q9 -43 44 -61t75 -19h3.5h3.5q16 0 31.5 2t28.5 6v-57q-23 -6 -48 -8.5t-51 -2.5q-59 0 -109.5 11t-88.5 33 q-33 -22 -73.5 -33t-87.5 -11q-107 0 -180.5 59.5t-73.5 187.5t73.5 188t180.5 60q44 0 83.5 -10t71.5 -30q32 20 73 30t91 10q15 0 30.5 -1.5t31.5 -4.5q49 -9 92.5 -35t60.5 -74v0zM323 243q0 79 -11 135t-40 56q-28 0 -39.5 -56t-11.5 -135t11.5 -134.5t39.5 -55.5 q29 0 40 55.5t11 134.5v0zM618 309q1 8 1.5 14.5t0.5 13.5q-1 38 -11 65t-26 29h-1.5h-1.5q-2 0 -4 -0.5t-4 -0.5q-7 -2 -14 -8t-11 -17q-11 -28 -14.5 -60.5t-3.5 -69.5q0 -4 0.5 -15t1.5 -22v-5.5v-4.5q1 -9 1.5 -16.5t0.5 -11.5q40 4 59.5 35t24.5 68q0 1 0.5 2.5 t0.5 3.5v0z" />
<glyph unicode="&#x178;" horiz-adv-x="676" d="M648 658h-48v-410q0 -103 -73 -175.5t-176 -72.5l-244 -1v147h91l30 -79h51q42 0 75.5 30.5t33.5 71.5l-1 114q-27 -24 -61.5 -38t-73.5 -14q-85 0 -144.5 56.5t-59.5 147.5v223h-41v64h243v-355q0 -21 18 -37.5t39 -20.5q3 0 6 -0.5t6 -0.5q28 0 48 20t20 45v349h261 v-64v0zM326 771q0 -17 -12 -29t-29 -12t-29 12t-12 29t12 29t29 12t29 -12t12 -29v0zM438 771q0 -17 -12 -29t-29 -12t-29 12t-12 29t12 29t29 12t29 -12t12 -29v0z" />
<glyph unicode="&#x2c6;" horiz-adv-x="391" d="M349 728q-15 -15 -32 -25.5t-35 -15.5q-9 -2 -17.5 -3.5t-17.5 -1.5q-20 0 -32 3t-22 6q-1 0 -1.5 0.5t-1.5 0.5q-9 3 -19.5 5.5t-26.5 2.5q-18 0 -33.5 -4t-23.5 -12l-41 49q22 23 47.5 34t55.5 11q20 0 31.5 -3t20.5 -6q1 -1 1.5 -1t1.5 -1q9 -3 18.5 -5.5t24.5 -2.5 q19 0 35.5 5.5t24.5 12.5l42 -49v0z" />
<glyph unicode="&#x2dc;" horiz-adv-x="403" d="M353 727l-54 -38l-98 45l-98 -45l-54 38l152 101l152 -101v0z" />
<glyph unicode="&#x2000;" horiz-adv-x="456" />
<glyph unicode="&#x2001;" horiz-adv-x="912" />
<glyph unicode="&#x2002;" horiz-adv-x="456" />
<glyph unicode="&#x2003;" horiz-adv-x="912" />
<glyph unicode="&#x2004;" horiz-adv-x="304" />
<glyph unicode="&#x2005;" horiz-adv-x="228" />
<glyph unicode="&#x2006;" horiz-adv-x="152" />
<glyph unicode="&#x2007;" horiz-adv-x="152" />
<glyph unicode="&#x2008;" horiz-adv-x="114" />
<glyph unicode="&#x2009;" horiz-adv-x="182" />
<glyph unicode="&#x200a;" horiz-adv-x="50" />
<glyph unicode="&#x2010;" horiz-adv-x="241" d="M210 259h-179v59h179v-59v0z" />
<glyph unicode="&#x2011;" horiz-adv-x="241" d="M210 259h-179v59h179v-59v0z" />
<glyph unicode="&#x2012;" horiz-adv-x="241" d="M210 259h-179v59h179v-59v0z" />
<glyph unicode="&#x2013;" horiz-adv-x="383" d="M376 259h-358v59h358v-59v0z" />
<glyph unicode="&#x2014;" horiz-adv-x="732" d="M722 259h-716v59h716v-59v0z" />
<glyph unicode="&#x2018;" horiz-adv-x="247" d="M239 573q0 -37 -27.5 -59.5t-60.5 -27.5q-5 0 -9 -0.5t-8 -0.5q-52 0 -83.5 33t-35.5 73q-1 3 -1 6.5v6.5q0 61 29.5 101t65.5 64q13 8 26 15t25 12l38 -22l-12.5 -7t-27.5 -20q-15 -14 -27.5 -32t-12.5 -41q0 -8 7.5 -12t23.5 -6q6 -1 11.5 -2.5t11.5 -3.5q25 -8 46 -28 t21 -49v0z" />
<glyph unicode="&#x2019;" horiz-adv-x="247" d="M236 640q0 -61 -29.5 -101t-65.5 -64q-13 -8 -26 -15t-25 -12l-38 22l12.5 7t27.5 21q15 13 27.5 31.5t12.5 40.5q0 8 -7.5 12t-23.5 6q-6 1 -11.5 2.5t-11.5 3.5q-25 8 -46 28t-21 49q0 37 27.5 59.5t60.5 27.5q5 0 9 0.5t8 0.5q52 0 83.5 -33t35.5 -73q1 -3 1 -6.5 v-6.5v0z" />
<glyph unicode="&#x201a;" horiz-adv-x="247" d="M236 50q0 -60 -29.5 -100t-65.5 -64q-13 -8 -26 -15t-25 -12l-38 21q0 1 12.5 8t27.5 20q15 14 27.5 32t12.5 41q0 8 -7.5 12t-23.5 6q-6 1 -11.5 2t-11.5 3q-25 8 -46 28t-21 49q0 37 27.5 59.5t60.5 27.5q5 0 9 0.5t8 0.5q52 0 83.5 -33t35.5 -73q1 -3 1 -6.5v-6.5v0z " />
<glyph unicode="&#x201c;" horiz-adv-x="479" d="M239 573q0 -37 -27.5 -59.5t-60.5 -27.5q-5 0 -9 -0.5t-8 -0.5q-52 0 -83.5 33t-35.5 73q-1 3 -1 6.5v6.5q0 61 29.5 101t65.5 64q13 8 26 15t25 12l38 -22l-12.5 -7t-27.5 -20q-15 -14 -27.5 -32t-12.5 -41q0 -8 7.5 -12t23.5 -6q6 -1 11.5 -2.5t11.5 -3.5q25 -8 46 -28 t21 -49v0zM469 573q0 -37 -27.5 -59.5t-60.5 -27.5q-5 0 -9 -0.5t-8 -0.5q-52 0 -83.5 33t-35.5 73q-1 3 -1 6.5v6.5q0 61 29.5 101t65.5 64q13 8 26 15t25 12l38 -22l-12.5 -7t-27.5 -20q-15 -14 -27.5 -32t-12.5 -41q0 -8 7.5 -12t23.5 -6q6 -1 11.5 -2.5t11.5 -3.5 q25 -8 46 -28t21 -49v0z" />
<glyph unicode="&#x201d;" horiz-adv-x="479" d="M236 640q0 -61 -29.5 -101t-65.5 -64q-13 -8 -26 -15t-25 -12l-38 22l12.5 7t27.5 21q15 13 27.5 31.5t12.5 40.5q0 8 -7.5 12t-23.5 6q-6 1 -11.5 2.5t-11.5 3.5q-25 8 -46 28t-21 49q0 37 27.5 59.5t60.5 27.5q5 0 9 0.5t8 0.5q52 0 83.5 -33t35.5 -73q1 -3 1 -6.5 v-6.5v0zM466 640q0 -61 -29.5 -101t-65.5 -64q-13 -8 -26 -15t-25 -12l-38 22l12.5 7t27.5 21q15 13 27.5 31.5t12.5 40.5q0 8 -7.5 12t-23.5 6q-6 1 -11.5 2.5t-11.5 3.5q-25 8 -46 28t-21 49q0 37 27.5 59.5t60.5 27.5q5 0 9 0.5t8 0.5q52 0 83.5 -33t35.5 -73 q1 -3 1 -6.5v-6.5v0z" />
<glyph unicode="&#x201e;" horiz-adv-x="490" d="M236 50q0 -60 -29.5 -100t-65.5 -64q-13 -8 -26 -15t-25 -12l-38 21q0 1 12.5 8t27.5 20q15 14 27.5 32t12.5 41q0 8 -7.5 12t-23.5 6q-6 1 -11.5 2t-11.5 3q-25 8 -46 28t-21 49q0 37 27.5 59.5t60.5 27.5q5 0 9 0.5t8 0.5q52 0 83.5 -33t35.5 -73q1 -3 1 -6.5v-6.5v0z M476 50q0 -60 -29.5 -100t-65.5 -64q-13 -8 -26 -15t-25 -12l-38 21q0 1 12.5 8t27.5 20q15 14 27.5 32t12.5 41q0 8 -7.5 12t-23.5 6q-6 1 -11.5 2t-11.5 3q-25 8 -46 28t-21 49q0 37 27.5 59.5t60.5 27.5q5 0 9 0.5t8 0.5q52 0 83.5 -33t35.5 -73q1 -3 1 -6.5v-6.5v0z" />
<glyph unicode="&#x2022;" horiz-adv-x="556" d="M496 342q0 -72 -64 -123t-154 -51t-154 51t-64 123q0 71 64 121.5t154 50.5t154 -50.5t64 -121.5v0z" />
<glyph unicode="&#x2026;" horiz-adv-x="747" d="M248 81q0 -36 -32 -61t-77 -25t-77 25t-32 61q0 35 32 60.5t77 25.5t77 -25.5t32 -60.5v0zM488 81q0 -36 -32 -61t-77 -25t-77 25t-32 61q0 35 32 60.5t77 25.5t77 -25.5t32 -60.5v0zM728 81q0 -36 -32 -61t-77 -25t-77 25t-32 61q0 35 32 60.5t77 25.5t77 -25.5 t32 -60.5v0z" />
<glyph unicode="&#x202f;" horiz-adv-x="182" />
<glyph unicode="&#x2039;" horiz-adv-x="262" d="M253 183l-65 -65l-174 183l174 183l65 -65l-106 -118l106 -118v0z" />
<glyph unicode="&#x203a;" horiz-adv-x="262" d="M254 301l-174 -183l-65 65l106 118l-106 118l65 65l174 -183v0z" />
<glyph unicode="&#x205f;" horiz-adv-x="228" />
<glyph unicode="&#x2122;" horiz-adv-x="417" d="M168 675h-22l-7 27h-12h-7v-143h7v-16h-67v16h7v143h-7h-12l-7 -27h-22v42h37.5h37.5h36.5h37.5v-42v0zM398 543h-61v143v1.5v0.5q-1 7 -4.5 12t-10.5 5q-6 0 -10 -5t-5 -12v-0.5v-1.5v-143h-50v143v1.5v0.5q-1 7 -5 12t-10 5q-7 0 -10.5 -5t-4.5 -12v-0.5v-1.5v-143h-61 v16h9v112q0 20 19.5 34t47.5 14q11 0 21.5 -2t18.5 -7q8 5 18.5 7t21.5 2q28 0 47.5 -14t19.5 -34v-112h9v-16v0z" />
<glyph unicode="&#xe000;" horiz-adv-x="485" d="M0 485h485v-485h-485v485z" />
</font>
</defs>
</svg>
