<?xml version="1.0" standalone="no"?>
<!DOCTYPE svg PUBLIC "-//W3C//DTD SVG 1.1//EN" "http://www.w3.org/Graphics/SVG/1.1/DTD/svg11.dtd" >
<svg xmlns="http://www.w3.org/2000/svg">
<metadata></metadata>
<defs>
<font id="latin_modern_roman_caps10Ob" horiz-adv-x="814" >
<font-face units-per-em="1000" ascent="806" descent="-194" />
<missing-glyph horiz-adv-x="378" />
<glyph horiz-adv-x="1000" />
<glyph horiz-adv-x="1000" />
<glyph unicode="&#xd;" horiz-adv-x="1000" />
<glyph unicode=" "  horiz-adv-x="378" />
<glyph unicode="&#x09;" horiz-adv-x="378" />
<glyph unicode="&#xa0;" horiz-adv-x="378" />
<glyph unicode="!" horiz-adv-x="319" d="M115 53q4 22 22 37.5t40 15.5t35 -15.5t9 -37.5t-22 -37.5t-40 -15.5t-35 15.5t-9 37.5zM180 210l37 455q4 23 22 37t39 14t35 -14t10 -37l-115 -456q-5 -22 -18 -22q-8 0 -9.5 4.5t-0.5 18.5z" />
<glyph unicode="&#x22;" horiz-adv-x="415" d="M218 423l19 247q1 15 13.5 25t27.5 10t23.5 -10t5.5 -25l-63 -247h-26zM314 423l19 247q1 15 13.5 25t27.5 10t23.5 -10t5.5 -25l-63 -247h-26z" />
<glyph unicode="#" horiz-adv-x="903" d="M98 153q3 20 37 20h182l69 154h-225q-10 0 -16 0.5t-11 5.5t-4 14q3 20 36 20h238l138 304q10 23 25 23q8 0 13 -6t3 -14l-7 -18l-131 -289h201l138 304q10 23 25 23q8 0 13 -6t3 -14l-7 -18l-131 -289h171q10 0 15.5 -0.5t10.5 -5.5t4 -14q-3 -20 -37 -20h-182l-69 -154 h225q10 0 16 -0.5t11 -5.5t4 -14q-4 -20 -37 -20h-238l-138 -304q-5 -13 -9.5 -18t-14.5 -5q-8 0 -13 6t-4 14q0 1 7 18l131 289h-201l-138 -304q-5 -13 -9.5 -18t-14.5 -5q-8 0 -13 6t-4 14q0 1 7 18l131 289h-171q-10 0 -15.5 0.5t-10.5 5.5t-3 14zM358 173h201l69 154 h-201z" />
<glyph unicode="$" horiz-adv-x="553" d="M102 178q4 22 17 34.5t21.5 14.5t15.5 2q19 0 30.5 -12.5t8.5 -33.5q-4 -20 -19 -33t-35 -13q-8 0 -16 2q4 -54 40.5 -84.5t98.5 -34.5l50 299q-34 8 -49.5 13t-36 17.5t-37.5 32.5q-47 56 -33 131q12 73 74 129t146 62l8 46h31l-7 -45q89 -5 130 -54.5t28 -121.5 q-4 -22 -18 -34.5t-22 -14t-14 -1.5q-18 0 -30 12t-8 34q3 21 18 33.5t35 12.5q11 0 15 -2q-3 43 -38.5 72t-101.5 33l-45 -271q31 -8 47 -13t36.5 -18.5t35.5 -33.5q47 -60 35 -143q-14 -79 -77 -138.5t-146 -66.5l-7 -46h-31l7 45q-92 5 -131 59.5t-26 129.5zM214 543 q-17 -101 115 -133l44 263q-63 -6 -107 -44t-52 -86zM296 21q65 8 108.5 50.5t52.5 93.5q9 61 -26 100q-27 33 -87 46z" />
<glyph unicode="%" horiz-adv-x="903" d="M154 -36q0 6 13 21l584 667l-1 1q-68 -35 -145 -35q-84 0 -154 44q16 -55 4 -114q-14 -84 -63.5 -142.5t-107.5 -58.5q-61 0 -98 57.5t-22 144.5q14 85 69.5 143t117.5 58q40 0 69 -31q77 -79 189 -79q125 0 215 95q13 15 23 15q8 0 13 -6t4 -14q-2 -8 -12 -18l-658 -754 q-12 -14 -23 -14q-8 0 -13 6t-4 14zM225 548q-10 -50 -5.5 -83.5t11 -52.5t20.5 -28.5t22.5 -12t16.5 -2.5q43 0 85 51t56 129q12 77 -13.5 128t-68.5 51q-8 0 -17.5 -2t-26 -12.5t-30 -28.5t-28 -53.5t-22.5 -83.5zM562 146q15 85 71 143t117 58q58 0 88 -58.5t16 -143.5 q-14 -84 -63.5 -142.5t-107.5 -58.5q-61 0 -98 57.5t-23 144.5zM624 145q-10 -50 -5.5 -83.5t10.5 -52.5t20 -28.5t22.5 -12t16.5 -2.5q43 0 85.5 51t55.5 129q13 77 -12.5 128t-68.5 51q-8 0 -17.5 -2t-26 -12.5t-30 -28.5t-28 -53.5t-22.5 -83.5z" />
<glyph unicode="&#x26;" horiz-adv-x="844" d="M79 128q4 25 17.5 47t26 34t42.5 39l122 104q-22 116 -7 203q12 75 62.5 118t103.5 43q46 0 61.5 -40.5t7.5 -88.5q-13 -72 -152 -194l-8 -10q-2 -10 12.5 -50.5t46 -102.5t69.5 -115q50 48 93 98q62 73 103 126q5 8 7 19q3 20 -14.5 31t-46.5 11l5 31q41 -3 121 -3l98 3 l-5 -31q-42 0 -73 -14t-46.5 -29t-41.5 -48q-118 -148 -187 -214q25 -29 39 -43t40 -28.5t53 -14.5q42 0 84.5 28.5t53.5 83.5h25q-12 -63 -61.5 -103t-111.5 -40q-92 0 -171 76q-105 -76 -203 -76q-79 0 -127 43t-38 107zM168 159q-10 -56 12 -103t78 -47q83 0 173 63 q-102 127 -138 259q-68 -57 -92.5 -88t-32.5 -84zM346 577q-13 -80 3 -169q130 115 141 179q1 5 2 19t-0.5 35.5t-13.5 37t-34 15.5q-29 0 -58.5 -28.5t-39.5 -88.5z" />
<glyph unicode="'" horiz-adv-x="319" d="M218 423l19 247q1 15 13.5 25t27.5 10t23.5 -10t5.5 -25l-63 -247h-26z" />
<glyph unicode="(" horiz-adv-x="436" d="M161 250q21 125 78.5 237.5t147.5 195.5q20 19 50.5 43t39.5 24q11 0 8 -10q0 -2 -5 -9q-27 -22 -46.5 -39.5t-56 -62t-63 -92t-54 -124t-41.5 -163.5q-52 -313 100 -481q3 -3 3 -9q-1 -10 -12 -10q-6 0 -26 18.5t-49 57t-51 97.5t-31.5 140.5t8.5 186.5z" />
<glyph unicode=")" horiz-adv-x="436" d="M33 -240q0 2 5 9q114 92 176 215q63 126 86 266q52 313 -100 480q-4 6 -4 10q2 10 13 10q5 0 25 -18.5t49 -57t51 -97.5t32 -140.5t-8 -186.5q-17 -98 -54.5 -185.5t-79.5 -142.5t-83.5 -96t-67.5 -58.5t-31 -17.5q-11 0 -9 10z" />
<glyph unicode="*" horiz-adv-x="553" d="M157 441q3 17 26 27l159 67l-138 67q-19 10 -16 26q2 13 11.5 20.5t19.5 7.5q8 0 18 -8l120 -94l11 148l2 22q1 6 4.5 11.5t8 8.5t9 4.5t9.5 1.5q27 0 20 -37l-42 -159l151 94q12 8 21 8q11 0 18 -7.5t5 -20.5q-3 -17 -27 -27l-159 -67l138 -67q19 -10 17 -26 q-2 -13 -11.5 -20.5t-20.5 -7.5q-8 0 -18 8l-120 94l-11 -148l-1 -22q-2 -12 -12 -19t-20 -7t-16 5.5t-6.5 11.5t1.5 10q8 33 23.5 93t19.5 76l-151 -94q-12 -8 -21 -8q-11 0 -17.5 7.5t-4.5 20.5z" />
<glyph unicode="+" horiz-adv-x="844" d="M114 250q3 20 36 20h297l50 297q5 33 25 33t15 -33l-50 -297h296q10 0 15.5 -0.5t10.5 -5.5t4 -14q-4 -20 -37 -20h-296l-49 -297q-2 -11 -3.5 -15.5t-7.5 -11t-15 -6.5q-21 0 -14 33l49 297h-297q-10 0 -15.5 0.5t-10.5 5.5t-3 14z" />
<glyph unicode="," horiz-adv-x="319" d="M90 -182q0 5 12 13q84 71 100 170q2 11 1 18q-17 -19 -44 -19q-25 0 -36 15.5t-8 37.5q3 21 20 37t42 16q32 0 43.5 -30t3.5 -75q-5 -33 -19 -65t-30 -54.5t-32.5 -40t-28 -26t-15.5 -8.5q-11 0 -9 11z" />
<glyph unicode="-" horiz-adv-x="378" d="M57 187l10 58h279l-10 -58h-279z" />
<glyph unicode="." horiz-adv-x="319" d="M115 53q4 22 22 37.5t40 15.5t35 -15.5t9 -37.5t-22 -37.5t-40 -15.5t-35 15.5t-9 37.5z" />
<glyph unicode="/" horiz-adv-x="553" d="M34 -230q1 6 8 18l519 942q11 20 24 20q8 0 13 -6t4 -14q-1 -6 -8 -18l-519 -942q-11 -20 -25 -20q-8 0 -13 6t-3 14z" />
<glyph unicode="0" horiz-adv-x="553" d="M110 320q26 152 84 240q35 52 87 79t106 27q52 0 94.5 -26t61.5 -78q32 -89 5 -242q-26 -155 -82 -236q-75 -106 -194 -106q-117 0 -157 102q-30 81 -5 240zM173 118q3 -64 34 -91t69 -27q13 0 27 3.5t37 14.5t44.5 38.5t36.5 68.5q24 64 46 206q26 153 20 205 q-2 33 -14.5 56.5t-30 33.5t-31.5 14t-28 4q-37 0 -78.5 -26t-65.5 -92q-20 -55 -44 -195q-25 -156 -22 -213z" />
<glyph unicode="1" horiz-adv-x="553" d="M117 0l5 31h35q67 0 83.5 9.5t20.5 38.5l87 519q-61 -27 -142 -27l5 31q125 0 199 64q17 0 19.5 -4t-0.5 -22l-94 -561q-3 -17 -1 -27.5t22 -15.5t67 -5h35l-5 -31q-35 3 -167 3t-169 -3z" />
<glyph unicode="2" horiz-adv-x="553" d="M66 0q3 18 5 23t11 12l255 229q119 108 137 208q11 69 -20 116t-98 47q-50 0 -93.5 -28t-67.5 -74q3 1 12 1q25 0 36.5 -15.5t7.5 -36.5q-4 -27 -23 -40t-37 -13q-3 0 -7 0.5t-12.5 3.5t-14 8t-9.5 16.5t-1 27.5q12 71 76.5 126t150.5 55q95 0 150 -54t41 -140 q-7 -43 -34 -83t-50.5 -61t-71.5 -60q-8 -6 -45 -32.5t-48 -35.5l-156 -123h193q89 0 97 7q11 8 40 90h25l-57 -174h-392z" />
<glyph unicode="3" horiz-adv-x="553" d="M81 135q5 30 24 44t41 14q23 0 37 -15t10 -41q-5 -26 -26 -42.5t-48 -12.5q19 -44 65.5 -60t84.5 -16q49 0 92.5 38.5t58.5 126.5q13 78 -13.5 122t-87.5 44h-50q-15 0 -19 1.5t-3 9.5t6 9.5t20 2.5q54 3 77 10t48 31q22 23 37.5 54t20 47.5t5.5 26.5q10 59 -16 85.5 t-69 26.5q-40 0 -83.5 -15.5t-67.5 -46.5q13 0 23 -1.5t21.5 -13.5t7.5 -35q-4 -22 -20 -36.5t-39 -14.5q-22 0 -34.5 14t-8.5 38q10 59 70.5 97.5t138.5 38.5t128.5 -39.5t40.5 -98.5q-9 -51 -52 -100.5t-123 -75.5q77 -15 116 -66.5t29 -114.5q-13 -77 -86.5 -135 t-169.5 -58q-88 0 -143 44.5t-43 112.5z" />
<glyph unicode="4" horiz-adv-x="553" d="M71 165l5 31l400 467q13 14 23 14q11 0 13 -5.5t-1 -20.5l-76 -455h107l-5 -31h-107l-15 -87q-5 -29 6 -38t65 -9h23l-5 -31q-36 3 -139 3q-104 0 -142 -3l5 31h23q54 0 68 9t19 38l15 87h-282zM104 196h260l63 378z" />
<glyph unicode="5" horiz-adv-x="553" d="M93 162q5 28 22.5 40t35.5 12q23 0 34 -14.5t8 -34.5q-3 -19 -19.5 -34t-39.5 -15q-10 0 -16 2q8 -48 46 -80t93 -32q70 0 122 61q37 45 53 140q15 94 -3 137q-22 54 -78 54q-84 0 -144 -66q-12 -13 -20 -13q-9 0 -10 6.5t2 19.5l49 297q4 24 14 24q3 0 11 -5 q63 -27 136 -27t143 27l14 5q10 0 8 -11q-1 -5 -11 -16.5t-30.5 -26.5t-45.5 -28.5t-60 -23t-70 -9.5q-47 0 -91 14l-33 -198q63 53 144 53q85 0 131.5 -65t31.5 -154q-16 -93 -94.5 -158t-171.5 -65q-83 0 -128 56t-33 128z" />
<glyph unicode="6" horiz-adv-x="553" d="M111 317q26 155 125.5 252t208.5 97q66 0 94.5 -31t21.5 -77q-4 -26 -20.5 -37t-33.5 -11q-18 0 -30 12t-8 34q7 45 61 45q-21 40 -87 40q-18 0 -38.5 -4.5t-52 -23t-58 -48t-51.5 -86.5t-37 -133l-4 -24q21 39 60.5 71.5t92.5 32.5q39 0 69 -12.5t41.5 -23t27.5 -29.5 q51 -62 35 -157q-16 -98 -91 -162t-163 -64q-33 0 -61 10t-54 34t-39.5 63t-18 96.5t9.5 135.5zM184 85q2 -10 7 -20t15 -25t29 -24.5t44 -9.5q63 0 109 54q16 19 26 44.5t14 44.5t10 55q17 99 2 137q-25 63 -90 63t-108 -55.5t-54 -122.5q-15 -88 -4 -141z" />
<glyph unicode="7" horiz-adv-x="553" d="M150 470l68 206h25q0 -9 2 -13.5t13.5 -9t35.5 -6.5q35 -3 80 -3h256q-3 -23 -14 -35l-174 -189q-97 -105 -135 -338l-8 -49q-11 -55 -56 -55q-47 0 -36 55q34 204 209 396l125 138h-221q-90 0 -102 -5q-13 -6 -43 -92h-25z" />
<glyph unicode="8" horiz-adv-x="553" d="M83 151q6 37 25.5 68t51.5 54t52.5 35t54.5 28l-16.5 11t-15.5 11t-15.5 12.5t-14 12.5t-13 14.5t-10 15.5t-8.5 18t-4.5 20t-2 23t2.5 25q12 70 75.5 118.5t142.5 48.5q75 0 124.5 -41t38.5 -107q-15 -93 -153 -156l54 -37q86 -59 70 -158q-13 -79 -86.5 -134 t-164.5 -55q-86 0 -143.5 47.5t-44.5 125.5zM133 151q-10 -62 33 -103.5t112 -41.5q67 0 123 35t65 91q5 27 -6.5 51t-22 33.5t-28.5 21.5l-121 82q-67 -30 -106.5 -75t-48.5 -94zM221 538q-5 -33 10 -52.5t49 -42.5l98 -66q22 11 44 24.5t50.5 46.5t34.5 69q10 54 -27.5 89 t-97.5 35q-58 0 -106 -28.5t-55 -74.5z" />
<glyph unicode="9" horiz-adv-x="553" d="M98 86q5 26 21.5 37t32.5 11q18 0 30.5 -12t8.5 -34q-8 -46 -60 -46q24 -36 99 -36q21 0 42.5 6t49.5 24.5t52 48.5t45.5 84t33.5 124l5 31q-61 -105 -153 -105q-54 0 -85 18t-57 51q-47 60 -31 153q9 52 31 89t62 71q75 65 165 65q32 0 59.5 -10t53 -33.5t39 -62 t17.5 -96t-10 -135.5q-26 -155 -121 -253t-202 -98q-69 0 -102.5 29t-25.5 79zM220 300q25 -59 89 -59q66 0 109 56t54 123q14 101 4 145q0 2 -2 9t-8.5 19t-16 22.5t-26 18t-36.5 7.5q-65 0 -111 -53q-25 -28 -35 -59t-20 -89q-16 -101 -1 -140z" />
<glyph unicode=":" horiz-adv-x="319" d="M115 53q4 22 22 37.5t40 15.5t35 -15.5t9 -37.5t-22 -37.5t-40 -15.5t-35 15.5t-9 37.5zM169 378q4 22 22 37.5t40 15.5t35 -15.5t9 -37.5t-22 -37.5t-40 -15.5t-35 15.5t-9 37.5z" />
<glyph unicode=";" horiz-adv-x="319" d="M90 -182q0 4 10 13q77 74 95 180q-14 -11 -36 -11q-25 0 -36 15.5t-8 37.5q3 21 20 37t42 16q53 0 39 -103q-9 -53 -36.5 -101.5t-50.5 -71.5t-30 -23q-11 0 -9 11zM169 378q4 22 22 37.5t40 15.5t35 -15.5t9 -37.5t-22 -37.5t-40 -15.5t-35 15.5t-9 37.5z" />
<glyph unicode="&#x3c;" horiz-adv-x="844" d="M143 250q0 2 1 4.5t2 4t2.5 3l2.5 2.5t3.5 2.5t3.5 2l4 2t4 1.5l645 268q21 -2 18 -21q-3 -12 -23 -21l-594 -248l511 -248q18 -9 16 -21q-4 -20 -24 -20q-5 0 -16 5l-541 262q-18 9 -15 22z" />
<glyph unicode="=" horiz-adv-x="844" d="M98 153q3 20 37 20h631q10 0 16 -0.5t11 -5.5t4 -14q-4 -20 -37 -20h-633q-10 0 -15.5 0.5t-10.5 5.5t-3 14zM130 347q3 20 36 20h633q10 0 15.5 -0.5t10.5 -5.5t4 -14q-3 -20 -37 -20h-631q-10 0 -16 0.5t-11 5.5t-4 14z" />
<glyph unicode="&#x3e;" horiz-adv-x="844" d="M98 -20q2 13 22 22l595 248l-512 248q-17 9 -15 22q1 7 8 13t15 6q5 0 16 -5l541 -262q17 -9 16 -22q-2 -12 -24 -22l-645 -268q-10 1 -14.5 7.5t-2.5 12.5z" />
<glyph unicode="?" horiz-adv-x="524" d="M167 572q10 54 65.5 93.5t137.5 39.5q56 0 95 -13t56.5 -34t23 -43t1.5 -45q-11 -63 -67 -99q-156 -93 -177 -222l-6 -35q-2 -11 -3.5 -15.5t-5 -8t-9.5 -3.5q-8 0 -9.5 5.5t1.5 18.5l8 44q21 128 138 229q38 33 48 90q4 21 3.5 35t-7.5 33.5t-31.5 30t-65.5 10.5 q-100 0 -151 -68q8 0 14.5 -1t16.5 -4.5t14.5 -13.5t1.5 -26q-3 -20 -18 -33t-36 -13q-19 0 -30.5 12t-7.5 36zM203 53q4 22 22 37.5t40 15.5t35 -15.5t9 -37.5t-22 -37.5t-40 -15.5t-35 15.5t-9 37.5z" />
<glyph unicode="@" horiz-adv-x="844" d="M130 347q25 148 145 253t265 105q66 0 124.5 -26t99.5 -72t59 -116t5 -151q-35 -212 -143 -212q-36 0 -63 19t-27 54q-68 -73 -153 -73t-136.5 63.5t-35.5 155.5t88 155.5t157 63.5q42 0 78 -21.5t57 -63.5h37q17 0 20 -3.5t0 -20.5l-40 -240q-10 -67 26 -67q45 0 70 50 t39 136q26 159 -57 253t-210 94q-133 0 -245 -98t-135 -238q-23 -136 54 -236t219 -100q140 0 300 64q6 3 23 3h9h10.5t6.5 -1t4 -3t0 -6q-1 -8 -64 -30q-148 -49 -292 -49q-154 0 -236.5 107t-58.5 251zM339 347q-14 -83 18.5 -140t89.5 -57q77 0 141 76q15 19 18 39 l28 164q2 14 1 21t-9 23q-38 71 -113 71q-57 0 -108.5 -57t-65.5 -140z" />
<glyph unicode="A" d="M48 0l5 31q41 0 70 14.5t37.5 25.5t18.5 29l320 597q4 8 6.5 11t7 5.5t12.5 2.5q12 0 15.5 -4t6.5 -18l127 -626q5 -22 18.5 -29.5t59.5 -7.5h18l-5 -31l-130 3q-108 0 -145 -3l5 31q82 0 87 29q1 4 -2 18l-31 153h-266l-70 -130q-17 -25 -2.5 -47.5t59.5 -22.5l-5 -31 l-115 3q-39 0 -102 -3zM299 262h244l-67 330z" />
<glyph unicode="B" horiz-adv-x="771" d="M58 0l5 31h24q54 0 68 9t19 38l88 527q5 29 -6 38t-65 9h-24l5 31h378q99 0 157.5 -50.5t47.5 -118.5q-10 -56 -67 -99.5t-134 -57.5q88 -10 137 -60t38 -114q-12 -73 -88.5 -128t-176.5 -55h-406zM256 71q-5 -26 1.5 -33t40.5 -7h138q76 0 129 46.5t64 106.5 q10 60 -22.5 110t-104.5 50h-201zM305 366h156q80 0 133.5 45t63.5 103q8 50 -21 94t-99 44h-136q-34 0 -42.5 -7t-13.5 -33z" />
<glyph unicode="C" horiz-adv-x="786" d="M129 342q25 151 151 257t275 106q109 0 182 -89l65 77q10 12 18 12q7 0 8 -4.5t0 -15.5q-1 -2 -1 -4l-40 -237q-2 -16 -5 -20t-15 -4q-9 0 -11 3t-2 14q2 111 -53.5 174t-139.5 63q-26 0 -56.5 -6t-74.5 -27t-81 -55t-70 -97.5t-47 -147.5q-9 -70 -6 -122t23 -88.5 t43 -60.5t54 -37.5t56.5 -18.5t50.5 -5q90 0 170.5 61t103.5 164q8 15 15 16q9 0 10.5 -5t-0.5 -12q-16 -96 -107 -175.5t-211 -79.5q-150 0 -240 106t-65 258z" />
<glyph unicode="D" horiz-adv-x="829" d="M57 0l5 31h24q54 0 68 9t19 38l88 527q5 29 -6 38t-65 9h-24l5 31h378q133 0 210 -102t53 -245q-23 -140 -133.5 -238t-243.5 -98h-378zM258 71q-5 -26 1.5 -33t40.5 -7h113q115 0 196 78q77 75 103 227q25 147 -19 222q-55 94 -176 94h-113q-34 0 -42.5 -7t-13.5 -33z " />
<glyph unicode="E" horiz-adv-x="742" d="M55 0l5 31h24q54 0 68 9t19 38l87 524q5 29 -6 38t-65 9h-24l5 31h586l-9 -225h-25q3 57 -1.5 91t-23 59t-54 34.5t-94.5 9.5h-143q-34 0 -42.5 -7t-12.5 -33l-40 -240h98q71 0 96 24t36 93h25l-44 -265h-25q11 69 -6 93t-88 24h-98l-44 -267q-5 -26 1.5 -33t40.5 -7h151 q53 0 91 9.5t63.5 25.5t46 47t33.5 62t30 83h25l-85 -258h-601z" />
<glyph unicode="F" horiz-adv-x="713" d="M55 0l5 31h24q54 0 68 9t19 38l87 524q5 29 -6 38t-65 9h-24l5 31h570l-9 -225h-25q6 112 -25 153t-142 41h-133q-34 0 -42.5 -7t-12.5 -33l-43 -253h94q70 0 94.5 24.5t35.5 92.5h25l-44 -265h-25q11 69 -5 93t-86 24h-94l-41 -246q-4 -17 -1.5 -28t22.5 -15.5t66 -4.5 h33l-5 -31q-35 3 -167 3q-117 0 -153 -3z" />
<glyph unicode="G" horiz-adv-x="851" d="M129 342q25 150 150.5 256.5t275.5 106.5q37 0 68 -8.5t54 -25.5t33.5 -27t25.5 -28l65 77q10 12 18 12q7 0 8 -4.5t0 -15.5q-1 -2 -1 -4l-40 -237q-2 -16 -5 -20t-15 -4q-9 0 -11 3t-2 14q2 112 -53 174.5t-139 62.5q-29 0 -61.5 -7t-76 -29t-79.5 -56.5t-67.5 -97 t-44.5 -142.5q-9 -70 -6 -122t23.5 -89t44 -61t55 -37.5t57.5 -18.5t52 -5q11 0 23 0.5t41.5 7t52 18t43.5 36.5t27 59l10 64q3 17 1 27.5t-22 15.5t-67 5h-35l6 31q35 -3 165 -3l128 3l-6 -31q-49 0 -62 -6t-18 -38l-29 -174q-3 -23 -13 -23q-8 0 -27 22.5t-26 39.5 q-32 -42 -91.5 -63.5t-123.5 -21.5q-152 0 -241.5 106.5t-64.5 257.5z" />
<glyph unicode="H" d="M55 0l5 31h24q54 0 68 9t19 38l88 527q5 29 -6 38t-65 9h-24l5 31q34 -3 147 -3q112 0 148 3l-5 -31h-24q-54 0 -68 -9t-19 -38l-39 -234h319l39 234q5 29 -6 38t-65 9h-24l5 31q34 -3 147 -3q112 0 148 3l-5 -31h-24q-54 0 -68 -9t-19 -38l-88 -527q-5 -29 6 -38t65 -9 h24l-5 -31q-34 3 -147 3q-112 0 -148 -3l5 31h24q54 0 68 9t19 38l44 262h-319l-44 -262q-5 -29 6 -38t65 -9h24l-5 -31q-34 3 -147 3q-112 0 -148 -3z" />
<glyph unicode="I" horiz-adv-x="406" d="M50 0l5 31h26q56 0 70.5 9t19.5 38l88 527q5 29 -6.5 38t-67.5 9h-26l5 31q34 -3 152 -3q117 0 153 3l-5 -31h-26q-56 0 -70.5 -9t-19.5 -38l-88 -527q-5 -29 6.5 -38t67.5 -9h26l-5 -31q-34 3 -152 3q-117 0 -153 -3z" />
<glyph unicode="J" horiz-adv-x="567" d="M81 112q5 30 24.5 44t40.5 14q23 0 37 -15t10 -41q-9 -56 -73 -56q10 -25 39.5 -41.5t66.5 -16.5q44 0 83.5 40t50.5 109l76 455q4 17 1 28t-23 15.5t-68 4.5h-36l5 31q37 -3 167 -3l130 3l-5 -31q-51 0 -65 -6t-19 -36l-74 -444q-7 -37 -8 -41q-20 -66 -82.5 -106.5 t-133.5 -40.5t-112 39.5t-32 94.5z" />
<glyph unicode="K" horiz-adv-x="843" d="M55 0l5 31h24q54 0 68 9t19 38l88 527q5 29 -6 38t-65 9h-24l5 31q34 -3 147 -3q112 0 148 3l-5 -31h-24q-54 0 -68 -9t-19 -38l-53 -320l383 300q24 20 26 35q1 6 0 12.5t-10.5 13t-26.5 6.5l5 31q33 -3 126 -3q59 0 86 3l-5 -31q-83 -1 -157 -61l-218 -172l184 -337 q10 -19 20 -29.5t24.5 -15t25 -5.5t32.5 -1l-5 -31l-115 3q-108 0 -144 -3l5 31q57 0 62 29q2 10 -10 34l-149 271l-145 -114l-29 -173q-5 -29 6 -38t65 -9h24l-5 -31q-34 3 -147 3q-112 0 -148 -3z" />
<glyph unicode="L" horiz-adv-x="683" d="M55 0l5 31h24q54 0 68 9t19 38l88 527q5 29 -6 38t-65 9h-24l5 31q34 -3 151 -3q132 0 169 3l-5 -31h-33q-66 0 -82.5 -9.5t-20.5 -38.5l-89 -533q-5 -26 1.5 -33t40.5 -7h94q38 0 70 8t54.5 19t41.5 31.5t30 36.5t22 44t16 43.5t13 44.5h25l-71 -258h-541z" />
<glyph unicode="M" horiz-adv-x="989" d="M59 0l5 31q36 0 60 7t35 20.5t14.5 22.5t6.5 24l83 500q5 29 -6 38t-65 9h-24l5 31h169q17 0 22.5 -2.5t8.5 -15.5l137 -570l327 569q8 14 13.5 16.5t23.5 2.5h169l-5 -31h-24q-54 0 -68 -9t-19 -38l-88 -527q-5 -29 6 -38t65 -9h24l-5 -31q-36 3 -142 3q-107 0 -145 -3 l5 31h24q54 0 68 9t19 38l96 575l-1 1l-365 -636q-10 -18 -22 -18q-10 0 -16 18l-151 629l-1 -1l-90 -541q-4 -10 -2.5 -23t7 -24t27.5 -19t58 -8l-5 -31l-116 3z" />
<glyph unicode="N" d="M55 0l5 31q36 0 60 7t35 20.5t14.5 23t6.5 25.5l86 518q3 16 2 18q-1 9 -100 9l5 31h169q15 0 19.5 -2t10.5 -12l284 -522l71 429q4 11 2.5 24.5t-7 25t-27.5 19t-58 7.5l5 31l116 -3l118 3l-5 -31q-36 0 -60 -7t-35 -20.5t-14.5 -23t-6.5 -25.5l-91 -548q-3 -18 -6 -23 t-13 -5t-16 12l-334 617l-87 -522q-4 -11 -2.5 -24.5t7 -25t27.5 -19t58 -7.5l-5 -31l-116 3z" />
<glyph unicode="O" horiz-adv-x="844" d="M129 339q25 152 145.5 259t265.5 107q143 0 228 -106.5t60 -259.5q-25 -150 -145.5 -255.5t-265.5 -105.5q-143 0 -228 105t-60 256zM234 354q-14 -96 -4 -162.5t42 -108.5t70 -60.5t81 -18.5q41 0 85 19t88.5 57.5t80 109.5t50.5 164q12 90 1.5 152.5t-43.5 101 t-71 55.5t-80 17q-41 0 -84.5 -17.5t-87.5 -53.5t-78.5 -102t-49.5 -153z" />
<glyph unicode="P" horiz-adv-x="742" d="M57 0l5 31h24q54 0 68 9t19 38l88 527q5 29 -6 38t-65 9h-24l5 31h365q104 0 166 -55t50 -131q-12 -75 -93.5 -128t-175.5 -53h-181l-40 -238q-5 -29 6 -38t65 -9h24l-5 -31q-34 3 -147 3q-112 0 -148 -3zM303 342h150q48 0 84.5 12.5t56 28.5t32.5 41.5t16.5 39 t6.5 33.5q2 15 3 23t1 27t-4 30.5t-14 27t-26 25t-42.5 16t-61.5 6.5h-101q-34 0 -42.5 -7t-13.5 -33z" />
<glyph unicode="Q" horiz-adv-x="844" d="M129 339q25 152 145.5 259t265.5 107q143 0 228 -106.5t60 -259.5q-19 -116 -96 -205.5t-174 -127.5q15 -53 33.5 -75t52.5 -22t66 21.5t44 62.5q5 18 14 18q11 0 7 -21q-4 -24 -14 -52t-28 -59.5t-48.5 -52t-66.5 -20.5q-23 0 -39.5 6.5t-26.5 22t-16.5 29t-9.5 40 t-3.5 42.5t-1.5 47q-50 -15 -103 -15q-145 0 -229.5 105.5t-59.5 255.5zM229 339q-12 -63 -7.5 -113t16 -85.5t32.5 -61.5t41.5 -41t44.5 -23q-12 20 -7 49q5 34 33.5 59t65.5 25q41 0 63 -27.5t38 -79.5q143 87 179 298q13 92 2.5 157t-42.5 106t-71 59.5t-83 18.5 q-42 0 -87 -19t-89.5 -57t-79 -107t-49.5 -158zM371 64q-2 -11 0 -23.5t15 -25t37 -12.5q49 0 95 22q-6 101 -74 101q-28 0 -48.5 -19t-24.5 -43z" />
<glyph unicode="R" horiz-adv-x="800" d="M57 0l5 31h24q54 0 68 9t19 38l88 527q5 29 -6 38t-65 9h-24l5 31h324q113 0 184 -53.5t59 -126.5q-9 -53 -64.5 -97.5t-146.5 -65.5q56 -17 83 -52q19 -22 23 -45.5t3 -81.5q-1 -111 9 -135q10 -26 42 -26q14 0 27 5t30.5 26.5t27.5 57.5q5 16 15 16q13 0 10 -17 q-6 -34 -36 -72t-82 -38q-80 0 -121 41q-25 27 -27.5 61t8.5 83q11 51 8.5 78.5t-24.5 53.5q-31 36 -97 36h-125l-42 -253q-5 -29 6 -38t65 -9h24l-5 -31q-35 3 -145 3t-147 -3zM305 353h121q184 0 209 150q7 43 -3.5 72.5t-27.5 44.5t-51 22.5t-54.5 8.5t-57.5 1 q-51 0 -60 -1q-18 -2 -23.5 -9.5t-9.5 -29.5z" />
<glyph unicode="S" horiz-adv-x="611" d="M72 2l34 200q2 11 3 15t4.5 7t9.5 3q5 0 8 -2t2 -7q-13 -107 43 -158q57 -51 156 -51q65 0 111.5 43t55.5 100q9 54 -20 95q-18 24 -36 32.5t-65 20.5q-7 2 -23.5 5.5t-23.5 5.5q-68 17 -94.5 29.5t-52.5 46.5q-38 52 -27 124q14 80 83 137t155 57q44 0 79 -14t48 -26 t30 -32l46 59q11 13 18 13t8 -4.5t0 -15.5q-1 -2 -1 -4l-34 -201q-2 -15 -5 -19.5t-12 -4.5q-8 0 -9 3t-1 15q3 88 -36.5 145.5t-134.5 57.5q-62 0 -108.5 -39t-55.5 -92q-6 -36 13 -74t74 -52l131 -33q50 -13 81 -46.5t40.5 -73.5t2.5 -82q-14 -83 -82.5 -145t-159.5 -62 q-124 0 -184 72l-47 -60q-9 -12 -17 -12t-9 5.5t2 18.5z" />
<glyph unicode="T" horiz-adv-x="786" d="M127 452l57 225h643l-19 -225h-25q11 127 -15.5 160.5t-142.5 33.5q-48 0 -59 -2q-11 -1 -16.5 -6.5t-7.5 -11.5t-4 -20l-88 -527q-3 -17 -0.5 -27.5t24.5 -15.5t73 -5h40l-5 -31q-40 3 -189 3q-148 0 -190 -3l5 31h40q73 0 91 9.5t22 38.5l88 527q4 17 1.5 26.5 t-17.5 11.5q-9 2 -57 2q-42 0 -68.5 -2.5t-50 -11t-37 -20t-26.5 -35.5t-22 -52t-20 -73h-25z" />
<glyph unicode="U" d="M164 652l5 31q34 -3 147 -3q112 0 148 3l-5 -31h-24q-54 0 -68 -9t-19 -38l-63 -379q-6 -47 -4.5 -81.5t14.5 -58.5t27.5 -39t34.5 -23.5t35.5 -11.5t31.5 -3q81 0 151.5 60.5t87.5 161.5l57 347q4 10 2.5 23t-7 24t-27.5 19t-58 8l5 31l118 -3l119 3l-5 -31 q-36 0 -60 -7t-35 -20.5t-14.5 -23.5t-6.5 -26l-60 -360q-14 -84 -92.5 -160.5t-182.5 -76.5q-107 0 -172 73t-48 178l63 376q5 29 -6 38t-65 9h-24z" />
<glyph unicode="V" d="M143 652l5 31l126 -3q109 0 145 3l-5 -31q-81 0 -86 -29q-1 -5 2 -17l122 -513l278 490q9 14 10 20q3 18 -11 33t-52 16l5 31l113 -3q51 0 98 3l-5 -31q-85 0 -122 -65l-335 -589q-7 -13 -12 -16.5t-17 -3.5q-11 0 -14 4t-6 16l-147 616q-6 26 -20.5 32t-71.5 6z" />
<glyph unicode="W" horiz-adv-x="1106" d="M142 652l5 31l121 -3q108 0 144 3l-5 -31q-84 0 -89 -30q-1 -4 2 -18l87 -493l218 428l5 12q1 3 -5.5 38t-9.5 42q-6 13 -20.5 17t-58.5 4l5 31l120 -3q107 0 144 3l-5 -31q-84 0 -89 -30q-1 -2 0 -8t1 -7l89 -496l238 468q17 31 -1 51.5t-67 21.5l5 31l118 -3q47 0 92 3 l-5 -31q-80 -1 -114 -70l-298 -584q-11 -20 -24 -20q-5 0 -8 1.5t-4.5 5t-2 5.5t-1.5 8l-91 515l-262 -515q-11 -20 -24 -20q-3 0 -5 0.5t-4 1.5t-3 2t-1.5 3t-1 3t-1.5 4.5t-1 4.5l-108 616q-2 15 -6.5 22.5t-16.5 11.5t-23.5 4.5t-38.5 0.5z" />
<glyph unicode="X" d="M39 0l5 31q103 0 160 64l217 245l-151 277q-11 21 -27.5 28t-61.5 7h-19l5 31l129 -3q112 0 149 3l-5 -31q-27 0 -46.5 -9t-21.5 -20q-1 -6 4 -15l109 -197l151 170q15 17 15 27q3 16 -9.5 29.5t-41.5 14.5l5 31q35 -3 127 -3l112 3l-5 -31q-103 0 -159 -63l-181 -205 l171 -317q13 -23 31.5 -29.5t58.5 -6.5h19l-5 -31l-129 3q-112 0 -148 -3l5 31q30 1 48 10.5t19 18.5q1 4 -5 15l-129 238l-189 -213q-13 -14 -14 -25q-3 -15 9 -29t42 -15l-5 -31q-39 3 -127 3z" />
<glyph unicode="Y" d="M135 652l5 31l130 -3q113 0 149 3l-5 -31q-68 0 -72 -24q-1 -7 5 -20l144 -294l224 271q13 18 15 29q4 19 -9.5 28.5t-37.5 9.5l5 31l114 -3q52 0 99 3l-5 -31q-90 -2 -141 -64l-260 -315l-33 -193q-5 -31 6 -40t66 -9h23l-5 -31q-35 3 -145 3t-147 -3l5 31h24q54 0 68 9 t19 38l33 195l-169 345q-10 20 -27.5 27t-58.5 7h-19z" />
<glyph unicode="Z" horiz-adv-x="669" d="M75 17q1 9 10 20l516 615h-171q-106 0 -162.5 -44t-79.5 -150h-25l49 225h472q9 0 12.5 -0.5t7.5 -1.5t3 -4.5t0 -9.5q-2 -10 -10 -19l-515 -614h182q69 0 115 15.5t73.5 50t41.5 70.5t28 97h25l-62 -267h-487q-17 0 -21 2.5t-2 14.5z" />
<glyph unicode="[" horiz-adv-x="319" d="M97 -250l167 1000h142l-7 -40h-102l-153 -920h102l-7 -40h-142z" />
<glyph unicode="\" horiz-adv-x="500" d="M178 730q4 20 23 20q14 0 18 -22l184 -940l2 -18q-4 -20 -24 -20q-14 0 -18 22l-183 940z" />
<glyph unicode="]" horiz-adv-x="319" d="M-5 -250l7 40h102l153 920h-102l7 40h142l-167 -1000h-142z" />
<glyph unicode="^" horiz-adv-x="556" d="M92 584l310 160l256 -160l-15 -22l-252 123l-291 -123z" />
<glyph unicode="_" d="M-23 -138l4 26h814l-4 -26h-814z" />
<glyph unicode="`" horiz-adv-x="553" d="M257 659q2 13 15 24.5t27 11.5q16 0 32 -25l98 -145l-21 -19l-138 123q-16 16 -13 30z" />
<glyph unicode="a" horiz-adv-x="613" d="M34 0l4 25q23 1 40.5 7.5t30.5 21t18 22t15 23.5l229 413q5 8 7 11t6.5 5.5t11.5 2.5q14 0 18 -22l98 -444q5 -26 17 -33t54 -7l-4 -25q-72 3 -96 3l-107 -3l4 25q53 0 58 28q2 10 -11 60l-13 56h-207q-49 -88 -50 -99q0 -6 -0.5 -15.5t9 -19t28.5 -10.5l-4 -25l-82 3 q-41 0 -74 -3zM221 194h187l-52 241z" />
<glyph unicode="b" horiz-adv-x="580" d="M46 0l4 25q49 0 62 8t18 39l62 370q5 31 -5 39t-59 8l4 25h281q78 0 122 -38.5t36 -88.5q-7 -42 -49 -74t-99 -44q64 -8 100.5 -45t28.5 -86q-9 -55 -66.5 -96.5t-137.5 -41.5h-302zM195 68q-4 -30 1 -36.5t32 -6.5h98q62 0 99.5 36t43.5 77q4 24 -1 49.5t-28.5 47 t-62.5 21.5h-150zM230 278h112q69 0 106 35.5t43 73.5q4 9 0.5 26t-9.5 34t-27 29.5t-53 12.5h-96q-27 0 -35 -7t-13 -36z" />
<glyph unicode="c" horiz-adv-x="591" d="M94 257q19 113 115 192t210 79q83 0 135 -63l47 51q12 12 17 12q7 0 8 -6t-2 -18l-28 -169q-2 -15 -5 -19.5t-12 -4.5t-11 13q1 89 -42.5 134t-104.5 45q-18 0 -39 -4t-54 -19t-60.5 -40t-52.5 -72.5t-35 -110.5q-7 -55 -4.5 -94.5t18.5 -66.5t33 -44t41 -26t40.5 -12 t31.5 -3q67 0 127 45t78 121q3 16 14 16q13 0 11 -16q-12 -71 -80.5 -131t-160.5 -60q-114 0 -184 79t-51 192z" />
<glyph unicode="d" horiz-adv-x="624" d="M45 0l4 25q49 0 62 8t18 39l62 370q5 31 -5 39t-59 8l4 25h281q106 0 163.5 -77.5t39.5 -183.5q-17 -104 -101 -178.5t-188 -74.5h-281zM197 68q-4 -30 1 -36.5t32 -6.5h77q101 0 163 72q46 54 62 156q19 115 -15 171q-40 65 -132 65h-77q-27 0 -35 -7t-13 -36z" />
<glyph unicode="e" horiz-adv-x="558" d="M43 0l4 25q49 0 62 8t18 39l61 367q5 31 -5 39t-59 8l4 25h445l-9 -169h-25q5 84 -19.5 114t-109.5 30h-102q-27 0 -34.5 -6.5t-12.5 -36.5l-28 -165h70q54 0 73 17.5t28 69.5h25l-33 -199h-25q9 52 -4.5 69.5t-67.5 17.5h-70l-31 -185q-4 -30 1 -36.5t32 -6.5h108 q63 0 100.5 18.5t57 51.5t39.5 99h25l-61 -194h-457z" />
<glyph unicode="f" horiz-adv-x="536" d="M43 0l4 25q49 0 62 8t18 39l61 367q5 31 -5 39t-59 8l4 25h434l-9 -169h-25q7 85 -18 114.5t-107 29.5h-95q-27 0 -34.5 -6.5t-12.5 -36.5l-29 -175h67q54 0 72 17.5t27 69.5h25l-33 -199h-25q9 52 -3.5 69.5t-66.5 17.5h-67l-28 -168q-6 -36 7.5 -43t73.5 -7l-4 -25 l-122 3z" />
<glyph unicode="g" horiz-adv-x="641" d="M94 257q19 113 115 192t209 79q87 0 135 -63l47 51q12 12 17 12q11 0 6 -24l-28 -169q-2 -15 -5 -19.5t-12 -4.5t-11 13q1 89 -42 134t-104 45q-19 0 -41 -4t-54.5 -19.5t-59.5 -40.5t-51.5 -72.5t-34.5 -109.5q-7 -53 -5 -92t17.5 -66.5t33 -44.5t41 -26.5t41.5 -13 t36 -3.5q51 0 88 20q20 11 32 24t14.5 21.5t5.5 24.5l5 30q6 32 -6 41.5t-66 9.5h-20l5 25q34 -3 128 -3q49 0 100 3l-5 -25q-38 0 -48 -7.5t-15 -37.5l-19 -113q-3 -23 -13 -23q-8 0 -22.5 16.5t-19.5 28.5q-53 -60 -158 -60q-117 0 -186 79.5t-50 191.5z" />
<glyph unicode="h" horiz-adv-x="613" d="M43 0l4 25q49 0 62 8t18 39l62 370q5 31 -5 39t-59 8l4 25l107 -3l109 3l-4 -25q-49 0 -62 -8t-18 -39l-27 -162h239l27 162q5 31 -5 39t-59 8l4 25l107 -3l109 3l-4 -25q-49 0 -62 -8t-18 -39l-62 -370q-5 -31 5 -39t59 -8l-4 -25l-107 3l-109 -3l4 25q49 0 62 8t18 39 l31 183h-239l-31 -183q-5 -31 5 -39t59 -8l-4 -25l-107 3z" />
<glyph unicode="i" horiz-adv-x="302" d="M39 0l4 25q53 0 66 7.5t18 40.5l62 368q5 33 -5 40.5t-63 7.5l4 25l111 -3l113 3l-4 -25q-53 0 -66 -7.5t-18 -40.5l-62 -368q-5 -33 5 -40.5t63 -7.5l-4 -25l-111 3z" />
<glyph unicode="j" horiz-adv-x="424" d="M60 84q4 21 17.5 32t31.5 11q30 0 34 -28q5 -29 -21 -46q-13 -8 -29 -9q24 -36 77 -36q29 0 58.5 26.5t38.5 81.5l54 323q6 31 -5 40.5t-62 9.5h-18l4 25q39 -3 121 -3q59 0 96 3l-4 -25q-40 0 -48.5 -9t-16.5 -56l-47 -280q-8 -47 -10 -52q-17 -48 -63 -77t-99 -29 t-84.5 29t-24.5 69z" />
<glyph unicode="k" horiz-adv-x="636" d="M43 0l4 25q49 0 62 8t18 39l62 370q5 31 -5 39t-59 8l4 25l107 -3l109 3l-4 -25q-49 0 -62 -8t-18 -39l-37 -222l258 197q37 29 41 53q3 16 -13 19l4 25q42 -3 92 -3q28 0 64 3l-4 -25q-27 -2 -46 -9t-75.5 -45.5t-161.5 -121.5l134 -234q20 -35 37 -44.5t45 -9.5l-4 -25 q-41 3 -84 3l-105 -3l4 25q33 0 36 21q3 18 -15 46l-103 179l-110 -85l-19 -114q-5 -31 5 -39t59 -8l-4 -25l-107 3z" />
<glyph unicode="l" horiz-adv-x="513" d="M43 0l4 25q49 0 62 8t18 39l62 370q5 31 -5 39t-59 8l4 25l110 -3l124 3l-4 -25q-60 0 -76.5 -7t-22.5 -43l-62 -371q-4 -30 1 -36.5t32 -6.5h63q40 0 71 11t49 25t32 40t20 43.5t14 49.5h25l-51 -194h-411z" />
<glyph unicode="m" horiz-adv-x="747" d="M47 0l4 25q25 0 42.5 8t26 22.5t11.5 23.5t5 22l57 341q5 31 -5 39t-59 8l4 25h121q17 0 22.5 -2.5t8.5 -15.5l102 -421l241 420q8 14 13.5 16.5t23.5 2.5h121l-4 -25q-49 0 -62 -8t-18 -39l-62 -370q-5 -31 5 -39t59 -8l-4 -25q-99 3 -103 3l-105 -3l4 25q49 0 62 8 t18 39l69 412l-1 1l-268 -467q-10 -18 -22 -18q-10 0 -16 18l-110 460l-1 -1l-63 -376q-13 -76 59 -76l-4 -25q-37 3 -85 3z" />
<glyph unicode="n" horiz-adv-x="613" d="M43 0l4 25q25 0 42.5 8t26 22.5t11.5 23.5t5 22l63 381q-18 7 -70 7l4 25h120q11 0 14.5 -0.5t6.5 -3t7 -9.5l212 -385l50 297q13 76 -59 76l4 25q36 -3 85 -3l87 3l-4 -25q-25 0 -42.5 -8t-26 -22.5t-11.5 -23.5t-5 -22l-65 -387q-2 -11 -3 -15.5t-4.5 -7.5t-10.5 -3 q-9 0 -15 11l-241 436l-8 12l-60 -358q-13 -76 59 -76l-4 -25q-37 3 -85 3z" />
<glyph unicode="o" horiz-adv-x="636" d="M94 255q18 112 109.5 192.5t202.5 80.5t175.5 -80.5t46.5 -192.5q-19 -113 -110.5 -191t-201.5 -78t-175.5 78.5t-46.5 190.5zM181 266q-9 -74 -1.5 -123t32.5 -78t52 -41t56 -12t60.5 12.5t65 40t60 79.5t37.5 122q9 70 1 116t-34 73t-52.5 37.5t-55.5 10.5 q-28 0 -59 -11.5t-64 -36t-60 -74t-38 -115.5z" />
<glyph unicode="p" horiz-adv-x="558" d="M45 0l4 25q49 0 62 8t18 39l62 370q5 31 -5 39t-59 8l4 25h271q83 0 129.5 -42.5t37.5 -98.5q-9 -57 -70.5 -98t-136.5 -41h-134l-27 -162q-5 -31 5 -39t59 -8l-4 -25l-107 3zM229 257h109q44 0 74 11.5t44 33t19 36t8 35.5q3 17 4 28t-2.5 29.5t-13.5 29.5t-34 20t-60 9 h-69q-27 0 -35 -7t-13 -36z" />
<glyph unicode="q" horiz-adv-x="636" d="M94 255q18 112 109.5 192.5t202.5 80.5t175.5 -80.5t46.5 -192.5q-15 -89 -74.5 -155t-128.5 -92q7 -23 15.5 -38t18 -20t15.5 -6.5t14 -1.5q23 0 46 13t32 39q5 17 14 17q10 0 8 -19q-8 -46 -40 -91t-81 -45q-20 0 -34.5 8t-22 18.5t-12 32.5t-5.5 36.5t-3 44.5 q-30 -10 -74 -10q-110 0 -175.5 78.5t-46.5 190.5zM177 255q-7 -59 -4 -98.5t19.5 -68t33 -43t36.5 -22.5q-1 1 -1.5 3.5t-1.5 10t1 14.5q4 25 26.5 44t51.5 19q18 0 31.5 -6.5t23 -21.5t13 -22.5t10.5 -24.5q103 63 129 216q21 126 -26 187t-117 61q-31 0 -63.5 -13 t-65.5 -40.5t-59 -78t-37 -116.5zM282 51q1 -4 0 -12.5t9 -18t29 -9.5q40 0 68 14q-4 67 -54 67q-20 0 -35 -12t-17 -29z" />
<glyph unicode="r" horiz-adv-x="602" d="M45 0l4 25q49 0 62 8t18 39l62 370q5 31 -5 39t-59 8l4 25h240q89 0 142.5 -40.5t44.5 -94.5q-7 -44 -50.5 -77t-101.5 -47q25 -10 40.5 -24t22 -32.5t8 -28.5t2.5 -30q4 -93 9 -108q11 -24 31 -24q8 0 16 2t22.5 17.5t22.5 42.5q0 13 14 13q13 0 10 -15 q-4 -25 -27 -53.5t-65 -28.5q-70 0 -98 33q-19 22 -21 43t7 62q6 32 6 53.5t-12 36.5q-27 32 -77 32h-90l-29 -174q-5 -31 5 -39t59 -8l-4 -25l-106 3zM231 268h88q46 0 77.5 11t46 30.5t20.5 34.5t9 35q6 38 -3 62t-34 33.5t-46 12t-57 2.5q-45 0 -53 -3q-12 -6 -19 -40z " />
<glyph unicode="s" horiz-adv-x="458" d="M53 10l22 135q2 11 3 15t4.5 7t9.5 3q11 0 11 -9q-11 -74 30 -111q42 -39 117 -39q49 0 84 32t41 72q9 47 -19 75q-14 15 -26.5 20.5t-54.5 15.5q-72 17 -93.5 25.5t-39.5 29.5q-37 45 -27 101q10 60 62 103t119 43q75 0 117 -49q19 22 23 26q20 23 26 23q7 0 8 -6 t-2 -18l-23 -136q-2 -15 -5 -19.5t-12 -4.5q-10 0 -10 13q1 20 -1.5 38t-12.5 47t-38.5 46.5t-72.5 17.5q-48 0 -82 -29t-40 -66q-10 -63 51 -89q2 -1 59 -15q66 -16 86 -25t42 -36q4 -5 9 -13.5t11 -35.5t2 -55q-10 -62 -62.5 -109t-122.5 -47q-91 0 -138 49 q-15 -18 -23 -26q-20 -23 -26 -23q-11 0 -6 24z" />
<glyph unicode="t" horiz-adv-x="591" d="M93 339l42 169h491l-14 -169h-25q9 94 -12 119t-103 25q-43 0 -52 -5.5t-15 -37.5l-60 -364q-6 -32 5.5 -41.5t66.5 -9.5h21l-4 -25q-38 3 -137 3t-139 -3l4 25h21q55 0 69.5 9.5t20.5 41.5l60 364q6 32 -1 37.5t-50 5.5q-84 0 -113 -25t-51 -119h-25z" />
<glyph unicode="u" horiz-adv-x="613" d="M125 489l4 25l107 -3l109 3l-4 -25q-49 0 -62 -8t-18 -39l-45 -269q-4 -38 -3 -64.5t12.5 -44.5t22.5 -28.5t27 -16t26 -7t20 -1.5q58 0 113 43.5t69 123.5l39 235q13 76 -59 76l4 25q40 -3 84 -3q46 0 85 3l-4 -25q-71 0 -83 -62l-44 -266q-11 -62 -70.5 -118.5 t-139.5 -56.5t-128.5 49t-44.5 113q0 12 10 75l36 217q6 33 -3.5 41t-59.5 8z" />
<glyph unicode="v" horiz-adv-x="613" d="M106 489l4 25q39 -3 93 -3l106 3l-4 -25q-51 0 -56 -27q-1 -5 4 -24l90 -360l198 338q12 19 13 30q8 39 -34 43l4 25q39 -3 81 -3q37 0 70 3l-4 -25q-61 -4 -98 -66l-243 -414l-8 -12t-6.5 -5.5t-11.5 -2.5q-5 0 -8 1t-4.5 4.5t-2 5.5t-2.5 9l-113 440q-7 26 -17.5 33 t-50.5 7z" />
<glyph unicode="w" horiz-adv-x="836" d="M105 489l4 25q39 -3 89 -3l106 3l-4 -25q-55 0 -60 -29q-1 -7 2 -19l65 -348l160 307l6 13q-6 46 -13 57q-5 12 -15.5 15.5t-39.5 3.5l4 25q39 -3 89 -3l106 3l-4 -25q-54 0 -59 -29q-2 -10 1 -21l66 -346l167 322q9 13 11 29t-9 30t-37 15l4 25l86 -3q36 0 69 3l-4 -25 q-56 -3 -92 -72l-213 -408q-11 -20 -24 -20q-14 0 -17 22l-68 364l-192 -367q-9 -19 -23 -19t-17 19l-84 447q-4 22 -15.5 28t-44.5 6z" />
<glyph unicode="x" horiz-adv-x="613" d="M29 0l4 25q45 1 76.5 20t64.5 54l140 155l-106 190q-11 21 -19.5 29.5t-22.5 12t-44 3.5l4 25q43 -3 95 -3l108 3l-4 -25q-22 -1 -33 -15.5t0 -33.5l74 -129l97 106q18 18 21 37q5 31 -24 35l4 25l91 -3q43 0 82 3l-4 -25q-71 -2 -130 -62l-125 -137q137 -244 142 -249 q16 -16 68 -16l-4 -25q-46 3 -94 3l-109 -3l4 25q34 2 38 27q1 9 -4 18l-92 163l-114 -123q-29 -34 -32 -50q-5 -32 25 -35l-4 -25q-42 3 -91 3q-45 0 -82 -3z" />
<glyph unicode="y" horiz-adv-x="613" d="M101 489l4 25q44 -3 96 -3l109 3l-4 -25q-41 0 -45 -20q-1 -11 8 -27l104 -203l153 182q19 23 22 38q3 27 -24 30l4 25q39 -3 81 -3q38 0 71 3l-4 -25q-64 -3 -120 -70l-181 -214l-21 -130q-6 -34 3.5 -42t59.5 -8l-4 -25l-106 3l-107 -3l4 25q49 0 62 8t18 39l22 134 l-129 251q-10 20 -24 26t-52 6z" />
<glyph unicode="z" horiz-adv-x="502" d="M54 15q0 7 10 18l385 456h-123q-78 0 -120.5 -32t-59.5 -112h-25l36 169h354q16 0 20.5 -2t2.5 -12q0 -6 -9 -17l-384 -455h130q51 0 85.5 11t55 36.5t31.5 52.5t21 73h25l-46 -201h-366q-17 0 -21 2t-2 13z" />
<glyph unicode="{" horiz-adv-x="500" d="M114 250q1 11 16 11q64 4 111 45q22 20 29 41t20 97l31 183q10 53 72 88t139 35q8 0 11 -0.5t5.5 -3t1.5 -7.5q-2 -9 -11 -11q-32 -2 -57.5 -10.5t-35.5 -15.5t-25 -20q-20 -18 -27 -39t-17 -80l-30 -180q-3 -17 -7.5 -29t-17.5 -34t-42.5 -40t-72.5 -30q97 -29 99 -103 q0 -7 -14 -91l-25 -150q-6 -36 -5 -48q3 -32 30 -57.5t81 -28.5q5 -1 6.5 -1t5 -1t2.5 -3t0 -6q-2 -11 -22 -11q-84 0 -132 38q-32 25 -36.5 56.5t5.5 72.5l33 198q6 35 -3 60.5t-29 38t-38 18.5t-37 7q-5 1 -6.5 1t-5 1t-2.5 3t0 6z" />
<glyph unicode="|" horiz-adv-x="278" d="M83 -217l156 934q5 33 25 33t15 -33l-156 -934q-2 -11 -3.5 -15.5t-7.5 -11t-15 -6.5q-21 0 -14 33z" />
<glyph unicode="}" horiz-adv-x="500" d="M32 -239q2 9 11 11q33 2 58.5 10.5t35.5 15.5t25 20q20 17 26.5 37.5t16.5 81.5l31 180q2 12 4 21.5t11 27t23 31t40.5 28.5t61.5 25q-97 29 -99 103q0 13 13 91l25 150q6 36 5 48q-3 32 -30 57.5t-81 28.5q-6 1 -8 1.5t-4 2.5t-2 7q2 11 22 11q83 0 133 -38 q31 -25 36 -56.5t-6 -72.5l-33 -198q-6 -35 3.5 -60.5t29 -38t37.5 -18.5t38 -7q6 -1 8 -1.5t4 -2.5t2 -7q-2 -11 -16 -11q-62 -4 -112 -45q-22 -20 -29 -42t-20 -96l-30 -183q-10 -53 -72.5 -88t-139.5 -35q-7 0 -10 0.5t-6 3t-2 7.5z" />
<glyph unicode="~" horiz-adv-x="556" d="M35 210l61 44q22 16 63 35q43 18 76 18q27 0 53 -11t44 -24.5t43.5 -24.5t51.5 -11q68 0 165 71l11 -17l-61 -44q-23 -17 -63 -35q-41 -18 -76 -18q-27 0 -53 11t-44 24.5t-43.5 24.5t-51.5 11q-68 0 -165 -71z" />
<glyph unicode="&#xa1;" horiz-adv-x="319" d="M78 -165l116 456q4 22 17 22t10 -23l-36 -444l-1 -11q-4 -23 -22 -37t-39 -14t-35 14t-10 37zM181 447q3 22 21 37.5t40 15.5t35 -15.5t10 -37.5q-4 -22 -22 -37.5t-40 -15.5t-35 15.5t-9 37.5z" />
<glyph unicode="&#xa2;" horiz-adv-x="591" d="M94 257q18 108 106.5 185t197.5 85l3 17q2 15 17 15q6 0 10 -4.5t3 -10.5l-3 -16q78 -3 126 -63l47 51q12 12 17 12q7 0 8 -6t-2 -18l-28 -169q-2 -15 -5 -19.5t-12 -4.5t-11 13q1 87 -41.5 132.5t-102.5 46.5l-82 -492q66 1 125.5 46t77.5 120q3 16 14 16q13 0 11 -16 q-12 -69 -78 -128t-154 -63l-3 -16q-1 -6 -6.5 -10.5t-11.5 -4.5q-14 0 -12 15l3 17q-107 8 -169.5 85t-44.5 185zM180 257q-11 -55 -4 -96t19.5 -67.5t35 -44t41.5 -25.5t40 -11l82 488q-22 -4 -43.5 -11t-49.5 -25t-50.5 -43t-42 -68t-28.5 -97z" />
<glyph unicode="&#xa3;" d="M84 93q9 52 60.5 83t114.5 31q53 0 101 -35q5 52 7 155h-183l5 30h178q0 92 11 157q12 73 78.5 121t146.5 48q72 0 118.5 -28.5t38.5 -81.5q-4 -20 -19.5 -33t-34.5 -13t-30.5 13.5t-7.5 32.5q3 19 18.5 32.5t34.5 13.5h2q-30 38 -124 38q-54 0 -98 -42.5t-53 -100.5 q-12 -71 -12 -157h160l-5 -30h-156q-4 -144 -15 -206v-3l14.5 -14.5t15.5 -15t14.5 -13.5t16.5 -14t15.5 -11.5t17.5 -11.5t17 -8t20 -7.5t20 -3.5t22 -2q56 0 100 45.5t55 108.5h26q-15 -86 -52.5 -146t-97.5 -60q-23 0 -45 7t-36.5 13t-37 25t-29.5 25.5t-32.5 33.5 t-28.5 30q-21 -59 -90 -90t-153 -31q-45 0 -70.5 34t-17.5 81zM110 93q-6 -36 13.5 -62.5t53.5 -26.5q63 0 115.5 37.5t62.5 94.5l2 12q-49 33 -103 33q-53 0 -95.5 -23.5t-48.5 -64.5z" />
<glyph unicode="&#xa4;" horiz-adv-x="844" d="M175 3q-3 4 -3.5 8.5t0.5 7.5t5 7.5t6.5 7t7.5 6.5l90 78q-17 26 -24 56t-4 58t13 56.5t25 52t34 42.5l-64 77q-21 23 -4 38q6 5 11.5 6t10.5 -2t7.5 -5.5l7.5 -7.5l64 -78q66 48 141 48t125 -48l88 77q6 5 9.5 7.5t9.5 5.5t11 2t10 -6q2 -2 3 -4.5t1 -5v-4t-2 -4.5 t-3 -4t-3.5 -4t-3.5 -4t-4.5 -4l-3.5 -3l-89 -77q28 -42 28 -94t-20 -96t-52 -76l64 -77q19 -23 3 -37q-17 -14 -36 9l-64 77q-66 -48 -141 -48t-125 48l-90 -77q-27 -23 -39 -9zM295 250q-12 -70 29.5 -119.5t111.5 -49.5t127.5 49.5t69.5 119.5q11 70 -30 119.5t-111 49.5 t-128 -49.5t-69 -119.5z" />
<glyph unicode="&#xa5;" d="M135 652l5 31l130 -3q113 0 149 3l-5 -31q-68 0 -72 -24q-1 -7 5 -20l130 -265h38l200 242q13 18 15 29q4 19 -9.5 28.5t-37.5 9.5l5 31l114 -3q52 0 99 3l-5 -31q-90 -2 -141 -64l-203 -245h156l-5 -30h-176l-32 -40l-15 -86h202l-5 -30h-202l-13 -77q-5 -31 6 -40 t66 -9h23l-5 -31q-35 3 -145 3t-147 -3l5 31h24q54 0 68 9t19 38l13 79h-200l5 30h200l15 86l-20 40h-174l5 30h154l-134 275q-10 20 -27.5 27t-58.5 7h-19z" />
<glyph unicode="&#xa6;" horiz-adv-x="278" d="M83 -217l62 374q3 15 23 15q8 0 13 -4.5t4 -10.5l-62 -374q-2 -11 -3.5 -15.5t-7.5 -11t-15 -6.5q-21 0 -14 33zM176 343l63 374q5 33 25 33t15 -33l-63 -374q-2 -15 -22 -15q-8 0 -13.5 4t-4.5 11z" />
<glyph unicode="&#xa7;" horiz-adv-x="538" d="M91 306q6 39 37 69t75 48q-33 52 -23 115q12 73 73 125t135 52q69 0 106.5 -55t24.5 -131q-3 -19 -18.5 -32.5t-34.5 -13.5t-30.5 13.5t-8.5 32.5t19 32.5t35 13.5q5 0 13 -2q-7 43 -37.5 69.5t-75.5 26.5q-50 0 -91 -38.5t-50 -92.5q-13 -73 83 -122l93 -45 q58 -29 91 -74.5t23 -102.5q-13 -77 -111 -118q33 -53 23 -114q-13 -74 -74 -125.5t-135 -51.5q-69 0 -106 55t-25 131q3 19 19 32.5t35 13.5t30 -13.5t8 -32.5t-19 -32.5t-35 -13.5q-4 0 -12 2q6 -43 37 -69.5t76 -26.5q50 0 91 38.5t50 92.5q12 74 -84 122l-92 45 q-59 29 -92 74t-23 103zM169 306q-12 -69 76 -113l93 -45q39 -20 64 -50q39 27 50 96q12 69 -76 113l-92 45q-37 18 -65 49q-39 -28 -50 -95z" />
<glyph unicode="&#xa8;" horiz-adv-x="553" d="M240 601q4 20 20.5 34t35.5 14q20 0 32 -14.5t8 -33.5q-3 -19 -19.5 -33.5t-36.5 -14.5q-19 0 -31 14t-9 34zM416 601q4 20 20.5 34t35.5 14q20 0 32 -14.5t8 -33.5q-3 -19 -19.5 -33.5t-36.5 -14.5q-19 0 -31 14t-9 34z" />
<glyph unicode="&#xa9;" horiz-adv-x="683" d="M57 342q23 141 140 241t259 100q141 0 224 -100t60 -241q-23 -142 -140 -242t-258 -100q-142 0 -225 100t-60 242zM97 342q-21 -125 53 -213.5t199 -88.5t227.5 88.5t123.5 213.5q21 124 -52.5 212.5t-198.5 88.5t-228 -88t-124 -213zM209 342q13 80 79.5 136t145.5 56 q58 0 97 -47l34 41q5 6 10 6q4 0 3 -13l-21 -125q-5 -12 -10 -13q-8 0 -8 9q1 59 -28 92.5t-73 33.5q-14 0 -30 -3t-39.5 -14.5t-43.5 -29.5t-37.5 -51.5t-24.5 -78.5q-9 -52 0.5 -89t32 -54.5t43.5 -24.5t42 -7q48 0 90.5 32t54.5 87q2 8 8 8t4 -9q-8 -51 -56 -93t-111 -42 q-79 0 -127 56.5t-35 136.5z" />
<glyph unicode="&#xaa;" horiz-adv-x="515" d="M85 334l3 17q52 2 84 52l183 289q9 13 21 13q11 0 15 -15l93 -311q5 -18 15.5 -23t45.5 -5l-3 -17l-81 2l-89 -2l3 17q44 0 47 20q1 4 -10 42l-13 39h-174q-37 -61 -39 -69q-1 -6 -0.5 -11.5t9 -12.5t24.5 -8l-3 -17l-70 2q-25 0 -61 -2zM106 283q-13 0 -13 8q4 11 17 13 h397q7 0 10.5 -3t2.5 -8q-2 -10 -17 -10h-397zM237 469h157l-50 169z" />
<glyph unicode="&#xab;" horiz-adv-x="611" d="M171 242q2 5 5 7q119 97 188 228q3 6 11 6h2q5 0 7 -4t0 -8q-50 -121 -141 -229q54 -106 65 -230q0 -12 -12 -12h-2q-8 0 -8 7q-28 133 -113 227q-2 4 -2 8zM346 242q2 5 5 7q119 97 188 228q3 6 11 6h2q5 0 7 -4t0 -8q-50 -121 -141 -229q54 -106 65 -230q0 -12 -12 -12 h-2q-8 0 -8 7q-28 133 -113 227q-2 4 -2 8z" />
<glyph unicode="&#xac;" horiz-adv-x="844" d="M147 327q-19 0 -16 19q2 17 17 20q3 1 5 1h659q8 0 13 -6t4 -14l-32 -194q-4 -20 -24 -20q-8 0 -13 6t-3 14l29 174h-639z" />
<glyph unicode="&#xad;" horiz-adv-x="378" d="M57 187l10 58h279l-10 -58h-279z" />
<glyph unicode="&#xae;" horiz-adv-x="683" d="M57 342q23 141 140 241t259 100q141 0 224 -100t60 -241q-23 -142 -140 -242t-258 -100q-142 0 -225 100t-60 242zM97 342q-21 -125 53 -213.5t199 -88.5t227.5 88.5t123.5 213.5q21 124 -52.5 212.5t-198.5 88.5t-228 -88t-124 -213zM193 167l3 16h12q29 0 36.5 4.5 t9.5 20.5l46 279q2 9 0.5 14.5t-10 8t-28.5 2.5h-12l3 16h171q60 0 98 -28.5t31 -66.5q-5 -28 -34.5 -51.5t-77.5 -34.5q30 -9 44 -28q10 -12 12 -24t2 -43v-6q0 -27 0.5 -37.5t3 -22.5t8 -15.5t15.5 -3.5q33 0 45 47q3 8 8 8q6 0 6 -9q-2 -10 -8 -22t-20.5 -24t-34.5 -12 q-42 0 -64 22q-13 14 -14.5 32t4.5 44q6 27 5 41.5t-13 28.5q-19 19 -52 19h-66l-22 -134q-2 -9 -0.5 -14.5t10 -8t28.5 -2.5h12l-3 -16q-19 1 -77 1t-77 -1zM324 354h64q98 0 110 79q4 23 -2 38.5t-15 23.5t-27 12t-29 4.5t-30 0.5q-27 0 -31 -1q-9 -1 -12 -5t-5 -15z" />
<glyph unicode="&#xaf;" horiz-adv-x="553" d="M185 585l5 31h378l-5 -31h-378z" />
<glyph unicode="&#xb0;" horiz-adv-x="415" d="M151 538q10 60 60 102.5t110 42.5q61 0 96.5 -42.5t25.5 -102.5q-11 -61 -60.5 -103.5t-110.5 -42.5q-60 0 -95.5 42.5t-25.5 103.5zM191 538q-7 -44 18.5 -75t69.5 -31t80.5 31t43.5 75t-19 74.5t-70 30.5t-80 -31t-43 -74z" />
<glyph unicode="&#xb1;" horiz-adv-x="844" d="M75 20q4 20 37 20h297l48 287h-297q-10 0 -15.5 0.5t-10.5 5.5t-4 14q3 20 36 20h297l49 294q2 11 3.5 15.5t7.5 11t15 6.5q21 0 14 -33l-49 -294h296q10 0 15.5 -0.5t10.5 -5.5t4 -14q-3 -20 -36 -20h-296l-48 -287h296q10 0 15.5 -0.5t10.5 -5.5t3 -14q-3 -20 -36 -20 h-633q-10 0 -15.5 0.5t-10.5 5.5t-4 14z" />
<glyph unicode="&#xb2;" horiz-adv-x="397" d="M99 306q2 14 11 21l178 137q85 66 94 125q7 41 -16 69.5t-71 28.5q-36 0 -67.5 -17t-47.5 -44h9q18 0 26.5 -9t6.5 -22q-3 -17 -16.5 -24.5t-25.5 -7.5q-5 0 -11 1t-15 9.5t-6 23.5q7 42 52.5 75t106.5 33q69 0 109.5 -32t31.5 -84q-4 -26 -22 -49.5t-35.5 -37 t-50.5 -35.5q-9 -6 -34.5 -22t-30.5 -19l-110 -74h139q64 0 69 4q13 8 27 54h18l-37 -104h-282z" />
<glyph unicode="&#xb3;" horiz-adv-x="397" d="M107 387q3 18 16.5 26.5t28.5 8.5q17 0 27 -9t8 -25q-3 -16 -18 -25.5t-34 -7.5q14 -26 48 -36t62 -10q35 0 65.5 23t39.5 76q8 47 -12 73.5t-64 26.5h-36q-10 0 -13.5 1t-2.5 6q1 6 18 7q39 2 55.5 5.5t33.5 18.5q36 31 44 77q5 35 -14 51t-50 16q-75 0 -108 -37 q44 0 39 -30q-2 -13 -13.5 -21.5t-28.5 -8.5q-16 0 -24.5 8t-6.5 23q6 36 48.5 58.5t99.5 22.5q56 0 93 -23.5t31 -58.5q-5 -31 -35.5 -60.5t-87.5 -45.5q56 -9 85 -40t23 -69q-8 -46 -59.5 -80.5t-120.5 -34.5q-63 0 -103.5 26.5t-33.5 67.5z" />
<glyph unicode="&#xb4;" horiz-adv-x="553" d="M300 525l146 145q25 25 40 25q14 0 23 -11.5t7 -24.5q-3 -16 -23 -30l-180 -123z" />
<glyph unicode="&#xb5;" horiz-adv-x="556" d="M0 -194l5 31q54 0 67 6.5t19 40.5l76 457q6 39 -4.5 48.5t-63.5 9.5l5 31l150 11l-55 -330q-3 -27 -4.5 -49t16.5 -36.5t57 -14.5q54 0 94 44t52 112l29 174q6 39 -4.5 48.5t-63.5 9.5l5 31l150 11l-59 -352q-7 -39 4 -48.5t64 -9.5l-5 -31l-147 -11l15 86h-1 q-55 -86 -142 -86q-49 0 -79 13l-19 -118q-6 -34 5 -40.5t65 -6.5l-5 -31l-113 3z" />
<glyph unicode="&#xb6;" horiz-adv-x="611" d="M133 463q16 95 100.5 163t188.5 68h243q10 0 15.5 -0.5t10.5 -5.5t3 -14q-3 -20 -36 -20h-50l-136 -815q-5 -33 -25 -33t-15 33l136 815h-70l-136 -815q-5 -33 -25 -33t-15 33l65 391q-50 2 -97 17t-87 42t-59.5 72.5t-10.5 101.5z" />
<glyph unicode="&#xb7;" horiz-adv-x="844" d="M426 342q4 22 22 37.5t40 15.5t35 -15.5t9 -37.5t-22 -37.5t-40 -15.5t-35 15.5t-9 37.5z" />
<glyph unicode="&#xb8;" horiz-adv-x="494" d="M66 -200l4 26h13h46t44 1.5t44.5 4t34.5 6.5t27 11.5t11 17.5q4 25 -19.5 33t-64.5 8l16 97h52l-12 -71q52 0 85 -16t27 -51q-3 -16 -15.5 -28t-37 -19t-46.5 -11.5t-60 -6t-60 -2t-63 -0.5h-26z" />
<glyph unicode="&#xb9;" horiz-adv-x="406" d="M135 306l3 18h25q34 0 50 3.5t19.5 8.5t5.5 17l52 312q-44 -17 -102 -17l3 19q90 0 142 38q12 0 14 -2.5t0 -12.5l-56 -337q-3 -17 6.5 -23t57.5 -6h25l-3 -18q-26 2 -121 2t-121 -2z" />
<glyph unicode="&#xba;" horiz-adv-x="534" d="M119 275q-12 0 -13 8q4 11 16 13h388q15 0 14 -10q-3 -10 -17 -11h-388zM129 514q13 79 87.5 135t168.5 56q93 0 149 -56t43 -135q-13 -78 -88 -133t-168 -55t-149 55t-43 133zM202 522q-15 -93 25 -135.5t97 -42.5q25 0 51 9t53.5 28t48.5 55.5t29 85.5q8 46 -1.5 80.5 t-31 52t-44.5 25.5t-47 8t-49.5 -8t-53 -25t-48.5 -51.5t-29 -81.5z" />
<glyph unicode="&#xbb;" horiz-adv-x="611" d="M133 12q51 122 140 230q-54 107 -64 229q0 12 12 12h2q7 0 8 -6q28 -134 113 -228q2 -4 2 -7q-2 -4 -5 -8q-118 -97 -188 -227q-3 -7 -11 -7h-2q-5 0 -7 4t0 8zM308 12q51 122 140 230q-54 107 -64 229q0 12 12 12h2q6 0 8 -6q28 -134 113 -228q2 -4 2 -7q-1 -4 -5 -8 q-118 -97 -188 -227q-4 -7 -11 -7h-2q-5 0 -7 4t0 8z" />
<glyph unicode="&#xbc;" horiz-adv-x="890" d="M135 306l3 18h25q34 0 50 3.5t19.5 8.5t5.5 17l52 312q-44 -17 -102 -17l3 19q90 0 142 38q12 0 14 -2.5t0 -12.5l-56 -337q-3 -17 6.5 -23t57.5 -6h25l-3 -18q-26 2 -121 2t-121 -2zM251 20q1 3 6 11l550 644q6 8 18 8q8 0 13 -6t4 -14q-1 -3 -6 -11l-549 -643 q-7 -9 -19 -9q-8 0 -13 6t-4 14zM491 99l3 19l278 280q10 8 17 8q8 0 9.5 -3t-0.5 -12l-45 -273h77l-3 -19h-77l-9 -52q-3 -18 4.5 -23t47.5 -5h16l-3 -19q-26 2 -100 2q-75 0 -102 -2l3 19h17q39 0 49 5t13 23l9 52h-204zM515 118h187l37 226z" />
<glyph unicode="&#xbd;" horiz-adv-x="890" d="M135 306l3 18h25q34 0 50 3.5t19.5 8.5t5.5 17l52 312q-44 -17 -102 -17l3 19q90 0 142 38q12 0 14 -2.5t0 -12.5l-56 -337q-3 -17 6.5 -23t57.5 -6h25l-3 -18q-26 2 -121 2t-121 -2zM212 31l551 644q5 8 17 8q13 0 16 -11t-4 -20l-550 -643q-6 -9 -18 -9q-13 0 -16 11 t4 20zM508 0q2 14 11 21l178 137q85 66 94 125q7 41 -16 69.5t-71 28.5q-36 0 -67.5 -17t-47.5 -44h9q18 0 26.5 -9t6.5 -22q-3 -16 -16.5 -24t-25.5 -8q-5 0 -11 1t-15 9.5t-6 23.5q7 43 52.5 76t106.5 33q69 0 109.5 -32.5t31.5 -84.5q-4 -27 -25 -53t-41.5 -40.5 t-56.5 -37t-50 -32.5l-110 -74h139q64 0 69 4q13 8 27 54h18l-37 -104h-282z" />
<glyph unicode="&#xbe;" horiz-adv-x="890" d="M149 387q3 18 16.5 26.5t28.5 8.5q17 0 27 -9t8 -25q-3 -16 -18 -25.5t-35 -7.5q15 -26 49 -36t62 -10q35 0 65 23t39 76q8 47 -11.5 73.5t-63.5 26.5h-36q-10 0 -13.5 1t-2.5 6q1 6 18 7q38 2 55 5.5t34 18.5q35 31 43 77q6 35 -13.5 51t-50.5 16q-74 0 -107 -37 q44 0 39 -30q-2 -13 -14 -21.5t-28 -8.5t-25 8t-7 23q6 35 48.5 58t99.5 23q56 0 93.5 -23.5t31.5 -58.5q-5 -31 -35.5 -60.5t-88.5 -45.5q57 -9 85.5 -40t22.5 -69q-8 -46 -59 -80.5t-120 -34.5q-63 0 -103.5 26.5t-33.5 67.5zM251 20q1 3 6 11l550 644q6 8 18 8q8 0 13 -6 t4 -14q-1 -3 -6 -11l-549 -643q-7 -9 -19 -9q-8 0 -13 6t-4 14zM491 99l3 19l278 280q10 8 17 8q8 0 9.5 -3t-0.5 -12l-45 -273h77l-3 -19h-77l-9 -52q-3 -18 4.5 -23t47.5 -5h16l-3 -19q-26 2 -100 2q-75 0 -102 -2l3 19h17q39 0 49 5t13 23l9 52h-204zM515 118h187l37 226 z" />
<glyph unicode="&#xbf;" horiz-adv-x="524" d="M60 -70q11 63 68 103q45 32 76 67.5t46.5 72t20.5 55t10 45.5l2 16q2 11 3 15t4 6.5t9 2.5q12 0 11 -12l-4 -24q-26 -159 -118 -256q-14 -15 -20 -23t-13.5 -27.5t-12.5 -47.5q-3 -19 -4.5 -29.5t1 -27t10 -26t25.5 -16.5t45 -7q11 0 25 1.5t44 7t59 21t47 38.5 q-27 -3 -38.5 11.5t-8.5 33.5q4 20 18.5 33t35.5 13q19 0 30.5 -12t7.5 -36q-10 -60 -74.5 -96.5t-151.5 -36.5q-51 0 -86 13.5t-48 34t-19 44t0 43.5zM269 447q3 22 21 37.5t40 15.5t35 -15.5t10 -37.5q-4 -22 -22 -37.5t-40 -15.5t-35 15.5t-9 37.5z" />
<glyph unicode="&#xc0;" d="M48 0l5 31q41 0 70 14.5t37.5 25.5t18.5 29l320 597q4 8 6.5 11t7 5.5t12.5 2.5q12 0 15.5 -4t6.5 -18l127 -626q5 -22 18.5 -29.5t59.5 -7.5h18l-5 -31l-130 3q-108 0 -145 -3l5 31q82 0 87 29q1 4 -2 18l-31 153h-266l-70 -130q-17 -25 -2.5 -47.5t59.5 -22.5l-5 -31 l-115 3q-39 0 -102 -3zM299 262h244l-67 330zM408 866q0 17 12.5 29.5t29.5 12.5q13 0 31 -19l126 -121l-18 -22l-162 93q-18 12 -19 27z" />
<glyph unicode="&#xc1;" d="M48 0l5 31q41 0 70 14.5t37.5 25.5t18.5 29l320 597q4 8 6.5 11t7 5.5t12.5 2.5q12 0 15.5 -4t6.5 -18l127 -626q5 -22 18.5 -29.5t59.5 -7.5h18l-5 -31l-130 3q-108 0 -145 -3l5 31q82 0 87 29q1 4 -2 18l-31 153h-266l-70 -130q-17 -25 -2.5 -47.5t59.5 -22.5l-5 -31 l-115 3q-39 0 -102 -3zM299 262h244l-67 330zM464 768l166 121q23 19 37 19q17 0 25.5 -13t2.5 -29q-1 -5 -4 -8.5t-6.5 -6.5t-6 -5t-6 -4t-4.5 -3l-194 -93z" />
<glyph unicode="&#xc2;" d="M48 0l5 31q41 0 70 14.5t37.5 25.5t18.5 29l320 597q4 8 6.5 11t7 5.5t12.5 2.5q12 0 15.5 -4t6.5 -18l127 -626q5 -22 18.5 -29.5t59.5 -7.5h18l-5 -31l-130 3q-108 0 -145 -3l5 31q82 0 87 29q1 4 -2 18l-31 153h-266l-70 -130q-17 -25 -2.5 -47.5t59.5 -22.5l-5 -31 l-115 3q-39 0 -102 -3zM299 262h244l-67 330zM381 752l171 117l131 -117l-14 -16l-129 66l-151 -66z" />
<glyph unicode="&#xc3;" d="M48 0l5 31q41 0 70 14.5t37.5 25.5t18.5 29l320 597q4 8 6.5 11t7 5.5t12.5 2.5q12 0 15.5 -4t6.5 -18l127 -626q5 -22 18.5 -29.5t59.5 -7.5h18l-5 -31l-130 3q-108 0 -145 -3l5 31q82 0 87 29q1 4 -2 18l-31 153h-266l-70 -130q-17 -25 -2.5 -47.5t59.5 -22.5l-5 -31 l-115 3q-39 0 -102 -3zM299 262h244l-67 330zM357 751q39 35 54.5 47.5t34.5 22t38 9.5q25 0 67 -27q34 -22 58 -22q44 0 94 49l15 -15q-39 -35 -54.5 -47.5t-34.5 -22t-38 -9.5q-25 0 -67 27q-34 22 -58 22q-45 0 -94 -49z" />
<glyph unicode="&#xc4;" d="M48 0l5 31q41 0 70 14.5t37.5 25.5t18.5 29l320 597q4 8 6.5 11t7 5.5t12.5 2.5q12 0 15.5 -4t6.5 -18l127 -626q5 -22 18.5 -29.5t59.5 -7.5h18l-5 -31l-130 3q-108 0 -145 -3l5 31q82 0 87 29q1 4 -2 18l-31 153h-266l-70 -130q-17 -25 -2.5 -47.5t59.5 -22.5l-5 -31 l-115 3q-39 0 -102 -3zM299 262h244l-67 330zM386 784q3 19 19.5 33.5t36.5 14.5q19 0 31 -14t9 -34q-4 -20 -20.5 -34t-35.5 -14q-20 0 -32 14.5t-8 33.5zM594 784q3 19 19.5 33.5t36.5 14.5q19 0 31 -14t9 -34q-4 -20 -20.5 -34t-35.5 -14q-20 0 -32 14.5t-8 33.5z" />
<glyph unicode="&#xc5;" d="M48 0l5 31q41 0 70 14.5t37.5 25.5t18.5 29l320 597q4 8 6.5 11t7 5.5t12.5 2.5q-40 0 -65 25.5t-19 63.5q6 35 39 61t77 26q40 0 65 -25.5t19 -63.5q-6 -35 -39 -61t-77 -26q12 0 15.5 -4t6.5 -18l127 -626q5 -22 18.5 -29.5t59.5 -7.5h18l-5 -31l-130 3q-108 0 -145 -3 l5 31q82 0 87 29q1 4 -2 18l-31 153h-266l-70 -130q-17 -25 -2.5 -47.5t59.5 -22.5l-5 -31l-115 3q-39 0 -102 -3zM299 262h244l-67 330zM474 804q-9 -58 57 -58q67 0 77 58t-57 58q-68 0 -77 -58z" />
<glyph unicode="&#xc6;" horiz-adv-x="975" d="M48 0l5 31q91 0 126 67l304 553q-12 1 -38 1h-47l5 31h585l-10 -225h-25q3 50 0 86.5t-17.5 60.5t-46.5 35.5t-86 11.5h-112q-34 0 -42.5 -7t-13.5 -33l-45 -268h94q69 0 93 24.5t35 92.5h25l-44 -265h-25q11 68 -4.5 92.5t-84.5 24.5h-94l-40 -242q-5 -26 1.5 -33 t40.5 -7h111q37 0 66 5.5t50 13t39.5 24.5t30 31t24 43t20.5 50t21 60h25l-85 -258h-516l5 31q52 0 65.5 6.5t19.5 38.5l39 237h-172l-116 -213q-17 -26 -3 -47t59 -22l-5 -31l-114 3zM347 344h160l44 260q0 9 1 18.5t-8.5 18t-29.5 8.5z" />
<glyph unicode="&#xc7;" horiz-adv-x="786" d="M129 342q25 151 151 257t275 106q109 0 182 -89l65 77q10 12 18 12q7 0 8 -4.5t0 -15.5q-1 -2 -1 -4l-40 -237q-2 -16 -5 -20t-15 -4q-9 0 -11 3t-2 14q2 111 -53.5 174t-139.5 63q-26 0 -56.5 -6t-74.5 -27t-81 -55t-70 -97.5t-47 -147.5q-9 -70 -6 -122t23 -88.5 t43 -60.5t54 -37.5t56.5 -18.5t50.5 -5q90 0 170.5 61t103.5 164q8 15 15 16q9 0 10.5 -5t-0.5 -12q-15 -91 -100 -169t-198 -85l-7 -45q52 0 85 -16t27 -51q-3 -16 -15.5 -28t-37 -19t-46.5 -11.5t-60 -6t-60 -2t-63 -0.5h-26l4 26h13h46t44 1.5t44.5 4t34.5 6.5t27 11.5 t11 17.5q4 25 -19.5 33t-64.5 8l11 71q-137 12 -217 116t-56 247z" />
<glyph unicode="&#xc8;" horiz-adv-x="742" d="M55 0l5 31h24q54 0 68 9t19 38l87 524q5 29 -6 38t-65 9h-24l5 31h586l-9 -225h-25q3 57 -1.5 91t-23 59t-54 34.5t-94.5 9.5h-143q-34 0 -42.5 -7t-12.5 -33l-40 -240h98q71 0 96 24t36 93h25l-44 -265h-25q11 69 -6 93t-88 24h-98l-44 -267q-5 -26 1.5 -33t40.5 -7h151 q53 0 91 9.5t63.5 25.5t46 47t33.5 62t30 83h25l-85 -258h-601zM372 866q0 17 12.5 29.5t29.5 12.5q13 0 31 -19l126 -121l-18 -22l-162 93q-18 12 -19 27z" />
<glyph unicode="&#xc9;" horiz-adv-x="742" d="M55 0l5 31h24q54 0 68 9t19 38l87 524q5 29 -6 38t-65 9h-24l5 31h586l-9 -225h-25q3 57 -1.5 91t-23 59t-54 34.5t-94.5 9.5h-143q-34 0 -42.5 -7t-12.5 -33l-40 -240h98q71 0 96 24t36 93h25l-44 -265h-25q11 69 -6 93t-88 24h-98l-44 -267q-5 -26 1.5 -33t40.5 -7h151 q53 0 91 9.5t63.5 25.5t46 47t33.5 62t30 83h25l-85 -258h-601zM428 768l166 121q23 19 37 19q17 0 25.5 -13t2.5 -29q-1 -5 -4 -8.5t-6.5 -6.5t-6 -5t-6 -4t-4.5 -3l-194 -93z" />
<glyph unicode="&#xca;" horiz-adv-x="742" d="M55 0l5 31h24q54 0 68 9t19 38l87 524q5 29 -6 38t-65 9h-24l5 31h586l-9 -225h-25q3 57 -1.5 91t-23 59t-54 34.5t-94.5 9.5h-143q-34 0 -42.5 -7t-12.5 -33l-40 -240h98q71 0 96 24t36 93h25l-44 -265h-25q11 69 -6 93t-88 24h-98l-44 -267q-5 -26 1.5 -33t40.5 -7h151 q53 0 91 9.5t63.5 25.5t46 47t33.5 62t30 83h25l-85 -258h-601zM345 752l171 117l131 -117l-14 -16l-129 66l-151 -66z" />
<glyph unicode="&#xcb;" horiz-adv-x="742" d="M55 0l5 31h24q54 0 68 9t19 38l87 524q5 29 -6 38t-65 9h-24l5 31h586l-9 -225h-25q3 57 -1.5 91t-23 59t-54 34.5t-94.5 9.5h-143q-34 0 -42.5 -7t-12.5 -33l-40 -240h98q71 0 96 24t36 93h25l-44 -265h-25q11 69 -6 93t-88 24h-98l-44 -267q-5 -26 1.5 -33t40.5 -7h151 q53 0 91 9.5t63.5 25.5t46 47t33.5 62t30 83h25l-85 -258h-601zM350 784q3 19 19.5 33.5t36.5 14.5q19 0 31 -14t9 -34q-4 -20 -20.5 -34t-35.5 -14q-20 0 -32 14.5t-8 33.5zM558 784q3 19 19.5 33.5t36.5 14.5q19 0 31 -14t9 -34q-4 -20 -20.5 -34t-35.5 -14 q-20 0 -32 14.5t-8 33.5z" />
<glyph unicode="&#xcc;" horiz-adv-x="406" d="M50 0l5 31h26q56 0 70.5 9t19.5 38l88 527q5 29 -6.5 38t-67.5 9h-26l5 31q34 -3 152 -3q117 0 153 3l-5 -31h-26q-56 0 -70.5 -9t-19.5 -38l-88 -527q-5 -29 6.5 -38t67.5 -9h26l-5 -31q-34 3 -152 3q-117 0 -153 -3zM204 866q0 17 12.5 29.5t29.5 12.5q13 0 31 -19 l126 -121l-18 -22l-162 93q-18 12 -19 27z" />
<glyph unicode="&#xcd;" horiz-adv-x="406" d="M50 0l5 31h26q56 0 70.5 9t19.5 38l88 527q5 29 -6.5 38t-67.5 9h-26l5 31q34 -3 152 -3q117 0 153 3l-5 -31h-26q-56 0 -70.5 -9t-19.5 -38l-88 -527q-5 -29 6.5 -38t67.5 -9h26l-5 -31q-34 3 -152 3q-117 0 -153 -3zM260 768l166 121q23 19 37 19q17 0 25.5 -13 t2.5 -29q-1 -5 -4 -8.5t-6.5 -6.5t-6 -5t-6 -4t-4.5 -3l-194 -93z" />
<glyph unicode="&#xce;" horiz-adv-x="406" d="M50 0l5 31h26q56 0 70.5 9t19.5 38l88 527q5 29 -6.5 38t-67.5 9h-26l5 31q34 -3 152 -3q117 0 153 3l-5 -31h-26q-56 0 -70.5 -9t-19.5 -38l-88 -527q-5 -29 6.5 -38t67.5 -9h26l-5 -31q-34 3 -152 3q-117 0 -153 -3zM177 752l171 117l131 -117l-14 -16l-129 66 l-151 -66z" />
<glyph unicode="&#xcf;" horiz-adv-x="406" d="M50 0l5 31h26q56 0 70.5 9t19.5 38l88 527q5 29 -6.5 38t-67.5 9h-26l5 31q34 -3 152 -3q117 0 153 3l-5 -31h-26q-56 0 -70.5 -9t-19.5 -38l-88 -527q-5 -29 6.5 -38t67.5 -9h26l-5 -31q-34 3 -152 3q-117 0 -153 -3zM182 784q3 19 19.5 33.5t36.5 14.5q19 0 31 -14 t9 -34q-4 -20 -20.5 -34t-35.5 -14q-20 0 -32 14.5t-8 33.5zM390 784q3 19 19.5 33.5t36.5 14.5q19 0 31 -14t9 -34q-4 -20 -20.5 -34t-35.5 -14q-20 0 -32 14.5t-8 33.5z" />
<glyph unicode="&#xd0;" horiz-adv-x="829" d="M57 0l5 31h24q54 0 68 9t19 38l42 249h-103l5 30h103l41 248q5 29 -6 38t-65 9h-24l5 31h378q133 0 210 -102t53 -245q-23 -140 -133.5 -238t-243.5 -98h-378zM258 71q-5 -26 1.5 -33t40.5 -7h113q115 0 196 78q77 75 103 227q25 147 -19 222q-55 94 -176 94h-113 q-34 0 -42.5 -7t-13.5 -33l-42 -255h169l-5 -30h-169z" />
<glyph unicode="&#xd1;" d="M55 0l5 31q36 0 60 7t35 20.5t14.5 23t6.5 25.5l86 518q3 16 2 18q-1 9 -100 9l5 31h169q15 0 19.5 -2t10.5 -12l284 -522l71 429q4 11 2.5 24.5t-7 25t-27.5 19t-58 7.5l5 31l116 -3l118 3l-5 -31q-36 0 -60 -7t-35 -20.5t-14.5 -23t-6.5 -25.5l-91 -548q-3 -18 -6 -23 t-13 -5t-16 12l-334 617l-87 -522q-4 -11 -2.5 -24.5t7 -25t27.5 -19t58 -7.5l-5 -31l-116 3zM357 751q39 35 54.5 47.5t34.5 22t38 9.5q25 0 67 -27q34 -22 58 -22q44 0 94 49l15 -15q-39 -35 -54.5 -47.5t-34.5 -22t-38 -9.5q-25 0 -67 27q-34 22 -58 22q-45 0 -94 -49z " />
<glyph unicode="&#xd2;" horiz-adv-x="844" d="M129 339q25 152 145.5 259t265.5 107q143 0 228 -106.5t60 -259.5q-25 -150 -145.5 -255.5t-265.5 -105.5q-143 0 -228 105t-60 256zM234 354q-14 -96 -4 -162.5t42 -108.5t70 -60.5t81 -18.5q41 0 85 19t88.5 57.5t80 109.5t50.5 164q12 90 1.5 152.5t-43.5 101 t-71 55.5t-80 17q-41 0 -84.5 -17.5t-87.5 -53.5t-78.5 -102t-49.5 -153zM423 866q0 17 12.5 29.5t29.5 12.5q13 0 31 -19l126 -121l-18 -22l-162 93q-18 12 -19 27z" />
<glyph unicode="&#xd3;" horiz-adv-x="844" d="M129 339q25 152 145.5 259t265.5 107q143 0 228 -106.5t60 -259.5q-25 -150 -145.5 -255.5t-265.5 -105.5q-143 0 -228 105t-60 256zM234 354q-14 -96 -4 -162.5t42 -108.5t70 -60.5t81 -18.5q41 0 85 19t88.5 57.5t80 109.5t50.5 164q12 90 1.5 152.5t-43.5 101 t-71 55.5t-80 17q-41 0 -84.5 -17.5t-87.5 -53.5t-78.5 -102t-49.5 -153zM479 768l166 121q23 19 37 19q17 0 25.5 -13t2.5 -29q-1 -5 -4 -8.5t-6.5 -6.5t-6 -5t-6 -4t-4.5 -3l-194 -93z" />
<glyph unicode="&#xd4;" horiz-adv-x="844" d="M129 339q25 152 145.5 259t265.5 107q143 0 228 -106.5t60 -259.5q-25 -150 -145.5 -255.5t-265.5 -105.5q-143 0 -228 105t-60 256zM234 354q-14 -96 -4 -162.5t42 -108.5t70 -60.5t81 -18.5q41 0 85 19t88.5 57.5t80 109.5t50.5 164q12 90 1.5 152.5t-43.5 101 t-71 55.5t-80 17q-41 0 -84.5 -17.5t-87.5 -53.5t-78.5 -102t-49.5 -153zM396 752l171 117l131 -117l-14 -16l-129 66l-151 -66z" />
<glyph unicode="&#xd5;" horiz-adv-x="844" d="M129 339q25 152 145.5 259t265.5 107q143 0 228 -106.5t60 -259.5q-25 -150 -145.5 -255.5t-265.5 -105.5q-143 0 -228 105t-60 256zM234 354q-14 -96 -4 -162.5t42 -108.5t70 -60.5t81 -18.5q41 0 85 19t88.5 57.5t80 109.5t50.5 164q12 90 1.5 152.5t-43.5 101 t-71 55.5t-80 17q-41 0 -84.5 -17.5t-87.5 -53.5t-78.5 -102t-49.5 -153zM372 751q39 35 54.5 47.5t34.5 22t38 9.5q25 0 67 -27q34 -22 58 -22q44 0 94 49l15 -15q-39 -35 -54.5 -47.5t-34.5 -22t-38 -9.5q-25 0 -67 27q-34 22 -58 22q-45 0 -94 -49z" />
<glyph unicode="&#xd6;" horiz-adv-x="844" d="M129 339q25 152 145.5 259t265.5 107q143 0 228 -106.5t60 -259.5q-25 -150 -145.5 -255.5t-265.5 -105.5q-143 0 -228 105t-60 256zM234 354q-14 -96 -4 -162.5t42 -108.5t70 -60.5t81 -18.5q41 0 85 19t88.5 57.5t80 109.5t50.5 164q12 90 1.5 152.5t-43.5 101 t-71 55.5t-80 17q-41 0 -84.5 -17.5t-87.5 -53.5t-78.5 -102t-49.5 -153zM401 784q3 19 19.5 33.5t36.5 14.5q19 0 31 -14t9 -34q-4 -20 -20.5 -34t-35.5 -14q-20 0 -32 14.5t-8 33.5zM609 784q3 19 19.5 33.5t36.5 14.5q19 0 31 -14t9 -34q-4 -20 -20.5 -34t-35.5 -14 q-20 0 -32 14.5t-8 33.5z" />
<glyph unicode="&#xd7;" horiz-adv-x="844" d="M175 3q-12 14 16 37l245 210l-175 210q-21 23 -4 38q17 14 37 -9l175 -210l243 209q27 23 40 9q11 -13 -16 -37l-244 -210l175 -210q19 -23 3 -37q-17 -14 -36 9l-175 210l-245 -210q-27 -23 -39 -9z" />
<glyph unicode="&#xd8;" horiz-adv-x="844" d="M121 -42l90 101q-110 118 -82 280q25 152 145.5 259t265.5 107q106 0 189 -66l88 100l19 -14l-91 -102q44 -41 71.5 -115.5t11.5 -168.5q-25 -150 -145.5 -255.5t-265.5 -105.5q-108 0 -190 65l-87 -99zM218 339q-26 -155 26 -243l455 511q-64 76 -164 76q-14 0 -31 -2 t-45 -10t-54 -21.5t-56 -40t-54 -61.5t-45 -89t-32 -120zM258 76q57 -76 164 -76q24 0 50.5 4.5t70 25t79 54.5t69 100t48.5 155q27 164 -27 248z" />
<glyph unicode="&#xd9;" d="M164 652l5 31q34 -3 147 -3q112 0 148 3l-5 -31h-24q-54 0 -68 -9t-19 -38l-63 -379q-6 -47 -4.5 -81.5t14.5 -58.5t27.5 -39t34.5 -23.5t35.5 -11.5t31.5 -3q81 0 151.5 60.5t87.5 161.5l57 347q4 10 2.5 23t-7 24t-27.5 19t-58 8l5 31l118 -3l119 3l-5 -31 q-36 0 -60 -7t-35 -20.5t-14.5 -23.5t-6.5 -26l-60 -360q-14 -84 -92.5 -160.5t-182.5 -76.5q-107 0 -172 73t-48 178l63 376q5 29 -6 38t-65 9h-24zM432 866q0 17 12.5 29.5t29.5 12.5q13 0 31 -19l126 -121l-18 -22l-162 93q-18 12 -19 27z" />
<glyph unicode="&#xda;" d="M164 652l5 31q34 -3 147 -3q112 0 148 3l-5 -31h-24q-54 0 -68 -9t-19 -38l-63 -379q-6 -47 -4.5 -81.5t14.5 -58.5t27.5 -39t34.5 -23.5t35.5 -11.5t31.5 -3q81 0 151.5 60.5t87.5 161.5l57 347q4 10 2.5 23t-7 24t-27.5 19t-58 8l5 31l118 -3l119 3l-5 -31 q-36 0 -60 -7t-35 -20.5t-14.5 -23.5t-6.5 -26l-60 -360q-14 -84 -92.5 -160.5t-182.5 -76.5q-107 0 -172 73t-48 178l63 376q5 29 -6 38t-65 9h-24zM488 768l166 121q23 19 37 19q17 0 25.5 -13t2.5 -29q-1 -5 -4 -8.5t-6.5 -6.5t-6 -5t-6 -4t-4.5 -3l-194 -93z" />
<glyph unicode="&#xdb;" d="M164 652l5 31q34 -3 147 -3q112 0 148 3l-5 -31h-24q-54 0 -68 -9t-19 -38l-63 -379q-6 -47 -4.5 -81.5t14.5 -58.5t27.5 -39t34.5 -23.5t35.5 -11.5t31.5 -3q81 0 151.5 60.5t87.5 161.5l57 347q4 10 2.5 23t-7 24t-27.5 19t-58 8l5 31l118 -3l119 3l-5 -31 q-36 0 -60 -7t-35 -20.5t-14.5 -23.5t-6.5 -26l-60 -360q-14 -84 -92.5 -160.5t-182.5 -76.5q-107 0 -172 73t-48 178l63 376q5 29 -6 38t-65 9h-24zM405 752l171 117l131 -117l-14 -16l-129 66l-151 -66z" />
<glyph unicode="&#xdc;" d="M164 652l5 31q34 -3 147 -3q112 0 148 3l-5 -31h-24q-54 0 -68 -9t-19 -38l-63 -379q-6 -47 -4.5 -81.5t14.5 -58.5t27.5 -39t34.5 -23.5t35.5 -11.5t31.5 -3q81 0 151.5 60.5t87.5 161.5l57 347q4 10 2.5 23t-7 24t-27.5 19t-58 8l5 31l118 -3l119 3l-5 -31 q-36 0 -60 -7t-35 -20.5t-14.5 -23.5t-6.5 -26l-60 -360q-14 -84 -92.5 -160.5t-182.5 -76.5q-107 0 -172 73t-48 178l63 376q5 29 -6 38t-65 9h-24zM410 784q3 19 19.5 33.5t36.5 14.5q19 0 31 -14t9 -34q-4 -20 -20.5 -34t-35.5 -14q-20 0 -32 14.5t-8 33.5zM618 784 q3 19 19.5 33.5t36.5 14.5q19 0 31 -14t9 -34q-4 -20 -20.5 -34t-35.5 -14q-20 0 -32 14.5t-8 33.5z" />
<glyph unicode="&#xdd;" d="M135 652l5 31l130 -3q113 0 149 3l-5 -31q-68 0 -72 -24q-1 -7 5 -20l144 -294l224 271q13 18 15 29q4 19 -9.5 28.5t-37.5 9.5l5 31l114 -3q52 0 99 3l-5 -31q-90 -2 -141 -64l-260 -315l-33 -193q-5 -31 6 -40t66 -9h23l-5 -31q-35 3 -145 3t-147 -3l5 31h24q54 0 68 9 t19 38l33 195l-169 345q-10 20 -27.5 27t-58.5 7h-19zM464 768l166 121q23 19 37 19q17 0 25.5 -13t2.5 -29q-1 -5 -4 -8.5t-6.5 -6.5t-6 -5t-6 -4t-4.5 -3l-194 -93z" />
<glyph unicode="&#xde;" horiz-adv-x="742" d="M50 0l5 31h26q56 0 70.5 9t19.5 38l88 527q5 29 -6.5 38t-67.5 9h-26l5 31q34 -3 152 -3q117 0 153 3l-5 -31h-26q-56 0 -70.5 -9t-19.5 -38l-13 -80h175q104 0 166 -55t50 -131q-13 -76 -94.5 -128.5t-175.5 -52.5h-183l-13 -80q-5 -29 6.5 -38t67.5 -9h26l-5 -31 q-34 3 -152 3q-117 0 -153 -3zM277 187h150q48 0 84.5 12.5t56 28.5t32.5 41.5t16.5 39t6.5 33.5q4 20 5 34t-3.5 39t-18.5 41t-46.5 28.5t-80.5 12.5h-101q-34 0 -42.5 -7t-13.5 -33z" />
<glyph unicode="&#xdf;" horiz-adv-x="916" d="M53 10l22 135q2 11 3 15t4.5 7t9.5 3q11 0 11 -9q-11 -74 30 -111q42 -39 117 -39q49 0 84 32t41 72q9 47 -19 75q-14 15 -26.5 20.5t-54.5 15.5q-72 17 -93.5 25.5t-39.5 29.5q-37 45 -27 101q10 60 62 103t119 43q75 0 117 -49q19 22 23 26q20 23 26 23q7 0 8 -6 t-2 -18l-23 -136q-2 -15 -5 -19.5t-12 -4.5q-10 0 -10 13q1 20 -1.5 38t-12.5 47t-38.5 46.5t-72.5 17.5q-48 0 -82 -29t-40 -66q-10 -63 51 -89q2 -1 59 -15q66 -16 86 -25t42 -36q4 -5 9 -13.5t11 -35.5t2 -55q-10 -62 -62.5 -109t-122.5 -47q-91 0 -138 49 q-15 -18 -23 -26q-20 -23 -26 -23q-11 0 -6 24zM497 10l22 135q2 11 3 15t4.5 7t9.5 3q11 0 11 -9q-11 -74 30 -111q42 -39 117 -39q49 0 84 32t41 72q9 47 -19 75q-14 15 -26.5 20.5t-54.5 15.5q-72 17 -93.5 25.5t-39.5 29.5q-37 45 -27 101q10 60 62 103t119 43 q75 0 117 -49q19 22 23 26q20 23 26 23q7 0 8 -6t-2 -18l-23 -136q-2 -15 -5 -19.5t-12 -4.5q-10 0 -10 13q1 20 -1.5 38t-12.5 47t-38.5 46.5t-72.5 17.5q-48 0 -82 -29t-40 -66q-10 -63 51 -89q2 -1 59 -15q66 -16 86 -25t42 -36q4 -5 9 -13.5t11 -35.5t2 -55 q-10 -62 -62.5 -109t-122.5 -47q-91 0 -138 49q-15 -18 -23 -26q-20 -23 -26 -23q-11 0 -6 24z" />
<glyph unicode="&#xe0;" horiz-adv-x="613" d="M34 0l4 25q23 1 40.5 7.5t30.5 21t18 22t15 23.5l229 413q5 8 7 11t6.5 5.5t11.5 2.5q14 0 18 -22l98 -444q5 -26 17 -33t54 -7l-4 -25q-72 3 -96 3l-107 -3l4 25q53 0 58 28q2 10 -11 60l-13 56h-207q-49 -88 -50 -99q0 -6 -0.5 -15.5t9 -19t28.5 -10.5l-4 -25l-82 3 q-41 0 -74 -3zM221 194h187l-52 241zM301 742q2 13 15 24.5t27 11.5q16 0 32 -25l98 -145l-21 -19l-138 123q-16 16 -13 30z" />
<glyph unicode="&#xe1;" horiz-adv-x="613" d="M34 0l4 25q23 1 40.5 7.5t30.5 21t18 22t15 23.5l229 413q5 8 7 11t6.5 5.5t11.5 2.5q14 0 18 -22l98 -444q5 -26 17 -33t54 -7l-4 -25q-72 3 -96 3l-107 -3l4 25q53 0 58 28q2 10 -11 60l-13 56h-207q-49 -88 -50 -99q0 -6 -0.5 -15.5t9 -19t28.5 -10.5l-4 -25l-82 3 q-41 0 -74 -3zM221 194h187l-52 241zM344 608l146 145q25 25 40 25q14 0 23 -11.5t7 -24.5q-3 -16 -23 -30l-180 -123z" />
<glyph unicode="&#xe2;" horiz-adv-x="613" d="M34 0l4 25q23 1 40.5 7.5t30.5 21t18 22t15 23.5l229 413q5 8 7 11t6.5 5.5t11.5 2.5q14 0 18 -22l98 -444q5 -26 17 -33t54 -7l-4 -25q-72 3 -96 3l-107 -3l4 25q53 0 58 28q2 10 -11 60l-13 56h-207q-49 -88 -50 -99q0 -6 -0.5 -15.5t9 -19t28.5 -10.5l-4 -25l-82 3 q-41 0 -74 -3zM221 194h187l-52 241zM256 610l179 162l125 -162l-15 -14l-121 108l-157 -108z" />
<glyph unicode="&#xe3;" horiz-adv-x="613" d="M34 0l4 25q23 1 40.5 7.5t30.5 21t18 22t15 23.5l229 413q5 8 7 11t6.5 5.5t11.5 2.5q14 0 18 -22l98 -444q5 -26 17 -33t54 -7l-4 -25q-72 3 -96 3l-107 -3l4 25q53 0 58 28q2 10 -11 60l-13 56h-207q-49 -88 -50 -99q0 -6 -0.5 -15.5t9 -19t28.5 -10.5l-4 -25l-82 3 q-41 0 -74 -3zM221 194h187l-52 241zM240 652q53 48 76.5 63.5t50.5 15.5q25 0 67 -27q32 -22 58 -22q44 0 94 49l15 -15q-54 -48 -77.5 -63.5t-50.5 -15.5q-24 0 -66 27q-34 22 -58 22q-45 0 -95 -49z" />
<glyph unicode="&#xe4;" horiz-adv-x="613" d="M34 0l4 25q23 1 40.5 7.5t30.5 21t18 22t15 23.5l229 413q5 8 7 11t6.5 5.5t11.5 2.5q14 0 18 -22l98 -444q5 -26 17 -33t54 -7l-4 -25q-72 3 -96 3l-107 -3l4 25q53 0 58 28q2 10 -11 60l-13 56h-207q-49 -88 -50 -99q0 -6 -0.5 -15.5t9 -19t28.5 -10.5l-4 -25l-82 3 q-41 0 -74 -3zM221 194h187l-52 241zM284 684q4 20 20.5 34t35.5 14q20 0 32 -14.5t8 -33.5q-3 -19 -19.5 -33.5t-36.5 -14.5q-19 0 -31 14t-9 34zM460 684q4 20 20.5 34t35.5 14q20 0 32 -14.5t8 -33.5q-3 -19 -19.5 -33.5t-36.5 -14.5q-19 0 -31 14t-9 34z" />
<glyph unicode="&#xe5;" horiz-adv-x="613" d="M34 0l4 25q23 1 40.5 7.5t30.5 21t18 22t15 23.5l229 413q5 8 7 11t6.5 5.5t11.5 2.5q14 0 18 -22l98 -444q5 -26 17 -33t54 -7l-4 -25q-72 3 -96 3l-107 -3l4 25q53 0 58 28q2 10 -11 60l-13 56h-207q-49 -88 -50 -99q0 -6 -0.5 -15.5t9 -19t28.5 -10.5l-4 -25l-82 3 q-41 0 -74 -3zM221 194h187l-52 241zM323 701q6 35 39 61t77 26q40 0 65 -25.5t19 -63.5q-6 -35 -39 -61t-77 -26q-40 0 -65 25.5t-19 63.5zM356 700q-9 -58 57 -58q67 0 77 58t-57 58q-68 0 -77 -58z" />
<glyph unicode="&#xe6;" horiz-adv-x="736" d="M34 0l4 25q62 1 102 69l223 394q-10 1 -31 1h-27l4 25h443l-9 -169h-25q5 84 -16 114t-97 30h-76q-27 0 -35 -7t-13 -36l-31 -186h64q53 0 71 17.5t27 69.5h25l-33 -199h-25q9 52 -4 69.5t-65 17.5h-64l-28 -167q-4 -30 1 -36.5t32 -6.5h77q85 0 121 35t65 134h25 l-61 -194h-392l4 25q37 0 47 7.5t15 37.5l27 165h-132l-76 -136q-12 -19 -13 -30q0 -5 -1 -14t8.5 -19t28.5 -11l-4 -25q-45 3 -81 3q-42 0 -75 -3zM261 260h122l30 177q7 45 -24 48z" />
<glyph unicode="&#xe7;" horiz-adv-x="591" d="M94 257q19 113 115 192t210 79q83 0 135 -63l47 51q12 12 17 12q7 0 8 -6t-2 -18l-28 -169q-2 -15 -5 -19.5t-12 -4.5t-11 13q1 89 -42.5 134t-104.5 45q-18 0 -39 -4t-54 -19t-60.5 -40t-52.5 -72.5t-35 -110.5q-7 -55 -4.5 -94.5t18.5 -66.5t33 -44t41 -26t40.5 -12 t31.5 -3q67 0 127 45t78 121q3 16 14 16q13 0 11 -16q-11 -66 -73.5 -124.5t-147.5 -65.5l-9 -53q52 0 85 -16t27 -51q-3 -16 -15.5 -28t-37 -19t-46.5 -11.5t-60 -6t-60 -2t-63 -0.5h-26l4 26h13h46t44 1.5t44.5 4t34.5 6.5t27 11.5t11 17.5q4 25 -19.5 33t-64.5 8l13 80 q-102 11 -161.5 88t-41.5 181z" />
<glyph unicode="&#xe8;" horiz-adv-x="558" d="M43 0l4 25q49 0 62 8t18 39l61 367q5 31 -5 39t-59 8l4 25h445l-9 -169h-25q5 84 -19.5 114t-109.5 30h-102q-27 0 -34.5 -6.5t-12.5 -36.5l-28 -165h70q54 0 73 17.5t28 69.5h25l-33 -199h-25q9 52 -4.5 69.5t-67.5 17.5h-70l-31 -185q-4 -30 1 -36.5t32 -6.5h108 q63 0 100.5 18.5t57 51.5t39.5 99h25l-61 -194h-457zM273 742q2 13 15 24.5t27 11.5q16 0 32 -25l98 -145l-21 -19l-138 123q-16 16 -13 30z" />
<glyph unicode="&#xe9;" horiz-adv-x="558" d="M43 0l4 25q49 0 62 8t18 39l61 367q5 31 -5 39t-59 8l4 25h445l-9 -169h-25q5 84 -19.5 114t-109.5 30h-102q-27 0 -34.5 -6.5t-12.5 -36.5l-28 -165h70q54 0 73 17.5t28 69.5h25l-33 -199h-25q9 52 -4.5 69.5t-67.5 17.5h-70l-31 -185q-4 -30 1 -36.5t32 -6.5h108 q63 0 100.5 18.5t57 51.5t39.5 99h25l-61 -194h-457zM316 608l146 145q25 25 40 25q14 0 23 -11.5t7 -24.5q-3 -16 -23 -30l-180 -123z" />
<glyph unicode="&#xea;" horiz-adv-x="558" d="M43 0l4 25q49 0 62 8t18 39l61 367q5 31 -5 39t-59 8l4 25h445l-9 -169h-25q5 84 -19.5 114t-109.5 30h-102q-27 0 -34.5 -6.5t-12.5 -36.5l-28 -165h70q54 0 73 17.5t28 69.5h25l-33 -199h-25q9 52 -4.5 69.5t-67.5 17.5h-70l-31 -185q-4 -30 1 -36.5t32 -6.5h108 q63 0 100.5 18.5t57 51.5t39.5 99h25l-61 -194h-457zM228 610l179 162l125 -162l-15 -14l-121 108l-157 -108z" />
<glyph unicode="&#xeb;" horiz-adv-x="558" d="M43 0l4 25q49 0 62 8t18 39l61 367q5 31 -5 39t-59 8l4 25h445l-9 -169h-25q5 84 -19.5 114t-109.5 30h-102q-27 0 -34.5 -6.5t-12.5 -36.5l-28 -165h70q54 0 73 17.5t28 69.5h25l-33 -199h-25q9 52 -4.5 69.5t-67.5 17.5h-70l-31 -185q-4 -30 1 -36.5t32 -6.5h108 q63 0 100.5 18.5t57 51.5t39.5 99h25l-61 -194h-457zM256 684q4 20 20.5 34t35.5 14q20 0 32 -14.5t8 -33.5q-3 -19 -19.5 -33.5t-36.5 -14.5q-19 0 -31 14t-9 34zM432 684q4 20 20.5 34t35.5 14q20 0 32 -14.5t8 -33.5q-3 -19 -19.5 -33.5t-36.5 -14.5q-19 0 -31 14t-9 34z " />
<glyph unicode="&#xec;" horiz-adv-x="302" d="M39 0l4 25q53 0 66 7.5t18 40.5l62 368q5 33 -5 40.5t-63 7.5l4 25l111 -3l113 3l-4 -25q-53 0 -66 -7.5t-18 -40.5l-62 -368q-5 -33 5 -40.5t63 -7.5l-4 -25l-111 3zM146 742q2 13 15 24.5t27 11.5q16 0 32 -25l98 -145l-21 -19l-138 123q-16 16 -13 30z" />
<glyph unicode="&#xed;" horiz-adv-x="302" d="M39 0l4 25q53 0 66 7.5t18 40.5l62 368q5 33 -5 40.5t-63 7.5l4 25l111 -3l113 3l-4 -25q-53 0 -66 -7.5t-18 -40.5l-62 -368q-5 -33 5 -40.5t63 -7.5l-4 -25l-111 3zM189 608l146 145q25 25 40 25q14 0 23 -11.5t7 -24.5q-3 -16 -23 -30l-180 -123z" />
<glyph unicode="&#xee;" horiz-adv-x="302" d="M39 0l4 25q53 0 66 7.5t18 40.5l62 368q5 33 -5 40.5t-63 7.5l4 25l111 -3l113 3l-4 -25q-53 0 -66 -7.5t-18 -40.5l-62 -368q-5 -33 5 -40.5t63 -7.5l-4 -25l-111 3zM101 610l179 162l125 -162l-15 -14l-121 108l-157 -108z" />
<glyph unicode="&#xef;" horiz-adv-x="302" d="M39 0l4 25q53 0 66 7.5t18 40.5l62 368q5 33 -5 40.5t-63 7.5l4 25l111 -3l113 3l-4 -25q-53 0 -66 -7.5t-18 -40.5l-62 -368q-5 -33 5 -40.5t63 -7.5l-4 -25l-111 3zM129 684q4 20 20.5 34t35.5 14q20 0 32 -14.5t8 -33.5q-3 -19 -19.5 -33.5t-36.5 -14.5q-19 0 -31 14 t-9 34zM305 684q4 20 20.5 34t35.5 14q20 0 32 -14.5t8 -33.5q-3 -19 -19.5 -33.5t-36.5 -14.5q-19 0 -31 14t-9 34z" />
<glyph unicode="&#xf0;" horiz-adv-x="636" d="M45 0l4 25q49 0 62 8t18 39l29 172h-72l4 26h72l29 172q5 31 -5 39t-59 8l4 25h281q106 0 163.5 -77.5t39.5 -183.5q-17 -104 -101 -178.5t-188 -74.5h-281zM197 68q-4 -30 1 -36.5t32 -6.5h77q101 0 163 72q46 54 62 156q19 115 -15 171q-40 65 -132 65h-77 q-27 0 -35 -7t-13 -36l-29 -176h126l-4 -26h-126z" />
<glyph unicode="&#xf1;" horiz-adv-x="613" d="M43 0l4 25q25 0 42.5 8t26 22.5t11.5 23.5t5 22l63 381q-18 7 -70 7l4 25h120q11 0 14.5 -0.5t6.5 -3t7 -9.5l212 -385l50 297q13 76 -59 76l4 25q36 -3 85 -3l87 3l-4 -25q-25 0 -42.5 -8t-26 -22.5t-11.5 -23.5t-5 -22l-65 -387q-2 -11 -3 -15.5t-4.5 -7.5t-10.5 -3 q-9 0 -15 11l-241 436l-8 12l-60 -358q-13 -76 59 -76l-4 -25q-37 3 -85 3zM240 652q53 48 76.5 63.5t50.5 15.5q25 0 67 -27q32 -22 58 -22q44 0 94 49l15 -15q-54 -48 -77.5 -63.5t-50.5 -15.5q-24 0 -66 27q-34 22 -58 22q-45 0 -95 -49z" />
<glyph unicode="&#xf2;" horiz-adv-x="636" d="M94 255q18 112 109.5 192.5t202.5 80.5t175.5 -80.5t46.5 -192.5q-19 -113 -110.5 -191t-201.5 -78t-175.5 78.5t-46.5 190.5zM181 266q-9 -74 -1.5 -123t32.5 -78t52 -41t56 -12t60.5 12.5t65 40t60 79.5t37.5 122q9 70 1 116t-34 73t-52.5 37.5t-55.5 10.5 q-28 0 -59 -11.5t-64 -36t-60 -74t-38 -115.5zM312 742q2 13 15 24.5t27 11.5q16 0 32 -25l98 -145l-21 -19l-138 123q-16 16 -13 30z" />
<glyph unicode="&#xf3;" horiz-adv-x="636" d="M94 255q18 112 109.5 192.5t202.5 80.5t175.5 -80.5t46.5 -192.5q-19 -113 -110.5 -191t-201.5 -78t-175.5 78.5t-46.5 190.5zM181 266q-9 -74 -1.5 -123t32.5 -78t52 -41t56 -12t60.5 12.5t65 40t60 79.5t37.5 122q9 70 1 116t-34 73t-52.5 37.5t-55.5 10.5 q-28 0 -59 -11.5t-64 -36t-60 -74t-38 -115.5zM355 608l146 145q25 25 40 25q14 0 23 -11.5t7 -24.5q-3 -16 -23 -30l-180 -123z" />
<glyph unicode="&#xf4;" horiz-adv-x="636" d="M94 255q18 112 109.5 192.5t202.5 80.5t175.5 -80.5t46.5 -192.5q-19 -113 -110.5 -191t-201.5 -78t-175.5 78.5t-46.5 190.5zM181 266q-9 -74 -1.5 -123t32.5 -78t52 -41t56 -12t60.5 12.5t65 40t60 79.5t37.5 122q9 70 1 116t-34 73t-52.5 37.5t-55.5 10.5 q-28 0 -59 -11.5t-64 -36t-60 -74t-38 -115.5zM267 610l179 162l125 -162l-15 -14l-121 108l-157 -108z" />
<glyph unicode="&#xf5;" horiz-adv-x="636" d="M94 255q18 112 109.5 192.5t202.5 80.5t175.5 -80.5t46.5 -192.5q-19 -113 -110.5 -191t-201.5 -78t-175.5 78.5t-46.5 190.5zM181 266q-9 -74 -1.5 -123t32.5 -78t52 -41t56 -12t60.5 12.5t65 40t60 79.5t37.5 122q9 70 1 116t-34 73t-52.5 37.5t-55.5 10.5 q-28 0 -59 -11.5t-64 -36t-60 -74t-38 -115.5zM251 652q53 48 76.5 63.5t50.5 15.5q25 0 67 -27q32 -22 58 -22q44 0 94 49l15 -15q-54 -48 -77.5 -63.5t-50.5 -15.5q-24 0 -66 27q-34 22 -58 22q-45 0 -95 -49z" />
<glyph unicode="&#xf6;" horiz-adv-x="636" d="M94 255q18 112 109.5 192.5t202.5 80.5t175.5 -80.5t46.5 -192.5q-19 -113 -110.5 -191t-201.5 -78t-175.5 78.5t-46.5 190.5zM181 266q-9 -74 -1.5 -123t32.5 -78t52 -41t56 -12t60.5 12.5t65 40t60 79.5t37.5 122q9 70 1 116t-34 73t-52.5 37.5t-55.5 10.5 q-28 0 -59 -11.5t-64 -36t-60 -74t-38 -115.5zM295 684q4 20 20.5 34t35.5 14q20 0 32 -14.5t8 -33.5q-3 -19 -19.5 -33.5t-36.5 -14.5q-19 0 -31 14t-9 34zM471 684q4 20 20.5 34t35.5 14q20 0 32 -14.5t8 -33.5q-3 -19 -19.5 -33.5t-36.5 -14.5q-19 0 -31 14t-9 34z" />
<glyph unicode="&#xf7;" horiz-adv-x="844" d="M114 250q3 20 36 20h633q10 0 15.5 -0.5t10.5 -5.5t4 -14q-4 -20 -38 -20h-631q-10 0 -16 0.5t-11 5.5t-3 14zM385 93q3 22 21 37.5t40 15.5t35 -15.5t10 -37.5q-4 -22 -22 -37.5t-40 -15.5t-35 15.5t-9 37.5zM437 407q4 22 22 37.5t40 15.5t35 -15.5t9 -37.5t-22 -37.5 t-40 -15.5t-35 15.5t-9 37.5z" />
<glyph unicode="&#xf8;" horiz-adv-x="636" d="M92 -42l70 83q-90 87 -68 214q18 112 109.5 192.5t202.5 80.5q76 0 135 -42l71 84l18 -14l-71 -85q40 -33 60 -91t9 -125q-19 -113 -110.5 -191t-201.5 -78q-80 0 -135 41l-71 -83zM166 255q-20 -119 22 -183l330 388q-46 46 -116 46q-98 0 -167 -81q-51 -61 -69 -170z M204 54q43 -46 115 -46q97 0 165 77q53 60 72 170q19 122 -23 186z" />
<glyph unicode="&#xf9;" horiz-adv-x="613" d="M125 489l4 25l107 -3l109 3l-4 -25q-49 0 -62 -8t-18 -39l-45 -269q-4 -38 -3 -64.5t12.5 -44.5t22.5 -28.5t27 -16t26 -7t20 -1.5q58 0 113 43.5t69 123.5l39 235q13 76 -59 76l4 25q40 -3 84 -3q46 0 85 3l-4 -25q-71 0 -83 -62l-44 -266q-11 -62 -70.5 -118.5 t-139.5 -56.5t-128.5 49t-44.5 113q0 12 10 75l36 217q6 33 -3.5 41t-59.5 8zM320 742q2 13 15 24.5t27 11.5q16 0 32 -25l98 -145l-21 -19l-138 123q-16 16 -13 30z" />
<glyph unicode="&#xfa;" horiz-adv-x="613" d="M125 489l4 25l107 -3l109 3l-4 -25q-49 0 -62 -8t-18 -39l-45 -269q-4 -38 -3 -64.5t12.5 -44.5t22.5 -28.5t27 -16t26 -7t20 -1.5q58 0 113 43.5t69 123.5l39 235q13 76 -59 76l4 25q40 -3 84 -3q46 0 85 3l-4 -25q-71 0 -83 -62l-44 -266q-11 -62 -70.5 -118.5 t-139.5 -56.5t-128.5 49t-44.5 113q0 12 10 75l36 217q6 33 -3.5 41t-59.5 8zM363 608l146 145q25 25 40 25q14 0 23 -11.5t7 -24.5q-3 -16 -23 -30l-180 -123z" />
<glyph unicode="&#xfb;" horiz-adv-x="613" d="M125 489l4 25l107 -3l109 3l-4 -25q-49 0 -62 -8t-18 -39l-45 -269q-4 -38 -3 -64.5t12.5 -44.5t22.5 -28.5t27 -16t26 -7t20 -1.5q58 0 113 43.5t69 123.5l39 235q13 76 -59 76l4 25q40 -3 84 -3q46 0 85 3l-4 -25q-71 0 -83 -62l-44 -266q-11 -62 -70.5 -118.5 t-139.5 -56.5t-128.5 49t-44.5 113q0 12 10 75l36 217q6 33 -3.5 41t-59.5 8zM275 610l179 162l125 -162l-15 -14l-121 108l-157 -108z" />
<glyph unicode="&#xfc;" horiz-adv-x="613" d="M125 489l4 25l107 -3l109 3l-4 -25q-49 0 -62 -8t-18 -39l-45 -269q-4 -38 -3 -64.5t12.5 -44.5t22.5 -28.5t27 -16t26 -7t20 -1.5q58 0 113 43.5t69 123.5l39 235q13 76 -59 76l4 25q40 -3 84 -3q46 0 85 3l-4 -25q-71 0 -83 -62l-44 -266q-11 -62 -70.5 -118.5 t-139.5 -56.5t-128.5 49t-44.5 113q0 12 10 75l36 217q6 33 -3.5 41t-59.5 8zM303 684q4 20 20.5 34t35.5 14q20 0 32 -14.5t8 -33.5q-3 -19 -19.5 -33.5t-36.5 -14.5q-19 0 -31 14t-9 34zM479 684q4 20 20.5 34t35.5 14q20 0 32 -14.5t8 -33.5q-3 -19 -19.5 -33.5 t-36.5 -14.5q-19 0 -31 14t-9 34z" />
<glyph unicode="&#xfd;" horiz-adv-x="613" d="M101 489l4 25q44 -3 96 -3l109 3l-4 -25q-41 0 -45 -20q-1 -11 8 -27l104 -203l153 182q19 23 22 38q3 27 -24 30l4 25q39 -3 81 -3q38 0 71 3l-4 -25q-64 -3 -120 -70l-181 -214l-21 -130q-6 -34 3.5 -42t59.5 -8l-4 -25l-106 3l-107 -3l4 25q49 0 62 8t18 39l22 134 l-129 251q-10 20 -24 26t-52 6zM344 608l146 145q25 25 40 25q14 0 23 -11.5t7 -24.5q-3 -16 -23 -30l-180 -123z" />
<glyph unicode="&#xfe;" horiz-adv-x="558" d="M39 0l4 25q53 0 66 7.5t18 40.5l62 368q5 33 -5 40.5t-63 7.5l4 25l111 -3l113 3l-4 -25q-53 0 -66 -7.5t-18 -40.5l-8 -44h129q83 0 130 -42.5t38 -98.5q-10 -57 -71 -98t-136 -41h-136l-8 -44q-5 -33 5 -40.5t63 -7.5l-4 -25l-111 3zM210 141h109q44 0 74 11.5t44 33.5 t18.5 35t8.5 36q3 17 4 28t-2.5 29.5t-14 29.5t-34.5 20t-60 9h-69q-27 0 -34.5 -6.5t-12.5 -36.5z" />
<glyph unicode="&#xff;" horiz-adv-x="613" d="M101 489l4 25q44 -3 96 -3l109 3l-4 -25q-41 0 -45 -20q-1 -11 8 -27l104 -203l153 182q19 23 22 38q3 27 -24 30l4 25q39 -3 81 -3q38 0 71 3l-4 -25q-64 -3 -120 -70l-181 -214l-21 -130q-6 -34 3.5 -42t59.5 -8l-4 -25l-106 3l-107 -3l4 25q49 0 62 8t18 39l22 134 l-129 251q-10 20 -24 26t-52 6zM284 684q4 20 20.5 34t35.5 14q20 0 32 -14.5t8 -33.5q-3 -19 -19.5 -33.5t-36.5 -14.5q-19 0 -31 14t-9 34zM460 684q4 20 20.5 34t35.5 14q20 0 32 -14.5t8 -33.5q-3 -19 -19.5 -33.5t-36.5 -14.5q-19 0 -31 14t-9 34z" />
<glyph unicode="&#x152;" horiz-adv-x="1092" d="M143 339q25 153 146.5 259.5t262.5 106.5q29 0 83 -13q42 -9 74 -9h396l-10 -225h-25q3 57 -0.5 89.5t-19.5 58.5t-48.5 36t-88.5 10h-126q-34 0 -42.5 -7t-13.5 -33l-40 -242h117q74 0 100.5 23.5t38.5 93.5h25l-44 -265h-25q12 69 -7 93t-93 24h-117l-45 -268 q-5 -26 1.5 -33t40.5 -7h128q63 0 104.5 12.5t69.5 45.5t43.5 67.5t37.5 101.5h25l-85 -258h-411q-32 0 -95 -14q-41 -8 -71 -8q-139 0 -225.5 104.5t-60.5 256.5zM245 354q-25 -147 32 -250.5t161 -103.5q34 0 57.5 8t37.5 26.5t20.5 35t14.5 45.5q10 35 42 227 q32 187 34 234q4 55 -13 81t-80 26q-103 0 -192.5 -94t-113.5 -235z" />
<glyph unicode="&#x153;" horiz-adv-x="824" d="M105 255q19 113 110.5 193t199.5 80q23 0 67 -8q33 -6 58 -6h300l-9 -169h-25q6 84 -16.5 114t-100.5 30h-86q-27 0 -35 -7t-13 -36l-27 -167h82q55 0 75.5 17.5t28.5 69.5h25l-33 -199h-25q8 52 -6 69.5t-70 17.5h-82l-31 -186q-4 -30 1 -36.5t32 -6.5h89 q87 0 122.5 35.5t65.5 133.5h25l-61 -194h-312q-26 0 -79 -9q-28 -5 -50 -5q-107 0 -173 78t-47 191zM189 266q-17 -107 24 -182.5t118 -75.5q49 0 68 19.5t31 64.5q4 14 31 165q24 144 25 175q2 38 -12 56t-60 18q-76 0 -142 -69t-83 -171z" />
<glyph unicode="&#x178;" d="M135 652l5 31l130 -3q113 0 149 3l-5 -31q-68 0 -72 -24q-1 -7 5 -20l144 -294l224 271q13 18 15 29q4 19 -9.5 28.5t-37.5 9.5l5 31l114 -3q52 0 99 3l-5 -31q-90 -2 -141 -64l-260 -315l-33 -193q-5 -31 6 -40t66 -9h23l-5 -31q-35 3 -145 3t-147 -3l5 31h24q54 0 68 9 t19 38l33 195l-169 345q-10 20 -27.5 27t-58.5 7h-19zM386 784q3 19 19.5 33.5t36.5 14.5q19 0 31 -14t9 -34q-4 -20 -20.5 -34t-35.5 -14q-20 0 -32 14.5t-8 33.5zM594 784q3 19 19.5 33.5t36.5 14.5q19 0 31 -14t9 -34q-4 -20 -20.5 -34t-35.5 -14q-20 0 -32 14.5t-8 33.5 z" />
<glyph unicode="&#x2c6;" horiz-adv-x="553" d="M212 527l179 162l125 -162l-15 -14l-121 108l-157 -108z" />
<glyph unicode="&#x2dc;" horiz-adv-x="553" d="M196 569q53 48 76.5 63.5t50.5 15.5q25 0 67 -27q32 -22 58 -22q44 0 94 49l15 -15q-54 -48 -77.5 -63.5t-50.5 -15.5q-24 0 -66 27q-34 22 -58 22q-45 0 -95 -49z" />
<glyph unicode="&#x2000;" horiz-adv-x="454" />
<glyph unicode="&#x2001;" horiz-adv-x="908" />
<glyph unicode="&#x2002;" horiz-adv-x="454" />
<glyph unicode="&#x2003;" horiz-adv-x="908" />
<glyph unicode="&#x2004;" horiz-adv-x="302" />
<glyph unicode="&#x2005;" horiz-adv-x="227" />
<glyph unicode="&#x2006;" horiz-adv-x="151" />
<glyph unicode="&#x2007;" horiz-adv-x="151" />
<glyph unicode="&#x2008;" horiz-adv-x="113" />
<glyph unicode="&#x2009;" horiz-adv-x="181" />
<glyph unicode="&#x200a;" horiz-adv-x="50" />
<glyph unicode="&#x2010;" horiz-adv-x="378" d="M57 187l10 58h279l-10 -58h-279z" />
<glyph unicode="&#x2011;" horiz-adv-x="378" d="M57 187l10 58h279l-10 -58h-279z" />
<glyph unicode="&#x2012;" horiz-adv-x="378" d="M57 187l10 58h279l-10 -58h-279z" />
<glyph unicode="&#x2013;" horiz-adv-x="553" d="M57 255l3 22h524l-3 -22h-524z" />
<glyph unicode="&#x2014;" horiz-adv-x="1106" d="M71 255l3 22h1049l-3 -22h-1049z" />
<glyph unicode="&#x2018;" horiz-adv-x="319" d="M174 499q9 53 39.5 101t56 70.5t33.5 22.5q11 0 9 -11q-1 -4 -7 -9q-92 -75 -109 -175q-2 -12 -2 -21q19 23 48 23q25 0 36.5 -16t8.5 -37q-4 -21 -20.5 -37t-41.5 -16q-33 0 -45.5 30.5t-5.5 74.5z" />
<glyph unicode="&#x2019;" horiz-adv-x="319" d="M188 406q0 4 6 9q93 76 109 175q3 18 3 21q-19 -23 -49 -23q-25 0 -36 15.5t-8 37.5q3 21 20 37t42 16q33 0 45 -30.5t5 -74.5q-9 -53 -39 -101t-55.5 -70.5t-33.5 -22.5q-11 0 -9 11z" />
<glyph unicode="&#x201a;" horiz-adv-x="319" d="M82 -184q1 4 7 9q92 75 109 175q3 18 3 21q-19 -23 -49 -23q-25 0 -36.5 16t-7.5 37q3 21 19.5 37t41.5 16q33 0 45.5 -30.5t5.5 -74.5q-9 -53 -39.5 -101t-56 -70.5t-33.5 -22.5q-11 0 -9 11z" />
<glyph unicode="&#x201c;" horiz-adv-x="523" d="M174 499q9 53 39.5 101t56 70.5t33.5 22.5q11 0 9 -11q-1 -4 -7 -9q-92 -75 -109 -175q-2 -12 -2 -21q19 23 48 23q25 0 36.5 -16t8.5 -37q-4 -21 -20.5 -37t-41.5 -16q-33 0 -45.5 30.5t-5.5 74.5zM378 499q9 53 39.5 101t56 70.5t33.5 22.5q11 0 9 -11q-1 -4 -7 -9 q-92 -75 -109 -175q-2 -12 -2 -21q19 23 48 23q25 0 36.5 -16t8.5 -37q-4 -21 -20.5 -37t-41.5 -16q-33 0 -45.5 30.5t-5.5 74.5z" />
<glyph unicode="&#x201d;" horiz-adv-x="523" d="M189 406q0 4 6 9q93 76 109 175q3 18 3 21q-19 -23 -49 -23q-25 0 -36 15.5t-8 37.5q3 21 20 37t42 16q33 0 45 -30.5t5 -74.5q-9 -53 -39 -101t-55.5 -70.5t-33.5 -22.5q-11 0 -9 11zM393 406q0 4 6 9q93 76 109 175q3 18 3 21q-19 -23 -49 -23q-25 0 -36 15.5t-8 37.5 q3 21 20 37t42 16q33 0 45 -30.5t5 -74.5q-9 -53 -39 -101t-55.5 -70.5t-33.5 -22.5q-11 0 -9 11z" />
<glyph unicode="&#x201e;" horiz-adv-x="523" d="M90 -184q1 4 7 9q92 75 109 175q3 18 3 21q-19 -23 -49 -23q-25 0 -36.5 16t-7.5 37q3 21 19.5 37t41.5 16q33 0 45.5 -30.5t5.5 -74.5q-9 -53 -39.5 -101t-56 -70.5t-33.5 -22.5q-11 0 -9 11zM294 -184q1 4 7 9q92 75 109 175q3 18 3 21q-19 -23 -49 -23q-25 0 -36.5 16 t-7.5 37q3 21 19.5 37t41.5 16q33 0 45.5 -30.5t5.5 -74.5q-9 -53 -39.5 -101t-56 -70.5t-33.5 -22.5q-11 0 -9 11z" />
<glyph unicode="&#x2022;" horiz-adv-x="844" d="M288 276q12 73 74 126.5t136 53.5q73 0 117.5 -53t32.5 -127q-12 -73 -74 -126.5t-136 -53.5q-73 0 -117.5 53t-32.5 127z" />
<glyph unicode="&#x2026;" horiz-adv-x="720" d="M116 53q4 22 22 37.5t40 15.5t35 -15.5t9 -37.5t-22 -37.5t-40 -15.5t-35 15.5t-9 37.5zM316 53q4 22 22 37.5t40 15.5t35 -15.5t9 -37.5t-22 -37.5t-40 -15.5t-35 15.5t-9 37.5zM516 53q4 22 22 37.5t40 15.5t35 -15.5t9 -37.5t-22 -37.5t-40 -15.5t-35 15.5t-9 37.5z " />
<glyph unicode="&#x202f;" horiz-adv-x="181" />
<glyph unicode="&#x2039;" horiz-adv-x="408" d="M157 242q2 5 5 7q119 97 188 228q3 6 11 6h2q5 0 7 -4t0 -8q-50 -121 -141 -229q54 -106 65 -230q0 -12 -12 -12h-2q-8 0 -8 7q-28 133 -113 227q-2 4 -2 8z" />
<glyph unicode="&#x203a;" horiz-adv-x="408" d="M119 12q51 122 140 230q-54 107 -64 229q0 12 12 12h2q7 0 8 -6q28 -134 113 -228q2 -4 2 -7q-2 -4 -5 -8q-118 -97 -188 -227q-3 -7 -11 -7h-2q-5 0 -7 4t0 8z" />
<glyph unicode="&#x205f;" horiz-adv-x="227" />
<glyph unicode="&#x20ac;" horiz-adv-x="657" d="M104 284l5 10q3 7 11 7h48q3 45 14 82h-52q-5 0 -7 4t0 9l5 10q2 7 10 7h52q37 108 114 185q105 107 232 107q69 0 113 -46l47 43q3 3 8 3h3q10 0 8 -10l-26 -155q-2 -10 -12 -10h-10q-8 0 -8 9q3 57 -30 96.5t-88 39.5q-48 0 -93.5 -26t-79.5 -69q-53 -65 -79 -167h312 q5 0 7.5 -4t0.5 -9l-5 -10q-4 -7 -11 -7h-310l-8 -41l-6 -41h280q5 0 7 -4.5t0 -8.5l-5 -10q-3 -7 -10 -7h-275q-9 -104 22 -168q20 -43 57.5 -69t84.5 -26q55 0 101 39.5t62 96.5q4 9 12 9h10q10 0 8 -10l-26 -155q-2 -10 -12 -10h-3q-4 0 -6 3l-33 44q-60 -47 -128 -47 q-111 0 -180.5 86t-67.5 207h-55q-5 0 -7.5 4t-0.5 9z" />
<glyph unicode="&#x2122;" horiz-adv-x="1065" d="M122 548l35 135h385l-11 -135h-15q6 77 -9.5 97t-85.5 20q-29 0 -35 -1q-7 -1 -10.5 -4t-4.5 -6.5t-2 -12.5l-53 -316q-3 -18 5.5 -23.5t52.5 -5.5h24l-3 -19q-23 2 -113 2q-89 0 -114 -2l3 19h24q31 0 45 3.5t17.5 8.5t5.5 17l53 316q1 7 1 9.5t-0.5 6t-3 5t-6.5 2.5 q-6 1 -35 1q-70 0 -92.5 -20t-42.5 -97h-15zM521 277l3 19q28 0 44.5 8.5t20 16t5.5 19.5l50 300q2 18 -4 23t-39 5h-15l4 19h102q10 0 13.5 -1.5t4.5 -9.5l82 -342l196 342q5 8 8.5 9.5t14.5 1.5h101l-4 -19h-14q-33 0 -41.5 -5t-10.5 -23l-53 -316q-3 -18 3.5 -23t39.5 -5 h14l-3 -19q-21 2 -85 2t-87 -2l3 19h14q33 0 41.5 5t11.5 23l58 345l-1 1l-219 -382q-9 -11 -14 -11q-7 0 -9 11l-91 377l-54 -325q0 -9 -1 -18.5t13 -17.5t42 -8l-3 -19l-70 2z" />
<glyph unicode="&#xe000;" horiz-adv-x="515" d="M0 0v515h515v-515h-515z" />
</font>
</defs>
</svg>
