<?xml version="1.0" standalone="no"?>
<!DOCTYPE svg PUBLIC "-//W3C//DTD SVG 1.1//EN" "http://www.w3.org/Graphics/SVG/1.1/DTD/svg11.dtd" >
<svg xmlns="http://www.w3.org/2000/svg">
<metadata></metadata>
<defs>
<font id="dynalightregular" horiz-adv-x="391" >
<font-face units-per-em="1000" ascent="800" descent="-200" />
<missing-glyph horiz-adv-x="239" />
<glyph unicode="&#xfb01;" horiz-adv-x="459" d="M-169 -253l235 567q-44 -67 -114 -152l-12 10q83 102 118 157t62 113q36 80 69.5 121t71.5 41q19 0 30.5 -13.5t11.5 -34.5q0 -66 -55 -138.5t-144 -154.5l-113 -275q110 81 206 200l100 123q32 40 56 40q26 0 26 -25q0 -20 -12 -45l-82 -198q-5 -15 -5 -18q0 -9 10 -9 q16 0 37 27l90 110l12 -10l-108 -133q-41 -50 -78 -50q-15 0 -24.5 8.5t-9.5 21.5q0 19 22 69l78 181q2 4 2 5q0 6 -6 6q-5 0 -9 -6l-87 -107q-55 -69 -103.5 -114.5t-129.5 -111.5l-76 -183zM121 302q162 159 162 254q0 27 -16 27q-29 0 -71 -99zM385 500q0 19 12.5 31.5 t27.5 12.5q14 0 22.5 -10t8.5 -25q0 -17 -11 -31t-28 -14q-14 0 -23 11t-9 25z" />
<glyph unicode="&#xfb02;" horiz-adv-x="447" d="M-169 -253l235 567q-44 -67 -114 -152l-12 10q83 102 118 157t62 113q36 80 69.5 121t71.5 41q19 0 30.5 -13.5t11.5 -34.5q0 -66 -55 -138.5t-144 -154.5l-114 -277q98 71 194 187q65 79 104 134.5t53 82.5t33 73l56 132h58l-216 -512q-4 -12 -4 -18q0 -9 9 -9 q16 0 37 27l90 110l12 -10l-108 -133q-24 -29 -39.5 -39.5t-34.5 -10.5q-15 0 -24.5 8.5t-9.5 21.5q0 19 22 69l92 220q-29 -45 -105 -141q-55 -69 -103.5 -114.5t-129.5 -111.5l-76 -183zM121 302q162 159 162 254q0 27 -16 27q-29 0 -71 -99z" />
<glyph horiz-adv-x="0" />
<glyph unicode="&#xd;" horiz-adv-x="1000" />
<glyph unicode=" "  horiz-adv-x="239" />
<glyph unicode="&#x09;" horiz-adv-x="239" />
<glyph unicode="&#xa0;" horiz-adv-x="239" />
<glyph unicode="!" horiz-adv-x="217" d="M-44 32q0 14 10 24t24 10t24.5 -10t10.5 -24t-10.5 -24.5t-24.5 -10.5t-24 10.5t-10 24.5zM7 97l235 585h69l-291 -585h-13z" />
<glyph unicode="&#x22;" horiz-adv-x="162" d="M69 485l58 178h61l-97 -178h-22zM150 485l59 178h61l-97 -178h-23z" />
<glyph unicode="#" horiz-adv-x="329" d="M-25 213l10 22h62l53 120h-66l10 22h65l45 102h25l-45 -102h70l45 102h24l-45 -102h67l-10 -22h-66l-53 -120h70l-10 -22h-69l-50 -113h-24l49 113h-69l-50 -113h-25l50 113h-63zM72 235h70l52 120h-69z" />
<glyph unicode="$" horiz-adv-x="332" d="M-51 118l41 33q31 -56 63 -72l68 208q-25 31 -37 47.5t-24.5 44t-12.5 51.5q0 65 43 98.5t99 33.5q14 0 20 -1l26 79l22 -8l-25 -76q51 -15 85 -59l-41 -34q-28 51 -52 67l-64 -197q69 -85 69 -144q0 -62 -45.5 -99.5t-101.5 -37.5q-9 0 -13 1l-32 -98l-22 6l30 95 q-59 13 -96 62zM75 72q4 -1 11 -1q37 0 65.5 28.5t28.5 73.5q0 35 -42 92zM95 451q0 -35 48 -96l60 186q-12 2 -18 2q-38 0 -64 -23.5t-26 -68.5z" />
<glyph unicode="%" horiz-adv-x="526" d="M20 0l392 595h41l-392 -595h-41zM27 399q0 73 52.5 135t110.5 62q32 0 51 -21.5t19 -57.5q0 -73 -52 -134.5t-111 -61.5q-31 0 -50.5 21.5t-19.5 56.5zM72 387q0 -45 32 -45q38 0 75 63.5t37 124.5q0 46 -31 46q-39 0 -76 -64t-37 -125zM212 79q0 72 52 134t111 62 q32 0 51 -21.5t19 -57.5q0 -72 -52.5 -134t-110.5 -62q-32 0 -51 21.5t-19 57.5zM256 66q0 -45 32 -45q39 0 75.5 63.5t36.5 124.5q0 46 -31 46q-39 0 -76 -64t-37 -125z" />
<glyph unicode="&#x26;" horiz-adv-x="433" d="M-16 83q0 40 25.5 77.5t54 58t60.5 38.5l31 18q4 1 4 5q0 6 -12.5 12.5t-24.5 17t-12 27.5q0 35 45 71.5t86 36.5q3 0 8 -0.5t17.5 -3.5t22 -8.5t17.5 -17t8 -27.5l-51 -41q4 11 4 22q0 23 -11 37t-28 14q-25 0 -43.5 -15.5t-18.5 -36.5q0 -22 32 -42q26 -16 26 -29 t-23 -22q-37 -15 -75.5 -47t-60.5 -76q-17 -37 -17 -66q0 -58 60 -58q35 0 67.5 20.5t53.5 52.5h-16q-37 0 -56.5 19t-19.5 45q0 29 20 48t51 19q22 0 41 -16.5t19 -48.5q0 -8 -2 -22h136l-22 -44h-128q-22 -46 -67 -77.5t-95 -31.5q-40 0 -73 20.5t-33 70.5zM158 179 q0 -14 11.5 -24t35.5 -10h44q3 12 3 23q0 51 -47 51q-18 0 -32.5 -10.5t-14.5 -29.5z" />
<glyph unicode="'" horiz-adv-x="80" d="M69 485l58 178h61l-97 -178h-22z" />
<glyph unicode="(" horiz-adv-x="294" d="M14 141q0 110 40 207q42 99 137.5 214.5t188.5 181.5h16q-162 -151 -252.5 -339t-90.5 -353q0 -54 11 -104h-16q-34 92 -34 193z" />
<glyph unicode=")" horiz-adv-x="294" d="M-96 -52q154 147 248.5 333.5t94.5 353.5q0 52 -11 109h15q38 -65 38 -174q0 -316 -369 -622h-16z" />
<glyph unicode="*" horiz-adv-x="240" d="M84 504l15 44l74 -37l-13 84h48l-14 -84l75 37l14 -44l-83 -13l59 -66l-39 -26l-36 79l-36 -79l-40 26l59 66z" />
<glyph unicode="+" d="M3 267l16 37h128l55 134h41l-55 -134h136l-15 -37h-136l-54 -135h-41l54 135h-129z" />
<glyph unicode="," horiz-adv-x="131" d="M-64 -50q39 25 44 46q-29 7 -29 34q0 15 10.5 25.5t24.5 10.5q15 0 25.5 -10.5t10.5 -26.5q0 -24 -24 -50.5t-54 -43.5z" />
<glyph unicode="-" d="M27 201l19 57h247l-19 -57h-247z" />
<glyph unicode="." horiz-adv-x="131" d="M-49 31q0 14 10.5 24.5t24.5 10.5q15 0 25.5 -10.5t10.5 -24.5q0 -15 -10.5 -25.5t-25.5 -10.5q-14 0 -24.5 10.5t-10.5 25.5z" />
<glyph unicode="/" horiz-adv-x="257" d="M-122 0l458 682h43l-458 -682h-43z" />
<glyph unicode="0" horiz-adv-x="482" d="M-20 152q0 105 50.5 209.5t128 169.5t153.5 65q64 0 100 -42.5t36 -120.5q0 -105 -50.5 -209.5t-128 -169.5t-153.5 -65q-63 0 -99.5 42.5t-36.5 120.5zM40 134q0 -120 82 -120q55 0 118.5 74.5t106 178t42.5 184.5q0 123 -83 123q-55 0 -118.5 -75t-105.5 -179t-42 -186 z" />
<glyph unicode="1" horiz-adv-x="310" d="M0 318l250 270h62l-246 -588h-60l223 531l-212 -229z" />
<glyph unicode="2" horiz-adv-x="432" d="M-117 6q56 44 137 99t132.5 91t103 80.5t76.5 91.5t25 99q0 45 -26 74.5t-67 29.5q-78 0 -130 -58t-52 -127q0 -38 17 -63l-60 -35q-8 29 -8 55q0 98 75 175.5t180 77.5q59 0 96.5 -36t37.5 -91q0 -57 -25 -105.5t-74.5 -89.5t-98 -72.5t-120.5 -75t-118 -77.5 q21 10 60 10q18 0 59.5 -2.5t64.5 -2.5q53 0 82 28l18 -10l-66 -80q-25 3 -69.5 10.5t-81.5 11.5t-74 4q-48 0 -82 -27z" />
<glyph unicode="3" horiz-adv-x="419" d="M-126 -51q60 6 122 27t120 55t95 87.5t37 116.5q0 48 -20.5 80t-68.5 32q-24 0 -53 -11l-7 21q23 10 46 14q59 15 104.5 52t45.5 91q0 30 -16 45.5t-43 15.5q-43 0 -76 -30t-50 -79l-39 50q87 79 175 79q48 0 81 -23t33 -62q0 -51 -46 -85.5t-110 -52.5q55 -8 85 -45 t30 -87q0 -58 -33 -108.5t-82.5 -84.5t-112 -59.5t-116 -39t-100.5 -18.5z" />
<glyph unicode="4" horiz-adv-x="456" d="M-76 125q120 96 233 228t185 242l55 -27q-47 -74 -182 -216t-243 -212q45 24 91 24q31 0 86.5 -10t76.5 -12l121 288h60l-121 -289q58 2 84 14l-9 -22q-45 -17 -89 -24l-45 -109h-60l43 104h-7q-34 0 -95.5 11t-90.5 11q-48 0 -84 -18z" />
<glyph unicode="5" horiz-adv-x="433" d="M-107 -51q60 6 122 27t120 55t95 87.5t37 116.5q0 105 -89 105q-79 0 -147 -80l-28 32l163 283q34 13 66 13q29 0 77 -12.5t72 -12.5q36 0 76 23l7 -16q-82 -62 -142 -62q-32 0 -69.5 15.5t-49.5 15.5q-9 0 -27 -4l-130 -229q66 68 151 68q67 0 104 -38.5t37 -95.5 q0 -58 -33 -108.5t-82.5 -84.5t-112 -59.5t-116 -39t-99.5 -18.5z" />
<glyph unicode="6" horiz-adv-x="470" d="M-29 155q0 106 74.5 203.5t187.5 158.5t232 74v-17q-122 -25 -228.5 -100t-159.5 -173q85 87 185 87q70 0 103.5 -44t33.5 -104q0 -90 -80.5 -170.5t-182.5 -80.5q-76 0 -120.5 46.5t-44.5 119.5zM38 157q0 -144 103 -144q76 0 134.5 71.5t58.5 155.5q0 117 -97 117 q-57 0 -106.5 -35.5t-79.5 -79.5q-13 -40 -13 -85z" />
<glyph unicode="7" horiz-adv-x="356" d="M-38 0q29 86 69 158.5t88 129t88.5 96t95 89t83.5 79.5q-68 -20 -206 -20q-43 0 -70 -10t-52 -42l-17 9l69 109q72 -18 159 -18q103 0 170 21l13 -11q-42 -50 -115.5 -123t-117 -120.5t-95.5 -139t-88 -207.5h-74z" />
<glyph unicode="8" horiz-adv-x="431" d="M-46 122q0 24 7 45t16 36.5t28 31.5t33 25.5t41 23t41 19.5t45 19q-56 67 -56 132q0 62 49 102t112 40q49 0 83 -30t34 -81q0 -54 -39 -88.5t-112 -67.5q3 -3 17 -18.5t18 -20t15.5 -18.5t15.5 -21t12 -20.5t11 -23.5t5.5 -23.5t2.5 -26.5q0 -77 -65 -120.5t-154 -43.5 q-72 0 -116 34.5t-44 94.5zM-5 123q0 -49 31 -77t88 -28q65 0 113 39.5t48 99.5q0 15 -4.5 29.5t-17 32t-19.5 26t-28.5 31.5t-26.5 29q-34 -14 -56 -25t-49 -28t-42 -34.5t-26 -42t-11 -52.5zM169 469q0 -60 53 -122q62 28 95.5 60.5t33.5 81.5q0 37 -19.5 60t-56.5 23 q-45 0 -75.5 -28t-30.5 -75z" />
<glyph unicode="9" horiz-adv-x="470" d="M-54 -6v17q122 25 228.5 100t159.5 172q-86 -86 -185 -86q-70 0 -103.5 44t-33.5 104q0 90 80.5 170.5t182.5 80.5q76 0 120.5 -46.5t44.5 -119.5q0 -106 -74.5 -203.5t-187.5 -158.5t-232 -74zM77 345q0 -52 23 -84.5t74 -32.5q56 0 106 36t79 79q15 42 15 85 q0 144 -104 144q-76 0 -134.5 -71.5t-58.5 -155.5z" />
<glyph unicode=":" horiz-adv-x="211" d="M-44 31q0 14 10.5 24.5t24.5 10.5q15 0 25.5 -10.5t10.5 -24.5q0 -15 -10.5 -25.5t-25.5 -10.5q-14 0 -24.5 10.5t-10.5 25.5zM62 272q0 15 10.5 25.5t24.5 10.5q15 0 25.5 -10.5t10.5 -25.5t-10.5 -25.5t-25.5 -10.5q-14 0 -24.5 10.5t-10.5 25.5z" />
<glyph unicode=";" horiz-adv-x="211" d="M-60 -50q40 25 45 46q-29 7 -29 34q0 15 10.5 25.5t24.5 10.5q15 0 25.5 -10.5t10.5 -26.5q0 -24 -24 -50.5t-54 -43.5zM62 272q0 15 10.5 25.5t24.5 10.5q15 0 25.5 -10.5t10.5 -25.5t-10.5 -25.5t-25.5 -10.5q-14 0 -24.5 10.5t-10.5 25.5z" />
<glyph unicode="&#x3c;" d="M29 285l278 153l-21 -52l-196 -108l136 -137l-16 -37z" />
<glyph unicode="=" d="M-4 217l15 37h285l-15 -37h-285zM31 318l15 37h286l-16 -37h-285z" />
<glyph unicode="&#x3e;" d="M14 104l21 52l196 108l-136 137l16 37l181 -181z" />
<glyph unicode="?" horiz-adv-x="410" d="M25 31q0 14 10.5 24.5t24.5 10.5q15 0 25.5 -10.5t10.5 -24.5q0 -15 -10.5 -25.5t-25.5 -10.5q-14 0 -24.5 10.5t-10.5 25.5zM65 97q21 55 59 108t74.5 92t71 80t56 89.5t21.5 102.5q0 39 -19.5 67t-54.5 28q-55 0 -100 -47t-45 -104q0 -30 17 -47.5t47 -17.5q29 0 56 27 l6 -13q-38 -42 -91 -42q-36 0 -62 22t-26 59q0 72 68.5 126.5t145.5 54.5q53 0 87 -33t34 -84q0 -54 -27.5 -105.5t-70 -94t-86.5 -82.5t-84.5 -89t-56.5 -97h-20z" />
<glyph unicode="@" horiz-adv-x="696" d="M35 171q0 94 39.5 185.5t102.5 159t145 109.5t163 42q86 0 134.5 -48t48.5 -131q0 -77 -41 -156t-106.5 -131t-130.5 -52q-11 0 -20 7t-9 19q0 20 16 61q5 12 18 42t22.5 53t9.5 25q0 4 -4 4t-7 -6q-1 -1 -27.5 -38t-54 -73.5t-41.5 -50.5q-42 -44 -67 -44 q-14 0 -24.5 11t-10.5 38q0 44 36 102.5t96 105.5t119 53v-8q-71 -21 -129 -101t-58 -129q0 -18 9 -18q12 0 55.5 52t89.5 114q52 71 65 80q9 6 19 6q20 0 23.5 -13t-4.5 -25l-88 -209q-4 -10 -4 -15q0 -10 11 -10q57 0 123.5 95.5t66.5 204.5q0 89 -33.5 127t-98.5 38 q-64 0 -125.5 -30.5t-108.5 -80.5t-82.5 -111.5t-54.5 -127.5t-19 -124q0 -80 37 -121t103 -41q56 0 119 30l10 -17q-72 -41 -154 -41q-73 0 -126 46t-53 142z" />
<glyph unicode="A" horiz-adv-x="718" d="M-68 85q0 82 80.5 129t210.5 47h31q103 176 177 273.5t123.5 131.5t99.5 34q67 0 67 -76q0 -57 -41 -157l-87 -206h49l-21 -45h-47l-91 -216h-65l91 216h-213q-3 -7 -7 -14q-118 -211 -259 -211q-43 0 -70.5 25.5t-27.5 68.5zM-44 87q0 -30 19 -50.5t59 -20.5 q29 0 53.5 13t47.5 40.5t37.5 50.5t37.5 63q5 10 8 15l11 18h-29q-129 0 -186.5 -37t-57.5 -92zM322 261h205l87 206q62 151 62 184q0 31 -28 31q-36 0 -65.5 -23t-91.5 -115t-169 -283z" />
<glyph unicode="B" horiz-adv-x="622" d="M-93 68q0 38 28 65t73 27q31 0 77 -30q6 12 74.5 190t109.5 237q50 72 91 101t98 42q13 4 33 4q52 0 91.5 -32.5t39.5 -88.5q0 -32 -16 -58.5t-34 -41t-50 -35.5q-12 -8 -27 -17t-24 -14.5t-18 -11.5t-13 -12t-4 -13q0 -9 16 -41.5t32 -79t16 -88.5q0 -79 -58.5 -129.5 t-145.5 -50.5q-34 0 -70.5 13.5t-59 28.5t-55.5 40q-56 -80 -126 -80q-31 0 -54.5 19t-23.5 56zM-69 66q0 -22 13.5 -35.5t35.5 -13.5q29 0 50 20t43 65q-43 31 -70 31q-34 0 -53 -20.5t-19 -46.5zM128 99q36 -27 54 -39t49.5 -26t57.5 -14q62 0 103.5 44t41.5 103 q0 42 -27.5 109.5t-27.5 78.5q0 8 3 14.5t12 15t16.5 13.5t25.5 17.5t29 20.5q93 66 93 146q0 46 -27 70t-73 24q-27 0 -45 -11q-16 -10 -31 -26.5t-32 -46t-28.5 -50.5t-30 -64.5t-26 -62.5t-27.5 -69.5t-24 -61.5q-51 -130 -86 -185z" />
<glyph unicode="C" horiz-adv-x="515" d="M8 177q0 98 41.5 197t104 168.5t134 113.5t129.5 44q63 0 102.5 -36t39.5 -93q0 -64 -49 -126t-114 -85l-10 13q55 26 86.5 79.5t31.5 123.5q0 47 -21 76.5t-60 29.5q-79 0 -161.5 -83t-133.5 -200.5t-51 -217.5q0 -81 32 -120t86 -39q86 0 163 71l13 -18 q-87 -84 -192 -84q-29 0 -57.5 9.5t-55 29.5t-42.5 58t-16 89z" />
<glyph unicode="D" horiz-adv-x="688" d="M-74 63q0 40 31 68.5t77 28.5q35 0 75 -35q17 33 68 155l63 151h-58q-54 0 -93 23t-39 66q0 70 87 125t223 55q113 0 196.5 -77.5t83.5 -207.5q0 -95 -47 -192.5t-131.5 -164.5t-180.5 -67q-75 0 -152 71q-56 -69 -127 -69q-30 0 -53 18t-23 52zM-50 65q0 -22 13 -35 t35 -13q28 0 50 18.5t46 60.5q-41 37 -68 37q-34 0 -55 -21.5t-21 -46.5zM104 537q0 -62 95 -62h59l72 171h63l-72 -171h157l-18 -44h-157l-95 -226q-31 -72 -59 -115q25 -22 40 -34t40.5 -23.5t49.5 -11.5q80 0 149 65.5t106 160t37 186.5q0 111 -55 180t-164 69 q-108 0 -178 -44.5t-70 -100.5z" />
<glyph unicode="E" horiz-adv-x="453" d="M-25 135q0 54 32.5 96t71 63t71 45.5t32.5 48.5q0 5 -9 33.5t-9 56.5q0 6 1 10q-44 -8 -72 -11l-12 21q46 5 86 12q13 72 67 131.5t121 59.5q26 0 42.5 -17t16.5 -43q0 -43 -52.5 -80t-144.5 -61q2 -13 12 -39.5t10 -42.5q0 -33 -20.5 -58.5t-49.5 -43t-57.5 -37t-49 -53 t-20.5 -78.5q0 -60 40 -94t90 -34q87 0 175 76l12 -16q-62 -52 -110.5 -70.5t-103.5 -18.5q-74 0 -122 38t-48 106zM215 521q151 39 151 122q0 36 -33 36q-35 0 -76.5 -45.5t-41.5 -110.5v-2z" />
<glyph unicode="F" horiz-adv-x="640" d="M44 539q0 63 56.5 97t131.5 34q29 0 68 -14t91.5 -38t85.5 -35q44 60 96.5 88.5t94.5 28.5q35 0 52.5 -16.5t17.5 -41.5q0 -46 -50 -76t-112 -30q-34 0 -70 6q-2 -5 -6.5 -14.5t-8.5 -17.5t-7 -15l-91 -218h153l-20 -47h-153l-97 -230h-62l98 229q-117 -2 -150 -17l-3 14 q66 38 173 48l93 217q19 43 30 60q-37 8 -78 20t-87.5 27t-65.5 21q-33 9 -58 9q-54 0 -76 -25t-22 -51q0 -27 21.5 -46.5t56.5 -19.5q36 0 73 14l-20 -47q-24 -8 -50 -8q-45 0 -75 24.5t-30 69.5zM523 570q33 -7 59 -7q58 0 89 28.5t31 58.5q0 15 -9.5 24.5t-26.5 9.5 q-33 0 -71.5 -30.5t-71.5 -83.5z" />
<glyph unicode="G" horiz-adv-x="546" d="M15 243q0 86 42 172t104 147t133.5 99.5t129.5 38.5q63 0 102.5 -33t39.5 -86q0 -60 -48.5 -118t-114.5 -79l-9 13q55 24 86 73.5t31 113.5q0 44 -21 71t-59 27q-79 0 -162 -72t-134 -173.5t-51 -187.5q0 -70 32 -104t86 -34q68 0 139 56l53 123h62l-73 -173 q-26 -65 -68.5 -110.5t-118.5 -74.5l-7 14q21 9 40 25t30 29t24 36.5t16.5 31t12.5 27.5l12 30q-66 -44 -137 -44q-66 0 -118.5 38.5t-53.5 123.5z" />
<glyph unicode="H" horiz-adv-x="656" d="M24 499q90 93 177 147t136 54q51 0 51 -58q0 -55 -45 -159l-64 -149q39 -27 65 -78h122l179 426h62l-179 -426h50l-19 -44h-49l-89 -212h-62v1q2 42 2 60q0 89 -20 151h-114l-92 -212h-60l91 212q-51 3 -75 24.5t-24 51.5t19.5 49.5t40.5 25.5t42 6q31 0 60 -9l52 123 q62 143 62 179q0 20 -14 20q-5 0 -13.5 -2t-38 -16t-61.5 -37.5t-81.5 -74.5t-99.5 -119zM96 300q0 -18 16.5 -31t47.5 -13h24l37 86q-23 8 -55 8t-51 -14t-19 -36zM246 256h77q-21 38 -51 61zM361 212q20 -59 20 -140v-19l67 159h-87z" />
<glyph unicode="I" horiz-adv-x="446" d="M-20 65l48 30q-6 -24 -6 -40q0 -43 35 -43q79 0 169 156q-25 -5 -46 -5q-55 0 -98 36t-43 102q0 70 39.5 145.5t95 129.5t113 89t93.5 35q25 0 41 -26t16 -76q0 -116 -96 -326q-1 -3 -3 -7t-3 -7q26 26 63 68l16 -16q-72 -78 -103 -101q-114 -218 -246 -218 q-39 0 -61.5 20.5t-23.5 53.5zM102 304q0 -54 29.5 -84.5t72.5 -30.5q19 0 37 6q28 54 50 106q104 251 104 340q0 41 -24 41q-22 0 -66 -35.5t-89.5 -88t-79.5 -123.5t-34 -131z" />
<glyph unicode="J" horiz-adv-x="520" d="M-59 -250q0 143 185 276q-100 80 -100 228q0 93 40 179.5t99.5 144t127.5 92t126 34.5q41 0 63.5 -23.5t22.5 -84.5q0 -114 -90 -324q-8 -17 -24 -54t-25 -57q10 4 29 12.5t26 11.5l8 -20q-34 -15 -77 -35q-33 -75 -71 -147q12 -3 38 -9l-7 -20q-5 1 -20 3.5t-22 4.5 q-148 -277 -270 -277q-27 0 -43 19.5t-16 45.5zM-1 -231q0 -33 26 -33q62 0 157 143q27 42 51 93q-44 14 -82 37q-152 -119 -152 -240zM93 257q0 -153 60 -212q66 44 146 84q14 36 35 94.5t28 77.5q103 258 103 334q0 51 -43 51q-47 0 -105 -37t-107.5 -95t-83 -138.5 t-33.5 -158.5zM175 27q25 -18 69 -33q15 33 43 103q-58 -32 -112 -70z" />
<glyph unicode="K" horiz-adv-x="587" d="M24 499q90 93 177 147t136 54q51 0 51 -58q0 -55 -45 -159l-208 -483h-60l206 483q62 143 62 179q0 20 -14 20q-5 0 -13.5 -2t-38 -16t-61.5 -37.5t-81.5 -74.5t-99.5 -119zM305 369q0 17 25 46q61 76 174.5 159t210.5 126l9 -70q-64 -14 -125 -41t-101.5 -55.5 t-72 -55.5t-45.5 -44l-15 -17q-2 -58 -1 -92q1 -57 2.5 -100.5t5 -93t10.5 -84t17.5 -64.5t26.5 -45t37 -15q8 0 15 1.5t11 3t12 6.5t10.5 6.5t12 9.5t12.5 10l12 -16q-20 -18 -32 -27t-32.5 -17t-44.5 -8q-50 0 -79.5 38t-44.5 145t-10 294z" />
<glyph unicode="L" horiz-adv-x="527" d="M-88 63q0 40 31 68.5t77 28.5q40 0 85 -35q40 75 97 273q27 94 58 157t64 93t60.5 41t59.5 11q47 0 75 -25t28 -62q0 -35 -24.5 -64t-62.5 -43l-14 57q29 1 50.5 16t21.5 43q0 25 -19 42.5t-58 17.5q-18 0 -34 -6.5t-30 -22.5t-25.5 -30.5t-23.5 -42.5t-19.5 -45 t-18.5 -52t-15.5 -50t-15.5 -51q-58 -195 -117 -284q73 -57 133 -57q50 0 79.5 17t43.5 67l22 -6q-42 -128 -154 -128q-70 0 -150 72q-58 -70 -128 -70q-30 0 -53 18t-23 52zM-64 65q0 -22 13 -35t35 -13q54 0 102 74q-44 42 -74 42q-34 0 -55 -21.5t-21 -46.5z" />
<glyph unicode="M" horiz-adv-x="837" d="M24 543q90 93 177 147t136 54q51 0 51 -58q0 -55 -45 -159l-23 -53q67 102 125.5 150.5t97.5 48.5q51 0 51 -58q0 -51 -45 -159l-47 -112q68 105 125 154.5t97 49.5q52 0 52 -62q0 -57 -40 -154l-82 -199q-5 -11 -13 -31.5t-12 -30t-11 -26t-10 -25t-7.5 -21t-7 -19.5 t-4.5 -16t-3 -15t-1 -11q0 -22 18 -22q25 0 73 55l15 -13q-54 -64 -101 -64q-57 0 -57 61q0 46 56 178l85 199q61 138 61 178q0 21 -15 21q-4 0 -12 -2t-34.5 -18.5t-55.5 -45t-74 -91.5t-91 -148l-94 -226h-63l191 456q62 148 62 179q0 21 -14 21q-4 0 -12 -2t-35 -18.5 t-56 -45.5t-74.5 -92.5t-91.5 -150.5l-148 -347h-61l224 527q62 143 62 179q0 20 -14 20q-5 0 -13.5 -1.5t-38 -14.5t-62 -36t-82 -73.5t-99.5 -118.5z" />
<glyph unicode="N" horiz-adv-x="640" d="M24 552q91 94 175.5 147.5t133.5 53.5q52 0 52 -62q0 -58 -42 -155l-38 -90q162 236 281 236q53 0 53 -61q0 -55 -41 -155l-138 -324q-68 -160 -68 -195q0 -22 17 -22q26 0 73 55l16 -13q-56 -64 -101 -64q-57 0 -57 61q0 9 1.5 20t3 20t6 23t7.5 22t9.5 24t9 22.5t10 24 t9.5 22.5l137 324q5 11 17.5 40.5t18 43.5t13.5 35t11.5 35.5t3.5 24.5q0 20 -14 20q-6 0 -16.5 -2t-44 -19.5t-69 -47.5t-88.5 -96t-104 -156l-146 -344h-61l227 536q58 136 58 177q0 23 -15 23q-4 0 -12.5 -1.5t-37.5 -14.5t-60.5 -36t-80.5 -73.5t-99 -118.5z" />
<glyph unicode="O" horiz-adv-x="567" d="M7 175q0 84 31 173q22 64 55 120t64 89.5t59 58t45 34.5l17 10l9 -11q-4 -3 -11.5 -9.5t-29 -32.5t-42 -57t-47 -84.5t-47.5 -115.5q-37 -105 -37 -190q0 -65 24 -104.5t66 -39.5q63 0 144 84t140.5 212.5t59.5 239.5q0 132 -70 132q-64 0 -122 -102.5t-58 -209.5 q0 -53 15 -78.5t50 -25.5q22 0 35.5 8.5t17.5 15.5l5 -13q-29 -44 -81 -44q-43 0 -67 35t-24 99q0 68 37 146.5t93 132t106 53.5q44 0 80 -44t36 -141q0 -98 -40 -197t-100.5 -170.5t-132 -116.5t-133.5 -45q-67 0 -107 52t-40 136z" />
<glyph unicode="P" horiz-adv-x="528" d="M-49 0l88 208h-28q-8 0 -21.5 0.5t-18.5 0.5l28 47q21 -1 59 -1l92 219q45 106 120 166.5t159 60.5q58 0 103 -36t45 -101q0 -79 -60.5 -152t-160.5 -128q-110 -61 -253 -73l-89 -211h-63zM121 256q150 7 232 51q74 39 116.5 115.5t42.5 148.5q0 58 -27 85t-66 27 q-28 0 -61 -17.5t-74 -67t-72 -124.5z" />
<glyph unicode="Q" horiz-adv-x="576" d="M-16 -20q0 26 37.5 44.5t112.5 18.5h113q114 85 189 231.5t75 277.5q0 58 -25.5 94.5t-68.5 36.5q-80 0 -159 -68.5t-128 -173.5t-49 -208q0 -38 16.5 -61.5t39.5 -23.5q51 0 93 57l10 -10q-54 -84 -131 -84q-46 0 -70.5 36t-24.5 85q0 86 36 172.5t93 151t130.5 105 t144.5 40.5q26 0 50 -8t48 -27t38.5 -57.5t14.5 -92.5q0 -133 -75.5 -261.5t-193.5 -211.5h135l-18 -43h-188q-100 -51 -194 -51q-51 0 -51 31zM8 -21q0 -12 32 -12q67 0 136 33h-91q-31 0 -54 -6.5t-23 -14.5z" />
<glyph unicode="R" horiz-adv-x="528" d="M-68 0l198 474q44 106 119.5 166.5t159.5 60.5q58 0 103 -36t45 -101q0 -48 -19 -88t-54 -69.5t-72 -50t-86 -40.5q-22 -9 -51 -20q-32 -12 -32 -17l1 -2v-3q9 -29 26.5 -77.5t74 -169.5t116.5 -208l-66 -17q-111 176 -202 441q-5 18 -5 22q0 17 10 24t49 20t75 30 q170 82 170 231q0 59 -27 86t-66 27q-47 0 -103 -48.5t-103 -160.5l-198 -474h-63z" />
<glyph unicode="S" horiz-adv-x="522" d="M-39 127q0 101 112 181l38 -46q-116 -61 -116 -146q0 -41 37.5 -70t111.5 -29q79 0 138 43t59 119q0 35 -27.5 82t-60.5 87t-60.5 91t-27.5 94q0 45 18 78.5t48.5 52t64 27.5t69.5 9q95 0 157 -80l-48 -37q-30 55 -60 76t-67 21q-50 0 -87.5 -34t-37.5 -93q0 -35 29 -81 t63 -85t63 -92.5t29 -101.5q0 -88 -79.5 -145t-185.5 -57q-80 0 -130 36t-50 100z" />
<glyph unicode="T" horiz-adv-x="643" d="M24 479q0 93 107 157t257 64q73 0 160.5 -26t221.5 -96l-32 -58q-116 70 -225 103l-261 -623h-63l269 637q-75 18 -143 18q-108 0 -187 -48t-79 -109q0 -37 44 -37h126l-15 -43h-124q-24 0 -40 16.5t-16 44.5z" />
<glyph unicode="U" horiz-adv-x="683" d="M24 499q90 93 177 147t136 54q54 0 54 -58q0 -55 -45 -159l-118 -276q-51 -125 -51 -168q0 -22 21 -22q13 0 29.5 4.5t49 25t67 55t83 103.5t96.5 162l136 315h63l-247 -580q-17 -40 -17 -62q0 -23 17 -23q29 0 54.5 28t88.5 122q11 15 16 23l13 -8q-32 -50 -46 -71 t-36.5 -51t-36.5 -41t-32 -20t-38 -9q-7 0 -14.5 1.5t-18 6.5t-17.5 17.5t-7 31.5q0 35 24 90l31 73q-148 -219 -271 -219q-30 0 -46 18.5t-16 48.5q0 53 41 149l117 276q62 143 62 179q0 20 -14 20q-5 0 -13.5 -2t-38 -16t-61.5 -37.5t-81.5 -74.5t-99.5 -119z" />
<glyph unicode="V" horiz-adv-x="615" d="M24 499q87 94 168.5 147.5t129.5 53.5q31 0 47.5 -20t16.5 -54q0 -55 -30 -143l-72 -211q-46 -133 -46 -218q0 -33 21 -33q47 0 132.5 104.5t139.5 234.5q2 4 5 11t4 11q-18 47 -18 103q0 63 17 95.5t40 32.5q10 0 18 -10t8 -32q0 -74 -44 -192q10 -20 33 -48l-14 -13 q-19 22 -28 38l-3 -7q-61 -150 -153 -254t-147 -104q-34 0 -51 27.5t-17 75.5q0 74 45 201l66 188q45 131 44 170q0 29 -18 29q-6 0 -15 -1.5t-37.5 -14.5t-58.5 -36t-76 -73.5t-93 -118.5zM543 465q0 -31 6 -55q30 90 30 127q0 20 -8 20q-11 0 -19.5 -28t-8.5 -64z" />
<glyph unicode="W" horiz-adv-x="790" d="M24 499q87 94 168.5 147.5t129.5 53.5q31 0 47.5 -20t16.5 -54q0 -55 -30 -143l-72 -211q-46 -133 -46 -218q0 -33 21 -33q24 0 62.5 44t74.5 113q11 26 43 117l116 318h58l-121 -341q-47 -132 -46 -205q0 -46 27 -46q43 0 105 97t123 242q5 12 8 22q-17 49 -17 103 q0 63 17 95.5t40 32.5q10 0 18 -10t8 -32q0 -74 -44 -192q10 -20 33 -48l-14 -13q-19 22 -28 38l-3 -7q-65 -160 -135.5 -259t-121.5 -99q-64 0 -64 102q0 25 3 53q-88 -155 -152 -155q-34 0 -51 27.5t-17 75.5q0 74 45 201l66 188q45 131 44 170q0 29 -18 29q-6 0 -15 -1.5 t-37.5 -14.5t-58.5 -36t-76 -73.5t-93 -118.5zM713 465q0 -31 6 -55q30 90 30 127q0 20 -8 20q-11 0 -19.5 -28t-8.5 -64z" />
<glyph unicode="X" horiz-adv-x="615" d="M-19 -11l9 69q23 -7 56.5 7.5t55.5 32.5l22 18q62 58 179 203l-3 191q-2 100 -6.5 136t-21.5 36q-9 0 -18 -2t-30 -14.5t-43 -33.5t-55.5 -64.5t-68.5 -103.5l-10 72q142 162 237 164q44 1 61 -35t18 -122l2 -147q140 175 189 223q7 6 18.5 15t43 24.5t58.5 15.5h9 l-29 -59q-28 -1 -59 -16.5t-49 -30.5l-17 -15q-17 -16 -164 -197l3 -267q1 -31 7 -44t22 -13q13 0 30 12t24.5 20.5t23.5 28.5l14 -13q-42 -52 -68 -70.5t-53 -18.5q-59 0 -61 99l-3 191q-115 -140 -151 -180q-86 -103 -172 -112z" />
<glyph unicode="Y" horiz-adv-x="656" d="M24 499q90 93 177 147t136 54q54 0 54 -58q0 -55 -45 -159l-118 -276q-51 -125 -51 -168q0 -22 21 -22q13 0 29 4.5t48.5 24.5t67 54.5t82.5 102.5t96 159l107 251h63l-202 -476q-64 -153 -112 -224h66l-20 -43h-76q-102 -129 -229 -129q-41 0 -60.5 18t-19.5 47 q0 12 6.5 27t23.5 34.5t58.5 32.5t99.5 13h87q53 84 112 224l31 72q-148 -218 -271 -218q-30 0 -46 18.5t-16 48.5q0 53 41 149l117 276q62 143 62 179q0 20 -14 20q-5 0 -13.5 -2t-38 -16t-61.5 -37.5t-81.5 -74.5t-99.5 -119zM59 -198q0 -41 59 -41q89 0 167 109h-79 q-147 0 -147 -68z" />
<glyph unicode="Z" horiz-adv-x="620" d="M-98 33q0 22 21 36.5t58 14.5t100 -12q110 89 248 267t202 290q-67 0 -162.5 14.5t-146.5 14.5q-54 0 -75.5 -25t-21.5 -51q0 -28 21 -47t57 -19q35 0 72 14l-20 -47q-24 -8 -50 -8q-45 0 -75 24.5t-30 68.5q0 63 56.5 97.5t132.5 34.5q35 0 134 -11.5t192 -11.5 q-43 -111 -201.5 -307.5t-298.5 -303.5q162 -31 257 -31q66 0 91 20t25 45q0 18 -14 31t-35 18l42 40q31 -24 31 -69q0 -63 -56 -97.5t-132 -34.5q-99 0 -255 46q-68 -43 -110 -43q-28 0 -42.5 12.5t-14.5 29.5zM-75 35q0 -23 35 -23q33 0 80 30q-50 15 -75 15 q-40 0 -40 -22z" />
<glyph unicode="[" horiz-adv-x="321" d="M-65 -52l331 796h123l-10 -24h-68l-312 -748h68l-9 -24h-123z" />
<glyph unicode="\" horiz-adv-x="257" d="M73 700h35l76 -700h-36z" />
<glyph unicode="]" horiz-adv-x="321" d="M-53 -52l10 24h68l314 748h-69l10 24h123l-333 -796h-123z" />
<glyph unicode="^" horiz-adv-x="366" d="M92 480l174 202h53l16 -202h-54l-4 162l-128 -162h-57z" />
<glyph unicode="_" horiz-adv-x="250" d="M-107 -124l19 42h234l-19 -42h-234z" />
<glyph unicode="`" horiz-adv-x="244" d="M106 507h61l-1 -95h-16z" />
<glyph unicode="a" horiz-adv-x="342" d="M-100 55q0 50 41 117t110 120.5t137 60.5v-9q-81 -24 -147.5 -115t-66.5 -148q0 -21 10 -21q26 0 166 190q59 79 72 90q12 9 25 9q18 0 18 -18q0 -12 -6 -26q-4 -8 -44.5 -109t-46.5 -113q-5 -15 -5 -18q0 -9 10 -9q16 0 37 27l89 110l13 -10l-108 -133q-41 -50 -78 -50 q-15 0 -24.5 8.5t-9.5 21.5q0 20 22 69q56 127 56 138q0 5 -3 5q-5 0 -9 -7q-3 -3 -32 -44t-60.5 -83.5t-47.5 -58.5q-50 -50 -78 -50q-16 0 -28 12.5t-12 43.5z" />
<glyph unicode="b" horiz-adv-x="390" d="M-60 172q33 40 58.5 74t40.5 55t30.5 46t20.5 34t17.5 35t16.5 33l61 146h59l-202 -478q-2 -6 -2 -8q0 -5 3 -5q4 0 10 7q98 147 142 191q20 19 30 28t23.5 16.5t24.5 7.5q15 0 28 -14t13 -45q0 -64 -56.5 -140t-132.5 -120q132 41 221 156l12 -10q-35 -44 -75 -76.5 t-71 -50t-71.5 -30t-60 -16t-53.5 -8.5v9q90 33 151.5 118t61.5 142q0 23 -11 23q-22 0 -168 -198q-48 -65 -64 -82t-34 -17t-18 18q0 12 6 26l115 274q-38 -60 -114 -151z" />
<glyph unicode="c" horiz-adv-x="286" d="M-73 88q0 55 29.5 106.5t71 84.5t82.5 52.5t66 19.5q20 0 34.5 -12.5t14.5 -36.5q0 -10 -1 -16q-4 -18 -35.5 -37t-51.5 -19q39 49 39 82q0 20 -17 20q-30 0 -72.5 -49t-73 -113t-30.5 -106q0 -44 41 -44q80 0 214 167l12 -9q-48 -61 -87.5 -100t-68 -54.5t-44 -19.5 t-33.5 -4q-9 0 -20.5 2.5t-29 10t-29 27t-11.5 48.5z" />
<glyph unicode="d" horiz-adv-x="342" d="M-100 56q0 85 95 186t193 111v-9q-84 -28 -149 -117t-65 -146q0 -21 10 -21q26 0 166 190q26 35 48.5 72t32.5 56l10 20l83 197h59l-215 -512q-5 -15 -5 -18q0 -9 10 -9q16 0 37 27l89 110l13 -10l-108 -133q-41 -50 -78 -50q-15 0 -24.5 8.5t-9.5 21.5q0 20 22 69 q4 10 17 39.5t23 53.5t14 35q2 3 2 8t-3 5t-9 -7q-12 -16 -38.5 -53t-47 -64t-45 -56t-47 -45t-40.5 -16q-15 0 -27.5 13t-12.5 44z" />
<glyph unicode="e" horiz-adv-x="280" d="M-73 81q0 52 25.5 103.5t62 87t75.5 57.5t66 22q49 0 49 -55q0 -62 -70.5 -113t-137.5 -52q-14 -37 -14 -66q0 -45 35 -45q80 0 214 167l13 -9q-140 -178 -235 -178q-31 0 -57 18.5t-26 62.5zM1 145q65 11 110 63t45 101q0 22 -16 22q-26 0 -69.5 -59.5t-69.5 -126.5z " />
<glyph unicode="f" horiz-adv-x="244" d="M-169 -253l235 567q-44 -67 -114 -152l-12 10q57 70 95 125.5t50.5 78t34.5 66.5q66 162 141 162q19 0 30.5 -13.5t11.5 -34.5q0 -66 -55 -138.5t-144 -154.5l-113 -275q107 79 206 200l12 -10q-38 -48 -78.5 -89.5t-68.5 -65.5t-86 -71l-76 -183zM121 302 q162 159 162 254q0 27 -16 27q-29 0 -71 -99z" />
<glyph unicode="g" horiz-adv-x="341" d="M-130 -215q0 25 10.5 47.5t34 44.5t43.5 38t57 42t57 41l95 231q3 6 3 8q0 5 -3 5q-5 0 -9 -7q-3 -3 -32 -44t-60.5 -83.5t-47.5 -58.5q-50 -50 -78 -50q-16 0 -28 12.5t-12 43.5q0 50 41 117t110 120.5t137 60.5v-9q-81 -24 -147.5 -115t-66.5 -148q0 -21 10 -21 q26 0 166 190q59 79 73 90q12 9 25 9q18 0 18 -18q0 -12 -6 -26l-114 -271q75 63 149 154l13 -10q-72 -91 -176 -178l-47 -113q-34 -81 -69.5 -121.5t-84.5 -40.5q-31 0 -46 18t-15 42zM-111 -216q0 -16 8.5 -28t26.5 -12q43 0 84 100l52 124q-10 -7 -33 -23.5t-31.5 -22.5 t-26 -19.5t-24.5 -19.5t-19 -17.5t-16.5 -19.5t-10.5 -19t-8 -21t-2 -22z" />
<glyph unicode="h" horiz-adv-x="373" d="M-60 172q32 39 58 73.5t41.5 56.5t31.5 49t21.5 38l18.5 37t17 33l57 136h59l-200 -474q-2 -8 -2 -11q0 -5 3 -5q6 0 12 10l102 152q33 48 53 67t40 19q39 0 39 -29q0 -15 -8 -33l-85 -208q-5 -15 -5 -18q0 -9 10 -9q16 0 37 27l90 110l12 -10l-108 -133q-41 -50 -78 -50 q-14 0 -24 8.5t-10 21.5q0 19 22 69l79 187q2 6 2 7q0 10 -10 10t-18 -12l-161 -239q-34 -52 -61 -52q-23 0 -23 21q0 18 21 68l96 229q-43 -66 -117 -156z" />
<glyph unicode="i" horiz-adv-x="215" d="M-57 175l110 136q32 40 55 40q13 0 20 -7.5t7 -17.5q0 -16 -12 -45l-82 -198q-5 -15 -5 -18q0 -9 10 -9q16 0 37 27l89 110l13 -10l-108 -133q-41 -50 -78 -50q-15 0 -24.5 8.5t-9.5 21.5q0 19 22 69l78 181q1 2 1 5q0 6 -5 6t-9 -6l-97 -119zM141 500q0 19 12.5 31.5 t27.5 12.5q14 0 22.5 -10t8.5 -25q0 -17 -11 -31t-28 -14q-14 0 -23 11t-9 25z" />
<glyph unicode="j" horiz-adv-x="213" d="M-174 -253q229 509 239 533q1 2 1 5q0 6 -5 6t-9 -6l-97 -119l-12 9l110 136q32 40 55 40q13 0 20 -7.5t7 -17.5q0 -16 -12 -45l-109 -251q84 72 153 158l13 -10q-72 -91 -181 -183l-99 -228zM141 500q0 19 12.5 31.5t27.5 12.5q14 0 22.5 -10t8.5 -25q0 -17 -11 -31 t-28 -14q-14 0 -23 11t-9 25z" />
<glyph unicode="k" horiz-adv-x="378" d="M-60 172q24 29 44.5 56t34.5 46t28.5 41t21.5 32.5t18 31.5t13.5 25.5t13.5 26.5t12 25l59 139h59l-199 -474q-2 -4 -2 -9q0 -7 4 -7q5 0 12 10l115 178q39 60 76 60q45 0 45 -53q0 -26 -15.5 -48t-38 -38t-45 -32.5t-38 -39.5t-15.5 -51q0 -23 11 -35t30 -12q32 0 62 39 l89 110l13 -10l-108 -133q-41 -50 -85 -50q-23 0 -40.5 19t-17.5 47q0 35 24 66t66 68q53 44 53 96q0 18 -14 18q-15 0 -29 -23l-159 -238q-21 -29 -34.5 -41t-30.5 -12q-20 0 -20 21q0 20 21 68l95 229q-43 -66 -117 -156z" />
<glyph unicode="l" horiz-adv-x="203" d="M-60 172q39 48 67 85t49 71t29 47t25.5 48.5t19.5 39.5l56 132h58l-216 -512q-5 -15 -5 -18q0 -9 10 -9q16 0 37 27l90 110l12 -10l-108 -133q-24 -29 -39.5 -39.5t-34.5 -10.5q-15 0 -24.5 8.5t-9.5 21.5q0 19 22 69l92 220q-43 -66 -118 -157z" />
<glyph unicode="m" horiz-adv-x="535" d="M-57 175l110 136q32 40 55 40q13 0 20 -7.5t7 -17.5q0 -16 -12 -45l-68 -160q-3 -6 -3 -11t4 -5q5 0 12 10l107 164q27 42 45 57t45 15q13 0 21 -7.5t8 -17.5q0 -20 -12 -45l-68 -160q-3 -6 -3 -11t4 -5q6 0 12 10l94 152q30 47 51 66.5t43 19.5q38 0 38 -29 q0 -15 -8 -33l-85 -208q-5 -15 -5 -18q0 -9 10 -9q16 0 37 27l90 110l12 -10l-108 -133q-41 -50 -78 -50q-14 0 -24 8.5t-10 21.5q0 19 22 69l79 187q2 6 2 7q0 10 -10 10q-9 0 -18 -12l-153 -239q-34 -52 -61 -52q-23 0 -23 21q0 18 21 68l86 203q2 4 2 5q0 8 -8 8 q-9 0 -18 -14l-158 -239q-36 -52 -62 -52q-22 0 -22 21q0 18 21 68l81 191q1 2 1 5q0 6 -5 6t-9 -6l-97 -119z" />
<glyph unicode="n" horiz-adv-x="384" d="M-57 175l110 136q32 40 55 40q13 0 20 -7.5t7 -17.5q0 -16 -12 -45l-68 -160q-3 -6 -3 -11t4 -5q5 0 12 10l102 152q32 48 52 67t41 19q38 0 38 -29q0 -12 -7 -33l-85 -208q-5 -15 -5 -18q0 -9 10 -9q16 0 37 27l89 110l13 -10l-108 -133q-41 -50 -78 -50 q-15 0 -24.5 8.5t-9.5 21.5q0 19 22 69l79 187q1 3 1 7q0 10 -9 10q-11 0 -18 -12l-161 -239q-36 -52 -62 -52q-22 0 -22 21q0 18 21 68l81 191q1 2 1 5q0 6 -5 6t-9 -6l-97 -119z" />
<glyph unicode="o" horiz-adv-x="326" d="M-68 99q0 80 53.5 151t139.5 103l4 -7q-70 -61 -107 -139t-37 -142q0 -19 8.5 -33t24.5 -14q41 0 105 93q-44 23 -44 88q0 51 32.5 93.5t66.5 42.5q22 0 40.5 -19t18.5 -62q0 -63 -42 -134q35 7 83 67l12 -10q-54 -70 -107 -75q-31 -46 -72 -74.5t-84 -28.5q-39 0 -67 26 t-28 74zM97 201q0 -56 35 -76q62 101 62 165q0 25 -24 25q-20 0 -46.5 -36.5t-26.5 -77.5z" />
<glyph unicode="p" horiz-adv-x="390" d="M-173 -253l103 241l136 325q-42 -63 -115 -152l-12 9q57 71 91.5 118.5t46.5 68t30 54.5l10 23h59l-126 -301q-2 -4 -2 -8q0 -5 3 -5t9 6q1 2 14 20t28 38.5t32 44t33.5 43.5t26.5 30q20 19 30 28t23.5 16.5t24.5 7.5q15 0 28 -14t13 -45q0 -64 -56.5 -140t-131.5 -120 q131 42 220 156l12 -10q-35 -44 -75 -76.5t-71 -50t-71.5 -30t-60 -16t-53.5 -8.5v9q90 33 151.5 118t61.5 142q0 23 -11 23q-27 0 -124.5 -136t-131.5 -209q-15 -31 -44 -101t-32 -77z" />
<glyph unicode="q" horiz-adv-x="342" d="M-100 55q0 50 41 117t110 120.5t137 60.5v-9q-81 -24 -147.5 -115t-66.5 -148q0 -21 10 -21q26 0 166 190q59 79 73 90q12 9 25 9q18 0 18 -18q0 -12 -6 -26l-112 -270q81 71 147 153l13 -10q-65 -82 -160 -165q-1 -33 -7 -75.5t-18 -93.5t-35.5 -85t-54.5 -34 q-43 0 -43 46q0 27 18 72l159 386q3 6 3 8q0 5 -3 5q-5 0 -9 -7q-3 -3 -32 -44t-60.5 -83.5t-47.5 -58.5q-50 -50 -78 -50q-16 0 -28 12.5t-12 43.5zM38 -242q0 -10 9 -10q29 0 53.5 81.5t30.5 163.5l-84 -203q-9 -22 -9 -32z" />
<glyph unicode="r" horiz-adv-x="245" d="M-60 172q73 93 110 145q-26 10 -26 36q0 15 14 36t35 21q27 0 27 -23q0 -22 -27 -53q10 -4 28 -4q6 0 16.5 0.5t14.5 0.5q25 0 25 -22q0 -15 -12 -46l-76 -180q-5 -15 -5 -18q0 -9 10 -9q16 0 37 27l90 110l12 -10l-108 -133q-41 -50 -76 -50q-15 0 -24 8t-9 22 q0 19 22 69l68 163q14 30 14 42q0 5 -6 5q-13 0 -28 3q-33 -48 -114 -150z" />
<glyph unicode="s" horiz-adv-x="250" d="M-91 21q0 15 21 37.5t36 22.5q14 0 12 -19.5t7 -19.5q39 0 67.5 60.5t28.5 128.5q0 43 -18 77q-26 -38 -111 -146l-12 10q79 100 115 151q-6 11 -6 20q0 23 22.5 45t44.5 22q20 0 20 -17q0 -5 -11 -22t-11 -21q0 -3 5 -17.5t10 -38.5t5 -50q0 -53 -24.5 -105.5 t-63.5 -89.5q85 47 160 142l12 -10q-111 -140 -243 -176q-20 -5 -33 -5q-33 0 -33 21z" />
<glyph unicode="t" horiz-adv-x="217" d="M-60 172q56 69 94 124t50.5 78t34.5 66h-119l9 20h120l38 92h59l-39 -92h139l-10 -20h-137l-151 -357q-6 -18 -6 -22q0 -14 14 -14q21 0 49 36l89 110l13 -10l-104 -127q-45 -56 -85 -56q-16 0 -28.5 9t-12.5 25q0 17 21 65l92 220q-43 -66 -118 -157z" />
<glyph unicode="u" horiz-adv-x="390" d="M-57 175l110 136q32 40 55 40q13 0 20 -7.5t7 -17.5q0 -16 -12 -45l-73 -174q-12 -27 -12 -45q0 -17 18 -17q13 0 35.5 33.5t56 95t49.5 86.5q44 70 57 81q14 12 36 12t22 -19q0 -13 -5 -25q-4 -8 -45 -111t-47 -115q-5 -10 -5 -18q0 -9 10 -9q16 0 37 27l89 110l12 -10 l-108 -133q-40 -50 -77 -50q-15 0 -24.5 8.5t-9.5 21.5q0 24 22 69q56 127 56 138q0 5 -3 5q-5 0 -9 -7q-20 -31 -43.5 -72t-38 -66t-32 -49.5t-35.5 -36t-39 -11.5q-17 0 -28 12t-11 33q0 31 14 59l73 176q1 2 1 5q0 6 -5 6t-9 -6l-97 -119z" />
<glyph unicode="v" horiz-adv-x="380" d="M-57 175l110 136q32 40 55 40q13 0 20 -7.5t7 -17.5q0 -16 -12 -45l-75 -187q-16 -39 -16 -55q0 -17 15 -17q33 0 115 107q-16 23 -16 66q0 58 36.5 108t76.5 50q41 0 41 -49q0 -78 -93 -185q6 -2 13 -2q30 0 54 13.5t58 56.5l12 -10q-34 -43 -62 -59.5t-62 -16.5 q-14 0 -26 3q-44 -47 -89.5 -77t-77.5 -30q-44 0 -44 52q0 33 24 91l58 140q1 2 1 5q0 6 -5 6t-9 -6l-97 -119zM165 196q0 -33 9 -50q83 114 83 168q0 18 -11 18q-22 0 -51.5 -42.5t-29.5 -93.5z" />
<glyph unicode="w" horiz-adv-x="537" d="M-61 175l110 136q32 40 55 40q27 0 27 -25q0 -16 -12 -45l-75 -187q-16 -39 -16 -55q0 -17 15 -17q16 0 49.5 32t69.5 80q0 2 2 6l72 173h57l-88 -219q-16 -39 -16 -55q0 -17 15 -17t45.5 29t63.5 72q-15 26 -15 67q0 58 39 110.5t80 52.5t41 -49q0 -82 -102 -195 q10 -2 16 -2q28 0 54 17t63 62l11 -10q-64 -85 -127 -85q-16 0 -29 5q-97 -99 -160 -99q-43 0 -43 52q0 13 3 30q-74 -82 -121 -82q-20 0 -32 13.5t-12 38.5q0 33 24 91l58 140q1 2 1 5q0 6 -5 6t-9 -6l-97 -119zM317 191q0 -31 9 -52q89 121 89 175q0 18 -12 18 q-22 0 -54 -44.5t-32 -96.5z" />
<glyph unicode="x" horiz-adv-x="333" d="M-79 0v47q4 -2 13 -2q62 0 144 101l-13 135q0 7 -6 7t-11 -7l-93 -115l-12 9l110 136q2 3 7 9t7 8.5t6 7t7 6.5t6.5 4.5t7.5 3.5t8 1q23 0 23 -25l10 -104q56 74 82 95t55 25l5 -58q-5 4 -16 4q-48 0 -124 -90l12 -128q2 -14 13 -14q16 0 37 27l90 110l12 -10l-108 -133 q-25 -30 -38.5 -40t-31.5 -10q-32 0 -34 30l-9 94q-35 -44 -62 -71.5t-45.5 -37.5t-28 -12.5t-23.5 -2.5z" />
<glyph unicode="y" horiz-adv-x="386" d="M-57 175l110 136q32 40 55 40q13 0 20 -7.5t7 -17.5q0 -16 -12 -45l-73 -174q-12 -27 -12 -45q0 -17 18 -17q13 0 35.5 33.5t56 95t49.5 86.5q44 70 57 81q14 12 36 12t22 -19q0 -13 -5 -25l-121 -280q80 69 154 159l12 -10q-72 -91 -181 -183l-99 -228l-73 -20 q208 462 217 486q6 9 -2 9q-5 0 -9 -7q-20 -31 -43.5 -72t-38 -66t-32 -49.5t-35.5 -36t-39 -11.5q-17 0 -28 12t-11 33q0 31 14 59l73 176q1 2 1 5q0 6 -5 6t-9 -6l-97 -119z" />
<glyph unicode="z" horiz-adv-x="279" d="M-117 -229q0 64 129 185q2 22 2 32q0 27 -8 42q-26 -13 -48 -13q-23 0 -23 18q0 13 15 24t41 11q13 0 29 -6q39 41 71.5 105.5t32.5 97.5q0 34 -27 34q-34 0 -80 -59q-38 -48 -62 -76l-12 9l60 75q84 105 148 105q19 0 34 -14t15 -46q0 -51 -50 -125.5t-111 -118.5 q14 -14 21 -37q88 71 172 174l13 -10q-75 -94 -182 -183v-9q0 -78 -54 -161t-97 -83q-29 0 -29 29zM-100 -228q0 -15 11 -15q19 1 50 55t45 115q-36 -33 -71 -80.5t-35 -74.5zM-53 37q0 -9 11 -9q16 0 39 15q-10 8 -23 8q-27 0 -27 -14z" />
<glyph unicode="{" horiz-adv-x="316" d="M-5 59q0 32 16 67.5t34.5 61t34.5 55t16 51.5q0 38 -23 50l3 10q25 7 53 33t39 53q6 16 18 75t22 83q17 43 62.5 79.5t81.5 52.5l37 15l5 -15l-12 -6t-28.5 -17t-38 -28t-36.5 -38t-29 -47q-11 -27 -17.5 -84t-15.5 -79q-11 -25 -34.5 -50.5t-52.5 -36.5q19 -15 19 -45 q0 -35 -28.5 -76.5t-57.5 -86t-29 -86.5q0 -25 9 -48t17 -34l9 -10l-9 -10q-2 0 -17 13.5t-31.5 41.5t-16.5 56z" />
<glyph unicode="|" horiz-adv-x="244" d="M103 -160v860h39v-860h-39z" />
<glyph unicode="}" horiz-adv-x="316" d="M-74 -37l12 6t28.5 17t38 28t36.5 38t29 47q11 27 18 84t16 79q10 24 33 50t53 37q-19 15 -19 45q0 28 18 61t39.5 58.5t39.5 61t18 68.5q0 25 -9 48t-17 33l-9 10l10 11q7 -5 18 -14.5t29 -39t18 -57.5q0 -41 -25.5 -85.5t-51 -83.5t-25.5 -66q0 -38 23 -50l-2 -11 q-25 -6 -53.5 -32t-39.5 -54q-7 -16 -18.5 -75t-20.5 -82q-18 -43 -63 -79.5t-82 -51.5l-36 -16z" />
<glyph unicode="~" d="M18 237q46 100 99 100q22 0 39.5 -16t32 -32t29.5 -16q34 0 65 64h39q-27 -53 -51 -76.5t-55 -23.5q-23 0 -41.5 16t-32.5 32t-26 16q-28 0 -59 -64h-39z" />
<glyph unicode="&#xa1;" horiz-adv-x="217" d="M-181 -253l291 585h13l-235 -585h-69zM105 397q0 14 10.5 24.5t24.5 10.5t24 -10.5t10 -24.5t-10 -24t-24 -10t-24.5 10t-10.5 24z" />
<glyph unicode="&#xa2;" horiz-adv-x="269" d="M-20 193q0 82 65 146.5t131 84.5l46 110l18 -8l-41 -97h5q18 0 31 -11t13 -33q0 -9 -1 -14q-4 -16 -32 -33t-46 -17q36 46 36 71q0 16 -14 18l-116 -276q44 3 104 61l12 -11q-69 -68 -125 -70l-47 -114l-19 7l46 109q-66 11 -66 77zM31 174q0 -32 23 -39l113 268 q-43 -23 -89.5 -100.5t-46.5 -128.5z" />
<glyph unicode="&#xa3;" horiz-adv-x="460" d="M-88 53q0 33 26.5 57.5t64.5 24.5q32 0 71 -28q29 57 59 161h-89l12 25h85q2 6 4.5 16t5 17.5t4.5 14.5q22 79 49 132t55.5 78t52.5 34.5t51 9.5q40 0 63 -21t23 -53q0 -29 -20.5 -53t-51.5 -36l-17 48q24 1 42 13.5t18 35.5q0 20 -14.5 33t-44.5 13q-18 0 -34.5 -9.5 t-29.5 -28t-24 -39t-21.5 -49.5t-17.5 -52t-16.5 -55t-15.5 -49h140l-11 -25h-137q-41 -119 -87 -185q61 -43 110 -43q42 0 65.5 12.5t38.5 52.5l20 -5q-35 -107 -132 -107q-60 0 -125 59q-51 -58 -108 -58q-25 0 -44.5 15t-19.5 44zM-65 55q0 -17 10.5 -28t27.5 -11 q44 0 84 61q-37 32 -61 32q-29 0 -45 -16.5t-16 -37.5z" />
<glyph unicode="&#xa4;" d="M16 182l54 53q-26 35 -26 75t26 76q-17 16 -54 53l25 25l54 -53q37 25 76 25q41 0 75 -24l21 21l31 31q5 -5 13 -12.5t13 -12.5l-53 -53q24 -35 24 -76q0 -43 -24 -76q36 -36 53 -52l-26 -26l-53 53q-37 -24 -76 -24q-40 0 -74 24l-53 -53zM79 310q0 -40 26 -65 q25 -25 64 -25q37 0 65 24.5t28 65.5q0 37 -27.5 64t-65.5 27q-37 0 -63.5 -27.5t-26.5 -63.5z" />
<glyph unicode="&#xa5;" horiz-adv-x="543" d="M-34 -178l35 35q6 -16 9.5 -24.5t16.5 -19.5t30 -11q80 0 173 172h-148l11 25h150q7 13 21 43h-155l12 25h155q2 5 6.5 14.5t8 17.5t6.5 16l68 162q-114 -160 -210 -160q-26 0 -39.5 15.5t-13.5 39.5q0 46 35 126l46 108q4 10 14 33t15 35t11.5 28.5t9 28t2.5 20.5 q0 16 -17 16q-64 0 -187 -144l-10 48q62 55 118.5 86t90.5 31q23 0 37 -13.5t14 -34.5q0 -48 -37 -134l-47 -108q-43 -103 -43 -142q0 -13 14 -13q8 0 21.5 4.5t40 22.5t55 47.5t68.5 86.5t80 132l68 159h60l-204 -480q-9 -23 -21 -48h71l-11 -25h-71q-1 -2 -20 -43h74 l-11 -25h-76q-105 -191 -246 -191q-53 0 -80 39z" />
<glyph unicode="&#xa6;" d="M103 -160v321h39v-321h-39zM103 380v320h39v-320h-39z" />
<glyph unicode="&#xa7;" d="M-36 43l41 34q43 -80 92 -80q38 0 63.5 23.5t25.5 68.5q0 26 -21 59.5t-46 61t-46 66.5t-21 75q0 50 30 84t74 46q-21 37 -21 70q0 65 42.5 98.5t98.5 33.5q78 0 128 -66l-41 -33q-43 80 -91 80q-38 0 -63.5 -24t-25.5 -69q0 -26 21 -59.5t45.5 -60.5t45.5 -66t21 -75 q0 -50 -29.5 -84t-73.5 -47q21 -39 21 -69q0 -65 -43 -98.5t-99 -33.5q-76 0 -128 65zM101 367q0 -25 15 -51.5t45 -64t41 -54.5q28 9 47 35t19 61q0 25 -15 52t-45 64.5t-41 54.5q-29 -9 -47.5 -35t-18.5 -62z" />
<glyph unicode="&#xa8;" horiz-adv-x="244" d="M59 458q0 16 10.5 26.5t24.5 10.5q15 0 25.5 -10.5t10.5 -26.5q0 -14 -10.5 -24.5t-25.5 -10.5q-14 0 -24.5 10.5t-10.5 24.5zM163 458q0 16 10.5 26.5t25.5 10.5q14 0 24.5 -10.5t10.5 -26.5q0 -14 -10.5 -24.5t-24.5 -10.5q-15 0 -25.5 10.5t-10.5 24.5z" />
<glyph unicode="&#xa9;" horiz-adv-x="750" d="M44 276q0 151 113 261t260 110q121 0 201 -79.5t80 -198.5q0 -99 -54 -184.5t-140.5 -135t-181.5 -49.5q-121 0 -199.5 79t-78.5 197zM83 280q0 -106 66.5 -175.5t178.5 -69.5q127 0 229 101t102 227q0 108 -67.5 178.5t-180.5 70.5q-129 0 -228.5 -102t-99.5 -230z M175 222q0 63 27 126.5t67.5 108.5t88 73.5t88.5 28.5q44 0 70.5 -23t26.5 -60q0 -41 -33.5 -82.5t-76.5 -56.5l-8 14q35 18 54 52t19 76q0 28 -13 45.5t-34 17.5q-50 0 -100.5 -52.5t-82 -126.5t-31.5 -139q0 -47 17 -72.5t49 -25.5q56 0 104 43l10 -13q-56 -54 -124 -54 q-46 0 -82 28t-36 92z" />
<glyph unicode="&#xaa;" horiz-adv-x="250" d="M-5 292l12 24h203l-12 -24h-203zM16 396q0 54 68 123.5t143 75.5v-10q-60 -16 -106.5 -75t-46.5 -97q0 -12 6 -12q16 0 118 125q34 42 46.5 54.5t26.5 12.5q15 0 15 -12q0 -5 -5 -18q-1 -3 -16 -36t-29 -65.5t-18 -39.5q-3 -6 -3 -11q0 -7 7 -7q6 0 19 15l66 74l13 -12 l-79 -89q-30 -34 -59 -34q-26 0 -26 21q0 12 16 46q34 71 34 75q0 3 -3 3t-7 -4q-56 -76 -90 -107q-36 -34 -61 -34q-11 0 -20 8.5t-9 29.5z" />
<glyph unicode="&#xab;" horiz-adv-x="320" d="M-5 181l163 111l-22 -50l-91 -61l38 -61l-22 -50zM95 181l163 111l-22 -50l-91 -61l38 -61l-22 -50z" />
<glyph unicode="&#xac;" d="M20 306l15 37h296l-56 -137h-41l40 100h-254z" />
<glyph unicode="&#xad;" d="M27 201l19 57h247l-19 -57h-247z" />
<glyph unicode="&#xae;" horiz-adv-x="500" d="M54 402q0 100 74.5 172.5t171.5 72.5q81 0 134.5 -53t53.5 -132q0 -99 -76 -171.5t-173 -72.5q-81 0 -133 52.5t-52 131.5zM88 404q0 -67 42 -110.5t113 -43.5q81 0 145.5 64t64.5 144q0 68 -42.5 113t-113.5 45q-82 0 -145.5 -65t-63.5 -147zM141 306l67 188 q15 44 43 65.5t62 21.5q26 0 45.5 -14t19.5 -39q0 -38 -22 -59t-65 -37q-16 -5 -16 -16q0 -12 55 -110l-38 -13q-34 67 -55 118q-2 6 -2 10q0 6 4.5 9t21 8.5t29.5 11.5q49 25 49 76q0 38 -29 38q-12 0 -20.5 -3.5t-21 -20t-22.5 -46.5l-67 -188h-38z" />
<glyph unicode="&#xaf;" horiz-adv-x="244" d="M59 445l9 32h176l-12 -32h-173z" />
<glyph unicode="&#xb0;" horiz-adv-x="173" d="M98 515q0 30 25 55t57 25q23 0 36.5 -14t13.5 -35q0 -30 -25 -55t-57 -25q-24 0 -37 14t-13 35zM132 506q0 -25 19 -25t32 25t13 48q0 25 -19 25q-15 0 -30 -23.5t-15 -49.5z" />
<glyph unicode="&#xb1;" d="M-65 42l15 38h305l-15 -38h-305zM3 267l16 37h128l55 134h41l-55 -134h136l-15 -37h-136l-54 -135h-41l54 135h-129z" />
<glyph unicode="&#xb2;" horiz-adv-x="298" d="M-37 213q39 29 94.5 64.5t90.5 58.5t69.5 51.5t51.5 59t17 64.5q0 29 -15 46.5t-44 17.5q-54 0 -87 -35t-33 -80q0 -22 12 -40l-47 -25q-6 18 -6 35q0 64 52 114.5t124 50.5q47 0 72 -24.5t25 -61.5q0 -36 -16.5 -66.5t-49.5 -56.5t-66 -45.5t-82 -47.5t-81 -50 q15 7 32 7q12 0 40.5 -2t44.5 -2q33 0 60 25l16 -9l-52 -60q-17 2 -48 7t-57 7.5t-51 2.5q-33 0 -56 -17z" />
<glyph unicode="&#xb3;" horiz-adv-x="289" d="M-54 179q57 5 112.5 26t98.5 63t43 93q0 70 -56 70q-18 0 -37 -7l-5 16q20 8 32 9q37 9 67.5 33.5t30.5 59.5q0 37 -36 37q-27 0 -49 -20.5t-34 -51.5l-30 37q59 51 121 51q33 0 58 -15t25 -40q0 -32 -32 -55.5t-77 -34.5q37 -6 59 -30t22 -56q0 -47 -34 -85.5 t-86.5 -61.5t-100.5 -36.5t-90 -17.5z" />
<glyph unicode="&#xb4;" horiz-adv-x="244" d="M85 412l71 95h71l-118 -95h-24z" />
<glyph unicode="&#xb5;" horiz-adv-x="332" d="M-146 -141q19 44 84.5 199.5t116.5 274.5h57l-95 -226q-12 -27 -12 -40q0 -22 19 -22q41 0 72.5 49.5t111.5 238.5h57q-67 -163 -107 -250q-5 -15 -5 -18q0 -9 10 -9q16 0 61 55l12 -9q-54 -66 -74.5 -84t-40.5 -18q-39 0 -17 67q-45 -67 -87 -67q-40 0 -35 46h-3 q-10 -25 -29.5 -85.5t-27.5 -79.5z" />
<glyph unicode="&#xb6;" horiz-adv-x="456" d="M59 427q0 62 66.5 119.5t174 94t224.5 41.5l-285 -682h-33l279 664q-32 -4 -49 -7l-275 -657h-33l142 339q-24 -6 -63 -6q-65 0 -106.5 23.5t-41.5 70.5zM125 429q0 -36 30.5 -54.5t76.5 -18.5q27 0 47 4l121 289q-111 -29 -193 -91t-82 -129z" />
<glyph unicode="&#xb7;" horiz-adv-x="131" d="M-5 271q0 14 10.5 24.5t24.5 10.5q15 0 25.5 -10.5t10.5 -24.5q0 -15 -10.5 -25.5t-25.5 -10.5q-14 0 -24.5 10.5t-10.5 25.5z" />
<glyph unicode="&#xb8;" horiz-adv-x="244" d="M-39 -129l8 11q17 -11 43 -11t44 14.5t18 36.5q0 13 -7.5 20t-17.5 7q-19 0 -36 -16h-13l51 72h13l-34 -49q15 8 43 8q19 0 31.5 -10.5t12.5 -25.5q0 -29 -30.5 -50.5t-71.5 -21.5q-31 0 -54 15z" />
<glyph unicode="&#xb9;" horiz-adv-x="214" d="M18 413l172 175h53l-162 -382h-51l144 337l-142 -144z" />
<glyph unicode="&#xba;" horiz-adv-x="238" d="M0 292l12 24h183l-11 -24h-184zM35 425q0 53 39 100t102 70l7 -8q-51 -41 -77.5 -91.5t-26.5 -92.5q0 -28 19 -28q29 0 74 59q-29 17 -29 58q0 34 23.5 62.5t48.5 28.5q16 0 29.5 -13t13.5 -41q0 -40 -28 -85q24 6 56 44l11 -10q-38 -47 -79 -52q-52 -68 -114 -68 q-28 0 -48.5 17.5t-20.5 49.5zM161 493q0 -33 21 -45q40 57 40 100q0 17 -13 17q-16 0 -32 -22t-16 -50z" />
<glyph unicode="&#xbb;" horiz-adv-x="320" d="M-29 70l22 50l90 61l-37 61l22 50l66 -111zM71 70l22 50l91 61l-38 61l21 50l67 -111z" />
<glyph unicode="&#xbc;" horiz-adv-x="555" d="M0 0l417 595h41l-417 -595h-41zM47 448l138 140h48l-130 -306h-46l111 261l-107 -108zM169 72q112 84 224 246l41 -21q-26 -39 -97 -108.5t-130 -105.5q18 7 42 7q16 0 46 -5t38 -6l61 145h45l-61 -145q26 2 39 6l-4 -17q-23 -9 -44 -12l-24 -56h-46l22 53q-17 0 -50 5.5 t-48 5.5q-36 0 -47 -5z" />
<glyph unicode="&#xbd;" horiz-adv-x="599" d="M0 0l417 595h41l-417 -595h-41zM47 448l138 140h48l-130 -306h-46l111 261l-107 -108zM193 5q35 26 92.5 62.5t87.5 57t54.5 52t24.5 65.5q0 48 -45 48q-40 0 -66 -26.5t-26 -61.5q0 -17 9 -32l-43 -21q-4 13 -4 28q0 51 42 92t99 41q38 0 60.5 -20t22.5 -50 q0 -29 -13 -52.5t-38 -43.5t-50.5 -35t-64 -37t-64.5 -40q12 6 27 6q9 0 26 -1.5t30 -1.5q36 0 58 19l12 -7l-47 -52q-109 13 -129 13q-28 0 -45 -14z" />
<glyph unicode="&#xbe;" horiz-adv-x="595" d="M20 273q63 17 106 53t43 82q0 21 -10 37t-34 16q-7 0 -30 -5l-4 15q14 6 22 7h1h1l1 1q30 6 54.5 26t24.5 48q0 27 -28 27q-42 0 -66 -58l-25 32q48 41 96 41q33 0 52.5 -11.5t19.5 -32.5q0 -27 -26 -45t-64 -27q32 -5 50 -24t18 -45q0 -30 -18.5 -56t-49 -44 t-62.5 -30.5t-67 -20.5zM40 0l416 595h41l-416 -595h-41zM209 72q112 84 224 246l40 -21q-26 -39 -97 -108.5t-130 -105.5q19 7 42 7q17 0 47.5 -5t36.5 -6l62 145h45l-62 -145q27 2 40 6l-5 -17q-24 -9 -44 -12l-23 -56h-46l22 53q-18 0 -51 5.5t-48 5.5q-35 0 -46 -5z" />
<glyph unicode="&#xbf;" horiz-adv-x="410" d="M-49 -138q0 54 27.5 105.5t70 94t86.5 82.5t84.5 89t56.5 97h20q-21 -55 -59 -108t-74.5 -92t-71 -80t-56 -89.5t-21.5 -102.5q0 -39 19.5 -66.5t53.5 -27.5q56 0 101 46.5t45 103.5q0 30 -17 47.5t-47 17.5q-9 0 -17.5 -2t-15 -6t-10.5 -6.5t-8 -6.5l-5 -5l-6 12 q38 42 91 42q36 0 62 -21.5t26 -59.5q0 -72 -68.5 -126.5t-145.5 -54.5q-53 0 -87 33t-34 84zM265 396q0 15 10.5 25.5t25.5 10.5q14 0 24.5 -10.5t10.5 -25.5q0 -14 -10.5 -24.5t-24.5 -10.5q-15 0 -25.5 10.5t-10.5 24.5z" />
<glyph unicode="&#xc0;" horiz-adv-x="718" d="M-68 85q0 82 80.5 129t210.5 47h31q103 176 177 273.5t123.5 131.5t99.5 34q67 0 67 -76q0 -57 -41 -157l-87 -206h49l-21 -45h-47l-91 -216h-65l91 216h-213q-3 -7 -7 -14q-118 -211 -259 -211q-43 0 -70.5 25.5t-27.5 68.5zM-44 87q0 -30 19 -50.5t59 -20.5 q29 0 53.5 13t47.5 40.5t37.5 50.5t37.5 63q5 10 8 15l11 18h-29q-129 0 -186.5 -37t-57.5 -92zM322 261h205l87 206q62 151 62 184q0 31 -28 31q-36 0 -65.5 -23t-91.5 -115t-169 -283zM635 845h61l-1 -95h-16z" />
<glyph unicode="&#xc1;" horiz-adv-x="718" d="M-68 85q0 82 80.5 129t210.5 47h31q103 176 177 273.5t123.5 131.5t99.5 34q67 0 67 -76q0 -57 -41 -157l-87 -206h49l-21 -45h-47l-91 -216h-65l91 216h-213q-3 -7 -7 -14q-118 -211 -259 -211q-43 0 -70.5 25.5t-27.5 68.5zM-44 87q0 -30 19 -50.5t59 -20.5 q29 0 53.5 13t47.5 40.5t37.5 50.5t37.5 63q5 10 8 15l11 18h-29q-129 0 -186.5 -37t-57.5 -92zM322 261h205l87 206q62 151 62 184q0 31 -28 31q-36 0 -65.5 -23t-91.5 -115t-169 -283zM614 750l71 95h71l-118 -95h-24z" />
<glyph unicode="&#xc2;" horiz-adv-x="718" d="M-68 85q0 82 80.5 129t210.5 47h31q103 176 177 273.5t123.5 131.5t99.5 34q67 0 67 -76q0 -57 -41 -157l-87 -206h49l-21 -45h-47l-91 -216h-65l91 216h-213q-3 -7 -7 -14q-118 -211 -259 -211q-43 0 -70.5 25.5t-27.5 68.5zM-44 87q0 -30 19 -50.5t59 -20.5 q29 0 53.5 13t47.5 40.5t37.5 50.5t37.5 63q5 10 8 15l11 18h-29q-129 0 -186.5 -37t-57.5 -92zM322 261h205l87 206q62 151 62 184q0 31 -28 31q-36 0 -65.5 -23t-91.5 -115t-169 -283zM579 750l100 94h44l29 -94h-49l-17 65l-71 -65h-36z" />
<glyph unicode="&#xc3;" horiz-adv-x="718" d="M-68 85q0 82 80.5 129t210.5 47h31q103 176 177 273.5t123.5 131.5t99.5 34q67 0 67 -76q0 -57 -41 -157l-87 -206h49l-21 -45h-47l-91 -216h-65l91 216h-213q-3 -7 -7 -14q-118 -211 -259 -211q-43 0 -70.5 25.5t-27.5 68.5zM-44 87q0 -30 19 -50.5t59 -20.5 q29 0 53.5 13t47.5 40.5t37.5 50.5t37.5 63q5 10 8 15l11 18h-29q-129 0 -186.5 -37t-57.5 -92zM322 261h205l87 206q62 151 62 184q0 31 -28 31q-36 0 -65.5 -23t-91.5 -115t-169 -283zM574 758q19 43 36 62t37 19q15 0 35.5 -20t33.5 -20q23 0 44 40h26q-19 -43 -37 -62 t-40 -19q-17 0 -37.5 20t-30.5 20q-22 0 -41 -40h-26z" />
<glyph unicode="&#xc4;" horiz-adv-x="718" d="M-68 85q0 82 80.5 129t210.5 47h31q103 176 177 273.5t123.5 131.5t99.5 34q67 0 67 -76q0 -57 -41 -157l-87 -206h49l-21 -45h-47l-91 -216h-65l91 216h-213q-3 -7 -7 -14q-118 -211 -259 -211q-43 0 -70.5 25.5t-27.5 68.5zM-44 87q0 -30 19 -50.5t59 -20.5 q29 0 53.5 13t47.5 40.5t37.5 50.5t37.5 63q5 10 8 15l11 18h-29q-129 0 -186.5 -37t-57.5 -92zM322 261h205l87 206q62 151 62 184q0 31 -28 31q-36 0 -65.5 -23t-91.5 -115t-169 -283zM588 796q0 16 10.5 26.5t24.5 10.5q15 0 25.5 -10.5t10.5 -26.5q0 -14 -10.5 -24.5 t-25.5 -10.5q-14 0 -24.5 10.5t-10.5 24.5zM692 796q0 16 10.5 26.5t25.5 10.5q14 0 24.5 -10.5t10.5 -26.5q0 -14 -10.5 -24.5t-24.5 -10.5q-15 0 -25.5 10.5t-10.5 24.5z" />
<glyph unicode="&#xc5;" horiz-adv-x="718" d="M-68 85q0 82 80.5 129t210.5 47h31q103 176 177 273.5t123.5 131.5t99.5 34q67 0 67 -76q0 -57 -41 -157l-87 -206h49l-21 -45h-47l-91 -216h-65l91 216h-213q-3 -7 -7 -14q-118 -211 -259 -211q-43 0 -70.5 25.5t-27.5 68.5zM-44 87q0 -30 19 -50.5t59 -20.5 q29 0 53.5 13t47.5 40.5t37.5 50.5t37.5 63q5 10 8 15l11 18h-29q-129 0 -186.5 -37t-57.5 -92zM322 261h205l87 206q62 151 62 184q0 31 -28 31q-36 0 -65.5 -23t-91.5 -115t-169 -283zM601 794q0 41 33 73t72 32q26 0 43 -15.5t17 -39.5q0 -43 -35 -73.5t-72 -30.5 q-26 0 -42 15t-16 39zM636 790q0 -33 25 -33q28 0 48.5 30.5t20.5 60.5q0 34 -26 34q-29 0 -48.5 -31t-19.5 -61z" />
<glyph unicode="&#xc6;" horiz-adv-x="928" d="M-68 85q0 82 80.5 129t210.5 47h31q103 176 177 273.5t123.5 131.5t99.5 34q67 0 67 -76q0 -14 -3 -29q28 47 69.5 76.5t87.5 29.5q25 0 41.5 -17t16.5 -43q0 -43 -52.5 -80.5t-144.5 -60.5q2 -13 12 -39.5t10 -42.5q0 -33 -20.5 -58.5t-49 -43t-57.5 -37t-49.5 -53 t-20.5 -78.5q0 -60 40 -94t90 -34q87 0 175 76l12 -16q-62 -52 -110.5 -70.5t-103.5 -18.5q-110 0 -153 75l-28 -66h-65l91 216h-213q-3 -7 -7 -14q-118 -211 -259 -211q-43 0 -70.5 25.5t-27.5 68.5zM-44 87q0 -30 19 -50.5t59 -20.5q29 0 53.5 13t47.5 40.5t37.5 50.5 t37.5 63q5 10 8 15l11 18h-29q-129 0 -186.5 -37t-57.5 -92zM322 261h205l87 206q62 151 62 184q0 31 -28 31q-36 0 -65.5 -23t-91.5 -115t-169 -283zM610 302q6 4 19.5 12t19.5 12t16 11.5t15 12t10.5 11.5t8 13.5t2.5 13.5q0 5 -8.5 33t-9.5 54q-2 -6 -3 -8zM734 521 q151 39 151 122q0 36 -33 36q-35 0 -76.5 -45.5t-41.5 -110.5v-2z" />
<glyph unicode="&#xc7;" horiz-adv-x="515" d="M8 177q0 98 41.5 197t104 168.5t134 113.5t129.5 44q63 0 102.5 -36t39.5 -93q0 -64 -49 -126t-114 -85l-10 13q55 26 86.5 79.5t31.5 123.5q0 47 -21 76.5t-60 29.5q-79 0 -161.5 -83t-133.5 -200.5t-51 -217.5q0 -81 32 -120t86 -39q86 0 163 71l13 -18 q-87 -84 -192 -84q-3 0 -9 0.5t-9 0.5l-25 -36q13 8 43 8q19 0 31.5 -10.5t12.5 -25.5q0 -29 -30.5 -50.5t-71.5 -21.5q-31 0 -54 15l8 11q17 -11 43 -11t44 14.5t18 36.5q0 13 -7.5 20t-17.5 7q-19 0 -36 -16h-13l42 61q-58 9 -99 53t-41 130z" />
<glyph unicode="&#xc8;" horiz-adv-x="409" d="M-25 135q0 54 32.5 96t71 63t71 45.5t32.5 48.5q0 5 -9 33.5t-9 56.5q0 6 1 10q-44 -8 -72 -11l-12 21q46 5 86 12q13 72 67 131.5t121 59.5q26 0 42.5 -17t16.5 -43q0 -43 -52.5 -80t-144.5 -61q2 -13 12 -39.5t10 -42.5q0 -33 -20.5 -58.5t-49.5 -43t-57.5 -37t-49 -53 t-20.5 -78.5q0 -60 40 -94t90 -34q87 0 175 76l12 -16q-62 -52 -110.5 -70.5t-103.5 -18.5q-74 0 -122 38t-48 106zM215 521q151 39 151 122q0 36 -33 36q-35 0 -76.5 -45.5t-41.5 -110.5v-2zM311 844h61l-1 -95h-16z" />
<glyph unicode="&#xc9;" horiz-adv-x="409" d="M-25 135q0 54 32.5 96t71 63t71 45.5t32.5 48.5q0 5 -9 33.5t-9 56.5q0 6 1 10q-44 -8 -72 -11l-12 21q46 5 86 12q13 72 67 131.5t121 59.5q26 0 42.5 -17t16.5 -43q0 -43 -52.5 -80t-144.5 -61q2 -13 12 -39.5t10 -42.5q0 -33 -20.5 -58.5t-49.5 -43t-57.5 -37t-49 -53 t-20.5 -78.5q0 -60 40 -94t90 -34q87 0 175 76l12 -16q-62 -52 -110.5 -70.5t-103.5 -18.5q-74 0 -122 38t-48 106zM215 521q151 39 151 122q0 36 -33 36q-35 0 -76.5 -45.5t-41.5 -110.5v-2zM290 749l71 95h71l-118 -95h-24z" />
<glyph unicode="&#xca;" horiz-adv-x="409" d="M-25 135q0 54 32.5 96t71 63t71 45.5t32.5 48.5q0 5 -9 33.5t-9 56.5q0 6 1 10q-44 -8 -72 -11l-12 21q46 5 86 12q13 72 67 131.5t121 59.5q26 0 42.5 -17t16.5 -43q0 -43 -52.5 -80t-144.5 -61q2 -13 12 -39.5t10 -42.5q0 -33 -20.5 -58.5t-49.5 -43t-57.5 -37t-49 -53 t-20.5 -78.5q0 -60 40 -94t90 -34q87 0 175 76l12 -16q-62 -52 -110.5 -70.5t-103.5 -18.5q-74 0 -122 38t-48 106zM215 521q151 39 151 122q0 36 -33 36q-35 0 -76.5 -45.5t-41.5 -110.5v-2zM255 749l100 94h44l29 -94h-49l-17 65l-71 -65h-36z" />
<glyph unicode="&#xcb;" horiz-adv-x="409" d="M-25 135q0 54 32.5 96t71 63t71 45.5t32.5 48.5q0 5 -9 33.5t-9 56.5q0 6 1 10q-44 -8 -72 -11l-12 21q46 5 86 12q13 72 67 131.5t121 59.5q26 0 42.5 -17t16.5 -43q0 -43 -52.5 -80t-144.5 -61q2 -13 12 -39.5t10 -42.5q0 -33 -20.5 -58.5t-49.5 -43t-57.5 -37t-49 -53 t-20.5 -78.5q0 -60 40 -94t90 -34q87 0 175 76l12 -16q-62 -52 -110.5 -70.5t-103.5 -18.5q-74 0 -122 38t-48 106zM215 521q151 39 151 122q0 36 -33 36q-35 0 -76.5 -45.5t-41.5 -110.5v-2zM264 795q0 16 10.5 26.5t24.5 10.5q15 0 25.5 -10.5t10.5 -26.5 q0 -14 -10.5 -24.5t-25.5 -10.5q-14 0 -24.5 10.5t-10.5 24.5zM368 795q0 16 10.5 26.5t25.5 10.5q14 0 24.5 -10.5t10.5 -26.5q0 -14 -10.5 -24.5t-24.5 -10.5q-15 0 -25.5 10.5t-10.5 24.5z" />
<glyph unicode="&#xcc;" horiz-adv-x="446" d="M-20 65l48 30q-6 -24 -6 -40q0 -43 35 -43q79 0 169 156q-25 -5 -46 -5q-55 0 -98 36t-43 102q0 70 39.5 145.5t95 129.5t113 89t93.5 35q25 0 41 -26t16 -76q0 -116 -96 -326q-1 -3 -3 -7t-3 -7q26 26 63 68l16 -16q-72 -78 -103 -101q-114 -218 -246 -218 q-39 0 -61.5 20.5t-23.5 53.5zM102 304q0 -54 29.5 -84.5t72.5 -30.5q19 0 37 6q28 54 50 106q104 251 104 340q0 41 -24 41q-22 0 -66 -35.5t-89.5 -88t-79.5 -123.5t-34 -131zM335 844h61l-1 -95h-16z" />
<glyph unicode="&#xcd;" horiz-adv-x="446" d="M-20 65l48 30q-6 -24 -6 -40q0 -43 35 -43q79 0 169 156q-25 -5 -46 -5q-55 0 -98 36t-43 102q0 70 39.5 145.5t95 129.5t113 89t93.5 35q25 0 41 -26t16 -76q0 -116 -96 -326q-1 -3 -3 -7t-3 -7q26 26 63 68l16 -16q-72 -78 -103 -101q-114 -218 -246 -218 q-39 0 -61.5 20.5t-23.5 53.5zM102 304q0 -54 29.5 -84.5t72.5 -30.5q19 0 37 6q28 54 50 106q104 251 104 340q0 41 -24 41q-22 0 -66 -35.5t-89.5 -88t-79.5 -123.5t-34 -131zM314 749l71 95h71l-118 -95h-24z" />
<glyph unicode="&#xce;" horiz-adv-x="446" d="M-20 65l48 30q-6 -24 -6 -40q0 -43 35 -43q79 0 169 156q-25 -5 -46 -5q-55 0 -98 36t-43 102q0 70 39.5 145.5t95 129.5t113 89t93.5 35q25 0 41 -26t16 -76q0 -116 -96 -326q-1 -3 -3 -7t-3 -7q26 26 63 68l16 -16q-72 -78 -103 -101q-114 -218 -246 -218 q-39 0 -61.5 20.5t-23.5 53.5zM102 304q0 -54 29.5 -84.5t72.5 -30.5q19 0 37 6q28 54 50 106q104 251 104 340q0 41 -24 41q-22 0 -66 -35.5t-89.5 -88t-79.5 -123.5t-34 -131zM279 749l100 94h44l29 -94h-49l-17 65l-71 -65h-36z" />
<glyph unicode="&#xcf;" horiz-adv-x="446" d="M-20 65l48 30q-6 -24 -6 -40q0 -43 35 -43q79 0 169 156q-25 -5 -46 -5q-55 0 -98 36t-43 102q0 70 39.5 145.5t95 129.5t113 89t93.5 35q25 0 41 -26t16 -76q0 -116 -96 -326q-1 -3 -3 -7t-3 -7q26 26 63 68l16 -16q-72 -78 -103 -101q-114 -218 -246 -218 q-39 0 -61.5 20.5t-23.5 53.5zM102 304q0 -54 29.5 -84.5t72.5 -30.5q19 0 37 6q28 54 50 106q104 251 104 340q0 41 -24 41q-22 0 -66 -35.5t-89.5 -88t-79.5 -123.5t-34 -131zM288 795q0 16 10.5 26.5t24.5 10.5q15 0 25.5 -10.5t10.5 -26.5q0 -14 -10.5 -24.5 t-25.5 -10.5q-14 0 -24.5 10.5t-10.5 24.5zM392 795q0 16 10.5 26.5t25.5 10.5q14 0 24.5 -10.5t10.5 -26.5q0 -14 -10.5 -24.5t-24.5 -10.5q-15 0 -25.5 10.5t-10.5 24.5z" />
<glyph unicode="&#xd0;" horiz-adv-x="688" d="M-74 63q0 40 31 68.5t77 28.5q35 0 75 -35q13 26 61 138h-95l13 30h94l58 138h-58q-54 0 -93 23t-39 66q0 70 87 125t223 55q113 0 196.5 -77.5t83.5 -207.5q0 -95 -47 -192.5t-131.5 -164.5t-180.5 -67q-75 0 -152 71q-56 -69 -127 -69q-30 0 -53 18t-23 52zM-50 65 q0 -22 13 -35t35 -13q28 0 50 18.5t46 60.5q-41 37 -68 37q-34 0 -55 -21.5t-21 -46.5zM104 537q0 -62 95 -62h59l72 171h63l-72 -171h157l-18 -44h-157l-58 -138h110l-14 -30h-109l-24 -58q-31 -72 -59 -115q25 -22 40 -34t40.5 -23.5t49.5 -11.5q80 0 149 65.5t106 160 t37 186.5q0 111 -55 180t-164 69q-108 0 -178 -44.5t-70 -100.5z" />
<glyph unicode="&#xd1;" horiz-adv-x="640" d="M24 552q91 94 175.5 147.5t133.5 53.5q52 0 52 -62q0 -58 -42 -155l-38 -90q162 236 281 236q53 0 53 -61q0 -55 -41 -155l-138 -324q-68 -160 -68 -195q0 -22 17 -22q26 0 73 55l16 -13q-56 -64 -101 -64q-57 0 -57 61q0 9 1.5 20t3 20t6 23t7.5 22t9.5 24t9 22.5t10 24 t9.5 22.5l137 324q5 11 17.5 40.5t18 43.5t13.5 35t11.5 35.5t3.5 24.5q0 20 -14 20q-6 0 -16.5 -2t-44 -19.5t-69 -47.5t-88.5 -96t-104 -156l-146 -344h-61l227 536q58 136 58 177q0 23 -15 23q-4 0 -12.5 -1.5t-37.5 -14.5t-60.5 -36t-80.5 -73.5t-99 -118.5zM422 759 q19 43 36 62t37 19q15 0 35.5 -20t33.5 -20q23 0 44 40h26q-19 -43 -37 -62t-40 -19q-17 0 -37.5 20t-30.5 20q-22 0 -41 -40h-26z" />
<glyph unicode="&#xd2;" horiz-adv-x="567" d="M7 175q0 84 31 173q22 64 55 120t64 89.5t59 58t45 34.5l17 10l9 -11q-4 -3 -11.5 -9.5t-29 -32.5t-42 -57t-47 -84.5t-47.5 -115.5q-37 -105 -37 -190q0 -65 24 -104.5t66 -39.5q63 0 144 84t140.5 212.5t59.5 239.5q0 132 -70 132q-64 0 -122 -102.5t-58 -209.5 q0 -53 15 -78.5t50 -25.5q22 0 35.5 8.5t17.5 15.5l5 -13q-29 -44 -81 -44q-43 0 -67 35t-24 99q0 68 37 146.5t93 132t106 53.5q44 0 80 -44t36 -141q0 -98 -40 -197t-100.5 -170.5t-132 -116.5t-133.5 -45q-67 0 -107 52t-40 136zM394 845h61l-1 -95h-16z" />
<glyph unicode="&#xd3;" horiz-adv-x="567" d="M7 175q0 84 31 173q22 64 55 120t64 89.5t59 58t45 34.5l17 10l9 -11q-4 -3 -11.5 -9.5t-29 -32.5t-42 -57t-47 -84.5t-47.5 -115.5q-37 -105 -37 -190q0 -65 24 -104.5t66 -39.5q63 0 144 84t140.5 212.5t59.5 239.5q0 132 -70 132q-64 0 -122 -102.5t-58 -209.5 q0 -53 15 -78.5t50 -25.5q22 0 35.5 8.5t17.5 15.5l5 -13q-29 -44 -81 -44q-43 0 -67 35t-24 99q0 68 37 146.5t93 132t106 53.5q44 0 80 -44t36 -141q0 -98 -40 -197t-100.5 -170.5t-132 -116.5t-133.5 -45q-67 0 -107 52t-40 136zM373 750l71 95h71l-118 -95h-24z" />
<glyph unicode="&#xd4;" horiz-adv-x="567" d="M7 175q0 84 31 173q22 64 55 120t64 89.5t59 58t45 34.5l17 10l9 -11q-4 -3 -11.5 -9.5t-29 -32.5t-42 -57t-47 -84.5t-47.5 -115.5q-37 -105 -37 -190q0 -65 24 -104.5t66 -39.5q63 0 144 84t140.5 212.5t59.5 239.5q0 132 -70 132q-64 0 -122 -102.5t-58 -209.5 q0 -53 15 -78.5t50 -25.5q22 0 35.5 8.5t17.5 15.5l5 -13q-29 -44 -81 -44q-43 0 -67 35t-24 99q0 68 37 146.5t93 132t106 53.5q44 0 80 -44t36 -141q0 -98 -40 -197t-100.5 -170.5t-132 -116.5t-133.5 -45q-67 0 -107 52t-40 136zM338 750l100 94h44l29 -94h-49l-17 65 l-71 -65h-36z" />
<glyph unicode="&#xd5;" horiz-adv-x="567" d="M7 175q0 84 31 173q22 64 55 120t64 89.5t59 58t45 34.5l17 10l9 -11q-4 -3 -11.5 -9.5t-29 -32.5t-42 -57t-47 -84.5t-47.5 -115.5q-37 -105 -37 -190q0 -65 24 -104.5t66 -39.5q63 0 144 84t140.5 212.5t59.5 239.5q0 132 -70 132q-64 0 -122 -102.5t-58 -209.5 q0 -53 15 -78.5t50 -25.5q22 0 35.5 8.5t17.5 15.5l5 -13q-29 -44 -81 -44q-43 0 -67 35t-24 99q0 68 37 146.5t93 132t106 53.5q44 0 80 -44t36 -141q0 -98 -40 -197t-100.5 -170.5t-132 -116.5t-133.5 -45q-67 0 -107 52t-40 136zM333 758q19 43 36 62t37 19 q15 0 35.5 -20t33.5 -20q23 0 44 40h26q-19 -43 -37 -62t-40 -19q-17 0 -37.5 20t-30.5 20q-22 0 -41 -40h-26z" />
<glyph unicode="&#xd6;" horiz-adv-x="567" d="M7 175q0 84 31 173q22 64 55 120t64 89.5t59 58t45 34.5l17 10l9 -11q-4 -3 -11.5 -9.5t-29 -32.5t-42 -57t-47 -84.5t-47.5 -115.5q-37 -105 -37 -190q0 -65 24 -104.5t66 -39.5q63 0 144 84t140.5 212.5t59.5 239.5q0 132 -70 132q-64 0 -122 -102.5t-58 -209.5 q0 -53 15 -78.5t50 -25.5q22 0 35.5 8.5t17.5 15.5l5 -13q-29 -44 -81 -44q-43 0 -67 35t-24 99q0 68 37 146.5t93 132t106 53.5q44 0 80 -44t36 -141q0 -98 -40 -197t-100.5 -170.5t-132 -116.5t-133.5 -45q-67 0 -107 52t-40 136zM347 796q0 16 10.5 26.5t24.5 10.5 q15 0 25.5 -10.5t10.5 -26.5q0 -14 -10.5 -24.5t-25.5 -10.5q-14 0 -24.5 10.5t-10.5 24.5zM451 796q0 16 10.5 26.5t25.5 10.5q14 0 24.5 -10.5t10.5 -26.5q0 -14 -10.5 -24.5t-24.5 -10.5q-15 0 -25.5 10.5t-10.5 24.5z" />
<glyph unicode="&#xd7;" d="M21 184l120 102l-83 102l31 26l83 -102l121 102l21 -26l-121 -102l84 -102l-31 -26l-83 101l-121 -101z" />
<glyph unicode="&#xd8;" horiz-adv-x="567" d="M-3 -56l58 85q-48 53 -48 146q0 84 31 173q22 64 55 120t64 89.5t59 58t45 34.5l17 10l9 -11q-4 -3 -11.5 -9.5t-29 -32.5t-42 -57t-47 -84.5t-47.5 -115.5q-37 -105 -37 -190q0 -47 13 -84l140 205q-18 33 -18 88q0 68 37 146.5t93 132t106 53.5q28 0 54 -18l45 67 l26 -17l-48 -72q39 -51 39 -145q0 -98 -40 -197t-100.5 -170.5t-132 -116.5t-133.5 -45q-42 0 -75 22l-56 -82zM104 45q23 -29 59 -29q63 0 144 84t140.5 212.5t59.5 239.5q0 43 -9 75l-226 -333q14 -26 50 -26q22 0 35.5 8.5t17.5 15.5l5 -13q-29 -44 -81 -44q-34 0 -54 19 zM257 372q0 -29 2 -40l223 328q-17 24 -45 24q-64 0 -122 -102.5t-58 -209.5z" />
<glyph unicode="&#xd9;" horiz-adv-x="683" d="M24 499q90 93 177 147t136 54q54 0 54 -58q0 -55 -45 -159l-118 -276q-51 -125 -51 -168q0 -22 21 -22q13 0 29.5 4.5t49 25t67 55t83 103.5t96.5 162l136 315h63l-247 -580q-17 -40 -17 -62q0 -23 17 -23q29 0 54.5 28t88.5 122q11 15 16 23l13 -8q-32 -50 -46 -71 t-36.5 -51t-36.5 -41t-32 -20t-38 -9q-7 0 -14.5 1.5t-18 6.5t-17.5 17.5t-7 31.5q0 35 24 90l31 73q-148 -219 -271 -219q-30 0 -46 18.5t-16 48.5q0 53 41 149l117 276q62 143 62 179q0 20 -14 20q-5 0 -13.5 -2t-38 -16t-61.5 -37.5t-81.5 -74.5t-99.5 -119zM494 837h61 l-1 -95h-16z" />
<glyph unicode="&#xda;" horiz-adv-x="683" d="M24 499q90 93 177 147t136 54q54 0 54 -58q0 -55 -45 -159l-118 -276q-51 -125 -51 -168q0 -22 21 -22q13 0 29.5 4.5t49 25t67 55t83 103.5t96.5 162l136 315h63l-247 -580q-17 -40 -17 -62q0 -23 17 -23q29 0 54.5 28t88.5 122q11 15 16 23l13 -8q-32 -50 -46 -71 t-36.5 -51t-36.5 -41t-32 -20t-38 -9q-7 0 -14.5 1.5t-18 6.5t-17.5 17.5t-7 31.5q0 35 24 90l31 73q-148 -219 -271 -219q-30 0 -46 18.5t-16 48.5q0 53 41 149l117 276q62 143 62 179q0 20 -14 20q-5 0 -13.5 -2t-38 -16t-61.5 -37.5t-81.5 -74.5t-99.5 -119zM473 742 l71 95h71l-118 -95h-24z" />
<glyph unicode="&#xdb;" horiz-adv-x="683" d="M24 499q90 93 177 147t136 54q54 0 54 -58q0 -55 -45 -159l-118 -276q-51 -125 -51 -168q0 -22 21 -22q13 0 29.5 4.5t49 25t67 55t83 103.5t96.5 162l136 315h63l-247 -580q-17 -40 -17 -62q0 -23 17 -23q29 0 54.5 28t88.5 122q11 15 16 23l13 -8q-32 -50 -46 -71 t-36.5 -51t-36.5 -41t-32 -20t-38 -9q-7 0 -14.5 1.5t-18 6.5t-17.5 17.5t-7 31.5q0 35 24 90l31 73q-148 -219 -271 -219q-30 0 -46 18.5t-16 48.5q0 53 41 149l117 276q62 143 62 179q0 20 -14 20q-5 0 -13.5 -2t-38 -16t-61.5 -37.5t-81.5 -74.5t-99.5 -119zM438 742 l100 94h44l29 -94h-49l-17 65l-71 -65h-36z" />
<glyph unicode="&#xdc;" horiz-adv-x="683" d="M24 499q90 93 177 147t136 54q54 0 54 -58q0 -55 -45 -159l-118 -276q-51 -125 -51 -168q0 -22 21 -22q13 0 29.5 4.5t49 25t67 55t83 103.5t96.5 162l136 315h63l-247 -580q-17 -40 -17 -62q0 -23 17 -23q29 0 54.5 28t88.5 122q11 15 16 23l13 -8q-32 -50 -46 -71 t-36.5 -51t-36.5 -41t-32 -20t-38 -9q-7 0 -14.5 1.5t-18 6.5t-17.5 17.5t-7 31.5q0 35 24 90l31 73q-148 -219 -271 -219q-30 0 -46 18.5t-16 48.5q0 53 41 149l117 276q62 143 62 179q0 20 -14 20q-5 0 -13.5 -2t-38 -16t-61.5 -37.5t-81.5 -74.5t-99.5 -119zM447 788 q0 16 10.5 26.5t24.5 10.5q15 0 25.5 -10.5t10.5 -26.5q0 -14 -10.5 -24.5t-25.5 -10.5q-14 0 -24.5 10.5t-10.5 24.5zM551 788q0 16 10.5 26.5t25.5 10.5q14 0 24.5 -10.5t10.5 -26.5q0 -14 -10.5 -24.5t-24.5 -10.5q-15 0 -25.5 10.5t-10.5 24.5z" />
<glyph unicode="&#xdd;" horiz-adv-x="656" d="M24 499q90 93 177 147t136 54q54 0 54 -58q0 -55 -45 -159l-118 -276q-51 -125 -51 -168q0 -22 21 -22q13 0 29 4.5t48.5 24.5t67 54.5t82.5 102.5t96 159l107 251h63l-202 -476q-64 -153 -112 -224h66l-20 -43h-76q-102 -129 -229 -129q-41 0 -60.5 18t-19.5 47 q0 12 6.5 27t23.5 34.5t58.5 32.5t99.5 13h87q53 84 112 224l31 72q-148 -218 -271 -218q-30 0 -46 18.5t-16 48.5q0 53 41 149l117 276q62 143 62 179q0 20 -14 20q-5 0 -13.5 -2t-38 -16t-61.5 -37.5t-81.5 -74.5t-99.5 -119zM59 -198q0 -41 59 -41q89 0 167 109h-79 q-147 0 -147 -68zM483 719l71 95h71l-118 -95h-24z" />
<glyph unicode="&#xde;" horiz-adv-x="535" d="M-58 140l28 47q21 -1 59 -1l65 153q0 2 2 6l142 337h61l-68 -163q67 47 142 47q57 0 102 -36t45 -101q0 -141 -221 -233q-107 -45 -226 -54l-59 -142h-63l58 139h-27q-8 0 -21.5 0.5t-18.5 0.5zM92 187q125 6 204 35q76 28 117.5 87t41.5 128q0 58 -26.5 84.5t-65.5 26.5 q-46 0 -103.5 -50t-103.5 -159q-4 -10 -64 -152z" />
<glyph unicode="&#xdf;" horiz-adv-x="367" d="M-169 -253l235 567q-44 -67 -114 -152l-12 10q57 70 95 125.5t50.5 78t34.5 66.5q31 76 71 119t80 43q27 0 41.5 -17.5t14.5 -44.5t-16.5 -58.5t-29.5 -47.5t-49 -57l-1 -4q0 -3 5 -24t10 -51.5t5 -55.5q0 -54 -26 -107t-67 -90q88 46 165 144l12 -10 q-60 -76 -128.5 -122t-128.5 -57q-14 -2 -22 -2q-28 0 -28 19q0 12 11 21.5t23 9.5q10 0 22 -6.5t25 -6.5q34 0 62 63.5t28 130.5q0 41 -8 70t-8 33q0 12 6.5 22.5t21 27t23.5 29.5q54 73 54 136q0 38 -21 38q-27 0 -71 -103l-296 -715z" />
<glyph unicode="&#xe0;" horiz-adv-x="342" d="M-100 55q0 50 41 117t110 120.5t137 60.5v-9q-81 -24 -147.5 -115t-66.5 -148q0 -21 10 -21q26 0 166 190q59 79 72 90q12 9 25 9q18 0 18 -18q0 -12 -6 -26q-4 -8 -44.5 -109t-46.5 -113q-5 -15 -5 -18q0 -9 10 -9q16 0 37 27l89 110l13 -10l-108 -133q-41 -50 -78 -50 q-15 0 -24.5 8.5t-9.5 21.5q0 20 22 69q56 127 56 138q0 5 -3 5q-5 0 -9 -7q-3 -3 -32 -44t-60.5 -83.5t-47.5 -58.5q-50 -50 -78 -50q-16 0 -28 12.5t-12 43.5zM206 507h61l-1 -95h-16z" />
<glyph unicode="&#xe1;" horiz-adv-x="342" d="M-100 55q0 50 41 117t110 120.5t137 60.5v-9q-81 -24 -147.5 -115t-66.5 -148q0 -21 10 -21q26 0 166 190q59 79 72 90q12 9 25 9q18 0 18 -18q0 -12 -6 -26q-4 -8 -44.5 -109t-46.5 -113q-5 -15 -5 -18q0 -9 10 -9q16 0 37 27l89 110l13 -10l-108 -133q-41 -50 -78 -50 q-15 0 -24.5 8.5t-9.5 21.5q0 20 22 69q56 127 56 138q0 5 -3 5q-5 0 -9 -7q-3 -3 -32 -44t-60.5 -83.5t-47.5 -58.5q-50 -50 -78 -50q-16 0 -28 12.5t-12 43.5zM185 412l71 95h71l-118 -95h-24z" />
<glyph unicode="&#xe2;" horiz-adv-x="342" d="M-100 55q0 50 41 117t110 120.5t137 60.5v-9q-81 -24 -147.5 -115t-66.5 -148q0 -21 10 -21q26 0 166 190q59 79 72 90q12 9 25 9q18 0 18 -18q0 -12 -6 -26q-4 -8 -44.5 -109t-46.5 -113q-5 -15 -5 -18q0 -9 10 -9q16 0 37 27l89 110l13 -10l-108 -133q-41 -50 -78 -50 q-15 0 -24.5 8.5t-9.5 21.5q0 20 22 69q56 127 56 138q0 5 -3 5q-5 0 -9 -7q-3 -3 -32 -44t-60.5 -83.5t-47.5 -58.5q-50 -50 -78 -50q-16 0 -28 12.5t-12 43.5zM150 412l100 94h44l29 -94h-49l-17 65l-71 -65h-36z" />
<glyph unicode="&#xe3;" horiz-adv-x="342" d="M-100 55q0 50 41 117t110 120.5t137 60.5v-9q-81 -24 -147.5 -115t-66.5 -148q0 -21 10 -21q26 0 166 190q59 79 72 90q12 9 25 9q18 0 18 -18q0 -12 -6 -26q-4 -8 -44.5 -109t-46.5 -113q-5 -15 -5 -18q0 -9 10 -9q16 0 37 27l89 110l13 -10l-108 -133q-41 -50 -78 -50 q-15 0 -24.5 8.5t-9.5 21.5q0 20 22 69q56 127 56 138q0 5 -3 5q-5 0 -9 -7q-3 -3 -32 -44t-60.5 -83.5t-47.5 -58.5q-50 -50 -78 -50q-16 0 -28 12.5t-12 43.5zM145 420q19 43 36 62t37 19q15 0 35.5 -20t33.5 -20q23 0 44 40h26q-19 -43 -37 -62t-40 -19q-17 0 -37.5 20 t-30.5 20q-22 0 -41 -40h-26z" />
<glyph unicode="&#xe4;" horiz-adv-x="342" d="M-100 55q0 50 41 117t110 120.5t137 60.5v-9q-81 -24 -147.5 -115t-66.5 -148q0 -21 10 -21q26 0 166 190q59 79 72 90q12 9 25 9q18 0 18 -18q0 -12 -6 -26q-4 -8 -44.5 -109t-46.5 -113q-5 -15 -5 -18q0 -9 10 -9q16 0 37 27l89 110l13 -10l-108 -133q-41 -50 -78 -50 q-15 0 -24.5 8.5t-9.5 21.5q0 20 22 69q56 127 56 138q0 5 -3 5q-5 0 -9 -7q-3 -3 -32 -44t-60.5 -83.5t-47.5 -58.5q-50 -50 -78 -50q-16 0 -28 12.5t-12 43.5zM159 458q0 16 10.5 26.5t24.5 10.5q15 0 25.5 -10.5t10.5 -26.5q0 -14 -10.5 -24.5t-25.5 -10.5 q-14 0 -24.5 10.5t-10.5 24.5zM263 458q0 16 10.5 26.5t25.5 10.5q14 0 24.5 -10.5t10.5 -26.5q0 -14 -10.5 -24.5t-24.5 -10.5q-15 0 -25.5 10.5t-10.5 24.5z" />
<glyph unicode="&#xe5;" horiz-adv-x="342" d="M-100 55q0 50 41 117t110 120.5t137 60.5v-9q-81 -24 -147.5 -115t-66.5 -148q0 -21 10 -21q26 0 166 190q59 79 72 90q12 9 25 9q18 0 18 -18q0 -12 -6 -26q-4 -8 -44.5 -109t-46.5 -113q-5 -15 -5 -18q0 -9 10 -9q16 0 37 27l89 110l13 -10l-108 -133q-41 -50 -78 -50 q-15 0 -24.5 8.5t-9.5 21.5q0 20 22 69q56 127 56 138q0 5 -3 5q-5 0 -9 -7q-3 -3 -32 -44t-60.5 -83.5t-47.5 -58.5q-50 -50 -78 -50q-16 0 -28 12.5t-12 43.5zM172 456q0 41 33 73t72 32q26 0 43 -15.5t17 -39.5q0 -43 -35 -73.5t-72 -30.5q-26 0 -42 15t-16 39zM207 452 q0 -33 25 -33q28 0 48.5 30.5t20.5 60.5q0 34 -26 34q-29 0 -48.5 -31t-19.5 -61z" />
<glyph unicode="&#xe6;" horiz-adv-x="453" d="M-100 55q0 50 41 117t110 120.5t137 60.5v-9q-81 -24 -147.5 -115t-66.5 -148q0 -21 10 -21q26 0 166 190q62 83 73 93t23 10q17 0 17 -16q0 -5 -1 -8q39 22 67 22q49 0 49 -55q0 -62 -71 -113t-138 -52q-13 -39 -13 -66q0 -45 35 -45q80 0 214 167l12 -9 q-139 -178 -234 -178q-32 0 -57.5 18.5t-25.5 62.5q0 61 34 121q-76 -111 -116 -153q-50 -50 -78 -50q-16 0 -28 12.5t-12 43.5zM174 145q65 11 110 63t45 101q0 22 -16 22q-26 0 -69.5 -59.5t-69.5 -126.5z" />
<glyph unicode="&#xe7;" horiz-adv-x="286" d="M-80 -129l8 11q16 -11 43 -11q26 0 44 14.5t18 36.5q0 13 -7.5 20t-17.5 7q-19 0 -36 -16h-13l47 67q-29 3 -54 22.5t-25 65.5q0 55 29.5 106.5t71 84.5t82.5 52.5t66 19.5q20 0 34.5 -12.5t14.5 -36.5q0 -10 -1 -16q-4 -18 -35.5 -37t-51.5 -19q39 49 39 82q0 20 -17 20 q-30 0 -72.5 -49t-73 -113t-30.5 -106q0 -44 41 -44q80 0 214 167l12 -9q-139 -178 -230 -178l-31 -44q15 8 43 8q19 0 31.5 -10.5t12.5 -25.5q0 -29 -30.5 -50.5t-71.5 -21.5q-31 0 -54 15z" />
<glyph unicode="&#xe8;" horiz-adv-x="280" d="M-73 81q0 52 25.5 103.5t62 87t75.5 57.5t66 22q49 0 49 -55q0 -62 -70.5 -113t-137.5 -52q-14 -37 -14 -66q0 -45 35 -45q80 0 214 167l13 -9q-140 -178 -235 -178q-31 0 -57 18.5t-26 62.5zM1 145q65 11 110 63t45 101q0 22 -16 22q-26 0 -69.5 -59.5t-69.5 -126.5z M144 507h61l-1 -95h-16z" />
<glyph unicode="&#xe9;" horiz-adv-x="280" d="M-73 81q0 52 25.5 103.5t62 87t75.5 57.5t66 22q49 0 49 -55q0 -62 -70.5 -113t-137.5 -52q-14 -37 -14 -66q0 -45 35 -45q80 0 214 167l13 -9q-140 -178 -235 -178q-31 0 -57 18.5t-26 62.5zM1 145q65 11 110 63t45 101q0 22 -16 22q-26 0 -69.5 -59.5t-69.5 -126.5z M123 412l71 95h71l-118 -95h-24z" />
<glyph unicode="&#xea;" horiz-adv-x="280" d="M-73 81q0 52 25.5 103.5t62 87t75.5 57.5t66 22q49 0 49 -55q0 -62 -70.5 -113t-137.5 -52q-14 -37 -14 -66q0 -45 35 -45q80 0 214 167l13 -9q-140 -178 -235 -178q-31 0 -57 18.5t-26 62.5zM1 145q65 11 110 63t45 101q0 22 -16 22q-26 0 -69.5 -59.5t-69.5 -126.5z M88 412l100 94h44l29 -94h-49l-17 65l-71 -65h-36z" />
<glyph unicode="&#xeb;" horiz-adv-x="280" d="M-73 81q0 52 25.5 103.5t62 87t75.5 57.5t66 22q49 0 49 -55q0 -62 -70.5 -113t-137.5 -52q-14 -37 -14 -66q0 -45 35 -45q80 0 214 167l13 -9q-140 -178 -235 -178q-31 0 -57 18.5t-26 62.5zM1 145q65 11 110 63t45 101q0 22 -16 22q-26 0 -69.5 -59.5t-69.5 -126.5z M97 458q0 16 10.5 26.5t24.5 10.5q15 0 25.5 -10.5t10.5 -26.5q0 -14 -10.5 -24.5t-25.5 -10.5q-14 0 -24.5 10.5t-10.5 24.5zM201 458q0 16 10.5 26.5t25.5 10.5q14 0 24.5 -10.5t10.5 -26.5q0 -14 -10.5 -24.5t-24.5 -10.5q-15 0 -25.5 10.5t-10.5 24.5z" />
<glyph unicode="&#xec;" horiz-adv-x="215" d="M-57 175l110 136q32 40 55 40q13 0 20 -7.5t7 -17.5q0 -16 -12 -45l-82 -198q-5 -15 -5 -18q0 -9 10 -9q16 0 37 27l89 110l13 -10l-108 -133q-41 -50 -78 -50q-15 0 -24.5 8.5t-9.5 21.5q0 19 22 69l78 181q1 2 1 5q0 6 -5 6t-9 -6l-97 -119zM86 507h61l-1 -95h-16z" />
<glyph unicode="&#xed;" horiz-adv-x="215" d="M-57 175l110 136q32 40 55 40q13 0 20 -7.5t7 -17.5q0 -16 -12 -45l-82 -198q-5 -15 -5 -18q0 -9 10 -9q16 0 37 27l89 110l13 -10l-108 -133q-41 -50 -78 -50q-15 0 -24.5 8.5t-9.5 21.5q0 19 22 69l78 181q1 2 1 5q0 6 -5 6t-9 -6l-97 -119zM65 412l71 95h71l-118 -95 h-24z" />
<glyph unicode="&#xee;" horiz-adv-x="215" d="M-57 175l110 136q32 40 55 40q13 0 20 -7.5t7 -17.5q0 -16 -12 -45l-82 -198q-5 -15 -5 -18q0 -9 10 -9q16 0 37 27l89 110l13 -10l-108 -133q-41 -50 -78 -50q-15 0 -24.5 8.5t-9.5 21.5q0 19 22 69l78 181q1 2 1 5q0 6 -5 6t-9 -6l-97 -119zM30 412l100 94h44l29 -94 h-49l-17 65l-71 -65h-36z" />
<glyph unicode="&#xef;" horiz-adv-x="215" d="M-57 175l110 136q32 40 55 40q13 0 20 -7.5t7 -17.5q0 -16 -12 -45l-82 -198q-5 -15 -5 -18q0 -9 10 -9q16 0 37 27l89 110l13 -10l-108 -133q-41 -50 -78 -50q-15 0 -24.5 8.5t-9.5 21.5q0 19 22 69l78 181q1 2 1 5q0 6 -5 6t-9 -6l-97 -119zM39 458q0 16 10.5 26.5 t24.5 10.5q15 0 25.5 -10.5t10.5 -26.5q0 -14 -10.5 -24.5t-25.5 -10.5q-14 0 -24.5 10.5t-10.5 24.5zM143 458q0 16 10.5 26.5t25.5 10.5q14 0 24.5 -10.5t10.5 -26.5q0 -14 -10.5 -24.5t-24.5 -10.5q-15 0 -25.5 10.5t-10.5 24.5z" />
<glyph unicode="&#xf0;" horiz-adv-x="297" d="M-68 99q0 90 72 167t163 77q9 0 21 -2q-5 85 -47 160l-91 -61l-13 18l92 63q-23 35 -48 66l16 12q37 -43 52 -64l87 59l12 -19l-85 -58q74 -108 74 -235q0 -101 -64.5 -192t-145.5 -91q-39 0 -67 26t-28 74zM-15 65q0 -47 31 -47q47 0 110 98t63 192v16q-10 2 -17 2 q-55 0 -100 -50.5t-66 -109t-21 -101.5z" />
<glyph unicode="&#xf1;" horiz-adv-x="384" d="M-57 175l110 136q32 40 55 40q13 0 20 -7.5t7 -17.5q0 -16 -12 -45l-68 -160q-3 -6 -3 -11t4 -5q5 0 12 10l102 152q32 48 52 67t41 19q38 0 38 -29q0 -12 -7 -33l-85 -208q-5 -15 -5 -18q0 -9 10 -9q16 0 37 27l89 110l13 -10l-108 -133q-41 -50 -78 -50 q-15 0 -24.5 8.5t-9.5 21.5q0 19 22 69l79 187q1 3 1 7q0 10 -9 10q-11 0 -18 -12l-161 -239q-36 -52 -62 -52q-22 0 -22 21q0 18 21 68l81 191q1 2 1 5q0 6 -5 6t-9 -6l-97 -119zM110 420q19 43 36 62t37 19q15 0 35.5 -20t33.5 -20q23 0 44 40h26q-19 -43 -37 -62t-40 -19 q-17 0 -37.5 20t-30.5 20q-22 0 -41 -40h-26z" />
<glyph unicode="&#xf2;" horiz-adv-x="326" d="M-68 99q0 80 53.5 151t139.5 103l4 -7q-70 -61 -107 -139t-37 -142q0 -19 8.5 -33t24.5 -14q41 0 105 93q-44 23 -44 88q0 51 32.5 93.5t66.5 42.5q22 0 40.5 -19t18.5 -62q0 -63 -42 -134q35 7 83 67l12 -10q-54 -70 -107 -75q-31 -46 -72 -74.5t-84 -28.5q-39 0 -67 26 t-28 74zM97 201q0 -56 35 -76q62 101 62 165q0 25 -24 25q-20 0 -46.5 -36.5t-26.5 -77.5zM138 507h61l-1 -95h-16z" />
<glyph unicode="&#xf3;" horiz-adv-x="326" d="M-68 99q0 80 53.5 151t139.5 103l4 -7q-70 -61 -107 -139t-37 -142q0 -19 8.5 -33t24.5 -14q41 0 105 93q-44 23 -44 88q0 51 32.5 93.5t66.5 42.5q22 0 40.5 -19t18.5 -62q0 -63 -42 -134q35 7 83 67l12 -10q-54 -70 -107 -75q-31 -46 -72 -74.5t-84 -28.5q-39 0 -67 26 t-28 74zM97 201q0 -56 35 -76q62 101 62 165q0 25 -24 25q-20 0 -46.5 -36.5t-26.5 -77.5zM117 412l71 95h71l-118 -95h-24z" />
<glyph unicode="&#xf4;" horiz-adv-x="326" d="M-68 99q0 80 53.5 151t139.5 103l4 -7q-70 -61 -107 -139t-37 -142q0 -19 8.5 -33t24.5 -14q41 0 105 93q-44 23 -44 88q0 51 32.5 93.5t66.5 42.5q22 0 40.5 -19t18.5 -62q0 -63 -42 -134q35 7 83 67l12 -10q-54 -70 -107 -75q-31 -46 -72 -74.5t-84 -28.5q-39 0 -67 26 t-28 74zM82 412l100 94h44l29 -94h-49l-17 65l-71 -65h-36zM97 201q0 -56 35 -76q62 101 62 165q0 25 -24 25q-20 0 -46.5 -36.5t-26.5 -77.5z" />
<glyph unicode="&#xf5;" horiz-adv-x="326" d="M-68 99q0 80 53.5 151t139.5 103l4 -7q-70 -61 -107 -139t-37 -142q0 -19 8.5 -33t24.5 -14q41 0 105 93q-44 23 -44 88q0 51 32.5 93.5t66.5 42.5q22 0 40.5 -19t18.5 -62q0 -63 -42 -134q35 7 83 67l12 -10q-54 -70 -107 -75q-31 -46 -72 -74.5t-84 -28.5q-39 0 -67 26 t-28 74zM77 420q19 43 36 62t37 19q15 0 35.5 -20t33.5 -20q23 0 44 40h26q-19 -43 -37 -62t-40 -19q-17 0 -37.5 20t-30.5 20q-22 0 -41 -40h-26zM97 201q0 -56 35 -76q62 101 62 165q0 25 -24 25q-20 0 -46.5 -36.5t-26.5 -77.5z" />
<glyph unicode="&#xf6;" horiz-adv-x="326" d="M-68 99q0 80 53.5 151t139.5 103l4 -7q-70 -61 -107 -139t-37 -142q0 -19 8.5 -33t24.5 -14q41 0 105 93q-44 23 -44 88q0 51 32.5 93.5t66.5 42.5q22 0 40.5 -19t18.5 -62q0 -63 -42 -134q35 7 83 67l12 -10q-54 -70 -107 -75q-31 -46 -72 -74.5t-84 -28.5q-39 0 -67 26 t-28 74zM91 458q0 16 10.5 26.5t24.5 10.5q15 0 25.5 -10.5t10.5 -26.5q0 -14 -10.5 -24.5t-25.5 -10.5q-14 0 -24.5 10.5t-10.5 24.5zM97 201q0 -56 35 -76q62 101 62 165q0 25 -24 25q-20 0 -46.5 -36.5t-26.5 -77.5zM195 458q0 16 10.5 26.5t25.5 10.5q14 0 24.5 -10.5 t10.5 -26.5q0 -14 -10.5 -24.5t-24.5 -10.5q-15 0 -25.5 10.5t-10.5 24.5z" />
<glyph unicode="&#xf7;" d="M3 267l16 37h305l-15 -37h-306zM94 199q0 14 10.5 24.5t24.5 10.5q15 0 26 -10.5t11 -24.5q0 -15 -11 -25.5t-26 -10.5q-14 0 -24.5 10.5t-10.5 25.5zM157 373q0 14 10.5 24.5t24.5 10.5q15 0 25.5 -10.5t10.5 -24.5q0 -15 -10.5 -25.5t-25.5 -10.5q-14 0 -24.5 10.5 t-10.5 25.5z" />
<glyph unicode="&#xf8;" horiz-adv-x="326" d="M-119 -61l74 91q-23 25 -23 69q0 80 53.5 151t139.5 103l4 -7q-70 -60 -106.5 -137t-37.5 -141l94 116v15q0 51 32.5 93.5t66.5 42.5q11 0 20 -4l72 88l15 -12l-70 -87q22 -20 22 -66q0 -63 -42 -134q35 7 83 67l12 -10q-54 -70 -107 -75q-31 -46 -72 -74.5t-84 -28.5 q-34 0 -57 17l-72 -88zM-10 41q8 -23 28 -23q41 0 105 93q-28 16 -39 48zM97 206l86 106q-8 3 -13 3q-20 0 -46 -34.5t-27 -74.5zM99 176q6 -36 33 -51q62 101 62 165v3z" />
<glyph unicode="&#xf9;" horiz-adv-x="390" d="M-57 175l110 136q32 40 55 40q13 0 20 -7.5t7 -17.5q0 -16 -12 -45l-73 -174q-12 -27 -12 -45q0 -17 18 -17q13 0 35.5 33.5t56 95t49.5 86.5q44 70 57 81q14 12 36 12t22 -19q0 -13 -5 -25q-4 -8 -45 -111t-47 -115q-5 -10 -5 -18q0 -9 10 -9q16 0 37 27l89 110l12 -10 l-108 -133q-40 -50 -77 -50q-15 0 -24.5 8.5t-9.5 21.5q0 24 22 69q56 127 56 138q0 5 -3 5q-5 0 -9 -7q-20 -31 -43.5 -72t-38 -66t-32 -49.5t-35.5 -36t-39 -11.5q-17 0 -28 12t-11 33q0 31 14 59l73 176q1 2 1 5q0 6 -5 6t-9 -6l-97 -119zM176 507h61l-1 -95h-16z" />
<glyph unicode="&#xfa;" horiz-adv-x="390" d="M-57 175l110 136q32 40 55 40q13 0 20 -7.5t7 -17.5q0 -16 -12 -45l-73 -174q-12 -27 -12 -45q0 -17 18 -17q13 0 35.5 33.5t56 95t49.5 86.5q44 70 57 81q14 12 36 12t22 -19q0 -13 -5 -25q-4 -8 -45 -111t-47 -115q-5 -10 -5 -18q0 -9 10 -9q16 0 37 27l89 110l12 -10 l-108 -133q-40 -50 -77 -50q-15 0 -24.5 8.5t-9.5 21.5q0 24 22 69q56 127 56 138q0 5 -3 5q-5 0 -9 -7q-20 -31 -43.5 -72t-38 -66t-32 -49.5t-35.5 -36t-39 -11.5q-17 0 -28 12t-11 33q0 31 14 59l73 176q1 2 1 5q0 6 -5 6t-9 -6l-97 -119zM155 412l71 95h71l-118 -95h-24 z" />
<glyph unicode="&#xfb;" horiz-adv-x="390" d="M-57 175l110 136q32 40 55 40q13 0 20 -7.5t7 -17.5q0 -16 -12 -45l-73 -174q-12 -27 -12 -45q0 -17 18 -17q13 0 35.5 33.5t56 95t49.5 86.5q44 70 57 81q14 12 36 12t22 -19q0 -13 -5 -25q-4 -8 -45 -111t-47 -115q-5 -10 -5 -18q0 -9 10 -9q16 0 37 27l89 110l12 -10 l-108 -133q-40 -50 -77 -50q-15 0 -24.5 8.5t-9.5 21.5q0 24 22 69q56 127 56 138q0 5 -3 5q-5 0 -9 -7q-20 -31 -43.5 -72t-38 -66t-32 -49.5t-35.5 -36t-39 -11.5q-17 0 -28 12t-11 33q0 31 14 59l73 176q1 2 1 5q0 6 -5 6t-9 -6l-97 -119zM120 412l100 94h44l29 -94h-49 l-17 65l-71 -65h-36z" />
<glyph unicode="&#xfc;" horiz-adv-x="390" d="M-57 175l110 136q32 40 55 40q13 0 20 -7.5t7 -17.5q0 -16 -12 -45l-73 -174q-12 -27 -12 -45q0 -17 18 -17q13 0 35.5 33.5t56 95t49.5 86.5q44 70 57 81q14 12 36 12t22 -19q0 -13 -5 -25q-4 -8 -45 -111t-47 -115q-5 -10 -5 -18q0 -9 10 -9q16 0 37 27l89 110l12 -10 l-108 -133q-40 -50 -77 -50q-15 0 -24.5 8.5t-9.5 21.5q0 24 22 69q56 127 56 138q0 5 -3 5q-5 0 -9 -7q-20 -31 -43.5 -72t-38 -66t-32 -49.5t-35.5 -36t-39 -11.5q-17 0 -28 12t-11 33q0 31 14 59l73 176q1 2 1 5q0 6 -5 6t-9 -6l-97 -119zM129 458q0 16 10.5 26.5 t24.5 10.5q15 0 25.5 -10.5t10.5 -26.5q0 -14 -10.5 -24.5t-25.5 -10.5q-14 0 -24.5 10.5t-10.5 24.5zM233 458q0 16 10.5 26.5t25.5 10.5q14 0 24.5 -10.5t10.5 -26.5q0 -14 -10.5 -24.5t-24.5 -10.5q-15 0 -25.5 10.5t-10.5 24.5z" />
<glyph unicode="&#xfd;" horiz-adv-x="386" d="M-57 175l110 136q32 40 55 40q13 0 20 -7.5t7 -17.5q0 -16 -12 -45l-73 -174q-12 -27 -12 -45q0 -17 18 -17q13 0 35.5 33.5t56 95t49.5 86.5q44 70 57 81q14 12 36 12t22 -19q0 -13 -5 -25l-121 -280q80 69 154 159l12 -10q-72 -91 -181 -183l-99 -228l-73 -20 q208 462 217 486q6 9 -2 9q-5 0 -9 -7q-20 -31 -43.5 -72t-38 -66t-32 -49.5t-35.5 -36t-39 -11.5q-17 0 -28 12t-11 33q0 31 14 59l73 176q1 2 1 5q0 6 -5 6t-9 -6l-97 -119zM155 412l71 95h71l-118 -95h-24z" />
<glyph unicode="&#xfe;" horiz-adv-x="390" d="M-173 -253l103 241l136 326q-28 -45 -115 -153l-12 9q59 73 93 120t46.5 68.5t29.5 55.5l77 181h59l-194 -462q-2 -4 -2 -8q0 -5 3 -5t9 6q1 2 14 20t28 38.5t32 44t33.5 43.5t26.5 30q20 19 30 28t23.5 16.5t24.5 7.5q15 0 28 -14t13 -45q0 -64 -56.5 -140t-131.5 -120 q131 42 220 156l12 -10q-35 -44 -75 -76.5t-71 -50t-71.5 -30t-60 -16t-53.5 -8.5v9q90 33 151.5 118t61.5 142q0 23 -11 23q-27 0 -124.5 -136t-131.5 -209q-15 -31 -44 -101t-32 -77z" />
<glyph unicode="&#xff;" horiz-adv-x="386" d="M-57 175l110 136q32 40 55 40q13 0 20 -7.5t7 -17.5q0 -16 -12 -45l-73 -174q-12 -27 -12 -45q0 -17 18 -17q13 0 35.5 33.5t56 95t49.5 86.5q44 70 57 81q14 12 36 12t22 -19q0 -13 -5 -25l-121 -280q80 69 154 159l12 -10q-72 -91 -181 -183l-99 -228l-73 -20 q208 462 217 486q6 9 -2 9q-5 0 -9 -7q-20 -31 -43.5 -72t-38 -66t-32 -49.5t-35.5 -36t-39 -11.5q-17 0 -28 12t-11 33q0 31 14 59l73 176q1 2 1 5q0 6 -5 6t-9 -6l-97 -119zM129 458q0 16 10.5 26.5t24.5 10.5q15 0 25.5 -10.5t10.5 -26.5q0 -14 -10.5 -24.5t-25.5 -10.5 q-14 0 -24.5 10.5t-10.5 24.5zM233 458q0 16 10.5 26.5t25.5 10.5q14 0 24.5 -10.5t10.5 -26.5q0 -14 -10.5 -24.5t-24.5 -10.5q-15 0 -25.5 10.5t-10.5 24.5z" />
<glyph unicode="&#x152;" horiz-adv-x="822" d="M7 175q0 84 31 173q22 64 55 120t64 89.5t59 58t45 34.5l17 10l9 -11q-4 -3 -11.5 -9.5t-29 -32.5t-42 -57t-47 -84.5t-47.5 -115.5q-37 -105 -37 -190q0 -65 24 -104.5t66 -39.5q63 0 144 84t140.5 212.5t59.5 239.5q0 132 -70 132q-64 0 -122 -102.5t-58 -209.5 q0 -53 15 -78.5t50 -25.5q22 0 35.5 8.5t17.5 15.5l5 -13q-29 -44 -81 -44q-43 0 -67 35t-24 99q0 68 37 146.5t93 132t106 53.5q44 0 80 -44t36 -141v-12q6 1 20 3q12 73 66.5 133.5t122.5 60.5q25 0 41.5 -17t16.5 -43q0 -46 -51.5 -83.5t-144.5 -60.5q2 -12 12 -38 t10 -41q0 -33 -20.5 -58.5t-49.5 -43t-58 -37t-49.5 -53t-20.5 -78.5q0 -60 40 -94t90 -34q25 0 45 3.5t56 21.5t74 51l13 -16q-63 -52 -111.5 -70.5t-102.5 -18.5q-68 0 -115 32.5t-54 91.5q-57 -60 -119 -94t-117 -34q-67 0 -107 52t-40 136zM516 309q29 17 41.5 25.5 t25 23.5t12.5 30q0 5 -8.5 33.5t-8.5 56.5v7q-3 -1 -9.5 -2t-9.5 -1q-6 -83 -43 -173zM628 518q152 36 152 125q0 36 -34 36q-35 0 -76.5 -45.5t-41.5 -110.5v-5z" />
<glyph unicode="&#x153;" horiz-adv-x="492" d="M-68 99q0 80 53.5 151t139.5 103l4 -7q-70 -61 -107 -139t-37 -142q0 -19 8.5 -33t24.5 -14q41 0 105 93q-44 23 -44 88q0 51 32.5 93.5t66.5 42.5q18 0 35 -13.5t22 -42.5q34 33 71 52.5t63 19.5q48 0 48 -55q0 -62 -70.5 -113t-137.5 -52q-14 -42 -14 -66q0 -45 35 -45 q81 0 215 167l12 -9q-139 -178 -234 -178q-25 0 -48.5 12.5t-31.5 40.5q-56 -54 -116 -54q-39 0 -67 26t-28 74zM97 201q0 -56 35 -76q62 101 62 165q0 25 -24 25q-20 0 -46.5 -36.5t-26.5 -77.5zM214 145q65 11 109.5 63t44.5 101q0 22 -15 22q-26 0 -70 -59.5t-69 -126.5z " />
<glyph unicode="&#x178;" horiz-adv-x="656" d="M24 499q90 93 177 147t136 54q54 0 54 -58q0 -55 -45 -159l-118 -276q-51 -125 -51 -168q0 -22 21 -22q13 0 29 4.5t48.5 24.5t67 54.5t82.5 102.5t96 159l107 251h63l-202 -476q-64 -153 -112 -224h66l-20 -43h-76q-102 -129 -229 -129q-41 0 -60.5 18t-19.5 47 q0 12 6.5 27t23.5 34.5t58.5 32.5t99.5 13h87q53 84 112 224l31 72q-148 -218 -271 -218q-30 0 -46 18.5t-16 48.5q0 53 41 149l117 276q62 143 62 179q0 20 -14 20q-5 0 -13.5 -2t-38 -16t-61.5 -37.5t-81.5 -74.5t-99.5 -119zM59 -198q0 -41 59 -41q89 0 167 109h-79 q-147 0 -147 -68zM457 765q0 16 10.5 26.5t24.5 10.5q15 0 25.5 -10.5t10.5 -26.5q0 -14 -10.5 -24.5t-25.5 -10.5q-14 0 -24.5 10.5t-10.5 24.5zM561 765q0 16 10.5 26.5t25.5 10.5q14 0 24.5 -10.5t10.5 -26.5q0 -14 -10.5 -24.5t-24.5 -10.5q-15 0 -25.5 10.5t-10.5 24.5 z" />
<glyph unicode="&#x2c6;" horiz-adv-x="244" d="M50 412l100 94h44l29 -94h-49l-17 65l-71 -65h-36z" />
<glyph unicode="&#x2dc;" horiz-adv-x="244" d="M45 420q19 43 36 62t37 19q15 0 35.5 -20t33.5 -20q23 0 44 40h26q-19 -43 -37 -62t-40 -19q-17 0 -37.5 20t-30.5 20q-22 0 -41 -40h-26z" />
<glyph unicode="&#x2000;" horiz-adv-x="449" />
<glyph unicode="&#x2001;" horiz-adv-x="899" />
<glyph unicode="&#x2002;" horiz-adv-x="449" />
<glyph unicode="&#x2003;" horiz-adv-x="899" />
<glyph unicode="&#x2004;" horiz-adv-x="299" />
<glyph unicode="&#x2005;" horiz-adv-x="224" />
<glyph unicode="&#x2006;" horiz-adv-x="149" />
<glyph unicode="&#x2007;" horiz-adv-x="149" />
<glyph unicode="&#x2008;" horiz-adv-x="112" />
<glyph unicode="&#x2009;" horiz-adv-x="179" />
<glyph unicode="&#x200a;" horiz-adv-x="49" />
<glyph unicode="&#x2010;" d="M27 201l19 57h247l-19 -57h-247z" />
<glyph unicode="&#x2011;" d="M27 201l19 57h247l-19 -57h-247z" />
<glyph unicode="&#x2012;" d="M27 201l19 57h247l-19 -57h-247z" />
<glyph unicode="&#x2013;" horiz-adv-x="500" d="M12 208l18 42h387l-19 -42h-386z" />
<glyph unicode="&#x2014;" horiz-adv-x="1000" d="M-57 208l18 42h1019l-19 -42h-1018z" />
<glyph unicode="&#x2018;" horiz-adv-x="107" d="M74 553q0 25 24 51.5t54 42.5l9 -15q-38 -22 -45 -45q13 -3 21.5 -13t8.5 -21q0 -15 -10.5 -25.5t-24.5 -10.5q-16 0 -26.5 10.5t-10.5 25.5z" />
<glyph unicode="&#x2019;" horiz-adv-x="107" d="M74 532q39 23 45 45q-13 3 -21 13t-8 21q0 15 10.5 25.5t24.5 10.5q15 0 25.5 -10.5t10.5 -25.5q0 -25 -24 -51.5t-54 -42.5z" />
<glyph unicode="&#x201a;" horiz-adv-x="107" d="M-64 -50q39 25 44 46q-29 7 -29 34q0 15 10.5 25.5t24.5 10.5q15 0 25.5 -10.5t10.5 -26.5q0 -24 -24 -50.5t-54 -43.5z" />
<glyph unicode="&#x201c;" horiz-adv-x="200" d="M74 553q0 25 24 51.5t54 42.5l9 -15q-38 -22 -45 -45q13 -3 21.5 -13t8.5 -21q0 -15 -10.5 -25.5t-24.5 -10.5q-16 0 -26.5 10.5t-10.5 25.5zM167 553q0 25 24 51.5t54 42.5l9 -15q-39 -23 -45 -45q13 -3 21 -12.5t8 -21.5q0 -15 -10 -25.5t-24 -10.5q-16 0 -26.5 10.5 t-10.5 25.5z" />
<glyph unicode="&#x201d;" horiz-adv-x="200" d="M74 532q39 23 45 45q-13 3 -21 13t-8 21q0 15 10.5 25.5t24.5 10.5q15 0 25.5 -10.5t10.5 -25.5q0 -25 -24 -51.5t-54 -42.5zM167 532q39 23 45 45q-13 3 -21 12.5t-8 21.5q0 15 10 25.5t24 10.5q16 0 26.5 -10.5t10.5 -25.5q0 -25 -24 -51.5t-54 -42.5z" />
<glyph unicode="&#x201e;" horiz-adv-x="200" d="M-64 -50q39 25 44 46q-29 7 -29 34q0 15 10.5 25.5t24.5 10.5q15 0 25.5 -10.5t10.5 -26.5q0 -24 -24 -50.5t-54 -43.5zM28 -50q40 25 45 46q-29 7 -29 34q0 15 10.5 25.5t24.5 10.5q15 0 25.5 -10.5t10.5 -26.5q0 -24 -24 -50.5t-54 -43.5z" />
<glyph unicode="&#x2022;" horiz-adv-x="220" d="M48 337q0 22 16 38t39 16q22 0 38 -16t16 -38q0 -23 -16 -39t-38 -16q-23 0 -39 16t-16 39z" />
<glyph unicode="&#x2026;" horiz-adv-x="393" d="M-49 31q0 14 10.5 24.5t24.5 10.5q15 0 25.5 -10.5t10.5 -24.5q0 -15 -10.5 -25.5t-25.5 -10.5q-14 0 -24.5 10.5t-10.5 25.5zM82 31q0 14 10.5 24.5t24.5 10.5q15 0 25.5 -10.5t10.5 -24.5q0 -15 -10.5 -25.5t-25.5 -10.5q-14 0 -24.5 10.5t-10.5 25.5zM213 31 q0 14 10.5 24.5t24.5 10.5q15 0 25.5 -10.5t10.5 -24.5q0 -15 -10.5 -25.5t-25.5 -10.5q-14 0 -24.5 10.5t-10.5 25.5z" />
<glyph unicode="&#x202f;" horiz-adv-x="179" />
<glyph unicode="&#x2039;" horiz-adv-x="220" d="M-5 181l163 111l-22 -50l-91 -61l38 -61l-22 -50z" />
<glyph unicode="&#x203a;" horiz-adv-x="220" d="M-29 70l22 50l90 61l-37 61l22 50l66 -111z" />
<glyph unicode="&#x205f;" horiz-adv-x="224" />
<glyph unicode="&#x20ac;" horiz-adv-x="466" d="M-38 231l12 26h46q5 19 14 43h-49l12 25h48q50 113 141.5 191.5t165.5 78.5q55 0 89 -30t34 -78q0 -49 -40.5 -88.5t-100.5 -60.5l-9 15q49 21 75.5 57.5t26.5 81.5q0 36 -18 59.5t-49 23.5q-63 0 -134 -74t-116 -176h173l-11 -25h-172q-10 -24 -15 -43h170l-11 -26h-165 q-11 -42 -11 -79q0 -67 29 -99t75 -32q65 0 125 59l13 -17q-74 -70 -161 -70q-34 0 -64.5 12.5t-55 49.5t-24.5 94q0 41 9 82h-52z" />
<glyph unicode="&#x2122;" horiz-adv-x="682" d="M78 501q0 40 47 68.5t113 28.5q73 0 154 -39l-14 -40q-37 20 -79 35l-111 -264h-42l115 273q-26 5 -55 5q-48 0 -78.5 -16.5t-30.5 -42.5q0 -11 19 -11h53l-12 -29h-54q-11 0 -18 9.5t-7 22.5zM291 290l98 231q13 30 20 55l42 8q-1 -12 -13 -44q40 46 76 46q28 0 28 -25 q0 -15 -6 -31q43 55 76 55q31 0 31 -32q0 -22 -16 -63l-84 -200h-43l85 200q22 52 22 66q0 9 -6 9q-4 0 -11 -3.5t-31.5 -31.5t-51.5 -76l-69 -164h-42l84 201q23 53 23 67q0 6 -6 6q-3 0 -9.5 -2.5t-29.5 -25.5t-48 -64l-78 -182h-41z" />
<glyph unicode="&#xe000;" horiz-adv-x="350" d="M0 0v350h350v-350h-350z" />
</font>
</defs>
</svg>
