<?xml version="1.0" standalone="no"?>
<!DOCTYPE svg PUBLIC "-//W3C//DTD SVG 1.1//EN" "http://www.w3.org/Graphics/SVG/1.1/DTD/svg11.dtd" >
<svg xmlns="http://www.w3.org/2000/svg">
<metadata></metadata>
<defs>
<font id="afta_sansitalic" horiz-adv-x="640" >
<font-face units-per-em="1000" ascent="800" descent="-200" />
<missing-glyph horiz-adv-x="282" />
<glyph unicode="&#xfb01;" horiz-adv-x="606" d="M101 0l100 475h-79l10 43h79l19 92q23 103 87.5 156.5t149.5 53.5q43 0 75.5 -8t46.5 -15.5t41 -24.5l7 33h88l-19 -89h-102q-76 62 -139 62q-70 0 -113.5 -53t-58.5 -119l-18 -88h389l-110 -518h-71l100 475h-317l-100 -475h-65z" />
<glyph unicode="&#xfb02;" horiz-adv-x="602" d="M110 0l100 474h-90l10 44h90l19 89q25 121 84 168.5t151 47.5q31 0 58 -3t55.5 -11t48 -21.5t35.5 -34.5t17.5 -50.5t-4.5 -68.5l-134 -633h-71l134 633q16 72 -20 104.5t-130 32.5q-73 -2 -107.5 -44t-50.5 -120l-19 -89h127l-10 -44h-127l-100 -474h-66z" />
<glyph horiz-adv-x="1000" />
<glyph horiz-adv-x="1000" />
<glyph unicode="&#xd;" horiz-adv-x="1000" />
<glyph unicode=" "  horiz-adv-x="282" />
<glyph unicode="&#x09;" horiz-adv-x="282" />
<glyph unicode="&#xa0;" horiz-adv-x="282" />
<glyph unicode="!" horiz-adv-x="264" d="M95 0l18 86h85l-18 -86h-85zM170 225l38 294l45 213h71l-45 -213l-88 -294h-21z" />
<glyph unicode="&#x22;" horiz-adv-x="435" d="M234 493l51 237h46l-51 -237h-46zM387 493l51 237h44l-51 -237h-44z" />
<glyph unicode="#" horiz-adv-x="574" d="M93 223l6 31h121l79 204h-130l6 31h135l83 220h46l-85 -220h168l84 220h47l-86 -220h96l-6 -31h-101l-78 -204h103l-6 -31h-106q-44 -102 -85 -223h-46l84 223h-168q-15 -39 -83 -223h-46l84 223h-116zM265 254h166q18 45 80 204h-166z" />
<glyph unicode="$" horiz-adv-x="585" d="M66 40l14 65q78 -70 223 -77l69 321q-115 37 -163.5 86.5t-31.5 128.5q15 68 89 122t191 65l15 69h31l-15 -69q142 -9 204 -47l-10 -50q-89 47 -203 55l-64 -304q20 -8 34.5 -14t34 -15.5t33 -17.5t29.5 -20t26 -24t19 -27.5t13 -32t4 -37t-5 -43.5q-13 -59 -60 -102 t-102 -63.5t-117 -27.5l-21 -100h-31l21 99q-162 7 -227 60zM257 563q-20 -93 127 -154l64 299q-78 -13 -128.5 -50t-62.5 -95zM334 27q81 21 130.5 59.5t59.5 87.5q6 13 3.5 33.5t-10.5 41.5t-37.5 46.5t-77.5 48.5z" />
<glyph unicode="%" horiz-adv-x="1000" d="M213 525q46 201 204 201q61 0 91.5 -29t31.5 -73.5t-7 -98.5q-44 -193 -199 -193q-159 0 -121 193zM230 -19l724 759h51l-725 -759h-50zM253 522q-19 -95 5.5 -132t79.5 -37q58 0 96 38.5t59 133.5q20 100 -2 139t-79 39q-59 0 -97.5 -39.5t-61.5 -141.5zM671 183 q25 100 73 150t132 50q155 0 114 -200q-14 -63 -36.5 -104t-51.5 -59t-53 -23.5t-55 -5.5q-21 0 -36.5 2t-35 8.5t-30 19t-21 34t-8.5 53t8 75.5zM712 179q-21 -97 1.5 -135t82.5 -38q61 0 98 40t57 137q21 104 3 143t-82 39q-61 0 -100 -42.5t-60 -143.5z" />
<glyph unicode="&#x26;" horiz-adv-x="759" d="M99 254q26 116 90 171.5t186 73.5q-1 14 -2.5 33t-2 26.5t1 22t5.5 33.5q25 114 185 114q77 -1 111.5 -27.5t22.5 -86.5q-7 -27 -22 -66q101 -18 135 -74t12 -168q-36 -159 -179 -250q48 -30 104 -30q81 0 165 41l-12 -53q-60 -30 -165 -30q-86 0 -149 45 q-115 -47 -262 -47q-150 0 -200.5 68t-23.5 204zM166 258q-27 -132 13 -183t155 -51q90 0 215 33q-127 153 -175 416q-50 -13 -77.5 -24t-55.5 -34t-45 -60.5t-30 -96.5zM419 598q-11 -49 7.5 -133.5t46.5 -158.5q55 77 80.5 114t54 89t37.5 89q11 51 -14 68.5t-78 17.5 q-58 0 -90.5 -17t-43.5 -69zM479 263q34 -75 54.5 -108t56.5 -69q129 56 164 224q9 42 10 72t-4.5 51t-21 36.5t-34 25.5t-49.5 22q-64 -118 -176 -254z" />
<glyph unicode="'" horiz-adv-x="286" d="M234 493l51 237h45l-51 -237h-45z" />
<glyph unicode="(" horiz-adv-x="315" d="M122 269q26 127 110 255t194 229h36q-45 -52 -93 -118t-102 -171t-72 -195q-43 -190 54 -482h-29q-9 15 -20 34t-28 55.5t-29.5 79t-22.5 92t-10 107.5t12 114z" />
<glyph unicode=")" horiz-adv-x="308" d="M-17 -213q73 101 111.5 159t85 151t64.5 172q45 215 -62 484h36q149 -249 99 -484q-51 -229 -304 -482h-30z" />
<glyph unicode="*" horiz-adv-x="329" d="M167 545l48 24q36 17 81 36q-6 3 -105 51q3 6 8 13.5t6 9.5l90 -54l23 106h26l-23 -106l114 54q0 -1 2 -9t2 -14q-18 -7 -62 -24.5t-65 -26.5q16 -8 42 -23.5t44 -25.5l17 -11l-13 -25l-88 72l-27 -130h-26l27 130l-118 -72z" />
<glyph unicode="+" horiz-adv-x="600" d="M59 232v42h227v235h45v-235h236v-42h-236v-231h-45v231h-227z" />
<glyph unicode="," horiz-adv-x="278" d="M52 -187l7 35q22 2 39.5 13.5t26.5 22t18.5 37t12 36.5t10.5 43h-60l17 84h87q-5 -69 -13 -99q-17 -83 -56.5 -124t-88.5 -48z" />
<glyph unicode="-" horiz-adv-x="398" d="M120 253l11 51h280l-11 -51h-280z" />
<glyph unicode="." horiz-adv-x="271" d="M105 -1l18 84h85l-18 -84h-85z" />
<glyph unicode="/" horiz-adv-x="347" d="M1 -19l469 772h47l-469 -772h-47z" />
<glyph unicode="0" horiz-adv-x="650" d="M129 348q20 91 52 159.5t67.5 109t79.5 65t83.5 33t84.5 8.5q27 0 50.5 -3.5t50 -13.5t47 -27t37.5 -46t25 -67t5.5 -94t-17.5 -124q-19 -91 -53.5 -160t-71.5 -107t-81.5 -61t-79 -29.5t-69.5 -6.5q-24 0 -47 3t-50 13t-49 26t-41 44.5t-29 65.5t-9 91.5t15 120.5z M196 341q-68 -316 152 -316q96 0 171 78t109 245q28 121 13 194.5t-53.5 104.5t-100.5 31q-105 0 -179 -77.5t-112 -259.5z" />
<glyph unicode="1" horiz-adv-x="435" d="M189 0l143 674l-46 -12q-11 -3 -21.5 -6t-16.5 -4.5t-6 -0.5l6 29q53 30 79 46h82l-154 -726h-66z" />
<glyph unicode="2" horiz-adv-x="581" d="M34 0q17 75 47.5 130.5t78.5 97t95.5 69.5t124.5 63h-1q148 66 172 177q11 58 -21 98t-112 44q-101 0 -179 -78q-26 26 -41 39q35 36 97.5 61t131.5 25q111 0 158.5 -53.5t29.5 -135.5q-33 -150 -230 -236q-218 -99 -258 -253h407l-10 -48h-490z" />
<glyph unicode="3" horiz-adv-x="620" d="M47 22l11 53q99 -49 229 -49q61 0 111.5 19t80.5 48t47 57t22 52q13 59 -31 107t-137 48h-86l11 48h86q161 0 192 141q11 54 -19.5 93.5t-108.5 39.5q-103 0 -265 -74l12 54q147 68 263 68q100 0 157 -41t40 -125q-15 -70 -55.5 -114t-112.5 -62q81 -21 118.5 -60.5 t19.5 -122.5q-19 -91 -115 -155t-233 -64q-165 0 -237 39z" />
<glyph unicode="4" horiz-adv-x="676" d="M79 201l13 62q84 78 246.5 232t245.5 232h60l-103 -483h165l-9 -43h-165l-42 -201h-65l42 201h-388zM121 244h355l92 430q-125 -119 -276 -265t-171 -165z" />
<glyph unicode="5" horiz-adv-x="620" d="M55 53l12 58q129 -70 242 -70q56 0 103 20t78 51.5t50.5 67t27.5 70.5q16 81 -24.5 136.5t-149.5 55.5q-65 0 -195 -42l-48 32q9 24 93 245l14 38h472l-15 -39h-406l-78 -230q96 37 172 37q133 0 197.5 -57t39.5 -176q-25 -118 -118.5 -184t-220.5 -66q-97 0 -159 17.5 t-87 35.5z" />
<glyph unicode="6" horiz-adv-x="602" d="M127 356q42 194 138.5 282.5t224.5 88.5q44 0 86.5 -11.5t64.5 -22t66 -34.5l-17 -58q-105 76 -211 76q-59 0 -108 -28t-80 -68.5t-55 -97.5t-35.5 -102.5t-20.5 -95.5q28 51 100 105.5t155 54.5q130 0 177 -90q41 -78 1 -175q-41 -102 -143 -154q-71 -36 -159 -36 q-63 0 -104.5 17.5t-69.5 59.5t-28.5 112.5t18.5 176.5zM179 219q-16 -69 22 -129t118 -60q112 0 184 91q59 74 54 156q-4 83 -73 110q-26 10 -59 10q-70 0 -137.5 -52t-108.5 -126z" />
<glyph unicode="7" horiz-adv-x="613" d="M198 672l24 37h504q-4 -19 -9.5 -34t-14 -27.5t-14.5 -20t-19.5 -21l-19.5 -19.5q1 0 -25 -26t-74 -73.5t-101 -99.5q-73 -80 -95 -179l-44 -209h-68l44 209q22 105 111 200q221 220 264 263h-463z" />
<glyph unicode="8" horiz-adv-x="613" d="M90 195q9 44 36.5 83.5t63 66.5t66 44.5t56.5 26.5q-19 8 -37.5 20t-39.5 31t-31.5 45.5t-4.5 54.5q16 76 86.5 117.5t184.5 41.5t163.5 -45t35.5 -114q-22 -99 -173 -149q75 -39 113 -92t21 -131q-21 -102 -109 -157t-210 -55q-58 0 -101.5 10.5t-77 35t-43 65 t0.5 101.5zM157 195q-13 -57 10.5 -95.5t64 -54t90.5 -15.5q84 0 153 45t84 120q18 89 -42 144.5t-152 62.5q-82 -24 -136.5 -77t-71.5 -130zM273 576q-5 -20 7.5 -39.5t30 -32.5t47.5 -27t45.5 -19t39.5 -13q29 7 88.5 44.5t69.5 86.5q7 32 -3 54t-34 32.5t-48.5 14 t-56.5 3.5q-61 0 -118 -26t-68 -78z" />
<glyph unicode="9" horiz-adv-x="602" d="M72 58l16 58q110 -76 211 -76q59 0 108 28t80.5 69.5t55.5 97t36 102.5t19 95q-28 -51 -100 -105.5t-155 -54.5q-129 0 -177 90q-40 78 -1 175q41 102 143 154q71 36 159 36q63 0 105 -17.5t70 -59.5t28.5 -112.5t-19.5 -176.5q-42 -194 -138.5 -282.5t-224.5 -88.5 q-44 0 -86 11.5t-65.5 22.5t-64.5 34zM354 320q71 0 137 52t108 126q16 69 -21.5 129t-117.5 60q-113 0 -185 -91q-59 -74 -54 -156q5 -84 74 -110q27 -10 59 -10z" />
<glyph unicode=":" horiz-adv-x="281" d="M105 -1l18 84h85l-18 -84h-85zM198 433l17 84h85l-17 -84h-85z" />
<glyph unicode=";" horiz-adv-x="287" d="M52 -187l7 35q22 2 39.5 13.5t26.5 22t18.5 37t12 36.5t10.5 43h-60l17 84h87q-5 -69 -13 -99q-17 -83 -56.5 -124t-88.5 -48zM198 433l17 84h85l-17 -84h-85z" />
<glyph unicode="&#x3c;" horiz-adv-x="621" d="M59 235v39q87 36 265.5 118.5t265.5 118.5v-53l-489 -205l498 -204v-51q-92 37 -270 118.5t-270 118.5z" />
<glyph unicode="=" horiz-adv-x="598" d="M59 128v41h501v-41h-501zM59 335v43h501v-43h-501z" />
<glyph unicode="&#x3e;" horiz-adv-x="618" d="M48 -2v51l498 204l-489 205v53q88 -36 266 -118.5t265 -118.5v-39q-92 -37 -270 -118.5t-270 -118.5z" />
<glyph unicode="?" horiz-adv-x="581" d="M211 650l14 69q83 32 202 32q111 0 169.5 -43.5t39.5 -132.5q-13 -57 -51 -96.5t-100 -79.5q-128 -84 -162 -176h-40q12 50 43 93t54.5 62.5t59.5 44.5q39 26 57 40.5t39 44t30 67.5q12 58 -24.5 91.5t-125.5 33.5t-205 -50zM218 -1l18 84h84l-18 -84h-84z" />
<glyph unicode="@" horiz-adv-x="817" d="M49 366q0 175 108 280.5t278 105.5q162 0 266.5 -80.5t104.5 -230.5q0 -94 -46 -162.5t-147 -68.5q-48 0 -78.5 21.5t-40.5 47.5q-32 -56 -100 -56q-116 0 -116 142q0 68 30.5 114.5t89.5 46.5q24 0 57 -17.5t58 -52.5q0 3 16 62q-2 0 50 -18q-21 -155 -21 -187 q0 -61 61 -61q54 0 82.5 55.5t28.5 141.5q0 82 -44.5 141.5t-110.5 86.5t-143 27q-18 0 -32.5 -1t-48 -7.5t-60 -18t-58.5 -37t-53.5 -59.5t-36.5 -89.5t-15 -124.5q0 -70 15 -125.5t36 -90.5t55.5 -60t61.5 -37t66 -18.5t57.5 -7t46.5 -0.5h7q148 0 316 95v-85 q-152 -56 -353 -56q-193 0 -292 104t-95 280zM344 358q0 -84 69 -84q26 0 53 24t31 49l9 52q-60 73 -97 73q-65 0 -65 -114z" />
<glyph unicode="A" d="M11 0l433 715h91l100 -715h-66l-33 272h-292l-168 -272h-65zM263 314h269l-49 368z" />
<glyph unicode="B" horiz-adv-x="685" d="M94 -1q26 122 75 357.5t75 357.5h230q139 0 190.5 -48t33.5 -127q-13 -62 -60.5 -98.5t-115.5 -45.5q92 -16 140.5 -65t30.5 -135q-48 -214 -334 -208q-198 3 -265 12zM165 33l148 -7q78 -2 133.5 9.5t89.5 36.5t52 56t28 75q16 77 -32.5 120.5t-143.5 43.5h-204z M245 412h159q102 0 153.5 29.5t65.5 97.5q13 63 -24 97.5t-133 34.5h-166z" />
<glyph unicode="C" horiz-adv-x="680" d="M134 354q37 177 163 277t284 100q78 0 185 -33l-13 -61q-100 52 -181 52q-8 0 -20.5 -1t-42 -8t-58.5 -19t-65.5 -37t-66.5 -59t-58.5 -88.5t-44.5 -121.5q-11 -53 -11 -98t7.5 -76.5t24 -57t32.5 -40.5t40 -26t40 -16t38 -8t28.5 -3h16.5q101 0 215 78l-14 -69 q-106 -60 -212 -60q-171 0 -244.5 106.5t-42.5 268.5z" />
<glyph unicode="D" horiz-adv-x="682" d="M92 1l152 715h180q77 0 135.5 -23.5t90.5 -62t52 -86.5t19.5 -96.5t-6.5 -92.5q-10 -47 -30 -93t-56.5 -94t-84 -84.5t-118 -59.5t-153.5 -23h-181zM174 83q-6 -29 -3.5 -34t20.5 -5h91q48 0 98.5 16t102.5 49.5t93 97t59 148.5q15 86 2.5 146.5t-50 98.5t-81 55.5 t-90.5 17.5q-117 0 -118 -8z" />
<glyph unicode="E" horiz-adv-x="568" d="M94 0l151 714h415l-9 -42h-352l-61 -287h261l-9 -43h-261l-63 -299h376l-9 -43h-439z" />
<glyph unicode="F" horiz-adv-x="579" d="M94 0l151 714h462l-9 -44h-398l-61 -285h247l-10 -50h-247l-71 -335h-64z" />
<glyph unicode="G" horiz-adv-x="794" d="M129 359q37 170 156.5 271.5t294.5 101.5q86 0 156.5 -12.5t97.5 -24.5l-14 -67q-6 2 -42 17.5t-55.5 21.5t-62 13.5t-89.5 7.5q-145 0 -240.5 -93.5t-127.5 -241.5q-12 -53 -12 -98t7 -76.5t24.5 -56.5t33.5 -40t42.5 -26t42.5 -16t42.5 -7.5t34 -2.5h24.5q149 0 253 61 l44 210h66l-55 -263q-191 -58 -319 -58q-384 -4 -302 379z" />
<glyph unicode="H" horiz-adv-x="750" d="M93 0l151 715h72l-71 -334h452l71 334h65l-151 -715h-65l71 336h-452l-71 -336h-72z" />
<glyph unicode="I" horiz-adv-x="259" d="M103 0l151 715h64l-151 -715h-64z" />
<glyph unicode="J" horiz-adv-x="272" d="M17 -204l8 37q40 33 60.5 65.5t30.5 79.5l157 738h62l-157 -738q-11 -50 -32 -86.5t-46 -55.5t-44 -27.5t-39 -12.5z" />
<glyph unicode="K" horiz-adv-x="626" d="M87 0l151 715h64l-86 -408l437 408h68l-294 -279l197 -436h-78l-173 384l-174 -154l-48 -230h-64z" />
<glyph unicode="L" horiz-adv-x="535" d="M94 0l151 715h66l-136 -644q-5 -20 -3 -23t19 -3h349l-9 -45h-437z" />
<glyph unicode="M" horiz-adv-x="920" d="M92 0l151 715h122l129 -536q4 -19 13 -22.5t18.5 3t17.5 19.5q83 128 151 231t100.5 152t55.5 84t31 47.5t13 21.5h113l-151 -715h-64l142 675q-74 -109 -214 -317t-185 -274h-74l-160 590q-18 -87 -68.5 -316.5t-77.5 -357.5h-63z" />
<glyph unicode="N" horiz-adv-x="711" d="M91 0l151 714h95l262 -638l135 638h66l-151 -714h-75l-276 673l-143 -673h-64z" />
<glyph unicode="O" horiz-adv-x="824" d="M122 356q39 182 157 277t300 98q193 -3 263.5 -96t31.5 -279q-36 -171 -149 -273.5t-306 -102.5q-374 0 -297 376zM200 357q-11 -54 -12 -99.5t5 -77.5t21.5 -57.5t31 -41.5t39 -27.5t40 -17t40.5 -8.5t34 -3h26h4q15 0 29.5 1t49.5 7.5t65 18t68.5 36t68 58.5t56.5 88.5 t41 122.5q12 54 12 99.5t-8 77.5t-25.5 57.5t-34.5 41.5t-43 27t-43 16t-42 8t-32.5 3h-21.5q-17 0 -32.5 -1t-49.5 -7.5t-62 -18t-64.5 -36.5t-65 -58.5t-54.5 -87.5t-41 -121z" />
<glyph unicode="P" horiz-adv-x="616" d="M94 -1l152 715l246 1q68 0 115.5 -19t67.5 -49.5t28 -68t-2 -73.5q-17 -81 -91 -142.5t-206 -61.5h-182l-64 -302h-64zM232 347h182q49 0 90 18t65 45t38 51t18 44q8 26 3.5 55.5t-16.5 54t-45.5 40.5t-83.5 16h-182z" />
<glyph unicode="Q" horiz-adv-x="821" d="M122 353q39 182 156.5 277t299.5 98q193 -3 264.5 -96t31.5 -279q-36 -162 -141.5 -262t-291.5 -114l-7 -33q-14 -66 19 -100.5t78 -39.5l-2 -11q-45 2 -77 15.5t-46.5 30.5t-20.5 39.5t-5.5 37.5t3.5 29l7 32q-339 24 -268 376zM200 354q-12 -54 -13.5 -99.5t5 -77.5 t21.5 -57.5t31 -41.5t39.5 -27.5t40.5 -17t41 -8.5t34 -3h25h4q16 0 31 1t49.5 7.5t64 18t67.5 36t67.5 58.5t56.5 88.5t42 122.5q12 54 12 99.5t-7.5 77.5t-25.5 57.5t-35 41.5t-43 27t-43 16t-41.5 8t-32.5 3h-22q-17 0 -32 -1t-49 -7.5t-62.5 -18t-65.5 -36t-65 -58.5 t-54 -88t-40 -121z" />
<glyph unicode="R" horiz-adv-x="662" d="M92 0l151 715h240q117 0 167.5 -47t33.5 -124q-16 -77 -73 -121t-118 -51q23 -6 38.5 -16t24.5 -28.5t12.5 -31t9.5 -39.5l49 -257h-66q-49 268 -54 286q-8 33 -26.5 47.5t-51.5 14.5h-201l-73 -348h-63zM239 397h177q90 0 139 42t59 96q11 55 -21 95.5t-119 40.5h-177z " />
<glyph unicode="S" horiz-adv-x="588" d="M64 38l14 66q36 -32 91 -54t119 -22q82 0 146.5 41t78.5 101q3 19 4 32t-5 35t-20.5 38t-46.5 34.5t-79 31.5h1q-115 34 -164 81.5t-30 128.5q15 74 93 127t194 53q142 0 217 -42l-11 -51q-58 30 -106.5 40t-109.5 10q-71 0 -128 -37t-71 -101q-11 -60 19.5 -92.5 t105.5 -54.5q54 -18 83.5 -31t71 -40t55.5 -67.5t3 -94.5q-12 -55 -48.5 -95t-85 -59.5t-92 -27.5t-85.5 -8q-144 0 -214 58z" />
<glyph unicode="T" horiz-adv-x="616" d="M155 673l9 43h609l-9 -43h-267l-143 -673h-67l143 673h-275z" />
<glyph unicode="U" horiz-adv-x="717" d="M153 314l85 401h65l-86 -409q-4 -18 -7.5 -35.5t-5.5 -46t1 -52.5t13.5 -50.5t29 -45t51.5 -30.5t77 -12q42 0 78 11.5t60.5 27t46.5 43t33.5 47t23.5 52t15.5 45t9.5 38.5q1 5 2 8l86 409h63l-86 -409q-7 -30 -9 -40t-11.5 -43t-17 -48.5t-23.5 -45.5t-32 -45.5t-42 -37 t-55 -32.5t-68 -19t-84 -8q-46 0 -82 8t-61 19.5t-42.5 32t-27 38.5t-13.5 45.5t-5 47t3 49.5t6.5 45t8.5 42z" />
<glyph unicode="V" horiz-adv-x="683" d="M172 715h70l98 -669l382 669h79l-422 -715h-97z" />
<glyph unicode="W" horiz-adv-x="1060" d="M169 715h74l101 -666l313 666h82l26 -668l379 668h76l-411 -715h-97l-21 679l-311 -679h-97z" />
<glyph unicode="X" horiz-adv-x="683" d="M31 -1l364 369l-196 347h78l161 -298l289 298h78l-336 -347l199 -369h-69l-181 321l-317 -321h-70z" />
<glyph unicode="Y" horiz-adv-x="690" d="M180 715h73l166 -396l337 396h74l-384 -447l-57 -269h-72l57 269z" />
<glyph unicode="Z" horiz-adv-x="655" d="M34 0l14 67l676 605h-548l9 43h607l-14 -66l-666 -599h539l-10 -50h-607z" />
<glyph unicode="[" horiz-adv-x="324" d="M44 -213l205 963h233l-10 -45h-158l-185 -874h158l-10 -44h-233z" />
<glyph unicode="\" horiz-adv-x="347" d="M166 753h47l139 -772h-47z" />
<glyph unicode="]" horiz-adv-x="324" d="M-30 -212l10 46h157l185 871h-158l10 45h232l-205 -962h-231z" />
<glyph unicode="^" horiz-adv-x="602" d="M73 289l225 421v1h36q35 -75 116.5 -222.5t111.5 -207.5h-47l-199 393q-55 -117 -116 -234t-76 -150z" />
<glyph unicode="_" horiz-adv-x="500" d="M-19 -139l4 19h500l-4 -19h-500z" />
<glyph unicode="`" horiz-adv-x="222" d="M163 751h78l26 -112h-42z" />
<glyph unicode="a" horiz-adv-x="538" d="M110 258q30 143 101.5 209.5t199.5 66.5q45 0 101.5 -21.5t69.5 -24.5l-102 -487h-52l11 105q-16 -35 -79.5 -78.5t-133.5 -43.5q-93 0 -119.5 73.5t3.5 200.5zM174 258q-10 -47 -14 -81.5t-1.5 -71.5t21.5 -57t55 -20q85 0 149 64.5t78 131.5l47 223q-59 35 -114 35 t-95 -19t-64.5 -55t-37.5 -69.5t-24 -80.5z" />
<glyph unicode="b" horiz-adv-x="514" d="M57 25l161 769h67l-87 -410q26 54 90 101.5t134 47.5q174 0 121 -258q-32 -150 -105 -218.5t-200 -68.5q-96 0 -181 37zM132 63q55 -34 131 -34q157 0 211 246q44 213 -64 213q-45 0 -89 -28.5t-74.5 -69t-51 -81t-25.5 -68.5z" />
<glyph unicode="c" horiz-adv-x="509" d="M108 263q32 146 113 207.5t215 61.5q86 0 155 -44l-11 -53q-4 2 -16.5 8.5t-17 8.5t-16 7.5t-17.5 7.5t-16.5 6t-17.5 5.5t-16.5 3.5t-18.5 3t-18 1q-44 0 -79 -9t-70 -31.5t-61 -68t-40 -112.5q-15 -58 -11 -99t15 -67.5t36 -41.5t51.5 -21t61.5 -6q86 0 183 43 q-5 -20 -7.5 -37t-3.5 -21q-106 -31 -182 -31q-136 0 -188.5 68t-22.5 211z" />
<glyph unicode="d" horiz-adv-x="538" d="M107 261q30 141 102.5 208.5t161.5 67.5q72 0 159 -36l62 292h67l-169 -797h-63q1 4 3 23t8 49q-68 -80 -190 -80q-89 0 -130 64.5t-11 208.5zM174 262q-9 -38 -11.5 -72.5t2 -73t28 -61.5t64.5 -23q171 0 213 190l49 226q-29 15 -76.5 29t-81.5 14q-133 0 -183 -213 q-4 -15 -4 -16z" />
<glyph unicode="e" horiz-adv-x="521" d="M105 247q59 285 296 285q207 0 147 -269l-373 1q-11 -48 -15.5 -79.5t-2 -64.5t16.5 -52t43.5 -31t75.5 -12q97 0 170 81q35 -33 37 -35q-93 -87 -216 -87q-126 0 -165.5 67t-13.5 196zM191 305l308 1q12 74 -7 125q-23 55 -101 55q-82 0 -132 -51.5t-68 -129.5z" />
<glyph unicode="f" horiz-adv-x="322" d="M113 0l100 475h-86l10 43h86l9 45q27 122 85 169t160 47q62 0 103 -31l-9 -51q-51 30 -105 30q-33 0 -57.5 -4.5t-41.5 -16.5t-27.5 -22t-19 -33t-12 -36t-10.5 -44q-1 -5 -2 -8l-9 -45h129l-10 -43h-129l-100 -475h-64z" />
<glyph unicode="g" horiz-adv-x="563" d="M51 -132l47 32q17 -23 38 -40q49 -39 105 -39q48 0 86 15.5t58.5 35t35.5 48t19 43.5t7 31l14 65q-41 -43 -79 -60.5t-96 -17.5q-65 0 -108.5 23.5t-61.5 62.5t-21.5 90t10.5 106q30 135 97 202.5t192 67.5q73 0 107.5 -21t56.5 -70l22 76h45l-112 -524q-4 -15 -6 -23 t-12 -34t-22 -43t-34.5 -41.5t-49.5 -39t-68 -25.5t-89 -11q-121 0 -181 91zM172 263q-11 -52 -12 -92.5t8 -65t21.5 -41t32 -24.5t36.5 -10.5t38 -2.5q23 0 40 2t44.5 15t47.5 36.5t41.5 70.5t35.5 112q12 53 13.5 92.5t-7.5 63t-19.5 38t-31.5 20.5t-34 7.5t-35 1.5 t-31.5 -0.5t-32.5 -4.5t-36 -11.5t-33.5 -23.5t-33.5 -39.5t-27.5 -60t-24.5 -83.5z" />
<glyph unicode="h" horiz-adv-x="569" d="M79 0l168 795h66l-81 -384q30 48 98.5 85t128.5 37q73 0 104.5 -56t8.5 -164l-66 -313h-64l68 320q33 163 -92 163q-68 0 -129.5 -46t-73.5 -106l-70 -331h-66z" />
<glyph unicode="i" horiz-adv-x="229" d="M92 0l110 518h68l-110 -518h-68zM226 711l18 85h85l-18 -85h-85z" />
<glyph unicode="j" horiz-adv-x="231" d="M-15 -214q2 8 5.5 23t5.5 22q72 56 91 143l116 544h68l-114 -534q-11 -55 -33.5 -95.5t-50 -60.5t-47.5 -29t-41 -13zM228 711l18 85h84l-18 -85h-84z" />
<glyph unicode="k" horiz-adv-x="538" d="M86 0l168 794h68l-81 -383q120 139 249 139q63 0 92 -40t17 -100q-22 -106 -200 -210l110 -200h-79l-94 170l-67 -27l11 53q89 35 166 88t90 115q10 45 -11.5 72.5t-63.5 27.5t-94.5 -28.5t-95.5 -76.5t-54 -97l-63 -297h-68z" />
<glyph unicode="l" horiz-adv-x="229" d="M92 0l168 794h66l-168 -794h-66z" />
<glyph unicode="m" horiz-adv-x="789" d="M74 0l109 517h59l-17 -110q68 126 204 126q86 0 93 -126q35 55 89.5 90.5t123.5 35.5q64 0 82.5 -49.5t-4.5 -160.5l-65 -323h-64l70 330q8 39 10 64t-2.5 47t-21.5 32.5t-47 10.5q-71 0 -119 -49t-61 -115l-68 -320h-68l68 320q18 79 6 121.5t-63 42.5 q-69 0 -119.5 -57.5t-64.5 -123.5l-64 -303h-66z" />
<glyph unicode="n" horiz-adv-x="562" d="M82 0l110 518h59l-16 -103q29 47 97.5 82.5t129.5 35.5q74 0 105 -56t8 -164l-66 -313h-64l68 320q33 163 -92 163q-68 0 -129.5 -46t-73.5 -106l-70 -331h-66z" />
<glyph unicode="o" horiz-adv-x="563" d="M104 261q30 137 98 204.5t194 67.5q246 0 188 -272q-29 -143 -95.5 -210.5t-198.5 -67.5q-66 0 -110.5 22.5t-63 61t-22.5 89t10 105.5zM173 261q-11 -53 -12 -93t8.5 -64.5t21.5 -40.5t32.5 -23t37 -9t39.5 -2q25 0 40 1.5t43.5 14t48 35t41.5 69t36 112.5 q10 46 11.5 82.5t-2.5 60t-16.5 40.5t-23.5 25t-30.5 12.5t-31 5t-30.5 0.5q-21 0 -31 -0.5t-32 -4.5t-35 -12t-32 -24t-32 -39.5t-27 -60.5t-24 -85z" />
<glyph unicode="p" horiz-adv-x="544" d="M32 -213l155 730h52l-13 -120q16 38 81 87.5t134 49.5q93 0 119.5 -73.5t-3.5 -200.5q-30 -141 -101 -204.5t-200 -63.5q-45 0 -112 19l-48 -224h-64zM158 71q51 -30 114 -30q55 0 95 18.5t64.5 53t37.5 68t24 79.5q10 47 14 81.5t1.5 71.5t-21.5 57t-55 20 q-85 0 -149 -64.5t-78 -131.5z" />
<glyph unicode="q" horiz-adv-x="540" d="M108 261q30 141 101 204.5t199 63.5q92 0 172 -44l-148 -696h-65l68 320q-48 -54 -98 -87.5t-113 -33.5q-93 0 -119.5 73.5t3.5 199.5zM171 261q-10 -48 -14 -82t-1.5 -71t22 -57t55.5 -20q84 0 148.5 64.5t78.5 131.5l47 223q-63 39 -132 39q-158 0 -204 -228z" />
<glyph unicode="r" horiz-adv-x="367" d="M78 0l109 517h55l-10 -114q40 64 77 96.5t96 32.5q46 0 77 -13l-16 -55q-48 16 -72 16q-60 0 -114.5 -56.5t-80.5 -175.5l-52 -248h-69z" />
<glyph unicode="s" horiz-adv-x="472" d="M53 43q2 11 7 32.5t7 32.5q35 -23 58 -36t59.5 -25t71.5 -12q133 0 157 103q4 20 -3.5 36t-19 26.5t-38 22t-45 17l-55.5 16.5q-76 23 -99 55.5t-13 87.5q7 29 25 55.5t65.5 50t116.5 23.5q19 0 36.5 -1.5t34 -5.5t27.5 -6.5t26.5 -8.5t21 -8.5t20.5 -9.5t16 -7 q-2 -8 -5 -25.5t-4 -22.5q-39 18 -60.5 27t-55.5 17.5t-66 8.5q-109 0 -127 -89q-9 -45 11.5 -62t84.5 -36q104 -27 146 -64.5t30 -96.5q-16 -71 -80.5 -112t-157.5 -41q-67 0 -118 19.5t-74 38.5z" />
<glyph unicode="t" horiz-adv-x="344" d="M125 475l10 43h101l52 153h45l-32 -153h134l-10 -43h-134l-71 -336q-14 -67 -7.5 -84.5t44.5 -17.5q40 0 77 16l-11 -50q-67 -15 -101 -15q-51 0 -69.5 24t-3.5 92l78 371h-102z" />
<glyph unicode="u" horiz-adv-x="574" d="M119 197l69 321h68l-71 -330q-19 -77 -2 -118.5t80 -41.5q72 0 140 49t85 127l67 314h65l-110 -518h-60l17 108q-35 -60 -95 -92.5t-134 -32.5t-108 50.5t-11 163.5z" />
<glyph unicode="v" horiz-adv-x="548" d="M143 518h69l81 -459q1 0 146 229t144 230h67l-336 -518h-63z" />
<glyph unicode="w" horiz-adv-x="787" d="M137 518h63l26 -468l69 117q69 117 139 234l69 117h54l63 -469l210 469h64l-240 -518h-82l-51 477l-271 -477h-77z" />
<glyph unicode="x" horiz-adv-x="511" d="M25 1l258 270l-127 247h78l95 -198l183 198h77l-232 -247l141 -270h-68l-121 222l-213 -222h-71z" />
<glyph unicode="y" horiz-adv-x="535" d="M140 518h68l83 -518l278 518h68l-417 -730h-58l83 160z" />
<glyph unicode="z" horiz-adv-x="458" d="M37 0l11 53l422 421h-333l10 44h410l-10 -44l-427 -421h330l-11 -53h-402z" />
<glyph unicode="{" horiz-adv-x="447" d="M118 248l10 46q89 32 109 102l33 155q14 70 55 117t90.5 66t106.5 19h68l-10 -47h-58q-150 0 -174 -109l-42 -200q-9 -38 -31 -70t-55 -37l-8 -38q32 -6 41.5 -37.5t-0.5 -64.5l-44 -210q-23 -108 124 -107h1.5h1.5h58l-10 -46h-68q-90 0 -139 50t-25 160l32 153 q3 11 3.5 21t-2 18t-5.5 14.5t-9 12t-10 9.5t-11.5 8t-11.5 6t-11 5t-9 4z" />
<glyph unicode="|" horiz-adv-x="229" d="M50 -234l221 1043h47l-221 -1043h-47z" />
<glyph unicode="}" horiz-adv-x="444" d="M-8 -213l9 46h58q151 0 174 107l44 210q21 89 85 101l8 38q-32 5 -41 41t1 67l42 200q7 31 -1.5 53t-23 32.5t-38.5 16.5t-36 6.5t-28 0.5h-58l10 47h68q90 0 138.5 -49t28.5 -153l-33 -154q-18 -75 65 -103l-10 -47q-90 -34 -108 -97l-32 -153q-24 -111 -93.5 -160.5 t-161.5 -49.5h-67z" />
<glyph unicode="~" horiz-adv-x="600" d="M106 237q67 31 103 31q47 0 102 -14t108 -14q49 0 99 22v-45q-67 -28 -99 -28q-50 0 -106.5 13.5t-105.5 13.5q-35 0 -99 -19q0 10 -1 21t-1 19z" />
<glyph unicode="&#xa1;" horiz-adv-x="264" d="M59 -217l46 213l87 294h21l-37 -294l-46 -213h-71zM187 431l18 84h84l-18 -84h-84z" />
<glyph unicode="&#xa2;" horiz-adv-x="509" d="M108 263q27 129 104.5 197.5t187.5 68.5l16 75h33l-16 -75q93 -8 159 -37q-14 -37 -18 -47q-80 38 -149 45l-99 -462q104 10 186 45q-11 -47 -12 -59q-100 -27 -183 -30l-23 -108h-33l24 110q-115 0 -159.5 74t-17.5 203zM176 264q-24 -108 9 -172.5t108 -64.5l99 463 q-64 0 -129.5 -63.5t-86.5 -161.5v-1z" />
<glyph unicode="&#xa3;" horiz-adv-x="585" d="M49 0l9 43q113 16 145 162l33 155h-49l10 45h49l37 174q17 84 83 127t144 43q70 0 106 -26l-9 -43q-49 25 -99 25q-71 0 -104 -40t-48 -109l-32 -151h113l-10 -45h-113l-33 -155q-15 -67 -42.5 -102t-72.5 -59l176 -2q194 0 239 156q18 89 -24 136q5 5 16 14t16 14 q51 -61 29 -164q-23 -102 -101 -152t-177 -46h-291z" />
<glyph unicode="&#xa5;" horiz-adv-x="690" d="M133 75l9 40h203l36 169h-203l9 41h171l-179 406h83l159 -403q260 308 342 403h84l-351 -406h174l-9 -41h-206l-36 -169h206l-9 -40h-206l-15 -75h-74l15 75h-203z" />
<glyph unicode="&#xa7;" horiz-adv-x="556" d="M43 -156l15 67q97 -74 188 -74q66 0 107 21.5t52 79.5q11 50 -37.5 91.5t-122.5 41.5q-85 0 -118.5 54.5t-14.5 141.5q13 59 59 115.5t135 83.5q-41 28 -53.5 62t-0.5 91q11 50 57.5 88t148.5 38q104 0 183 -46l-10 -49q-96 52 -182 52q-51 0 -84.5 -18t-44.5 -70 q-25 -119 139 -155q72 -16 104 -59t13 -133q-12 -59 -61 -113.5t-133 -69.5q113 -45 90 -146q-15 -72 -79 -111.5t-158 -39.5q-20 0 -39.5 2t-37 6.5t-30.5 8.5t-28.5 11t-22 10.5t-20 10.5t-14.5 8zM185 288q-17 -65 -12 -103.5t42 -54t124 -15.5q54 0 103.5 42.5 t63.5 109.5q6 30 6 52.5t-4 38.5t-17.5 26.5t-26 17t-38 10t-45.5 5t-57 2.5q-42 0 -85.5 -40.5t-53.5 -90.5z" />
<glyph unicode="&#xa8;" horiz-adv-x="222" d="M102 609l21 98h83l-21 -98h-83zM299 609l21 98h84l-21 -98h-84z" />
<glyph unicode="&#xaa;" horiz-adv-x="277" d="M142 510q7 33 31 55t67 22h15.5h14h11t10 0.5t8 1.5t8.5 2.5t6.5 3.5t7.5 5q10 57 2.5 68.5t-45.5 11.5q-45 0 -77 -14l-5 25q44 14 92 14q43 0 61.5 -21t5.5 -82l-35 -168h-25l-7 23q-29 -26 -72 -26q-49 0 -66 19.5t-8 59.5zM176 510q-6 -29 7 -43t38 -14q35 0 75 31 l19 89q-20 -8 -69 -8q-20 0 -29.5 -1.5t-22.5 -14.5t-18 -39z" />
<glyph unicode="&#xab;" horiz-adv-x="562" d="M133 262q-12 10 -8.5 21.5t16.5 18.5l195 121q-8 -39 -21 -45l-156 -96q97 -84 112 -93q14 -11 5 -49zM383 262q-12 10 -8.5 21.5t16.5 18.5l195 121q-8 -39 -21 -45l-156 -96q97 -84 112 -93q14 -11 5 -49z" />
<glyph unicode="&#xad;" horiz-adv-x="398" d="M120 253l11 51h280l-11 -51h-280z" />
<glyph unicode="&#xb0;" horiz-adv-x="400" d="M64 577q0 69 36.5 105t102.5 37q74 -1 107.5 -36.5t33.5 -105.5q0 -64 -34 -102t-107 -38q-139 0 -139 140zM104 577q0 -32 9.5 -55t20.5 -33.5t29 -16t23.5 -5.5h16.5q9 0 17.5 0.5t25.5 6.5t29 16.5t22 33t10 53.5t-10 53.5t-21.5 33t-29.5 16.5t-25.5 6.5t-17.5 0.5 q-9 0 -17 -0.5t-24.5 -6.5t-28 -16.5t-20.5 -33t-9 -53.5z" />
<glyph unicode="&#xb2;" horiz-adv-x="348" d="M102 300q42 136 201 202q97 45 112 116q9 43 -11 70t-79 27q-57 0 -106 -44q-6 2 -16 10q58 45 126 45q65 0 91.5 -30.5t16.5 -77.5q-18 -84 -131 -134q-72 -32 -113.5 -70t-54.5 -103h248l-3 -11h-281z" />
<glyph unicode="&#xb3;" horiz-adv-x="341" d="M86 313l4 19h1q67 -20 133 -20q75 0 116 33.5t49 72.5q9 36 -20 69t-89 33h-42l3 13h42q108 0 128 93q7 37 -13 62t-73 25q-56 0 -147 -37l3 14q83 37 147 37q57 0 89.5 -24t21.5 -77q-17 -77 -104 -100q109 -21 88 -108q-11 -51 -66.5 -87t-133.5 -36q-93 0 -137 18z " />
<glyph unicode="&#xb4;" horiz-adv-x="222" d="M203 614l84 128h102l-125 -128h-61z" />
<glyph unicode="&#xb7;" horiz-adv-x="290" d="M171 306l18 85h85l-18 -85h-85z" />
<glyph unicode="&#xb8;" horiz-adv-x="245" d="M15 -216l4 20q21 -10 46 -10q60 0 72 55q13 61 -48 61q-16 0 -38 -5q4 3 15.5 18.5t28 39.5t28.5 39h7l-58 -80q61 5 84.5 -18t16.5 -55q-13 -65 -96 -73q-40 0 -62 8z" />
<glyph unicode="&#xb9;" horiz-adv-x="297" d="M224 362l75 353q-30 -5 -44 -7q11 5 39 18h23l-78 -364h-15z" />
<glyph unicode="&#xba;" horiz-adv-x="400" d="M186 577q15 69 59 105t110 37q142 -1 111 -142q-13 -64 -55.5 -102t-115.5 -38q-139 0 -109 140zM226 577q-7 -24 -4 -41t5 -29t12.5 -20t16.5 -12t17 -6t15.5 -2h11.5h2q12 0 24 2t35 11t41.5 34t26.5 63q2 21 4 36.5t-4.5 27.5t-10.5 20t-14.5 13t-16.5 7.5t-16 4 t-13.5 1.5h-8.5q-99 0 -123 -110z" />
<glyph unicode="&#xbb;" horiz-adv-x="555" d="M109 140q10 39 27 49q142 87 150 93l-114 96q-11 6 -3 45l145 -121q11 -10 6.5 -22t-16.5 -18zM359 140q10 39 27 49q142 87 150 93l-114 96q-11 6 -3 45l145 -121q11 -10 6.5 -22t-16.5 -18z" />
<glyph unicode="&#xbf;" horiz-adv-x="562" d="M67 -59q9 40 33 73t48.5 52t73.5 52q33 22 50 34.5t43 35.5t42 48.5t26 56.5h38q-21 -73 -60.5 -117.5t-95.5 -81.5q-38 -27 -56 -42t-40 -45t-29 -66q-13 -58 24 -91.5t126 -33.5q86 0 202 50l-14 -68q-105 -33 -198 -33q-114 0 -173 43.5t-40 132.5zM385 433l17 84h84 l-17 -84h-84z" />
<glyph unicode="&#xc0;" d="M11 0l433 715h91l100 -715h-66l-33 272h-292l-168 -272h-65zM263 314h269l-49 368zM456 948h78l26 -112h-42z" />
<glyph unicode="&#xc1;" d="M11 0l433 715h91l100 -715h-66l-33 272h-292l-168 -272h-65zM263 314h269l-49 368zM411 811l84 128h102l-125 -128h-61z" />
<glyph unicode="&#xc2;" d="M11 0l433 715h91l100 -715h-66l-33 272h-292l-168 -272h-65zM263 314h269l-49 368zM370 822l131 129h39l75 -129h-43l-58 103l-101 -103h-43z" />
<glyph unicode="&#xc3;" d="M11 0l433 715h91l100 -715h-66l-33 272h-292l-168 -272h-65zM263 314h269l-49 368zM362 859l8 43q20 20 62 20q26 0 75.5 -14t77.5 -14q41 0 65 10l-8 -38q-34 -23 -67 -23q-30 0 -78 13t-79 13q-30 0 -56 -10z" />
<glyph unicode="&#xc4;" d="M11 0l433 715h91l100 -715h-66l-33 272h-292l-168 -272h-65zM263 314h269l-49 368zM349 806l21 98h83l-21 -98h-83zM546 806l21 98h84l-21 -98h-84z" />
<glyph unicode="&#xc5;" d="M11 0l432 713q-82 20 -60 130q14 67 56.5 101.5t106.5 35.5q71 -1 96.5 -35t10.5 -102q-22 -108 -118 -130l100 -713h-66l-33 272h-292l-168 -272h-65zM263 314h269l-49 368zM404 843q-5 -23 -5.5 -41.5t4 -31t10.5 -22.5t16 -15l17 -8.5t17.5 -5t15 -1.5h9.5h2 q15 0 28.5 2.5t40 12.5t47.5 38.5t30 71.5q4 20 4.5 37t-2.5 29t-9.5 22t-13.5 16t-16.5 10t-16.5 6t-16 3.5t-13.5 1.5h-9.5q-10 0 -19 -1t-29.5 -7.5t-35.5 -18.5t-31 -37.5t-24 -60.5z" />
<glyph unicode="&#xc6;" horiz-adv-x="1041" d="M62 1l676 713h432l-9 -42h-346q-16 -77 -29.5 -143.5t-19.5 -95t-11 -48.5h256l-9 -43h-256l-61 -299h368l-9 -43h-439l58 273h-281l-264 -272h-56zM413 315h258l78 357z" />
<glyph unicode="&#xc7;" horiz-adv-x="680" d="M134 354q19 89 63 161.5t104 119t132 71.5t148 25q78 0 185 -33l-13 -61q-100 52 -181 52q-5 0 -13.5 -0.5t-28 -4t-39.5 -9t-47 -17.5t-51.5 -28.5t-51.5 -42.5t-49.5 -57.5t-42.5 -76.5t-33 -98q-11 -53 -11 -98t7.5 -76.5t24 -57t32.5 -40.5t40 -26t40 -16t38 -8 t28.5 -3h16.5q101 0 215 78l-14 -69q-106 -60 -212 -60q-17 0 -34 1l-40 -55q61 5 84.5 -18t16.5 -55q-13 -65 -96 -73q-40 0 -62 8l4 20q21 -10 46 -10q60 0 72 55q13 61 -48 61q-16 0 -38 -5q3 2 9 10t12 16.5t16 22.5t17 24q-100 9 -163 62t-82.5 132.5t-0.5 178.5z" />
<glyph unicode="&#xc8;" horiz-adv-x="568" d="M94 0l151 714h415l-9 -42h-352l-61 -287h261l-9 -43h-261l-63 -299h376l-9 -43h-439zM420 948h78l26 -112h-42z" />
<glyph unicode="&#xc9;" horiz-adv-x="568" d="M94 0l151 714h415l-9 -42h-352l-61 -287h261l-9 -43h-261l-63 -299h376l-9 -43h-439zM375 811l84 128h102l-125 -128h-61z" />
<glyph unicode="&#xca;" horiz-adv-x="568" d="M94 0l151 714h415l-9 -42h-352l-61 -287h261l-9 -43h-261l-63 -299h376l-9 -43h-439zM334 822l131 129h39l75 -129h-43l-58 103l-101 -103h-43z" />
<glyph unicode="&#xcb;" horiz-adv-x="568" d="M94 0l151 714h415l-9 -42h-352l-61 -287h261l-9 -43h-261l-63 -299h376l-9 -43h-439zM313 806l21 98h83l-21 -98h-83zM510 806l21 98h84l-21 -98h-84z" />
<glyph unicode="&#xcc;" horiz-adv-x="259" d="M103 0l151 715h64l-151 -715h-64zM265 948h78l26 -112h-42z" />
<glyph unicode="&#xcd;" horiz-adv-x="259" d="M103 0l151 715h64l-151 -715h-64zM222 811l84 128h102l-125 -128h-61z" />
<glyph unicode="&#xce;" horiz-adv-x="259" d="M103 0l151 715h64l-151 -715h-64zM180 822l131 129h39l75 -129h-43l-58 103l-101 -103h-43z" />
<glyph unicode="&#xcf;" horiz-adv-x="259" d="M103 0l151 715h64l-151 -715h-64zM159 806l21 98h83l-21 -98h-83zM356 806l21 98h84l-21 -98h-84z" />
<glyph unicode="&#xd1;" horiz-adv-x="711" d="M91 0l151 714h95l262 -638l135 638h66l-151 -714h-75l-276 673l-143 -673h-64zM442 859l8 43q20 20 62 20q26 0 75.5 -14t77.5 -14q41 0 65 10l-8 -38q-34 -23 -67 -23q-30 0 -78 13t-79 13q-30 0 -56 -10z" />
<glyph unicode="&#xd2;" horiz-adv-x="824" d="M122 356q39 182 157 277t300 98q193 -3 263.5 -96t31.5 -279q-36 -171 -149 -273.5t-306 -102.5q-374 0 -297 376zM200 357q-11 -54 -12 -99.5t5 -77.5t21.5 -57.5t31 -41.5t39 -27.5t40 -17t40.5 -8.5t34 -3h26h4q15 0 29.5 1t49.5 7.5t65 18t68.5 36t68 58.5t56.5 88.5 t41 122.5q12 54 12 99.5t-8 77.5t-25.5 57.5t-34.5 41.5t-43 27t-43 16t-42 8t-32.5 3h-21.5q-17 0 -32.5 -1t-49.5 -7.5t-62 -18t-64.5 -36.5t-65 -58.5t-54.5 -87.5t-41 -121zM548 948h78l26 -112h-42z" />
<glyph unicode="&#xd3;" horiz-adv-x="824" d="M122 356q39 182 157 277t300 98q193 -3 263.5 -96t31.5 -279q-36 -171 -149 -273.5t-306 -102.5q-374 0 -297 376zM200 357q-11 -54 -12 -99.5t5 -77.5t21.5 -57.5t31 -41.5t39 -27.5t40 -17t40.5 -8.5t34 -3h26h4q15 0 29.5 1t49.5 7.5t65 18t68.5 36t68 58.5t56.5 88.5 t41 122.5q12 54 12 99.5t-8 77.5t-25.5 57.5t-34.5 41.5t-43 27t-43 16t-42 8t-32.5 3h-21.5q-17 0 -32.5 -1t-49.5 -7.5t-62 -18t-64.5 -36.5t-65 -58.5t-54.5 -87.5t-41 -121zM503 811l84 128h102l-125 -128h-61z" />
<glyph unicode="&#xd4;" horiz-adv-x="824" d="M122 356q39 182 157 277t300 98q193 -3 263.5 -96t31.5 -279q-36 -171 -149 -273.5t-306 -102.5q-374 0 -297 376zM200 357q-11 -54 -12 -99.5t5 -77.5t21.5 -57.5t31 -41.5t39 -27.5t40 -17t40.5 -8.5t34 -3h26h4q15 0 29.5 1t49.5 7.5t65 18t68.5 36t68 58.5t56.5 88.5 t41 122.5q12 54 12 99.5t-8 77.5t-25.5 57.5t-34.5 41.5t-43 27t-43 16t-42 8t-32.5 3h-21.5q-17 0 -32.5 -1t-49.5 -7.5t-62 -18t-64.5 -36.5t-65 -58.5t-54.5 -87.5t-41 -121zM462 822l131 129h39l75 -129h-43l-58 103l-101 -103h-43z" />
<glyph unicode="&#xd5;" horiz-adv-x="824" d="M122 356q39 182 157 277t300 98q193 -3 263.5 -96t31.5 -279q-36 -171 -149 -273.5t-306 -102.5q-374 0 -297 376zM200 357q-11 -54 -12 -99.5t5 -77.5t21.5 -57.5t31 -41.5t39 -27.5t40 -17t40.5 -8.5t34 -3h26h4q15 0 29.5 1t49.5 7.5t65 18t68.5 36t68 58.5t56.5 88.5 t41 122.5q12 54 12 99.5t-8 77.5t-25.5 57.5t-34.5 41.5t-43 27t-43 16t-42 8t-32.5 3h-21.5q-17 0 -32.5 -1t-49.5 -7.5t-62 -18t-64.5 -36.5t-65 -58.5t-54.5 -87.5t-41 -121zM454 859l8 43q20 20 62 20q26 0 75.5 -14t77.5 -14q41 0 65 10l-8 -38q-34 -23 -67 -23 q-30 0 -78 13t-79 13q-30 0 -56 -10z" />
<glyph unicode="&#xd6;" horiz-adv-x="824" d="M122 356q39 182 157 277t300 98q193 -3 263.5 -96t31.5 -279q-36 -171 -149 -273.5t-306 -102.5q-374 0 -297 376zM200 357q-11 -54 -12 -99.5t5 -77.5t21.5 -57.5t31 -41.5t39 -27.5t40 -17t40.5 -8.5t34 -3h26h4q15 0 29.5 1t49.5 7.5t65 18t68.5 36t68 58.5t56.5 88.5 t41 122.5q12 54 12 99.5t-8 77.5t-25.5 57.5t-34.5 41.5t-43 27t-43 16t-42 8t-32.5 3h-21.5q-17 0 -32.5 -1t-49.5 -7.5t-62 -18t-64.5 -36.5t-65 -58.5t-54.5 -87.5t-41 -121zM441 806l21 98h83l-21 -98h-83zM638 806l21 98h84l-21 -98h-84z" />
<glyph unicode="&#xd8;" horiz-adv-x="824" d="M122 356q38 174 164 274.5t293 100.5q71 0 131 -15q3 6 7 10q0 1 3.5 4.5t3.5 5.5h19l-15 -24q105 -44 140 -131t6 -225q-36 -171 -149 -273.5t-306 -102.5q-59 0 -128 12l-7 -12h-17l10 15q-211 77 -155 361zM200 357q-47 -229 104 -314q205 334 381 628q-57 16 -116 16 q-18 0 -33.5 -1t-49.5 -7.5t-62 -18t-64.5 -36.5t-64.5 -58.5t-54 -87.5t-41 -121zM319 37q43 -12 110 -12q15 0 29.5 1t49.5 7.5t65 18t68.5 36t68 58.5t56.5 88.5t41 122.5q47 213 -107 308z" />
<glyph unicode="&#xd9;" horiz-adv-x="717" d="M153 314l85 401h65l-86 -409q-4 -18 -7.5 -35.5t-5.5 -46t1 -52.5t13.5 -50.5t29 -45t51.5 -30.5t77 -12q42 0 78 11.5t60.5 27t46.5 43t33.5 47t23.5 52t15.5 45t9.5 38.5q1 5 2 8l86 409h63l-86 -409q-7 -30 -9 -40t-11.5 -43t-17 -48.5t-23.5 -45.5t-32 -45.5t-42 -37 t-55 -32.5t-68 -19t-84 -8q-46 0 -82 8t-61 19.5t-42.5 32t-27 38.5t-13.5 45.5t-5 47t3 49.5t6.5 45t8.5 42zM494 948h78l26 -112h-42z" />
<glyph unicode="&#xda;" horiz-adv-x="717" d="M153 314l85 401h65l-86 -409q-4 -18 -7.5 -35.5t-5.5 -46t1 -52.5t13.5 -50.5t29 -45t51.5 -30.5t77 -12q42 0 78 11.5t60.5 27t46.5 43t33.5 47t23.5 52t15.5 45t9.5 38.5q1 5 2 8l86 409h63l-86 -409q-7 -30 -9 -40t-11.5 -43t-17 -48.5t-23.5 -45.5t-32 -45.5t-42 -37 t-55 -32.5t-68 -19t-84 -8q-46 0 -82 8t-61 19.5t-42.5 32t-27 38.5t-13.5 45.5t-5 47t3 49.5t6.5 45t8.5 42zM450 811l84 128h102l-125 -128h-61z" />
<glyph unicode="&#xdb;" horiz-adv-x="717" d="M153 314l85 401h65l-86 -409q-4 -18 -7.5 -35.5t-5.5 -46t1 -52.5t13.5 -50.5t29 -45t51.5 -30.5t77 -12q42 0 78 11.5t60.5 27t46.5 43t33.5 47t23.5 52t15.5 45t9.5 38.5q1 5 2 8l86 409h63l-86 -409q-7 -30 -9 -40t-11.5 -43t-17 -48.5t-23.5 -45.5t-32 -45.5t-42 -37 t-55 -32.5t-68 -19t-84 -8q-46 0 -82 8t-61 19.5t-42.5 32t-27 38.5t-13.5 45.5t-5 47t3 49.5t6.5 45t8.5 42zM409 822l131 129h39l75 -129h-43l-58 103l-101 -103h-43z" />
<glyph unicode="&#xdc;" horiz-adv-x="717" d="M153 314l85 401h65l-86 -409q-4 -18 -7.5 -35.5t-5.5 -46t1 -52.5t13.5 -50.5t29 -45t51.5 -30.5t77 -12q42 0 78 11.5t60.5 27t46.5 43t33.5 47t23.5 52t15.5 45t9.5 38.5q1 5 2 8l86 409h63l-86 -409q-7 -30 -9 -40t-11.5 -43t-17 -48.5t-23.5 -45.5t-32 -45.5t-42 -37 t-55 -32.5t-68 -19t-84 -8q-46 0 -82 8t-61 19.5t-42.5 32t-27 38.5t-13.5 45.5t-5 47t3 49.5t6.5 45t8.5 42zM388 806l21 98h83l-21 -98h-83zM585 806l21 98h84l-21 -98h-84z" />
<glyph unicode="&#xdd;" horiz-adv-x="690" d="M180 715h73l166 -396l337 396h74l-384 -447l-57 -269h-72l57 269zM436 811l84 128h102l-125 -128h-61z" />
<glyph unicode="&#xdf;" horiz-adv-x="572" d="M77 0l95 450q10 46 16 70.5t18 62t24 57.5t32 45t43.5 37.5t57.5 21t75 8.5q34 0 65 -8t60.5 -27t41.5 -58.5t0 -94.5q-11 -58 -56 -102.5t-128 -61.5q172 -45 141 -197q-12 -54 -36 -94t-52 -62t-66.5 -35t-70.5 -16.5t-72 -3.5l10 47q178 17 209 166q8 26 6 51.5 t-13 47t-43 39.5t-84 30l11 52q81 4 126.5 36.5t60.5 103.5q15 72 -20.5 103.5t-100.5 31.5q-43 0 -71 -10.5t-47 -37t-31 -61t-25 -93.5l-105 -498h-71z" />
<glyph unicode="&#xe0;" horiz-adv-x="463" d="M110 258q30 143 101.5 209.5t199.5 66.5q45 0 101.5 -21.5t69.5 -24.5l-102 -487h-52l11 105q-16 -35 -79.5 -78.5t-133.5 -43.5q-93 0 -119.5 73.5t3.5 200.5zM174 258q-10 -47 -14 -81.5t-1.5 -71.5t21.5 -57t55 -20q85 0 149 64.5t78 131.5l47 223q-59 35 -114 35 t-95 -19t-64.5 -55t-37.5 -69.5t-24 -80.5zM326 751h78l26 -112h-42z" />
<glyph unicode="&#xe1;" horiz-adv-x="463" d="M110 258q30 143 101.5 209.5t199.5 66.5q45 0 101.5 -21.5t69.5 -24.5l-102 -487h-52l11 105q-16 -35 -79.5 -78.5t-133.5 -43.5q-93 0 -119.5 73.5t3.5 200.5zM174 258q-10 -47 -14 -81.5t-1.5 -71.5t21.5 -57t55 -20q85 0 149 64.5t78 131.5l47 223q-59 35 -114 35 t-95 -19t-64.5 -55t-37.5 -69.5t-24 -80.5zM282 614l84 128h102l-125 -128h-61z" />
<glyph unicode="&#xe2;" horiz-adv-x="463" d="M110 258q30 143 101.5 209.5t199.5 66.5q45 0 101.5 -21.5t69.5 -24.5l-102 -487h-52l11 105q-16 -35 -79.5 -78.5t-133.5 -43.5q-93 0 -119.5 73.5t3.5 200.5zM174 258q-10 -47 -14 -81.5t-1.5 -71.5t21.5 -57t55 -20q85 0 149 64.5t78 131.5l47 223q-59 35 -114 35 t-95 -19t-64.5 -55t-37.5 -69.5t-24 -80.5zM241 625l131 129h39l75 -129h-43l-58 103l-101 -103h-43z" />
<glyph unicode="&#xe3;" horiz-adv-x="463" d="M110 258q30 143 101.5 209.5t199.5 66.5q45 0 101.5 -21.5t69.5 -24.5l-102 -487h-52l11 105q-16 -35 -79.5 -78.5t-133.5 -43.5q-93 0 -119.5 73.5t3.5 200.5zM174 258q-10 -47 -14 -81.5t-1.5 -71.5t21.5 -57t55 -20q85 0 149 64.5t78 131.5l47 223q-59 35 -114 35 t-95 -19t-64.5 -55t-37.5 -69.5t-24 -80.5zM233 662l8 43q20 20 62 20q26 0 75.5 -14t77.5 -14q41 0 65 10l-8 -38q-34 -23 -67 -23q-30 0 -78 13t-79 13q-30 0 -56 -10z" />
<glyph unicode="&#xe4;" horiz-adv-x="463" d="M110 258q30 143 101.5 209.5t199.5 66.5q45 0 101.5 -21.5t69.5 -24.5l-102 -487h-52l11 105q-16 -35 -79.5 -78.5t-133.5 -43.5q-93 0 -119.5 73.5t3.5 200.5zM174 258q-10 -47 -14 -81.5t-1.5 -71.5t21.5 -57t55 -20q85 0 149 64.5t78 131.5l47 223q-59 35 -114 35 t-95 -19t-64.5 -55t-37.5 -69.5t-24 -80.5zM220 609l21 98h83l-21 -98h-83zM417 609l21 98h84l-21 -98h-84z" />
<glyph unicode="&#xe5;" horiz-adv-x="463" d="M110 258q30 143 101.5 209.5t199.5 66.5q45 0 101.5 -21.5t69.5 -24.5l-102 -487h-52l11 105q-16 -35 -79.5 -78.5t-133.5 -43.5q-93 0 -119.5 73.5t3.5 200.5zM174 258q-10 -47 -14 -81.5t-1.5 -71.5t21.5 -57t55 -20q85 0 149 64.5t78 131.5l47 223q-59 35 -114 35 t-95 -19t-64.5 -55t-37.5 -69.5t-24 -80.5zM289 741q14 67 56.5 101.5t106.5 35.5q71 -1 96.5 -35t10.5 -102q-13 -62 -53.5 -98.5t-111.5 -36.5q-132 0 -105 135zM310 741q-5 -23 -5.5 -41.5t4 -31t10.5 -22.5t16 -15l17 -8.5t17.5 -5t15 -1.5h9.5h2q15 0 28.5 2.5t40 12.5 t47.5 38.5t30 71.5q4 20 4.5 37t-2.5 29t-9.5 22t-13.5 16t-16.5 10t-16.5 6t-16 3.5t-13.5 1.5h-9.5q-10 0 -19 -1t-29.5 -7.5t-35.5 -18.5t-31 -37.5t-24 -60.5z" />
<glyph unicode="&#xe6;" horiz-adv-x="826" d="M77 224h368q9 43 13.5 68.5t8 61t-3 56.5t-19.5 41.5t-39.5 30t-65.5 9.5q-38 0 -76 -16.5t-55 -29.5t-42 -36l-10 10l-9 9l-8.5 8.5l-7.5 7.5q96 88 217 88t180 -91q101 91 214 91q204 0 155 -240h-368q-9 -43 -13.5 -68t-8 -61t2.5 -56.5t19 -41.5t40 -30.5t66 -9.5 q93 0 170 82q9 -7 19 -18t17 -17q-88 -88 -215 -88q-119 0 -184 90q-100 -90 -210 -90q-205 0 -155 240zM127 183q-5 -23 0 -49.5t15 -49.5t36.5 -38.5t63.5 -15.5q79 0 124 45t61 108h-300zM545 333h302q4 34 -3.5 67t-36 59.5t-75.5 26.5q-142 0 -187 -153z" />
<glyph unicode="&#xe7;" horiz-adv-x="531" d="M111 261q30 145 111.5 206t215.5 61q94 0 157 -36l-12 -56q-73 48 -155 48q-43 0 -78 -9t-70 -31.5t-61.5 -68t-40.5 -112.5q-14 -58 -10 -99t15 -67.5t35 -41.5t51 -21t62 -6q87 0 184 43q-11 -43 -12 -60q-107 -29 -181 -29h-29l-32 -54q60 2 83 -19t14 -55 q-6 -31 -31 -49.5t-63 -21.5q-41 0 -65 6l4 21q19 -10 46 -10q12 0 25.5 3.5t28 16.5t18.5 34q14 62 -47 62q-24 0 -36 -1q2 1 3 2t2.5 2t3.5 3.5l4 5t6 8l8 11t11.5 15.5t14.5 20q-117 22 -161.5 90.5t-18.5 188.5z" />
<glyph unicode="&#xe8;" horiz-adv-x="521" d="M105 247q59 285 296 285q207 0 147 -269l-373 1q-11 -48 -15.5 -79.5t-2 -64.5t16.5 -52t43.5 -31t75.5 -12q97 0 170 81q35 -33 37 -35q-93 -87 -216 -87q-126 0 -165.5 67t-13.5 196zM191 305l308 1q12 74 -7 125q-23 55 -101 55q-82 0 -132 -51.5t-68 -129.5zM355 751 h78l26 -112h-42z" />
<glyph unicode="&#xe9;" horiz-adv-x="521" d="M105 247q59 285 296 285q207 0 147 -269l-373 1q-11 -48 -15.5 -79.5t-2 -64.5t16.5 -52t43.5 -31t75.5 -12q97 0 170 81q35 -33 37 -35q-93 -87 -216 -87q-126 0 -165.5 67t-13.5 196zM191 305l308 1q12 74 -7 125q-23 55 -101 55q-82 0 -132 -51.5t-68 -129.5zM311 614 l84 128h102l-125 -128h-61z" />
<glyph unicode="&#xea;" horiz-adv-x="521" d="M105 247q59 285 296 285q207 0 147 -269l-373 1q-11 -48 -15.5 -79.5t-2 -64.5t16.5 -52t43.5 -31t75.5 -12q97 0 170 81q35 -33 37 -35q-93 -87 -216 -87q-126 0 -165.5 67t-13.5 196zM191 305l308 1q12 74 -7 125q-23 55 -101 55q-82 0 -132 -51.5t-68 -129.5zM270 625 l131 129h39l75 -129h-43l-58 103l-101 -103h-43z" />
<glyph unicode="&#xeb;" horiz-adv-x="521" d="M105 247q59 285 296 285q207 0 147 -269l-373 1q-11 -48 -15.5 -79.5t-2 -64.5t16.5 -52t43.5 -31t75.5 -12q97 0 170 81q35 -33 37 -35q-93 -87 -216 -87q-126 0 -165.5 67t-13.5 196zM191 305l308 1q12 74 -7 125q-23 55 -101 55q-82 0 -132 -51.5t-68 -129.5zM249 609 l21 98h83l-21 -98h-83zM446 609l21 98h84l-21 -98h-84z" />
<glyph unicode="&#xec;" horiz-adv-x="241" d="M92 0l110 518h68l-110 -518h-68zM215 751h78l26 -112h-42z" />
<glyph unicode="&#xed;" horiz-adv-x="241" d="M92 0l110 518h68l-110 -518h-68zM174 614l84 128h102l-125 -128h-61z" />
<glyph unicode="&#xee;" horiz-adv-x="241" d="M92 0l110 518h68l-110 -518h-68zM131 625l131 129h39l75 -129h-43l-58 103l-101 -103h-43z" />
<glyph unicode="&#xef;" horiz-adv-x="241" d="M92 0l110 518h68l-110 -518h-68zM109 609l21 98h83l-21 -98h-83zM306 609l21 98h84l-21 -98h-84z" />
<glyph unicode="&#xf1;" horiz-adv-x="562" d="M82 0l110 518h59l-16 -103q29 47 97.5 82.5t129.5 35.5q74 0 105 -56t8 -164l-66 -313h-64l68 320q33 163 -92 163q-68 0 -129.5 -46t-73.5 -106l-70 -331h-66zM282 662l8 43q20 20 62 20q26 0 75.5 -14t77.5 -14q41 0 65 10l-8 -38q-34 -23 -67 -23q-30 0 -78 13t-79 13 q-30 0 -56 -10z" />
<glyph unicode="&#xf2;" horiz-adv-x="563" d="M104 261q30 137 98 204.5t194 67.5q246 0 188 -272q-29 -143 -95.5 -210.5t-198.5 -67.5q-66 0 -110.5 22.5t-63 61t-22.5 89t10 105.5zM173 261q-11 -53 -12 -93t8.5 -64.5t21.5 -40.5t32.5 -23t37 -9t39.5 -2q25 0 40 1.5t43.5 14t48 35t41.5 69t36 112.5 q10 46 11.5 82.5t-2.5 60t-16.5 40.5t-23.5 25t-30.5 12.5t-31 5t-30.5 0.5q-21 0 -31 -0.5t-32 -4.5t-35 -12t-32 -24t-32 -39.5t-27 -60.5t-24 -85zM376 751h78l26 -112h-42z" />
<glyph unicode="&#xf3;" horiz-adv-x="563" d="M104 261q30 137 98 204.5t194 67.5q246 0 188 -272q-29 -143 -95.5 -210.5t-198.5 -67.5q-66 0 -110.5 22.5t-63 61t-22.5 89t10 105.5zM173 261q-11 -53 -12 -93t8.5 -64.5t21.5 -40.5t32.5 -23t37 -9t39.5 -2q25 0 40 1.5t43.5 14t48 35t41.5 69t36 112.5 q10 46 11.5 82.5t-2.5 60t-16.5 40.5t-23.5 25t-30.5 12.5t-31 5t-30.5 0.5q-21 0 -31 -0.5t-32 -4.5t-35 -12t-32 -24t-32 -39.5t-27 -60.5t-24 -85zM332 614l84 128h102l-125 -128h-61z" />
<glyph unicode="&#xf4;" horiz-adv-x="563" d="M104 261q30 137 98 204.5t194 67.5q246 0 188 -272q-29 -143 -95.5 -210.5t-198.5 -67.5q-66 0 -110.5 22.5t-63 61t-22.5 89t10 105.5zM173 261q-11 -53 -12 -93t8.5 -64.5t21.5 -40.5t32.5 -23t37 -9t39.5 -2q25 0 40 1.5t43.5 14t48 35t41.5 69t36 112.5 q10 46 11.5 82.5t-2.5 60t-16.5 40.5t-23.5 25t-30.5 12.5t-31 5t-30.5 0.5q-21 0 -31 -0.5t-32 -4.5t-35 -12t-32 -24t-32 -39.5t-27 -60.5t-24 -85zM291 625l131 129h39l75 -129h-43l-58 103l-101 -103h-43z" />
<glyph unicode="&#xf5;" horiz-adv-x="563" d="M104 261q30 137 98 204.5t194 67.5q246 0 188 -272q-29 -143 -95.5 -210.5t-198.5 -67.5q-66 0 -110.5 22.5t-63 61t-22.5 89t10 105.5zM173 261q-11 -53 -12 -93t8.5 -64.5t21.5 -40.5t32.5 -23t37 -9t39.5 -2q25 0 40 1.5t43.5 14t48 35t41.5 69t36 112.5 q10 46 11.5 82.5t-2.5 60t-16.5 40.5t-23.5 25t-30.5 12.5t-31 5t-30.5 0.5q-21 0 -31 -0.5t-32 -4.5t-35 -12t-32 -24t-32 -39.5t-27 -60.5t-24 -85zM283 662l8 43q20 20 62 20q26 0 75.5 -14t77.5 -14q41 0 65 10l-8 -38q-34 -23 -67 -23q-30 0 -78 13t-79 13 q-30 0 -56 -10z" />
<glyph unicode="&#xf6;" horiz-adv-x="563" d="M104 261q30 137 98 204.5t194 67.5q246 0 188 -272q-29 -143 -95.5 -210.5t-198.5 -67.5q-66 0 -110.5 22.5t-63 61t-22.5 89t10 105.5zM173 261q-11 -53 -12 -93t8.5 -64.5t21.5 -40.5t32.5 -23t37 -9t39.5 -2q25 0 40 1.5t43.5 14t48 35t41.5 69t36 112.5 q10 46 11.5 82.5t-2.5 60t-16.5 40.5t-23.5 25t-30.5 12.5t-31 5t-30.5 0.5q-21 0 -31 -0.5t-32 -4.5t-35 -12t-32 -24t-32 -39.5t-27 -60.5t-24 -85zM270 609l21 98h83l-21 -98h-83zM467 609l21 98h84l-21 -98h-84z" />
<glyph unicode="&#xf8;" horiz-adv-x="565" d="M104 261q30 136 99.5 204t196.5 68q105 0 147 -41l24 26h11l-29 -32q37 -34 45.5 -100t-8.5 -125q-29 -142 -97 -210t-200 -68q-78 0 -129 29l-9 -12q-5 -5 -17 -20h-12l30 37q-32 22 -47.5 63.5t-14.5 87t10 93.5zM176 261q-24 -116 18 -199q92 112 315 381 q-5 7 -10.5 13t-10.5 10t-12 7.5t-11.5 5.5t-13.5 4t-12.5 2.5t-13 1t-12 0.5h-12.5h-11q-21 0 -31.5 -0.5t-32.5 -4.5t-35 -12t-32 -24t-32 -39.5t-27 -60.5t-24 -85zM198 56q35 -27 105 -27q25 0 40 1.5t43.5 14t48 35t41.5 69t36 112.5q24 133 1 175z" />
<glyph unicode="&#xf9;" horiz-adv-x="574" d="M119 197l69 321h68l-71 -330q-19 -77 -2 -118.5t80 -41.5q72 0 140 49t85 127l67 314h65l-110 -518h-60l17 108q-35 -60 -95 -92.5t-134 -32.5t-108 50.5t-11 163.5zM382 751h78l26 -112h-42z" />
<glyph unicode="&#xfa;" horiz-adv-x="574" d="M119 197l69 321h68l-71 -330q-19 -77 -2 -118.5t80 -41.5q72 0 140 49t85 127l67 314h65l-110 -518h-60l17 108q-35 -60 -95 -92.5t-134 -32.5t-108 50.5t-11 163.5zM337 614l84 128h102l-125 -128h-61z" />
<glyph unicode="&#xfb;" horiz-adv-x="574" d="M119 197l69 321h68l-71 -330q-19 -77 -2 -118.5t80 -41.5q72 0 140 49t85 127l67 314h65l-110 -518h-60l17 108q-35 -60 -95 -92.5t-134 -32.5t-108 50.5t-11 163.5zM296 625l131 129h39l75 -129h-43l-58 103l-101 -103h-43z" />
<glyph unicode="&#xfc;" horiz-adv-x="574" d="M119 197l69 321h68l-71 -330q-19 -77 -2 -118.5t80 -41.5q72 0 140 49t85 127l67 314h65l-110 -518h-60l17 108q-35 -60 -95 -92.5t-134 -32.5t-108 50.5t-11 163.5zM275 609l21 98h83l-21 -98h-83zM472 609l21 98h84l-21 -98h-84z" />
<glyph unicode="&#xfd;" horiz-adv-x="535" d="M140 518h68l83 -518l278 518h68l-417 -730h-58l83 160zM318 614l84 128h102l-125 -128h-61z" />
<glyph unicode="&#xff;" horiz-adv-x="535" d="M140 518h68l83 -518l278 518h68l-417 -730h-58l83 160zM256 609l21 98h83l-21 -98h-83zM453 609l21 98h84l-21 -98h-84z" />
<glyph unicode="&#x178;" horiz-adv-x="690" d="M180 715h73l166 -396l337 396h74l-384 -447l-57 -269h-72l57 269zM374 806l21 98h83l-21 -98h-83zM571 806l21 98h84l-21 -98h-84z" />
<glyph unicode="&#x2c6;" horiz-adv-x="240" d="M131 625l131 129h39l75 -129h-43l-58 103l-101 -103h-43z" />
<glyph unicode="&#x2dc;" horiz-adv-x="222" d="M123 662l8 43q20 20 62 20q26 0 75.5 -14t77.5 -14q41 0 65 10l-8 -38q-34 -23 -67 -23q-30 0 -78 13t-79 13q-30 0 -56 -10z" />
<glyph unicode="&#x2000;" horiz-adv-x="490" />
<glyph unicode="&#x2001;" horiz-adv-x="980" />
<glyph unicode="&#x2002;" horiz-adv-x="490" />
<glyph unicode="&#x2003;" horiz-adv-x="980" />
<glyph unicode="&#x2004;" horiz-adv-x="326" />
<glyph unicode="&#x2005;" horiz-adv-x="245" />
<glyph unicode="&#x2006;" horiz-adv-x="163" />
<glyph unicode="&#x2007;" horiz-adv-x="163" />
<glyph unicode="&#x2008;" horiz-adv-x="122" />
<glyph unicode="&#x2009;" horiz-adv-x="196" />
<glyph unicode="&#x200a;" horiz-adv-x="54" />
<glyph unicode="&#x2010;" horiz-adv-x="398" d="M120 253l11 51h280l-11 -51h-280z" />
<glyph unicode="&#x2011;" horiz-adv-x="398" d="M120 253l11 51h280l-11 -51h-280z" />
<glyph unicode="&#x2012;" horiz-adv-x="398" d="M120 253l11 51h280l-11 -51h-280z" />
<glyph unicode="&#x2013;" horiz-adv-x="500" d="M65 253l11 51h499l-11 -51h-499z" />
<glyph unicode="&#x2014;" horiz-adv-x="1000" d="M196 253l11 51h759l-11 -51h-759z" />
<glyph unicode="&#x2018;" horiz-adv-x="278" d="M195 448q1 53 12 100q35 158 146 173l-9 -39q-21 -2 -38 -12.5t-27 -22t-18.5 -34t-12.5 -37.5t-10 -43h62l-18 -85h-87z" />
<glyph unicode="&#x2019;" horiz-adv-x="278" d="M184 449l8 36q22 2 39 13t26.5 22t18.5 35.5t12 37.5t10 44h-60l18 85h87q-5 -65 -14 -102q-30 -150 -145 -171z" />
<glyph unicode="&#x201a;" horiz-adv-x="278" d="M52 -187l7 35q22 2 39.5 13.5t26.5 22t18.5 37t12 36.5t10.5 43h-60l17 84h87q-5 -69 -13 -99q-17 -83 -56.5 -124t-88.5 -48z" />
<glyph unicode="&#x201c;" horiz-adv-x="440" d="M178 448q1 54 11 100q34 152 147 173l-8 -38q-28 -4 -46.5 -16.5t-30.5 -37t-17 -42.5t-13 -54h62l-18 -85h-87zM385 448q7 73 14 100q34 152 145 173l-8 -38q-21 -3 -38 -13.5t-27 -22.5t-18.5 -33.5t-12.5 -37t-10 -43.5h60l-18 -85h-87z" />
<glyph unicode="&#x201d;" horiz-adv-x="444" d="M164 449l8 36q22 2 38.5 12.5t26.5 22.5t19 35.5t13 38t10 43.5h-60l18 85h87q-8 -77 -14 -102q-29 -148 -146 -171zM373 449l8 36q22 2 39 13t26.5 22t18.5 35.5t12 37.5t10 44h-62l18 85h88q0 -44 -13 -102q-30 -151 -145 -171z" />
<glyph unicode="&#x201e;" horiz-adv-x="487" d="M48 -187l7 35q22 2 39 13.5t26.5 22t18.5 37t11.5 36.5t10.5 43h-59l17 84h86q-3 -58 -12 -99q-17 -83 -56.5 -124t-88.5 -48zM275 -187l7 35q27 3 45.5 16t30 37t17 44t11.5 54q-8 0 -28 0.5t-30 0.5l17 84h87q-1 -56 -11 -99q-16 -84 -56.5 -124.5t-89.5 -47.5z" />
<glyph unicode="&#x2022;" horiz-adv-x="500" d="M78 364q0 75 53 128t128 53t128 -53t53 -128t-53 -128t-128 -53t-128 53t-53 128z" />
<glyph unicode="&#x2026;" horiz-adv-x="813" d="M92 -1l18 84h85l-18 -84h-85zM386 -1l18 84h85l-18 -84h-85zM680 -1l18 84h84l-18 -84h-84z" />
<glyph unicode="&#x202f;" horiz-adv-x="196" />
<glyph unicode="&#x2039;" horiz-adv-x="306" d="M139 262q-12 10 -8.5 21.5t16.5 18.5l195 121q-8 -39 -21 -45l-156 -96q97 -84 112 -93q14 -11 5 -49z" />
<glyph unicode="&#x203a;" horiz-adv-x="311" d="M104 140q10 39 27 49q142 87 150 93l-114 96q-11 6 -3 45l145 -121q11 -10 6.5 -22t-16.5 -18z" />
<glyph unicode="&#x205f;" horiz-adv-x="245" />
<glyph unicode="&#x20ac;" horiz-adv-x="615" d="M97 271l18 22h59q15 98 36 167h-73l18 21h61q116 288 349 288q74 0 188 -35l-14 -62q-104 53 -183 53q-24 0 -44.5 -3.5t-49.5 -18.5t-55 -39.5t-55.5 -71.5t-54.5 -111h251l-12 -21h-244q-26 -113 -32 -167h193q-5 -13 -10 -22h-187q2 -62 19 -107.5t35.5 -65.5 t45 -31.5t36.5 -12.5t21 -1q106 0 219 77l-15 -70q-100 -60 -215 -60q-103 0 -165.5 72t-66.5 199h-73z" />
<glyph unicode="&#xe000;" horiz-adv-x="520" d="M0 0v520h520v-520h-520z" />
</font>
</defs>
</svg>
