<?xml version="1.0" standalone="no"?>
<!DOCTYPE svg PUBLIC "-//W3C//DTD SVG 1.1//EN" "http://www.w3.org/Graphics/SVG/1.1/DTD/svg11.dtd" >
<svg xmlns="http://www.w3.org/2000/svg">
<metadata></metadata>
<defs>
<font id="sf_arch_rival_extendedBdIt" horiz-adv-x="1333" >
<font-face units-per-em="2048" ascent="1638" descent="-410" />
<missing-glyph horiz-adv-x="753" />
<glyph horiz-adv-x="2048" />
<glyph horiz-adv-x="2048" />
<glyph unicode="&#xd;" horiz-adv-x="1024" />
<glyph unicode=" "  horiz-adv-x="753" />
<glyph unicode="&#x09;" horiz-adv-x="753" />
<glyph unicode="&#xa0;" horiz-adv-x="753" />
<glyph unicode="!" horiz-adv-x="831" d="M765 756q-44 -101 -146 -300q-73 -125 -192 -125q-69 0 -110 40t-29 95q28 131 158 427q136 312 219 414q76 92 180 92q70 0 110 -40.5t28 -95.5q-16 -79 -96 -251zM278 -34q-63 0 -107 37.5t-33 92.5q11 52 68 111q69 68 146 68q71 0 121.5 -45.5t38.5 -103.5 q-14 -65 -83 -112.5t-151 -47.5z" />
<glyph unicode="&#x22;" horiz-adv-x="1311" d="M1190 939q-70 -94 -177 -94q-68 0 -115.5 38.5t-35.5 96.5q19 87 124 285q68 128 199 128q65 0 111.5 -37.5t34.5 -92.5q-39 -186 -141 -324zM621 843q-186 0 -97 420q13 58 72 97t133 39q71 0 113.5 -39t29.5 -97q-10 -48 -26 -144.5t-26 -143.5q-11 -55 -71.5 -93.5 t-127.5 -38.5z" />
<glyph unicode="#" horiz-adv-x="2075" d="M1735 1121h153q267 0 237 -141q-12 -57 -72 -98.5t-130 -41.5q-44 0 -119 1q-93 4 -119 4l-30 -137q182 4 208 4q75 0 114 -41t27 -99q-13 -58 -70 -98.5t-321 -40.5q-22 -151 -29 -182q-11 -55 -71 -95t-128 -40q-129 0 -145 116q-6 48 25 198q-157 -2 -244 -2 q-41 -158 -62 -196q-60 -116 -188 -116q-70 0 -113 41t-31 97q9 43 45 159q-189 -14 -225 -14q-68 0 -107 43.5t-27 96.5q22 104 180 135q55 10 258 10q14 55 32 125q-251 -19 -304 -19q-70 0 -108 43.5t-26 96.5q24 114 191 138q47 7 312 7q8 36 18 99q10 57 16 89 q12 56 73 96t130 40q178 0 115 -296q63 5 188 5q20 131 25 155q12 56 72 96t130 40q121 0 139 -100q8 -55 -19 -178zM1342 836q-122 -3 -208 -3l-28 -130q136 4 208 5z" />
<glyph unicode="$" horiz-adv-x="1589" d="M725 457q39 103 59 166q-425 102 -385 292q28 131 223 220q146 68 348 99q47 165 214 165q67 0 113 -38t35 -93q-3 -12 -6 -26q127 -20 224 -68q123 -63 107 -141q-13 -57 -76 -101.5t-134 -44.5q-29 0 -63 24q-27 19 -55 37t-82 23q-26 -87 -48 -147q379 -116 334 -332 q-57 -265 -559 -306q-34 -101 -71 -145q-60 -75 -169 -75q-86 0 -121 51q-28 43 -15 106q5 25 21 61q-118 4 -179 11q-102 8 -167 30q-114 41 -95 132q12 58 72 97t131 39q60 0 171.5 -18t170.5 -18h2zM811 928q10 -12 65 -20l11 39q-43 -10 -76 -19zM1074 459 q109 -8 115 19q6 31 -86 63z" />
<glyph unicode="%" horiz-adv-x="2408" d="M1741 -34q-183 0 -294 82q-123 90 -91 239q32 150 200.5 276t359.5 126q167 0 289 -95q127 -102 97 -239q-33 -159 -198 -274t-363 -115zM1842 416q-47 0 -90.5 -31.5t-52.5 -72.5q-8 -39 22 -68t78 -29q51 0 92 28t50 71q8 41 -22 71.5t-77 30.5zM2026 1227 q-57 -99 -265 -317q-87 -93 -256 -275q-151 -195 -473 -574q-87 -95 -179 -95q-68 0 -114 41t-34 97q16 77 681 838q98 113 294 336q107 121 216 121q70 0 113 -40t31 -96q-3 -17 -14 -36zM773 633q-181 0 -298 92q-129 98 -98 244q26 122 185 268q175 162 331 162 q215 0 339 -99q131 -105 94 -279q-34 -159 -194.5 -273.5t-358.5 -114.5zM880 1114q-126 0 -159 -153q-11 -53 100 -53q55 0 103 34t58 80q8 38 -23 65t-79 27z" />
<glyph unicode="&#x26;" horiz-adv-x="1309" d="M1192 870q-53 0 -150.5 18t-150.5 18q-92 0 -105 -58q-6 -29 88 -42q129 -21 167 -36q88 -38 70 -123q-29 -132 -273 -132q-26 0 -78.5 3t-78.5 3q-80 0 -89 -41q-6 -29 27 -45q60 -25 361 -25q71 0 112 -41t28 -99q-12 -58 -70 -97.5t-129 -39.5h-110q-26 -95 -50 -121 q-44 -46 -162 -46q-87 0 -121 53q-26 42 -12 106q3 18 11 42q-314 65 -271 268q31 145 217 246q-48 58 -33 128q25 118 165 213q120 82 275 121q71 256 257 256q70 0 112 -40.5t30 -97.5q-6 -30 -36 -94q232 -30 205 -155q-12 -56 -73 -99t-133 -43z" />
<glyph unicode="'" horiz-adv-x="821" d="M578 843q-184 0 -95 420q13 58 72 97t131 39q74 0 115 -39t28 -97q-10 -48 -26 -144.5t-26 -143.5q-11 -55 -71.5 -93.5t-127.5 -38.5z" />
<glyph unicode="(" horiz-adv-x="906" d="M919 1120q-53 -64 -122 -149q-116 -167 -173 -433q-28 -132 7 -401q4 -23 1 -36q-11 -55 -72.5 -95t-129.5 -40q-132 0 -157 239q-21 174 11 326q96 450 377 740q122 128 230 128q68 0 109.5 -39t29.5 -94q-4 -20 -111 -146z" />
<glyph unicode=")" horiz-adv-x="908" d="M529 94q-121 -128 -225 -128q-67 0 -112 39t-33 94q4 20 64 85q43 43 88 87q182 200 261 570q18 87 -10 338q-7 46 1 84q12 55 73.5 95.5t129.5 40.5q137 0 160 -233q16 -166 -18 -325q-96 -450 -379 -747z" />
<glyph unicode="*" horiz-adv-x="1625" d="M1376 382q-46 0 -104 36q-44 29 -88 60q-32 22 -93 61l-20 -94q-13 -59 -72 -96.5t-133 -37.5q-71 0 -113.5 38t-29.5 96q12 58 33 157q-66 -39 -201 -114q-70 -36 -123 -36q-70 0 -115.5 43t-33.5 99q19 89 348 253q-226 162 -208 244q12 56 75.5 98.5t133.5 42.5 q58 0 125 -46q12 -10 94 -80q15 109 27 164q11 54 74.5 91.5t126.5 37.5q121 0 141 -104q11 -56 -15 -182q221 106 290 106q71 0 114.5 -40.5t31.5 -96.5q-21 -97 -284 -208q-13 -4 -116 -46q104 -58 291 -190q65 -54 51 -119q-12 -56 -75 -96.5t-132 -40.5z" />
<glyph unicode="+" horiz-adv-x="1353" d="M583 377q-139 -7 -239 -7q-72 0 -112 39.5t-27 97.5q12 58 68 99t130 41h227q12 145 17 167q12 55 75 94t128 39q117 0 139 -100q14 -57 -12 -178q101 3 176 3q120 0 169 -22q75 -32 56 -121q-12 -60 -68.5 -97.5t-129.5 -37.5q-16 0 -43.5 2t-41.5 2h-158q-6 -33 -9 -46 q-38 -180 -210 -180q-111 0 -135 67q-20 44 0 138z" />
<glyph unicode="," horiz-adv-x="782" d="M272 -246q-70 0 -111 43.5t-29 98.5q6 31 44 72q29 32 60 64q40 76 80 149q55 80 174 80q74 0 114.5 -38.5t28.5 -96.5q-22 -104 -125 -227q-120 -145 -236 -145z" />
<glyph unicode="-" horiz-adv-x="1444" d="M1113 428q-82 0 -247 -7.5t-247 -7.5q-285 0 -254 145q11 53 67.5 95.5t125.5 42.5q27 0 79.5 -2.5t79.5 -2.5q75 0 227.5 8t227.5 8t113.5 -41t26.5 -99q-13 -58 -70 -98.5t-129 -40.5z" />
<glyph unicode="." horiz-adv-x="802" d="M384 -34q-77 0 -134 44.5t-44 108.5q13 62 99.5 115.5t161.5 53.5q87 0 126 -51q30 -44 16 -109t-78 -113.5t-147 -48.5z" />
<glyph unicode="/" horiz-adv-x="930" d="M420 56q-79 -90 -176 -90q-63 0 -107 34q-50 36 -38 92q11 55 119 241q309 532 529 894q105 172 233 172q68 0 108 -41.5t28 -94.5q-10 -50 -328.5 -599.5t-367.5 -607.5z" />
<glyph unicode="0" horiz-adv-x="1720" d="M773 -34q-294 0 -403 210q-87 169 -36 406q55 261 245 503q245 314 553 314q332 0 480 -191q134 -172 78 -438q-59 -275 -299 -519q-280 -285 -618 -285zM1059 1128q-144 -51 -260 -234q-94 -148 -129 -312q-27 -125 1 -218q39 -128 169 -128q137 0 315 196 q165 181 194 317q33 156 -38 261q-78 118 -252 118z" />
<glyph unicode="1" horiz-adv-x="968" d="M812 529q-58 -121 -84 -244q-50 -177 -90 -227q-66 -92 -181 -92q-70 0 -109 39t-27 96q2 8 12 29q59 133 97 314q-30 -145 67 315q36 166 58 270q-66 -25 -105 -25q-68 0 -109 39t-29 94q13 61 102 114q68 38 197 89q154 59 213 59q74 0 116 -35.5t29 -97.5 q10 46 -157 -737z" />
<glyph unicode="2" horiz-adv-x="1577" d="M1316 804q-100 -79 -299 -203q-217 -135 -306 -200q-138 -101 -148 -145q-4 -20 72 -20q101 0 469 51q81 12 143 12q68 0 104.5 -43t25.5 -94q-18 -87 -136 -121q-44 -12 -205 -31q-114 -13 -229 -29q-135 -15 -229 -15q-423 0 -368 261q33 154 292 352q81 63 467 312 q253 164 267 229q2 10 -44 10q-104 0 -299 -67q-58 -88 -171 -88q-71 0 -112.5 37.5t-28.5 96.5q28 132 281 219q206 71 392 71q161 0 253 -58q108 -70 80 -201q-32 -150 -271 -336z" />
<glyph unicode="3" horiz-adv-x="1594" d="M1273 683q184 -135 141 -338q-39 -186 -270 -292q-188 -87 -421 -87q-160 0 -312 49q-196 67 -172 176q11 55 67.5 95t124.5 40q37 0 133.5 -44.5t195.5 -44.5q294 0 315 98q20 93 -112 150q-111 36 -224 73q-94 33 -76 118q17 83 117 119q95 22 189.5 43.5t181.5 76.5 q99 58 111 114q10 50 -74 79q-64 22 -139 22q-70 0 -199.5 -27.5t-176.5 -27.5q-68 0 -110 41t-30 96q20 94 246 147q170 40 322 40q227 0 370 -92q164 -104 125 -288q-43 -202 -323 -336z" />
<glyph unicode="4" horiz-adv-x="1558" d="M1333 374q-9 -46 -23.5 -140t-24.5 -140q-12 -55 -71.5 -91.5t-124.5 -36.5q-186 0 -131 261q13 58 34 159q-168 -82 -354 -82q-448 0 -352 455q18 81 74.5 238.5t73.5 238.5q12 56 71 93.5t127 37.5q70 0 111 -37.5t29 -93.5q-16 -75 -72 -230.5t-73 -235.5 q-43 -200 85 -200q223 0 345 242q38 75 100 367q75 220 246 220t136 -167q-31 -143 -103 -429t-103 -429z" />
<glyph unicode="5" horiz-adv-x="1625" d="M512 -34q-302 0 -271 148q15 69 119 101q73 24 169 24q34 0 101 -2.5t101 -2.5q386 0 418 150q24 116 -427 116q-177 0 -204 292q-19 201 25 408q23 107 258 147q331 52 720 52q66 0 103 -41.5t26 -91.5q-20 -95 -160 -129q-63 -14 -234 -14q-261 -24 -393 -39 q-24 -190 0 -306q32 2 64 2q246 0 407 -91q195 -109 154 -305q-89 -418 -976 -418z" />
<glyph unicode="6" horiz-adv-x="1556" d="M775 -34q-289 0 -408 159q-107 141 -59 370q83 389 467 785q116 119 213 119q67 0 112 -37.5t34 -93.5q-8 -36 -276 -348q48 3 97 3q274 0 446 -124q189 -137 142 -357q-44 -205 -286 -345q-230 -131 -482 -131zM916 655q-103 0 -230 -30q-34 -87 -44 -135 q-54 -253 198 -253q115 0 233.5 64t135.5 144q18 86 -78 151q-94 59 -215 59z" />
<glyph unicode="7" horiz-adv-x="1481" d="M1350 748q-129 -137 -329 -354q-84 -99 -162 -228q-64 -108 -85 -130q-61 -70 -153 -70q-67 0 -115.5 36.5t-35.5 94.5q3 14 15 36q180 316 499 657q71 70 141 140q117 120 121 140q12 55 -130 67h-203q-51 0 -152 -3.5t-152 -3.5q-75 0 -127 29q-62 36 -48 104 q11 51 66 93.5t123 42.5q39 0 119.5 -3t242.5 -3q688 0 629 -277q-22 -106 -264 -368z" />
<glyph unicode="8" horiz-adv-x="1536" d="M723 -34q-235 0 -347 131q-111 125 -71 314q46 217 263 340q-114 116 -80 276q37 171 174 271.5t352 100.5q211 0 342 -109q138 -114 102 -283q-35 -166 -214 -268q228 -150 181 -372q-41 -195 -265 -306q-194 -95 -437 -95zM971 1132q-124 0 -152 -130q-8 -39 28 -64 t98 -25q66 0 117.5 27.5t60.5 71.5q11 51 -34.5 85.5t-117.5 34.5zM860 568q-68 0 -135.5 -51t-80.5 -111q-13 -61 26.5 -115t103.5 -54q256 0 292 167q12 57 -58 110.5t-148 53.5z" />
<glyph unicode="9" horiz-adv-x="1403" d="M1134 333q-68 -179 -91 -222q-87 -145 -214 -145q-63 0 -105 36q-47 37 -35 90q21 101 164 374q-24 -2 -47 -2q-251 0 -407 97q-176 113 -133 316q41 193 320 362q266 160 508 160q210 0 277 -151q49 -111 12 -282q-26 -126 -112 -317q-120 -267 -137 -316zM998 1137 q-119 0 -240.5 -88t-141.5 -185q-27 -125 184 -125q81 0 184 19q46 124 73 249q14 65 11 87q-9 43 -70 43z" />
<glyph unicode=":" horiz-adv-x="823" d="M524 563q-75 0 -127 42t-39 105q14 65 61 113q62 58 152 58q77 0 136.5 -44.5t46.5 -109.5q-14 -63 -81 -113.5t-149 -50.5zM423 -34q-77 0 -133 44.5t-43 108.5q13 62 98.5 115.5t160.5 53.5q87 0 126 -51q32 -44 18 -109t-78.5 -113.5t-148.5 -48.5z" />
<glyph unicode=";" horiz-adv-x="800" d="M562 575q-76 0 -128 34q-55 40 -41 108q13 60 82 115t147 55q84 0 129 -58q42 -51 29 -114q-13 -61 -78.5 -100.5t-139.5 -39.5zM276 -246q-70 0 -111.5 43.5t-29.5 98.5q6 31 42 72l62 64q38 76 79 149q56 80 176 80q71 0 112.5 -38.5t29.5 -96.5q-22 -104 -125 -227 q-121 -145 -235 -145z" />
<glyph unicode="&#x3c;" horiz-adv-x="1176" d="M954 785q-80 -39 -213 -102q-64 -34 -155 -86q51 -42 162 -97q123 -63 165 -92q71 -50 59 -109q-12 -55 -71.5 -101t-131.5 -46q-32 0 -80 20q-180 77 -312 173q-192 140 -168 252q25 118 199 220q152 76 302 149q66 44 194 109q30 12 68 12q71 0 116 -38.5t32 -96.5 q-17 -82 -166 -167z" />
<glyph unicode="=" horiz-adv-x="1529" d="M1253 596q-119 0 -360.5 -12t-360.5 -12q-74 0 -113.5 39t-27.5 97q13 58 69 98.5t130 40.5q119 0 360.5 11.5t360.5 11.5q72 0 111.5 -39t27.5 -97t-68.5 -98t-128.5 -40zM1151 237q-24 -3 -244 -3q-53 -9 -199 -19q-121 -8 -193 -8q-203 0 -175 131q22 102 160 140 q80 22 239 22q85 3 235 3q256 11 229 11q70 0 113.5 -40.5t31.5 -96.5q-25 -116 -197 -140z" />
<glyph unicode="&#x3e;" horiz-adv-x="1183" d="M991 367q-113 -56 -334 -176q-78 -46 -134 -46q-72 0 -115 43.5t-31 99.5q13 62 131 135q55 31 217 111q114 57 118 77q5 24 -135 73q-112 40 -199 96q-125 82 -110 152q12 56 72 97t130 41q49 0 119 -37q53 -29 103 -60q138 -67 273 -135q147 -96 119 -225 q-27 -128 -224 -246z" />
<glyph unicode="?" horiz-adv-x="1649" d="M1216 724l-242 -70q-159 -55 -206 -116q-22 -29 -31 -74q-12 -54 -72.5 -88.5t-121.5 -34.5q-169 0 -132 171q40 191 308 317q15 7 320 106q249 82 256 115q18 85 -262 85q-80 0 -221.5 -24t-186.5 -24q-66 0 -96 51q-25 41 -16 86q21 99 227 145q139 30 303 30 q256 0 425 -63q227 -87 189 -266q-28 -136 -166 -227q-94 -63 -275 -119zM404 -34q-75 0 -119 45t-32 103q14 65 91.5 121.5t159.5 56.5q84 0 123 -58q33 -51 20 -111q-14 -67 -88 -112t-155 -45z" />
<glyph unicode="@" horiz-adv-x="2135" d="M1564 246q-229 0 -286 167q-88 -39 -175 -39q-148 0 -233.5 90.5t-60.5 206.5q32 152 211.5 286t372.5 134q102 0 187 -52q100 -58 81 -146q-4 -19 -16 -38q50 -43 33 -119q-7 -33 -36.5 -98t-36.5 -97q-10 -46 36 -46q60 0 94 101q3 13 30 138q85 399 -370 399 q-198 0 -439 -152t-273 -305q-93 -437 378 -437q28 0 82 7t82 7q68 0 112 -36t32 -94q-19 -89 -140 -133q-67 -24 -246 -24q-347 0 -530 188q-182 182 -123 459q68 317 406 551.5t733 234.5q340 0 525 -179t128 -450q-40 -185 -167 -333q-162 -191 -391 -191zM1315 824 q-56 0 -111.5 -52.5t-68.5 -114.5q-4 -15 34 -15q47 0 110 49q55 45 90 104q-33 29 -54 29z" />
<glyph unicode="A" horiz-adv-x="1408" d="M1087 -34q-85 0 -113 48q-11 15 -27 102q-43 208 -386 275q-32 -70 -88 -214q-31 -98 -66 -139q-57 -72 -165 -72q-72 0 -109.5 42.5t-25.5 99.5q2 10 6 25q142 374 258 577q169 295 435 536q169 153 344 153q384 0 245 -655q-6 -29 -20 -90q-13 -60 -19 -89 q-17 -79 -32.5 -234t-31.5 -232q-12 -58 -74.5 -95.5t-130.5 -37.5zM1085 874q7 97 10 126q7 84 -9 121q5 4 5 5q-35 0 -191 -177q-123 -135 -211 -294q185 -35 325 -114z" />
<glyph unicode="B" horiz-adv-x="1372" d="M1117 621q160 -126 126 -285q-28 -136 -165 -227q-101 -68 -274 -107q-152 -36 -287 -36q-393 0 -332 288q21 99 87 246q109 239 110 242q22 58 133 410q-66 43 -51 113q28 134 253 134q850 0 762 -414q-49 -234 -362 -364zM847 1123q-52 -169 -114 -343q383 75 408 196 q23 108 -294 147zM611 490q-74 -157 -92 -241q-2 -7 -3 -12q22 -3 43 -3q93 0 190 20q128 28 157 82q-25 104 -295 154z" />
<glyph unicode="C" horiz-adv-x="1285" d="M1134 148q-100 -69 -279 -125.5t-301 -56.5q-223 0 -319 150q-82 128 -44 306q33 155 124.5 336t208.5 319q270 322 555 322q355 0 266 -419q-46 -219 -220 -219q-65 0 -108.5 37.5t-32.5 90.5q5 26 20.5 76t32.5 108q8 26 9 40q-1 20 -15 20q-128 0 -330 -316 q-139 -218 -175 -390q-40 -185 129 -185q77 0 229 77t205 77q68 0 111 -40t31 -95q-11 -54 -97 -113z" />
<glyph unicode="D" horiz-adv-x="1487" d="M408 -34q-140 0 -187 95q-34 72 -11 178q15 73 101 360q52 178 171 533q-91 35 -74 117q23 104 164 135q68 15 240 15q366 0 581 -150q242 -167 180 -457q-57 -271 -439 -546q-387 -280 -726 -280zM545 246q213 49 434 212t252 310q22 101 3 162q-31 91 -156 143 q-110 47 -263 47q-54 -130 -116 -342q-59 -189 -154 -532z" />
<glyph unicode="E" horiz-adv-x="1381" d="M1362 1123q-29 0 -85.5 3.5t-84.5 3.5q-140 0 -294 -22q-35 -81 -106 -212q221 63 327 63q68 0 110.5 -36.5t30.5 -93.5q-17 -80 -122 -122q-39 -16 -191 -50q-81 -19 -325 -82q-84 -164 -110 -288q0 1 -18 -31q-11 -22 1 -22q116 0 327 90.5t288 90.5q69 0 110.5 -39.5 t30.5 -93.5q-13 -60 -104 -113q-111 -67 -335 -133q-230 -70 -353 -70q-183 0 -252 99q-64 87 -34 229q39 180 194 460q193 349 236 454q26 69 41 84q25 27 105 55q152 52 553 52q284 0 254 -141q-11 -55 -68.5 -95t-125.5 -40z" />
<glyph unicode="F" horiz-adv-x="1300" d="M1250 1132h-82q-238 0 -324 -43q-101 -50 -137 -219q-14 -34 -28 -100q330 104 435 104q74 0 112 -44.5t26 -99.5q-16 -78 -139 -119q-37 -14 -194 -51q-108 -28 -321 -86q-20 -95 -41 -192q-29 -111 -71 -190q-65 -126 -191 -126q-68 0 -110 40t-31 95q31 145 104 382 q90 294 109 382q19 62 34 125q23 72 55 121q132 191 377 253q143 35 447 35q189 0 161 -133q-11 -54 -66 -94t-125 -40z" />
<glyph unicode="G" d="M701 -34q-177 0 -310 102q-116 91 -157 226q-39 126 -4 290q96 452 475 698q183 117 353 117q116 0 213 -54.5t138 -134.5q19 -34 13 -63q-12 -55 -70.5 -97.5t-128.5 -42.5q-64 0 -116.5 60.5t-91.5 60.5q-162 0 -301 -210q-110 -164 -144 -324q-29 -140 10 -239 q49 -119 182 -119q114 0 179 81q-26 43 -103 43q-8 0 -25 -2h-20q-67 0 -105.5 42t-27.5 93q16 74 99 108q60 27 142 27q171 0 288 -84q126 -92 96 -232q-30 -143 -229 -249q-181 -97 -355 -97z" />
<glyph unicode="H" horiz-adv-x="1507" d="M1394 469q-23 -66 -101 -314q-63 -189 -220 -189q-68 0 -110 41t-30 95q21 98 146 453q-182 -17 -457 -69q-47 -148 -82 -310q-66 -210 -231 -210q-69 0 -111.5 40t-31.5 95q32 146 104 375q100 318 116 376q45 153 84 339q44 208 220 208q71 0 111 -37.5t29 -93.5 q-20 -92 -107 -500q262 51 447 63q32 94 85 280q32 138 58 183q59 105 182 105q68 0 109.5 -39t29.5 -94q-45 -210 -240 -797z" />
<glyph unicode="I" horiz-adv-x="1053" d="M749 251q64 -5 103 -38q42 -37 31 -92q-20 -92 -128 -124q-38 -12 -197 -31q-30 -4 -133 -22q-89 -17 -124 -17q-68 0 -103 42.5t-25 93.5q24 111 229 147q42 278 65 386q41 196 136 522q-31 -4 -57 -4q-68 0 -111.5 38t-31.5 94q33 155 387 155q155 0 212 -3 q246 -17 219 -144q-12 -54 -70 -94t-126 -40q-34 0 -81 5q-103 -362 -132 -500q-26 -120 -63 -374z" />
<glyph unicode="J" horiz-adv-x="1268" d="M994 99q-148 -133 -349 -133q-147 0 -295.5 72.5t-208.5 171.5q-32 53 -23 94q12 56 73 92t126 36q58 0 118 -46q47 -40 91 -79q89 -73 154 -73q164 0 286 577q40 187 23 295q-126 -34 -223 -34q-69 0 -107 38.5t-26 92.5q13 63 63 94q31 21 117 41q247 61 346 61 q136 0 162 -242q18 -174 -15 -331q-118 -551 -312 -727z" />
<glyph unicode="K" horiz-adv-x="1423" d="M775 986q500 425 592 425q68 0 109 -40t29 -94q-20 -94 -342 -329t-340 -318q-20 -92 110 -198q122 -86 247 -173q132 -95 117 -163q-12 -57 -74.5 -98t-130.5 -41q-75 0 -253 135q-120 89 -191 161q-43 41 -73 78q-21 -87 -90 -254q-59 -111 -192 -111q-71 0 -108 41.5 t-25 96.5q29 135 107 359q100 288 121 360q30 97 85 291q31 135 58 181q58 104 181 104q68 0 109.5 -39t29.5 -94q-21 -97 -76 -280z" />
<glyph unicode="L" horiz-adv-x="1236" d="M1204 254q-145 -97 -360 -184q-252 -104 -397 -104q-311 0 -235 360q15 68 81 258q81 230 125 437q50 192 66 232q67 146 206 146q68 0 110 -39t30 -94q5 21 -99 -338q-26 -100 -86 -302q-97 -295 -106 -339q-6 -29 -5 -45q1 -6 -8 -6q87 0 479 211q98 53 151 53 q68 0 111.5 -41t31.5 -95q-11 -53 -95 -110z" />
<glyph unicode="M" horiz-adv-x="1920" d="M1626 -34q-106 0 -135 73q-16 38 -12 144q4 99 -25 474q-156 -292 -238 -480q-45 -98 -80 -138q-61 -73 -158 -73q-87 0 -127 54q-22 35 -35 115q-40 264 -60 556q-156 -309 -237 -508q-43 -103 -78 -144q-64 -73 -166 -73q-70 0 -108 41.5t-26 94.5q13 62 184 415 q132 270 209 415q56 107 177 322q84 145 221 145q97 0 128 -73q15 -41 15 -140q-3 -234 25 -548q100 200 172 325q52 85 154 257q48 87 81 120q61 59 149 59q112 0 135 -88q10 -43 -4 -162q-13 -87 -3 -255q13 -199 29 -397q20 -316 4 -395q-12 -54 -65.5 -95t-125.5 -41z " />
<glyph unicode="N" horiz-adv-x="1616" d="M1466 288q-88 -131 -203 -216q-150 -111 -312 -111q-317 0 -386 392q-19 -71 -34 -143q-52 -244 -236 -244q-70 0 -109.5 37.5t-27.5 93.5q55 261 190 620q162 430 302 592q79 90 176 90q137 0 145 -131q3 -36 -35 -213q-40 -261 -47 -463q-13 -365 111 -365 q99 0 187 167q60 118 85 237q23 108 17.5 318t16.5 314q12 55 66.5 95.5t124.5 40.5q140 0 158 -157q4 -30 -13 -245q-24 -331 -33 -369q-38 -183 -143 -340z" />
<glyph unicode="O" horiz-adv-x="1613" d="M718 -34q-288 0 -415 201q-108 173 -59 403q62 292 257 527q252 301 602 301q326 0 477 -169q144 -161 89 -422q-61 -283 -312 -541q-294 -300 -639 -300zM1007 1126q-140 0 -284 -228q-114 -181 -145 -328q-47 -222 95 -304q48 -29 96 -29q182 0 367 212 q161 186 199 365q66 312 -328 312z" />
<glyph unicode="P" horiz-adv-x="1422" d="M622 423q-3 -10 -84 -278q-53 -179 -210 -179q-69 0 -110 40t-30 95q40 186 138 513q111 366 143 514q-61 44 -46 116q23 108 228 140q91 15 305 15q269 0 450 -78q240 -106 196 -316q-48 -222 -392 -392q-265 -133 -588 -190zM841 1128h-33q-39 -179 -108 -421 q527 122 566 303q25 118 -425 118z" />
<glyph unicode="Q" horiz-adv-x="1609" d="M1084 43q43 -139 34 -181q-12 -55 -72 -94t-124 -39q-144 0 -180 237h-8q-312 -2 -447 213q-115 186 -62 435q57 272 263 502q254 283 586 283q339 0 495 -232q140 -203 82 -476q-42 -196 -188 -368q-153 -181 -379 -280zM1153 1094q-67 39 -124 39q-155 0 -307 -193 q-129 -165 -164 -329q-21 -96 8 -186q28 -97 101 -149l-1 7q-18 70 -11 101q11 55 71 94t126 39q140 0 177 -208q235 140 287 382q26 123 -16 229q-41 113 -147 174z" />
<glyph unicode="R" horiz-adv-x="1510" d="M1030 323q194 -130 174 -222q-12 -57 -72.5 -93.5t-127.5 -36.5q-46 0 -102 36q-83 65 -272 177l-5 -25q-40 -193 -214 -193q-68 0 -109.5 37.5t-29.5 93.5q24 113 97 376q57 203 143 607h13q-68 0 -108.5 39.5t-28.5 93.5q20 96 209 149q139 37 284 37q343 0 544 -158 q208 -169 149 -444q-68 -321 -544 -474zM880 1128q-38 -153 -165 -614q485 106 523 288q23 104 -99 205q-115 96 -259 121z" />
<glyph unicode="S" horiz-adv-x="1432" d="M1342 983q-71 0 -143 72.5t-167 72.5q-208 0 -222 -65q-11 -53 137 -189q212 -193 275 -273q138 -181 104 -340q-31 -147 -199 -227q-141 -68 -320 -68q-130 0 -323 31q-230 37 -296 86.5t-52 114.5q12 55 67 94t123 39q19 0 66 -10l1 2l8 -4q76 -20 207 -51.5t287 -31.5 q87 0 96 40q19 91 -129 231q-135 128 -272 254q-143 161 -113 302q34 159 240 255q177 81 372 81q153 0 271 -51q134 -58 171 -167q12 -34 5 -67q-12 -54 -69 -92.5t-125 -38.5z" />
<glyph unicode="T" horiz-adv-x="1423" d="M1373 1145h-248q-28 -135 -101 -478q-83 -309 -118 -472q-48 -229 -227 -229q-70 0 -109.5 37.5t-27.5 93.5q13 65 57 272q97 327 149 571q13 64 37 174q-223 -17 -327 -17q-70 0 -108 37t-26 93q24 113 201 142q23 3 281 3q87 12 313 29q194 16 308 16q227 0 197 -140 q-28 -132 -251 -132z" />
<glyph unicode="U" horiz-adv-x="1519" d="M734 -34q-347 0 -434 290q-56 198 8 502q94 442 187 549q78 92 181 92q70 0 109 -41.5t27 -96.5q-5 -24 -66 -169q-54 -117 -102 -344q-109 -514 152 -514q293 0 437 681q13 58 24.5 172t24.5 173q11 54 65 96.5t126 42.5q143 0 153 -148q4 -63 -33 -236 q-223 -1049 -859 -1049z" />
<glyph unicode="V" horiz-adv-x="1437" d="M1550 1121q-46 -56 -110 -138q-271 -333 -583 -835q-110 -182 -244 -182q-118 0 -153 201q0 19 -13 282q-7 143 -39 392q-35 277 -42 391q-4 17 -1 29q11 53 67 95.5t126 42.5q101 0 143 -92q33 -71 36 -184q0 -97 3 -195q3 -71 39 -367q161 217 473 656q59 87 97 121 q69 61 155 61q66 0 109.5 -38t32.5 -93q-9 -39 -96 -147z" />
<glyph unicode="W" horiz-adv-x="1968" d="M1921 889q-105 -150 -262 -380q-77 -122 -223 -364q-108 -179 -242 -179q-105 0 -141 89q-17 44 -20 158q1 43 -8 234q-72 -130 -183 -324q-48 -80 -84 -113q-59 -54 -146 -54q-97 0 -127 75q-15 36 -19 138q-4 196 -35 532q-34 381 -43 531q1 19 3 31q12 55 67.5 95.5 t125.5 40.5q153 0 153 -157q-3 -20 -5 -56.5t20 -272.5q6 -70 20 -290q161 299 247 502q41 97 73 136q60 72 154 72q117 0 141 -82q12 -43 -5 -155q-33 -203 -22 -504l377 601q59 94 98 133q73 73 160 73q68 0 110 -40t31 -94q-19 -87 -215 -376z" />
<glyph unicode="X" horiz-adv-x="1384" d="M1272 937q-100 -94 -251 -236q18 -44 164 -353q85 -186 72 -251q-12 -56 -67 -93.5t-125 -37.5q-140 0 -306 450q-80 -95 -241 -285q-120 -133 -230 -133q-71 0 -109 38.5t-26 96.5q16 74 491 580q-170 459 -148 560q11 56 78 94q59 32 122 32q94 0 136 -87 q22 -44 87 -314q309 333 446 333q68 0 110.5 -41.5t31.5 -96.5q-10 -43 -235 -256z" />
<glyph unicode="Y" horiz-adv-x="1538" d="M993 31q-138 -65 -278 -65q-68 0 -113.5 36t-33.5 94q24 109 207 143q24 3 71 15q200 58 323 362q-189 -143 -404 -143q-568 0 -404 773q13 63 61 104q54 49 140 49q134 0 139 -138q-14 -140 -29 -280q-15 -170 78 -222q33 -18 57 -18q35 0 92 24q109 42 210 165 q86 103 140 224q48 107 74 140q59 71 162 71q136 0 148 -148q6 -74 -28 -234q-73 -343 -165 -517q-149 -294 -447 -435z" />
<glyph unicode="Z" horiz-adv-x="1562" d="M698 -34q-150 0 -274 53q-157 65 -134 172q31 147 270 352q99 85 431 326q231 167 242 218q9 41 -79 48q12 -2 -131 -2q-65 0 -201.5 -6.5t-202.5 -6.5q-251 0 -222 138q30 138 284 138q51 0 151 1.5t151 1.5q254 0 418 -51q237 -75 201 -244q-21 -95 -157 -223 q-90 -86 -286 -231q-234 -172 -257 -191q-160 -124 -231 -212q42 -6 85 -6q99 0 239 18q122 17 239 35q62 6 112 6q66 0 102.5 -41t25.5 -92q-22 -104 -347 -162q-226 -39 -429 -39z" />
<glyph unicode="[" horiz-adv-x="1068" d="M647 -34h-157q-284 0 -254 142q30 141 113 385q93 278 116 386q3 -2 45 194q25 117 51 178q23 51 50.5 76t91.5 45q86 27 232 27q69 0 111.5 -36.5t30.5 -92.5q-26 -121 -210 -144q-131 -537 -252 -892h31q221 0 192 -135q-12 -56 -66.5 -94.5t-124.5 -38.5z" />
<glyph unicode="\" horiz-adv-x="1000" d="M754 -34q-94 0 -142 94q-19 39 -47 158q-24 134 -79 396q-49 168 -98 335q-69 246 -54 317q12 55 68.5 94t124.5 39q91 0 131 -63q19 -30 40 -123q66 -266 199 -797q63 -274 54 -317q-12 -55 -71 -94t-126 -39z" />
<glyph unicode="]" horiz-adv-x="1068" d="M887 490q-2 2 -49 -219q-23 -104 -43 -155q-40 -90 -144 -123q-88 -27 -235 -27q-68 0 -111.5 36t-31.5 94q26 121 215 145q129 542 249 889h-86q-71 0 -109 41t-27 95q12 57 67 95t266 38q299 0 269 -143q-30 -140 -110 -382q-97 -275 -120 -384z" />
<glyph unicode="^" horiz-adv-x="1307" d="M1053 411q-106 0 -144 91q-17 41 -27 162q-8 84 -29 251q-65 -113 -127 -224q-91 -147 -154 -201q-78 -65 -159 -65q-72 0 -113 39t-29 96q11 51 241.5 392.5t281.5 383.5q75 63 153 63q87 0 137 -63q69 -92 116 -360q31 -196 57 -392q4 -29 1 -43q-12 -58 -75 -94 t-130 -36z" />
<glyph unicode="_" horiz-adv-x="1427" d="M285 -34l43 205h838l-43 -205h-838z" />
<glyph unicode="`" horiz-adv-x="811" d="M789 1417q-77 0 -134 64q-43 45 -94 134q-63 104 -55 141q13 58 81 97q61 36 129 36q77 0 125 -59q164 -200 150 -270q-12 -55 -70.5 -99t-131.5 -44z" />
<glyph unicode="a" horiz-adv-x="1440" d="M1099 -34q-85 0 -113 48q-11 15 -27 102q-43 208 -386 275q-32 -70 -88 -214q-31 -98 -66 -139q-57 -72 -165 -72q-72 0 -109.5 42.5t-25.5 99.5q2 10 6 25q142 374 258 577q169 295 435 536q168 153 344 153q384 0 245 -655q-6 -29 -20 -90q-13 -60 -19 -89 q-17 -79 -32.5 -234t-31.5 -232q-12 -58 -74.5 -95.5t-130.5 -37.5zM1097 874q7 97 10 126q7 84 -9 121q5 4 5 5q-35 0 -191 -177q-123 -135 -212 -294q186 -35 326 -114z" />
<glyph unicode="b" horiz-adv-x="1406" d="M1136 621q160 -126 126 -285q-28 -136 -164 -227q-103 -68 -275 -107q-152 -36 -287 -36q-393 0 -332 288q21 99 86 246q109 239 110 242q23 58 135 410q-66 43 -51 113q28 134 252 134q851 0 763 -414q-49 -234 -363 -364zM865 1123q-51 -169 -114 -343q383 75 408 196 q23 108 -294 147zM630 490q-73 -157 -91 -241q-2 -7 -3 -12q21 -3 43 -3q94 0 188 20q131 28 159 82q-26 104 -296 154z" />
<glyph unicode="c" horiz-adv-x="1312" d="M1147 148q-99 -69 -278.5 -125.5t-300.5 -56.5q-225 0 -321 150q-81 128 -43 306q33 155 124.5 336t207.5 319q271 322 555 322q356 0 267 -419q-46 -219 -220 -219q-65 0 -108 37.5t-32 90.5q5 26 20 76t33 108q7 26 9 40q-2 20 -17 20q-128 0 -328 -316 q-139 -218 -175 -390q-40 -185 129 -185q77 0 228 77t206 77q68 0 111 -40t31 -95q-11 -54 -98 -113z" />
<glyph unicode="d" horiz-adv-x="1521" d="M430 -34q-142 0 -188 95q-33 72 -10 178q15 73 102 360q49 178 168 533q-88 35 -71 117q23 104 163 135q67 15 239 15q365 0 581 -150q243 -167 181 -457q-57 -271 -439 -546q-388 -280 -726 -280zM567 246q211 49 432.5 212t252.5 310q22 101 2 162q-28 91 -154 143 q-109 47 -263 47q-54 -130 -251 -803q-7 -23 -19 -71z" />
<glyph unicode="e" horiz-adv-x="1406" d="M1376 1123q-29 0 -86 3.5t-84 3.5q-140 0 -294 -22q-35 -81 -106 -212q221 63 326 63q69 0 111 -36.5t30 -93.5q-17 -80 -121 -122q-39 -16 -191 -50q-81 -19 -325 -82q-85 -164 -111 -288q0 1 -17 -31q-11 -22 1 -22q116 0 327 90.5t288 90.5q68 0 110 -39.5t31 -93.5 q-13 -60 -104 -113q-112 -67 -336 -133q-230 -70 -352 -70q-183 0 -252 99q-64 87 -34 229q39 180 193 460q194 349 237 454q26 69 40 84q26 27 105 55q153 52 554 52q283 0 253 -141q-11 -55 -68 -95t-125 -40z" />
<glyph unicode="f" horiz-adv-x="1329" d="M1263 1132h-80q-237 0 -324 -43q-102 -50 -138 -219q-12 -34 -26 -100q329 104 435 104q73 0 111.5 -44.5t26.5 -99.5q-16 -78 -141 -119q-37 -14 -192 -51q-109 -28 -324 -86q-20 -95 -41 -192q-27 -111 -69 -190q-66 -126 -191 -126q-68 0 -110 40t-31 95 q31 145 103 382q91 294 110 382q18 62 35 125q21 72 55 121q131 191 376 253q144 35 446 35q191 0 163 -133q-11 -54 -66.5 -94t-127.5 -40z" />
<glyph unicode="g" horiz-adv-x="1353" d="M710 -34q-176 0 -309 102q-116 91 -156 226q-40 126 -5 290q96 452 474 698q184 117 354 117q115 0 212.5 -54.5t137.5 -134.5q18 -34 12 -63q-12 -55 -69.5 -97.5t-127.5 -42.5q-65 0 -117 60.5t-93 60.5q-162 0 -301 -210q-110 -164 -144 -324q-29 -140 12 -239 q47 -119 182 -119q113 0 179 81q-26 43 -103 43q-8 0 -24 -2h-23q-65 0 -104.5 42t-28.5 93q16 74 100 108q61 27 142 27q170 0 288 -84q125 -92 95 -232q-30 -143 -227 -249q-180 -97 -356 -97z" />
<glyph unicode="h" horiz-adv-x="1534" d="M1406 469q-23 -66 -102 -314q-60 -189 -219 -189q-68 0 -110 41t-30 95q20 96 146 453q-182 -17 -457 -69q-45 -148 -80 -310q-68 -210 -232 -210q-68 0 -110.5 40t-31.5 95q32 146 102 375q100 318 117 376q44 153 83 339q44 208 221 208q70 0 110 -37.5t29 -93.5 q-20 -92 -107 -500q263 51 447 63q32 94 85 280q32 138 58 183q61 105 182 105q68 0 110.5 -39t30.5 -94q-45 -210 -242 -797z" />
<glyph unicode="i" horiz-adv-x="672" d="M591 509q-54 -173 -84 -316q-48 -227 -226 -227q-68 0 -110 40t-31 95q34 160 108 392q60 196 123 393q26 99 54 196q32 114 80 195q70 122 190 122q68 0 110.5 -39t30.5 -94q-31 -148 -113 -379q-117 -324 -132 -378z" />
<glyph unicode="j" horiz-adv-x="1285" d="M997 99q-147 -133 -347 -133q-148 0 -296.5 72.5t-209.5 171.5q-32 53 -23 94q12 56 73.5 92t127.5 36q57 0 118 -46q45 -40 89 -79q89 -73 154 -73q164 0 286 577q40 187 25 295q-126 -34 -225 -34q-68 0 -106 38.5t-26 92.5q13 63 62 94q33 21 117 41q249 61 346 61 q137 0 163 -242q19 -174 -14 -331q-118 -551 -314 -727z" />
<glyph unicode="k" horiz-adv-x="1444" d="M785 986q500 425 592 425q68 0 108 -40t28 -94q-20 -94 -340.5 -329t-338.5 -318q-20 -92 108 -198q124 -86 248 -173q130 -95 115 -163q-12 -57 -73.5 -98t-129.5 -41q-75 0 -253 135q-120 89 -193 161q-43 41 -71 78q-21 -87 -89 -254q-59 -111 -192 -111 q-72 0 -109 41.5t-25 96.5q29 135 107 359q100 288 122 360q29 97 82 291q33 135 60 181q58 104 179 104q69 0 111 -39t30 -94q-21 -97 -76 -280z" />
<glyph unicode="l" horiz-adv-x="1251" d="M1216 254q-144 -97 -358 -184q-252 -104 -397 -104q-313 0 -237 360q15 68 81 258q81 230 125 437q50 192 66 232q67 146 205 146q69 0 111 -39t30 -94q5 21 -99 -338q-26 -100 -86 -302q-97 -295 -106 -339q-6 -29 -5 -45q1 -6 -8 -6q87 0 479 211q98 53 151 53 q68 0 112.5 -41t32.5 -95q-11 -53 -97 -110z" />
<glyph unicode="m" horiz-adv-x="1937" d="M1635 -34q-108 0 -137 73q-16 38 -12 144q4 99 -25 474q-156 -292 -239 -480q-44 -98 -79 -138q-61 -73 -157 -73q-88 0 -129 54q-21 35 -34 115q-40 264 -58 556q-158 -309 -240 -508q-42 -103 -77 -144q-64 -73 -167 -73q-70 0 -107.5 41.5t-25.5 94.5q13 62 184 415 q132 270 211 415q53 107 175 322q86 145 222 145q96 0 127 -73q15 -41 16 -140q-4 -234 24 -548q100 200 171 325q53 85 155 257q48 87 81 120q61 59 148 59q115 0 136 -88q11 -43 -4 -162q-12 -87 -3 -255q12 -199 28 -397q23 -316 7 -395q-12 -54 -66.5 -95t-124.5 -41z " />
<glyph unicode="n" horiz-adv-x="1637" d="M1478 288q-88 -131 -205 -216q-148 -111 -310 -111q-319 0 -386 392q-20 -71 -35 -143q-52 -244 -235 -244q-72 0 -111.5 37.5t-27.5 93.5q55 261 191 620q161 430 303 592q79 90 174 90q137 0 146 -131q4 -36 -34 -213q-42 -261 -47 -463q-15 -365 111 -365 q98 0 185 167q62 118 87 237q23 108 17.5 318t16.5 314q12 55 66.5 95.5t124.5 40.5q138 0 156 -157q4 -30 -11 -245q-25 -331 -34 -369q-38 -183 -142 -340z" />
<glyph unicode="o" horiz-adv-x="1626" d="M725 -34q-288 0 -415 201q-108 173 -59 403q62 292 257 527q252 301 601 301q326 0 478 -169q144 -161 89 -422q-61 -283 -312 -541q-294 -300 -639 -300zM1014 1126q-140 0 -284 -228q-114 -181 -145 -328q-47 -222 95 -304q48 -29 95 -29q183 0 368 212 q161 186 199 365q66 312 -328 312z" />
<glyph unicode="p" horiz-adv-x="1430" d="M628 423q-4 -10 -85 -278q-52 -179 -210 -179q-69 0 -109 40t-29 95q40 186 137 513q112 366 144 514q-61 44 -46 116q23 108 228 140q90 15 303 15q271 0 452 -78q239 -106 195 -316q-48 -222 -391 -392q-265 -133 -589 -190zM846 1128h-31q-41 -179 -110 -421 q527 122 566 303q25 118 -425 118z" />
<glyph unicode="q" horiz-adv-x="1620" d="M1088 43q44 -139 35 -181q-12 -55 -71.5 -94t-126.5 -39q-143 0 -179 237h-9q-310 -2 -445 213q-117 186 -64 435q57 272 265 502q255 283 584 283q340 0 495 -232q142 -203 84 -476q-42 -196 -188 -368q-155 -181 -380 -280zM1156 1094q-67 39 -121 39q-156 0 -308 -193 q-129 -165 -164 -329q-21 -96 7 -186q29 -97 102 -149l-3 7q-15 70 -8 101q11 55 70.5 94t124.5 39q141 0 176 -208q235 140 287 382q26 123 -14 229q-42 113 -149 174z" />
<glyph unicode="r" horiz-adv-x="1524" d="M1038 323q194 -130 174 -222q-12 -57 -73 -93.5t-128 -36.5q-46 0 -100 36q-85 65 -275 177l-5 -25q-39 -193 -213 -193q-68 0 -109.5 37.5t-29.5 93.5q24 113 97 376q56 203 142 607h16q-68 0 -109.5 39.5t-29.5 93.5q20 96 209 149q138 37 284 37q344 0 543 -158 q210 -169 151 -444q-68 -321 -544 -474zM887 1128q-38 -153 -165 -614q485 106 523 288q23 104 -99 205q-113 96 -259 121z" />
<glyph unicode="s" horiz-adv-x="1440" d="M1346 983q-72 0 -143.5 72.5t-167.5 72.5q-208 0 -222 -65q-11 -53 138 -189q211 -193 274 -273q139 -181 105 -340q-31 -147 -200 -227q-140 -68 -320 -68q-129 0 -323 31q-229 37 -295.5 86.5t-52.5 114.5q12 55 67 94t123 39q19 0 67 -10l1 2l7 -4q76 -20 207.5 -51.5 t286.5 -31.5q87 0 96 40q19 91 -128 231q-135 128 -272 254q-144 161 -114 302q34 159 240 255q178 81 372 81q154 0 272 -51q134 -58 170 -167q12 -34 5 -67q-12 -54 -68.5 -92.5t-124.5 -38.5z" />
<glyph unicode="t" horiz-adv-x="1428" d="M1375 1145h-248q-28 -135 -101 -478q-83 -309 -118 -472q-48 -229 -227 -229q-70 0 -110 37.5t-28 93.5q13 65 57 272q98 327 150 571q13 64 37 174q-221 -17 -327 -17q-70 0 -108 37t-26 93q24 113 201 142q23 3 280 3q88 12 314 29q195 16 308 16q229 0 199 -140 q-28 -132 -253 -132z" />
<glyph unicode="u" horiz-adv-x="1526" d="M739 -34q-348 0 -434 290q-58 198 6 502q94 442 187 549q79 92 181 92q70 0 110.5 -41.5t28.5 -96.5q-5 -24 -69 -169q-52 -117 -100 -344q-109 -514 150 -514q295 0 439 681q13 58 24.5 172t24.5 173q11 54 64.5 96.5t126.5 42.5q142 0 152 -148q4 -63 -33 -236 q-223 -1049 -858 -1049z" />
<glyph unicode="v" horiz-adv-x="1444" d="M1556 1121q-47 -56 -113 -138q-269 -333 -581 -835q-111 -182 -244 -182q-118 0 -153 201q-2 19 -15 282q-5 143 -37 392q-35 277 -43 391q-4 17 -1 29q11 53 67 95.5t127 42.5q99 0 143 -92q31 -71 34 -186q2 -95 5 -193q4 -71 38 -367q162 217 473 656q59 87 98 121 q68 61 153 61q67 0 110 -38t32 -93q-9 -39 -93 -147z" />
<glyph unicode="w" horiz-adv-x="1971" d="M1923 889q-105 -150 -262 -380q-77 -122 -224 -364q-108 -179 -241 -179q-106 0 -141 89q-17 44 -20 158q0 43 -8 234q-73 -130 -184 -324q-47 -80 -83 -113q-59 -54 -146 -54q-96 0 -127 75q-16 36 -19 138q-6 196 -36 532q-33 381 -42 531q1 19 3 31q12 55 67 95.5 t125 40.5q154 0 153 -157q-2 -20 -4 -56.5t20 -272.5q5 -70 20 -290q161 299 247 502q41 97 73 136q59 72 153 72q118 0 142 -82q11 -43 -6 -155q-32 -203 -21 -504l377 601q59 94 98 133q73 73 160 73q68 0 110 -40t31 -94q-19 -87 -215 -376z" />
<glyph unicode="x" horiz-adv-x="1386" d="M1272 937q-100 -94 -253 -236q20 -44 164 -353q87 -186 74 -251q-12 -56 -67 -93.5t-125 -37.5q-142 0 -306 450q-80 -95 -241 -285q-120 -133 -230 -133q-71 0 -109 38.5t-26 96.5q16 74 491 580q-170 459 -148 560q11 56 77 94q60 32 123 32q94 0 136 -87 q22 -44 87 -314q309 333 446 333q68 0 110.5 -41.5t31.5 -96.5q-10 -43 -235 -256z" />
<glyph unicode="y" horiz-adv-x="1539" d="M993 31q-136 -65 -278 -65q-68 0 -112.5 36t-32.5 94q24 109 206 143q23 3 72 15q199 58 321 362q-187 -143 -402 -143q-569 0 -405 773q13 63 62 104q54 49 139 49q135 0 140 -138q-16 -140 -30 -280q-13 -170 79 -222q32 -18 56 -18q36 0 92 24q110 42 211 165 q85 103 138 224q48 107 76 140q59 71 161 71q137 0 149 -148q4 -74 -30 -234q-73 -343 -163 -517q-149 -294 -449 -435z" />
<glyph unicode="z" horiz-adv-x="1664" d="M746 -34q-152 0 -276 53q-157 65 -134 172q31 147 271 352q99 85 431 326q232 167 243 218q9 41 -81 48q14 -2 -130 -2q-66 0 -201.5 -6.5t-202.5 -6.5q-252 0 -223 138q30 138 284 138q51 0 152 1.5t152 1.5q252 0 418 -51q235 -75 199 -244q-21 -95 -155 -223 q-92 -86 -287 -231q-232 -170 -258 -191q-158 -124 -229 -212q42 -6 85 -6q97 0 237 18q122 17 241 35q62 6 110 6q66 0 103.5 -41t26.5 -92q-22 -104 -349 -162q-224 -39 -427 -39z" />
<glyph unicode="{" horiz-adv-x="1311" d="M475 459q-120 14 -172 36q-86 37 -69 118q28 131 342 169q-83 172 -61 278q38 176 272 268q182 71 404 71q70 0 109 -38t27 -95q-21 -97 -148 -128q-112 -13 -224 -29q-100 -18 -106 -47q-10 -47 47 -159.5t40 -192.5q-15 -68 -89 -108q49 -42 33 -117q-11 -50 -78 -99 q-85 -65 -100 -84q32 -31 136 -53q121 -25 153 -41q70 -34 54 -107q-11 -55 -70.5 -95t-128.5 -40q-198 0 -346 82q-175 97 -141 259q18 82 116 152z" />
<glyph unicode="|" horiz-adv-x="841" d="M382 -34q-172 0 105 1302q16 56 72.5 93.5t126.5 37.5q72 0 111.5 -37.5t28.5 -93.5q-35 -164 -107.5 -492.5t-107.5 -492.5q-6 -30 -17 -92.5t-17 -93.5q-12 -56 -67.5 -93.5t-127.5 -37.5z" />
<glyph unicode="}" horiz-adv-x="1312" d="M1126 903q266 -36 240 -159q-28 -133 -338 -164q82 -162 59 -268q-37 -177 -271 -269q-183 -74 -405 -74q-72 0 -109.5 40t-24.5 97q16 78 93 111q53 22 162 29.5t142 18.5q71 25 78 61q10 44 -46.5 148.5t-41.5 174.5q14 66 89 107q-46 50 -31 118q20 97 162 193 q-23 29 -123 49q-121 22 -153 39q-73 35 -57 110q11 54 69.5 94t127.5 40q201 0 348 -83q175 -99 140 -261q-18 -87 -110 -152z" />
<glyph unicode="~" horiz-adv-x="1778" d="M1062 227q-133 0 -172 84q-21 42 -29 170q-1 77 -34 77q-75 0 -131 -80q-49 -74 -97 -149q-63 -80 -162 -80q-77 0 -118.5 40t-28.5 102q33 155 207 293q185 147 381 147q188 0 248 -121q16 -27 11 -82q-6 -44 -10 -87q-4 -73 49 -73q90 0 135 88q21 40 43 145 q32 152 184 152q73 0 116.5 -39t30.5 -97q-49 -234 -177 -350q-154 -140 -446 -140z" />
<glyph unicode="&#xa1;" horiz-adv-x="828" d="M727 920q-70 0 -120.5 45t-38.5 103q14 65 82 113t150 48q63 0 108 -37.5t34 -92.5q-12 -53 -70 -111q-68 -68 -145 -68zM413 -113q-76 -92 -181 -92q-69 0 -108 41t-27 96q11 53 218 507q42 100 144 300q75 125 194 125q69 0 108.5 -40.5t28.5 -94.5q-28 -132 -158 -427 q-136 -312 -219 -415z" />
<glyph unicode="&#xa2;" horiz-adv-x="1536" d="M1423 739q-121 0 -140 109q-10 51 -11 55q-12 22 -57 27q-109 -249 -212 -474q126 3 270 24q10 1 20 1q70 0 115 -38.5t33 -96.5q-20 -93 -147 -132.5t-426 -39.5q-56 -113 -73 -135q-58 -73 -159 -73q-70 0 -116 37q-52 40 -39 99q9 45 53 127q-329 112 -265 411 q43 201 249 364q203 157 460 199q72 196 235 196q76 0 113.5 -42.5t25.5 -98.5q-5 -26 -25 -63q248 -69 280 -280q4 -24 1 -41q-11 -50 -64.5 -92.5t-120.5 -42.5zM607 628q-15 -72 61 -123q107 222 176 382q-203 -99 -237 -259z" />
<glyph unicode="&#xa3;" horiz-adv-x="1920" d="M1560 -22q-90 0 -268 -6t-268 -6q-347 0 -476 51q-107 43 -89 128q14 67 82 106q6 5 125 53q65 29 72 65q12 56 -2 138q-128 0 -177 3q-98 4 -172 19q-155 29 -132 138q9 45 54 89q54 51 121 51q10 0 35 -3q105 -19 224 -19q-14 96 0 160q43 204 201 325q168 129 421 129 q133 0 237 -34q138 -42 171 -129q14 -36 8 -65q-12 -58 -78 -100t-136 -42q-26 0 -111 46t-159 46q-70 0 -131 -48.5t-75 -111.5q-14 -65 7 -176q430 2 408 2q74 0 113 -39.5t27 -97.5t-68 -98t-130 -40h-300q2 -77 -12 -143q-14 -70 -53 -127q32 -1 65 -1q87 0 262.5 7.5 t262.5 7.5q75 0 113.5 -41t26.5 -99q-13 -58 -70 -98t-129 -40z" />
<glyph unicode="&#xa4;" horiz-adv-x="1958" d="M1728 889q35 -101 12 -210t-111 -201q43 -53 87 -108q52 -75 42 -123q-13 -58 -75 -95.5t-132 -37.5q-76 0 -139 67q-21 20 -85 118q-138 -45 -283 -45q-133 0 -237 43q-112 -94 -179 -145q-88 -65 -163 -65q-70 0 -111 43.5t-29 98.5q17 83 273 264q-48 111 -20 241 q24 111 88 196q-161 149 -145 224q12 54 71 98.5t131 44.5q67 0 132 -61l94 -104q122 42 258 42q193 0 335 -77q198 147 299 147q72 0 113 -41t29 -97q-10 -48 -71 -91.5t-184 -125.5zM1137 896q-177 0 -211 -164q-43 -200 211 -200q87 0 164.5 47t91.5 112 q18 84 -62.5 144.5t-193.5 60.5z" />
<glyph unicode="&#xa5;" horiz-adv-x="1673" d="M1418 659q58 -41 43 -111q-12 -58 -69 -98t-129 -40h-198l-19 -89q121 7 167 7q70 0 114.5 -40.5t32.5 -96.5q-22 -102 -172 -135q-76 -15 -252 -15q-66 -75 -166 -75q-89 0 -127 63q-91 -9 -118 -9q-204 0 -176 132q32 148 329 148q12 50 25 89q-92 -3 -162 -3 q-73 0 -112.5 39t-27.5 97q18 87 117 123q-119 123 -63 386q39 184 91 268q60 100 203 100q70 0 110.5 -41.5t28.5 -96.5q-9 -44 -39 -134.5t-39 -134.5q-23 -106 16 -155t160 -49q162 0 243 88q64 69 97 225q6 27 15.5 79t15.5 80q11 54 64.5 96.5t126.5 42.5 q145 0 170 -90q16 -63 -16 -213q-60 -282 -284 -437z" />
<glyph unicode="&#xa6;" horiz-adv-x="847" d="M555 683q-185 0 -62 580q13 60 72.5 98t132.5 38q72 0 113.5 -39t28.5 -97q-53 -251 -61 -292q-4 -19 -9 -75q-5 -46 -11 -73q-12 -57 -73 -98.5t-131 -41.5zM415 -34q-72 0 -115.5 37.5t44.5 452.5q12 59 72 97.5t132 38.5q73 0 113 -39t-48 -452q-12 -58 -68.5 -96.5 t-129.5 -38.5z" />
<glyph unicode="&#xa8;" horiz-adv-x="1384" d="M1264 1434q-77 0 -136 41q-68 46 -54 112q14 62 100 115.5t160 53.5q89 0 125 -51q32 -44 18 -109q-13 -63 -67 -109q-61 -53 -146 -53zM728 1417q-71 17 -126.5 50t-42.5 96q14 65 65 111q60 58 148 58q77 0 137 -44t47 -109q-14 -63 -81 -112.5t-147 -49.5z" />
<glyph unicode="&#xa9;" horiz-adv-x="2243" d="M1119 -34q-384 0 -609 184q-237 195 -172 500q61 285 380.5 517t675.5 232q417 0 632 -254q206 -239 135 -573q-61 -285 -390 -456q-293 -150 -652 -150zM1345 1132q-208 0 -423 -160t-252 -330q-40 -190 119 -304q147 -104 401 -104q213 0 398 89q204 99 236 252 q43 202 -96 376q-144 181 -383 181zM1232 305q-196 0 -315 77q-134 87 -100 248q36 170 223 291.5t401 121.5q227 0 197 -140q-29 -135 -171 -135q-9 0 -25 3.5t-24 3.5q-96 0 -173 -43t-91 -112q-10 -48 103 -48q72 0 117 8q20 4 35 4q68 0 111.5 -38.5t31.5 -94.5 q-31 -146 -320 -146z" />
<glyph unicode="&#xab;" horiz-adv-x="1988" d="M1771 744q-78 -39 -212 -102q-66 -34 -154 -86q51 -42 159 -97q124 -63 168 -92q72 -48 59 -109q-12 -55 -71 -101t-131 -46q-32 0 -81 20q-181 76 -313 161q-202 133 -181 232q23 106 208 229q83 56 306 172q25 14 142 82q66 39 120 39q70 0 116 -38.5t34 -96.5 q-18 -82 -169 -167zM1024 785q-80 -39 -213 -102q-67 -34 -155 -86q51 -42 162 -97q123 -61 165 -92q71 -50 59 -109q-12 -55 -71.5 -101t-131.5 -46q-32 0 -80 20q-179 75 -312 173q-192 140 -168 252q25 118 199 220q151 74 302 149q65 43 194 109q30 12 68 12 q71 0 116 -38.5t32 -96.5q-17 -82 -166 -167z" />
<glyph unicode="&#xad;" horiz-adv-x="1444" d="M1113 428q-82 0 -247 -7.5t-247 -7.5q-285 0 -254 145q11 53 67.5 95.5t125.5 42.5q27 0 79.5 -2.5t79.5 -2.5q75 0 227.5 8t227.5 8t113.5 -41t26.5 -99q-13 -58 -70 -98.5t-129 -40.5z" />
<glyph unicode="&#xae;" horiz-adv-x="2173" d="M1124 -27q-365 0 -601.5 212.5t-175.5 503.5q60 279 307 485q269 225 614 225q422 0 658 -180q260 -195 188 -530q-62 -293 -337 -500q-286 -216 -653 -216zM1095 1106q92 15 164 15q186 0 294 -66q132 -79 100 -231q-32 -153 -239 -252l9 -4q182 -73 190 -160 q133 126 167 287q38 179 -113.5 307t-383.5 128q-99 0 -188 -24zM810 367q0 14 3 27q8 39 30 118t30 118q12 58 39 184q-110 19 -114 106q-89 -106 -117 -239q-39 -181 129 -314zM1349 258q-52 27 -138 75q-26 13 -73 34q-43 -80 -119 -104q88 -24 181 -24q76 0 149 19z M1275 865h-18l-14 -82q69 28 76 60q5 22 -44 22z" />
<glyph unicode="&#xaf;" horiz-adv-x="1326" d="M1203 1423q-85 0 -254.5 -3t-254.5 -3q-72 0 -115 40t-31 96q31 147 714 147q74 0 114.5 -39.5t27.5 -97.5q-12 -58 -69.5 -99t-131.5 -41z" />
<glyph unicode="&#xb0;" horiz-adv-x="1338" d="M829 712q-180 0 -305 97q-134 102 -103 249q29 135 184 238t320 103q201 0 328 -93q138 -103 103 -265q-31 -147 -194 -242q-153 -87 -333 -87zM874 1125q-29 0 -65 -22.5t-41 -42.5q-19 -89 104 -89q44 0 87.5 20.5t48.5 44.5q8 39 -30.5 64t-103.5 25z" />
<glyph unicode="&#xb1;" horiz-adv-x="1493" d="M701 584q-139 -7 -240 -7q-73 0 -113 39t-27 97q12 58 67.5 99t130.5 41h225q14 145 19 168q11 54 74 93.5t130 39.5q118 0 139 -101q14 -56 -12 -177q100 3 175 3q119 0 171 -22q73 -33 54 -121q-12 -60 -68 -97.5t-131 -37.5q-15 0 -42.5 1.5t-42.5 1.5h-157 q-4 -32 -7 -46q-38 -179 -211 -179q-111 0 -136 66q-18 45 2 139zM1166 -15q-119 0 -357.5 -9.5t-358.5 -9.5q-286 0 -255 145q11 53 68.5 95.5t125.5 42.5q28 0 79.5 -2.5t78.5 -2.5q114 0 339.5 9.5t338.5 9.5q75 0 113 -41t26 -99t-68.5 -98t-129.5 -40z" />
<glyph unicode="&#xb4;" horiz-adv-x="824" d="M769 1481q-87 -64 -159 -64q-73 0 -114 43.5t-29 99.5q7 37 143 153q121 105 184.5 142.5t122.5 37.5q70 0 114 -38.5t32 -96.5q-10 -46 -67.5 -97.5t-226.5 -179.5z" />
<glyph unicode="&#xb6;" horiz-adv-x="1789" d="M1658 1132q-51 -198 -135 -591q85 -34 67 -119q-21 -99 -140 -132q-65 -263 -86 -360q-50 -234 -228 -234q-68 0 -109 41t-29 96q0 1 58 276q33 74 58 191q-52 7 -103 16l-81 -381q-51 -210 -229 -210q-70 0 -110 36t-28 94q7 32 54 254q32 91 71 277q-465 141 -407 414 q63 297 553 466q385 133 782 133q256 0 226 -141q-24 -115 -184 -126zM1190 1094q-39 -167 -110 -502q58 -10 98 -15q45 177 122 536q-53 -7 -110 -19zM627 823q-16 -77 131 -147q42 171 71 307q-186 -84 -202 -160z" />
<glyph unicode="&#xb7;" horiz-adv-x="806" d="M490 457q-77 0 -134 44.5t-43 109.5q13 61 99.5 115t161.5 54q87 0 125 -51q30 -45 17 -109q-14 -65 -78.5 -114t-147.5 -49z" />
<glyph unicode="&#xbb;" horiz-adv-x="1988" d="M1302 172q-58 -20 -91 -20q-73 0 -111.5 46t-26.5 101q16 76 222 165q101 39 288 133q-66 52 -119 86q-175 107 -177 111q-103 80 -87 158q13 58 74 96.5t131 38.5q57 0 107 -39q33 -27 104 -82q119 -75 241 -149q130 -102 105 -220q-24 -112 -276 -252 q-174 -98 -384 -173zM535 131q-57 -20 -89 -20q-72 0 -112 46t-28 101q16 77 223 165q75 31 147 62q85 36 142 71q-66 52 -119 86q-177 109 -179 111q-102 80 -85 158q12 58 72.5 96.5t132.5 38.5q55 0 105 -39q35 -27 106 -82q174 -116 234 -172q133 -123 110 -229 q-21 -99 -280 -232q-168 -85 -380 -161z" />
<glyph unicode="&#xbf;" horiz-adv-x="1659" d="M1404 903q-84 0 -123 58q-33 51 -20 111q14 66 92 114q70 43 152 43q75 0 118.5 -45.5t31.5 -103.5q-14 -65 -91 -121t-160 -56zM866 -205q-256 0 -427 63q-227 87 -188 267q35 167 233 266q84 42 379 128q222 65 277 138q21 29 30 73q12 55 73 89t122 34q169 0 133 -170 q-40 -191 -309 -318q-14 -7 -318 -106q-251 -82 -258 -114q-18 -85 262 -85q82 0 223.5 24t185.5 24q67 0 95 -52q25 -41 16 -85q-21 -99 -227 -145q-139 -31 -302 -31z" />
<glyph unicode="&#xc0;" d="M107 0zM1087 -34q-85 0 -113 48q-11 15 -27 102q-43 208 -386 275q-32 -70 -88 -214q-31 -98 -66 -139q-57 -72 -165 -72q-72 0 -109.5 42.5t-25.5 99.5q2 10 6 25q142 374 258 577q169 295 435 536q169 153 344 153q384 0 245 -655q-6 -29 -20 -90q-13 -60 -19 -89 q-17 -79 -32.5 -234t-31.5 -232q-12 -58 -74.5 -95.5t-130.5 -37.5zM1085 874q7 97 10 126q7 84 -9 121q5 4 5 5q-35 0 -191 -177q-123 -135 -211 -294q185 -35 325 -114zM1303 1417q-77 0 -134 64q-43 45 -94 134q-63 104 -55 141q13 58 81 97q61 36 129 36q77 0 125 -59 q164 -200 150 -270q-12 -55 -70.5 -99t-131.5 -44z" />
<glyph unicode="&#xc1;" d="M107 0zM1087 -34q-85 0 -113 48q-11 15 -27 102q-43 208 -386 275q-32 -70 -88 -214q-31 -98 -66 -139q-57 -72 -165 -72q-72 0 -109.5 42.5t-25.5 99.5q2 10 6 25q142 374 258 577q169 295 435 536q169 153 344 153q384 0 245 -655q-6 -29 -20 -90q-13 -60 -19 -89 q-17 -79 -32.5 -234t-31.5 -232q-12 -58 -74.5 -95.5t-130.5 -37.5zM1085 874q7 97 10 126q7 84 -9 121q5 4 5 5q-35 0 -191 -177q-123 -135 -211 -294q185 -35 325 -114zM1498 1481q-87 -64 -159 -64q-73 0 -114 43.5t-29 99.5q7 37 143 153q121 105 184.5 142.5 t122.5 37.5q70 0 114 -38.5t32 -96.5q-10 -46 -67.5 -97.5t-226.5 -179.5z" />
<glyph unicode="&#xc2;" d="M107 0zM1087 -34q-85 0 -113 48q-11 15 -27 102q-43 208 -386 275q-32 -70 -88 -214q-31 -98 -66 -139q-57 -72 -165 -72q-72 0 -109.5 42.5t-25.5 99.5q2 10 6 25q142 374 258 577q169 295 435 536q169 153 344 153q384 0 245 -655q-6 -29 -20 -90q-13 -60 -19 -89 q-17 -79 -32.5 -234t-31.5 -232q-12 -58 -74.5 -95.5t-130.5 -37.5zM1085 874q7 97 10 126q7 84 -9 121q5 4 5 5q-35 0 -191 -177q-123 -135 -211 -294q185 -35 325 -114zM1820 1417q-75 0 -248 230q-82 -67 -164 -133q-121 -92 -167 -92q-68 0 -117.5 38t-36.5 96 q20 93 219.5 227.5t315.5 134.5q112 0 225 -102q58 -55 157 -181q22 -34 14 -75q-12 -55 -69 -99t-129 -44z" />
<glyph unicode="&#xc3;" d="M107 0zM1087 -34q-85 0 -113 48q-11 15 -27 102q-43 208 -386 275q-32 -70 -88 -214q-31 -98 -66 -139q-57 -72 -165 -72q-72 0 -109.5 42.5t-25.5 99.5q2 10 6 25q142 374 258 577q169 295 435 536q169 153 344 153q384 0 245 -655q-6 -29 -20 -90q-13 -60 -19 -89 q-17 -79 -32.5 -234t-31.5 -232q-12 -58 -74.5 -95.5t-130.5 -37.5zM1085 874q7 97 10 126q7 84 -9 121q5 4 5 5q-35 0 -191 -177q-123 -135 -211 -294q185 -35 325 -114zM1593 1417q-87 0 -135 46q-24 24 -65 102q-23 44 -47 44q-27 0 -63 -37q-23 -29 -47 -60 q-63 -72 -122 -72q-65 0 -111.5 38t-34.5 94q26 124 146.5 204.5t275.5 80.5q103 0 160 -38q46 -30 82 -104q21 -39 35 -39q34 0 62 49q44 70 65 89q50 50 142 50q68 0 110.5 -37t31.5 -93q-30 -140 -169.5 -228.5t-315.5 -88.5z" />
<glyph unicode="&#xc4;" horiz-adv-x="1348" d="M107 0zM1087 -34q-85 0 -113 48q-11 15 -27 102q-43 208 -386 275q-32 -70 -88 -214q-31 -98 -66 -139q-57 -72 -165 -72q-72 0 -109.5 42.5t-25.5 99.5q2 10 6 25q142 374 258 577q169 295 435 536q169 153 344 153q384 0 245 -655q-6 -29 -20 -90q-13 -60 -19 -89 q-17 -79 -32.5 -234t-31.5 -232q-12 -58 -74.5 -95.5t-130.5 -37.5zM1085 874q7 97 10 126q7 84 -9 121q5 4 5 5q-35 0 -191 -177q-123 -135 -211 -294q185 -35 325 -114zM1757 1434q-77 0 -136 41q-68 46 -54 112q14 62 100 115.5t160 53.5q89 0 125 -51q32 -44 18 -109 q-13 -63 -67 -109q-61 -53 -146 -53zM1221 1417q-71 17 -126.5 50t-42.5 96q14 65 65 111q60 58 148 58q77 0 137 -44t47 -109q-14 -63 -81 -112.5t-147 -49.5z" />
<glyph unicode="&#xc5;" d="M107 0zM1087 -34q-85 0 -113 48q-11 15 -27 102q-43 208 -386 275q-32 -70 -88 -214q-31 -98 -66 -139q-57 -72 -165 -72q-72 0 -109.5 42.5t-25.5 99.5q2 10 6 25q142 374 258 577q169 295 435 536q169 153 344 153q384 0 245 -655q-6 -29 -20 -90q-13 -60 -19 -89 q-17 -79 -32.5 -234t-31.5 -232q-12 -58 -74.5 -95.5t-130.5 -37.5zM1085 874q7 97 10 126q7 84 -9 121q5 4 5 5q-35 0 -191 -177q-123 -135 -211 -294q185 -35 325 -114zM1274 1417q-179 0 -305 97q-134 102 -102 249q28 135 183 238t321 103q201 0 326 -94 q140 -102 105 -264q-31 -147 -195 -242q-152 -87 -333 -87zM1320 1830q-29 0 -66 -22.5t-41 -42.5q-19 -89 104 -89q45 0 88.5 20.5t48.5 44.5q8 39 -31 64t-103 25z" />
<glyph unicode="&#xc6;" horiz-adv-x="2410" d="M1477 975q40 100 80 201q63 119 163 167q127 56 564 56q285 0 255 -141q-10 -51 -66 -92t-121 -41q-29 0 -83.5 3.5t-81.5 3.5q-139 0 -296 -23q-31 -95 -97 -211q210 59 312 59q68 0 110.5 -37.5t31.5 -93.5q-17 -78 -144 -128q-97 -38 -242 -70q-123 -26 -248 -53 q-13 -41 -63 -140q-42 -89 -54 -141q-13 -62 28 -62q79 0 279 89.5t299 89.5q68 0 107 -37.5t28 -91.5q-12 -58 -99 -115q-106 -66 -338.5 -133.5t-356.5 -67.5q-110 0 -182 39q-61 -39 -126 -39q-95 0 -129 90q-23 77 -47 154q-31 66 -148 121q-95 46 -206 65 q-4 -15 -75 -213q-77 -217 -248 -217q-75 0 -109 41t-22 97q24 111 170 398q185 363 380 594q261 303 489 303q301 0 286 -424zM1118 1114q-190 -112 -385 -459q190 -39 329 -114q31 135 39 172q61 289 17 401z" />
<glyph unicode="&#xc8;" horiz-adv-x="1104" d="M173 0zM1362 1123q-29 0 -85.5 3.5t-84.5 3.5q-140 0 -294 -22q-35 -81 -106 -212q221 63 327 63q68 0 110.5 -36.5t30.5 -93.5q-17 -80 -122 -122q-39 -16 -191 -50q-81 -19 -325 -82q-84 -164 -110 -288q0 1 -18 -31q-11 -22 1 -22q116 0 327 90.5t288 90.5 q69 0 110.5 -39.5t30.5 -93.5q-13 -60 -104 -113q-111 -67 -335 -133q-230 -70 -353 -70q-183 0 -252 99q-64 87 -34 229q39 180 194 460q193 349 236 454q26 69 41 84q25 27 105 55q152 52 553 52q284 0 254 -141q-11 -55 -68.5 -95t-125.5 -40zM1200 1417q-77 0 -134 64 q-43 45 -94 134q-63 104 -55 141q13 58 81 97q61 36 129 36q77 0 125 -59q164 -200 150 -270q-12 -55 -70.5 -99t-131.5 -44z" />
<glyph unicode="&#xc9;" horiz-adv-x="1104" d="M173 0zM1362 1123q-29 0 -85.5 3.5t-84.5 3.5q-140 0 -294 -22q-35 -81 -106 -212q221 63 327 63q68 0 110.5 -36.5t30.5 -93.5q-17 -80 -122 -122q-39 -16 -191 -50q-81 -19 -325 -82q-84 -164 -110 -288q0 1 -18 -31q-11 -22 1 -22q116 0 327 90.5t288 90.5 q69 0 110.5 -39.5t30.5 -93.5q-13 -60 -104 -113q-111 -67 -335 -133q-230 -70 -353 -70q-183 0 -252 99q-64 87 -34 229q39 180 194 460q193 349 236 454q26 69 41 84q25 27 105 55q152 52 553 52q284 0 254 -141q-11 -55 -68.5 -95t-125.5 -40zM1249 1481 q-87 -64 -159 -64q-73 0 -114 43.5t-29 99.5q7 37 143 153q121 105 184.5 142.5t122.5 37.5q70 0 114 -38.5t32 -96.5q-10 -46 -67.5 -97.5t-226.5 -179.5z" />
<glyph unicode="&#xca;" horiz-adv-x="1130" d="M173 0zM1362 1123q-29 0 -85.5 3.5t-84.5 3.5q-140 0 -294 -22q-35 -81 -106 -212q221 63 327 63q68 0 110.5 -36.5t30.5 -93.5q-17 -80 -122 -122q-39 -16 -191 -50q-81 -19 -325 -82q-84 -164 -110 -288q0 1 -18 -31q-11 -22 1 -22q116 0 327 90.5t288 90.5 q69 0 110.5 -39.5t30.5 -93.5q-13 -60 -104 -113q-111 -67 -335 -133q-230 -70 -353 -70q-183 0 -252 99q-64 87 -34 229q39 180 194 460q193 349 236 454q26 69 41 84q25 27 105 55q152 52 553 52q284 0 254 -141q-11 -55 -68.5 -95t-125.5 -40zM1620 1417q-75 0 -248 230 q-82 -67 -164 -133q-121 -92 -167 -92q-68 0 -117.5 38t-36.5 96q20 93 219.5 227.5t315.5 134.5q112 0 225 -102q58 -55 157 -181q22 -34 14 -75q-12 -55 -69 -99t-129 -44z" />
<glyph unicode="&#xcb;" horiz-adv-x="1099" d="M173 0zM1362 1123q-29 0 -85.5 3.5t-84.5 3.5q-140 0 -294 -22q-35 -81 -106 -212q221 63 327 63q68 0 110.5 -36.5t30.5 -93.5q-17 -80 -122 -122q-39 -16 -191 -50q-81 -19 -325 -82q-84 -164 -110 -288q0 1 -18 -31q-11 -22 1 -22q116 0 327 90.5t288 90.5 q69 0 110.5 -39.5t30.5 -93.5q-13 -60 -104 -113q-111 -67 -335 -133q-230 -70 -353 -70q-183 0 -252 99q-64 87 -34 229q39 180 194 460q193 349 236 454q26 69 41 84q25 27 105 55q152 52 553 52q284 0 254 -141q-11 -55 -68.5 -95t-125.5 -40zM1604 1434q-77 0 -136 41 q-68 46 -54 112q14 62 100 115.5t160 53.5q89 0 125 -51q32 -44 18 -109q-13 -63 -67 -109q-61 -53 -146 -53zM1068 1417q-71 17 -126.5 50t-42.5 96q14 65 65 111q60 58 148 58q77 0 137 -44t47 -109q-14 -63 -81 -112.5t-147 -49.5z" />
<glyph unicode="&#xcc;" horiz-adv-x="759" d="M173 0zM749 251q64 -5 103 -38q42 -37 31 -92q-20 -92 -128 -124q-38 -12 -197 -31q-30 -4 -133 -22q-89 -17 -124 -17q-68 0 -103 42.5t-25 93.5q24 111 229 147q42 278 65 386q41 196 136 522q-31 -4 -57 -4q-68 0 -111.5 38t-31.5 94q33 155 387 155q155 0 212 -3 q246 -17 219 -144q-12 -54 -70 -94t-126 -40q-34 0 -81 5q-103 -362 -132 -500q-26 -120 -63 -374zM891 1417q-77 0 -134 64q-43 45 -94 134q-63 104 -55 141q13 58 81 97q61 36 129 36q77 0 125 -59q164 -200 150 -270q-12 -55 -70.5 -99t-131.5 -44z" />
<glyph unicode="&#xcd;" horiz-adv-x="777" d="M173 0zM749 251q64 -5 103 -38q42 -37 31 -92q-20 -92 -128 -124q-38 -12 -197 -31q-30 -4 -133 -22q-89 -17 -124 -17q-68 0 -103 42.5t-25 93.5q24 111 229 147q42 278 65 386q41 196 136 522q-31 -4 -57 -4q-68 0 -111.5 38t-31.5 94q33 155 387 155q155 0 212 -3 q246 -17 219 -144q-12 -54 -70 -94t-126 -40q-34 0 -81 5q-103 -362 -132 -500q-26 -120 -63 -374zM989 1481q-87 -64 -159 -64q-73 0 -114 43.5t-29 99.5q7 37 143 153q121 105 184.5 142.5t122.5 37.5q70 0 114 -38.5t32 -96.5q-10 -46 -67.5 -97.5t-226.5 -179.5z" />
<glyph unicode="&#xce;" horiz-adv-x="777" d="M173 0zM749 251q64 -5 103 -38q42 -37 31 -92q-20 -92 -128 -124q-38 -12 -197 -31q-30 -4 -133 -22q-89 -17 -124 -17q-68 0 -103 42.5t-25 93.5q24 111 229 147q42 278 65 386q41 196 136 522q-31 -4 -57 -4q-68 0 -111.5 38t-31.5 94q33 155 387 155q155 0 212 -3 q246 -17 219 -144q-12 -54 -70 -94t-126 -40q-34 0 -81 5q-103 -362 -132 -500q-26 -120 -63 -374zM1304 1417q-75 0 -248 230q-82 -67 -164 -133q-121 -92 -167 -92q-68 0 -117.5 38t-36.5 96q20 93 219.5 227.5t315.5 134.5q112 0 225 -102q58 -55 157 -181q22 -34 14 -75 q-12 -55 -69 -99t-129 -44z" />
<glyph unicode="&#xcf;" horiz-adv-x="777" d="M173 0zM749 251q64 -5 103 -38q42 -37 31 -92q-20 -92 -128 -124q-38 -12 -197 -31q-30 -4 -133 -22q-89 -17 -124 -17q-68 0 -103 42.5t-25 93.5q24 111 229 147q42 278 65 386q41 196 136 522q-31 -4 -57 -4q-68 0 -111.5 38t-31.5 94q33 155 387 155q155 0 212 -3 q246 -17 219 -144q-12 -54 -70 -94t-126 -40q-34 0 -81 5q-103 -362 -132 -500q-26 -120 -63 -374zM1264 1434q-77 0 -136 41q-68 46 -54 112q14 62 100 115.5t160 53.5q89 0 125 -51q32 -44 18 -109q-13 -63 -67 -109q-61 -53 -146 -53zM728 1417q-71 17 -126.5 50 t-42.5 96q14 65 65 111q60 58 148 58q77 0 137 -44t47 -109q-14 -63 -81 -112.5t-147 -49.5z" />
<glyph unicode="&#xd1;" horiz-adv-x="1497" d="M158 0zM1466 288q-88 -131 -203 -216q-150 -111 -312 -111q-317 0 -386 392q-19 -71 -34 -143q-52 -244 -236 -244q-70 0 -109.5 37.5t-27.5 93.5q55 261 190 620q162 430 302 592q79 90 176 90q137 0 145 -131q3 -36 -35 -213q-40 -261 -47 -463q-13 -365 111 -365 q99 0 187 167q60 118 85 237q23 108 17.5 318t16.5 314q12 55 66.5 95.5t124.5 40.5q140 0 158 -157q4 -30 -13 -245q-24 -331 -33 -369q-38 -183 -143 -340zM1569 1417q-87 0 -135 46q-24 24 -65 102q-23 44 -47 44q-27 0 -63 -37q-23 -29 -47 -60q-63 -72 -122 -72 q-65 0 -111.5 38t-34.5 94q26 124 146.5 204.5t275.5 80.5q103 0 160 -38q46 -30 82 -104q21 -39 35 -39q34 0 62 49q44 70 65 89q50 50 142 50q68 0 110.5 -37t31.5 -93q-30 -140 -169.5 -228.5t-315.5 -88.5z" />
<glyph unicode="&#xd2;" horiz-adv-x="1410" d="M244 0zM718 -34q-288 0 -415 201q-108 173 -59 403q62 292 257 527q252 301 602 301q326 0 477 -169q144 -161 89 -422q-61 -283 -312 -541q-294 -300 -639 -300zM1007 1126q-140 0 -284 -228q-114 -181 -145 -328q-47 -222 95 -304q48 -29 96 -29q182 0 367 212 q161 186 199 365q66 312 -328 312zM1214 1417q-77 0 -134 64q-43 45 -94 134q-63 104 -55 141q13 58 81 97q61 36 129 36q77 0 125 -59q164 -200 150 -270q-12 -55 -70.5 -99t-131.5 -44z" />
<glyph unicode="&#xd3;" horiz-adv-x="1410" d="M244 0zM718 -34q-288 0 -415 201q-108 173 -59 403q62 292 257 527q252 301 602 301q326 0 477 -169q144 -161 89 -422q-61 -283 -312 -541q-294 -300 -639 -300zM1007 1126q-140 0 -284 -228q-114 -181 -145 -328q-47 -222 95 -304q48 -29 96 -29q182 0 367 212 q161 186 199 365q66 312 -328 312zM1404 1481q-87 -64 -159 -64q-73 0 -114 43.5t-29 99.5q7 37 143 153q121 105 184.5 142.5t122.5 37.5q70 0 114 -38.5t32 -96.5q-10 -46 -67.5 -97.5t-226.5 -179.5z" />
<glyph unicode="&#xd4;" horiz-adv-x="1410" d="M244 0zM718 -34q-288 0 -415 201q-108 173 -59 403q62 292 257 527q252 301 602 301q326 0 477 -169q144 -161 89 -422q-61 -283 -312 -541q-294 -300 -639 -300zM1007 1126q-140 0 -284 -228q-114 -181 -145 -328q-47 -222 95 -304q48 -29 96 -29q182 0 367 212 q161 186 199 365q66 312 -328 312zM1678 1417q-75 0 -248 230q-82 -67 -164 -133q-121 -92 -167 -92q-68 0 -117.5 38t-36.5 96q20 93 219.5 227.5t315.5 134.5q112 0 225 -102q58 -55 157 -181q22 -34 14 -75q-12 -55 -69 -99t-129 -44z" />
<glyph unicode="&#xd5;" horiz-adv-x="1420" d="M244 0zM718 -34q-288 0 -415 201q-108 173 -59 403q62 292 257 527q252 301 602 301q326 0 477 -169q144 -161 89 -422q-61 -283 -312 -541q-294 -300 -639 -300zM1007 1126q-140 0 -284 -228q-114 -181 -145 -328q-47 -222 95 -304q48 -29 96 -29q182 0 367 212 q161 186 199 365q66 312 -328 312zM1514 1417q-87 0 -135 46q-24 24 -65 102q-23 44 -47 44q-27 0 -63 -37q-23 -29 -47 -60q-63 -72 -122 -72q-65 0 -111.5 38t-34.5 94q26 124 146.5 204.5t275.5 80.5q103 0 160 -38q46 -30 82 -104q21 -39 35 -39q34 0 62 49q44 70 65 89 q50 50 142 50q68 0 110.5 -37t31.5 -93q-30 -140 -169.5 -228.5t-315.5 -88.5z" />
<glyph unicode="&#xd6;" horiz-adv-x="1423" d="M244 0zM718 -34q-288 0 -415 201q-108 173 -59 403q62 292 257 527q252 301 602 301q326 0 477 -169q144 -161 89 -422q-61 -283 -312 -541q-294 -300 -639 -300zM1007 1126q-140 0 -284 -228q-114 -181 -145 -328q-47 -222 95 -304q48 -29 96 -29q182 0 367 212 q161 186 199 365q66 312 -328 312zM1633 1434q-77 0 -136 41q-68 46 -54 112q14 62 100 115.5t160 53.5q89 0 125 -51q32 -44 18 -109q-13 -63 -67 -109q-61 -53 -146 -53zM1097 1417q-71 17 -126.5 50t-42.5 96q14 65 65 111q60 58 148 58q77 0 137 -44t47 -109 q-14 -63 -81 -112.5t-147 -49.5z" />
<glyph unicode="&#xd7;" horiz-adv-x="1563" d="M1134 391q66 -53 185 -166q38 -44 28 -94q-12 -56 -69.5 -98t-130.5 -42q-81 0 -179 84q-66 67 -135 135q-95 -70 -298 -205q-62 -39 -120 -39q-70 0 -116 39t-33 97q19 93 363 301q-60 46 -167 147q-41 44 -30 93q12 57 70 98t130 41q80 0 171 -72q14 -14 128 -123 q87 56 269 161q67 34 127 34q71 0 110.5 -41t27.5 -98q-11 -49 -67 -91.5t-264 -160.5z" />
<glyph unicode="&#xd8;" horiz-adv-x="1613" d="M720 -34q-111 0 -205 34l-8 -10q-81 -96 -184 -96q-63 0 -106 34q-51 36 -39 92q10 48 109 180q-85 164 -41 370q62 292 258 527q250 301 600 301q103 0 192 -17q95 121 204 121q68 0 108 -42t29 -95q-4 -20 -78 -111q171 -163 111 -447q-61 -283 -311 -541 q-294 -300 -639 -300zM1332 975q-226 -274 -613 -731q26 -7 51 -7q183 0 368 212q161 186 199 365q20 92 -5 161zM1009 1126q-142 0 -284 -228q-116 -185 -150 -343q168 194 497 568q-33 3 -63 3z" />
<glyph unicode="&#xd9;" horiz-adv-x="1415" d="M300 0zM734 -34q-347 0 -434 290q-56 198 8 502q94 442 187 549q78 92 181 92q70 0 109 -41.5t27 -96.5q-5 -24 -66 -169q-54 -117 -102 -344q-109 -514 152 -514q293 0 437 681q13 58 24.5 172t24.5 173q11 54 65 96.5t126 42.5q143 0 153 -148q4 -63 -33 -236 q-223 -1049 -859 -1049zM1217 1417q-77 0 -134 64q-43 45 -94 134q-63 104 -55 141q13 58 81 97q61 36 129 36q77 0 125 -59q164 -200 150 -270q-12 -55 -70.5 -99t-131.5 -44z" />
<glyph unicode="&#xda;" horiz-adv-x="1350" d="M300 0zM734 -34q-347 0 -434 290q-56 198 8 502q94 442 187 549q78 92 181 92q70 0 109 -41.5t27 -96.5q-5 -24 -66 -169q-54 -117 -102 -344q-109 -514 152 -514q293 0 437 681q13 58 24.5 172t24.5 173q11 54 65 96.5t126 42.5q143 0 153 -148q4 -63 -33 -236 q-223 -1049 -859 -1049zM1322 1481q-87 -64 -159 -64q-73 0 -114 43.5t-29 99.5q7 37 143 153q121 105 184.5 142.5t122.5 37.5q70 0 114 -38.5t32 -96.5q-10 -46 -67.5 -97.5t-226.5 -179.5z" />
<glyph unicode="&#xdb;" horiz-adv-x="1350" d="M300 0zM734 -34q-347 0 -434 290q-56 198 8 502q94 442 187 549q78 92 181 92q70 0 109 -41.5t27 -96.5q-5 -24 -66 -169q-54 -117 -102 -344q-109 -514 152 -514q293 0 437 681q13 58 24.5 172t24.5 173q11 54 65 96.5t126 42.5q143 0 153 -148q4 -63 -33 -236 q-223 -1049 -859 -1049zM1620 1417q-75 0 -248 230q-82 -67 -164 -133q-121 -92 -167 -92q-68 0 -117.5 38t-36.5 96q20 93 219.5 227.5t315.5 134.5q112 0 225 -102q58 -55 157 -181q22 -34 14 -75q-12 -55 -69 -99t-129 -44z" />
<glyph unicode="&#xdc;" horiz-adv-x="1352" d="M300 0zM734 -34q-347 0 -434 290q-56 198 8 502q94 442 187 549q78 92 181 92q70 0 109 -41.5t27 -96.5q-5 -24 -66 -169q-54 -117 -102 -344q-109 -514 152 -514q293 0 437 681q13 58 24.5 172t24.5 173q11 54 65 96.5t126 42.5q143 0 153 -148q4 -63 -33 -236 q-223 -1049 -859 -1049zM1592 1434q-77 0 -136 41q-68 46 -54 112q14 62 100 115.5t160 53.5q89 0 125 -51q32 -44 18 -109q-13 -63 -67 -109q-61 -53 -146 -53zM1056 1417q-71 17 -126.5 50t-42.5 96q14 65 65 111q60 58 148 58q77 0 137 -44t47 -109q-14 -63 -81 -112.5 t-147 -49.5z" />
<glyph unicode="&#xdd;" horiz-adv-x="1451" d="M361 0zM993 31q-138 -65 -278 -65q-68 0 -113.5 36t-33.5 94q24 109 207 143q24 3 71 15q200 58 323 362q-189 -143 -404 -143q-568 0 -404 773q13 63 61 104q54 49 140 49q134 0 139 -138q-14 -140 -29 -280q-15 -170 78 -222q33 -18 57 -18q35 0 92 24q109 42 210 165 q86 103 140 224q48 107 74 140q59 71 162 71q136 0 148 -148q6 -74 -28 -234q-73 -343 -165 -517q-149 -294 -447 -435zM1288 1481q-87 -64 -159 -64q-73 0 -114 43.5t-29 99.5q7 37 143 153q121 105 184.5 142.5t122.5 37.5q70 0 114 -38.5t32 -96.5q-10 -46 -67.5 -97.5 t-226.5 -179.5z" />
<glyph unicode="&#xde;" horiz-adv-x="1533" d="M679 253q-48 -168 -59 -185q-55 -102 -185 -102q-68 0 -109 40t-30 95q34 157 113 428q92 307 117 428q-60 45 -45 116q15 69 92 103q10 58 16 87q13 60 72 98t131 38q73 0 114 -39t28 -97q-3 -15 -7 -34h58q283 0 465 -75q255 -101 208 -319q-47 -222 -390 -393 q-265 -131 -589 -189zM896 957h-31q-40 -174 -109 -421q527 123 566 304q24 117 -426 117z" />
<glyph unicode="&#xdf;" horiz-adv-x="1473" d="M711 -26l-24 -218q-13 -61 -68.5 -96t-130.5 -35q-102 0 -131 70q-27 52 -6 150q6 68 19 136q-89 33 -71 120q15 70 99 112q17 137 39 410q1 2 -6 242q-3 147 18 246q61 288 454 288q135 0 273 -35q155 -40 229 -108q97 -90 68 -227q-34 -159 -248 -285 q259 -130 209 -363q-76 -357 -723 -407zM833 1132q-22 0 -43 -4q-1 -5 -3 -12q-17 -83 -12 -240q291 49 362 153q-6 55 -124 82q-84 21 -180 21zM773 585q2 -174 -34 -343q336 40 359 147q25 121 -325 196z" />
<glyph unicode="&#xe0;" d="M107 0zM1087 -34q-85 0 -113 48q-11 15 -27 102q-43 208 -386 275q-32 -70 -88 -214q-31 -98 -66 -139q-57 -72 -165 -72q-72 0 -109.5 42.5t-25.5 99.5q2 10 6 25q142 374 258 577q169 295 435 536q169 153 344 153q384 0 245 -655q-6 -29 -20 -90q-13 -60 -19 -89 q-17 -79 -32.5 -234t-31.5 -232q-12 -58 -74.5 -95.5t-130.5 -37.5zM1085 874q7 97 10 126q7 84 -9 121q5 4 5 5q-35 0 -191 -177q-123 -135 -211 -294q185 -35 325 -114zM1303 1417q-77 0 -134 64q-43 45 -94 134q-63 104 -55 141q13 58 81 97q61 36 129 36q77 0 125 -59 q164 -200 150 -270q-12 -55 -70.5 -99t-131.5 -44z" />
<glyph unicode="&#xe1;" d="M107 0zM1087 -34q-85 0 -113 48q-11 15 -27 102q-43 208 -386 275q-32 -70 -88 -214q-31 -98 -66 -139q-57 -72 -165 -72q-72 0 -109.5 42.5t-25.5 99.5q2 10 6 25q142 374 258 577q169 295 435 536q169 153 344 153q384 0 245 -655q-6 -29 -20 -90q-13 -60 -19 -89 q-17 -79 -32.5 -234t-31.5 -232q-12 -58 -74.5 -95.5t-130.5 -37.5zM1085 874q7 97 10 126q7 84 -9 121q5 4 5 5q-35 0 -191 -177q-123 -135 -211 -294q185 -35 325 -114zM1498 1481q-87 -64 -159 -64q-73 0 -114 43.5t-29 99.5q7 37 143 153q121 105 184.5 142.5 t122.5 37.5q70 0 114 -38.5t32 -96.5q-10 -46 -67.5 -97.5t-226.5 -179.5z" />
<glyph unicode="&#xe2;" d="M107 0zM1087 -34q-85 0 -113 48q-11 15 -27 102q-43 208 -386 275q-32 -70 -88 -214q-31 -98 -66 -139q-57 -72 -165 -72q-72 0 -109.5 42.5t-25.5 99.5q2 10 6 25q142 374 258 577q169 295 435 536q169 153 344 153q384 0 245 -655q-6 -29 -20 -90q-13 -60 -19 -89 q-17 -79 -32.5 -234t-31.5 -232q-12 -58 -74.5 -95.5t-130.5 -37.5zM1085 874q7 97 10 126q7 84 -9 121q5 4 5 5q-35 0 -191 -177q-123 -135 -211 -294q185 -35 325 -114zM1820 1417q-75 0 -248 230q-82 -67 -164 -133q-121 -92 -167 -92q-68 0 -117.5 38t-36.5 96 q20 93 219.5 227.5t315.5 134.5q112 0 225 -102q58 -55 157 -181q22 -34 14 -75q-12 -55 -69 -99t-129 -44z" />
<glyph unicode="&#xe3;" d="M107 0zM1087 -34q-85 0 -113 48q-11 15 -27 102q-43 208 -386 275q-32 -70 -88 -214q-31 -98 -66 -139q-57 -72 -165 -72q-72 0 -109.5 42.5t-25.5 99.5q2 10 6 25q142 374 258 577q169 295 435 536q169 153 344 153q384 0 245 -655q-6 -29 -20 -90q-13 -60 -19 -89 q-17 -79 -32.5 -234t-31.5 -232q-12 -58 -74.5 -95.5t-130.5 -37.5zM1085 874q7 97 10 126q7 84 -9 121q5 4 5 5q-35 0 -191 -177q-123 -135 -211 -294q185 -35 325 -114zM1593 1417q-87 0 -135 46q-24 24 -65 102q-23 44 -47 44q-27 0 -63 -37q-23 -29 -47 -60 q-63 -72 -122 -72q-65 0 -111.5 38t-34.5 94q26 124 146.5 204.5t275.5 80.5q103 0 160 -38q46 -30 82 -104q21 -39 35 -39q34 0 62 49q44 70 65 89q50 50 142 50q68 0 110.5 -37t31.5 -93q-30 -140 -169.5 -228.5t-315.5 -88.5z" />
<glyph unicode="&#xe4;" horiz-adv-x="1348" d="M107 0zM1087 -34q-85 0 -113 48q-11 15 -27 102q-43 208 -386 275q-32 -70 -88 -214q-31 -98 -66 -139q-57 -72 -165 -72q-72 0 -109.5 42.5t-25.5 99.5q2 10 6 25q142 374 258 577q169 295 435 536q169 153 344 153q384 0 245 -655q-6 -29 -20 -90q-13 -60 -19 -89 q-17 -79 -32.5 -234t-31.5 -232q-12 -58 -74.5 -95.5t-130.5 -37.5zM1085 874q7 97 10 126q7 84 -9 121q5 4 5 5q-35 0 -191 -177q-123 -135 -211 -294q185 -35 325 -114zM1757 1434q-77 0 -136 41q-68 46 -54 112q14 62 100 115.5t160 53.5q89 0 125 -51q32 -44 18 -109 q-13 -63 -67 -109q-61 -53 -146 -53zM1221 1417q-71 17 -126.5 50t-42.5 96q14 65 65 111q60 58 148 58q77 0 137 -44t47 -109q-14 -63 -81 -112.5t-147 -49.5z" />
<glyph unicode="&#xe5;" d="M107 0zM1087 -34q-85 0 -113 48q-11 15 -27 102q-43 208 -386 275q-32 -70 -88 -214q-31 -98 -66 -139q-57 -72 -165 -72q-72 0 -109.5 42.5t-25.5 99.5q2 10 6 25q142 374 258 577q169 295 435 536q169 153 344 153q384 0 245 -655q-6 -29 -20 -90q-13 -60 -19 -89 q-17 -79 -32.5 -234t-31.5 -232q-12 -58 -74.5 -95.5t-130.5 -37.5zM1085 874q7 97 10 126q7 84 -9 121q5 4 5 5q-35 0 -191 -177q-123 -135 -211 -294q185 -35 325 -114zM1274 1417q-179 0 -305 97q-134 102 -102 249q28 135 183 238t321 103q201 0 326 -94 q140 -102 105 -264q-31 -147 -195 -242q-152 -87 -333 -87zM1320 1830q-29 0 -66 -22.5t-41 -42.5q-19 -89 104 -89q45 0 88.5 20.5t48.5 44.5q8 39 -31 64t-103 25z" />
<glyph unicode="&#xe6;" horiz-adv-x="2410" d="M1477 975q40 100 80 201q63 119 163 167q127 56 564 56q285 0 255 -141q-10 -51 -66 -92t-121 -41q-29 0 -83.5 3.5t-81.5 3.5q-139 0 -296 -23q-31 -95 -97 -211q210 59 312 59q68 0 110.5 -37.5t31.5 -93.5q-17 -78 -144 -128q-97 -38 -242 -70q-123 -26 -248 -53 q-13 -41 -63 -140q-42 -89 -54 -141q-13 -62 28 -62q79 0 279 89.5t299 89.5q68 0 107 -37.5t28 -91.5q-12 -58 -99 -115q-106 -66 -338.5 -133.5t-356.5 -67.5q-110 0 -182 39q-61 -39 -126 -39q-95 0 -129 90q-23 77 -47 154q-31 66 -148 121q-95 46 -206 65 q-4 -15 -75 -213q-77 -217 -248 -217q-75 0 -109 41t-22 97q24 111 170 398q185 363 380 594q261 303 489 303q301 0 286 -424zM1118 1114q-190 -112 -385 -459q190 -39 329 -114q31 135 39 172q61 289 17 401z" />
<glyph unicode="&#xe8;" horiz-adv-x="1104" d="M173 0zM1362 1123q-29 0 -85.5 3.5t-84.5 3.5q-140 0 -294 -22q-35 -81 -106 -212q221 63 327 63q68 0 110.5 -36.5t30.5 -93.5q-17 -80 -122 -122q-39 -16 -191 -50q-81 -19 -325 -82q-84 -164 -110 -288q0 1 -18 -31q-11 -22 1 -22q116 0 327 90.5t288 90.5 q69 0 110.5 -39.5t30.5 -93.5q-13 -60 -104 -113q-111 -67 -335 -133q-230 -70 -353 -70q-183 0 -252 99q-64 87 -34 229q39 180 194 460q193 349 236 454q26 69 41 84q25 27 105 55q152 52 553 52q284 0 254 -141q-11 -55 -68.5 -95t-125.5 -40zM1200 1417q-77 0 -134 64 q-43 45 -94 134q-63 104 -55 141q13 58 81 97q61 36 129 36q77 0 125 -59q164 -200 150 -270q-12 -55 -70.5 -99t-131.5 -44z" />
<glyph unicode="&#xe9;" horiz-adv-x="1104" d="M173 0zM1362 1123q-29 0 -85.5 3.5t-84.5 3.5q-140 0 -294 -22q-35 -81 -106 -212q221 63 327 63q68 0 110.5 -36.5t30.5 -93.5q-17 -80 -122 -122q-39 -16 -191 -50q-81 -19 -325 -82q-84 -164 -110 -288q0 1 -18 -31q-11 -22 1 -22q116 0 327 90.5t288 90.5 q69 0 110.5 -39.5t30.5 -93.5q-13 -60 -104 -113q-111 -67 -335 -133q-230 -70 -353 -70q-183 0 -252 99q-64 87 -34 229q39 180 194 460q193 349 236 454q26 69 41 84q25 27 105 55q152 52 553 52q284 0 254 -141q-11 -55 -68.5 -95t-125.5 -40zM1249 1481 q-87 -64 -159 -64q-73 0 -114 43.5t-29 99.5q7 37 143 153q121 105 184.5 142.5t122.5 37.5q70 0 114 -38.5t32 -96.5q-10 -46 -67.5 -97.5t-226.5 -179.5z" />
<glyph unicode="&#xea;" horiz-adv-x="1130" d="M173 0zM1362 1123q-29 0 -85.5 3.5t-84.5 3.5q-140 0 -294 -22q-35 -81 -106 -212q221 63 327 63q68 0 110.5 -36.5t30.5 -93.5q-17 -80 -122 -122q-39 -16 -191 -50q-81 -19 -325 -82q-84 -164 -110 -288q0 1 -18 -31q-11 -22 1 -22q116 0 327 90.5t288 90.5 q69 0 110.5 -39.5t30.5 -93.5q-13 -60 -104 -113q-111 -67 -335 -133q-230 -70 -353 -70q-183 0 -252 99q-64 87 -34 229q39 180 194 460q193 349 236 454q26 69 41 84q25 27 105 55q152 52 553 52q284 0 254 -141q-11 -55 -68.5 -95t-125.5 -40zM1620 1417q-75 0 -248 230 q-82 -67 -164 -133q-121 -92 -167 -92q-68 0 -117.5 38t-36.5 96q20 93 219.5 227.5t315.5 134.5q112 0 225 -102q58 -55 157 -181q22 -34 14 -75q-12 -55 -69 -99t-129 -44z" />
<glyph unicode="&#xeb;" horiz-adv-x="1099" d="M173 0zM1362 1123q-29 0 -85.5 3.5t-84.5 3.5q-140 0 -294 -22q-35 -81 -106 -212q221 63 327 63q68 0 110.5 -36.5t30.5 -93.5q-17 -80 -122 -122q-39 -16 -191 -50q-81 -19 -325 -82q-84 -164 -110 -288q0 1 -18 -31q-11 -22 1 -22q116 0 327 90.5t288 90.5 q69 0 110.5 -39.5t30.5 -93.5q-13 -60 -104 -113q-111 -67 -335 -133q-230 -70 -353 -70q-183 0 -252 99q-64 87 -34 229q39 180 194 460q193 349 236 454q26 69 41 84q25 27 105 55q152 52 553 52q284 0 254 -141q-11 -55 -68.5 -95t-125.5 -40zM1604 1434q-77 0 -136 41 q-68 46 -54 112q14 62 100 115.5t160 53.5q89 0 125 -51q32 -44 18 -109q-13 -63 -67 -109q-61 -53 -146 -53zM1068 1417q-71 17 -126.5 50t-42.5 96q14 65 65 111q60 58 148 58q77 0 137 -44t47 -109q-14 -63 -81 -112.5t-147 -49.5z" />
<glyph unicode="&#xec;" horiz-adv-x="544" d="M140 0zM591 509q-54 -173 -84 -316q-48 -227 -226 -227q-68 0 -110 40t-31 95q34 160 108 392q60 196 123 393q26 99 54 196q32 114 80 195q70 122 190 122q68 0 110.5 -39t30.5 -94q-31 -148 -113 -379q-117 -324 -132 -378zM789 1417q-77 0 -134 64q-43 45 -94 134 q-63 104 -55 141q13 58 81 97q61 36 129 36q77 0 125 -59q164 -200 150 -270q-12 -55 -70.5 -99t-131.5 -44z" />
<glyph unicode="&#xed;" horiz-adv-x="643" d="M140 0zM591 509q-54 -173 -84 -316q-48 -227 -226 -227q-68 0 -110 40t-31 95q34 160 108 392q60 196 123 393q26 99 54 196q32 114 80 195q70 122 190 122q68 0 110.5 -39t30.5 -94q-31 -148 -113 -379q-117 -324 -132 -378zM950 1481q-87 -64 -159 -64q-73 0 -114 43.5 t-29 99.5q7 37 143 153q121 105 184.5 142.5t122.5 37.5q70 0 114 -38.5t32 -96.5q-10 -46 -67.5 -97.5t-226.5 -179.5z" />
<glyph unicode="&#xee;" horiz-adv-x="860" d="M347 0zM798 509q-54 -173 -84 -316q-48 -227 -226 -227q-68 0 -110 40t-31 95q34 160 108 392q60 196 123 393q26 99 54 196q32 114 80 195q70 122 190 122q68 0 110.5 -39t30.5 -94q-31 -148 -113 -379q-117 -324 -132 -378zM1410 1417q-75 0 -248 230 q-82 -67 -164 -133q-121 -92 -167 -92q-68 0 -117.5 38t-36.5 96q20 93 219.5 227.5t315.5 134.5q112 0 225 -102q58 -55 157 -181q22 -34 14 -75q-12 -55 -69 -99t-129 -44z" />
<glyph unicode="&#xef;" horiz-adv-x="843" d="M357 0zM808 509q-54 -173 -84 -316q-48 -227 -226 -227q-68 0 -110 40t-31 95q34 160 108 392q60 196 123 393q26 99 54 196q32 114 80 195q70 122 190 122q68 0 110.5 -39t30.5 -94q-31 -148 -113 -379q-117 -324 -132 -378zM1344 1434q-77 0 -136 41q-68 46 -54 112 q14 62 100 115.5t160 53.5q89 0 125 -51q32 -44 18 -109q-13 -63 -67 -109q-61 -53 -146 -53zM808 1417q-71 17 -126.5 50t-42.5 96q14 65 65 111q60 58 148 58q77 0 137 -44t47 -109q-14 -63 -81 -112.5t-147 -49.5z" />
<glyph unicode="&#xf1;" horiz-adv-x="1497" d="M158 0zM1466 288q-88 -131 -203 -216q-150 -111 -312 -111q-317 0 -386 392q-19 -71 -34 -143q-52 -244 -236 -244q-70 0 -109.5 37.5t-27.5 93.5q55 261 190 620q162 430 302 592q79 90 176 90q137 0 145 -131q3 -36 -35 -213q-40 -261 -47 -463q-13 -365 111 -365 q99 0 187 167q60 118 85 237q23 108 17.5 318t16.5 314q12 55 66.5 95.5t124.5 40.5q140 0 158 -157q4 -30 -13 -245q-24 -331 -33 -369q-38 -183 -143 -340zM1569 1417q-87 0 -135 46q-24 24 -65 102q-23 44 -47 44q-27 0 -63 -37q-23 -29 -47 -60q-63 -72 -122 -72 q-65 0 -111.5 38t-34.5 94q26 124 146.5 204.5t275.5 80.5q103 0 160 -38q46 -30 82 -104q21 -39 35 -39q34 0 62 49q44 70 65 89q50 50 142 50q68 0 110.5 -37t31.5 -93q-30 -140 -169.5 -228.5t-315.5 -88.5z" />
<glyph unicode="&#xf2;" horiz-adv-x="1410" d="M244 0zM718 -34q-288 0 -415 201q-108 173 -59 403q62 292 257 527q252 301 602 301q326 0 477 -169q144 -161 89 -422q-61 -283 -312 -541q-294 -300 -639 -300zM1007 1126q-140 0 -284 -228q-114 -181 -145 -328q-47 -222 95 -304q48 -29 96 -29q182 0 367 212 q161 186 199 365q66 312 -328 312zM1214 1417q-77 0 -134 64q-43 45 -94 134q-63 104 -55 141q13 58 81 97q61 36 129 36q77 0 125 -59q164 -200 150 -270q-12 -55 -70.5 -99t-131.5 -44z" />
<glyph unicode="&#xf3;" horiz-adv-x="1410" d="M244 0zM718 -34q-288 0 -415 201q-108 173 -59 403q62 292 257 527q252 301 602 301q326 0 477 -169q144 -161 89 -422q-61 -283 -312 -541q-294 -300 -639 -300zM1007 1126q-140 0 -284 -228q-114 -181 -145 -328q-47 -222 95 -304q48 -29 96 -29q182 0 367 212 q161 186 199 365q66 312 -328 312zM1404 1481q-87 -64 -159 -64q-73 0 -114 43.5t-29 99.5q7 37 143 153q121 105 184.5 142.5t122.5 37.5q70 0 114 -38.5t32 -96.5q-10 -46 -67.5 -97.5t-226.5 -179.5z" />
<glyph unicode="&#xf4;" horiz-adv-x="1410" d="M244 0zM718 -34q-288 0 -415 201q-108 173 -59 403q62 292 257 527q252 301 602 301q326 0 477 -169q144 -161 89 -422q-61 -283 -312 -541q-294 -300 -639 -300zM1007 1126q-140 0 -284 -228q-114 -181 -145 -328q-47 -222 95 -304q48 -29 96 -29q182 0 367 212 q161 186 199 365q66 312 -328 312zM1678 1417q-75 0 -248 230q-82 -67 -164 -133q-121 -92 -167 -92q-68 0 -117.5 38t-36.5 96q20 93 219.5 227.5t315.5 134.5q112 0 225 -102q58 -55 157 -181q22 -34 14 -75q-12 -55 -69 -99t-129 -44z" />
<glyph unicode="&#xf5;" horiz-adv-x="1420" d="M244 0zM718 -34q-288 0 -415 201q-108 173 -59 403q62 292 257 527q252 301 602 301q326 0 477 -169q144 -161 89 -422q-61 -283 -312 -541q-294 -300 -639 -300zM1007 1126q-140 0 -284 -228q-114 -181 -145 -328q-47 -222 95 -304q48 -29 96 -29q182 0 367 212 q161 186 199 365q66 312 -328 312zM1514 1417q-87 0 -135 46q-24 24 -65 102q-23 44 -47 44q-27 0 -63 -37q-23 -29 -47 -60q-63 -72 -122 -72q-65 0 -111.5 38t-34.5 94q26 124 146.5 204.5t275.5 80.5q103 0 160 -38q46 -30 82 -104q21 -39 35 -39q34 0 62 49q44 70 65 89 q50 50 142 50q68 0 110.5 -37t31.5 -93q-30 -140 -169.5 -228.5t-315.5 -88.5z" />
<glyph unicode="&#xf6;" horiz-adv-x="1423" d="M244 0zM718 -34q-288 0 -415 201q-108 173 -59 403q62 292 257 527q252 301 602 301q326 0 477 -169q144 -161 89 -422q-61 -283 -312 -541q-294 -300 -639 -300zM1007 1126q-140 0 -284 -228q-114 -181 -145 -328q-47 -222 95 -304q48 -29 96 -29q182 0 367 212 q161 186 199 365q66 312 -328 312zM1633 1434q-77 0 -136 41q-68 46 -54 112q14 62 100 115.5t160 53.5q89 0 125 -51q32 -44 18 -109q-13 -63 -67 -109q-61 -53 -146 -53zM1097 1417q-71 17 -126.5 50t-42.5 96q14 65 65 111q60 58 148 58q77 0 137 -44t47 -109 q-14 -63 -81 -112.5t-147 -49.5z" />
<glyph unicode="&#xf7;" horiz-adv-x="1133" d="M711 741q-85 0 -137 54.5t-38 120.5q12 60 88 107t149 47q89 0 128 -60q35 -51 21 -116q-13 -59 -71 -104q-62 -49 -140 -49zM982 428q-82 0 -247.5 -7.5t-247.5 -7.5q-286 0 -255 145q11 53 67.5 95.5t124.5 42.5q29 0 81.5 -2.5t80.5 -2.5q75 0 228 8t227 8 q75 0 112.5 -41t25.5 -99q-13 -57 -67.5 -98t-129.5 -41zM556 70q-80 0 -125 44.5t-31 109.5q13 61 70 112q68 60 152 60q83 0 127.5 -52t31.5 -115q-14 -63 -78.5 -111t-146.5 -48z" />
<glyph unicode="&#xf8;" horiz-adv-x="1613" d="M720 -34q-111 0 -205 34l-8 -10q-81 -96 -184 -96q-63 0 -106 34q-51 36 -39 92q10 48 109 180q-85 164 -41 370q62 292 258 527q250 301 600 301q103 0 192 -17q95 121 204 121q68 0 108 -42t29 -95q-4 -20 -78 -111q171 -163 111 -447q-61 -283 -311 -541 q-294 -300 -639 -300zM1332 975q-226 -274 -613 -731q26 -7 51 -7q183 0 368 212q161 186 199 365q20 92 -5 161zM1009 1126q-142 0 -284 -228q-116 -185 -150 -343q168 194 497 568q-33 3 -63 3z" />
<glyph unicode="&#xf9;" horiz-adv-x="1415" d="M300 0zM734 -34q-347 0 -434 290q-56 198 8 502q94 442 187 549q78 92 181 92q70 0 109 -41.5t27 -96.5q-5 -24 -66 -169q-54 -117 -102 -344q-109 -514 152 -514q293 0 437 681q13 58 24.5 172t24.5 173q11 54 65 96.5t126 42.5q143 0 153 -148q4 -63 -33 -236 q-223 -1049 -859 -1049zM1217 1417q-77 0 -134 64q-43 45 -94 134q-63 104 -55 141q13 58 81 97q61 36 129 36q77 0 125 -59q164 -200 150 -270q-12 -55 -70.5 -99t-131.5 -44z" />
<glyph unicode="&#xfa;" horiz-adv-x="1350" d="M300 0zM734 -34q-347 0 -434 290q-56 198 8 502q94 442 187 549q78 92 181 92q70 0 109 -41.5t27 -96.5q-5 -24 -66 -169q-54 -117 -102 -344q-109 -514 152 -514q293 0 437 681q13 58 24.5 172t24.5 173q11 54 65 96.5t126 42.5q143 0 153 -148q4 -63 -33 -236 q-223 -1049 -859 -1049zM1322 1481q-87 -64 -159 -64q-73 0 -114 43.5t-29 99.5q7 37 143 153q121 105 184.5 142.5t122.5 37.5q70 0 114 -38.5t32 -96.5q-10 -46 -67.5 -97.5t-226.5 -179.5z" />
<glyph unicode="&#xfb;" horiz-adv-x="1350" d="M300 0zM734 -34q-347 0 -434 290q-56 198 8 502q94 442 187 549q78 92 181 92q70 0 109 -41.5t27 -96.5q-5 -24 -66 -169q-54 -117 -102 -344q-109 -514 152 -514q293 0 437 681q13 58 24.5 172t24.5 173q11 54 65 96.5t126 42.5q143 0 153 -148q4 -63 -33 -236 q-223 -1049 -859 -1049zM1620 1417q-75 0 -248 230q-82 -67 -164 -133q-121 -92 -167 -92q-68 0 -117.5 38t-36.5 96q20 93 219.5 227.5t315.5 134.5q112 0 225 -102q58 -55 157 -181q22 -34 14 -75q-12 -55 -69 -99t-129 -44z" />
<glyph unicode="&#xfc;" horiz-adv-x="1352" d="M300 0zM734 -34q-347 0 -434 290q-56 198 8 502q94 442 187 549q78 92 181 92q70 0 109 -41.5t27 -96.5q-5 -24 -66 -169q-54 -117 -102 -344q-109 -514 152 -514q293 0 437 681q13 58 24.5 172t24.5 173q11 54 65 96.5t126 42.5q143 0 153 -148q4 -63 -33 -236 q-223 -1049 -859 -1049zM1592 1434q-77 0 -136 41q-68 46 -54 112q14 62 100 115.5t160 53.5q89 0 125 -51q32 -44 18 -109q-13 -63 -67 -109q-61 -53 -146 -53zM1056 1417q-71 17 -126.5 50t-42.5 96q14 65 65 111q60 58 148 58q77 0 137 -44t47 -109q-14 -63 -81 -112.5 t-147 -49.5z" />
<glyph unicode="&#xfd;" horiz-adv-x="1451" d="M361 0zM993 31q-138 -65 -278 -65q-68 0 -113.5 36t-33.5 94q24 109 207 143q24 3 71 15q200 58 323 362q-189 -143 -404 -143q-568 0 -404 773q13 63 61 104q54 49 140 49q134 0 139 -138q-14 -140 -29 -280q-15 -170 78 -222q33 -18 57 -18q35 0 92 24q109 42 210 165 q86 103 140 224q48 107 74 140q59 71 162 71q136 0 148 -148q6 -74 -28 -234q-73 -343 -165 -517q-149 -294 -447 -435zM1288 1481q-87 -64 -159 -64q-73 0 -114 43.5t-29 99.5q7 37 143 153q121 105 184.5 142.5t122.5 37.5q70 0 114 -38.5t32 -96.5q-10 -46 -67.5 -97.5 t-226.5 -179.5z" />
<glyph unicode="&#xfe;" horiz-adv-x="1533" d="M679 253q-48 -168 -59 -185q-55 -102 -185 -102q-68 0 -109 40t-30 95q34 157 113 428q92 307 117 428q-60 45 -45 116q15 69 92 103q10 58 16 87q13 60 72 98t131 38q73 0 114 -39t28 -97q-3 -15 -7 -34h58q283 0 465 -75q255 -101 208 -319q-47 -222 -390 -393 q-265 -131 -589 -189zM896 957h-31q-40 -174 -109 -421q527 123 566 304q24 117 -426 117z" />
<glyph unicode="&#xff;" horiz-adv-x="1398" d="M361 0zM993 31q-138 -65 -278 -65q-68 0 -113.5 36t-33.5 94q24 109 207 143q24 3 71 15q200 58 323 362q-189 -143 -404 -143q-568 0 -404 773q13 63 61 104q54 49 140 49q134 0 139 -138q-14 -140 -29 -280q-15 -170 78 -222q33 -18 57 -18q35 0 92 24q109 42 210 165 q86 103 140 224q48 107 74 140q59 71 162 71q136 0 148 -148q6 -74 -28 -234q-73 -343 -165 -517q-149 -294 -447 -435zM1581 1434q-77 0 -136 41q-68 46 -54 112q14 62 100 115.5t160 53.5q89 0 125 -51q32 -44 18 -109q-13 -63 -67 -109q-61 -53 -146 -53zM1045 1417 q-71 17 -126.5 50t-42.5 96q14 65 65 111q60 58 148 58q77 0 137 -44t47 -109q-14 -63 -81 -112.5t-147 -49.5z" />
<glyph unicode="&#x152;" horiz-adv-x="2695" d="M1733 1242q71 157 689 157q288 0 258 -141q-10 -51 -66 -92t-122 -41q-28 0 -83 3.5t-84 3.5q-115 0 -299 -29q-31 -93 -94 -205q213 59 312 59q68 0 110.5 -37.5t31.5 -93.5q-17 -78 -127 -121q-43 -19 -191 -51q-81 -19 -318 -79q-88 -167 -110 -271q-7 -33 -7 -39 q5 -16 35 -16q128 0 384 108q132 56 186 56q69 0 110 -39t30 -94q-14 -62 -88 -106q-39 -22 -143 -60q-275 -99 -354.5 -123.5t-205.5 -24.5q-213 0 -271 136q-220 -136 -436 -136q-290 0 -417 200q-109 172 -60 404q58 273 269 522q262 307 589 307q321 0 472 -157z M1246 1135q-126 0 -293 -176q-159 -165 -185 -288q-93 -435 161 -435q181 0 367 211q163 188 201 367q26 123 -40 219q-74 102 -211 102z" />
<glyph unicode="&#x153;" horiz-adv-x="2695" d="M1733 1242q71 157 689 157q288 0 258 -141q-10 -51 -66 -92t-122 -41q-28 0 -83 3.5t-84 3.5q-115 0 -299 -29q-31 -93 -94 -205q213 59 312 59q68 0 110.5 -37.5t31.5 -93.5q-17 -78 -127 -121q-41 -19 -191 -51q-81 -19 -318 -79q-88 -167 -110 -271q-7 -33 -7 -39 q5 -16 35 -16q128 0 384 108q132 56 186 56q69 0 110 -39t30 -94q-14 -62 -88 -106q-39 -22 -143 -60q-275 -99 -354.5 -123.5t-205.5 -24.5q-213 0 -271 136q-220 -136 -436 -136q-290 0 -417 200q-109 172 -60 404q58 273 269 522q262 307 589 307q321 0 472 -157z M1246 1135q-126 0 -293 -176q-159 -165 -185 -288q-93 -435 161 -435q181 0 367 211q163 188 201 367q26 123 -40 219q-74 102 -211 102z" />
<glyph unicode="&#x178;" horiz-adv-x="1398" d="M361 0zM993 31q-138 -65 -278 -65q-68 0 -113.5 36t-33.5 94q24 109 207 143q24 3 71 15q200 58 323 362q-189 -143 -404 -143q-568 0 -404 773q13 63 61 104q54 49 140 49q134 0 139 -138q-14 -140 -29 -280q-15 -170 78 -222q33 -18 57 -18q35 0 92 24q109 42 210 165 q86 103 140 224q48 107 74 140q59 71 162 71q136 0 148 -148q6 -74 -28 -234q-73 -343 -165 -517q-149 -294 -447 -435zM1581 1434q-77 0 -136 41q-68 46 -54 112q14 62 100 115.5t160 53.5q89 0 125 -51q32 -44 18 -109q-13 -63 -67 -109q-61 -53 -146 -53zM1045 1417 q-71 17 -126.5 50t-42.5 96q14 65 65 111q60 58 148 58q77 0 137 -44t47 -109q-14 -63 -81 -112.5t-147 -49.5z" />
<glyph unicode="&#x2c6;" horiz-adv-x="1463" d="M1330 1417q-75 0 -248 230q-82 -67 -164 -133q-121 -92 -167 -92q-68 0 -117.5 38t-36.5 96q20 93 219.5 227.5t315.5 134.5q112 0 225 -102q58 -55 157 -181q22 -34 14 -75q-12 -55 -69 -99t-129 -44z" />
<glyph unicode="&#x2da;" horiz-adv-x="1341" d="M980 1417q-179 0 -305 97q-134 102 -102 249q28 135 183 238t321 103q201 0 326 -94q140 -102 105 -264q-31 -147 -195 -242q-152 -87 -333 -87zM1026 1830q-29 0 -66 -22.5t-41 -42.5q-19 -89 104 -89q45 0 88.5 20.5t48.5 44.5q8 39 -31 64t-103 25z" />
<glyph unicode="&#x2dc;" horiz-adv-x="1533" d="M1183 1417q-87 0 -135 46q-24 24 -65 102q-23 44 -47 44q-27 0 -63 -37q-23 -29 -47 -60q-63 -72 -122 -72q-65 0 -111.5 38t-34.5 94q26 124 146.5 204.5t275.5 80.5q103 0 160 -38q46 -30 82 -104q21 -39 35 -39q34 0 62 49q44 70 65 89q50 50 142 50q68 0 110.5 -37 t31.5 -93q-30 -140 -169.5 -228.5t-315.5 -88.5z" />
<glyph unicode="&#x2000;" horiz-adv-x="1052" />
<glyph unicode="&#x2001;" horiz-adv-x="2104" />
<glyph unicode="&#x2002;" horiz-adv-x="1052" />
<glyph unicode="&#x2003;" horiz-adv-x="2104" />
<glyph unicode="&#x2004;" horiz-adv-x="701" />
<glyph unicode="&#x2005;" horiz-adv-x="526" />
<glyph unicode="&#x2006;" horiz-adv-x="350" />
<glyph unicode="&#x2007;" horiz-adv-x="350" />
<glyph unicode="&#x2008;" horiz-adv-x="263" />
<glyph unicode="&#x2009;" horiz-adv-x="420" />
<glyph unicode="&#x200a;" horiz-adv-x="116" />
<glyph unicode="&#x2010;" horiz-adv-x="1444" d="M1113 428q-82 0 -247 -7.5t-247 -7.5q-285 0 -254 145q11 53 67.5 95.5t125.5 42.5q27 0 79.5 -2.5t79.5 -2.5q75 0 227.5 8t227.5 8t113.5 -41t26.5 -99q-13 -58 -70 -98.5t-129 -40.5z" />
<glyph unicode="&#x2011;" horiz-adv-x="1444" d="M1113 428q-82 0 -247 -7.5t-247 -7.5q-285 0 -254 145q11 53 67.5 95.5t125.5 42.5q27 0 79.5 -2.5t79.5 -2.5q75 0 227.5 8t227.5 8t113.5 -41t26.5 -99q-13 -58 -70 -98.5t-129 -40.5z" />
<glyph unicode="&#x2012;" horiz-adv-x="1444" d="M1113 428q-82 0 -247 -7.5t-247 -7.5q-285 0 -254 145q11 53 67.5 95.5t125.5 42.5q27 0 79.5 -2.5t79.5 -2.5q75 0 227.5 8t227.5 8t113.5 -41t26.5 -99q-13 -58 -70 -98.5t-129 -40.5z" />
<glyph unicode="&#x2013;" horiz-adv-x="1444" d="M1113 428q-82 0 -247 -7.5t-247 -7.5q-285 0 -254 145q11 53 67.5 95.5t125.5 42.5q27 0 79.5 -2.5t79.5 -2.5q75 0 227.5 8t227.5 8t113.5 -41t26.5 -99q-13 -58 -70 -98.5t-129 -40.5z" />
<glyph unicode="&#x2014;" horiz-adv-x="1783" d="M1444 428q-136 0 -407 -7.5t-408 -7.5q-285 0 -254 145q11 53 68 95.5t125 42.5q27 0 78.5 -2.5t80.5 -2.5q130 0 388.5 8t387.5 8q75 0 113.5 -41t26.5 -99q-13 -58 -69 -98.5t-130 -40.5z" />
<glyph unicode="&#x2018;" horiz-adv-x="807" d="M670 928q-94 0 -130 65q-139 198 -123 272q12 58 76.5 96t132.5 38q91 0 129 -64q34 -55 70 -110q66 -116 56 -162q-12 -58 -77.5 -96.5t-133.5 -38.5z" />
<glyph unicode="&#x2019;" horiz-adv-x="788" d="M678 973q-72 -67 -150 -67q-70 0 -117 41t-35 99q7 33 100 147q81 102 118 138q72 68 164 68q70 0 111.5 -40t29.5 -96q-8 -41 -98 -152q-75 -96 -123 -138z" />
<glyph unicode="&#x201a;" horiz-adv-x="787" d="M432 -183q-72 -66 -150 -66q-70 0 -116.5 41t-34.5 99q7 32 99 147q82 102 118 138q73 68 165 68q70 0 111.5 -40t29.5 -96q-9 -41 -98 -152q-76 -96 -124 -139z" />
<glyph unicode="&#x201c;" horiz-adv-x="1466" d="M1282 916q-58 0 -109 39.5t-114 133.5q-74 111 -63 164q13 58 78 99t135 41q77 0 122 -62.5t132 -180.5q33 -44 23 -90q-12 -56 -73 -100t-131 -44zM731 928q-96 -12 -129 65q-139 198 -123 272q12 58 76.5 96t132.5 38q90 0 128 -64l70 -110q67 -116 57 -162 q-12 -58 -78 -96.5t-134 -38.5z" />
<glyph unicode="&#x201d;" horiz-adv-x="1391" d="M1207 963q-79 -64 -159 -64q-70 0 -114 43t-32 99q6 29 38 65q62 65 175 198q76 95 184 95q68 0 111.5 -40t31.5 -96q-10 -48 -101 -159q-81 -99 -134 -141zM739 973q-72 -67 -150 -67q-70 0 -117 41t-35 99q7 33 100 147q81 102 118 138q72 68 164 68q70 0 112 -40 t30 -96q-8 -41 -99 -152q-76 -96 -123 -138z" />
<glyph unicode="&#x201e;" horiz-adv-x="1389" d="M961 -191q-78 -63 -158 -63q-70 0 -114 42.5t-32 98.5q6 29 38 65q62 65 175 198q76 96 184 96q68 0 111.5 -40t31.5 -97q-10 -48 -101 -158q-81 -99 -135 -142zM494 -181q-73 -66 -151 -66q-70 0 -116.5 40.5t-34.5 98.5q7 33 99 147q82 103 119 138q72 69 164 69 q70 0 112 -40t30 -97q-9 -41 -99 -152q-76 -95 -123 -138z" />
<glyph unicode="&#x2022;" horiz-adv-x="1457" d="M804 201q-247 0 -372 117t-82 315q35 166 168 270q143 112 352 112q230 0 388 -122q167 -132 128 -316q-34 -159 -210 -267.5t-372 -108.5z" />
<glyph unicode="&#x2026;" horiz-adv-x="1985" d="M1546 -34q-75 0 -128 41.5t-39 105.5t62 112q61 58 152 58q76 0 136 -44t47 -109q-14 -63 -81 -113.5t-149 -50.5zM1029 2q-84 -36 -137.5 26t-39.5 127q13 62 99.5 115.5t160.5 53.5q89 0 125 -51q32 -44 18 -109t-79 -113.5t-147 -48.5zM428 -34q-70 36 -129.5 62.5 t-46.5 90.5q13 62 98.5 115.5t161.5 53.5q87 0 125 -51q32 -44 18 -109t-78.5 -113.5t-148.5 -48.5z" />
<glyph unicode="&#x202f;" horiz-adv-x="420" />
<glyph unicode="&#x2039;" horiz-adv-x="1176" d="M954 785q-80 -39 -213 -102q-64 -34 -155 -86q51 -42 162 -97q123 -63 165 -92q71 -50 59 -109q-12 -55 -71.5 -101t-131.5 -46q-32 0 -80 20q-180 77 -312 173q-192 140 -168 252q25 118 199 220q152 76 302 149q66 44 194 109q30 12 68 12q71 0 116 -38.5t32 -96.5 q-17 -82 -166 -167z" />
<glyph unicode="&#x203a;" horiz-adv-x="1183" d="M991 367q-113 -56 -334 -176q-78 -46 -134 -46q-72 0 -115 43.5t-31 99.5q13 62 131 135q55 31 217 111q114 57 118 77q5 24 -135 73q-112 40 -199 96q-125 82 -110 152q12 56 72 97t130 41q49 0 119 -37q53 -29 103 -60q138 -67 273 -135q147 -96 119 -225 q-27 -128 -224 -246z" />
<glyph unicode="&#x205f;" horiz-adv-x="526" />
<glyph unicode="&#x20ac;" horiz-adv-x="2135" d="M1946 949q-94 0 -145 90.5t-153 90.5q-92 0 -209 -52t-210 -126q180 16 303 16q68 0 108.5 -42t29.5 -95q-12 -56 -70.5 -96t-128.5 -40q-57 0 -269 -19q-59 -5 -207 -17q-31 -58 -49 -118q228 7 382 7q71 0 109.5 -38.5t26.5 -94.5q-20 -94 -122 -123q-57 -17 -193 -17 q-64 0 -127 -2q72 -34 200 -34q104 0 249 24l248 44q13 2 26 2q70 0 108.5 -43.5t26.5 -98.5q-17 -83 -144 -123q-241 -78 -579 -78q-208 0 -352 70q-160 77 -206 223q-166 -5 -270 -5q-68 0 -110 40.5t-30 94.5q21 101 171 132q82 17 247 17q12 44 35 99h-121 q-127 0 -179 18q-90 31 -71 120q11 54 70 94.5t127 40.5q22 0 61 -2h63q111 0 210 7q157 210 377 338q251 146 521 146q157 0 279 -66q130 -72 158 -188q10 -37 4 -65q-12 -56 -67.5 -93.5t-127.5 -37.5z" />
<glyph unicode="&#x2122;" horiz-adv-x="2415" d="M1251 1179h-174q-25 -114 -76 -355q-62 -227 -88 -350q-38 -179 -183 -179q-54 0 -89 30t-25 76q9 41 44 205q74 244 113 428q11 51 24 121q-153 -12 -231 -12q-58 0 -89.5 30t-22.5 76q18 84 139 110q57 13 196 13q83 0 252 13.5t253 13.5q145 0 159 -71q55 60 137 60 q77 0 102 -59q14 -32 14 -109q-2 -157 17 -375q104 210 249 442q62 101 163 101q90 0 108 -69q8 -36 -3 -128q-13 -100 -1 -237q13 -118 27 -235q9 -105 12 -146q2 -83 -13 -153q-10 -50 -47 -84q-46 -41 -110 -41q-86 0 -111 57q-12 32 -10 112q5 89 -14 323 q-100 -190 -162 -326q-75 -166 -190 -166q-109 0 -131 132q-29 184 -41 382q-101 -201 -159 -345q-34 -78 -63 -112q-50 -57 -133 -57q-58 0 -88.5 34.5t-21.5 76.5q22 103 384 789q-44 -16 -117 -16z" />
<glyph unicode="&#xe000;" horiz-adv-x="1400" d="M0 1400h1400v-1400h-1400v1400z" />
<glyph horiz-adv-x="1400" d="M0 0z" />
</font>
</defs>
</svg>
