<?xml version="1.0" standalone="no"?>
<!DOCTYPE svg PUBLIC "-//W3C//DTD SVG 1.1//EN" "http://www.w3.org/Graphics/SVG/1.1/DTD/svg11.dtd" >
<svg xmlns="http://www.w3.org/2000/svg">
<metadata></metadata>
<defs>
<font id="bellotaitalic" horiz-adv-x="612" >
<font-face units-per-em="1000" ascent="800" descent="-200" />
<missing-glyph horiz-adv-x="291" />
<glyph unicode="&#xfb01;" horiz-adv-x="478" d="M-27 -260l115 722q25 167 117 222q33 18 78 18q76 0 107 -47l-47 -41q-20 36 -69 36q-59 0 -91 -55q-26 -45 -40 -130l-2 -16h219l-59 -369v-4q0 -13 8 -22t21 -9q19 0 31 15l41 -30q-34 -40 -81 -40q-32 0 -54 21t-22 53q0 11 1 16l50 317h-164l-104 -657h-55z" />
<glyph unicode="&#xfb02;" horiz-adv-x="530" d="M-19 -262l114 722q14 82 41 137.5t76 84.5q33 18 78 18q59 0 91.5 -29.5t32.5 -85.5q0 -13 -1 -19l-77 -485v-4q0 -13 8 -22t21 -9q19 0 31 15l41 -30q-9 -11 -21 -20t-28 -14.5t-32 -5.5q-32 0 -54 21t-22 54q0 10 1 15l77 484q3 38 -17 60.5t-59 22.5q-49 0 -78 -35 q-27 -36 -42 -90l-45 -272h148l-8 -52h-148l-73 -461h-55z" />
<glyph horiz-adv-x="1000" />
<glyph horiz-adv-x="1000" />
<glyph unicode="&#xd;" horiz-adv-x="1000" />
<glyph unicode=" "  horiz-adv-x="291" />
<glyph unicode="&#x09;" horiz-adv-x="291" />
<glyph unicode="&#xa0;" horiz-adv-x="291" />
<glyph unicode="!" horiz-adv-x="189" d="M-4 39q0 22 17.5 39t39.5 17q18 0 30 -12t12 -30q0 -21 -17.5 -37.5t-39.5 -16.5q-18 0 -30 11.5t-12 28.5zM37 159l76 545h76l-96 -545h-56z" />
<glyph unicode="&#x22;" horiz-adv-x="314" d="M99 492l21 192h72l-41 -192h-52zM209 492l21 192h72l-41 -192h-52z" />
<glyph unicode="#" horiz-adv-x="596" d="M19 184l8 52h114l31 196h-114l8 52h114l24 153h56l-24 -153h167l24 153h56l-24 -153h114l-8 -52h-114l-31 -196h114l-8 -52h-114l-25 -154h-54l25 154h-169l-25 -154h-54l25 154h-116zM197 236h167l31 196h-167z" />
<glyph unicode="$" horiz-adv-x="542" d="M-3 64l40 48q82 -56 159 -65l43 275q-31 11 -52 21.5t-43.5 28t-33.5 43t-11 59.5q0 121 122 171q30 12 72 17l14 88h58l-14 -88q102 -8 184 -72l-41 -48q-27 18 -65 39q-37 18 -87 25l-38 -242q85 -26 125 -59q44 -41 44 -99q0 -108 -83 -166q-58 -41 -145 -48l-10 -62 h-58l10 61q-116 9 -190 73zM162 489q0 -22 7 -39t21 -29.5t26.5 -20t32.5 -16.5l36 224q-36 -3 -51 -9.5t-32 -22.5q-40 -36 -40 -87zM254 46q26 2 54 10q46 13 74 47.5t28 86.5q0 21 -7.5 38t-17 27.5t-28 20.5t-30.5 14.5t-33 12.5z" />
<glyph unicode="%" horiz-adv-x="737" d="M78 533q0 16 4 30q7 47 35 83t69 54q27 11 55 11q53 0 84.5 -35t31.5 -90q0 -16 -4 -30q-4 -30 -19 -57q-32 -58 -86 -79q-27 -12 -55 -12q-53 0 -84 35t-31 90zM128 541q0 -36 19.5 -59.5t53.5 -23.5q30 0 53 17.5t36 42.5q4 7 15 45q2 14 2 17q0 23 -9 41.5t-26 29 t-39 10.5q-59 0 -89 -60q-4 -7 -15 -45q-1 -5 -1 -15zM169 0l323 653h58l-322 -653h-59zM387 115q0 76 59 135q24 21 48 32q28 11 56 11q54 0 90 -43q26 -36 26 -79q0 -49 -23 -90q-32 -58 -86 -79q-27 -12 -55 -12q-53 0 -84 35t-31 90zM437 121q0 -35 20 -58t53 -23 q46 0 75.5 37.5t29.5 86.5q0 34 -20 56.5t-53 22.5q-55 0 -90 -60q-15 -30 -15 -62z" />
<glyph unicode="&#x26;" horiz-adv-x="636" d="M24 133q0 107 89 185q27 22 54 34q-33 47 -33 97q0 125 123 173q36 12 81 12q55 0 99 -48q13 -16 18 -38l-44 -34q-11 34 -32 49.5t-59 15.5q-37 0 -62 -12t-38.5 -33.5t-18.5 -53.5q-1 -6 -1 -18q0 -36 29 -79q14 -21 35 -42q8 -7 38 -40l129 -142q49 66 65 158l6 40h53 l-7 -42q-15 -106 -83 -192l77 -85l-42 -41l-76 82q-95 -89 -230 -89q-131 0 -164 103q-6 18 -6 40zM82 148q0 -50 33.5 -78t86.5 -28q109 0 188 72l-127 138l-63 62q-53 -23 -80 -62q-38 -54 -38 -104z" />
<glyph unicode="'" horiz-adv-x="193" d="M93 492l21 192h72l-41 -192h-52z" />
<glyph unicode="(" horiz-adv-x="370" d="M25 201q0 117 44 227q41 106 116.5 188.5t176.5 133.5l18 -43q-106 -57 -187 -173q-49 -73 -77 -147.5t-28 -165.5q0 -151 84 -266q34 -44 78 -73l-32 -43q-193 116 -193 362z" />
<glyph unicode=")" horiz-adv-x="370" d="M-26 -118q106 57 187 173q49 73 77 147t28 166q0 151 -84 266q-34 44 -78 73l32 43q193 -116 193 -362q0 -119 -44 -227q-52 -135 -165 -236q-60 -52 -128 -86z" />
<glyph unicode="*" horiz-adv-x="378" d="M76 562l28 57l99 -41l12 116h60l-25 -117l113 42l8 -57l-108 -29l54 -81l-54 -34l-47 94l-77 -96l-42 36l81 82z" />
<glyph unicode="+" horiz-adv-x="432" d="M18 268l8 51h158l25 160h56l-25 -160h158l-8 -51h-158l-26 -161h-56l26 161h-158z" />
<glyph unicode="," horiz-adv-x="192" d="M-26 -67q24 21 33 40t14 59l3 20q3 14 13 23.5t25 9.5q14 0 21.5 -9.5t5.5 -23.5l-4 -20q-7 -49 -25.5 -78.5t-56.5 -53.5z" />
<glyph unicode="-" horiz-adv-x="436" d="M58 277l9 57h297l-9 -57h-297z" />
<glyph unicode="." horiz-adv-x="206" d="M13 32q0 20 15 34.5t34 14.5q16 0 26.5 -10t10.5 -26q0 -19 -15 -34t-35 -15q-16 0 -26 10.5t-10 25.5z" />
<glyph unicode="/" horiz-adv-x="342" d="M-36 -70l349 820h63l-348 -820h-64z" />
<glyph unicode="0" horiz-adv-x="654" d="M47 253q0 183 118 314q90 96 212 96q29 0 49 -3.5t30 -7.5t29 -15q56 -31 86 -91.5t30 -145.5q0 -111 -47 -207q-59 -127 -168 -177q-52 -26 -115 -26q-121 0 -182 97q-42 70 -42 166zM110 258q0 -68 22.5 -118t65.5 -74q36 -21 83 -21q22 0 37.5 3t23.5 6t26 12 q66 31 107.5 99.5t57.5 160.5q6 36 6 69q0 139 -88 193q-37 20 -81 20q-95 0 -164 -78q-31 -34 -57 -89q-39 -91 -39 -183z" />
<glyph unicode="1" horiz-adv-x="363" d="M100 561q27 0 53 10q48 15 119 59l64 39h8l-106 -669h-61l91 573q-42 -31 -78.5 -47.5t-84.5 -16.5z" />
<glyph unicode="2" horiz-adv-x="538" d="M4 0l2 13q10 58 42 105q28 40 78 84q49 41 95 71q71 47 95 65q43 33 74 69q41 49 41 103q0 51 -31.5 79.5t-83.5 28.5q-41 0 -77 -15q-57 -23 -85 -72l-20 -32l-4 -6l-43 24l32 48q11 16 30 36q16 16 44 31.5t55 23.5q33 9 73 9q102 0 144 -57q18 -25 20 -59q2 -12 2 -32 q0 -105 -108 -197q-34 -29 -90 -65.5t-83 -56.5q-48 -35 -78 -65q-33 -34 -51 -76h372l-9 -57h-436z" />
<glyph unicode="3" horiz-adv-x="559" d="M4 58l32 49q45 -28 74 -40q46 -20 101 -20q85 0 141 37q65 44 65 121q0 62 -38 95t-102 36h-110l8 56h109q23 0 46 9q27 12 45 25q20 16 36 38q21 36 21 65q0 33 -26 56q-32 29 -90 29q-67 0 -149 -50l-21 48l11 6q44 24 67 34q49 20 105 20q86 0 133 -47q36 -36 36 -85 q0 -43 -29 -91q-40 -57 -100 -77q83 -19 108 -122q4 -22 4 -40q0 -101 -76.5 -161.5t-192.5 -60.5q-64 0 -123 24q-39 16 -85 46z" />
<glyph unicode="4" horiz-adv-x="537" d="M0 126l8 50l281 484h67l-276 -477h247l36 222h62l-36 -222h84l-9 -57h-84l-20 -129h-62l20 129h-318z" />
<glyph unicode="5" horiz-adv-x="520" d="M14 66l20 53q40 -32 74 -50q37 -19 81 -19q52 0 81.5 11.5t61.5 40.5q26 24 43 61q26 52 26 102q0 57 -46 89q-43 30 -133 30q-80 0 -136 -20l-4 4l44 278q106 1 217 3q5 0 53.5 1.5t64.5 2.5l-9 -57l-117 -4h-157l-25 -160q14 2 34 4.5t26 3.5h28q111 0 168 -54 q31 -31 42 -69q7 -28 7 -54q0 -63 -38 -134q-24 -44 -61 -77q-69 -58 -173 -58q-57 0 -100 23q-32 16 -41 23q-24 17 -31 26z" />
<glyph unicode="6" horiz-adv-x="571" d="M29 181q0 103 58 211q89 157 242 223q78 34 164 34l-9 -53q-112 0 -206 -63q-96 -64 -166 -202q41 42 92 65q52 23 100 23q94 0 151 -67q46 -54 46 -124q0 -114 -96 -198q-78 -67 -172 -67q-102 0 -157 71q-47 56 -47 147zM86 152q15 -98 101 -127q26 -9 54 -9 q58 0 106 31.5t74 76.5t26 95q0 21 -5 41q-10 34 -31 56q-20 25 -50 37q-29 13 -65 13q-34 0 -69 -13q-69 -27 -112 -95q-29 -51 -29 -106z" />
<glyph unicode="7" horiz-adv-x="487" d="M74 592l9 57h103l99 2h103l113 2l-1 -8l-357 -645h-64l334 596q-29 -1 -111 -4h-228z" />
<glyph unicode="8" horiz-adv-x="556" d="M27 148q0 84 60 150q24 29 89 74q-32 20 -49 50q-13 23 -13 51q0 88 71 145q29 23 64 35q38 13 78 13q85 0 131 -50q34 -37 34 -89q0 -64 -46 -110q-12 -14 -35 -32q-21 -16 -35 -24q103 -51 103 -145q0 -106 -81 -174q-70 -58 -176 -58q-90 0 -142.5 41t-52.5 123z M89 158q0 -47 26 -78q36 -42 114 -42q79 0 126.5 39.5t59.5 106.5q2 16 2 22q0 29 -11.5 48t-34.5 38q-17 14 -57 29q-29 11 -64 21l-21 6q-10 -7 -28 -20t-21 -16q-12 -9 -39 -36q-18 -18 -32 -42q-20 -36 -20 -76zM177 485q0 -35 32 -59q18 -13 39 -19l53 -18l23 -7 q45 29 67 51q19 19 28.5 37.5t9.5 48.5q0 44 -30 68t-79 24q-58 0 -100.5 -35t-42.5 -91z" />
<glyph unicode="9" horiz-adv-x="570" d="M58 387q0 62 35 123q23 40 61 72t79 49q45 18 92 18q101 0 158 -72q30 -38 40 -84q7 -28 7 -58q0 -31 -5 -58q-27 -166 -155 -288q-64 -59 -138 -92q-78 -34 -162 -34h-4l9 53q54 0 110 18q53 17 102 52q97 68 165 201q-73 -65 -146 -86q-27 -8 -54 -8q-43 0 -82 17 q-33 14 -66 49q-46 54 -46 128zM112 392q0 -52 34 -95q21 -25 50 -37q31 -14 66 -14q72 0 134 52q76 68 76 162q-11 69 -55 102q-38 34 -100 34q-74 0 -132 -52q-27 -23 -46 -54q-19 -32 -25 -69q-2 -20 -2 -29z" />
<glyph unicode=":" horiz-adv-x="215" d="M13 32q0 20 15 34.5t34 14.5q16 0 26.5 -10t10.5 -26q0 -19 -15 -34t-35 -15q-16 0 -26 10.5t-10 25.5zM13 426q0 20 15 34.5t34 14.5q16 0 26.5 -10t10.5 -26q0 -19 -15 -34t-35 -15q-16 0 -26 10.5t-10 25.5z" />
<glyph unicode=";" horiz-adv-x="199" d="M-26 -67q24 21 33 40t14 59l3 20q3 14 13 23.5t25 9.5q14 0 21.5 -9.5t5.5 -23.5l-4 -20q-7 -49 -25.5 -78.5t-56.5 -53.5zM13 426q0 20 15 34.5t34 14.5q11 0 19.5 -4.5t13 -13t4.5 -18.5q0 -19 -15 -34t-35 -15q-16 0 -26 10.5t-10 25.5z" />
<glyph unicode="&#x3c;" horiz-adv-x="389" d="M14 265l296 185l24 -47l-217 -136l176 -138l-42 -49z" />
<glyph unicode="=" horiz-adv-x="459" d="M44 187l8 52h352l-8 -52h-352zM69 347l9 52h352l-9 -52h-352z" />
<glyph unicode="&#x3e;" horiz-adv-x="389" d="M30 127l217 136l-176 138l42 49l236 -185l-295 -185z" />
<glyph unicode="?" horiz-adv-x="463" d="M79 562q0 65 77 108q55 33 126 33q40 0 75 -16t58 -40q40 -43 40 -108q0 -64 -33 -121q-22 -33 -50 -56t-68 -45l-64 -35q-31 -18 -50 -38q-22 -24 -26 -51q-3 -18 -2 -43l-54 -11q-2 43 8.5 76.5t33.5 58t46.5 40t58.5 32.5q36 18 63 37q34 24 53 50q30 43 30 99 q0 44 -31 78q-17 18 -41 29q-27 11 -55 11q-74 0 -125 -44q-14 -12 -16 -30q0 -1 -1 -3v-2q0 -24 26 -24q5 0 6 1l6 -52l-13 -2h-8q-30 0 -50 18.5t-20 49.5zM88 45q0 22 17.5 38.5t38.5 16.5q18 0 29.5 -12t11.5 -29q0 -21 -17.5 -37.5t-38.5 -16.5q-18 0 -29.5 11.5 t-11.5 28.5z" />
<glyph unicode="@" horiz-adv-x="703" d="M33 177q0 23 5 55q21 138 116 227t232 89q100 0 163.5 -45.5t84.5 -128.5q7 -35 7 -63q0 -78 -31 -135t-86 -78q-28 -11 -52 -11q-76 0 -86 60q-45 -46 -101 -46q-48 0 -74.5 35t-26.5 89q0 51 22 91q36 56 86 78q27 12 56 12q10 0 33 -2.5t32 -2.5h44l-33 -207 q0 -30 14.5 -46t40.5 -16q31 0 60 29q48 48 48 143q0 134 -113 180q-43 17 -95 17q-108 0 -190 -75q-78 -71 -96 -191q-4 -24 -4 -51q0 -67 30 -112t82 -66q42 -18 97 -18q60 0 119 13q25 4 47 12q23 7 34 12l7 -45l-40 -12q-90 -28 -175 -28q-134 0 -203 81q-54 61 -54 156 zM234 232q0 -36 14 -58.5t45 -22.5q25 0 45 15t32 35q2 3 4.5 8l3.5 7l21 135l-28 4q-11 1 -28 1q-48 0 -78.5 -36t-30.5 -88z" />
<glyph unicode="A" horiz-adv-x="775" d="M-13 71l58 11q3 -27 29 -27q21 0 33 20l361 611h19l188 -686h-64l-59 227h-295l-101 -177q-12 -22 -37.5 -38t-53.5 -16q-32 0 -55 21q-23 22 -23 54zM290 284h247l-70 268l-1 5l-3 11q-2 10 -2 17l-15 -33z" />
<glyph unicode="B" horiz-adv-x="645" d="M69 590q4 25 13.5 41t27.5 32q38 32 78 32h222q66 0 110.5 -28t60.5 -79q5 -16 5 -42q0 -65 -35 -112q-26 -35 -65 -55q-6 -3 -16 -6l-15 -5l6 -2t5.5 -1.5t3.5 -0.5l15 -6q44 -25 66 -71q14 -31 14 -68q0 -112 -87 -175q-69 -54 -196 -54q-82 0 -130 5l-52 6l101 638 h-19q-21 0 -37.5 -14.5t-19.5 -34.5h-56zM168 50l65 -3q44 -2 52 -2q105 0 157 38q64 48 64 131q0 47 -33 80q-17 19 -47 30t-67 11h-95l9 55h88q72 0 118.5 41t46.5 109q0 46 -30 71t-80 28h-154z" />
<glyph unicode="C" horiz-adv-x="740" d="M49 274q0 109 55 206q37 64 96 119q56 51 128 81q71 30 141 30q65 0 119 -22.5t76 -62.5q12 -22 12 -46q0 -43 -30 -77.5t-75 -34.5q-30 0 -52 19l41 43q12 -8 20 -8q17 0 29 15t12 33q0 20 -11 33q-21 24 -62 38.5t-87 14.5q-65 0 -125.5 -28t-103.5 -68 q-105 -96 -124 -222q-4 -24 -4 -52q0 -53 13.5 -89t41.5 -73q71 -90 195 -90q78 0 144 34q68 35 112 88l40 -31q-37 -44 -63.5 -64t-72.5 -42q-80 -40 -167 -40q-147 0 -233 106q-41 50 -56 113q-9 35 -9 77z" />
<glyph unicode="D" horiz-adv-x="805" d="M67 585q3 21 15 41q13 25 42 44.5t64 19.5h299q146 -14 214 -110q53 -70 53 -175q0 -26 -5 -63q-14 -77 -46 -139q-33 -62 -88 -111q-57 -50 -121 -76q-37 -15 -78 -20.5t-123 -5.5q-67 0 -147 5l-28 2l-19 3l101 634h-25q-19 -3 -34 -17t-18 -32h-56zM168 50 q34 -2 75 -2q2 0 11 -1t27 -1.5t42 -0.5q100 0 155 21q53 21 100 63q46 42 71 92q45 85 45 178q0 40 -8.5 73.5t-24.5 59.5t-37.5 45t-48.5 32q-46 22 -107 25h-207z" />
<glyph unicode="E" horiz-adv-x="648" d="M66 579q3 18 14 40q38 65 106 65h461l-9 -56h-387l-38 -238h267l-9 -57h-267l-44 -276h387l-9 -57h-448l100 628h-12q-20 0 -36.5 -14.5t-19.5 -34.5h-56z" />
<glyph unicode="F" horiz-adv-x="608" d="M66 578q3 18 14 40q23 40 65 57q22 8 41 8h461l-9 -56h-387l-38 -238h267l-9 -57h-267l-53 -333h-61l100 628h-12q-21 0 -37 -14.5t-19 -34.5h-56z" />
<glyph unicode="G" horiz-adv-x="751" d="M47 268q0 27 5 59q11 74 51 145q36 64 96 119q124 111 268 111q41 0 78 -9t68 -28q57 -38 57 -89q0 -55 -38 -87q-31 -26 -66 -26q-30 0 -51 18l40 43q10 -7 19 -7q19 0 30 14t11 33q0 18 -10 30q-17 25 -57.5 39t-87.5 14q-125 0 -229 -95q-102 -94 -125 -224 q-4 -36 -4 -52q0 -34 8 -68q14 -53 49 -97q34 -42 82 -65t105 -23q73 0 130.5 34t95.5 89q22 34 36 78l12 79h57l-76 -481q-4 -21 -12 -35q-20 -33 -59 -51q-18 -7 -37 -7q-49 0 -69 41l53 33q8 -15 26 -15q32 0 41 34l41 260q-100 -113 -250 -113q-65 0 -123 28t-97 76 q-40 49 -57 113q-11 42 -11 82z" />
<glyph unicode="H" horiz-adv-x="700" d="M77 648q35 41 84 41q37 0 58.5 -23t21.5 -58q0 -8 -1 -12l-34 -212h369l48 300h61l-109 -684h-61l52 327h-369l-52 -327h-62l95 596v4q0 12 -7 19.5t-19 7.5q-18 0 -29 -14z" />
<glyph unicode="I" horiz-adv-x="204" d="M14 0l109 684h61l-109 -684h-61z" />
<glyph unicode="J" horiz-adv-x="468" d="M15 142q0 18 3 37l32 -2q9 0 21 -2h1l2 -1l-1 -15q0 -2 -0.5 -7.5t0.5 -14.5q0 -10 6 -26.5t12 -25.5q29 -32 87 -32q52 0 91 31q33 33 49 91q15 84 39.5 242t31.5 200q-26 -13 -56 -13q-22 0 -46 6q-4 1 -13.5 4.5t-17.5 7t-9 3.5l-25 10q-16 4 -23 4q-34 0 -82 -22 l-3 1l-17 49l14 5q14 11 61 20q17 4 39 4q15 0 33 -6l48 -18q34 -11 53 -11q18 0 36 11q4 2 8.5 5.5t8.5 6.5l3 3h56l-78 -496q-6 -30 -7 -27q-1 -2 -2 -8t-3.5 -13.5t-5.5 -15.5q-14 -28 -23 -42q-13 -20 -34 -39q-54 -50 -135 -50q-71 0 -112.5 38t-41.5 108z" />
<glyph unicode="K" horiz-adv-x="643" d="M15 1l108 683h61l-50 -312h43q42 1 69 13.5t50 37.5q31 31 85 106q24 33 102 155h75q-23 -32 -66 -96l-68 -96q-24 -35 -65 -84q-34 -40 -64 -61l156 -283q7 -15 25 -15q15 0 26 10.5t14 24.5h57q-11 -59 -69 -84q-19 -8 -36 -8q-24 0 -40 9q-20 11 -30 30l-160 293 q-41 -12 -85 -12q-15 0 -26 1l-49 -312h-63z" />
<glyph unicode="L" horiz-adv-x="512" d="M14 0l109 684h61l-100 -627h327l-9 -57h-388z" />
<glyph unicode="M" horiz-adv-x="1011" d="M-17 48l55 21q12 -20 26 -20q23 0 35 22l223 613h59l118 -571l5 -39l17 39l302 571h57l31 -684h-57l-23 563v38l-18 -39l-292 -562h-59l-113 561l-4 40q-36 -105 -105 -297t-86 -240q-13 -32 -38 -50q-30 -21 -58 -21t-47 15q-22 14 -28 40z" />
<glyph unicode="N" horiz-adv-x="780" d="M-13 71q0 10 1 15h56v-4q0 -14 8 -22t21 -8q14 0 25.5 10t14.5 23l95 599h38q57 -76 118 -164.5t134.5 -199.5t113.5 -169l11 -22l85 554h59l-109 -683h-18l-381 563l-11 21l-75 -499q-9 -55 -73 -82q-17 -7 -36 -7q-32 0 -54.5 21.5t-22.5 53.5z" />
<glyph unicode="O" horiz-adv-x="809" d="M48 273q0 25 5 57l3 19q10 69 47.5 134.5t88.5 111.5q122 111 269 111q146 0 232 -108q66 -80 66 -194q0 -31 -4 -55l-3 -19q-23 -141 -136 -247q-120 -110 -268 -110q-143 0 -231 106q-42 49 -58 113q-11 37 -11 81zM105 280q0 -93 56 -163q16 -19 35.5 -35t43.5 -28 t53 -19t60 -7q62 0 120 24q56 23 103 65q99 87 120 213l3 19q5 38 5 55q0 24 -10 62q-13 53 -48.5 96.5t-81.5 64.5q-50 24 -112 24q-58 0 -116 -24q-58 -23 -105 -65q-102 -92 -119 -213l-3 -19q-4 -23 -4 -50z" />
<glyph unicode="P" horiz-adv-x="609" d="M66 579q3 18 14 40q23 40 65 57q22 8 41 8h230q46 0 78 -16q32 -15 53 -44q31 -41 31 -104q0 -64 -24 -115t-61 -84q-35 -33 -75.5 -48t-105.5 -15q-13 0 -24 0.5t-17 0.5q-8 1 -13.5 2t-9.5 1h-4l9 55l92 -4q32 0 62 13q25 11 50 34t39 52q22 44 22 96q0 57 -32.5 88 t-92.5 32h-132l-100 -629h-61l100 629h-21q-21 0 -37.5 -15t-19.5 -34h-56z" />
<glyph unicode="Q" horiz-adv-x="781" d="M49 274q0 34 6 69q12 77 46 139q32 62 86 111q111 101 261 101q114 0 186 -58t94 -155q7 -32 7 -73q0 -105 -51 -205q-33 -62 -87 -112q-115 -101 -260 -101h-14q-5 1 -14 1l-72 -85l75 -27q54 -20 110 -20q44 0 101 35l18 -44q-23 -15 -39.5 -24t-29.5 -13t-21 -5 t-21 -1q-49 0 -74.5 4.5t-63.5 17.5l-93 33l-52 -61l-38 33l144 166q-53 13 -98 44q-106 82 -106 230zM111 284q0 -98 48 -156q65 -83 187 -83q100 0 171.5 49t113.5 128q44 88 44 182q0 90 -49 152q-28 39 -75.5 61t-109.5 22q-44 0 -86 -11.5t-73 -29t-55 -40.5 q-42 -39 -72 -95q-44 -81 -44 -179z" />
<glyph unicode="R" horiz-adv-x="720" d="M66 579q3 18 14 40q23 40 65 57q22 8 41 8h236q45 0 77 -17q81 -42 81 -154q0 -56 -24 -102q-30 -67 -95 -101q-35 -17 -74 -20h-12l-13 -1l12 -4q20 -7 34 -28q24 -37 67.5 -109.5t52.5 -86.5q8 -14 25 -14q10 0 21 6q10 6 13 11.5t5 16.5l57 -2q-3 -21 -17 -41 q-12 -19 -34 -32q-24 -16 -53 -16q-45 0 -69 39l-100 164q-22 38 -47 58q-25 21 -74 25l9 56h87q75 0 121.5 49t46.5 125q0 49 -21 78q-17 23 -37 33.5t-52 10.5h-150l-100 -628h-61l100 628h-19q-21 0 -37.5 -15t-19.5 -34h-56z" />
<glyph unicode="S" horiz-adv-x="559" d="M7 144l54 20q15 -57 60.5 -95.5t109.5 -38.5q72 0 128 47q29 26 42 49q24 36 24 83q0 44 -35 79q-19 18 -45 32l-52 28q-26 10 -56 28q-28 16 -53 41q-49 52 -49 98q0 83 70 141q29 23 63 36q38 14 77 14q70 0 106 -33q33 -28 33 -70q0 -50 -41 -82q-28 -21 -62 -21 q-1 0 -4 0.5t-5 0.5l12 52q9 -3 16 -0.5t11 8.5q14 14 17 29v5q0 15 -8.5 26t-22.5 17.5t-29.5 9.5t-31.5 3q-28 0 -54 -9q-27 -9 -43 -22.5t-31 -35.5q-17 -26 -17 -58q0 -17 9 -33q29 -43 76 -69q8 -5 26 -13.5t26 -13.5q1 -1 21.5 -11.5t31.5 -16.5q35 -21 57.5 -43 t33.5 -55q9 -27 9 -51q0 -62 -32 -115q-23 -38 -58.5 -68t-77.5 -45q-44 -17 -90 -17q-39 0 -75 12q-33 12 -63 35.5t-49 51.5q-24 40 -29 70z" />
<glyph unicode="T" horiz-adv-x="626" d="M79 594q10 59 68 83q15 7 35 7h464l-9 -57h-239l-100 -627h-61l100 627h-161q-15 0 -26 -9.5t-14 -23.5h-57z" />
<glyph unicode="U" horiz-adv-x="747" d="M77 650q36 43 89 43q37 0 65 -28q12 -19 16 -32q2 -6 2 -19t-1 -19l-52 -327q-4 -23 -4 -47q0 -71 35 -115q25 -30 57 -44q38 -16 82 -16q75 0 129.5 36t83.5 93q21 39 30 93l66 417h61l-66 -417q-20 -124 -105 -199q-85 -78 -206 -78t-183 77q-46 57 -46 144q0 21 5 56 l52 327v13q0 25 -31 25q-21 0 -34 -17z" />
<glyph unicode="V" horiz-adv-x="680" d="M73 623q13 28 40.5 47.5t61.5 19.5q38 0 56 -28q7 -7 12 -22l4 -15l95 -539q56 116 158.5 330t128.5 269h60l-332 -685h-58l-109 610q-3 17 -27 21q-26 0 -36 -24z" />
<glyph unicode="W" horiz-adv-x="1120" d="M74 628q11 27 37.5 46.5t59.5 19.5q31 0 52 -17.5t25 -45.5l87 -531l1 -11v-10l8 21l281 585h59l95 -585l2 -24q2 8 7 24l281 585h60l-332 -685h-59l-99 591l-286 -591h-59l-104 613q-3 23 -29 23q-23 0 -35 -24z" />
<glyph unicode="X" horiz-adv-x="668" d="M5 0l265 351l-158 333h69l136 -289l227 289h71l-263 -333l125 -286q6 -14 24 -14q14 0 24.5 9.5t14.5 22.5l57 -3q-3 -17 -14 -33q-12 -23 -36.5 -38.5t-54.5 -15.5q-35 0 -52 17q-15 11 -32 55l-102 241l-230 -306h-71z" />
<glyph unicode="Y" horiz-adv-x="632" d="M71 611q8 33 38.5 58t66.5 25q52 0 74 -48l109 -280l228 319h70l-277 -386l-46 -299h-66l50 297l-125 321q-8 17 -26 17q-13 0 -24 -9t-14 -21z" />
<glyph unicode="Z" horiz-adv-x="589" d="M-11 12l466 616h-313l8 53h406l-446 -591l33 -6q18 -4 39.5 -10t45.5 -13.5t34 -10.5q41 -11 72 -11q40 0 88 26q15 9 26 18l11 8l32 -37l-14 -12q-72 -56 -151 -56q-53 0 -142 28t-108 32l-46 -61z" />
<glyph unicode="[" horiz-adv-x="335" d="M-13 -174l146 924h238l-9 -57h-177l-128 -810h177l-9 -57h-238z" />
<glyph unicode="\" horiz-adv-x="342" d="M94 750h63l89 -820h-64z" />
<glyph unicode="]" horiz-adv-x="336" d="M-54 -174l9 57h177l128 810h-177l9 57h238l-146 -924h-238z" />
<glyph unicode="^" horiz-adv-x="454" d="M45 363l215 252h20l135 -252l-56 -35l-106 196l-165 -194z" />
<glyph unicode="_" horiz-adv-x="579" d="M-7 -133l9 55h440l-9 -55h-440z" />
<glyph unicode="`" horiz-adv-x="260" d="M85 677l43 49l139 -125l-28 -34z" />
<glyph unicode="a" d="M35 190q0 84 38 160q50 99 142 138q48 20 99 20q66 0 129 -9h55l-66 -419v-4q0 -13 9 -22t21 -9q18 0 31 16l40 -31q-31 -40 -80 -40q-33 0 -55 22t-22 56q-59 -78 -164 -78q-99 0 -145 75q-32 46 -32 125zM93 202q0 -104 62 -142q26 -18 65 -18q98 0 150 82q18 27 24 64 l41 260q-21 0 -52 4t-76 4q-83 0 -137 -57q-77 -73 -77 -197z" />
<glyph unicode="b" horiz-adv-x="542" d="M16 10l113 716h55l-46 -293q20 24 33.5 34t37.5 21q43 20 91 20q99 0 145 -75q32 -49 32 -125q0 -75 -27 -138t-71 -105q-78 -75 -181 -75q-118 0 -182 20zM77 51l52 -5q31 -4 76 -4q78 0 138 57q76 76 76 196q0 100 -62 144q-28 17 -65 17q-31 0 -59.5 -10t-49 -26 t-35.5 -36q-18 -24 -27 -56z" />
<glyph unicode="c" horiz-adv-x="520" d="M35 181q0 149 94 252q76 79 170 79q58 0 97.5 -22.5t55.5 -65.5q6 -18 6 -38q0 -17 -2 -26h-57q2 14 2 19q0 28 -15 47t-39 28t-55 9q-75 0 -133 -72q-51 -66 -64 -155q-4 -32 -4 -45q0 -70 38 -107.5t108 -37.5q63 0 163 48l20 -42q-94 -58 -192 -58q-193 0 -193 187z " />
<glyph unicode="d" d="M35 190q0 84 38 160q50 99 142 138q48 20 99 20q66 0 129 -9l37 228h55l-103 -647v-4q0 -13 9 -22t21 -9q18 0 31 16l40 -31q-31 -40 -80 -40q-33 0 -55 22t-22 56q-59 -78 -164 -78q-99 0 -145 75q-32 46 -32 125zM93 202q0 -104 62 -142q26 -18 65 -18q98 0 150 82 q18 27 24 64l41 258q-33 10 -128 10q-83 0 -137 -57q-77 -73 -77 -197z" />
<glyph unicode="e" horiz-adv-x="521" d="M34 175q0 110 46 190t125 122q43 21 93 21q58 0 98.5 -23t53.5 -65q7 -17 7 -41q0 -50 -25.5 -87t-64.5 -58q-62 -34 -157 -34h-118q-3 -79 31.5 -118.5t111.5 -39.5q30 0 63 9t48.5 15.5t52.5 23.5l19 -42q-94 -58 -191 -58q-193 0 -193 185zM97 252h121q182 0 182 130 q0 18 -5.5 27.5t-19.5 22.5q-30 27 -85 27q-68 0 -126 -65q-55 -61 -67 -142z" />
<glyph unicode="f" horiz-adv-x="399" d="M-29 -260l121 762q25 167 117 222q33 18 78 18q59 0 92 -29t33 -85q0 -18 -2 -28q-13 -88 -72.5 -136.5t-156.5 -48.5h-48l-26 -163h148l-8 -52h-148l-73 -460h-55zM141 467h48q71 0 112.5 34.5t51.5 98.5q2 12 2 17q0 17 -5 30.5t-14.5 23t-24 14.5t-32.5 5 q-56 0 -92 -55q-26 -45 -40 -130z" />
<glyph unicode="g" horiz-adv-x="542" d="M38 206q0 137 100 229q83 74 186 74q26 0 62 -3l59 -7h53l-96 -611q-6 -32 -15 -56t-24 -43t-36 -35q-46 -35 -108 -35q-55 0 -86.5 36.5t-31.5 93.5q0 87 66 145q-36 9 -63 33q-25 22 -43 59q-23 48 -23 120zM91 206q0 -97 60 -144q25 -20 65 -20q48 0 103 39 q40 32 57 58q15 21 19 40l43 271l-27 2l-67 4h-33q-65 0 -113.5 -36t-77.5 -88q-29 -54 -29 -126zM154 -146q0 -25 17 -51q25 -31 61 -31q52 0 78 29.5t38 82.5l29 185q-22 -19 -34 -29t-33.5 -23t-41.5 -19l-43 -26q-34 -21 -52.5 -48t-18.5 -70z" />
<glyph unicode="h" horiz-adv-x="593" d="M15 3l115 726h55l-49 -306q76 88 177 88q73 0 109.5 -29t36.5 -93q0 -18 -3 -39l-43 -268v-4q0 -13 8 -21.5t21 -8.5q21 0 31 15l41 -31q-33 -39 -81 -39q-32 0 -54 21t-22 53q0 10 1 15l42 265q2 11 2 29q0 83 -97 83q-54 0 -95 -26q-38 -25 -84 -75l-56 -355h-55z" />
<glyph unicode="i" horiz-adv-x="237" d="M15 64q0 11 1 16l67 420h55l-67 -420v-4q0 -13 8 -22t21 -9q19 0 31 15l41 -30q-34 -40 -81 -40q-32 0 -54 21t-22 53zM106 659q0 20 15 34.5t34 14.5q16 0 26.5 -10t10.5 -26q0 -19 -15 -34t-35 -15q-16 0 -26 10.5t-10 25.5z" />
<glyph unicode="j" horiz-adv-x="244" d="M-74 -220l50 30q9 -15 27 -15q14 0 25.5 10.5t13.5 24.5l107 671h55l-107 -671q-9 -59 -67 -83q-15 -7 -36 -7q-46 0 -68 40zM171 659q0 10 4 19t11 15.5t16 10.5t18 4q16 0 26.5 -10t10.5 -26q0 -19 -15 -34t-35 -15q-10 0 -18.5 5t-13 13t-4.5 18z" />
<glyph unicode="k" horiz-adv-x="584" d="M15 1l115 726h55l-51 -317q66 99 173 99q44 0 74.5 -13t47 -40t16.5 -68q0 -65 -31 -104t-86 -68l68 -147q11 -11 24 -11q14 0 25 9.5t14 22.5l55 -3q-7 -34 -36.5 -60t-65.5 -26q-51 0 -70 42l-71 158h-170l-31 -200h-55zM111 253h116q111 0 149 70q8 15 16 40 q7 97 -93 97q-69 0 -124 -65q-48 -56 -64 -142z" />
<glyph unicode="l" horiz-adv-x="261" d="M25 68q0 8 1 13l102 645h55l-102 -645v-4q0 -13 8 -22t21 -9q18 0 31 15l41 -30q-13 -17 -35 -28.5t-46 -11.5q-34 0 -55 21.5t-21 55.5z" />
<glyph unicode="m" horiz-adv-x="896" d="M47 0l56 353q4 20 4 41q0 50 -25 78l39 33q37 -29 40 -88q68 91 171 91q108 0 125 -93q73 93 169 93q62 0 99 -31.5t37 -90.5q0 -17 -3 -35l-43 -272q0 -1 -0.5 -3t-0.5 -3q0 -11 9.5 -20t20.5 -9q17 0 32 15l40 -30q-34 -40 -80 -40q-33 0 -55 20.5t-22 53.5q0 11 1 16 l43 271q1 8 1 21q0 85 -86 85q-93 0 -160 -99l-57 -357h-55l54 336q3 19 3 35q0 85 -86 85q-46 0 -86 -26q-49 -31 -73 -72l-57 -358h-55z" />
<glyph unicode="n" horiz-adv-x="609" d="M30 0l56 353q4 20 4 41q0 50 -25 78l39 33q37 -27 41 -92q80 95 184 95q73 0 109.5 -29.5t36.5 -94.5q0 -14 -1 -22l-45 -285q0 -1 -0.5 -3t-0.5 -4q0 -11 9.5 -19.5t20.5 -8.5q18 0 31 15l41 -30q-34 -40 -81 -40q-33 0 -54.5 20.5t-21.5 53.5q0 10 1 16l41 259 q3 18 3 34q0 86 -97 86q-53 0 -96 -26q-42 -28 -83 -75l-57 -355h-55z" />
<glyph unicode="o" horiz-adv-x="608" d="M36 195q0 145 101 238q85 75 193 75q56 0 99 -19.5t69 -53.5t37 -82q6 -27 6 -56q0 -26 -4 -47q-6 -39 -12.5 -58t-21.5 -46q-55 -98 -151 -136q-47 -20 -104 -20q-84 0 -137.5 41t-69.5 113q-5 20 -5 51zM93 205q0 -107 86 -148q33 -15 77 -15q89 0 148 59q60 54 76 151 q5 25 5 46q0 104 -87 144q-34 14 -76 14q-135 0 -198 -122q-31 -60 -31 -129z" />
<glyph unicode="p" horiz-adv-x="558" d="M-11 -261l97 614q4 20 4 41q0 50 -25 78l39 33q37 -31 40 -84q19 29 33 40.5t40 24.5q44 22 99 22q99 0 145 -75q32 -49 32 -125q0 -75 -27 -138t-71 -105q-78 -75 -181 -75q-61 0 -129 9l-41 -260h-55zM93 51l52 -5q31 -4 76 -4q78 0 138 57q34 34 55 85t21 111 q0 100 -62 144q-28 17 -65 17q-46 0 -83 -20t-61 -52q-18 -24 -27 -56z" />
<glyph unicode="q" horiz-adv-x="543" d="M35 188q0 152 97 245q82 75 182 75q114 0 182 -20l-119 -749h-55l52 325q-61 -74 -162 -74q-97 0 -146 75q-31 51 -31 123zM92 201q0 -101 62 -141q27 -18 66 -18q45 0 82.5 20t60.5 51q19 24 27 57l44 276q-60 10 -127 10q-78 0 -138 -57q-57 -57 -72 -149 q-5 -38 -5 -49z" />
<glyph unicode="r" horiz-adv-x="394" d="M40 0l56 353q4 20 4 41q0 50 -25 78l39 33q38 -30 41 -88q34 45 69.5 68t91.5 23q20 0 33 -3l25 -5l-9 -52q-33 7 -65 7q-41 0 -78 -26q-37 -25 -70 -72l-57 -357h-55z" />
<glyph unicode="s" horiz-adv-x="444" d="M-1 48l35 42q65 -48 141 -48q78 0 113 46q20 23 20 62q0 23 -12 38q-25 30 -104 60q-72 23 -103 71q-10 17 -10 43q0 98 104 136q27 10 63 10q23 0 46 -3.5t43.5 -11t34.5 -16.5l-19 -51q-73 30 -120 30q-26 0 -47 -10.5t-33.5 -29.5t-12.5 -42q0 -22 13 -35 q24 -27 104 -57q77 -33 101 -76q11 -18 11 -46q0 -92 -81 -139q-56 -31 -127 -31q-95 0 -160 58z" />
<glyph unicode="t" horiz-adv-x="365" d="M31 99q0 23 4 44l76 481h55l-20 -126h158l-8 -55h-158l-48 -300q-3 -18 -3 -33q0 -68 62 -68q26 0 55 18.5t44 40.5l37 -30q-58 -81 -148 -81q-106 0 -106 109z" />
<glyph unicode="u" horiz-adv-x="624" d="M64 462l37 46q44 -37 59 -81q3 -12 3 -24q0 -9 -1 -14l-36 -225q-3 -18 -3 -34q0 -86 97 -86q54 0 95 26t83 74l58 356h55l-68 -421q0 -1 -0.5 -3t-0.5 -3q0 -11 9.5 -20t20.5 -9q19 0 32 15l41 -31q-36 -39 -81 -39q-33 0 -55 21.5t-22 54.5q0 8 1 13q-80 -86 -176 -86 q-73 0 -109.5 29.5t-36.5 94.5q0 14 1 22l40 251q3 17 -12 38.5t-31 34.5z" />
<glyph unicode="v" horiz-adv-x="493" d="M65 471l36 45q48 -33 62 -108l55 -324l201 415h55l-242 -499h-56l-71 415q-10 37 -40 56z" />
<glyph unicode="w" horiz-adv-x="828" d="M65 472l36 45q47 -34 61 -109l55 -321l201 413h56l69 -413l201 413h56l-242 -499h-56l-70 413l-200 -413h-57l-70 415q-11 40 -40 56z" />
<glyph unicode="x" horiz-adv-x="558" d="M1 0l198 250l-120 250h67l96 -206l158 206h66l-193 -248l91 -198q6 -16 26 -16q14 0 25 10t14 23l56 -3q-7 -34 -36 -60.5t-66 -26.5q-46 0 -72 43l-83 182l-162 -206h-65z" />
<glyph unicode="y" horiz-adv-x="554" d="M64 462l37 46q44 -37 59 -81q3 -12 3 -24q0 -9 -1 -14l-36 -225q-3 -18 -3 -34q0 -86 97 -86q49 0 86 22q38 21 75 60l13 19q7 12 8 26l54 329h55q-68 -420 -99 -617q-7 -46 -26 -80q-38 -61 -98 -80q-32 -8 -58 -8q-55 0 -86.5 36.5t-31.5 93.5q0 69 44 124q12 15 27 24 q-118 13 -118 115q0 10 2 30l40 251q3 17 -12 38.5t-31 34.5zM166 -148q0 -38 18.5 -61t54.5 -23q34 0 59.5 15t40 39.5t19.5 56.5l29 180l-13 -10q-31 -25 -59 -38l-54 -26q-29 -14 -46 -27t-30 -34.5t-18 -51.5q-1 -7 -1 -20z" />
<glyph unicode="z" horiz-adv-x="531" d="M-4 13l364 433h-257l8 52h351l-2 -13l-336 -398l76 -28q54 -20 109 -20q43 0 101 35l18 -44q-45 -30 -67 -36.5t-55 -6.5q-67 0 -126 22l-94 32l-52 -61z" />
<glyph unicode="{" horiz-adv-x="323" d="M23 261l8 55q84 9 93 61q2 13 4 43l2 59l3 64q9 96 34 129q34 44 105 61q21 5 63 17l7 -46q-3 -1 -9 -2q-25 -6 -37.5 -9.5t-32.5 -11.5t-30 -16.5t-19 -23.5t-12 -34q-4 -22 -5 -47l-3 -61q0 -71 -9 -122q-5 -40 -36 -64q-14 -12 -24 -16l-20 -9q15 -4 26.5 -13 t19 -24.5t7.5 -33.5q0 -19 -13 -74q-6 -27 -17 -65l-17 -61q-6 -22 -10 -47q-2 -12 -2 -17q0 -9 2 -17t7 -14.5t9 -11.5t13 -9.5t13.5 -7.5t16.5 -6.5t16.5 -5t17.5 -4.5t16 -4l-21 -46q-9 3 -33 9.5t-36 10.5t-30.5 13t-27.5 19t-16.5 26.5t-7.5 37.5q0 36 15 91 q6 27 17 65l16 58q11 40 11 53q0 42 -74 51z" />
<glyph unicode="|" horiz-adv-x="204" d="M3 -70l130 820h61l-130 -820h-61z" />
<glyph unicode="}" horiz-adv-x="322" d="M-37 -127q37 9 52.5 13t39 16.5t35.5 29.5q15 21 18 85l3 61q0 71 9 122q7 54 60 80q14 7 20 8q-14 4 -26 13.5t-19.5 24.5t-7.5 33q0 20 13 75q3 11 8.5 33.5t8.5 31.5l17 61q12 46 12 62q0 29 -15.5 43t-44.5 24q-22 7 -51 15l21 46q9 -3 33.5 -10t36 -11t28.5 -12 t28 -19t18 -26q8 -18 8 -39q0 -13 -3 -28q-7 -47 -30 -126l-16 -59q-11 -40 -11 -52q0 -37 48 -47q8 -3 26 -5l-8 -55q-83 -8 -93 -61q-2 -13 -4 -43l-2 -58l-3 -65q-9 -99 -34 -129q-34 -44 -105 -61q-21 -5 -63 -17z" />
<glyph unicode="~" horiz-adv-x="529" d="M61 293q54 39 108 44h12q42 0 86 -19q35 -15 65 -15q42 0 86 32l28 -41q-54 -39 -108 -44h-14q-42 0 -84 19q-36 15 -66 15q-40 0 -86 -32z" />
<glyph unicode="&#xa1;" horiz-adv-x="228" d="M-9 -189l97 545h56l-77 -545h-76zM84 457q0 22 18 39t40 17q18 0 29.5 -12t11.5 -29q0 -21 -17.5 -38t-39.5 -17q-18 0 -30 11.5t-12 28.5z" />
<glyph unicode="&#xa2;" horiz-adv-x="506" d="M31 251q0 101 41 177.5t109 120.5q37 23 81 30l17 104h61l-17 -103q100 -14 127 -92q5 -18 5 -35q0 -7 -2 -23h-15l-15 1h-13q-8 0 -14 -1q1 6 1 18q0 68 -81 83l-66 -415q55 4 146 48l20 -42q-84 -53 -174 -58l-11 -65h-61l11 67q-150 22 -150 185zM87 258 q0 -56 27.5 -91t74.5 -47l65 409q-23 -6 -34 -11.5t-27 -18.5q-51 -42 -83 -120q-23 -64 -23 -121zM396 430z" />
<glyph unicode="&#xa3;" horiz-adv-x="571" d="M56 303l9 57h82l20 125q13 86 71.5 132t156.5 46q23 0 55 -2l58 -6l-8 -52l-66 6q-38 2 -54 2q-130 0 -152 -126l-20 -125h154l-9 -57h-154l-28 -179l-3 -18l-4 -17l68 -25q51 -20 114 -20q40 0 96 35l17 -49q-64 -43 -122 -43q-69 0 -126 22l-70 24q-3 -5 -9.5 -15 t-9.5 -14q-8 -12 -14 -17l-47 21q4 7 13.5 22t14.5 25q15 25 21 69l28 179h-82z" />
<glyph unicode="&#xa4;" horiz-adv-x="702" d="M18 34l118 102q-27 42 -27 102q0 124 76 200l-87 104l50 44l89 -106q72 41 141 41q74 0 129 -41l123 106l36 -44l-119 -104q26 -43 26 -101q0 -124 -75 -199l88 -104l-50 -44l-90 107q-74 -42 -142 -42q-72 0 -129 40l-121 -105zM173 249q0 -93 74 -128q27 -13 67 -13 q72 0 129 51q31 29 50 74t19 98q0 42 -17.5 73t-49.5 47t-75 16q-38 0 -70 -13q-59 -24 -93 -76.5t-34 -128.5z" />
<glyph unicode="&#xa5;" horiz-adv-x="630" d="M65 169l9 53h192l12 79l-7 17h-183l8 54h153l-137 288h69l139 -292l228 292h70l-227 -288h150l-8 -54h-180l-13 -17l-12 -79h191l-9 -53h-191l-27 -169h-60l27 169h-194z" />
<glyph unicode="&#xa6;" horiz-adv-x="196" d="M2 -70l59 370h61l-59 -370h-61zM74 380l58 370h61l-58 -370h-61z" />
<glyph unicode="&#xa7;" horiz-adv-x="411" d="M45 -14q85 17 121 35q46 23 46 69q0 35 -38 67q-10 9 -38 29.5t-45 39t-26 41.5q-7 15 -7 36q0 65 41 111q22 22 40 28q-19 30 -19 62q0 79 70 119q59 35 158 50l5 -53q-87 -17 -122 -35q-46 -24 -46 -74q0 -11 9 -27q13 -25 56.5 -57.5t54.5 -44.5q35 -38 35 -79 q0 -42 -19 -75q-10 -21 -24 -35q-13 -14 -24 -20l-16 -9q21 -29 21 -66q0 -6 -2 -20q-11 -61 -68 -95q-59 -35 -158 -50zM121 315q0 -27 29 -56q12 -10 36.5 -28.5t34.5 -26.5q16 7 32 25q10 9 17 26t7 35q0 15 -7 26q-7 16 -23 30q-22 19 -33 28q-20 14 -37 28 q-46 -23 -55 -77q-1 -3 -1 -10z" />
<glyph unicode="&#xa8;" horiz-adv-x="444" d="M120 653q0 20 15 34.5t34 14.5q16 0 26.5 -10t10.5 -26q0 -19 -15 -34t-35 -15q-16 0 -26 10.5t-10 25.5zM342 653q0 20 15 34.5t34 14.5q16 0 26.5 -10t10.5 -26q0 -19 -15 -34t-35 -15q-16 0 -26 10.5t-10 25.5z" />
<glyph unicode="&#xa9;" horiz-adv-x="738" d="M45 187q0 87 34 157t90 118q100 87 233 87q132 0 205 -86q54 -66 54 -162q0 -23 -5 -55q-10 -68 -41 -122q-66 -116 -183 -161q-60 -23 -126 -23q-135 0 -207 85q-54 66 -54 162zM100 194q0 -139 114 -188q42 -19 99 -19q38 0 57 4t47 16q74 30 123 92.5t63 148.5 q4 23 4 49q0 70 -30.5 117t-84.5 69q-42 18 -97 18q-115 0 -192 -71q-103 -91 -103 -236zM231 206q0 62 23 109.5t63 73.5q27 15 64 15h40q12 -2 43 -4l-8 -47l-43 4q-14 1 -39 1q-20 0 -35 -9q-26 -16 -40.5 -53t-14.5 -81q0 -38 18 -58.5t53 -20.5q31 0 79 29l16 -38 q-59 -37 -108 -37q-52 0 -81.5 31t-29.5 85z" />
<glyph unicode="&#xaa;" horiz-adv-x="408" d="M95 512q0 73 53 122q42 39 95 39q8 0 29 -2t29 -2h40l-34 -219q-2 -3 0.5 -6t6.5 -3q5 0 8 5l33 -23q-21 -25 -48 -25q-34 0 -43 31q-32 -31 -79 -31q-44 0 -67 32t-23 82zM141 522q0 -2 0.5 -7t0.5 -8q0 -26 13.5 -43.5t37.5 -17.5q38 0 67 43l9 14l19 118l-27 3 q-10 1 -26 1q-39 0 -66.5 -31t-27.5 -72z" />
<glyph unicode="&#xab;" horiz-adv-x="614" d="M47 247q0 22 40 52l235 184l30 -41l-246 -191l186 -191l-44 -41l-176 184q-25 24 -25 44zM257 247q0 22 40 52l235 184l30 -41l-246 -191l186 -191l-44 -41l-176 184q-25 24 -25 44z" />
<glyph unicode="&#xac;" horiz-adv-x="486" d="M45 264l9 58h360l-27 -175h-62l18 117h-298z" />
<glyph unicode="&#xad;" horiz-adv-x="600" d="M58 277l9 57h297l-9 -57h-297z" />
<glyph unicode="&#xae;" horiz-adv-x="738" d="M73 364q0 87 34 157t90 118q100 87 233 87q132 0 205 -86q54 -66 54 -162q0 -23 -5 -55q-10 -68 -41 -122q-67 -117 -183 -161q-60 -23 -126 -23q-101 0 -168 48t-85 133q-8 34 -8 66zM128 373q0 -71 30 -119t84 -71q42 -19 99 -19q38 0 57 4t47 16q74 30 123 92.5 t63 148.5q4 23 4 49q0 70 -30.5 117t-84.5 69q-42 18 -97 18q-115 0 -192 -71q-103 -91 -103 -234zM260 240l40 257l15 89q1 0 19 2h19q8 0 29.5 2.5t29.5 2.5q30 0 53 -9.5t36.5 -29.5t13.5 -47q0 -36 -22.5 -66t-52.5 -39q27 -12 34 -44l24 -92l-51 -20l-18 85 q-12 58 -75 58h-22l-24 -149h-48zM338 429h58q29 0 49.5 19.5t20.5 49.5q0 24 -17.5 36.5t-44.5 12.5q-12 0 -18 -1l-30 -4z" />
<glyph unicode="&#xaf;" horiz-adv-x="442" d="M103 627l9 57h326l-9 -57h-326z" />
<glyph unicode="&#xb0;" horiz-adv-x="397" d="M93 503q0 55 27.5 94t71.5 57q26 10 57 10q52 0 83 -28.5t31 -78.5q0 -43 -21 -80q-43 -81 -135 -81q-51 0 -82.5 28.5t-31.5 78.5zM148 512q0 -31 18 -49t48 -18q40 0 67 30t27 73q0 31 -18 49t-48 18q-35 0 -61 -23q-18 -16 -23 -28t-9 -34q-1 -6 -1 -18z" />
<glyph unicode="&#xb1;" horiz-adv-x="492" d="M5 0l9 52h372l-9 -52h-372zM48 268l8 51h158l25 160h56l-25 -160h158l-8 -51h-158l-26 -161h-56l26 161h-158z" />
<glyph unicode="&#xb2;" horiz-adv-x="313" d="M68 414q8 39 20 57q22 37 70 68l37 25q11 7 17 12t14 13t11.5 18t3.5 22q0 29 -36 29l-16 -1h-24l-24 -2h-21l7 42q31 3 43 4h38q78 0 78 -64q0 -27 -11 -48.5t-23.5 -32.5t-34.5 -26l-49 -33q-23 -16 -39 -40h146l-7 -43h-200z" />
<glyph unicode="&#xb3;" horiz-adv-x="297" d="M70 418l6 43q28 -3 52 -6h24q60 0 68 47v7q0 9 -3 20q-7 13 -13 21q-21 -7 -56 -7h-18l7 44h20q35 0 53 9t18 35q0 28 -38 28l-16 -1h-21l-23 -2h-20l7 42l42 3h35q40 0 59 -14t19 -47q0 -41 -26 -67q21 -28 21 -58q0 -50 -33.5 -76.5t-86.5 -26.5q-26 -2 -50 3z" />
<glyph unicode="&#xb4;" horiz-adv-x="313" d="M101 601l177 125l29 -49l-190 -110z" />
<glyph unicode="&#xb5;" horiz-adv-x="526" d="M-36 -250l118 748h55l-53 -336h1q-3 -21 -3 -37q0 -44 22.5 -63.5t69.5 -19.5q55 0 93 28q42 28 83 75l56 353h55l-56 -354q-3 -21 -3 -39q0 -49 23 -80l-39 -33q-37 29 -40 95q-78 -97 -180 -97q-68 0 -105 28l-42 -268h-55z" />
<glyph unicode="&#xb6;" horiz-adv-x="509" d="M42 389q0 12 4 42q15 101 84 144q69 42 228 42h46l32 -1l48 -2l-97 -613h-58l88 556h-82l-88 -556h-59l39 249q-118 10 -158 53q-27 31 -27 86z" />
<glyph unicode="&#xb7;" horiz-adv-x="225" d="M48 318q0 26 21.5 47t48.5 21q22 0 36.5 -14.5t14.5 -35.5q0 -27 -21.5 -48t-48.5 -21q-22 0 -36.5 14.5t-14.5 36.5z" />
<glyph unicode="&#xb8;" horiz-adv-x="259" d="M-6 -95l26 96h61l-18 -50q36 -5 49 -31q9 -22 9 -43q0 -22 -14 -53q-37 -66 -105 -66l8 53q25 0 40 18q13 16 17 33t-6.5 30t-35.5 13h-31z" />
<glyph unicode="&#xb9;" horiz-adv-x="238" d="M90 631l16 39q16 -2 20 -3q20 0 41 6.5t32 12.5t32 18l5 -4l-45 -286h-48l35 223q-29 -13 -54 -13q-18 0 -34 7z" />
<glyph unicode="&#xba;" horiz-adv-x="411" d="M97 526q0 79 57 132q44 41 107 41q54 0 87 -30t33 -83q0 -51 -22 -88q-44 -88 -144 -88q-54 0 -86 31t-32 85zM147 535q0 -38 19.5 -59t55.5 -21q48 0 79 36t31 87q0 36 -21 56t-57 20q-41 0 -70 -26q-19 -19 -25.5 -32.5t-10.5 -39.5q-1 -7 -1 -21z" />
<glyph unicode="&#xbb;" horiz-adv-x="614" d="M22 60l246 191l-186 191l44 41l177 -184q24 -24 24 -44q0 -22 -39 -52l-236 -184zM232 60l246 191l-186 191l44 41l177 -184q24 -25 24 -44q0 -20 -39 -52l-236 -184z" />
<glyph unicode="&#xbc;" horiz-adv-x="712" d="M102 590l15 39l21 -3q20 0 41 6.5t31 12t32 18.5l6 -4l-46 -286h-48l36 223q-29 -13 -54 -13q-18 0 -34 7zM138 0l323 653h58l-322 -653h-59zM414 94l56 186h45l-43 -142h97l23 142h46l-45 -280h-46l15 94h-148z" />
<glyph unicode="&#xbd;" horiz-adv-x="699" d="M102 590l15 39l21 -3q44 2 89 28l15 9l6 -4l-46 -286h-48l36 223q-30 -13 -53 -13q-8 0 -12.5 0.5t-5.5 0.5q-8 1 -17 6zM138 0l323 653h58l-322 -653h-59zM381 0q6 31 20 55t29.5 39t40.5 31l38 25q21 15 30 26q16 16 16 38q0 30 -37 30l-16 -1h-23l-25 -2h-20l6 42 q33 3 43 4h39q40 0 58.5 -16t18.5 -51q0 -42 -26 -68q-17 -20 -43 -36l-49 -33q-23 -16 -39 -40h146l-7 -43h-200z" />
<glyph unicode="&#xbe;" horiz-adv-x="722" d="M69 375l7 43q26 -3 51 -6h25q59 0 67 47q1 3 1 8q0 20 -17 40q-17 -7 -55 -7h-18l7 44h20q34 0 52 9t18 35q0 28 -38 28l-16 -1h-21l-22 -2h-21l7 42l43 3h35q39 0 58 -14t19 -46q0 -42 -26 -68q21 -28 21 -57q0 -105 -132 -105q-25 0 -38 4zM148 0l323 653h58l-322 -653 h-59zM424 94l56 186h45l-43 -142h97l23 142h46l-45 -280h-46l15 94h-148z" />
<glyph unicode="&#xbf;" horiz-adv-x="506" d="M6 -12q0 68 35 122q21 33 53 59q23 18 40 28t41 22.5t46 25.5q20 13 32.5 22t26.5 28t18 41q2 19 1 41l54 11q1 -24 -2 -52q-6 -39 -28 -70q-33 -44 -116 -85q-31 -16 -50 -28t-41 -31t-35.5 -43t-18.5 -55q-2 -18 -2 -26q0 -41 20.5 -69t54.5 -42q25 -10 53 -10 q75 0 124 44q17 17 17 36q0 11 -7.5 17t-18.5 6q-5 0 -6 -1l-6 52l14 2h8q32 0 50.5 -18.5t18.5 -49.5q0 -35 -26 -67q-41 -49 -111 -66q-32 -8 -64 -8q-42 0 -76 15q-34 14 -59 41q-40 46 -40 108zM281 467q0 21 18 38t39 17q17 0 28.5 -11t11.5 -28q0 -15 -7.5 -28 t-20.5 -20.5t-27 -7.5q-18 0 -30 11.5t-12 28.5z" />
<glyph unicode="&#xc0;" horiz-adv-x="775" d="M-13 71l58 11q3 -27 29 -27q21 0 33 20l361 611h19l188 -686h-64l-59 227h-295l-101 -177q-12 -22 -37.5 -38t-53.5 -16q-32 0 -55 21q-23 22 -23 54zM290 284h247l-70 268l-1 5l-3 11q-2 10 -2 17l-15 -33zM345 863l43 49l139 -125l-28 -34z" />
<glyph unicode="&#xc1;" horiz-adv-x="775" d="M-13 71l58 11q3 -27 29 -27q21 0 33 20l361 611h19l188 -686h-64l-59 227h-295l-101 -177q-12 -22 -37.5 -38t-53.5 -16q-32 0 -55 21q-23 22 -23 54zM290 284h247l-70 268l-1 5l-3 11q-2 10 -2 17l-15 -33zM466 787l177 125l29 -49l-190 -110z" />
<glyph unicode="&#xc2;" horiz-adv-x="775" d="M-13 71l58 11q3 -27 29 -27q21 0 33 20l361 611h19l188 -686h-64l-59 227h-295l-101 -177q-12 -22 -37.5 -38t-53.5 -16q-32 0 -55 21q-23 22 -23 54zM290 284h247l-70 268l-1 5l-3 11q-2 10 -2 17l-15 -33zM346 791l146 142h49l101 -142h-68l-66 89l-95 -89h-67z" />
<glyph unicode="&#xc3;" horiz-adv-x="775" d="M-13 71l58 11q3 -27 29 -27q21 0 33 20l361 611h19l188 -686h-64l-59 227h-295l-101 -177q-12 -22 -37.5 -38t-53.5 -16q-32 0 -55 21q-23 22 -23 54zM290 284h247l-70 268l-1 5l-3 11q-2 10 -2 17l-15 -33zM325 840q52 39 100 45h14q20 0 39 -5.5t40 -14.5t33 -12t23 -3 q32 0 78 33l27 -41q-53 -39 -100 -44h-7l-6 -1q-20 0 -39.5 5.5t-42 14.5t-32.5 12q-12 3 -23 3h-8q-12 -1 -32 -10q-14 -6 -38 -23z" />
<glyph unicode="&#xc4;" horiz-adv-x="775" d="M-13 71l58 11q3 -27 29 -27q21 0 33 20l361 611h19l188 -686h-64l-59 227h-295l-101 -177q-12 -22 -37.5 -38t-53.5 -16q-32 0 -55 21q-23 22 -23 54zM290 284h247l-70 268l-1 5l-3 11q-2 10 -2 17l-15 -33zM350 839q0 20 15 34.5t34 14.5q16 0 26.5 -10t10.5 -26 q0 -19 -15 -34t-35 -15q-16 0 -26 10.5t-10 25.5zM572 839q0 20 15 34.5t34 14.5q16 0 26.5 -10t10.5 -26q0 -19 -15 -34t-35 -15q-16 0 -26 10.5t-10 25.5z" />
<glyph unicode="&#xc5;" horiz-adv-x="775" d="M-13 71l58 11q3 -27 29 -27q21 0 33 20l361 611h19l188 -686h-64l-59 227h-295l-101 -177q-12 -22 -37.5 -38t-53.5 -16q-32 0 -55 21q-23 22 -23 54zM290 284h247l-70 268l-1 5l-3 11q-2 10 -2 17l-15 -33zM398 814q0 58 41 97q31 28 81 28q39 0 61.5 -21.5t22.5 -61.5 q0 -54 -40 -93q-33 -30 -80 -30t-69 28q-17 23 -17 53zM448 823q0 -47 44 -47q24 0 41 17q23 28 23 54q0 22 -11 35t-32 13q-30 0 -47.5 -21t-17.5 -51z" />
<glyph unicode="&#xc6;" horiz-adv-x="936" d="M-24 0l468 684h471l-9 -57h-387l-38 -237h317l-9 -57h-317l-44 -276h407l-9 -57h-468l36 227h-192l-153 -227h-73zM240 284h163l54 339l-17 -36q-10 -23 -32 -56z" />
<glyph unicode="&#xc7;" horiz-adv-x="740" d="M49 274q0 109 55 206q37 64 96 119q56 51 128 81q71 30 141 30q65 0 119 -22.5t76 -62.5q12 -22 12 -46q0 -43 -30 -77.5t-75 -34.5q-30 0 -52 19l41 43q12 -8 20 -8q17 0 29 15t12 33q0 20 -11 33q-21 24 -62 38.5t-87 14.5q-65 0 -125.5 -28t-103.5 -68 q-105 -96 -124 -222q-4 -24 -4 -52q0 -36 7 -65.5t18 -50.5t30 -46q71 -90 195 -90q78 0 144 34q68 35 112 88l40 -31q-37 -44 -63.5 -64t-72.5 -42q-36 -18 -75.5 -28.5t-80.5 -11.5l-17 -48q36 -5 49 -31q9 -22 9 -43q0 -22 -14 -53q-37 -66 -105 -66l8 53q25 0 40 18 q13 16 17 33t-6.5 30t-35.5 13h-31l26 96h11q-121 13 -195 104q-41 50 -56 113q-9 35 -9 77z" />
<glyph unicode="&#xc8;" horiz-adv-x="648" d="M66 579q3 18 14 40q38 65 106 65h461l-9 -56h-387l-38 -238h267l-9 -57h-267l-44 -276h387l-9 -57h-448l100 628h-12q-20 0 -36.5 -14.5t-19.5 -34.5h-56zM285 861l43 49l139 -125l-28 -34z" />
<glyph unicode="&#xc9;" horiz-adv-x="648" d="M66 579q3 18 14 40q38 65 106 65h461l-9 -56h-387l-38 -238h267l-9 -57h-267l-44 -276h387l-9 -57h-448l100 628h-12q-20 0 -36.5 -14.5t-19.5 -34.5h-56zM406 785l177 125l29 -49l-190 -110z" />
<glyph unicode="&#xca;" horiz-adv-x="648" d="M66 579q3 18 14 40q38 65 106 65h461l-9 -56h-387l-38 -238h267l-9 -57h-267l-44 -276h387l-9 -57h-448l100 628h-12q-20 0 -36.5 -14.5t-19.5 -34.5h-56zM286 789l146 142h49l101 -142h-68l-66 89l-95 -89h-67z" />
<glyph unicode="&#xcb;" horiz-adv-x="648" d="M66 579q3 18 14 40q38 65 106 65h461l-9 -56h-387l-38 -238h267l-9 -57h-267l-44 -276h387l-9 -57h-448l100 628h-12q-20 0 -36.5 -14.5t-19.5 -34.5h-56zM290 837q0 20 15 34.5t34 14.5q16 0 26.5 -10t10.5 -26q0 -19 -15 -34t-35 -15q-16 0 -26 10.5t-10 25.5zM512 837 q0 20 15 34.5t34 14.5q16 0 26.5 -10t10.5 -26q0 -19 -15 -34t-35 -15q-16 0 -26 10.5t-10 25.5z" />
<glyph unicode="&#xcc;" horiz-adv-x="204" d="M14 0l109 684h61l-109 -684h-61zM23 861l43 49l139 -125l-28 -34z" />
<glyph unicode="&#xcd;" horiz-adv-x="204" d="M14 0l109 684h61l-109 -684h-61zM144 785l177 125l29 -49l-190 -110z" />
<glyph unicode="&#xce;" horiz-adv-x="204" d="M14 0l109 684h61l-109 -684h-61zM24 789l146 142h49l101 -142h-68l-66 89l-95 -89h-67z" />
<glyph unicode="&#xcf;" horiz-adv-x="204" d="M14 0l109 684h61l-109 -684h-61zM28 837q0 20 15 34.5t34 14.5q16 0 26.5 -10t10.5 -26q0 -19 -15 -34t-35 -15q-16 0 -26 10.5t-10 25.5zM250 837q0 20 15 34.5t34 14.5q16 0 26.5 -10t10.5 -26q0 -19 -15 -34t-35 -15q-16 0 -26 10.5t-10 25.5z" />
<glyph unicode="&#xd0;" horiz-adv-x="805" d="M58 307l9 57h90l43 270h-25q-19 -3 -34 -17t-18 -32h-56q3 21 15 41q13 25 42.5 45t63.5 18h299q72 -6 126 -34q56 -29 88 -75q53 -70 53 -175q0 -26 -5 -63q-14 -77 -46 -139q-33 -62 -88 -111q-57 -50 -121 -76q-37 -15 -78 -20.5t-123 -5.5q-67 0 -147 5l-28 2l-19 3 l49 307h-90zM168 50q34 -2 75 -2q2 0 11 -1t27 -1.5t42 -0.5q100 0 155 21q53 21 100 63q46 42 71 92q45 85 45 178q0 52 -15.5 94.5t-41.5 70.5t-62 45q-46 22 -107 25h-207l-43 -270h146l-9 -57h-146z" />
<glyph unicode="&#xd1;" horiz-adv-x="780" d="M-13 71q0 10 1 15h56v-4q0 -14 8 -22t21 -8q14 0 25.5 10t14.5 23l95 599h38q57 -76 118 -164.5t134.5 -199.5t113.5 -169l11 -22l85 554h59l-109 -683h-18l-381 563l-11 21l-75 -499q-9 -55 -73 -82q-17 -7 -36 -7q-32 0 -54.5 21.5t-22.5 53.5zM336 838q52 39 100 45 h14q20 0 39 -5.5t40 -14.5t33 -12t23 -3q32 0 78 33l27 -41q-53 -39 -100 -44h-7l-6 -1q-20 0 -39.5 5.5t-42 14.5t-32.5 12q-12 3 -23 3h-8q-12 -1 -32 -10q-14 -6 -38 -23z" />
<glyph unicode="&#xd2;" horiz-adv-x="809" d="M48 273q0 25 5 57l3 19q10 69 47.5 134.5t88.5 111.5q122 111 269 111q146 0 232 -108q66 -80 66 -194q0 -31 -4 -55l-3 -19q-23 -141 -136 -247q-120 -110 -268 -110q-143 0 -231 106q-42 49 -58 113q-11 37 -11 81zM105 280q0 -93 56 -163q16 -19 35.5 -35t43.5 -28 t53 -19t60 -7q62 0 120 24q56 23 103 65q99 87 120 213l3 19q5 38 5 55q0 24 -10 62q-13 53 -48.5 96.5t-81.5 64.5q-50 24 -112 24q-58 0 -116 -24q-58 -23 -105 -65q-102 -92 -119 -213l-3 -19q-4 -23 -4 -50zM324 861l43 49l139 -125l-28 -34z" />
<glyph unicode="&#xd3;" horiz-adv-x="809" d="M48 273q0 25 5 57l3 19q10 69 47.5 134.5t88.5 111.5q122 111 269 111q146 0 232 -108q66 -80 66 -194q0 -31 -4 -55l-3 -19q-23 -141 -136 -247q-120 -110 -268 -110q-143 0 -231 106q-42 49 -58 113q-11 37 -11 81zM105 280q0 -93 56 -163q16 -19 35.5 -35t43.5 -28 t53 -19t60 -7q62 0 120 24q56 23 103 65q99 87 120 213l3 19q5 38 5 55q0 24 -10 62q-13 53 -48.5 96.5t-81.5 64.5q-50 24 -112 24q-58 0 -116 -24q-58 -23 -105 -65q-102 -92 -119 -213l-3 -19q-4 -23 -4 -50zM445 785l177 125l29 -49l-190 -110z" />
<glyph unicode="&#xd4;" horiz-adv-x="809" d="M48 273q0 25 5 57l3 19q10 69 47.5 134.5t88.5 111.5q122 111 269 111q146 0 232 -108q66 -80 66 -194q0 -31 -4 -55l-3 -19q-23 -141 -136 -247q-120 -110 -268 -110q-143 0 -231 106q-42 49 -58 113q-11 37 -11 81zM105 280q0 -93 56 -163q16 -19 35.5 -35t43.5 -28 t53 -19t60 -7q62 0 120 24q56 23 103 65q99 87 120 213l3 19q5 38 5 55q0 24 -10 62q-13 53 -48.5 96.5t-81.5 64.5q-50 24 -112 24q-58 0 -116 -24q-58 -23 -105 -65q-102 -92 -119 -213l-3 -19q-4 -23 -4 -50zM325 789l146 142h49l101 -142h-68l-66 89l-95 -89h-67z" />
<glyph unicode="&#xd5;" horiz-adv-x="809" d="M48 273q0 25 5 57l3 19q10 69 47.5 134.5t88.5 111.5q122 111 269 111q146 0 232 -108q66 -80 66 -194q0 -31 -4 -55l-3 -19q-23 -141 -136 -247q-120 -110 -268 -110q-143 0 -231 106q-42 49 -58 113q-11 37 -11 81zM105 280q0 -93 56 -163q16 -19 35.5 -35t43.5 -28 t53 -19t60 -7q62 0 120 24q56 23 103 65q99 87 120 213l3 19q5 38 5 55q0 24 -10 62q-13 53 -48.5 96.5t-81.5 64.5q-50 24 -112 24q-58 0 -116 -24q-58 -23 -105 -65q-102 -92 -119 -213l-3 -19q-4 -23 -4 -50zM304 838q52 39 100 45h14q20 0 39 -5.5t40 -14.5t33 -12 t23 -3q15 0 30.5 5.5t23.5 10.5t24 17l27 -41q-53 -39 -100 -44h-7l-6 -1q-20 0 -39.5 5.5t-42 14.5t-32.5 12q-12 3 -23 3h-8q-13 -1 -32 -10q-14 -6 -38 -23z" />
<glyph unicode="&#xd6;" horiz-adv-x="809" d="M48 273q0 25 5 57l3 19q10 69 47.5 134.5t88.5 111.5q122 111 269 111q146 0 232 -108q66 -80 66 -194q0 -31 -4 -55l-3 -19q-23 -141 -136 -247q-120 -110 -268 -110q-143 0 -231 106q-42 49 -58 113q-11 37 -11 81zM105 280q0 -93 56 -163q16 -19 35.5 -35t43.5 -28 t53 -19t60 -7q62 0 120 24q56 23 103 65q99 87 120 213l3 19q5 38 5 55q0 24 -10 62q-13 53 -48.5 96.5t-81.5 64.5q-50 24 -112 24q-58 0 -116 -24q-58 -23 -105 -65q-102 -92 -119 -213l-3 -19q-4 -23 -4 -50zM329 837q0 20 15 34.5t34 14.5q16 0 26.5 -10t10.5 -26 q0 -19 -15 -34t-35 -15q-16 0 -26 10.5t-10 25.5zM551 837q0 20 15 34.5t34 14.5q16 0 26.5 -10t10.5 -26q0 -19 -15 -34t-35 -15q-16 0 -26 10.5t-10 25.5z" />
<glyph unicode="&#xd7;" horiz-adv-x="515" d="M31 116l172 149l-119 143l50 43l119 -143l165 143l34 -41l-164 -142l125 -149l-50 -43l-125 149l-173 -150z" />
<glyph unicode="&#xd8;" horiz-adv-x="809" d="M48 273q0 25 5 57l3 19q10 69 47.5 134.5t88.5 111.5q122 111 269 111q92 0 169 -49l12 14l60 -19l-28 -32q85 -85 85 -216q0 -31 -4 -55l-3 -19q-23 -141 -136 -247q-120 -110 -268 -110q-100 0 -174 53l-46 -55l-61 19l63 74l-13 15q-42 49 -58 113q-11 37 -11 81z M105 280q0 -93 56 -163l7 -8l423 503q-59 39 -139 39q-58 0 -116 -24q-58 -23 -105 -65q-102 -92 -119 -213l-3 -19q-4 -23 -4 -50zM212 70q60 -42 141 -42q62 0 120 24q56 23 103 65q99 87 120 213l3 19q5 38 5 55q0 24 -10 62q-14 54 -48 96l-10 12z" />
<glyph unicode="&#xd9;" horiz-adv-x="747" d="M77 650q36 43 89 43q37 0 65 -28q12 -19 16 -32q2 -6 2 -19t-1 -19l-52 -327q-4 -23 -4 -47q0 -71 35 -115q25 -30 57 -44q38 -16 82 -16q75 0 129.5 36t83.5 93q21 39 30 93l66 417h61l-66 -417q-20 -124 -105 -199q-85 -78 -206 -78t-183 77q-46 57 -46 144q0 21 5 56 l52 327v13q0 25 -31 25q-21 0 -34 -17zM335 861l43 49l139 -125l-28 -34z" />
<glyph unicode="&#xda;" horiz-adv-x="747" d="M77 650q36 43 89 43q37 0 65 -28q12 -19 16 -32q2 -6 2 -19t-1 -19l-52 -327q-4 -23 -4 -47q0 -71 35 -115q25 -30 57 -44q38 -16 82 -16q75 0 129.5 36t83.5 93q21 39 30 93l66 417h61l-66 -417q-20 -124 -105 -199q-85 -78 -206 -78t-183 77q-46 57 -46 144q0 21 5 56 l52 327v13q0 25 -31 25q-21 0 -34 -17zM456 785l177 125l29 -49l-190 -110z" />
<glyph unicode="&#xdb;" horiz-adv-x="747" d="M77 650q36 43 89 43q37 0 65 -28q12 -19 16 -32q2 -6 2 -19t-1 -19l-52 -327q-4 -23 -4 -47q0 -71 35 -115q25 -30 57 -44q38 -16 82 -16q75 0 129.5 36t83.5 93q21 39 30 93l66 417h61l-66 -417q-20 -124 -105 -199q-85 -78 -206 -78t-183 77q-46 57 -46 144q0 21 5 56 l52 327v13q0 25 -31 25q-21 0 -34 -17zM336 789l146 142h49l101 -142h-68l-66 89l-95 -89h-67z" />
<glyph unicode="&#xdc;" horiz-adv-x="747" d="M77 650q36 43 89 43q37 0 65 -28q12 -19 16 -32q2 -6 2 -19t-1 -19l-52 -327q-4 -23 -4 -47q0 -71 35 -115q25 -30 57 -44q38 -16 82 -16q75 0 129.5 36t83.5 93q21 39 30 93l66 417h61l-66 -417q-20 -124 -105 -199q-85 -78 -206 -78t-183 77q-46 57 -46 144q0 21 5 56 l52 327v13q0 25 -31 25q-21 0 -34 -17zM340 837q0 20 15 34.5t34 14.5q16 0 26.5 -10t10.5 -26q0 -19 -15 -34t-35 -15q-16 0 -26 10.5t-10 25.5zM562 837q0 20 15 34.5t34 14.5q16 0 26.5 -10t10.5 -26q0 -19 -15 -34t-35 -15q-16 0 -26 10.5t-10 25.5z" />
<glyph unicode="&#xdd;" horiz-adv-x="632" d="M71 611q8 33 38.5 58t66.5 25q52 0 74 -48l109 -280l228 319h70l-277 -386l-46 -299h-66l50 297l-125 321q-8 17 -26 17q-13 0 -24 -9t-14 -21zM394 785l177 125l29 -49l-190 -110z" />
<glyph unicode="&#xde;" horiz-adv-x="535" d="M13 0l109 684h61l-19 -121h156q75 -3 118.5 -47.5t43.5 -120.5q0 -65 -32 -124q-42 -81 -125 -115q-43 -17 -89 -17h-43q-33 0 -45 2l8 55l46 -2h40q71 0 117 46q64 56 64 151q0 56 -36 87t-95 31h-137l-81 -509h-61z" />
<glyph unicode="&#xdf;" horiz-adv-x="518" d="M-26 -250l118 744q25 167 117 222q33 18 78 18q127 0 127 -106q0 -43 -17.5 -70.5t-48.5 -52.5l-38 -30q-23 -19 -23 -58q0 -18 7 -31q14 -22 29 -35q9 -7 26.5 -18.5t30.5 -22t23 -22.5q31 -39 31 -90q0 -77 -38.5 -126t-103.5 -70q-38 -12 -81 -12q-47 0 -82 3l-57 5 h-4l-39 -248h-55zM76 50q56 -8 151 -8q67 0 107 37.5t40 102.5q0 43 -35 75q-10 9 -26 20t-30.5 21.5t-24.5 21.5q-33 33 -33 82q0 62 28 92q19 21 40 37q23 17 39 31q24 18 24 56q0 64 -78 64q-59 0 -91 -55q-26 -45 -40 -130z" />
<glyph unicode="&#xe0;" d="M35 190q0 84 38 160q50 99 142 138q48 20 99 20q66 0 129 -9h55l-66 -419v-4q0 -13 9 -22t21 -9q18 0 31 16l40 -31q-31 -40 -80 -40q-33 0 -55 22t-22 56q-59 -78 -164 -78q-99 0 -145 75q-32 46 -32 125zM93 202q0 -104 62 -142q26 -18 65 -18q98 0 150 82q18 27 24 64 l41 260q-21 0 -52 4t-76 4q-83 0 -137 -57q-77 -73 -77 -197zM181 685l43 49l139 -125l-28 -34z" />
<glyph unicode="&#xe1;" d="M35 190q0 84 38 160q50 99 142 138q48 20 99 20q66 0 129 -9h55l-66 -419v-4q0 -13 9 -22t21 -9q18 0 31 16l40 -31q-31 -40 -80 -40q-33 0 -55 22t-22 56q-59 -78 -164 -78q-99 0 -145 75q-32 46 -32 125zM93 202q0 -104 62 -142q26 -18 65 -18q98 0 150 82q18 27 24 64 l41 260q-21 0 -52 4t-76 4q-83 0 -137 -57q-77 -73 -77 -197zM302 609l177 125l29 -49l-190 -110z" />
<glyph unicode="&#xe2;" d="M35 190q0 84 38 160q50 99 142 138q48 20 99 20q66 0 129 -9h55l-66 -419v-4q0 -13 9 -22t21 -9q18 0 31 16l40 -31q-31 -40 -80 -40q-33 0 -55 22t-22 56q-59 -78 -164 -78q-99 0 -145 75q-32 46 -32 125zM93 202q0 -104 62 -142q26 -18 65 -18q98 0 150 82q18 27 24 64 l41 260q-21 0 -52 4t-76 4q-83 0 -137 -57q-77 -73 -77 -197zM182 613l146 142h49l101 -142h-68l-66 89l-95 -89h-67z" />
<glyph unicode="&#xe3;" d="M35 190q0 84 38 160q50 99 142 138q48 20 99 20q66 0 129 -9h55l-66 -419v-4q0 -13 9 -22t21 -9q18 0 31 16l40 -31q-31 -40 -80 -40q-33 0 -55 22t-22 56q-59 -78 -164 -78q-99 0 -145 75q-32 46 -32 125zM93 202q0 -104 62 -142q26 -18 65 -18q98 0 150 82q18 27 24 64 l41 260q-21 0 -52 4t-76 4q-83 0 -137 -57q-77 -73 -77 -197zM161 662q52 39 100 45h14q20 0 39 -5.5t40 -14.5t33 -12t23 -3q32 0 78 33l27 -41q-53 -39 -100 -44h-7l-6 -1q-20 0 -39.5 5.5t-42 14.5t-32.5 12q-12 3 -23 3h-8q-13 -1 -32 -10q-14 -6 -38 -23z" />
<glyph unicode="&#xe4;" d="M35 190q0 84 38 160q50 99 142 138q48 20 99 20q66 0 129 -9h55l-66 -419v-4q0 -13 9 -22t21 -9q18 0 31 16l40 -31q-31 -40 -80 -40q-33 0 -55 22t-22 56q-59 -78 -164 -78q-99 0 -145 75q-32 46 -32 125zM93 202q0 -104 62 -142q26 -18 65 -18q98 0 150 82q18 27 24 64 l41 260q-21 0 -52 4t-76 4q-83 0 -137 -57q-77 -73 -77 -197zM186 661q0 20 15 34.5t34 14.5q16 0 26.5 -10t10.5 -26q0 -19 -15 -34t-35 -15q-16 0 -26 10.5t-10 25.5zM408 661q0 20 15 34.5t34 14.5q16 0 26.5 -10t10.5 -26q0 -19 -15 -34t-35 -15q-16 0 -26 10.5 t-10 25.5z" />
<glyph unicode="&#xe5;" d="M35 190q0 84 38 160q50 99 142 138q48 20 99 20q66 0 129 -9h55l-66 -419v-4q0 -13 9 -22t21 -9q18 0 31 16l40 -31q-31 -40 -80 -40q-33 0 -55 22t-22 56q-59 -78 -164 -78q-99 0 -145 75q-32 46 -32 125zM93 202q0 -104 62 -142q26 -18 65 -18q98 0 150 82q18 27 24 64 l41 260q-21 0 -52 4t-76 4q-83 0 -137 -57q-77 -73 -77 -197zM234 636q0 58 41 97q32 28 81 28q39 0 61.5 -21.5t22.5 -61.5q0 -54 -40 -93q-33 -30 -80 -30t-69 28q-17 23 -17 53zM284 645q0 -47 44 -47q24 0 41 17q23 28 23 54q0 22 -11 35t-32 13q-30 0 -47.5 -21 t-17.5 -51z" />
<glyph unicode="&#xe6;" horiz-adv-x="826" d="M19 104q0 97 88 145q62 31 149 31h97l9 56q3 21 3 37q0 44 -21.5 63.5t-66.5 19.5q-65 0 -123 -34q-24 -13 -34 -20l-20 42q34 27 84 45.5t101 18.5q67 0 97 -30q30 -31 34 -78q74 108 188 108q38 0 69 -10t52.5 -30t30.5 -48q7 -17 7 -41q0 -50 -25.5 -87t-64.5 -58 q-62 -34 -157 -34h-118q-3 -79 31.5 -118.5t111.5 -39.5q30 0 63 9t48.5 15.5t52.5 23.5l19 -42q-94 -58 -191 -58q-152 0 -179 124q-9 -26 -19.5 -42.5t-20 -24.5t-29.5 -22q-52 -35 -126 -35q-62 0 -101 29t-39 85zM75 101q0 -16 4 -23t15 -16q25 -20 73 -20q99 0 149 77 q16 27 20 58l9 52h-97q-40 0 -70 -6t-54 -20t-36.5 -39.5t-12.5 -62.5zM403 252h121q182 0 182 130q0 18 -5.5 27.5t-19.5 22.5q-30 27 -85 27q-68 0 -126 -65q-55 -61 -67 -142z" />
<glyph unicode="&#xe7;" horiz-adv-x="520" d="M35 181q0 149 94 252q76 79 170 79q58 0 97.5 -22.5t55.5 -65.5q6 -18 6 -38q0 -17 -2 -26h-57q2 14 2 19q0 28 -15 47t-39 28t-55 9q-75 0 -133 -72q-51 -66 -64 -155q-4 -32 -4 -45q0 -70 38 -107.5t108 -37.5q30 0 62 8.5t50 16t51 23.5l20 -42q-82 -51 -171 -57 l-16 -44q36 -5 49 -31q9 -22 9 -43q0 -22 -14 -53q-37 -66 -105 -66l8 53q25 0 40 18q10 12 14.5 25t3 24.5t-12.5 19t-30 7.5h-31l25 91q-154 19 -154 185z" />
<glyph unicode="&#xe8;" horiz-adv-x="521" d="M34 175q0 110 46 190t125 122q43 21 93 21q58 0 98.5 -23t53.5 -65q7 -17 7 -41q0 -50 -25.5 -87t-64.5 -58q-62 -34 -157 -34h-118q-3 -79 31.5 -118.5t111.5 -39.5q30 0 63 9t48.5 15.5t52.5 23.5l19 -42q-94 -58 -191 -58q-193 0 -193 185zM97 252h121q182 0 182 130 q0 18 -5.5 27.5t-19.5 22.5q-30 27 -85 27q-68 0 -126 -65q-55 -61 -67 -142zM165 685l43 49l139 -125l-28 -34z" />
<glyph unicode="&#xe9;" horiz-adv-x="521" d="M34 175q0 110 46 190t125 122q43 21 93 21q58 0 98.5 -23t53.5 -65q7 -17 7 -41q0 -50 -25.5 -87t-64.5 -58q-62 -34 -157 -34h-118q-3 -79 31.5 -118.5t111.5 -39.5q30 0 63 9t48.5 15.5t52.5 23.5l19 -42q-94 -58 -191 -58q-193 0 -193 185zM97 252h121q182 0 182 130 q0 18 -5.5 27.5t-19.5 22.5q-30 27 -85 27q-68 0 -126 -65q-55 -61 -67 -142zM286 609l177 125l29 -49l-190 -110z" />
<glyph unicode="&#xea;" horiz-adv-x="521" d="M34 175q0 110 46 190t125 122q43 21 93 21q58 0 98.5 -23t53.5 -65q7 -17 7 -41q0 -50 -25.5 -87t-64.5 -58q-62 -34 -157 -34h-118q-3 -79 31.5 -118.5t111.5 -39.5q30 0 63 9t48.5 15.5t52.5 23.5l19 -42q-94 -58 -191 -58q-193 0 -193 185zM97 252h121q182 0 182 130 q0 18 -5.5 27.5t-19.5 22.5q-30 27 -85 27q-68 0 -126 -65q-55 -61 -67 -142zM166 613l146 142h49l101 -142h-68l-66 89l-95 -89h-67z" />
<glyph unicode="&#xeb;" horiz-adv-x="521" d="M34 175q0 110 46 190t125 122q43 21 93 21q58 0 98.5 -23t53.5 -65q7 -17 7 -41q0 -50 -25.5 -87t-64.5 -58q-62 -34 -157 -34h-118q-3 -79 31.5 -118.5t111.5 -39.5q30 0 63 9t48.5 15.5t52.5 23.5l19 -42q-94 -58 -191 -58q-193 0 -193 185zM97 252h121q182 0 182 130 q0 18 -5.5 27.5t-19.5 22.5q-30 27 -85 27q-68 0 -126 -65q-55 -61 -67 -142zM170 661q0 10 4 19t11 15.5t16 10.5t18 4q11 0 19.5 -4.5t13 -13t4.5 -18.5q0 -19 -15 -34t-35 -15q-10 0 -18.5 5t-13 13t-4.5 18zM392 661q0 20 15 34.5t34 14.5q16 0 26.5 -10t10.5 -26 q0 -19 -15 -34t-35 -15q-10 0 -18.5 5t-13 13t-4.5 18z" />
<glyph unicode="&#xec;" horiz-adv-x="237" d="M-22 677l43 49l139 -125l-28 -34zM15 64q0 11 1 16l67 420h55l-67 -420v-4q0 -13 8 -22t21 -9q19 0 31 15l41 -30q-34 -40 -81 -40q-32 0 -54 21t-22 53z" />
<glyph unicode="&#xed;" horiz-adv-x="237" d="M15 64q0 11 1 16l67 420h55l-67 -420v-4q0 -13 8 -22t21 -9q19 0 31 15l41 -30q-34 -40 -81 -40q-32 0 -54 21t-22 53zM99 601l177 125l29 -49l-190 -110z" />
<glyph unicode="&#xee;" horiz-adv-x="237" d="M-21 605l146 142h49l101 -142h-68l-66 89l-95 -89h-67zM15 64q0 11 1 16l67 420h55l-67 -420v-4q0 -13 8 -22t21 -9q19 0 31 15l41 -30q-34 -40 -81 -40q-32 0 -54 21t-22 53z" />
<glyph unicode="&#xef;" horiz-adv-x="237" d="M-17 653q0 20 15 34.5t34 14.5q16 0 26.5 -10t10.5 -26q0 -19 -15 -34t-35 -15q-16 0 -26 10.5t-10 25.5zM15 64q0 11 1 16l67 420h55l-67 -420v-4q0 -13 8 -22t21 -9q19 0 31 15l41 -30q-34 -40 -81 -40q-32 0 -54 21t-22 53zM205 653q0 20 15 34.5t34 14.5 q16 0 26.5 -10t10.5 -26q0 -19 -15 -34t-35 -15q-16 0 -26 10.5t-10 25.5z" />
<glyph unicode="&#xf0;" horiz-adv-x="607" d="M36 195q0 83 38 155q53 99 151 138q51 20 105 20q42 0 104 -11l-13 74l-100 -30l-6 55l96 30l-24 104l61 18l21 -104l103 30l6 -55l-98 -30l31 -171q9 -58 10 -93q0 -178 -97 -267q-74 -68 -176 -68q-84 0 -137.5 41t-69.5 113q-5 20 -5 51zM93 207q0 -109 86 -150 q33 -15 77 -15q121 0 177 117q16 36 23 76q5 38 5 72q0 49 -9 98l-8 36l-30 6l-35 5l-33 4h-24q-88 0 -148 -57q-62 -56 -77 -149q-4 -30 -4 -43z" />
<glyph unicode="&#xf1;" horiz-adv-x="609" d="M30 0l56 353q4 20 4 41q0 50 -25 78l39 33q37 -27 41 -92q80 95 184 95q73 0 109.5 -29.5t36.5 -94.5q0 -14 -1 -22l-45 -285q0 -1 -0.5 -3t-0.5 -4q0 -11 9.5 -19.5t20.5 -8.5q18 0 31 15l41 -30q-34 -40 -81 -40q-33 0 -54.5 20.5t-21.5 53.5q0 10 1 16l41 259 q3 18 3 34q0 86 -97 86q-53 0 -96 -26q-42 -28 -83 -75l-57 -355h-55zM176 662q52 39 100 45h14q20 0 39 -5.5t40 -14.5t33 -12t23 -3q15 0 30.5 5.5t23.5 10.5t24 17l27 -41q-53 -39 -100 -44h-7l-6 -1q-20 0 -39.5 5.5t-42 14.5t-32.5 12q-12 3 -23 3h-8q-13 -1 -32 -10 q-14 -6 -38 -23z" />
<glyph unicode="&#xf2;" horiz-adv-x="608" d="M36 195q0 145 101 238q85 75 193 75q56 0 99 -19.5t69 -53.5t37 -82q6 -27 6 -56q0 -26 -4 -47q-6 -39 -12.5 -58t-21.5 -46q-55 -98 -151 -136q-47 -20 -104 -20q-84 0 -137.5 41t-69.5 113q-5 20 -5 51zM93 205q0 -107 86 -148q33 -15 77 -15q89 0 148 59q60 54 76 151 q5 25 5 46q0 104 -87 144q-34 14 -76 14q-135 0 -198 -122q-31 -60 -31 -129zM197 685l43 49l139 -125l-28 -34z" />
<glyph unicode="&#xf3;" horiz-adv-x="608" d="M36 195q0 145 101 238q85 75 193 75q56 0 99 -19.5t69 -53.5t37 -82q6 -27 6 -56q0 -26 -4 -47q-6 -39 -12.5 -58t-21.5 -46q-55 -98 -151 -136q-47 -20 -104 -20q-84 0 -137.5 41t-69.5 113q-5 20 -5 51zM93 205q0 -107 86 -148q33 -15 77 -15q89 0 148 59q60 54 76 151 q5 25 5 46q0 104 -87 144q-34 14 -76 14q-135 0 -198 -122q-31 -60 -31 -129zM318 609l177 125l29 -49l-190 -110z" />
<glyph unicode="&#xf4;" horiz-adv-x="608" d="M36 195q0 145 101 238q85 75 193 75q56 0 99 -19.5t69 -53.5t37 -82q6 -27 6 -56q0 -26 -4 -47q-6 -39 -12.5 -58t-21.5 -46q-55 -98 -151 -136q-47 -20 -104 -20q-84 0 -137.5 41t-69.5 113q-5 20 -5 51zM93 205q0 -107 86 -148q33 -15 77 -15q89 0 148 59q60 54 76 151 q5 25 5 46q0 104 -87 144q-34 14 -76 14q-135 0 -198 -122q-31 -60 -31 -129zM198 613l146 142h49l101 -142h-68l-66 89l-95 -89h-67z" />
<glyph unicode="&#xf5;" horiz-adv-x="608" d="M36 195q0 145 101 238q85 75 193 75q56 0 99 -19.5t69 -53.5t37 -82q6 -27 6 -56q0 -26 -4 -47q-6 -39 -12.5 -58t-21.5 -46q-55 -98 -151 -136q-47 -20 -104 -20q-84 0 -137.5 41t-69.5 113q-5 20 -5 51zM93 205q0 -107 86 -148q33 -15 77 -15q89 0 148 59q60 54 76 151 q5 25 5 46q0 104 -87 144q-34 14 -76 14q-135 0 -198 -122q-31 -60 -31 -129zM177 662q52 39 100 45h14q20 0 39 -5.5t40 -14.5t33 -12t23 -3q12 0 22 2.5t21 8.5t16.5 9.5t18.5 12.5l27 -41q-53 -39 -100 -44h-7l-6 -1q-20 0 -39.5 5.5t-42 14.5t-32.5 12q-12 3 -23 3h-8 q-13 -1 -32 -10q-14 -6 -38 -23z" />
<glyph unicode="&#xf6;" horiz-adv-x="608" d="M36 195q0 145 101 238q85 75 193 75q56 0 99 -19.5t69 -53.5t37 -82q6 -27 6 -56q0 -26 -4 -47q-6 -39 -12.5 -58t-21.5 -46q-55 -98 -151 -136q-47 -20 -104 -20q-84 0 -137.5 41t-69.5 113q-5 20 -5 51zM93 205q0 -107 86 -148q33 -15 77 -15q89 0 148 59 q36 32 58.5 84.5t22.5 112.5q0 52 -23.5 89t-63.5 55q-34 14 -76 14q-70 0 -119.5 -33.5t-78.5 -88.5q-31 -60 -31 -129zM202 661q0 10 4 19t11 15.5t16 10.5t18 4q16 0 26.5 -10t10.5 -26q0 -19 -15 -34t-35 -15q-16 0 -26 10.5t-10 25.5zM424 661q0 20 15 34.5t34 14.5 q16 0 26.5 -10t10.5 -26q0 -19 -15 -34t-35 -15q-16 0 -26 10.5t-10 25.5z" />
<glyph unicode="&#xf7;" horiz-adv-x="490" d="M47 268l8 51h372l-8 -51h-372zM165 135q0 21 16 38t38 17q18 0 29.5 -10.5t11.5 -28.5q0 -21 -16.5 -37.5t-38.5 -16.5q-19 0 -31 14q-9 11 -9 24zM212 435q0 21 16.5 37.5t38.5 16.5q17 0 28.5 -10.5t11.5 -26.5q0 -23 -16.5 -39.5t-38.5 -16.5q-19 0 -30 14 q-10 12 -10 25z" />
<glyph unicode="&#xf8;" horiz-adv-x="608" d="M35 194q0 83 39 156q53 99 151 138q51 20 105 20q65 0 113 -27l29 38l44 -30l-33 -38q59 -57 59 -149q0 -22 -5 -52q-9 -57 -34 -104q-26 -47 -63 -82q-84 -74 -192 -74q-67 0 -115 27l-28 -38l-44 30l32 37q-58 53 -58 148zM93 199q0 -68 34 -108l280 348 q-29 12 -44.5 14.5t-40.5 2.5q-88 0 -148 -57q-81 -73 -81 -200zM170 59q37 -17 86 -17q30 0 45 3.5t37 12.5q33 14 59.5 36.5t46 53t30 70.5t10.5 85q0 66 -34 104z" />
<glyph unicode="&#xf9;" horiz-adv-x="624" d="M64 462l37 46q44 -37 59 -81q3 -12 3 -24q0 -9 -1 -14l-36 -225q-3 -18 -3 -34q0 -86 97 -86q54 0 95 26t83 74l58 356h55l-68 -421q0 -1 -0.5 -3t-0.5 -3q0 -11 9.5 -20t20.5 -9q19 0 32 15l41 -31q-36 -39 -81 -39q-33 0 -55 21.5t-22 54.5q0 8 1 13q-80 -86 -176 -86 q-73 0 -109.5 29.5t-36.5 94.5q0 14 1 22l40 251q3 17 -12 38.5t-31 34.5zM172 677l43 49l139 -125l-28 -34z" />
<glyph unicode="&#xfa;" horiz-adv-x="624" d="M64 462l37 46q44 -37 59 -81q3 -12 3 -24q0 -9 -1 -14l-36 -225q-3 -18 -3 -34q0 -86 97 -86q54 0 95 26t83 74l58 356h55l-68 -421q0 -1 -0.5 -3t-0.5 -3q0 -11 9.5 -20t20.5 -9q19 0 32 15l41 -31q-36 -39 -81 -39q-33 0 -55 21.5t-22 54.5q0 8 1 13q-80 -86 -176 -86 q-73 0 -109.5 29.5t-36.5 94.5q0 14 1 22l40 251q3 17 -12 38.5t-31 34.5zM293 601l177 125l29 -49l-190 -110z" />
<glyph unicode="&#xfb;" horiz-adv-x="624" d="M64 462l37 46q44 -37 59 -81q3 -12 3 -24q0 -9 -1 -14l-36 -225q-3 -18 -3 -34q0 -86 97 -86q54 0 95 26t83 74l58 356h55l-68 -421q0 -1 -0.5 -3t-0.5 -3q0 -11 9.5 -20t20.5 -9q19 0 32 15l41 -31q-36 -39 -81 -39q-33 0 -55 21.5t-22 54.5q0 8 1 13q-80 -86 -176 -86 q-73 0 -109.5 29.5t-36.5 94.5q0 14 1 22l40 251q3 17 -12 38.5t-31 34.5zM173 605l146 142h49l101 -142h-68l-66 89l-95 -89h-67z" />
<glyph unicode="&#xfc;" horiz-adv-x="624" d="M64 462l37 46q44 -37 59 -81q3 -12 3 -24q0 -9 -1 -14l-36 -225q-3 -18 -3 -34q0 -86 97 -86q54 0 95 26t83 74l58 356h55l-68 -421q0 -1 -0.5 -3t-0.5 -3q0 -11 9.5 -20t20.5 -9q19 0 32 15l41 -31q-36 -39 -81 -39q-33 0 -55 21.5t-22 54.5q0 8 1 13q-80 -86 -176 -86 q-73 0 -109.5 29.5t-36.5 94.5q0 14 1 22l40 251q3 17 -12 38.5t-31 34.5zM177 653q0 20 15 34.5t34 14.5q16 0 26.5 -10t10.5 -26q0 -19 -15 -34t-35 -15q-10 0 -18.5 5t-13 13t-4.5 18zM399 653q0 20 15 34.5t34 14.5q16 0 26.5 -10t10.5 -26q0 -19 -15 -34t-35 -15 q-10 0 -18.5 5t-13 13t-4.5 18z" />
<glyph unicode="&#xfd;" horiz-adv-x="554" d="M64 462l37 46q44 -37 59 -81q3 -12 3 -24q0 -9 -1 -14l-36 -225q-3 -18 -3 -34q0 -86 97 -86q49 0 86 22q38 21 75 60l13 19q7 12 8 26l54 329h55q-68 -420 -99 -617q-7 -46 -26 -80q-38 -61 -98 -80q-32 -8 -58 -8q-55 0 -86.5 36.5t-31.5 93.5q0 69 44 124q12 15 27 24 q-118 13 -118 115q0 10 2 30l40 251q3 17 -12 38.5t-31 34.5zM166 -148q0 -38 18.5 -61t54.5 -23q34 0 59.5 15t40 39.5t19.5 56.5l29 180l-13 -10q-31 -25 -59 -38l-54 -26q-29 -14 -46 -27t-30 -34.5t-18 -51.5q-1 -7 -1 -20zM305 601l177 125l29 -49l-190 -110z" />
<glyph unicode="&#xfe;" horiz-adv-x="542" d="M-26 -249l154 975h55q-18 -112 -28 -168q-12 -71 -24 -130q14 18 26.5 29.5t20 16t26.5 14.5q43 21 95 21q97 0 146 -75q31 -51 31 -123q0 -151 -98 -245q-78 -75 -181 -75q-61 0 -129 9l-39 -249h-55zM77 52l51 -5q31 -4 76 -4q78 0 138 57q76 76 76 197q0 99 -62 143 q-26 17 -65 17q-46 0 -83 -20t-61 -52q-19 -25 -26 -56z" />
<glyph unicode="&#xff;" horiz-adv-x="554" d="M64 462l37 46q44 -37 59 -81q3 -12 3 -24q0 -9 -1 -14l-36 -225q-3 -18 -3 -34q0 -86 97 -86q49 0 86 22q38 21 75 60l13 19q7 12 8 26l54 329h55q-68 -420 -99 -617q-7 -46 -26 -80q-38 -61 -98 -80q-32 -8 -58 -8q-55 0 -86.5 36.5t-31.5 93.5q0 69 44 124q12 15 27 24 q-118 13 -118 115q0 10 2 30l40 251q3 17 -12 38.5t-31 34.5zM166 -148q0 -38 18.5 -61t54.5 -23q34 0 59.5 15t40 39.5t19.5 56.5l29 180l-13 -10q-31 -25 -59 -38l-54 -26q-29 -14 -46 -27t-30 -34.5t-18 -51.5q-1 -7 -1 -20zM189 653q0 20 15 34.5t34 14.5q16 0 26.5 -10 t10.5 -26q0 -19 -15 -34t-35 -15q-16 0 -26 10.5t-10 25.5zM411 653q0 20 15 34.5t34 14.5q16 0 26.5 -10t10.5 -26q0 -19 -15 -34t-35 -15q-16 0 -26 10.5t-10 25.5z" />
<glyph unicode="&#x152;" horiz-adv-x="1193" d="M50 282q0 29 4 53l3 18q11 65 44 127q76 130 205 186q67 29 140 29q139 0 221 -102q19 -22 34 -53q16 106 23 147h448l-9 -57h-387l-37 -237h267l-9 -57h-267l-44 -276h407l-9 -57h-468l23 144q-127 -154 -304 -154q-135 0 -220 101q-65 78 -65 188zM104 288q0 -34 9 -65 q27 -107 125 -154q49 -23 106 -23q116 0 211 85q87 78 110 179l10 68q1 9 1 27q0 34 -8 61q-10 36 -18.5 52.5t-26.5 38.5q-31 38 -78.5 61.5t-106.5 23.5q-116 0 -211 -85q-95 -82 -116 -204l-3 -18q-4 -32 -4 -47z" />
<glyph unicode="&#x153;" horiz-adv-x="956" d="M36 195q0 83 38 155q53 99 151 138q51 20 105 20q77 0 126 -37t68 -102q30 58 86 100q53 39 122 39q76 0 122 -40q37 -37 37 -88q0 -50 -25.5 -87t-64.5 -59q-62 -34 -157 -34h-117q-3 -80 31 -119t111 -39q30 0 62.5 8.5t50.5 16t51 23.5l19 -42q-94 -58 -191 -58 q-156 0 -180 131q-26 -41 -44.5 -58t-52.5 -37q-60 -36 -136 -36q-84 0 -137.5 41t-69.5 113q-5 20 -5 51zM93 207q0 -109 86 -150q33 -15 77 -15q86 0 148 59q60 54 76 151q5 27 5 48q0 35 -11.5 63.5t-30.5 47.5t-45 31q-34 14 -76 14q-88 0 -148 -57q-62 -56 -77 -149 q-4 -30 -4 -43zM532 252h120q182 0 182 131q0 12 -3.5 21.5t-7 13.5t-13.5 14q-30 27 -86 27q-70 0 -125 -65q-55 -61 -67 -142z" />
<glyph unicode="&#x178;" horiz-adv-x="632" d="M71 611q8 33 38.5 58t66.5 25q52 0 74 -48l109 -280l228 319h70l-277 -386l-46 -299h-66l50 297l-125 321q-8 17 -26 17q-13 0 -24 -9t-14 -21zM278 837q0 20 15 34.5t34 14.5q16 0 26.5 -10t10.5 -26q0 -19 -15 -34t-35 -15q-16 0 -26 10.5t-10 25.5zM500 837 q0 20 15 34.5t34 14.5q16 0 26.5 -10t10.5 -26q0 -19 -15 -34t-35 -15q-16 0 -26 10.5t-10 25.5z" />
<glyph unicode="&#x2c6;" horiz-adv-x="420" d="M102 605l146 142h49l101 -142h-68l-66 89l-95 -89h-67z" />
<glyph unicode="&#x2dc;" horiz-adv-x="502" d="M127 654q52 39 100 45h14q20 0 39 -5.5t40 -14.5t33 -12t23 -3q32 0 78 33l27 -41q-53 -39 -100 -44h-7l-6 -1q-20 0 -39.5 5.5t-42 14.5t-32.5 12q-12 3 -23 3h-8q-12 -1 -32 -10q-14 -6 -38 -23z" />
<glyph unicode="&#x2000;" horiz-adv-x="469" />
<glyph unicode="&#x2001;" horiz-adv-x="939" />
<glyph unicode="&#x2002;" horiz-adv-x="469" />
<glyph unicode="&#x2003;" horiz-adv-x="939" />
<glyph unicode="&#x2004;" horiz-adv-x="313" />
<glyph unicode="&#x2005;" horiz-adv-x="234" />
<glyph unicode="&#x2006;" horiz-adv-x="156" />
<glyph unicode="&#x2007;" horiz-adv-x="156" />
<glyph unicode="&#x2008;" horiz-adv-x="117" />
<glyph unicode="&#x2009;" horiz-adv-x="187" />
<glyph unicode="&#x200a;" horiz-adv-x="52" />
<glyph unicode="&#x2010;" horiz-adv-x="436" d="M58 277l9 57h297l-9 -57h-297z" />
<glyph unicode="&#x2011;" horiz-adv-x="436" d="M58 277l9 57h297l-9 -57h-297z" />
<glyph unicode="&#x2012;" horiz-adv-x="436" d="M58 277l9 57h297l-9 -57h-297z" />
<glyph unicode="&#x2013;" horiz-adv-x="543" d="M47 277l9 57h427l-9 -57h-427z" />
<glyph unicode="&#x2014;" horiz-adv-x="703" d="M47 277l9 57h587l-9 -57h-587z" />
<glyph unicode="&#x2018;" horiz-adv-x="210" d="M86 543l2 10q7 48 32 88t62 64l29 -33q-47 -41 -59 -119l-2 -10q-2 -14 -12.5 -23.5t-24.5 -9.5q-13 0 -21 9.5t-6 23.5z" />
<glyph unicode="&#x2019;" horiz-adv-x="210" d="M81 533q46 40 59 119l1 10q3 14 13 23.5t24 9.5t22 -9.5t5 -23.5l-1 -10q-18 -103 -94 -152z" />
<glyph unicode="&#x201a;" horiz-adv-x="210" d="M-16 -77q47 41 59 119l2 10q1 9 6 16.5t13 12t18 4.5q14 0 21.5 -9.5t5.5 -23.5l-2 -10q-7 -48 -32 -88t-62 -64z" />
<glyph unicode="&#x201c;" horiz-adv-x="341" d="M88 543l2 10q7 48 32 88t62 64l29 -33q-47 -41 -59 -119l-2 -10q-2 -14 -12.5 -23.5t-24.5 -9.5q-13 0 -21 9.5t-6 23.5zM213 543l2 10q7 48 32 88t62 64l29 -33q-47 -41 -59 -119l-2 -10q-2 -14 -12.5 -23.5t-24.5 -9.5q-13 0 -21 9.5t-6 23.5z" />
<glyph unicode="&#x201d;" horiz-adv-x="341" d="M85 533q46 40 59 119l1 10q3 14 13 23.5t24 9.5t22 -9.5t5 -23.5l-1 -10q-18 -103 -94 -152zM210 533q46 40 59 119l1 10q3 14 13 23.5t24 9.5t22 -9.5t5 -23.5l-1 -10q-18 -103 -94 -152z" />
<glyph unicode="&#x201e;" horiz-adv-x="341" d="M-12 -77q47 41 59 119l2 10q1 9 6 16.5t13 12t18 4.5q14 0 21.5 -9.5t5.5 -23.5l-2 -10q-7 -48 -32 -88t-62 -64zM113 -77q47 41 59 119l2 10q2 14 12 23.5t25 9.5q14 0 21.5 -9.5t5.5 -23.5l-2 -10q-7 -48 -32 -88t-62 -64z" />
<glyph unicode="&#x2022;" horiz-adv-x="281" d="M50 302q0 39 30.5 68t69.5 29q29 0 50 -20t21 -50q0 -41 -30 -70t-71 -29q-30 0 -50 20.5t-20 51.5z" />
<glyph unicode="&#x2026;" horiz-adv-x="530" d="M13 32q0 20 15 34.5t34 14.5q16 0 26.5 -10t10.5 -26q0 -19 -15 -34t-35 -15q-16 0 -26 10.5t-10 25.5zM173 32q0 20 15 34.5t34 14.5q16 0 26.5 -10t10.5 -26q0 -19 -15 -34t-35 -15q-16 0 -26 10.5t-10 25.5zM333 32q0 20 15 34.5t34 14.5q16 0 26.5 -10t10.5 -26 q0 -19 -15 -34t-35 -15q-16 0 -26 10.5t-10 25.5z" />
<glyph unicode="&#x202f;" horiz-adv-x="187" />
<glyph unicode="&#x2039;" horiz-adv-x="379" d="M33 247q0 22 40 52l235 184l30 -41l-246 -191l186 -191l-44 -41l-176 184q-25 24 -25 44z" />
<glyph unicode="&#x203a;" horiz-adv-x="379" d="M11 60l246 191l-186 191l44 41l177 -184q24 -27 24 -43q0 -23 -39 -53l-236 -184z" />
<glyph unicode="&#x205f;" horiz-adv-x="234" />
<glyph unicode="&#x20ac;" horiz-adv-x="600" d="M46 237l19 52h65l6 40l2 18h-75l20 52h67q48 190 193 246q48 19 114 19q33 0 50 -1l59 -5l-9 -55l-57 4q-34 2 -52 2q-103 0 -158 -55.5t-79 -154.5h247l-18 -52h-241l-2 -18q-1 -5 -6 -40h231l-16 -52h-218q0 -192 171 -192q24 0 44 3.5t40 11t32.5 13.5t34.5 18l19 -45 q-42 -28 -82.5 -42t-96.5 -14q-230 0 -223 247h-81z" />
<glyph unicode="&#x2122;" horiz-adv-x="619" d="M94 590l5 31h200l-5 -31h-83l-41 -258h-33l41 258h-84zM288 331l46 290h50l45 -242l126 242h50l-46 -290h-32l41 258l-127 -247h-35l-45 247l-41 -258h-32z" />
<glyph unicode="&#xe000;" horiz-adv-x="500" d="M0 0v500h500v-500h-500z" />
<glyph unicode="&#xfb03;" horiz-adv-x="681" d="M-37 -260l115 722q25 167 117 222q33 18 78 18q69 0 102 -40q45 40 108 40q76 0 107 -47l-47 -41q-20 36 -69 36q-59 0 -91 -55q-26 -45 -40 -130l-2 -16h164v1h55l-59 -370v-4q0 -13 8 -22t21 -9q19 0 31 15l41 -30q-34 -40 -81 -40q-32 0 -54 21t-22 53q0 11 1 16 l50 317h-164l-104 -657h-55l104 657h-155l-104 -657h-55zM131 449h155l2 13q7 49 23 95q11 33 29 64l-7 -7q-20 36 -69 36q-59 0 -91 -55q-26 -45 -40 -130z" />
<glyph unicode="&#xfb04;" horiz-adv-x="798" d="M-27 -260l115 722q25 167 117 222q33 18 78 18q76 0 107 -47l-47 -41q-20 36 -69 36q-33 0 -54 -16t-38 -44q-28 -53 -41 -135l-32 -204h213l35 219q25 167 116 213q32 17 77 17q59 0 91.5 -29.5t32.5 -85.5q0 -13 -1 -19l-77 -485v-4q0 -13 8 -22t21 -9q19 0 31 15 l41 -30q-13 -17 -35 -28.5t-46 -11.5q-32 0 -54 21t-22 54q0 10 1 15l77 484q3 38 -17 60.5t-59 22.5q-49 0 -78 -35q-27 -36 -42 -90l-45 -272h148l-8 -52h-148l-73 -461h-55l73 461h-213l-73 -459h-55z" />
</font>
</defs>
</svg>
