<?xml version="1.0" standalone="no"?>
<!DOCTYPE svg PUBLIC "-//W3C//DTD SVG 1.1//EN" "http://www.w3.org/Graphics/SVG/1.1/DTD/svg11.dtd" >
<svg xmlns="http://www.w3.org/2000/svg">
<metadata></metadata>
<defs>
<font id="airstreamregular" horiz-adv-x="500" >
<font-face units-per-em="1000" ascent="800" descent="-200" />
<missing-glyph horiz-adv-x="275" />
<glyph horiz-adv-x="1000" />
<glyph horiz-adv-x="1000" />
<glyph unicode="&#xd;" horiz-adv-x="1000" />
<glyph unicode=" "  horiz-adv-x="275" />
<glyph unicode="&#x09;" horiz-adv-x="275" />
<glyph unicode="&#xa0;" horiz-adv-x="275" />
<glyph unicode="!" horiz-adv-x="202" d="M151 100l-32 -98h-104l31 98h105v0zM311 593l-135 -414h-104l135 414h104v0z" />
<glyph unicode="&#x22;" horiz-adv-x="140" d="M171 617l-62 -115h-95l63 115h94v0zM291 617l-62 -115h-95l63 115h94v0z" />
<glyph unicode="#" />
<glyph unicode="$" horiz-adv-x="409" d="M468 514q0 -6 -1.5 -11.5t-2.5 -11.5q-4 -16 -12 -31t-17 -28q-17 -25 -34.5 -49t-34.5 -48l-81 57q9 12 17.5 24.5t17.5 24.5q8 12 16.5 24.5t17.5 24.5q1 1 1.5 2t1.5 2q1 2 2.5 4t2.5 4q1 1 2 3t1 3q-9 -2 -18.5 -5t-19.5 -6q-17 -7 -34 -15t-31 -17q-3 -2 -9.5 -6.5 t-14.5 -10.5q-6 -5 -12 -11t-10 -12q-2 -4 -3 -7.5t-1 -6.5l2 -6t3 -5q13 -13 25.5 -26.5t24.5 -27.5q12 -13 24.5 -26.5t25.5 -27.5q9 -9 13 -20.5t6 -23.5v-5.5v-4.5q0 -12 -2.5 -23.5t-7.5 -22.5q-14 -33 -43 -53t-64 -20h-8h-8l-38 -117h-70l38 117h-66h-66l32 99h93.5 h92.5q7 0 11 4.5t6 10.5q-11 13 -22.5 25.5t-23.5 24.5q-11 12 -22.5 24.5t-23.5 25.5q-16 17 -23.5 38t-6.5 43q1 55 42 92.5t89 61.5q10 5 20 9.5t20 8.5l20 61h70l-14 -39q11 1 21 1t19 -2q32 -6 50 -29.5t17 -54.5v-4.5v-4.5v0z" />
<glyph unicode="%" />
<glyph unicode="&#x26;" horiz-adv-x="586" d="M607 228l-32 -99h-65q-3 -50 -44.5 -88.5t-91.5 -38.5h-139.5h-139.5q-48 0 -71 28t-23 65q0 4 0.5 8.5t1.5 9.5q4 25 17.5 48.5t37.5 39.5l20 14l20 14q10 6 20 13l20 14q-1 1 -1.5 2l-1.5 3q-13 21 -23.5 46t-10.5 52q0 8 1.5 15.5t3.5 15.5q17 51 75 93t125 57 q14 4 28 5.5t28 1.5q30 0 57 -9t47 -29q11 -10 18 -23.5t9 -29.5q1 -4 1 -7.5v-7.5q0 -40 -28 -75t-62 -62q-14 -11 -27 -20.5t-24 -17.5l-57 81q6 4 19.5 14t28.5 22q4 4 8 7.5t9 6.5q13 12 23 23t11 19q-6 5 -14.5 7.5t-19.5 1.5q-13 0 -27.5 -3t-29.5 -8 q-26 -10 -50.5 -25t-39.5 -31q-5 -6 -8.5 -11.5t-5.5 -10.5v0v0v-1v0q0 -6 10 -25.5t22 -40.5q2 -2 3 -4l2 -4q11 -19 21 -35.5t14 -22.5l-159 -107l-1.5 -1.5l-1.5 -1.5q-3 -2 -6 -6t-4 -8h68.5h68.5h68.5h68.5q3 0 6.5 1t7.5 3q7 4 13.5 10t8.5 13h-89l32 99h254v0z" />
<glyph unicode="'" horiz-adv-x="38" d="M166 617l-62 -115h-95l63 115h94v0z" />
<glyph unicode="(" />
<glyph unicode=")" />
<glyph unicode="*" />
<glyph unicode="+" />
<glyph unicode="," horiz-adv-x="150" d="M129 23l-78 -91l-44 38l39 45v0.5v0.5l-0.5 0.5l-0.5 0.5q-10 9 -15 21t-5 25q0 11 3 20.5t10 17.5q9 10 21 15t25 5h4.5t5.5 -1q7 -1 14.5 -4.5t13.5 -8.5q11 -9 16 -21t5 -25v-4.5t-1 -5.5q-1 -7 -4.5 -14.5t-8.5 -13.5v0z" />
<glyph unicode="-" horiz-adv-x="222" d="M266 348l-33 -99h-220l32 99h221v0z" />
<glyph unicode="." horiz-adv-x="131" d="M125 62q0 -25 -17.5 -42.5t-42.5 -17.5q-24 0 -41.5 17.5t-17.5 42.5t17.5 42t41.5 17q25 0 42.5 -17t17.5 -42v0z" />
<glyph unicode="/" />
<glyph unicode="0" horiz-adv-x="491" d="M446 508q20 -32 29 -68t9 -74q0 -8 -0.5 -17t-1.5 -17q-6 -68 -36.5 -132.5t-73.5 -109.5q-33 -34 -73 -56t-82 -29q-7 -1 -14.5 -1.5t-14.5 -0.5q-42 0 -80.5 20t-67.5 65q-20 32 -29 68t-9 73q0 9 0.5 17.5t1.5 17.5q7 68 37.5 132.5t73.5 109.5q39 41 85.5 64t95.5 23 q47 0 86 -22.5t64 -62.5v0zM378 308q3 12 4.5 26t1.5 30v9.5t-1 9.5q-3 42 -23 76.5t-64 34.5q-54 0 -96.5 -42.5t-67.5 -94.5q-8 -18 -14.5 -35.5t-9.5 -33.5q-2 -12 -3.5 -26t-1.5 -29v-8.5t1 -8.5q2 -43 21.5 -78.5t65.5 -35.5q54 0 96.5 42.5t66.5 94.5q9 18 15 35.5 t9 33.5v0z" />
<glyph unicode="1" horiz-adv-x="240" d="M296 593l-192 -591h-104l192 591h104v0z" />
<glyph unicode="2" horiz-adv-x="531" d="M516 357q-1 -4 -2.5 -7.5t-2.5 -6.5q-14 -40 -40 -78t-64 -70q-28 -25 -58 -48t-61 -45h210l-32 -100h-354q-15 0 -29.5 -6t-25.5 -15l-57 80q23 17 50.5 28.5t55.5 12.5q63 37 122 78.5t114 89.5q5 4 10 9l10 10q21 23 39.5 52.5t24.5 60.5q1 5 1.5 10.5t0.5 10.5 q0 6 -0.5 11.5t-2.5 10.5q-6 26 -26.5 36t-44.5 12q-4 1 -8.5 1h-8.5q-18 0 -40.5 -7.5t-46.5 -21.5q-27 -15 -53 -34t-50 -39q-6 -5 -12 -10.5t-12 -10.5l-67 73q8 8 17 16t19 16q49 40 109.5 75t123.5 42q6 0 12 0.5t12 0.5q27 0 53.5 -7t51.5 -24q38 -25 55 -62.5 t17 -78.5q0 -8 -0.5 -16t-2.5 -16q-1 -9 -3 -17l-4 -16v0z" />
<glyph unicode="3" horiz-adv-x="523" d="M513 420q-10 -31 -37.5 -57.5t-65.5 -46.5q31 -25 47 -54.5t18 -60.5q1 -3 1 -6v-6q0 -38 -20 -74t-58 -63q-40 -28 -84 -38.5t-90 -10.5q-30 0 -60 3.5t-59 7.5q-29 5 -57 12t-50 16l36 92q24 -9 51.5 -15.5t55.5 -10.5q24 -3 46.5 -4.5t43.5 -1.5q12 0 28.5 2.5 t33.5 7.5q31 9 57.5 28t26.5 49t-26 48.5t-58 28.5q-18 5 -34.5 7.5t-28.5 2.5v99h5.5h5.5q32 1 63.5 8.5t56.5 19.5q5 2 10 4.5t10 5.5q15 8 27 20t12 28q0 13 -14 19.5t-31 9.5q-13 3 -24.5 3.5t-16.5 0.5q-13 0 -26 -0.5t-25 -1.5q-26 -3 -51.5 -6.5t-50.5 -7.5l-16 98 q6 1 11.5 2t12.5 2q28 5 61.5 9t67.5 5h5.5h5.5q48 0 91.5 -12t71.5 -45q14 -16 21 -36t7 -40q-1 -10 -2.5 -20.5t-4.5 -20.5v0z" />
<glyph unicode="4" horiz-adv-x="492" d="M547 593l-117 -362h54l-33 -99h-53l-42 -130h-106l44 130h-296l40 122l382 339h127v0zM392 437l-231 -206h165l66 206v0z" />
<glyph unicode="5" horiz-adv-x="484" d="M460 593l-32 -99h-174l-43 -133q19 1 39.5 0.5t41.5 -2.5q34 -3 65.5 -12.5t56.5 -27.5q26 -19 38.5 -43t12.5 -51q0 -8 -1 -16.5t-3 -16.5q-3 -9 -6 -17.5t-7 -16.5q-46 -92 -133 -123.5t-182 -32.5h-3.5h-2.5q-32 0 -64 2.5t-62 6.5l13 98q26 -3 55.5 -5.5t60.5 -2.5 h9.5h9.5q64 2 122.5 23t87.5 78q3 5 4 10t1 9q0 15 -14.5 22.5t-31.5 10.5q-4 1 -8 1.5t-8 1.5q-16 3 -31.5 4t-31.5 1q-14 0 -28.5 -1t-29.5 -3q-28 -3 -57 -9t-59 -13l118 357h277v0z" />
<glyph unicode="6" horiz-adv-x="438" d="M401 217q0 -86 -70 -148.5t-154 -66.5h-5h-4q-5 0 -10 0.5t-10 1.5q-6 0 -11 1l-10 2q-60 14 -92 58t-32 99q0 9 1 18.5t3 19.5q8 39 23 77t34 72q36 65 82 126.5t97 115.5h133l4 -4q-12 -11 -24.5 -23t-25.5 -25q-19 -19 -37.5 -40t-36.5 -43q-16 -21 -32.5 -42.5 t-31.5 -44.5l10 2t11 1q5 1 10 1h10q68 0 118 -43.5t50 -114.5v0zM302 217q0 30 -21 44.5t-48 14.5q-7 0 -14.5 -1t-14.5 -3q-39 -10 -71 -41t-32 -71q0 -22 13 -36.5t35 -19.5q5 -1 10.5 -1.5t11.5 -0.5q5 0 10.5 0.5t10.5 1.5q41 8 75.5 40t34.5 73v0z" />
<glyph unicode="7" horiz-adv-x="367" d="M420 593q-7 -12 -14.5 -25t-15.5 -25q-48 -81 -95 -163.5t-88 -168.5q-25 -53 -45 -105.5t-34 -103.5h-102q27 120 82.5 233t115.5 219q6 10 11.5 20t11.5 20h-243v99h416v0z" />
<glyph unicode="8" horiz-adv-x="565" d="M529 456q0 -39 -20.5 -71.5t-50.5 -55.5q28 -21 45.5 -50t17.5 -66q0 -9 -1.5 -18t-3.5 -19q-21 -75 -97.5 -120t-163.5 -52q-8 -1 -15.5 -1h-14.5q-52 0 -99.5 15.5t-79.5 48.5q-20 20 -31 45.5t-11 53.5q0 9 1.5 18t3.5 18q13 45 52.5 83t88.5 60q-10 15 -15.5 32.5 t-5.5 36.5q0 8 1.5 16.5t3.5 17.5q15 55 64 90.5t105 48.5q14 3 28 4.5t28 1.5q6 0 12 -0.5t12 -0.5q55 -6 100.5 -40t45.5 -96v0zM422 213q0 23 -21 36.5t-47 19.5q-15 4 -29.5 5.5t-24.5 1.5q-16 0 -37.5 -3t-43.5 -10q-38 -11 -71.5 -32.5t-42.5 -54.5q-1 -3 -1.5 -6 t-0.5 -6q0 -22 21 -35.5t47 -19.5q15 -4 29.5 -5.5t24.5 -1.5q16 0 39 4t48 11q41 13 75.5 37t34.5 59v0zM429 448q1 2 1 4.5v4.5q0 14 -13 22t-29 12q-8 1 -15.5 2t-13.5 1q-11 0 -24 -2t-27 -6q-26 -8 -49.5 -24.5t-29.5 -40.5q-1 -2 -1 -4v-4q0 -14 13.5 -22.5 t29.5 -12.5q8 -1 15.5 -2t13.5 -1q11 0 24 2t27 7q26 8 49 24t29 40v0z" />
<glyph unicode="9" horiz-adv-x="400" d="M399 401q-8 -41 -23.5 -80t-35.5 -76q-36 -65 -82 -126.5t-97 -116.5h-139q53 52 101 107t88 116q-10 -2 -19.5 -3t-19.5 -1q-66 0 -117.5 42t-51.5 116q0 86 69.5 148.5t152.5 66.5h5h4q11 0 22 -1.5t21 -3.5q59 -13 92 -56.5t33 -99.5q0 -7 -0.5 -15.5t-2.5 -16.5v0z M303 436q0 22 -13 37t-35 19q-5 2 -10.5 2h-11.5q-5 0 -10.5 -0.5t-10.5 -1.5q-41 -8 -75.5 -40t-34.5 -73q0 -30 21 -44.5t48 -14.5q7 0 14.5 1t14.5 3q39 10 71 41t32 71v0z" />
<glyph unicode=":" horiz-adv-x="153" d="M125 62q0 -25 -17.5 -42.5t-42.5 -17.5q-24 0 -41.5 17.5t-17.5 42.5t17.5 42t41.5 17q25 0 42.5 -17t17.5 -42v0zM165 222q0 -25 -17.5 -42.5t-42.5 -17.5q-24 0 -41.5 17.5t-17.5 42.5t17.5 42t41.5 17q25 0 42.5 -17t17.5 -42v0z" />
<glyph unicode=";" horiz-adv-x="172" d="M129 23l-78 -91l-44 38l39 45v0.5v0.5l-0.5 0.5l-0.5 0.5q-10 9 -15 21t-5 25q0 11 3 20.5t10 17.5q9 10 21 15t25 5h4.5t5.5 -1q7 -1 14.5 -4.5t13.5 -8.5q11 -9 16 -21t5 -25v-4.5t-1 -5.5q-1 -7 -4.5 -14.5t-8.5 -13.5v0zM165 222q0 -25 -17.5 -42.5t-42.5 -17.5 q-24 0 -41.5 17.5t-17.5 42.5t17.5 42t41.5 17q25 0 42.5 -17t17.5 -42v0z" />
<glyph unicode="&#x3c;" />
<glyph unicode="=" />
<glyph unicode="&#x3e;" />
<glyph unicode="?" horiz-adv-x="347" d="M172 102l-33 -100h-104l32 100h105v0zM401 497q0 -49 -27.5 -83.5t-60.5 -65.5q-3 -2 -6 -5t-6 -5l-2.5 -2.5l-2.5 -2.5q-5 -4 -9.5 -8.5t-9.5 -8.5q-5 -5 -10 -9.5t-10 -8.5q-25 -24 -44.5 -46t-24.5 -37l-13 -39h-100q2 6 3.5 12.5t3.5 13.5q3 13 6.5 25.5t5.5 18.5 q5 15 14.5 31t22.5 32q15 18 33 36t36 35q7 7 14.5 13.5t14.5 13.5q23 21 41.5 38.5t21.5 24.5q4 7 6 12.5t3 10.5q-3 1 -7.5 1h-11.5h-66h-66q-20 0 -32 -11.5t-12 -27.5q0 -2 0.5 -4.5t0.5 -4.5q2 -7 6.5 -13.5t11.5 -12.5l-63 -77q-26 22 -40.5 51.5t-14.5 60.5 q0 6 0.5 11.5t1.5 11.5t2.5 11.5t3.5 11.5q16 43 53 67.5t82 24.5h66h66q46 0 82.5 -23t36.5 -73v0z" />
<glyph unicode="@" horiz-adv-x="801" d="M794 185l-23 -78l-164 -32q-4 -1 -8.5 -1.5t-9.5 -0.5q-13 0 -25 5.5t-20 16.5l-11 -34l-53 -11q-4 -1 -7 -1h-6q-22 0 -35.5 14t-12.5 36q0 5 1 10.5t2 11.5q2 7 4.5 14.5t5.5 15.5q1 4 2 7t2 7q4 11 7 22t4 21q-21 -13 -40.5 -36t-33.5 -48q-8 -13 -14 -26t-10 -24 l-17 -53l-78 -14l117 381l-77 -27l-135 -473l-71 8l125 439l-204 -67l-9 71l237 78l19 68l71 -8l-9 -34l78 27l33 109l78 14l-29 -95l80 28l10 -71l-115 -40l-48 -154q11 8 23.5 14.5t24.5 9.5q5 1 9 1.5t8 0.5h3h3q1 0 2.5 -0.5t2.5 -0.5q21 -3 30.5 -19.5t9.5 -38.5 q0 -11 -3 -25t-8 -30q-2 -6 -3.5 -11.5t-3.5 -11.5q-1 -6 -2.5 -11.5t-3.5 -11.5l37 8q0 7 1 14t3 14q3 11 6 21.5t7 20.5q15 40 38.5 68.5t49.5 45.5q10 6 19.5 11t18.5 8q10 4 19.5 5.5t19.5 1.5q24 0 41 -12.5t17 -38.5q0 -6 -1.5 -13t-3.5 -15q-7 -19 -25 -44.5 t-52 -57.5l102 21v0zM697 271q-24 -6 -43 -26t-30 -43q-1 -3 -2.5 -6t-2.5 -6q35 28 53 48t25 33v0z" />
<glyph unicode="A" horiz-adv-x="569" d="M603 490q3 -12 4.5 -26t1.5 -29q0 -38 -10 -88t-30 -113l-76 -231h-104l47 143h-224q-1 -18 0.5 -36t3.5 -37q2 -14 5.5 -29t6.5 -29l10 -34l10 -34q1 -5 2.5 -9.5t2.5 -8.5l-95 -29q-11 38 -21.5 77.5t-17.5 79.5q-2 11 -3.5 22t-2.5 23q-1 11 -1.5 22t-0.5 22h-114 l32 100h97q19 70 52 129.5t73 104.5q31 34 64.5 58.5t68.5 38.5q20 8 40 12.5t39 4.5q56 0 91.5 -24t48.5 -80v0zM508 467q-4 15 -15.5 21.5t-29.5 6.5q-20 0 -43.5 -10t-47.5 -28q-12 -9 -23.5 -20t-23.5 -24q-34 -37 -58.5 -79t-38.5 -88h240l6 18q20 59 28.5 101.5 t8.5 72.5q0 8 -0.5 15.5t-2.5 13.5v0z" />
<glyph unicode="B" horiz-adv-x="430" d="M501 515q1 -5 1 -10.5v-10.5q0 -53 -31 -104.5t-68 -96.5q-14 -18 -28.5 -34.5t-26.5 -31.5q11 -23 21 -47l20 -48q5 -10 7 -22t2 -24q0 -32 -19 -57.5t-57 -25.5h-323l32 99h263q-15 35 -30 70.5t-30 70.5l28 34t28 35q13 17 27 34l28 34q20 24 33.5 47t19.5 42 q3 8 4.5 14.5t1.5 12.5q0 8 -6.5 13t-20.5 6q-16 1 -33.5 -7t-35.5 -24q-8 -6 -15 -13t-14 -15q-29 -31 -54 -75.5t-42 -96.5q-11 -34 -18.5 -71.5t-9.5 -75.5h-99q2 46 10.5 90.5t22.5 87.5q20 62 50 115t66 93q33 37 77.5 64t93.5 27q11 0 23 -2t24 -6q32 -10 53 -33 t25 -58v0z" />
<glyph unicode="C" horiz-adv-x="455" d="M511 593q22 -16 31 -36t9 -43q0 -7 -1 -15t-3 -15q-5 -23 -16 -45.5t-23 -41.5q-15 -23 -35 -47.5t-43 -48.5q-33 -36 -72 -70.5t-79 -65.5l-2.5 -2.5t-3.5 -2.5l-60 78q33 25 64.5 53t59.5 56q27 27 49 53t38 50q2 2 6 8.5t8 15.5l2 4l2 4q5 9 8 17.5t3 12.5v0.5v0.5 l-1 1v0q-6 5 -12.5 6.5t-14.5 1.5q-10 0 -20.5 -2.5t-20.5 -6.5q-11 -5 -21.5 -10t-20.5 -11q-11 -7 -20 -13l-15 -10q-14 -10 -29.5 -22.5t-30.5 -27.5q-43 -40 -81 -91t-55 -105q-5 -15 -7.5 -30t-2.5 -30q0 -26 10.5 -43.5t38.5 -17.5h64h73h73h64l-32 -99h-55.5h-64.5 h-66h-56q-70 0 -109.5 46.5t-39.5 113.5q0 6 0.5 12t0.5 12q9 92 70.5 179.5t134.5 148.5q11 9 21.5 17.5t21.5 16.5q3 2 5.5 4t5.5 3q28 19 61.5 36t68.5 23q9 2 19 3t19 1q22 0 42.5 -6t39.5 -20v0z" />
<glyph unicode="D" horiz-adv-x="572" d="M595 543q17 -21 24.5 -45t7.5 -51q0 -47 -24 -99t-68 -105q-26 -32 -59 -63t-72 -61q-36 -27 -70 -47t-68 -34q-7 -3 -13.5 -5.5t-13.5 -4.5q-22 -8 -44.5 -12.5t-44.5 -7.5q-33 -4 -66.5 -4.5t-67.5 -0.5h-8h-8l126 386h104l-92 -283q58 8 108.5 32t96.5 59 q14 11 37.5 31t48.5 45q20 20 39.5 42.5t34.5 45.5q13 21 20.5 41t7.5 39q0 13 -4 24.5t-14 21.5v1q-10 11 -29 16t-45 5q-16 0 -33 -2t-36 -5q-60 -10 -129 -33.5t-140 -56.5q-14 -6 -27.5 -12t-26.5 -13l-43 90q17 8 34.5 16t35.5 16q73 31 144.5 55t134.5 35q20 4 41 6 t43 2h3.5h3.5q43 -1 83.5 -15t67.5 -49v0z" />
<glyph unicode="E" horiz-adv-x="549" d="M583 540q3 -9 4.5 -17.5t1.5 -16.5q0 -44 -33.5 -82.5t-73.5 -69.5q-21 -16 -41 -30t-35 -25l-61 79q3 2 24.5 17t46.5 35q5 4 9.5 7.5t9.5 7.5q22 18 37.5 34t15.5 25q0 2 -0.5 3.5t-2.5 2.5q-8 5 -17.5 7t-20.5 2q-8 0 -16 -1t-17 -3q-15 -3 -30 -8t-27 -10 q-5 -2 -10 -4.5l-9 -4.5q-6 -3 -19 -11.5t-27 -18.5q-10 -8 -19.5 -16.5t-16.5 -17.5q-6 -8 -10 -16t-4 -15q0 -3 0.5 -5.5t1.5 -4.5l-1 2l74 -130q-17 -13 -34.5 -25.5t-34.5 -25.5q-34 -25 -68 -50.5t-68 -51.5h417l-32 -99h-192.5h-193.5q-53 0 -82 26t-29 61q0 7 1.5 14 t3.5 14q6 17 18 33.5t31 30.5q17 12 33.5 24.5t33.5 25.5t33.5 25.5t33.5 24.5q-1 3 -3 5.5t-3 4.5t-2.5 4t-2.5 4q-13 21 -23.5 43t-11.5 48q0 73 70.5 132.5t155.5 81.5q20 6 40 8.5t39 2.5q26 0 49.5 -5.5t42.5 -17.5q16 -10 27 -23t17 -30v0z" />
<glyph unicode="F" horiz-adv-x="507" d="M618 594l-32 -99h-92l-68 -210h94l-32 -100h-94l-65 -198l-116 -36l77 234h-81l32 100h81l68 210h-268q-11 0 -16 -3.5t-5 -8.5q0 -7 6 -17t15 -20q3 -3 5.5 -6.5t5.5 -6.5q10 -11 19 -20t12 -13l-76 -62q-6 7 -12.5 14.5t-12.5 15.5q-23 27 -42 58.5t-19 66.5 q0 44 35.5 72.5t129.5 28.5h451v0z" />
<glyph unicode="G" horiz-adv-x="517" d="M558 414q-19 -32 -49 -67t-69 -70q-11 -10 -22.5 -20t-23.5 -20l-63 76q5 4 9.5 8t9.5 8q42 36 73.5 71t49.5 65l3.5 7l5.5 11l1.5 3t0.5 2q3 7 5.5 13t2.5 9v0.5v0.5l-1 1v0q-4 4 -10 5.5t-14 1.5q-10 0 -22 -3t-25 -9q-9 -3 -18 -7.5t-17 -9.5q-11 -6 -21 -12t-16 -10 q-14 -8 -28 -18t-28 -21q-60 -48 -114 -113t-72 -135q-2 -7 -3.5 -17t-2.5 -20v-4v-4q0 -19 7 -35.5t26 -21.5q10 -2 19.5 -3.5t18.5 -1.5q52 0 97.5 29t84.5 63q1 2 2.5 3.5t3.5 2.5q4 11 8.5 22.5t8.5 22.5l93 -35q-46 -121 -102.5 -239t-137.5 -221l-78 60 q40 51 73 106.5t61 112.5q-27 -11 -55 -18t-58 -6q-16 0 -31.5 1.5t-32.5 6.5q-41 10 -68 40t-35 72q-1 6 -2 11.5t-1 10.5q-1 5 -1 10.5v11.5v10t1 11q8 90 69.5 175.5t134.5 147.5q23 20 45.5 37t43.5 30q2 1 4 2.5t4 2.5q27 17 59 32t65 22q11 2 21.5 3.5t21.5 1.5 q22 0 42.5 -6t38.5 -20q22 -16 31 -36t9 -42q0 -7 -1 -14t-2 -15q-4 -18 -12 -35.5t-18 -33.5v0z" />
<glyph unicode="H" horiz-adv-x="475" d="M589 642l-230 -703h-104l81 246h-142l-60 -182h-104l60 182h-87l32 100h87l100 309h104l-100 -309h142l117 357h104v0z" />
<glyph unicode="I" horiz-adv-x="469" d="M536 470q-26 -81 -52 -161.5t-52 -160.5q-19 -60 -75 -102.5t-119 -42.5h-237l32 99h51.5h51.5h51h51q4 0 8 0.5t8 1.5q27 6 51.5 27.5t32.5 46.5q13 40 26 80.5t26 80.5t26 80.5t26 80.5q1 2 1.5 4.5t0.5 3.5q-4 2 -7.5 2h-8.5q-8 0 -17.5 -2.5t-18.5 -5.5 q-11 -5 -21.5 -10.5t-19.5 -11.5q-9 -5 -16 -10.5t-13 -9.5q-8 -6 -18.5 -13.5t-20.5 -16.5q-24 -20 -44.5 -46t-20.5 -55q0 -7 1.5 -13.5t4.5 -13.5q6 -14 15 -27t19 -26q0 -1 1 -2l2 -2q3 -5 6.5 -9.5t6.5 -9.5l-84 -54q-5 8 -10 15l-10 14q-10 14 -19.5 29t-17.5 32 q-7 17 -10.5 34t-3.5 34q0 39 17.5 76t46.5 65q11 11 24 22.5t27 23.5q32 26 69 49.5t75 34.5q14 5 27.5 7t26.5 2q18 0 35 -4.5t33 -15.5q23 -15 33 -36.5t10 -44.5q0 -10 -2 -19.5t-5 -19.5v0z" />
<glyph unicode="J" horiz-adv-x="496" d="M517 470l-60 -184l-60 -184h94l-32 -99h-94q-3 -7 -5.5 -15.5t-4.5 -16.5l-2 -6l-2 -6q-15 -51 -35 -99t-66 -82q-14 -11 -28 -18.5t-28 -12.5q-27 -9 -54.5 -10.5t-59.5 -1.5h-2h-2q-25 0 -42 10t-25 28q-4 7 -5.5 14.5t-1.5 15.5q0 23 11.5 45.5t25.5 41.5l8 10t7 9 q9 11 20 23t24 24q26 26 56 50t61 44q19 12 37.5 21.5t36.5 16.5q17 51 33.5 102.5t33.5 103.5t33.5 103.5t33.5 102.5q1 2 1.5 4.5t0.5 3.5q-4 2 -7.5 2h-8.5q-8 0 -17.5 -2t-18.5 -6q-10 -4 -20.5 -10t-20.5 -12q-8 -5 -15.5 -10.5t-13.5 -9.5q-9 -6 -19 -14t-21 -17 q-24 -20 -44.5 -46t-20.5 -55q0 -6 1.5 -12.5t4.5 -13.5q7 -13 15.5 -26t17.5 -25q1 -2 2.5 -3.5l2.5 -2.5q3 -5 6.5 -9.5t6.5 -9.5l-83 -54q-4 6 -8.5 12t-8.5 12q-1 1 -2 2.5t-2 2.5q-10 14 -19.5 29t-17.5 32q-7 17 -10.5 34t-3.5 34q0 39 17.5 76t46.5 65q11 11 24 22.5 t27 23.5q32 26 69 49.5t75 34.5q14 5 27.5 7t26.5 2q18 0 35 -4.5t33 -15.5q23 -15 33 -36t10 -44q0 -5 -0.5 -10t-1.5 -10q0 -5 -1.5 -10t-3.5 -10v0zM246 -46q-34 -25 -66.5 -55.5t-58.5 -64.5q36 0 67.5 21t42.5 56q2 6 4 11.5t4 10.5q1 5 3 10.5t4 11.5v-1z" />
<glyph unicode="K" horiz-adv-x="529" d="M298 594l-192 -591h-104l192 591h104v0zM668 594l-373 -374l172 -217h-127l-126 159v1v0h-0.5t-0.5 1q-1 1 -2 2.5t-3 3.5q-8 11 -15.5 23.5t-7.5 27.5q0 14 8 29.5t27 34.5l308 309h140v0z" />
<glyph unicode="L" horiz-adv-x="489" d="M482 427l-94 -172l-87 47q12 22 24 43.5t23 43.5q12 21 23.5 42.5t23.5 43.5q5 8 7.5 13.5t1.5 7.5q0 2 -1.5 3t-4.5 1q-4 0 -9 -1t-13 -3q-6 -1 -13 -3.5t-13 -5.5q-27 -13 -51.5 -39t-37.5 -65l-91 -281h290l-32 -99h-321q-16 -14 -35 -27t-39 -25l-32 96q25 16 44 33 t25 35q12 38 24.5 75t24.5 75q12 37 24 74.5t24 74.5q20 61 60 101.5t83 61.5q11 5 22 8.5t21 6.5q11 3 21.5 4t20.5 1q48 0 78.5 -26t29.5 -70q0 -17 -5 -35.5t-16 -38.5v0z" />
<glyph unicode="M" horiz-adv-x="771" d="M787 594q-4 -8 -7.5 -16.5t-8.5 -17.5q0 -1 -0.5 -1.5t-0.5 -1.5q-9 -19 -17 -36.5t-14 -28.5q-7 -15 -15 -31.5t-15 -34.5q-9 -17 -16.5 -35.5t-15.5 -36.5q-21 -51 -36 -100.5t-15 -87.5q0 -28 15.5 -46t55.5 -19h49l-32 -98h-17q-94 0 -132.5 45t-37.5 118 q0 17 2 34.5t6 35.5q-40 -55 -81 -113t-87 -120h-106l75 303q-49 -77 -101.5 -153t-110.5 -150h-125q23 30 47 61.5t48 65.5t48.5 69t48.5 70q44 65 85.5 129.5t77.5 121.5q11 17 22 34.5t25 39.5h109l-85 -341q7 10 14.5 20.5t14.5 20.5q8 10 15.5 20.5t14.5 20.5 q44 62 89.5 126t95.5 133h118v0z" />
<glyph unicode="N" horiz-adv-x="635" d="M747 594q-11 -27 -24.5 -58t-27.5 -63l-6 -14t-6 -13q-16 -35 -31 -67t-28 -58q-35 -67 -75 -132t-85 -122q-3 -4 -6 -7.5t-6 -7.5q-17 -18 -38.5 -34t-46.5 -16q-4 0 -8 0.5t-9 1.5q-29 8 -40 31.5t-12 49.5q-1 5 -0.5 10.5t0.5 10.5q4 47 9.5 100t12.5 109l-24 -44 t-25 -43q-36 -61 -72 -118t-72 -107h-123q18 24 38 52t40 58q10 15 20 30.5t20 30.5q17 27 33 53t30 51q28 49 56 100t55 102q15 29 30 57.5t29 56.5h101q-2 -19 -5 -42l-6 -46q0 -2 -0.5 -5t-0.5 -5q-4 -26 -7 -50.5t-6 -43.5q-3 -21 -5.5 -42.5t-5.5 -43.5 q-5 -43 -10 -85.5t-9 -83.5q37 50 71 105.5t63 113.5q30 59 56 117.5t47 110.5h109v0z" />
<glyph unicode="O" horiz-adv-x="617" d="M727 429l-32 -99h-112q-5 -127 -104 -227t-227 -100q-12 0 -24 1t-24 3q-91 16 -146 86t-55 161q0 131 100.5 235.5t233.5 104.5q80 0 143.5 -44.5t89.5 -120.5h157v0zM484 330h-6.5h-6.5q-29 0 -55 4t-45 32q-8 12 -12 24t-4 23q0 16 5 32t11 33l2 6l2 6 q-10 2 -19.5 3.5t-18.5 1.5q-93 0 -164 -75t-71 -166q0 -65 41 -108.5t107 -43.5q89 0 158.5 70t75.5 158v0z" />
<glyph unicode="P" horiz-adv-x="587" d="M640 431q-2 -19 -6.5 -39t-9.5 -40q-24 -84 -79.5 -154t-148.5 -70h-32h-32h-32h-32l32 100h19.5h18.5h27h31q46 0 82 48t54 106q6 20 9 39.5t3 37.5q0 11 -1 21t-4 18q-1 2 -2 2.5t-3 0.5q-4 0 -10.5 -2.5t-13.5 -6.5q-2 -1 -4.5 -2t-4.5 -2q-8 -5 -14 -8.5t-7 -4.5 q-95 -78 -168.5 -178t-138.5 -204q-12 -18 -23 -35.5t-22 -35.5q-3 -5 -6 -9.5t-6 -9.5h-117l4 6l4 6l1.5 3t1.5 2q7 12 13.5 23t10.5 17q7 12 14.5 25t14.5 26q17 29 33 60.5t31 63.5q17 37 32 73.5t26 69.5q1 4 5 19.5t8 33.5q1 1 1 2.5v2.5q5 22 9 40.5l4 18.5h-31h-31 h-32h-31l32 99h60q53 0 91.5 -20.5t36.5 -96.5v-4.5v-4.5q-1 -6 -2 -13t-2 -15q11 13 24.5 27.5t27.5 29.5q38 38 84 70t95 32h5.5t4.5 -1q2 0 4.5 -0.5t5.5 -0.5q51 -9 69 -46.5t19 -80.5v-2v-2q0 -9 -0.5 -18t-1.5 -17v0z" />
<glyph unicode="Q" horiz-adv-x="578" d="M605 508q2 -4 3 -9t2 -9q0 -5 0.5 -9.5t0.5 -9.5q0 -7 -0.5 -14t-2.5 -14q-7 -39 -30.5 -77t-49.5 -70q-9 -9 -16.5 -18t-15.5 -17h67l-33 -99h-138q-18 -16 -37 -31t-39 -29h264l-32 -99h-410q-24 0 -46 -12.5t-40 -31.5q-13 21 -19.5 39t-6.5 34q0 34 26 52t63 18 q29 14 57 29t55 31h-6h-6q-65 1 -123 23t-79 94q-4 12 -5.5 23.5t-1.5 22.5q1 97 96 174.5t209 106.5q28 8 55 11.5t53 3.5q65 0 116 -26.5t70 -86.5v0zM511 478q-8 26 -33 35.5t-54 9.5h-8t-8 -1q-18 -1 -35.5 -4t-32.5 -7q-6 -1 -11.5 -3t-10.5 -3q-17 -6 -36.5 -13.5 t-40.5 -17.5q-43 -22 -80.5 -53t-50.5 -71q-2 -7 -3.5 -14t-0.5 -13q0 -31 25 -46.5t59 -15.5h82.5h82.5q10 9 31 29.5t44 45.5q9 10 18 20.5t17 20.5q20 25 33.5 49t13.5 42v5.5t-1 4.5v0z" />
<glyph unicode="R" horiz-adv-x="686" d="M719 350q-40 -64 -104 -105.5t-135 -63.5q16 -16 29.5 -36t23.5 -43h113l-33 -99h-145q-1 3 -2 5.5t-2 5.5q-24 57 -57.5 97.5t-117.5 42.5l32 100q14 1 28.5 2.5t28.5 3.5q76 12 146 44t112 99q2 3 4 6.5t4 7.5q3 5 5.5 10.5t5.5 10.5q3 7 4.5 13.5t1.5 12.5 q-1 10 -7 17t-21 8q-25 2 -60 -9t-81 -38q-99 -60 -175.5 -153.5t-142.5 -193.5q-15 -23 -29.5 -46t-29.5 -46h-112q47 77 92 159.5t79 166.5q6 14 11.5 28t10.5 28q11 30 18.5 55t8.5 44q0 6 -2.5 8.5t-11.5 2.5h-104l32 99h58q53 0 92 -20t34 -96q0 -12 -2.5 -24.5 t-6.5 -27.5q14 13 31 28t37 30q35 26 75.5 50.5t82.5 39.5q22 7 44 11.5t43 4.5q26 0 50 -7.5t44 -25.5q22 -18 31 -41t9 -48q0 -6 -0.5 -11.5t-1.5 -10.5q-4 -26 -14 -50.5t-24 -45.5v0z" />
<glyph unicode="S" horiz-adv-x="525" d="M591 568q8 -12 11 -25.5t3 -27.5q0 -4 -0.5 -9t-0.5 -9q-4 -25 -15 -49t-24 -43q-23 -32 -45.5 -63.5t-45.5 -63.5l-81 57q23 32 45.5 64t45.5 63q4 5 7 10.5t6 11.5q3 7 5.5 14.5t3.5 13.5q-10 1 -25.5 -2.5t-38.5 -12.5q-13 -5 -27.5 -10.5t-29.5 -12.5 q-11 -5 -21.5 -10.5t-20.5 -11.5q-6 -4 -14 -9.5t-16 -12.5q-14 -11 -25.5 -25t-14.5 -28q-1 -3 -1 -5v-4q0 -6 2.5 -12t7.5 -12q32 -35 64.5 -70.5t64.5 -70.5q10 -10 14.5 -23t6.5 -27v-4.5v-4.5q0 -15 -3 -29t-9 -27q-16 -38 -49.5 -61.5t-76.5 -23.5h-293l32 99h130.5 h130.5q15 0 26.5 12t12.5 27q-15 17 -30.5 34t-31.5 34t-31.5 34t-31.5 34q-19 20 -27.5 44.5t-8.5 49.5q2 65 51.5 111.5t108.5 75.5q20 10 39 18t37 15t40 12.5t44 7.5h6.5h6.5q26 0 48.5 -9.5t37.5 -33.5v0z" />
<glyph unicode="T" horiz-adv-x="455" d="M549 495l-151 -20l-147 -487l-95 28l134 445l-274 -37l-13 98l319 42l26 86l95 -29l-13 -42l106 14l13 -98v0z" />
<glyph unicode="U" horiz-adv-x="501" d="M583 594q-10 -18 -19.5 -36t-19.5 -37q-3 -5 -6 -10.5t-5 -10.5q-8 -13 -15 -27t-12 -28q-15 -43 -29 -86t-28 -85q-4 -15 -8.5 -29t-9.5 -29q-9 -28 -18 -56.5t-18 -57.5h98l-29 -99h-83q-31 0 -55 20t-31 49q-33 -32 -70.5 -50.5t-81.5 -18.5q-77 0 -107.5 40.5 t-30.5 104.5q0 60 18.5 118.5t40.5 115.5q7 18 14 35.5t13 35.5q7 20 10 30.5t3 14.5q0 2 -0.5 3.5t-2.5 1.5q-10 4 -21 6l-22 4q-2 1 -3.5 1t-3.5 1l-14 2t-14 3l20 96q7 -1 14 -2.5t14 -2.5q2 0 4.5 -0.5t4.5 -0.5q13 -2 27 -5t27 -8q40 -14 55 -38t15 -53q0 -15 -3 -30.5 t-8 -31.5q-4 -11 -8 -22.5t-8 -23.5q-3 -6 -5.5 -12t-4.5 -12q-4 -11 -9 -23.5t-10 -25.5q-5 -15 -10.5 -30t-10.5 -31q-10 -31 -16.5 -61t-6.5 -55q0 -20 8.5 -33t30.5 -13q70 0 126.5 94.5t108.5 207.5q2 5 4.5 9.5t4.5 9.5q2 4 3.5 7.5t3.5 6.5q5 11 10 21.5t9 21.5 q8 19 14 38t11 38q1 1 1.5 2.5t0.5 2.5q2 8 4.5 16.5t5.5 16.5h133v0z" />
<glyph unicode="V" horiz-adv-x="382" d="M517 594q-2 -3 -3.5 -6l-3.5 -7q-10 -17 -18.5 -32.5t-12.5 -21.5q-10 -16 -19.5 -32t-18.5 -32q-68 -112 -142.5 -224t-169.5 -220q-10 -11 -24 -16.5t-29 -7.5h-3h-4q-25 0 -44 13.5t-21 41.5q-2 46 0.5 96t7.5 101q5 55 13 109.5t17 104.5q6 37 12 70.5t11 62.5h100 q-2 -9 -3.5 -18t-3.5 -18q-18 -104 -34.5 -207.5t-20.5 -207.5q81 99 150 206.5t135 217.5q4 6 8 13l8 14h113v0z" />
<glyph unicode="W" horiz-adv-x="657" d="M776 594q-32 -53 -66.5 -110.5t-71.5 -115.5q-59 -94 -123 -185t-128 -164q-10 -11 -24 -16.5t-29 -7.5h-3h-4q-25 0 -44 13.5t-21 41.5q-1 35 0 71t3 73q-32 -45 -67 -89t-72 -86q-10 -11 -24 -16.5t-29 -7.5h-3h-4q-24 0 -43.5 13.5t-20.5 41.5q-2 46 0 96t7 101 q6 56 13.5 111t16.5 105q6 37 12 70t11 61h102q-2 -9 -3.5 -17.5t-2.5 -17.5q-4 -19 -7.5 -38.5t-7.5 -38.5q-15 -85 -27.5 -169t-15.5 -170q21 25 41 50.5t39 52.5q0 -2 18 24t39 59q1 0 1.5 1l0.5 1q17 25 31.5 47t20.5 32l4 26t4 25q7 37 13 70.5t11 62.5h99 q-5 -28 -11.5 -64t-12.5 -77q-4 -24 -8 -50.5t-8 -52.5q-8 -56 -13.5 -110t-7.5 -97q81 99 150 206.5t135 217.5q4 6 8 13l8 14h114v0z" />
<glyph unicode="X" horiz-adv-x="628" d="M697 500q-66 -17 -133.5 -56t-136.5 -98l149 -343h-108l-118 272q-58 -58 -114.5 -126.5t-112.5 -145.5h-123q43 62 89 121t92 113q32 37 64 71t63 64l-96 222h108l66 -153q36 29 71.5 53.5t71.5 43.5q36 20 71.5 34.5t71.5 23.5l25 -96v0z" />
<glyph unicode="Y" horiz-adv-x="454" d="M567 594q-28 -52 -54 -105t-51 -107q-2 -5 -4.5 -10t-5.5 -9l-2 -4l-2 -4q-5 -10 -9.5 -20t-8.5 -21q-10 -32 -34.5 -117.5t-57.5 -180.5l-14 -40t-15 -39q-22 -55 -45 -104.5t-47 -85.5q-5 -8 -11 -16t-12 -15l-74 64q15 18 31 47.5t33 66.5q8 19 16 38.5t16 40.5 q7 16 13.5 33t11.5 34q-25 -18 -53 -27.5t-60 -9.5q-71 0 -96.5 41t-25.5 99q0 16 1.5 33t4.5 33q4 27 10 53t12 50q6 19 11 36t9 30q2 4 6 18t9 32q1 3 2 6.5t2 7.5q5 19 8.5 35.5t3.5 24.5v2.5t-1 1.5q-4 2 -22 2t-47 -2l-5 99q44 3 77.5 0.5t58.5 -22.5q20 -16 27.5 -38 t7.5 -48q0 -11 -1 -22.5t-3 -22.5q-3 -16 -7.5 -32.5t-8.5 -31.5q-3 -10 -6 -19.5t-6 -18.5q-2 -6 -8 -27l-14 -49q-3 -11 -5.5 -23t-5.5 -24q-5 -22 -8 -43t-3 -38q0 -19 5 -31.5t18 -12.5q61 0 113 73t95 171q5 11 8.5 24t7.5 28q3 11 5.5 22.5t5.5 23.5q2 3 3 7l2 8 q10 34 21 67.5t23 67.5h155v0z" />
<glyph unicode="Z" horiz-adv-x="597" d="M620 405q-37 -59 -83 -111t-94 -102l-2 -2l-2 -2q-16 -17 -32 -34.5t-32 -34.5q3 -9 6.5 -18t7.5 -17q57 15 102 24t64 12l15 -98q-18 -3 -61 -10.5t-97 -18.5q0 -2 0.5 -4.5t0.5 -5.5v-4.5v-4.5q-1 -87 -70 -149t-152 -77q-12 -3 -24 -4t-24 -1h-4.5h-5.5q-46 3 -86 29 t-47 74v6v5q0 65 90.5 115t199.5 84q1 0 1.5 0.5t1.5 0.5q-4 10 -8 20.5t-8 20.5t-8 20.5t-8 20.5q20 23 40.5 45t41.5 44l8.5 8.5t8.5 9.5q48 50 94 102.5t82 109.5q5 8 7.5 15t2.5 14q0 10 -6.5 18.5t-20.5 12.5q-10 3 -20 4.5t-21 1.5q-28 0 -58.5 -8.5t-61.5 -21.5 q-32 -13 -63 -30t-59 -35q-33 -21 -59.5 -40t-44.5 -33l-61 78q17 13 37 27.5t43 29.5q49 32 107 62t118 47q29 8 57 12.5t55 4.5q32 0 62 -7t57 -23q23 -14 33 -36.5t10 -48.5q0 -5 -0.5 -11t-1.5 -11q-3 -21 -10.5 -40.5t-17.5 -34.5v0zM311 -32q-10 -2 -40.5 -10.5 t-64.5 -21.5q-33 -12 -62.5 -26.5t-40.5 -29.5q-3 -3 -4.5 -6.5t-1.5 -7.5v-2t1 -2l0.5 -1t0.5 -2q3 -6 10 -9.5t15 -4.5q5 -1 10 -1.5t9 -0.5q11 0 23 1.5t24 5.5q44 12 80.5 43t40.5 76v-1z" />
<glyph unicode="[" />
<glyph unicode="\" />
<glyph unicode="]" />
<glyph unicode="^" />
<glyph unicode="_" />
<glyph unicode="`" horiz-adv-x="341" d="M291 563l-25 -73l-219 74l25 73l219 -74v0z" />
<glyph unicode="a" horiz-adv-x="367" d="M389 101l-32 -99h-97q-16 0 -29 5t-24 13q-15 -9 -32.5 -15t-34.5 -8q-6 -1 -12 -1.5t-12 -0.5q-31 0 -58.5 14t-43.5 45q-6 13 -9 25.5t-3 25.5q0 26 10 50.5t26 45.5q50 67 124.5 94.5t154.5 29.5h6.5h7.5v-99q-32 0 -63.5 -4t-60.5 -15q-26 -9 -49 -25t-40 -39 q-1 -2 -3 -5t-4 -7q-2 -3 -3.5 -6l-3.5 -7q-1 -3 -2 -7t-1 -7q0 -4 3 -7.5t10 -3.5q39 0 58 26t30 57q2 7 4 13l4 12l94 -31l-22 -69h107v0z" />
<glyph unicode="b" horiz-adv-x="339" d="M407 288l-32 -100h-58q-1 -10 -3 -20t-5 -20q-18 -55 -70 -101t-114 -46q-10 0 -20 2t-21 5q-41 14 -61 47t-19 72q0 6 0.5 12.5t1.5 13.5t2.5 13.5t3.5 12.5l142 438h104l-152 -469q-1 -3 -1.5 -5.5t-1.5 -5.5q0 -3 -0.5 -6t-0.5 -6q0 -10 5 -17t17 -7q25 0 48 19t35 42 q3 4 5 8.5t3 8.5q2 5 2.5 9.5t0.5 8.5q0 8 -2 15.5t-5 14.5q-1 2 -1.5 3.5t-1.5 3.5q-4 9 -7 18.5t-3 21.5q0 6 1 12t3 13l8 27l94 -30l-2 -8h105v0z" />
<glyph unicode="c" horiz-adv-x="342" d="M360 101l-33 -99h-222q-28 0 -52 12.5t-37 37.5q-6 12 -8.5 24.5t-2.5 25.5q0 25 7.5 49t17.5 45q0 1 0.5 1.5t0.5 1.5q27 52 81.5 95t115.5 43h3.5h3.5q1 -1 3 -1h4q38 -4 62 -28t24 -61v-3v-3q0 -2 -0.5 -3.5t-0.5 -3.5l-5 -44h-100l5 48q-29 -2 -55 -23t-42 -46 q-3 -5 -5.5 -9t-4.5 -8q0 -1 -2.5 -6.5t-5.5 -13.5q-1 -1 -1.5 -2.5t-1.5 -2.5q-2 -7 -4 -13.5t-2 -9.5q0 -1 0.5 -2t1.5 -1h255v0z" />
<glyph unicode="d" horiz-adv-x="384" d="M457 617l-152 -469l-2.5 -10t-1.5 -12q0 -4 1 -7.5t3 -7.5q3 -4 8 -6t10 -3q2 -1 4 -1h4h65l-32 -99h-33q-28 0 -54 10.5t-45 32.5q-22 -18 -47 -29t-50 -13q-4 -1 -7.5 -1h-7.5q-62 0 -90.5 36t-28.5 84q0 7 0.5 13.5t1.5 12.5q2 13 6 26.5t9 25.5q22 49 68.5 86.5 t110.5 37.5h61l95 293h104v0zM226 226h-29q-35 0 -62.5 -28t-34.5 -61q0 -2 -0.5 -4t-0.5 -4q-1 -13 2.5 -20.5t18.5 -7.5h3.5h3.5q25 3 47 22.5t31 42.5q1 2 1.5 4t1.5 4l18 52v0z" />
<glyph unicode="e" horiz-adv-x="342" d="M352 101l-33 -99h-218q-27 0 -50.5 11.5t-36.5 35.5q-6 11 -9 24t-3 26q0 3 0.5 6.5t0.5 7.5q2 20 8.5 40.5t13.5 37.5q21 48 51.5 79.5t63.5 47.5q14 8 27.5 12.5t26.5 6.5q6 1 12 1.5t13 0.5q41 0 73 -23t32 -64q0 -8 -1.5 -16.5t-5.5 -18.5q-8 -25 -33 -54.5 t-70 -61.5h138v0zM221 242q-36 -2 -63 -28t-40 -57q0 -1 -0.5 -1.5t-0.5 -1.5q46 27 70.5 49.5t33.5 38.5v0z" />
<glyph unicode="f" horiz-adv-x="377" d="M390 326l-32 -100h-58q26 -39 39 -85.5t12 -96.5v-12t-1 -12q-5 -90 -50 -172.5t-122 -123.5q-16 -9 -33.5 -14.5t-35.5 -7.5q-4 -1 -7.5 -1h-7.5q-24 0 -45.5 9.5t-38.5 31.5v-2q-10 17 -16.5 37.5t-6.5 46.5q0 19 4 41t11 47l102 314h-87l40 100h79l94 291h105 l-94 -291h149v0zM216 172q-4 6 -8.5 11.5t-9.5 9.5q-25 -78 -50.5 -155.5t-50.5 -155.5q-1 -2 -1.5 -3.5t-0.5 -3.5q-2 -4 -3 -8.5t-2 -8.5q-3 -9 -4.5 -18t-1.5 -17q0 -10 4 -16t14 -6q5 0 12.5 2.5t17.5 7.5q51 28 82.5 88t36.5 125q1 5 1 10.5v11.5q0 35 -8.5 67.5 t-27.5 58.5v0z" />
<glyph unicode="g" horiz-adv-x="355" d="M362 226q-21 0 -45 -1t-48 -4q-46 -6 -88.5 -24.5t-65.5 -57.5q-1 -2 -2 -3.5t-2 -3.5q-3 -5 -5 -10t-1 -9q0 -5 4 -8.5t14 -3.5t20 2.5t21 6.5q30 12 57 37.5t35 53.5q0 1 0.5 1.5t0.5 1.5l1 3l95 -28l-84 -259q-28 -83 -107.5 -144t-168.5 -61l-1 97q4 1 6.5 1t5.5 1 q55 4 104.5 45.5t66.5 92.5l21 65q-9 -4 -18 -6.5t-18 -4.5q-10 -2 -19 -3t-18 -1q-31 0 -59.5 14t-44.5 42q-7 13 -10 26t-3 26q0 20 6.5 40t16.5 38q41 70 110.5 98t145.5 35q19 2 38.5 2.5t38.5 0.5v-98v0z" />
<glyph unicode="h" horiz-adv-x="392" d="M406 101l-32 -99h-71q-37 0 -60 24.5t-23 57.5q0 4 0.5 7.5t0.5 7.5q1 3 2 6.5t2 7.5q3 10 7 20.5t7 21.5q2 4 3.5 8t2.5 7q5 14 8.5 27t5.5 25q-30 -12 -57.5 -40t-47.5 -60q-9 -13 -16 -26.5t-12 -25.5l-22 -68h-104l200 615h104l-101 -312q12 7 25 11.5t26 7.5 q4 0 8.5 0.5t8.5 0.5q8 0 16.5 -1.5t15.5 -4.5q29 -10 42 -35t13 -54q0 -15 -3.5 -33t-11.5 -38q-2 -7 -4.5 -14.5t-4.5 -14.5t-4.5 -14.5t-4.5 -14.5h81v0z" />
<glyph unicode="i" horiz-adv-x="198" d="M208 101l-32 -99h-90q-37 0 -60 24.5t-23 57.5q0 4 0.5 7.5t0.5 7.5q1 3 2 6.5t2 7.5l68 213h105l-72 -225h99v0zM233 477q0 -28 -19.5 -48.5t-48.5 -20.5q-28 0 -48 20.5t-20 48.5t20 48t48 20q29 0 48.5 -20t19.5 -48v0z" />
<glyph unicode="j" horiz-adv-x="367" d="M394 326l-118 -362q-27 -83 -105.5 -143.5t-166.5 -62.5h-2h-2v97q4 1 7.5 1t7.5 1q54 6 102 47t65 91l48 150q-12 -5 -24.5 -9.5t-25.5 -8.5l-25 96q5 1 10.5 2.5t10.5 3.5q34 13 65 38t47 59h106v0zM430 477q0 -28 -19.5 -48.5t-48.5 -20.5q-28 0 -48 20.5t-20 48.5 t20 48t48 20q29 0 48.5 -20t19.5 -48v0z" />
<glyph unicode="k" horiz-adv-x="354" d="M376 268l-146 -108l25 -57q2 -1 5.5 -1.5t7.5 -0.5h74l-33 -99h-41h-2.5h-2.5q-29 1 -56 14t-40 43l-26 59l-38 -116h-104l199 615h104l-119 -369l134 100l59 -80v0z" />
<glyph unicode="l" horiz-adv-x="207" d="M286 617l-168 -516h99l-32 -99h-89q-37 0 -60 24.5t-23 57.5q0 4 0.5 7.5t0.5 7.5q1 3 2 6.5t2 7.5l164 504h104v0z" />
<glyph unicode="m" horiz-adv-x="596" d="M593 101l-32 -99h-68q-37 0 -60 24t-23 58q0 7 1.5 14.5t3.5 14.5q6 20 12 39.5t13 38.5q1 3 2 5.5t1 4.5q2 5 4 10.5t2 10.5q-9 -3 -19.5 -10t-21.5 -17q-28 -24 -53 -57t-39 -68q-6 -16 -11 -33.5t-10 -34.5h-105q4 12 7.5 24.5t7.5 25.5t8.5 25.5t9.5 24.5 q3 11 6.5 22t7.5 23q4 11 7.5 22t7.5 22q1 2 1.5 4t0.5 4q2 5 3.5 11t2.5 12q-8 -3 -19 -10t-22 -17q-28 -25 -53.5 -57t-37.5 -68l-22 -68h-103l104 324h105l-8 -22q12 7 25.5 11.5t27.5 7.5q4 0 9 0.5t9 0.5q23 0 42 -10t32 -34v-0.5t1 -1.5q0 -1 0.5 -1.5l0.5 -0.5 q26 21 54 35t56 14q8 0 16.5 -1.5t16.5 -4.5q30 -12 41.5 -35.5t11.5 -51.5q0 -19 -3.5 -37t-9.5 -35q-3 -7 -5.5 -14.5t-4.5 -14.5q-2 -8 -4.5 -15t-4.5 -15h78v0z" />
<glyph unicode="n" horiz-adv-x="404" d="M406 101l-33 -99h-69q-37 0 -60 24t-23 58q0 7 1.5 14.5t3.5 14.5t4 13.5t4 12.5l8 26l8 26q1 2 1.5 4t0.5 4q2 5 3.5 11t2.5 12q-8 -3 -19 -10t-22 -17q-28 -24 -52.5 -57t-38.5 -68l-22 -68h-104l105 324h104l-7 -21q11 6 22.5 10.5t23.5 6.5q6 2 11.5 2.5t11.5 0.5 q8 0 16.5 -1.5t15.5 -4.5q29 -10 42 -35t13 -54q0 -15 -3.5 -32.5t-10.5 -37.5q-3 -7 -5 -14.5t-4 -14.5q-1 -3 -2 -5.5t-1 -4.5q-2 -5 -3 -10t-3 -10h80v0z" />
<glyph unicode="o" horiz-adv-x="351" d="M400 248l-33 -102h-48q-13 -58 -61.5 -101t-110.5 -43h-5.5t-5.5 1q-3 0 -5.5 0.5t-5.5 0.5q-55 8 -88.5 49.5t-33.5 96.5q0 71 52 126.5t125 55.5q44 0 78.5 -23t51.5 -61h90v0zM212 148q-26 5 -44.5 25t-21.5 48q-16 -10 -27 -26.5t-14 -34.5v-2.5v-2.5q-1 -1 -1 -2.5 v-2.5q1 -18 11.5 -32t31.5 -14q20 0 37.5 13t27.5 31v0z" />
<glyph unicode="p" horiz-adv-x="501" d="M511 101l-32 -99h-297v99h65q7 0 14 1.5t14 3.5q30 11 54.5 36.5t24.5 54.5q0 16 -10 22.5t-24 6.5q-20 0 -45 -15.5t-51 -42.5q-2 -3 -5 -6.5t-6 -6.5q-29 -34 -56 -78.5t-44 -95.5l-84 -261l-94 31l112 346q13 41 18 73t5 57q0 19 -2 34.5t-5 27.5q-1 4 -1.5 8t-1.5 7 q-1 5 -1.5 6.5t-1.5 2.5l97 21q2 -5 2 -6.5v-1.5l2 -10t2 -11q3 -11 5 -24.5t3 -29.5q32 31 71.5 52.5t82.5 21.5q11 0 22 -1.5t22 -5.5q40 -13 63.5 -46t23.5 -75q0 -25 -8.5 -49.5t-22.5 -46.5h89v0z" />
<glyph unicode="q" horiz-adv-x="433" d="M445 103l-33 -99h-34q1 -6 1.5 -12.5t0.5 -13.5q0 -15 -2 -29.5t-5 -28.5q-2 -7 -4 -14.5t-4 -14.5q-5 -16 -13 -34.5t-18 -37.5q-25 -44 -62 -81t-83 -37q-7 0 -14.5 1.5t-15.5 3.5q-33 10 -48 37t-15 58q0 10 2 20.5t5 21.5l54 166q-8 -2 -17.5 -3.5t-19.5 -1.5 q-31 0 -58 12t-42 40q-7 12 -10 24.5t-3 25.5q0 21 6.5 41.5t15.5 39.5q30 62 91 94t128 42q24 3 47.5 4t45.5 -1l-7 -99q-39 3 -75.5 -2.5t-66.5 -17.5q-31 -13 -57.5 -39.5t-28.5 -62.5q2 -1 6 -1h8q35 0 57.5 24.5t36.5 54.5l6 17l94 -30l-22 -67h153v0zM281 -18 q0 8 -0.5 13t-1.5 9h-19q-8 -24 -15.5 -47.5t-15.5 -47.5t-15.5 -47.5t-15.5 -48.5q-1 -2 -1 -4v-3q0 -4 3.5 -1t8.5 9q1 0 1.5 1l0.5 1q4 4 6.5 7.5t3.5 4.5q21 27 37 60.5t21 68.5q1 6 1.5 12.5t0.5 13.5v-1z" />
<glyph unicode="r" horiz-adv-x="345" d="M344 226h-38q-6 -4 -18 -16t-25 -27q-4 -4 -8 -9t-8 -9q-13 -17 -22 -31.5t-9 -23.5q1 -4 3.5 -6.5t8.5 -2.5h112l-32 -99h-17.5h-22.5h-22.5h-17.5q-31 0 -57.5 14t-41.5 42q-3 6 -5 12t-3 13q-2 6 -2.5 12t-0.5 12q0 32 14 62.5t33 56.5h-16q-3 0 -5.5 -0.5t-5.5 -1.5 q-10 -3 -19 -11.5t-13 -17.5q-1 -1 -1.5 -2.5t-0.5 -2.5l-8 -23l-94 31l55 172l95 -31l-5 -13h197v-100v0z" />
<glyph unicode="s" horiz-adv-x="258" d="M251 153q0 -67 -41 -109t-109 -42h-101l32 99h69q26 0 38.5 12.5t12.5 39.5q0 14 -3 26.5t-8 22.5q-19 -26 -32.5 -44.5t-13.5 -19.5l-80 58l21.5 30t48.5 66q25 36 47 66t22 31l89 -44q-1 -1 -12 -17t-28 -39q23 -28 35.5 -63.5t12.5 -72.5v0z" />
<glyph unicode="t" horiz-adv-x="235" d="M242 325l-32 -99h-53l-41 -125h119l-32 -99h-112q-36 0 -58.5 24t-22.5 56q0 3 0.5 6.5t0.5 7.5q1 4 2 7.5t2 6.5l38 116h-56l33 99h55l38 117l94 -31l-28 -86h53v0z" />
<glyph unicode="u" horiz-adv-x="338" d="M348 101l-33 -99h-14.5h-15.5q-22 0 -42.5 8t-36.5 22q-20 -14 -43.5 -22t-47.5 -8q-5 0 -9.5 0.5t-9.5 1.5q-5 0 -9.5 1.5t-9.5 2.5q-36 12 -54.5 41t-17.5 63q0 5 0.5 10t1.5 10q0 5 1.5 10t2.5 10l56 174h104l-66 -205q-1 -3 -1.5 -6t-0.5 -5q0 -4 2.5 -6.5t9.5 -2.5 q3 0 6 0.5t6 1.5q17 4 32 17.5t20 28.5q0 1 0.5 1.5t0.5 1.5l57 174h103l-65 -205q-1 -3 -1.5 -6t-0.5 -5q0 -4 2.5 -6.5t9.5 -2.5h63v0z" />
<glyph unicode="v" horiz-adv-x="319" d="M381 276l-32 -99h-83q-7 -12 -15 -24t-17 -24q-30 -40 -64.5 -70t-74.5 -57h-27q-6 9 -12 17.5t-11 16.5q-19 31 -30 64t-11 77q0 27 4 55t12 56q3 10 6 19.5t6 18.5h106q-10 -22 -18 -47.5t-12 -51.5q-3 -13 -4 -25.5t-1 -25.5q0 -10 1 -20.5t3 -20.5q19 17 35 36t29 40 q-5 9 -8 19t-3 20q0 6 1 12t3 12q8 25 30.5 42.5t48.5 23.5q5 1 10.5 1.5t10.5 0.5h68q-5 -16 -10.5 -32.5t-10.5 -33.5h70v0z" />
<glyph unicode="w" horiz-adv-x="475" d="M541 276l-33 -99h-84q-34 -57 -76.5 -98t-95.5 -77h-28q-2 2 -3.5 4.5t-3.5 4.5l-20 30t-17 32q-19 -20 -40 -37t-44 -34h-29q-2 3 -4.5 6.5t-4.5 6.5q-3 3 -5.5 6.5t-4.5 6.5q-25 33 -35 72t-10 79v12.5t1 12.5q2 31 9 62t18 60h103q-4 -13 -8.5 -27t-7.5 -28 q-7 -27 -11.5 -52t-4.5 -42q0 -7 0.5 -13.5t1.5 -12.5q0 -3 0.5 -6.5t1.5 -6.5q16 17 30 35.5t26 37.5q3 29 10 58t17 57h106q-8 -19 -14.5 -40t-11.5 -42q-4 -19 -6 -37t-2 -35q0 -10 1.5 -19.5t2.5 -17.5q18 17 34 36t29 40q-3 5 -5 9.5t-3 9.5q-2 5 -2.5 10t-0.5 9 q0 23 13 42t32 32q25 16 51.5 18t54.5 1h10.5h10.5q-5 -16 -10.5 -32.5t-10.5 -33.5h73v0z" />
<glyph unicode="x" horiz-adv-x="371" d="M409 326l-169 -197q1 -3 2 -5.5t2 -5.5t2 -5.5t2 -5.5q2 -4 4.5 -5t6.5 -1h110l-32 -99h-17.5h-21.5h-21.5h-17.5q-28 0 -51.5 11.5t-39.5 33.5l-38 -45h-130l127 147l-66 177h105q9 -23 17.5 -45.5t16.5 -45.5l78 91h131v0z" />
<glyph unicode="y" horiz-adv-x="325" d="M369 326q-4 -10 -9 -20.5t-10 -20.5q-10 -23 -23.5 -52t-29.5 -58q-4 -9 -9 -17.5t-10 -16.5q0 -27 -1 -54.5t-4 -55.5q-13 -109 -66 -204.5t-170 -125.5l-24 95q77 20 112.5 85.5t46.5 139.5q-15 -9 -30.5 -13.5t-32.5 -4.5q-49 0 -78.5 32.5t-29.5 76.5q0 10 2 20.5 t5 20.5q14 43 28.5 86.5t27.5 86.5h104q-16 -51 -32.5 -102t-33.5 -102q0 -1 -0.5 -2t-0.5 -2q0 -2 -0.5 -4t-0.5 -4q0 -4 2 -6t7 -2q12 0 25 10t27 27q15 20 29.5 45.5t27.5 52.5q12 24 23 46.5t19 41.5v0v1h109v0z" />
<glyph unicode="z" horiz-adv-x="286" d="M279 223q0 -30 -14.5 -57t-31.5 -52q-4 -6 -8.5 -12t-8.5 -12q37 -11 52.5 -33.5t15.5 -52.5q0 -21 -7.5 -46.5t-20.5 -53.5q-7 -15 -16 -30t-19 -30q-12 -18 -25 -36.5t-27 -35.5q-3 -4 -6.5 -8.5t-6.5 -8.5l-129 -1q12 15 25.5 31.5t27.5 34.5q9 11 18 23l18 24 q15 20 28 40.5t22 39.5q4 8 6 15.5t2 13.5q0 12 -9.5 19t-33.5 7h-93l52 77q13 20 26.5 40t27.5 40q7 10 13.5 19.5t13.5 19.5q0 1 1.5 3.5t3.5 5.5q0 1 1 2.5t1 2.5q1 3 2 5.5t1 4.5t-1 3t-3 1h-180l32 100h21h22h59h46q43 0 72.5 -30t29.5 -73v0z" />
<glyph unicode="{" />
<glyph unicode="|" />
<glyph unicode="}" />
<glyph unicode="~" />
<glyph unicode="&#xa1;" horiz-adv-x="260" d="M15 -159l135 414h104l-135 -414h-104v0zM175 334l32 98h104l-31 -98h-105v0z" />
<glyph unicode="&#xa2;" horiz-adv-x="348" d="M432 447q-11 -22 -29 -46.5t-41 -49.5q-3 -4 -7 -8.5t-8 -8.5l-72 69q23 24 40.5 46t27.5 41q2 3 2.5 6t1.5 5q1 1 1.5 2t0.5 2q-3 1 -6 1h-6q-6 0 -12.5 -1.5t-12.5 -3.5q-10 -4 -19.5 -9.5t-17.5 -10.5q-5 -4 -9 -7l-8 -6q-11 -8 -23 -17.5t-25 -21.5q-29 -28 -56 -63 t-40 -72q-5 -13 -7.5 -26t-2.5 -25q0 -15 5 -25t21 -10h44h44h44h44l-32 -99h-22h-22h-23h-22l-35 -107h-69l35 108q-52 5 -81.5 43t-29.5 90v8.5t1 9.5q6 75 55.5 145.5t107.5 118.5q8 7 15.5 13t15.5 11q16 11 34.5 22t37.5 19l19 57h69l-14 -42q16 0 31 -4.5t29 -12.5 q23 -14 33 -34t10 -42q0 -16 -4.5 -32.5t-12.5 -32.5v0z" />
<glyph unicode="&#xa3;" horiz-adv-x="465" d="M487 488l-82 -55q-6 9 -15 12.5t-20 3.5q-5 0 -10 -1l-10 -2q-11 -3 -21.5 -7t-18.5 -9q-4 -2 -7.5 -4.5t-6.5 -4.5q-25 -19 -36.5 -39.5t-19.5 -45.5q-2 -5 -3 -9t-3 -9h80l-32 -100h-80l-23 -70q20 -1 39 -5t35 -11q11 -4 25 -6.5t29 -2.5q6 0 12.5 0.5t13.5 0.5 q25 3 49.5 10t42.5 16l43 -89q-28 -13 -61.5 -22.5t-67.5 -12.5q-8 -1 -16 -1.5t-16 -0.5q-25 0 -48 4t-43 12q-12 5 -26.5 7t-29.5 2h-10.5t-10.5 -1q-27 -2 -52 -9t-44 -16l-43 89q12 6 25.5 11.5t27.5 9.5q4 1 9 2t9 2l27 81h-55l32 100h55q3 8 5.5 16.5t5.5 17.5 q3 8 5.5 16.5t5.5 17.5q22 66 84 114t132 48q35 0 67 -14.5t52 -45.5v0z" />
<glyph unicode="&#xa4;" horiz-adv-x="550" d="M638 515l-70 -71q-18 25 -46.5 37t-63.5 12h-4h-4q-63 -2 -121.5 -36t-99.5 -85h267l-67 -66h-241q-2 -5 -4 -10.5t-4 -10.5h228l-66 -66h-174q0 -52 32.5 -86.5t96.5 -34.5q22 0 45.5 4.5t46.5 13.5q19 8 38.5 19t38.5 25l60 -79q-39 -30 -89.5 -51.5t-102.5 -27.5 q-11 -2 -21.5 -2h-20.5q-55 0 -103.5 21.5t-83.5 71.5q-17 24 -26 50.5t-10 53.5q-1 6 -1 11.5v10.5h-65l21 66h52q2 5 3.5 10.5t2.5 10.5h-56l21 66h64q23 41 54 77t65 61q39 29 89.5 50.5t102.5 28.5q11 2 21.5 2.5t20.5 0.5q50 0 95 -18t79 -59v0z" />
<glyph unicode="&#xa5;" horiz-adv-x="454" d="M597 593q-17 -21 -37 -46t-41 -51q-2 -2 -4 -5t-4 -5q-27 -33 -52 -63t-45 -51h48l-21 -66h-90l-5.5 -5.5t-5.5 -4.5l-5.5 -5.5l-5.5 -5.5h106l-22 -66h-150l-70 -217h-104l69 217h-159l21 66h121q-1 3 -1.5 5.5t-0.5 5.5q-1 2 -1.5 4.5t-1.5 5.5h-110l22 66h81 q-2 27 -2 55t1 56q1 23 3 47t4 47q0 4 0.5 8t0.5 8h100q0 -5 -0.5 -10.5t-1.5 -11.5q-2 -24 -4 -49.5t-3 -51.5q-1 -36 -0.5 -71.5t5.5 -66.5q41 34 79 73.5t73 80.5q23 28 45 55t42 52h126v0z" />
<glyph unicode="&#xa6;" />
<glyph unicode="&#xa7;" />
<glyph unicode="&#xa8;" horiz-adv-x="287" d="M135 574l-57 -92l-65 41l57 91l65 -40v0zM274 574l-56 -92l-66 41l56 91l66 -40v0z" />
<glyph unicode="&#xa9;" />
<glyph unicode="&#xaa;" horiz-adv-x="177" d="M264 430l-22 -66h-65q-10 0 -19 3.5t-16 8.5q-10 -6 -21 -10t-23 -6q-4 0 -8.5 -0.5t-9.5 -0.5q-21 0 -39 9t-29 31q-4 8 -5.5 16.5t-1.5 16.5q0 17 6.5 34t16.5 31q35 47 88 65.5t109 18.5v-67q-22 0 -43 -2.5t-40 -10.5q-18 -6 -33.5 -16.5t-26.5 -25.5 q-1 -1 -2.5 -3.5t-2.5 -4.5t-2 -4.5t-2 -4.5q-1 -3 -1.5 -5.5t-0.5 -4.5q0 -3 2 -5t6 -2q26 0 39 17.5t21 38.5q1 4 2.5 8t2.5 8l63 -20l-15 -47h72v0z" />
<glyph unicode="&#xab;" horiz-adv-x="350" d="M219 190l-50 -50l-159 158l159 159l50 -51l-108 -108l108 -108v0zM349 190l-50 -50l-159 158l159 159l50 -51l-108 -108l108 -108v0z" />
<glyph unicode="&#xac;" />
<glyph unicode="&#xad;" />
<glyph unicode="&#xae;" />
<glyph unicode="&#xaf;" horiz-adv-x="275" />
<glyph unicode="&#xb0;" />
<glyph unicode="&#xb1;" />
<glyph unicode="&#xb2;" />
<glyph unicode="&#xb3;" />
<glyph unicode="&#xb4;" horiz-adv-x="341" d="M304 564l-219 -74l-25 73l219 74l25 -73v0z" />
<glyph unicode="&#xb5;" />
<glyph unicode="&#xb6;" />
<glyph unicode="&#xb7;" horiz-adv-x="275" />
<glyph unicode="&#xb8;" horiz-adv-x="287" d="M215 -143q-12 -25 -35 -40t-49 -15h-23h-32h-10.5h-9.5h-19.5h-14.5l30 73h66q17 1 23.5 6.5t5.5 12.5q0 2 -0.5 3.5t-0.5 3.5q-2 5 -6 10t-9 8q-13 8 -26.5 16t-26.5 16q14 25 29 49t30 49l65 -40l-19 -34q19 -14 29.5 -35t10.5 -44q0 -10 -2 -19.5t-6 -18.5v-1z" />
<glyph unicode="&#xb9;" />
<glyph unicode="&#xba;" horiz-adv-x="149" d="M268 536l-22 -68h-32q-10 -39 -42 -67.5t-73 -28.5h-7.5t-7.5 1q-37 5 -59.5 33t-22.5 64q0 47 35 84.5t84 37.5q29 0 52 -15t35 -41h60v0zM142 469q-17 4 -29.5 17t-14.5 32q-11 -7 -18.5 -18t-9.5 -23v-2.5v-2.5q0 -13 7 -22.5t21 -9.5t25.5 8.5t18.5 20.5v0z" />
<glyph unicode="&#xbb;" horiz-adv-x="347" d="M9 190l108 108l-108 108l50 51l159 -159l-159 -158l-50 50v0zM139 190l108 108l-108 108l50 51l159 -159l-159 -158l-50 50v0z" />
<glyph unicode="&#xbc;" />
<glyph unicode="&#xbd;" />
<glyph unicode="&#xbe;" />
<glyph unicode="&#xbf;" horiz-adv-x="400" d="M11 -123q0 50 27.5 84.5t60.5 64.5q3 2 6 5t6 5l2.5 2.5l2.5 2.5q5 4 9.5 8.5t9.5 8.5q5 5 10 9.5t10 8.5q25 24 44.5 46t24.5 37l13 39h100q-2 -6 -3.5 -12.5t-3.5 -13.5q-3 -13 -6.5 -25.5t-5.5 -18.5q-5 -15 -14.5 -31t-22.5 -32q-15 -18 -33 -36t-36 -34 q-7 -7 -14.5 -13.5t-14.5 -13.5q-23 -21 -41.5 -38.5t-21.5 -24.5q-4 -7 -6 -12.5t-3 -10.5q3 -1 7.5 -1h11.5h66h66q20 0 32 11.5t12 27.5q0 2 -0.5 4.5t-0.5 4.5q-2 7 -6.5 13.5t-11.5 12.5l63 76q26 -22 40.5 -51t14.5 -60q0 -6 -0.5 -11.5t-1.5 -11.5t-2.5 -11.5 t-3.5 -11.5q-16 -43 -53 -67.5t-82 -24.5h-66h-66q-46 0 -82.5 23t-36.5 73v-1zM240 272l33 100h104l-32 -100h-105v0z" />
<glyph unicode="&#xc0;" horiz-adv-x="569" d="M603 490q3 -12 4.5 -26t1.5 -29q0 -38 -10 -88t-30 -113l-76 -231h-104l47 143h-224q-1 -18 0.5 -36t3.5 -37q2 -14 5.5 -29t6.5 -29l10 -34l10 -34q1 -5 2.5 -9.5t2.5 -8.5l-95 -29q-11 38 -21.5 77.5t-17.5 79.5q-2 11 -3.5 22t-2.5 23q-1 11 -1.5 22t-0.5 22h-114 l32 100h97q19 70 52 129.5t73 104.5q31 34 64.5 58.5t68.5 38.5q20 8 40 12.5t39 4.5q56 0 91.5 -24t48.5 -80v0zM508 467q-4 15 -15.5 21.5t-29.5 6.5q-20 0 -43.5 -10t-47.5 -28q-12 -9 -23.5 -20t-23.5 -24q-34 -37 -58.5 -79t-38.5 -88h240l6 18q20 59 28.5 101.5 t8.5 72.5q0 8 -0.5 15.5t-2.5 13.5v0zM553 681l-25 -73l-219 74l25 73l219 -74v0z" />
<glyph unicode="&#xc1;" horiz-adv-x="569" d="M603 490q3 -12 4.5 -26t1.5 -29q0 -38 -10 -88t-30 -113l-76 -231h-104l47 143h-224q-1 -18 0.5 -36t3.5 -37q2 -14 5.5 -29t6.5 -29l10 -34l10 -34q1 -5 2.5 -9.5t2.5 -8.5l-95 -29q-11 38 -21.5 77.5t-17.5 79.5q-2 11 -3.5 22t-2.5 23q-1 11 -1.5 22t-0.5 22h-114 l32 100h97q19 70 52 129.5t73 104.5q31 34 64.5 58.5t68.5 38.5q20 8 40 12.5t39 4.5q56 0 91.5 -24t48.5 -80v0zM508 467q-4 15 -15.5 21.5t-29.5 6.5q-20 0 -43.5 -10t-47.5 -28q-12 -9 -23.5 -20t-23.5 -24q-34 -37 -58.5 -79t-38.5 -88h240l6 18q20 59 28.5 101.5 t8.5 72.5q0 8 -0.5 15.5t-2.5 13.5v0zM694 682l-219 -74l-25 73l219 74l25 -73v0z" />
<glyph unicode="&#xc2;" horiz-adv-x="569" d="M603 490q3 -12 4.5 -26t1.5 -29q0 -38 -10 -88t-30 -113l-76 -231h-104l47 143h-224q-1 -18 0.5 -36t3.5 -37q2 -14 5.5 -29t6.5 -29l10 -34l10 -34q1 -5 2.5 -9.5t2.5 -8.5l-95 -29q-11 38 -21.5 77.5t-17.5 79.5q-2 11 -3.5 22t-2.5 23q-1 11 -1.5 22t-0.5 22h-114 l32 100h97q19 70 52 129.5t73 104.5q31 34 64.5 58.5t68.5 38.5q20 8 40 12.5t39 4.5q56 0 91.5 -24t48.5 -80v0zM508 467q-4 15 -15.5 21.5t-29.5 6.5q-20 0 -43.5 -10t-47.5 -28q-12 -9 -23.5 -20t-23.5 -24q-34 -37 -58.5 -79t-38.5 -88h240l6 18q20 59 28.5 101.5 t8.5 72.5q0 8 -0.5 15.5t-2.5 13.5v0zM624 658l-38 -67l-114 64l-115 -64l-38 67l153 85l152 -85v0z" />
<glyph unicode="&#xc3;" horiz-adv-x="569" d="M603 490q3 -12 4.5 -26t1.5 -29q0 -38 -10 -88t-30 -113l-76 -231h-104l47 143h-224q-1 -18 0.5 -36t3.5 -37q2 -14 5.5 -29t6.5 -29l10 -34l10 -34q1 -5 2.5 -9.5t2.5 -8.5l-95 -29q-11 38 -21.5 77.5t-17.5 79.5q-2 11 -3.5 22t-2.5 23q-1 11 -1.5 22t-0.5 22h-114 l32 100h97q19 70 52 129.5t73 104.5q31 34 64.5 58.5t68.5 38.5q20 8 40 12.5t39 4.5q56 0 91.5 -24t48.5 -80v0zM508 467q-4 15 -15.5 21.5t-29.5 6.5q-20 0 -43.5 -10t-47.5 -28q-12 -9 -23.5 -20t-23.5 -24q-34 -37 -58.5 -79t-38.5 -88h240l6 18q20 59 28.5 101.5 t8.5 72.5q0 8 -0.5 15.5t-2.5 13.5v0zM620 679q-18 -31 -48 -47.5t-64 -16.5q-16 0 -31.5 4t-29.5 12q-6 3 -12 4.5t-12 1.5q-13 0 -25 -6.5t-20 -18.5l-67 38q18 31 48 47.5t64 16.5q16 0 31.5 -4t29.5 -12q6 -3 12 -4.5t12 -1.5q14 0 26 6.5t19 19.5l67 -39v0z" />
<glyph unicode="&#xc4;" horiz-adv-x="569" d="M603 490q3 -12 4.5 -26t1.5 -29q0 -38 -10 -88t-30 -113l-76 -231h-104l47 143h-224q-1 -18 0.5 -36t3.5 -37q2 -14 5.5 -29t6.5 -29l10 -34l10 -34q1 -5 2.5 -9.5t2.5 -8.5l-95 -29q-11 38 -21.5 77.5t-17.5 79.5q-2 11 -3.5 22t-2.5 23q-1 11 -1.5 22t-0.5 22h-114 l32 100h97q19 70 52 129.5t73 104.5q31 34 64.5 58.5t68.5 38.5q20 8 40 12.5t39 4.5q56 0 91.5 -24t48.5 -80v0zM508 467q-4 15 -15.5 21.5t-29.5 6.5q-20 0 -43.5 -10t-47.5 -28q-12 -9 -23.5 -20t-23.5 -24q-34 -37 -58.5 -79t-38.5 -88h240l6 18q20 59 28.5 101.5 t8.5 72.5q0 8 -0.5 15.5t-2.5 13.5v0zM471 700l-57 -92l-65 41l57 91l65 -40v0zM610 700l-56 -92l-66 41l56 91l66 -40v0z" />
<glyph unicode="&#xc5;" horiz-adv-x="569" d="M603 490q3 -12 4.5 -26t1.5 -29q0 -38 -10 -88t-30 -113l-76 -231h-104l47 143h-224q-1 -18 0.5 -36t3.5 -37q2 -14 5.5 -29t6.5 -29l10 -34l10 -34q1 -5 2.5 -9.5t2.5 -8.5l-95 -29q-11 38 -21.5 77.5t-17.5 79.5q-2 11 -3.5 22t-2.5 23q-1 11 -1.5 22t-0.5 22h-114 l32 100h97q19 70 52 129.5t73 104.5q31 34 64.5 58.5t68.5 38.5q20 8 40 12.5t39 4.5q56 0 91.5 -24t48.5 -80v0zM508 467q-4 15 -15.5 21.5t-29.5 6.5q-20 0 -43.5 -10t-47.5 -28q-12 -9 -23.5 -20t-23.5 -24q-34 -37 -58.5 -79t-38.5 -88h240l6 18q20 59 28.5 101.5 t8.5 72.5q0 8 -0.5 15.5t-2.5 13.5v0zM552 678q0 -14 -5.5 -26.5t-15.5 -22.5q-9 -10 -22 -15t-27 -5q-28 0 -49 20.5t-21 48.5q0 15 5.5 27.5t14.5 21.5v1q11 10 23.5 15t26.5 5q29 0 49.5 -20.5t20.5 -49.5v0zM500 678q0 8 -5 13.5t-13 5.5q-4 0 -7.5 -1.5t-5.5 -3.5 q-3 -2 -4 -5.5t-1 -8.5q0 -7 5.5 -12.5t12.5 -5.5q4 0 7.5 1.5t5.5 3.5t3.5 5.5t1.5 7.5v0z" />
<glyph unicode="&#xc6;" horiz-adv-x="886" d="M950 539q3 -9 4.5 -17.5t1.5 -16.5q0 -44 -33.5 -82t-73.5 -69q-21 -16 -41.5 -30t-35.5 -25l-60 78q3 2 24.5 17.5t47.5 35.5q5 4 9.5 7.5t8.5 7.5q22 18 38.5 34.5t15.5 25.5q0 2 -0.5 3t-2.5 2q-8 5 -17.5 7.5t-20.5 2.5q-7 0 -14.5 -1t-15.5 -3q-15 -3 -30 -8 t-28 -10q-6 -3 -11.5 -6t-10.5 -5q-6 -3 -19 -11t-27 -19q-11 -7 -20.5 -16t-16.5 -18q-7 -8 -10.5 -15.5t-3.5 -14.5q0 -1 0.5 -2t0.5 -2t0.5 -2.5t1.5 -3.5l-1 2l73 -130q-17 -13 -34 -25.5t-34 -25.5q-17 -12 -34 -25l-34 -26q-17 -12 -34 -25l-34 -26h409l-32 -100 h-188.5h-189.5q-53 0 -82 26t-29 61q0 14 4.5 28.5t14.5 28.5h-172q0 -11 0.5 -22t1.5 -23q4 -38 13.5 -75.5t19.5 -73.5q2 -6 3.5 -11.5t3.5 -11.5l-95 -29q-1 3 -1.5 5.5t-1.5 4.5q-16 58 -30 117t-13 119h-114l32 99h96q19 71 52 130.5t73 103.5q29 32 60.5 55.5 t63.5 38.5q23 10 45 15t43 5q43 0 74.5 -14.5t50.5 -46.5q31 25 68 44t76 30q20 5 40 8t39 3q26 -1 49.5 -6.5t42.5 -17.5q15 -10 26.5 -23.5t17.5 -30.5v0zM510 467q-4 14 -15 20.5t-29 6.5q-20 0 -43.5 -9.5t-47.5 -27.5q-12 -9 -23.5 -20t-23.5 -24q-30 -33 -54.5 -75.5 t-41.5 -92.5h240q4 12 8 26t9 29t9 31.5t8 33.5t6 34t2 33q0 10 -1 18.5t-3 16.5v0z" />
<glyph unicode="&#xc7;" horiz-adv-x="455" d="M287 -134q-12 -25 -35 -40t-49 -15h-23h-32h-10.5h-9.5h-19.5h-14.5l30 73h66q17 1 23.5 6.5t5.5 12.5q0 2 -0.5 3.5t-0.5 3.5q-2 5 -6 10t-9 8q-13 8 -26.5 16t-26.5 16q14 25 29 49t30 49l65 -40l-19 -34q19 -14 29.5 -35t10.5 -44q0 -10 -2 -19.5t-6 -18.5v-1z M511 593q22 -16 31 -36t9 -43q0 -7 -1 -15t-3 -15q-5 -23 -16 -45.5t-23 -41.5q-15 -23 -35 -47.5t-43 -48.5q-33 -36 -72 -70.5t-79 -65.5l-2.5 -2.5t-3.5 -2.5l-60 78q33 25 64.5 53t59.5 56q27 27 49 53t38 50q2 2 6 8.5t8 15.5l2 4l2 4q5 9 8 17.5t3 12.5v0.5v0.5l-1 1 v0q-6 5 -12.5 6.5t-14.5 1.5q-10 0 -20.5 -2.5t-20.5 -6.5q-11 -5 -21.5 -10t-20.5 -11q-11 -7 -20 -13l-15 -10q-14 -10 -29.5 -22.5t-30.5 -27.5q-43 -40 -81 -91t-55 -105q-5 -15 -7.5 -30t-2.5 -30q0 -26 10.5 -43.5t38.5 -17.5h64h73h73h64l-32 -99h-55.5h-64.5h-66 h-56q-70 0 -109.5 46.5t-39.5 113.5q0 6 0.5 12t0.5 12q9 92 70.5 179.5t134.5 148.5q11 9 21.5 17.5t21.5 16.5q3 2 5.5 4t5.5 3q28 19 61.5 36t68.5 23q9 2 19 3t19 1q22 0 42.5 -6t39.5 -20v0z" />
<glyph unicode="&#xc8;" horiz-adv-x="549" d="M583 540q3 -9 4.5 -17.5t1.5 -16.5q0 -44 -33.5 -82.5t-73.5 -69.5q-21 -16 -41 -30t-35 -25l-61 79q3 2 24.5 17t46.5 35q5 4 9.5 7.5t9.5 7.5q22 18 37.5 34t15.5 25q0 2 -0.5 3.5t-2.5 2.5q-8 5 -17.5 7t-20.5 2q-8 0 -16 -1t-17 -3q-15 -3 -30 -8t-27 -10 q-5 -2 -10 -4.5l-9 -4.5q-6 -3 -19 -11.5t-27 -18.5q-10 -8 -19.5 -16.5t-16.5 -17.5q-6 -8 -10 -16t-4 -15q0 -3 0.5 -5.5t1.5 -4.5l-1 2l74 -130q-17 -13 -34.5 -25.5t-34.5 -25.5q-34 -25 -68 -50.5t-68 -51.5h417l-32 -99h-192.5h-193.5q-53 0 -82 26t-29 61q0 7 1.5 14 t3.5 14q6 17 18 33.5t31 30.5q17 12 33.5 24.5t33.5 25.5t33.5 25.5t33.5 24.5q-1 3 -3 5.5t-3 4.5t-2.5 4t-2.5 4q-13 21 -23.5 43t-11.5 48q0 73 70.5 132.5t155.5 81.5q20 6 40 8.5t39 2.5q26 0 49.5 -5.5t42.5 -17.5q16 -10 27 -23t17 -30v0zM503 703l-25 -73l-219 74 l25 73l219 -74v0z" />
<glyph unicode="&#xc9;" horiz-adv-x="549" d="M583 540q3 -9 4.5 -17.5t1.5 -16.5q0 -44 -33.5 -82.5t-73.5 -69.5q-21 -16 -41 -30t-35 -25l-61 79q3 2 24.5 17t46.5 35q5 4 9.5 7.5t9.5 7.5q22 18 37.5 34t15.5 25q0 2 -0.5 3.5t-2.5 2.5q-8 5 -17.5 7t-20.5 2q-8 0 -16 -1t-17 -3q-15 -3 -30 -8t-27 -10 q-5 -2 -10 -4.5l-9 -4.5q-6 -3 -19 -11.5t-27 -18.5q-10 -8 -19.5 -16.5t-16.5 -17.5q-6 -8 -10 -16t-4 -15q0 -3 0.5 -5.5t1.5 -4.5l-1 2l74 -130q-17 -13 -34.5 -25.5t-34.5 -25.5q-34 -25 -68 -50.5t-68 -51.5h417l-32 -99h-192.5h-193.5q-53 0 -82 26t-29 61q0 7 1.5 14 t3.5 14q6 17 18 33.5t31 30.5q17 12 33.5 24.5t33.5 25.5t33.5 25.5t33.5 24.5q-1 3 -3 5.5t-3 4.5t-2.5 4t-2.5 4q-13 21 -23.5 43t-11.5 48q0 73 70.5 132.5t155.5 81.5q20 6 40 8.5t39 2.5q26 0 49.5 -5.5t42.5 -17.5q16 -10 27 -23t17 -30v0zM654 706l-219 -74l-25 73 l219 74l25 -73v0z" />
<glyph unicode="&#xca;" horiz-adv-x="549" d="M583 540q3 -9 4.5 -17.5t1.5 -16.5q0 -44 -33.5 -82.5t-73.5 -69.5q-21 -16 -41 -30t-35 -25l-61 79q3 2 24.5 17t46.5 35q5 4 9.5 7.5t9.5 7.5q22 18 37.5 34t15.5 25q0 2 -0.5 3.5t-2.5 2.5q-8 5 -17.5 7t-20.5 2q-8 0 -16 -1t-17 -3q-15 -3 -30 -8t-27 -10 q-5 -2 -10 -4.5l-9 -4.5q-6 -3 -19 -11.5t-27 -18.5q-10 -8 -19.5 -16.5t-16.5 -17.5q-6 -8 -10 -16t-4 -15q0 -3 0.5 -5.5t1.5 -4.5l-1 2l74 -130q-17 -13 -34.5 -25.5t-34.5 -25.5q-34 -25 -68 -50.5t-68 -51.5h417l-32 -99h-192.5h-193.5q-53 0 -82 26t-29 61q0 7 1.5 14 t3.5 14q6 17 18 33.5t31 30.5q17 12 33.5 24.5t33.5 25.5t33.5 25.5t33.5 24.5q-1 3 -3 5.5t-3 4.5t-2.5 4t-2.5 4q-13 21 -23.5 43t-11.5 48q0 73 70.5 132.5t155.5 81.5q20 6 40 8.5t39 2.5q26 0 49.5 -5.5t42.5 -17.5q16 -10 27 -23t17 -30v0zM596 678l-38 -67l-114 64 l-115 -64l-38 67l153 85l152 -85v0z" />
<glyph unicode="&#xcb;" horiz-adv-x="549" d="M583 540q3 -9 4.5 -17.5t1.5 -16.5q0 -44 -33.5 -82.5t-73.5 -69.5q-21 -16 -41 -30t-35 -25l-61 79q3 2 24.5 17t46.5 35q5 4 9.5 7.5t9.5 7.5q22 18 37.5 34t15.5 25q0 2 -0.5 3.5t-2.5 2.5q-8 5 -17.5 7t-20.5 2q-8 0 -16 -1t-17 -3q-15 -3 -30 -8t-27 -10 q-5 -2 -10 -4.5l-9 -4.5q-6 -3 -19 -11.5t-27 -18.5q-10 -8 -19.5 -16.5t-16.5 -17.5q-6 -8 -10 -16t-4 -15q0 -3 0.5 -5.5t1.5 -4.5l-1 2l74 -130q-17 -13 -34.5 -25.5t-34.5 -25.5q-34 -25 -68 -50.5t-68 -51.5h417l-32 -99h-192.5h-193.5q-53 0 -82 26t-29 61q0 7 1.5 14 t3.5 14q6 17 18 33.5t31 30.5q17 12 33.5 24.5t33.5 25.5t33.5 25.5t33.5 24.5q-1 3 -3 5.5t-3 4.5t-2.5 4t-2.5 4q-13 21 -23.5 43t-11.5 48q0 73 70.5 132.5t155.5 81.5q20 6 40 8.5t39 2.5q26 0 49.5 -5.5t42.5 -17.5q16 -10 27 -23t17 -30v0zM453 718l-57 -92l-65 41 l57 91l65 -40v0zM592 718l-56 -92l-66 41l56 91l66 -40v0z" />
<glyph unicode="&#xcc;" horiz-adv-x="469" d="M536 470q-26 -81 -52 -161.5t-52 -160.5q-19 -60 -75 -102.5t-119 -42.5h-237l32 99h51.5h51.5h51h51q4 0 8 0.5t8 1.5q27 6 51.5 27.5t32.5 46.5q13 40 26 80.5t26 80.5t26 80.5t26 80.5q1 2 1.5 4.5t0.5 3.5q-4 2 -7.5 2h-8.5q-8 0 -17.5 -2.5t-18.5 -5.5 q-11 -5 -21.5 -10.5t-19.5 -11.5q-9 -5 -16 -10.5t-13 -9.5q-8 -6 -18.5 -13.5t-20.5 -16.5q-24 -20 -44.5 -46t-20.5 -55q0 -7 1.5 -13.5t4.5 -13.5q6 -14 15 -27t19 -26q0 -1 1 -2l2 -2q3 -5 6.5 -9.5t6.5 -9.5l-84 -54q-5 8 -10 15l-10 14q-10 14 -19.5 29t-17.5 32 q-7 17 -10.5 34t-3.5 34q0 39 17.5 76t46.5 65q11 11 24 22.5t27 23.5q32 26 69 49.5t75 34.5q14 5 27.5 7t26.5 2q18 0 35 -4.5t33 -15.5q23 -15 33 -36.5t10 -44.5q0 -10 -2 -19.5t-5 -19.5v0zM511 693l-25 -73l-219 74l25 73l219 -74v0z" />
<glyph unicode="&#xcd;" horiz-adv-x="469" d="M536 470q-26 -81 -52 -161.5t-52 -160.5q-19 -60 -75 -102.5t-119 -42.5h-237l32 99h51.5h51.5h51h51q4 0 8 0.5t8 1.5q27 6 51.5 27.5t32.5 46.5q13 40 26 80.5t26 80.5t26 80.5t26 80.5q1 2 1.5 4.5t0.5 3.5q-4 2 -7.5 2h-8.5q-8 0 -17.5 -2.5t-18.5 -5.5 q-11 -5 -21.5 -10.5t-19.5 -11.5q-9 -5 -16 -10.5t-13 -9.5q-8 -6 -18.5 -13.5t-20.5 -16.5q-24 -20 -44.5 -46t-20.5 -55q0 -7 1.5 -13.5t4.5 -13.5q6 -14 15 -27t19 -26q0 -1 1 -2l2 -2q3 -5 6.5 -9.5t6.5 -9.5l-84 -54q-5 8 -10 15l-10 14q-10 14 -19.5 29t-17.5 32 q-7 17 -10.5 34t-3.5 34q0 39 17.5 76t46.5 65q11 11 24 22.5t27 23.5q32 26 69 49.5t75 34.5q14 5 27.5 7t26.5 2q18 0 35 -4.5t33 -15.5q23 -15 33 -36.5t10 -44.5q0 -10 -2 -19.5t-5 -19.5v0zM656 700l-219 -74l-25 73l219 74l25 -73v0z" />
<glyph unicode="&#xce;" horiz-adv-x="469" d="M536 470q-26 -81 -52 -161.5t-52 -160.5q-19 -60 -75 -102.5t-119 -42.5h-237l32 99h51.5h51.5h51h51q4 0 8 0.5t8 1.5q27 6 51.5 27.5t32.5 46.5q13 40 26 80.5t26 80.5t26 80.5t26 80.5q1 2 1.5 4.5t0.5 3.5q-4 2 -7.5 2h-8.5q-8 0 -17.5 -2.5t-18.5 -5.5 q-11 -5 -21.5 -10.5t-19.5 -11.5q-9 -5 -16 -10.5t-13 -9.5q-8 -6 -18.5 -13.5t-20.5 -16.5q-24 -20 -44.5 -46t-20.5 -55q0 -7 1.5 -13.5t4.5 -13.5q6 -14 15 -27t19 -26q0 -1 1 -2l2 -2q3 -5 6.5 -9.5t6.5 -9.5l-84 -54q-5 8 -10 15l-10 14q-10 14 -19.5 29t-17.5 32 q-7 17 -10.5 34t-3.5 34q0 39 17.5 76t46.5 65q11 11 24 22.5t27 23.5q32 26 69 49.5t75 34.5q14 5 27.5 7t26.5 2q18 0 35 -4.5t33 -15.5q23 -15 33 -36.5t10 -44.5q0 -10 -2 -19.5t-5 -19.5v0zM578 662l-38 -67l-114 64l-115 -64l-38 67l153 85l152 -85v0z" />
<glyph unicode="&#xcf;" horiz-adv-x="469" d="M536 470q-26 -81 -52 -161.5t-52 -160.5q-19 -60 -75 -102.5t-119 -42.5h-237l32 99h51.5h51.5h51h51q4 0 8 0.5t8 1.5q27 6 51.5 27.5t32.5 46.5q13 40 26 80.5t26 80.5t26 80.5t26 80.5q1 2 1.5 4.5t0.5 3.5q-4 2 -7.5 2h-8.5q-8 0 -17.5 -2.5t-18.5 -5.5 q-11 -5 -21.5 -10.5t-19.5 -11.5q-9 -5 -16 -10.5t-13 -9.5q-8 -6 -18.5 -13.5t-20.5 -16.5q-24 -20 -44.5 -46t-20.5 -55q0 -7 1.5 -13.5t4.5 -13.5q6 -14 15 -27t19 -26q0 -1 1 -2l2 -2q3 -5 6.5 -9.5t6.5 -9.5l-84 -54q-5 8 -10 15l-10 14q-10 14 -19.5 29t-17.5 32 q-7 17 -10.5 34t-3.5 34q0 39 17.5 76t46.5 65q11 11 24 22.5t27 23.5q32 26 69 49.5t75 34.5q14 5 27.5 7t26.5 2q18 0 35 -4.5t33 -15.5q23 -15 33 -36.5t10 -44.5q0 -10 -2 -19.5t-5 -19.5v0zM443 710l-57 -92l-65 41l57 91l65 -40v0zM582 710l-56 -92l-66 41l56 91 l66 -40v0z" />
<glyph unicode="&#xd0;" horiz-adv-x="589" d="M622 543q16 -21 23.5 -45t7.5 -50q0 -46 -22.5 -97t-64.5 -103q-26 -33 -60.5 -65.5t-75.5 -64.5q-43 -33 -83.5 -55t-81.5 -36q-17 -6 -34 -10t-33 -6q-40 -7 -80.5 -8t-81.5 -1h-4.5h-4.5l47 144h-68l32 99h68l47 145h104l-47 -145h63l-32 -99h-63l-13 -40 q58 8 108.5 31.5t96.5 59.5q14 11 37.5 31t48.5 45q19 20 38 41.5t33 44.5q14 21 22 41.5t8 39.5q0 13 -4.5 25t-14.5 22q-10 11 -28.5 16t-43.5 5q-15 0 -32.5 -1.5t-37.5 -5.5q-60 -10 -129.5 -33.5t-140.5 -55.5l-26 -12l-26 -12l-43 88q21 10 41.5 20t41.5 19 q69 30 137 52t129 32q20 3 40.5 5.5t41.5 2.5q46 -1 89 -14t71 -50v0z" />
<glyph unicode="&#xd1;" horiz-adv-x="635" d="M747 594q-11 -27 -24.5 -58t-27.5 -63l-6 -14t-6 -13q-16 -35 -31 -67t-28 -58q-35 -67 -75 -132t-85 -122q-3 -4 -6 -7.5t-6 -7.5q-17 -18 -38.5 -34t-46.5 -16q-4 0 -8 0.5t-9 1.5q-29 8 -40 31.5t-12 49.5q-1 5 -0.5 10.5t0.5 10.5q4 47 9.5 100t12.5 109l-24 -44 t-25 -43q-36 -61 -72 -118t-72 -107h-123q18 24 38 52t40 58q10 15 20 30.5t20 30.5q17 27 33 53t30 51q28 49 56 100t55 102q15 29 30 57.5t29 56.5h101q-2 -19 -5 -42l-6 -46q0 -2 -0.5 -5t-0.5 -5q-4 -26 -7 -50.5t-6 -43.5q-3 -21 -5.5 -42.5t-5.5 -43.5 q-5 -43 -10 -85.5t-9 -83.5q37 50 71 105.5t63 113.5q30 59 56 117.5t47 110.5h109v0zM734 673q-18 -31 -48 -47.5t-64 -16.5q-16 0 -31.5 4t-29.5 12q-6 3 -12 4.5t-12 1.5q-13 0 -25 -6.5t-20 -18.5l-67 38q18 31 48 47.5t64 16.5q16 0 31.5 -4t29.5 -12q6 -3 12 -4.5 t12 -1.5q14 0 26 6.5t19 19.5l67 -39v0z" />
<glyph unicode="&#xd2;" horiz-adv-x="275" />
<glyph unicode="&#xd3;" horiz-adv-x="617" d="M727 429l-32 -99h-112q-5 -127 -104 -227t-227 -100q-12 0 -24 1t-24 3q-91 16 -146 86t-55 161q0 131 100.5 235.5t233.5 104.5q80 0 143.5 -44.5t89.5 -120.5h157v0zM484 330h-6.5h-6.5q-29 0 -55 4t-45 32q-8 12 -12 24t-4 23q0 16 5 32t11 33l2 6l2 6 q-10 2 -19.5 3.5t-18.5 1.5q-93 0 -164 -75t-71 -166q0 -65 41 -108.5t107 -43.5q89 0 158.5 70t75.5 158v0zM496 680l-219 -74l-25 73l219 74l25 -73v0z" />
<glyph unicode="&#xd4;" horiz-adv-x="617" d="M727 429l-32 -99h-112q-5 -127 -104 -227t-227 -100q-12 0 -24 1t-24 3q-91 16 -146 86t-55 161q0 131 100.5 235.5t233.5 104.5q80 0 143.5 -44.5t89.5 -120.5h157v0zM484 330h-6.5h-6.5q-29 0 -55 4t-45 32q-8 12 -12 24t-4 23q0 16 5 32t11 33l2 6l2 6 q-10 2 -19.5 3.5t-18.5 1.5q-93 0 -164 -75t-71 -166q0 -65 41 -108.5t107 -43.5q89 0 158.5 70t75.5 158v0zM494 650l-38 -67l-114 64l-115 -64l-38 67l153 85l152 -85v0z" />
<glyph unicode="&#xd5;" horiz-adv-x="617" d="M727 429l-32 -99h-112q-5 -127 -104 -227t-227 -100q-12 0 -24 1t-24 3q-91 16 -146 86t-55 161q0 131 100.5 235.5t233.5 104.5q80 0 143.5 -44.5t89.5 -120.5h157v0zM484 330h-6.5h-6.5q-29 0 -55 4t-45 32q-8 12 -12 24t-4 23q0 16 5 32t11 33l2 6l2 6 q-10 2 -19.5 3.5t-18.5 1.5q-93 0 -164 -75t-71 -166q0 -65 41 -108.5t107 -43.5q89 0 158.5 70t75.5 158v0zM500 673q-18 -31 -48 -47.5t-64 -16.5q-16 0 -31.5 4t-29.5 12q-6 3 -12 4.5t-12 1.5q-13 0 -25 -6.5t-20 -18.5l-67 38q18 31 48 47.5t64 16.5q16 0 31.5 -4 t29.5 -12q6 -3 12 -4.5t12 -1.5q14 0 26 6.5t19 19.5l67 -39v0z" />
<glyph unicode="&#xd6;" horiz-adv-x="617" d="M727 429l-32 -99h-112q-5 -127 -104 -227t-227 -100q-12 0 -24 1t-24 3q-91 16 -146 86t-55 161q0 131 100.5 235.5t233.5 104.5q80 0 143.5 -44.5t89.5 -120.5h157v0zM484 330h-6.5h-6.5q-29 0 -55 4t-45 32q-8 12 -12 24t-4 23q0 16 5 32t11 33l2 6l2 6 q-10 2 -19.5 3.5t-18.5 1.5q-93 0 -164 -75t-71 -166q0 -65 41 -108.5t107 -43.5q89 0 158.5 70t75.5 158v0zM341 688l-57 -92l-65 41l57 91l65 -40v0zM480 688l-56 -92l-66 41l56 91l66 -40v0z" />
<glyph unicode="&#xd7;" />
<glyph unicode="&#xd8;" horiz-adv-x="621" d="M730 429l-32 -99h-112q-5 -127 -104.5 -227t-227.5 -100q-12 0 -24 1t-24 3q-13 2 -25 5.5t-23 7.5l-70 -113h-57l85 135q-52 34 -81.5 90t-29.5 122q0 131 100.5 235.5t233.5 104.5q29 0 56 -6t52 -18l54 85h56l-69 -109q29 -22 50.5 -51.5t33.5 -65.5h158v0zM486 330 h-6.5h-6.5q-28 0 -54 4t-45 30l-162 -257q10 -3 20 -4t20 -1q90 0 159.5 70t74.5 158v0zM377 490q-5 1 -9.5 2t-9.5 2q-5 0 -9.5 0.5t-9.5 0.5q-92 0 -163 -75t-71 -166q0 -41 17 -74.5t46 -53.5l191 304q2 13 6 25.5t8 24.5q1 3 2 5.5t2 4.5v0z" />
<glyph unicode="&#xd9;" horiz-adv-x="501" d="M583 594q-10 -18 -19.5 -36t-19.5 -37q-3 -5 -6 -10.5t-5 -10.5q-8 -13 -15 -27t-12 -28q-15 -43 -29 -86t-28 -85q-4 -15 -8.5 -29t-9.5 -29q-9 -28 -18 -56.5t-18 -57.5h98l-29 -99h-83q-31 0 -55 20t-31 49q-33 -32 -70.5 -50.5t-81.5 -18.5q-77 0 -107.5 40.5 t-30.5 104.5q0 60 18.5 118.5t40.5 115.5q7 18 14 35.5t13 35.5q7 20 10 30.5t3 14.5q0 2 -0.5 3.5t-2.5 1.5q-10 4 -21 6l-22 4q-2 1 -3.5 1t-3.5 1l-14 2t-14 3l20 96q7 -1 14 -2.5t14 -2.5q2 0 4.5 -0.5t4.5 -0.5q13 -2 27 -5t27 -8q40 -14 55 -38t15 -53q0 -15 -3 -30.5 t-8 -31.5q-4 -11 -8 -22.5t-8 -23.5q-3 -6 -5.5 -12t-4.5 -12q-4 -11 -9 -23.5t-10 -25.5q-5 -15 -10.5 -30t-10.5 -31q-10 -31 -16.5 -61t-6.5 -55q0 -20 8.5 -33t30.5 -13q70 0 126.5 94.5t108.5 207.5q2 5 4.5 9.5t4.5 9.5q2 4 3.5 7.5t3.5 6.5q5 11 10 21.5t9 21.5 q8 19 14 38t11 38q1 1 1.5 2.5t0.5 2.5q2 8 4.5 16.5t5.5 16.5h133v0zM409 673l-25 -73l-219 74l25 73l219 -74v0z" />
<glyph unicode="&#xda;" horiz-adv-x="501" d="M583 594q-10 -18 -19.5 -36t-19.5 -37q-3 -5 -6 -10.5t-5 -10.5q-8 -13 -15 -27t-12 -28q-15 -43 -29 -86t-28 -85q-4 -15 -8.5 -29t-9.5 -29q-9 -28 -18 -56.5t-18 -57.5h98l-29 -99h-83q-31 0 -55 20t-31 49q-33 -32 -70.5 -50.5t-81.5 -18.5q-77 0 -107.5 40.5 t-30.5 104.5q0 60 18.5 118.5t40.5 115.5q7 18 14 35.5t13 35.5q7 20 10 30.5t3 14.5q0 2 -0.5 3.5t-2.5 1.5q-10 4 -21 6l-22 4q-2 1 -3.5 1t-3.5 1l-14 2t-14 3l20 96q7 -1 14 -2.5t14 -2.5q2 0 4.5 -0.5t4.5 -0.5q13 -2 27 -5t27 -8q40 -14 55 -38t15 -53q0 -15 -3 -30.5 t-8 -31.5q-4 -11 -8 -22.5t-8 -23.5q-3 -6 -5.5 -12t-4.5 -12q-4 -11 -9 -23.5t-10 -25.5q-5 -15 -10.5 -30t-10.5 -31q-10 -31 -16.5 -61t-6.5 -55q0 -20 8.5 -33t30.5 -13q70 0 126.5 94.5t108.5 207.5q2 5 4.5 9.5t4.5 9.5q2 4 3.5 7.5t3.5 6.5q5 11 10 21.5t9 21.5 q8 19 14 38t11 38q1 1 1.5 2.5t0.5 2.5q2 8 4.5 16.5t5.5 16.5h133v0zM510 684l-219 -74l-25 73l219 74l25 -73v0z" />
<glyph unicode="&#xdb;" horiz-adv-x="501" d="M583 594q-10 -18 -19.5 -36t-19.5 -37q-3 -5 -6 -10.5t-5 -10.5q-8 -13 -15 -27t-12 -28q-15 -43 -29 -86t-28 -85q-4 -15 -8.5 -29t-9.5 -29q-9 -28 -18 -56.5t-18 -57.5h98l-29 -99h-83q-31 0 -55 20t-31 49q-33 -32 -70.5 -50.5t-81.5 -18.5q-77 0 -107.5 40.5 t-30.5 104.5q0 60 18.5 118.5t40.5 115.5q7 18 14 35.5t13 35.5q7 20 10 30.5t3 14.5q0 2 -0.5 3.5t-2.5 1.5q-10 4 -21 6l-22 4q-2 1 -3.5 1t-3.5 1l-14 2t-14 3l20 96q7 -1 14 -2.5t14 -2.5q2 0 4.5 -0.5t4.5 -0.5q13 -2 27 -5t27 -8q40 -14 55 -38t15 -53q0 -15 -3 -30.5 t-8 -31.5q-4 -11 -8 -22.5t-8 -23.5q-3 -6 -5.5 -12t-4.5 -12q-4 -11 -9 -23.5t-10 -25.5q-5 -15 -10.5 -30t-10.5 -31q-10 -31 -16.5 -61t-6.5 -55q0 -20 8.5 -33t30.5 -13q70 0 126.5 94.5t108.5 207.5q2 5 4.5 9.5t4.5 9.5q2 4 3.5 7.5t3.5 6.5q5 11 10 21.5t9 21.5 q8 19 14 38t11 38q1 1 1.5 2.5t0.5 2.5q2 8 4.5 16.5t5.5 16.5h133v0zM478 668l-38 -67l-114 64l-115 -64l-38 67l153 85l152 -85v0z" />
<glyph unicode="&#xdc;" horiz-adv-x="501" d="M583 594q-10 -18 -19.5 -36t-19.5 -37q-3 -5 -6 -10.5t-5 -10.5q-8 -13 -15 -27t-12 -28q-15 -43 -29 -86t-28 -85q-4 -15 -8.5 -29t-9.5 -29q-9 -28 -18 -56.5t-18 -57.5h98l-29 -99h-83q-31 0 -55 20t-31 49q-33 -32 -70.5 -50.5t-81.5 -18.5q-77 0 -107.5 40.5 t-30.5 104.5q0 60 18.5 118.5t40.5 115.5q7 18 14 35.5t13 35.5q7 20 10 30.5t3 14.5q0 2 -0.5 3.5t-2.5 1.5q-10 4 -21 6l-22 4q-2 1 -3.5 1t-3.5 1l-14 2t-14 3l20 96q7 -1 14 -2.5t14 -2.5q2 0 4.5 -0.5t4.5 -0.5q13 -2 27 -5t27 -8q40 -14 55 -38t15 -53q0 -15 -3 -30.5 t-8 -31.5q-4 -11 -8 -22.5t-8 -23.5q-3 -6 -5.5 -12t-4.5 -12q-4 -11 -9 -23.5t-10 -25.5q-5 -15 -10.5 -30t-10.5 -31q-10 -31 -16.5 -61t-6.5 -55q0 -20 8.5 -33t30.5 -13q70 0 126.5 94.5t108.5 207.5q2 5 4.5 9.5t4.5 9.5q2 4 3.5 7.5t3.5 6.5q5 11 10 21.5t9 21.5 q8 19 14 38t11 38q1 1 1.5 2.5t0.5 2.5q2 8 4.5 16.5t5.5 16.5h133v0zM319 688l-57 -92l-65 41l57 91l65 -40v0zM458 688l-56 -92l-66 41l56 91l66 -40v0z" />
<glyph unicode="&#xdd;" horiz-adv-x="275" />
<glyph unicode="&#xde;" horiz-adv-x="530" d="M576 354q-2 -19 -6 -39t-10 -40q-24 -84 -79.5 -154t-148.5 -70h-27.5h-32.5h-58.5t-22.5 0l50 100h27h19h19h26q45 0 82 48t54 106q6 20 9.5 40t3.5 38q0 11 -1 20.5t-4 17.5q-1 2 -2 2.5t-3 0.5q-4 0 -11 -3l-14 -6l-4 -2t-3 -2q-9 -5 -15.5 -8.5t-7.5 -4.5 q-67 -55 -127.5 -118t-98.5 -141l-96 -189h-116l217 420q13 25 18.5 43.5t5.5 31.5q0 36 -35 42.5t-86 7.5h-2h-2l32 98h60q77 0 106 -45t25 -104q35 31 74 54.5t81 23.5h4.5t5.5 -1q2 0 4.5 -0.5t4.5 -0.5q51 -9 69.5 -47t18.5 -82v-9t-1 -9q0 -5 -0.5 -9.5t-1.5 -9.5v0z " />
<glyph unicode="&#xdf;" horiz-adv-x="520" d="M532 102l-32 -100h-323l33 100h67q27 0 45.5 14t18.5 43q0 32 -18.5 56t-41.5 44q-5 6 -11 11t-11 10l-11.5 11.5t-11.5 10.5l-11.5 11.5t-11.5 10.5q12 8 24 15.5t24 15.5t24.5 15.5t24.5 15.5q3 2 6.5 4t6.5 5q17 13 32 32t15 41q0 14 -8 20t-21 6q-3 0 -6.5 -0.5 t-6.5 -0.5q-28 -5 -52.5 -26.5t-32.5 -46.5l-156 -479h-104q23 71 46.5 142.5t46.5 142.5h-64l32 99h64q5 16 10 31.5t10 31.5q5 15 10 30.5t10 31.5q18 57 72.5 99.5t115.5 44.5h2h2q11 0 22.5 -1.5t22.5 -5.5q39 -13 61.5 -45.5t22.5 -73.5q0 -49 -28 -90.5t-68 -68.5 q28 -29 46 -66t21 -76v-4.5v-5.5q0 -14 -2.5 -27.5t-7.5 -27.5h102v0z" />
<glyph unicode="&#xe0;" horiz-adv-x="367" d="M389 101l-32 -99h-97q-16 0 -29 5t-24 13q-15 -9 -32.5 -15t-34.5 -8q-6 -1 -12 -1.5t-12 -0.5q-31 0 -58.5 14t-43.5 45q-6 13 -9 25.5t-3 25.5q0 26 10 50.5t26 45.5q50 67 124.5 94.5t154.5 29.5h6.5h7.5v-99q-32 0 -63.5 -4t-60.5 -15q-26 -9 -49 -25t-40 -39 q-1 -2 -3 -5t-4 -7q-2 -3 -3.5 -6l-3.5 -7q-1 -3 -2 -7t-1 -7q0 -4 3 -7.5t10 -3.5q39 0 58 26t30 57q2 7 4 13l4 12l94 -31l-22 -69h107v0zM323 427l-25 -73l-219 74l25 73l219 -74v0z" />
<glyph unicode="&#xe1;" horiz-adv-x="367" d="M389 101l-32 -99h-97q-16 0 -29 5t-24 13q-15 -9 -32.5 -15t-34.5 -8q-6 -1 -12 -1.5t-12 -0.5q-31 0 -58.5 14t-43.5 45q-6 13 -9 25.5t-3 25.5q0 26 10 50.5t26 45.5q50 67 124.5 94.5t154.5 29.5h6.5h7.5v-99q-32 0 -63.5 -4t-60.5 -15q-26 -9 -49 -25t-40 -39 q-1 -2 -3 -5t-4 -7q-2 -3 -3.5 -6l-3.5 -7q-1 -3 -2 -7t-1 -7q0 -4 3 -7.5t10 -3.5q39 0 58 26t30 57q2 7 4 13l4 12l94 -31l-22 -69h107v0zM418 416l-219 -74l-25 73l219 74l25 -73v0z" />
<glyph unicode="&#xe2;" horiz-adv-x="367" d="M389 101l-32 -99h-97q-16 0 -29 5t-24 13q-15 -9 -32.5 -15t-34.5 -8q-6 -1 -12 -1.5t-12 -0.5q-31 0 -58.5 14t-43.5 45q-6 13 -9 25.5t-3 25.5q0 26 10 50.5t26 45.5q50 67 124.5 94.5t154.5 29.5h6.5h7.5v-99q-32 0 -63.5 -4t-60.5 -15q-26 -9 -49 -25t-40 -39 q-1 -2 -3 -5t-4 -7q-2 -3 -3.5 -6l-3.5 -7q-1 -3 -2 -7t-1 -7q0 -4 3 -7.5t10 -3.5q39 0 58 26t30 57q2 7 4 13l4 12l94 -31l-22 -69h107v0zM402 400l-38 -67l-114 64l-115 -64l-38 67l153 85l152 -85v0z" />
<glyph unicode="&#xe3;" horiz-adv-x="367" d="M389 101l-32 -99h-97q-16 0 -29 5t-24 13q-15 -9 -32.5 -15t-34.5 -8q-6 -1 -12 -1.5t-12 -0.5q-31 0 -58.5 14t-43.5 45q-6 13 -9 25.5t-3 25.5q0 26 10 50.5t26 45.5q50 67 124.5 94.5t154.5 29.5h6.5h7.5v-99q-32 0 -63.5 -4t-60.5 -15q-26 -9 -49 -25t-40 -39 q-1 -2 -3 -5t-4 -7q-2 -3 -3.5 -6l-3.5 -7q-1 -3 -2 -7t-1 -7q0 -4 3 -7.5t10 -3.5q39 0 58 26t30 57q2 7 4 13l4 12l94 -31l-22 -69h107v0zM402 409q-18 -31 -48 -47.5t-64 -16.5q-16 0 -31.5 4t-29.5 12q-6 3 -12 4.5t-12 1.5q-13 0 -25 -6.5t-20 -18.5l-67 38 q18 31 48 47.5t64 16.5q16 0 31.5 -4t29.5 -12q6 -3 12 -4.5t12 -1.5q14 0 26 6.5t19 19.5l67 -39v0z" />
<glyph unicode="&#xe4;" horiz-adv-x="367" d="M389 101l-32 -99h-97q-16 0 -29 5t-24 13q-15 -9 -32.5 -15t-34.5 -8q-6 -1 -12 -1.5t-12 -0.5q-31 0 -58.5 14t-43.5 45q-6 13 -9 25.5t-3 25.5q0 26 10 50.5t26 45.5q50 67 124.5 94.5t154.5 29.5h6.5h7.5v-99q-32 0 -63.5 -4t-60.5 -15q-26 -9 -49 -25t-40 -39 q-1 -2 -3 -5t-4 -7q-2 -3 -3.5 -6l-3.5 -7q-1 -3 -2 -7t-1 -7q0 -4 3 -7.5t10 -3.5q39 0 58 26t30 57q2 7 4 13l4 12l94 -31l-22 -69h107v0zM249 432l-57 -92l-65 41l57 91l65 -40v0zM388 432l-56 -92l-66 41l56 91l66 -40v0z" />
<glyph unicode="&#xe5;" horiz-adv-x="367" d="M389 101l-32 -99h-97q-16 0 -29 5t-24 13q-15 -9 -32.5 -15t-34.5 -8q-6 -1 -12 -1.5t-12 -0.5q-31 0 -58.5 14t-43.5 45q-6 13 -9 25.5t-3 25.5q0 26 10 50.5t26 45.5q50 67 124.5 94.5t154.5 29.5h6.5h7.5v-99q-32 0 -63.5 -4t-60.5 -15q-26 -9 -49 -25t-40 -39 q-1 -2 -3 -5t-4 -7q-2 -3 -3.5 -6l-3.5 -7q-1 -3 -2 -7t-1 -7q0 -4 3 -7.5t10 -3.5q39 0 58 26t30 57q2 7 4 13l4 12l94 -31l-22 -69h107v0zM336 411q0 -14 -5.5 -26.5t-15.5 -22.5q-9 -10 -22 -15t-27 -5q-28 0 -49 20.5t-21 48.5q0 15 5.5 27.5t14.5 21.5v1q11 10 23.5 15 t26.5 5q29 0 49.5 -20.5t20.5 -49.5v0zM284 411q0 8 -5 13.5t-13 5.5q-4 0 -7.5 -1.5t-5.5 -3.5q-3 -2 -4 -5.5t-1 -8.5q0 -7 5.5 -12.5t12.5 -5.5q4 0 7.5 1.5t5.5 3.5t3.5 5.5t1.5 7.5v0z" />
<glyph unicode="&#xe6;" horiz-adv-x="611" d="M616 101l-33 -99h-319q-16 0 -29 5t-24 13q-15 -9 -32.5 -15t-34.5 -8q-6 -1 -12 -1.5t-12 -0.5q-31 0 -58.5 14t-43.5 45q-6 13 -8.5 25.5t-2.5 25.5q0 26 9.5 50.5t25.5 45.5q50 69 127 96t159 28h3.5h3.5v-71q20 26 42.5 44t46.5 28q11 5 23 8.5t23 5.5q6 1 12 1.5 t13 0.5q41 0 72.5 -23.5t31.5 -64.5q0 -8 -1.5 -17t-5.5 -19q-8 -24 -32.5 -54t-70.5 -63h127v0zM316 225q-27 -1 -53.5 -5.5t-51.5 -12.5q-26 -9 -49 -25t-40 -39q-1 -2 -3 -5l-4 -6t-3.5 -6.5t-2.5 -7.5q-2 -3 -2.5 -7t-0.5 -7q0 -4 3 -7.5t10 -3.5q39 0 57.5 26t29.5 57 q2 7 4 13l4 12l79 -26q1 2 2 4.5t2 4.5q0 2 1 4.5t2 4.5q4 8 8 16.5t8 15.5v0zM496 244q-36 -1 -63 -27.5t-40 -58.5q0 -1 -0.5 -1.5t-0.5 -1.5q46 28 71 50.5t33 38.5v0z" />
<glyph unicode="&#xe7;" horiz-adv-x="342" d="M248 -146q-12 -25 -35 -40t-49 -15h-23h-32h-10.5h-9.5h-19.5h-14.5l30 73h66q17 1 23.5 6.5t5.5 12.5q0 2 -0.5 3.5t-0.5 3.5q-2 5 -6 10t-9 8q-13 8 -26.5 16t-26.5 16q14 25 29 49t30 49l65 -40l-19 -34q19 -14 29.5 -35t10.5 -44q0 -10 -2 -19.5t-6 -18.5v-1z M360 101l-33 -99h-222q-28 0 -52 12.5t-37 37.5q-6 12 -8.5 24.5t-2.5 25.5q0 25 7.5 49t17.5 45q0 1 0.5 1.5t0.5 1.5q27 52 81.5 95t115.5 43h3.5h3.5q1 -1 3 -1h4q38 -4 62 -28t24 -61v-3v-3q0 -2 -0.5 -3.5t-0.5 -3.5l-5 -44h-100l5 48q-29 -2 -55 -23t-42 -46 q-3 -5 -5.5 -9t-4.5 -8q0 -1 -2.5 -6.5t-5.5 -13.5q-1 -1 -1.5 -2.5t-1.5 -2.5q-2 -7 -4 -13.5t-2 -9.5q0 -1 0.5 -2t1.5 -1h255v0z" />
<glyph unicode="&#xe8;" horiz-adv-x="342" d="M352 101l-33 -99h-218q-27 0 -50.5 11.5t-36.5 35.5q-6 11 -9 24t-3 26q0 3 0.5 6.5t0.5 7.5q2 20 8.5 40.5t13.5 37.5q21 48 51.5 79.5t63.5 47.5q14 8 27.5 12.5t26.5 6.5q6 1 12 1.5t13 0.5q41 0 73 -23t32 -64q0 -8 -1.5 -16.5t-5.5 -18.5q-8 -25 -33 -54.5 t-70 -61.5h138v0zM221 242q-36 -2 -63 -28t-40 -57q0 -1 -0.5 -1.5t-0.5 -1.5q46 27 70.5 49.5t33.5 38.5v0zM301 431l-25 -73l-219 74l25 73l219 -74v0z" />
<glyph unicode="&#xe9;" horiz-adv-x="342" d="M352 101l-33 -99h-218q-27 0 -50.5 11.5t-36.5 35.5q-6 11 -9 24t-3 26q0 3 0.5 6.5t0.5 7.5q2 20 8.5 40.5t13.5 37.5q21 48 51.5 79.5t63.5 47.5q14 8 27.5 12.5t26.5 6.5q6 1 12 1.5t13 0.5q41 0 73 -23t32 -64q0 -8 -1.5 -16.5t-5.5 -18.5q-8 -25 -33 -54.5 t-70 -61.5h138v0zM221 242q-36 -2 -63 -28t-40 -57q0 -1 -0.5 -1.5t-0.5 -1.5q46 27 70.5 49.5t33.5 38.5v0zM396 434l-219 -74l-25 73l219 74l25 -73v0z" />
<glyph unicode="&#xea;" horiz-adv-x="342" d="M352 101l-33 -99h-218q-27 0 -50.5 11.5t-36.5 35.5q-6 11 -9 24t-3 26q0 3 0.5 6.5t0.5 7.5q2 20 8.5 40.5t13.5 37.5q21 48 51.5 79.5t63.5 47.5q14 8 27.5 12.5t26.5 6.5q6 1 12 1.5t13 0.5q41 0 73 -23t32 -64q0 -8 -1.5 -16.5t-5.5 -18.5q-8 -25 -33 -54.5 t-70 -61.5h138v0zM221 242q-36 -2 -63 -28t-40 -57q0 -1 -0.5 -1.5t-0.5 -1.5q46 27 70.5 49.5t33.5 38.5v0zM368 394l-38 -67l-114 64l-115 -64l-38 67l153 85l152 -85v0z" />
<glyph unicode="&#xeb;" horiz-adv-x="342" d="M352 101l-33 -99h-218q-27 0 -50.5 11.5t-36.5 35.5q-6 11 -9 24t-3 26q0 3 0.5 6.5t0.5 7.5q2 20 8.5 40.5t13.5 37.5q21 48 51.5 79.5t63.5 47.5q14 8 27.5 12.5t26.5 6.5q6 1 12 1.5t13 0.5q41 0 73 -23t32 -64q0 -8 -1.5 -16.5t-5.5 -18.5q-8 -25 -33 -54.5 t-70 -61.5h138v0zM221 242q-36 -2 -63 -28t-40 -57q0 -1 -0.5 -1.5t-0.5 -1.5q46 27 70.5 49.5t33.5 38.5v0zM205 436l-57 -92l-65 41l57 91l65 -40v0zM344 436l-56 -92l-66 41l56 91l66 -40v0z" />
<glyph unicode="&#xec;" horiz-adv-x="198" d="M208 101l-32 -99h-90q-37 0 -60 24.5t-23 57.5q0 4 0.5 7.5t0.5 7.5q1 3 2 6.5t2 7.5l68 213h105l-72 -225h99v0zM177 421l-25 -73l-219 74l25 73l219 -74v0z" />
<glyph unicode="&#xed;" horiz-adv-x="198" d="M208 101l-32 -99h-90q-37 0 -60 24.5t-23 57.5q0 4 0.5 7.5t0.5 7.5q1 3 2 6.5t2 7.5l68 213h105l-72 -225h99v0zM336 418l-219 -74l-25 73l219 74l25 -73v0z" />
<glyph unicode="&#xee;" horiz-adv-x="198" d="M208 101l-32 -99h-90q-37 0 -60 24.5t-23 57.5q0 4 0.5 7.5t0.5 7.5q1 3 2 6.5t2 7.5l68 213h105l-72 -225h99v0zM284 388l-38 -67l-114 64l-115 -64l-38 67l153 85l152 -85v0z" />
<glyph unicode="&#xef;" horiz-adv-x="198" d="M208 101l-32 -99h-90q-37 0 -60 24.5t-23 57.5q0 4 0.5 7.5t0.5 7.5q1 3 2 6.5t2 7.5l68 213h105l-72 -225h99v0zM133 438l-57 -92l-65 41l57 91l65 -40v0zM272 438l-56 -92l-66 41l56 91l66 -40v0z" />
<glyph unicode="&#xf0;" horiz-adv-x="465" d="M502 498l-62 -33q5 -16 6.5 -33.5t1.5 -35.5q0 -8 -0.5 -16.5t-1.5 -16.5q-1 -9 -2 -17.5t-2 -16.5q-3 -24 -10 -50.5t-15 -52.5q-5 -13 -9.5 -26.5t-8.5 -26.5q-7 -18 -13 -36t-12 -35h100l-32 -100h-90q-25 0 -44 12.5t-29 31.5q-31 -20 -67 -32t-77 -12 q-61 -1 -96.5 31t-35.5 81q0 17 4.5 34.5t13.5 36.5q31 60 92.5 93t128.5 43q15 2 30 3t29 1q11 0 20.5 -0.5t19.5 -1.5q4 18 6 36.5t2 37.5v10.5t-1 10.5l-90 -46l-35 68l95 49q-6 4 -13.5 5.5t-15.5 1.5q-4 0 -7.5 -0.5t-6.5 -0.5q-16 -3 -30.5 -9.5t-23.5 -14.5l-62 78 q22 17 48 28.5t54 15.5q7 1 13.5 1.5t13.5 0.5q35 0 67 -14t54 -45l58 29l35 -67v0zM307 226q-16 0 -34 -1.5t-36 -4.5q-39 -8 -74.5 -27t-52.5 -53q-4 -7 -5.5 -12.5t-1.5 -10.5q0 -8 8 -12t24 -4q59 1 102.5 38.5t69.5 86.5v0z" />
<glyph unicode="&#xf1;" horiz-adv-x="404" d="M406 101l-33 -99h-69q-37 0 -60 24t-23 58q0 7 1.5 14.5t3.5 14.5t4 13.5t4 12.5l8 26l8 26q1 2 1.5 4t0.5 4q2 5 3.5 11t2.5 12q-8 -3 -19 -10t-22 -17q-28 -24 -52.5 -57t-38.5 -68l-22 -68h-104l105 324h104l-7 -21q11 6 22.5 10.5t23.5 6.5q6 2 11.5 2.5t11.5 0.5 q8 0 16.5 -1.5t15.5 -4.5q29 -10 42 -35t13 -54q0 -15 -3.5 -32.5t-10.5 -37.5q-3 -7 -5 -14.5t-4 -14.5q-1 -3 -2 -5.5t-1 -4.5q-2 -5 -3 -10t-3 -10h80v0zM412 411q-18 -31 -48 -47.5t-64 -16.5q-16 0 -31.5 4t-29.5 12q-6 3 -12 4.5t-12 1.5q-13 0 -25 -6.5t-20 -18.5 l-67 38q18 31 48 47.5t64 16.5q16 0 31.5 -4t29.5 -12q6 -3 12 -4.5t12 -1.5q14 0 26 6.5t19 19.5l67 -39v0z" />
<glyph unicode="&#xf2;" horiz-adv-x="351" d="M400 248l-33 -102h-48q-13 -58 -61.5 -101t-110.5 -43h-5.5t-5.5 1q-3 0 -5.5 0.5t-5.5 0.5q-55 8 -88.5 49.5t-33.5 96.5q0 71 52 126.5t125 55.5q44 0 78.5 -23t51.5 -61h90v0zM212 148q-26 5 -44.5 25t-21.5 48q-16 -10 -27 -26.5t-14 -34.5v-2.5v-2.5q-1 -1 -1 -2.5 v-2.5q1 -18 11.5 -32t31.5 -14q20 0 37.5 13t27.5 31v0zM299 417l-25 -73l-219 74l25 73l219 -74v0z" />
<glyph unicode="&#xf3;" horiz-adv-x="351" d="M400 248l-33 -102h-48q-13 -58 -61.5 -101t-110.5 -43h-5.5t-5.5 1q-3 0 -5.5 0.5t-5.5 0.5q-55 8 -88.5 49.5t-33.5 96.5q0 71 52 126.5t125 55.5q44 0 78.5 -23t51.5 -61h90v0zM212 148q-26 5 -44.5 25t-21.5 48q-16 -10 -27 -26.5t-14 -34.5v-2.5v-2.5q-1 -1 -1 -2.5 v-2.5q1 -18 11.5 -32t31.5 -14q20 0 37.5 13t27.5 31v0zM404 430l-219 -74l-25 73l219 74l25 -73v0z" />
<glyph unicode="&#xf4;" horiz-adv-x="351" d="M400 248l-33 -102h-48q-13 -58 -61.5 -101t-110.5 -43h-5.5t-5.5 1q-3 0 -5.5 0.5t-5.5 0.5q-55 8 -88.5 49.5t-33.5 96.5q0 71 52 126.5t125 55.5q44 0 78.5 -23t51.5 -61h90v0zM212 148q-26 5 -44.5 25t-21.5 48q-16 -10 -27 -26.5t-14 -34.5v-2.5v-2.5q-1 -1 -1 -2.5 v-2.5q1 -18 11.5 -32t31.5 -14q20 0 37.5 13t27.5 31v0zM328 390l-38 -67l-114 64l-115 -64l-38 67l153 85l152 -85v0z" />
<glyph unicode="&#xf5;" horiz-adv-x="351" d="M400 248l-33 -102h-48q-13 -58 -61.5 -101t-110.5 -43h-5.5t-5.5 1q-3 0 -5.5 0.5t-5.5 0.5q-55 8 -88.5 49.5t-33.5 96.5q0 71 52 126.5t125 55.5q44 0 78.5 -23t51.5 -61h90v0zM212 148q-26 5 -44.5 25t-21.5 48q-16 -10 -27 -26.5t-14 -34.5v-2.5v-2.5q-1 -1 -1 -2.5 v-2.5q1 -18 11.5 -32t31.5 -14q20 0 37.5 13t27.5 31v0zM352 413q-18 -31 -48 -47.5t-64 -16.5q-16 0 -31.5 4t-29.5 12q-6 3 -12 4.5t-12 1.5q-13 0 -25 -6.5t-20 -18.5l-67 38q18 31 48 47.5t64 16.5q16 0 31.5 -4t29.5 -12q6 -3 12 -4.5t12 -1.5q14 0 26 6.5t19 19.5 l67 -39v0z" />
<glyph unicode="&#xf6;" horiz-adv-x="351" d="M400 248l-33 -102h-48q-13 -58 -61.5 -101t-110.5 -43h-5.5t-5.5 1q-3 0 -5.5 0.5t-5.5 0.5q-55 8 -88.5 49.5t-33.5 96.5q0 71 52 126.5t125 55.5q44 0 78.5 -23t51.5 -61h90v0zM212 148q-26 5 -44.5 25t-21.5 48q-16 -10 -27 -26.5t-14 -34.5v-2.5v-2.5q-1 -1 -1 -2.5 v-2.5q1 -18 11.5 -32t31.5 -14q20 0 37.5 13t27.5 31v0zM173 430l-57 -92l-65 41l57 91l65 -40v0zM312 430l-56 -92l-66 41l56 91l66 -40v0z" />
<glyph unicode="&#xf7;" />
<glyph unicode="&#xf8;" horiz-adv-x="344" d="M399 248l-32 -102h-49q-13 -58 -61.5 -101t-110.5 -43q-5 0 -10.5 0.5t-10.5 1.5q-2 0 -4 0.5t-4 0.5q-4 1 -8 2.5t-8 2.5l-45 -71h-56l58 93q-26 20 -41 51t-15 67q0 71 52.5 126.5t124.5 55.5q17 0 32 -3t28 -9l44 70h56l-61 -97q10 -10 18 -21t13 -24h90v0zM212 148 q-5 2 -10 3.5t-10 3.5l-32 -50q17 5 30.5 16.5t21.5 26.5v0zM156 188q-4 8 -6.5 16t-3.5 17q-16 -10 -27.5 -26.5t-13.5 -34.5q-1 -3 -1 -6v-6q0 -8 2.5 -15.5t6.5 -12.5l43 68v0z" />
<glyph unicode="&#xf9;" horiz-adv-x="338" d="M348 101l-33 -99h-14.5h-15.5q-22 0 -42.5 8t-36.5 22q-20 -14 -43.5 -22t-47.5 -8q-5 0 -9.5 0.5t-9.5 1.5q-5 0 -9.5 1.5t-9.5 2.5q-36 12 -54.5 41t-17.5 63q0 5 0.5 10t1.5 10q0 5 1.5 10t2.5 10l56 174h104l-66 -205q-1 -3 -1.5 -6t-0.5 -5q0 -4 2.5 -6.5t9.5 -2.5 q3 0 6 0.5t6 1.5q17 4 32 17.5t20 28.5q0 1 0.5 1.5t0.5 1.5l57 174h103l-65 -205q-1 -3 -1.5 -6t-0.5 -5q0 -4 2.5 -6.5t9.5 -2.5h63v0zM313 419l-25 -73l-219 74l25 73l219 -74v0z" />
<glyph unicode="&#xfa;" horiz-adv-x="338" d="M348 101l-33 -99h-14.5h-15.5q-22 0 -42.5 8t-36.5 22q-20 -14 -43.5 -22t-47.5 -8q-5 0 -9.5 0.5t-9.5 1.5q-5 0 -9.5 1.5t-9.5 2.5q-36 12 -54.5 41t-17.5 63q0 5 0.5 10t1.5 10q0 5 1.5 10t2.5 10l56 174h104l-66 -205q-1 -3 -1.5 -6t-0.5 -5q0 -4 2.5 -6.5t9.5 -2.5 q3 0 6 0.5t6 1.5q17 4 32 17.5t20 28.5q0 1 0.5 1.5t0.5 1.5l57 174h103l-65 -205q-1 -3 -1.5 -6t-0.5 -5q0 -4 2.5 -6.5t9.5 -2.5h63v0zM420 428l-219 -74l-25 73l219 74l25 -73v0z" />
<glyph unicode="&#xfb;" horiz-adv-x="338" d="M348 101l-33 -99h-14.5h-15.5q-22 0 -42.5 8t-36.5 22q-20 -14 -43.5 -22t-47.5 -8q-5 0 -9.5 0.5t-9.5 1.5q-5 0 -9.5 1.5t-9.5 2.5q-36 12 -54.5 41t-17.5 63q0 5 0.5 10t1.5 10q0 5 1.5 10t2.5 10l56 174h104l-66 -205q-1 -3 -1.5 -6t-0.5 -5q0 -4 2.5 -6.5t9.5 -2.5 q3 0 6 0.5t6 1.5q17 4 32 17.5t20 28.5q0 1 0.5 1.5t0.5 1.5l57 174h103l-65 -205q-1 -3 -1.5 -6t-0.5 -5q0 -4 2.5 -6.5t9.5 -2.5h63v0zM360 406l-38 -67l-114 64l-115 -64l-38 67l153 85l152 -85v0z" />
<glyph unicode="&#xfc;" horiz-adv-x="338" d="M348 101l-33 -99h-14.5h-15.5q-22 0 -42.5 8t-36.5 22q-20 -14 -43.5 -22t-47.5 -8q-5 0 -9.5 0.5t-9.5 1.5q-5 0 -9.5 1.5t-9.5 2.5q-36 12 -54.5 41t-17.5 63q0 5 0.5 10t1.5 10q0 5 1.5 10t2.5 10l56 174h104l-66 -205q-1 -3 -1.5 -6t-0.5 -5q0 -4 2.5 -6.5t9.5 -2.5 q3 0 6 0.5t6 1.5q17 4 32 17.5t20 28.5q0 1 0.5 1.5t0.5 1.5l57 174h103l-65 -205q-1 -3 -1.5 -6t-0.5 -5q0 -4 2.5 -6.5t9.5 -2.5h63v0zM213 430l-57 -92l-65 41l57 91l65 -40v0zM352 430l-56 -92l-66 41l56 91l66 -40v0z" />
<glyph unicode="&#xfd;" horiz-adv-x="275" />
<glyph unicode="&#xfe;" horiz-adv-x="464" d="M475 102l-32 -100h-281l32 100h41q7 0 13.5 1t13.5 4q30 10 54.5 35.5t24.5 55.5q0 15 -10 21.5t-24 6.5q-22 0 -49.5 -19t-56.5 -52q-29 -34 -56 -78.5t-44 -95.5l-55 -170h-104l65 201q22 68 44 134.5t44 133.5q9 31 14.5 57.5t6.5 52.5v6.5v6.5q0 23 -3 46t-8 48 l97 21q6 -26 9 -49.5t4 -46.5v-8.5v-9.5q0 -28 -4 -57t-12 -61q26 17 53.5 28t57.5 11q11 0 22 -1.5t22 -5.5q40 -13 63 -46t23 -74q0 -26 -8 -50.5t-22 -45.5h65v0z" />
<glyph unicode="&#xff;" horiz-adv-x="325" d="M369 326q-4 -10 -9 -20.5t-10 -20.5q-10 -23 -23.5 -52t-29.5 -58q-4 -9 -9 -17.5t-10 -16.5q0 -27 -1 -54.5t-4 -55.5q-13 -109 -66 -204.5t-170 -125.5l-24 95q77 20 112.5 85.5t46.5 139.5q-15 -9 -30.5 -13.5t-32.5 -4.5q-49 0 -78.5 32.5t-29.5 76.5q0 10 2 20.5 t5 20.5q14 43 28.5 86.5t27.5 86.5h104q-16 -51 -32.5 -102t-33.5 -102q0 -1 -0.5 -2t-0.5 -2q0 -2 -0.5 -4t-0.5 -4q0 -4 2 -6t7 -2q12 0 25 10t27 27q15 20 29.5 45.5t27.5 52.5q12 24 23 46.5t19 41.5v0v1h109v0zM221 428l-57 -92l-65 41l57 91l65 -40v0zM360 428 l-56 -92l-66 41l56 91l66 -40v0z" />
<glyph unicode="&#x152;" horiz-adv-x="863" d="M920 539q3 -9 4.5 -17.5t1.5 -16.5q0 -44 -33.5 -82t-73.5 -69q-21 -16 -41.5 -30t-35.5 -25l-59 78q3 2 24.5 17.5t46.5 35.5q5 4 9.5 7.5t8.5 6.5q22 18 38 34.5t16 25.5q0 2 -0.5 3.5t-2.5 2.5q-8 5 -17.5 7.5t-20.5 2.5q-7 0 -14.5 -1t-15.5 -3q-15 -3 -30 -8 t-28 -10q-6 -3 -11.5 -6t-10.5 -5q-44 -22 -65.5 -40.5t-26.5 -35.5q-2 -4 -2.5 -8t-0.5 -8q0 -27 23 -59.5t51 -80.5q-17 -13 -34 -25.5t-34 -25.5q-34 -25 -68 -50.5t-68 -51.5h413l-33 -100h-190.5h-191.5q-25 0 -46 7t-35 18q-28 -12 -58.5 -18t-61.5 -6 q-53 0 -102.5 21.5t-87.5 67.5q-28 36 -41.5 77t-13.5 83v4v4q2 70 35.5 136t85.5 113q41 36 91.5 57.5t102.5 25.5q5 1 11 1h11q53 0 102.5 -21t86.5 -68q1 0 1 -0.5v-1.5q33 36 80 63.5t97 40.5q20 5 39.5 8t38.5 3q26 0 49.5 -6t42.5 -18q16 -10 27 -23.5t17 -30.5v0z M451 226q15 26 24 56t9 61q0 27 -8 52t-25 47q-22 28 -51 40t-61 12h-9t-9 -1q-36 -3 -70.5 -19t-61.5 -39q-33 -29 -57.5 -73t-29.5 -92q0 -4 -0.5 -9t-0.5 -10q1 -25 8.5 -50t25.5 -47q23 -28 53 -40.5t61 -11.5h8t9 1q20 2 40.5 8t38.5 15q7 15 18.5 29t27.5 27l30 22 l30 22v0z" />
<glyph unicode="&#x153;" horiz-adv-x="542" d="M552 101l-32 -99h-207q-20 0 -39 7t-33 20q-20 -13 -43 -20t-47 -7h-6t-5 1q-3 0 -6 0.5t-6 0.5q-56 8 -90.5 51t-34.5 98q0 72 53.5 129t127.5 57q35 0 65 -15t49 -40q13 12 26.5 22t27.5 17q14 6 27.5 10.5t26.5 6.5q7 2 13.5 2h12.5q41 0 72.5 -23.5t30.5 -64.5 q0 -8 -1.5 -17t-4.5 -19q-8 -24 -33 -53.5t-70 -63.5h126v0zM217 151q-27 6 -46 26.5t-22 48.5q-16 -10 -27.5 -27t-13.5 -36q0 -1 -0.5 -2.5t-0.5 -2.5v-3v-3q0 -18 11 -32t32 -14t39 13t28 32v0zM433 244q-36 -1 -63 -27.5t-41 -58.5q0 -1 -0.5 -1.5t-0.5 -1.5 q47 28 71.5 50.5t33.5 38.5v0z" />
<glyph unicode="&#x178;" horiz-adv-x="454" d="M567 594q-28 -52 -54 -105t-51 -107q-2 -5 -4.5 -10t-5.5 -9l-2 -4l-2 -4q-5 -10 -9.5 -20t-8.5 -21q-10 -32 -34.5 -117.5t-57.5 -180.5l-14 -40t-15 -39q-22 -55 -45 -104.5t-47 -85.5q-5 -8 -11 -16t-12 -15l-74 64q15 18 31 47.5t33 66.5q8 19 16 38.5t16 40.5 q7 16 13.5 33t11.5 34q-25 -18 -53 -27.5t-60 -9.5q-71 0 -96.5 41t-25.5 99q0 16 1.5 33t4.5 33q4 27 10 53t12 50q6 19 11 36t9 30q2 4 6 18t9 32q1 3 2 6.5t2 7.5q5 19 8.5 35.5t3.5 24.5v2.5t-1 1.5q-4 2 -22 2t-47 -2l-5 99q44 3 77.5 0.5t58.5 -22.5q20 -16 27.5 -38 t7.5 -48q0 -11 -1 -22.5t-3 -22.5q-3 -16 -7.5 -32.5t-8.5 -31.5q-3 -10 -6 -19.5t-6 -18.5q-2 -6 -8 -27l-14 -49q-3 -11 -5.5 -23t-5.5 -24q-5 -22 -8 -43t-3 -38q0 -19 5 -31.5t18 -12.5q61 0 113 73t95 171q5 11 8.5 24t7.5 28q3 11 5.5 22.5t5.5 23.5q2 3 3 7l2 8 q10 34 21 67.5t23 67.5h155v0zM297 682l-57 -92l-65 41l57 91l65 -40v0zM436 682l-56 -92l-66 41l56 91l66 -40v0z" />
<glyph unicode="&#x2c6;" horiz-adv-x="341" d="M324 549q-18 -31 -48 -47.5t-64 -16.5q-16 0 -31.5 4t-29.5 12q-6 3 -12 4.5t-12 1.5q-13 0 -25 -6.5t-20 -18.5l-67 38q18 31 48 47.5t64 16.5q16 0 31.5 -4t29.5 -12q6 -3 12 -4.5t12 -1.5q14 0 26 6.5t19 19.5l67 -39v0z" />
<glyph unicode="&#x2dc;" horiz-adv-x="341" d="M326 554l-38 -67l-114 64l-115 -64l-38 67l153 85l152 -85v0z" />
<glyph unicode="&#x2000;" horiz-adv-x="389" />
<glyph unicode="&#x2001;" horiz-adv-x="779" />
<glyph unicode="&#x2002;" horiz-adv-x="389" />
<glyph unicode="&#x2003;" horiz-adv-x="779" />
<glyph unicode="&#x2004;" horiz-adv-x="259" />
<glyph unicode="&#x2005;" horiz-adv-x="194" />
<glyph unicode="&#x2006;" horiz-adv-x="129" />
<glyph unicode="&#x2007;" horiz-adv-x="129" />
<glyph unicode="&#x2008;" horiz-adv-x="97" />
<glyph unicode="&#x2009;" horiz-adv-x="155" />
<glyph unicode="&#x200a;" horiz-adv-x="43" />
<glyph unicode="&#x2010;" horiz-adv-x="222" d="M266 348l-33 -99h-220l32 99h221v0z" />
<glyph unicode="&#x2011;" horiz-adv-x="222" d="M266 348l-33 -99h-220l32 99h221v0z" />
<glyph unicode="&#x2012;" horiz-adv-x="222" d="M266 348l-33 -99h-220l32 99h221v0z" />
<glyph unicode="&#x2013;" horiz-adv-x="477" d="M475 348l-33 -99h-440l32 99h441v0z" />
<glyph unicode="&#x2014;" horiz-adv-x="724" d="M731 348l-33 -99h-710l32 99h711v0z" />
<glyph unicode="&#x2018;" horiz-adv-x="33" d="M166 617l-62 -115h-95l63 115h94v0z" />
<glyph unicode="&#x2019;" horiz-adv-x="33" d="M166 617l-62 -115h-95l63 115h94v0z" />
<glyph unicode="&#x201a;" horiz-adv-x="173" d="M36 87l-62 -115h-95l63 115h94v0z" />
<glyph unicode="&#x201c;" horiz-adv-x="127" d="M171 617l-62 -115h-95l63 115h94v0zM291 617l-62 -115h-95l63 115h94v0z" />
<glyph unicode="&#x201d;" horiz-adv-x="139" d="M171 617l-62 -115h-95l63 115h94v0zM291 617l-62 -115h-95l63 115h94v0z" />
<glyph unicode="&#x201e;" horiz-adv-x="305" d="M171 87l-62 -115h-95l63 115h94v0zM291 87l-62 -115h-95l63 115h94v0z" />
<glyph unicode="&#x2022;" horiz-adv-x="251" d="M132 372q45 0 77.5 -32.5t32.5 -77.5t-32.5 -77t-77.5 -32t-77.5 32t-32.5 77t32.5 77.5t77.5 32.5v0z" />
<glyph unicode="&#x2026;" />
<glyph unicode="&#x202f;" horiz-adv-x="155" />
<glyph unicode="&#x2039;" horiz-adv-x="229" d="M219 190l-50 -50l-159 158l159 159l50 -51l-108 -108l108 -108v0z" />
<glyph unicode="&#x203a;" horiz-adv-x="229" d="M9 190l108 108l-108 108l50 51l159 -159l-159 -158l-50 50v0z" />
<glyph unicode="&#x205f;" horiz-adv-x="194" />
<glyph unicode="&#x2122;" />
<glyph unicode="&#xe000;" horiz-adv-x="325" d="M0 325h325v-325h-325v325z" />
</font>
</defs>
</svg>
