<?xml version="1.0" standalone="no"?>
<!DOCTYPE svg PUBLIC "-//W3C//DTD SVG 1.1//EN" "http://www.w3.org/Graphics/SVG/1.1/DTD/svg11.dtd" >
<svg xmlns="http://www.w3.org/2000/svg">
<metadata></metadata>
<defs>
<font id="duru_sansregular" horiz-adv-x="1196" >
<font-face units-per-em="2048" ascent="1638" descent="-410" />
<missing-glyph horiz-adv-x="686" />
<glyph horiz-adv-x="2048" />
<glyph horiz-adv-x="2048" />
<glyph unicode="&#xd;" horiz-adv-x="2048" />
<glyph horiz-adv-x="0" />
<glyph horiz-adv-x="0" />
<glyph horiz-adv-x="0" />
<glyph horiz-adv-x="0" />
<glyph horiz-adv-x="0" />
<glyph horiz-adv-x="0" />
<glyph horiz-adv-x="0" />
<glyph horiz-adv-x="0" />
<glyph unicode="&#x9;" horiz-adv-x="0" />
<glyph horiz-adv-x="0" />
<glyph horiz-adv-x="0" />
<glyph horiz-adv-x="0" />
<glyph horiz-adv-x="0" />
<glyph horiz-adv-x="0" />
<glyph horiz-adv-x="0" />
<glyph horiz-adv-x="0" />
<glyph horiz-adv-x="0" />
<glyph horiz-adv-x="0" />
<glyph horiz-adv-x="0" />
<glyph unicode=" "  horiz-adv-x="686" />
<glyph unicode="&#x09;" horiz-adv-x="686" />
<glyph unicode="&#xa0;" horiz-adv-x="686" />
<glyph unicode="!" horiz-adv-x="682" d="M237 0v203h207v-203h-207zM245 1588h188l-27 -1199h-134z" />
<glyph unicode="&#x22;" horiz-adv-x="854" d="M160 1601h178l-32 -596h-114zM516 1601h177l-31 -596h-114z" />
<glyph unicode="#" horiz-adv-x="1366" d="M110 502v130h248l58 349h-217v130h238l73 444h146l-71 -444h268l74 444h146l-71 -444h254l-7 -130h-268l-56 -349h243l-7 -130h-256l-79 -486h-153l78 486h-263l-77 -486h-153l80 486h-228zM508 632h267l58 349h-269z" />
<glyph unicode="$" horiz-adv-x="1197" d="M152 1164q5 150 106 245t285 104v216h99v-216q159 -9 338 -87l-39 -160q-185 79 -299 90v-488q3 -2 7 -4t9.5 -4t8.5 -3q86 -41 142.5 -73.5t108.5 -74.5t78.5 -87t39 -104.5t4.5 -133.5q-16 -131 -113 -217.5t-285 -99.5v-241h-99v241q-183 8 -375 114l39 157 q191 -95 336 -111v506q-43 20 -65 31t-59.5 30t-57 31.5t-49.5 32.5t-46 37t-37 40t-32.5 46.5t-22.5 52t-16 61t-6 69.5zM335 1166q-4 -45 10.5 -83.5t47 -68.5t67 -52t83.5 -46v440q-198 -18 -208 -190zM642 227q206 19 223 192q4 50 -14 92.5t-56 75.5t-71.5 53.5 t-81.5 44.5v-458z" />
<glyph unicode="%" horiz-adv-x="1877" d="M122 1164q0 197 98 307t273 110q169 0 265 -110t96 -307q0 -199 -95.5 -307.5t-265.5 -108.5q-175 0 -273 108t-98 308zM286 1164q0 -145 59 -219.5t148 -74.5q84 0 142.5 75t58.5 219q0 143 -58.5 218.5t-142.5 75.5q-89 0 -148 -75t-59 -219zM407 33l961 1580l113 -58 l-959 -1583zM1023 415q0 197 98 306.5t272 109.5q169 0 265 -110t96 -306q0 -200 -95.5 -308.5t-265.5 -108.5q-175 0 -272.5 108.5t-97.5 308.5zM1187 415q0 -145 59 -220t147 -75q84 0 143 75.5t59 219.5q0 143 -59 218.5t-143 75.5q-88 0 -147 -75t-59 -219z" />
<glyph unicode="&#x26;" horiz-adv-x="1537" d="M164 391q-11 160 83 289.5t248 202.5q-109 138 -120 316q-7 152 94 258t246 106q161 0 253.5 -103t73.5 -258q-15 -109 -86 -190q-52 -54 -245 -192q71 -95 174 -214.5t198 -212.5q46 40 91.5 113.5t75.5 155.5l146 -104q-47 -86 -105 -161t-111 -119q92 -70 238 -188 l-152 -127l-180 199q-178 -182 -441 -182q-186 0 -326.5 117.5t-154.5 293.5zM391 623q-43 -67 -54 -139t9.5 -133.5t62.5 -111.5t107.5 -78.5t141.5 -28.5q167 0 333 131l-438 494q-40 -15 -83.5 -51t-78.5 -83zM534 1202q0 -16 1.5 -32t6.5 -33t8.5 -30t11.5 -32t12.5 -29 t15 -30t14.5 -26.5t16 -28t14 -25.5q98 55 171.5 142.5t73.5 181.5q0 80 -41 120t-114 40q-88 0 -139 -63.5t-51 -154.5z" />
<glyph unicode="'" horiz-adv-x="512" d="M167 1601h178l-32 -596h-114z" />
<glyph unicode="(" horiz-adv-x="854" d="M216 685q0 236 74 487.5t215 463.5l132 -66q-132 -192 -197.5 -426t-65.5 -459q0 -226 65.5 -459t197.5 -425l-132 -68q-141 213 -215 465t-74 487z" />
<glyph unicode=")" horiz-adv-x="854" d="M216 -199q132 192 197.5 425t65.5 459q0 225 -65.5 459t-197.5 426l132 66q141 -212 215 -463.5t74 -487.5q0 -235 -74 -487t-215 -465z" />
<glyph unicode="*" horiz-adv-x="1195" d="M182 1139q8 3 64.5 29.5t88.5 34.5l154 51l7 -4q5 -43 40 -70l-135 -102q-27 -23 -74.5 -51t-68.5 -36zM184 1387l74 145q89 -41 143 -88l137 -104q-38 -34 -42 -74l-161 50q-82 28 -151 71zM515 833q0 114 12 165l26 170q20 -9 43 -9q12 0 42 5l30 -166q11 -51 11 -165 h-164zM515 1685h164q0 -113 -11 -167l-33 -169q-17 9 -39 9q-20 0 -43 -9l-26 169q-12 54 -12 167zM654 1340l138 104q19 16 49 34.5t60.5 35.5t32.5 18l79 -143l-18 -12q-87 -45 -142 -61h3l-153 -50l-8 4q-3 35 -41 70zM657 1180q33 28 42 77l157 -54h-3q54 -12 142 -57 q9 -9 18 -9l-79 -146q-97 49 -142 87z" />
<glyph unicode="+" d="M136 706v117h398v398h126v-398h399v-117h-399v-400h-126v400h-398z" />
<glyph unicode="," horiz-adv-x="682" d="M194 -210q59 98 83 167.5t25 165.5v144l186 11v-97q0 -146 -39 -256t-98 -175z" />
<glyph unicode="-" horiz-adv-x="853" d="M126 518v153h601v-153h-601z" />
<glyph unicode="." horiz-adv-x="682" d="M225 0v203h232v-203h-232z" />
<glyph unicode="/" horiz-adv-x="1024" d="M86 -57l711 1791l140 -56l-711 -1791z" />
<glyph unicode="0" horiz-adv-x="1364" d="M167 774q0 239 60 417.5t177 277.5t278 99q242 0 378.5 -215.5t136.5 -578.5q0 -364 -136.5 -579t-378.5 -215q-162 0 -278.5 98.5t-176.5 277t-60 418.5zM345 774q0 -293 88 -466.5t249 -173.5q162 0 249 173t87 467t-87 466.5t-249 172.5q-161 0 -249 -173t-88 -466z " />
<glyph unicode="1" horiz-adv-x="1025" d="M221 1406l4 148h455v-1554h-170v1157q0 126 7 249h-296z" />
<glyph unicode="2" horiz-adv-x="1194" d="M172 1368q60 99 157.5 148.5t215.5 51.5q223 4 345 -112.5t122 -322.5q0 -78 -19 -157.5t-48.5 -149.5t-79 -147.5t-95.5 -138.5t-114.5 -137t-119 -128t-124.5 -125h609l-12 -150h-807l-28 115q49 58 132.5 146.5t149.5 157t141 161.5t124 175t80.5 182t27.5 196 q-5 136 -77 213t-214 77q-79 0 -158 -49.5t-125 -130.5z" />
<glyph unicode="3" horiz-adv-x="1194" d="M157 58l53 152q133 -78 271 -78q181 0 275.5 88t96.5 222q1 85 -27 147.5t-79 98t-113.5 51.5t-138.5 15h-58v139h53q53 -1 107 16.5t101.5 51.5t77 91t29.5 127q-12 203 -226 232q-161 18 -322 -84l-72 137q173 107 359 104q83 0 160 -22.5t141.5 -66.5t103.5 -119.5 t39 -171.5q0 -112 -67.5 -213t-187.5 -143q130 -22 218 -121.5t85 -273.5q-3 -202 -149.5 -330.5t-402.5 -126.5q-93 0 -182 22.5t-145 55.5z" />
<glyph unicode="4" horiz-adv-x="1194" d="M39 574l609 980h266v-998h240l-27 -147h-213v-409h-169v409h-685zM222 556h523v859z" />
<glyph unicode="5" horiz-adv-x="1194" d="M150 803l136 751h737l-13 -150h-594q3 -48 -27 -221l-57 -271q123 57 232 60q156 7 281.5 -71t170.5 -214q27 -83 27 -197q-1 -128 -44.5 -227.5t-118.5 -160.5t-170.5 -92t-205.5 -30q-96 0 -190 22.5t-150 55.5l53 152q130 -76 287 -76q154 0 256.5 91.5t104.5 264.5 q0 123 -41 197q-40 68 -110 100t-150 35q-149 3 -283 -72z" />
<glyph unicode="6" horiz-adv-x="1194" d="M123 698q34 420 234.5 628t591.5 244l22 -153q-287 -24 -449 -162t-210 -399q102 90 275.5 103.5t286.5 -58.5q90 -61 146.5 -169t52.5 -251q-4 -142 -58 -254t-162.5 -179.5t-256.5 -67.5q-86 1 -157 23.5t-120.5 61.5t-88 92.5t-59.5 116.5t-35 133.5t-14.5 144 t1.5 146.5zM293 692q-9 -115 3.5 -212.5t46.5 -176.5t98 -124.5t153 -48.5q149 0 223.5 94t80.5 260q3 111 -37.5 187.5t-106.5 112.5q-100 49 -233 27t-227 -90q0 -5 -0.5 -14.5t-0.5 -14.5z" />
<glyph unicode="7" horiz-adv-x="1194" d="M111 1404l4 150h938l30 -105l-672 -1451l-164 66l551 1164q58 117 100 176h-787z" />
<glyph unicode="8" horiz-adv-x="1194" d="M127 393q0 142 90 247t239 169q-133 54 -213.5 152.5t-80.5 234.5q0 89 37 161t98 117.5t138 69.5t160 24t160 -24.5t139.5 -70t100 -117.5t37.5 -160q0 -136 -80.5 -235t-213.5 -152q149 -64 239 -169t90 -247q0 -80 -25.5 -148t-69.5 -116t-104 -82t-129 -50t-144 -17 q-93 1 -176 27.5t-149 76t-104.5 129.5t-38.5 180zM306 384q0 -119 85.5 -184.5t203.5 -65.5q76 0 141 27t109 85.5t44 137.5q0 245 -290 346q-293 -100 -293 -346zM341 1175q0 -91 55 -163.5t201 -127.5q77 29 129.5 63.5t79.5 73t37.5 75t10.5 79.5q0 112 -67 175.5 t-190 64.5q-122 -1 -189 -64.5t-67 -175.5z" />
<glyph unicode="9" horiz-adv-x="1194" d="M113 1073q0 123 40 219.5t107 155t148.5 89t170.5 31.5q233 3 367.5 -145t134.5 -455q0 -448 -208.5 -701t-617.5 -290l-38 151q270 34 432 154t221 359q-117 -52 -273 -54q-231 -6 -352 117t-132 369zM290 1079q1 -77 17 -138t50.5 -109.5t94 -75t140.5 -26.5 q162 -3 303 49q10 95 10 184q0 454 -326 454q-126 2 -209.5 -91.5t-79.5 -246.5z" />
<glyph unicode=":" horiz-adv-x="682" d="M238 0v218h206v-218h-206zM238 939v218h206v-218h-206z" />
<glyph unicode=";" horiz-adv-x="682" d="M149 -210q60 96 83.5 165.5t25.5 167.5v144l185 11v-97q0 -146 -38.5 -256t-98.5 -175zM238 939v218h206v-218h-206z" />
<glyph unicode="&#x3c;" horiz-adv-x="1022" d="M157 653v120l558 433l91 -104l-521 -389l521 -389l-91 -104z" />
<glyph unicode="=" d="M183 182v127h830v-127h-830zM183 712v128h830v-128h-830z" />
<glyph unicode="&#x3e;" horiz-adv-x="1022" d="M216 324l521 389l-521 389l90 104l559 -433v-120l-559 -433z" />
<glyph unicode="?" d="M171 1488q179 96 379 100q81 1 150.5 -10.5t129 -37t101.5 -64t67 -96t27 -130.5q0 -60 -12 -110.5t-39 -98t-51.5 -80.5t-68.5 -87q-11 -13 -17 -20q-43 -52 -64.5 -78.5t-57.5 -79.5t-54.5 -94t-35 -98t-19.5 -115h-182q24 263 237 509q92 106 119 145q64 95 64 185 q0 102 -80 152.5t-216 50.5q-139 0 -319 -95zM414 0v203h206v-203h-206z" />
<glyph unicode="@" horiz-adv-x="2048" d="M159 611q0 196 43.5 353t122 266.5t191.5 182.5t249.5 106.5t298.5 33.5q167 0 313.5 -51t261.5 -148.5t182 -253.5t67 -352q0 -281 -99 -440.5t-265 -184.5q-76 -12 -142 18.5t-92 105.5q-144 -144 -349 -110q-89 17 -155 66t-102 118.5t-51.5 146t-12.5 157.5 q19 468 381 468q140 0 282 -84l7 84l130 -20q-7 -44 -7 -117v-611q0 -57 34.5 -80.5t86.5 -5.5q203 75 203 489q0 163 -53 292t-145.5 210t-214 123.5t-262.5 42.5q-362 0 -557.5 -196.5t-195.5 -608.5q0 -357 208.5 -558t568.5 -201q191 0 385 64l65 -124 q-214 -77 -450 -77q-277 0 -485 104t-325 307.5t-117 484.5zM770 620q-2 -76 12.5 -140.5t45.5 -116t84 -80.5t124 -29q55 0 115 23t93 45l32 23v571q-165 57 -272 51q-224 -11 -234 -347z" />
<glyph unicode="A" horiz-adv-x="1537" d="M44 0l613 1554h222l613 -1554h-198l-161 431h-731l-159 -431h-199zM461 574h614l-73 197q-98 248 -143 380q-15 42 -44 133t-47 142q-16 -48 -46 -140t-44 -135q-54 -150 -144 -380z" />
<glyph unicode="B" horiz-adv-x="1366" d="M197 0v1555h385q132 0 228.5 -18.5t172.5 -62t115.5 -122t42.5 -192.5q3 -134 -61 -223.5t-169 -122.5q46 -2 91.5 -16t89 -44t76 -72.5t51.5 -105.5t17 -137q-5 -233 -153.5 -338t-458.5 -101h-427zM368 150h256q80 -1 143 5.5t117.5 25t91 49t57.5 78t23 111.5 q2 63 -11 111t-32 79.5t-58 53.5t-69.5 32.5t-88 16t-92 6.5t-101.5 1h-236v-569zM368 862h260q166 -3 253 69t80 229q-1 138 -94 192.5t-285 54.5h-214v-545z" />
<glyph unicode="C" horiz-adv-x="1366" d="M115 774q0 180 40 321t125.5 249t230.5 166t343 58q214 0 440 -91l-53 -148q-206 82 -384 82q-287 0 -413 -136q-144 -155 -150 -501q5 -317 138.5 -476t424.5 -159q198 0 423 93l53 -151q-110 -47 -240 -74t-239 -27q-739 0 -739 794z" />
<glyph unicode="D" horiz-adv-x="1541" d="M220 0v1554h482q160 0 284 -35.5t207.5 -100.5t137 -162.5t77 -215t23.5 -264.5v-41q0 -350 -191.5 -542.5t-545.5 -192.5h-474zM393 157h301q270 0 414 155.5t144 422.5v41q-5 318 -134.5 469t-419.5 151h-305v-1239z" />
<glyph unicode="E" d="M220 0v1554h887l-9 -160h-705v-520h631v-158h-631v-557h724l9 -159h-906z" />
<glyph unicode="F" d="M220 0v1554h882l-9 -160h-700v-520h624v-158h-624v-716h-173z" />
<glyph unicode="G" horiz-adv-x="1537" d="M155 740q0 141 23 262.5t78.5 230t139.5 183.5t213.5 116.5t293.5 35.5q241 -9 444 -100l-58 -148q-189 85 -389 91q-148 4 -258 -42.5t-177 -137.5t-99.5 -213.5t-32.5 -277.5q12 -298 146 -447t419 -159q194 -5 312 60v494h-271v159h443v-766q-114 -48 -250 -76.5 t-242 -24.5q-194 7 -335 62t-227 155.5t-128 234t-45 308.5z" />
<glyph unicode="H" horiz-adv-x="1537" d="M171 0v1554h173v-667h847v667h173v-1554h-173v733h-847v-733h-173z" />
<glyph unicode="I" horiz-adv-x="513" d="M170 0v1554h173v-1554h-173z" />
<glyph unicode="J" horiz-adv-x="853" d="M57 -2l26 174q78 -38 169 -38q79 0 131 22t78.5 68.5t36 103t9.5 140.5v1086h173v-1075q0 -164 -21 -243q-19 -78 -59 -131t-98 -79t-116.5 -36t-133.5 -10q-114 0 -195 18z" />
<glyph unicode="K" horiz-adv-x="1365" d="M220 0v1554h173v-1554h-173zM472 806v33l599 715h230l-628 -727q94 -112 175.5 -202t121.5 -139q185 -221 342 -400l-168 -109q-130 189 -358 465q-12 15 -43 48t-100 112t-171 204z" />
<glyph unicode="L" horiz-adv-x="1197" d="M168 0v1554h173v-1392h713l-7 -162h-879z" />
<glyph unicode="M" horiz-adv-x="1880" d="M165 0v1554h289l486 -1272l491 1272h283v-1554h-173v1126l4 291q-95 -249 -276 -715t-214 -552h-232q-31 81 -212.5 549t-276.5 718q4 -209 4 -291v-1126h-173z" />
<glyph unicode="N" horiz-adv-x="1536" d="M165 0v1554h257l653 -1147l122 -244v1391h173v-1554h-254l-658 1153l-120 237v-1390h-173z" />
<glyph unicode="O" horiz-adv-x="1708" d="M134 770q0 185 54 336t150.5 252t230.5 155.5t295 54.5q345 0 527 -208.5t182 -589.5q0 -185 -53.5 -334.5t-150 -249t-231.5 -153t-296 -53.5q-330 0 -519 208.5t-189 581.5zM312 770q-1 -311 142.5 -474t401.5 -159q254 3 399 168t141 465q-4 322 -141 481.5 t-413 159.5q-249 0 -388.5 -168.5t-141.5 -472.5z" />
<glyph unicode="P" horiz-adv-x="1363" d="M208 0v1554h430q324 4 471 -131.5t143 -403.5q-3 -117 -43 -214.5t-115 -169.5t-191 -111.5t-263 -37.5h-258v-486h-174zM382 636h258q203 -1 314.5 101t118.5 287q0 189 -100.5 282.5t-334.5 93.5h-256v-764z" />
<glyph unicode="Q" horiz-adv-x="1705" d="M120 770q0 185 54 336t150.5 252t230.5 155.5t295 54.5q345 0 527 -208.5t182 -589.5q0 -245 -91.5 -423t-256.5 -272l264 -318l-168 -113q-20 29 -77.5 120.5t-92.5 140.5l-77 106q-108 -31 -232 -31q-330 0 -519 208.5t-189 581.5zM298 770q-1 -311 142.5 -474 t401.5 -159q254 3 399 168t141 465q-4 322 -141 481.5t-413 159.5q-249 0 -388.5 -168.5t-141.5 -472.5z" />
<glyph unicode="R" horiz-adv-x="1365" d="M220 0v1554h423q162 2 277 -32.5t180 -102.5t94 -156.5t28 -206.5q-15 -362 -328 -454q57 -93 115 -176l259 -338l-178 -108q-74 134 -231 373q-116 180 -146 222q-30 -4 -93 -4h-227v-571h-173zM393 723h227q209 -2 313 77t111 260q2 170 -91.5 256.5t-309.5 83.5h-250 v-677z" />
<glyph unicode="S" horiz-adv-x="1195" d="M115 62l31 153q194 -73 421 -81q58 -2 110 9t99 35.5t80 69.5t45 106q40 212 -327 342q-75 26 -131.5 53t-116.5 70.5t-96.5 94.5t-56 125.5t-9.5 162.5q9 79 44.5 143t84 105t109 68t119 38.5t115.5 11.5q156 7 375 -58l-32 -150q-180 58 -345 53q-46 -2 -90.5 -15 t-87.5 -38.5t-74 -71.5t-40 -107q-9 -54 3 -99t37 -77t69.5 -61.5t88.5 -49.5t107 -43q464 -171 436 -478q-8 -90 -42.5 -159.5t-84 -112.5t-116 -71t-134 -39t-143.5 -11q-207 0 -448 82z" />
<glyph unicode="T" horiz-adv-x="1539" d="M170 1394v160h1190v-160h-504v-1394h-174v1394h-512z" />
<glyph unicode="U" horiz-adv-x="1537" d="M196 696v858h173v-858q0 -67 1.5 -109t9.5 -107.5t23 -107t44 -90.5t70.5 -77t105.5 -47t145 -19q63 0 116 11.5t91.5 30t69 49t50 60.5t34 73.5t21.5 78.5t11 85.5t5 84t1 84.5v858h174v-858q0 -64 -1.5 -110t-7.5 -110t-17 -110t-32 -101t-49.5 -93.5t-72.5 -77 t-99 -62t-129.5 -38t-164.5 -14.5q-115 0 -206 24t-150 60t-101.5 97.5t-64 116t-33.5 137t-14.5 139t-2.5 142.5z" />
<glyph unicode="V" horiz-adv-x="1364" d="M6 1554h199l477 -1401l476 1401h199l-560 -1554h-232z" />
<glyph unicode="W" horiz-adv-x="2048" d="M17 1554h197q39 -153 112.5 -438t133 -517t110.5 -440q30 134 65 279.5t71 287t70 270.5t74 284t70 274h212l270 -1061l75 -334q52 208 111.5 439.5t133 517t112.5 438.5h197q-34 -122 -132 -479.5t-167 -601t-138 -473.5h-234l-265 1035l-66 317h-9 q-42 -207 -97.5 -432.5t-126 -497t-107.5 -422.5h-234q-69 230 -139 478.5t-165 592.5t-134 483z" />
<glyph unicode="X" horiz-adv-x="1362" d="M79 0l477 793l-457 761h205l225 -403l150 -239q33 49 68.5 106.5t61.5 100t66.5 113t58.5 102t65 114.5t60 106h206l-461 -761l479 -793h-208q-226 396 -396 678q-170 -286 -391 -678h-209z" />
<glyph unicode="Y" d="M-20 1554h204l414 -823l414 823h204l-532 -987v-567h-174v567q-92 158 -267.5 497.5t-262.5 489.5z" />
<glyph unicode="Z" d="M61 120l790 1276h-734v158h935l27 -119l-793 -1278h848l-11 -157h-1033z" />
<glyph unicode="[" horiz-adv-x="854" d="M201 -267v1877h442l-2 -129h-294v-1618h304l2 -130h-452z" />
<glyph unicode="\" horiz-adv-x="1024" d="M86 1678l140 56l711 -1791l-140 -56z" />
<glyph unicode="]" horiz-adv-x="854" d="M201 -267l2 130h304v1618h-294l-2 129h442v-1877h-452z" />
<glyph unicode="^" horiz-adv-x="1195" d="M111 886l426 593h120l426 -593l-108 -85l-378 539l-377 -539z" />
<glyph unicode="_" horiz-adv-x="1195" d="M-4 -203h1203v-114h-1203v114z" />
<glyph unicode="`" horiz-adv-x="507" d="M7 1641l113 123l379 -366l-92 -102z" />
<glyph unicode="a" d="M108 310q0 69 28.5 122.5t79 86.5t110 51t129.5 24q130 14 313 17v180q0 60 -1.5 89t-12.5 63.5t-33 52.5q-40 31 -178 27q-150 -7 -303 -51l-28 148q173 51 344 51q167 0 256 -44q69 -36 95.5 -112t28.5 -218v-538v-17q0 -37 0.5 -54.5t4.5 -36.5t12 -28q12 -14 36 -15 t61 7l11 -124q-34 -11 -90 -11q-77 0 -124 40t-61 103q-19 -27 -55 -56.5t-106.5 -57.5t-148.5 -29q-149 -2 -258.5 89.5t-109.5 240.5zM279 318q0 -87 58.5 -141t149.5 -54q80 -2 156 26.5t125 84.5v132l4 131q-164 0 -291 -18q-105 -14 -153.5 -50t-48.5 -111z" />
<glyph unicode="b" horiz-adv-x="1365" d="M194 1620l175 14v-598q171 135 327 135q224 0 351 -153.5t123 -436.5q-3 -361 -227 -512q-133 -89 -335 -89q-180 0 -407 71zM367 157q113 -32 232 -32q163 0 249 69q141 111 144 387q3 211 -74.5 327.5t-217.5 116.5q-181 0 -331 -131v-494z" />
<glyph unicode="c" horiz-adv-x="1024" d="M110 576q0 309 138.5 457.5t408.5 137.5q150 -6 270 -56l-38 -148q-103 47 -239 56q-175 11 -268 -95.5t-93 -351.5q0 -99 19.5 -177.5t52 -128.5t78.5 -82.5t95.5 -46t105.5 -13.5q154 0 294 55l26 -148q-141 -55 -320 -55q-248 0 -389 146t-141 450z" />
<glyph unicode="d" horiz-adv-x="1370" d="M137 572q2 133 28.5 239t80.5 188t144 127t212 45q184 -4 340 -83v546l169 -14l7 -1620h-157l-17 150q-176 -170 -369 -170q-96 -1 -172.5 30.5t-126.5 86t-82.5 131t-45.5 162t-11 182.5zM315 567q-1 -69 4.5 -126t23 -117.5t46.5 -101.5t80 -67.5t119 -26.5 q198 0 356 170v417l3 250q-145 57 -334 60q-69 0 -121.5 -23.5t-85.5 -63t-53.5 -99.5t-28.5 -125t-9 -147z" />
<glyph unicode="e" d="M121 581q0 285 125 436.5t366 153.5q119 0 207.5 -47t140.5 -133t75.5 -200.5t20.5 -256.5h-759q11 -217 103.5 -311.5t250.5 -94.5q128 0 273 55l33 -148q-143 -55 -306 -55q-288 0 -421 182q-109 147 -109 419zM297 669h579q-5 66 -13.5 116t-28 99t-47.5 80 t-73.5 48.5t-105.5 14.5q-110 -3 -181 -55q-127 -93 -130 -303z" />
<glyph unicode="f" horiz-adv-x="854" d="M112 1016v141h172v104q-5 134 13.5 202t90.5 113q139 87 424 44l-21 -165q-84 25 -138.5 34t-97.5 1.5t-70 -35.5q-16 -18 -24 -42.5t-8.5 -41t1 -59t1.5 -62.5v-93h284v-141h-284v-1016h-171v1016h-172z" />
<glyph unicode="g" d="M149 257q0 63 41 115t116 79q-157 97 -157 322q0 94 36 171t96.5 125.5t136 75t158.5 26.5q117 0 205 -36q70 -10 156.5 -3t160.5 20l74 14l27 -146q-138 -9 -270 -13q31 -36 48.5 -105t17.5 -129q0 -98 -36 -175t-97 -123t-136 -69.5t-159 -23.5q-46 0 -100 8t-80 19 q-30 -17 -65 -69q-63 -87 21 -141q28 -18 74.5 -23t81 -2.5t90 10t66.5 8.5q67 4 132.5 1.5t125 -23t105 -52.5t74.5 -87t33 -126q2 -88 -33 -162t-92.5 -122.5t-133 -82.5t-151 -50t-150.5 -18q-127 -3 -232.5 32t-169.5 107q-59 70 -65 166t39 183t127 135 q-115 61 -115 164zM304 -292q71 -92 259 -88q77 2 143 17t121.5 43.5t87.5 76.5t32 111q-3 189 -259 169q-20 -1 -78 -6t-90.5 -6.5t-79.5 2.5t-83 17q-44 -28 -71.5 -87.5t-24.5 -129.5t43 -119zM315 775q-1 -126 63.5 -192.5t186.5 -66.5q116 0 190 70t74 187 q5 155 -77 223q-61 46 -185 41q-112 -8 -180 -76t-72 -186z" />
<glyph unicode="h" horiz-adv-x="1366" d="M212 1620l171 14v-618q226 155 398 155q189 0 278 -87t95 -278v-806h-167v745q0 154 -44.5 214.5t-154.5 60.5q-101 0 -194 -32t-208 -100q4 -161 4 -245v-643h-172z" />
<glyph unicode="i" horiz-adv-x="684" d="M257 0v1157h170v-1157h-170zM257 1382v238h170v-238h-170z" />
<glyph unicode="j" horiz-adv-x="684" d="M-89 -497l20 164q81 -25 133 -34t93.5 -1.5t67.5 35.5q14 15 21 30t10 44t3 50t-1 77.5t-1 96.5v1192h171v-1192v-128t-6.5 -108.5t-20.5 -88.5t-41 -67.5t-68 -44.5q-136 -63 -381 -25zM257 1382v238h171v-238h-171z" />
<glyph unicode="k" horiz-adv-x="1198" d="M200 1620l176 14l2 -940v-694h-172zM429 641l460 516h222l-483 -516q5 -7 29 -35t62 -73.5t70 -86.5l329 -356l-163 -110q-40 59 -94.5 130.5t-94 120t-110 134.5t-100.5 123q-124 149 -127 153z" />
<glyph unicode="l" horiz-adv-x="698" d="M192 301l2 1319l172 14l-2 -1322q-5 -95 25 -137.5t110 -42.5q57 0 184 34l32 -146q-140 -37 -222 -40q-71 -1 -123.5 13t-94.5 49t-63 100t-20 159z" />
<glyph unicode="m" horiz-adv-x="2049" d="M194 1157l172 9q-2 -37 -2 -155q54 39 79.5 56.5t79 47.5t104 43t104.5 13q134 0 216 -42.5t122 -132.5l24 15q55 40 79.5 56.5t78.5 47t104.5 43.5t104.5 13q190 0 281.5 -87.5t95.5 -277.5v-806h-170v745q0 153 -45 214t-155 61q-97 0 -172 -29.5t-193 -102.5l-3 -2 q7 -35 7 -80v-806h-169v745q0 154 -44.5 214.5t-154.5 60.5q-98 0 -172.5 -29.5t-192.5 -102.5q4 -161 4 -245v-643h-171q4 1105 -12 1157z" />
<glyph unicode="n" horiz-adv-x="1365" d="M194 1157l172 9q-2 -37 -2 -155q237 160 404 160q190 0 281.5 -87.5t96.5 -277.5v-806h-172v745q0 154 -44.5 214.5t-154.5 60.5q-101 0 -193.5 -32t-208.5 -100q4 -161 4 -245v-643h-171q4 1105 -12 1157z" />
<glyph unicode="o" horiz-adv-x="1363" d="M164 560q0 289 146 450t380 161q251 0 380 -154t129 -443q0 -146 -41 -261t-113 -186.5t-166 -109t-203 -37.5q-239 0 -375.5 151t-136.5 429zM343 565q2 -214 86.5 -327t248.5 -113q338 0 338 449q-3 222 -83 336.5t-252 114.5q-164 0 -253 -119.5t-85 -340.5z" />
<glyph unicode="p" horiz-adv-x="1365" d="M188 1157l166 14v-178q84 88 178.5 132t185.5 46q103 3 184 -31t131 -90.5t82.5 -135.5t45 -158.5t12.5 -167.5q0 -137 -32.5 -250t-96.5 -196.5t-168 -126.5t-239 -35q-127 5 -268 69v-528h-172zM363 854q6 -150 6 -234v-426q87 -35 144.5 -50t125.5 -19q99 -5 170 28 t111.5 98t58.5 148t17 189q-1 94 -15 169t-44.5 137.5t-84.5 96t-129 32.5q-36 -1 -71 -7t-64 -16t-56 -22t-49 -26t-40.5 -27t-33 -26t-24 -22t-15.5 -16z" />
<glyph unicode="q" horiz-adv-x="1365" d="M143 588q6 170 66 298t180.5 203t288.5 75q180 0 423 -69l7 -1561l-176 -13l-2 808v430l4 232q-69 19 -149 26.5t-163 -3t-134 -42.5q-156 -98 -167 -384q-9 -225 64 -342.5t242 -122.5q76 -4 196 30l10 -137q-117 -32 -215 -32q-234 -3 -359.5 150t-115.5 454z" />
<glyph unicode="r" horiz-adv-x="853" d="M194 1157l166 14v-281q70 148 158.5 214.5t198.5 66.5q75 0 127 -12l-37 -178q-49 24 -108 24q-23 0 -46 -5t-41.5 -11t-40.5 -21.5t-35.5 -24.5t-34.5 -32t-29.5 -31.5t-29.5 -37t-25 -34t-24.5 -35.5t-21.5 -31q4 -100 4 -192v-550h-169q0 1133 -12 1157z" />
<glyph unicode="s" horiz-adv-x="1024" d="M127 46l30 151q164 -64 329 -67q109 -4 164.5 35t61.5 106q4 43 -10 77.5t-46 61t-66 44.5t-86 39q-43 18 -69 29.5t-65.5 33t-64 41.5t-52.5 50.5t-42.5 63t-23 77.5t-5.5 96q7 92 64 158t137.5 96t176.5 33q152 0 287 -44l-34 -148q-116 41 -256 41q-85 0 -137 -42 t-59 -108q-5 -48 9 -84.5t48.5 -64.5t69.5 -46.5t91 -40.5t92 -39t83 -48.5t74 -65.5t46 -86t17 -115q-3 -106 -59.5 -175t-143.5 -97t-206 -28q-87 0 -185.5 19t-169.5 47z" />
<glyph unicode="t" horiz-adv-x="853" d="M62 1016l5 141h190q0 81 -3 141t-6 79l-3 19l172 28q7 -183 7 -267h316v-141h-319l-4 -704q-3 -103 25 -143q18 -27 58.5 -35.5t91 -1t90.5 17.5t79 22l4.5 1.5t3.5 1t4 1.5l30 -141q-145 -55 -284 -55q-73 2 -123.5 17.5t-87.5 51.5t-52.5 98t-10.5 154l5 715h-188z" />
<glyph unicode="u" horiz-adv-x="1363" d="M186 368v789l170 14v-743q0 -159 46.5 -227t160.5 -71q107 0 201 41t197 127q-7 126 -7 209v650l171 14q-5 -1101 12 -1171h-156l-20 162q-78 -82 -181 -132t-215 -50q-182 5 -282.5 104.5t-96.5 283.5z" />
<glyph unicode="v" d="M70 1157h187l343 -1023l340 1023h185l-405 -1157h-241z" />
<glyph unicode="w" horiz-adv-x="1706" d="M-1 1157h192q258 -962 283 -1053q38 157 85 336t102.5 384.5t88.5 332.5h208l238 -900l37 -153q43 156 89 326.5t106 398t87 328.5h192q-302 -985 -356 -1157h-250l-216 854l-31 157q-43 -204 -137.5 -574t-110.5 -437h-251q-55 178 -356 1157z" />
<glyph unicode="x" horiz-adv-x="1024" d="M12 0l405 597l-382 560h204l277 -437l274 437h194l-377 -567q33 -43 405 -513l-169 -105q-155 252 -336 494l-291 -466h-204z" />
<glyph unicode="y" horiz-adv-x="1194" d="M64 1157h187l338 -1023l340 1023h190q-528 -1452 -616 -1696l-196 67q68 122 129.5 240t89.5 175l28 57h-83z" />
<glyph unicode="z" horiz-adv-x="1025" d="M70 123l627 886h-596v148h813v-125l-627 -884h667l-10 -148h-847z" />
<glyph unicode="{" horiz-adv-x="853" d="M159 605v137q42 2 67 9t44 22.5t27.5 48.5t12.5 77.5t4 118.5v206q0 93 26 164t63.5 110.5t92.5 65t100 34.5t98 12v-133q-232 -23 -232 -253v-206q0 -87 -9.5 -150.5t-22.5 -97.5t-36.5 -56t-40 -28.5t-44.5 -12.5q27 -6 44 -12.5t40 -28t36.5 -55.5t23 -97.5 t9.5 -150.5v-206q0 -230 232 -253v-133q-53 3 -98 12t-100 34.5t-92.5 65t-63.5 110.5t-26 164v206q0 74 -4 118.5t-12.5 77.5t-27.5 48.5t-44 22.5t-67 9z" />
<glyph unicode="|" horiz-adv-x="512" d="M177 -329v2016h157v-2016h-157z" />
<glyph unicode="}" horiz-adv-x="853" d="M159 -130q232 23 232 253v206q0 87 9.5 150.5t23 97.5t36.5 55.5t40 28t44 12.5q-28 6 -44.5 12.5t-40 28.5t-36.5 56t-22.5 97.5t-9.5 150.5v206q0 230 -232 253v133q53 -3 98 -12t100 -34.5t92.5 -65t63.5 -110.5t26 -164v-206q0 -74 4 -118.5t12.5 -77.5t27.5 -48.5 t44 -22.5t67 -9v-137q-42 -2 -67 -9t-44 -22.5t-27.5 -48.5t-12.5 -77.5t-4 -118.5v-206q0 -93 -26 -164t-63.5 -110.5t-92.5 -65t-100 -34.5t-98 -12v133z" />
<glyph unicode="~" horiz-adv-x="1365" d="M101 583q14 37 24 62.5t28 62.5t35.5 62t43 53.5t53.5 45t65 27t79 9.5q59 -1 117 -20t92 -38.5t83 -53.5q77 -48 126 -71.5t87 -23.5q56 0 97.5 52t75.5 164l156 -44q-20 -54 -35 -88.5t-45 -84.5t-61.5 -79t-80.5 -50t-107 -20q-44 1 -85 10.5t-81 29.5t-62.5 33.5 t-62.5 40.5q-146 93 -214 93q-55 0 -96.5 -52t-76.5 -164z" />
<glyph unicode="&#xa1;" horiz-adv-x="682" d="M238 1190v203h206v-203h-206zM245 -194l28 1199h133l29 -1199h-190z" />
<glyph unicode="&#xa2;" horiz-adv-x="1197" d="M153 773q0 263 103 400t308 158v243h100v-238h23q61 -2 114 -11.5t79 -17.5t73 -24l-39 -146q-113 50 -233 55h-17v-843h6q139 0 290 56l23 -144q-142 -55 -313 -55h-6v-257h-100v263q-411 54 -411 561zM328 773q0 -350 236 -413v823q-115 -24 -175.5 -121t-60.5 -289z " />
<glyph unicode="&#xa3;" horiz-adv-x="1194" d="M84 689v137h237l20 190q8 87 21.5 159t43 149t71 129.5t109 86.5t153.5 34q73 0 134 -16t146 -56l-58 -135q-65 29 -111 39t-103 10q-38 0 -70 -16t-54 -38t-41.5 -60.5t-30 -67.5t-21 -77t-14.5 -70.5t-10 -65.5q-2 -13 -3 -19q-5 -30 -13 -91t-12 -85h468l-5 -137h-484 q-60 -378 -158 -525h770l-4 -148h-978v158q138 70 212 515h-215z" />
<glyph unicode="&#xa4;" horiz-adv-x="1366" d="M165 263q25 29 80.5 81t92.5 77l79 54q-75 81 -75 223q0 144 75 225l-79 53q-37 25 -93 78t-80 81l115 117q119 -116 155 -176l62 -93q80 37 183 37q106 0 185 -39l65 95q41 65 156 176l115 -117q-25 -29 -81 -81.5t-95 -77.5l-80 -53q78 -83 78 -225q0 -140 -78 -223 l80 -54q39 -25 94.5 -76.5t81.5 -81.5l-115 -117q-117 111 -156 176l-67 93q-75 -38 -183 -38q-107 0 -183 38l-62 -93q-35 -61 -155 -176zM483 698q0 -99 53.5 -153.5t143.5 -54.5q92 0 145.5 54t53.5 154q0 101 -53.5 156.5t-145.5 55.5q-90 0 -143.5 -55.5t-53.5 -156.5z " />
<glyph unicode="&#xa5;" horiz-adv-x="1194" d="M29 1574h197q283 -505 370 -658q92 158 371 658h197q-343 -567 -486 -826h314v-119h-314v-174h314v-119h-314v-320h-163v320h-316v119h316v174h-316v119h316q-146 264 -486 826z" />
<glyph unicode="&#xa6;" horiz-adv-x="512" d="M177 -328v827h157v-827h-157zM177 860v827h157v-827h-157z" />
<glyph unicode="&#xa7;" horiz-adv-x="1025" d="M142 722q0 58 33.5 130.5t116.5 128.5q-150 119 -150 269q0 153 104 244t252 91q166 5 297 -116l-90 -118q-42 42 -98 68.5t-101 26.5q-82 0 -141 -53t-59 -143q0 -77 55.5 -132t180.5 -130q58 -34 98 -60.5t90 -68.5t80 -83.5t51 -99t21 -120.5q0 -59 -33.5 -130 t-116.5 -130q150 -117 150 -265q0 -86 -31.5 -154.5t-83 -109t-116 -60t-132.5 -14.5q-161 3 -293 117l92 113q94 -87 201 -92q34 -2 66 6t63.5 28t50.5 63t19 103q0 32 -13 61t-28.5 49.5t-54 50t-63 45.5t-81.5 52q-43 26 -69 42.5t-65.5 45t-64.5 52t-53.5 58t-45 68 t-27.5 77t-11 90.5zM304 722q0 -39 10 -74t32 -65.5t44 -54t59 -49.5t63.5 -42.5t69.5 -41.5l65 -39q74 99 74 200q0 44 -16 84.5t-37.5 69.5t-60.5 61t-68 52t-77 49q-4 3 -6.5 4.5t-6 3.5t-6.5 4q-26 13 -69 39q-70 -89 -70 -201z" />
<glyph unicode="&#xa8;" horiz-adv-x="581" d="M7 1363v222h178v-222h-178zM395 1363v222h179v-222h-179z" />
<glyph unicode="&#xa9;" horiz-adv-x="1701" d="M99 786q0 142 39 262t108 207t163 148t205 90.5t233 29.5q161 0 296.5 -46t238.5 -135t161 -231.5t58 -324.5q0 -180 -58 -320.5t-161 -228.5t-238.5 -133.5t-296.5 -45.5q-154 0 -288 47t-237.5 136.5t-163 229.5t-59.5 315zM229 786q0 -120 32 -221t89 -172.5t135 -121 t169 -73.5t193 -24q134 0 246 37.5t197.5 110.5t133.5 192t48 272q0 156 -48 276.5t-133.5 194.5t-197.5 112t-246 38q-101 0 -192.5 -24.5t-169.5 -75t-135 -123t-89 -174.5t-32 -224zM461 771v28q0 411 402 411q121 0 250 -62l-40 -104q-113 51 -210 51q-139 0 -205.5 -72 t-69.5 -224v-28q0 -131 72.5 -206.5t202.5 -76.5q114 -3 246 62l32 -110q-152 -69 -278 -69q-190 0 -296 106t-106 294z" />
<glyph unicode="&#xaa;" horiz-adv-x="853" d="M125 1031q0 50 21.5 86t54.5 56.5t86.5 32.5t105 15.5t121.5 3.5h25v102q0 75 -27.5 103.5t-94.5 28.5q-107 0 -220 -40l-25 109q138 46 254 46q62 -1 104.5 -12t74.5 -37.5t47.5 -73.5t16.5 -117v-326q0 -62 11.5 -78t61.5 -8l8 -97q-23 -7 -70 -7q-49 0 -82 22.5 t-40 58.5q-79 -85 -192 -87q-117 0 -180 62t-61 157zM257 1033q0 -53 30 -84t81 -31q46 0 89 15.5t63 30.5l19 16v157h-44q-49 0 -84.5 -3t-74 -13t-59 -32t-20.5 -56z" />
<glyph unicode="&#xab;" horiz-adv-x="1366" d="M158 581l378 479l95 -84l-276 -395l278 -396l-97 -86zM673 581l377 479l95 -84l-274 -395l277 -396l-98 -86z" />
<glyph unicode="&#xac;" horiz-adv-x="1366" d="M166 713v127h1018v-562h-139v435h-879z" />
<glyph unicode="&#xad;" horiz-adv-x="1389" />
<glyph unicode="&#xae;" horiz-adv-x="1024" d="M117 1250q0 183 112.5 284.5t283.5 101.5q169 0 281 -101.5t112 -284.5q0 -124 -54 -215t-141.5 -134.5t-197.5 -43.5q-171 0 -283.5 103.5t-112.5 289.5zM189 1250q0 -158 91 -243.5t233 -85.5q139 0 230 86t91 243q0 153 -91 237.5t-230 84.5q-142 0 -233 -84.5 t-91 -237.5zM360 1020v455h171q148 0 153 -137q0 -49 -28.5 -84t-71.5 -48q19 -52 54.5 -93t55.5 -44l-35 -51q-83 45 -139 181h-93v-179h-67zM427 1259h95q46 2 69.5 19.5t23.5 59.5q-2 38 -22 57t-62 19h-104v-155z" />
<glyph unicode="&#xaf;" horiz-adv-x="645" d="M7 1372v137h631v-137h-631z" />
<glyph unicode="&#xb0;" horiz-adv-x="853" d="M118 1445q0 150 85.5 228.5t219.5 78.5q141 0 226 -78t85 -229q0 -152 -84.5 -229t-226.5 -77q-135 0 -220 78t-85 228zM244 1445q0 -94 49.5 -142t129.5 -48q85 0 135.5 47.5t50.5 142.5q0 93 -51 142.5t-135 49.5q-79 0 -129 -49.5t-50 -142.5z" />
<glyph unicode="&#xb1;" d="M136 706v117h398v398h126v-398h399v-117h-399v-368h388v-120h-901v120h387v368h-398z" />
<glyph unicode="&#xb2;" d="M272 1417q50 79 133 118t180 41q168 3 265.5 -81.5t97.5 -260.5q0 -136 -121.5 -278t-285.5 -228h456l-9 -142h-677l-24 111q47 37 118 88q58 41 102 75t101 84.5t94 94.5t63 96t26 99q0 200 -211 200q-62 0 -126.5 -38t-104.5 -101z" />
<glyph unicode="&#xb3;" d="M283 597l48 143q106 -69 192 -69q128 0 198 46t70 123q0 80 -71 123t-177 43h-56v123h53q77 0 146.5 44.5t69.5 115.5q0 148 -173 148q-139 0 -216 -57l-66 117q52 35 125 56t132 21q77 0 137 -12.5t111 -42.5t78.5 -86t27.5 -137q0 -65 -35.5 -125.5t-100.5 -95.5 q74 -25 122.5 -86.5t48.5 -152.5q0 -140 -113 -220t-309 -80q-149 0 -242 61z" />
<glyph unicode="&#xb4;" horiz-adv-x="512" d="M7 1398l379 366l113 -123l-400 -345z" />
<glyph unicode="&#xb6;" d="M166 1109q2 118 37.5 205t98.5 137.5t143 78t177.5 29t195 -11.5t202.5 -41v-1661h-132v1553q-8 2 -20.5 5t-46.5 7.5t-60 3.5v-1569h-133v840q-231 -1 -344.5 103.5t-117.5 320.5z" />
<glyph unicode="&#xb7;" horiz-adv-x="682" d="M245 764v208h192v-208h-192z" />
<glyph unicode="&#xb8;" horiz-adv-x="455" d="M7 -490l21 99q35 -9 62.5 -14.5t63 -6.5t60.5 6.5t45.5 28.5t27.5 55q7 41 -4 68.5t-38.5 41t-56 18.5t-68.5 6l8 117q143 7 235 -55t83 -186q-5 -77 -52 -130t-112.5 -72.5t-139.5 -14.5t-135 36v3z" />
<glyph unicode="&#xb9;" horiz-adv-x="1026" d="M316 1387l3 143h361l3 -1020h-156l-3 686q0 113 4 191h-212z" />
<glyph unicode="&#xba;" horiz-adv-x="853" d="M84 1190q0 177 94 280.5t246 103.5q154 0 249.5 -103.5t95.5 -280.5q0 -174 -95.5 -276t-249.5 -102q-151 0 -245.5 102t-94.5 276zM217 1190q0 -122 56 -195t151 -73q97 0 153.5 73t56.5 195q0 125 -56.5 199.5t-153.5 74.5q-95 0 -151 -74.5t-56 -199.5z" />
<glyph unicode="&#xbb;" horiz-adv-x="1366" d="M218 185l277 396l-274 395l95 84l377 -479l-377 -482zM733 185l278 396l-276 395l95 84l378 -479l-378 -482z" />
<glyph unicode="&#xbc;" horiz-adv-x="1880" d="M143 1557l3 143h361l3 -1020h-156l-3 686q0 113 4 191h-212zM350 0l980 1644l130 -75l-980 -1625zM969 259l409 591h213v-609h184l-24 -139h-160v-272h-151v272h-454zM1145 241h295v443z" />
<glyph unicode="&#xbd;" horiz-adv-x="1880" d="M143 1557l3 143h361l3 -1020h-156l-3 686q0 113 4 191h-212zM350 0l980 1644l130 -75l-980 -1625zM1101 663q50 79 133 118t180 41q168 3 265.5 -81.5t97.5 -260.5q0 -136 -121.5 -278t-285.5 -228h456l-9 -142h-677l-24 111q47 37 118 88q58 41 102 75t101 84.5t94 94.5 t63 96t26 99q0 200 -211 200q-62 0 -126.5 -38t-104.5 -101z" />
<glyph unicode="&#xbe;" horiz-adv-x="1880" d="M43 736l48 143q106 -69 192 -69q128 0 198 46t70 123q0 80 -71 123t-177 43h-56v123h53q77 0 146.5 44.5t69.5 115.5q0 148 -173 148q-139 0 -216 -57l-66 117q52 35 125 56t132 21q77 0 137 -12.5t111 -42.5t78.5 -86t27.5 -137q0 -65 -35.5 -125.5t-100.5 -95.5 q74 -25 122.5 -86.5t48.5 -152.5q0 -140 -113 -220t-309 -80q-149 0 -242 61zM350 0l980 1644l130 -75l-980 -1625zM969 259l409 591h213v-609h184l-24 -139h-160v-272h-151v272h-454zM1145 241h295v443z" />
<glyph unicode="&#xbf;" d="M171 143q0 60 11.5 110.5t40.5 100.5t51 80t70 89q9 11 13 16q44 52 65 78.5t58 79.5t55.5 93.5t34.5 98t19 115.5h183q-24 -265 -239 -509q-4 -4 -29.5 -33.5t-30.5 -36t-26.5 -32.5t-27.5 -36t-21.5 -34t-20.5 -38.5t-13.5 -36.5t-11 -42t-2.5 -42q0 -102 80.5 -151.5 t215.5 -49.5q142 0 320 94l58 -152q-182 -96 -380 -100q-102 -1 -184.5 17.5t-147.5 57.5t-102 106t-39 157zM575 1189v204h206v-204h-206z" />
<glyph unicode="&#xc0;" horiz-adv-x="1537" d="M44 0l613 1554h222l613 -1554h-198l-161 431h-731l-159 -431h-199zM448 1897l113 123l320 -303l-93 -102zM461 574h614l-73 197q-98 248 -143 380q-15 42 -44 133t-47 142q-16 -48 -46 -140t-44 -135q-54 -150 -144 -380z" />
<glyph unicode="&#xc1;" horiz-adv-x="1537" d="M44 0l613 1554h222l613 -1554h-198l-161 431h-731l-159 -431h-199zM461 574h614l-73 197q-98 248 -143 380q-15 42 -44 133t-47 142q-16 -48 -46 -140t-44 -135q-54 -150 -144 -380zM695 1717l320 303l113 -123l-340 -282z" />
<glyph unicode="&#xc2;" horiz-adv-x="1537" d="M44 0l613 1554h222l613 -1554h-198l-161 431h-731l-159 -431h-199zM407 1728l363 212l363 -212l-57 -113l-306 161l-306 -161zM461 574h614l-73 197q-98 248 -143 380q-15 42 -44 133t-47 142q-16 -48 -46 -140t-44 -135q-54 -150 -144 -380z" />
<glyph unicode="&#xc3;" horiz-adv-x="1537" d="M44 0l613 1554h222l613 -1554h-198l-161 431h-731l-159 -431h-199zM408 1769q34 79 91.5 128.5t121.5 56.5q39 4 81.5 -12t72.5 -37.5t67 -41.5t66 -22t61.5 23.5t56.5 74.5l104 -61q-35 -80 -92 -128.5t-121 -49.5q-49 -2 -102.5 26.5t-102 57.5t-84.5 29 q-29 0 -60.5 -27.5t-55.5 -76.5zM461 574h614l-73 197q-98 248 -143 380q-15 42 -44 133t-47 142q-16 -48 -46 -140t-44 -135q-54 -150 -144 -380z" />
<glyph unicode="&#xc4;" horiz-adv-x="1537" d="M44 0l613 1554h222l613 -1554h-198l-161 431h-731l-159 -431h-199zM461 574h614l-73 197q-98 248 -143 380q-15 42 -44 133t-47 142q-16 -48 -46 -140t-44 -135q-54 -150 -144 -380zM487 1698v228h176v-228h-176zM874 1698v228h177v-228h-177z" />
<glyph unicode="&#xc5;" horiz-adv-x="1537" d="M44 0l613 1554h222l613 -1554h-198l-161 431h-731l-159 -431h-199zM461 574h614l-73 197q-98 248 -143 380q-15 42 -44 133t-47 142q-16 -48 -46 -140t-44 -135q-54 -150 -144 -380zM526 1801q0 100 70 159.5t171 59.5t171 -59.5t70 -159.5q0 -98 -69.5 -155t-171.5 -57 t-171.5 57t-69.5 155zM650 1801q0 -59 32 -89t85 -30q54 0 86.5 30t32.5 89q0 60 -33 93t-86 33q-52 0 -84.5 -33t-32.5 -93z" />
<glyph unicode="&#xc6;" horiz-adv-x="2048" d="M63 0l614 1554h1288l-9 -160h-995l204 -520h705v-158h-645l227 -557h523l9 -159h-671l-159 431h-733l-159 -431h-199zM478 574h614l-73 197q-98 248 -143 380q-15 42 -44 133t-47 142q-16 -48 -46 -140t-44 -135q-54 -150 -144 -380z" />
<glyph unicode="&#xc7;" horiz-adv-x="1366" d="M115 774q0 180 40 321t125.5 249t230.5 166t343 58q214 0 440 -91l-53 -148q-206 82 -384 82q-287 0 -413 -136q-144 -155 -150 -501q5 -317 138.5 -476t424.5 -159q198 0 423 93l53 -151q-110 -47 -240 -74t-239 -27q-739 0 -739 794zM504 -490l21 99q35 -9 62.5 -14.5 t63 -6.5t60.5 6.5t45.5 28.5t27.5 55q7 41 -4 68.5t-38.5 41t-56 18.5t-68.5 6l8 117q143 7 235 -55t83 -186q-5 -77 -52 -130t-112.5 -72.5t-139.5 -14.5t-135 36v3z" />
<glyph unicode="&#xc8;" d="M220 0v1554h887l-9 -160h-705v-520h631v-158h-631v-557h724l9 -159h-906zM363 1897l113 123l320 -303l-93 -102z" />
<glyph unicode="&#xc9;" d="M220 0v1554h887l-9 -160h-705v-520h631v-158h-631v-557h724l9 -159h-906zM610 1717l320 303l113 -123l-340 -282z" />
<glyph unicode="&#xca;" d="M220 0v1554h887l-9 -160h-705v-520h631v-158h-631v-557h724l9 -159h-906zM322 1728l363 212l363 -212l-57 -113l-306 161l-306 -161z" />
<glyph unicode="&#xcb;" d="M220 0v1554h887l-9 -160h-705v-520h631v-158h-631v-557h724l9 -159h-906zM402 1698v228h176v-228h-176zM789 1698v228h177v-228h-177z" />
<glyph unicode="&#xcc;" horiz-adv-x="513" d="M-64 1897l113 123l320 -303l-93 -102zM170 0v1554h173v-1554h-173z" />
<glyph unicode="&#xcd;" horiz-adv-x="513" d="M170 0v1554h173v-1554h-173zM183 1717l320 303l113 -123l-340 -282z" />
<glyph unicode="&#xce;" horiz-adv-x="513" d="M-105 1728l363 212l363 -212l-57 -113l-306 161l-306 -161zM170 0v1554h173v-1554h-173z" />
<glyph unicode="&#xcf;" horiz-adv-x="513" d="M-25 1698v228h176v-228h-176zM170 0v1554h173v-1554h-173zM362 1698v228h177v-228h-177z" />
<glyph unicode="&#xd0;" horiz-adv-x="1541" d="M26 733v153h194v668h482q160 0 284 -35.5t207.5 -100.5t137 -162.5t77 -215t23.5 -264.5v-41q0 -350 -191.5 -542.5t-545.5 -192.5h-474v733h-194zM393 157h301q270 0 414 155.5t144 422.5v41q-5 318 -134.5 469t-419.5 151h-305v-510h408v-153h-408v-576z" />
<glyph unicode="&#xd1;" horiz-adv-x="1536" d="M165 0v1554h257l653 -1147l122 -244v1391h173v-1554h-254l-658 1153l-120 237v-1390h-173zM407 1769q34 79 91.5 128.5t121.5 56.5q39 4 81.5 -12t72.5 -37.5t67 -41.5t66 -22t61.5 23.5t56.5 74.5l104 -61q-35 -80 -92 -128.5t-121 -49.5q-49 -2 -102.5 26.5t-102 57.5 t-84.5 29q-29 0 -60.5 -27.5t-55.5 -76.5z" />
<glyph unicode="&#xd2;" horiz-adv-x="1708" d="M134 770q0 185 54 336t150.5 252t230.5 155.5t295 54.5q345 0 527 -208.5t182 -589.5q0 -185 -53.5 -334.5t-150 -249t-231.5 -153t-296 -53.5q-330 0 -519 208.5t-189 581.5zM312 770q-1 -311 142.5 -474t401.5 -159q254 3 399 168t141 465q-4 322 -141 481.5 t-413 159.5q-249 0 -388.5 -168.5t-141.5 -472.5zM534 1897l113 123l320 -303l-93 -102z" />
<glyph unicode="&#xd3;" horiz-adv-x="1708" d="M134 770q0 185 54 336t150.5 252t230.5 155.5t295 54.5q345 0 527 -208.5t182 -589.5q0 -185 -53.5 -334.5t-150 -249t-231.5 -153t-296 -53.5q-330 0 -519 208.5t-189 581.5zM312 770q-1 -311 142.5 -474t401.5 -159q254 3 399 168t141 465q-4 322 -141 481.5 t-413 159.5q-249 0 -388.5 -168.5t-141.5 -472.5zM781 1717l320 303l113 -123l-340 -282z" />
<glyph unicode="&#xd4;" horiz-adv-x="1708" d="M134 770q0 185 54 336t150.5 252t230.5 155.5t295 54.5q345 0 527 -208.5t182 -589.5q0 -185 -53.5 -334.5t-150 -249t-231.5 -153t-296 -53.5q-330 0 -519 208.5t-189 581.5zM312 770q-1 -311 142.5 -474t401.5 -159q254 3 399 168t141 465q-4 322 -141 481.5 t-413 159.5q-249 0 -388.5 -168.5t-141.5 -472.5zM493 1728l363 212l363 -212l-57 -113l-306 161l-306 -161z" />
<glyph unicode="&#xd5;" horiz-adv-x="1708" d="M134 770q0 185 54 336t150.5 252t230.5 155.5t295 54.5q345 0 527 -208.5t182 -589.5q0 -185 -53.5 -334.5t-150 -249t-231.5 -153t-296 -53.5q-330 0 -519 208.5t-189 581.5zM312 770q-1 -311 142.5 -474t401.5 -159q254 3 399 168t141 465q-4 322 -141 481.5 t-413 159.5q-249 0 -388.5 -168.5t-141.5 -472.5zM494 1769q34 79 91.5 128.5t121.5 56.5q39 4 81.5 -12t72.5 -37.5t67 -41.5t66 -22t61.5 23.5t56.5 74.5l104 -61q-35 -80 -92 -128.5t-121 -49.5q-49 -2 -102.5 26.5t-102 57.5t-84.5 29q-29 0 -60.5 -27.5t-55.5 -76.5z " />
<glyph unicode="&#xd6;" horiz-adv-x="1708" d="M134 770q0 185 54 336t150.5 252t230.5 155.5t295 54.5q345 0 527 -208.5t182 -589.5q0 -185 -53.5 -334.5t-150 -249t-231.5 -153t-296 -53.5q-330 0 -519 208.5t-189 581.5zM312 770q-1 -311 142.5 -474t401.5 -159q254 3 399 168t141 465q-4 322 -141 481.5 t-413 159.5q-249 0 -388.5 -168.5t-141.5 -472.5zM573 1698v228h176v-228h-176zM960 1698v228h177v-228h-177z" />
<glyph unicode="&#xd7;" d="M203 354q62 72 203 223t157 168l-360 392l104 97l340 -392l341 392l105 -97l-360 -392q35 -38 167.5 -180t192.5 -211l-105 -97l-341 393l-340 -393z" />
<glyph unicode="&#xd8;" horiz-adv-x="1708" d="M134 770q0 185 54 336t150.5 252t230.5 155.5t295 54.5q108 0 201 -21l74 187l140 -56l-72 -180q180 -86 273 -272t93 -456q0 -185 -53.5 -334.5t-150 -249t-231.5 -153t-296 -53.5q-121 0 -225 29l-49 -122l-140 56l49 123q-165 92 -254 271.5t-89 432.5zM312 770 q-1 -196 57.5 -334.5t169.5 -214.5l465 1174q-74 16 -162 16q-249 0 -388.5 -168.5t-141.5 -472.5zM676 159q82 -23 180 -22q254 3 399 168t141 465q-5 432 -251 572z" />
<glyph unicode="&#xd9;" horiz-adv-x="1537" d="M196 696v858h173v-858q0 -67 1.5 -109t9.5 -107.5t23 -107t44 -90.5t70.5 -77t105.5 -47t145 -19q63 0 116 11.5t91.5 30t69 49t50 60.5t34 73.5t21.5 78.5t11 85.5t5 84t1 84.5v858h174v-858q0 -64 -1.5 -110t-7.5 -110t-17 -110t-32 -101t-49.5 -93.5t-72.5 -77 t-99 -62t-129.5 -38t-164.5 -14.5q-115 0 -206 24t-150 60t-101.5 97.5t-64 116t-33.5 137t-14.5 139t-2.5 142.5zM448 1897l113 123l320 -303l-93 -102z" />
<glyph unicode="&#xda;" horiz-adv-x="1537" d="M196 696v858h173v-858q0 -67 1.5 -109t9.5 -107.5t23 -107t44 -90.5t70.5 -77t105.5 -47t145 -19q63 0 116 11.5t91.5 30t69 49t50 60.5t34 73.5t21.5 78.5t11 85.5t5 84t1 84.5v858h174v-858q0 -64 -1.5 -110t-7.5 -110t-17 -110t-32 -101t-49.5 -93.5t-72.5 -77 t-99 -62t-129.5 -38t-164.5 -14.5q-115 0 -206 24t-150 60t-101.5 97.5t-64 116t-33.5 137t-14.5 139t-2.5 142.5zM695 1717l320 303l113 -123l-340 -282z" />
<glyph unicode="&#xdb;" horiz-adv-x="1537" d="M196 696v858h173v-858q0 -67 1.5 -109t9.5 -107.5t23 -107t44 -90.5t70.5 -77t105.5 -47t145 -19q63 0 116 11.5t91.5 30t69 49t50 60.5t34 73.5t21.5 78.5t11 85.5t5 84t1 84.5v858h174v-858q0 -64 -1.5 -110t-7.5 -110t-17 -110t-32 -101t-49.5 -93.5t-72.5 -77 t-99 -62t-129.5 -38t-164.5 -14.5q-115 0 -206 24t-150 60t-101.5 97.5t-64 116t-33.5 137t-14.5 139t-2.5 142.5zM407 1728l363 212l363 -212l-57 -113l-306 161l-306 -161z" />
<glyph unicode="&#xdc;" horiz-adv-x="1537" d="M196 696v858h173v-858q0 -67 1.5 -109t9.5 -107.5t23 -107t44 -90.5t70.5 -77t105.5 -47t145 -19q63 0 116 11.5t91.5 30t69 49t50 60.5t34 73.5t21.5 78.5t11 85.5t5 84t1 84.5v858h174v-858q0 -64 -1.5 -110t-7.5 -110t-17 -110t-32 -101t-49.5 -93.5t-72.5 -77 t-99 -62t-129.5 -38t-164.5 -14.5q-115 0 -206 24t-150 60t-101.5 97.5t-64 116t-33.5 137t-14.5 139t-2.5 142.5zM487 1698v228h176v-228h-176zM874 1698v228h177v-228h-177z" />
<glyph unicode="&#xdd;" d="M-20 1554h204l414 -823l414 823h204l-532 -987v-567h-174v567q-92 158 -267.5 497.5t-262.5 489.5zM525 1717l320 303l113 -123l-340 -282z" />
<glyph unicode="&#xde;" horiz-adv-x="1363" d="M208 0v1554h173v-262h280q163 1 278 -33.5t182.5 -104t98 -162.5t31.5 -219q-11 -506 -579 -500h-181v151h181q394 -4 402 349q-2 185 -98.5 276t-314.5 90h-280v-1139h-173z" />
<glyph unicode="&#xdf;" d="M192 1212q-1 52 1 88.5t9 84t21 80t39.5 67t61.5 55t90.5 34t123.5 13.5q110 0 191.5 -58t112.5 -154.5t1 -204.5q-7 -25 -51 -110t-44 -137q0 -20 6.5 -39t13.5 -32.5t25 -33t27.5 -28t35.5 -31t34 -29.5q21 -18 62 -50t64 -51t54 -53t47.5 -65.5t29 -78.5t12.5 -102 q0 -190 -114.5 -293.5t-296.5 -103.5q-97 0 -253 27l12 148q165 -32 252 -30q98 2 160 69t62 183q0 46 -11 83t-35 67.5t-45 50t-59.5 50.5t-59.5 50q-35 30 -52.5 45.5t-44 42.5t-39 46t-27 47.5t-18 55t-2.5 61.5t11 73q6 19 44.5 105.5t44.5 148.5q5 44 -3.5 78.5t-24 54 t-38.5 32t-43 16.5t-41 4q-46 0 -78 -13t-51 -34.5t-29 -59.5t-13 -76.5t-3 -96.5q0 -1162 11 -1208h-178q-5 71 -5 1212z" />
<glyph unicode="&#xe0;" d="M108 310q0 69 28.5 122.5t79 86.5t110 51t129.5 24q130 14 313 17v180q0 60 -1.5 89t-12.5 63.5t-33 52.5q-40 31 -178 27q-150 -7 -303 -51l-28 148q173 51 344 51q167 0 256 -44q69 -36 95.5 -112t28.5 -218v-538v-17q0 -37 0.5 -54.5t4.5 -36.5t12 -28q12 -14 36 -15 t61 7l11 -124q-34 -11 -90 -11q-77 0 -124 40t-61 103q-19 -27 -55 -56.5t-106.5 -57.5t-148.5 -29q-149 -2 -258.5 89.5t-109.5 240.5zM279 318q0 -87 58.5 -141t149.5 -54q80 -2 156 26.5t125 84.5v132l4 131q-164 0 -291 -18q-105 -14 -153.5 -50t-48.5 -111zM307 1641 l113 123l379 -366l-92 -102z" />
<glyph unicode="&#xe1;" d="M108 310q0 69 28.5 122.5t79 86.5t110 51t129.5 24q130 14 313 17v180q0 60 -1.5 89t-12.5 63.5t-33 52.5q-40 31 -178 27q-150 -7 -303 -51l-28 148q173 51 344 51q167 0 256 -44q69 -36 95.5 -112t28.5 -218v-538v-17q0 -37 0.5 -54.5t4.5 -36.5t12 -28q12 -14 36 -15 t61 7l11 -124q-34 -11 -90 -11q-77 0 -124 40t-61 103q-19 -27 -55 -56.5t-106.5 -57.5t-148.5 -29q-149 -2 -258.5 89.5t-109.5 240.5zM279 318q0 -87 58.5 -141t149.5 -54q80 -2 156 26.5t125 84.5v132l4 131q-164 0 -291 -18q-105 -14 -153.5 -50t-48.5 -111zM307 1398 l379 366l113 -123l-400 -345z" />
<glyph unicode="&#xe2;" d="M108 310q0 69 28.5 122.5t79 86.5t110 51t129.5 24q130 14 313 17v180q0 60 -1.5 89t-12.5 63.5t-33 52.5q-40 31 -178 27q-150 -7 -303 -51l-28 148q173 51 344 51q167 0 256 -44q69 -36 95.5 -112t28.5 -218v-538v-17q0 -37 0.5 -54.5t4.5 -36.5t12 -28q12 -14 36 -15 t61 7l11 -124q-34 -11 -90 -11q-77 0 -124 40t-61 103q-19 -27 -55 -56.5t-106.5 -57.5t-148.5 -29q-149 -2 -258.5 89.5t-109.5 240.5zM161 1405l393 313l391 -313l-82 -107l-309 237l-307 -239zM279 318q0 -87 58.5 -141t149.5 -54q80 -2 156 26.5t125 84.5v132l4 131 q-164 0 -291 -18q-105 -14 -153.5 -50t-48.5 -111z" />
<glyph unicode="&#xe3;" d="M108 310q0 69 28.5 122.5t79 86.5t110 51t129.5 24q130 14 313 17v180q0 60 -1.5 89t-12.5 63.5t-33 52.5q-40 31 -178 27q-150 -7 -303 -51l-28 148q173 51 344 51q167 0 256 -44q69 -36 95.5 -112t28.5 -218v-538v-17q0 -37 0.5 -54.5t4.5 -36.5t12 -28q12 -14 36 -15 t61 7l11 -124q-34 -11 -90 -11q-77 0 -124 40t-61 103q-19 -27 -55 -56.5t-106.5 -57.5t-148.5 -29q-149 -2 -258.5 89.5t-109.5 240.5zM193 1400q34 79 91 128.5t122 56.5q39 4 81.5 -12t72.5 -37.5t67 -41.5t66 -22t61.5 23.5t56.5 74.5l104 -61q-35 -80 -92 -128.5 t-121 -49.5q-49 -2 -102.5 26.5t-102 57.5t-84.5 29q-29 0 -60.5 -27.5t-55.5 -76.5zM279 318q0 -87 58.5 -141t149.5 -54q80 -2 156 26.5t125 84.5v132l4 131q-164 0 -291 -18q-105 -14 -153.5 -50t-48.5 -111z" />
<glyph unicode="&#xe4;" d="M108 310q0 69 28.5 122.5t79 86.5t110 51t129.5 24q130 14 313 17v180q0 60 -1.5 89t-12.5 63.5t-33 52.5q-40 31 -178 27q-150 -7 -303 -51l-28 148q173 51 344 51q167 0 256 -44q69 -36 95.5 -112t28.5 -218v-538v-17q0 -37 0.5 -54.5t4.5 -36.5t12 -28q12 -14 36 -15 t61 7l11 -124q-34 -11 -90 -11q-77 0 -124 40t-61 103q-19 -27 -55 -56.5t-106.5 -57.5t-148.5 -29q-149 -2 -258.5 89.5t-109.5 240.5zM270 1363v222h178v-222h-178zM279 318q0 -87 58.5 -141t149.5 -54q80 -2 156 26.5t125 84.5v132l4 131q-164 0 -291 -18 q-105 -14 -153.5 -50t-48.5 -111zM658 1363v222h179v-222h-179z" />
<glyph unicode="&#xe5;" d="M108 310q0 69 28.5 122.5t79 86.5t110 51t129.5 24q130 14 313 17v180q0 60 -1.5 89t-12.5 63.5t-33 52.5q-40 31 -178 27q-150 -7 -303 -51l-28 148q173 51 344 51q167 0 256 -44q69 -36 95.5 -112t28.5 -218v-538v-17q0 -37 0.5 -54.5t4.5 -36.5t12 -28q12 -14 36 -15 t61 7l11 -124q-34 -11 -90 -11q-77 0 -124 40t-61 103q-19 -27 -55 -56.5t-106.5 -57.5t-148.5 -29q-149 -2 -258.5 89.5t-109.5 240.5zM279 318q0 -87 58.5 -141t149.5 -54q80 -2 156 26.5t125 84.5v132l4 131q-164 0 -291 -18q-105 -14 -153.5 -50t-48.5 -111zM303 1553 q0 107 71 168t179 61t179 -61t71 -168q0 -106 -71 -166t-179 -60t-179 60t-71 166zM428 1553q0 -60 35 -96.5t90 -36.5t90 36.5t35 96.5t-35 97t-90 37t-90 -37t-35 -97z" />
<glyph unicode="&#xe6;" horiz-adv-x="1708" d="M58 320q3 330 611 330h49v141q0 121 -50 177.5t-164 56.5q-152 0 -344 -71l-34 141q192 76 372 76q58 0 100.5 -5t84.5 -20t71.5 -41t53 -68t36.5 -100q31 81 89 135t125 76.5t144 22.5q103 0 182 -33t128.5 -89.5t81 -139.5t44 -173.5t12.5 -201.5h-764q5 -79 28 -149 t65 -129t110.5 -93.5t156.5 -34.5q127 0 272 55l33 -148q-143 -55 -305 -55q-128 0 -239.5 47.5t-182.5 148.5q-63 -54 -95.5 -79.5t-84 -57.5t-101.5 -45t-110 -14q-180 -2 -278.5 94.5t-96.5 245.5zM236 318q0 -92 52 -142.5t145 -50.5q89 0 169 38.5t171 109.5 q-42 104 -48 250h-82q-407 0 -407 -205zM891 669h578q-5 80 -20.5 141t-45 111.5t-80.5 77.5t-121 28q-127 0 -211 -102t-100 -256z" />
<glyph unicode="&#xe7;" horiz-adv-x="1024" d="M110 576q0 309 138.5 457.5t408.5 137.5q150 -6 270 -56l-38 -148q-103 47 -239 56q-175 11 -268 -95.5t-93 -351.5q0 -99 19.5 -177.5t52 -128.5t78.5 -82.5t95.5 -46t105.5 -13.5q154 0 294 55l26 -148q-141 -55 -320 -55q-248 0 -389 146t-141 450zM410 -490l21 99 q35 -9 62.5 -14.5t63 -6.5t60.5 6.5t45.5 28.5t27.5 55q7 41 -4 68.5t-38.5 41t-56 18.5t-68.5 6l8 117q143 7 235 -55t83 -186q-5 -77 -52 -130t-112.5 -72.5t-139.5 -14.5t-135 36v3z" />
<glyph unicode="&#xe8;" d="M121 581q0 285 125 436.5t366 153.5q119 0 207.5 -47t140.5 -133t75.5 -200.5t20.5 -256.5h-759q11 -217 103.5 -311.5t250.5 -94.5q128 0 273 55l33 -148q-143 -55 -306 -55q-288 0 -421 182q-109 147 -109 419zM297 669h579q-5 66 -13.5 116t-28 99t-47.5 80 t-73.5 48.5t-105.5 14.5q-110 -3 -181 -55q-127 -93 -130 -303zM367 1641l113 123l379 -366l-92 -102z" />
<glyph unicode="&#xe9;" d="M121 581q0 285 125 436.5t366 153.5q119 0 207.5 -47t140.5 -133t75.5 -200.5t20.5 -256.5h-759q11 -217 103.5 -311.5t250.5 -94.5q128 0 273 55l33 -148q-143 -55 -306 -55q-288 0 -421 182q-109 147 -109 419zM297 669h579q-5 66 -13.5 116t-28 99t-47.5 80 t-73.5 48.5t-105.5 14.5q-110 -3 -181 -55q-127 -93 -130 -303zM367 1398l379 366l113 -123l-400 -345z" />
<glyph unicode="&#xea;" d="M121 581q0 285 125 436.5t366 153.5q119 0 207.5 -47t140.5 -133t75.5 -200.5t20.5 -256.5h-759q11 -217 103.5 -311.5t250.5 -94.5q128 0 273 55l33 -148q-143 -55 -306 -55q-288 0 -421 182q-109 147 -109 419zM221 1405l393 313l391 -313l-82 -107l-309 237l-307 -239 zM297 669h579q-5 66 -13.5 116t-28 99t-47.5 80t-73.5 48.5t-105.5 14.5q-110 -3 -181 -55q-127 -93 -130 -303z" />
<glyph unicode="&#xeb;" d="M121 581q0 285 125 436.5t366 153.5q119 0 207.5 -47t140.5 -133t75.5 -200.5t20.5 -256.5h-759q11 -217 103.5 -311.5t250.5 -94.5q128 0 273 55l33 -148q-143 -55 -306 -55q-288 0 -421 182q-109 147 -109 419zM297 669h579q-5 66 -13.5 116t-28 99t-47.5 80 t-73.5 48.5t-105.5 14.5q-110 -3 -181 -55q-127 -93 -130 -303zM330 1363v222h178v-222h-178zM718 1363v222h179v-222h-179z" />
<glyph unicode="&#xec;" horiz-adv-x="684" d="M96 1641l113 123l379 -366l-92 -102zM257 0v1157h170v-1157h-170z" />
<glyph unicode="&#xed;" horiz-adv-x="684" d="M96 1398l379 366l113 -123l-400 -345zM257 0v1157h170v-1157h-170z" />
<glyph unicode="&#xee;" horiz-adv-x="684" d="M-50 1405l393 313l391 -313l-82 -107l-309 237l-307 -239zM257 0v1157h170v-1157h-170z" />
<glyph unicode="&#xef;" horiz-adv-x="684" d="M59 1363v222h178v-222h-178zM257 0v1157h170v-1157h-170zM447 1363v222h179v-222h-179z" />
<glyph unicode="&#xf0;" d="M99 519q-1 113 27.5 210t85 173.5t150.5 120.5t216 44q166 0 285 -88q-68 183 -199 301l-296 -123l-47 101l241 107q-99 62 -225 95l40 141q204 -45 362 -168l238 104l46 -102l-195 -84q231 -245 267 -662q7 -62 4.5 -125.5t-9.5 -125t-27 -119.5t-46.5 -109t-68 -93 t-92.5 -72.5t-120 -47.5t-149 -17q-118 0 -211.5 42t-153 115.5t-91 170.5t-32.5 211zM273 519q4 -177 84.5 -286t229.5 -109q73 0 131 22t96.5 60t64.5 91t38 112.5t15 128t-3 133.5t-18 132q-73 71 -150.5 102.5t-189.5 29.5q-82 -3 -142.5 -38t-94 -94.5t-48.5 -130.5 t-13 -153z" />
<glyph unicode="&#xf1;" horiz-adv-x="1365" d="M194 1157l172 9q-2 -37 -2 -155q237 160 404 160q190 0 281.5 -87.5t96.5 -277.5v-806h-172v745q0 154 -44.5 214.5t-154.5 60.5q-101 0 -193.5 -32t-208.5 -100q4 -161 4 -245v-643h-171q4 1105 -12 1157zM310 1400q34 79 91 128.5t122 56.5q39 4 81.5 -12t72.5 -37.5 t67 -41.5t66 -22t61.5 23.5t56.5 74.5l104 -61q-35 -80 -92 -128.5t-121 -49.5q-49 -2 -102.5 26.5t-102 57.5t-84.5 29q-29 0 -60.5 -27.5t-55.5 -76.5z" />
<glyph unicode="&#xf2;" horiz-adv-x="1363" d="M164 560q0 289 146 450t380 161q251 0 380 -154t129 -443q0 -146 -41 -261t-113 -186.5t-166 -109t-203 -37.5q-239 0 -375.5 151t-136.5 429zM343 565q2 -214 86.5 -327t248.5 -113q338 0 338 449q-3 222 -83 336.5t-252 114.5q-164 0 -253 -119.5t-85 -340.5zM436 1641 l113 123l379 -366l-92 -102z" />
<glyph unicode="&#xf3;" horiz-adv-x="1363" d="M164 560q0 289 146 450t380 161q251 0 380 -154t129 -443q0 -146 -41 -261t-113 -186.5t-166 -109t-203 -37.5q-239 0 -375.5 151t-136.5 429zM343 565q2 -214 86.5 -327t248.5 -113q338 0 338 449q-3 222 -83 336.5t-252 114.5q-164 0 -253 -119.5t-85 -340.5zM436 1398 l379 366l113 -123l-400 -345z" />
<glyph unicode="&#xf4;" horiz-adv-x="1363" d="M164 560q0 289 146 450t380 161q251 0 380 -154t129 -443q0 -146 -41 -261t-113 -186.5t-166 -109t-203 -37.5q-239 0 -375.5 151t-136.5 429zM290 1405l393 313l391 -313l-82 -107l-309 237l-307 -239zM343 565q2 -214 86.5 -327t248.5 -113q338 0 338 449 q-3 222 -83 336.5t-252 114.5q-164 0 -253 -119.5t-85 -340.5z" />
<glyph unicode="&#xf5;" horiz-adv-x="1363" d="M164 560q0 289 146 450t380 161q251 0 380 -154t129 -443q0 -146 -41 -261t-113 -186.5t-166 -109t-203 -37.5q-239 0 -375.5 151t-136.5 429zM322 1400q34 79 91 128.5t122 56.5q39 4 81.5 -12t72.5 -37.5t67 -41.5t66 -22t61.5 23.5t56.5 74.5l104 -61 q-35 -80 -92 -128.5t-121 -49.5q-49 -2 -102.5 26.5t-102 57.5t-84.5 29q-29 0 -60.5 -27.5t-55.5 -76.5zM343 565q2 -214 86.5 -327t248.5 -113q338 0 338 449q-3 222 -83 336.5t-252 114.5q-164 0 -253 -119.5t-85 -340.5z" />
<glyph unicode="&#xf6;" horiz-adv-x="1363" d="M164 560q0 289 146 450t380 161q251 0 380 -154t129 -443q0 -146 -41 -261t-113 -186.5t-166 -109t-203 -37.5q-239 0 -375.5 151t-136.5 429zM343 565q2 -214 86.5 -327t248.5 -113q338 0 338 449q-3 222 -83 336.5t-252 114.5q-164 0 -253 -119.5t-85 -340.5zM399 1363 v222h178v-222h-178zM787 1363v222h179v-222h-179z" />
<glyph unicode="&#xf7;" d="M162 534v119h872v-119h-872zM506 148v183h188v-183h-188zM506 857v183h188v-183h-188z" />
<glyph unicode="&#xf8;" horiz-adv-x="1363" d="M137 -35l146 187q-119 150 -119 408q0 289 146 450t380 161q192 0 315 -93l127 163l97 -75l-138 -177q108 -150 108 -415q0 -146 -41 -261t-113 -186.5t-166 -109t-203 -37.5q-183 0 -305 87l-137 -175zM343 565q0 -165 51 -270l509 652q-81 78 -218 78q-160 0 -251 -120 t-91 -340zM470 194q81 -69 206 -69q161 0 250 110.5t90 338.5q0 160 -42 265z" />
<glyph unicode="&#xf9;" horiz-adv-x="1363" d="M186 368v789l170 14v-743q0 -159 46.5 -227t160.5 -71q107 0 201 41t197 127q-7 126 -7 209v650l171 14q-5 -1101 12 -1171h-156l-20 162q-78 -82 -181 -132t-215 -50q-182 5 -282.5 104.5t-96.5 283.5zM416 1641l113 123l379 -366l-92 -102z" />
<glyph unicode="&#xfa;" horiz-adv-x="1363" d="M186 368v789l170 14v-743q0 -159 46.5 -227t160.5 -71q107 0 201 41t197 127q-7 126 -7 209v650l171 14q-5 -1101 12 -1171h-156l-20 162q-78 -82 -181 -132t-215 -50q-182 5 -282.5 104.5t-96.5 283.5zM416 1398l379 366l113 -123l-400 -345z" />
<glyph unicode="&#xfb;" horiz-adv-x="1363" d="M186 368v789l170 14v-743q0 -159 46.5 -227t160.5 -71q107 0 201 41t197 127q-7 126 -7 209v650l171 14q-5 -1101 12 -1171h-156l-20 162q-78 -82 -181 -132t-215 -50q-182 5 -282.5 104.5t-96.5 283.5zM270 1405l393 313l391 -313l-82 -107l-309 237l-307 -239z" />
<glyph unicode="&#xfc;" horiz-adv-x="1363" d="M186 368v789l170 14v-743q0 -159 46.5 -227t160.5 -71q107 0 201 41t197 127q-7 126 -7 209v650l171 14q-5 -1101 12 -1171h-156l-20 162q-78 -82 -181 -132t-215 -50q-182 5 -282.5 104.5t-96.5 283.5zM379 1363v222h178v-222h-178zM767 1363v222h179v-222h-179z" />
<glyph unicode="&#xfd;" horiz-adv-x="1194" d="M64 1157h187l338 -1023l340 1023h190q-528 -1452 -616 -1696l-196 67q68 122 129.5 240t89.5 175l28 57h-83zM342 1398l379 366l113 -123l-400 -345z" />
<glyph unicode="&#xfe;" horiz-adv-x="1365" d="M199 -479v2099l161 14v-634q167 166 360 171q103 3 186 -31t135 -91t87 -135t49 -158.5t14 -167.5q0 -111 -16.5 -201.5t-55 -167.5t-98.5 -129t-151 -81t-209 -29q-151 0 -292 62v-521h-170zM369 190q169 -68 294 -65q99 3 169 37t109.5 97t56.5 143t16 186 q-1 92 -17.5 168.5t-50 138.5t-90.5 95.5t-132 32.5q-62 -1 -121.5 -18.5t-100 -41.5t-72 -47.5t-46.5 -39.5l-15 -17v-669z" />
<glyph unicode="&#xff;" horiz-adv-x="1194" d="M64 1157h187l338 -1023l340 1023h190q-528 -1452 -616 -1696l-196 67q68 122 129.5 240t89.5 175l28 57h-83zM305 1363v222h178v-222h-178zM693 1363v222h179v-222h-179z" />
<glyph unicode="&#x152;" horiz-adv-x="2384" d="M106 770q0 185 54 336t150.5 252t230.5 155.5t295 54.5q346 0 527 -246v232h895l-9 -160h-715v-510h641v-158h-641v-567h733l11 -159h-915v250q-195 -270 -549 -270q-330 0 -519 208.5t-189 581.5zM284 770q-1 -311 142.5 -474t401.5 -159q254 3 399 168t141 465 q-4 322 -141 481.5t-413 159.5q-249 0 -388.5 -168.5t-141.5 -472.5z" />
<glyph unicode="&#x153;" horiz-adv-x="1878" d="M61 560q0 290 143.5 450.5t377.5 160.5q145 0 242 -61.5t159 -184.5q117 242 394 246q119 0 206.5 -47t138.5 -133t74 -200t20 -257h-746q12 -218 102.5 -312t248.5 -94q117 0 263 55l33 -148q-74 -28 -138.5 -41.5t-157.5 -13.5q-147 0 -256.5 54.5t-186.5 190.5 q-132 -245 -409 -245q-239 0 -373.5 150.5t-134.5 429.5zM240 565q0 -213 84 -326.5t245 -113.5q323 0 326 449q0 223 -74.5 337t-242.5 114q-161 0 -249.5 -119.5t-88.5 -340.5zM1070 669h565q-4 66 -12.5 116t-26.5 99t-46 80t-73 48.5t-105 14.5q-147 -5 -223 -97.5 t-79 -260.5z" />
<glyph unicode="&#x178;" d="M-20 1554h204l414 -823l414 823h204l-532 -987v-567h-174v567q-92 158 -267.5 497.5t-262.5 489.5zM317 1698v228h176v-228h-176zM704 1698v228h177v-228h-177z" />
<glyph unicode="&#x2c6;" horiz-adv-x="799" d="M7 1405l393 313l391 -313l-82 -107l-309 237l-307 -239z" />
<glyph unicode="&#x2dc;" horiz-adv-x="736" d="M7 1400q34 79 91 128.5t122 56.5q39 4 81.5 -12t72.5 -37.5t67 -41.5t66 -22t61.5 23.5t56.5 74.5l104 -61q-35 -80 -92 -128.5t-121 -49.5q-49 -2 -102.5 26.5t-102 57.5t-84.5 29q-29 0 -60.5 -27.5t-55.5 -76.5z" />
<glyph unicode="&#x2000;" horiz-adv-x="1010" />
<glyph unicode="&#x2001;" horiz-adv-x="2020" />
<glyph unicode="&#x2002;" horiz-adv-x="1010" />
<glyph unicode="&#x2003;" horiz-adv-x="2020" />
<glyph unicode="&#x2004;" horiz-adv-x="673" />
<glyph unicode="&#x2005;" horiz-adv-x="505" />
<glyph unicode="&#x2006;" horiz-adv-x="336" />
<glyph unicode="&#x2007;" horiz-adv-x="336" />
<glyph unicode="&#x2008;" horiz-adv-x="252" />
<glyph unicode="&#x2009;" horiz-adv-x="404" />
<glyph unicode="&#x200a;" horiz-adv-x="112" />
<glyph unicode="&#x2010;" horiz-adv-x="853" d="M126 518v153h601v-153h-601z" />
<glyph unicode="&#x2011;" horiz-adv-x="853" d="M126 518v153h601v-153h-601z" />
<glyph unicode="&#x2012;" horiz-adv-x="853" d="M126 518v153h601v-153h-601z" />
<glyph unicode="&#x2013;" horiz-adv-x="1365" d="M159 523v144h1047v-144h-1047z" />
<glyph unicode="&#x2014;" horiz-adv-x="2557" d="M176 523v144h2204v-144h-2204z" />
<glyph unicode="&#x2018;" horiz-adv-x="512" d="M125 1111q0 179 7 225q25 180 123 284l131 -32q-41 -47 -66.5 -124t-25.5 -152v-188z" />
<glyph unicode="&#x2019;" horiz-adv-x="512" d="M125 1148q41 46 67 123t26 153v186l168 15q0 -179 -7 -225q-25 -181 -122 -285z" />
<glyph unicode="&#x201a;" horiz-adv-x="512" d="M124 -199q42 46 67.5 123t25.5 153v186l170 15q0 -172 -8 -225q-25 -177 -122 -285z" />
<glyph unicode="&#x201c;" horiz-adv-x="854" d="M113 1111q0 179 7 225q25 180 123 284l131 -32q-41 -47 -66.5 -124t-25.5 -152v-188zM479 1111q0 179 7 225q25 179 122 284l132 -32q-42 -47 -67.5 -124t-25.5 -152v-188z" />
<glyph unicode="&#x201d;" horiz-adv-x="854" d="M114 1143q42 47 67.5 124t25.5 152v188l168 13q0 -179 -7 -225q-25 -179 -122 -284zM480 1143q41 47 66.5 124t25.5 152v188l169 13q0 -179 -7 -225q-25 -180 -123 -284z" />
<glyph unicode="&#x201e;" horiz-adv-x="854" d="M114 -203q42 47 67.5 124t25.5 152v188l168 13q0 -179 -7 -225q-25 -179 -122 -284zM480 -203q41 47 66.5 124t25.5 152v188l169 13q0 -179 -7 -225q-25 -180 -123 -284z" />
<glyph unicode="&#x2022;" horiz-adv-x="682" d="M95 634q0 113 70.5 179t174.5 66q108 0 177 -63.5t69 -181.5q0 -114 -69.5 -176.5t-176.5 -62.5q-104 0 -174.5 65t-70.5 174z" />
<glyph unicode="&#x2026;" horiz-adv-x="2046" d="M225 0v203h232v-203h-232zM907 0v203h232v-203h-232zM1589 0v203h232v-203h-232z" />
<glyph unicode="&#x202f;" horiz-adv-x="404" />
<glyph unicode="&#x2039;" horiz-adv-x="852" d="M188 581l378 479l95 -84l-276 -395l278 -396l-97 -86z" />
<glyph unicode="&#x203a;" horiz-adv-x="852" d="M189 185l278 396l-276 395l95 84l378 -479l-378 -482z" />
<glyph unicode="&#x205f;" horiz-adv-x="505" />
<glyph unicode="&#x20ac;" horiz-adv-x="1194" d="M14 579v117h214v165h-214v118h221q13 113 44 204.5t86 167.5t133 127t187 79t245 28q88 0 173 -19l-47 -146q-52 13 -124 13q-241 0 -363.5 -113.5t-152.5 -340.5h550l-4 -118h-555q-3 -16 -3 -49v-116h380l-4 -117h-364q36 -201 163 -316t343 -115q110 0 225 28l33 -150 q-148 -31 -258 -31q-299 0 -473.5 153t-211.5 431h-223z" />
<glyph unicode="&#x2122;" horiz-adv-x="2222" d="M287 1397v134h579v-134h-220v-567h-141v567h-218zM1011 830l30 701h217l209 -484q33 80 101 242t101 242h227l39 -701h-141l-36 547q-23 -53 -96.5 -219t-113.5 -256h-160l-208 471q-5 -91 -15 -273.5t-14 -269.5h-140z" />
<glyph unicode="&#xe000;" horiz-adv-x="1155" d="M0 0v1155h1155v-1155h-1155z" />
<glyph unicode="&#xfb01;" horiz-adv-x="1195" d="M52 1016v141h172v104q-5 103 4.5 163.5t44.5 103.5q83 108 321 108q141 0 426 -42l-23 -157q-31 2 -124 21t-171 32.5t-160 7t-117 -44.5q-16 -18 -24 -42.5t-8.5 -41.5t1 -59t1.5 -62v-91h648v-1157h-171v1016h-477v-1016h-171v1016h-172z" />
<glyph unicode="&#xfb02;" horiz-adv-x="1365" d="M-3 1016v141h172v104q-5 134 13.5 202t90.5 113q98 60 266 60q189 0 338 -36l158 34l-2 -1322q-3 -112 34 -150q31 -30 102 -30q56 0 183 34l33 -146q-141 -37 -223 -40q-70 -1 -122.5 13t-95 49t-63.5 100t-20 159l3 1164q-108 32 -266 39q-174 9 -228 -51 q-16 -18 -24 -42.5t-8.5 -41.5t1 -59t1.5 -62v-91h254v-141h-254v-1016h-171v1016h-172z" />
</font>
</defs>
</svg>
