<?xml version="1.0" standalone="no"?>
<!DOCTYPE svg PUBLIC "-//W3C//DTD SVG 1.1//EN" "http://www.w3.org/Graphics/SVG/1.1/DTD/svg11.dtd" >
<svg xmlns="http://www.w3.org/2000/svg">
<metadata></metadata>
<defs>
<font id="permianslabseriftypefaceRg" horiz-adv-x="1425" >
<font-face units-per-em="2048" ascent="1536" descent="-512" />
<missing-glyph horiz-adv-x="481" />
<glyph unicode="&#xfb01;" horiz-adv-x="1396" d="M-10 0v123h176l153 778h-167v123h192l18 96q39 199 147 313.5t273 114.5q69 0 149.5 -18.5t98.5 -20.5l-39 -166q-52 11 -119 41.5t-110 30.5q-84 0 -129 -62.5t-74 -207.5l-24 -121h421l226 20l41 -10l-187 -876l240 161v-149l-178 -119q-31 -21 -45.5 -30.5t-48.5 -22 t-66 -12.5q-51 0 -83.5 41t-16.5 112l163 762h-491l-154 -778h213v-123h-579zM1044 1350q0 52 34.5 92.5t97.5 40.5q52 0 78 -30t26 -75q0 -64 -33.5 -105.5t-89.5 -41.5q-49 0 -81 32.5t-32 86.5z" />
<glyph unicode="&#xfb02;" horiz-adv-x="1384" d="M-8 0v123h170l160 778h-168v123h192l21 100q17 86 49.5 158.5t84 134t128.5 96.5t172 35q64 0 143 -19.5t121 -19.5q127 0 248 64l41 -10l-301 -1403l241 159v-149l-178 -119q-31 -21 -45.5 -30.5t-48.5 -22t-66 -12.5q-51 0 -83.5 41t-16.5 112l264 1233 q-46 -24 -100 -24q-61 0 -133 33.5t-123 33.5q-84 0 -129.5 -63t-73.5 -209l-24 -119h270v-123h-295l-160 -778h219v-123h-579z" />
<glyph unicode="&#xfb03;" horiz-adv-x="2035" d="M-8 0v123h172l155 778h-165v123h190l18 92q38 189 151 310.5t271 121.5q69 0 149.5 -18.5t98.5 -20.5l-39 -166q-52 11 -119 41.5t-110 30.5q-84 0 -129 -62.5t-74 -207.5l-24 -121h442l20 96q39 195 156 311.5t266 116.5q69 0 149.5 -18.5t98.5 -20.5l-39 -166 q-52 11 -119 41.5t-110 30.5q-84 0 -129 -62.5t-74 -207.5l-24 -121h421l226 20l41 -10l-187 -876l240 161v-149l-178 -119q-31 -21 -45.5 -30.5t-48.5 -22t-66 -12.5q-51 0 -83.5 41t-16.5 112l163 762h-491l-158 -778h217v-123h-579v123h172l153 778h-442l-158 -778h156 v-123h-518zM1683 1350q0 52 34.5 92.5t97.5 40.5q52 0 78 -30t26 -75q0 -64 -33.5 -105.5t-89.5 -41.5q-49 0 -81 32.5t-32 86.5z" />
<glyph unicode="&#xfb04;" horiz-adv-x="2021" d="M-10 0v123h174l155 778h-167v123h192l12 61q45 232 158.5 347.5t267.5 115.5q69 0 149.5 -18.5t98.5 -20.5l-39 -166q-52 11 -119 41.5t-110 30.5q-84 0 -129 -62.5t-74 -207.5l-24 -121h448l16 78q40 202 153.5 324t285.5 122q64 0 143 -19.5t121 -19.5q127 0 248 64 l41 -10l-301 -1403l241 159v-149l-178 -119q-31 -21 -45.5 -30.5t-48.5 -22t-66 -12.5q-51 0 -83.5 41t-16.5 112l264 1233q-46 -24 -100 -24q-61 0 -133 33.5t-123 33.5q-86 0 -132 -72t-83 -260l-12 -59h270v-123h-295l-156 -778h215v-123h-579v123h174l155 778h-448 l-156 -778h154v-123h-518z" />
<glyph horiz-adv-x="2048" />
<glyph horiz-adv-x="2048" />
<glyph unicode="&#xd;" horiz-adv-x="2048" />
<glyph unicode=" "  horiz-adv-x="481" />
<glyph unicode="&#x09;" horiz-adv-x="481" />
<glyph unicode="&#xa0;" horiz-adv-x="481" />
<glyph unicode="!" horiz-adv-x="569" d="M66 88q0 53 34 93t97 40q48 0 80 -32.5t32 -86.5q0 -53 -34 -93t-97 -40q-48 0 -80 32.5t-32 86.5zM166 410l168 1026l215 10l-234 -1036h-149z" />
<glyph unicode="&#x22;" horiz-adv-x="757" d="M209 948l43 488l215 10l-129 -498h-129zM537 948l43 488l215 10l-129 -498h-129z" />
<glyph unicode="#" horiz-adv-x="1533" d="M68 293v151h256l190 340h-278v152h362l156 276h204l-155 -276h289l155 276h205l-156 -276h170v-152h-254l-188 -340h274v-151h-360l-164 -293h-207l166 293h-289l-163 -293h-207l166 293h-172zM530 444h287l191 340h-289z" />
<glyph unicode="$" horiz-adv-x="1058" d="M2 49l64 320h122l-16 -234q87 -20 190 -20q357 0 357 235q0 60 -29 108.5t-75.5 83t-102.5 66t-112 66t-102.5 74.5t-75.5 99t-29 132q0 164 118 273t328 122l41 295q83 28 160 0l-70 -295q84 -6 155 -25.5t99 -36.5l29 -16l-78 -325h-123l16 241q-87 23 -182 23 q-127 0 -211 -58.5t-84 -156.5q0 -54 29 -99t76 -78.5t103.5 -65.5t112.5 -68t103 -77.5t76 -102.5t29 -134q0 -174 -114.5 -287t-332.5 -133l-39 -288q-80 -28 -160 0l66 286q-106 3 -190.5 22t-115.5 37z" />
<glyph unicode="%" horiz-adv-x="1947" d="M166 1018q0 82 29 160t83 142t142 103t196 39q162 0 248 -90t86 -235q0 -186 -125 -312.5t-323 -126.5q-149 0 -242.5 81.5t-93.5 238.5zM360 1016q0 -85 38 -137t122 -52q109 0 170.5 87.5t61.5 220.5q0 88 -39 143t-121 55q-114 0 -173 -85t-59 -232zM373 0l1028 1434 h198l-1026 -1434h-200zM1038 299q0 82 29 160t83.5 142t142.5 103t196 39q162 0 248 -90t86 -235q0 -186 -125.5 -312t-323.5 -126q-149 0 -242.5 81t-93.5 238zM1233 297q0 -85 38 -136.5t122 -51.5q109 0 170 87t61 220q0 88 -39 143t-121 55q-114 0 -172.5 -85 t-58.5 -232z" />
<glyph unicode="&#x26;" horiz-adv-x="1470" d="M55 293q0 260 346 438q-58 82 -90 161t-32 173q0 166 119.5 281.5t303.5 115.5q168 0 251 -74t83 -194q0 -132 -99 -248t-300 -229l74 -107q106 -157 188 -258q148 165 238 381h-164v123h446v-123h-147q-121 -293 -289 -477q133 -133 227 -133h78v-123h-100 q-193 0 -340 131q-199 -151 -436 -151q-160 0 -258.5 84.5t-98.5 228.5zM250 319q0 -104 57 -153t158 -49q153 0 293 106q-35 41 -70 90t-81 118.5t-66 98.5l-86 123q-93 -63 -149 -148.5t-56 -185.5zM471 1110q0 -86 28.5 -158t82.5 -153q266 188 266 372q0 160 -170 160 q-90 0 -148.5 -62.5t-58.5 -158.5z" />
<glyph unicode="'" horiz-adv-x="430" d="M209 948l43 488l215 10l-129 -498h-129z" />
<glyph unicode="(" horiz-adv-x="673" d="M57 365q0 154 30.5 304t94.5 294t158 268.5t227 231t295 179.5l47 -92q-138 -73 -250 -174t-188 -214.5t-127.5 -244t-74.5 -261t-23 -265.5q0 -231 73 -409t228 -324l-60 -88q-209 128 -319.5 334.5t-110.5 460.5z" />
<glyph unicode=")" horiz-adv-x="675" d="M-231 -338q138 73 250 174t188 214.5t127.5 244t74.5 261t23 265.5q0 231 -73 409t-228 324l59 88q209 -128 320 -334t111 -460q0 -154 -30.5 -304t-94.5 -294t-158 -269t-227 -231.5t-295 -179.5z" />
<glyph unicode="*" horiz-adv-x="1101" d="M227 1448q18 46 61.5 58t98.5 -21l217 -109l27 17l16 268q0 53 30.5 89t84.5 36t69.5 -39.5t-6.5 -85.5l-94 -277l19 -14l254 117q59 30 99 19.5t52 -58.5q12 -46 -22 -79.5t-97 -39.5l-282 -57l-9 -15l132 -198q39 -49 32 -90t-51 -66q-44 -26 -83 -4t-54 84l-70 207 h-28l-177 -236q-23 -36 -53.5 -53.5t-57 -15.5t-44.5 18q-19 17 -26.5 42t6 57.5t51.5 60.5l229 182l-4 33l-234 53q-54 7 -77.5 41t-8.5 76z" />
<glyph unicode="+" horiz-adv-x="1038" d="M94 518v131h361l67 357h144l-68 -357h338v-131h-365l-67 -354h-144l68 354h-334z" />
<glyph unicode="," horiz-adv-x="485" d="M-66 -295q141 109 199 268q-42 3 -69 33t-27 86t36 92.5t95 36.5q48 0 80.5 -33t32.5 -90q0 -119 -73 -247t-208 -224z" />
<glyph unicode="-" horiz-adv-x="903" d="M152 516v141l596 21v-141z" />
<glyph unicode="." horiz-adv-x="481" d="M37 88q0 53 34 93t97 40q49 0 81 -32.5t32 -86.5q0 -53 -34 -93t-97 -40q-49 0 -81 32.5t-32 86.5z" />
<glyph unicode="/" horiz-adv-x="827" d="M-135 -356l883 1790h167l-880 -1790h-170z" />
<glyph unicode="0" horiz-adv-x="1224" d="M117 473q0 82 12.5 173t39 186.5t64.5 185t93 169t120 139t149.5 94t178.5 34.5q101 0 175.5 -39t117 -108.5t62.5 -156t20 -192.5q0 -82 -12.5 -172.5t-39.5 -186t-65.5 -184.5t-93.5 -168.5t-120.5 -138.5t-150 -93.5t-178.5 -34.5q-81 0 -144.5 26t-106 70.5 t-70 107.5t-39.5 134.5t-12 154.5zM326 467q0 -180 41 -262t151 -82q113 0 209 111.5t152.5 304.5t56.5 419q0 187 -42.5 270t-152.5 83q-116 0 -212 -116.5t-149.5 -310t-53.5 -417.5z" />
<glyph unicode="1" horiz-adv-x="761" d="M143 1335l510 111h54l-281 -1446h-201l246 1266l-307 -33z" />
<glyph unicode="2" horiz-adv-x="1058" d="M2 0v82l289 293q253 257 349.5 410.5t96.5 316.5q0 105 -61 160t-176 55q-72 0 -168 -25l-21 -235h-112v323q17 8 47 20.5t126 33t193 20.5q182 0 282.5 -92.5t100.5 -241.5q0 -193 -101.5 -335.5t-401.5 -437.5l-23 -23l-170 -168h504l35 184h112l-26 -340h-875z" />
<glyph unicode="3" horiz-adv-x="1077" d="M6 88l47 100q14 -8 40 -20.5t105.5 -33.5t157.5 -21q165 0 266 94t101 244q0 256 -295 256h-72l13 122h104q147 0 236.5 80t89.5 207q0 97 -68.5 149t-187.5 52q-72 0 -168 -25l-21 -235h-112v323q17 8 47 20.5t126 33t193 20.5q191 0 294.5 -82.5t103.5 -212.5 q0 -136 -95 -247t-266 -146q134 -25 207.5 -108t73.5 -214q0 -199 -148 -331.5t-381 -132.5q-73 0 -140 11t-110.5 27t-77 32t-48.5 27z" />
<glyph unicode="4" horiz-adv-x="1101" d="M27 326v104l538 1004h195l-549 -967l416 6l135 703h194l-135 -701l189 4l-15 -153h-204l-35 -185q-8 -42 -15 -89.5t-9 -73.5l-3 -27h-203l72 375h-571z" />
<glyph unicode="5" horiz-adv-x="1050" d="M-10 88l47 100q5 -3 13.5 -8.5t38.5 -18.5t62.5 -23t84 -18.5t104.5 -8.5q167 0 264.5 87.5t97.5 252.5q0 82 -36.5 142t-104 96t-155.5 53.5t-199 17.5l155 674h648l-35 -324h-113l2 162h-415l-87 -371q276 -10 412.5 -125t136.5 -309q0 -101 -34.5 -188.5t-100 -154.5 t-167.5 -105.5t-228 -38.5q-130 0 -232 31t-159 77z" />
<glyph unicode="6" horiz-adv-x="1126" d="M121 553q21 428 267.5 671.5t670.5 225.5v-117q-165 -7 -292.5 -50.5t-213.5 -120.5t-139.5 -178t-79.5 -232q4 5 12 13.5t36.5 30.5t62 39t88.5 30.5t116 13.5q171 0 272.5 -122t86.5 -306q-9 -99 -42 -183t-88.5 -149t-141 -102t-191.5 -37q-215 0 -326.5 150.5 t-97.5 422.5zM326 438q0 -83 21 -151t73 -115t129 -47q119 0 186.5 91t67.5 226q0 136 -60 210.5t-174 74.5q-68 0 -117.5 -26.5t-75.5 -71t-38 -92t-12 -99.5z" />
<glyph unicode="7" horiz-adv-x="909" d="M147 14q302 700 650 1254h-494l-16 -158h-113l8 324h817v-95q-183 -293 -336.5 -619.5t-330.5 -754.5z" />
<glyph unicode="8" horiz-adv-x="1159" d="M74 311q0 152 91 268.5t267 165.5l2 9q-96 34 -146 110.5t-50 171.5q0 76 31.5 149.5t89.5 134t150.5 97.5t203.5 37q175 0 267.5 -86.5t92.5 -222.5q0 -142 -76.5 -244t-226.5 -147l-2 -9q118 -27 181 -106t63 -190q0 -200 -154 -334.5t-379 -134.5q-186 0 -295.5 90 t-109.5 241zM283 356q0 -103 60.5 -162t158.5 -59q128 0 215.5 85t87.5 231q0 100 -58.5 158.5t-158.5 58.5q-125 0 -215 -90t-90 -222zM428 1026q0 -93 50 -145t136 -52q105 0 185 82t80 213q0 83 -52.5 128.5t-136.5 45.5q-109 0 -185.5 -74.5t-76.5 -197.5z" />
<glyph unicode="9" horiz-adv-x="1126" d="M109 -20v116q165 7 292.5 51t213.5 121t139.5 178t79.5 232q-4 -5 -12 -13.5t-37 -30.5t-62 -39t-88.5 -30.5t-116.5 -13.5q-171 0 -272 122t-86 306q9 99 42 183t88.5 149t141 102t191.5 37q215 0 326.5 -150.5t97.5 -422.5q-21 -428 -267.5 -671.5t-670.5 -225.5z M365 987q0 -137 59.5 -211t173.5 -74q55 0 98 18t70 47t44.5 68t24.5 77t7 79q0 83 -21 151t-73.5 115.5t-129.5 47.5q-118 0 -185.5 -91.5t-67.5 -226.5z" />
<glyph unicode=":" horiz-adv-x="536" d="M57 88q0 53 34 93t97 40q49 0 81 -32.5t32 -86.5q0 -53 -34 -93t-97 -40q-49 0 -81 32.5t-32 86.5zM203 903q0 53 34 93t97 40q49 0 80.5 -32t31.5 -86q0 -53 -34 -93.5t-97 -40.5q-48 0 -80 32.5t-32 86.5z" />
<glyph unicode=";" horiz-adv-x="579" d="M-47 -295q141 109 199 268q-43 3 -70 33t-27 86t36 92.5t95 36.5q48 0 80.5 -33t32.5 -90q0 -119 -73 -247t-208 -224zM246 903q0 53 34 93t97 40q49 0 80.5 -32t31.5 -86q0 -53 -34 -93.5t-97 -40.5q-48 0 -80 32.5t-32 86.5z" />
<glyph unicode="&#x3c;" horiz-adv-x="890" d="M82 596v18l557 410h213l-588 -434l383 -486h-174z" />
<glyph unicode="=" horiz-adv-x="1249" d="M197 311v142h841v-142h-841zM197 700v142h841v-142h-841z" />
<glyph unicode="&#x3e;" horiz-adv-x="884" d="M18 102l588 435l-383 485h174l391 -492v-18l-557 -410h-213z" />
<glyph unicode="?" horiz-adv-x="888" d="M217 94q0 53 34 93t97 40q49 0 81 -32t32 -86q0 -53 -34 -93.5t-97 -40.5q-49 0 -81 32.5t-32 86.5zM219 567q0 55 25 104.5t64.5 89t87.5 76.5t96.5 74t88 75t64.5 85.5t25 99.5q0 150 -209 150q-56 0 -114.5 -12.5t-88.5 -24.5l-31 -12v121q5 3 14.5 7.5t40.5 16.5 t64.5 21t85 16.5t103.5 7.5q176 0 259 -76t83 -196q0 -74 -34.5 -142.5t-85.5 -117.5t-111.5 -98.5t-111.5 -87t-85.5 -81t-34.5 -83.5q0 -22 12.5 -31.5t36.5 -4t55 26.5l57 -92q-94 -78 -198 -78q-67 0 -112.5 47.5t-45.5 118.5z" />
<glyph unicode="@" horiz-adv-x="1810" d="M59 236q0 219 73 411t201 329.5t311 216.5t394 79q142 0 259 -38t204.5 -112.5t136 -195t48.5 -277.5q0 -92 -21.5 -187t-64.5 -181t-100.5 -153.5t-136 -107.5t-165.5 -40q-46 0 -82.5 12t-55.5 29.5t-32 35t-16 29.5l-4 12q-4 -5 -10.5 -13t-31 -28t-52 -35.5 t-72.5 -28.5t-94 -13q-131 0 -206 96.5t-75 261.5q0 71 17.5 145.5t54.5 146t88.5 127.5t126.5 90t161 34q61 0 112.5 -19t72.5 -38l22 -19l125 65h56l-115 -651q-8 -33 5.5 -60.5t47.5 -27.5q64 0 120.5 72.5t89 187t32.5 236.5q0 236 -126.5 359.5t-355.5 123.5 q-139 0 -260 -47t-207 -127.5t-148 -186t-92 -224.5t-30 -242q0 -255 105.5 -380.5t339.5 -125.5q59 0 114 8l-8 -135q-94 -15 -178 -15q-284 0 -431 159.5t-147 441.5zM668 340q0 -101 40.5 -156t116.5 -55q33 0 63 8t49 19t33.5 22t20.5 19l6 8l84 485q-5 5 -14.5 12.5 t-45 20t-79.5 12.5q-120 0 -197 -109.5t-77 -285.5z" />
<glyph unicode="A" horiz-adv-x="1325" d="M-78 0v123h156l631 1313l190 12l188 -1325h152v-123h-498v123h140l-37 274h-488l-37 -80q-47 -104 -77 -194h153v-123h-473zM412 518h415l-71 535l-19 182h-8q-20 -80 -65 -176z" />
<glyph unicode="B" horiz-adv-x="1265" d="M16 0v123h170l213 1190h-155v121h471q222 0 334 -81.5t112 -226.5q0 -73 -25.5 -137t-69.5 -109t-97.5 -75.5t-112.5 -44.5l-2 -6q125 -19 205 -99.5t80 -195.5q0 -111 -49 -200t-133 -144.5t-191.5 -85t-230.5 -29.5h-519zM387 119h162q175 0 280 84t105 235 q0 121 -67.5 186.5t-200.5 65.5h-179zM510 813h227q102 39 157.5 112t55.5 173q0 105 -61.5 161t-206.5 56h-84z" />
<glyph unicode="C" horiz-adv-x="1228" d="M115 514q0 134 32 268t98 256.5t157.5 217t219.5 150.5t275 56q72 0 134.5 -8.5t100 -20.5t65.5 -24t39 -21l11 -8l-22 -295h-121l4 203q-89 37 -215 37q-107 0 -199 -43.5t-157.5 -117.5t-112.5 -172t-69.5 -206.5t-22.5 -220.5q0 -222 95.5 -338t270.5 -116 q84 0 170 28l56 215h127l-66 -303q-5 -3 -15.5 -8.5t-44.5 -19.5t-71.5 -24.5t-94.5 -19t-116 -8.5q-246 0 -387 148t-141 395z" />
<glyph unicode="D" horiz-adv-x="1435" d="M16 0v123h170l213 1190h-155v121h495q151 0 270 -40.5t194.5 -113.5t115 -172.5t39.5 -220.5q0 -200 -66.5 -367.5t-182 -281t-274 -176t-341.5 -62.5h-478zM389 123h139q126 0 239 54t196 149.5t131.5 233.5t48.5 298q0 224 -113 341.5t-342 117.5h-88z" />
<glyph unicode="E" horiz-adv-x="1171" d="M20 0v123h168l213 1188h-155v123h930l-21 -349h-117l2 226h-436l-96 -529l422 11l-31 -144l-414 17l-98 -543h451l67 231h125l-80 -354h-930z" />
<glyph unicode="F" horiz-adv-x="1122" d="M20 0v123h168l213 1188h-155v123h930l-21 -349h-117l2 226h-436l-100 -551l422 10l-31 -143l-414 16l-92 -520h178v-123h-547z" />
<glyph unicode="G" horiz-adv-x="1359" d="M113 514q0 112 23.5 224t68.5 218t117 197.5t163 160.5t212 108.5t259 39.5q89 0 171.5 -20.5t120.5 -41.5l38 -20l-22 -295h-115v179q-111 61 -217 61q-121 0 -222 -44t-170 -118t-117.5 -173.5t-70.5 -209t-22 -225.5q0 -222 98 -335.5t262 -113.5q79 0 172 19l72 377 h-195v123h549v-123h-153l-86 -465q-15 -7 -43 -18t-124.5 -29.5t-203.5 -18.5q-271 0 -418 145t-147 398z" />
<glyph unicode="H" horiz-adv-x="1570" d="M16 0v123h170l213 1190h-155v121h528v-121h-172l-92 -512h622l93 512h-156v121h528v-121h-172l-213 -1190h154v-123h-528v123h174l98 555h-623l-98 -555h154v-123h-525z" />
<glyph unicode="I" horiz-adv-x="749" d="M18 0v123h170l213 1188h-155v123h528v-123h-172l-213 -1188h156l-2 -123h-525z" />
<glyph unicode="J" horiz-adv-x="708" d="M-129 -322l166 177q59 63 89 126t52 181l205 1151h-156v121h529v-121h-172l-187 -1045q-11 -64 -22.5 -113t-29 -96t-33 -81t-44.5 -74.5t-52.5 -70t-69 -74.5t-82.5 -79.5t-103 -93.5z" />
<glyph unicode="K" horiz-adv-x="1331" d="M16 0v123h170l213 1190h-155v121h518v-121h-162l-92 -512h115l452 512h-106v121h397v-121h-119l-508 -547l375 -643h123v-123h-276l-396 680h-78l-100 -557h154v-123h-525z" />
<glyph unicode="L" horiz-adv-x="1114" d="M20 0v123h168l213 1188h-155v123h528v-123h-170l-217 -1188h451l67 231h125l-80 -354h-930z" />
<glyph unicode="M" horiz-adv-x="1837" d="M33 0v123h151l213 1190h-139v121h406l213 -807q7 -29 13 -64.5t8 -56.5l3 -21h4q25 62 70 136l495 813h392v-121h-172l-213 -1190h155v-123h-516v123h172l176 985l35 156h-6q-39 -87 -76 -150l-520 -846h-113l-229 881l-27 129h-6q-10 -69 -22 -141l-181 -1014h156v-123 h-442z" />
<glyph unicode="N" horiz-adv-x="1538" d="M4 0v123h162l209 1180l-33 59v72l193 8l507 -969q16 -31 33 -71t26 -64l9 -25l8 2q9 95 25 179l145 819h-153v121h446v-121h-168l-231 -1313l-92 -14l-543 1020q-19 36 -37.5 76.5t-27.5 62.5l-9 22l-6 -2q-7 -90 -25 -184l-151 -858h155v-123h-442z" />
<glyph unicode="O" d="M115 500q0 127 28 257.5t90 258t150 226t219.5 159.5t286.5 61q234 0 347.5 -141t113.5 -389q0 -89 -14.5 -182t-45 -187.5t-75.5 -181t-109 -161.5t-141 -130t-177.5 -87t-212.5 -32q-234 0 -347 140.5t-113 388.5zM332 535q0 -103 14.5 -177.5t49.5 -132.5t97.5 -87 t153.5 -29q113 0 206.5 67t153.5 178t93 252t33 293q0 209 -71.5 317.5t-248.5 108.5q-111 0 -204 -67t-152.5 -178.5t-92 -252.5t-32.5 -292z" />
<glyph unicode="P" horiz-adv-x="1218" d="M16 0v123h170l213 1190h-155v121h504q228 0 350.5 -91t122.5 -264q0 -153 -80.5 -275.5t-219 -189.5t-307.5 -67h-151l-76 -424h199v-123h-570zM485 670h148q104 0 188.5 42.5t137.5 130.5t53 208q0 132 -75 199t-237 67h-100z" />
<glyph unicode="Q" d="M115 500q0 127 28 257.5t90 258t150 226t219.5 159.5t286.5 61q234 0 347.5 -141t113.5 -389q0 -123 -28.5 -251.5t-83 -250.5t-145.5 -225t-206 -162q44 -33 102 -125l62 -106q46 -77 70 -94t81 -17v-123h-96q-103 0 -142 18.5t-83 98.5l-162 291q-67 -15 -144 -15 q-234 0 -347 140.5t-113 388.5zM332 535q0 -103 14.5 -177.5t49.5 -132.5t97.5 -87t153.5 -29q113 0 206.5 67t153.5 178t93 252t33 293q0 209 -71.5 317.5t-248.5 108.5q-111 0 -204 -67t-152.5 -178.5t-92 -252.5t-32.5 -292z" />
<glyph unicode="R" horiz-adv-x="1329" d="M10 0v123h180l211 1190h-153v121h504q230 0 351.5 -98.5t121.5 -270.5q0 -87 -31.5 -162t-87 -129t-126 -91.5t-153.5 -57.5l299 -502h103v-123h-254l-346 588h-154l-84 -465h197v-123h-578zM498 711h133q168 0 277.5 92.5t109.5 257.5q0 132 -76.5 194t-236.5 62h-101z " />
<glyph unicode="S" horiz-adv-x="1069" d="M55 51l35 303h119v-204q100 -33 229 -33q132 0 213.5 60t81.5 179q0 55 -14 97.5t-49 81.5t-72 68.5t-104 74.5q-9 6 -27 19q-120 81 -168 131q-96 103 -96 239q0 170 124 282.5t349 112.5q70 0 132.5 -9t102 -22t69 -26t42.5 -22l12 -9l-35 -289h-120v203 q-102 33 -199 33q-150 0 -221.5 -66t-71.5 -159q0 -36 11 -68t27.5 -56.5t52 -55.5t67 -54t90.5 -63q41 -28 60 -41.5t55.5 -42.5t55 -49.5t44.5 -54.5t38.5 -66.5t22 -75.5t9.5 -90q0 -178 -126 -293t-356 -115q-70 0 -135 8t-108 20t-76.5 24t-48.5 20z" />
<glyph unicode="T" horiz-adv-x="1232" d="M135 1085l60 349h1122l-39 -349h-115v228h-317l-215 -1190h153v-123h-528v123h174l215 1190h-326l-59 -228h-125z" />
<glyph unicode="U" horiz-adv-x="1443" d="M207 1313v121h528v-121h-174l-137 -774q-74 -418 233 -418q327 0 398 414l139 778h-164v121h477v-121h-174l-143 -797q-22 -123 -61.5 -217.5t-104.5 -170.5t-164 -116.5t-229 -40.5q-101 0 -180 29t-128.5 80.5t-80 122.5t-33 156t11.5 180l139 774h-153z" />
<glyph unicode="V" horiz-adv-x="1320" d="M125 1311v123h498v-123h-140l125 -930l19 -182h8q20 80 65 176l344 741q37 77 78 195h-153v123h473v-123h-158l-629 -1313l-190 -12l-191 1325h-149z" />
<glyph unicode="W" horiz-adv-x="1923" d="M131 1313v121h531v-121h-173l72 -858q4 -60 5.5 -121t1.5 -92l-1 -31h8q19 102 70 235l385 988l164 10l78 -1008q4 -60 5 -116t0 -82l-1 -27h8q23 88 80 223l289 686q34 81 69 193h-147v121h463v-121h-152q-11 -26 -72 -166t-94 -215l-420 -932l-188 -10l-72 942 q-4 53 -6 108t-2 84v29h-8q-31 -111 -72 -217l-358 -936l-191 -10l-116 1323h-156z" />
<glyph unicode="X" horiz-adv-x="1388" d="M-57 0v123h147l524 596l-284 594h-154v121h543v-121h-168l213 -484q30 54 100 140l160 205q53 64 92 139h-127v121h479v-121h-163l-490 -584l293 -606h160v-123h-541v123h168l-233 500q-31 -60 -101 -142l-184 -221q-67 -78 -101 -137h142v-123h-475z" />
<glyph unicode="Y" horiz-adv-x="1277" d="M117 1313v121h493v-121h-145l170 -426q13 -33 28 -78t24 -73l9 -29h9q38 78 110 184l195 289q43 61 73 133h-116v121h432v-121h-152l-495 -709l-86 -481h153v-123h-528v123h174l88 489l-287 701h-149z" />
<glyph unicode="Z" horiz-adv-x="1107" d="M0 0v72l856 1241h-453l-69 -226h-125l59 347h838v-72l-858 -1239h530l70 231h125l-82 -354h-891z" />
<glyph unicode="[" horiz-adv-x="604" d="M2 -408l354 2016h365l-21 -123h-206l-312 -1770h207l-22 -123h-365z" />
<glyph unicode="\" horiz-adv-x="915" d="M160 1434h168l536 -1790h-170z" />
<glyph unicode="]" horiz-adv-x="608" d="M-115 -408l21 123h205l311 1770h-205l23 123h364l-354 -2016h-365z" />
<glyph unicode="^" horiz-adv-x="956" d="M41 1092l420 464h35l419 -464h-192l-246 284l-246 -284h-190z" />
<glyph unicode="_" horiz-adv-x="1024" d="M-117 -225h942v-129h-942v129z" />
<glyph unicode="`" horiz-adv-x="638" d="M121 1569l151 100l240 -403l-88 -64z" />
<glyph unicode="a" horiz-adv-x="1148" d="M61 287q0 151 46 291t122 242t180 163t216 61q140 0 233 -75l105 67l41 -10l-187 -866l242 159v-149l-178 -119q-31 -21 -45.5 -30.5t-48.5 -22t-66 -12.5q-51 0 -83.5 41t-16.5 112l10 47l-135 -100q-69 -53 -122 -74.5t-110 -21.5q-86 0 -144.5 74.5t-58.5 222.5z M268 317q0 -83 18.5 -122t67.5 -39t113 45l197 141l106 492q-43 84 -149 84q-97 0 -179.5 -89.5t-128 -227t-45.5 -284.5z" />
<glyph unicode="b" horiz-adv-x="1083" d="M39 -20l311 1452h-160v120l338 21l41 -10l-153 -715l215 145q73 51 157 51q100 0 151.5 -69.5t51.5 -226.5q0 -151 -46 -292.5t-122.5 -245.5t-181 -167t-215.5 -63q-150 0 -252 94l-92 -94h-43zM279 207q42 -101 159 -101q95 0 176.5 97t125.5 241.5t44 292.5 q0 69 -16.5 99t-58.5 30q-9 0 -18.5 -2t-16 -4t-16.5 -7l-14 -7t-14.5 -9t-13.5 -8l-237 -155z" />
<glyph unicode="c" horiz-adv-x="886" d="M70 379q0 118 40 236.5t109 214t172.5 155t220.5 59.5q44 0 75 -5t78.5 -19.5t74.5 -20.5l-54 -163q-36 9 -102.5 38t-118.5 29q-81 0 -149 -78t-105 -196t-37 -242q0 -125 44.5 -184.5t113.5 -59.5q49 0 88.5 19.5t93.5 60.5l125 96v-151l-94 -72q-76 -59 -138.5 -87.5 t-139.5 -28.5q-141 0 -219 105t-78 294z" />
<glyph unicode="d" horiz-adv-x="1167" d="M61 287q0 151 46 291t122 242t180 163t216 61q100 0 184 -43l92 431h-158v118l338 25l41 -10l-299 -1399l240 153v-147l-178 -119q-31 -21 -45.5 -30.5t-48.5 -22t-66 -12.5q-51 0 -83.5 41t-16.5 112l10 49l-139 -104q-69 -53 -122 -74.5t-110 -21.5q-86 0 -144.5 74.5 t-58.5 222.5zM268 317q0 -83 18.5 -122t67.5 -39t113 45l201 145l104 485q-23 50 -60.5 68.5t-90.5 18.5q-97 0 -179.5 -89.5t-128 -227t-45.5 -284.5z" />
<glyph unicode="e" horiz-adv-x="935" d="M70 356q0 190 77 349.5t203.5 249t270.5 89.5q125 0 193.5 -59t68.5 -143q0 -111 -79 -186.5t-229 -127.5l-301 -102v-45q0 -122 47.5 -180t122.5 -58q42 0 80.5 19.5t91.5 60.5l125 96v-151l-94 -72q-76 -59 -137 -87.5t-131 -28.5q-142 0 -225.5 102t-83.5 274z M291 553l145 53q127 46 181.5 96.5t54.5 122.5q0 40 -29.5 62t-73.5 22q-99 0 -173 -102t-105 -254z" />
<glyph unicode="f" horiz-adv-x="800" d="M-12 0v133h172l155 758h-147v133h174l20 98q43 214 150 320t285 106q59 0 144.5 -17.5t119.5 -21.5l-39 -166q-58 8 -137.5 40t-124.5 32q-82 0 -127 -55t-70 -180l-33 -156h273v-133h-299l-154 -758h217v-133h-579z" />
<glyph unicode="g" horiz-adv-x="1083" d="M-106 -428l67 172q60 -22 131 -62t125 -64t105 -24q105 0 163.5 77.5t92.5 238.5l59 280l-141 -104q-69 -53 -122 -74.5t-110 -21.5q-86 0 -144.5 74.5t-58.5 222.5q0 151 46 291t122 242t180 163t216 61q144 0 243 -83l99 71l41 -10l-224 -1032q-20 -91 -46 -165 t-66 -141.5t-90 -113.5t-119 -73t-152 -27q-58 0 -115.5 10t-95 22.5t-102 35t-104.5 34.5zM268 317q0 -83 18.5 -122t67.5 -39t113 45l203 145l102 485q-23 50 -60.5 68.5t-90.5 18.5q-97 0 -179.5 -89.5t-128 -227t-45.5 -284.5z" />
<glyph unicode="h" horiz-adv-x="1140" d="M45 0l307 1432h-157v120l337 21l41 -10l-153 -709l198 133q81 57 162 57q108 0 152 -80.5t14 -218.5l-123 -581l240 158v-152l-178 -119q-31 -21 -45.5 -30.5t-48.5 -22t-66 -12.5q-57 0 -84.5 44t-13.5 107l133 627q17 82 -19.5 103t-105.5 -25l-252 -166l-145 -676 h-193z" />
<glyph unicode="i" horiz-adv-x="673" d="M115 139l164 762h-158v123l338 20l41 -10l-187 -876l240 161v-149l-178 -119q-31 -21 -45.5 -30.5t-48.5 -22t-66 -12.5q-51 0 -83.5 41t-16.5 112zM322 1350q0 53 34 93t97 40q48 0 80 -32.5t32 -86.5q0 -53 -34 -93t-97 -40q-48 0 -80 32.5t-32 86.5z" />
<glyph unicode="j" horiz-adv-x="573" d="M-449 -487l41 165q57 -8 136.5 -37.5t124.5 -29.5q151 0 202 239l224 1051h-158v123l338 20l41 -10l-234 -1085q-17 -76 -42.5 -143.5t-65 -129t-88 -106t-114 -70.5t-140.5 -26q-59 0 -145 17.5t-120 21.5zM322 1350q0 53 34 93t97 40q48 0 80 -32.5t32 -86.5 q0 -53 -34 -93t-97 -40q-48 0 -80 32.5t-32 86.5z" />
<glyph unicode="k" horiz-adv-x="1013" d="M45 0l307 1432h-157v120l337 21l41 -10l-335 -1563h-193zM365 512l12 53q116 157 192.5 247t143.5 142t119 68t124 16l-53 -204q-41 0 -72.5 -8.5t-74.5 -35t-95.5 -77t-125.5 -133.5l198 -418l180 117v-154l-84 -57q-76 -49 -103.5 -62.5t-57.5 -13.5q-52 0 -76 49z" />
<glyph unicode="l" horiz-adv-x="604" d="M76 139l278 1293h-159v120l337 21l41 -10l-301 -1403l242 159v-149l-178 -119q-31 -21 -45.5 -30.5t-48.5 -22t-66 -12.5q-51 0 -83.5 41t-16.5 112z" />
<glyph unicode="m" horiz-adv-x="1687" d="M86 0l193 903h-158v121l338 20l41 -10l-41 -188l215 145q75 53 147 53q163 0 156 -202l221 149q75 53 148 53q208 0 141 -313l-119 -567l240 155v-149l-178 -119q-31 -21 -45.5 -30.5t-48.5 -22t-66 -12.5q-51 0 -83 40t-16 111l132 619q19 84 -1.5 105.5t-80.5 -17.5 l-273 -176l-139 -668h-191l162 762q17 77 -3.5 98.5t-78.5 -16.5l-276 -178l2 16l-145 -682h-193z" />
<glyph unicode="n" horiz-adv-x="1181" d="M86 0l193 903h-158v121l338 20l41 -10l-39 -182l198 135q81 57 162 57q108 0 152 -80.5t14 -218.5l-123 -581l240 158v-152l-178 -119q-31 -21 -45.5 -30.5t-48.5 -22t-66 -12.5q-57 0 -84.5 44t-13.5 107l133 627q17 82 -19.5 103t-105.5 -25l-254 -166l-143 -676h-193z " />
<glyph unicode="o" horiz-adv-x="1040" d="M68 342q0 94 21.5 191t66.5 189t108.5 163.5t155 115t198.5 43.5q152 0 238 -94.5t86 -261.5q0 -93 -21 -190t-65.5 -190t-108 -166t-156 -117.5t-200.5 -44.5q-151 0 -237 94.5t-86 267.5zM272 334q0 -124 37.5 -176t118.5 -52q73 0 131 49.5t91 120.5t54.5 157.5 t29 152t7.5 112.5q0 116 -36 168t-119 52q-69 0 -125 -41t-90.5 -104.5t-57.5 -144t-32 -154t-9 -140.5z" />
<glyph unicode="p" horiz-adv-x="1124" d="M-170 -379h172l279 1282h-160v121l340 20l41 -10l-41 -182l211 141q73 51 157 51q100 0 151.5 -69.5t51.5 -226.5q0 -151 -46 -292.5t-122.5 -245.5t-181 -167t-215.5 -63q-99 0 -184 45l-88 -404h215v-133h-580v133zM322 203q43 -97 157 -97q95 0 176.5 97t125.5 241.5 t44 292.5q0 69 -16.5 99t-58.5 30q-9 0 -18.5 -2t-16 -4t-16.5 -7l-14 -7t-14.5 -9t-13.5 -8l-233 -151z" />
<glyph unicode="q" horiz-adv-x="1083" d="M61 287q0 151 46 291t122 242t180 163t216 61q144 0 243 -83l99 71l41 -10l-303 -1401h153v-133h-579v133h235l121 569l-139 -104q-69 -53 -122 -74.5t-110 -21.5q-86 0 -144.5 74.5t-58.5 222.5zM268 317q0 -83 18.5 -122t67.5 -39t113 45l203 145l102 485 q-23 50 -60.5 68.5t-90.5 18.5q-97 0 -179.5 -89.5t-128 -227t-45.5 -284.5z" />
<glyph unicode="r" horiz-adv-x="886" d="M86 0l193 903h-158v121l338 20l41 -10l-58 -266l68 98q69 102 116 140t109 38q35 0 61 -11.5t62 -34.5t68 -37l-92 -181q-38 15 -70.5 34t-50.5 28.5t-37 9.5q-41 0 -78 -31.5t-94 -113.5l-109 -154l-116 -553h-193z" />
<glyph unicode="s" horiz-adv-x="794" d="M-10 31l41 166q51 -7 154.5 -40.5t162.5 -33.5q52 0 79.5 23t27.5 63q0 48 -17 91.5t-44 78t-60 68.5t-66 68.5t-60 71t-44 84t-17 99.5q0 113 90.5 193.5t233.5 80.5q69 0 152 -20t118 -23l-39 -161q-54 7 -132.5 40t-133.5 33q-48 0 -77 -23.5t-29 -70.5q0 -51 32 -101 t78 -94.5t91.5 -92.5t77.5 -113t32 -137q0 -137 -90.5 -216t-241.5 -79q-74 0 -184 21t-135 24z" />
<glyph unicode="t" horiz-adv-x="784" d="M100 891v133h191l39 184l155 86h58l-58 -270h269v-133h-297l-129 -615q-22 -100 21.5 -117t146.5 50l170 110v-149l-144 -98q-71 -50 -120.5 -69t-98.5 -19q-61 0 -101 26t-56 69t-18 100t13 118l123 594h-164z" />
<glyph unicode="u" horiz-adv-x="1177" d="M104 901v123l338 20l41 -10l-166 -776q-15 -81 28.5 -98t135.5 41l211 135l150 688h192l-188 -860l239 155v-149l-178 -119q-65 -45 -103 -57q-28 -8 -56 -8q-51 0 -83 40t-16 111l6 33l-192 -131q-46 -31 -84 -43t-86 -12q-102 0 -145.5 79.5t-16.5 202.5l131 635h-158z " />
<glyph unicode="v" horiz-adv-x="995" d="M78 901v123l311 20l41 -10l35 -829q130 133 213.5 312.5t114.5 383.5h-123v123l262 16l43 -10q-78 -652 -514 -977l-72 -53h-102l-41 901h-168z" />
<glyph unicode="w" horiz-adv-x="1511" d="M80 901v123l307 20l41 -10l18 -817q119 148 211.5 334t124.5 350h-139v123l272 20l41 -10l21 -846q133 133 225.5 328t116.5 385h-141v123l262 16l43 -10q-56 -633 -500 -979l-65 -51h-117l-13 567q-61 -148 -157 -288.5t-199 -233.5l-49 -45h-115l-20 901h-168z" />
<glyph unicode="x" horiz-adv-x="1091" d="M12 -20l43 208q31 0 61.5 11t75 42.5t105.5 100t135 172.5l-156 387h-180v123l287 20l41 -10l156 -389q135 209 237 301t207 92l-43 -209q-61 0 -143.5 -64t-210.5 -235l164 -407h180v-123l-285 -16l-41 10l-164 403q-143 -227 -249.5 -322t-219.5 -95z" />
<glyph unicode="y" horiz-adv-x="1062" d="M6 -410q57 66 132 127.5t161.5 123t128.5 96.5l-186 964h-168v123l305 20l41 -10l162 -907q98 168 162.5 380.5t76.5 393.5h-141v123l262 16l43 -10q0 -160 -33 -319t-90.5 -293.5t-117.5 -240.5t-130 -200q-82 -111 -157.5 -194.5t-158.5 -166t-138 -144.5z" />
<glyph unicode="z" horiz-adv-x="886" d="M-4 0v84l625 786h-338l-47 -120h-99l60 274h651v-84l-623 -786h355l49 122h98l-59 -276h-672z" />
<glyph unicode="{" horiz-adv-x="667" d="M37 571v113q129 22 190.5 75.5t83.5 166.5l74 379q30 152 105.5 227.5t207.5 75.5h111v-105h-86q-78 0 -117 -44t-61 -154l-70 -359q-34 -181 -184 -287q110 -92 67 -321l-86 -442q-10 -58 -11 -102.5t28.5 -70.5t91.5 -26h47v-105h-121q-132 0 -178 75.5t-16 228.5 l82 428q42 215 -7 280q-82 -28 -151 -33z" />
<glyph unicode="|" horiz-adv-x="520" d="M-20 -530l370 2097h160l-371 -2097h-159z" />
<glyph unicode="}" horiz-adv-x="671" d="M-139 -303h86q78 0 117 44t61 155l70 358q34 180 182 287q-35 29 -54 68.5t-25 103.5t13 149l86 443q10 58 11 102t-28 70t-91 26h-47v105h120q133 0 179 -75.5t16 -227.5l-82 -428q-43 -217 6 -281q81 28 152 33v-113q-129 -22 -191.5 -75.5t-83.5 -166.5l-73 -378 q-30 -152 -105.5 -228t-208.5 -76h-110v105z" />
<glyph unicode="~" horiz-adv-x="1144" d="M106 580q4 7 11 19.5t33.5 44t57.5 55.5t83 43.5t110 19.5q51 0 93 -11t70.5 -27t55.5 -31.5t61.5 -26.5t74.5 -11q32 0 61.5 10t49 24.5t34.5 29.5t22 25l7 10l110 -82q-4 -7 -11 -19.5t-33.5 -44t-57.5 -55.5t-83 -44t-110 -20q-52 0 -92.5 11t-67.5 26.5t-52.5 31.5 t-61.5 27t-80 11q-32 0 -61.5 -10t-49 -24.5t-34.5 -29t-22 -24.5l-7 -10z" />
<glyph unicode="&#xa1;" horiz-adv-x="548" d="M-18 -426l206 995h170l-161 -985zM203 899q0 65 42.5 108.5t106.5 43.5q51 0 81 -30.5t30 -80.5q0 -65 -43 -108.5t-107 -43.5q-51 0 -80.5 30.5t-29.5 80.5z" />
<glyph unicode="&#xa2;" horiz-adv-x="911" d="M72 379q0 147 57 288t166.5 243.5t245.5 125.5l47 234h139l-47 -230q29 -4 79.5 -19t82.5 -22l-54 -163q-36 9 -102.5 38t-118.5 29q-81 0 -149 -78t-105 -196t-37 -242q0 -125 44.5 -184.5t113.5 -59.5q49 0 88.5 19.5t93.5 60.5l125 96v-151l-94 -72 q-111 -86 -194 -106l-47 -223h-140l45 219q-115 20 -177 122t-62 271z" />
<glyph unicode="&#xa3;" horiz-adv-x="1167" d="M41 0v123q78 22 125.5 61.5t77 121.5t35.5 214l4 86h-164v123h170l10 207q27 526 541 526q83 0 158.5 -10t109.5 -20l35 -9l-64 -368h-123v264q-78 8 -135 8q-153 0 -234 -92.5t-89 -253.5l-13 -252h365v-123h-371q-7 -167 -43 -278t-123 -174h506l66 200h123l-64 -354 h-903z" />
<glyph unicode="&#xa5;" horiz-adv-x="1454" d="M213 1313v121h494v-121h-146l170 -426q13 -33 28.5 -78t24.5 -73l9 -29h8q38 78 110 184l195 289q46 64 74 133h-117v121h432v-121h-152l-454 -649h233v-134h-288l-25 -145h272v-133h-297l-22 -129h153v-123h-528v123h174l23 129h-262v133h286l27 145h-273v134h267 l-267 649h-149z" />
<glyph unicode="&#xa6;" horiz-adv-x="503" d="M-47 -530l158 823h159l-159 -823h-158zM203 764l155 803h160l-156 -803h-159z" />
<glyph unicode="&#xa7;" horiz-adv-x="1034" d="M35 25l24 157q60 -4 152 -24.5t156 -20.5q115 0 170 39t55 96q0 38 -25.5 67.5t-66 50t-89.5 40.5t-97.5 45t-89 56t-66 80.5t-25.5 113.5q0 86 60.5 163t156.5 126q-45 57 -45 147q0 128 108 215.5t310 87.5q80 0 178 -19.5t141 -21.5l-24 -157q-60 4 -151.5 24.5 t-155.5 20.5q-115 0 -170.5 -39t-55.5 -96q0 -38 25.5 -67.5t66 -50t89.5 -40.5t97.5 -45t89 -56t66 -80.5t25.5 -113.5q0 -87 -61 -164t-156 -125q45 -65 45 -147q0 -128 -108 -215.5t-310 -87.5q-80 0 -178 19.5t-141 21.5zM315 758q0 -51 37 -90t84.5 -59.5t116.5 -52 t109 -60.5q100 75 100 194q0 41 -22.5 73t-62 54.5t-81.5 41t-94.5 43.5t-87.5 50q-47 -35 -73 -86.5t-26 -107.5z" />
<glyph unicode="&#xa8;" horiz-adv-x="1028" d="M193 1391q0 53 34 93t97 40q48 0 80 -32.5t32 -86.5q0 -53 -34 -93t-97 -40q-48 0 -80 32.5t-32 86.5zM588 1391q0 53 34 93t97 40q48 0 80 -32.5t32 -86.5q0 -53 -34 -93t-97 -40q-48 0 -80 32.5t-32 86.5z" />
<glyph unicode="&#xa9;" horiz-adv-x="1683" d="M115 575q0 178 66.5 341t182 285t284 194.5t360.5 72.5q287 0 445.5 -156.5t158.5 -434.5q0 -178 -66.5 -341t-182 -285t-284 -194.5t-360.5 -72.5q-287 0 -445.5 156.5t-158.5 434.5zM293 575q0 -213 120.5 -339.5t323.5 -126.5q142 0 269.5 56t222 154.5t150 243.5 t55.5 314q0 213 -121 339.5t-324 126.5q-142 0 -269.5 -56t-221.5 -154.5t-149.5 -243.5t-55.5 -314zM504 635q0 223 139 368.5t356 145.5q56 0 104.5 -8.5t68.5 -16.5l20 -8l-57 -266h-95v178q-5 0 -15 1t-15 1q-153 0 -243.5 -104t-90.5 -267q0 -100 51.5 -153t146.5 -53 q50 0 102.5 10.5t79.5 20.5l27 10l-18 -117q-11 -6 -31 -14.5t-85.5 -22.5t-133.5 -14q-146 0 -228.5 82t-82.5 227z" />
<glyph unicode="&#xab;" horiz-adv-x="1126" d="M33 504v43l131 100q125 94 209.5 174t148.5 166l131 -88q-41 -63 -123 -149.5t-178 -159.5l-108 -84l61 -70q54 -61 109 -169.5t80 -200.5l-158 -48q-81 225 -217 385zM473 504v43l131 100q125 95 210 174.5t149 165.5l131 -88q-41 -63 -123 -149.5t-178 -159.5l-109 -84 l61 -70q54 -61 109 -169.5t80 -200.5l-158 -48q-81 225 -217 385z" />
<glyph unicode="&#xac;" horiz-adv-x="1218" d="M166 508v151h844v-378h-138v227h-706z" />
<glyph unicode="&#xad;" horiz-adv-x="903" d="M152 516v141l596 21v-141z" />
<glyph unicode="&#xae;" horiz-adv-x="1026" d="M174 1004q0 93 35.5 177t99 146.5t157 99.5t202.5 37q157 0 250.5 -87t93.5 -224q0 -93 -35.5 -177t-99 -147t-157 -100t-202.5 -37q-157 0 -250.5 87.5t-93.5 224.5zM303 1006q0 -112 60 -167t167 -55q65 0 126 21.5t113 64.5t83 115.5t31 165.5q0 104 -62 163.5 t-166 59.5q-65 0 -126 -22t-112.5 -65t-82.5 -116t-31 -165zM381 895v82h57l43 225h-59v82h231q67 0 103.5 -31t36.5 -84q0 -95 -111 -127l29 -65h53v-82h-133l-45 121h-41l-25 -121h-139zM557 1094h41q41 0 65.5 15.5t24.5 43.5q0 53 -72 53h-36z" />
<glyph unicode="&#xaf;" horiz-adv-x="745" d="M51 1135v120h500v-120h-500z" />
<glyph unicode="&#xb0;" horiz-adv-x="829" d="M197 1180q0 169 105 272.5t267 103.5q131 0 206 -70t75 -183q0 -169 -105.5 -273t-267.5 -104q-131 0 -205.5 70.5t-74.5 183.5zM356 1210q0 -75 35 -116t101 -41q92 0 145 65t53 154q0 75 -35 117.5t-100 42.5q-92 0 -145.5 -67t-53.5 -155z" />
<glyph unicode="&#xb1;" horiz-adv-x="1138" d="M70 123v151h841v-151h-841zM180 631v151h352l56 285h164l-56 -285h326v-151h-356l-56 -283h-164l56 283h-322z" />
<glyph unicode="&#xb4;" horiz-adv-x="602" d="M88 1292l365 299l106 -147l-414 -236z" />
<glyph unicode="&#xb5;" horiz-adv-x="1085" d="M-41 -414l145 688q12 53 24.5 112t24.5 116.5t23.5 112t24.5 117t24 112.5l29 180h201l-160 -756q-20 -99 21.5 -126t129.5 30l216 139l153 713h193l-185 -866l-26 -158l-203 -6l39 182l-213 -143q-75 -53 -148 -53q-45 0 -88 24q1 -67 1.5 -124.5t-5.5 -125t-20 -129.5 l-8 -39h-193z" />
<glyph unicode="&#xb6;" horiz-adv-x="1427" d="M86 389q0 291 200 463t554 172h473l-297 -1536h-160l272 1401h-159l-273 -1401h-159l98 512h-74q-233 0 -354 103t-121 286zM289 424q0 -272 323 -272h54l141 735h-49q-207 0 -338 -126.5t-131 -336.5z" />
<glyph unicode="&#xb7;" horiz-adv-x="514" d="M127 559q0 53 34 93t97 40q49 0 81 -32.5t32 -86.5q0 -53 -34 -93t-97 -40q-49 0 -81 32.5t-32 86.5z" />
<glyph unicode="&#xb8;" horiz-adv-x="491" d="M45 -397l33 71q59 -36 131 -36q58 0 86.5 26.5t28.5 65.5q0 25 -22.5 39t-55.5 14q-26 0 -48.5 -5.5t-31.5 -11.5l-10 -6l-37 41l149 166h123l-94 -100q67 2 118.5 -31t51.5 -96t-32.5 -108.5t-75 -64t-87.5 -18.5q-68 0 -125 13.5t-79 27.5z" />
<glyph unicode="&#xbb;" horiz-adv-x="1130" d="M0 104q41 64 123 150.5t178 159.5l109 84l-62 69q-54 61 -108 170t-80 201l157 47q81 -223 218 -385l86 -100v-43l-132 -101q-125 -94 -209.5 -174t-148.5 -166zM440 104q41 64 123 150.5t178 159.5l109 84l-62 69q-54 61 -108 170t-80 201l158 47q81 -225 217 -385 l86 -100v-43l-131 -101q-125 -95 -210 -174.5t-149 -165.5z" />
<glyph unicode="&#xbc;" horiz-adv-x="1605" d="M141 664v102h156l109 551l-162 -10l-13 73l304 66h36l-133 -680h164v-102h-461zM231 82q647 747 1164 1370l102 -78q-559 -638 -1165 -1374zM821 178v62l465 557l117 -17l-100 -518l155 2l-12 -86h-160l-18 -92l-17 -106h-141l37 198h-326zM940 262h223l45 236l31 125h-4 q-39 -62 -78 -109z" />
<glyph unicode="&#xbd;" horiz-adv-x="1722" d="M141 664v102h156l109 551l-162 -10l-13 73l304 66h36l-133 -680h164v-102h-461zM231 82q647 747 1164 1370l102 -78q-559 -638 -1165 -1374zM989 0v61l182 175q138 133 164 162q72 80 82 151q2 16 2 33q0 125 -153 125q-43 0 -78 -7l-14 -143h-87v205q93 37 236 37 q109 0 171 -52.5t62 -146.5q0 -47 -20.5 -94.5t-64 -100t-88 -96.5t-115.5 -108l-107 -97h287l18 107h84l-18 -211h-543z" />
<glyph unicode="&#xbe;" horiz-adv-x="1638" d="M113 700l28 82q68 -32 158 -32q99 0 153 39t54 112q0 123 -139 123h-41v88h49q85 0 132.5 43t47.5 107q0 51 -35 77.5t-94 26.5q-30 0 -80 -10l-18 -105h-64l10 170q76 33 191 33q118 0 180 -48t62 -120q0 -76 -59 -135t-156 -82q73 -9 117 -51.5t44 -114.5 q0 -107 -81 -177.5t-244 -70.5q-56 0 -110 11.5t-80 22.5zM264 82q622 718 1163 1370l103 -78q-559 -638 -1165 -1374zM854 178v62l465 557l117 -17l-101 -518l156 2l-12 -86h-160l-19 -92l-16 -106h-141l37 198h-326zM973 262h223l45 236l31 125h-4q-39 -62 -78 -109z" />
<glyph unicode="&#xbf;" horiz-adv-x="905" d="M-29 -176q0 73 26 136.5t67.5 109t92 84.5t100.5 70t91.5 58.5t67.5 56.5t26 58q0 17 -9.5 31t-26.5 14q-26 0 -58 -24l-67 108q10 9 27 22t68.5 34.5t100.5 21.5q69 0 116.5 -43.5t47.5 -107.5q0 -63 -25.5 -115.5t-66 -89t-89.5 -70.5t-98.5 -67.5t-90 -70t-66 -89 t-25.5 -115.5q0 -60 51.5 -95.5t141.5 -35.5q72 0 152.5 24.5t124.5 48.5l44 25l-28 -161q-5 -4 -15.5 -10.5t-46 -24t-75 -30.5t-101.5 -23.5t-127 -10.5q-162 0 -246 79t-84 202zM420 885q0 65 42.5 108t106.5 43q51 0 81 -30t30 -80q0 -65 -43 -108.5t-107 -43.5 q-51 0 -80.5 30.5t-29.5 80.5z" />
<glyph unicode="&#xc0;" horiz-adv-x="1325" d="M-78 0v123h156l631 1313l190 12l188 -1325h152v-123h-498v123h140l-37 274h-488l-37 -80q-47 -104 -77 -194h153v-123h-473zM412 518h415l-71 535l-19 182h-8q-20 -80 -65 -176zM469 1972l152 101l239 -404l-88 -63z" />
<glyph unicode="&#xc1;" horiz-adv-x="1325" d="M-78 0v123h156l631 1313l190 12l188 -1325h152v-123h-498v123h140l-37 274h-488l-37 -80q-47 -104 -77 -194h153v-123h-473zM412 518h415l-71 535l-19 182h-8q-20 -80 -65 -176zM694 1675l365 299l106 -147l-413 -236z" />
<glyph unicode="&#xc2;" horiz-adv-x="1325" d="M-78 0v123h156l631 1313l190 12l188 -1325h152v-123h-498v123h140l-37 274h-488l-37 -80q-47 -104 -77 -194h153v-123h-473zM412 518h415l-71 535l-19 182h-8q-20 -80 -65 -176zM522 1655l326 243h59l215 -253l-67 -66l-195 156l-287 -160z" />
<glyph unicode="&#xc3;" horiz-adv-x="1325" d="M-78 0v123h156l631 1313l190 12l188 -1325h152v-123h-498v123h140l-37 274h-488l-37 -80q-47 -104 -77 -194h153v-123h-473zM412 518h415l-71 535l-19 182h-8q-20 -80 -65 -176zM446 1645q22 83 86 141.5t154 58.5q46 0 85.5 -15t62.5 -33t55.5 -33t66.5 -15 q24 0 45.5 9.5t35.5 23.5t25 28t16 24l5 9l111 -39q-22 -83 -86 -141.5t-154 -58.5q-48 0 -88 15t-62.5 33t-54 33t-65.5 15q-24 0 -45.5 -10t-35 -24.5t-24.5 -29t-15 -24.5l-5 -10z" />
<glyph unicode="&#xc4;" horiz-adv-x="1325" d="M-78 0v123h156l631 1313l190 12l188 -1325h152v-123h-498v123h140l-37 274h-488l-37 -80q-47 -104 -77 -194h153v-123h-473zM412 518h415l-71 535l-19 182h-8q-20 -80 -65 -176zM516 1712q0 53 34 93t97 40q49 0 81 -32.5t32 -86.5q0 -53 -34 -93t-97 -40q-49 0 -81 32.5 t-32 86.5zM911 1712q0 53 34 93t97 40q49 0 81 -32.5t32 -86.5q0 -53 -34 -93t-97 -40q-49 0 -81 32.5t-32 86.5z" />
<glyph unicode="&#xc5;" horiz-adv-x="1325" d="M-78 0v123h156l631 1313l190 12l188 -1325h152v-123h-498v123h140l-37 274h-488l-37 -80q-47 -104 -77 -194h153v-123h-473zM412 518h415l-71 535l-19 182h-8q-20 -80 -65 -176zM614 1735q0 100 73 155.5t169 55.5q87 0 141 -44t54 -126q0 -100 -73 -155.5t-167 -55.5 q-88 0 -142.5 44t-54.5 126zM737 1745q0 -41 23 -65.5t61 -24.5q44 0 74.5 31t30.5 79q0 41 -22 64.5t-60 23.5q-44 0 -75.5 -30t-31.5 -78z" />
<glyph unicode="&#xc6;" horiz-adv-x="1779" d="M-115 0v123h140l872 1190h-98v121h983l-21 -349h-114l2 228h-437l-96 -529l420 9l-31 -144l-411 17l-99 -543h451l65 231h127l-79 -354h-930l-2 123h170l49 272h-469l-55 -78q-77 -107 -127 -194h116v-123h-426zM465 518h403l138 768h-7q-24 -66 -92 -162z" />
<glyph unicode="&#xc7;" horiz-adv-x="1228" d="M115 514q0 134 32 268t98 256.5t157.5 217t219.5 150.5t275 56q72 0 134.5 -8.5t100 -20.5t65.5 -24t39 -21l11 -8l-22 -295h-121l4 203q-89 37 -215 37q-107 0 -199 -43.5t-157.5 -117.5t-112.5 -172t-69.5 -206.5t-22.5 -220.5q0 -222 95.5 -338t270.5 -116 q84 0 170 28l56 215h127l-66 -303q-13 -8 -36.5 -19.5t-99.5 -33t-155 -25.5l-80 -86q67 2 118.5 -31t51.5 -96q0 -48 -18.5 -86t-48 -60t-62.5 -33t-65 -11q-68 0 -125 13t-80 27l-23 13l33 72q59 -37 131 -37q58 0 86.5 26.5t28.5 65.5q0 25 -22.5 39t-55.5 14 q-26 0 -48.5 -5.5t-32.5 -11.5l-9 -5l-37 41l137 153q-215 20 -336.5 165t-121.5 374z" />
<glyph unicode="&#xc8;" horiz-adv-x="1171" d="M20 0v123h168l213 1188h-155v123h930l-21 -349h-117l2 226h-436l-96 -529l422 11l-31 -144l-414 17l-98 -543h451l67 231h125l-80 -354h-930zM502 1960l151 100l240 -403l-88 -64z" />
<glyph unicode="&#xc9;" horiz-adv-x="1171" d="M20 0v123h168l213 1188h-155v123h930l-21 -349h-117l2 226h-436l-96 -529l422 11l-31 -144l-414 17l-98 -543h451l67 231h125l-80 -354h-930zM674 1692l364 299l107 -148l-414 -235z" />
<glyph unicode="&#xca;" horiz-adv-x="1171" d="M20 0v123h168l213 1188h-155v123h930l-21 -349h-117l2 226h-436l-96 -529l422 11l-31 -144l-414 17l-98 -543h451l67 231h125l-80 -354h-930zM494 1653l325 243h60l215 -254l-68 -65l-195 156l-286 -160z" />
<glyph unicode="&#xcb;" horiz-adv-x="1171" d="M20 0v123h168l213 1188h-155v123h930l-21 -349h-117l2 226h-436l-96 -529l422 11l-31 -144l-414 17l-98 -543h451l67 231h125l-80 -354h-930zM498 1710q0 53 34 93t97 40q48 0 80 -32.5t32 -86.5q0 -53 -34 -93t-97 -40q-48 0 -80 32.5t-32 86.5zM893 1710q0 53 34 93 t97 40q49 0 81 -32.5t32 -86.5q0 -53 -34 -93t-97 -40q-49 0 -81 32.5t-32 86.5z" />
<glyph unicode="&#xcc;" horiz-adv-x="749" d="M18 0v123h170l213 1188h-155v123h528v-123h-172l-213 -1188h156l-2 -123h-525zM270 1958l152 100l240 -403l-89 -64z" />
<glyph unicode="&#xcd;" horiz-adv-x="749" d="M18 0v123h170l213 1188h-155v123h528v-123h-172l-213 -1188h156l-2 -123h-525zM475 1677l365 299l106 -147l-414 -236z" />
<glyph unicode="&#xce;" horiz-adv-x="749" d="M18 0v123h170l213 1188h-155v123h528v-123h-172l-213 -1188h156l-2 -123h-525zM238 1655l325 243h60l215 -253l-68 -66l-195 156l-286 -160z" />
<glyph unicode="&#xcf;" horiz-adv-x="749" d="M18 0v123h170l213 1188h-155v123h528v-123h-172l-213 -1188h156l-2 -123h-525zM233 1710q0 52 34.5 92.5t97.5 40.5q48 0 80 -32.5t32 -86.5q0 -53 -34 -93t-97 -40q-49 0 -81 32.5t-32 86.5zM629 1710q0 53 34 93t97 40q48 0 80 -32.5t32 -86.5q0 -53 -34 -93t-97 -40 q-48 0 -80 32.5t-32 86.5z" />
<glyph unicode="&#xd0;" horiz-adv-x="1443" d="M25 0v123h170l88 491h-199v123h219l105 576h-156v121h496q151 0 269.5 -40.5t194.5 -113.5t115 -172.5t39 -220.5q0 -200 -66.5 -367.5t-182 -281t-274 -176t-341.5 -62.5h-477zM397 123h140q126 0 239 54t195.5 149.5t131 233.5t48.5 298q0 224 -113 341.5t-342 117.5 h-88l-102 -580h262v-123h-285z" />
<glyph unicode="&#xd1;" horiz-adv-x="1538" d="M4 0v123h162l209 1180l-33 59v72l193 8l507 -969q16 -31 33 -71t26 -64l9 -25l8 2q9 95 25 179l145 819h-153v121h446v-121h-168l-231 -1313l-92 -14l-543 1020q-19 36 -37.5 76.5t-27.5 62.5l-9 22l-6 -2q-7 -90 -25 -184l-151 -858h155v-123h-442zM608 1647 q22 83 86 141.5t154 58.5q46 0 85.5 -15t62.5 -33t55.5 -33t66.5 -15q24 0 45.5 9.5t35.5 23.5t25 28t16 24l5 9l111 -39q-22 -83 -86 -141.5t-154 -58.5q-48 0 -88 15t-62.5 33t-54 33t-65.5 15q-24 0 -45.5 -10t-35 -24.5t-24.5 -29t-15 -24.5l-5 -10z" />
<glyph unicode="&#xd2;" d="M115 500q0 127 28 257.5t90 258t150 226t219.5 159.5t286.5 61q234 0 347.5 -141t113.5 -389q0 -89 -14.5 -182t-45 -187.5t-75.5 -181t-109 -161.5t-141 -130t-177.5 -87t-212.5 -32q-234 0 -347 140.5t-113 388.5zM332 535q0 -103 14.5 -177.5t49.5 -132.5t97.5 -87 t153.5 -29q113 0 206.5 67t153.5 178t93 252t33 293q0 209 -71.5 317.5t-248.5 108.5q-111 0 -204 -67t-152.5 -178.5t-92 -252.5t-32.5 -292zM618 1960l152 100l240 -403l-88 -64z" />
<glyph unicode="&#xd3;" d="M115 500q0 127 28 257.5t90 258t150 226t219.5 159.5t286.5 61q234 0 347.5 -141t113.5 -389q0 -89 -14.5 -182t-45 -187.5t-75.5 -181t-109 -161.5t-141 -130t-177.5 -87t-212.5 -32q-234 0 -347 140.5t-113 388.5zM332 535q0 -103 14.5 -177.5t49.5 -132.5t97.5 -87 t153.5 -29q113 0 206.5 67t153.5 178t93 252t33 293q0 209 -71.5 317.5t-248.5 108.5q-111 0 -204 -67t-152.5 -178.5t-92 -252.5t-32.5 -292zM834 1677l364 299l107 -147l-414 -236z" />
<glyph unicode="&#xd4;" d="M115 500q0 127 28 257.5t90 258t150 226t219.5 159.5t286.5 61q234 0 347.5 -141t113.5 -389q0 -89 -14.5 -182t-45 -187.5t-75.5 -181t-109 -161.5t-141 -130t-177.5 -87t-212.5 -32q-234 0 -347 140.5t-113 388.5zM332 535q0 -103 14.5 -177.5t49.5 -132.5t97.5 -87 t153.5 -29q113 0 206.5 67t153.5 178t93 252t33 293q0 209 -71.5 317.5t-248.5 108.5q-111 0 -204 -67t-152.5 -178.5t-92 -252.5t-32.5 -292zM582 1655l325 243h60l215 -253l-68 -66l-194 156l-287 -160z" />
<glyph unicode="&#xd5;" d="M115 500q0 127 28 257.5t90 258t150 226t219.5 159.5t286.5 61q234 0 347.5 -141t113.5 -389q0 -89 -14.5 -182t-45 -187.5t-75.5 -181t-109 -161.5t-141 -130t-177.5 -87t-212.5 -32q-234 0 -347 140.5t-113 388.5zM332 535q0 -103 14.5 -177.5t49.5 -132.5t97.5 -87 t153.5 -29q113 0 206.5 67t153.5 178t93 252t33 293q0 209 -71.5 317.5t-248.5 108.5q-111 0 -204 -67t-152.5 -178.5t-92 -252.5t-32.5 -292zM535 1655q22 83 85.5 141.5t153.5 58.5q46 0 85.5 -15t62.5 -33t55.5 -33t66.5 -15q24 0 45.5 9.5t35.5 23.5t25 28t16 24l5 9 l111 -38q-22 -83 -86 -142t-154 -59q-48 0 -88 15t-62.5 33t-54 33t-65.5 15q-24 0 -45.5 -10t-35 -24.5t-24.5 -29t-15 -24.5l-5 -10z" />
<glyph unicode="&#xd6;" d="M115 500q0 127 28 257.5t90 258t150 226t219.5 159.5t286.5 61q234 0 347.5 -141t113.5 -389q0 -89 -14.5 -182t-45 -187.5t-75.5 -181t-109 -161.5t-141 -130t-177.5 -87t-212.5 -32q-234 0 -347 140.5t-113 388.5zM332 535q0 -103 14.5 -177.5t49.5 -132.5t97.5 -87 t153.5 -29q113 0 206.5 67t153.5 178t93 252t33 293q0 209 -71.5 317.5t-248.5 108.5q-111 0 -204 -67t-152.5 -178.5t-92 -252.5t-32.5 -292zM584 1710q0 53 34 93t97 40q48 0 80 -32.5t32 -86.5q0 -53 -34 -93t-97 -40q-48 0 -80 32.5t-32 86.5zM979 1710q0 53 34 93 t97 40q49 0 81 -32.5t32 -86.5q0 -53 -34 -93t-97 -40q-49 0 -81 32.5t-32 86.5z" />
<glyph unicode="&#xd7;" horiz-adv-x="1024" d="M53 279l365 313l-221 313l108 88l217 -311l361 311l84 -104l-369 -314l221 -311l-106 -84l-219 305l-361 -307z" />
<glyph unicode="&#xd8;" d="M115 500q0 127 28 257.5t90 258t150 226t219.5 159.5t286.5 61t264 -67l98 141l111 -72l-113 -159q101 -137 101 -373q0 -89 -14.5 -182t-45 -187.5t-75.5 -181t-109 -161.5t-141 -130t-177.5 -87t-212.5 -32q-130 0 -229 47l-100 -141l-111 70l105 149 q-125 137 -125 404zM332 535q0 -160 37 -256l673 960q-77 86 -229 86q-111 0 -204 -67t-152.5 -178.5t-92 -252.5t-32.5 -292zM449 166q72 -57 198 -57q113 0 206.5 67t153.5 178t93 252t33 293q0 122 -23 207z" />
<glyph unicode="&#xd9;" horiz-adv-x="1443" d="M207 1313v121h528v-121h-174l-137 -774q-74 -418 233 -418q327 0 398 414l139 778h-164v121h477v-121h-174l-143 -797q-22 -123 -61.5 -217.5t-104.5 -170.5t-164 -116.5t-229 -40.5q-101 0 -180 29t-128.5 80.5t-80 122.5t-33 156t11.5 180l139 774h-153zM563 1960 l152 100l239 -403l-88 -64z" />
<glyph unicode="&#xda;" horiz-adv-x="1443" d="M207 1313v121h528v-121h-174l-137 -774q-74 -418 233 -418q327 0 398 414l139 778h-164v121h477v-121h-174l-143 -797q-22 -123 -61.5 -217.5t-104.5 -170.5t-164 -116.5t-229 -40.5q-101 0 -180 29t-128.5 80.5t-80 122.5t-33 156t11.5 180l139 774h-153zM809 1677 l365 299l106 -147l-414 -236z" />
<glyph unicode="&#xdb;" horiz-adv-x="1443" d="M207 1313v121h528v-121h-174l-137 -774q-74 -418 233 -418q327 0 398 414l139 778h-164v121h477v-121h-174l-143 -797q-22 -123 -61.5 -217.5t-104.5 -170.5t-164 -116.5t-229 -40.5q-101 0 -180 29t-128.5 80.5t-80 122.5t-33 156t11.5 180l139 774h-153zM623 1655 l325 243h60l215 -253l-68 -66l-194 156l-287 -160z" />
<glyph unicode="&#xdc;" horiz-adv-x="1443" d="M207 1313v121h528v-121h-174l-137 -774q-74 -418 233 -418q327 0 398 414l139 778h-164v121h477v-121h-174l-143 -797q-22 -123 -61.5 -217.5t-104.5 -170.5t-164 -116.5t-229 -40.5q-101 0 -180 29t-128.5 80.5t-80 122.5t-33 156t11.5 180l139 774h-153zM602 1712 q0 53 34 93t97 40q49 0 81 -32.5t32 -86.5q0 -53 -34 -93t-97 -40q-49 0 -81 32.5t-32 86.5zM997 1712q0 53 34 93t97 40q49 0 81 -32.5t32 -86.5q0 -53 -34 -93t-97 -40q-49 0 -81 32.5t-32 86.5z" />
<glyph unicode="&#xdd;" horiz-adv-x="1277" d="M117 1313v121h493v-121h-145l170 -426q13 -33 28 -78t24 -73l9 -29h9q38 78 110 184l195 289q43 61 73 133h-116v121h432v-121h-152l-495 -709l-86 -481h153v-123h-528v123h174l88 489l-287 701h-149zM735 1694l365 299l106 -148l-413 -235z" />
<glyph unicode="&#xde;" horiz-adv-x="1214" d="M16 0v123h170l213 1190h-155v121h549v-121h-195l-27 -148h125q225 0 349 -93t124 -261q0 -153 -80.5 -270.5t-218 -179.5t-307.5 -62h-145l-31 -176h199v-123h-570zM440 422h123q78 0 148 22t126.5 64.5t90 114t33.5 161.5q0 117 -77 187.5t-235 70.5h-98z" />
<glyph unicode="&#xdf;" horiz-adv-x="1343" d="M-10 0v133h149l158 758h-127v133h160l26 127q40 188 175 296.5t362 108.5q162 0 271.5 -78.5t109.5 -207.5q0 -67 -22.5 -123.5t-59 -96.5t-80 -74t-87 -62.5t-80 -55t-59 -58.5t-22.5 -67q0 -32 20 -59.5t52.5 -49t71 -44t77.5 -49t71.5 -57.5t52.5 -76.5t20 -100.5 q0 -144 -105.5 -230.5t-275.5 -86.5q-71 0 -177 19.5t-147 23.5l47 147q42 -4 150 -26.5t164 -22.5q76 0 119 35.5t43 89.5q0 40 -27 74.5t-67.5 58t-88 54t-88 62t-67.5 83.5t-27 116q0 61 21.5 112t56 86t76.5 66t83.5 60.5t76 61.5t56 76t21.5 97q0 82 -58.5 122 t-156.5 40q-258 0 -315 -270l-242 -1145h-311z" />
<glyph unicode="&#xe0;" horiz-adv-x="1148" d="M61 287q0 151 46 291t122 242t180 163t216 61q140 0 233 -75l105 67l41 -10l-187 -866l242 159v-149l-178 -119q-31 -21 -45.5 -30.5t-48.5 -22t-66 -12.5q-51 0 -83.5 41t-16.5 112l10 47l-135 -100q-69 -53 -122 -74.5t-110 -21.5q-86 0 -144.5 74.5t-58.5 222.5z M268 317q0 -83 18.5 -122t67.5 -39t113 45l197 141l106 492q-43 84 -149 84q-97 0 -179.5 -89.5t-128 -227t-45.5 -284.5zM436 1573l152 100l239 -403l-88 -64z" />
<glyph unicode="&#xe1;" horiz-adv-x="1148" d="M61 287q0 151 46 291t122 242t180 163t216 61q140 0 233 -75l105 67l41 -10l-187 -866l242 159v-149l-178 -119q-31 -21 -45.5 -30.5t-48.5 -22t-66 -12.5q-51 0 -83.5 41t-16.5 112l10 47l-135 -100q-69 -53 -122 -74.5t-110 -21.5q-86 0 -144.5 74.5t-58.5 222.5z M268 317q0 -83 18.5 -122t67.5 -39t113 45l197 141l106 492q-43 84 -149 84q-97 0 -179.5 -89.5t-128 -227t-45.5 -284.5zM614 1292l365 299l106 -147l-413 -236z" />
<glyph unicode="&#xe2;" horiz-adv-x="1148" d="M61 287q0 151 46 291t122 242t180 163t216 61q140 0 233 -75l105 67l41 -10l-187 -866l242 159v-149l-178 -119q-31 -21 -45.5 -30.5t-48.5 -22t-66 -12.5q-51 0 -83.5 41t-16.5 112l10 47l-135 -100q-69 -53 -122 -74.5t-110 -21.5q-86 0 -144.5 74.5t-58.5 222.5z M268 317q0 -83 18.5 -122t67.5 -39t113 45l197 141l106 492q-43 84 -149 84q-97 0 -179.5 -89.5t-128 -227t-45.5 -284.5zM406 1270l325 243h60l215 -253l-68 -66l-195 156l-286 -160z" />
<glyph unicode="&#xe3;" horiz-adv-x="1148" d="M61 287q0 151 46 291t122 242t180 163t216 61q140 0 233 -75l105 67l41 -10l-187 -866l242 159v-149l-178 -119q-31 -21 -45.5 -30.5t-48.5 -22t-66 -12.5q-51 0 -83.5 41t-16.5 112l10 47l-135 -100q-69 -53 -122 -74.5t-110 -21.5q-86 0 -144.5 74.5t-58.5 222.5z M268 317q0 -83 18.5 -122t67.5 -39t113 45l197 141l106 492q-43 84 -149 84q-97 0 -179.5 -89.5t-128 -227t-45.5 -284.5zM346 1245q22 83 86 142t154 59q46 0 85.5 -15t62.5 -33t55.5 -33t66.5 -15q24 0 45.5 9.5t35.5 23.5t25 28t16 23l5 10l111 -39q-22 -83 -86 -142 t-154 -59q-48 0 -88 15t-62.5 33t-54 33t-65.5 15q-24 0 -45.5 -10t-35 -24.5t-24.5 -29t-15 -24.5l-5 -10z" />
<glyph unicode="&#xe4;" horiz-adv-x="1148" d="M61 287q0 151 46 291t122 242t180 163t216 61q140 0 233 -75l105 67l41 -10l-187 -866l242 159v-149l-178 -119q-31 -21 -45.5 -30.5t-48.5 -22t-66 -12.5q-51 0 -83.5 41t-16.5 112l10 47l-135 -100q-69 -53 -122 -74.5t-110 -21.5q-86 0 -144.5 74.5t-58.5 222.5z M268 317q0 -83 18.5 -122t67.5 -39t113 45l197 141l106 492q-43 84 -149 84q-97 0 -179.5 -89.5t-128 -227t-45.5 -284.5zM387 1325q0 53 34 93t97 40q49 0 81 -32.5t32 -86.5q0 -53 -34 -93t-97 -40q-49 0 -81 32.5t-32 86.5zM782 1325q0 53 34 93t97 40q49 0 81 -32.5 t32 -86.5q0 -53 -34 -93t-97 -40q-49 0 -81 32.5t-32 86.5z" />
<glyph unicode="&#xe5;" horiz-adv-x="1148" d="M61 287q0 151 46 291t122 242t180 163t216 61q140 0 233 -75l105 67l41 -10l-187 -866l242 159v-149l-178 -119q-31 -21 -45.5 -30.5t-48.5 -22t-66 -12.5q-51 0 -83.5 41t-16.5 112l10 47l-135 -100q-69 -53 -122 -74.5t-110 -21.5q-86 0 -144.5 74.5t-58.5 222.5z M268 317q0 -83 18.5 -122t67.5 -39t113 45l197 141l106 492q-43 84 -149 84q-97 0 -179.5 -89.5t-128 -227t-45.5 -284.5zM502 1368q0 100 73 155.5t168 55.5q87 0 141 -44t54 -126q0 -100 -73 -155.5t-167 -55.5q-88 0 -142 44t-54 126zM625 1378q0 -41 23 -65.5t61 -24.5 q44 0 74 31t30 80q0 41 -22 64.5t-60 23.5q-44 0 -75 -30.5t-31 -78.5z" />
<glyph unicode="&#xe6;" horiz-adv-x="1538" d="M61 287q0 151 46 291t122 242t180 163t216 61q125 0 219 -63l76 63l41 -10l-13 -88q124 98 275 98q125 0 193.5 -59t68.5 -143q0 -111 -78.5 -186.5t-228.5 -127.5l-301 -102v-45q0 -122 47.5 -180t122.5 -58q42 0 80.5 19.5t91.5 60.5l124 96v-151l-94 -72 q-76 -59 -137 -87.5t-131 -28.5q-114 0 -184.5 66t-94.5 187l-206 -147q-76 -56 -122.5 -76t-109.5 -20q-86 0 -144.5 74.5t-58.5 222.5zM268 317q0 -83 18.5 -122t67.5 -39t113 45l190 135l111 504q-43 78 -147 78q-97 0 -179.5 -89.5t-128 -227t-45.5 -284.5zM899 555 l139 51q127 46 181.5 96.5t54.5 122.5q0 40 -29.5 62t-73.5 22q-84 0 -149 -72.5t-104 -191.5z" />
<glyph unicode="&#xe7;" horiz-adv-x="890" d="M72 379q0 118 40 236.5t109 214t172.5 155t220.5 59.5q44 0 75 -5t78.5 -19.5t74.5 -20.5l-54 -163q-36 9 -102.5 38t-118.5 29q-81 0 -149 -78t-105 -196t-37 -242q0 -125 44.5 -184.5t113.5 -59.5q49 0 88.5 19.5t93.5 60.5l125 96v-151l-94 -72q-96 -75 -160 -96 l-86 -92q67 2 118.5 -31t51.5 -96q0 -48 -18.5 -86.5t-48 -60t-62.5 -33t-65 -11.5q-68 0 -125 13.5t-80 26.5l-22 14l32 71q59 -37 131 -37q58 0 86.5 27t28.5 66q0 25 -22.5 39t-55.5 14q-26 0 -48.5 -6t-31.5 -12l-10 -5l-37 41l123 140q-131 8 -202.5 111t-71.5 286z " />
<glyph unicode="&#xe8;" horiz-adv-x="935" d="M70 356q0 190 77 349.5t203.5 249t270.5 89.5q125 0 193.5 -59t68.5 -143q0 -111 -79 -186.5t-229 -127.5l-301 -102v-45q0 -122 47.5 -180t122.5 -58q42 0 80.5 19.5t91.5 60.5l125 96v-151l-94 -72q-76 -59 -137 -87.5t-131 -28.5q-142 0 -225.5 102t-83.5 274z M291 553l145 53q127 46 181.5 96.5t54.5 122.5q0 40 -29.5 62t-73.5 22q-99 0 -173 -102t-105 -254zM295 1573l151 100l240 -403l-88 -64z" />
<glyph unicode="&#xe9;" horiz-adv-x="935" d="M70 356q0 190 77 349.5t203.5 249t270.5 89.5q125 0 193.5 -59t68.5 -143q0 -111 -79 -186.5t-229 -127.5l-301 -102v-45q0 -122 47.5 -180t122.5 -58q42 0 80.5 19.5t91.5 60.5l125 96v-151l-94 -72q-76 -59 -137 -87.5t-131 -28.5q-142 0 -225.5 102t-83.5 274z M291 553l145 53q127 46 181.5 96.5t54.5 122.5q0 40 -29.5 62t-73.5 22q-99 0 -173 -102t-105 -254zM481 1290l365 299l106 -147l-413 -236z" />
<glyph unicode="&#xea;" horiz-adv-x="935" d="M70 356q0 190 77 349.5t203.5 249t270.5 89.5q125 0 193.5 -59t68.5 -143q0 -111 -79 -186.5t-229 -127.5l-301 -102v-45q0 -122 47.5 -180t122.5 -58q42 0 80.5 19.5t91.5 60.5l125 96v-151l-94 -72q-76 -59 -137 -87.5t-131 -28.5q-142 0 -225.5 102t-83.5 274z M291 553l145 53q127 46 181.5 96.5t54.5 122.5q0 40 -29.5 62t-73.5 22q-99 0 -173 -102t-105 -254zM307 1286l326 244h59l215 -254l-67 -66l-195 156l-287 -160z" />
<glyph unicode="&#xeb;" horiz-adv-x="935" d="M70 356q0 190 77 349.5t203.5 249t270.5 89.5q125 0 193.5 -59t68.5 -143q0 -111 -79 -186.5t-229 -127.5l-301 -102v-45q0 -122 47.5 -180t122.5 -58q42 0 80.5 19.5t91.5 60.5l125 96v-151l-94 -72q-76 -59 -137 -87.5t-131 -28.5q-142 0 -225.5 102t-83.5 274z M276 1327q0 53 34.5 93t97.5 40q48 0 80 -32.5t32 -86.5q0 -53 -34 -93t-97 -40q-49 0 -81 32.5t-32 86.5zM291 553l145 53q127 46 181.5 96.5t54.5 122.5q0 40 -29.5 62t-73.5 22q-99 0 -173 -102t-105 -254zM672 1327q0 53 34 93t97 40q48 0 80 -32.5t32 -86.5 q0 -53 -34 -93t-97 -40q-48 0 -80 32.5t-32 86.5z" />
<glyph unicode="&#xec;" horiz-adv-x="669" d="M111 139l165 764h-159v121l338 20l41 -10l-187 -872l240 157v-149l-178 -119q-31 -21 -45.5 -30.5t-48.5 -22t-66 -12.5q-51 0 -83.5 41t-16.5 112zM117 1575l151 100l240 -403l-88 -64z" />
<glyph unicode="&#xed;" horiz-adv-x="669" d="M111 139l165 764h-159v121l338 20l41 -10l-187 -872l240 157v-149l-178 -119q-31 -21 -45.5 -30.5t-48.5 -22t-66 -12.5q-51 0 -83.5 41t-16.5 112zM254 1292l364 299l107 -147l-414 -236z" />
<glyph unicode="&#xee;" horiz-adv-x="669" d="M80 1284l326 244h59l215 -254l-68 -66l-194 156l-287 -160zM111 139l165 764h-159v121l338 20l41 -10l-187 -872l240 157v-149l-178 -119q-31 -21 -45.5 -30.5t-48.5 -22t-66 -12.5q-51 0 -83.5 41t-16.5 112z" />
<glyph unicode="&#xef;" horiz-adv-x="669" d="M63 1327q0 53 34.5 93t97.5 40q48 0 80 -32.5t32 -86.5q0 -53 -34 -93t-97 -40q-49 0 -81 32.5t-32 86.5zM111 139l165 764h-159v121l338 20l41 -10l-187 -872l240 157v-149l-178 -119q-31 -21 -45.5 -30.5t-48.5 -22t-66 -12.5q-51 0 -83.5 41t-16.5 112zM459 1327 q0 53 34 93t97 40q48 0 80 -32.5t32 -86.5q0 -53 -34 -93t-97 -40q-48 0 -80 32.5t-32 86.5z" />
<glyph unicode="&#xf0;" horiz-adv-x="1077" d="M76 371q0 114 29.5 216t85.5 183.5t147 129.5t205 48q110 0 190 -55q-37 207 -153 338l-209 -156l-72 103l184 139q-91 67 -215 117l49 114q162 -64 283 -143l184 139l74 -102l-156 -117q254 -235 254 -661q0 -76 -13 -154t-39.5 -155.5t-70 -144.5t-100 -118.5 t-135 -81.5t-170.5 -30q-168 0 -260 106t-92 285zM281 367q0 -261 178 -261q89 0 156 75t102 201t35 282q0 41 -2 61q-76 80 -195 80q-73 0 -128 -39t-85.5 -104t-45.5 -139.5t-15 -155.5z" />
<glyph unicode="&#xf1;" horiz-adv-x="1181" d="M86 0l193 903h-158v121l338 20l41 -10l-39 -182l198 135q81 57 162 57q108 0 152 -80.5t14 -218.5l-123 -581l240 158v-152l-178 -119q-31 -21 -45.5 -30.5t-48.5 -22t-66 -12.5q-57 0 -84.5 44t-13.5 107l133 627q17 82 -19.5 103t-105.5 -25l-254 -166l-143 -676h-193z M326 1247q22 83 85.5 142t153.5 59q46 0 85.5 -15t63 -33t56 -33t66.5 -15q24 0 45.5 9.5t35.5 23.5t25 28t16 23l5 10l110 -39q-22 -83 -85.5 -142t-153.5 -59q-48 0 -88 15t-63 33.5t-54.5 33.5t-65.5 15q-24 0 -45.5 -10t-35 -24.5t-24.5 -29.5t-16 -25l-4 -10z" />
<glyph unicode="&#xf2;" horiz-adv-x="1040" d="M68 342q0 94 21.5 191t66.5 189t108.5 163.5t155 115t198.5 43.5q152 0 238 -94.5t86 -261.5q0 -93 -21 -190t-65.5 -190t-108 -166t-156 -117.5t-200.5 -44.5q-151 0 -237 94.5t-86 267.5zM272 334q0 -124 37.5 -176t118.5 -52q73 0 131 49.5t91 120.5t54.5 157.5 t29 152t7.5 112.5q0 116 -36 168t-119 52q-69 0 -125 -41t-90.5 -104.5t-57.5 -144t-32 -154t-9 -140.5zM344 1573l152 100l239 -403l-88 -64z" />
<glyph unicode="&#xf3;" horiz-adv-x="1040" d="M68 342q0 94 21.5 191t66.5 189t108.5 163.5t155 115t198.5 43.5q152 0 238 -94.5t86 -261.5q0 -93 -21 -190t-65.5 -190t-108 -166t-156 -117.5t-200.5 -44.5q-151 0 -237 94.5t-86 267.5zM272 334q0 -124 37.5 -176t118.5 -52q73 0 131 49.5t91 120.5t54.5 157.5 t29 152t7.5 112.5q0 116 -36 168t-119 52q-69 0 -125 -41t-90.5 -104.5t-57.5 -144t-32 -154t-9 -140.5zM528 1292l365 299l106 -147l-413 -236z" />
<glyph unicode="&#xf4;" horiz-adv-x="1040" d="M68 342q0 94 21.5 191t66.5 189t108.5 163.5t155 115t198.5 43.5q152 0 238 -94.5t86 -261.5q0 -93 -21 -190t-65.5 -190t-108 -166t-156 -117.5t-200.5 -44.5q-151 0 -237 94.5t-86 267.5zM272 334q0 -124 37.5 -176t118.5 -52q73 0 131 49.5t91 120.5t54.5 157.5 t29 152t7.5 112.5q0 116 -36 168t-119 52q-69 0 -125 -41t-90.5 -104.5t-57.5 -144t-32 -154t-9 -140.5zM322 1284l325 244h60l215 -254l-68 -66l-195 156l-286 -160z" />
<glyph unicode="&#xf5;" horiz-adv-x="1040" d="M68 342q0 94 21.5 191t66.5 189t108.5 163.5t155 115t198.5 43.5q152 0 238 -94.5t86 -261.5q0 -93 -21 -190t-65.5 -190t-108 -166t-156 -117.5t-200.5 -44.5q-151 0 -237 94.5t-86 267.5zM258 1247q22 83 86 142t154 59q46 0 85.5 -15t62.5 -33t55.5 -33t66.5 -15 q24 0 45.5 9.5t35.5 23.5t25 28t16 23l5 10l111 -39q-22 -83 -86 -142t-154 -59q-48 0 -88 15t-62.5 33.5t-54 33.5t-65.5 15q-24 0 -45.5 -10t-35 -24.5t-24.5 -29.5t-15 -25l-5 -10zM272 334q0 -124 37.5 -176t118.5 -52q73 0 131 49.5t91 120.5t54.5 157.5t29 152 t7.5 112.5q0 116 -36 168t-119 52q-69 0 -125 -41t-90.5 -104.5t-57.5 -144t-32 -154t-9 -140.5z" />
<glyph unicode="&#xf6;" horiz-adv-x="1040" d="M68 342q0 94 21.5 191t66.5 189t108.5 163.5t155 115t198.5 43.5q152 0 238 -94.5t86 -261.5q0 -93 -21 -190t-65.5 -190t-108 -166t-156 -117.5t-200.5 -44.5q-151 0 -237 94.5t-86 267.5zM272 334q0 -124 37.5 -176t118.5 -52q73 0 131 49.5t91 120.5t54.5 157.5 t29 152t7.5 112.5q0 116 -36 168t-119 52q-69 0 -125 -41t-90.5 -104.5t-57.5 -144t-32 -154t-9 -140.5zM309 1325q0 53 34 93t97 40q49 0 81 -32.5t32 -86.5q0 -53 -34 -93t-97 -40q-49 0 -81 32.5t-32 86.5zM705 1325q0 53 34 93t97 40q48 0 80 -32.5t32 -86.5 q0 -53 -34 -93t-97 -40q-48 0 -80 32.5t-32 86.5z" />
<glyph unicode="&#xf7;" horiz-adv-x="1110" d="M119 508v151h862v-151h-862zM352 211q0 65 43 108t107 43q51 0 80.5 -30t29.5 -80q0 -65 -42.5 -108.5t-106.5 -43.5q-51 0 -81 30.5t-30 80.5zM473 922q0 65 43 108t107 43q51 0 80.5 -30t29.5 -80q0 -65 -42.5 -108.5t-106.5 -43.5q-51 0 -81 30.5t-30 80.5z" />
<glyph unicode="&#xf8;" horiz-adv-x="1040" d="M18 -57l115 157q-65 89 -65 242q0 94 21.5 191t66.5 189t108.5 163.5t155 115t198.5 43.5q98 0 168 -40l101 137l102 -68l-110 -151q63 -91 63 -234q0 -93 -21 -190t-65.5 -190t-108 -166t-156 -117.5t-200.5 -44.5q-97 0 -168 38l-102 -141zM272 293l424 584 q-35 41 -110 41q-69 0 -125 -41t-90.5 -104.5t-57.5 -144t-32 -154t-9 -140.5v-41zM317 147q35 -41 111 -41q73 0 131 49.5t91 120.5t54.5 157.5t29 152t7.5 112.5q0 23 -2 33z" />
<glyph unicode="&#xf9;" horiz-adv-x="1177" d="M104 901v123l338 20l41 -10l-166 -776q-15 -81 28.5 -98t135.5 41l211 135l150 688h192l-188 -860l239 155v-149l-178 -119q-65 -45 -103 -57q-28 -8 -56 -8q-51 0 -83 40t-16 111l6 33l-192 -131q-46 -31 -84 -43t-86 -12q-102 0 -145.5 79.5t-16.5 202.5l131 635h-158z M350 1573l152 100l239 -403l-88 -64z" />
<glyph unicode="&#xfa;" horiz-adv-x="1177" d="M104 901v123l338 20l41 -10l-166 -776q-15 -81 28.5 -98t135.5 41l211 135l150 688h192l-188 -860l239 155v-149l-178 -119q-65 -45 -103 -57q-28 -8 -56 -8q-51 0 -83 40t-16 111l6 33l-192 -131q-46 -31 -84 -43t-86 -12q-102 0 -145.5 79.5t-16.5 202.5l131 635h-158z M582 1290l364 299l107 -147l-414 -236z" />
<glyph unicode="&#xfb;" horiz-adv-x="1177" d="M104 901v123l338 20l41 -10l-166 -776q-15 -81 28.5 -98t135.5 41l211 135l150 688h192l-188 -860l239 155v-149l-178 -119q-65 -45 -103 -57q-28 -8 -56 -8q-51 0 -83 40t-16 111l6 33l-192 -131q-46 -31 -84 -43t-86 -12q-102 0 -145.5 79.5t-16.5 202.5l131 635h-158z M362 1286l326 244h60l215 -254l-68 -66l-195 156l-286 -160z" />
<glyph unicode="&#xfc;" horiz-adv-x="1177" d="M104 901v123l338 20l41 -10l-166 -776q-15 -81 28.5 -98t135.5 41l211 135l150 688h192l-188 -860l239 155v-149l-178 -119q-65 -45 -103 -57q-28 -8 -56 -8q-51 0 -83 40t-16 111l6 33l-192 -131q-46 -31 -84 -43t-86 -12q-102 0 -145.5 79.5t-16.5 202.5l131 635h-158z M367 1327q0 53 34 93t97 40q48 0 80 -32.5t32 -86.5q0 -53 -34 -93t-97 -40q-48 0 -80 32.5t-32 86.5zM762 1327q0 53 34 93t97 40q49 0 81 -32.5t32 -86.5q0 -53 -34.5 -93t-97.5 -40q-48 0 -80 32.5t-32 86.5z" />
<glyph unicode="&#xfd;" horiz-adv-x="1062" d="M6 -410q57 66 132 127.5t161.5 123t128.5 96.5l-186 964h-168v123l305 20l41 -10l162 -907q98 168 162.5 380.5t76.5 393.5h-141v123l262 16l43 -10q0 -160 -33 -319t-90.5 -293.5t-117.5 -240.5t-130 -200q-82 -111 -157.5 -194.5t-158.5 -166t-138 -144.5zM532 1294 l365 299l107 -147l-414 -236z" />
<glyph unicode="&#xfe;" horiz-adv-x="1079" d="M-213 -389h170l397 1827h-164v112l342 19l41 -10l-153 -707l209 141q73 51 157 51q100 0 151.5 -69.5t51.5 -226.5q0 -151 -46 -292.5t-122.5 -245.5t-181 -167t-215.5 -63q-99 0 -184 45l-90 -414h217v-123h-580v123zM279 203q43 -97 157 -97q95 0 176.5 97t125.5 241.5 t44 292.5q0 69 -16.5 99t-58.5 30q-9 0 -18.5 -2t-16 -4t-16.5 -7l-14 -7t-14.5 -9t-13.5 -8l-233 -151z" />
<glyph unicode="&#xff;" horiz-adv-x="1062" d="M6 -410q57 66 132 127.5t161.5 123t128.5 96.5l-186 964h-168v123l305 20l41 -10l162 -907q98 168 162.5 380.5t76.5 393.5h-141v123l262 16l43 -10q0 -160 -33 -319t-90.5 -293.5t-117.5 -240.5t-130 -200q-82 -111 -157.5 -194.5t-158.5 -166t-138 -144.5zM283 1325 q0 53 34 93t97 40q48 0 80 -32.5t32 -86.5q0 -53 -34 -93t-97 -40q-48 0 -80 32.5t-32 86.5zM678 1325q0 53 34 93t97 40q49 0 81 -32.5t32 -86.5q0 -53 -34 -93t-97 -40q-49 0 -81 32.5t-32 86.5z" />
<glyph unicode="&#x152;" horiz-adv-x="1955" d="M115 500q0 127 28 258t88.5 258t145.5 225.5t210.5 159.5t272.5 61q225 0 328 -170l24 142h764l-61 -349h-84l2 234l-436 12l-97 -547h400l-23 -125l-395 23l-102 -580l450 9l109 243h84l-80 -354h-785l19 102q-163 -131 -395 -131q-121 0 -211.5 37.5t-146 108.5 t-82.5 166.5t-27 216.5zM332 535q0 -82 9 -149t31 -127.5t57 -101.5t90.5 -65t127.5 -24q116 0 212.5 66.5t154.5 182.5l116 656q-20 393 -299 393q-95 0 -177 -48t-140 -129.5t-100 -188.5t-62 -225.5t-20 -239.5z" />
<glyph unicode="&#x153;" horiz-adv-x="1576" d="M68 342q0 94 21.5 191t66.5 189t108.5 163.5t155 115t198.5 43.5q101 0 174.5 -43.5t110.5 -123.5q75 79 168 123t191 44q125 0 193.5 -59t68.5 -143q0 -111 -78.5 -186.5t-228.5 -127.5l-302 -102v-45q0 -122 47.5 -180t122.5 -58q42 0 80.5 19.5t91.5 60.5l125 96v-151 l-94 -72q-76 -59 -137 -87.5t-131 -28.5q-93 0 -161 43.5t-107 123.5q-147 -167 -361 -167q-151 0 -237 94.5t-86 267.5zM272 334q0 -124 37.5 -176t118.5 -52q73 0 131 49.5t91 120.5t54.5 157.5t29 152t7.5 112.5q0 116 -36 168t-119 52q-69 0 -125 -41t-90.5 -104.5 t-57.5 -144t-32 -154t-9 -140.5zM932 553l145 53q127 46 181.5 96.5t54.5 122.5q0 40 -29.5 62t-73.5 22q-99 0 -173 -102t-105 -254z" />
<glyph unicode="&#x178;" horiz-adv-x="1277" d="M117 1313v121h493v-121h-145l170 -426q13 -33 28 -78t24 -73l9 -29h9q38 78 110 184l195 289q43 61 73 133h-116v121h432v-121h-152l-495 -709l-86 -481h153v-123h-528v123h174l88 489l-287 701h-149zM502 1710q0 53 34 93t97 40q48 0 80 -32.5t32 -86.5q0 -53 -34 -93 t-97 -40q-48 0 -80 32.5t-32 86.5zM897 1710q0 53 34 93t97 40q49 0 81 -32.5t32 -86.5q0 -53 -34 -93t-97 -40q-49 0 -81 32.5t-32 86.5z" />
<glyph unicode="&#x2c6;" horiz-adv-x="786" d="M66 1212l325 244h60l215 -254l-68 -65l-195 155l-286 -159z" />
<glyph unicode="&#x2dc;" horiz-adv-x="868" d="M49 1147q22 83 86 142t154 59q46 0 85.5 -15t62.5 -33.5t55.5 -33.5t66.5 -15q24 0 45.5 10t35.5 23.5t25 27.5t16 24l5 10l111 -39q-22 -83 -86 -142t-154 -59q-48 0 -88 15t-62.5 33t-54 33t-65.5 15q-24 0 -45.5 -10t-35 -24.5t-24.5 -29t-16 -24.5l-4 -10z" />
<glyph unicode="&#x2000;" horiz-adv-x="1036" />
<glyph unicode="&#x2001;" horiz-adv-x="2073" />
<glyph unicode="&#x2002;" horiz-adv-x="1036" />
<glyph unicode="&#x2003;" horiz-adv-x="2073" />
<glyph unicode="&#x2004;" horiz-adv-x="691" />
<glyph unicode="&#x2005;" horiz-adv-x="518" />
<glyph unicode="&#x2006;" horiz-adv-x="345" />
<glyph unicode="&#x2007;" horiz-adv-x="345" />
<glyph unicode="&#x2008;" horiz-adv-x="259" />
<glyph unicode="&#x2009;" horiz-adv-x="414" />
<glyph unicode="&#x200a;" horiz-adv-x="115" />
<glyph unicode="&#x2010;" horiz-adv-x="903" d="M152 516v141l596 21v-141z" />
<glyph unicode="&#x2011;" horiz-adv-x="903" d="M152 516v141l596 21v-141z" />
<glyph unicode="&#x2012;" horiz-adv-x="903" d="M152 516v141l596 21v-141z" />
<glyph unicode="&#x2013;" horiz-adv-x="1361" d="M158 530v152h1046v-152h-1046z" />
<glyph unicode="&#x2014;" horiz-adv-x="1744" d="M166 537v151h1415v-151h-1415z" />
<glyph unicode="&#x2018;" horiz-adv-x="468" d="M170 987q0 119 73 247t208 224l65 -78q-145 -112 -199 -268q42 -3 69.5 -34t27.5 -85q0 -56 -36 -92.5t-95 -36.5q-48 0 -80.5 33t-32.5 90z" />
<glyph unicode="&#x2019;" horiz-adv-x="466" d="M150 942q140 108 198 268q-42 3 -69 33t-27 86t36 92.5t95 36.5q48 0 80.5 -33t32.5 -90q0 -119 -73 -247t-208 -224z" />
<glyph unicode="&#x201a;" horiz-adv-x="485" d="M-66 -295q141 109 199 268q-42 3 -69 33t-27 86t36 92.5t95 36.5q48 0 80.5 -33t32.5 -90q0 -119 -73 -247t-208 -224z" />
<glyph unicode="&#x201c;" horiz-adv-x="886" d="M170 987q0 119 73 247t208 224l65 -78q-145 -112 -199 -268q42 -3 69.5 -34t27.5 -85q0 -56 -36 -92.5t-95 -36.5q-48 0 -80.5 33t-32.5 90zM588 987q0 119 72.5 247t207.5 224l66 -78q-145 -112 -199 -268q42 -3 69 -33.5t27 -85.5q0 -56 -36 -92.5t-95 -36.5 q-48 0 -80 33t-32 90z" />
<glyph unicode="&#x201d;" horiz-adv-x="884" d="M150 942q140 108 198 268q-42 3 -69 33t-27 86t36 92.5t95 36.5q48 0 80.5 -33t32.5 -90q0 -119 -73 -247t-208 -224zM567 942q141 109 199 268q-42 3 -69 33t-27 86t36 92.5t95 36.5q48 0 80 -33t32 -90q0 -119 -72.5 -247t-207.5 -224z" />
<glyph unicode="&#x201e;" horiz-adv-x="878" d="M-66 -295q141 109 199 268q-42 3 -69 33t-27 86t36 92.5t95 36.5q48 0 80.5 -33t32.5 -90q0 -119 -73 -247t-208 -224zM328 -295q140 108 198 268q-42 3 -69 33t-27 86t36 92.5t95 36.5q48 0 80.5 -33t32.5 -90q0 -119 -73 -247t-208 -224z" />
<glyph unicode="&#x2022;" horiz-adv-x="561" d="M131 618q0 63 38.5 102.5t113.5 39.5q71 0 110 -45t39 -101q0 -66 -42 -106.5t-120 -40.5q-69 0 -104 45t-35 106z" />
<glyph unicode="&#x2026;" horiz-adv-x="1558" d="M37 98q0 59 40 93t105 34q61 0 96 -33t35 -90q0 -62 -39 -97.5t-104 -35.5q-59 0 -96 35.5t-37 93.5zM557 98q0 59 40 93t105 34q61 0 96.5 -33t35.5 -90q0 -62 -39.5 -97.5t-104.5 -35.5q-59 0 -96 35.5t-37 93.5zM1079 98q0 59 40 93t106 34q61 0 96 -33t35 -90 q0 -62 -39.5 -97.5t-104.5 -35.5q-59 0 -96 35.5t-37 93.5z" />
<glyph unicode="&#x202f;" horiz-adv-x="414" />
<glyph unicode="&#x2039;" horiz-adv-x="718" d="M31 557l2 23l563 462l104 -133l-477 -356l314 -453l-144 -100z" />
<glyph unicode="&#x203a;" horiz-adv-x="724" d="M-6 131l477 356l-313 453l143 100l363 -557l-2 -22l-564 -463z" />
<glyph unicode="&#x205f;" horiz-adv-x="518" />
<glyph unicode="&#x20ac;" horiz-adv-x="1417" d="M109 504v133h210q5 77 29 174h-239v133h280q45 114 113 207.5t159 163.5t209 108.5t252 38.5q60 0 115.5 -8.5t92 -20.5t64 -24t40.5 -21l12 -8l-64 -295h-122l18 197q-80 43 -186 43q-175 0 -300.5 -103.5t-193.5 -277.5h559l-43 -133h-555q-21 -85 -27 -174h533 l-43 -133h-492q20 -393 369 -393q76 0 156 26l71 217h123l-65 -303q-5 -3 -15.5 -8.5t-45.5 -19.5t-73 -24.5t-98 -19t-121 -8.5q-129 0 -229 41t-162 114t-93.5 168.5t-33.5 209.5h-204z" />
<glyph unicode="&#x2122;" horiz-adv-x="1943" d="M201 1194l37 242h673l-34 -242h-78v147h-150l-90 -462h103v-103h-381v103h120l91 462h-158l-58 -147h-75zM838 776v103h135l88 462h-113v95h260l138 -291q10 -20 18.5 -46.5t11.5 -42.5l4 -16h6q39 52 76 101l230 295h256v-95h-121l-88 -462h100v-103h-381v103h125 l39 204l31 146l-4 2q-29 -53 -90 -129l-205 -252h-43l-117 250q-15 30 -26.5 63.5t-15.5 51.5l-5 18l-4 -2q-5 -68 -21 -146l-39 -206h93v-103h-338z" />
<glyph unicode="&#xe000;" horiz-adv-x="1044" d="M0 0v1044h1044v-1044h-1044z" />
</font>
</defs>
</svg>
