<?xml version="1.0" standalone="no"?>
<!DOCTYPE svg PUBLIC "-//W3C//DTD SVG 1.1//EN" "http://www.w3.org/Graphics/SVG/1.1/DTD/svg11.dtd" >
<svg xmlns="http://www.w3.org/2000/svg">
<metadata></metadata>
<defs>
<font id="sinkin_sans800_black_italic" horiz-adv-x="795" >
<font-face units-per-em="1000" ascent="810" descent="-190" />
<missing-glyph horiz-adv-x="307" />
<glyph horiz-adv-x="1000" />
<glyph horiz-adv-x="1000" />
<glyph horiz-adv-x="333" />
<glyph unicode="&#x9;" horiz-adv-x="990" />
<glyph unicode="&#xa;" horiz-adv-x="990" />
<glyph unicode="&#xd;" horiz-adv-x="990" />
<glyph horiz-adv-x="990" />
<glyph horiz-adv-x="990" />
<glyph horiz-adv-x="990" />
<glyph horiz-adv-x="990" />
<glyph horiz-adv-x="990" />
<glyph horiz-adv-x="990" />
<glyph horiz-adv-x="990" />
<glyph unicode=" "  horiz-adv-x="307" />
<glyph unicode="&#x09;" horiz-adv-x="307" />
<glyph unicode="&#xa0;" horiz-adv-x="307" />
<glyph unicode="!" horiz-adv-x="357" d="M35 94q11 47 44 75t79 28q47 0 65.5 -28t7.5 -75t-44 -75.5t-80 -28.5q-46 0 -64.5 28t-7.5 76zM91 231l109 579h219l-178 -579h-150z" />
<glyph unicode="&#x22;" horiz-adv-x="496" d="M137 514l55 326h166l-105 -326h-116zM359 514l55 326h166l-106 -326h-115z" />
<glyph unicode="#" horiz-adv-x="816" d="M-1 0l88 171l18 18l-98 -1l37 151h139v18l50 96l18 18h-98l37 151h140l-1 18l88 170h164l-89 -172l-18 -16h153v18l88 170h163l-87 -170l-19 -18h98l-37 -151h-139v-18l-49 -96l-19 -18h98l-37 -151l-138 1l-1 -18l-88 -171h-164l88 171l18 18h-151l-1 -18l-87 -171h-164 zM328 339h153l-1 17l50 97l18 18h-152l1 -18l-50 -96z" />
<glyph unicode="$" horiz-adv-x="813" d="M15 119l153 124q56 -68 133 -84l-4 20l28 111l14 16q-55 14 -91.5 29t-70.5 39.5t-45 61t1 85.5q21 85 105 146.5t207 76.5l-4 18l19 77h174l-19 -79l-15 -20q71 -12 117.5 -41t93.5 -93l-156 -127q-42 63 -101 85l7 -22l-21 -84l-15 -16q17 -5 23 -5q108 -28 153.5 -85 t25.5 -138q-21 -86 -104.5 -150.5t-208.5 -78.5l5 -17l-19 -78h-174l19 79l14 18q-149 22 -244 132zM330 528q-4 -14 10.5 -27t41.5 -19l-6 18l15 58l15 17q-29 -1 -51 -17t-25 -30zM456 152q36 7 55.5 21.5t23.5 27.5q10 40 -51 64l4 -20l-19 -75z" />
<glyph unicode="%" horiz-adv-x="1036" d="M105 585q24 99 94 167.5t169 68.5q68 0 108 -34t46.5 -86.5t-6.5 -115.5q-24 -99 -92.5 -164.5t-170.5 -65.5q-100 0 -136 65.5t-12 164.5zM225 -10l503 830h144l-502 -830h-145zM252 585q-24 -97 34 -97q29 0 49.5 21t33.5 76q26 103 -33 103q-60 0 -84 -103zM580 221 q24 99 94.5 167t169.5 68q100 0 136 -68t11 -167q-24 -99 -92.5 -165t-169.5 -66t-137 66t-12 165zM727 221q-24 -98 34 -98q29 0 49.5 21.5t34.5 76.5q12 59 3.5 80.5t-37.5 21.5q-59 0 -84 -102z" />
<glyph unicode="&#x26;" horiz-adv-x="877" d="M42 230q33 133 235 229q-14 5 -17 10q-39 70 -23 133q22 90 108.5 153t185.5 63t155 -62.5t34 -153.5q-17 -70 -65.5 -116t-129.5 -86l18 -8l55 -81l5 -31h2l12 51h187l-12 -47q-9 -36 -32.5 -77t-56.5 -70l16 -4l89 -134h-233l-15 24l4 19h-2q-100 -54 -235 -54 q-93 0 -163 25.5t-106 81.5t-16 135zM238 230q-8 -31 22 -51.5t109 -20.5q67 0 107 15l-23 9l-91 134l2 19l-30 -16q-38 -21 -47 -28q-40 -27 -49 -61zM430 561q3 -5 11 -17l-2 -21q46 19 67.5 37t26.5 40q5 19 -7.5 33t-35.5 14q-38 0 -58.5 -26.5t-1.5 -59.5z" />
<glyph unicode="'" horiz-adv-x="274" d="M137 514l55 326h166l-105 -326h-116z" />
<glyph unicode="(" horiz-adv-x="383" d="M59 358q67 273 292 549h176q-112 -148 -176.5 -276t-97.5 -261q-72 -290 3 -561h-176q-47 147 -51.5 279.5t30.5 269.5z" />
<glyph unicode=")" horiz-adv-x="383" d="M-107 -191q208 268 281 561q33 127 31.5 258t-40.5 279h176q89 -277 21 -549q-34 -140 -103.5 -271t-188.5 -278h-177z" />
<glyph unicode="*" horiz-adv-x="579" d="M136 508l2 110l130 22l-85 74l92 89l73 -85l25 127h112l-38 -127l114 84l49 -88l-121 -74l119 -22l-52 -110l-113 35l33 -112l-113 -49l-20 118l-77 -118l-90 49l89 111z" />
<glyph unicode="+" horiz-adv-x="718" d="M100 326l39 158h202l-5 18l48 196h156l-49 -196l-14 -18h202l-39 -158h-203l6 -18l-48 -195h-155l48 194l15 19h-203z" />
<glyph unicode="," horiz-adv-x="325" d="M-47 -150l81 124l32 18q-76 7 -52 105q12 47 44.5 76.5t79.5 29.5t65.5 -29.5t6.5 -76.5q-7 -26 -34 -69l-143 -218z" />
<glyph unicode="-" horiz-adv-x="431" d="M24 257l38 156h372l-39 -156h-371z" />
<glyph unicode="." horiz-adv-x="324" d="M14 98q12 47 44.5 76.5t79.5 29.5t65.5 -29.5t6.5 -76.5q-12 -48 -45 -77.5t-80 -29.5t-65 29.5t-6 77.5z" />
<glyph unicode="/" horiz-adv-x="339" d="M-151 -50l528 910h174l-527 -910h-175z" />
<glyph unicode="0" horiz-adv-x="847" d="M84 401q45 181 171 300t301 119q90 0 153.5 -33t93 -89.5t36.5 -133t-17 -163.5q-46 -183 -168.5 -297t-302.5 -114q-120 0 -191.5 55t-86.5 146t11 210zM277 401q-59 -239 116 -239q176 0 236 239q61 247 -115 247q-87 0 -147 -63.5t-90 -183.5z" />
<glyph unicode="1" horiz-adv-x="499" d="M95 587l279 223h157l-200 -810h-193l120 483l27 81h-2l-60 -65l-41 -33z" />
<glyph unicode="2" horiz-adv-x="771" d="M-14 0q21 88 43 177q49 202 302 275l116 34q78 23 111 44.5t40 48.5q7 29 -19.5 49.5t-82.5 20.5q-120 0 -248 -110l-97 131q99 81 187 115.5t188 34.5q156 0 222.5 -70.5t41.5 -172.5q-43 -176 -300 -251l-138 -40q-60 -17 -88 -39t-41 -58l-22 -18h488l-42 -171h-661z " />
<glyph unicode="3" horiz-adv-x="803" d="M18 133l156 128q42 -53 90 -76.5t111 -23.5q60 0 111 25.5t61 65.5q9 39 -20.5 62.5t-100.5 23.5l-144 4l39 157q114 3 140 4q133 7 150 76q8 33 -22 52t-93 19q-131 0 -242 -91l-97 130q173 131 381 131q159 0 227.5 -65t43.5 -164q-13 -51 -60 -99t-101 -65v-2 q51 -14 79.5 -65.5t12.5 -114.5q-26 -107 -131.5 -181t-274.5 -74q-109 0 -181 32.5t-135 110.5z" />
<glyph unicode="4" horiz-adv-x="812" d="M12 169l31 126l606 515h150l-112 -452l-13 -18h113l-42 -171h-113l4 -19l-37 -150h-193l37 151l13 18h-444zM316 340h183l-5 18l44 178h-2l-54 -61l-94 -85l-71 -48z" />
<glyph unicode="5" horiz-adv-x="799" d="M18 132l161 130q39 -57 78.5 -79.5t98.5 -22.5q85 0 133 35.5t59 83.5q12 48 -17 84.5t-106 36.5q-67 0 -121 -20t-113 -67l-86 117l142 380h571l-42 -171h-420l10 -17l-23 -60l-21 -23l2 -1q62 32 143 32q165 0 236 -84t41 -207q-30 -122 -143.5 -206t-286.5 -84 q-109 0 -178 33.5t-118 109.5z" />
<glyph unicode="6" horiz-adv-x="836" d="M84 401q51 190 187.5 304.5t304.5 114.5q192 0 275 -105l-161 -130q-53 65 -154 65q-143 0 -219 -131h2q91 51 184 51q165 0 238 -84t40 -207q-32 -120 -146 -205t-284 -85q-93 0 -157.5 31.5t-94.5 87t-35.5 130.5t20.5 163zM265 278q-12 -44 19 -81t110 -37 q76 0 129 38t65 82t-18.5 81.5t-110.5 37.5q-76 0 -129 -38.5t-65 -82.5z" />
<glyph unicode="7" horiz-adv-x="752" d="M118 639l42 171h693l-32 -132l-295 -268q-100 -90 -137 -240l-42 -170h-193l44 175q25 105 71.5 183t126.5 152l74 69l76 58l1 2h-429z" />
<glyph unicode="8" horiz-adv-x="844" d="M46 248q15 60 69.5 112.5t112.5 70.5v2q-38 19 -60.5 59t-10.5 91q25 103 129 170t267 67t235.5 -67t47.5 -170q-12 -49 -55.5 -90.5t-91.5 -58.5l-1 -2q49 -19 79 -70t14 -114q-26 -105 -143.5 -181.5t-287.5 -76.5q-169 0 -249.5 76.5t-54.5 181.5zM243 250 q-2 -8 0 -18t11 -23t25 -23.5t45.5 -17.5t67.5 -7q62 0 108 18.5t64 37t22 33.5q8 33 -28 64t-121 31t-135.5 -30.5t-58.5 -64.5zM352 578q-1 -6 0.5 -14.5t8.5 -19t20 -19.5t37.5 -15t57.5 -6q53 0 92 16t53 31t17 27q0 6 1 14.5t-6.5 18.5t-19.5 18.5t-38 14t-62 5.5 q-57 0 -95.5 -15t-50 -28.5t-15.5 -27.5z" />
<glyph unicode="9" horiz-adv-x="836" d="M47 95l161 129q53 -65 153 -65q143 0 219 131h-2q-88 -50 -183 -50q-165 0 -238 84t-41 207q32 119 146.5 204t284.5 85q182 0 248.5 -114.5t17.5 -297.5q-50 -190 -187 -304.5t-305 -114.5q-193 0 -274 106zM310 529q-12 -44 18.5 -81.5t109.5 -37.5q76 0 129.5 39 t64.5 83q12 43 -19 80.5t-109 37.5q-76 0 -129 -38t-65 -83z" />
<glyph unicode=":" horiz-adv-x="334" d="M24 98q12 47 44.5 76.5t79.5 29.5t65.5 -29.5t6.5 -76.5q-12 -48 -45 -77.5t-80 -29.5t-65 29.5t-6 77.5zM127 517q12 48 45 77t80 29t65 -29.5t6 -76.5q-12 -48 -45 -77.5t-79 -29.5q-47 0 -65.5 29.5t-6.5 77.5z" />
<glyph unicode=";" horiz-adv-x="335" d="M-37 -150l81 124l32 18q-76 7 -52 105q12 47 44.5 76.5t79.5 29.5t65.5 -29.5t6.5 -76.5q-7 -26 -34 -69l-143 -218zM128 517q12 47 44.5 76.5t79.5 29.5t65 -29.5t6 -76.5q-12 -48 -44.5 -77.5t-79.5 -29.5t-65 29.5t-6 77.5z" />
<glyph unicode="&#x3c;" horiz-adv-x="573" d="M84 399l399 342l86 -116l-197 -169l-76 -52l51 -51l115 -160l-141 -114z" />
<glyph unicode="=" horiz-adv-x="708" d="M70 205l39 155h529l-38 -155h-530zM131 450l38 155h530l-38 -155h-530z" />
<glyph unicode="&#x3e;" horiz-adv-x="573" d="M68 193l194 160l76 51l-51 52l-113 169l143 116l231 -342l-395 -320z" />
<glyph unicode="?" horiz-adv-x="732" d="M154 686q166 134 355 134q54 0 102 -12t87 -37t55.5 -70t2.5 -103q-9 -36 -28 -66.5t-39 -49.5t-55 -38.5t-58.5 -29.5t-66.5 -27q-48 -19 -71.5 -41.5t-34.5 -68.5l-11 -46h-182l14 60q19 75 58.5 125.5t83 73.5t85.5 37.5t72 30.5t36 39q6 22 -11 36t-38 18t-43 4 q-113 0 -209 -94zM170 94q11 47 44 75t79 28q47 0 65.5 -28t6.5 -75q-11 -47 -44 -75.5t-79 -28.5q-47 0 -65.5 28.5t-6.5 75.5z" />
<glyph unicode="@" horiz-adv-x="980" d="M103 418q44 176 204 301.5t334 125.5q109 0 190 -52.5t114 -146t6 -204.5q-17 -67 -59 -131t-110 -110.5t-143 -46.5q-69 0 -96 55q-76 -57 -162 -57q-90 0 -122 62t-11 147q26 107 119.5 193t205.5 86q68 0 88 -35l13 25h128l-130 -262q-37 -75 -21 -94q8 -9 26 -9 q56 0 98 53t60 123q30 122 -34 210.5t-184 88.5q-131 0 -249 -96t-151 -229q-35 -141 33.5 -238.5t205.5 -97.5q88 0 200 65l59 -76q-150 -94 -280 -94q-189 0 -284 125.5t-48 318.5zM386 374q-25 -101 42 -101q51 0 94.5 50t59.5 116q22 88 -40 88q-49 0 -95.5 -49 t-60.5 -104z" />
<glyph unicode="A" horiz-adv-x="989" d="M-54 0l598 810h163l197 -810h-210l-43 175l16 18h-389l8 -18l-128 -175h-212zM400 345h221l-15 18l-30 126l-10 82l-49 -82l-92 -126z" />
<glyph unicode="B" horiz-adv-x="878" d="M20 0l200 810h416q138 0 198.5 -68.5t35.5 -170.5q-12 -46 -41 -86.5t-70 -63.5q44 -19 63.5 -63t3.5 -108q-29 -118 -131 -184t-250 -66h-425zM237 171h251q71 0 102 22.5t41 61.5q10 37 -12 61t-91 24h-250l14 -18l-32 -133zM316 491h232q107 0 125 75q8 34 -10 53.5 t-79 19.5h-232l14 -18l-28 -112z" />
<glyph unicode="C" horiz-adv-x="876" d="M84 401q46 186 192 302t354 116q222 0 310 -154l-160 -129q-22 53 -72 82t-120 29q-125 0 -202 -66.5t-106 -179.5q-28 -111 15.5 -175.5t171.5 -64.5q68 0 136 29t115 79l95 -124q-82 -73 -183.5 -114.5t-205.5 -41.5q-211 0 -298.5 113t-41.5 299z" />
<glyph unicode="D" horiz-adv-x="914" d="M20 0l200 810h352q102 0 173 -25.5t106 -64.5t48.5 -95t9.5 -108t-19 -112q-101 -405 -513 -405h-357zM238 171h172q71 0 121.5 16t82 49.5t49 72t31.5 96.5q14 57 15 95.5t-14 72t-58.5 50t-116.5 16.5h-167l13 -18l-106 -432z" />
<glyph unicode="E" horiz-adv-x="846" d="M20 0l200 810h688l-42 -171h-513l13 -18l-28 -112l-22 -18h465l-42 -172h-465l13 -18l-27 -112l-23 -18h513l-42 -171h-688z" />
<glyph unicode="F" horiz-adv-x="787" d="M20 0l200 810h668l-42 -171h-493l13 -18l-32 -130l-22 -18h442l-42 -171h-443l14 -18l-70 -284h-193z" />
<glyph unicode="G" horiz-adv-x="975" d="M83 398q48 192 195.5 307t354.5 115q107 0 186.5 -33.5t119.5 -92.5l-164 -132q-51 87 -184 87q-250 0 -312 -251q-57 -237 186 -237q85 0 152 39t93 102l22 18h-281l42 171h445l-122 -492h-169l16 63q-45 -32 -112 -52t-129 -20q-206 0 -295.5 110.5t-43.5 297.5z" />
<glyph unicode="H" horiz-adv-x="936" d="M20 0l200 810h193l-75 -301l-22 -18h407l-13 18l74 301h193l-200 -810h-193l74 301l23 18h-407l13 -18l-74 -301h-193z" />
<glyph unicode="I" horiz-adv-x="381" d="M25 0l200 810h193l-200 -810h-193z" />
<glyph unicode="J" horiz-adv-x="709" d="M-37 130l161 130q14 -43 53 -70.5t83 -27.5q142 0 178 142l125 506h193l-124 -501q-21 -85 -64.5 -149t-100.5 -100t-119 -53t-130 -17q-179 0 -255 140z" />
<glyph unicode="K" horiz-adv-x="924" d="M20 0l200 810h193l-200 -810h-193zM323 409l453 400h267l-476 -402q20 -20 91.5 -121.5t133.5 -193.5l62 -92h-263z" />
<glyph unicode="L" horiz-adv-x="745" d="M20 0l200 810h193l-153 -621l-22 -18h466l-43 -171h-641z" />
<glyph unicode="M" horiz-adv-x="1064" d="M19 -1l201 811h158l146 -431l14 -71h2l46 71l359 431h161l-201 -811h-193l106 430h-2l-59 -85l-296 -355h-2l-121 355l-17 85h-2l-106 -430h-194z" />
<glyph unicode="N" horiz-adv-x="936" d="M20 0l200 810h160l240 -402l40 -94h2l122 496h193l-200 -810h-160l-235 399l-44 102h-1l-124 -501h-193z" />
<glyph unicode="O" horiz-adv-x="959" d="M84 401q46 185 186 302t342 117q204 0 286.5 -116.5t36.5 -302.5q-46 -185 -186 -298t-341 -113q-203 0 -286.5 112.5t-37.5 298.5zM280 401q-28 -112 12.5 -175.5t157.5 -63.5q229 0 289 239q28 114 -12 180.5t-157 66.5q-116 0 -189 -66t-101 -181z" />
<glyph unicode="P" horiz-adv-x="863" d="M20 0l200 810h416q144 0 210.5 -74t36.5 -193q-28 -117 -132 -192.5t-249 -75.5h-239l13 -18l-63 -257h-193zM305 446h240q119 0 142 97q25 96 -94 96h-240l13 -18l-39 -157z" />
<glyph unicode="Q" horiz-adv-x="960" d="M84 399q46 186 186 303.5t342 117.5q204 0 286.5 -117t35.5 -304q-42 -175 -163 -279l79 -106l-144 -119l-97 130q-91 -35 -201 -35q-204 0 -287 111.5t-37 297.5zM280 399q-28 -113 12 -176.5t158 -63.5h60l-61 83l145 116l82 -110l8 25q37 54 54 126q29 114 -11 181 t-157 67q-116 0 -189 -66.5t-101 -181.5z" />
<glyph unicode="R" horiz-adv-x="908" d="M20 0l200 810h401q62 0 114 -15.5t90.5 -47t52 -80t-1.5 -115.5q-15 -57 -67.5 -112t-111.5 -80v-2q41 -23 58 -83l79 -275h-216l-61 215q-12 43 -43.5 62t-96.5 19h-148l13 -17l-69 -279h-193zM307 453h215q68 0 107.5 27.5t48.5 64.5q11 43 -13.5 68.5t-86.5 25.5h-225 l13 -18l-37 -150z" />
<glyph unicode="S" horiz-adv-x="856" d="M13 132l165 134q36 -47 106 -76t141 -29q157 0 174 71q3 11 -1 22.5t-28.5 28.5t-69.5 28q-68 16 -140 36q-57 15 -97 31.5t-76 43t-49 66.5t0 91q26 105 140 173t283 68q228 0 329 -141l-166 -133q-26 43 -85 73.5t-123 30.5q-81 1 -127.5 -18t-53.5 -48 q-5 -23 23 -37.5t116 -37.5q46 -14 121 -32q118 -30 169.5 -95t30.5 -150q-26 -103 -138 -172.5t-291 -69.5q-114 0 -205 36.5t-148 105.5z" />
<glyph unicode="T" horiz-adv-x="787" d="M108 639l42 171h748l-42 -171h-287l5 -18l-153 -621h-193l153 621l14 18h-287z" />
<glyph unicode="U" horiz-adv-x="947" d="M107 374l108 436h193l-108 -435q-27 -111 5.5 -162t138.5 -51q105 0 163.5 51.5t86.5 161.5l107 435h193l-108 -436q-45 -184 -167.5 -284t-316.5 -100t-267.5 99.5t-27.5 284.5z" />
<glyph unicode="V" horiz-adv-x="944" d="M145 810h215l96 -485l7 -81h2l46 81l336 485h213l-575 -810h-165z" />
<glyph unicode="W" horiz-adv-x="1160" d="M155 810h204l15 -424l-3 -90h2l40 90l226 424h145l16 -424l-2 -88h2l39 88l226 424h201l-441 -810h-198l-14 349l5 92h-2l-41 -92l-185 -349h-193z" />
<glyph unicode="X" horiz-adv-x="937" d="M-49 0l428 405l-229 405h244l112 -200l26 -71h2l61 71l210 200h242l-427 -404l228 -406h-244l-113 206l-23 68h-2l-57 -68l-216 -206h-242z" />
<glyph unicode="Y" horiz-adv-x="968" d="M145 810h242l121 -241l27 -76h2l64 76l242 241h241l-490 -478l-82 -332h-194l82 332z" />
<glyph unicode="Z" horiz-adv-x="876" d="M-10 0l33 134l508 434l101 69l1 2h-475l42 171h742l-32 -133l-513 -439l-91 -65v-2h484l-43 -171h-757z" />
<glyph unicode="[" horiz-adv-x="356" d="M-57 -190l271 1097h276l-38 -156h-110l-194 -784h110l-38 -157h-277z" />
<glyph unicode="\" horiz-adv-x="418" d="M113 860h175l78 -910h-174z" />
<glyph unicode="]" horiz-adv-x="357" d="M-96 -190l38 157h111l194 784h-111l38 156h278l-271 -1097h-277z" />
<glyph unicode="^" horiz-adv-x="798" d="M107 415l358 395h129l163 -395h-208l-59 148l-9 46h-2l-32 -46l-131 -148h-209z" />
<glyph unicode="_" horiz-adv-x="681" d="M-129 -200l35 140h701l-35 -140h-701z" />
<glyph unicode="`" horiz-adv-x="738" d="M362 881l131 106l131 -217l-93 -75z" />
<glyph unicode="a" d="M53 313q36 148 138.5 237t259.5 89q50 0 92 -14t62 -36h2l10 41h190l-156 -631h-190l10 40h-2q-69 -49 -179 -49q-156 0 -214.5 88.5t-22.5 234.5zM243 313q-41 -161 112 -161q80 0 126 40.5t66 120.5q20 82 -6 123t-106 41q-153 0 -192 -164z" />
<glyph unicode="b" d="M5 -1l207 841h190l-62 -251h2q69 50 179 50q158 0 216 -89t22 -237q-36 -146 -139 -234.5t-259 -88.5q-51 0 -92.5 13.5t-61.5 35.5h-2l-10 -40h-190zM264 313q-19 -80 7 -120.5t106 -40.5t126 40.5t66 120.5q41 164 -112 164t-193 -164z" />
<glyph unicode="c" horiz-adv-x="686" d="M52 311q35 141 151.5 235t278.5 94q167 0 239 -104l-152 -123q-43 64 -127 64q-76 0 -128.5 -45.5t-71.5 -120.5q-18 -73 10 -116t108 -43q84 0 167 67l89 -121q-58 -48 -137.5 -78t-159.5 -30q-85 0 -146 25t-91 68.5t-39.5 102t9.5 125.5z" />
<glyph unicode="d" d="M53 313q36 148 138.5 237t259.5 89q50 0 92 -14t62 -36h2l62 251h190l-208 -841h-190l10 40h-2q-69 -49 -179 -49q-156 0 -214.5 88.5t-22.5 234.5zM243 313q-41 -161 112 -161q80 0 126 40.5t66 120.5q20 82 -6 123t-106 41q-153 0 -192 -164z" />
<glyph unicode="e" horiz-adv-x="777" d="M52 311q35 144 151 236.5t277 92.5q164 0 229.5 -93t30.5 -236q-7 -33 -21 -66h-496l14 -17q12 -38 46.5 -62t85.5 -24q89 0 170 52l81 -110q-129 -94 -289 -94q-172 0 -243 90t-36 231zM263 394h308l-12 17q-21 79 -117 79q-94 0 -158 -79z" />
<glyph unicode="f" horiz-adv-x="508" d="M-191 -184l38 152q62 -35 115 -35q39 0 59 15.5t30 56.5l112 456v1l14 19h-103l37 148h103l-4 18q25 99 104 149t183 50q87 0 131 -16l-37 -148q-42 18 -93 18q-47 0 -68.5 -13t-28.5 -40l-13 -18h190l-37 -148h-192l4 -20v-1l-113 -460q-29 -113 -98.5 -164t-198.5 -51 q-72 0 -134 31z" />
<glyph unicode="g" d="M-24 -128l153 124q73 -50 177 -50q66 0 111 30.5t58 82.5l3 10h-2q-75 -40 -160 -40q-160 0 -226 84t-32 224q33 131 142 217t267 86q38 0 81 -13t59 -31h2l8 35h190l-138 -559q-33 -137 -137 -212t-266 -75q-178 0 -290 87zM247 333q-16 -67 13.5 -104.5t104.5 -37.5 q152 0 187 142q16 68 -12.5 106.5t-104.5 38.5q-75 0 -123 -39t-65 -106z" />
<glyph unicode="h" horiz-adv-x="790" d="M5 0l207 840h190l-61 -248h2q79 48 178 48q139 0 196.5 -70.5t28.5 -187.5l-95 -382h-190l89 358q6 33 6 58.5t-25 41.5t-77 16q-65 0 -111.5 -31t-59.5 -86l-88 -357h-190z" />
<glyph unicode="i" horiz-adv-x="339" d="M5 0l156 630h190l-156 -630h-190zM190 764q11 44 45.5 73t78.5 29t64.5 -29t9.5 -73t-46 -73t-78 -29q-44 0 -64.5 29.5t-9.5 72.5z" />
<glyph unicode="j" horiz-adv-x="349" d="M-175 -188l39 159q42 -28 89 -28t59 44l158 642h190l-158 -642q-50 -202 -258 -202q-44 0 -119 27zM199 764q11 44 46 73t79 29t64.5 -29t9.5 -73t-46 -73t-79 -29t-64.5 29.5t-9.5 72.5z" />
<glyph unicode="k" horiz-adv-x="807" d="M5 0l207 840h190l-207 -840h-190zM284 322l361 308h235l-365 -307v-2l223 -321h-245z" />
<glyph unicode="l" horiz-adv-x="339" d="M5 0l207 840h190l-207 -840h-190z" />
<glyph unicode="m" horiz-adv-x="1064" d="M5 0l156 631h190l-10 -43h2q70 52 153 52q49 0 84 -21.5t51 -56.5h2q93 78 197 78q126 0 172 -72.5t14 -201.5l-91 -366h-191l86 346q19 78 9.5 105t-56.5 27q-44 0 -77 -29t-45 -78l-90 -371h-192l91 367q16 65 5.5 88t-56.5 23q-43 0 -76.5 -29.5t-45.5 -78.5l-91 -370 h-191z" />
<glyph unicode="n" horiz-adv-x="790" d="M5 0l156 631h190l-13 -53h2q83 62 193 62q129 0 186.5 -67t28.5 -184l-97 -389h-190l92 373q14 56 -3.5 80.5t-94.5 24.5q-66 0 -111.5 -29.5t-58.5 -82.5l-90 -366h-190z" />
<glyph unicode="o" horiz-adv-x="777" d="M53 315q35 143 147 234t277 91q166 0 232.5 -90.5t31.5 -234.5q-35 -142 -147.5 -233.5t-277.5 -91.5t-231.5 91t-31.5 234zM243 315q-19 -77 9 -120t105 -43q78 0 126.5 43t67.5 120t-8.5 119.5t-105.5 42.5q-153 0 -194 -162z" />
<glyph unicode="p" d="M-47 -212l207 842h190l-9 -40h2q72 49 178 49q156 0 215 -89t23 -235q-36 -147 -138.5 -236.5t-259.5 -89.5q-52 0 -93 14t-61 37h-2l-62 -252h-190zM265 316q-20 -81 6 -122t106 -41q153 0 192 163q20 80 -6 120.5t-106 40.5t-126 -40.5t-66 -120.5z" />
<glyph unicode="q" d="M53 315q36 146 139 235t259 89q108 0 154 -49h2l10 40h190l-208 -841h-190l62 251h-2q-69 -50 -178 -50q-158 0 -216 89t-22 236zM243 316q-41 -163 112 -163t193 163q19 80 -7 120.5t-106 40.5q-152 0 -192 -161z" />
<glyph unicode="r" horiz-adv-x="500" d="M5 0l155 630h191l-19 -75h2q76 82 199 82h39l-41 -164h-54q-165 0 -205 -161l-77 -312h-190z" />
<glyph unicode="s" horiz-adv-x="709" d="M2 110l143 118q31 -41 79.5 -63.5t103.5 -22.5q111 0 121 41q4 15 -8 25t-53 20q-4 1 -51 13.5t-54 14.5q-24 6 -43 12t-41.5 15.5t-37 20t-30.5 25t-22 31.5t-10 39t5 47q21 87 112.5 140t225.5 53q179 0 263 -111l-137 -110q-55 71 -161 71q-102 0 -111 -41 q-4 -15 15.5 -24t73.5 -23q7 -2 47.5 -13.5t45.5 -13.5q99 -25 140.5 -67.5t24.5 -113.5q-22 -89 -114.5 -146.5t-235.5 -57.5q-90 0 -158.5 28.5t-132.5 92.5z" />
<glyph unicode="t" horiz-adv-x="559" d="M74 481l37 149h97l-5 17l16 63l215 101l-41 -164l-13 -17h191l-36 -149h-191l4 -17l-61 -246q-8 -33 3 -49.5t36 -16.5q44 0 98 47l80 -109q-69 -52 -124 -76t-118 -24q-113 0 -153 56t-12 171l61 247l13 17h-97z" />
<glyph unicode="u" horiz-adv-x="782" d="M61 248l95 382h190l-91 -368q-27 -110 93 -110q65 0 109 29t57 83l90 366h190l-156 -631h-190l13 52h-2q-75 -61 -180 -61q-139 0 -193 69t-25 189z" />
<glyph unicode="v" horiz-adv-x="758" d="M94 630h210l52 -295l9 -106h2l60 106l199 295h210l-444 -630h-166z" />
<glyph unicode="w" horiz-adv-x="988" d="M98 630h199l8 -269l-7 -117h2l53 117l149 269h156l16 -269l-4 -117h2l51 117l140 269h199l-356 -630h-178l-14 270l6 118h-1l-51 -118l-148 -270h-178z" />
<glyph unicode="x" horiz-adv-x="776" d="M-53 0l333 316l-176 314h238l66 -122l19 -69h2l52 69l128 122h235l-331 -314l178 -316h-237l-71 129l-17 61h-2l-46 -61l-135 -129h-236z" />
<glyph unicode="y" horiz-adv-x="796" d="M-29 -175l41 166q83 -50 132 -50q28 0 52 15t53 60l-151 614h208l75 -320l9 -97h2l53 97l218 320h208l-479 -686q-50 -72 -119.5 -115.5t-145.5 -43.5q-77 0 -156 40z" />
<glyph unicode="z" horiz-adv-x="720" d="M-20 0l31 124l348 287l86 53v2h-342l40 163h610l-30 -120l-352 -287l-87 -57l-1 -2h359l-41 -163h-621z" />
<glyph unicode="{" horiz-adv-x="413" d="M41 -6l53 216q12 36 1 56t-53 26l33 133q44 7 63 23.5t28 49.5l55 226q42 170 182 187l157 3l-38 -151h-54q-52 0 -64.5 -10t-23.5 -54l-49 -199q-13 -50 -32.5 -82.5t-57.5 -58.5q30 -26 32.5 -59.5t-12.5 -82.5l-49 -198q-11 -43 -3 -53.5t59 -10.5h55l-37 -151 q-135 0 -156 3q-131 17 -89 187z" />
<glyph unicode="|" horiz-adv-x="400" d="M32 -50l225 910h172l-225 -910h-172z" />
<glyph unicode="}" horiz-adv-x="413" d="M-108 -196l37 151h55q52 0 64.5 10t23.5 54l49 198q15 59 31 87.5t59 54.5q-26 26 -29.5 60.5t9.5 80.5l49 199q12 43 3.5 53.5t-60.5 10.5h-54l37 151q135 0 156 -3q131 -17 89 -187l-56 -226q-9 -33 2 -49.5t52 -23.5l-32 -133q-46 -6 -64.5 -24.5t-28.5 -57.5 l-54 -216q-40 -170 -181 -187z" />
<glyph unicode="~" horiz-adv-x="653" d="M34 298q37 67 98.5 106t128.5 39q29 0 54.5 -10.5t59.5 -33.5t41 -27q24 -11 41 -11q63 0 112 92l73 -99q-25 -44 -61.5 -76.5t-80 -50.5t-87.5 -18q-29 0 -55 11t-57 32.5t-42 27.5q-24 12 -41 12q-62 0 -112 -93z" />
<glyph horiz-adv-x="990" />
<glyph unicode="&#xa1;" horiz-adv-x="357" d="M0 0l177 579h150l-109 -579h-218zM188 716q11 47 44 75.5t79 28.5q47 0 65.5 -28.5t6.5 -75.5q-11 -47 -44 -75.5t-79 -28.5q-47 0 -65.5 28.5t-6.5 75.5z" />
<glyph unicode="&#xa2;" horiz-adv-x="686" d="M74 401q35 140 148 233t254 101v19l31 66h157l-38 -80l-13 -18q82 -25 131 -93l-153 -122q-20 35 -57 50v-20l-123 -275l-17 -17q38 2 73 16.5t82 49.5l90 -122q-151 -109 -298 -109q-3 0 -11 0.5t-10 0.5l2 -16l-33 -75h-156l43 97l16 14q-84 37 -114 116t-4 184z M260 401q-18 -73 15 -114l1 20l104 234l19 19q-54 -19 -89.5 -62t-49.5 -97z" />
<glyph unicode="&#xa3;" horiz-adv-x="792" d="M-15 0l37 150q79 32 111 61t42 91l12 18h-106l42 170h61l-7 18q4 45 8 65q60 247 372 247q88 0 158 -33.5t108 -97.5l-164 -132q-27 51 -62 73.5t-85 22.5q-53 0 -87 -20t-43 -56q-8 -33 -9 -69l-12 -18h250l-42 -170h-213l8 -18q-17 -88 -74 -129v-2l396 1l-42 -172 h-659z" />
<glyph unicode="&#xa4;" horiz-adv-x="651" d="M43 231l85 70q-25 101 51 203l-52 72l126 100l52 -68q50 23 108 23q55 0 94 -23l86 68l77 -100l-87 -72q12 -49 -1 -101q-14 -56 -49 -103l50 -70l-124 -100l-54 69q-49 -23 -105 -23q-57 0 -96 23l-86 -68zM276 403q-9 -34 9 -57.5t51 -23.5q36 0 64 24t37 57 q9 34 -9 58.5t-51 24.5q-36 0 -64 -25t-37 -58z" />
<glyph unicode="&#xa5;" horiz-adv-x="987" d="M135 125l36 144h224l16 61h-225l35 144h123l-18 18l-171 318h242l123 -247l23 -79h2l60 79l247 247h241l-328 -319l-28 -19l127 3l-36 -145l-226 -1l-15 -60h227l-36 -144h-233l3 -18l-26 -107h-194l26 107l13 18h-232z" />
<glyph unicode="&#xa6;" horiz-adv-x="352" d="M9 -50l101 409h170l-101 -409h-170zM133 450l101 410h169l-101 -410h-169z" />
<glyph unicode="&#xa7;" horiz-adv-x="737" d="M-13 -70l160 128q62 -96 159 -96q55 0 65 36q3 13 -5 27q-16 25 -70 60q-13 8 -33 19.5t-38.5 22.5t-33.5 21q-16 10 -29 19t-28.5 22.5t-25.5 26t-21 29t-14 33.5t-5 38.5t5 43.5q24 94 144 176q-20 42 -9 92q12 48 45 86t77.5 60.5t92 33.5t95.5 11q161 0 257 -144 l-149 -120q-52 103 -148 103q-61 0 -71 -32q-1 -8 3 -16.5t14.5 -17t18 -14t21.5 -14t17 -10.5q4 -2 25.5 -14.5t33.5 -19.5q39 -23 61.5 -39t53 -46t40.5 -66t0 -78q-24 -97 -133 -176q26 -48 10 -111q-25 -102 -114.5 -153.5t-191.5 -51.5q-94 0 -155.5 28.5t-123.5 102.5 zM267 368q-7 -30 50 -67l131 -81q78 53 37 94q-8 10 -45 33l-120 78q-47 -33 -53 -57z" />
<glyph unicode="&#xa8;" horiz-adv-x="738" d="M275 795q9 39 36 63.5t66 24.5t54 -24.5t5 -63.5q-9 -39 -36.5 -63.5t-65.5 -24.5t-53 24.5t-6 63.5zM526 795q9 39 36 63.5t66 24.5q38 0 53 -24.5t6 -63.5q-10 -39 -37.5 -63.5t-65.5 -24.5q-39 0 -53.5 24.5t-4.5 63.5z" />
<glyph unicode="&#xa9;" horiz-adv-x="960" d="M74 401q30 119 113 220t198 160t233 59t204 -59t119.5 -160t3.5 -220q-45 -182 -204.5 -311.5t-339.5 -129.5q-118 0 -204 59t-119.5 160.5t-3.5 221.5zM192 401q-33 -134 36.5 -232.5t199.5 -98.5t248.5 98.5t151.5 232.5q32 133 -37.5 231.5t-199.5 98.5t-248.5 -98.5 t-150.5 -231.5zM259 397q29 119 114.5 197.5t200.5 78.5q121 0 178 -88l-103 -85q-37 56 -103 56q-63 -1 -108 -44.5t-62 -114.5q-17 -70 4.5 -111.5t86.5 -41.5q67 0 140 64l62 -85q-112 -96 -231 -96q-120 0 -164 75.5t-15 194.5z" />
<glyph unicode="&#xaa;" horiz-adv-x="531" d="M109 601q24 97 91.5 156t171.5 59q34 0 65 -9.5t44 -24.5h1l7 28h118l-103 -417h-118l7 27h-1q-47 -33 -126 -33q-103 0 -142 59t-15 155zM234 601q-26 -107 76 -107t129 107q27 108 -76 108q-102 0 -129 -108z" />
<glyph unicode="&#xab;" horiz-adv-x="805" d="M48 255l300 240l85 -115l-122 -100l-42 -25l30 -25l72 -100l-141 -115zM391 255l300 240l84 -115l-121 -100l-42 -25l29 -25l73 -100l-142 -115z" />
<glyph unicode="&#xac;" horiz-adv-x="577" d="M15 221l37 149h518l-79 -320h-163l42 172z" />
<glyph unicode="&#xad;" horiz-adv-x="431" d="M24 257l38 156h372l-39 -156h-371z" />
<glyph unicode="&#xae;" horiz-adv-x="960" d="M74 401q30 119 113 220t198 160t233 59t204 -59t119.5 -160t3.5 -220q-45 -182 -204.5 -311.5t-339.5 -129.5q-118 0 -204 59t-119.5 160.5t-3.5 221.5zM191 400q-32 -133 37.5 -231.5t199.5 -98.5t248.5 98.5t151.5 231.5q32 134 -37.5 232.5t-199.5 98.5t-248.5 -99 t-151.5 -232zM260 162l117 476h206q69 0 107.5 -40t20.5 -115q-8 -32 -44 -66.5t-68 -44.5q30 -14 36 -52l25 -158h-126l-19 127q-3 25 -11.5 33t-36.5 8h-53l-41 -168h-113zM442 444h88q57 0 66 39q5 21 -4 31t-37 10h-93z" />
<glyph unicode="&#xaf;" horiz-adv-x="787" d="M326 732l29 117h415l-29 -117h-415z" />
<glyph unicode="&#xb0;" horiz-adv-x="441" d="M114 622q21 87 81 142t146 55q87 0 119 -55t11 -142q-21 -86 -81 -141.5t-146 -55.5t-118.5 55.5t-11.5 141.5zM224 622q-19 -83 48 -83q68 0 89 83q21 84 -48 84q-68 0 -89 -84z" />
<glyph unicode="&#xb1;" horiz-adv-x="718" d="M20 1l39 159h540l-39 -159h-540zM128 438l39 158h202l-6 18l49 196h155l-48 -196l-15 -18h202l-39 -158h-202l6 -18l-48 -195h-156l48 194l15 19h-202z" />
<glyph unicode="&#xb2;" horiz-adv-x="479" d="M83 361l24 98q13 54 56 99t112 66l58 18q56 16 61 34q3 11 -6.5 17.5t-36.5 6.5q-31 0 -66 -15.5t-61 -43.5l-61 79q107 95 216 95q84 0 120.5 -40.5t22.5 -98.5q-25 -100 -164 -142l-69 -20q-37 -12 -49 -38h232l-29 -115h-360z" />
<glyph unicode="&#xb3;" horiz-adv-x="514" d="M95 445l103 80q22 -32 45.5 -44t63.5 -12q18 0 33 3t23 7t14 9t8 8.5t2 5.5q4 14 -7 25.5t-47 14.5l-90 2l26 106q75 1 88 2q60 6 67 33q5 21 -58 21q-42 0 -71.5 -9t-62.5 -38l-62 74q65 49 114 68t111 19q89 0 130 -37.5t26 -96.5q-11 -47 -65 -85q45 -36 29 -97 q-17 -69 -88 -109t-148 -40q-130 0 -184 90z" />
<glyph unicode="&#xb4;" horiz-adv-x="748" d="M363 770l237 217l79 -106l-261 -186z" />
<glyph unicode="&#xb5;" horiz-adv-x="738" d="M-47 -210l207 840h179l-94 -382q-13 -54 10 -82t71 -28q59 0 99 29.5t53 83.5l93 379h179l-156 -631h-178l7 29h-2q-73 -39 -133 -39q-56 0 -96 34h-2l-58 -233h-179z" />
<glyph unicode="&#xb6;" horiz-adv-x="822" d="M63 537q28 113 135.5 193t229.5 80h455l-42 -168h-86l5 -18l-199 -805h-183l199 805l14 18h-81l7 -18l-199 -805h-184l110 449q-103 17 -154.5 92.5t-26.5 176.5z" />
<glyph unicode="&#xb7;" horiz-adv-x="324" d="M90 406q12 47 44.5 76.5t79.5 29.5t65.5 -29.5t6.5 -76.5q-12 -48 -45 -77.5t-79 -29.5q-47 0 -65.5 29.5t-6.5 77.5z" />
<glyph unicode="&#xb8;" horiz-adv-x="856" d="M209 -170l96 77q32 24 14 47l-37 50h117l24 -34q43 -58 -29 -117l-127 -101z" />
<glyph unicode="&#xb9;" horiz-adv-x="345" d="M130 687l164 123h108l-113 -455h-125l63 259l21 44l-2 1l-31 -35l-20 -17z" />
<glyph unicode="&#xba;" horiz-adv-x="526" d="M109 604q24 95 96 155.5t178 60.5q107 0 149.5 -60t18.5 -156q-24 -95 -96.5 -156t-177.5 -61q-107 0 -149.5 60.5t-18.5 156.5zM228 604q-28 -111 75 -111t130 111q27 110 -76 110q-101 0 -129 -110z" />
<glyph unicode="&#xbb;" horiz-adv-x="805" d="M17 130l122 100q22 13 42 25l-30 25l-72 100l141 115l182 -240l-300 -240zM360 130l121 100q23 13 42 25l-29 25l-73 100l142 115l182 -240l-301 -240z" />
<glyph unicode="&#xbc;" horiz-adv-x="906" d="M114 -10l504 830h134l-504 -830h-134zM130 687l164 123h108l-113 -455h-125l63 259l21 44l-2 1l-31 -35l-20 -17zM399 89l21 85l320 280h106l-62 -250h49l-29 -115h-49l-21 -90h-128l22 90h-229zM596 203h59l19 72l-19 -23l-41 -36z" />
<glyph unicode="&#xbd;" horiz-adv-x="931" d="M114 -10l504 830h134l-504 -830h-134zM130 687l164 123h108l-113 -455h-125l63 259l21 44l-2 1l-31 -35l-20 -17zM446 -1l24 98q14 54 57 100t111 66l58 17q57 18 61 35q2 6 -0.5 11t-13 9t-29.5 4q-31 0 -66 -16t-61 -44l-61 79q107 96 217 96q84 0 120 -40.5t22 -98.5 q-24 -101 -164 -142l-69 -21q-35 -10 -49 -38h232l-28 -115h-361z" />
<glyph unicode="&#xbe;" horiz-adv-x="1064" d="M95 445l103 80q22 -32 45.5 -44t63.5 -12q18 0 33 3t23 7t14 9t8 8.5t2 5.5q4 14 -7 25.5t-47 14.5l-90 2l26 106q75 1 88 2q60 6 67 33q5 21 -58 21q-42 0 -71.5 -9t-62.5 -38l-62 74q65 49 114 68t111 19q89 0 130 -37.5t26 -96.5q-11 -47 -65 -85q45 -36 29 -97 q-17 -69 -88 -109t-148 -40q-130 0 -184 90zM272 -10l504 830h134l-504 -830h-134zM557 89l21 85l320 280h106l-62 -250h49l-29 -115h-49l-21 -90h-128l22 90h-229zM754 203h60l18 72l-19 -23l-41 -36z" />
<glyph unicode="&#xbf;" horiz-adv-x="732" d="M37 212q8 31 20.5 56t33.5 45.5t38.5 34.5t49 29.5t50 23l55.5 22.5q48 19 71.5 41.5t34.5 68.5l11 46h182l-14 -60q-19 -75 -58.5 -126t-83 -73.5t-85.5 -37t-72 -30.5t-36 -39q-8 -32 23 -45t69 -13q113 0 210 94l103 -125q-166 -134 -354 -134q-55 0 -103 12t-87 37 t-55.5 69.5t-2.5 103.5zM428 716q11 47 44 75.5t79 28.5q47 0 66 -28t7 -76t-45 -76t-79 -28t-64.5 28t-7.5 76z" />
<glyph unicode="&#xc0;" horiz-adv-x="989" d="M-54 0l598 810h163l197 -810h-210l-43 175l16 18h-389l8 -18l-128 -175h-212zM400 345h221l-15 18l-30 126l-10 82l-49 -82l-92 -126zM564 1059l131 106l130 -217l-93 -75z" />
<glyph unicode="&#xc1;" horiz-adv-x="989" d="M-54 0l598 810h163l197 -810h-210l-43 175l16 18h-389l8 -18l-128 -175h-212zM400 345h221l-15 18l-30 126l-10 82l-49 -82l-92 -126zM499 948l237 216l79 -105l-261 -186z" />
<glyph unicode="&#xc2;" horiz-adv-x="989" d="M-54 0l598 810h163l197 -810h-210l-43 175l16 18h-389l8 -18l-128 -175h-212zM400 345h221l-15 18l-30 126l-10 82l-49 -82l-92 -126zM454 941l255 206h2l152 -206l-86 -69l-109 111l-162 -111z" />
<glyph unicode="&#xc3;" horiz-adv-x="989" d="M-54 0l598 810h163l197 -810h-210l-43 175l16 18h-389l8 -18l-128 -175h-212zM400 345h221l-15 18l-30 126l-10 82l-49 -82l-92 -126zM410 944q29 55 80 92t107 37q57 0 107 -38q46 -32 74 -32q18 0 30.5 3t32 21t35.5 52l56 -77q-33 -60 -84 -93.5t-105 -33.5 q-55 0 -106 38q-48 32 -75 32q-56 0 -96 -77z" />
<glyph unicode="&#xc4;" horiz-adv-x="989" d="M-54 0l598 810h163l197 -810h-210l-43 175l16 18h-389l8 -18l-128 -175h-212zM400 345h221l-15 18l-30 126l-10 82l-49 -82l-92 -126zM463 988q10 39 37.5 63.5t65.5 24.5t53 -24.5t6 -63.5q-10 -39 -37.5 -63.5t-65.5 -24.5t-53 24.5t-6 63.5zM714 988q9 39 36 63.5 t66 24.5q38 0 53 -24.5t6 -63.5t-36.5 -63.5t-65.5 -24.5q-39 0 -54 24.5t-5 63.5z" />
<glyph unicode="&#xc5;" horiz-adv-x="989" d="M-54 0l598 810h163l197 -810h-210l-43 175l16 18h-389l8 -18l-128 -175h-212zM400 345h221l-15 18l-30 126l-10 82l-49 -82l-92 -126zM550 1003q14 57 55 93t100 36t82.5 -36t9.5 -93q-14 -56 -55.5 -92t-99.5 -36q-60 0 -83 36t-9 92zM639 1003q-9 -38 25 -38 q33 0 44 38q9 39 -25 39q-33 0 -44 -39z" />
<glyph unicode="&#xc6;" horiz-adv-x="1180" d="M-54 0l597 810h699l-43 -171h-384l4 -18l-28 -112l-13 -18h337l-42 -172h-337l4 -18l-28 -111l-13 -19h385l-42 -171h-569l39 164l13 18h-248l-3 -22l-117 -160h-211zM402 353h167l-5 18l61 249l14 18h-31l1 -18l-181 -248z" />
<glyph unicode="&#xc7;" horiz-adv-x="876" d="M84 401q46 186 192 302t354 116q222 0 310 -154l-160 -129q-22 53 -72 82t-120 29q-125 0 -202 -66.5t-106 -179.5q-28 -111 15.5 -175.5t171.5 -64.5q68 0 136 29t115 79l95 -124q-73 -67 -164.5 -107.5t-187.5 -47.5l15 -17q21 -25 13 -58t-43 -62l-127 -102l-59 79 l96 78q26 21 14 37l-37 50q-162 24 -226 133t-23 273z" />
<glyph unicode="&#xc8;" horiz-adv-x="846" d="M20 0l200 810h688l-42 -171h-513l13 -18l-28 -112l-22 -18h465l-42 -172h-465l13 -18l-27 -112l-23 -18h513l-42 -171h-688zM478 1061l131 106l130 -217l-92 -75z" />
<glyph unicode="&#xc9;" horiz-adv-x="846" d="M20 0l200 810h688l-42 -171h-513l13 -18l-28 -112l-22 -18h465l-42 -172h-465l13 -18l-27 -112l-23 -18h513l-42 -171h-688zM485 949l238 216l78 -105l-260 -186z" />
<glyph unicode="&#xca;" horiz-adv-x="846" d="M20 0l200 810h688l-42 -171h-513l13 -18l-28 -112l-22 -18h465l-42 -172h-465l13 -18l-27 -112l-23 -18h513l-42 -171h-688zM395 941l256 206h2l152 -206l-87 -69l-108 111l-162 -111z" />
<glyph unicode="&#xcb;" horiz-adv-x="846" d="M20 0l200 810h688l-42 -171h-513l13 -18l-28 -112l-22 -18h465l-42 -172h-465l13 -18l-27 -112l-23 -18h513l-42 -171h-688zM409 988q9 39 36 63.5t66 24.5q38 0 53 -24.5t6 -63.5t-36.5 -63.5t-65.5 -24.5q-39 0 -54 24.5t-5 63.5zM659 988q10 39 37.5 63.5t65.5 24.5 t53 -24.5t6 -63.5q-10 -39 -37.5 -63.5t-65.5 -24.5t-53 24.5t-6 63.5z" />
<glyph unicode="&#xcc;" horiz-adv-x="381" d="M25 0l200 810h193l-200 -810h-193zM218 1061l131 105l130 -216l-92 -75z" />
<glyph unicode="&#xcd;" horiz-adv-x="381" d="M25 0l200 810h193l-200 -810h-193zM227 948l238 216l78 -105l-260 -186z" />
<glyph unicode="&#xce;" horiz-adv-x="381" d="M25 0l200 810h193l-200 -810h-193zM146 941l255 206h2l152 -206l-86 -69l-109 111l-162 -111z" />
<glyph unicode="&#xcf;" horiz-adv-x="381" d="M25 0l200 810h193l-200 -810h-193zM158 988q10 39 37.5 63.5t65.5 24.5t53 -24.5t6 -63.5q-10 -39 -37.5 -63.5t-65.5 -24.5t-53 24.5t-6 63.5zM409 988q9 39 36 63.5t66 24.5q38 0 53 -24.5t6 -63.5t-36.5 -63.5t-65.5 -24.5q-39 0 -54 24.5t-5 63.5z" />
<glyph unicode="&#xd0;" horiz-adv-x="914" d="M20 0l74 302l14 17h-74l43 172h73l-5 17l75 302h352q102 0 173 -25.5t106 -64.5t48.5 -95t9.5 -108t-19 -112q-101 -405 -513 -405h-357zM237 171h173q71 0 121.5 16t82 49.5t49 72t31.5 96.5q14 57 15 95.5t-14 72.5t-58.5 50.5t-116.5 16.5h-167l13 -18l-28 -114 l-13 -17h202l-42 -172h-202l4 -18l-27 -111z" />
<glyph unicode="&#xd1;" horiz-adv-x="936" d="M20 0l200 810h160l240 -402l40 -94h2l122 496h193l-200 -810h-160l-235 399l-44 102h-1l-124 -501h-193zM379 945q30 55 81 92t106 37q56 0 108 -38q18 -13 37 -23q23 -9 36 -9q18 0 31 3t32.5 21t34.5 52l57 -77q-34 -61 -84.5 -94t-105.5 -33q-56 0 -105 38 q-52 32 -76 32q-55 0 -95 -77z" />
<glyph unicode="&#xd2;" horiz-adv-x="959" d="M84 401q46 185 186 302t342 117q204 0 286.5 -116.5t36.5 -302.5q-46 -185 -186 -298t-341 -113q-203 0 -286.5 112.5t-37.5 298.5zM280 401q-28 -112 12.5 -175.5t157.5 -63.5q229 0 289 239q28 114 -12 180.5t-157 66.5q-116 0 -189 -66t-101 -181zM516 1061l131 106 l130 -217l-93 -75z" />
<glyph unicode="&#xd3;" horiz-adv-x="959" d="M84 401q46 185 186 302t342 117q204 0 286.5 -116.5t36.5 -302.5q-46 -185 -186 -298t-341 -113q-203 0 -286.5 112.5t-37.5 298.5zM280 401q-28 -112 12.5 -175.5t157.5 -63.5q229 0 289 239q28 114 -12 180.5t-157 66.5q-116 0 -189 -66t-101 -181zM511 949l237 216 l79 -105l-260 -186z" />
<glyph unicode="&#xd4;" horiz-adv-x="959" d="M84 401q46 185 186 302t342 117q204 0 286.5 -116.5t36.5 -302.5q-46 -185 -186 -298t-341 -113q-203 0 -286.5 112.5t-37.5 298.5zM280 401q-28 -112 12.5 -175.5t157.5 -63.5q229 0 289 239q28 114 -12 180.5t-157 66.5q-116 0 -189 -66t-101 -181zM439 941l254 206h2 l153 -206l-86 -69l-109 111l-162 -111z" />
<glyph unicode="&#xd5;" horiz-adv-x="959" d="M84 401q46 185 186 302t342 117q204 0 286.5 -116.5t36.5 -302.5q-46 -185 -186 -298t-341 -113q-203 0 -286.5 112.5t-37.5 298.5zM280 401q-28 -112 12.5 -175.5t157.5 -63.5q229 0 289 239q28 114 -12 180.5t-157 66.5q-116 0 -189 -66t-101 -181zM386 944 q29 55 80.5 92t106.5 37q28 0 57.5 -11t49.5 -27q46 -32 74 -32q18 0 30.5 3t32 21t35.5 52l56 -77q-33 -61 -83.5 -94t-105.5 -33t-106 38q-48 32 -75 32q-56 0 -95 -77z" />
<glyph unicode="&#xd6;" horiz-adv-x="959" d="M84 401q46 185 186 302t342 117q204 0 286.5 -116.5t36.5 -302.5q-46 -185 -186 -298t-341 -113q-203 0 -286.5 112.5t-37.5 298.5zM280 401q-28 -112 12.5 -175.5t157.5 -63.5q229 0 289 239q28 114 -12 180.5t-157 66.5q-116 0 -189 -66t-101 -181zM448 988 q10 39 37.5 63.5t65.5 24.5t53 -24.5t6 -63.5q-10 -39 -37.5 -63.5t-65.5 -24.5t-53 24.5t-6 63.5zM699 988q9 39 36 63.5t66 24.5t54 -24.5t5 -63.5q-9 -39 -36.5 -63.5t-65.5 -24.5t-53 24.5t-6 63.5z" />
<glyph unicode="&#xd7;" horiz-adv-x="678" d="M65 245l202 160l-123 160l133 107l118 -163l199 163l80 -107l-202 -160l123 -160l-133 -107l-118 163l-199 -163z" />
<glyph unicode="&#xd8;" horiz-adv-x="959" d="M61 -15l63 78l22 7q-56 56 -71.5 144t9.5 186q46 187 186.5 304.5t342.5 117.5q70 0 143 -20l5 17l44 51l101 -70l-36 -44l-15 -7q137 -118 79 -349q-45 -186 -185.5 -299.5t-341.5 -113.5q-112 0 -173 28l-4 -19l-68 -81zM280 400q-23 -92 3 -160l8 20l312 371l19 12 q-16 6 -51 6q-117 0 -190 -66.5t-101 -182.5zM367 172q26 -13 83 -13q118 0 189 64t99 177q34 138 -20 191l-3 -17l-329 -392z" />
<glyph unicode="&#xd9;" horiz-adv-x="947" d="M107 374l108 436h193l-108 -435q-27 -111 5.5 -162t138.5 -51q105 0 163.5 51.5t86.5 161.5l107 435h193l-108 -436q-45 -184 -167.5 -284t-316.5 -100t-267.5 99.5t-27.5 284.5zM509 1061l131 106l130 -217l-93 -75z" />
<glyph unicode="&#xda;" horiz-adv-x="947" d="M107 374l108 436h193l-108 -435q-27 -111 5.5 -162t138.5 -51q105 0 163.5 51.5t86.5 161.5l107 435h193l-108 -436q-45 -184 -167.5 -284t-316.5 -100t-267.5 99.5t-27.5 284.5zM505 948l237 216l79 -105l-261 -186z" />
<glyph unicode="&#xdb;" horiz-adv-x="947" d="M107 374l108 436h193l-108 -435q-27 -111 5.5 -162t138.5 -51q105 0 163.5 51.5t86.5 161.5l107 435h193l-108 -436q-45 -184 -167.5 -284t-316.5 -100t-267.5 99.5t-27.5 284.5zM427 941l252 206h2l155 -206l-86 -69l-108 111l-163 -111z" />
<glyph unicode="&#xdc;" horiz-adv-x="947" d="M107 374l108 436h193l-108 -435q-27 -111 5.5 -162t138.5 -51q105 0 163.5 51.5t86.5 161.5l107 435h193l-108 -436q-45 -184 -167.5 -284t-316.5 -100t-267.5 99.5t-27.5 284.5zM442 988q10 39 37.5 63.5t65.5 24.5t53 -24.5t6 -63.5q-10 -39 -37.5 -63.5t-65.5 -24.5 t-53 24.5t-6 63.5zM693 988q9 39 36 63.5t66 24.5t54 -24.5t5 -63.5q-9 -39 -36.5 -63.5t-65.5 -24.5t-53 24.5t-6 63.5z" />
<glyph unicode="&#xdd;" horiz-adv-x="968" d="M145 810h242l121 -241l27 -76h2l64 76l242 241h241l-490 -478l-82 -332h-194l82 332zM526 947l237 217l79 -106l-260 -186z" />
<glyph unicode="&#xde;" horiz-adv-x="863" d="M20 0l200 810h192l-30 -120l-23 -18h242q145 0 211.5 -74t36.5 -194q-28 -116 -132 -191.5t-249 -75.5h-239l13 -19l-29 -118h-193zM271 308h240q118 0 142 96q12 47 -9.5 71.5t-84.5 24.5h-240l13 -18l-39 -156z" />
<glyph unicode="&#xdf;" horiz-adv-x="725" d="M-15 -1l153 619q15 61 49 106.5t80 71t96.5 37.5t106.5 12q137 0 205 -65t41 -176q-10 -38 -42 -78t-73 -62v-2q57 -21 82 -75t7 -128q-30 -119 -131 -194.5t-228 -75.5q-78 0 -124 18l44 180q53 -28 112 -28q53 0 89 26t48 73q11 47 -13.5 75.5t-78.5 28.5h-114l42 168 l77 -1q92 -1 110 71q8 34 -17.5 55t-78.5 21q-48 0 -71 -17.5t-34 -63.5l-147 -596h-190z" />
<glyph unicode="&#xe0;" d="M53 313q36 148 138.5 237t259.5 89q50 0 92 -14t62 -36h2l10 41h190l-156 -631h-190l10 40h-2q-69 -49 -179 -49q-156 0 -214.5 88.5t-22.5 234.5zM243 313q-41 -161 112 -161q80 0 126 40.5t66 120.5q20 82 -6 123t-106 41q-153 0 -192 -164zM390 881l131 106l130 -217 l-92 -75z" />
<glyph unicode="&#xe1;" d="M53 313q36 148 138.5 237t259.5 89q50 0 92 -14t62 -36h2l10 41h190l-156 -631h-190l10 40h-2q-69 -49 -179 -49q-156 0 -214.5 88.5t-22.5 234.5zM243 313q-41 -161 112 -161q80 0 126 40.5t66 120.5q20 82 -6 123t-106 41q-153 0 -192 -164zM396 770l238 217l78 -106 l-260 -186z" />
<glyph unicode="&#xe2;" d="M53 313q36 148 138.5 237t259.5 89q50 0 92 -14t62 -36h2l10 41h190l-156 -631h-190l10 40h-2q-69 -49 -179 -49q-156 0 -214.5 88.5t-22.5 234.5zM243 313q-41 -161 112 -161q80 0 126 40.5t66 120.5q20 82 -6 123t-106 41q-153 0 -192 -164zM307 766l255 206h2 l152 -207l-86 -69l-108 112l-163 -112z" />
<glyph unicode="&#xe3;" d="M53 313q36 148 138.5 237t259.5 89q50 0 92 -14t62 -36h2l10 41h190l-156 -631h-190l10 40h-2q-69 -49 -179 -49q-156 0 -214.5 88.5t-22.5 234.5zM243 313q-41 -161 112 -161q80 0 126 40.5t66 120.5q20 82 -6 123t-106 41q-153 0 -192 -164zM255 781q29 55 80.5 92 t106.5 37q54 0 107 -38q46 -32 74 -32q18 0 30.5 3t32 21t35.5 52l56 -77q-33 -61 -83.5 -94t-105.5 -33t-106 38q-48 32 -75 32q-57 0 -95 -77z" />
<glyph unicode="&#xe4;" d="M53 313q36 148 138.5 237t259.5 89q50 0 92 -14t62 -36h2l10 41h190l-156 -631h-190l10 40h-2q-69 -49 -179 -49q-156 0 -214.5 88.5t-22.5 234.5zM243 313q-41 -161 112 -161q80 0 126 40.5t66 120.5q20 82 -6 123t-106 41q-153 0 -192 -164zM305 795q9 39 36 63.5 t66 24.5q38 0 53 -24.5t6 -63.5t-36.5 -63.5t-65.5 -24.5q-39 0 -54 24.5t-5 63.5zM555 795q10 39 37.5 63.5t65.5 24.5t53 -24.5t6 -63.5q-10 -39 -37.5 -63.5t-65.5 -24.5t-53 24.5t-6 63.5z" />
<glyph unicode="&#xe5;" d="M53 313q36 148 138.5 237t259.5 89q50 0 92 -14t62 -36h2l10 41h190l-156 -631h-190l10 40h-2q-69 -49 -179 -49q-156 0 -214.5 88.5t-22.5 234.5zM243 313q-41 -161 112 -161q80 0 126 40.5t66 120.5q20 82 -6 123t-106 41q-153 0 -192 -164zM415 823q14 57 55 92.5 t100 35.5t82.5 -36t9.5 -92t-55.5 -92t-99.5 -36q-60 0 -83 35.5t-9 92.5zM504 823q-10 -38 25 -38q33 0 44 38q9 38 -25 38q-33 0 -44 -38z" />
<glyph unicode="&#xe6;" horiz-adv-x="1216" d="M53 313q36 148 138.5 237t259.5 89q50 0 92 -14t62 -36h2l10 41h190l-6 -26h2q26 17 68 26.5t72 9.5q71 0 125 -28t81.5 -74t37.5 -105t-8 -122q-2 -6 -4 -12.5t-7.5 -24t-12.5 -39.5h-462l9 -17q10 -34 40 -54.5t73 -20.5q77 0 172 61l81 -110q-140 -102 -281 -102 q-75 0 -126 37h-2l-8 -30h-190l10 40h-2q-69 -49 -179 -49q-156 0 -214.5 88.5t-22.5 234.5zM243 313q-41 -161 112 -161q80 0 126 40.5t66 120.5q20 82 -6 123t-106 41q-153 0 -192 -164zM729 394h287l-11 18q-23 77 -109 77q-87 0 -146 -77z" />
<glyph unicode="&#xe7;" horiz-adv-x="686" d="M52 311q35 141 151.5 235t278.5 94q167 0 239 -104l-152 -123q-43 64 -127 64q-76 0 -128.5 -45.5t-71.5 -120.5q-18 -73 10 -116t108 -43q84 0 167 67l89 -121q-115 -94 -259 -107l15 -18q21 -25 13 -58t-43 -62l-127 -102l-59 79l96 78q29 23 17 40l-36 49 q-120 23 -165.5 108.5t-15.5 205.5z" />
<glyph unicode="&#xe8;" horiz-adv-x="777" d="M52 311q35 144 151 236.5t277 92.5q164 0 229.5 -93t30.5 -236q-7 -33 -21 -66h-496l14 -17q12 -38 46.5 -62t85.5 -24q89 0 170 52l81 -110q-129 -94 -289 -94q-172 0 -243 90t-36 231zM263 394h308l-12 17q-21 79 -117 79q-94 0 -158 -79zM372 881l131 106l131 -217 l-93 -75z" />
<glyph unicode="&#xe9;" horiz-adv-x="777" d="M52 311q35 144 151 236.5t277 92.5q164 0 229.5 -93t30.5 -236q-7 -33 -21 -66h-496l14 -17q12 -38 46.5 -62t85.5 -24q89 0 170 52l81 -110q-129 -94 -289 -94q-172 0 -243 90t-36 231zM263 394h308l-12 17q-21 79 -117 79q-94 0 -158 -79zM378 770l237 217l79 -106 l-261 -186z" />
<glyph unicode="&#xea;" horiz-adv-x="777" d="M52 311q35 144 151 236.5t277 92.5q164 0 229.5 -93t30.5 -236q-7 -33 -21 -66h-496l14 -17q12 -38 46.5 -62t85.5 -24q89 0 170 52l81 -110q-129 -94 -289 -94q-172 0 -243 90t-36 231zM263 394h308l-12 17q-21 79 -117 79q-94 0 -158 -79zM306 766l255 206h2l152 -207 l-86 -69l-108 112l-163 -112z" />
<glyph unicode="&#xeb;" horiz-adv-x="777" d="M52 311q35 144 151 236.5t277 92.5q164 0 229.5 -93t30.5 -236q-7 -33 -21 -66h-496l14 -17q12 -38 46.5 -62t85.5 -24q89 0 170 52l81 -110q-129 -94 -289 -94q-172 0 -243 90t-36 231zM263 394h308l-12 17q-21 79 -117 79q-94 0 -158 -79zM307 795q9 39 36 63.5 t66 24.5q38 0 53 -24.5t6 -63.5t-36.5 -63.5t-65.5 -24.5q-39 0 -54 24.5t-5 63.5zM557 795q10 39 37.5 63.5t65.5 24.5t53 -24.5t6 -63.5q-10 -39 -37.5 -63.5t-65.5 -24.5t-53 24.5t-6 63.5z" />
<glyph unicode="&#xec;" horiz-adv-x="339" d="M5 0l156 630h190l-156 -630h-190zM157 881l131 106l131 -217l-93 -75z" />
<glyph unicode="&#xed;" horiz-adv-x="339" d="M5 0l156 630h190l-156 -630h-190zM152 770l237 217l79 -106l-260 -186z" />
<glyph unicode="&#xee;" horiz-adv-x="339" d="M5 0l156 630h190l-156 -630h-190zM85 766l255 206h2l152 -207l-86 -69l-108 112l-163 -112z" />
<glyph unicode="&#xef;" horiz-adv-x="339" d="M5 0l156 630h190l-156 -630h-190zM90 795q9 39 36 63.5t66 24.5t54 -24.5t5 -63.5q-9 -39 -36.5 -63.5t-65.5 -24.5t-53 24.5t-6 63.5zM340 795q10 39 37.5 63.5t65.5 24.5t53 -24.5t6 -63.5q-10 -39 -37.5 -63.5t-65.5 -24.5t-53 24.5t-6 63.5z" />
<glyph unicode="&#xf0;" horiz-adv-x="703" d="M44 300q29 116 118 199t208 92q27 2 53 -2l-29 67l-95 -32l-37 103l86 31l-35 89h206l13 -29l83 29l40 -101l-81 -31l81 -190q41 -96 8 -225q-33 -135 -136.5 -222.5t-249.5 -87.5q-147 0 -206.5 87t-26.5 223zM219 294q-36 -141 99 -141q134 0 168 141q18 71 -6.5 112 t-89.5 41t-109 -40.5t-62 -112.5z" />
<glyph unicode="&#xf1;" horiz-adv-x="790" d="M5 0l156 631h190l-13 -53h2q83 62 193 62q129 0 186.5 -67t28.5 -184l-97 -389h-190l92 373q14 56 -3.5 80.5t-94.5 24.5q-66 0 -111.5 -29.5t-58.5 -82.5l-90 -366h-190zM264 781q29 55 80.5 92t106.5 37q54 0 107 -38q46 -32 74 -32q18 0 30.5 3t32 21t35.5 52l56 -77 q-33 -60 -84 -93.5t-105 -33.5q-55 0 -106 38q-48 32 -75 32q-56 0 -95 -77z" />
<glyph unicode="&#xf2;" horiz-adv-x="777" d="M53 315q35 143 147 234t277 91q166 0 232.5 -90.5t31.5 -234.5q-35 -142 -147.5 -233.5t-277.5 -91.5t-231.5 91t-31.5 234zM243 315q-19 -77 9 -120t105 -43q78 0 126.5 43t67.5 120t-8.5 119.5t-105.5 42.5q-153 0 -194 -162zM365 881l131 106l131 -217l-93 -75z" />
<glyph unicode="&#xf3;" horiz-adv-x="777" d="M53 315q35 143 147 234t277 91q166 0 232.5 -90.5t31.5 -234.5q-35 -142 -147.5 -233.5t-277.5 -91.5t-231.5 91t-31.5 234zM243 315q-19 -77 9 -120t105 -43q78 0 126.5 43t67.5 120t-8.5 119.5t-105.5 42.5q-153 0 -194 -162zM381 770l237 217l79 -106l-261 -186z" />
<glyph unicode="&#xf4;" horiz-adv-x="777" d="M53 315q35 143 147 234t277 91q166 0 232.5 -90.5t31.5 -234.5q-35 -142 -147.5 -233.5t-277.5 -91.5t-231.5 91t-31.5 234zM243 315q-19 -77 9 -120t105 -43q78 0 126.5 43t67.5 120t-8.5 119.5t-105.5 42.5q-153 0 -194 -162zM301 766l255 206h2l152 -207l-86 -69 l-108 112l-163 -112z" />
<glyph unicode="&#xf5;" horiz-adv-x="777" d="M53 315q35 143 147 234t277 91q166 0 232.5 -90.5t31.5 -234.5q-35 -142 -147.5 -233.5t-277.5 -91.5t-231.5 91t-31.5 234zM243 315q-19 -77 9 -120t105 -43q78 0 126.5 43t67.5 120t-8.5 119.5t-105.5 42.5q-153 0 -194 -162zM255 781q29 55 80.5 92t106.5 37 q54 0 107 -38q46 -32 74 -32q18 0 30.5 3t32 21t35.5 52l56 -77q-33 -61 -83.5 -94t-105.5 -33t-106 38q-48 32 -75 32q-57 0 -95 -77z" />
<glyph unicode="&#xf6;" horiz-adv-x="777" d="M53 315q35 143 147 234t277 91q166 0 232.5 -90.5t31.5 -234.5q-35 -142 -147.5 -233.5t-277.5 -91.5t-231.5 91t-31.5 234zM243 315q-19 -77 9 -120t105 -43q78 0 126.5 43t67.5 120t-8.5 119.5t-105.5 42.5q-153 0 -194 -162zM310 794q9 39 36 63.5t66 24.5 q38 0 53 -24.5t6 -63.5q-10 -39 -37.5 -63.5t-65.5 -24.5q-39 0 -53.5 24.5t-4.5 63.5zM560 794q9 39 36 63.5t66 24.5t54 -24.5t5 -63.5q-9 -39 -36.5 -63.5t-65.5 -24.5t-53 24.5t-6 63.5z" />
<glyph unicode="&#xf7;" horiz-adv-x="718" d="M100 326l40 159h539l-39 -159h-540zM239 160q11 43 39.5 69t69.5 26q42 0 58 -26t5 -69t-40 -69t-69 -26q-42 0 -58 26t-5 69zM360 650q11 43 39.5 69t69.5 26q42 0 58 -26t5 -69t-40 -69t-69 -26q-42 0 -58 26t-5 69z" />
<glyph unicode="&#xf8;" horiz-adv-x="728" d="M23 -14l48 58l22 13q-38 42 -48.5 114.5t8.5 143.5q35 144 139.5 234t259.5 90q74 0 122 -22l8 25l51 60l93 -60l-54 -60l-18 -12q77 -91 38 -255q-35 -144 -139.5 -235t-258.5 -91q-74 0 -124 21l-8 -27l-51 -59zM232 315q-16 -63 1 -96l10 27l181 213l23 14 q-13 5 -35 5q-139 0 -180 -163zM298 158q9 -7 34 -7q140 0 181 164q15 59 2 98l-13 -32l-177 -206z" />
<glyph unicode="&#xf9;" horiz-adv-x="782" d="M61 248l95 382h190l-91 -368q-27 -110 93 -110q65 0 109 29t57 83l90 366h190l-156 -631h-190l13 52h-2q-75 -61 -180 -61q-139 0 -193 69t-25 189zM367 881l131 106l131 -217l-93 -75z" />
<glyph unicode="&#xfa;" horiz-adv-x="782" d="M61 248l95 382h190l-91 -368q-27 -110 93 -110q65 0 109 29t57 83l90 366h190l-156 -631h-190l13 52h-2q-75 -61 -180 -61q-139 0 -193 69t-25 189zM385 770l238 217l79 -106l-261 -186z" />
<glyph unicode="&#xfb;" horiz-adv-x="782" d="M61 248l95 382h190l-91 -368q-27 -110 93 -110q65 0 109 29t57 83l90 366h190l-156 -631h-190l13 52h-2q-75 -61 -180 -61q-139 0 -193 69t-25 189zM301 766l255 206h2l152 -207l-86 -69l-108 112l-163 -112z" />
<glyph unicode="&#xfc;" horiz-adv-x="782" d="M61 248l95 382h190l-91 -368q-27 -110 93 -110q65 0 109 29t57 83l90 366h190l-156 -631h-190l13 52h-2q-75 -61 -180 -61q-139 0 -193 69t-25 189zM310 795q9 39 36 63.5t66 24.5q38 0 53 -24.5t6 -63.5t-36.5 -63.5t-65.5 -24.5q-39 0 -54 24.5t-5 63.5zM560 795 q10 39 37 63.5t65 24.5q39 0 54 -24.5t5 -63.5q-9 -39 -36 -63.5t-66 -24.5q-38 0 -53 24.5t-6 63.5z" />
<glyph unicode="&#xfd;" horiz-adv-x="796" d="M-29 -175l41 166q83 -50 132 -50q28 0 52 15t53 60l-151 614h208l75 -320l9 -97h2l53 97l218 320h208l-479 -686q-50 -72 -119.5 -115.5t-145.5 -43.5q-77 0 -156 40zM380 770l237 217l79 -106l-261 -186z" />
<glyph unicode="&#xfe;" d="M-47 -210l259 1050h190l-56 -230q50 30 155 30q166 0 230.5 -89t27.5 -237q-37 -150 -144 -237t-275 -87q-39 0 -60 1.5t-47 9t-44 22.5q-1 -25 -12.5 -83t-22.5 -104l-11 -46h-190zM265 314q-21 -80 5.5 -116.5t108.5 -36.5q81 0 125.5 36.5t64.5 116.5t-6.5 117.5 t-107.5 37.5t-126 -38t-64 -117z" />
<glyph unicode="&#xff;" horiz-adv-x="796" d="M-29 -175l41 166q83 -50 132 -50q28 0 52 15t53 60l-151 614h208l75 -320l9 -97h2l53 97l218 320h208l-479 -686q-50 -72 -119.5 -115.5t-145.5 -43.5q-77 0 -156 40zM321 795q9 39 36 63.5t66 24.5q38 0 53 -24.5t6 -63.5t-36.5 -63.5t-65.5 -24.5q-39 0 -54 24.5 t-5 63.5zM571 795q10 39 37 63.5t65 24.5q39 0 54 -24.5t5 -63.5q-9 -39 -36.5 -63.5t-65.5 -24.5t-53 24.5t-6 63.5z" />
<glyph unicode="&#x152;" horiz-adv-x="1180" d="M84 401q21 87 61.5 162t97.5 133t134 91t164 33q40 0 79.5 -14t57.5 -36l10 41h554l-42 -172h-370l5 -18l-29 -112l-14 -18h333l-43 -172h-332l5 -18l-28 -112l-13 -18h370l-42 -172h-555l11 44q-80 -53 -162 -53q-70 0 -123.5 20.5t-85.5 57.5t-48 88.5t-14 113 t19 131.5zM280 401q-28 -117 -1.5 -178t100.5 -61q75 0 131.5 61.5t85.5 177.5q28 117 2.5 182t-99.5 65t-131.5 -64t-87.5 -183z" />
<glyph unicode="&#x153;" horiz-adv-x="1190" d="M53 315q35 143 142.5 234t264.5 91q144 0 203 -90q106 90 244 90q156 0 218.5 -93t27.5 -236q-7 -33 -21 -66h-473l12 -17q11 -38 44 -62t81 -24q86 0 164 52l75 -110q-123 -94 -277 -94q-152 0 -213 88q-101 -88 -246 -88q-157 0 -219 91t-27 234zM235 315 q-19 -77 6.5 -120t98.5 -43q145 0 184 163q19 77 -5.5 119.5t-98.5 42.5q-144 0 -185 -162zM698 394h293l-12 17q-20 79 -110 79q-89 0 -150 -79z" />
<glyph unicode="&#x178;" horiz-adv-x="968" d="M145 810h242l121 -241l27 -76h2l64 76l242 241h241l-490 -478l-82 -332h-194l82 332zM447 988q10 39 37.5 63.5t65.5 24.5t53 -24.5t6 -63.5q-10 -39 -37.5 -63.5t-65.5 -24.5t-53 24.5t-6 63.5zM698 988q9 39 36 63.5t66 24.5t54 -24.5t5 -63.5q-9 -39 -36.5 -63.5 t-65.5 -24.5t-53 24.5t-6 63.5z" />
<glyph unicode="&#x2c6;" horiz-adv-x="765" d="M296 766l255 206h2l152 -207l-86 -69l-108 112l-163 -112z" />
<glyph unicode="&#x2dc;" horiz-adv-x="775" d="M244 781q30 55 81 92t106 37q54 0 107 -38q46 -32 74 -32q18 0 30.5 3t32 21t35.5 52l56 -77q-33 -61 -83.5 -94t-105.5 -33t-106 38q-48 32 -75 32q-56 0 -95 -77z" />
<glyph unicode="&#x2000;" horiz-adv-x="583" />
<glyph unicode="&#x2001;" horiz-adv-x="1167" />
<glyph unicode="&#x2002;" horiz-adv-x="583" />
<glyph unicode="&#x2003;" horiz-adv-x="1167" />
<glyph unicode="&#x2004;" horiz-adv-x="389" />
<glyph unicode="&#x2005;" horiz-adv-x="291" />
<glyph unicode="&#x2006;" horiz-adv-x="194" />
<glyph unicode="&#x2007;" horiz-adv-x="194" />
<glyph unicode="&#x2008;" horiz-adv-x="145" />
<glyph unicode="&#x2009;" horiz-adv-x="233" />
<glyph unicode="&#x200a;" horiz-adv-x="64" />
<glyph unicode="&#x2010;" horiz-adv-x="431" d="M24 257l38 156h372l-39 -156h-371z" />
<glyph unicode="&#x2011;" horiz-adv-x="431" d="M24 257l38 156h372l-39 -156h-371z" />
<glyph unicode="&#x2012;" horiz-adv-x="431" d="M24 257l38 156h372l-39 -156h-371z" />
<glyph unicode="&#x2013;" horiz-adv-x="706" d="M24 257l38 156h647l-39 -156h-646z" />
<glyph unicode="&#x2014;" horiz-adv-x="979" d="M24 257l38 156h920l-38 -156h-920z" />
<glyph unicode="&#x2018;" horiz-adv-x="265" d="M118 577q7 28 29 60l128 192l71 -35l-72 -109l-28 -16q68 -8 48 -92q-11 -42 -40.5 -68t-70.5 -26q-42 0 -59 26t-6 68z" />
<glyph unicode="&#x2019;" horiz-adv-x="265" d="M103 509l71 109l28 16q-33 3 -45.5 27t-2.5 65q11 42 40.5 68t71.5 26q41 0 58 -26t7 -68q-6 -26 -30 -60l-128 -192z" />
<glyph unicode="&#x201a;" horiz-adv-x="265" d="M-56 -135l71 109l28 16q-33 3 -45.5 27t-2.5 65q11 42 40.5 68t71.5 26q41 0 58 -26t7 -68q-6 -26 -30 -60l-128 -192z" />
<glyph unicode="&#x201c;" horiz-adv-x="481" d="M118 577q7 28 29 60l128 192l71 -35l-72 -109l-28 -16q68 -8 48 -92q-11 -42 -40.5 -68t-70.5 -26q-42 0 -59 26t-6 68zM333 577q6 26 30 60l128 192l70 -35l-71 -109l-28 -16q69 -8 47 -92q-10 -42 -39.5 -68t-71.5 -26t-58.5 26t-6.5 68z" />
<glyph unicode="&#x201d;" horiz-adv-x="481" d="M103 509l71 109l28 16q-33 3 -45.5 27t-2.5 65q11 42 40.5 68t71.5 26q41 0 58 -26t7 -68q-6 -26 -30 -60l-128 -192zM318 509l72 109l28 16q-33 3 -45.5 27t-2.5 65q10 42 40 68t71 26q42 0 59 -26t6 -68q-6 -23 -29 -60l-128 -192z" />
<glyph unicode="&#x201e;" horiz-adv-x="481" d="M-56 -135l71 109l28 16q-33 3 -45.5 27t-2.5 65q11 42 40.5 68t71.5 26q41 0 58 -26t7 -68q-6 -26 -30 -60l-128 -192zM159 -135l72 109l28 16q-33 3 -45.5 27t-2.5 65q10 42 40 68t71 26q42 0 59 -26t6 -68q-6 -23 -29 -60l-128 -192z" />
<glyph unicode="&#x2022;" horiz-adv-x="460" d="M31 405q19 77 86.5 132t144.5 55t117.5 -55t21.5 -132q-19 -78 -86.5 -133t-144.5 -55t-118 55t-21 133z" />
<glyph unicode="&#x2026;" horiz-adv-x="879" d="M12 91q12 45 43 73t75 28q45 0 62.5 -28t5.5 -73q-11 -46 -42 -74t-76 -28q-44 0 -61.5 28t-6.5 74zM295 91q11 45 42.5 73t75.5 28t61.5 -28t5.5 -73q-11 -46 -42 -74t-76 -28q-44 0 -61.5 28t-5.5 74zM577 91q11 45 42.5 73t75.5 28t61.5 -28t6.5 -73q-12 -46 -43 -74 t-75 -28q-45 0 -62.5 28t-5.5 74z" />
<glyph unicode="&#x202f;" horiz-adv-x="233" />
<glyph unicode="&#x2039;" horiz-adv-x="463" d="M48 255l300 240l85 -115l-122 -100l-42 -25l30 -25l72 -100l-141 -115z" />
<glyph unicode="&#x203a;" horiz-adv-x="463" d="M17 130l122 100q22 13 42 25l-30 25l-72 100l141 115l182 -240l-300 -240z" />
<glyph unicode="&#x205f;" horiz-adv-x="291" />
<glyph unicode="&#x20ac;" horiz-adv-x="760" d="M33 255l32 129h62l-11 7l3 10l4 18l15 7h-62l31 129h89l-6 18q69 114 169.5 180.5t215.5 66.5q93 0 148.5 -34.5t86.5 -102.5l-148 -120q-29 88 -122 88q-81 0 -151 -78l-31 -18h234l-31 -129h-266l10 -7q-4 -16 -5 -18l-2 -10l-15 -7h267l-32 -129h-240l24 -19 q30 -77 110 -77q93 0 169 93l90 -121q-72 -73 -143 -107t-158 -34q-118 0 -187 67t-79 179l16 19h-87z" />
<glyph unicode="&#x2122;" horiz-adv-x="869" d="M124 723l21 86h384l-21 -86h-150l2 -16l-75 -303h-96l75 304l11 15h-151zM461 404l100 405h86l64 -211l6 -54l34 54l171 211h82l-100 -405h-97l51 204l-21 -30l-155 -179h-1l-69 179l-4 30l-51 -204h-96z" />
<glyph unicode="&#x25fc;" horiz-adv-x="630" d="M0 0v630h630v-630h-630z" />
<glyph unicode="&#xfb01;" horiz-adv-x="839" d="M-191 -184l38 152q62 -35 115 -35q39 0 59 15.5t30 56.5l112 456v1q3 3 8 10t6 9h-103l37 148h103l-4 18q25 100 104.5 149.5t182.5 49.5q88 0 131 -16l-37 -148q-42 18 -93 18q-84 0 -97 -53l-13 -18l463 1l-156 -630h-190l119 481h-275l5 -18l-1 -2v-1l-113 -460 q-29 -113 -98.5 -164t-198.5 -51q-72 0 -134 31zM690 764q11 44 46 73t78 29t64 -29t10 -73t-46 -73t-78 -29q-44 0 -64.5 29t-9.5 73z" />
<glyph unicode="&#xfb02;" horiz-adv-x="829" d="M-191 -184l38 152q62 -35 115 -35q39 0 59 15.5t30 56.5l112 456v1q3 3 8 10t6 9h-103l37 148h103l-4 18q25 98 102 145t183 47h397l-207 -839h-190l173 700h-170q-47 0 -68.5 -13t-28.5 -40l-13 -18h180l-36 -148h-183l5 -18l-1 -2v-1l-113 -460q-29 -113 -98.5 -164 t-198.5 -51q-72 0 -134 31z" />
</font>
</defs>
</svg>
