<?xml version="1.0" standalone="no"?>
<!DOCTYPE svg PUBLIC "-//W3C//DTD SVG 1.1//EN" "http://www.w3.org/Graphics/SVG/1.1/DTD/svg11.dtd" >
<svg xmlns="http://www.w3.org/2000/svg">
<metadata></metadata>
<defs>
<font id="source_sans_prolight_italic" horiz-adv-x="462" >
<font-face units-per-em="1000" ascent="750" descent="-250" />
<missing-glyph horiz-adv-x="189" />
<glyph horiz-adv-x="1000" />
<glyph horiz-adv-x="1000" />
<glyph unicode="&#xd;" horiz-adv-x="1000" />
<glyph unicode=" "  horiz-adv-x="189" />
<glyph unicode="&#x09;" horiz-adv-x="189" />
<glyph unicode="&#xa0;" horiz-adv-x="189" />
<glyph unicode="!" horiz-adv-x="253" d="M42 23q0 20 15 36.5t34 16.5q32 0 32 -37q0 -20 -14 -35.5t-33 -15.5q-15 0 -24.5 10t-9.5 25zM95 179q6 32 40 214t52 279h41q-11 -57 -25 -124.5t-25 -121.5t-26 -125t-25 -122h-32z" />
<glyph unicode="&#x22;" horiz-adv-x="347" d="M132 464q29 167 37 208h41l-14 -72l-33 -136h-31zM266 464q29 167 37 208h41l-14 -72l-34 -136h-30z" />
<glyph unicode="#" horiz-adv-x="464" d="M27 214l9 36h82l52 170h-83l10 36h85l61 194h35l-61 -194h140l61 194h35l-61 -194h81l-10 -36h-82l-52 -170h83l-9 -36h-86l-67 -214h-34l67 214h-141l-67 -214h-34l67 214h-81zM153 250h142l52 170h-142z" />
<glyph unicode="$" d="M23 79l28 28q59 -83 146 -83q63 0 105 39.5t42 101.5q0 45 -22.5 81t-55 60.5t-64.5 48.5t-54.5 57.5t-22.5 75.5q0 70 47.5 116t120.5 48l21 98h36l-21 -101q73 -17 116 -82l-30 -25q-49 74 -119 74q-56 0 -93 -34t-37 -87q0 -32 16 -59.5t40.5 -45.5t53 -40.5t53 -44 t40.5 -56t16 -76.5q0 -77 -51.5 -130.5t-132.5 -54.5l-19 -98h-36l20 100q-43 8 -80.5 33t-62.5 56z" />
<glyph unicode="%" horiz-adv-x="768" d="M66 406q0 61 19 120t60.5 102.5t96.5 43.5t84.5 -41t29.5 -106q0 -61 -19 -120.5t-60.5 -103t-96.5 -43.5t-84.5 41.5t-29.5 106.5zM103 411q0 -55 19 -88.5t60 -33.5q43 0 75.5 38.5t47 90t14.5 101.5q0 55 -19 88.5t-60 33.5q-43 0 -75.5 -38.5t-47 -89.5t-14.5 -102z M131 -12l490 684h36l-490 -684h-36zM438 136q0 61 19 120t60.5 102.5t96.5 43.5t84 -41t29 -106q0 -61 -19 -120.5t-60.5 -103t-96.5 -43.5t-84 41.5t-29 106.5zM474 141q0 -55 19.5 -88.5t60.5 -33.5q62 0 99.5 74.5t37.5 155.5q0 55 -19.5 88.5t-60.5 33.5 q-62 0 -99.5 -74t-37.5 -156z" />
<glyph unicode="&#x26;" horiz-adv-x="553" d="M16 136q0 73 45 124t128 105q-17 60 -17 115q0 83 47 137t111 54q45 0 68.5 -26.5t23.5 -66.5q0 -37 -14.5 -69t-47 -61.5t-56 -47t-70.5 -47.5q42 -131 130 -230q75 76 143 221h40q-70 -150 -159 -246q61 -60 103 -76l-19 -34q-52 21 -114 81q-91 -81 -190 -81 q-67 0 -109.5 40.5t-42.5 107.5zM58 143q0 -54 33.5 -87t85.5 -33q78 0 158 72q-90 101 -135 235q-69 -46 -105.5 -88.5t-36.5 -98.5zM211 484q0 -43 13 -97q39 24 61.5 40t48.5 40t38 50t12 55q0 27 -14 46t-43 19q-50 0 -83 -43.5t-33 -109.5z" />
<glyph unicode="'" horiz-adv-x="213" d="M132 464q29 167 37 208h41l-14 -72l-33 -136h-31z" />
<glyph unicode="(" horiz-adv-x="268" d="M70 134q0 166 58 307t174 289l26 -17q-220 -270 -220 -586q0 -176 47 -292l-29 -10q-56 146 -56 309z" />
<glyph unicode=")" horiz-adv-x="270" d="M-51 -157q219 269 219 586q0 175 -46 292l28 9q56 -140 56 -308q0 -167 -58 -308t-174 -289z" />
<glyph unicode="*" horiz-adv-x="382" d="M139 619l11 25l93 -32l22 100l28 -2l-8 -101l96 14l5 -27l-98 -28l38 -92l-25 -15l-48 85l-76 -73l-20 18l65 83z" />
<glyph unicode="+" d="M48 314v34h179v200h36v-200h179v-34h-179v-206h-37v206h-178z" />
<glyph unicode="," horiz-adv-x="213" d="M-33 -121q88 39 100 114h-5q-16 0 -26 9.5t-10 25.5q0 18 13 33t33 15q18 0 28.5 -13.5t10.5 -35.5q0 -59 -38 -108t-97 -70z" />
<glyph unicode="-" horiz-adv-x="287" d="M36 232l7 37h210l-8 -37h-209z" />
<glyph unicode="." horiz-adv-x="213" d="M22 23q0 20 15 36.5t34 16.5q31 0 31 -37q0 -20 -13.5 -35.5t-33.5 -15.5q-15 0 -24 10t-9 25z" />
<glyph unicode="/" horiz-adv-x="347" d="M-73 -160l470 870h36l-471 -870h-35z" />
<glyph unicode="0" d="M45 198q0 108 32.5 211.5t92 172.5t129.5 69q69 0 106.5 -62t37.5 -150q0 -107 -32.5 -210.5t-91.5 -172t-129 -68.5q-71 0 -108 60.5t-37 149.5zM85 202q0 -77 26.5 -127.5t79.5 -50.5q58 0 108 66.5t77 160.5t27 184q0 78 -27 129.5t-80 51.5q-57 0 -107 -67.5 t-77 -162t-27 -184.5z" />
<glyph unicode="1" d="M30 0l8 36h143l108 535h-113l6 28q79 11 128 40h34l-122 -603h137l-6 -36h-323z" />
<glyph unicode="2" d="M-9 0l4 27q221 190 274 243q103 102 121 178q5 23 5 47q0 53 -30.5 86.5t-89.5 33.5q-75 0 -146 -71l-24 29q91 78 174 78q74 0 115.5 -41.5t41.5 -107.5q0 -99 -72 -183.5t-284 -267.5q-11 -9 -16 -14h310l-6 -37h-377z" />
<glyph unicode="3" d="M-5 95l29 23q65 -94 157 -94q78 0 129 45.5t51 113.5q0 60 -49.5 96.5t-152.5 36.5l8 35q118 0 175 46.5t57 104.5q0 52 -28.5 82.5t-86.5 30.5q-34 0 -73.5 -15.5t-65.5 -41.5l-24 30q78 63 168 63q74 0 112.5 -38t38.5 -103q0 -62 -41 -110.5t-114 -66.5v-4 q54 -16 85.5 -53t31.5 -88q0 -89 -63 -144.5t-162 -55.5q-61 0 -107.5 31.5t-74.5 75.5z" />
<glyph unicode="4" d="M8 189l4 26l365 424h38l-83 -414h89l-7 -36h-89l-38 -189h-40l38 189h-277zM67 225h225l47 233q1 6 28 119h-4q-20 -27 -79 -98z" />
<glyph unicode="5" d="M-3 93l30 23q26 -42 60 -67t92 -25q75 0 130 56.5t55 144.5q0 69 -35.5 105t-96.5 36q-51 0 -115 -35l-22 17l80 291h275l-8 -36h-238l-62 -226q46 24 97 24q75 0 120.5 -43.5t45.5 -124.5q0 -109 -68 -177t-163 -68q-114 0 -177 105z" />
<glyph unicode="6" d="M52 198q0 195 82 324t204 129q84 0 128 -77l-31 -23q-37 64 -100 64q-85 0 -150.5 -88.5t-85.5 -226.5q33 39 76.5 59.5t82.5 20.5q72 0 113 -45.5t41 -120.5q0 -94 -57 -160t-139 -66q-75 0 -119.5 59t-44.5 151zM92 202q0 -79 34.5 -129t92.5 -50q61 0 107 55t46 126 q0 65 -31 102.5t-89 37.5q-33 0 -76.5 -21t-81.5 -69q-2 -34 -2 -52z" />
<glyph unicode="7" d="M112 603l8 36h378l-5 -28q-141 -134 -208 -273.5t-108 -337.5h-45q45 199 113 337.5t195 265.5h-328z" />
<glyph unicode="8" d="M34 154q0 129 156 201v4q-58 55 -58 124q0 77 51 122.5t124 45.5q62 0 105.5 -38.5t43.5 -107.5q0 -111 -128 -186v-4q90 -63 90 -142q0 -84 -59 -134.5t-144 -50.5q-74 0 -127.5 43.5t-53.5 122.5zM74 158q0 -64 42 -100t100 -36q65 0 113.5 39.5t48.5 105.5 q0 30 -11 53.5t-36.5 44.5t-45.5 33t-58 33q-3 2 -4.5 2.5t-4 2t-4.5 2.5q-68 -37 -104 -78.5t-36 -101.5zM171 486q0 -54 31.5 -87.5t96.5 -64.5q118 69 118 167q0 54 -33 85t-80 31q-54 0 -93.5 -36t-39.5 -95z" />
<glyph unicode="9" d="M22 65l32 23q35 -64 99 -64q84 0 150.5 89t86.5 226q-34 -39 -77.5 -59.5t-81.5 -20.5q-72 0 -113.5 45.5t-41.5 120.5q0 94 57 160t139 66q76 0 120.5 -58.5t44.5 -151.5q0 -195 -82 -324t-205 -129q-82 0 -128 77zM116 435q0 -65 31.5 -102.5t89.5 -37.5 q33 0 76.5 21.5t81.5 70.5q2 32 2 50q0 79 -34.5 129t-92.5 50q-61 0 -107.5 -55t-46.5 -126z" />
<glyph unicode=":" horiz-adv-x="213" d="M22 23q0 20 15 36.5t34 16.5q31 0 31 -37q0 -20 -13.5 -35.5t-33.5 -15.5q-15 0 -24 10t-9 25zM91 414q0 19 14.5 35.5t33.5 16.5q32 0 32 -37q0 -19 -14 -35t-33 -16q-15 0 -24 10t-9 26z" />
<glyph unicode=";" horiz-adv-x="213" d="M-33 -121q88 39 100 114h-5q-16 0 -26 9.5t-10 25.5q0 18 13 33t33 15q18 0 28.5 -13.5t10.5 -35.5q0 -59 -38 -108t-97 -70zM91 414q0 19 14.5 35.5t33.5 16.5q32 0 32 -37q0 -19 -14 -35t-33 -16q-15 0 -24 10t-9 26z" />
<glyph unicode="&#x3c;" d="M46 312v36l396 162v-38q-272 -110 -346 -140v-4q76 -30 346 -139v-39z" />
<glyph unicode="=" d="M48 212v34h394v-34h-394zM48 414v34h394v-34h-394z" />
<glyph unicode="&#x3e;" d="M48 150v39q272 110 346 139v4q-76 31 -346 140v38l396 -162v-36z" />
<glyph unicode="?" horiz-adv-x="388" d="M97 23q0 20 14.5 36.5t34.5 16.5q31 0 31 -37q0 -20 -13.5 -35.5t-33.5 -15.5q-15 0 -24 10t-9 25zM110 614q27 30 67 49t83 19q63 0 99 -35t36 -96q0 -45 -21 -85.5t-51.5 -71.5t-61.5 -61t-54 -69.5t-26 -83.5l-37 3q2 48 24.5 90t53 72.5t60.5 60t51 64.5t21 73 q0 49 -26 76t-72 27q-67 0 -121 -59z" />
<glyph unicode="@" horiz-adv-x="783" d="M46 164q0 98 36 185.5t94.5 148.5t134.5 97t156 36q131 0 205 -79.5t74 -209.5q0 -132 -57.5 -211t-135.5 -79q-35 0 -57 20.5t-29 55.5h-2q-59 -68 -115 -68q-45 0 -77.5 34.5t-32.5 95.5q0 88 57 160t134 72q48 0 75 -51h2l13 43h31l-48 -213q-13 -52 0.5 -84t55.5 -32 q58 0 104 69t46 181q0 120 -63.5 191.5t-182.5 71.5q-95 0 -183 -55.5t-143.5 -155t-55.5 -216.5q0 -131 71.5 -207t185.5 -76q81 0 145 37l15 -28q-74 -42 -163 -42q-128 0 -209 83.5t-81 225.5zM277 197q0 -51 22 -77t56 -26q54 0 104 69l39 173q-28 53 -68 53 q-64 0 -108.5 -61.5t-44.5 -130.5z" />
<glyph unicode="A" horiz-adv-x="488" d="M-48 0l363 659h47l81 -659h-43l-26 229h-251l-123 -229h-48zM142 264h228l-15 127q-3 30 -11 106t-12 119h-4q-32 -65 -118 -225z" />
<glyph unicode="B" horiz-adv-x="571" d="M39 0l131 659h162q92 0 142.5 -37.5t50.5 -105.5q0 -67 -46.5 -111.5t-102.5 -53.5v-4q54 -12 89 -47.5t35 -92.5q0 -103 -71.5 -155t-194.5 -52h-195zM88 36h131q239 0 239 168q0 57 -47 92.5t-129 35.5h-134zM154 367h112q105 0 160.5 39.5t55.5 105.5q0 111 -167 111 h-109z" />
<glyph unicode="C" horiz-adv-x="540" d="M58 248q0 74 23.5 148.5t65 136t106 100t139.5 38.5q96 0 154 -93l-32 -23q-46 79 -125 79q-86 0 -154 -61t-101 -146.5t-33 -172.5q0 -103 46 -166t139 -63q79 0 156 64l23 -28q-88 -73 -184 -73q-107 0 -165 72t-58 188z" />
<glyph unicode="D" horiz-adv-x="577" d="M39 0l131 659h109q133 0 202.5 -68.5t69.5 -187.5q0 -177 -92.5 -290t-259.5 -113h-160zM88 36h112q142 0 225 104.5t83 259.5q0 103 -59 163t-172 60h-72z" />
<glyph unicode="E" horiz-adv-x="489" d="M39 0l131 659h348l-8 -37h-305l-51 -254h258l-8 -37h-256l-60 -294h314l-8 -37h-355z" />
<glyph unicode="F" horiz-adv-x="455" d="M39 0l131 659h348l-8 -37h-305l-53 -267h258l-8 -37h-256l-64 -318h-43z" />
<glyph unicode="G" horiz-adv-x="575" d="M58 248q0 103 39 198t119.5 160t185.5 65q97 0 155 -93l-32 -23q-46 79 -126 79q-68 0 -126 -35.5t-94.5 -92t-57 -122.5t-20.5 -130q0 -102 47.5 -165.5t147.5 -63.5q81 0 135 50l42 211h-152l8 36h193l-55 -268q-76 -66 -176 -66q-114 0 -173.5 70.5t-59.5 189.5z" />
<glyph unicode="H" horiz-adv-x="605" d="M39 0l131 659h43l-59 -291h340l59 291h43l-132 -659h-43l67 331h-340l-66 -331h-43z" />
<glyph unicode="I" horiz-adv-x="227" d="M39 0l131 659h43l-131 -659h-43z" />
<glyph unicode="J" horiz-adv-x="436" d="M1 90l33 20q27 -85 117 -85q55 0 91 41t50 111l96 482h43l-97 -487q-15 -85 -63 -134.5t-121 -49.5q-111 0 -149 102z" />
<glyph unicode="K" horiz-adv-x="532" d="M39 0l131 659h43l-71 -358h2l378 358h51l-250 -243l151 -416h-45l-139 388l-160 -150l-48 -238h-43z" />
<glyph unicode="L" horiz-adv-x="440" d="M39 0l131 659h43l-123 -622h293l-8 -37h-336z" />
<glyph unicode="M" horiz-adv-x="684" d="M39 0l131 659h62q82 -492 89 -532h4q41 82 88 169t109.5 198t91.5 165h61l-132 -659h-42l88 436q27 126 40 177h-4q-17 -31 -295 -539h-37l-69 396l-23 143h-4q-4 -22 -14 -84t-16 -93l-87 -436h-41z" />
<glyph unicode="N" horiz-adv-x="605" d="M39 0l131 659h46l175 -468l46 -134h4q27 169 32 194l81 408h43l-132 -659h-44l-173 466l-48 139h-4q-17 -112 -34 -192l-81 -413h-42z" />
<glyph unicode="O" horiz-adv-x="618" d="M61 262q0 95 36.5 187t110 157t166.5 65q106 0 161 -74.5t55 -199.5q0 -70 -22 -141.5t-60.5 -131.5t-99.5 -98t-131 -38q-105 0 -160.5 74.5t-55.5 199.5zM105 267q0 -112 43 -177t132 -65q80 0 143 60.5t93.5 143t30.5 163.5q0 112 -43.5 177t-132.5 65 q-80 0 -143 -60.5t-93 -143t-30 -163.5z" />
<glyph unicode="P" horiz-adv-x="531" d="M39 0l131 659h173q196 0 196 -153q0 -108 -74.5 -164t-204.5 -56h-122l-56 -286h-43zM146 322h110q240 0 240 180q0 63 -42.5 92t-128.5 29h-120z" />
<glyph unicode="Q" horiz-adv-x="618" d="M61 262q0 95 36.5 187t110 157t166.5 65q106 0 161 -74.5t55 -199.5q0 -94 -35.5 -185t-107.5 -156.5t-163 -67.5q15 -51 58.5 -77t105.5 -26q24 0 48 6l5 -37q-27 -7 -56 -7q-77 0 -131.5 36t-72.5 108q-88 12 -134 85t-46 186zM105 267q0 -112 43 -177t132 -65 q80 0 143 60.5t93.5 143t30.5 163.5q0 112 -43.5 177t-132.5 65q-80 0 -143 -60.5t-93 -143t-30 -163.5z" />
<glyph unicode="R" horiz-adv-x="531" d="M39 0l131 659h166q194 0 194 -145q0 -87 -58 -143t-152 -67l125 -304h-48l-122 301h-133l-60 -301h-43zM150 337h115q106 0 164 46t58 127q0 60 -41.5 86.5t-128.5 26.5h-112z" />
<glyph unicode="S" horiz-adv-x="493" d="M16 100l33 23q66 -98 183 -98q72 0 120 42t48 110q0 75 -85 123l-85 51q-103 61 -103 150q0 69 54 119.5t136 50.5q56 0 102.5 -25t75.5 -64l-30 -26q-60 78 -154 78q-61 0 -100.5 -39t-39.5 -89q0 -42 23 -69.5t64 -51.5l83 -48q103 -61 103 -155q0 -86 -61.5 -140 t-155.5 -54q-139 0 -211 112z" />
<glyph unicode="T" horiz-adv-x="497" d="M98 620l8 39h447l-8 -39h-202l-124 -620h-43l124 620h-202z" />
<glyph unicode="U" horiz-adv-x="600" d="M81 184q0 37 9 85l78 390h43l-77 -386q-10 -39 -10 -81q0 -80 38.5 -123.5t114.5 -43.5q67 0 118 52.5t73 164.5l83 417h43l-85 -423q-26 -130 -88.5 -189t-147.5 -59q-91 0 -141.5 51t-50.5 145z" />
<glyph unicode="V" horiz-adv-x="463" d="M83 659h42l34 -390q17 -171 20 -221h4q102 203 111 221l203 390h44l-346 -659h-50z" />
<glyph unicode="W" horiz-adv-x="734" d="M106 0l1 659h43l-2 -389q-2 -40 -2.5 -113.5t-1.5 -102.5h4q82 180 98 216l181 389h44l13 -389q4 -108 6 -216h4q44 108 90 216l161 389h44l-281 -659h-54l-14 453v155h-4q-2 -5 -67 -155l-209 -453h-54z" />
<glyph unicode="X" horiz-adv-x="459" d="M-36 0l258 343l-113 316h45l69 -200q6 -17 15.5 -46t13.5 -41h3q35 46 69 92l143 195h46l-243 -322l123 -337h-45l-73 209q-7 19 -19.5 55.5t-15.5 44.5h-2q-27 -33 -78 -106l-150 -203h-46z" />
<glyph unicode="Y" horiz-adv-x="433" d="M85 659h44l55 -208q7 -26 19 -73.5t18 -68.5h4q16 23 47.5 71t47.5 71l144 208h46l-273 -391l-54 -268h-43l54 268z" />
<glyph unicode="Z" horiz-adv-x="505" d="M1 0l6 26l465 596h-325l8 37h376l-5 -26l-463 -596h359l-8 -37h-413z" />
<glyph unicode="[" horiz-adv-x="270" d="M15 -152l172 860h151l-3 -28h-121l-160 -804h119l-7 -28h-151z" />
<glyph unicode="\" horiz-adv-x="347" d="M89 710h32l140 -870h-32z" />
<glyph unicode="]" horiz-adv-x="270" d="M-60 -152l6 28h119l163 804h-121l5 28h153l-172 -860h-153z" />
<glyph unicode="^" horiz-adv-x="464" d="M90 288l144 382h34l145 -382h-36q-89 238 -124 335h-2q-34 -98 -123 -335h-38z" />
<glyph unicode="_" horiz-adv-x="484" d="M-29 -115l8 34h457l-7 -34h-458z" />
<glyph unicode="`" horiz-adv-x="508" d="M273 706h45l60 -136h-33z" />
<glyph unicode="a" horiz-adv-x="527" d="M44 161q0 136 79.5 233.5t181.5 97.5q81 0 124 -78h3l19 66h34l-96 -480h-35l11 76h-4q-85 -88 -177 -88q-64 0 -102 45t-38 128zM86 169q0 -71 28 -108t79 -37q90 0 180 104l50 241q-49 87 -119 87q-85 0 -151.5 -89t-66.5 -198z" />
<glyph unicode="b" horiz-adv-x="526" d="M40 0l144 719h41l-42 -209l-21 -97h2q98 79 177 79q65 0 102.5 -45t37.5 -128q0 -136 -79.5 -233.5t-180.5 -97.5q-81 0 -124 78h-3l-19 -66h-35zM103 111q49 -87 118 -87q85 0 152 89t67 199q0 71 -28.5 107.5t-79.5 36.5q-39 0 -87.5 -24.5t-89.5 -64.5z" />
<glyph unicode="c" horiz-adv-x="430" d="M42 178q0 135 79 224.5t180 89.5q70 0 121 -58l-26 -28q-41 50 -98 50q-82 0 -148 -81.5t-66 -190.5q0 -160 133 -160q61 0 124 50l21 -30q-75 -56 -150 -56q-78 0 -124 50t-46 140z" />
<glyph unicode="d" horiz-adv-x="528" d="M44 161q0 90 37.5 167t97.5 120.5t126 43.5q81 0 123 -77h4q8 42 61 304h41l-145 -719h-35l11 76h-4q-85 -88 -177 -88q-64 0 -102 45t-38 128zM86 169q0 -71 28 -108t79 -37q90 0 180 104l50 241q-49 87 -119 87q-56 0 -106.5 -41.5t-81 -108t-30.5 -137.5z" />
<glyph unicode="e" horiz-adv-x="471" d="M42 186q0 131 76.5 218.5t173.5 87.5q74 0 109 -45.5t35 -124.5q0 -43 -13 -84h-335q-18 -107 24 -161t119 -54q56 0 120 47l19 -30q-72 -52 -145 -52q-85 0 -134 51.5t-49 146.5zM94 271h298q6 28 6 57q0 55 -26.5 92t-83.5 37q-64 0 -119.5 -52.5t-74.5 -133.5z" />
<glyph unicode="f" horiz-adv-x="256" d="M47 0l88 444h-62l6 32l64 4l22 110q15 70 49.5 105.5t82.5 35.5q38 0 75 -22l-18 -31q-28 17 -57 17q-34 0 -57.5 -29.5t-33.5 -75.5l-22 -110h106l-8 -36h-106l-88 -444h-41z" />
<glyph unicode="g" horiz-adv-x="521" d="M4 -165l23 30q65 -60 142 -60q132 0 168 169l24 108h-4q-88 -84 -174 -84q-63 0 -101 45t-38 126q0 131 78.5 227t176.5 96q82 0 123 -78h4l19 66h34l-105 -521q-18 -90 -71.5 -140t-135.5 -50q-84 0 -163 66zM86 176q0 -69 27.5 -105t77.5 -36q40 0 88 26t88 71l50 237 q-52 87 -119 87q-80 0 -146 -88t-66 -192z" />
<glyph unicode="h" horiz-adv-x="504" d="M40 0l144 719h41l-54 -266l-13 -50h4q53 44 93.5 66.5t80.5 22.5q114 0 114 -117q0 -28 -8 -65l-62 -310h-41l62 304q8 46 8 62q0 89 -86 89q-68 0 -170 -101l-71 -354h-42z" />
<glyph unicode="i" horiz-adv-x="220" d="M40 0l97 480h41l-96 -480h-42zM150 629q0 19 12.5 32t29.5 13q14 0 23.5 -9.5t9.5 -24.5q0 -18 -12.5 -31t-29.5 -13q-14 0 -23.5 9.5t-9.5 23.5z" />
<glyph unicode="j" horiz-adv-x="220" d="M-120 -213l16 33q20 -13 47 -13q55 0 78 100l116 573h41l-114 -568q-30 -141 -121 -141q-33 0 -63 16zM150 629q0 19 12.5 32t29.5 13q15 0 24.5 -9.5t9.5 -24.5q0 -18 -13 -31t-29 -13q-14 0 -24 9.5t-10 23.5z" />
<glyph unicode="k" horiz-adv-x="447" d="M40 0l144 719h41l-105 -529h3l284 290h50l-188 -195l116 -285h-43l-104 258l-131 -133l-25 -125h-42z" />
<glyph unicode="l" horiz-adv-x="232" d="M48 31q0 11 5 31l131 657h41l-131 -660q-2 -10 -2 -20q0 -15 14 -15q7 0 17 4l3 -33q-15 -7 -34 -7q-20 0 -32 11t-12 32z" />
<glyph unicode="m" horiz-adv-x="782" d="M40 0l97 480h34l-11 -76h4q95 88 160 88q105 0 111 -100q103 100 175 100q113 0 113 -117q0 -28 -8 -65l-62 -310h-42l62 304q8 39 8 62q0 89 -83 89q-26 0 -69.5 -25.5t-90.5 -75.5l-71 -354h-41l61 304q8 39 8 62q0 89 -83 89q-26 0 -69.5 -26t-89.5 -75l-71 -354h-42z " />
<glyph unicode="n" horiz-adv-x="510" d="M40 0l97 480h34l-11 -76h4q51 43 91 65.5t81 22.5q114 0 114 -117q0 -28 -8 -65l-62 -310h-41l62 304q8 46 8 62q0 89 -86 89q-68 0 -170 -101l-71 -354h-42z" />
<glyph unicode="o" horiz-adv-x="504" d="M44 178q0 132 76.5 223t176.5 91q75 0 119 -50t44 -140q0 -131 -76.5 -222.5t-177.5 -91.5q-74 0 -118 50.5t-44 139.5zM85 184q0 -78 32.5 -119t92.5 -41q79 0 143.5 82t64.5 191q0 78 -32 118.5t-92 40.5q-79 0 -144 -82t-65 -190z" />
<glyph unicode="p" horiz-adv-x="524" d="M-3 -217l140 697h34l-10 -68h4q97 80 176 80q65 0 102.5 -45t37.5 -128q0 -136 -79.5 -233.5t-180.5 -97.5q-78 0 -127 77h-2q-15 -78 -54 -282h-41zM103 107q48 -83 118 -83q85 0 152 89t67 199q0 71 -28.5 107.5t-79.5 36.5q-39 0 -87.5 -25t-89.5 -65z" />
<glyph unicode="q" horiz-adv-x="527" d="M44 161q0 136 79.5 233.5t181.5 97.5q81 0 124 -78h3l19 66h34l-139 -697h-42q40 201 61 295h-2q-86 -90 -179 -90q-64 0 -102 45t-38 128zM86 169q0 -71 28 -108t79 -37q41 0 89.5 27.5t90.5 76.5l50 241q-49 87 -119 87q-85 0 -151.5 -89t-66.5 -198z" />
<glyph unicode="r" horiz-adv-x="317" d="M40 0l97 480h34l-15 -91h4q72 103 151 103q22 0 43 -8l-16 -39q-18 8 -38 8q-39 0 -81 -36t-74 -99l-63 -318h-42z" />
<glyph unicode="s" horiz-adv-x="389" d="M-1 77l29 22q49 -76 136 -76q50 0 86.5 30t36.5 71q0 30 -19 52t-73 51q-65 35 -91 64t-26 66q0 59 44.5 97t106.5 38q78 0 133 -58l-27 -26q-47 49 -107 49q-46 0 -78 -28t-32 -66q0 -22 14 -40.5t29.5 -28.5t45.5 -27q72 -39 96 -69.5t24 -66.5q0 -65 -47.5 -104 t-120.5 -39q-48 0 -92.5 26.5t-67.5 62.5z" />
<glyph unicode="t" horiz-adv-x="299" d="M67 444l6 32l78 4l33 137h35l-28 -137h130l-8 -36h-130l-65 -315q-4 -24 -4 -38q0 -34 15 -50.5t53 -16.5q24 0 58 17l11 -31q-42 -22 -77 -22q-53 0 -77 26.5t-24 68.5q0 14 4 48l65 313h-75z" />
<glyph unicode="u" horiz-adv-x="518" d="M66 105q0 29 8 65l62 310h41l-61 -304q-8 -39 -8 -62q0 -89 85 -89q68 0 170 101l71 354h41l-96 -480h-34l10 78h-4q-51 -44 -90.5 -67t-79.5 -23q-115 0 -115 117z" />
<glyph unicode="v" horiz-adv-x="419" d="M58 480h41l46 -303q4 -26 10.5 -74.5t9.5 -67.5h4q13 25 75 142l163 303h43l-263 -480h-53z" />
<glyph unicode="w" horiz-adv-x="683" d="M69 480h41l24 -314q4 -44 10 -130h4q11 24 30.5 68t27.5 62l144 314h50l22 -314q1 -23 3.5 -66t3.5 -64h4q46 103 59 130l146 314h40l-226 -480h-56l-20 299q-1 19 -3 68.5t-4 74.5h-4q-8 -19 -29 -68.5t-33 -74.5l-137 -299h-56z" />
<glyph unicode="x" horiz-adv-x="393" d="M-47 0l224 254l-95 226h43l50 -121q19 -53 31 -80h4q46 52 69 80l105 121h46l-203 -235l102 -245h-43l-51 130q-24 60 -39 91h-4q-35 -44 -77 -89l-114 -132h-48z" />
<glyph unicode="y" horiz-adv-x="419" d="M-78 -207l16 33q17 -9 34 -9q81 0 147 134l21 42l-81 487h41l47 -301q15 -97 20 -143h4q64 123 75 143l162 301h42l-296 -539q-38 -73 -81.5 -116.5t-103.5 -43.5q-23 0 -47 12z" />
<glyph unicode="z" horiz-adv-x="391" d="M-10 0l4 25l358 419h-245l8 36h298l-4 -25l-359 -419h282l-8 -36h-334z" />
<glyph unicode="{" horiz-adv-x="268" d="M35 263l7 30q82 1 98 82q5 26 16 95.5t19 107.5q15 75 42.5 102.5t84.5 27.5h35l-5 -28h-30q-43 0 -63.5 -25t-31.5 -81q-5 -28 -15 -92.5t-16 -97.5q-10 -47 -27 -72t-48 -34v-4q36 -15 36 -56q0 -37 -27.5 -145.5t-27.5 -140.5q0 -29 13.5 -42.5t48.5 -13.5h28l-7 -28 h-34q-43 0 -63 17.5t-20 58.5q0 36 28.5 144.5t28.5 139.5q0 54 -70 55z" />
<glyph unicode="|" horiz-adv-x="217" d="M99 -250v1000h33v-1000h-33z" />
<glyph unicode="}" horiz-adv-x="270" d="M-61 -152l6 28h30q43 0 63.5 24.5t30.5 79.5q6 31 16 96t16 94q9 47 26.5 73t48.5 35v4q-37 14 -37 56q0 36 27.5 144t27.5 140q0 31 -13 44.5t-48 13.5h-29l7 28h34q44 0 64 -18t20 -58q0 -36 -28.5 -145.5t-28.5 -140.5q0 -52 70 -53l-8 -30q-82 -1 -98 -82 q-5 -27 -15.5 -97.5t-18.5 -107.5q-15 -74 -43 -101t-84 -27h-36z" />
<glyph unicode="~" d="M49 312q41 81 105 81q30 0 62 -22.5t60.5 -45t50.5 -22.5q43 0 77 63l27 -16q-41 -81 -105 -81q-31 0 -62.5 22.5t-60 45t-50.5 22.5q-43 0 -77 -63z" />
<glyph unicode="&#xa1;" horiz-adv-x="253" d="M23 -192q19 98 57 278.5t45 215.5h32q-6 -33 -40.5 -215t-52.5 -279h-41zM129 441q0 20 13.5 35.5t33.5 15.5q15 0 24 -10t9 -25q0 -19 -14.5 -36t-34.5 -17q-31 0 -31 37z" />
<glyph unicode="&#xa2;" d="M81 288q0 116 70.5 191.5t159.5 81.5l21 106h34l-21 -107q65 -8 110 -64l-28 -27q-41 50 -89 55l-77 -389q63 3 126 50l17 -32q-28 -18 -42.5 -25.5t-45 -17.5t-62.5 -11l-22 -110h-34l22 112q-65 8 -102 56.5t-37 130.5zM123 296q0 -68 26.5 -109.5t77.5 -49.5l77 387 q-69 -7 -125 -71.5t-56 -156.5z" />
<glyph unicode="&#xa3;" d="M7 0l5 24q73 38 110 103t37 143q0 15 -1 23h-95l8 30l85 4q-7 89 -7 113q0 98 51.5 155t135.5 57q82 0 130 -82l-32 -23q-39 69 -101 69q-63 0 -103.5 -48t-40.5 -125q0 -9 8 -116h161l-7 -34h-152v-16q0 -145 -103 -236v-4h273l-6 -37h-356z" />
<glyph unicode="&#xa4;" d="M13 153l74 65q-13 34 -13 76q0 92 61 158l-48 64l27 22l47 -63q55 44 118 44q62 0 100 -44l74 65l21 -26l-76 -67q15 -31 15 -78q0 -87 -56 -151l55 -73l-26 -21l-54 70q-56 -50 -124 -50q-67 0 -102 46l-72 -63zM113 301q0 -59 25.5 -90.5t72.5 -31.5q62 0 112 54 t50 130q0 122 -98 122q-61 0 -111.5 -54t-50.5 -130z" />
<glyph unicode="&#xa5;" d="M34 167l7 30h160l14 75h-161l7 29h146l-96 338h42l52 -196q29 -117 34 -139h4q67 103 92 139l125 196h43l-226 -338h146l-7 -29h-160l-14 -75h160l-7 -30h-160l-33 -167h-41l33 167h-160z" />
<glyph unicode="&#xa6;" horiz-adv-x="217" d="M99 218h33v-468h-33v468zM99 278v472h33v-472h-33z" />
<glyph unicode="&#xa7;" horiz-adv-x="460" d="M23 22l26 29q57 -64 130 -64q43 0 74 28t31 69q0 34 -23 59.5t-56 43t-66 36.5t-56 49t-23 71q0 102 112 149q-17 27 -17 57q0 60 38.5 96t97.5 36q75 0 140 -69l-28 -27q-51 61 -114 61q-37 0 -65.5 -25t-28.5 -65q0 -31 23 -56t55.5 -43.5t64.5 -39t55 -52.5t23 -73 q0 -56 -26.5 -88.5t-81.5 -54.5q16 -26 16 -58q0 -58 -42.5 -98.5t-105.5 -40.5q-85 0 -153 70zM99 350q0 -33 21.5 -59.5t48.5 -41t63.5 -35.5t55.5 -40q46 18 67.5 42.5t21.5 68.5q0 43 -30 73t-81.5 60t-72.5 49q-94 -36 -94 -117z" />
<glyph unicode="&#xa8;" horiz-adv-x="508" d="M231 628q0 18 11 30.5t26 12.5q30 0 30 -32q0 -17 -11 -29t-26 -12q-13 0 -21.5 8t-8.5 22zM383 628q0 18 11 30.5t26 12.5q30 0 30 -32q0 -17 -11 -29t-26 -12q-13 0 -21.5 8t-8.5 22z" />
<glyph unicode="&#xa9;" horiz-adv-x="661" d="M39 265q0 96 43 184t126 145.5t187 57.5q115 0 187 -76.5t72 -199.5q0 -96 -43 -184t-126 -146t-187 -58q-115 0 -187 77t-72 200zM69 269q0 -114 63 -183t168 -69q93 0 169 54.5t115.5 135t39.5 165.5q0 114 -63 183t-168 69q-93 0 -169 -54.5t-115.5 -135t-39.5 -165.5 zM183 273q0 105 63 171.5t138 66.5q58 0 95 -51l-25 -22q-32 40 -74 40q-58 0 -109.5 -58t-51.5 -140q0 -60 29 -91.5t79 -31.5q46 0 113 46l17 -27q-36 -26 -65.5 -39t-68.5 -13q-64 0 -102 38.5t-38 110.5z" />
<glyph unicode="&#xaa;" horiz-adv-x="348" d="M63 378q0 88 53.5 152.5t122.5 64.5q54 0 78 -50h4l13 42h27l-63 -318h-28l9 51h-4q-56 -59 -118 -59q-43 0 -68.5 30.5t-25.5 86.5zM98 383q0 -45 18 -68t47 -23q59 0 120 70l28 147q-29 55 -73 55q-53 0 -96.5 -56.5t-43.5 -124.5z" />
<glyph unicode="&#xab;" horiz-adv-x="383" d="M40 236l7 40l158 154l19 -20l-146 -159l88 -164l-24 -15zM182 236l8 40l157 154l19 -20l-146 -159l89 -164l-24 -15z" />
<glyph unicode="&#xac;" d="M48 314v34h394v-240h-37v206h-357z" />
<glyph unicode="&#xad;" horiz-adv-x="287" d="M36 232l8 37h209l-8 -37h-209z" />
<glyph unicode="&#xae;" horiz-adv-x="384" d="M68 493q0 84 56.5 149t137.5 65q65 0 110.5 -46.5t45.5 -117.5q0 -85 -57 -149t-137 -64q-65 0 -110.5 45.5t-45.5 117.5zM97 497q0 -62 34.5 -101.5t94.5 -39.5q67 0 115 54.5t48 128.5q0 62 -35.5 101.5t-93.5 39.5q-67 0 -115 -54.5t-48 -128.5zM164 418l42 205h57 q29 0 45 -15t16 -43q0 -48 -50 -66l29 -81h-31l-25 74h-38l-16 -74h-29zM215 518h25q25 0 39.5 11.5t14.5 32.5q0 35 -37 35h-28z" />
<glyph unicode="&#xaf;" horiz-adv-x="508" d="M225 606l6 34h218l-6 -34h-218z" />
<glyph unicode="&#xb0;" horiz-adv-x="292" d="M105 551q0 54 34.5 93.5t83.5 39.5q42 0 69 -28t27 -73q0 -54 -34.5 -93.5t-83.5 -39.5q-42 0 -69 28t-27 73zM136 555q0 -33 18.5 -54.5t48.5 -21.5q37 0 60.5 30.5t23.5 69.5q0 33 -18 54.5t-48 21.5q-37 0 -61 -30.5t-24 -69.5z" />
<glyph unicode="&#xb1;" d="M48 0v35h394v-35h-394zM48 317v35h179v196h36v-196h179v-35h-179v-202h-37v202h-178z" />
<glyph unicode="&#xb2;" horiz-adv-x="346" d="M94 440l4 28q142 103 193.5 157.5t51.5 112.5q0 72 -74 72q-44 0 -92 -53l-22 23q58 62 118 62q49 0 78 -27t29 -73q0 -63 -51 -121.5t-174 -149.5h190l-5 -31h-246z" />
<glyph unicode="&#xb3;" horiz-adv-x="346" d="M90 508l28 18q34 -67 100 -67q41 0 69 22.5t28 62.5q0 35 -31 59t-88 24l7 29q68 0 102 26.5t34 62.5q0 30 -19 48t-53 18q-47 0 -93 -37l-17 27q51 41 114 41q47 0 75.5 -25t28.5 -69q0 -37 -26.5 -67t-70.5 -43q35 -11 54.5 -36t19.5 -53q0 -56 -39 -88.5t-96 -32.5 q-43 0 -76.5 23t-50.5 57z" />
<glyph unicode="&#xb4;" horiz-adv-x="508" d="M271 570l116 136h50l-129 -136h-37z" />
<glyph unicode="&#xb5;" horiz-adv-x="514" d="M-3 -198l136 678h41l-61 -304q-8 -39 -8 -62q0 -89 85 -89q66 0 170 101l71 354h41l-96 -480h-35l11 78h-4q-100 -89 -164 -89q-79 0 -99 65q-12 -68 -47 -252h-41z" />
<glyph unicode="&#xb6;" horiz-adv-x="492" d="M75 414q0 116 77.5 180.5t184.5 64.5h51l-84 -417h-6q-95 0 -159 45.5t-64 126.5zM291 -80l148 739h41l-148 -739h-41z" />
<glyph unicode="&#xb7;" horiz-adv-x="213" d="M81 321q0 19 15 36t34 17q31 0 31 -38q0 -19 -13.5 -34.5t-33.5 -15.5q-15 0 -24 10t-9 25z" />
<glyph unicode="&#xb8;" horiz-adv-x="508" d="M105 -185q97 19 97 66q0 18 -13 27.5t-44 17.5l54 76h35l-43 -60q46 -15 46 -55q0 -41 -36.5 -64.5t-91.5 -31.5z" />
<glyph unicode="&#xb9;" horiz-adv-x="344" d="M184 768l5 25q68 11 106 37h28l-77 -390h-36l65 328h-91z" />
<glyph unicode="&#xba;" horiz-adv-x="342" d="M63 387q0 91 53 149.5t120 58.5q52 0 81.5 -33.5t29.5 -92.5q0 -91 -53 -149.5t-121 -58.5q-51 0 -80.5 33t-29.5 93zM97 390q0 -47 20.5 -73t58.5 -26q54 0 95.5 52.5t41.5 121.5q0 47 -20.5 73t-58.5 26q-54 0 -95.5 -52.5t-41.5 -121.5z" />
<glyph unicode="&#xbb;" horiz-adv-x="383" d="M21 92l146 159l-89 164l25 15l102 -164l-8 -40l-157 -154zM163 92l146 159l-88 164l24 15l102 -164l-7 -40l-158 -154z" />
<glyph unicode="&#xbc;" horiz-adv-x="730" d="M120 -12l490 684h36l-490 -684h-36zM127 598l5 25q68 11 106 37h28l-77 -390h-36l65 328h-91zM399 116l5 22l224 252h31l-49 -245h57l-7 -29h-56l-23 -116h-34l23 116h-171zM447 145h129l19 92l24 101h-4q-58 -67 -168 -193z" />
<glyph unicode="&#xbd;" horiz-adv-x="749" d="M92 -12l490 684h36l-490 -684h-36zM123 598l5 25q68 11 106 37h28l-77 -390h-36l65 328h-91zM407 0l5 28q142 103 193.5 157.5t51.5 112.5q0 72 -75 72q-43 0 -91 -53l-23 23q60 62 118 62q49 0 78.5 -27t29.5 -73q0 -63 -51 -121.5t-174 -149.5h190l-6 -31h-246z" />
<glyph unicode="&#xbe;" horiz-adv-x="749" d="M50 338l28 18q34 -67 100 -67q41 0 69 22.5t28 62.5q0 35 -31 59t-88 24l7 29q68 0 102 26.5t34 62.5q0 30 -19 48t-53 18q-47 0 -93 -37l-17 27q51 41 114 41q47 0 75.5 -25t28.5 -69q0 -37 -26.5 -67t-70.5 -43q35 -11 54.5 -36t19.5 -53q0 -56 -39 -88.5t-96 -32.5 q-43 0 -76.5 23t-50.5 57zM160 -12l490 684h36l-490 -684h-36zM420 116l5 22l224 252h30l-48 -245h57l-7 -29h-56l-23 -116h-34l23 116h-171zM468 145h129l18 92l25 101h-4q-58 -67 -168 -193z" />
<glyph unicode="&#xbf;" horiz-adv-x="388" d="M-5 -69q0 45 21 85.5t51.5 71.5t61.5 61t54 69.5t25 83.5l37 -3q-2 -48 -24.5 -90t-53 -72.5t-60.5 -60t-51 -64.5t-21 -73q0 -49 26 -76t72 -27q66 0 122 59l24 -27q-27 -30 -67 -49t-83 -19q-62 0 -98 35t-36 96zM212 443q0 20 14 35.5t33 15.5q15 0 24 -10t9 -25 q0 -20 -14.5 -36.5t-34.5 -16.5q-31 0 -31 37z" />
<glyph unicode="&#xc0;" horiz-adv-x="488" d="M-48 0l363 659h47l81 -659h-43l-26 229h-251l-123 -229h-48zM142 264h228l-15 127q-3 30 -11 106t-12 119h-4q-32 -65 -118 -225zM249 813h47l75 -104h-35z" />
<glyph unicode="&#xc1;" horiz-adv-x="488" d="M-48 0l363 659h47l81 -659h-43l-26 229h-251l-123 -229h-48zM142 264h228l-15 127q-3 30 -11 106t-12 119h-4q-32 -65 -118 -225zM300 709l109 104h51l-122 -104h-38z" />
<glyph unicode="&#xc2;" horiz-adv-x="488" d="M-48 0l363 659h47l81 -659h-43l-26 229h-251l-123 -229h-48zM142 264h228l-15 127q-3 30 -11 106t-12 119h-4q-32 -65 -118 -225zM225 708l112 104h37l72 -104h-35l-56 74h-4l-87 -74h-39z" />
<glyph unicode="&#xc3;" horiz-adv-x="488" d="M-48 0l363 659h47l81 -659h-43l-26 229h-251l-123 -229h-48zM142 264h228l-15 127q-3 30 -11 106t-12 119h-4q-32 -65 -118 -225zM211 716q7 35 31 62.5t55 27.5q24 0 52 -30t47 -30q33 0 53 58h28q-7 -35 -31.5 -62.5t-54.5 -27.5q-24 0 -52 30t-47 30q-34 0 -53 -58 h-28z" />
<glyph unicode="&#xc4;" horiz-adv-x="488" d="M-48 0l363 659h47l81 -659h-43l-26 229h-251l-123 -229h-48zM142 264h228l-15 127q-3 30 -11 106t-12 119h-4q-32 -65 -118 -225zM237 753q0 18 11 30t26 12q29 0 29 -31q0 -17 -11 -29t-26 -12q-29 0 -29 30zM388 753q0 18 11 30t26 12q30 0 30 -31q0 -16 -11.5 -28.5 t-25.5 -12.5q-30 0 -30 30z" />
<glyph unicode="&#xc5;" horiz-adv-x="488" d="M-48 0l363 659h47l81 -659h-43l-26 229h-251l-123 -229h-48zM142 264h228l-15 127q-3 30 -11 106t-12 119h-4q-32 -65 -118 -225zM266 773q0 38 27 65.5t63 27.5q32 0 53 -19.5t21 -56.5q0 -38 -27 -65t-63 -27q-33 0 -53.5 19t-20.5 56zM296 776q0 -52 46 -52 q24 0 41 18.5t17 45.5q0 24 -12 38t-34 14q-24 0 -41 -18.5t-17 -45.5z" />
<glyph unicode="&#xc6;" horiz-adv-x="782" d="M-32 0l481 659h361l-8 -37h-291l-51 -254h245l-8 -37h-243l-60 -294h301l-8 -37h-342l43 217h-214l-156 -217h-50zM200 253h195l74 369h-4q-28 -39 -83.5 -116.5t-83.5 -116.5z" />
<glyph unicode="&#xc7;" horiz-adv-x="540" d="M58 248q0 74 23.5 148.5t65 136t106 100t139.5 38.5q96 0 154 -93l-32 -23q-46 79 -125 79q-86 0 -154 -61t-101 -146.5t-33 -172.5q0 -103 46 -166t139 -63q79 0 156 64l23 -28q-86 -72 -180 -73l-32 -46q46 -15 46 -55q0 -41 -36.5 -65t-92.5 -31l-4 24q97 19 97 66 q0 17 -13 27t-43 18l45 63q-94 10 -144 80.5t-50 178.5z" />
<glyph unicode="&#xc8;" horiz-adv-x="489" d="M39 0l131 659h348l-8 -37h-305l-51 -254h258l-8 -37h-256l-60 -294h314l-8 -37h-355zM265 813h47l76 -104h-36z" />
<glyph unicode="&#xc9;" horiz-adv-x="489" d="M39 0l131 659h348l-8 -37h-305l-51 -254h258l-8 -37h-256l-60 -294h314l-8 -37h-355zM316 709l109 104h52l-123 -104h-38z" />
<glyph unicode="&#xca;" horiz-adv-x="489" d="M39 0l131 659h348l-8 -37h-305l-51 -254h258l-8 -37h-256l-60 -294h314l-8 -37h-355zM241 708l112 104h37l72 -104h-35l-56 74h-4l-87 -74h-39z" />
<glyph unicode="&#xcb;" horiz-adv-x="489" d="M39 0l131 659h348l-8 -37h-305l-51 -254h258l-8 -37h-256l-60 -294h314l-8 -37h-355zM253 753q0 18 11 30t26 12q30 0 30 -31q0 -16 -11.5 -28.5t-25.5 -12.5q-30 0 -30 30zM404 753q0 18 11 30t26 12q30 0 30 -31q0 -16 -11.5 -28.5t-25.5 -12.5q-30 0 -30 30z" />
<glyph unicode="&#xcc;" horiz-adv-x="227" d="M39 0l131 659h43l-131 -659h-43zM108 813h47l75 -104h-35z" />
<glyph unicode="&#xcd;" horiz-adv-x="227" d="M39 0l131 659h43l-131 -659h-43zM159 709l109 104h51l-122 -104h-38z" />
<glyph unicode="&#xce;" horiz-adv-x="227" d="M39 0l131 659h43l-131 -659h-43zM84 708l112 104h37l72 -104h-35l-56 74h-4l-87 -74h-39z" />
<glyph unicode="&#xcf;" horiz-adv-x="227" d="M39 0l131 659h43l-131 -659h-43zM96 753q0 18 11 30t26 12q29 0 29 -31q0 -17 -11 -29t-26 -12q-29 0 -29 30zM247 753q0 18 11 30t26 12q30 0 30 -31q0 -16 -11.5 -28.5t-25.5 -12.5q-30 0 -30 30z" />
<glyph unicode="&#xd0;" horiz-adv-x="595" d="M52 334l7 29l71 2l58 294h109q133 0 202.5 -68.5t69.5 -187.5q0 -177 -92.5 -290t-259.5 -113h-160l66 334h-71zM106 36h112q142 0 225 104.5t83 259.5q0 103 -59 163t-172 60h-72l-51 -258h164l-7 -31h-164z" />
<glyph unicode="&#xd1;" horiz-adv-x="605" d="M39 0l131 659h46l175 -468l46 -134h4q27 169 32 194l81 408h43l-132 -659h-44l-173 466l-48 139h-4q-17 -112 -34 -192l-81 -413h-42zM263 716q7 35 31 62.5t55 27.5q24 0 52 -30t47 -30q33 0 53 58h28q-7 -35 -31.5 -62.5t-54.5 -27.5q-24 0 -52 30t-47 30 q-34 0 -53 -58h-28z" />
<glyph unicode="&#xd2;" horiz-adv-x="618" d="M61 262q0 95 36.5 187t110 157t166.5 65q106 0 161 -74.5t55 -199.5q0 -70 -22 -141.5t-60.5 -131.5t-99.5 -98t-131 -38q-105 0 -160.5 74.5t-55.5 199.5zM105 267q0 -112 43 -177t132 -65q80 0 143 60.5t93.5 143t30.5 163.5q0 112 -43.5 177t-132.5 65 q-80 0 -143 -60.5t-93 -143t-30 -163.5zM310 813h47l76 -104h-36z" />
<glyph unicode="&#xd3;" horiz-adv-x="618" d="M61 262q0 95 36.5 187t110 157t166.5 65q106 0 161 -74.5t55 -199.5q0 -70 -22 -141.5t-60.5 -131.5t-99.5 -98t-131 -38q-105 0 -160.5 74.5t-55.5 199.5zM105 267q0 -112 43 -177t132 -65q80 0 143 60.5t93.5 143t30.5 163.5q0 112 -43.5 177t-132.5 65 q-80 0 -143 -60.5t-93 -143t-30 -163.5zM361 709l109 104h52l-123 -104h-38z" />
<glyph unicode="&#xd4;" horiz-adv-x="618" d="M61 262q0 95 36.5 187t110 157t166.5 65q106 0 161 -74.5t55 -199.5q0 -70 -22 -141.5t-60.5 -131.5t-99.5 -98t-131 -38q-105 0 -160.5 74.5t-55.5 199.5zM105 267q0 -112 43 -177t132 -65q80 0 143 60.5t93.5 143t30.5 163.5q0 112 -43.5 177t-132.5 65 q-80 0 -143 -60.5t-93 -143t-30 -163.5zM286 708l112 104h37l72 -104h-35l-56 74h-4l-87 -74h-39z" />
<glyph unicode="&#xd5;" horiz-adv-x="618" d="M61 262q0 95 36.5 187t110 157t166.5 65q106 0 161 -74.5t55 -199.5q0 -70 -22 -141.5t-60.5 -131.5t-99.5 -98t-131 -38q-105 0 -160.5 74.5t-55.5 199.5zM105 267q0 -112 43 -177t132 -65q80 0 143 60.5t93.5 143t30.5 163.5q0 112 -43.5 177t-132.5 65 q-80 0 -143 -60.5t-93 -143t-30 -163.5zM272 716q7 35 31 62.5t55 27.5q24 0 52 -30t47 -30q34 0 53 58h28q-7 -35 -31 -62.5t-55 -27.5q-24 0 -52 30t-47 30q-33 0 -53 -58h-28z" />
<glyph unicode="&#xd6;" horiz-adv-x="618" d="M61 262q0 95 36.5 187t110 157t166.5 65q106 0 161 -74.5t55 -199.5q0 -70 -22 -141.5t-60.5 -131.5t-99.5 -98t-131 -38q-105 0 -160.5 74.5t-55.5 199.5zM105 267q0 -112 43 -177t132 -65q80 0 143 60.5t93.5 143t30.5 163.5q0 112 -43.5 177t-132.5 65 q-80 0 -143 -60.5t-93 -143t-30 -163.5zM298 753q0 18 11 30t26 12q30 0 30 -31q0 -16 -11.5 -28.5t-25.5 -12.5q-30 0 -30 30zM449 753q0 18 11 30t26 12q30 0 30 -31q0 -16 -11.5 -28.5t-25.5 -12.5q-30 0 -30 30z" />
<glyph unicode="&#xd7;" d="M66 169l155 163l-155 161l24 24l155 -161l155 161l24 -24l-155 -161l155 -163l-24 -24l-155 163l-155 -163z" />
<glyph unicode="&#xd8;" horiz-adv-x="618" d="M1 -2l93 101q-33 66 -33 163q0 95 36.5 187t110 157t166.5 65q112 0 168 -85l87 94l21 -22l-92 -100q32 -64 32 -161q0 -70 -22 -141.5t-60.5 -131.5t-99.5 -98t-131 -38q-108 0 -165 81l-85 -93zM105 267q0 -77 21 -134l387 421q-45 80 -142 80q-80 0 -143 -60.5 t-93 -143t-30 -163.5zM141 101q44 -76 139 -76q80 0 143 60.5t93.5 143t30.5 163.5q0 78 -20 131z" />
<glyph unicode="&#xd9;" horiz-adv-x="600" d="M81 184q0 37 9 85l78 390h43l-77 -386q-10 -39 -10 -81q0 -80 38.5 -123.5t114.5 -43.5q67 0 118 52.5t73 164.5l83 417h43l-85 -423q-26 -130 -88.5 -189t-147.5 -59q-91 0 -141.5 51t-50.5 145zM299 813h47l75 -104h-35z" />
<glyph unicode="&#xda;" horiz-adv-x="600" d="M81 184q0 37 9 85l78 390h43l-77 -386q-10 -39 -10 -81q0 -80 38.5 -123.5t114.5 -43.5q67 0 118 52.5t73 164.5l83 417h43l-85 -423q-26 -130 -88.5 -189t-147.5 -59q-91 0 -141.5 51t-50.5 145zM350 709l109 104h51l-122 -104h-38z" />
<glyph unicode="&#xdb;" horiz-adv-x="600" d="M81 184q0 37 9 85l78 390h43l-77 -386q-10 -39 -10 -81q0 -80 38.5 -123.5t114.5 -43.5q67 0 118 52.5t73 164.5l83 417h43l-85 -423q-26 -130 -88.5 -189t-147.5 -59q-91 0 -141.5 51t-50.5 145zM274 708l113 104h37l72 -104h-35l-56 74h-4l-87 -74h-40z" />
<glyph unicode="&#xdc;" horiz-adv-x="600" d="M81 184q0 37 9 85l78 390h43l-77 -386q-10 -39 -10 -81q0 -80 38.5 -123.5t114.5 -43.5q67 0 118 52.5t73 164.5l83 417h43l-85 -423q-26 -130 -88.5 -189t-147.5 -59q-91 0 -141.5 51t-50.5 145zM286 753q0 18 11 30t26 12q30 0 30 -31q0 -16 -11.5 -28.5t-25.5 -12.5 q-30 0 -30 30zM438 753q0 18 11 30t26 12q30 0 30 -31q0 -16 -11.5 -28.5t-25.5 -12.5q-30 0 -30 30z" />
<glyph unicode="&#xdd;" horiz-adv-x="433" d="M85 659h44l55 -208q7 -26 19 -73.5t18 -68.5h4q16 23 47.5 71t47.5 71l144 208h46l-273 -391l-54 -268h-43l54 268zM258 709l109 104h51l-122 -104h-38z" />
<glyph unicode="&#xde;" horiz-adv-x="543" d="M39 0l131 660h43l-23 -122h130q194 0 194 -152q0 -109 -74.5 -165t-204.5 -56h-121l-33 -165h-42zM122 201h109q118 0 179 45.5t61 134.5q0 64 -42.5 92.5t-127.5 28.5h-119z" />
<glyph unicode="&#xdf;" horiz-adv-x="524" d="M40 0l108 536q18 84 68.5 139.5t122.5 55.5q54 0 86.5 -31.5t32.5 -89.5q0 -37 -15 -67.5t-36 -51.5t-42 -40t-36 -41.5t-15 -47.5t16.5 -46t39.5 -37.5t46 -35t39.5 -46.5t16.5 -63q0 -61 -43.5 -103.5t-110.5 -42.5q-75 0 -136 53l23 28q57 -46 114 -46q46 0 79.5 30 t33.5 74q0 31 -16.5 56.5t-40 43t-46.5 35t-39.5 41t-16.5 51.5q0 31 15 58t36 47t42 40.5t36 48t15 59.5q0 40 -20 64t-61 24q-54 0 -94 -48.5t-56 -122.5l-104 -524h-42z" />
<glyph unicode="&#xe0;" horiz-adv-x="527" d="M44 161q0 136 79.5 233.5t181.5 97.5q81 0 124 -78h3l19 66h34l-96 -480h-35l11 76h-4q-85 -88 -177 -88q-64 0 -102 45t-38 128zM86 169q0 -71 28 -108t79 -37q90 0 180 104l50 241q-49 87 -119 87q-85 0 -151.5 -89t-66.5 -198zM269 706h46l59 -136h-32z" />
<glyph unicode="&#xe1;" horiz-adv-x="527" d="M44 161q0 136 79.5 233.5t181.5 97.5q81 0 124 -78h3l19 66h34l-96 -480h-35l11 76h-4q-85 -88 -177 -88q-64 0 -102 45t-38 128zM86 169q0 -71 28 -108t79 -37q90 0 180 104l50 241q-49 87 -119 87q-85 0 -151.5 -89t-66.5 -198zM267 570l116 136h50l-128 -136h-38z" />
<glyph unicode="&#xe2;" horiz-adv-x="527" d="M44 161q0 136 79.5 233.5t181.5 97.5q81 0 124 -78h3l19 66h34l-96 -480h-35l11 76h-4q-85 -88 -177 -88q-64 0 -102 45t-38 128zM86 169q0 -71 28 -108t79 -37q90 0 180 104l50 241q-49 87 -119 87q-85 0 -151.5 -89t-66.5 -198zM214 570l122 136h29l67 -136h-32l-53 98 h-4l-93 -98h-36z" />
<glyph unicode="&#xe3;" horiz-adv-x="527" d="M44 161q0 136 79.5 233.5t181.5 97.5q81 0 124 -78h3l19 66h34l-96 -480h-35l11 76h-4q-85 -88 -177 -88q-64 0 -102 45t-38 128zM86 169q0 -71 28 -108t79 -37q90 0 180 104l50 241q-49 87 -119 87q-85 0 -151.5 -89t-66.5 -198zM204 581q27 88 80 88q30 0 57 -29 t48 -29q26 0 47 56h28q-11 -37 -31.5 -62.5t-47.5 -25.5q-19 0 -34.5 9t-23.5 20.5t-20.5 20.5t-27.5 9q-24 0 -47 -57h-28z" />
<glyph unicode="&#xe4;" horiz-adv-x="527" d="M44 161q0 136 79.5 233.5t181.5 97.5q81 0 124 -78h3l19 66h34l-96 -480h-35l11 76h-4q-85 -88 -177 -88q-64 0 -102 45t-38 128zM86 169q0 -71 28 -108t79 -37q90 0 180 104l50 241q-49 87 -119 87q-85 0 -151.5 -89t-66.5 -198zM228 628q0 18 11 30.5t26 12.5 q30 0 30 -32q0 -17 -11 -29t-26 -12q-30 0 -30 30zM379 628q0 18 11 30.5t26 12.5q30 0 30 -32q0 -17 -11 -29t-26 -12q-13 0 -21.5 8t-8.5 22z" />
<glyph unicode="&#xe5;" horiz-adv-x="527" d="M44 161q0 136 79.5 233.5t181.5 97.5q81 0 124 -78h3l19 66h34l-96 -480h-35l11 76h-4q-85 -88 -177 -88q-64 0 -102 45t-38 128zM86 169q0 -71 28 -108t79 -37q90 0 180 104l50 241q-49 87 -119 87q-85 0 -151.5 -89t-66.5 -198zM252 613q0 39 26.5 67.5t63.5 28.5 q33 0 53 -20t20 -57q0 -39 -26.5 -67.5t-62.5 -28.5q-33 0 -53.5 20t-20.5 57zM282 615q0 -24 12.5 -39t33.5 -15q23 0 40.5 20.5t17.5 48.5q0 24 -12.5 39t-33.5 15q-23 0 -40.5 -20.5t-17.5 -48.5z" />
<glyph unicode="&#xe6;" horiz-adv-x="765" d="M38 103q0 180 327 193q7 34 7 57q0 103 -94 103q-64 0 -142 -46l-15 32q85 50 162 50q115 0 124 -112q35 52 82 82t96 30q74 0 109 -45.5t35 -124.5q0 -43 -13 -84h-321q-18 -93 19 -154t109 -61q56 0 122 47l18 -30q-71 -52 -145 -52q-52 0 -93.5 29.5t-57.5 75.5 q-107 -105 -209 -105q-51 0 -85.5 30.5t-34.5 84.5zM79 112q0 -42 25.5 -65t65.5 -23q87 0 186 102q-10 64 3 137q-131 -3 -205.5 -41t-74.5 -110zM401 271h284q6 29 6 57q0 55 -26.5 92t-83.5 37q-56 0 -108.5 -53t-71.5 -133z" />
<glyph unicode="&#xe7;" horiz-adv-x="430" d="M42 178q0 135 79 224.5t180 89.5q70 0 121 -58l-26 -28q-41 50 -98 50q-82 0 -148 -81.5t-66 -190.5q0 -160 133 -160q61 0 124 50l21 -30q-74 -55 -148 -56l-33 -46q46 -15 46 -55q0 -41 -36.5 -64.5t-91.5 -31.5l-4 24q97 19 97 66q0 18 -13 27.5t-44 17.5l46 64 q-65 10 -102 59t-37 129z" />
<glyph unicode="&#xe8;" horiz-adv-x="471" d="M42 186q0 131 76.5 218.5t173.5 87.5q74 0 109 -45.5t35 -124.5q0 -43 -13 -84h-335q-18 -107 24 -161t119 -54q56 0 120 47l19 -30q-72 -52 -145 -52q-85 0 -134 51.5t-49 146.5zM94 271h298q6 28 6 57q0 55 -26.5 92t-83.5 37q-64 0 -119.5 -52.5t-74.5 -133.5z M251 706h45l59 -136h-32z" />
<glyph unicode="&#xe9;" horiz-adv-x="471" d="M42 186q0 131 76.5 218.5t173.5 87.5q74 0 109 -45.5t35 -124.5q0 -43 -13 -84h-335q-18 -107 24 -161t119 -54q56 0 120 47l19 -30q-72 -52 -145 -52q-85 0 -134 51.5t-49 146.5zM94 271h298q6 28 6 57q0 55 -26.5 92t-83.5 37q-64 0 -119.5 -52.5t-74.5 -133.5z M249 570l116 136h50l-129 -136h-37z" />
<glyph unicode="&#xea;" horiz-adv-x="471" d="M42 186q0 131 76.5 218.5t173.5 87.5q74 0 109 -45.5t35 -124.5q0 -43 -13 -84h-335q-18 -107 24 -161t119 -54q56 0 120 47l19 -30q-72 -52 -145 -52q-85 0 -134 51.5t-49 146.5zM94 271h298q6 28 6 57q0 55 -26.5 92t-83.5 37q-64 0 -119.5 -52.5t-74.5 -133.5z M195 570l122 136h29l67 -136h-31l-54 98h-4l-93 -98h-36z" />
<glyph unicode="&#xeb;" horiz-adv-x="471" d="M42 186q0 131 76.5 218.5t173.5 87.5q74 0 109 -45.5t35 -124.5q0 -43 -13 -84h-335q-18 -107 24 -161t119 -54q56 0 120 47l19 -30q-72 -52 -145 -52q-85 0 -134 51.5t-49 146.5zM94 271h298q6 28 6 57q0 55 -26.5 92t-83.5 37q-64 0 -119.5 -52.5t-74.5 -133.5z M209 628q0 18 11 30.5t26 12.5q30 0 30 -32q0 -17 -11 -29t-26 -12q-13 0 -21.5 8t-8.5 22zM360 628q0 18 11 30.5t26 12.5q30 0 30 -32q0 -17 -11 -29t-26 -12q-14 0 -22 8t-8 22z" />
<glyph unicode="&#xec;" horiz-adv-x="220" d="M40 0l97 480h41l-96 -480h-42zM123 706h45l59 -136h-32z" />
<glyph unicode="&#xed;" horiz-adv-x="220" d="M40 0l97 480h41l-96 -480h-42zM121 570l116 136h50l-129 -136h-37z" />
<glyph unicode="&#xee;" horiz-adv-x="220" d="M40 0l97 480h41l-96 -480h-42zM67 570l122 136h29l67 -136h-31l-54 98h-4l-93 -98h-36z" />
<glyph unicode="&#xef;" horiz-adv-x="220" d="M40 0l97 480h41l-96 -480h-42zM81 628q0 18 11 30.5t26 12.5q30 0 30 -32q0 -17 -11 -29t-26 -12q-13 0 -21.5 8t-8.5 22zM232 628q0 18 11 30.5t26 12.5q30 0 30 -32q0 -17 -11 -29t-26 -12q-14 0 -22 8t-8 22z" />
<glyph unicode="&#xf0;" horiz-adv-x="517" d="M48 166q0 111 65 193.5t168 82.5q77 0 132 -79q-4 131 -69 221l-149 -63l-10 27l141 60q-41 48 -104 89l21 27q72 -45 118 -102l146 62l10 -27l-138 -58q75 -105 75 -257q0 -149 -67 -251.5t-175 -102.5q-71 0 -117.5 51.5t-46.5 126.5zM88 171q0 -61 35 -104t95 -43 q81 0 136 85t60 205q-59 92 -132 92q-84 0 -139 -71t-55 -164z" />
<glyph unicode="&#xf1;" horiz-adv-x="510" d="M40 0l97 480h34l-11 -76h4q51 43 91 65.5t81 22.5q114 0 114 -117q0 -28 -8 -65l-62 -310h-41l62 304q8 46 8 62q0 89 -86 89q-68 0 -170 -101l-71 -354h-42zM213 581q11 38 31.5 63t47.5 25q24 0 41.5 -14.5t32 -29t32.5 -14.5q26 0 47 56h28q-12 -38 -32.5 -63 t-47.5 -25q-19 0 -34 9t-23 20.5t-20.5 20.5t-27.5 9q-26 0 -47 -57h-28z" />
<glyph unicode="&#xf2;" horiz-adv-x="504" d="M44 178q0 132 76.5 223t176.5 91q75 0 119 -50t44 -140q0 -131 -76.5 -222.5t-177.5 -91.5q-74 0 -118 50.5t-44 139.5zM85 184q0 -78 32.5 -119t92.5 -41q79 0 143.5 82t64.5 191q0 78 -32 118.5t-92 40.5q-79 0 -144 -82t-65 -190zM273 706h45l60 -136h-33z" />
<glyph unicode="&#xf3;" horiz-adv-x="504" d="M44 178q0 132 76.5 223t176.5 91q75 0 119 -50t44 -140q0 -131 -76.5 -222.5t-177.5 -91.5q-74 0 -118 50.5t-44 139.5zM85 184q0 -78 32.5 -119t92.5 -41q79 0 143.5 82t64.5 191q0 78 -32 118.5t-92 40.5q-79 0 -144 -82t-65 -190zM271 570l116 136h50l-129 -136h-37z " />
<glyph unicode="&#xf4;" horiz-adv-x="504" d="M44 178q0 132 76.5 223t176.5 91q75 0 119 -50t44 -140q0 -131 -76.5 -222.5t-177.5 -91.5q-74 0 -118 50.5t-44 139.5zM85 184q0 -78 32.5 -119t92.5 -41q79 0 143.5 82t64.5 191q0 78 -32 118.5t-92 40.5q-79 0 -144 -82t-65 -190zM218 570l122 136h28l68 -136h-32 l-54 98h-4l-92 -98h-36z" />
<glyph unicode="&#xf5;" horiz-adv-x="504" d="M44 178q0 132 76.5 223t176.5 91q75 0 119 -50t44 -140q0 -131 -76.5 -222.5t-177.5 -91.5q-74 0 -118 50.5t-44 139.5zM85 184q0 -78 32.5 -119t92.5 -41q79 0 143.5 82t64.5 191q0 78 -32 118.5t-92 40.5q-79 0 -144 -82t-65 -190zM208 581q11 38 31.5 63t47.5 25 q24 0 41.5 -14.5t32 -29t32.5 -14.5q26 0 47 56h28q-12 -38 -32.5 -63t-47.5 -25q-30 0 -57 29.5t-48 29.5q-26 0 -47 -57h-28z" />
<glyph unicode="&#xf6;" horiz-adv-x="504" d="M44 178q0 132 76.5 223t176.5 91q75 0 119 -50t44 -140q0 -131 -76.5 -222.5t-177.5 -91.5q-74 0 -118 50.5t-44 139.5zM85 184q0 -78 32.5 -119t92.5 -41q79 0 143.5 82t64.5 191q0 78 -32 118.5t-92 40.5q-79 0 -144 -82t-65 -190zM231 628q0 18 11 30.5t26 12.5 q30 0 30 -32q0 -17 -11 -29t-26 -12q-13 0 -21.5 8t-8.5 22zM383 628q0 18 11 30.5t26 12.5q30 0 30 -32q0 -17 -11 -29t-26 -12q-13 0 -21.5 8t-8.5 22z" />
<glyph unicode="&#xf7;" d="M48 314v34h394v-34h-394zM209 148q0 16 10 26.5t26 10.5t26 -10.5t10 -26.5t-10.5 -27.5t-25.5 -11.5t-25.5 11.5t-10.5 27.5zM209 512q0 16 10 26.5t26 10.5t26 -10.5t10 -26.5t-10.5 -27.5t-25.5 -11.5t-25.5 11.5t-10.5 27.5z" />
<glyph unicode="&#xf8;" horiz-adv-x="504" d="M0 -2l68 70q-24 44 -24 110q0 132 76.5 223t176.5 91q83 0 125 -59l66 68l21 -21l-71 -73q22 -44 22 -105q0 -132 -76.5 -223t-177.5 -91q-78 0 -122 55l-63 -65zM84 184q0 -49 14 -85l296 305q-32 52 -100 52q-80 0 -145 -82.5t-65 -189.5zM112 71q32 -47 97 -47 q81 0 145.5 82.5t64.5 189.5q0 45 -12 80z" />
<glyph unicode="&#xf9;" horiz-adv-x="518" d="M66 105q0 29 8 65l62 310h41l-61 -304q-8 -39 -8 -62q0 -89 85 -89q68 0 170 101l71 354h41l-96 -480h-34l10 78h-4q-51 -44 -90.5 -67t-79.5 -23q-115 0 -115 117zM264 706h45l60 -136h-33z" />
<glyph unicode="&#xfa;" horiz-adv-x="518" d="M66 105q0 29 8 65l62 310h41l-61 -304q-8 -39 -8 -62q0 -89 85 -89q68 0 170 101l71 354h41l-96 -480h-34l10 78h-4q-51 -44 -90.5 -67t-79.5 -23q-115 0 -115 117zM262 570l116 136h50l-129 -136h-37z" />
<glyph unicode="&#xfb;" horiz-adv-x="518" d="M66 105q0 29 8 65l62 310h41l-61 -304q-8 -39 -8 -62q0 -89 85 -89q68 0 170 101l71 354h41l-96 -480h-34l10 78h-4q-51 -44 -90.5 -67t-79.5 -23q-115 0 -115 117zM208 570l122 136h29l68 -136h-32l-54 98h-4l-92 -98h-37z" />
<glyph unicode="&#xfc;" horiz-adv-x="518" d="M66 105q0 29 8 65l62 310h41l-61 -304q-8 -39 -8 -62q0 -89 85 -89q68 0 170 101l71 354h41l-96 -480h-34l10 78h-4q-51 -44 -90.5 -67t-79.5 -23q-115 0 -115 117zM222 628q0 18 11 30.5t26 12.5q30 0 30 -32q0 -17 -11 -29t-26 -12q-14 0 -22 8t-8 22zM373 628 q0 18 11.5 30.5t26.5 12.5q30 0 30 -32q0 -17 -11.5 -29t-26.5 -12q-13 0 -21.5 8t-8.5 22z" />
<glyph unicode="&#xfd;" horiz-adv-x="419" d="M-78 -207l16 33q17 -9 34 -9q81 0 147 134l21 42l-81 487h41l47 -301q15 -97 20 -143h4q64 123 75 143l162 301h42l-296 -539q-38 -73 -81.5 -116.5t-103.5 -43.5q-23 0 -47 12zM205 570l116 136h50l-128 -136h-38z" />
<glyph unicode="&#xfe;" horiz-adv-x="524" d="M-3 -217l187 936h41l-42 -209l-21 -97h2q98 79 177 79q65 0 102.5 -45t37.5 -128q0 -136 -79.5 -233.5t-180.5 -97.5q-76 0 -127 77h-2q-15 -78 -54 -282h-41zM103 107q48 -83 118 -83q85 0 152 89t67 199q0 71 -28.5 107.5t-79.5 36.5q-39 0 -87.5 -24.5t-89.5 -64.5z " />
<glyph unicode="&#xff;" horiz-adv-x="419" d="M-78 -207l16 33q17 -9 34 -9q81 0 147 134l21 42l-81 487h41l47 -301q15 -97 20 -143h4q64 123 75 143l162 301h42l-296 -539q-38 -73 -81.5 -116.5t-103.5 -43.5q-23 0 -47 12zM166 628q0 18 11 30.5t26 12.5q30 0 30 -32q0 -17 -11 -29t-26 -12q-30 0 -30 30zM317 628 q0 18 11 30.5t26 12.5q30 0 30 -32q0 -17 -11 -29t-26 -12q-13 0 -21.5 8t-8.5 22z" />
<glyph unicode="&#x152;" horiz-adv-x="806" d="M61 256q0 177 93 290t260 113h420l-8 -37h-282l-50 -254h235l-8 -37h-234l-60 -294h292l-8 -37h-377q-133 0 -203 68.5t-70 187.5zM105 259q0 -103 59 -163t172 -60h50l117 587h-90q-142 0 -225 -104.5t-83 -259.5z" />
<glyph unicode="&#x153;" horiz-adv-x="821" d="M44 178q0 132 76 223t176 91q64 0 104.5 -37t50.5 -106q31 66 83 104.5t107 38.5q75 0 110 -45.5t35 -124.5q0 -40 -14 -84h-318q-16 -107 21.5 -161t105.5 -54q54 0 120 47l18 -30q-71 -52 -145 -52q-65 0 -106 39.5t-51 113.5q-34 -70 -91 -111.5t-121 -41.5 q-74 0 -117.5 50.5t-43.5 139.5zM85 184q0 -78 32.5 -119t92.5 -41q78 0 142.5 82t64.5 191q0 78 -32 118.5t-92 40.5q-78 0 -143 -82t-65 -190zM461 271h281q5 32 5 57q0 55 -26.5 92t-83.5 37q-58 0 -108 -52.5t-68 -133.5z" />
<glyph unicode="&#x178;" horiz-adv-x="433" d="M85 659h44l55 -208q7 -26 19 -73.5t18 -68.5h4q16 23 47.5 71t47.5 71l144 208h46l-273 -391l-54 -268h-43l54 268zM195 753q0 18 11 30t26 12q29 0 29 -31q0 -17 -11 -29t-26 -12q-29 0 -29 30zM346 753q0 18 11 30t26 12q30 0 30 -31q0 -16 -11.5 -28.5t-25.5 -12.5 q-30 0 -30 30z" />
<glyph unicode="&#x2c6;" horiz-adv-x="508" d="M218 570l122 136h28l68 -136h-32l-54 98h-4l-92 -98h-36z" />
<glyph unicode="&#x2dc;" horiz-adv-x="508" d="M208 581q11 38 31.5 63t47.5 25q24 0 41.5 -14.5t32 -29t32.5 -14.5q26 0 47 56h28q-12 -38 -32.5 -63t-47.5 -25q-30 0 -57 29.5t-48 29.5q-26 0 -47 -57h-28z" />
<glyph unicode="&#x2000;" horiz-adv-x="433" />
<glyph unicode="&#x2001;" horiz-adv-x="866" />
<glyph unicode="&#x2002;" horiz-adv-x="433" />
<glyph unicode="&#x2003;" horiz-adv-x="866" />
<glyph unicode="&#x2004;" horiz-adv-x="288" />
<glyph unicode="&#x2005;" horiz-adv-x="216" />
<glyph unicode="&#x2006;" horiz-adv-x="144" />
<glyph unicode="&#x2007;" horiz-adv-x="144" />
<glyph unicode="&#x2008;" horiz-adv-x="108" />
<glyph unicode="&#x2009;" horiz-adv-x="173" />
<glyph unicode="&#x200a;" horiz-adv-x="48" />
<glyph unicode="&#x2010;" horiz-adv-x="287" d="M36 232l7 37h210l-8 -37h-209z" />
<glyph unicode="&#x2011;" horiz-adv-x="287" d="M36 232l7 37h210l-8 -37h-209z" />
<glyph unicode="&#x2012;" horiz-adv-x="287" d="M36 232l7 37h210l-8 -37h-209z" />
<glyph unicode="&#x2013;" d="M36 234l7 34h383l-9 -34h-381z" />
<glyph unicode="&#x2014;" horiz-adv-x="768" d="M36 234l7 34h690l-8 -34h-689z" />
<glyph unicode="&#x2018;" horiz-adv-x="213" d="M117 531q0 55 29.5 98.5t79.5 69.5l13 -25q-82 -48 -84 -118h4q37 0 37 -34q0 -17 -11 -29t-27 -12q-18 0 -29.5 13.5t-11.5 36.5z" />
<glyph unicode="&#x2019;" horiz-adv-x="213" d="M113 508q82 47 84 118h-4q-37 0 -37 34q0 17 11.5 29t27.5 12q18 0 29 -13.5t11 -36.5q0 -55 -29.5 -98.5t-79.5 -69.5z" />
<glyph unicode="&#x201a;" horiz-adv-x="213" d="M-16 -117q83 48 85 118h-5q-36 0 -36 34q0 17 11 29t27 12q18 0 29 -13.5t11 -36.5q0 -55 -29 -98.5t-79 -69.5z" />
<glyph unicode="&#x201c;" horiz-adv-x="347" d="M117 531q0 55 29.5 98.5t79.5 69.5l13 -25q-82 -48 -84 -118h4q37 0 37 -34q0 -17 -11 -29t-27 -12q-18 0 -29.5 13.5t-11.5 36.5zM251 531q0 55 29.5 98.5t79.5 69.5l13 -25q-82 -47 -84 -118h4q37 0 37 -34q0 -17 -11 -29t-27 -12q-18 0 -29.5 13.5t-11.5 36.5z" />
<glyph unicode="&#x201d;" horiz-adv-x="347" d="M113 508q82 47 84 118h-4q-37 0 -37 34q0 17 11.5 29t27.5 12q18 0 29 -13.5t11 -36.5q0 -55 -29.5 -98.5t-79.5 -69.5zM247 508q82 47 84 118h-4q-37 0 -37 34q0 17 11 29t27 12q18 0 29.5 -13.5t11.5 -36.5q0 -55 -29.5 -98.5t-79.5 -69.5z" />
<glyph unicode="&#x201e;" horiz-adv-x="218" d="M-16 -117q83 48 85 118h-5q-36 0 -36 34q0 17 11 29t27 12q18 0 29 -13.5t11 -36.5q0 -55 -29 -98.5t-79 -69.5zM118 -117q82 47 84 118h-4q-37 0 -37 34q0 17 11.5 29t27.5 12q18 0 29 -13.5t11 -36.5q0 -55 -29.5 -98.5t-79.5 -69.5z" />
<glyph unicode="&#x2022;" horiz-adv-x="274" d="M42 251q0 48 30.5 85t79.5 37q36 0 61 -27t25 -68q0 -49 -30.5 -85.5t-78.5 -36.5q-38 0 -62.5 26.5t-24.5 68.5z" />
<glyph unicode="&#x2026;" horiz-adv-x="950" d="M91 23q0 20 14.5 36.5t34.5 16.5q31 0 31 -37q0 -20 -13.5 -35.5t-33.5 -15.5q-15 0 -24 10t-9 25zM425 23q0 20 14.5 36.5t34.5 16.5q31 0 31 -37q0 -20 -13.5 -35.5t-33.5 -15.5q-15 0 -24 10t-9 25zM759 23q0 20 14.5 36.5t34.5 16.5q31 0 31 -37q0 -20 -13.5 -35.5 t-33.5 -15.5q-15 0 -24 10t-9 25z" />
<glyph unicode="&#x202f;" horiz-adv-x="173" />
<glyph unicode="&#x2039;" horiz-adv-x="240" d="M40 236l7 40l158 154l19 -20l-146 -159l88 -164l-24 -15z" />
<glyph unicode="&#x203a;" horiz-adv-x="240" d="M21 92l146 159l-89 164l25 15l102 -164l-8 -40l-157 -154z" />
<glyph unicode="&#x205f;" horiz-adv-x="216" />
<glyph unicode="&#x20ac;" d="M23 249l7 26l56 4q3 41 12 80h-54l7 25l54 3q32 118 103.5 191.5t156.5 73.5q90 0 137 -96l-33 -20q-20 39 -44 59.5t-64 20.5q-68 0 -127 -63.5t-88 -164.5h274l-7 -29h-274q-9 -39 -12 -80h233l-7 -30h-227q-2 -107 36 -166t105 -59q68 0 134 64l24 -27 q-75 -73 -163 -73q-84 0 -132 68.5t-45 192.5h-62z" />
<glyph unicode="&#x2122;" horiz-adv-x="587" d="M79 643l7 33h244l-7 -33h-103l-55 -274h-35l54 274h-105zM317 369l62 307h49l24 -127l13 -86h4q33 65 123 213h50l-62 -307h-35l32 162l26 104h-4l-127 -218h-28l-41 218h-4l-15 -104l-32 -162h-35z" />
<glyph unicode="&#xe000;" horiz-adv-x="480" d="M0 0v480h480v-480h-480z" />
<glyph unicode="&#xfb01;" horiz-adv-x="476" d="M47 0l88 444h-62l6 32l64 4l22 110q15 70 49.5 105.5t82.5 35.5q38 0 75 -22l-18 -31q-28 17 -57 17q-34 0 -57.5 -29.5t-33.5 -75.5l-22 -110h106l-8 -36h-106l-88 -444h-41zM296 0l97 480h41l-97 -480h-41zM406 629q0 19 12.5 32t29.5 13q14 0 23.5 -9.5t9.5 -24.5 q0 -18 -12.5 -31t-29.5 -13q-14 0 -23.5 9.5t-9.5 23.5z" />
<glyph unicode="&#xfb02;" horiz-adv-x="488" d="M47 0l88 444h-62l6 32l64 4l22 110q15 70 49.5 105.5t82.5 35.5q38 0 75 -22l-18 -31q-28 17 -57 17q-34 0 -57.5 -29.5t-33.5 -75.5l-22 -110h106l-8 -36h-106l-88 -444h-41zM304 31q0 11 5 31l131 657h41l-131 -660q-2 -10 -2 -20q0 -15 14 -15q7 0 16 4l3 -33 q-14 -7 -33 -7q-20 0 -32 11t-12 32z" />
</font>
</defs>
</svg>
