<?xml version="1.0" standalone="no"?>
<!DOCTYPE svg PUBLIC "-//W3C//DTD SVG 1.1//EN" "http://www.w3.org/Graphics/SVG/1.1/DTD/svg11.dtd" >
<svg xmlns="http://www.w3.org/2000/svg">
<metadata></metadata>
<defs>
<font id="kontrapunktlight_italic" horiz-adv-x="651" >
<font-face units-per-em="1000" ascent="800" descent="-200" />
<missing-glyph horiz-adv-x="223" />
<glyph horiz-adv-x="1000" />
<glyph horiz-adv-x="1000" />
<glyph unicode="&#xd;" horiz-adv-x="1000" />
<glyph unicode=" "  horiz-adv-x="223" />
<glyph unicode="&#x09;" horiz-adv-x="223" />
<glyph unicode="&#xa0;" horiz-adv-x="223" />
<glyph unicode="!" horiz-adv-x="256" d="M87 0l11 91h84l-11 -91h-84zM122 186l50 479h75l-68 -479h-57z" />
<glyph unicode="&#x22;" horiz-adv-x="311" d="M103 399l24 266h67l-42 -266h-49zM257 399l24 266h66l-42 -266h-48z" />
<glyph unicode="#" horiz-adv-x="707" d="M120 209l15 53h113l40 143h-113l14 53h113l59 207h57l-58 -207h141l59 207h58l-59 -207h112l-15 -53h-112l-41 -143h113l-14 -53h-113l-59 -209h-58l60 209h-142l-59 -209h-56l59 209h-114zM304 262h142l41 143h-142z" />
<glyph unicode="$" d="M94 17l15 58q122 -23 228 -23q98 0 138.5 26.5t49.5 100.5q3 22 3.5 37.5t-3 28.5t-7 21.5t-14.5 15t-20.5 10t-30 6t-37.5 3.5t-48 3q-123 6 -160 18q-67 22 -74 94q-3 28 2 65q14 103 61 143q54 48 191 49l13 111h63l-13 -112q84 -4 167 -21l-14 -55q-103 19 -204 19 q-59 0 -95.5 -7.5t-57 -26t-28.5 -41t-13 -60.5q-4 -34 0.5 -54t27.5 -30t39.5 -12.5t64.5 -5.5q17 -1 26 -2q117 -8 138 -12q76 -15 93 -74q10 -35 3 -92q-14 -111 -62.5 -155.5t-168.5 -48.5l-14 -113h-63l14 112q-49 1 -101.5 7t-80.5 12z" />
<glyph unicode="%" horiz-adv-x="881" d="M120 501q12 103 44.5 136t124.5 33q96 0 118.5 -33t9.5 -136t-44 -136t-125 -33t-117.5 33.5t-10.5 135.5zM175 501q-10 -77 3.5 -98.5t75.5 -21.5t80 21t28 99q9 78 -3 99.5t-76 21.5q-60 0 -79.5 -21.5t-28.5 -99.5zM183 0l538 665h64l-541 -665h-61zM546 165 q13 104 45.5 136.5t124.5 32.5q95 0 117.5 -33t9.5 -136q-12 -103 -43 -136t-125 -33t-117.5 33.5t-11.5 135.5zM601 165q-9 -77 4.5 -98.5t75.5 -21.5t80 21t27 99q8 48 4.5 75t-20.5 36.5t-62 9.5q-60 0 -79.5 -21.5t-29.5 -99.5z" />
<glyph unicode="&#x26;" horiz-adv-x="662" d="M94 183q4 26 10 48.5t10 32.5l4 9l111 58q9 4 10 11.5t-7 12.5l-88 53q-4 37 2 87q12 100 66.5 139t156.5 39q45 0 89 -5.5t66 -10.5l22 -5l-15 -53q-80 17 -152 17q-80 0 -117 -23.5t-46 -97.5t22.5 -102t109.5 -28h164l12 100h67l-12 -100h88l-7 -56h-88l-37 -299 q-119 -17 -209 -17q-64 0 -104 6t-75 25t-47.5 58t-5.5 101zM165 180q-5 -46 3.5 -73.5t36 -39.5t52.5 -14.5t74 -2.5q30 0 66 2.5t56 4.5l21 2l31 250h-171q-83 0 -121 -25.5t-48 -103.5z" />
<glyph unicode="'" horiz-adv-x="158" d="M103 399l24 266h67l-42 -266h-49z" />
<glyph unicode="(" horiz-adv-x="288" d="M85 0l48 390q11 90 15 109q16 95 51.5 132.5t106.5 37.5q7 0 13 -1l-7 -55q-44 0 -64 -16q-26 -20 -35 -81q-12 -75 -22 -163l-30 -240q-2 -15 -8.5 -73t-9.5 -90q-5 -56 10.5 -76.5t64.5 -21.5l-6 -54h-13q-81 0 -103.5 49t-10.5 153z" />
<glyph unicode=")" horiz-adv-x="288" d="M27 -202l6 54q53 2 71.5 22t27.5 76q16 106 23 163l30 240q8 64 17 163q5 56 -10.5 76t-64.5 21l7 55q5 1 12 1q54 0 80 -19t35 -63q8 -42 -1 -120l-48 -390q-11 -89 -14 -110q-16 -95 -51.5 -132t-107.5 -37h-12z" />
<glyph unicode="*" horiz-adv-x="417" d="M111 523l22 49l117 -49l18 142h45l-18 -142l129 49l10 -49l-131 -50l61 -117l-40 -29l-60 121l-96 -121l-31 29l91 117z" />
<glyph unicode="+" d="M153 301l8 63h178l25 198h62l-25 -198h178l-8 -63h-178l-24 -199h-62l24 199h-178z" />
<glyph unicode="," horiz-adv-x="204" d="M25 -135l69 135h-46l11 91h107l-11 -91l-69 -135h-61z" />
<glyph unicode="-" horiz-adv-x="282" d="M73 210l8 65h188l-8 -65h-188z" />
<glyph unicode="." horiz-adv-x="199" d="M49 0l11 91h101l-11 -91h-101z" />
<glyph unicode="/" horiz-adv-x="411" d="M-57 -199l457 865h60l-457 -865h-60z" />
<glyph unicode="0" d="M100 332q9 76 19 125.5t26.5 90.5t37 63t53.5 37t73 20t99 5q92 0 141 -15.5t73.5 -54t22.5 -104.5t-13 -167q-9 -76 -17.5 -121.5t-23.5 -88t-34 -64t-52 -38t-75 -22t-104 -5.5t-103 5.5t-70 22t-43.5 38t-19.5 64t-2 88.5t12 121zM169 332q-8 -68 -11.5 -107t0 -75 t13 -52t31.5 -29t51.5 -16t78.5 -3q37 0 63 2t48.5 9.5t37 15t27 26t19.5 35.5t14 50.5t11.5 63t10.5 80.5q8 67 11 106t0 75t-12.5 53t-31.5 30.5t-51.5 17t-77.5 3.5q-45 0 -74 -3.5t-54.5 -15.5t-40 -30t-27 -52.5t-20.5 -76t-16 -107.5z" />
<glyph unicode="1" d="M161 0l7 56h144l68 555h-163l7 55h231l-75 -610h136l-7 -56h-348z" />
<glyph unicode="2" d="M84 0l14 112q7 52 19.5 85.5t39.5 56t49 33.5t71 29l155 59q63 24 87.5 47t30.5 73q8 70 -22 95.5t-128 25.5q-53 0 -109.5 -6t-86.5 -12l-31 -7l-4 56q107 26 241 26q125 0 173.5 -36.5t36.5 -133.5q-3 -24 -7.5 -43t-13 -35t-15 -27.5t-22 -23t-24.5 -18t-32 -16 t-35 -14t-43 -16t-47 -17.5q-14 -5 -40 -15q-48 -18 -68 -26t-45 -22t-34.5 -27.5t-17.5 -34.5t-12 -52l-7 -57h418l-7 -59h-484z" />
<glyph unicode="3" d="M97 14l15 55q97 -18 198 -18q97 0 148 28t61 108q9 69 -14.5 101.5t-90.5 32.5l-103 -4l-22 73l244 184q13 10 13 21q0 13 -21 13h-364l7 58h442l-12 -102l-219 -164q-9 -5 -9 -14q-1 -8 3.5 -11.5t14.5 -2.5q2 0 17 1t24 1q92 2 131 -44t28 -136q-6 -50 -25 -87 t-44.5 -58.5t-62.5 -34.5t-73.5 -17t-83.5 -4q-50 0 -100.5 5t-76.5 10z" />
<glyph unicode="4" d="M59 154l16 131l353 381h89l-368 -386q-21 -23 -23 -38q-1 -15 8.5 -23t26.5 -8h294l30 245h67l-30 -245h114l-7 -57h-114l-18 -154h-67l18 154h-389z" />
<glyph unicode="5" d="M97 15l15 55q103 -20 203 -20q107 0 150.5 34t55.5 130q6 53 -1 86t-30 50t-53 22.5t-80 5.5q-43 0 -89.5 -9t-71.5 -18l-25 -9l-40 19l38 305h438l-7 -58h-377l-26 -205q-2 -20 14 -20q7 0 18 7l60 38q43 8 85 8q64 0 104.5 -8.5t71 -32t39.5 -67.5t1 -113 q-15 -128 -78.5 -175t-194.5 -47q-55 0 -110 5.5t-83 11.5z" />
<glyph unicode="6" d="M111 332q0 1 3.5 30.5t5 37t5.5 35.5t7.5 40t9 35.5t11.5 37t14.5 30t18.5 28.5q32 38 85 52t148 14q51 0 102.5 -6t76.5 -12l26 -6l-16 -54q-95 22 -195 22q-68 0 -108.5 -10.5t-62.5 -37.5q-6 -7 -11.5 -16t-10 -21t-8 -21t-6.5 -24.5t-5 -23t-4.5 -25.5t-3 -22 t-3 -22.5t-2.5 -19.5q-2 -19 14 -19q6 0 20 8l60 38q63 12 105 12t72 -2t57 -8t42.5 -16t29 -26t16.5 -38t5.5 -52t-4.5 -68q-8 -67 -27 -108.5t-54 -63.5t-77.5 -29.5t-110.5 -7.5q-96 0 -145.5 14t-71.5 52q-6 11 -10.5 23.5t-6.5 28.5t-3.5 30t-1 34t1 32.5t2.5 34.5 t3 31t3.5 32t3.5 27zM171 236q-8 -67 -1 -108.5t44 -59.5t119 -18q45 0 69.5 1.5t51 9.5t40.5 24.5t25 45t16 72.5q3 27 3.5 48t-3.5 37t-9 27t-17 18.5t-23 12t-31 6.5t-37 2.5t-45 0.5q-43 0 -91 -7.5t-74 -14.5l-26 -7q-4 -27 -11 -90z" />
<glyph unicode="7" d="M134 607l7 59h497l-4 -54q-6 -71 -22 -113t-42 -70t-86 -76q-58 -46 -86.5 -74.5t-50.5 -72t-29 -103.5l-13 -103h-70l13 103q12 100 49.5 157t130.5 131q75 59 99 92.5t29 87.5l3 36h-425z" />
<glyph unicode="8" d="M94 180q6 54 40 101l93 49q11 6 12 14q1 10 -13 16q-53 23 -71.5 59t-10.5 96q6 48 26 80t56.5 48.5t78.5 23t103 6.5q124 0 180.5 -32.5t45.5 -125.5q-7 -57 -41 -101l-93 -49q-10 -6 -11 -14q-2 -10 13 -16q113 -49 98 -170q-12 -96 -73 -134t-203 -38 q-131 0 -187.5 38t-42.5 149zM163 180q-5 -42 1 -67t28 -39t54 -19t87 -5q123 0 163 36q29 26 37 91q3 24 -4 44.5t-23 36t-36.5 27.5t-49 22t-55.5 17t-62 14q-48 -15 -90 -57t-50 -101zM212 515q-8 -61 40.5 -96.5t175.5 -60.5q47 14 88 56.5t49 100.5q7 57 -30 79 t-134 22t-139.5 -22.5t-49.5 -78.5z" />
<glyph unicode="9" d="M108 17l16 54q95 -22 195 -22q68 0 109 10.5t63 37.5q6 7 11.5 16.5t9.5 21t7.5 20.5t6.5 24.5t5 23t4.5 25t3 22.5t3 23t2.5 19q2 19 -13 19q-6 0 -20 -8l-60 -38q-64 -12 -106 -12t-72 2t-57 8t-42.5 16t-29 26t-16.5 38t-5.5 52t4.5 68q8 67 27 108.5t54 63.5t78 29.5 t111 7.5q95 0 144.5 -14t71.5 -52q36 -61 10 -260q-1 -9 -2 -14q-17 -147 -39 -207q-15 -41 -36 -66q-31 -38 -84 -52t-149 -14q-51 0 -102.5 6t-76.5 12zM197 462q-3 -27 -3.5 -48t3.5 -37t9 -27t17 -18.5t23 -12t31 -6.5t37 -2.5t45 -0.5q44 0 91.5 7t73.5 15l26 7 q4 27 11 90q9 67 2 108.5t-44 59.5t-119 18q-56 0 -85 -3t-57 -18t-41 -46t-20 -86z" />
<glyph unicode=":" horiz-adv-x="199" d="M49 0l11 91h101l-11 -91h-101zM87 306l11 91h101l-12 -91h-100z" />
<glyph unicode=";" horiz-adv-x="204" d="M25 -135l69 135h-46l11 91h107l-11 -91l-69 -135h-61zM89 306l11 91h101l-11 -91h-101z" />
<glyph unicode="&#x3c;" d="M153 303l7 59l444 200l-8 -67l-373 -163l333 -163l-8 -67z" />
<glyph unicode="=" d="M143 217l8 63h418l-8 -63h-418zM164 384l7 63h418l-7 -63h-418z" />
<glyph unicode="&#x3e;" d="M129 102l8 67l373 163l-333 163l8 67l394 -200l-7 -60z" />
<glyph unicode="?" horiz-adv-x="518" d="M129 597v53q86 23 202 23q110 0 155.5 -36t32.5 -141q-5 -40 -8.5 -58.5t-12 -44t-22.5 -39t-38 -27.5t-60 -26q-63 -20 -81.5 -34t-23.5 -55l-2 -19h-68l2 19q7 61 33 86t109 54q67 24 82 45t25 99q5 42 -0.5 66.5t-26 36.5t-44 15t-68.5 3q-44 0 -90.5 -5t-70.5 -10z M171 0l11 91h84l-11 -91h-84z" />
<glyph unicode="@" horiz-adv-x="709" d="M99 333q14 114 36.5 180t64.5 104q29 26 77.5 39.5t79.5 15t86 1.5t85.5 -1.5t76 -15t68.5 -39.5q32 -37 37 -107t-10 -177q-5 -42 -10.5 -67.5t-19 -61t-39.5 -53.5t-63 -18q-29 0 -46 8t-21 17.5t-9.5 17.5t-13.5 8q-10 0 -22 -12l-35 -32q-29 -6 -57 -6 q-91 0 -115.5 44t-11.5 151q14 112 52.5 153t139.5 41q27 0 60.5 -2.5t54.5 -5.5l20 -3l-32 -259q-7 -25 -3 -52.5t33 -27.5q54 0 73 160q14 102 10.5 157.5t-28.5 85.5q-6 7 -13.5 13t-14.5 10t-18 7.5t-17.5 5.5t-20 4t-19 2.5t-20.5 1t-19 0.5h-20h-18h-18h-20 t-19.5 -0.5t-21 -1t-19.5 -2.5t-21 -4t-19 -5.5t-20 -7.5t-17 -10t-17 -13q-33 -30 -51 -84t-31 -159q-13 -103 -8.5 -158t31.5 -85q17 -20 46.5 -30.5t52 -12t59.5 -1.5q41 0 86.5 2t70.5 4l25 3l-2 -51q-81 -11 -177 -11q-49 0 -81 2.5t-73 15.5t-63 38 q-33 38 -39.5 107.5t8.5 176.5zM304 329q-5 -47 -5 -80t21.5 -50.5t68.5 -17.5q18 0 31 2.5t21.5 10t13.5 13t8.5 20.5t5 22t3.5 27l24 198q-29 4 -60 4q-75 0 -98.5 -33t-33.5 -116z" />
<glyph unicode="A" horiz-adv-x="724" d="M0 0l6 46l36 9q18 5 29 23l282 512q11 20 -8 23l-36 7l6 46h194l164 -588q4 -18 22 -23l35 -9l-6 -46h-173l5 46l31 6q13 3 16.5 8.5t-0.5 19.5l-36 122h-362l-66 -122q-6 -12 -6 -15q-1 -7 2.5 -9t12.5 -4l29 -6l-6 -46h-171zM233 256h319l-90 337q-2 10 -4 14t-6 7 t-11 3q-3 0 -5 -0.5l-4 -1t-3.5 -1t-3 -2.5t-2.5 -3t-2.5 -3.5t-2 -3.5t-2 -4.5t-2.5 -4.5z" />
<glyph unicode="B" horiz-adv-x="688" d="M64 0l6 46l37 7q14 2 16 18l64 524q2 16 -12 18l-35 7l6 46h381q92 0 128 -41.5t25 -136.5q-1 -10 -3 -20t-3.5 -18t-3.5 -15t-3.5 -12t-3 -8.5t-1.5 -5.5l-1 -2l-102 -53q-8 -4 -9.5 -11.5t6.5 -12.5l98 -58q1 -3 2 -10t2.5 -30t-3.5 -49q-11 -95 -59 -139t-140 -44 h-392zM189 58h228q83 0 121 25t47 101q5 40 -0.5 65t-25 38t-45 17.5t-66.5 4.5h-228zM227 365h220q40 0 65.5 4.5t47 17.5t33.5 37.5t17 62.5q4 39 -1 63t-23 36.5t-42.5 17t-64.5 4.5h-222z" />
<glyph unicode="C" horiz-adv-x="622" d="M101 333q14 116 36.5 182.5t61.5 101.5q60 56 223 56q103 0 230 -27l-17 -58q-131 23 -214 23q-130 0 -173 -38q-30 -27 -47.5 -82.5t-29.5 -158.5q-13 -101 -8.5 -156.5t28.5 -83.5q20 -23 59.5 -31.5t107.5 -8.5q45 0 98.5 5.5t84.5 10.5l31 6l3 -55q-118 -26 -232 -26 q-85 0 -136 12.5t-77 43.5q-30 36 -36.5 103.5t7.5 180.5z" />
<glyph unicode="D" horiz-adv-x="737" d="M64 0l6 46l37 7q14 2 16 18l64 524q2 16 -12 18l-35 7l6 46h344q91 0 144.5 -23.5t72.5 -66.5t21 -104.5t-10 -137.5q-6 -49 -12 -82.5t-16.5 -72t-25 -63t-37.5 -48.5t-53 -37.5t-71.5 -22t-94.5 -8.5h-344zM189 58h221q33 0 61 4.5t48.5 10.5t37.5 19.5t28.5 24.5 t21.5 33t15 37t10.5 44.5t8 47.5l7.5 54q4 31 6 48.5t4 44t1 41t-3.5 35.5t-9 32t-15.5 25t-23 21.5t-32.5 14.5t-43 10t-54.5 3h-221z" />
<glyph unicode="E" horiz-adv-x="598" d="M64 0l6 46l37 7q14 2 16 18l64 524q2 16 -12 18l-35 7l6 46h485l-7 -58h-367l-30 -238h358l-7 -57h-358l-31 -255h367l-7 -58h-485z" />
<glyph unicode="F" horiz-adv-x="551" d="M64 0l6 46l37 7q14 2 16 18l64 524q2 16 -12 18l-35 7l6 46h464l-7 -58h-346l-30 -243h337l-7 -58h-337l-29 -236q-2 -16 12 -18l35 -7l-6 -46h-168z" />
<glyph unicode="G" horiz-adv-x="679" d="M101 332q14 112 34.5 177t61 102.5t92.5 49t141 11.5q56 0 116.5 -7.5t92.5 -14.5l32 -8l-16 -57q-125 26 -236 26q-47 0 -76 -3t-57 -13.5t-44 -28.5t-30.5 -50t-23.5 -75.5t-17 -108.5q-8 -66 -10 -109.5t4.5 -76t18 -50t37.5 -28t55 -13.5t77 -3q56 0 106.5 6t72.5 12 l22 7l33 269h68l-42 -346h-58l-2 35q0 16 -15 16q-7 0 -21 -8l-66 -40q-44 -10 -102 -10q-61 0 -100.5 4.5t-73 18t-50.5 36t-26.5 61.5t-8 91t10.5 128z" />
<glyph unicode="H" horiz-adv-x="779" d="M64 0l6 46l37 7q14 2 16 18l64 524q2 16 -12 18l-35 7l6 46h168l-6 -46l-37 -7q-14 -2 -16 -18l-28 -228h415l28 228q2 16 -12 18l-35 7l6 46h168l-6 -46l-37 -7q-14 -2 -16 -18l-64 -524q-2 -16 12 -18l35 -7l-6 -46h-168l6 46l37 7q14 2 16 18l29 240h-415l-29 -240 q-2 -16 12 -18l35 -7l-6 -46h-168z" />
<glyph unicode="I" horiz-adv-x="296" d="M64 0l6 46l37 7q14 2 16 18l64 524q2 16 -12 18l-35 7l6 46h168l-6 -46l-37 -7q-14 -2 -16 -18l-64 -524q-2 -16 12 -18l35 -7l-6 -46h-168z" />
<glyph unicode="J" horiz-adv-x="416" d="M18 3l13 52q57 -8 115 -8q62 0 82.5 22t28.5 88l54 438q2 16 -12 18l-35 7l6 46h168l-6 -46l-37 -7q-14 -2 -16 -18l-55 -446q-11 -95 -54 -126.5t-129 -31.5q-31 0 -61.5 3t-45.5 6z" />
<glyph unicode="K" horiz-adv-x="672" d="M64 0l6 46l36 7q15 2 17 18l64 524q2 16 -12 18l-35 7l6 46h168l-6 -46l-37 -7q-14 -2 -16 -18l-25 -204q-2 -20 3 -27q8 -9 25 -9q19 0 46 23l253 210q8 6 9 13q1 10 -13 14l-21 5l6 46h185l-6 -46l-38 -8q-20 -4 -39 -19l-309 -258l252 -255q14 -14 20.5 -17.5 t23.5 -8.5l31 -8l-6 -46h-195l5 46l19 4q21 4 23 16q1 8 -7 16l-204 207q-24 24 -40 24q-17 0 -27 -10q-8 -8 -10 -27l-25 -205q-2 -16 11 -18l36 -7l-6 -46h-168z" />
<glyph unicode="L" horiz-adv-x="532" d="M64 0l6 46l37 7q14 2 16 18l64 524q2 16 -12 18l-35 7l6 46h168l-6 -46l-37 -7q-14 -2 -16 -18l-66 -536h332l-7 -59h-450z" />
<glyph unicode="M" horiz-adv-x="907" d="M64 0l6 46l37 7q14 2 16 18l64 524q2 16 -12 18l-35 7l6 46h192l140 -372q2 -8 8 -8t11 7l231 373h197l-6 -46l-37 -7q-14 -2 -16 -18l-64 -524q-2 -16 12 -18l35 -7l-6 -46h-168l6 46l37 7q14 2 16 18l63 518q2 14 -1.5 20.5t-16.5 6.5q-12 0 -25 -19l-232 -372h-88 l-141 372q-11 18 -20 19q-22 0 -25 -27l-63 -518q-2 -16 12 -18l35 -7l-6 -46h-162z" />
<glyph unicode="N" horiz-adv-x="807" d="M64 0l6 46l37 7q14 2 16 18l64 524q2 16 -12 18l-35 7l6 46h198l251 -592q7 -18 21 -18q13 0 17.5 6.5t6.5 20.5l63 512q2 16 -12 18l-35 7l6 46h163l-6 -46l-37 -7q-14 -2 -16 -18l-73 -595h-146l-252 597q-8 19 -21 19q-22 0 -25 -27l-63 -518q-2 -16 12 -18l35 -7 l-6 -46h-163z" />
<glyph unicode="O" horiz-adv-x="673" d="M101 332q10 78 19.5 128t26 91t36.5 62.5t55.5 36t76.5 19t105 4.5q65 0 107.5 -5t72.5 -22t44.5 -38t19.5 -64t2 -89t-12 -123q-9 -76 -17.5 -122.5t-24 -89t-35.5 -63.5t-54 -37.5t-77.5 -21.5t-108.5 -5t-107.5 5.5t-73 22t-45 38t-20 64t-2.5 88.5t12 121zM171 332 q-8 -68 -11 -106.5t0.5 -74.5t13.5 -52.5t33.5 -29t54.5 -16t82 -3.5q52 0 84.5 3t58.5 17t39.5 29t25.5 53t17.5 74t14.5 106q18 115 13 178t-43 84.5t-141 21.5q-50 0 -80.5 -3t-57.5 -14.5t-41.5 -28t-27 -51.5t-20 -76.5t-15.5 -110.5z" />
<glyph unicode="P" horiz-adv-x="672" d="M64 0l6 46l37 7q14 2 16 18l64 524q2 16 -12 18l-35 7l6 46h369q188 0 164 -200q-4 -33 -8 -55t-18 -58t-35 -58t-61 -39t-93 -17h-64l-106 4l-44 33q-10 8 -18 8q-10 0 -13 -4.5t-5 -14.5l-23 -194q-2 -16 11 -18l35 -7l-5 -46h-168zM220 308q56 -12 189 -12 q54 0 82 3.5t55.5 19t41 48t20.5 89.5q11 90 -21.5 121t-114.5 31h-215z" />
<glyph unicode="Q" horiz-adv-x="710" d="M102 339q7 58 14 99t17.5 77.5t21.5 59t29.5 41.5t38.5 29t51 17t64.5 9t81.5 2q49 0 84 -2.5t63.5 -10.5t46.5 -18.5t30.5 -31t17.5 -42.5t5.5 -59t-2.5 -75t-10 -95q-16 -120 -39 -181l-70 -62q-14 -12 -15 -20q0 -4 0.5 -7.5t3 -5.5t5 -3.5t6.5 -2t6.5 -1t7 -0.5h6.5 l135 -7l-6 -49h-357q-65 0 -107.5 5.5t-73 22t-45 38t-20 64t-2.5 88.5t12 121zM172 338q-8 -67 -11 -106t0.5 -75t13.5 -52.5t33.5 -29.5t54.5 -16.5t82 -3.5q39 0 66 2t50.5 9t38 14.5t27.5 26t20.5 35.5t14.5 50.5t11.5 63.5t10.5 82q28 176 1.5 227t-172.5 51 q-51 0 -80.5 -2t-57.5 -13t-41 -27t-26.5 -50.5t-20.5 -75.5t-15 -110z" />
<glyph unicode="R" horiz-adv-x="703" d="M64 0l6 46l37 7q14 2 16 18l64 524q2 16 -12 18l-35 7l6 46h358q110 0 150 -41t27 -141q-9 -81 -55 -127q-22 -20 -56 -35q-28 -10 -63 -15q-27 -4 -29 -22q-1 -7 6 -21l102 -186l4 -6l3 -4.5t3.5 -3.5t4 -2.5l4.5 -1.5l4.5 -1.5l6 -2t6.5 -1.5l37 -9l-6 -46h-108 l-122 223l11 83h-214l-29 -235q-2 -16 12 -18l35 -7l-6 -46h-168zM227 363h218q98 0 130 31q29 26 37 91q8 67 -14 92q-27 31 -123 31h-218z" />
<glyph unicode="S" horiz-adv-x="616" d="M77 17l15 58q122 -23 227 -23q99 0 139.5 26.5t49.5 100.5q3 22 3.5 37.5t-3 28.5t-7 21.5t-14.5 15t-20.5 10t-30 6t-37.5 3.5t-48 3q-123 6 -160 18q-67 22 -74 94q-3 28 2 65q12 101 61 143q31 27 78.5 38t128.5 11q104 0 214 -22l-14 -55q-103 19 -204 19 q-59 0 -95.5 -7.5t-57 -26t-28.5 -41t-13 -60.5q-4 -34 0 -54t27.5 -30t40 -12.5t64.5 -5.5q17 -1 26 -2q116 -8 136 -12q76 -15 94 -72q11 -36 4 -94q-14 -118 -69.5 -161.5t-198.5 -43.5q-53 0 -112 6t-91 12z" />
<glyph unicode="T" horiz-adv-x="576" d="M80 607l7 59h566l-7 -59h-249l-66 -536q-2 -16 12 -18l35 -7l-6 -46h-168l6 46l37 7q14 2 16 18l66 536h-249z" />
<glyph unicode="U" horiz-adv-x="766" d="M144 620l6 46h168l-6 -46l-37 -7q-14 -2 -16 -18l-44 -363q-14 -115 13.5 -148t140.5 -33q56 0 112.5 6.5t84.5 13.5l29 7l63 517q2 16 -12 18l-35 7l6 46h168l-6 -46l-37 -7q-14 -2 -16 -18l-64 -524q-2 -16 12 -18l35 -7l-6 -46h-108l-2 35q0 16 -14 16q-9 0 -21 -7 l-68 -41q-65 -10 -134 -10q-146 0 -187 47.5t-23 187.5l45 367q2 16 -12 18z" />
<glyph unicode="V" horiz-adv-x="705" d="M97 620l6 46h170l-6 -46l-31 -7q-17 -4 -14 -21l112 -507q3 -17 8.5 -24t19.5 -7t20.5 7t15.5 24l232 508q7 16 -9 20l-30 7l6 46h169l-6 -46l-30 -8q-21 -5 -29 -24l-281 -588h-134l-136 588q-3 12 -7.5 16.5t-16.5 7.5z" />
<glyph unicode="W" horiz-adv-x="1132" d="M102 620l6 46h171l-6 -46l-31 -7q-16 -4 -14 -21l71 -507q2 -16 8 -23.5t20 -7.5q24 0 36 31l223 581h126l84 -581q2 -16 8 -23.5t20 -7.5q24 0 36 31l191 508q7 16 -10 20l-28 7l5 46h170l-5 -46l-31 -8q-22 -5 -29 -24l-233 -588h-150l-82 602q-2 18 -17 18t-20 -18 l-231 -602h-146l-89 588q-2 19 -24 24z" />
<glyph unicode="X" horiz-adv-x="672" d="M25 0l6 46l33 8q16 4 26 16l214 281l-135 245q-7 13 -22 16l-31 8l6 46h170l-6 -46l-34 -9q-13 -3 -7 -16l104 -189q6 -12 9 -16.5t9.5 -8t17.5 -3.5q16 0 23.5 5.5t20.5 22.5l150 189q10 12 -3 16l-32 9l5 46h167l-5 -46l-34 -8q-15 -3 -25 -16l-198 -245l146 -281 q6 -13 21 -16l32 -8l-6 -46h-172l6 46l33 9q13 3 8 16l-108 223q-5 11 -8.5 16t-10 8.5t-17.5 3.5q-16 0 -24 -6t-20 -22l-165 -217q-6 -8 -6 -12q-1 -7 10 -11l28 -8l-6 -46h-170z" />
<glyph unicode="Y" horiz-adv-x="620" d="M100 620l6 46h168l-6 -46l-37 -7q-14 -2 -16 -18l-22 -183q-11 -90 18.5 -116.5t140.5 -26.5q39 0 89 10.5t68 16.5l37 299q2 16 -12 18l-35 7l6 46h168l-6 -46l-37 -7q-14 -2 -16 -18l-49 -401q-6 -46 -12 -72t-22 -54.5t-42.5 -42.5t-72.5 -23t-113 -9q-51 0 -99 4.5 t-70 8.5l-23 5l15 54q73 -15 185 -15q62 0 97.5 7t54 28.5t24 41.5t10.5 66l7 55q2 21 -15 21q-6 0 -18 -8l-68 -43q-50 -7 -96 -7q-122 0 -159 43.5t-24 152.5l23 188q2 16 -12 18z" />
<glyph unicode="Z" horiz-adv-x="624" d="M59 0l15 119l462 438q17 17 16 32q-1 19 -29 19h-393l7 58h488l-16 -129l-459 -427q-13 -13 -14 -25q-2 -9 4.5 -17t24.5 -8h401l-7 -60h-500z" />
<glyph unicode="[" horiz-adv-x="274" d="M57 -199l106 864h146l-7 -50h-86l-93 -765h86l-6 -49h-146z" />
<glyph unicode="\" horiz-adv-x="411" d="M115 665h60l245 -864h-60z" />
<glyph unicode="]" horiz-adv-x="274" d="M23 -199l6 49h87l93 765h-87l7 50h147l-106 -864h-147z" />
<glyph unicode="^" horiz-adv-x="536" d="M91 366l214 300h90l141 -300h-78l-116 248l-174 -248h-77z" />
<glyph unicode="_" horiz-adv-x="498" d="M-16 -130l8 63h498l-8 -63h-498z" />
<glyph unicode="`" horiz-adv-x="245" d="M122 610l38 48l107 -100l-25 -36z" />
<glyph unicode="a" horiz-adv-x="537" d="M78 232q7 57 18.5 95.5t34.5 73.5t63.5 52.5t98.5 17.5q44 0 99 -6t88 -12l33 -6l-47 -384q-1 -6 -0.5 -10t3 -5.5t8.5 -2.5l26 -5l-5 -40h-98l-1 25q-3 16 -15 16q-5 0 -21 -9l-51 -32q-44 -7 -86 -7q-73 0 -110 30.5t-41 83.5t3 125zM144 232q-14 -113 8.5 -150.5 t108.5 -37.5q31 0 66.5 5t55.5 10l20 5l42 344q-72 12 -137 12q-86 0 -118 -37.5t-46 -150.5z" />
<glyph unicode="b" horiz-adv-x="526" d="M70 18l72 585q1 10 -1 13.5t-11 4.5l-25 5l4 40h103l-27 -219q-2 -21 15 -21q7 0 19 7l49 31q40 7 88 7q104 0 133.5 -56.5t14.5 -180.5q-17 -141 -67.5 -191t-182.5 -50q-108 0 -184 25zM138 58q55 -14 134 -14q89 0 120.5 36t45.5 154q14 113 -8.5 149.5t-108.5 36.5 q-31 0 -66 -5t-55 -10l-20 -5z" />
<glyph unicode="c" horiz-adv-x="465" d="M78 232q18 144 69 191.5t172 47.5q39 0 79 -5t61 -10l21 -5l-13 -47q-71 16 -144 16q-97 0 -130.5 -34.5t-47.5 -153.5q-15 -119 10 -153.5t121 -34.5q33 0 70 4t58 8l20 4l2 -47q-78 -20 -166 -20q-121 0 -160.5 47.5t-21.5 191.5z" />
<glyph unicode="d" horiz-adv-x="529" d="M79 232q7 57 18 96t34 73.5t63.5 52t98.5 17.5q94 0 158 -16l18 148q1 10 -1 13.5t-11 4.5l-25 5l5 40h103l-74 -603q-1 -6 -0.5 -10t3 -5.5t8.5 -2.5l26 -5l-5 -40h-97l-1 25q-3 16 -15 16q-5 0 -21 -9l-52 -32q-39 -7 -86 -7q-72 0 -109 30.5t-41.5 83.5t3.5 125z M144 232q-14 -114 8.5 -150.5t108.5 -36.5q31 0 66.5 5t55.5 10l20 5l42 343q-72 12 -137 12q-86 0 -118 -37.5t-46 -150.5z" />
<glyph unicode="e" horiz-adv-x="527" d="M78 232q13 103 44 157q25 46 73 64t131 18q136 0 168 -47q30 -44 16 -154q-3 -24 -9 -54q-136 -8 -155 -8l-138 4l-28 21q-10 7 -17 7q-19 0 -21 -31q-13 -92 14 -127q29 -37 125 -37q41 0 82.5 4t62.5 8l22 4l3 -48q-68 -20 -171 -20q-36 0 -61 2t-50.5 8.5t-40.5 17.5 t-29.5 28.5t-18.5 43t-7 60t5 79.5zM150 266q30 -5 67 -7t59 -2h23q82 -2 143 4q5 37 5.5 62t-4 43.5t-12 29t-24 16.5t-34.5 7.5t-48 1.5q-28 0 -48.5 -1t-37.5 -5.5t-28 -8.5t-20 -14.5t-14.5 -19t-10.5 -28t-8 -34.5t-8 -44z" />
<glyph unicode="f" horiz-adv-x="311" d="M63 0l5 39l26 5q15 3 17 18l43 354h-88l6 49h88l8 63q6 47 18 77t42 50q33 21 105 21l75 -7l-10 -46q-32 4 -62 4q-60 0 -78 -17q-19 -18 -27 -83l-8 -62h147l-6 -49h-147l-43 -353q-1 -6 -0.5 -10t3 -5.5t8.5 -2.5l26 -5l-5 -40h-143z" />
<glyph unicode="g" horiz-adv-x="537" d="M79 234q15 124 59 180.5t147 56.5l85 -6l44 -32q11 -9 20 -9q12 0 17 16l7 25h97l-5 -39l-26 -5q-15 -3 -17 -18l-49 -399q-11 -94 -33 -138.5t-66 -62.5t-132 -18q-36 0 -71 3.5t-52 7.5l-17 3l13 49q56 -13 133 -13q51 0 80 6t46 25.5t23 43.5t12 74l3 27 q-96 -18 -148 -18q-119 0 -152.5 54t-17.5 187zM145 234q-15 -118 7.5 -154t111.5 -36q32 0 66.5 3t53.5 7l18 3l42 343q-67 20 -136 20q-86 0 -117.5 -36.5t-45.5 -149.5z" />
<glyph unicode="h" horiz-adv-x="555" d="M39 0l5 39l26 5q15 3 17 18l66 541q1 10 -1 13.5t-11 4.5l-25 5l5 40h103l-27 -218q-3 -21 14 -21q8 0 19 7l49 31q53 6 81 6q104 0 135 -34.5t18 -135.5l-29 -238q-1 -6 -0.5 -10t3 -5.5t8.5 -2.5l26 -5l-5 -40h-143l5 39l26 5q15 3 17 18l27 226q11 84 -9.5 108 t-102.5 24q-31 0 -67 -4t-57 -8l-20 -5l-42 -340q-1 -6 -0.5 -10t3 -5.5t8.5 -2.5l26 -5l-5 -40h-143z" />
<glyph unicode="i" horiz-adv-x="236" d="M49 0l5 39l26 5q15 3 17 18l41 340q1 6 0.5 10t-3 5.5t-8.5 2.5l-26 5l5 40h103l-49 -402q-1 -6 -0.5 -10t3 -5.5t8.5 -2.5l26 -5l-5 -40h-143zM142 590l10 76h79l-10 -76h-79z" />
<glyph unicode="j" horiz-adv-x="229" d="M-62 -191l10 47q26 -3 41 -3q52 0 67 10.5t20 51.5l59 487q1 6 0.5 10t-3 5.5t-8.5 2.5l-26 5l5 40h103l-70 -571q-10 -91 -126 -91zM139 590l10 76h79l-10 -76h-79z" />
<glyph unicode="k" horiz-adv-x="496" d="M39 0l5 39l26 5q15 3 17 18l66 541q1 10 -1 13.5t-11 4.5l-25 5l5 40h103l-46 -375q-3 -27 22 -27q15 0 35 18l209 183h74l-5 -40l-38 -6q-10 -3 -17 -8l-183 -159l152 -191q8 -10 21 -13l33 -8l-5 -40h-87l-162 216q-14 18 -30 18q-26 0 -29 -26l-18 -145 q-1 -6 -0.5 -10t3 -5.5t8.5 -2.5l26 -5l-5 -40h-143z" />
<glyph unicode="l" horiz-adv-x="226" d="M39 0l5 39l26 5q15 3 17 18l66 541q1 10 -1 13.5t-11 4.5l-25 5l5 40h103l-74 -603q-1 -6 -0.5 -10t3 -5.5t8.5 -2.5l26 -5l-5 -40h-143z" />
<glyph unicode="m" horiz-adv-x="877" d="M49 0l5 39l26 5q15 3 17 18l41 340q1 6 0.5 10t-3 5.5t-8.5 2.5l-26 5l5 40h93l1 -25q0 -16 14 -16q6 0 22 9l51 32q45 6 73 6q48 0 78 -6.5t38 -12t20 -17.5q13 -9 17 -9t17 7l55 30q37 8 97 8q104 0 135 -34.5t18 -135.5l-29 -239q-3 -16 11 -18l26 -5l-5 -40h-143 l5 40l26 5q10 1 12.5 4.5t4.5 13.5l27 226q11 84 -9.5 108t-102.5 24q-42 0 -151 -15q14 -40 9 -78l-32 -264q-1 -6 -0.5 -10t3 -5.5t8.5 -2.5l26 -5l-5 -40h-143l5 39l26 5q15 3 17 18l27 226q11 84 -9.5 108t-102.5 24q-31 0 -64.5 -4t-51.5 -8l-18 -4l-42 -341 q-1 -6 -0.5 -10t3 -5.5t8.5 -2.5l26 -5l-5 -40h-143z" />
<glyph unicode="n" horiz-adv-x="565" d="M49 0l5 39l26 5q15 3 17 18l41 340q1 6 0.5 10t-3 5.5t-8.5 2.5l-26 5l5 40h92l1 -25q3 -16 14 -16q6 0 22 9l52 32q55 6 83 6q104 0 135 -34.5t18 -135.5l-29 -239q-3 -16 11 -18l26 -5l-5 -40h-143l5 40l26 5q10 1 12.5 4.5t4.5 13.5l27 226q11 84 -9.5 108t-102.5 24 q-31 0 -67 -4t-57 -8l-20 -5l-42 -340q-1 -6 -0.5 -10t3 -5.5t8.5 -2.5l26 -5l-5 -40h-143z" />
<glyph unicode="o" horiz-adv-x="522" d="M78 232q10 78 22.5 121t40.5 71.5t68 37.5t110 9q133 0 166.5 -45t14.5 -194q-18 -149 -62.5 -194t-177.5 -45q-56 0 -90 6t-58.5 21.5t-31.5 42.5t-9.5 68.5t7.5 100.5zM145 232q-6 -46 -8 -73t1 -50.5t10 -34.5t23.5 -19t37.5 -10t57 -2q53 0 79.5 5t46 27t27 55 t15.5 102q6 46 8 73t-1 50.5t-10 34.5t-23.5 19t-37.5 10t-57 2q-53 0 -79.5 -5t-46 -27t-27 -55t-15.5 -102z" />
<glyph unicode="p" horiz-adv-x="537" d="M15 -199l4 39l27 5q9 2 12 5.5t4 12.5l66 539q1 10 -1 13t-10 5l-26 5l5 40h97l1 -25q0 -16 14 -16q7 0 21 9l52 32q46 6 87 6q71 0 107 -27.5t43 -80t-2 -129.5q-8 -64 -20 -105t-37 -74t-67 -47.5t-105 -14.5q-50 0 -144 18l-18 -147q-1 -10 1.5 -13.5t10.5 -4.5l25 -5 l-4 -40h-143zM149 57q62 -13 134 -13q46 0 73 7t47 29t29.5 57t17.5 97q11 73 3 114.5t-34.5 56.5t-85.5 15q-14 0 -29.5 -1t-29 -3t-26.5 -4t-23 -4t-18 -4l-12 -3l-4 -1z" />
<glyph unicode="q" horiz-adv-x="525" d="M78 232q7 57 18.5 95.5t34.5 73.5t63.5 52.5t98.5 17.5q44 0 99 -6t88 -12l33 -6l-72 -583q-1 -10 1.5 -13.5t10.5 -4.5l25 -5l-4 -40h-103l27 221q2 20 -15 20q-7 0 -19 -7l-55 -36q-41 -6 -83 -6q-73 0 -110 30.5t-41 83.5t3 125zM144 232q-14 -113 8.5 -150.5 t108.5 -37.5q31 0 66.5 5t55.5 10l20 5l42 344q-72 12 -137 12q-86 0 -118 -37.5t-46 -150.5z" />
<glyph unicode="r" horiz-adv-x="367" d="M49 0l5 39l26 5q15 3 17 18l41 340q1 6 0.5 10t-3 5.5t-8.5 2.5l-26 5l5 40h92l1 -25q3 -16 14 -16q6 0 22 9l52 32q55 6 83 6q39 0 63 -4l-11 -60q-36 5 -77 5q-37 0 -73 -2.5t-54 -5.5l-17 -2l-41 -339q-1 -6 -0.5 -10t3 -5.5t8.5 -2.5l26 -5l-5 -40h-143z" />
<glyph unicode="s" horiz-adv-x="508" d="M60 12l13 51q82 -17 182 -17q36 0 60 3t45.5 11.5t32.5 25.5t14 42q5 40 -7 55q-20 23 -134 24q-93 3 -120 13q-63 23 -51 117q10 75 56 104.5t150 29.5q39 0 82 -4.5t67 -8.5l23 -4l-13 -49q-90 14 -158 14q-82 0 -111 -18t-34 -58q-5 -43 6 -56q6 -7 15 -11.5t26 -6.5 t27.5 -2.5t37 -1t36.5 -0.5q49 -1 73 -4.5t52 -16t36.5 -40.5t3.5 -74q-10 -75 -58.5 -106t-164.5 -31q-45 0 -91.5 4.5t-71.5 9.5z" />
<glyph unicode="t" horiz-adv-x="338" d="M57 416l6 49h88l15 124h63l-15 -124h133l-6 -49h-133l-36 -295q-6 -48 7 -62.5t64 -14.5l52 5l1 -44q-51 -9 -83 -9q-77 0 -94.5 28t-7.5 117l34 275h-88z" />
<glyph unicode="u" horiz-adv-x="557" d="M96 425l5 40h103l-35 -288q-11 -84 9.5 -108.5t102.5 -24.5q31 0 65.5 5t53.5 9l19 5l41 339q1 6 0.5 10t-3 5.5t-8.5 2.5l-26 5l5 40h103l-49 -402q-1 -6 -0.5 -10t3 -5.5t8.5 -2.5l26 -5l-5 -40h-93l-1 25q0 16 -14 16q-8 0 -21 -9l-52 -32q-48 -7 -76 -7 q-103 0 -134 35t-19 136l29 238q1 6 0.5 10t-3 5.5t-8.5 2.5z" />
<glyph unicode="v" horiz-adv-x="510" d="M62 426l5 39h147l-5 -39l-26 -6q-18 -4 -14 -20l67 -321q3 -14 4.5 -19.5t6 -10.5t13.5 -5q13 0 19.5 7.5t15.5 27.5l140 321q9 16 -7 20l-26 5l5 40h150l-5 -39l-24 -6q-11 -3 -15.5 -6t-8.5 -12l-184 -402h-130l-86 402q-3 14 -18 18z" />
<glyph unicode="w" horiz-adv-x="779" d="M65 426l5 39h149l-5 -39l-26 -6q-16 -4 -14 -20l30 -321q3 -35 24 -35q13 0 20.5 8.5t14.5 26.5l129 376h107l41 -376q3 -35 26 -35q22 0 33 35l104 321q7 16 -7 20l-26 5l5 40h148l-5 -39l-24 -6q-19 -5 -24 -18l-148 -402h-132l-46 411q-2 6 -6 6q-3 0 -7 -6l-144 -411 h-128l-52 402q-1 13 -18 18z" />
<glyph unicode="x" horiz-adv-x="506" d="M20 0l5 39l27 6q11 3 23 18l139 179l-93 160q-9 15 -19 18l-24 6l5 39h148l-5 -39l-24 -6q-22 -3 -13 -23l67 -124q12 -21 26 -21q13 0 27 19l99 126q13 18 -5 23l-25 6l5 39h146l-5 -39l-26 -6q-4 -1 -7 -2t-5.5 -3t-3.5 -3t-4 -4.5t-4 -5.5l-127 -160l100 -179 q9 -15 19 -18l25 -6l-5 -39h-152l5 39l25 6q14 2 15 12q0 7 -3 13l-74 139q-9 16 -23 16t-27 -16l-107 -139q-6 -9 -6 -13q-1 -10 11 -12l24 -6l-5 -39h-149z" />
<glyph unicode="y" horiz-adv-x="541" d="M83 -185l13 49q56 -13 133 -13q51 0 80 6t46 25.5t23 43.5t12 74l2 18q4 21 -14 21q-7 0 -19 -8l-50 -32q-29 -6 -57 -6q-103 0 -134 35t-19 136l29 238q1 6 0.5 10t-3 5.5t-8.5 2.5l-26 5l5 40h143l-5 -39l-26 -5q-15 -4 -17 -18l-27 -226q-11 -84 9.5 -108.5 t102.5 -24.5q31 0 61.5 5t44.5 10l15 5l41 338q1 6 0.5 10t-3 5.5t-8.5 2.5l-26 5l5 40h143l-5 -39l-26 -5q-15 -4 -17 -18l-47 -383q-11 -94 -33 -138.5t-66 -62.5t-132 -18q-36 0 -71 3.5t-52 7.5z" />
<glyph unicode="z" horiz-adv-x="454" d="M47 0l13 108l326 274q11 10 10 21q0 13 -18 13h-287l6 49h359l-14 -115l-325 -268q-11 -7 -10.5 -19.5t19.5 -12.5h294l-6 -50h-367z" />
<glyph unicode="{" horiz-adv-x="294" d="M77 205l7 55q29 9 43.5 29.5t19.5 62.5l20 164q10 73 31 107q9 13 23 22.5t31.5 14.5t36.5 5h40l-7 -54q-50 0 -69 -21t-26 -76l-20 -166q-6 -48 -21.5 -73.5t-48.5 -42.5q29 -17 38 -42t3 -73l-20 -167q-7 -57 12 -79q15 -17 53 -17h6l-6 -53h-40q-29 0 -51 11t-29 30 q-15 32 -5 107l20 165q5 40 -4 60.5t-37 30.5z" />
<glyph unicode="|" horiz-adv-x="227" d="M63 -166l102 831h61l-102 -831h-61z" />
<glyph unicode="}" horiz-adv-x="294" d="M23 -199l6 53q39 0 60 14q29 21 36 83l20 167q6 47 21.5 73t47.5 42q-28 16 -37 42t-3 74l20 166q7 52 -7 74t-58 22h-7l7 54h40q28 0 50 -11.5t30 -30.5q14 -32 5 -107l-20 -164q-5 -41 4 -61.5t37 -30.5l-7 -55q-30 -10 -44 -30t-19 -61l-20 -165q-9 -71 -31 -107 q-12 -19 -37 -30t-54 -11h-40z" />
<glyph unicode="~" horiz-adv-x="564" d="M118 609q38 62 72 87.5t78 25.5q36 0 106 -35q66 -33 95 -33q28 0 50 15t50 55l39 -25q-34 -54 -66 -78q-42 -32 -87 -32q-40 0 -82 22l-55 27q-38 19 -63 19q-27 0 -50 -17.5t-50 -57.5z" />
<glyph unicode="&#xa1;" horiz-adv-x="256" d="M90 0l68 479h57l-49 -479h-76zM157 574l12 91h84l-12 -91h-84z" />
<glyph unicode="&#xa2;" d="M167 232q16 137 62.5 186t152.5 53l10 80h54l-10 -81q33 -1 66 -6t50 -9l16 -4l-13 -47q-70 16 -144 16q-97 0 -130.5 -34.5t-47.5 -153.5q-15 -119 10 -153.5t121 -34.5q33 0 70 4t58 8l20 4l3 -47q-63 -16 -138 -19l-10 -83h-54l10 82q-104 4 -138.5 53t-17.5 186z" />
<glyph unicode="&#xa3;" d="M84 0l6 52q38 10 53 38.5t25 106.5l8 65h-75l7 59h75l21 170q4 33 7.5 50.5t15.5 41.5t33 42q55 48 176 48q50 0 101 -5.5t77 -11.5l25 -5l-14 -54q-85 19 -167 19q-111 0 -151 -34q-5 -4 -9 -8.5t-7 -9.5t-5 -8.5t-4 -10.5t-3 -9.5t-2 -10.5t-1.5 -9.5t-1.5 -11.5 t-1 -11l-21 -172h208l-7 -59h-209l-11 -92q-5 -44 -17.5 -68.5t-45.5 -49.5l419 5l-7 -57h-498z" />
<glyph unicode="&#xa4;" d="M61 235l7 57h75q3 34 10 82h-75l7 57h78q27 136 82 187q34 31 88 43t136 12q103 0 230 -27l-17 -58q-131 23 -214 23q-66 0 -107 -8t-66 -30q-42 -37 -62 -142h288l-7 -57h-291q-4 -25 -5 -42q-4 -29 -5 -40h291l-7 -57h-288q-1 -34 1 -59.5t7.5 -45.5t17 -33t25.5 -22 t36.5 -14t48 -7t60.5 -2q45 0 98.5 5.5t84.5 10.5l31 6l3 -55q-118 -26 -232 -26q-78 0 -125 9.5t-78 37t-41 73.5t-7 122h-78z" />
<glyph unicode="&#xa5;" d="M157 626l5 40h151l-5 -39l-29 -5q-9 -1 -12.5 -8t-1.5 -14l86 -235q6 -16 18 -16q11 0 21 16l144 235q5 6 3 13.5t-11 8.5l-28 4l5 40h150l-5 -39l-27 -5q-4 -1 -6.5 -3t-4 -3.5t-3 -5t-2.5 -4.5l-99 -154h93l-7 -55h-120l-63 -98h126l-7 -55h-145l-22 -181 q-1 -10 1 -13.5t11 -4.5l25 -5l-5 -40h-139l5 40l26 5q10 1 12.5 4.5t4.5 13.5l22 181h-145l7 55h126l-37 98h-117l7 55h89l-59 154l-1 4q-1 4 -2 5.5t-3 3.5t-6 2z" />
<glyph unicode="&#xa6;" horiz-adv-x="227" d="M60 -166l39 319h68l-39 -319h-68zM121 334l41 331h68l-41 -331h-68z" />
<glyph unicode="&#xa7;" d="M123 -172l13 51q90 -18 168 -18q76 0 102 12q38 16 45 78q4 31 3 46.5t-10 26.5q-20 22 -107 55q-19 8 -47.5 18.5t-49.5 19t-43 19.5q-40 18 -49 50.5t1 74.5q11 98 108 121q-54 21 -64 50.5t-2 95.5q10 79 58 112t161 33q39 0 82 -4.5t67 -9.5l24 -5l-15 -53 q-91 19 -168 19q-25 0 -39.5 -1t-34.5 -5.5t-32 -13.5t-22 -26.5t-13 -42.5q-7 -58 7 -74q17 -19 107 -54q110 -44 140 -58q40 -18 47.5 -45.5t1.5 -79.5q-12 -94 -105 -120l14 -8q41 -24 49.5 -58t-1.5 -80q-6 -52 -25.5 -82t-66 -46.5t-127.5 -16.5q-43 0 -87 4.5t-67 9.5 zM218 271q-2 -21 -2 -37t9 -29.5t30 -21.5l141 -56q44 0 61 10q27 16 35 74q2 23 2 39t-9 28t-30 20l-141 56q-44 0 -61 -10q-28 -17 -35 -73z" />
<glyph unicode="&#xa8;" horiz-adv-x="349" d="M114 545l9 73h78l-9 -73h-78zM291 545l9 73h78l-9 -73h-78z" />
<glyph unicode="&#xa9;" horiz-adv-x="797" d="M99 334q10 78 20 128t29.5 91t43.5 62.5t66.5 36t93.5 19t129 4.5t127.5 -4.5t89 -19t58 -36t28 -62.5t8 -91t-11.5 -128q-10 -79 -20.5 -128.5t-30 -90.5t-43.5 -62.5t-66.5 -36t-93 -19t-129.5 -4.5q-78 0 -127.5 4.5t-88.5 19t-58 36t-28 62.5t-7.5 91t11.5 128z M139 334q-9 -74 -11 -120t7 -82.5t24 -54.5t51.5 -30t78 -14.5t113.5 -2.5t114 2.5t81.5 14.5t59 30t37.5 54.5t27.5 82.5t18.5 120t11 120t-7 82.5t-24.5 54.5t-51.5 30t-77.5 14.5t-113.5 2.5t-114 -2.5t-81.5 -14.5t-59.5 -30t-38 -54.5t-27 -82.5t-18 -120zM281 336 q8 63 19.5 100.5t34.5 58.5t53.5 28t82.5 7q23 0 47.5 -2.5t40 -5t28.5 -5.5t14 -3l-10 -43q-59 13 -127 13q-51 0 -73 -8.5t-35.5 -39t-22.5 -100.5q-5 -43 -5 -68.5t4 -42.5t18 -24t30.5 -9.5t47.5 -2.5q20 0 44 2t39.5 4t30.5 4t16 2l-1 -42q-64 -16 -133 -16 q-35 0 -57.5 2.5t-41.5 10.5t-29 21t-16 35t-5 52t6 72z" />
<glyph unicode="&#xaa;" horiz-adv-x="360" d="M71 312l5 40h295l-5 -40h-295zM99 483q6 47 28.5 64t77.5 18l111 2l4 30q3 26 -13 33t-52 7q-58 0 -114 -13l-2 35q84 14 120 14q57 0 85.5 -14.5t22.5 -63.5l-18 -146q-1 -9 7 -10l22 -5l-4 -31h-76l-1 14q0 9 -8 9q-5 0 -12 -5l-30 -18q-24 -4 -48 -4q-62 0 -84 17.5 t-16 66.5zM148 481q-2 -17 0 -26.5t11 -14.5t20 -6t33 -1q19 0 36 2t34 6t19 4l11 88l-87 -1q-7 0 -16.5 -0.5t-14.5 -1t-12 -1.5t-10.5 -2.5t-8 -5t-7 -9t-5 -13t-3.5 -18.5z" />
<glyph unicode="&#xab;" horiz-adv-x="409" d="M78 256l140 253l43 -30l-123 -223l79 -224l-48 -32zM227 256l139 253l44 -30l-124 -223l80 -224l-49 -32z" />
<glyph unicode="&#xac;" horiz-adv-x="523" d="M71 202l8 64h432l-33 -266h-68l25 202h-364z" />
<glyph unicode="&#xad;" horiz-adv-x="282" d="M73 210l8 65h188l-8 -65h-188z" />
<glyph unicode="&#xae;" horiz-adv-x="797" d="M99 334q10 78 20 128t29.5 91t43.5 62.5t66.5 36t93.5 19t129 4.5t127.5 -4.5t89 -19t58 -36t28 -62.5t8 -91t-11.5 -128q-10 -79 -20.5 -128.5t-30 -90.5t-43.5 -62.5t-66.5 -36t-93 -19t-129.5 -4.5q-78 0 -127.5 4.5t-88.5 19t-58 36t-28 62.5t-7.5 91t11.5 128z M139 334q-9 -74 -11 -120t7 -82.5t24 -54.5t51.5 -30t78 -14.5t113.5 -2.5t114 2.5t81.5 14.5t59 30t37.5 54.5t27.5 82.5t18.5 120t11 120t-7 82.5t-24.5 54.5t-51.5 30t-77.5 14.5t-113.5 2.5t-114 -2.5t-81.5 -14.5t-59.5 -30t-38 -54.5t-27 -82.5t-18 -120zM254 147 l4 33l26 5q4 0 7 8l35 287q0 7 -5 7l-24 5l4 33h211q65 0 89 -24t17 -82q-12 -92 -98 -99q-15 -2 -17 -12q0 -4 4 -12l54 -98q5 -9 21 -13l20 -5l-4 -33h-68l-68 126l5 43h-112l-15 -123q0 -8 5 -8l24 -5l-4 -33h-111zM360 355h117q48 0 66.5 14t22.5 51q4 39 -10.5 52 t-62.5 13h-117z" />
<glyph unicode="&#xaf;" horiz-adv-x="317" d="M115 551l6 55h223l-6 -55h-223z" />
<glyph unicode="&#xb0;" horiz-adv-x="384" d="M108 533q9 63 58.5 107t111.5 44t99.5 -44.5t29.5 -107.5t-56.5 -107.5t-110.5 -44.5q-63 0 -101.5 45t-30.5 108zM164 529q-4 -38 19.5 -64.5t60.5 -27.5q39 -1 70 26.5t36 66.5t-18.5 68t-62.5 29q-40 0 -70.5 -29t-34.5 -69z" />
<glyph unicode="&#xb1;" d="M116 0l8 63h419l-8 -63h-419zM157 336l8 63h178l24 198h62l-24 -198h178l-8 -63h-178l-24 -199h-62l24 199h-178z" />
<glyph unicode="&#xb2;" horiz-adv-x="433" d="M107 270l8 65q7 54 37.5 81.5t86.5 49.5l57 23q2 1 12.5 4.5t13 4.5t12 5t12 6.5t9.5 7t10 9l7 10.5t6 13t3 15q2 16 -2 27.5t-10.5 17.5t-20 9.5t-25.5 4t-31 0.5q-58 0 -135 -14l-1 45q67 15 138 15q27 0 45 -1.5t39.5 -7.5t33.5 -16.5t18.5 -31t3.5 -49.5 q-3 -23 -12 -41t-18 -28.5t-29.5 -21.5t-31 -15.5t-37.5 -14.5q-76 -28 -104 -48t-32 -57l-3 -21h242l-5 -46h-297z" />
<glyph unicode="&#xb3;" horiz-adv-x="433" d="M112 278l11 44q48 -12 126 -12q59 0 86 15t33 64q7 64 -58 64q-11 0 -25.5 -0.5t-25 -1t-11.5 -0.5l-15 64l119 86q7 7 7 12q0 7 -12 7h-197l5 46h265l-9 -69l-120 -87q-5 -3 -6 -8q0 -9 11 -8q1 0 9.5 0.5t13.5 0.5q116 3 102 -108q-9 -73 -56.5 -98t-124.5 -25 q-22 0 -45.5 2t-39 4.5t-29 5t-14.5 2.5z" />
<glyph unicode="&#xb4;" horiz-adv-x="245" d="M116 558l132 100l25 -48l-140 -88z" />
<glyph unicode="&#xb6;" horiz-adv-x="568" d="M110 461q10 87 37 134t75 62q24 8 108 8h235l-106 -864h-52l99 810h-79l-100 -810h-52l57 464h-41q-80 0 -117.5 11.5t-55.5 55.5q-19 40 -8 129z" />
<glyph unicode="&#xb7;" horiz-adv-x="250" d="M114 286l11 93h93l-11 -93h-93z" />
<glyph unicode="&#xb8;" horiz-adv-x="192" d="M-21 -170l15 32q30 -11 53 -11q64 0 69 39q4 31 -38 31q-22 0 -43 -8l-9 21l40 66h53l-50 -52l1 -2q23 7 47 7q28 0 42.5 -17.5t11.5 -45.5q-10 -76 -107 -76q-51 0 -85 16z" />
<glyph unicode="&#xb9;" horiz-adv-x="433" d="M161 269l6 48h77l37 301h-88l6 48h141l-43 -349h72l-6 -48h-202z" />
<glyph unicode="&#xba;" horiz-adv-x="360" d="M71 312l5 40h295l-5 -40h-295zM113 536q10 84 40.5 110.5t110.5 26.5q82 0 104 -27.5t12 -109.5q-11 -83 -40 -110t-110 -27t-104.5 27.5t-12.5 109.5zM160 536q-8 -68 4 -86t70 -18t74.5 18t24.5 86q9 69 -2.5 87t-70.5 18q-56 0 -74 -18t-26 -87z" />
<glyph unicode="&#xbb;" horiz-adv-x="409" d="M51 32l133 224l-68 223l50 30l78 -253l-153 -256zM200 32l132 224l-68 223l51 30l78 -253l-154 -256z" />
<glyph unicode="&#xbc;" horiz-adv-x="901" d="M130 269l6 48h77l37 301h-88l6 48h141l-43 -349h72l-6 -48h-202zM188 0l491 665h48l-492 -665h-47zM482 88l11 89l206 222h65l-211 -225q-12 -12 -13 -22q-1 -9 4.5 -13.5t15.5 -4.5h155l18 143h52l-18 -143h66l-6 -46h-65l-11 -88h-52l10 88h-227z" />
<glyph unicode="&#xbd;" horiz-adv-x="914" d="M130 269l6 48h77l37 301h-88l6 48h141l-43 -349h72l-6 -48h-202zM188 0l491 665h48l-492 -665h-47zM511 0l8 65q7 54 37.5 81.5t86.5 49.5l57 23q3 1 8 3q18 6 27 10.5t21.5 12.5t19 20t9.5 29q2 16 -2 27.5t-11 17.5t-20.5 9.5t-25 4t-30.5 0.5q-65 0 -135 -14l-1 45 q67 15 138 15q27 0 45 -1.5t39.5 -7.5t33.5 -16.5t18.5 -31t3.5 -49.5q-2 -16 -7.5 -30t-11 -24t-17 -19.5t-18.5 -14.5t-23.5 -12.5t-23.5 -10t-27 -10.5q-76 -28 -104 -48t-32 -57l-3 -22l242 1l-6 -46h-296z" />
<glyph unicode="&#xbe;" horiz-adv-x="916" d="M110 278l10 44q54 -12 127 -12q59 0 86 15t33 64q7 64 -58 64q-16 0 -40 -1l-23 -1l-14 64l119 86q7 7 7 12q0 7 -12 7h-198l6 46h265l-9 -69l-120 -87q-6 -4 -6 -8q0 -9 10 -8q1 0 10 0.5t14 0.5q116 3 102 -108q-9 -73 -56.5 -98t-124.5 -25q-22 0 -45.5 2t-39 4.5 t-29 5t-14.5 2.5zM259 0l490 665h48l-492 -665h-46zM533 88l11 89l206 222h66l-212 -225q-12 -14 -13 -22q-1 -9 4.5 -13.5t15.5 -4.5h155l18 143h52l-17 -143h65l-6 -46h-65l-11 -88h-52l11 88h-228z" />
<glyph unicode="&#xbf;" horiz-adv-x="518" d="M82 177q5 40 8.5 58.5t12 44t22.5 39t38 27.5t60 26q63 20 81.5 34t23.5 55l2 19h68l-2 -19q-8 -62 -34 -86.5t-109 -53.5q-67 -24 -82 -45t-24 -99q-5 -42 0 -66.5t25.5 -36.5t44.5 -15t69 -3q44 0 90 5t70 10l25 5l1 -53q-86 -23 -202 -23q-111 0 -156 36t-32 141z M334 582l12 91h84l-12 -91h-84z" />
<glyph unicode="&#xc0;" horiz-adv-x="724" d="M0 0l6 46l36 9q18 5 29 23l282 512q11 20 -8 23l-36 7l6 46h194l164 -588q4 -18 22 -23l35 -9l-6 -46h-173l5 46l31 6q13 3 16.5 8.5t-0.5 19.5l-36 122h-362l-66 -122q-6 -12 -6 -15q-1 -7 2.5 -9t12.5 -4l29 -6l-6 -46h-171zM233 256h319l-90 337q-2 10 -4 14t-6 7 t-11 3q-3 0 -5 -0.5l-4 -1t-3.5 -1t-3 -2.5t-2.5 -3t-2.5 -3.5t-2 -3.5t-2 -4.5t-2.5 -4.5zM375 800l38 48l107 -100l-25 -36z" />
<glyph unicode="&#xc1;" horiz-adv-x="724" d="M0 0l6 46l36 9q18 5 29 23l282 512q11 20 -8 23l-36 7l6 46h194l164 -588q4 -18 22 -23l35 -9l-6 -46h-173l5 46l31 6q13 3 16.5 8.5t-0.5 19.5l-36 122h-362l-66 -122q-6 -12 -6 -15q-1 -7 2.5 -9t12.5 -4l29 -6l-6 -46h-171zM233 256h319l-90 337q-2 10 -4 14t-6 7 t-11 3q-3 0 -5 -0.5l-4 -1t-3.5 -1t-3 -2.5t-2.5 -3t-2.5 -3.5t-2 -3.5t-2 -4.5t-2.5 -4.5zM381 748l132 100l25 -48l-140 -88z" />
<glyph unicode="&#xc2;" horiz-adv-x="724" d="M0 0l6 46l36 9q18 5 29 23l282 512q11 20 -8 23l-36 7l6 46h194l164 -588q4 -18 22 -23l35 -9l-6 -46h-173l5 46l31 6q13 3 16.5 8.5t-0.5 19.5l-36 122h-362l-66 -122q-6 -12 -6 -15q-1 -7 2.5 -9t12.5 -4l29 -6l-6 -46h-171zM233 256h319l-90 337q-2 10 -4 14t-6 7 t-11 3q-3 0 -5 -0.5l-4 -1t-3.5 -1t-3 -2.5t-2.5 -3t-2.5 -3.5t-2 -3.5t-2 -4.5t-2.5 -4.5zM333 746l129 102l103 -102l-30 -35l-81 74l-100 -74z" />
<glyph unicode="&#xc3;" horiz-adv-x="724" d="M0 0l6 46l36 9q18 5 29 23l282 512q11 20 -8 23l-36 7l6 46h194l164 -588q4 -18 22 -23l35 -9l-6 -46h-173l5 46l31 6q13 3 16.5 8.5t-0.5 19.5l-36 122h-362l-66 -122q-6 -12 -6 -15q-1 -7 2.5 -9t12.5 -4l29 -6l-6 -46h-171zM233 256h319l-90 337q-2 10 -4 14t-6 7 t-11 3q-3 0 -5 -0.5l-4 -1t-3.5 -1t-3 -2.5t-2.5 -3t-2.5 -3.5t-2 -3.5t-2 -4.5t-2.5 -4.5zM324 762q22 33 39.5 46.5t39.5 13.5q16 0 53 -19q36 -19 46 -19q17 0 38 37l33 -25q-39 -61 -79 -61q-19 0 -52 19q-34 18 -47 18q-11 0 -18.5 -7t-20.5 -28z" />
<glyph unicode="&#xc4;" horiz-adv-x="724" d="M0 0l6 46l36 9q18 5 29 23l282 512q11 20 -8 23l-36 7l6 46h194l164 -588q4 -18 22 -23l35 -9l-6 -46h-173l5 46l31 6q13 3 16.5 8.5t-0.5 19.5l-36 122h-362l-66 -122q-6 -12 -6 -15q-1 -7 2.5 -9t12.5 -4l29 -6l-6 -46h-171zM233 256h319l-90 337q-2 10 -4 14t-6 7 t-11 3q-3 0 -5 -0.5l-4 -1t-3.5 -1t-3 -2.5t-2.5 -3t-2.5 -3.5t-2 -3.5t-2 -4.5t-2.5 -4.5zM317 742l9 73h78l-9 -73h-78zM494 742l9 73h78l-9 -73h-78z" />
<glyph unicode="&#xc5;" horiz-adv-x="724" d="M0 0l6 46l36 9q18 5 29 23l282 512q11 20 -8 23l-36 7l6 46h194l164 -588q4 -18 22 -23l35 -9l-6 -46h-173l5 46l31 6q13 3 16.5 8.5t-0.5 19.5l-36 122h-362l-66 -122q-6 -12 -6 -15q-1 -7 2.5 -9t12.5 -4l29 -6l-6 -46h-171zM233 256h319l-90 337q-2 10 -4 14t-6 7 t-11 3q-3 0 -5 -0.5l-4 -1t-3.5 -1t-3 -2.5t-2.5 -3t-2.5 -3.5t-2 -3.5t-2 -4.5t-2.5 -4.5zM345 809q8 59 36 83.5t92 24.5t86 -24.5t15 -83.5q-8 -59 -36 -84t-92 -25t-86 25t-15 84zM394 809q-5 -41 5.5 -56.5t51.5 -15.5q40 0 54 15.5t20 55.5q5 41 -5.5 57t-51.5 16 q-40 0 -54 -15.5t-20 -56.5z" />
<glyph unicode="&#xc6;" horiz-adv-x="825" d="M0 0l6 46l36 9q16 4 29 23l312 512q13 20 -8 23l-36 7l6 46h513l-8 -58h-262l-30 -248h252l-7 -57h-252l-30 -245h262l-7 -58h-380l5 46l37 7q14 2 16 18l29 231q-51 0 -77 -1.5t-62 -8t-59 -21t-49 -41.5t-50 -67l-50 -83q-6 -10 -6 -15q-1 -7 2.5 -9t12.5 -4l29 -6 l-6 -46h-168zM272 306q62 55 218 55l26 212q5 40 -34 40q-11 0 -20 -5.5t-13.5 -11t-11.5 -17.5z" />
<glyph unicode="&#xc7;" horiz-adv-x="622" d="M101 333q14 116 36.5 182.5t61.5 101.5q60 56 223 56q103 0 230 -27l-17 -58q-131 23 -214 23q-130 0 -173 -38q-30 -27 -47.5 -82.5t-29.5 -158.5q-13 -101 -8.5 -156.5t28.5 -83.5q20 -23 59.5 -31.5t107.5 -8.5q45 0 98.5 5.5t84.5 10.5l31 6l3 -55q-100 -22 -205 -26 l-42 -45l2 -2q21 7 46 7q29 0 43 -17.5t11 -45.5q-10 -76 -107 -76q-50 0 -84 16l15 32q30 -11 52 -11q65 0 70 39q3 31 -38 31q-22 0 -44 -8l-8 21l34 59q-145 3 -190 56q-30 36 -36.5 103.5t7.5 180.5z" />
<glyph unicode="&#xc8;" horiz-adv-x="598" d="M64 0l6 46l37 7q14 2 16 18l64 524q2 16 -12 18l-35 7l6 46h485l-7 -58h-367l-30 -238h358l-7 -57h-358l-31 -255h367l-7 -58h-485zM325 800l38 48l107 -100l-25 -36z" />
<glyph unicode="&#xc9;" horiz-adv-x="598" d="M64 0l6 46l37 7q14 2 16 18l64 524q2 16 -12 18l-35 7l6 46h485l-7 -58h-367l-30 -238h358l-7 -57h-358l-31 -255h367l-7 -58h-485zM351 748l132 100l25 -48l-140 -88z" />
<glyph unicode="&#xca;" horiz-adv-x="598" d="M64 0l6 46l37 7q14 2 16 18l64 524q2 16 -12 18l-35 7l6 46h485l-7 -58h-367l-30 -238h358l-7 -57h-358l-31 -255h367l-7 -58h-485zM304 746l129 102l103 -102l-30 -35l-81 74l-100 -74z" />
<glyph unicode="&#xcb;" horiz-adv-x="598" d="M64 0l6 46l37 7q14 2 16 18l64 524q2 16 -12 18l-35 7l6 46h485l-7 -58h-367l-30 -238h358l-7 -57h-358l-31 -255h367l-7 -58h-485zM280 742l9 73h78l-9 -73h-78zM457 742l9 73h78l-9 -73h-78z" />
<glyph unicode="&#xcc;" horiz-adv-x="296" d="M64 0l6 46l37 7q14 2 16 18l64 524q2 16 -12 18l-35 7l6 46h168l-6 -46l-37 -7q-14 -2 -16 -18l-64 -524q-2 -16 12 -18l35 -7l-6 -46h-168zM155 800l38 48l107 -100l-25 -36z" />
<glyph unicode="&#xcd;" horiz-adv-x="296" d="M64 0l6 46l37 7q14 2 16 18l64 524q2 16 -12 18l-35 7l6 46h168l-6 -46l-37 -7q-14 -2 -16 -18l-64 -524q-2 -16 12 -18l35 -7l-6 -46h-168zM161 748l132 100l25 -48l-140 -88z" />
<glyph unicode="&#xce;" horiz-adv-x="296" d="M64 0l6 46l37 7q14 2 16 18l64 524q2 16 -12 18l-35 7l6 46h168l-6 -46l-37 -7q-14 -2 -16 -18l-64 -524q-2 -16 12 -18l35 -7l-6 -46h-168zM123 746l129 102l103 -102l-30 -35l-81 74l-100 -74z" />
<glyph unicode="&#xcf;" horiz-adv-x="296" d="M64 0l6 46l37 7q14 2 16 18l64 524q2 16 -12 18l-35 7l6 46h168l-6 -46l-37 -7q-14 -2 -16 -18l-64 -524q-2 -16 12 -18l35 -7l-6 -46h-168zM106 742l9 73h78l-9 -73h-78zM283 742l9 73h78l-9 -73h-78z" />
<glyph unicode="&#xd0;" horiz-adv-x="745" d="M72 0l6 46l37 7q14 2 16 18l29 242h-67l7 57h67l28 225q2 16 -12 18l-35 7l6 46h344q91 0 144.5 -23.5t72.5 -66.5t21 -104.5t-10 -137.5q-6 -49 -12 -82.5t-16.5 -72t-25 -63t-37.5 -48.5t-53 -37.5t-71.5 -22t-94.5 -8.5h-344zM197 58h221q33 0 61 4.5t48.5 10.5 t37.5 19.5t28.5 24.5t21.5 33t15 37t10.5 44.5t8 47.5l7.5 54q4 31 6 48.5t4 44t1 41t-3.5 35.5t-9 32t-15.5 25t-23 21.5t-32.5 14.5t-43 10t-54.5 3h-221l-30 -238h235l-7 -57h-235z" />
<glyph unicode="&#xd1;" horiz-adv-x="807" d="M64 0l6 46l37 7q14 2 16 18l64 524q2 16 -12 18l-35 7l6 46h198l251 -592q7 -18 21 -18q13 0 17.5 6.5t6.5 20.5l63 512q2 16 -12 18l-35 7l6 46h163l-6 -46l-37 -7q-14 -2 -16 -18l-73 -595h-146l-252 597q-8 19 -21 19q-22 0 -25 -27l-63 -518q-2 -16 12 -18l35 -7 l-6 -46h-163zM371 762q22 33 39.5 46.5t39.5 13.5q16 0 53 -19q36 -19 46 -19q17 0 38 37l33 -25q-39 -61 -79 -61q-19 0 -52 19q-34 18 -47 18q-11 0 -18.5 -7t-20.5 -28z" />
<glyph unicode="&#xd2;" horiz-adv-x="673" d="M101 332q10 78 19.5 128t26 91t36.5 62.5t55.5 36t76.5 19t105 4.5q65 0 107.5 -5t72.5 -22t44.5 -38t19.5 -64t2 -89t-12 -123q-9 -76 -17.5 -122.5t-24 -89t-35.5 -63.5t-54 -37.5t-77.5 -21.5t-108.5 -5t-107.5 5.5t-73 22t-45 38t-20 64t-2.5 88.5t12 121zM171 332 q-8 -68 -11 -106.5t0.5 -74.5t13.5 -52.5t33.5 -29t54.5 -16t82 -3.5q52 0 84.5 3t58.5 17t39.5 29t25.5 53t17.5 74t14.5 106q18 115 13 178t-43 84.5t-141 21.5q-50 0 -80.5 -3t-57.5 -14.5t-41.5 -28t-27 -51.5t-20 -76.5t-15.5 -110.5zM355 800l38 48l107 -100l-25 -36z " />
<glyph unicode="&#xd3;" horiz-adv-x="673" d="M101 332q10 78 19.5 128t26 91t36.5 62.5t55.5 36t76.5 19t105 4.5q65 0 107.5 -5t72.5 -22t44.5 -38t19.5 -64t2 -89t-12 -123q-9 -76 -17.5 -122.5t-24 -89t-35.5 -63.5t-54 -37.5t-77.5 -21.5t-108.5 -5t-107.5 5.5t-73 22t-45 38t-20 64t-2.5 88.5t12 121zM171 332 q-8 -68 -11 -106.5t0.5 -74.5t13.5 -52.5t33.5 -29t54.5 -16t82 -3.5q52 0 84.5 3t58.5 17t39.5 29t25.5 53t17.5 74t14.5 106q18 115 13 178t-43 84.5t-141 21.5q-50 0 -80.5 -3t-57.5 -14.5t-41.5 -28t-27 -51.5t-20 -76.5t-15.5 -110.5zM351 748l132 100l25 -48l-140 -88 z" />
<glyph unicode="&#xd4;" horiz-adv-x="673" d="M101 332q10 78 19.5 128t26 91t36.5 62.5t55.5 36t76.5 19t105 4.5q65 0 107.5 -5t72.5 -22t44.5 -38t19.5 -64t2 -89t-12 -123q-9 -76 -17.5 -122.5t-24 -89t-35.5 -63.5t-54 -37.5t-77.5 -21.5t-108.5 -5t-107.5 5.5t-73 22t-45 38t-20 64t-2.5 88.5t12 121zM171 332 q-8 -68 -11 -106.5t0.5 -74.5t13.5 -52.5t33.5 -29t54.5 -16t82 -3.5q52 0 84.5 3t58.5 17t39.5 29t25.5 53t17.5 74t14.5 106q18 115 13 178t-43 84.5t-141 21.5q-50 0 -80.5 -3t-57.5 -14.5t-41.5 -28t-27 -51.5t-20 -76.5t-15.5 -110.5zM314 746l129 102l103 -102 l-30 -35l-81 74l-100 -74z" />
<glyph unicode="&#xd5;" horiz-adv-x="673" d="M101 332q10 78 19.5 128t26 91t36.5 62.5t55.5 36t76.5 19t105 4.5q65 0 107.5 -5t72.5 -22t44.5 -38t19.5 -64t2 -89t-12 -123q-9 -76 -17.5 -122.5t-24 -89t-35.5 -63.5t-54 -37.5t-77.5 -21.5t-108.5 -5t-107.5 5.5t-73 22t-45 38t-20 64t-2.5 88.5t12 121zM171 332 q-8 -68 -11 -106.5t0.5 -74.5t13.5 -52.5t33.5 -29t54.5 -16t82 -3.5q52 0 84.5 3t58.5 17t39.5 29t25.5 53t17.5 74t14.5 106q18 115 13 178t-43 84.5t-141 21.5q-50 0 -80.5 -3t-57.5 -14.5t-41.5 -28t-27 -51.5t-20 -76.5t-15.5 -110.5zM301 762q22 33 39.5 46.5 t39.5 13.5q16 0 53 -19q36 -19 46 -19q17 0 38 37l33 -25q-39 -61 -79 -61q-19 0 -52 19q-34 18 -47 18q-11 0 -18.5 -7t-20.5 -28z" />
<glyph unicode="&#xd6;" horiz-adv-x="673" d="M101 332q10 78 19.5 128t26 91t36.5 62.5t55.5 36t76.5 19t105 4.5q65 0 107.5 -5t72.5 -22t44.5 -38t19.5 -64t2 -89t-12 -123q-9 -76 -17.5 -122.5t-24 -89t-35.5 -63.5t-54 -37.5t-77.5 -21.5t-108.5 -5t-107.5 5.5t-73 22t-45 38t-20 64t-2.5 88.5t12 121zM171 332 q-8 -68 -11 -106.5t0.5 -74.5t13.5 -52.5t33.5 -29t54.5 -16t82 -3.5q52 0 84.5 3t58.5 17t39.5 29t25.5 53t17.5 74t14.5 106q18 115 13 178t-43 84.5t-141 21.5q-50 0 -80.5 -3t-57.5 -14.5t-41.5 -28t-27 -51.5t-20 -76.5t-15.5 -110.5zM294 742l9 73h78l-9 -73h-78z M471 742l9 73h78l-9 -73h-78z" />
<glyph unicode="&#xd7;" d="M154 167l169 165l-128 165l48 46l129 -164l170 164l37 -45l-171 -166l130 -165l-48 -46l-129 165l-170 -165z" />
<glyph unicode="&#xd8;" horiz-adv-x="673" d="M101 332q10 78 19.5 128t26 91t36.5 62.5t55.5 36t76.5 19t105 4.5q65 0 107.5 -5t72.5 -22t44.5 -38t19.5 -64t2 -89t-12 -123q-9 -76 -17.5 -122.5t-24 -89t-35.5 -63.5t-54 -37.5t-77.5 -21.5t-108.5 -5t-107.5 5.5t-73 22t-45 38t-20 64t-2.5 88.5t12 121zM160 183 l429 366q-12 38 -51.5 52.5t-124.5 14.5q-50 0 -80.5 -3t-57.5 -14.5t-41.5 -28t-27 -51.5t-20 -76.5t-15.5 -110.5q-11 -85 -11 -149zM166 121q12 -42 51.5 -56.5t126.5 -14.5q52 0 84.5 3t58.5 17t39.5 29t25.5 53t17.5 74t14.5 106q12 108 12 153z" />
<glyph unicode="&#xd9;" horiz-adv-x="766" d="M144 620l6 46h168l-6 -46l-37 -7q-14 -2 -16 -18l-44 -363q-14 -115 13.5 -148t140.5 -33q56 0 112.5 6.5t84.5 13.5l29 7l63 517q2 16 -12 18l-35 7l6 46h168l-6 -46l-37 -7q-14 -2 -16 -18l-64 -524q-2 -16 12 -18l35 -7l-6 -46h-108l-2 35q0 16 -14 16q-9 0 -21 -7 l-68 -41q-65 -10 -134 -10q-146 0 -187 47.5t-23 187.5l45 367q2 16 -12 18zM395 800l38 48l107 -100l-25 -36z" />
<glyph unicode="&#xda;" horiz-adv-x="766" d="M144 620l6 46h168l-6 -46l-37 -7q-14 -2 -16 -18l-44 -363q-14 -115 13.5 -148t140.5 -33q56 0 112.5 6.5t84.5 13.5l29 7l63 517q2 16 -12 18l-35 7l6 46h168l-6 -46l-37 -7q-14 -2 -16 -18l-64 -524q-2 -16 12 -18l35 -7l-6 -46h-108l-2 35q0 16 -14 16q-9 0 -21 -7 l-68 -41q-65 -10 -134 -10q-146 0 -187 47.5t-23 187.5l45 367q2 16 -12 18zM411 748l132 100l25 -48l-140 -88z" />
<glyph unicode="&#xdb;" horiz-adv-x="766" d="M144 620l6 46h168l-6 -46l-37 -7q-14 -2 -16 -18l-44 -363q-14 -115 13.5 -148t140.5 -33q56 0 112.5 6.5t84.5 13.5l29 7l63 517q2 16 -12 18l-35 7l6 46h168l-6 -46l-37 -7q-14 -2 -16 -18l-64 -524q-2 -16 12 -18l35 -7l-6 -46h-108l-2 35q0 16 -14 16q-9 0 -21 -7 l-68 -41q-65 -10 -134 -10q-146 0 -187 47.5t-23 187.5l45 367q2 16 -12 18zM364 746l129 102l103 -102l-30 -35l-81 74l-100 -74z" />
<glyph unicode="&#xdc;" horiz-adv-x="766" d="M144 620l6 46h168l-6 -46l-37 -7q-14 -2 -16 -18l-44 -363q-14 -115 13.5 -148t140.5 -33q56 0 112.5 6.5t84.5 13.5l29 7l63 517q2 16 -12 18l-35 7l6 46h168l-6 -46l-37 -7q-14 -2 -16 -18l-64 -524q-2 -16 12 -18l35 -7l-6 -46h-108l-2 35q0 16 -14 16q-9 0 -21 -7 l-68 -41q-65 -10 -134 -10q-146 0 -187 47.5t-23 187.5l45 367q2 16 -12 18zM344 742l9 73h78l-9 -73h-78zM521 742l9 73h78l-9 -73h-78z" />
<glyph unicode="&#xdd;" horiz-adv-x="620" d="M100 620l6 46h168l-6 -46l-37 -7q-14 -2 -16 -18l-22 -183q-11 -90 18.5 -116.5t140.5 -26.5q39 0 89 10.5t68 16.5l37 299q2 16 -12 18l-35 7l6 46h168l-6 -46l-37 -7q-14 -2 -16 -18l-49 -401q-6 -46 -12 -72t-22 -54.5t-42.5 -42.5t-72.5 -23t-113 -9q-51 0 -99 4.5 t-70 8.5l-23 5l15 54q73 -15 185 -15q62 0 97.5 7t54 28.5t24 41.5t10.5 66l7 55q2 21 -15 21q-6 0 -18 -8l-68 -43q-50 -7 -96 -7q-122 0 -159 43.5t-24 152.5l23 188q2 16 -12 18zM341 748l132 100l25 -48l-140 -88z" />
<glyph unicode="&#xde;" horiz-adv-x="672" d="M64 0l6 46l37 7q14 2 16 18l64 524q2 16 -12 18l-35 7l6 46h168l-6 -46l-37 -7q-14 -2 -16 -18l-6 -48h251q189 0 165 -200q-3 -24 -5 -38t-9 -41t-16 -44t-25 -39t-37 -34.5t-52.5 -21.5t-70.5 -9h-64l-106 4l-44 33q-12 8 -18 8q-16 0 -18 -19l-9 -75q-2 -16 12 -18 l35 -7l-6 -46h-168zM205 189q57 -12 190 -12q54 0 82 3.5t55.5 19t40.5 48t20 89.5q11 90 -21.5 121t-114.5 31h-215z" />
<glyph unicode="&#xdf;" horiz-adv-x="515" d="M32 0l5 39l26 5q15 3 17 18l56 461q11 90 51.5 120t146.5 30q105 0 137.5 -29.5t21.5 -120.5q-11 -93 -84 -113q-21 -7 -22 -16q-1 -11 12 -14q73 -19 87.5 -53.5t2.5 -129.5q-15 -118 -57.5 -157.5t-144.5 -39.5h-64l5 41l42 4q37 4 55.5 7t38.5 12t29 25.5t17 43 t13 69.5q4 36 5 60t-4 41.5t-12.5 27.5t-23.5 16.5t-33 8.5t-46 4l-29 2l6 45l29 4q53 7 79.5 30.5t33.5 81.5q8 65 -12 82t-89 17t-94.5 -17.5t-33.5 -81.5l-64 -523h-103z" />
<glyph unicode="&#xe0;" horiz-adv-x="537" d="M78 232q7 57 18.5 95.5t34.5 73.5t63.5 52.5t98.5 17.5q44 0 99 -6t88 -12l33 -6l-47 -384q-1 -6 -0.5 -10t3 -5.5t8.5 -2.5l26 -5l-5 -40h-98l-1 25q-3 16 -15 16q-5 0 -21 -9l-51 -32q-44 -7 -86 -7q-73 0 -110 30.5t-41 83.5t3 125zM144 232q-14 -113 8.5 -150.5 t108.5 -37.5q31 0 66.5 5t55.5 10l20 5l42 344q-72 12 -137 12q-86 0 -118 -37.5t-46 -150.5zM282 610l38 48l107 -100l-25 -36z" />
<glyph unicode="&#xe1;" horiz-adv-x="537" d="M78 232q7 57 18.5 95.5t34.5 73.5t63.5 52.5t98.5 17.5q44 0 99 -6t88 -12l33 -6l-47 -384q-1 -6 -0.5 -10t3 -5.5t8.5 -2.5l26 -5l-5 -40h-98l-1 25q-3 16 -15 16q-5 0 -21 -9l-51 -32q-44 -7 -86 -7q-73 0 -110 30.5t-41 83.5t3 125zM144 232q-14 -113 8.5 -150.5 t108.5 -37.5q31 0 66.5 5t55.5 10l20 5l42 344q-72 12 -137 12q-86 0 -118 -37.5t-46 -150.5zM276 558l132 100l25 -48l-140 -88z" />
<glyph unicode="&#xe2;" horiz-adv-x="537" d="M78 232q7 57 18.5 95.5t34.5 73.5t63.5 52.5t98.5 17.5q44 0 99 -6t88 -12l33 -6l-47 -384q-1 -6 -0.5 -10t3 -5.5t8.5 -2.5l26 -5l-5 -40h-98l-1 25q-3 16 -15 16q-5 0 -21 -9l-51 -32q-44 -7 -86 -7q-73 0 -110 30.5t-41 83.5t3 125zM144 232q-14 -113 8.5 -150.5 t108.5 -37.5q31 0 66.5 5t55.5 10l20 5l42 344q-72 12 -137 12q-86 0 -118 -37.5t-46 -150.5zM225 557l130 102l102 -102l-29 -35l-81 74l-100 -74z" />
<glyph unicode="&#xe3;" horiz-adv-x="537" d="M78 232q7 57 18.5 95.5t34.5 73.5t63.5 52.5t98.5 17.5q44 0 99 -6t88 -12l33 -6l-47 -384q-1 -6 -0.5 -10t3 -5.5t8.5 -2.5l26 -5l-5 -40h-98l-1 25q-3 16 -15 16q-5 0 -21 -9l-51 -32q-44 -7 -86 -7q-73 0 -110 30.5t-41 83.5t3 125zM144 232q-14 -113 8.5 -150.5 t108.5 -37.5q31 0 66.5 5t55.5 10l20 5l42 344q-72 12 -137 12q-86 0 -118 -37.5t-46 -150.5zM216 562q22 33 39.5 46.5t39.5 13.5q18 0 53 -19q36 -19 47 -19q16 0 37 37l33 -25q-39 -61 -78 -61q-18 0 -53 19q-34 18 -47 18q-11 0 -18.5 -7t-19.5 -28z" />
<glyph unicode="&#xe4;" horiz-adv-x="537" d="M78 232q7 57 18.5 95.5t34.5 73.5t63.5 52.5t98.5 17.5q44 0 99 -6t88 -12l33 -6l-47 -384q-1 -6 -0.5 -10t3 -5.5t8.5 -2.5l26 -5l-5 -40h-98l-1 25q-3 16 -15 16q-5 0 -21 -9l-51 -32q-44 -7 -86 -7q-73 0 -110 30.5t-41 83.5t3 125zM144 232q-14 -113 8.5 -150.5 t108.5 -37.5q31 0 66.5 5t55.5 10l20 5l42 344q-72 12 -137 12q-86 0 -118 -37.5t-46 -150.5zM214 545l9 73h78l-9 -73h-78zM391 545l9 73h78l-9 -73h-78z" />
<glyph unicode="&#xe5;" horiz-adv-x="537" d="M78 232q7 57 18.5 95.5t34.5 73.5t63.5 52.5t98.5 17.5q44 0 99 -6t88 -12l33 -6l-47 -384q-1 -6 -0.5 -10t3 -5.5t8.5 -2.5l26 -5l-5 -40h-98l-1 25q-3 16 -15 16q-5 0 -21 -9l-51 -32q-44 -7 -86 -7q-73 0 -110 30.5t-41 83.5t3 125zM144 232q-14 -113 8.5 -150.5 t108.5 -37.5q31 0 66.5 5t55.5 10l20 5l42 344q-72 12 -137 12q-86 0 -118 -37.5t-46 -150.5zM257 596q6 49 29.5 69.5t76.5 20.5t71.5 -20.5t12.5 -69.5q-6 -50 -29.5 -70.5t-76.5 -20.5t-71.5 20.5t-12.5 70.5zM298 596q-4 -34 4.5 -47t42.5 -13t45.5 13t15.5 47 q5 34 -3.5 47t-42.5 13t-46 -13t-16 -47z" />
<glyph unicode="&#xe6;" horiz-adv-x="856" d="M63 136q9 79 47 104t126 27l179 3l5 37q9 71 -16 92t-97 21q-42 0 -87 -5.5t-68 -10.5l-24 -6l-4 50q84 23 188 23q75 0 108 -15.5t47 -53.5q20 23 37.5 35.5t56 23t94.5 10.5q137 0 168 -47q30 -44 16 -154q-1 -11 -8 -54q-136 -8 -156 -8l-138 3l-28 22q-11 7 -17 7 q-4 0 -7 -1t-5 -3t-3.5 -4t-2.5 -5.5t-1.5 -5.5t-1 -6.5t-0.5 -5.5q-11 -95 15 -127q30 -38 125 -38q40 0 81.5 4t63.5 8l21 4l3 -47q-68 -20 -171 -20q-111 0 -155 33l-8.5 8.5l-8 8t-9.5 4.5t-13 -4l-66 -40q-40 -10 -122 -10q-104 0 -139 31.5t-25 111.5zM129 135 q-3 -25 1 -42.5t12.5 -27t25.5 -14.5t33 -6t43 -1q107 0 172 24q-22 52 -9 155l-130 -3h-30.5t-28 -0.5t-23 -2t-21.5 -5t-16 -9.5t-14 -15t-8.5 -22t-6.5 -31zM479 266q30 -5 67.5 -7t59.5 -2h22q87 0 143 4q5 37 5.5 62t-4 43.5t-12 29t-23.5 16.5t-34 7.5t-48 1.5 q-100 0 -131 -26q-32 -27 -42 -101z" />
<glyph unicode="&#xe7;" horiz-adv-x="465" d="M78 232q18 144 69 191.5t172 47.5q39 0 79 -5t61 -10l21 -5l-13 -47q-70 16 -144 16q-97 0 -130.5 -34.5t-47.5 -153.5q-15 -119 10 -153.5t121 -34.5q33 0 70 4t58 8l20 4l2 -47q-65 -17 -142 -20l-40 -45l1 -2q21 7 46 7q29 0 43.5 -17.5t10.5 -45.5q-9 -76 -107 -76 q-50 0 -84 16l15 32q30 -11 52 -11q65 0 70 39q3 31 -38 31q-22 0 -43 -8l-9 21l34 59q-104 4 -138.5 53t-18.5 186z" />
<glyph unicode="&#xe8;" horiz-adv-x="527" d="M79 232q11 101 43 157q25 46 73 64t131 18q136 0 168 -47q30 -44 16 -154q-3 -24 -9 -54q-136 -8 -155 -8l-138 4l-28 21q-10 7 -17 7q-19 0 -21 -31q-13 -92 14 -127q29 -37 125 -37q41 0 82.5 4t62.5 8l22 4l3 -48q-68 -20 -171 -20q-36 0 -61 2t-50.5 8.5t-40.5 17.5 t-29.5 28.5t-18 43t-6.5 60t5 79.5zM150 266q30 -5 67 -7t59 -2h23q82 -2 143 4q5 37 5.5 62t-4 43.5t-12 29t-24 16.5t-34.5 7.5t-48 1.5q-28 0 -48.5 -1t-37.5 -5.5t-28 -8.5t-20 -14.5t-14.5 -19t-10.5 -28t-8 -34.5t-8 -44zM272 610l38 48l107 -100l-25 -36z" />
<glyph unicode="&#xe9;" horiz-adv-x="527" d="M79 232q11 101 43 157q25 46 73 64t131 18q136 0 168 -47q30 -44 16 -154q-3 -24 -9 -54q-136 -8 -155 -8l-138 4l-28 21q-10 7 -17 7q-19 0 -21 -31q-13 -92 14 -127q29 -37 125 -37q41 0 82.5 4t62.5 8l22 4l3 -48q-68 -20 -171 -20q-36 0 -61 2t-50.5 8.5t-40.5 17.5 t-29.5 28.5t-18 43t-6.5 60t5 79.5zM150 266q30 -5 67 -7t59 -2h23q82 -2 143 4q5 37 5.5 62t-4 43.5t-12 29t-24 16.5t-34.5 7.5t-48 1.5q-28 0 -48.5 -1t-37.5 -5.5t-28 -8.5t-20 -14.5t-14.5 -19t-10.5 -28t-8 -34.5t-8 -44zM276 558l132 100l25 -48l-140 -88z" />
<glyph unicode="&#xea;" horiz-adv-x="527" d="M79 232q11 101 43 157q25 46 73 64t131 18q136 0 168 -47q30 -44 16 -154q-3 -24 -9 -54q-136 -8 -155 -8l-138 4l-28 21q-10 7 -17 7q-19 0 -21 -31q-13 -92 14 -127q29 -37 125 -37q41 0 82.5 4t62.5 8l22 4l3 -48q-68 -20 -171 -20q-36 0 -61 2t-50.5 8.5t-40.5 17.5 t-29.5 28.5t-18 43t-6.5 60t5 79.5zM150 266q30 -5 67 -7t59 -2h23q82 -2 143 4q5 37 5.5 62t-4 43.5t-12 29t-24 16.5t-34.5 7.5t-48 1.5q-28 0 -48.5 -1t-37.5 -5.5t-28 -8.5t-20 -14.5t-14.5 -19t-10.5 -28t-8 -34.5t-8 -44zM225 557l130 102l102 -102l-29 -35l-81 74 l-100 -74z" />
<glyph unicode="&#xeb;" horiz-adv-x="527" d="M79 232q11 101 43 157q25 46 73 64t131 18q136 0 168 -47q30 -44 16 -154q-3 -24 -9 -54q-136 -8 -155 -8l-138 4l-28 21q-10 7 -17 7q-19 0 -21 -31q-13 -92 14 -127q29 -37 125 -37q41 0 82.5 4t62.5 8l22 4l3 -48q-68 -20 -171 -20q-36 0 -61 2t-50.5 8.5t-40.5 17.5 t-29.5 28.5t-18 43t-6.5 60t5 79.5zM150 266q30 -5 67 -7t59 -2h23q82 -2 143 4q5 37 5.5 62t-4 43.5t-12 29t-24 16.5t-34.5 7.5t-48 1.5q-28 0 -48.5 -1t-37.5 -5.5t-28 -8.5t-20 -14.5t-14.5 -19t-10.5 -28t-8 -34.5t-8 -44zM194 545l9 73h78l-9 -73h-78zM371 545l9 73 h78l-9 -73h-78z" />
<glyph unicode="&#xec;" horiz-adv-x="236" d="M49 0l5 39l26 5q15 3 17 18l41 340q1 6 0.5 10t-3 5.5t-8.5 2.5l-26 5l5 40h103l-49 -402q-1 -6 -0.5 -10t3 -5.5t8.5 -2.5l26 -5l-5 -40h-143zM92 610l38 48l107 -100l-25 -36z" />
<glyph unicode="&#xed;" horiz-adv-x="236" d="M49 0l5 39l26 5q15 3 17 18l41 340q1 6 0.5 10t-3 5.5t-8.5 2.5l-26 5l5 40h103l-49 -402q-1 -6 -0.5 -10t3 -5.5t8.5 -2.5l26 -5l-5 -40h-143zM99 558l132 100l25 -48l-140 -88z" />
<glyph unicode="&#xee;" horiz-adv-x="236" d="M49 0l5 39l26 5q15 3 17 18l41 340q1 6 0.5 10t-3 5.5t-8.5 2.5l-26 5l5 40h103l-49 -402q-1 -6 -0.5 -10t3 -5.5t8.5 -2.5l26 -5l-5 -40h-143zM55 557l130 102l102 -102l-29 -35l-81 74l-100 -74z" />
<glyph unicode="&#xef;" horiz-adv-x="236" d="M44 545l9 73h78l-9 -73h-78zM49 0l5 39l26 5q15 3 17 18l41 340q1 6 0.5 10t-3 5.5t-8.5 2.5l-26 5l5 40h103l-49 -402q-1 -6 -0.5 -10t3 -5.5t8.5 -2.5l26 -5l-5 -40h-143zM221 545l9 73h78l-9 -73h-78z" />
<glyph unicode="&#xf0;" horiz-adv-x="513" d="M78 232q10 78 22.5 121t39.5 71.5t66.5 37.5t108.5 9q40 0 72 -11l-73 114l-82 -47l-13 35l75 43l-39 61h63l28 -44l64 37l13 -34l-57 -33l108 -166q35 -53 18 -194q-18 -149 -62 -194t-174 -45q-55 0 -88.5 6.5t-56.5 20.5t-31.5 43t-9 68t7.5 101zM145 232 q-6 -46 -8 -73t1 -50.5t9.5 -34.5t23 -19t37 -10t54.5 -2q51 0 77 5t45 27t26 55t16 102q6 46 8 73t-1 50.5t-10 34.5t-23.5 19t-37 10t-54.5 2t-55 -2t-39 -10t-27.5 -19t-18 -34.5t-13.5 -50.5t-10 -73z" />
<glyph unicode="&#xf1;" horiz-adv-x="565" d="M49 0l5 39l26 5q15 3 17 18l41 340q1 6 0.5 10t-3 5.5t-8.5 2.5l-26 5l5 40h92l1 -25q3 -16 14 -16q6 0 22 9l52 32q55 6 83 6q104 0 135 -34.5t18 -135.5l-29 -239q-3 -16 11 -18l26 -5l-5 -40h-143l5 40l26 5q10 1 12.5 4.5t4.5 13.5l27 226q11 84 -9.5 108t-102.5 24 q-31 0 -67 -4t-57 -8l-20 -5l-42 -340q-1 -6 -0.5 -10t3 -5.5t8.5 -2.5l26 -5l-5 -40h-143zM226 562q22 33 39.5 46.5t39.5 13.5q18 0 53 -19q36 -19 47 -19q16 0 37 37l33 -25q-39 -61 -78 -61q-18 0 -53 19q-34 18 -47 18q-11 0 -18.5 -7t-19.5 -28z" />
<glyph unicode="&#xf2;" horiz-adv-x="522" d="M78 232q10 78 22.5 121t40.5 71.5t68 37.5t110 9q133 0 166.5 -45t14.5 -194q-18 -149 -62.5 -194t-177.5 -45q-56 0 -90 6t-58.5 21.5t-31.5 42.5t-9.5 68.5t7.5 100.5zM145 232q-6 -46 -8 -73t1 -50.5t10 -34.5t23.5 -19t37.5 -10t57 -2q53 0 79.5 5t46 27t27 55 t15.5 102q6 46 8 73t-1 50.5t-10 34.5t-23.5 19t-37.5 10t-57 2q-53 0 -79.5 -5t-46 -27t-27 -55t-15.5 -102zM252 610l38 48l107 -100l-25 -36z" />
<glyph unicode="&#xf3;" horiz-adv-x="522" d="M78 232q10 78 22.5 121t40.5 71.5t68 37.5t110 9q133 0 166.5 -45t14.5 -194q-18 -149 -62.5 -194t-177.5 -45q-56 0 -90 6t-58.5 21.5t-31.5 42.5t-9.5 68.5t7.5 100.5zM145 232q-6 -46 -8 -73t1 -50.5t10 -34.5t23.5 -19t37.5 -10t57 -2q53 0 79.5 5t46 27t27 55 t15.5 102q6 46 8 73t-1 50.5t-10 34.5t-23.5 19t-37.5 10t-57 2q-53 0 -79.5 -5t-46 -27t-27 -55t-15.5 -102zM256 558l132 100l25 -48l-140 -88z" />
<glyph unicode="&#xf4;" horiz-adv-x="522" d="M78 232q10 78 22.5 121t40.5 71.5t68 37.5t110 9q133 0 166.5 -45t14.5 -194q-18 -149 -62.5 -194t-177.5 -45q-56 0 -90 6t-58.5 21.5t-31.5 42.5t-9.5 68.5t7.5 100.5zM145 232q-6 -46 -8 -73t1 -50.5t10 -34.5t23.5 -19t37.5 -10t57 -2q53 0 79.5 5t46 27t27 55 t15.5 102q6 46 8 73t-1 50.5t-10 34.5t-23.5 19t-37.5 10t-57 2q-53 0 -79.5 -5t-46 -27t-27 -55t-15.5 -102zM214 557l130 102l102 -102l-29 -35l-81 74l-100 -74z" />
<glyph unicode="&#xf5;" horiz-adv-x="522" d="M78 232q10 78 22.5 121t40.5 71.5t68 37.5t110 9q133 0 166.5 -45t14.5 -194q-18 -149 -62.5 -194t-177.5 -45q-56 0 -90 6t-58.5 21.5t-31.5 42.5t-9.5 68.5t7.5 100.5zM145 232q-6 -46 -8 -73t1 -50.5t10 -34.5t23.5 -19t37.5 -10t57 -2q53 0 79.5 5t46 27t27 55 t15.5 102q6 46 8 73t-1 50.5t-10 34.5t-23.5 19t-37.5 10t-57 2q-53 0 -79.5 -5t-46 -27t-27 -55t-15.5 -102zM206 562q22 33 39.5 46.5t39.5 13.5q18 0 53 -19q36 -19 47 -19q16 0 37 37l33 -25q-39 -61 -78 -61q-18 0 -53 19q-34 18 -47 18q-11 0 -18.5 -7t-19.5 -28z" />
<glyph unicode="&#xf6;" horiz-adv-x="522" d="M78 232q10 78 22.5 121t40.5 71.5t68 37.5t110 9q133 0 166.5 -45t14.5 -194q-18 -149 -62.5 -194t-177.5 -45q-56 0 -90 6t-58.5 21.5t-31.5 42.5t-9.5 68.5t7.5 100.5zM145 232q-6 -46 -8 -73t1 -50.5t10 -34.5t23.5 -19t37.5 -10t57 -2q53 0 79.5 5t46 27t27 55 t15.5 102q6 46 8 73t-1 50.5t-10 34.5t-23.5 19t-37.5 10t-57 2q-53 0 -79.5 -5t-46 -27t-27 -55t-15.5 -102zM194 545l9 73h78l-9 -73h-78zM371 545l9 73h78l-9 -73h-78z" />
<glyph unicode="&#xf7;" d="M153 301l8 63h418l-8 -63h-418zM295 90l11 93h84l-11 -93h-84zM343 482l11 93h84l-11 -93h-84z" />
<glyph unicode="&#xf8;" horiz-adv-x="522" d="M78 232q10 78 22.5 121t40.5 71.5t68 37.5t110 9q133 0 166.5 -45t14.5 -194q-18 -149 -62.5 -194t-177.5 -45q-56 0 -90 6t-58.5 21.5t-31.5 42.5t-9.5 68.5t7.5 100.5zM136 128l298 257q-11 22 -38 29t-83 7q-53 0 -79.5 -5t-46 -27t-27 -55t-15.5 -102q-9 -66 -9 -104 zM145 79q11 -22 37.5 -29t83.5 -7q53 0 79.5 5t46 27t27 55t15.5 102q9 66 9 105z" />
<glyph unicode="&#xf9;" horiz-adv-x="557" d="M96 425l5 40h103l-35 -288q-11 -84 9.5 -108.5t102.5 -24.5q31 0 65.5 5t53.5 9l19 5l41 339q1 6 0.5 10t-3 5.5t-8.5 2.5l-26 5l5 40h103l-49 -402q-1 -6 -0.5 -10t3 -5.5t8.5 -2.5l26 -5l-5 -40h-93l-1 25q0 16 -14 16q-8 0 -21 -9l-52 -32q-48 -7 -76 -7 q-103 0 -134 35t-19 136l29 238q1 6 0.5 10t-3 5.5t-8.5 2.5zM252 610l38 48l107 -100l-25 -36z" />
<glyph unicode="&#xfa;" horiz-adv-x="557" d="M96 425l5 40h103l-35 -288q-11 -84 9.5 -108.5t102.5 -24.5q31 0 65.5 5t53.5 9l19 5l41 339q1 6 0.5 10t-3 5.5t-8.5 2.5l-26 5l5 40h103l-49 -402q-1 -6 -0.5 -10t3 -5.5t8.5 -2.5l26 -5l-5 -40h-93l-1 25q0 16 -14 16q-8 0 -21 -9l-52 -32q-48 -7 -76 -7 q-103 0 -134 35t-19 136l29 238q1 6 0.5 10t-3 5.5t-8.5 2.5zM266 558l132 100l25 -48l-140 -88z" />
<glyph unicode="&#xfb;" horiz-adv-x="557" d="M96 425l5 40h103l-35 -288q-11 -84 9.5 -108.5t102.5 -24.5q31 0 65.5 5t53.5 9l19 5l41 339q1 6 0.5 10t-3 5.5t-8.5 2.5l-26 5l5 40h103l-49 -402q-1 -6 -0.5 -10t3 -5.5t8.5 -2.5l26 -5l-5 -40h-93l-1 25q0 16 -14 16q-8 0 -21 -9l-52 -32q-48 -7 -76 -7 q-103 0 -134 35t-19 136l29 238q1 6 0.5 10t-3 5.5t-8.5 2.5zM225 557l130 102l102 -102l-29 -35l-81 74l-100 -74z" />
<glyph unicode="&#xfc;" horiz-adv-x="557" d="M96 425l5 40h103l-35 -288q-11 -84 9.5 -108.5t102.5 -24.5q31 0 65.5 5t53.5 9l19 5l41 339q1 6 0.5 10t-3 5.5t-8.5 2.5l-26 5l5 40h103l-49 -402q-1 -6 -0.5 -10t3 -5.5t8.5 -2.5l26 -5l-5 -40h-93l-1 25q0 16 -14 16q-8 0 -21 -9l-52 -32q-48 -7 -76 -7 q-103 0 -134 35t-19 136l29 238q1 6 0.5 10t-3 5.5t-8.5 2.5zM204 545l9 73h78l-9 -73h-78zM381 545l9 73h78l-9 -73h-78z" />
<glyph unicode="&#xfd;" horiz-adv-x="541" d="M83 -185l13 49q56 -13 133 -13q51 0 80 6t46 25.5t23 43.5t12 74l2 18q4 21 -14 21q-7 0 -19 -8l-50 -32q-29 -6 -57 -6q-103 0 -134 35t-19 136l29 238q1 6 0.5 10t-3 5.5t-8.5 2.5l-26 5l5 40h143l-5 -39l-26 -5q-15 -4 -17 -18l-27 -226q-11 -84 9.5 -108.5 t102.5 -24.5q31 0 61.5 5t44.5 10l15 5l41 338q1 6 0.5 10t-3 5.5t-8.5 2.5l-26 5l5 40h143l-5 -39l-26 -5q-15 -4 -17 -18l-47 -383q-11 -94 -33 -138.5t-66 -62.5t-132 -18q-36 0 -71 3.5t-52 7.5zM266 558l132 100l25 -48l-140 -88z" />
<glyph unicode="&#xfe;" horiz-adv-x="537" d="M15 -199l4 39l27 5q9 2 12 5.5t4 12.5l91 740q1 10 -1 13.5t-11 4.5l-25 5l5 40h103l-27 -219q-3 -21 14 -21q8 0 19 7l49 31q40 7 89 7q71 0 107 -27.5t43 -80t-2 -129.5q-8 -64 -20 -105t-37 -74t-67 -47.5t-105 -14.5q-50 0 -144 18l-18 -147q-1 -10 1.5 -13.5 t10.5 -4.5l25 -5l-4 -40h-143zM149 57q62 -13 134 -13q47 0 74 7t46.5 29t29 57t17.5 97q11 73 3 114.5t-34.5 56.5t-85.5 15q-14 0 -29.5 -1t-29 -3t-26.5 -4t-23 -4t-18 -4l-12 -3l-4 -1z" />
<glyph unicode="&#xff;" horiz-adv-x="541" d="M83 -185l13 49q56 -13 133 -13q51 0 80 6t46 25.5t23 43.5t12 74l2 18q4 21 -14 21q-7 0 -19 -8l-50 -32q-29 -6 -57 -6q-103 0 -134 35t-19 136l29 238q1 6 0.5 10t-3 5.5t-8.5 2.5l-26 5l5 40h143l-5 -39l-26 -5q-15 -4 -17 -18l-27 -226q-11 -84 9.5 -108.5 t102.5 -24.5q31 0 61.5 5t44.5 10l15 5l41 338q1 6 0.5 10t-3 5.5t-8.5 2.5l-26 5l5 40h143l-5 -39l-26 -5q-15 -4 -17 -18l-47 -383q-11 -94 -33 -138.5t-66 -62.5t-132 -18q-36 0 -71 3.5t-52 7.5zM204 545l9 73h78l-9 -73h-78zM381 545l9 73h78l-9 -73h-78z" />
<glyph unicode="&#x152;" horiz-adv-x="1008" d="M101 332q10 80 18.5 128.5t24.5 90.5t34.5 62.5t52.5 36t74.5 19.5t104.5 4q139 0 191 -42l5 35h435l-7 -58h-367l-30 -238h357l-7 -57h-357l-31 -255h367l-7 -58h-435l4 36q-63 -43 -201 -43q-65 0 -107 5t-71 22.5t-42.5 38t-17.5 64.5t-1 87.5t13 121.5zM171 332 q-7 -54 -10 -83t-4 -63.5t1.5 -50.5t11 -35t20.5 -25.5t33.5 -14t47 -9t63.5 -1.5q51 0 82.5 2.5t57 18t37.5 27.5t23 52.5t15.5 71t13.5 103.5q1 5 1 7q18 115 16 178t-38.5 84.5t-138.5 21.5q-50 0 -80 -2.5t-56 -15t-38.5 -27.5t-24.5 -52t-18 -76t-15 -111z" />
<glyph unicode="&#x153;" horiz-adv-x="883" d="M78 232q10 78 22.5 121t40.5 71.5t68 37.5t110 9q77 0 117.5 -12.5t57.5 -45.5q47 58 188 58q136 0 168 -47q30 -44 16 -154q-1 -11 -8 -54q-144 -8 -156 -8l-138 3l-28 22q-11 7 -17 7q-19 0 -21 -31q-13 -92 14 -127q30 -38 125 -38q41 0 82.5 4t62.5 8l22 4l3 -47 q-68 -20 -171 -20q-112 0 -156 33q-18 14 -27 31q-25 -36 -69 -50t-124 -14q-56 0 -90 6t-58.5 21.5t-31.5 42.5t-9.5 68.5t7.5 100.5zM145 232q-6 -46 -8 -73t1 -50.5t10 -34.5t23.5 -19t37.5 -10t57 -2q53 0 80 5t46.5 27t27.5 55.5t16 101.5q6 46 8 73t-1.5 50.5 t-10.5 34.5t-24 19t-38 10t-57 2q-53 0 -79.5 -5t-46 -27t-27 -55t-15.5 -102zM506 266q30 -5 67 -7t59 -2h23q87 0 143 4q5 37 5.5 62t-4 43.5t-12 29t-24 16.5t-34.5 7.5t-48 1.5q-28 0 -48.5 -1t-37.5 -5.5t-28 -8.5t-20 -14.5t-14.5 -19t-10.5 -28t-8 -34.5t-8 -44z" />
<glyph unicode="&#x178;" horiz-adv-x="620" d="M100 620l6 46h168l-6 -46l-37 -7q-14 -2 -16 -18l-22 -183q-11 -90 18.5 -116.5t140.5 -26.5q39 0 89 10.5t68 16.5l37 299q2 16 -12 18l-35 7l6 46h168l-6 -46l-37 -7q-14 -2 -16 -18l-49 -401q-6 -46 -12 -72t-22 -54.5t-42.5 -42.5t-72.5 -23t-113 -9q-51 0 -99 4.5 t-70 8.5l-23 5l15 54q73 -15 185 -15q62 0 97.5 7t54 28.5t24 41.5t10.5 66l7 55q2 21 -15 21q-6 0 -18 -8l-68 -43q-50 -7 -96 -7q-122 0 -159 43.5t-24 152.5l23 188q2 16 -12 18zM274 742l9 73h78l-9 -73h-78zM451 742l9 73h78l-9 -73h-78z" />
<glyph unicode="&#x2c6;" horiz-adv-x="326" d="M115 557l130 102l102 -102l-29 -35l-81 74l-100 -74z" />
<glyph unicode="&#x2dc;" horiz-adv-x="339" d="M116 562q22 33 39.5 46.5t39.5 13.5q18 0 53 -19q36 -19 47 -19q16 0 37 37l33 -25q-39 -61 -78 -61q-18 0 -53 19q-34 18 -47 18q-11 0 -18.5 -7t-19.5 -28z" />
<glyph unicode="&#x2000;" horiz-adv-x="458" />
<glyph unicode="&#x2001;" horiz-adv-x="917" />
<glyph unicode="&#x2002;" horiz-adv-x="458" />
<glyph unicode="&#x2003;" horiz-adv-x="917" />
<glyph unicode="&#x2004;" horiz-adv-x="305" />
<glyph unicode="&#x2005;" horiz-adv-x="229" />
<glyph unicode="&#x2006;" horiz-adv-x="152" />
<glyph unicode="&#x2007;" horiz-adv-x="152" />
<glyph unicode="&#x2008;" horiz-adv-x="114" />
<glyph unicode="&#x2009;" horiz-adv-x="183" />
<glyph unicode="&#x200a;" horiz-adv-x="50" />
<glyph unicode="&#x2010;" horiz-adv-x="282" d="M73 210l8 65h188l-8 -65h-188z" />
<glyph unicode="&#x2011;" horiz-adv-x="282" d="M73 210l8 65h188l-8 -65h-188z" />
<glyph unicode="&#x2012;" horiz-adv-x="282" d="M73 210l8 65h188l-8 -65h-188z" />
<glyph unicode="&#x2013;" horiz-adv-x="450" d="M73 210l8 65h356l-8 -65h-356z" />
<glyph unicode="&#x2014;" horiz-adv-x="717" d="M73 210l9 65h622l-8 -65h-623z" />
<glyph unicode="&#x2018;" horiz-adv-x="194" d="M115 536l10 81l67 115h50l-66 -115h36l-10 -81h-87z" />
<glyph unicode="&#x2019;" horiz-adv-x="194" d="M100 470l66 115h-36l10 81h87l-10 -81l-67 -115h-50z" />
<glyph unicode="&#x201a;" horiz-adv-x="194" d="M28 -115l66 115h-36l10 81h87l-10 -81l-67 -115h-50z" />
<glyph unicode="&#x201c;" horiz-adv-x="342" d="M115 536l10 81l67 115h50l-66 -115h36l-10 -81h-87zM263 536l10 81l67 115h50l-66 -115h36l-10 -81h-87z" />
<glyph unicode="&#x201d;" horiz-adv-x="342" d="M100 470l66 115h-36l10 81h87l-10 -81l-67 -115h-50zM248 470l66 115h-36l10 81h87l-10 -81l-67 -115h-50z" />
<glyph unicode="&#x201e;" horiz-adv-x="342" d="M28 -115l66 115h-36l10 81h87l-10 -81l-67 -115h-50zM176 -115l66 115h-36l10 81h87l-10 -81l-67 -115h-50z" />
<glyph unicode="&#x2022;" horiz-adv-x="355" d="M85 338q7 58 52 98.5t101 39.5q55 -1 89 -41t27 -97q-8 -57 -51.5 -97.5t-98.5 -41.5q-56 -1 -91 40t-28 99z" />
<glyph unicode="&#x2026;" horiz-adv-x="544" d="M49 0l11 91h101l-11 -91h-101zM222 0l11 91h101l-12 -91h-100zM394 0l11 91h101l-11 -91h-101z" />
<glyph unicode="&#x202f;" horiz-adv-x="183" />
<glyph unicode="&#x2039;" horiz-adv-x="260" d="M78 256l140 253l43 -30l-123 -223l79 -224l-48 -32z" />
<glyph unicode="&#x203a;" horiz-adv-x="260" d="M51 32l133 224l-68 223l50 30l78 -253l-153 -256z" />
<glyph unicode="&#x205f;" horiz-adv-x="229" />
<glyph unicode="&#x20ac;" d="M61 235l7 57h75q3 34 10 82h-75l7 57h78q27 136 82 187q34 31 88 43t136 12q103 0 230 -27l-17 -58q-131 23 -214 23q-66 0 -107 -8t-66 -30q-42 -37 -62 -142h288l-7 -57h-291q-4 -25 -5 -42q-4 -29 -5 -40h291l-7 -57h-288q-1 -34 1 -59.5t7.5 -45.5t17 -33t25.5 -22 t36.5 -14t48 -7t60.5 -2q45 0 98.5 5.5t84.5 10.5l31 6l3 -55q-118 -26 -232 -26q-78 0 -125 9.5t-78 37t-41 73.5t-7 122h-78z" />
<glyph unicode="&#x2122;" horiz-adv-x="835" d="M109 622l6 44h297l-6 -44h-125l-41 -335h-47l41 335h-125zM409 287l47 379h103l83 -196q0 -4 4 -4q2 0 6 4l128 196h104l-47 -379h-45l41 333q2 15 -10 15q-8 0 -15 -11l-143 -207h-51l-92 207q-6 11 -12 11q-12 0 -15 -15l-40 -333h-46z" />
<glyph unicode="&#xe000;" horiz-adv-x="465" d="M0 0v465h465v-465h-465z" />
<glyph unicode="&#xfb01;" horiz-adv-x="499" d="M63 0l5 39l26 5q15 3 17 18l43 354h-88l6 49h88l8 63q6 47 18 77t42 50q33 21 105 21l115 -6l-10 -49q-55 4 -97 4q-69 0 -86.5 -21t-24.5 -86l-3 -21l-4 -32h249l-50 -402q-1 -10 1.5 -13.5t10.5 -4.5l26 -5l-5 -40h-143l5 39l26 5q9 2 12 5.5t4 12.5l42 336 q1 18 -14 18h-170l-43 -353q-1 -6 -0.5 -10t3 -5.5t8.5 -2.5l26 -5l-5 -40h-143z" />
<glyph unicode="&#xfb02;" horiz-adv-x="499" d="M63 0l5 39l26 5q15 3 17 18l43 354h-88l6 49h88l8 63q6 47 18 77t42 50q33 21 105 21q52 0 162 -15l-73 -598q-1 -10 1.5 -13t10.5 -5l26 -5l-5 -40h-143l5 39l26 5q9 2 12 5.5t4 12.5l44 354h-186l-43 -353q-1 -6 -0.5 -10t3 -5.5t8.5 -2.5l26 -5l-5 -40h-143zM223 465 h186l19 153q-40 8 -86 8q-67 0 -84 -16q-5 -5 -8.5 -10.5t-6.5 -14.5l-5 -15t-4 -18.5t-2.5 -17t-2.5 -19.5t-2 -18z" />
</font>
</defs>
</svg>
