<?xml version="1.0" standalone="no"?>
<!DOCTYPE svg PUBLIC "-//W3C//DTD SVG 1.1//EN" "http://www.w3.org/Graphics/SVG/1.1/DTD/svg11.dtd" >
<svg xmlns="http://www.w3.org/2000/svg">
<metadata></metadata>
<defs>
<font id="fengardo_neueblack" horiz-adv-x="517" >
<font-face units-per-em="1000" ascent="720" descent="-280" />
<missing-glyph horiz-adv-x="220" />
<glyph unicode="&#xfb01;" horiz-adv-x="615" d="M0 370v125h55v67q0 87 55.5 137.5t137.5 50.5q59 0 100 -19q-28 -38 -28 -77q0 -20 4 -34.5t8 -19.5l4 -5q-22 5 -48 5q-22 0 -37.5 -12t-15.5 -36v-57h307v-326q0 -27 14.5 -35.5t43.5 -8.5v-125q-40 -9 -76 -9.5t-75.5 9t-63 44.5t-23.5 93v233h-127v-370h-180v370h-55 zM349 651q0 43 29.5 71t72.5 28q44 0 73.5 -27.5t29.5 -71.5q0 -42 -30 -69t-73 -27t-72.5 27.5t-29.5 68.5z" />
<glyph unicode="&#xfb02;" horiz-adv-x="622" d="M5 370v125h55v42q0 95 62 154t151 59q72 0 121 -26l155 26v-581q0 -27 14.5 -35.5t43.5 -8.5v-125q-40 -9 -76 -9.5t-75.5 9t-63 44.5t-23.5 93v453l-1 -4q-25 14 -60 14q-30 0 -49 -16.5t-19 -51.5v-37h76v-125h-76v-370h-180v370h-55z" />
<glyph unicode="&#xfb03;" horiz-adv-x="945" d="M0 370v125h55v62q0 87 55.5 137.5t137.5 50.5q66 0 119 -30l-33 -125q-20 5 -46 5q-22 0 -37.5 -12t-15.5 -36v-52h150v67q0 87 55.5 137.5t137.5 50.5q59 0 100 -19q-28 -38 -28 -77q0 -20 4 -34.5t8 -19.5l4 -5q-22 5 -48 5q-22 0 -37.5 -12t-15.5 -36v-57h307v-326 q0 -27 14.5 -35.5t43.5 -8.5v-125q-40 -9 -76 -9.5t-75.5 9t-63 44.5t-23.5 93v233h-127v-370h-180v370h-150v-370h-180v370h-55zM679 651q0 43 29.5 71t72.5 28q44 0 73.5 -27.5t29.5 -71.5q0 -42 -30 -69t-73 -27t-72.5 27.5t-29.5 68.5z" />
<glyph unicode="&#xfb04;" horiz-adv-x="946" d="M0 370v125h55v62q0 87 55.5 137.5t137.5 50.5q68 0 114 -30l-28 -125q-20 5 -46 5q-22 0 -37.5 -12t-15.5 -36v-52h150v42q0 95 62 154t151 59q72 0 121 -26l154 26v-581q0 -27 14.5 -35.5t43.5 -8.5v-125q-40 -9 -76 -9.5t-75.5 9t-63 44.5t-23.5 93v449q-25 14 -60 14 q-30 0 -49 -16.5t-19 -51.5v-37h76v-125h-76v-370h-180v370h-150v-370h-180v370h-55z" />
<glyph horiz-adv-x="1000" />
<glyph horiz-adv-x="1000" />
<glyph unicode="&#xd;" horiz-adv-x="1000" />
<glyph unicode=" "  horiz-adv-x="220" />
<glyph unicode="&#x09;" horiz-adv-x="220" />
<glyph unicode="&#xa0;" horiz-adv-x="220" />
<glyph unicode="!" horiz-adv-x="245" d="M15 709l215 16l-52 -460h-113q-50 424 -50 444zM22 83q0 44 28.5 72t71.5 28t72 -28t29 -72q0 -42 -29 -70t-72 -28q-42 0 -71 28t-29 70z" />
<glyph unicode="&#x22;" horiz-adv-x="413" d="M15 725l165 17l-10 -342h-117q-38 312 -38 325zM224 400q5 312 5 325l169 17l-57 -342h-117z" />
<glyph unicode="#" horiz-adv-x="619" d="M20 143l15 125h93l7 75h-95l14 125h94l14 132h140l-13 -132h75l14 132h140l-13 -132h94l-13 -125h-93l-8 -75h95l-12 -125h-95l-14 -143h-142l14 143h-74l-14 -143h-142l14 143h-95zM269 268h75l7 75h-74z" />
<glyph unicode="$" horiz-adv-x="539" d="M36 254l177 5q0 -76 67 -76q54 0 54 41q0 12 -6 21t-22 17.5t-27 12.5t-39 13t-39 13q-79 27 -121 67.5t-42 120.5q0 79 49.5 128.5t130.5 62.5v66l130 34v-104q76 -16 117.5 -66t36.5 -136l-176 -5q0 76 -54 76q-23 0 -37.5 -11.5t-14.5 -33.5q0 -8 2.5 -15.5t6 -13 t11 -11t13 -9t17 -8.5t17.5 -7.5t21 -8t21 -7.5q33 -12 53.5 -21t49 -26t44.5 -35t28 -46t12 -62q0 -70 -46.5 -117t-121.5 -62v-72l-130 -34v104q-187 29 -182 205z" />
<glyph unicode="%" horiz-adv-x="741" d="M20 529q0 67 42 109t108 42q67 0 109 -42t42 -109q0 -65 -44 -107t-107 -42q-66 0 -108 41.5t-42 107.5zM141 530q0 -15 8.5 -25t21.5 -10t21.5 10t8.5 25t-8.5 25t-21.5 10t-21.5 -10t-8.5 -25zM147 0l337 710h130l-337 -710h-130zM420 134q0 67 42 109t108 42 q67 0 109 -42t42 -109q0 -65 -44 -107t-107 -42q-66 0 -108 41.5t-42 107.5zM541 135q0 -15 8.5 -25t21.5 -10t21.5 10t8.5 25t-8.5 25t-21.5 10t-21.5 -10t-8.5 -25z" />
<glyph unicode="&#x26;" horiz-adv-x="647" d="M25 207q0 55 30.5 100t82.5 73q-40 20 -67 60.5t-27 89.5q0 89 72.5 142t171.5 53q110 0 173 -59t63 -171l-175 -5q0 38 -15.5 59t-42.5 21q-28 0 -42.5 -19t-14.5 -48q0 -32 15.5 -53t49.5 -21v-120q-40 0 -62 -21.5t-22 -59.5q0 -40 25 -64t63 -24q44 0 70.5 31 t26.5 81v57h-51v120h283v-120h-52v-42q0 -121 -82.5 -201.5t-203.5 -80.5t-195 60t-74 162z" />
<glyph unicode="'" horiz-adv-x="197" d="M15 725l167 17l-22 -342h-117q-28 312 -28 325z" />
<glyph unicode="(" horiz-adv-x="369" d="M40 290q0 85 23.5 163.5t56.5 129.5t66 89.5t56 55.5l24 18l103 -17q-6 -7 -16 -20t-36 -56.5t-45.5 -91t-35.5 -120t-16 -146.5q0 -76 15 -147t36 -118t42 -83.5t36 -53.5l15 -17l-103 -27q-9 6 -24 17t-53 51t-67 86.5t-53 124t-24 162.5z" />
<glyph unicode=")" horiz-adv-x="369" d="M0 729l103 17q9 -6 24.5 -18t54.5 -54.5t68.5 -91t54 -128t24.5 -164.5q0 -62 -12 -119.5t-31.5 -100.5t-43.5 -80.5t-47.5 -62.5t-43 -43t-31.5 -26l-12 -9l-103 27q6 6 15.5 17.5t34.5 52t44 85.5t34.5 116.5t15.5 147.5q0 74 -15.5 146t-37.5 121.5t-43.5 89 t-36.5 58.5z" />
<glyph unicode="*" horiz-adv-x="426" d="M-12 545l38 106l124 -49l-15 132l128 6l-14 -138l120 49l34 -113l-128 -23l98 -120l-101 -66l-76 124l-75 -122l-97 65l90 116z" />
<glyph unicode="+" horiz-adv-x="540" d="M25 180v145h165v180h160v-180h165v-145h-165v-185h-160v185h-165z" />
<glyph unicode="," horiz-adv-x="245" d="M-5 -118q48 14 75.5 39.5t31.5 44.5l4 18q-38 2 -63.5 29.5t-25.5 70.5q0 44 30 70t69 26q51 0 80 -35t29 -90q0 -56 -20.5 -100t-52.5 -69t-63 -38.5t-60 -16.5z" />
<glyph unicode="-" horiz-adv-x="283" d="M15 180v145h253v-145h-253z" />
<glyph unicode="." horiz-adv-x="249" d="M25 85q0 46 28 74.5t71 28.5t71.5 -28.5t28.5 -74.5q0 -44 -28.5 -72t-71.5 -28q-42 0 -70.5 28t-28.5 72z" />
<glyph unicode="/" horiz-adv-x="498" d="M-5 -100l358 840h150l-358 -840h-150z" />
<glyph unicode="0" horiz-adv-x="547" d="M32 189q-2 109 0 166q4 88 69 149t172 61q104 0 171 -59t71 -149q3 -82 0 -168q-3 -88 -66 -146t-173 -58t-176 58.5t-68 145.5zM210 200q2 -28 19.5 -46.5t44.5 -18.5q28 0 43.5 17t17.5 47q4 75 0 148q-2 30 -18 49t-43 19q-60 0 -64 -71q-4 -55 0 -144z" />
<glyph unicode="1" horiz-adv-x="435" d="M40 0v110l96 23v263h-84l-11 99l204 59l71 -4v-417l99 -23v-110h-375z" />
<glyph unicode="2" horiz-adv-x="519" d="M25 334q-4 103 61.5 167t168.5 64q93 0 156 -48.5t63 -140.5q0 -88 -88 -165q-61 -52 -132 -80l85 9h160v-140h-457l-10 103q18 14 181 144q80 64 80 117q0 23 -12 37t-32 14q-26 0 -40.5 -19t-13.5 -52z" />
<glyph unicode="3" horiz-adv-x="543" d="M20 41l170 10q3 -38 22.5 -57t49.5 -19t48 22.5t18 67.5t-24.5 70t-71.5 25l-43 -6l-24 79l112 167h-236v150h437l15 -110l-132 -188q66 -13 106.5 -68t40.5 -131q0 -102 -68 -165t-174 -63q-109 0 -176 60t-70 156z" />
<glyph unicode="4" horiz-adv-x="564" d="M25 102l151 448l189 40l-149 -450h95l10 145l165 45v-190h63v-135h-63l-5 -165h-170v165h-267z" />
<glyph unicode="5" horiz-adv-x="533" d="M25 36l170 10q6 -71 67 -71q32 0 49 26.5t17 70.5q0 93 -67 93q-19 0 -33.5 -11.5t-20.5 -25.5l-144 10l28 412h381v-150h-237l-11 -134q38 19 98 19q80 0 133 -52.5t53 -157.5q0 -122 -70.5 -186t-172.5 -64q-95 0 -165.5 54t-74.5 157z" />
<glyph unicode="6" horiz-adv-x="562" d="M34 224q-8 148 0 261q8 101 72 163t178 62q104 0 165 -51.5t62 -153.5l-170 -10q0 30 -15.5 47.5t-44.5 17.5q-63 0 -67 -84q-3 -46 -3 -112q6 12 17.5 25.5t46.5 29.5t81 16q79 0 130 -59t51 -150q0 -114 -69 -177t-177 -63q-107 0 -179 63.5t-78 174.5zM214 229 q6 -94 77 -94q29 0 47.5 21.5t18.5 60.5q0 83 -70 83q-34 0 -52.5 -20t-20.5 -51z" />
<glyph unicode="7" horiz-adv-x="512" d="M5 400v150h472l20 -125l-249 -585h-199l241 560h-285z" />
<glyph unicode="8" horiz-adv-x="542" d="M25 191q0 108 96 164q-43 22 -67.5 63t-24.5 84q0 101 70.5 154.5t173.5 53.5q101 0 170.5 -52t69.5 -150q0 -43 -26.5 -86.5t-69.5 -66.5q48 -15 74 -58.5t26 -95.5q0 -107 -71 -161.5t-178 -54.5q-105 0 -174 52t-69 154zM204 210q0 -37 19 -56t48 -19q28 0 47.5 19 t19.5 56q0 36 -19.5 55.5t-47.5 19.5t-47.5 -19.5t-19.5 -55.5zM209 494q0 -34 17.5 -51.5t44.5 -17.5t44.5 17.5t17.5 51.5q0 33 -17.5 49.5t-44.5 16.5t-44.5 -16.5t-17.5 -49.5z" />
<glyph unicode="9" horiz-adv-x="570" d="M25 319q0 105 64.5 175.5t178.5 70.5t181.5 -64.5t75.5 -172.5q10 -131 0 -274q-8 -110 -76.5 -169.5t-181.5 -59.5q-101 0 -166 56t-69 148l170 10q0 -29 20 -46.5t50 -17.5q67 0 73 81q3 45 3 105q-23 -65 -124 -65q-86 0 -142.5 61t-56.5 162zM205 325q0 -89 77 -89 q37 0 51.5 22.5t11.5 57.5v9q-5 90 -74 90q-29 0 -47.5 -24t-18.5 -66z" />
<glyph unicode=":" horiz-adv-x="241" d="M30 85q0 46 28 74.5t71 28.5t71.5 -28.5t28.5 -74.5q0 -44 -28.5 -72t-71.5 -28q-42 0 -70.5 28t-28.5 72zM30 374q0 46 28 74.5t71 28.5t71.5 -28.5t28.5 -74.5q0 -44 -28.5 -72t-71.5 -28q-42 0 -70.5 28t-28.5 72z" />
<glyph unicode=";" horiz-adv-x="244" d="M-5 -118q48 14 75.5 39.5t31.5 44.5l4 18q-38 2 -63.5 29.5t-25.5 70.5q0 44 30 70t69 26q51 0 80 -35t29 -90q0 -56 -20.5 -100t-52.5 -69t-63 -38.5t-60 -16.5zM33 375q0 46 28 74.5t71 28.5t71.5 -28.5t28.5 -74.5q0 -44 -28.5 -72t-71.5 -28q-42 0 -70.5 28t-28.5 72 z" />
<glyph unicode="&#x3c;" horiz-adv-x="511" d="M30 216v40l390 251l66 -112l-239 -148l1 -11l237 -160l-77 -107z" />
<glyph unicode="=" horiz-adv-x="512" d="M25 93v140h462v-140h-462zM25 288v140h462v-140h-462z" />
<glyph unicode="&#x3e;" horiz-adv-x="511" d="M25 80l238 148l-1 13l-236 158l77 107l378 -252v-40l-390 -246z" />
<glyph unicode="?" horiz-adv-x="486" d="M21 500q-4 108 62 166.5t169 58.5q90 0 154.5 -51t64.5 -141q0 -48 -21 -80t-77 -75q-10 -7 -22 -16.5t-19 -15t-16 -12t-14 -11t-10.5 -9.5t-8.5 -8.5t-5.5 -8t-3.5 -8t-1 -7.5v-22h-93l-6 25q-9 45 6 73t64 78q25 27 31 43t6 44q0 47 -41 47q-20 0 -32.5 -17t-11.5 -48 zM130 83q0 44 28.5 72t71.5 28t72 -28t29 -72q0 -42 -29 -70t-72 -28q-42 0 -71 28t-29 70z" />
<glyph unicode="@" horiz-adv-x="959" d="M20 192q0 220 140 359t360 139q87 0 161.5 -23.5t132.5 -69t91.5 -118.5t33.5 -165q0 -132 -71.5 -215t-196.5 -83q-113 0 -154 80q-50 -65 -126 -65q-61 0 -96 43t-27 134q5 52 21 116q42 162 221 162q118 0 188 -65l-40 -232q-10 -60 37 -60q36 0 65.5 40.5t29.5 134.5 q0 120 -71.5 190.5t-199.5 70.5q-156 0 -250.5 -98t-94.5 -262q0 -130 81 -205t221 -75q112 0 231 52l39 -90q-56 -44 -138.5 -66t-165.5 -22q-116 0 -210.5 44.5t-153 135t-58.5 213.5zM433 207q-6 -46 29 -46q24 0 36 23l29 158q-14 9 -30 9q-34 0 -45 -41 q-12 -45 -19 -103z" />
<glyph unicode="A" horiz-adv-x="607" d="M-5 0l160 668v42h295l162 -710h-205l-23 125h-170l-24 -125h-195zM246 285h109l-38 210l-15 92l-15 -92z" />
<glyph unicode="B" horiz-adv-x="593" d="M50 0v710q137 1 237 1q63 0 110 -7.5t87.5 -26.5t61.5 -55t21 -89q0 -58 -39 -100.5t-98 -58.5v-3q4 0 16.5 -2.5t35.5 -12.5t42 -26t34 -48t15 -74q0 -91 -67 -150t-217 -59zM250 165q1 0 15 -0.5t28 -0.5q80 0 80 68q0 69 -79 69q-10 0 -20 -0.5t-16.5 -0.5h-7.5v-135z M250 420q1 0 18 -0.5t29 -0.5q70 0 70 66q0 61 -77 61q-14 0 -26.5 -0.5t-13.5 -0.5v-125z" />
<glyph unicode="C" horiz-adv-x="560" d="M32 222q-3 188 0 271q4 110 82 171t186 61q53 0 98 -15t80 -44t54.5 -77t17.5 -109l-185 -5q0 42 -17.5 63.5t-47.5 21.5t-48.5 -19.5t-19.5 -56.5q-4 -94 0 -252q3 -82 67 -82q29 0 50 22.5t21 62.5l185 -5q0 -110 -70.5 -177.5t-190.5 -67.5q-116 0 -188 63.5 t-74 173.5z" />
<glyph unicode="D" horiz-adv-x="606" d="M50 0v710q90 5 186 5q315 0 332 -235q12 -161 5 -256q-17 -229 -345 -229zM245 162q1 -2 25 -2q92 0 99 84q8 96 0 223q-5 83 -96 83l-28 -2v-386z" />
<glyph unicode="E" horiz-adv-x="514" d="M50 0v710h424v-165h-224v-105h203v-160h-203v-115h224v-165h-424z" />
<glyph unicode="F" horiz-adv-x="486" d="M50 0v710h431v-165h-231v-135h211v-160h-211v-250h-200z" />
<glyph unicode="G" horiz-adv-x="590" d="M32 222q-3 188 0 271q4 110 83 171t188 61q111 0 184.5 -63t69.5 -182l-185 -5q0 41 -19 63t-50 22t-50 -20.5t-21 -55.5q-5 -119 0 -252q1 -40 21.5 -61t51.5 -21q33 0 52 20t21 54v36h-72v140h263q1 -111 -1 -165q-4 -126 -79.5 -188t-189.5 -62t-189.5 62t-77.5 175z " />
<glyph unicode="H" horiz-adv-x="670" d="M50 0v710h200v-270h170v270h200v-710h-200v275h-170v-275h-200z" />
<glyph unicode="I" horiz-adv-x="300" d="M50 0v710h200v-710h-200z" />
<glyph unicode="J" horiz-adv-x="522" d="M1 230l175 5q-2 -85 56 -85q50 0 50 80v480h200v-480q0 -118 -70.5 -181.5t-175.5 -63.5q-107 0 -174 64t-61 181z" />
<glyph unicode="K" horiz-adv-x="629" d="M50 0v710h200v-710h-200zM255 361l159 349h211l-166 -327l175 -383h-220z" />
<glyph unicode="L" horiz-adv-x="467" d="M50 0v710h200v-545h207v-165h-407z" />
<glyph unicode="M" horiz-adv-x="768" d="M50 0v710h195q14 -34 34 -85t35 -88t33.5 -84t34.5 -87h2q19 53 43.5 110.5t55 126t46.5 107.5h189v-710h-200l2 311l10 96l-2 1l-38 -97l-83 -181h-63l-79 182l-35 96l-2 -1l10 -98l2 -309h-190z" />
<glyph unicode="N" horiz-adv-x="663" d="M50 0v710h173l176 -330l24 -67v397h190v-710h-176l-168 292l-29 82v-374h-190z" />
<glyph unicode="O" horiz-adv-x="602" d="M33 230q-5 120 0 251q4 116 79.5 180t189.5 64t189 -64t79 -180q4 -118 0 -253q-3 -116 -79 -179.5t-190 -63.5t-188.5 63.5t-79.5 181.5zM233 225q4 -75 68 -75q65 0 69 75q6 124 0 265q-3 70 -68 70t-69 -70q-3 -46 -3 -132t3 -133z" />
<glyph unicode="P" horiz-adv-x="580" d="M50 0v710q86 1 170 1q60 0 104 -3.5t95.5 -18t84 -40t54.5 -72t22 -110.5q0 -107 -75.5 -172.5t-200.5 -65.5l-54 2v-231h-200zM250 385q12 -1 34 -1q42 0 69 20t27 63q0 79 -103 79l-27 -1v-160z" />
<glyph unicode="Q" horiz-adv-x="606" d="M33 230q-5 120 0 251q4 116 79.5 180t189.5 64t189 -64t79 -180q4 -118 0 -253q-3 -98 -59 -159.5t-145 -77.5q34 -4 110 -20q90 -18 112 -18t28 1v-125q-17 -23 -54 -23q-71 0 -172 68q-158 106 -209 132q-66 26 -105 83t-43 141zM233 225q4 -75 68 -75q65 0 69 75 q6 124 0 265q-3 70 -68 70t-69 -70q-3 -46 -3 -132t3 -133z" />
<glyph unicode="R" horiz-adv-x="599" d="M55 0v710q96 2 202 2q73 0 126 -8t99 -29t70 -61.5t24 -100.5q0 -137 -131 -193q27 -15 50 -60q18 -36 46.5 -101t48.5 -112l19 -47h-213l-111 267h-30v-267h-200zM255 407q3 -2 22 -2q100 0 100 76q0 75 -94 75l-28 -1v-148z" />
<glyph unicode="S" horiz-adv-x="579" d="M31 230l185 5q0 -44 22.5 -64.5t58.5 -20.5q62 0 62 44q0 24 -28.5 44t-107.5 46q-187 61 -187 218q0 107 75 165t184 58q112 0 183 -61.5t66 -183.5l-185 -5q0 85 -66 85q-24 0 -40.5 -11.5t-16.5 -32.5q0 -28 25.5 -46.5t110.5 -48.5q94 -33 140.5 -80.5t46.5 -141.5 q0 -97 -73.5 -155.5t-187.5 -58.5q-75 0 -135 24.5t-98 81.5t-34 139z" />
<glyph unicode="T" horiz-adv-x="508" d="M-5 545v165h518v-165h-159v-545h-200v545h-159z" />
<glyph unicode="U" horiz-adv-x="605" d="M42 217v493h191q-1 -55 -1 -238.5t1 -240.5q1 -38 20.5 -59.5t50.5 -21.5t48.5 21.5t19.5 59.5q1 54 1 236.5t-1 242.5h191q3 -253 0 -495q-1 -108 -77.5 -169t-185.5 -61q-108 0 -182.5 61t-75.5 171z" />
<glyph unicode="V" horiz-adv-x="597" d="M0 710h210l95 -516l92 516h200l-158 -710h-273z" />
<glyph unicode="W" horiz-adv-x="867" d="M10 710h210l47 -330l13 -124h3l13 124l56 330h172l61 -330l15 -127h3l12 127l42 330h200l-138 -710h-209l-60 330l-13 111h-2l-13 -111l-57 -330h-217z" />
<glyph unicode="X" horiz-adv-x="613" d="M0 0l181 367l-181 343h230l80 -189l79 189h215l-180 -347l194 -363h-230l-93 214l-80 -214h-215z" />
<glyph unicode="Y" horiz-adv-x="561" d="M-30 710h212l80 -205l21 -69l22 69l83 205h203l-213 -446v-264h-200v265z" />
<glyph unicode="Z" horiz-adv-x="532" d="M15 112l259 433h-254v165h486l7 -107l-258 -438h262v-165h-496z" />
<glyph unicode="[" horiz-adv-x="311" d="M25 -140v880h266v-66l-96 -25v-698l96 -25v-66h-266z" />
<glyph unicode="\" horiz-adv-x="450" d="M-5 740h150l310 -840h-148z" />
<glyph unicode="]" horiz-adv-x="311" d="M20 -74l96 25v698l-96 25v66h266v-880h-266v66z" />
<glyph unicode="^" horiz-adv-x="443" d="M5 530l139 180h163l131 -180h-150l-64 98l-74 -98h-145z" />
<glyph unicode="_" horiz-adv-x="452" d="M-5 -35h462v-145h-462v145z" />
<glyph unicode="`" horiz-adv-x="295" d="M-10 710h185l80 -145h-119z" />
<glyph unicode="a" d="M30 137q0 50 24.5 79.5t80.5 45.5q30 9 65 17.5t55 12.5l20 4v34q0 35 -27 35q-15 0 -24 -10t-6 -30l-165 -5q-7 87 49 138.5t153 51.5q88 0 144 -46.5t56 -132.5v-158q0 -30 9.5 -39t42.5 -9v-125q-27 -10 -61 -13t-75 12t-60 52h-2q-49 -66 -132 -66q-63 0 -105 43 t-42 109zM210 163q0 -38 33 -38q14 0 23 9t9 25v58q-22 -5 -39 -11q-26 -9 -26 -43z" />
<glyph unicode="b" horiz-adv-x="509" d="M40 20v700l180 30v-285q4 5 12 12.5t37 20t63 12.5q63 0 103 -40t42 -110q4 -96 0 -201q-3 -80 -68 -127t-149 -47q-58 0 -113 8.5t-81 17.5zM220 137q15 -7 38 -7q14 0 26 9.5t13 25.5q2 76 0 162q0 38 -34 38q-20 0 -31.5 -13.5t-11.5 -33.5v-181z" />
<glyph unicode="c" horiz-adv-x="468" d="M32 172q-3 88 0 160q4 82 65.5 130t150.5 48q98 0 151 -51t46 -139l-165 -5q3 22 -6 36t-26 14q-35 0 -36 -40q-3 -74 0 -153q1 -19 12 -30.5t25 -11.5q18 0 27 12.5t7 32.5l165 -5q-2 -80 -55.5 -132.5t-143.5 -52.5q-95 0 -154.5 49.5t-62.5 137.5z" />
<glyph unicode="d" horiz-adv-x="533" d="M32 148q-3 88 0 180q4 88 49.5 135t110.5 47q28 0 51.5 -6t32.5 -12l10 -7v235l180 30v-577q0 -30 9.5 -39t42.5 -9v-125q-32 -11 -70 -12t-75.5 14t-54.5 47q-1 -3 -4 -7t-13.5 -15t-24 -19.5t-36 -15.5t-48.5 -7q-64 0 -110 43t-50 120zM212 170q2 -40 38 -40 q17 0 26.5 10t9.5 27v160q0 18 -10.5 28t-25.5 10q-36 0 -38 -38q-3 -78 0 -157z" />
<glyph unicode="e" horiz-adv-x="480" d="M32 172q-3 70 0 145q3 86 65.5 139.5t154.5 53.5q87 0 145 -46t58 -131q0 -50 -25 -72t-86 -35l-133 -23v-31q0 -19 9.5 -30.5t26.5 -11.5q16 0 26 10.5t11 29.5l165 -5q-3 -82 -59.5 -131t-142.5 -49q-89 0 -150 48t-65 139zM211 282q17 1 34 5q18 4 24 11.5t6 29.5 q0 37 -31 37q-33 0 -33 -35v-48z" />
<glyph unicode="f" horiz-adv-x="332" d="M0 370v125h55v67q0 87 55.5 137.5t137.5 50.5q67 0 114 -27l-23 -128q-25 5 -51 5q-22 0 -37.5 -12t-15.5 -36v-57h96v-125h-96v-370h-180v370h-55z" />
<glyph unicode="g" horiz-adv-x="531" d="M10 -113q0 29 13 44t45 24l54 12l49 5v5l-33 5q-42 8 -68.5 32.5t-26.5 65.5q0 68 84 104q-79 48 -79 146q0 85 62.5 132.5t153.5 47.5q23 0 45.5 -4t32.5 -8l11 -3h168q6 -54 -1 -120q-86 4 -109 9v-3q55 -20 55 -85t-54 -105.5t-145 -40.5q-34 0 -58 5q-16 -7 -16 -20 q0 -17 18 -20t76 -10.5t88 -13.5q71 -15 111 -56.5t40 -105.5q0 -90 -70 -142t-181 -52q-112 0 -188.5 40t-76.5 112zM191 -84q0 -18 22.5 -29.5t56.5 -11.5q37 0 57 11.5t20 30.5q0 33 -47 44l-81 -22q-28 -8 -28 -23zM229 331q0 -41 35 -41q36 0 36 41q0 39 -36 39 q-15 0 -25 -10t-10 -29z" />
<glyph unicode="h" horiz-adv-x="522" d="M45 0v720l180 30v-306h2q40 66 120 66q62 0 101 -41t39 -128v-341h-180v315q0 50 -37 50q-25 0 -35 -15.5t-10 -29.5v-320h-180z" />
<glyph unicode="i" horiz-adv-x="293" d="M30 651q0 43 29.5 71t72.5 28q44 0 73.5 -27.5t29.5 -71.5q0 -42 -30 -69t-73 -27t-72.5 27.5t-29.5 68.5zM40 137v332l180 31v-331q0 -27 14.5 -35.5t43.5 -8.5v-125q-40 -9 -76 -9.5t-75.5 9t-63 44.5t-23.5 93z" />
<glyph unicode="j" horiz-adv-x="296" d="M-10 -125q68 0 68 54v540l180 31v-585q0 -52 -17.5 -88.5t-43 -54t-60.5 -25t-65.5 -6t-61.5 8.5v125zM46 651q0 43 29.5 71t72.5 28q44 0 73.5 -27.5t29.5 -71.5q0 -42 -30 -69t-73 -27t-72.5 27.5t-29.5 68.5z" />
<glyph unicode="k" horiz-adv-x="526" d="M45 0v720l180 30v-750h-180zM232 261v27l77 123q33 52 66.5 75.5t81.5 23.5q18 0 31 -2t18 -4l4 -3v-125q-22 0 -34.5 -6.5t-25.5 -25.5l-41 -62l55 -117q19 -41 62 -41v-125q-33 -14 -61 -14q-49 0 -88.5 22t-68.5 86z" />
<glyph unicode="l" horiz-adv-x="293" d="M40 137v583l180 30v-581q0 -27 14.5 -35.5t43.5 -8.5v-125q-40 -9 -76 -9.5t-75.5 9t-63 44.5t-23.5 93z" />
<glyph unicode="m" horiz-adv-x="775" d="M10 370v120q33 15 73 15q85 0 126 -62h4q40 67 125 67q87 0 126 -68h4q45 68 127 68q69 0 107 -45t38 -130v-335h-180v327q0 38 -31 38q-16 0 -27 -13t-12 -29v-323h-180v324q0 41 -29 41q-16 0 -27.5 -10.5t-13.5 -25.5v-329h-180v318q0 29 -11 40.5t-39 11.5z" />
<glyph unicode="n" horiz-adv-x="535" d="M10 370v120q33 15 73 15q87 0 128 -65h2q44 70 134 70q68 0 110.5 -44t42.5 -135v-331h-180v326q0 39 -35 39q-22 0 -33 -14.5t-12 -28.5v-322h-180v318q0 29 -11 40.5t-39 11.5z" />
<glyph unicode="o" horiz-adv-x="497" d="M32 165q-3 79 0 164q3 81 64.5 131t152.5 50t151.5 -50t64.5 -131q3 -76 0 -165q-3 -81 -63.5 -130t-152.5 -49t-152.5 49t-64.5 131zM212 173q1 -19 11.5 -31t25.5 -12t25 12t11 31q3 71 0 151q-1 17 -11 29t-25 12t-25.5 -12t-11.5 -29q-3 -75 0 -151z" />
<glyph unicode="p" horiz-adv-x="529" d="M10 370v125q33 6 68 8.5t72.5 -13.5t58.5 -50q2 3 5.5 7.5t16 16.5t26.5 21.5t37.5 17t48.5 7.5q68 0 109.5 -45t44.5 -127q3 -81 0 -170q-3 -91 -51.5 -137t-127.5 -46q-21 0 -40.5 4t-28.5 8l-9 4v-251h-180v568q0 28 -11.5 40t-38.5 12zM240 171q0 -19 10.5 -30 t27.5 -11q18 0 28.5 11.5t10.5 28.5v150q0 45 -35 45q-18 0 -30 -14t-12 -33v-147z" />
<glyph unicode="q" horiz-adv-x="506" d="M32 145q-4 65 0 178q3 92 64 139.5t155 47.5q56 0 109.5 -9t79.5 -19l26 -9v-723h-180v265q-30 -30 -96 -30q-65 0 -109.5 42.5t-48.5 117.5zM212 168q1 -17 10.5 -27.5t24.5 -10.5q16 0 27.5 11t11.5 26v194q-8 4 -35 4q-38 0 -39 -40q-2 -101 0 -157z" />
<glyph unicode="r" horiz-adv-x="385" d="M10 370v120q33 15 73 15q107 0 129 -116h3q0 49 28.5 85t72.5 36q46 0 69 -25l-10 -135q-12 1 -34 1q-48 0 -74 -16t-27 -60v-275h-180v318q0 29 -11 40.5t-39 11.5z" />
<glyph unicode="s" horiz-adv-x="454" d="M20 165l165 5q1 -18 10.5 -29t25.5 -11q15 0 24 8t9 20q0 6 -1.5 10t-6 7.5t-8.5 6t-13 5t-15.5 4.5t-21 5.5t-24.5 6.5q-32 9 -53.5 18t-44 24.5t-33.5 40.5t-11 59q0 75 61 120t152 45q90 0 144.5 -51.5t46.5 -133.5l-165 -5q0 45 -30 45q-29 0 -29 -27 q0 -17 14.5 -26.5t55.5 -21.5q35 -10 51 -15t42 -17.5t38 -25.5t21.5 -36t9.5 -53q0 -65 -59 -111.5t-149 -46.5q-87 0 -144.5 45.5t-61.5 134.5z" />
<glyph unicode="t" horiz-adv-x="377" d="M-5 370v125h69v109l180 30v-139h119v-125h-119v-172q0 -40 19 -57.5t57 -17.5q35 0 47 2l5 -125q-43 -15 -109 -15q-39 0 -72.5 9t-63 29t-46.5 57.5t-17 88.5v201h-69z" />
<glyph unicode="u" horiz-adv-x="537" d="M35 175v295l180 30v-319q0 -51 37 -51q16 0 26 10.5t12 27.5v303l180 29v-327q0 -30 9.5 -39t42.5 -9v-125q-47 -19 -109.5 -7.5t-94.5 55.5q-6 -10 -15 -21t-39.5 -26.5t-68.5 -15.5q-73 0 -116.5 47.5t-43.5 142.5z" />
<glyph unicode="v" horiz-adv-x="468" d="M-10 495h193l39 -222l16 -101h3q8 45 60 323h177l-135 -495h-213z" />
<glyph unicode="w" horiz-adv-x="747" d="M-5 495h193l27 -227l8 -77h3l12 76l50 228h172l51 -229l13 -74h5q1 8 41 303h182l-116 -495h-209l-38 193l-16 109h-4l-15 -109l-42 -193h-202z" />
<glyph unicode="x" horiz-adv-x="505" d="M-10 0l158 247l-157 248h206l61 -134l65 134h188l-147 -247l151 -248h-204l-67 121l-69 -121h-185z" />
<glyph unicode="y" horiz-adv-x="481" d="M-5 495h190l41 -225l14 -88h2q5 26 64 313h180l-236 -745h-180l83 255z" />
<glyph unicode="z" horiz-adv-x="445" d="M25 115l181 245h-181v135h385l6 -126l-173 -234h187v-135h-400z" />
<glyph unicode="{" horiz-adv-x="359" d="M10 269v65q66 15 66 81v177q0 51 20.5 85t51 47t65 14.5t64.5 -7t47 -22.5l10 -61q-46 0 -67 -15.5t-21 -67.5v-133q0 -53 -35 -91.5t-84 -40.5q49 -3 84 -42t35 -92v-131q0 -52 21 -67.5t67 -15.5l-10 -61q-22 -19 -62.5 -26.5t-82.5 -0.5t-72.5 44t-30.5 100v180 q0 66 -66 81z" />
<glyph unicode="|" horiz-adv-x="240" d="M50 -250v1000h140v-1000h-140z" />
<glyph unicode="}" horiz-adv-x="359" d="M25 -48q46 0 67 15.5t21 67.5v131q0 53 34.5 92t84.5 42q-50 2 -84.5 40.5t-34.5 91.5v133q0 52 -21 67.5t-67 15.5l10 61q17 14 47 22.5t64.5 7t65 -14.5t51 -47t20.5 -85v-177q0 -66 66 -81v-65q-66 -15 -66 -81v-180q0 -63 -30.5 -100t-72.5 -44t-82.5 0.5t-62.5 26.5 z" />
<glyph unicode="~" horiz-adv-x="398" d="M40 207q-14 32 -14.5 68t24 64.5t65.5 28.5q36 0 98 -20t73 -20q4 0 7.5 2t6 4t5.5 7t4 7.5t4 9.5t4 9l40 -13q14 -32 15.5 -68t-21.5 -64.5t-64 -28.5q-30 0 -96.5 20t-74.5 20q-19 0 -36 -39z" />
<glyph unicode="&#xa1;" horiz-adv-x="243" d="M13 -230l52 460h113q50 -424 50 -444zM20 412q0 42 29 70t72 28q42 0 71 -28t29 -70q0 -44 -28.5 -72t-71.5 -28t-72 28t-29 72z" />
<glyph unicode="&#xa2;" horiz-adv-x="468" d="M32 172q-3 88 0 160q3 63 42 107t102 61v69l140 36v-103q66 -16 100 -63.5t29 -118.5l-165 -5q3 22 -6 36t-26 14q-35 0 -36 -40q-3 -74 0 -153q1 -19 12 -30.5t25 -11.5q18 0 27 12.5t7 32.5l165 -5q-2 -63 -36.5 -110.5t-95.5 -65.5v-73l-140 -36v109q-65 16 -103.5 62 t-40.5 116z" />
<glyph unicode="&#xa3;" horiz-adv-x="593" d="M25 265l18 125h65q-1 34 -1 90q0 114 67 179.5t176 65.5q104 0 164.5 -64.5t52.5 -170.5l-185 -5q6 75 -42 75q-43 0 -43 -70q0 -20 2 -100h110l-18 -125h-89v-22q0 -59 -43 -107q67 24 115 24h199l-18 -160h-510l-16 105q3 1 9 2.5t20 8.5t25 17t20 29.5t9 44.5 q0 35 -1 58h-86z" />
<glyph unicode="&#xa5;" horiz-adv-x="621" d="M0 710h212l80 -205l21 -69l22 69l83 205h203l-180 -377h100v-95h-133v-35h133v-95h-133v-108h-200v108h-139v95h139v35h-139v95h107z" />
<glyph unicode="&#xa6;" horiz-adv-x="240" d="M50 165h140v-415h-140v415zM50 345v405h140v-405h-140z" />
<glyph unicode="&#xa7;" horiz-adv-x="501" d="M35 68l165 5q1 -18 11.5 -29t27.5 -11q16 0 25.5 10t9.5 23q0 17 -20.5 29t-64.5 30q-9 3 -13 5q-64 26 -101.5 59.5t-37.5 89.5q0 67 65 103q6 -10 28.5 -19.5t92.5 -34.5q-15 -9 -15 -31q0 -12 10 -22t22 -16t36.5 -16.5t39.5 -18.5q33 -17 50.5 -27.5t41.5 -31.5 t35 -48.5t11 -63.5q0 -68 -60.5 -111.5t-149.5 -43.5t-147 45t-62 125zM57 567q0 71 56 114.5t143 43.5q86 0 136.5 -44.5t49.5 -127.5l-153 -5q0 42 -30 42q-12 0 -19.5 -8.5t-7.5 -22.5q0 -17 15.5 -32.5t34 -25t54.5 -25.5q61 -27 98 -62.5t37 -91.5q0 -72 -62 -97 q-11 12 -33 22t-95 36q13 10 13 32q0 11 -5.5 20t-17.5 17t-24 13.5t-33.5 15t-36.5 17.5q-57 28 -88.5 66.5t-31.5 102.5z" />
<glyph unicode="&#xa8;" horiz-adv-x="464" d="M58 641q0 31 22 53.5t54 22.5q31 0 53 -22.5t22 -53.5t-22 -53t-53 -22t-53.5 22t-22.5 53zM255 641q0 31 22.5 53.5t53.5 22.5t53 -22.5t22 -53.5t-22 -53t-53 -22t-53.5 22t-22.5 53z" />
<glyph unicode="&#xa9;" horiz-adv-x="854" d="M55 327q0 155 108.5 264t263.5 109t264 -109t109 -264t-109 -263.5t-264 -108.5t-263.5 108.5t-108.5 263.5zM175 328q0 -117 71 -192.5t183 -75.5q111 0 181 75.5t70 192.5t-70 192.5t-181 75.5q-112 0 -183 -75.5t-71 -192.5zM265 280q-3 39 0 102q4 68 48.5 105.5 t118.5 37.5q76 0 119.5 -37.5t42.5 -105.5l-130 -5q0 50 -37 50q-31 0 -33 -38q-1 -51 0 -110q2 -40 36 -40q19 0 29.5 14t10.5 35l129 -5q-1 -66 -49.5 -104.5t-120.5 -38.5q-153 0 -164 140z" />
<glyph unicode="&#xaa;" horiz-adv-x="386" d="M25 180v130h336v-130h-336zM25 479q0 33 17 51.5t54 29.5l96 22v20q0 23 -18 23q-23 0 -19 -26l-115 -3q-4 56 35.5 90t103.5 34q58 0 98 -30.5t40 -85.5v-102q0 -19 6.5 -25t27.5 -6v-81q-18 -7 -42 -9t-53 7t-41 35h-1q-11 -18 -34 -30.5t-52 -12.5q-47 0 -75 27.5 t-28 71.5zM149 498q0 -23 22 -23q21 0 21 22v34q-15 -3 -26 -7q-17 -7 -17 -26z" />
<glyph unicode="&#xab;" horiz-adv-x="570" d="M10 262v21l225 208l82 -90l-129 -115v-19l126 -136l-85 -88zM263 262v21l225 208l82 -90l-129 -115v-19l126 -136l-85 -88z" />
<glyph unicode="&#xac;" horiz-adv-x="520" d="M25 185v145h470v-330h-160v185h-310z" />
<glyph unicode="&#xad;" horiz-adv-x="283" d="M15 180v145h253v-145h-253z" />
<glyph unicode="&#xae;" horiz-adv-x="795" d="M25 327q0 155 108.5 264t263.5 109t264 -109t109 -264t-109 -263.5t-264 -108.5t-263.5 108.5t-108.5 263.5zM145 328q0 -117 71 -192.5t183 -75.5q111 0 181 75.5t70 192.5t-70 192.5t-181 75.5q-112 0 -183 -75.5t-71 -192.5zM245 150v365h162q77 0 118 -31t41 -80 q0 -61 -67 -98q17 -16 20 -24l56 -132h-140l-51 134h-9v-134h-130zM375 353h22q39 0 39 34q0 29 -40 29h-21v-63z" />
<glyph unicode="&#xaf;" horiz-adv-x="392" d="M50 545v130h292v-130h-292z" />
<glyph unicode="&#xb0;" horiz-adv-x="330" d="M10 530q0 64 45 109.5t110 45.5t110 -45.5t45 -109.5t-45 -109.5t-110 -45.5t-110 45.5t-45 109.5zM125 530q0 -19 11 -32t29 -13t29 13t11 32t-11 32t-29 13t-29 -13t-11 -32z" />
<glyph unicode="&#xb1;" horiz-adv-x="560" d="M60 304v140h140v154h160v-154h140v-140h-140v-144h-160v144h-140zM84 -15v135h390v-135h-390z" />
<glyph unicode="&#xb2;" horiz-adv-x="399" d="M35 475q19 16 64.5 48.5t61.5 45.5q37 30 50.5 51t13.5 47q0 13 -7 20.5t-18 7.5q-33 0 -33 -45l-130 -5q-4 67 42.5 108.5t125.5 41.5q71 0 113 -36t42 -98q0 -34 -14 -58t-43 -50q-23 -20 -94 -58h165v-105h-328z" />
<glyph unicode="&#xb3;" horiz-adv-x="384" d="M25 510l130 5q0 -35 32 -35q14 0 23 10.5t9 26.5q0 49 -60 49q-4 0 -31 -3l-8 50l68 67h-149v100h297v-72l-78 -88q44 -1 70 -30t26 -72q0 -62 -49.5 -100t-119.5 -38q-68 0 -111.5 32.5t-48.5 97.5z" />
<glyph unicode="&#xb4;" horiz-adv-x="299" d="M40 565l75 145h200l-157 -145h-118z" />
<glyph unicode="&#xb6;" horiz-adv-x="569" d="M15 340q0 80 55.5 132.5t157.5 52.5h24v-371h-24q-102 0 -157.5 53t-55.5 133zM230 0v95h74v480h-74v95h299v-95h-75v-480h75v-95h-299z" />
<glyph unicode="&#xb7;" horiz-adv-x="261" d="M40 255q0 46 28 74.5t71 28.5t71.5 -28.5t28.5 -74.5q0 -44 -28.5 -72t-71.5 -28q-42 0 -70.5 28t-28.5 72z" />
<glyph unicode="&#xb8;" horiz-adv-x="323" d="M42 -141h95q0 -11 7 -20t20 -9q22 0 22 24q0 10 -7 18t-19 8v90q59 0 95 -32.5t36 -81.5q0 -51 -36.5 -83.5t-89.5 -32.5t-90 32.5t-33 86.5z" />
<glyph unicode="&#xb9;" horiz-adv-x="336" d="M40 390v82l72 12v201h-66l-6 72l149 33l58 -5v-300l74 -12v-83h-281z" />
<glyph unicode="&#xba;" horiz-adv-x="355" d="M25 180v130h305v-130h-305zM30 499q-3 50 0 102q3 54 43.5 86.5t105.5 32.5t105.5 -32.5t42.5 -86.5q3 -47 0 -102q-2 -54 -42 -86.5t-106 -32.5t-106 32.5t-43 86.5zM155 504q0 -12 7 -20.5t17 -8.5t16.5 8.5t6.5 20.5q3 44 0 94q0 11 -6.5 19t-16.5 8t-17 -8t-7 -19 q-3 -47 0 -94z" />
<glyph unicode="&#xbb;" horiz-adv-x="570" d="M0 411l92 95l215 -225v-21l-209 -232l-95 93l123 142v19zM253 411l92 95l215 -225v-21l-209 -232l-95 93l123 142v19z" />
<glyph unicode="&#xbc;" horiz-adv-x="921" d="M50 320v82l72 12v201h-66l-6 72l149 33l58 -5v-300l74 -12v-83h-281zM233 0l337 710h130l-337 -710h-130zM508 154l163 246q85 0 149 -5v-215h51v-95h-51v-85h-130v85h-167zM607 180h83v123z" />
<glyph unicode="&#xbd;" horiz-adv-x="947" d="M50 320v82l72 12v201h-66l-6 72l149 33l58 -5v-300l74 -12v-83h-281zM233 0l337 710h130l-337 -710h-130zM558 85q19 16 64.5 48.5t61.5 45.5q37 30 50.5 51t13.5 47q0 13 -7 20.5t-18 7.5q-33 0 -33 -45l-130 -5q-4 67 42.5 108.5t125.5 41.5q71 0 113 -36t42 -98 q0 -34 -14 -58t-43 -50q-23 -20 -94 -58h165v-105h-328z" />
<glyph unicode="&#xbe;" horiz-adv-x="934" d="M50 440l130 5q0 -35 32 -35q14 0 23 10.5t9 26.5q0 49 -60 49q-4 0 -31 -3l-8 50l68 67h-149v100h297v-72l-78 -88q44 -1 70 -30t26 -72q0 -62 -49.5 -100t-119.5 -38q-68 0 -111.5 32.5t-48.5 97.5zM250 0l337 710h130l-337 -710h-130zM521 154l163 246q85 0 149 -5 v-215h51v-95h-51v-85h-130v85h-167zM620 180h83v123z" />
<glyph unicode="&#xbf;" horiz-adv-x="470" d="M-12 -38q0 48 21 80t77 75q10 7 22 16.5t19 15t16 12t14 11t10.5 9.5t8.5 8.5t5.5 8t3.5 8t1 7.5v22h93l6 -25q9 -45 -6 -73t-64 -78q-25 -27 -31 -43t-6 -44q0 -47 41 -47q20 0 32.5 17t11.5 48l175 5q4 -108 -62 -166.5t-169 -58.5q-90 0 -154.5 51t-64.5 141zM128 412 q0 42 29 70t72 28q42 0 71 -28t29 -70q0 -44 -28.5 -72t-71.5 -28t-72 28t-29 72z" />
<glyph unicode="&#xc0;" horiz-adv-x="607" d="M-5 0l160 668v42h295l162 -710h-205l-23 125h-170l-24 -125h-195zM111 859h190l75 -115h-119zM246 285h109l-38 210l-15 92l-15 -92z" />
<glyph unicode="&#xc1;" horiz-adv-x="607" d="M-5 0l160 668v42h295l162 -710h-205l-23 125h-170l-24 -125h-195zM245 746l80 115h195l-157 -115h-118zM246 285h109l-38 210l-15 92l-15 -92z" />
<glyph unicode="&#xc2;" horiz-adv-x="607" d="M-5 0l160 668v42h295l162 -710h-205l-23 125h-170l-24 -125h-195zM123 745l98 115h169l91 -115h-145l-34 53l-39 -53h-140zM246 285h109l-38 210l-15 92l-15 -92z" />
<glyph unicode="&#xc3;" horiz-adv-x="607" d="M-5 0l160 668v42h295l162 -710h-205l-23 125h-170l-24 -125h-195zM171 763q-14 29 -15.5 58t21 51t64.5 22q33 0 72 -19t54 -19q6 0 10 3.5t6 7.5t5 13t5 13l40 -13q16 -28 17 -57.5t-20 -51.5t-62 -22q-26 0 -70 19t-56 19q-4 0 -7 -1t-5.5 -3.5l-4 -4t-4 -6.5l-3.5 -7 t-3.5 -7.5t-3.5 -7.5zM246 285h109l-38 210l-15 92l-15 -92z" />
<glyph unicode="&#xc4;" horiz-adv-x="607" d="M-5 0l160 668v42h295l162 -710h-205l-23 125h-170l-24 -125h-195zM149 818q0 29 20.5 50t50.5 21q28 0 48.5 -21t20.5 -50t-20.5 -49.5t-48.5 -20.5q-30 0 -50.5 20.5t-20.5 49.5zM246 285h109l-38 210l-15 92l-15 -92zM324 818q0 29 20.5 50t49.5 21t49.5 -21t20.5 -50 t-20.5 -49.5t-49.5 -20.5t-49.5 20.5t-20.5 49.5z" />
<glyph unicode="&#xc5;" horiz-adv-x="620" d="M-2 0l157 677l6 33h28q3 -4 10.5 -11t38 -18t71.5 -11q37 0 66.5 10t40.5 20l10 10h37l162 -710h-200l-26 130h-183l-28 -130h-190zM188 805q0 45 33.5 75t85.5 30t85.5 -30t33.5 -75t-33.5 -75.5t-85.5 -30.5t-85.5 30.5t-33.5 75.5zM250 290h117l-42 215l-15 92 l-15 -92zM277 805q0 -12 8.5 -21t21.5 -9t21.5 9t8.5 21t-8.5 21t-21.5 9t-21.5 -9t-8.5 -21z" />
<glyph unicode="&#xc6;" horiz-adv-x="786" d="M-15 0l238 710h523v-165h-189v-105h168v-160h-168v-115h189v-165h-379v120h-140l-37 -120h-205zM276 280h91v293z" />
<glyph unicode="&#xc7;" horiz-adv-x="560" d="M32 222q-3 188 0 271q4 110 82 171t186 61q53 0 98 -15t80 -44t54.5 -77t17.5 -109l-185 -5q0 42 -17.5 63.5t-47.5 21.5t-48.5 -19.5t-19.5 -56.5q-4 -94 0 -252q3 -82 67 -82q29 0 50 22.5t21 62.5l185 -5q0 -110 -70.5 -177.5t-190.5 -67.5q-116 0 -188 63.5 t-74 173.5zM156 -131h95q0 -11 7 -20t20 -9q22 0 22 24q0 10 -7 18t-19 8v90q59 0 95 -32.5t36 -81.5q0 -51 -36.5 -83.5t-89.5 -32.5t-90 32.5t-33 86.5z" />
<glyph unicode="&#xc8;" horiz-adv-x="514" d="M50 0v710h424v-165h-224v-105h203v-160h-203v-115h224v-165h-424zM74 860h190l75 -115h-119z" />
<glyph unicode="&#xc9;" horiz-adv-x="514" d="M50 0v710h424v-165h-224v-105h203v-160h-203v-115h224v-165h-424zM173 745l80 115h195l-157 -115h-118z" />
<glyph unicode="&#xca;" horiz-adv-x="514" d="M50 0v710h424v-165h-224v-105h203v-160h-203v-115h224v-165h-424zM87 745l98 115h169l91 -115h-145l-34 53l-39 -53h-140z" />
<glyph unicode="&#xcb;" horiz-adv-x="514" d="M50 0v710h424v-165h-224v-105h203v-160h-203v-115h224v-165h-424zM115 820q0 29 20.5 50t50.5 21q28 0 48.5 -21t20.5 -50t-20.5 -49.5t-48.5 -20.5q-30 0 -50.5 20.5t-20.5 49.5zM290 820q0 29 20.5 50t49.5 21t49.5 -21t20.5 -50t-20.5 -49.5t-49.5 -20.5t-49.5 20.5 t-20.5 49.5z" />
<glyph unicode="&#xcc;" horiz-adv-x="300" d="M-25 860h190l75 -115h-119zM50 0v710h200v-710h-200z" />
<glyph unicode="&#xcd;" horiz-adv-x="300" d="M50 0v710h200v-710h-200zM71 745l80 115h195l-157 -115h-118z" />
<glyph unicode="&#xce;" horiz-adv-x="300" d="M-31 745l98 115h169l91 -115h-145l-34 53l-39 -53h-140zM50 0v710h200v-710h-200z" />
<glyph unicode="&#xcf;" horiz-adv-x="300" d="M-3 819q0 29 20.5 50t50.5 21q28 0 48.5 -21t20.5 -50t-20.5 -49.5t-48.5 -20.5q-30 0 -50.5 20.5t-20.5 49.5zM50 0v710h200v-710h-200zM172 819q0 29 20.5 50t49.5 21t49.5 -21t20.5 -50t-20.5 -49.5t-49.5 -20.5t-49.5 20.5t-20.5 49.5z" />
<glyph unicode="&#xd0;" horiz-adv-x="616" d="M0 285v133l55 1v291q90 5 186 5q315 0 332 -235q12 -161 5 -256q-17 -229 -345 -229l-178 5v283zM250 162q1 -2 25 -2q92 0 99 84q8 96 0 223q-5 83 -96 83l-28 -2v-128l63 -2v-133l-63 -2v-121z" />
<glyph unicode="&#xd1;" horiz-adv-x="663" d="M50 0v710h173l176 -330l24 -67v397h190v-710h-176l-168 292l-29 82v-374h-190zM196 764q-14 29 -15.5 58t21 51t64.5 22q32 0 72 -19t54 -19q6 0 10 3.5t6 7.5t5 13t5 13l40 -13q16 -28 17 -57.5t-20 -51.5t-62 -22q-26 0 -70 19t-56 19q-4 0 -7 -1t-5.5 -3.5l-4 -4 t-4 -6.5l-3.5 -7t-3.5 -7.5t-3.5 -7.5z" />
<glyph unicode="&#xd2;" horiz-adv-x="602" d="M33 230q-5 120 0 251q4 116 79.5 180t189.5 64t189 -64t79 -180q4 -118 0 -253q-3 -116 -79 -179.5t-190 -63.5t-188.5 63.5t-79.5 181.5zM106 860h190l75 -115h-119zM233 225q4 -75 68 -75q65 0 69 75q6 124 0 265q-3 70 -68 70t-69 -70q-3 -46 -3 -132t3 -133z" />
<glyph unicode="&#xd3;" horiz-adv-x="602" d="M33 230q-5 120 0 251q4 116 79.5 180t189.5 64t189 -64t79 -180q4 -118 0 -253q-3 -116 -79 -179.5t-190 -63.5t-188.5 63.5t-79.5 181.5zM230 745l80 115h195l-157 -115h-118zM233 225q4 -75 68 -75q65 0 69 75q6 124 0 265q-3 70 -68 70t-69 -70q-3 -46 -3 -132t3 -133 z" />
<glyph unicode="&#xd4;" horiz-adv-x="602" d="M33 230q-5 120 0 251q4 116 79.5 180t189.5 64t189 -64t79 -180q4 -118 0 -253q-3 -116 -79 -179.5t-190 -63.5t-188.5 63.5t-79.5 181.5zM125 745l98 115h169l91 -115h-145l-34 53l-39 -53h-140zM233 225q4 -75 68 -75q65 0 69 75q6 124 0 265q-3 70 -68 70t-69 -70 q-3 -46 -3 -132t3 -133z" />
<glyph unicode="&#xd5;" horiz-adv-x="602" d="M33 230q-5 120 0 251q4 116 79.5 180t189.5 64t189 -64t79 -180q4 -118 0 -253q-3 -116 -79 -179.5t-190 -63.5t-188.5 63.5t-79.5 181.5zM171 763q-14 29 -15.5 58t21 51t64.5 22q33 0 72 -19t54 -19q6 0 10 3.5t6 7.5t5 13t5 13l40 -13q16 -28 17 -57.5t-20 -51.5 t-62 -22q-26 0 -70 19t-56 19q-4 0 -7 -1t-5.5 -3.5l-4 -4t-4 -6.5l-3.5 -7t-3.5 -7.5t-3.5 -7.5zM233 225q4 -75 68 -75q65 0 69 75q6 124 0 265q-3 70 -68 70t-69 -70q-3 -46 -3 -132t3 -133z" />
<glyph unicode="&#xd6;" horiz-adv-x="602" d="M33 230q-5 120 0 251q4 116 79.5 180t189.5 64t189 -64t79 -180q4 -118 0 -253q-3 -116 -79 -179.5t-190 -63.5t-188.5 63.5t-79.5 181.5zM148 819q0 29 20.5 50t50.5 21q28 0 48.5 -21t20.5 -50t-20.5 -49.5t-48.5 -20.5q-30 0 -50.5 20.5t-20.5 49.5zM233 225 q4 -75 68 -75q65 0 69 75q6 124 0 265q-3 70 -68 70t-69 -70q-3 -46 -3 -132t3 -133zM323 819q0 29 20.5 50t49.5 21t49.5 -21t20.5 -50t-20.5 -49.5t-49.5 -20.5t-49.5 20.5t-20.5 49.5z" />
<glyph unicode="&#xd7;" horiz-adv-x="542" d="M25 99l143 141l-140 136l108 113l140 -143l146 144l95 -99l-142 -141l141 -137l-108 -113l-142 145l-143 -145z" />
<glyph unicode="&#xd8;" horiz-adv-x="617" d="M15 -15l68 99q-44 60 -47 146q-5 120 0 251q4 116 79.5 180t189.5 64q87 0 153 -39l29 39h105l-65 -101q43 -61 46 -143q4 -118 0 -253q-3 -116 -79 -179.5t-190 -63.5q-86 0 -152 37l-27 -37h-110zM233 297l130 232q-16 31 -58 31q-65 0 -69 -70q-5 -69 -3 -193z M251 174q17 -24 53 -24q65 0 69 75q2 35 2 164z" />
<glyph unicode="&#xd9;" horiz-adv-x="605" d="M42 217v493h191q-1 -55 -1 -238.5t1 -240.5q1 -38 20.5 -59.5t50.5 -21.5t48.5 21.5t19.5 59.5q1 54 1 236.5t-1 242.5h191q3 -253 0 -495q-1 -108 -77.5 -169t-185.5 -61q-108 0 -182.5 61t-75.5 171zM101 860h190l75 -115h-119z" />
<glyph unicode="&#xda;" horiz-adv-x="605" d="M42 217v493h191q-1 -55 -1 -238.5t1 -240.5q1 -38 20.5 -59.5t50.5 -21.5t48.5 21.5t19.5 59.5q1 54 1 236.5t-1 242.5h191q3 -253 0 -495q-1 -108 -77.5 -169t-185.5 -61q-108 0 -182.5 61t-75.5 171zM237 745l80 115h195l-157 -115h-118z" />
<glyph unicode="&#xdb;" horiz-adv-x="605" d="M42 217v493h191q-1 -55 -1 -238.5t1 -240.5q1 -38 20.5 -59.5t50.5 -21.5t48.5 21.5t19.5 59.5q1 54 1 236.5t-1 242.5h191q3 -253 0 -495q-1 -108 -77.5 -169t-185.5 -61q-108 0 -182.5 61t-75.5 171zM125 745l98 115h169l91 -115h-145l-34 53l-39 -53h-140z" />
<glyph unicode="&#xdc;" horiz-adv-x="605" d="M42 217v493h191q-1 -55 -1 -238.5t1 -240.5q1 -38 20.5 -59.5t50.5 -21.5t48.5 21.5t19.5 59.5q1 54 1 236.5t-1 242.5h191q3 -253 0 -495q-1 -108 -77.5 -169t-185.5 -61q-108 0 -182.5 61t-75.5 171zM151 820q0 29 20.5 50t50.5 21q28 0 48.5 -21t20.5 -50t-20.5 -49.5 t-48.5 -20.5q-30 0 -50.5 20.5t-20.5 49.5zM326 820q0 29 20.5 50t49.5 21t49.5 -21t20.5 -50t-20.5 -49.5t-49.5 -20.5t-49.5 20.5t-20.5 49.5z" />
<glyph unicode="&#xdd;" horiz-adv-x="581" d="M-20 710h212l80 -205l21 -69l22 69l83 205h203l-213 -446v-264h-200v265zM228 745l80 115h195l-157 -115h-118z" />
<glyph unicode="&#xde;" horiz-adv-x="585" d="M50 0v710h200v-100h75q124 0 192 -71.5t68 -169.5q0 -97 -65 -168t-181 -71h-89v-130h-200zM250 290h54q39 0 60 21.5t21 58.5q0 75 -83 75h-52v-155z" />
<glyph unicode="&#xdf;" horiz-adv-x="566" d="M45 0v528q0 105 75 163.5t179 58.5q94 0 157.5 -47.5t63.5 -134.5q0 -40 -12.5 -58.5t-50.5 -44.5q-58 -39 -112 -66q75 14 133 -25t62 -124q2 -40 0 -86q-3 -82 -57.5 -125.5t-145.5 -43.5q-33 0 -70 6v126q10 -2 36 -2q55 0 57 40q2 38 0 72q-1 26 -28 38.5t-55 6.5 v179q45 36 56 48t11 31q0 65 -55 65q-29 0 -46.5 -17.5t-17.5 -46.5v-541h-180z" />
<glyph unicode="&#xe0;" d="M30 137q0 50 24.5 79.5t80.5 45.5q30 9 65 17.5t55 12.5l20 4v34q0 35 -27 35q-15 0 -24 -10t-6 -30l-165 -5q-7 87 49 138.5t153 51.5q88 0 144 -46.5t56 -132.5v-158q0 -30 9.5 -39t42.5 -9v-125q-27 -10 -61 -13t-75 12t-60 52h-2q-49 -66 -132 -66q-63 0 -105 43 t-42 109zM73 710h185l80 -145h-119zM210 163q0 -38 33 -38q14 0 23 9t9 25v58q-22 -5 -39 -11q-26 -9 -26 -43z" />
<glyph unicode="&#xe1;" d="M30 137q0 50 24.5 79.5t80.5 45.5q30 9 65 17.5t55 12.5l20 4v34q0 35 -27 35q-15 0 -24 -10t-6 -30l-165 -5q-7 87 49 138.5t153 51.5q88 0 144 -46.5t56 -132.5v-158q0 -30 9.5 -39t42.5 -9v-125q-27 -10 -61 -13t-75 12t-60 52h-2q-49 -66 -132 -66q-63 0 -105 43 t-42 109zM172 565l75 145h200l-157 -145h-118zM210 163q0 -38 33 -38q14 0 23 9t9 25v58q-22 -5 -39 -11q-26 -9 -26 -43z" />
<glyph unicode="&#xe2;" d="M30 137q0 50 24.5 79.5t80.5 45.5q30 9 65 17.5t55 12.5l20 4v34q0 35 -27 35q-15 0 -24 -10t-6 -30l-165 -5q-7 87 49 138.5t153 51.5q88 0 144 -46.5t56 -132.5v-158q0 -30 9.5 -39t42.5 -9v-125q-27 -10 -61 -13t-75 12t-60 52h-2q-49 -66 -132 -66q-63 0 -105 43 t-42 109zM51 545l118 145h159l111 -145h-150l-44 63l-49 -63h-145zM210 163q0 -38 33 -38q14 0 23 9t9 25v58q-22 -5 -39 -11q-26 -9 -26 -43z" />
<glyph unicode="&#xe3;" d="M30 137q0 50 24.5 79.5t80.5 45.5q30 9 65 17.5t55 12.5l20 4v34q0 35 -27 35q-15 0 -24 -10t-6 -30l-165 -5q-7 87 49 138.5t153 51.5q88 0 144 -46.5t56 -132.5v-158q0 -30 9.5 -39t42.5 -9v-125q-27 -10 -61 -13t-75 12t-60 52h-2q-49 -66 -132 -66q-63 0 -105 43 t-42 109zM102 575q-14 32 -14.5 64.5t22.5 57t62 24.5t88.5 -21.5t62.5 -21.5q8 0 12 5.5t8 19t6 17.5l40 -13q14 -32 15.5 -64.5t-20 -57t-60.5 -24.5q-33 0 -86.5 21.5t-64.5 21.5q-5 0 -9 -2.5t-7 -7.5t-5 -9t-5.5 -12t-4.5 -11zM210 163q0 -38 33 -38q14 0 23 9t9 25v58 q-22 -5 -39 -11q-26 -9 -26 -43z" />
<glyph unicode="&#xe4;" d="M30 137q0 50 24.5 79.5t80.5 45.5q30 9 65 17.5t55 12.5l20 4v34q0 35 -27 35q-15 0 -24 -10t-6 -30l-165 -5q-7 87 49 138.5t153 51.5q88 0 144 -46.5t56 -132.5v-158q0 -30 9.5 -39t42.5 -9v-125q-27 -10 -61 -13t-75 12t-60 52h-2q-49 -66 -132 -66q-63 0 -105 43 t-42 109zM74 635q0 31 22 53.5t54 22.5q31 0 53 -22.5t22 -53.5t-22 -53t-53 -22t-53.5 22t-22.5 53zM210 163q0 -38 33 -38q14 0 23 9t9 25v58q-22 -5 -39 -11q-26 -9 -26 -43zM271 635q0 31 22.5 53.5t53.5 22.5t53 -22.5t22 -53.5t-22 -53t-53 -22t-53.5 22t-22.5 53z " />
<glyph unicode="&#xe5;" d="M30 137q0 50 24.5 79.5t80.5 45.5q30 9 65 17.5t55 12.5l20 4v34q0 35 -27 35q-15 0 -24 -10t-6 -30l-165 -5q-7 87 49 138.5t153 51.5q88 0 144 -46.5t56 -132.5v-158q0 -30 9.5 -39t42.5 -9v-125q-27 -10 -61 -13t-75 12t-60 52h-2q-49 -66 -132 -66q-63 0 -105 43 t-42 109zM129 645q0 45 33.5 75t85.5 30t85.5 -30t33.5 -75t-33.5 -75.5t-85.5 -30.5t-85.5 30.5t-33.5 75.5zM210 163q0 -38 33 -38q14 0 23 9t9 25v58q-22 -5 -39 -11q-26 -9 -26 -43zM218 645q0 -12 8.5 -21t21.5 -9t21.5 9t8.5 21t-8.5 21t-21.5 9t-21.5 -9t-8.5 -21z " />
<glyph unicode="&#xe6;" horiz-adv-x="721" d="M30 137q0 51 24.5 80.5t80.5 44.5q30 8 65 15t55 10l20 3v40q0 35 -27 35q-15 0 -24 -10t-6 -30l-165 -5q-7 87 49 138.5t153 51.5q71 0 120 -31q50 31 118 31q86 0 144.5 -46t58.5 -129q0 -50 -25 -69.5t-86 -34.5q-27 -7 -60.5 -12.5t-52.5 -7.5l-20 -2v-37 q0 -26 17.5 -36.5t36 -1t19.5 35.5l165 -5q-3 -82 -59.5 -131t-142.5 -49q-112 0 -165 71q-48 -71 -146 -71q-63 0 -105 43t-42 109zM210 163q0 -38 33 -38q14 0 23 9t9 25v57q-22 -4 -39 -10q-26 -9 -26 -43zM452 287q17 1 34 5q18 4 24 11t6 25q0 37 -31 37q-33 0 -33 -35 v-43z" />
<glyph unicode="&#xe7;" horiz-adv-x="468" d="M32 172q-3 88 0 160q4 82 65.5 130t150.5 48q98 0 151 -51t46 -139l-165 -5q3 22 -6 36t-26 14q-35 0 -36 -40q-3 -74 0 -153q1 -19 12 -30.5t25 -11.5q18 0 27 12.5t7 32.5l165 -5q-2 -80 -55.5 -132.5t-143.5 -52.5q-95 0 -154.5 49.5t-62.5 137.5zM113 -131h95 q0 -11 7 -20t20 -9q22 0 22 24q0 10 -7 18t-19 8v90q59 0 95 -32.5t36 -81.5q0 -51 -36.5 -83.5t-89.5 -32.5t-90 32.5t-33 86.5z" />
<glyph unicode="&#xe8;" horiz-adv-x="480" d="M32 172q-3 70 0 145q3 86 65.5 139.5t154.5 53.5q87 0 145 -46t58 -131q0 -50 -25 -72t-86 -35l-133 -23v-31q0 -19 9.5 -30.5t26.5 -11.5q16 0 26 10.5t11 29.5l165 -5q-3 -82 -59.5 -131t-142.5 -49q-89 0 -150 48t-65 139zM42 710h185l80 -145h-119zM211 282 q17 1 34 5q18 4 24 11.5t6 29.5q0 37 -31 37q-33 0 -33 -35v-48z" />
<glyph unicode="&#xe9;" horiz-adv-x="480" d="M32 172q-3 70 0 145q3 86 65.5 139.5t154.5 53.5q87 0 145 -46t58 -131q0 -50 -25 -72t-86 -35l-133 -23v-31q0 -19 9.5 -30.5t26.5 -11.5q16 0 26 10.5t11 29.5l165 -5q-3 -82 -59.5 -131t-142.5 -49q-89 0 -150 48t-65 139zM159 565l75 145h200l-157 -145h-118z M211 282q17 1 34 5q18 4 24 11.5t6 29.5q0 37 -31 37q-33 0 -33 -35v-48z" />
<glyph unicode="&#xea;" horiz-adv-x="480" d="M32 172q-3 70 0 145q3 86 65.5 139.5t154.5 53.5q87 0 145 -46t58 -131q0 -50 -25 -72t-86 -35l-133 -23v-31q0 -19 9.5 -30.5t26.5 -11.5q16 0 26 10.5t11 29.5l165 -5q-3 -82 -59.5 -131t-142.5 -49q-89 0 -150 48t-65 139zM47 545l118 145h159l111 -145h-150l-44 63 l-49 -63h-145zM211 282q17 1 34 5q18 4 24 11.5t6 29.5q0 37 -31 37q-33 0 -33 -35v-48z" />
<glyph unicode="&#xeb;" horiz-adv-x="480" d="M32 172q-3 70 0 145q3 86 65.5 139.5t154.5 53.5q87 0 145 -46t58 -131q0 -50 -25 -72t-86 -35l-133 -23v-31q0 -19 9.5 -30.5t26.5 -11.5q16 0 26 10.5t11 29.5l165 -5q-3 -82 -59.5 -131t-142.5 -49q-89 0 -150 48t-65 139zM69 625q0 31 22.5 53.5t53.5 22.5t53 -22.5 t22 -53.5t-22 -53t-53 -22t-53.5 22t-22.5 53zM211 282q17 1 34 5q18 4 24 11.5t6 29.5q0 37 -31 37q-33 0 -33 -35v-48zM266 625q0 31 22 53.5t54 22.5q31 0 53 -22.5t22 -53.5t-22 -53t-53 -22t-53.5 22t-22.5 53z" />
<glyph unicode="&#xec;" horiz-adv-x="293" d="M-49 710h185l80 -145h-119zM40 137v332l180 31v-331q0 -27 14.5 -35.5t43.5 -8.5v-125q-40 -9 -76 -9.5t-75.5 9t-63 44.5t-23.5 93z" />
<glyph unicode="&#xed;" horiz-adv-x="293" d="M40 137v332l180 31v-331q0 -27 14.5 -35.5t43.5 -8.5v-125q-40 -9 -76 -9.5t-75.5 9t-63 44.5t-23.5 93zM55 565l75 145h200l-157 -145h-118z" />
<glyph unicode="&#xee;" horiz-adv-x="293" d="M-59 545l118 145h159l111 -145h-150l-44 63l-49 -63h-145zM40 137v332l180 31v-331q0 -27 14.5 -35.5t43.5 -8.5v-125q-40 -9 -76 -9.5t-75.5 9t-63 44.5t-23.5 93z" />
<glyph unicode="&#xef;" horiz-adv-x="293" d="M-36 625q0 31 22 53.5t54 22.5q31 0 53 -22.5t22 -53.5t-22 -53t-53 -22t-53.5 22t-22.5 53zM40 137v332l180 31v-331q0 -27 14.5 -35.5t43.5 -8.5v-125q-40 -9 -76 -9.5t-75.5 9t-63 44.5t-23.5 93zM161 625q0 31 22.5 53.5t53.5 22.5t53 -22.5t22 -53.5t-22 -53 t-53 -22t-53.5 22t-22.5 53z" />
<glyph unicode="&#xf0;" horiz-adv-x="507" d="M31 546l142 91q-51 46 -119 74l112 29q52 -7 106 -39l61 39h133l-131 -85q130 -119 130 -330q3 -78 0 -170q-3 -79 -65 -124.5t-153 -45.5q-90 0 -150.5 44t-64.5 122q-3 56 0 147q3 87 50.5 132t114.5 45q50 0 80 -20q-16 73 -55 128l-57 -37h-134zM212 159 q1 -18 12 -28.5t25 -10.5q13 0 24 10.5t12 28.5q4 78 1 143q-1 18 -11 28t-25 10q-36 0 -38 -38q-3 -71 0 -143z" />
<glyph unicode="&#xf1;" horiz-adv-x="535" d="M10 370v120q33 15 73 15q87 0 128 -65h2q44 70 134 70q68 0 110.5 -44t42.5 -135v-331h-180v326q0 39 -35 39q-22 0 -33 -14.5t-12 -28.5v-322h-180v318q0 29 -11 40.5t-39 11.5zM126 575q-14 32 -14.5 64.5t22.5 57t62 24.5t88.5 -21.5t62.5 -21.5q8 0 12 5.5t8 19 t6 17.5l40 -13q14 -32 15.5 -64.5t-20 -57t-60.5 -24.5q-33 0 -86.5 21.5t-64.5 21.5q-5 0 -9 -2.5t-7 -7.5t-5 -9t-5.5 -12t-4.5 -11z" />
<glyph unicode="&#xf2;" horiz-adv-x="497" d="M32 165q-3 79 0 164q3 81 64.5 131t152.5 50t151.5 -50t64.5 -131q3 -76 0 -165q-3 -81 -63.5 -130t-152.5 -49t-152.5 49t-64.5 131zM41 710h185l80 -145h-119zM212 173q1 -19 11.5 -31t25.5 -12t25 12t11 31q3 71 0 151q-1 17 -11 29t-25 12t-25.5 -12t-11.5 -29 q-3 -75 0 -151z" />
<glyph unicode="&#xf3;" horiz-adv-x="497" d="M32 165q-3 79 0 164q3 81 64.5 131t152.5 50t151.5 -50t64.5 -131q3 -76 0 -165q-3 -81 -63.5 -130t-152.5 -49t-152.5 49t-64.5 131zM184 566l75 145h200l-157 -145h-118zM212 173q1 -19 11.5 -31t25.5 -12t25 12t11 31q3 71 0 151q-1 17 -11 29t-25 12t-25.5 -12 t-11.5 -29q-3 -75 0 -151z" />
<glyph unicode="&#xf4;" horiz-adv-x="497" d="M32 165q-3 79 0 164q3 81 64.5 131t152.5 50t151.5 -50t64.5 -131q3 -76 0 -165q-3 -81 -63.5 -130t-152.5 -49t-152.5 49t-64.5 131zM56 545l118 145h159l111 -145h-150l-44 63l-49 -63h-145zM212 173q1 -19 11.5 -31t25.5 -12t25 12t11 31q3 71 0 151q-1 17 -11 29 t-25 12t-25.5 -12t-11.5 -29q-3 -75 0 -151z" />
<glyph unicode="&#xf5;" horiz-adv-x="497" d="M32 165q-3 79 0 164q3 81 64.5 131t152.5 50t151.5 -50t64.5 -131q3 -76 0 -165q-3 -81 -63.5 -130t-152.5 -49t-152.5 49t-64.5 131zM105 575q-14 32 -14.5 64.5t22.5 57t62 24.5t88.5 -21.5t62.5 -21.5q8 0 12 5.5t8 19t6 17.5l40 -13q14 -32 15.5 -64.5t-20 -57 t-60.5 -24.5q-33 0 -86.5 21.5t-64.5 21.5q-5 0 -9 -2.5t-7 -7.5t-5 -9t-5.5 -12t-4.5 -11zM212 173q1 -19 11.5 -31t25.5 -12t25 12t11 31q3 71 0 151q-1 17 -11 29t-25 12t-25.5 -12t-11.5 -29q-3 -75 0 -151z" />
<glyph unicode="&#xf6;" horiz-adv-x="497" d="M32 165q-3 79 0 164q3 81 64.5 131t152.5 50t151.5 -50t64.5 -131q3 -76 0 -165q-3 -81 -63.5 -130t-152.5 -49t-152.5 49t-64.5 131zM75 625q0 31 22.5 53.5t53.5 22.5t53 -22.5t22 -53.5t-22 -53t-53 -22t-53.5 22t-22.5 53zM212 173q1 -19 11.5 -31t25.5 -12t25 12 t11 31q3 71 0 151q-1 17 -11 29t-25 12t-25.5 -12t-11.5 -29q-3 -75 0 -151zM272 625q0 31 22 53.5t54 22.5q31 0 53 -22.5t22 -53.5t-22 -53t-53 -22t-53.5 22t-22.5 53z" />
<glyph unicode="&#xf7;" horiz-adv-x="512" d="M25 180v145h462v-145h-462zM160 55q0 43 27 70.5t67 27.5t67.5 -27.5t27.5 -70.5q0 -41 -27.5 -68t-67.5 -27q-39 0 -66.5 27t-27.5 68zM161 447q0 43 27 70.5t67 27.5t67.5 -27.5t27.5 -70.5q0 -41 -27.5 -68t-67.5 -27q-39 0 -66.5 27t-27.5 68z" />
<glyph unicode="&#xf8;" horiz-adv-x="507" d="M37 -15l44 68q-41 46 -44 112q-3 79 0 164q3 81 64.5 131t152.5 50q65 0 115 -26l18 26h95l-51 -76q36 -44 39 -105q3 -76 0 -165q-3 -81 -63.5 -130t-152.5 -49q-56 0 -108 21l-14 -21h-95zM215 231l67 117q-10 17 -28 17q-15 0 -25.5 -12t-11.5 -29q-2 -56 -2 -93z M229 140q10 -10 25 -10q9 0 16 3.5t11 12t6.5 16t3.5 21t1 22t-0.5 24t-0.5 22.5z" />
<glyph unicode="&#xf9;" horiz-adv-x="537" d="M35 175v295l180 30v-319q0 -51 37 -51q18 0 28 11.5t10 30.5v299l180 29v-327q0 -30 9.5 -39t42.5 -9v-125q-47 -19 -109.5 -7.5t-94.5 55.5q-6 -10 -15 -21t-39.5 -26.5t-68.5 -15.5q-73 0 -116.5 47.5t-43.5 142.5zM85 710h185l80 -145h-119z" />
<glyph unicode="&#xfa;" horiz-adv-x="537" d="M35 175v295l180 30v-319q0 -51 37 -51q35 0 38 36v305l180 29v-327q0 -30 9.5 -39t42.5 -9v-125q-47 -19 -109.5 -7.5t-94.5 55.5q-6 -10 -15 -21t-39.5 -26.5t-68.5 -15.5q-73 0 -116.5 47.5t-43.5 142.5zM179 565l75 145h200l-157 -145h-118z" />
<glyph unicode="&#xfb;" horiz-adv-x="537" d="M35 175v295l180 30v-319q0 -51 37 -51q16 0 26 10.5t12 27.5v303l180 29v-327q0 -30 9.5 -39t42.5 -9v-125q-47 -19 -109.5 -7.5t-94.5 55.5q-6 -10 -15 -21t-39.5 -26.5t-68.5 -15.5q-73 0 -116.5 47.5t-43.5 142.5zM58 545l118 145h159l111 -145h-150l-44 63l-49 -63 h-145z" />
<glyph unicode="&#xfc;" horiz-adv-x="537" d="M35 175v295l180 30v-319q0 -51 37 -51q16 0 26 10.5t12 27.5v303l180 29v-327q0 -30 9.5 -39t42.5 -9v-125q-47 -19 -109.5 -7.5t-94.5 55.5q-6 -10 -15 -21t-39.5 -26.5t-68.5 -15.5q-73 0 -116.5 47.5t-43.5 142.5zM80 625q0 31 22 53.5t54 22.5q31 0 53 -22.5 t22 -53.5t-22 -53t-53 -22t-53.5 22t-22.5 53zM277 625q0 31 22.5 53.5t53.5 22.5t53 -22.5t22 -53.5t-22 -53t-53 -22t-53.5 22t-22.5 53z" />
<glyph unicode="&#xfd;" horiz-adv-x="481" d="M-5 495h190l41 -225l14 -88h2q5 26 64 313h180l-236 -745h-180l83 255zM159 565l75 145h200l-157 -145h-118z" />
<glyph unicode="&#xfe;" horiz-adv-x="514" d="M45 -250v970l180 30v-285q4 5 12 12.5t37 20t63 12.5q63 0 103 -40t42 -110q3 -92 0 -192q-3 -91 -51.5 -137t-127.5 -46q-21 0 -40.5 4t-28.5 8l-9 4v-251h-180zM225 171q0 -20 10.5 -30.5t27.5 -10.5q18 0 28.5 11.5t10.5 28.5q1 73 0 157q0 38 -34 38q-19 0 -30.5 -12 t-12.5 -31v-151z" />
<glyph unicode="&#xff;" horiz-adv-x="481" d="M-5 495h190l41 -225l14 -88h2q5 26 64 313h180l-236 -745h-180l83 255zM70 625q0 31 22 53.5t54 22.5q31 0 53 -22.5t22 -53.5t-22 -53t-53 -22q-21 0 -38.5 10t-27.5 27.5t-10 37.5zM267 625q0 31 22 53.5t54 22.5q20 0 37.5 -10t27.5 -27.5t10 -38.5q0 -31 -22 -53 t-53 -22q-21 0 -38.5 10t-27.5 27.5t-10 37.5z" />
<glyph unicode="&#x152;" horiz-adv-x="814" d="M33 230q-5 120 0 251q4 116 79.5 180t189.5 64q54 0 96 -15h376v-165h-229v-105h208v-160h-208v-115h229v-165h-377q-42 -15 -96 -15q-114 0 -188.5 63.5t-79.5 181.5zM233 225q4 -75 68 -75q40 0 54 15v379q-16 16 -53 16q-65 0 -69 -70q-3 -46 -3 -132t3 -133z" />
<glyph unicode="&#x153;" horiz-adv-x="736" d="M32 165q-3 79 0 164q3 81 64.5 131t152.5 50q75 0 130 -35q57 35 129 35q87 0 145 -46t58 -131q0 -50 -25 -72t-86 -35l-133 -23v-31q0 -19 9.5 -30.5t26.5 -11.5q16 0 26 10.5t11 29.5l165 -5q-3 -82 -59.5 -131t-142.5 -49q-74 0 -127 31q-56 -31 -127 -31 q-92 0 -152.5 49t-64.5 131zM212 173q1 -19 11.5 -31t25.5 -12t25 12t11 31q3 71 0 151q-1 17 -11 29t-25 12t-25.5 -12t-11.5 -29q-3 -75 0 -151zM467 282q17 1 34 5q18 4 24 11.5t6 29.5q0 37 -31 37q-33 0 -33 -35v-48z" />
<glyph unicode="&#x178;" horiz-adv-x="581" d="M-20 710h212l80 -205l21 -69l22 69l83 205h203l-213 -446v-264h-200v265zM120 825q0 31 22 53.5t54 22.5q31 0 53 -22.5t22 -53.5t-22 -53t-53 -22t-53.5 22t-22.5 53zM317 825q0 31 22.5 53.5t53.5 22.5t53 -22.5t22 -53.5t-22 -53t-53 -22t-53.5 22t-22.5 53z" />
<glyph unicode="&#x2c6;" horiz-adv-x="398" d="M5 565l118 145h159l111 -145h-150l-44 63l-49 -63h-145z" />
<glyph unicode="&#x2dc;" horiz-adv-x="418" d="M65 595q-14 32 -14.5 64.5t22.5 57t62 24.5t88.5 -21.5t62.5 -21.5q8 0 12 5.5t8 19t6 17.5l40 -13q14 -32 15.5 -64.5t-20 -57t-60.5 -24.5q-33 0 -86.5 21.5t-64.5 21.5q-5 0 -9 -2.5t-7 -7.5t-5 -9t-5.5 -12t-4.5 -11z" />
<glyph unicode="&#x2000;" horiz-adv-x="455" />
<glyph unicode="&#x2001;" horiz-adv-x="910" />
<glyph unicode="&#x2002;" horiz-adv-x="455" />
<glyph unicode="&#x2003;" horiz-adv-x="910" />
<glyph unicode="&#x2004;" horiz-adv-x="303" />
<glyph unicode="&#x2005;" horiz-adv-x="227" />
<glyph unicode="&#x2006;" horiz-adv-x="151" />
<glyph unicode="&#x2007;" horiz-adv-x="151" />
<glyph unicode="&#x2008;" horiz-adv-x="113" />
<glyph unicode="&#x2009;" horiz-adv-x="182" />
<glyph unicode="&#x200a;" horiz-adv-x="50" />
<glyph unicode="&#x2010;" horiz-adv-x="283" d="M15 180v145h253v-145h-253z" />
<glyph unicode="&#x2011;" horiz-adv-x="283" d="M15 180v145h253v-145h-253z" />
<glyph unicode="&#x2012;" horiz-adv-x="283" d="M15 180v145h253v-145h-253z" />
<glyph unicode="&#x2013;" horiz-adv-x="472" d="M15 180v145h442v-145h-442z" />
<glyph unicode="&#x2014;" horiz-adv-x="586" d="M15 180v145h556v-145h-556z" />
<glyph unicode="&#x2018;" horiz-adv-x="250" d="M25 501q0 56 20.5 100t52.5 69t63 38.5t60 16.5l34 -51q-48 -14 -75.5 -39.5t-31.5 -44.5l-4 -18q38 -2 63.5 -29.5t25.5 -70.5q0 -44 -30 -70t-69 -26q-51 0 -80 35t-29 90z" />
<glyph unicode="&#x2019;" horiz-adv-x="250" d="M5 432q48 14 75.5 39.5t31.5 44.5l4 18q-38 2 -63.5 29.5t-25.5 70.5q0 44 30 70t69 26q51 0 80 -35t29 -90q0 -56 -20.5 -100t-52.5 -69t-63 -38.5t-60 -16.5z" />
<glyph unicode="&#x201a;" horiz-adv-x="238" d="M-5 -118q48 14 75.5 39.5t31.5 44.5l4 18q-38 2 -63.5 29.5t-25.5 70.5q0 44 30 70t69 26q51 0 80 -35t29 -90q0 -56 -20.5 -100t-52.5 -69t-63 -38.5t-60 -16.5z" />
<glyph unicode="&#x201c;" horiz-adv-x="473" d="M25 501q0 56 20.5 100t52.5 69t63 38.5t60 16.5l34 -51q-48 -14 -75.5 -39.5t-31.5 -44.5l-4 -18q38 -2 63.5 -29.5t25.5 -70.5q0 -44 -30 -70t-69 -26q-51 0 -80 35t-29 90zM248 501q0 56 20.5 100t52.5 69t63 38.5t60 16.5l34 -51q-30 -9 -52.5 -22.5t-33.5 -27 t-17 -25.5t-7 -19l-1 -8q38 -2 63.5 -29.5t25.5 -70.5q0 -44 -30 -70t-69 -26q-51 0 -80 35t-29 90z" />
<glyph unicode="&#x201d;" horiz-adv-x="474" d="M5 433q48 14 75.5 39.5t31.5 43.5l4 19q-38 2 -63.5 29.5t-25.5 70.5q0 44 30 70t69 26q51 0 80 -35t29 -90q0 -56 -20.5 -100t-52.5 -69t-63 -38.5t-60 -16.5zM229 433q48 14 75.5 39.5t31.5 43.5l4 19q-38 2 -63.5 29.5t-25.5 70.5q0 44 30 70t69 26q51 0 80 -35 t29 -90q0 -56 -20.5 -100t-52.5 -69t-63 -38.5t-60 -16.5z" />
<glyph unicode="&#x201e;" horiz-adv-x="464" d="M-5 -118q48 14 75.5 39.5t31.5 44.5l4 18q-38 2 -63.5 29.5t-25.5 70.5q0 44 30 70t69 26q51 0 80 -35t29 -90q0 -56 -20.5 -100t-52.5 -69t-63 -38.5t-60 -16.5zM221 -118q48 14 75.5 39.5t31.5 44.5l4 18q-38 2 -63.5 29.5t-25.5 70.5q0 44 30 70t69 26q51 0 80 -35 t29 -90q0 -56 -20.5 -100t-52.5 -69t-63 -38.5t-60 -16.5z" />
<glyph unicode="&#x2022;" horiz-adv-x="407" d="M50 300q0 64 45 109.5t107 45.5q63 0 109 -45.5t46 -109.5q0 -61 -46 -105.5t-109 -44.5q-62 0 -107 44.5t-45 105.5z" />
<glyph unicode="&#x2026;" horiz-adv-x="780" d="M25 80q0 46 28 74.5t71 28.5t71.5 -28.5t28.5 -74.5q0 -44 -28.5 -72t-71.5 -28q-42 0 -70.5 28t-28.5 72zM292 80q0 46 28 74.5t71 28.5t71.5 -28.5t28.5 -74.5q0 -44 -28.5 -72t-71.5 -28q-42 0 -70.5 28t-28.5 72zM556 80q0 46 28 74.5t71 28.5t71.5 -28.5t28.5 -74.5 q0 -44 -28.5 -72t-71.5 -28q-42 0 -70.5 28t-28.5 72z" />
<glyph unicode="&#x202f;" horiz-adv-x="182" />
<glyph unicode="&#x2039;" horiz-adv-x="327" d="M15 262v21l225 208l82 -90l-129 -115v-19l126 -136l-85 -88z" />
<glyph unicode="&#x203a;" horiz-adv-x="327" d="M5 411l92 95l215 -225v-21l-209 -232l-95 93l123 142v19z" />
<glyph unicode="&#x205f;" horiz-adv-x="227" />
<glyph unicode="&#x20ac;" horiz-adv-x="594" d="M0 237l25 95h63v35h-82l25 95h57l2 31q4 108 75 170t173 62q67 0 118 -22.5t82.5 -76t29.5 -131.5l-175 -5q0 70 -55 70q-59 0 -59 -98h173l-24 -95h-150v-35h143l-25 -95h-116v-5q3 -82 57 -82q27 0 41.5 19t14.5 51l175 -5q0 -107 -62 -168.5t-174 -61.5 q-110 0 -174.5 64t-67.5 173q0 3 -0.5 8t-0.5 7h-89z" />
<glyph unicode="&#x2122;" horiz-adv-x="812" d="M10 595v115h334v-115h-97v-250h-140v250h-97zM373 345v365h106l92 -135l92 135h109v-365h-140v161l-1 1l-56 -83h-17l-55 85v-164h-130z" />
<glyph unicode="&#xe000;" horiz-adv-x="495" d="M0 0v495h495v-495h-495z" />
</font>
</defs>
</svg>
