<?xml version="1.0" standalone="no"?>
<!DOCTYPE svg PUBLIC "-//W3C//DTD SVG 1.1//EN" "http://www.w3.org/Graphics/SVG/1.1/DTD/svg11.dtd" >
<svg xmlns="http://www.w3.org/2000/svg">
<metadata></metadata>
<defs>
<font id="tienneregular" horiz-adv-x="1444" >
<font-face units-per-em="2048" ascent="1638" descent="-410" />
<missing-glyph horiz-adv-x="532" />
<glyph horiz-adv-x="0" />
<glyph horiz-adv-x="0" />
<glyph unicode="&#xd;" horiz-adv-x="0" />
<glyph horiz-adv-x="0" />
<glyph unicode="&#x9;" horiz-adv-x="0" />
<glyph unicode="&#xa;" horiz-adv-x="0" />
<glyph unicode=" "  horiz-adv-x="532" />
<glyph unicode="&#x09;" horiz-adv-x="532" />
<glyph unicode="&#xa0;" horiz-adv-x="532" />
<glyph unicode="!" horiz-adv-x="704" d="M211 115q0 56 37.5 98.5t102.5 42.5t102.5 -42.5t37.5 -98.5t-36.5 -96.5t-103.5 -40.5t-103.5 40.5t-36.5 96.5zM219 1392q0 18 1 27q44 38 133 38q62 0 87.5 -23.5t25.5 -75.5q0 -33 -29 -567q-12 -221 -12 -298q0 -54 4 -90q-31 -12 -71 -12q-49 0 -65 16.5t-18 62.5 l-35 665q-3 57 -8.5 115t-9 93.5t-3.5 48.5z" />
<glyph unicode="&#x22;" horiz-adv-x="792" d="M117 1450q37 44 109 44q47 0 66 -20.5t19 -64.5t-4 -72l-30 -354q-28 -24 -62 -24q-22 0 -36 8.5t-21 28.5t-9 33.5t-5 42.5l-16 188q-11 132 -11 190zM481 1450q39 44 110 44q46 0 65 -20.5t19 -64.5q0 -41 -3 -72l-30 -354q-30 -24 -62 -24q-22 0 -36 8.5t-21 27t-9 32 t-5 40.5l-16 193q-11 134 -12 190z" />
<glyph unicode="#" horiz-adv-x="1240" d="M82 445v53q0 49 12.5 66.5t62.5 17.5h156l55 266h-212v72q0 43 16 54t60 11h165l77 366h55q39 0 58.5 -5t27.5 -24q-4 -12 -7.5 -38t-6.5 -39l-55 -260h262l78 366h53q60 0 81 -10q0 -3 0.5 -9.5t0.5 -12.5q-8 -71 -22 -131l-44 -203h203v-52q0 -51 -12.5 -68t-62.5 -17 h-154l-57 -266h213v-72q0 -31 -10.5 -45.5t-36.5 -19.5h-193l-77 -372h-54q-69 0 -84 34q2 18 12.5 66.5t14.5 66.5l41 205h-265l-77 -372h-64q-72 0 -72 26q0 36 23 141l44 205h-205zM461 582h265l55 266h-264z" />
<glyph unicode="$" horiz-adv-x="1302" d="M135 132q0 57 9 112l59 131l100 -40q45 -117 112.5 -175t168.5 -69v551q-87 39 -146 69.5t-115 70t-88 79.5t-51.5 92.5t-19.5 114.5q0 166 110 264.5t310 125.5v138h67q32 0 49 -10.5t24 -35.5v-82q131 0 232.5 -26.5t137.5 -73.5q-2 -63 -6 -94l-46 -151l-93 25 q-69 166 -225 192v-544q107 -45 179.5 -85t134 -92.5t91 -117t29.5 -144.5q0 -164 -120.5 -270.5t-313.5 -120.5v-204h-68q-49 0 -60.5 15.5t-11.5 63.5v124q-210 11 -384 107q-29 16 -43 28t-22 32zM364 1108q0 -93 54.5 -151.5t165.5 -103.5v490q-175 -23 -212 -176 q-8 -22 -8 -59zM724 89q99 14 159 77.5t60 157.5q0 87 -54 145.5t-165 113.5v-494z" />
<glyph unicode="%" horiz-adv-x="1643" d="M92 1083q0 186 87.5 280t225.5 94q139 0 226 -94t87 -282q0 -266 -187 -348q-59 -26 -120 -26q-140 0 -229.5 95.5t-89.5 280.5zM246 1081q0 -152 39 -222t120 -70q80 0 118.5 70.5t38.5 221.5q0 153 -38.5 223.5t-118.5 70.5q-82 0 -120.5 -70t-38.5 -224zM314 13 q30 54 121 203q46 75 143 234.5t266 437.5t349 572q36 -11 58.5 -22t30 -17.5t15.5 -15.5t15 -13l-872 -1426zM921 349q0 181 86 278.5t230 97.5t229 -97.5t85 -278.5q0 -178 -87 -276.5t-227 -98.5q-142 0 -229 98.5t-87 276.5zM1080 349q0 -153 38.5 -223t119.5 -70 q80 0 118.5 70.5t38.5 222.5q0 154 -38.5 224t-119.5 70q-80 0 -118.5 -70.5t-38.5 -223.5z" />
<glyph unicode="&#x26;" horiz-adv-x="1399" d="M74 374q0 126 80.5 224t230.5 131v5q-126 31 -197.5 114t-71.5 209q0 166 120 265t349 99q131 0 247.5 -32.5t176.5 -70.5l-24 -279h-123q-47 148 -101.5 207.5t-160.5 59.5q-138 0 -207 -72.5t-69 -185.5q0 -108 77.5 -184t223.5 -76h742v-278h-63q-24 90 -49.5 118.5 t-80.5 28.5h-70q29 -207 29 -314q0 -180 -138.5 -280t-387.5 -100q-533 0 -533 411zM305 369q0 -128 77 -201.5t243 -73.5q148 0 237 82t89 245q0 89 -8 161l-8 75h-330q-137 0 -218.5 -77t-81.5 -211z" />
<glyph unicode="'" horiz-adv-x="429" d="M117 1435q0 26 33.5 42.5t76.5 16.5q45 0 65 -21t20 -64q0 -44 -4 -72l-31 -354q-30 -24 -62 -24q-18 0 -30.5 7t-19 15t-11 26t-6 28t-3.5 32l-17 193q-11 123 -11 175z" />
<glyph unicode="(" horiz-adv-x="588" d="M117 672q0 238 72 461.5t199 390.5q24 33 72 33q4 0 19 -5l43 -20q-109 -178 -163 -401t-54 -459t54 -459t163 -401l-43 -20q-15 -5 -19 -5q-42 0 -72 33q-127 163 -199 388.5t-72 463.5z" />
<glyph unicode=")" horiz-adv-x="588" d="M66 -188q109 178 163 401t54 459t-54 459t-163 401l43 20q15 5 19 5q46 0 72 -33q126 -165 198.5 -390t72.5 -462q0 -238 -72 -463.5t-199 -388.5q-30 -33 -72 -33q-4 0 -19 5z" />
<glyph unicode="*" horiz-adv-x="926" d="M84 1014l286 66l-248 169l131 114l177 -224l30 301l178 -51l-117 -263l270 126l39 -153l-281 -58l242 -198l-132 -106l-175 245l-27 -312l-177 73l114 251l-268 -135z" />
<glyph unicode="+" horiz-adv-x="1289" d="M133 533v68q0 28 4.5 44t18.5 22.5t26 8t40 1.5h349v438h68q34 0 51.5 -10.5t25.5 -36.5v-391h440v-67q0 -52 -18 -64.5t-67 -12.5h-355v-440h-68q-53 0 -65 17.5t-12 66.5v356h-438z" />
<glyph unicode="," horiz-adv-x="462" d="M61 -267q84 119 96 270l3 38q-34 0 -59 22t-25 49q10 137 129 137q77 0 109.5 -29t32.5 -83q0 -128 -64 -246.5t-165 -206.5q-30 0 -44 18z" />
<glyph unicode="-" horiz-adv-x="683" d="M51 519v70q0 21 5 34t17.5 19t25 7.5t34.5 1.5h499v-52q0 -64 -48 -80h-533z" />
<glyph unicode="." horiz-adv-x="600" d="M164 104q0 57 36 99t100 42q63 0 99.5 -42t36.5 -100q0 -55 -34.5 -95t-99.5 -42q-66 0 -102 41t-36 97z" />
<glyph unicode="/" horiz-adv-x="853" d="M-3 -126l704 1644h70q65 0 82 -27q-7 -21 -700 -1648h-72q-63 0 -84 31z" />
<glyph unicode="0" horiz-adv-x="1277" d="M92 710q0 358 142.5 553t403.5 195t404 -195t143 -553q0 -353 -145 -550t-402 -197q-258 0 -402 196.5t-144 550.5zM313 710q0 -323 80.5 -473t244.5 -150t244.5 149.5t80.5 473.5q0 330 -80 478.5t-245 148.5q-163 0 -244 -150t-81 -477z" />
<glyph unicode="1" horiz-adv-x="986" d="M135 1347q109 39 160 56t127.5 36t124.5 19q44 0 63 -30v-1176q0 -76 14 -124q35 -9 103 -9h91v-138q-143 19 -307 19q-145 0 -316 -19v138h89q74 0 103 9q16 55 16 121v997q-36 29 -96 29q-32 0 -58 -5l-95 -17z" />
<glyph unicode="2" horiz-adv-x="1251" d="M104 50q0 26 14 84q365 362 551 573q102 116 138 202.5t36 169.5q0 257 -232 257q-74 0 -143.5 -29.5t-122.5 -91t-66 -144.5l-145 121q13 85 82.5 146.5t167.5 90.5t211 29q217 0 337.5 -105.5t120.5 -283.5q0 -75 -23.5 -144.5t-69.5 -143t-137 -170.5t-203.5 -203 t-290.5 -264h397q44 0 79 5.5t81 23.5t85 60.5t67 106.5q15 0 36 -5.5t27 -5.5q0 -193 -13 -302q-55 -17 -134 -22t-255 -5h-502q-43 0 -63 11.5t-30 38.5z" />
<glyph unicode="3" horiz-adv-x="1200" d="M121 166q21 157 34 226l110 -19q0 -79 27 -137t73.5 -89.5t99 -45.5t112.5 -14q138 0 220 85.5t82 216.5q0 283 -429 283h-41v119h66q42 0 89 11t95.5 35.5t87.5 59t64 86.5t25 114q0 114 -74 176.5t-181 62.5q-112 0 -206.5 -69t-113.5 -187l-135 111q13 85 80 146.5 t160.5 90.5t200.5 29q72 0 136.5 -10.5t125.5 -37t104.5 -66.5t70 -103.5t26.5 -144.5q0 -112 -93 -210.5t-261 -136.5q405 -53 405 -370q0 -191 -134 -303t-357 -112q-167 0 -302.5 60t-166.5 143z" />
<glyph unicode="4" horiz-adv-x="1210" d="M35 472q4 15 30 53q572 823 654 912h88q59 0 76 -15t17 -62v-848h281v-54q0 -49 -16.5 -61t-63.5 -12h-201v-135q0 -85 14 -124q35 -9 103 -9h90v-136q-137 19 -297 19q-145 0 -316 -19v136h89q74 0 103 9q16 42 16 121v138h-627q-40 31 -40 87zM226 512h476v682 l-458 -650z" />
<glyph unicode="5" horiz-adv-x="1234" d="M173 85v316l122 -12l46 -242q116 -60 246 -60q82 0 144 29.5t97.5 80t52.5 108.5t17 123q0 162 -93 247.5t-272 85.5q-142 0 -247 -89l-69 19v703q17 25 42 34t65 9h322q251 0 382 24l7 -144q-24 -29 -75.5 -40.5t-154.5 -11.5q-171 0 -419 47l-7 -476q123 58 260 58 q199 0 332 -123t133 -322q0 -225 -133.5 -355.5t-362.5 -130.5q-299 0 -435 122z" />
<glyph unicode="6" horiz-adv-x="1225" d="M125 660q0 397 141.5 597.5t440.5 200.5q107 0 204 -20.5t141 -55.5l-14 -314h-120l-32 213q-103 56 -196 56q-71 0 -129 -28t-95.5 -76.5t-65 -107.5t-42 -129.5t-20.5 -133t-6 -125.5q0 -15 1 -23q173 173 382 173q180 0 297.5 -120t117.5 -322q0 -214 -138 -348 t-366 -134q-248 0 -374.5 170t-126.5 527zM345 577q0 -490 292 -490q128 0 206 93.5t78 260.5q0 152 -65 236t-175 84q-99 0 -227 -92q-63 -46 -109 -92z" />
<glyph unicode="7" horiz-adv-x="1201" d="M111 1381q103 56 502 56h464q26 -68 26 -152l-477 -1097q-21 -48 -34 -74.5t-31.5 -54.5t-36.5 -41t-43 -21t-58 -8q-72 0 -93 35q11 34 27 65l580 1215h-437q-142 0 -203 -23l-26 -214h-115z" />
<glyph unicode="8" horiz-adv-x="1174" d="M94 323q0 283 285 412q-142 70 -202.5 160.5t-60.5 215.5q0 109 64 189.5t166.5 119t228.5 38.5q123 0 224.5 -38.5t166 -120t64.5 -191.5q0 -36 -8 -70.5t-18.5 -60.5t-33.5 -56t-38.5 -48t-49.5 -47t-50.5 -42t-56.5 -44q64 -28 114 -60.5t95.5 -77.5t70.5 -105 t25 -130q0 -82 -25.5 -149.5t-70.5 -114.5t-109 -78.5t-139 -46.5t-161 -15q-211 0 -346 96.5t-135 263.5zM289 356q0 -130 79.5 -199.5t206.5 -69.5q141 0 217 72t76 176q0 98 -71.5 176t-204.5 131l-86 34q-104 -53 -160.5 -134.5t-56.5 -185.5zM314 1099 q0 -104 79.5 -179.5t220.5 -119.5q104 58 163.5 127t59.5 172q0 112 -71.5 175t-190.5 63q-120 0 -190.5 -62.5t-70.5 -175.5z" />
<glyph unicode="9" horiz-adv-x="1223" d="M104 987q0 209 135.5 340t358.5 131q248 0 374 -162t126 -504q0 -413 -136 -621t-425 -208q-113 0 -218 29t-151 78v304l127 -11l42 -230q102 -46 197 -46q163 0 260 156t97 406q0 31 -4 58q-180 -166 -377 -166q-176 0 -291 121.5t-115 324.5zM313 990 q0 -153 59.5 -236.5t160.5 -83.5q73 0 139 27t109.5 68.5t69.5 89t28 90.5q0 191 -78 291.5t-214 100.5q-124 0 -199 -92t-75 -255z" />
<glyph unicode=":" horiz-adv-x="608" d="M166 97q0 73 37.5 110t101.5 37q58 0 97.5 -44t39.5 -101q0 -66 -39 -99.5t-90 -33.5q-73 0 -110 38t-37 93zM166 919q0 62 39 99t105 37q58 0 96 -38t38 -90q0 -72 -38 -110t-93 -38q-74 0 -110.5 38t-36.5 102z" />
<glyph unicode=";" horiz-adv-x="474" d="M41 -278q110 166 119 319q-35 0 -59 21.5t-24 66.5q4 53 38 86t92 33q78 0 108 -30.5t30 -88.5q0 -120 -64.5 -246t-152.5 -197q-8 -2 -15 -2q-29 0 -45 8t-27 30zM81 919q0 112 105 132q13 4 38 4q59 0 97 -38t38 -90q0 -72 -38 -110t-93 -38q-75 0 -111 38t-36 102z " />
<glyph unicode="&#x3c;" horiz-adv-x="1387" d="M132 595q0 35 31 49q1009 460 1038 470q11 -9 21.5 -34t31.5 -95l-907 -416l905 -412q-30 -116 -51 -132q-107 44 -1068 485q0 31 -0.5 50t-0.5 26v9z" />
<glyph unicode="=" horiz-adv-x="1288" d="M133 332v67q0 50 14.5 63t65.5 13h942v-65q0 -35 -11 -52.5t-36 -25.5h-975zM133 733v69q0 22 5 37t11.5 22.5t21.5 11.5t26 4.5t34 0.5h924v-67q0 -35 -11 -52.5t-36 -25.5h-975z" />
<glyph unicode="&#x3e;" horiz-adv-x="1386" d="M133 984l62 131l1033 -472q25 -11 25 -70v-64q-801 -368 -926 -424.5t-141 -60.5q-31 15 -51 131l904 416z" />
<glyph unicode="?" horiz-adv-x="984" d="M88 1161q1 69 27 123t65 86t92 52.5t102 28t101 7.5q184 0 294.5 -93t110.5 -257q0 -70 -27.5 -135t-68.5 -111.5t-89.5 -92.5t-89.5 -80t-68.5 -70.5t-27.5 -66.5q0 -74 31 -175h-78q-51 29 -92 80t-41 110q0 55 34 108.5t82 99t96.5 94t82.5 111.5t34 132q0 98 -51 155 t-136 57q-34 0 -60 -2.5t-57 -12.5t-54 -27t-43 -48t-32 -73h-137zM311 93q0 73 36.5 110t101.5 37q58 0 98 -44.5t40 -101.5q0 -64 -39.5 -98t-89.5 -34q-74 0 -110.5 38.5t-36.5 92.5z" />
<glyph unicode="@" horiz-adv-x="1859" d="M133 630q0 182 69 339.5t186.5 266t277 170.5t337.5 62q211 0 380.5 -86t268.5 -246.5t99 -368.5q0 -100 -31 -197.5t-84 -174.5t-131 -124.5t-165 -47.5q-88 0 -144.5 47.5t-78.5 124.5h-8q-44 -79 -112 -125.5t-155 -46.5q-116 0 -194 78.5t-78 231.5q0 109 36.5 211 t99.5 180t155.5 125t197.5 47q123 0 178 -109l39 65h107l-116 -500q-13 -57 -13 -99q0 -67 25.5 -98t82.5 -31q103 0 187 135.5t84 312.5q0 123 -45.5 231.5t-126.5 187.5t-200 125t-260 46q-108 0 -209 -31t-188 -93t-152 -149.5t-102 -207t-37 -258.5q0 -155 55 -286.5 t149.5 -220.5t221 -138.5t268.5 -49.5q273 0 508 145l39 -73q-269 -172 -562 -172q-188 0 -350 64t-272.5 173t-173.5 255.5t-63 309.5zM754 533q0 -88 40.5 -145.5t106.5 -57.5q40 0 74.5 19t59.5 48.5t46.5 77t36 93t28 109t21.5 113t17 116.5q-18 99 -120 99 q-76 0 -148.5 -70t-117 -180t-44.5 -222z" />
<glyph unicode="A" horiz-adv-x="1581" d="M0 -14l30 140h46q67 0 96 9q32 43 61 121q66 179 256 657l208 524h92q75 0 122 -16l441 -1162q28 -74 60 -124q35 -9 96 -9h44l29 -140q-96 14 -242 14q-189 0 -298 -14l-19 140h17q72 0 99 9q-2 51 -29 121l-66 167h-577l-54 -164q-23 -69 -23 -112q0 -21 72 -21h46 l-9 -140q-81 14 -212 14q-177 0 -286 -14zM499 526h506l-246 733h-9z" />
<glyph unicode="B" horiz-adv-x="1457" d="M78 1299v114q288 40 692 40q525 0 525 -383q0 -120 -83.5 -211t-215.5 -111q336 -45 336 -355q0 -77 -21.5 -137.5t-55.5 -101t-90.5 -70t-112.5 -45.5t-137 -25t-147 -11.5t-159 -2.5q-242 0 -511 -14v140h89q74 0 103 9q16 39 16 121v898q0 93 -16 144q-38 5 -81 5 q-23 0 -70 -2t-61 -2zM529 126h246q332 0 332 260q0 148 -90 221t-280 73q-191 0 -208 -2v-552zM529 804q112 -8 172 -8q176 0 275.5 68t99.5 200q0 131 -83.5 195.5t-269.5 64.5q-58 0 -102 -2t-66 -4t-26 -2v-512z" />
<glyph unicode="C" horiz-adv-x="1375" d="M117 685q0 370 188 571.5t534 201.5q138 0 259.5 -32t184.5 -71l-24 -279h-123q-27 73 -51.5 118t-59 79.5t-80.5 49t-111 14.5q-122 0 -215 -46.5t-149 -130t-84 -192t-28 -240.5q0 -315 125 -472.5t348 -157.5q194 0 460 123l15 -139q-202 -119 -492 -119 q-153 0 -279 45t-220 132.5t-146 226.5t-52 318z" />
<glyph unicode="D" horiz-adv-x="1618" d="M78 1299v117q291 37 703 37q128 0 231.5 -21t196.5 -73t156 -135t99.5 -213t36.5 -301q0 -112 -18 -203.5t-47 -160.5t-81.5 -122.5t-104 -89.5t-132 -61.5t-149.5 -39.5t-173 -21.5t-185 -9.5t-201 -2q-130 0 -319 -14v141h90q74 0 103 9q15 45 15 121v888q0 78 -15 143 q-29 11 -103 11h-103zM515 126q14 -2 61 -2q144 0 247.5 15.5t190 54.5t138.5 106t80.5 170t28.5 246q0 224 -56 356t-164.5 187t-287.5 55q-51 0 -134 -2t-104 -2v-1184z" />
<glyph unicode="E" horiz-adv-x="1356" d="M78 1299v108q161 30 514 30h612l27 -129q27 -139 27 -164l-147 -6l-8 50q-10 57 -23 94q-63 28 -257 28q-10 0 -308 -7v-504h340q25 0 38.5 2.5t30.5 12.5t29 33.5t23 62.5h52q0 -180 -13 -355h-63q-24 74 -50 99t-80 25h-307v-553h456q50 0 91 9.5t57 24.5q18 50 27 167 q16 0 59.5 -1t64.5 -1v-116q0 -68 -10 -188q-63 -19 -147 -27t-244 -8q-83 0 -232 7t-230 7q-202 0 -318 -14v140h89q75 0 103 9q16 41 16 121v918q0 72 -17 115q-23 10 -91 10h-111z" />
<glyph unicode="F" horiz-adv-x="1339" d="M78 1299v108q254 30 694 30h440q11 -68 19 -125.5t11.5 -86.5t6 -53t2.5 -28l-146 -6q0 67 -27 144q-59 28 -247 28q-8 0 -308 -7v-500h297q46 0 73 20t47 87h52q0 -193 -12 -355h-63q-24 72 -50 94.5t-80 22.5h-264v-413q0 -72 15 -124q29 -9 103 -9h90v-140 q-234 14 -317 14q-109 0 -295 -13q-3 0 -10 -0.5t-11 -0.5v140h89q74 0 103 9q15 39 15 108v935q0 75 -16 111q-25 10 -92 10h-119z" />
<glyph unicode="G" horiz-adv-x="1395" d="M117 683q0 383 206.5 579t572.5 196q131 0 249.5 -32.5t178.5 -70.5l-25 -279h-123q-27 72 -51.5 117.5t-59.5 80t-81 49t-111 14.5q-257 0 -386 -165.5t-129 -466.5q0 -278 127 -443t359 -165q183 0 296 55v232q0 87 -14 129q-37 14 -107 14h-118v108q2 0 55.5 5.5 t126 9t168.5 3.5q66 0 105 -1q-6 -152 -6 -199v-352q-202 -138 -508 -138q-156 0 -285.5 43.5t-229 129.5t-155 226t-55.5 321z" />
<glyph unicode="H" horiz-adv-x="1696" d="M78 1312v110q125 15 310 15q244 0 328 -15v-110h-93q-72 0 -103 -11q-14 -48 -14 -120v-370h683v370q0 75 -16 120q-29 11 -103 11h-90v110q125 15 310 15q244 0 328 -15v-110h-93q-74 0 -103 -11q-16 -55 -16 -120v-922q0 -72 15 -124q29 -9 103 -9h90v-140 q-116 14 -288 14q-236 0 -345 -14v140h89q74 0 103 9q16 39 16 121v420h-683v-417q0 -76 14 -124q31 -9 103 -9h90v-140q-116 14 -287 14q-237 0 -346 -14v140h89q74 0 103 9q16 42 16 121v925q0 72 -17 120q-29 11 -103 11h-90z" />
<glyph unicode="I" horiz-adv-x="792" d="M78 1312v110q125 15 315 15q241 0 321 -15v-110h-92q-72 0 -103 -11q-14 -54 -14 -114v-928q0 -70 14 -124q35 -9 103 -9h90v-140q-112 14 -281 14q-222 0 -352 -14v140h89q74 0 103 9q16 42 16 121v931q0 69 -16 114q-29 11 -103 11h-90z" />
<glyph unicode="J" horiz-adv-x="1023" d="M47 -106q0 34 20 320l141 -6q9 -96 42 -244l41 -8q42 -7 79 -7q44 0 74.5 19t48.5 50t28 85t13 110t3 138v830q0 81 -16 120q-28 11 -103 11h-90v110q125 15 311 15q243 0 327 -15v-110h-92q-75 0 -103 -11q-16 -42 -16 -121v-864q0 -242 -94 -367.5t-262 -125.5 q-73 0 -188.5 19.5t-163.5 51.5z" />
<glyph unicode="K" horiz-adv-x="1465" d="M78 1312v110q125 15 315 15q241 0 321 -15v-110h-92q-72 0 -103 -11q-14 -54 -14 -120v-925q0 -79 16 -121q29 -9 103 -9h89v-140q-126 14 -317 14q-190 0 -316 -14v140h89q74 0 103 9q15 39 15 108v938q0 75 -16 120q-29 11 -103 11h-90zM534 725q15 22 66 80 q115 133 382 416q43 46 43 80q-21 11 -85 11h-55l9 110q138 15 326 15q189 0 249 -15l-7 -110h-78q-62 0 -95 -11q-81 -67 -131 -122q-281 -305 -311 -337l-84 -91l397 -495q58 -74 108 -121q32 -9 99 -9h79l14 -140q-116 14 -281 14q-210 0 -336 -14v140h19q74 0 97 9 q-16 41 -76 121l-309 412q-27 27 -40 57z" />
<glyph unicode="L" horiz-adv-x="1331" d="M78 1312v110q125 15 315 15q242 0 323 -15v-110h-93q-72 0 -103 -11q-14 -48 -14 -120v-1055h381q37 0 56 0.5t48.5 4.5t45 11.5t36.5 21.5t34.5 35.5t27 53.5t24.5 74l86 -12l-37 -315q-205 -14 -337 -14q-110 0 -269.5 7t-205.5 7q-191 0 -317 -14v140h89q74 0 103 9 q16 42 16 121v925q0 75 -16 120q-29 11 -103 11h-90z" />
<glyph unicode="M" horiz-adv-x="2204" d="M78 -14l22 140h100q73 0 105 9q35 65 43 121q18 140 43 447.5t34 454.5q3 39 3 65q0 46 -10 73q-41 16 -108 16h-104v110q105 15 273 15q123 0 219 -15q35 -83 89.5 -236t107.5 -312t101.5 -306.5t80.5 -243.5t35 -100q277 840 418 1198q39 6 108.5 10.5t112.5 4.5 q101 0 243 -14q1 0 3.5 -0.5t4.5 -0.5l10 -110h-86q-80 0 -105 -20q-4 -17 -4 -46q0 -27 5 -79l70 -911q1 -12 3 -24.5t3.5 -22t4.5 -20.5t5 -18t5.5 -17.5t4.5 -15.5q53 -12 133 -12h53l22 -140q-121 14 -327 14q-180 0 -296 -14l-12 140h81q65 0 85 14t20 59q0 82 -34 564 l-33 431q-331 -933 -433 -1194h-188q-115 306 -408 1184l-31 -477q-31 -463 -31 -486q0 -59 20 -77t83 -18h81l-12 -140q-120 14 -296 14q-200 0 -317 -14z" />
<glyph unicode="N" horiz-adv-x="1666" d="M78 1312v110q186 15 274 15q128 0 179 -13q433 -667 725 -1159q0 111 -7 475.5t-7 440.5q0 81 -16 120q-35 11 -103 11h-101v110q111 15 301 15q213 0 285 -15v-110h-80q-68 0 -103 -11q-15 -42 -15 -120q0 -267 -29 -1195h-104q-56 0 -91 21l-726 1155q9 -260 14 -903 q0 -76 14 -124q33 -9 103 -9h91v-140q-103 14 -261 14q-200 0 -320 -14v140h89q74 0 103 9q16 39 16 121l-1 925q0 81 -16 120q-29 11 -103 11h-111z" />
<glyph unicode="O" horiz-adv-x="1567" d="M115 714q0 353 178.5 548.5t490.5 195.5q309 0 487.5 -195.5t178.5 -548.5q0 -350 -179 -550.5t-487 -200.5q-310 0 -489.5 200t-179.5 551zM356 711q0 -306 107.5 -465t320.5 -159q207 0 316.5 156t109.5 471q0 308 -109.5 465.5t-316.5 157.5q-206 0 -317 -157.5 t-111 -468.5z" />
<glyph unicode="P" horiz-adv-x="1345" d="M78 1312v110q194 26 569 26q158 0 268 -20.5t191 -69.5t120 -134.5t39 -211.5q0 -429 -577 -429q-84 0 -164 5v-329q0 -72 15 -124q33 -9 103 -9h90v-140q-112 14 -282 14q-222 0 -351 -14v140h89q74 0 103 9q16 39 16 121l-1 930q0 81 -16 119q-29 7 -102 7h-110z M524 709q82 -2 149 -2q201 0 284.5 78.5t83.5 225.5q0 165 -82 233t-264 68h-171v-603z" />
<glyph unicode="Q" horiz-adv-x="1616" d="M115 726q0 343 178 537.5t486 194.5q141 0 262 -50t209 -141.5t138.5 -228t51.5 -302.5q0 -93 -16 -183t-52.5 -179t-90 -161.5t-134.5 -129t-181 -83.5q79 -66 272 -66q41 0 196 42q24 7 38 11l27 -105q-199 -87 -371 -87q-248 0 -432 174q-277 31 -429 221.5 t-152 535.5zM353 711q0 -312 108.5 -469.5t317.5 -157.5q207 0 316.5 155t109.5 473q0 308 -110.5 466.5t-315.5 158.5t-315.5 -158t-110.5 -468z" />
<glyph unicode="R" horiz-adv-x="1443" d="M78 1312v110q165 25 583 25q156 0 268 -21t192.5 -69t120 -128.5t39.5 -196.5q0 -151 -78.5 -246.5t-208.5 -141.5q25 -124 97.5 -247t155 -197t140.5 -74h56v-140h-151q-59 0 -111.5 15.5t-92.5 39.5t-76.5 63.5t-61.5 75.5t-48.5 88.5t-37 90t-28 92.5t-21 83t-15.5 74 q-161 0 -276 5v-354q0 -72 15 -124q33 -9 103 -9h90v-140q-112 14 -282 14q-222 0 -351 -14v140h89q74 0 103 9q16 39 16 121l-1 939q0 76 -16 109q-27 8 -92 8h-120zM524 729q102 -2 180 -2q352 0 352 296q0 162 -86 225.5t-291 63.5h-155v-583z" />
<glyph unicode="S" horiz-adv-x="1225" d="M98 132l47 268l150 -6q0 -152 42 -231q85 -79 277 -79q121 0 203 69.5t82 173.5q0 61 -27 110t-86 91t-122.5 73t-165.5 72q-183 72 -278 165.5t-95 237.5q0 170 144 276t409 106q133 0 240 -25t139 -73q-1 -5 -3 -27t-9 -86t-20 -168l-131 9q0 146 -55 197.5t-210 51.5 q-131 0 -209 -63t-78 -166q0 -87 66 -145.5t199 -110.5q74 -29 126 -52t110 -52t96.5 -56t75.5 -61t58.5 -69.5t34.5 -80t13 -94.5q0 -102 -40 -183.5t-109.5 -133.5t-161 -79.5t-196.5 -27.5q-338 0 -516 169z" />
<glyph unicode="T" horiz-adv-x="1389" d="M41 1422q29 15 236 15q20 0 213 -3.5t222 -3.5q46 0 142.5 2t174.5 3.5t80 1.5q206 0 239 -15q0 -57 -5 -184t-5 -170h-125q0 171 -34 244h-368v-1053q0 -82 15 -124q33 -9 103 -9h90v-140q-112 14 -282 14q-223 0 -352 -14v140h89q75 0 103 9q15 39 15 108v1069h-368 q-34 -73 -34 -244h-138q0 43 -5.5 170t-5.5 184z" />
<glyph unicode="U" horiz-adv-x="1605" d="M31 1312v111q117 14 315 14q242 0 323 -15v-110h-93q-72 0 -103 -11q-14 -45 -14 -120v-680q0 -204 97.5 -310t267.5 -106q190 0 280.5 120t90.5 372v604q0 81 -16 120q-29 11 -103 11h-90v111q112 14 294 14q219 0 295 -15v-110h-92q-75 0 -103 -11q-15 -42 -15 -120 v-665q0 -178 -74 -304t-201 -187.5t-296 -61.5q-554 0 -554 623v595q0 81 -16 120q-29 11 -103 11h-90z" />
<glyph unicode="V" horiz-adv-x="1633" d="M0 1422q110 15 288 15q250 0 339 -15l13 -110h-72q-72 0 -99 -11q0 -11 4 -26t7 -24.5t13 -35t14 -34.5l372 -966h10l349 966q23 63 25 120q-27 11 -100 11h-70l5 110q110 15 270 15q200 0 265 -15l-24 -110h-52q-73 0 -106 -11q-28 -45 -55 -120q-272 -744 -451 -1181 h-104q-50 0 -77 9t-38 37l-454 1135q-26 65 -67 120q-35 11 -107 11h-75z" />
<glyph unicode="W" horiz-adv-x="2403" d="M18 1422q110 15 288 15q250 0 339 -15l13 -110h-72q-72 0 -99 -11q4 -32 38 -120l313 -965h10q91 252 263 887q19 68 30.5 176t12.5 114h121q36 0 52 -12t27 -42l365 -1130h10q224 742 284 972q14 51 14 98q0 15 -1 22q-28 11 -101 11h-70l-6 110q109 15 269 15 q199 0 267 -15l-14 -110h-52q-73 0 -105 -11q-26 -53 -45 -120q-215 -759 -385 -1181h-167q-33 0 -45 15.5t-29 69.5q-3 13 -4 14l-295 907q-149 -547 -338 -1006h-160q-57 0 -72 46l-384 1135q-21 57 -67 120q-35 11 -107 11h-75z" />
<glyph unicode="X" horiz-adv-x="1615" d="M16 -14v140h88q67 0 99 9q16 15 49 56t56 65l376 448l-336 477q-12 16 -30 44t-30.5 45t-26.5 31q-35 11 -109 11h-74l-15 110q98 15 255 15q262 0 362 -15l14 -110h-61q-73 0 -96 -11q2 -9 5 -16t8.5 -17t9 -15.5t14.5 -21t18 -25.5l235 -347l252 322q55 70 76 120 q-23 11 -95 11h-40l14 110q131 15 305 15t229 -15l-12 -110h-82q-74 0 -111 -11q-43 -42 -106 -120q-239 -297 -357 -428l367 -497q6 -8 25.5 -34.5t26.5 -35.5t21 -24.5t26 -26.5q32 -9 99 -9h48v-140q-106 14 -274 14q-201 0 -318 -14v140h50q70 0 97 9q-23 55 -71 124 l-230 330l-239 -330q-40 -54 -67 -124q27 -9 97 -9h51v-140q-116 14 -314 14q-172 0 -279 -14z" />
<glyph unicode="Y" horiz-adv-x="1588" d="M-10 1422q115 15 288 15q248 0 340 -15l17 -110h-71q-74 0 -98 -11q3 -36 40 -95l321 -547q235 417 295 553q25 61 31 89q-25 11 -98 11h-70l24 110q121 15 292 15q224 0 293 -15l-40 -110h-85q-73 0 -108 -11q-37 -52 -45 -67q-1 -2 -217 -368l-208 -349v-258 q0 -72 15 -124q33 -9 102 -9h91v-140q-112 14 -282 14q-222 0 -351 -14v140h89q72 0 103 9q12 34 19 121v234l-409 691q-13 22 -34.5 62.5t-33.5 57.5q-33 11 -107 11h-74z" />
<glyph unicode="Z" horiz-adv-x="1230" d="M74 81v52l814 1179h-276q-47 0 -100.5 -3.5t-114 -11t-99.5 -24t-39 -38.5q0 -54 5 -108q-29 0 -109 -2q0 4 -9.5 62t-20 125.5t-12.5 92.5q115 32 518 32h467q19 -10 30.5 -31t11.5 -44v-56l-834 -1180h510q29 0 51 5t45 21.5t37.5 45t23.5 78t9 117.5h162v-307 q0 -19 -8 -57q0 -1 -0.5 -2t-0.5 -3q-28 -11 -69 -16.5t-74.5 -6.5t-103.5 -1h-782q-19 14 -25.5 31.5t-6.5 49.5z" />
<glyph unicode="[" horiz-adv-x="648" d="M205 -229v1793h270q28 0 41.5 -1t29.5 -7.5t22.5 -21.5t6.5 -40v-33h-209v-1586h209v-35q0 -24 -6 -39t-20.5 -21t-27.5 -7.5t-37 -1.5h-279z" />
<glyph unicode="\" horiz-adv-x="891" d="M0 1490h102q33 0 52 -11t40 -36l697 -1509h-109q-49 0 -76 29z" />
<glyph unicode="]" horiz-adv-x="651" d="M76 -125h209v1586h-209v33q0 33 10 48.5t36 21.5h324v-1793h-252q-25 0 -37.5 0.5t-31 4t-27 10.5t-15.5 20.5t-7 33.5v35z" />
<glyph unicode="^" horiz-adv-x="1191" d="M104 415q21 55 40 90l396 703h67q49 0 70 -36l382 -667q25 -50 25 -79q0 -25 -15 -46l-102 -18l-370 641l-363 -639l-69 16q-42 10 -61 35z" />
<glyph unicode="_" horiz-adv-x="965" d="M-10 -278q0 20 5.5 33t12.5 19.5t23.5 10t27.5 4t34 0.5h882v-59q0 -31 -11 -47t-35 -22h-939v61z" />
<glyph unicode="`" horiz-adv-x="1223" d="M393 1587h250l189 -323h-138z" />
<glyph unicode="a" horiz-adv-x="1247" d="M102 271q0 332 521 332h147v68q0 151 -43.5 217.5t-148.5 66.5q-110 0 -182.5 -54t-126.5 -146l-139 88q15 88 134.5 153t301.5 65q416 0 416 -379v-413q0 -92 17 -168h160v-82q-91 -32 -257 -32q-39 0 -58 1t-40.5 6.5t-30 17t-14.5 31.5t-6 52l-2 20 q-154 -139 -324 -139q-147 0 -236 76t-89 219zM317 280q0 -88 49 -133.5t135 -45.5q114 0 253 104q16 144 16 284h-158q-144 0 -219.5 -53.5t-75.5 -155.5z" />
<glyph unicode="b" horiz-adv-x="1337" d="M37 1455v87q102 27 327 27q42 0 69 -3q9 -37 9 -102v-551q143 149 351 149q201 0 316.5 -134t115.5 -377q0 -132 -37.5 -240.5t-101 -178t-145.5 -107.5t-173 -38q-107 0 -276.5 6.5t-273.5 6.5q-8 0 -49 -1t-50 -1l12 107q53 17 75 45.5t22 86.5v1086q0 66 -7 118 q-42 14 -87 14h-97zM442 498q0 -187 13 -397q142 -14 249 -14q138 0 216.5 118t78.5 339q0 403 -250 403q-153 0 -287 -122q-20 -133 -20 -327z" />
<glyph unicode="c" horiz-adv-x="1082" d="M113 505q0 174 72.5 301.5t196 191t281.5 63.5q102 0 192 -25.5t144 -69.5l-17 -201h-72q-48 95 -112 138.5t-156 43.5q-136 0 -223 -108t-87 -279q0 -118 26.5 -207.5t74 -143.5t107.5 -81t132 -27q180 0 316 83l14 -130q-132 -78 -354 -78q-240 0 -387.5 140 t-147.5 389z" />
<glyph unicode="d" horiz-adv-x="1339" d="M113 503q0 270 120 418t335 148q199 0 332 -133v418q0 55 -7 87q-44 14 -87 14h-97v87q115 27 339 27q42 0 57 -3q8 -26 8 -80v-1217q0 -92 17 -168h173v-86q-108 -27 -258 -27q-35 0 -51 1t-37 5.5t-29 14.5t-14.5 28.5t-6.5 46.5v48q-123 -156 -350 -156 q-93 0 -172.5 33.5t-140.5 98t-96 166t-35 229.5zM342 514q0 -211 70 -312t211 -101q100 0 175 65t105 179q0 289 -12 493q-45 49 -120 79t-143 30q-286 0 -286 -433z" />
<glyph unicode="e" horiz-adv-x="1171" d="M113 519q0 251 142.5 396.5t386.5 145.5q185 0 305.5 -108.5t120.5 -293.5q0 -56 -8.5 -90.5t-29.5 -52.5t-46 -23.5t-68 -5.5h-586q11 -191 101.5 -288.5t247.5 -97.5q165 0 281 104l86 -38q-109 -191 -400 -191q-245 0 -389 143t-144 400zM329 604h522q2 3 2 17 q0 144 -60 236.5t-185 92.5q-261 0 -279 -346z" />
<glyph unicode="f" horiz-adv-x="786" d="M55 912v75q24 45 107 45h119v92q0 228 112.5 334t315.5 106q129 0 220 -52v-224h-97q-47 164 -159 164q-96 0 -137 -61.5t-41 -220.5v-138h284v-52q0 -56 -48 -68h-236v-674q0 -36 0.5 -52.5t5.5 -38t14.5 -30.5t28 -20t45.5 -16t68 -10l8 -84q-175 13 -277 13 q-120 0 -254 -13l2 84q37 4 61 8t40.5 12.5t25 15t13 23t5 29.5t0.5 41v712h-226z" />
<glyph unicode="g" horiz-adv-x="1102" d="M47 -153q0 78 46.5 132.5t135.5 80.5v5q-13 1 -24 6.5t-19.5 14.5t-15 20t-11 24.5t-6.5 28.5t-2 30q0 51 13 91.5t41.5 70t69.5 39.5v4q-83 50 -124 128t-41 175q0 165 115.5 265t305.5 100q100 0 219 -44l253 34q16 0 27 -2t19 -4.5t12.5 -11t7.5 -14.5t4.5 -22 t1.5 -27v-35v-18h-222q84 -101 84 -217q0 -87 -26.5 -156t-81 -120.5t-144.5 -79t-210 -27.5q-67 0 -137 14q-25 -45 -25 -85q0 -26 11.5 -38.5t55.5 -20.5t134 -8q94 0 165 -7t139.5 -28t113 -55.5t71 -92t26.5 -135.5q0 -69 -28 -123.5t-88 -97.5t-164 -66.5t-247 -23.5 q-117 0 -207 24t-143 66t-79 94t-26 112zM235 -149q0 -28 6.5 -52t25.5 -49t50 -42.5t83.5 -29t121.5 -11.5q78 0 135.5 9.5t92 25t55.5 40t28.5 50t7.5 59.5q0 38 -6 64t-25 51.5t-53.5 40.5t-93 24t-141.5 9q-10 0 -127 -3l-65 -3q-95 -116 -95 -183zM299 686 q0 -64 17 -110.5t47.5 -74t70 -40t88.5 -12.5q50 0 90 13.5t71 41t47.5 73.5t16.5 109q0 131 -57 196t-165 65q-118 0 -172 -64t-54 -197z" />
<glyph unicode="h" horiz-adv-x="1362" d="M37 1455v87q114 28 318 28q34 0 50.5 -2.5t25.5 -15.5t10 -27t1 -50v-557q72 68 173 105.5t211 37.5q161 0 235 -77t74 -239v-476q0 -92 17 -168h153v-89q-94 -25 -264 -25q-126 0 -126 86q0 30 3 97t3 111v363q0 96 -10 156.5t-32.5 92t-51.5 42.5t-76 11 q-110 0 -205 -65t-104 -134v-521q0 -38 1.5 -57t7 -38.5t19 -28.5t35 -17t57.5 -14l8 -84q-156 13 -247 13q-107 0 -223 -13l4 84q31 4 51.5 8.5t35 12.5t21.5 15t11 23.5t4.5 29.5t0.5 40v1153q0 57 -8 88q-40 14 -85 14h-98z" />
<glyph unicode="i" horiz-adv-x="640" d="M40 936v96q83 20 242 20q112 0 161 -20v-763q0 -92 17 -168h144l10 -90q-97 -24 -265 -24q-126 0 -126 86q0 30 3.5 97t3.5 111v561q0 47 -7 79q-36 15 -86 15h-97zM198 1407q0 63 38 101.5t99 38.5q60 0 98.5 -38.5t38.5 -101.5q0 -61 -39 -99.5t-98 -38.5 q-60 0 -98.5 38.5t-38.5 99.5z" />
<glyph unicode="j" horiz-adv-x="810" d="M0 -333l47 277l41 -8l65 -10q0 -87 14 -166l41 -6q46 -6 68 -6q27 0 46.5 20.5t30 51.5t17 81t8 95t1.5 108v738q0 47 -7 79q-36 15 -86 15h-97v96q28 7 100 13.5t142 6.5q112 0 161 -20v-946q0 -229 -84.5 -344.5t-248.5 -115.5q-121 0 -259 41zM348 1407 q0 63 38.5 101.5t98.5 38.5t98.5 -38.5t38.5 -101.5q0 -61 -39 -99.5t-98.5 -38.5t-98 38.5t-38.5 99.5z" />
<glyph unicode="k" horiz-adv-x="1245" d="M37 1454v87q100 22 355 31q31 -20 40.5 -46t9.5 -70v-933l264 255q114 109 115 140q0 18 -38 18v96h433v-96h-38q-40 0 -90 -20.5t-76 -43.5l-343 -306l370 -421q22 -26 71.5 -45t94.5 -19q17 0 29 3l13 -98q-126 14 -245 14q-109 0 -252 -13v88q28 0 38.5 2.5t10.5 14.5 q-19 31 -65 87l-239 291l-53 -38v-206q0 -31 1 -47.5t4.5 -35.5t11 -27.5t21 -18.5t33 -15t49.5 -10l5 -85q-149 13 -232 13q-111 0 -234 -13l3 85q31 4 51.5 8.5t35 12.5t21.5 15t11 23.5t4.5 29.5t0.5 40v1136q0 65 -8 103q-40 14 -86 14h-97z" />
<glyph unicode="l" horiz-adv-x="638" d="M27 1455v87q127 27 296 27q49 0 72 -5.5t35 -20.5v-1274q0 -92 17 -168h164v-90q-102 -24 -273 -24q-126 0 -126 86q0 30 3.5 97t3.5 111v1058q0 61 -9 102q-40 14 -87 14h-96z" />
<glyph unicode="m" horiz-adv-x="2006" d="M57 936v96q27 7 97.5 13.5t137.5 6.5q115 0 164 -20v-127q90 80 182.5 118.5t203.5 38.5q204 0 259 -177q158 177 379 177q154 0 226 -75.5t72 -238.5v-479q0 -92 17 -168h144l10 -89q-101 -25 -266 -25q-126 0 -126 86q0 30 3.5 97t3.5 111l-2 379q0 111 -15 170 t-48 82.5t-94 23.5q-97 0 -176.5 -60t-110.5 -130v-509q0 -31 0.5 -45.5t2.5 -34.5t7.5 -28.5t14 -20t23.5 -16.5t34.5 -10.5t47.5 -9.5l9 -85q-130 13 -256 13q-127 0 -225 -13l4 85q47 6 71.5 12.5t36.5 23.5t14 33.5t2 57.5v461q0 164 -33 220t-125 56q-90 0 -176 -61.5 t-109 -128.5v-510q0 -35 0.5 -51.5t4 -37.5t10.5 -29.5t21 -19.5t34 -16t50 -10l8 -85q-123 13 -250 13q-128 0 -220 -13l3 85q32 4 53 8.5t35 13.5t21.5 16t11 25.5t4 31t0.5 42.5v632q0 46 -7 80q-35 15 -86 15h-97z" />
<glyph unicode="n" horiz-adv-x="1382" d="M57 936v96q83 20 239 20q112 0 160 -20v-126q75 73 177 114.5t202 41.5q137 0 227.5 -79.5t90.5 -238.5v-475q0 -92 17 -168h144l11 -89q-99 -25 -267 -25q-124 0 -124 87q0 30 3 100.5t3 114.5v362q0 150 -47 217.5t-126 67.5q-77 0 -165 -51t-141 -119v-529 q0 -36 0.5 -52t4 -37.5t10.5 -30t21 -19.5t34 -16t50 -10l8 -85q-123 13 -250 13q-128 0 -220 -13l3 85q32 4 52.5 8t35 13t22 15.5t11 24t4 30.5t0.5 43v639q0 44 -7 76q-26 15 -70 15h-113z" />
<glyph unicode="o" horiz-adv-x="1285" d="M113 518q0 167 70.5 292t190 188.5t269.5 63.5t269 -63.5t189.5 -188.5t70.5 -292q0 -130 -42 -234.5t-115 -171t-168 -101.5t-204 -35q-151 0 -269.5 62t-189.5 186.5t-71 293.5zM342 519q0 -222 72.5 -327t227.5 -105q160 0 230.5 105.5t70.5 326.5q0 216 -73 321.5 t-228 105.5q-156 0 -228 -107t-72 -320z" />
<glyph unicode="p" horiz-adv-x="1327" d="M27 936v96q27 7 99.5 13.5t141.5 6.5q112 0 160 -20l2 -115q139 145 358 145q197 0 312 -139t115 -386q0 -138 -36.5 -247t-100 -176.5t-145 -102.5t-175.5 -35q-173 0 -326 115v-331q0 -29 0.5 -43t2.5 -33.5t7 -28t13 -19.5t21.5 -16.5t32 -11t44.5 -9.5l8 -88 q-113 18 -254 18q-131 0 -217 -18l5 88q48 7 72 14.5t36.5 25.5t14 35t1.5 60v1097q0 63 -7 90q-36 15 -88 15h-97zM432 292q50 -96 115.5 -143.5t156.5 -47.5q144 0 214 111t70 310q0 214 -56.5 319t-176.5 105q-176 0 -313 -144z" />
<glyph unicode="q" horiz-adv-x="1337" d="M113 537q0 247 115 386t312 139q213 0 360 -115v85q27 7 98.5 13.5t141.5 6.5q112 0 161 -20v-96h-97q-52 0 -88 -15q-7 -27 -7 -90v-1097q0 -43 1.5 -60t14 -35t36.5 -25.5t72 -14.5l5 -88q-86 18 -217 18q-141 0 -254 -18l8 88q31 5 51 10.5t33.5 16t21 19.5t11 30.5 t4 38t0.5 51.5v326q-153 -115 -326 -115q-94 0 -175.5 35t-145 102.5t-100 176.5t-36.5 247zM340 522q0 -199 70 -310t214 -111q155 0 262 111v620q-139 114 -313 114q-120 0 -176.5 -105t-56.5 -319z" />
<glyph unicode="r" horiz-adv-x="994" d="M68 936v96q80 20 234 20q112 0 161 -20v-241q43 69 74.5 110.5t74.5 82.5t94 59.5t114 18.5q90 0 143 -30l-25 -276h-90l-24 146q-63 7 -68 7q-62 0 -128.5 -47.5t-112 -128.5t-45.5 -165v-337q0 -34 0.5 -50t4 -36.5t10.5 -29t21 -19t34 -15.5t51 -10l9 -84 q-156 13 -247 13q-107 0 -224 -13l4 84q32 4 52.5 8t35 13t22 15.5t11 24t4 30.5t0.5 43v647q0 45 -8 69q-32 15 -69 15h-113z" />
<glyph unicode="s" horiz-adv-x="1010" d="M92 78l49 260l104 -13q14 -163 18 -193q87 -45 249 -45q102 0 154 44.5t52 112.5q0 59 -48.5 98t-146.5 77l-86 33q-60 24 -98 40.5t-78.5 38.5t-64 43t-43.5 49.5t-28 62.5t-8 77q0 138 114 218.5t317 80.5q206 0 306 -65q0 -14 -6 -48.5t-19 -102t-18 -96.5l-100 17 q-6 124 -8 144q-39 21 -87 28t-124 7q-94 0 -140.5 -36t-46.5 -102q0 -69 51.5 -109t153.5 -75l102 -36q163 -58 235.5 -124.5t72.5 -167.5q0 -156 -117.5 -238t-309.5 -82q-114 0 -229.5 31t-171.5 71z" />
<glyph unicode="t" horiz-adv-x="894" d="M39 912v54q0 13 2.5 21t9 13t14.5 7t21 4l167 21l27 185q4 39 25 90l18 48h132v-323h322v-52q0 -43 -15 -55.5t-56 -12.5h-251v-593q0 -219 145 -219q22 0 53 9l30 9q5 38 23 191l131 10l10 -271q-119 -59 -309 -59q-296 0 -296 310v613h-203z" />
<glyph unicode="u" horiz-adv-x="1353" d="M47 936v96q87 20 257 20q89 0 132 -20v-680q0 -37 0.5 -58t4.5 -51.5t10.5 -48t19.5 -37.5t32 -31t47.5 -18t65.5 -7q60 0 130 25t110.5 49t42.5 30q17 101 17 326v298q0 57 -12 96q-32 11 -82 11h-83v96q87 20 257 20q91 0 132 -20v-763q0 -92 17 -168h161v-86 q-114 -28 -264 -28q-83 0 -113 16.5t-30 77.5v34q-43 -32 -56 -41t-56.5 -34.5t-75 -35t-84 -19t-111.5 -9.5q-150 0 -221 81t-71 242v530q0 54 -11 96q-33 11 -83 11h-83z" />
<glyph unicode="v" horiz-adv-x="1319" d="M8 1032q63 20 236 20q204 0 291 -20l17 -96h-55q-51 0 -80 -15q2 -12 7 -26t12.5 -31.5t11.5 -28.5q137 -382 262 -678l256 678q6 17 27 86q-26 15 -79 15h-55l11 96q69 20 224 20q162 0 219 -20v-96h-54q-50 0 -92 -15q-24 -33 -87 -178.5t-138.5 -330t-103.5 -246.5 l-79 -174h-112q-26 0 -36.5 1t-24 7t-24.5 20l-344 815q-20 48 -47 86q-38 15 -92 15h-55z" />
<glyph unicode="w" horiz-adv-x="1906" d="M2 1032q59 20 225 20q204 0 291 -20l17 -96h-55q-52 0 -78 -15l255 -775l110 343q32 101 91 283.5t75 231.5h55q48 0 70 -6.5t30 -28.5l272 -836l196 702q3 11 8.5 41t12.5 45q-26 15 -73 15h-55l11 96q69 20 223 20q163 0 220 -20v-96h-54q-52 0 -92 -15 q-64 -175 -135.5 -374t-132 -368t-66.5 -187h-115q-43 0 -66.5 10.5t-33.5 27t-22 53.5l-212 627q-114 -339 -255 -718h-115q-95 0 -108 43l-286 800q-14 39 -47 86q-39 15 -91 15h-54z" />
<glyph unicode="x" horiz-adv-x="1241" d="M10 -13l36 84q32 3 55 6.5t44 13t30.5 12.5t28 21t23 23.5t28 34.5t31.5 39l242 294l-233 320q-25 34 -79 86q-45 15 -97 15h-33l-27 96q59 20 245 20q201 0 292 -20l17 -96h-56q-51 0 -73 -15q9 -16 33 -47t30 -39l140 -193q58 74 200 279q-22 15 -68 15h-55l24 96 q80 20 244 20q152 0 199 -20l-34 -96h-43q-50 0 -97 -15l-123 -150q-125 -152 -181 -212l234 -337q51 -77 84.5 -103.5t109.5 -37.5l40 -94q-75 13 -261 13q-163 0 -228 -13l-9 84q47 6 66.5 15t19.5 26q0 20 -62 109l-149 213l-139 -192q-73 -99 -73 -127q0 -17 17 -27 t57 -17l-34 -84q-51 13 -195 13q-156 0 -221 -13z" />
<glyph unicode="y" horiz-adv-x="1317" d="M8 1031q66 21 236 21q201 0 292 -21l15 -96h-55q-59 0 -85 -15q0 -1 150 -384l145 -365l264 664q3 12 12.5 41.5t13.5 44.5q-26 15 -78 15h-56l12 96q69 20 223 20q163 0 220 -20v-96h-54q-55 0 -92 -15q-5 -5 -74 -160l-415 -957q-72 -166 -165.5 -229t-231.5 -63 q-53 0 -98.5 8.5t-56.5 19.5l22 139q75 -28 152 -28q50 0 80 9t64 41t65.5 90.5t76.5 161.5l-373 881q-22 52 -47 86q-39 15 -91 15h-54z" />
<glyph unicode="z" horiz-adv-x="1095" d="M86 81v59l670 787h-366q-98 0 -136 -22l-42 -152q-43 -4 -96 -4q-8 122 -8 195v93q33 0 141.5 -2.5t155.5 -2.5h460q25 -1 36.5 -3t26 -9.5t19.5 -23t5 -41.5v-78l-657 -772h403q98 0 136 22l42 152q43 4 96 4l6 -168q0 -8 0.5 -23.5t1.5 -21.5v-80q-76 10 -369 10h-478 q-26 0 -36.5 14.5t-10.5 66.5z" />
<glyph unicode="{" horiz-adv-x="702" d="M100 703q72 34 102 77t30 116v427q0 139 69 190t209 51q41 0 65 -10.5t24 -43.5v-16q-70 -4 -110 -13.5t-62 -32t-28 -51t-6 -80.5v-407q0 -202 -135 -245q138 -44 138 -243v-406q0 -57 12 -90t28.5 -44.5t49.5 -22.5q38 -13 113 -20v-16q0 -31 -12 -45q-34 -10 -87 -10 q-135 0 -201.5 53.5t-66.5 195.5v420q0 84 -30.5 133.5t-99.5 75.5v26.5t-2 30.5z" />
<glyph unicode="|" horiz-adv-x="1168" d="M510 -66v1661h70q33 0 50.5 -11t25.5 -36v-1796h-70q-40 0 -67 11q-9 68 -9 171z" />
<glyph unicode="}" horiz-adv-x="701" d="M102 -161q90 6 132.5 22.5t57.5 50.5t15 104v342q0 63 5 108.5t19 88t42 70t70 40.5q-136 36 -136 259v369q0 45 -4 76t-15.5 53t-24.5 34.5t-40 20.5t-51.5 11t-69.5 6v16q0 33 23.5 43.5t65.5 10.5q152 0 213 -56t61 -213v-373q0 -76 26.5 -117.5t106.5 -72.5v-86 q-83 -28 -108 -89.5t-25 -186.5v-353q0 -76 -18.5 -126.5t-56.5 -76.5t-84.5 -36t-114.5 -10q-43 0 -66 11t-23 44v16z" />
<glyph unicode="~" horiz-adv-x="1205" d="M113 495q19 75 101.5 125.5t155.5 50.5q59 0 147.5 -33.5t172.5 -66.5t133 -33q74 0 126.5 33t76.5 74q49 -63 64 -102q-23 -71 -93 -110t-150 -39q-58 0 -126 21t-120 47t-115 47t-112 21q-103 0 -185 -132q-61 64 -76 97z" />
<glyph unicode="&#xa1;" horiz-adv-x="704" d="M211 1320q0 56 36.5 96.5t103.5 40.5t103.5 -40.5t36.5 -96.5t-37.5 -98.5t-102.5 -42.5t-102.5 42.5t-37.5 98.5zM219 43q0 13 3.5 48.5t9 93.5t8.5 115l35 665q2 46 18 62.5t65 16.5q40 0 71 -12q-4 -36 -4 -90q0 -77 12 -298q29 -534 29 -567q0 -52 -25.5 -75.5 t-87.5 -23.5q-89 0 -133 38q-1 9 -1 27z" />
<glyph unicode="&#xa2;" horiz-adv-x="1206" d="M162 602q0 231 119 376.5t320 189.5v179h44q43 0 55.5 -15t12.5 -58v-90q19 3 49 3q36 0 90.5 -4.5t127 -24t92.5 -50.5q0 -22 -3 -47l-49 -176l-100 21q-36 79 -84.5 118.5t-122.5 47.5v-859q167 0 286 137l78 -38q-40 -105 -137 -159t-227 -63v-166h-45q-25 0 -39 4 t-20 16t-7 22.5t-1 35.5v90q-206 22 -322.5 156t-116.5 354zM382 636q0 -158 58.5 -259.5t160.5 -141.5v829q-104 -41 -161.5 -149t-57.5 -279z" />
<glyph unicode="&#xa3;" horiz-adv-x="1218" d="M100 92q139 43 197.5 105.5t58.5 177.5q0 153 -16 323h-209v50q0 39 12 48t49 9h133q-31 186 -31 288q0 89 28.5 157.5t73 108.5t105.5 65.5t118 34.5t119 9q114 0 233 -22.5t155 -70.5q2 -175 5 -224l-123 -21q-30 111 -95 161t-185 50q-110 0 -166.5 -68.5 t-56.5 -194.5q0 -67 7 -123l18 -150h337v-49q0 -40 -14 -49t-51 -9h-259q8 -102 8 -169q0 -219 -121 -411h272q77 0 111 2t81.5 12t73 32.5t54.5 63.5t57 105l79 -34q0 -154 -26 -289q-119 -17 -433 -17q-281 0 -549 7q-30 13 -40 33.5t-10 58.5z" />
<glyph unicode="&#xa4;" horiz-adv-x="1251" d="M133 1131q8 7 28.5 28t35.5 33t29 18q30 -17 50 -37l80 -80q121 91 269 91q146 0 270 -92l132 132q3 -3 14 -13.5t14.5 -14.5t12 -13.5t12 -15t8.5 -14t7 -16.5t2 -16q0 -12 -1 -13l-107 -106q90 -117 90 -272q0 -156 -91 -268l130 -132q-66 -66 -94 -78q-16 6 -36 24 t-52 52t-39 41q-124 -90 -273 -90q-147 0 -267 90l-131 -129q-67 65 -80 88q14 28 38 53l82 81q-90 114 -90 269t90 269zM308 731q0 -139 92.5 -231t226.5 -92q135 0 227.5 93.5t92.5 229.5q0 137 -92 230.5t-228 93.5q-135 0 -227 -93t-92 -231z" />
<glyph unicode="&#xa5;" horiz-adv-x="1624" d="M10 1430q99 13 288 13q248 0 340 -15l12 -100h-71q-74 0 -98 -11q3 -36 40 -95l326 -563q83 144 177.5 323.5t120.5 245.5q25 61 31 89q-25 11 -98 11h-70l21 102q105 13 292 13q224 0 293 -15l-40 -100h-82q-73 0 -108 -11q-39 -53 -74 -120q1 -1 -30.5 -58.5 t-89.5 -158.5t-113 -191l-117 -191h226v-41q0 -22 -3.5 -34.5t-13.5 -18t-19 -6.5t-30 -1h-209v-108h275v-40q0 -22 -3.5 -34.5t-14 -18t-19.5 -6.5t-30 -1h-208v-39q0 -72 15 -124q33 -9 102 -9h91v-136q-148 19 -317 19q-145 0 -316 -19v136h89q72 0 103 9q15 45 15 121 v42h-267v67q28 33 101 33h166v99l-5 9h-262v67q30 34 105 34h102l-350 599q-13 22 -34 62.5t-34 57.5q-33 11 -107 11h-74z" />
<glyph unicode="&#xa6;" horiz-adv-x="551" d="M209 354h56q63 0 78 -46v-755h-58q-28 0 -43.5 4.5t-22.5 18t-8.5 26t-1.5 40.5v712zM209 822v713h56q62 0 78 -47v-756h-58q-28 0 -43.5 5t-22.5 18.5t-8.5 26t-1.5 40.5z" />
<glyph unicode="&#xa7;" horiz-adv-x="1063" d="M160 717q0 93 40.5 154t125.5 100q-69 51 -100 109t-31 136q0 140 104.5 221t297.5 81q228 0 292 -76l-37 -207l-92 19q-28 84 -70.5 115t-137.5 31q-89 0 -139 -39t-50 -110q0 -64 47.5 -109t166.5 -98q123 -54 196.5 -94.5t115.5 -82.5t56 -82t14 -97q0 -91 -39.5 -161 t-118.5 -108q69 -40 104.5 -105t35.5 -138q0 -150 -109 -231.5t-291 -81.5q-90 0 -212.5 35t-164.5 79q0 115 5 210l96 11q38 -119 106 -167.5t189 -48.5q92 0 150.5 41.5t58.5 117.5q0 26 -12 49t-29.5 39.5t-51.5 36.5t-61 33t-77.5 36t-83.5 40q-72 35 -120 66t-90.5 72 t-63 91.5t-20.5 112.5zM325 744q0 -49 28 -84t96 -71q51 -27 221 -106q125 64 125 165q0 29 -20.5 58t-49 52.5t-80.5 51.5t-93.5 47.5t-108.5 48.5q-118 -61 -118 -162z" />
<glyph unicode="&#xa8;" horiz-adv-x="877" d="M155 1411q0 47 33.5 80t79.5 33t79.5 -33t33.5 -80q0 -46 -33.5 -79t-79.5 -33t-79.5 33t-33.5 79zM500 1411q0 47 33.5 80t79.5 33t79.5 -33t33.5 -80q0 -46 -33.5 -79t-79.5 -33t-79.5 33t-33.5 79z" />
<glyph unicode="&#xa9;" horiz-adv-x="1774" d="M113 720q0 157 61.5 300.5t165 247t247 165t300.5 61.5t300.5 -61.5t247 -165t165 -247t61.5 -300.5t-61.5 -300.5t-165 -247t-247 -165t-300.5 -61.5t-300.5 61.5t-247 165t-165 247t-61.5 300.5zM225 720q0 -134 52.5 -257t141 -211.5t211.5 -141t257 -52.5t257 52.5 t211.5 141t141 211.5t52.5 257t-52.5 257t-141 211.5t-211.5 141t-257 52.5t-257 -52.5t-211.5 -141t-141 -211.5t-52.5 -257zM470 705q0 210 121.5 328.5t315.5 118.5q82 0 153 -21t113 -60l-13 -160h-57q-38 78 -89 114.5t-124 36.5q-108 0 -177 -87.5t-69 -225.5 q0 -186 75.5 -278.5t194.5 -92.5q144 0 251 72l11 -103q-108 -65 -281 -65q-190 0 -307.5 113t-117.5 310z" />
<glyph unicode="&#xaa;" horiz-adv-x="793" d="M72 985q0 104 83.5 155.5t258.5 51.5h93v56q0 90 -29.5 128.5t-86.5 38.5q-67 0 -112.5 -31t-93.5 -97q-78 44 -94 57q0 52 76.5 95.5t194.5 43.5q84 0 142.5 -18.5t89.5 -52.5t44.5 -74.5t13.5 -93.5q0 -39 -0.5 -113t-0.5 -107q0 -99 5 -134q30 -9 103 -9v-55 q-67 -17 -165 -17q-72 0 -84 36l-3 51q-103 -98 -220 -98q-99 0 -157 48.5t-58 138.5zM218 992q0 -43 31 -70.5t82 -27.5q73 0 165 62q11 77 11 163h-100q-189 0 -189 -127z" />
<glyph unicode="&#xab;" horiz-adv-x="1028" d="M133 531q13 46 38 81l250 350q9 13 37 41q27 0 63 -22l53 -22l-261 -411l248 -410q-37 -29 -53.5 -39t-30.5 -10q-22 0 -43 12zM482 531q4 34 37 81l222 316q9 13 36 40h4q13 0 61 -20l53 -23l-233 -377l220 -377q-37 -30 -53 -39.5t-32 -9.5q-27 0 -43 12z" />
<glyph unicode="&#xac;" horiz-adv-x="1257" d="M133 685v67q0 28 5 44.5t20 23t27.5 8t41.5 1.5h897v-574h-68q-63 0 -76 46v384h-847z" />
<glyph unicode="&#xad;" horiz-adv-x="898" d="M170 473v88q0 40 18 50.5t62 10.5h478v-85q0 -30 -11 -44.5t-35 -19.5h-512z" />
<glyph unicode="&#xae;" horiz-adv-x="1774" d="M113 720q0 157 61.5 300.5t165 247t247 165t300.5 61.5t300.5 -61.5t247 -165t165 -247t61.5 -300.5t-61.5 -300.5t-165 -247t-247 -165t-300.5 -61.5t-300.5 61.5t-247 165t-165 247t-61.5 300.5zM225 720q0 -134 52.5 -257t141 -211.5t211.5 -141t257 -52.5t257 52.5 t211.5 141t141 211.5t52.5 257t-52.5 257t-141 211.5t-211.5 141t-257 52.5t-257 -52.5t-211.5 -141t-141 -211.5t-52.5 -257zM501 1046v60q9 1 55.5 8t91.5 11q58 6 209 6q181 0 269.5 -56t88.5 -187q0 -91 -55.5 -151.5t-145.5 -86.5q51 -16 96 -66t74 -106l37 -71 q2 -4 5.5 -10.5t5.5 -10.5t5 -9.5t5.5 -8.5l5 -6t6 -4.5t6.5 -1.5q6 0 78 37l16 -46q-86 -71 -151 -71q-16 0 -26.5 1t-26 6t-27.5 16.5t-19 30.5q-75 183 -183 314q-96 0 -143 3v-210q0 -37 9 -71q20 -6 59 -6h52v-78q-104 11 -202 11q-82 0 -183 -11v78h66q29 0 45 6 q9 26 9 69v546q0 41 -9 63q-11 2 -48 2h-75zM778 714q62 -2 104 -2q183 0 183 171q0 95 -45 132.5t-152 37.5q-50 0 -90 -3v-336z" />
<glyph unicode="&#xaf;" horiz-adv-x="591" d="M2 1298v123h587v-123h-587z" />
<glyph unicode="&#xb0;" horiz-adv-x="839" d="M98 1126q0 134 93.5 227.5t225.5 93.5q134 0 228 -94t94 -227t-94 -227t-228 -94q-132 0 -225.5 94.5t-93.5 226.5zM208 1126q0 -87 62.5 -148.5t146.5 -61.5q87 0 148.5 61.5t61.5 148.5q0 86 -61.5 148.5t-148.5 62.5q-86 0 -147.5 -62.5t-61.5 -148.5z" />
<glyph unicode="&#xb1;" horiz-adv-x="1257" d="M133 35v68q0 50 14.5 63t65.5 13h911v-67q0 -34 -11 -51.5t-37 -25.5h-943zM133 673v67q0 51 16 63.5t66 12.5h341v375h67q50 0 64 -14.5t14 -65.5v-295h423v-66q0 -34 -11 -51.5t-37 -25.5h-375v-374h-69q-51 0 -63.5 14.5t-12.5 64.5v295h-423z" />
<glyph unicode="&#xb2;" horiz-adv-x="891" d="M140 605q0 11 8 51q218 214 337 351q63 70 85 123t22 104q0 157 -142 157q-72 0 -132 -43t-71 -119l-89 74q11 77 93 120t189 43q133 0 206.5 -64.5t73.5 -173.5t-89.5 -221t-353.5 -345h243q27 0 48.5 3.5t49.5 14t52 36.5t41 66q9 0 22 -3.5t17 -3.5q0 -120 -8 -184 q-34 -11 -81 -14t-157 -3h-307q-45 0 -57 31z" />
<glyph unicode="&#xb3;" horiz-adv-x="875" d="M167 681q10 84 20 138l67 -12q0 -63 29.5 -103.5t70.5 -55.5t91 -15q84 0 134 52.5t50 131.5q0 173 -262 173h-25v37q0 21 6 35h34q33 0 69.5 11.5t71 33t57 59t22.5 83.5q0 70 -44.5 108t-110.5 38q-68 0 -126 -42t-69 -114l-82 67q11 77 89 119.5t180 42.5 q114 0 198 -58t84 -162q0 -69 -57.5 -129t-158.5 -83q247 -32 247 -226q0 -116 -82 -184.5t-217 -68.5q-103 0 -185.5 37t-100.5 87z" />
<glyph unicode="&#xb4;" horiz-adv-x="1225" d="M391 1265q43 72 86.5 148.5t65 113t37.5 60.5h251q0 -7 -303 -323q-137 0 -137 1z" />
<glyph unicode="&#xb5;" horiz-adv-x="1521" d="M176 941v86q129 27 367 27q23 0 23 -47v-723q0 -94 38 -143.5t141 -49.5q60 0 129.5 27t110.5 53.5t43 33.5q17 101 17 326v303q0 57 -12 96q-32 11 -82 11h-83v86q129 27 367 27q22 0 22 -43v-742q0 -109 23 -167q33 -4 84 -4h71v-83q-115 -26 -264 -26q-83 0 -113 16 t-30 76l-2 34q-62 -43 -105.5 -69t-107.5 -49.5t-122 -23.5q-66 0 -125 26v-119q0 -68 13 -111q37 -26 88 -26v-83q-69 -24 -195 -24t-126 86q0 30 3.5 97t3.5 111v904q0 54 -11 96q-33 11 -83 11h-83z" />
<glyph unicode="&#xb6;" horiz-adv-x="1208" d="M82 1004q0 204 139 293.5t434 89.5h142q243 0 327 -15v-100h-92q-75 0 -103 -11q-15 -42 -15 -120v-1077q0 -79 16 -121q29 -9 103 -9h89v-136q-187 19 -348 19v1494h-154v-1494q-161 0 -348 -19v136h89q74 0 103 9q16 42 16 121v531q-203 0 -300.5 107.5t-97.5 301.5z " />
<glyph unicode="&#xb7;" horiz-adv-x="554" d="M166 597q0 47 33.5 80t79.5 33t79.5 -33t33.5 -80q0 -46 -33.5 -79t-79.5 -33t-79.5 33t-33.5 79z" />
<glyph unicode="&#xb8;" horiz-adv-x="695" d="M123 -417q0 24 6 51q81 -24 134 -24q63 0 98.5 26.5t35.5 72.5q0 98 -100 113q-7 0 -37 -8q-9 6 -28.5 14t-22.5 9l85 174h101l-56 -107q111 -6 168 -45.5t57 -130.5q0 -112 -70.5 -169t-187.5 -57q-115 0 -177 41q-6 17 -6 40z" />
<glyph unicode="&#xb9;" horiz-adv-x="707" d="M168 1391q3 1 46.5 16.5t57.5 19.5t47 14t55.5 13.5t42.5 3.5q27 0 38 -18v-709q0 -45 8 -75q23 -6 62 -6h55v-82q-91 12 -185 12q-93 0 -191 -12v82h69q31 0 47 6q10 38 10 73v601q-24 18 -58 18q-5 0 -10.5 -0.5t-13 -1.5t-11.5 -1l-58 -11z" />
<glyph unicode="&#xba;" horiz-adv-x="845" d="M72 1139q0 159 99.5 251.5t252.5 92.5t251 -92.5t98 -251.5q0 -158 -98 -249.5t-251 -91.5q-155 0 -253.5 91.5t-98.5 249.5zM244 1140q0 -136 45 -200.5t136 -64.5t134 64.5t43 201.5t-43 201.5t-134 64.5q-94 0 -137.5 -64.5t-43.5 -202.5z" />
<glyph unicode="&#xbb;" horiz-adv-x="1028" d="M133 171l233 377l-220 377l50 23q45 20 61 20q31 -30 37 -40l215 -316q30 -39 38 -81l-263 -369q-11 -16 -35 -40q-21 0 -56 18zM456 138l259 410l-250 411l50 22q33 20 62 22q24 -24 36 -41l243 -350q32 -40 39 -81l-290 -402q-9 -12 -37 -40q-37 0 -112 49z" />
<glyph unicode="&#xbc;" horiz-adv-x="1716" d="M140 1391q3 1 46.5 16.5t57.5 19.5t47 14t55.5 13.5t42.5 3.5q27 0 38 -18v-709q0 -45 8 -75q23 -6 62 -6h55v-82q-91 12 -185 12q-93 0 -191 -12v82h69q31 0 47 6q10 38 10 73v601q-24 18 -58 18q-5 0 -10.5 -0.5t-13 -1.5t-11.5 -1l-58 -11zM351 -25 q153 296 444.5 845.5t345.5 651.5h54q53 0 65 -19q-11 -26 -50 -98l-737 -1395h-65q-45 0 -57 15zM889 298q5 14 18 32q355 509 396 552h54q35 0 45.5 -9t10.5 -37v-514h170v-33q0 -29 -9.5 -36.5t-38.5 -7.5h-122v-82q0 -51 9 -75q21 -5 62 -5h54v-83q-87 12 -179 12 q-95 0 -192 -12v83h54q45 0 62 5q10 26 10 74v83h-380q-24 19 -24 53zM1005 322h288v379l-2 29l-275 -388z" />
<glyph unicode="&#xbd;" horiz-adv-x="1797" d="M140 1391q3 1 46.5 16.5t57.5 19.5t47 14t55.5 13.5t42.5 3.5q27 0 38 -18v-709q0 -45 8 -75q23 -6 62 -6h55v-82q-91 12 -185 12q-93 0 -191 -12v82h69q31 0 47 6q10 38 10 73v601q-24 18 -58 18q-5 0 -10.5 -0.5t-13 -1.5t-11.5 -1l-58 -11zM366 -25q5 13 13 28.5 t20.5 37t19.5 35.5q96 180 736 1396h55q52 0 65 -19q-8 -16 -51 -98l-737 -1395h-65q-44 0 -56 15zM1041 31q0 11 8 51q218 214 337 351q63 70 85 123t22 104q0 157 -142 157q-72 0 -132 -43t-71 -119l-89 74q11 77 93 120t189 43q133 0 206.5 -64.5t73.5 -173.5t-89.5 -221 t-353.5 -345h243q27 0 48.5 3.5t49.5 14t52 36.5t41 66q9 0 22 -3.5t17 -3.5q0 -120 -8 -184q-34 -11 -81 -14t-157 -3h-307q-45 0 -57 31z" />
<glyph unicode="&#xbe;" horiz-adv-x="1830" d="M147 681l3 23q1 6 3 23t5.5 41t8.5 51l67 -12q0 -63 29.5 -103.5t70.5 -55.5t91 -15q84 0 134 52.5t50 131.5q0 173 -262 173h-25v37q0 21 6 35h34q33 0 69.5 11.5t71 33t57 59t22.5 83.5q0 70 -44.5 108t-110.5 38q-68 0 -126 -42t-69 -114l-82 67q11 77 89 119.5 t180 42.5q114 0 198 -58t84 -162q0 -69 -57.5 -129t-158.5 -83q247 -32 247 -226q0 -116 -82 -184.5t-217 -68.5q-103 0 -185.5 37t-100.5 87zM497 -25q49 93 59 109l732 1388h55q52 0 64 -19q-17 -38 -54 -106l-733 -1387h-65q-43 0 -58 15zM1035 298q5 14 18 32 q355 509 396 552h54q35 0 45.5 -9t10.5 -37v-514h170v-33q0 -29 -9.5 -36.5t-38.5 -7.5h-122v-82q0 -51 9 -75q21 -5 62 -5h54v-83q-87 12 -179 12q-95 0 -192 -12v83h54q45 0 62 5q10 26 10 74v83h-380q-24 19 -24 53zM1151 322h288v379l-2 29l-275 -388z" />
<glyph unicode="&#xbf;" horiz-adv-x="984" d="M88 326q0 70 27.5 135t68.5 111.5t89.5 92.5t89.5 80t68.5 70.5t27.5 66.5q0 74 -31 175h78q51 -29 92 -80t41 -110q0 -55 -34 -108.5t-82 -99t-96.5 -94t-82.5 -111.5t-34 -132q0 -98 51 -155t136 -57q34 0 60 2.5t57 12.5t54 27t43 48t32 73h137q-1 -69 -27 -123 t-65 -86t-92 -52.5t-102 -28t-101 -7.5q-184 0 -294.5 93t-110.5 257zM381 1340q0 64 39.5 98t89.5 34q74 0 110.5 -38.5t36.5 -92.5q0 -73 -36.5 -110t-101.5 -37q-58 0 -98 44.5t-40 101.5z" />
<glyph unicode="&#xc0;" d="M0 -14l30 140h46q67 0 96 9q32 43 61 121q66 179 256 657l208 524h92q75 0 122 -16l441 -1162q28 -74 60 -124q35 -9 96 -9h44l29 -140q-96 14 -242 14q-189 0 -298 -14l-19 140h17q72 0 99 9q-2 51 -29 121l-66 167h-577l-54 -164q-23 -69 -23 -112q0 -21 72 -21h46 l-9 -140q-81 14 -212 14q-177 0 -286 -14zM477 2013h250l189 -323h-138zM499 526h506l-246 733h-9z" />
<glyph unicode="&#xc1;" d="M0 -14l30 140h46q67 0 96 9q32 43 61 121q66 179 256 657l208 524h92q75 0 122 -16l441 -1162q28 -74 60 -124q35 -9 96 -9h44l29 -140q-96 14 -242 14q-189 0 -298 -14l-19 140h17q72 0 99 9q-2 51 -29 121l-66 167h-577l-54 -164q-23 -69 -23 -112q0 -21 72 -21h46 l-9 -140q-81 14 -212 14q-177 0 -286 -14zM477 1691q43 72 86.5 148.5t65 113t37.5 60.5h251q0 -7 -303 -323q-137 0 -137 1zM499 526h506l-246 733h-9z" />
<glyph unicode="&#xc2;" d="M0 -14l30 140h46q67 0 96 9q32 43 61 121q66 179 256 657l208 524h92q75 0 122 -16l441 -1162q28 -74 60 -124q35 -9 96 -9h44l29 -140q-96 14 -242 14q-189 0 -298 -14l-19 140h17q72 0 99 9q-2 51 -29 121l-66 167h-577l-54 -164q-23 -69 -23 -112q0 -21 72 -21h46 l-9 -140q-81 14 -212 14q-177 0 -286 -14zM387 1708q14 26 22 37l204 268h199l205 -268q19 -31 21 -37q-12 -18 -53 -18h-81l-190 192l-194 -192h-77q-44 0 -56 18zM499 526h506l-246 733h-9z" />
<glyph unicode="&#xc3;" d="M0 -14l30 140h46q67 0 96 9q32 43 61 121q66 179 256 657l208 524h92q75 0 122 -16l441 -1162q28 -74 60 -124q35 -9 96 -9h44l29 -140q-96 14 -242 14q-189 0 -298 -14l-19 140h17q72 0 99 9q-2 51 -29 121l-66 167h-577l-54 -164q-23 -69 -23 -112q0 -21 72 -21h46 l-9 -140q-81 14 -212 14q-177 0 -286 -14zM392 1746q91 201 242 201q41 0 85.5 -16.5t76.5 -37t73 -37t75 -16.5q64 0 122 91q53 0 102 -28q-106 -202 -234 -202q-56 0 -117 27t-114 54t-90 27q-14 0 -29 -5.5t-26 -13t-23.5 -19.5t-19 -20t-15.5 -19t-10 -13q-55 0 -98 27z M499 526h506l-246 733h-9z" />
<glyph unicode="&#xc4;" d="M0 -14l30 140h46q67 0 96 9q32 43 61 121q66 179 256 657l208 524h92q75 0 122 -16l441 -1162q28 -74 60 -124q35 -9 96 -9h44l29 -140q-96 14 -242 14q-189 0 -298 -14l-19 140h17q72 0 99 9q-2 51 -29 121l-66 167h-577l-54 -164q-23 -69 -23 -112q0 -21 72 -21h46 l-9 -140q-81 14 -212 14q-177 0 -286 -14zM427 1837q0 47 33.5 80t79.5 33t79.5 -33t33.5 -80q0 -46 -33.5 -79t-79.5 -33t-79.5 33t-33.5 79zM499 526h506l-246 733h-9zM775 1837q0 47 33.5 80t79.5 33t79.5 -33t33.5 -80q0 -46 -33.5 -79t-79.5 -33t-79.5 33t-33.5 79z " />
<glyph unicode="&#xc5;" d="M0 -14l30 140h46q67 0 96 9q32 43 61 121q66 179 256 657l208 524h92q75 0 122 -16l441 -1162q28 -74 60 -124q35 -9 96 -9h44l29 -140q-96 14 -242 14q-189 0 -298 -14l-19 140h17q72 0 99 9q-2 51 -29 121l-66 167h-577l-54 -164q-23 -69 -23 -112q0 -21 72 -21h46 l-9 -140q-81 14 -212 14q-177 0 -286 -14zM499 526h506l-246 733h-9zM580 1766q0 99 65.5 162t166.5 63q102 0 167.5 -63t65.5 -162q0 -101 -66.5 -163t-166.5 -62t-166 63.5t-66 161.5zM684 1766q0 -60 34 -93.5t94 -33.5q58 0 94 34t36 93q0 60 -35 94.5t-95 34.5 q-58 0 -93 -35t-35 -94z" />
<glyph unicode="&#xc6;" horiz-adv-x="2265" d="M0 -14l51 140h46q64 0 96 9q32 37 80 121q21 43 151 278t206 379l279 524h896q111 -252 120 -293l-146 -6l-19 50q-22 58 -44 94q-69 28 -302 28q-64 0 -267 -4l112 -507h340q25 0 38 2.5t28 12.5t22 33.5t9 62.5h52q40 -179 66 -355h-63q-43 75 -73 99.5t-85 24.5h-307 l124 -553h456q50 0 89 9.5t51 24.5q2 22 2 37q0 47 -11 130q15 0 59.5 -1t67.5 -1l22 -116q25 -134 33 -188q-59 -19 -141.5 -27t-242.5 -8q-83 0 -233.5 7t-231.5 7q-192 0 -304 -14v140h22q72 0 101 9q1 9 1 33q0 33 -11 88l-33 167h-575l-79 -164q-40 -83 -40 -115 q0 -18 67 -18h47l-30 -140q-81 14 -210 14q-176 0 -286 -14zM580 526h504l-135 705z" />
<glyph unicode="&#xc7;" horiz-adv-x="1257" d="M117 685q0 370 188 571.5t534 201.5q138 0 259.5 -32t184.5 -71l-24 -279h-123q-27 73 -51.5 118t-59 79.5t-80.5 49t-111 14.5q-98 0 -177.5 -30.5t-135 -84.5t-92.5 -131t-54 -167.5t-17 -195.5q0 -315 125 -472.5t348 -157.5q194 0 460 123l15 -139 q-199 -117 -484 -119l-31 -59q111 -6 168 -45.5t57 -130.5q0 -112 -70.5 -169t-187.5 -57q-115 0 -177 41q-6 17 -6 40q0 24 6 51q81 -24 134 -24q63 0 98.5 26.5t35.5 72.5q0 98 -100 113q-7 0 -37 -8q-9 6 -28.5 14t-22.5 9l64 130q-136 13 -246 63.5t-191.5 138.5 t-126 219.5t-44.5 296.5z" />
<glyph unicode="&#xc8;" horiz-adv-x="1276" d="M78 1299v108q161 30 514 30h612l27 -129q27 -139 27 -164l-147 -6l-8 50q-10 57 -23 94q-63 28 -257 28q-10 0 -308 -7v-504h340q25 0 38.5 2.5t30.5 12.5t29 33.5t23 62.5h52q0 -180 -13 -355h-63q-24 74 -50 99t-80 25h-307v-553h456q50 0 91 9.5t57 24.5q18 50 27 167 q16 0 59.5 -1t64.5 -1v-116q0 -68 -10 -188q-63 -19 -147 -27t-244 -8q-83 0 -232 7t-230 7q-202 0 -318 -14v140h89q75 0 103 9q16 41 16 121v918q0 72 -17 115q-23 10 -91 10h-111zM393 2013h250l189 -323h-138z" />
<glyph unicode="&#xc9;" horiz-adv-x="1276" d="M78 1299v108q161 30 514 30h612l27 -129q27 -139 27 -164l-147 -6l-8 50q-10 57 -23 94q-63 28 -257 28q-10 0 -308 -7v-504h340q25 0 38.5 2.5t30.5 12.5t29 33.5t23 62.5h52q0 -180 -13 -355h-63q-24 74 -50 99t-80 25h-307v-553h456q50 0 91 9.5t57 24.5q18 50 27 167 q16 0 59.5 -1t64.5 -1v-116q0 -68 -10 -188q-63 -19 -147 -27t-244 -8q-83 0 -232 7t-230 7q-202 0 -318 -14v140h89q75 0 103 9q16 41 16 121v918q0 72 -17 115q-23 10 -91 10h-111zM393 1691q43 72 86.5 148.5t65 113t37.5 60.5h251q0 -7 -303 -323q-137 0 -137 1z" />
<glyph unicode="&#xca;" horiz-adv-x="1276" d="M78 1299v108q161 30 514 30h612l27 -129q27 -139 27 -164l-147 -6l-8 50q-10 57 -23 94q-63 28 -257 28q-10 0 -308 -7v-504h340q25 0 38.5 2.5t30.5 12.5t29 33.5t23 62.5h52q0 -180 -13 -355h-63q-24 74 -50 99t-80 25h-307v-553h456q50 0 91 9.5t57 24.5q18 50 27 167 q16 0 59.5 -1t64.5 -1v-116q0 -68 -10 -188q-63 -19 -147 -27t-244 -8q-83 0 -232 7t-230 7q-202 0 -318 -14v140h89q75 0 103 9q16 41 16 121v918q0 72 -17 115q-23 10 -91 10h-111zM302 1708q14 26 22 37l204 268h199l205 -268q19 -31 21 -37q-12 -18 -53 -18h-81 l-190 192l-194 -192h-77q-44 0 -56 18z" />
<glyph unicode="&#xcb;" horiz-adv-x="1276" d="M78 1299v108q161 30 514 30h612l27 -129q27 -139 27 -164l-147 -6l-8 50q-10 57 -23 94q-63 28 -257 28q-10 0 -308 -7v-504h340q25 0 38.5 2.5t30.5 12.5t29 33.5t23 62.5h52q0 -180 -13 -355h-63q-24 74 -50 99t-80 25h-307v-553h456q50 0 91 9.5t57 24.5q18 50 27 167 q16 0 59.5 -1t64.5 -1v-116q0 -68 -10 -188q-63 -19 -147 -27t-244 -8q-83 0 -232 7t-230 7q-202 0 -318 -14v140h89q75 0 103 9q16 41 16 121v918q0 72 -17 115q-23 10 -91 10h-111zM342 1837q0 47 33.5 80t79.5 33t79.5 -33t33.5 -80q0 -46 -33.5 -79t-79.5 -33t-79.5 33 t-33.5 79zM690 1837q0 47 33.5 80t79.5 33t79.5 -33t33.5 -80q0 -46 -33.5 -79t-79.5 -33t-79.5 33t-33.5 79z" />
<glyph unicode="&#xcc;" horiz-adv-x="752" d="M78 1312v110q125 15 315 15q241 0 321 -15v-110h-92q-72 0 -103 -11q-14 -54 -14 -114v-928q0 -70 14 -124q35 -9 103 -9h90v-140q-112 14 -281 14q-222 0 -352 -14v140h89q74 0 103 9q16 42 16 121v931q0 69 -16 114q-29 11 -103 11h-90zM124 2013h250l189 -323h-138z " />
<glyph unicode="&#xcd;" horiz-adv-x="752" d="M78 1312v110q125 15 315 15q241 0 321 -15v-110h-92q-72 0 -103 -11q-14 -54 -14 -114v-928q0 -70 14 -124q35 -9 103 -9h90v-140q-112 14 -281 14q-222 0 -352 -14v140h89q74 0 103 9q16 42 16 121v931q0 69 -16 114q-29 11 -103 11h-90zM127 1691q43 72 86.5 148.5 t65 113t37.5 60.5h251q0 -7 -303 -323q-137 0 -137 1z" />
<glyph unicode="&#xce;" horiz-adv-x="752" d="M79 1708q14 26 22 37l204 268h199l205 -268q19 -31 21 -37q-12 -18 -53 -18h-81l-190 192l-194 -192h-77q-44 0 -56 18zM121 1312v110q125 15 315 15q241 0 321 -15v-110h-92q-72 0 -103 -11q-14 -54 -14 -114v-928q0 -70 14 -124q35 -9 103 -9h90v-140q-112 14 -281 14 q-222 0 -352 -14v140h89q74 0 103 9q16 42 16 121v931q0 69 -16 114q-29 11 -103 11h-90z" />
<glyph unicode="&#xcf;" horiz-adv-x="752" d="M72 1837q0 47 33.5 80t79.5 33t79.5 -33t33.5 -80q0 -46 -33.5 -79t-79.5 -33t-79.5 33t-33.5 79zM78 1312v110q125 15 315 15q241 0 321 -15v-110h-92q-72 0 -103 -11q-14 -54 -14 -114v-928q0 -70 14 -124q35 -9 103 -9h90v-140q-112 14 -281 14q-222 0 -352 -14v140 h89q74 0 103 9q16 42 16 121v931q0 69 -16 114q-29 11 -103 11h-90zM417 1837q0 47 33.5 80t79.5 33t79.5 -33t33.5 -80q0 -46 -33.5 -79t-79.5 -33t-79.5 33t-33.5 79z" />
<glyph unicode="&#xd0;" horiz-adv-x="1650" d="M84 1303v93q328 46 637 46q99 0 180 -8t164 -29t147 -56t121 -91.5t94 -132t58.5 -181.5t21.5 -236q0 -157 -40 -279t-109 -202t-168.5 -131.5t-212 -73.5t-245.5 -22h-443q-59 0 -76.5 13.5t-17.5 75.5q43 23 61.5 38t33 50t14.5 93v405h-218v55q0 23 4.5 36t17 19t23 7 t32.5 1h141v391q0 73 -16 114q-25 7 -96 7q-25 0 -62 -1t-46 -1zM522 793h331v-55q0 -52 -38 -63h-292v-546q95 -7 195 -7q133 0 230.5 29.5t171.5 97t111 184t37 282.5q0 169 -30.5 284.5t-97 185.5t-163 100.5t-236.5 30.5q-20 0 -93 -1.5t-126 -1.5v-520z" />
<glyph unicode="&#xd1;" horiz-adv-x="1563" d="M78 1312v110q186 15 274 15q128 0 179 -13q433 -667 725 -1159q0 111 -7 475.5t-7 440.5q0 81 -16 120q-35 11 -103 11h-101v110q111 15 301 15q213 0 285 -15v-110h-80q-68 0 -103 -11q-15 -42 -15 -120q0 -267 -29 -1195h-104q-56 0 -91 21l-726 1155q9 -260 14 -903 q0 -76 14 -124q33 -9 103 -9h91v-140q-103 14 -261 14q-200 0 -320 -14v140h89q74 0 103 9q16 39 16 121l-1 925q0 81 -16 120q-29 11 -103 11h-111zM397 1746q91 201 242 201q41 0 85.5 -16.5t76.5 -37t73 -37t75 -16.5q64 0 122 91q53 0 102 -28q-106 -202 -234 -202 q-56 0 -117 27t-114 54t-90 27q-14 0 -29 -5.5t-26 -13t-23.5 -19.5t-19 -20t-15.5 -19t-10 -13q-55 0 -98 27z" />
<glyph unicode="&#xd2;" horiz-adv-x="1520" d="M115 714q0 353 178.5 548.5t490.5 195.5q309 0 487.5 -195.5t178.5 -548.5q0 -350 -179 -550.5t-487 -200.5q-310 0 -489.5 200t-179.5 551zM356 711q0 -306 107.5 -465t320.5 -159q207 0 316.5 156t109.5 471q0 308 -109.5 465.5t-316.5 157.5q-206 0 -317 -157.5 t-111 -468.5zM525 2013h250l189 -323h-138z" />
<glyph unicode="&#xd3;" horiz-adv-x="1520" d="M115 714q0 353 178.5 548.5t490.5 195.5q309 0 487.5 -195.5t178.5 -548.5q0 -350 -179 -550.5t-487 -200.5q-310 0 -489.5 200t-179.5 551zM356 711q0 -306 107.5 -465t320.5 -159q207 0 316.5 156t109.5 471q0 308 -109.5 465.5t-316.5 157.5q-206 0 -317 -157.5 t-111 -468.5zM525 1691q43 72 86.5 148.5t65 113t37.5 60.5h251q0 -7 -303 -323q-137 0 -137 1z" />
<glyph unicode="&#xd4;" horiz-adv-x="1520" d="M115 714q0 353 178.5 548.5t490.5 195.5q309 0 487.5 -195.5t178.5 -548.5q0 -350 -179 -550.5t-487 -200.5q-310 0 -489.5 200t-179.5 551zM356 711q0 -306 107.5 -465t320.5 -159q207 0 316.5 156t109.5 471q0 308 -109.5 465.5t-316.5 157.5q-206 0 -317 -157.5 t-111 -468.5zM435 1708q14 26 22 37l204 268h199l205 -268q19 -31 21 -37q-12 -18 -53 -18h-81l-190 192l-194 -192h-77q-44 0 -56 18z" />
<glyph unicode="&#xd5;" horiz-adv-x="1520" d="M115 714q0 353 178.5 548.5t490.5 195.5q309 0 487.5 -195.5t178.5 -548.5q0 -350 -179 -550.5t-487 -200.5q-310 0 -489.5 200t-179.5 551zM356 711q0 -306 107.5 -465t320.5 -159q207 0 316.5 156t109.5 471q0 308 -109.5 465.5t-316.5 157.5q-206 0 -317 -157.5 t-111 -468.5zM382 1746q91 201 242 201q41 0 85.5 -16.5t76.5 -37t73 -37t75 -16.5q64 0 122 91q53 0 102 -28q-106 -202 -234 -202q-56 0 -117 27t-114 54t-90 27q-14 0 -29 -5.5t-26 -13t-23.5 -19.5t-19 -20t-15.5 -19t-10 -13q-55 0 -98 27z" />
<glyph unicode="&#xd6;" horiz-adv-x="1520" d="M115 714q0 353 178.5 548.5t490.5 195.5q309 0 487.5 -195.5t178.5 -548.5q0 -350 -179 -550.5t-487 -200.5q-310 0 -489.5 200t-179.5 551zM356 711q0 -306 107.5 -465t320.5 -159q207 0 316.5 156t109.5 471q0 308 -109.5 465.5t-316.5 157.5q-206 0 -317 -157.5 t-111 -468.5zM475 1837q0 47 33.5 80t79.5 33t79.5 -33t33.5 -80q0 -46 -33.5 -79t-79.5 -33t-79.5 33t-33.5 79zM823 1837q0 47 33.5 80t79.5 33t79.5 -33t33.5 -80q0 -46 -33.5 -79t-79.5 -33t-79.5 33t-33.5 79z" />
<glyph unicode="&#xd7;" horiz-adv-x="1229" d="M158 1025q40 40 59.5 53.5t46.5 13.5q10 0 17 -1l333 -334l363 363q69 -69 82 -94q-12 -25 -41 -54l-309 -310l362 -363l-45 -43l-10.5 -10.5t-10.5 -10t-8.5 -7t-9.5 -6.5t-9 -3q-9 0 -17 4t-11.5 7t-13 14.5t-12.5 14.5l-310 309l-362 -362l-45 44q-34 34 -38 47 q13 28 41 56l310 309z" />
<glyph unicode="&#xd8;" horiz-adv-x="1520" d="M115 714q0 353 178.5 548.5t490.5 195.5q186 0 340 -80l85 145q32 -5 44.5 -8t31 -9t26.5 -14t12 -21q-2 -2 -34 -56l-64 -108q108 -88 166.5 -243t58.5 -350q0 -350 -179 -550.5t-487 -200.5q-164 0 -278 51l-35 16l-77 -130q-56 8 -81.5 18t-33.5 36q17 29 37 56l50 85 q-251 210 -251 619zM356 711q0 -299 103 -459l585 992q-102 93 -260 93q-206 0 -317 -157.5t-111 -468.5zM545 156q95 -71 239 -71q207 0 316.5 157t109.5 472q0 271 -84 425z" />
<glyph unicode="&#xd9;" horiz-adv-x="1468" d="M31 1312v111q117 14 315 14q242 0 323 -15v-110h-93q-72 0 -103 -11q-14 -45 -14 -120v-680q0 -204 97.5 -310t267.5 -106q190 0 280.5 120t90.5 372v604q0 81 -16 120q-29 11 -103 11h-90v111q112 14 294 14q219 0 295 -15v-110h-92q-75 0 -103 -11q-15 -42 -15 -120 v-665q0 -178 -74 -304t-201 -187.5t-296 -61.5q-554 0 -554 623v595q0 81 -16 120q-29 11 -103 11h-90zM489 2013h250l189 -323h-138z" />
<glyph unicode="&#xda;" horiz-adv-x="1468" d="M31 1312v111q117 14 315 14q242 0 323 -15v-110h-93q-72 0 -103 -11q-14 -45 -14 -120v-680q0 -204 97.5 -310t267.5 -106q190 0 280.5 120t90.5 372v604q0 81 -16 120q-29 11 -103 11h-90v111q112 14 294 14q219 0 295 -15v-110h-92q-75 0 -103 -11q-15 -42 -15 -120 v-665q0 -178 -74 -304t-201 -187.5t-296 -61.5q-554 0 -554 623v595q0 81 -16 120q-29 11 -103 11h-90zM489 1691q43 72 86.5 148.5t65 113t37.5 60.5h251q0 -7 -303 -323q-137 0 -137 1z" />
<glyph unicode="&#xdb;" horiz-adv-x="1468" d="M31 1312v111q117 14 315 14q242 0 323 -15v-110h-93q-72 0 -103 -11q-14 -45 -14 -120v-680q0 -204 97.5 -310t267.5 -106q190 0 280.5 120t90.5 372v604q0 81 -16 120q-29 11 -103 11h-90v111q112 14 294 14q219 0 295 -15v-110h-92q-75 0 -103 -11q-15 -42 -15 -120 v-665q0 -178 -74 -304t-201 -187.5t-296 -61.5q-554 0 -554 623v595q0 81 -16 120q-29 11 -103 11h-90zM498 1708q14 26 22 37l204 268h199l205 -268q19 -31 21 -37q-12 -18 -53 -18h-81l-190 192l-194 -192h-77q-44 0 -56 18z" />
<glyph unicode="&#xdc;" horiz-adv-x="1468" d="M31 1312v111q117 14 315 14q242 0 323 -15v-110h-93q-72 0 -103 -11q-14 -45 -14 -120v-680q0 -204 97.5 -310t267.5 -106q190 0 280.5 120t90.5 372v604q0 81 -16 120q-29 11 -103 11h-90v111q112 14 294 14q219 0 295 -15v-110h-92q-75 0 -103 -11q-15 -42 -15 -120 v-665q0 -178 -74 -304t-201 -187.5t-296 -61.5q-554 0 -554 623v595q0 81 -16 120q-29 11 -103 11h-90zM439 1837q0 47 33.5 80t79.5 33t79.5 -33t33.5 -80q0 -46 -33.5 -79t-79.5 -33t-79.5 33t-33.5 79zM787 1837q0 47 33.5 80t79.5 33t79.5 -33t33.5 -80q0 -46 -33.5 -79 t-79.5 -33t-79.5 33t-33.5 79z" />
<glyph unicode="&#xdd;" horiz-adv-x="1334" d="M-10 1422q115 15 288 15q248 0 340 -15l17 -110h-71q-74 0 -98 -11q3 -36 40 -95l321 -547q235 417 295 553q25 61 31 89q-25 11 -98 11h-70l24 110q121 15 292 15q224 0 293 -15l-40 -110h-85q-73 0 -108 -11q-37 -52 -45 -67q-1 -2 -217 -368l-208 -349v-258 q0 -72 15 -124q33 -9 102 -9h91v-140q-112 14 -282 14q-222 0 -351 -14v140h89q72 0 103 9q12 34 19 121v234l-409 691q-13 22 -34.5 62.5t-33.5 57.5q-33 11 -107 11h-74zM391 1691q43 72 86.5 148.5t65 113t37.5 60.5h251q0 -7 -303 -323q-137 0 -137 1z" />
<glyph unicode="&#xde;" horiz-adv-x="1293" d="M108 1328v102q109 13 315 13q241 0 321 -15v-100h-92q-72 0 -103 -11q-14 -54 -14 -119q87 3 183 3q134 0 232 -20.5t173.5 -67.5t114 -130.5t38.5 -202.5q0 -194 -135 -301.5t-395 -107.5h-77q-69 0 -134 5v-126q0 -72 15 -124q33 -9 103 -9h90v-136q-148 19 -317 19 q-145 0 -316 -19v136h89q74 0 103 9q16 39 16 121l-1 950q0 75 -16 120q-29 11 -103 11h-90zM535 497q82 -2 149 -2q201 0 284.5 73t83.5 211q0 155 -82.5 220.5t-263.5 65.5q-107 0 -171 -5v-563z" />
<glyph unicode="&#xdf;" horiz-adv-x="1325" d="M47 7l10 83h60q51 0 88 26q13 43 13 111v732q0 -1 -54 -1h-58q0 38 10.5 49.5t44.5 11.5q9 0 28 -1t29 -1q0 134 37.5 239.5t104.5 172t156 101t195 34.5q211 0 325.5 -105t114.5 -305q0 -64 -16.5 -104t-56.5 -76q-49 11 -97 11q-98 0 -150.5 -41.5t-52.5 -104.5 q0 -70 49.5 -112t159.5 -92q45 -21 71 -34t62 -33.5t56.5 -37.5t44.5 -41t36 -49t20.5 -57.5t8.5 -69.5q0 -70 -23 -127.5t-61.5 -95.5t-90.5 -63.5t-108.5 -37t-116.5 -11.5q-89 0 -204.5 32.5t-115.5 61.5q0 22 50 197l89 -27q34 -84 80.5 -120.5t123.5 -36.5 q84 0 131.5 51.5t47.5 130.5q0 24 -7 45.5t-16.5 37.5t-30.5 34t-36.5 29t-47 28t-50 25.5t-58 27t-58.5 27.5q-93 43 -143.5 109.5t-50.5 169.5q0 114 76.5 181t235.5 90q50 67 50 137q0 127 -66.5 194t-171.5 67q-130 0 -206.5 -106t-76.5 -322v-764q0 -44 3 -111t3 -97 q0 -87 -124 -87q-169 0 -266 25z" />
<glyph unicode="&#xe0;" horiz-adv-x="1153" d="M102 271q0 332 521 332h147v68q0 151 -43.5 217.5t-148.5 66.5q-110 0 -182.5 -54t-126.5 -146l-139 88q15 88 134.5 153t301.5 65q416 0 416 -379v-413q0 -92 17 -168h160v-82q-91 -32 -257 -32q-39 0 -58 1t-40.5 6.5t-30 17t-14.5 31.5t-6 52l-2 20 q-154 -139 -324 -139q-147 0 -236 76t-89 219zM317 280q0 -88 49 -133.5t135 -45.5q114 0 253 104q16 144 16 284h-158q-144 0 -219.5 -53.5t-75.5 -155.5zM334 1587h250l189 -323h-138z" />
<glyph unicode="&#xe1;" horiz-adv-x="1153" d="M102 271q0 332 521 332h147v68q0 151 -43.5 217.5t-148.5 66.5q-110 0 -182.5 -54t-126.5 -146l-139 88q15 88 134.5 153t301.5 65q416 0 416 -379v-413q0 -92 17 -168h160v-82q-91 -32 -257 -32q-39 0 -58 1t-40.5 6.5t-30 17t-14.5 31.5t-6 52l-2 20 q-154 -139 -324 -139q-147 0 -236 76t-89 219zM317 280q0 -88 49 -133.5t135 -45.5q114 0 253 104q16 144 16 284h-158q-144 0 -219.5 -53.5t-75.5 -155.5zM334 1265q43 72 86.5 148.5t65 113t37.5 60.5h251q0 -7 -303 -323q-137 0 -137 1z" />
<glyph unicode="&#xe2;" horiz-adv-x="1153" d="M102 271q0 332 521 332h147v68q0 151 -43.5 217.5t-148.5 66.5q-110 0 -182.5 -54t-126.5 -146l-139 88q15 88 134.5 153t301.5 65q416 0 416 -379v-413q0 -92 17 -168h160v-82q-91 -32 -257 -32q-39 0 -58 1t-40.5 6.5t-30 17t-14.5 31.5t-6 52l-2 20 q-154 -139 -324 -139q-147 0 -236 76t-89 219zM244 1282q14 26 22 37l204 268h199l205 -268q19 -31 21 -37q-12 -18 -53 -18h-81l-190 192l-194 -192h-77q-44 0 -56 18zM317 280q0 -88 49 -133.5t135 -45.5q114 0 253 104q16 144 16 284h-158q-144 0 -219.5 -53.5 t-75.5 -155.5z" />
<glyph unicode="&#xe3;" horiz-adv-x="1153" d="M102 271q0 332 521 332h147v68q0 151 -43.5 217.5t-148.5 66.5q-110 0 -182.5 -54t-126.5 -146l-139 88q15 88 134.5 153t301.5 65q416 0 416 -379v-413q0 -92 17 -168h160v-82q-91 -32 -257 -32q-39 0 -58 1t-40.5 6.5t-30 17t-14.5 31.5t-6 52l-2 20 q-154 -139 -324 -139q-147 0 -236 76t-89 219zM191 1320q91 201 242 201q41 0 85.5 -16.5t76.5 -37t73 -37t75 -16.5q64 0 122 91q53 0 102 -28q-106 -202 -234 -202q-56 0 -117 27t-114 54t-90 27q-14 0 -29 -5.5t-26 -13t-23.5 -19.5t-19 -20t-15.5 -19t-10 -13 q-55 0 -98 27zM317 280q0 -88 49 -133.5t135 -45.5q114 0 253 104q16 144 16 284h-158q-144 0 -219.5 -53.5t-75.5 -155.5z" />
<glyph unicode="&#xe4;" horiz-adv-x="1153" d="M102 271q0 332 521 332h147v68q0 151 -43.5 217.5t-148.5 66.5q-110 0 -182.5 -54t-126.5 -146l-139 88q15 88 134.5 153t301.5 65q416 0 416 -379v-413q0 -92 17 -168h160v-82q-91 -32 -257 -32q-39 0 -58 1t-40.5 6.5t-30 17t-14.5 31.5t-6 52l-2 20 q-154 -139 -324 -139q-147 0 -236 76t-89 219zM278 1411q0 47 33.5 80t79.5 33t79.5 -33t33.5 -80q0 -46 -33.5 -79t-79.5 -33t-79.5 33t-33.5 79zM317 280q0 -88 49 -133.5t135 -45.5q114 0 253 104q16 144 16 284h-158q-144 0 -219.5 -53.5t-75.5 -155.5zM626 1411 q0 47 33.5 80t79.5 33t79.5 -33t33.5 -80q0 -46 -33.5 -79t-79.5 -33t-79.5 33t-33.5 79z" />
<glyph unicode="&#xe5;" horiz-adv-x="1153" d="M102 271q0 332 521 332h147v68q0 151 -43.5 217.5t-148.5 66.5q-110 0 -182.5 -54t-126.5 -146l-139 88q15 88 134.5 153t301.5 65q416 0 416 -379v-413q0 -92 17 -168h160v-82q-91 -32 -257 -32q-39 0 -58 1t-40.5 6.5t-30 17t-14.5 31.5t-6 52l-2 20 q-154 -139 -324 -139q-147 0 -236 76t-89 219zM317 280q0 -88 49 -133.5t135 -45.5q114 0 253 104q16 144 16 284h-158q-144 0 -219.5 -53.5t-75.5 -155.5zM359 1460q0 99 65.5 162t166.5 63q102 0 167.5 -63t65.5 -162q0 -101 -66.5 -163t-166.5 -62t-166 63.5t-66 161.5z M463 1460q0 -60 34 -93.5t94 -33.5q58 0 94 34t36 93q0 60 -35 94.5t-95 34.5q-58 0 -93 -35t-35 -94z" />
<glyph unicode="&#xe6;" horiz-adv-x="1828" d="M102 271q0 332 521 332h147v68q0 157 -43.5 225.5t-148.5 68.5q-110 0 -182 -57t-127 -153l-139 88q15 92 134 158.5t302 66.5q256 0 353 -141q141 141 381 141q186 0 306 -110t120 -299q0 -56 -8.5 -90.5t-29.5 -52.5t-46 -23.5t-68 -5.5h-586q11 -195 104 -294.5 t255 -99.5q165 0 271 112l86 -38q-107 -195 -400 -195q-319 0 -452 223q-4 -2 -13 -9t-33.5 -27.5t-54.5 -43.5q-72 -65 -149.5 -104t-174.5 -39q-147 0 -236 78t-89 221zM317 280q0 -93 49 -140t135 -47q115 0 253 112q16 144 16 284h-158q-144 0 -219.5 -53.5 t-75.5 -155.5zM987 604h522q2 3 2 17q0 94 -23.5 167.5t-80.5 121.5t-141 48q-261 0 -279 -354z" />
<glyph unicode="&#xe7;" horiz-adv-x="1008" d="M113 505q0 131 41.5 236.5t115.5 175t174.5 107t218.5 37.5q102 0 192 -25.5t144 -69.5l-17 -201h-72q-48 95 -112 138.5t-156 43.5q-136 0 -223 -108t-87 -279q0 -95 17.5 -171.5t48.5 -129.5t74 -89t93 -52.5t107 -16.5q180 0 316 83l14 -130q-113 -67 -298 -76 l-38 -74q111 -6 168 -45.5t57 -130.5q0 -112 -70.5 -169t-187.5 -57q-115 0 -177 41q-6 16 -6 40t6 51q81 -24 134 -24q63 0 98.5 26.5t35.5 72.5q0 98 -100 113q-7 0 -37 -8q-9 6 -28.5 14t-22.5 9l69 140q-109 7 -199 45t-155.5 104t-101.5 163t-36 216z" />
<glyph unicode="&#xe8;" horiz-adv-x="1096" d="M113 519q0 251 142.5 396.5t386.5 145.5q185 0 305.5 -108.5t120.5 -293.5q0 -56 -8.5 -90.5t-29.5 -52.5t-46 -23.5t-68 -5.5h-586q11 -191 101.5 -288.5t247.5 -97.5q165 0 281 104l86 -38q-109 -191 -400 -191q-245 0 -389 143t-144 400zM307 1587h250l189 -323h-138z M329 604h522q2 3 2 17q0 144 -60 236.5t-185 92.5q-261 0 -279 -346z" />
<glyph unicode="&#xe9;" horiz-adv-x="1096" d="M113 519q0 251 142.5 396.5t386.5 145.5q185 0 305.5 -108.5t120.5 -293.5q0 -56 -8.5 -90.5t-29.5 -52.5t-46 -23.5t-68 -5.5h-586q11 -191 101.5 -288.5t247.5 -97.5q165 0 281 104l86 -38q-109 -191 -400 -191q-245 0 -389 143t-144 400zM307 1265q43 72 86.5 148.5 t65 113t37.5 60.5h251q0 -7 -303 -323q-137 0 -137 1zM329 604h522q2 3 2 17q0 144 -60 236.5t-185 92.5q-261 0 -279 -346z" />
<glyph unicode="&#xea;" horiz-adv-x="1096" d="M113 519q0 251 142.5 396.5t386.5 145.5q185 0 305.5 -108.5t120.5 -293.5q0 -56 -8.5 -90.5t-29.5 -52.5t-46 -23.5t-68 -5.5h-586q11 -191 101.5 -288.5t247.5 -97.5q165 0 281 104l86 -38q-109 -191 -400 -191q-245 0 -389 143t-144 400zM217 1282q14 26 22 37 l204 268h199l205 -268q19 -31 21 -37q-12 -18 -53 -18h-81l-190 192l-194 -192h-77q-44 0 -56 18zM329 604h522q2 3 2 17q0 144 -60 236.5t-185 92.5q-261 0 -279 -346z" />
<glyph unicode="&#xeb;" horiz-adv-x="1096" d="M113 519q0 251 142.5 396.5t386.5 145.5q185 0 305.5 -108.5t120.5 -293.5q0 -56 -8.5 -90.5t-29.5 -52.5t-46 -23.5t-68 -5.5h-586q11 -191 101.5 -288.5t247.5 -97.5q165 0 281 104l86 -38q-109 -191 -400 -191q-245 0 -389 143t-144 400zM251 1411q0 47 33.5 80 t79.5 33t79.5 -33t33.5 -80q0 -46 -33.5 -79t-79.5 -33t-79.5 33t-33.5 79zM329 604h522q2 3 2 17q0 144 -60 236.5t-185 92.5q-261 0 -279 -346zM599 1411q0 47 33.5 80t79.5 33t79.5 -33t33.5 -80q0 -46 -33.5 -79t-79.5 -33t-79.5 33t-33.5 79z" />
<glyph unicode="&#xec;" horiz-adv-x="655" d="M44 940v86q117 27 312 27q45 0 63 -5t28 -22v-799q0 -68 13 -111q37 -26 89 -26h58l11 -83q-97 -24 -265 -24q-126 0 -126 86q0 30 3.5 97t3.5 111v562q0 51 -9 86q-33 15 -85 15h-96zM65 1587h250l189 -323h-138z" />
<glyph unicode="&#xed;" horiz-adv-x="655" d="M47 940v86q117 27 312 27q45 0 63 -5t28 -22v-799q0 -68 13 -111q37 -26 89 -26h58l11 -83q-97 -24 -265 -24q-126 0 -126 86q0 30 3.5 97t3.5 111v562q0 51 -9 86q-33 15 -85 15h-96zM73 1265q43 72 86.5 148.5t65 113t37.5 60.5h251q0 -7 -303 -323q-137 0 -137 1z" />
<glyph unicode="&#xee;" horiz-adv-x="655" d="M28 1282q14 26 22 37l204 268h199l205 -268q19 -31 21 -37q-12 -18 -53 -18h-81l-190 192l-194 -192h-77q-44 0 -56 18zM92 940v86q117 27 312 27q45 0 63 -5t28 -22v-799q0 -68 13 -111q37 -26 89 -26h58l11 -83q-97 -24 -265 -24q-126 0 -126 86q0 30 3.5 97t3.5 111 v562q0 51 -9 86q-33 15 -85 15h-96z" />
<glyph unicode="&#xef;" horiz-adv-x="655" d="M-6 1411q0 47 33.5 80t79.5 33t79.5 -33t33.5 -80q0 -46 -33.5 -79t-79.5 -33t-79.5 33t-33.5 79zM23 940v86q117 27 312 27q45 0 63 -5t28 -22v-799q0 -68 13 -111q37 -26 89 -26h58l11 -83q-97 -24 -265 -24q-126 0 -126 86q0 30 3.5 97t3.5 111v562q0 51 -9 86 q-33 15 -85 15h-96zM339 1411q0 47 33.5 80t79.5 33t79.5 -33t33.5 -80q0 -46 -33.5 -79t-79.5 -33t-79.5 33t-33.5 79z" />
<glyph unicode="&#xf0;" horiz-adv-x="1309" d="M133 506q0 160 68.5 278.5t182 177.5t255.5 59q168 0 286 -96q-55 249 -227 380l-246 -144l-28 36q-22 26 -24 34q14 23 45 41l164 96q-137 83 -296 106l52 88q225 -17 388 -109l233 139l28 -36q3 -6 10.5 -17t10.5 -17q-5 -8 -14 -17t-23.5 -19.5t-26.5 -18.5t-33 -20 t-31 -18t-34 -18.5t-29 -15.5q155 -120 236 -319.5t81 -445.5q0 -103 -17.5 -196.5t-58 -179t-99.5 -147.5t-148 -99t-199 -37q-107 0 -199 36t-160.5 102.5t-107.5 168.5t-39 228zM362 508q0 -183 52 -282.5t161 -127.5q35 -16 88 -16q135 0 206 125t71 347q0 74 -15 162 q-81 198 -286 198q-138 0 -207.5 -103t-69.5 -303z" />
<glyph unicode="&#xf1;" horiz-adv-x="1321" d="M57 936v96q83 20 239 20q112 0 160 -20v-126q75 73 177 114.5t202 41.5q137 0 227.5 -79.5t90.5 -238.5v-475q0 -92 17 -168h144l11 -89q-99 -25 -267 -25q-124 0 -124 87q0 30 3 100.5t3 114.5v362q0 150 -47 217.5t-126 67.5q-77 0 -165 -51t-141 -119v-529 q0 -36 0.5 -52t4 -37.5t10.5 -30t21 -19.5t34 -16t50 -10l8 -85q-123 13 -250 13q-128 0 -220 -13l3 85q32 4 52.5 8t35 13t22 15.5t11 24t4 30.5t0.5 43v639q0 44 -7 76q-26 15 -70 15h-113zM271 1320q91 201 242 201q41 0 85.5 -16.5t76.5 -37t73 -37t75 -16.5 q64 0 122 91q53 0 102 -28q-106 -202 -234 -202q-56 0 -117 27t-114 54t-90 27q-14 0 -29 -5.5t-26 -13t-23.5 -19.5t-19 -20t-15.5 -19t-10 -13q-55 0 -98 27z" />
<glyph unicode="&#xf2;" horiz-adv-x="1182" d="M113 518q0 167 70.5 292t190 188.5t269.5 63.5t269 -63.5t189.5 -188.5t70.5 -292q0 -130 -42 -234.5t-115 -171t-168 -101.5t-204 -35q-151 0 -269.5 62t-189.5 186.5t-71 293.5zM342 519q0 -222 72.5 -327t227.5 -105q160 0 230.5 105.5t70.5 326.5q0 216 -73 321.5 t-228 105.5q-156 0 -228 -107t-72 -320zM350 1587h250l189 -323h-138z" />
<glyph unicode="&#xf3;" horiz-adv-x="1182" d="M113 518q0 167 70.5 292t190 188.5t269.5 63.5t269 -63.5t189.5 -188.5t70.5 -292q0 -130 -42 -234.5t-115 -171t-168 -101.5t-204 -35q-151 0 -269.5 62t-189.5 186.5t-71 293.5zM342 519q0 -222 72.5 -327t227.5 -105q160 0 230.5 105.5t70.5 326.5q0 216 -73 321.5 t-228 105.5q-156 0 -228 -107t-72 -320zM351 1265q43 72 86.5 148.5t65 113t37.5 60.5h251q0 -7 -303 -323q-137 0 -137 1z" />
<glyph unicode="&#xf4;" horiz-adv-x="1182" d="M113 518q0 167 70.5 292t190 188.5t269.5 63.5t269 -63.5t189.5 -188.5t70.5 -292q0 -130 -42 -234.5t-115 -171t-168 -101.5t-204 -35q-151 0 -269.5 62t-189.5 186.5t-71 293.5zM316 1282q14 26 22 37l204 268h199l205 -268q19 -31 21 -37q-12 -18 -53 -18h-81 l-190 192l-194 -192h-77q-44 0 -56 18zM342 519q0 -222 72.5 -327t227.5 -105q160 0 230.5 105.5t70.5 326.5q0 216 -73 321.5t-228 105.5q-156 0 -228 -107t-72 -320z" />
<glyph unicode="&#xf5;" horiz-adv-x="1182" d="M113 518q0 167 70.5 292t190 188.5t269.5 63.5t269 -63.5t189.5 -188.5t70.5 -292q0 -130 -42 -234.5t-115 -171t-168 -101.5t-204 -35q-151 0 -269.5 62t-189.5 186.5t-71 293.5zM208 1320q91 201 242 201q41 0 85.5 -16.5t76.5 -37t73 -37t75 -16.5q64 0 122 91 q53 0 102 -28q-106 -202 -234 -202q-56 0 -117 27t-114 54t-90 27q-14 0 -29 -5.5t-26 -13t-23.5 -19.5t-19 -20t-15.5 -19t-10 -13q-55 0 -98 27zM342 519q0 -222 72.5 -327t227.5 -105q160 0 230.5 105.5t70.5 326.5q0 216 -73 321.5t-228 105.5q-156 0 -228 -107 t-72 -320z" />
<glyph unicode="&#xf6;" horiz-adv-x="1182" d="M113 518q0 167 70.5 292t190 188.5t269.5 63.5t269 -63.5t189.5 -188.5t70.5 -292q0 -130 -42 -234.5t-115 -171t-168 -101.5t-204 -35q-151 0 -269.5 62t-189.5 186.5t-71 293.5zM295 1411q0 47 33.5 80t79.5 33t79.5 -33t33.5 -80q0 -46 -33.5 -79t-79.5 -33t-79.5 33 t-33.5 79zM342 519q0 -222 72.5 -327t227.5 -105q160 0 230.5 105.5t70.5 326.5q0 216 -73 321.5t-228 105.5q-156 0 -228 -107t-72 -320zM643 1411q0 47 33.5 80t79.5 33t79.5 -33t33.5 -80q0 -46 -33.5 -79t-79.5 -33t-79.5 33t-33.5 79z" />
<glyph unicode="&#xf7;" horiz-adv-x="1258" d="M138 490v68q0 49 15 63t64 14h913v-68q0 -33 -11 -51t-36 -26h-945zM473 97q0 73 37.5 110t101.5 37q58 0 97.5 -44t39.5 -101q0 -66 -39 -99.5t-90 -33.5q-73 0 -110 38t-37 93zM473 919q0 62 39 99t105 37q58 0 96 -38t38 -90q0 -72 -38 -110t-93 -38q-74 0 -110.5 38 t-36.5 102z" />
<glyph unicode="&#xf8;" horiz-adv-x="1182" d="M113 518q0 254 150 402t380 148q131 0 245 -53l104 185l44 -11q49 -6 55 -34q-21 -37 -38 -59l-76 -136q195 -150 195 -442q0 -130 -42 -235t-115 -172.5t-168 -103t-204 -35.5q-112 0 -202 34l-97 -173l-45 11q-47 6 -53 35q11 20 37 58l64 114q-110 69 -172 188.5 t-62 278.5zM342 519q0 -234 79 -336l403 719q-67 58 -182 58q-157 0 -228.5 -109t-71.5 -332zM502 114q55 -28 140 -28q160 0 230.5 106t70.5 327q0 179 -50 291z" />
<glyph unicode="&#xf9;" horiz-adv-x="1300" d="M47 936v96q87 20 257 20q89 0 132 -20v-680q0 -37 0.5 -58t4.5 -51.5t10.5 -48t19.5 -37.5t32 -31t47.5 -18t65.5 -7q60 0 130 25t110.5 49t42.5 30q17 101 17 326v298q0 57 -12 96q-32 11 -82 11h-83v96q87 20 257 20q91 0 132 -20v-763q0 -92 17 -168h161v-86 q-114 -28 -264 -28q-83 0 -113 16.5t-30 77.5v34q-43 -32 -56 -41t-56.5 -34.5t-75 -35t-84 -19t-111.5 -9.5q-150 0 -221 81t-71 242v530q0 54 -11 96q-33 11 -83 11h-83zM402 1587h250l189 -323h-138z" />
<glyph unicode="&#xfa;" horiz-adv-x="1300" d="M47 936v96q87 20 257 20q89 0 132 -20v-680q0 -37 0.5 -58t4.5 -51.5t10.5 -48t19.5 -37.5t32 -31t47.5 -18t65.5 -7q60 0 130 25t110.5 49t42.5 30q17 101 17 326v298q0 57 -12 96q-32 11 -82 11h-83v96q87 20 257 20q91 0 132 -20v-763q0 -92 17 -168h161v-86 q-114 -28 -264 -28q-83 0 -113 16.5t-30 77.5v34q-43 -32 -56 -41t-56.5 -34.5t-75 -35t-84 -19t-111.5 -9.5q-150 0 -221 81t-71 242v530q0 54 -11 96q-33 11 -83 11h-83zM403 1265q43 72 86.5 148.5t65 113t37.5 60.5h251q0 -7 -303 -323q-137 0 -137 1z" />
<glyph unicode="&#xfb;" horiz-adv-x="1300" d="M47 936v96q87 20 257 20q89 0 132 -20v-680q0 -37 0.5 -58t4.5 -51.5t10.5 -48t19.5 -37.5t32 -31t47.5 -18t65.5 -7q60 0 130 25t110.5 49t42.5 30q17 101 17 326v298q0 57 -12 96q-32 11 -82 11h-83v96q87 20 257 20q91 0 132 -20v-763q0 -92 17 -168h161v-86 q-114 -28 -264 -28q-83 0 -113 16.5t-30 77.5v34q-43 -32 -56 -41t-56.5 -34.5t-75 -35t-84 -19t-111.5 -9.5q-150 0 -221 81t-71 242v530q0 54 -11 96q-33 11 -83 11h-83zM312 1282q14 26 22 37l204 268h199l205 -268q19 -31 21 -37q-12 -18 -53 -18h-81l-190 192 l-194 -192h-77q-44 0 -56 18z" />
<glyph unicode="&#xfc;" horiz-adv-x="1300" d="M47 936v96q87 20 257 20q89 0 132 -20v-680q0 -37 0.5 -58t4.5 -51.5t10.5 -48t19.5 -37.5t32 -31t47.5 -18t65.5 -7q60 0 130 25t110.5 49t42.5 30q17 101 17 326v298q0 57 -12 96q-32 11 -82 11h-83v96q87 20 257 20q91 0 132 -20v-763q0 -92 17 -168h161v-86 q-114 -28 -264 -28q-83 0 -113 16.5t-30 77.5v34q-43 -32 -56 -41t-56.5 -34.5t-75 -35t-84 -19t-111.5 -9.5q-150 0 -221 81t-71 242v530q0 54 -11 96q-33 11 -83 11h-83zM352 1411q0 47 33.5 80t79.5 33t79.5 -33t33.5 -80q0 -46 -33.5 -79t-79.5 -33t-79.5 33t-33.5 79z M700 1411q0 47 33.5 80t79.5 33t79.5 -33t33.5 -80q0 -46 -33.5 -79t-79.5 -33t-79.5 33t-33.5 79z" />
<glyph unicode="&#xfd;" horiz-adv-x="1209" d="M8 1031q66 21 236 21q201 0 292 -21l15 -96h-55q-59 0 -85 -15q0 -1 150 -384l145 -365l264 664q3 12 12.5 41.5t13.5 44.5q-26 15 -78 15h-56l12 96q69 20 223 20q163 0 220 -20v-96h-54q-55 0 -92 -15q-5 -5 -74 -160l-415 -957q-72 -166 -165.5 -229t-231.5 -63 q-53 0 -98.5 8.5t-56.5 19.5l22 139q75 -28 152 -28q50 0 80 9t64 41t65.5 90.5t76.5 161.5l-373 881q-22 52 -47 86q-39 15 -91 15h-54zM334 1265q43 72 86.5 148.5t65 113t37.5 60.5h251q0 -7 -303 -323q-137 0 -137 1z" />
<glyph unicode="&#xfe;" horiz-adv-x="1359" d="M30 1455v87q115 27 339 27q41 0 56 -3q3 -11 10 -87v-566q149 155 358 155q196 0 309.5 -138t113.5 -383q0 -134 -38 -244t-102.5 -180.5t-148.5 -108.5t-178 -38q-182 0 -316 75v-223q0 -51 1 -76.5t6 -60t15.5 -52.5t30 -36t49.5 -30v-42q-92 -19 -210 -19t-210 19v42 q30 12 49.5 29.5t31 37t17.5 51.5t7.5 60.5t1.5 76.5l-1 1511q0 51 -8 102q-42 14 -87 14h-96zM433 498q0 -216 6 -365q15 -20 101.5 -34.5t155.5 -14.5q137 0 215.5 117t78.5 339q0 410 -249 410q-153 0 -287 -125q-21 -150 -21 -327z" />
<glyph unicode="&#xff;" horiz-adv-x="1157" d="M8 1031q66 21 236 21q201 0 292 -21l15 -96h-55q-59 0 -85 -15q0 -1 150 -384l145 -365l264 664q3 12 12.5 41.5t13.5 44.5q-26 15 -78 15h-56l12 96q69 20 223 20q163 0 220 -20v-96h-54q-55 0 -92 -15q-5 -5 -74 -160l-415 -957q-72 -166 -165.5 -229t-231.5 -63 q-53 0 -98.5 8.5t-56.5 19.5l22 139q75 -28 152 -28q50 0 80 9t64 41t65.5 90.5t76.5 161.5l-373 881q-22 52 -47 86q-39 15 -91 15h-54zM278 1411q0 47 33.5 80t79.5 33t79.5 -33t33.5 -80q0 -46 -33.5 -79t-79.5 -33t-79.5 33t-33.5 79zM751 1411q0 47 33.5 80t79.5 33 t79.5 -33t33.5 -80q0 -46 -33.5 -79t-79.5 -33t-79.5 33t-33.5 79z" />
<glyph unicode="&#x152;" horiz-adv-x="2158" d="M115 714q0 353 178.5 548.5t490.5 195.5q79 0 191 -10.5t147 -10.5h906l27 -129q17 -88 27 -164l-147 -6l-8 50q-10 57 -23 94q-63 28 -257 28q-10 0 -308 -7v-504h340q25 0 39 2.5t30.5 12.5t28.5 33.5t23 62.5h52q0 -180 -13 -355h-63q-24 74 -50 99t-80 25h-307v-553 h456q50 0 91 9.5t57 24.5q18 50 27 167q16 0 59.5 -1t64.5 -1v-116q0 -68 -10 -188q-63 -19 -147 -27t-244 -8q-83 0 -232 7t-230 7q-73 0 -206 -18.5t-241 -18.5q-310 0 -489.5 200t-179.5 551zM356 711q0 -306 107.5 -465t320.5 -159q222 0 338 35v1188q-108 27 -338 27 q-206 0 -317 -157.5t-111 -468.5z" />
<glyph unicode="&#x153;" horiz-adv-x="1853" d="M113 518q0 250 137 400t361 150q259 0 374 -189q144 189 381 189q175 0 289 -110t114 -299q0 -105 -32 -138t-110 -33h-539q8 -193 98 -295.5t244 -102.5q152 0 255 115l84 -38q-108 -201 -407 -201q-236 0 -382 176q-131 -176 -373 -176q-225 0 -359.5 148.5 t-134.5 403.5zM342 518q0 -445 268 -445q133 0 199.5 108.5t66.5 336.5q0 442 -268 442q-266 0 -266 -442zM1087 604h464q2 30 2 48q0 81 -23.5 149.5t-73 112.5t-117.5 44q-233 0 -252 -354z" />
<glyph unicode="&#x178;" horiz-adv-x="1280" d="M-10 1422q115 15 288 15q248 0 340 -15l17 -110h-71q-74 0 -98 -11q3 -36 40 -95l321 -547q235 417 295 553q25 61 31 89q-25 11 -98 11h-70l24 110q121 15 292 15q224 0 293 -15l-40 -110h-85q-73 0 -108 -11q-37 -52 -45 -67q-1 -2 -217 -368l-208 -349v-258 q0 -72 15 -124q33 -9 102 -9h91v-140q-112 14 -282 14q-222 0 -351 -14v140h89q72 0 103 9q12 34 19 121v234l-409 691q-13 22 -34.5 62.5t-33.5 57.5q-33 11 -107 11h-74zM461 1837q0 47 33.5 80t79.5 33t79.5 -33t33.5 -80q0 -46 -33.5 -79t-79.5 -33t-79.5 33t-33.5 79z M886 1837q0 47 33.5 80t79.5 33t79.5 -33t33.5 -80q0 -46 -33.5 -79t-79.5 -33t-79.5 33t-33.5 79z" />
<glyph unicode="&#x2c6;" horiz-adv-x="1229" d="M289 1282q14 26 22 37l204 268h199l205 -268q19 -31 21 -37q-12 -18 -53 -18h-81l-190 192l-194 -192h-77q-44 0 -56 18z" />
<glyph unicode="&#x2dc;" horiz-adv-x="1229" d="M225 1320q91 201 242 201q41 0 85.5 -16.5t76.5 -37t73 -37t75 -16.5q64 0 122 91q53 0 102 -28q-106 -202 -234 -202q-56 0 -117 27t-114 54t-90 27q-14 0 -29 -5.5t-26 -13t-23.5 -19.5t-19 -20t-15.5 -19t-10 -13q-55 0 -98 27z" />
<glyph unicode="&#x2000;" horiz-adv-x="1006" />
<glyph unicode="&#x2001;" horiz-adv-x="2013" />
<glyph unicode="&#x2002;" horiz-adv-x="1006" />
<glyph unicode="&#x2003;" horiz-adv-x="2013" />
<glyph unicode="&#x2004;" horiz-adv-x="671" />
<glyph unicode="&#x2005;" horiz-adv-x="503" />
<glyph unicode="&#x2006;" horiz-adv-x="335" />
<glyph unicode="&#x2007;" horiz-adv-x="335" />
<glyph unicode="&#x2008;" horiz-adv-x="251" />
<glyph unicode="&#x2009;" horiz-adv-x="402" />
<glyph unicode="&#x200a;" horiz-adv-x="111" />
<glyph unicode="&#x2010;" horiz-adv-x="683" d="M51 519v70q0 21 5 34t17.5 19t25 7.5t34.5 1.5h499v-52q0 -64 -48 -80h-533z" />
<glyph unicode="&#x2011;" horiz-adv-x="683" d="M51 519v70q0 21 5 34t17.5 19t25 7.5t34.5 1.5h499v-52q0 -64 -48 -80h-533z" />
<glyph unicode="&#x2012;" horiz-adv-x="683" d="M51 519v70q0 21 5 34t17.5 19t25 7.5t34.5 1.5h499v-52q0 -64 -48 -80h-533z" />
<glyph unicode="&#x2013;" horiz-adv-x="990" d="M-10 519v62q0 25 6.5 39.5t22 21t29 8t39.5 1.5h913v-61q0 -32 -10.5 -47.5t-37.5 -23.5h-962z" />
<glyph unicode="&#x2014;" horiz-adv-x="1756" d="M-10 519v62q0 25 6.5 39.5t22 21t29 8t39.5 1.5h1679v-61q0 -32 -10.5 -47.5t-36.5 -23.5h-1729z" />
<glyph unicode="&#x2018;" horiz-adv-x="464" d="M115 1114q0 120 64.5 246.5t165.5 203.5q16 0 28.5 -9t29.5 -39q-45 -57 -69 -129.5t-32 -178.5q33 0 57.5 -22t24.5 -50q0 -73 -37.5 -104t-88.5 -31q-79 0 -111 29t-32 84z" />
<glyph unicode="&#x2019;" horiz-adv-x="463" d="M65 1049q45 60 69 131.5t32 176.5q-33 0 -57.5 22t-24.5 50q0 73 37.5 104t88.5 31q79 0 111 -29t32 -84q0 -120 -64.5 -246.5t-165.5 -203.5q-16 0 -28.5 9t-29.5 39z" />
<glyph unicode="&#x201a;" horiz-adv-x="462" d="M61 -273q43 60 66 130t33 178q-34 0 -59 22.5t-25 49.5q0 75 38 105.5t90 30.5q79 0 111 -29t32 -85q0 -128 -64.5 -245.5t-165.5 -205.5q-17 0 -29 9.5t-27 39.5z" />
<glyph unicode="&#x201c;" horiz-adv-x="861" d="M105 1114q0 120 64.5 246.5t165.5 203.5q16 0 28.5 -9t29.5 -39q-45 -57 -69 -129.5t-32 -178.5q33 0 57.5 -22t24.5 -50q0 -73 -37.5 -104t-88.5 -31q-79 0 -111 29t-32 84zM503 1114q0 120 64.5 246.5t165.5 203.5q16 0 28.5 -9t29.5 -39q-45 -57 -69 -129.5 t-32 -178.5q33 0 57.5 -22t24.5 -50q0 -73 -37.5 -104t-88.5 -31q-79 0 -111 29t-32 84z" />
<glyph unicode="&#x201d;" horiz-adv-x="860" d="M105 1049q45 60 69 131.5t32 176.5q-33 0 -57.5 22t-24.5 50q0 73 37.5 104t88.5 31q79 0 111 -29t32 -84q0 -120 -64.5 -246.5t-165.5 -203.5q-16 0 -28.5 9t-29.5 39zM503 1049q45 60 69 131.5t32 176.5q-33 0 -57.5 22t-24.5 50q0 73 37.5 104t88.5 31q79 0 111 -29 t32 -84q0 -120 -64.5 -246.5t-165.5 -203.5q-16 0 -28.5 9t-29.5 39z" />
<glyph unicode="&#x201e;" horiz-adv-x="861" d="M61 -273q95 124 99 308q-33 0 -58 22.5t-25 49.5q0 40 11.5 68t31.5 42t40.5 20t44.5 6q78 0 110 -27.5t32 -84.5q0 -129 -64 -247t-165 -206q-17 0 -29 9.5t-28 39.5zM459 -273q43 62 66 132.5t33 175.5q-35 0 -59 21.5t-24 59.5q4 63 39.5 95t87.5 32q79 0 111.5 -30 t32.5 -86q0 -128 -64 -243t-167 -206q-16 0 -28 9.5t-28 39.5z" />
<glyph unicode="&#x2022;" horiz-adv-x="750" d="M100 638q0 114 80 194.5t194 80.5t195 -80.5t81 -194.5t-81 -193.5t-195 -79.5t-194 80t-80 193z" />
<glyph unicode="&#x2026;" horiz-adv-x="1988" d="M164 106q0 132 121 132q60 0 91 -34t31 -98t-31 -98t-91 -34q-121 0 -121 132zM872 106q0 132 122 132q59 0 90 -34t31 -98t-31 -98t-90 -34q-122 0 -122 132zM1581 106q0 132 121 132q60 0 91 -34.5t31 -97.5t-31 -97.5t-91 -34.5q-121 0 -121 132z" />
<glyph unicode="&#x202f;" horiz-adv-x="402" />
<glyph unicode="&#x2039;" horiz-adv-x="679" d="M133 481v98l339 436q46 -16 74 -35q-8 -23 -215 -436q193 -402 202 -430q-24 -21 -69 -37z" />
<glyph unicode="&#x203a;" horiz-adv-x="680" d="M135 114q3 14 83 174q73 145 131 262q-196 409 -201 429q25 22 68 36l333 -406v-95l-339 -437q-44 13 -75 37z" />
<glyph unicode="&#x205f;" horiz-adv-x="503" />
<glyph unicode="&#x20ac;" horiz-adv-x="1420" d="M84 506l17 70q8 33 21 41t46 8h114q-1 19 -1 57q0 48 3 95h-176l15 70q8 32 20.5 41t38.5 9h116q44 268 203.5 419.5t402.5 151.5q145 0 266.5 -36.5t158.5 -95.5q0 -73 2 -225l-124 -18q-37 77 -78 128t-103.5 83.5t-141.5 32.5q-296 0 -352 -440h574l-23 -75 q-5 -16 -18 -26t-35.5 -13.5t-37.5 -4.5t-40 -1h-430q0 -109 5 -152h523q-5 -15 -12 -40.5t-9.5 -33t-9.5 -20.5t-14.5 -16.5t-20 -6.5t-31.5 -3h-13t-33 0.5t-62.5 0.5h-117.5h-182q37 -193 138 -298.5t262 -105.5q183 0 321 144l94 -45q-121 -238 -456 -238 q-115 0 -214 32t-179.5 96.5t-136.5 170t-78 244.5h-212z" />
<glyph unicode="&#x2122;" horiz-adv-x="2116" d="M55 1200v187h737v-187h-38q-2 62 -32 99t-87 37h-137v-698q0 -45 26 -58.5t81 -13.5v-39h-362v39q54 0 80 13.5t26 58.5v698h-136q-58 0 -87.5 -36.5t-31.5 -99.5h-39zM885 1348v39h258l327 -658l334 658h226v-39q-68 0 -94 -23t-26 -76v-611q0 -46 23.5 -59t84.5 -13 v-39h-362v39q57 0 81.5 13t24.5 59v532h-4l-325 -643h-25l-316 643h-4v-532q0 -45 26.5 -58.5t84.5 -13.5v-39h-286v39q57 0 83.5 13.5t26.5 58.5v623q-18 44 -50.5 64.5t-87.5 22.5z" />
<glyph unicode="&#xe000;" horiz-adv-x="1050" d="M0 0v1050h1050v-1050h-1050z" />
<glyph unicode="&#xfb01;" horiz-adv-x="1433" d="M55 912v75q24 45 107 45h119v92q0 228 112.5 334t315.5 106q129 0 220 -52v-224h-97q-47 164 -159 164q-96 0 -137 -61.5t-41 -220.5v-138h331q84 0 183 10t169 10q31 0 51 -20v-763q0 -92 17 -168h144l10 -90q-97 -24 -265 -24q-126 0 -126 86q0 30 3.5 97t3.5 111v550 q0 49 -7 81h-514v-674q0 -36 0.5 -52.5t5.5 -38t14.5 -30.5t28 -20t45.5 -16t68 -10l8 -84q-175 13 -277 13q-120 0 -254 -13v84q56 6 85 13t43.5 24.5t16.5 34t2 57.5v712h-226zM984 1407q0 63 38 101.5t99 38.5q60 0 98.5 -38.5t38.5 -101.5q0 -61 -39 -99.5t-98 -38.5 q-60 0 -98.5 38.5t-38.5 99.5z" />
<glyph unicode="&#xfb02;" horiz-adv-x="1421" d="M55 912v75q24 45 107 45h119v92q0 228 112.5 334t315.5 106q390 0 507 -51v-1244q0 -92 17 -168h164v-90q-102 -24 -273 -24q-126 0 -126 86q0 30 3.5 97t3.5 111v1058q0 62 -8 97q-132 16 -324 16q-96 0 -137 -61.5t-41 -220.5v-138h284v-52q0 -56 -48 -68h-236v-674 q0 -36 0.5 -52.5t5.5 -38t14.5 -30.5t28 -20t45.5 -16t68 -10l8 -84q-175 13 -277 13q-119 0 -252 -13v84q37 4 61 8t40.5 12.5t25 15t13 23t5 29.5t0.5 41v712h-226z" />
</font>
</defs>
</svg>
