<?xml version="1.0" standalone="no"?>
<!DOCTYPE svg PUBLIC "-//W3C//DTD SVG 1.1//EN" "http://www.w3.org/Graphics/SVG/1.1/DTD/svg11.dtd" >
<svg xmlns="http://www.w3.org/2000/svg">
<metadata></metadata>
<defs>
<font id="rosariobold" horiz-adv-x="487" >
<font-face units-per-em="1000" ascent="800" descent="-200" />
<missing-glyph horiz-adv-x="208" />
<glyph horiz-adv-x="1000" />
<glyph horiz-adv-x="1000" />
<glyph unicode="&#xd;" horiz-adv-x="1000" />
<glyph unicode=" "  horiz-adv-x="208" />
<glyph unicode="&#x09;" horiz-adv-x="208" />
<glyph unicode="&#xa0;" horiz-adv-x="208" />
<glyph unicode="!" horiz-adv-x="250" d="M51 62q0 30 22 52t52 22q31 0 53 -21.5t22 -52.5t-22 -52.5t-53 -21.5q-30 0 -52 21.5t-22 52.5zM51 692v3q0 30 38 30h71q39 0 39 -35l-29 -471h-90q-10 171 -17.5 290t-9.5 149t-2 34z" />
<glyph unicode="&#x22;" horiz-adv-x="331" d="M45 559v173h94v-173l-36 -110h-21q-24 67 -32 93zM192 559v173h94v-173l-36 -110h-22z" />
<glyph unicode="#" horiz-adv-x="586" d="M32 208v89h118l18 128h-110v89h122l29 218h89l-29 -218h94l29 218h89l-29 -218h102v-89h-114l-18 -128h106v-89h-118l-28 -208h-89l28 208h-94l-28 -208h-89l28 208h-106zM239 297h94l18 128h-94z" />
<glyph unicode="$" horiz-adv-x="426" d="M30 29l43 82q70 -40 113 -40q32 0 53.5 16.5t21.5 47.5q0 27 -22.5 44.5t-54.5 29t-64.5 26t-55 44.5t-22.5 75q0 71 52 111.5t126 44.5l10 114h72l-31 -116q67 -8 110 -29l-42 -84q-44 34 -99 34q-28 0 -48 -13t-20 -40q0 -25 22.5 -41.5t55 -27.5t64.5 -26t54.5 -47 t22.5 -79q0 -71 -50.5 -116.5t-122.5 -51.5l-10 -112h-73l32 113q-79 7 -137 41z" />
<glyph unicode="%" horiz-adv-x="872" d="M31 509q0 90 44.5 147t132.5 57q45 0 74 -14h356l-346 -711h-67l322 657h-199q37 -55 37 -136q0 -90 -45 -147.5t-132 -57.5q-88 0 -132.5 57.5t-44.5 147.5zM140 509q0 -126 68 -126t68 126q0 125 -68 125t-68 -125zM486 201q0 90 44.5 147t132.5 57t132.5 -57 t44.5 -147t-44.5 -147.5t-132.5 -57.5t-132.5 57.5t-44.5 147.5zM595 201q0 -126 68 -126t68 126q0 125 -68 125t-68 -125z" />
<glyph unicode="&#x26;" horiz-adv-x="739" d="M83 185q0 118 130 203q-54 74 -54 136q0 71 51.5 118.5t123.5 47.5q69 0 115.5 -36.5t46.5 -103.5q0 -50 -31.5 -88.5t-84.5 -75.5q39 -42 120 -137q32 69 32 132l78 -19q0 -92 -47 -184l6 -7q41 -47 60.5 -56.5t74.5 -9.5h27v-105h-74q-50 0 -85.5 19t-76.5 60 q-86 -91 -198 -91q-91 0 -152.5 53.5t-61.5 143.5zM200 204q0 -47 31.5 -74t78.5 -27q62 0 116 46l-152 166q-74 -55 -74 -111zM264 545q0 -41 52 -93q23 15 35 24.5t25.5 29t13.5 40.5q0 29 -16 46.5t-44 17.5q-27 0 -46.5 -19t-19.5 -46z" />
<glyph unicode="'" horiz-adv-x="184" d="M45 559v173h94v-173l-36 -110h-21q-24 67 -32 93z" />
<glyph unicode="(" horiz-adv-x="322" d="M32 298q0 232 191 445l95 -16q-86 -102 -126 -202.5t-40 -226.5q0 -127 40 -226t126 -202l-95 -16q-191 210 -191 444z" />
<glyph unicode=")" horiz-adv-x="322" d="M4 -130q86 103 126 202t40 226q0 126 -40 226.5t-126 202.5l95 16q191 -213 191 -445q0 -234 -191 -444z" />
<glyph unicode="*" horiz-adv-x="467" d="M34 552l30 107l140 -74l-29 156h111l-25 -156l134 78l41 -108l-158 -27l115 -106l-89 -69l-71 141l-71 -138l-86 64l111 111z" />
<glyph unicode="+" horiz-adv-x="558" d="M30 204v88h205v205h88v-204h205v-88h-205v-205h-88v204h-205z" />
<glyph unicode="," horiz-adv-x="231" d="M40 69q0 29 20 49.5t49 20.5q37 0 59 -27.5t22 -65.5q0 -101 -109 -180q-20 20 -39 41q46 46 46 73q0 8 -8 16l-16 17q-24 24 -24 56z" />
<glyph unicode="-" horiz-adv-x="337" d="M58 210v95h221v-95h-221z" />
<glyph unicode="." horiz-adv-x="232" d="M39 65q0 32 22.5 55t54.5 23t54.5 -23t22.5 -55t-22.5 -54.5t-54.5 -22.5t-54.5 22.5t-22.5 54.5z" />
<glyph unicode="/" horiz-adv-x="426" d="M32 0l269 732h94l-270 -732h-93z" />
<glyph unicode="0" horiz-adv-x="590" d="M35 249q0 126 67 193.5t193 67.5q125 0 192.5 -68t67.5 -193q0 -123 -68.5 -192t-191.5 -69t-191.5 69t-68.5 192zM166 249q0 -30 2.5 -54t11 -48.5t22 -40.5t37.5 -26.5t56 -10.5q40 0 66.5 14.5t39.5 42t17.5 56t4.5 67.5q0 180 -128 180q-129 0 -129 -180z" />
<glyph unicode="1" horiz-adv-x="406" d="M29 413l173 85h78v-399h104v-99h-334v99h109v279l-109 -29z" />
<glyph unicode="2" horiz-adv-x="490" d="M32 0v54q39 41 112.5 125t104.5 118q33 33 33 68q0 26 -17 41t-43 15q-60 0 -126 -66l-60 64q101 93 220 93q69 0 119.5 -35.5t50.5 -101.5q0 -62 -55 -119q-23 -25 -49 -49.5t-65 -60t-52 -47.5h261l-21 -99h-413z" />
<glyph unicode="3" horiz-adv-x="500" d="M11 -128q53 1 104 11t103 31t83.5 62.5t31.5 97.5q0 74 -72 74q-33 0 -70 -14l-35 72q57 26 105.5 76.5t48.5 103.5q0 42 -37 42q-48 0 -99 -49l-56 56q30 36 84 56t105 20q59 0 100.5 -25.5t41.5 -80.5q0 -53 -51 -102t-112 -80q22 2 31 2q70 0 113 -34.5t43 -102.5 q0 -60 -28.5 -110t-74 -82t-104 -53.5t-115.5 -31t-111 -9.5h-15z" />
<glyph unicode="4" horiz-adv-x="545" d="M13 -1v58l286 441h131v-399h107l-28 -100h-79v-183h-125v183h-292zM156 99h149v230z" />
<glyph unicode="5" horiz-adv-x="441" d="M11 -145q43 13 80 31t71 44.5t53.5 64t19.5 82.5q0 60 -55.5 113.5t-122.5 82.5l102 225h277l-35 -121h-188l-22 -50q176 -98 176 -245q0 -81 -53 -146t-126.5 -99t-154.5 -44z" />
<glyph unicode="6" horiz-adv-x="553" d="M34 244q0 139 84.5 247.5t219.5 180.5q77 42 141 58l28 -65q-97 -35 -183.5 -112t-130.5 -169q58 37 116 37q93 0 153 -58t60 -151q0 -96 -71 -160t-167 -64q-112 0 -181 71.5t-69 184.5zM169 232q0 -61 28 -111t85 -50q52 0 78.5 40.5t26.5 94.5t-26.5 91.5t-77.5 37.5 q-62 0 -110 -53q-4 -19 -4 -50z" />
<glyph unicode="7" horiz-adv-x="464" d="M18 386l32 111h407v-63l-285 -623h-136l270 575h-288z" />
<glyph unicode="8" horiz-adv-x="510" d="M37 170q0 25 6 47.5t12 37t23.5 34.5t25 27.5t33.5 29.5t33 28l-12 11q-37 33 -54 52t-31 52.5t-14 75.5q0 77 60.5 122t139.5 45q82 0 136 -43.5t54 -123.5q0 -22 -5 -41t-10 -31.5t-19 -29.5t-21 -24t-27.5 -26t-27.5 -25l16 -15q31 -29 46 -44.5t35 -42t28.5 -54.5 t8.5 -62q0 -88 -65 -135t-156 -47q-88 0 -151.5 48.5t-63.5 133.5zM148 173q0 -46 26.5 -75t71.5 -29q44 0 68 28.5t24 73.5q0 13 -5 27.5t-11 24.5t-19 24t-19.5 20.5t-22.5 20.5t-20 18q-4 -4 -21 -18t-23 -19t-18 -18.5t-17 -23t-9.5 -24.5t-4.5 -30zM194 567 q0 -14 4 -27t13.5 -25.5t15.5 -19.5t21 -21t19 -18l4 4q32 25 49 48t17 56q0 37 -18 63t-54 26q-34 0 -52.5 -25t-18.5 -61z" />
<glyph unicode="9" horiz-adv-x="537" d="M26 287q0 96 70.5 160t167.5 64q111 0 180 -72t69 -184q0 -88 -39 -168t-104 -138.5t-144 -100.5t-163 -62l-27 65q100 33 187 103.5t131 160.5q-58 -37 -116 -37q-93 0 -152.5 58t-59.5 151zM160 293q0 -53 27 -91t78 -38q62 0 110 53q3 25 3 50q0 62 -28 111.5 t-85 49.5q-52 0 -78.5 -40.5t-26.5 -94.5z" />
<glyph unicode=":" horiz-adv-x="260" d="M53 65q0 33 22.5 55.5t54.5 22.5t55 -23t23 -55t-22.5 -54.5t-54.5 -22.5q-33 0 -55.5 22.5t-22.5 54.5zM53 354q0 32 22.5 54.5t54.5 22.5q33 0 55.5 -22.5t22.5 -54.5q0 -33 -22.5 -55.5t-54.5 -22.5t-55 23t-23 55z" />
<glyph unicode=";" horiz-adv-x="258" d="M51 354q0 32 22.5 54.5t54.5 22.5t54.5 -22.5t22.5 -54.5t-22.5 -55t-54.5 -23t-54.5 23t-22.5 55zM54 69q0 29 20 49.5t49 20.5q37 0 59 -27.5t22 -65.5q0 -101 -109 -180q-20 20 -39 41q46 46 46 73q0 8 -8 16l-16 17q-24 24 -24 56z" />
<glyph unicode="&#x3c;" horiz-adv-x="572" d="M28 223v52l498 234v-90l-368 -170l368 -173v-88z" />
<glyph unicode="=" horiz-adv-x="625" d="M64 109v88h498v-88h-498zM64 302v88h498v-88h-498z" />
<glyph unicode="&#x3e;" horiz-adv-x="572" d="M46 -12v88l368 173l-368 170v90l498 -234v-52z" />
<glyph unicode="?" horiz-adv-x="443" d="M29 678q68 44 163 44q88 0 154 -47t66 -131q0 -70 -40.5 -113t-111.5 -74q-13 -6 -13 -21v-119h-107v205q53 4 98 35t45 80q0 41 -31 64.5t-73 23.5q-52 0 -104 -35zM116 65q0 32 22.5 55t54.5 23t54.5 -23t22.5 -55t-22.5 -54.5t-54.5 -22.5t-54.5 22.5t-22.5 54.5z" />
<glyph unicode="@" horiz-adv-x="813" d="M40 192q0 79 29 155t80 137.5t129.5 99.5t170.5 38q141 0 237 -84t96 -227q0 -100 -54.5 -180t-141.5 -80q-77 0 -108 56q-20 -27 -52.5 -42t-61.5 -15q-63 0 -95.5 45t-32.5 111q0 82 57 158t148 76q54 0 86 -37l17 30h47q-18 -116 -19 -123q-19 -109 -19 -148 q0 -55 37 -55q56 0 92 62.5t36 141.5q0 119 -77 188t-192 69q-77 0 -143.5 -33t-109.5 -87t-67.5 -120.5t-24.5 -135.5q0 -117 73 -195t185 -78q42 0 84 12l15 -53q-45 -13 -99 -13q-140 0 -231 93.5t-91 233.5zM327 206q0 -93 54 -93q27 0 47 20t33.5 60.5t20 72.5t14.5 83 q-31 29 -61 29q-35 0 -61 -33t-36.5 -70.5t-10.5 -68.5z" />
<glyph unicode="A" horiz-adv-x="629" d="M1 0l259 732h109l259 -732h-148l-72 210h-216l-75 -210h-116zM226 308h149q-51 158 -76 250q-41 -147 -73 -250z" />
<glyph unicode="B" horiz-adv-x="611" d="M52 732h260q47 0 86.5 -7.5t75.5 -25.5t56.5 -53.5t20.5 -84.5q0 -63 -43 -108.5t-106 -53.5q77 -13 130 -66.5t53 -129.5q0 -71 -40 -118.5t-97 -66t-126 -18.5h-256v671q0 1 -7 29.5t-7 31.5zM204 99h109q57 0 92 32t35 88q0 63 -46 95.5t-112 32.5h-78v-248zM204 446 h103q43 0 71 26.5t28 69.5q0 46 -27.5 68.5t-74.5 22.5h-100v-187z" />
<glyph unicode="C" horiz-adv-x="635" d="M32 371q0 163 95 269t256 106q62 0 130 -18t107 -53l-72 -92q-27 31 -71.5 48.5t-88.5 17.5q-74 0 -122.5 -42t-66.5 -101t-18 -132q0 -48 12.5 -97.5t36.5 -94t66 -72.5t94 -28q93 0 171 75l63 -95q-62 -39 -116.5 -56.5t-125.5 -17.5q-169 0 -259.5 106t-90.5 277z" />
<glyph unicode="D" horiz-adv-x="711" d="M49 732h277q166 0 259 -100t93 -267q0 -168 -103 -270q-95 -95 -250 -95h-260v671q-12 52 -16 61zM203 99h116q55 0 97 21.5t66 59t36 83t12 98.5q0 72 -20 131t-69.5 100t-123.5 41h-114v-534z" />
<glyph unicode="E" horiz-adv-x="539" d="M50 732h460v-99h-308v-207h236v-99h-236v-228h308v-99h-445v671z" />
<glyph unicode="F" horiz-adv-x="491" d="M51 732h429v-99h-276v-207h213v-99h-213v-327h-139v671q0 1 -7 29.5t-7 31.5z" />
<glyph unicode="G" horiz-adv-x="719" d="M32 359q0 175 97 280t269 105q67 0 141 -20t116 -59l-73 -82q-51 39 -87.5 53t-96.5 14q-79 0 -130.5 -41.5t-71 -102t-19.5 -138.5q0 -49 11.5 -96.5t34 -90.5t63.5 -69.5t93 -26.5q72 0 115 42t43 113v62h-152l13 88h278q-2 -122 -2 -184q0 -121 5 -207h-71l-34 76 q-50 -46 -100 -66t-118 -20q-156 0 -240 104.5t-84 265.5z" />
<glyph unicode="H" horiz-adv-x="713" d="M51 732h152v-306h307v306h138v-732h-138v327h-307v-327h-138v671q0 1 -7 29.5t-7 31.5z" />
<glyph unicode="I" horiz-adv-x="268" d="M51 732h152v-732h-138v671q0 1 -7 29.5t-7 31.5z" />
<glyph unicode="J" horiz-adv-x="268" d="M-40 -131q34 4 56.5 20t32.5 44t13 53t3 61v624q0 1 -7 29.5t-7 31.5h152v-634q0 -56 -4 -96t-17.5 -81t-37.5 -67t-65.5 -43.5t-98.5 -19.5z" />
<glyph unicode="K" horiz-adv-x="582" d="M51 732h152v-327l244 327h128l-238 -320l259 -412h-160l-233 371v-371h-138v671q0 1 -7 29.5t-7 31.5z" />
<glyph unicode="L" horiz-adv-x="497" d="M53 732h152v-633h287v-99h-426v671q0 1 -6.5 29.5t-6.5 31.5z" />
<glyph unicode="M" horiz-adv-x="847" d="M50 732h192l156 -420q11 -30 29 -121q3 13 10.5 54t16.5 63l153 424h176v-731h-135v496q0 34 5 72l-24 -72l-179 -497h-74l-184 497l-24 72q0 -9 2.5 -34t2.5 -38v-496h-109v670q0 1 -7 29.5t-7 31.5z" />
<glyph unicode="N" horiz-adv-x="714" d="M51 731h164l288 -438q28 -43 41 -66q-6 50 -6 77v427h111v-736h-108l-329 502q-31 48 -42 67q6 -46 6 -67v-497h-111v670q0 1 -7 29.5t-7 31.5z" />
<glyph unicode="O" horiz-adv-x="763" d="M32 367q0 166 92 271t255 105q167 0 259.5 -104.5t92.5 -273.5q0 -165 -95.5 -270.5t-257.5 -105.5q-163 0 -254.5 106t-91.5 272zM179 371q0 -53 10 -100.5t32 -91t63.5 -69.5t97.5 -26q55 0 96 24.5t63 65.5t32 87.5t10 99.5t-10 100.5t-32 91t-63.5 69.5t-97.5 26 q-55 0 -96 -24.5t-63 -66t-32 -88t-10 -98.5z" />
<glyph unicode="P" horiz-adv-x="567" d="M50 732h232q120 0 193 -51.5t73 -167.5q0 -108 -76.5 -163.5t-187.5 -55.5h-82v-294h-137v671q0 3 -6.5 30t-8.5 31zM203 391h84q55 0 85 33.5t30 88.5q0 56 -29 88t-85 32h-85v-242z" />
<glyph unicode="Q" horiz-adv-x="762" d="M32 364q0 75 22 142.5t64 121t110 85t154 31.5t154 -31.5t110 -85t63.5 -121t21.5 -142.5q0 -105 -44 -195.5t-138 -141.5l12 -6q81 -39 134 -63t143 -52t151 -28q75 0 185 35l23 -76q-125 -42 -164 -48q-35 -5 -85 -5q-43 0 -94 11t-112 34t-102 40t-109.5 48.5 t-88.5 40.5q-27 13 -128 34q-145 30 -213.5 130.5t-68.5 241.5zM180 363q0 -73 19 -133.5t66 -102.5t117 -42t117 42t66 102.5t19 134.5t-19 135.5t-66 105t-117 43.5t-117 -43.5t-66 -105.5t-19 -136z" />
<glyph unicode="R" horiz-adv-x="605" d="M50 732h251q111 0 179 -47t68 -153q0 -62 -47 -116t-109 -69l224 -347h-156l-203 326h-55v-326h-137v671q0 3 -6.5 30t-8.5 31zM202 424h64q137 0 137 109q0 48 -33 73.5t-82 25.5h-86v-208z" />
<glyph unicode="S" horiz-adv-x="537" d="M18 46l47 111q80 -73 175 -73q51 0 87.5 28t36.5 78q0 36 -24 64t-59.5 44t-77.5 37.5t-77.5 43.5t-59.5 62.5t-24 93.5q0 103 71.5 156t190.5 53q44 0 103 -18t91 -42l-69 -86q-56 50 -138 50q-42 0 -72.5 -22t-30.5 -62q0 -35 24 -61.5t59.5 -42.5t77.5 -38t77.5 -44.5 t59.5 -64.5t24 -98q0 -106 -74.5 -166.5t-182.5 -60.5q-138 0 -235 58z" />
<glyph unicode="T" horiz-adv-x="568" d="M8 633v99h552v-99h-206v-633h-143v633h-203z" />
<glyph unicode="U" horiz-adv-x="694" d="M43 732h157v-487q0 -74 44 -117.5t117 -43.5q75 0 118 43t43 118v487h113v-454q0 -150 -78 -219.5t-210 -69.5q-140 0 -214 74.5t-74 214.5v394z" />
<glyph unicode="V" horiz-adv-x="605" d="M1 731h146q14 -42 65 -189.5t78 -228.5q15 -47 29 -114q14 69 39 137l135 395h111l-253 -733h-98z" />
<glyph unicode="W" horiz-adv-x="939" d="M9 732h138q106 -383 116 -423q6 -25 23 -127q11 75 35 164l105 386h116q12 -45 37.5 -133t44.5 -158t35 -134q11 -43 21 -125q12 83 34 164l106 386h111l-203 -734h-124q-93 333 -113 416q-15 61 -20 112q-12 -85 -34 -165l-99 -363h-128z" />
<glyph unicode="X" horiz-adv-x="588" d="M-8 0l229 371l-215 361h159l137 -229l142 229h129l-207 -338l235 -394h-160l-155 266l-165 -266h-129z" />
<glyph unicode="Y" horiz-adv-x="563" d="M1 732h148l146 -272l150 272h120l-217 -399v-333h-133v333z" />
<glyph unicode="Z" horiz-adv-x="578" d="M17 0v82l351 552h-327v98h503v-73l-358 -560h376l-12 -99h-533z" />
<glyph unicode="[" horiz-adv-x="306" d="M65 -132v864h218v-59h-99v-746h99v-59h-218z" />
<glyph unicode="\" horiz-adv-x="425" d="M30 732h93l270 -732h-94z" />
<glyph unicode="]" horiz-adv-x="306" d="M23 -73h99v746h-99v59h218v-864h-218v59z" />
<glyph unicode="^" horiz-adv-x="618" d="M69 0l235 498h52l235 -498h-91l-170 368l-173 -368h-88z" />
<glyph unicode="_" horiz-adv-x="710" d="M101 -47h508v-96h-508v96z" />
<glyph unicode="`" horiz-adv-x="281" d="M4 755h145l109 -165h-103z" />
<glyph unicode="a" d="M20 117q0 51 25 87.5t68 54t86 25t92 7.5v65q0 39 -16.5 54.5t-55.5 15.5q-53 0 -128 -58l-49 79q91 62 202 62q81 0 124 -41t43 -121v-217q0 -50 24 -50q5 0 50 12l21 -73q-88 -27 -116 -27q-30 0 -51 18.5t-28 48.5q-50 -70 -150 -70q-61 0 -101 34t-40 94zM145 129 q0 -22 17.5 -35t40.5 -13q39 0 63.5 32.5t24.5 72.5v23q-146 0 -146 -80z" />
<glyph unicode="b" horiz-adv-x="544" d="M41 768h134v-242q0 -24 -1 -45.5t-1 -23.5q61 51 141 51q49 0 89 -23t64 -61t37 -82.5t13 -90.5q0 -71 -27 -130t-81.5 -96t-126.5 -37q-92 0 -148 69l-21 -58h-62q4 31 4 66v648q-1 3 -7 26zM175 205q0 -57 25 -96t79 -39q25 0 44 12t30.5 30t19.5 42.5t10.5 46.5 t2.5 44q0 27 -6 55t-18.5 55t-35.5 44t-53 17q-27 0 -53 -13.5t-45 -34.5v-163z" />
<glyph unicode="c" horiz-adv-x="452" d="M27 249q0 117 70.5 189t186.5 72q37 0 79 -13t72 -35l-60 -76q-52 39 -102 39q-58 0 -86 -55t-28 -119q0 -45 11.5 -83.5t41.5 -67t76 -28.5q48 0 104 49l51 -86q-48 -25 -85.5 -36t-87.5 -11q-116 0 -179.5 72t-63.5 189z" />
<glyph unicode="d" horiz-adv-x="546" d="M27 245q0 114 60.5 189t171.5 75q73 0 111 -32q0 7 -0.5 16.5t-0.5 12.5v208l-15 54h135v-626q0 -93 25 -139l-121 -12q-9 23 -15 60q-22 -29 -60.5 -46t-77.5 -17q-100 0 -156.5 76.5t-56.5 180.5zM158 250q0 -66 28 -119.5t88 -53.5q27 0 53.5 14.5t41.5 37.5v163 q0 57 -23 94.5t-76 37.5q-41 0 -67.5 -30.5t-35.5 -67t-9 -76.5z" />
<glyph unicode="e" horiz-adv-x="491" d="M27 245q0 111 63 188.5t170 77.5q98 0 152.5 -58.5t54.5 -158.5q0 -60 -51 -60h-262q0 -64 34 -114.5t95 -50.5q68 0 121 53l51 -80q-32 -26 -82 -39.5t-96 -13.5q-116 0 -183 69.5t-67 186.5zM157 313h168q17 0 17 22q0 41 -20.5 67.5t-60.5 26.5t-71 -37t-33 -79z" />
<glyph unicode="f" horiz-adv-x="330" d="M8 417v71q76 0 84 44l9 45t9.5 43.5t12 35t21.5 38.5t33 36q52 46 137 46q60 0 99 -23l-32 -81q-31 22 -62 22q-36 0 -59.5 -16.5t-33.5 -47.5t-13 -57t-3 -62v-14h122l-23 -80h-99v-418h-120v418h-82z" />
<glyph unicode="g" horiz-adv-x="486" d="M8 -105q0 43 25 77t63 51v4q-18 5 -32 25t-14 43q0 8 10.5 18.5t30 31.5t35.5 48q-89 49 -89 147q0 75 56 123.5t133 48.5q22 0 56 -7.5t51 -7.5q48 0 178 11l-22 -83h-85q-11 0 -23 5q32 -41 32 -89q0 -76 -56.5 -124.5t-135.5 -48.5q-19 0 -33 -12.5t-14 -32.5 q0 -32 82 -32h46q30 0 51 -1.5t47 -8t42.5 -18t27.5 -33.5t11 -53q0 -68 -43.5 -117t-103.5 -69.5t-126 -20.5q-34 0 -65.5 5.5t-63.5 18t-51.5 38.5t-19.5 63zM130 -82q0 -32 29 -47t64 -15q58 0 101 21t43 73q0 50 -97 50h-91q-21 -11 -35 -34.5t-14 -47.5zM162 337 q0 -43 17 -71t46 -28t46.5 28t17.5 71t-17.5 71.5t-46.5 28.5t-46 -28.5t-17 -71.5z" />
<glyph unicode="h" horiz-adv-x="516" d="M42 769h131v-319q74 61 144 61q81 0 114.5 -45t33.5 -130v-336h-121v324q0 28 -3 45t-17.5 32t-42.5 15q-22 0 -56.5 -18.5t-51.5 -36.5v-361h-119v715z" />
<glyph unicode="i" horiz-adv-x="229" d="M39 678q0 32 22.5 54t54.5 22t54 -22t22 -54t-22 -54.5t-54 -22.5t-54.5 22.5t-22.5 54.5zM44 497h131v-497h-120v443q0 1 -5.5 26t-5.5 28z" />
<glyph unicode="j" horiz-adv-x="230" d="M-21 -169q27 14 43.5 37t23 56t8 55t1.5 61v404q0 1 -6 25.5t-6 27.5h132v-431q0 -56 -6 -98.5t-22.5 -86.5t-53.5 -71t-92 -34zM38 678q0 32 22.5 54t54.5 22t54 -22t22 -54t-22 -54.5t-54 -22.5t-54.5 22.5t-22.5 54.5z" />
<glyph unicode="k" horiz-adv-x="469" d="M41 769h136v-477l154 205h117l-161 -210l190 -287h-135l-165 255v-255h-123v715z" />
<glyph unicode="l" horiz-adv-x="230" d="M43 769h133v-769h-122v715q0 1 -5.5 26t-5.5 28z" />
<glyph unicode="m" horiz-adv-x="800" d="M27 493l126 15q12 -26 17 -64q39 33 73.5 49.5t79.5 16.5q92 0 124 -73q73 73 162 73q77 0 108.5 -45t31.5 -126v-339h-120v332q0 41 -14 62.5t-52 21.5q-46 0 -100 -54v-362h-121v335q0 81 -63 81q-24 0 -53 -17t-48 -38v-361h-120v356q0 100 -31 137z" />
<glyph unicode="n" horiz-adv-x="521" d="M27 493l126 15q12 -26 17 -64q74 67 152 67q81 0 114.5 -45t33.5 -130v-336h-121v324q0 28 -3 45t-17.5 32t-42.5 15q-22 0 -56.5 -18.5t-51.5 -36.5v-361h-120v356q0 100 -31 137z" />
<glyph unicode="o" horiz-adv-x="538" d="M27 249q0 111 66.5 186t175.5 75q110 0 176 -75t66 -186t-66 -186t-176 -75t-176 75t-66 186zM159 248q0 -30 4.5 -58t16 -57t34.5 -47t55 -18q33 0 56 17.5t34 46.5t15.5 57t4.5 59t-4.5 59t-15.5 57t-34 46.5t-56 17.5q-32 0 -55 -18t-34.5 -47t-16 -57t-4.5 -58z" />
<glyph unicode="p" horiz-adv-x="548" d="M29 493l125 15q10 -27 15 -60q21 29 60.5 46t77.5 17q101 0 157.5 -76t56.5 -181q0 -114 -61 -189t-172 -75q-72 0 -111 32q0 -16 1 -23q0 -7 0.5 -19t0.5 -16v-126l6 -26q4 -16 8 -29h-135v574q0 92 -29 136zM179 207q0 -57 23 -94.5t76 -37.5q41 0 67.5 30.5t35.5 67 t9 76.5q0 66 -28 119.5t-88 53.5q-27 0 -53.5 -14.5t-41.5 -37.5v-163z" />
<glyph unicode="q" horiz-adv-x="544" d="M27 246q0 110 63 186.5t171 76.5q92 0 148 -68l21 56h62q-3 -33 -3 -64v-595q0 -1 6.5 -26.5t6.5 -28.5h-134v182q0 25 1 46t1 30q-61 -52 -141 -52q-94 0 -148 79t-54 178zM157 244q0 -38 10 -74t37 -65t66 -29q56 0 98 49v168q0 57 -25 96t-78 39q-40 0 -65.5 -31.5 t-34 -70t-8.5 -82.5z" />
<glyph unicode="r" horiz-adv-x="345" d="M26 497l127 10q22 -46 24 -105q25 44 71 74.5t94 30.5l-20 -119h-4q-44 0 -76.5 -24.5t-63.5 -67.5v-296h-120v363q0 91 -32 134z" />
<glyph unicode="s" horiz-adv-x="404" d="M19 29l43 82q70 -40 113 -40q32 0 53.5 16.5t21.5 47.5q0 27 -22.5 45t-55 29t-64.5 25.5t-54.5 44.5t-22.5 75q0 74 57.5 115t134.5 41q84 0 147 -31l-42 -84q-44 34 -99 34q-28 0 -48 -13t-20 -40q0 -25 22.5 -41.5t54.5 -27.5t64.5 -26t55 -47t22.5 -79 q0 -77 -58 -123t-137 -46q-91 0 -166 43z" />
<glyph unicode="t" horiz-adv-x="345" d="M9 418v66q101 4 137 158h87q-20 -85 -20 -145h121l-24 -79h-97v-275q0 -67 42 -67q23 0 65 10l14 -75q-67 -21 -118 -21q-65 0 -95 30t-30 96v302h-82z" />
<glyph unicode="u" horiz-adv-x="551" d="M41 497h133v-315q0 -21 2 -36t8 -31t20 -24.5t35 -8.5q44 0 75 27t31 70v264q0 1 -6 26t-6 28h134v-365q0 -52 25 -52q2 0 47 12l21 -73q-6 -2 -27.5 -8.5t-31.5 -9.5t-27 -6t-31 -3q-30 0 -51 18.5t-27 48.5q-71 -73 -164 -73q-82 0 -115.5 45.5t-33.5 129.5v282z" />
<glyph unicode="v" horiz-adv-x="461" d="M1 497h129l91 -262q2 -5 21 -84q13 71 17 84l93 262h108l-176 -501h-108z" />
<glyph unicode="w" horiz-adv-x="694" d="M7 497h126l67 -225q7 -21 16 -99q12 84 17 99l72 225h111l67 -225q5 -15 7.5 -30t5 -36.5t3.5 -31.5q9 76 16 98l71 225h103l-158 -501h-93q-8 26 -32 101.5t-37.5 127.5t-22.5 104q-9 -52 -23 -103t-40 -129.5t-33 -100.5h-95z" />
<glyph unicode="x" horiz-adv-x="464" d="M-5 0l174 261l-152 236h135l86 -133l87 133h119l-149 -223l174 -274h-134l-109 170l-113 -170h-118z" />
<glyph unicode="y" horiz-adv-x="465" d="M2 497h129q10 -27 44.5 -124.5t52.5 -151.5q4 -13 8.5 -40.5t5.5 -34.5q11 64 14 75q13 41 29 87t36 102t31 87h110l-177 -500q-74 -218 -217 -218h-37v85q12 -3 26 -3q27 0 48 12.5t36 36t23.5 43.5t17.5 48z" />
<glyph unicode="z" horiz-adv-x="445" d="M16 0v61l234 353h-209v83h372v-62l-237 -352h251l-14 -83h-397z" />
<glyph unicode="{" horiz-adv-x="317" d="M24 266v61q64 0 64 89v153q0 78 35.5 124t111.5 46h59v-62q-52 0 -70 -16.5t-18 -67.5v-166q0 -103 -55 -131q54 -28 54 -130v-166q0 -55 16.5 -69.5t72.5 -14.5v-63h-46q-159 0 -159 171v159q0 33 -16.5 58t-48.5 25z" />
<glyph unicode="|" horiz-adv-x="228" d="M65 -116v861h98v-861h-98z" />
<glyph unicode="}" horiz-adv-x="317" d="M23 -85q58 0 73 14.5t15 70.5v166q0 102 55 130q-54 28 -54 131v166q0 50 -18.5 66.5t-70.5 16.5v63h59q76 0 111 -46t35 -124v-153q0 -36 16 -62t49 -26v-61q-32 0 -48 -25t-16 -59v-159q0 -171 -160 -171h-46v62z" />
<glyph unicode="~" horiz-adv-x="575" d="M31 244q19 44 60 77t86 33q49 0 121 -35t95 -35q46 0 89 73l63 -58q-27 -41 -69 -73t-83 -32t-110.5 35t-105.5 35q-42 0 -81 -75z" />
<glyph unicode="&#xa1;" horiz-adv-x="250" d="M50 539q0 31 22 52.5t53 21.5q30 0 52 -22t22 -52q0 -31 -22 -52.5t-52 -21.5q-31 0 -53 21.5t-22 52.5zM51 -89l29 471h89l30 -474q0 -32 -38 -32h-71q-39 0 -39 35z" />
<glyph unicode="&#xa2;" horiz-adv-x="483" d="M35 249q0 109 61 179.5t168 80.5l9 113h74l-28 -114q66 -6 124 -46l-60 -76q-52 39 -102 39q-58 0 -86 -55t-28 -119q0 -45 11.5 -83.5t41.5 -67t76 -28.5q48 0 104 49l51 -86q-53 -28 -93.5 -37.5t-92.5 -9.5l-11 -116h-72l32 123q-90 19 -134.5 88t-44.5 166z" />
<glyph unicode="&#xa3;" horiz-adv-x="589" d="M33 0v100h93v242h-77v99h77v97q0 97 61 151.5t160 54.5q124 0 196 -115l-98 -54q-37 73 -99 73q-41 0 -63 -26.5t-22 -69.5v-111h130v-99h-130v-242h293v-100h-521z" />
<glyph unicode="&#xa4;" horiz-adv-x="559" d="M50 173l56 55q-25 47 -25 104t25 104l-56 57l69 69l52 -53q47 34 108 34t108 -34l53 53l69 -69l-57 -57q26 -50 26 -104q0 -53 -26 -103l57 -56l-69 -69l-52 51q-47 -34 -109 -34t-109 34l-51 -51zM176 332q0 -60 32 -93.5t71 -33.5q43 0 73.5 32.5t30.5 96.5 q0 53 -28 89t-75 36t-75.5 -36t-28.5 -91z" />
<glyph unicode="&#xa5;" horiz-adv-x="531" d="M39 497h146l94 -165l91 165h123l-102 -177h100v-49h-129l-32 -55v-5h161v-49h-161v-162h-121v162h-169v49h169v5l-34 55h-135v49h106z" />
<glyph unicode="&#xa6;" horiz-adv-x="230" d="M66 -116v353h98v-353h-98zM66 392v353h98v-353h-98z" />
<glyph unicode="&#xa7;" horiz-adv-x="512" d="M34 357q0 82 79 134q-28 38 -28 90q0 83 62 122t158 39q48 0 95 -15t69 -32l-58 -87q-48 38 -112 38q-39 0 -64.5 -14.5t-25.5 -41.5t28 -46.5t67.5 -35.5t79 -36t67.5 -59.5t28 -95.5q0 -84 -80 -134q29 -35 29 -90q0 -83 -62 -122t-158 -39q-49 0 -97 15t-67 32l58 87 q48 -38 112 -38q39 0 64.5 14.5t25.5 41.5t-28 46.5t-67.5 35t-79 36t-67.5 60t-28 95.5zM157 376q0 -23 8.5 -40.5t28 -31.5t35.5 -22t46.5 -21t45.5 -20q35 21 35 57q0 23 -9 40.5t-28 31t-36 22t-46.5 21t-45.5 20.5q-34 -22 -34 -57z" />
<glyph unicode="&#xa8;" horiz-adv-x="276" d="M2 623q0 24 16.5 40.5t40.5 16.5t40.5 -16.5t16.5 -40.5t-16.5 -40.5t-40.5 -16.5t-40.5 16.5t-16.5 40.5zM162 623q0 23 17 40t40 17q24 0 41 -16.5t17 -40.5t-17 -40.5t-41 -16.5q-23 0 -40 17t-17 40z" />
<glyph unicode="&#xa9;" horiz-adv-x="616" d="M31 250q0 114 81.5 195.5t195.5 81.5t195.5 -81.5t81.5 -195.5t-81.5 -195.5t-195.5 -81.5t-195.5 81.5t-81.5 195.5zM71 250q0 -98 69.5 -167.5t167.5 -69.5t167.5 69.5t69.5 167.5t-69.5 167.5t-167.5 69.5t-167.5 -69.5t-69.5 -167.5zM153 250q0 76 46 123.5t121 47.5 q55 0 102 -35l-44 -56q-34 27 -65 27q-34 0 -50.5 -34t-16.5 -72q0 -43 18 -75.5t59 -32.5q33 0 66 33l38 -64q-62 -32 -116 -32q-76 0 -117 46.5t-41 123.5z" />
<glyph unicode="&#xaa;" horiz-adv-x="396" d="M42 476q0 34 17 58t46 35.5t59.5 16.5t65.5 5v37q0 46 -53 46q-42 0 -88 -38l-33 52q62 41 133 41q118 0 118 -107v-142q0 -34 21 -34q13 0 29 8l14 -48q-39 -18 -71 -18q-45 0 -57 44q-46 -46 -102 -46q-45 0 -72 24.5t-27 65.5zM75 272v58h239v-58h-239zM124 484 q0 -16 10 -26.5t28 -10.5q28 0 48 20t20 49v21q-106 0 -106 -53z" />
<glyph unicode="&#xab;" horiz-adv-x="469" d="M33 332l152 172l77 -14l-119 -158l122 -159l-76 -11zM201 332l152 172l78 -14l-120 -158l123 -159l-77 -11z" />
<glyph unicode="&#xac;" horiz-adv-x="607" d="M54 267v83h498v-271h-86v188h-412z" />
<glyph unicode="&#xad;" horiz-adv-x="337" d="M58 210v95h221v-95h-221z" />
<glyph unicode="&#xae;" horiz-adv-x="493" d="M36 610q0 87 61.5 149t148.5 62t149 -62t62 -149t-62 -149t-149 -62t-148.5 62t-61.5 149zM71 610q0 -73 51.5 -124t123.5 -51t124 51.5t52 123.5t-52 123.5t-124 51.5t-123.5 -51t-51.5 -124zM161 497v235h93q83 0 83 -69q0 -38 -43 -59l74 -107h-71l-66 96h-10v-96h-60 zM221 640h19q37 0 37 25q0 20 -30 20h-26v-45z" />
<glyph unicode="&#xaf;" horiz-adv-x="274" d="M-11 581v74h295v-74h-295z" />
<glyph unicode="&#xb0;" horiz-adv-x="353" d="M31 593q0 60 42.5 102.5t102.5 42.5t103 -42.5t43 -102.5t-42.5 -102.5t-103.5 -42.5q-60 0 -102.5 42.5t-42.5 102.5zM98 593q0 -33 22.5 -57t55.5 -24t56 24t23 57t-23 57t-56 24t-55.5 -24t-22.5 -57z" />
<glyph unicode="&#xb1;" horiz-adv-x="592" d="M47 1v87h498v-87h-498zM47 266v85h205v146h88v-145h205v-85h-205v-147h-88v146h-205z" />
<glyph unicode="&#xb2;" horiz-adv-x="435" d="M29 438v51q69 56 120 109q121 125 121 196q0 29 -17.5 45.5t-45.5 16.5q-41 0 -85 -29q-25 -16 -39 -29l-44 66q17 15 52 35q63 36 138 36q78 0 118.5 -37.5t40.5 -93.5q0 -96 -100 -190q-44 -44 -99 -81h216l-27 -95h-349z" />
<glyph unicode="&#xb3;" horiz-adv-x="412" d="M27 494q118 6 181 37.5t63 81.5q0 59 -103 59q-6 0 -14 -0.5t-11 -0.5q-3 -1 -10 -1l-11 58q36 7 60 15t48 28.5t24 49.5q0 17 -14 26t-35 9q-33 0 -69 -14.5t-61 -35.5l-43 61q37 29 89.5 48.5t99.5 19.5q59 0 100.5 -21.5t41.5 -72.5q0 -71 -85 -103q107 -18 107 -116 q0 -23 -7 -45t-30 -49t-59 -48t-100 -36.5t-147 -18.5z" />
<glyph unicode="&#xb4;" horiz-adv-x="281" d="M33 590l109 165h145l-151 -165h-103z" />
<glyph unicode="&#xb6;" horiz-adv-x="481" d="M32 520q0 98 61.5 148t161.5 50h192v-54h-56v-654q0 -45 -33 -78t-78 -33q-3 0 -17 2q-32 -59 -98 -59q-45 0 -78 33t-33 78t33 78t78 33v-54q-23 0 -40 -17t-17 -40t17 -40t40 -17t39.5 17t16.5 40v379q-79 0 -134 54t-55 134zM276 -47h4q23 0 40 17t17 40v654h-61v-711 z" />
<glyph unicode="&#xb7;" horiz-adv-x="237" d="M43 257q0 32 22 54t53 22q32 0 54 -22t22 -53q0 -32 -22 -54t-53 -22q-32 0 -54 22t-22 53z" />
<glyph unicode="&#xb8;" horiz-adv-x="280" d="M25 -190l28 50q40 -22 67 -22q16 0 27.5 9.5t11.5 23.5q0 29 -33 29h-47q-19 0 -19 17q0 5 3 10l48 82h59l-32 -57h4q46 0 78 -18t32 -60q0 -94 -135 -94q-41 0 -92 30z" />
<glyph unicode="&#xb9;" horiz-adv-x="422" d="M17 855q13 4 57 19q61 21 122 50h85v-407h107v-79h-354v79h133v303l-125 -35z" />
<glyph unicode="&#xba;" horiz-adv-x="407" d="M39 560q0 77 44.5 126t120.5 49t120 -49t44 -126t-44.5 -125.5t-120.5 -48.5t-120 48.5t-44 125.5zM83 272v58h239v-58h-239zM128 560q0 -119 76 -119q75 0 75 119q0 47 -17 83.5t-59 36.5t-58.5 -36.5t-16.5 -83.5z" />
<glyph unicode="&#xbb;" horiz-adv-x="469" d="M35 173l123 159l-120 158l78 14l152 -172l-156 -170zM204 173l122 159l-119 158l77 14l152 -172l-156 -170z" />
<glyph unicode="&#xbc;" horiz-adv-x="1045" d="M40 663q13 4 57 19q61 21 122 50h85v-407h107v-79h-354v79h133v303l-125 -35zM359 -27l311 780h84l-312 -780h-83zM605 101v52l226 333h113v-306h72l-25 -79h-47v-101h-114v101h-225zM720 180h110v117q0 25 4 52l4 37q-17 -52 -50 -103z" />
<glyph unicode="&#xbd;" horiz-adv-x="1082" d="M34 663q13 4 57 19q61 21 122 50h85v-407h107v-79h-354v79h133v303l-125 -35zM353 -27l311 780h84l-312 -780h-83zM675 0v52l9 8q127 118 175 178q56 72 56 114q0 26 -18 41.5t-45 15.5q-53 0 -123 -52l-44 69q92 71 193 71q70 0 116.5 -33t46.5 -101t-56.5 -138.5 t-126.5 -118.5h192l-28 -106h-347z" />
<glyph unicode="&#xbe;" horiz-adv-x="998" d="M41 302q118 6 181 37.5t63 81.5q0 59 -103 59q-6 0 -14 -0.5t-11 -0.5q-3 -1 -10 -1l-11 58q36 7 60 15t48 28.5t24 49.5q0 17 -14 26t-35 9q-33 0 -69 -14.5t-61 -35.5l-43 61q37 29 89.5 48.5t99.5 19.5q59 0 100.5 -21.5t41.5 -72.5q0 -71 -85 -103q107 -18 107 -116 q0 -23 -7 -45t-30 -49t-59 -48t-100 -36.5t-147 -18.5zM312 -27l311 780h84l-312 -780h-83zM558 101v52l226 333h113v-306h72l-25 -79h-47v-101h-114v101h-225zM673 180h110v117q0 25 4 52l4 37q-17 -52 -50 -103z" />
<glyph unicode="&#xbf;" horiz-adv-x="443" d="M32 56q0 128 152 187q13 5 13 21v119h107v-205q-53 -4 -98 -34.5t-45 -79.5q0 -41 31 -65t73 -24q52 0 104 35l46 -88q-68 -44 -163 -44q-89 0 -154.5 46.5t-65.5 131.5zM173 535q0 32 23 54.5t55 22.5t54.5 -22.5t22.5 -54.5t-22.5 -54.5t-54.5 -22.5t-55 22.5t-23 54.5 z" />
<glyph unicode="&#xc0;" horiz-adv-x="629" d="M1 0l257 680h111l259 -680h-144l-71 190h-224l-72 -190h-116zM127 882h146l109 -165h-104zM226 288h149q-30 89 -74 251q-30 -112 -75 -251z" />
<glyph unicode="&#xc1;" horiz-adv-x="629" d="M1 0l257 680h111l259 -680h-144l-71 190h-224l-72 -190h-116zM226 288h149q-30 89 -74 251q-30 -112 -75 -251zM243 717l109 164h146l-151 -164h-104z" />
<glyph unicode="&#xc2;" horiz-adv-x="629" d="M1 0l257 680h111l259 -680h-144l-71 190h-224l-72 -190h-116zM166 714l96 144h98l99 -145h-78l-70 74l-69 -73h-76zM226 288h149q-30 89 -74 251q-30 -112 -75 -251z" />
<glyph unicode="&#xc3;" horiz-adv-x="629" d="M1 0l257 680h111l259 -680h-144l-71 190h-224l-72 -190h-116zM146 723q0 50 28.5 83.5t77.5 33.5q30 0 72 -20t58 -20t28.5 8t12.5 22h65q0 -50 -29 -83.5t-78 -33.5q-30 0 -71.5 20t-58.5 20q-15 0 -27.5 -8t-12.5 -22h-65zM226 288h149q-30 89 -74 251 q-30 -112 -75 -251z" />
<glyph unicode="&#xc4;" horiz-adv-x="629" d="M1 0l257 680h111l259 -680h-144l-71 190h-224l-72 -190h-116zM178 792q0 23 16.5 40t40.5 17t40.5 -17t16.5 -40q0 -24 -16.5 -40.5t-40.5 -16.5t-40.5 16.5t-16.5 40.5zM226 288h149q-30 89 -74 251q-30 -112 -75 -251zM338 792q0 23 17 40t40 17q24 0 41 -16.5 t17 -40.5t-17 -40.5t-41 -16.5q-23 0 -40 16.5t-17 40.5z" />
<glyph unicode="&#xc5;" horiz-adv-x="627" d="M0 0l251 664q-46 32 -46 87q0 44 31 74t75 30q45 0 76.5 -29.5t31.5 -73.5q0 -55 -45 -87l253 -665h-144l-71 190h-224l-72 -190h-116zM225 288h149q-30 89 -74 251q-30 -112 -75 -251zM271 752q0 -17 11.5 -29t28.5 -12t29 12t12 29q0 16 -12 28t-29 12t-28.5 -12 t-11.5 -28z" />
<glyph unicode="&#xc6;" horiz-adv-x="904" d="M-14 0l339 670l-14 62h564v-99h-307v-207h235v-99h-235v-228h307v-99h-445v210h-215l-107 -210h-122zM266 308h164v325z" />
<glyph unicode="&#xc7;" horiz-adv-x="635" d="M32 371q0 163 95 269t256 106q62 0 130 -18t107 -53l-72 -92q-27 31 -71.5 48.5t-88.5 17.5q-74 0 -122.5 -42t-66.5 -101t-18 -132q0 -48 12.5 -97.5t36.5 -94t66 -72.5t94 -28q93 0 171 75l63 -95q-62 -40 -116.5 -57t-127.5 -17l-20 -36h4q44 0 77 -18.5t33 -59.5 q0 -94 -135 -94q-41 0 -92 30l28 50q40 -22 67 -22q16 0 27.5 9.5t11.5 23.5q0 29 -33 29h-47q-19 0 -19 17q0 5 3 10l38 65q-140 17 -215.5 121t-75.5 258z" />
<glyph unicode="&#xc8;" horiz-adv-x="546" d="M52 674h459v-99h-307v-184h235v-99h-235v-193h307v-99h-445v613q0 1 -7 29.5t-7 31.5zM110 881h145l109 -164h-103z" />
<glyph unicode="&#xc9;" horiz-adv-x="546" d="M52 674h459v-99h-307v-184h235v-99h-235v-193h307v-99h-445v613q0 1 -7 29.5t-7 31.5zM215 717l109 164h146l-151 -164h-104z" />
<glyph unicode="&#xca;" horiz-adv-x="546" d="M52 674h459v-99h-307v-184h235v-99h-235v-193h307v-99h-445v613q0 1 -7 29.5t-7 31.5zM147 717l96 145h98l99 -145h-78l-70 74l-69 -74h-76z" />
<glyph unicode="&#xcb;" horiz-adv-x="546" d="M52 674h459v-99h-307v-184h235v-99h-235v-193h307v-99h-445v613q0 1 -7 29.5t-7 31.5zM159 792q0 23 16.5 40t40.5 17t40.5 -17t16.5 -40q0 -24 -16.5 -40.5t-40.5 -16.5t-40.5 16.5t-16.5 40.5zM319 792q0 23 16.5 40t40.5 17t41 -16.5t17 -40.5t-17 -40.5t-41 -16.5 t-40.5 16.5t-16.5 40.5z" />
<glyph unicode="&#xcc;" horiz-adv-x="270" d="M-51 881h145l109 -164h-103zM52 674h152v-674h-138v613q0 1 -7 29.5t-7 31.5z" />
<glyph unicode="&#xcd;" horiz-adv-x="269" d="M45 716l109 165h145l-151 -165h-103zM51 674h152v-674h-138v613q0 1 -7 29.5t-7 31.5z" />
<glyph unicode="&#xce;" horiz-adv-x="278" d="M-13 714l96 144h98l99 -145h-78l-70 74l-69 -73h-76zM51 674h152v-674h-138v613q0 1 -7 29.5t-7 31.5z" />
<glyph unicode="&#xcf;" horiz-adv-x="270" d="M-4 792q0 23 16.5 40t40.5 17t40.5 -17t16.5 -40q0 -24 -16.5 -40.5t-40.5 -16.5t-40.5 16.5t-16.5 40.5zM52 674h152v-674h-138v613q0 1 -7 29.5t-7 31.5zM156 792q0 23 17 40t40 17q24 0 41 -16.5t17 -40.5t-17 -40.5t-41 -16.5q-23 0 -40 16.5t-17 40.5z" />
<glyph unicode="&#xd0;" horiz-adv-x="729" d="M0 324v88h83v260q-2 3 -8.5 30.5t-7.5 29.5h277q166 0 259 -100t93 -267q0 -168 -103 -270q-95 -95 -250 -95h-260v324h-83zM221 99h116q55 0 97 21.5t66 59t36 83t12 98.5q0 72 -20 131t-69.5 100t-123.5 41h-114v-221h150v-88h-150v-225z" />
<glyph unicode="&#xd1;" horiz-adv-x="716" d="M52 674h147l305 -404q1 -1 41 -66q-6 50 -6 77v393h111v-679h-100l-337 444q-9 11 -23 35t-19 32q6 -46 6 -67v-439h-111v613q0 1 -7 29.5t-7 31.5zM199 723q0 50 28.5 83.5t77.5 33.5q30 0 71.5 -20t58.5 -20q15 0 27.5 8t12.5 22h65q0 -50 -28.5 -83.5t-77.5 -33.5 q-30 0 -71.5 20t-58.5 20q-15 0 -27.5 -8t-12.5 -22h-65z" />
<glyph unicode="&#xd2;" horiz-adv-x="763" d="M32 336q0 157 95.5 252.5t253.5 95.5t254 -95.5t96 -252.5t-96 -252.5t-253 -95.5q-158 0 -254 95.5t-96 252.5zM176 881h145l109 -164h-103zM178 337q0 -50 11.5 -94t35 -80.5t63.5 -57.5t92 -21q102 0 153 73t51 179q0 108 -50.5 180.5t-151.5 72.5q-102 0 -153 -73 t-51 -179z" />
<glyph unicode="&#xd3;" horiz-adv-x="763" d="M32 336q0 157 95.5 252.5t253.5 95.5t254 -95.5t96 -252.5t-96 -252.5t-253 -95.5q-158 0 -254 95.5t-96 252.5zM178 337q0 -50 11.5 -94t35 -80.5t63.5 -57.5t92 -21q102 0 153 73t51 179q0 108 -50.5 180.5t-151.5 72.5q-102 0 -153 -73t-51 -179zM329 715l109 164h145 l-151 -164h-103z" />
<glyph unicode="&#xd4;" horiz-adv-x="763" d="M32 336q0 157 95.5 252.5t253.5 95.5t254 -95.5t96 -252.5t-96 -252.5t-253 -95.5q-158 0 -254 95.5t-96 252.5zM178 337q0 -50 11.5 -94t35 -80.5t63.5 -57.5t92 -21q102 0 153 73t51 179q0 108 -50.5 180.5t-151.5 72.5q-102 0 -153 -73t-51 -179zM233 717l96 145h98 l99 -145h-78l-70 74l-69 -74h-76z" />
<glyph unicode="&#xd5;" horiz-adv-x="763" d="M32 336q0 157 95.5 252.5t253.5 95.5t254 -95.5t96 -252.5t-96 -252.5t-253 -95.5q-158 0 -254 95.5t-96 252.5zM178 337q0 -50 11.5 -94t35 -80.5t63.5 -57.5t92 -21q102 0 153 73t51 179q0 108 -50.5 180.5t-151.5 72.5q-102 0 -153 -73t-51 -179zM218 723 q0 50 29 83.5t78 33.5q30 0 71.5 -20t58.5 -20q15 0 27.5 8t12.5 22h65q0 -50 -28.5 -83.5t-77.5 -33.5q-30 0 -72 20t-58 20t-28.5 -7.5t-12.5 -22.5h-65z" />
<glyph unicode="&#xd6;" horiz-adv-x="763" d="M32 336q0 157 95.5 252.5t253.5 95.5t254 -95.5t96 -252.5t-96 -252.5t-253 -95.5q-158 0 -254 95.5t-96 252.5zM178 337q0 -50 11.5 -94t35 -80.5t63.5 -57.5t92 -21q102 0 153 73t51 179q0 108 -50.5 180.5t-151.5 72.5q-102 0 -153 -73t-51 -179zM240 792q0 23 17 40 t40 17q24 0 40.5 -17t16.5 -40q0 -24 -16.5 -40.5t-40.5 -16.5q-23 0 -40 16.5t-17 40.5zM400 792q0 23 17 40t40 17q24 0 41 -16.5t17 -40.5t-17 -40.5t-41 -16.5q-23 0 -40 16.5t-17 40.5z" />
<glyph unicode="&#xd7;" horiz-adv-x="488" d="M37 104l145 144l-145 145l62 62l145 -144l145 144l62 -62l-145 -145l145 -144l-62 -62l-145 144l-145 -144z" />
<glyph unicode="&#xd8;" horiz-adv-x="762" d="M32 367q0 166 91.5 271t254.5 105q100 0 179 -41l49 75l53 -33l-51 -77q122 -103 122 -302q0 -165 -95.5 -270.5t-257.5 -105.5q-101 0 -181 46l-59 -91l-53 31l63 97q-115 100 -115 295zM179 371q0 -116 40 -188l276 425q-47 40 -115 40q-55 0 -96 -24.5t-63 -66 t-32 -88t-10 -98.5zM258 131q51 -47 123 -47q55 0 96 24.5t63 65.5t32 87.5t10 99.5q0 121 -45 197z" />
<glyph unicode="&#xd9;" horiz-adv-x="694" d="M43 674h157v-429q0 -74 44 -117.5t117 -43.5q75 0 118 43t43 118v429h113v-405q0 -144 -78 -212t-210 -68q-140 0 -214 74.5t-74 214.5v336zM168 881h145l109 -165h-103z" />
<glyph unicode="&#xda;" horiz-adv-x="694" d="M43 674h157v-429q0 -74 44 -117.5t117 -43.5q75 0 118 43t43 118v429h113v-405q0 -144 -78 -212t-210 -68q-140 0 -214 74.5t-74 214.5v336zM312 716l109 165h146l-151 -165h-104z" />
<glyph unicode="&#xdb;" horiz-adv-x="694" d="M43 674h157v-429q0 -74 44 -117.5t117 -43.5q75 0 118 43t43 118v429h113v-405q0 -144 -78 -212t-210 -68q-140 0 -214 74.5t-74 214.5v336zM215 718l96 145h98l99 -145h-78l-70 74l-69 -74h-76z" />
<glyph unicode="&#xdc;" horiz-adv-x="694" d="M43 674h157v-429q0 -74 44 -117.5t117 -43.5q75 0 118 43t43 118v429h113v-405q0 -144 -78 -212t-210 -68q-140 0 -214 74.5t-74 214.5v336zM224 792q0 23 16.5 40t40.5 17t40.5 -17t16.5 -40q0 -24 -16.5 -40.5t-40.5 -16.5t-40.5 16.5t-16.5 40.5zM384 792q0 23 17 40 t40 17q24 0 41 -16.5t17 -40.5t-17 -40.5t-41 -16.5q-23 0 -40 16.5t-17 40.5z" />
<glyph unicode="&#xdd;" horiz-adv-x="563" d="M0 674h148l146 -273l150 273h120l-217 -400v-274h-133v274zM248 716l109 165h145l-151 -165h-103z" />
<glyph unicode="&#xde;" horiz-adv-x="565" d="M52 732h152v-115h78q120 0 193 -51.5t73 -167.5q0 -108 -76.5 -163.5t-187.5 -55.5h-82v-179h-137v671q0 1 -6.5 29.5t-6.5 31.5zM203 276h84q55 0 85 33.5t30 88.5q0 56 -29 88t-85 32h-85v-242z" />
<glyph unicode="&#xdf;" horiz-adv-x="608" d="M12 416v86q74 0 82 37q46 206 224 206q87 0 146 -43t59 -127q0 -45 -21.5 -75.5t-46.5 -42t-46.5 -24.5t-21.5 -27q0 -10 14.5 -19t36.5 -16.5t47.5 -22t47.5 -33t36.5 -51.5t14.5 -75q0 -91 -62 -145.5t-155 -54.5q-65 0 -130 30l39 77q47 -17 79 -17q36 0 65.5 27.5 t29.5 63.5q0 37 -11 60t-42 40q-8 4 -40.5 19t-52 25t-37.5 29.5t-18 40.5q0 28 14.5 48.5t35 33t41 26t35 35.5t14.5 53q0 27 -21.5 47.5t-48.5 20.5q-109 0 -109 -183v-465h-123v416h-75z" />
<glyph unicode="&#xe0;" d="M20 117q0 51 25 87.5t68 54t86 25t92 7.5v65q0 39 -16.5 54.5t-55.5 15.5q-53 0 -128 -58l-49 79q91 62 202 62q81 0 124 -41t43 -121v-217q0 -50 24 -50q5 0 50 12l21 -73q-88 -27 -116 -27q-30 0 -51 18.5t-28 48.5q-50 -70 -150 -70q-61 0 -101 34t-40 94zM46 755h145 l109 -165h-103zM145 129q0 -22 17.5 -35t40.5 -13q39 0 63.5 32.5t24.5 72.5v23q-146 0 -146 -80z" />
<glyph unicode="&#xe1;" d="M20 117q0 51 25 87.5t68 54t86 25t92 7.5v65q0 39 -16.5 54.5t-55.5 15.5q-53 0 -128 -58l-49 79q91 62 202 62q81 0 124 -41t43 -121v-217q0 -50 24 -50q5 0 50 12l21 -73q-88 -27 -116 -27q-30 0 -51 18.5t-28 48.5q-50 -70 -150 -70q-61 0 -101 34t-40 94zM145 129 q0 -22 17.5 -35t40.5 -13q39 0 63.5 32.5t24.5 72.5v23q-146 0 -146 -80zM192 590l109 165h145l-151 -165h-103z" />
<glyph unicode="&#xe2;" d="M20 117q0 51 25 87.5t68 54t86 25t92 7.5v65q0 39 -16.5 54.5t-55.5 15.5q-53 0 -128 -58l-49 79q91 62 202 62q81 0 124 -41t43 -121v-217q0 -50 24 -50q5 0 50 12l21 -73q-88 -27 -116 -27q-30 0 -51 18.5t-28 48.5q-50 -70 -150 -70q-61 0 -101 34t-40 94zM97 588 l96 145h98l99 -145h-78l-70 74l-69 -74h-76zM145 129q0 -22 17.5 -35t40.5 -13q39 0 63.5 32.5t24.5 72.5v23q-146 0 -146 -80z" />
<glyph unicode="&#xe3;" d="M20 117q0 51 25 87.5t68 54t86 25t92 7.5v65q0 39 -16.5 54.5t-55.5 15.5q-53 0 -128 -58l-49 79q91 62 202 62q81 0 124 -41t43 -121v-217q0 -50 24 -50q5 0 50 12l21 -73q-88 -27 -116 -27q-30 0 -51 18.5t-28 48.5q-50 -70 -150 -70q-61 0 -101 34t-40 94zM73 575 q0 50 28.5 83.5t77.5 33.5q30 0 71.5 -20t58.5 -20q15 0 27.5 8t13.5 22h64q0 -50 -28.5 -83.5t-77.5 -33.5q-30 0 -71.5 20t-58.5 20q-15 0 -27.5 -8t-12.5 -22h-65zM145 129q0 -22 17.5 -35t40.5 -13q39 0 63.5 32.5t24.5 72.5v23q-146 0 -146 -80z" />
<glyph unicode="&#xe4;" d="M20 117q0 51 25 87.5t68 54t86 25t92 7.5v65q0 39 -16.5 54.5t-55.5 15.5q-53 0 -128 -58l-49 79q91 62 202 62q81 0 124 -41t43 -121v-217q0 -50 24 -50q5 0 50 12l21 -73q-88 -27 -116 -27q-30 0 -51 18.5t-28 48.5q-50 -70 -150 -70q-61 0 -101 34t-40 94zM101 630 q0 24 16.5 40.5t40.5 16.5t40.5 -16.5t16.5 -40.5t-16.5 -40.5t-40.5 -16.5t-40.5 16.5t-16.5 40.5zM145 129q0 -22 17.5 -35t40.5 -13q39 0 63.5 32.5t24.5 72.5v23q-146 0 -146 -80zM261 630q0 23 17 40t40 17q24 0 41 -16.5t17 -40.5t-17 -40.5t-41 -16.5q-23 0 -40 17 t-17 40z" />
<glyph unicode="&#xe5;" d="M20 117q0 51 25 87.5t68 54t86 25t92 7.5v65q0 39 -16.5 54.5t-55.5 15.5q-53 0 -128 -58l-49 79q91 62 202 62q81 0 124 -41t43 -121v-217q0 -50 24 -50q5 0 50 12l21 -73q-88 -27 -116 -27q-30 0 -51 18.5t-28 48.5q-50 -70 -150 -70q-61 0 -101 34t-40 94zM133 658 q0 44 31.5 75.5t75.5 31.5t76 -31.5t32 -75.5t-32 -75.5t-76 -31.5t-75.5 31.5t-31.5 75.5zM145 129q0 -22 17.5 -35t40.5 -13q39 0 63.5 32.5t24.5 72.5v23q-146 0 -146 -80zM199 657q0 -17 11.5 -28.5t28.5 -11.5t29 11.5t12 28.5t-12 29t-29 12t-28.5 -12t-11.5 -29z" />
<glyph unicode="&#xe6;" horiz-adv-x="751" d="M20 124q0 52 25 89t67.5 55.5t86 26t92.5 7.5v54q0 39 -16.5 54.5t-55.5 15.5q-53 0 -128 -58l-49 79q91 62 202 62q94 0 133 -53q25 26 64.5 40.5t78.5 14.5q101 0 154 -62.5t53 -165.5q0 -60 -51 -60h-262q0 -61 35 -107.5t94 -46.5q68 0 121 53l51 -80 q-31 -26 -81.5 -39.5t-96.5 -13.5q-132 0 -195 84q-58 -84 -181 -84q-59 0 -100 38t-41 97zM145 134q0 -53 59 -53q87 0 87 142q-24 0 -47 -4t-46.5 -12.5t-38 -27.5t-14.5 -45zM417 302h168q16 0 16 22q0 104 -79 104q-45 0 -75 -40t-30 -86z" />
<glyph unicode="&#xe7;" horiz-adv-x="452" d="M27 249q0 117 70.5 189t186.5 72q37 0 79 -13t72 -35l-60 -76q-52 39 -102 39q-58 0 -86 -55t-28 -119q0 -45 11.5 -83.5t41.5 -67t76 -28.5q48 0 104 49l51 -86q-88 -47 -174 -47l-20 -36h4q44 0 77 -18.5t33 -59.5q0 -94 -135 -94q-41 0 -92 30l28 50q40 -22 67 -22 q16 0 27.5 9.5t11.5 23.5q0 29 -33 29h-47q-19 0 -19 17q0 5 3 10l39 66q-90 18 -138 86t-48 170z" />
<glyph unicode="&#xe8;" horiz-adv-x="491" d="M27 245q0 111 63 188.5t170 77.5q98 0 152.5 -58.5t54.5 -158.5q0 -60 -51 -60h-262q0 -64 34 -114.5t95 -50.5q68 0 121 53l51 -80q-32 -26 -82 -39.5t-96 -13.5q-116 0 -183 69.5t-67 186.5zM66 755h146l109 -165h-104zM157 313h168q17 0 17 22q0 41 -20.5 67.5 t-60.5 26.5t-71 -37t-33 -79z" />
<glyph unicode="&#xe9;" horiz-adv-x="491" d="M27 245q0 111 63 188.5t170 77.5q98 0 152.5 -58.5t54.5 -158.5q0 -60 -51 -60h-262q0 -64 34 -114.5t95 -50.5q68 0 121 53l51 -80q-32 -26 -82 -39.5t-96 -13.5q-116 0 -183 69.5t-67 186.5zM157 313h168q17 0 17 22q0 41 -20.5 67.5t-60.5 26.5t-71 -37t-33 -79z M220 590l109 165h145l-151 -165h-103z" />
<glyph unicode="&#xea;" horiz-adv-x="491" d="M27 245q0 111 63 188.5t170 77.5q98 0 152.5 -58.5t54.5 -158.5q0 -60 -51 -60h-262q0 -64 34 -114.5t95 -50.5q68 0 121 53l51 -80q-32 -26 -82 -39.5t-96 -13.5q-116 0 -183 69.5t-67 186.5zM127 589l96 144h98l99 -145h-78l-70 74l-69 -73h-76zM157 313h168 q17 0 17 22q0 41 -20.5 67.5t-60.5 26.5t-71 -37t-33 -79z" />
<glyph unicode="&#xeb;" horiz-adv-x="491" d="M27 245q0 111 63 188.5t170 77.5q98 0 152.5 -58.5t54.5 -158.5q0 -60 -51 -60h-262q0 -64 34 -114.5t95 -50.5q68 0 121 53l51 -80q-32 -26 -82 -39.5t-96 -13.5q-116 0 -183 69.5t-67 186.5zM129 629q0 24 17 40.5t40 16.5q24 0 40.5 -16.5t16.5 -40.5t-16.5 -40.5 t-40.5 -16.5q-23 0 -40 16.5t-17 40.5zM157 313h168q17 0 17 22q0 41 -20.5 67.5t-60.5 26.5t-71 -37t-33 -79zM289 629q0 23 17 40t40 17q24 0 41 -16.5t17 -40.5t-17 -40.5t-41 -16.5q-23 0 -40 17t-17 40z" />
<glyph unicode="&#xec;" horiz-adv-x="229" d="M-79 755h145l109 -165h-103zM44 497h131v-497h-120v443q0 1 -5.5 26t-5.5 28z" />
<glyph unicode="&#xed;" horiz-adv-x="229" d="M44 497h131v-497h-120v443q0 1 -5.5 26t-5.5 28zM45 590l109 165h145l-151 -165h-103z" />
<glyph unicode="&#xee;" horiz-adv-x="229" d="M-32 588l96 145h98l99 -145h-78l-70 74l-69 -74h-76zM44 497h131v-497h-120v443q0 1 -5.5 26t-5.5 28z" />
<glyph unicode="&#xef;" horiz-adv-x="229" d="M-22 630q0 24 16.5 40.5t40.5 16.5t40.5 -16.5t16.5 -40.5t-16.5 -40.5t-40.5 -16.5t-40.5 16.5t-16.5 40.5zM44 497h131v-497h-120v443q0 1 -5.5 26t-5.5 28zM138 630q0 23 17 40t40 17q24 0 41 -16.5t17 -40.5t-17 -40.5t-41 -16.5q-23 0 -40 17t-17 40z" />
<glyph unicode="&#xf0;" horiz-adv-x="540" d="M27 249q0 111 66.5 186t175.5 75q10 0 32 -2q-44 75 -72 111l-93 -51l-45 58l92 51l-52 54l88 52q26 -25 56 -55l100 55l40 -60l-91 -51q187 -225 187 -423q0 -111 -66 -185.5t-176 -74.5t-176 74.5t-66 185.5zM159 248q0 -42 7.5 -78t34 -67t68.5 -31q33 0 56 16.5 t34 44.5t15.5 56t4.5 59t-4.5 59t-15.5 57t-34 46.5t-56 17.5q-32 0 -55 -18t-34.5 -47t-16 -57t-4.5 -58z" />
<glyph unicode="&#xf1;" horiz-adv-x="521" d="M27 493l126 15q12 -26 17 -64q74 67 152 67q81 0 114.5 -45t33.5 -130v-336h-121v324q0 28 -3 45t-17.5 32t-42.5 15q-22 0 -56.5 -18.5t-51.5 -36.5v-361h-120v356q0 100 -31 137zM106 581q0 50 28.5 83.5t77.5 33.5q30 0 71.5 -20t58.5 -20q14 0 27 8t14 22h64 q0 -50 -28.5 -83.5t-77.5 -33.5q-30 0 -71.5 20t-58.5 20q-15 0 -27.5 -8t-12.5 -22h-65z" />
<glyph unicode="&#xf2;" horiz-adv-x="538" d="M27 249q0 111 66.5 186t175.5 75q110 0 176 -75t66 -186t-66 -186t-176 -75t-176 75t-66 186zM72 755h145l109 -165h-103zM159 248q0 -30 4.5 -58t16 -57t34.5 -47t55 -18q33 0 56 17.5t34 46.5t15.5 57t4.5 59t-4.5 59t-15.5 57t-34 46.5t-56 17.5q-32 0 -55 -18 t-34.5 -47t-16 -57t-4.5 -58z" />
<glyph unicode="&#xf3;" horiz-adv-x="538" d="M27 249q0 111 66.5 186t175.5 75q110 0 176 -75t66 -186t-66 -186t-176 -75t-176 75t-66 186zM159 248q0 -30 4.5 -58t16 -57t34.5 -47t55 -18q33 0 56 17.5t34 46.5t15.5 57t4.5 59t-4.5 59t-15.5 57t-34 46.5t-56 17.5q-32 0 -55 -18t-34.5 -47t-16 -57t-4.5 -58z M221 590l109 165h145l-151 -165h-103z" />
<glyph unicode="&#xf4;" horiz-adv-x="538" d="M27 249q0 111 66.5 186t175.5 75q110 0 176 -75t66 -186t-66 -186t-176 -75t-176 75t-66 186zM121 589l96 144h98l99 -145h-78l-70 74l-69 -73h-76zM159 248q0 -30 4.5 -58t16 -57t34.5 -47t55 -18q33 0 56 17.5t34 46.5t15.5 57t4.5 59t-4.5 59t-15.5 57t-34 46.5 t-56 17.5q-32 0 -55 -18t-34.5 -47t-16 -57t-4.5 -58z" />
<glyph unicode="&#xf5;" horiz-adv-x="538" d="M27 249q0 111 66.5 186t175.5 75q110 0 176 -75t66 -186t-66 -186t-176 -75t-176 75t-66 186zM107 575q0 50 28.5 83.5t77.5 33.5q30 0 71.5 -20t58.5 -20q15 0 27.5 8t13.5 22h64q0 -50 -28.5 -83.5t-77.5 -33.5q-30 0 -71.5 20t-58.5 20q-15 0 -27.5 -8t-12.5 -22h-65z M159 248q0 -30 4.5 -58t16 -57t34.5 -47t55 -18q33 0 56 17.5t34 46.5t15.5 57t4.5 59t-4.5 59t-15.5 57t-34 46.5t-56 17.5q-32 0 -55 -18t-34.5 -47t-16 -57t-4.5 -58z" />
<glyph unicode="&#xf6;" horiz-adv-x="538" d="M27 249q0 111 66.5 186t175.5 75q110 0 176 -75t66 -186t-66 -186t-176 -75t-176 75t-66 186zM130 629q0 24 16.5 40.5t40.5 16.5t40.5 -16.5t16.5 -40.5t-16.5 -40.5t-40.5 -16.5t-40.5 16.5t-16.5 40.5zM159 248q0 -30 4.5 -58t16 -57t34.5 -47t55 -18q33 0 56 17.5 t34 46.5t15.5 57t4.5 59t-4.5 59t-15.5 57t-34 46.5t-56 17.5q-32 0 -55 -18t-34.5 -47t-16 -57t-4.5 -58zM290 629q0 23 17 40t40 17q24 0 41 -16.5t17 -40.5t-17 -40.5t-41 -16.5q-23 0 -40 17t-17 40z" />
<glyph unicode="&#xf7;" horiz-adv-x="570" d="M36 204v88h498v-88h-498zM208 66q0 32 22.5 54.5t55.5 22.5q32 0 54.5 -22.5t22.5 -54.5q0 -33 -22.5 -55.5t-54.5 -22.5t-55 23t-23 55zM208 431q0 32 22.5 55t54.5 23t54.5 -23t22.5 -55t-22.5 -54.5t-54.5 -22.5t-54.5 22.5t-22.5 54.5z" />
<glyph unicode="&#xf8;" horiz-adv-x="538" d="M27 249q0 111 67 186t176 75q60 0 111 -25l54 86l49 -26l-57 -91q85 -73 85 -205q0 -112 -66 -186.5t-176 -74.5q-65 0 -115 27l-65 -106l-45 34l64 104q-82 75 -82 202zM160 248q0 -60 13 -98l159 255q-24 23 -62 23q-32 0 -55 -18t-34.5 -47t-16 -57t-4.5 -58zM205 95 q27 -27 65 -27q33 0 56 17.5t33.5 46.5t15 57t4.5 59q0 63 -14 105z" />
<glyph unicode="&#xf9;" horiz-adv-x="551" d="M41 497h133v-315q0 -21 2 -36t8 -31t20 -24.5t35 -8.5q44 0 75 27t31 70v264q0 1 -6 26t-6 28h134v-365q0 -52 25 -52q2 0 47 12l21 -73q-6 -2 -27.5 -8.5t-31.5 -9.5t-27 -6t-31 -3q-30 0 -51 18.5t-27 48.5q-71 -73 -164 -73q-82 0 -115.5 45.5t-33.5 129.5v282z M53 755h145l109 -165h-103z" />
<glyph unicode="&#xfa;" horiz-adv-x="551" d="M41 497h133v-315q0 -21 2 -36t8 -31t20 -24.5t35 -8.5q44 0 75 27t31 70v264q0 1 -6 26t-6 28h134v-365q0 -52 25 -52q2 0 47 12l21 -73q-6 -2 -27.5 -8.5t-31.5 -9.5t-27 -6t-31 -3q-30 0 -51 18.5t-27 48.5q-71 -73 -164 -73q-82 0 -115.5 45.5t-33.5 129.5v282z M203 590l109 165h145l-151 -165h-103z" />
<glyph unicode="&#xfb;" horiz-adv-x="551" d="M41 497h133v-315q0 -21 2 -36t8 -31t20 -24.5t35 -8.5q44 0 75 27t31 70v264q0 1 -6 26t-6 28h134v-365q0 -52 25 -52q2 0 47 12l21 -73q-6 -2 -27.5 -8.5t-31.5 -9.5t-27 -6t-31 -3q-30 0 -51 18.5t-27 48.5q-71 -73 -164 -73q-82 0 -115.5 45.5t-33.5 129.5v282z M110 589l96 145h98l99 -145h-78l-70 74l-69 -74h-76z" />
<glyph unicode="&#xfc;" horiz-adv-x="551" d="M41 497h133v-315q0 -21 2 -36t8 -31t20 -24.5t35 -8.5q44 0 75 27t31 70v264q0 1 -6 26t-6 28h134v-365q0 -52 25 -52q2 0 47 12l21 -73q-6 -2 -27.5 -8.5t-31.5 -9.5t-27 -6t-31 -3q-30 0 -51 18.5t-27 48.5q-71 -73 -164 -73q-82 0 -115.5 45.5t-33.5 129.5v282z M125 633q0 24 16.5 40.5t40.5 16.5t40.5 -16.5t16.5 -40.5t-16.5 -40.5t-40.5 -16.5t-40.5 16.5t-16.5 40.5zM285 633q0 23 17 40t40 17q24 0 41 -16.5t17 -40.5t-17 -40.5t-41 -16.5q-23 0 -40 17t-17 40z" />
<glyph unicode="&#xfd;" horiz-adv-x="465" d="M2 497h129q10 -27 44.5 -124.5t52.5 -151.5q4 -13 8.5 -40.5t5.5 -34.5q11 64 14 75q13 41 29 87t36 102t31 87h110l-177 -500q-74 -218 -217 -218h-37v85q12 -3 26 -3q27 0 48 12.5t36 36t23.5 43.5t17.5 48zM193 590l109 165h145l-151 -165h-103z" />
<glyph unicode="&#xfe;" horiz-adv-x="543" d="M43 768h131v-311q61 51 139 51q95 0 149 -79t54 -178q0 -110 -63.5 -186.5t-171.5 -76.5q-62 0 -107 30v-235h-120v932q0 3 -5.5 27t-5.5 26zM174 205q0 -57 25 -96t79 -39q30 0 52.5 17.5t33.5 45.5t16 56t5 56q0 38 -10 74.5t-37 66.5t-66 30q-55 0 -98 -48v-163z" />
<glyph unicode="&#xff;" horiz-adv-x="465" d="M2 497h129q10 -27 44.5 -124.5t52.5 -151.5q4 -13 8.5 -40.5t5.5 -34.5q11 64 14 75q13 41 29 87t36 102t31 87h110l-177 -500q-74 -218 -217 -218h-37v85q12 -3 26 -3q27 0 48 12.5t36 36t23.5 43.5t17.5 48zM112 635q0 24 16.5 40.5t40.5 16.5t40.5 -16.5t16.5 -40.5 t-16.5 -40.5t-40.5 -16.5t-40.5 16.5t-16.5 40.5zM272 635q0 23 17 40t40 17q24 0 41 -16.5t17 -40.5t-17 -40.5t-41 -16.5q-23 0 -40 17t-17 40z" />
<glyph unicode="&#x152;" horiz-adv-x="1067" d="M32 366q0 165 93 271t256 106q124 0 212 -63v52h445v-99h-308v-207h236v-99h-236v-228h308v-99h-445v54q-89 -65 -212 -65q-163 0 -256 106t-93 271zM179 366q0 -53 10 -99.5t32 -88t63 -66t97 -24.5q55 0 96 24.5t63 66t32.5 88t10.5 99.5t-10 99.5t-32 88t-63 66 t-97 24.5q-55 0 -96 -25t-63 -66.5t-32.5 -88.5t-10.5 -98z" />
<glyph unicode="&#x153;" horiz-adv-x="843" d="M27 249q0 111 66.5 186t175.5 75q110 0 175 -74q62 75 168 75q98 0 152.5 -58.5t54.5 -158.5q0 -60 -51 -60h-262q0 -64 33.5 -113t95.5 -49q68 0 121 53l51 -83q-32 -26 -82 -39.5t-96 -13.5q-119 0 -186 73q-64 -73 -174 -73t-176 74.5t-66 185.5zM159 248 q0 -42 7.5 -78t34 -67t68.5 -31q33 0 56 16.5t34 44.5t15.5 56t4.5 59t-4.5 59t-15.5 57t-34 46.5t-56 17.5q-32 0 -55 -18t-34.5 -47t-16 -57t-4.5 -58zM509 313h168q17 0 17 22q0 41 -20.5 67.5t-60.5 26.5t-71 -37t-33 -79z" />
<glyph unicode="&#x178;" horiz-adv-x="563" d="M0 674h148l146 -273l150 273h120l-217 -400v-274h-133v274zM159 792q0 23 16.5 40t40.5 17t40.5 -17t16.5 -40q0 -24 -16.5 -40.5t-40.5 -16.5t-40.5 16.5t-16.5 40.5zM319 792q0 23 16.5 40t40.5 17t41 -16.5t17 -40.5t-17 -40.5t-41 -16.5t-40.5 16.5t-16.5 40.5z" />
<glyph unicode="&#x2c6;" horiz-adv-x="275" d="M-8 588l96 145h98l99 -145h-78l-70 74l-69 -74h-76z" />
<glyph unicode="&#x2dc;" horiz-adv-x="353" d="M8 575q0 50 28.5 83.5t77.5 33.5q30 0 71.5 -20t58.5 -20q14 0 27 8t14 22h64q0 -50 -28.5 -83.5t-77.5 -33.5q-30 0 -71.5 20t-58.5 20q-15 0 -27.5 -8t-12.5 -22h-65z" />
<glyph unicode="&#x2000;" horiz-adv-x="467" />
<glyph unicode="&#x2001;" horiz-adv-x="935" />
<glyph unicode="&#x2002;" horiz-adv-x="467" />
<glyph unicode="&#x2003;" horiz-adv-x="935" />
<glyph unicode="&#x2004;" horiz-adv-x="311" />
<glyph unicode="&#x2005;" horiz-adv-x="233" />
<glyph unicode="&#x2006;" horiz-adv-x="155" />
<glyph unicode="&#x2007;" horiz-adv-x="155" />
<glyph unicode="&#x2008;" horiz-adv-x="116" />
<glyph unicode="&#x2009;" horiz-adv-x="187" />
<glyph unicode="&#x200a;" horiz-adv-x="51" />
<glyph unicode="&#x2010;" horiz-adv-x="337" d="M58 210v95h221v-95h-221z" />
<glyph unicode="&#x2011;" horiz-adv-x="337" d="M58 210v95h221v-95h-221z" />
<glyph unicode="&#x2012;" horiz-adv-x="337" d="M58 210v95h221v-95h-221z" />
<glyph unicode="&#x2013;" horiz-adv-x="592" d="M58 211v94h476v-94h-476z" />
<glyph unicode="&#x2014;" horiz-adv-x="942" d="M58 211v94h826v-94h-826z" />
<glyph unicode="&#x2018;" horiz-adv-x="222" d="M33 559q0 101 109 180q20 -20 39 -41q-46 -46 -46 -73q0 -10 7 -17l17 -16q24 -24 24 -56q0 -29 -20 -49.5t-49 -20.5q-37 0 -59 27.5t-22 65.5z" />
<glyph unicode="&#x2019;" horiz-adv-x="221" d="M41 675q0 30 19.5 50t49.5 20q37 0 59 -27.5t22 -65.5q0 -98 -109 -180q-20 20 -39 41q46 46 46 73q0 11 -7 18l-17 16q-24 24 -24 55z" />
<glyph unicode="&#x201a;" horiz-adv-x="231" d="M40 69q0 29 20 49.5t49 20.5q37 0 59 -27.5t22 -65.5q0 -101 -109 -180q-20 20 -39 41q46 46 46 73q0 8 -8 16l-16 17q-24 24 -24 56z" />
<glyph unicode="&#x201c;" horiz-adv-x="424" d="M33 559q0 101 109 180q20 -20 39 -41q-46 -46 -46 -73q0 -10 7 -17l17 -16q24 -24 24 -56q0 -29 -20 -49.5t-49 -20.5q-37 0 -59 27.5t-22 65.5zM235 559q0 101 109 180q20 -20 39 -41q-46 -46 -46 -73q0 -10 7 -17l17 -16q24 -24 24 -56q0 -29 -20 -49.5t-49 -20.5 q-37 0 -59 27.5t-22 65.5z" />
<glyph unicode="&#x201d;" horiz-adv-x="423" d="M41 675q0 29 20 49.5t49 20.5q37 0 59 -27.5t22 -65.5q0 -98 -109 -180q-20 20 -39 41q46 46 46 73q0 11 -7 18l-17 16q-24 24 -24 55zM243 675q0 29 20 49.5t49 20.5q37 0 59 -27.5t22 -65.5q0 -98 -109 -180q-20 20 -39 41q46 46 46 73q0 11 -7 18l-17 16 q-24 24 -24 55z" />
<glyph unicode="&#x201e;" horiz-adv-x="433" d="M40 69q0 29 20 49.5t49 20.5q37 0 59 -27.5t22 -65.5q0 -101 -109 -180q-20 20 -39 41q46 46 46 73q0 8 -8 16l-16 17q-24 24 -24 56zM242 69q0 29 20 49.5t49 20.5q37 0 59 -27.5t22 -65.5q0 -101 -109 -180q-20 20 -39 41q46 46 46 73q0 8 -8 16l-16 17q-24 24 -24 56z " />
<glyph unicode="&#x2022;" horiz-adv-x="422" d="M55 357q0 64 46 110t110 46q66 0 111 -45t45 -111t-45 -111t-110 -45q-66 0 -111.5 45t-45.5 111z" />
<glyph unicode="&#x2026;" horiz-adv-x="728" d="M39 65q0 33 22.5 55.5t54.5 22.5t55 -23t23 -55t-22.5 -54.5t-55.5 -22.5q-32 0 -54.5 22.5t-22.5 54.5zM287 65q0 32 22.5 55t54.5 23t54.5 -23t22.5 -55t-22.5 -54.5t-54.5 -22.5t-54.5 22.5t-22.5 54.5zM534 65q0 32 23 55t55 23t54.5 -22.5t22.5 -55.5 q0 -32 -22.5 -54.5t-54.5 -22.5q-33 0 -55.5 22.5t-22.5 54.5z" />
<glyph unicode="&#x202f;" horiz-adv-x="187" />
<glyph unicode="&#x2039;" horiz-adv-x="300" d="M33 332l152 172l77 -14l-119 -158l122 -159l-76 -11z" />
<glyph unicode="&#x203a;" horiz-adv-x="299" d="M35 173l122 159l-120 158l77 14l152 -172l-156 -170z" />
<glyph unicode="&#x205f;" horiz-adv-x="233" />
<glyph unicode="&#x20ac;" horiz-adv-x="535" d="M27 182l11 47h69q-1 5 -1 15v31q0 11 1 16h-55l9 47h54q22 85 86 135t162 50q69 0 127 -23l-21 -93q-44 32 -103 32q-101 0 -123 -101h211l-11 -47h-207v-45q0 -12 1 -17h193l-11 -47h-173q29 -108 122 -108q57 0 101 32l31 -86q-63 -31 -138 -31q-103 0 -166 52t-82 141 h-87z" />
<glyph unicode="&#x2122;" horiz-adv-x="578" d="M54 686v47h203v-47h-72v-189h-60v189h-71zM269 497v236h74l52 -137l51 136h73v-235h-59v128l-51 -128h-36q-27 67 -52 134v-134h-52z" />
<glyph unicode="&#x25fc;" horiz-adv-x="495" d="M0 0v495h495v-495h-495z" />
<glyph unicode="&#xfb01;" horiz-adv-x="562" d="M8 417v69q21 0 37 5.5t24.5 10.5t16 20t9.5 21.5t6.5 27t5.5 25.5q22 87 72 133t140 46q137 0 192 -145l-113 -30q-6 42 -30 68t-50 26q-33 0 -54.5 -14t-32 -43t-15 -60.5t-5.5 -79.5h297v-497h-120v417h-177v-417h-121v417h-82z" />
<glyph unicode="&#xfb02;" horiz-adv-x="563" d="M8 417v69q47 0 66 25.5t33 84.5q20 87 65.5 132.5t140.5 45.5q47 0 99 -29l97 34v-779h-122v616q0 31 -20 54.5t-56 23.5q-101 0 -101 -191v-6h122l-23 -80h-99v-417h-120v417h-82z" />
</font>
</defs>
</svg>
