<?xml version="1.0" standalone="no"?>
<!DOCTYPE svg PUBLIC "-//W3C//DTD SVG 1.1//EN" "http://www.w3.org/Graphics/SVG/1.1/DTD/svg11.dtd" >
<svg xmlns="http://www.w3.org/2000/svg">
<metadata></metadata>
<defs>
<font id="exoblack" horiz-adv-x="667" >
<font-face units-per-em="1000" ascent="800" descent="-200" />
<missing-glyph horiz-adv-x="250" />
<glyph unicode="&#xfb01;" horiz-adv-x="644" d="M11 397v117l72 17v29q0 94 63.5 158.5t170.5 67.5q56 1 149.5 -5t119.5 -19v-111l-193 1q-23 0 -40 -3.5t-36 -13t-29.5 -31t-10.5 -54.5v-19l336 -10v-521h-194v397h-142v-397h-194v397h-72z" />
<glyph unicode="&#xfb02;" horiz-adv-x="726" d="M11 397v117l72 17v39q0 67 17.5 111.5t50.5 66.5t69.5 30t86.5 8l322 -3v-554q0 -33 5 -53t12 -27.5t20 -14.5q42 -21 49 -21v-113h-138q-73 0 -107.5 43t-34.5 146v462l-92 1q-37 0 -51.5 -17.5t-14.5 -64.5v-39h98v-134h-98v-397h-194v397h-72z" />
<glyph horiz-adv-x="0" />
<glyph unicode="&#xd;" horiz-adv-x="562" />
<glyph unicode=" "  horiz-adv-x="250" />
<glyph unicode="&#x09;" horiz-adv-x="250" />
<glyph unicode="&#xa0;" horiz-adv-x="250" />
<glyph unicode="!" horiz-adv-x="277" d="M46 731h184l-21 -535h-146zM54 23v117q0 25 24 25h115q23 0 23 -25v-117q0 -23 -23 -23h-115q-24 0 -24 23z" />
<glyph unicode="&#x22;" horiz-adv-x="497" d="M48 665v67h184v-67l-10 -134h-162zM266 665v67h184v-67l-10 -134h-164z" />
<glyph unicode="#" horiz-adv-x="749" d="M11 192l20 132h147l16 85h-149l21 132h154l37 191h132l-37 -191h88l36 191h132l-36 -191h167l-19 -132h-168l-16 -86h168l-18 -132h-180l-37 -191h-132l37 191l-89 1l-37 -192h-132l37 192h-142zM310 324l94 -1l16 86h-94z" />
<glyph unicode="$" horiz-adv-x="566" d="M31 479v61q0 101 55 148t147 50v86h108v-86q86 -4 168 -33v-151q-91 10 -210 10q-44 0 -59 -7t-15 -37v-11q0 -26 11 -37t49 -11h64q44 0 78 -14.5t54 -37t33 -52t17.5 -55.5t4.5 -53v-33q0 -220 -195 -224v-82h-108v82q-13 0 -24.5 0.5t-20 1t-18.5 1.5t-15.5 1.5t-15 3 t-13.5 3.5t-16 4.5t-15.5 5t-19 6.5t-21.5 7v151q110 -11 229 -11q32 0 45.5 9.5t13.5 31.5v16q0 23 -11 33.5t-42 10.5h-60q-54 0 -93.5 18t-58.5 42t-30.5 57.5t-13.5 53.5t-2 41z" />
<glyph unicode="%" horiz-adv-x="968" d="M24 484v113q0 66 33 100.5t106 34.5h101q137 0 137 -135v-113q0 -66 -33 -100.5t-106 -34.5h-101q-137 0 -137 135zM149 514q0 -20 7 -30t30 -10h51q23 0 31 10.5t8 29.5v53q0 24 -8.5 32t-28.5 8h-51q-19 0 -29 -8t-10 -32v-53zM192 0l454 732h124l-447 -732h-131z M568 138v113q0 66 32.5 100.5t105.5 34.5h102q137 0 137 -135v-113q0 -66 -33 -100.5t-106 -34.5h-102q-136 0 -136 135zM693 168q0 -20 7 -30t30 -10h50q40 0 40 40v53q0 24 -9 32t-29 8h-50q-19 0 -29 -8t-10 -32v-53z" />
<glyph unicode="&#x26;" horiz-adv-x="715" d="M55 82q-48 80 -32 155t83 135l56 50l-42 65q-38 56 -32 107.5t40.5 89.5t78.5 46q35 6 72 7.5t58.5 0.5t61 -8t47 -8.5t47.5 -11.5v-144h-133q-33 0 -42.5 -10.5t-3 -25.5t25.5 -42l114 -160l128 110l70 -88l-67 -108l-35 -43l153 -199h-228l-61 84l-60 -51 q-31 -26 -85 -36t-116 10.5t-98 74.5zM212 194q35 -42 72 -4l26 27l-56 73l-30 -29q-37 -35 -12 -67z" />
<glyph unicode="'" horiz-adv-x="256" d="M31 665v67h195v-67l-10 -134h-174z" />
<glyph unicode="(" horiz-adv-x="413" d="M42 326q0 102 19.5 195t47 152t55.5 103.5t48 63.5l19 20h171q-7 -10 -18 -28t-39.5 -76t-50.5 -117.5t-40 -145.5t-18 -167q0 -88 17 -176t41.5 -150t49 -111.5t41.5 -74.5l17 -24h-171q-8 6 -20.5 17.5t-45 57t-57.5 101t-45.5 152.5t-20.5 208z" />
<glyph unicode=")" horiz-adv-x="413" d="M11 -210q7 9 18 25.5t39.5 71.5t50.5 114t40 148t18 177q0 81 -17 166t-41.5 148t-49 114.5t-41.5 78.5l-17 27h171q8 -7 20.5 -20.5t45 -62t57.5 -105t45.5 -150.5t20.5 -196q0 -81 -10.5 -154.5t-27 -126t-36.5 -97t-40.5 -73t-37 -48.5t-27.5 -29l-10 -8h-171z" />
<glyph unicode="*" horiz-adv-x="418" d="M28 566v70l139 19l5 -94zM76 418l25 138l91 -24l-49 -135zM157 722l67 22l61 -126l-88 -34zM176 459l51 79l114 -89l-42 -56zM230 571l119 81l41 -57l-101 -97z" />
<glyph unicode="+" horiz-adv-x="456" d="M20 279v154h130v131h154v-131h132v-154h-132v-131h-154v131h-130z" />
<glyph unicode="," horiz-adv-x="255" d="M48 25v114q0 27 25 27h111q24 0 24 -27v-150q0 -35 -16 -55.5t-38.5 -25.5t-45.5 -4.5t-39 4.5l-16 4v62q20 -1 25.5 5t5.5 16v5h-11q-25 0 -25 25z" />
<glyph unicode="-" horiz-adv-x="354" d="M20 213v154h314v-154h-314z" />
<glyph unicode="." horiz-adv-x="257" d="M48 23v117q0 25 24 25h113q25 0 25 -25v-117q0 -23 -25 -23h-113q-24 0 -24 23z" />
<glyph unicode="/" horiz-adv-x="502" d="M11 -72l281 842h199l-281 -842h-199z" />
<glyph unicode="0" horiz-adv-x="621" d="M39 192v338q0 98 50 150t144 52h164q185 0 185 -192v-348q0 -90 -48.5 -141t-137.5 -51h-164q-96 0 -144.5 50t-48.5 142zM233 233q0 -26 10.5 -40t21 -16.5t25.5 -2.5h42q29 0 42.5 10.5t13.5 47.5v268q0 58 -48 58h-57q-50 0 -50 -58v-267z" />
<glyph unicode="1" horiz-adv-x="379" d="M22 528v123l120 81h192v-732h-194v548z" />
<glyph unicode="2" horiz-adv-x="582" d="M22 567v145q137 30 304 30q113 0 170.5 -65t57.5 -175q0 -48 -22 -99t-62 -98.5t-65 -72.5t-61 -58h210v-174h-524v168q88 58 209 170t121 161q0 43 -24 55.5t-90 12.5h-224z" />
<glyph unicode="3" horiz-adv-x="575" d="M17 560v146q41 14 98 21t112.5 7.5t117.5 -0.5q85 -2 137 -50t52 -135v-39q0 -116 -84 -146q84 -27 84 -154v-29q0 -90 -52 -139t-144 -49h-37h-39.5t-35.5 0.5t-38.5 1t-33.5 2t-36 3.5t-32 5t-34 7t-29 9l1 147h218q63 0 80.5 7.5t17.5 40.5v9q0 32 -18.5 40t-73.5 11 l-163 7v158l163 10q27 1 37 2t25 3.5t19.5 7.5t8.5 13.5t4 22.5v9q0 18 -6.5 29t-22 15.5t-28 5.5t-37.5 1h-231z" />
<glyph unicode="4" horiz-adv-x="635" d="M11 224l211 508h208l-157 -417h97v134l27 78h167v-212h60v-149l-60 -29v-135h-194v135h-325z" />
<glyph unicode="5" horiz-adv-x="592" d="M43 20v155h264q22 0 35 4.5t18 15t5.5 16t0.5 17.5v31q0 27 -10.5 40t-37.5 13h-44q-24 0 -34 -10.5t-10 -34.5h-186l22 465h463v-174h-274l-4 -102q28 17 65 20q38 3 76 0q84 -7 126 -60t42 -136v-94q0 -95 -60 -142.5t-143 -47.5q-103 0 -161.5 4t-152.5 20z" />
<glyph unicode="6" horiz-adv-x="597" d="M37 384q0 95 14 163.5t39.5 106t53.5 55.5t65 24q134 21 332 -21v-148h-219q-33 0 -52.5 -8.5t-27.5 -29t-9.5 -37.5t-1.5 -52q26 14 56 17.5t97 3.5q102 0 141.5 -49t39.5 -140v-91q0 -179 -191 -179h-138q-39 0 -68 9.5t-54.5 35t-42 68.5t-25.5 111t-9 161zM231 294 q0 -78 15 -99.5t65 -21.5h17q25 0 34 9.5t9 36.5v20q0 35 -6 45t-32 10h-102z" />
<glyph unicode="7" horiz-adv-x="561" d="M17 558v174h481l47 -78l-229 -654h-206l198 558h-291z" />
<glyph unicode="8" horiz-adv-x="617" d="M42 179v53q0 43 17.5 77t56.5 40q-21 11 -36 25t-22 26t-11 31.5t-4.5 31.5t-0.5 36v65q0 173 196 173h156q92 0 137 -40.5t45 -133.5v-44q0 -19 -4.5 -40.5t-22.5 -46.5t-48 -29q75 -14 75 -142v-76q0 -59 -14 -97.5t-42 -56.5t-57 -24.5t-70 -6.5h-155q-39 0 -70.5 7 t-51.5 17t-34.5 26.5t-22 31t-11.5 34.5t-5 32.5t-1 30.5zM236 210q0 -26 10.5 -36t36.5 -10h52q30 0 38.5 10.5t8.5 35.5v40q0 23 -9 35t-36 12h-54q-29 0 -38 -11.5t-9 -35.5v-40zM236 494q0 -28 10 -36t37 -8h52q31 0 39 9.5t8 34.5v30q0 17 -3.5 27.5t-11.5 15t-14 5.5 t-18 1h-52q-26 0 -36.5 -8.5t-10.5 -40.5v-30z" />
<glyph unicode="9" horiz-adv-x="597" d="M34 463v91q0 179 191 179h138q39 0 68 -9.5t54.5 -35t42 -68.5t25.5 -111t9 -161q0 -95 -14 -163.5t-39.5 -106t-53.5 -55.5t-65 -24q-134 -21 -332 21v148h219q33 0 52.5 8.5t27.5 29t9.5 37.5t1.5 52q-26 -14 -56 -17.5t-97 -3.5q-102 0 -141.5 49t-39.5 140zM228 493 q0 -35 6 -45t32 -10h102q0 78 -15 99.5t-65 21.5h-17q-25 0 -34 -9.5t-9 -36.5v-20z" />
<glyph unicode=":" horiz-adv-x="257" d="M48 23v117q0 25 24 25h113q25 0 25 -25v-117q0 -23 -25 -23h-113q-24 0 -24 23zM48 389v117q0 25 24 25h113q25 0 25 -25v-117q0 -23 -25 -23h-113q-24 0 -24 23z" />
<glyph unicode=";" horiz-adv-x="257" d="M48 25v114q0 27 25 27h111q24 0 24 -27v-150q0 -35 -16 -55.5t-38.5 -25.5t-45.5 -4.5t-39 4.5l-16 4v62q20 -1 25.5 5t5.5 16v5h-11q-25 0 -25 25zM48 389v117q0 25 24 25h113q25 0 25 -25v-117q0 -23 -25 -23h-113q-24 0 -24 23z" />
<glyph unicode="&#x3c;" horiz-adv-x="431" d="M28 266v170l375 130v-170l-185 -43l185 -53v-170z" />
<glyph unicode="=" horiz-adv-x="467" d="M20 162v154h427v-154h-427zM20 381v154h427v-154h-427z" />
<glyph unicode="&#x3e;" horiz-adv-x="431" d="M28 130v170l185 53l-185 43v170l375 -130v-170z" />
<glyph unicode="?" horiz-adv-x="544" d="M11 564v145q136 36 282 30q107 0 168 -62t61 -143v-51q0 -108 -47 -159.5t-166 -47.5v-81h-145v222h92q39 2 56 17t17 53v15q0 62 -87 62h-231zM155 23v117q0 25 24 25h113q25 0 25 -25v-117q0 -23 -25 -23h-113q-24 0 -24 23z" />
<glyph unicode="@" horiz-adv-x="888" d="M37 20v268q0 102 56.5 163t181.5 61h173q34 0 57.5 -2.5t51.5 -12t44.5 -27t28 -50t11.5 -78.5v-342h-118l-24 54l-6 -6q-6 -7 -17 -16.5t-26 -18.5t-38.5 -15.5t-48.5 -6.5q-65 0 -96.5 44t-31.5 103v33q0 143 159 143h103q1 15 0 16q0 24 -9.5 31t-34.5 7h-178 q-44 0 -69 -18t-25 -72v-238q0 -61 28.5 -87t65.5 -26h319q58 0 80.5 28.5t22.5 84.5v412q0 57 -28 88t-75 31h-404v117q137 28 318 27h86q46 0 87.5 -13t78.5 -41.5t59 -82t22 -126.5v-412q0 -136 -61 -197t-176 -61h-329q-103 0 -170.5 56t-67.5 182zM389 165 q0 -16 7.5 -23t27.5 -7q58 0 73 34v43l-78 -6q-17 -2 -23.5 -7t-6.5 -22q-1 -1 -1 -6t1 -6z" />
<glyph unicode="A" horiz-adv-x="711" d="M25 0l229 732h229l222 -732h-199l-43 128h-197l-42 -128h-199zM310 293h114l-53 196z" />
<glyph unicode="B" horiz-adv-x="611" d="M45 0v732h318q220 0 220 -200q0 -53 -28.5 -100.5t-78.5 -51.5q55 -9 90 -53.5t35 -102.5q0 -120 -57 -172t-176 -52h-323zM239 164h119q27 0 38 17.5t11 52.5q0 72 -49 72h-119v-142zM239 460h109q22 0 33.5 14.5t11.5 36.5q0 57 -45 57h-109v-108z" />
<glyph unicode="C" horiz-adv-x="567" d="M31 368q0 188 55.5 280t197.5 92q104 0 150.5 -7.5t113.5 -32.5v-151l-6 1q-6 1 -17 2.5t-25.5 3.5t-32.5 3.5t-37.5 3t-42 2.5t-43.5 1q-59 0 -77 -11q-35 -21 -41 -126q-1 -27 -1 -63q0 -124 22.5 -161t97.5 -37q47 0 97.5 2t77.5 4l28 3v-151q-48 -20 -102 -27 t-162 -5q-136 2 -194.5 93.5t-58.5 280.5z" />
<glyph unicode="D" d="M45 0v732h343q58 0 102 -19t71.5 -51t45 -80t24 -100.5t6.5 -118.5q0 -190 -61 -276.5t-188 -86.5h-343zM239 164h129q42 0 58.5 46t16.5 154q0 87 -9.5 133t-24.5 58.5t-41 12.5h-129v-404z" />
<glyph unicode="E" horiz-adv-x="567" d="M40 161v401q0 170 186 170q210 0 327 -16v-163h-267q-24 0 -36.5 -9.5t-14 -19t-1.5 -27.5v-44l269 -11v-161l-269 -9v-44q0 -19 5 -30.5t16 -15.5t18.5 -5t22.5 -1h257v-162q-46 -6 -125 -10.5t-136 -5.5l-56 -1q-24 -1 -46 1t-50.5 12t-49.5 26.5t-35.5 48.5t-14.5 76z " />
<glyph unicode="F" horiz-adv-x="567" d="M40 0v558q0 49 16.5 84.5t45 54.5t59.5 27t65 8q210 0 327 -16v-163h-267q-24 0 -36.5 -9.5t-14 -19t-1.5 -27.5v-44l269 -11v-161l-269 -9v-272h-194z" />
<glyph unicode="G" horiz-adv-x="615" d="M31 370q0 90 10.5 153t36.5 114.5t74.5 77t121.5 25.5q122 0 163.5 -5t140.5 -32v-149q-1 0 -15 2.5t-37.5 5.5t-52 6t-66 5.5t-73.5 2.5q-68 0 -88.5 -41.5t-20.5 -166.5q0 -127 15 -161t79 -34q28 0 46 11.5t22 23.5l4 11v75h-49v120q47 25 175 25q32 0 68 -3v-436 h-137l-55 49q-22 -29 -44.5 -39.5t-79.5 -14.5q-60 -4 -104 15t-69.5 51.5t-40.5 84.5t-19.5 103.5t-4.5 120.5z" />
<glyph unicode="H" horiz-adv-x="636" d="M45 0v732h194v-291h170v291h194v-732h-194v267h-170v-267h-194z" />
<glyph unicode="I" horiz-adv-x="272" d="M45 0v732h194v-732h-194z" />
<glyph unicode="J" horiz-adv-x="355" d="M20 25v154q40 0 61.5 3.5t32 17t12.5 28t2 48.5v456h194v-567q0 -112 -54 -147q-41 -25 -124.5 -22t-123.5 29z" />
<glyph unicode="K" horiz-adv-x="660" d="M45 0v732h184v-288h40l149 288h223l-201 -368l201 -364h-223l-149 280h-39v-280h-185z" />
<glyph unicode="L" horiz-adv-x="526" d="M45 156v576h194v-506q0 -19 5 -30.5t16 -15.5t18.5 -5t22.5 -1h206v-174h-296q-74 0 -120 38t-46 118z" />
<glyph unicode="M" horiz-adv-x="886" d="M31 0l78 732h270l62 -411l66 411h270l79 -732h-191l-50 399l-61 -399h-222l-64 399l-46 -399h-191z" />
<glyph unicode="N" horiz-adv-x="677" d="M45 0v732h196l209 -374v374h194v-732h-194l-210 364v-364h-195z" />
<glyph unicode="O" d="M37 361q0 72 8.5 128.5t22 96t36 67.5t46 44t57 25.5t63.5 12t70 2.5q41 0 71.5 -3t64 -12t57 -25t45.5 -44t35.5 -67.5t21.5 -96t8 -128.5q0 -95 -15 -162t-39 -106t-65 -61t-82.5 -29t-101.5 -7q-51 0 -85.5 4t-72.5 16.5t-62 37.5t-44 64.5t-29.5 100t-9.5 142.5z M231 361q0 -119 19 -155t90 -36q65 0 87 38t22 153q0 67 -4 104t-16.5 60.5t-32.5 30.5t-56 7q-47 0 -68.5 -13.5t-31 -55.5t-9.5 -133z" />
<glyph unicode="P" horiz-adv-x="620" d="M44 0v732h326q35 0 63 -4t60 -18.5t53.5 -39t35.5 -69.5t14 -106q0 -67 -15 -116t-37.5 -74.5t-55 -39.5t-59.5 -16.5t-59 -0.5q-28 2 -78 10t-54 10v-268h-194zM238 412h112q51 0 51 80q0 75 -51 75h-112v-155z" />
<glyph unicode="Q" d="M37 361q0 72 8.5 128.5t22 96t36 67.5t46 44t57 25.5t63.5 12t70 2.5q41 0 71.5 -3t64 -12t57 -25t45.5 -44t35.5 -67.5t21.5 -96t8 -128.5q0 -79 -9.5 -139t-29.5 -99t-44.5 -64.5t-61.5 -39t-72.5 -18t-85.5 -5.5q-51 0 -85.5 4t-72.5 16.5t-62 37.5t-44 64.5 t-29.5 100t-9.5 142.5zM231 361q0 -119 19 -155t90 -36q65 0 87 38t22 153q0 67 -4 104t-16.5 60.5t-32.5 30.5t-56 7q-47 0 -68.5 -13.5t-31 -55.5t-9.5 -133zM286 -33h102q6 -65 158 -35v-140q-66 -10 -122.5 2.5t-97 56.5t-40.5 116z" />
<glyph unicode="R" horiz-adv-x="619" d="M44 0v732h327q106 0 165 -53.5t59 -181.5q0 -62 -8.5 -104t-27 -64.5t-33 -32t-39.5 -19.5l126 -277h-221l-94 259l-60 14v-273h-194zM239 419h107q35 0 44.5 17t9.5 61q0 36 -11.5 53t-42.5 17h-107v-148z" />
<glyph unicode="S" horiz-adv-x="596" d="M37 479v61q0 94 54.5 143t143.5 55q187 12 310 -33v-151q-91 10 -240 10q-44 0 -59 -7t-15 -37v-11q0 -26 11 -37t49 -11h94q44 0 78 -14.5t54 -37t33 -52t17.5 -55.5t4.5 -53v-33q0 -224 -203 -224q-146 0 -191 4.5t-118 29.5v151q110 -11 259 -11q32 0 45.5 9.5 t13.5 31.5v16q0 23 -11 33.5t-42 10.5h-90q-54 0 -93.5 18t-58.5 42t-30.5 57.5t-13.5 53.5t-2 41z" />
<glyph unicode="T" horiz-adv-x="607" d="M20 558v174h568v-174h-190v-558h-194v558h-184z" />
<glyph unicode="U" horiz-adv-x="655" d="M45 320v412h194v-412q0 -35 1 -52.5t6 -40t15 -33t28.5 -18t46.5 -7.5q26 0 43.5 8t27 18.5t14 33t5.5 40.5t1 51v412h195v-412q0 -53 -6 -96.5t-15.5 -75t-26 -56.5t-31.5 -40.5t-38.5 -27t-40 -17t-44 -8.5t-42.5 -3.5t-42 -0.5h-9q-54 0 -82.5 2t-73 18.5t-67.5 49 t-41 97t-18 158.5z" />
<glyph unicode="V" horiz-adv-x="699" d="M25 732h204l121 -494l131 494h204l-219 -732h-234z" />
<glyph unicode="W" horiz-adv-x="1018" d="M25 732h204l121 -494l91 494h204l-37 -152l102 -342l91 494h204l-179 -732h-234l-67 239l-59 -239h-234z" />
<glyph unicode="X" horiz-adv-x="679" d="M25 732h215l105 -203l105 203h215l-223 -369l218 -363h-215l-100 196l-102 -196h-215l219 363z" />
<glyph unicode="Y" horiz-adv-x="679" d="M25 732h211l105 -324l113 324h211l-231 -532v-200h-194v200z" />
<glyph unicode="Z" horiz-adv-x="552" d="M20 0v174l286 384h-286v174h513v-174l-256 -384h256v-174h-513z" />
<glyph unicode="[" horiz-adv-x="344" d="M48 12v628q0 101 47 151.5t149 50.5h90v-154h-30q-30 0 -46 -17.5t-16 -60.5v-588q0 -43 16 -60.5t46 -17.5h30v-154h-90q-196 0 -196 222z" />
<glyph unicode="\" horiz-adv-x="502" d="M11 770h199l281 -842h-199z" />
<glyph unicode="]" horiz-adv-x="344" d="M11 -56h30q30 0 46 17.5t16 60.5v588q0 43 -16 60.5t-46 17.5h-30v154h90q102 0 149 -50.5t47 -151.5v-628q0 -222 -196 -222h-90v154z" />
<glyph unicode="^" horiz-adv-x="378" d="M28 531l100 140h131l91 -140h-111l-49 51l-50 -51h-112z" />
<glyph unicode="_" horiz-adv-x="674" d="M20 -1v154h634v-154h-634z" />
<glyph unicode="`" horiz-adv-x="244" d="M11 674h145l77 -143h-109z" />
<glyph unicode="a" horiz-adv-x="519" d="M22 143v41q0 67 39.5 111.5t134.5 44.5q102 -1 102 0q1 6 0 7q0 16 -3 26t-6.5 15.5t-13.5 7.5t-16.5 2.5t-22.5 0.5l-196 -11v113q50 24 99.5 32t128.5 8q114 0 169 -39t55 -145v-357h-156l-38 54q-10 -23 -37 -42.5t-75 -17.5q-45 2 -78.5 17.5t-51 38.5t-26 46.5 t-8.5 46.5zM216 175q0 -7 0.5 -12t2.5 -9l3.5 -7t5 -4.5t5 -2.5t6.5 -1.5t6 -0.5h6.5h6.5q18 0 28 8t11 16l1 9v60l-52 -5q-15 -1 -22 -10.5t-7.5 -15.5t-0.5 -19v-6z" />
<glyph unicode="b" horiz-adv-x="559" d="M34 0v785h194v-276q57 30 132 30q103 0 137.5 -62.5t34.5 -213.5q0 -143 -41 -206t-131 -63q-41 0 -69 13.5t-62 41.5l-29 -49h-166zM229 173q13 -22 65 -22q24 0 34 23t10 99q0 79 -10 103t-34 24q-51 0 -65 -15v-212z" />
<glyph unicode="c" horiz-adv-x="490" d="M28 266q0 147 46 208.5t129 61.5h21.5h27t29 -0.5t33.5 -2t34 -4t37.5 -6.5t37 -10t38.5 -13v-114q-60 6 -149 6q-32 0 -44 -1.5t-25.5 -13.5t-17 -38t-3.5 -75q0 -47 3 -71.5t15.5 -37t26 -14.5t45.5 -3q41 0 80 2.5t58 4.5l18 2v-114q-26 -19 -64 -28t-62.5 -10.5 t-75.5 -0.5t-63 1q-175 0 -175 271z" />
<glyph unicode="d" horiz-adv-x="559" d="M28 263q0 155 34 215.5t138 60.5q75 0 132 -30v276h194v-785h-166l-29 49q-34 -28 -62 -41.5t-69 -13.5q-91 0 -131.5 60.5t-40.5 208.5zM222 273q0 -76 10 -99t34 -23q52 0 65 22v212q-14 15 -65 15q-24 0 -34 -24t-10 -103z" />
<glyph unicode="e" horiz-adv-x="525" d="M28 268q0 111 23.5 168.5t70.5 78t138 20.5q73 0 114 -6t73 -27t44 -60t12 -105q0 -78 -40 -110t-117 -32h-124q0 -18 4.5 -29.5t9.5 -17.5t19 -8.5t23 -2.5t31 0.5t34 0.5q75 0 150 11v-126q-14 -7 -32 -12t-43 -8t-41 -4.5t-48.5 -2.5t-42.5 -1h-46h-37 q-98 0 -136.5 65t-38.5 208zM222 318h58q13 0 21 9t8 23q0 30 -5.5 40.5t-29.5 10.5q-33 0 -43 -14t-9 -69z" />
<glyph unicode="f" horiz-adv-x="407" d="M11 397v117l72 17v99q0 87 44.5 121.5t139.5 34.5q82 0 129 -24v-111l-73 1q-17 0 -26.5 -2.5t-14 -13t-5 -20t-0.5 -33.5v-13v-39h98v-134h-98v-397h-194v397h-72z" />
<glyph unicode="g" horiz-adv-x="566" d="M25 92q0 78 64 104q-59 38 -59 148q0 189 193 189h332v-106l-41 -18q11 -32 11 -95q0 -76 -43.5 -120.5t-151.5 -44.5h-96h-7h-8t-7 -0.5t-7.5 -1.5t-5.5 -3t-4 -5.5t-1 -7.5q0 -10 6 -15t13 -5.5t21 -0.5h122q180 0 180 -173v-53q0 -154 -180 -154h-150q-75 0 -122.5 39 t-47.5 115v53l52 35q-25 11 -44 41.5t-19 78.5zM224 344q0 -34 9.5 -42.5t32.5 -8.5h22q26 0 34.5 8.5t8.5 42.5q0 29 -10.5 37t-33.5 8h-24q-25 0 -32 -10.5t-7 -34.5zM231 -35v-50q0 -26 8.5 -33.5t35.5 -7.5h28q15 0 24 2.5t12 9.5t3.5 10t0.5 14v23q0 13 -10.5 22 t-28.5 10h-73z" />
<glyph unicode="h" horiz-adv-x="555" d="M34 0v782h193v-303q19 19 34 29.5t45 21t68 10.5q50 0 82 -14.5t47 -44.5t20 -61.5t5 -79.5v-340h-194v344q0 30 -8 41t-25 11q-57 0 -73 -37v-359h-194z" />
<glyph unicode="i" horiz-adv-x="252" d="M28 604v117q0 25 24 25h150q22 0 22 -25v-117q0 -23 -22 -23h-150q-24 0 -24 23zM29 0v531h194v-531h-194z" />
<glyph unicode="j" horiz-adv-x="264" d="M34 604v117q0 25 24 25h150q23 0 23 -25v-117q0 -23 -23 -23h-150q-24 0 -24 23zM36 -270v801h194v-535q2 -183 -46 -266h-148z" />
<glyph unicode="k" horiz-adv-x="605" d="M34 0v782h194v-420h20l108 169h238l-169 -236l169 -295h-227l-119 228h-20v-228h-194z" />
<glyph unicode="l" horiz-adv-x="325" d="M34 189v594h194v-554q0 -33 5 -53t12 -27.5t20 -14.5q42 -21 49 -21v-113h-138q-73 0 -107.5 43t-34.5 146z" />
<glyph unicode="m" horiz-adv-x="857" d="M34 0v531h162l32 -52q24 22 37 31.5t42 19.5t67 10q96 0 130 -61q31 20 49 29.5t52.5 20.5t70.5 11q50 0 82 -14.5t47 -44.5t20 -61.5t5 -79.5v-340h-194v344q0 30 -8 41t-25 11q-57 0 -76 -30q0 -4 0.5 -12.5t0.5 -13.5v-340h-194v344q0 30 -8 41t-25 11q-57 0 -73 -37 v-359h-194z" />
<glyph unicode="n" horiz-adv-x="555" d="M34 0v531h162l32 -52q22 21 35.5 31t43 20t67.5 10q50 0 82 -14.5t47 -44.5t20 -61.5t5 -79.5v-340h-194v344q0 30 -8 41t-25 11q-57 0 -73 -37v-359h-194z" />
<glyph unicode="o" horiz-adv-x="554" d="M28 258q0 160 54.5 219t194.5 59t194.5 -60t54.5 -218q0 -149 -53.5 -206t-195.5 -57q-139 0 -194 59.5t-55 203.5zM222 258q0 -80 8.5 -99.5t46.5 -19.5q40 0 47.5 17t7.5 102q0 92 -7.5 113t-47.5 21q-42 0 -48.5 -20t-6.5 -114z" />
<glyph unicode="p" horiz-adv-x="559" d="M34 -270v801h166l29 -49q34 28 62 41.5t69 13.5q90 0 131 -63.5t41 -205.5q0 -54 -4 -93.5t-15 -75.5t-30 -58.5t-50 -35.5t-73 -13q-75 0 -132 30v-292h-194zM229 146q14 -15 65 -15q24 0 34 24t10 103q0 76 -10 99t-34 23q-52 0 -65 -22v-212z" />
<glyph unicode="q" horiz-adv-x="555" d="M28 268q0 144 52 206.5t151 62.5q83 0 167.5 -10t123.5 -26v-771h-194v299q-30 -39 -97 -39q-112 0 -157.5 65t-45.5 213zM222 275q0 -89 10 -117t47 -28q34 0 49 19v254h-47q-21 0 -33.5 -10.5t-18 -32.5t-6.5 -38.5t-1 -46.5z" />
<glyph unicode="r" horiz-adv-x="410" d="M34 0v531h172l22 -67q14 29 45.5 50.5t69.5 21.5q31 0 47 -5v-186h-79q-20 0 -30.5 -1t-25 -6t-21 -18.5t-6.5 -34.5v-285h-194z" />
<glyph unicode="s" horiz-adv-x="511" d="M22 338v46q0 68 33 110t105 42q190 0 240 -9q47 -9 62 -27v-114h-224q-8 0 -12 -0.5t-7 -4.5t-3 -13v-6q0 -8 3.5 -11.5t7 -4t11.5 -0.5h100q79 0 114.5 -39.5t35.5 -104.5v-59q0 -76 -38 -112t-92 -36h-35q-85 0 -127 1t-89.5 9.5t-62.5 26.5v114h232q12 0 15 4t3 13v5 q0 10 -3.5 14t-14.5 4h-96q-73 0 -115.5 38.5t-42.5 113.5z" />
<glyph unicode="t" horiz-adv-x="385" d="M11 398v96l75 38l28 148h166v-148h89v-134h-89v-168q0 -49 8.5 -68t27.5 -29q42 -21 49 -21v-113h-150q-63 0 -96 44.5t-33 146.5v208h-75z" />
<glyph unicode="u" horiz-adv-x="555" d="M28 191v340h194v-344q0 -30 8 -41t25 -11q57 0 73 37v359h194v-531h-162l-32 52q-10 -6 -30 -21t-31 -21.5t-33.5 -12.5t-51.5 -6q-50 0 -82 14.5t-47 44.5t-20 61.5t-5 79.5z" />
<glyph unicode="v" horiz-adv-x="588" d="M11 531h206l75 -322l80 322h205l-176 -531h-224z" />
<glyph unicode="w" horiz-adv-x="847" d="M11 531h206l65 -322l60 322h188l-23 -121l65 -201l58 322h207l-146 -531h-224l-48 137l-38 -137h-224z" />
<glyph unicode="x" horiz-adv-x="612" d="M14 0l176 266l-176 265h232l59 -122l61 122h232l-179 -268l171 -263h-224l-60 121l-60 -121h-232z" />
<glyph unicode="y" horiz-adv-x="599" d="M12 531h201l61 -336q7 -37 43 -39l69 375h197l-143 -699l-71 -102h-144l59 270q-154 0 -189 156z" />
<glyph unicode="z" horiz-adv-x="489" d="M17 377v154h456v-154l-181 -222h181v-154h-441v152l197 224h-212z" />
<glyph unicode="{" horiz-adv-x="322" d="M11 265v137q60 5 60 53v201q0 186 240 186v-154q-31 0 -38.5 -20.5t-7.5 -91.5v-136q0 -53 -26.5 -77.5t-78.5 -28.5q104 -21 104 -103v-199q0 -56 7.5 -77t39.5 -21v-144q-132 0 -186.5 39.5t-54.5 132.5v250q0 57 -59 53z" />
<glyph unicode="|" horiz-adv-x="250" d="M48 -72v842h154v-842h-154z" />
<glyph unicode="}" horiz-adv-x="322" d="M11 -66q32 0 39.5 21t7.5 77v199q0 82 104 103q-52 4 -78.5 28.5t-26.5 77.5v136q0 71 -7.5 91.5t-38.5 20.5v154q240 0 240 -186v-201q0 -48 60 -53v-137q-59 4 -59 -53v-250q0 -93 -54.5 -132.5t-186.5 -39.5v144z" />
<glyph unicode="~" horiz-adv-x="404" d="M28 598q51 74 123 74q23 0 55 -17.5t51 -17.5q52 -3 93 40l26 -74q-48 -72 -112 -72q-22 0 -59.5 17.5t-56.5 17.5q-48 0 -93 -35z" />
<glyph unicode="&#xa1;" horiz-adv-x="282" d="M47 -270l20 535h147l19 -535h-186zM59 323v115q0 21 24 23h114q9 -1 16.5 -8.5t7.5 -17.5v-112q0 -27 -22 -27h-116q-24 0 -24 27z" />
<glyph unicode="&#xa2;" horiz-adv-x="485" d="M22 266q0 147 46.5 208.5t129.5 61.5v98h108v-100q84 -7 150 -34v-114q-61 6 -150 6q-32 0 -44 -1.5t-25.5 -13.5t-17 -38t-3.5 -75q0 -47 3 -71.5t15.5 -37t26 -14.5t45.5 -2q41 0 80 2t58 4l18 2v-114q-56 -39 -160 -39v-89h-108v90q-172 4 -172 271z" />
<glyph unicode="&#xa3;" horiz-adv-x="572" d="M28 0v149l62 25v126h-62v95l62 27v43q0 83 17.5 137t55.5 82t85.5 38t119.5 10q25 0 69 -4t75 -8l32 -4v-157h-184q-46 0 -61 -12.5t-15 -59.5v-65l181 -17v-105h-181v-126h259v-174h-515z" />
<glyph unicode="&#xa4;" horiz-adv-x="437" d="M29 429l55 59l49 -47q40 27 88 27q44 0 82 -24l45 48l61 -53l-50 -52q20 -35 20 -78q0 -52 -30 -93l45 -43l-52 -61l-56 53q-31 -14 -65 -14q-45 0 -83 24l-46 -49l-59 56l50 51q-20 38 -20 76q0 40 17 72zM158 309q0 -26 18.5 -44.5t44.5 -18.5t44.5 18.5t18.5 44.5 t-18.5 45t-44.5 19t-44.5 -19t-18.5 -45z" />
<glyph unicode="&#xa5;" horiz-adv-x="662" d="M11 732h211l105 -324l113 324h211l-166 -381h53v-99h-118v-25h118v-99h-118v-128h-194v128h-115v99h115v25h-115v99h54z" />
<glyph unicode="&#xa6;" horiz-adv-x="250" d="M48 -72v328h154v-328h-154zM48 429v341h154v-341h-154z" />
<glyph unicode="&#xa7;" horiz-adv-x="532" d="M31 590v30q0 77 37.5 120.5t112.5 43.5q210 0 284 -19v-135h-214q-26 0 -26 -24v-6q0 -25 28 -25h77q87 0 130 -29t43 -96v-12q0 -99 -72 -123q28 -5 45.5 -27t21.5 -42.5t4 -42.5v-43q0 -90 -40.5 -129t-97.5 -39q-234 0 -296 19v135h214q16 0 21.5 4.5t5.5 16.5v12 q0 21 -28 21h-80q-82 0 -125.5 27.5t-43.5 95.5v12v11v13t0.5 13.5t2 16t4 15.5t6.5 16t9.5 14t12.5 13.5t17 11t22 9.5q-75 36 -75 122zM225 377q0 -20 8.5 -26.5t27.5 -6.5h10q23 0 30.5 6.5t7.5 27.5v18q0 18 -6.5 26t-31.5 8h-10q-17 0 -25.5 -5.5t-9.5 -11.5t-1 -19 v-17z" />
<glyph unicode="&#xa8;" horiz-adv-x="442" d="M28 582q0 27 19.5 46t46.5 19t46 -19t19 -46t-19 -46.5t-46 -19.5t-46.5 19.5t-19.5 46.5zM283 582q0 27 19.5 46t46.5 19t46 -19t19 -46t-19 -46.5t-46 -19.5t-46.5 19.5t-19.5 46.5z" />
<glyph unicode="&#xa9;" horiz-adv-x="792" d="M31 368q0 80 11.5 140.5t40.5 113.5t85.5 81.5t139.5 28.5h200q74 0 125 -26t78.5 -76.5t39 -113t11.5 -148.5q0 -187 -67.5 -277.5t-186.5 -90.5h-200q-140 0 -208.5 97.5t-68.5 270.5zM145 368q0 -124 40 -194t123 -70h190q73 0 111.5 59.5t38.5 204.5q0 36 -1.5 61.5 t-5.5 58.5t-14 55.5t-24.5 43t-38.5 31t-56 10.5h-200q-77 0 -120 -55.5t-43 -204.5zM217 365q0 116 36.5 167t107.5 51q125 0 188 -24v-92q-84 12 -148 12q-41 0 -55.5 -23.5t-14.5 -93.5q0 -62 18 -86.5t59 -24.5q67 0 147 16v-92q-24 -13 -58.5 -19.5t-58 -7.5t-68.5 -1 q-153 0 -153 218z" />
<glyph unicode="&#xaa;" horiz-adv-x="368" d="M17 258v78h335v-78h-335zM17 469v26q0 99 120 99q69 -1 69 0q1 3 0 4q0 12 -2 19t-9.5 10t-12.5 3.5t-19 0.5q-36 0 -69.5 -2.5t-49.5 -4.5l-15 -2v86q56 30 156 30q85 0 126 -26t41 -96v-238h-116l-30 41q-18 -47 -76 -45q-59 2 -86 31.5t-27 63.5zM151 492 q0 -10 4.5 -15.5t8.5 -6t12 -0.5h1.5h1.5q13 0 20 5t7 10v5v36l-36 -3q-4 0 -7 -1t-5 -2.5t-3.5 -3.5t-2 -3.5t-1 -4t-0.5 -4v-4.5v-4v-4z" />
<glyph unicode="&#xab;" horiz-adv-x="607" d="M28 354l206 203l97 -95l-110 -108l111 -110l-93 -98zM275 354l206 203l97 -95l-110 -108l111 -110l-93 -98z" />
<glyph unicode="&#xac;" horiz-adv-x="467" d="M20 226v144h427v-211h-144v67h-283z" />
<glyph unicode="&#xad;" horiz-adv-x="354" d="M20 213v154h314v-154h-314z" />
<glyph unicode="&#xae;" horiz-adv-x="792" d="M31 368q0 80 11.5 140.5t40.5 113.5t85.5 81.5t139.5 28.5h200q74 0 125 -26t78.5 -76.5t39 -113t11.5 -148.5q0 -187 -67.5 -277.5t-186.5 -90.5h-200q-140 0 -208.5 97.5t-68.5 270.5zM145 368q0 -124 40 -194t123 -70h190q73 0 111.5 59.5t38.5 204.5q0 36 -1.5 61.5 t-5.5 58.5t-14 55.5t-24.5 43t-38.5 31t-56 10.5h-200q-77 0 -120 -55.5t-43 -204.5zM237 153v427h187q134 0 134 -138q0 -58 -15 -88.5t-49 -42.5l84 -158h-121l-77 150l-29 12v-162h-114zM351 399h39q38 0 46 6.5t8 35.5q0 23 -9.5 29t-44.5 6h-39v-77z" />
<glyph unicode="&#xaf;" horiz-adv-x="348" d="M28 531v93h292v-93h-292z" />
<glyph unicode="&#xb0;" horiz-adv-x="259" d="M28 632q0 43 30 73t72 30t71.5 -30t29.5 -73t-29.5 -72.5t-71.5 -29.5t-72 29.5t-30 72.5zM94 632q0 -15 10.5 -25t25.5 -10t25 10t10 25t-10 25.5t-25 10.5t-25.5 -10.5t-10.5 -25.5z" />
<glyph unicode="&#xb1;" horiz-adv-x="479" d="M32 57v154h416v-154h-416zM32 377v154h130v131h154v-131h132v-154h-132v-131h-154v131h-130z" />
<glyph unicode="&#xb2;" horiz-adv-x="411" d="M17 718v109q96 22 212 22q79 0 119 -41.5t40 -111.5q0 -91 -152 -210h152v-131h-367v126q58 34 139.5 101t81.5 96q0 25 -16.5 32.5t-60.5 7.5h-148z" />
<glyph unicode="&#xb3;" horiz-adv-x="411" d="M17 713v109q69 26 229 22q59 -1 95.5 -33.5t36.5 -90.5v-26q0 -76 -63 -97q63 -17 63 -103v-19q0 -60 -36.5 -92.5t-100.5 -32.5h-23.5h-24.5h-23t-24 0.5t-21.5 1.5t-23 2t-20.5 2.5t-21.5 3.5t-19 5t-19.5 6l1 110h145q42 0 53.5 3t11.5 19v4q0 15 -13 19t-48 5l-108 5 v119l108 7q22 0 30 0.5t18 3t12.5 7t2.5 12.5v4q0 16 -15 20t-48 4h-154z" />
<glyph unicode="&#xb4;" horiz-adv-x="244" d="M11 531l77 143h145l-113 -143h-109z" />
<glyph unicode="&#xb5;" horiz-adv-x="584" d="M51 -270v801h194v-344q0 -30 8 -41t25 -11q57 0 73 37v359h194v-531h-162l-32 52q-9 -6 -25 -17.5t-25 -17.5t-24 -12.5t-32 -10.5v-264h-194z" />
<glyph unicode="&#xb6;" horiz-adv-x="574" d="M22 499v93q0 69 41.5 104.5t114.5 35.5h386v-126h-40v-606h-124v608h-44v-878h-124v642q-1 0 -8 -5t-18.5 -8.5t-27.5 -3.5q-80 0 -118 40t-38 104zM146 519q0 -27 9 -33.5t33 -6.5h44v129h-44q-29 0 -35.5 -8.5t-6.5 -41.5v-39z" />
<glyph unicode="&#xb7;" horiz-adv-x="257" d="M48 328v117q0 25 24 25h113q25 0 25 -25v-117q0 -23 -25 -23h-113q-24 0 -24 23z" />
<glyph unicode="&#xb8;" horiz-adv-x="238" d="M28 -104l37 15q21 9 24.5 16t3.5 36h117q0 -78 -26.5 -112t-94.5 -34h-61v79z" />
<glyph unicode="&#xb9;" horiz-adv-x="270" d="M9 707v80l81 55h144v-487h-146v365z" />
<glyph unicode="&#xba;" horiz-adv-x="398" d="M17 550q0 107 39.5 146t142.5 39t143 -40.5t40 -144.5q0 -99 -39.5 -137t-143.5 -38q-102 0 -142 39.5t-40 135.5zM32 258v78h335v-78h-335zM163 551q0 -45 6 -56.5t30 -11.5q26 0 31.5 10.5t5.5 57.5q0 51 -5 63.5t-32 12.5q-26 0 -31 -13t-5 -63z" />
<glyph unicode="&#xbb;" horiz-adv-x="607" d="M28 244l111 110l-110 108l97 95l206 -203l-211 -208zM275 244l111 110l-110 108l97 95l206 -203l-211 -208z" />
<glyph unicode="&#xbc;" horiz-adv-x="954" d="M9 607v80l81 55h144v-487h-146v365zM139 0l466 770h131l-466 -770h-131zM512 146l141 341h149l-105 -273h60v87l21 51h125v-138h40v-112l-40 -22v-78h-146v78h-222z" />
<glyph unicode="&#xbd;" horiz-adv-x="1005" d="M9 607v80l81 55h144v-487h-146v365zM129 0l466 770h131l-466 -770h-131zM606 363v109q98 22 215 22q80 0 121 -41.5t41 -111.5q0 -90 -157 -210h157v-131h-373v127q61 38 144 107.5t83 100.5q0 18 -17 23t-62 5h-152z" />
<glyph unicode="&#xbe;" horiz-adv-x="1066" d="M17 614v109q67 25 233 21q60 -1 97 -33.5t37 -90.5v-26q0 -76 -63 -97q63 -17 63 -103v-19q0 -60 -36.5 -92.5t-102.5 -32.5h-24h-25h-23t-24.5 0.5t-22 1.5t-23 2t-21 2.5t-22.5 3.5t-19.5 5t-19.5 6l1 110h149q43 0 55 3t12 19v4q0 15 -13.5 19t-49.5 5l-112 5v118 l112 8q23 0 31.5 0.5t18.5 3t12.5 7t2.5 12.5v5q0 16 -15.5 20t-49.5 4h-158zM244 0l466 770h131l-466 -770h-131zM607 146l141 341h149l-105 -273h60v87l21 51h125v-138h40v-112l-40 -22v-78h-146v78h-222z" />
<glyph unicode="&#xbf;" horiz-adv-x="544" d="M22 -11q0 108 47 159.5t166 47.5v81h145v-222h-92q-39 -2 -56 -17t-17 -53v-15q0 -62 87 -62h231v-145q-136 -36 -282 -30q-107 0 -168 62t-61 143v51zM227 332v117q0 23 25 23h113q24 0 24 -23v-117q0 -25 -24 -25h-113q-25 0 -25 25z" />
<glyph unicode="&#xc0;" horiz-adv-x="711" d="M25 0l229 732h229l222 -732h-199l-43 128h-197l-42 -128h-199zM201 940h145l77 -143h-109zM310 293h114l-53 196z" />
<glyph unicode="&#xc1;" horiz-adv-x="711" d="M25 0l229 732h229l222 -732h-199l-43 128h-197l-42 -128h-199zM310 293h114l-53 196zM314 797l77 143h145l-113 -143h-109z" />
<glyph unicode="&#xc2;" horiz-adv-x="711" d="M25 0l229 732h229l222 -732h-199l-43 128h-197l-42 -128h-199zM208 797l100 140h130l92 -140h-112l-48 51l-50 -51h-112zM310 293h114l-53 196z" />
<glyph unicode="&#xc3;" horiz-adv-x="711" d="M25 0l229 732h229l222 -732h-199l-43 128h-197l-42 -128h-199zM194 864q52 74 124 74q22 0 54 -17.5t52 -17.5q52 -3 92 40l26 -74q-48 -72 -112 -72q-22 0 -59 17.5t-57 17.5q-28 0 -48 -8t-44 -27zM310 293h114l-53 196z" />
<glyph unicode="&#xc4;" horiz-adv-x="711" d="M25 0l229 732h229l222 -732h-199l-43 128h-197l-42 -128h-199zM176 863q0 27 19 46t46 19t46 -19t19 -46t-19 -46.5t-46 -19.5t-46 19.5t-19 46.5zM310 293h114l-53 196zM430 863q0 27 19.5 46t47 19t46.5 -19t19 -46t-19.5 -46.5t-46 -19.5t-46.5 19.5t-20 46.5z" />
<glyph unicode="&#xc5;" horiz-adv-x="711" d="M25 0l229 732h96q-36 7 -59.5 35t-23.5 65q0 28 13.5 52t37 37.5t51.5 13.5q42 0 71.5 -30t29.5 -73q0 -37 -23 -65t-59 -35h95l222 -732h-199l-43 128h-197l-42 -128h-199zM310 293h114l-53 196zM335 832q0 -9 4.5 -16.5t12.5 -12t17 -4.5q14 0 23.5 9.5t9.5 24t-9.5 24 t-23.5 9.5t-24 -10t-10 -24z" />
<glyph unicode="&#xc6;" horiz-adv-x="981" d="M17 0l271 552q29 59 70 98t90 56.5t96 23t105 2.5q190 0 307 -16v-163h-247q-24 0 -36.5 -9.5t-14 -19t-1.5 -27.5v-44l249 -11v-161l-249 -9v-44q0 -19 5 -30.5t16 -15.5t18.5 -5t22.5 -1h237v-162q-46 -6 -120 -10.5t-126 -5.5l-51 -1q-31 -2 -61 2t-62.5 15.5 t-52.5 39t-20 67.5v46h-147l-84 -167h-215zM394 331h69v151z" />
<glyph unicode="&#xc7;" horiz-adv-x="567" d="M31 368q0 188 55.5 280t197.5 92q104 0 150.5 -7.5t113.5 -32.5v-151l-6 1q-6 1 -17 2.5t-25.5 3.5t-32.5 3.5t-37.5 3t-42 2.5t-43.5 1q-59 0 -77 -11q-35 -21 -41 -126q-1 -27 -1 -63q0 -124 22.5 -161t97.5 -37q47 0 97.5 2t77.5 4l28 3v-151q-48 -20 -102 -27 t-162 -5q-136 2 -194.5 93.5t-58.5 280.5zM187 -103l37 15q21 9 24.5 16t3.5 36h117q0 -78 -26.5 -112t-94.5 -34h-61v79z" />
<glyph unicode="&#xc8;" horiz-adv-x="567" d="M40 161v401q0 170 186 170q210 0 327 -16v-163h-267q-24 0 -36.5 -9.5t-14 -19t-1.5 -27.5v-44l269 -11v-161l-269 -9v-44q0 -19 5 -30.5t16 -15.5t18.5 -5t22.5 -1h257v-162q-46 -6 -125 -10.5t-136 -5.5l-56 -1q-24 -1 -46 1t-50.5 12t-49.5 26.5t-35.5 48.5t-14.5 76z M155 941h145l77 -143h-109z" />
<glyph unicode="&#xc9;" horiz-adv-x="567" d="M40 161v401q0 170 186 170q210 0 327 -16v-163h-267q-24 0 -36.5 -9.5t-14 -19t-1.5 -27.5v-44l269 -11v-161l-269 -9v-44q0 -19 5 -30.5t16 -15.5t18.5 -5t22.5 -1h257v-162q-46 -6 -125 -10.5t-136 -5.5l-56 -1q-24 -1 -46 1t-50.5 12t-49.5 26.5t-35.5 48.5t-14.5 76z M266 797l77 143h145l-113 -143h-109z" />
<glyph unicode="&#xca;" horiz-adv-x="567" d="M40 161v401q0 170 186 170q210 0 327 -16v-163h-267q-24 0 -36.5 -9.5t-14 -19t-1.5 -27.5v-44l269 -11v-161l-269 -9v-44q0 -19 5 -30.5t16 -15.5t18.5 -5t22.5 -1h257v-162q-46 -6 -125 -10.5t-136 -5.5l-56 -1q-24 -1 -46 1t-50.5 12t-49.5 26.5t-35.5 48.5t-14.5 76z M158 797l100 140h131l91 -140h-111l-49 51l-50 -51h-112z" />
<glyph unicode="&#xcb;" horiz-adv-x="567" d="M40 161v401q0 170 186 170q210 0 327 -16v-163h-267q-24 0 -36.5 -9.5t-14 -19t-1.5 -27.5v-44l269 -11v-161l-269 -9v-44q0 -19 5 -30.5t16 -15.5t18.5 -5t22.5 -1h257v-162q-46 -6 -125 -10.5t-136 -5.5l-56 -1q-24 -1 -46 1t-50.5 12t-49.5 26.5t-35.5 48.5t-14.5 76z M116 863q0 27 19.5 46t46.5 19t46 -19t19 -46t-19 -46.5t-46 -19.5t-46.5 19.5t-19.5 46.5zM371 863q0 27 19.5 46t46.5 19t46 -19t19 -46t-19 -46.5t-46 -19.5t-46.5 19.5t-19.5 46.5z" />
<glyph unicode="&#xcc;" horiz-adv-x="272" d="M-26 940h146l76 -143h-108zM45 0v732h194v-732h-194z" />
<glyph unicode="&#xcd;" horiz-adv-x="272" d="M45 0v732h194v-732h-194zM88 797l76 143h146l-114 -143h-108z" />
<glyph unicode="&#xce;" horiz-adv-x="272" d="M-19 797l100 140h131l91 -140h-111l-49 51l-50 -51h-112zM45 0v732h194v-732h-194z" />
<glyph unicode="&#xcf;" horiz-adv-x="272" d="M-51 863q0 27 19.5 46t46.5 19t46 -19t19 -46t-19 -46.5t-46 -19.5t-46.5 19.5t-19.5 46.5zM45 0v732h194v-732h-194zM204 863q0 27 19.5 46t46.5 19t46 -19t19 -46t-19 -46.5t-46 -19.5t-46.5 19.5t-19.5 46.5z" />
<glyph unicode="&#xd0;" d="M-20 336v74h65v322h343q58 0 102 -19t71.5 -51t45 -80t24 -100.5t6.5 -118.5q0 -190 -61 -276.5t-188 -86.5h-343v336h-65zM239 164h129q42 0 58.5 46t16.5 154q0 87 -9.5 133t-24.5 58.5t-41 12.5h-129v-158h89v-74h-89v-172z" />
<glyph unicode="&#xd1;" horiz-adv-x="677" d="M45 0v732h196l209 -374v374h194v-732h-194l-210 364v-364h-195zM170 864q52 74 124 74q22 0 54 -17.5t52 -17.5q52 -3 92 40l26 -74q-48 -72 -112 -72q-22 0 -59 17.5t-57 17.5q-28 0 -48 -8t-44 -27z" />
<glyph unicode="&#xd2;" d="M37 361q0 72 8.5 128.5t22 96t36 67.5t46 44t57 25.5t63.5 12t70 2.5q41 0 71.5 -3t64 -12t57 -25t45.5 -44t35.5 -67.5t21.5 -96t8 -128.5q0 -95 -15 -162t-39 -106t-65 -61t-82.5 -29t-101.5 -7q-51 0 -85.5 4t-72.5 16.5t-62 37.5t-44 64.5t-29.5 100t-9.5 142.5z M172 940h146l76 -143h-108zM231 361q0 -119 19 -155t90 -36q65 0 87 38t22 153q0 67 -4 104t-16.5 60.5t-32.5 30.5t-56 7q-47 0 -68.5 -13.5t-31 -55.5t-9.5 -133z" />
<glyph unicode="&#xd3;" d="M37 361q0 72 8.5 128.5t22 96t36 67.5t46 44t57 25.5t63.5 12t70 2.5q41 0 71.5 -3t64 -12t57 -25t45.5 -44t35.5 -67.5t21.5 -96t8 -128.5q0 -95 -15 -162t-39 -106t-65 -61t-82.5 -29t-101.5 -7q-51 0 -85.5 4t-72.5 16.5t-62 37.5t-44 64.5t-29.5 100t-9.5 142.5z M231 361q0 -119 19 -155t90 -36q65 0 87 38t22 153q0 67 -4 104t-16.5 60.5t-32.5 30.5t-56 7q-47 0 -68.5 -13.5t-31 -55.5t-9.5 -133zM286 797l76 143h146l-114 -143h-108z" />
<glyph unicode="&#xd4;" d="M37 361q0 72 8.5 128.5t22 96t36 67.5t46 44t57 25.5t63.5 12t70 2.5q41 0 71.5 -3t64 -12t57 -25t45.5 -44t35.5 -67.5t21.5 -96t8 -128.5q0 -95 -15 -162t-39 -106t-65 -61t-82.5 -29t-101.5 -7q-51 0 -85.5 4t-72.5 16.5t-62 37.5t-44 64.5t-29.5 100t-9.5 142.5z M179 797l100 140h131l91 -140h-111l-49 51l-50 -51h-112zM231 361q0 -119 19 -155t90 -36q65 0 87 38t22 153q0 67 -4 104t-16.5 60.5t-32.5 30.5t-56 7q-47 0 -68.5 -13.5t-31 -55.5t-9.5 -133z" />
<glyph unicode="&#xd5;" d="M37 361q0 72 8.5 128.5t22 96t36 67.5t46 44t57 25.5t63.5 12t70 2.5q41 0 71.5 -3t64 -12t57 -25t45.5 -44t35.5 -67.5t21.5 -96t8 -128.5q0 -95 -15 -162t-39 -106t-65 -61t-82.5 -29t-101.5 -7q-51 0 -85.5 4t-72.5 16.5t-62 37.5t-44 64.5t-29.5 100t-9.5 142.5z M166 864q51 74 123 74q23 0 55 -17.5t51 -17.5q52 -3 93 40l26 -74q-48 -72 -112 -72q-22 0 -59.5 17.5t-56.5 17.5q-48 0 -93 -35zM231 361q0 -119 19 -155t90 -36q65 0 87 38t22 153q0 67 -4 104t-16.5 60.5t-32.5 30.5t-56 7q-47 0 -68.5 -13.5t-31 -55.5t-9.5 -133z" />
<glyph unicode="&#xd6;" d="M37 361q0 72 8.5 128.5t22 96t36 67.5t46 44t57 25.5t63.5 12t70 2.5q41 0 71.5 -3t64 -12t57 -25t45.5 -44t35.5 -67.5t21.5 -96t8 -128.5q0 -95 -15 -162t-39 -106t-65 -61t-82.5 -29t-101.5 -7q-51 0 -85.5 4t-72.5 16.5t-62 37.5t-44 64.5t-29.5 100t-9.5 142.5z M147 863q0 27 19.5 46t46.5 19t46 -19t19 -46t-19 -46.5t-46 -19.5t-46.5 19.5t-19.5 46.5zM231 361q0 -119 19 -155t90 -36q65 0 87 38t22 153q0 67 -4 104t-16.5 60.5t-32.5 30.5t-56 7q-47 0 -68.5 -13.5t-31 -55.5t-9.5 -133zM402 863q0 27 19.5 46t46.5 19t46 -19 t19 -46t-19 -46.5t-46 -19.5t-46.5 19.5t-19.5 46.5z" />
<glyph unicode="&#xd7;" horiz-adv-x="465" d="M32 263l92 92l-92 93l108 109l93 -93l93 94l109 -109l-93 -94l93 -92l-109 -109l-93 92l-92 -92z" />
<glyph unicode="&#xd8;" horiz-adv-x="682" d="M31 0l67 93q-52 85 -52 268q0 72 8.5 128.5t22 96t36 67.5t46 44t57 25.5t63.5 12t70 2.5q125 0 185 -36l22 31h86l-56 -78q66 -89 66 -293q0 -95 -15 -162t-39 -106t-65 -61t-82.5 -29t-101.5 -7q-143 0 -203 44l-29 -40h-86zM240 361q0 -48 1 -68l181 252 q-21 18 -73 18q-47 0 -68.5 -13.5t-31 -55.5t-9.5 -133zM262 202q21 -32 87 -32q65 0 87 38t22 153q0 73 -5 108z" />
<glyph unicode="&#xd9;" horiz-adv-x="655" d="M45 320v412h194v-412q0 -35 1 -52.5t6 -40t15 -33t28.5 -18t46.5 -7.5q26 0 43.5 8t27 18.5t14 33t5.5 40.5t1 51v412h195v-412q0 -53 -6 -96.5t-15.5 -75t-26 -56.5t-31.5 -40.5t-38.5 -27t-40 -17t-44 -8.5t-42.5 -3.5t-42 -0.5h-9q-54 0 -82.5 2t-73 18.5t-67.5 49 t-41 97t-18 158.5zM166 940h145l77 -143h-109z" />
<glyph unicode="&#xda;" horiz-adv-x="655" d="M45 320v412h194v-412q0 -35 1 -52.5t6 -40t15 -33t28.5 -18t46.5 -7.5q26 0 43.5 8t27 18.5t14 33t5.5 40.5t1 51v412h195v-412q0 -53 -6 -96.5t-15.5 -75t-26 -56.5t-31.5 -40.5t-38.5 -27t-40 -17t-44 -8.5t-42.5 -3.5t-42 -0.5h-9q-54 0 -82.5 2t-73 18.5t-67.5 49 t-41 97t-18 158.5zM279 797l77 143h145l-113 -143h-109z" />
<glyph unicode="&#xdb;" horiz-adv-x="655" d="M45 320v412h194v-412q0 -35 1 -52.5t6 -40t15 -33t28.5 -18t46.5 -7.5q26 0 43.5 8t27 18.5t14 33t5.5 40.5t1 51v412h195v-412q0 -53 -6 -96.5t-15.5 -75t-26 -56.5t-31.5 -40.5t-38.5 -27t-40 -17t-44 -8.5t-42.5 -3.5t-42 -0.5h-9q-54 0 -82.5 2t-73 18.5t-67.5 49 t-41 97t-18 158.5zM172 797l100 140h132l90 -140h-110l-50 51l-50 -51h-112z" />
<glyph unicode="&#xdc;" horiz-adv-x="655" d="M45 320v412h194v-412q0 -35 1 -52.5t6 -40t15 -33t28.5 -18t46.5 -7.5q26 0 43.5 8t27 18.5t14 33t5.5 40.5t1 51v412h195v-412q0 -53 -6 -96.5t-15.5 -75t-26 -56.5t-31.5 -40.5t-38.5 -27t-40 -17t-44 -8.5t-42.5 -3.5t-42 -0.5h-9q-54 0 -82.5 2t-73 18.5t-67.5 49 t-41 97t-18 158.5zM140 863q0 27 19.5 46t47 19t46.5 -19t19 -46t-19.5 -46.5t-46 -19.5t-46.5 19.5t-20 46.5zM396 863q0 27 19 46t46 19t46 -19t19 -46t-19 -46.5t-46 -19.5t-46 19.5t-19 46.5z" />
<glyph unicode="&#xdd;" horiz-adv-x="679" d="M25 732h211l105 -324l113 324h211l-231 -532v-200h-194v200zM290 797l78 143h144l-112 -143h-110z" />
<glyph unicode="&#xde;" horiz-adv-x="538" d="M34 0v729h194v-141h107q176 0 176 -213q0 -59 -11.5 -101.5t-28.5 -65.5t-43 -36.5t-46 -17.5t-47 -5q-38 -2 -57.5 1t-49.5 18v-168h-194zM228 313h27q40 0 50.5 9.5t10.5 49.5q0 25 -8 36.5t-18.5 13.5t-34.5 2h-27v-111z" />
<glyph unicode="&#xdf;" horiz-adv-x="574" d="M34 0v566q0 93 64.5 155.5t188.5 62.5q100 0 164.5 -35t84.5 -88.5t11 -114t-46 -114.5q-9 -14 -25 -30t-23.5 -28t-7.5 -26t18.5 -31t41 -33t41 -47t18.5 -68v-17q0 -90 -48 -125t-130 -35q-71 0 -128 19v131q48 -6 62 -6q50 0 50 48v6q0 19 -17 36.5t-37.5 29.5 t-37.5 37t-17 58q0 30 10 54.5t20 36.5t32 34q34 34 34 70q0 40 -14.5 53.5t-45.5 13.5q-44 0 -56.5 -28t-12.5 -109v-476h-194z" />
<glyph unicode="&#xe0;" horiz-adv-x="519" d="M22 143v41q0 67 39.5 111.5t134.5 44.5q102 -1 102 0q1 6 0 7q0 16 -3 26t-6.5 15.5t-13.5 7.5t-16.5 2.5t-22.5 0.5l-196 -11v113q50 24 99.5 32t128.5 8q114 0 169 -39t55 -145v-357h-156l-38 54q-10 -23 -37 -42.5t-75 -17.5q-45 2 -78.5 17.5t-51 38.5t-26 46.5 t-8.5 46.5zM100 744h146l76 -143h-108zM216 175q0 -7 0.5 -12t2.5 -9l3.5 -7t5 -4.5t5 -2.5t6.5 -1.5t6 -0.5h6.5h6.5q18 0 28 8t11 16l1 9v60l-52 -5q-15 -1 -22 -10.5t-7.5 -15.5t-0.5 -19v-6z" />
<glyph unicode="&#xe1;" horiz-adv-x="519" d="M22 143v41q0 67 39.5 111.5t134.5 44.5q102 -1 102 0q1 6 0 7q0 16 -3 26t-6.5 15.5t-13.5 7.5t-16.5 2.5t-22.5 0.5l-196 -11v113q50 24 99.5 32t128.5 8q114 0 169 -39t55 -145v-357h-156l-38 54q-10 -23 -37 -42.5t-75 -17.5q-45 2 -78.5 17.5t-51 38.5t-26 46.5 t-8.5 46.5zM214 601l76 143h146l-114 -143h-108zM216 175q0 -7 0.5 -12t2.5 -9l3.5 -7t5 -4.5t5 -2.5t6.5 -1.5t6 -0.5h6.5h6.5q18 0 28 8t11 16l1 9v60l-52 -5q-15 -1 -22 -10.5t-7.5 -15.5t-0.5 -19v-6z" />
<glyph unicode="&#xe2;" horiz-adv-x="519" d="M22 143v41q0 67 39.5 111.5t134.5 44.5q102 -1 102 0q1 6 0 7q0 16 -3 26t-6.5 15.5t-13.5 7.5t-16.5 2.5t-22.5 0.5l-196 -11v113q50 24 99.5 32t128.5 8q114 0 169 -39t55 -145v-357h-156l-38 54q-10 -23 -37 -42.5t-75 -17.5q-45 2 -78.5 17.5t-51 38.5t-26 46.5 t-8.5 46.5zM107 601l100 140h131l91 -140h-111l-49 51l-50 -51h-112zM216 175q0 -7 0.5 -12t2.5 -9l3.5 -7t5 -4.5t5 -2.5t6.5 -1.5t6 -0.5h6.5h6.5q18 0 28 8t11 16l1 9v60l-52 -5q-15 -1 -22 -10.5t-7.5 -15.5t-0.5 -19v-6z" />
<glyph unicode="&#xe3;" horiz-adv-x="519" d="M22 143v41q0 67 39.5 111.5t134.5 44.5q102 -1 102 0q1 6 0 7q0 16 -3 26t-6.5 15.5t-13.5 7.5t-16.5 2.5t-22.5 0.5l-196 -11v113q50 24 99.5 32t128.5 8q114 0 169 -39t55 -145v-357h-156l-38 54q-10 -23 -37 -42.5t-75 -17.5q-45 2 -78.5 17.5t-51 38.5t-26 46.5 t-8.5 46.5zM94 668q51 74 123 74q23 0 55 -17.5t51 -17.5q52 -3 93 40l26 -74q-48 -72 -112 -72q-22 0 -59.5 17.5t-56.5 17.5q-48 0 -93 -35zM216 175q0 -7 0.5 -12t2.5 -9l3.5 -7t5 -4.5t5 -2.5t6.5 -1.5t6 -0.5h6.5h6.5q18 0 28 8t11 16l1 9v60l-52 -5q-15 -1 -22 -10.5 t-7.5 -15.5t-0.5 -19v-6z" />
<glyph unicode="&#xe4;" horiz-adv-x="519" d="M22 143v41q0 67 39.5 111.5t134.5 44.5q102 -1 102 0q1 6 0 7q0 16 -3 26t-6.5 15.5t-13.5 7.5t-16.5 2.5t-22.5 0.5l-196 -11v113q50 24 99.5 32t128.5 8q114 0 169 -39t55 -145v-357h-156l-38 54q-10 -23 -37 -42.5t-75 -17.5q-45 2 -78.5 17.5t-51 38.5t-26 46.5 t-8.5 46.5zM75 667q0 27 19.5 46t46.5 19t46 -19t19 -46t-19 -46.5t-46 -19.5t-46.5 19.5t-19.5 46.5zM216 175q0 -7 0.5 -12t2.5 -9l3.5 -7t5 -4.5t5 -2.5t6.5 -1.5t6 -0.5h6.5h6.5q18 0 28 8t11 16l1 9v60l-52 -5q-15 -1 -22 -10.5t-7.5 -15.5t-0.5 -19v-6zM330 667 q0 27 19.5 46t46.5 19t46 -19t19 -46t-19 -46.5t-46 -19.5t-46.5 19.5t-19.5 46.5z" />
<glyph unicode="&#xe5;" horiz-adv-x="519" d="M22 143v41q0 67 39.5 111.5t134.5 44.5q102 -1 102 0q1 6 0 7q0 16 -3 26t-6.5 15.5t-13.5 7.5t-16.5 2.5t-22.5 0.5l-196 -11v113q50 24 99.5 32t128.5 8q114 0 169 -39t55 -145v-357h-156l-38 54q-10 -23 -37 -42.5t-75 -17.5q-45 2 -78.5 17.5t-51 38.5t-26 46.5 t-8.5 46.5zM168 703q0 28 14 51.5t37.5 37.5t50.5 14q42 0 72 -30t30 -73q0 -28 -13.5 -51.5t-37 -37t-51.5 -13.5q-20 0 -39 8t-32.5 21.5t-22 32.5t-8.5 40zM216 175q0 -7 0.5 -12t2.5 -9l3.5 -7t5 -4.5t5 -2.5t6.5 -1.5t6 -0.5h6.5h6.5q18 0 28 8t11 16l1 9v60l-52 -5 q-15 -1 -22 -10.5t-7.5 -15.5t-0.5 -19v-6zM236 703q0 -9 5 -17t12.5 -12t16.5 -4q15 0 24.5 9.5t9.5 23.5t-9.5 24t-24 10t-24.5 -10t-10 -24z" />
<glyph unicode="&#xe6;" horiz-adv-x="820" d="M22 143v31q0 67 39.5 111.5t134.5 44.5q102 -1 102 0q1 16 0 17q0 16 -3 26t-6.5 15.5t-13.5 7.5t-16.5 2.5t-22.5 0.5l-196 -12v114q50 24 99.5 32t128.5 8q110 -4 150 -30q53 24 136 24q139 0 191.5 -36t52.5 -150q0 -77 -39.5 -104.5t-118.5 -27.5h-123 q0 -50 28.5 -64.5t92.5 -14.5q75 0 150 11v-126q-14 -7 -32 -12t-43 -8t-41 -4.5t-48.5 -2.5t-42.5 -1h-46h-37q-97 0 -138 68q-13 -29 -68 -50t-106 -19q-45 2 -78.5 17.5t-51 38.5t-26 46.5t-8.5 46.5zM216 170q0 -12 2 -19t7.5 -10t9 -3.5t12.5 0t11 0.5q18 0 28 8t11 16 l1 9v50l-52 -5q-15 -1 -22 -10.5t-7.5 -15.5t-0.5 -19v-1zM517 330h57q13 0 21.5 9t8.5 23q0 27 -5.5 33t-30.5 6h-7q-17 0 -23 -1t-12.5 -7.5t-8 -21t-0.5 -41.5z" />
<glyph unicode="&#xe7;" horiz-adv-x="490" d="M28 266q0 147 46 208.5t129 61.5h21.5h27t29 -0.5t33.5 -2t34 -4t37.5 -6.5t37 -10t38.5 -13v-114q-60 6 -149 6q-32 0 -44 -1.5t-25.5 -13.5t-17 -38t-3.5 -75q0 -47 3 -71.5t15.5 -37t26 -14.5t45.5 -2q41 0 80 2t58 4l18 2v-114q-26 -19 -64 -28t-62.5 -10.5 t-75.5 -0.5t-63 1q-175 0 -175 271zM144 -105l37 15q21 9 24.5 16t3.5 36h117q0 -78 -26.5 -112t-94.5 -34h-61v79z" />
<glyph unicode="&#xe8;" horiz-adv-x="525" d="M28 268q0 111 23.5 168.5t70.5 78t138 20.5q73 0 114 -6t73 -27t44 -60t12 -105q0 -78 -40 -110t-117 -32h-124q0 -18 4.5 -29.5t9.5 -17.5t19 -8.5t23 -2.5t31 0.5t34 0.5q75 0 150 11v-126q-14 -7 -32 -12t-43 -8t-41 -4.5t-48.5 -2.5t-42.5 -1h-46h-37 q-98 0 -136.5 65t-38.5 208zM100 739h144l78 -143h-110zM222 318h58q13 0 21 9t8 23q0 30 -5.5 40.5t-29.5 10.5q-33 0 -43 -14t-9 -69z" />
<glyph unicode="&#xe9;" horiz-adv-x="525" d="M28 268q0 111 23.5 168.5t70.5 78t138 20.5q73 0 114 -6t73 -27t44 -60t12 -105q0 -78 -40 -110t-117 -32h-124q0 -18 4.5 -29.5t9.5 -17.5t19 -8.5t23 -2.5t31 0.5t34 0.5q75 0 150 11v-126q-14 -7 -32 -12t-43 -8t-41 -4.5t-48.5 -2.5t-42.5 -1h-46h-37 q-98 0 -136.5 65t-38.5 208zM212 596l78 143h144l-112 -143h-110zM222 318h58q13 0 21 9t8 23q0 30 -5.5 40.5t-29.5 10.5q-33 0 -43 -14t-9 -69z" />
<glyph unicode="&#xea;" horiz-adv-x="525" d="M28 268q0 111 23.5 168.5t70.5 78t138 20.5q73 0 114 -6t73 -27t44 -60t12 -105q0 -78 -40 -110t-117 -32h-124q0 -18 4.5 -29.5t9.5 -17.5t19 -8.5t23 -2.5t31 0.5t34 0.5q75 0 150 11v-126q-14 -7 -32 -12t-43 -8t-41 -4.5t-48.5 -2.5t-42.5 -1h-46h-37 q-98 0 -136.5 65t-38.5 208zM99 596l100 140h131l91 -140h-111l-49 51l-50 -51h-112zM222 318h58q13 0 21 9t8 23q0 30 -5.5 40.5t-29.5 10.5q-33 0 -43 -14t-9 -69z" />
<glyph unicode="&#xeb;" horiz-adv-x="525" d="M28 268q0 111 23.5 168.5t70.5 78t138 20.5q73 0 114 -6t73 -27t44 -60t12 -105q0 -78 -40 -110t-117 -32h-124q0 -18 4.5 -29.5t9.5 -17.5t19 -8.5t23 -2.5t31 0.5t34 0.5q75 0 150 11v-126q-14 -7 -32 -12t-43 -8t-41 -4.5t-48.5 -2.5t-42.5 -1h-46h-37 q-98 0 -136.5 65t-38.5 208zM67 662q0 27 19.5 46t46.5 19t46 -19t19 -46t-19 -46.5t-46 -19.5t-46.5 19.5t-19.5 46.5zM222 318h58q13 0 21 9t8 23q0 30 -5.5 40.5t-29.5 10.5q-33 0 -43 -14t-9 -69zM322 662q0 27 19.5 46t46.5 19t46 -19t19 -46t-19 -46.5t-46 -19.5 t-46.5 19.5t-19.5 46.5z" />
<glyph unicode="&#xec;" horiz-adv-x="261" d="M-36 739h144l78 -143h-110zM34 0v531h194v-531h-194z" />
<glyph unicode="&#xed;" horiz-adv-x="261" d="M34 0v531h194v-531h-194zM76 596l78 143h144l-112 -143h-110z" />
<glyph unicode="&#xee;" horiz-adv-x="261" d="M-30 596l100 140h131l91 -140h-111l-49 51l-50 -51h-112zM34 0v531h194v-531h-194z" />
<glyph unicode="&#xef;" horiz-adv-x="261" d="M-62 662q0 27 19.5 46t46.5 19t46 -19t19 -46t-19 -46.5t-46 -19.5t-46.5 19.5t-19.5 46.5zM34 0v531h194v-531h-194zM193 662q0 27 19.5 46t46.5 19t46 -19t19 -46t-19 -46.5t-46 -19.5t-46.5 19.5t-19.5 46.5z" />
<glyph unicode="&#xf0;" horiz-adv-x="543" d="M22 264q0 267 194 267h20q60 0 80 -5q-12 43 -44 68l-88 -50l-32 56l42 24q-38 6 -122 4v155q192 0 294 -61l72 40l32 -56l-48 -27q57 -60 77.5 -158t20.5 -257q0 -140 -53 -202t-141 -62h-110q-102 0 -148 64t-46 200zM216 264q0 -58 6 -73t36 -15h28q29 0 34.5 13 t5.5 75q0 67 -5.5 80t-34.5 13h-28q-26 0 -34 -17.5t-8 -75.5z" />
<glyph unicode="&#xf1;" horiz-adv-x="555" d="M34 0v531h162l32 -52q22 21 35.5 31t43 20t67.5 10q50 0 82 -14.5t47 -44.5t20 -61.5t5 -79.5v-340h-194v344q0 30 -8 41t-25 11q-57 0 -73 -37v-359h-194zM107 667q51 74 123 74q22 0 54 -17.5t52 -17.5q52 -3 93 40l26 -74q-48 -72 -112 -72q-22 0 -59.5 17.5 t-56.5 17.5q-48 0 -93 -35z" />
<glyph unicode="&#xf2;" horiz-adv-x="554" d="M28 258q0 160 54.5 219t194.5 59t194.5 -60t54.5 -218q0 -149 -53.5 -206t-195.5 -57q-139 0 -194 59.5t-55 203.5zM110 739h144l78 -143h-110zM222 258q0 -80 8.5 -99.5t46.5 -19.5q40 0 47.5 17t7.5 102q0 92 -7.5 113t-47.5 21q-42 0 -48.5 -20t-6.5 -114z" />
<glyph unicode="&#xf3;" horiz-adv-x="554" d="M28 258q0 160 54.5 219t194.5 59t194.5 -60t54.5 -218q0 -149 -53.5 -206t-195.5 -57q-139 0 -194 59.5t-55 203.5zM222 258q0 -80 8.5 -99.5t46.5 -19.5q40 0 47.5 17t7.5 102q0 92 -7.5 113t-47.5 21q-42 0 -48.5 -20t-6.5 -114zM222 596l78 143h144l-112 -143h-110z " />
<glyph unicode="&#xf4;" horiz-adv-x="554" d="M28 258q0 160 54.5 219t194.5 59t194.5 -60t54.5 -218q0 -149 -53.5 -206t-195.5 -57q-139 0 -194 59.5t-55 203.5zM116 596l100 140h131l91 -140h-111l-49 51l-50 -51h-112zM222 258q0 -80 8.5 -99.5t46.5 -19.5q40 0 47.5 17t7.5 102q0 92 -7.5 113t-47.5 21 q-42 0 -48.5 -20t-6.5 -114z" />
<glyph unicode="&#xf5;" horiz-adv-x="554" d="M28 258q0 160 54.5 219t194.5 59t194.5 -60t54.5 -218q0 -149 -53.5 -206t-195.5 -57q-139 0 -194 59.5t-55 203.5zM103 663q51 74 123 74q22 0 54 -17.5t52 -17.5q52 -3 93 40l26 -74q-48 -72 -112 -72q-22 0 -59.5 17.5t-56.5 17.5q-48 0 -93 -35zM222 258 q0 -80 8.5 -99.5t46.5 -19.5q40 0 47.5 17t7.5 102q0 92 -7.5 113t-47.5 21q-42 0 -48.5 -20t-6.5 -114z" />
<glyph unicode="&#xf6;" horiz-adv-x="554" d="M28 258q0 160 54.5 219t194.5 59t194.5 -60t54.5 -218q0 -149 -53.5 -206t-195.5 -57q-139 0 -194 59.5t-55 203.5zM84 662q0 27 19.5 46t46.5 19t46 -19t19 -46t-19 -46.5t-46 -19.5t-46.5 19.5t-19.5 46.5zM222 258q0 -80 8.5 -99.5t46.5 -19.5q40 0 47.5 17t7.5 102 q0 92 -7.5 113t-47.5 21q-42 0 -48.5 -20t-6.5 -114zM339 662q0 27 19.5 46t46.5 19t46 -19t19 -46t-19 -46.5t-46 -19.5t-46.5 19.5t-19.5 46.5z" />
<glyph unicode="&#xf7;" horiz-adv-x="483" d="M28 276v154h427v-154h-427zM165 140v77q0 25 24 25h93q25 0 25 -25v-77q0 -23 -25 -23h-93q-24 0 -24 23zM165 483v77q0 25 24 25h93q25 0 25 -25v-77q0 -23 -25 -23h-93q-24 0 -24 23z" />
<glyph unicode="&#xf8;" horiz-adv-x="592" d="M28 0l61 72q-41 59 -41 186q0 160 54.5 219t194.5 59q105 0 159 -31l22 26h86l-60 -71q42 -62 42 -202q0 -149 -53.5 -206t-195.5 -57q-105 0 -160 32l-23 -27h-86zM242 252l102 120q-9 20 -47 20q-42 0 -48.5 -20t-6.5 -114v-6zM250 160q8 -21 47 -21q40 0 47.5 17 t7.5 102v23z" />
<glyph unicode="&#xf9;" horiz-adv-x="555" d="M28 191v340h194v-344q0 -30 8 -41t25 -11q57 0 73 37v359h194v-531h-162l-32 52q-10 -6 -30 -21t-31 -21.5t-33.5 -12.5t-51.5 -6q-50 0 -82 14.5t-47 44.5t-20 61.5t-5 79.5zM108 739h144l78 -143h-110z" />
<glyph unicode="&#xfa;" horiz-adv-x="555" d="M28 191v340h194v-344q0 -30 8 -41t25 -11q57 0 73 37v359h194v-531h-162l-32 52q-10 -6 -30 -21t-31 -21.5t-33.5 -12.5t-51.5 -6q-50 0 -82 14.5t-47 44.5t-20 61.5t-5 79.5zM220 596l78 143h144l-112 -143h-110z" />
<glyph unicode="&#xfb;" horiz-adv-x="555" d="M28 191v340h194v-344q0 -30 8 -41t25 -11q57 0 73 37v359h194v-531h-162l-32 52q-10 -6 -30 -21t-31 -21.5t-33.5 -12.5t-51.5 -6q-50 0 -82 14.5t-47 44.5t-20 61.5t-5 79.5zM114 596l100 140h131l91 -140h-111l-49 51l-50 -51h-112z" />
<glyph unicode="&#xfc;" horiz-adv-x="555" d="M28 191v340h194v-344q0 -30 8 -41t25 -11q57 0 73 37v359h194v-531h-162l-32 52q-10 -6 -30 -21t-31 -21.5t-33.5 -12.5t-51.5 -6q-50 0 -82 14.5t-47 44.5t-20 61.5t-5 79.5zM82 662q0 27 19.5 46t46.5 19t46 -19t19 -46t-19 -46.5t-46 -19.5t-46.5 19.5t-19.5 46.5z M337 662q0 27 19.5 46t46.5 19t46 -19t19 -46t-19 -46.5t-46 -19.5t-46.5 19.5t-19.5 46.5z" />
<glyph unicode="&#xfd;" horiz-adv-x="599" d="M12 531h201l61 -336q7 -37 43 -39l69 375h197l-143 -699l-71 -102h-144l59 270q-154 0 -189 156zM243 596l77 143h145l-113 -143h-109z" />
<glyph unicode="&#xfe;" horiz-adv-x="558" d="M39 -270v1052h194v-307q34 28 62 41.5t69 13.5q90 0 131 -63.5t41 -205.5q0 -54 -4 -93.5t-15 -75.5t-30 -58.5t-50 -35.5t-73 -13q-79 0 -131 34v-289h-194zM233 139q14 -15 65 -15q24 0 34 24t10 103q0 76 -10 99t-34 23q-52 0 -65 -22v-212z" />
<glyph unicode="&#xff;" horiz-adv-x="599" d="M12 531h201l61 -336q7 -37 43 -39l69 375h197l-143 -699l-71 -102h-144l59 270q-154 0 -189 156zM104 662q0 27 19.5 46t47 19t46.5 -19t19 -46t-19.5 -46.5t-46 -19.5t-46.5 19.5t-20 46.5zM360 662q0 27 19 46t46 19t46 -19t19 -46t-19 -46.5t-46 -19.5t-46 19.5 t-19 46.5z" />
<glyph unicode="&#x152;" horiz-adv-x="971" d="M37 361q0 72 8.5 128.5t22 96t36 67.5t46 44t57 25.5t63.5 12t70 2.5q115 0 174 -30q46 29 120 25q190 0 307 -16v-163h-247q-24 0 -36.5 -9.5t-14 -19t-1.5 -27.5v-44l249 -11v-161l-249 -9v-44q0 -19 5 -30.5t16 -15.5t18.5 -5t22.5 -1h237v-162q-46 -6 -120 -10.5 t-125 -5.5l-52 -1q-87 -5 -136 26q-58 -27 -168 -27q-51 0 -85.5 4t-72.5 16.5t-62 37.5t-44 64.5t-29.5 100t-9.5 142.5zM231 361q0 -119 19 -155t90 -36q65 0 86.5 37.5t21.5 153.5q0 128 -20 165t-88 37q-47 0 -68.5 -13.5t-31 -55.5t-9.5 -133z" />
<glyph unicode="&#x153;" horiz-adv-x="829" d="M28 258q0 160 54.5 219t194.5 59q93 0 145 -24q47 23 142 23q73 0 114 -6t73 -27t44 -60t12 -105q0 -78 -40 -110t-117 -32h-124q0 -18 4.5 -29.5t9.5 -17.5t19 -8.5t23 -2.5t31 0.5t34 0.5q75 0 150 11v-126q-14 -7 -32 -12t-43 -8t-41 -4.5t-48.5 -2.5t-42.5 -1h-46 h-37q-53 0 -90 20q-51 -20 -140 -20q-139 0 -194 59.5t-55 203.5zM222 258q0 -80 8.5 -99.5t46.5 -19.5q40 0 47.5 18t7.5 95v16q0 84 -8 104t-47 20q-42 0 -48.5 -20t-6.5 -114zM526 318h58q13 0 21 9t8 23q0 30 -5.5 40.5t-29.5 10.5q-33 0 -43 -14t-9 -69z" />
<glyph unicode="&#x178;" horiz-adv-x="679" d="M25 732h211l105 -324l113 324h211l-231 -532v-200h-194v200zM152 863q0 27 19.5 46t46.5 19t46 -19t19 -46t-19 -46.5t-46 -19.5t-46.5 19.5t-19.5 46.5zM407 863q0 27 19.5 46t46.5 19t46 -19t19 -46t-19 -46.5t-46 -19.5t-46.5 19.5t-19.5 46.5z" />
<glyph unicode="&#x2c6;" horiz-adv-x="378" d="M28 531l100 140h131l91 -140h-111l-49 51l-50 -51h-112z" />
<glyph unicode="&#x2dc;" horiz-adv-x="404" d="M28 598q51 74 123 74q23 0 55 -17.5t51 -17.5q52 -3 93 40l26 -74q-48 -72 -112 -72q-22 0 -59.5 17.5t-56.5 17.5q-48 0 -93 -35z" />
<glyph unicode="&#x2000;" horiz-adv-x="471" />
<glyph unicode="&#x2001;" horiz-adv-x="943" />
<glyph unicode="&#x2002;" horiz-adv-x="471" />
<glyph unicode="&#x2003;" horiz-adv-x="943" />
<glyph unicode="&#x2004;" horiz-adv-x="314" />
<glyph unicode="&#x2005;" horiz-adv-x="235" />
<glyph unicode="&#x2006;" horiz-adv-x="157" />
<glyph unicode="&#x2007;" horiz-adv-x="157" />
<glyph unicode="&#x2008;" horiz-adv-x="117" />
<glyph unicode="&#x2009;" horiz-adv-x="188" />
<glyph unicode="&#x200a;" horiz-adv-x="52" />
<glyph unicode="&#x2010;" horiz-adv-x="354" d="M20 213v154h314v-154h-314z" />
<glyph unicode="&#x2011;" horiz-adv-x="354" d="M20 213v154h314v-154h-314z" />
<glyph unicode="&#x2012;" horiz-adv-x="354" d="M20 213v154h314v-154h-314z" />
<glyph unicode="&#x2013;" horiz-adv-x="513" d="M20 210v155h473v-155h-473z" />
<glyph unicode="&#x2014;" horiz-adv-x="736" d="M20 212v155h696v-155h-696z" />
<glyph unicode="&#x2018;" horiz-adv-x="250" d="M45 483v160q0 37 16 60.5t38.5 31t45.5 9.5t39 -1l16 -3v-72q-31 0 -31 -31v-15h11q25 0 25 -25v-114q0 -27 -25 -27h-111q-24 0 -24 27z" />
<glyph unicode="&#x2019;" horiz-adv-x="250" d="M45 603v114q0 27 25 27h111q24 0 24 -27v-160q0 -37 -16 -60.5t-38.5 -31t-45.5 -9.5t-39 1l-16 3v72q31 0 31 31v15h-11q-25 0 -25 25z" />
<glyph unicode="&#x201a;" horiz-adv-x="250" d="M45 25v114q0 27 25 27h111q24 0 24 -27v-160q0 -37 -16 -60.5t-38.5 -31t-45.5 -9.5t-39 1l-16 3v72q31 0 31 31v15h-11q-25 0 -25 25z" />
<glyph unicode="&#x201c;" horiz-adv-x="432" d="M41 481v160q0 37 16 60.5t38.5 31t45.5 9.5t39 -1l16 -3v-72q-31 0 -31 -31v-15h11q25 0 25 -25v-114q0 -27 -25 -27h-111q-24 0 -24 27zM232 481v160q0 37 16 60.5t39 31t45.5 9.5t38.5 -1l16 -3v-72q-31 0 -31 -31v-15h11q25 0 25 -25v-114q0 -27 -25 -27h-111 q-24 0 -24 27z" />
<glyph unicode="&#x201d;" horiz-adv-x="432" d="M41 601v114q0 27 25 27h111q24 0 24 -27v-160q0 -37 -16 -60.5t-38.5 -31t-45.5 -9.5t-39 1l-16 3v72q31 0 31 31v15h-11q-25 0 -25 25zM232 601v114q0 27 25 27h111q24 0 24 -27v-160q0 -37 -16 -60.5t-39 -31t-45.5 -9.5t-38.5 1l-16 3v72q31 0 31 31v15h-11 q-25 0 -25 25z" />
<glyph unicode="&#x201e;" horiz-adv-x="432" d="M41 25v114q0 27 25 27h111q24 0 24 -27v-160q0 -37 -16 -60.5t-38.5 -31t-45.5 -9.5t-39 1l-16 3v72q31 0 31 31v15h-11q-25 0 -25 25zM232 25v114q0 27 25 27h111q24 0 24 -27v-160q0 -37 -16 -60.5t-39 -31t-45.5 -9.5t-38.5 1l-16 3v72q31 0 31 31v15h-11 q-25 0 -25 25z" />
<glyph unicode="&#x2022;" horiz-adv-x="307" d="M48 306v150q0 35 33 35h144q35 0 35 -35v-150q0 -32 -35 -32h-144q-33 0 -33 32z" />
<glyph unicode="&#x2026;" horiz-adv-x="801" d="M24 23v117q0 25 24 25h113q25 0 25 -25v-117q0 -23 -25 -23h-113q-24 0 -24 23zM296 23v117q0 25 24 25h113q25 0 25 -25v-117q0 -23 -25 -23h-113q-24 0 -24 23zM568 23v117q0 25 24 25h113q25 0 25 -25v-117q0 -23 -25 -23h-113q-24 0 -24 23z" />
<glyph unicode="&#x202f;" horiz-adv-x="188" />
<glyph unicode="&#x2039;" horiz-adv-x="356" d="M28 354l206 203l97 -95l-110 -108l111 -110l-93 -98z" />
<glyph unicode="&#x203a;" horiz-adv-x="356" d="M28 244l111 110l-110 108l97 95l206 -203l-211 -208z" />
<glyph unicode="&#x205f;" horiz-adv-x="235" />
<glyph unicode="&#x20ac;" horiz-adv-x="623" d="M11 245v87l68 7v41l-68 8v83l68 9q0 30 2.5 55.5t17 66t39.5 68.5t75.5 49t119.5 21q56 0 137 -9.5t138 -30.5v-139q-133 15 -215 15q-45 0 -70 -4.5t-35.5 -19.5t-12.5 -27.5t-2 -44.5l234 -7v-86l-234 -7v-41l234 -7v-87q-15 0 -39.5 -0.5t-76 -2t-85.5 -2.5t-33 -2 q0 -26 7.5 -44t17 -27t29 -13.5t31 -5t35.5 -0.5q38 0 93 7t90 13l36 7v-136q-47 -27 -111.5 -36t-167.5 -9q-30 0 -57 3.5t-65 18t-65.5 39t-47 72t-19.5 111.5z" />
<glyph unicode="&#x2122;" horiz-adv-x="716" d="M11 638v94h299v-94h-92v-255h-114v255h-93zM309 383l47 349h121l33 -179l22 179h125l51 -349h-114l-20 170l-13 -170h-103l-20 168l-15 -168h-114z" />
<glyph unicode="&#xe000;" horiz-adv-x="530" d="M0 0v530h530v-530h-530z" />
<glyph unicode="&#xfb03;" horiz-adv-x="1037" d="M11 397v117l99 17v89q0 62 40 109t123 47q89 0 140 -24v-112l-63 1q-35 1 -42 -27q-3 -11 -5 -39v-8v-36h171v29q0 94 63.5 158.5t170.5 67.5q56 1 149.5 -5t119.5 -19v-111l-193 1q-23 0 -40 -3.5t-36 -13t-29.5 -31t-10.5 -54.5v-19l336 -10v-521h-194v397h-142v-397 h-194v397h-171v-397h-195v397h-97z" />
<glyph unicode="&#xfb04;" horiz-adv-x="1121" d="M11 397v117l99 17v89q0 62 40 109t123 47q89 0 140 -24v-112l-63 1q-31 1 -38.5 -15t-8.5 -59v-36h176v39q0 67 17.5 111.5t50.5 66.5t69.5 30t86.5 8l322 -3v-554q0 -33 5 -53t12 -27.5t20 -14.5q42 -21 49 -21v-113h-138q-73 0 -107.5 43t-34.5 146v462l-92 1 q-37 0 -51.5 -17.5t-14.5 -64.5v-39h98v-134h-98v-397h-194v397h-176v-397h-195v397h-97z" />
</font>
</defs>
</svg>
