<?xml version="1.0" standalone="no"?>
<!DOCTYPE svg PUBLIC "-//W3C//DTD SVG 1.1//EN" "http://www.w3.org/Graphics/SVG/1.1/DTD/svg11.dtd" >
<svg xmlns="http://www.w3.org/2000/svg">
<metadata></metadata>
<defs>
<font id="kavoonregular" horiz-adv-x="0" >
<font-face units-per-em="2048" ascent="1638" descent="-410" />
<missing-glyph horiz-adv-x="451" />
<glyph unicode="&#xfb01;" horiz-adv-x="1604" d="M-23 -316q-2 60 17.5 120.5t58.5 103.5l176 -53q16 45 12 117q-2 54 -10.5 190.5t-14.5 265t-6 226.5q0 34 2 92l1 24l-133 18q-24 77 -22 197q64 34 176 61l4 16q-152 138 -145 292q6 130 114 199.5t289 69.5q162 0 320 -44q14 -42 14 -98q0 -63 -15.5 -130.5 t-42.5 -116.5q-175 57 -284 73q-15 -3 -27.5 -15.5t-14.5 -23.5q9 -46 38.5 -107t66.5 -111l278 51q35 -52 35 -149q0 -59 -12.5 -113t-30.5 -74q-13 -1 -38 -1q-97 0 -177 24q-2 -51 -6 -154t-6 -142q-2 -48 -7 -184.5t-10 -226t-14 -168.5q-18 -167 -72 -239 q-79 -106 -260 -106q-72 0 -143.5 27.5t-110.5 88.5zM929 1037q0 4 0.5 13.5t0.5 14.5q34 43 116.5 81.5t176.5 38.5q140 0 199 -63t59 -196q0 -119 -47 -333.5t-84 -299.5l2 -2l148 54q75 -64 87 -170q-5 -8 -14 -21t-40 -46.5t-66.5 -59.5t-91.5 -47t-116 -21 q-215 0 -215 230q0 331 33 632l-125 21q-23 91 -23 174zM1001 1435q0 88 57.5 143t183.5 55t183.5 -55t57.5 -143q0 -76 -73.5 -129.5t-167.5 -53.5q-97 0 -169 60t-72 123z" />
<glyph unicode="&#xfb02;" horiz-adv-x="1589" d="M-23 -316q-2 60 17.5 120.5t58.5 103.5l176 -53q16 45 12 117q-2 54 -10.5 190.5t-14.5 265t-6 226.5q0 34 2 92l1 24l-133 18q-24 77 -22 197q64 34 176 61l4 16q-152 138 -145 292q6 130 114 199.5t289 69.5q162 0 320 -44q14 -42 14 -98q0 -63 -15.5 -130.5 t-42.5 -116.5q-175 57 -284 73q-15 -3 -27.5 -15.5t-14.5 -23.5q9 -46 38.5 -107t66.5 -111l278 51q35 -52 35 -149q0 -59 -12.5 -113t-30.5 -74q-13 -1 -38 -1q-97 0 -177 24q-2 -51 -6 -154t-6 -142q-2 -48 -7 -184.5t-10 -226t-14 -168.5q-18 -167 -72 -239 q-79 -106 -260 -106q-72 0 -143.5 27.5t-110.5 88.5zM905 1503q34 43 116.5 81.5t176.5 38.5q128 0 195 -65.5t64 -193.5q-3 -168 -37 -503t-85 -568l2 -2l148 62q78 -67 91 -178q-5 -8 -14 -21t-41 -46.5t-68 -59.5t-92.5 -47t-116.5 -21q-99 0 -160.5 55t-58.5 188 q1 33 1.5 236t6.5 416.5t19 411.5l-123 21q-26 108 -24 195z" />
<glyph unicode="&#xfb03;" horiz-adv-x="2492" d="M-23 -316q-2 60 17.5 120.5t58.5 103.5l176 -53q16 45 12 117q-2 54 -10.5 190.5t-14.5 265t-6 226.5q0 34 2 92l1 24l-133 18q-24 77 -22 197q64 34 176 61l4 16q-152 138 -145 292q6 130 114 199.5t289 69.5q162 0 320 -44q14 -42 14 -98q0 -63 -15.5 -130.5 t-42.5 -116.5q-175 57 -284 73q-15 -3 -27.5 -15.5t-14.5 -23.5q9 -46 38.5 -107t66.5 -111l278 51q35 -52 35 -149q0 -59 -12.5 -113t-30.5 -74q-13 -1 -38 -1q-97 0 -177 24q-2 -51 -6 -154t-6 -142q-2 -48 -7 -184.5t-10 -226t-14 -168.5q-18 -167 -72 -239 q-79 -106 -260 -106q-72 0 -143.5 27.5t-110.5 88.5zM865 -316q-2 60 17.5 120.5t58.5 103.5l176 -53q16 45 12 117q-2 54 -10.5 190.5t-14.5 265t-6 226.5q0 34 2 92l1 24l-133 18q-24 77 -22 197q64 34 176 61l4 16q-152 138 -145 292q6 130 114 199.5t289 69.5 q162 0 320 -44q14 -42 14 -98q0 -63 -15.5 -130.5t-42.5 -116.5q-175 57 -284 73q-15 -3 -27.5 -15.5t-14.5 -23.5q9 -46 38.5 -107t66.5 -111l278 51q35 -52 35 -149q0 -59 -12.5 -113t-30.5 -74q-13 -1 -38 -1q-97 0 -177 24q-2 -51 -6 -154t-6 -142q-2 -48 -7 -184.5 t-10 -226t-14 -168.5q-18 -167 -72 -239q-79 -106 -260 -106q-72 0 -143.5 27.5t-110.5 88.5zM1817 1037q0 4 0.5 13.5t0.5 14.5q34 43 116.5 81.5t176.5 38.5q140 0 199 -63t59 -196q0 -119 -47 -333.5t-84 -299.5l2 -2l148 54q75 -64 87 -170q-5 -8 -14 -21t-40 -46.5 t-66.5 -59.5t-91.5 -47t-116 -21q-215 0 -215 230q0 331 33 632l-125 21q-23 91 -23 174zM1889 1435q0 88 57.5 143t183.5 55t183.5 -55t57.5 -143q0 -76 -73.5 -129.5t-167.5 -53.5q-97 0 -169 60t-72 123z" />
<glyph unicode="&#xfb04;" horiz-adv-x="2477" d="M-23 -316q-2 60 17.5 120.5t58.5 103.5l176 -53q16 45 12 117q-2 54 -10.5 190.5t-14.5 265t-6 226.5q0 34 2 92l1 24l-133 18q-24 77 -22 197q64 34 176 61l4 16q-152 138 -145 292q6 130 114 199.5t289 69.5q162 0 320 -44q14 -42 14 -98q0 -63 -15.5 -130.5 t-42.5 -116.5q-175 57 -284 73q-15 -3 -27.5 -15.5t-14.5 -23.5q9 -46 38.5 -107t66.5 -111l278 51q35 -52 35 -149q0 -59 -12.5 -113t-30.5 -74q-13 -1 -38 -1q-97 0 -177 24q-2 -51 -6 -154t-6 -142q-2 -48 -7 -184.5t-10 -226t-14 -168.5q-18 -167 -72 -239 q-79 -106 -260 -106q-72 0 -143.5 27.5t-110.5 88.5zM865 -316q-2 60 17.5 120.5t58.5 103.5l176 -53q16 45 12 117q-2 54 -10.5 190.5t-14.5 265t-6 226.5q0 34 2 92l1 24l-133 18q-24 77 -22 197q64 34 176 61l4 16q-152 138 -145 292q6 130 114 199.5t289 69.5 q162 0 320 -44q14 -42 14 -98q0 -63 -15.5 -130.5t-42.5 -116.5q-175 57 -284 73q-15 -3 -27.5 -15.5t-14.5 -23.5q9 -46 38.5 -107t66.5 -111l278 51q35 -52 35 -149q0 -59 -12.5 -113t-30.5 -74q-13 -1 -38 -1q-97 0 -177 24q-2 -51 -6 -154t-6 -142q-2 -48 -7 -184.5 t-10 -226t-14 -168.5q-18 -167 -72 -239q-79 -106 -260 -106q-72 0 -143.5 27.5t-110.5 88.5zM1793 1503q34 43 116.5 81.5t176.5 38.5q128 0 195 -65.5t64 -193.5q-3 -168 -37 -503t-85 -568l2 -2l148 62q78 -67 91 -178q-5 -8 -14 -21t-41 -46.5t-68 -59.5t-92.5 -47 t-116.5 -21q-99 0 -160.5 55t-58.5 188q1 33 1.5 236t6.5 416.5t19 411.5l-123 21q-26 108 -24 195z" />
<glyph />
<glyph />
<glyph horiz-adv-x="682" />
<glyph />
<glyph />
<glyph />
<glyph />
<glyph />
<glyph />
<glyph />
<glyph />
<glyph unicode="&#x9;" />
<glyph unicode="&#xa;" />
<glyph unicode="&#xd;" />
<glyph />
<glyph />
<glyph />
<glyph />
<glyph />
<glyph />
<glyph />
<glyph />
<glyph />
<glyph />
<glyph />
<glyph />
<glyph unicode=" "  horiz-adv-x="451" />
<glyph unicode="&#x09;" horiz-adv-x="451" />
<glyph unicode="&#xa0;" horiz-adv-x="451" />
<glyph unicode="!" horiz-adv-x="681" d="M88 199q0 87 60.5 144.5t192.5 57.5t192.5 -57.5t60.5 -144.5q0 -88 -78 -153.5t-175 -65.5t-175 65.5t-78 153.5zM97 1530q52 36 151 64.5t188 28.5q75 0 122 -23q0 -253 -72 -994q-21 -36 -65.5 -57.5t-94.5 -21.5q-82 0 -134 52z" />
<glyph unicode="&#x22;" horiz-adv-x="955" d="M60 1518q41 40 96 64.5t112 27.5q108 3 171 -77q-8 -117 -39 -280.5t-65 -268.5h-171q-63 246 -104 534zM516 1518q41 40 96 64.5t112 27.5q108 3 171 -77q-8 -117 -39 -280.5t-65 -268.5h-171q-63 246 -104 534z" />
<glyph unicode="#" horiz-adv-x="1451" d="M37 292q0 75 37 144h208q7 50 20.5 148t19.5 148l-227 11q-17 61 -17 106q0 54 32 137h245q8 50 23.5 151t23.5 151q36 6 75 6q130 0 263 -81l-48 -227h212l47 301q53 9 92 9q127 0 238 -83l-49 -227h197q12 -51 12 -97q0 -77 -34 -151h-224l-54 -302h228q15 -41 15 -95 q0 -92 -41 -179l-266 13l-65 -313q-139 -3 -287 76l50 243q-34 1 -102 4t-103 4l-57 -328q-162 8 -296 77l43 261l-207 19q-4 33 -4 74zM609 436h204l48 292h-198z" />
<glyph unicode="$" horiz-adv-x="1110" d="M40 1078q0 116 32.5 206t111 157.5t198.5 92.5l-24 265q42 30 122 53t152 23q62 0 99 -19q2 -87 -16 -311q96 -5 178 -22q109 -66 172 -150q0 -109 -30 -231t-71 -168q-44 -22 -120 -22t-120 26l-31 200q-58 16 -123 24t-88 7q-64 -30 -64 -113q0 -27 11 -51.5t25.5 -41 t41 -34t45 -27t50 -24.5t45.5 -22q48 -25 72.5 -38t67 -38t66 -41.5t57.5 -43.5t53 -49.5t41.5 -54t33.5 -63t19 -70.5t8 -81q0 -160 -90 -264t-233 -145q-18 -186 -25 -254q-17 -29 -53 -46t-77 -17q-66 0 -108 42l-23 249q-68 3 -133.5 19.5t-138 60.5t-113.5 111 q-4 19 -4 46q0 112 78 201q95 -42 156 -65.5t151.5 -45t170.5 -21.5q49 0 79 15q8 18 11 53q1 26 -11.5 48.5t-40.5 42.5t-48 32t-59 30t-47 22q-50 25 -76 39t-72 40t-71.5 44.5t-63 48.5t-58.5 56t-46 63t-38 74t-22 84t-9 98z" />
<glyph unicode="%" horiz-adv-x="1910" d="M-29 1120q0 125 40.5 219.5t131 152t223.5 57.5q104 0 180 -31t119.5 -88.5t63.5 -130.5t20 -165q0 -93 -24.5 -172t-72 -139.5t-124.5 -95t-177 -34.5q-101 0 -176 32.5t-118.5 91.5t-64.5 134t-21 169zM266 1127q0 -85 22 -181q34 -24 89 -24q26 0 47 7q17 79 17 153 q0 75 -22 168q-76 18 -132 16q-21 -69 -21 -139zM315 20l878 1572q60 2 162 -44t146 -97l-973 -1562q-69 14 -134.5 50t-78.5 81zM1083 406q0 125 40.5 219.5t131 152t223.5 57.5q104 0 180 -31t119.5 -88.5t63.5 -130.5t20 -165q0 -93 -24.5 -172t-72 -139.5t-124.5 -95 t-177 -34.5q-101 0 -176 32.5t-118.5 91.5t-64.5 134t-21 169zM1378 413q0 -85 22 -181q34 -24 89 -24q26 0 47 7q17 79 17 153q0 75 -22 168q-76 18 -132 16q-21 -69 -21 -139z" />
<glyph unicode="&#x26;" horiz-adv-x="1411" d="M69 417q0 40 8.5 76t20.5 64t34 55.5t41 46.5t49.5 42t50.5 36t53 34q-37 23 -73 56.5t-69.5 77.5t-54.5 99.5t-21 112.5q0 65 13.5 121t38 100t59 79t77 60t92 41.5t103 24.5t111.5 8q325 0 414 -106q5 -32 5 -55q0 -109 -79 -221q-63 30 -138.5 49.5t-121.5 25t-73 5.5 q-73 0 -125 -25q-10 -14 -15 -47t-5 -62q39 -75 183 -163q82 55 275.5 136t271.5 81q51 0 106.5 -26.5t67.5 -49.5q17 -35 17 -94q0 -97 -39 -207t-77 -128h-152l-23 187q-72 2 -214 -44q137 -98 193.5 -186.5t56.5 -184.5q0 -205 -146 -330t-379 -125q-105 0 -200.5 28.5 t-171 82t-120 138t-44.5 187.5zM378 446q4 -51 29.5 -105t61.5 -79q63 -21 135 -21q97 0 151 43q6 12 10.5 42.5t6.5 58t2 45.5q-86 122 -236 193q-52 -32 -97.5 -79.5t-62.5 -97.5z" />
<glyph unicode="'" horiz-adv-x="499" d="M60 1518q41 40 96 64.5t112 27.5q108 3 171 -77q-8 -117 -39 -280.5t-65 -268.5h-171q-63 246 -104 534z" />
<glyph unicode="(" horiz-adv-x="847" d="M127 820q0 195 47 390.5t152 385t256 321.5q51 -16 140.5 -90.5t104.5 -126.5q-170 -184 -259 -418.5t-89 -495.5q0 -532 301 -930q-7 -45 -65 -111t-98 -66q-152 121 -265 315.5t-169 407.5t-56 418z" />
<glyph unicode=")" horiz-adv-x="847" d="M20 1700q15 52 104.5 126.5t140.5 90.5q151 -132 256 -321.5t152 -385t47 -390.5q0 -205 -56 -418t-169 -407.5t-265 -315.5q-40 0 -98 66t-65 111q301 398 301 930q0 261 -89 495.5t-259 418.5z" />
<glyph unicode="*" horiz-adv-x="1153" d="M60 1078q39 233 151 340q183 -108 289 -254l14 8q-36 57 -60 161.5t-24 190.5q0 45 7 70q91 83 216 83q99 0 165 -33l-145 -480l13 -11q143 114 333 236q40 -37 61 -98t21 -130q0 -66 -20 -128q-69 -16 -159 -16q-92 0 -225 20l-5 -11q163 -93 324 -257 q-49 -88 -128.5 -137t-172.5 -47q-100 168 -165 370l-14 2q-40 -212 -129 -389q-97 -6 -174.5 50.5t-105.5 132.5q133 163 324 271l-2 12q-6 0 -26 -1t-26 -1q-192 0 -337 46z" />
<glyph unicode="+" horiz-adv-x="1140" d="M107 498q0 52 14 88t49 94l243 18l-41 314q34 55 96.5 84.5t137.5 29.5q89 0 133 -41l-38 -365l320 25q9 -39 9 -69q0 -99 -78 -253h-234v-326q-64 -74 -153 -74q-58 0 -128 27l-13 372h-313q-4 36 -4 76z" />
<glyph unicode="," horiz-adv-x="641" d="M18 -206l171 595q66 18 131.5 11.5t118.5 -29t90 -68t47 -106.5q-53 -124 -176.5 -274.5t-231.5 -223.5z" />
<glyph unicode="-" horiz-adv-x="1024" d="M100 524q0 82 40 165l753 45q15 -42 15 -100q0 -101 -49 -223q-123 -4 -275 -4q-245 0 -472 13q-12 57 -12 104z" />
<glyph unicode="." horiz-adv-x="682" d="M88 199q0 87 60.5 144.5t192.5 57.5t192.5 -57.5t60.5 -144.5q0 -88 -78 -153.5t-175 -65.5t-175 65.5t-78 153.5z" />
<glyph unicode="/" horiz-adv-x="795" d="M100 -38l316 1641q27 9 74 9q70 0 153 -18.5t126 -45.5l-405 -1659h-18q-141 0 -246 73z" />
<glyph unicode="0" horiz-adv-x="1266" d="M84 581q2 107 23.5 197.5t65 166t108 128.5t156 82.5t205.5 29.5q550 0 540 -604q-3 -177 -64 -310t-188.5 -212t-308.5 -79q-274 0 -408 161t-129 440zM476 584q0 -156 39 -295q25 -26 154 -26q65 0 76 8q48 82 48 281q0 181 -39 264q-21 24 -126 26q-80 2 -102 -11 q-50 -82 -50 -247z" />
<glyph unicode="1" horiz-adv-x="785" d="M43 939q0 130 38 226h377q49 0 84 -16t53 -38t28.5 -60.5t12.5 -69t2 -76.5q0 -128 -10.5 -282t-27 -337.5t-22.5 -262.5q-81 -44 -180 -44q-86 0 -162 31q-12 195 -12 520q0 152 12 324q-68 14 -121 37.5t-72 47.5z" />
<glyph unicode="2" horiz-adv-x="1102" d="M35 235q0 158 151 245q20 0 167 -42q63 52 133.5 147t89.5 165q-8 44 -29 62q-39 8 -84 8q-118 0 -299 -81q-42 49 -69.5 121.5t-27.5 151.5q0 18 1 27q10 10 19 18t49 34.5t83 44.5t115.5 33.5t151.5 15.5t148.5 -9.5t136 -33t114 -60t76.5 -94t29 -131.5 q0 -76 -35.5 -148t-76 -118t-113 -97.5t-104 -69t-92.5 -48.5l-3 -1.5t-2.5 -1.5t-3 -1.5t-2.5 -1.5v-15l245 -28l60 112l164 -13q43 -111 43 -188q0 -107 -68.5 -182.5t-168.5 -75.5q-178 0 -395 180q-45 -78 -104 -121t-147 -49q-67 18 -109.5 87.5t-42.5 157.5z" />
<glyph unicode="3" horiz-adv-x="1140" d="M43 -77q20 65 54 121t78 83q227 -139 412 -139q53 0 85 20q25 38 27 109q0 32 -3 53q-40 62 -202 138q-62 -52 -146 -69q-52 16 -91.5 73.5t-38.5 123.5q3 108 119 173q65 0 134 -46l38 226l-382 -65q-25 29 -41 52t-29.5 66t-12.5 93q4 113 68 181.5t159 68.5 q85 0 181 -37.5t178 -94.5q39 43 132 86t165 46q83 -35 116 -165t-7 -243q-35 -23 -102 -23q-41 0 -90 7q-65 -113 -190 -259q9 1 28 1q99 0 187.5 -39t143.5 -112t53 -162q-4 -153 -87.5 -269.5t-215.5 -176t-288 -59.5q-68 0 -129.5 9.5t-128 33t-113 73.5t-61.5 122z" />
<glyph unicode="4" horiz-adv-x="1221" d="M-6 235q0 162 71 225q18 0 126 -22q35 227 35 466q0 104 -6 231q44 68 113 106t144 38q147 0 208 -92q-20 -227 -83 -419q-66 -202 -161 -402l301 -22q-21 284 -24 442q97 61 219 61q114 0 192 -52q-29 -634 -89 -1016q-81 -44 -160 -44q-76 0 -152 31l9 267l-375 96 q-81 -118 -207 -124q-63 17 -112 85t-49 145z" />
<glyph unicode="5" horiz-adv-x="1086" d="M14 -79q18 63 50.5 115.5t76.5 80.5q239 -143 394 -143q61 0 105 14q19 54 19 166q0 61 -11 98q-74 59 -212 80q-82 -80 -146 -92q-60 18 -100 67t-40 102q0 30 8 56t16.5 40t23.5 34h2q-114 296 -114 469q0 66 17 124q83 33 176 33q83 0 262 -45l361 65q39 -27 61.5 -89 t22.5 -134q0 -123 -67 -186q-73 -30 -146 -30q-92 0 -168.5 29t-149.5 95l-17 -289q75 31 159 31q65 0 126.5 -15.5t117 -49t97.5 -82t66.5 -120t24.5 -157.5q0 -115 -49.5 -211t-133 -159t-191 -98t-223.5 -35q-43 0 -87 4.5t-100 20t-100.5 40.5t-81 69t-49.5 102z" />
<glyph unicode="6" horiz-adv-x="1258" d="M98 719q0 96 7.5 180t27 170t50 156t79.5 131.5t113 103.5t152.5 66t196.5 24q49 0 84 -2t89 -12t92.5 -28.5t76 -55.5t56.5 -88q-6 -60 -47.5 -134.5t-92.5 -103.5q-149 87 -334 87q-61 0 -112 -16q-45 -114 -63 -215t-22 -238h15q67 145 158 202.5t201 57.5 q182 0 264 -104.5t82 -316.5q0 -102 -20.5 -192t-62.5 -165.5t-102.5 -130t-146 -85t-187.5 -30.5q-125 0 -220 34.5t-158 97t-102.5 156t-56.5 203.5t-17 248zM466 525q5 -142 75 -222q43 -29 121 -29q77 0 108 23q34 88 34 241q0 90 -15 148q-16 4 -37 4q-75 0 -157 -49.5 t-129 -115.5z" />
<glyph unicode="7" horiz-adv-x="1111" d="M52 912q0 127 87 200t210 73q86 0 214.5 -31t234.5 -77q34 42 88.5 73t110.5 35q64 -35 95.5 -102t31.5 -151q0 -54 -14 -107t-27 -71q-64 -2 -144 11q-20 -116 -50.5 -241.5t-83 -274t-113 -266t-145 -202t-175.5 -96.5q-46 17 -93 45t-91 77t-52 101q196 206 324 422.5 t205 478.5l-257 31l-43 -295l-185 -40q-60 79 -94 185.5t-34 221.5z" />
<glyph unicode="8" horiz-adv-x="1199" d="M78 416q0 46 9.5 86.5t30.5 74t42 59t55 52t57.5 42.5t62.5 40q-83 52 -150.5 145t-67.5 201q0 112 39 197t108 136t156.5 76t190.5 25q234 0 362 -95.5t128 -287.5q0 -60 -21.5 -116t-58.5 -100t-74 -75.5t-79 -57.5q128 -66 199.5 -166t71.5 -217q0 -205 -146 -330 t-379 -125q-105 0 -200.5 28.5t-171 82t-120 138t-44.5 187.5zM387 445q4 -51 29.5 -105t61.5 -79q63 -21 135 -21q97 0 151 43q9 17 14 66t5 80q-33 47 -106 99.5t-160 93.5q-90 -56 -130 -177zM473 1114q46 -88 221 -185q28 39 49.5 118t21.5 139q0 31 -4 52 q-50 40 -143 40q-73 0 -125 -25q-9 -13 -14.5 -59.5t-5.5 -79.5z" />
<glyph unicode="9" horiz-adv-x="1244" d="M87 691q0 240 132.5 367t383.5 127q124 0 219.5 -33t157 -90t101 -140.5t55.5 -177.5t16 -208q0 -851 -599 -851q-356 0 -418 213q44 154 127 206q97 -63 170 -89.5t150 -26.5q121 0 153 38q24 61 42.5 172.5t24.5 210.5l-7 4q-69 -110 -164 -158.5t-191 -43.5 q-179 10 -266 140.5t-87 339.5zM452 644q0 -65 14 -115q38 -8 75 -8q75 0 142.5 27.5t105.5 81.5q-13 170 -50 216q-16 11 -59 18.5t-83 7.5q-77 0 -108 -23q-37 -97 -37 -205z" />
<glyph unicode=":" horiz-adv-x="681" d="M88 199q0 87 60.5 144.5t192.5 57.5t192.5 -57.5t60.5 -144.5q0 -88 -78 -153.5t-175 -65.5t-175 65.5t-78 153.5zM88 966q0 87 60.5 144.5t192.5 57.5t192.5 -57.5t60.5 -144.5q0 -88 -78 -153.5t-175 -65.5t-175 65.5t-78 153.5z" />
<glyph unicode=";" horiz-adv-x="681" d="M20 -206l171 595q66 18 131.5 11.5t118.5 -29t90 -68t47 -106.5q-53 -124 -176.5 -274.5t-231.5 -223.5zM83 966q0 41 13.5 75.5t42 64t79 46t118.5 16.5t118.5 -16.5t79 -46t42 -64t13.5 -75.5q0 -35 -14 -68.5t-38.5 -60t-56.5 -47.5t-69 -32t-75 -11 q-63 0 -121.5 29.5t-95 80.5t-36.5 109z" />
<glyph unicode="&#x3c;" horiz-adv-x="894" d="M78 608q0 37 5 61l591 424q43 -17 103 -101t74 -140l-396 -348l416 -302q-14 -58 -60.5 -123t-90.5 -91l-581 333q-25 28 -43 118t-18 169z" />
<glyph unicode="=" horiz-adv-x="1042" d="M108 230q0 56 14 98.5t45 94.5l758 45q7 -28 7 -60q0 -96 -75 -243q-123 -4 -276 -4q-245 0 -470 13q-3 30 -3 56zM108 680q0 56 14 98.5t45 94.5l758 45q7 -28 7 -60q0 -96 -75 -243q-123 -4 -276 -4q-245 0 -470 13q-3 30 -3 56z" />
<glyph unicode="&#x3e;" horiz-adv-x="894" d="M23 899q14 58 60.5 123t90.5 91l581 -333q25 -28 43 -118t18 -169q0 -37 -5 -61l-591 -424q-43 17 -103 101t-74 140l396 348z" />
<glyph unicode="?" horiz-adv-x="908" d="M98 1281q0 76 37.5 155t91.5 130t103 57q30 0 79.5 -14.5t110 -44.5t119 -69.5t110.5 -95.5t81 -116q56 -117 56 -253q0 -38 -5 -72t-17 -68t-30.5 -62t-46.5 -52.5t-63.5 -41.5t-83.5 -26.5t-104 -9.5q-3 0 -10.5 0.5t-11.5 0.5l-44 -148q-48 -15 -92 -15q-59 0 -115 25 q-1 2 -9 19.5t-11 23.5t-10.5 23.5t-11 27.5t-9.5 27t-8.5 29.5t-4.5 27.5t-2 29q0 35 14 64t41 49t56.5 35.5t71 26.5t74 18.5t74.5 16t65 14.5q13 21 2 42q-64 51 -169 98t-326 117q-2 20 -2 32zM147 199q0 41 13.5 75.5t42 64t79 46t118.5 16.5t118.5 -16.5t79 -46 t42 -64t13.5 -75.5q0 -58 -36.5 -109t-95 -80.5t-121.5 -29.5t-121.5 29.5t-95 80.5t-36.5 109z" />
<glyph unicode="@" horiz-adv-x="1708" d="M130 424q0 146 27.5 277t87.5 246t147 198.5t214.5 132t281.5 48.5q660 0 660 -506q0 -118 -32.5 -266t-79.5 -220q-70 -30 -161 -30q-53 0 -89 6q63 236 109 660q-61 55 -162 55q-61 0 -111 -22l-6 -174q-38 99 -108 153t-135 54q-80 0 -146 -38.5t-108 -99.5 t-70.5 -140.5t-40.5 -157.5t-12 -155t12 -142t39 -121.5t78 -89t122 -32.5q180 0 303 328l27 -7q-10 -27 -25 -99t-15 -96q0 -56 33 -91t95 -35q300 0 540 173q51 -98 51 -191q0 -41 -11 -87q-79 -77 -291.5 -138t-419.5 -61q-387 0 -595.5 166.5t-208.5 501.5zM722 468 q0 88 16 172t40 105q25 5 46 5q70 0 144 -43q1 -6 1 -27q0 -74 -12 -122q-41 -77 -116 -163t-97 -86q-10 0 -16 58.5t-6 100.5z" />
<glyph unicode="A" horiz-adv-x="1405" d="M-21 92q0 72 22 137t60 92q61 -20 111 -32q97 390 221 921l-241 26q-23 63 -23 143q0 61 14 119q145 28 334.5 40.5t325.5 12.5q98 0 147 -1l63 -36q168 -461 341 -1247q19 -86 19 -118q0 -84 -60 -136q-84 -33 -203 -33q-56 0 -113 12t-77 37l12 258l-25 134 q-65 -4 -153 -4q-94 0 -176 6q-4 -19 -12 -54q-24 -110 -36 -156.5t-34 -105t-46.5 -78.5t-63.5 -35t-97 -15q-92 0 -181.5 33.5t-128.5 79.5zM644 708h224l-106 493h-46z" />
<glyph unicode="B" horiz-adv-x="1310" d="M-13 1394q0 32 5 70q122 41 319 63.5t376 22.5q61 0 106 -2t102.5 -11t99 -24t84.5 -43t69.5 -67t43.5 -97t17 -131q0 -98 -75 -222t-169 -182q56 -10 105.5 -34t91.5 -62t67 -95.5t25 -127.5q0 -104 -35 -185.5t-95.5 -134.5t-146 -88t-180 -49.5t-204.5 -14.5 q-256 0 -391 21q-43 232 -43 739q0 303 9 465h-1l-153 21q-27 76 -27 168zM505 250q66 -8 144 -8h29q84 0 120 7q37 21 60.5 92t23.5 131q-18 52 -179 52q-36 0 -77.5 -2.5t-74.5 -6t-40 -3.5q-1 -50 -3.5 -138t-2.5 -124zM524 787q31 3 106.5 8.5t97.5 7.5 q26 73 44.5 185.5t22.5 183.5q-5 9 -51 15.5t-119 6.5q-23 0 -77 -3q-8 -225 -24 -404z" />
<glyph unicode="C" horiz-adv-x="1220" d="M56 764q0 134 22.5 250t72.5 215.5t124 170.5t182 111.5t242 40.5q150 0 317 -39q109 -66 172 -150q0 -113 -40.5 -303.5t-80.5 -235.5q-26 -13 -44 -17.5t-56 -4.5q-106 0 -150 26l-35 337q-71 20 -197 20q-34 0 -50 -1q-49 -157 -49 -456q0 -134 14 -217 q7 -40 11.5 -61t13.5 -48t21.5 -40t32 -26t47.5 -18t67 -5q101 0 186.5 29.5t186.5 86.5q38 -41 54 -60.5t38 -64t28 -93.5q-8 -17 -33 -43t-72 -59t-104.5 -61.5t-139 -48t-168.5 -19.5q-167 0 -286.5 54.5t-190.5 159.5t-103.5 245.5t-32.5 324.5z" />
<glyph unicode="D" horiz-adv-x="1335" d="M-3 1394q0 32 5 70q107 47 336 66.5t455 19.5q60 0 105 -2.5t101 -11t96 -24.5t81 -44.5t66.5 -68.5t41.5 -99.5t16 -134.5q0 -311 -150 -816q-55 -183 -135 -263q-41 -46 -84.5 -69.5t-104.5 -23.5q-31 0 -84 10q-66 13 -124.5 38t-84.5 41.5t-72 48.5 q-31 -47 -116.5 -97.5t-156.5 -53.5q-69 26 -108.5 92.5t-39.5 149.5q0 51 17 105q86 24 161 23q-39 408 -50 854h-1l-143 21q-27 77 -27 169zM557 1173q0 -8 2 -121t2 -261q0 -159 -3 -452q131 0 252 19q12 57 22 132.5t16.5 138.5t13.5 152t10 136t7.5 130t5.5 97 q-3 6 -20 13.5t-54.5 13.5t-85.5 6q-8 0 -35 0.5t-43 0.5q-56 0 -90 -5z" />
<glyph unicode="E" horiz-adv-x="1202" d="M18 1394q0 32 5 70q119 45 313.5 65.5t392.5 20.5q187 0 271 -17q111 -67 172 -149q0 -109 -30 -231t-71 -168q-44 -22 -120 -22q-66 0 -110 26l-34 218q-63 10 -150 10q-24 0 -48 -3q-4 -145 -41 -395q222 37 379 54q40 -61 40 -149q0 -58 -16 -112t-35 -75 q-42 -7 -100 -7q-162 0 -306 51q-2 -14 -15.5 -99t-18.5 -126l633 37q15 -14 25.5 -56t10.5 -92q0 -119 -68 -192t-161 -73q-95 0 -266.5 56.5t-241.5 113.5q-46 -80 -100.5 -122t-140.5 -48q-65 11 -111 86.5t-46 178.5q0 89 37 173q40 0 130 -23q-6 270 -6 443 q0 215 8 367l-154 21q-27 76 -27 168z" />
<glyph unicode="F" horiz-adv-x="1097" d="M13 116q1 65 16.5 117t60.5 110q87 -41 145 -62q7 19 7 60q0 91 -20.5 350.5t-20.5 388.5q0 28 2 78l3 47l-149 21q-27 76 -27 168q0 32 5 70q225 86 678 86q196 0 270 -17l1 1q109 -66 172 -150q0 -107 -35 -244.5t-76 -184.5q-45 -22 -120 -22q-42 0 -63.5 6t-46.5 20 l-34 251q-33 7 -80 7q-42 0 -89 -5q-3 -47 -6.5 -152.5t-6.5 -155.5l-8 -174q244 30 407 63q40 -59 40 -152q0 -61 -16 -117t-35 -77q-31 -5 -82 -5q-162 0 -327 55q-1 -8 -3 -45.5t-3 -48t-3.5 -44t-4.5 -46.5t-6 -41.5t-8 -43t-10 -38.5t-13 -39t-16 -32.5t-20 -32.5 q-41 -54 -104.5 -80t-136.5 -26q-67 0 -131.5 31t-105.5 105z" />
<glyph unicode="G" horiz-adv-x="1289" d="M67 764q0 134 22 249.5t71 215.5t122 170.5t180.5 110.5t241.5 40q180 0 347 -39q109 -66 172 -150q0 -113 -40.5 -302.5t-80.5 -234.5q-26 -13 -44 -17.5t-56 -4.5q-106 0 -150 26l-35 337q-71 20 -227 20q-34 0 -50 -1q-43 -138 -48 -371v-39q0 -149 19 -263 q9 -56 16 -87.5t16.5 -59.5t21.5 -39.5t29 -11.5q145 0 245 192l-27 143q131 44 259 45q143 0 170 -69q-19 -148 -61 -363t-63 -261q-64 -20 -124 -20q-73 0 -126 20q0 24 -9 231l-27 8q-154 -259 -342 -259q-130 0 -225.5 96.5t-146 273.5t-50.5 414z" />
<glyph unicode="H" horiz-adv-x="1448" d="M26 1390q0 26 1 40q34 43 115 81.5t171 38.5q257 0 245 -259q-1 -16 -3 -112.5t-6 -174.5t-12 -156h340q3 199 18 367h-2l-143 21q-20 90 -20 155q0 26 1 40q34 41 129.5 80.5t191.5 39.5q127 0 194.5 -65.5t67.5 -193.5q0 -358 -111 -1003l148 64q76 -66 87 -178 q-5 -8 -14.5 -21t-42.5 -46.5t-69.5 -59.5t-93.5 -47t-117 -21q-233 0 -231 243v65q0 166 7 276q-23 -2 -70 -2q-44 0 -92.5 3t-110 9t-91.5 8q3 -94 14.5 -196t28 -210t20.5 -138q-38 -23 -119 -38.5t-147 -18.5q-60 -2 -134 20q-37 231 -37 620q0 343 22 593h-2l-113 21 q-20 90 -20 155z" />
<glyph unicode="I" horiz-adv-x="722" d="M5 1430q32 40 134.5 80t198.5 40q116 0 189.5 -52t77.5 -150q2 -58 2 -99q0 -97 -5 -227.5t-14.5 -285t-17 -263t-19 -264.5t-13.5 -186q-79 -44 -180 -44q-86 0 -162 31v39q0 53 -6 332t-6 459q0 221 8 374l-163 21q-26 108 -24 195z" />
<glyph unicode="J" horiz-adv-x="1117" d="M27 148q0 160 85 261q61 32 146 32q74 0 133 -26q0 -14 0.5 -48.5t1 -51t1.5 -50t2.5 -53t4 -52.5t6 -56.5t8.5 -56t11.5 -60.5t15 -61t18.5 -66q23 -6 62 -6q11 0 44 1t33 0q3 79 3 202q0 135 -8.5 471.5t-8.5 482.5q0 135 6 208q-107 -4 -175 -10l-3 -281 q-109 -27 -205 -24q-40 32 -80 139t-40 204q0 183 130 237q55 29 190 45q72 9 160 9q191 0 381 -32l53 -62q-11 -361 -18 -540q-2 -54 -10 -288.5t-16.5 -429.5t-17.5 -273q-18 -167 -72 -239q-80 -106 -267 -106q-220 0 -346.5 85.5t-197.5 301.5q-30 94 -30 193z" />
<glyph unicode="K" horiz-adv-x="1313" d="M-25 1407v23q34 42 121 81t182 39q118 0 188 -49t70 -153q0 -218 -24 -728l62 14q63 113 140.5 297t101.5 285l-124 21q-24 97 -24 172v23q33 41 129.5 80.5t192.5 39.5q110 0 183 -56t73 -165q0 -67 -33 -153.5t-90 -177t-114.5 -169t-124.5 -158.5q111 -228 204 -328 q14 7 30.5 20.5t25 21.5t31 32.5t27.5 29.5l123 -93v-22q0 -159 -79.5 -256t-240.5 -97q-60 0 -114 17q-57 18 -104 63.5t-77.5 107t-49.5 127.5t-28 135q-50 -12 -132 -17q-9 -171 -22 -391q-81 -44 -180 -44q-86 0 -162 31q0 16 0.5 47t0.5 46q0 130 -7.5 390t-7.5 391 q0 192 10 330l-133 21q-24 97 -24 172z" />
<glyph unicode="L" horiz-adv-x="1145" d="M22 1430q47 53 157 86.5t205 33.5q236 0 253 -190q3 -39 3 -85q0 -229 -99 -846q-5 -35 -8 -52l255 -14l104 332q47 2 107.5 -7t104.5 -25q18 -47 33.5 -149.5t15.5 -200.5q0 -163 -48 -229q-36 -47 -108 -75.5t-131 -28.5q-88 0 -214.5 54t-203.5 116q-45 -78 -104 -121 t-147 -49q-65 11 -111 89.5t-46 183.5q0 91 37 175q40 0 129 -23q-5 215 -5 420q0 221 8 377h-1q0 2 0.5 6t0.5 6l-163 21q-26 108 -24 195z" />
<glyph unicode="M" horiz-adv-x="1925" d="M19 169q0 46 13 94.5t35 80.5l96 -18l108 936l-154 22q-19 50 -19 102t21 108q53 25 181.5 40.5t228.5 15.5q93 0 229 -4l35 -16q22 -62 60 -210.5t132 -532.5q7 -29 11 -45t10.5 -41.5t11.5 -47.5q27 96 56.5 220.5t55.5 242.5t31 138h5l-166 28q-24 56 -24 120 q0 42 11 91q179 57 433 57h33q53 0 151 -4l35 -16q64 -232 122.5 -562.5t88.5 -606.5q12 -113 12 -150q0 -128 -63 -198q-79 -32 -174 -33q-55 -1 -112 11.5t-76 37.5l36 229l-60 629l5 335h-31l-49 -343q-98 -363 -179 -562q65 -129 74 -253q-26 -25 -69.5 -43.5 t-92.5 -28.5t-103.5 -11t-102.5 7t-88.5 28.5t-62.5 50.5q5 101 50 195l-178 643l-74 303l-34 -5l49 -339q-8 -403 -33 -650h1q-12 -95 -81 -154.5t-162 -59.5q-160 0 -231 138q-2 20 -2 31z" />
<glyph unicode="N" horiz-adv-x="1430" d="M-3 92q0 72 22 137t60 92q70 -25 104 -31v942l-157 53q-23 54 -23 124q0 57 18 102q150 40 370 40q141 0 249 -21q118 -231 386 -1068l17 2q-29 247 -57.5 579.5t-28.5 455.5q113 51 234 51q88 0 169 -36l-97 -1264q52 -75 65 -176q-41 -45 -124.5 -69.5t-177.5 -24.5 q-160 0 -225 61q1 75 13 137q-31 62 -65 140.5t-56.5 132t-65 167t-55.5 149t-64.5 180t-58.5 163.5l-6 -1q21 -156 45 -459.5t24 -443.5q0 -226 -274 -226q-66 0 -140.5 36t-100.5 76z" />
<glyph unicode="O" horiz-adv-x="1387" d="M67 756q0 794 624 794q109 0 198 -21.5t153.5 -59t113.5 -94.5t80 -122t50 -148t26.5 -166.5t7.5 -182.5q0 -134 -19 -246.5t-64.5 -212.5t-116.5 -168.5t-180 -108.5t-249 -40q-141 0 -249.5 39.5t-178.5 107.5t-114.5 168.5t-63 212.5t-18.5 248zM496 811 q0 -137 15 -273t37 -208q14 -15 71 -23t122 -8q82 0 94 9q51 89 51 399q0 143 -13.5 265.5t-37.5 171.5q-49 39 -182 41q-76 0 -101 -14q-56 -96 -56 -360z" />
<glyph unicode="P" horiz-adv-x="1300" d="M13 1394q0 32 5 70q123 44 339 65t416 21q61 0 106 -2.5t102.5 -11t99 -24.5t84.5 -44.5t69.5 -68.5t43.5 -99.5t17 -134.5q0 -126 -74.5 -303t-160.5 -280q-81 -97 -180 -114q-164 -26 -347 -26q-4 -103 -3 -148l149 10q46 -75 51 -178q-5 -6 -14 -15.5t-41 -34.5 t-68 -44.5t-92.5 -35t-116.5 -15.5q-94 0 -149.5 51.5t-55.5 178.5q-17 208 -17 528l-1 1q0 302 9 464h-1l-143 21q-27 77 -27 169zM550 706l258 17q58 248 63 449q-5 9 -51 16t-119 7q-51 0 -127 -4q-9 -302 -24 -485z" />
<glyph unicode="Q" horiz-adv-x="1387" d="M67 756q0 794 624 794q109 0 198 -21.5t153.5 -59t113.5 -94.5t80 -122t50 -148t26.5 -166.5t7.5 -182.5q0 -505 -271 -683q45 -102 121 -207l12 2l2 -2l148 62q78 -67 91 -178q-5 -8 -15 -21t-44 -46.5t-71 -59.5t-94.5 -47t-117.5 -21q-43 0 -80 10q-5 1 -11 2.5 t-13.5 3.5t-11.5 3q-157 48 -201 409q-36 -3 -73 -3q-141 0 -249.5 39.5t-178.5 107.5t-114.5 168.5t-63 212.5t-18.5 248zM496 811q0 -137 15 -273t37 -208q14 -15 71 -23t122 -8q82 0 94 9q51 89 51 399q0 143 -13.5 265.5t-37.5 171.5q-49 39 -182 41q-76 0 -101 -14 q-56 -96 -56 -360z" />
<glyph unicode="R" horiz-adv-x="1409" d="M12 1394q0 32 5 70q131 46 346 66t420 20q61 0 106 -2.5t102.5 -11t99 -24.5t84.5 -44.5t69.5 -68.5t43.5 -99.5t17 -134.5q0 -100 -41.5 -217.5t-99 -210t-118.5 -153.5q20 -51 31 -77t45 -88t79 -125l140 59q78 -67 91 -178q-5 -8 -15 -21t-44 -46.5t-71 -59.5 t-94.5 -47t-117.5 -21q-161 0 -229 117q-67 115 -90 326l-228 10q11 -86 34.5 -225t27.5 -170q-96 -58 -245 -58q-78 0 -151 21q-43 175 -43 793q0 231 8 410l-135 21q-27 77 -27 169zM540 657l248 17q25 69 43.5 157.5t28.5 161.5t21 179q-61 23 -167 23q-100 0 -150 -5 q-11 -376 -24 -533z" />
<glyph unicode="S" horiz-adv-x="1110" d="M40 1078q0 103 27 186t84.5 148.5t156 101.5t232.5 36q223 0 353 -27q109 -66 172 -150q0 -109 -30 -231t-71 -168q-44 -22 -120 -22t-120 26l-31 208q-58 16 -123 23.5t-88 6.5q-64 -30 -64 -120q0 -27 11 -51.5t25.5 -41t41 -34t45 -27t50 -24.5t45.5 -22 q48 -25 72.5 -38t67 -38t66 -41.5t57.5 -43.5t53 -49.5t41.5 -54t33.5 -63t19 -70.5t8 -81q0 -141 -74 -242.5t-190 -146.5q-119 -47 -315 -47q-49 0 -101.5 8.5t-112 28.5t-113.5 60t-88 95q-4 19 -4 46q0 112 78 201q95 -42 156 -65.5t151.5 -45t170.5 -21.5q49 0 79 15 q8 18 11 53q1 26 -11.5 48.5t-40.5 42.5t-48 32t-59 30t-47 22q-50 25 -76 39t-72 40t-71.5 44.5t-63 48.5t-58.5 56t-46 63t-38 74t-22 84t-9 98z" />
<glyph unicode="T" horiz-adv-x="1127" d="M-28 1247q0 69 15 117.5t39.5 78.5t68 48t87.5 26t110 12q363 21 860 21q58 -74 58 -175q0 -86 -44 -144t-130 -58q-56 0 -135 20q-18 -470 -52 -868q-14 -162 -72 -239q-79 -106 -272 -106q-35 0 -70 5t-77 18.5t-77.5 42.5t-56.5 70q1 65 16 115.5t60 108.5 q139 -56 203 -73q13 33 13 90q0 67 -13.5 320.5t-13.5 381.5q0 101 6 174l-165 10l-3 -315q-75 -25 -169 -25q-24 0 -36 1q-53 41 -101.5 143.5t-48.5 199.5z" />
<glyph unicode="U" horiz-adv-x="1442" d="M20 1462q84 47 157.5 67.5t166.5 20.5q277 0 277 -277q0 -81 -17.5 -257.5t-41.5 -382t-29 -251.5q19 -21 45 -27q14 -6 80.5 43.5t142 126t106.5 135.5q-28 540 -87 798q45 45 117 68.5t140 23.5q130 0 204 -54q31 -68 31 -223q0 -142 -35.5 -479.5t-69.5 -467.5l123 54 q73 -75 86 -191q-11 -22 -40.5 -54.5t-73 -68.5t-105 -61t-122.5 -25q-89 0 -136.5 53t-47.5 136q0 20 8.5 87t15.5 83l-30 10q-40 -78 -77.5 -136t-90.5 -115t-120 -87.5t-145 -30.5q-67 0 -119 23.5t-83 61t-51 91t-27 107t-7 115.5q0 640 21 850l-130 16 q-25 77 -30.5 108.5t-5.5 109.5z" />
<glyph unicode="V" horiz-adv-x="1281" d="M-97 1371q70 173 264 178q163 5 243 -134q82 -141 151 -515q65 -339 80 -563l23 4q42 91 103.5 411t60.5 463l-132 19q-26 90 -27 169v8.5v10.5v9q35 42 131 81t196 39q133 0 198 -64t67 -195q5 -203 -99 -516q-56 -168 -175.5 -410.5t-211.5 -347.5q-58 -38 -152 -38 q-89 0 -173 34.5t-112 88.5l37 123q-67 221 -184 554t-164 397l-87 7q-37 111 -37 187z" />
<glyph unicode="W" horiz-adv-x="1968" d="M-69 1371q26 82 113.5 130t187.5 48q146 0 218 -134q57 -106 99 -349q21 -125 35.5 -257.5t19 -193.5t10.5 -192t6 -133h15q37 82 83 422.5t48 502.5l-126 19q-22 85 -22 197q33 42 125.5 81t187.5 39q133 0 220 -65t89 -185v-154q45 -175 78.5 -410.5t49.5 -445.5h11 q36 85 83 425t49 499l-118 19q-22 85 -22 197q33 41 126.5 80.5t188.5 39.5q261 0 261 -275q0 -132 -44 -340t-110 -391q-57 -160 -112 -276.5t-136 -228.5q-58 -60 -197 -60q-197 0 -291 76l27 205l-65 337q-23 133 -30 212l-13 1l-3 -127q-70 -423 -189 -644 q-54 -60 -184 -60q-205 0 -289 75l22 188q-11 44 -54.5 220t-75 301t-70.5 252.5t-61 160.5l-100 7q-29 76 -41 187z" />
<glyph unicode="X" horiz-adv-x="1371" d="M-8 1169q10 74 44 142.5t85.5 122.5t123.5 85.5t151 29.5q158 -3 229 -175q78 -190 84 -412q1 7 7.5 50.5t9 57.5t9.5 56.5t11.5 61.5t14 57.5t17.5 60t20 53.5t24 53t28 44t33 40q54 53 164 53q55 0 101 -32.5t77 -82.5t54 -116.5t35.5 -129.5t18.5 -126 q-58 -65 -110.5 -92t-139.5 -40l-105 165l-155 -304l233 -387l174 123l122 -123q-5 -55 -21 -110.5t-45.5 -111t-68 -98.5t-94.5 -71.5t-120 -31.5q-76 -4 -142 34.5t-113 113.5q-100 162 -121 456q-2 20 -2 34q-3 -20 -15.5 -105t-23 -135t-29.5 -124t-48 -129t-66 -92 q-56 -55 -177 -53q-57 1 -104.5 44t-78 111t-49 141.5t-25.5 147.5q98 128 247 150l83 -127l159 293l-206 388l-157 -94z" />
<glyph unicode="Y" horiz-adv-x="1237" d="M-124 1430q33 41 129.5 80.5t192.5 39.5q186 0 233 -140q35 -81 102.5 -296.5t100.5 -401.5q61 122 121 270t80 234h-2l-122 21q-26 108 -24 195q33 41 129.5 80.5t192.5 39.5q115 0 180.5 -56.5t65.5 -164.5q0 -82 -57.5 -207.5t-142.5 -249t-160.5 -220t-132.5 -158.5 q-21 -129 -38 -202l2 -2l148 62q78 -67 91 -178q-5 -8 -15 -21t-44 -46.5t-71 -59.5t-94.5 -47t-117.5 -21q-222 0 -219 243l2 248q-82 128 -191.5 348t-162.5 394l-152 21q-26 108 -24 195z" />
<glyph unicode="Z" horiz-adv-x="1283" d="M38 408q16 33 37 56t44 36t42.5 20t44 14.5t36.5 12.5q1 0 15 -4.5t17.5 -5.5t16.5 -5.5t19 -7t18.5 -8t21 -10t20 -11t21.5 -13.5l284 674l-275 13l-6 -339l-185 -40q-52 55 -103.5 208t-51.5 276q0 126 66 200t170 76q124 0 268 -38.5t257 -104.5q37 56 110.5 99.5 t167.5 43.5q46 -25 79.5 -69t50 -99.5t16.5 -117.5q0 -77 -25 -149q-59 -17 -110 -17q-31 -62 -121 -198.5t-189 -286t-142 -227.5q53 -5 153.5 -11.5t126.5 -8.5l112 280l164 -31q35 -92 35 -240q0 -190 -70 -285q-81 -110 -207 -110q-96 0 -236 57.5t-243 117.5 q-49 -84 -105.5 -126.5t-150.5 -48.5q-75 45 -136.5 180.5t-56.5 247.5z" />
<glyph unicode="[" horiz-adv-x="746" d="M128 1710q-2 41 34.5 81t77.5 41l447 13q19 -102 18 -188q-76 -64 -228 -101l-10 -1584h3q64 0 112.5 -20.5t69.5 -47.5q0 -62 -8.5 -102t-29.5 -94h-247q-35 0 -63 8.5t-46.5 20.5t-31.5 34t-20 40.5t-11.5 50t-5.5 51t-2 54.5z" />
<glyph unicode="\" horiz-adv-x="795" d="M16 1548q43 27 126 45.5t153 18.5q47 0 74 -9l316 -1641q-105 -73 -246 -73h-18z" />
<glyph unicode="]" horiz-adv-x="746" d="M41 1657q-1 86 18 188l447 -13q41 -1 77.5 -41t34.5 -81l-59 -1743q-1 -35 -2 -54.5t-5.5 -51t-11.5 -50t-20 -40.5t-31.5 -34t-46.5 -20.5t-63 -8.5h-247q-21 54 -29.5 94t-8.5 102q21 27 69.5 47.5t112.5 20.5h3l-10 1584q-152 37 -228 101z" />
<glyph unicode="^" horiz-adv-x="1209" d="M56 460q33 105 188 486.5t195 445.5q29 25 118.5 43.5t168.5 18.5q36 0 60 -5l364 -979q-18 -42 -94.5 -89t-135.5 -54l-344 629l-294 -629q-61 5 -130.5 47.5t-95.5 85.5z" />
<glyph unicode="_" horiz-adv-x="1698" d="M-38 -261q0 105 48 205l1708 -1q14 -36 14 -88q0 -113 -51 -191l-1708 -2q-11 32 -11 77z" />
<glyph unicode="`" horiz-adv-x="681" d="M50 1527q42 167 251 266l330 -378q-11 -44 -48.5 -85.5t-76.5 -61.5q-267 84 -456 259z" />
<glyph unicode="a" horiz-adv-x="1160" d="M65 320q0 166 83 252.5t241 86.5q119 0 262 -41v31q0 92 -6 119q-5 9 -17.5 19t-58.5 22t-114 12q-91 0 -260 -53q-90 149 -90 253q0 19 3 38q162 126 419 126q81 0 146.5 -8.5t135 -35t116 -71t76.5 -121.5t30 -181q0 -53 -8 -121.5t-19.5 -128.5t-23.5 -112.5 t-20 -83.5l-7 -31l145 62q69 -73 80 -178q-10 -21 -37.5 -51.5t-68 -63.5t-98 -56.5t-114.5 -23.5q-83 0 -125.5 49t-42.5 127q0 44 13 89l-30 9q-15 -84 -51 -141.5t-84.5 -84.5t-92 -37.5t-92.5 -10.5q-114 0 -202 92.5t-88 247.5zM435 365q0 -32 16.5 -58t51.5 -29 q40 7 92.5 54t60.5 90l-6 24q-53 7 -113 7q-51 0 -70 -8q-32 -36 -32 -80z" />
<glyph unicode="b" horiz-adv-x="1233" d="M-8 1506q25 34 103.5 75.5t156.5 41.5q123 0 183 -63t60 -193q0 -77 -13.5 -237.5t-38.5 -309.5l-28 -170l32 -11l34 132q23 88 57 160.5t81 130.5t111.5 90.5t140.5 32.5q67 0 120.5 -19t89 -51.5t58.5 -77t33 -93t10 -102.5q0 -126 -24 -282.5t-64 -292.5 q-39 -133 -129.5 -210t-225.5 -77q-128 0 -320 85q-38 -61 -66 -85q-74 0 -130 13.5t-75 26.5l-19 14q-19 206 -19 571q0 369 19 683l-113 20q-24 92 -24 198zM483 331q55 -38 127 -62.5t110 -24.5q12 0 15 2q36 135 36 409q0 47 -5 76q-23 29 -66 29q-14 -12 -96 -157.5 t-121 -223.5v-48z" />
<glyph unicode="c" horiz-adv-x="1084" d="M61 581q0 128 32 235.5t96 191t169.5 130.5t243.5 47q151 0 297 -30q6 -4 24.5 -17t22.5 -16t17.5 -13t18.5 -15t15 -14.5t17.5 -18.5t16.5 -21q0 -88 -31.5 -241t-61.5 -187q-33 -17 -107 -17q-81 0 -115 20l-21 185q-15 17 -68.5 27.5t-98.5 10.5q-14 0 -26 -2 q-47 -99 -47 -269q0 -38 2.5 -68t13.5 -68.5t29.5 -64.5t54 -44t83.5 -18q29 0 57.5 5t62.5 17t54.5 20.5t62.5 27.5t58 26q40 -40 63 -84t30 -113q-18 -21 -40.5 -43t-67 -56.5t-92 -60t-114.5 -44.5t-135 -19q-164 0 -283 82t-176 216t-57 303z" />
<glyph unicode="d" horiz-adv-x="1263" d="M72 577q0 88 13.5 172t45 164t77.5 139.5t116 96t155 36.5q156 0 298 -99l16 10q-3 117 -29 212l-203 13q-30 37 -30 127q0 51 12 88q60 43 154 65t188 22q64 0 107.5 -17t71 -47t42.5 -84t20.5 -115.5t5.5 -153.5q0 -204 -17 -463t-44 -423l-4 -17l116 50 q69 -73 80 -178q-10 -21 -37.5 -51.5t-68 -63.5t-98 -56.5t-114.5 -23.5q-83 0 -127.5 49.5t-44.5 126.5q0 20 10.5 82t17.5 86l-30 9q-51 -179 -135 -266t-208 -87q-82 0 -146 37t-102.5 95.5t-63.5 139t-34.5 160t-9.5 165.5zM473 590q0 -206 48 -303q26 0 110.5 105.5 t126.5 202.5q6 36 6 84q0 69 -8 99q-74 53 -183 53q-26 0 -56 -5q-20 -20 -32 -86.5t-12 -149.5z" />
<glyph unicode="e" horiz-adv-x="1139" d="M67 581q0 128 32 235.5t96 191t169.5 130.5t243.5 47q227 0 351 -97q116 -93 116 -308q0 -65 -11 -133q-19 -32 -87 -85.5t-133 -78.5q-42 -3 -87 -3q-148 0 -302 23q3 -30 9.5 -57t20.5 -56t34.5 -50t53.5 -34.5t74 -13.5q9 0 29 2q112 11 305 94q38 -38 56 -76t25 -109 q-21 -24 -61 -56.5t-102.5 -72.5t-147 -67t-168.5 -27q-164 0 -283 82t-176 216t-57 303zM458 675l267 26l-14 110q-15 16 -50 24.5t-72 7.5q-74 -2 -88 -16q-34 -67 -43 -152z" />
<glyph unicode="f" horiz-adv-x="888" d="M-23 -316q-2 60 17.5 120.5t58.5 103.5l176 -53q16 45 12 117q-2 54 -10.5 190.5t-14.5 265t-6 226.5q0 34 2 92l1 24l-133 18q-24 77 -22 197q64 34 176 61l4 16q-152 138 -145 292q6 130 114 199.5t289 69.5q162 0 320 -44q14 -42 14 -98q0 -63 -15.5 -130.5 t-42.5 -116.5q-175 57 -284 73q-15 -3 -27.5 -15.5t-14.5 -23.5q9 -46 38.5 -107t66.5 -111l278 51q35 -52 35 -149q0 -59 -12.5 -113t-30.5 -74q-13 -1 -38 -1q-97 0 -177 24q-2 -51 -6 -154t-6 -142q-2 -48 -7 -184.5t-10 -226t-14 -168.5q-18 -167 -72 -239 q-79 -106 -260 -106q-72 0 -143.5 27.5t-110.5 88.5z" />
<glyph unicode="g" horiz-adv-x="1160" d="M55 787q0 92 32.5 165t83 116.5t118 72t131 39.5t128.5 11q150 0 273 -54l-43 254q61 37 152 37q66 0 123 -22t87 -63q2 -10 2 -32q0 -48 -9 -103t-40.5 -126.5t-81.5 -114.5q36 -72 36 -155q0 -71 -14.5 -134.5t-50 -123.5t-89.5 -103.5t-138 -69.5t-190 -26 q-50 0 -104 6q-3 -50 24 -100q135 26 218 27q12 0 34.5 0.5t33.5 0.5q138 0 209 -17q78 -19 116.5 -86t38.5 -163q0 -113 -55.5 -203t-148 -143.5t-203 -81t-230.5 -27.5q-364 0 -418 238q33 116 126 174q232 -139 447 -139q67 0 116 15q27 27 27 71q0 29 -13 42 q-38 6 -98 9.5t-112.5 5.5t-113 8t-108 20.5t-87.5 38t-62 65.5t-22 100q0 103 126 185q-251 104 -251 386zM404 737q0 -57 29 -108q43 -27 159 -27q72 0 84 9q27 54 27 111q0 59 -27 111q-27 23 -154 23q-65 0 -87 -8q-31 -55 -31 -111z" />
<glyph unicode="h" horiz-adv-x="1299" d="M9 1506q25 34 103.5 75.5t156.5 41.5q123 0 183 -63t60 -193q0 -99 -23 -323.5t-60 -388.5q0 -6 7 -11t15 -5q9 0 12 7q51 201 92 293q111 246 319 246q83 0 143.5 -28.5t93.5 -79t48 -108.5t15 -127q0 -55 -7.5 -115.5t-16.5 -106t-25.5 -104.5t-26 -87.5t-27 -79 t-19.5 -56.5l2 -2l148 62q78 -67 91 -178q-5 -8 -14 -21t-41 -46.5t-68 -59.5t-92.5 -47t-116.5 -21q-215 0 -215 225q0 236 24 526q-26 28 -64 30q-35 -45 -103 -180t-96 -202q-2 -14 -3 -27q0 -50 15.5 -134.5t37.5 -157.5q-18 -34 -74 -57t-138 -23q-47 0 -84.5 5.5 t-58 13.5t-34 16t-18.5 13l-4 6q-17 114 -17 314q0 21 -0.5 125t-0.5 177q0 464 18 638l-113 20q-24 92 -24 198z" />
<glyph unicode="i" horiz-adv-x="716" d="M41 1037q0 4 0.5 13.5t0.5 14.5q34 43 116.5 81.5t176.5 38.5q140 0 199 -63t59 -196q0 -119 -47 -333.5t-84 -299.5l2 -2l148 54q75 -64 87 -170q-5 -8 -14 -21t-40 -46.5t-66.5 -59.5t-91.5 -47t-116 -21q-215 0 -215 230q0 331 33 632l-125 21q-23 91 -23 174z M113 1435q0 88 57.5 143t183.5 55t183.5 -55t57.5 -143q0 -76 -73.5 -129.5t-167.5 -53.5q-97 0 -169 60t-72 123z" />
<glyph unicode="j" horiz-adv-x="686" d="M-57 -297q2 148 76 222l210 -70q2 13 2 45q0 46 -9 207q-6 111 -11 321.5t-5 267.5q0 74 3 146l-147 21q-21 78 -22 202q33 41 130.5 80.5t193.5 39.5q132 0 186.5 -62.5t54.5 -196.5q0 -98 -16.5 -323.5t-21.5 -360.5q-6 -148 -11 -230.5t-20.5 -175.5t-40.5 -134 q-43 -71 -108 -102.5t-162 -31.5t-174 34t-108 101zM111 1435q0 88 57.5 143t183.5 55t183.5 -55t57.5 -143q0 -76 -73.5 -129.5t-167.5 -53.5q-97 0 -169 60t-72 123z" />
<glyph unicode="k" horiz-adv-x="1202" d="M6 1506q25 34 103.5 75.5t156.5 41.5q134 0 208.5 -58t74.5 -198q0 -127 -27 -400.5t-92 -594.5l17 -10q79 109 152 240.5t116 244.5l-86 21q-12 68 -12 161v36q96 120 270 120q106 0 168.5 -57.5t62.5 -150.5q0 -83 -56 -172q-72 -114 -251 -324q60 -84 117 -146 q14 7 30.5 20.5t25 21.5t31 32.5t27.5 29.5l123 -93q-7 -178 -76.5 -271.5t-183.5 -93.5q-125 0 -188 76t-92 215q-248 -268 -303 -292q-132 0 -179 54q-18 241 -18 612q0 468 18 642l-113 20q-24 92 -24 198z" />
<glyph unicode="l" horiz-adv-x="701" d="M17 1503q34 43 116.5 81.5t176.5 38.5q128 0 195 -65.5t64 -193.5q-3 -168 -37 -503t-85 -568l2 -2l148 62q78 -67 91 -178q-5 -8 -14 -21t-41 -46.5t-68 -59.5t-92.5 -47t-116.5 -21q-99 0 -160.5 55t-58.5 188q1 33 1.5 236t6.5 416.5t19 411.5l-123 21 q-26 108 -24 195z" />
<glyph unicode="m" horiz-adv-x="1911" d="M38 1103q28 25 99 53.5t148 28.5q121 0 171.5 -52t50.5 -156q0 -30 -11.5 -111t-22.5 -147l-11 -66q0 -5 7 -9.5t15 -4.5q9 0 12 7q8 31 19 84.5t19.5 91t23 88t30.5 86t42 73.5t56.5 61t74.5 38t97 15q142 0 205 -81.5t63 -216.5q0 -107 -36 -238q0 -5 7 -9.5t15 -4.5 q9 0 12 7q5 18 14 56q11 48 17.5 73.5t20 73t24.5 75t29 68t36 65t44 52.5t54 43.5t64 26t76 10.5q78 0 135.5 -28.5t88.5 -78t45.5 -107.5t14.5 -127q0 -216 -107 -532q-4 -12 -6 -17l2 -2l148 62q78 -67 91 -178q-5 -8 -14 -21t-41 -46.5t-68 -59.5t-92.5 -47t-116.5 -21 q-215 0 -215 225q0 306 22 541q-17 14 -47 15q-46 -44 -118 -226.5t-88 -280.5q14 -98 43 -194q-18 -34 -74 -57t-138 -23q-47 0 -83.5 5.5t-55.5 13.5t-31 16t-16 13l-3 6q-17 114 -17 314q0 72 12 206t12 192q-17 14 -47 15q-17 -13 -95 -166t-104 -216q-2 -14 -2 -27 q0 -50 15 -134.5t37 -157.5q-18 -34 -74 -57t-138 -23q-47 0 -84.5 5.5t-58 13.5t-34 16t-17.5 13l-5 6q-17 114 -17 314q0 163 4 246.5t21 245.5l-115 15q-21 65 -27.5 116t-6.5 132z" />
<glyph unicode="n" horiz-adv-x="1333" d="M38 1103q28 25 99.5 53.5t148.5 28.5q121 0 171.5 -52t50.5 -156q0 -30 -11 -111t-23 -147l-11 -66q0 -5 7 -9.5t15 -4.5q9 0 12 7q51 201 92 293q111 246 319 246q83 0 143.5 -28.5t93.5 -79t48 -108.5t15 -127q0 -55 -7.5 -115.5t-16.5 -106t-25.5 -104.5t-26 -87.5 t-27 -79t-19.5 -56.5l2 -2l146 60q78 -67 91 -178q-5 -8 -14 -21t-40.5 -46t-67 -58.5t-92 -46.5t-116.5 -21q-215 0 -215 225q0 236 24 526q-26 28 -64 30q-35 -45 -103 -180t-96 -202q-2 -14 -2 -27q0 -50 15 -134.5t37 -157.5q-18 -34 -74 -57t-138 -23q-47 0 -84.5 5.5 t-58 13.5t-34 16t-18.5 13l-4 6q-17 114 -17 314q0 163 4 246.5t21 245.5l-116 15q-21 65 -27.5 116t-6.5 132z" />
<glyph unicode="o" horiz-adv-x="1190" d="M67 581q-1 137 30.5 247t96 190t168.5 123.5t242 44.5q122 0 213 -30t149 -81t93.5 -129t49.5 -165.5t14 -199.5q0 -102 -21 -192t-64.5 -165t-107 -129.5t-152 -84.5t-195.5 -30q-112 0 -200.5 31t-146.5 85t-96.5 131t-55 164t-17.5 190zM459 582q0 -144 39 -283 q12 -13 49 -19.5t77 -6.5q51 0 62 8q23 40 35 113t12 158q0 173 -38 254q-17 19 -87 25.5t-99 -10.5q-50 -86 -50 -239z" />
<glyph unicode="p" horiz-adv-x="1249" d="M15 1106q28 24 96 51.5t145 27.5q121 0 171.5 -52t50.5 -156q0 -30 -11 -111t-23 -147l-11 -66q0 -5 7 -9.5t15 -4.5q9 0 12 7q0 1 12.5 50t19.5 75q23 88 57 160t81 130.5t111.5 91t140.5 32.5q67 0 120.5 -19t89 -51.5t58.5 -77t33 -93t10 -102.5q0 -126 -24 -282.5 t-64 -292.5q-39 -133 -129.5 -210.5t-225.5 -77.5q-100 0 -280 69l-40 -189l2 -2l191 13q10 -14 17.5 -32.5t12.5 -40.5t8 -38t6 -37t4 -26q-5 -5 -14 -13.5t-40.5 -31t-67 -39t-91.5 -30.5t-116 -14q-215 0 -215 229v69q0 671 24 974l-109 18q-21 65 -27.5 116t-6.5 132z M501 331q64 -44 147.5 -69t104.5 -16q36 135 36 409q0 47 -5 76q-23 29 -66 29q-14 -12 -96 -157.5t-121 -223.5v-48z" />
<glyph unicode="q" horiz-adv-x="1261" d="M72 577q0 88 13.5 172t45 164t77.5 139.5t116 96t155 36.5q86 0 185.5 -34t168.5 -105l20 2q49 96 89 137q47 0 86.5 -3.5t62.5 -8.5t39.5 -10.5t24 -9t8.5 -3.5q18 -72 18 -193q0 -169 -31 -503t-82 -571l2 -2l188 57q53 -54 53 -144q0 -12 -2 -32q-5 -8 -14 -21 t-41 -46t-68 -58t-92.5 -46t-116.5 -21q-223 0 -219 243q2 125 10.5 228.5t32.5 282.5l-30 9q-51 -179 -135 -266t-208 -87q-82 0 -146 37t-102.5 95.5t-63.5 139t-34.5 160t-9.5 165.5zM473 590q0 -206 48 -303q25 -2 110 105t127 203q6 36 6 84q0 69 -8 99q-96 53 -183 53 q-26 0 -56 -5q-20 -20 -32 -86.5t-12 -149.5z" />
<glyph unicode="r" horiz-adv-x="1002" d="M47 1063q0 21 1 32q31 28 98 59t140 31q119 0 172.5 -53t53.5 -155q0 -62 -15.5 -158.5t-31.5 -137.5l36 -6l60 226q75 284 235 284q49 0 97.5 -15t74.5 -37q28 -62 28 -165q0 -72 -14 -142.5t-36 -113.5l-210 28q-64 -68 -136 -188.5t-115 -221.5l-1 -52l194 46 q49 -75 57 -178q-5 -7 -14 -18t-41 -39.5t-68 -50t-92.5 -39.5t-116.5 -18q-45 0 -83 11t-72.5 35.5t-55 71.5t-22.5 112q-1 15 -1 57q0 50 2.5 251t2.5 321l-92 15q-35 106 -35 208z" />
<glyph unicode="s" horiz-adv-x="967" d="M70 811q0 81 23 146.5t71 118t131.5 81t195.5 28.5q261 0 406 -68q7 -29 7 -73q0 -84 -26 -171.5t-68 -129.5q-47 15 -178.5 67.5t-184.5 63.5q-20 -5 -32 -23.5t-12 -43.5q0 -20 14.5 -37t28.5 -24.5t40 -18.5q5 -2 7 -3q17 -7 62.5 -26t72 -30.5t64.5 -31t67 -39.5 q165 -113 165 -270q0 -112 -63.5 -193.5t-162.5 -118.5q-98 -36 -257 -36q-97 0 -199.5 37.5t-156.5 125.5q1 61 16.5 106.5t61.5 104.5q88 -35 129 -50t116.5 -33t138.5 -18q29 0 38.5 5.5t9.5 29.5q0 20 -23 33q-40 22 -112 56t-117.5 56t-102.5 61.5t-90 79.5 t-56.5 101.5t-23.5 136.5z" />
<glyph unicode="t" horiz-adv-x="805" d="M22 1037q0 4 2.5 21t2.5 22l145 32q5 62 23 140t38 115q62 48 174 48q91 0 158 -31q3 -35 3 -78q0 -72 -7 -163l176 32q37 -64 37 -139q0 -73 -47 -189q-66 -11 -181 -14q-13 -153 -67 -513l2 -2l235 73q73 -61 89 -188q-7 -9 -21 -24t-59 -53.5t-92.5 -68t-120 -53.5 t-144.5 -24q-199 0 -212 243q-7 122 -7 329q0 163 5 297l-109 19q-23 91 -23 169z" />
<glyph unicode="u" horiz-adv-x="1280" d="M31 1072q119 113 280 113q258 0 258 -259q0 -98 -38.5 -334t-43.5 -284q17 -18 42 -25q19 1 100.5 105.5t130.5 195.5q8 143 22 263l-105 21q-23 91 -23 169q0 4 0.5 13.5t0.5 14.5q36 46 108 83t165 37q258 0 258 -259q0 -183 -117 -623l115 50q69 -73 80 -178 q-10 -21 -37.5 -51.5t-68 -63.5t-98 -56.5t-114.5 -23.5q-83 0 -127.5 49.5t-44.5 126.5q0 20 10.5 82t17.5 86l-28 9q-50 -175 -137.5 -264t-199.5 -89q-84 0 -144 32t-91 88t-44.5 117t-13.5 134q0 297 20 496l-106 15q-13 54 -17 73.5t-7 53.5t-3 83z" />
<glyph unicode="v" horiz-adv-x="1180" d="M8 1015q26 74 90.5 123t158.5 49q90 0 145.5 -56.5t98.5 -176.5q89 -248 112 -669l29 -1q44 88 76 251.5t33 310.5l-125 22q-23 86 -23 169q0 4 0.5 13.5t0.5 14.5q30 43 109.5 81.5t173.5 38.5q258 0 258 -259q0 -154 -52.5 -325t-158.5 -334.5t-246 -266.5 q-49 -20 -133 -20q-45 0 -101 19.5t-83 40.5q-5 16 -27 91t-34.5 117t-36 118.5t-41.5 129t-40 114t-41.5 107.5t-36.5 76l-73 14q-33 94 -33 208z" />
<glyph unicode="w" horiz-adv-x="1716" d="M12 1010q27 75 89 126t156 51q201 0 269 -315q26 -121 43.5 -282.5t17.5 -304.5l39 -1q41 138 66 263t37 298l-118 23q-27 99 -27 178q0 26 37.5 58.5t103.5 56.5t134 24q257 0 257 -259q0 -83 -36 -182q58 -200 86 -460l18 -1q41 96 74.5 260.5t33.5 304.5l-98 19 q-27 99 -27 178q0 43 78.5 91.5t176.5 48.5q263 0 263 -275q0 -129 -39.5 -273.5t-100 -266.5t-124.5 -219t-122 -157q-50 -14 -108 -14q-69 0 -133.5 18.5t-104.5 53.5q-7 24 -28 150t-37 201h-20q-55 -240 -162 -402q-55 -21 -141 -21q-73 0 -139 15.5t-99 45.5 q-22 149 -94 407t-125 346l-66 13q-30 85 -30 203z" />
<glyph unicode="x" horiz-adv-x="1151" d="M24 366q48 59 95 85t120 33q9 -8 25 -29.5t37 -52t26 -37.5l84 208l-134 202l-120 -65l-125 136q9 40 26.5 82.5t47 89t66 82.5t88.5 59.5t110 23.5q210 0 242 -416h16q26 155 46 234t52 117q55 66 137 66q57 0 110 -35t90 -102q74 -136 76 -250q-86 -105 -217 -121 q-15 14 -47 56t-45 69l-116 -224l157 -206l127 95l135 -108q-6 -65 -29 -129.5t-60.5 -121t-96.5 -92t-129 -35.5q-56 0 -101 26.5t-73 64.5t-51 95t-35.5 102.5t-25.5 102.5q-1 4 -1 6h-22q-7 -42 -11 -63t-16 -70t-23 -78t-31 -68.5t-42.5 -62t-54.5 -39t-70 -16.5 q-52 0 -98.5 41.5t-75.5 103t-45.5 126t-17.5 115.5z" />
<glyph unicode="y" horiz-adv-x="1205" d="M26 1002q26 74 92.5 128.5t151.5 54.5q59 0 107 -23t79.5 -57.5t58 -88t41 -100t29.5 -108.5q53 -211 68 -523l22 4q39 87 66.5 249t29.5 311l-125 19q-22 84 -22 197q35 44 112.5 82t170.5 38q258 0 258 -259q0 -204 -70.5 -391.5t-220.5 -347t-361 -248.5l8 -33 q27 -3 53 -3q85 0 205 28q68 -76 68 -166q0 -27 -6 -55q-60 -58 -150 -100t-198 -42q-101 0 -178 28.5t-125 94.5t-48 164q0 39 16 73.5t39 59t62 50t69.5 41.5t76.5 38q11 5 17 8q-30 118 -125 354t-145 310l-92 16q-23 65 -34 197z" />
<glyph unicode="z" horiz-adv-x="1134" d="M48 265q0 160 150 245q51 0 158 -71l185 350l-401 -65q-87 95 -87 199q0 117 61 188t158 71q34 0 66 -7q106 -21 196.5 -54.5t139.5 -67.5q34 51 104 99.5t139 51.5q67 -25 107.5 -116t40.5 -194q0 -63 -17 -117q-32 -26 -93 -26q-20 0 -38 3q-43 -67 -155.5 -196 t-188.5 -206l222 -25l100 234l148 -28q30 -79 30 -210q0 -168 -62 -253q-67 -90 -186 -90q-84 0 -184 50.5t-185 119.5q-48 -83 -97 -123.5t-134 -46.5q-70 21 -123.5 105t-53.5 180z" />
<glyph unicode="{" horiz-adv-x="962" d="M127 771q0 60 18 114t47 74q13 0 210 -61l32 34l-64 571q-7 68 -7 104q0 129 60 177t211 53l278 8q2 -8 10 -44.5t10.5 -51.5t5.5 -42.5t3 -49.5q-74 -63 -216 -101l26 -511q7 -150 -215 -276v-15q47 -23 81.5 -46.5t67 -58t48 -81t11.5 -103.5l-29 -481q58 -4 102.5 -23 t64.5 -45q0 -112 -38 -208h-269q-54 0 -91 17t-56 48.5t-27 66.5t-8 80q0 16 2 48l42 598l-20 17q-64 -51 -149 -57q-57 15 -99 91t-42 154z" />
<glyph unicode="|" horiz-adv-x="636" d="M144 1796q34 23 106 38t144 15q57 0 98 -11l-10 -2127q-81 -25 -152 -25q-66 0 -128 21z" />
<glyph unicode="}" horiz-adv-x="962" d="M21 1657q0 22 3 49.5t5.5 42.5t10.5 51.5t10 44.5l278 -8q151 -5 211 -53t60 -177q0 -36 -7 -104l-64 -571l32 -34q197 61 210 61q29 -20 47 -74t18 -114q0 -78 -42 -154t-99 -91q-85 6 -149 57l-20 -17l42 -598q2 -32 2 -48q0 -45 -8 -80t-27 -66.5t-56 -48.5t-91 -17 h-269q-38 96 -38 208q20 26 64.5 45t102.5 23l-29 481q-4 57 11.5 103.5t48 81t67 58t81.5 46.5v15q-222 126 -215 276l26 511q-142 38 -216 101z" />
<glyph unicode="~" horiz-adv-x="1168" d="M37 498q19 129 128.5 230t224.5 101q63 0 134 -18t128.5 -41.5t142.5 -62.5q7 -4 11 -5.5t10 -4.5t11 -5l175 129q64 -31 121 -122q-26 -152 -129.5 -241.5t-224.5 -89.5q-119 0 -218 30t-211 105l-182 -132q-58 31 -121 127z" />
<glyph />
<glyph unicode="&#xa1;" horiz-adv-x="681" d="M70 1009q0 88 78 153.5t175 65.5t175 -65.5t78 -153.5q0 -87 -60.5 -144.5t-192.5 -57.5t-192.5 57.5t-60.5 144.5zM106 -392q0 253 72 994q21 36 65.5 57.5t94.5 21.5q82 0 134 -52l95 -951q-52 -36 -151 -64.5t-188 -28.5q-75 0 -122 23z" />
<glyph unicode="&#xa2;" horiz-adv-x="1088" d="M69 581q0 140 36.5 254.5t118 201t201.5 122.5l-34 376q20 14 51.5 28t68 24.5t77.5 17t77 6.5q62 0 99 -19q2 -98 -25 -413q88 -8 168 -24q6 -4 24.5 -17t22.5 -16t17.5 -13t18.5 -15t15 -14.5t17.5 -18.5t16.5 -21q0 -88 -31.5 -241t-61.5 -187q-36 -17 -107 -17 q-80 0 -115 20l-21 185q-12 14 -54.5 24.5t-80 12t-58.5 -0.5q-44 -85 -44 -243v-37q0 -23 1 -42.5t5.5 -46.5t11.5 -48.5t20.5 -43.5t32 -37t46.5 -24.5t63 -9.5q39 0 81 10.5t67.5 20.5t76.5 33.5t70 31.5q40 -40 63 -84t30 -113q-25 -30 -58.5 -61t-103.5 -75.5 t-144 -65.5l-25 -247q-17 -29 -53 -46t-77 -17q-66 0 -108 42l-25 266q-119 32 -204 117t-126 204t-41 261z" />
<glyph unicode="&#xa3;" horiz-adv-x="1182" d="M68 217q0 93 40 184q26 0 86 -12.5t109 -31.5q0 5 0.5 15.5t0.5 16.5q0 91 -37 248h-178q-14 33 -14 97q0 77 23 110l121 9q-18 93 -18 170q0 264 127 395.5t413 131.5q130 0 256 -40.5t172 -103.5q-2 -71 -48.5 -180.5t-91.5 -137.5q-215 103 -398 103q-45 -17 -45 -250 v-60l230 18q13 -20 13 -65q0 -55 -16.5 -118.5t-33.5 -76.5l-190 -1q-2 -227 -37 -308h281l73 184h13q99 0 189 -32q48 -128 48 -232q0 -111 -69 -190.5t-186 -79.5q-89 0 -226 54.5t-212 115.5q-45 -78 -104 -121t-147 -49q-63 11 -103.5 77t-40.5 160z" />
<glyph unicode="&#xa4;" horiz-adv-x="1206" d="M41 311l181 133q-33 66 -33 168q0 105 48 196q-157 98 -190 166q3 62 92 139t151 77l144 -197q84 39 177 39q112 0 178 -38v-1q43 75 87.5 125t77.5 67q62 -3 139 -92t77 -151l-179 -133q40 -102 40 -197q0 -93 -44 -179q141 -85 177 -156q-3 -62 -92 -139t-151 -77 l-129 173q-86 -44 -181 -44q-43 0 -102.5 14t-98.5 34q-91 -140 -153 -170q-62 3 -139 92t-77 151zM478 613q0 -44 23 -105q19 -19 98 -26t110 11q33 65 33 119q0 44 -20 104q-19 19 -98 26t-110 -11q-36 -63 -36 -118z" />
<glyph unicode="&#xa5;" horiz-adv-x="1245" d="M-124 1407v23q35 43 116.5 81.5t175.5 38.5q185 0 244 -131l6 -3q18 -39 85 -275.5t110 -427.5l3 -1q65 126 127 273t82 231l-124 21q-24 97 -24 172v23q33 42 125 81t187 39q115 0 180.5 -56.5t65.5 -164.5q0 -72 -42.5 -168t-110.5 -191t-136.5 -176.5t-134.5 -146.5 l225 9q15 -24 15 -72q0 -52 -15 -108t-37 -80l-258 5q-3 -46 -7 -137l252 11q16 -19 16 -71q0 -54 -16 -112.5t-37 -76.5l-222 5v-56q0 -43 2 -127q-36 -59 -132 -59q-71 0 -133 34.5t-77 91.5q0 34 2 124l-216 5q-10 80 -10 114q0 58 21 93l206 9v80q0 53 1 80l-246 5 q-10 57 -10 111q0 71 19 96l206 8q-234 327 -322 574l-4 -1l-134 21q-24 97 -24 182z" />
<glyph unicode="&#xa6;" horiz-adv-x="636" d="M144 1796q34 23 106 38t144 15q57 0 98 -11l-6 -1042q-63 -21 -138 -21q-51 0 -175 18zM180 513q50 15 113 15q93 0 193 -35l-4 -782q-81 -25 -152 -25q-66 0 -128 21z" />
<glyph unicode="&#xa7;" horiz-adv-x="1027" d="M95 751q0 55 29 113t86 103q-115 107 -115 274q0 81 23 146.5t71 118t131.5 81t195.5 28.5q261 0 406 -68q7 -29 7 -73q0 -84 -26 -171.5t-68 -129.5q-47 15 -178.5 67.5t-184.5 63.5q-20 -5 -32 -23.5t-12 -43.5q0 -20 14.5 -37t28.5 -24.5t40 -18.5q5 -2 7 -3 q17 -7 62.5 -26t72 -30.5t64.5 -31t67 -39.5q165 -113 165 -270q0 -156 -132 -245q132 -107 132 -245q0 -112 -63.5 -193.5t-162.5 -118.5q-98 -36 -257 -36q-97 0 -199.5 37.5t-156.5 125.5q1 61 16.5 106.5t61.5 104.5q88 -35 129 -50t116.5 -33t138.5 -18q29 0 38.5 5.5 t9.5 29.5q0 20 -23 33q-40 22 -112 56t-117.5 56t-102.5 61.5t-90 79.5t-56.5 101.5t-23.5 136.5zM418 749q0 -17 7.5 -30.5t23.5 -24.5t27 -16.5t33 -15.5q6 -3 9 -4q6 -3 68 -29q44 44 44 88q0 23 -25 35q-66 34 -142 70q-21 -7 -33 -26.5t-12 -46.5z" />
<glyph unicode="&#xa8;" horiz-adv-x="1051" d="M50 1454q0 89 60 134t160 45q221 0 221 -181q0 -81 -73.5 -140.5t-147.5 -59.5q-86 0 -153 60t-67 142zM560 1454q0 89 60 134t160 45q221 0 221 -181q0 -81 -73.5 -140.5t-147.5 -59.5q-86 0 -153 60t-67 142z" />
<glyph unicode="&#xa9;" horiz-adv-x="1669" d="M67 767q0 162 61 305.5t164.5 244.5t245 159t298.5 58q166 0 302 -43t241.5 -132t164 -239.5t58.5 -352.5q0 -163 -60.5 -306.5t-164 -244.5t-244.5 -159t-297 -58q-362 0 -565.5 195.5t-203.5 572.5zM352 730q0 -218 134.5 -348t367.5 -130q223 0 410 207 q-13 83 -64 143q-60 -31 -92.5 -46t-86.5 -30.5t-103 -15.5q-111 0 -166.5 69.5t-55.5 180.5t51 230q39 8 132 -10.5t121 -46.5l20 -184q34 -8 82 -8q55 0 86 11q26 41 53 177t30 226q-37 46 -114 96q-49 13 -132 20.5t-144 7.5q-134 0 -238 -45.5t-166 -123.5t-93.5 -174.5 t-31.5 -205.5z" />
<glyph unicode="&#xaa;" horiz-adv-x="1107" d="M73 781q0 149 74 225.5t214 76.5q107 0 232 -37v28q0 86 -5 106q-5 8 -15.5 16.5t-52 19.5t-101.5 11q-78 0 -231 -47q-80 131 -80 224q0 17 3 34q45 34 79 50q125 62 293 62q72 0 130 -7.5t120 -31t103 -62.5t68 -108t27 -161q0 -47 -7 -108t-17.5 -114.5t-20.5 -100 t-17 -73.5l-7 -28l129 55q61 -65 71 -158q-9 -19 -33.5 -46t-60.5 -57t-87 -50.5t-102 -20.5q-73 0 -111 44t-38 113q0 40 11 79l-26 8q-11 -60 -35 -105.5t-52.5 -71.5t-65.5 -41.5t-67.5 -20.5t-64.5 -5q-47 0 -92.5 20.5t-82.5 57.5t-59.5 95.5t-22.5 128.5zM402 821 q0 -28 14.5 -51t45.5 -26q35 6 82 48t54 80l-5 21q-48 7 -101 7q-45 0 -62 -7q-28 -34 -28 -72z" />
<glyph unicode="&#xab;" horiz-adv-x="1361" d="M76 568q0 70 11 120l437 426q49 -20 107 -74t71 -103q-25 -75 -110.5 -195t-165.5 -203q69 -63 162.5 -170.5t149.5 -183.5q-25 -52 -74 -102t-95 -76l-449 353q-44 76 -44 208zM659 568q0 70 11 120l437 426q49 -20 107 -74t71 -103q-25 -75 -110.5 -195t-165.5 -203 q69 -63 162.5 -170.5t149.5 -183.5q-25 -52 -74 -102t-95 -76l-449 353q-44 76 -44 208z" />
<glyph unicode="&#xac;" horiz-adv-x="1098" d="M101 533q0 85 42 156l734 56l85 -78v-375q-61 -70 -145 -70q-49 0 -110 24l9 175l-602 -1q-13 68 -13 113z" />
<glyph unicode="&#xad;" />
<glyph unicode="&#xae;" horiz-adv-x="1390" d="M142 946q3 149 33 258t94.5 188t173 118.5t261.5 39.5q146 0 252.5 -42.5t170.5 -123t93.5 -189.5t27.5 -249q-5 -295 -140.5 -448t-424.5 -153q-139 0 -244.5 43.5t-171 123.5t-97 189t-28.5 245zM344 1242q0 -46 14 -82l83 -12q-5 -87 -5 -227l1 -1q0 -243 24 -352 q27 -11 58 -11q29 0 72.5 8t64.5 20q-3 15 -9.5 49.5t-12.5 68.5t-10 67q13 1 55.5 -2.5t56.5 -3.5q17 -119 55 -165q37 -43 103 -43q30 0 58 10t47.5 24t34.5 27.5t22 23.5l7 10q-7 53 -45 89l-69 -30q-48 68 -77 134q51 51 89.5 133t38.5 153q0 51 -16 87.5t-39.5 56 t-61 30.5t-68 13.5t-72.5 2.5q-93 0 -213 -11.5t-184 -30.5q-2 -22 -2 -36zM622 879q7 84 12 254q47 7 74 7q75 0 84 -11q-17 -163 -46 -242q-57 -5 -124 -8z" />
<glyph unicode="&#xaf;" horiz-adv-x="808" d="M50 1350q0 130 49 214l651 14q8 -37 8 -77q0 -111 -48 -204q-72 -7 -293 -7q-178 0 -364 7q-3 25 -3 53z" />
<glyph unicode="&#xb0;" horiz-adv-x="876" d="M46 1201q0 75 26 145.5t74 127.5t126 91t173 34t171 -31.5t122.5 -84t70.5 -118t24 -137.5q0 -76 -26.5 -147.5t-76 -129.5t-127.5 -93t-173 -35q-93 0 -168 32t-121 85.5t-70.5 120.5t-24.5 140zM342 1204q0 -89 25 -128q34 -24 88 -24q27 0 48 7q20 46 20 129 q0 98 -25 132q-50 17 -97 17q-5 0 -16.5 -0.5t-18.5 -0.5q-24 -48 -24 -132z" />
<glyph unicode="&#xb1;" horiz-adv-x="1140" d="M107 628q0 55 14.5 96t48.5 86l238 18l-36 184q34 55 96.5 84.5t137.5 29.5q89 0 133 -41l-33 -234l315 24q9 -39 9 -69q0 -106 -78 -243h-234v-156q-64 -74 -153 -74q-50 0 -141 27l-3 202h-310q-4 36 -4 66zM108 32q0 112 59 211l818 45q7 -28 7 -63q0 -113 -75 -260 q-123 -4 -294 -4q-287 0 -512 13q-3 30 -3 58z" />
<glyph unicode="&#xb2;" horiz-adv-x="1082" d="M86 782q0 138 132 214q9 0 28 -4.5t36.5 -9.5t44 -12.5t36.5 -10.5q55 46 116.5 128t77.5 143q-5 37 -25 54q-29 7 -73 7q-105 0 -260 -70q-37 43 -61 106t-24 131q0 16 1 24l2 2q90 87 242 114q58 11 120 11q68 0 128.5 -8t118.5 -28.5t99.5 -52.5t66.5 -82t25 -114 q0 -66 -30.5 -128.5t-65.5 -102.5t-98.5 -85t-90 -60t-80.5 -42q-3 -2 -4 -2.5l-3 -1.5l-4 -2v-13l214 -25l52 98l142 -11q38 -94 38 -164q0 -93 -59.5 -158.5t-146.5 -65.5q-157 0 -344 156q-39 -68 -90.5 -105t-127.5 -43q-59 16 -96 76.5t-37 136.5z" />
<glyph unicode="&#xb3;" horiz-adv-x="1130" d="M78 1425q0 74 55.5 128t135.5 54q78 0 182.5 -34.5t172.5 -80.5q33 37 113 74.5t143 40.5q51 -22 86 -95.5t35 -147.5q0 -49 -16 -82q-18 -5 -38.5 -8t-30 -3.5t-37 -1.5t-34.5 -1l-202 -160q14 4 16 6q69 33 142 33q104 0 164 -60.5t60 -167.5q0 -114 -70.5 -196.5 t-182.5 -122t-249 -39.5q-47 0 -93 4.5t-102 18t-100 35.5t-79.5 60.5t-46.5 89.5q36 125 109 171q203 -121 377 -121q36 0 72 10.5t50 27.5q4 12 3.5 29.5t-5.5 26.5q-43 40 -174 58q-51 -49 -109 -60q-36 11 -64 54.5t-28 90.5q0 37 19.5 76.5t59.5 62.5l93 -32l41 129 l-391 -56q-31 22 -54 71.5t-23 117.5z" />
<glyph unicode="&#xb4;" horiz-adv-x="684" d="M50 1421l333 372q209 -99 251 -266q-92 -86 -219 -156t-251 -107q-36 23 -69 68.5t-45 88.5z" />
<glyph unicode="&#xb5;" horiz-adv-x="1280" d="M108 1114q43 34 104.5 52.5t115.5 18.5q53 0 109 -21.5t82 -49.5q19 -48 19 -145q0 -210 -51 -661q17 -18 42 -25q20 1 102 97t129 184q11 183 22 283l-105 21q-23 91 -23 169q0 4 0.5 13.5t0.5 14.5q36 46 108 83t165 37q258 0 258 -259q0 -183 -117 -623l115 50 q69 -73 80 -178q-14 -28 -53.5 -71.5t-103 -83.5t-117.5 -40q-83 0 -114.5 46.5t-31.5 129.5q0 20 10.5 82t17.5 86l-28 9q-100 -353 -304 -353q-58 0 -103 40.5t-53 91.5l-29 -8l133 -417q-33 -53 -95.5 -86.5t-127.5 -33.5q-43 0 -86 21t-57 60q-13 131 -13 309 q0 42 1 132.5t1 139.5q0 59 -1 170t-1 191l1 411z" />
<glyph unicode="&#xb6;" horiz-adv-x="1348" d="M70 1058q0 199 90 333q92 137 359 137h31q21 -201 33 -453l1 -740l-44 -3q-107 29 -197.5 104t-149 175t-91 216t-32.5 231zM343 -136q2 146 66 224q197 -46 393 -63q3 79 3 159q0 40 -2 156l-13 811l12 379h350l53 -62q-13 -441 -18 -564q-2 -51 -8.5 -245.5t-14 -346 t-16.5 -229.5q-21 -193 -108 -270t-300 -77q-283 0 -397 128z" />
<glyph unicode="&#xb7;" horiz-adv-x="682" d="M88 608q0 87 60.5 144.5t192.5 57.5t192.5 -57.5t60.5 -144.5q0 -88 -78 -153.5t-175 -65.5t-175 65.5t-78 153.5z" />
<glyph unicode="&#xb8;" horiz-adv-x="595" d="M50 -298q16 52 70 87q130 -78 178 -78q15 0 42 9q12 11 15 30t-8 33q-19 4 -62.5 8t-72.5 11.5t-48 24.5q-7 25 -7 60q0 58 23 112.5t63 82.5l86 -23q0 -5 -2.5 -40t-2.5 -54q0 -21 3 -29q38 14 94 18q10 0 27.5 -5.5t40.5 -18.5t39.5 -41t16.5 -66q0 -117 -78 -186 t-183 -69q-205 0 -234 134z" />
<glyph unicode="&#xb9;" horiz-adv-x="765" d="M71 1396q0 110 33 197h328q43 0 73 -14t46 -33.5t25 -52.5t11 -60t2 -67q0 -111 -9 -244t-23.5 -295.5t-19.5 -227.5q-70 -38 -157 -38q-76 0 -141 27q-10 172 -10 452q0 127 10 282q-133 29 -168 74z" />
<glyph unicode="&#xba;" horiz-adv-x="1110" d="M86 1013q-2 250 116.5 393.5t360.5 143.5q108 0 189 -26t132.5 -71.5t83 -114.5t44 -147t12.5 -178q0 -114 -30 -210t-88.5 -169t-151 -114t-210.5 -41q-124 0 -214.5 41.5t-142.5 116.5t-76 168t-25 208zM434 1014q0 -126 34 -251q23 -23 112 -23q47 0 55 7 q42 71 42 241q0 156 -34 225q-20 23 -93 23q-54 2 -72 -9q-44 -76 -44 -213z" />
<glyph unicode="&#xbb;" horiz-adv-x="1361" d="M40 185q56 76 149.5 183.5t162.5 170.5q-80 83 -165.5 203t-110.5 195q13 49 71 103t107 74l437 -426q11 -50 11 -120q0 -132 -44 -208l-449 -353q-46 26 -95 76t-74 102zM623 936q25 52 74 102t95 76l449 -353q44 -76 44 -208q0 -70 -11 -120l-437 -426q-49 20 -107 74 t-71 103q25 75 110.5 195t165.5 203q-69 63 -162.5 170.5t-149.5 183.5z" />
<glyph unicode="&#xbc;" horiz-adv-x="2113" d="M32 1607q0 110 33 197h328q43 0 73 -14t46 -33.5t25 -52.5t11 -60t2 -67q0 -111 -9 -244t-23.5 -295.5t-19.5 -227.5q-70 -38 -157 -38q-77 0 -141 27q-10 172 -10 452q0 127 10 282q-133 29 -168 74zM147 20l978 1751q61 2 168.5 -44t150.5 -97l-1084 -1741 q-53 2 -126.5 43.5t-86.5 87.5zM1036 401q0 141 62 196q20 0 107 -19q6 59 6 144q0 64 -6.5 188t-7.5 175q39 50 103.5 75t137.5 25q42 0 90.5 -15.5t70.5 -55.5q-39 -293 -168 -585l236 -18q-4 49 -5.5 90.5t-2.5 96.5t-3 102q83 53 190 53q100 0 168 -45q-7 -257 -77 -790 q-70 -38 -140 -38q-64 0 -132 27l3 236l-296 92l1 -1q-35 -61 -81.5 -94.5t-115.5 -38.5q-55 15 -97.5 74t-42.5 126z" />
<glyph unicode="&#xbd;" horiz-adv-x="1986" d="M32 1607q0 110 33 197h328q43 0 73 -14t46 -33.5t25 -52.5t11 -60t2 -67q0 -111 -9 -244t-23.5 -295.5t-19.5 -227.5q-70 -38 -157 -38q-77 0 -141 27q-10 172 -10 452q0 127 10 282q-133 29 -168 74zM147 20l978 1751q61 2 168.5 -44t150.5 -97l-1084 -1741 q-53 2 -126.5 43.5t-86.5 87.5zM1048 200q0 138 132 214q9 0 28 -4.5t36.5 -9.5t44 -12.5t36.5 -10.5q55 46 116.5 128t77.5 143q-5 37 -25 54q-29 7 -73 7q-105 0 -260 -70q-37 43 -61 106t-24 131q0 16 1 24l2 2q90 87 242 114q58 11 120 11q68 0 128.5 -8t118.5 -28.5 t99.5 -52.5t66.5 -82t25 -114q0 -66 -30.5 -128.5t-65.5 -102.5t-98.5 -85t-90 -60t-80.5 -42q-8 -4 -11 -6v-13l214 -25l52 98l142 -11q38 -94 38 -164q0 -93 -59.5 -158.5t-146.5 -65.5q-157 0 -344 156q-39 -68 -90.5 -105t-127.5 -43q-59 16 -96 76.5t-37 136.5z" />
<glyph unicode="&#xbe;" horiz-adv-x="2445" d="M2 1632q0 74 55.5 128t135.5 54q78 0 182.5 -34.5t172.5 -80.5q33 37 113 74.5t143 40.5q51 -22 86 -95.5t35 -147.5q0 -49 -16 -82q-18 -5 -38.5 -8t-30 -3.5t-37 -1.5t-34.5 -1l-202 -160q13 4 16 6q69 33 142 33q104 0 164 -60.5t60 -167.5q0 -114 -70.5 -196.5 t-182.5 -122t-249 -39.5q-47 0 -93 4.5t-102 18t-100 35.5t-79.5 60.5t-46.5 89.5q36 125 109 171q203 -121 377 -121q36 0 72 10.5t50 27.5q4 12 3.5 29.5t-5.5 26.5q-43 40 -174 58q-51 -49 -109 -60q-36 11 -64 54.5t-28 90.5q0 37 19.5 76.5t59.5 62.5l93 -32l41 129 l-391 -56q-31 22 -54 71.5t-23 117.5zM479 20l978 1751q61 2 168.5 -44t150.5 -97l-1084 -1741q-53 2 -126.5 43.5t-86.5 87.5zM1375 401q0 141 62 196q19 0 100 -17q6 59 6 144q0 64 -6.5 187.5t-7.5 173.5q39 50 103.5 75t137.5 25q42 0 90.5 -15.5t70.5 -55.5 q-39 -293 -168 -585l236 -18q-4 49 -5.5 90.5t-2.5 96.5t-3 102q83 53 190 53q100 0 168 -45q-7 -257 -77 -790q-70 -38 -140 -38q-64 0 -132 27l3 236l-289 90q-72 -123 -196 -132q-55 15 -97.5 74t-42.5 126z" />
<glyph unicode="&#xbf;" horiz-adv-x="908" d="M34 187q0 53 10.5 100t35.5 90.5t64 74t100.5 49t139.5 18.5q3 0 10.5 -0.5t11.5 -0.5l44 148q48 15 92 15q59 0 115 -25q1 -2 9 -19.5t11 -23.5t10.5 -23.5t11 -27.5t9.5 -27t8.5 -29.5t4.5 -27.5t2 -29q0 -35 -14 -64t-41 -49t-56.5 -35.5t-71 -26.5t-74 -18.5 t-74.5 -16t-65 -14.5q-13 -21 -2 -42q64 -51 169 -98t326 -117q2 -20 2 -32q0 -115 -77.5 -224t-154.5 -118q-39 0 -106 24.5t-142 66t-145.5 108.5t-106.5 141q-56 117 -56 253zM267 1018q0 58 36.5 109t95 80.5t121.5 29.5t121.5 -29.5t95 -80.5t36.5 -109 q0 -41 -13.5 -75.5t-42 -64t-79 -46t-118.5 -16.5t-118.5 16.5t-79 46t-42 64t-13.5 75.5z" />
<glyph unicode="&#xc0;" horiz-adv-x="1405" d="M-21 92q0 72 22 137t60 92q61 -20 111 -32q97 390 221 921l-241 26q-23 63 -23 143q0 61 14 119q145 28 334.5 40.5t325.5 12.5q98 0 147 -1l63 -36q168 -461 341 -1247q19 -86 19 -118q0 -84 -60 -136q-84 -33 -203 -33q-56 0 -113 12t-77 37l12 258l-25 134 q-65 -4 -153 -4q-94 0 -176 6q-4 -19 -12 -54q-24 -110 -36 -156.5t-34 -105t-46.5 -78.5t-63.5 -35t-97 -15q-92 0 -181.5 33.5t-128.5 79.5zM338 1737q3 79 50.5 157t125.5 126l385 -224q5 -48 -12 -93.5t-52 -73.5q-38 -4 -64 -4q-107 0 -231 30t-202 82zM644 708h224 l-106 493h-46z" />
<glyph unicode="&#xc1;" horiz-adv-x="1405" d="M-21 92q0 72 22 137t60 92q61 -20 111 -32q97 390 221 921l-241 26q-23 63 -23 143q0 61 14 119q145 28 334.5 40.5t325.5 12.5q98 0 147 -1l63 -36q168 -461 341 -1247q19 -86 19 -118q0 -84 -60 -136q-84 -33 -203 -33q-56 0 -113 12t-77 37l12 258l-25 134 q-65 -4 -153 -4q-94 0 -176 6q-4 -19 -12 -54q-24 -110 -36 -156.5t-34 -105t-46.5 -78.5t-63.5 -35t-97 -15q-92 0 -181.5 33.5t-128.5 79.5zM447 1796l402 224q76 -46 116 -123t43 -160q-78 -52 -202 -82t-231 -30q-26 0 -64 4q-48 52 -64 167zM644 708h224l-106 493h-46z " />
<glyph unicode="&#xc2;" horiz-adv-x="1405" d="M-21 92q0 72 22 137t60 92q61 -20 111 -32q97 390 221 921l-241 26q-23 63 -23 143q0 61 14 119q145 28 334.5 40.5t325.5 12.5q98 0 147 -1l63 -36q168 -461 341 -1247q19 -86 19 -118q0 -84 -60 -136q-84 -33 -203 -33q-56 0 -113 12t-77 37l12 258l-25 134 q-65 -4 -153 -4q-94 0 -176 6q-4 -19 -12 -54q-24 -110 -36 -156.5t-34 -105t-46.5 -78.5t-63.5 -35t-97 -15q-92 0 -181.5 33.5t-128.5 79.5zM323 1752l203 242q45 21 186 21q108 0 155 -11l202 -248q-15 -37 -68.5 -86t-100.5 -61q-131 63 -235 156q-82 -86 -199 -152 q-41 18 -81 58.5t-62 80.5zM644 708h224l-106 493h-46z" />
<glyph unicode="&#xc3;" horiz-adv-x="1405" d="M-21 92q0 72 22 137t60 92q61 -20 111 -32q97 390 221 921l-241 26q-23 63 -23 143q0 61 14 119q145 28 334.5 40.5t325.5 12.5q98 0 147 -1l63 -36q168 -461 341 -1247q19 -86 19 -118q0 -84 -60 -136q-84 -33 -203 -33q-56 0 -113 12t-77 37l12 258l-25 134 q-65 -4 -153 -4q-94 0 -176 6q-4 -19 -12 -54q-24 -110 -36 -156.5t-34 -105t-46.5 -78.5t-63.5 -35t-97 -15q-92 0 -181.5 33.5t-128.5 79.5zM262 1755q14 88 105 176t191 88q40 0 99.5 -21.5t89.5 -36.5t86 -46q9 4 23 13.5t26 19.5t40 32t48 38q117 -57 125 -138 q-10 -43 -34.5 -88t-61 -84.5t-87 -64.5t-105.5 -25t-132.5 38t-128.5 81q-76 -33 -186 -119q-42 33 -68 65.5t-30 71.5zM644 708h224l-106 493h-46z" />
<glyph unicode="&#xc4;" horiz-adv-x="1405" d="M-21 92q0 72 22 137t60 92q61 -20 111 -32q97 390 221 921l-241 26q-23 63 -23 143q0 61 14 119q145 28 334.5 40.5t325.5 12.5q98 0 147 -1l63 -36q168 -461 341 -1247q19 -86 19 -118q0 -84 -60 -136q-84 -33 -203 -33q-56 0 -113 12t-77 37l12 258l-25 134 q-65 -4 -153 -4q-94 0 -176 6q-4 -19 -12 -54q-24 -110 -36 -156.5t-34 -105t-46.5 -78.5t-63.5 -35t-97 -15q-92 0 -181.5 33.5t-128.5 79.5zM204 1802q0 89 60 134t160 45q221 0 221 -181q0 -81 -73.5 -140.5t-147.5 -59.5q-86 0 -153 60t-67 142zM644 708h224l-106 493 h-46zM714 1802q0 89 60 134t160 45q221 0 221 -181q0 -81 -73.5 -140.5t-147.5 -59.5q-86 0 -153 60t-67 142z" />
<glyph unicode="&#xc5;" horiz-adv-x="1405" d="M-21 92q0 72 22 137t60 92q61 -20 111 -32q97 390 221 921l-241 26q-23 63 -23 143q0 61 14 119q146 28 374 43q-62 34 -96 95.5t-34 144.5q0 120 82 179.5t221 59.5q130 0 209.5 -56.5t79.5 -177.5q0 -157 -116 -235q15 0 44 -0.5t43 -0.5l63 -36q168 -461 341 -1247 q19 -86 19 -118q0 -84 -60 -136q-84 -33 -203 -33q-56 0 -113 12t-77 37l12 258l-25 134q-65 -4 -153 -4q-94 0 -176 6q-4 -19 -12 -54q-24 -110 -36 -156.5t-34 -105t-46.5 -78.5t-63.5 -35t-97 -15q-92 0 -181.5 33.5t-128.5 79.5zM593 1769q0 -33 23 -51t60 -18 q55 0 81 10q12 48 -2 73t-73 25q-56 0 -82 -7q-7 -9 -7 -32zM644 708h224l-106 493h-46z" />
<glyph unicode="&#xc6;" horiz-adv-x="1944" d="M-21 92q0 72 22 137t60 92q61 -20 111 -32q97 390 221 921l-241 26q-23 63 -23 143q0 61 14 119q145 28 334.5 40.5t325.5 12.5q98 0 147 -1l62 -36q217 36 478 36q207 0 291 -17q111 -67 172 -149q0 -106 -30.5 -219t-72.5 -160q-44 -22 -118 -22q-66 0 -110 26l-28 197 q-68 11 -176 11q-7 0 -25.5 -0.5t-92.5 -3t-186 -5.5q50 -168 101 -363q267 49 410 64q40 -61 40 -145q0 -57 -16 -108.5t-35 -72.5q-60 -9 -131 -9q-112 0 -205 24q12 -48 56 -243h23l511 38q15 -14 25.5 -56t10.5 -92q0 -125 -69 -195t-160 -70q-139 0 -326 145 q-8 -82 -68.5 -113.5t-170.5 -31.5q-56 0 -113 12t-77 37l12 258l-25 134q-65 -4 -153 -4q-94 0 -176 6q-4 -19 -12 -54q-24 -110 -36 -156.5t-34 -105t-46.5 -78.5t-63.5 -35t-97 -15q-92 0 -181.5 33.5t-128.5 79.5zM644 708h224l-106 493h-46z" />
<glyph unicode="&#xc7;" horiz-adv-x="1220" d="M56 764q0 134 22.5 250t72.5 215.5t124 170.5t182 111.5t242 40.5q150 0 317 -39q109 -66 172 -150q0 -113 -40.5 -303.5t-80.5 -235.5q-26 -13 -44 -17.5t-56 -4.5q-106 0 -150 26l-35 337q-71 20 -197 20q-34 0 -50 -1q-49 -157 -49 -456q0 -134 14 -217 q7 -40 11.5 -61t13.5 -48t21.5 -40t32 -26t47.5 -18t67 -5q101 0 186.5 29.5t186.5 86.5q38 -41 54 -60.5t38 -64t28 -93.5q-8 -16 -31 -40.5t-67 -56.5t-97.5 -59.5t-129.5 -48.5t-156 -25v-16q0 -21 3 -29q38 14 94 18q10 0 27.5 -5.5t40.5 -18.5t39.5 -41t16.5 -66 q0 -117 -78 -186t-183 -69q-205 0 -234 134q16 52 70 87q130 -78 178 -78q15 0 42 9q12 11 15 30t-8 33q-19 4 -62.5 8t-72.5 11.5t-48 24.5q-7 25 -7 60q0 52 18 100q-264 35 -382 234.5t-118 542.5z" />
<glyph unicode="&#xc8;" horiz-adv-x="1202" d="M18 1394q0 32 5 70q119 45 313.5 65.5t392.5 20.5q187 0 271 -17q111 -67 172 -149q0 -109 -30 -231t-71 -168q-44 -22 -120 -22q-66 0 -110 26l-34 218q-63 10 -150 10q-24 0 -48 -3q-4 -145 -41 -395q222 37 379 54q40 -61 40 -149q0 -58 -16 -112t-35 -75 q-42 -7 -100 -7q-162 0 -306 51q-2 -14 -15.5 -99t-18.5 -126l633 37q15 -14 25.5 -56t10.5 -92q0 -119 -68 -192t-161 -73q-95 0 -266.5 56.5t-241.5 113.5q-46 -80 -100.5 -122t-140.5 -48q-65 11 -111 86.5t-46 178.5q0 89 37 173q40 0 130 -23q-6 270 -6 443 q0 215 8 367l-154 21q-27 76 -27 168zM257 1737q3 79 50.5 157t125.5 126l385 -224q5 -48 -12 -93.5t-52 -73.5q-38 -4 -64 -4q-107 0 -231 30t-202 82z" />
<glyph unicode="&#xc9;" horiz-adv-x="1202" d="M18 1394q0 32 5 70q119 45 313.5 65.5t392.5 20.5q187 0 271 -17q111 -67 172 -149q0 -109 -30 -231t-71 -168q-44 -22 -120 -22q-66 0 -110 26l-34 218q-63 10 -150 10q-24 0 -48 -3q-4 -145 -41 -395q222 37 379 54q40 -61 40 -149q0 -58 -16 -112t-35 -75 q-42 -7 -100 -7q-162 0 -306 51q-2 -14 -15.5 -99t-18.5 -126l633 37q15 -14 25.5 -56t10.5 -92q0 -119 -68 -192t-161 -73q-95 0 -266.5 56.5t-241.5 113.5q-46 -80 -100.5 -122t-140.5 -48q-65 11 -111 86.5t-46 178.5q0 89 37 173q40 0 130 -23q-6 270 -6 443 q0 215 8 367l-154 21q-27 76 -27 168zM397 1796l402 224q76 -46 116 -123t43 -160q-78 -52 -202 -82t-231 -30q-26 0 -64 4q-48 52 -64 167z" />
<glyph unicode="&#xca;" horiz-adv-x="1202" d="M18 1394q0 32 5 70q119 45 313.5 65.5t392.5 20.5q187 0 271 -17q111 -67 172 -149q0 -109 -30 -231t-71 -168q-44 -22 -120 -22q-66 0 -110 26l-34 218q-63 10 -150 10q-24 0 -48 -3q-4 -145 -41 -395q222 37 379 54q40 -61 40 -149q0 -58 -16 -112t-35 -75 q-42 -7 -100 -7q-162 0 -306 51q-2 -14 -15.5 -99t-18.5 -126l633 37q15 -14 25.5 -56t10.5 -92q0 -119 -68 -192t-161 -73q-95 0 -266.5 56.5t-241.5 113.5q-46 -80 -100.5 -122t-140.5 -48q-65 11 -111 86.5t-46 178.5q0 89 37 173q40 0 130 -23q-6 270 -6 443 q0 215 8 367l-154 21q-27 76 -27 168zM232 1752l203 242q45 21 186 21q108 0 155 -11l202 -248q-15 -37 -68.5 -86t-100.5 -61q-131 63 -235 156q-82 -86 -199 -152q-41 18 -81 58.5t-62 80.5z" />
<glyph unicode="&#xcb;" horiz-adv-x="1202" d="M18 1394q0 32 5 70q119 45 313.5 65.5t392.5 20.5q187 0 271 -17q111 -67 172 -149q0 -109 -30 -231t-71 -168q-44 -22 -120 -22q-66 0 -110 26l-34 218q-63 10 -150 10q-24 0 -48 -3q-4 -145 -41 -395q222 37 379 54q40 -61 40 -149q0 -58 -16 -112t-35 -75 q-42 -7 -100 -7q-162 0 -306 51q-2 -14 -15.5 -99t-18.5 -126l633 37q15 -14 25.5 -56t10.5 -92q0 -119 -68 -192t-161 -73q-95 0 -266.5 56.5t-241.5 113.5q-46 -80 -100.5 -122t-140.5 -48q-65 11 -111 86.5t-46 178.5q0 89 37 173q40 0 130 -23q-6 270 -6 443 q0 215 8 367l-154 21q-27 76 -27 168zM143 1802q0 89 60 134t160 45q221 0 221 -181q0 -81 -73.5 -140.5t-147.5 -59.5q-86 0 -153 60t-67 142zM653 1802q0 89 60 134t160 45q221 0 221 -181q0 -81 -73.5 -140.5t-147.5 -59.5q-86 0 -153 60t-67 142z" />
<glyph unicode="&#xcc;" horiz-adv-x="722" d="M-9 1737q3 79 50.5 157t125.5 126l385 -224q5 -48 -12 -93.5t-52 -73.5q-38 -4 -64 -4q-107 0 -231 30t-202 82zM5 1430q32 40 134.5 80t198.5 40q116 0 189.5 -52t77.5 -150q2 -58 2 -99q0 -97 -5 -227.5t-14.5 -285t-17 -263t-19 -264.5t-13.5 -186q-79 -44 -180 -44 q-86 0 -162 31v39q0 53 -6 332t-6 459q0 221 8 374l-163 21q-26 108 -24 195z" />
<glyph unicode="&#xcd;" horiz-adv-x="722" d="M5 1430q32 40 134.5 80t198.5 40q116 0 189.5 -52t77.5 -150q2 -58 2 -99q0 -97 -5 -227.5t-14.5 -285t-17 -263t-19 -264.5t-13.5 -186q-79 -44 -180 -44q-86 0 -162 31v39q0 53 -6 332t-6 459q0 221 8 374l-163 21q-26 108 -24 195zM131 1796l402 224q76 -46 116 -123 t43 -160q-78 -52 -202 -82t-231 -30q-26 0 -64 4q-48 52 -64 167z" />
<glyph unicode="&#xce;" horiz-adv-x="722" d="M-34 1752l203 242q45 21 186 21q108 0 155 -11l202 -248q-15 -37 -68.5 -86t-100.5 -61q-131 63 -235 156q-82 -86 -199 -152q-41 18 -81 58.5t-62 80.5zM5 1430q32 40 134.5 80t198.5 40q116 0 189.5 -52t77.5 -150q2 -58 2 -99q0 -97 -5 -227.5t-14.5 -285t-17 -263 t-19 -264.5t-13.5 -186q-79 -44 -180 -44q-86 0 -162 31v39q0 53 -6 332t-6 459q0 221 8 374l-163 21q-26 108 -24 195z" />
<glyph unicode="&#xcf;" horiz-adv-x="722" d="M-143 1802q0 89 60 134t160 45q221 0 221 -181q0 -81 -73.5 -140.5t-147.5 -59.5q-86 0 -153 60t-67 142zM5 1430q32 40 134.5 80t198.5 40q116 0 189.5 -52t77.5 -150q2 -58 2 -99q0 -97 -5 -227.5t-14.5 -285t-17 -263t-19 -264.5t-13.5 -186q-79 -44 -180 -44 q-86 0 -162 31v39q0 53 -6 332t-6 459q0 221 8 374l-163 21q-26 108 -24 195zM367 1802q0 89 60 134t160 45q221 0 221 -181q0 -81 -73.5 -140.5t-147.5 -59.5q-86 0 -153 60t-67 142z" />
<glyph unicode="&#xd0;" horiz-adv-x="1339" d="M17 1394q0 32 5 70q107 47 328 66.5t443 19.5q60 0 105 -2.5t101.5 -11t97 -24.5t82 -44.5t67 -68.5t42 -99.5t16.5 -134.5q0 -314 -149 -816q-55 -183 -135 -263q-41 -46 -86 -69.5t-107 -23.5q-32 0 -85 10q-66 13 -125 37.5t-88.5 42.5t-72.5 48q-31 -47 -116.5 -97.5 t-156.5 -53.5q-69 26 -108.5 92.5t-39.5 149.5q0 51 17 105q69 20 145 23q-6 112 -8 288l-103 3q-10 57 -10 111q0 71 19 96l94 5q0 194 9 351h-1l-153 21q-27 77 -27 169zM529 339q147 -1 281 19q12 57 22 132.5t17 138.5t13.5 152t9.5 136t7.5 130t5.5 97q-3 6 -20 13.5 t-54.5 13.5t-85.5 6q-9 0 -32 0.5t-36 0.5q-46 0 -80 -5q-3 -75 -17 -301l212 11q15 -22 15 -72q0 -52 -15 -108t-37 -80l-190 5q-14 -229 -16 -289z" />
<glyph unicode="&#xd1;" horiz-adv-x="1430" d="M-3 92q0 72 22 137t60 92q70 -25 104 -31v942l-157 53q-23 54 -23 124q0 57 18 102q150 40 370 40q141 0 249 -21q118 -231 386 -1068l17 2q-29 247 -57.5 579.5t-28.5 455.5q113 51 234 51q88 0 169 -36l-97 -1264q52 -75 65 -176q-41 -45 -124.5 -69.5t-177.5 -24.5 q-160 0 -225 61q1 75 13 137q-31 62 -65 140.5t-56.5 132t-65 167t-55.5 149t-64.5 180t-58.5 163.5l-6 -1q21 -156 45 -459.5t24 -443.5q0 -226 -274 -226q-66 0 -140.5 36t-100.5 76zM384 1755q14 88 105 176t191 88q40 0 99.5 -21.5t89.5 -36.5t86 -46q9 4 23 13.5 t26 19.5t40 32t48 38q117 -57 125 -138q-10 -43 -34.5 -88t-61 -84.5t-87 -64.5t-105.5 -25t-132.5 38t-128.5 81q-76 -33 -186 -119q-42 33 -68 65.5t-30 71.5z" />
<glyph unicode="&#xd2;" horiz-adv-x="1387" d="M67 756q0 794 624 794q109 0 198 -21.5t153.5 -59t113.5 -94.5t80 -122t50 -148t26.5 -166.5t7.5 -182.5q0 -134 -19 -246.5t-64.5 -212.5t-116.5 -168.5t-180 -108.5t-249 -40q-141 0 -249.5 39.5t-178.5 107.5t-114.5 168.5t-63 212.5t-18.5 248zM350 1737 q3 79 50.5 157t125.5 126l385 -224q5 -48 -12 -93.5t-52 -73.5q-38 -4 -64 -4q-107 0 -231 30t-202 82zM496 811q0 -137 15 -273t37 -208q14 -15 71 -23t122 -8q82 0 94 9q51 89 51 399q0 143 -13.5 265.5t-37.5 171.5q-49 39 -182 41q-76 0 -101 -14q-56 -96 -56 -360z" />
<glyph unicode="&#xd3;" horiz-adv-x="1387" d="M67 756q0 794 624 794q109 0 198 -21.5t153.5 -59t113.5 -94.5t80 -122t50 -148t26.5 -166.5t7.5 -182.5q0 -134 -19 -246.5t-64.5 -212.5t-116.5 -168.5t-180 -108.5t-249 -40q-141 0 -249.5 39.5t-178.5 107.5t-114.5 168.5t-63 212.5t-18.5 248zM490 1796l402 224 q76 -46 116 -123t43 -160q-78 -52 -202 -82t-231 -30q-26 0 -64 4q-48 52 -64 167zM496 811q0 -137 15 -273t37 -208q14 -15 71 -23t122 -8q82 0 94 9q51 89 51 399q0 143 -13.5 265.5t-37.5 171.5q-49 39 -182 41q-76 0 -101 -14q-56 -96 -56 -360z" />
<glyph unicode="&#xd4;" horiz-adv-x="1387" d="M67 756q0 794 624 794q109 0 198 -21.5t153.5 -59t113.5 -94.5t80 -122t50 -148t26.5 -166.5t7.5 -182.5q0 -134 -19 -246.5t-64.5 -212.5t-116.5 -168.5t-180 -108.5t-249 -40q-141 0 -249.5 39.5t-178.5 107.5t-114.5 168.5t-63 212.5t-18.5 248zM325 1752l203 242 q45 21 186 21q108 0 155 -11l202 -248q-15 -37 -68.5 -86t-100.5 -61q-131 63 -235 156q-82 -86 -199 -152q-41 18 -81 58.5t-62 80.5zM496 811q0 -137 15 -273t37 -208q14 -15 71 -23t122 -8q82 0 94 9q51 89 51 399q0 143 -13.5 265.5t-37.5 171.5q-49 39 -182 41 q-76 0 -101 -14q-56 -96 -56 -360z" />
<glyph unicode="&#xd5;" horiz-adv-x="1387" d="M67 756q0 794 624 794q109 0 198 -21.5t153.5 -59t113.5 -94.5t80 -122t50 -148t26.5 -166.5t7.5 -182.5q0 -134 -19 -246.5t-64.5 -212.5t-116.5 -168.5t-180 -108.5t-249 -40q-141 0 -249.5 39.5t-178.5 107.5t-114.5 168.5t-63 212.5t-18.5 248zM274 1755 q14 88 105 176t191 88q40 0 99.5 -21.5t89.5 -36.5t86 -46q9 4 23 13.5t26 19.5t40 32t48 38q117 -57 125 -138q-10 -43 -34.5 -88t-61 -84.5t-87 -64.5t-105.5 -25t-132.5 38t-128.5 81q-76 -33 -186 -119q-42 33 -68 65.5t-30 71.5zM496 811q0 -137 15 -273t37 -208 q14 -15 71 -23t122 -8q82 0 94 9q51 89 51 399q0 143 -13.5 265.5t-37.5 171.5q-49 39 -182 41q-76 0 -101 -14q-56 -96 -56 -360z" />
<glyph unicode="&#xd6;" horiz-adv-x="1387" d="M67 756q0 794 624 794q109 0 198 -21.5t153.5 -59t113.5 -94.5t80 -122t50 -148t26.5 -166.5t7.5 -182.5q0 -134 -19 -246.5t-64.5 -212.5t-116.5 -168.5t-180 -108.5t-249 -40q-141 0 -249.5 39.5t-178.5 107.5t-114.5 168.5t-63 212.5t-18.5 248zM216 1802q0 89 60 134 t160 45q221 0 221 -181q0 -81 -73.5 -140.5t-147.5 -59.5q-86 0 -153 60t-67 142zM496 811q0 -137 15 -273t37 -208q14 -15 71 -23t122 -8q82 0 94 9q51 89 51 399q0 143 -13.5 265.5t-37.5 171.5q-49 39 -182 41q-76 0 -101 -14q-56 -96 -56 -360zM726 1802q0 89 60 134 t160 45q221 0 221 -181q0 -81 -73.5 -140.5t-147.5 -59.5q-86 0 -153 60t-67 142z" />
<glyph unicode="&#xd7;" horiz-adv-x="1086" d="M106 285l247 230l-244 224q62 172 188 230l242 -258l213 254q173 -62 228 -185l-256 -230l252 -224q-63 -173 -188 -231l-245 261l-209 -256q-173 62 -228 185z" />
<glyph unicode="&#xd8;" horiz-adv-x="1387" d="M67 756q0 794 624 794q141 0 246 -35l130 298q46 4 107.5 -17t120 -65.5t85.5 -99.5q-60 -111 -202 -283q142 -187 142 -592q0 -134 -19 -246.5t-64.5 -212.5t-116.5 -168.5t-180 -108.5t-249 -40q-87 0 -167 16l-150 -258q-27 -18 -66 -18q-50 0 -95 28t-61 76l107 308 q-192 189 -192 624zM496 811q0 -137 15 -273t37 -208q14 -15 71 -23t122 -8q82 0 94 9q51 89 51 399q0 143 -13.5 265.5t-37.5 171.5q-49 39 -182 41q-76 0 -101 -14q-56 -96 -56 -360z" />
<glyph unicode="&#xd9;" horiz-adv-x="1442" d="M20 1462q84 47 157.5 67.5t166.5 20.5q277 0 277 -277q0 -81 -17.5 -257.5t-41.5 -382t-29 -251.5q19 -21 45 -27q14 -6 80.5 43.5t142 126t106.5 135.5q-28 540 -87 798q45 45 117 68.5t140 23.5q130 0 204 -54q31 -68 31 -223q0 -142 -35.5 -479.5t-69.5 -467.5l123 54 q73 -75 86 -191q-11 -22 -40.5 -54.5t-73 -68.5t-105 -61t-122.5 -25q-89 0 -136.5 53t-47.5 136q0 20 8.5 87t15.5 83l-30 10q-40 -78 -77.5 -136t-90.5 -115t-120 -87.5t-145 -30.5q-67 0 -119 23.5t-83 61t-51 91t-27 107t-7 115.5q0 640 21 850l-130 16 q-25 77 -30.5 108.5t-5.5 109.5zM355 1737q3 79 50.5 157t125.5 126l385 -224q5 -48 -12 -93.5t-52 -73.5q-38 -4 -64 -4q-107 0 -231 30t-202 82z" />
<glyph unicode="&#xda;" horiz-adv-x="1442" d="M20 1462q84 47 157.5 67.5t166.5 20.5q277 0 277 -277q0 -81 -17.5 -257.5t-41.5 -382t-29 -251.5q19 -21 45 -27q14 -6 80.5 43.5t142 126t106.5 135.5q-28 540 -87 798q45 45 117 68.5t140 23.5q130 0 204 -54q31 -68 31 -223q0 -142 -35.5 -479.5t-69.5 -467.5l123 54 q73 -75 86 -191q-11 -22 -40.5 -54.5t-73 -68.5t-105 -61t-122.5 -25q-89 0 -136.5 53t-47.5 136q0 20 8.5 87t15.5 83l-30 10q-40 -78 -77.5 -136t-90.5 -115t-120 -87.5t-145 -30.5q-67 0 -119 23.5t-83 61t-51 91t-27 107t-7 115.5q0 640 21 850l-130 16 q-25 77 -30.5 108.5t-5.5 109.5zM495 1796l402 224q76 -46 116 -123t43 -160q-78 -52 -202 -82t-231 -30q-26 0 -64 4q-48 52 -64 167z" />
<glyph unicode="&#xdb;" horiz-adv-x="1442" d="M20 1462q84 47 157.5 67.5t166.5 20.5q277 0 277 -277q0 -81 -17.5 -257.5t-41.5 -382t-29 -251.5q19 -21 45 -27q14 -6 80.5 43.5t142 126t106.5 135.5q-28 540 -87 798q45 45 117 68.5t140 23.5q130 0 204 -54q31 -68 31 -223q0 -142 -35.5 -479.5t-69.5 -467.5l123 54 q73 -75 86 -191q-11 -22 -40.5 -54.5t-73 -68.5t-105 -61t-122.5 -25q-89 0 -136.5 53t-47.5 136q0 20 8.5 87t15.5 83l-30 10q-40 -78 -77.5 -136t-90.5 -115t-120 -87.5t-145 -30.5q-67 0 -119 23.5t-83 61t-51 91t-27 107t-7 115.5q0 640 21 850l-130 16 q-25 77 -30.5 108.5t-5.5 109.5zM330 1752l203 242q45 21 186 21q108 0 155 -11l202 -248q-15 -37 -68.5 -86t-100.5 -61q-131 63 -235 156q-82 -86 -199 -152q-41 18 -81 58.5t-62 80.5z" />
<glyph unicode="&#xdc;" horiz-adv-x="1442" d="M20 1462q84 47 157.5 67.5t166.5 20.5q277 0 277 -277q0 -81 -17.5 -257.5t-41.5 -382t-29 -251.5q19 -21 45 -27q14 -6 80.5 43.5t142 126t106.5 135.5q-28 540 -87 798q45 45 117 68.5t140 23.5q130 0 204 -54q31 -68 31 -223q0 -142 -35.5 -479.5t-69.5 -467.5l123 54 q73 -75 86 -191q-11 -22 -40.5 -54.5t-73 -68.5t-105 -61t-122.5 -25q-89 0 -136.5 53t-47.5 136q0 20 8.5 87t15.5 83l-30 10q-40 -78 -77.5 -136t-90.5 -115t-120 -87.5t-145 -30.5q-67 0 -119 23.5t-83 61t-51 91t-27 107t-7 115.5q0 640 21 850l-130 16 q-25 77 -30.5 108.5t-5.5 109.5zM221 1802q0 89 60 134t160 45q221 0 221 -181q0 -81 -73.5 -140.5t-147.5 -59.5q-86 0 -153 60t-67 142zM731 1802q0 89 60 134t160 45q221 0 221 -181q0 -81 -73.5 -140.5t-147.5 -59.5q-86 0 -153 60t-67 142z" />
<glyph unicode="&#xdd;" horiz-adv-x="1237" d="M-124 1430q33 41 129.5 80.5t192.5 39.5q186 0 233 -140q35 -81 102.5 -296.5t100.5 -401.5q61 122 121 270t80 234h-2l-122 21q-26 108 -24 195q33 41 129.5 80.5t192.5 39.5q115 0 180.5 -56.5t65.5 -164.5q0 -82 -57.5 -207.5t-142.5 -249t-160.5 -220t-132.5 -158.5 q-21 -129 -38 -202l2 -2l148 62q78 -67 91 -178q-5 -8 -15 -21t-44 -46.5t-71 -59.5t-94.5 -47t-117.5 -21q-222 0 -219 243l2 248q-82 128 -191.5 348t-162.5 394l-152 21q-26 108 -24 195zM411 1796l402 224q76 -46 116 -123t43 -160q-78 -52 -202 -82t-231 -30 q-26 0 -64 4q-48 52 -64 167z" />
<glyph unicode="&#xde;" horiz-adv-x="1332" d="M-18 1430q32 40 134.5 80t198.5 40q117 0 187.5 -54t70.5 -161q123 25 250 25q46 0 82.5 -2.5t86 -11.5t87.5 -24t78 -44.5t66 -69t42.5 -99t16.5 -134.5q0 -126 -67 -305.5t-148 -277.5q-81 -97 -180 -114q-164 -26 -347 -26h-5q0 -32 1 -87t1 -77q0 -25 -2 -65 q-79 -44 -180 -44q-86 0 -162 31q-32 419 -32 831q0 214 8 373l-163 21q-26 108 -24 195zM537 516l278 17q36 153 43 449q-5 9 -51 16t-119 7q-51 0 -127 -4q-9 -302 -24 -485z" />
<glyph unicode="&#xdf;" horiz-adv-x="1378" d="M-128 -280q0 18 2 34t8 36.5t9.5 31.5t14.5 39t15 40q37 -15 107 -27t95 -19q12 32 12 117q-16 401 -16 1169q0 82 16.5 152t54 131.5t94.5 105t142 68.5t193 25q62 0 111.5 -2.5t108.5 -11.5t103.5 -24t88.5 -42t72 -63.5t45.5 -91t17.5 -122.5q0 -212 -214 -423 q-2 -8 -2 -12q0 -11 11 -24.5t34.5 -30t42.5 -28.5t55.5 -33.5t51.5 -30.5q53 -32 85 -57.5t61.5 -61.5t43 -81.5t13.5 -104.5q0 -175 -123 -288.5t-304 -113.5q-268 0 -352 145v37t0.5 42.5t4 38.5t9.5 45t17 39.5t27 43.5q88 -36 122.5 -48.5t97.5 -25t135 -12.5 q14 19 14 50q0 44 -16 53q-155 77 -209 115q-115 82 -145 204q-13 52 -13 117q0 99 41 173.5t114 150.5q0 76 -16 113q-72 27 -198 27q-24 0 -56 -2q0 -131 2 -321t2 -262q0 -408 -43 -787q-18 -167 -72 -239q-79 -106 -262 -106q-40 0 -66.5 2.5t-64.5 13t-68.5 37 t-51.5 67.5q-2 22 -2 32z" />
<glyph unicode="&#xe0;" horiz-adv-x="1160" d="M65 320q0 166 83 252.5t241 86.5q119 0 262 -41v31q0 92 -6 119q-5 9 -17.5 19t-58.5 22t-114 12q-91 0 -260 -53q-90 149 -90 253q0 19 3 38q162 126 419 126q81 0 146.5 -8.5t135 -35t116 -71t76.5 -121.5t30 -181q0 -53 -8 -121.5t-19.5 -128.5t-23.5 -112.5 t-20 -83.5l-7 -31l145 62q69 -73 80 -178q-10 -21 -37.5 -51.5t-68 -63.5t-98 -56.5t-114.5 -23.5q-83 0 -125.5 49t-42.5 127q0 44 13 89l-30 9q-15 -84 -51 -141.5t-84.5 -84.5t-92 -37.5t-92.5 -10.5q-114 0 -202 92.5t-88 247.5zM215 1527q42 167 251 266l330 -378 q-11 -44 -48.5 -85.5t-76.5 -61.5q-267 84 -456 259zM435 365q0 -32 16.5 -58t51.5 -29q40 7 92.5 54t60.5 90l-6 24q-53 7 -113 7q-51 0 -70 -8q-32 -36 -32 -80z" />
<glyph unicode="&#xe1;" horiz-adv-x="1160" d="M65 320q0 166 83 252.5t241 86.5q119 0 262 -41v31q0 92 -6 119q-5 9 -17.5 19t-58.5 22t-114 12q-91 0 -260 -53q-90 149 -90 253q0 19 3 38q162 126 419 126q81 0 146.5 -8.5t135 -35t116 -71t76.5 -121.5t30 -181q0 -53 -8 -121.5t-19.5 -128.5t-23.5 -112.5 t-20 -83.5l-7 -31l145 62q69 -73 80 -178q-10 -21 -37.5 -51.5t-68 -63.5t-98 -56.5t-114.5 -23.5q-83 0 -125.5 49t-42.5 127q0 44 13 89l-30 9q-15 -84 -51 -141.5t-84.5 -84.5t-92 -37.5t-92.5 -10.5q-114 0 -202 92.5t-88 247.5zM352 1421l333 372q209 -99 251 -266 q-92 -86 -219 -156t-251 -107q-36 23 -69 68.5t-45 88.5zM435 365q0 -32 16.5 -58t51.5 -29q40 7 92.5 54t60.5 90l-6 24q-53 7 -113 7q-51 0 -70 -8q-32 -36 -32 -80z" />
<glyph unicode="&#xe2;" horiz-adv-x="1160" d="M65 320q0 166 83 252.5t241 86.5q119 0 262 -41v31q0 92 -6 119q-5 9 -17.5 19t-58.5 22t-114 12q-91 0 -260 -53q-90 149 -90 253q0 19 3 38q162 126 419 126q81 0 146.5 -8.5t135 -35t116 -71t76.5 -121.5t30 -181q0 -53 -8 -121.5t-19.5 -128.5t-23.5 -112.5 t-20 -83.5l-7 -31l145 62q69 -73 80 -178q-10 -21 -37.5 -51.5t-68 -63.5t-98 -56.5t-114.5 -23.5q-83 0 -125.5 49t-42.5 127q0 44 13 89l-30 9q-15 -84 -51 -141.5t-84.5 -84.5t-92 -37.5t-92.5 -10.5q-114 0 -202 92.5t-88 247.5zM144 1399l238 330q61 17 178 17 q99 0 153 -10l256 -339q-70 -93 -160 -133q-127 72 -265 205q-120 -133 -261 -205q-85 42 -139 135zM435 365q0 -32 16.5 -58t51.5 -29q40 7 92.5 54t60.5 90l-6 24q-53 7 -113 7q-51 0 -70 -8q-32 -36 -32 -80z" />
<glyph unicode="&#xe3;" horiz-adv-x="1160" d="M65 320q0 166 83 252.5t241 86.5q119 0 262 -41v31q0 92 -6 119q-5 9 -17.5 19t-58.5 22t-114 12q-91 0 -260 -53q-90 149 -90 253q0 19 3 38q162 126 419 126q81 0 146.5 -8.5t135 -35t116 -71t76.5 -121.5t30 -181q0 -53 -8 -121.5t-19.5 -128.5t-23.5 -112.5 t-20 -83.5l-7 -31l145 62q69 -73 80 -178q-10 -21 -37.5 -51.5t-68 -63.5t-98 -56.5t-114.5 -23.5q-83 0 -125.5 49t-42.5 127q0 44 13 89l-30 9q-15 -84 -51 -141.5t-84.5 -84.5t-92 -37.5t-92.5 -10.5q-114 0 -202 92.5t-88 247.5zM144 1393q14 88 105 176t191 88 q40 0 99.5 -21.5t89.5 -36.5t86 -46q9 4 23 13.5t26 19.5t40 32t48 38q117 -57 125 -138q-10 -43 -34.5 -88t-61 -84.5t-87 -64.5t-105.5 -25t-132.5 38t-128.5 81q-76 -33 -186 -119q-42 33 -68 65.5t-30 71.5zM435 365q0 -32 16.5 -58t51.5 -29q40 7 92.5 54t60.5 90 l-6 24q-53 7 -113 7q-51 0 -70 -8q-32 -36 -32 -80z" />
<glyph unicode="&#xe4;" horiz-adv-x="1160" d="M65 320q0 166 83 252.5t241 86.5q119 0 262 -41v31q0 92 -6 119q-5 9 -17.5 19t-58.5 22t-114 12q-91 0 -260 -53q-90 149 -90 253q0 19 3 38q162 126 419 126q81 0 146.5 -8.5t135 -35t116 -71t76.5 -121.5t30 -181q0 -53 -8 -121.5t-19.5 -128.5t-23.5 -112.5 t-20 -83.5l-7 -31l145 62q69 -73 80 -178q-10 -21 -37.5 -51.5t-68 -63.5t-98 -56.5t-114.5 -23.5q-83 0 -125.5 49t-42.5 127q0 44 13 89l-30 9q-15 -84 -51 -141.5t-84.5 -84.5t-92 -37.5t-92.5 -10.5q-114 0 -202 92.5t-88 247.5zM84 1454q0 89 60 134t160 45 q221 0 221 -181q0 -81 -73.5 -140.5t-147.5 -59.5q-86 0 -153 60t-67 142zM435 365q0 -32 16.5 -58t51.5 -29q40 7 92.5 54t60.5 90l-6 24q-53 7 -113 7q-51 0 -70 -8q-32 -36 -32 -80zM594 1454q0 89 60 134t160 45q221 0 221 -181q0 -81 -73.5 -140.5t-147.5 -59.5 q-86 0 -153 60t-67 142z" />
<glyph unicode="&#xe5;" horiz-adv-x="1160" d="M65 320q0 166 83 252.5t241 86.5q119 0 262 -41v31q0 92 -6 119q-5 9 -17.5 19t-58.5 22t-114 12q-91 0 -260 -53q-90 149 -90 253q0 19 3 38q162 126 419 126q81 0 146.5 -8.5t135 -35t116 -71t76.5 -121.5t30 -181q0 -53 -8 -121.5t-19.5 -128.5t-23.5 -112.5 t-20 -83.5l-7 -31l145 62q69 -73 80 -178q-10 -21 -37.5 -51.5t-68 -63.5t-98 -56.5t-114.5 -23.5q-83 0 -125.5 49t-42.5 127q0 44 13 89l-30 9q-15 -84 -51 -141.5t-84.5 -84.5t-92 -37.5t-92.5 -10.5q-114 0 -202 92.5t-88 247.5zM275 1539q0 120 82 179.5t221 59.5 q130 0 209.5 -56.5t79.5 -177.5q0 -128 -80.5 -206.5t-214.5 -78.5q-133 0 -215 75.5t-82 204.5zM435 365q0 -32 16.5 -58t51.5 -29q40 7 92.5 54t60.5 90l-6 24q-53 7 -113 7q-51 0 -70 -8q-32 -36 -32 -80zM481 1527q0 -33 23 -51t60 -18q55 0 81 10q12 48 -2 73t-73 25 q-56 0 -82 -7q-7 -9 -7 -32z" />
<glyph unicode="&#xe6;" horiz-adv-x="1711" d="M65 320q0 166 83 252.5t241 86.5q119 0 262 -41v31q0 92 -6 119q-5 9 -17.5 19t-58.5 22t-114 12q-91 0 -260 -53q-89 147 -89 256q0 24 2 35l29 22q134 90 335 102q27 2 55 2q192 0 327 -124q133 125 326 125q79 0 182 -20.5t157 -67.5q129 -93 129 -314q0 -61 -12 -136 q-96 -117 -227 -167q-73 -5 -122 -5q-114 0 -260 28q15 -199 178 -199q111 0 336 96q40 -40 63 -84t30 -113q-21 -24 -61 -56.5t-102.5 -72.5t-147 -67t-168.5 -27q-283 0 -412 232q-25 -65 -66 -112.5t-89 -73.5t-95.5 -37.5t-97.5 -11.5q-59 0 -115 20t-105.5 59 t-79.5 107.5t-30 155.5zM435 365q0 -32 16.5 -58t51.5 -29q40 7 92.5 54t60.5 90l-6 24q-66 7 -113 7q-51 0 -70 -8q-32 -36 -32 -80zM1030 676l267 26l-14 110q-30 32 -116 32q-29 0 -58.5 -5t-35.5 -11q-34 -67 -43 -152z" />
<glyph unicode="&#xe7;" horiz-adv-x="1084" d="M61 581q0 128 32 235.5t96 191t169.5 130.5t243.5 47q151 0 297 -30q6 -4 24.5 -17t22.5 -16t17.5 -13t18.5 -15t15 -14.5t17.5 -18.5t16.5 -21q0 -88 -31.5 -241t-61.5 -187q-33 -17 -107 -17q-81 0 -115 20l-21 185q-15 17 -68.5 27.5t-98.5 10.5q-14 0 -26 -2 q-47 -99 -47 -269q0 -38 2.5 -68t13.5 -68.5t29.5 -64.5t54 -44t83.5 -18q29 0 57.5 5t62.5 17t54.5 20.5t62.5 27.5t58 26q40 -40 63 -84t30 -113q-20 -24 -48 -50t-76 -62.5t-113.5 -65t-134.5 -39.5v-21q0 -21 3 -29q38 14 94 18q10 0 27.5 -5.5t40.5 -18.5t39.5 -41 t16.5 -66q0 -117 -78 -186t-183 -69q-205 0 -234 134q16 52 70 87q130 -78 178 -78q15 0 42 9q12 11 15 30t-8 33q-19 4 -62.5 8t-72.5 11.5t-48 24.5q-7 25 -7 60q0 50 17 98q-142 17 -243.5 101.5t-150.5 211t-49 283.5z" />
<glyph unicode="&#xe8;" horiz-adv-x="1139" d="M67 581q0 128 32 235.5t96 191t169.5 130.5t243.5 47q227 0 351 -97q116 -93 116 -308q0 -65 -11 -133q-19 -32 -87 -85.5t-133 -78.5q-42 -3 -87 -3q-148 0 -302 23q3 -30 9.5 -57t20.5 -56t34.5 -50t53.5 -34.5t74 -13.5q9 0 29 2q112 11 305 94q38 -38 56 -76t25 -109 q-21 -24 -61 -56.5t-102.5 -72.5t-147 -67t-168.5 -27q-164 0 -283 82t-176 216t-57 303zM230 1527q42 167 251 266l330 -378q-11 -44 -48.5 -85.5t-76.5 -61.5q-267 84 -456 259zM458 675l267 26l-14 110q-15 16 -50 24.5t-72 7.5q-74 -2 -88 -16q-34 -67 -43 -152z" />
<glyph unicode="&#xe9;" horiz-adv-x="1139" d="M67 581q0 128 32 235.5t96 191t169.5 130.5t243.5 47q227 0 351 -97q116 -93 116 -308q0 -65 -11 -133q-19 -32 -87 -85.5t-133 -78.5q-42 -3 -87 -3q-148 0 -302 23q3 -30 9.5 -57t20.5 -56t34.5 -50t53.5 -34.5t74 -13.5q9 0 29 2q112 11 305 94q38 -38 56 -76t25 -109 q-21 -24 -61 -56.5t-102.5 -72.5t-147 -67t-168.5 -27q-164 0 -283 82t-176 216t-57 303zM388 1421l333 372q209 -99 251 -266q-92 -86 -219 -156t-251 -107q-36 23 -69 68.5t-45 88.5zM458 675l267 26l-14 110q-15 16 -50 24.5t-72 7.5q-74 -2 -88 -16q-34 -67 -43 -152z " />
<glyph unicode="&#xea;" horiz-adv-x="1139" d="M67 581q0 128 32 235.5t96 191t169.5 130.5t243.5 47q227 0 351 -97q116 -93 116 -308q0 -65 -11 -133q-19 -32 -87 -85.5t-133 -78.5q-42 -3 -87 -3q-148 0 -302 23q3 -30 9.5 -57t20.5 -56t34.5 -50t53.5 -34.5t74 -13.5q9 0 29 2q112 11 305 94q38 -38 56 -76t25 -109 q-21 -24 -61 -56.5t-102.5 -72.5t-147 -67t-168.5 -27q-164 0 -283 82t-176 216t-57 303zM191 1399l238 330q61 17 178 17q99 0 153 -10l256 -339q-70 -93 -160 -133q-127 72 -265 205q-120 -133 -261 -205q-85 42 -139 135zM458 675l267 26l-14 110q-15 16 -50 24.5 t-72 7.5q-74 -2 -88 -16q-34 -67 -43 -152z" />
<glyph unicode="&#xeb;" horiz-adv-x="1139" d="M67 581q0 128 32 235.5t96 191t169.5 130.5t243.5 47q227 0 351 -97q116 -93 116 -308q0 -65 -11 -133q-19 -32 -87 -85.5t-133 -78.5q-42 -3 -87 -3q-148 0 -302 23q3 -30 9.5 -57t20.5 -56t34.5 -50t53.5 -34.5t74 -13.5q9 0 29 2q112 11 305 94q38 -38 56 -76t25 -109 q-21 -24 -61 -56.5t-102.5 -72.5t-147 -67t-168.5 -27q-164 0 -283 82t-176 216t-57 303zM119 1454q0 89 60 134t160 45q221 0 221 -181q0 -81 -73.5 -140.5t-147.5 -59.5q-86 0 -153 60t-67 142zM458 675l267 26l-14 110q-15 16 -50 24.5t-72 7.5q-74 -2 -88 -16 q-34 -67 -43 -152zM629 1454q0 89 60 134t160 45q221 0 221 -181q0 -81 -73.5 -140.5t-147.5 -59.5q-86 0 -153 60t-67 142z" />
<glyph unicode="&#xec;" horiz-adv-x="716" d="M41 1037q0 4 0.5 13.5t0.5 14.5q34 43 116.5 81.5t176.5 38.5q140 0 199 -63t59 -196q0 -119 -47 -333.5t-84 -299.5l2 -2l148 54q75 -64 87 -170q-5 -8 -14 -21t-40 -46.5t-66.5 -59.5t-91.5 -47t-116 -21q-215 0 -215 230q0 331 33 632l-125 21q-23 91 -23 174z M66 1526q20 78 87 157t164 110l273 -372q-12 -42 -53 -87.5t-81 -64.5q-95 34 -202.5 104.5t-187.5 152.5z" />
<glyph unicode="&#xed;" horiz-adv-x="716" d="M41 1037q0 4 0.5 13.5t0.5 14.5q34 43 116.5 81.5t176.5 38.5q140 0 199 -63t59 -196q0 -119 -47 -333.5t-84 -299.5l2 -2l148 54q75 -64 87 -170q-5 -8 -14 -21t-40 -46.5t-66.5 -59.5t-91.5 -47t-116 -21q-215 0 -215 230q0 331 33 632l-125 21q-23 91 -23 174z M146 1421l273 372q98 -31 169 -110.5t90 -156.5q-76 -78 -199.5 -153t-218.5 -109q-36 23 -69 68.5t-45 88.5z" />
<glyph unicode="&#xee;" horiz-adv-x="716" d="M-55 1399l238 330q61 17 178 17q99 0 153 -10l256 -339q-70 -93 -160 -133q-127 72 -265 205q-120 -133 -261 -205q-85 42 -139 135zM41 1037q0 4 0.5 13.5t0.5 14.5q34 43 116.5 81.5t176.5 38.5q140 0 199 -63t59 -196q0 -119 -47 -333.5t-84 -299.5l2 -2l148 54 q75 -64 87 -170q-5 -8 -14 -21t-40 -46.5t-66.5 -59.5t-91.5 -47t-116 -21q-215 0 -215 230q0 331 33 632l-125 21q-23 91 -23 174z" />
<glyph unicode="&#xef;" horiz-adv-x="716" d="M-54 1454q0 179 200 179q139 0 172.5 -95t-30 -189.5t-161.5 -94.5q-82 0 -131.5 57t-49.5 143zM41 1037q0 4 0.5 13.5t0.5 14.5q34 43 116.5 81.5t176.5 38.5q140 0 199 -63t59 -196q0 -119 -47 -333.5t-84 -299.5l2 -2l148 54q75 -64 87 -170q-5 -8 -14 -21t-40 -46.5 t-66.5 -59.5t-91.5 -47t-116 -21q-215 0 -215 230q0 331 33 632l-125 21q-23 91 -23 174zM389 1454q0 179 200 179q98 0 141 -48t40 -123q-3 -80 -63 -144t-137 -64q-78 0 -129.5 60.5t-51.5 139.5z" />
<glyph unicode="&#xf0;" horiz-adv-x="1175" d="M34 1415q0 43 44 118.5t83 92.5q126 -39 231 -89l128 156q27 -3 58.5 -12t67 -25.5t66 -44.5t44.5 -64l-138 -143q85 -60 149.5 -113.5t132 -128t110.5 -152.5t70.5 -180.5t27.5 -216.5q0 -129 -33.5 -242t-97 -201t-165.5 -139t-229 -51q-255 0 -392 131t-137 390 q0 102 14.5 180t42.5 131t63 87.5t82 58.5q108 55 207 55q76 0 138 -27q-129 142 -192 200l-123 -127q-153 26 -187 122l109 132zM454 510q0 -110 29 -211q23 -26 126 -26q51 0 62 8q46 80 46 241q0 152 -39 236q-16 2 -26 2q-38 0 -85 -12.5t-73 -27.5q-40 -79 -40 -210z " />
<glyph unicode="&#xf1;" horiz-adv-x="1333" d="M38 1103q28 25 99.5 53.5t148.5 28.5q121 0 171.5 -52t50.5 -156q0 -30 -11 -111t-23 -147l-11 -66q0 -5 7 -9.5t15 -4.5q9 0 12 7q51 201 92 293q111 246 319 246q83 0 143.5 -28.5t93.5 -79t48 -108.5t15 -127q0 -55 -7.5 -115.5t-16.5 -106t-25.5 -104.5t-26 -87.5 t-27 -79t-19.5 -56.5l2 -2l146 60q78 -67 91 -178q-5 -8 -14 -21t-40.5 -46t-67 -58.5t-92 -46.5t-116.5 -21q-215 0 -215 225q0 236 24 526q-26 28 -64 30q-35 -45 -103 -180t-96 -202q-2 -14 -2 -27q0 -50 15 -134.5t37 -157.5q-18 -34 -74 -57t-138 -23q-47 0 -84.5 5.5 t-58 13.5t-34 16t-18.5 13l-4 6q-17 114 -17 314q0 163 4 246.5t21 245.5l-116 15q-21 65 -27.5 116t-6.5 132zM287 1393q14 88 105 176t191 88q40 0 99.5 -21.5t89.5 -36.5t86 -46q9 4 23 13.5t26 19.5t40 32t48 38q117 -57 125 -138q-10 -43 -34.5 -88t-61 -84.5 t-87 -64.5t-105.5 -25t-132.5 38t-128.5 81q-76 -33 -186 -119q-42 33 -68 65.5t-30 71.5z" />
<glyph unicode="&#xf2;" horiz-adv-x="1190" d="M67 581q-1 137 30.5 247t96 190t168.5 123.5t242 43.5q122 0 213 -29.5t149 -80.5t93.5 -129t49.5 -165.5t14 -199.5q0 -102 -21 -192t-64.5 -165t-107 -129.5t-152 -84.5t-195.5 -30q-112 0 -200.5 31t-146.5 85t-96.5 131t-55 164t-17.5 190zM197 1527q42 167 251 266 l330 -378q-11 -44 -48.5 -85.5t-76.5 -61.5q-267 84 -456 259zM459 582q0 -144 39 -283q12 -13 49 -19.5t77 -6.5q51 0 62 8q23 40 35 113t12 158q0 173 -38 254q-17 19 -87 25.5t-99 -10.5q-50 -86 -50 -239z" />
<glyph unicode="&#xf3;" horiz-adv-x="1190" d="M67 581q-1 137 30.5 247t96 190t168.5 123.5t242 43.5q122 0 213 -29.5t149 -80.5t93.5 -129t49.5 -165.5t14 -199.5q0 -102 -21 -192t-64.5 -165t-107 -129.5t-152 -84.5t-195.5 -30q-112 0 -200.5 31t-146.5 85t-96.5 131t-55 164t-17.5 190zM404 1421l333 372 q209 -99 251 -266q-92 -86 -219 -156t-251 -107q-36 23 -69 68.5t-45 88.5zM459 582q0 -144 39 -283q12 -13 49 -19.5t77 -6.5q51 0 62 8q23 40 35 113t12 158q0 173 -38 254q-17 19 -87 25.5t-99 -10.5q-50 -86 -50 -239z" />
<glyph unicode="&#xf4;" horiz-adv-x="1190" d="M67 581q-1 137 30.5 247t96 190t168.5 123.5t242 43.5q122 0 213 -29.5t149 -80.5t93.5 -129t49.5 -165.5t14 -199.5q0 -102 -21 -192t-64.5 -165t-107 -129.5t-152 -84.5t-195.5 -30q-112 0 -200.5 31t-146.5 85t-96.5 131t-55 164t-17.5 190zM196 1399l238 330 q61 17 178 17q99 0 153 -10l256 -339q-70 -93 -160 -133q-127 72 -265 205q-120 -133 -261 -205q-85 42 -139 135zM459 582q0 -144 39 -283q12 -13 49 -19.5t77 -6.5q51 0 62 8q23 40 35 113t12 158q0 173 -38 254q-17 19 -87 25.5t-99 -10.5q-50 -86 -50 -239z" />
<glyph unicode="&#xf5;" horiz-adv-x="1190" d="M67 581q-1 137 30.5 247t96 190t168.5 123.5t242 43.5q122 0 213 -29.5t149 -80.5t93.5 -129t49.5 -165.5t14 -199.5q0 -102 -21 -192t-64.5 -165t-107 -129.5t-152 -84.5t-195.5 -30q-112 0 -200.5 31t-146.5 85t-96.5 131t-55 164t-17.5 190zM185 1393q14 88 105 176 t191 88q40 0 99.5 -21.5t89.5 -36.5t86 -46q9 4 23 13.5t26 19.5t40 32t48 38q117 -57 125 -138q-10 -43 -34.5 -88t-61 -84.5t-87 -64.5t-105.5 -25t-132.5 38t-128.5 81q-76 -33 -186 -119q-42 33 -68 65.5t-30 71.5zM459 582q0 -144 39 -283q12 -13 49 -19.5t77 -6.5 q51 0 62 8q23 40 35 113t12 158q0 173 -38 254q-17 19 -87 25.5t-99 -10.5q-50 -86 -50 -239z" />
<glyph unicode="&#xf6;" horiz-adv-x="1190" d="M67 581q-1 137 30.5 247t96 190t168.5 123.5t242 43.5q122 0 213 -29.5t149 -80.5t93.5 -129t49.5 -165.5t14 -199.5q0 -102 -21 -192t-64.5 -165t-107 -129.5t-152 -84.5t-195.5 -30q-112 0 -200.5 31t-146.5 85t-96.5 131t-55 164t-17.5 190zM116 1454q0 89 60 134 t160 45q221 0 221 -181q0 -81 -73.5 -140.5t-147.5 -59.5q-86 0 -153 60t-67 142zM459 582q0 -144 39 -283q12 -13 49 -19.5t77 -6.5q51 0 62 8q23 40 35 113t12 158q0 173 -38 254q-17 19 -87 25.5t-99 -10.5q-50 -86 -50 -239zM626 1454q0 89 60 134t160 45 q221 0 221 -181q0 -42 -22 -80t-55 -63.5t-71.5 -41t-72.5 -15.5q-86 0 -153 60t-67 142z" />
<glyph unicode="&#xf7;" horiz-adv-x="1102" d="M116 489q0 53 13.5 91.5t45.5 92.5l808 45q7 -28 7 -59q0 -87 -75 -234q-123 -4 -291 -4q-280 0 -505 13q-3 30 -3 55zM320 160q0 79 55.5 131.5t175.5 52.5t175.5 -52.5t55.5 -131.5q0 -80 -71 -140t-160 -60t-160 60t-71 140zM320 981q0 79 55.5 131.5t175.5 52.5 t175.5 -52.5t55.5 -131.5q0 -80 -71 -140t-160 -60t-160 60t-71 140z" />
<glyph unicode="&#xf8;" horiz-adv-x="1190" d="M67 581q-1 137 30.5 247t96 190t168.5 123.5t242 43.5q71 0 137 -11l116 267q46 4 107.5 -17t120 -65.5t85.5 -99.5q-45 -83 -162 -229q115 -143 115 -449q0 -102 -21 -192t-64.5 -165t-107 -129.5t-152 -84.5t-195.5 -30q-89 0 -168 21l-114 -158q-25 -14 -57 -14 q-52 0 -98.5 31.5t-60.5 83.5l97 212q-113 153 -115 425zM459 582q0 -144 39 -283q12 -13 49 -19.5t77 -6.5q51 0 62 8q23 40 35 113t12 158q0 173 -38 254q-17 19 -87 25.5t-99 -10.5q-50 -86 -50 -239z" />
<glyph unicode="&#xf9;" horiz-adv-x="1280" d="M31 1072q119 113 280 113q258 0 258 -259q0 -98 -38.5 -334t-43.5 -284q17 -18 42 -25q19 1 100.5 105.5t130.5 195.5q8 143 22 263l-105 21q-23 91 -23 169q0 4 0.5 13.5t0.5 14.5q36 46 108 83t165 37q258 0 258 -259q0 -183 -117 -623l115 50q69 -73 80 -178 q-10 -21 -37.5 -51.5t-68 -63.5t-98 -56.5t-114.5 -23.5q-83 0 -127.5 49.5t-44.5 126.5q0 20 10.5 82t17.5 86l-28 9q-50 -175 -137.5 -264t-199.5 -89q-84 0 -144 32t-91 88t-44.5 117t-13.5 134q0 297 20 496l-106 15q-13 54 -17 73.5t-7 53.5t-3 83zM233 1527 q42 167 251 266l330 -378q-11 -44 -48.5 -85.5t-76.5 -61.5q-267 84 -456 259z" />
<glyph unicode="&#xfa;" horiz-adv-x="1280" d="M31 1072q119 113 280 113q258 0 258 -259q0 -98 -38.5 -334t-43.5 -284q17 -18 42 -25q19 1 100.5 105.5t130.5 195.5q8 143 22 263l-105 21q-23 91 -23 169q0 4 0.5 13.5t0.5 14.5q36 46 108 83t165 37q258 0 258 -259q0 -183 -117 -623l115 50q69 -73 80 -178 q-10 -21 -37.5 -51.5t-68 -63.5t-98 -56.5t-114.5 -23.5q-83 0 -127.5 49.5t-44.5 126.5q0 20 10.5 82t17.5 86l-28 9q-50 -175 -137.5 -264t-199.5 -89q-84 0 -144 32t-91 88t-44.5 117t-13.5 134q0 297 20 496l-106 15q-13 54 -17 73.5t-7 53.5t-3 83zM430 1421l333 372 q209 -99 251 -266q-92 -86 -219 -156t-251 -107q-36 23 -69 68.5t-45 88.5z" />
<glyph unicode="&#xfb;" horiz-adv-x="1280" d="M31 1072q119 113 280 113q258 0 258 -259q0 -98 -38.5 -334t-43.5 -284q17 -18 42 -25q19 1 100.5 105.5t130.5 195.5q8 143 22 263l-105 21q-23 91 -23 169q0 4 0.5 13.5t0.5 14.5q36 46 108 83t165 37q258 0 258 -259q0 -183 -117 -623l115 50q69 -73 80 -178 q-10 -21 -37.5 -51.5t-68 -63.5t-98 -56.5t-114.5 -23.5q-83 0 -127.5 49.5t-44.5 126.5q0 20 10.5 82t17.5 86l-28 9q-50 -175 -137.5 -264t-199.5 -89q-84 0 -144 32t-91 88t-44.5 117t-13.5 134q0 297 20 496l-106 15q-13 54 -17 73.5t-7 53.5t-3 83zM232 1399l238 330 q61 17 178 17q99 0 153 -10l256 -339q-70 -93 -160 -133q-127 72 -265 205q-120 -133 -261 -205q-85 42 -139 135z" />
<glyph unicode="&#xfc;" horiz-adv-x="1280" d="M31 1072q119 113 280 113q258 0 258 -259q0 -98 -38.5 -334t-43.5 -284q17 -18 42 -25q19 1 100.5 105.5t130.5 195.5q8 143 22 263l-105 21q-23 91 -23 169q0 4 0.5 13.5t0.5 14.5q36 46 108 83t165 37q258 0 258 -259q0 -183 -117 -623l115 50q69 -73 80 -178 q-10 -21 -37.5 -51.5t-68 -63.5t-98 -56.5t-114.5 -23.5q-83 0 -127.5 49.5t-44.5 126.5q0 20 10.5 82t17.5 86l-28 9q-50 -175 -137.5 -264t-199.5 -89q-84 0 -144 32t-91 88t-44.5 117t-13.5 134q0 297 20 496l-106 15q-13 54 -17 73.5t-7 53.5t-3 83zM152 1454 q0 89 60 134t160 45q221 0 221 -181q0 -81 -73.5 -140.5t-147.5 -59.5q-86 0 -153 60t-67 142zM662 1454q0 89 60 134t160 45q221 0 221 -181q0 -81 -73.5 -140.5t-147.5 -59.5q-86 0 -153 60t-67 142z" />
<glyph unicode="&#xfd;" horiz-adv-x="1205" d="M26 1002q26 74 92.5 128.5t151.5 54.5q59 0 107 -23t79.5 -57.5t58 -88t41 -100t29.5 -108.5q53 -211 68 -523l22 4q39 87 66.5 249t29.5 311l-125 19q-22 84 -22 197q35 44 112.5 82t170.5 38q258 0 258 -259q0 -204 -70.5 -391.5t-220.5 -347t-361 -248.5l8 -33 q27 -3 53 -3q85 0 205 28q68 -76 68 -166q0 -27 -6 -55q-60 -58 -150 -100t-198 -42q-101 0 -178 28.5t-125 94.5t-48 164q0 39 16 73.5t39 59t62 50t69.5 41.5t76.5 38q11 5 17 8q-30 118 -125 354t-145 310l-92 16q-23 65 -34 197zM421 1421l333 372q209 -99 251 -266 q-92 -86 -219 -156t-251 -107q-36 23 -69 68.5t-45 88.5z" />
<glyph unicode="&#xfe;" horiz-adv-x="1231" d="M-8 1506q25 34 103.5 75.5t156.5 41.5q123 0 183 -63t60 -193q0 -77 -13.5 -237.5t-38.5 -309.5l-28 -167l34 -7q0 1 12.5 50t19.5 75q24 88 57.5 160t81 130.5t111.5 91t140 32.5q67 0 120.5 -19t89 -51.5t58.5 -77t33 -93t10 -102.5q0 -126 -24 -282.5t-64 -292.5 q-39 -133 -129.5 -210.5t-225.5 -77.5q-100 0 -280 69l-40 -189l2 -2l191 13q10 -14 17.5 -32.5t12.5 -40.5t8 -38t6 -37t4 -26q-5 -5 -14 -13.5t-40.5 -31t-67 -39t-91.5 -30.5t-116 -14q-215 0 -215 229q0 67 -2 264t-2 287q0 21 -0.5 125t-0.5 177q0 464 18 638l-113 20 q-24 92 -24 198zM483 331q64 -44 147.5 -69t104.5 -16q36 135 36 409q0 47 -5 76q-23 29 -66 29q-14 -12 -96 -157.5t-121 -223.5v-48z" />
<glyph unicode="&#xff;" horiz-adv-x="1205" d="M26 1002q26 74 92.5 128.5t151.5 54.5q59 0 107 -23t79.5 -57.5t58 -88t41 -100t29.5 -108.5q53 -211 68 -523l22 4q39 87 66.5 249t29.5 311l-125 19q-22 84 -22 197q35 44 112.5 82t170.5 38q258 0 258 -259q0 -204 -70.5 -391.5t-220.5 -347t-361 -248.5l8 -33 q27 -3 53 -3q85 0 205 28q68 -76 68 -166q0 -27 -6 -55q-60 -58 -150 -100t-198 -42q-101 0 -178 28.5t-125 94.5t-48 164q0 39 16 73.5t39 59t62 50t69.5 41.5t76.5 38q11 5 17 8q-30 118 -125 354t-145 310l-92 16q-23 65 -34 197zM143 1454q0 89 60 134t160 45 q221 0 221 -181q0 -81 -73.5 -140.5t-147.5 -59.5q-86 0 -153 60t-67 142zM653 1454q0 89 60 134t160 45q221 0 221 -181q0 -81 -73.5 -140.5t-147.5 -59.5q-86 0 -153 60t-67 142z" />
<glyph unicode="&#x152;" horiz-adv-x="1996" d="M77 756q0 794 624 794q196 0 332 -71q269 71 487 71q206 0 290 -17l1 1q109 -66 172 -150q0 -106 -30.5 -219t-72.5 -160q-44 -22 -118 -22q-66 0 -110 26l-28 197q-68 11 -176 11q-33 0 -186 -4q56 -141 66 -367q251 42 409 59q40 -61 40 -149q0 -58 -16 -112t-35 -75 q-42 -7 -100 -7q-162 0 -303 49q-12 -143 -53 -256l650 38q15 -14 25.5 -56t10.5 -92q0 -105 -43 -165q-72 -100 -186 -100q-94 0 -299.5 51.5t-291.5 103.5q-155 -155 -435 -155q-141 0 -249.5 39.5t-178.5 107.5t-114.5 168.5t-63 212.5t-18.5 248zM506 811 q0 -137 15 -273t37 -208q14 -15 71 -23t122 -8q82 0 94 9q51 89 51 399q0 143 -13.5 265.5t-37.5 171.5q-49 39 -182 41q-76 0 -101 -14q-56 -96 -56 -360z" />
<glyph unicode="&#x153;" horiz-adv-x="1785" d="M67 581q-1 137 30.5 247t96 190t168.5 123.5t242 43.5q219 0 337 -135q52 60 154 97t199 37q189 0 299 -87q128 -101 128 -320q0 -64 -11 -130q-96 -117 -227 -167q-73 -5 -121 -5q-115 0 -261 28q15 -199 178 -199q9 0 31 2q112 11 305 94q40 -40 63 -84t30 -113 q-21 -24 -61 -56.5t-102.5 -72.5t-147 -67t-168.5 -27q-97 0 -183 46.5t-126 114.5q-57 -76 -144 -118.5t-193 -42.5q-112 0 -200.5 31t-146.5 85t-96.5 131t-55 164t-17.5 190zM459 582q0 -144 39 -283q12 -13 49 -19.5t77 -6.5q51 0 62 8q23 40 35 113t12 158 q0 173 -38 254q-17 19 -87 25.5t-99 -10.5q-50 -86 -50 -239zM1104 675l267 26l-14 110q-15 16 -50 24.5t-72 7.5q-19 0 -37.5 -2.5t-32.5 -6t-18 -7.5q-34 -67 -43 -152z" />
<glyph unicode="&#x178;" horiz-adv-x="1237" d="M-124 1430q33 41 129.5 80.5t192.5 39.5q186 0 233 -140q35 -81 102.5 -296.5t100.5 -401.5q61 122 121 270t80 234h-2l-122 21q-26 108 -24 195q33 41 129.5 80.5t192.5 39.5q115 0 180.5 -56.5t65.5 -164.5q0 -82 -57.5 -207.5t-142.5 -249t-160.5 -220t-132.5 -158.5 q-21 -129 -38 -202l2 -2l148 62q78 -67 91 -178q-5 -8 -15 -21t-44 -46.5t-71 -59.5t-94.5 -47t-117.5 -21q-222 0 -219 243l2 248q-82 128 -191.5 348t-162.5 394l-152 21q-26 108 -24 195zM137 1802q0 89 60 134t160 45q221 0 221 -181q0 -81 -73.5 -140.5t-147.5 -59.5 q-86 0 -153 60t-67 142zM647 1802q0 89 60 134t160 45q221 0 221 -181q0 -81 -73.5 -140.5t-147.5 -59.5q-86 0 -153 60t-67 142z" />
<glyph unicode="&#x2c6;" horiz-adv-x="925" d="M50 1399l238 330q61 17 178 17q99 0 153 -10l256 -339q-70 -93 -160 -133q-127 72 -265 205q-120 -133 -261 -205q-85 42 -139 135z" />
<glyph unicode="&#x2dc;" horiz-adv-x="933" d="M50 1393q14 88 105 176t191 88q40 0 99.5 -21.5t89.5 -36.5t86 -46q9 4 23 13.5t26 19.5t40 32t48 38q117 -57 125 -138q-10 -43 -34.5 -88t-61 -84.5t-87 -64.5t-105.5 -25t-132.5 38t-128.5 81q-76 -33 -186 -119q-42 33 -68 65.5t-30 71.5z" />
<glyph unicode="&#x2000;" horiz-adv-x="1010" />
<glyph unicode="&#x2001;" horiz-adv-x="2020" />
<glyph unicode="&#x2002;" horiz-adv-x="1010" />
<glyph unicode="&#x2003;" horiz-adv-x="2020" />
<glyph unicode="&#x2004;" horiz-adv-x="673" />
<glyph unicode="&#x2005;" horiz-adv-x="505" />
<glyph unicode="&#x2006;" horiz-adv-x="336" />
<glyph unicode="&#x2007;" horiz-adv-x="336" />
<glyph unicode="&#x2008;" horiz-adv-x="252" />
<glyph unicode="&#x2009;" horiz-adv-x="404" />
<glyph unicode="&#x200a;" horiz-adv-x="112" />
<glyph unicode="&#x2010;" horiz-adv-x="1024" d="M100 524q0 82 40 165l753 45q15 -42 15 -100q0 -101 -49 -223q-123 -4 -275 -4q-245 0 -472 13q-12 57 -12 104z" />
<glyph unicode="&#x2011;" horiz-adv-x="1024" d="M100 524q0 82 40 165l753 45q15 -42 15 -100q0 -101 -49 -223q-123 -4 -275 -4q-245 0 -472 13q-12 57 -12 104z" />
<glyph unicode="&#x2012;" horiz-adv-x="1024" d="M100 524q0 82 40 165l753 45q15 -42 15 -100q0 -101 -49 -223q-123 -4 -275 -4q-245 0 -472 13q-12 57 -12 104z" />
<glyph unicode="&#x2013;" horiz-adv-x="1323" d="M100 521q0 85 40 168l1052 65q16 -47 16 -105q0 -110 -49 -230q-115 -9 -558 -9q-285 0 -489 7q-12 57 -12 104z" />
<glyph unicode="&#x2014;" horiz-adv-x="2004" d="M100 521q0 85 40 168l1733 65q16 -47 16 -105q0 -110 -49 -230q-115 -9 -1014 -9q-510 0 -714 7q-12 57 -12 104z" />
<glyph unicode="&#x2018;" horiz-adv-x="567" d="M57 1171q47 109 155.5 241t202.5 197l132 -84l-150 -523q-44 -11 -97 -11q-92 2 -160.5 48.5t-82.5 131.5z" />
<glyph unicode="&#x2019;" horiz-adv-x="567" d="M20 1075l150 523q44 11 97 11q92 -2 160.5 -48.5t82.5 -131.5q-47 -109 -155.5 -241t-202.5 -197z" />
<glyph unicode="&#x201a;" horiz-adv-x="567" d="M20 -153l150 523q44 11 97 11q92 -2 160.5 -48.5t82.5 -131.5q-47 -109 -155.5 -241t-202.5 -197z" />
<glyph unicode="&#x201c;" horiz-adv-x="1048" d="M57 1171q47 109 155.5 241t202.5 197l132 -84l-150 -523q-44 -11 -97 -11q-92 2 -160.5 48.5t-82.5 131.5zM538 1171q47 109 155.5 241t202.5 197l132 -84l-150 -523q-44 -11 -97 -11q-92 2 -160.5 48.5t-82.5 131.5z" />
<glyph unicode="&#x201d;" horiz-adv-x="1048" d="M20 1075l150 523q44 11 97 11q92 -2 160.5 -48.5t82.5 -131.5q-47 -109 -155.5 -241t-202.5 -197zM501 1075l150 523q44 11 97 11q92 -2 160.5 -48.5t82.5 -131.5q-47 -109 -155.5 -241t-202.5 -197z" />
<glyph unicode="&#x201e;" horiz-adv-x="1048" d="M20 -152l150 523q44 11 97 11q92 -2 160.5 -48.5t82.5 -131.5q-47 -109 -155.5 -241t-202.5 -197zM501 -152l150 523q44 11 97 11q92 -2 160.5 -48.5t82.5 -131.5q-47 -109 -155.5 -241t-202.5 -197z" />
<glyph unicode="&#x2022;" horiz-adv-x="802" d="M84 622q0 56 17 106t52 94t99 70t149 26t149 -26t99 -70t52 -94t17 -106q0 -133 -97 -226t-220 -93t-220 93t-97 226z" />
<glyph unicode="&#x2026;" horiz-adv-x="2044" d="M88 183q0 94 60.5 156t192.5 62t192.5 -62t60.5 -156q0 -81 -78 -142t-175 -61q-101 0 -177 68t-76 135zM769 183q0 94 60.5 156t192.5 62t192.5 -62t60.5 -156q0 -81 -78 -142t-175 -61q-101 0 -177 68t-76 135zM1450 183q0 94 60.5 156t192.5 62t192.5 -62t60.5 -156 q0 -81 -78 -142t-175 -61q-101 0 -177 68t-76 135z" />
<glyph unicode="&#x202f;" horiz-adv-x="404" />
<glyph unicode="&#x2039;" horiz-adv-x="778" d="M76 568q0 70 11 120l437 426q49 -20 107 -74t71 -103q-25 -75 -110.5 -195t-165.5 -203q69 -63 162.5 -170.5t149.5 -183.5q-25 -52 -74 -102t-95 -76l-449 353q-44 76 -44 208z" />
<glyph unicode="&#x203a;" horiz-adv-x="778" d="M40 936q25 52 74 102t95 76l449 -353q44 -76 44 -208q0 -70 -11 -120l-437 -426q-49 20 -107 74t-71 103q25 75 110.5 195t165.5 203q-69 63 -162.5 170.5t-149.5 183.5z" />
<glyph unicode="&#x205f;" horiz-adv-x="505" />
<glyph unicode="&#x20ac;" horiz-adv-x="1340" d="M16 847q0 65 41 136l134 9q22 125 69 225t121 176t183 117.5t246 41.5q74 0 195 -14t210 -35q29 -17 54 -46t33.5 -44.5t26.5 -49.5q0 -109 -30 -233t-71 -170q-52 -26 -120 -26q-89 0 -133 26l-35 205q-71 20 -244 20q-54 0 -70 -1q-22 -69 -39 -163l242 17q6 -27 6 -58 q0 -89 -43 -172l-225 -1v-35q0 -56 1 -84l276 20q6 -27 6 -58q0 -89 -43 -172l-215 -1q20 -86 68 -125t150 -39q101 0 186.5 29.5t186.5 86.5q44 -48 68 -94t33 -119q-9 -17 -31.5 -43t-66.5 -60.5t-99 -63.5t-134.5 -49t-166.5 -20q-493 0 -589 496h-164q-2 15 -2 41 q0 65 41 136l104 7q-3 51 -3 104q0 28 1 42h-156q-2 15 -2 41z" />
<glyph unicode="&#x2122;" horiz-adv-x="2277" d="M41 1317q0 92 42.5 123t136.5 37q196 12 659 12q29 -61 29 -114q0 -58 -39 -90.5t-114 -32.5q-37 0 -95 5q-6 -242 -27 -476q-9 -90 -41 -133q-23 -31 -72.5 -46t-100.5 -15q-48 0 -98 17.5t-73 62.5q0 105 47 166q75 -30 106 -38q3 9 3 31v17l-3 53q-12 206 -12 293 q0 63 3 90l-140 16l-2 -155q-51 -18 -103 -18q-14 0 -21 1q-30 23 -57.5 81.5t-27.5 112.5zM880 700q0 54 31 119l77 -18l38 516q-10 2 -24 4t-26.5 3.5t-22.5 3.5q-14 34 -14 66t14 68q21 10 77 17.5t108 10.5t88 3q23 0 100 -3t96 -3l24 -12q12 -31 24 -85.5t34.5 -165.5 t42.5 -201q52 197 69 292l-39 13q-15 37 -15 72q0 26 8 56q93 33 249 33q67 0 145 -2l26 -13q43 -152 82 -393.5t39 -362.5q0 -68 -26 -102q-39 -29 -130 -29q-90 0 -136 60l24 130l-42 346l9 153h-37l-26 -161q-43 -170 -103 -330q23 -76 30 -147q-54 -51 -142 -51 q-49 0 -98.5 14.5t-67.5 40.5q1 57 23 118l-102 370l-36 143h-38l24 -161q-7 -289 -20 -395q-6 -45 -34 -75.5t-62.5 -42.5t-72.5 -12q-52 0 -99.5 24t-65.5 58q-3 15 -3 31z" />
<glyph unicode="&#xe000;" horiz-adv-x="1185" d="M0 0v1185h1185v-1185h-1185z" />
</font>
</defs>
</svg>
