<?xml version="1.0" standalone="no"?>
<!DOCTYPE svg PUBLIC "-//W3C//DTD SVG 1.1//EN" "http://www.w3.org/Graphics/SVG/1.1/DTD/svg11.dtd" >
<svg xmlns="http://www.w3.org/2000/svg">
<metadata></metadata>
<defs>
<font id="rosarivoitalic" horiz-adv-x="603" >
<font-face units-per-em="1000" ascent="800" descent="-200" />
<missing-glyph horiz-adv-x="267" />
<glyph horiz-adv-x="1000" />
<glyph horiz-adv-x="1000" />
<glyph unicode="&#xd;" horiz-adv-x="1000" />
<glyph unicode=" "  horiz-adv-x="267" />
<glyph unicode="&#x09;" horiz-adv-x="267" />
<glyph unicode="&#xa0;" horiz-adv-x="267" />
<glyph unicode="!" horiz-adv-x="232" d="M36 52q24 40 73 59q39 -37 39 -74q0 -17 -26 -37.5t-49 -20.5q-17 48 -37 73zM79 695q3 2 67 39t66 38q5 0 8.5 -2.5t5.5 -4.5l1 -2q-4 -21 -18 -84t-23 -110t-24 -142.5t-29 -209.5q-1 -9 -10.5 -17t-26.5 -9q1 99 10 207t17.5 179.5t8.5 85.5t-13 14l-27 -9 q-5 4 -8 10.5t-4 11.5z" />
<glyph unicode="&#x22;" horiz-adv-x="311" d="M108 573l15 267q14 7 37 7q12 0 29 -7l-49 -267q-7 -2 -17 -2q-7 0 -15 2zM259 573l14 267q15 7 38 7q10 0 29 -7l-51 -267q-5 -2 -16 -2q-6 0 -14 2z" />
<glyph unicode="#" horiz-adv-x="584" d="M67 135q12 32 16 44h89l21 138q-39 -1 -104 -8q-6 4 -6 15q12 32 16 44h101l20 125q26 5 45 14q5 0 8.5 -2.5t4.5 -4.5l2 -3q-20 -75 -31 -129h122l20 125q30 7 45 14q5 0 8.5 -2.5t5.5 -4.5l1 -3q-8 -24 -31 -128q56 4 91 8q6 -4 6 -16q0 -1 -16 -45h-89l-21 -136 q38 1 102 8q7 -3 7 -16q-7 -13 -16 -45h-101l-23 -146q-28 -6 -44 -13q-4 0 -7 2t-5 4l-1 3q17 60 32 151h-123l-21 -147q-30 -6 -46 -13q-4 0 -7.5 2t-4.5 4l-1 3q15 52 32 150q-32 0 -91 -7q-6 3 -6 15zM220 179h123l21 138h-121z" />
<glyph unicode="$" horiz-adv-x="423" d="M20 16l43 136q13 0 24 -7q-3 -12 -3 -61q0 -23 1 -31q20 -28 75 -34l24 210q-33 28 -51.5 45.5t-35.5 46t-17 56.5q0 59 41.5 94t103.5 41l11 76q25 6 33 11q5 0 10 -7q-10 -38 -18 -79q64 -1 123 -26q-17 -49 -29 -122q-4 -1 -12 -1q-11 0 -12 3l-8 86q-23 17 -67 23 l-21 -184q29 -26 44 -40.5t36 -38t30.5 -44.5t9.5 -41q0 -59 -47.5 -100.5t-115.5 -46.5l-12 -98q-7 -2 -32 -11q-3 0 -6 2t-4 4l-1 1q10 53 16 102q-91 7 -133 35zM152 407q0 -34 49 -83l20 155q-69 -4 -69 -72zM196 17q31 5 52 28.5t21 58.5q0 46 -52 95z" />
<glyph unicode="%" horiz-adv-x="629" d="M93 341q0 68 35.5 118t106.5 61q41 0 64.5 -30.5t23.5 -77.5q0 -68 -36 -117.5t-106 -59.5q-42 0 -65 29.5t-23 76.5zM96 -12l191 244q34 42 109 143t104 148q4 1 9 1q4 0 4 -3q13 -29 23 -45l-212 -272q-166 -216 -189 -259q-6 -1 -10 -1l-4 3q-1 2 -25 41zM135 371 q0 -28 18 -47t48 -19q47 0 65 25.5t18 52.5q0 28 -18.5 47t-50.5 19q-80 0 -80 -78zM307 51q0 68 35 118t106 60q42 0 65 -30t23 -78q0 -68 -35.5 -117t-105.5 -60q-43 0 -65.5 29.5t-22.5 77.5zM348 80q0 -27 18 -46t49 -19q46 0 64 25t18 52q0 28 -18.5 47.5t-50.5 19.5 q-80 0 -80 -79z" />
<glyph unicode="&#x26;" horiz-adv-x="769" d="M43 231q0 98 47 178.5t133 123.5q50 0 84 -22t34 -74q0 -80 -112 -129h358q65 0 103 12.5t38 32.5q0 21 -32 56q5 12 17 20.5t21 11.5l10 3q25 -35 25 -67q0 -36 -49.5 -76.5t-118.5 -40.5l-25 -156q-17 -113 -17 -159q0 -29 18 -29q34 0 103 25q8 -13 8 -29 q-48 -20 -80.5 -35.5t-51 -26.5t-61.5 -39l-16 6q-4 16 -4 52q0 69 29 247q-113 -136 -255 -136q-91 0 -148.5 72t-57.5 179zM121 259q0 -83 44.5 -149t110.5 -66q97 0 167.5 69.5t83.5 146.5q-273 0 -406 9v-10zM123 301q55 6 99.5 41t44.5 77q0 30 -16.5 51t-41.5 21 q-27 0 -52.5 -58.5t-33.5 -131.5z" />
<glyph unicode="'" horiz-adv-x="160" d="M108 573l15 267q14 7 37 7q12 0 29 -7l-49 -267q-7 -2 -17 -2q-7 0 -15 2z" />
<glyph unicode="(" horiz-adv-x="319" d="M73 271q0 372 224 633q23 0 30 -20q-168 -255 -168 -660q0 -218 76 -377q-7 -20 -32 -20q-130 196 -130 444z" />
<glyph unicode=")" horiz-adv-x="319" d="M-8 -153q168 265 168 664q0 209 -77 373q9 20 32 20q130 -199 130 -449q0 -364 -225 -628q-20 0 -28 20z" />
<glyph unicode="*" horiz-adv-x="465" d="M80 628q0 6 4 11q70 7 148 40l-113 77q15 35 24 67l9 4q40 -68 97 -119l15 156q38 5 63 16l6 -8q-40 -81 -53 -163l128 78q23 -38 39 -52l-4 -11q-83 -11 -150 -44l112 -80q-20 -43 -25 -67l-8 -2q-40 68 -96 121l-15 -156q-38 -5 -62 -16l-7 8q35 68 55 164l-130 -76 q-23 38 -37 52z" />
<glyph unicode="+" horiz-adv-x="512" d="M51 244q10 25 16 48h164q9 88 10 207q4 9 15 9q4 -2 47 -13l-19 -203q87 0 171 9q6 -4 6 -16l-16 -48h-165q-11 -109 -12 -204q-3 -9 -13 -9q-8 4 -47 13l19 200q-85 0 -170 -8q-6 3 -6 15z" />
<glyph unicode="," horiz-adv-x="172" d="M-21 -119q78 62 78 98q0 27 -41 72q32 46 77 60q38 -48 38 -76q0 -52 -35 -91.5t-104 -83.5q-13 6 -13 21z" />
<glyph unicode="-" horiz-adv-x="347" d="M24 227q10 21 17 48h143q64 0 123 9q8 -4 8 -16q-14 -26 -18 -47h-142q-64 0 -123 -9q-8 4 -8 15z" />
<glyph unicode="." horiz-adv-x="171" d="M16 51q24 41 73 60q39 -37 39 -74q0 -17 -26 -37.5t-49 -20.5q-17 48 -37 72z" />
<glyph unicode="/" horiz-adv-x="361" d="M7 -72l198 544q138 382 155 451q7 5 17 5q8 -7 27 -18.5t20 -12.5l-164 -442q-167 -454 -191 -552q-6 -6 -17 -6q-7 7 -45 31z" />
<glyph unicode="0" horiz-adv-x="543" d="M56 212q0 82 24 146.5t80 110t139 55.5q89 0 138.5 -65.5t49.5 -170.5q0 -127 -60.5 -210.5t-182.5 -97.5q-90 0 -139 64t-49 168zM104 247q0 -71 48.5 -126.5t124.5 -55.5q83 0 121.5 54.5t38.5 132.5q0 75 -46 130t-118 55q-169 0 -169 -190z" />
<glyph unicode="1" horiz-adv-x="348" d="M20 8l1 9q89 22 103 50q14 31 28 205l11 143l-98 -14q-8 8 -8 24q0 6 2 10q113 39 182 93q7 -2 12 -6.5t7 -8.5l1 -4q-18 -41 -25 -83t-17 -157l-11 -128q-5 -48 -5 -109q25 -3 77 -3q1 -5 1 -13q0 -11 -4 -19q-25 0 -60.5 1.5t-44.5 1.5q-84 0 -149 -8q-3 7 -3 16z" />
<glyph unicode="2" horiz-adv-x="439" d="M-7 15l119 117q4 4 26 24.5t32.5 31.5t31 32.5t32 37.5t24.5 37t19 41t6 39q0 39 -26 65.5t-64 26.5q-34 0 -86 -27l-26 -103q-6 -2 -14 -2q-7 0 -11 2q0 24 -1 50.5t-2 43t-1 17.5q0 12 15 19q58 25 153 57q62 0 103 -29t41 -92q0 -79 -93 -170l-175 -169h95 q80 0 108.5 6.5t40.5 24.5q4 6 15.5 25.5t15.5 26.5q13 0 24 -8q-25 -73 -35 -131q-22 -11 -88 -11q-20 0 -80.5 1.5t-64.5 1.5q-95 0 -128 -7q-6 8 -6 22z" />
<glyph unicode="3" horiz-adv-x="423" d="M0 -273q31 15 44.5 21.5t48 25.5t53 32.5t46.5 36.5t42.5 43.5t25.5 47.5t11 54q0 62 -33.5 104t-93.5 83l79 74q82 75 82 142q0 74 -93 74q-37 0 -105 -26l-26 -103q-6 -3 -14 -3q-7 0 -11 3q0 23 -1 49.5t-2 43.5t-1 18q0 10 16 18q39 21 171 59q148 0 148 -105 q0 -29 -16 -59.5t-34.5 -50.5t-56.5 -58l-37 -36q110 -85 110 -190q0 -52 -22 -97t-52 -76t-82 -61.5t-90 -47.5t-98 -40q-9 9 -9 24z" />
<glyph unicode="4" horiz-adv-x="489" d="M-13 16q6 7 21 24t20 24l219 287q30 39 61.5 83t47.5 68l16 25q15 -2 25 -10q-16 -56 -34 -261l-18 -195q66 3 80 28l20 40q15 0 24 -8q-18 -52 -29 -114q-25 -11 -100 -11q-6 -68 -17 -259q-31 -2 -71 -32q-11 0 -17 6q21 73 32 194l8 92q-93 3 -154 3q-87 0 -129 -7 q-5 8 -5 23zM72 60h208l27 308z" />
<glyph unicode="5" horiz-adv-x="425" d="M0 -284q41 26 63.5 41t64 48.5t64.5 62t42 68.5t19 81q0 69 -56.5 125.5t-141.5 93.5l64 276q105 -5 177 -5q76 0 93 17q3 4 20 33q13 0 23 -6q-19 -70 -24 -107q-20 -15 -85 -15q-83 0 -187 4l-27 -124q231 -108 231 -257q0 -51 -20 -98t-50.5 -82.5t-77 -70.5 t-87 -58.5t-93.5 -49.5q-12 8 -12 23z" />
<glyph unicode="6" horiz-adv-x="521" d="M60 227q0 166 115.5 297t284.5 191q11 -9 11 -23q-78 -38 -133 -78.5t-100 -96.5t-67.5 -131.5t-22.5 -170.5q0 -88 28 -142t89 -54q51 0 89.5 50t38.5 136q0 55 -32 103t-80 48q-32 0 -65 -19q-11 7 -11 26q50 32 114 32q62 0 109 -47t47 -120q0 -104 -65 -166t-173 -82 q-83 0 -130 68t-47 179z" />
<glyph unicode="7" horiz-adv-x="463" d="M0 -240q32 56 93.5 164t100 175.5t96 160.5t109.5 171q-80 8 -170 8q-36 0 -54 -0.5t-42 -3t-36 -8t-17 -15.5l-21 -43q-20 0 -24 8q5 23 13 54t12.5 50.5t6.5 34.5q66 -7 238 -7q122 0 175 6q4 -3 6 -8t2 -9l1 -3q-116 -159 -205 -331.5t-209 -442.5q-2 -1 -10 -1 q-5 0 -8 3q-9 13 -23 22t-24 12z" />
<glyph unicode="8" horiz-adv-x="463" d="M36 132q0 117 173 221q-60 44 -92.5 81t-32.5 83q0 76 53.5 127.5t137.5 62.5q59 0 105.5 -40.5t46.5 -98.5q0 -40 -21 -75t-45.5 -56t-73.5 -56q133 -94 133 -190q0 -89 -62 -143t-151 -68q-65 0 -118 44t-53 108zM113 153q0 -58 30 -97.5t78 -39.5q57 0 90.5 43 t33.5 100q0 85 -120 174q-54 -43 -83 -84.5t-29 -95.5zM149 561q0 -68 120 -160q88 72 88 152q0 51 -27.5 86.5t-70.5 35.5q-45 0 -77.5 -36t-32.5 -78z" />
<glyph unicode="9" horiz-adv-x="521" d="M47 265q0 102 66 171.5t172 87.5q82 0 129 -72t47 -189q0 -178 -102 -332.5t-266 -227.5q-13 3 -13 22q162 100 227.5 233t65.5 317q0 94 -27 152t-87 58q-62 0 -96 -59t-34 -127q0 -69 28.5 -120.5t81.5 -51.5q29 0 68 18q9 -6 9 -25q-50 -32 -112 -32q-67 0 -112 52.5 t-45 124.5z" />
<glyph unicode=":" horiz-adv-x="171" d="M16 51q24 41 73 60q39 -37 39 -74q0 -17 -26 -37.5t-49 -20.5q-17 48 -37 72zM52 396q25 43 73 60q39 -36 39 -73q0 -17 -26 -38t-49 -21q-16 47 -37 72z" />
<glyph unicode=";" horiz-adv-x="172" d="M-21 -119q78 62 78 98q0 27 -41 72q32 46 77 60q38 -48 38 -76q0 -52 -35 -91.5t-104 -83.5q-13 6 -13 21zM56 396q25 43 73 60q39 -36 39 -73q0 -17 -26 -38t-49 -21q-16 47 -37 72z" />
<glyph unicode="&#x3c;" horiz-adv-x="496" d="M40 232l7 28l225 92q11 5 47 19t66.5 27t63.5 30q8 -4 8 -11q-5 -25 -8 -50l-305 -119l275 -107q-3 -14 -6 -49q-2 -4 -5 -6.5t-6 -3.5l-2 -1q-50 25 -156 68z" />
<glyph unicode="=" horiz-adv-x="608" d="M53 155q12 30 18 49h256q98 0 193 9q7 -4 7 -17q-13 -26 -18 -49h-244q-88 0 -205 -8q-7 2 -7 16zM81 333q13 34 18 50h256q99 0 193 9q7 -4 7 -17q-13 -26 -18 -50h-244q-104 0 -205 -8q-7 3 -7 16z" />
<glyph unicode="&#x3e;" horiz-adv-x="496" d="M39 92q4 32 5 49l315 123l-282 104q3 14 6 49q2 4 5 7t6 4h2q50 -25 156 -68l204 -83l-7 -28l-225 -92q-12 -5 -47 -18.5t-66 -27t-64 -30.5q-8 4 -8 11z" />
<glyph unicode="?" horiz-adv-x="383" d="M53 349q15 10 58 28.5t74 34t57.5 46t26.5 67.5t-23.5 75t-51.5 62t-51.5 43.5t-23.5 22.5q0 9 17 44.5t36 56.5q14 -2 24 -14q-2 -6 -6 -14.5t-5 -11.5q80 -69 113.5 -120t33.5 -122q0 -36 -15.5 -66.5t-46 -54t-55.5 -38t-62 -31.5q5 -10 13.5 -53.5t8.5 -72.5 q0 -11 -31.5 -33.5t-46.5 -22.5q0 32 -17 94t-27 80zM72 52q24 40 73 59q39 -37 39 -74q0 -17 -26 -37.5t-49 -20.5q-17 48 -37 73z" />
<glyph unicode="@" horiz-adv-x="867" d="M45 124q0 110 44.5 207.5t117 163t165 103.5t187.5 38q131 0 199.5 -76.5t68.5 -212.5t-74 -230.5t-204 -139.5q-18 9 -29 32t-11 52q0 66 20 152q-35 -53 -60 -88.5t-71 -81.5t-87 -63q-35 6 -58.5 40.5t-23.5 90.5q0 80 45 154t118 127q31 22 65.5 38.5t53 22.5t26.5 7 q47 5 55 8l49 20q6 0 11 -7q-71 -339 -71 -381q0 -30 5.5 -43t20.5 -13q39 0 74 49t54.5 121t19.5 142q0 118 -55.5 183t-166.5 65q-103 0 -196.5 -66.5t-150.5 -179.5t-57 -241q0 -98 60.5 -178t159.5 -80q86 0 159 36q12 -7 12 -30q-97 -45 -179 -45q-133 0 -214.5 88.5 t-81.5 215.5zM304 143q0 -87 44 -87q43 0 117 102t95 194l15 64q-58 0 -87 -4q-48 -6 -91.5 -53t-68 -107t-24.5 -109z" />
<glyph unicode="A" horiz-adv-x="673" d="M-27 8l2 9q48 14 72 44t76 136l240 491l6 28l52 17l119 -564q25 -109 39 -138q25 -3 46 -3q2 -3 2 -8q0 -11 -6 -23q-17 0 -59 1.5t-46 1.5q-68 0 -123 -8q-2 2 -2 11l2 14q41 9 56.5 22t15.5 37q0 16 -6 43l-32 150q-42 3 -106 3q-28 0 -65.5 -1.5t-54.5 -1.5l-30 -64 q-54 -112 -59 -176q20 -1 63 -1q1 -5 1 -12q0 -10 -4 -19q-20 0 -54.5 1.5t-40.5 1.5q-56 0 -101 -8q-3 12 -3 16zM216 308q4 0 43 -2t65 -2q58 0 96 3l-61 306z" />
<glyph unicode="B" horiz-adv-x="608" d="M19 7l1 10q32 7 50.5 22.5t24.5 28.5t10 36q20 104 32 245q19 205 19 284q0 45 -7 48q-29 0 -74 -2q-3 5 -3 13q0 10 3 13q220 22 288 22q78 0 129.5 -40t51.5 -108q0 -71 -39.5 -117.5t-91.5 -64.5q135 -47 135 -180q0 -96 -73 -156.5t-211 -60.5q-182 0 -241 -8 q-4 5 -4 15zM191 65q0 -14 1 -25q32 -4 61 -4q199 0 199 168q0 74 -36.5 120.5t-98.5 46.5h-41q-1 4 -1 9q0 7 1.5 14t3.5 10l1 3h28q23 0 47.5 8.5t48.5 26t39 50.5t15 75q0 56 -31 90.5t-96 34.5q-42 0 -80 -8q-17 -92 -36 -296l-19 -216q-6 -66 -6 -107z" />
<glyph unicode="C" horiz-adv-x="680" d="M55 283q0 115 55 219.5t150 169t205 64.5q107 0 196 -32q6 -5 6 -9t-5 -33t-11.5 -71t-9.5 -72q-7 -4 -18 -4q-8 0 -16 2q-6 111 -10 128q-20 21 -63 38t-83 17q-80 0 -148.5 -59.5t-106 -149.5t-37.5 -183q0 -54 11 -103t34.5 -91.5t64.5 -68t96 -25.5q105 0 211 137 q9 0 16 -5t10 -10l3 -5q-74 -118 -93 -124q-101 -33 -181 -33q-125 0 -200.5 86t-75.5 217z" />
<glyph unicode="D" horiz-adv-x="737" d="M19 5l1 12q32 7 50.5 22.5t24 28.5t10.5 36q17 76 32 245q19 205 19 284q0 48 -8 48q-43 0 -73 -2q-3 6 -3 13q0 10 3 13q7 1 45.5 5t71.5 7.5t81 6.5t86 3q151 0 241.5 -76t90.5 -223q0 -111 -44.5 -209t-130.5 -160.5t-195 -62.5q-30 0 -76.5 2t-56.5 2q-109 0 -167 -8 q-2 8 -2 13zM191 49q54 -17 124 -17q86 0 151 53.5t97 138t32 184.5q0 128 -68.5 206t-187.5 78q-58 0 -87 -5q-13 -44 -35 -291q-26 -308 -26 -347z" />
<glyph unicode="E" d="M19 5l1 12q32 7 50.5 22.5t24 28.5t10.5 36q20 87 35 281q20 250 20 274q0 34 -4 34q-17 3 -61 3q-2 4 -2 9q0 4 4 18q20 0 55 -1.5t41 -1.5h140q41 0 124.5 3.5t90.5 3.5q13 0 13 -10q0 -2 -5 -25t-12 -65t-12 -83q-7 -3 -16 -3q-3 0 -15 3q-5 113 -8 124 q-79 21 -174 21q-39 0 -64 -4q-8 -17 -14 -66q-6 -44 -22 -227q13 -4 74 -4q64 0 100 5q45 5 59 40q15 0 24 -6q-14 -74 -19 -158q-8 -2 -10 -2l-15 4v76q-54 9 -139 9q-43 0 -78 -5l-16 -182q-6 -63 -6 -133q25 -4 63 -4q94 0 191 27q7 11 14.5 26t12 26t11.5 29t11 27 q15 0 29 -8q-14 -50 -32 -144q-3 -11 -13 -12q-40 -7 -105 -7q-35 0 -90 2t-64 2h-50q-92 0 -150 -8q-2 8 -2 13z" />
<glyph unicode="F" horiz-adv-x="595" d="M19 5l1 12q32 7 50.5 22.5t24 28.5t10.5 36q20 87 35 281q20 250 20 274q0 34 -4 34q-17 3 -61 3q-2 4 -2 9q0 4 4 18q20 0 55 -1.5t41 -1.5h140q43 0 131 3.5t96 3.5q13 0 13 -10q0 -1 -5 -24.5t-12.5 -65.5t-11.5 -83q-8 -3 -16 -3q-6 0 -15 3q-5 113 -8 124 q-86 21 -186 21q-39 0 -64 -4q-10 -18 -38 -304q22 -4 75 -4q56 0 100 6q45 4 59 40q14 0 24 -7q-13 -63 -19 -159q-8 -2 -11 -2l-14 4v77q-36 9 -139 9q-54 0 -79 -5l-9 -116q-11 -141 -11 -187q42 -6 114 -6q1 -10 1 -15q0 -12 -4 -19q-32 0 -77 1.5t-56 1.5 q-92 0 -150 -8q-2 8 -2 13z" />
<glyph unicode="G" horiz-adv-x="703" d="M53 283q0 115 55 219.5t150.5 169t205.5 64.5q107 0 196 -32q5 -4 5 -9q0 -4 -4.5 -33t-11 -71t-9.5 -72q-7 -4 -19 -4q-8 0 -16 2q-4 106 -9 128q-20 21 -63.5 38t-83.5 17q-79 0 -147.5 -59.5t-106.5 -149.5t-38 -183q0 -54 11.5 -103t34.5 -91.5t64.5 -68t96.5 -25.5 q40 0 80.5 12t62.5 33l20 178q-39 5 -103 5q-3 7 -3 13q0 5 1.5 10t3.5 7l1 3q27 0 80 -1t64 -1q55 0 96 8q2 -8 2 -15l-2 -15q-27 -4 -41 -16.5t-21 -48.5l-26 -136q-40 -32 -110 -54t-140 -22q-124 0 -200 86.5t-76 216.5z" />
<glyph unicode="H" horiz-adv-x="772" d="M19 5l1 12q32 7 50.5 22.5t24 28.5t10.5 36q20 87 35 281q20 250 20 274q0 34 -4 34q-17 3 -61 3q-2 4 -2 9q0 4 4 18q20 0 53 -1.5t39 -1.5q83 0 130 4q4 -6 4 -15l-2 -10q-38 -11 -52 -30t-21 -53q-11 -59 -29 -220q88 -4 193 -4q40 0 97.5 2t70.5 2l13 156q6 72 6 107 q0 34 -4 34q-18 3 -62 3q-1 4 -1 11q0 9 4 16q20 0 53 -1.5t39 -1.5q81 0 128 4q4 -4 4 -15l-1 -10q-38 -11 -53 -31t-21 -52q-19 -98 -36 -299l-13 -149q-5 -60 -5 -105q0 -32 4 -32q17 -3 66 -3q2 -5 2 -12q0 -5 -4 -19q-20 0 -54 1.5t-40 1.5q-96 0 -157 -8q-3 4 -3 13 l2 12q53 10 71.5 30.5t25.5 56.5q13 71 32 248q-25 0 -79 2.5t-89 2.5q-73 0 -193 -5l-16 -184q-6 -72 -6 -105q0 -32 4 -32q16 -3 62 -3q1 -5 1 -12q0 -10 -4 -19q-20 0 -51.5 1.5t-37.5 1.5q-88 0 -146 -8q-2 8 -2 13z" />
<glyph unicode="I" horiz-adv-x="339" d="M9 8l2 8q56 12 72.5 28.5t23.5 52.5q21 114 32 255l9 112q11 127 11 191q0 38 -7 38q-33 3 -72 3q-1 4 -1 9q0 11 4 18q21 0 70.5 -1.5t57.5 -1.5q7 0 50 1.5t64 1.5q2 -4 2 -11l-4 -16q-39 0 -60 -3q-16 -2 -35 -229l-13 -163q-14 -164 -14 -244q0 -30 3 -30 q24 -3 93 -3q2 -4 2 -9q0 -4 -4 -18q-26 0 -73.5 1.5t-54.5 1.5q-92 0 -154 -8q-4 8 -4 16z" />
<glyph unicode="J" horiz-adv-x="327" d="M-44 -253l51 53q56 60 79.5 138.5t36.5 228.5l22 266q14 159 14 220q0 39 -6 39q-39 4 -82 4q-2 4 -2 11q0 3 1.5 8.5t1.5 7.5q25 0 69 -1.5t52 -1.5q75 0 115 8q4 -5 4 -15l-1 -10q-14 -3 -24.5 -12t-17.5 -24t-10.5 -24.5t-7.5 -26.5q-12 -41 -27 -221l-28 -311 q-12 -123 -34.5 -174.5t-94.5 -109.5l-96 -76q-15 4 -15 23z" />
<glyph unicode="K" horiz-adv-x="645" d="M19 5l1 12q55 11 73.5 30t25.5 57q19 114 34 281q20 233 20 274q0 34 -4 34q-17 3 -61 3q-1 4 -1 9q0 9 4 18q19 0 54.5 -1.5t41.5 -1.5q81 0 128 4q4 -6 4 -15l-2 -10q-38 -11 -52 -30t-21 -53q-14 -60 -25 -181l-23 -267q-5 -60 -5 -105q0 -32 4 -32q20 -3 72 -3 q1 -5 1 -12q0 -10 -4 -19q-22 0 -57 1.5t-43 1.5q-100 0 -163 -8q-2 8 -2 13zM264 401l129 123q83 81 126 161q-16 10 -68 12q0 18 5 27q91 -4 120 -4q8 0 63 5q6 -6 6 -16q0 -5 -1 -9q-59 -35 -100 -76l-199 -195l102 -204q50 -102 81 -147.5t53 -48.5q16 -2 59 -2 q3 -9 3 -12q0 -7 -4 -15q-34 -2 -67.5 -7t-53.5 -9t-25 -4q-16 0 -64.5 89.5t-103.5 205t-61 126.5z" />
<glyph unicode="L" horiz-adv-x="584" d="M19 5l1 12q32 7 50.5 22.5t24 28.5t10.5 36q17 75 35 281q20 233 20 274q0 34 -4 34q-17 3 -61 3q-2 4 -2 9q0 4 4 18q20 0 55 -1.5t41 -1.5q94 0 151 4q4 -4 4 -15l-1 -10q-51 -11 -69 -28.5t-27 -49.5q-15 -63 -26 -186l-22 -267q-6 -62 -6 -100q0 -23 2 -32 q29 -4 73 -4q94 0 191 27q9 14 18 33t20 48t14 36q15 0 29 -8q-10 -37 -21 -88.5t-14 -64.5q-1 -11 -13 -12q-37 -7 -105 -7q-35 0 -90 2t-64 2h-66q-92 0 -150 -8q-2 8 -2 13z" />
<glyph unicode="M" horiz-adv-x="909" d="M11 7l1 10q43 10 61.5 32t25.5 54q38 189 70 540q-17 33 -48 49q-17 7 -60 11q0 15 7 26q34 -2 52 -2q23 0 56 2t41 2q24 0 91 -159q31 -74 65 -178.5t58 -185.5t25 -84q21 44 138 275.5t155 320.5q93 0 147 9q3 -12 3 -13l-2 -12q-46 -11 -64.5 -33t-23.5 -55 q-12 -72 -25 -317q-5 -80 -5 -190q0 -54 1 -82q16 -3 72 -3q1 -4 1 -9q0 -9 -4 -18q-19 0 -53 1.5t-40 1.5q-94 0 -153 -8q-4 5 -4 15l1 10q51 10 70.5 29.5t24.5 54.5q10 80 21 295l8 164q-45 -71 -151 -277.5t-144 -305.5l-25 7q-137 441 -177 533l-32 74 q-28 -261 -34 -336q-9 -108 -9 -228q21 -3 72 -3q1 -4 1 -9q0 -9 -4 -18q-23 0 -59.5 1.5t-42.5 1.5q-62 0 -104 -8q-4 5 -4 15z" />
<glyph unicode="N" horiz-adv-x="799" d="M15 5l1 12q44 11 60.5 32t24.5 55q31 143 68 549q-26 29 -41.5 37t-60.5 13q-2 4 -2 10q0 11 4 16q19 -1 44 -1q31 0 62.5 2.5t40.5 2.5q28 0 165 -206q123 -183 243 -391q3 79 18 269.5t15 243.5q0 23 -1 44q-21 3 -73 3q-3 5 -3 12t4 15q23 0 56 -1.5t40 -1.5 q63 0 105 8q2 -3 2 -11l-2 -14q-44 -11 -58.5 -31t-18.5 -56q-20 -138 -64 -631l-24 -10q-31 53 -135.5 217t-144.5 229q-85 138 -144 202q-3 -38 -12.5 -145.5t-14.5 -169.5t-9.5 -135.5t-4.5 -109.5q0 -20 1 -36q20 -3 71 -3q1 -4 1 -11q0 -10 -4 -16q-23 0 -59 1.5 t-42 1.5q-63 0 -106 -8q-2 4 -2 13z" />
<glyph unicode="O" horiz-adv-x="747" d="M55 283q0 82 18.5 151t48 114t67 81t73.5 55t70.5 31.5t54.5 16.5t29 4q124 0 204 -88.5t80 -216.5q0 -82 -18 -150.5t-45.5 -114t-64 -80.5t-71.5 -54.5t-70 -32t-56.5 -16t-34.5 -3.5q-125 0 -205 87t-80 216zM149 335q0 -122 61.5 -212.5t161.5 -90.5q60 0 106.5 30.5 t73 81.5t40 112t13.5 128q0 118 -58.5 209.5t-159.5 91.5q-78 0 -133.5 -53.5t-80 -130.5t-24.5 -166z" />
<glyph unicode="P" horiz-adv-x="564" d="M19 5l1 12q32 7 50.5 22.5t24 28.5t10.5 36q17 76 32 245q19 205 19 284q0 48 -8 48q-43 0 -73 -2q-3 6 -3 13q0 10 3 13q5 0 44.5 4.5t71.5 8t78.5 6.5t82.5 3q96 0 154 -49.5t58 -142.5q0 -100 -71.5 -176t-175.5 -76q-52 0 -68 1q-1 5 -1 12q0 8 2 14t4 8l1 3 q12 -1 41 -1q76 0 125.5 59t49.5 137q0 81 -40 128.5t-108 47.5q-37 0 -71 -8q-17 -92 -39 -332l-16 -184q-5 -62 -5 -105q0 -32 4 -32q24 -3 107 -3q1 -5 1 -12q0 -10 -4 -19q-29 0 -74.5 1.5t-54.5 1.5q-92 0 -150 -8q-2 8 -2 13z" />
<glyph unicode="Q" horiz-adv-x="739" d="M55 283q0 82 18.5 151t48 114t67 81t73.5 55t70.5 31.5t54.5 16.5t29 4q124 0 204 -88.5t80 -216.5q0 -150 -48.5 -248.5t-140.5 -190.5q-82 -82 -222 -153q51 -4 176 -49.5t162 -45.5q17 0 94 68q16 -5 26 -23l-115 -124q-65 3 -219 55.5t-218 52.5q-35 0 -76 -16 q-15 15 -15 35q128 55 211 105.5t142 111.5q71 74 109.5 176t38.5 192q0 75 -23.5 143.5t-75 116.5t-119.5 48q-78 0 -133.5 -53.5t-80 -130.5t-24.5 -166q0 -68 24.5 -136.5t74 -117.5t111.5 -49q0 -1 -6 -9t-10.5 -13t-13.5 -14t-20 -16q-105 0 -179.5 94.5t-74.5 208.5z " />
<glyph unicode="R" horiz-adv-x="624" d="M19 5l1 12q32 7 50.5 22.5t24 28.5t10.5 36q17 76 32 245q19 205 19 284q0 48 -8 48q-43 0 -73 -2q-3 6 -3 13q0 10 3 13q2 0 56 7t105 11t97 4q99 0 154.5 -48.5t55.5 -126.5q0 -86 -42.5 -136.5t-129.5 -84.5q25 -58 60 -127q48 -95 74.5 -133t50.5 -42q15 -2 56 -2 q3 -9 3 -12q0 -7 -4 -15q-35 -2 -68 -7t-53 -9t-25 -4q-26 0 -128 220l-61 136q97 34 133 80t36 121q0 62 -35.5 108.5t-100.5 46.5q-23 0 -57 -8q-17 -91 -39 -332l-16 -184q-5 -62 -5 -105q0 -32 4 -32q16 -3 67 -3q1 -5 1 -12q0 -10 -4 -19q-20 0 -51.5 1.5t-37.5 1.5 q-92 0 -150 -8q-2 8 -2 13z" />
<glyph unicode="S" horiz-adv-x="544" d="M33 16l19 193q7 4 17 4q12 0 22 -5q1 -101 21 -132q36 -60 137 -60q58 0 98.5 41.5t40.5 106.5q0 48 -31.5 85.5t-97.5 77.5q-96 58 -135 99.5t-39 100.5q0 98 75.5 153.5t179.5 55.5q41 0 89.5 -12t74.5 -25l-25 -172q-8 -4 -16 -4q-10 0 -18 4q-5 111 -24 133 q-15 18 -45.5 30.5t-63.5 12.5q-58 0 -97 -37t-39 -98q0 -42 33 -76t108 -80q34 -21 57 -38t50.5 -44t41.5 -60.5t14 -72.5q0 -100 -77 -158.5t-176 -58.5q-53 0 -112.5 12t-81.5 24z" />
<glyph unicode="T" horiz-adv-x="623" d="M20 548l32 168q2 8 5 9.5t12 1.5q7 0 66.5 -3.5t89.5 -3.5h222q35 0 101 3.5t72 3.5q15 0 15 -8q0 -1 -5.5 -25t-13 -63.5t-11.5 -75.5q-7 -4 -17 -4t-15 4l-8 114q-37 20 -124 20q-33 0 -54 -5q-10 -22 -21 -109t-17 -163l-14 -184q-6 -72 -6 -132q0 -45 2 -61 q40 -7 94 -7q2 -5 2 -12q0 -5 -4 -19q-31 0 -84 1.5t-64 1.5q-111 0 -176 -8q-3 4 -3 11l3 14q64 11 90.5 27.5t35.5 48.5q11 44 24.5 155.5t22 225.5t8.5 175q0 15 -1 35q-24 5 -56 5q-85 0 -122 -20q-4 -9 -21.5 -55t-30.5 -74q-20 0 -29 8z" />
<glyph unicode="U" horiz-adv-x="764" d="M80 705q0 9 4 18q20 0 50 -1.5t37 -1.5q82 0 132 8q4 -6 4 -15l-2 -10q-45 -11 -60 -27t-21 -48q-13 -71 -24 -196q-15 -180 -15 -187q0 -104 45 -163t135 -59q117 0 169 70.5t65 215.5q2 28 7 82.5t6.5 73.5t4.5 56t3.5 58.5t1.5 51.5t1 62q-20 3 -78 3q-1 5 -1 12 q0 9 3 15q23 0 62 -1.5t46 -1.5q66 0 104 8q4 -6 4 -15l-2 -10q-30 -7 -49 -27t-24.5 -36t-10.5 -41q-20 -115 -37 -315q-13 -147 -85.5 -225.5t-201.5 -78.5q-245 0 -245 249q0 34 12 203q17 255 17 261q-17 3 -56 3q-1 4 -1 9z" />
<glyph unicode="V" horiz-adv-x="739" d="M41 703q0 13 7 25q56 -8 143 -8q45 0 120 3q1 -7 1 -15l-3 -12q-52 0 -73 -1q0 -121 48 -291l84 -296l145 296q44 91 78.5 177t36.5 111q-17 4 -68 4q-1 4 -1 11q0 9 4 16q57 -3 93 -3q59 0 105 8q3 -5 3 -12l-1 -13q-37 -11 -59 -35q-31 -35 -58.5 -84.5t-92.5 -179.5 l-220 -443h-14l-150 519q-41 151 -69 192q-12 17 -59 31z" />
<glyph unicode="W" horiz-adv-x="981" d="M15 703q0 14 5 25q56 -8 143 -8q39 0 113 3q3 -9 3 -11l-4 -16q-51 0 -74 -1q0 -100 50 -291l80 -303l149 279q-8 29 -20.5 76t-20 73.5t-17 58t-17 52t-14.5 33.5q-8 16 -40 26q0 14 4 25q44 -4 121 -4q64 -1 93 -1l88 1q46 0 79 4q4 -7 4 -15l-1 -10q-21 -7 -35 -26 q-34 -46 -149 -248l90 -324l135 303q94 210 109 288q-16 4 -68 4q-1 4 -1 9q0 9 4 18q60 -3 93 -3q48 0 95 8q3 -9 3 -11l-3 -14q-23 -9 -44 -30q-19 -20 -51.5 -77t-48.5 -92l-248 -543h-23l-102 371l-195 -371h-15l-144 519q-45 162 -68 192q-14 18 -58 31zM492 693 q0 -73 48 -230q90 183 101 230q-1 0 -12.5 0.5t-28.5 1.5t-32 1q-18 0 -47 -2z" />
<glyph unicode="X" horiz-adv-x="708" d="M13 8l2 9q65 54 181 195l116 139q-6 13 -30.5 70.5t-40.5 94.5q-42 93 -77 139q-22 26 -39.5 35.5t-57.5 12.5q-3 5 -3 12q0 9 4 14q16 -1 41 -1q17 0 51.5 2.5t55.5 2.5q5 0 19 -17.5t37 -56.5t45 -88q46 -102 68 -154l71 88q50 61 70 89.5t55 92.5q-45 2 -84 2 q-1 6 -1 14q0 9 4 17h92q56 0 119 8q4 -10 4 -15l-2 -10q-45 -24 -90.5 -66.5t-111.5 -121.5l-111 -136q18 -45 79 -178q75 -162 132 -169q16 -1 53 -1q1 -4 1 -14q0 -7 -2 -17q-32 -2 -65.5 -7t-54.5 -9t-26 -4q-9 0 -24.5 16.5t-39.5 55.5t-49 94q-52 110 -76 170l-47 -57 q-94 -116 -149 -226q44 -2 77 -2q2 -6 2 -14q0 -12 -4 -17h-91q-36 0 -97 -8q-6 7 -6 16z" />
<glyph unicode="Y" horiz-adv-x="588" d="M0 712q0 9 4 17q3 0 21 -0.5t26 -0.5q12 0 42 2.5t47 2.5q5 0 20.5 -19t36.5 -54.5t42 -79.5t39.5 -100.5t26.5 -110.5q31 88 76 184q44 92 87 137.5t77 45.5q16 0 31.5 -7t23.5 -15l8 -7q-15 -46 -43 -75q-14 13 -22.5 17t-23.5 4q-26 0 -60 -43.5t-64 -109.5 q-73 -163 -80 -280q-3 -40 -3 -107q0 -15 0.5 -41.5t0.5 -36.5q37 -7 92 -7q0 -20 -2 -31q-29 0 -75.5 1.5t-56.5 1.5q-104 0 -174 -8q-2 4 -2 13l1 12q65 8 90.5 27.5t34.5 51.5q15 60 15 159q0 102 -45 213.5t-100 187.5q-19 26 -36 35.5t-54 11.5q-1 4 -1 9z" />
<glyph unicode="Z" horiz-adv-x="679" d="M21 7q0 5 2 9l490 665h-120q-161 0 -236 -25l-49 -119q-5 -1 -12 -1q-8 0 -17 7l30 169q2 11 19 11q7 0 100 -1.5t149 -1.5h55q110 0 200 13q8 -6 8 -17l-1 -9l-492 -667q75 5 158 5q167 0 211 32q35 26 71 108q4 2 9 2q13 0 24 -10q-29 -99 -43 -161q-1 -4 -3 -7 t-5.5 -4.5t-6.5 -2.5t-8.5 -1h-9.5h-11.5h-12.5q-60 0 -83 2q-86 2 -165 2q-127 0 -244 -17q-7 10 -7 19z" />
<glyph unicode="[" horiz-adv-x="300" d="M60 -188q21 107 49 443l15 168q28 342 28 442q5 10 15 10q72 -33 157 -47q3 -4 3 -12q0 -7 -6 -15l-66 -6q-26 -4 -34 -21.5t-12 -57.5q-2 -30 -12.5 -144.5t-12.5 -132.5l-17 -200q-24 -283 -24 -298q0 -32 5.5 -43t27.5 -15l64 -7q3 -5 3 -13l-6 -14q-90 -14 -165 -46 q-4 0 -7 2.5t-4 4.5z" />
<glyph unicode="\" horiz-adv-x="331" d="M41 868q34 15 51 28q3 1 8 1l11 -5q4 -75 84 -505l89 -460q-6 -3 -16.5 -9t-19 -11t-15.5 -10q-2 -1 -6 -1l-12 5q-5 75 -78 468z" />
<glyph unicode="]" horiz-adv-x="328" d="M0 -139q0 5 5 15q44 4 67 7q25 3 33 20.5t12 57.5q6 82 26 278l17 200q24 274 24 297q0 32 -5.5 43.5t-27.5 15.5l-64 6q-3 6 -3 14l5 13q86 14 166 47q4 0 7 -2.5t4 -4.5l1 -3q-24 -121 -50 -442l-14 -168q0 -3 -6 -73t-10 -121t-8 -125t-4 -124q-6 -9 -15 -9 q-69 32 -157 46q-3 4 -3 12z" />
<glyph unicode="^" horiz-adv-x="489" d="M23 368q203 359 284 488h28q39 -146 114 -491q-18 -17 -40 -17l-104 400l-249 -400q-19 0 -33 20z" />
<glyph unicode="_" horiz-adv-x="569" d="M0 -91q10 22 17 48h271q159 0 273 10q8 -3 8 -16q-12 -22 -17 -48h-267q-162 0 -277 -8q-8 4 -8 14z" />
<glyph unicode="`" d="M189 745q12 40 54 50q31 -45 75 -96t73 -79l29 -28q-3 -11 -16 -19q-139 92 -215 172z" />
<glyph unicode="a" horiz-adv-x="537" d="M40 125q0 97 43.5 174t108.5 126q32 24 69.5 42t56.5 24t30 8q67 7 71 9l52 20q5 0 12 -7q-44 -238 -59 -368q-1 -9 -1 -26q0 -59 18 -59q4 0 63 21q9 -7 9 -24q-33 -14 -61 -29t-39.5 -23.5t-28 -22t-17.5 -14.5l-16 7q-11 16 -11 72q0 58 20 170q-129 -206 -231 -245 q-37 7 -63 45t-26 100zM117 160q0 -100 50 -100q47 0 123 105.5t97 205.5l17 82q-67 0 -107 -5q-56 -7 -118 -91.5t-62 -196.5z" />
<glyph unicode="b" horiz-adv-x="529" d="M44 -9q13 44 31 181l48 377q25 192 25 218q0 40 -31 41l-62 3q-3 6 -3 12l3 13q92 14 170 40q10 0 12 -9q-20 -139 -82 -614q111 229 221 256q47 -6 77.5 -50t30.5 -108q0 -84 -24 -152.5t-58 -107.5t-73.5 -65.5t-67 -36t-42.5 -9.5q-17 0 -59 10t-48 10l-51 -21 q-5 1 -9.5 4t-5.5 5zM136 61q22 -9 53.5 -16.5t51.5 -10.5t26 -3q50 0 94 86.5t44 195.5q0 53 -17.5 84.5t-47.5 31.5q-33 0 -77.5 -50.5t-78.5 -120t-40 -122.5z" />
<glyph unicode="c" horiz-adv-x="409" d="M45 139q0 83 25 151.5t59 107.5t73.5 65.5t65 36t36.5 9.5q14 0 89 -13q0 -5 -1.5 -15.5t-9 -29t-18.5 -31.5q-78 39 -109 39q-42 0 -85 -86t-43 -198q0 -55 21 -94.5t55 -39.5q62 0 150 60q10 -3 14 -20l-122 -80q-26 -21 -80 -21q-59 0 -89.5 47t-30.5 112z" />
<glyph unicode="d" horiz-adv-x="549" d="M47 129q0 85 28 155t66.5 110t82.5 67.5t72.5 37.5t39.5 10q13 0 73 -10q2 19 12 90t15 114t5 64q0 22 -6.5 30.5t-21.5 10.5l-65 3q-3 12 -3 13q0 3 3 12q95 14 171 40q7 0 12 -9l-67 -494q-23 -163 -23 -238q0 -67 20 -67q3 0 14 4t26 9.5t22 7.5q9 -6 9 -24 q-88 -35 -147 -89l-17 8q-9 58 -9 100q0 41 10 141q-121 -203 -240 -245q-37 5 -59.5 47t-22.5 102zM125 169q0 -51 12.5 -80t33.5 -29q35 0 86 52.5t91 126.5t47 132l8 66q-21 6 -49 11.5t-45.5 8t-21.5 2.5q-57 0 -109.5 -93.5t-52.5 -196.5z" />
<glyph unicode="e" horiz-adv-x="409" d="M43 152q0 112 61.5 210t167.5 147q57 0 88 -21.5t31 -76.5q0 -83 -112 -156q-74 -50 -155 -63q0 -67 19.5 -109t56.5 -42q61 0 151 60q11 -2 13 -20l-121 -80q-31 -21 -80 -21q-60 0 -90 48t-30 124zM125 215q67 16 120 61q64 57 64 109q0 83 -57 83q-34 0 -77 -83 t-50 -170z" />
<glyph unicode="f" horiz-adv-x="289" d="M-176 -356q10 49 40 73q30 -22 61 -37t47 -15q26 0 54 65.5t39 162.5l62 555l-70 -1q-6 3 -6 10q8 19 12 36h68l13 98q9 67 34.5 118.5t54 79t61 44.5t52 22t30.5 5q52 0 113 -39q-13 -54 -53 -73q-28 29 -57 49t-44 20q-33 0 -71.5 -65t-46.5 -136l-14 -123q50 0 113 4 q7 -2 7 -12q-9 -16 -12 -36h-114l-53 -518q-8 -82 -31.5 -143.5t-49.5 -92t-56 -49t-46 -22.5t-26 -4q-47 0 -111 24z" />
<glyph unicode="g" horiz-adv-x="499" d="M-40 -259q0 34 24.5 70t84.5 97.5t86 91.5q-112 22 -112 139q0 73 29.5 138.5t75 109.5t94 73t93.5 39q84 13 92 17l42 24q9 -1 12 -9l-14 -62q-15 -67 -40 -249q-15 -111 -15 -220v-85q0 -88 -44 -157.5t-106.5 -103.5t-126.5 -34q-80 0 -127.5 29.5t-47.5 91.5z M39 -232q0 -40 32 -70t108 -30q164 0 164 228q0 16 -1.5 58t-1.5 69q0 91 13 189q-21 -41 -75.5 -108.5t-106 -124.5t-92 -117t-40.5 -94zM120 168q0 -44 15 -70.5t60 -26.5q23 0 62.5 48.5t76 121t49.5 134.5l17 78q-60 0 -117 -5q-54 -5 -108.5 -96.5t-54.5 -183.5z" />
<glyph unicode="h" horiz-adv-x="547" d="M51 -20l73 569q25 196 25 218q0 21 -7 30t-23 11q-31 3 -63 3q0 1 -1 3.5t-1.5 4.5t-0.5 4l3 13q92 13 171 40q8 0 12 -9l-86 -627q103 230 220 269q96 0 96 -129q0 -49 -16.5 -144.5t-16.5 -112.5q0 -20 1 -29t5.5 -15t13.5 -6q4 0 49 16q4 -3 6.5 -9t2.5 -10l1 -5 q-75 -30 -147 -89l-16 7q-3 14 -3 46q0 58 21 168t21 143q0 89 -48 89t-119.5 -107.5t-82.5 -208.5l-12 -113z" />
<glyph unicode="i" horiz-adv-x="272" d="M39 412q36 20 80 51.5t66 52.5l18 -5q1 -12 1 -32q0 -74 -23.5 -202.5t-23.5 -164.5q0 -44 15 -44q9 0 64 21q9 -6 9 -24q-90 -37 -149 -89l-16 7q-8 16 -8 61q0 48 23.5 163.5t23.5 160.5q0 41 -18 41q-13 0 -53 -21q-9 9 -9 24zM169 737q23 37 68 52q35 -31 35 -64 q0 -15 -24 -32.5t-45 -17.5q-15 42 -34 62z" />
<glyph unicode="j" horiz-adv-x="253" d="M-75 -364l46 44q36 36 55.5 89.5t33.5 157.5l45 337q10 70 10 95q0 50 -20 50q-11 0 -51 -21q-4 2 -8 10.5t-4 13.5q35 19 78.5 51t65.5 53l17 -5q3 -23 3 -48q0 -32 -3.5 -68.5t-10.5 -89t-9 -65.5l-37 -296q-13 -105 -38 -159.5t-85 -104.5l-74 -63q-14 3 -14 19z M148 737q23 37 68 52q35 -31 35 -64q0 -15 -24.5 -32.5t-45.5 -17.5q-16 44 -33 62z" />
<glyph unicode="k" horiz-adv-x="492" d="M51 -20l73 569q25 196 25 218q0 21 -7 30t-23 11q-29 3 -63 3q0 1 -1 3.5t-1.5 4.5t-0.5 4l3 13q92 13 171 40q8 0 12 -9l-83 -612q101 212 217 254q90 -14 90 -93q0 -59 -36 -108t-94 -73q0 -37 23 -110t51 -73q6 0 45 15q8 -7 8 -24q-80 -30 -116 -66l-19 7 q-21 40 -43 118t-26 133q61 24 94.5 68.5t33.5 83.5q0 21 -9.5 34.5t-26.5 13.5q-39 0 -86.5 -56.5t-80 -126.5t-37.5 -115l-15 -137z" />
<glyph unicode="l" horiz-adv-x="260" d="M56 823l3 13q92 14 170 40q10 0 12 -9l-42 -314q-3 -19 -14.5 -102t-16.5 -122t-10.5 -98t-5.5 -96q0 -66 20 -66q4 0 64 22q9 -7 9 -24q-77 -31 -149 -91l-17 8q-8 39 -8 92q0 77 10 149l44 324q27 197 27 218q0 40 -31 41q-29 3 -62 3q-3 6 -3 12z" />
<glyph unicode="m" horiz-adv-x="797" d="M24 412q75 41 140 104l17 -5q4 -27 4 -63q0 -50 -17 -203q86 223 197 264q87 0 87 -129q0 -48 -15 -132q89 223 196 261q87 0 87 -129q0 -49 -16.5 -144.5t-16.5 -112.5q0 -20 1 -29t5.5 -15t13.5 -6q15 0 49 16q9 -7 9 -24q-33 -13 -60.5 -28t-44 -26.5t-47.5 -34.5 l-16 7q0 83 23 204t23 153q0 89 -43 89q-27 0 -66.5 -49t-72 -125t-40.5 -143l-13 -117l-76 -15q44 304 44 357q0 92 -44 92q-27 0 -66.5 -48.5t-72 -124t-40.5 -143.5l-13 -118l-76 -15l37 273q8 64 8 91q0 65 -26 65q-7 0 -47 -21q-12 10 -12 24z" />
<glyph unicode="n" horiz-adv-x="556" d="M24 412q75 41 140 104l17 -5q4 -27 4 -63q0 -31 -3 -65t-9.5 -82t-7.5 -61q103 230 219 269q95 0 95 -129q0 -49 -17 -144.5t-17 -112.5q0 -29 3.5 -39.5t16.5 -10.5q14 0 50 16q9 -9 9 -24q-74 -30 -152 -89l-16 7q0 82 22.5 203.5t22.5 153.5q0 48 -12 68.5t-36 20.5 q-47 0 -117.5 -107t-82.5 -209l-13 -118l-76 -15l37 273q8 64 8 91q0 65 -26 65q-7 0 -47 -21q-12 10 -12 24z" />
<glyph unicode="o" horiz-adv-x="509" d="M45 168q0 110 59 199q45 67 112.5 104.5t100.5 37.5q63 0 105 -52.5t42 -137.5q0 -101 -45 -184q-22 -41 -55 -73.5t-64.5 -49t-56 -24.5t-38.5 -8q-65 0 -112.5 51.5t-47.5 136.5zM132 195q0 -170 103 -170q60 0 102.5 84.5t42.5 183.5q0 79 -24 124.5t-72 45.5 q-44 0 -79.5 -41t-54 -102t-18.5 -125z" />
<glyph unicode="p" horiz-adv-x="533" d="M-53 -348l1 12q41 5 56.5 21t22.5 47q22 101 53 331l25 190q8 52 8 91q0 69 -21 69q-9 0 -63 -21q-8 6 -8 24q78 42 138 100l17 -5q11 -36 11 -87q0 -39 -10 -131q107 180 215 216q45 -6 74 -50t29 -108q0 -80 -23.5 -144.5t-56 -101.5t-71 -62t-65.5 -34t-42 -9h-94 q-36 -257 -36 -293q0 -32 8 -32q24 -2 102 -2q3 -8 3 -17q0 -11 -3 -16h-154q-64 0 -112 -4q-4 7 -4 16zM149 61q59 -10 135 -10q48 0 90 80.5t42 181.5q0 53 -17 84.5t-46 31.5q-43 0 -101 -72t-80 -148q-17 -78 -23 -148z" />
<glyph unicode="q" horiz-adv-x="507" d="M40 125q0 97 43.5 174t108.5 126q32 24 69.5 42t56.5 24t30 8q67 7 71 9l52 20q5 0 12 -7q-30 -162 -44 -262q-66 -467 -66 -528q0 -57 59 -62q3 -6 3 -13q0 -8 -4 -13q-98 -4 -123 -6l-131 -10q-4 10 -4 17l3 16q80 6 99 9q9 2 48 270l42 286q-1 -2 -26.5 -37t-36 -49 t-37 -46t-44.5 -49t-43.5 -36t-48.5 -28q-37 7 -63 45t-26 100zM117 160q0 -100 50 -100q47 0 123 105.5t97 205.5l17 82q-67 0 -107 -5q-56 -7 -118 -91.5t-62 -196.5z" />
<glyph unicode="r" horiz-adv-x="395" d="M24 412q75 41 140 104l17 -5q6 -35 6 -72q0 -45 -7 -103q65 132 144 173q46 0 84 -14q-8 -32 -15.5 -73.5t-10.5 -67.5l-3 -25q-6 -2 -15 -2q-7 0 -15 2l-9 91q-15 9 -39 9q-33 0 -76.5 -66.5t-55.5 -127.5q-16 -95 -29 -240l-76 -15l37 273q8 64 8 91q0 65 -26 65 q-7 0 -47 -21q-12 10 -12 24z" />
<glyph unicode="s" horiz-adv-x="423" d="M20 16l43 136q13 0 24 -7q-3 -12 -3 -61q0 -23 1 -31q24 -36 102 -36q32 0 57 24.5t25 62.5q0 29 -19.5 57.5t-47.5 52t-55.5 47.5t-47 54t-19.5 62q0 65 50 100.5t122 35.5q70 0 132 -26q-17 -49 -29 -122q-4 -1 -12 -1q-11 0 -12 3l-8 86q-35 26 -96 26q-75 0 -75 -72 q0 -26 31.5 -62.5t70 -68t70 -72.5t31.5 -76q0 -63 -52.5 -105.5t-126.5 -42.5q-40 0 -87 11.5t-69 24.5z" />
<glyph unicode="t" horiz-adv-x="311" d="M41 457q11 21 14 36h66q10 0 17 49.5t7 70.5q38 15 79 62q11 0 17 -6q-24 -105 -34 -176q44 0 97 6q7 -5 7 -12q-10 -15 -15 -38h-97l-30 -180q-17 -104 -17 -158q0 -30 19 -30q31 0 102 26q8 -11 8 -30q-68 -28 -101 -45.5t-92 -55.5l-16 7q-4 16 -4 52q0 71 26.5 232 t26.5 172q0 9 -6 9q-32 0 -68 -1q-6 3 -6 10z" />
<glyph unicode="u" horiz-adv-x="552" d="M35 412q68 49 130 104l18 -5q4 -32 4 -52q0 -44 -19 -155t-19 -141q0 -103 43 -103q53 0 122 116t91 232l16 85l74 12q-60 -351 -60 -381q0 -56 13 -56q12 0 64 21q9 -6 9 -24q-47 -19 -74 -37t-66 -52l-16 7q-6 20 -6 61q0 86 21 208q-36 -90 -93.5 -168.5 t-122.5 -103.5q-39 0 -65.5 32t-26.5 97q0 53 18.5 159t18.5 148q-3 0 -13.5 -5t-26 -12.5t-22.5 -10.5q-4 4 -7 10t-4 10z" />
<glyph unicode="v" horiz-adv-x="431" d="M11 396q13 14 114 125l16 -1q13 -27 22 -64t11.5 -61.5t6 -71.5t4.5 -59l10 -199q82 77 121 150t39 124q0 74 -51 102q24 53 69 74q42 -25 42 -84q0 -105 -68.5 -222t-203.5 -229h-14q-12 216 -24 325q-11 107 -29 107q-3 0 -10 -5t-20 -16t-18 -15q-14 5 -17 20z" />
<glyph unicode="w" horiz-adv-x="713" d="M20 396q14 15 56.5 61t58.5 64l16 -1q11 -22 18 -46.5t11.5 -56.5t6.5 -50t4.5 -56t3.5 -47l9 -199q83 90 119 168.5t36 174.5q0 30 -23 72q8 6 30 19t34 22l16 -1q24 -48 40.5 -132.5t22.5 -146.5t14 -176q146 145 146 270q0 76 -56 106q21 53 65 74q24 -14 34.5 -36 t10.5 -63q0 -223 -248 -436h-13q-24 221 -43 331q-53 -170 -237 -331h-13q-14 227 -24 325q-11 107 -30 107q-2 0 -48 -36q-11 4 -17 20z" />
<glyph unicode="x" horiz-adv-x="479" d="M-16 9q14 45 45 75q19 -21 38 -21q30 0 61.5 39t71.5 111q-79 191 -92 191q-6 0 -56 -41q-5 1 -9.5 6t-6.5 9l-1 5q66 68 109 128l16 -2q17 -32 87 -208q53 99 97 153.5t92 54.5q28 0 59 -29q-16 -46 -47 -75q-19 22 -40 22q-36 0 -70.5 -41.5t-77.5 -118.5 q82 -204 109 -204q2 0 72 28q4 -3 7 -9t4 -10v-5q-84 -46 -132 -87h-16q-37 60 -91 199q-51 -96 -90 -147.5t-82 -51.5q-28 0 -57 29z" />
<glyph unicode="y" horiz-adv-x="419" d="M-207 -300q3 17 16 27q26 -14 40 -14q114 0 302 219q-4 29 -12 88q-13 99 -20 149.5t-19 117.5t-22.5 96t-22.5 29q-6 0 -44 -36q-14 4 -16 20q64 77 100 125l18 -1q50 -83 98 -513q57 81 92.5 175t35.5 166q0 39 -13 59t-37 34q28 55 68 74q46 -23 46 -79 q0 -91 -48 -222t-140 -253q-81 -106 -157.5 -175.5t-176.5 -137.5q-4 1 -16.5 9t-33 20.5t-38.5 22.5z" />
<glyph unicode="z" horiz-adv-x="421" d="M0 4q25 19 51 51t54.5 73t37.5 53q35 45 74.5 99.5t64 87.5t41.5 52q-42 8 -110 8q-95 0 -110 -24q-9 -14 -23 -48q-17 0 -27 8q23 116 24 136q44 -7 151 -7q125 0 183 6q4 -3 6.5 -7.5t2.5 -7.5l1 -4q-78 -79 -224 -287q-80 -116 -81 -118q13 1 27 1q25 0 76 -13.5 t77 -13.5q35 0 45 18l38 64q13 0 24 -7q-27 -81 -35 -132q-36 -15 -59 -15q-33 0 -91.5 14t-98.5 14q-46 0 -108 -17q-4 2 -7 6t-4 7v3z" />
<glyph unicode="{" horiz-adv-x="325" d="M73 359q28 27 46.5 64t25.5 64t19 82q49 227 68 295l116 39q11 -6 11 -26q-46 -26 -68 -45q-19 -16 -43 -153t-33 -247q-23 -33 -88 -73q25 -18 43.5 -38.5t23.5 -32.5l6 -12q-8 -101 -8 -240q0 -179 16 -196q9 -9 23 -20t23 -17l10 -6q0 -7 -3 -13.5t-6 -9.5l-3 -2 l-111 41q-5 62 -14 335q-2 55 -4.5 83.5t-14.5 66t-35 61.5z" />
<glyph unicode="|" horiz-adv-x="284" d="M56 -415q14 70 48 483l60 772q27 6 49 16q4 0 7.5 -2t5.5 -4l1 -3q-15 -75 -48 -483l-60 -772q-27 -6 -50 -16q-4 0 -7 2t-4 4z" />
<glyph unicode="}" horiz-adv-x="360" d="M-7 -201q47 25 70 48q19 18 45.5 166t35.5 263q24 43 88 83q-25 18 -43 36t-24 27l-6 10q9 108 9 227q0 157 -16 174q-9 9 -23 20t-23 17l-10 7q0 8 3 14.5t6 8.5l3 3l108 -39q11 -114 17 -295q2 -57 4 -82.5t14.5 -63t35.5 -64.5q-28 -24 -46.5 -61.5t-26 -66 t-18.5 -83.5q-42 -215 -73 -335l-119 -40q-11 10 -11 26z" />
<glyph unicode="~" horiz-adv-x="605" d="M40 355q13 9 38.5 25.5t38.5 25t30.5 18.5t29 14.5t20.5 4.5q13 0 31 -3.5t47.5 -12t48.5 -12.5q65 -20 124 -20q17 0 31.5 3t22 6t25 11t26.5 12q12 -12 12 -24q-12 -8 -36.5 -25t-37 -25t-29.5 -18.5t-28.5 -15t-20.5 -4.5q-18 0 -130 28q-72 20 -124 20 q-17 0 -31.5 -3t-23 -6.5t-25 -11t-27.5 -11.5q-12 12 -12 24z" />
<glyph unicode="&#xa1;" horiz-adv-x="232" d="M5 -275q4 21 18 84t23 110t24 142.5t29 209.5q1 9 10.5 17t26.5 9q-1 -99 -10 -207t-17.5 -179.5t-8.5 -85.5t13 -14l27 9q5 -4 8 -10.5t4 -11.5l1 -5q-3 -2 -67 -39t-66 -38q-5 0 -8.5 2.5t-5.5 4.5zM84 451q0 17 26 37.5t49 20.5q17 -48 37 -73q-24 -40 -73 -59 q-39 37 -39 74z" />
<glyph unicode="&#xa2;" horiz-adv-x="399" d="M45 143q0 78 18.5 142.5t49 106.5t59.5 67.5t61 43.5l11 112q15 3 33 10q5 0 10 -6q-7 -34 -14 -99q11 4 18 4q14 0 84 -13q0 -46 -27 -79q-46 25 -80 35l-37 -420q43 11 106 58q11 -6 12 -21l-122 -88l-11 -117q-7 -2 -32 -11q-3 0 -6 2t-4 4l-1 1q8 57 14 108 q-12 -3 -28 -3q-56 0 -85 48t-29 115zM121 180q0 -56 20 -96.5t52 -40.5q38 399 38 426q-39 -16 -74.5 -100t-35.5 -189z" />
<glyph unicode="&#xa3;" horiz-adv-x="459" d="M27 9q37 28 56 81t28 154q-17 0 -48 -3q-6 3 -6 12q10 18 12 32h44q5 49 24.5 91.5t43 68.5t49 45t43 26.5t24.5 7.5q30 0 65.5 -9t53.5 -18q-5 -12 -24 -110q-5 -4 -13 -4t-12 2q0 4 -8 76q-24 28 -75 28q-31 0 -60 -54.5t-41 -149.5q88 0 142 7q6 -1 6 -12 q-5 -8 -12 -35h-139l-3 -22q-16 -113 -64 -174q32 -2 99 -2q62 0 111 18q31 68 38 86q4 1 8 1q12 0 19 -9q-21 -95 -25 -118q-4 -21 -10 -22q-22 -6 -98 -6q-21 0 -50.5 1t-31.5 1h-33q-71 0 -108 -10q-2 3 -3.5 8t-1.5 9v3z" />
<glyph unicode="&#xa4;" horiz-adv-x="560" d="M51 55l2 5q38 21 104 85q-21 37 -21 82q0 69 39 125l-64 76q19 21 38 53q2 2 4 2l4 -2q12 -35 54 -97q39 25 101 36q43 0 79 -28l78 91q19 -19 46 -31q1 -1 1 -4l-3 -5q-30 -19 -94 -83q22 -36 22 -81q0 -81 -44 -128l76 -82q-16 -18 -37 -56q-1 -1 -4 -1l-4 1 q-14 40 -68 107q-40 -25 -95 -33q-45 0 -80 26l-89 -94q-18 17 -44 32q-1 1 -1 4zM196 239q0 -46 20 -74.5t59 -28.5q57 0 80.5 42t23.5 99q0 41 -18.5 67.5t-56.5 26.5q-53 0 -80.5 -37.5t-27.5 -94.5z" />
<glyph unicode="&#xa5;" horiz-adv-x="524" d="M27 495q0 6 2 14q23 0 59 2t43 2t33 -36t57.5 -95t46.5 -111q106 242 179 242q13 0 25.5 -5.5t18.5 -11.5l6 -5q-17 -30 -37 -51q-2 2 -5 4.5t-4.5 3.5t-3.5 3t-3.5 2.5t-4 1.5t-5.5 1h-6q-38 0 -112 -145q60 0 127 6q6 -2 6 -12q-12 -24 -13 -34h-137q-19 -48 -22 -76 q66 0 140 6q7 -2 7 -12q-12 -20 -13 -34h-138q-2 -42 -2 -122q21 -5 68 -5q1 -7 1 -12l-4 -19q-20 0 -56 1.5t-43 1.5q-69 0 -126 -8q-2 7 -2 15l3 10q27 4 45 11t26.5 16.5t12 16.5t5.5 18q7 29 8 76q-53 0 -148 -7q-6 4 -6 12q10 19 13 35h143q0 28 -16 76q-29 0 -108 -7 q-7 4 -7 12q11 18 13 35h83q-24 47 -84 140q-12 17 -24 23.5t-40 8.5q-1 2 -1 12z" />
<glyph unicode="&#xa6;" horiz-adv-x="284" d="M61 -415l50 567q24 7 45 16q4 0 7 -2t4 -4l1 -3q-12 -67 -57 -551zM124 300l47 540q36 10 49 16q4 0 7 -2t4 -4l1 -3q-19 -96 -56 -524z" />
<glyph unicode="&#xa7;" horiz-adv-x="627" d="M25 -176l52 171q20 0 34 -8q-6 -54 -6 -92q0 -9 3 -36q19 -30 83 -30q50 0 89.5 49.5t39.5 117.5q0 42 -23 86t-55.5 83t-64.5 80t-55 91.5t-23 102.5q0 117 97.5 207t219.5 90q80 0 151 -21q-22 -84 -38 -203q-8 -3 -18 -3t-18 4q0 21 -3 91.5t-6 83.5q-35 7 -45 7 q-56 0 -97.5 -42.5t-41.5 -107.5q0 -39 23 -78t56 -75.5t66 -76t56 -95t23 -117.5q0 -133 -94 -226.5t-222 -93.5q-46 0 -102 13t-81 28zM169 467q0 -47 23 -96t55.5 -91t65.5 -83.5t56 -88t23 -89.5q0 -50 -18 -88t-55 -80q62 28 99 88t37 136q0 60 -23.5 112t-56.5 89.5 t-66 73t-56.5 79t-23.5 91.5q0 66 56 140q-52 -33 -84 -82.5t-32 -110.5z" />
<glyph unicode="&#xa8;" d="M159 677q21 36 68 52q34 -31 34 -64q0 -15 -24 -32.5t-45 -17.5q-16 44 -33 62zM332 677q23 37 68 52q35 -31 35 -64q0 -15 -24.5 -32.5t-45.5 -17.5q-16 44 -33 62z" />
<glyph unicode="&#xa9;" horiz-adv-x="869" d="M60 357q0 158 109.5 268.5t265.5 110.5t265 -110.5t109 -268.5q0 -157 -109 -267.5t-265 -110.5t-265.5 110.5t-109.5 267.5zM113 357q0 -138 95 -235.5t227 -97.5t226.5 97.5t94.5 235.5t-94.5 236t-226.5 98t-227 -98t-95 -236zM233 355q0 57 20.5 102t48.5 68.5 t61.5 39t54 19.5t30.5 4q61 0 139 -24q-6 -24 -15 -112q-12 -3 -13 -3q-7 0 -14 2q0 3 -14 72q-46 25 -108 25q-46 0 -79 -49.5t-33 -111.5q0 -80 35.5 -138t105.5 -58q47 0 128 34q7 -6 7 -17l-84 -60l-3 -2q-4 -1 -8.5 -3t-12 -4t-14.5 -4t-16 -3t-17 -1q-97 0 -148 64 t-51 160z" />
<glyph unicode="&#xaa;" horiz-adv-x="343" d="M53 525q0 103 87 164q45 33 89 40q30 0 42 6l28 10q4 0 6 -4q-32 -187 -32 -214q0 -26 7 -26q6 0 36 14q7 -5 7 -18q-57 -27 -91 -52l-12 2q-7 8 -7 37q0 30 10 81q-49 -88 -119 -118q-20 3 -35.5 24.5t-15.5 53.5zM111 544q0 -53 22 -53q17 0 56 58t52 111l10 41 q-38 0 -54 -2q-27 -4 -56.5 -49t-29.5 -106z" />
<glyph unicode="&#xab;" horiz-adv-x="503" d="M53 241l2 14q141 111 220 192q7 -1 12.5 -5.5t6.5 -9.5l2 -4l-157 -183l102 -197q-8 -15 -26 -16q-68 110 -162 209zM209 241l2 14q141 111 220 192q7 -1 12.5 -5.5t6.5 -9.5l2 -4l-157 -183l102 -197q-8 -15 -26 -16q-68 110 -162 209z" />
<glyph unicode="&#xac;" horiz-adv-x="491" d="M40 297q10 24 17 51h387l-5 -52q-7 -61 -7 -157q-5 -10 -15 -10q-21 9 -46 14l13 148h-193q-64 0 -144 -8q-7 4 -7 14z" />
<glyph unicode="&#xad;" horiz-adv-x="347" d="M24 227q10 21 17 48h143q64 0 123 9q8 -4 8 -16q-14 -26 -18 -47h-142q-64 0 -123 -9q-8 4 -8 15z" />
<glyph unicode="&#xae;" horiz-adv-x="551" d="M33 499q0 105 71 177t175 72q103 0 174 -72t71 -177q0 -104 -71 -175.5t-174 -71.5t-174.5 71.5t-71.5 175.5zM81 499q0 -84 58.5 -145t139.5 -61t139.5 61t58.5 145q0 85 -58.5 146.5t-139.5 61.5t-139.5 -61.5t-58.5 -146.5zM168 385l1 10q22 6 26 28q2 17 2 78 q0 59 -1 82q0 29 -4 29q-4 3 -19 3q-1 4 -1 9q0 4 1 7h104q94 0 94 -70q0 -53 -56 -69q9 -26 18 -43q18 -29 27 -37.5t19 -8.5h16q4 -6 4 -12q0 -7 -2 -10q-16 -1 -31.5 -2.5t-24 -2.5t-10.5 -1q-4 0 -14.5 21.5t-24 53.5t-16.5 38h-7q-17 0 -28 1v-49q0 -27 2 -37 q8 -4 30 -4q2 -6 2 -12q0 -7 -2 -10h-102q-3 0 -3 8zM241 512q4 -1 26 -1q24 0 40 12.5t16 33.5q0 23 -11.5 37t-35.5 14q-21 0 -32 -1q-3 -26 -3 -95z" />
<glyph unicode="&#xaf;" horiz-adv-x="624" d="M143 607q13 23 21 45q215 0 312 7q7 -4 7 -16q-11 -16 -22 -44q-194 0 -312 -7q-6 4 -6 15z" />
<glyph unicode="&#xb0;" horiz-adv-x="412" d="M47 549q0 81 54 128.5t131 58.5q53 0 86.5 -36.5t33.5 -92.5q0 -81 -51 -127.5t-133 -60.5q-53 0 -87 36.5t-34 93.5zM113 567q0 -47 20.5 -76.5t58.5 -29.5q45 0 70.5 39t25.5 89q0 45 -19.5 74.5t-57.5 29.5q-45 0 -71.5 -36.5t-26.5 -89.5z" />
<glyph unicode="&#xb1;" horiz-adv-x="520" d="M55 7q4 10 16 48h217q87 0 171 9q6 -4 6 -16q-5 -9 -10 -26.5t-6 -21.5h-218q-85 0 -170 -8q-6 3 -6 15zM55 285q3 7 5.5 14.5t5.5 17.5t5 16h165q8 72 11 167q4 9 14 9q4 -2 47 -13l-19 -163q76 0 170 10q6 -4 6 -16q-5 -9 -10 -26.5t-6 -21.5h-166q-11 -92 -12 -164 q-3 -10 -14 -10q-12 6 -46 14l18 160q-69 0 -168 -8q-6 2 -6 14z" />
<glyph unicode="&#xb2;" horiz-adv-x="320" d="M33 321l103 116q83 93 83 154q0 22 -11.5 36t-32.5 14q-11 0 -59 -14l-13 -60q-3 -3 -12 -3t-14 3q-1 68 -1 76q1 5 7 8l104 32q43 0 70.5 -20t27.5 -64q0 -22 -12 -47.5t-23.5 -40.5t-34.5 -42l-100 -117h53q72 0 79 15l22 46q17 0 27 -6q-19 -45 -28 -95q-20 -9 -59 -9 q-5 0 -29.5 0.5t-36.5 0.5h-106q-4 8 -4 17z" />
<glyph unicode="&#xb3;" horiz-adv-x="323" d="M39 316q6 29 33 53q52 -42 76 -42q30 0 48.5 31t18.5 63q0 58 -84 74l85 132h-51q-24 0 -52 -4l-9 -44q-5 -3 -13 -3q-7 0 -12 3q1 82 2 92q0 5 6 5h122q42 0 75 5q5 -3 5 -13l-86 -133q76 -27 76 -99q0 -59 -46 -101t-101 -42q-54 0 -93 23z" />
<glyph unicode="&#xb4;" d="M279 592q108 101 177 203q41 -10 53 -50q-34 -36 -87.5 -79t-89.5 -68l-37 -25q-6 4 -10 8.5t-5 7.5z" />
<glyph unicode="&#xb6;" horiz-adv-x="839" d="M79 388q0 65 21 124.5t59.5 108t101 77.5t139.5 29q148 0 177 -2l-58 -657q-6 -67 -11 -97t-20.5 -70t-44.5 -80l25 12q100 49 116 235l29 345q13 153 24 307q6 0 61 -1t74 -2q3 -6 3 -17l-4 -19q-19 2 -32 2q-18 0 -23 -11q-13 -33 -28 -199l-35 -397 q-20 -226 -141 -275l-217 -88q-16 10 -16 30l1 12l63 32q20 10 35.5 28t26 44.5t18 50.5t12.5 59.5t7.5 56.5t5.5 55l52 604q-28 3 -52 3q-45 0 -79.5 -37.5t-52.5 -95.5t-26.5 -116t-8.5 -111q0 -164 71 -164h37q3 -5 3 -19l-5 -18h-27q-7 0 -28 -1.5t-33 -1.5 q-103 0 -161.5 72t-58.5 192z" />
<glyph unicode="&#xb7;" horiz-adv-x="159" d="M11 295q24 41 73 60q39 -37 39 -74q0 -17 -26 -37.5t-49 -20.5q-17 48 -37 72z" />
<glyph unicode="&#xb8;" horiz-adv-x="409" d="M31 -259l4 16q126 3 126 66q0 37 -73 60q-7 1 -7 8l4 20l30 89h36l-16 -68q39 -19 56.5 -38.5t17.5 -50.5q0 -38 -20.5 -67.5t-56.5 -43.5h-100q-1 3 -1 9z" />
<glyph unicode="&#xb9;" horiz-adv-x="237" d="M33 304q0 19 2 24q49 10 54 24q9 28 18 145l9 114l-60 -16q-11 9 -11 26q57 26 119 64q8 -2 13.5 -5.5t6.5 -5.5l1 -3q-14 -45 -25 -171l-15 -165q12 -3 44 -3q2 -4 2 -9q0 -7 -3 -19h-155z" />
<glyph unicode="&#xba;" horiz-adv-x="341" d="M47 551q0 64 36 108q28 35 69 56t63 21q37 0 61.5 -28.5t24.5 -74.5q0 -58 -26 -100q-25 -42 -66 -63t-64 -21q-40 0 -69 28t-29 74zM111 567q0 -87 53 -87q32 0 54 43.5t22 95.5q0 85 -49 85q-36 0 -58 -42t-22 -95z" />
<glyph unicode="&#xbb;" horiz-adv-x="503" d="M51 51l157 182l-103 198q8 14 27 16q60 -100 161 -210l-1 -13q-144 -115 -220 -192q-7 0 -12.5 5t-7.5 9zM207 51l157 182l-103 198q8 14 27 16q60 -100 161 -210l-1 -13q-144 -115 -220 -192q-7 0 -12.5 5t-7.5 9z" />
<glyph unicode="&#xbc;" horiz-adv-x="653" d="M53 304q0 19 2 24q49 10 54 24q9 28 18 145l9 114l-60 -16q-11 9 -11 26q57 26 119 64q8 -2 13.5 -5.5t6.5 -5.5l1 -3q-14 -45 -25 -171l-15 -165q12 -3 44 -3q2 -4 2 -9q0 -7 -3 -19h-155zM116 5l207 363q116 204 192 357q2 3 8 3q4 0 8 -3q4 -5 29 -30l-201 -354 q-20 -35 -100 -184t-95 -182q-2 -3 -8 -3q-4 0 -7 3q-4 5 -9.5 10t-12.5 11t-11 9zM345 108q27 28 34 39l178 246q13 0 23 -9q-10 -46 -19 -151l-9 -98q23 0 31 18l12 27q12 0 18 -7q-5 -18 -9 -44t-4 -28q-16 -8 -51 -8l-5 -62q11 -3 36 -3q1 -4 1 -9q0 -11 -2 -19h-140 q0 16 1 24q40 7 47 20q2 4 8 49l-82 2q-29 0 -62 -3q-6 8 -6 16zM413 135h84l14 141z" />
<glyph unicode="&#xbd;" horiz-adv-x="708" d="M53 304q0 19 2 24q49 10 54 24q9 28 18 145l9 114l-60 -16q-11 9 -11 26q57 26 119 64q8 -2 13.5 -5.5t6.5 -5.5l1 -3q-14 -45 -25 -171l-15 -165q12 -3 44 -3q2 -4 2 -9q0 -7 -3 -19h-155zM116 5l207 363q116 204 192 357q2 3 8 3q4 0 8 -3q4 -5 29 -30l-201 -354 q-20 -35 -100 -184t-95 -182q-2 -3 -8 -3q-4 0 -7 3q-4 5 -9.5 10t-12.5 11t-11 9zM385 17l103 116q83 93 83 154q0 22 -11.5 36t-32.5 14q-11 0 -59 -14l-13 -60q-3 -3 -12 -3t-14 3q-1 68 -1 76q1 5 7 8l104 32q43 0 70.5 -20t27.5 -64q0 -22 -12 -47.5t-23.5 -40.5 t-34.5 -42l-100 -117h53q72 0 79 15l22 46q17 0 27 -6q-19 -45 -28 -95q-20 -9 -59 -9q-5 0 -29.5 0.5t-36.5 0.5h-106q-4 8 -4 17z" />
<glyph unicode="&#xbe;" horiz-adv-x="685" d="M39 316q6 29 33 53q52 -42 76 -42q30 0 48.5 31t18.5 63q0 58 -84 74l85 132h-51q-24 0 -52 -4l-9 -44q-5 -3 -13 -3q-7 0 -12 3q1 82 2 92q0 5 6 5h122q42 0 75 5q5 -3 5 -13l-86 -133q76 -27 76 -99q0 -59 -46 -101t-101 -42q-54 0 -93 23zM148 5l207 363 q116 204 192 357q2 3 8 3q4 0 8 -3q4 -5 29 -30l-201 -354q-20 -35 -100 -184t-95 -182q-2 -3 -8 -3q-4 0 -7 3q-4 5 -9.5 10t-12.5 11t-11 9zM377 108q27 28 34 39l178 246q13 0 23 -9q-10 -46 -19 -151l-9 -98q23 0 31 18l12 27q12 0 18 -7q-5 -18 -9 -44t-4 -28 q-16 -8 -51 -8l-5 -62q11 -3 36 -3q1 -4 1 -9q0 -11 -2 -19h-140q0 16 1 24q40 7 47 20q2 4 8 49l-82 2q-29 0 -62 -3q-6 8 -6 16zM445 135h84l14 141z" />
<glyph unicode="&#xbf;" horiz-adv-x="383" d="M51 -56q0 36 15.5 66t46 53.5t55 38t61.5 31.5q-4 11 -12.5 54.5t-8.5 72.5q0 10 31 33t46 23q0 -32 16.5 -93.5t27.5 -81.5q-15 -9 -58 -27.5t-74 -34.5t-57.5 -46.5t-26.5 -67.5q0 -36 23.5 -74t52 -62t52 -43.5t23.5 -22.5q0 -10 -17 -45.5t-36 -56.5q-14 3 -24 15 q1 5 10 25q-80 70 -113 121t-33 122zM199 453q0 17 26 38t48 21q19 -50 38 -73q-25 -42 -74 -59q-38 36 -38 73z" />
<glyph unicode="&#xc0;" horiz-adv-x="673" d="M-27 8l2 9q48 14 72 44t76 136l240 491l6 28l52 17l119 -564q25 -109 39 -138q25 -3 46 -3q2 -3 2 -8q0 -11 -6 -23q-17 0 -59 1.5t-46 1.5q-68 0 -123 -8q-2 2 -2 11l2 14q41 9 56.5 22t15.5 37q0 16 -6 43l-32 150q-42 3 -106 3q-28 0 -65.5 -1.5t-54.5 -1.5l-30 -64 q-54 -112 -59 -176q20 -1 63 -1q1 -5 1 -12q0 -10 -4 -19q-20 0 -54.5 1.5t-40.5 1.5q-56 0 -101 -8q-3 12 -3 16zM216 308q4 0 43 -2t65 -2q58 0 96 3l-61 306zM221 889q15 36 47 54q40 -35 93.5 -72t86.5 -57l33 -19q0 -11 -10 -22q-158 56 -250 116z" />
<glyph unicode="&#xc1;" horiz-adv-x="673" d="M-27 8l2 9q48 14 72 44t76 136l240 491l6 28l52 17l119 -564q25 -109 39 -138q25 -3 46 -3q2 -3 2 -8q0 -11 -6 -23q-17 0 -59 1.5t-46 1.5q-68 0 -123 -8q-2 2 -2 11l2 14q41 9 56.5 22t15.5 37q0 16 -6 43l-32 150q-42 3 -106 3q-28 0 -65.5 -1.5t-54.5 -1.5l-30 -64 q-54 -112 -59 -176q20 -1 63 -1q1 -5 1 -12q0 -10 -4 -19q-20 0 -54.5 1.5t-40.5 1.5q-56 0 -101 -8q-3 12 -3 16zM216 308q4 0 43 -2t65 -2q58 0 96 3l-61 306zM329 795q123 69 214 148q32 -18 46 -54q-41 -27 -103 -56t-104 -45l-42 -15q-5 5 -7.5 10.5t-2.5 8.5z" />
<glyph unicode="&#xc2;" horiz-adv-x="673" d="M-27 8l2 9q48 14 72 44t76 136l240 491l6 28l52 17l119 -564q25 -109 39 -138q25 -3 46 -3q2 -3 2 -8q0 -11 -6 -23q-17 0 -59 1.5t-46 1.5q-68 0 -123 -8q-2 2 -2 11l2 14q41 9 56.5 22t15.5 37q0 16 -6 43l-32 150q-42 3 -106 3q-28 0 -65.5 -1.5t-54.5 -1.5l-30 -64 q-54 -112 -59 -176q20 -1 63 -1q1 -5 1 -12q0 -10 -4 -19q-20 0 -54.5 1.5t-40.5 1.5q-56 0 -101 -8q-3 12 -3 16zM216 308q4 0 43 -2t65 -2q58 0 96 3l-61 306zM239 779q105 90 178 165h12l84 -168q-8 -15 -22 -15l-86 100l-150 -100q-6 0 -10 4.5t-5 8.5z" />
<glyph unicode="&#xc3;" horiz-adv-x="673" d="M-27 8l2 9q48 14 72 44t76 136l240 491l6 28l52 17l119 -564q25 -109 39 -138q25 -3 46 -3q2 -3 2 -8q0 -11 -6 -23q-17 0 -59 1.5t-46 1.5q-68 0 -123 -8q-2 2 -2 11l2 14q41 9 56.5 22t15.5 37q0 16 -6 43l-32 150q-42 3 -106 3q-28 0 -65.5 -1.5t-54.5 -1.5l-30 -64 q-54 -112 -59 -176q20 -1 63 -1q1 -5 1 -12q0 -10 -4 -19q-20 0 -54.5 1.5t-40.5 1.5q-56 0 -101 -8q-3 12 -3 16zM216 308q4 0 43 -2t65 -2q58 0 96 3l-61 306zM245 819l58 48q26 21 42 21q26 0 69.5 -17.5t74.5 -17.5q22 0 62 30q13 -6 14 -19l-36 -31q-3 -2 -13 -10.5 t-14 -11.5t-11.5 -8.5t-13 -7.5t-10.5 -2q-24 0 -69.5 18t-74.5 18q-7 0 -13 -1.5t-14 -5.5t-11.5 -6t-13.5 -8.5t-11 -7.5q-15 6 -15 19z" />
<glyph unicode="&#xc4;" horiz-adv-x="673" d="M-27 8l2 9q48 14 72 44t76 136l240 491l6 28l52 17l119 -564q25 -109 39 -138q25 -3 46 -3q2 -3 2 -8q0 -11 -6 -23q-17 0 -59 1.5t-46 1.5q-68 0 -123 -8q-2 2 -2 11l2 14q41 9 56.5 22t15.5 37q0 16 -6 43l-32 150q-42 3 -106 3q-28 0 -65.5 -1.5t-54.5 -1.5l-30 -64 q-54 -112 -59 -176q20 -1 63 -1q1 -5 1 -12q0 -10 -4 -19q-20 0 -54.5 1.5t-40.5 1.5q-56 0 -101 -8q-3 12 -3 16zM216 308q4 0 43 -2t65 -2q58 0 96 3l-61 306zM264 853q23 37 68 52q35 -31 35 -64q0 -15 -24.5 -32.5t-45.5 -17.5q-16 44 -33 62zM437 853q23 37 68 52 q35 -31 35 -64q0 -15 -24 -32.5t-45 -17.5q-15 42 -34 62z" />
<glyph unicode="&#xc5;" horiz-adv-x="673" d="M-27 8l2 9q48 14 72 44t76 136l240 491l6 28l52 17l119 -564q25 -109 39 -138q25 -3 46 -3q2 -3 2 -8q0 -11 -6 -23q-17 0 -59 1.5t-46 1.5q-68 0 -123 -8q-2 2 -2 11l2 14q41 9 56.5 22t15.5 37q0 16 -6 43l-32 150q-42 3 -106 3q-28 0 -65.5 -1.5t-54.5 -1.5l-30 -64 q-54 -112 -59 -176q20 -1 63 -1q1 -5 1 -12q0 -10 -4 -19q-20 0 -54.5 1.5t-40.5 1.5q-56 0 -101 -8q-3 12 -3 16zM216 308q4 0 43 -2t65 -2q58 0 96 3l-61 306zM332 828q0 44 34 88t103 52q29 0 46.5 -19t17.5 -49q0 -44 -40 -85t-98 -47q-29 0 -46 16.5t-17 43.5zM381 843 q0 -44 32 -44t50 30t18 66q0 42 -32 42q-31 0 -49.5 -29.5t-18.5 -64.5z" />
<glyph unicode="&#xc6;" horiz-adv-x="964" d="M-27 8l2 9q50 14 80 44t100 136l328 495q-14 4 -62 4q-1 4 -1 9q0 9 4 18q19 0 52.5 -1.5t39.5 -1.5h179q41 0 124 3.5t90 3.5q14 0 14 -10q0 -2 -5 -25t-12.5 -65t-12.5 -83q-6 -3 -16 -3q-2 0 -14 3q-1 16 -2.5 46.5t-2.5 50.5t-3 27q-81 21 -175 21q-39 0 -64 -4 q-4 -8 -13 -66q-8 -58 -23 -227q15 -4 75 -4q63 0 100 5q46 5 58 40q15 0 24 -6q-12 -66 -18 -158q-8 -2 -11 -2l-15 4v76q-54 9 -138 9q-41 0 -79 -5l-16 -182q-5 -53 -5 -133q24 -4 62 -4q94 0 191 27q17 26 49 108q14 0 30 -8q-12 -42 -32 -144q-4 -11 -14 -12 q-40 -7 -105 -7q-35 0 -90 2t-63 2h-51q-92 0 -149 -8q-3 6 -3 13l1 12q32 7 51 22.5t24.5 28.5t10.5 36q12 54 25 179q-56 2 -101 2q-31 0 -71 -1t-60 -1l-49 -78q-76 -123 -91 -176q20 -1 63 -1q1 -5 1 -12q0 -10 -4 -19q-20 0 -58.5 1.5t-44.5 1.5q-56 0 -101 -8 q-3 12 -3 16zM283 321q60 -2 116 -2q70 0 97 1q25 260 25 363q-11 -12 -70.5 -102.5t-113.5 -174.5z" />
<glyph unicode="&#xc7;" horiz-adv-x="680" d="M55 283q0 115 55 219.5t150 169t205 64.5q107 0 196 -32q6 -5 6 -9t-5 -33t-11.5 -71t-9.5 -72q-7 -4 -18 -4q-8 0 -16 2q-6 111 -10 128q-20 21 -63 38t-83 17q-80 0 -148.5 -59.5t-106 -149.5t-37.5 -183q0 -54 11 -103t34.5 -91.5t64.5 -68t96 -25.5q105 0 211 137 q9 0 16 -5t10 -10l3 -5q-74 -118 -93 -124q-91 -29 -167 -33l-10 -48q39 -19 56.5 -38.5t17.5 -50.5q0 -38 -20.5 -67.5t-56.5 -43.5h-100q-1 3 -1 9l4 16q126 3 126 66q0 37 -73 60q-7 1 -7 8l4 20l23 70q-115 8 -184 93t-69 209z" />
<glyph unicode="&#xc8;" d="M19 5l1 12q32 7 50.5 22.5t24 28.5t10.5 36q20 87 35 281q20 250 20 274q0 34 -4 34q-17 3 -61 3q-2 4 -2 9q0 4 4 18q20 0 55 -1.5t41 -1.5h140q41 0 124.5 3.5t90.5 3.5q13 0 13 -10q0 -2 -5 -25t-12 -65t-12 -83q-7 -3 -16 -3q-3 0 -15 3q-5 113 -8 124 q-79 21 -174 21q-39 0 -64 -4q-8 -17 -14 -66q-6 -44 -22 -227q13 -4 74 -4q64 0 100 5q45 5 59 40q15 0 24 -6q-14 -74 -19 -158q-8 -2 -10 -2l-15 4v76q-54 9 -139 9q-43 0 -78 -5l-16 -182q-6 -63 -6 -133q25 -4 63 -4q94 0 191 27q7 11 14.5 26t12 26t11.5 29t11 27 q15 0 29 -8q-14 -50 -32 -144q-3 -11 -13 -12q-40 -7 -105 -7q-35 0 -90 2t-64 2h-50q-92 0 -150 -8q-2 8 -2 13zM208 889q16 37 47 54q40 -35 93.5 -72t86.5 -57l33 -19q0 -11 -11 -22q-157 56 -249 116z" />
<glyph unicode="&#xc9;" d="M19 5l1 12q32 7 50.5 22.5t24 28.5t10.5 36q20 87 35 281q20 250 20 274q0 34 -4 34q-17 3 -61 3q-2 4 -2 9q0 4 4 18q20 0 55 -1.5t41 -1.5h140q41 0 124.5 3.5t90.5 3.5q13 0 13 -10q0 -2 -5 -25t-12 -65t-12 -83q-7 -3 -16 -3q-3 0 -15 3q-5 113 -8 124 q-79 21 -174 21q-39 0 -64 -4q-8 -17 -14 -66q-6 -44 -22 -227q13 -4 74 -4q64 0 100 5q45 5 59 40q15 0 24 -6q-14 -74 -19 -158q-8 -2 -10 -2l-15 4v76q-54 9 -139 9q-43 0 -78 -5l-16 -182q-6 -63 -6 -133q25 -4 63 -4q94 0 191 27q7 11 14.5 26t12 26t11.5 29t11 27 q15 0 29 -8q-14 -50 -32 -144q-3 -11 -13 -12q-40 -7 -105 -7q-35 0 -90 2t-64 2h-50q-92 0 -150 -8q-2 8 -2 13zM244 795q123 69 213 148q31 -17 47 -54q-41 -27 -103 -56t-104 -45l-42 -15q-5 5 -7.5 10.5t-3.5 8.5v3z" />
<glyph unicode="&#xca;" d="M19 5l1 12q32 7 50.5 22.5t24 28.5t10.5 36q20 87 35 281q20 250 20 274q0 34 -4 34q-17 3 -61 3q-2 4 -2 9q0 4 4 18q20 0 55 -1.5t41 -1.5h140q41 0 124.5 3.5t90.5 3.5q13 0 13 -10q0 -2 -5 -25t-12 -65t-12 -83q-7 -3 -16 -3q-3 0 -15 3q-5 113 -8 124 q-79 21 -174 21q-39 0 -64 -4q-8 -17 -14 -66q-6 -44 -22 -227q13 -4 74 -4q64 0 100 5q45 5 59 40q15 0 24 -6q-14 -74 -19 -158q-8 -2 -10 -2l-15 4v76q-54 9 -139 9q-43 0 -78 -5l-16 -182q-6 -63 -6 -133q25 -4 63 -4q94 0 191 27q7 11 14.5 26t12 26t11.5 29t11 27 q15 0 29 -8q-14 -50 -32 -144q-3 -11 -13 -12q-40 -7 -105 -7q-35 0 -90 2t-64 2h-50q-92 0 -150 -8q-2 8 -2 13zM213 779q106 90 179 165h12l84 -168q-8 -15 -23 -15l-85 100l-151 -100q-6 0 -10 4.5t-5 8.5z" />
<glyph unicode="&#xcb;" d="M19 5l1 12q32 7 50.5 22.5t24 28.5t10.5 36q20 87 35 281q20 250 20 274q0 34 -4 34q-17 3 -61 3q-2 4 -2 9q0 4 4 18q20 0 55 -1.5t41 -1.5h140q41 0 124.5 3.5t90.5 3.5q13 0 13 -10q0 -2 -5 -25t-12 -65t-12 -83q-7 -3 -16 -3q-3 0 -15 3q-5 113 -8 124 q-79 21 -174 21q-39 0 -64 -4q-8 -17 -14 -66q-6 -44 -22 -227q13 -4 74 -4q64 0 100 5q45 5 59 40q15 0 24 -6q-14 -74 -19 -158q-8 -2 -10 -2l-15 4v76q-54 9 -139 9q-43 0 -78 -5l-16 -182q-6 -63 -6 -133q25 -4 63 -4q94 0 191 27q7 11 14.5 26t12 26t11.5 29t11 27 q15 0 29 -8q-14 -50 -32 -144q-3 -11 -13 -12q-40 -7 -105 -7q-35 0 -90 2t-64 2h-50q-92 0 -150 -8q-2 8 -2 13zM216 853q23 37 68 52q35 -31 35 -64q0 -15 -24.5 -32.5t-45.5 -17.5q-16 44 -33 62zM389 853q23 37 68 52q35 -31 35 -64q0 -15 -24 -32.5t-45 -17.5 q-15 42 -34 62z" />
<glyph unicode="&#xcc;" horiz-adv-x="339" d="M9 8l2 8q56 12 72.5 28.5t23.5 52.5q21 114 32 255l9 112q11 127 11 191q0 38 -7 38q-33 3 -72 3q-1 4 -1 9q0 11 4 18q21 0 70.5 -1.5t57.5 -1.5q7 0 50 1.5t64 1.5q2 -4 2 -11l-4 -16q-39 0 -60 -3q-16 -2 -35 -229l-13 -163q-14 -164 -14 -244q0 -30 3 -30 q24 -3 93 -3q2 -4 2 -9q0 -4 -4 -18q-26 0 -73.5 1.5t-54.5 1.5q-92 0 -154 -8q-4 8 -4 16zM47 889q14 36 46 54q40 -35 93.5 -72t87.5 -57l33 -19q0 -11 -11 -22q-157 56 -249 116z" />
<glyph unicode="&#xcd;" horiz-adv-x="339" d="M9 8l2 8q56 12 72.5 28.5t23.5 52.5q21 114 32 255l9 112q11 127 11 191q0 38 -7 38q-33 3 -72 3q-1 4 -1 9q0 11 4 18q21 0 70.5 -1.5t57.5 -1.5q7 0 50 1.5t64 1.5q2 -4 2 -11l-4 -16q-39 0 -60 -3q-16 -2 -35 -229l-13 -163q-14 -164 -14 -244q0 -30 3 -30 q24 -3 93 -3q2 -4 2 -9q0 -4 -4 -18q-26 0 -73.5 1.5t-54.5 1.5q-92 0 -154 -8q-4 8 -4 16zM155 795q122 69 213 148q32 -18 47 -54q-41 -27 -103.5 -56t-104.5 -45l-42 -15q-4 5 -6.5 10.5t-2.5 8.5z" />
<glyph unicode="&#xce;" horiz-adv-x="339" d="M9 8l2 8q56 12 72.5 28.5t23.5 52.5q21 114 32 255l9 112q11 127 11 191q0 38 -7 38q-33 3 -72 3q-1 4 -1 9q0 11 4 18q21 0 70.5 -1.5t57.5 -1.5q7 0 50 1.5t64 1.5q2 -4 2 -11l-4 -16q-39 0 -60 -3q-16 -2 -35 -229l-13 -163q-14 -164 -14 -244q0 -30 3 -30 q24 -3 93 -3q2 -4 2 -9q0 -4 -4 -18q-26 0 -73.5 1.5t-54.5 1.5q-92 0 -154 -8q-4 8 -4 16zM72 779q105 90 179 165h12l84 -168q-8 -15 -23 -15l-85 100l-151 -100q-6 0 -10 4.5t-5 8.5z" />
<glyph unicode="&#xcf;" horiz-adv-x="339" d="M9 8l2 8q56 12 72.5 28.5t23.5 52.5q21 114 32 255l9 112q11 127 11 191q0 38 -7 38q-33 3 -72 3q-1 4 -1 9q0 11 4 18q21 0 70.5 -1.5t57.5 -1.5q7 0 50 1.5t64 1.5q2 -4 2 -11l-4 -16q-39 0 -60 -3q-16 -2 -35 -229l-13 -163q-14 -164 -14 -244q0 -30 3 -30 q24 -3 93 -3q2 -4 2 -9q0 -4 -4 -18q-26 0 -73.5 1.5t-54.5 1.5q-92 0 -154 -8q-4 8 -4 16zM72 853q23 37 68 52q35 -31 35 -64q0 -15 -24.5 -32.5t-45.5 -17.5q-16 44 -33 62zM245 853q23 37 68 52q35 -31 35 -64q0 -15 -24 -32.5t-45 -17.5q-15 42 -34 62z" />
<glyph unicode="&#xd0;" horiz-adv-x="737" d="M19 5l1 12q32 7 50.5 22.5t24 28.5t10.5 36q13 56 31 237q-34 0 -76 -6q-8 4 -8 12q10 21 15 44h74q15 169 15 242q0 48 -8 48q-43 0 -73 -2q-3 6 -3 13q0 10 3 13q7 1 45.5 5t71.5 7.5t81 6.5t86 3q151 0 241.5 -76t90.5 -223q0 -111 -44.5 -209t-130.5 -160.5 t-195 -62.5q-30 0 -76.5 2t-56.5 2q-109 0 -167 -8q-2 8 -2 13zM191 49q54 -17 124 -17q86 0 151 53.5t97 138t32 184.5q0 128 -68.5 206t-187.5 78q-58 0 -87 -5q-13 -44 -35 -291q0 -2 -1 -4v-1q108 0 183 8q8 -2 8 -14q-15 -19 -15 -42h-180q-21 -238 -21 -294z" />
<glyph unicode="&#xd1;" horiz-adv-x="799" d="M15 5l1 12q44 11 60.5 32t24.5 55q31 143 68 549q-26 29 -41.5 37t-60.5 13q-2 4 -2 10q0 11 4 16q19 -1 44 -1q31 0 62.5 2.5t40.5 2.5q28 0 165 -206q123 -183 243 -391q3 79 18 269.5t15 243.5q0 23 -1 44q-21 3 -73 3q-3 5 -3 12t4 15q23 0 56 -1.5t40 -1.5 q63 0 105 8q2 -3 2 -11l-2 -14q-44 -11 -58.5 -31t-18.5 -56q-20 -138 -64 -631l-24 -10q-31 53 -135.5 217t-144.5 229q-85 138 -144 202q-3 -38 -12.5 -145.5t-14.5 -169.5t-9.5 -135.5t-4.5 -109.5q0 -20 1 -36q20 -3 71 -3q1 -4 1 -11q0 -10 -4 -16q-23 0 -59 1.5 t-42 1.5q-63 0 -106 -8q-2 4 -2 13zM303 819l58 48q26 21 42 21q26 0 69.5 -17.5t74.5 -17.5q22 0 62 30q13 -6 14 -19l-36 -31q-3 -2 -13 -10.5t-14 -11.5t-11.5 -8.5t-13 -7.5t-10.5 -2q-24 0 -69.5 18t-74.5 18q-7 0 -13 -1.5t-14 -5.5t-11.5 -6t-13.5 -8.5t-11 -7.5 q-15 6 -15 19z" />
<glyph unicode="&#xd2;" horiz-adv-x="747" d="M55 283q0 82 18.5 151t48 114t67 81t73.5 55t70.5 31.5t54.5 16.5t29 4q124 0 204 -88.5t80 -216.5q0 -82 -18 -150.5t-45.5 -114t-64 -80.5t-71.5 -54.5t-70 -32t-56.5 -16t-34.5 -3.5q-125 0 -205 87t-80 216zM149 335q0 -122 61.5 -212.5t161.5 -90.5q60 0 106.5 30.5 t73 81.5t40 112t13.5 128q0 118 -58.5 209.5t-159.5 91.5q-78 0 -133.5 -53.5t-80 -130.5t-24.5 -166zM257 889q15 36 47 54q40 -35 93.5 -72t86.5 -57l33 -19q0 -11 -10 -22q-158 56 -250 116z" />
<glyph unicode="&#xd3;" horiz-adv-x="747" d="M55 283q0 82 18.5 151t48 114t67 81t73.5 55t70.5 31.5t54.5 16.5t29 4q124 0 204 -88.5t80 -216.5q0 -82 -18 -150.5t-45.5 -114t-64 -80.5t-71.5 -54.5t-70 -32t-56.5 -16t-34.5 -3.5q-125 0 -205 87t-80 216zM149 335q0 -122 61.5 -212.5t161.5 -90.5q60 0 106.5 30.5 t73 81.5t40 112t13.5 128q0 118 -58.5 209.5t-159.5 91.5q-78 0 -133.5 -53.5t-80 -130.5t-24.5 -166zM327 795q122 69 213 148q32 -18 47 -54q-41 -27 -103.5 -56t-104.5 -45l-42 -15q-4 5 -6.5 10.5t-2.5 8.5z" />
<glyph unicode="&#xd4;" horiz-adv-x="747" d="M55 283q0 82 18.5 151t48 114t67 81t73.5 55t70.5 31.5t54.5 16.5t29 4q124 0 204 -88.5t80 -216.5q0 -82 -18 -150.5t-45.5 -114t-64 -80.5t-71.5 -54.5t-70 -32t-56.5 -16t-34.5 -3.5q-125 0 -205 87t-80 216zM149 335q0 -122 61.5 -212.5t161.5 -90.5q60 0 106.5 30.5 t73 81.5t40 112t13.5 128q0 118 -58.5 209.5t-159.5 91.5q-78 0 -133.5 -53.5t-80 -130.5t-24.5 -166zM293 779q106 90 179 165h12l84 -168q-8 -15 -23 -15l-85 100l-151 -100q-6 0 -10 4.5t-5 8.5z" />
<glyph unicode="&#xd5;" horiz-adv-x="747" d="M55 283q0 82 18.5 151t48 114t67 81t73.5 55t70.5 31.5t54.5 16.5t29 4q124 0 204 -88.5t80 -216.5q0 -82 -18 -150.5t-45.5 -114t-64 -80.5t-71.5 -54.5t-70 -32t-56.5 -16t-34.5 -3.5q-125 0 -205 87t-80 216zM149 335q0 -122 61.5 -212.5t161.5 -90.5q60 0 106.5 30.5 t73 81.5t40 112t13.5 128q0 118 -58.5 209.5t-159.5 91.5q-78 0 -133.5 -53.5t-80 -130.5t-24.5 -166zM291 819l57 48q26 21 43 21q25 0 68.5 -17.5t75.5 -17.5q21 0 61 30q13 -5 15 -19l-36 -31q-46 -40 -63 -40q-24 0 -69.5 18t-74.5 18q-7 0 -13 -1.5t-14 -5.5t-11.5 -6 t-13.5 -8.5t-11 -7.5q-14 5 -14 19z" />
<glyph unicode="&#xd6;" horiz-adv-x="747" d="M55 283q0 82 18.5 151t48 114t67 81t73.5 55t70.5 31.5t54.5 16.5t29 4q124 0 204 -88.5t80 -216.5q0 -82 -18 -150.5t-45.5 -114t-64 -80.5t-71.5 -54.5t-70 -32t-56.5 -16t-34.5 -3.5q-125 0 -205 87t-80 216zM149 335q0 -122 61.5 -212.5t161.5 -90.5q60 0 106.5 30.5 t73 81.5t40 112t13.5 128q0 118 -58.5 209.5t-159.5 91.5q-78 0 -133.5 -53.5t-80 -130.5t-24.5 -166zM293 853q23 37 68 52q35 -31 35 -64q0 -15 -24 -32.5t-45 -17.5q-15 42 -34 62zM467 853q21 36 68 52q34 -31 34 -64q0 -15 -24 -32.5t-45 -17.5q-16 44 -33 62z" />
<glyph unicode="&#xd7;" horiz-adv-x="457" d="M47 135l146 128q-54 68 -114 133q0 10 4 15q8 5 37 28l112 -143q62 54 147 141q8 0 13 -6q2 -8 19 -42l-148 -132q59 -74 118 -136q-2 -11 -5 -16q-15 -7 -37 -28l-115 146q-86 -76 -145 -136q-7 0 -12 6q-2 6 -20 42z" />
<glyph unicode="&#xd8;" horiz-adv-x="747" d="M55 283q0 82 18.5 151t48 114t67 81t73.5 55t70.5 31.5t54.5 16.5t29 4q75 0 143 -39q40 70 54 99q4 4 8 4t8 -1q8 -17 28 -43l-57 -89q100 -89 100 -236q0 -82 -18 -150.5t-45.5 -114t-64 -80.5t-71.5 -54.5t-70 -32t-56.5 -16t-34.5 -3.5q-82 0 -145 37 q-39 -63 -58 -101q-3 -3 -6 -3q-4 0 -7 2q-8 25 -25 40l57 92q-48 41 -74.5 102.5t-26.5 133.5zM149 335q0 -122 58 -207q210 341 310 501q-56 56 -130 56q-78 0 -133.5 -53.5t-80 -130.5t-24.5 -166zM239 89q54 -57 133 -57q60 0 106.5 30.5t73 81.5t40 112t13.5 128 q0 120 -56 204l-114 -181q-83 -129 -196 -318z" />
<glyph unicode="&#xd9;" horiz-adv-x="764" d="M80 705q0 9 4 18q20 0 50 -1.5t37 -1.5q82 0 132 8q4 -6 4 -15l-2 -10q-45 -11 -60 -27t-21 -48q-13 -71 -24 -196q-15 -180 -15 -187q0 -104 45 -163t135 -59q117 0 169 70.5t65 215.5q2 28 7 82.5t6.5 73.5t4.5 56t3.5 58.5t1.5 51.5t1 62q-20 3 -78 3q-1 5 -1 12 q0 9 3 15q23 0 62 -1.5t46 -1.5q66 0 104 8q4 -6 4 -15l-2 -10q-30 -7 -49 -27t-24.5 -36t-10.5 -41q-20 -115 -37 -315q-13 -147 -85.5 -225.5t-201.5 -78.5q-245 0 -245 249q0 34 12 203q17 255 17 261q-17 3 -56 3q-1 4 -1 9zM305 889q15 36 47 54q40 -35 93.5 -72 t86.5 -57l33 -19q0 -11 -10 -22q-158 56 -250 116z" />
<glyph unicode="&#xda;" horiz-adv-x="764" d="M80 705q0 9 4 18q20 0 50 -1.5t37 -1.5q82 0 132 8q4 -6 4 -15l-2 -10q-45 -11 -60 -27t-21 -48q-13 -71 -24 -196q-15 -180 -15 -187q0 -104 45 -163t135 -59q117 0 169 70.5t65 215.5q2 28 7 82.5t6.5 73.5t4.5 56t3.5 58.5t1.5 51.5t1 62q-20 3 -78 3q-1 5 -1 12 q0 9 3 15q23 0 62 -1.5t46 -1.5q66 0 104 8q4 -6 4 -15l-2 -10q-30 -7 -49 -27t-24.5 -36t-10.5 -41q-20 -115 -37 -315q-13 -147 -85.5 -225.5t-201.5 -78.5q-245 0 -245 249q0 34 12 203q17 255 17 261q-17 3 -56 3q-1 4 -1 9zM375 795q122 69 213 148q32 -18 47 -54 q-41 -27 -103.5 -56t-104.5 -45l-42 -15q-4 5 -6.5 10.5t-2.5 8.5z" />
<glyph unicode="&#xdb;" horiz-adv-x="764" d="M80 705q0 9 4 18q20 0 50 -1.5t37 -1.5q82 0 132 8q4 -6 4 -15l-2 -10q-45 -11 -60 -27t-21 -48q-13 -71 -24 -196q-15 -180 -15 -187q0 -104 45 -163t135 -59q117 0 169 70.5t65 215.5q2 28 7 82.5t6.5 73.5t4.5 56t3.5 58.5t1.5 51.5t1 62q-20 3 -78 3q-1 5 -1 12 q0 9 3 15q23 0 62 -1.5t46 -1.5q66 0 104 8q4 -6 4 -15l-2 -10q-30 -7 -49 -27t-24.5 -36t-10.5 -41q-20 -115 -37 -315q-13 -147 -85.5 -225.5t-201.5 -78.5q-245 0 -245 249q0 34 12 203q17 255 17 261q-17 3 -56 3q-1 4 -1 9zM297 779q106 90 179 165h12l84 -168 q-8 -15 -23 -15l-85 100l-151 -100q-6 0 -10 4.5t-5 8.5z" />
<glyph unicode="&#xdc;" horiz-adv-x="764" d="M80 705q0 9 4 18q20 0 50 -1.5t37 -1.5q82 0 132 8q4 -6 4 -15l-2 -10q-45 -11 -60 -27t-21 -48q-13 -71 -24 -196q-15 -180 -15 -187q0 -104 45 -163t135 -59q117 0 169 70.5t65 215.5q2 28 7 82.5t6.5 73.5t4.5 56t3.5 58.5t1.5 51.5t1 62q-20 3 -78 3q-1 5 -1 12 q0 9 3 15q23 0 62 -1.5t46 -1.5q66 0 104 8q4 -6 4 -15l-2 -10q-30 -7 -49 -27t-24.5 -36t-10.5 -41q-20 -115 -37 -315q-13 -147 -85.5 -225.5t-201.5 -78.5q-245 0 -245 249q0 34 12 203q17 255 17 261q-17 3 -56 3q-1 4 -1 9zM308 853q23 37 68 52q35 -31 35 -64 q0 -15 -24.5 -32.5t-45.5 -17.5q-16 44 -33 62zM481 853q23 37 68 52q35 -31 35 -64q0 -15 -24 -32.5t-45 -17.5q-15 42 -34 62z" />
<glyph unicode="&#xdd;" horiz-adv-x="588" d="M0 712q0 9 4 17q3 0 21 -0.5t26 -0.5q12 0 42 2.5t47 2.5q5 0 20.5 -19t36.5 -54.5t42 -79.5t39.5 -100.5t26.5 -110.5q31 88 76 184q44 92 87 137.5t77 45.5q16 0 31.5 -7t23.5 -15l8 -7q-15 -46 -43 -75q-14 13 -22.5 17t-23.5 4q-26 0 -60 -43.5t-64 -109.5 q-73 -163 -80 -280q-3 -40 -3 -107q0 -15 0.5 -41.5t0.5 -36.5q37 -7 92 -7q0 -20 -2 -31q-29 0 -75.5 1.5t-56.5 1.5q-104 0 -174 -8q-2 4 -2 13l1 12q65 8 90.5 27.5t34.5 51.5q15 60 15 159q0 102 -45 213.5t-100 187.5q-19 26 -36 35.5t-54 11.5q-1 4 -1 9zM308 795 q123 69 213 148q31 -17 47 -54q-41 -27 -103 -56t-104 -45l-42 -15q-5 5 -7.5 10.5t-3.5 8.5v3z" />
<glyph unicode="&#xde;" horiz-adv-x="535" d="M9 8l2 8q56 12 72.5 28.5t23.5 52.5q21 115 32 255l9 112q11 129 11 191q0 38 -7 38q-33 3 -72 3q-1 4 -1 9q0 11 4 18q21 0 70.5 -1.5t57.5 -1.5q7 0 50 1.5t64 1.5q2 -4 2 -11l-4 -16q-39 0 -60 -3q-11 -2 -23 -106q56 2 83 2q95 0 153.5 -49.5t58.5 -142.5 q0 -99 -72 -175.5t-175 -76.5q-59 0 -84 3q-3 -36 -3 -91q0 -26 3 -26q28 -3 101 -3q2 -8 2 -13q0 -4 -4 -18q-29 0 -78 1.5t-58 1.5q-92 0 -154 -8q-4 8 -4 16zM205 185q19 -2 62 -2q76 0 125 59t49 137q0 81 -40 128.5t-108 47.5q-31 0 -57 -6z" />
<glyph unicode="&#xdf;" horiz-adv-x="556" d="M-183 -356q10 49 40 73q30 -22 61 -37t47 -15q26 0 54.5 65t39.5 163l78 698q8 67 34.5 119t57 78.5t66 43t55.5 20.5t31 4q58 0 104 -45t46 -107q0 -53 -20 -93.5t-49 -64.5t-58 -45t-49 -46t-20 -56q0 -24 31 -59t67.5 -65.5t67.5 -71t31 -75.5q0 -63 -52.5 -105.5 t-126.5 -42.5q-36 0 -82.5 11t-67.5 24l42 136q15 0 24 -7q-2 -16 -2 -61q0 -23 1 -31q8 -12 33 -23.5t63 -11.5q32 0 57.5 24.5t25.5 62.5q0 29 -19 56.5t-46 50t-54 46t-46 52.5t-19 60q0 37 21 68.5t51.5 55t60.5 47t51 56.5t21 72q0 54 -42 99.5t-91 45.5 q-33 0 -74.5 -64.5t-48.5 -125.5l-75 -692q-9 -81 -32.5 -142.5t-49 -92t-55.5 -49.5t-46 -23t-26 -4q-47 0 -111 24z" />
<glyph unicode="&#xe0;" horiz-adv-x="537" d="M40 125q0 97 43.5 174t108.5 126q32 24 69.5 42t56.5 24t30 8q67 7 71 9l52 20q5 0 12 -7q-44 -238 -59 -368q-1 -9 -1 -26q0 -59 18 -59q4 0 63 21q9 -7 9 -24q-33 -14 -61 -29t-39.5 -23.5t-28 -22t-17.5 -14.5l-16 7q-11 16 -11 72q0 58 20 170q-129 -206 -231 -245 q-37 7 -63 45t-26 100zM117 160q0 -100 50 -100q47 0 123 105.5t97 205.5l17 82q-67 0 -107 -5q-56 -7 -118 -91.5t-62 -196.5zM211 745q12 40 53 50q31 -45 75 -96t73 -79l29 -28q-2 -11 -16 -19q-138 92 -214 172z" />
<glyph unicode="&#xe1;" horiz-adv-x="537" d="M40 125q0 97 43.5 174t108.5 126q32 24 69.5 42t56.5 24t30 8q67 7 71 9l52 20q5 0 12 -7q-44 -238 -59 -368q-1 -9 -1 -26q0 -59 18 -59q4 0 63 21q9 -7 9 -24q-33 -14 -61 -29t-39.5 -23.5t-28 -22t-17.5 -14.5l-16 7q-11 16 -11 72q0 58 20 170q-129 -206 -231 -245 q-37 7 -63 45t-26 100zM117 160q0 -100 50 -100q47 0 123 105.5t97 205.5l17 82q-67 0 -107 -5q-56 -7 -118 -91.5t-62 -196.5zM288 592q108 101 177 203q42 -10 54 -50q-34 -36 -87.5 -79t-90.5 -68l-37 -25q-6 4 -10 8.5t-5 7.5z" />
<glyph unicode="&#xe2;" horiz-adv-x="537" d="M40 125q0 97 43.5 174t108.5 126q32 24 69.5 42t56.5 24t30 8q67 7 71 9l52 20q5 0 12 -7q-44 -238 -59 -368q-1 -9 -1 -26q0 -59 18 -59q4 0 63 21q9 -7 9 -24q-33 -14 -61 -29t-39.5 -23.5t-28 -22t-17.5 -14.5l-16 7q-11 16 -11 72q0 58 20 170q-129 -206 -231 -245 q-37 7 -63 45t-26 100zM117 160q0 -100 50 -100q47 0 123 105.5t97 205.5l17 82q-67 0 -107 -5q-56 -7 -118 -91.5t-62 -196.5zM197 564q107 105 180 192h12l87 -197q-11 -12 -25 -12l-86 114l-150 -114q-7 0 -11.5 4.5t-5.5 8.5z" />
<glyph unicode="&#xe3;" horiz-adv-x="537" d="M40 125q0 97 43.5 174t108.5 126q32 24 69.5 42t56.5 24t30 8q67 7 71 9l52 20q5 0 12 -7q-44 -238 -59 -368q-1 -9 -1 -26q0 -59 18 -59q4 0 63 21q9 -7 9 -24q-33 -14 -61 -29t-39.5 -23.5t-28 -22t-17.5 -14.5l-16 7q-11 16 -11 72q0 58 20 170q-129 -206 -231 -245 q-37 7 -63 45t-26 100zM117 160q0 -100 50 -100q47 0 123 105.5t97 205.5l17 82q-67 0 -107 -5q-56 -7 -118 -91.5t-62 -196.5zM199 639l57 48q26 21 43 21q25 0 68.5 -17.5t75.5 -17.5q21 0 61 30q13 -5 15 -19l-36 -31q-48 -40 -63 -40q-24 0 -69.5 18t-74.5 18 q-7 0 -13 -1.5t-14 -5.5t-11.5 -6t-13.5 -8.5t-11 -7.5q-14 5 -14 19z" />
<glyph unicode="&#xe4;" horiz-adv-x="537" d="M40 125q0 97 43.5 174t108.5 126q32 24 69.5 42t56.5 24t30 8q67 7 71 9l52 20q5 0 12 -7q-44 -238 -59 -368q-1 -9 -1 -26q0 -59 18 -59q4 0 63 21q9 -7 9 -24q-33 -14 -61 -29t-39.5 -23.5t-28 -22t-17.5 -14.5l-16 7q-11 16 -11 72q0 58 20 170q-129 -206 -231 -245 q-37 7 -63 45t-26 100zM117 160q0 -100 50 -100q47 0 123 105.5t97 205.5l17 82q-67 0 -107 -5q-56 -7 -118 -91.5t-62 -196.5zM215 677q21 36 68 52q34 -31 34 -64q0 -15 -24 -32.5t-45 -17.5q-16 44 -33 62zM388 677q23 37 68 52q35 -31 35 -64q0 -15 -24.5 -32.5 t-45.5 -17.5q-16 44 -33 62z" />
<glyph unicode="&#xe5;" horiz-adv-x="537" d="M40 125q0 97 43.5 174t108.5 126q32 24 69.5 42t56.5 24t30 8q67 7 71 9l52 20q5 0 12 -7q-44 -238 -59 -368q-1 -9 -1 -26q0 -59 18 -59q4 0 63 21q9 -7 9 -24q-33 -14 -61 -29t-39.5 -23.5t-28 -22t-17.5 -14.5l-16 7q-11 16 -11 72q0 58 20 170q-129 -206 -231 -245 q-37 7 -63 45t-26 100zM117 160q0 -100 50 -100q47 0 123 105.5t97 205.5l17 82q-67 0 -107 -5q-56 -7 -118 -91.5t-62 -196.5zM255 613q0 45 34 88.5t103 51.5q29 0 46.5 -19t17.5 -49q0 -44 -40 -85t-99 -47q-28 0 -45 16.5t-17 43.5zM304 628q0 -44 32 -44q31 0 49.5 30 t18.5 66q0 43 -32 43q-31 0 -49.5 -29.5t-18.5 -65.5z" />
<glyph unicode="&#xe6;" horiz-adv-x="709" d="M40 125q0 97 43.5 174t108.5 126q32 24 69.5 42t56.5 24t30 8q67 7 71 9l52 20q5 0 12 -7l-15 -81q48 43 104 69q57 0 88 -21.5t31 -76.5q0 -83 -112 -156q-74 -50 -155 -63q0 -67 19.5 -109t56.5 -42q61 0 151 60q11 -2 13 -20l-121 -80q-31 -21 -80 -21q-60 0 -90 48 t-30 124q0 29 4 52q-121 -188 -218 -224q-37 7 -63 45t-26 100zM117 160q0 -100 50 -100q47 0 123 105.5t97 205.5l17 82q-67 0 -107 -5q-56 -7 -118 -91.5t-62 -196.5zM425 215q67 16 120 61q64 57 64 109q0 83 -57 83q-34 0 -77 -83t-50 -170z" />
<glyph unicode="&#xe7;" horiz-adv-x="409" d="M45 139q0 83 25 151.5t59 107.5t73.5 65.5t65 36t36.5 9.5q14 0 89 -13q0 -5 -1.5 -15.5t-9 -29t-18.5 -31.5q-78 39 -109 39q-42 0 -85 -86t-43 -198q0 -55 21 -94.5t55 -39.5q62 0 150 60q10 -3 14 -20l-122 -80q-44 -18 -57 -20l-11 -49q39 -19 57 -38.5t18 -50.5 q0 -38 -21 -67t-56 -44h-100q-2 3 -2 9l4 16q127 3 127 66q0 37 -73 60q-7 1 -7 8l4 20l23 70q-52 6 -79 51.5t-27 106.5z" />
<glyph unicode="&#xe8;" horiz-adv-x="409" d="M43 152q0 112 61.5 210t167.5 147q57 0 88 -21.5t31 -76.5q0 -83 -112 -156q-74 -50 -155 -63q0 -67 19.5 -109t56.5 -42q61 0 151 60q11 -2 13 -20l-121 -80q-31 -21 -80 -21q-60 0 -90 48t-30 124zM125 215q67 16 120 61q64 57 64 109q0 83 -57 83q-34 0 -77 -83 t-50 -170zM131 745q12 40 53 50q31 -45 75 -96t73 -79l29 -28q-2 -11 -16 -19q-138 92 -214 172z" />
<glyph unicode="&#xe9;" horiz-adv-x="409" d="M43 152q0 112 61.5 210t167.5 147q57 0 88 -21.5t31 -76.5q0 -83 -112 -156q-74 -50 -155 -63q0 -67 19.5 -109t56.5 -42q61 0 151 60q11 -2 13 -20l-121 -80q-31 -21 -80 -21q-60 0 -90 48t-30 124zM125 215q67 16 120 61q64 57 64 109q0 83 -57 83q-34 0 -77 -83 t-50 -170zM231 592q108 101 177 203q41 -10 53 -50q-34 -36 -87.5 -79t-89.5 -68l-37 -25q-6 4 -10 8.5t-5 7.5z" />
<glyph unicode="&#xea;" horiz-adv-x="409" d="M43 152q0 112 61.5 210t167.5 147q57 0 88 -21.5t31 -76.5q0 -83 -112 -156q-74 -50 -155 -63q0 -67 19.5 -109t56.5 -42q61 0 151 60q11 -2 13 -20l-121 -80q-31 -21 -80 -21q-60 0 -90 48t-30 124zM125 215q67 16 120 61q64 57 64 109q0 83 -57 83q-34 0 -77 -83 t-50 -170zM133 564q107 105 180 192h12l87 -197q-11 -12 -25 -12l-86 114l-150 -114q-7 0 -11.5 4.5t-5.5 8.5z" />
<glyph unicode="&#xeb;" horiz-adv-x="409" d="M43 152q0 112 61.5 210t167.5 147q57 0 88 -21.5t31 -76.5q0 -83 -112 -156q-74 -50 -155 -63q0 -67 19.5 -109t56.5 -42q61 0 151 60q11 -2 13 -20l-121 -80q-31 -21 -80 -21q-60 0 -90 48t-30 124zM125 215q67 16 120 61q64 57 64 109q0 83 -57 83q-34 0 -77 -83 t-50 -170zM156 677q23 37 68 52q35 -31 35 -64q0 -15 -24.5 -32.5t-45.5 -17.5q-16 44 -33 62zM329 677q23 37 68 52q35 -31 35 -64q0 -15 -24 -32.5t-45 -17.5q-15 42 -34 62z" />
<glyph unicode="&#xec;" horiz-adv-x="271" d="M11 745q12 40 53 50q31 -45 75 -96t73 -79l29 -28q-2 -11 -16 -19q-138 92 -214 172zM39 412q36 20 80 51.5t66 52.5l18 -5q1 -12 1 -32q0 -74 -23.5 -202.5t-23.5 -164.5q0 -44 15 -44q9 0 64 21q9 -6 9 -24q-90 -37 -149 -89l-16 7q-8 16 -8 61q0 48 23.5 163.5 t23.5 160.5q0 41 -18 41q-13 0 -53 -21q-9 9 -9 24z" />
<glyph unicode="&#xed;" horiz-adv-x="271" d="M39 412q36 20 80 51.5t66 52.5l18 -5q1 -12 1 -32q0 -74 -23.5 -202.5t-23.5 -164.5q0 -44 15 -44q9 0 64 21q9 -6 9 -24q-90 -37 -149 -89l-16 7q-8 16 -8 61q0 48 23.5 163.5t23.5 160.5q0 41 -18 41q-13 0 -53 -21q-9 9 -9 24zM103 592q108 101 177 203q41 -10 53 -50 q-34 -36 -87.5 -79t-89.5 -68l-37 -25q-6 4 -10 8.5t-5 7.5z" />
<glyph unicode="&#xee;" horiz-adv-x="272" d="M32 564q107 105 180 192h12l87 -197q-11 -12 -26 -12l-85 114l-151 -114q-7 0 -11.5 4.5t-5.5 8.5v4zM39 412q36 20 80 51.5t66 52.5l18 -5q1 -12 1 -32q0 -74 -23.5 -202.5t-23.5 -164.5q0 -44 15 -44q9 0 64 21q9 -6 9 -24q-90 -37 -149 -89l-16 7q-8 16 -8 61 q0 48 23.5 163.5t23.5 160.5q0 41 -18 41q-13 0 -53 -21q-9 9 -9 24z" />
<glyph unicode="&#xef;" horiz-adv-x="271" d="M35 677q21 36 68 52q34 -31 34 -64q0 -15 -24 -32.5t-45 -17.5q-16 44 -33 62zM39 412q36 20 80 51.5t66 52.5l18 -5q1 -12 1 -32q0 -74 -23.5 -202.5t-23.5 -164.5q0 -44 15 -44q9 0 64 21q9 -6 9 -24q-90 -37 -149 -89l-16 7q-8 16 -8 61q0 48 23.5 163.5t23.5 160.5 q0 41 -18 41q-13 0 -53 -21q-9 9 -9 24zM195 677q21 36 68 52q34 -31 34 -64q0 -15 -24 -32.5t-45 -17.5q-16 44 -33 62z" />
<glyph unicode="&#xf0;" horiz-adv-x="509" d="M45 168q0 115 59 199q46 65 107.5 103.5t91.5 38.5q19 0 41 -10q-32 85 -104 158l-123 -60q-7 5 -11 15.5t-4 18.5l-1 8l107 46q-57 50 -131 90q0 9 7 21.5t13 14.5q96 -45 162 -98l130 63q16 -12 16 -40l-113 -51q172 -158 172 -366q0 -101 -45 -184q-22 -41 -55 -73.5 t-64.5 -49t-56 -24.5t-38.5 -8q-65 0 -112.5 51.5t-47.5 136.5zM132 195q0 -170 103 -170q60 0 102 84.5t42 183.5q0 73 -12 126q-31 44 -98 44q-60 0 -98.5 -83.5t-38.5 -184.5z" />
<glyph unicode="&#xf1;" horiz-adv-x="556" d="M24 412q75 41 140 104l17 -5q4 -27 4 -63q0 -31 -3 -65t-9.5 -82t-7.5 -61q103 230 219 269q95 0 95 -129q0 -49 -17 -144.5t-17 -112.5q0 -29 3.5 -39.5t16.5 -10.5q14 0 50 16q9 -9 9 -24q-74 -30 -152 -89l-16 7q0 82 22.5 203.5t22.5 153.5q0 48 -12 68.5t-36 20.5 q-47 0 -117.5 -107t-82.5 -209l-13 -118l-76 -15l37 273q8 64 8 91q0 65 -26 65q-7 0 -47 -21q-12 10 -12 24zM188 616l57 48q26 21 43 21q26 0 69 -17t75 -17q16 0 61 29q14 -6 15 -19l-36 -30q-48 -40 -63 -40q-24 0 -69.5 18t-74.5 18q-19 0 -62 -30q-15 6 -15 19z" />
<glyph unicode="&#xf2;" horiz-adv-x="509" d="M45 168q0 110 59 199q45 67 112.5 104.5t100.5 37.5q63 0 105 -52.5t42 -137.5q0 -101 -45 -184q-22 -41 -55 -73.5t-64.5 -49t-56 -24.5t-38.5 -8q-65 0 -112.5 51.5t-47.5 136.5zM132 195q0 -170 103 -170q60 0 102.5 84.5t42.5 183.5q0 79 -24 124.5t-72 45.5 q-44 0 -79.5 -41t-54 -102t-18.5 -125zM175 745q12 40 53 50q31 -45 75 -96t73 -79l29 -28q-2 -11 -16 -19q-138 92 -214 172z" />
<glyph unicode="&#xf3;" horiz-adv-x="509" d="M45 168q0 110 59 199q45 67 112.5 104.5t100.5 37.5q63 0 105 -52.5t42 -137.5q0 -101 -45 -184q-22 -41 -55 -73.5t-64.5 -49t-56 -24.5t-38.5 -8q-65 0 -112.5 51.5t-47.5 136.5zM132 195q0 -170 103 -170q60 0 102.5 84.5t42.5 183.5q0 79 -24 124.5t-72 45.5 q-44 0 -79.5 -41t-54 -102t-18.5 -125zM252 592q108 101 177 203q42 -10 54 -50q-34 -36 -87.5 -79t-90.5 -68l-37 -25q-6 4 -10 8.5t-5 7.5z" />
<glyph unicode="&#xf4;" horiz-adv-x="509" d="M45 168q0 110 59 199q45 67 112.5 104.5t100.5 37.5q63 0 105 -52.5t42 -137.5q0 -101 -45 -184q-22 -41 -55 -73.5t-64.5 -49t-56 -24.5t-38.5 -8q-65 0 -112.5 51.5t-47.5 136.5zM132 195q0 -170 103 -170q60 0 102.5 84.5t42.5 183.5q0 79 -24 124.5t-72 45.5 q-44 0 -79.5 -41t-54 -102t-18.5 -125zM176 564q107 105 180 192h12l87 -197q-11 -12 -26 -12l-85 114l-151 -114q-7 0 -11.5 4.5t-5.5 8.5v4z" />
<glyph unicode="&#xf5;" horiz-adv-x="509" d="M45 168q0 110 59 199q45 67 112.5 104.5t100.5 37.5q63 0 105 -52.5t42 -137.5q0 -101 -45 -184q-22 -41 -55 -73.5t-64.5 -49t-56 -24.5t-38.5 -8q-65 0 -112.5 51.5t-47.5 136.5zM132 195q0 -170 103 -170q60 0 102.5 84.5t42.5 183.5q0 79 -24 124.5t-72 45.5 q-44 0 -79.5 -41t-54 -102t-18.5 -125zM169 616l58 48q26 21 42 21q26 0 69.5 -17t74.5 -17q17 0 62 29q13 -6 14 -19l-36 -30q-48 -40 -62 -40q-24 0 -69.5 18t-74.5 18q-23 0 -63 -30q-15 6 -15 19z" />
<glyph unicode="&#xf6;" horiz-adv-x="509" d="M45 168q0 110 59 199q45 67 112.5 104.5t100.5 37.5q63 0 105 -52.5t42 -137.5q0 -101 -45 -184q-22 -41 -55 -73.5t-64.5 -49t-56 -24.5t-38.5 -8q-65 0 -112.5 51.5t-47.5 136.5zM132 195q0 -170 103 -170q60 0 102.5 84.5t42.5 183.5q0 79 -24 124.5t-72 45.5 q-44 0 -79.5 -41t-54 -102t-18.5 -125zM192 677q23 37 68 52q35 -31 35 -64q0 -15 -24.5 -32.5t-45.5 -17.5q-16 44 -33 62zM365 677q23 37 68 52q35 -31 35 -64q0 -15 -24 -32.5t-45 -17.5q-15 42 -34 62z" />
<glyph unicode="&#xf7;" horiz-adv-x="520" d="M55 244q8 21 16 48h217q87 0 171 9q6 -4 6 -16l-16 -48h-218q-85 0 -170 -8q-6 3 -6 15zM187 127q19 37 65 54q35 -32 35 -66q0 -15 -23.5 -33.5t-43.5 -18.5q-16 42 -33 64zM219 404q22 37 65 53q35 -30 35 -65q0 -16 -23 -34.5t-44 -18.5q-14 43 -33 65z" />
<glyph unicode="&#xf8;" horiz-adv-x="509" d="M19 -29l60 78q-34 48 -34 119q0 110 59 199q45 67 112.5 104.5t100.5 37.5q48 0 86 -32q34 50 54 84q3 2 7 2q5 0 9 -4q4 -15 19 -39l-60 -79q32 -51 32 -122q0 -101 -45 -184q-22 -41 -55 -73.5t-64.5 -49t-56 -24.5t-38.5 -8q-55 0 -96 35q-32 -46 -56 -86q-2 -1 -6 -1 q-6 0 -10 4q-5 20 -18 39zM132 195q0 -45 5 -70q52 66 107 138.5t84 112.5l29 39q-26 48 -73 48q-44 0 -79.5 -41t-54 -102t-18.5 -125zM152 75q25 -50 83 -50q60 0 102.5 84.5t42.5 183.5q0 35 -7 72q-109 -138 -221 -290z" />
<glyph unicode="&#xf9;" horiz-adv-x="552" d="M35 412q68 49 130 104l18 -5q4 -32 4 -52q0 -44 -19 -155t-19 -141q0 -103 43 -103q53 0 122 116t91 232l16 85l74 12q-60 -351 -60 -381q0 -56 13 -56q12 0 64 21q9 -6 9 -24q-47 -19 -74 -37t-66 -52l-16 7q-6 20 -6 61q0 86 21 208q-36 -90 -93.5 -168.5 t-122.5 -103.5q-39 0 -65.5 32t-26.5 97q0 53 18.5 159t18.5 148q-3 0 -13.5 -5t-26 -12.5t-22.5 -10.5q-4 4 -7 10t-4 10zM175 745q12 40 53 50q31 -45 75 -96t73 -79l29 -28q-2 -11 -16 -19q-138 92 -214 172z" />
<glyph unicode="&#xfa;" horiz-adv-x="552" d="M35 412q68 49 130 104l18 -5q4 -32 4 -52q0 -44 -19 -155t-19 -141q0 -103 43 -103q53 0 122 116t91 232l16 85l74 12q-60 -351 -60 -381q0 -56 13 -56q12 0 64 21q9 -6 9 -24q-47 -19 -74 -37t-66 -52l-16 7q-6 20 -6 61q0 86 21 208q-36 -90 -93.5 -168.5 t-122.5 -103.5q-39 0 -65.5 32t-26.5 97q0 53 18.5 159t18.5 148q-3 0 -13.5 -5t-26 -12.5t-22.5 -10.5q-4 4 -7 10t-4 10zM261 592q108 101 178 203q41 -10 53 -50q-34 -36 -87.5 -79t-90.5 -68l-37 -25q-6 4 -10 8.5t-5 7.5z" />
<glyph unicode="&#xfb;" horiz-adv-x="552" d="M35 412q68 49 130 104l18 -5q4 -32 4 -52q0 -44 -19 -155t-19 -141q0 -103 43 -103q53 0 122 116t91 232l16 85l74 12q-60 -351 -60 -381q0 -56 13 -56q12 0 64 21q9 -6 9 -24q-47 -19 -74 -37t-66 -52l-16 7q-6 20 -6 61q0 86 21 208q-36 -90 -93.5 -168.5 t-122.5 -103.5q-39 0 -65.5 32t-26.5 97q0 53 18.5 159t18.5 148q-3 0 -13.5 -5t-26 -12.5t-22.5 -10.5q-4 4 -7 10t-4 10zM176 564q107 105 180 192h12l87 -197q-11 -12 -26 -12l-85 114l-151 -114q-7 0 -11.5 4.5t-5.5 8.5v4z" />
<glyph unicode="&#xfc;" horiz-adv-x="552" d="M35 412q68 49 130 104l18 -5q4 -32 4 -52q0 -44 -19 -155t-19 -141q0 -103 43 -103q53 0 122 116t91 232l16 85l74 12q-60 -351 -60 -381q0 -56 13 -56q12 0 64 21q9 -6 9 -24q-47 -19 -74 -37t-66 -52l-16 7q-6 20 -6 61q0 86 21 208q-36 -90 -93.5 -168.5 t-122.5 -103.5q-39 0 -65.5 32t-26.5 97q0 53 18.5 159t18.5 148q-3 0 -13.5 -5t-26 -12.5t-22.5 -10.5q-4 4 -7 10t-4 10zM185 677q23 37 68 52q35 -31 35 -64q0 -15 -24 -32.5t-45 -17.5q-15 42 -34 62zM359 677q21 36 68 52q34 -31 34 -64q0 -15 -24 -32.5t-45 -17.5 q-16 44 -33 62z" />
<glyph unicode="&#xfd;" horiz-adv-x="419" d="M-207 -300q3 17 16 27q26 -14 40 -14q114 0 302 219q-4 29 -12 88q-13 99 -20 149.5t-19 117.5t-22.5 96t-22.5 29q-6 0 -44 -36q-14 4 -16 20q64 77 100 125l18 -1q50 -83 98 -513q57 81 92.5 175t35.5 166q0 39 -13 59t-37 34q28 55 68 74q46 -23 46 -79 q0 -91 -48 -222t-140 -253q-81 -106 -157.5 -175.5t-176.5 -137.5q-4 1 -16.5 9t-33 20.5t-38.5 22.5zM191 592q108 101 177 203q41 -10 53 -50q-34 -36 -87.5 -79t-89.5 -68l-37 -25q-6 4 -10 8.5t-5 7.5z" />
<glyph unicode="&#xfe;" horiz-adv-x="533" d="M-53 -348l1 12q41 5 56.5 21t22.5 47q27 122 53 331l60 486q25 207 25 218q0 21 -7 30t-23 11l-63 3q0 1 -1 3.5t-1.5 4.5t-0.5 4l3 13q91 13 171 40q8 0 12 -9q-15 -99 -78 -574q107 180 215 216q45 -6 74 -50t29 -108q0 -80 -23.5 -144.5t-56 -101.5t-71 -62t-65.5 -34 t-42 -9h-94q-36 -257 -36 -293q0 -32 8 -32q24 -2 102 -2q3 -8 3 -17q0 -11 -3 -16h-154q-64 0 -112 -4q-4 7 -4 16zM149 61q59 -10 135 -10q48 0 90 80.5t42 181.5q0 53 -17 84.5t-46 31.5q-43 0 -101 -72t-80 -148q-17 -78 -23 -148z" />
<glyph unicode="&#xff;" horiz-adv-x="419" d="M-207 -300q3 17 16 27q26 -14 40 -14q114 0 302 219q-4 29 -12 88q-13 99 -20 149.5t-19 117.5t-22.5 96t-22.5 29q-6 0 -44 -36q-14 4 -16 20q64 77 100 125l18 -1q50 -83 98 -513q57 81 92.5 175t35.5 166q0 39 -13 59t-37 34q28 55 68 74q46 -23 46 -79 q0 -91 -48 -222t-140 -253q-81 -106 -157.5 -175.5t-176.5 -137.5q-4 1 -16.5 9t-33 20.5t-38.5 22.5zM128 677q23 37 68 52q35 -31 35 -64q0 -15 -24.5 -32.5t-45.5 -17.5q-16 44 -33 62zM301 677q23 37 68 52q35 -31 35 -64q0 -15 -24 -32.5t-45 -17.5q-15 42 -34 62z" />
<glyph unicode="&#x152;" horiz-adv-x="980" d="M55 283q0 112 35.5 199t83 132t104 73.5t89.5 36t49 7.5q18 0 89 -5.5t98 -5.5h108q41 0 124 3.5t90 3.5q14 0 14 -10q0 -2 -5 -25t-12.5 -65t-12.5 -83q-6 -3 -16 -3q-2 0 -14 3q-1 16 -2.5 46.5t-2.5 50.5t-3 27q-81 21 -175 21q-39 0 -64 -4q-4 -8 -13 -66 q-8 -58 -23 -227q15 -4 75 -4q63 0 100 5q46 5 58 40q15 0 24 -6q-12 -66 -18 -158q-8 -2 -11 -2l-15 4v76q-54 9 -138 9q-41 0 -79 -5l-16 -182q-5 -53 -5 -133q24 -4 62 -4q94 0 191 27q17 26 49 108q14 0 30 -8q-12 -42 -32 -144q-4 -11 -14 -12q-40 -7 -105 -7 q-35 0 -90 2t-63 2h-51q-36 -1 -119 -8t-89 -7q-126 0 -205.5 84.5t-79.5 213.5zM149 335q0 -122 61.5 -212.5t161.5 -90.5q51 0 96 24q7 12 15 48q18 81 34 281q20 250 20 279q-50 19 -150 19q-78 0 -133.5 -53t-80 -130t-24.5 -165z" />
<glyph unicode="&#x153;" horiz-adv-x="743" d="M45 168q0 110 59 199q45 67 112.5 104.5t100.5 37.5q48 0 85.5 -32.5t52.5 -89.5q60 79 150 122q57 0 88 -21.5t31 -76.5q0 -46 -29 -82.5t-83 -73.5q-75 -51 -155 -63q0 -66 20 -108.5t56 -42.5q63 0 151 60q11 -2 13 -20l-121 -80q-26 -21 -80 -21q-89 0 -113 103 q-42 -51 -95.5 -77t-82.5 -26q-65 0 -112.5 51.5t-47.5 136.5zM132 195q0 -170 103 -170q60 0 102.5 84.5t42.5 183.5q0 79 -24 124.5t-72 45.5q-44 0 -79.5 -41t-54 -102t-18.5 -125zM459 215q64 15 124 63.5t60 106.5q0 83 -58 83q-34 0 -76.5 -83.5t-49.5 -169.5z" />
<glyph unicode="&#x2c6;" horiz-adv-x="419" d="M132 564q107 105 180 192h12l87 -197q-11 -12 -26 -12l-85 114l-151 -114q-7 0 -11.5 4.5t-5.5 8.5v4z" />
<glyph unicode="&#x2dc;" horiz-adv-x="609" d="M176 616l57 48q26 21 43 21q26 0 69 -17t75 -17q16 0 61 29q14 -6 15 -19l-36 -30q-48 -40 -63 -40q-24 0 -69.5 18t-74.5 18q-19 0 -62 -30q-15 6 -15 19z" />
<glyph unicode="&#x2000;" horiz-adv-x="484" />
<glyph unicode="&#x2001;" horiz-adv-x="968" />
<glyph unicode="&#x2002;" horiz-adv-x="484" />
<glyph unicode="&#x2003;" horiz-adv-x="968" />
<glyph unicode="&#x2004;" horiz-adv-x="322" />
<glyph unicode="&#x2005;" horiz-adv-x="242" />
<glyph unicode="&#x2006;" horiz-adv-x="161" />
<glyph unicode="&#x2007;" horiz-adv-x="161" />
<glyph unicode="&#x2008;" horiz-adv-x="121" />
<glyph unicode="&#x2009;" horiz-adv-x="193" />
<glyph unicode="&#x200a;" horiz-adv-x="53" />
<glyph unicode="&#x2010;" horiz-adv-x="347" d="M24 227q10 21 17 48h143q64 0 123 9q8 -4 8 -16q-14 -26 -18 -47h-142q-64 0 -123 -9q-8 4 -8 15z" />
<glyph unicode="&#x2011;" horiz-adv-x="347" d="M24 227q10 21 17 48h143q64 0 123 9q8 -4 8 -16q-14 -26 -18 -47h-142q-64 0 -123 -9q-8 4 -8 15z" />
<glyph unicode="&#x2012;" horiz-adv-x="347" d="M24 227q10 21 17 48h143q64 0 123 9q8 -4 8 -16q-14 -26 -18 -47h-142q-64 0 -123 -9q-8 4 -8 15z" />
<glyph unicode="&#x2013;" horiz-adv-x="632" d="M24 224q10 21 17 48h271q165 0 280 9q8 -2 8 -16q-15 -26 -17 -48h-274q-162 0 -277 -8q-8 4 -8 15z" />
<glyph unicode="&#x2014;" horiz-adv-x="1040" d="M24 224q10 21 17 48h479q287 0 481 9q8 -2 8 -16q-13 -23 -17 -48h-475q-290 0 -485 -8q-8 4 -8 15z" />
<glyph unicode="&#x2018;" horiz-adv-x="153" d="M40 669q0 38 33.5 92t74.5 95q16 -5 19 -17q-54 -70 -54 -114q0 -26 42 -72q-32 -47 -78 -60q-37 48 -37 76z" />
<glyph unicode="&#x2019;" horiz-adv-x="173" d="M47 608q19 26 36 59t17 54q0 28 -41 72q30 47 77 60q37 -45 37 -76q0 -37 -33.5 -91t-74.5 -95q-16 4 -18 17z" />
<glyph unicode="&#x201a;" horiz-adv-x="184" d="M4 -135q20 26 36.5 59.5t16.5 54.5q0 27 -41 72q32 46 77 60q38 -48 38 -76q0 -38 -33.5 -92t-74.5 -95q-18 5 -19 17z" />
<glyph unicode="&#x201c;" horiz-adv-x="304" d="M40 669q0 38 33.5 92t74.5 95q16 -5 19 -17q-54 -70 -54 -114q0 -26 42 -72q-32 -47 -78 -60q-37 48 -37 76zM191 669q0 38 33.5 92t74.5 95q17 -6 18 -17q-53 -72 -53 -114q0 -27 41 -72q-29 -46 -77 -60q-37 47 -37 76z" />
<glyph unicode="&#x201d;" horiz-adv-x="324" d="M47 608q19 26 36 59t17 54q0 28 -41 72q30 47 77 60q37 -45 37 -76q0 -37 -33.5 -91t-74.5 -95q-16 4 -18 17zM197 608q20 25 37 58.5t17 54.5q0 27 -42 72q33 48 78 60q37 -47 37 -76q0 -37 -33.5 -91t-74.5 -95q-16 3 -19 17z" />
<glyph unicode="&#x201e;" horiz-adv-x="335" d="M4 -135q20 26 36.5 59.5t16.5 54.5q0 27 -41 72q32 46 77 60q38 -48 38 -76q0 -38 -33.5 -92t-74.5 -95q-18 5 -19 17zM155 -135q53 72 53 114q0 27 -41 72q29 46 77 60q37 -47 37 -76q0 -38 -33.5 -92t-74.5 -95q-17 6 -18 17z" />
<glyph unicode="&#x2022;" horiz-adv-x="423" d="M100 291q25 43 58.5 71.5t86.5 48.5q35 -32 56.5 -72.5t21.5 -73.5q0 -34 -51.5 -75.5t-96.5 -41.5q-35 99 -75 143z" />
<glyph unicode="&#x2026;" horiz-adv-x="571" d="M16 51q24 41 73 60q39 -37 39 -74q0 -17 -26 -37.5t-49 -20.5q-17 48 -37 72zM216 51q24 41 73 60q39 -37 39 -74q0 -17 -26 -37.5t-49 -20.5q-17 48 -37 72zM416 51q24 41 73 60q39 -37 39 -74q0 -17 -26 -37.5t-49 -20.5q-17 48 -37 72z" />
<glyph unicode="&#x202f;" horiz-adv-x="193" />
<glyph unicode="&#x2039;" horiz-adv-x="347" d="M53 241l2 14q141 111 220 192q7 -1 12.5 -5.5t6.5 -9.5l2 -4l-157 -183l102 -197q-8 -15 -26 -16q-68 110 -162 209z" />
<glyph unicode="&#x203a;" horiz-adv-x="347" d="M51 51l157 182l-103 198q8 14 27 16q60 -100 161 -210l-1 -13q-144 -115 -220 -192q-7 0 -12.5 5t-7.5 9z" />
<glyph unicode="&#x205f;" horiz-adv-x="242" />
<glyph unicode="&#x20ac;" horiz-adv-x="462" d="M27 172q10 19 13 35h123q112 0 176 6q7 -2 7 -12q-12 -20 -13 -34h-140h-27q2 -53 22 -89.5t52 -36.5q25 0 50.5 8t47 20t49.5 32q10 -3 14 -20l-119 -80q-31 -21 -79 -21q-58 0 -87.5 47t-29.5 112q0 13 1 25q-28 -2 -54 -4q-6 4 -6 12zM52 276q11 18 13 35h53 q18 44 45.5 80t54.5 57t53.5 35.5t43.5 20t24 5.5q14 0 30.5 -2.5t31 -6.5t26.5 -9t19 -9q-11 -51 -21 -110q-5 -4 -12 -4t-11 2q0 13 -7 76q-7 7 -18 12.5t-22 9t-20.5 5t-16.5 1.5q-38 0 -74.5 -45.5t-57.5 -117.5h18q105 0 161 6q6 -2 6 -12q-12 -24 -13 -34h-173 q-58 0 -126 -7q-7 4 -7 12z" />
<glyph unicode="&#xe000;" horiz-adv-x="510" d="M0 0v510h510v-510h-510z" />
</font>
</defs>
</svg>
