<?xml version="1.0" standalone="no"?>
<!DOCTYPE svg PUBLIC "-//W3C//DTD SVG 1.1//EN" "http://www.w3.org/Graphics/SVG/1.1/DTD/svg11.dtd" >
<svg xmlns="http://www.w3.org/2000/svg">
<metadata></metadata>
<defs>
<font id="itsadzokes01regular" horiz-adv-x="2928" >
<font-face units-per-em="4096" ascent="3520" descent="-576" />
<missing-glyph horiz-adv-x="1300" />
<glyph horiz-adv-x="4096" />
<glyph horiz-adv-x="4096" />
<glyph unicode="&#xd;" horiz-adv-x="240" />
<glyph unicode=" "  horiz-adv-x="1300" />
<glyph unicode="&#x09;" horiz-adv-x="1300" />
<glyph unicode="&#xa0;" horiz-adv-x="1300" />
<glyph unicode="!" horiz-adv-x="1052" d="M120 2744h611q108 0 154.5 -40.5t46.5 -145.5q0 -19 -2 -39q-65 -816 -213 -1467h-357zM141 288q0 157 113.5 270.5t270.5 113.5t270.5 -113.5t113.5 -270.5t-113.5 -270.5t-270.5 -113.5t-270.5 113.5t-113.5 270.5zM233 2646l212 -1496h193q133 613 194 1378q2 20 2 30 q0 57 -19 72.5t-82 15.5h-500zM239 288q0 -116 85 -201t201 -85t201 85t85 201t-85 201t-201 85t-201 -85t-85 -201zM337 288q0 76 56 132t132 56t132 -56t56 -132t-56 -132t-132 -56t-132 56t-56 132zM346 2548h390q0 -2 -1 -12q-57 -710 -176 -1288h-29z" />
<glyph unicode="&#x22;" horiz-adv-x="1584" d="M120 3116l34 34l513 -135q29 -29 29 -156q0 -336 -154 -660l-67 -139h-206v208q0 88 -10 212.5t-27.5 255t-47 238t-64.5 142.5zM271 3018q41 -144 68.5 -361.5t27.5 -388.5v-110h46l41 83q144 304 144 618q0 42 -4 74zM403 2882l97 -26q0 -170 -46 -336q-13 147 -40 302 zM888 3116l34 34l513 -135q29 -29 29 -156q0 -336 -154 -660l-67 -139h-206v208q0 123 -16 294t-52 339.5t-81 214.5zM1039 3018q41 -144 68.5 -361.5t27.5 -388.5v-110h46l41 83q144 304 144 618q0 42 -4 74zM1171 2882l97 -26q0 -170 -46 -336q-13 147 -40 302z" />
<glyph unicode="#" horiz-adv-x="2709" d="M120 574l24 240h565l65 784h-577l24 240h571l45 514h240l-45 -514h728l43 514h240l-43 -514h589l-24 -240h-586l-62 -784h595l-24 -240h-605l-43 -513h-240l43 513h-726l-43 -513h-240l43 513h-557zM228 672h449q42 0 71.5 -31.5t26.5 -74.5l-34 -407h43l35 423 q2 26 15 46.5t34.5 32t48.5 11.5h726q42 0 71.5 -31.5t26.5 -74.5l-34 -407h43l35 423q1 19 9 35.5t21 28.5t30.5 19t37.5 7h516l5 44h-487q-42 0 -71.5 31.5t-26.5 74.5l62 784q3 39 30 64.5t68 25.5h497l5 44h-481q-42 0 -71.5 31.5t-26.5 74.5l34 408h-43l-35 -424 q-3 -39 -30 -64.5t-68 -25.5h-728q-42 0 -71.5 32t-26.5 75l36 407h-43l-37 -425q-3 -39 -30 -64t-68 -25h-482l-5 -44h469q42 0 71.5 -31.5t26.5 -74.5l-65 -784q-3 -39 -30 -64.5t-68 -25.5h-476zM851 822l65 784q3 39 30 64.5t68 25.5h725q28 0 51 -14.5t36 -39t11 -52.5 l-62 -784q-3 -39 -30 -64.5t-68 -25.5h-728q-42 0 -71.5 31.5t-26.5 74.5zM949 814h728l62 784h-725z" />
<glyph unicode="$" horiz-adv-x="2425" d="M120 34l29 739h98q46 -331 479 -582q117 -68 290 -86v869l-339 154q-251 114 -380 283q-123 161 -124 375q0 132 45 246t123 198t185.5 147.5t230 101t259.5 53.5v148h98v-140q63 4 130 4q31 0 60 -1v137h98v-144q134 -14 239 -54q160 -61 270 -61q106 0 119 75h78 l43 -677h-78q-14 147 -142 339q-72 107 -214.5 182.5t-314.5 96.5v-840l451 -210q451 -240 452 -624q0 -676 -903 -753v-143h-98v137q-73 -4 -151 -4q-20 0 -39 1v-134h-98v140q-104 11 -194 41q-195 66 -374 206q-61 48 -120 48q-110 0 -110 -268h-98zM231 372q31 21 84 26 q-45 55 -78 112zM271 1786q0 -180 104 -316q114 -149 343 -253l626 -284l109 -55q287 -174 287 -465q0 -165 -104 -269q103 24 185 55.5t156 82t123.5 116t78 158.5t28.5 207q0 162 -97.5 295t-300.5 241l-842 403q-94 55 -161 106q-150 114 -150 323q0 140 76 237 q-115 -42 -208 -107q-253 -174 -253 -475zM369 1786v1q0 237 190 379q-1 -17 -1 -35q0 -257 188 -401q71 -54 175 -114l844 -404q181 -97 266 -212q78 -107 78 -237v-1q0 -89 -20 -161.5t-58 -127t-87.5 -94.5t-115.5 -71q10 51 10 105q0 349 -338 550q-105 55 -231 113 t-274.5 123.5t-236.5 106.5q-206 94 -305 224q-84 109 -84 256zM754 2131q0 -32 5 -60.5t12 -51.5t21.5 -46t26 -39t33.5 -35.5t36 -30.5t41.5 -28.5t42 -26t44.5 -26.5v636q-262 -62 -262 -292zM1114 99q19 -1 39 -1q82 0 151 9v737l-190 86v-831zM1114 1733 q36 -18 105.5 -50.5t84.5 -39.5v802q-29 1 -60 1q-70 0 -130 -6v-707zM1402 126q240 66 240 287q0 236 -240 381v-668zM1915 2323q55 -49 114 -136l-9 156q-10 -5 -24 -8.5t-23.5 -5t-29 -3.5t-28.5 -3z" />
<glyph unicode="%" horiz-adv-x="3360" d="M120 1747q0 307 225.5 528t523.5 221q293 0 521 -223t228 -525.5t-228 -526t-521 -223.5t-521 223.5t-228 525.5zM218 1749q0 -263 199 -458q68 -66 142 -110q-57 144 -57 350v432q0 150 12 216.5t50 139.5q-78 -44 -149 -114q-197 -193 -197 -456zM316 1749 q0 164 89 294q-1 -35 -1 -80v-432q0 -39 2 -76q-90 131 -90 294zM600 1531q0 -80 5 -138.5t22 -118t45.5 -96t78 -59.5t118.5 -23t118.5 23t78 59.5t45.5 96t22 118t5 138.5v432q0 80 -5 138.5t-22 118t-45.5 96t-78 59.5t-118.5 23t-118.5 -23t-78 -59.5t-45.5 -96 t-22 -118t-5 -138.5v-432zM713 0l1781 2496h108l-1780 -2496h-109zM1176 1179q76 44 145 112q199 195 199 456.5t-199 455.5q-69 68 -145 112q60 -129 60 -352v-432q0 -148 -12 -213.5t-48 -138.5zM1332 2039q90 -131 90 -292q0 -160 -89 -290q1 33 1 74v432q0 39 -2 76z M1742 749q0 307 225.5 528t523.5 221q293 0 521 -223t228 -525.5t-228 -526t-521 -223.5t-521 223.5t-228 525.5zM1840 751q0 -263 199 -458q68 -66 142 -110q-57 144 -57 350v432q0 150 12 216.5t50 139.5q-78 -44 -149 -114q-197 -193 -197 -456zM1938 751q0 164 89 294 q-1 -35 -1 -80v-432q0 -39 2 -76q-90 131 -90 294zM2222 533q0 -56 2.5 -100.5t9.5 -91t19.5 -81.5t33 -66.5t48 -51.5t67 -32t89.5 -12t89.5 12t67 32t48 51.5t33 66.5t19.5 81.5t9.5 91t2.5 100.5v432q0 56 -2.5 100.5t-9.5 91t-19.5 81.5t-33 66.5t-48 51.5t-67 32 t-89.5 12t-89.5 -12t-67 -32t-48 -51.5t-33 -66.5t-19.5 -81.5t-9.5 -91t-2.5 -100.5v-432zM2798 181q76 44 145 112q199 195 199 456.5t-199 455.5q-69 68 -145 112q60 -129 60 -352v-432q0 -148 -12 -213.5t-48 -138.5zM2954 1041q90 -131 90 -292q0 -160 -89 -290 q1 33 1 74v432q0 39 -2 76z" />
<glyph unicode="&#x26;" horiz-adv-x="3080" d="M120 688v2q0 301 282 477q219 137 497 226q-120 219 -120 338q0 394 277.5 600.5t632.5 206.5q374 0 641 -225v-369h-98q-1 115 -65 257q-108 239 -478 239q-270 0 -270 -214q0 -212 267 -639l758 -1211q18 -27 36 -51q316 194 316 554q0 152 -43 263.5t-137 249.5 q-109 158 -284 158v98h628v-98q-190 0 -190 -106q0 -21 57 -202q67 -213 67 -363q0 -412 -348 -631q84 -87 159.5 -118.5t214.5 -31.5v-98q-232 -92 -647 -92q-263 0 -446 121q-232 -29 -515 -29q-1190 0 -1192 688zM218 688q0 -102 31.5 -185.5t83 -141t127.5 -102 t156 -71.5t176 -46q-231 178 -232 546v2q0 318 119 514q-120 -54 -225 -120q-236 -147 -236 -394v-2zM316 688v2q0 185 177 302q-31 -136 -31 -302v-2q0 -198 63 -351q-65 36 -109.5 81t-72 114t-27.5 156zM658 688q1 -590 654 -590q225 0 416 18q-44 47 -81 106l-633 979 q-42 65 -76 123q-280 -162 -280 -634v-2zM877 1731q0 -100 146 -357q33 -57 73 -120l634 -979q56 -87 126.5 -144.5t175.5 -91t241 -33.5q235 0 407 30q-108 43 -205 144q-83 98 -113 143l-759 1212q-282 450 -282 691q0 91 38 159q-129 -46 -244 -132q-238 -177 -238 -522z M975 1731q0 296 199 443l49 35q9 -266 297 -726l759 -1213q64 -96 131 -163q-66 -3 -137 -3q-174 0 -281.5 56t-179.5 168l-633 979q-103 160 -157 280q-6 14 -16 34.5t-14 30t-9 23.5t-6.5 27t-1.5 29zM2605 1550q38 -31 70 -73q7 40 28 73h-98z" />
<glyph unicode="'" horiz-adv-x="816" d="M120 3116l34 34l513 -135q29 -29 29 -156q0 -336 -154 -660l-67 -139h-206v208q0 88 -10 212.5t-27.5 255t-47 238t-64.5 142.5zM271 3018q41 -144 68.5 -361.5t27.5 -388.5v-110h46l41 83q144 304 144 618q0 42 -4 74zM403 2882l97 -26q0 -170 -46 -336q-13 147 -40 302 z" />
<glyph unicode="(" horiz-adv-x="1216" d="M120 1248q0 980 962 1389l14 -48q-304 -290 -304 -1341q0 -973 304 -1341l-14 -48q-962 415 -962 1389zM218 1248q0 -783 664 -1178q-188 410 -188 1178q0 788 170 1169q-646 -392 -646 -1169zM316 1248q0 564 361 906q-81 -359 -81 -906q0 -542 92 -913 q-372 346 -372 913z" />
<glyph unicode=")" horiz-adv-x="1216" d="M120 -93q304 368 304 1341q0 1051 -304 1341l14 48q962 -409 962 -1389q0 -974 -962 -1389zM334 70q664 395 664 1178q0 777 -646 1169q170 -381 170 -1169q0 -768 -188 -1178zM527 335q93 372 93 913q0 547 -81 906q361 -342 361 -906q0 -567 -373 -913z" />
<glyph unicode="*" horiz-adv-x="1306" d="M120 2344l283 134h5q14 0 33 -40q35 -72 83 -149t95 -127l-9 62q-14 82 -15 154q0 20 5 104t5 102q0 58 -19 72l19 24l259 -178q10 -10 10 -14q0 -14 -32 -52q-40 -50 -81 -130.5t-60 -153.5l48 43q61 53 155 99l152 74q58 29 58 51h28l-28 -315q0 -14 -29 -14 q-15 0 -84 4.5t-89 4.5q-91 0 -173 -19l53 -19q72 -24 154 -77l136 -92q56 -38 80 -38q4 0 4.5 2.5t4.5 2.5l15 -29l-288 -134h-5q-14 0 -33 43q-32 69 -77.5 144t-91.5 125l10 -53q14 -82 14 -149q0 -21 -4.5 -110t-4.5 -106q0 -58 14 -67l-14 -24l-264 178q-5 5 -5 14 q0 14 31 55q38 50 77.5 127.5t59.5 144.5l-48 -39q-47 -40 -137 -89.5t-170 -85.5q-58 -26 -58 -50h-29l29 316q0 13 34 13q15 0 83.5 -4t88.5 -4q82 0 173 19l-57 24q-72 24 -154 77l-137 91q-55 38 -79 37h-5l-9 -3zM277 1925q11 6 32 16.5l38 19t32 16.5h-28.5t-38.5 1 t-30 4zM328 2334q11 -7 28.5 -18.5t32.5 -21.5t28 -19l-44 80zM565 1713l47 -33q5 50 5 118q-28 -50 -52 -85zM693 2386q27 47 50 80l-44 31q-6 -84 -6 -111zM883 1908q29 -52 47 -89l50 23q-8 5 -43 29t-54 37zM929 2197q44 -1 95 -5l4 54q-9 -4 -20 -9.5l-20 -10l-19 -9.5 t-20.5 -10t-19.5 -10z" />
<glyph unicode="+" horiz-adv-x="2362" d="M120 1154l10 192h960v984l192 -10v-974h960l-10 -192h-950v-946l-192 10v936h-970z" />
<glyph unicode="," horiz-adv-x="1008" d="M120 288q0 157 113.5 270.5t270.5 113.5t270.5 -113.5t113.5 -270.5q0 -372 -175 -600q-173 -226 -387 -226v98q101 0 199.5 78t98.5 170q0 96 -120 96q-157 0 -270.5 113.5t-113.5 270.5zM218 288q0 -116 85 -201t201 -85q82 0 134.5 -33t73.5 -94q78 171 78 413 q0 116 -85 201t-201 85t-201 -85t-85 -201zM316 288q0 76 56 132t132 56t132 -56t56 -132q0 -122 -22 -224q-72 36 -166 36q-76 0 -132 56t-56 132z" />
<glyph unicode="-" horiz-adv-x="1960" d="M120 1152l24 192h1696l-24 -192h-1696z" />
<glyph unicode="." horiz-adv-x="1008" d="M120 288q0 157 113.5 270.5t270.5 113.5t270.5 -113.5t113.5 -270.5t-113.5 -270.5t-270.5 -113.5t-270.5 113.5t-113.5 270.5zM218 288q0 -116 85 -201t201 -85t201 85t85 201t-85 201t-201 85t-201 -85t-85 -201zM316 288q0 76 56 132t132 56t132 -56t56 -132t-56 -132 t-132 -56t-132 56t-56 132z" />
<glyph unicode="/" horiz-adv-x="1885" d="M120 0l1443 2635l202 -139l-1448 -2635zM248 30l36 -26l1352 2462l-39 27z" />
<glyph unicode="0" horiz-adv-x="2736" d="M120 1248q0 529 374.5 910.5t873.5 381.5q490 0 869 -381.5t379 -910.5t-379 -910.5t-869 -381.5t-869 381.5t-379 910.5zM218 1247.5q0 -488.5 350 -840.5q205 -207 445 -293q-92 111 -158 291q-65 179 -65 843q0 654 64 842q63 183 156 292q-242 -85 -446 -293 q-346 -353 -346 -841.5zM316 1248q0 449 318 773q65 67 134 119q-76 -241 -76 -892q0 -664 74 -886q-65 51 -128 114q-322 324 -322 772zM888 1248q0 -647 59 -810q144 -398 421 -398q282 0 421 398q60 172 60 810q0 640 -60 810q-142 398 -421 398q-285 0 -421 -398 q-59 -172 -59 -810zM1725 2381q90 -106 156 -290q66 -185 66 -843q0 -655 -65 -842q-63 -182 -155 -290q237 86 441 291q350 353 350 841.5t-350 840.5q-205 206 -443 292zM1970 362q75 206 75 886q0 354 -17.5 569.5t-57.5 316.5q65 -51 128 -114q322 -324 322 -772 t-322 -772q-63 -63 -128 -114z" />
<glyph unicode="1" horiz-adv-x="1776" d="M120 0v98q384 0 384 336v1196q0 240 -288 240v98q456 125 576 528h480v-2062q0 -336 384 -336v-98h-1536zM413 1934q94 -42 138.5 -111.5t50.5 -192.5v-1196q0 -223 -141 -336h854q-141 113 -141 336v1964h-312q-122 -318 -449 -464zM597 1923q220 142 330 377h149v-1866 q0 -134 45 -238h-466q45 104 45 238v1199q-5 103 -28.5 168t-74.5 122z" />
<glyph unicode="2" horiz-adv-x="2456" d="M120 0v98q142 0 320 276l720 1018q370 523 370 738q0 312 -394 312q-482 0 -643 -305q-75 -142 -75 -242h-98v368q328 277 816 277q1046 0 1046 -730q0 -273 -267 -672l-553 -783q-51 -72 -51 -125q0 -132 329 -132h148q450 0 450 482h98v-580h-2216zM341 98h926 q-54 54 -54 132q0 35 9 66t19.5 50t33.5 55q5 7 7 11l552 782q250 373 250 616q0 137 -40.5 242.5t-118 175t-174 113t-223.5 68.5q100 -105 100 -279q0 -122 -92.5 -315t-295.5 -480l-719 -1016q-93 -144 -180 -221zM556 196q23 32 46 68l718 1015q208 293 304 493 q102 213 102 358q0 63 -11 120q66 -32 113.5 -70t84 -90.5t55 -122t18.5 -157.5q0 -214 -232 -561l-553 -783q-46 -70 -66 -118.5t-20 -117.5q0 -7 1 -13v-6q1 -6 2 -15h-562zM2137 98h101v104q-42 -61 -101 -104z" />
<glyph unicode="3" horiz-adv-x="2365" d="M120 201v379h98q6 -270 166 -382q206 -144 474 -144q619 0 619 666q0 485 -538 652q-125 39 -125 65q0 16 47 28q472 114 472 503q0 474 -466 474q-257 0 -387.5 -124t-138.5 -375h-98v371q275 226 624 226q1090 0 1090 -558q0 -435 -729 -557v-7q1016 -137 1017 -698 q0 -764 -1387 -764q-418 0 -738 245zM1224 1524q94 16 169.5 35.5t151 48t136 68.5t101.5 92q40 48 58.5 96.5t18.5 117.5q0 66 -18.5 121.5t-49.5 96.5t-78 74.5t-96.5 56t-113 41t-121 29t-125.5 19.5q174 -146 174 -452q0 -281 -207 -444zM1288 1310q287 -212 287 -590 q0 -453 -267 -641q98 12 182 28.5t169.5 42t155.5 60.5t130 81t104.5 107.5t68.5 135.5q29 85 29 186q0 48 -8.5 92t-25 80.5t-37.5 69t-49.5 60.5t-58 51t-65.5 44t-69 37t-72 32q-195 82 -474 124zM1474 1688q55 125 55 280q0 174 -53 307q61 -17 108 -39.5t89 -56.5 t65 -84t23 -113t-23.5 -112t-69.5 -83.5t-88.5 -55t-105.5 -43.5zM1563 1151q56 -16 98 -29.5t95.5 -35t92.5 -44.5t78.5 -56.5t64.5 -71t41 -87.5t16 -107v-1q0 -65 -14 -121.5t-37.5 -99.5t-59.5 -80.5t-75.5 -65t-91 -51.5t-99 -41t-106.5 -33q107 198 107 493 q0 245 -110 431z" />
<glyph unicode="4" horiz-adv-x="2482" d="M120 528v150l1170 1818h688v-1728h196v-240h-196v-94q0 -336 384 -336v-98h-1536v98q384 0 384 336v94h-1090zM218 626h992q42 0 70 -28t28 -70v-94q0 -223 -141 -336h854q-141 113 -141 336v94q0 42 28 70t70 28h98v44h-98q-42 0 -70 28t-28 70v1630h-537l-35 -67v-1563 q0 -42 -28 -70t-70 -28h-978l-14 -21v-23zM294 768h916v1423zM1361 196q45 104 45 238v1866h376v-1866q0 -134 45 -238h-466z" />
<glyph unicode="5" horiz-adv-x="2358" d="M120 262v318h98q6 -282 238 -411q206 -115 444 -115q570 0 570 702q0 682 -570 682q-433 0 -699 -223l-72 32l86 1067q5 62 5 182h1808l48 -672h-98q-24 178 -81.5 209t-306.5 31h-975q-86 0 -150 -29t-103.5 -84.5t-61.5 -126t-30 -163.5l-25 -293q265 168 655 168 q1338 0 1338 -790t-1338 -790q-473 0 -780 306zM289 2016q124 146 326 146h975q193 0 282 -19q55 -11 85 -32l-20 287h-1620q-1 -55 -4 -92zM404 2221l7 79h1435l3 -53q-94 13 -259 13h-975q-115 0 -211 -39zM1309 76q99 12 183 29t170.5 44.5t155.5 63t130.5 87.5 t102.5 115t65 147.5t24 183.5t-23.5 183t-65 147t-102.5 114.5t-130 87.5t-155 63.5t-169.5 44.5t-180.5 29q254 -190 254 -659q0 -486 -259 -680zM1557 222q109 210 109 534q0 308 -105 512q57 -16 106 -34.5t99 -44t90 -55.5t75.5 -69.5t59.5 -86t37.5 -105.5t13.5 -127 q0 -103 -30.5 -185t-79.5 -135.5t-122 -99.5q-99 -62 -253 -104z" />
<glyph unicode="6" horiz-adv-x="2640" d="M120 1224q0 1316 1344 1316q462 0 826 -296v-318h-98q-2 107 -39.5 193t-102 146t-155.5 100t-198.5 58.5t-232.5 18.5q-574 0 -581 -847l17 -12q225 121 420 121q1200 0 1200 -864q0 -884 -1200 -884t-1200 1268zM218 1224q0 -496 190.5 -781t590.5 -361 q-209 209 -209 758q0 438 135 648q-49 -14 -95 22.5t-45 85.5q5 583 272 808q-423 -87 -631 -379t-208 -801zM316 1224q0 380 118.5 624.5t365.5 367.5q-110 -243 -113 -620v-1q0 -38 12.5 -69t32.5 -54t51 -47q-91 -231 -91 -585q0 -355 87 -587q-239 112 -351 353 t-112 618zM888 840q0 -786 432 -786t432 786q0 766 -432 766t-432 -766zM1630 72q145 19 261.5 53.5t217.5 95t168.5 144.5t106 204t38.5 271q0 107 -20 197.5t-56.5 161.5t-91 129t-119.5 100.5t-147 74.5t-168.5 52.5t-187.5 33.5q116 -110 167 -299t51 -450 q0 -270 -50.5 -464t-169.5 -304zM1846 214q102 240 102 626q0 383 -100 607q112 -31 196.5 -79t148.5 -120t97.5 -174.5t33.5 -233.5q0 -135 -33 -240.5t-97.5 -180t-149.5 -124t-198 -81.5z" />
<glyph unicode="7" horiz-adv-x="2410" d="M120 1824v672h2170v-98q-21 -2 -517 -608q-405 -495 -405 -1790h-728q0 805 952 1757q72 72 72 158q0 149 -317 149h-891q-177 0 -200 -86l-38 -154h-98zM218 2095q36 36 92.5 49.5t145.5 17.5h891q401 0 414 -232q286 348 392 468h-1935v-303zM316 2246v54h1624 l-152 -184q-38 38 -82 64.5t-98 44.5t-118.5 26.5t-142.5 8.5h-893q-15 -1 -32.5 -1h-28t-23.5 -1t-26 -4t-28 -8zM742 98h529q11 912 231 1424q-710 -769 -760 -1424zM852 196q67 418 415 890q-80 -382 -93 -890h-322z" />
<glyph unicode="8" horiz-adv-x="2813" d="M120 720q0 571 915 698v8q-627 123 -627 508q0 606 998.5 606t998.5 -606q0 -396 -614 -506v-13q902 -140 902 -695q-1 -764 -1287 -764t-1286 764zM218 720q0 -96 23 -177t63 -142t100 -111t127 -84.5t151 -61t165.5 -42.5t177.5 -28q-235 188 -235 646q0 387 163 586 q-98 -18 -177 -38t-162.5 -51.5t-147 -70.5t-117.5 -94.5t-87 -123.5q-44 -94 -44 -208zM316 720q0 57 13.5 107.5t36 89t56.5 72.5t70.5 58.5t83.5 46.5t89 37t93 30q-66 -181 -66 -441q0 -308 98 -504q-82 21 -148.5 48t-129 69t-104.5 94.5t-67 127t-25 165.5zM506 1934 q0 -148 131 -252q129 -102 409 -158q-112 136 -112 396q0 168 40 298t118 205q-100 -11 -182 -31.5t-159 -58.5t-129.5 -91t-84 -131.5t-31.5 -176.5zM604 1934q0 59 14.5 109t40 86.5t62.5 66t78.5 49t92.5 35.5q-56 -158 -56 -360q0 -110 20 -203l10 -44q-53 19 -95.5 41 t-82.5 53t-62 73.5t-22 93.5zM888 720q0 -666 519 -666q518 0 518 666q0 647 -442 647h-153q-442 0 -442 -647zM1032 1920q0 -450 374.5 -450t374.5 450q0 522 -374.5 522t-374.5 -522zM1721 2423q79 -72 118.5 -203.5t39.5 -299.5q0 -264 -113 -397q4 1 8 1 q166 30 284.5 80.5t185.5 137.5q33 44 48 87t15 105q0 424 -586 489zM1789 75l77 10q88 14 163 31.5t151.5 45t136.5 62t113.5 83.5t88.5 108t55.5 136.5t20.5 168.5q0 65 -14 123t-38.5 104.5t-62 87t-78.5 72t-94 59t-104 47t-112.5 37t-114.5 29.5t-115 24 q161 -191 161 -583q0 -458 -234 -645zM1921 2280q135 -42 211.5 -123t76.5 -223q0 -35 -8.5 -65t-20 -52t-34.5 -42.5t-41 -33.5t-50.5 -28.5t-52 -23t-56.5 -21.5q31 119 31 252q0 166 -36 295zM2023 217q98 187 98 503q0 261 -64 436q60 -18 107.5 -36t101 -45t92.5 -60 t72 -75.5t50 -98t17 -120.5v-1q0 -91 -25.5 -166t-67 -127t-104.5 -94t-128.5 -68t-148.5 -48z" />
<glyph unicode="9" horiz-adv-x="2640" d="M120 1656q0 884 1200 884t1200 -1268q0 -1316 -1344 -1316q-475 0 -826 286v318h98q6 -267 243 -411q176 -95 485 -95q574 0 581 847l-17 12q-225 -121 -420 -121q-1200 0 -1200 864zM218 1656q0 -148 39 -266t107 -199t169.5 -140t216.5 -92t258 -52q-218 207 -218 749 q0 270 50.5 464t169.5 304q-145 -19 -261.5 -53.5t-217.5 -95t-168.5 -144.5t-106 -204t-38.5 -271zM316 1656q0 135 33 240.5t97 180t149.5 124t198.5 81.5q-102 -234 -102 -626q0 -374 100 -607q-112 31 -196.5 78.5t-148.5 119.5t-97.5 175t-33.5 234zM888 1656 q0 -766 432 -766t432 766q0 786 -432 786t-432 -786zM1583 92q423 87 631 379t208 801q0 496 -190.5 781t-590.5 361q209 -209 209 -758q0 -438 -135 -648q49 14 95 -22.5t45 -85.5q-5 -583 -272 -808zM1840 280q110 242 113 620v1q0 38 -12.5 69.5t-32.5 54t-51 46.5 q91 223 91 585q0 355 -87 587q239 -112 351 -353t112 -618q0 -380 -118.5 -624.5t-365.5 -367.5z" />
<glyph unicode=":" horiz-adv-x="1008" d="M120 288q0 157 113.5 270.5t270.5 113.5t270.5 -113.5t113.5 -270.5t-113.5 -270.5t-270.5 -113.5t-270.5 113.5t-113.5 270.5zM120 1688q0 157 113.5 270.5t270.5 113.5t270.5 -113.5t113.5 -270.5t-113.5 -270.5t-270.5 -113.5t-270.5 113.5t-113.5 270.5zM218 288 q0 -116 85 -201t201 -85t201 85t85 201t-85 201t-201 85t-201 -85t-85 -201zM218 1688q0 -116 85 -201t201 -85t201 85t85 201t-85 201t-201 85t-201 -85t-85 -201zM316 288q0 76 56 132t132 56t132 -56t56 -132t-56 -132t-132 -56t-132 56t-56 132zM316 1688q0 76 56 132 t132 56t132 -56t56 -132t-56 -132t-132 -56t-132 56t-56 132z" />
<glyph unicode=";" horiz-adv-x="1008" d="M120 288q0 157 113.5 270.5t270.5 113.5t270.5 -113.5t113.5 -270.5q0 -355 -185 -590.5t-377 -235.5v98q101 0 199.5 78t98.5 170q0 96 -120 96q-157 0 -270.5 113.5t-113.5 270.5zM120 1688q0 157 113.5 270.5t270.5 113.5t270.5 -113.5t113.5 -270.5t-113.5 -270.5 t-270.5 -113.5t-270.5 113.5t-113.5 270.5zM218 288q0 -116 85 -201t201 -85q156 0 203 -114q83 171 83 400q0 116 -85 201t-201 85t-201 -85t-85 -201zM218 1688q0 -116 85 -201t201 -85t201 85t85 201t-85 201t-201 85t-201 -85t-85 -201zM316 288q0 76 56 132t132 56 t132 -56t56 -132q0 -120 -25 -222q-72 34 -163 34q-76 0 -132 56t-56 132zM316 1688q0 76 56 132t132 56t132 -56t56 -132t-56 -132t-132 -56t-132 56t-56 132z" />
<glyph unicode="&#x3c;" horiz-adv-x="1128" d="M120 1206v84l888 896v-357l-307 -312q-163 -166 -163 -268.5t163 -269.5l307 -312v-357zM218 1246l692 -698v79l-279 283q-146 149 -180 265q-22 73 0 147q34 118 180 264l279 283v79l-692 -698v-4z" />
<glyph unicode="=" horiz-adv-x="2376" d="M120 763l24 192h2112l-24 -192h-2112zM120 1531l24 192h2112l-24 -192h-2112z" />
<glyph unicode="&#x3e;" horiz-adv-x="1128" d="M120 310v357l307 312q163 166 163 268.5t-163 269.5l-307 312v357l888 -896v-84zM218 548l692 698v4l-692 698v-79l279 -283q146 -149 180 -265q22 -73 0 -147q-34 -118 -180 -264l-279 -283v-79z" />
<glyph unicode="?" horiz-adv-x="1959" d="M120 2190l30 528l102 -3q0 -44 20.5 -92.5t51.5 -48.5q16 0 64 34l106 74q65 46 179.5 76t229.5 30q151 0 286 -21t255.5 -69t207 -119t137 -176.5t50.5 -236.5q0 -198 -179 -354q-61 -53 -346 -238t-296 -304l-14 -154h-384q-44 538 -44 544q0 166 173 282l447 283 q110 78 110 200q0 259 -403 259q-294 0 -471 -156q-209 -180 -209 -336zM234 2465q11 14 24 29q-11 6 -22 15zM428 288q0 157 113.5 270.5t270.5 113.5t270.5 -113.5t113.5 -270.5t-114 -270.5t-270.5 -113.5t-270 113.5t-113.5 270.5zM526 288q0 -117 84.5 -201.5 t201 -84.5t201.5 85t85 201t-85 201t-201.5 85t-201 -84.5t-84.5 -201.5zM624 288q0 77 55.5 132.5t132 55.5t132.5 -55.5t56 -132.5t-56 -132.5t-132.5 -55.5t-132 55.5t-55.5 132.5zM674 1660l36 -446h205l5 65q5 50 34 100q70 123 307 277q281 183 335 230 q145 127 145 280q0 237 -205 374q-86 58 -200 93q68 -84 68 -208q0 -175 -153 -281l-449 -284q-61 -41 -94.5 -86.5t-33.5 -113.5zM772 1664q0 37 21.5 61.5t62.5 52.5l449 284q197 138 197 363v19q141 -105 141 -278q0 -109 -112 -206q-49 -43 -324 -222 q-257 -167 -338 -310q-33 -57 -43 -116h-25z" />
<glyph unicode="@" horiz-adv-x="3759" d="M120 1124q0 69 6 140q17 190 77.5 370t153 329.5t214.5 281.5t258.5 234.5t288.5 180.5q424 218 904 219q249 -1 477.5 -62.5t410.5 -170.5t324.5 -254.5t237.5 -319.5q167 -307 167 -668q0 -69 -6 -140q-79 -892 -769 -892q-291 0 -410 310q-34 57 -78 57q-35 0 -77 -36 q-295 -323 -588 -323q-170 0 -312 42.5t-249 125t-167 214.5t-60 302q0 113 24 247q163 881 1043 881q351 0 569 -176q118 0 153 75q35 82 152 0l-211 -1302q-9 -56 -9 -97q0 -224 242 -224q577 0 649 796q6 66 6 130q0 205 -55.5 390t-154.5 331t-223.5 260t-274.5 199 q-363 206 -820 206l-2 1q-244 -1 -474.5 -61t-419.5 -166t-342.5 -241t-266.5 -293q-145 -204 -217 -415.5t-72 -469.5v-4q0 -165 37 -318t101 -278t154.5 -235.5t194 -195t222.5 -151.5q363 -206 819.5 -206t855.5 206l40 -86q-423 -218 -904 -218q-249 0 -478 61.5 t-411.5 170.5t-325 255t-236.5 320q-167 311 -168 668zM1021 1064q0 -387 346 -527q-98 135 -98 380q0 168 42.5 397.5t96.5 375.5q80 221 207 351q-240 -78 -378.5 -265t-193.5 -483q-22 -122 -22 -229zM1119 1064q0 184 54 356.5t137 286.5q-55 -152 -97 -384.5 t-42 -405.5q0 -56 5 -107q-57 97 -57 254zM1367 917q0 -439 341 -439q390 0 572 833q40 183 40 372q0 411 -341 411q-428 0 -570 -783q-42 -228 -42 -394zM2181 721q4 4 23.5 24.5t30.5 31.5q33 28 62.5 40.5t78.5 19.5q32 0 56.5 -8.5t46 -28.5t34 -37t34.5 -49q2 41 9 91 l190 1173q-70 -60 -187 -60q-35 0 -62 22q-77 62 -175 99q96 -130 96 -356q0 -254 -70.5 -520t-166.5 -442zM2380 935q59 171 97.5 366t38.5 382q0 76 -10 144q28 -7 53 -7q32 0 63 4l-147 -908q-46 19 -95 19z" />
<glyph unicode="A" horiz-adv-x="3252" d="M120 684q0 844 1644 844h216v220q0 694 -634 694q-170 0 -340 -38q-109 -24 -109 -81q0 -39 51 -93q86 -84 86 -208q0 -121 -86.5 -207.5t-207.5 -86.5t-207.5 86.5t-87.5 208.5q0 103 62 191q109 153 337.5 239.5t501.5 86.5q1402 0 1402 -1272v-834q0 -336 384 -336 v-98h-960q-48 0 -101 80t-72 68q-242 -192 -595 -192q-1284 0 -1284 728zM218 684q0 -84 20 -156t54.5 -126t85 -99.5t106.5 -77.5t124 -59q136 -52 337 -82l72 -10q-227 188 -227 610q0 408 224 626q76 73 98 77q-226 -35 -392.5 -93t-285.5 -155q-106 -86 -161 -193.5 t-55 -261.5zM316 684q0 130 45 217.5t135 162.5q119 98 327 161q-131 -218 -131 -541q0 -136 24 -258t68 -211v-1q-80 19 -144 43.5t-126.5 63.5t-104.5 88t-67.5 119.5t-25.5 155.5zM543 2023q0 -53 26.5 -98.5t71.5 -72t99 -26.5q80 0 138 57.5t58 138.5q0 83 -58 139 q-38 41 -51.5 70t-27.5 92v8q-136 -66 -212 -174q-44 -62 -44 -134zM641 2024q0 25 9 48t26.5 43.5t31.5 34.5t34 30q26 -44 66 -87q30 -29 30 -71q0 -41 -28.5 -69.5t-69.5 -28.5t-70 29.5t-29 70.5zM888 684q0 -630 516 -630q341 0 586 202q-10 298 -10 625v549h-296 q-796 0 -796 -746zM1832 2393q246 -199 246 -645v-867q0 -324 10 -622l2 -48q31 -29 63 -77q18 -27 29 -36h609q-141 113 -141 336v834q0 242 -52.5 432t-157 328t-256 228.5t-352.5 136.5zM2098 2193l3 -2q228 -123 339.5 -350t111.5 -573v-834q0 -134 45 -238h-368 q-26 37 -43 57v10q-10 296 -10 618v867q0 259 -78 445z" />
<glyph unicode="B" horiz-adv-x="3224" d="M120 0v98q370 0 384 293v1719q0 288 -384 288v98h1256q1344 0 1344 -476.5t-761 -590.5v-14q1145 -138 1145 -695q0 -720 -1344 -720h-1640zM466 98h708v2300h-698q126 -101 126 -288v-1721q-9 -189 -136 -291zM658 196q37 88 42 190v1724q0 102 -35 190h411v-2104h-418z M1272 98h488q576 0 576 622t-768 647h-296v-1269zM1272 1465h104q704 0 704 519q0 414 -704 414h-104v-933zM1974 2366q124 -90 157 -168q47 -111 47 -192q0 -216 -86 -352q-36 -67 -110 -122q640 104 640 486q0 172 -264 266q-129 46 -234 61zM2189 120q23 2 41 5l129 21 q108 18 199.5 47t175.5 76.5t143 109.5t94 149t35 192q0 414 -817 562q249 -191 249 -615q0 -323 -179 -486q-45 -45 -70 -61zM2221 1691q55 143 55 253q0 170 -49 277q297 -77 297 -203q0 -221 -303 -327zM2435 261q97 189 97 363q0 325 -88 497q464 -136 464 -401 q0 -91 -40.5 -173.5t-107 -141.5t-151.5 -97t-174 -47z" />
<glyph unicode="C" horiz-adv-x="2676" d="M120 1248q0 314 90 557.5t262.5 405.5t422.5 245.5t569 83.5q412 0 694 -134q362 -172 362 -444q0 -78 -40 -147.5t-107.5 -111.5t-145.5 -42q-119 0 -205 86t-86 205q0 81 39 146q48 100 48 128q0 70 -91 113q-217 103 -468 103q-414 0 -504 -317q-72 -254 -72 -877 q0 -730 72 -892q134 -302 504 -302q159 0 311 34.5t281 96.5t237 141t194 174l69 -70q-91 -101 -207 -185t-254 -149.5t-300.5 -102.5t-330.5 -37q-648 0 -996 329.5t-348 962.5zM218 1247q0 -316 93.5 -551t273 -383t440.5 -212q-97 84 -166 240t-69 850t76 961 q41 144 138 236q-382 -100 -584 -388.5t-202 -752.5zM316 1248q0 686 460 945q-84 -284 -84 -945q0 -728 78 -944q-454 257 -454 944zM2034 1939q0 -69 59.5 -124.5t133.5 -55.5q78 0 136.5 61.5t58.5 141.5q0 214 -330 366q24 -39 27 -79.5t-10 -78t-29.5 -73t-31 -78.5 t-14.5 -80zM2132 1946q0 16 2.5 28t5 17.5t8.5 16t9 17.5q38 82 51 126q116 -86 116 -189q0 -40 -30 -72.5t-68 -32.5q-36 0 -65 27.5t-29 61.5z" />
<glyph unicode="D" horiz-adv-x="3224" d="M120 0v98q370 0 384 293v1671q0 336 -384 336v98h1640q415 0 715.5 -142.5t464.5 -425t164 -680.5q0 -301 -93 -537t-267 -392t-423 -237.5t-561 -81.5h-1640zM461 2398q141 -113 141 -336v-1673q-9 -189 -136 -291h708v2300h-713zM655 2300h421v-2104h-417q36 85 41 190 v1676q0 134 -45 238zM1272 98h488q365 0 470 254q106 259 106 897t-106 895q-105 254 -470 254h-488v-2300zM2207 148q380 94 589.5 376.5t209.5 723.5q0 436 -210.5 720t-587.5 379q73 -69 113 -166q113 -275 113 -933t-113 -933q-40 -98 -114 -167zM2433 337 q99 297 99 911q0 612 -98 909q228 -124 351 -356t123 -553q0 -325 -122.5 -557t-352.5 -354z" />
<glyph unicode="E" d="M120 1248q0 629 350 960.5t994 331.5q426 0 726 -146t459 -436.5t159 -709.5h-1920q0 -730 72 -892q134 -302 504 -302q445 0 713 150q304 170 483 452l83 -53q-189 -297 -518 -485q-283 -162 -761 -162q-648 0 -996 329.5t-348 962.5zM218 1248q0 -473 206.5 -762 t600.5 -385q-97 84 -155 215q-80 181 -80 932v98q0 621 114 889q36 86 104 154q-384 -100 -587 -388.5t-203 -752.5zM316 1248q0 694 470 950q-94 -288 -94 -852v-98q0 -726 78 -944q-454 256 -454 944zM888 1346h1152q0 647 -72 803q-135 293 -504 293q-366 0 -470 -245 q-106 -251 -106 -851zM1909 2392q91 -80 148 -202q81 -176 81 -844h570q-21 424 -226 689t-573 357zM2163 2186q382 -221 439 -742h-366q-6 541 -73 742z" />
<glyph unicode="F" horiz-adv-x="2796" d="M120 0v98q384 0 384 336v1628q0 336 -384 336v98h2496l80 -710l-98 -10q-91 622 -710 622h-616v-1077h240q336 0 336 359h98v-816h-98q0 359 -336 359h-240v-789q0 -336 384 -336v-98h-1536zM461 98h854q-141 113 -141 336v1964h-713q141 -113 141 -336v-1628 q0 -223 -141 -336zM654 196q46 107 46 238v1628q0 130 -46 238h422v-1866q0 -130 46 -238h-468zM1740 1272q64 -32 108 -85v170q-44 -53 -108 -85zM2322 2398q140 -76 230 -210l-24 210h-206z" />
<glyph unicode="G" horiz-adv-x="2916" d="M120 1248q0 315 91 559t264 405.5t423.5 244.5t570.5 83q239 0 397 -62q155 -61 279 -61q125 0 140 75h98l43 -677h-98q-12 136 -162 359q-87 129 -274 198.5t-423 69.5q-419 0 -509 -317q-72 -254 -72 -877q0 -730 72 -892q134 -302 499 -302q196 0 308.5 89.5 t112.5 270.5v400q0 336 -384 336v98h1360v-98q-304 0 -304 -336v-644q-33 4 -70 4q-198 0 -487 -127q-207 -91 -536 -91q-645 0 -992 330t-347 962zM218 1248q0 -474 206 -762.5t601 -384.5q-97 85 -155 215q-80 181 -80 932q0 637 76 904q41 143 138 235 q-383 -101 -584.5 -388t-201.5 -751zM316 1248q0 680 459 944q-83 -290 -83 -944q0 -726 78 -945q-454 256 -454 945zM1837 1150q141 -113 141 -336v-400q0 -194 -106 -308q45 14 84 31q289 127 498 134v543q0 224 119 336h-736zM2031 1052h364q-39 -104 -39 -238v-453 q-133 -18 -291 -75q11 61 11 128v400q0 134 -45 238zM2168 2320q63 -57 140 -186l-14 218q-46 -28 -126 -32z" />
<glyph unicode="H" horiz-adv-x="3504" d="M120 0v98q384 0 384 336v1628q0 336 -384 336v98h1436v-98q-284 0 -284 -336v-717h960v717q0 336 -284 336v98h1436v-98q-384 0 -384 -336v-1628q0 -336 384 -336v-98h-1436v98q284 0 284 336v813h-960v-813q0 -336 284 -336v-98h-1436zM461 98h834q-121 97 -121 336 v1628q0 223 121 336h-834q141 -113 141 -336v-1628q0 -223 -141 -336zM655 196q45 104 45 238v1628q0 134 -45 238h456q-35 -81 -35 -238v-1628q0 -134 35 -238h-456zM2209 98h834q-141 113 -141 336v1628q0 223 141 336h-834q121 -113 121 -336v-1628q0 -239 -121 -336z M2393 196q35 104 35 238v1628q0 157 -35 238h456q-45 -104 -45 -238v-1628q0 -134 45 -238h-456z" />
<glyph unicode="I" horiz-adv-x="1776" d="M120 0v98q384 0 384 336v1628q0 336 -384 336v98h1536v-98q-384 0 -384 -336v-1628q0 -336 384 -336v-98h-1536zM461 98h854q-141 113 -141 336v1628q0 223 141 336h-854q141 -113 141 -336v-1628q0 -223 -141 -336zM655 196q45 104 45 238v1628q0 134 -45 238h466 q-45 -104 -45 -238v-1628q0 -134 45 -238h-466z" />
<glyph unicode="J" horiz-adv-x="1804" d="M0 0v98q532 0 532 569v1395q0 336 -384 336v98h1536v-98q-384 0 -384 -336v-1231q0 -612 -432 -805q-157 -70 -349 -70q-300 0 -519 44zM312 60q98 -6 207 -6q340 0 511.5 206t171.5 571v1231q0 223 141 336h-854q141 -113 141 -336v-1395q0 -461 -318 -607zM583 154 q145 190 145 513v1395q0 134 -45 238h466q-45 -104 -45 -238v-1231q0 -307 -128 -481.5t-393 -195.5z" />
<glyph unicode="K" horiz-adv-x="3252" d="M120 0v98q384 0 384 336v1628q0 336 -384 336v98h1536v-98q-384 0 -384 -336v-1258l1063 1357q56 71 56 122q0 109 -265 115v98h816v-98q-141 0 -254 -53q-146 -78 -259 -223l-464 -592q158 0 227 -48t179 -279l418 -829q139 -276 403 -276v-98q-278 -44 -546 -44 q-502 0 -729 446l-328 644l-317 -398v-214q0 -336 384 -336v-98h-1536zM461 98h854q-141 113 -141 336v1628q0 223 141 336h-854q141 -113 141 -336v-1628q0 -223 -141 -336zM655 196q45 104 45 238v1628q0 134 -45 238h466q-45 -104 -45 -238v-1628q0 -134 45 -238h-466z M1648 1125q17 -13 28 -35l328 -644q47 -92 105 -162t135.5 -122.5t178.5 -80t223 -27.5q143 0 288 13q-142 83 -233 263l-418 830q-87 182 -147 242q-42 30 -171 30q-36 0 -61 20zM1770 1122l168 214q4 1 10.5 1.5t16 0t18 -1.5t22 -2.5t22 -3t25 -4t25.5 -3.5 q42 -46 118 -206l419 -831q37 -73 82 -134h-50q-107 0 -194 23t-153.5 68.5t-116 106t-90.5 141.5zM2447 2398q29 -33 37 -76q49 42 101 76h-138z" />
<glyph unicode="L" horiz-adv-x="2716" d="M120 2398v98h1531v-98q-379 0 -379 -336v-1964h536q619 0 710 622l98 -10l-80 -710h-2411v98q350 0 379 254v1710q0 336 -384 336zM461 2398q141 -113 141 -336v-1710q0 -76 -36 -142.5t-92 -111.5h700v1964q0 224 140 336h-853zM655 2300h465q-44 -104 -44 -238v-1866 h-411q35 87 35 156v1710q0 134 -45 238zM2242 98h206l24 210q-90 -134 -230 -210z" />
<glyph unicode="M" horiz-adv-x="5232" d="M120 0v98q384 0 384 336v1628q0 336 -384 336v98h960q43 0 97.5 -64t64.5 -64q247 172 510 172q746 0 1040 -320q269 320 688 320q1248 0 1248 -908v-1198q0 -336 384 -336v-98h-1496v98q344 0 344 336v1150q0 858 -480 858q-374 0 -626 -301q146 -197 146 -559v-1148 q0 -336 344 -336v-98h-1456v98q344 0 344 336v1150q0 858 -480 858q-247 0 -487 -178q7 -60 7 -202v-1628q0 -336 344 -336v-98h-1496zM461 98h843q-130 113 -130 336v1628v53v48.5t-0.5 40t-2.5 38t-5.5 31t-9 30.5t-13 25t-17.5 25.5t-23.5 21.5t-30.5 23h-611 q141 -113 141 -336v-1628q0 -223 -141 -336zM655 196q45 104 45 238v1628q0 134 -45 238h384q14 -14 22.5 -29t12 -41t4 -41t-0.5 -59.5t-1 -67.5v-1628q0 -134 42 -238h-463zM2082 2423q248 -220 248 -839v-1150q0 -223 -130 -336h832q-130 113 -130 336v1148 q0 196 -45.5 332t-136.5 240q-196 214 -638 269zM2306 2279q140 -40 230 -99.5t161 -155.5q107 -145 107 -442v-1148q0 -134 42 -238h-460q42 104 42 238v1150q0 439 -122 695zM3810 2423q248 -220 248 -839v-1150q0 -223 -130 -336h843q-141 113 -141 336v1198 q0 155 -40 279t-111 210.5t-175.5 149t-225 98.5t-268.5 54zM4034 2279q115 -33 202.5 -84t155.5 -127.5t104 -186.5t36 -249v-1198q0 -134 45 -238h-463q42 104 42 238v1150q0 439 -122 695z" />
<glyph unicode="N" horiz-adv-x="3504" d="M120 0v98q384 0 384 336v1628q0 336 -384 336v98h955q43 0 96.5 -66t63.5 -66q252 176 517 176q1248 0 1248 -908v-1198q0 -336 384 -336v-98h-1496v98q344 0 344 336v1150q0 858 -480 858q-247 0 -487 -178q7 -60 7 -202v-1628q0 -336 344 -336v-98h-1496zM461 98h843 q-130 113 -130 336v1628q0 136 -6 191q-2 19 2 36q-11 7 -47.5 50.5t-56.5 58.5h-605q141 -113 141 -336v-1628q0 -223 -141 -336zM655 196q45 104 45 238v1628q0 134 -45 238h370q14 -17 22.5 -28.5t14.5 -26.5t9 -22t4.5 -28t1.5 -32t-0.5 -45t-0.5 -56v-1628 q0 -134 42 -238h-463zM2082 2423q248 -220 248 -839v-1150q0 -223 -130 -336h843q-141 113 -141 336v1198q0 155 -40 279t-111 210.5t-175.5 149t-225 98.5t-268.5 54zM2306 2279q115 -33 202.5 -84t155.5 -127.5t104 -186.5t36 -249v-1198q0 -134 45 -238h-463 q42 104 42 238v1150q0 439 -122 695z" />
<glyph unicode="O" d="M120 1248q0 629 350 960.5t994 331.5q426 0 726 -146t459 -436.5t159 -709.5q0 -633 -348.5 -962.5t-995.5 -329.5q-648 0 -996 329.5t-348 962.5zM218 1248q0 -467 201 -754.5t586 -387.5q-98 92 -139 238q-76 267 -76 904t76 904q41 145 138 236q-382 -100 -584 -388.5 t-202 -751.5zM316 1248q0 343 116.5 580.5t343.5 364.5q-46 -138 -65 -367.5t-19 -577.5q0 -349 19.5 -579t65.5 -369q-461 257 -461 948zM888 1248q0 -623 72 -877q90 -317 504 -317q365 0 470 254q106 259 106 940q0 683 -106 940q-105 254 -470 254q-414 0 -504 -317 q-72 -254 -72 -877zM1911 104q391 97 595 385t204 759q0 466 -205 755.5t-593 387.5q73 -69 113 -166q113 -275 113 -977t-113 -977q-40 -98 -114 -167zM2137 293q99 301 99 955q0 652 -98 953q474 -258 474 -953q0 -704 -475 -955z" />
<glyph unicode="P" horiz-adv-x="3224" d="M120 0v98q384 0 384 336v1671q-14 293 -384 293v98h1640q602 0 939 -237q405 -285 405 -722.5t-405 -675.5q-323 -189 -939 -189h-488v-238q0 -336 384 -336v-98h-1536zM461 98h854q-141 113 -141 336v1964h-708q127 -101 136 -291v-1673q0 -224 -141 -336zM655 196 q45 104 45 238v1676q-5 106 -41 190h417v-1866q0 -134 45 -238h-466zM1272 770h488q576 0 576 766q0 862 -576 862h-488v-1628zM2159 2366q275 -234 275 -830q0 -528 -268 -741q552 76 751 402q89 145 89 339q0 387 -363 643q-192 135 -484 187zM2411 2194q97 -40 175 -95 q322 -227 322 -563q0 -97 -26 -180t-70.5 -145.5t-108 -113.5t-134 -86t-154.5 -61l23 46q94 212 94 540q0 408 -121 658z" />
<glyph unicode="Q" d="M120 1248q0 314 90.5 557t262.5 405t422.5 246t568.5 84t568 -84t422.5 -246t263 -405.5t90.5 -556.5q0 -253 -57.5 -460.5t-169.5 -362t-275 -259.5t-374.5 -157.5t-467.5 -52.5q-594 0 -594 -170q0 -68 163 -68l1079 1q205 0 205 198h77q5 -35 5 -72q0 -421 -470 -421 h-1302q0 474 349 589q-414 108 -635 421.5t-221 813.5zM218 1248q0 -467 201 -754.5t586 -387.5q-98 92 -139 238q-76 267 -76 904t76 904q41 145 138 236q-254 -67 -428.5 -215.5t-266 -382t-91.5 -542.5zM316 1248q0 343 116.5 580.5t343.5 364.5q-46 -138 -65 -367.5 t-19 -577.5q0 -349 19.5 -579t65.5 -369q-461 257 -461 948zM729 -478h1200q229 0 319 122q-60 -23 -136 -23q-99 0 -542 -0.5t-537 -0.5q-215 0 -251 115q-40 -85 -53 -213zM888 1248q0 -623 72 -877q90 -317 504 -317q365 0 470 254q106 259 106 940q0 683 -106 940 q-105 254 -470 254q-414 0 -504 -317q-72 -254 -72 -877zM1911 104q391 97 595 385t204 759q0 466 -205 755.5t-593 387.5q73 -69 113 -166q113 -275 113 -977t-113 -977q-40 -98 -114 -167zM2137 293q99 301 99 955q0 652 -98 953q474 -258 474 -953q0 -704 -475 -955z" />
<glyph unicode="R" horiz-adv-x="3252" d="M120 -1v98q384 0 384 336v1671q-14 293 -384 293v98h1440q602 0 939 -237q405 -285 405 -580q0 -503 -713 -785q182 -9 257 -78l446 -642q53 -76 298 -76v-97q-279 -44 -546 -44q-479 0 -729 446l-258 460h-387v-429q0 -336 384 -336v-98h-1536zM461 97h854 q-141 113 -141 336v1964h-708q127 -101 136 -291v-1673q0 -224 -141 -336zM655 195q45 104 45 238v1676q-5 106 -41 190h417v-1866q0 -134 45 -238h-466zM1272 960h288q576 0 576 738q0 699 -576 699h-288v-1437zM1758 885l244 -435q51 -90 110 -159t136.5 -124t178 -84 t219.5 -29q111 0 225 8q-25 16 -57 55l-439 632q-53 40 -189 46q-29 2 -51.5 18t-32 40t-9 49.5t16.5 48t45 33.5q336 133 493.5 306.5t157.5 387.5q0 244 -363 500q-180 127 -448 180q239 -195 239 -660q0 -651 -422 -796q-21 -7 -54 -17zM1901 831q53 20 94 51 q4 -79 65 -136q75 -46 121 -49q93 -7 125 -21l364 -524h-24q-203 0 -334.5 90t-223.5 256zM2205 1111q127 224 127 587q0 156 -26 286q-24 111 -59 193q76 -35 139 -79q322 -226 322 -420q0 -176 -132 -322q-122 -134 -371 -245z" />
<glyph unicode="S" horiz-adv-x="2425" d="M120 0l81 720l98 -10q18 -128 88.5 -246.5t180 -209.5t262.5 -145.5t323 -54.5q489 0 489 335q0 259 -288 408l-677 307q-252 114 -380 283q-123 162 -124 375q0 373 295 576q294 202 736 202q235 0 397 -62q160 -61 270 -61q106 0 119 75l88 10l53 -677l-98 -10 q-14 149 -142 339q-90 133 -273.5 210.5t-413.5 77.5q-450 0 -450 -315q0 -180 111 -265q101 -77 268 -163l720 -336q451 -240 452 -624q0 -783 -1152 -783q-354 0 -685 204q-69 43 -119 43q-113 0 -133 -213zM250 275q59 34 133 23q-68 79 -112 169zM271 1762 q0 -179 104 -316q113 -149 342 -253l680 -308l53 -30q290 -168 290 -466q0 -182 -114 -291q105 23 189.5 56.5t159 86.5t125 122t79 164.5t28.5 211.5q0 162 -97 295t-301 241l-719 336q-177 91 -284 173q-150 114 -150 343q0 140 71 236q-110 -42 -203 -106 q-253 -174 -253 -495zM369 1762v2q0 256 190 398q-1 -17 -1 -35q0 -58 9 -109.5t22 -93t39.5 -81.5t48 -68.5t61.5 -61.5t67 -52.5t77 -48.5t79 -44.5t86 -44.5l719 -335q181 -96 265 -212q78 -107 78 -237v-1q0 -121 -36 -214t-96.5 -152.5t-150.5 -104.5q12 58 12 122 q0 90 -22.5 169.5t-58.5 139.5t-89 113t-107.5 90.5t-120.5 71.5l-682 310q-207 94 -305 222q-84 111 -84 257zM1874 2319q75 -66 133 -164l-15 190q-43 -23 -118 -26z" />
<glyph unicode="T" d="M100 1786l80 710h2568l80 -710l-98 -10q-91 622 -730 622h-152v-1964q0 -336 384 -336v-98h-1536v98q384 0 384 336v1964h-152q-639 0 -730 -622zM243 2184q93 137 238 214h-213zM1037 98h854q-141 113 -141 336v1964h-572v-1964q0 -223 -141 -336zM1231 196 q45 104 45 238v1866h376v-1866q0 -134 45 -238h-466zM2447 2398q145 -77 238 -214l-25 214h-213z" />
<glyph unicode="U" horiz-adv-x="3444" d="M60 2398v98h960q192 0 192 -434v-1484q0 -524 480 -524q247 0 487 178q-7 86 -7 202v2008q504 0 672 99l96 -1v-2106q0 -336 384 -336v-98h-960q-43 0 -99.5 62.5t-66.5 62.5q-247 -169 -506 -169q-1248 0 -1248 908v1198q0 336 -384 336zM401 2398q141 -113 141 -336 v-1198q0 -148 36.5 -268t101.5 -205t161.5 -148.5t207.5 -101t248 -59.5q-183 158 -183 496v1484q0 203 -42 291q-20 45 -52 45h-619zM595 2300h393q28 -76 28 -238v-1484q0 -195 57 -340q-58 23 -107 48.5t-94 58t-80.5 70t-64.5 85t-47.5 102t-29 120.5t-10.5 142v1198 q0 134 -45 238zM2270 434q0 -14 -0.5 -52t0 -49t1.5 -39t3.5 -39t7.5 -32.5t12.5 -34t18 -28.5t24.5 -32q21 -23 34 -30h612q-141 113 -141 336v1997q-180 -77 -572 -86v-1911zM2368 434v1816q225 10 376 46v-1862q0 -134 45 -238h-381q-32 37 -34 52q-6 78 -6 186z" />
<glyph unicode="V" horiz-adv-x="2858" d="M60 2398v98h912q163 0 293 -355l532 -1308l528 1308q33 82 33 103q0 154 -244 154v98h624v-98q-215 -5 -316 -276q-701 -1745 -867 -2166h-121q-107 0 -143 93q-158 411 -464.5 1170t-363.5 903q-69 171 -173 233q-72 43 -230 43zM397 2398q94 -82 157 -239 q54 -135 362 -899t466 -1176q6 -17 17 -23.5t35 -6.5h54l271 683l2 4q-38 14 -55 55l-532 1310q-78 212 -157 273q-22 17 -45 19h-575zM595 2300h364q57 -47 123 -230l533 -1311q11 -26 28 -48l-201 -508q-152 391 -443 1112.5t-354 879.5q-23 57 -50 105zM2402 2398 q20 -23 33 -52q23 29 49 52h-82z" />
<glyph unicode="W" horiz-adv-x="4394" d="M60 2398v98h912q163 0 293 -355l532 -1308l361 894l-159 395q-69 171 -173 233q-72 43 -230 43v98h1462v-98q-277 -2 -277 -161q0 -42 20 -96l532 -1308l528 1308q33 82 33 103q0 154 -244 154v98h624v-98q-215 -5 -316 -276q-701 -1745 -867 -2166h-121q-107 0 -143 93 q-118 311 -355.5 898.5t-261.5 648.5q-394 -977 -655 -1640h-121q-107 0 -143 93q-158 411 -464.5 1170t-363.5 903q-69 171 -173 233q-72 43 -230 43zM397 2398q94 -82 157 -239q54 -135 362 -899t466 -1176q6 -17 17 -23.5t35 -6.5h54l271 683l2 4q-38 14 -55 55 l-532 1310q-78 212 -157 273q-22 17 -45 19h-575zM595 2300h364q57 -47 123 -230l533 -1311q11 -27 28 -48l-201 -508q-152 391 -443 1112.5t-354 879.5q-23 57 -50 105zM1933 2398q94 -82 157 -239q54 -135 362 -899t466 -1176q4 -12 10 -18t16 -9t26 -3h54l271 683l2 4 q-38 14 -55 55l-532 1310q-27 72 -27 131q0 96 62 161h-812zM2131 2300h459q-5 -30 -5 -63q0 -77 33 -167l533 -1311q11 -26 28 -48l-201 -508q-152 391 -443 1112.5t-354 879.5q-23 57 -50 105zM3938 2398q20 -23 33 -52q23 29 49 52h-82z" />
<glyph unicode="X" horiz-adv-x="2872" d="M120 0v98q150 0 212 10q117 25 293 266l486 665l-548 1083q-74 145 -182 226q-67 50 -221 50v98h912q166 -8 341 -355l265 -526l375 526q77 108 77 118q0 139 -258 139v98h776v-98q-153 0 -259 -53q-118 -68 -229 -223l-432 -605l578 -1143q140 -276 446 -276v-98h-1496 v98q234 9 234 140q0 50 -34 117l-296 585l-429 -585q-68 -92 -68 -151q0 -106 217 -106h16v-98h-776zM475 2398q103 -90 175 -232l893 -1767q45 -88 45 -161q0 -83 -52 -140h878q-120 83 -195 232l-894 1767q-70 139 -129 209q-74 86 -126 92h-595zM511 98h87q-19 26 -26 58 q-31 -33 -61 -58zM686 2300h374q19 -8 62 -58q51 -60 116 -189l893 -1768q24 -47 53 -89h-501q3 21 3 42q0 97 -55 206l-893 1767q-24 47 -52 89zM2178 2398q24 -28 37 -63q38 35 76 63h-113z" />
<glyph unicode="Y" horiz-adv-x="3026" d="M60 2398v98h955q157 0 341 -355l512 -891l511 891q32 56 32 109q0 145 -301 148v98h796v-98q-269 0 -427 -276l-530 -927v-761q0 -336 384 -336v-98h-1536v98q384 0 384 336v478l-675 1210q-154 276 -446 276zM391 2398q119 -82 201 -228l675 -1210q12 -22 12 -48v-478 q0 -223 -141 -336h854q-141 113 -141 336v719q-44 7 -68 48l-513 893q-63 121 -120.5 196t-102.5 99q-16 8 -32 9h-624zM625 2300h379q27 -16 68 -70q52 -68 112 -183l514 -895q22 -38 55 -62v-656q0 -134 45 -238h-466q45 104 45 238v478q0 51 -25 95l-675 1210 q-24 44 -52 83zM2450 2398q35 -35 49 -82q44 47 93 82h-142z" />
<glyph unicode="Z" d="M120 0v98q136 0 326 276l1111 1717q48 74 48 158q0 149 -331 149h-270q-619 0 -710 -622l-98 10l80 710h2532v-98q-102 0 -162 -46q-8 -6 -153 -230l-1111 -1717q-43 -66 -43 -158q0 -149 328 -149h333q619 0 710 622l98 -10l-80 -710h-2608zM339 98h963q-52 52 -61 149 q0 120 59 211l1111 1717q118 182 147 223h-917q53 -53 62 -149q0 -113 -64 -211l-1111 -1718q-99 -144 -189 -222zM340 2188q91 134 230 210h-206zM559 196q228 341 640 980t523 808q79 123 79 265q0 26 -5 51h579q-224 -345 -635.5 -982t-521.5 -806q-75 -115 -75 -265 q0 -26 5 -51h-589zM2434 98h206l24 210q-90 -134 -230 -210z" />
<glyph unicode="[" horiz-adv-x="1584" d="M120 -141v2771h1344v-98h-192q-384 0 -384 -336v-1903q0 -336 384 -336h192v-98h-1344zM218 -43h713q-141 113 -141 336v1903q0 223 141 336h-713v-2575zM316 55v2379h421q-45 -104 -45 -238v-1903q0 -134 45 -238h-421z" />
<glyph unicode="\" horiz-adv-x="1885" d="M120 2496l202 139l1443 -2635l-197 -139zM249 2466l1352 -2462l36 26l-1349 2463z" />
<glyph unicode="]" horiz-adv-x="1584" d="M120 -6h192q384 0 384 336v1866q0 336 -384 336h-192v98h1344v-2734h-1344v98zM653 -6h713v2538h-713q141 -113 141 -336v-1866q0 -223 -141 -336zM847 92q45 104 45 238v1866q0 134 -45 238h421v-2342h-421z" />
<glyph unicode="^" horiz-adv-x="1363" d="M120 2595l547 543h29l547 -543l-176 -176l-117 115q-166 164 -268 164t-269 -164l-117 -115zM259 2595l38 -38l47 47q149 147 264 181q36 11 74 11q34 1 74 -11q118 -36 263 -181l47 -47l38 38l-422 419z" />
<glyph unicode="_" horiz-adv-x="3504" d="M120 99h3264v-240h-3264v240zM218 1v-44h3068v44h-3068z" />
<glyph unicode="`" horiz-adv-x="1320" d="M323 3107v48h624q24 0 53 -38q26 -54 174 -438h-202l-306 289q-142 134 -343 139zM714 3057q57 -54 163.5 -154t133.5 -126h20q-87 225 -111 280h-206z" />
<glyph unicode="a" horiz-adv-x="3252" d="M120 684q0 844 1644 844h216v220q0 694 -634 694q-170 0 -340 -38q-109 -24 -109 -81q0 -39 51 -93q86 -84 86 -208q0 -121 -86.5 -207.5t-207.5 -86.5t-207.5 86.5t-87.5 208.5q0 103 62 191q109 153 337.5 239.5t501.5 86.5q1402 0 1402 -1272v-834q0 -336 384 -336 v-98h-960q-48 0 -101 80t-72 68q-242 -192 -595 -192q-1284 0 -1284 728zM218 684q0 -84 20 -156t54.5 -126t85 -99.5t106.5 -77.5t124 -59q136 -52 337 -82l72 -10q-227 188 -227 610q0 408 224 626q76 73 98 77q-226 -35 -392.5 -93t-285.5 -155q-106 -86 -161 -193.5 t-55 -261.5zM316 684q0 130 45 217.5t135 162.5q119 98 327 161q-131 -218 -131 -541q0 -136 24 -258t68 -211v-1q-80 19 -144 43.5t-126.5 63.5t-104.5 88t-67.5 119.5t-25.5 155.5zM543 2023q0 -53 26.5 -98.5t71.5 -72t99 -26.5q80 0 138 57.5t58 138.5q0 83 -58 139 q-38 41 -51.5 70t-27.5 92v8q-136 -66 -212 -174q-44 -62 -44 -134zM641 2024q0 25 9 48t26.5 43.5t31.5 34.5t34 30q26 -44 66 -87q30 -29 30 -71q0 -41 -28.5 -69.5t-69.5 -28.5t-70 29.5t-29 70.5zM888 684q0 -630 516 -630q341 0 586 202q-10 298 -10 625v549h-296 q-796 0 -796 -746zM1832 2393q246 -199 246 -645v-867q0 -324 10 -622l2 -48q31 -29 63 -77q18 -27 29 -36h609q-141 113 -141 336v834q0 242 -52.5 432t-157 328t-256 228.5t-352.5 136.5zM2098 2193l3 -2q228 -123 339.5 -350t111.5 -573v-834q0 -134 45 -238h-368 q-26 37 -43 57v10q-10 296 -10 618v867q0 259 -78 445z" />
<glyph unicode="b" horiz-adv-x="3224" d="M120 0v98q370 0 384 293v1719q0 288 -384 288v98h1256q1344 0 1344 -476.5t-761 -590.5v-14q1145 -138 1145 -695q0 -720 -1344 -720h-1640zM466 98h708v2300h-698q126 -101 126 -288v-1721q-9 -189 -136 -291zM658 196q37 88 42 190v1724q0 102 -35 190h411v-2104h-418z M1272 98h488q576 0 576 622t-768 647h-296v-1269zM1272 1465h104q704 0 704 519q0 414 -704 414h-104v-933zM1974 2366q124 -90 157 -168q47 -111 47 -192q0 -216 -86 -352q-36 -67 -110 -122q640 104 640 486q0 172 -264 266q-129 46 -234 61zM2189 120q23 2 41 5l129 21 q108 18 199.5 47t175.5 76.5t143 109.5t94 149t35 192q0 414 -817 562q249 -191 249 -615q0 -323 -179 -486q-45 -45 -70 -61zM2221 1691q55 143 55 253q0 170 -49 277q297 -77 297 -203q0 -221 -303 -327zM2435 261q97 189 97 363q0 325 -88 497q464 -136 464 -401 q0 -91 -40.5 -173.5t-107 -141.5t-151.5 -97t-174 -47z" />
<glyph unicode="c" horiz-adv-x="2676" d="M120 1248q0 314 90 557.5t262.5 405.5t422.5 245.5t569 83.5q412 0 694 -134q362 -172 362 -444q0 -78 -40 -147.5t-107.5 -111.5t-145.5 -42q-119 0 -205 86t-86 205q0 81 39 146q48 100 48 128q0 70 -91 113q-217 103 -468 103q-414 0 -504 -317q-72 -254 -72 -877 q0 -730 72 -892q134 -302 504 -302q159 0 311 34.5t281 96.5t237 141t194 174l69 -70q-91 -101 -207 -185t-254 -149.5t-300.5 -102.5t-330.5 -37q-648 0 -996 329.5t-348 962.5zM218 1247q0 -316 93.5 -551t273 -383t440.5 -212q-97 84 -166 240t-69 850t76 961 q41 144 138 236q-382 -100 -584 -388.5t-202 -752.5zM316 1248q0 686 460 945q-84 -284 -84 -945q0 -728 78 -944q-454 257 -454 944zM2034 1939q0 -69 59.5 -124.5t133.5 -55.5q78 0 136.5 61.5t58.5 141.5q0 214 -330 366q24 -39 27 -79.5t-10 -78t-29.5 -73t-31 -78.5 t-14.5 -80zM2132 1946q0 16 2.5 28t5 17.5t8.5 16t9 17.5q38 82 51 126q116 -86 116 -189q0 -40 -30 -72.5t-68 -32.5q-36 0 -65 27.5t-29 61.5z" />
<glyph unicode="d" horiz-adv-x="3224" d="M120 0v98q370 0 384 293v1671q0 336 -384 336v98h1640q415 0 715.5 -142.5t464.5 -425t164 -680.5q0 -301 -93 -537t-267 -392t-423 -237.5t-561 -81.5h-1640zM461 2398q141 -113 141 -336v-1673q-9 -189 -136 -291h708v2300h-713zM655 2300h421v-2104h-417q36 85 41 190 v1676q0 134 -45 238zM1272 98h488q365 0 470 254q106 259 106 897t-106 895q-105 254 -470 254h-488v-2300zM2207 148q380 94 589.5 376.5t209.5 723.5q0 436 -210.5 720t-587.5 379q73 -69 113 -166q113 -275 113 -933t-113 -933q-40 -98 -114 -167zM2433 337 q99 297 99 911q0 612 -98 909q228 -124 351 -356t123 -553q0 -325 -122.5 -557t-352.5 -354z" />
<glyph unicode="e" d="M120 1248q0 629 350 960.5t994 331.5q426 0 726 -146t459 -436.5t159 -709.5h-1920q0 -730 72 -892q134 -302 504 -302q445 0 713 150q304 170 483 452l83 -53q-189 -297 -518 -485q-283 -162 -761 -162q-648 0 -996 329.5t-348 962.5zM218 1248q0 -473 206.5 -762 t600.5 -385q-97 84 -155 215q-80 181 -80 932v98q0 621 114 889q36 86 104 154q-384 -100 -587 -388.5t-203 -752.5zM316 1248q0 694 470 950q-94 -288 -94 -852v-98q0 -726 78 -944q-454 256 -454 944zM888 1346h1152q0 647 -72 803q-135 293 -504 293q-366 0 -470 -245 q-106 -251 -106 -851zM1909 2392q91 -80 148 -202q81 -176 81 -844h570q-21 424 -226 689t-573 357zM2163 2186q382 -221 439 -742h-366q-6 541 -73 742z" />
<glyph unicode="f" horiz-adv-x="2796" d="M120 0v98q384 0 384 336v1628q0 336 -384 336v98h2496l80 -710l-98 -10q-91 622 -710 622h-616v-1077h240q336 0 336 359h98v-816h-98q0 359 -336 359h-240v-789q0 -336 384 -336v-98h-1536zM461 98h854q-141 113 -141 336v1964h-713q141 -113 141 -336v-1628 q0 -223 -141 -336zM654 196q46 107 46 238v1628q0 130 -46 238h422v-1866q0 -130 46 -238h-468zM1740 1272q64 -32 108 -85v170q-44 -53 -108 -85zM2322 2398q140 -76 230 -210l-24 210h-206z" />
<glyph unicode="g" horiz-adv-x="2916" d="M120 1248q0 315 91 559t264 405.5t423.5 244.5t570.5 83q239 0 397 -62q155 -61 279 -61q125 0 140 75h98l43 -677h-98q-12 136 -162 359q-87 129 -274 198.5t-423 69.5q-419 0 -509 -317q-72 -254 -72 -877q0 -730 72 -892q134 -302 499 -302q196 0 308.5 89.5 t112.5 270.5v400q0 336 -384 336v98h1360v-98q-304 0 -304 -336v-644q-33 4 -70 4q-198 0 -487 -127q-207 -91 -536 -91q-645 0 -992 330t-347 962zM218 1248q0 -474 206 -762.5t601 -384.5q-97 85 -155 215q-80 181 -80 932q0 637 76 904q41 143 138 235 q-383 -101 -584.5 -388t-201.5 -751zM316 1248q0 680 459 944q-83 -290 -83 -944q0 -726 78 -945q-454 256 -454 945zM1837 1150q141 -113 141 -336v-400q0 -194 -106 -308q45 14 84 31q289 127 498 134v543q0 224 119 336h-736zM2031 1052h364q-39 -104 -39 -238v-453 q-133 -18 -291 -75q11 61 11 128v400q0 134 -45 238zM2168 2320q63 -57 140 -186l-14 218q-46 -28 -126 -32z" />
<glyph unicode="h" horiz-adv-x="3504" d="M120 0v98q384 0 384 336v1628q0 336 -384 336v98h1436v-98q-284 0 -284 -336v-717h960v717q0 336 -284 336v98h1436v-98q-384 0 -384 -336v-1628q0 -336 384 -336v-98h-1436v98q284 0 284 336v813h-960v-813q0 -336 284 -336v-98h-1436zM461 98h834q-121 97 -121 336 v1628q0 223 121 336h-834q141 -113 141 -336v-1628q0 -223 -141 -336zM655 196q45 104 45 238v1628q0 134 -45 238h456q-35 -81 -35 -238v-1628q0 -134 35 -238h-456zM2209 98h834q-141 113 -141 336v1628q0 223 141 336h-834q121 -113 121 -336v-1628q0 -239 -121 -336z M2393 196q35 104 35 238v1628q0 157 -35 238h456q-45 -104 -45 -238v-1628q0 -134 45 -238h-456z" />
<glyph unicode="i" horiz-adv-x="1776" d="M120 0v98q384 0 384 336v1090q0 336 -384 336v98h1536v-98q-384 0 -384 -336v-1090q0 -336 384 -336v-98h-1536zM461 98h854q-141 113 -141 336v1090q0 223 141 336h-854q141 -113 141 -336v-1090q0 -223 -141 -336zM504 2766q0 157 113.5 270.5t270.5 113.5 t270.5 -113.5t113.5 -270.5t-113.5 -270.5t-270.5 -113.5t-270.5 113.5t-113.5 270.5zM602 2766q0 -116 85 -201t201 -85t201 85t85 201t-85 201t-201 85t-201 -85t-85 -201zM655 196q45 104 45 238v1090q0 134 -45 238h466q-45 -104 -45 -238v-1090q0 -134 45 -238h-466z M700 2766q0 76 56 132t132 56t132 -56t56 -132t-56 -132t-132 -56t-132 56t-56 132z" />
<glyph unicode="j" horiz-adv-x="1540" d="M0 0v98q532 0 532 569v857q0 336 -384 336v98h384q506 0 672 98h96v-1225q0 -875 -781 -875q-300 0 -519 44zM312 60q98 -6 207 -6q182 0 313.5 51t212.5 152t119 243t38 331v1115q-200 -86 -670 -86h-43q141 -113 141 -336v-857q0 -461 -318 -607zM532 2766 q0 157 113.5 270.5t270.5 113.5t270.5 -113.5t113.5 -270.5t-113.5 -270.5t-270.5 -113.5t-270.5 113.5t-113.5 270.5zM582 154q146 196 146 513v857q0 135 -46 240q256 8 422 48v-981q0 -159 -27.5 -277.5t-88 -207t-162 -137t-244.5 -55.5zM630 2766q0 -116 85 -201 t201 -85t201 85t85 201t-85 201t-201 85t-201 -85t-85 -201zM728 2766q0 76 56 132t132 56t132 -56t56 -132t-56 -132t-132 -56t-132 56t-56 132z" />
<glyph unicode="k" horiz-adv-x="3252" d="M120 0v98q384 0 384 336v1628q0 336 -384 336v98h1536v-98q-384 0 -384 -336v-1258l1063 1357q56 71 56 122q0 109 -265 115v98h816v-98q-141 0 -254 -53q-146 -78 -259 -223l-464 -592q158 0 227 -48t179 -279l418 -829q139 -276 403 -276v-98q-278 -44 -546 -44 q-502 0 -729 446l-328 644l-317 -398v-214q0 -336 384 -336v-98h-1536zM461 98h854q-141 113 -141 336v1628q0 223 141 336h-854q141 -113 141 -336v-1628q0 -223 -141 -336zM655 196q45 104 45 238v1628q0 134 -45 238h466q-45 -104 -45 -238v-1628q0 -134 45 -238h-466z M1648 1125q17 -13 28 -35l328 -644q47 -92 105 -162t135.5 -122.5t178.5 -80t223 -27.5q143 0 288 13q-142 83 -233 263l-418 830q-87 182 -147 242q-42 30 -171 30q-36 0 -61 20zM1770 1122l168 214q4 1 10.5 1.5t16 0t18 -1.5t22 -2.5t22 -3t25 -4t25.5 -3.5 q42 -46 118 -206l419 -831q37 -73 82 -134h-50q-107 0 -194 23t-153.5 68.5t-116 106t-90.5 141.5zM2447 2398q29 -33 37 -76q49 42 101 76h-138z" />
<glyph unicode="l" horiz-adv-x="2716" d="M120 2398v98h1531v-98q-379 0 -379 -336v-1964h536q619 0 710 622l98 -10l-80 -710h-2411v98q350 0 379 254v1710q0 336 -384 336zM461 2398q141 -113 141 -336v-1710q0 -76 -36 -142.5t-92 -111.5h700v1964q0 224 140 336h-853zM655 2300h465q-44 -104 -44 -238v-1866 h-411q35 87 35 156v1710q0 134 -45 238zM2242 98h206l24 210q-90 -134 -230 -210z" />
<glyph unicode="m" horiz-adv-x="5232" d="M120 0v98q384 0 384 336v1628q0 336 -384 336v98h960q43 0 97.5 -64t64.5 -64q247 172 510 172q746 0 1040 -320q269 320 688 320q1248 0 1248 -908v-1198q0 -336 384 -336v-98h-1496v98q344 0 344 336v1150q0 858 -480 858q-374 0 -626 -301q146 -197 146 -559v-1148 q0 -336 344 -336v-98h-1456v98q344 0 344 336v1150q0 858 -480 858q-247 0 -487 -178q7 -60 7 -202v-1628q0 -336 344 -336v-98h-1496zM461 98h843q-130 113 -130 336v1628v53v48.5t-0.5 40t-2.5 38t-5.5 31t-9 30.5t-13 25t-17.5 25.5t-23.5 21.5t-30.5 23h-611 q141 -113 141 -336v-1628q0 -223 -141 -336zM655 196q45 104 45 238v1628q0 134 -45 238h384q14 -14 22.5 -29t12 -41t4 -41t-0.5 -59.5t-1 -67.5v-1628q0 -134 42 -238h-463zM2082 2423q248 -220 248 -839v-1150q0 -223 -130 -336h832q-130 113 -130 336v1148 q0 196 -45.5 332t-136.5 240q-196 214 -638 269zM2306 2279q140 -40 230 -99.5t161 -155.5q107 -145 107 -442v-1148q0 -134 42 -238h-460q42 104 42 238v1150q0 439 -122 695zM3810 2423q248 -220 248 -839v-1150q0 -223 -130 -336h843q-141 113 -141 336v1198 q0 155 -40 279t-111 210.5t-175.5 149t-225 98.5t-268.5 54zM4034 2279q115 -33 202.5 -84t155.5 -127.5t104 -186.5t36 -249v-1198q0 -134 45 -238h-463q42 104 42 238v1150q0 439 -122 695z" />
<glyph unicode="n" horiz-adv-x="3504" d="M120 0v98q384 0 384 336v1628q0 336 -384 336v98h955q43 0 96.5 -66t63.5 -66q252 176 517 176q1248 0 1248 -908v-1198q0 -336 384 -336v-98h-1496v98q344 0 344 336v1150q0 858 -480 858q-247 0 -487 -178q7 -60 7 -202v-1628q0 -336 344 -336v-98h-1496zM461 98h843 q-130 113 -130 336v1628q0 136 -6 191q-2 19 2 36q-11 7 -47.5 50.5t-56.5 58.5h-605q141 -113 141 -336v-1628q0 -223 -141 -336zM655 196q45 104 45 238v1628q0 134 -45 238h370q14 -17 22.5 -28.5t14.5 -26.5t9 -22t4.5 -28t1.5 -32t-0.5 -45t-0.5 -56v-1628 q0 -134 42 -238h-463zM2082 2423q248 -220 248 -839v-1150q0 -223 -130 -336h843q-141 113 -141 336v1198q0 155 -40 279t-111 210.5t-175.5 149t-225 98.5t-268.5 54zM2306 2279q115 -33 202.5 -84t155.5 -127.5t104 -186.5t36 -249v-1198q0 -134 45 -238h-463 q42 104 42 238v1150q0 439 -122 695z" />
<glyph unicode="o" d="M120 1248q0 629 350 960.5t994 331.5q426 0 726 -146t459 -436.5t159 -709.5q0 -633 -348.5 -962.5t-995.5 -329.5q-648 0 -996 329.5t-348 962.5zM218 1248q0 -467 201 -754.5t586 -387.5q-98 92 -139 238q-76 267 -76 904t76 904q41 145 138 236q-382 -100 -584 -388.5 t-202 -751.5zM316 1248q0 343 116.5 580.5t343.5 364.5q-46 -138 -65 -367.5t-19 -577.5q0 -349 19.5 -579t65.5 -369q-461 257 -461 948zM888 1248q0 -623 72 -877q90 -317 504 -317q365 0 470 254q106 259 106 940q0 683 -106 940q-105 254 -470 254q-414 0 -504 -317 q-72 -254 -72 -877zM1911 104q391 97 595 385t204 759q0 466 -205 755.5t-593 387.5q73 -69 113 -166q113 -275 113 -977t-113 -977q-40 -98 -114 -167zM2137 293q99 301 99 955q0 652 -98 953q474 -258 474 -953q0 -704 -475 -955z" />
<glyph unicode="p" horiz-adv-x="3224" d="M120 0v98q384 0 384 336v1671q-14 293 -384 293v98h1640q602 0 939 -237q405 -285 405 -722.5t-405 -675.5q-323 -189 -939 -189h-488v-238q0 -336 384 -336v-98h-1536zM461 98h854q-141 113 -141 336v1964h-708q127 -101 136 -291v-1673q0 -224 -141 -336zM655 196 q45 104 45 238v1676q-5 106 -41 190h417v-1866q0 -134 45 -238h-466zM1272 770h488q576 0 576 766q0 862 -576 862h-488v-1628zM2159 2366q275 -234 275 -830q0 -528 -268 -741q552 76 751 402q89 145 89 339q0 387 -363 643q-192 135 -484 187zM2411 2194q97 -40 175 -95 q322 -227 322 -563q0 -97 -26 -180t-70.5 -145.5t-108 -113.5t-134 -86t-154.5 -61l23 46q94 212 94 540q0 408 -121 658z" />
<glyph unicode="q" d="M120 1248q0 314 90.5 557t262.5 405t422.5 246t568.5 84t568 -84t422.5 -246t263 -405.5t90.5 -556.5q0 -253 -57.5 -460.5t-169.5 -362t-275 -259.5t-374.5 -157.5t-467.5 -52.5q-594 0 -594 -170q0 -68 163 -68l1079 1q205 0 205 198h77q5 -35 5 -72q0 -421 -470 -421 h-1302q0 474 349 589q-414 108 -635 421.5t-221 813.5zM218 1248q0 -467 201 -754.5t586 -387.5q-98 92 -139 238q-76 267 -76 904t76 904q41 145 138 236q-254 -67 -428.5 -215.5t-266 -382t-91.5 -542.5zM316 1248q0 343 116.5 580.5t343.5 364.5q-46 -138 -65 -367.5 t-19 -577.5q0 -349 19.5 -579t65.5 -369q-461 257 -461 948zM729 -478h1200q229 0 319 122q-60 -23 -136 -23q-99 0 -542 -0.5t-537 -0.5q-215 0 -251 115q-40 -85 -53 -213zM888 1248q0 -623 72 -877q90 -317 504 -317q365 0 470 254q106 259 106 940q0 683 -106 940 q-105 254 -470 254q-414 0 -504 -317q-72 -254 -72 -877zM1911 104q391 97 595 385t204 759q0 466 -205 755.5t-593 387.5q73 -69 113 -166q113 -275 113 -977t-113 -977q-40 -98 -114 -167zM2137 293q99 301 99 955q0 652 -98 953q474 -258 474 -953q0 -704 -475 -955z" />
<glyph unicode="r" horiz-adv-x="3252" d="M120 -1v98q384 0 384 336v1671q-14 293 -384 293v98h1440q602 0 939 -237q405 -285 405 -580q0 -503 -713 -785q182 -9 257 -78l446 -642q53 -76 298 -76v-97q-279 -44 -546 -44q-479 0 -729 446l-258 460h-387v-429q0 -336 384 -336v-98h-1536zM461 97h854 q-141 113 -141 336v1964h-708q127 -101 136 -291v-1673q0 -224 -141 -336zM655 195q45 104 45 238v1676q-5 106 -41 190h417v-1866q0 -134 45 -238h-466zM1272 960h288q576 0 576 738q0 699 -576 699h-288v-1437zM1758 885l244 -435q51 -90 110 -159t136.5 -124t178 -84 t219.5 -29q111 0 225 8q-25 16 -57 55l-439 632q-53 40 -189 46q-29 2 -51.5 18t-32 40t-9 49.5t16.5 48t45 33.5q336 133 493.5 306.5t157.5 387.5q0 244 -363 500q-180 127 -448 180q239 -195 239 -660q0 -651 -422 -796q-21 -7 -54 -17zM1901 831q53 20 94 51 q4 -79 65 -136q75 -46 121 -49q93 -7 125 -21l364 -524h-24q-203 0 -334.5 90t-223.5 256zM2205 1111q127 224 127 587q0 156 -26 286q-24 111 -59 193q76 -35 139 -79q322 -226 322 -420q0 -176 -132 -322q-122 -134 -371 -245z" />
<glyph unicode="s" horiz-adv-x="2545" d="M120 0l81 720l98 -10q14 -102 61.5 -199t125.5 -179.5t177.5 -144.5t226 -97.5t263.5 -35.5q609 0 609 335q0 228 -348 408l-677 307q-260 118 -385 283q-123 162 -124 375q0 111 28.5 209.5t81 176.5t126 142.5t162.5 110.5t192.5 77.5t215.5 46.5t230 15q237 0 397 -60 q163 -61 272 -61q104 0 117 73l88 10l53 -677l-98 -10q-13 145 -144 339q-90 133 -272.5 210.5t-412.5 77.5q-475 0 -475 -315q0 -158 131 -265q97 -79 273 -163l720 -336q511 -240 512 -664q0 -743 -1272 -743q-354 0 -685 204q-69 43 -119 43q-113 0 -133 -213zM250 275 q59 34 133 23q-68 79 -112 169zM326 1762q0 -179 104 -316q110 -145 347 -253l680 -308q403 -209 403 -496q0 -175 -121 -281q101 23 183 53t159.5 78.5t130 110.5t84 151t31.5 198q0 178 -110 321.5t-346 253.5l-720 336q-44 21 -76 37t-73 39t-71.5 43.5t-64.5 48 t-58.5 54t-47.5 60.5t-37.5 69t-23 77.5t-8.5 88.5q0 133 66 226q-96 -39 -178 -96q-253 -174 -253 -495zM424 1762v2q0 242 169 382v-19q0 -68 15.5 -129t41 -110.5t65 -95.5t81.5 -81.5t97.5 -71t104.5 -61.5t111 -56l721 -337q214 -100 309 -224q90 -117 90 -262v-1 q0 -82 -20.5 -149.5t-60.5 -117t-88.5 -85.5t-112.5 -67q11 53 11 110q0 174 -116 321t-342 263l-682 309q-215 97 -310 223q-84 111 -84 257zM1931 2321q71 -62 136 -170l-15 195q-26 -13 -59 -20q-2 0 -60 -5h-2z" />
<glyph unicode="t" d="M100 1786l80 710h2568l80 -710l-98 -10q-91 622 -730 622h-152v-1964q0 -336 384 -336v-98h-1536v98q384 0 384 336v1964h-152q-639 0 -730 -622zM243 2184q93 137 238 214h-213zM1037 98h854q-141 113 -141 336v1964h-572v-1964q0 -223 -141 -336zM1231 196 q45 104 45 238v1866h376v-1866q0 -134 45 -238h-466zM2447 2398q145 -77 238 -214l-25 214h-213z" />
<glyph unicode="u" horiz-adv-x="3444" d="M60 2398v98h960q192 0 192 -434v-1484q0 -524 480 -524q247 0 487 178q-7 86 -7 202v2008q504 0 672 99l96 -1v-2106q0 -336 384 -336v-98h-960q-43 0 -99.5 62.5t-66.5 62.5q-247 -169 -506 -169q-1248 0 -1248 908v1198q0 336 -384 336zM401 2398q141 -113 141 -336 v-1198q0 -148 36.5 -268t101.5 -205t161.5 -148.5t207.5 -101t248 -59.5q-183 158 -183 496v1484q0 203 -42 291q-20 45 -52 45h-619zM595 2300h393q28 -76 28 -238v-1484q0 -195 57 -340q-58 23 -107 48.5t-94 58t-80.5 70t-64.5 85t-47.5 102t-29 120.5t-10.5 142v1198 q0 134 -45 238zM2270 434q0 -14 -0.5 -52t0 -49t1.5 -39t3.5 -39t7.5 -32.5t12.5 -34t18 -28.5t24.5 -32q21 -23 34 -30h612q-141 113 -141 336v1997q-180 -77 -572 -86v-1911zM2368 434v1816q225 10 376 46v-1862q0 -134 45 -238h-381q-32 37 -34 52q-6 78 -6 186z" />
<glyph unicode="v" horiz-adv-x="2858" d="M60 2398v98h912q163 0 293 -355l532 -1308l528 1308q33 82 33 103q0 154 -244 154v98h624v-98q-215 -5 -316 -276q-65 -161 -211.5 -525t-230 -571.5t-204.5 -511t-221 -558.5h-121q-107 0 -143 93q-158 411 -464.5 1170t-363.5 903q-69 171 -173 233q-72 43 -230 43z M397 2398q94 -82 157 -239q54 -135 362 -899t466 -1176q6 -17 17 -23.5t35 -6.5h54l271 683l2 4q-38 14 -55 55l-532 1310q-78 212 -157 273q-22 17 -45 19h-575zM595 2300h364q57 -47 123 -230l533 -1311q11 -26 28 -48l-201 -508q-152 391 -443 1112.5t-354 879.5 q-23 57 -50 105zM2402 2398q20 -23 33 -52q23 29 49 52h-82z" />
<glyph unicode="w" horiz-adv-x="4394" d="M60 2398v98h912q163 0 293 -355l532 -1308l361 894l-159 395q-69 171 -173 233q-72 43 -230 43v98h1462v-98q-277 -2 -277 -161q0 -42 20 -96l532 -1308l528 1308q33 82 33 103q0 154 -244 154v98h624v-98q-215 -5 -316 -276q-65 -161 -211.5 -525t-230 -571.5 t-204.5 -511t-221 -558.5h-121q-107 0 -143 93q-88 231 -192 491.5t-229 568.5t-196 487q-394 -977 -655 -1640h-121q-107 0 -143 93q-158 411 -464.5 1170t-363.5 903q-69 171 -173 233q-72 43 -230 43zM397 2398q94 -82 157 -239q99 -248 264 -655.5t305.5 -759 t258.5 -660.5q6 -17 17 -23.5t35 -6.5h54l271 683l2 4q-38 14 -55 55l-532 1310q-78 212 -157 273q-22 17 -45 19h-575zM595 2300h364q57 -47 123 -230l533 -1311q11 -27 28 -48l-201 -508q-152 391 -443 1112.5t-354 879.5q-23 57 -50 105zM1933 2398q94 -82 157 -239 q99 -248 264 -655.5t305.5 -759t258.5 -660.5q6 -17 17 -23.5t35 -6.5h54l271 683l2 4q-38 14 -55 55l-532 1310q-27 72 -27 131q0 96 62 161h-812zM2131 2300h459q-5 -30 -5 -63q0 -77 33 -167l533 -1311q11 -26 28 -48l-201 -508q-152 391 -443 1112.5t-354 879.5 q-23 57 -50 105zM3938 2398q20 -23 33 -52q23 29 49 52h-82z" />
<glyph unicode="x" horiz-adv-x="2872" d="M120 0v98q150 0 212 10q117 25 293 266l486 665l-548 1083q-74 145 -182 226q-67 50 -221 50v98h912q166 -8 341 -355l265 -526l375 526q77 108 77 118q0 139 -258 139v98h776v-98q-153 0 -259 -53q-118 -68 -229 -223l-432 -605l578 -1143q140 -276 446 -276v-98h-1496 v98q234 9 234 140q0 50 -34 117l-296 585l-429 -585q-68 -92 -68 -151q0 -106 217 -106h16v-98h-776zM475 2398q103 -90 175 -232l893 -1767q45 -88 45 -161q0 -83 -52 -140h878q-120 83 -195 232l-894 1767q-70 139 -129 209q-74 86 -126 92h-595zM511 98h87q-19 26 -26 58 q-31 -33 -61 -58zM686 2300h374q19 -8 62 -58q51 -60 116 -189l893 -1768q24 -47 53 -89h-501q3 21 3 42q0 97 -55 206l-893 1767q-24 47 -52 89zM2178 2398q24 -28 37 -63q38 35 76 63h-113z" />
<glyph unicode="y" horiz-adv-x="3026" d="M60 2398v98h955q157 0 341 -355l512 -891l511 891q32 56 32 109q0 145 -301 148v98h796v-98q-269 0 -427 -276l-530 -927v-761q0 -336 384 -336v-98h-1536v98q384 0 384 336v478l-675 1210q-154 276 -446 276zM391 2398q119 -82 201 -228l675 -1210q12 -22 12 -48v-478 q0 -223 -141 -336h854q-141 113 -141 336v719q-44 7 -68 48l-513 893q-63 121 -120.5 196t-102.5 99q-16 8 -32 9h-624zM625 2300h379q27 -16 68 -70q52 -68 112 -183l514 -895q22 -38 55 -62v-656q0 -134 45 -238h-466q45 104 45 238v478q0 51 -25 95l-675 1210 q-24 44 -52 83zM2450 2398q35 -35 49 -82q44 47 93 82h-142z" />
<glyph unicode="z" d="M120 0v98q136 0 326 276l1111 1717q48 74 48 158q0 149 -331 149h-270q-619 0 -710 -622l-98 10l80 710h2532v-98q-102 0 -162 -46q-8 -6 -153 -230l-1111 -1717q-43 -66 -43 -158q0 -149 328 -149h333q619 0 710 622l98 -10l-80 -710h-2608zM339 98h963q-52 52 -61 149 q0 120 59 211l1111 1717q118 182 147 223h-917q53 -53 62 -149q0 -113 -64 -211l-1111 -1718q-99 -144 -189 -222zM340 2188q91 134 230 210h-206zM559 196q228 341 640 980t523 808q79 123 79 265q0 26 -5 51h579q-224 -345 -635.5 -982t-521.5 -806q-75 -115 -75 -265 q0 -26 5 -51h-589zM2434 98h206l24 210q-90 -134 -230 -210z" />
<glyph unicode="{" horiz-adv-x="1378" d="M120 1248q0 61 86 147l14 14q30 30 42.5 43.5t28.5 34.5t21 38t9 42t4 59q0 101 -33 277.5t-33 208.5q0 155 154 328q155 173 312 173h533v-98h-117q-102 0 -168 -68t-66 -174q0 -2 26.5 -281t26.5 -283q0 -86 -98.5 -154.5t-308 -104.5t-272.5 -88.5t-63 -113.5 t63 -118.5t272.5 -97.5t308 -106.5t98.5 -141.5q0 -12 -26.5 -294t-26.5 -290q0 -105 64 -161t170 -56h117v-100h-533q-158 0 -312 162.5t-154 324.5q0 26 33 206.5t33 292.5q0 23 -3 43.5t-5.5 35t-11.5 32t-13 25.5t-18.5 25t-19 22t-24 24.5l-24.5 24.5q-86 90 -86 147z M357 370q0 -57 36 -126t89.5 -127t120 -97t122.5 -39h163q-41 41 -58 89t-21 130q0 5 26.5 288t26.5 296q0 22 -55 60q-80 55 -272 92q-70 13 -122 27q6 -27 10 -94q0 -121 -35 -310q-31 -172 -31 -189zM357 2112q0 -23 31 -190q35 -185 35 -296q0 -51 -14 -106 q49 13 128 27q188 32 269 88q52 36 56 74l-53 564q0 151 92 242h-176q-55 0 -121.5 -42t-120 -103t-90 -132.5t-36.5 -125.5zM455 370q0 8 30 171q32 174 35 298q101 -19 158 -37.5t85 -46.5q-1 -18 -9.5 -107.5t-17.5 -186.5t-17 -178.5t-8 -85.5q4 -71 15 -118h-1 q-49 0 -114 51.5t-110.5 121t-45.5 118.5zM455 2112q0 45 45 116.5t108.5 128t109.5 60.5h14q-21 -67 -21 -144q0 -1 4 -39t9.5 -95.5t12.5 -126t12.5 -129t10 -104.5t4.5 -53q-29 -29 -86.5 -47.5t-156.5 -35.5q-2 116 -36 297q-30 159 -30 172z" />
<glyph unicode="|" horiz-adv-x="1008" d="M120 -117v2730h768v-2730h-768zM218 -19h572v2534h-572v-2534zM316 79v2338h376v-2338h-376z" />
<glyph unicode="}" horiz-adv-x="1190" d="M120 -17h115q107 0 170.5 56t63.5 161q0 7 -25.5 289.5t-25.5 293.5q0 35 22.5 70t55.5 61t78 50.5t81.5 39.5t74.5 28q242 83 242 216q0 127 -242 202q-32 10 -64 22.5t-68.5 30t-67.5 39.5t-56.5 47.5t-40.5 56t-15 63.5l51 564q0 106 -66 174t-168 68h-115v98h347 q157 0 311.5 -173t154.5 -328q0 -32 -33 -208.5t-33 -249.5q0 -37 1.5 -61.5t8 -48t12.5 -37t22.5 -34.5t29.5 -34.5t42 -42.5q87 -87 87 -146q0 -27 -22.5 -66t-49 -69t-59 -65.5t-39.5 -45.5q-33 -41 -33 -144t33 -283.5t33 -206.5q0 -162 -154 -324.5t-312 -162.5h-347 v100zM475 2515q92 -91 92 -242l-51 -564q0 -30 56 -74q78 -55 207 -98q-10 48 -10 123.5t33 252.5t33 199q0 55 -36.5 125.5t-89.5 130.5t-117.5 102.5t-116.5 44.5zM488 -18q106 11 226.5 138t120.5 250q0 17 -33 197.5t-33 261t6 115.5q-122 -43 -190.5 -89.5t-68.5 -70.5 q0 -13 25.5 -299.5t25.5 -296.5q0 -128 -79 -206zM614 1726v1q1 13 26 271.5t25 271.5q72 -92 72 -158q0 -13 -28.5 -167.5t-35.5 -258.5zM615 756q16 13 59 37q7 -107 35 -261t28 -162q0 -71 -72 -158z" />
<glyph unicode="~" horiz-adv-x="2740" d="M120 688l106 566q42 228 282 440q218 194 483 194q115 0 236.5 -48t207.5 -109t158 -133q52 -52 107 -97t127.5 -92t154.5 -74.5t161 -27.5q144 0 231.5 92.5t113.5 234.5l34 187l98 -10l-106 -566q-40 -215 -286 -439q-214 -194 -474 -195q-86 0 -176 27t-167.5 72 t-140.5 93t-114 99t-109 97t-131.5 92t-158 73.5t-165.5 27.5q-273 0 -340 -322l-39 -187zM314 1193q111 97 278 97q73 0 150.5 -20.5t143.5 -52t131 -75t114.5 -85t93.5 -86.5q45 -45 100.5 -87.5t124.5 -83.5t149 -66t155 -25q222 1 408 170q221 201 256 384l9 50 q-111 -104 -284 -104q-72 0 -148 20.5t-139.5 52.5t-127.5 76t-111.5 85t-92.5 86q-64 64 -139.5 118.5t-184 98.5t-209.5 44q-227 0 -418 -169q-214 -190 -251 -385zM487 1379q56 84 151 168q163 145 353 145q66 0 136.5 -22.5t131 -59.5t108 -74t87.5 -77 q50 -50 103.5 -95t124.5 -93t142 -82t154.5 -56t164.5 -22q55 0 106 9q-57 -82 -153 -169q-157 -144 -342 -144h-1q-64 0 -133.5 23t-130.5 60.5t-108 74.5t-86 76q-63 63 -136.5 120t-164.5 110.5t-196 85t-206 31.5q-55 0 -105 -9z" />
<glyph unicode="&#xa1;" horiz-adv-x="1051" d="M120 -113q0 19 2 39q65 816 213 1467h357l240 -1692h-611q-108 0 -154.5 40.5t-46.5 145.5zM143 2157q0 157 113.5 270.5t270.5 113.5t270.5 -113.5t113.5 -270.5t-113.5 -270.5t-270.5 -113.5t-270.5 113.5t-113.5 270.5zM218 -113q0 -57 19 -72.5t82 -15.5h500 l-212 1496h-193q-133 -613 -194 -1378q-2 -20 -2 -30zM241 2157q0 -116 85 -201t201 -85t201 85t85 201t-85 201t-201 85t-201 -85t-85 -201zM316 -103q0 2 1 12q57 710 176 1288h29l184 -1300h-390zM339 2157q0 76 56 132t132 56t132 -56t56 -132t-56 -132t-132 -56 t-132 56t-56 132z" />
<glyph unicode="&#xa2;" horiz-adv-x="2676" d="M120 1288q0 297 89 532t256 393.5t409 243.5t546 88v135h98v-136q115 -2 231.5 -19.5t229.5 -49.5t210.5 -81t171.5 -110.5t116.5 -143t42.5 -173.5q0 -58 -23.5 -113.5t-63 -96.5t-94 -66t-112.5 -25q-119 0 -205 86t-86 205q0 81 39 146q48 100 48 128q0 70 -91 113 q-194 92 -414 102v-2351q149 5 292.5 42t265.5 97.5t225 137.5t186 168l69 -70q-184 -202 -454.5 -332.5t-583.5 -140.5v-130h-98v129q-626 11 -963 340.5t-337 951.5zM218 1288q0 -474 206.5 -762.5t601.5 -384.5q-99 87 -156 215q-80 181 -80 932q0 608 76 874 q14 49 35 91t46.5 76.5t59.5 68.5q-249 -63 -425.5 -211t-270 -376.5t-93.5 -522.5zM316 1288q0 322 118.5 556t341.5 360q-46 -137 -65 -360t-19 -556q0 -726 78 -944q-454 259 -454 944zM888 1288q0 -730 72 -892q126 -284 460 -301v2351q-376 -16 -460 -311 q-72 -253 -72 -847zM2034 1957q0 -38 15.5 -74t41.5 -62t62 -41.5t74 -15.5q51 0 96.5 28.5t72 75.5t26.5 99q0 215 -330 366q29 -48 29 -97q0 -51 -60 -179q-27 -45 -27 -100zM2132 1957q0 19 18 59q49 105 58 140q116 -88 116 -189q0 -39 -29.5 -72t-67.5 -33 q-39 0 -67 28t-28 67z" />
<glyph unicode="&#xa4;" horiz-adv-x="1886" d="M120 2270l144 130l264 -267q177 137 413 137q235 0 414 -137l282 281l129 -139l-275 -277q137 -179 137 -414t-137 -413l266 -264l-144 -129l-258 257q-180 -137 -414 -137q-235 0 -413 137l-254 -257l-130 144l246 248q-138 179 -138 414t138 414zM446 1584 q0 -133 67 -247t181.5 -180.5t247.5 -66.5t246.5 66.5t180 180.5t66.5 247t-66.5 247t-180 180.5t-246.5 66.5t-247.5 -66.5t-181.5 -180.5t-67 -247z" />
<glyph unicode="&#xa5;" horiz-adv-x="2966" d="M120 2398v98h955q183 0 341 -355l452 -891l451 891q32 62 32 109q0 145 -301 148v98h796v-98q-287 0 -427 -276l-470 -927v-301h613l-24 -140h-589v-142h613l-24 -140h-589v-38q0 -336 384 -336v-98h-1536v98q384 0 384 336v38h-651l24 140h626v142h-650l24 140h627v18 l-615 1210q-140 276 -446 276zM458 2398q119 -82 195 -232l615 -1210q11 -21 11 -44v-478q0 -223 -141 -336h854q-141 112 -141 336v719q-48 7 -70 53l-453 893q-65 146 -124 215q-39 44 -65 63t-64 21h-617zM688 2300h386q4 -2 8.5 -4.5t9 -6t7.5 -6t7.5 -8t7 -8t8 -8.5 t7.5 -9q50 -58 110 -193l454 -896q22 -44 60 -71v-656q0 -134 45 -238h-466q45 104 45 238v478q0 47 -21 89l-615 1210q-25 47 -53 89zM2390 2398q33 -33 47 -77q40 44 86 77h-133z" />
<glyph unicode="&#xa6;" horiz-adv-x="1008" d="M120 -141v1277h768v-1277h-768zM120 1920v1216h768v-1216h-768zM218 -43h572v1081h-572v-1081zM218 2018h572v1020h-572v-1020zM316 55v885h376v-885h-376zM316 2116v824h376v-824h-376z" />
<glyph unicode="&#xa7;" horiz-adv-x="2076" d="M120 1283q0 469 556 586q-283 266 -283 515q0 526 685 526q206 0 416.5 -143t210.5 -326q0 -71 -30.5 -133.5t-85.5 -101t-122 -38.5q-64 0 -118.5 39.5t-84.5 100.5t-30 126q0 40 32.5 133t32.5 134q0 141 -220 141q-300 0 -300 -155q0 -223 239 -429l649 -536 q289 -239 289 -513q0 -469 -556 -586q283 -266 283 -515q0 -526 -685 -526q-206 0 -416.5 143t-210.5 326q0 54 19 104t51.5 87.5t79 59.5t98.5 22q65 0 121.5 -38.5t88 -100t31.5 -127.5q0 -40 -37.5 -133t-37.5 -134q0 -141 217 -141q295 0 295 155q0 223 -220 429 l-663 536q-294 238 -294 513zM218 1283q0 -228 258 -437l665 -538q254 -238 254 -503q0 -27 -6 -53q196 100 196 356q0 207 -252 444l-57 54l-627 504q-204 164 -204 486q0 5 0.5 16.5t1 15t1 11t1 10.5t1 9.5t1.5 10.5t2.5 9.5t3.5 12.5q-112 -59 -175.5 -161t-63.5 -247z M316 1283q0 106 40 182q37 -276 231 -432l624 -501l55 -52q221 -209 221 -372q0 -74 -19 -128q-60 212 -262 402l-669 540q-221 180 -221 361zM469 51q0 -74 62 -148.5t157 -129.5q0 2 -0.5 9t-0.5 9q0 88 49 181q26 50 26 86q0 61 -42 114.5t-101 53.5q-65 0 -107.5 -52 t-42.5 -123zM491 2384q0 -207 252 -444l57 -55l628 -504q204 -163 204 -466q0 -67 -16 -115q242 129 242 409q0 228 -253 437l-650 537q-274 236 -274 504q0 27 6 53q-196 -100 -196 -356zM543 1596q0 -276 167 -410l627 -504q197 33 197 233q0 256 -167 390l-628 504 q-196 -33 -196 -213zM567 51q0 29 14 53t38 24q13 0 24 -14.5t16 -30.5t5 -25q0 -12 -9 -33t-21.5 -44.5t-15.5 -32.5q-51 53 -51 103zM589 2384q0 74 19 129q64 -215 284 -405l650 -537q218 -180 218 -362q0 -103 -38 -178q-35 269 -232 427l-625 501l-54 52 q-222 209 -222 373zM1332 2434q0 -62 37.5 -113.5t97.5 -54.5q40 0 73 25.5t50 65.5t17 84q0 131 -168 245l-43 28q0 -1 0.5 -3t0.5 -3v-7q0 -85 -41 -176q-24 -52 -24 -91zM1430 2432q0 9 4.5 24.5t10 28.5t12.5 28.5t9 22.5q43 -49 43 -95q0 -31 -12 -54.5t-35 -21.5 q-32 22 -32 67z" />
<glyph unicode="&#xa8;" horiz-adv-x="2880" d="M496 2899q0 117 85.5 202.5t202.5 85.5t202.5 -85.5t85.5 -202.5t-85.5 -202.5t-202.5 -85.5t-202.5 85.5t-85.5 202.5zM594 2899q0 -76 57 -133t133 -57t133 57t57 133t-57 133t-133 57t-133 -57t-57 -133zM692 2899q0 37 27.5 64.5t64.5 27.5t64.5 -27.5t27.5 -64.5 t-27.5 -64.5t-64.5 -27.5t-64.5 27.5t-27.5 64.5zM1729 2899q0 117 85.5 202.5t202.5 85.5t202.5 -85.5t85.5 -202.5t-85.5 -202.5t-202.5 -85.5t-202.5 85.5t-85.5 202.5zM1827 2899q0 -76 57 -133t133 -57t133 57t57 133t-57 133t-133 57t-133 -57t-57 -133zM1925 2899 q0 37 27.5 64.5t64.5 27.5t64.5 -27.5t27.5 -64.5t-27.5 -64.5t-64.5 -27.5t-64.5 27.5t-27.5 64.5z" />
<glyph unicode="&#xa9;" horiz-adv-x="3746" d="M120 1000q0 194 46 375.5t126 331t191 281t237 231.5t268 177q405 219 886 219q170 0 333.5 -28.5t307.5 -81.5t274.5 -126t241.5 -163.5t202 -193t161 -214.5q232 -371 232 -808q0 -194 -46 -375.5t-125.5 -331t-190.5 -281.5t-237 -232t-269 -177q-404 -218 -884 -218 q-254 0 -490.5 62.5t-428 173.5t-344 255.5t-259.5 315.5q-232 371 -232 808zM218 1000q0 -182 43.5 -352.5t118.5 -310.5t179.5 -263.5t223 -218t253.5 -166.5q381 -206 838 -206q192 0 375 38.5t338.5 107.5t292 164.5t244 208.5t186.5 241q218 348 218 757 q0 182 -43.5 352.5t-118.5 310.5t-179 263.5t-222.5 217.5t-252.5 166q-382 207 -838 207q-161 0 -316 -27t-290.5 -77t-259.5 -118.5t-228.5 -154t-190.5 -181.5t-153 -203q-218 -347 -218 -756zM806 998q0 319 131 545t371.5 340t572.5 114q117 0 234 -17.5t228 -54.5 t195.5 -90.5t136 -131t51.5 -169.5q0 -96 -69.5 -168t-164.5 -72t-164 68.5t-69 163.5q0 65 31 117q38 80 39 103q0 56 -73 90q-174 82 -375 82q-326 0 -401 -253q-59 -200 -59 -652q0 -561 59 -693q107 -242 402 -242q247 0 461.5 99.5t356.5 257.5l55 -56 q-153 -168 -381.5 -273.5t-492.5 -105.5q-334 0 -574.5 113.5t-370.5 338.5t-130 546zM904 998q0 -326 147.5 -543.5t416.5 -300.5q-46 55 -78 126q-67 152 -67 733q0 467 63 680q25 83 72 146q-263 -86 -408.5 -303t-145.5 -538zM1002 998q0 141 30.5 260t90 213t147.5 161 q-45 -224 -45 -619q0 -442 39 -646q-262 216 -262 631zM2357 1526q0 -54 40.5 -94t94.5 -40t95 43.5t41 98.5q0 148 -207 255q1 -3 3 -22t3 -23q-1 -13 -3 -25v-1q-2 -11 -5 -19t-5 -16q-7 -19 -38 -86q-19 -32 -19 -71zM2455 1526q0 6 1.5 11t5 10.5t4.5 8.5l27 62 q37 -41 37 -84q0 -14 -12 -29t-26 -15t-25.5 11t-11.5 25z" />
<glyph unicode="&#xaa;" horiz-adv-x="2636" d="M120 1830q0 266 284.5 470t763.5 204q232 0 450 -94v125q0 541 -487 541q-301 0 -579 -151l-39 63q300 165 618 165q1086 0 1086 -992v-651q0 -262 299 -262v-76h-749q-37 0 -82 60t-53 60q-236 -154 -464 -155q-476 0 -762 213.5t-286 479.5zM218 1830q0 -217 247 -401 q118 -88 274 -137q-118 144 -118 538q0 208 29.5 325t106.5 202q-98 -26 -192.5 -77t-172.5 -118.5t-126 -154.5t-48 -177zM316 1830q0 88 64.5 178t172.5 156q-30 -133 -30 -334q0 -202 30 -343q-111 78 -174 166t-63 177zM719 1830q0 -361 97 -477q116 -139 352 -139 q266 0 457 157q-7 203 -7 407v552q-212 97 -450 97q-273 0 -389 -209q-60 -108 -60 -388zM1577 2997q139 -163 139 -462v-757q0 -202 7 -404q1 -18 19.5 -51t38.5 -53h416q-73 87 -78 240v651q0 675 -542 836zM1788 2782q233 -191 233 -621v-653q2 -41 2 -42q4 -52 15 -98 h-209q-7 10 -9 15l-4 131q-2 138 -2 264v757q0 135 -26 247z" />
<glyph unicode="&#xab;" horiz-adv-x="1944" d="M120 1206v84l888 896v-357l-403 -312q-163 -126 -163 -269t163 -269l403 -312v-357zM218 1246l173 -175q-47 85 -47 177t47 176l-173 -174v-4zM608 852l302 -304v71zM608 1644l302 233v71zM936 1206v84l888 896v-357l-403 -312q-163 -126 -163 -269t163 -269l403 -312 v-357zM1034 1246l173 -175q-47 85 -47 177t47 176l-173 -174v-4zM1424 852l302 -304v71zM1424 1644l302 233v71z" />
<glyph unicode="&#xad;" horiz-adv-x="1960" d="M120 1152l24 192h1696l-24 -192h-1696z" />
<glyph unicode="&#xae;" horiz-adv-x="3746" d="M120 1000q0 194 46 375.5t126 331t191 281t237 231.5t268 177q405 219 886 219q170 0 333.5 -28.5t307.5 -81.5t274.5 -126t241.5 -163.5t202 -193t161 -214.5q232 -371 232 -808q0 -194 -46 -375.5t-125.5 -331t-190.5 -281.5t-237 -232t-269 -177q-404 -218 -884 -218 q-254 0 -490.5 62.5t-428 173.5t-344 255.5t-259.5 315.5q-232 371 -232 808zM218 1000q0 -182 43.5 -352.5t118.5 -310.5t179.5 -263.5t223 -218t253.5 -166.5q381 -206 838 -206q192 0 375 38.5t338.5 107.5t292 164.5t244 208.5t186.5 241q218 348 218 757 q0 182 -43.5 352.5t-118.5 310.5t-179 263.5t-222.5 217.5t-252.5 166q-382 207 -838 207q-161 0 -316 -27t-290.5 -77t-259.5 -118.5t-228.5 -154t-190.5 -181.5t-153 -203q-218 -347 -218 -756zM704 31v79q248 0 248 268v1317q-11 234 -248 235v78h1092q482 0 752 -190 q324 -228 324 -454q0 -392 -571 -618q146 -7 206 -62l357 -514q42 -60 238 -60v-78q-235 -74 -415 -74q-383 0 -583 357l-228 407h-310v-344q0 -268 247 -268v-79h-1109zM978 129h562q-65 81 -72 249v1532h-487q32 -41 47 -90t22 -123v-1319q0 -155 -72 -249zM1131 227 q17 69 17 151v1324l-7 64q-3 19 -9 46h238v-1436q2 -42 3 -59.5t4.5 -39t10.5 -50.5h-257zM1566 800h230q461 0 461 580q0 550 -461 550h-230v-1130zM1985 728l204 -365q31 -56 65.5 -100.5t79.5 -84t96.5 -66t116.5 -41.5t140 -15q67 0 144 12q-17 12 -47 46l-350 503 q-1 1 -2 1q-50 25 -136 30q-29 2 -51.5 18t-32 40t-9 49.5t16.5 48t45 33.5q509 201 509 527q0 175 -282 374q-117 82 -281 125q144 -158 144 -483q0 -535 -370 -652zM2170 599q6 -4 21 -13t22.5 -13t21 -10t27 -9t29.5 -4q51 -2 78 -10l266 -384q-67 6 -122 26.5t-98 55 t-76 76t-64 97.5zM2378 531v5q1 0 2 -1h1l-1 -4q-2 -2 -2 0zM2396 1006q57 160 57 374q0 164 -35 289q176 -110 238 -234q20 -38 20 -71q0 -204 -280 -358z" />
<glyph unicode="&#xaf;" horiz-adv-x="2376" d="M120 2256l24 240h2112l-24 -240h-2112zM228 2354h1915l5 44h-1915z" />
<glyph unicode="&#xb0;" horiz-adv-x="1200" d="M120 2656q0 118 69.5 230t181.5 181t229 69t229 -69t181.5 -181t69.5 -230t-69.5 -230t-181.5 -181t-229 -69q-115 0 -227.5 70t-182.5 182t-70 228zM218 2656q0 -96 57 -183q-13 82 -13 183q2 90 13 186q-57 -87 -57 -186zM360 2656q0 -432 240 -432t240 432t-240 432 t-240 -432zM925 2470q57 87 57 186q0 100 -57 187q13 -83 13 -187q-2 -90 -13 -186z" />
<glyph unicode="&#xb1;" horiz-adv-x="2376" d="M120 528l24 240h2112l-24 -240h-2112zM120 2064l10 192h960v984l192 -10v-974h960l-10 -192h-950v-946l-192 10v936h-970zM228 626h1915l5 44h-1915z" />
<glyph unicode="&#xb2;" horiz-adv-x="2045" d="M120 1101v88q51 0 110 38q54 34 178 204l576 793q294 405 294 614q0 220 -313 220q-278 0 -436.5 -128.5t-158.5 -383.5h-58v360q309 240 653 240q838 0 838 -604q0 -231 -214 -523l-443 -605q-47 -64 -47 -105q0 -120 269 -120h38q423 0 460 517h59v-605h-1805z M346 1199h690q-35 32 -35 110q0 32 11 63t19.5 44.5t35.5 55.5l443 605q195 266 195 465q0 197 -98 308.5t-278 157.5q34 -53 44 -120l3 -50q0 -241 -313 -672l-576 -793q-85 -117 -141 -174zM553 1297q113 157 323.5 446t266.5 366q330 455 331 731q133 -95 133 -298 q0 -166 -176 -407l-444 -607q-37 -57 -48 -78l-17 -42q-19 -43 -19 -99l1 -12h-351zM1749 1199h78v79q-35 -45 -78 -79z" />
<glyph unicode="&#xb3;" horiz-adv-x="1939" d="M120 1283v399h58q20 -527 532 -527q495 0 495 531q0 533 -431 533q-62 0 -60 53q183 13 279.5 116.5t96.5 296.5q0 373 -373 373q-228 0 -329.5 -113.5t-109.5 -360.5h-59v363q272 199 498 199q872 0 872 -448q0 -354 -600 -450q830 -109 830 -562q0 -619 -1109 -619 q-310 0 -590 216zM1077 3023q111 -122 111 -338q0 -192 -84 -315q64 16 111 30.5t102.5 42t90.5 60t59 83t24 112.5q0 124 -98 207t-316 118zM1125 1193q103 16 186.5 39.5t159 60.5t131 93t86.5 128q33 78 33 172q0 308 -521 426q103 -157 103 -426q0 -333 -178 -493z M1265 2870q57 -26 92.5 -69.5t35.5 -102.5q0 -41 -18.5 -74.5t-42.5 -52.5t-59 -37q13 71 13 151q0 101 -21 185zM1344 1346q57 146 57 340q0 151 -31 273q253 -99 253 -273q0 -116 -62 -197t-158 -119z" />
<glyph unicode="&#xb4;" horiz-adv-x="2208" d="M753 2679q89 326 174 438q29 38 53 38h624v-48q-201 -5 -343 -139l-306 -289h-202zM884 2777h32q26 24 132.5 125t164.5 155h-209q-55 -73 -120 -280z" />
<glyph unicode="&#xb5;" horiz-adv-x="3504" d="M120 2398v98h960q192 0 192 -384v-1150q0 -908 480 -908q220 0 487 198q-7 86 -7 182v1628q0 336 -384 336v98h1536v-98q-384 0 -384 -336v-1628q0 -336 384 -336v-98h-960q-43 0 -101.5 74.5t-68.5 74.5q-322 -193 -502 -193q-679 0 -1008 302v-540q90 29 154 29 q175 0 281 -110.5t106 -270.5q0 -72 -32 -148q-100 -238 -355 -239q-75 0 -148 31q-226 93 -246 486v2566q0 336 -384 336zM461 2398q141 -113 141 -336v-2564q3 -70 13 -128.5t32 -114.5t54.5 -94.5t82.5 -61.5t114 -22q104 0 166.5 47t98.5 132q24 58 24 110 q0 103 -44.5 164t-130.5 97q-54 22 -114 22q-17 0 -48.5 -7t-57.5 -13.5t-56 -5t-50 15.5q-40 29 -40 79v540q0 39 28 67.5t64 30.5t72 -26q218 -200 615 -255q-251 229 -251 887v1150q0 195 -50 266q-12 17 -44 20h-619zM655 2300h399q22 -59 22 -188v-1150 q0 -469 126 -738q-198 62 -325 178q-58 53 -130 53q-24 0 -47 -6v1613q0 134 -45 238zM700 -474q22 -5 42 -5l156 30q82 0 136.5 -50t54.5 -117q0 -94 -54 -151.5t-137 -57.5h-1q-180 0 -197 326v25zM2189 2398q141 -113 141 -336v-1628q0 -92 7 -174q2 -24 -7 -45 q2 -1 45 -52t60 -65h608q-141 113 -141 336v1628q0 223 141 336h-854zM2383 2300h466q-45 -104 -45 -238v-1628q0 -134 45 -238h-373l-41 50v5q0 28 -3.5 89t-3.5 94v1628q0 134 -45 238z" />
<glyph unicode="&#xb6;" horiz-adv-x="3197" d="M120 1995q0 307 225.5 528t523.5 221h2208v-98q-384 0 -384 -336v-1993q0 -336 384 -336v-98h-960v2427q0 336 -288 336t-288 -336v-2427h-960v98q384 0 384 336v931h-96q-293 0 -521 223t-228 524zM218 1995q0 -182 85.5 -331t235 -233.5t330.5 -84.5h96v1300h-96 q-183 0 -332 -84.5t-234 -233.5t-85 -333zM922 -19h521v2329q0 224 114 336h-494v-2329q0 -223 -141 -336zM1116 79q45 104 45 238v2231h222q-38 -104 -38 -238v-2231h-229zM2101 2646q114 -112 114 -336v-2329h521q-141 113 -141 336v1993q0 223 141 336h-635zM2276 2548 h266q-45 -104 -45 -238v-1993q0 -134 45 -238h-229v2231q0 135 -37 238z" />
<glyph unicode="&#xb7;" horiz-adv-x="1008" d="M120 1248q0 157 113.5 270.5t270.5 113.5t270.5 -113.5t113.5 -270.5t-113.5 -270.5t-270.5 -113.5t-270.5 113.5t-113.5 270.5zM218 1248q0 -116 85 -201t201 -85t201 85t85 201t-85 201t-201 85t-201 -85t-85 -201zM316 1248q0 76 56 132t132 56t132 -56t56 -132 t-56 -132t-132 -56t-132 56t-56 132z" />
<glyph unicode="&#xb8;" horiz-adv-x="1295" d="M120 -794l27 103q212 -232 435 -232q298 0 298 369q0 349 -289 349q-185 0 -284 -80l72 323l87 -4l-43 -187q66 33 166 33q122 0 227.5 -31.5t186 -92.5t126.5 -158t46 -219q0 -190 -181 -314q-127 -87 -394 -87q-275 0 -480 228zM892 -879q83 35 134 107t51 151 q0 201 -140 302q41 -97 41 -235q0 -207 -86 -325z" />
<glyph unicode="&#xb9;" horiz-adv-x="1469" d="M120 1130v88q307 0 307 268v957q0 192 -230 192v79q365 101 461 422h384v-1650q0 -268 307 -268v-88h-1229zM399 2687q115 -67 126 -244v-957q0 -163 -92 -258h595q-84 99 -84 258v1552h-217q-95 -233 -328 -351zM558 2669q149 108 232 271h56v-1454q0 -86 21 -160h-266 q22 73 22 160v960q-4 139 -65 223z" />
<glyph unicode="&#xba;" horiz-adv-x="2336" d="M120 2145q0 490 273 749t775 259t775 -258.5t273 -749.5q0 -493 -271.5 -750.5t-776.5 -257.5q-506 0 -777 257t-271 751zM218 2145q0 -335 134.5 -548t393.5 -301q-44 62 -65 138q-60 211 -60 711t60 711q23 81 64 137q-257 -89 -392 -302.5t-135 -545.5zM316 2145 q0 444 248 640q-41 -224 -41 -640q0 -419 42 -643q-249 212 -249 643zM719 2145q0 -486 56 -684q70 -247 393 -247q285 0 367 198q82 200 82 733t-82 733q-82 198 -367 198q-323 0 -393 -247q-56 -198 -56 -684zM1580 1293q264 87 401 300t137 552q0 224 -62.5 395 t-181.5 284.5t-293 171.5q26 -37 45 -81q89 -217 89 -770t-89 -770q-18 -44 -46 -82zM1763 1496q50 235 50 649q0 412 -49 646q256 -200 256 -646q0 -454 -257 -649z" />
<glyph unicode="&#xbb;" horiz-adv-x="1944" d="M120 310v357l403 312q163 126 163 269t-163 269l-403 312v357l888 -896v-84zM218 548l302 304l-302 -233v-71zM218 1877l302 -233l-302 304v-71zM737 1072l173 174v4l-173 175q47 -85 47 -177t-47 -176zM936 310v357l403 312q163 126 163 269t-163 269l-403 312v357 l888 -896v-84zM1034 548l302 304l-302 -233v-71zM1034 1877l302 -233l-302 304v-71zM1553 1072l173 174v4l-173 175q47 -85 47 -177t-47 -176z" />
<glyph unicode="&#xbf;" horiz-adv-x="1959" d="M120 278q0 198 179 354q61 53 346 238t296 304l14 154h384q44 -538 44 -544q0 -166 -173 -282l-447 -283q-110 -78 -110 -200q0 -259 403 -259q294 0 471 156q209 180 209 336l103 2l-30 -528l-102 3q0 44 -20.5 92.5t-51.5 48.5q-16 0 -64 -34l-106 -74 q-65 -46 -179.5 -76t-229.5 -30q-151 0 -286 21t-255.5 69t-207 119t-137 176.5t-50.5 236.5zM218 278q0 -237 205 -374q86 -58 200 -93q-68 84 -68 208q0 175 153 281l449 284q61 41 94.5 86.5t33.5 113.5l-36 446h-205l-5 -65q-5 -50 -34 -100q-70 -123 -307 -277 q-281 -183 -335 -230q-145 -127 -145 -280zM316 278q0 109 112 206q49 43 324 222q257 167 338 310q33 57 43 116h25l29 -352q0 -37 -21.5 -61.5t-62.5 -52.5l-449 -284q-197 -138 -197 -363v-19q-141 105 -141 278zM763 2156q0 157 114 270.5t270.5 113.5t270 -113.5 t113.5 -270.5t-113.5 -270.5t-269.5 -113.5q-158 0 -271.5 113.5t-113.5 270.5zM861 2156q0 -116 85 -201t201.5 -85t201 84.5t84.5 201.5t-84.5 201.5t-201 84.5t-201.5 -85t-85 -201zM959 2156q0 77 56 132.5t132.5 55.5t132 -55.5t55.5 -132.5t-55.5 -132.5t-132 -55.5 t-132.5 55.5t-56 132.5zM1701 -50q11 -6 22 -15l2 44q-11 -14 -24 -29z" />
<glyph unicode="&#xc0;" horiz-adv-x="3252" d="M120 684q0 844 1644 844h216v220q0 694 -634 694q-170 0 -340 -38q-109 -24 -109 -81q0 -39 51 -93q86 -84 86 -208q0 -121 -86.5 -207.5t-207.5 -86.5t-207.5 86.5t-87.5 208.5q0 103 62 191q109 153 337.5 239.5t501.5 86.5q1402 0 1402 -1272v-834q0 -336 384 -336 v-98h-960q-48 0 -101 80t-72 68q-242 -192 -595 -192q-1284 0 -1284 728zM218 684q0 -84 20 -156t54.5 -126t85 -99.5t106.5 -77.5t124 -59q136 -52 337 -82l72 -10q-227 188 -227 610q0 408 224 626q76 73 98 77q-226 -35 -392.5 -93t-285.5 -155q-106 -86 -161 -193.5 t-55 -261.5zM316 684q0 130 45 217.5t135 162.5q119 98 327 161q-131 -218 -131 -541q0 -136 24 -258t68 -211v-1q-80 19 -144 43.5t-126.5 63.5t-104.5 88t-67.5 119.5t-25.5 155.5zM543 2023q0 -53 26.5 -98.5t71.5 -72t99 -26.5q80 0 138 57.5t58 138.5q0 83 -58 139 q-38 41 -51.5 70t-27.5 92v8q-136 -66 -212 -174q-44 -62 -44 -134zM641 2024q0 25 9 48t26.5 43.5t31.5 34.5t34 30q26 -44 66 -87q30 -29 30 -71q0 -41 -28.5 -69.5t-69.5 -28.5t-70 29.5t-29 70.5zM851 3107v48h624q24 0 53 -38q26 -54 174 -438h-202l-306 289 q-142 134 -343 139zM888 684q0 -630 516 -630q341 0 586 202q-10 298 -10 625v549h-296q-796 0 -796 -746zM1242 3057q57 -54 163.5 -154t133.5 -126h20q-87 225 -111 280h-206zM1832 2393q246 -199 246 -645v-867q0 -324 10 -622l2 -48q31 -29 63 -77q18 -27 29 -36h609 q-141 113 -141 336v834q0 242 -52.5 432t-157 328t-256 228.5t-352.5 136.5zM2098 2193l3 -2q228 -123 339.5 -350t111.5 -573v-834q0 -134 45 -238h-368q-26 37 -43 57v10q-10 296 -10 618v867q0 259 -78 445z" />
<glyph unicode="&#xc1;" horiz-adv-x="3252" d="M120 684q0 844 1644 844h216v220q0 694 -634 694q-170 0 -340 -38q-109 -24 -109 -81q0 -39 51 -93q86 -84 86 -208q0 -121 -86.5 -207.5t-207.5 -86.5t-207.5 86.5t-87.5 208.5q0 103 62 191q109 153 337.5 239.5t501.5 86.5q1402 0 1402 -1272v-834q0 -336 384 -336 v-98h-960q-48 0 -101 80t-72 68q-242 -192 -595 -192q-1284 0 -1284 728zM218 684q0 -84 20 -156t54.5 -126t85 -99.5t106.5 -77.5t124 -59q136 -52 337 -82l72 -10q-227 188 -227 610q0 408 224 626q76 73 98 77q-226 -35 -392.5 -93t-285.5 -155q-106 -86 -161 -193.5 t-55 -261.5zM316 684q0 130 45 217.5t135 162.5q119 98 327 161q-131 -218 -131 -541q0 -136 24 -258t68 -211v-1q-80 19 -144 43.5t-126.5 63.5t-104.5 88t-67.5 119.5t-25.5 155.5zM543 2023q0 -53 26.5 -98.5t71.5 -72t99 -26.5q80 0 138 57.5t58 138.5q0 83 -58 139 q-38 41 -51.5 70t-27.5 92v8q-136 -66 -212 -174q-44 -62 -44 -134zM641 2024q0 25 9 48t26.5 43.5t31.5 34.5t34 30q26 -44 66 -87q30 -29 30 -71q0 -41 -28.5 -69.5t-69.5 -28.5t-70 29.5t-29 70.5zM888 684q0 -630 516 -630q341 0 586 202q-10 298 -10 625v549h-296 q-796 0 -796 -746zM1246 2679q89 326 174 438q29 38 53 38h624v-48q-201 -5 -343 -139l-306 -289h-202zM1377 2777h32q31 29 74 69.5t75.5 71t73 69t74.5 70.5h-209q-55 -73 -120 -280zM1832 2393q246 -199 246 -645v-867q0 -324 10 -622l2 -48q31 -29 63 -77q18 -27 29 -36 h609q-141 113 -141 336v834q0 242 -52.5 432t-157 328t-256 228.5t-352.5 136.5zM2098 2193l3 -2q228 -123 339.5 -350t111.5 -573v-834q0 -134 45 -238h-368q-26 37 -43 57v10q-10 296 -10 618v867q0 259 -78 445z" />
<glyph unicode="&#xc2;" horiz-adv-x="3252" d="M120 684q0 844 1644 844h216v220q0 694 -634 694q-170 0 -340 -38q-109 -24 -109 -81q0 -39 51 -93q86 -84 86 -208q0 -121 -86.5 -207.5t-207.5 -86.5t-207.5 86.5t-87.5 208.5q0 103 62 191q109 153 337.5 239.5t501.5 86.5q1402 0 1402 -1272v-834q0 -336 384 -336 v-98h-960q-48 0 -101 80t-72 68q-242 -192 -595 -192q-1284 0 -1284 728zM218 684q0 -84 20 -156t54.5 -126t85 -99.5t106.5 -77.5t124 -59q136 -52 337 -82l72 -10q-227 188 -227 610q0 408 224 626q76 73 98 77q-226 -35 -392.5 -93t-285.5 -155q-106 -86 -161 -193.5 t-55 -261.5zM316 684q0 130 45 217.5t135 162.5q119 98 327 161q-131 -218 -131 -541q0 -136 24 -258t68 -211v-1q-80 19 -144 43.5t-126.5 63.5t-104.5 88t-67.5 119.5t-25.5 155.5zM543 2023q0 -53 26.5 -98.5t71.5 -72t99 -26.5q80 0 138 57.5t58 138.5q0 83 -58 139 q-38 41 -51.5 70t-27.5 92v8q-136 -66 -212 -174q-44 -62 -44 -134zM641 2024q0 25 9 48t26.5 43.5t31.5 34.5t34 30q26 -44 66 -87q30 -29 30 -71q0 -41 -28.5 -69.5t-69.5 -28.5t-70 29.5t-29 70.5zM884 2679l278 470h767l278 -470h-184l-228 207q-138 125 -249 125 q-112 0 -250 -125l-228 -207h-184zM888 684q0 -630 516 -630q341 0 586 202q-10 298 -10 625v549h-296q-796 0 -796 -746zM1086 2827l144 132q63 57 124 92h-136zM1738 3051q60 -35 123 -92l144 -132l-132 224h-135zM1832 2393q246 -199 246 -645v-867q0 -324 10 -622l2 -48 q31 -29 63 -77q18 -27 29 -36h609q-141 113 -141 336v834q0 242 -52.5 432t-157 328t-256 228.5t-352.5 136.5zM2098 2193l3 -2q228 -123 339.5 -350t111.5 -573v-834q0 -134 45 -238h-368q-26 37 -43 57v10q-10 296 -10 618v867q0 259 -78 445z" />
<glyph unicode="&#xc3;" horiz-adv-x="3252" d="M120 684q0 844 1644 844h216v220q0 694 -634 694q-170 0 -340 -38q-109 -24 -109 -81q0 -39 51 -93q86 -84 86 -208q0 -121 -86.5 -207.5t-207.5 -86.5t-207.5 86.5t-87.5 208.5q0 103 62 191q109 153 337.5 239.5t501.5 86.5q1402 0 1402 -1272v-834q0 -336 384 -336 v-98h-960q-48 0 -101 80t-72 68q-242 -192 -595 -192q-1284 0 -1284 728zM218 684q0 -84 20 -156t54.5 -126t85 -99.5t106.5 -77.5t124 -59q136 -52 337 -82l72 -10q-227 188 -227 610q0 408 224 626q76 73 98 77q-226 -35 -392.5 -93t-285.5 -155q-106 -86 -161 -193.5 t-55 -261.5zM316 684q0 130 45 217.5t135 162.5q119 98 327 161q-131 -218 -131 -541q0 -136 24 -258t68 -211v-1q-80 19 -144 43.5t-126.5 63.5t-104.5 88t-67.5 119.5t-25.5 155.5zM543 2023q0 -53 26.5 -98.5t71.5 -72t99 -26.5q80 0 138 57.5t58 138.5q0 83 -58 139 q-38 41 -51.5 70t-27.5 92v8q-136 -66 -212 -174q-44 -62 -44 -134zM641 2024q0 25 9 48t26.5 43.5t31.5 34.5t34 30q26 -44 66 -87q30 -29 30 -71q0 -41 -28.5 -69.5t-69.5 -28.5t-70 29.5t-29 70.5zM849 2782q0 416 436 416q111 0 262 -55l370 -135q121 -44 200 -44 q145 0 205 144h98q1 -13 1 -26q0 -429 -449 -429q-99 0 -246 53l-371 134q-141 51 -216 51q-155 0 -188 -172h-98q-4 33 -4 63zM888 684q0 -630 516 -630q341 0 586 202q-10 298 -10 625v549h-296q-796 0 -796 -746zM971 2939q58 46 159 46q111 0 258 -53l371 -134 q131 -47 241 -47q234 0 298 170q-66 -51 -172 -51q-117 0 -243 46l-370 135q-135 49 -247 49q-233 0 -295 -161zM1832 2393q246 -199 246 -645v-867q0 -324 10 -622l2 -48q31 -29 63 -77q18 -27 29 -36h609q-141 113 -141 336v834q0 242 -52.5 432t-157 328t-256 228.5 t-352.5 136.5zM2098 2193l3 -2q228 -123 339.5 -350t111.5 -573v-834q0 -134 45 -238h-368q-26 37 -43 57v10q-10 296 -10 618v867q0 259 -78 445z" />
<glyph unicode="&#xc4;" horiz-adv-x="3252" d="M120 684q0 844 1644 844h216v220q0 694 -634 694q-170 0 -340 -38q-109 -24 -109 -81q0 -39 51 -93q86 -84 86 -208q0 -121 -86.5 -207.5t-207.5 -86.5t-207.5 86.5t-87.5 208.5q0 103 62 191q109 153 337.5 239.5t501.5 86.5q1402 0 1402 -1272v-834q0 -336 384 -336 v-98h-960q-48 0 -101 80t-72 68q-242 -192 -595 -192q-1284 0 -1284 728zM218 684q0 -84 20 -156t54.5 -126t85 -99.5t106.5 -77.5t124 -59q136 -52 337 -82l72 -10q-227 188 -227 610q0 408 224 626q76 73 98 77q-226 -35 -392.5 -93t-285.5 -155q-106 -86 -161 -193.5 t-55 -261.5zM316 684q0 130 45 217.5t135 162.5q119 98 327 161q-131 -218 -131 -541q0 -136 24 -258t68 -211v-1q-80 19 -144 43.5t-126.5 63.5t-104.5 88t-67.5 119.5t-25.5 155.5zM543 2023q0 -53 26.5 -98.5t71.5 -72t99 -26.5q80 0 138 57.5t58 138.5q0 83 -58 139 q-38 41 -51.5 70t-27.5 92v8q-136 -66 -212 -174q-44 -62 -44 -134zM593 2995q0 117 85.5 202.5t202.5 85.5t202.5 -85.5t85.5 -202.5t-85.5 -202.5t-202.5 -85.5t-202.5 85.5t-85.5 202.5zM641 2024q0 25 9 48t26.5 43.5t31.5 34.5t34 30q26 -44 66 -87q30 -29 30 -71 q0 -41 -28.5 -69.5t-69.5 -28.5t-70 29.5t-29 70.5zM691 2995q0 -76 57 -133t133 -57t133 57t57 133t-57 133t-133 57t-133 -57t-57 -133zM789 2995q0 37 27.5 64.5t64.5 27.5t64.5 -27.5t27.5 -64.5t-27.5 -64.5t-64.5 -27.5t-64.5 27.5t-27.5 64.5zM888 684 q0 -630 516 -630q341 0 586 202q-10 298 -10 625v549h-296q-796 0 -796 -746zM1826 2995q0 117 85.5 202.5t202.5 85.5t202.5 -85.5t85.5 -202.5t-85.5 -202.5t-202.5 -85.5t-202.5 85.5t-85.5 202.5zM1832 2393q246 -199 246 -645v-867q0 -324 10 -622l2 -48q31 -29 63 -77 q18 -27 29 -36h609q-141 113 -141 336v834q0 242 -52.5 432t-157 328t-256 228.5t-352.5 136.5zM1924 2995q0 -76 57 -133t133 -57t133 57t57 133t-57 133t-133 57t-133 -57t-57 -133zM2022 2995q0 37 27.5 64.5t64.5 27.5t64.5 -27.5t27.5 -64.5t-27.5 -64.5t-64.5 -27.5 t-64.5 27.5t-27.5 64.5zM2098 2193l3 -2q228 -123 339.5 -350t111.5 -573v-834q0 -134 45 -238h-368q-26 37 -43 57v10q-10 296 -10 618v867q0 259 -78 445z" />
<glyph unicode="&#xc5;" horiz-adv-x="3252" d="M120 684q0 844 1644 844h216v220q0 694 -634 694q-170 0 -340 -38q-109 -24 -109 -81q0 -39 51 -93q86 -84 86 -208q0 -121 -86.5 -207.5t-207.5 -86.5t-207.5 86.5t-87.5 208.5q0 103 62 191q109 153 337.5 239.5t501.5 86.5q1402 0 1402 -1272v-834q0 -336 384 -336 v-98h-960q-48 0 -101 80t-72 68q-242 -192 -595 -192q-1284 0 -1284 728zM218 684q0 -84 20 -156t54.5 -126t85 -99.5t106.5 -77.5t124 -59q136 -52 337 -82l72 -10q-227 188 -227 610q0 408 224 626q76 73 98 77q-226 -35 -392.5 -93t-285.5 -155q-106 -86 -161 -193.5 t-55 -261.5zM316 684q0 130 45 217.5t135 162.5q119 98 327 161q-131 -218 -131 -541q0 -136 24 -258t68 -211v-1q-80 19 -144 43.5t-126.5 63.5t-104.5 88t-67.5 119.5t-25.5 155.5zM543 2023q0 -53 26.5 -98.5t71.5 -72t99 -26.5q80 0 138 57.5t58 138.5q0 83 -58 139 q-38 41 -51.5 70t-27.5 92v8q-136 -66 -212 -174q-44 -62 -44 -134zM641 2024q0 25 9 48t26.5 43.5t31.5 34.5t34 30q26 -44 66 -87q30 -29 30 -71q0 -41 -28.5 -69.5t-69.5 -28.5t-70 29.5t-29 70.5zM888 684q0 -630 516 -630q341 0 586 202q-10 298 -10 625v549h-296 q-796 0 -796 -746zM1157 2957q0 77 45 150t118 117.5t149 44.5t149 -44.5t118 -117.5t45 -150t-45 -150t-118 -117.5t-149 -44.5q-75 0 -148 45.5t-118.5 118.5t-45.5 148zM1313 2957q0 -281 156 -281t156 281t-156 281t-156 -281zM1832 2393q246 -199 246 -645v-867 q0 -324 10 -622l2 -48q31 -29 63 -77q18 -27 29 -36h609q-141 113 -141 336v834q0 242 -52.5 432t-157 328t-256 228.5t-352.5 136.5zM2098 2193l3 -2q228 -123 339.5 -350t111.5 -573v-834q0 -134 45 -238h-368q-26 37 -43 57v10q-10 296 -10 618v867q0 259 -78 445z" />
<glyph unicode="&#xc6;" horiz-adv-x="4788" d="M144 684q0 844 1644 844h216v220q0 694 -634 694q-61 0 -128 -4.5t-144.5 -16.5t-127 -37t-49.5 -61q0 -39 51 -93q86 -84 86 -207q0 -122 -86.5 -208.5t-207.5 -86.5q-118 0 -206 85t-88 200q0 113 61 201q135 189 378.5 257.5t460.5 68.5q644 0 1023 -322 q369 322 983 322q303 0 548.5 -88.5t415 -253.5t261 -407t91.5 -543h-1459q-231 0 -461 77v-471q5 -446 115.5 -623t460.5 -177q187 0 363.5 50t319.5 137t257.5 197t195.5 238l83 -53q-88 -138 -210.5 -256t-276 -211t-342.5 -146.5t-390 -53.5q-346 0 -562 106t-393 317 q-305 -254 -502 -336q-177 -87 -463 -87q-1284 0 -1284 728zM242 684q0 -518 799 -610q-227 185 -227 602q0 502 321 711q-893 -134 -893 -703zM340 684q0 388 507 541q-131 -218 -131 -521.5t92 -489.5q-468 115 -468 470zM564 2018q0 -49 27.5 -93.5t74 -71.5t97.5 -27 q82 0 139.5 58t57.5 139q0 82 -55 138q-46 47 -57 69.5t-24 88.5q-1 5 -1 8v4q-136 -66 -196 -151q-63 -88 -63 -162zM665 2040q0 59 101 140q26 -44 61 -80t35 -78q0 -41 -28.5 -69.5t-69.5 -28.5q-46 0 -72.5 32t-26.5 84zM912 684q0 -630 516 -630q331 0 576 202v1174 h-296q-796 0 -796 -746zM1872 2380q230 -210 230 -632v-1467q104 73 229 174q35 26 73 22t64 -35q161 -191 354 -288q-142 192 -145 713.5t-3 652.5q12 645 199 855q-236 -74 -416 -231q-64 -55 -127 -1q-191 162 -458 237zM2131 2165q72 -43 131.5 -93.5t130.5 -50.5h1 q72 0 133 53.5t136 99.5q-80 -256 -87 -653v-668q2 -247 37 -425q-11 11 -33 35.5t-38 41.5t-38.5 35.5t-46.5 28t-50 9.5q-80 0 -137 -47l-70 -55v1272q0 238 -69 417zM2772 1428q221 -82 461 -82h691q0 738 -173 957q-110 139 -431 139t-430 -221t-118 -702v-91z M3810 2385q212 -231 212 -1039h569q-14 270 -111.5 482.5t-267 352t-402.5 204.5zM4022 2193q400 -227 463 -749h-366q-7 481 -97 749z" />
<glyph unicode="&#xc7;" horiz-adv-x="2803" d="M177 1248q0 629 350 960.5t994 331.5q412 0 694 -134q362 -172 362 -444q0 -120 -87.5 -210.5t-205.5 -90.5q-119 0 -205 86t-86 205q0 81 39 146q48 100 48 128q0 70 -91 113q-217 103 -468 103q-414 0 -504 -317q-72 -254 -72 -877q0 -730 72 -892q134 -302 504 -302 q187 0 363.5 50t319.5 137t257.5 197t195.5 238l83 -53q-88 -138 -210.5 -256t-276 -211t-342.5 -146.5t-390 -53.5q-44 0 -86 1l-33 -144q66 33 166 33q101 0 204.5 -36.5t188.5 -100t139 -159.5t54 -205q0 -172 -202 -304q-150 -97 -374 -97q-276 0 -480 228l28 103 q212 -232 434 -232q298 0 298 409q0 309 -288 309q-184 0 -284 -80l62 281q-564 42 -867.5 370t-303.5 916zM275 1247q0 -473 206.5 -761.5t600.5 -384.5q-97 84 -166 240t-69 850t76 961q41 144 138 236q-382 -100 -584 -388.5t-202 -752.5zM373 1248q0 686 460 945 q-84 -284 -84 -945q0 -728 78 -944q-454 257 -454 944zM1877 -890q82 45 130.5 108.5t48.5 126.5q0 153 -117 253q17 -65 17 -146q0 -213 -79 -342zM2091 1939q0 -69 59.5 -124.5t133.5 -55.5q78 0 136.5 61.5t58.5 141.5q0 214 -330 366q20 -33 25 -67.5t-2 -63.5t-20 -63 t-27 -63t-24 -64.5t-10 -67.5zM2189 1946q0 16 2.5 28t5 17.5t8.5 16t9 17.5q38 82 51 126q116 -86 116 -189q0 -40 -30 -72.5t-69 -32.5q-35 0 -64 27.5t-29 61.5z" />
<glyph unicode="&#xc8;" d="M120 1248q0 629 350 960.5t994 331.5q426 0 726 -146t459 -436.5t159 -709.5h-1920q0 -730 72 -892q134 -302 504 -302q445 0 713 150q304 170 483 452l83 -53q-189 -297 -518 -485q-283 -162 -761 -162q-648 0 -996 329.5t-348 962.5zM218 1248q0 -473 206.5 -762 t600.5 -385q-97 84 -155 215q-80 181 -80 932v98q0 621 114 889q36 86 104 154q-384 -100 -587 -388.5t-203 -752.5zM316 1248q0 694 470 950q-94 -288 -94 -852v-98q0 -726 78 -944q-454 256 -454 944zM875 3107v48h624q24 0 53 -38q26 -54 174 -438h-202l-306 289 q-142 134 -343 139zM888 1346h1152q0 647 -72 803q-135 293 -504 293q-366 0 -470 -245q-106 -251 -106 -851zM1266 3057q57 -54 163.5 -154t133.5 -126h20q-87 225 -111 280h-206zM1909 2392q91 -80 148 -202q81 -176 81 -844h570q-21 424 -226 689t-573 357zM2163 2186 q382 -221 439 -742h-366q-6 541 -73 742z" />
<glyph unicode="&#xc9;" d="M120 1248q0 629 350 960.5t994 331.5q426 0 726 -146t459 -436.5t159 -709.5h-1920q0 -730 72 -892q134 -302 504 -302q445 0 713 150q304 170 483 452l83 -53q-189 -297 -518 -485q-283 -162 -761 -162q-648 0 -996 329.5t-348 962.5zM218 1248q0 -473 206.5 -762 t600.5 -385q-97 84 -155 215q-80 181 -80 932v98q0 621 114 889q36 86 104 154q-384 -100 -587 -388.5t-203 -752.5zM316 1248q0 694 470 950q-94 -288 -94 -852v-98q0 -726 78 -944q-454 256 -454 944zM888 1346h1152q0 647 -72 803q-135 293 -504 293q-366 0 -470 -245 q-106 -251 -106 -851zM1353 2679q89 326 174 438q29 38 53 38h624v-48q-201 -5 -343 -139l-306 -289h-202zM1484 2777h32q31 29 74 69.5t75.5 71t73 69t74.5 70.5h-209q-55 -73 -120 -280zM1909 2392q91 -80 148 -202q81 -176 81 -844h570q-21 424 -226 689t-573 357z M2163 2186q382 -221 439 -742h-366q-6 541 -73 742z" />
<glyph unicode="&#xca;" d="M120 1248q0 629 350 960.5t994 331.5q426 0 726 -146t459 -436.5t159 -709.5h-1920q0 -730 72 -892q134 -302 504 -302q445 0 713 150q304 170 483 452l83 -53q-189 -297 -518 -485q-283 -162 -761 -162q-648 0 -996 329.5t-348 962.5zM218 1248q0 -473 206.5 -762 t600.5 -385q-97 84 -155 215q-80 181 -80 932v98q0 621 114 889q36 86 104 154q-384 -100 -587 -388.5t-203 -752.5zM316 1248q0 694 470 950q-94 -288 -94 -852v-98q0 -726 78 -944q-454 256 -454 944zM851 2679l278 470h767l278 -470h-184l-228 207q-138 125 -249 125 q-112 0 -250 -125l-228 -207h-184zM888 1346h1152q0 647 -72 803q-135 293 -504 293q-366 0 -470 -245q-106 -251 -106 -851zM1053 2827l144 132q63 57 124 92h-136zM1705 3051q60 -35 123 -92l144 -132l-132 224h-135zM1909 2392q91 -80 148 -202q81 -176 81 -844h570 q-21 424 -226 689t-573 357zM2163 2186q382 -221 439 -742h-366q-6 541 -73 742z" />
<glyph unicode="&#xcb;" d="M120 1248q0 629 350 960.5t994 331.5q426 0 726 -146t459 -436.5t159 -709.5h-1920q0 -730 72 -892q134 -302 504 -302q445 0 713 150q304 170 483 452l83 -53q-189 -297 -518 -485q-283 -162 -761 -162q-648 0 -996 329.5t-348 962.5zM218 1248q0 -473 206.5 -762 t600.5 -385q-97 84 -155 215q-80 181 -80 932v98q0 621 114 889q36 86 104 154q-384 -100 -587 -388.5t-203 -752.5zM316 1248q0 694 470 950q-94 -288 -94 -852v-98q0 -726 78 -944q-454 256 -454 944zM520 2995q0 117 85.5 202.5t202.5 85.5t202.5 -85.5t85.5 -202.5 t-85.5 -202.5t-202.5 -85.5t-202.5 85.5t-85.5 202.5zM618 2995q0 -76 57 -133t133 -57t133 57t57 133t-57 133t-133 57t-133 -57t-57 -133zM716 2995q0 37 27.5 64.5t64.5 27.5t64.5 -27.5t27.5 -64.5t-27.5 -64.5t-64.5 -27.5t-64.5 27.5t-27.5 64.5zM888 1346h1152 q0 647 -72 803q-135 293 -504 293q-366 0 -470 -245q-106 -251 -106 -851zM1753 2995q0 117 85.5 202.5t202.5 85.5t202.5 -85.5t85.5 -202.5t-85.5 -202.5t-202.5 -85.5t-202.5 85.5t-85.5 202.5zM1851 2995q0 -76 57 -133t133 -57t133 57t57 133t-57 133t-133 57t-133 -57 t-57 -133zM1909 2392q91 -80 148 -202q81 -176 81 -844h570q-21 424 -226 689t-573 357zM1949 2995q0 37 27.5 64.5t64.5 27.5t64.5 -27.5t27.5 -64.5t-27.5 -64.5t-64.5 -27.5t-64.5 27.5t-27.5 64.5zM2163 2186q382 -221 439 -742h-366q-6 541 -73 742z" />
<glyph unicode="&#xcc;" horiz-adv-x="1776" d="M120 0v98q384 0 384 336v1628q0 336 -384 336v98h1536v-98q-384 0 -384 -336v-1628q0 -336 384 -336v-98h-1536zM299 3107v48h624q24 0 53 -38q26 -54 174 -438h-202l-306 289q-142 134 -343 139zM461 98h854q-141 113 -141 336v1628q0 223 141 336h-854 q141 -113 141 -336v-1628q0 -223 -141 -336zM655 196q45 104 45 238v1628q0 134 -45 238h466q-45 -104 -45 -238v-1628q0 -134 45 -238h-466zM690 3057q57 -54 163.5 -154t133.5 -126h20q-87 225 -111 280h-206z" />
<glyph unicode="&#xcd;" horiz-adv-x="1776" d="M120 0v98q384 0 384 336v1628q0 336 -384 336v98h1536v-98q-384 0 -384 -336v-1628q0 -336 384 -336v-98h-1536zM461 98h854q-141 113 -141 336v1628q0 223 141 336h-854q141 -113 141 -336v-1628q0 -223 -141 -336zM655 196q45 104 45 238v1628q0 134 -45 238h466 q-45 -104 -45 -238v-1628q0 -134 45 -238h-466zM681 2679q89 326 174 438q29 38 53 38h624v-48q-201 -5 -343 -139l-306 -289h-202zM812 2777h32q26 24 132.5 125t164.5 155h-209q-55 -73 -120 -280z" />
<glyph unicode="&#xce;" horiz-adv-x="1776" d="M120 0v98q384 0 384 336v1628q0 336 -384 336v98h1536v-98q-384 0 -384 -336v-1628q0 -336 384 -336v-98h-1536zM227 2679l278 470h767l278 -470h-184l-228 207q-138 125 -249 125q-112 0 -250 -125l-228 -207h-184zM429 2827l144 132q63 57 124 92h-136zM461 98h854 q-141 113 -141 336v1628q0 223 141 336h-854q141 -113 141 -336v-1628q0 -223 -141 -336zM655 196q45 104 45 238v1628q0 134 -45 238h466q-45 -104 -45 -238v-1628q0 -134 45 -238h-466zM1081 3051q60 -35 123 -92l144 -132l-132 224h-135z" />
<glyph unicode="&#xcf;" horiz-adv-x="1776" d="M82 2996q0 117 85.5 202.5t202.5 85.5t202.5 -85.5t85.5 -202.5t-85.5 -202.5t-202.5 -85.5t-202.5 85.5t-85.5 202.5zM120 0v98q384 0 384 336v1628q0 336 -384 336v98h1536v-98q-384 0 -384 -336v-1628q0 -336 384 -336v-98h-1536zM180 2996q0 -76 57 -133t133 -57 t133 57t57 133t-57 133t-133 57t-133 -57t-57 -133zM278 2996q0 37 27.5 64.5t64.5 27.5t64.5 -27.5t27.5 -64.5t-27.5 -64.5t-64.5 -27.5t-64.5 27.5t-27.5 64.5zM461 98h854q-141 113 -141 336v1628q0 223 141 336h-854q141 -113 141 -336v-1628q0 -223 -141 -336z M655 196q45 104 45 238v1628q0 134 -45 238h466q-45 -104 -45 -238v-1628q0 -134 45 -238h-466zM1118 2996q0 117 85.5 202.5t202.5 85.5t202.5 -85.5t85.5 -202.5t-85.5 -202.5t-202.5 -85.5t-202.5 85.5t-85.5 202.5zM1216 2996q0 -76 57 -133t133 -57t133 57t57 133 t-57 133t-133 57t-133 -57t-57 -133zM1314 2996q0 37 27.5 64.5t64.5 27.5t64.5 -27.5t27.5 -64.5t-27.5 -64.5t-64.5 -27.5t-64.5 27.5t-27.5 64.5z" />
<glyph unicode="&#xd0;" horiz-adv-x="3224" d="M144 0v98q370 0 384 293v737h-360l24 240h336v694q0 336 -384 336v98h1640q415 0 715.5 -142.5t464.5 -425t164 -680.5q0 -301 -93 -537t-267 -392t-423 -237.5t-561 -81.5h-1640zM485 2398q141 -113 141 -336v-1673q-9 -189 -136 -291h708v2300h-713zM679 2300h421 v-2104h-417q36 85 41 190v1676q0 134 -45 238zM1296 98h488q365 0 470 254q106 259 106 897t-106 895q-105 254 -470 254h-488v-1030h464l-24 -240h-440v-1030zM2231 148q380 94 589.5 376.5t209.5 723.5q0 436 -210.5 720t-587.5 379q73 -69 113 -166q113 -275 113 -933 t-113 -933q-40 -98 -114 -167zM2457 337q99 297 99 911q0 612 -98 909q228 -124 351 -356t123 -553q0 -325 -122.5 -557t-352.5 -354z" />
<glyph unicode="&#xd1;" horiz-adv-x="3504" d="M120 0v98q384 0 384 336v1628q0 336 -384 336v98h955q43 0 96.5 -66t63.5 -66q252 176 517 176q1248 0 1248 -908v-1198q0 -336 384 -336v-98h-1496v98q344 0 344 336v1150q0 858 -480 858q-247 0 -487 -178q7 -60 7 -202v-1628q0 -336 344 -336v-98h-1496zM461 98h843 q-130 113 -130 336v1628q0 136 -6 191q-2 19 2 36q-11 7 -47.5 50.5t-56.5 58.5h-605q141 -113 141 -336v-1628q0 -223 -141 -336zM655 196q45 104 45 238v1628q0 134 -45 238h370q14 -17 22.5 -28.5t14.5 -26.5t9 -22t4.5 -28t1.5 -32t-0.5 -45t-0.5 -56v-1628 q0 -134 42 -238h-463zM956 2796q0 416 436 416q111 0 262 -55l370 -135q121 -44 200 -44q145 0 205 144h98q1 -13 1 -26q0 -429 -449 -429q-99 0 -246 53l-371 134q-141 51 -216 51q-155 0 -188 -172h-98q-4 33 -4 63zM1078 2953q58 46 159 46q111 0 258 -53l371 -134 q131 -47 241 -47q234 0 298 170q-66 -51 -172 -51q-117 0 -243 46l-370 135q-135 49 -247 49q-233 0 -295 -161zM2082 2423q248 -220 248 -839v-1150q0 -223 -130 -336h843q-141 113 -141 336v1198q0 155 -40 279t-111 210.5t-175.5 149t-225 98.5t-268.5 54zM2306 2279 q115 -33 202.5 -84t155.5 -127.5t104 -186.5t36 -249v-1198q0 -134 45 -238h-463q42 104 42 238v1150q0 439 -122 695z" />
<glyph unicode="&#xd2;" d="M120 1248q0 629 350 960.5t994 331.5q426 0 726 -146t459 -436.5t159 -709.5q0 -633 -348.5 -962.5t-995.5 -329.5q-648 0 -996 329.5t-348 962.5zM218 1248q0 -467 201 -754.5t586 -387.5q-98 92 -139 238q-76 267 -76 904t76 904q41 145 138 236q-382 -100 -584 -388.5 t-202 -751.5zM316 1248q0 343 116.5 580.5t343.5 364.5q-46 -138 -65 -367.5t-19 -577.5q0 -349 19.5 -579t65.5 -369q-461 257 -461 948zM843 3107v48h624q24 0 53 -38q26 -54 174 -438h-202l-306 289q-142 134 -343 139zM888 1248q0 -623 72 -877q90 -317 504 -317 q365 0 470 254q106 259 106 940q0 683 -106 940q-105 254 -470 254q-414 0 -504 -317q-72 -254 -72 -877zM1234 3057q57 -54 163.5 -154t133.5 -126h20q-87 225 -111 280h-206zM1911 104q391 97 595 385t204 759q0 466 -205 755.5t-593 387.5q73 -69 113 -166 q113 -275 113 -977t-113 -977q-40 -98 -114 -167zM2137 293q99 301 99 955q0 652 -98 953q474 -258 474 -953q0 -704 -475 -955z" />
<glyph unicode="&#xd3;" d="M120 1248q0 629 350 960.5t994 331.5q426 0 726 -146t459 -436.5t159 -709.5q0 -633 -348.5 -962.5t-995.5 -329.5q-648 0 -996 329.5t-348 962.5zM218 1248q0 -467 201 -754.5t586 -387.5q-98 92 -139 238q-76 267 -76 904t76 904q41 145 138 236q-382 -100 -584 -388.5 t-202 -751.5zM316 1248q0 343 116.5 580.5t343.5 364.5q-46 -138 -65 -367.5t-19 -577.5q0 -349 19.5 -579t65.5 -369q-461 257 -461 948zM888 1248q0 -623 72 -877q90 -317 504 -317q365 0 470 254q106 259 106 940q0 683 -106 940q-105 254 -470 254q-414 0 -504 -317 q-72 -254 -72 -877zM1295 2679q89 326 174 438q29 38 53 38h624v-48q-201 -5 -343 -139l-306 -289h-202zM1426 2777h32q26 24 132.5 125t164.5 155h-209q-55 -73 -120 -280zM1911 104q391 97 595 385t204 759q0 466 -205 755.5t-593 387.5q73 -69 113 -166 q113 -275 113 -977t-113 -977q-40 -98 -114 -167zM2137 293q99 301 99 955q0 652 -98 953q474 -258 474 -953q0 -704 -475 -955z" />
<glyph unicode="&#xd4;" d="M120 1248q0 629 350 960.5t994 331.5q426 0 726 -146t459 -436.5t159 -709.5q0 -633 -348.5 -962.5t-995.5 -329.5q-648 0 -996 329.5t-348 962.5zM218 1248q0 -467 201 -754.5t586 -387.5q-98 92 -139 238q-76 267 -76 904t76 904q41 145 138 236q-382 -100 -584 -388.5 t-202 -751.5zM316 1248q0 343 116.5 580.5t343.5 364.5q-46 -138 -65 -367.5t-19 -577.5q0 -349 19.5 -579t65.5 -369q-461 257 -461 948zM803 2679l278 470h767l278 -470h-184l-228 207q-138 125 -249 125q-112 0 -250 -125l-228 -207h-184zM888 1248q0 -623 72 -877 q90 -317 504 -317q365 0 470 254q106 259 106 940q0 683 -106 940q-105 254 -470 254q-414 0 -504 -317q-72 -254 -72 -877zM1005 2827l144 132q63 57 124 92h-136zM1657 3051q60 -35 123 -92l144 -132l-132 224h-135zM1911 104q391 97 595 385t204 759q0 466 -205 755.5 t-593 387.5q73 -69 113 -166q113 -275 113 -977t-113 -977q-40 -98 -114 -167zM2137 293q99 301 99 955q0 652 -98 953q474 -258 474 -953q0 -704 -475 -955z" />
<glyph unicode="&#xd5;" d="M120 1248q0 629 350 960.5t994 331.5q426 0 726 -146t459 -436.5t159 -709.5q0 -633 -348.5 -962.5t-995.5 -329.5q-648 0 -996 329.5t-348 962.5zM218 1248q0 -467 201 -754.5t586 -387.5q-98 92 -139 238q-76 267 -76 904t76 904q41 145 138 236q-382 -100 -584 -388.5 t-202 -751.5zM316 1248q0 343 116.5 580.5t343.5 364.5q-46 -138 -65 -367.5t-19 -577.5q0 -349 19.5 -579t65.5 -369q-461 257 -461 948zM665 2782q0 416 436 416q111 0 262 -55l370 -135q121 -44 200 -44q145 0 205 144h98q1 -13 1 -26q0 -429 -449 -429q-99 0 -246 53 l-371 134q-141 51 -216 51q-155 0 -188 -172h-98q-4 33 -4 63zM787 2939q58 46 159 46q111 0 258 -53l371 -134q131 -47 241 -47q234 0 298 170q-66 -51 -172 -51q-117 0 -243 46l-370 135q-135 49 -247 49q-233 0 -295 -161zM888 1248q0 -623 72 -877q90 -317 504 -317 q365 0 470 254q106 259 106 940q0 683 -106 940q-105 254 -470 254q-414 0 -504 -317q-72 -254 -72 -877zM1911 104q391 97 595 385t204 759q0 466 -205 755.5t-593 387.5q73 -69 113 -166q113 -275 113 -977t-113 -977q-40 -98 -114 -167zM2137 293q99 301 99 955 q0 652 -98 953q474 -258 474 -953q0 -704 -475 -955z" />
<glyph unicode="&#xd6;" d="M120 1248q0 629 350 960.5t994 331.5q426 0 726 -146t459 -436.5t159 -709.5q0 -633 -348.5 -962.5t-995.5 -329.5q-648 0 -996 329.5t-348 962.5zM218 1248q0 -467 201 -754.5t586 -387.5q-98 92 -139 238q-76 267 -76 904t76 904q41 145 138 236q-382 -100 -584 -388.5 t-202 -751.5zM316 1248q0 343 116.5 580.5t343.5 364.5q-46 -138 -65 -367.5t-19 -577.5q0 -349 19.5 -579t65.5 -369q-461 257 -461 948zM560 2995q0 117 85.5 202.5t202.5 85.5t202.5 -85.5t85.5 -202.5t-85.5 -202.5t-202.5 -85.5t-202.5 85.5t-85.5 202.5zM658 2995 q0 -76 57 -133t133 -57t133 57t57 133t-57 133t-133 57t-133 -57t-57 -133zM756 2995q0 37 27.5 64.5t64.5 27.5t64.5 -27.5t27.5 -64.5t-27.5 -64.5t-64.5 -27.5t-64.5 27.5t-27.5 64.5zM888 1248q0 -623 72 -877q90 -317 504 -317q365 0 470 254q106 259 106 940 q0 683 -106 940q-105 254 -470 254q-414 0 -504 -317q-72 -254 -72 -877zM1793 2995q0 117 85.5 202.5t202.5 85.5t202.5 -85.5t85.5 -202.5t-85.5 -202.5t-202.5 -85.5t-202.5 85.5t-85.5 202.5zM1891 2995q0 -76 57 -133t133 -57t133 57t57 133t-57 133t-133 57t-133 -57 t-57 -133zM1911 104q391 97 595 385t204 759q0 466 -205 755.5t-593 387.5q73 -69 113 -166q113 -275 113 -977t-113 -977q-40 -98 -114 -167zM1989 2995q0 37 27.5 64.5t64.5 27.5t64.5 -27.5t27.5 -64.5t-27.5 -64.5t-64.5 -27.5t-64.5 27.5t-27.5 64.5zM2137 293 q99 301 99 955q0 652 -98 953q474 -258 474 -953q0 -704 -475 -955z" />
<glyph unicode="&#xd7;" horiz-adv-x="1886" d="M120 1934l144 130l677 -682l696 696l129 -139l-691 -691l682 -677l-144 -129l-672 672l-667 -672l-130 144l662 662z" />
<glyph unicode="&#xd8;" d="M120 1248q0 629 350 960.5t994 331.5q618 0 963 -303l303 299l68 -70l-300 -297q310 -330 310 -921q0 -633 -348.5 -962.5t-995.5 -329.5q-592 0 -932 273l-270 -267l-68 70l265 262q-339 331 -339 954zM218 1248q0 -467 201 -754.5t586 -387.5q-98 92 -139 238 q-76 267 -76 904t76 904q41 145 138 236q-382 -100 -584 -388.5t-202 -751.5zM316 1248q0 343 116.5 580.5t343.5 364.5q-46 -138 -65 -367.5t-19 -577.5q0 -349 19.5 -579t65.5 -369q-461 257 -461 948zM888 1248q0 -300 17 -514l1108 1094q-10 89 -22.5 156.5t-33 134 t-48 114t-68.5 89t-94 67t-124 39.5t-159 14q-414 0 -504 -317q-72 -254 -72 -877zM917 608q17 -144 43 -237q90 -317 504 -317q365 0 470 254q106 259 106 940q0 257 -15 454zM1911 104q391 97 595 385t204 759q0 466 -205 755.5t-593 387.5q73 -69 113 -166 q113 -275 113 -977t-113 -977q-40 -98 -114 -167zM2137 293q99 301 99 955q0 652 -98 953q474 -258 474 -953q0 -704 -475 -955z" />
<glyph unicode="&#xd9;" horiz-adv-x="3444" d="M60 2398v98h960q192 0 192 -434v-1484q0 -524 480 -524q247 0 487 178q-7 86 -7 202v2008q504 0 672 99l96 -1v-2106q0 -336 384 -336v-98h-960q-43 0 -99.5 62.5t-66.5 62.5q-247 -169 -506 -169q-1248 0 -1248 908v1198q0 336 -384 336zM401 2398q141 -113 141 -336 v-1198q0 -148 36.5 -268t101.5 -205t161.5 -148.5t207.5 -101t248 -59.5q-183 158 -183 496v1484q0 203 -42 291q-20 45 -52 45h-619zM595 2300h393q28 -76 28 -238v-1484q0 -195 57 -340q-58 23 -107 48.5t-94 58t-80.5 70t-64.5 85t-47.5 102t-29 120.5t-10.5 142v1198 q0 134 -45 238zM1003 3107v48h624q24 0 53 -38q26 -54 174 -438h-202l-306 289q-142 134 -343 139zM1394 3057q57 -54 163.5 -154t133.5 -126h20q-87 225 -111 280h-206zM2270 434q0 -14 -0.5 -52t0 -49t1.5 -39t3.5 -39t7.5 -32.5t12.5 -34t18 -28.5t24.5 -32 q21 -23 34 -30h612q-141 113 -141 336v1997q-180 -77 -572 -86v-1911zM2368 434v1816q225 10 376 46v-1862q0 -134 45 -238h-381q-32 37 -34 52q-6 78 -6 186z" />
<glyph unicode="&#xda;" horiz-adv-x="3444" d="M60 2398v98h960q192 0 192 -434v-1484q0 -524 480 -524q247 0 487 178q-7 86 -7 202v2008q504 0 672 99l96 -1v-2106q0 -336 384 -336v-98h-960q-43 0 -99.5 62.5t-66.5 62.5q-247 -169 -506 -169q-1248 0 -1248 908v1198q0 336 -384 336zM401 2398q141 -113 141 -336 v-1198q0 -148 36.5 -268t101.5 -205t161.5 -148.5t207.5 -101t248 -59.5q-183 158 -183 496v1484q0 203 -42 291q-20 45 -52 45h-619zM595 2300h393q28 -76 28 -238v-1484q0 -195 57 -340q-58 23 -107 48.5t-94 58t-80.5 70t-64.5 85t-47.5 102t-29 120.5t-10.5 142v1198 q0 134 -45 238zM1513 2679q89 326 174 438q29 38 53 38h624v-48q-201 -5 -343 -139l-306 -289h-202zM1644 2777h32q36 34 94 88.5t109 102.5t94 89h-209q-55 -73 -120 -280zM2270 434q0 -14 -0.5 -52t0 -49t1.5 -39t3.5 -39t7.5 -32.5t12.5 -34t18 -28.5t24.5 -32 q21 -23 34 -30h612q-141 113 -141 336v1997q-180 -77 -572 -86v-1911zM2368 434v1816q225 10 376 46v-1862q0 -134 45 -238h-381q-32 37 -34 52q-6 78 -6 186z" />
<glyph unicode="&#xdb;" horiz-adv-x="3444" d="M60 2398v98h960q192 0 192 -434v-1484q0 -524 480 -524q247 0 487 178q-7 86 -7 202v2008q504 0 672 99l96 -1v-2106q0 -336 384 -336v-98h-960q-43 0 -99.5 62.5t-66.5 62.5q-247 -169 -506 -169q-1248 0 -1248 908v1198q0 336 -384 336zM401 2398q141 -113 141 -336 v-1198q0 -148 36.5 -268t101.5 -205t161.5 -148.5t207.5 -101t248 -59.5q-183 158 -183 496v1484q0 203 -42 291q-20 45 -52 45h-619zM595 2300h393q28 -76 28 -238v-1484q0 -195 57 -340q-58 23 -107 48.5t-94 58t-80.5 70t-64.5 85t-47.5 102t-29 120.5t-10.5 142v1198 q0 134 -45 238zM1031 2679l278 470h767l278 -470h-184l-228 207q-138 125 -249 125q-112 0 -250 -125l-228 -207h-184zM1233 2827l144 132q63 57 124 92h-136zM1885 3051q60 -35 123 -92l144 -132l-132 224h-135zM2270 434q0 -14 -0.5 -52t0 -49t1.5 -39t3.5 -39t7.5 -32.5 t12.5 -34t18 -28.5t24.5 -32q21 -23 34 -30h612q-141 113 -141 336v1997q-180 -77 -572 -86v-1911zM2368 434v1816q225 10 376 46v-1862q0 -134 45 -238h-381q-32 37 -34 52q-6 78 -6 186z" />
<glyph unicode="&#xdc;" horiz-adv-x="3444" d="M60 2398v98h960q192 0 192 -434v-1484q0 -524 480 -524q247 0 487 178q-7 86 -7 202v2008q504 0 672 99l96 -1v-2106q0 -336 384 -336v-98h-960q-43 0 -99.5 62.5t-66.5 62.5q-247 -169 -506 -169q-1248 0 -1248 908v1198q0 336 -384 336zM401 2398q141 -113 141 -336 v-1198q0 -148 36.5 -268t101.5 -205t161.5 -148.5t207.5 -101t248 -59.5q-183 158 -183 496v1484q0 203 -42 291q-20 45 -52 45h-619zM595 2300h393q28 -76 28 -238v-1484q0 -195 57 -340q-58 23 -107 48.5t-94 58t-80.5 70t-64.5 85t-47.5 102t-29 120.5t-10.5 142v1198 q0 134 -45 238zM780 2995q0 117 85.5 202.5t202.5 85.5t202.5 -85.5t85.5 -202.5t-85.5 -202.5t-202.5 -85.5t-202.5 85.5t-85.5 202.5zM878 2995q0 -76 57 -133t133 -57t133 57t57 133q0 37 -15.5 72.5t-41 61t-61 41t-72.5 15.5q-76 0 -133 -57t-57 -133zM976 2995 q0 37 27.5 64.5t64.5 27.5t64.5 -27.5t27.5 -64.5t-27.5 -64.5t-64.5 -27.5q-24 0 -45.5 12.5t-34 34t-12.5 45.5zM2013 2995q0 117 85.5 202.5t202.5 85.5t202.5 -85.5t85.5 -202.5t-85.5 -202.5t-202.5 -85.5t-202.5 85.5t-85.5 202.5zM2111 2995q0 -76 57 -133t133 -57 t133 57t57 133t-57 133t-133 57t-133 -57t-57 -133zM2209 2995q0 37 27.5 64.5t64.5 27.5t64.5 -27.5t27.5 -64.5t-27.5 -64.5t-64.5 -27.5t-64.5 27.5t-27.5 64.5zM2270 434q0 -14 -0.5 -52t0 -49t1.5 -39t3.5 -39t7.5 -32.5t12.5 -34t18 -28.5t24.5 -32q21 -23 34 -30h612 q-141 113 -141 336v1997q-180 -77 -572 -86v-1911zM2368 434v1816q225 10 376 46v-1862q0 -134 45 -238h-381q-32 37 -34 52q-6 78 -6 186z" />
<glyph unicode="&#xdd;" horiz-adv-x="3026" d="M60 2398v98h955q157 0 341 -355l512 -891l511 891q32 56 32 109q0 145 -301 148v98h796v-98q-269 0 -427 -276l-530 -927v-761q0 -336 384 -336v-98h-1536v98q384 0 384 336v478l-675 1210q-154 276 -446 276zM391 2398q119 -82 201 -228l675 -1210q12 -22 12 -48v-478 q0 -223 -141 -336h854q-141 113 -141 336v719q-44 7 -68 48l-513 893q-63 121 -120.5 196t-102.5 99q-16 8 -32 9h-624zM625 2300h379q27 -16 68 -70q52 -68 112 -183l514 -895q22 -38 55 -62v-656q0 -134 45 -238h-466q45 104 45 238v478q0 51 -25 95l-675 1210 q-24 44 -52 83zM1211 2678q89 326 174 438q29 38 53 38h624v-48q-201 -5 -343 -139l-306 -289h-202zM1342 2776h32q26 24 132.5 125t164.5 155h-209q-55 -73 -120 -280zM2450 2398q35 -35 49 -82q44 47 93 82h-142z" />
<glyph unicode="&#xde;" horiz-adv-x="3120" d="M144 0v98q384 0 384 336v1628q0 336 -384 336v98h1536v-98q-360 0 -381 -238h381q670 0 939 -189q405 -285 405 -603q0 -391 -405 -627q-283 -165 -939 -165h-384v-142q0 -336 384 -336v-98h-1536zM485 98h854q-141 114 -141 336v1628q0 131 25 205.5t96 130.5h-834 q141 -113 141 -336v-1628q0 -223 -141 -336zM679 196q45 104 45 238v1628q0 134 -45 238h452q-19 -52 -25 -102t-6 -136v-1628q0 -134 45 -238h-466zM1296 674h384q576 0 576 694t-576 694h-384v-1388zM2093 695q312 35 477 131q63 37 113 74t96.5 87t78 105t50 125.5 t18.5 150.5q0 267 -363 523q-154 108 -466 148q257 -188 257 -671q0 -481 -261 -673zM2342 839q110 220 110 529q0 289 -104 518q96 -32 158 -75q322 -227 322 -443q0 -57 -11 -108t-32 -93t-47.5 -78t-62.5 -68.5t-73 -58.5t-82 -52q-71 -42 -178 -71z" />
<glyph unicode="&#xdf;" horiz-adv-x="3408" d="M120 0v98q384 0 384 336v788h-184v98h184q56 1220 1488 1220q542 0 789 -276v-81l-415 -238q-128 -80 -128 -184q0 -120 268 -307l441 -307q341 -237 341 -528q0 -663 -1026 -663q-258 0 -448 178q-51 48 -101 48q-110 0 -110 -182h-98l39 653h98q0 -45 78 -204 q193 -395 542 -395q397 0 397 239q0 142 -211 288l-422 293q-352 244 -352 512q0 261 265 415l704 410v30q-188 201 -651 201q-720 0 -720 -1122v-1320h-1152zM461 98h713v1222q0 811 370 1085q-900 -163 -942 -1089q-1 -24 -12 -45q12 -22 12 -49v-788q0 -223 -141 -336z M655 196q45 104 45 238v877q8 174 47 317.5t110 256t170.5 195.5t230.5 140q-182 -326 -182 -900v-1124h-421zM1619 257q34 18 85 22q-39 59 -76 135zM1772 1380q0 -210 310 -425l422 -293q253 -176 253 -369q0 -119 -72 -201q505 106 505 527q0 239 -299 448l-441 307 q-301 210 -310 378q-1 27 4 55l-156 -91q-216 -126 -216 -336zM1870 1380q0 51 15 92.5t45 73.5t60.5 54t74.5 47q65 -170 329 -354l441 -307q257 -179 257 -367q0 -95 -30.5 -168.5t-82 -121t-126.5 -82.5q2 23 2 46q0 244 -295 449l-422 293q-268 186 -268 345z" />
<glyph unicode="&#xe0;" horiz-adv-x="3252" d="M120 684q0 844 1644 844h216v220q0 694 -634 694q-170 0 -340 -38q-109 -24 -109 -81q0 -39 51 -93q86 -84 86 -208q0 -121 -86.5 -207.5t-207.5 -86.5t-207.5 86.5t-87.5 208.5q0 103 62 191q109 153 337.5 239.5t501.5 86.5q1402 0 1402 -1272v-834q0 -336 384 -336 v-98h-960q-48 0 -101 80t-72 68q-242 -192 -595 -192q-1284 0 -1284 728zM218 684q0 -84 20 -156t54.5 -126t85 -99.5t106.5 -77.5t124 -59q136 -52 337 -82l72 -10q-227 188 -227 610q0 408 224 626q76 73 98 77q-226 -35 -392.5 -93t-285.5 -155q-106 -86 -161 -193.5 t-55 -261.5zM316 684q0 130 45 217.5t135 162.5q119 98 327 161q-131 -218 -131 -541q0 -136 24 -258t68 -211v-1q-80 19 -144 43.5t-126.5 63.5t-104.5 88t-67.5 119.5t-25.5 155.5zM543 2023q0 -53 26.5 -98.5t71.5 -72t99 -26.5q80 0 138 57.5t58 138.5q0 83 -58 139 q-38 41 -51.5 70t-27.5 92v8q-136 -66 -212 -174q-44 -62 -44 -134zM641 2024q0 25 9 48t26.5 43.5t31.5 34.5t34 30q26 -44 66 -87q30 -29 30 -71q0 -41 -28.5 -69.5t-69.5 -28.5t-70 29.5t-29 70.5zM888 684q0 -630 516 -630q341 0 586 202q-10 298 -10 625v549h-296 q-796 0 -796 -746zM931 3107v48h624q24 0 53 -38q26 -54 174 -438h-202l-306 289q-142 134 -343 139zM1322 3057q57 -54 163.5 -154t133.5 -126h20q-87 225 -111 280h-206zM1832 2393q246 -199 246 -645v-867q0 -324 10 -622l2 -48q31 -29 63 -77q18 -27 29 -36h609 q-141 113 -141 336v834q0 242 -52.5 432t-157 328t-256 228.5t-352.5 136.5zM2098 2193l3 -2q228 -123 339.5 -350t111.5 -573v-834q0 -134 45 -238h-368q-26 37 -43 57v10q-10 296 -10 618v867q0 259 -78 445z" />
<glyph unicode="&#xe1;" horiz-adv-x="3252" d="M120 684q0 844 1644 844h216v220q0 694 -634 694q-170 0 -340 -38q-109 -24 -109 -81q0 -39 51 -93q86 -84 86 -208q0 -121 -86.5 -207.5t-207.5 -86.5t-207.5 86.5t-87.5 208.5q0 103 62 191q109 153 337.5 239.5t501.5 86.5q1402 0 1402 -1272v-834q0 -336 384 -336 v-98h-960q-48 0 -101 80t-72 68q-242 -192 -595 -192q-1284 0 -1284 728zM218 684q0 -84 20 -156t54.5 -126t85 -99.5t106.5 -77.5t124 -59q136 -52 337 -82l72 -10q-227 188 -227 610q0 408 224 626q76 73 98 77q-226 -35 -392.5 -93t-285.5 -155q-106 -86 -161 -193.5 t-55 -261.5zM316 684q0 130 45 217.5t135 162.5q119 98 327 161q-131 -218 -131 -541q0 -136 24 -258t68 -211v-1q-80 19 -144 43.5t-126.5 63.5t-104.5 88t-67.5 119.5t-25.5 155.5zM543 2023q0 -53 26.5 -98.5t71.5 -72t99 -26.5q80 0 138 57.5t58 138.5q0 83 -58 139 q-38 41 -51.5 70t-27.5 92v8q-136 -66 -212 -174q-44 -62 -44 -134zM641 2024q0 25 9 48t26.5 43.5t31.5 34.5t34 30q26 -44 66 -87q30 -29 30 -71q0 -41 -28.5 -69.5t-69.5 -28.5t-70 29.5t-29 70.5zM888 684q0 -630 516 -630q341 0 586 202q-10 298 -10 625v549h-296 q-796 0 -796 -746zM1246 2679q89 326 174 438q29 38 53 38h624v-48q-201 -5 -343 -139l-306 -289h-202zM1377 2777h32q31 29 74 69.5t75.5 71t73 69t74.5 70.5h-209q-55 -73 -120 -280zM1832 2393q246 -199 246 -645v-867q0 -324 10 -622l2 -48q31 -29 63 -77q18 -27 29 -36 h609q-141 113 -141 336v834q0 242 -52.5 432t-157 328t-256 228.5t-352.5 136.5zM2098 2193l3 -2q228 -123 339.5 -350t111.5 -573v-834q0 -134 45 -238h-368q-26 37 -43 57v10q-10 296 -10 618v867q0 259 -78 445z" />
<glyph unicode="&#xe2;" horiz-adv-x="3252" d="M120 684q0 844 1644 844h216v220q0 694 -634 694q-170 0 -340 -38q-109 -24 -109 -81q0 -39 51 -93q86 -84 86 -208q0 -121 -86.5 -207.5t-207.5 -86.5t-207.5 86.5t-87.5 208.5q0 103 62 191q109 153 337.5 239.5t501.5 86.5q1402 0 1402 -1272v-834q0 -336 384 -336 v-98h-960q-48 0 -101 80t-72 68q-242 -192 -595 -192q-1284 0 -1284 728zM218 684q0 -84 20 -156t54.5 -126t85 -99.5t106.5 -77.5t124 -59q136 -52 337 -82l72 -10q-227 188 -227 610q0 408 224 626q76 73 98 77q-226 -35 -392.5 -93t-285.5 -155q-106 -86 -161 -193.5 t-55 -261.5zM316 684q0 130 45 217.5t135 162.5q119 98 327 161q-131 -218 -131 -541q0 -136 24 -258t68 -211v-1q-80 19 -144 43.5t-126.5 63.5t-104.5 88t-67.5 119.5t-25.5 155.5zM543 2023q0 -53 26.5 -98.5t71.5 -72t99 -26.5q80 0 138 57.5t58 138.5q0 83 -58 139 q-38 41 -51.5 70t-27.5 92v8q-136 -66 -212 -174q-44 -62 -44 -134zM641 2024q0 25 9 48t26.5 43.5t31.5 34.5t34 30q26 -44 66 -87q30 -29 30 -71q0 -41 -28.5 -69.5t-69.5 -28.5t-70 29.5t-29 70.5zM884 2679l278 470h767l278 -470h-184l-228 207q-138 125 -249 125 q-112 0 -250 -125l-228 -207h-184zM888 684q0 -630 516 -630q341 0 586 202q-10 298 -10 625v549h-296q-796 0 -796 -746zM1086 2827l144 132q63 57 124 92h-136zM1738 3051q60 -35 123 -92l144 -132l-132 224h-135zM1832 2393q246 -199 246 -645v-867q0 -324 10 -622l2 -48 q31 -29 63 -77q18 -27 29 -36h609q-141 113 -141 336v834q0 242 -52.5 432t-157 328t-256 228.5t-352.5 136.5zM2098 2193l3 -2q228 -123 339.5 -350t111.5 -573v-834q0 -134 45 -238h-368q-26 37 -43 57v10q-10 296 -10 618v867q0 259 -78 445z" />
<glyph unicode="&#xe3;" horiz-adv-x="3252" d="M120 684q0 844 1644 844h216v220q0 694 -634 694q-170 0 -340 -38q-109 -24 -109 -81q0 -39 51 -93q86 -84 86 -208q0 -121 -86.5 -207.5t-207.5 -86.5t-207.5 86.5t-87.5 208.5q0 103 62 191q109 153 337.5 239.5t501.5 86.5q1402 0 1402 -1272v-834q0 -336 384 -336 v-98h-960q-48 0 -101 80t-72 68q-242 -192 -595 -192q-1284 0 -1284 728zM218 684q0 -84 20 -156t54.5 -126t85 -99.5t106.5 -77.5t124 -59q136 -52 337 -82l72 -10q-227 188 -227 610q0 408 224 626q76 73 98 77q-226 -35 -392.5 -93t-285.5 -155q-106 -86 -161 -193.5 t-55 -261.5zM316 684q0 130 45 217.5t135 162.5q119 98 327 161q-131 -218 -131 -541q0 -136 24 -258t68 -211v-1q-80 19 -144 43.5t-126.5 63.5t-104.5 88t-67.5 119.5t-25.5 155.5zM543 2023q0 -53 26.5 -98.5t71.5 -72t99 -26.5q80 0 138 57.5t58 138.5q0 83 -58 139 q-38 41 -51.5 70t-27.5 92v8q-136 -66 -212 -174q-44 -62 -44 -134zM641 2024q0 25 9 48t26.5 43.5t31.5 34.5t34 30q26 -44 66 -87q30 -29 30 -71q0 -41 -28.5 -69.5t-69.5 -28.5t-70 29.5t-29 70.5zM769 2782q0 416 436 416q111 0 262 -55l370 -135q121 -44 200 -44 q145 0 205 144h98q1 -13 1 -26q0 -429 -449 -429q-99 0 -246 53l-371 134q-141 51 -216 51q-155 0 -188 -172h-98q-4 33 -4 63zM888 684q0 -630 516 -630q341 0 586 202q-10 298 -10 625v549h-296q-796 0 -796 -746zM891 2939q58 46 159 46q111 0 258 -53l371 -134 q131 -47 241 -47q234 0 298 170q-66 -51 -172 -51q-117 0 -243 46l-370 135q-135 49 -247 49q-233 0 -295 -161zM1832 2393q246 -199 246 -645v-867q0 -324 10 -622l2 -48q31 -29 63 -77q18 -27 29 -36h609q-141 113 -141 336v834q0 242 -52.5 432t-157 328t-256 228.5 t-352.5 136.5zM2098 2193l3 -2q228 -123 339.5 -350t111.5 -573v-834q0 -134 45 -238h-368q-26 37 -43 57v10q-10 296 -10 618v867q0 259 -78 445z" />
<glyph unicode="&#xe4;" horiz-adv-x="3252" d="M120 684q0 844 1644 844h216v220q0 694 -634 694q-170 0 -340 -38q-109 -24 -109 -81q0 -39 51 -93q86 -84 86 -208q0 -121 -86.5 -207.5t-207.5 -86.5t-207.5 86.5t-87.5 208.5q0 103 62 191q109 153 337.5 239.5t501.5 86.5q1402 0 1402 -1272v-834q0 -336 384 -336 v-98h-960q-48 0 -101 80t-72 68q-242 -192 -595 -192q-1284 0 -1284 728zM218 684q0 -84 20 -156t54.5 -126t85 -99.5t106.5 -77.5t124 -59q136 -52 337 -82l72 -10q-227 188 -227 610q0 408 224 626q76 73 98 77q-226 -35 -392.5 -93t-285.5 -155q-106 -86 -161 -193.5 t-55 -261.5zM316 684q0 130 45 217.5t135 162.5q119 98 327 161q-131 -218 -131 -541q0 -136 24 -258t68 -211v-1q-80 19 -144 43.5t-126.5 63.5t-104.5 88t-67.5 119.5t-25.5 155.5zM543 2023q0 -53 26.5 -98.5t71.5 -72t99 -26.5q80 0 138 57.5t58 138.5q0 83 -58 139 q-38 41 -51.5 70t-27.5 92v8q-136 -66 -212 -174q-44 -62 -44 -134zM593 2995q0 117 85.5 202.5t202.5 85.5t202.5 -85.5t85.5 -202.5t-85.5 -202.5t-202.5 -85.5t-202.5 85.5t-85.5 202.5zM641 2024q0 25 9 48t26.5 43.5t31.5 34.5t34 30q26 -44 66 -87q30 -29 30 -71 q0 -41 -28.5 -69.5t-69.5 -28.5t-70 29.5t-29 70.5zM691 2995q0 -76 57 -133t133 -57t133 57t57 133t-57 133t-133 57t-133 -57t-57 -133zM789 2995q0 37 27.5 64.5t64.5 27.5t64.5 -27.5t27.5 -64.5t-27.5 -64.5t-64.5 -27.5t-64.5 27.5t-27.5 64.5zM888 684 q0 -630 516 -630q341 0 586 202q-10 298 -10 625v549h-296q-796 0 -796 -746zM1826 2995q0 117 85.5 202.5t202.5 85.5t202.5 -85.5t85.5 -202.5t-85.5 -202.5t-202.5 -85.5t-202.5 85.5t-85.5 202.5zM1832 2393q246 -199 246 -645v-867q0 -324 10 -622l2 -48q31 -29 63 -77 q18 -27 29 -36h609q-141 113 -141 336v834q0 242 -52.5 432t-157 328t-256 228.5t-352.5 136.5zM1924 2995q0 -76 57 -133t133 -57t133 57t57 133t-57 133t-133 57t-133 -57t-57 -133zM2022 2995q0 37 27.5 64.5t64.5 27.5t64.5 -27.5t27.5 -64.5t-27.5 -64.5t-64.5 -27.5 t-64.5 27.5t-27.5 64.5zM2098 2193l3 -2q228 -123 339.5 -350t111.5 -573v-834q0 -134 45 -238h-368q-26 37 -43 57v10q-10 296 -10 618v867q0 259 -78 445z" />
<glyph unicode="&#xe5;" horiz-adv-x="3252" d="M120 684q0 844 1644 844h216v220q0 694 -634 694q-170 0 -340 -38q-109 -24 -109 -81q0 -39 51 -93q86 -84 86 -208q0 -121 -86.5 -207.5t-207.5 -86.5t-207.5 86.5t-87.5 208.5q0 103 62 191q109 153 337.5 239.5t501.5 86.5q1402 0 1402 -1272v-834q0 -336 384 -336 v-98h-960q-48 0 -101 80t-72 68q-242 -192 -595 -192q-1284 0 -1284 728zM218 684q0 -84 20 -156t54.5 -126t85 -99.5t106.5 -77.5t124 -59q136 -52 337 -82l72 -10q-227 188 -227 610q0 408 224 626q76 73 98 77q-226 -35 -392.5 -93t-285.5 -155q-106 -86 -161 -193.5 t-55 -261.5zM316 684q0 130 45 217.5t135 162.5q119 98 327 161q-131 -218 -131 -541q0 -136 24 -258t68 -211v-1q-80 19 -144 43.5t-126.5 63.5t-104.5 88t-67.5 119.5t-25.5 155.5zM543 2023q0 -53 26.5 -98.5t71.5 -72t99 -26.5q80 0 138 57.5t58 138.5q0 83 -58 139 q-38 41 -51.5 70t-27.5 92v8q-136 -66 -212 -174q-44 -62 -44 -134zM641 2024q0 25 9 48t26.5 43.5t31.5 34.5t34 30q26 -44 66 -87q30 -29 30 -71q0 -41 -28.5 -69.5t-69.5 -28.5t-70 29.5t-29 70.5zM888 684q0 -630 516 -630q341 0 586 202q-10 298 -10 625v549h-296 q-796 0 -796 -746zM1157 2957q0 77 45 150t118 117.5t149 44.5t149 -44.5t118 -117.5t45 -150t-45 -150t-118 -117.5t-149 -44.5q-75 0 -148 45.5t-118.5 118.5t-45.5 148zM1313 2957q0 -281 156 -281t156 281t-156 281t-156 -281zM1832 2393q246 -199 246 -645v-867 q0 -324 10 -622l2 -48q31 -29 63 -77q18 -27 29 -36h609q-141 113 -141 336v834q0 242 -52.5 432t-157 328t-256 228.5t-352.5 136.5zM2098 2193l3 -2q228 -123 339.5 -350t111.5 -573v-834q0 -134 45 -238h-368q-26 37 -43 57v10q-10 296 -10 618v867q0 259 -78 445z" />
<glyph unicode="&#xe6;" horiz-adv-x="4788" d="M120 684q0 844 1644 844h216v220q0 694 -634 694q-61 0 -128 -4.5t-144.5 -16.5t-127 -37t-49.5 -61q0 -39 51 -93q86 -84 86 -207q0 -122 -86.5 -208.5t-207.5 -86.5q-118 0 -206 85t-88 200q0 113 61 201q135 189 378.5 257.5t460.5 68.5q644 0 1023 -322 q369 322 983 322q303 0 548.5 -88.5t415 -253.5t261 -407t91.5 -543h-1459q-231 0 -461 77v-471q5 -446 115.5 -623t460.5 -177q187 0 363.5 50t319.5 137t257.5 197t195.5 238l83 -53q-88 -138 -210.5 -256t-276 -211t-342.5 -146.5t-390 -53.5q-346 0 -562 106t-393 317 q-305 -254 -502 -336q-177 -87 -463 -87q-1284 0 -1284 728zM218 684q0 -518 799 -610q-227 185 -227 602q0 502 321 711q-893 -134 -893 -703zM316 684q0 388 507 541q-131 -218 -131 -521.5t92 -489.5q-468 115 -468 470zM540 2018q0 -75 60.5 -133.5t138.5 -58.5 q54 0 99 26.5t71.5 72t26.5 98.5q0 82 -55 138q-46 47 -57 69.5t-24 88.5q-1 5 -1 8v4q-136 -66 -196 -151q-63 -88 -63 -162zM641 2040q0 59 101 140q26 -44 61 -80t35 -78q0 -41 -28.5 -69.5t-69.5 -28.5q-46 0 -72.5 32t-26.5 84zM888 684q0 -630 516 -630q331 0 576 202 v1174h-296q-796 0 -796 -746zM1848 2380q230 -210 230 -632v-1467q104 73 229 174q35 26 73 22t64 -35q161 -191 354 -288q-142 192 -145 713.5t-3 652.5q12 645 199 855q-236 -74 -416 -231q-64 -55 -127 -1q-191 162 -458 237zM2107 2165q72 -43 131.5 -93.5t130.5 -50.5 h1q72 0 133 53.5t136 99.5q-80 -256 -87 -653v-668q2 -247 37 -425q-11 11 -33 35.5t-38 41.5t-38.5 35.5t-46.5 28t-50 9.5q-80 0 -137 -47l-70 -55v1272q0 238 -69 417zM2748 1428q221 -82 461 -82h691q0 738 -173 957q-110 139 -431 139t-430 -221t-118 -702v-91z M3786 2385q212 -231 212 -1039h569q-14 270 -111.5 482.5t-267 352t-402.5 204.5zM3998 2193q400 -227 463 -749h-366q-7 481 -97 749z" />
<glyph unicode="&#xe7;" horiz-adv-x="2803" d="M120 1248q0 629 350 960.5t994 331.5q412 0 694 -134q362 -172 362 -444q0 -120 -87.5 -210.5t-205.5 -90.5q-119 0 -205 86t-86 205q0 81 39 146q48 100 48 128q0 70 -91 113q-217 103 -468 103q-414 0 -504 -317q-72 -254 -72 -877q0 -730 72 -892q134 -302 504 -302 q187 0 363.5 50t319.5 137t257.5 197t195.5 238l83 -53q-88 -138 -210.5 -256t-276 -211t-342.5 -146.5t-390 -53.5q-44 0 -86 1l-33 -144q66 33 166 33q101 0 204.5 -36.5t188.5 -100t139 -159.5t54 -205q0 -172 -202 -304q-150 -97 -374 -97q-276 0 -480 228l28 103 q212 -232 434 -232q298 0 298 409q0 309 -288 309q-184 0 -284 -80l62 281q-564 42 -867.5 370t-303.5 916zM218 1247q0 -473 206.5 -761.5t600.5 -384.5q-97 84 -166 240t-69 850t76 961q41 144 138 236q-382 -100 -584 -388.5t-202 -752.5zM316 1248q0 686 460 945 q-84 -284 -84 -945q0 -728 78 -944q-454 257 -454 944zM1820 -890q82 45 130.5 108.5t48.5 126.5q0 153 -117 253q17 -65 17 -146q0 -213 -79 -342zM2034 1939q0 -69 59.5 -124.5t132.5 -55.5q79 0 137.5 61.5t58.5 141.5q0 214 -330 366q24 -39 27 -79.5t-10 -78t-29.5 -73 t-31 -78.5t-14.5 -80zM2132 1946q0 13 1 22.5t4 17t5.5 12t7 12.5t7.5 15q38 82 51 126q116 -86 116 -189q0 -40 -30 -72.5t-68 -32.5q-36 0 -65 27.5t-29 61.5z" />
<glyph unicode="&#xe8;" d="M120 1248q0 629 350 960.5t994 331.5q426 0 726 -146t459 -436.5t159 -709.5h-1920q0 -730 72 -892q134 -302 504 -302q445 0 713 150q304 170 483 452l83 -53q-189 -297 -518 -485q-283 -162 -761 -162q-648 0 -996 329.5t-348 962.5zM218 1248q0 -473 206.5 -762 t600.5 -385q-97 84 -155 215q-80 181 -80 932v98q0 621 114 889q36 86 104 154q-384 -100 -587 -388.5t-203 -752.5zM316 1248q0 694 470 950q-94 -288 -94 -852v-98q0 -726 78 -944q-454 256 -454 944zM875 3107v48h624q24 0 53 -38q26 -54 174 -438h-202l-306 289 q-142 134 -343 139zM888 1346h1152q0 647 -72 803q-135 293 -504 293q-366 0 -470 -245q-106 -251 -106 -851zM1266 3057q57 -54 163.5 -154t133.5 -126h20q-87 225 -111 280h-206zM1909 2392q91 -80 148 -202q81 -176 81 -844h570q-21 424 -226 689t-573 357zM2163 2186 q382 -221 439 -742h-366q-6 541 -73 742z" />
<glyph unicode="&#xe9;" d="M120 1248q0 629 350 960.5t994 331.5q426 0 726 -146t459 -436.5t159 -709.5h-1920q0 -730 72 -892q134 -302 504 -302q445 0 713 150q304 170 483 452l83 -53q-189 -297 -518 -485q-283 -162 -761 -162q-648 0 -996 329.5t-348 962.5zM218 1248q0 -473 206.5 -762 t600.5 -385q-97 84 -155 215q-80 181 -80 932v98q0 621 114 889q36 86 104 154q-384 -100 -587 -388.5t-203 -752.5zM316 1248q0 694 470 950q-94 -288 -94 -852v-98q0 -726 78 -944q-454 256 -454 944zM888 1346h1152q0 647 -72 803q-135 293 -504 293q-366 0 -470 -245 q-106 -251 -106 -851zM1353 2679q89 326 174 438q29 38 53 38h624v-48q-201 -5 -343 -139l-306 -289h-202zM1484 2777h32q31 29 74 69.5t75.5 71t73 69t74.5 70.5h-209q-55 -73 -120 -280zM1909 2392q91 -80 148 -202q81 -176 81 -844h570q-21 424 -226 689t-573 357z M2163 2186q382 -221 439 -742h-366q-6 541 -73 742z" />
<glyph unicode="&#xea;" d="M120 1248q0 629 350 960.5t994 331.5q426 0 726 -146t459 -436.5t159 -709.5h-1920q0 -730 72 -892q134 -302 504 -302q445 0 713 150q304 170 483 452l83 -53q-189 -297 -518 -485q-283 -162 -761 -162q-648 0 -996 329.5t-348 962.5zM218 1248q0 -473 206.5 -762 t600.5 -385q-97 84 -155 215q-80 181 -80 932v98q0 621 114 889q36 86 104 154q-384 -100 -587 -388.5t-203 -752.5zM316 1248q0 694 470 950q-94 -288 -94 -852v-98q0 -726 78 -944q-454 256 -454 944zM851 2679l278 470h767l278 -470h-184l-228 207q-138 125 -249 125 q-112 0 -250 -125l-228 -207h-184zM888 1346h1152q0 647 -72 803q-135 293 -504 293q-366 0 -470 -245q-106 -251 -106 -851zM1053 2827l144 132q63 57 124 92h-136zM1705 3051q60 -35 123 -92l144 -132l-132 224h-135zM1909 2392q91 -80 148 -202q81 -176 81 -844h570 q-21 424 -226 689t-573 357zM2163 2186q382 -221 439 -742h-366q-6 541 -73 742z" />
<glyph unicode="&#xeb;" d="M120 1248q0 629 350 960.5t994 331.5q426 0 726 -146t459 -436.5t159 -709.5h-1920q0 -730 72 -892q134 -302 504 -302q445 0 713 150q304 170 483 452l83 -53q-189 -297 -518 -485q-283 -162 -761 -162q-648 0 -996 329.5t-348 962.5zM218 1248q0 -473 206.5 -762 t600.5 -385q-97 84 -155 215q-80 181 -80 932v98q0 621 114 889q36 86 104 154q-384 -100 -587 -388.5t-203 -752.5zM316 1248q0 694 470 950q-94 -288 -94 -852v-98q0 -726 78 -944q-454 256 -454 944zM520 2995q0 117 85.5 202.5t202.5 85.5t202.5 -85.5t85.5 -202.5 t-85.5 -202.5t-202.5 -85.5t-202.5 85.5t-85.5 202.5zM618 2995q0 -76 57 -133t133 -57t133 57t57 133t-57 133t-133 57t-133 -57t-57 -133zM716 2995q0 37 27.5 64.5t64.5 27.5t64.5 -27.5t27.5 -64.5t-27.5 -64.5t-64.5 -27.5t-64.5 27.5t-27.5 64.5zM888 1346h1152 q0 647 -72 803q-135 293 -504 293q-366 0 -470 -245q-106 -251 -106 -851zM1753 2995q0 117 85.5 202.5t202.5 85.5t202.5 -85.5t85.5 -202.5t-85.5 -202.5t-202.5 -85.5t-202.5 85.5t-85.5 202.5zM1851 2995q0 -76 57 -133t133 -57t133 57t57 133t-57 133t-133 57t-133 -57 t-57 -133zM1909 2392q91 -80 148 -202q81 -176 81 -844h570q-21 424 -226 689t-573 357zM1949 2995q0 37 27.5 64.5t64.5 27.5t64.5 -27.5t27.5 -64.5t-27.5 -64.5t-64.5 -27.5t-64.5 27.5t-27.5 64.5zM2163 2186q382 -221 439 -742h-366q-6 541 -73 742z" />
<glyph unicode="&#xec;" horiz-adv-x="1776" d="M120 0v98q384 0 384 336v1090q0 336 -384 336v98h1536v-98q-384 0 -384 -336v-1090q0 -336 384 -336v-98h-1536zM249 2967v48h624q24 0 53 -38q26 -54 174 -438h-202l-306 289q-142 134 -343 139zM461 98h854q-141 113 -141 336v1090q0 223 141 336h-854 q141 -113 141 -336v-1090q0 -223 -141 -336zM640 2917q57 -54 163.5 -154t133.5 -126h20q-87 225 -111 280h-206zM655 196q45 104 45 238v1090q0 134 -45 238h466q-45 -104 -45 -238v-1090q0 -134 45 -238h-466z" />
<glyph unicode="&#xed;" horiz-adv-x="1776" d="M120 0v98q384 0 384 336v1090q0 336 -384 336v98h1536v-98q-384 0 -384 -336v-1090q0 -336 384 -336v-98h-1536zM461 98h854q-141 113 -141 336v1090q0 223 141 336h-854q141 -113 141 -336v-1090q0 -223 -141 -336zM655 196q45 104 45 238v1090q0 134 -45 238h466 q-45 -104 -45 -238v-1090q0 -134 45 -238h-466zM681 2539q89 326 174 438q29 38 53 38h624v-48q-201 -5 -343 -139l-306 -289h-202zM812 2637h32q26 24 132.5 125t164.5 155h-209q-55 -73 -120 -280z" />
<glyph unicode="&#xee;" horiz-adv-x="1776" d="M120 0v98q384 0 384 336v1090q0 336 -384 336v98h1536v-98q-384 0 -384 -336v-1090q0 -336 384 -336v-98h-1536zM227 2539l278 470h767l278 -470h-184l-228 207q-138 125 -249 125q-112 0 -250 -125l-228 -207h-184zM429 2687l144 132q63 57 124 92h-136zM461 98h854 q-141 113 -141 336v1090q0 223 141 336h-854q141 -113 141 -336v-1090q0 -223 -141 -336zM655 196q45 104 45 238v1090q0 134 -45 238h466q-45 -104 -45 -238v-1090q0 -134 45 -238h-466zM1081 2911q60 -35 123 -92l144 -132l-132 224h-135z" />
<glyph unicode="&#xef;" horiz-adv-x="1776" d="M84 2758q0 117 85.5 202.5t202.5 85.5t202.5 -85.5t85.5 -202.5t-85.5 -202.5t-202.5 -85.5t-202.5 85.5t-85.5 202.5zM120 0v98q384 0 384 336v1090q0 336 -384 336v98h1536v-98q-384 0 -384 -336v-1090q0 -336 384 -336v-98h-1536zM182 2758q0 -76 56.5 -133t132.5 -57 t133.5 57t57.5 133t-57.5 133t-133.5 57t-132.5 -57t-56.5 -133zM280 2758q0 37 27 64.5t64 27.5t65 -27.5t28 -64.5t-28 -64.5t-65 -27.5t-64 27.5t-27 64.5zM461 98h854q-141 113 -141 336v1090q0 223 141 336h-854q141 -113 141 -336v-1090q0 -223 -141 -336zM655 196 q45 104 45 238v1090q0 134 -45 238h466q-45 -104 -45 -238v-1090q0 -134 45 -238h-466zM1116 2758q0 117 85.5 202.5t202.5 85.5t202.5 -85.5t85.5 -202.5t-85.5 -202.5t-202.5 -85.5t-202.5 85.5t-85.5 202.5zM1214 2758q0 -76 57.5 -133t133.5 -57t132.5 57t56.5 133 t-56.5 133t-132.5 57t-133.5 -57t-57.5 -133zM1312 2758q0 37 28 64.5t65 27.5t64 -27.5t27 -64.5t-27 -64.5t-64 -27.5t-65 27.5t-28 64.5z" />
<glyph unicode="&#xf0;" horiz-adv-x="3224" d="M120 0v98q370 0 384 293v737h-360l24 240h336v694q0 336 -384 336v98h1640q415 0 715.5 -142.5t464.5 -425t164 -680.5q0 -301 -93 -537t-267 -392t-423 -237.5t-561 -81.5h-1640zM461 2398q141 -113 141 -336v-1673q-9 -189 -136 -291h708v2300h-713zM655 2300h421 v-2104h-417q36 85 41 190v1676q0 134 -45 238zM1272 98h488q365 0 470 254q106 259 106 897t-106 895q-105 254 -470 254h-488v-1030h464l-24 -240h-440v-1030zM2207 148q380 94 589.5 376.5t209.5 723.5q0 436 -210.5 720t-587.5 379q73 -69 113 -166q113 -275 113 -933 t-113 -933q-40 -98 -114 -167zM2433 337q99 297 99 911q0 612 -98 909q228 -124 351 -356t123 -553q0 -325 -122.5 -557t-352.5 -354z" />
<glyph unicode="&#xf1;" horiz-adv-x="3504" d="M120 0v98q384 0 384 336v1628q0 336 -384 336v98h955q43 0 96.5 -66t63.5 -66q252 176 517 176q1248 0 1248 -908v-1198q0 -336 384 -336v-98h-1496v98q344 0 344 336v1150q0 858 -480 858q-247 0 -487 -178q7 -60 7 -202v-1628q0 -336 344 -336v-98h-1496zM461 98h843 q-130 113 -130 336v1628q0 136 -6 191q-2 19 2 36q-11 7 -47.5 50.5t-56.5 58.5h-605q141 -113 141 -336v-1628q0 -223 -141 -336zM655 196q45 104 45 238v1628q0 134 -45 238h370q14 -17 22.5 -28.5t14.5 -26.5t9 -22t4.5 -28t1.5 -32t-0.5 -45t-0.5 -56v-1628 q0 -134 42 -238h-463zM956 2796q0 416 436 416q111 0 262 -55l370 -135q121 -44 200 -44q145 0 205 144h98q1 -13 1 -26q0 -429 -449 -429q-99 0 -246 53l-371 134q-141 51 -216 51q-155 0 -188 -172h-98q-4 33 -4 63zM1078 2953q58 46 159 46q111 0 258 -53l371 -134 q131 -47 241 -47q234 0 298 170q-66 -51 -172 -51q-117 0 -243 46l-370 135q-135 49 -247 49q-233 0 -295 -161zM2082 2423q248 -220 248 -839v-1150q0 -223 -130 -336h843q-141 113 -141 336v1198q0 155 -40 279t-111 210.5t-175.5 149t-225 98.5t-268.5 54zM2306 2279 q115 -33 202.5 -84t155.5 -127.5t104 -186.5t36 -249v-1198q0 -134 45 -238h-463q42 104 42 238v1150q0 439 -122 695z" />
<glyph unicode="&#xf2;" d="M120 1248q0 629 350 960.5t994 331.5q426 0 726 -146t459 -436.5t159 -709.5q0 -633 -348.5 -962.5t-995.5 -329.5q-648 0 -996 329.5t-348 962.5zM218 1248q0 -467 201 -754.5t586 -387.5q-98 92 -139 238q-76 267 -76 904t76 904q41 145 138 236q-382 -100 -584 -388.5 t-202 -751.5zM316 1248q0 343 116.5 580.5t343.5 364.5q-46 -138 -65 -367.5t-19 -577.5q0 -349 19.5 -579t65.5 -369q-461 257 -461 948zM888 1248q0 -623 72 -877q90 -317 504 -317q365 0 470 254q106 259 106 940q0 683 -106 940q-105 254 -470 254q-414 0 -504 -317 q-72 -254 -72 -877zM923 3107v48h624q24 0 53 -38q26 -54 174 -438h-202l-306 289q-142 134 -343 139zM1314 3057q57 -54 163.5 -154t133.5 -126h20q-87 225 -111 280h-206zM1911 104q391 97 595 385t204 759q0 466 -205 755.5t-593 387.5q73 -69 113 -166 q113 -275 113 -977t-113 -977q-40 -98 -114 -167zM2137 293q99 301 99 955q0 652 -98 953q474 -258 474 -953q0 -704 -475 -955z" />
<glyph unicode="&#xf3;" d="M120 1248q0 629 350 960.5t994 331.5q426 0 726 -146t459 -436.5t159 -709.5q0 -633 -348.5 -962.5t-995.5 -329.5q-648 0 -996 329.5t-348 962.5zM218 1248q0 -467 201 -754.5t586 -387.5q-98 92 -139 238q-76 267 -76 904t76 904q41 145 138 236q-382 -100 -584 -388.5 t-202 -751.5zM316 1248q0 343 116.5 580.5t343.5 364.5q-46 -138 -65 -367.5t-19 -577.5q0 -349 19.5 -579t65.5 -369q-461 257 -461 948zM888 1248q0 -623 72 -877q90 -317 504 -317q365 0 470 254q106 259 106 940q0 683 -106 940q-105 254 -470 254q-414 0 -504 -317 q-72 -254 -72 -877zM1295 2679q89 326 174 438q29 38 53 38h624v-48q-201 -5 -343 -139l-306 -289h-202zM1426 2777h32q26 24 132.5 125t164.5 155h-209q-55 -73 -120 -280zM1911 104q391 97 595 385t204 759q0 466 -205 755.5t-593 387.5q73 -69 113 -166 q113 -275 113 -977t-113 -977q-40 -98 -114 -167zM2137 293q99 301 99 955q0 652 -98 953q474 -258 474 -953q0 -704 -475 -955z" />
<glyph unicode="&#xf4;" d="M120 1248q0 629 350 960.5t994 331.5q426 0 726 -146t459 -436.5t159 -709.5q0 -633 -348.5 -962.5t-995.5 -329.5q-648 0 -996 329.5t-348 962.5zM218 1248q0 -467 201 -754.5t586 -387.5q-98 92 -139 238q-76 267 -76 904t76 904q41 145 138 236q-382 -100 -584 -388.5 t-202 -751.5zM316 1248q0 343 116.5 580.5t343.5 364.5q-46 -138 -65 -367.5t-19 -577.5q0 -349 19.5 -579t65.5 -369q-461 257 -461 948zM803 2679l278 470h767l278 -470h-184l-228 207q-138 125 -249 125q-112 0 -250 -125l-228 -207h-184zM888 1248q0 -623 72 -877 q90 -317 504 -317q365 0 470 254q106 259 106 940q0 683 -106 940q-105 254 -470 254q-414 0 -504 -317q-72 -254 -72 -877zM1005 2827l144 132q63 57 124 92h-136zM1657 3051q60 -35 123 -92l144 -132l-132 224h-135zM1911 104q391 97 595 385t204 759q0 466 -205 755.5 t-593 387.5q73 -69 113 -166q113 -275 113 -977t-113 -977q-40 -98 -114 -167zM2137 293q99 301 99 955q0 652 -98 953q474 -258 474 -953q0 -704 -475 -955z" />
<glyph unicode="&#xf5;" d="M120 1248q0 629 350 960.5t994 331.5q426 0 726 -146t459 -436.5t159 -709.5q0 -633 -348.5 -962.5t-995.5 -329.5q-648 0 -996 329.5t-348 962.5zM218 1248q0 -467 201 -754.5t586 -387.5q-98 92 -139 238q-76 267 -76 904t76 904q41 145 138 236q-382 -100 -584 -388.5 t-202 -751.5zM316 1248q0 343 116.5 580.5t343.5 364.5q-46 -138 -65 -367.5t-19 -577.5q0 -349 19.5 -579t65.5 -369q-461 257 -461 948zM665 2782q0 416 436 416q111 0 262 -55l370 -135q121 -44 200 -44q145 0 205 144h98q1 -13 1 -26q0 -429 -449 -429q-99 0 -246 53 l-371 134q-141 51 -216 51q-155 0 -188 -172h-98q-4 33 -4 63zM787 2939q58 46 159 46q111 0 258 -53l371 -134q131 -47 241 -47q234 0 298 170q-66 -51 -172 -51q-117 0 -243 46l-370 135q-135 49 -247 49q-233 0 -295 -161zM888 1248q0 -623 72 -877q90 -317 504 -317 q365 0 470 254q106 259 106 940q0 683 -106 940q-105 254 -470 254q-414 0 -504 -317q-72 -254 -72 -877zM1911 104q391 97 595 385t204 759q0 466 -205 755.5t-593 387.5q73 -69 113 -166q113 -275 113 -977t-113 -977q-40 -98 -114 -167zM2137 293q99 301 99 955 q0 652 -98 953q474 -258 474 -953q0 -704 -475 -955z" />
<glyph unicode="&#xf6;" d="M120 1248q0 629 350 960.5t994 331.5q426 0 726 -146t459 -436.5t159 -709.5q0 -633 -348.5 -962.5t-995.5 -329.5q-648 0 -996 329.5t-348 962.5zM218 1248q0 -467 201 -754.5t586 -387.5q-98 92 -139 238q-76 267 -76 904t76 904q41 145 138 236q-382 -100 -584 -388.5 t-202 -751.5zM316 1248q0 343 116.5 580.5t343.5 364.5q-46 -138 -65 -367.5t-19 -577.5q0 -349 19.5 -579t65.5 -369q-461 257 -461 948zM560 2995q0 117 85.5 202.5t202.5 85.5t202.5 -85.5t85.5 -202.5t-85.5 -202.5t-202.5 -85.5t-202.5 85.5t-85.5 202.5zM658 2995 q0 -76 57 -133t133 -57t133 57t57 133t-57 133t-133 57t-133 -57t-57 -133zM756 2995q0 37 27.5 64.5t64.5 27.5t64.5 -27.5t27.5 -64.5t-27.5 -64.5t-64.5 -27.5t-64.5 27.5t-27.5 64.5zM888 1248q0 -623 72 -877q90 -317 504 -317q365 0 470 254q106 259 106 940 q0 683 -106 940q-105 254 -470 254q-414 0 -504 -317q-72 -254 -72 -877zM1793 2995q0 117 85.5 202.5t202.5 85.5t202.5 -85.5t85.5 -202.5t-85.5 -202.5t-202.5 -85.5t-202.5 85.5t-85.5 202.5zM1891 2995q0 -76 57 -133t133 -57t133 57t57 133t-57 133t-133 57t-133 -57 t-57 -133zM1911 104q391 97 595 385t204 759q0 466 -205 755.5t-593 387.5q73 -69 113 -166q113 -275 113 -977t-113 -977q-40 -98 -114 -167zM1989 2995q0 37 27.5 64.5t64.5 27.5t64.5 -27.5t27.5 -64.5t-27.5 -64.5t-64.5 -27.5t-64.5 27.5t-27.5 64.5zM2137 293 q99 301 99 955q0 652 -98 953q474 -258 474 -953q0 -704 -475 -955z" />
<glyph unicode="&#xf7;" horiz-adv-x="2376" d="M120 1150l24 240h2112l-24 -240h-2112zM228 1248h1915l5 44h-1915zM744 286q0 103 52 191.5t140.5 140.5t191.5 52t191.5 -52t140.5 -140.5t52 -191.5q0 -77 -31 -148t-82.5 -122.5t-122.5 -82.5t-148 -31t-148 31t-122.5 82.5t-82.5 122.5t-31 148zM744 2206 q0 103 52 191.5t140.5 140.5t191.5 52t191.5 -52t140.5 -140.5t52 -191.5t-52 -191.5t-140.5 -140.5t-191.5 -52t-191.5 52t-140.5 140.5t-52 191.5zM842 286q0 -116 85 -201t201 -85t201 85t85 201t-85 201t-201 85t-201 -85t-85 -201zM842 2206q0 -116 85 -201t201 -85 t201 85t85 201t-85 201t-201 85t-201 -85t-85 -201zM940 286q0 76 56 132t132 56t132 -56t56 -132t-56 -132t-132 -56t-132 56t-56 132zM940 2206q0 76 56 132t132 56t132 -56t56 -132t-56 -132t-132 -56t-132 56t-56 132z" />
<glyph unicode="&#xf8;" d="M120 1248q0 629 350 960.5t994 331.5q618 0 963 -303l303 299l68 -70l-300 -297q310 -330 310 -921q0 -633 -348.5 -962.5t-995.5 -329.5q-592 0 -932 273l-270 -267l-68 70l265 262q-339 331 -339 954zM218 1248q0 -467 201 -754.5t586 -387.5q-98 92 -139 238 q-76 267 -76 904t76 904q41 145 138 236q-382 -100 -584 -388.5t-202 -751.5zM316 1248q0 343 116.5 580.5t343.5 364.5q-46 -138 -65 -367.5t-19 -577.5q0 -349 19.5 -579t65.5 -369q-461 257 -461 948zM888 1248q0 -300 17 -514l1108 1094q-10 89 -22.5 156.5t-33 134 t-48 114t-68.5 89t-94 67t-124 39.5t-159 14q-414 0 -504 -317q-72 -254 -72 -877zM917 608q17 -144 43 -237q90 -317 504 -317q365 0 470 254q106 259 106 940q0 257 -15 454zM1911 104q391 97 595 385t204 759q0 466 -205 755.5t-593 387.5q73 -69 113 -166 q113 -275 113 -977t-113 -977q-40 -98 -114 -167zM2137 293q99 301 99 955q0 652 -98 953q474 -258 474 -953q0 -704 -475 -955z" />
<glyph unicode="&#xf9;" horiz-adv-x="3444" d="M60 2398v98h960q192 0 192 -434v-1484q0 -524 480 -524q247 0 487 178q-7 86 -7 202v2008q504 0 672 99l96 -1v-2106q0 -336 384 -336v-98h-960q-43 0 -99.5 62.5t-66.5 62.5q-247 -169 -506 -169q-1248 0 -1248 908v1198q0 336 -384 336zM401 2398q141 -113 141 -336 v-1198q0 -148 36.5 -268t101.5 -205t161.5 -148.5t207.5 -101t248 -59.5q-183 158 -183 496v1484q0 203 -42 291q-20 45 -52 45h-619zM595 2300h393q28 -76 28 -238v-1484q0 -195 57 -340q-58 23 -107 48.5t-94 58t-80.5 70t-64.5 85t-47.5 102t-29 120.5t-10.5 142v1198 q0 134 -45 238zM1003 3107v48h624q24 0 53 -38q26 -54 174 -438h-202l-306 289q-142 134 -343 139zM1394 3057q57 -54 163.5 -154t133.5 -126h20q-87 225 -111 280h-206zM2270 434q0 -14 -0.5 -52t0 -49t1.5 -39t3.5 -39t7.5 -32.5t12.5 -34t18 -28.5t24.5 -32 q21 -23 34 -30h612q-141 113 -141 336v1997q-180 -77 -572 -86v-1911zM2368 434v1816q225 10 376 46v-1862q0 -134 45 -238h-381q-32 37 -34 52q-6 78 -6 186z" />
<glyph unicode="&#xfa;" horiz-adv-x="3444" d="M60 2398v98h960q192 0 192 -434v-1484q0 -524 480 -524q247 0 487 178q-7 86 -7 202v2008q504 0 672 99l96 -1v-2106q0 -336 384 -336v-98h-960q-43 0 -99.5 62.5t-66.5 62.5q-247 -169 -506 -169q-1248 0 -1248 908v1198q0 336 -384 336zM401 2398q141 -113 141 -336 v-1198q0 -148 36.5 -268t101.5 -205t161.5 -148.5t207.5 -101t248 -59.5q-183 158 -183 496v1484q0 203 -42 291q-20 45 -52 45h-619zM595 2300h393q28 -76 28 -238v-1484q0 -195 57 -340q-58 23 -107 48.5t-94 58t-80.5 70t-64.5 85t-47.5 102t-29 120.5t-10.5 142v1198 q0 134 -45 238zM1513 2679q89 326 174 438q29 38 53 38h624v-48q-201 -5 -343 -139l-306 -289h-202zM1644 2777h32q36 34 94 88.5t109 102.5t94 89h-209q-55 -73 -120 -280zM2270 434q0 -14 -0.5 -52t0 -49t1.5 -39t3.5 -39t7.5 -32.5t12.5 -34t18 -28.5t24.5 -32 q21 -23 34 -30h612q-141 113 -141 336v1997q-180 -77 -572 -86v-1911zM2368 434v1816q225 10 376 46v-1862q0 -134 45 -238h-381q-32 37 -34 52q-6 78 -6 186z" />
<glyph unicode="&#xfb;" horiz-adv-x="3444" d="M60 2398v98h960q192 0 192 -434v-1484q0 -524 480 -524q247 0 487 178q-7 86 -7 202v2008q504 0 672 99l96 -1v-2106q0 -336 384 -336v-98h-960q-43 0 -99.5 62.5t-66.5 62.5q-247 -169 -506 -169q-1248 0 -1248 908v1198q0 336 -384 336zM401 2398q141 -113 141 -336 v-1198q0 -148 36.5 -268t101.5 -205t161.5 -148.5t207.5 -101t248 -59.5q-183 158 -183 496v1484q0 203 -42 291q-20 45 -52 45h-619zM595 2300h393q28 -76 28 -238v-1484q0 -195 57 -340q-58 23 -107 48.5t-94 58t-80.5 70t-64.5 85t-47.5 102t-29 120.5t-10.5 142v1198 q0 134 -45 238zM1031 2679l278 470h767l278 -470h-184l-228 207q-138 125 -249 125q-112 0 -250 -125l-228 -207h-184zM1233 2827l144 132q63 57 124 92h-136zM1885 3051q60 -35 123 -92l144 -132l-132 224h-135zM2270 434q0 -14 -0.5 -52t0 -49t1.5 -39t3.5 -39t7.5 -32.5 t12.5 -34t18 -28.5t24.5 -32q21 -23 34 -30h612q-141 113 -141 336v1997q-180 -77 -572 -86v-1911zM2368 434v1816q225 10 376 46v-1862q0 -134 45 -238h-381q-32 37 -34 52q-6 78 -6 186z" />
<glyph unicode="&#xfc;" horiz-adv-x="3444" d="M60 2398v98h960q192 0 192 -434v-1484q0 -524 480 -524q247 0 487 178q-7 86 -7 202v2008q504 0 672 99l96 -1v-2106q0 -336 384 -336v-98h-960q-43 0 -99.5 62.5t-66.5 62.5q-247 -169 -506 -169q-1248 0 -1248 908v1198q0 336 -384 336zM401 2398q141 -113 141 -336 v-1198q0 -148 36.5 -268t101.5 -205t161.5 -148.5t207.5 -101t248 -59.5q-183 158 -183 496v1484q0 203 -42 291q-20 45 -52 45h-619zM595 2300h393q28 -76 28 -238v-1484q0 -195 57 -340q-58 23 -107 48.5t-94 58t-80.5 70t-64.5 85t-47.5 102t-29 120.5t-10.5 142v1198 q0 134 -45 238zM780 2995q0 117 85.5 202.5t202.5 85.5t202.5 -85.5t85.5 -202.5t-85.5 -202.5t-202.5 -85.5t-202.5 85.5t-85.5 202.5zM878 2995q0 -76 57 -133t133 -57t133 57t57 133q0 37 -15.5 72.5t-41 61t-61 41t-72.5 15.5q-76 0 -133 -57t-57 -133zM976 2995 q0 37 27.5 64.5t64.5 27.5t64.5 -27.5t27.5 -64.5t-27.5 -64.5t-64.5 -27.5q-24 0 -45.5 12.5t-34 34t-12.5 45.5zM2013 2995q0 117 85.5 202.5t202.5 85.5t202.5 -85.5t85.5 -202.5t-85.5 -202.5t-202.5 -85.5t-202.5 85.5t-85.5 202.5zM2111 2995q0 -76 57 -133t133 -57 t133 57t57 133t-57 133t-133 57t-133 -57t-57 -133zM2209 2995q0 37 27.5 64.5t64.5 27.5t64.5 -27.5t27.5 -64.5t-27.5 -64.5t-64.5 -27.5t-64.5 27.5t-27.5 64.5zM2270 434q0 -14 -0.5 -52t0 -49t1.5 -39t3.5 -39t7.5 -32.5t12.5 -34t18 -28.5t24.5 -32q21 -23 34 -30h612 q-141 113 -141 336v1997q-180 -77 -572 -86v-1911zM2368 434v1816q225 10 376 46v-1862q0 -134 45 -238h-381q-32 37 -34 52q-6 78 -6 186z" />
<glyph unicode="&#xfd;" horiz-adv-x="3026" d="M60 2398v98h955q157 0 341 -355l512 -891l511 891q32 56 32 109q0 145 -301 148v98h796v-98q-269 0 -427 -276l-530 -927v-761q0 -336 384 -336v-98h-1536v98q384 0 384 336v478l-675 1210q-154 276 -446 276zM391 2398q119 -82 201 -228l675 -1210q12 -22 12 -48v-478 q0 -223 -141 -336h854q-141 113 -141 336v719q-44 7 -68 48l-513 893q-63 121 -120.5 196t-102.5 99q-16 8 -32 9h-624zM625 2300h379q27 -16 68 -70q52 -68 112 -183l514 -895q22 -38 55 -62v-656q0 -134 45 -238h-466q45 104 45 238v478q0 51 -25 95l-675 1210 q-24 44 -52 83zM1305 2679q89 326 174 438q29 38 53 38h624v-48q-201 -5 -343 -139l-306 -289h-202zM1436 2777h32q26 24 132.5 125t164.5 155h-209q-55 -73 -120 -280zM2450 2398q35 -35 49 -82q44 47 93 82h-142z" />
<glyph unicode="&#xfe;" horiz-adv-x="3120" d="M120 0v98q384 0 384 336v1628q0 336 -384 336v98h1536v-98q-360 0 -381 -238h381q670 0 939 -189q405 -285 405 -603q0 -391 -405 -627q-283 -165 -939 -165h-384v-142q0 -336 384 -336v-98h-1536zM461 98h854q-141 114 -141 336v1628q0 131 25 205.5t96 130.5h-834 q141 -113 141 -336v-1628q0 -223 -141 -336zM655 196q45 104 45 238v1628q0 134 -45 238h452q-19 -52 -25 -102t-6 -136v-1628q0 -134 45 -238h-466zM1272 674h384q576 0 576 694t-576 694h-384v-1388zM2069 695q312 35 477 131q63 37 113 74t96.5 87t78 105t50 125.5 t18.5 150.5q0 267 -363 523q-154 108 -466 148q257 -188 257 -671q0 -481 -261 -673zM2318 839q110 220 110 529q0 289 -104 518q96 -32 158 -75q322 -227 322 -443q0 -49 -8.5 -93.5t-23 -82t-36.5 -72t-47.5 -62.5t-57.5 -55t-64.5 -49t-70.5 -44q-71 -42 -178 -71z" />
<glyph unicode="&#xff;" horiz-adv-x="3026" d="M60 2398v98h955q157 0 341 -355l512 -891l511 891q32 56 32 109q0 145 -301 148v98h796v-98q-269 0 -427 -276l-530 -927v-761q0 -336 384 -336v-98h-1536v98q384 0 384 336v478l-675 1210q-154 276 -446 276zM391 2398q119 -82 201 -228l675 -1210q12 -22 12 -48v-478 q0 -223 -141 -336h854q-141 113 -141 336v719q-44 7 -68 48l-513 893q-63 121 -120.5 196t-102.5 99q-16 8 -32 9h-624zM600 2995q0 117 85.5 202.5t202.5 85.5t202.5 -85.5t85.5 -202.5t-85.5 -202.5t-202.5 -85.5t-202.5 85.5t-85.5 202.5zM625 2300h379q27 -16 68 -70 q52 -68 112 -183l514 -895q22 -38 55 -62v-656q0 -134 45 -238h-466q45 104 45 238v478q0 51 -25 95l-675 1210q-24 44 -52 83zM698 2995q0 -76 57 -133t133 -57t133 57t57 133t-57 133t-133 57t-133 -57t-57 -133zM796 2995q0 37 27.5 64.5t64.5 27.5t64.5 -27.5 t27.5 -64.5t-27.5 -64.5t-64.5 -27.5t-64.5 27.5t-27.5 64.5zM1833 2995q0 117 85.5 202.5t202.5 85.5t202.5 -85.5t85.5 -202.5t-85.5 -202.5t-202.5 -85.5t-202.5 85.5t-85.5 202.5zM1931 2995q0 -76 57 -133t133 -57t133 57t57 133t-57 133t-133 57t-133 -57t-57 -133z M2029 2995q0 37 27.5 64.5t64.5 27.5t64.5 -27.5t27.5 -64.5t-27.5 -64.5t-64.5 -27.5t-64.5 27.5t-27.5 64.5zM2450 2398q35 -35 49 -82q44 47 93 82h-142z" />
<glyph unicode="&#x152;" horiz-adv-x="4848" d="M144 1248q0 629 350 960.5t994 331.5q554 0 960 -349q473 349 960 349q644 0 994 -331.5t350 -960.5h-1920q0 -802 96 -934q189 -259 480 -260q187 0 363.5 50t319.5 137t257.5 197t195.5 238l83 -53q-88 -138 -210.5 -256t-276 -211t-342.5 -146.5t-390 -53.5 q-591 0 -960 318q-394 -318 -960 -318q-648 0 -996 329.5t-348 962.5zM242 1246q0 -317 94.5 -553t276 -383.5t445.5 -209.5q-116 94 -150 171q-94 187 -94 900.5t76 980.5q41 145 138 236q-382 -100 -584 -389t-202 -753zM340 1246q0 688 460 947q-46 -138 -65 -385.5 t-19 -636.5q0 -624 73 -864q-449 257 -449 939zM912 1248q0 -823 96 -954q176 -240 480 -240t480 240q96 131 96 954q0 684 -106 940q-105 254 -470 254q-414 0 -504 -317q-72 -254 -72 -877zM1937 115q249 73 449 235q64 51 126 -2q203 -175 481 -246q-72 59 -110 102.5 t-62 100t-41 146.5q-17 86 -26.5 172.5t-13.5 208.5t-4.5 184.5t-1.5 231.5v98q0 769 177 996q-203 -82 -405 -230q-63 -46 -122 5q-193 166 -421 247q54 -60 86 -139q113 -274 113 -977q-2 -580 -33 -749q-16 -88 -31 -141.5t-38 -97t-49.5 -74t-73.5 -71.5zM2177 2149 q74 -48 143 -107q7 -4 22.5 -15t20 -13.5t16.5 -8.5t19.5 -8t20.5 -3.5t28 -1.5q5 1 19.5 3t26.5 4t18 5q27 10 53 29q74 54 147 99q-75 -282 -75 -786v-98v-130t0.5 -132t2 -117t4 -121.5t8 -107.5t13.5 -113t19.5 -99.5t26.5 -102.5q-71 43 -134 97q-6 4 -19.5 13.5 t-17.5 12t-14.5 9t-16.5 8t-16 4.5t-20.5 3.5t-23.5 0.5q-53 -9 -94.5 -30.5t-89.5 -58.5t-72 -51q20 74 32.5 144t19.5 131.5t10.5 171t4.5 196t1 272.5q0 598 -83 901zM2832 1346h1152q0 647 -72 803q-135 293 -504 293q-366 0 -470 -245q-106 -251 -106 -851zM3853 2392 q91 -80 160 -229t69 -817h570q-7 142 -35 267t-76.5 230.5t-116 193.5t-154 156.5t-191 118t-226.5 80.5zM4111 2185q186 -108 296.5 -295.5t138.5 -445.5h-366q-4 570 -69 741z" />
<glyph unicode="&#x153;" horiz-adv-x="4848" d="M120 1248q0 629 350 960.5t994 331.5q554 0 960 -349q473 349 960 349q644 0 994 -331.5t350 -960.5h-1920q0 -802 96 -934q189 -259 480 -260q187 0 363.5 50t319.5 137t257.5 197t195.5 238l83 -53q-88 -138 -210.5 -256t-276 -211t-342.5 -146.5t-390 -53.5 q-591 0 -960 318q-394 -318 -960 -318q-648 0 -996 329.5t-348 962.5zM218 1246q0 -474 209 -763t607 -383q-116 94 -150 171q-94 187 -94 900.5t76 980.5q41 145 138 236q-382 -100 -584 -389t-202 -753zM316 1246q0 688 460 947q-24 -71 -40 -170t-26 -229t-14 -280.5 t-4 -342.5q0 -624 73 -864q-449 257 -449 939zM888 1248q0 -823 96 -954q176 -240 480 -240t480 240q96 131 96 954q0 684 -106 940q-105 254 -470 254q-414 0 -504 -317q-72 -254 -72 -877zM1913 115q249 73 449 235q64 51 126 -2q203 -175 481 -246q-44 36 -72 63 t-52 56.5t-39.5 62.5t-27.5 72.5t-22 94.5q-17 86 -26.5 172.5t-13.5 208.5t-4.5 184.5t-1.5 231.5v98q0 769 177 996q-203 -82 -405 -230q-63 -46 -122 5q-193 166 -421 247q54 -60 86 -139q113 -274 113 -977q-2 -580 -33 -749q-22 -116 -44.5 -180t-54 -106.5 t-93.5 -97.5zM2153 2149q74 -48 143 -107q7 -4 22.5 -15t20 -13.5t16.5 -8.5t19.5 -8t20.5 -3.5t28 -1.5q5 1 19.5 3t26.5 4t18 5q27 10 53 29q74 54 147 99q-75 -282 -75 -786v-98v-130t0.5 -132t2 -117t4 -121.5t8 -107.5t13.5 -113t19.5 -99.5t26.5 -102.5 q-71 43 -134 97q-6 4 -19.5 13.5t-17.5 12t-14.5 9t-16.5 8t-16 4.5t-20.5 3.5t-23.5 0.5q-53 -9 -94.5 -30.5t-89.5 -58.5t-72 -51q20 74 32.5 144t19.5 131.5t10.5 171t4.5 196t1 272.5q0 598 -83 901zM2808 1346h1152q0 647 -72 803q-135 293 -504 293q-366 0 -470 -245 q-106 -251 -106 -851zM3829 2392q91 -80 160 -229t69 -817h570q-6 121 -27.5 230.5t-58 204.5t-87.5 177t-116 150t-143.5 122.5t-170.5 95t-196 66.5zM4087 2185q186 -108 296.5 -295.5t138.5 -445.5h-366q-4 570 -69 741z" />
<glyph unicode="&#x178;" horiz-adv-x="3026" d="M60 2398v98h955q157 0 341 -355l512 -891l511 891q32 56 32 109q0 145 -301 148v98h796v-98q-269 0 -427 -276l-530 -927v-761q0 -336 384 -336v-98h-1536v98q384 0 384 336v478l-675 1210q-154 276 -446 276zM391 2398q119 -82 201 -228l675 -1210q12 -22 12 -48v-478 q0 -223 -141 -336h854q-141 113 -141 336v719q-44 7 -68 48l-513 893q-63 121 -120.5 196t-102.5 99q-16 8 -32 9h-624zM600 2995q0 117 85.5 202.5t202.5 85.5t202.5 -85.5t85.5 -202.5t-85.5 -202.5t-202.5 -85.5t-202.5 85.5t-85.5 202.5zM625 2300h379q27 -16 68 -70 q52 -68 112 -183l514 -895q22 -38 55 -62v-656q0 -134 45 -238h-466q45 104 45 238v478q0 51 -25 95l-675 1210q-24 44 -52 83zM698 2995q0 -76 57 -133t133 -57t133 57t57 133t-57 133t-133 57t-133 -57t-57 -133zM796 2995q0 37 27.5 64.5t64.5 27.5t64.5 -27.5 t27.5 -64.5t-27.5 -64.5t-64.5 -27.5t-64.5 27.5t-27.5 64.5zM1833 2995q0 117 85.5 202.5t202.5 85.5t202.5 -85.5t85.5 -202.5t-85.5 -202.5t-202.5 -85.5t-202.5 85.5t-85.5 202.5zM1931 2995q0 -76 57 -133t133 -57t133 57t57 133t-57 133t-133 57t-133 -57t-57 -133z M2029 2995q0 37 27.5 64.5t64.5 27.5t64.5 -27.5t27.5 -64.5t-27.5 -64.5t-64.5 -27.5t-64.5 27.5t-27.5 64.5zM2450 2398q35 -35 49 -82q44 47 93 82h-142z" />
<glyph unicode="&#x2c6;" horiz-adv-x="3264" d="M971 2679l278 470h767l278 -470h-184l-228 207q-138 125 -249 125q-112 0 -250 -125l-228 -207h-184zM1173 2827l144 132q63 57 124 92h-136zM1825 3051q60 -35 123 -92l144 -132l-132 224h-135z" />
<glyph unicode="&#x2dc;" horiz-adv-x="2360" d="M257 2782q0 416 436 416q111 0 262 -55l370 -135q121 -44 200 -44q145 0 205 144h98q1 -13 1 -26q0 -429 -449 -429q-99 0 -246 53l-371 134q-141 51 -216 51q-155 0 -188 -172h-98q-4 33 -4 63zM379 2939q58 46 159 46q111 0 258 -53l371 -134q131 -47 241 -47 q234 0 298 170q-66 -51 -172 -51q-117 0 -243 46l-370 135q-135 49 -247 49q-233 0 -295 -161z" />
<glyph unicode="&#x2000;" horiz-adv-x="1724" />
<glyph unicode="&#x2001;" horiz-adv-x="3448" />
<glyph unicode="&#x2002;" horiz-adv-x="1724" />
<glyph unicode="&#x2003;" horiz-adv-x="3448" />
<glyph unicode="&#x2004;" horiz-adv-x="1149" />
<glyph unicode="&#x2005;" horiz-adv-x="862" />
<glyph unicode="&#x2006;" horiz-adv-x="574" />
<glyph unicode="&#x2007;" horiz-adv-x="574" />
<glyph unicode="&#x2008;" horiz-adv-x="431" />
<glyph unicode="&#x2009;" horiz-adv-x="689" />
<glyph unicode="&#x200a;" horiz-adv-x="191" />
<glyph unicode="&#x2010;" horiz-adv-x="1960" d="M120 1152l24 192h1696l-24 -192h-1696z" />
<glyph unicode="&#x2011;" horiz-adv-x="1960" d="M120 1152l24 192h1696l-24 -192h-1696z" />
<glyph unicode="&#x2012;" horiz-adv-x="1960" d="M120 1152l24 192h1696l-24 -192h-1696z" />
<glyph unicode="&#x2013;" horiz-adv-x="2048" d="M120 1152v192h1808v-192h-1808z" />
<glyph unicode="&#x2014;" horiz-adv-x="4096" d="M120 1152v192h3856v-192h-3856z" />
<glyph unicode="&#x2018;" horiz-adv-x="1008" d="M120 2622q0 372 175 600q173 226 387 226v-98q-101 0 -199.5 -78t-98.5 -170q0 -96 120 -96q157 0 270.5 -113.5t113.5 -270.5t-113.5 -270.5t-270.5 -113.5t-270.5 113.5t-113.5 270.5zM218 2622q0 -116 85 -201t201 -85t201 85t85 201t-85 201t-201 85q-165 0 -208 127 q-78 -171 -78 -413zM316 2622q0 122 22 224q72 -36 166 -36q76 0 132 -56t56 -132t-56 -132t-132 -56t-132 56t-56 132z" />
<glyph unicode="&#x2019;" horiz-adv-x="1008" d="M120 3064q0 157 113.5 270.5t270.5 113.5t270.5 -113.5t113.5 -270.5q0 -372 -175 -600q-173 -226 -387 -226v98q101 0 199.5 78t98.5 170q0 96 -120 96q-157 0 -270.5 113.5t-113.5 270.5zM218 3064q0 -116 85 -201t201 -85q165 0 208 -127q78 171 78 413q0 116 -85 201 t-201 85t-201 -85t-85 -201zM316 3064q0 76 56 132t132 56t132 -56t56 -132q0 -122 -22 -224q-72 36 -166 36q-76 0 -132 56t-56 132z" />
<glyph unicode="&#x201a;" horiz-adv-x="1008" d="M120 48q0 157 113.5 270.5t270.5 113.5t270.5 -113.5t113.5 -270.5q0 -372 -175 -600q-173 -226 -387 -226v98q101 0 199.5 78t98.5 170q0 96 -120 96q-157 0 -270.5 113.5t-113.5 270.5zM218 48q0 -116 85 -201t201 -85q165 0 208 -127q78 171 78 413q0 116 -85 201 t-201 85t-201 -85t-85 -201zM316 48q0 76 56 132t132 56t132 -56t56 -132q0 -122 -22 -224q-72 36 -166 36q-76 0 -132 56t-56 132z" />
<glyph unicode="&#x201c;" horiz-adv-x="1872" d="M120 2622q0 372 175 600q173 226 387 226v-98q-101 0 -199.5 -78t-98.5 -170q0 -96 120 -96q157 0 270.5 -113.5t113.5 -270.5t-113.5 -270.5t-270.5 -113.5t-270.5 113.5t-113.5 270.5zM218 2622q0 -116 85 -201t201 -85t201 85t85 201t-85 201t-201 85q-165 0 -208 127 q-78 -171 -78 -413zM316 2622q0 122 22 224q72 -36 166 -36q76 0 132 -56t56 -132t-56 -132t-132 -56t-132 56t-56 132zM984 2622q0 372 175 600q173 226 387 226v-98q-101 0 -199.5 -78t-98.5 -170q0 -96 120 -96q157 0 270.5 -113.5t113.5 -270.5t-113.5 -270.5 t-270.5 -113.5t-270.5 113.5t-113.5 270.5zM1082 2622q0 -116 85 -201t201 -85t201 85t85 201t-85 201t-201 85q-165 0 -208 127q-78 -171 -78 -413zM1180 2622q0 122 22 224q72 -36 166 -36q76 0 132 -56t56 -132t-56 -132t-132 -56t-132 56t-56 132z" />
<glyph unicode="&#x201d;" horiz-adv-x="1872" d="M120 3064q0 157 113.5 270.5t270.5 113.5t270.5 -113.5t113.5 -270.5q0 -372 -175 -600q-173 -226 -387 -226v98q101 0 199.5 78t98.5 170q0 96 -120 96q-157 0 -270.5 113.5t-113.5 270.5zM218 3064q0 -116 85 -201t201 -85q165 0 208 -127q78 171 78 413q0 116 -85 201 t-201 85t-201 -85t-85 -201zM316 3064q0 76 56 132t132 56t132 -56t56 -132q0 -122 -22 -224q-72 36 -166 36q-76 0 -132 56t-56 132zM984 3064q0 157 113.5 270.5t270.5 113.5t270.5 -113.5t113.5 -270.5q0 -372 -175 -600q-173 -226 -387 -226v98q101 0 199.5 78t98.5 170 q0 96 -120 96q-157 0 -270.5 113.5t-113.5 270.5zM1082 3064q0 -116 85 -201t201 -85q165 0 208 -127q78 171 78 413q0 116 -85 201t-201 85t-201 -85t-85 -201zM1180 3064q0 76 56 132t132 56t132 -56t56 -132q0 -122 -22 -224q-72 36 -166 36q-76 0 -132 56t-56 132z" />
<glyph unicode="&#x201e;" horiz-adv-x="1872" d="M120 48q0 157 113.5 270.5t270.5 113.5t270.5 -113.5t113.5 -270.5q0 -372 -175 -600q-173 -226 -387 -226v98q101 0 199.5 78t98.5 170q0 96 -120 96q-157 0 -270.5 113.5t-113.5 270.5zM218 48q0 -116 85 -201t201 -85q165 0 208 -127q78 171 78 413q0 116 -85 201 t-201 85t-201 -85t-85 -201zM316 48q0 76 56 132t132 56t132 -56t56 -132q0 -122 -22 -224q-72 36 -166 36q-76 0 -132 56t-56 132zM984 48q0 157 113.5 270.5t270.5 113.5t270.5 -113.5t113.5 -270.5q0 -372 -175 -600q-173 -226 -387 -226v98q101 0 199.5 78t98.5 170 q0 96 -120 96q-157 0 -270.5 113.5t-113.5 270.5zM1082 48q0 -116 85 -201t201 -85q165 0 208 -127q78 171 78 413q0 116 -85 201t-201 85t-201 -85t-85 -201zM1180 48q0 76 56 132t132 56t132 -56t56 -132q0 -122 -22 -224q-72 36 -166 36q-76 0 -132 56t-56 132z" />
<glyph unicode="&#x2026;" d="M120 288q0 157 113.5 270.5t270.5 113.5t270.5 -113.5t113.5 -270.5t-113.5 -270.5t-270.5 -113.5t-270.5 113.5t-113.5 270.5zM218 288q0 -116 85 -201t201 -85t201 85t85 201t-85 201t-201 85t-201 -85t-85 -201zM316 288q0 76 56 132t132 56t132 -56t56 -132t-56 -132 t-132 -56t-132 56t-56 132zM1080 288q0 157 113.5 270.5t270.5 113.5t270.5 -113.5t113.5 -270.5t-113.5 -270.5t-270.5 -113.5t-270.5 113.5t-113.5 270.5zM1178 288q0 -116 85 -201t201 -85t201 85t85 201t-85 201t-201 85t-201 -85t-85 -201zM1276 288q0 76 56 132 t132 56t132 -56t56 -132t-56 -132t-132 -56t-132 56t-56 132zM2040 288q0 157 113.5 270.5t270.5 113.5t270.5 -113.5t113.5 -270.5t-113.5 -270.5t-270.5 -113.5t-270.5 113.5t-113.5 270.5zM2138 288q0 -116 85 -201t201 -85t201 85t85 201t-85 201t-201 85t-201 -85 t-85 -201zM2236 288q0 76 56 132t132 56t132 -56t56 -132t-56 -132t-132 -56t-132 56t-56 132z" />
<glyph unicode="&#x202f;" horiz-adv-x="689" />
<glyph unicode="&#x205f;" horiz-adv-x="862" />
<glyph unicode="&#x20ac;" horiz-adv-x="2876" d="M120 859l72 192l298 5q-10 91 -10 192t10 192l-298 -5l72 192l258 5q98 444 434.5 676t872.5 232q224 0 419 -74q185 -69 257 -69q123 0 140 75h98l43 -677h-98q-17 176 -152 359q-91 123 -290 205.5t-417 82.5q-106 0 -188.5 -19.5t-140.5 -51t-100 -89.5t-67.5 -116 t-42 -150t-23.5 -172.5t-13 -201.5l930 10l-72 -192l-861 -10q-3 -91 -3 -192t3 -192l861 10l-72 -192l-787 -10q16 -407 69 -522q137 -298 497 -298q373 0 648 152q159 88 248 168l59 -78q-55 -57 -253 -169q-302 -171 -702 -171q-340 0 -609 106.5t-446 311t-242 490.5z M578 1248q0 -233 55.5 -424.5t160 -332t251.5 -236.5t334 -147q-90 81 -146 203q-61 133 -78 559l-2 193q-3 93 -3 195.5t3 194.5l3 194q17 339 72 522q40 130 129 216q-376 -103 -577.5 -389.5t-201.5 -747.5zM676 1248q0 340 117 575.5t339 363.5q-57 -193 -74 -537 l-3 -194q-3 -94 -3 -197.5t3 -197.5l2 -193q15 -384 67 -546q-448 280 -448 926zM2533 2301q68 -60 133 -164l-12 196q-46 -28 -121 -32z" />
<glyph unicode="&#xe000;" horiz-adv-x="2495" d="M0 0v2495h2495v-2495h-2495z" />
</font>
</defs>
</svg>
