<?xml version="1.0" standalone="no"?>
<!DOCTYPE svg PUBLIC "-//W3C//DTD SVG 1.1//EN" "http://www.w3.org/Graphics/SVG/1.1/DTD/svg11.dtd" >
<svg xmlns="http://www.w3.org/2000/svg">
<metadata></metadata>
<defs>
<font id="montezregular" horiz-adv-x="643" >
<font-face units-per-em="2048" ascent="1638" descent="-410" />
<missing-glyph horiz-adv-x="480" />
<glyph unicode="&#xfb01;" horiz-adv-x="988" d="M1088 143q-23 -38 -54.5 -69.5t-69 -55t-80 -36.5t-87.5 -13q-56 0 -99.5 19t-73 52.5t-45 79t-15.5 99.5q0 95 37 184t103 154q-37 -15 -84 -29.5t-100.5 -27.5t-110 -24.5t-111.5 -19.5q1 -131 -1.5 -261.5t-13 -260.5t-32 -257t-59.5 -250h-25v1013q-23 -2 -43.5 -3 t-39.5 -1q-20 0 -38.5 2.5t-33 11t-23.5 23.5t-9 41q0 31 20 48.5t49 17.5t58.5 -2.5t59.5 -5.5v3q0 71 7 156.5t26 171.5t52 167t84 143.5t122.5 100.5t168.5 38q51 0 90 -18t65 -49.5t39 -74t13 -90.5q0 -52 -19 -102t-50 -94t-71.5 -80.5t-83.5 -61.5l-10 23 q29 26 50.5 60.5t35.5 73.5t20.5 79.5t6.5 79.5q0 34 -8 70t-25 65.5t-45 48t-68 18.5q-57 0 -99 -31t-72 -80t-49.5 -111t-30.5 -123.5t-15.5 -117.5t-4.5 -94v-90t1 -90q24 0 62 2t83 5t94 7.5t93.5 10t81 11.5t58.5 13l10 -14l-3 -3q-24 -29 -41 -66t-27.5 -77.5 t-15.5 -82t-5 -80.5q0 -45 10.5 -86.5t33 -73.5t57.5 -51t85 -19q59 0 112.5 25t96.5 63z" />
<glyph unicode="&#xfb02;" horiz-adv-x="1089" d="M512 578q-32 -28 -88.5 -54t-120.5 -46q1 -139 0 -268t-11 -256.5t-33.5 -257t-66.5 -269.5h-25l7 1018q-51 -9 -90 -9q-20 0 -38.5 2.5t-33 11t-23.5 23.5t-9 41q0 31 20 48.5t49 17.5q35 0 66 -1t60 -3q2 77 9.5 164.5t24.5 174t46 165.5t74.5 139.5t109 96.5t150.5 36 q40 0 73 -11.5t60 -29.5q32 38 72 59.5t88 21.5q53 0 86 -31t52 -76.5t25.5 -96.5t6.5 -91q0 -108 -25.5 -212.5t-70 -197t-104.5 -168t-129 -126.5q14 -67 36 -130.5t54.5 -113t76.5 -80t102 -30.5q94 0 154 75l6 -4q-16 -33 -40 -59.5t-54 -45t-64 -28.5t-71 -10 q-73 0 -128.5 37t-96.5 97t-69 135.5t-44.5 153.5t-23.5 150.5t-7 126.5q0 63 6.5 139t21 154t38 152t57.5 133q-32 55 -123 55q-48 0 -84.5 -23t-63 -62t-44.5 -91t-29.5 -108.5t-17.5 -115t-9 -112t-3 -98v-72.5v-47q44 1 92 5.5t107 15.5zM693 727q-1 -22 -0.5 -54 t3 -70.5t7.5 -82.5t13 -90q67 60 114 133t77 157.5t43.5 178t13.5 194.5q0 13 -0.5 34t-3.5 45t-8.5 48t-15 43.5t-24 32t-34.5 12.5q-38 0 -66.5 -37.5t-49 -95.5t-34 -128t-21.5 -134.5t-11 -115.5t-3 -70z" />
<glyph horiz-adv-x="2048" />
<glyph horiz-adv-x="2048" />
<glyph unicode="&#xd;" horiz-adv-x="480" />
<glyph unicode=" "  horiz-adv-x="480" />
<glyph unicode="&#x09;" horiz-adv-x="480" />
<glyph unicode="&#xa0;" horiz-adv-x="480" />
<glyph unicode="!" horiz-adv-x="584" d="M200 72q0 19 7 36t19 29.5t29 19.5t37 7q19 0 36 -7t29.5 -19.5t19.5 -29.5t7 -36t-7 -36t-19.5 -29.5t-29.5 -19.5t-36 -7t-36 7t-29.5 19.5t-19.5 29.5t-7 36zM232 1294q0 16 11 28t26 20t30.5 12t24.5 4q18 0 29.5 -7.5t11.5 -41.5q0 -38 -3 -107t-8.5 -156 t-12 -186.5t-13.5 -199t-14 -193t-12 -167.5h-26q-8 147 -16 280.5t-14 256.5t-10 236.5t-4 220.5z" />
<glyph unicode="&#x22;" horiz-adv-x="344" d="M89 871q-11 24 -21.5 54.5t-19 62t-13.5 60.5t-5 52q0 10 2 27t8.5 33t18.5 27.5t32 11.5q32 0 45 -25.5t3 -69.5q-8 -35 -14 -65t-10.5 -57t-6 -53.5t-0.5 -55.5zM259 871q-11 24 -21.5 54.5t-19 62t-13.5 60.5t-5 52q0 10 2 27t8.5 33t18.5 27.5t32 11.5q32 0 45 -25.5 t3 -69.5q-8 -35 -14 -65t-10.5 -57t-6 -53.5t-0.5 -55.5z" />
<glyph unicode="#" horiz-adv-x="702" d="M207 103l-10 323h-157l8 68h147l-6 213h-137l8 68h127l-8 304l145 21l-25 -325h118l-8 304l145 21l-25 -325h133l-8 -68h-131l-16 -213h143l-8 -68h-140l-25 -323h-40l-10 323h-155l-25 -323h-40zM277 494h148l-6 213h-126z" />
<glyph unicode="$" horiz-adv-x="882" d="M527 1300q28 3 59 3q51 0 103.5 -12t95.5 -38t70 -66t27 -96q0 -48 -25 -89t-66 -71t-95 -47t-112 -16h-12v21q52 5 90 23t63.5 45.5t38 63.5t12.5 77q0 39 -16.5 69.5t-43.5 51.5t-62 32t-72 11q-29 0 -56 -3l-14 -697q52 -27 101 -57.5t86.5 -69t60.5 -89t23 -118.5 q0 -60 -23.5 -108t-63 -81.5t-91 -52t-106.5 -21.5l-3 -176h-32l-4 177q-61 3 -108 22.5t-83 52t-61.5 77t-42.5 97.5l31 10q12 -40 34.5 -78t55.5 -68t76 -49t97 -20l-9 437q-64 36 -131.5 73t-122.5 85t-90.5 113t-35.5 158q0 79 27 146t75.5 119.5t115 89.5t145.5 55 l-4 185h102zM194 911q0 -63 21 -110.5t56 -84t80.5 -65.5t95.5 -55l-13 644q-53 -17 -97 -47t-76 -71t-49.5 -94t-17.5 -117zM668 179q0 41 -12 74.5t-33.5 61.5t-50.5 52t-63 45l-9 -400q42 4 73.5 19.5t52.5 38.5t31.5 51t10.5 58z" />
<glyph unicode="%" horiz-adv-x="1089" d="M550 997q0 -49 -14 -105t-44.5 -104t-78 -79.5t-114.5 -31.5q-68 0 -115.5 30t-77 74.5t-43 96.5t-13.5 97q0 47 9 97t31.5 96t61 85.5t97.5 65.5l9 -16q-38 -28 -59.5 -66t-32.5 -80t-14 -85.5t-3 -82.5q0 -35 7.5 -82.5t26 -90.5t49.5 -72.5t78 -29.5q54 0 84.5 27.5 t44.5 66t17 80t3 70.5q0 38 -8 86.5t-25.5 91t-46 72t-70.5 29.5q-21 0 -36 -8.5t-24.5 -22t-14 -30t-4.5 -32.5v-9.5t1 -9.5l-16 -1q-2 8 -2.5 16.5t-0.5 17.5q0 23 8 47.5t23.5 45t38 33.5t52.5 13q53 0 93.5 -26t67.5 -68.5t41 -96.5t14 -109zM996 1268q14 0 21.5 -5 t7.5 -13q0 -6 -3.5 -13t-9 -14t-11 -13.5t-8.5 -10.5q-38 -45 -75.5 -85t-74.5 -87q-97 -122 -185.5 -244.5t-173.5 -252.5t-169.5 -269t-174.5 -294l-31 17q67 132 142.5 270t155 272.5t162.5 260.5t165 234q18 23 45.5 58t59 70t63 65t57.5 44q6 3 14.5 6.5t22.5 3.5z M1018 317q0 -49 -14 -105t-44.5 -104t-78 -79.5t-114.5 -31.5q-68 0 -115.5 30t-77 74.5t-43 96.5t-13.5 97q0 47 9 97t31.5 96t61 85.5t97.5 65.5l9 -16q-38 -28 -59.5 -66t-32.5 -80t-14 -85.5t-3 -82.5q0 -35 7.5 -82.5t26 -90.5t49.5 -72.5t78 -29.5q54 0 84.5 27.5 t44.5 66t17 80t3 70.5q0 38 -8 86.5t-25.5 91t-46 72t-70.5 29.5q-21 0 -36 -8.5t-24.5 -22t-14 -30t-4.5 -32.5v-9.5t1 -9.5l-16 -1q-2 8 -2.5 16.5t-0.5 17.5q0 23 8 47.5t23.5 45t38 33.5t52.5 13q53 0 93.5 -26t67.5 -68.5t41 -96.5t14 -109z" />
<glyph unicode="&#x26;" horiz-adv-x="885" d="M835 376q0 -104 -35 -193t-101 -152q28 -36 56.5 -69.5t57.5 -63.5l-7 -13q-35 25 -69 55t-69 65q-51 -39 -114 -61t-138 -22q-84 0 -152 24.5t-115.5 70t-73 110.5t-25.5 146q0 71 18.5 129.5t49.5 108t69.5 91t79.5 79.5q-26 85 -40.5 169.5t-14.5 165.5q0 36 6 77.5 t18.5 82t33 78.5t49 66.5t66 46t84.5 17.5q46 0 82.5 -17.5t61 -47t37.5 -69.5t13 -85q0 -69 -25.5 -128t-66 -113t-90.5 -106t-100 -106q42 -170 114 -329t162 -292q27 42 41.5 88t14.5 89q0 40 -4 74t-14.5 65t-28.5 60t-45 59q-2 4 -3.5 6t-1.5 5q0 12 9.5 20.5 t22.5 14.5t27 9t23 3q40 0 66 -20.5t42 -51.5t22.5 -67.5t6.5 -68.5zM444 -28q57 0 102 22t79 57q-50 56 -97.5 121t-90 135.5t-79.5 146t-65 152.5q-49 -67 -81 -144t-32 -173q0 -64 18.5 -121.5t53 -101t83 -69t109.5 -25.5zM334 1073q0 -75 8.5 -151.5t25.5 -153.5 q3 2 9 8q41 39 72.5 86.5t53 101t32.5 110.5t11 114q0 19 -2.5 42t-11 43.5t-23.5 34.5t-40 14q-42 0 -68.5 -28.5t-41.5 -68t-20 -82t-5 -70.5z" />
<glyph unicode="'" horiz-adv-x="174" d="M89 871q-11 24 -21.5 54.5t-19 62t-13.5 60.5t-5 52q0 10 2 27t8.5 33t18.5 27.5t32 11.5q32 0 45 -25.5t3 -69.5q-8 -35 -14 -65t-10.5 -57t-6 -53.5t-0.5 -55.5z" />
<glyph unicode="(" horiz-adv-x="583" d="M558 1355q-19 -7 -50.5 -33.5t-67.5 -74.5t-73 -118.5t-66.5 -165.5t-48.5 -216t-19 -269t19 -269t49 -216t67 -165.5t73.5 -118.5t68 -74.5t50.5 -33.5l-7 -12q-29 10 -75 37.5t-97 75t-103 117t-94 165t-68 218t-26 276.5t26 276.5t68 218t94 165t103 117t97 75 t75 37.5z" />
<glyph unicode=")" horiz-adv-x="583" d="M30 1367q29 -10 75 -37.5t97 -75t103 -117t94 -165t68 -218t26 -276.5q0 -153 -26 -276t-68 -218.5t-94 -165t-103 -117t-97 -75t-75 -37.5l-7 12q19 7 50.5 33.5t68 74.5t73.5 118.5t67 165.5t49 215.5t19 269.5q0 148 -19 269t-48.5 216t-66.5 165.5t-73 118.5 t-67.5 74.5t-50.5 33.5z" />
<glyph unicode="*" horiz-adv-x="650" d="M620 1073q0 -12 -7 -24t-20 -17q-5 -2 -23.5 -8.5t-43.5 -15t-53.5 -17.5t-52 -17t-39.5 -13t-17 -5q-8 0 -13.5 5.5t-5.5 13.5q0 11 7 14l174 141q12 13 30 13q12 0 23.5 -6.5t20.5 -17t14.5 -22.5t5.5 -24zM382 1255q0 -8 -2.5 -27.5t-6 -45.5t-8 -54.5t-8.5 -54.5 t-8 -45.5t-6 -26.5q-2 -6 -5.5 -10t-12.5 -4q-8 0 -11.5 4t-7.5 10q-2 7 -6 26t-9 44.5t-10.5 54t-9.5 53.5t-7 44t-3 26q0 16 7 25.5t18 15t24.5 7t26.5 1.5q17 0 31 -13t14 -30zM546 750q0 -11 -6.5 -22.5t-16.5 -20.5t-22 -15t-22 -6q-11 0 -22 6t-17 17q-3 5 -11.5 22.5 t-20.5 40.5t-24.5 48.5t-23.5 47.5t-18 37.5t-7 18.5q0 8 5.5 13t13.5 5q4 0 17 -10t31 -25.5t38 -34.5t38.5 -36.5t32.5 -31t19 -18.5q16 -13 16 -36zM304 975q0 -8 -5 -13.5t-13 -5.5q-2 0 -18 5t-39.5 13t-51 17t-52.5 17.5t-44 15t-24 8.5q-13 5 -20 17t-7 24t5.5 24 t14.5 22.5t20.5 17t22.5 6.5q19 0 31 -13l174 -141q6 -3 6 -14zM315 926q0 -3 -7 -19t-18 -38l-24 -48l-24.5 -49t-20.5 -40.5t-11 -22.5q-6 -11 -17 -17t-22 -6t-22.5 6t-21.5 15t-16.5 20.5t-6.5 22.5q0 23 16 36q5 5 19 18.5t32.5 31t38.5 36.5t38 34.5t31 25.5t17 10 q8 0 13.5 -5t5.5 -11z" />
<glyph unicode="+" d="M336 293q-23 42 -38.5 102t-24.5 126q-35 -3 -66.5 -4t-57.5 -1q-21 0 -40.5 1t-35 7.5t-24.5 20t-9 39.5q0 31 20.5 46t51.5 11q39 -5 76 -8.5t73 -6.5q-3 34 -4 64.5t-1 56.5q0 21 1 40.5t7.5 35t20 24.5t39.5 9q31 0 46 -20.5t11 -51.5q-5 -45 -9 -85.5t-7 -80.5 q60 -3 118 -4.5t116 0.5l4 -18q-44 -24 -109.5 -40t-135.5 -26q-3 -60 -4.5 -118t0.5 -115z" />
<glyph unicode="," horiz-adv-x="585" d="M270 -120q6 14 10.5 29.5t5 30t-4.5 26t-18 18.5q-26 14 -44.5 35.5t-18.5 52.5q0 19 7 36t19.5 29.5t29.5 19.5t36 7q38 0 64 -27t28 -65q3 -40 -10.5 -74.5t-32 -60.5t-36.5 -42.5t-25 -21.5q-3 1 -5 3q-5 3 -5 4z" />
<glyph unicode="-" horiz-adv-x="550" d="M439 444q27 0 40.5 -19t15.5 -39q1 -14 -1.5 -26t-11.5 -21t-25 -14t-43 -5q-47 0 -75 0.5t-52 0.5t-51 0.5t-72 0.5q-21 0 -40.5 2t-35 9t-24.5 21.5t-9 40.5q0 28 17 45.5t43 17.5q3 0 6 -0.5t6 -0.5q75 -8 150 -10.5t162 -2.5z" />
<glyph unicode="." horiz-adv-x="584" d="M200 72q0 19 7 36t19.5 29.5t29.5 19.5t36 7t36 -7t29.5 -19.5t19.5 -29.5t7 -36t-7 -36t-19.5 -29.5t-29.5 -19.5t-36 -7t-36 7t-29.5 19.5t-19.5 29.5t-7 36z" />
<glyph unicode="/" horiz-adv-x="788" d="M118 -204l-18 2l490 1530l124 -29z" />
<glyph unicode="0" horiz-adv-x="960" d="M915 643q0 -65 -11 -140.5t-34.5 -151t-60 -145.5t-87 -124t-115.5 -86.5t-146 -32.5q-79 0 -140.5 29.5t-108 79.5t-78 115t-51.5 136t-29 143t-9 136q0 68 6.5 140t22 143t41 139t63.5 127.5t89.5 107.5t119.5 80l6 -12q-68 -59 -111 -143.5t-68 -178.5t-34.5 -191 t-9.5 -181q0 -53 6.5 -119t22 -134.5t42 -134t66.5 -116.5t94.5 -82t126.5 -31q56 0 98 29.5t72 77t49.5 107t31 120.5t16 117.5t4.5 97.5q0 44 -6.5 108t-21 135.5t-37.5 142.5t-56.5 127.5t-78.5 92t-103 35.5q-45 0 -77 -23.5t-51.5 -59t-27 -77.5t-2.5 -79l-10 -2 q-3 18 -5 35.5t-2 35.5q0 50 13 96.5t39 82.5t65.5 57.5t93.5 21.5q75 0 133 -34.5t101.5 -88.5t72.5 -120t44 -129q17 -69 24.5 -138.5t7.5 -140.5z" />
<glyph unicode="1" horiz-adv-x="645" d="M645 117q-44 -35 -97.5 -61.5t-111.5 -44.5t-117.5 -27t-115.5 -9q-22 0 -43.5 4t-38 14t-27 27t-10.5 43q0 10 3 21.5t8.5 21.5t14.5 16.5t21 6.5q9 0 13 -2q45 -13 92 -17t94 -6q-27 139 -34 282t-7 282q0 80 2 158.5t8 156.5q-19 -19 -46 -43t-57 -47t-60.5 -41 t-55.5 -25l-10 15q33 30 65.5 76.5t62 99t54.5 105t43 94.5q10 21 18 48.5t19 47.5q6 14 14 19t25 5q12 0 30.5 -6t35.5 -16t29 -23t12 -28v-7q-38 -138 -62.5 -278t-37 -283t-16 -290.5t0.5 -301.5h20q30 0 63 1.5t66 5t65 9t60 13.5z" />
<glyph unicode="2" horiz-adv-x="801" d="M753 -31q-81 22 -164.5 27.5t-165.5 5.5q-66 0 -134.5 -3.5t-133.5 -18.5h-14q-28 0 -44 20.5t-16 46.5q0 27 13.5 43.5t33.5 25.5t44.5 12t45.5 3h10q86 48 159.5 117t127.5 153t84.5 179t30.5 194q0 45 -8 96t-24 101.5t-41 96.5t-60 81.5t-79 56.5t-99 21 q-42 0 -80.5 -15t-68 -42t-47 -63.5t-17.5 -78.5q0 -32 7.5 -59.5t21 -52t31 -47t38.5 -44.5q12 -14 19.5 -26.5t7.5 -32.5q0 -15 -5 -31t-14 -29.5t-22.5 -22.5t-30.5 -9q-39 0 -64 28t-39.5 67.5t-20 82.5t-5.5 72q0 59 13 114t40 103.5t67.5 88t94.5 66.5 q32 16 68.5 24.5t74.5 8.5q52 0 98.5 -15.5t86.5 -43t71.5 -66t53.5 -84.5q24 -51 33.5 -107t9.5 -112q0 -116 -31.5 -226.5t-88 -210.5t-135 -185.5t-172.5 -151.5q58 -5 118 -16.5t118 -29t111.5 -41.5t99.5 -54z" />
<glyph unicode="3" horiz-adv-x="784" d="M717 242q0 -69 -29 -122t-74.5 -89t-103 -54.5t-114.5 -18.5q-45 0 -93 10t-88 34t-66 64t-26 100q0 46 16.5 82t44 63t64 45.5t76.5 27.5l6 -16q-47 -27 -79 -79t-32 -116q0 -41 13 -75.5t36 -59.5t55.5 -39t71.5 -14q51 0 88 21t61.5 54t36 72.5t11.5 77.5 q0 75 -21 131.5t-59 95.5t-92 61t-121 29v41q61 9 116 33t96.5 65t66 99t24.5 133q0 60 -19.5 121t-55.5 110.5t-87.5 81t-115.5 31.5q-42 0 -80.5 -15.5t-68 -43t-47 -64.5t-17.5 -80q0 -33 7.5 -60t21 -52t31.5 -48t38 -48q11 -14 19 -30.5t8 -38.5q0 -30 -20 -55t-54 -25 q-39 0 -63.5 28t-39 67t-19.5 82t-5 73q0 77 24.5 151t71 132t113 93.5t149.5 35.5q75 0 139 -33t111 -87t74 -123.5t27 -143.5q0 -71 -24 -133.5t-67 -115t-103 -92.5t-133 -65q55 -13 109 -39t96.5 -65t68.5 -90.5t26 -114.5z" />
<glyph unicode="4" horiz-adv-x="849" d="M100 480q1 -1 4 -1q54 62 86.5 135t52 157t31 179.5t23.5 202.5q2 19 10.5 36t21.5 29t30 17t36 -1q19 -5 28 -18.5t12.5 -31t2.5 -37.5t-3 -38q-8 -79 -30 -163.5t-58 -168.5t-86 -163.5t-114 -146.5q44 -10 94 -18.5t101 -15t102.5 -10.5t98.5 -5q-8 88 -12 173t-4 161 q0 32 0.5 78.5t4 100t11.5 109t22 105t35.5 88.5t52.5 59q16 11 36 19t40 8q12 0 21 -6.5t9 -20.5q0 -15 -6 -30q-26 -59 -44 -126.5t-30 -137.5t-19 -137.5t-11 -125t-5 -101t-1 -65.5q0 -28 0.5 -49.5t0.5 -39t0.5 -32.5t0.5 -30q22 2 39.5 4.5t33.5 5.5t33 7t38 10 l10 -20q-12 -6 -29.5 -13.5t-38 -15.5t-42.5 -15.5t-44 -13.5q0 -112 3.5 -220t14.5 -217l-18 -6q-37 91 -59.5 198t-35.5 221q-69 -15 -139 -20.5t-139 -5.5h-42.5t-53.5 2.5t-56 8t-50 16.5t-36 28.5t-14 43.5q0 9 4 22.5t13 25t24.5 17t38.5 -0.5z" />
<glyph unicode="5" horiz-adv-x="853" d="M813 393q0 -87 -36 -165t-96 -137t-139 -93.5t-165 -34.5q-68 0 -130 21t-109 60.5t-75 97t-28 130.5q0 75 32.5 145.5t86.5 121.5l12 -13q-19 -38 -29 -83t-10 -89q0 -58 23.5 -119.5t65 -111.5t96.5 -82.5t118 -32.5q69 0 115 34.5t73.5 87t39.5 114.5t12 116 q0 75 -21 147.5t-62.5 129.5t-103.5 92t-145 35q-48 0 -94.5 -12.5t-89.5 -30.5l-31 6l78 465q-12 21 -12 47q0 10 2.5 21.5t8.5 21.5t15 16.5t21 6.5q8 0 12 -2q57 -16 119 -19.5t121 -3.5q30 0 62.5 1.5t65.5 4.5t65 8.5t61 14.5l8 -17q-45 -35 -98.5 -62t-111.5 -44.5 t-117.5 -26.5t-115.5 -8h-14l-104 -352q52 21 108 34t113 13q92 0 166.5 -38t127 -101.5t81 -145t28.5 -168.5z" />
<glyph unicode="6" horiz-adv-x="881" d="M841 444q0 -84 -25.5 -168t-74.5 -151.5t-120.5 -109.5t-164.5 -42q-74 0 -132.5 25t-103.5 67t-77.5 98.5t-53 119.5t-30 128.5t-9.5 127.5q0 85 17 172.5t50.5 170t81.5 157t110.5 135.5t138 104.5t163.5 64.5l4 -18q-101 -46 -174.5 -123.5t-124 -172.5t-79.5 -201 t-40 -210q12 50 37.5 94.5t63 77.5t84 52.5t100.5 19.5q91 0 158.5 -33.5t112 -90.5t66.5 -133t22 -161zM699 406q0 35 -3.5 78.5t-13 88t-26 87t-42 75t-61 52.5t-83.5 20q-49 0 -87.5 -19.5t-67 -52.5t-48.5 -75.5t-32 -88t-17.5 -91t-5.5 -83.5q0 -36 6 -77.5t18.5 -83.5 t32 -81t47 -69t63.5 -48t81 -18q44 0 78.5 19.5t61 51.5t45.5 72.5t31 83.5t17.5 84.5t5.5 74.5z" />
<glyph unicode="7" d="M637 1297l-9 -30q12 2 28.5 4.5t28.5 5.5l8 -17q-35 -20 -76 -37q-49 -120 -105.5 -259.5t-105 -289.5t-80.5 -306t-32 -308q0 -18 1 -35.5t1 -34.5q0 -12 -5 -25t-22 -13q-10 0 -21 5.5t-21 13.5t-19 17t-15 17q-20 24 -27.5 60t-7.5 68q0 90 17.5 181t47.5 182 t70 181.5t84 179t89.5 174.5t87.5 169q-96 -31 -196.5 -42.5t-199.5 -11.5q-23 0 -55 1.5t-61.5 10.5t-50.5 27t-21 51q0 26 17.5 46.5t43.5 20.5h9.5t9.5 -2q48 -13 101 -21t106.5 -12.5t107 -6t103.5 -1.5h62t63 3l28 41z" />
<glyph unicode="8" horiz-adv-x="851" d="M821 969q0 -78 -25 -138t-67 -107.5t-97.5 -86t-116.5 -74.5q38 -29 73 -61t62 -69.5t43.5 -80.5t16.5 -94q0 -60 -22.5 -111.5t-61 -89t-90.5 -59t-111 -21.5q-57 0 -109 17t-91.5 49t-62.5 79.5t-23 108.5q0 51 15.5 91.5t42.5 73.5t62.5 60t75.5 52 q-56 37 -110.5 78.5t-98 91t-70 109.5t-26.5 135q0 83 30 157.5t82.5 131t125 89.5t157.5 33q80 0 152 -25.5t126 -73t86 -114.5t32 -151zM694 975q0 57 -20.5 113t-57.5 101t-87.5 73t-111.5 28h-16.5t-16.5 -2q-118 -21 -177.5 -99.5t-59.5 -199.5q0 -71 32 -128.5 t81 -104.5t106 -87t108 -77q110 69 165 160.5t55 222.5zM610 203q0 48 -23 88t-57.5 73.5t-75 61.5t-74.5 51q-69 -49 -100 -110t-31 -146q0 -43 14 -81t39.5 -66.5t62 -45t81.5 -16.5q42 0 73 15t51 41t30 61t10 74z" />
<glyph unicode="9" horiz-adv-x="881" d="M831 760q0 -86 -17 -173t-50 -169.5t-81.5 -157t-110.5 -135.5t-138 -105t-163 -65l-6 18q102 46 176 123.5t124.5 172.5t79.5 201t40 210q-12 -50 -38.5 -94.5t-63.5 -77.5t-83.5 -52.5t-99.5 -19.5q-91 0 -158.5 33.5t-112.5 91t-67 133.5t-22 160q0 56 11.5 112.5 t33.5 109t55 98t76 79t95.5 53t115.5 19.5q74 0 132.5 -25t103.5 -67t77 -98t52 -119t29.5 -129t9.5 -127zM669 901q0 36 -6 77.5t-18.5 83.5t-32 81t-47 69t-63.5 48t-81 18q-43 0 -78 -19.5t-61 -51t-45 -72.5t-31 -83.5t-17.5 -84t-5.5 -74.5q0 -35 3.5 -78.5t13 -88 t26 -87t41.5 -75t60.5 -52.5t83.5 -20q50 0 88 19.5t67 52.5t48.5 75.5t31.5 87.5t17.5 90.5t5.5 83.5z" />
<glyph unicode=":" horiz-adv-x="584" d="M200 72q0 19 7 36t19.5 29.5t29.5 19.5t36 7t36 -7t29.5 -19.5t19.5 -29.5t7 -36q0 -20 -7 -36.5t-19.5 -29.5t-29.5 -20t-36 -7t-36 7t-29.5 20t-19.5 29.5t-7 36.5zM200 465q0 19 7 36t19.5 29.5t29.5 19.5t36 7t36 -7t29.5 -19.5t19.5 -29.5t7 -36q0 -20 -7 -36.5 t-19.5 -29.5t-29.5 -20t-36 -7t-36 7t-29.5 20t-19.5 29.5t-7 36.5z" />
<glyph unicode=";" horiz-adv-x="585" d="M200 465q0 19 7 36t19.5 29.5t29.5 19.5t36 7t36 -7t29.5 -19.5t19.5 -29.5t7 -36q0 -20 -7 -36.5t-19.5 -29.5t-29.5 -20t-36 -7t-36 7t-29.5 20t-19.5 29.5t-7 36.5zM270 -120q6 14 10.5 29.5t5 30t-4.5 26t-18 18.5q-26 14 -44.5 35.5t-18.5 52.5q0 19 7 36t19.5 29.5 t29.5 19.5t36 7q38 0 64 -27t28 -65q3 -40 -10.5 -74.5t-32 -60.5t-36.5 -42.5t-25 -21.5q-3 1 -5 3q-5 3 -5 4z" />
<glyph unicode="&#x3c;" d="M139 491q-26 16 -47 34.5t-21 43.5q0 12 5 23.5t13 20.5t18.5 14.5t22.5 5.5h8t9 -2q46 42 101.5 82t108 71.5t94.5 51t62 19.5q7 0 17 -4t19.5 -12t16 -20.5t6.5 -29.5q0 -18 -12 -32.5t-33 -22.5q-94 -35 -173 -69.5t-154 -70.5q100 -82 188 -147t180 -121l-6 -18 q-46 3 -103.5 23.5t-116 48t-112 57.5t-91.5 54z" />
<glyph unicode="=" d="M603 696q-40 -22 -99 -37.5t-123 -25t-125.5 -13.5t-106.5 -4q-21 0 -40.5 1t-35 7.5t-24.5 20t-9 39.5q0 31 20.5 46t51.5 11q139 -16 256 -22.5t231 -4.5zM603 496q-40 -22 -99 -37.5t-123 -25t-125.5 -13.5t-106.5 -4q-21 0 -40.5 1t-35 7.5t-24.5 20t-9 39.5 q0 31 20.5 46t51.5 11q139 -16 256 -22.5t231 -4.5z" />
<glyph unicode="&#x3e;" d="M75 326q45 28 88.5 55.5t88 59t91 68.5t98.5 84q-73 36 -152 70.5t-173 70.5q-29 11 -40.5 34t3.5 50q11 22 25.5 30t30.5 6.5t34 -9.5t37 -17q30 -15 66.5 -37t74.5 -47.5t76 -54t70 -58.5q19 6 36 0.5t30 -24.5q14 -21 14 -38t-9.5 -30.5t-25.5 -25t-34 -22.5 q-37 -25 -88.5 -52.5t-109 -53t-116 -46.5t-109.5 -31z" />
<glyph unicode="?" horiz-adv-x="741" d="M287 72q0 19 7 36t19.5 29.5t29.5 19.5t36 7t36 -7t30 -19.5t20 -29.5t7 -36t-7 -36t-20 -29.5t-30 -19.5t-36 -7t-36 7t-29.5 19.5t-19.5 29.5t-7 36zM376 275q-11 26 -15 52t-4 52q0 55 17 105t43 97.5t55.5 93.5t55.5 91.5t43 92t17 96.5q0 66 -21 119.5t-58 90.5 t-88 57t-112 20q-42 0 -80.5 -15.5t-68 -43t-47 -64.5t-17.5 -80q0 -65 27.5 -114t70.5 -94q12 -14 19.5 -28t7.5 -33q0 -30 -12.5 -52t-46.5 -22q-39 0 -66 25.5t-44 62.5t-24.5 77.5t-7.5 70.5q0 77 24.5 151.5t71 133t113 94.5t149.5 36q69 0 131.5 -26t109.5 -73 t74.5 -113t27.5 -146t-24 -142t-59.5 -115t-77 -100.5t-77 -98t-59.5 -108t-24 -130.5q0 -5 0.5 -10t0.5 -10h-25z" />
<glyph unicode="@" horiz-adv-x="1536" d="M1032 782q0 -12 -10 -22t-26 -10q-15 0 -30.5 9t-35 20t-45 20t-59.5 9q-40 0 -75.5 -17t-65.5 -45.5t-54 -65.5t-41 -77t-26 -79.5t-9 -73.5q0 -35 8 -67.5t26 -57.5t46 -40t69 -15q45 0 88 19t80 45q0 57 12.5 111t32.5 102.5t45 90t50 72.5l26 -6q-9 -23 -18 -47.5 t-16 -52.5t-11 -61.5t-4 -75.5q0 -44 7.5 -82.5t26.5 -68t51 -46.5t80 -17q66 0 114 33t79 84t46 114t15 123q0 96 -30 175.5t-81 143t-119 110.5t-143.5 78.5t-154 47t-151.5 15.5q-129 0 -233 -45.5t-177 -125t-112.5 -187t-39.5 -230.5q0 -139 41.5 -263.5t123 -223 t203.5 -166.5t284 -93l-6 -22q-172 0 -312.5 46t-240.5 133t-155 213t-55 286q0 102 30 201t83 187t126.5 163t160 129t183.5 84.5t198 30.5q82 0 163 -18.5t153.5 -53.5t134.5 -85.5t107.5 -114.5t71 -140.5t25.5 -163.5q0 -68 -13 -137t-38 -133t-60.5 -119.5t-81 -96.5 t-99.5 -64.5t-116 -23.5q-43 0 -76.5 11.5t-58 30.5t-40.5 44.5t-23 53.5q-26 -26 -55.5 -49t-61 -40.5t-65.5 -28t-69 -10.5q-49 0 -88.5 17t-68 47t-44 71t-15.5 89q0 55 18.5 112t51 111t76.5 101.5t95.5 83t107.5 56t113 20.5q24 0 51.5 -5.5t51 -16t39 -26t15.5 -34.5z " />
<glyph unicode="A" horiz-adv-x="1144" d="M1059 1075q0 -23 -8 -54.5t-23.5 -61t-38.5 -50t-53 -20.5q-16 0 -20.5 11t-4.5 24q0 42 7 83t7 85q0 43 -7 84.5t-25.5 73.5t-52 51.5t-85.5 19.5q-75 0 -138.5 -35t-116 -95t-95 -139.5t-75.5 -168.5t-56.5 -182t-39 -180t-22.5 -162.5t-7 -129.5q0 -48 4.5 -102 t16 -106.5t30.5 -100.5t48 -84.5t69.5 -58t94.5 -21.5q79 0 140 31t108.5 83t82 119.5t60.5 139.5q-5 35 -8 70.5t-3 70.5q0 24 2 59.5t7 76t14 82t22 79t31 66t42 43.5q16 9 32.5 16.5t35.5 7.5q14 0 22.5 -6t8.5 -20q0 -9 -2.5 -17.5t-6.5 -17.5q-37 -96 -54 -197 t-17 -204q0 -36 4.5 -87t12.5 -108t20 -117t27.5 -114t34 -98t40.5 -70l-18 -6q-88 89 -147.5 200.5t-87.5 233.5q-47 -111 -114 -203q-30 -39 -67 -71.5t-79 -56.5t-88.5 -37t-97.5 -13q-74 0 -130.5 26t-97.5 69t-68.5 99t-43.5 116.5t-23 121.5t-7 113q0 116 21.5 245 t62.5 255.5t101.5 242t138.5 203.5t173 140t205 52q67 0 122.5 -21.5t95.5 -61t62 -94.5t22 -122z" />
<glyph unicode="B" horiz-adv-x="1164" d="M493 1133q0 -10 -2.5 -17.5t-5.5 -15.5q-17 -40 -35.5 -78.5t-30.5 -81.5q-31 -113 -49.5 -234.5t-26.5 -249.5q81 -2 170 -20t173 -53q63 38 115.5 88t90 111t58 131t18.5 147q0 115 -39.5 206t-105 154t-149.5 96.5t-173 33.5q-62 0 -129 -23t-122 -64t-90.5 -99 t-35.5 -128q0 -27 6.5 -49t14 -40t14 -33.5t6.5 -30.5q0 -29 -19.5 -48.5t-47.5 -19.5q-26 0 -41 14t-23.5 35t-11 44.5t-2.5 41.5q0 88 41.5 159.5t108.5 127.5q42 36 84.5 63.5t87.5 46t94.5 28t105.5 9.5q135 0 243 -39.5t183 -108t115.5 -159.5t40.5 -194 q0 -95 -29 -175.5t-79 -147t-118 -118.5t-147 -90q51 -28 94.5 -63.5t75.5 -80t50 -97.5t18 -115q0 -68 -27 -128.5t-73 -107t-106.5 -73.5t-127.5 -27q-39 0 -82 14.5t-82 38.5t-72 55t-53 64l14 12q51 -43 116.5 -69.5t131.5 -26.5q51 8 91.5 36t68.5 68.5t42.5 89 t14.5 97.5q0 99 -43.5 169t-112.5 116q-86 -34 -176 -51t-178 -19q-2 -158 4.5 -310.5t16.5 -289.5l-19 -6q-25 66 -43 141t-30 154t-19.5 159.5t-10.5 158.5q-24 4 -48.5 11.5t-44 19t-31.5 27.5t-12 39t11.5 39t30.5 27.5t43 18t48 9.5q0 42 1 103t5.5 129.5t14 139 t27.5 132.5t45 110t67 71q15 9 33 16.5t38 7.5q31 0 31 -28zM336 281q78 1 154.5 20t145.5 54q-67 33 -143.5 49.5t-151.5 20.5q-2 -36 -3 -72zM135 365q0 -15 8.5 -26.5t22 -20.5t31 -15.5t36.5 -10.5q-1 34 -1.5 66t-0.5 64q-18 -2 -35 -6.5t-30.5 -11t-22 -16.5t-8.5 -23 z" />
<glyph unicode="C" horiz-adv-x="1130" d="M1150 1059q0 -72 -27 -135t-72.5 -115.5t-105.5 -94.5t-126 -70.5t-134.5 -44t-130.5 -15.5h-6v20q90 11 174.5 55.5t150 112.5t105 154t39.5 180q0 51 -13.5 92.5t-40 71t-66.5 45.5t-93 16q-107 0 -193.5 -45.5t-153.5 -121t-115.5 -173.5t-80 -204t-46.5 -212.5 t-15 -197.5q0 -73 9.5 -147.5t30.5 -143.5t54 -129.5t79.5 -105.5t107.5 -71t139 -26q54 0 104 20t94 53t79.5 75t60.5 86l12 -6q-17 -62 -58 -122t-97.5 -106.5t-123 -75t-133.5 -28.5q-89 0 -161 27.5t-128.5 76t-97.5 114t-68 142t-40 160t-13 167.5q0 110 23 230t68 236 t110.5 220.5t150.5 184t188.5 126t223.5 46.5q75 0 137 -21.5t106.5 -62.5t68.5 -100.5t24 -136.5z" />
<glyph unicode="D" horiz-adv-x="1237" d="M1177 461q0 -101 -21 -202.5t-62 -194t-101 -172t-137.5 -138t-173 -92t-206.5 -33.5q-99 0 -177.5 26.5t-133 78.5t-83.5 128t-29 175q0 35 3 70t11 69l16 2v-14q-1 -91 25.5 -177.5t79 -154t131 -108.5t180.5 -41q101 0 179.5 39.5t136.5 105.5t97.5 151.5t63.5 178 t34.5 184t10.5 170.5q0 78 -14.5 170.5t-44 185.5t-75 180t-107.5 154t-141.5 107.5t-176.5 40.5q-37 0 -76 -12.5t-77 -34t-71.5 -50.5t-58.5 -63.5t-40 -72t-15 -75.5q0 -28 7 -50t15.5 -40.5t15.5 -35t7 -33.5q0 -29 -19.5 -48.5t-47.5 -19.5q-23 0 -37 10t-21.5 25.5 t-10.5 34.5t-3 37q0 43 12 86t32 83.5t46 77t53 68.5q66 75 149 118.5t185 43.5q125 0 223.5 -41t173 -111.5t126.5 -164t84.5 -197.5t47.5 -213t15 -211zM499 1133q0 -10 -2.5 -18.5t-5.5 -16.5q-17 -45 -38.5 -86.5t-33.5 -87.5q-45 -172 -65 -318t-24.5 -278.5t1.5 -259 t14 -258.5l-16 -7q-26 80 -43.5 166.5t-28 175.5t-14.5 178t-4 173q0 39 1.5 95t6.5 120t15 130t27.5 124t43 103t62.5 67q17 9 35 17.5t38 8.5q31 0 31 -28z" />
<glyph unicode="E" horiz-adv-x="1041" d="M1091 1120q0 -72 -23.5 -128.5t-63.5 -100.5t-93.5 -76t-113.5 -54t-123.5 -34.5t-123.5 -17.5v18q66 23 136.5 61t128 89.5t95 117t37.5 144.5q0 86 -47 137t-135 51q-69 0 -137 -21.5t-130 -60t-115.5 -90.5t-92.5 -113.5t-61.5 -129t-22.5 -136.5q0 -75 31 -138 t81 -112t114 -82.5t130 -50.5v-18q-32 -13 -68 -35t-72.5 -51t-70 -65t-59.5 -76t-41.5 -83.5t-15.5 -88.5q0 -116 57.5 -176t173.5 -60q65 0 124.5 17.5t111 50t94.5 78.5t75 102l13 -6q-27 -72 -78 -137t-118 -114t-146.5 -77.5t-163.5 -28.5q-65 0 -120 19t-95 56 t-63 91.5t-23 126.5q0 143 85 251.5t253 180.5q-84 0 -153 27t-118.5 76.5t-76.5 118.5t-27 153q0 82 30 162t82.5 153t123 135t152 107.5t170 71.5t175.5 26q64 0 122 -13.5t101.5 -44t69 -80.5t25.5 -122z" />
<glyph unicode="F" horiz-adv-x="1057" d="M590 1059q0 -8 -2.5 -15.5t-5.5 -13.5q-10 -26 -21 -51t-20 -51q-36 -113 -55.5 -252.5t-24.5 -291.5q23 -2 45 -3.5t45 -1.5q46 0 99 4t104 10.5t95.5 15.5t74.5 19l12 -12q-90 -56 -212 -86t-265 -41q-2 -165 9 -325.5t32 -301.5l-17 -8q-29 66 -50 142t-36.5 157 t-25 165t-15.5 166q-20 -1 -40.5 -1h-41.5q-18 0 -41.5 1.5t-44.5 8t-35 21t-14 40.5q0 17 8.5 28.5t21 19t28 11t30.5 3.5q8 0 15.5 -1t15.5 -3q23 -3 46 -6.5t46 -6.5q-2 38 -2 75.5v72.5q0 34 1 79.5t5.5 96.5t13 102.5t23.5 97.5t38 82t56 56q17 9 36.5 17.5t37.5 8.5 q31 0 31 -28zM1317 1354q-73 -56 -170 -96.5t-203 -67.5t-212 -40t-197 -13q-28 0 -71 3t-92.5 9t-101.5 16.5t-98.5 25t-82.5 34.5t-54 45q-11 17 -23 38.5t-12 43.5q0 28 31 28q8 0 14 -1t14 -3q38 -12 72.5 -25t71.5 -24q121 -28 243.5 -41.5t247.5 -13.5q152 0 312 23 t303 77z" />
<glyph unicode="G" horiz-adv-x="1188" d="M1217 258q-14 0 -27.5 1t-27.5 1q-38 0 -89 -4t-110 -11q23 -81 23 -161q0 -89 -30 -167t-84 -136.5t-129.5 -92.5t-166.5 -34t-164.5 28t-130.5 77t-98 115t-67 141t-38.5 156t-12.5 160q0 109 23.5 229t68.5 236.5t111 222t151.5 186t190 128t226.5 47.5q68 0 127 -16 t103 -49.5t69 -85.5t25 -125q0 -55 -18.5 -105.5t-51 -94t-76 -78.5t-93 -59.5t-102 -37.5t-103.5 -12h-15v20q65 13 123.5 47.5t102 84t69 111.5t25.5 130q0 101 -51.5 161t-155.5 60q-108 0 -194 -46t-152.5 -122t-114.5 -175t-78.5 -205t-45 -211.5t-14.5 -194.5 q0 -68 9 -140.5t28.5 -141.5t51.5 -130.5t78.5 -108t108 -73.5t141.5 -27q61 0 116 21.5t96.5 60t66 91.5t24.5 116q0 51 -17 99t-47 88q-53 -8 -105 -18t-99.5 -21.5t-88 -24t-69.5 -25.5q-9 -6 -19 -6q-14 0 -18 12t-4 23q0 18 6.5 40.5t18.5 43t28 36.5t35 21 q27 8 56.5 12t59.5 5.5t60 1.5h57q42 0 103 -2.5t125 -9t121 -18t90 -30.5z" />
<glyph unicode="H" horiz-adv-x="1232" d="M451 1343q0 -9 -3 -17t-6 -17q-15 -45 -32.5 -88t-30.5 -88q-23 -79 -37 -185.5t-22 -227t-10 -248t1 -249.5q81 -15 169.5 -26.5t172.5 -19.5t158.5 -12.5t128.5 -4.5h39q-19 152 -26 302t-7 281q0 38 1 91t6 112.5t14.5 121t26.5 116t42 98t62 66.5q18 11 39 20.5 t43 9.5q32 0 32 -32q0 -10 -2.5 -19t-5.5 -18q-15 -44 -32 -86.5t-31 -87.5q-22 -72 -36.5 -163.5t-23 -194.5t-11.5 -213t-2 -218.5t5.5 -211.5t11.5 -192t15.5 -159.5t17.5 -114.5l-20 -8q-41 100 -68.5 217t-44.5 242q-62 -17 -143 -28.5t-164.5 -18t-161 -9t-131.5 -2.5 h-68q6 -130 16 -233t23 -162l-20 -8q-36 89 -62 192t-44 213q-29 2 -56 6t-53 11q-26 5 -48 23t-38 42t-25.5 51.5t-9.5 53.5q0 14 6 28.5t25 14.5q14 0 26 -6q30 -12 67.5 -22.5t82.5 -20.5q-14 131 -19.5 258t-5.5 239q0 39 1.5 92t6 112.5t14.5 121t27 115.5t42.5 97.5 t62.5 66.5q17 11 38.5 21.5t43.5 10.5q15 0 24 -9t9 -26z" />
<glyph unicode="I" horiz-adv-x="664" d="M459 -313q0 -35 -35 -35q-22 0 -42.5 11t-37.5 22q-5 3 -8.5 6.5l-7.5 7.5q-64 -8 -121 -13t-97 -5q-27 0 -59 2.5t-60.5 13t-47.5 31.5t-19 59q0 28 17.5 52t48.5 24q3 0 7 -1t7 -1q63 -14 132 -23.5t139 -15.5q-9 42 -13 87.5t-5.5 88.5t-1 80t0.5 61q0 73 2 160.5 t6.5 183t12 196t18 200t25 194t33.5 178.5q-85 -12 -165 -28.5t-147 -36.5q-6 -2 -11 -2h-10q-15 0 -27.5 7t-20.5 18t-12.5 25t-4.5 28q0 30 14.5 50t37.5 33t52.5 19t59.5 9t57.5 3h48.5q31 0 72 -1.5t87 -5.5q5 18 11 34.5t12 32.5l21 -9q-4 -20 -9 -61q52 -5 106 -11.5 t103 -16.5t90 -22.5t68 -27.5l-10 -16q-25 3 -50.5 3.5t-49.5 0.5q-60 0 -128 -5t-140 -13q-5 -67 -10 -150.5t-8.5 -178.5t-5.5 -197t-2 -205.5t2 -204.5t7.5 -193t14 -172.5t20.5 -142.5q27 -1 53.5 -1.5t52.5 -0.5q53 0 107 2.5t106 13.5l10 -16q-21 -15 -53.5 -28 t-72 -25t-85 -22.5t-92.5 -18.5q3 -8 5 -15.5t2 -15.5z" />
<glyph unicode="J" horiz-adv-x="1090" d="M991 289q0 -78 -13.5 -159.5t-41.5 -158t-71 -144t-102 -118t-134.5 -79.5t-167.5 -29q-89 0 -172.5 25.5t-147.5 76t-102.5 124.5t-38.5 171q0 58 13.5 114.5t38 108.5t59.5 98t79 84l19 -10q-35 -68 -53.5 -140.5t-18.5 -148.5q0 -80 22 -157.5t66.5 -139t111.5 -99.5 t157 -38q74 0 127.5 23.5t91 64t61 94t36 114t17 123.5t4.5 122q0 124 -14 254t-38 262t-56 262t-68 254q-83 -26 -157 -53t-129 -51q-8 -3 -14.5 -4.5t-14.5 -1.5q-16 0 -29 7.5t-22 19t-14 26t-5 28.5q0 22 8 38.5t21.5 29.5t30.5 22t35 15q49 17 115.5 28.5t136.5 17.5 q-5 16 -9.5 31t-9.5 31l18 11l24 -34t24 -35q52 4 100 5.5t86 1.5q25 0 57 -0.5t65 -3.5t64 -8.5t54 -15.5l-7 -17q-70 -2 -163 -20t-192 -46q63 -110 111.5 -230t82.5 -244.5t51.5 -251t17.5 -250.5z" />
<glyph unicode="K" horiz-adv-x="1227" d="M497 1339q0 -9 -3.5 -18t-7.5 -18q-18 -42 -38.5 -82t-36.5 -82q-27 -70 -46.5 -151t-34 -170t-23.5 -184t-13 -194q54 -11 99 -33t87 -54q80 50 148 123.5t124.5 160.5t101.5 182t79.5 187t58.5 176t39 149q4 22 19 44t35.5 40t44.5 29.5t47 11.5t33 -13.5t10 -35.5v-14 q-11 -93 -41 -195t-75.5 -205.5t-107 -203.5t-136 -187.5t-161.5 -159.5t-184 -119q20 -17 39.5 -35t40.5 -38q89 -84 174.5 -171t175.5 -169t188 -153.5t212 -124.5q30 -14 67 -27.5t76 -23.5t77.5 -16t71.5 -6q17 0 33 1.5t33 6.5l4 -21q-43 -24 -92 -33.5t-100 -9.5 q-39 0 -83 5.5t-89 16t-87.5 25t-76.5 31.5q-102 51 -200.5 120.5t-189.5 150.5t-172.5 170t-148.5 181q-14 19 -27.5 39t-27.5 40q-60 -19 -125 -27q-2 -155 4 -304t16 -285l-22 -8q-25 65 -43.5 137t-31.5 148t-21.5 153.5t-13.5 154.5q-23 2 -46.5 8.5t-43 18t-32 29.5 t-12.5 43q0 24 11.5 41.5t30 29.5t41 18.5t44.5 8.5v56q0 49 1 123t6.5 159t18 173t35 165t57 135t85.5 84q20 11 41.5 20t44.5 9q15 0 27 -7t12 -26zM60 344q0 -18 11 -30.5t28.5 -20.5t37.5 -12.5t38 -6.5q-4 78 -6 152q-20 -2 -39.5 -6t-35 -13.5t-25 -24.5t-9.5 -38z M289 279q55 9 106 30q-22 31 -46.5 56.5t-56.5 42.5q-1 -32 -2 -64.5t-1 -64.5z" />
<glyph unicode="L" horiz-adv-x="921" d="M981 -68q-11 -72 -49.5 -125.5t-93 -88t-120 -51.5t-131.5 -17q-47 0 -97 12t-100.5 26t-99 26t-92.5 12q-21 0 -44.5 -5t-46 -14t-41.5 -22.5t-30 -30.5l-16 8q4 42 21.5 77t45 61t63 40.5t77.5 14.5h19.5t19.5 -1q-42 100 -69.5 219.5t-43.5 244t-22.5 247.5t-6.5 230 q0 36 1.5 84t6.5 101.5t14.5 107.5t26.5 102t42 86t61 59q19 11 39.5 20t42.5 9q14 0 24.5 -6.5t10.5 -22.5q0 -9 -2.5 -16.5t-5.5 -15.5q-16 -36 -32.5 -70t-27.5 -70q-26 -87 -42.5 -189t-24.5 -213t-9 -228.5t4.5 -234t15.5 -230t24 -217.5q42 -6 85.5 -15.5t88 -19 t90.5 -16.5t94 -7q45 0 90.5 7.5t87 24.5t76.5 45t59 69z" />
<glyph unicode="M" horiz-adv-x="1704" d="M2204 -464q-34 -25 -73.5 -34t-79.5 -9q-137 0 -243.5 40.5t-187 111.5t-137 167t-94 207t-57.5 232t-27 241.5t-3.5 236t13.5 214.5q-18 -27 -44 -86t-57.5 -138t-65.5 -172.5t-67.5 -188.5t-65 -186.5t-56 -166.5t-42 -127.5t-22.5 -70.5q-4 -12 -10.5 -30t-16 -35 t-22 -29t-28.5 -12q-18 0 -30 14.5t-19.5 34.5t-12 40t-6.5 32q-6 42 -11 106t-8.5 142t-5.5 166.5t-3.5 178t-2 176t-1 162t-0.5 135.5v96q-22 -50 -52.5 -127t-66 -173t-74 -206.5t-76 -227.5t-72 -236t-61.5 -231q-3 -10 -7.5 -24.5t-11.5 -27.5t-17.5 -22.5t-25.5 -9.5 q-14 0 -25 9t-18.5 21.5t-12 27t-5.5 26.5q-5 25 -8.5 55t-6 61.5t-4.5 62t-4 56.5q-11 137 -15.5 271t-4.5 270q0 134 4.5 266t13.5 267q3 39 9 87.5t23.5 91.5t51 72t91.5 29q14 0 24 -6.5t10 -22.5v-10q-9 -60 -18 -119.5t-19 -121.5q-24 -200 -40.5 -399.5t-16.5 -401.5 q0 -79 3 -156t11 -155q69 214 121.5 379t92.5 289t67.5 211.5t46.5 146.5t30 94.5t18 55t10 28.5t6 16q15 34 41 61t67 27q28 0 45.5 -14t27.5 -35t13.5 -46t3.5 -46q-2 -155 -9 -306.5t-12 -300.5t-4.5 -296t13.5 -293q40 118 74 222.5t64.5 199.5t59 183t59 174t63.5 172 t73 177q9 18 20 36.5t25 33.5t32 25t40 10q31 0 49 -20t27.5 -48t12.5 -58.5t3 -51.5q0 -92 -6 -203.5t-8.5 -231.5t2.5 -243t27 -238t65 -215t116 -174.5t180.5 -117.5t258.5 -43q23 0 44.5 3.5t41.5 12.5z" />
<glyph unicode="N" horiz-adv-x="1181" d="M1681 -464q-32 -25 -72 -34t-82 -9q-149 0 -262 45t-196.5 123t-139.5 183.5t-90.5 227t-51 252t-20 259.5t3 250t17.5 222q-58 -74 -110 -178t-96.5 -223t-82.5 -244.5t-68.5 -244.5t-54 -223t-39.5 -178q-2 -8 -4.5 -21t-8 -25t-14.5 -20.5t-22 -8.5q-12 0 -23 7.5 t-20 18t-15.5 23t-9.5 23.5q-30 97 -44.5 208.5t-20 226t-5 227.5t0.5 214q0 112 3 224t11 224q3 40 8.5 89t22.5 91t49 70.5t88 28.5q14 0 23.5 -6.5t9.5 -22.5v-8q-13 -119 -24 -233.5t-19.5 -228.5t-13 -229.5t-4.5 -236.5q0 -118 5 -236.5t17 -236.5q37 170 77.5 332 t92.5 317.5t120 303.5t159 290q8 13 20.5 30.5t28 33t32.5 26.5t35 11q22 0 34.5 -20t18 -46.5t6.5 -53.5t1 -42q-7 -94 -16.5 -211t-12.5 -245t3.5 -260t30.5 -255.5t70 -232t121.5 -189.5t184 -128t258.5 -47q21 0 43.5 3.5t42.5 12.5z" />
<glyph unicode="O" horiz-adv-x="1204" d="M1149 496q0 -81 -14.5 -176.5t-44.5 -190.5t-76 -183.5t-109.5 -156t-145 -108.5t-182.5 -41q-100 0 -177.5 37.5t-135.5 100t-98 144.5t-64.5 171t-35.5 179t-11 170q0 85 8 175.5t27.5 180t51.5 175t79.5 160t112 135t149.5 100.5l8 -14q-60 -49 -105.5 -113 t-79 -137.5t-56.5 -154t-36.5 -162t-19.5 -162t-6 -154.5q0 -69 9.5 -152t31.5 -168t58 -165t88 -142t122 -99.5t160 -37.5q72 0 128.5 35.5t98.5 93.5t71 132t47 150t26 147.5t8 125.5q0 42 -4.5 99.5t-15 122.5t-26.5 134t-40 134.5t-55.5 123.5t-72.5 102t-91 69.5 t-111 25.5q-54 0 -92 -25.5t-61.5 -65.5t-34 -88.5t-10.5 -94.5v-13.5t2 -13.5l-15 -2q-3 22 -5.5 44.5t-2.5 45.5q0 62 16.5 120.5t49.5 103.5t83.5 72.5t118.5 27.5q95 0 167.5 -41t126 -108t89 -153.5t57.5 -177t31 -178.5t9 -159z" />
<glyph unicode="P" horiz-adv-x="1180" d="M503 -324q0 -28 -31 -28q-20 0 -38 7.5t-33 16.5q-31 17 -54.5 50t-40 76t-28 93.5t-18.5 102.5t-11 103t-5 95q-29 11 -58.5 25t-53 31.5t-38.5 38t-15 43.5q0 18 8.5 32.5t28.5 14.5q17 0 32 -7.5t30 -19.5t31 -27.5t34 -31.5q0 102 7 216.5t25 229t48.5 223.5 t77.5 201l18 -6q-34 -173 -49.5 -346.5t-15.5 -347.5q0 -64 3.5 -126.5t10.5 -124.5q30 -12 67 -19t82 -7q76 0 141.5 23t120 63.5t96.5 95.5t71 118.5t44 132t15 137.5q0 68 -15 138.5t-44.5 137t-72 124.5t-97.5 101.5t-121.5 69t-143.5 25.5q-63 0 -130 -23t-121.5 -64.5 t-90 -99.5t-35.5 -127q0 -27 6.5 -48.5t14 -39.5t14 -33.5t6.5 -31.5q0 -29 -19.5 -48.5t-47.5 -19.5q-26 0 -41 14t-23.5 35t-11 44.5t-2.5 41.5q0 88 41.5 159.5t108.5 127.5q42 36 84.5 63.5t87.5 46t94.5 28t105.5 9.5q130 0 240 -44.5t189.5 -124t124 -189t44.5 -240.5 q0 -135 -47.5 -252.5t-132 -205t-200.5 -137.5t-253 -50q-35 0 -71 4t-71 10q33 -226 120 -446q3 -8 5.5 -16.5t2.5 -16.5z" />
<glyph unicode="Q" horiz-adv-x="1204" d="M1149 496q0 -64 -9 -137.5t-27.5 -149t-47 -150t-67 -141t-88 -122t-110.5 -92.5q87 -58 186 -91.5t199 -33.5q97 0 173 62l10 -19q-63 -57 -139 -95t-162 -38q-123 0 -217.5 45t-162.5 120q-54 -14 -110 -14q-100 0 -177.5 37.5t-135.5 100t-98 144.5t-64.5 171 t-35.5 179t-11 170q0 85 8 175.5t27.5 180t51.5 175t79.5 160t112 135t149.5 100.5l8 -14q-60 -49 -105.5 -113t-79 -137.5t-56.5 -154t-36.5 -162t-19.5 -162t-6 -154.5q0 -68 9.5 -150t31 -166t56 -163.5t85 -141.5t118.5 -100.5t156 -41.5q-52 74 -81.5 162t-36.5 179 l12 6q20 -93 80 -176t145 -148q51 24 91.5 69.5t70.5 103t51.5 123.5t34.5 131.5t19 125.5t6 107q0 42 -4.5 99.5t-15 122.5t-26.5 134t-40 134.5t-55.5 123.5t-72.5 102t-91 69.5t-111 25.5q-54 0 -92 -25.5t-61.5 -65.5t-34 -88.5t-10.5 -94.5v-13.5t2 -13.5l-15 -2 q-3 22 -5.5 44.5t-2.5 45.5q0 62 16.5 120.5t49.5 103.5t83.5 72.5t118.5 27.5q95 0 167.5 -41t126 -108t89 -153.5t57.5 -177t31 -178.5t9 -159z" />
<glyph unicode="R" horiz-adv-x="1221" d="M503 1133q0 -10 -2.5 -17.5t-5.5 -15.5q-17 -40 -36 -78.5t-30 -81.5q-37 -150 -55.5 -303t-24.5 -308q65 -14 116.5 -46t100.5 -76q95 40 172.5 100t132.5 138t85 173t30 203q0 60 -17.5 122.5t-49 121.5t-75 111t-96.5 90.5t-113.5 61t-125.5 22.5q-62 0 -128.5 -23 t-121.5 -64.5t-90 -99.5t-35 -127q0 -27 6.5 -48.5t14 -39.5t14 -33.5t6.5 -31.5q0 -29 -19.5 -48.5t-47.5 -19.5q-26 0 -41 14t-23.5 35t-11 44.5t-2.5 41.5q0 88 42 159t108 128q42 36 84.5 63t88 46t94.5 28.5t105 9.5q80 0 154.5 -20t140 -57t120 -89t93.5 -116 t60.5 -138.5t21.5 -156.5q0 -121 -43.5 -223t-117.5 -182.5t-172 -139t-206 -91.5q11 -11 21.5 -21t21.5 -21q60 -59 119.5 -125t122.5 -131t130 -124.5t142 -105t159.5 -72.5t181.5 -27q17 0 32.5 1.5t32.5 6.5l5 -20q-44 -23 -93 -33t-100 -10q-106 0 -193 21.5t-161 60.5 t-137 93.5t-121 119.5t-113.5 138.5t-114.5 151.5q-13 17 -25.5 34.5t-24.5 34.5q-36 -6 -71.5 -9.5t-70.5 -4.5q0 -122 6 -241t14 -234l-19 -6q-41 106 -62.5 232t-32.5 254q-26 4 -51 11t-45.5 19.5t-33 31t-12.5 44.5q0 24 12 41.5t31.5 29t42.5 18t46 8.5q-1 28 -1 55.5 v53.5q0 41 0.5 102t5 130t14.5 140.5t27.5 134.5t45 112t67.5 72q15 9 33 16.5t38 7.5q31 0 31 -28zM145 236q0 -14 9 -25t24 -19.5t33.5 -14.5t38.5 -10q-2 34 -3.5 67.5t-3.5 66.5q-17 0 -34.5 -2t-31.5 -9t-23 -19.5t-9 -34.5zM346 158q31 0 61 4t59 11 q-25 34 -53.5 62.5t-65.5 45.5q-1 -31 -1 -61.5v-61.5z" />
<glyph unicode="S" horiz-adv-x="1124" d="M1154 1098q0 -82 -40.5 -153t-105 -123t-143.5 -81.5t-156 -27.5h-16v18q66 14 124.5 48.5t102 84.5t69 112t25.5 130q0 45 -11 85t-34 69t-58.5 46t-84.5 17q-70 0 -142 -21t-139 -59t-125.5 -90t-102 -114t-68.5 -132t-25 -143q0 -78 22.5 -134.5t61 -99t89.5 -72.5 t109 -54.5t118.5 -45.5t118.5 -45t109 -53.5t89.5 -70t61 -96t22.5 -130.5q0 -82 -33.5 -146t-88.5 -107.5t-126 -66t-146 -22.5q-81 0 -150 27.5t-124 74t-96 107t-66 125.5l15 8q30 -53 69 -104.5t88 -92t108.5 -65.5t129.5 -25q57 0 106 16t85 46t56.5 74t20.5 100 q0 82 -35 135t-92 90t-130 63t-149.5 52.5t-149.5 60t-130 84.5t-92 126.5t-35 185.5q0 100 31 188.5t85.5 162.5t128.5 132.5t159.5 99.5t178.5 62.5t187 21.5q67 0 126.5 -16t103 -49.5t69 -86.5t25.5 -126z" />
<glyph unicode="T" horiz-adv-x="929" d="M572 1430q-4 -14 -7.5 -35.5t-7.5 -47.5q73 -6 151.5 -16t153.5 -25.5t143.5 -36t123.5 -46.5l-8 -19q-110 14 -219.5 19.5t-218.5 5.5q-35 0 -70.5 -2t-71.5 -4q-8 -74 -16 -164.5t-14.5 -190.5t-11 -206.5t-6.5 -213t-0.5 -209t7.5 -195t17 -171.5t28 -137 q2 -9 5.5 -18.5t3.5 -18.5q0 -16 -8 -25.5t-25 -9.5q-22 0 -43.5 12t-38.5 23q-30 20 -46 64t-23 95t-8 100t-1 81q0 76 3.5 168t10 193.5t16.5 209t24 213t31.5 206.5t39.5 190q-74 -5 -147.5 -13.5t-143 -20.5t-133 -26.5t-117.5 -32.5q-12 -6 -26 -6q-29 0 -29 29 q0 20 11 41t22 37q17 24 50.5 42.5t77 33t92 24t94.5 16t86.5 9t66.5 2.5q30 0 63 -1.5t68 -3.5q16 50 33 89z" />
<glyph unicode="U" horiz-adv-x="1230" d="M1165 1217q14 0 24.5 -6t10.5 -21q0 -18 -7 -37.5t-17 -39.5t-20 -39t-17 -36q-59 -151 -87 -310.5t-28 -324.5q0 -95 9 -194t30 -196.5t54.5 -191t82.5 -177.5l-20 -6q-97 103 -164 227.5t-102 261.5q-27 -88 -64 -174t-90.5 -154.5t-125 -110.5t-167.5 -42 q-73 0 -129 29.5t-98 79t-70.5 113t-46.5 131.5t-25.5 135.5t-7.5 123.5q0 143 22 288t65.5 284.5t108.5 270t152 245.5l21 -11q-37 -66 -67.5 -144t-54.5 -162.5t-42 -173t-29.5 -176.5t-17.5 -172t-6 -159q0 -46 2.5 -107.5t11.5 -127.5t27 -130t49 -114.5t77 -81.5 t111 -31q64 0 115 22.5t90 61.5t67.5 90.5t47.5 109.5t30.5 119t16.5 119q-6 58 -6 117q0 82 8.5 175.5t26 187.5t44.5 183.5t64 164.5q12 22 25.5 42t30 35.5t37.5 24.5t48 9z" />
<glyph unicode="V" horiz-adv-x="1131" d="M194 1370q-17 -19 -26.5 -49t-14.5 -63t-6.5 -66t-1.5 -57q0 -135 24.5 -265t68.5 -254t104.5 -242t133.5 -229q21 -32 45 -70t46 -80q12 38 24 73.5t23 64.5q29 81 62.5 176t72 195.5t81 203t89 198.5t96 181t102.5 152q15 19 36.5 40.5t46.5 40t52 30.5t54 12 q11 0 23 -5t12 -18q0 -8 -4 -15t-9 -13q-220 -329 -398 -680t-324 -718q19 -45 30.5 -89t11.5 -86q0 -17 -3.5 -38t-12.5 -39.5t-24 -31t-37 -12.5q-20 0 -32 10t-18 24.5t-8 31.5t-2 32q0 37 7.5 81.5t18.5 91.5q-18 27 -38.5 55.5t-41 56t-39 52.5t-32.5 46 q-67 96 -131 197.5t-114 209t-80.5 221t-30.5 235.5q0 115 35 221.5t110 195.5zM587 -199q-3 7 -6.5 13.5t-7.5 14.5q-1 -2 -1 -3.5t-1 -3.5q-4 -15 -9 -32t-9 -35t-6.5 -35.5t-2.5 -32.5q0 -13 4 -27t21 -14q23 0 35 15.5t12 37.5q0 26 -10 52t-19 50z" />
<glyph unicode="W" horiz-adv-x="1764" d="M511 1358q-69 -84 -124.5 -181.5t-95.5 -209t-61 -238t-21 -270.5q0 -68 5 -142.5t17.5 -146t34 -136t55.5 -113.5t82 -77.5t113 -28.5q60 0 106.5 39.5t81.5 103.5q-32 66 -55.5 138t-39 144.5t-23 143.5t-7.5 134q0 29 1.5 73t7.5 92.5t17.5 97.5t31.5 87.5t49.5 63 t72.5 24.5q39 0 67.5 -24t48.5 -61.5t33 -85t20.5 -94t10 -87.5t2.5 -67q0 -57 -7.5 -124t-23 -138.5t-38.5 -144t-54 -139.5q30 -47 65 -86.5t76.5 -68t88.5 -44t100 -15.5q81 0 144 30.5t109 82.5t77.5 122t50.5 149t27 163t8 165q0 116 -21.5 231.5t-63 224t-103 206.5 t-142.5 179t-180.5 141t-216.5 94l20 24q138 -31 253 -97t207.5 -158t162 -205t116 -238t70 -258t23.5 -264q0 -81 -12.5 -167.5t-39.5 -169t-69.5 -156t-102.5 -129t-139.5 -88t-179.5 -32.5q-65 0 -122 18t-106 50.5t-90.5 77.5t-75.5 99q-29 -43 -62 -79t-71 -61.5 t-80.5 -39.5t-89.5 -14q-78 0 -136.5 33.5t-100 88t-68 123t-42 138.5t-21.5 135.5t-6 113.5q0 313 105.5 580.5t311.5 482.5zM654 610q0 -57 6.5 -121t20 -131t33.5 -133.5t48 -128.5q17 53 29 109t20 109.5t11.5 101.5t3.5 86q0 58 -5.5 119t-17.5 111t-31.5 82t-47.5 32 q-16 0 -27.5 -15t-19 -37.5t-12.5 -50.5t-7.5 -54.5t-3 -47.5t-0.5 -31z" />
<glyph unicode="X" horiz-adv-x="1038" d="M1240 1372q6 0 12 -3.5t6 -12.5q0 -8 -4.5 -17t-11.5 -18t-14 -17t-11 -14q-54 -62 -108 -120t-107 -121q-131 -155 -249 -317t-232 -330q137 -217 301 -411t352 -356l-12 -18q-101 61 -197.5 135.5t-188 159t-176.5 178t-161 191.5q-110 -164 -217 -327t-219 -325 l-23 17q102 175 204.5 347.5t209.5 346.5q-114 154 -203 313q-33 59 -67.5 128.5t-62 143t-45.5 148t-18 144.5q0 16 4.5 42t14 50.5t24 42.5t35.5 18q12 0 20 -6.5t13.5 -16.5t8.5 -20.5l5 -17.5q55 -215 145 -425.5t210 -411.5q93 146 189.5 286.5t201.5 277.5 q16 22 39.5 51.5t51.5 62t59 65.5t62.5 61.5t61.5 50.5t56 33q9 5 19.5 8.5t21.5 3.5z" />
<glyph unicode="Y" horiz-adv-x="985" d="M1085 1262q0 -39 -12.5 -80.5t-28.5 -75.5q-42 -97 -95.5 -186.5t-114.5 -176.5q-16 -22 -42.5 -52.5t-57.5 -65.5t-63 -73t-60 -75.5t-48.5 -72t-27.5 -62.5q-7 -25 -7 -52v-50q0 -24 1.5 -68.5t4 -99t7.5 -113.5t11.5 -112t16 -94.5t21.5 -61.5l4 -8t2 -9 q0 -7 -4.5 -11t-10.5 -6t-12 -2.5t-10 -0.5q-22 0 -42.5 4t-39.5 10q-30 10 -47 30t-26 45.5t-11 54t-2 55.5q0 51 4 112t10.5 123.5t15.5 123.5t19 114q-8 18 -29.5 46.5t-48 59t-51.5 58.5t-39 45q-48 58 -96.5 125t-87.5 140.5t-63.5 151.5t-24.5 158q0 59 19.5 112 t62.5 91q9 8 23 19.5t29.5 22t31.5 18t29 7.5q20 0 20 -22v-7t-2 -8q-11 -48 -17 -95t-6 -97q0 -114 26 -212t69 -189t98 -178.5t113 -178.5q37 56 80 119t86 130t83.5 137.5t71.5 142t49.5 143t18.5 141.5q0 26 -3.5 50t-11.5 47v8q0 15 12.5 24t29 14t34 7t27.5 2 q25 0 45.5 -4.5t35.5 -15.5t23 -29.5t8 -46.5z" />
<glyph unicode="Z" horiz-adv-x="1087" d="M1059 -127q-59 -41 -140.5 -75.5t-173 -59.5t-186.5 -39t-180 -14q-33 0 -74.5 3t-84 12t-82.5 24.5t-70 39.5q-11 -10 -21 -18.5t-21 -17.5l-12 22q8 10 14.5 19.5t14.5 18.5q-16 20 -24.5 43t-8.5 52q0 13 5.5 22t19.5 9q5 0 10 -1t10 -3q16 -6 31.5 -12.5t31.5 -11.5 q104 138 198.5 275t182.5 279q58 95 114 185.5t106 183t93.5 189.5t76.5 204v1q-75 3 -152 3q-75 0 -154.5 -3t-160.5 -12.5t-161 -26.5t-156 -45q-5 -2 -10 -3.5t-11 -1.5q-17 0 -22 12.5t-5 26.5q0 23 8 47t19 45q11 23 35 40.5t55 30t66.5 20.5t70.5 12.5t66 6t53 1.5 q50 0 109 -5t121 -14.5t125.5 -23t122.5 -30.5q0 1 0.5 1.5t0.5 1.5q1 6 3.5 15.5t6 17.5t10 14t15.5 6q11 0 22 -8t20.5 -21t17.5 -30t14 -34q42 -16 79 -36l-6 -22q-15 2 -30 3l-30 2q0 -4 0.5 -7t0.5 -6q0 -52 -22 -116t-53 -129.5t-66 -125t-60 -102.5 q-59 -100 -134 -210t-159.5 -220t-176 -215t-182.5 -195q80 -19 164 -24t175 -5q133 0 267.5 13.5t262.5 42.5z" />
<glyph unicode="[" horiz-adv-x="611" d="M722 -322q-35 -15 -90 -30.5t-116.5 -29t-123.5 -24.5t-111 -15q0 -2 0.5 -2.5t0.5 -2.5l-21 -11q-4 10 -5 14q-8 0 -14.5 -0.5t-12.5 -0.5q-27 0 -54 4t-48 15.5t-34.5 32t-13.5 52.5q0 13 3.5 26.5t10.5 24.5t17.5 18t25.5 7h11q17 -3 33.5 -6t33.5 -5 q-16 87 -27.5 194.5t-20 224t-13 236.5t-5.5 234t0.5 215.5t6.5 181.5q2 33 4 80.5t10 97.5q-4 -2 -8 -2.5t-8 -1.5q-4 -2 -15 -2q-15 0 -26 7.5t-18.5 19.5t-11 26t-3.5 27q0 39 20 61t49.5 33t64 14t64.5 3q14 7 28 12.5t28 5.5q12 0 18 -6.5t8 -15.5q44 -3 95 -9.5 t100 -14.5t92.5 -17.5t73.5 -18.5l-8 -16q-94 -14 -185 -30.5t-183 -35.5q-9 -55 -18.5 -110.5t-17.5 -112.5q-15 -119 -26 -227.5t-17.5 -212t-9 -204t-1.5 -204t5.5 -212.5t11.5 -228q109 -16 219 -26.5t222 -18.5z" />
<glyph unicode="\" horiz-adv-x="788" d="M74 1299l124 29l490 -1530l-18 -2z" />
<glyph unicode="]" horiz-adv-x="611" d="M-97 -308q111 8 219.5 18t217.5 26q7 168 11 324t2 311.5t-13 316t-33 337.5q-8 57 -17.5 112.5t-19.5 110.5q-91 19 -182.5 35.5t-184.5 30.5l-8 16q30 9 73.5 18.5t92.5 17.5t99.5 14.5t94.5 9.5q3 9 9 15.5t18 6.5q13 0 27.5 -5.5t28.5 -12.5q29 0 63.5 -3t64.5 -14 t50 -33t20 -61q0 -13 -3.5 -27t-11 -26t-18.5 -19.5t-26 -7.5q-11 0 -15 2q-10 2 -16 4q8 -50 10 -97.5t4 -80.5q3 -112 2.5 -259.5t-8.5 -316.5t-24.5 -350.5t-44.5 -361.5q21 3 41.5 6t41.5 7h11q15 0 25.5 -7t17.5 -18t10.5 -24.5t3.5 -26.5q0 -32 -13.5 -52.5t-34.5 -32 t-48 -15.5t-54 -4q-7 0 -14.5 0.5t-15.5 0.5q-1 -3 -1 -6.5t-1 -7.5l-21 11v5q-50 4 -111.5 15t-123 24.5t-116 29t-89.5 30.5z" />
<glyph unicode="^" horiz-adv-x="655" d="M605 826l-12 -11l-265 210l-266 -210l-12 11l282 353z" />
<glyph unicode="_" horiz-adv-x="500" d="M0 -150h500v-72h-500v72z" />
<glyph unicode="`" horiz-adv-x="500" d="M401 638q-98 46 -174.5 105.5t-138.5 144.5l128 86q17 -51 38 -94t45.5 -81.5t53 -74.5t59.5 -72z" />
<glyph unicode="a" horiz-adv-x="735" d="M522 524q0 -11 -8 -19.5t-19 -8.5q-9 0 -19 5.5t-22.5 12.5t-29 12.5t-37.5 5.5q-49 0 -87.5 -30.5t-65 -75.5t-40.5 -96t-14 -92q0 -29 5 -56.5t17.5 -50t34.5 -36t56 -13.5q36 0 69 13.5t62 35.5q1 32 10.5 67.5t24.5 70t34.5 65.5t40.5 55l13 -8q-11 -34 -16 -70 t-5 -71q0 -36 6 -68t21 -55.5t41 -37t67 -13.5q50 0 92 23t74 58l8 -4q-18 -35 -47 -67t-64.5 -57.5t-75.5 -40.5t-79 -15q-55 0 -90 31.5t-48 79.5q-42 -42 -93.5 -70.5t-108.5 -28.5q-42 0 -74.5 15.5t-54.5 41.5t-33.5 61.5t-11.5 74.5q0 45 14.5 92.5t40 93.5t60.5 87 t76.5 72t87.5 49t94 18q11 0 27 -2.5t31 -8.5t25.5 -17t10.5 -28z" />
<glyph unicode="b" horiz-adv-x="703" d="M722 1239q0 -69 -19.5 -136.5t-53.5 -131t-80.5 -121t-100.5 -106t-113 -88t-118 -65.5l-7 15q74 35 141.5 99.5t119 145t82 169.5t30.5 174q0 17 -2.5 35t-10 33t-20.5 24.5t-34 9.5q-59 0 -109 -40t-90.5 -106.5t-71.5 -152.5t-52 -177t-31.5 -180t-10.5 -163 q0 -39 4.5 -86.5t16 -95.5t30 -93.5t47 -80.5t67.5 -56.5t91 -21.5q33 0 56.5 13t38 35t21.5 50t7 57q0 45 -12.5 95t-38 91t-64.5 68t-92 27q-15 0 -30.5 -2.5t-30.5 -7.5l-6 10q37 28 80.5 47.5t91.5 19.5q51 0 91 -22t67.5 -57t42 -80.5t14.5 -91.5q0 -69 -23.5 -129 t-65.5 -104.5t-100.5 -69.5t-128.5 -25q-60 0 -105.5 21.5t-79.5 57.5t-57 83.5t-37 100t-20 105.5t-6 101q0 88 15.5 192t46 208.5t77 202t108 172.5t138.5 120t170 45q65 0 96 -37.5t31 -99.5z" />
<glyph unicode="c" horiz-adv-x="582" d="M682 143q-26 -43 -67.5 -76.5t-91 -57t-103 -36t-102.5 -12.5q-60 0 -111.5 18t-90 52.5t-60 83t-21.5 110.5q0 70 25.5 137t71 119t108 83.5t135.5 31.5q24 0 48 -5t44 -16.5t32.5 -30.5t12.5 -48t-15 -50.5t-38 -35.5t-49.5 -22.5t-50.5 -12.5v14q14 4 30.5 11t30.5 18 t23.5 26t9.5 33q0 14 -6.5 23.5t-16 15.5t-21.5 9t-24 3q-51 0 -91.5 -22.5t-68.5 -59.5t-42.5 -83t-14.5 -93q0 -54 16.5 -96.5t46.5 -72.5t73 -46t96 -16q34 0 72.5 7.5t75 21.5t69.5 34t57 45z" />
<glyph unicode="d" horiz-adv-x="876" d="M976 143q-16 -33 -40 -59.5t-54 -45t-64 -28.5t-71 -10q-78 0 -132.5 38t-91.5 99q-27 -30 -59.5 -59.5t-69 -52t-75.5 -36.5t-78 -14q-47 0 -84 19t-63 50.5t-40 72t-14 84.5q0 66 29.5 133t78 121.5t111.5 88.5t131 34q20 0 35 -4v42q0 29 2 77t8 106.5t15.5 123 t25 128t36.5 121t49 101t64 69.5t81 26q53 0 86 -31t52 -76.5t25.5 -96.5t6.5 -91q0 -52 -10 -120.5t-28 -145t-43 -156.5t-54 -154t-62.5 -137.5t-67.5 -107.5q13 -39 31.5 -72t43.5 -57t57 -37.5t73 -13.5q94 0 154 75zM566 700v-83.5t2.5 -100.5t9 -108.5t19.5 -107.5 q42 81 77 177.5t60.5 198t39.5 202.5t14 191q0 19 -2 55t-11 71.5t-27 62t-49 26.5q-24 0 -43 -22.5t-33 -60t-23.5 -85.5t-16 -100t-10 -103t-5 -94.5t-2 -75t-0.5 -43.5zM314 84q57 0 105.5 22t88.5 58q-19 37 -32.5 79.5t-23 86t-15 87.5t-8.5 85q-12 13 -30 21.5 t-44 8.5q-47 0 -83.5 -25.5t-61.5 -64t-38 -84t-13 -86.5q0 -38 8.5 -72.5t27.5 -60t48.5 -40.5t70.5 -15z" />
<glyph unicode="e" horiz-adv-x="588" d="M688 143q-26 -38 -62.5 -71t-80 -57t-91 -38t-95.5 -14q-68 0 -127 17.5t-103 53.5t-69 90.5t-25 127.5q0 72 26.5 134.5t73 109t109.5 73.5t135 27q34 0 63.5 -9.5t51.5 -28t34.5 -45.5t12.5 -62q0 -42 -17 -74t-45 -56t-63.5 -40t-74 -26t-76 -14.5t-68.5 -4.5h-24 q13 -91 72 -139t163 -48q74 0 144.5 26t127.5 72zM170 266h25q36 0 74 11.5t68.5 34t50.5 55.5t20 75q0 41 -17.5 68t-60.5 27q-44 0 -74.5 -26.5t-49.5 -65t-27.5 -81t-8.5 -75.5v-23z" />
<glyph unicode="f" horiz-adv-x="524" d="M589 580q-18 -16 -49 -31.5t-70 -30t-83.5 -27.5t-88.5 -23q1 -132 -1 -264t-12.5 -263.5t-32 -260.5t-60.5 -253h-25v1016q-25 -4 -46 -5.5t-37 -1.5q-20 0 -38.5 2.5t-33 11t-23.5 23.5t-9 41q0 31 20 48.5t49 17.5t58.5 -2.5t59.5 -5.5v3q0 71 3.5 156.5t17 171.5 t39.5 167t71.5 143.5t113.5 100.5t165 38q51 0 90 -18t65 -49.5t39 -74t13 -90.5q0 -52 -19 -102t-50 -94t-71.5 -80.5t-83.5 -61.5l-10 23q29 26 50.5 60.5t35.5 73.5t20.5 79.5t6.5 79.5q0 34 -8 70t-25 65.5t-45 48t-68 18.5q-57 0 -95.5 -31t-63 -80t-37.5 -111 t-18.5 -123.5t-6 -117.5t-0.5 -94v-90t1 -90q69 0 142.5 5.5t139.5 25.5z" />
<glyph unicode="g" horiz-adv-x="628" d="M583 -307q0 -81 -19 -165.5t-60 -155.5t-105.5 -120t-155.5 -61q-9 -2 -17 -3t-18 -1q-55 0 -104 22t-85.5 59.5t-57.5 87t-21 103.5q0 60 24.5 115t64.5 101.5t90.5 82t103.5 56.5l6 -13q-97 -52 -150 -143t-53 -201q0 -45 12.5 -87.5t37.5 -74.5t62.5 -51.5t86.5 -19.5 q69 0 115 36t73.5 90t39 117.5t11.5 118.5q0 48 -6 94t-12.5 91.5t-12.5 91.5t-6 94q0 34 2.5 70t9.5 73q-44 -52 -101.5 -88.5t-123.5 -36.5q-41 0 -73.5 15.5t-55 41.5t-34 61.5t-11.5 74.5q0 45 14.5 93.5t40 94t60.5 86t76.5 71t87.5 48t94 17.5q24 0 48.5 -6.5 t45 -19.5t33 -33t12.5 -48q0 -20 -9 -36t-23 -28.5t-31 -22.5t-33 -17l-4 12q8 9 11 22t3 25q0 18 -5.5 36.5t-16 34t-26.5 25.5t-36 10q-51 0 -92 -27.5t-69.5 -69.5t-44 -91.5t-15.5 -93.5q0 -29 5.5 -59t18.5 -54t35.5 -39.5t57.5 -15.5q54 0 100 28.5t82 67.5 q14 40 36.5 75.5t55.5 61.5l17 -12q-23 -37 -30 -84t-7 -92q0 -53 8 -106t17.5 -107t17.5 -109t8 -112z" />
<glyph unicode="h" horiz-adv-x="825" d="M915 147q-17 -36 -41.5 -71.5t-54.5 -64t-66 -46.5t-77 -18q-45 0 -78 23.5t-56 62t-38 88.5t-25 103t-16.5 106t-12.5 97q-32 -42 -58 -89t-50 -97.5t-47 -102.5t-49 -103q-6 -11 -12 -23.5t-14 -23t-19 -17.5t-26 -7q-14 0 -23.5 5t-16 12.5t-10 16.5t-5.5 17 q-12 43 -21.5 108t-16.5 139t-10.5 150.5t-3.5 141.5q0 93 12 191.5t37.5 192.5t65 177.5t93.5 146.5t123.5 100t155.5 37q57 0 90 -33.5t33 -95.5q0 -93 -32.5 -178.5t-83 -163.5t-112 -147.5t-118.5 -128.5l-13 10q25 28 53.5 69.5t56 90t52.5 102t44 105.5t30 100.5 t11 88.5q0 21 -4 40t-14 33.5t-25.5 23t-37.5 8.5q-44 0 -82.5 -34t-70.5 -91.5t-56.5 -133.5t-42 -159t-26.5 -168t-9 -162v-105t2.5 -111t9 -123t18.5 -141q44 114 93 223.5t106 200.5q8 13 16.5 26t18.5 23.5t22 17.5t26 7q17 0 27 -9.5t16 -23.5t8.5 -30t4.5 -29 q4 -29 9 -75t12 -98.5t17.5 -105.5t27 -95.5t39.5 -69.5t55 -27q26 0 52 11t50 28t44.5 39t34.5 43z" />
<glyph unicode="i" horiz-adv-x="464" d="M284 807q0 -20 -9 -40t-23.5 -35.5t-33.5 -25.5t-39 -10q-26 0 -41.5 17t-15.5 43q0 20 9 39.5t23.5 34.5t33 24.5t38.5 9.5q26 0 42 -16t16 -41zM564 143q-23 -38 -54.5 -69.5t-69 -55t-80 -36.5t-87.5 -13q-56 0 -99.5 19t-73 52.5t-45 79t-15.5 99.5q0 58 17 110 t47 97.5t70.5 83.5t86.5 68l12 -9q-49 -58 -79.5 -130t-30.5 -150q0 -45 10.5 -86.5t33 -73.5t57.5 -51t85 -19q59 0 112.5 25t96.5 63z" />
<glyph unicode="j" horiz-adv-x="334" d="M299 807q0 -20 -9 -40t-23.5 -35.5t-33 -25.5t-38.5 -10q-26 0 -40.5 17t-14.5 43q0 20 9 39.5t23.5 34.5t33 24.5t38.5 9.5q26 0 40.5 -16t14.5 -41zM324 -334q0 -78 -20.5 -158t-62 -146.5t-104.5 -112.5t-149 -58q-9 -2 -17 -3t-18 -1q-55 0 -104 22t-85.5 59.5 t-57.5 87t-21 103.5q0 60 24.5 115t64.5 101.5t90.5 82t103.5 56.5l6 -13q-97 -52 -150 -143t-53 -201q0 -45 12.5 -87.5t37.5 -74.5t62.5 -51.5t86.5 -19.5q67 0 112.5 37t72.5 93t38.5 121.5t11.5 121.5q0 76 -14.5 149.5t-31.5 147.5t-31.5 148.5t-14.5 152.5q0 52 7 107 t25.5 105t50.5 92t83 68l8 -4q-24 -25 -40 -55.5t-25.5 -64t-13 -68t-3.5 -68.5q0 -90 18.5 -169.5t41 -155.5t41 -153t18.5 -163z" />
<glyph unicode="k" horiz-adv-x="748" d="M848 153q-20 -39 -46 -75t-60 -64t-76 -44.5t-95 -16.5q-96 0 -157.5 44t-103.5 123q-12 -5 -23.5 -8.5t-22.5 -7.5q-2 -17 -4 -31t-4 -26q-2 -13 -5 -28t-10 -28t-19 -21.5t-33 -8.5q-30 0 -42 18.5t-19 40.5q-15 48 -27.5 116t-21.5 140.5t-14 143.5t-5 126 q0 66 4 139.5t14 148.5t27.5 148.5t44.5 140.5t64.5 124.5t88.5 99.5q23 19 52.5 33t58.5 14q12 0 27.5 -5.5t15.5 -20.5q0 -8 -8 -19q-143 -197 -207 -418.5t-64 -469.5q0 -102 9.5 -196.5t25.5 -197.5q4 52 11.5 111.5t21 117.5t34.5 111.5t52 94.5t72.5 65.5t97.5 24.5 q59 0 98 -34.5t39 -94.5q0 -34 -11 -67t-29.5 -62.5t-42 -55.5t-48.5 -45q-36 -28 -79 -54q16 -31 36 -58.5t44 -48t53.5 -32.5t65.5 -12q32 0 62.5 10.5t57.5 28t50.5 41t42.5 49.5zM453 466q-50 0 -82 -31.5t-52.5 -79t-31.5 -104.5t-18 -108q48 19 91.5 46.5t75.5 60.5 t51 70.5t19 78.5q0 26 -13.5 46.5t-39.5 20.5z" />
<glyph unicode="l" horiz-adv-x="528" d="M591 110q-32 -66 -90 -104.5t-132 -38.5q-61 0 -109 37t-84.5 97t-62 135.5t-42 153.5t-24 150.5t-7.5 126.5q0 66 7 145t23 159.5t41.5 156.5t62 134.5t84.5 94t110 35.5q53 0 86 -31t52 -76.5t25.5 -96.5t6.5 -91q0 -108 -25.5 -212.5t-70 -197t-104.5 -168 t-129 -126.5q14 -67 33.5 -130.5t47.5 -113t64.5 -80t83.5 -30.5t81 19t63 56zM179 727q-1 -22 -0.5 -54t3 -70.5t7.5 -82.5t13 -90q67 60 114 133t77 157.5t43.5 178t13.5 194.5q0 13 -0.5 34t-3.5 45t-8.5 48t-15 43.5t-24 32t-34.5 12.5q-38 0 -66.5 -37.5t-49 -95.5 t-34 -128t-21.5 -134.5t-11 -115.5t-3 -70z" />
<glyph unicode="m" horiz-adv-x="1144" d="M1234 143q-18 -36 -43 -69.5t-56 -59.5t-68.5 -41.5t-81.5 -15.5q-62 0 -101 42t-63.5 109.5t-38.5 153t-24 172.5q-23 -41 -42.5 -85.5t-37.5 -93.5t-36 -101t-39 -107q-5 -12 -11 -26.5t-15.5 -28t-22.5 -22.5t-31 -9q-13 0 -23 6t-17.5 14.5t-13 19t-9.5 19.5 q-20 45 -32 92t-20.5 97t-14.5 106t-12 119q-21 -49 -37.5 -93.5t-32 -89t-31 -92t-32.5 -102.5q-4 -13 -8.5 -27.5t-11 -26.5t-17 -20t-26.5 -8q-26 0 -38 16.5t-20 38.5q-12 30 -23 83.5t-20 116.5t-14 130t-5 125q0 56 30 82.5t79 26.5h9t12 -1.5t10.5 -4.5t3.5 -8 q-9 -70 -12 -133t-2 -122.5t6.5 -117t14.5 -117.5q17 57 33.5 109t34.5 103t38.5 103.5t44.5 110.5q13 30 27.5 42t37.5 12q29 0 45.5 -22t21.5 -50q8 -51 14 -104.5t13 -107.5t17 -106.5t26 -101.5q20 52 40 108.5t41 113.5t44.5 112t50.5 104q13 23 29.5 38.5t41.5 15.5 q14 0 25 -6.5t19 -17t13 -23t7 -25.5q5 -29 9.5 -75t12 -98t18.5 -104.5t28 -95t41 -69.5t58 -27q28 0 54 10.5t49 27t42.5 38t35.5 42.5z" />
<glyph unicode="n" horiz-adv-x="815" d="M915 143q-19 -36 -40.5 -69t-48.5 -58t-61 -40t-78 -15q-50 0 -86 24.5t-61.5 65t-41 92.5t-25.5 106t-15 106.5l-9 94.5q-19 -15 -46 -57.5t-55 -99.5t-53.5 -124t-41.5 -132q-3 -14 -9.5 -29t-16 -27.5t-22.5 -21t-29 -8.5q-26 0 -37.5 18t-16.5 41q-29 127 -40.5 243 t-11.5 232q0 28 9.5 48.5t25.5 34t38 20t46 6.5h9.5t12.5 -1.5t10 -4.5t3 -8q-26 -131 -25 -266.5t14 -260.5q11 50 32.5 113.5t50 128t62 123t68.5 98.5q17 19 34.5 32.5t43.5 13.5q15 0 25 -6t16.5 -15t10 -20.5t5.5 -22.5q5 -29 10 -75t12.5 -98t18.5 -104.5t28 -95 t41 -69.5t57 -27q27 0 52.5 10.5t48.5 27t43 38t36 42.5z" />
<glyph unicode="o" horiz-adv-x="662" d="M627 295q0 -70 -23 -130t-65 -104t-100.5 -69t-129.5 -25q-63 0 -113.5 23.5t-86.5 63.5t-55 93.5t-19 114.5q0 51 14.5 97t40.5 85.5t62 73t78 60.5l12 -9q-42 -49 -66 -108t-24 -125q0 -48 14.5 -97.5t42.5 -90.5t70 -67t96 -26q34 0 64 14t52.5 38t36 54.5t13.5 63.5 q0 32 -9.5 62.5t-26.5 57t-41 48t-52 35.5q-16 8 -30.5 12t-31.5 9q-7 1 -15 3.5t-15 6t-12 9.5t-5 15q0 18 13 33t31 26.5t38 18t35 6.5q51 0 90 -26t65 -66t39 -88t13 -92z" />
<glyph unicode="p" horiz-adv-x="727" d="M692 354q0 -56 -21.5 -116.5t-59.5 -110.5t-90.5 -82.5t-114.5 -32.5q-22 0 -44.5 7.5t-41 22t-30 34.5t-11.5 45q0 12 10 20.5t22 8.5q15 0 25.5 -15t23 -32.5t30 -32.5t46.5 -15q36 0 64 24.5t47 59.5t29 74.5t10 69.5q0 38 -10 75t-30.5 65.5t-52 46t-73.5 17.5 q-49 0 -82.5 -33t-55 -84.5t-33 -115.5t-17 -126.5t-6.5 -115.5t-1 -84q0 -145 -8 -261.5t-22 -210.5t-33 -166.5t-41 -129.5h-25v478q0 219 -8 435.5t-8 436.5q0 23 9.5 38.5t25 25.5t35.5 14t41 4q6 0 20 -2.5t14 -11.5q0 -70 -1 -138t-3 -137q14 48 36 99.5t54 93.5 t76 69t103 27q50 0 87.5 -20t63 -53t38.5 -76t13 -89z" />
<glyph unicode="q" horiz-adv-x="648" d="M805 -723q-14 -24 -32.5 -46.5t-42 -40t-50.5 -28t-57 -10.5q-54 0 -94.5 18.5t-70.5 49.5t-49.5 71.5t-31.5 86t-17 92.5t-5 90q0 56 5 120.5t15.5 132t26.5 136t39 131.5q-42 -45 -95 -75t-112 -30q-42 0 -74.5 15.5t-54.5 41.5t-33.5 61.5t-11.5 74.5q0 45 14 93.5 t39.5 94t60.5 86t76 71t87 48t94 17.5q24 0 49 -6.5t45 -19.5t32.5 -33t12.5 -48q0 -20 -9 -36t-22.5 -28.5t-30.5 -22.5t-32 -17l-6 12q9 9 12.5 22t3.5 25q0 18 -5.5 36.5t-16.5 34t-26.5 25.5t-35.5 10q-51 0 -92 -28t-69.5 -70t-44 -91.5t-15.5 -92.5q0 -29 5 -59 t18.5 -54t36 -39.5t57.5 -15.5q57 0 105 31.5t84 73.5q18 36 39 68.5t46 59.5l16 -12q-32 -59 -51.5 -130t-30 -146.5t-14.5 -150.5t-4 -142v-79.5t4 -104t14.5 -111.5t31 -101t53.5 -73.5t83 -28.5q34 0 62 15.5t47 46.5z" />
<glyph unicode="r" horiz-adv-x="720" d="M820 143q-18 -40 -45.5 -72t-59.5 -54.5t-66 -35t-65 -12.5q-58 0 -98 20t-65 54t-36 80t-11 98q0 40 6 83t17 83q2 6 4 14.5t2 14.5q0 5 -6 8q-17 6 -36 11.5t-37.5 12.5t-35 16t-28.5 23q-1 -60 -20 -121.5t-50.5 -118t-73.5 -105.5t-89 -85l-10 10q29 32 53 76t41 92 t26.5 97t9.5 92q0 22 -4 41.5t-8.5 37.5t-8.5 34.5t-4 33.5q0 28 18 44t46 16q15 0 23 -8.5t14 -20.5t14 -25t23 -22q19 -11 48 -16t61 -9l64 -8t57.5 -13.5t41.5 -26t16 -44.5q0 -14 -2.5 -27.5t-7.5 -25.5q-12 -42 -20.5 -85.5t-8.5 -86.5q0 -37 5.5 -67.5t20.5 -52.5 t40 -34t64 -12q56 0 98 27.5t74 72.5z" />
<glyph unicode="s" horiz-adv-x="660" d="M610 215q0 -52 -19 -98t-53 -80t-79.5 -54t-98.5 -20q-35 0 -69 11t-62.5 31.5t-49.5 49.5t-30 64l23 6q26 -32 60.5 -53t78.5 -21q37 0 68.5 16t54 42t35 60.5t12.5 70.5q0 43 -12 71.5t-31.5 48t-43.5 34t-48.5 29.5t-47 34t-38.5 49q-1 -59 -20 -124t-51.5 -126 t-74.5 -114t-89 -89l-8 14q32 34 56 85t39.5 107.5t23 113.5t7.5 104q0 25 -5 49t-5 47q0 28 16.5 43t42.5 15q20 0 32 -9t22 -23.5t20 -33t25.5 -38t39 -38t60.5 -32.5q43 -16 82.5 -36.5t70 -48.5t48.5 -66.5t18 -90.5z" />
<glyph unicode="t" horiz-adv-x="608" d="M712 143q-22 -37 -51.5 -69t-65 -56t-76.5 -37.5t-85 -13.5q-65 0 -114.5 22t-85.5 59.5t-60 87.5t-38 104.5t-20 111.5t-6 109q0 48 4 98.5t12 103.5q-31 -1 -60.5 -1h-58.5q-19 0 -43 1t-45 8t-35 21t-14 41q0 15 5.5 24t15 13.5t22 6t25.5 1.5q15 0 71 -5t135 -11 q25 118 64.5 232t89.5 208h14q-32 -109 -56.5 -220t-36.5 -225q73 -5 150.5 -8.5t151.5 -3.5q109 0 177 2t107 5q46 4 69 8l4 -17q-60 -14 -137 -26.5t-164 -22t-180 -16.5t-185 -11q-2 -20 -2 -40.5v-40.5q0 -48 4.5 -106t16.5 -116.5t32.5 -114t54 -98t80.5 -68.5t111 -26 q59 0 106.5 26t90.5 64z" />
<glyph unicode="u" horiz-adv-x="742" d="M852 143q-17 -35 -46 -67t-65 -57.5t-76 -40.5t-79 -15q-54 0 -89.5 32.5t-52.5 78.5q-39 -39 -86 -64.5t-104 -25.5q-51 0 -90.5 18.5t-65.5 50.5t-39.5 74t-13.5 90q0 54 15 105.5t42 98t64 86.5t80 71l12 -9q-42 -60 -67 -132.5t-25 -147.5q0 -32 7 -68t23 -67 t42.5 -51.5t66.5 -20.5q34 0 65 11.5t60 31.5q-2 12 -3 23.5t-1 23.5q0 48 14 104t37 111.5t52.5 106t60.5 86.5l12 -9q-23 -77 -38 -159t-15 -162q0 -36 4.5 -69.5t19 -60t40.5 -42t69 -15.5q48 0 90 24.5t74 59.5z" />
<glyph unicode="v" horiz-adv-x="682" d="M662 592q0 -51 -12.5 -117t-35.5 -136t-54.5 -137.5t-70 -120.5t-82.5 -85.5t-91 -32.5q-29 0 -54 27t-44.5 64t-33.5 75t-22 59q-21 60 -37 120t-30 122q-1 4 -3 15.5t-5.5 23.5t-8 21.5t-8.5 9.5q-9 0 -20.5 -3t-22.5 -7.5t-21.5 -9.5t-17.5 -9l-8 10q12 12 33 28 t44 29.5t47 23t42 9.5q24 0 40.5 -20.5t29 -55t23 -81.5t22.5 -99l8 -32t15 -55.5t19.5 -66.5t22 -63.5t22.5 -47.5t21 -19q28 0 52.5 20.5t46 54.5t38.5 76.5t29 86.5t18.5 85t6.5 72q0 58 -12 115.5t-37.5 102t-65 69.5t-93.5 17l-3 9q31 13 63 20t64 7q86 0 136 -43 t50 -131z" />
<glyph unicode="w" horiz-adv-x="1049" d="M1016 592q0 -55 -11 -123.5t-31.5 -138.5t-49 -136t-64 -117.5t-76 -82.5t-84.5 -31q-26 0 -50.5 30.5t-47 79.5t-41.5 109t-35 119q-15 -55 -33 -115t-44 -109.5t-61 -81.5t-83 -32q-31 0 -56.5 29t-46 73.5t-37 99t-28 106t-19.5 93.5t-12 62q-1 3 -3 15t-5 25 t-7.5 23.5t-8.5 10.5q-17 0 -39.5 -10.5t-36.5 -18.5l-6 10q14 15 34.5 31.5t44 30.5t48 23t45.5 9q18 0 32.5 -15.5t24.5 -39.5t17.5 -53.5t12 -58t7 -51.5t4.5 -35q1 -8 5 -32.5t10 -57t13.5 -68t16.5 -65t18.5 -49t18.5 -19.5q28 0 52 35.5t43.5 88.5t34.5 113t24 110 q-10 40 -17 71.5t-12 50.5q-2 4 -2 14q0 14 10 26t25 21t31 14t28 5q20 0 33 -18.5t21 -43.5t12.5 -50.5t7.5 -39.5q1 -7 6.5 -39t14.5 -76t19.5 -93.5t22 -91.5t22.5 -69.5t20 -27.5q27 0 50 18.5t41.5 49t32 70t23 82.5t14 85.5t4.5 79.5q0 31 -4 67.5t-13 72.5 t-23.5 69.5t-34.5 58t-46 37.5t-59 9l-2 9q26 13 55 20t60 7q85 0 127.5 -46.5t42.5 -127.5z" />
<glyph unicode="x" horiz-adv-x="740" d="M624 512q0 -27 -25.5 -56t-62 -57t-77 -52.5t-70.5 -41.5q22 -42 44 -85t51 -77.5t67 -56.5t92 -22q51 0 97 19t84 54l6 -4q-18 -36 -46 -67t-62.5 -54t-74.5 -36t-82 -13q-58 0 -101.5 21t-77 56.5t-60 82.5t-50.5 99q-29 -30 -51 -65t-37 -71t-23 -72t-8 -67 q0 -39 6.5 -68.5t15 -49t16.5 -29.5t11 -12l-7 -9q-31 4 -60 21.5t-52 43.5t-37 57.5t-14 63.5q0 41 19 81.5t50.5 78.5t71.5 72t81 63q-22 47 -42 90.5t-39.5 76.5t-38 53t-36.5 20q-6 0 -16 -3.5t-19.5 -8.5t-18 -10t-12.5 -7l-6 10q12 15 32 32t43 30.5t47 22.5t45 9 q30 0 56 -25.5t48 -63t40.5 -79t33.5 -74.5q24 15 47 34t41 41.5t29 49t11 56.5q0 12 -3 24.5t-3 24.5q0 14 11 18.5t22 4.5q15 0 32 -5t30.5 -14.5t22.5 -23t9 -31.5z" />
<glyph unicode="y" horiz-adv-x="682" d="M679 -303q0 -57 -11 -114t-32.5 -110.5t-53.5 -100t-73 -80.5t-91.5 -54t-109.5 -20q-55 0 -104 22t-85.5 59t-57.5 86.5t-21 104.5q0 60 24.5 115t64.5 101t90.5 81t103.5 55l6 -12q-97 -53 -150 -143t-53 -201q0 -45 12.5 -86.5t37.5 -73.5t62.5 -51.5t86.5 -19.5 q68 0 113 37t72 92.5t38.5 120.5t11.5 122q0 61 -9.5 120t-23 118t-27.5 118t-23 119q-21 -25 -45 -47.5t-51.5 -39t-58.5 -26t-65 -9.5q-51 0 -89.5 18.5t-64.5 50.5t-39.5 74t-13.5 90q0 54 15 106t42 98t64 86t80 70l12 -6q-43 -62 -67.5 -133.5t-24.5 -146.5 q0 -32 7 -69t22.5 -68t42 -51.5t65.5 -20.5q47 0 88 20.5t75 52.5q-3 37 -3 74q0 51 7 106t25.5 105.5t50.5 92t83 67.5l8 -4q-24 -25 -40 -55.5t-25.5 -63.5t-13 -67.5t-3.5 -67.5q0 -92 18.5 -171t41 -155t41 -152.5t18.5 -162.5z" />
<glyph unicode="z" horiz-adv-x="648" d="M658 -246q0 -85 -26.5 -156.5t-77 -123t-123.5 -80.5t-165 -29q-18 0 -50 4.5t-63.5 14.5t-55 26t-23.5 39q0 16 12.5 23.5t26.5 7.5q17 0 32.5 -12t35 -26t46 -26t66.5 -12q62 0 106 26t72 67t41 92t13 102q0 65 -11.5 115t-37 90t-65 73.5t-95.5 65.5q-3 3 -7 6.5 t-4 9.5q0 4 22 29.5t49 63.5t49 84t22 91q0 23 -6.5 49t-19.5 48t-32.5 36.5t-44.5 14.5q-31 0 -55.5 -17t-47 -46t-40 -69t-33 -86.5t-42 -90t-99.5 -101.5l-10 10q42 52 67 112t40 118.5t40 107t58 94.5t73 75.5t92 29.5q40 0 75 -18t61.5 -47.5t41.5 -66.5t15 -75 t-13.5 -76.5t-35 -75.5t-48.5 -69.5t-53 -56.5q115 -53 171.5 -148t56.5 -217z" />
<glyph unicode="{" horiz-adv-x="600" d="M560 -583q-39 -12 -80 -12q-35 0 -69 11.5t-64.5 31.5t-55.5 47t-40 58q-32 61 -42.5 126.5t-10.5 133.5q0 78 8 156.5t8 156.5q0 40 -9 87t-29 87.5t-53.5 68t-82.5 29.5v35q48 2 81.5 30.5t54 69.5t29.5 88t9 87q0 78 -8 156.5t-8 156.5q0 68 10 133t41 127 q16 31 41 58t55 47t64 31.5t69 11.5q22 0 42 -4.5t40 -10.5l-4 -16h-18q-20 0 -41.5 -6t-42 -17t-37.5 -26t-29 -33q-23 -38 -28 -84.5t-5 -91.5q0 -78 5.5 -153t5.5 -150q0 -41 -2.5 -81.5t-12.5 -78.5q-11 -52 -34 -98.5t-57.5 -82.5t-80 -58t-102.5 -25q86 -5 142 -43 t89 -96.5t46.5 -131t13.5 -145.5q0 -77 -6.5 -152.5t-6.5 -150.5q0 -45 5 -91.5t30 -86.5q11 -18 28 -33t37 -26t42 -17t43 -6q5 0 9 1t9 1z" />
<glyph unicode="|" horiz-adv-x="328" d="M215 -421h-102v1822h102v-1822z" />
<glyph unicode="}" horiz-adv-x="600" d="M42 -564q5 0 9 -1t9 -1q21 0 43 6t42 17t37 26t28 33q25 40 30 86.5t5 91.5q0 75 -6.5 150.5t-6.5 152.5q0 73 13.5 145.5t46.5 131t89 96.5t142 43q-57 3 -102.5 25t-80 58t-57.5 82.5t-34 98.5q-10 38 -12.5 78.5t-2.5 81.5q0 75 5.5 150t5.5 153q0 45 -5 91.5 t-28 84.5q-12 18 -29 33t-37.5 26t-42 17t-41.5 6h-18l-4 16q20 6 40 10.5t42 4.5q34 0 68.5 -11.5t64.5 -31.5t55 -47t41 -58q31 -62 41 -127t10 -133q0 -78 -8 -156.5t-8 -156.5q0 -40 9 -87t29.5 -88t54 -69.5t81.5 -30.5v-35q-49 -2 -82.5 -29.5t-53.5 -68t-29 -87.5 t-9 -87q0 -78 8 -156.5t8 -156.5q0 -68 -10.5 -133.5t-42.5 -126.5q-15 -31 -40 -58t-55.5 -47t-65 -31.5t-68.5 -11.5q-41 0 -80 12z" />
<glyph unicode="~" d="M63 496q5 45 22 81q14 31 42.5 56.5t78.5 25.5q31 0 63 -9.5t65 -21t65 -21t63 -9.5q23 0 43.5 9.5t36.5 20.5q18 13 33 31l5 -3q-6 -45 -24 -79q-15 -30 -44.5 -54.5t-79.5 -24.5q-31 0 -63.5 9.5t-65.5 21t-65 21t-62 9.5q-23 0 -42.5 -10.5t-33.5 -23.5 q-17 -15 -30 -33z" />
<glyph unicode="&#xa1;" horiz-adv-x="584" d="M384 909q0 -19 -7 -36t-19 -29.5t-29 -19.5t-37 -7q-19 0 -36 7t-29.5 19.5t-19.5 29.5t-7 36t7 36t19.5 29.5t29.5 19.5t36 7t36 -7t29.5 -19.5t19.5 -29.5t7 -36zM352 -313q0 -16 -11 -28t-26 -20t-30.5 -12t-24.5 -4q-18 0 -29.5 7.5t-11.5 41.5q0 38 3 107t8.5 156 t12 186.5t13.5 199t13.5 192.5t12.5 168h26q8 -147 16 -280.5t14 -256.5t10 -236.5t4 -220.5z" />
<glyph unicode="&#xa2;" horiz-adv-x="656" d="M611 482q-42 -69 -96.5 -106.5t-116.5 -49.5l-8 -263h-32l-8 258h-12q-60 0 -111.5 23t-90 62.5t-60 93t-21.5 115.5t20.5 118t57 100.5t87 75t110.5 41.5l-7 247h102l-8 -242q39 -3 71 -13t55.5 -27t36 -39.5t12.5 -49.5q0 -29 -15 -52t-38.5 -38.5t-52.5 -23.5t-57 -7 v14q38 4 66 32t28 76q0 13 -5 28t-17 28.5t-32.5 22.5t-52.5 11l-16 -528h1q51 0 101.5 26.5t98.5 77.5zM178 650q0 -47 11 -89t33 -75.5t53 -57t72 -33.5l-15 508q-36 -15 -64.5 -42t-48.5 -61.5t-30.5 -73t-10.5 -76.5z" />
<glyph unicode="&#xa3;" horiz-adv-x="858" d="M613 459q-15 2 -31.5 2.5t-31.5 0.5q-34 0 -75.5 -2t-86.5 -7q0 -39 -8 -75.5t-25 -73t-44.5 -74.5t-66.5 -79q42 0 82.5 -9.5t80.5 -20.5t79.5 -20.5t80.5 -9.5q20 0 44 4t50 14.5t53 29t53 47.5l14 -7q-25 -60 -52.5 -100.5t-59.5 -65.5t-69 -35.5t-80 -10.5 q-39 0 -73.5 10t-67.5 21.5t-65.5 21.5t-68.5 10q-29 0 -67 -6t-97 -33l-17 31q52 45 94.5 89t73 92t47 103.5t16.5 124.5q0 2 -0.5 5t-0.5 6q-53 -8 -101 -17t-85 -20q-5 -1 -13 -1q-20 0 -30.5 16t-10.5 33q0 28 19.5 43t46.5 21.5t56 7t49 0.5q10 0 22.5 -0.5t26.5 -0.5 q-20 47 -53 92.5t-64.5 94.5t-54.5 104t-23 122q0 81 35.5 152t96.5 124t143 84t175 31q66 0 120 -18.5t92.5 -52t60 -81t21.5 -104.5q0 -80 -39 -136t-98.5 -93.5t-130.5 -57.5t-135 -26v16q51 16 103.5 41t94.5 62.5t68.5 88t26.5 117.5q0 49 -16.5 86.5t-45.5 62.5 t-69 37.5t-87 12.5q-54 0 -104.5 -21.5t-89.5 -64t-62.5 -105t-23.5 -143.5q0 -57 21.5 -112t50 -108.5t55.5 -106t39 -104.5q34 -3 69.5 -7t67.5 -9.5t58.5 -12t44.5 -14.5z" />
<glyph unicode="&#xa4;" horiz-adv-x="594" d="M386 553q15 15 23 35t8 41.5t-8 42t-25 37.5q-15 15 -35.5 23t-41.5 8t-41 -8t-35 -23q-17 -17 -25 -37.5t-8 -42t8 -41.5t23 -35q17 -17 37.5 -25.5t41.5 -8.5t41 8.5t37 25.5zM86 905l113 -114q46 31 102.5 31.5t103.5 -28.5l102 102l67 -64l-104 -104 q28 -48 26 -102.5t-31 -100.5l105 -106l-64 -66l-109 109q-46 -24 -95.5 -23.5t-94.5 26.5l-119 -119l-66 66l119 118q-27 45 -29 95.5t24 97.5l-116 115z" />
<glyph unicode="&#xa5;" horiz-adv-x="893" d="M812 334q-20 2 -42.5 2.5t-42.5 0.5q-56 0 -119 -3.5t-129 -9.5q0 -44 0.5 -95t3.5 -99t8.5 -86.5t16.5 -55.5q5 -7 5 -13q0 -11 -11.5 -13.5t-17.5 -2.5q-17 0 -33 3t-30 8q-24 8 -37 23.5t-20 35.5t-8.5 42t-1.5 43q0 43 3.5 94t9.5 104q-51 -7 -97.5 -15t-88.5 -16 q-5 -1 -9 -1h-8q-27 0 -41.5 15.5t-14.5 32.5q0 28 26.5 42.5t63.5 20.5t76.5 6.5t65.5 0.5h38q4 22 7 42.5t7 40.5q-2 4 -4.5 8.5t-5.5 9.5q-51 -7 -99 -14.5t-90 -16.5q-5 -1 -9 -1h-8q-27 0 -41.5 15.5t-14.5 32.5q0 23 19 37t47.5 21t62.5 9.5t63 2.5q-15 17 -29 32 t-22 26q-38 45 -75.5 97.5t-67.5 109.5t-49 117.5t-19 122.5q0 46 15 87t49 71l17.5 15t22.5 17.5t24.5 14t22.5 5.5q16 0 16 -17q0 -8 -2 -12q-8 -37 -12.5 -74t-4.5 -75q0 -81 17 -151t45 -135t65 -127t77 -125h32.5t33.5 -1q43 63 90 134.5t87 146.5t66 151t26 150 q0 20 -2.5 38.5t-8.5 36.5v6q0 11 9.5 18.5t22.5 11.5t26.5 5.5t21.5 1.5q39 0 63 -15.5t24 -59.5q0 -30 -10 -62.5t-22 -58.5q-32 -75 -73.5 -145t-89.5 -137q-14 -18 -35 -44t-44.5 -56t-47.5 -62t-43 -63q42 -2 85 -5t82.5 -8t74 -11.5t60.5 -15.5l-6 -19 q-20 2 -42.5 2.5t-42.5 0.5q-55 0 -118 -3.5t-129 -9.5q-5 -9 -6 -18q-5 -19 -5.5 -40.5t-0.5 -38.5v-19q45 -2 93 -5t93 -8.5t84.5 -12.5t67.5 -16z" />
<glyph unicode="&#xa6;" horiz-adv-x="328" d="M193 584h-60l-20 817h102zM215 -421h-102l20 764h60z" />
<glyph unicode="&#xa7;" horiz-adv-x="893" d="M764 388q0 -56 -34.5 -108t-100.5 -100q30 -20 56 -46.5t45.5 -60.5t30.5 -76t11 -93q0 -80 -35.5 -147.5t-94 -116t-133 -76t-153.5 -27.5q-65 0 -122.5 13t-100.5 39t-68 66t-25 94q0 48 25 89t66 71t95 47t112 16h12v-21q-104 -10 -154 -65.5t-50 -137.5 q0 -39 15.5 -70.5t44 -53.5t68 -34t86.5 -12q51 0 104 14t96 47.5t70.5 89.5t27.5 140q0 69 -23.5 116.5t-62 81t-88 56.5t-101 43.5t-101 41t-88 49.5t-62 70t-23.5 101q0 41 13.5 75t36 62.5t50 51.5t56.5 43q-27 19 -51 45t-42.5 59t-29.5 73t-11 89q0 80 31 149 t83.5 119.5t122.5 79.5t149 29q51 0 103.5 -12t95.5 -38t70 -66t27 -96q0 -48 -25 -89t-66 -71t-95 -47t-112 -16h-12v21q52 5 90 23t63.5 45.5t38 63.5t12.5 77q0 39 -16.5 69.5t-43.5 51.5t-62 32t-72 11q-51 0 -99.5 -15.5t-86 -50.5t-60 -93t-22.5 -142 q0 -69 22.5 -117.5t59 -83t83 -58.5t95 -45.5t95 -43.5t83 -52t59 -71.5t22.5 -101.5zM659 337q0 49 -15.5 84.5t-41.5 61.5t-61 44.5t-74 35t-80 33t-79 37.5q-49 -31 -71.5 -71.5t-22.5 -85.5q0 -44 15.5 -76t42.5 -56t62.5 -41.5t76 -33.5t83 -32t82.5 -36q37 19 60 56 t23 80z" />
<glyph unicode="&#xa8;" horiz-adv-x="500" d="M206 792q0 -37 -24.5 -60.5t-59.5 -23.5q-33 0 -57.5 23.5t-24.5 60.5q0 16 6.5 31t18 26.5t26 18t31.5 6.5q18 0 33 -6.5t26.5 -18t18 -26.5t6.5 -31zM460 792q0 -37 -24.5 -60.5t-59.5 -23.5q-33 0 -57.5 23.5t-24.5 60.5q0 16 6.5 31t18 26.5t26 18t31.5 6.5 q18 0 33 -6.5t26.5 -18t18 -26.5t6.5 -31z" />
<glyph unicode="&#xa9;" horiz-adv-x="1509" d="M1080 890q0 -81 -70 -127.5t-195 -46.5h-5l-10 24q91 4 136 43t45 105q0 58 -36.5 90t-93.5 32q-54 0 -100 -20.5t-84 -55.5t-67.5 -80t-49.5 -94t-30.5 -98.5t-10.5 -92.5q0 -51 11.5 -103.5t40.5 -95t79.5 -69t127.5 -26.5q53 0 92 12.5t68 32t49.5 42.5t37.5 43 l15 -15q-15 -30 -42 -63.5t-65.5 -62t-87.5 -47t-108 -18.5q-89 0 -153 29t-105.5 77t-61 111.5t-19.5 132.5q0 95 36 183.5t99 157t149 110t186 41.5q51 0 92 -10t70 -29.5t44.5 -47.5t15.5 -64zM80 619q0 93 24 179.5t68 161.5t105.5 136.5t136 105.5t161 68t179.5 24 q140 0 263 -53t214.5 -144.5t144.5 -214.5t53 -263q0 -93 -24 -179.5t-68 -161t-105.5 -136t-136.5 -105.5t-161.5 -68t-179.5 -24q-140 0 -262.5 53t-214 144.5t-144.5 214t-53 262.5zM165 619q0 -122 46 -229.5t126 -187.5t187.5 -126t229.5 -46t229.5 46t187.5 126 t126.5 187.5t46.5 229.5t-46.5 229.5t-126.5 187.5t-187.5 126.5t-229.5 46.5t-229.5 -46.5t-187.5 -126.5t-126 -187.5t-46 -229.5z" />
<glyph unicode="&#xaa;" horiz-adv-x="561" d="M334 1259q0 -7 -5 -12.5t-12 -5.5q-6 0 -12 3.5t-14 7.5t-18.5 7.5t-23.5 3.5q-31 0 -55 -19t-41 -47t-26 -60t-9 -58q0 -18 3 -36t11.5 -32t22.5 -22.5t35 -8.5q23 0 43.5 8.5t38.5 22.5q0 20 6 42t15.5 44t21.5 41.5t26 34.5l9 -4q-7 -22 -10 -44.5t-3 -44.5 q0 -23 3.5 -43t13.5 -35t26 -23.5t42 -8.5q31 0 57.5 14t46.5 37l5 -3q-11 -21 -29 -41.5t-40.5 -36.5t-47.5 -25.5t-50 -9.5q-35 0 -57.5 20t-30.5 50q-26 -27 -58.5 -45t-67.5 -18q-27 0 -47.5 10t-34.5 26.5t-21 39t-7 47.5q0 42 19.5 87.5t52.5 83.5t75.5 63t87.5 25 q7 0 17 -1.5t19.5 -5.5t16 -11t6.5 -17z" />
<glyph unicode="&#xab;" horiz-adv-x="618" d="M192 315q0 -13 6.5 -32t17 -40.5t24 -45.5t27.5 -46q33 -53 76 -112l-18 -13q-77 62 -138 118q-26 24 -50.5 48.5t-44 47.5t-31 42.5t-11.5 32.5t11.5 32.5t31 42t44 47.5t50.5 49q61 55 138 118l23 -12q-44 -59 -78 -112q-15 -23 -29 -46.5t-25 -45.5t-17.5 -41 t-6.5 -32zM432 315q0 -13 6.5 -32t17 -40.5t24 -45.5t27.5 -46q33 -53 76 -112l-18 -13q-77 62 -138 118q-26 24 -50.5 48.5t-44 47.5t-31 42.5t-11.5 32.5t11.5 32.5t31 42t44 47.5t50.5 49q61 55 138 118l23 -12q-44 -59 -78 -112q-15 -23 -29 -46.5t-25 -45.5t-17.5 -41 t-6.5 -32z" />
<glyph unicode="&#xac;" d="M112 741q85 -10 170 -17t174 -10q5 19 18.5 30.5t43.5 11.5q23 0 37 -11.5t17 -31.5q7 0 13.5 0.5t13.5 0.5l4 -18q-8 -5 -16 -8.5t-17 -7.5q-9 -76 -14.5 -154.5t-4.5 -166.5l-17 -4q-38 64 -58.5 139t-22.5 151q-78 -17 -158.5 -23t-145.5 -6q-21 0 -40.5 1t-35 7.5 t-24.5 20t-9 39.5q0 31 20.5 46t51.5 11z" />
<glyph unicode="&#xad;" horiz-adv-x="550" d="M439 444q27 0 40.5 -19t15.5 -39q1 -14 -1.5 -26t-11.5 -21t-25 -14t-43 -5q-47 0 -75 0.5t-52 0.5t-51 0.5t-72 0.5q-21 0 -40.5 2t-35 9t-24.5 21.5t-9 40.5q0 28 17 45.5t43 17.5q3 0 6 -0.5t6 -0.5q75 -8 150 -10.5t162 -2.5z" />
<glyph unicode="&#xae;" horiz-adv-x="1278" d="M80 735q0 115 44 217t119.5 178t177.5 120t218 44t218 -44t177.5 -120t119.5 -178t44 -217q0 -116 -44 -218t-119.5 -178t-177.5 -119.5t-218 -43.5t-218 43.5t-177.5 119.5t-119.5 178t-44 218zM161 735q0 -99 37.5 -186t102.5 -152t152 -102.5t186 -37.5q68 0 130.5 18 t117.5 51q-48 -2 -83 12.5t-61.5 38.5t-47.5 56.5t-40.5 67t-40 69t-45.5 64.5q-18 -2 -27.5 -2.5t-27.5 -0.5q0 -27 -1 -67.5t-2 -83.5t-0.5 -82.5t2.5 -64.5l-18 -3q-10 23 -19.5 62.5t-17 83.5t-13 86.5t-8.5 70.5q-13 2 -26 5.5t-23 9t-16.5 13.5t-6.5 19t6 18.5 t15.5 12t21.5 7t23 3.5v50q0 20 0.5 48.5t4 58.5t11.5 60t22 54t36 38.5t54 14.5q7 0 17 -3t10 -10q0 -4 -2 -7t-4 -7q-8 -17 -17.5 -34.5t-14.5 -36.5q-9 -33 -14.5 -60t-9 -53.5t-5.5 -54t-3 -61.5q16 -3 28.5 -6t23 -7.5t20 -10t20.5 -12.5q51 11 88 27.5t61 42 t35.5 60.5t11.5 83q0 40 -16.5 78.5t-46.5 68.5t-71.5 48t-91.5 18q-26 0 -58.5 -7t-61 -22t-47.5 -37t-19 -52q0 -12 3 -21.5t7 -17.5t7 -15t3 -14q0 -13 -10 -21t-23 -8q-14 0 -22.5 6t-14 15t-7.5 19.5t-2 18.5q0 43 22 78.5t59 60.5t85 38.5t101 13.5q61 0 115.5 -18 t96 -50.5t66 -77t24.5 -98.5q0 -53 -22.5 -94.5t-59.5 -72.5t-85 -51t-100 -30q39 -39 70.5 -89.5t63 -97t67 -80t81.5 -38.5q45 32 82 74.5t63.5 92t40.5 106t14 116.5q0 99 -37.5 186t-102.5 152t-152 102.5t-186 37.5t-186 -37.5t-152 -102.5t-102.5 -152t-37.5 -186z " />
<glyph unicode="&#xaf;" horiz-adv-x="500" d="M65 831h370v-107h-370v107z" />
<glyph unicode="&#xb0;" horiz-adv-x="431" d="M60 1147q0 32 12.5 60.5t33.5 49.5t49.5 33.5t60.5 12.5t60.5 -12.5t49.5 -33.5t33.5 -49.5t12.5 -60.5t-12.5 -60.5t-33.5 -49.5t-49.5 -33.5t-60.5 -12.5t-60.5 12.5t-49.5 33.5t-33.5 49.5t-12.5 60.5zM126 1147q0 -38 26 -64t64 -26t64 26t26 64t-26 64t-64 26 t-64 -26t-26 -64z" />
<glyph unicode="&#xb1;" d="M342 354q-23 42 -38.5 102t-24.5 126q-35 -3 -66.5 -4t-57.5 -1q-21 0 -40.5 1t-35 7.5t-24.5 20t-9 39.5q0 31 20.5 46t51.5 11q39 -5 76 -8.5t73 -6.5q-3 34 -4 64.5t-1 56.5q0 21 1 40.5t7.5 35t20 24.5t39.5 9q31 0 46 -20.5t11 -51.5q-5 -45 -9 -85.5t-7 -80.5 q60 -3 118 -4.5t116 0.5l4 -18q-44 -24 -109.5 -40t-135.5 -26q-3 -60 -4.5 -118t0.5 -115zM603 227q-40 -22 -99 -37.5t-123 -25t-125.5 -13.5t-106.5 -4q-21 0 -40.5 1t-35 7.5t-24.5 20t-9 39.5q0 31 20.5 46t51.5 11q139 -16 256 -22.5t231 -4.5z" />
<glyph unicode="&#xb2;" horiz-adv-x="536" d="M500 478q-52 14 -106 17t-108 3q-21 0 -49.5 -2t-55.5 -4.5t-49 -4.5t-29 -2q-18 0 -28.5 12t-10.5 28t8.5 27.5t22 19t29 11t29.5 3.5h6q56 28 102 68.5t79 89t51.5 103.5t18.5 114q0 40 -10 86t-32.5 85t-59 65t-90.5 26q-27 0 -51 -7.5t-41.5 -21.5t-28 -34.5 t-10.5 -45.5q0 -39 18.5 -66.5t45.5 -55.5q8 -8 12.5 -16t4.5 -19q0 -28 -15.5 -42t-38.5 -14q-25 0 -41.5 17t-26 41t-13 49.5t-3.5 42.5q0 43 14.5 86t44 78t73 57t101.5 22q53 0 95.5 -20.5t72.5 -55.5t46 -81.5t16 -98.5q0 -69 -19 -134.5t-54 -124t-84.5 -109 t-110.5 -89.5q76 -6 148.5 -26t132.5 -56z" />
<glyph unicode="&#xb3;" horiz-adv-x="531" d="M477 642q0 -41 -19.5 -73t-50 -53.5t-68.5 -32.5t-75 -11q-29 0 -60 6t-57 20.5t-43 38.5t-17 60q0 27 10.5 49t28.5 38t42 26.5t50 16.5l3 -15q-30 -17 -47.5 -45t-17.5 -66q0 -50 28.5 -76.5t79.5 -26.5q33 0 55.5 11t37 29t20.5 40t6 45q0 91 -47 136.5t-135 53.5v33 q40 5 74 18.5t59 36.5t39.5 56.5t14.5 78.5q0 36 -11 71t-32.5 63t-53 45t-73.5 17q-27 0 -51 -8t-42 -22.5t-28.5 -35t-10.5 -46.5q0 -39 19 -67t45 -57q8 -9 12.5 -18.5t4.5 -23.5q0 -18 -16 -33t-39 -15q-25 0 -41 16.5t-25 40.5t-12.5 49.5t-3.5 43.5q0 46 16 90.5 t46 79.5t73 56t97 21q49 0 90.5 -19.5t72.5 -52t48.5 -74.5t17.5 -86q0 -42 -15.5 -80t-43.5 -69.5t-67.5 -55t-86.5 -38.5q36 -8 71.5 -24t64 -39t46 -54t17.5 -69z" />
<glyph unicode="&#xb4;" horiz-adv-x="500" d="M88 652q31 36 59 72t53 74.5t46 81.5t38 94l128 -86q-62 -85 -138.5 -144.5t-174.5 -105.5z" />
<glyph unicode="&#xb5;" horiz-adv-x="742" d="M772 143q-8 -38 -23 -71t-38 -57t-53 -38t-67 -14q-58 0 -94 32.5t-53 78.5q-20 -20 -39.5 -38t-40 -31.5t-42.5 -22t-45 -8.5q-18 0 -37.5 5.5t-38 20t-33 39t-21.5 63.5q1 -42 -6 -87.5t-15.5 -89.5t-16 -82t-7.5 -65q0 -56 7 -96t16 -65.5t17 -37.5t10 -13l-5 -10 q-35 0 -65 13t-52 37t-34.5 58t-12.5 76q0 35 18 69.5t39 70.5t37 74.5t13 80.5q-2 26 -8.5 48.5t-13.5 45.5t-12.5 47.5t-5.5 54.5q0 54 14.5 103t40.5 93t62 82t79 69l12 -9q-42 -60 -67 -132.5t-25 -147.5q0 -32 7 -68t23 -67t42.5 -51.5t66.5 -20.5q34 0 65 11.5 t60 31.5q-2 12 -3 23.5t-1 23.5q0 48 14 104t37 111.5t52.5 106t60.5 86.5l12 -9q-12 -38 -21.5 -81t-16.5 -87.5t-11 -88t-4 -83.5q0 -51 9.5 -84t24.5 -51.5t32.5 -25.5t34.5 -7q12 0 26 2.5t29 11.5t30.5 25.5t30.5 44.5z" />
<glyph unicode="&#xb6;" horiz-adv-x="952" d="M785 1246q0 -9 -2.5 -18t-6.5 -19q-14 -40 -23 -90q31 -18 58.5 -41t47.5 -50.5t31.5 -59.5t11.5 -68q0 -12 -2.5 -25.5t-9.5 -24t-19 -17.5t-31 -7q-22 0 -38 14t-16 37q0 18 6.5 38.5t6.5 46.5q0 35 -14.5 64.5t-38.5 52.5q-12 -81 -18.5 -185t-8 -221t1 -240.5 t7.5 -243.5t12 -231t15 -202t15.5 -156t13.5 -94l-21 -9q-29 78 -51 180.5t-38 217t-26 236.5t-15.5 240t-8 226.5t-2.5 196.5q0 19 -0.5 56.5t1 84t6 98t15.5 98.5q-23 8 -47.5 13.5t-47.5 8.5q-17 -69 -26.5 -170t-13 -220t-2 -250t6.5 -260t12.5 -250.5t15.5 -221.5 t16.5 -172t15.5 -103l-21 -9q-17 45 -32 111t-28.5 144.5t-25 165t-20.5 173t-16 168.5t-11 151q-94 11 -163.5 48t-115.5 92t-68.5 123t-22.5 141q0 52 17.5 107.5t57 105t105 89.5t161.5 60q27 6 58 9q14 42 36 69t55 27q35 0 35 -35q0 -9 -2.5 -18t-6.5 -19 q-2 -6 -4.5 -12.5t-4.5 -13.5q47 -6 95 -21q14 52 37.5 85.5t60.5 33.5q35 0 35 -35z" />
<glyph unicode="&#xb7;" horiz-adv-x="584" d="M200 630q0 19 7 36t19.5 29.5t29.5 19.5t36 7t36 -7t29.5 -19.5t19.5 -29.5t7 -36t-7 -36t-19.5 -29.5t-29.5 -19.5t-36 -7t-36 7t-29.5 19.5t-19.5 29.5t-7 36z" />
<glyph unicode="&#xb8;" horiz-adv-x="500" d="M242 -17h34l-16 -68q18 3 37 3q26 0 49 -7t40 -21t27 -34.5t10 -46.5q0 -31 -13.5 -54t-35 -38.5t-48 -23t-53.5 -7.5q-30 0 -57 8.5t-50.5 21t-41.5 28t-30 30.5l13 15q36 -26 66 -35t67 -9q39 0 62.5 15.5t23.5 46.5q0 27 -21.5 40t-49.5 13q-13 0 -25 -2t-18 -4z" />
<glyph unicode="&#xb9;" horiz-adv-x="428" d="M418 567q-29 -21 -63.5 -37t-72 -26.5t-76.5 -16t-75 -5.5q-14 0 -28 2.5t-25 8.5t-17.5 16t-6.5 26q0 12 7 29t23 17q6 0 9 -1q29 -8 59.5 -10t60.5 -4q-17 84 -21.5 166t-4.5 166q0 48 1 94.5t5 94.5q-12 -12 -29.5 -26.5t-37 -28t-39.5 -24.5t-36 -15l-11 18 q22 18 44 44.5t42 56.5t36.5 60t28.5 55q5 10 8.5 22.5t8.5 23.5t12.5 18.5t19.5 7.5q8 0 21.5 -3.5t26.5 -9.5t22.5 -14t9.5 -17q0 -10 -5.5 -43t-14.5 -81t-18.5 -106.5t-18.5 -120t-14.5 -122t-5.5 -111.5q0 -26 0.5 -52.5t1.5 -52.5h13q39 0 78.5 4t76.5 14z" />
<glyph unicode="&#xba;" horiz-adv-x="433" d="M403 1122q0 -44 -14.5 -81.5t-41 -65.5t-63 -43.5t-81.5 -15.5q-40 0 -72 14.5t-54.5 40t-34.5 59t-12 71.5q0 66 34 115.5t88 84.5l8 -6q-26 -31 -41 -68t-15 -79q0 -30 9 -61.5t26.5 -57t43.5 -42t61 -16.5q21 0 40.5 9t33.5 24t22.5 34t8.5 40q0 40 -23 76t-58 53 q-8 3 -19.5 5.5t-22.5 6t-19 8.5t-8 14q0 11 8 20.5t19.5 17t24 11.5t21.5 4q32 0 56.5 -16.5t41 -42t25 -55.5t8.5 -58z" />
<glyph unicode="&#xbb;" horiz-adv-x="618" d="M426 315q0 13 -6.5 32t-17 40.5t-24.5 45t-28 46.5q-33 53 -75 112l18 13q76 -63 137 -118q26 -24 50.5 -49t44 -47.5t31.5 -42t12 -32.5t-12 -32.5t-31.5 -42.5t-44 -47.5t-50.5 -48.5q-61 -56 -137 -118l-23 12q44 58 78 112q15 22 29 46t25 46t17.5 41t6.5 32z M186 315q0 13 -6.5 32t-17 40.5t-24.5 45t-28 46.5q-33 53 -75 112l18 13q76 -63 137 -118q26 -24 50.5 -49t44 -47.5t31.5 -42t12 -32.5t-12 -32.5t-31.5 -42.5t-44 -47.5t-50.5 -48.5q-61 -56 -137 -118l-23 12q44 58 78 112q15 22 29 46t25 46t17.5 41t6.5 32z" />
<glyph unicode="&#xbc;" horiz-adv-x="1029" d="M526 318q28 37 47 79t31.5 90.5t21.5 104t17 120.5q1 11 8.5 21.5t18 17.5t23 9.5t24.5 -0.5t18 -11t8 -18.5t1.5 -22.5t-1.5 -23q-6 -48 -18.5 -97.5t-34.5 -98.5t-53 -94.5t-73 -85.5q57 -12 123 -19.5t126 -8.5q-5 53 -7.5 99t-2.5 91q0 19 0.5 47t2.5 60t7 65.5 t14 63t23 53t34 35.5q11 7 23.5 11.5t26.5 4.5q8 0 18.5 -3.5t10.5 -12.5q0 -10 -4 -18q-25 -53 -39 -115.5t-21 -120.5t-9 -104t-2 -66q0 -33 0.5 -52.5t0.5 -37.5q15 1 26 2.5t21.5 3.5t21.5 4.5t25 5.5l6 -22q-15 -8 -43 -17.5t-57 -17.5q0 -67 2.5 -131.5t9.5 -130.5 l-22 -4q-24 54 -38.5 118.5t-23.5 133.5q-45 -9 -90 -12.5t-90 -3.5q-17 0 -45 0.5t-54.5 6t-45.5 17.5t-19 36q0 6 2.5 15.5t8.5 18t16 13.5t25 1h1zM418 567q-29 -21 -63.5 -37t-72 -26.5t-76.5 -16t-75 -5.5q-14 0 -28 2.5t-25 8.5t-17.5 16t-6.5 26q0 12 7 29t23 17 q6 0 9 -1q29 -8 59.5 -10t60.5 -4q-17 84 -21.5 166t-4.5 166q0 48 1 94.5t5 94.5q-12 -12 -29.5 -26.5t-37 -28t-39.5 -24.5t-36 -15l-11 18q22 18 44 44.5t42 56.5t36.5 60t28.5 55q5 10 8.5 22.5t8.5 23.5t12.5 18.5t19.5 7.5q8 0 21.5 -3.5t26.5 -9.5t22.5 -14t9.5 -17 q0 -10 -5.5 -43t-14.5 -81t-18.5 -106.5t-18.5 -120t-14.5 -122t-5.5 -111.5q0 -26 0.5 -52.5t1.5 -52.5h13q39 0 78.5 4t76.5 14zM816 1294q14 0 20 -12t6 -20q0 -9 -16 -40.5t-37.5 -69t-42.5 -73t-30 -53.5q-50 -93 -92 -179.5t-80 -170.5t-72 -169t-67.5 -176 t-67.5 -190.5t-71 -212.5l-28 6q38 143 84 289.5t95 285.5t98.5 264t95.5 225q8 18 21.5 47t30.5 62t36.5 66t39.5 60t40 44t37 17z" />
<glyph unicode="&#xbd;" horiz-adv-x="1084" d="M418 567q-29 -21 -63.5 -37t-72 -26.5t-76.5 -16t-75 -5.5q-14 0 -28 2.5t-25 8.5t-17.5 16t-6.5 26q0 12 7 29t23 17q6 0 9 -1q29 -8 59.5 -10t60.5 -4q-17 84 -21.5 166t-4.5 166q0 48 1 94.5t5 94.5q-12 -12 -29.5 -26.5t-37 -28t-39.5 -24.5t-36 -15l-11 18 q22 18 44 44.5t42 56.5t36.5 60t28.5 55q5 10 8.5 22.5t8.5 23.5t12.5 18.5t19.5 7.5q8 0 21.5 -3.5t26.5 -9.5t22.5 -14t9.5 -17q0 -10 -5.5 -43t-14.5 -81t-18.5 -106.5t-18.5 -120t-14.5 -122t-5.5 -111.5q0 -26 0.5 -52.5t1.5 -52.5h13q39 0 78.5 4t76.5 14zM816 1294 q14 0 20 -12t6 -20q0 -9 -16 -40.5t-37.5 -69t-42.5 -73t-30 -53.5q-50 -93 -92 -179.5t-80 -170.5t-72 -169t-67.5 -176t-67.5 -190.5t-71 -212.5l-28 6q38 143 84 289.5t95 285.5t98.5 264t95.5 225q8 18 21.5 47t30.5 62t36.5 66t39.5 60t40 44t37 17zM1038 -33 q-52 14 -106 17t-108 3q-21 0 -49.5 -2t-55.5 -4.5t-49 -4.5t-29 -2q-18 0 -28.5 12t-10.5 28t8.5 27.5t22 19t29 11t29.5 3.5h6q56 28 102 68.5t79 89t51.5 103.5t18.5 114q0 40 -10 86t-32.5 85t-59 65t-90.5 26q-27 0 -51 -7.5t-41.5 -21.5t-28 -34.5t-10.5 -45.5 q0 -39 18.5 -66.5t45.5 -55.5q8 -8 12.5 -16t4.5 -19q0 -28 -15.5 -42t-38.5 -14q-25 0 -41.5 17t-26 41t-13 49.5t-3.5 42.5q0 43 14.5 86t44 78t73 57t101.5 22q53 0 95.5 -20.5t72.5 -55.5t46 -81.5t16 -98.5q0 -69 -19 -134.5t-54 -124t-84.5 -109t-110.5 -89.5 q76 -6 148.5 -26t132.5 -56z" />
<glyph unicode="&#xbe;" horiz-adv-x="1121" d="M908 1294q14 0 20 -12t6 -20q0 -9 -16 -40.5t-37.5 -69t-42.5 -73t-30 -53.5q-50 -93 -92 -179.5t-80 -170.5t-72 -169t-67.5 -176t-67.5 -190.5t-71 -212.5l-28 6q38 143 84 289.5t95 285.5t98.5 264t95.5 225q8 18 21.5 47t30.5 62t36.5 66t39.5 60t40 44t37 17z M477 642q0 -41 -19.5 -73t-50 -53.5t-68.5 -32.5t-75 -11q-29 0 -60 6t-57 20.5t-43 38.5t-17 60q0 27 10.5 49t28.5 38t42 26.5t50 16.5l3 -15q-30 -17 -47.5 -45t-17.5 -66q0 -50 28.5 -76.5t79.5 -26.5q33 0 55.5 11t37 29t20.5 40t6 45q0 91 -47 136.5t-135 53.5v33 q40 5 74 18.5t59 36.5t39.5 56.5t14.5 78.5q0 36 -11 71t-32.5 63t-53 45t-73.5 17q-27 0 -51 -8t-42 -22.5t-28.5 -35t-10.5 -46.5q0 -39 19 -67t45 -57q8 -9 12.5 -18.5t4.5 -23.5q0 -18 -16 -33t-39 -15q-25 0 -41 16.5t-25 40.5t-12.5 49.5t-3.5 43.5q0 46 16 90.5 t46 79.5t73 56t97 21q49 0 90.5 -19.5t72.5 -52t48.5 -74.5t17.5 -86q0 -42 -15.5 -80t-43.5 -69.5t-67.5 -55t-86.5 -38.5q36 -8 71.5 -24t64 -39t46 -54t17.5 -69zM618 318q28 37 47 79t31.5 90.5t21.5 104t17 120.5q1 11 8.5 21.5t18 17.5t23 9.5t24.5 -0.5t18 -11 t8 -18.5t1.5 -22.5t-1.5 -23q-6 -48 -18.5 -97.5t-34.5 -98.5t-53 -94.5t-73 -85.5q57 -12 123 -19.5t126 -8.5q-5 53 -7.5 99t-2.5 91q0 19 0.5 47t2.5 60t7 65.5t14 63t23 53t34 35.5q11 7 23.5 11.5t26.5 4.5q8 0 18.5 -3.5t10.5 -12.5q0 -10 -4 -18q-25 -53 -39 -115.5 t-21 -120.5t-9 -104t-2 -66q0 -33 0.5 -52.5t0.5 -37.5q15 1 26 2.5t21.5 3.5t21.5 4.5t25 5.5l6 -22q-15 -8 -43 -17.5t-57 -17.5q0 -67 2.5 -131.5t9.5 -130.5l-22 -4q-24 54 -38.5 118.5t-23.5 133.5q-45 -9 -90 -12.5t-90 -3.5q-17 0 -45 0.5t-54.5 6t-45.5 17.5t-19 36 q0 6 2.5 15.5t8.5 18t16 13.5t25 1h1z" />
<glyph unicode="&#xbf;" horiz-adv-x="741" d="M453 898q0 -19 -7 -36t-19.5 -29.5t-29.5 -19.5t-36 -7q-20 0 -36.5 7t-29.5 19.5t-20 29.5t-7 36t7 36t20 29.5t29.5 19.5t36.5 7q19 0 36 -7t29.5 -19.5t19.5 -29.5t7 -36zM364 695q11 -26 15 -52t4 -52q0 -55 -17 -105t-43 -97.5t-55.5 -93.5t-55.5 -91.5t-43 -92.5 t-17 -96q0 -66 21 -119.5t58 -90.5t88 -57t112 -20q42 0 80.5 15.5t68 43t47 64.5t17.5 80q0 65 -27.5 114t-70.5 94q-12 14 -19.5 28t-7.5 33q0 30 12.5 52t46.5 22q39 0 66 -25.5t44 -62.5t24.5 -77.5t7.5 -70.5q0 -77 -24.5 -151.5t-71 -133t-113 -94.5t-149.5 -36 q-69 0 -131.5 26t-109.5 73t-74.5 113t-27.5 146t24 142t59.5 115t77 100.5t77 98t59.5 108t24 130.5q0 5 -0.5 10t-0.5 10h25z" />
<glyph unicode="&#xc0;" horiz-adv-x="1144" d="M55 0zM1059 1075q0 -23 -8 -54.5t-23.5 -61t-38.5 -50t-53 -20.5q-16 0 -20.5 11t-4.5 24q0 42 7 83t7 85q0 43 -7 84.5t-25.5 73.5t-52 51.5t-85.5 19.5q-75 0 -138.5 -35t-116 -95t-95 -139.5t-75.5 -168.5t-56.5 -182t-39 -180t-22.5 -162.5t-7 -129.5q0 -48 4.5 -102 t16 -106.5t30.5 -100.5t48 -84.5t69.5 -58t94.5 -21.5q79 0 140 31t108.5 83t82 119.5t60.5 139.5q-5 35 -8 70.5t-3 70.5q0 24 2 59.5t7 76t14 82t22 79t31 66t42 43.5q16 9 32.5 16.5t35.5 7.5q14 0 22.5 -6t8.5 -20q0 -9 -2.5 -17.5t-6.5 -17.5q-37 -96 -54 -197 t-17 -204q0 -36 4.5 -87t12.5 -108t20 -117t27.5 -114t34 -98t40.5 -70l-18 -6q-88 89 -147.5 200.5t-87.5 233.5q-47 -111 -114 -203q-30 -39 -67 -71.5t-79 -56.5t-88.5 -37t-97.5 -13q-74 0 -130.5 26t-97.5 69t-68.5 99t-43.5 116.5t-23 121.5t-7 113q0 116 21.5 245 t62.5 255.5t101.5 242t138.5 203.5t173 140t205 52q67 0 122.5 -21.5t95.5 -61t62 -94.5t22 -122zM865 1434q-98 46 -174.5 105.5t-138.5 144.5l128 86q17 -51 38 -94t45.5 -81.5t53 -74.5t59.5 -72z" />
<glyph unicode="&#xc1;" horiz-adv-x="1144" d="M55 0zM1059 1075q0 -23 -8 -54.5t-23.5 -61t-38.5 -50t-53 -20.5q-16 0 -20.5 11t-4.5 24q0 42 7 83t7 85q0 43 -7 84.5t-25.5 73.5t-52 51.5t-85.5 19.5q-75 0 -138.5 -35t-116 -95t-95 -139.5t-75.5 -168.5t-56.5 -182t-39 -180t-22.5 -162.5t-7 -129.5q0 -48 4.5 -102 t16 -106.5t30.5 -100.5t48 -84.5t69.5 -58t94.5 -21.5q79 0 140 31t108.5 83t82 119.5t60.5 139.5q-5 35 -8 70.5t-3 70.5q0 24 2 59.5t7 76t14 82t22 79t31 66t42 43.5q16 9 32.5 16.5t35.5 7.5q14 0 22.5 -6t8.5 -20q0 -9 -2.5 -17.5t-6.5 -17.5q-37 -96 -54 -197 t-17 -204q0 -36 4.5 -87t12.5 -108t20 -117t27.5 -114t34 -98t40.5 -70l-18 -6q-88 89 -147.5 200.5t-87.5 233.5q-47 -111 -114 -203q-30 -39 -67 -71.5t-79 -56.5t-88.5 -37t-97.5 -13q-74 0 -130.5 26t-97.5 69t-68.5 99t-43.5 116.5t-23 121.5t-7 113q0 116 21.5 245 t62.5 255.5t101.5 242t138.5 203.5t173 140t205 52q67 0 122.5 -21.5t95.5 -61t62 -94.5t22 -122zM636 1448q31 36 59 72t53 74.5t46 81.5t38 94l128 -86q-62 -85 -138.5 -144.5t-174.5 -105.5z" />
<glyph unicode="&#xc2;" horiz-adv-x="1144" d="M55 0zM1059 1075q0 -23 -8 -54.5t-23.5 -61t-38.5 -50t-53 -20.5q-16 0 -20.5 11t-4.5 24q0 42 7 83t7 85q0 43 -7 84.5t-25.5 73.5t-52 51.5t-85.5 19.5q-75 0 -138.5 -35t-116 -95t-95 -139.5t-75.5 -168.5t-56.5 -182t-39 -180t-22.5 -162.5t-7 -129.5q0 -48 4.5 -102 t16 -106.5t30.5 -100.5t48 -84.5t69.5 -58t94.5 -21.5q79 0 140 31t108.5 83t82 119.5t60.5 139.5q-5 35 -8 70.5t-3 70.5q0 24 2 59.5t7 76t14 82t22 79t31 66t42 43.5q16 9 32.5 16.5t35.5 7.5q14 0 22.5 -6t8.5 -20q0 -9 -2.5 -17.5t-6.5 -17.5q-37 -96 -54 -197 t-17 -204q0 -36 4.5 -87t12.5 -108t20 -117t27.5 -114t34 -98t40.5 -70l-18 -6q-88 89 -147.5 200.5t-87.5 233.5q-47 -111 -114 -203q-30 -39 -67 -71.5t-79 -56.5t-88.5 -37t-97.5 -13q-74 0 -130.5 26t-97.5 69t-68.5 99t-43.5 116.5t-23 121.5t-7 113q0 116 21.5 245 t62.5 255.5t101.5 242t138.5 203.5t173 140t205 52q67 0 122.5 -21.5t95.5 -61t62 -94.5t22 -122zM515 1448q31 36 58 70.5t53 71t51.5 78t53.5 92.5h60q28 -51 53.5 -92.5t51.5 -78t53 -71t58 -70.5l-11 -14q-35 18 -63.5 36t-56 37.5t-55.5 41.5t-60 49q-32 -27 -60 -49 t-55.5 -42t-56.5 -37.5t-63 -35.5z" />
<glyph unicode="&#xc3;" horiz-adv-x="1144" d="M55 0zM1059 1075q0 -23 -8 -54.5t-23.5 -61t-38.5 -50t-53 -20.5q-16 0 -20.5 11t-4.5 24q0 42 7 83t7 85q0 43 -7 84.5t-25.5 73.5t-52 51.5t-85.5 19.5q-75 0 -138.5 -35t-116 -95t-95 -139.5t-75.5 -168.5t-56.5 -182t-39 -180t-22.5 -162.5t-7 -129.5q0 -48 4.5 -102 t16 -106.5t30.5 -100.5t48 -84.5t69.5 -58t94.5 -21.5q79 0 140 31t108.5 83t82 119.5t60.5 139.5q-5 35 -8 70.5t-3 70.5q0 24 2 59.5t7 76t14 82t22 79t31 66t42 43.5q16 9 32.5 16.5t35.5 7.5q14 0 22.5 -6t8.5 -20q0 -9 -2.5 -17.5t-6.5 -17.5q-37 -96 -54 -197 t-17 -204q0 -36 4.5 -87t12.5 -108t20 -117t27.5 -114t34 -98t40.5 -70l-18 -6q-88 89 -147.5 200.5t-87.5 233.5q-47 -111 -114 -203q-30 -39 -67 -71.5t-79 -56.5t-88.5 -37t-97.5 -13q-74 0 -130.5 26t-97.5 69t-68.5 99t-43.5 116.5t-23 121.5t-7 113q0 116 21.5 245 t62.5 255.5t101.5 242t138.5 203.5t173 140t205 52q67 0 122.5 -21.5t95.5 -61t62 -94.5t22 -122zM549 1502q3 47 18 85q6 16 15 31.5t22 27.5t30 19.5t39 7.5q25 0 49 -11t47.5 -23.5t47.5 -23.5t48 -11q25 0 39.5 8.5t22.5 19.5q9 12 12 28h34q-5 -47 -21 -83 q-14 -32 -39.5 -57.5t-68.5 -25.5q-24 0 -49.5 11t-50 23.5t-46.5 23.5t-40 11q-24 0 -39 -10t-23 -21q-10 -13 -13 -30h-34z" />
<glyph unicode="&#xc4;" horiz-adv-x="1144" d="M55 0zM1059 1075q0 -23 -8 -54.5t-23.5 -61t-38.5 -50t-53 -20.5q-16 0 -20.5 11t-4.5 24q0 42 7 83t7 85q0 43 -7 84.5t-25.5 73.5t-52 51.5t-85.5 19.5q-75 0 -138.5 -35t-116 -95t-95 -139.5t-75.5 -168.5t-56.5 -182t-39 -180t-22.5 -162.5t-7 -129.5q0 -48 4.5 -102 t16 -106.5t30.5 -100.5t48 -84.5t69.5 -58t94.5 -21.5q79 0 140 31t108.5 83t82 119.5t60.5 139.5q-5 35 -8 70.5t-3 70.5q0 24 2 59.5t7 76t14 82t22 79t31 66t42 43.5q16 9 32.5 16.5t35.5 7.5q14 0 22.5 -6t8.5 -20q0 -9 -2.5 -17.5t-6.5 -17.5q-37 -96 -54 -197 t-17 -204q0 -36 4.5 -87t12.5 -108t20 -117t27.5 -114t34 -98t40.5 -70l-18 -6q-88 89 -147.5 200.5t-87.5 233.5q-47 -111 -114 -203q-30 -39 -67 -71.5t-79 -56.5t-88.5 -37t-97.5 -13q-74 0 -130.5 26t-97.5 69t-68.5 99t-43.5 116.5t-23 121.5t-7 113q0 116 21.5 245 t62.5 255.5t101.5 242t138.5 203.5t173 140t205 52q67 0 122.5 -21.5t95.5 -61t62 -94.5t22 -122zM717 1588q0 -37 -24.5 -60.5t-59.5 -23.5q-33 0 -57.5 23.5t-24.5 60.5q0 16 6.5 31t18 26.5t26 18t31.5 6.5q18 0 33 -6.5t26.5 -18t18 -26.5t6.5 -31zM971 1588 q0 -37 -24.5 -60.5t-59.5 -23.5q-33 0 -57.5 23.5t-24.5 60.5q0 16 6.5 31t18 26.5t26 18t31.5 6.5q18 0 33 -6.5t26.5 -18t18 -26.5t6.5 -31z" />
<glyph unicode="&#xc5;" horiz-adv-x="1144" d="M1059 1075q0 -23 -8 -54.5t-23.5 -61t-38.5 -50t-53 -20.5q-16 0 -20.5 11t-4.5 24q0 42 7 83t7 85q0 43 -7 84.5t-25.5 73.5t-52 51.5t-85.5 19.5q-75 0 -138.5 -35t-116 -95t-95 -139.5t-75.5 -168.5t-56.5 -182t-39 -180t-22.5 -162.5t-7 -129.5q0 -48 4.5 -102 t16 -106.5t30.5 -100.5t48 -84.5t69.5 -58t94.5 -21.5q79 0 140 31t108.5 83t82 119.5t60.5 139.5q-5 35 -8 70.5t-3 70.5q0 24 2 59.5t7 76t14 82t22 79t31 66t42 43.5q16 9 32.5 16.5t35.5 7.5q14 0 22.5 -6t8.5 -20q0 -9 -2.5 -17.5t-6.5 -17.5q-37 -96 -54 -197 t-17 -204q0 -36 4.5 -87t12.5 -108t20 -117t27.5 -114t34 -98t40.5 -70l-18 -6q-88 89 -147.5 200.5t-87.5 233.5q-47 -111 -114 -203q-30 -39 -67 -71.5t-79 -56.5t-88.5 -37t-97.5 -13q-74 0 -130.5 26t-97.5 69t-68.5 99t-43.5 116.5t-23 121.5t-7 113q0 116 21.5 245 t62.5 255.5t101.5 242t138.5 203.5t173 140t205 52q67 0 122.5 -21.5t95.5 -61t62 -94.5t22 -122zM608 1584q0 32 12 60t33 49t49 33t60 12t60 -12t49 -33t33 -49t12 -60t-12 -60t-33 -49t-49 -33t-60 -12t-60 12t-49 33t-33 49t-12 60zM689 1584q0 -30 21.5 -51.5 t51.5 -21.5t51.5 21.5t21.5 51.5t-21.5 51.5t-51.5 21.5t-51.5 -21.5t-21.5 -51.5z" />
<glyph unicode="&#xc6;" horiz-adv-x="1977" d="M986 -362q-67 85 -108 174.5t-63 186.5q-24 -59 -59 -114.5t-82.5 -98.5t-109 -69t-139.5 -26q-74 0 -132 23t-101.5 62t-74 90t-49 107t-27 114t-8.5 110q0 120 28 253.5t79.5 264.5t124 250t160.5 210t190 145t212 54q65 0 119 -20.5t94 -57.5t63 -89.5t26 -115.5 q54 63 121.5 116t143 91.5t155.5 60t160 21.5q64 0 122 -13.5t101.5 -44t69 -80.5t25.5 -122t-23.5 -128.5t-63.5 -100.5t-93.5 -76t-113.5 -54t-123.5 -34.5t-123.5 -17.5v18q66 23 136.5 61t128 89.5t95 117t37.5 144.5q0 86 -47 137t-135 51q-69 0 -137 -21.5t-130 -60 t-115.5 -90.5t-92.5 -113.5t-61.5 -129t-22.5 -136.5q0 -75 31 -138t81 -112t114 -82.5t130 -50.5v-18q-31 -13 -67.5 -35t-73 -51t-70 -65t-59.5 -76t-41.5 -83.5t-15.5 -88.5q0 -116 57.5 -176t173.5 -60q65 0 124.5 17.5t111 50t94.5 78.5t75 102l13 -6q-27 -72 -78 -137 t-118 -114t-146.5 -77.5t-163.5 -28.5q-65 0 -120 19t-95 56t-63 91.5t-23 126.5q0 143 85 251.5t253 180.5q-70 0 -129.5 19t-106.5 54t-79.5 84.5t-47.5 111.5q-17 -44 -30 -85.5t-23 -91t-15 -111t-5 -144.5q0 -54 4 -125.5t14 -146.5t27.5 -146.5t43.5 -124.5zM976 725 q0 42 8 82.5t23 81.5q-17 0 -21.5 11t-4.5 24q0 42 7 83t7 85q0 43 -7 84.5t-25.5 73.5t-52 51.5t-85.5 19.5q-75 0 -141.5 -35t-124 -95t-106.5 -139.5t-88 -168.5t-69 -182t-50.5 -180t-30.5 -162.5t-10 -129.5q0 -48 4.5 -102t16 -106.5t30.5 -100.5t48 -84.5t69.5 -58 t94.5 -21.5q64 0 115 26t92 70t72 102.5t54 123.5q-7 47 -10 94.5t-3 97.5q0 24 2 59.5t7 76t14 82t22 79t31 66t42 43.5q16 9 33 16.5t38 7.5q-1 6 -1 12v13z" />
<glyph unicode="&#xc7;" horiz-adv-x="1130" d="M465 -243q-108 16 -186.5 69t-129.5 131t-75 175.5t-24 204.5q0 110 23 230t68 236t110.5 220.5t150.5 184t188.5 126t223.5 46.5q75 0 137 -21.5t106.5 -62.5t68.5 -100.5t24 -136.5q0 -72 -27 -135t-72.5 -115.5t-105.5 -94.5t-126 -70.5t-134.5 -44t-130.5 -15.5h-6 v20q90 11 174.5 55.5t150 112.5t105 154t39.5 180q0 51 -13.5 92.5t-40 71t-66.5 45.5t-93 16q-107 0 -193.5 -45.5t-153.5 -121t-115.5 -173.5t-80 -204t-46.5 -212.5t-15 -197.5q0 -101 22 -195.5t71.5 -167.5t130 -116.5t196.5 -43.5q54 0 104 20t94 53t79.5 75t60.5 86 l12 -6q-20 -61 -59.5 -120.5t-93 -106.5t-119.5 -76t-140 -29q-32 0 -60 3l-12 -54q18 3 37 3q26 0 49 -7t40 -21t27 -34.5t10 -46.5q0 -31 -13.5 -54t-35 -38.5t-48 -23t-53.5 -7.5q-30 0 -57 8.5t-50.5 21t-41.5 28t-30 30.5l13 15q36 -26 66 -35t67 -9q39 0 62.5 15.5 t23.5 46.5q0 27 -21.5 40t-49.5 13q-13 0 -25 -2t-18 -4z" />
<glyph unicode="&#xc8;" horiz-adv-x="1041" d="M40 0zM1091 1120q0 -72 -23.5 -128.5t-63.5 -100.5t-93.5 -76t-113.5 -54t-123.5 -34.5t-123.5 -17.5v18q66 23 136.5 61t128 89.5t95 117t37.5 144.5q0 86 -47 137t-135 51q-69 0 -137 -21.5t-130 -60t-115.5 -90.5t-92.5 -113.5t-61.5 -129t-22.5 -136.5q0 -75 31 -138 t81 -112t114 -82.5t130 -50.5v-18q-32 -13 -68 -35t-72.5 -51t-70 -65t-59.5 -76t-41.5 -83.5t-15.5 -88.5q0 -116 57.5 -176t173.5 -60q65 0 124.5 17.5t111 50t94.5 78.5t75 102l13 -6q-27 -72 -78 -137t-118 -114t-146.5 -77.5t-163.5 -28.5q-65 0 -120 19t-95 56 t-63 91.5t-23 126.5q0 143 85 251.5t253 180.5q-84 0 -153 27t-118.5 76.5t-76.5 118.5t-27 153q0 82 30 162t82.5 153t123 135t152 107.5t170 71.5t175.5 26q64 0 122 -13.5t101.5 -44t69 -80.5t25.5 -122zM862 1440q-98 46 -174.5 105.5t-138.5 144.5l128 86 q17 -51 38 -94t45.5 -81.5t53 -74.5t59.5 -72z" />
<glyph unicode="&#xc9;" horiz-adv-x="1041" d="M40 0zM1091 1120q0 -72 -23.5 -128.5t-63.5 -100.5t-93.5 -76t-113.5 -54t-123.5 -34.5t-123.5 -17.5v18q66 23 136.5 61t128 89.5t95 117t37.5 144.5q0 86 -47 137t-135 51q-69 0 -137 -21.5t-130 -60t-115.5 -90.5t-92.5 -113.5t-61.5 -129t-22.5 -136.5q0 -75 31 -138 t81 -112t114 -82.5t130 -50.5v-18q-32 -13 -68 -35t-72.5 -51t-70 -65t-59.5 -76t-41.5 -83.5t-15.5 -88.5q0 -116 57.5 -176t173.5 -60q65 0 124.5 17.5t111 50t94.5 78.5t75 102l13 -6q-27 -72 -78 -137t-118 -114t-146.5 -77.5t-163.5 -28.5q-65 0 -120 19t-95 56 t-63 91.5t-23 126.5q0 143 85 251.5t253 180.5q-84 0 -153 27t-118.5 76.5t-76.5 118.5t-27 153q0 82 30 162t82.5 153t123 135t152 107.5t170 71.5t175.5 26q64 0 122 -13.5t101.5 -44t69 -80.5t25.5 -122zM633 1454q31 36 59 72t53 74.5t46 81.5t38 94l128 -86 q-62 -85 -138.5 -144.5t-174.5 -105.5z" />
<glyph unicode="&#xca;" horiz-adv-x="1041" d="M40 0zM1091 1120q0 -72 -23.5 -128.5t-63.5 -100.5t-93.5 -76t-113.5 -54t-123.5 -34.5t-123.5 -17.5v18q66 23 136.5 61t128 89.5t95 117t37.5 144.5q0 86 -47 137t-135 51q-69 0 -137 -21.5t-130 -60t-115.5 -90.5t-92.5 -113.5t-61.5 -129t-22.5 -136.5q0 -75 31 -138 t81 -112t114 -82.5t130 -50.5v-18q-32 -13 -68 -35t-72.5 -51t-70 -65t-59.5 -76t-41.5 -83.5t-15.5 -88.5q0 -116 57.5 -176t173.5 -60q65 0 124.5 17.5t111 50t94.5 78.5t75 102l13 -6q-27 -72 -78 -137t-118 -114t-146.5 -77.5t-163.5 -28.5q-65 0 -120 19t-95 56 t-63 91.5t-23 126.5q0 143 85 251.5t253 180.5q-84 0 -153 27t-118.5 76.5t-76.5 118.5t-27 153q0 82 30 162t82.5 153t123 135t152 107.5t170 71.5t175.5 26q64 0 122 -13.5t101.5 -44t69 -80.5t25.5 -122zM512 1454q31 36 58 70.5t53 71t51.5 78t53.5 92.5h60 q28 -51 53.5 -92.5t51.5 -78t53 -71t58 -70.5l-11 -14q-35 18 -63.5 36t-56 37.5t-55.5 41.5t-60 49q-32 -27 -60 -49t-55.5 -42t-56.5 -37.5t-63 -35.5z" />
<glyph unicode="&#xcb;" horiz-adv-x="1041" d="M40 0zM1091 1120q0 -72 -23.5 -128.5t-63.5 -100.5t-93.5 -76t-113.5 -54t-123.5 -34.5t-123.5 -17.5v18q66 23 136.5 61t128 89.5t95 117t37.5 144.5q0 86 -47 137t-135 51q-69 0 -137 -21.5t-130 -60t-115.5 -90.5t-92.5 -113.5t-61.5 -129t-22.5 -136.5q0 -75 31 -138 t81 -112t114 -82.5t130 -50.5v-18q-32 -13 -68 -35t-72.5 -51t-70 -65t-59.5 -76t-41.5 -83.5t-15.5 -88.5q0 -116 57.5 -176t173.5 -60q65 0 124.5 17.5t111 50t94.5 78.5t75 102l13 -6q-27 -72 -78 -137t-118 -114t-146.5 -77.5t-163.5 -28.5q-65 0 -120 19t-95 56 t-63 91.5t-23 126.5q0 143 85 251.5t253 180.5q-84 0 -153 27t-118.5 76.5t-76.5 118.5t-27 153q0 82 30 162t82.5 153t123 135t152 107.5t170 71.5t175.5 26q64 0 122 -13.5t101.5 -44t69 -80.5t25.5 -122zM714 1594q0 -37 -24.5 -60.5t-59.5 -23.5q-33 0 -57.5 23.5 t-24.5 60.5q0 16 6.5 31t18 26.5t26 18t31.5 6.5q18 0 33 -6.5t26.5 -18t18 -26.5t6.5 -31zM968 1594q0 -37 -24.5 -60.5t-59.5 -23.5q-33 0 -57.5 23.5t-24.5 60.5q0 16 6.5 31t18 26.5t26 18t31.5 6.5q18 0 33 -6.5t26.5 -18t18 -26.5t6.5 -31z" />
<glyph unicode="&#xcc;" horiz-adv-x="664" d="M0 0zM459 -313q0 -35 -35 -35q-22 0 -42.5 11t-37.5 22q-5 3 -8.5 6.5l-7.5 7.5q-64 -8 -121 -13t-97 -5q-27 0 -59 2.5t-60.5 13t-47.5 31.5t-19 59q0 28 17.5 52t48.5 24q3 0 7 -1t7 -1q63 -14 132 -23.5t139 -15.5q-9 42 -13 87.5t-5.5 88.5t-1 80t0.5 61 q0 73 2 160.5t6.5 183t12 196t18 200t25 194t33.5 178.5q-85 -12 -165 -28.5t-147 -36.5q-6 -2 -11 -2h-10q-15 0 -27.5 7t-20.5 18t-12.5 25t-4.5 28q0 30 14.5 50t37.5 33t52.5 19t59.5 9t57.5 3h48.5q31 0 72 -1.5t87 -5.5q5 18 11 34.5t12 32.5l21 -9q-4 -20 -9 -61 q52 -5 106 -11.5t103 -16.5t90 -22.5t68 -27.5l-10 -16q-25 3 -50.5 3.5t-49.5 0.5q-60 0 -128 -5t-140 -13q-5 -67 -10 -150.5t-8.5 -178.5t-5.5 -197t-2 -205.5t2 -204.5t7.5 -193t14 -172.5t20.5 -142.5q27 -1 53.5 -1.5t52.5 -0.5q53 0 107 2.5t106 13.5l10 -16 q-21 -15 -53.5 -28t-72 -25t-85 -22.5t-92.5 -18.5q3 -8 5 -15.5t2 -15.5zM515 1495q-98 46 -174.5 105.5t-138.5 144.5l128 86q17 -51 38 -94t45.5 -81.5t53 -74.5t59.5 -72z" />
<glyph unicode="&#xcd;" horiz-adv-x="664" d="M0 0zM459 -313q0 -35 -35 -35q-22 0 -42.5 11t-37.5 22q-5 3 -8.5 6.5l-7.5 7.5q-64 -8 -121 -13t-97 -5q-27 0 -59 2.5t-60.5 13t-47.5 31.5t-19 59q0 28 17.5 52t48.5 24q3 0 7 -1t7 -1q63 -14 132 -23.5t139 -15.5q-9 42 -13 87.5t-5.5 88.5t-1 80t0.5 61 q0 73 2 160.5t6.5 183t12 196t18 200t25 194t33.5 178.5q-85 -12 -165 -28.5t-147 -36.5q-6 -2 -11 -2h-10q-15 0 -27.5 7t-20.5 18t-12.5 25t-4.5 28q0 30 14.5 50t37.5 33t52.5 19t59.5 9t57.5 3h48.5q31 0 72 -1.5t87 -5.5q5 18 11 34.5t12 32.5l21 -9q-4 -20 -9 -61 q52 -5 106 -11.5t103 -16.5t90 -22.5t68 -27.5l-10 -16q-25 3 -50.5 3.5t-49.5 0.5q-60 0 -128 -5t-140 -13q-5 -67 -10 -150.5t-8.5 -178.5t-5.5 -197t-2 -205.5t2 -204.5t7.5 -193t14 -172.5t20.5 -142.5q27 -1 53.5 -1.5t52.5 -0.5q53 0 107 2.5t106 13.5l10 -16 q-21 -15 -53.5 -28t-72 -25t-85 -22.5t-92.5 -18.5q3 -8 5 -15.5t2 -15.5zM286 1509q31 36 59 72t53 74.5t46 81.5t38 94l128 -86q-62 -85 -138.5 -144.5t-174.5 -105.5z" />
<glyph unicode="&#xce;" horiz-adv-x="664" d="M0 0zM459 -313q0 -35 -35 -35q-22 0 -42.5 11t-37.5 22q-5 3 -8.5 6.5l-7.5 7.5q-64 -8 -121 -13t-97 -5q-27 0 -59 2.5t-60.5 13t-47.5 31.5t-19 59q0 28 17.5 52t48.5 24q3 0 7 -1t7 -1q63 -14 132 -23.5t139 -15.5q-9 42 -13 87.5t-5.5 88.5t-1 80t0.5 61 q0 73 2 160.5t6.5 183t12 196t18 200t25 194t33.5 178.5q-85 -12 -165 -28.5t-147 -36.5q-6 -2 -11 -2h-10q-15 0 -27.5 7t-20.5 18t-12.5 25t-4.5 28q0 30 14.5 50t37.5 33t52.5 19t59.5 9t57.5 3h48.5q31 0 72 -1.5t87 -5.5q5 18 11 34.5t12 32.5l21 -9q-4 -20 -9 -61 q52 -5 106 -11.5t103 -16.5t90 -22.5t68 -27.5l-10 -16q-25 3 -50.5 3.5t-49.5 0.5q-60 0 -128 -5t-140 -13q-5 -67 -10 -150.5t-8.5 -178.5t-5.5 -197t-2 -205.5t2 -204.5t7.5 -193t14 -172.5t20.5 -142.5q27 -1 53.5 -1.5t52.5 -0.5q53 0 107 2.5t106 13.5l10 -16 q-21 -15 -53.5 -28t-72 -25t-85 -22.5t-92.5 -18.5q3 -8 5 -15.5t2 -15.5zM165 1509q31 36 58 70.5t53 71t51.5 78t53.5 92.5h60q28 -51 53.5 -92.5t51.5 -78t53 -71t58 -70.5l-11 -14q-35 18 -63.5 36t-56 37.5t-55.5 41.5t-60 49q-32 -27 -60 -49t-55.5 -42t-56.5 -37.5 t-63 -35.5z" />
<glyph unicode="&#xcf;" horiz-adv-x="664" d="M0 0zM459 -313q0 -35 -35 -35q-22 0 -42.5 11t-37.5 22q-5 3 -8.5 6.5l-7.5 7.5q-64 -8 -121 -13t-97 -5q-27 0 -59 2.5t-60.5 13t-47.5 31.5t-19 59q0 28 17.5 52t48.5 24q3 0 7 -1t7 -1q63 -14 132 -23.5t139 -15.5q-9 42 -13 87.5t-5.5 88.5t-1 80t0.5 61 q0 73 2 160.5t6.5 183t12 196t18 200t25 194t33.5 178.5q-85 -12 -165 -28.5t-147 -36.5q-6 -2 -11 -2h-10q-15 0 -27.5 7t-20.5 18t-12.5 25t-4.5 28q0 30 14.5 50t37.5 33t52.5 19t59.5 9t57.5 3h48.5q31 0 72 -1.5t87 -5.5q5 18 11 34.5t12 32.5l21 -9q-4 -20 -9 -61 q52 -5 106 -11.5t103 -16.5t90 -22.5t68 -27.5l-10 -16q-25 3 -50.5 3.5t-49.5 0.5q-60 0 -128 -5t-140 -13q-5 -67 -10 -150.5t-8.5 -178.5t-5.5 -197t-2 -205.5t2 -204.5t7.5 -193t14 -172.5t20.5 -142.5q27 -1 53.5 -1.5t52.5 -0.5q53 0 107 2.5t106 13.5l10 -16 q-21 -15 -53.5 -28t-72 -25t-85 -22.5t-92.5 -18.5q3 -8 5 -15.5t2 -15.5zM367 1649q0 -37 -24.5 -60.5t-59.5 -23.5q-33 0 -57.5 23.5t-24.5 60.5q0 16 6.5 31t18 26.5t26 18t31.5 6.5q18 0 33 -6.5t26.5 -18t18 -26.5t6.5 -31zM621 1649q0 -37 -24.5 -60.5t-59.5 -23.5 q-33 0 -57.5 23.5t-24.5 60.5q0 16 6.5 31t18 26.5t26 18t31.5 6.5q18 0 33 -6.5t26.5 -18t18 -26.5t6.5 -31z" />
<glyph unicode="&#xd0;" horiz-adv-x="1237" d="M1177 461q0 -101 -21 -202.5t-62 -194t-101 -172t-137.5 -138t-173 -92t-206.5 -33.5q-99 0 -177.5 26.5t-133 78.5t-83.5 128t-29 175q0 35 3 70t11 69l16 2v-14q-1 -91 25.5 -177.5t79 -154t131 -108.5t180.5 -41q101 0 179.5 39.5t136.5 105.5t97.5 151.5t63.5 178 t34.5 184t10.5 170.5q0 78 -14.5 170.5t-44 185.5t-75 180t-107.5 154t-141.5 107.5t-176.5 40.5q-37 0 -76 -12.5t-77 -34t-71.5 -50.5t-58.5 -63.5t-40 -72t-15 -75.5q0 -28 7 -50t15.5 -40.5t15.5 -35t7 -33.5q0 -29 -19.5 -48.5t-47.5 -19.5q-23 0 -37 10t-21.5 25.5 t-10.5 34.5t-3 37q0 43 12 86t32 83.5t46 77t53 68.5q66 75 149 118.5t185 43.5q125 0 223.5 -41t173 -111.5t126.5 -164t84.5 -197.5t47.5 -213t15 -211zM704 484q-20 2 -42.5 2.5t-42.5 0.5q-63 0 -135 -4t-146 -12q-8 -88 -9.5 -171t0.5 -164t6.5 -161.5t9.5 -164.5 l-16 -7q-25 75 -42 157t-27.5 166t-15 168t-5.5 165q-45 -6 -87 -13t-79 -15q-5 -1 -9 -1h-8q-27 0 -41.5 15.5t-14.5 32.5q0 28 26.5 42.5t63.5 20.5t76.5 6.5t65.5 0.5h7q1 44 3.5 99.5t9 114t17 116.5t28 108.5t41.5 89.5t57 59q17 9 35 17.5t38 8.5q31 0 31 -28 q0 -10 -2.5 -18.5t-5.5 -16.5q-17 -45 -38.5 -86.5t-33.5 -87.5q-27 -105 -44.5 -198t-28.5 -180q47 -2 98.5 -5t100 -8t92 -12.5t73.5 -17.5z" />
<glyph unicode="&#xd1;" horiz-adv-x="1181" d="M150 0zM1681 -464q-32 -25 -72 -34t-82 -9q-149 0 -262 45t-196.5 123t-139.5 183.5t-90.5 227t-51 252t-20 259.5t3 250t17.5 222q-58 -74 -110 -178t-96.5 -223t-82.5 -244.5t-68.5 -244.5t-54 -223t-39.5 -178q-2 -8 -4.5 -21t-8 -25t-14.5 -20.5t-22 -8.5 q-12 0 -23 7.5t-20 18t-15.5 23t-9.5 23.5q-30 97 -44.5 208.5t-20 226t-5 227.5t0.5 214q0 112 3 224t11 224q3 40 8.5 89t22.5 91t49 70.5t88 28.5q14 0 23.5 -6.5t9.5 -22.5v-8q-13 -119 -24 -233.5t-19.5 -228.5t-13 -229.5t-4.5 -236.5q0 -118 5 -236.5t17 -236.5 q37 170 77.5 332t92.5 317.5t120 303.5t159 290q8 13 20.5 30.5t28 33t32.5 26.5t35 11q22 0 34.5 -20t18 -46.5t6.5 -53.5t1 -42q-7 -94 -16.5 -211t-12.5 -245t3.5 -260t30.5 -255.5t70 -232t121.5 -189.5t184 -128t258.5 -47q21 0 43.5 3.5t42.5 12.5zM426 1433 q3 47 18 85q6 16 15 31.5t22 27.5t30 19.5t39 7.5q25 0 49 -11t47.5 -23.5t47.5 -23.5t48 -11q25 0 39.5 8.5t22.5 19.5q9 12 12 28h34q-5 -47 -21 -83q-14 -32 -39.5 -57.5t-68.5 -25.5q-24 0 -49.5 11t-50 23.5t-46.5 23.5t-40 11q-24 0 -39 -10t-23 -21q-10 -13 -13 -30 h-34z" />
<glyph unicode="&#xd2;" horiz-adv-x="1204" d="M55 0zM1149 496q0 -81 -14.5 -176.5t-44.5 -190.5t-76 -183.5t-109.5 -156t-145 -108.5t-182.5 -41q-100 0 -177.5 37.5t-135.5 100t-98 144.5t-64.5 171t-35.5 179t-11 170q0 85 8 175.5t27.5 180t51.5 175t79.5 160t112 135t149.5 100.5l8 -14q-60 -49 -105.5 -113 t-79 -137.5t-56.5 -154t-36.5 -162t-19.5 -162t-6 -154.5q0 -69 9.5 -152t31.5 -168t58 -165t88 -142t122 -99.5t160 -37.5q72 0 128.5 35.5t98.5 93.5t71 132t47 150t26 147.5t8 125.5q0 42 -4.5 99.5t-15 122.5t-26.5 134t-40 134.5t-55.5 123.5t-72.5 102t-91 69.5 t-111 25.5q-54 0 -92 -25.5t-61.5 -65.5t-34 -88.5t-10.5 -94.5v-13.5t2 -13.5l-15 -2q-3 22 -5.5 44.5t-2.5 45.5q0 62 16.5 120.5t49.5 103.5t83.5 72.5t118.5 27.5q95 0 167.5 -41t126 -108t89 -153.5t57.5 -177t31 -178.5t9 -159zM744 1392q-98 46 -174.5 105.5 t-138.5 144.5l128 86q17 -51 38 -94t45.5 -81.5t53 -74.5t59.5 -72z" />
<glyph unicode="&#xd3;" horiz-adv-x="1204" d="M55 0zM1149 496q0 -81 -14.5 -176.5t-44.5 -190.5t-76 -183.5t-109.5 -156t-145 -108.5t-182.5 -41q-100 0 -177.5 37.5t-135.5 100t-98 144.5t-64.5 171t-35.5 179t-11 170q0 85 8 175.5t27.5 180t51.5 175t79.5 160t112 135t149.5 100.5l8 -14q-60 -49 -105.5 -113 t-79 -137.5t-56.5 -154t-36.5 -162t-19.5 -162t-6 -154.5q0 -69 9.5 -152t31.5 -168t58 -165t88 -142t122 -99.5t160 -37.5q72 0 128.5 35.5t98.5 93.5t71 132t47 150t26 147.5t8 125.5q0 42 -4.5 99.5t-15 122.5t-26.5 134t-40 134.5t-55.5 123.5t-72.5 102t-91 69.5 t-111 25.5q-54 0 -92 -25.5t-61.5 -65.5t-34 -88.5t-10.5 -94.5v-13.5t2 -13.5l-15 -2q-3 22 -5.5 44.5t-2.5 45.5q0 62 16.5 120.5t49.5 103.5t83.5 72.5t118.5 27.5q95 0 167.5 -41t126 -108t89 -153.5t57.5 -177t31 -178.5t9 -159zM515 1406q31 36 59 72t53 74.5t46 81.5 t38 94l128 -86q-62 -85 -138.5 -144.5t-174.5 -105.5z" />
<glyph unicode="&#xd4;" horiz-adv-x="1204" d="M55 0zM1149 496q0 -81 -14.5 -176.5t-44.5 -190.5t-76 -183.5t-109.5 -156t-145 -108.5t-182.5 -41q-100 0 -177.5 37.5t-135.5 100t-98 144.5t-64.5 171t-35.5 179t-11 170q0 85 8 175.5t27.5 180t51.5 175t79.5 160t112 135t149.5 100.5l8 -14q-60 -49 -105.5 -113 t-79 -137.5t-56.5 -154t-36.5 -162t-19.5 -162t-6 -154.5q0 -69 9.5 -152t31.5 -168t58 -165t88 -142t122 -99.5t160 -37.5q72 0 128.5 35.5t98.5 93.5t71 132t47 150t26 147.5t8 125.5q0 42 -4.5 99.5t-15 122.5t-26.5 134t-40 134.5t-55.5 123.5t-72.5 102t-91 69.5 t-111 25.5q-54 0 -92 -25.5t-61.5 -65.5t-34 -88.5t-10.5 -94.5v-13.5t2 -13.5l-15 -2q-3 22 -5.5 44.5t-2.5 45.5q0 62 16.5 120.5t49.5 103.5t83.5 72.5t118.5 27.5q95 0 167.5 -41t126 -108t89 -153.5t57.5 -177t31 -178.5t9 -159zM394 1406q31 36 58 70.5t53 71t51.5 78 t53.5 92.5h60q28 -51 53.5 -92.5t51.5 -78t53 -71t58 -70.5l-11 -14q-35 18 -63.5 36t-56 37.5t-55.5 41.5t-60 49q-32 -27 -60 -49t-55.5 -42t-56.5 -37.5t-63 -35.5z" />
<glyph unicode="&#xd5;" horiz-adv-x="1204" d="M55 0zM1149 496q0 -81 -14.5 -176.5t-44.5 -190.5t-76 -183.5t-109.5 -156t-145 -108.5t-182.5 -41q-100 0 -177.5 37.5t-135.5 100t-98 144.5t-64.5 171t-35.5 179t-11 170q0 85 8 175.5t27.5 180t51.5 175t79.5 160t112 135t149.5 100.5l8 -14q-60 -49 -105.5 -113 t-79 -137.5t-56.5 -154t-36.5 -162t-19.5 -162t-6 -154.5q0 -69 9.5 -152t31.5 -168t58 -165t88 -142t122 -99.5t160 -37.5q72 0 128.5 35.5t98.5 93.5t71 132t47 150t26 147.5t8 125.5q0 42 -4.5 99.5t-15 122.5t-26.5 134t-40 134.5t-55.5 123.5t-72.5 102t-91 69.5 t-111 25.5q-54 0 -92 -25.5t-61.5 -65.5t-34 -88.5t-10.5 -94.5v-13.5t2 -13.5l-15 -2q-3 22 -5.5 44.5t-2.5 45.5q0 62 16.5 120.5t49.5 103.5t83.5 72.5t118.5 27.5q95 0 167.5 -41t126 -108t89 -153.5t57.5 -177t31 -178.5t9 -159zM428 1460q3 47 18 85q6 16 15 31.5 t22 27.5t30 19.5t39 7.5q25 0 49 -11t47.5 -23.5t47.5 -23.5t48 -11q25 0 39.5 8.5t22.5 19.5q9 12 12 28h34q-5 -47 -21 -83q-14 -32 -39.5 -57.5t-68.5 -25.5q-24 0 -49.5 11t-50 23.5t-46.5 23.5t-40 11q-24 0 -39 -10t-23 -21q-10 -13 -13 -30h-34z" />
<glyph unicode="&#xd6;" horiz-adv-x="1204" d="M55 0zM1149 496q0 -81 -14.5 -176.5t-44.5 -190.5t-76 -183.5t-109.5 -156t-145 -108.5t-182.5 -41q-100 0 -177.5 37.5t-135.5 100t-98 144.5t-64.5 171t-35.5 179t-11 170q0 85 8 175.5t27.5 180t51.5 175t79.5 160t112 135t149.5 100.5l8 -14q-60 -49 -105.5 -113 t-79 -137.5t-56.5 -154t-36.5 -162t-19.5 -162t-6 -154.5q0 -69 9.5 -152t31.5 -168t58 -165t88 -142t122 -99.5t160 -37.5q72 0 128.5 35.5t98.5 93.5t71 132t47 150t26 147.5t8 125.5q0 42 -4.5 99.5t-15 122.5t-26.5 134t-40 134.5t-55.5 123.5t-72.5 102t-91 69.5 t-111 25.5q-54 0 -92 -25.5t-61.5 -65.5t-34 -88.5t-10.5 -94.5v-13.5t2 -13.5l-15 -2q-3 22 -5.5 44.5t-2.5 45.5q0 62 16.5 120.5t49.5 103.5t83.5 72.5t118.5 27.5q95 0 167.5 -41t126 -108t89 -153.5t57.5 -177t31 -178.5t9 -159zM596 1546q0 -37 -24.5 -60.5 t-59.5 -23.5q-33 0 -57.5 23.5t-24.5 60.5q0 16 6.5 31t18 26.5t26 18t31.5 6.5q18 0 33 -6.5t26.5 -18t18 -26.5t6.5 -31zM850 1546q0 -37 -24.5 -60.5t-59.5 -23.5q-33 0 -57.5 23.5t-24.5 60.5q0 16 6.5 31t18 26.5t26 18t31.5 6.5q18 0 33 -6.5t26.5 -18t18 -26.5 t6.5 -31z" />
<glyph unicode="&#xd7;" d="M119 351q6 22 20 49.5t32 56.5t38.5 58t40.5 55q-14 12 -28.5 25.5l-29 27t-27 25.5t-21.5 21q-15 15 -28 29.5t-19 29.5t-3 31.5t21 34.5q22 22 47 18t44 -29q25 -31 55.5 -66.5t53.5 -63.5q22 26 50 55.5t47 47.5q15 15 29.5 28.5t29.5 19.5t31.5 2.5t34.5 -21.5 q22 -22 18 -46.5t-29 -44.5q-35 -28 -73.5 -61t-69.5 -59q41 -45 88 -93.5t89 -88.5l-10 -16q-24 7 -53 21.5t-60 34t-62 42t-59 43.5q-45 -41 -93.5 -87.5t-88.5 -88.5z" />
<glyph unicode="&#xd8;" horiz-adv-x="1204" d="M204 -370l-26 14l73 148q-54 63 -91.5 143.5t-61 167.5t-33.5 174.5t-10 164.5q0 85 8 175.5t27.5 180t51.5 175t79.5 160t112 135t149.5 100.5l8 -14q-60 -49 -105.5 -113t-79 -137.5t-56.5 -154t-36.5 -162t-19.5 -162t-6 -154.5q0 -59 7 -128t22 -141t39.5 -143 t60.5 -132l553 1117q-46 71 -107.5 114.5t-142.5 43.5q-54 0 -92 -25.5t-61.5 -65.5t-34 -88.5t-10.5 -94.5v-13.5t2 -13.5l-15 -2q-3 22 -5.5 44.5t-2.5 45.5q0 62 16.5 120.5t49.5 103.5t83.5 72.5t118.5 27.5q86 0 153.5 -34t118.5 -91l93 187l76 -45l-114 -214 q43 -68 72.5 -149t47.5 -164t25.5 -162.5t7.5 -144.5q0 -81 -14.5 -176.5t-44.5 -190.5t-76 -183.5t-109.5 -156t-145 -108.5t-182.5 -41q-96 0 -170 34t-131 91zM657 -293q72 0 128.5 35.5t98.5 93.5t71 132t47 150t26 147.5t8 125.5q0 49 -6.5 118.5t-20.5 147t-37 157 t-57 150.5l-574 -1076q27 -40 60 -73.5t72.5 -57.5t85 -37t98.5 -13z" />
<glyph unicode="&#xd9;" horiz-adv-x="1230" d="M90 0zM1165 1217q14 0 24.5 -6t10.5 -21q0 -18 -7 -37.5t-17 -39.5t-20 -39t-17 -36q-59 -151 -87 -310.5t-28 -324.5q0 -95 9 -194t30 -196.5t54.5 -191t82.5 -177.5l-20 -6q-97 103 -164 227.5t-102 261.5q-27 -88 -64 -174t-90.5 -154.5t-125 -110.5t-167.5 -42 q-73 0 -129 29.5t-98 79t-70.5 113t-46.5 131.5t-25.5 135.5t-7.5 123.5q0 143 22 288t65.5 284.5t108.5 270t152 245.5l21 -11q-37 -66 -67.5 -144t-54.5 -162.5t-42 -173t-29.5 -176.5t-17.5 -172t-6 -159q0 -46 2.5 -107.5t11.5 -127.5t27 -130t49 -114.5t77 -81.5 t111 -31q64 0 115 22.5t90 61.5t67.5 90.5t47.5 109.5t30.5 119t16.5 119q-6 58 -6 117q0 82 8.5 175.5t26 187.5t44.5 183.5t64 164.5q12 22 25.5 42t30 35.5t37.5 24.5t48 9zM918 1338q-98 46 -174.5 105.5t-138.5 144.5l128 86q17 -51 38 -94t45.5 -81.5t53 -74.5 t59.5 -72z" />
<glyph unicode="&#xda;" horiz-adv-x="1230" d="M90 0zM1165 1217q14 0 24.5 -6t10.5 -21q0 -18 -7 -37.5t-17 -39.5t-20 -39t-17 -36q-59 -151 -87 -310.5t-28 -324.5q0 -95 9 -194t30 -196.5t54.5 -191t82.5 -177.5l-20 -6q-97 103 -164 227.5t-102 261.5q-27 -88 -64 -174t-90.5 -154.5t-125 -110.5t-167.5 -42 q-73 0 -129 29.5t-98 79t-70.5 113t-46.5 131.5t-25.5 135.5t-7.5 123.5q0 143 22 288t65.5 284.5t108.5 270t152 245.5l21 -11q-37 -66 -67.5 -144t-54.5 -162.5t-42 -173t-29.5 -176.5t-17.5 -172t-6 -159q0 -46 2.5 -107.5t11.5 -127.5t27 -130t49 -114.5t77 -81.5 t111 -31q64 0 115 22.5t90 61.5t67.5 90.5t47.5 109.5t30.5 119t16.5 119q-6 58 -6 117q0 82 8.5 175.5t26 187.5t44.5 183.5t64 164.5q12 22 25.5 42t30 35.5t37.5 24.5t48 9zM689 1352q31 36 59 72t53 74.5t46 81.5t38 94l128 -86q-62 -85 -138.5 -144.5t-174.5 -105.5z " />
<glyph unicode="&#xdb;" horiz-adv-x="1230" d="M90 0zM1165 1217q14 0 24.5 -6t10.5 -21q0 -18 -7 -37.5t-17 -39.5t-20 -39t-17 -36q-59 -151 -87 -310.5t-28 -324.5q0 -95 9 -194t30 -196.5t54.5 -191t82.5 -177.5l-20 -6q-97 103 -164 227.5t-102 261.5q-27 -88 -64 -174t-90.5 -154.5t-125 -110.5t-167.5 -42 q-73 0 -129 29.5t-98 79t-70.5 113t-46.5 131.5t-25.5 135.5t-7.5 123.5q0 143 22 288t65.5 284.5t108.5 270t152 245.5l21 -11q-37 -66 -67.5 -144t-54.5 -162.5t-42 -173t-29.5 -176.5t-17.5 -172t-6 -159q0 -46 2.5 -107.5t11.5 -127.5t27 -130t49 -114.5t77 -81.5 t111 -31q64 0 115 22.5t90 61.5t67.5 90.5t47.5 109.5t30.5 119t16.5 119q-6 58 -6 117q0 82 8.5 175.5t26 187.5t44.5 183.5t64 164.5q12 22 25.5 42t30 35.5t37.5 24.5t48 9zM568 1352q31 36 58 70.5t53 71t51.5 78t53.5 92.5h60q28 -51 53.5 -92.5t51.5 -78t53 -71 t58 -70.5l-11 -14q-35 18 -63.5 36t-56 37.5t-55.5 41.5t-60 49q-32 -27 -60 -49t-55.5 -42t-56.5 -37.5t-63 -35.5z" />
<glyph unicode="&#xdc;" horiz-adv-x="1230" d="M90 0zM1165 1217q14 0 24.5 -6t10.5 -21q0 -18 -7 -37.5t-17 -39.5t-20 -39t-17 -36q-59 -151 -87 -310.5t-28 -324.5q0 -95 9 -194t30 -196.5t54.5 -191t82.5 -177.5l-20 -6q-97 103 -164 227.5t-102 261.5q-27 -88 -64 -174t-90.5 -154.5t-125 -110.5t-167.5 -42 q-73 0 -129 29.5t-98 79t-70.5 113t-46.5 131.5t-25.5 135.5t-7.5 123.5q0 143 22 288t65.5 284.5t108.5 270t152 245.5l21 -11q-37 -66 -67.5 -144t-54.5 -162.5t-42 -173t-29.5 -176.5t-17.5 -172t-6 -159q0 -46 2.5 -107.5t11.5 -127.5t27 -130t49 -114.5t77 -81.5 t111 -31q64 0 115 22.5t90 61.5t67.5 90.5t47.5 109.5t30.5 119t16.5 119q-6 58 -6 117q0 82 8.5 175.5t26 187.5t44.5 183.5t64 164.5q12 22 25.5 42t30 35.5t37.5 24.5t48 9zM770 1492q0 -37 -24.5 -60.5t-59.5 -23.5q-33 0 -57.5 23.5t-24.5 60.5q0 16 6.5 31t18 26.5 t26 18t31.5 6.5q18 0 33 -6.5t26.5 -18t18 -26.5t6.5 -31zM1024 1492q0 -37 -24.5 -60.5t-59.5 -23.5q-33 0 -57.5 23.5t-24.5 60.5q0 16 6.5 31t18 26.5t26 18t31.5 6.5q18 0 33 -6.5t26.5 -18t18 -26.5t6.5 -31z" />
<glyph unicode="&#xdd;" horiz-adv-x="985" d="M0 0zM1085 1262q0 -39 -12.5 -80.5t-28.5 -75.5q-42 -97 -95.5 -186.5t-114.5 -176.5q-16 -22 -42.5 -52.5t-57.5 -65.5t-63 -73t-60 -75.5t-48.5 -72t-27.5 -62.5q-7 -25 -7 -52v-50q0 -24 1.5 -68.5t4 -99t7.5 -113.5t11.5 -112t16 -94.5t21.5 -61.5l4 -8t2 -9 q0 -7 -4.5 -11t-10.5 -6t-12 -2.5t-10 -0.5q-22 0 -42.5 4t-39.5 10q-30 10 -47 30t-26 45.5t-11 54t-2 55.5q0 51 4 112t10.5 123.5t15.5 123.5t19 114q-8 18 -29.5 46.5t-48 59t-51.5 58.5t-39 45q-48 58 -96.5 125t-87.5 140.5t-63.5 151.5t-24.5 158q0 59 19.5 112 t62.5 91q9 8 23 19.5t29.5 22t31.5 18t29 7.5q20 0 20 -22v-7t-2 -8q-11 -48 -17 -95t-6 -97q0 -114 26 -212t69 -189t98 -178.5t113 -178.5q37 56 80 119t86 130t83.5 137.5t71.5 142t49.5 143t18.5 141.5q0 26 -3.5 50t-11.5 47v8q0 15 12.5 24t29 14t34 7t27.5 2 q25 0 45.5 -4.5t35.5 -15.5t23 -29.5t8 -46.5zM443 1445q31 36 59 72t53 74.5t46 81.5t38 94l128 -86q-62 -85 -138.5 -144.5t-174.5 -105.5z" />
<glyph unicode="&#xde;" horiz-adv-x="1180" d="M503 -324q0 -28 -31 -28q-20 0 -38 7.5t-33 16.5q-34 19 -59.5 57.5t-44.5 88t-31.5 106.5t-19.5 114q-30 11 -59.5 25.5t-53.5 32t-39 38t-15 43.5q0 18 8.5 32.5t28.5 14.5q32 0 59 -23.5t60 -55.5q-3 42 -4 78t-1 63q0 133 8 242.5t23 203t36 173.5t47 154 q-43 -19 -81 -47t-66.5 -63.5t-45.5 -77t-17 -88.5q0 -27 6.5 -48.5t14 -39.5t14 -33.5t6.5 -31.5q0 -29 -19.5 -48.5t-47.5 -19.5q-26 0 -41 14t-23.5 35t-11 44.5t-2.5 41.5q0 88 41.5 159.5t108.5 127.5q44 37 87 65t91 47q23 62 48.5 122t53.5 123l22 -8 q-20 -59 -35.5 -112t-29.5 -106q32 8 65 12t70 4q130 0 240 -36.5t189.5 -106.5t124 -172t44.5 -233q0 -135 -47.5 -245t-132 -187.5t-200.5 -120t-253 -42.5q-28 0 -56 2.5t-56 7.5q33 -146 90 -289q3 -8 5.5 -16.5t2.5 -16.5zM511 1097q-51 0 -102 -15q-15 -63 -25 -129 t-17 -141t-10 -161t-3 -190q0 -214 40 -413q26 -8 56.5 -12.5t66.5 -4.5q114 0 204.5 42.5t153.5 114.5t96.5 166t33.5 197q0 102 -34 200t-97.5 175t-155.5 124t-207 47z" />
<glyph unicode="&#xdf;" horiz-adv-x="862" d="M210 743q0 -164 2 -331t-5.5 -333.5t-30 -330.5t-71.5 -321h-25v1148q0 71 3.5 156.5t17 171.5t39.5 167t71.5 143.5t113.5 100.5t165 38q51 0 90 -18t65 -49.5t39 -74t13 -90.5q0 -65 -22 -112t-54.5 -83.5t-71 -64t-71 -53t-54.5 -51t-22 -57.5q0 -41 31 -70.5t78 -56 t101 -55t101 -68t78 -94.5t31 -134q0 -70 -24.5 -119t-62 -80t-83.5 -45.5t-88 -14.5q-47 0 -88.5 16t-75.5 41t-60 56t-42 62l21 16q24 -33 49 -58.5t52 -43t57.5 -26.5t67.5 -9q33 0 60.5 11.5t48 33t32 52t11.5 68.5q0 62 -28 101.5t-70 68t-90.5 51t-90.5 51.5t-70 70 t-28 105q0 53 19 92.5t47.5 73t61.5 64t61.5 65.5t47.5 77t19 98q0 34 -8 70t-25 65.5t-45 48t-68 18.5q-57 0 -95 -31t-62.5 -80t-37.5 -111t-18.5 -123.5t-6 -117.5t-0.5 -94z" />
<glyph unicode="&#xe0;" horiz-adv-x="735" d="M55 0zM522 524q0 -11 -8 -19.5t-19 -8.5q-9 0 -19 5.5t-22.5 12.5t-29 12.5t-37.5 5.5q-49 0 -87.5 -30.5t-65 -75.5t-40.5 -96t-14 -92q0 -29 5 -56.5t17.5 -50t34.5 -36t56 -13.5q36 0 69 13.5t62 35.5q1 32 10.5 67.5t24.5 70t34.5 65.5t40.5 55l13 -8 q-11 -34 -16 -70t-5 -71q0 -36 6 -68t21 -55.5t41 -37t67 -13.5q50 0 92 23t74 58l8 -4q-18 -35 -47 -67t-64.5 -57.5t-75.5 -40.5t-79 -15q-55 0 -90 31.5t-48 79.5q-42 -42 -93.5 -70.5t-108.5 -28.5q-42 0 -74.5 15.5t-54.5 41.5t-33.5 61.5t-11.5 74.5q0 45 14.5 92.5 t40 93.5t60.5 87t76.5 72t87.5 49t94 18q11 0 27 -2.5t31 -8.5t25.5 -17t10.5 -28zM525 648q-98 46 -174.5 105.5t-138.5 144.5l128 86q17 -51 38 -94t45.5 -81.5t53 -74.5t59.5 -72z" />
<glyph unicode="&#xe1;" horiz-adv-x="735" d="M55 0zM522 524q0 -11 -8 -19.5t-19 -8.5q-9 0 -19 5.5t-22.5 12.5t-29 12.5t-37.5 5.5q-49 0 -87.5 -30.5t-65 -75.5t-40.5 -96t-14 -92q0 -29 5 -56.5t17.5 -50t34.5 -36t56 -13.5q36 0 69 13.5t62 35.5q1 32 10.5 67.5t24.5 70t34.5 65.5t40.5 55l13 -8 q-11 -34 -16 -70t-5 -71q0 -36 6 -68t21 -55.5t41 -37t67 -13.5q50 0 92 23t74 58l8 -4q-18 -35 -47 -67t-64.5 -57.5t-75.5 -40.5t-79 -15q-55 0 -90 31.5t-48 79.5q-42 -42 -93.5 -70.5t-108.5 -28.5q-42 0 -74.5 15.5t-54.5 41.5t-33.5 61.5t-11.5 74.5q0 45 14.5 92.5 t40 93.5t60.5 87t76.5 72t87.5 49t94 18q11 0 27 -2.5t31 -8.5t25.5 -17t10.5 -28zM296 662q31 36 59 72t53 74.5t46 81.5t38 94l128 -86q-62 -85 -138.5 -144.5t-174.5 -105.5z" />
<glyph unicode="&#xe2;" horiz-adv-x="735" d="M55 0zM522 524q0 -11 -8 -19.5t-19 -8.5q-9 0 -19 5.5t-22.5 12.5t-29 12.5t-37.5 5.5q-49 0 -87.5 -30.5t-65 -75.5t-40.5 -96t-14 -92q0 -29 5 -56.5t17.5 -50t34.5 -36t56 -13.5q36 0 69 13.5t62 35.5q1 32 10.5 67.5t24.5 70t34.5 65.5t40.5 55l13 -8 q-11 -34 -16 -70t-5 -71q0 -36 6 -68t21 -55.5t41 -37t67 -13.5q50 0 92 23t74 58l8 -4q-18 -35 -47 -67t-64.5 -57.5t-75.5 -40.5t-79 -15q-55 0 -90 31.5t-48 79.5q-42 -42 -93.5 -70.5t-108.5 -28.5q-42 0 -74.5 15.5t-54.5 41.5t-33.5 61.5t-11.5 74.5q0 45 14.5 92.5 t40 93.5t60.5 87t76.5 72t87.5 49t94 18q11 0 27 -2.5t31 -8.5t25.5 -17t10.5 -28zM175 662q31 36 58 70.5t53 71t51.5 78t53.5 92.5h60q28 -51 53.5 -92.5t51.5 -78t53 -71t58 -70.5l-11 -14q-35 18 -63.5 36t-56 37.5t-55.5 41.5t-60 49q-32 -27 -60 -49t-55.5 -42 t-56.5 -37.5t-63 -35.5z" />
<glyph unicode="&#xe3;" horiz-adv-x="735" d="M55 0zM522 524q0 -11 -8 -19.5t-19 -8.5q-9 0 -19 5.5t-22.5 12.5t-29 12.5t-37.5 5.5q-49 0 -87.5 -30.5t-65 -75.5t-40.5 -96t-14 -92q0 -29 5 -56.5t17.5 -50t34.5 -36t56 -13.5q36 0 69 13.5t62 35.5q1 32 10.5 67.5t24.5 70t34.5 65.5t40.5 55l13 -8 q-11 -34 -16 -70t-5 -71q0 -36 6 -68t21 -55.5t41 -37t67 -13.5q50 0 92 23t74 58l8 -4q-18 -35 -47 -67t-64.5 -57.5t-75.5 -40.5t-79 -15q-55 0 -90 31.5t-48 79.5q-42 -42 -93.5 -70.5t-108.5 -28.5q-42 0 -74.5 15.5t-54.5 41.5t-33.5 61.5t-11.5 74.5q0 45 14.5 92.5 t40 93.5t60.5 87t76.5 72t87.5 49t94 18q11 0 27 -2.5t31 -8.5t25.5 -17t10.5 -28zM209 716q3 47 18 85q6 16 15 31.5t22 27.5t30 19.5t39 7.5q25 0 49 -11t47.5 -23.5t47.5 -23.5t48 -11q25 0 39.5 8.5t22.5 19.5q9 12 12 28h34q-5 -47 -21 -83q-14 -32 -39.5 -57.5 t-68.5 -25.5q-24 0 -49.5 11t-50 23.5t-46.5 23.5t-40 11q-24 0 -39 -10t-23 -21q-10 -13 -13 -30h-34z" />
<glyph unicode="&#xe4;" horiz-adv-x="735" d="M55 0zM522 524q0 -11 -8 -19.5t-19 -8.5q-9 0 -19 5.5t-22.5 12.5t-29 12.5t-37.5 5.5q-49 0 -87.5 -30.5t-65 -75.5t-40.5 -96t-14 -92q0 -29 5 -56.5t17.5 -50t34.5 -36t56 -13.5q36 0 69 13.5t62 35.5q1 32 10.5 67.5t24.5 70t34.5 65.5t40.5 55l13 -8 q-11 -34 -16 -70t-5 -71q0 -36 6 -68t21 -55.5t41 -37t67 -13.5q50 0 92 23t74 58l8 -4q-18 -35 -47 -67t-64.5 -57.5t-75.5 -40.5t-79 -15q-55 0 -90 31.5t-48 79.5q-42 -42 -93.5 -70.5t-108.5 -28.5q-42 0 -74.5 15.5t-54.5 41.5t-33.5 61.5t-11.5 74.5q0 45 14.5 92.5 t40 93.5t60.5 87t76.5 72t87.5 49t94 18q11 0 27 -2.5t31 -8.5t25.5 -17t10.5 -28zM377 802q0 -37 -24.5 -60.5t-59.5 -23.5q-33 0 -57.5 23.5t-24.5 60.5q0 16 6.5 31t18 26.5t26 18t31.5 6.5q18 0 33 -6.5t26.5 -18t18 -26.5t6.5 -31zM631 802q0 -37 -24.5 -60.5 t-59.5 -23.5q-33 0 -57.5 23.5t-24.5 60.5q0 16 6.5 31t18 26.5t26 18t31.5 6.5q18 0 33 -6.5t26.5 -18t18 -26.5t6.5 -31z" />
<glyph unicode="&#xe5;" horiz-adv-x="735" d="M55 0zM522 524q0 -11 -8 -19.5t-19 -8.5q-9 0 -19 5.5t-22.5 12.5t-29 12.5t-37.5 5.5q-49 0 -87.5 -30.5t-65 -75.5t-40.5 -96t-14 -92q0 -29 5 -56.5t17.5 -50t34.5 -36t56 -13.5q36 0 69 13.5t62 35.5q1 32 10.5 67.5t24.5 70t34.5 65.5t40.5 55l13 -8 q-11 -34 -16 -70t-5 -71q0 -36 6 -68t21 -55.5t41 -37t67 -13.5q50 0 92 23t74 58l8 -4q-18 -35 -47 -67t-64.5 -57.5t-75.5 -40.5t-79 -15q-55 0 -90 31.5t-48 79.5q-42 -42 -93.5 -70.5t-108.5 -28.5q-42 0 -74.5 15.5t-54.5 41.5t-33.5 61.5t-11.5 74.5q0 45 14.5 92.5 t40 93.5t60.5 87t76.5 72t87.5 49t94 18q11 0 27 -2.5t31 -8.5t25.5 -17t10.5 -28zM267 802q0 32 12 60t33 49t49 33t60 12t60 -12t49 -33t33 -49t12 -60t-12 -60t-33 -49t-49 -33t-60 -12t-60 12t-49 33t-33 49t-12 60zM348 802q0 -30 21.5 -51.5t51.5 -21.5t51.5 21.5 t21.5 51.5t-21.5 51.5t-51.5 21.5t-51.5 -21.5t-21.5 -51.5z" />
<glyph unicode="&#xe6;" horiz-adv-x="1003" d="M1113 143q-26 -38 -62.5 -71t-80 -57t-91 -38t-95.5 -14q-53 0 -100 10.5t-86.5 32t-69.5 53.5t-47 75q-22 -31 -50 -60t-60.5 -51t-68 -35t-73.5 -13q-42 0 -74.5 15.5t-54.5 41.5t-33.5 61.5t-11.5 74.5q0 45 14.5 92.5t40 93.5t60.5 87t76.5 72t87.5 49t94 18 q11 0 27 -2.5t31 -8.5t25.5 -17t10.5 -28q0 -11 -8 -19.5t-19 -8.5q-9 0 -19 5.5t-22.5 12.5t-29 12.5t-37.5 5.5q-49 0 -87.5 -30.5t-65 -75.5t-40.5 -96t-14 -92q0 -29 5 -56.5t17.5 -50t34.5 -36t56 -13.5q52 0 96.5 26.5t79.5 63.5q-9 37 -9 80q0 72 26.5 134.5t73 109 t109.5 73.5t135 27q34 0 63.5 -9.5t51.5 -28t34.5 -45.5t12.5 -62q0 -42 -17 -74t-45 -56t-63.5 -40t-74 -26t-76 -14.5t-68.5 -4.5h-24q13 -91 72 -139t163 -48q74 0 144.5 26t127.5 72zM620 266q36 0 74 11.5t68.5 34t50.5 55.5t20 75q0 41 -17.5 68t-60.5 27 q-44 0 -74.5 -27t-49.5 -67.5t-27.5 -88t-8.5 -88.5h25z" />
<glyph unicode="&#xe7;" horiz-adv-x="582" d="M269 -36q-51 7 -94 28t-74 54.5t-48.5 78.5t-17.5 100q0 70 25.5 137t71 119t108 83.5t135.5 31.5q24 0 48 -5t44 -16.5t32.5 -30.5t12.5 -48t-15 -50.5t-38 -35.5t-49.5 -22.5t-50.5 -12.5v14q14 4 30.5 11t30.5 18t23.5 26t9.5 33q0 14 -6.5 23.5t-16 15.5t-21.5 9 t-24 3q-51 0 -91.5 -22.5t-68.5 -59.5t-42.5 -83t-14.5 -93q0 -54 16.5 -96.5t46.5 -72.5t73 -46t96 -16q34 0 72.5 7.5t75 21.5t69.5 34t57 45l8 -4q-26 -43 -67.5 -76.5t-91 -57t-103 -36t-102.5 -12.5h-15l-11 -46q18 3 37 3q26 0 49 -7t40 -21t27 -34.5t10 -46.5 q0 -31 -13.5 -54t-35 -38.5t-48 -23t-53.5 -7.5q-30 0 -57 8.5t-50.5 21t-41.5 28t-30 30.5l13 15q36 -26 66 -35t67 -9q39 0 62.5 15.5t23.5 46.5q0 27 -21.5 40t-49.5 13q-13 0 -25 -2t-18 -4z" />
<glyph unicode="&#xe8;" horiz-adv-x="588" d="M35 0zM688 143q-26 -38 -62.5 -71t-80 -57t-91 -38t-95.5 -14q-68 0 -127 17.5t-103 53.5t-69 90.5t-25 127.5q0 72 26.5 134.5t73 109t109.5 73.5t135 27q34 0 63.5 -9.5t51.5 -28t34.5 -45.5t12.5 -62q0 -42 -17 -74t-45 -56t-63.5 -40t-74 -26t-76 -14.5t-68.5 -4.5 h-24q13 -91 72 -139t163 -48q74 0 144.5 26t127.5 72zM170 266h25q36 0 74 11.5t68.5 34t50.5 55.5t20 75q0 41 -17.5 68t-60.5 27q-44 0 -74.5 -26.5t-49.5 -65t-27.5 -81t-8.5 -75.5v-23zM478 666q-98 46 -174.5 105.5t-138.5 144.5l128 86q17 -51 38 -94t45.5 -81.5 t53 -74.5t59.5 -72z" />
<glyph unicode="&#xe9;" horiz-adv-x="588" d="M35 0zM688 143q-26 -38 -62.5 -71t-80 -57t-91 -38t-95.5 -14q-68 0 -127 17.5t-103 53.5t-69 90.5t-25 127.5q0 72 26.5 134.5t73 109t109.5 73.5t135 27q34 0 63.5 -9.5t51.5 -28t34.5 -45.5t12.5 -62q0 -42 -17 -74t-45 -56t-63.5 -40t-74 -26t-76 -14.5t-68.5 -4.5 h-24q13 -91 72 -139t163 -48q74 0 144.5 26t127.5 72zM170 266h25q36 0 74 11.5t68.5 34t50.5 55.5t20 75q0 41 -17.5 68t-60.5 27q-44 0 -74.5 -26.5t-49.5 -65t-27.5 -81t-8.5 -75.5v-23zM249 680q31 36 59 72t53 74.5t46 81.5t38 94l128 -86q-62 -85 -138.5 -144.5 t-174.5 -105.5z" />
<glyph unicode="&#xea;" horiz-adv-x="588" d="M35 0zM688 143q-26 -38 -62.5 -71t-80 -57t-91 -38t-95.5 -14q-68 0 -127 17.5t-103 53.5t-69 90.5t-25 127.5q0 72 26.5 134.5t73 109t109.5 73.5t135 27q34 0 63.5 -9.5t51.5 -28t34.5 -45.5t12.5 -62q0 -42 -17 -74t-45 -56t-63.5 -40t-74 -26t-76 -14.5t-68.5 -4.5 h-24q13 -91 72 -139t163 -48q74 0 144.5 26t127.5 72zM170 266h25q36 0 74 11.5t68.5 34t50.5 55.5t20 75q0 41 -17.5 68t-60.5 27q-44 0 -74.5 -26.5t-49.5 -65t-27.5 -81t-8.5 -75.5v-23zM128 680q31 36 58 70.5t53 71t51.5 78t53.5 92.5h60q28 -51 53.5 -92.5t51.5 -78 t53 -71t58 -70.5l-11 -14q-35 18 -63.5 36t-56 37.5t-55.5 41.5t-60 49q-32 -27 -60 -49t-55.5 -42t-56.5 -37.5t-63 -35.5z" />
<glyph unicode="&#xeb;" horiz-adv-x="588" d="M35 0zM688 143q-26 -38 -62.5 -71t-80 -57t-91 -38t-95.5 -14q-68 0 -127 17.5t-103 53.5t-69 90.5t-25 127.5q0 72 26.5 134.5t73 109t109.5 73.5t135 27q34 0 63.5 -9.5t51.5 -28t34.5 -45.5t12.5 -62q0 -42 -17 -74t-45 -56t-63.5 -40t-74 -26t-76 -14.5t-68.5 -4.5 h-24q13 -91 72 -139t163 -48q74 0 144.5 26t127.5 72zM170 266h25q36 0 74 11.5t68.5 34t50.5 55.5t20 75q0 41 -17.5 68t-60.5 27q-44 0 -74.5 -26.5t-49.5 -65t-27.5 -81t-8.5 -75.5v-23zM330 820q0 -37 -24.5 -60.5t-59.5 -23.5q-33 0 -57.5 23.5t-24.5 60.5q0 16 6.5 31 t18 26.5t26 18t31.5 6.5q18 0 33 -6.5t26.5 -18t18 -26.5t6.5 -31zM584 820q0 -37 -24.5 -60.5t-59.5 -23.5q-33 0 -57.5 23.5t-24.5 60.5q0 16 6.5 31t18 26.5t26 18t31.5 6.5q18 0 33 -6.5t26.5 -18t18 -26.5t6.5 -31z" />
<glyph unicode="&#xec;" horiz-adv-x="464" d="M40 0zM564 143q-23 -38 -54.5 -69.5t-69 -55t-80 -36.5t-87.5 -13q-56 0 -99.5 19t-73 52.5t-45 79t-15.5 99.5q0 58 17 110t47 97.5t70.5 83.5t86.5 68l12 -9q-49 -58 -79.5 -130t-30.5 -150q0 -45 10.5 -86.5t33 -73.5t57.5 -51t85 -19q59 0 112.5 25t96.5 63zM401 648 q-98 46 -174.5 105.5t-138.5 144.5l128 86q17 -51 38 -94t45.5 -81.5t53 -74.5t59.5 -72z" />
<glyph unicode="&#xed;" horiz-adv-x="464" d="M40 0zM564 143q-23 -38 -54.5 -69.5t-69 -55t-80 -36.5t-87.5 -13q-56 0 -99.5 19t-73 52.5t-45 79t-15.5 99.5q0 58 17 110t47 97.5t70.5 83.5t86.5 68l12 -9q-49 -58 -79.5 -130t-30.5 -150q0 -45 10.5 -86.5t33 -73.5t57.5 -51t85 -19q59 0 112.5 25t96.5 63zM171 662 q31 36 59 72t53 74.5t46 81.5t38 94l128 -86q-62 -85 -138.5 -144.5t-174.5 -105.5z" />
<glyph unicode="&#xee;" horiz-adv-x="464" d="M40 0zM564 143q-23 -38 -54.5 -69.5t-69 -55t-80 -36.5t-87.5 -13q-56 0 -99.5 19t-73 52.5t-45 79t-15.5 99.5q0 58 17 110t47 97.5t70.5 83.5t86.5 68l12 -9q-49 -58 -79.5 -130t-30.5 -150q0 -45 10.5 -86.5t33 -73.5t57.5 -51t85 -19q59 0 112.5 25t96.5 63zM50 662 q31 36 58 70.5t53 71t51.5 78t53.5 92.5h60q28 -51 53.5 -92.5t51.5 -78t53 -71t58 -70.5l-11 -14q-35 18 -63.5 36t-56 37.5t-55.5 41.5t-60 49q-32 -27 -60 -49t-55.5 -42t-56.5 -37.5t-63 -35.5z" />
<glyph unicode="&#xef;" horiz-adv-x="464" d="M40 0zM564 143q-23 -38 -54.5 -69.5t-69 -55t-80 -36.5t-87.5 -13q-56 0 -99.5 19t-73 52.5t-45 79t-15.5 99.5q0 58 17 110t47 97.5t70.5 83.5t86.5 68l12 -9q-49 -58 -79.5 -130t-30.5 -150q0 -45 10.5 -86.5t33 -73.5t57.5 -51t85 -19q59 0 112.5 25t96.5 63zM252 802 q0 -37 -24.5 -60.5t-59.5 -23.5q-33 0 -57.5 23.5t-24.5 60.5q0 16 6.5 31t18 26.5t26 18t31.5 6.5q18 0 33 -6.5t26.5 -18t18 -26.5t6.5 -31zM506 802q0 -37 -24.5 -60.5t-59.5 -23.5q-33 0 -57.5 23.5t-24.5 60.5q0 16 6.5 31t18 26.5t26 18t31.5 6.5q18 0 33 -6.5 t26.5 -18t18 -26.5t6.5 -31z" />
<glyph unicode="&#xf0;" horiz-adv-x="672" d="M630 1131q-32 -11 -87.5 -39.5t-118.5 -66.5q43 -65 80 -140.5t64.5 -155t43 -161.5t15.5 -160q0 -104 -23 -185.5t-65 -138.5t-100.5 -87t-129.5 -30q-63 0 -113.5 19.5t-86.5 54t-55 82t-19 103.5q0 65 22 123.5t64.5 105t105.5 78.5t144 45l5 -18q-64 -19 -105.5 -55 t-65.5 -78.5t-33.5 -85.5t-9.5 -76q0 -52 14 -92t37.5 -67.5t55 -41.5t66.5 -14q50 0 84 21t54.5 60.5t29 95.5t8.5 126q0 52 -8.5 129t-26.5 164t-45.5 176.5t-64.5 165.5q-49 -32 -93 -64t-75 -60q-14 -10 -28 -10q-21 0 -34.5 18t-13.5 37q0 21 14.5 38.5t35 31.5 t42.5 25l38 19q14 7 34 15.5t43 18.5q-42 67 -93.5 108t-114.5 41q-35 0 -57.5 -20.5t-22.5 -55.5q0 -13 3 -26l-19 -20q-8 16 -11.5 35.5t-3.5 39.5q0 24 5 46.5t16 40.5t27 29t39 11q33 0 69 -15t73 -42t74 -65.5t72 -84.5q33 13 68 25.5t67.5 22t61 16t48.5 6.5v-18z" />
<glyph unicode="&#xf1;" horiz-adv-x="815" d="M70 0zM915 143q-19 -36 -40.5 -69t-48.5 -58t-61 -40t-78 -15q-50 0 -86 24.5t-61.5 65t-41 92.5t-25.5 106t-15 106.5l-9 94.5q-19 -15 -46 -57.5t-55 -99.5t-53.5 -124t-41.5 -132q-3 -14 -9.5 -29t-16 -27.5t-22.5 -21t-29 -8.5q-26 0 -37.5 18t-16.5 41 q-29 127 -40.5 243t-11.5 232q0 28 9.5 48.5t25.5 34t38 20t46 6.5h9.5t12.5 -1.5t10 -4.5t3 -8q-26 -131 -25 -266.5t14 -260.5q11 50 32.5 113.5t50 128t62 123t68.5 98.5q17 19 34.5 32.5t43.5 13.5q15 0 25 -6t16.5 -15t10 -20.5t5.5 -22.5q5 -29 10 -75t12.5 -98 t18.5 -104.5t28 -95t41 -69.5t57 -27q27 0 52.5 10.5t48.5 27t43 38t36 42.5zM135 716q3 47 18 85q6 16 15 31.5t22 27.5t30 19.5t39 7.5q25 0 49 -11t47.5 -23.5t47.5 -23.5t48 -11q25 0 39.5 8.5t22.5 19.5q9 12 12 28h34q-5 -47 -21 -83q-14 -32 -39.5 -57.5t-68.5 -25.5 q-24 0 -49.5 11t-50 23.5t-46.5 23.5t-40 11q-24 0 -39 -10t-23 -21q-10 -13 -13 -30h-34z" />
<glyph unicode="&#xf2;" horiz-adv-x="662" d="M35 0zM627 295q0 -70 -23 -130t-65 -104t-100.5 -69t-129.5 -25q-63 0 -113.5 23.5t-86.5 63.5t-55 93.5t-19 114.5q0 51 14.5 97t40.5 85.5t62 73t78 60.5l12 -9q-42 -49 -66 -108t-24 -125q0 -48 14.5 -97.5t42.5 -90.5t70 -67t96 -26q34 0 64 14t52.5 38t36 54.5 t13.5 63.5q0 32 -9.5 62.5t-26.5 57t-41 48t-52 35.5q-16 8 -30.5 12t-31.5 9q-7 1 -15 3.5t-15 6t-12 9.5t-5 15q0 18 13 33t31 26.5t38 18t35 6.5q51 0 90 -26t65 -66t39 -88t13 -92zM435 649q-98 46 -174.5 105.5t-138.5 144.5l128 86q17 -51 38 -94t45.5 -81.5t53 -74.5 t59.5 -72z" />
<glyph unicode="&#xf3;" horiz-adv-x="662" d="M35 0zM627 295q0 -70 -23 -130t-65 -104t-100.5 -69t-129.5 -25q-63 0 -113.5 23.5t-86.5 63.5t-55 93.5t-19 114.5q0 51 14.5 97t40.5 85.5t62 73t78 60.5l12 -9q-42 -49 -66 -108t-24 -125q0 -48 14.5 -97.5t42.5 -90.5t70 -67t96 -26q34 0 64 14t52.5 38t36 54.5 t13.5 63.5q0 32 -9.5 62.5t-26.5 57t-41 48t-52 35.5q-16 8 -30.5 12t-31.5 9q-7 1 -15 3.5t-15 6t-12 9.5t-5 15q0 18 13 33t31 26.5t38 18t35 6.5q51 0 90 -26t65 -66t39 -88t13 -92zM206 663q31 36 59 72t53 74.5t46 81.5t38 94l128 -86q-62 -85 -138.5 -144.5 t-174.5 -105.5z" />
<glyph unicode="&#xf4;" horiz-adv-x="662" d="M35 0zM627 295q0 -70 -23 -130t-65 -104t-100.5 -69t-129.5 -25q-63 0 -113.5 23.5t-86.5 63.5t-55 93.5t-19 114.5q0 51 14.5 97t40.5 85.5t62 73t78 60.5l12 -9q-42 -49 -66 -108t-24 -125q0 -48 14.5 -97.5t42.5 -90.5t70 -67t96 -26q34 0 64 14t52.5 38t36 54.5 t13.5 63.5q0 32 -9.5 62.5t-26.5 57t-41 48t-52 35.5q-16 8 -30.5 12t-31.5 9q-7 1 -15 3.5t-15 6t-12 9.5t-5 15q0 18 13 33t31 26.5t38 18t35 6.5q51 0 90 -26t65 -66t39 -88t13 -92zM85 663q31 36 58 70.5t53 71t51.5 78t53.5 92.5h60q28 -51 53.5 -92.5t51.5 -78t53 -71 t58 -70.5l-11 -14q-35 18 -63.5 36t-56 37.5t-55.5 41.5t-60 49q-32 -27 -60 -49t-55.5 -42t-56.5 -37.5t-63 -35.5z" />
<glyph unicode="&#xf5;" horiz-adv-x="662" d="M35 0zM627 295q0 -70 -23 -130t-65 -104t-100.5 -69t-129.5 -25q-63 0 -113.5 23.5t-86.5 63.5t-55 93.5t-19 114.5q0 51 14.5 97t40.5 85.5t62 73t78 60.5l12 -9q-42 -49 -66 -108t-24 -125q0 -48 14.5 -97.5t42.5 -90.5t70 -67t96 -26q34 0 64 14t52.5 38t36 54.5 t13.5 63.5q0 32 -9.5 62.5t-26.5 57t-41 48t-52 35.5q-16 8 -30.5 12t-31.5 9q-7 1 -15 3.5t-15 6t-12 9.5t-5 15q0 18 13 33t31 26.5t38 18t35 6.5q51 0 90 -26t65 -66t39 -88t13 -92zM119 717q3 47 18 85q6 16 15 31.5t22 27.5t30 19.5t39 7.5q25 0 49 -11t47.5 -23.5 t47.5 -23.5t48 -11q25 0 39.5 8.5t22.5 19.5q9 12 12 28h34q-5 -47 -21 -83q-14 -32 -39.5 -57.5t-68.5 -25.5q-24 0 -49.5 11t-50 23.5t-46.5 23.5t-40 11q-24 0 -39 -10t-23 -21q-10 -13 -13 -30h-34z" />
<glyph unicode="&#xf6;" horiz-adv-x="662" d="M35 0zM627 295q0 -70 -23 -130t-65 -104t-100.5 -69t-129.5 -25q-63 0 -113.5 23.5t-86.5 63.5t-55 93.5t-19 114.5q0 51 14.5 97t40.5 85.5t62 73t78 60.5l12 -9q-42 -49 -66 -108t-24 -125q0 -48 14.5 -97.5t42.5 -90.5t70 -67t96 -26q34 0 64 14t52.5 38t36 54.5 t13.5 63.5q0 32 -9.5 62.5t-26.5 57t-41 48t-52 35.5q-16 8 -30.5 12t-31.5 9q-7 1 -15 3.5t-15 6t-12 9.5t-5 15q0 18 13 33t31 26.5t38 18t35 6.5q51 0 90 -26t65 -66t39 -88t13 -92zM287 803q0 -37 -24.5 -60.5t-59.5 -23.5q-33 0 -57.5 23.5t-24.5 60.5q0 16 6.5 31 t18 26.5t26 18t31.5 6.5q18 0 33 -6.5t26.5 -18t18 -26.5t6.5 -31zM541 803q0 -37 -24.5 -60.5t-59.5 -23.5q-33 0 -57.5 23.5t-24.5 60.5q0 16 6.5 31t18 26.5t26 18t31.5 6.5q18 0 33 -6.5t26.5 -18t18 -26.5t6.5 -31z" />
<glyph unicode="&#xf7;" d="M603 596q-40 -22 -99 -37.5t-123 -25t-125.5 -13.5t-106.5 -4q-21 0 -40.5 1t-35 7.5t-24.5 20t-9 39.5q0 31 20.5 46t51.5 11q139 -16 256 -22.5t231 -4.5zM229 762q0 19 7 36t19.5 29.5t29.5 19.5t36 7t36 -7t29.5 -19.5t19.5 -29.5t7 -36t-7 -36t-19.5 -29.5 t-29.5 -19.5t-36 -7t-36 7t-29.5 19.5t-19.5 29.5t-7 36zM229 385q0 19 7 36t19.5 29.5t29.5 19.5t36 7t36 -7t29.5 -19.5t19.5 -29.5t7 -36t-7 -36t-19.5 -29.5t-29.5 -19.5t-36 -7t-36 7t-29.5 19.5t-19.5 29.5t-7 36z" />
<glyph unicode="&#xf8;" horiz-adv-x="662" d="M627 295q0 -70 -23 -130t-65 -104t-100.5 -69t-129.5 -25q-50 0 -96 16l-79 -149l-23 14l70 150q-69 36 -107.5 106.5t-38.5 157.5q0 51 14.5 97t40.5 85.5t62 73t78 60.5l12 -9q-42 -49 -66 -108t-24 -125q0 -59 21 -119t63 -102l151 323q-9 3 -18 5.5t-19 5.5 q-7 1 -15 3.5t-15 6t-12 9.5t-5 15q0 18 13 33t31 26.5t38 18t35 6.5q7 0 13.5 -0.5t12.5 -1.5l68 144l63 -42l-67 -126q29 -18 51 -46.5t36.5 -62t22 -69t7.5 -68.5zM375 55q34 0 64 14t52.5 38t36 54.5t13.5 63.5q0 56 -27.5 105t-72.5 81l-172 -324q23 -15 49 -23.5 t57 -8.5z" />
<glyph unicode="&#xf9;" horiz-adv-x="742" d="M45 0zM852 143q-17 -35 -46 -67t-65 -57.5t-76 -40.5t-79 -15q-54 0 -89.5 32.5t-52.5 78.5q-39 -39 -86 -64.5t-104 -25.5q-51 0 -90.5 18.5t-65.5 50.5t-39.5 74t-13.5 90q0 54 15 105.5t42 98t64 86.5t80 71l12 -9q-42 -60 -67 -132.5t-25 -147.5q0 -32 7 -68t23 -67 t42.5 -51.5t66.5 -20.5q34 0 65 11.5t60 31.5q-2 12 -3 23.5t-1 23.5q0 48 14 104t37 111.5t52.5 106t60.5 86.5l12 -9q-23 -77 -38 -159t-15 -162q0 -36 4.5 -69.5t19 -60t40.5 -42t69 -15.5q48 0 90 24.5t74 59.5zM551 648q-98 46 -174.5 105.5t-138.5 144.5l128 86 q17 -51 38 -94t45.5 -81.5t53 -74.5t59.5 -72z" />
<glyph unicode="&#xfa;" horiz-adv-x="742" d="M45 0zM852 143q-17 -35 -46 -67t-65 -57.5t-76 -40.5t-79 -15q-54 0 -89.5 32.5t-52.5 78.5q-39 -39 -86 -64.5t-104 -25.5q-51 0 -90.5 18.5t-65.5 50.5t-39.5 74t-13.5 90q0 54 15 105.5t42 98t64 86.5t80 71l12 -9q-42 -60 -67 -132.5t-25 -147.5q0 -32 7 -68t23 -67 t42.5 -51.5t66.5 -20.5q34 0 65 11.5t60 31.5q-2 12 -3 23.5t-1 23.5q0 48 14 104t37 111.5t52.5 106t60.5 86.5l12 -9q-23 -77 -38 -159t-15 -162q0 -36 4.5 -69.5t19 -60t40.5 -42t69 -15.5q48 0 90 24.5t74 59.5zM322 662q31 36 59 72t53 74.5t46 81.5t38 94l128 -86 q-62 -85 -138.5 -144.5t-174.5 -105.5z" />
<glyph unicode="&#xfb;" horiz-adv-x="742" d="M45 0zM852 143q-17 -35 -46 -67t-65 -57.5t-76 -40.5t-79 -15q-54 0 -89.5 32.5t-52.5 78.5q-39 -39 -86 -64.5t-104 -25.5q-51 0 -90.5 18.5t-65.5 50.5t-39.5 74t-13.5 90q0 54 15 105.5t42 98t64 86.5t80 71l12 -9q-42 -60 -67 -132.5t-25 -147.5q0 -32 7 -68t23 -67 t42.5 -51.5t66.5 -20.5q34 0 65 11.5t60 31.5q-2 12 -3 23.5t-1 23.5q0 48 14 104t37 111.5t52.5 106t60.5 86.5l12 -9q-23 -77 -38 -159t-15 -162q0 -36 4.5 -69.5t19 -60t40.5 -42t69 -15.5q48 0 90 24.5t74 59.5zM201 662q31 36 58 70.5t53 71t51.5 78t53.5 92.5h60 q28 -51 53.5 -92.5t51.5 -78t53 -71t58 -70.5l-11 -14q-35 18 -63.5 36t-56 37.5t-55.5 41.5t-60 49q-32 -27 -60 -49t-55.5 -42t-56.5 -37.5t-63 -35.5z" />
<glyph unicode="&#xfc;" horiz-adv-x="742" d="M45 0zM852 143q-17 -35 -46 -67t-65 -57.5t-76 -40.5t-79 -15q-54 0 -89.5 32.5t-52.5 78.5q-39 -39 -86 -64.5t-104 -25.5q-51 0 -90.5 18.5t-65.5 50.5t-39.5 74t-13.5 90q0 54 15 105.5t42 98t64 86.5t80 71l12 -9q-42 -60 -67 -132.5t-25 -147.5q0 -32 7 -68t23 -67 t42.5 -51.5t66.5 -20.5q34 0 65 11.5t60 31.5q-2 12 -3 23.5t-1 23.5q0 48 14 104t37 111.5t52.5 106t60.5 86.5l12 -9q-23 -77 -38 -159t-15 -162q0 -36 4.5 -69.5t19 -60t40.5 -42t69 -15.5q48 0 90 24.5t74 59.5zM403 802q0 -37 -24.5 -60.5t-59.5 -23.5 q-33 0 -57.5 23.5t-24.5 60.5q0 16 6.5 31t18 26.5t26 18t31.5 6.5q18 0 33 -6.5t26.5 -18t18 -26.5t6.5 -31zM657 802q0 -37 -24.5 -60.5t-59.5 -23.5q-33 0 -57.5 23.5t-24.5 60.5q0 16 6.5 31t18 26.5t26 18t31.5 6.5q18 0 33 -6.5t26.5 -18t18 -26.5t6.5 -31z" />
<glyph unicode="&#xfd;" horiz-adv-x="682" d="M40 0zM679 -303q0 -57 -11 -114t-32.5 -110.5t-53.5 -100t-73 -80.5t-91.5 -54t-109.5 -20q-55 0 -104 22t-85.5 59t-57.5 86.5t-21 104.5q0 60 24.5 115t64.5 101t90.5 81t103.5 55l6 -12q-97 -53 -150 -143t-53 -201q0 -45 12.5 -86.5t37.5 -73.5t62.5 -51.5 t86.5 -19.5q68 0 113 37t72 92.5t38.5 120.5t11.5 122q0 61 -9.5 120t-23 118t-27.5 118t-23 119q-21 -25 -45 -47.5t-51.5 -39t-58.5 -26t-65 -9.5q-51 0 -89.5 18.5t-64.5 50.5t-39.5 74t-13.5 90q0 54 15 106t42 98t64 86t80 70l12 -6q-43 -62 -67.5 -133.5t-24.5 -146.5 q0 -32 7 -69t22.5 -68t42 -51.5t65.5 -20.5q47 0 88 20.5t75 52.5q-3 37 -3 74q0 51 7 106t25.5 105.5t50.5 92t83 67.5l8 -4q-24 -25 -40 -55.5t-25.5 -63.5t-13 -67.5t-3.5 -67.5q0 -92 18.5 -171t41 -155t41 -152.5t18.5 -162.5zM310 662q31 36 59 72t53 74.5t46 81.5 t38 94l128 -86q-62 -85 -138.5 -144.5t-174.5 -105.5z" />
<glyph unicode="&#xfe;" horiz-adv-x="727" d="M225 -72q0 -145 -8 -261.5t-22 -210.5t-33 -166.5t-41 -129.5h-25v478q0 109 -3 223.5t-7 231t-7 231.5t-3 224q0 66 4.5 139.5t15 148t28.5 148t45.5 140t65 124t88.5 99.5q23 19 52.5 33t58.5 14q12 0 27.5 -5.5t15.5 -20.5q0 -8 -8 -19q-71 -98 -123 -192.5 t-85.5 -193.5t-49.5 -206.5t-16 -231.5q0 -70 4 -137t8 -130q10 68 33.5 129t59.5 106.5t83.5 72t106.5 26.5q50 0 87.5 -20t63 -53t38.5 -76t13 -89q0 -56 -21.5 -116.5t-59.5 -110.5t-90.5 -82.5t-114.5 -32.5q-22 0 -44.5 7.5t-41 22t-30 34.5t-11.5 45q0 12 10 20.5 t22 8.5q15 0 25.5 -15t23 -32.5t30 -32.5t46.5 -15q36 0 64 24.5t47 59.5t29 74.5t10 69.5q0 38 -10 75t-30.5 65.5t-52 46t-73.5 17.5q-49 0 -82.5 -33t-55 -84.5t-33 -115.5t-17 -126.5t-6.5 -115.5t-1 -84z" />
<glyph unicode="&#xff;" horiz-adv-x="682" d="M40 0zM679 -303q0 -57 -11 -114t-32.5 -110.5t-53.5 -100t-73 -80.5t-91.5 -54t-109.5 -20q-55 0 -104 22t-85.5 59t-57.5 86.5t-21 104.5q0 60 24.5 115t64.5 101t90.5 81t103.5 55l6 -12q-97 -53 -150 -143t-53 -201q0 -45 12.5 -86.5t37.5 -73.5t62.5 -51.5 t86.5 -19.5q68 0 113 37t72 92.5t38.5 120.5t11.5 122q0 61 -9.5 120t-23 118t-27.5 118t-23 119q-21 -25 -45 -47.5t-51.5 -39t-58.5 -26t-65 -9.5q-51 0 -89.5 18.5t-64.5 50.5t-39.5 74t-13.5 90q0 54 15 106t42 98t64 86t80 70l12 -6q-43 -62 -67.5 -133.5t-24.5 -146.5 q0 -32 7 -69t22.5 -68t42 -51.5t65.5 -20.5q47 0 88 20.5t75 52.5q-3 37 -3 74q0 51 7 106t25.5 105.5t50.5 92t83 67.5l8 -4q-24 -25 -40 -55.5t-25.5 -63.5t-13 -67.5t-3.5 -67.5q0 -92 18.5 -171t41 -155t41 -152.5t18.5 -162.5zM391 802q0 -37 -24.5 -60.5t-59.5 -23.5 q-33 0 -57.5 23.5t-24.5 60.5q0 16 6.5 31t18 26.5t26 18t31.5 6.5q18 0 33 -6.5t26.5 -18t18 -26.5t6.5 -31zM645 802q0 -37 -24.5 -60.5t-59.5 -23.5q-33 0 -57.5 23.5t-24.5 60.5q0 16 6.5 31t18 26.5t26 18t31.5 6.5q18 0 33 -6.5t26.5 -18t18 -26.5t6.5 -31z" />
<glyph unicode="&#x131;" horiz-adv-x="464" d="M564 143q-23 -38 -54.5 -69.5t-69 -55t-80 -36.5t-87.5 -13q-56 0 -99.5 19t-73 52.5t-45 79t-15.5 99.5q0 58 17 110t47 97.5t70.5 83.5t86.5 68l12 -9q-49 -58 -79.5 -130t-30.5 -150q0 -45 10.5 -86.5t33 -73.5t57.5 -51t85 -19q59 0 112.5 25t96.5 63z" />
<glyph unicode="&#x152;" horiz-adv-x="2053" d="M2103 1120q0 -72 -23.5 -128.5t-63.5 -100.5t-93.5 -76t-113.5 -54t-123.5 -34.5t-123.5 -17.5v18q66 23 136.5 61t128 89.5t95 117t37.5 144.5q0 86 -47 137t-135 51q-69 0 -137 -21.5t-130 -60t-115.5 -90.5t-92.5 -113.5t-61.5 -129t-22.5 -136.5q0 -75 31 -138 t81 -112t114 -82.5t130 -50.5v-18q-32 -13 -68 -35t-72.5 -51t-70 -65t-59.5 -76t-41.5 -83.5t-15.5 -88.5q0 -116 57.5 -176t173.5 -60q65 0 124.5 17.5t111 50t94.5 78.5t75 102l13 -6q-27 -72 -78 -137t-118 -114t-146.5 -77.5t-163.5 -28.5q-65 0 -120 19t-95 56 t-63 91.5t-23 126.5q0 143 85 251.5t253 180.5q-88 0 -158.5 29t-120.5 83q-3 -82 -19 -175t-47.5 -184t-77.5 -175t-108.5 -148t-142 -102t-176.5 -38q-100 0 -177.5 37.5t-135.5 100t-98 144.5t-64.5 171t-35.5 179t-11 170q0 85 8 175.5t27.5 180t51.5 175t79.5 160 t112 135t149.5 100.5l8 -14q-60 -49 -105.5 -113t-79 -137.5t-56.5 -154t-36.5 -162t-19.5 -162t-6 -154.5q0 -69 9.5 -152t31.5 -168t58 -165t88 -142t122 -99.5t160 -37.5q72 0 128.5 35.5t98.5 93.5t71 132t47 150t26 147.5t8 125.5q0 42 -4.5 99.5t-15 122.5t-26.5 134 t-40 134.5t-55.5 123.5t-72.5 102t-91 69.5t-111 25.5q-54 0 -92 -25.5t-61.5 -65.5t-34 -88.5t-10.5 -94.5v-13.5t2 -13.5l-15 -2q-3 22 -5.5 44.5t-2.5 45.5q0 62 16.5 120.5t49.5 103.5t83.5 72.5t118.5 27.5q85 0 152.5 -33.5t118.5 -89.5t88 -129.5t61 -154.5 q26 64 68 124t96 113t117 96.5t131.5 74.5t140.5 48.5t143 17.5q64 0 122 -13.5t101.5 -44t69 -80.5t25.5 -122z" />
<glyph unicode="&#x153;" horiz-adv-x="1115" d="M1195 143q-26 -38 -62.5 -71t-80 -57t-91 -38t-95.5 -14q-97 0 -174 35.5t-117 109.5q-41 -65 -109.5 -103t-156.5 -38q-63 0 -113.5 23.5t-86.5 63.5t-55 93.5t-19 114.5q0 51 14.5 97t40.5 85.5t62 73t78 60.5l12 -9q-42 -49 -66 -108t-24 -125q0 -48 14.5 -97.5 t42.5 -90.5t70 -67t96 -26q34 0 64 14t52.5 38t36 54.5t13.5 63.5q0 32 -9.5 62.5t-26.5 57t-41 48t-52 35.5q-16 8 -30.5 12t-31.5 9q-7 2 -15 4t-15 6t-12 9.5t-5 14.5q0 18 13 33t31 26.5t38 18t35 6.5q63 0 106.5 -38t68.5 -92q46 72 122 115.5t169 43.5q34 0 63.5 -9.5 t51.5 -28t34.5 -45.5t12.5 -62q0 -42 -17 -74t-45 -56t-63.5 -40t-74 -26t-76 -14.5t-68.5 -4.5h-24q13 -91 72 -139t163 -48q74 0 144.5 26t127.5 72zM702 266q36 0 74 11.5t68.5 34t50.5 55.5t20 75q0 41 -17.5 68t-60.5 27q-44 0 -74.5 -27t-49.5 -67.5t-27.5 -88 t-8.5 -88.5h25z" />
<glyph unicode="&#x178;" horiz-adv-x="985" d="M0 0zM1085 1262q0 -39 -12.5 -80.5t-28.5 -75.5q-42 -97 -95.5 -186.5t-114.5 -176.5q-16 -22 -42.5 -52.5t-57.5 -65.5t-63 -73t-60 -75.5t-48.5 -72t-27.5 -62.5q-7 -25 -7 -52v-50q0 -24 1.5 -68.5t4 -99t7.5 -113.5t11.5 -112t16 -94.5t21.5 -61.5l4 -8t2 -9 q0 -7 -4.5 -11t-10.5 -6t-12 -2.5t-10 -0.5q-22 0 -42.5 4t-39.5 10q-30 10 -47 30t-26 45.5t-11 54t-2 55.5q0 51 4 112t10.5 123.5t15.5 123.5t19 114q-8 18 -29.5 46.5t-48 59t-51.5 58.5t-39 45q-48 58 -96.5 125t-87.5 140.5t-63.5 151.5t-24.5 158q0 59 19.5 112 t62.5 91q9 8 23 19.5t29.5 22t31.5 18t29 7.5q20 0 20 -22v-7t-2 -8q-11 -48 -17 -95t-6 -97q0 -114 26 -212t69 -189t98 -178.5t113 -178.5q37 56 80 119t86 130t83.5 137.5t71.5 142t49.5 143t18.5 141.5q0 26 -3.5 50t-11.5 47v8q0 15 12.5 24t29 14t34 7t27.5 2 q25 0 45.5 -4.5t35.5 -15.5t23 -29.5t8 -46.5zM524 1585q0 -37 -24.5 -60.5t-59.5 -23.5q-33 0 -57.5 23.5t-24.5 60.5q0 16 6.5 31t18 26.5t26 18t31.5 6.5q18 0 33 -6.5t26.5 -18t18 -26.5t6.5 -31zM778 1585q0 -37 -24.5 -60.5t-59.5 -23.5q-33 0 -57.5 23.5t-24.5 60.5 q0 16 6.5 31t18 26.5t26 18t31.5 6.5q18 0 33 -6.5t26.5 -18t18 -26.5t6.5 -31z" />
<glyph unicode="&#x2c6;" horiz-adv-x="500" d="M4 652q31 36 58 70.5t53 71t51.5 78t53.5 92.5h60q28 -51 53.5 -92.5t51.5 -78t53 -71t58 -70.5l-11 -14q-35 18 -63.5 36t-56 37.5t-55.5 41.5t-60 49q-32 -27 -60 -49t-55.5 -42t-56.5 -37.5t-63 -35.5z" />
<glyph unicode="&#x2da;" horiz-adv-x="500" d="M118 802q0 32 12 60t33 49t49 33t60 12t60 -12t49 -33t33 -49t12 -60t-12 -60t-33 -49t-49 -33t-60 -12t-60 12t-49 33t-33 49t-12 60zM199 802q0 -30 21.5 -51.5t51.5 -21.5t51.5 21.5t21.5 51.5t-21.5 51.5t-51.5 21.5t-51.5 -21.5t-21.5 -51.5z" />
<glyph unicode="&#x2dc;" horiz-adv-x="500" d="M38 706q3 47 18 85q6 16 15 31.5t22 27.5t30 19.5t39 7.5q25 0 49 -11t47.5 -23.5t47.5 -23.5t48 -11q25 0 39.5 8.5t22.5 19.5q9 12 12 28h34q-5 -47 -21 -83q-14 -32 -39.5 -57.5t-68.5 -25.5q-24 0 -49.5 11t-50 23.5t-46.5 23.5t-40 11q-24 0 -39 -10t-23 -21 q-10 -13 -13 -30h-34z" />
<glyph unicode="&#x2000;" horiz-adv-x="915" />
<glyph unicode="&#x2001;" horiz-adv-x="1831" />
<glyph unicode="&#x2002;" horiz-adv-x="915" />
<glyph unicode="&#x2003;" horiz-adv-x="1831" />
<glyph unicode="&#x2004;" horiz-adv-x="610" />
<glyph unicode="&#x2005;" horiz-adv-x="457" />
<glyph unicode="&#x2006;" horiz-adv-x="305" />
<glyph unicode="&#x2007;" horiz-adv-x="305" />
<glyph unicode="&#x2008;" horiz-adv-x="228" />
<glyph unicode="&#x2009;" horiz-adv-x="366" />
<glyph unicode="&#x200a;" horiz-adv-x="101" />
<glyph unicode="&#x2010;" horiz-adv-x="550" d="M439 444q27 0 40.5 -19t15.5 -39q1 -14 -1.5 -26t-11.5 -21t-25 -14t-43 -5q-47 0 -75 0.5t-52 0.5t-51 0.5t-72 0.5q-21 0 -40.5 2t-35 9t-24.5 21.5t-9 40.5q0 28 17 45.5t43 17.5q3 0 6 -0.5t6 -0.5q75 -8 150 -10.5t162 -2.5z" />
<glyph unicode="&#x2011;" horiz-adv-x="550" d="M439 444q27 0 40.5 -19t15.5 -39q1 -14 -1.5 -26t-11.5 -21t-25 -14t-43 -5q-47 0 -75 0.5t-52 0.5t-51 0.5t-72 0.5q-21 0 -40.5 2t-35 9t-24.5 21.5t-9 40.5q0 28 17 45.5t43 17.5q3 0 6 -0.5t6 -0.5q75 -8 150 -10.5t162 -2.5z" />
<glyph unicode="&#x2012;" horiz-adv-x="550" d="M439 444q27 0 40.5 -19t15.5 -39q1 -14 -1.5 -26t-11.5 -21t-25 -14t-43 -5q-47 0 -75 0.5t-52 0.5t-51 0.5t-72 0.5q-21 0 -40.5 2t-35 9t-24.5 21.5t-9 40.5q0 28 17 45.5t43 17.5q3 0 6 -0.5t6 -0.5q75 -8 150 -10.5t162 -2.5z" />
<glyph unicode="&#x2013;" horiz-adv-x="600" d="M533 424q27 0 40.5 -14t15.5 -34q1 -14 -1.5 -24.5t-11.5 -17.5t-25 -10.5t-43 -3.5q-94 0 -196 1t-193 1q-21 0 -40.5 0.5t-35 5.5t-24.5 18t-9 39q0 28 17 40.5t43 12.5q3 0 6 -0.5t6 -0.5q37 -4 96 -6.5t123.5 -4t126.5 -2t105 -0.5z" />
<glyph unicode="&#x2014;" horiz-adv-x="1000" d="M944 424q27 0 41.5 -14t14.5 -34q0 -14 -2.5 -24.5t-11 -17.5t-24.5 -10.5t-43 -3.5h-95t-144 0.5t-168 0.5t-167.5 0.5t-142.5 0.5h-93q-21 0 -40.5 0.5t-35 5.5t-24.5 18t-9 39q0 28 17 40.5t43 12.5q3 0 6 -0.5t6 -0.5q19 -2 61.5 -3.5t100.5 -3t127 -2.5t141 -1.5 t142 -1t129.5 -1t104 -0.5h66.5z" />
<glyph unicode="&#x2018;" horiz-adv-x="245" d="M145 1326q-6 -14 -10.5 -29.5t-5 -30t4.5 -26t18 -18.5q26 -14 44.5 -35.5t18.5 -52.5q0 -19 -7 -36t-19.5 -29.5t-29.5 -19.5t-36 -7q-38 0 -64 27t-28 65q-3 40 10.5 74.5t32 60.5t36.5 42.5t25 21.5q2 -1 5 -3l3 -3q1 -1 2 -1z" />
<glyph unicode="&#x2019;" horiz-adv-x="245" d="M100 1049q6 14 10.5 29.5t5 30t-4.5 26t-18 18.5q-26 14 -44.5 35.5t-18.5 52.5q0 19 7 36t19.5 29.5t29.5 19.5t36 7q38 0 64 -27t28 -65q3 -40 -10.5 -74.5t-32 -60.5t-36.5 -42.5t-25 -21.5q-3 1 -5 3q-5 3 -5 4z" />
<glyph unicode="&#x201a;" horiz-adv-x="245" d="M100 -120q6 14 10.5 29.5t5 30t-4.5 26t-18 18.5q-26 14 -44.5 35.5t-18.5 52.5q0 19 7 36t19.5 29.5t29.5 19.5t36 7q38 0 64 -27t28 -65q3 -40 -10.5 -74.5t-32 -60.5t-36.5 -42.5t-25 -21.5q-3 1 -5 3q-5 3 -5 4z" />
<glyph unicode="&#x201c;" horiz-adv-x="475" d="M375 1323q-6 -14 -10.5 -29.5t-5 -30t4.5 -26t18 -18.5q26 -14 44.5 -35.5t18.5 -52.5q0 -19 -7 -36t-19.5 -29.5t-29.5 -19.5t-36 -7q-38 0 -64 27t-28 65q-3 40 10.5 74.5t32 60.5t36.5 42.5t25 21.5q2 -1 5 -3l3 -3q1 -1 2 -1zM145 1323q-6 -14 -10.5 -29.5t-5 -30 t4.5 -26t18 -18.5q26 -14 44.5 -35.5t18.5 -52.5q0 -19 -7 -36t-19.5 -29.5t-29.5 -19.5t-36 -7q-38 0 -64 27t-28 65q-3 40 10.5 74.5t32 60.5t36.5 42.5t25 21.5q2 -1 5 -3l3 -3q1 -1 2 -1z" />
<glyph unicode="&#x201d;" horiz-adv-x="475" d="M100 1046q6 14 10.5 29.5t5 30t-4.5 26t-18 18.5q-26 14 -44.5 35.5t-18.5 52.5q0 19 7 36t19.5 29.5t29.5 19.5t36 7q38 0 64 -27t28 -65q3 -40 -10.5 -74.5t-32 -60.5t-36.5 -42.5t-25 -21.5q-3 1 -5 3q-5 3 -5 4zM330 1046q6 14 10.5 29.5t5 30t-4.5 26t-18 18.5 q-26 14 -44.5 35.5t-18.5 52.5q0 19 7 36t19.5 29.5t29.5 19.5t36 7q38 0 64 -27t28 -65q3 -40 -10.5 -74.5t-32 -60.5t-36.5 -42.5t-25 -21.5q-3 1 -5 3q-5 3 -5 4z" />
<glyph unicode="&#x201e;" horiz-adv-x="475" d="M100 -120q6 14 10.5 29.5t5 30t-4.5 26t-18 18.5q-26 14 -44.5 35.5t-18.5 52.5q0 19 7 36t19.5 29.5t29.5 19.5t36 7q38 0 64 -27t28 -65q3 -40 -10.5 -74.5t-32 -60.5t-36.5 -42.5t-25 -21.5q-3 1 -5 3q-5 3 -5 4zM330 -120q6 14 10.5 29.5t5 30t-4.5 26t-18 18.5 q-26 14 -44.5 35.5t-18.5 52.5q0 19 7 36t19.5 29.5t29.5 19.5t36 7q38 0 64 -27t28 -65q3 -40 -10.5 -74.5t-32 -60.5t-36.5 -42.5t-25 -21.5q-3 1 -5 3q-5 3 -5 4z" />
<glyph unicode="&#x2022;" horiz-adv-x="573" d="M123 481q0 34 13 64t35.5 52.5t52 36t63.5 13.5t63.5 -13.5t52 -36t35.5 -52.5t13 -64q0 -33 -13 -62.5t-35.5 -51.5t-52 -35t-63.5 -13t-63.5 13t-52 35t-35.5 51.5t-13 62.5z" />
<glyph unicode="&#x2026;" horiz-adv-x="1352" d="M200 72q0 19 7 36t19.5 29.5t29.5 19.5t36 7t36 -7t29.5 -19.5t19.5 -29.5t7 -36t-7 -36t-19.5 -29.5t-29.5 -19.5t-36 -7t-36 7t-29.5 19.5t-19.5 29.5t-7 36zM584 72q0 19 7 36t19.5 29.5t29.5 19.5t36 7t36 -7t29.5 -19.5t19.5 -29.5t7 -36t-7 -36t-19.5 -29.5 t-29.5 -19.5t-36 -7t-36 7t-29.5 19.5t-19.5 29.5t-7 36zM968 72q0 19 7 36t19.5 29.5t29.5 19.5t36 7t36 -7t29.5 -19.5t19.5 -29.5t7 -36t-7 -36t-19.5 -29.5t-29.5 -19.5t-36 -7t-36 7t-29.5 19.5t-19.5 29.5t-7 36z" />
<glyph unicode="&#x202f;" horiz-adv-x="366" />
<glyph unicode="&#x2039;" horiz-adv-x="378" d="M192 315q0 -13 6.5 -32t17 -40.5t24 -45.5t27.5 -46q33 -53 76 -112l-18 -13q-77 62 -138 118q-26 24 -50.5 48.5t-44 47.5t-31 42.5t-11.5 32.5t11.5 32.5t31 42t44 47.5t50.5 49q61 55 138 118l23 -12q-44 -59 -78 -112q-15 -23 -29 -46.5t-25 -45.5t-17.5 -41 t-6.5 -32z" />
<glyph unicode="&#x203a;" horiz-adv-x="378" d="M186 315q0 13 -6.5 32t-17 40.5t-24.5 45t-28 46.5q-33 53 -75 112l18 13q76 -63 137 -118q26 -24 50.5 -49t44 -47.5t31.5 -42t12 -32.5t-12 -32.5t-31.5 -42.5t-44 -47.5t-50.5 -48.5q-61 -56 -137 -118l-23 12q44 58 78 112q15 22 29 46t25 46t17.5 41t6.5 32z" />
<glyph unicode="&#x205f;" horiz-adv-x="457" />
<glyph unicode="&#x20ac;" horiz-adv-x="1031" d="M559 450q-15 2 -31.5 2.5t-31.5 0.5q-42 0 -94.5 -3.5t-109.5 -10.5q8 -72 29.5 -138.5t59 -117.5t92.5 -81.5t131 -30.5q41 0 81.5 14t75.5 37t64 54t48 64l15 -8q-18 -48 -49.5 -94t-74 -82t-95.5 -58t-114 -22q-93 0 -164 36.5t-119.5 98t-76.5 142t-35 167.5 q-62 -11 -106 -24q-5 -1 -13 -1q-20 0 -30.5 16t-10.5 33q0 26 16.5 40.5t41 21.5t51.5 8.5t48 1.5q1 42 6 86q-19 -3 -36 -6.5t-34 -6.5q-5 -1 -9 -1h-8q-27 0 -41.5 15.5t-14.5 32.5q0 20 14.5 33t37.5 20.5t51.5 11t55.5 4.5q25 120 75 229t123.5 192.5t168 132.5 t207.5 49q58 0 105.5 -15.5t81.5 -44.5t52.5 -71t18.5 -95q0 -55 -20.5 -99.5t-55.5 -79.5t-81 -61t-96.5 -42.5t-103 -24.5t-100.5 -8h-5v20q69 8 132.5 30.5t111.5 61t77 93t29 126.5q0 78 -42 124t-112 46q-101 0 -177 -51t-130.5 -132t-88.5 -181t-49 -199 q49 -1 109 -3.5t119.5 -7.5t112.5 -13t89 -20l-6 -19q-20 2 -42.5 2.5t-42.5 0.5q-77 0 -167.5 -6.5t-181.5 -17.5q-3 -44 -3 -82v-27q38 -3 79 -7t79 -9.5t70 -13t52 -16.5z" />
<glyph unicode="&#x2122;" horiz-adv-x="1497" d="M381 1324q-2 -6 -3.5 -14.5t-3.5 -19.5q51 -5 105.5 -15t100.5 -27q11 23 30 38.5t51 15.5q12 0 21 -5t9 -17v-7q-2 -14 -4.5 -27t-4.5 -27l-4 -24l-4 -24v1q-10 -85 -16.5 -169t-6.5 -170q0 -17 -0.5 -24t-1 -12.5t-0.5 -13t2 -23.5q45 142 72 228.5t41.5 135t20 67 t7.5 24.5q1 2 1 5q8 17 22.5 31.5t39.5 14.5q15 0 26.5 -7t19 -17.5t11.5 -22.5t4 -22q-1 -44 -1.5 -86.5t-2.5 -85.5q-2 -50 -4 -97.5t-2 -96.5q0 -18 -1 -30t-2 -23t-1.5 -23t1.5 -30q15 48 31 102t34 111.5t38.5 116.5t44.5 116q8 17 24.5 34t42.5 17q17 0 28.5 -9.5 t18 -23t9.5 -28t3 -24.5q0 -24 -1 -50.5t-3 -55.5q-2 -34 -3 -69.5t-1 -72.5q0 -68 9 -135.5t36 -120.5t77 -86t132 -33q14 0 44 14l10 -20q-21 -14 -41 -18t-40 -4q-68 0 -119 21.5t-88 59t-61 87t-38.5 105t-20.5 115t-6 115.5q0 32 3.5 54t6.5 50q-13 -32 -28.5 -76.5 t-31.5 -93t-31.5 -97.5t-28.5 -90.5t-22 -71t-12 -38.5q-2 -6 -7 -15t-12.5 -17t-17 -14t-19.5 -6q-12 0 -19.5 6t-12.5 14t-7.5 17.5t-3.5 16.5q0 1 -0.5 2.5t-0.5 2.5q-3 19 -4.5 53.5t-3 77t-2.5 90.5t-1.5 95t-1 89t-0.5 73q-16 -41 -35 -102.5t-38 -130t-36.5 -138 t-31.5 -124.5l-1 -2q-4 -13 -12 -27.5t-28 -14.5q-9 0 -17.5 4.5t-15.5 11.5t-12 14.5t-6 13.5q-5 20 -6.5 49.5t-2.5 50.5q-5 57 -6.5 115.5t-1.5 116.5q0 57 1 113t6 113q1 11 2.5 23.5t5.5 25.5q-87 9 -160 9q-12 -1 -22.5 -1t-21.5 -1q-4 -37 -8 -82t-7 -94.5 t-4.5 -101.5t-1.5 -102q0 -78 5 -144.5t16 -109.5q0 -1 2 -5l2 -4t1 -5q0 -10 -7.5 -17.5t-21.5 -7.5q-12 0 -29 6t-25 11q-15 10 -22.5 30t-11.5 42.5t-4.5 44t-0.5 35.5q0 48 4.5 109t13.5 127t21.5 134t27.5 130q-69 -7 -118.5 -19.5t-95.5 -27.5h2q-7 -4 -18 -4 q-12 0 -19.5 6t-7.5 17q0 8 5.5 19t11.5 20q13 15 40.5 26t59.5 18t62 10.5t48 3.5q11 0 23 -0.5t25 -1.5q3 11 6.5 20t6.5 19z" />
<glyph unicode="&#xe000;" horiz-adv-x="585" d="M0 585h585v-585h-585v585z" />
<glyph horiz-adv-x="500" d="M0 0z" />
</font>
</defs>
</svg>
