<?xml version="1.0" standalone="no"?>
<!DOCTYPE svg PUBLIC "-//W3C//DTD SVG 1.1//EN" "http://www.w3.org/Graphics/SVG/1.1/DTD/svg11.dtd" >
<svg xmlns="http://www.w3.org/2000/svg">
<metadata></metadata>
<defs>
<font id="boston_trafficregular" horiz-adv-x="636" >
<font-face units-per-em="2048" ascent="1638" descent="-410" />
<missing-glyph horiz-adv-x="390" />
<glyph horiz-adv-x="2048" />
<glyph horiz-adv-x="2048" />
<glyph unicode="&#xd;" horiz-adv-x="390" />
<glyph unicode=" "  horiz-adv-x="390" />
<glyph unicode="&#x09;" horiz-adv-x="390" />
<glyph unicode="&#xa0;" horiz-adv-x="390" />
<glyph unicode="!" horiz-adv-x="249" />
<glyph unicode="&#x22;" horiz-adv-x="237" />
<glyph unicode="#" />
<glyph unicode="$" />
<glyph unicode="%" />
<glyph unicode="&#x26;" horiz-adv-x="486" />
<glyph unicode="'" horiz-adv-x="169" />
<glyph unicode="(" horiz-adv-x="336" />
<glyph unicode=")" horiz-adv-x="384" />
<glyph unicode="*" horiz-adv-x="492" />
<glyph unicode="+" />
<glyph unicode="," horiz-adv-x="237" />
<glyph unicode="-" horiz-adv-x="532" d="M65 1058l8 -34q-25 -122 -8 -213h25l60 -9h26h25h26h111l43 9v25v69l-18 170l-25 9l-68 -9h-26l-171 9z" />
<glyph unicode="." horiz-adv-x="521" d="M48 146q62 -237 256 -128q124 145 -68 273h-17h17h-17q-130 -32 -171 -145z" />
<glyph unicode="/" horiz-adv-x="1001" d="M-15 252l-1 1550h505zM1023 347l-114 -349h-505l584 1804h35v-1455z" />
<glyph unicode="0" horiz-adv-x="1179" d="M139 1609l-34 -137l-17 -86v-43l-9 -25q-2 -114 0 -155l-17 -69v-240q-38 -830 412 -866v69v171v43q-133 187 -86 420v35v43v51v43v26v43v25v35v34v34v86v26v25v26v69q-2 79 9 137q34 56 77 77v69v68v172h-35q-193 -64 -300 -206zM628 1772v-266q51 -49 94 -77v-34v-112 q9 -86 0 -146q0 -43 -8 -68l8 -60l-25 -43l25 -17v-412l-8 -69q6 -32 0 -60l-26 -51q-62 -43 -86 -103q9 -13 9 -26q-11 -133 17 -231q178 27 300 145q32 103 69 163v35l8 25v35v25l9 35q-2 49 8 86v68l9 17v69v171v35v34v34v35v34v34v26v34q-15 48 -9 86q-17 86 -17 146 q-17 86 -17 146q-19 45 -17 77q-122 180 -309 214z" />
<glyph unicode="1" horiz-adv-x="656" d="M37 1685q-13 -145 17 -251q139 48 148 9v-130q-5 -89 8 -147q-11 -70 0 -122l-8 -43q-5 -89 8 -147l-8 -43v-589q4 -89 -9 -147q6 -46 0 -78h26q41 -9 69 -9q87 -9 156 35q26 6 43 0l-9 60q-4 70 9 121l-9 26l9 26v26v61v35l-9 17q15 82 9 139v25v70v26q6 95 -9 156 q3 23 0 34v26v35l9 34v26v269v95v43v113v35v147v26v104q-15 8 -17 17h-147h-26h-104q-71 -89 -156 -130z" />
<glyph unicode="2" horiz-adv-x="1185" d="M73 1420l8 -26l26 -8h25l17 -17l25 -9l26 -8l16 -8l26 -9l110 -42q14 34 42 59q12 118 118 160l9 26v25v25q-13 32 -9 68v25v110l-51 34q-346 -84 -388 -405zM723 1403q15 -121 -8 -212l-17 -16q-23 -66 -42 -102l-34 -50q-97 -95 -194 -127q-45 -59 -102 -76v-26 l-59 -50q-19 -26 -42 -42q-47 -102 -118 -161q-2 -61 0 -101l33 -17h26l17 8h50h34q13 -4 25 0q70 -19 119 -17l42 102l135 135l25 17l26 25l25 25l17 17l25 26q40 33 68 50l17 26l17 17l25 16l17 17l25 17q38 72 85 110q217 568 -296 786h-25q-64 -235 84 -397zM81 9l59 -9 l26 9l25 -9q133 13 220 0h59h42h85h33h93h34l25 -8q114 17 186 8q4 17 17 17v26v33v26l8 169q-16 57 -76 67l-33 -17q-87 -4 -144 9q-44 -11 -67 -9h-34l-34 9q-57 -11 -101 0q-100 -11 -169 8l-9 -17l-25 9q-125 -11 -211 8q-66 -181 -9 -329z" />
<glyph unicode="3" horiz-adv-x="1168" d="M39 1422l26 -8q51 -45 94 -69q77 -51 154 -51q37 160 163 214q0 64 17 111q-23 97 0 172q-51 38 -102 34q-305 -111 -352 -403zM579 1782q15 -116 -8 -206q15 -42 17 -77q75 -34 94 -103v-51q-2 -75 0 -129q-69 -124 -197 -128l-17 -197q4 -63 17 -103q289 -32 163 -429 q-56 -34 -86 -77v-171q-2 -63 0 -103q564 55 394 763q-32 30 -34 60q-60 49 -86 103q63 79 120 120q153 580 -343 771zM236 539h-26q-66 -38 -120 -43l-51 -34q-15 -304 257 -437l137 -43q24 49 35 94q-20 101 0 189v17q-135 116 -163 266l-52 8z" />
<glyph unicode="4" horiz-adv-x="1235" d="M703 1806q-13 -69 -68 -85l-9 -34v-42l-8 -26q11 -41 0 -77q28 -92 17 -170v-60l8 -25l-8 -26q13 -69 8 -119v-205q-1 -95 0 -153l-8 -34v-554q-6 -110 17 -187l17 -9h34h25h34h154l17 26v34v34v34v145v25v102q59 17 102 18q-4 80 17 144q4 142 -119 120v59v26v34v26v42 v26v34v25v171v34v34v26v153v111v34v145v25v102q-15 9 -17 17h-26l-170 9q-9 -10 -17 -9zM464 1397l-8 -51l-26 -25l-17 -43l-34 -34l-17 -43l-26 -42l-17 -43q-49 -66 -68 -119l-25 -34q-19 -50 -51 -77q-65 -138 -120 -213v-68q-7 -113 0 -187q15 -9 17 -18h85h26h26h25h60 q114 13 187 0l34 18v34l9 25l-9 188l-42 25q-67 -9 -120 9l26 25l9 17l17 26l17 8q49 91 93 145v34q2 32 17 51l-17 26v51l9 26v42v26v34v26l8 170l-42 26z" />
<glyph unicode="5" horiz-adv-x="1201" d="M825 1816h-43h-268h-120h-26l-26 -8l-26 8q-113 -13 -182 -8v-61l9 -17q-15 -48 -9 -104l-17 -34l-17 -190l-9 -35v-60l-17 -121v-26l-9 -138l9 -35l17 -8l17 -18q143 -84 216 -173h26q59 61 121 78l9 61q-22 103 9 190l-26 60l-26 -8q-22 -16 -43 -18v69v26l17 61v26 q30 80 26 146l26 18h51l35 8h43l35 -8l34 8l35 -8l26 8l26 -8q116 19 198 8q37 171 9 303l-86 17q-24 -9 -44 -9zM584 1117v-69l-9 -173l104 -95v-26q17 -80 8 -138q11 -9 9 -18v-138q-17 -69 -17 -121q-67 -34 -95 -95l8 -17v-60q-8 -95 -8 -156q408 -28 423 527 q34 518 -398 639zM299 547l-35 -18l-216 -95q30 -308 285 -432q181 -97 138 277q-127 88 -121 224l-26 44h-8h8h-17h9h-17h8h-8z" />
<glyph unicode="6" horiz-adv-x="1179" d="M423 1818q-111 -37 -182 -104l-9 -26l-8 -17l-18 -9l-8 -17l-9 -18l-52 -104v-26l-17 -69v-26l-26 -130v-112q-37 -191 -9 -329q-37 -775 398 -831l9 26v26v26q9 132 0 216q-113 61 -130 173q-48 269 121 347l9 17l9 78q13 119 -26 208q-68 -50 -104 0v26v26 q15 134 8 216q39 119 104 190v26l9 18v69l-9 138l-43 9q-9 -15 -17 -17zM622 1593q143 -98 182 -251q93 54 173 69q84 286 -321 415q-54 -119 -34 -233zM622 1099v-60l-18 -96q24 -45 18 -95q143 -123 121 -303q13 -190 -139 -268v-242q24 -18 35 -35q374 136 364 511 q49 456 -347 597z" />
<glyph unicode="7" horiz-adv-x="1149" d="M57 1808v-35l-9 -17l9 -34q-7 -116 8 -198l35 -9q30 9 60 9l43 -9q64 2 103 9h26l26 -9l69 9q79 -7 137 0l52 -9q-22 -67 -9 -120l52 -18q24 11 43 9q41 11 69 0h51q46 11 78 9q28 66 60 112v25q4 175 -17 293h-43h-43l-43 -9h-112l-17 9q-71 -9 -129 0h-26h-26h-26 q-88 -17 -155 0q-139 -37 -258 0zM530 1274q-15 -26 -35 -34q-10 -114 -51 -190l-9 -43l-8 -34l-26 -121l-9 -34q-21 -50 -34 -95v-34q-22 -71 -26 -121q-32 -84 -34 -163l-18 -69q-2 -80 -26 -138q0 -62 -8 -103q-11 -50 -9 -86l26 -9l43 9l17 -9h26q97 -8 164 0l43 43v26 v103l25 155v26l9 35l9 68q4 50 17 87q24 137 60 232v26l9 34l17 26q4 62 26 112q10 95 51 155q9 62 35 103l-17 43q-65 9 -104 9q-90 -24 -163 -9z" />
<glyph unicode="8" horiz-adv-x="1224" d="M533 1799h-26l-179 -94q-252 -431 43 -769l-26 -17l-111 -136q-186 -697 367 -778q81 216 -68 367q-17 118 -17 197q17 79 17 128q58 60 111 86q2 21 9 34v51q-20 79 0 145l-26 60q-49 21 -77 60v102l-8 52l8 42q-8 65 0 112l60 51l17 94q-6 60 0 102q-9 49 0 94 q-43 32 -77 43zM730 1774v-52q14 -98 0 -170q19 -26 25 -52q60 -17 77 -68q49 -237 -85 -350l-9 -60l-8 -51l8 -26l-8 -26q19 -79 17 -136q132 -131 94 -308q-24 -126 -120 -196q21 -152 -9 -265l26 8q30 -38 68 -34q41 23 86 26q34 30 68 34q421 440 26 854q21 62 77 94 q13 45 43 69q153 587 -334 760q-19 -30 -42 -51z" />
<glyph unicode="9" horiz-adv-x="1119" d="M323 1818q-34 -34 -76 -43q-2 -21 -9 -34q-49 -47 -85 -68q-120 -263 -86 -512q26 -389 385 -444q32 151 8 264q-96 62 -128 163v145v25v103q55 91 120 145v34l8 17q-13 32 -8 68v26v111l-69 17q-30 -15 -60 -17zM554 1801q19 -39 -9 -77q24 -87 0 -154q28 -19 26 -51 q152 -96 120 -273q12 -162 -120 -222q-9 -64 -9 -111q15 -58 0 -102l9 -52q15 -15 17 -34q47 22 94 26q51 -339 -128 -504l17 -25q-2 -94 -26 -154l26 -60q181 54 290 179q32 99 68 154q0 62 18 111v43v34l8 34v26v42q17 165 9 265v68v26v25v26v103l-9 51v25l-8 26v102 l-18 17l-8 103q-13 32 -17 68q-28 47 -34 86q-126 162 -290 204zM67 375v-68q101 -201 282 -265q162 -79 120 205l-35 17q-111 96 -162 214h-42q-84 -73 -163 -103z" />
<glyph unicode=":" horiz-adv-x="231" />
<glyph unicode=";" horiz-adv-x="237" />
<glyph unicode="&#x3c;" horiz-adv-x="994" d="M95 898l300 900h505l-320 -900l320 -900h-505z" />
<glyph unicode="=" />
<glyph unicode="&#x3e;" horiz-adv-x="994" d="M600 -2h-505l320 900l-320 900h505l300 -900z" />
<glyph unicode="?" horiz-adv-x="567" />
<glyph unicode="@" horiz-adv-x="579" />
<glyph unicode="A" horiz-adv-x="1230" d="M371 1821l-9 -52l17 -51v-52l18 -51l8 -60q22 -25 17 -52q8 -45 17 -68l9 -43l9 -60l17 -43l8 -17q0 -80 18 -129l8 -43l9 -34q7 -60 25 -94q0 -50 9 -86q13 -65 9 -112q10 -8 8 -17l9 -17q15 -82 34 -137l-69 -26q5 -119 -42 -206l8 -60q15 -8 17 -17q80 7 138 -8 q15 -170 60 -275h42l26 -8q33 11 69 8h26l154 -8v60l-34 137l-9 17l-8 137l-26 34v35l-17 68q-10 9 -9 18v25q-21 80 -26 138q-26 85 -34 145l-9 60q-27 84 -25 155q-47 87 -43 163q-22 69 -17 120q-10 13 -9 25q-7 15 -17 18v42l-9 35l-8 68q-10 13 -9 26l-8 34v43 q-27 110 -26 180q-29 19 -43 43q-130 -35 -223 26q-23 -38 -60 -34zM251 1203v-34l-17 -69l-35 -180q-26 -86 -25 -146l-18 -34v-43l-25 -120l-17 -60l-9 -51l-17 -120q-38 -111 -43 -189q-27 -67 -26 -129l17 -25h26h26l111 -9q77 28 138 26l8 34l9 17q-2 93 17 155v34 l8 17l9 77v26l9 26v68q30 68 25 129l-8 34v26q-10 13 -9 26l-17 171l-9 34v35l-8 17v34q-22 61 -17 112q-19 76 -17 137l-60 17z" />
<glyph unicode="B" horiz-adv-x="1141" d="M504 1838q28 -102 9 -200q15 -43 8 -78q167 -91 122 -269q30 -200 -139 -243v-61q9 -117 0 -191q174 -78 130 -260q37 -200 -147 -270l8 -26l9 -26v-95q-2 -80 9 -139q375 41 416 391q61 247 -43 460l-17 8l-122 79q65 56 122 69q4 43 43 52q167 710 -347 816 q-31 -22 -61 -17zM18 1794v-26q13 -117 9 -191v-234l-9 -18q11 -8 9 -17q-2 -93 0 -156v-156q0 -65 -9 -105l9 -86l-9 -174v-590l17 -26q154 -57 295 8l18 61l-9 70l-9 52v69l9 35l-9 17q-10 137 9 235l-9 52q0 43 -8 69l8 52l9 78q-11 63 -9 113v52l9 18q-9 63 0 104 q-9 28 -9 52l9 26v165l-9 35v34v52l-8 35l8 26v26l9 35q-9 117 0 200q-13 10 -17 26h-70q-50 21 -95 26q-83 -9 -139 -44z" />
<glyph unicode="C" horiz-adv-x="1159" d="M583 1799v-308q70 -38 103 -94v-51q-7 -88 8 -154l34 -9l17 9q69 41 129 51q36 32 77 35q21 104 -9 196q-75 291 -342 351q-4 -19 -17 -26zM386 1799l-26 -8l-42 -34h-26l-26 -9q-55 -36 -103 -51l-8 -26l-43 -43l-8 -17q-30 -77 -60 -120l-9 -59l-8 -52v-214l-9 -42 l9 -35q-9 -51 0 -94v-196q-5 -71 0 -120l-9 -17q0 -69 9 -120v-94q-3 -128 34 -223q132 -175 308 -239l77 17l8 17q-17 86 0 154q-12 111 -85 171l-17 146q8 81 0 137l8 25l-8 34l8 26v68v172q-4 64 9 111q-13 47 0 85l-9 26v34l9 26q-17 115 -9 188q30 75 103 94v34v26 q0 68 -9 120q11 64 9 111l-60 8q-8 -15 -17 -17zM686 602q12 -116 8 -188q-41 -86 -120 -112l9 -17l-17 -25q2 -43 8 -69v-34q-10 -90 -8 -145q297 -28 376 308q41 130 17 248l-25 17l-60 25l-154 52z" />
<glyph unicode="D" horiz-adv-x="1123" d="M44 1825l-26 -60q13 -33 17 -60v-629q-4 -114 0 -189v-52v-120q-4 -65 0 -112q-15 -86 -8 -146v-35q6 -66 -9 -120v-26q13 -136 0 -232l17 -35q170 -28 310 26l8 26v26q-8 79 0 137v35v94v26q-15 134 0 224v43l-8 52l-9 43l17 34q-10 41 0 69q-21 101 -8 181v34v43l8 35 q-23 133 0 232q-10 41 0 69l-8 60q-7 159 17 267q-155 79 -301 43zM483 1773q21 -112 8 -198q13 -45 9 -77q71 -2 112 -43l8 -60v-293q4 -79 -8 -138l8 -60l-17 -34q19 -48 17 -95l-8 -34l8 -35v-34q9 -131 -17 -224l17 -52q-43 -73 -120 -77l-26 -69l9 -26l8 -34 q-11 -118 9 -198q496 37 438 895q76 837 -421 938z" />
<glyph unicode="E" horiz-adv-x="1143" d="M20 1783q17 -116 9 -189v-121q-9 -99 -9 -155v-1170q-2 -80 9 -138l51 -9l35 17h34l95 -17h86h284l26 -8h60h26h26q80 4 138 -9q8 15 17 17l9 26v43l8 26v26v172l9 26q-39 28 -78 34l-43 -8h-112h-26h-94h-35l-26 8h-25l-173 -8l18 68v26l8 61v155v154l26 -17h26h26h26 q49 -4 86 0l25 -8q59 17 104 8l34 35l9 17v69v172l-26 26h-60h-26h-26q-116 8 -207 -17l-43 17v34l18 26v35q8 64 8 103v26v25q-4 102 9 173h34q48 -2 86 -18q69 -2 121 9q65 -4 103 0q138 -17 224 0l26 43l-9 35l9 60q-26 62 0 112q-15 21 -17 43h-52q-88 -5 -146 8l-43 -8 h-35q-69 8 -120 0h-26l-60 8l-18 -8q-60 13 -103 8h-26l-26 9h-69h-25h-112q-30 -37 -52 -52z" />
<glyph unicode="F" horiz-adv-x="1125" d="M38 1792v-1214v-43v-265l-9 -26l9 -43q-20 -115 -9 -188l34 -17l26 9q116 21 205 -9l43 17v111v35v153v95v34v34v34v34v146v25v103l26 -8h34h34h60h154l34 59v35v25l-8 17q10 84 0 154l-43 18q-167 -18 -282 17l8 42l-8 26l8 43l-8 68v26l8 154q37 28 69 34l34 -8l43 8 q53 -11 94 -8h43h25h34l26 8l17 -8l17 8q82 -13 137 -8q62 149 34 290l-51 17l-51 -8h-43h-26l-17 8q-64 -6 -102 0l-60 -8h-120h-26q-40 8 -68 8h-94l-26 9h-171z" />
<glyph unicode="G" horiz-adv-x="1189" d="M123 1543v-43l-17 -43q19 -57 -9 -102q14 -27 17 -51v-43q-9 -30 0 -51q-2 -41 9 -69q-15 -79 0 -137l-17 -17q15 -8 17 -17q-17 -113 0 -196q-94 -689 410 -787q14 35 34 60v26q-31 119 -17 222q-50 52 -94 77v51l-8 52v42v52v42l-9 43v34v26v171q-4 90 9 145 q-15 67 -17 111v34v154q3 66 -9 111q23 41 34 77q76 33 86 103v26v25q-10 9 -9 17v69l-8 59l-112 9q-192 -111 -290 -282zM687 1816l-8 -17v-68q-11 -109 0 -180q55 -36 85 -76q-8 -136 9 -231l60 -9l68 17q63 45 137 52q4 98 -17 171q-47 285 -308 350q-13 -10 -26 -9z M738 885l-77 -9v-256l18 -51h85q40 -201 -85 -257l-18 -60v-222q63 -72 248 34q56 -108 154 -77v112v34v111v34v34v26q-3 69 9 119q-17 85 -9 146l-8 25l8 18l-8 25l8 17v26l-8 17q2 90 -17 154q-95 -2 -154 8q-78 -18 -146 -8z" />
<glyph unicode="H" horiz-adv-x="1207" d="M48 1792v-839v-26v-94q-6 -115 9 -197q-17 -92 0 -154l-9 -26l9 -102q-28 -204 8 -343l77 -17q13 9 26 9q28 4 52 0q81 10 145 -9l26 17v26l8 26q-10 130 0 214q-15 68 -8 119v26v43v26v34v26v171q64 -4 77 51v69v25v112q-19 25 -26 51q-26 -2 -51 9l8 60q5 68 -8 119 q2 22 0 35l8 25q-15 62 0 112q-17 83 -8 145v26v26v34v26l-9 171q-94 17 -154 17q-107 -4 -180 -43zM673 1732q17 -103 0 -188v-86l9 -17v-26l-9 -137q11 -40 0 -68q28 -96 17 -171q-59 -9 -77 -43v-120q9 -64 0 -111q30 -28 69 -26q8 -96 0 -163l8 -402q-4 -94 9 -163h26 h34h146h25h103v26v26v111v34v146v25v103v26q-11 79 -9 137l9 51l-9 52v51l9 51v26l-9 17l9 34l-9 17l9 137l-9 35l9 60q-15 98 -9 171l9 26l-9 68l9 43q-21 203 0 334h-325q-26 -49 -35 -86z" />
<glyph unicode="I" horiz-adv-x="549" d="M150 1815q-45 -19 -85 -9l-34 -25v-85l9 -51l-9 -26l9 -42q-11 -162 0 -264v-145v-34v-255l8 -17q-13 -64 -8 -110l8 -51l-8 -43l8 -51l-8 -43l8 -25v-485l9 -51q78 6 136 -17q100 26 170 26v68v25v170v34v145v25v102v26v26v110v26v25v26v59v34v153v119v43v85v26v144v43 v25v26l-9 17q0 42 9 68l-17 136q-98 30 -179 8z" />
<glyph unicode="J" horiz-adv-x="1128" d="M723 1764q2 -44 9 -68l-9 -67v-119l9 -51l-9 -59q6 -66 0 -119l9 -110q0 -44 -9 -67l9 -43l-9 -42l9 -51l-9 -42q6 -32 0 -60q13 -65 0 -127q4 -67 0 -118q13 -132 -17 -229l17 -25q-53 -47 -76 -110l17 -26l-9 -42q9 -13 9 -26q-4 -91 8 -152q242 19 348 229l17 67v26 v25v26v93v84v34v26l8 59l-8 17v25v111v33v26v25v26v33v26v59v26v25q4 78 -9 136v42v25v34q4 64 0 93v26q11 203 -8 330l-26 9q-106 -20 -195 8q-50 -19 -76 -51zM181 646q-152 -538 347 -652l-8 17q36 89 17 178v101l-60 34l-8 34l-8 34v25l8 34l-8 26l8 34l-8 25v93v85h-77 q-106 -59 -203 -68z" />
<glyph unicode="K" horiz-adv-x="1157" d="M35 1778v-485q-6 -114 9 -195v-60l-9 -17q11 -8 9 -17v-25l-9 -170q13 -49 0 -94l9 -51l-9 -25l9 -34v-374v-136q-5 -71 42 -111q81 17 145 0h25q51 17 94 17l8 60v25v34v26v25v85l-8 77l8 34q-4 68 9 119l-9 25v85v34v26v170q-4 66 0 110v34q-17 79 0 145l-8 25 q4 62 0 102q10 77 -9 145l9 25v26v25v26q0 45 8 68q-11 100 17 178q-36 30 -25 60h-26h-34h-25h-170zM639 1761l-9 -26l-17 -68q-4 -93 -42 -153q-3 -159 -77 -272v-34v-59l9 -26v-34q-11 -46 -9 -85v-221l17 -17q4 -49 26 -85l-9 -34l26 -34v-59l17 -43v-59q34 -62 34 -119 l-9 -26q17 -15 17 -34v-42l17 -26q2 -49 0 -85q32 -74 34 -136h51l26 17l59 -17l60 17q55 -11 93 0l17 60l-17 42l-8 43l-26 136q-8 23 -8 42v26q-26 59 -26 102q-17 51 -17 93l-8 43q-22 80 -26 136v25q-8 13 -8 26l-9 25l-8 26v34v25q-37 100 -34 196l17 17q8 110 42 187 l9 34q19 55 25 93l9 26l17 17v25l8 34l9 26l51 246l-34 9h-26h-34h-59q-94 -9 -153 0z" />
<glyph unicode="L" horiz-adv-x="1113" d="M173 1794h-68l-59 -8l-17 -42l8 -941l-8 -59q8 -83 0 -144q2 -89 0 -144v-424l25 -17l34 -8h34l34 -9h34h110h26h42h34h25h43h42h26h101h26q114 7 195 -8q46 11 76 25v26q8 146 -9 237l-33 17q-121 -25 -212 0q-68 -13 -119 8q-106 -25 -187 17v60v51v59v51l9 59l-9 51 v25v34v68v25v26q-4 89 9 144l-17 59v59l8 51v26v25q-12 66 -8 119l8 25q-8 49 0 85l-8 34q19 201 -17 338q-95 17 -161 9q-8 -11 -17 -9z" />
<glyph unicode="M" horiz-adv-x="1356" d="M872 1793l-1 -26q-5 -66 -3 -111l-10 -410q12 -67 6 -120l-2 -419q-2 -60 6 -103q-13 -68 5 -128q-22 -100 -4 -179l-9 -17q-1 -163 27 -258q151 -20 266 11l2 94l1 34q-5 13 1 26v25l1 26q-5 13 1 26v25l-7 69q11 63 12 102l-17 35l19 51l-8 51q1 43 -6 69q11 55 2 94 l9 34l-8 17l3 94q-8 49 -7 86l1 43l2 68l1 34l-8 52l10 34q-4 22 1 42q-5 21 1 34q-10 51 2 95q-9 23 -7 42l-8 18v25l3 103v26l1 25q6 101 -4 171l-17 9q-130 -14 -222 14zM33 1788l-5 -196l25 -44l24 -60l7 -60l17 -18l-1 -25q47 -91 56 -164q13 -24 16 -43l16 -43 q34 -78 39 -138l25 -35l-1 -26q26 -60 32 -103q49 -92 56 -181l25 -26l30 -138l17 -35l7 -34l17 -26l7 -43l7 -52q10 -13 8 -25l17 -18l-1 -34l17 -26l15 -60q3 -69 23 -121q51 4 86 15l18 60q-5 28 2 51l9 34l18 42l1 34l18 34l1 26v25l18 9l38 153l-7 60q-2 113 13 187 l-8 35l9 25q-13 51 -6 94l3 120l1 26l1 34l-8 26l9 25l-8 18q17 67 12 128q-34 17 -68 18l-10 -34l-17 -16l-10 -51l-19 -68l-46 -127l-42 18l-8 51q-24 49 -23 95q-41 74 -48 138l-7 51q-14 23 -16 44l-16 34l-31 146l-16 18v34q-43 101 -55 181l-60 1l-26 1q-42 0 -68 -7 q-50 15 -94 11zM30 993l-18 -42l8 -43l-2 -60q-18 -95 -12 -162l-3 -120l7 -43l7 -77l-2 -68l-9 -26l-2 -94q5 -50 -3 -94q16 -79 5 -137q13 -23 16 -43l26 -9l17 8l26 -9l25 8l95 -3q49 8 85 7l9 25l10 34v26l-15 60l4 171q-18 65 -40 104l-8 43l-16 34l-7 43 q-26 51 -23 103l-17 18q-8 80 -39 138v25q-39 84 -56 147l-59 36h-9h9h-9z" />
<glyph unicode="N" horiz-adv-x="1162" d="M370 21l9 68l9 17q-42 191 1 340q-15 21 -17 42l-17 34l-8 43l-34 42v34l-25 26l-9 17l-42 102l-34 59l-8 34q-80 111 -101 230q-30 34 -42 68l-34 9v-26q-18 -93 -10 -161q-4 -68 9 -119l-9 -34q6 -26 0 -51q12 -57 8 -102q10 -68 -1 -119q13 -64 0 -110q13 -51 8 -94 v-25v-34v-144l-1 -26v-102q81 -57 178 -43zM922 36l1 102l8 25l-8 17l1 213q-13 32 -17 59l-34 51q-23 41 -25 68q-40 49 -51 102q-52 83 -76 145l-25 51l-17 51l-25 51l-17 34l-25 51l-26 51l-16 43l-17 51q-17 27 -25 51l-17 25v26q-38 49 -51 93l-17 43q-8 13 -8 25 l-17 26q-23 49 -34 85q-8 13 -8 26q-11 8 -9 17q-63 104 -84 170l-25 8h-34l-60 -16q-89 21 -153 0v-59q6 -51 0 -94l16 -85q49 -61 59 -119l9 -17l17 -17q25 -49 50 -85v-25q55 -64 68 -128l25 -43l26 -42l25 -43v-25q48 -62 67 -128q11 -8 9 -17q12 -25 17 -51 q48 -51 59 -110l25 -26l17 -34v-26q46 -61 59 -119l17 -25l8 -26q44 -66 59 -127l17 -17l8 -34q66 -109 85 -196q76 -55 152 -43q9 15 17 17zM934 851l-8 111l-8 110v34v76v26q-10 30 -8 68q4 49 0 85l1 144l-9 26q20 150 -7 255q-15 8 -17 17h-26q-117 -15 -195 -8l-51 -8 q-5 -49 0 -85q-16 -85 -9 -145l-1 -68q9 -29 9 -59l25 -26l8 -34l26 -25l8 -43l8 -34q13 -10 17 -25l17 -26q23 -49 34 -85l17 -17l8 -25l17 -17l34 -86l34 -76l-1 -76l68 -26z" />
<glyph unicode="O" horiz-adv-x="1151" d="M91 1626l-25 -59l-9 -25q-11 -90 -25 -145v-59l-9 -26l-9 -26v-204q-14 -150 0 -254l-8 -26q13 -32 8 -68q0 -79 18 -136v-26l8 -118q19 -49 17 -86l9 -50q40 -105 50 -170l18 8q114 -174 306 -153l8 25q-11 86 0 145q-4 49 0 85l-17 51q-62 23 -85 68q-11 81 -8 136 q4 64 -9 111l9 59l-9 43v42v144l-9 111q7 72 0 119v26l9 34q-9 12 -9 25v170l18 25l8 34q53 28 68 77q23 259 -51 272q-174 -62 -272 -179zM542 1737q16 -102 0 -179q8 -29 8 -59q76 -57 102 -136v-578l-17 -43l17 -25l-8 -43q14 -165 8 -263q-36 -62 -85 -93v-34 q-21 -173 43 -298q191 60 288 212l18 86l16 50q0 90 26 154v25v51v26v34v25q19 153 8 247l9 34l-9 34v34v34q-16 68 -8 118v34l-8 34q-22 81 -18 145l-8 25l-8 18l-18 136q-34 36 -42 76q-132 140 -289 170z" />
<glyph unicode="P" horiz-adv-x="1097" d="M498 1791q4 -13 0 -26l8 -121q-12 -62 -8 -112q75 -4 112 -69v-94q11 -93 8 -155q-21 -104 -120 -138v-86q-4 -115 8 -190q442 9 414 465q28 493 -388 560zM15 1584v-569q-2 -101 9 -172l-9 -95l9 -51v-35v-336q-4 -204 9 -327q183 -11 301 17l9 61v69v68v69v26v172v35 v155l-9 60v52v60l-8 17v26v35v155v34v43v147l-9 25l9 18q0 118 -18 198q30 142 0 258l-26 17h-34h-26h-34h-155q-33 -135 -18 -232z" />
<glyph unicode="Q" horiz-adv-x="1239" d="M639 1728v-257l79 -70v-45q18 -117 9 -194l-9 -44v-62l9 -44l-9 -36v-44l9 -35v-27l-9 -26l9 -27q-2 -243 9 -318q4 -139 -71 -212v-62q4 -117 -9 -195q20 -26 27 -53q59 -9 97 -35q18 -111 80 -177h35q44 77 106 106q29 53 71 80v53q-51 70 -71 132l9 27q51 60 71 106 v26v27l17 44q-2 93 9 151q-20 110 9 194q-7 15 -18 18q9 13 18 17l-9 27q2 44 9 71q2 104 -9 176v71q0 44 -9 71l9 62l-9 26q0 67 -9 106q-8 93 -26 151q-20 53 -27 88q-73 71 -106 124h-35l-9 18l-62 35l-17 9h-27l-27 9q-59 28 -106 35q-11 -57 -8 -97zM143 1551l-9 -35 l-44 -177l-9 -36v-486q-81 -586 328 -840l115 -9l17 89q-37 99 -9 185q-8 14 -8 27q-53 35 -80 80q4 99 -9 168l9 35l-9 35v36v115q9 81 0 132l9 44v36v26v36v35v35v36v150v27v106q53 55 71 115l9 26q-34 144 0 256l-80 9q-195 -97 -301 -256z" />
<glyph unicode="R" horiz-adv-x="1163" d="M78 1816q-37 -23 -78 -26v-25q13 -117 9 -190l8 -113l-8 -34v-95q15 -119 8 -190v-61q-2 -131 9 -216v-43l-9 -26l9 -26q-7 -82 0 -138l-9 -43q7 -69 0 -121v-43l9 -26v-406h34h35h26h34h156l26 60v173l-9 190l-9 61q16 114 9 190v60q-6 166 9 268l-9 26v69q7 80 0 138 v61v34l-9 35v60l9 43l-9 26v26v35v34v26v35l9 17q-15 80 -9 138q-51 20 -86 26q-86 -17 -155 -9zM475 1713q43 -82 17 -164q229 -110 112 -475q-86 -24 -112 -87v-26q15 -101 9 -172l17 -52q71 0 112 -52v-26q15 -60 9 -112v-337q-9 -130 8 -216h44l25 9l18 -9h26l34 9 q95 -11 156 0l8 26v25v35v26v173v51v35v43v26v69v173q-13 32 -17 69l-26 60l-17 9q-52 52 -104 69v35q238 181 156 492q-5 369 -372 397q-105 -10 -103 -103z" />
<glyph unicode="S" horiz-adv-x="1247" d="M347 1816q-56 -65 -122 -87q-20 -29 -44 -44q-25 -57 -52 -96q-26 -49 -53 -79q-46 -493 359 -665l9 -18l26 -8l9 -18l26 -9q54 -36 87 -70l61 -17q83 -77 114 -157q-11 -152 -131 -211l9 -131q-10 -132 8 -219q118 8 202 62q267 217 236 533q-24 39 -26 79l-18 35 l-79 158l-17 8q-56 66 -105 97l-35 35q-77 36 -123 87q-176 69 -288 193q-1 65 9 105q26 42 52 70q6 40 18 70l-9 26l9 17q-3 53 8 97q-13 82 -8 140q-57 25 -105 26q-14 -10 -27 -9zM583 1790q13 -33 9 -70v-201l35 -53q49 -29 70 -70q-1 -53 9 -96l26 -18h26l35 9h35 q14 10 27 9h26q90 17 149 18q24 79 0 148q-120 324 -438 350zM41 442q88 -339 376 -455h27l61 -17q24 192 0 315q-144 87 -166 289h-70q-242 3 -228 -132z" />
<glyph unicode="T" horiz-adv-x="1179" d="M884 1807h-68h-42h-26h-59h-26q-93 -15 -161 -9h-25h-153h-93h-26q-100 4 -170 -8l-8 -17l8 -43v-93q-4 -85 17 -145l26 -8h25h26q63 4 110 -9q51 17 93 17l17 -17l9 -110l-9 -59v-425q9 -78 0 -136v-33q13 -64 0 -111q22 -131 9 -221q11 -8 8 -17v-144q11 -68 -8 -127 l34 -102q55 0 93 17q125 -25 212 17v59v60v25v34q-12 81 -8 136v76v60v51v51q2 78 -9 136l9 33v51l-9 34l9 51l-9 34v34v94v42v110v34v145v25v102l26 -9l34 9l17 -9h25h26h169q32 172 -17 315l-42 8z" />
<glyph unicode="U" horiz-adv-x="1143" d="M31 1789q-4 -67 0 -113v-415q-2 -132 9 -217q-9 -95 8 -164v-26l-8 -26v-251q4 -13 0 -26v-26q11 -102 8 -173q26 -48 26 -87q122 -238 347 -277q11 13 26 17q-9 96 0 156q0 113 -70 165l-8 34v26v61l-9 26q20 91 0 164l9 35q-15 35 -9 69v26v113v26v26v112v52v52l-9 61 q-2 69 9 121l-9 52q5 67 0 113v26q0 43 9 69q-11 9 -9 17q11 117 -8 208h-35h-147h-26h-104v-26zM620 1720v-113q13 -50 8 -86q0 -83 -8 -139v-95l8 -52l9 -572q24 -119 26 -190l9 -43l-18 -9q-19 -93 -78 -147v-78q11 -9 9 -18v-25q-2 -81 0 -139q20 -11 26 -26 q210 84 312 260q8 37 26 60q4 72 17 122l-9 60v44v51v26v35l-8 147v26v26v156v35v26v34v156v35l-9 60l9 26v26l-9 18l9 26q-15 62 -9 112q11 147 -17 251l-18 9h-34h-26h-35h-156q-32 -52 -34 -95z" />
<glyph unicode="V" horiz-adv-x="1151" d="M678 1781l-9 -35q-21 -70 -26 -119l-8 -26l-9 -51l-8 -60l-9 -35l-9 -60l-8 -17l-17 -77l17 -34q15 -22 17 -43q30 -86 34 -154l9 -26l34 -145l17 -17q-4 -97 34 -163l35 34l17 146q23 68 25 120l9 42l9 52l17 34l8 69v34l9 25l17 86l9 34v35q25 62 25 111q43 152 43 257 q-15 8 -17 17h-34h-26h-34h-154zM181 1789q-92 7 -154 -17v-60l34 -145q26 -80 26 -137l17 -69l17 -17q9 -49 9 -86q28 -68 34 -120q19 -98 43 -162v-52l17 -25v-52q8 -13 8 -25l35 -103l8 -77q9 -24 9 -43l17 -34l17 -95q9 -27 9 -51q21 -47 17 -103q68 -135 60 -265 q19 -26 25 -52q99 -15 180 0l9 18q32 115 34 197q34 66 34 137l-17 59l-17 60q-13 33 -17 69q-24 62 -26 103l-17 68l-9 26l-25 120v34q-35 64 -43 129v25q-26 69 -26 129l-17 34v26q-15 19 -17 42l-9 26q-8 13 -8 26l-9 60q-21 49 -17 94l-17 26v25v26l-8 26 q-41 118 -52 197l-137 17q-8 -11 -17 -9z" />
<glyph unicode="W" horiz-adv-x="1547" d="M703 1808v-34l-17 -26l-9 -34l-17 -69l-17 -25v-43q-43 -92 -51 -171l17 -69q12 -32 17 -60q32 -79 34 -145q43 -98 43 -180q15 -25 17 -51l17 -60l8 -51l18 -43l8 -51q9 -24 9 -43l17 -34l8 -43q32 -84 35 -146l34 -137l8 -17l17 -77l52 -196h102l17 34v51l9 34l9 35 l8 25v26l9 34v26l8 25v26l9 60q25 116 25 188l-51 146l-8 60q-15 21 -18 42l-17 69q-19 26 -25 51l-17 69q-24 62 -26 102q-15 22 -17 43q-24 71 -26 120q-10 8 -8 17v26q-20 25 -26 51l-9 34q-8 58 -25 94q-2 50 -17 86l-26 85v26l-26 111q-45 24 -85 26q-9 -15 -17 -17z M1062 1791q8 -47 0 -94q-17 -65 -17 -112q-28 -64 -26 -136q13 -11 17 -26l26 -26v-34l17 -34l9 -43l8 -26q15 -42 17 -77q62 -100 52 -205l34 -51l51 17v34v43q19 49 26 94l-9 17q30 73 26 137q26 96 26 162l17 69v26q47 173 34 299h-26h-265zM27 1757l51 -197v-26l35 -162 l8 -60l17 -52l9 -34l17 -77v-26l17 -59l9 -86q21 -41 25 -120q9 -23 9 -43l17 -34v-43q25 -68 25 -119l18 -35v-42q15 -50 17 -95l8 -34q28 -85 34 -145v-26q20 -43 18 -85q23 -39 17 -77q17 -54 42 -86q52 13 95 9v42l8 43l9 43l8 43l17 111l9 34l8 34q0 45 9 69l9 17 q6 94 25 154v68q-21 54 -25 94q-15 50 -18 95l-42 137v34l-9 25q-8 13 -8 26v26l-9 60q-21 47 -26 85l-8 34v26q-17 64 -17 111l-17 35v25q-9 13 -9 26v26l-17 25q-11 152 -60 257h-26h-25h-265z" />
<glyph unicode="X" horiz-adv-x="1249" d="M998 1811l-264 11q-24 -63 -47 -100q-21 -101 -75 -167l-1 -26l16 -26l22 -86q23 -40 22 -78q19 -41 22 -69q58 -90 69 -173l26 -10l27 41l10 34l10 34l10 33l18 34l58 142l10 34l9 25l10 16q58 166 113 260q0 59 -39 87zM257 1809q-103 23 -179 -9l-3 -51 q41 -51 47 -105q24 -37 31 -69l7 -26q37 -81 54 -139l23 -60l14 -61l24 -52l14 -69q25 -50 38 -95l14 -60l8 -35l16 -17l60 -190l15 -44l15 -43l7 -34l15 -35l24 -52l37 -113l7 -43q48 -76 53 -155q14 -9 16 -18l-1 -25l16 -27q29 -105 69 -173l43 -2l25 -1l60 -3l34 -1 l59 -3q49 4 94 -4l10 34l-8 26q-49 89 -52 164q-43 53 -46 113l-24 43q-21 67 -38 104l1 34q-46 60 -54 122l-24 43l1 26q-41 66 -45 121l-16 44l-15 43q-8 13 -7 26l-8 17l-7 26q-17 50 -22 86q-33 72 -46 121l-6 52q-39 76 -36 146q-17 5 -17 18q-49 92 -52 164 q-62 94 -68 191q-47 51 -91 63q-50 -15 -86 -13zM277 700q-18 -24 -19 -50q-31 -71 -40 -126l-18 -25l-10 -42l-10 -25l-18 -25l-11 -51l-18 -33l-10 -16q-44 -128 -94 -201l-2 -68l49 -28l146 11q67 -14 127 -5q40 72 49 142q97 169 -4 307l-13 86q-38 102 -52 173l-34 10z " />
<glyph unicode="Y" horiz-adv-x="1206" d="M24 1772l8 -16v-26l43 -136q32 -79 42 -136l17 -34v-42q37 -80 51 -145q0 -22 9 -34l8 -34l9 -43l17 -42v-26q33 -49 34 -93l8 -34l17 -68l17 -17l9 -17q16 -107 51 -179v-93q-1 -80 0 -136v-43q1 -78 -9 -136l9 -16q-22 -119 -17 -196l51 -34h263l-8 17q40 62 25 127 l-8 34l8 145l-8 34q8 40 8 68q-6 129 9 213q-19 22 -26 42l-8 51l-17 59q-24 49 -26 86q-15 29 -17 59q-30 47 -34 85l-17 68q-10 8 -8 17v25q-22 47 -26 86q-29 71 -34 118l-17 26l-8 51q-22 54 -26 93q-9 13 -8 26l-9 26l-25 68v25q-36 95 -43 161q-21 2 -34 9 q-8 -10 -17 -9h-68l-17 9q-89 -9 -153 0zM721 1781l-17 -68l-17 -34l-9 -34l-34 -59q-24 -132 -76 -213l8 -59l9 -34l8 -26l17 -17v-25l26 -60l17 -68q9 -13 8 -26l9 -16q2 -73 25 -128q38 17 60 42l8 52l43 110q10 18 25 26l-8 34l51 136l8 25l9 34l34 93l8 34l9 26 q8 14 17 17q17 96 51 153q13 59 8 102l-25 8h-26h-25q-115 -16 -196 0z" />
<glyph unicode="Z" horiz-adv-x="1131" d="M43 1764v-282l111 -9l120 -8h26h25h69q79 4 137 -9q-52 -152 -103 -239q-11 -77 -43 -128l-17 -52l-8 -25l-18 -9q-10 -47 -34 -85v-35q-40 -53 -60 -94q-15 -55 -34 -94l-8 -25l-18 -26q-19 -79 -59 -137q-24 -111 -86 -179l-17 -51v-86l9 -34l-9 -17v-60q-2 -41 0 -68 l43 -9h25h60h26h26q79 4 136 -8l52 8q15 -8 17 -17q34 11 68 9l17 8q69 -4 120 0h94q113 -19 197 0l34 17v43l-9 26l9 25q-9 13 -9 26l9 51q-17 83 -9 145l-17 26l-25 -8h-35h-34h-25h-35l-25 -9q-52 0 -94 17q-118 -21 -206 0v43l26 43l17 51l26 43l8 34l9 17l51 128 q58 113 77 197l26 25v34l17 18v25l17 9q24 81 51 128l9 26l34 68q22 66 43 102q34 101 85 163v34l9 17v34v197l-51 17h-146h-51l-51 -9l-265 9h-35h-145h-26h-102z" />
<glyph unicode="[" horiz-adv-x="282" />
<glyph unicode="\" horiz-adv-x="1001" d="M518 1802h505v-1550zM-16 1802h35l585 -1804h-505l-115 349v1455z" />
<glyph unicode="]" horiz-adv-x="312" />
<glyph unicode="^" horiz-adv-x="330" />
<glyph unicode="_" horiz-adv-x="490" />
<glyph unicode="`" horiz-adv-x="357" />
<glyph unicode="a" horiz-adv-x="1230" d="M371 1821l-9 -52l17 -51v-52l18 -51l8 -60q22 -25 17 -52q8 -45 17 -68l9 -43l9 -60l17 -43l8 -17q0 -80 18 -129l8 -43l9 -34q7 -60 25 -94q0 -50 9 -86q13 -65 9 -112q10 -8 8 -17l9 -17q15 -82 34 -137l-69 -26q5 -119 -42 -206l8 -60q15 -8 17 -17q80 7 138 -8 q15 -170 60 -275h42l26 -8q33 11 69 8h26l154 -8v60l-34 137l-9 17l-8 137l-26 34v35l-17 68q-10 9 -9 18v25q-21 80 -26 138q-26 85 -34 145l-9 60q-27 84 -25 155q-47 87 -43 163q-22 69 -17 120q-10 13 -9 25q-7 15 -17 18v42l-9 35l-8 68q-10 13 -9 26l-8 34v43 q-27 110 -26 180q-29 19 -43 43q-130 -35 -223 26q-23 -38 -60 -34zM251 1203v-34l-17 -69l-35 -180q-26 -86 -25 -146l-18 -34v-43l-25 -120l-17 -60l-9 -51l-17 -120q-38 -111 -43 -189q-27 -67 -26 -129l17 -25h26h26l111 -9q77 28 138 26l8 34l9 17q-2 93 17 155v34 l8 17l9 77v26l9 26v68q30 68 25 129l-8 34v26q-10 13 -9 26l-17 171l-9 34v35l-8 17v34q-22 61 -17 112q-19 76 -17 137l-60 17z" />
<glyph unicode="b" horiz-adv-x="1141" d="M504 1838q28 -102 9 -200q15 -43 8 -78q167 -91 122 -269q30 -200 -139 -243v-61q9 -117 0 -191q174 -78 130 -260q37 -200 -147 -270l8 -26l9 -26v-95q-2 -80 9 -139q375 41 416 391q61 247 -43 460l-17 8l-122 79q65 56 122 69q4 43 43 52q167 710 -347 816 q-31 -22 -61 -17zM18 1794v-26q13 -117 9 -191v-234l-9 -18q11 -8 9 -17q-2 -93 0 -156v-156q0 -65 -9 -105l9 -86l-9 -174v-590l17 -26q154 -57 295 8l18 61l-9 70l-9 52v69l9 35l-9 17q-10 137 9 235l-9 52q0 43 -8 69l8 52l9 78q-11 63 -9 113v52l9 18q-9 63 0 104 q-9 28 -9 52l9 26v165l-9 35v34v52l-8 35l8 26v26l9 35q-9 117 0 200q-13 10 -17 26h-70q-50 21 -95 26q-83 -9 -139 -44z" />
<glyph unicode="c" horiz-adv-x="1159" d="M583 1799v-308q70 -38 103 -94v-51q-7 -88 8 -154l34 -9l17 9q69 41 129 51q36 32 77 35q21 104 -9 196q-75 291 -342 351q-4 -19 -17 -26zM386 1799l-26 -8l-42 -34h-26l-26 -9q-55 -36 -103 -51l-8 -26l-43 -43l-8 -17q-30 -77 -60 -120l-9 -59l-8 -52v-214l-9 -42 l9 -35q-9 -51 0 -94v-196q-5 -71 0 -120l-9 -17q0 -69 9 -120v-94q-3 -128 34 -223q132 -175 308 -239l77 17l8 17q-17 86 0 154q-12 111 -85 171l-17 146q8 81 0 137l8 25l-8 34l8 26v68v172q-4 64 9 111q-13 47 0 85l-9 26v34l9 26q-17 115 -9 188q30 75 103 94v34v26 q0 68 -9 120q11 64 9 111l-60 8q-8 -15 -17 -17zM686 602q12 -116 8 -188q-41 -86 -120 -112l9 -17l-17 -25q2 -43 8 -69v-34q-10 -90 -8 -145q297 -28 376 308q41 130 17 248l-25 17l-60 25l-154 52z" />
<glyph unicode="d" horiz-adv-x="1123" d="M44 1825l-26 -60q13 -33 17 -60v-629q-4 -114 0 -189v-52v-120q-4 -65 0 -112q-15 -86 -8 -146v-35q6 -66 -9 -120v-26q13 -136 0 -232l17 -35q170 -28 310 26l8 26v26q-8 79 0 137v35v94v26q-15 134 0 224v43l-8 52l-9 43l17 34q-10 41 0 69q-21 101 -8 181v34v43l8 35 q-23 133 0 232q-10 41 0 69l-8 60q-7 159 17 267q-155 79 -301 43zM483 1773q21 -112 8 -198q13 -45 9 -77q71 -2 112 -43l8 -60v-293q4 -79 -8 -138l8 -60l-17 -34q19 -48 17 -95l-8 -34l8 -35v-34q9 -131 -17 -224l17 -52q-43 -73 -120 -77l-26 -69l9 -26l8 -34 q-11 -118 9 -198q496 37 438 895q76 837 -421 938z" />
<glyph unicode="e" horiz-adv-x="1143" d="M20 1783q17 -116 9 -189v-121q-9 -99 -9 -155v-1170q-2 -80 9 -138l51 -9l35 17h34l95 -17h86h284l26 -8h60h26h26q80 4 138 -9q8 15 17 17l9 26v43l8 26v26v172l9 26q-39 28 -78 34l-43 -8h-112h-26h-94h-35l-26 8h-25l-173 -8l18 68v26l8 61v155v154l26 -17h26h26h26 q49 -4 86 0l25 -8q59 17 104 8l34 35l9 17v69v172l-26 26h-60h-26h-26q-116 8 -207 -17l-43 17v34l18 26v35q8 64 8 103v26v25q-4 102 9 173h34q48 -2 86 -18q69 -2 121 9q65 -4 103 0q138 -17 224 0l26 43l-9 35l9 60q-26 62 0 112q-15 21 -17 43h-52q-88 -5 -146 8l-43 -8 h-35q-69 8 -120 0h-26l-60 8l-18 -8q-60 13 -103 8h-26l-26 9h-69h-25h-112q-30 -37 -52 -52z" />
<glyph unicode="f" horiz-adv-x="1125" d="M38 1792v-1214v-43v-265l-9 -26l9 -43q-20 -115 -9 -188l34 -17l26 9q116 21 205 -9l43 17v111v35v153v95v34v34v34v34v146v25v103l26 -8h34h34h60h154l34 59v35v25l-8 17q10 84 0 154l-43 18q-167 -18 -282 17l8 42l-8 26l8 43l-8 68v26l8 154q37 28 69 34l34 -8l43 8 q53 -11 94 -8h43h25h34l26 8l17 -8l17 8q82 -13 137 -8q62 149 34 290l-51 17l-51 -8h-43h-26l-17 8q-64 -6 -102 0l-60 -8h-120h-26q-40 8 -68 8h-94l-26 9h-171z" />
<glyph unicode="g" horiz-adv-x="1189" d="M123 1543v-43l-17 -43q19 -57 -9 -102q14 -27 17 -51v-43q-9 -30 0 -51q-2 -41 9 -69q-15 -79 0 -137l-17 -17q15 -8 17 -17q-17 -113 0 -196q-94 -689 410 -787q14 35 34 60v26q-31 119 -17 222q-50 52 -94 77v51l-8 52v42v52v42l-9 43v34v26v171q-4 90 9 145 q-15 67 -17 111v34v154q3 66 -9 111q23 41 34 77q76 33 86 103v26v25q-10 9 -9 17v69l-8 59l-112 9q-192 -111 -290 -282zM687 1816l-8 -17v-68q-11 -109 0 -180q55 -36 85 -76q-8 -136 9 -231l60 -9l68 17q63 45 137 52q4 98 -17 171q-47 285 -308 350q-13 -10 -26 -9z M738 885l-77 -9v-256l18 -51h85q40 -201 -85 -257l-18 -60v-222q63 -72 248 34q56 -108 154 -77v112v34v111v34v34v26q-3 69 9 119q-17 85 -9 146l-8 25l8 18l-8 25l8 17v26l-8 17q2 90 -17 154q-95 -2 -154 8q-78 -18 -146 -8z" />
<glyph unicode="h" horiz-adv-x="1207" d="M48 1792v-839v-26v-94q-6 -115 9 -197q-17 -92 0 -154l-9 -26l9 -102q-28 -204 8 -343l77 -17q13 9 26 9q28 4 52 0q81 10 145 -9l26 17v26l8 26q-10 130 0 214q-15 68 -8 119v26v43v26v34v26v171q64 -4 77 51v69v25v112q-19 25 -26 51q-26 -2 -51 9l8 60q5 68 -8 119 q2 22 0 35l8 25q-15 62 0 112q-17 83 -8 145v26v26v34v26l-9 171q-94 17 -154 17q-107 -4 -180 -43zM673 1732q17 -103 0 -188v-86l9 -17v-26l-9 -137q11 -40 0 -68q28 -96 17 -171q-59 -9 -77 -43v-120q9 -64 0 -111q30 -28 69 -26q8 -96 0 -163l8 -402q-4 -94 9 -163h26 h34h146h25h103v26v26v111v34v146v25v103v26q-11 79 -9 137l9 51l-9 52v51l9 51v26l-9 17l9 34l-9 17l9 137l-9 35l9 60q-15 98 -9 171l9 26l-9 68l9 43q-21 203 0 334h-325q-26 -49 -35 -86z" />
<glyph unicode="i" horiz-adv-x="549" d="M150 1815q-45 -19 -85 -9l-34 -25v-85l9 -51l-9 -26l9 -42q-11 -162 0 -264v-145v-34v-255l8 -17q-13 -64 -8 -110l8 -51l-8 -43l8 -51l-8 -43l8 -25v-485l9 -51q78 6 136 -17q100 26 170 26v68v25v170v34v145v25v102v26v26v110v26v25v26v59v34v153v119v43v85v26v144v43 v25v26l-9 17q0 42 9 68l-17 136q-98 30 -179 8z" />
<glyph unicode="j" horiz-adv-x="1128" d="M723 1764q2 -44 9 -68l-9 -67v-119l9 -51l-9 -59q6 -66 0 -119l9 -110q0 -44 -9 -67l9 -43l-9 -42l9 -51l-9 -42q6 -32 0 -60q13 -65 0 -127q4 -67 0 -118q13 -132 -17 -229l17 -25q-53 -47 -76 -110l17 -26l-9 -42q9 -13 9 -26q-4 -91 8 -152q242 19 348 229l17 67v26 v25v26v93v84v34v26l8 59l-8 17v25v111v33v26v25v26v33v26v59v26v25q4 78 -9 136v42v25v34q4 64 0 93v26q11 203 -8 330l-26 9q-106 -20 -195 8q-50 -19 -76 -51zM181 646q-152 -538 347 -652l-8 17q36 89 17 178v101l-60 34l-8 34l-8 34v25l8 34l-8 26l8 34l-8 25v93v85h-77 q-106 -59 -203 -68z" />
<glyph unicode="k" horiz-adv-x="1157" d="M35 1778v-485q-6 -114 9 -195v-60l-9 -17q11 -8 9 -17v-25l-9 -170q13 -49 0 -94l9 -51l-9 -25l9 -34v-374v-136q-5 -71 42 -111q81 17 145 0h25q51 17 94 17l8 60v25v34v26v25v85l-8 77l8 34q-4 68 9 119l-9 25v85v34v26v170q-4 66 0 110v34q-17 79 0 145l-8 25 q4 62 0 102q10 77 -9 145l9 25v26v25v26q0 45 8 68q-11 100 17 178q-36 30 -25 60h-26h-34h-25h-170zM639 1761l-9 -26l-17 -68q-4 -93 -42 -153q-3 -159 -77 -272v-34v-59l9 -26v-34q-11 -46 -9 -85v-221l17 -17q4 -49 26 -85l-9 -34l26 -34v-59l17 -43v-59q34 -62 34 -119 l-9 -26q17 -15 17 -34v-42l17 -26q2 -49 0 -85q32 -74 34 -136h51l26 17l59 -17l60 17q55 -11 93 0l17 60l-17 42l-8 43l-26 136q-8 23 -8 42v26q-26 59 -26 102q-17 51 -17 93l-8 43q-22 80 -26 136v25q-8 13 -8 26l-9 25l-8 26v34v25q-37 100 -34 196l17 17q8 110 42 187 l9 34q19 55 25 93l9 26l17 17v25l8 34l9 26l51 246l-34 9h-26h-34h-59q-94 -9 -153 0z" />
<glyph unicode="l" horiz-adv-x="1113" d="M173 1794h-68l-59 -8l-17 -42l8 -941l-8 -59q8 -83 0 -144q2 -89 0 -144v-424l25 -17l34 -8h34l34 -9h34h110h26h42h34h25h43h42h26h101h26q114 7 195 -8q46 11 76 25v26q8 146 -9 237l-33 17q-121 -25 -212 0q-68 -13 -119 8q-106 -25 -187 17v60v51v59v51l9 59l-9 51 v25v34v68v25v26q-4 89 9 144l-17 59v59l8 51v26v25q-12 66 -8 119l8 25q-8 49 0 85l-8 34q19 201 -17 338q-95 17 -161 9q-8 -11 -17 -9z" />
<glyph unicode="m" horiz-adv-x="1356" d="M872 1793l-1 -26q-5 -66 -3 -111l-10 -410q12 -67 6 -120l-2 -419q-2 -60 6 -103q-13 -68 5 -128q-22 -100 -4 -179l-9 -17q-1 -163 27 -258q151 -20 266 11l2 94l1 34q-5 13 1 26v25l1 26q-5 13 1 26v25l-7 69q11 63 12 102l-17 35l19 51l-8 51q1 43 -6 69q11 55 2 94 l9 34l-8 17l3 94q-8 49 -7 86l1 43l2 68l1 34l-8 52l10 34q-4 22 1 42q-5 21 1 34q-10 51 2 95q-9 23 -7 42l-8 18v25l3 103v26l1 25q6 101 -4 171l-17 9q-130 -14 -222 14zM33 1788l-5 -196l25 -44l24 -60l7 -60l17 -18l-1 -25q47 -91 56 -164q13 -24 16 -43l16 -43 q34 -78 39 -138l25 -35l-1 -26q26 -60 32 -103q49 -92 56 -181l25 -26l30 -138l17 -35l7 -34l17 -26l7 -43l7 -52q10 -13 8 -25l17 -18l-1 -34l17 -26l15 -60q3 -69 23 -121q51 4 86 15l18 60q-5 28 2 51l9 34l18 42l1 34l18 34l1 26v25l18 9l38 153l-7 60q-2 113 13 187 l-8 35l9 25q-13 51 -6 94l3 120l1 26l1 34l-8 26l9 25l-8 18q17 67 12 128q-34 17 -68 18l-10 -34l-17 -16l-10 -51l-19 -68l-46 -127l-42 18l-8 51q-24 49 -23 95q-41 74 -48 138l-7 51q-14 23 -16 44l-16 34l-31 146l-16 18v34q-43 101 -55 181l-60 1l-26 1q-42 0 -68 -7 q-50 15 -94 11zM30 993l-18 -42l8 -43l-2 -60q-18 -95 -12 -162l-3 -120l7 -43l7 -77l-2 -68l-9 -26l-2 -94q5 -50 -3 -94q16 -79 5 -137q13 -23 16 -43l26 -9l17 8l26 -9l25 8l95 -3q49 8 85 7l9 25l10 34v26l-15 60l4 171q-18 65 -40 104l-8 43l-16 34l-7 43 q-26 51 -23 103l-17 18q-8 80 -39 138v25q-39 84 -56 147l-59 36h-9h9h-9z" />
<glyph unicode="n" horiz-adv-x="1162" d="M370 21l9 68l9 17q-42 191 1 340q-15 21 -17 42l-17 34l-8 43l-34 42v34l-25 26l-9 17l-42 102l-34 59l-8 34q-80 111 -101 230q-30 34 -42 68l-34 9v-26q-18 -93 -10 -161q-4 -68 9 -119l-9 -34q6 -26 0 -51q12 -57 8 -102q10 -68 -1 -119q13 -64 0 -110q13 -51 8 -94 v-25v-34v-144l-1 -26v-102q81 -57 178 -43zM922 36l1 102l8 25l-8 17l1 213q-13 32 -17 59l-34 51q-23 41 -25 68q-40 49 -51 102q-52 83 -76 145l-25 51l-17 51l-25 51l-17 34l-25 51l-26 51l-16 43l-17 51q-17 27 -25 51l-17 25v26q-38 49 -51 93l-17 43q-8 13 -8 25 l-17 26q-23 49 -34 85q-8 13 -8 26q-11 8 -9 17q-63 104 -84 170l-25 8h-34l-60 -16q-89 21 -153 0v-59q6 -51 0 -94l16 -85q49 -61 59 -119l9 -17l17 -17q25 -49 50 -85v-25q55 -64 68 -128l25 -43l26 -42l25 -43v-25q48 -62 67 -128q11 -8 9 -17q12 -25 17 -51 q48 -51 59 -110l25 -26l17 -34v-26q46 -61 59 -119l17 -25l8 -26q44 -66 59 -127l17 -17l8 -34q66 -109 85 -196q76 -55 152 -43q9 15 17 17zM934 851l-8 111l-8 110v34v76v26q-10 30 -8 68q4 49 0 85l1 144l-9 26q20 150 -7 255q-15 8 -17 17h-26q-117 -15 -195 -8l-51 -8 q-5 -49 0 -85q-16 -85 -9 -145l-1 -68q9 -29 9 -59l25 -26l8 -34l26 -25l8 -43l8 -34q13 -10 17 -25l17 -26q23 -49 34 -85l17 -17l8 -25l17 -17l34 -86l34 -76l-1 -76l68 -26z" />
<glyph unicode="o" horiz-adv-x="1151" d="M91 1626l-25 -59l-9 -25q-11 -90 -25 -145v-59l-9 -26l-9 -26v-204q-14 -150 0 -254l-8 -26q13 -32 8 -68q0 -79 18 -136v-26l8 -118q19 -49 17 -86l9 -50q40 -105 50 -170l18 8q114 -174 306 -153l8 25q-11 86 0 145q-4 49 0 85l-17 51q-62 23 -85 68q-11 81 -8 136 q4 64 -9 111l9 59l-9 43v42v144l-9 111q7 72 0 119v26l9 34q-9 12 -9 25v170l18 25l8 34q53 28 68 77q23 259 -51 272q-174 -62 -272 -179zM542 1737q16 -102 0 -179q8 -29 8 -59q76 -57 102 -136v-578l-17 -43l17 -25l-8 -43q14 -165 8 -263q-36 -62 -85 -93v-34 q-21 -173 43 -298q191 60 288 212l18 86l16 50q0 90 26 154v25v51v26v34v25q19 153 8 247l9 34l-9 34v34v34q-16 68 -8 118v34l-8 34q-22 81 -18 145l-8 25l-8 18l-18 136q-34 36 -42 76q-132 140 -289 170z" />
<glyph unicode="p" horiz-adv-x="1097" d="M498 1791q4 -13 0 -26l8 -121q-12 -62 -8 -112q75 -4 112 -69v-94q11 -93 8 -155q-21 -104 -120 -138v-86q-4 -115 8 -190q442 9 414 465q28 493 -388 560zM15 1584v-569q-2 -101 9 -172l-9 -95l9 -51v-35v-336q-4 -204 9 -327q183 -11 301 17l9 61v69v68v69v26v172v35 v155l-9 60v52v60l-8 17v26v35v155v34v43v147l-9 25l9 18q0 118 -18 198q30 142 0 258l-26 17h-34h-26h-34h-155q-33 -135 -18 -232z" />
<glyph unicode="q" horiz-adv-x="1239" d="M639 1728v-257l79 -70v-45q18 -117 9 -194l-9 -44v-62l9 -44l-9 -36v-44l9 -35v-27l-9 -26l9 -27q-2 -243 9 -318q4 -139 -71 -212v-62q4 -117 -9 -195q20 -26 27 -53q59 -9 97 -35q18 -111 80 -177h35q44 77 106 106q29 53 71 80v53q-51 70 -71 132l9 27q51 60 71 106 v26v27l17 44q-2 93 9 151q-20 110 9 194q-7 15 -18 18q9 13 18 17l-9 27q2 44 9 71q2 104 -9 176v71q0 44 -9 71l9 62l-9 26q0 67 -9 106q-8 93 -26 151q-20 53 -27 88q-73 71 -106 124h-35l-9 18l-62 35l-17 9h-27l-27 9q-59 28 -106 35q-11 -57 -8 -97zM143 1551l-9 -35 l-44 -177l-9 -36v-486q-81 -586 328 -840l115 -9l17 89q-37 99 -9 185q-8 14 -8 27q-53 35 -80 80q4 99 -9 168l9 35l-9 35v36v115q9 81 0 132l9 44v36v26v36v35v35v36v150v27v106q53 55 71 115l9 26q-34 144 0 256l-80 9q-195 -97 -301 -256z" />
<glyph unicode="r" horiz-adv-x="1163" d="M78 1816q-37 -23 -78 -26v-25q13 -117 9 -190l8 -113l-8 -34v-95q15 -119 8 -190v-61q-2 -131 9 -216v-43l-9 -26l9 -26q-7 -82 0 -138l-9 -43q7 -69 0 -121v-43l9 -26v-406h34h35h26h34h156l26 60v173l-9 190l-9 61q16 114 9 190v60q-6 166 9 268l-9 26v69q7 80 0 138 v61v34l-9 35v60l9 43l-9 26v26v35v34v26v35l9 17q-15 80 -9 138q-51 20 -86 26q-86 -17 -155 -9zM475 1713q43 -82 17 -164q229 -110 112 -475q-86 -24 -112 -87v-26q15 -101 9 -172l17 -52q71 0 112 -52v-26q15 -60 9 -112v-337q-9 -130 8 -216h44l25 9l18 -9h26l34 9 q95 -11 156 0l8 26v25v35v26v173v51v35v43v26v69v173q-13 32 -17 69l-26 60l-17 9q-52 52 -104 69v35q238 181 156 492q-5 369 -372 397q-105 -10 -103 -103z" />
<glyph unicode="s" horiz-adv-x="1247" d="M347 1816q-56 -65 -122 -87q-20 -29 -44 -44q-25 -57 -52 -96q-26 -49 -53 -79q-46 -493 359 -665l9 -18l26 -8l9 -18l26 -9q54 -36 87 -70l61 -17q83 -77 114 -157q-11 -152 -131 -211l9 -131q-10 -132 8 -219q118 8 202 62q267 217 236 533q-24 39 -26 79l-18 35 l-79 158l-17 8q-56 66 -105 97l-35 35q-77 36 -123 87q-176 69 -288 193q-1 65 9 105q26 42 52 70q6 40 18 70l-9 26l9 17q-3 53 8 97q-13 82 -8 140q-57 25 -105 26q-14 -10 -27 -9zM583 1790q13 -33 9 -70v-201l35 -53q49 -29 70 -70q-1 -53 9 -96l26 -18h26l35 9h35 q14 10 27 9h26q90 17 149 18q24 79 0 148q-120 324 -438 350zM41 442q88 -339 376 -455h27l61 -17q24 192 0 315q-144 87 -166 289h-70q-242 3 -228 -132z" />
<glyph unicode="t" horiz-adv-x="1179" d="M884 1807h-68h-42h-26h-59h-26q-93 -15 -161 -9h-25h-153h-93h-26q-100 4 -170 -8l-8 -17l8 -43v-93q-4 -85 17 -145l26 -8h25h26q63 4 110 -9q51 17 93 17l17 -17l9 -110l-9 -59v-425q9 -78 0 -136v-33q13 -64 0 -111q22 -131 9 -221q11 -8 8 -17v-144q11 -68 -8 -127 l34 -102q55 0 93 17q125 -25 212 17v59v60v25v34q-12 81 -8 136v76v60v51v51q2 78 -9 136l9 33v51l-9 34l9 51l-9 34v34v94v42v110v34v145v25v102l26 -9l34 9l17 -9h25h26h169q32 172 -17 315l-42 8z" />
<glyph unicode="u" horiz-adv-x="1143" d="M31 1789q-4 -67 0 -113v-415q-2 -132 9 -217q-9 -95 8 -164v-26l-8 -26v-251q4 -13 0 -26v-26q11 -102 8 -173q26 -48 26 -87q122 -238 347 -277q11 13 26 17q-9 96 0 156q0 113 -70 165l-8 34v26v61l-9 26q20 91 0 164l9 35q-15 35 -9 69v26v113v26v26v112v52v52l-9 61 q-2 69 9 121l-9 52q5 67 0 113v26q0 43 9 69q-11 9 -9 17q11 117 -8 208h-35h-147h-26h-104v-26zM620 1720v-113q13 -50 8 -86q0 -83 -8 -139v-95l8 -52l9 -572q24 -119 26 -190l9 -43l-18 -9q-19 -93 -78 -147v-78q11 -9 9 -18v-25q-2 -81 0 -139q20 -11 26 -26 q210 84 312 260q8 37 26 60q4 72 17 122l-9 60v44v51v26v35l-8 147v26v26v156v35v26v34v156v35l-9 60l9 26v26l-9 18l9 26q-15 62 -9 112q11 147 -17 251l-18 9h-34h-26h-35h-156q-32 -52 -34 -95z" />
<glyph unicode="v" horiz-adv-x="1151" d="M678 1781l-9 -35q-21 -70 -26 -119l-8 -26l-9 -51l-8 -60l-9 -35l-9 -60l-8 -17l-17 -77l17 -34q15 -22 17 -43q30 -86 34 -154l9 -26l34 -145l17 -17q-4 -97 34 -163l35 34l17 146q23 68 25 120l9 42l9 52l17 34l8 69v34l9 25l17 86l9 34v35q25 62 25 111q43 152 43 257 q-15 8 -17 17h-34h-26h-34h-154zM181 1789q-92 7 -154 -17v-60l34 -145q26 -80 26 -137l17 -69l17 -17q9 -49 9 -86q28 -68 34 -120q19 -98 43 -162v-52l17 -25v-52q8 -13 8 -25l35 -103l8 -77q9 -24 9 -43l17 -34l17 -95q9 -27 9 -51q21 -47 17 -103q68 -135 60 -265 q19 -26 25 -52q99 -15 180 0l9 18q32 115 34 197q34 66 34 137l-17 59l-17 60q-13 33 -17 69q-24 62 -26 103l-17 68l-9 26l-25 120v34q-35 64 -43 129v25q-26 69 -26 129l-17 34v26q-15 19 -17 42l-9 26q-8 13 -8 26l-9 60q-21 49 -17 94l-17 26v25v26l-8 26 q-41 118 -52 197l-137 17q-8 -11 -17 -9z" />
<glyph unicode="w" horiz-adv-x="1547" d="M703 1808v-34l-17 -26l-9 -34l-17 -69l-17 -25v-43q-43 -92 -51 -171l17 -69q12 -32 17 -60q32 -79 34 -145q43 -98 43 -180q15 -25 17 -51l17 -60l8 -51l18 -43l8 -51q9 -24 9 -43l17 -34l8 -43q32 -84 35 -146l34 -137l8 -17l17 -77l52 -196h102l17 34v51l9 34l9 35 l8 25v26l9 34v26l8 25v26l9 60q25 116 25 188l-51 146l-8 60q-15 21 -18 42l-17 69q-19 26 -25 51l-17 69q-24 62 -26 102q-15 22 -17 43q-24 71 -26 120q-10 8 -8 17v26q-20 25 -26 51l-9 34q-8 58 -25 94q-2 50 -17 86l-26 85v26l-26 111q-45 24 -85 26q-9 -15 -17 -17z M1062 1791q8 -47 0 -94q-17 -65 -17 -112q-28 -64 -26 -136q13 -11 17 -26l26 -26v-34l17 -34l9 -43l8 -26q15 -42 17 -77q62 -100 52 -205l34 -51l51 17v34v43q19 49 26 94l-9 17q30 73 26 137q26 96 26 162l17 69v26q47 173 34 299h-26h-265zM27 1757l51 -197v-26l35 -162 l8 -60l17 -52l9 -34l17 -77v-26l17 -59l9 -86q21 -41 25 -120q9 -23 9 -43l17 -34v-43q25 -68 25 -119l18 -35v-42q15 -50 17 -95l8 -34q28 -85 34 -145v-26q20 -43 18 -85q23 -39 17 -77q17 -54 42 -86q52 13 95 9v42l8 43l9 43l8 43l17 111l9 34l8 34q0 45 9 69l9 17 q6 94 25 154v68q-21 54 -25 94q-15 50 -18 95l-42 137v34l-9 25q-8 13 -8 26v26l-9 60q-21 47 -26 85l-8 34v26q-17 64 -17 111l-17 35v25q-9 13 -9 26v26l-17 25q-11 152 -60 257h-26h-25h-265z" />
<glyph unicode="x" horiz-adv-x="1249" d="M998 1811l-264 11q-24 -63 -47 -100q-21 -101 -75 -167l-1 -26l16 -26l22 -86q23 -40 22 -78q19 -41 22 -69q58 -90 69 -173l26 -10l27 41l10 34l10 34l10 33l18 34l58 142l10 34l9 25l10 16q58 166 113 260q0 59 -39 87zM257 1809q-103 23 -179 -9l-3 -51 q41 -51 47 -105q24 -37 31 -69l7 -26q37 -81 54 -139l23 -60l14 -61l24 -52l14 -69q25 -50 38 -95l14 -60l8 -35l16 -17l60 -190l15 -44l15 -43l7 -34l15 -35l24 -52l37 -113l7 -43q48 -76 53 -155q14 -9 16 -18l-1 -25l16 -27q29 -105 69 -173l43 -2l25 -1l60 -3l34 -1 l59 -3q49 4 94 -4l10 34l-8 26q-49 89 -52 164q-43 53 -46 113l-24 43q-21 67 -38 104l1 34q-46 60 -54 122l-24 43l1 26q-41 66 -45 121l-16 44l-15 43q-8 13 -7 26l-8 17l-7 26q-17 50 -22 86q-33 72 -46 121l-6 52q-39 76 -36 146q-17 5 -17 18q-49 92 -52 164 q-62 94 -68 191q-47 51 -91 63q-50 -15 -86 -13zM277 700q-18 -24 -19 -50q-31 -71 -40 -126l-18 -25l-10 -42l-10 -25l-18 -25l-11 -51l-18 -33l-10 -16q-44 -128 -94 -201l-2 -68l49 -28l146 11q67 -14 127 -5q40 72 49 142q97 169 -4 307l-13 86q-38 102 -52 173l-34 10z " />
<glyph unicode="y" horiz-adv-x="1206" d="M24 1772l8 -16v-26l43 -136q32 -79 42 -136l17 -34v-42q37 -80 51 -145q0 -22 9 -34l8 -34l9 -43l17 -42v-26q33 -49 34 -93l8 -34l17 -68l17 -17l9 -17q16 -107 51 -179v-93q-1 -80 0 -136v-43q1 -78 -9 -136l9 -16q-22 -119 -17 -196l51 -34h263l-8 17q40 62 25 127 l-8 34l8 145l-8 34q8 40 8 68q-6 129 9 213q-19 22 -26 42l-8 51l-17 59q-24 49 -26 86q-15 29 -17 59q-30 47 -34 85l-17 68q-10 8 -8 17v25q-22 47 -26 86q-29 71 -34 118l-17 26l-8 51q-22 54 -26 93q-9 13 -8 26l-9 26l-25 68v25q-36 95 -43 161q-21 2 -34 9 q-8 -10 -17 -9h-68l-17 9q-89 -9 -153 0zM721 1781l-17 -68l-17 -34l-9 -34l-34 -59q-24 -132 -76 -213l8 -59l9 -34l8 -26l17 -17v-25l26 -60l17 -68q9 -13 8 -26l9 -16q2 -73 25 -128q38 17 60 42l8 52l43 110q10 18 25 26l-8 34l51 136l8 25l9 34l34 93l8 34l9 26 q8 14 17 17q17 96 51 153q13 59 8 102l-25 8h-26h-25q-115 -16 -196 0z" />
<glyph unicode="z" horiz-adv-x="1131" d="M43 1764v-282l111 -9l120 -8h26h25h69q79 4 137 -9q-52 -152 -103 -239q-11 -77 -43 -128l-17 -52l-8 -25l-18 -9q-10 -47 -34 -85v-35q-40 -53 -60 -94q-15 -55 -34 -94l-8 -25l-18 -26q-19 -79 -59 -137q-24 -111 -86 -179l-17 -51v-86l9 -34l-9 -17v-60q-2 -41 0 -68 l43 -9h25h60h26h26q79 4 136 -8l52 8q15 -8 17 -17q34 11 68 9l17 8q69 -4 120 0h94q113 -19 197 0l34 17v43l-9 26l9 25q-9 13 -9 26l9 51q-17 83 -9 145l-17 26l-25 -8h-35h-34h-25h-35l-25 -9q-52 0 -94 17q-118 -21 -206 0v43l26 43l17 51l26 43l8 34l9 17l51 128 q58 113 77 197l26 25v34l17 18v25l17 9q24 81 51 128l9 26l34 68q22 66 43 102q34 101 85 163v34l9 17v34v197l-51 17h-146h-51l-51 -9l-265 9h-35h-145h-26h-102z" />
<glyph unicode="{" horiz-adv-x="420" />
<glyph unicode="|" horiz-adv-x="201" />
<glyph unicode="}" horiz-adv-x="360" />
<glyph unicode="~" />
<glyph unicode="&#xa1;" horiz-adv-x="309" />
<glyph unicode="&#xa2;" />
<glyph unicode="&#xa3;" />
<glyph unicode="&#xa4;" horiz-adv-x="420" />
<glyph unicode="&#xa5;" />
<glyph unicode="&#xa6;" horiz-adv-x="201" />
<glyph unicode="&#xa7;" horiz-adv-x="420" />
<glyph unicode="&#xa8;" horiz-adv-x="371" />
<glyph unicode="&#xa9;" horiz-adv-x="714" />
<glyph unicode="&#xaa;" horiz-adv-x="402" />
<glyph unicode="&#xab;" horiz-adv-x="540" />
<glyph unicode="&#xac;" horiz-adv-x="1395" />
<glyph unicode="&#xad;" horiz-adv-x="532" d="M65 1058l8 -34q-25 -122 -8 -213h25l60 -9h26h25h26h111l43 9v25v69l-18 170l-25 9l-68 -9h-26l-171 9z" />
<glyph unicode="&#xae;" horiz-adv-x="747" />
<glyph unicode="&#xaf;" horiz-adv-x="360" />
<glyph unicode="&#xb0;" horiz-adv-x="285" />
<glyph unicode="&#xb1;" />
<glyph unicode="&#xb2;" horiz-adv-x="300" />
<glyph unicode="&#xb3;" horiz-adv-x="300" />
<glyph unicode="&#xb4;" horiz-adv-x="462" />
<glyph unicode="&#xb6;" horiz-adv-x="450" />
<glyph unicode="&#xb7;" horiz-adv-x="207" />
<glyph unicode="&#xb8;" horiz-adv-x="321" />
<glyph unicode="&#xb9;" horiz-adv-x="300" />
<glyph unicode="&#xba;" horiz-adv-x="402" />
<glyph unicode="&#xbb;" horiz-adv-x="540" />
<glyph unicode="&#xbc;" horiz-adv-x="786" />
<glyph unicode="&#xbd;" horiz-adv-x="786" />
<glyph unicode="&#xbe;" horiz-adv-x="786" />
<glyph unicode="&#xbf;" horiz-adv-x="567" />
<glyph unicode="&#xc0;" horiz-adv-x="609" />
<glyph unicode="&#xc1;" horiz-adv-x="609" />
<glyph unicode="&#xc2;" horiz-adv-x="609" />
<glyph unicode="&#xc3;" horiz-adv-x="609" />
<glyph unicode="&#xc4;" horiz-adv-x="609" />
<glyph unicode="&#xc5;" horiz-adv-x="609" />
<glyph unicode="&#xc6;" horiz-adv-x="819" />
<glyph unicode="&#xc7;" horiz-adv-x="729" />
<glyph unicode="&#xc8;" horiz-adv-x="648" />
<glyph unicode="&#xc9;" horiz-adv-x="648" />
<glyph unicode="&#xca;" horiz-adv-x="648" />
<glyph unicode="&#xcb;" horiz-adv-x="648" />
<glyph unicode="&#xcc;" horiz-adv-x="234" />
<glyph unicode="&#xcd;" horiz-adv-x="234" />
<glyph unicode="&#xce;" horiz-adv-x="234" />
<glyph unicode="&#xcf;" horiz-adv-x="234" />
<glyph unicode="&#xd0;" horiz-adv-x="663" />
<glyph unicode="&#xd1;" horiz-adv-x="612" />
<glyph unicode="&#xd2;" horiz-adv-x="696" />
<glyph unicode="&#xd3;" horiz-adv-x="696" />
<glyph unicode="&#xd4;" horiz-adv-x="696" />
<glyph unicode="&#xd5;" horiz-adv-x="696" />
<glyph unicode="&#xd6;" horiz-adv-x="696" />
<glyph unicode="&#xd7;" />
<glyph unicode="&#xd8;" horiz-adv-x="696" />
<glyph unicode="&#xd9;" horiz-adv-x="660" />
<glyph unicode="&#xda;" horiz-adv-x="660" />
<glyph unicode="&#xdb;" horiz-adv-x="660" />
<glyph unicode="&#xdc;" horiz-adv-x="660" />
<glyph unicode="&#xdd;" horiz-adv-x="526" />
<glyph unicode="&#xde;" horiz-adv-x="576" />
<glyph unicode="&#xdf;" horiz-adv-x="498" />
<glyph unicode="&#xe0;" horiz-adv-x="369" />
<glyph unicode="&#xe1;" horiz-adv-x="369" />
<glyph unicode="&#xe2;" horiz-adv-x="369" />
<glyph unicode="&#xe3;" horiz-adv-x="369" />
<glyph unicode="&#xe4;" horiz-adv-x="369" />
<glyph unicode="&#xe5;" horiz-adv-x="369" />
<glyph unicode="&#xe6;" horiz-adv-x="747" />
<glyph unicode="&#xe7;" horiz-adv-x="510" />
<glyph unicode="&#xe8;" horiz-adv-x="486" />
<glyph unicode="&#xe9;" horiz-adv-x="486" />
<glyph unicode="&#xea;" horiz-adv-x="486" />
<glyph unicode="&#xeb;" horiz-adv-x="486" />
<glyph unicode="&#xec;" horiz-adv-x="234" />
<glyph unicode="&#xed;" horiz-adv-x="234" />
<glyph unicode="&#xee;" horiz-adv-x="234" />
<glyph unicode="&#xef;" horiz-adv-x="234" />
<glyph unicode="&#xf0;" horiz-adv-x="483" />
<glyph unicode="&#xf1;" horiz-adv-x="384" />
<glyph unicode="&#xf2;" horiz-adv-x="366" />
<glyph unicode="&#xf3;" horiz-adv-x="366" />
<glyph unicode="&#xf4;" horiz-adv-x="366" />
<glyph unicode="&#xf5;" horiz-adv-x="366" />
<glyph unicode="&#xf6;" horiz-adv-x="366" />
<glyph unicode="&#xf7;" />
<glyph unicode="&#xf8;" horiz-adv-x="366" />
<glyph unicode="&#xf9;" horiz-adv-x="342" />
<glyph unicode="&#xfa;" horiz-adv-x="342" />
<glyph unicode="&#xfb;" horiz-adv-x="342" />
<glyph unicode="&#xfc;" horiz-adv-x="342" />
<glyph unicode="&#xfd;" horiz-adv-x="393" />
<glyph unicode="&#xfe;" horiz-adv-x="348" />
<glyph unicode="&#xff;" horiz-adv-x="393" />
<glyph unicode="&#x152;" horiz-adv-x="954" />
<glyph unicode="&#x153;" horiz-adv-x="756" />
<glyph unicode="&#x178;" horiz-adv-x="526" />
<glyph unicode="&#x2c6;" horiz-adv-x="360" />
<glyph unicode="&#x2dc;" horiz-adv-x="483" />
<glyph unicode="&#x2000;" horiz-adv-x="927" />
<glyph unicode="&#x2001;" horiz-adv-x="1855" />
<glyph unicode="&#x2002;" horiz-adv-x="927" />
<glyph unicode="&#x2003;" horiz-adv-x="1855" />
<glyph unicode="&#x2004;" horiz-adv-x="618" />
<glyph unicode="&#x2005;" horiz-adv-x="463" />
<glyph unicode="&#x2006;" horiz-adv-x="309" />
<glyph unicode="&#x2007;" horiz-adv-x="309" />
<glyph unicode="&#x2008;" horiz-adv-x="231" />
<glyph unicode="&#x2009;" horiz-adv-x="371" />
<glyph unicode="&#x200a;" horiz-adv-x="103" />
<glyph unicode="&#x2010;" horiz-adv-x="532" d="M65 1058l8 -34q-25 -122 -8 -213h25l60 -9h26h25h26h111l43 9v25v69l-18 170l-25 9l-68 -9h-26l-171 9z" />
<glyph unicode="&#x2011;" horiz-adv-x="532" d="M65 1058l8 -34q-25 -122 -8 -213h25l60 -9h26h25h26h111l43 9v25v69l-18 170l-25 9l-68 -9h-26l-171 9z" />
<glyph unicode="&#x2012;" horiz-adv-x="532" d="M65 1058l8 -34q-25 -122 -8 -213h25l60 -9h26h25h26h111l43 9v25v69l-18 170l-25 9l-68 -9h-26l-171 9z" />
<glyph unicode="&#x2013;" horiz-adv-x="684" />
<glyph unicode="&#x2014;" horiz-adv-x="894" />
<glyph unicode="&#x2018;" horiz-adv-x="237" />
<glyph unicode="&#x2019;" horiz-adv-x="240" />
<glyph unicode="&#x201a;" horiz-adv-x="234" />
<glyph unicode="&#x201c;" horiz-adv-x="342" />
<glyph unicode="&#x201d;" horiz-adv-x="300" />
<glyph unicode="&#x201e;" horiz-adv-x="402" />
<glyph unicode="&#x2022;" horiz-adv-x="387" />
<glyph unicode="&#x2026;" horiz-adv-x="792" />
<glyph unicode="&#x202f;" horiz-adv-x="371" />
<glyph unicode="&#x2039;" horiz-adv-x="321" />
<glyph unicode="&#x203a;" horiz-adv-x="321" />
<glyph unicode="&#x205f;" horiz-adv-x="463" />
<glyph unicode="&#x2122;" horiz-adv-x="681" />
<glyph unicode="&#xe000;" horiz-adv-x="1825" d="M0 1825h1825v-1825h-1825v1825z" />
</font>
</defs>
</svg>
