<?xml version="1.0" standalone="no"?>
<!DOCTYPE svg PUBLIC "-//W3C//DTD SVG 1.1//EN" "http://www.w3.org/Graphics/SVG/1.1/DTD/svg11.dtd" >
<svg xmlns="http://www.w3.org/2000/svg">
<metadata></metadata>
<defs>
<font id="carringtonregular" horiz-adv-x="1000" >
<font-face units-per-em="1000" ascent="800" descent="-200" />
<missing-glyph horiz-adv-x="300" />
<glyph />
<glyph />
<glyph unicode="&#xd;" horiz-adv-x="300" />
<glyph unicode=" "  horiz-adv-x="300" />
<glyph unicode="&#x09;" horiz-adv-x="300" />
<glyph unicode="&#xa0;" horiz-adv-x="300" />
<glyph unicode="!" horiz-adv-x="361" d="M362 642q0 -51 -56 -159q-95 -185 -146 -307q-6 -15 -22 -15q-17 0 -17 18q0 6 3 13q25 67 60.5 217.5t54.5 201.5q34 89 75 89q48 0 48 -58zM142 78q0 -35 -15 -61q-17 -29 -46 -29q-17 0 -28.5 14.5t-11.5 32.5q0 34 18.5 61t43.5 27q39 0 39 -45z" />
<glyph unicode="&#x22;" horiz-adv-x="247" d="M243 654q0 -30 -16 -67q-6 -13 -37 -70q-2 -4 -6 -3q-3 1 -4 6q-9 65 -9 88q0 93 46 89q26 -2 26 -43zM164 654q0 -30 -16 -67q-6 -13 -37 -70q-2 -4 -6 -3q-3 1 -4 6q-9 65 -9 88q0 93 46 89q26 -2 26 -43z" />
<glyph unicode="#" horiz-adv-x="352" d="M378 543l-16 -50h-77l-12 -46h90l-16 -50h-87l-43 -164l-51 1l43 163h-59l-43 -164l-51 1l43 163h-74l16 50h71l12 46h-84l16 50h81l42 156h51l-41 -156h58l42 156h51l-41 -156h79zM234 493h-58l-13 -46h59z" />
<glyph unicode="$" horiz-adv-x="471" d="M484 694q0 -30 -26 -30q-5 0 -11.5 7t-10.5 7q-30 0 -61 -42q53 -9 82 -44q24 -30 24 -72q0 -30 -14 -53q-16 -27 -45 -27q-27 0 -46.5 18t-19.5 44q0 13 9.5 23.5t22.5 10.5q6 0 14 -6t14 -6q10 0 10 18q0 22 -23 34t-51 12h-4q-21 -46 -81 -239q41 -102 41 -159 q0 -77 -53 -133.5t-129 -56.5q-41 0 -74 22q-36 23 -36 60q0 19 12 33.5t30 14.5q13 0 21.5 -10t14.5 -10q62 0 117 154l-48 94q-27 56 -27 108q0 74 65 125q62 48 142 47q45 86 99 86q15 0 28.5 -8t13.5 -22zM317 583q-35 -11 -58 -37t-23 -58q0 -45 16 -98q21 68 65 193z M230 178q0 21 -5 43q-59 -159 -123 -159q-14 0 -23 6q-4 2 -5 1q-2 -1 0 -4q4 -8 19.5 -15.5t28.5 -7.5q48 0 79 43q29 40 29 93z" />
<glyph unicode="%" horiz-adv-x="664" d="M660 285q0 -90 -50 -167q-57 -88 -142 -88q-40 0 -68 36t-28 81q0 90 69.5 171t140.5 81q34 0 56 -36t22 -78zM582 596q0 -98 -128 -211l-236 -190q-128 -113 -128 -210q0 -16 9.5 -29t23.5 -13t25 28.5t26 28.5q17 0 28 -14.5t11 -33.5q0 -26 -20 -44.5t-46 -18.5 q-43 0 -72.5 34.5t-29.5 79.5q0 126 125 239q116 90 232 179q125 103 125 204q0 7 -3 6q-2 -2 -3 -6q-9 -75 -77 -132t-151 -56q-23 -65 -65 -106q-48 -46 -108 -46q-40 0 -68 36t-28 81q0 90 69.5 171t140.5 81q34 0 56 -36t22 -78q0 -9 -2 -29q33 -13 47 -13q32 0 79 48 t43 90q-1 16 -9 24.5t-8 18.5q0 29 48 29q72 0 72 -112zM603 309q0 45 -27 45q-42 0 -87 -74t-45 -136q0 -21 9 -39t24 -18q31 0 78.5 78t47.5 144zM255 564q0 45 -27 45q-42 0 -87 -74t-45 -136q0 -21 9 -39t24 -18q19 0 47.5 33.5t49.5 79.5q-19 16 -19 37q0 32 44 34 q4 26 4 38z" />
<glyph unicode="&#x26;" horiz-adv-x="780" d="M816 312q0 -99 -152 -100q-29 0 -78 10q11 -56 10 -72q-5 -75 -72 -118q-61 -40 -146 -40q-88 0 -152 43q-72 47 -72 123q0 68 78 124q63 44 120 52q-37 26 -56 50q-115 -20 -170 -53q-71 -42 -71 -118q0 -9 5 -19q21 22 50 14q32 -9 28 -49q-4 -41 -52 -41q-32 0 -54 28 q-20 25 -22 60q-5 93 73 153q61 47 186 80q-7 34 -1 69q17 101 118 157q89 49 212 49q72 0 120 -26q58 -31 58 -92q0 -102 -123 -148q-66 -25 -264 -51q18 -13 41 -13q12 0 30.5 8t29.5 8q12 0 23 -10.5t11 -21.5q0 -25 -66 -53q-100 -43 -122 -58q-66 -43 -66 -103 q0 -40 35 -67q32 -26 77 -29q46 -3 93 24t47 63q0 12 -6 23q-23 44 -50 42q-39 -3 -42 -34q38 -3 38 -44q0 -20 -17.5 -32t-40.5 -12q-26 0 -42 22t-16 52q0 61 51 102q49 38 115 38q31 0 82 -10t90 -10q60 0 60 24q-12 1 -23 14.5t-9 27.5q6 47 50 44q27 -2 40.5 -25.5 t13.5 -54.5zM716 608q0 27 -37 43q-31 13 -71 13q-96 0 -171 -57q-79 -61 -79 -145v-3q219 46 246 54q112 35 112 95z" />
<glyph unicode="'" horiz-adv-x="161" d="M164 654q0 -30 -16 -67q-6 -13 -37 -70q-2 -4 -6 -3q-3 1 -4 6q-9 65 -9 88q0 93 46 89q26 -2 26 -43z" />
<glyph unicode="(" horiz-adv-x="329" d="M481 750l-97 -52q-115 -61 -182 -153q-97 -133 -97 -332q0 -87 22 -158q15 -47 41 -93q22 -37 22 -42q0 -8 -7 -8q-20 0 -59 41q-45 49 -75 121q-37 91 -37 198q0 139 79 258q70 104 182 169q104 60 197 60q11 0 11 -9z" />
<glyph unicode=")" horiz-adv-x="370" d="M350 405q0 -139 -79 -258q-70 -104 -182 -169q-104 -60 -197 -60q-11 0 -11 9l97 52q115 61 182 153q97 133 97 332q0 87 -22 158q-15 47 -41 93q-22 37 -22 42q0 8 7 8q20 0 59 -41q45 -49 75 -121q37 -91 37 -198z" />
<glyph unicode="*" horiz-adv-x="268" d="M317 599q1 -31 -32 -45q-4 0 -8 1l-4 1q-6 1 -35 1q-17 0 -29 -2q4 -13 18 -28l19 -20q1 0 7 -5q-4 -10 -8 -18q-10 -19 -20 -25q-16 -9 -27 -9q-14 0 -18 12q-1 9 0 12v62q-21 -23 -47 -74q-12 -9 -26 -9q-10 0 -19 6q-13 9 -13 23q0 12 9 25q42 21 76 50h-33 q-31 0 -48 -2q-13 9 -13 24q0 8 4 17q13 29 46 31l7 -9q23 -22 53 -33q3 45 -2 74q20 31 46 30q25 -1 28 -28q-33 -48 -42 -79q48 22 78 45q32 4 33 -28z" />
<glyph unicode="+" horiz-adv-x="216" d="M223 333l-16 -50h-68l-29 -113h-52l29 113h-70l16 50h67l26 103h52l-26 -103h71z" />
<glyph unicode="," horiz-adv-x="226" d="M166 78q0 -30 -14 -66q-21 -54 -67 -90q-5 -4 -11 -4q-14 0 -14 14q0 8 7 14q17 14 35 43q-17 -1 -27 13t-10 33q0 34 18.5 61t43.5 27q39 0 39 -45z" />
<glyph unicode="-" horiz-adv-x="228" d="M223 333l-16 -50h-190l16 50h190z" />
<glyph unicode="." horiz-adv-x="226" d="M166 78q0 -35 -15 -61q-17 -29 -46 -29q-17 0 -28.5 14.5t-11.5 32.5q0 34 18.5 61t43.5 27q39 0 39 -45z" />
<glyph unicode="/" horiz-adv-x="565" d="M576 672l-523 -694l-40 28l523 695z" />
<glyph unicode="0" horiz-adv-x="613" d="M650 496q0 -123 -74 -245q-68 -111 -172.5 -183t-195.5 -72q-77 0 -128 71q-48 66 -48 153q0 118 77 238q70 109 176.5 181.5t194.5 72.5q71 0 120.5 -66.5t49.5 -149.5zM534 544q0 50 -8 72q-11 32 -42 32q-114 0 -229 -168q-109 -160 -109 -298q0 -130 58 -130 q57 0 136.5 72.5t132.5 179.5q61 121 61 240z" />
<glyph unicode="1" horiz-adv-x="348" d="M466 666q0 -5 -26 -29q-34 -31 -61 -81q-40 -77 -69 -204q-24 -108 -84 -238q-57 -125 -78 -125q-20 0 -21.5 20t-28.5 20q-20 0 -58 -30.5t-47 -30.5t-13 18q146 182 223 370q102 249 195 297q6 3 3 5t-9 0q-38 -15 -93 -75q-48 -53 -73 -53q-46 0 -46 55q0 3 20 7 q31 5 70 38q44 37 68 50q36 20 76 20q52 0 52 -34z" />
<glyph unicode="2" horiz-adv-x="516" d="M571 532q0 -136 -125 -205q-20 -11 -239 -85q-133 -45 -145 -120q-5 -33 -2 -44q1 -4 5 -3q3 1 3 5q1 53 28 83q32 36 92 36q39 0 71 -33l52 -62q32 -33 72 -33q8 0 28 11q-29 10 -24 39q5 30 43 30q15 0 25 -11t10 -26q0 -49 -40 -82.5t-92 -33.5q-46 0 -105.5 52 t-100.5 52q-19 0 -19 -27q0 -8 5 -21.5t5 -30.5q0 -30 -43 -30q-72 0 -72 76q0 142 117 219l216 102q117 58 117 154q0 41 -25 75q-30 39 -76 39q-53 0 -92 -29q-44 -33 -44 -90q0 -23 19 -23q6 0 16.5 8t17.5 8q24 0 24 -48q0 -46 -62 -46q-78 0 -78 100q0 78 71 127 q67 47 157 43q83 -4 136.5 -55t53.5 -121z" />
<glyph unicode="3" horiz-adv-x="523" d="M571 569q0 -61 -82 -91q-78 -21 -155 -42q-86 -28 -90 -83q-1 -11 0.5 -15.5t3.5 -3.5q3 1 3 5q3 49 46 72q35 19 79 14q54 -6 90.5 -51t36.5 -101q0 -124 -113 -203q-104 -71 -243 -71q-56 0 -96 22q-51 27 -51 78q0 22 13.5 39.5t35.5 20.5q20 3 37 -9.5t17 -30.5 q0 -28 -18 -42q16 -26 60 -26q95 0 169.5 73.5t74.5 160.5q0 28 -18 54.5t-41 21.5q-30 -6 -38 -45.5t-39 -39.5q-23 0 -41.5 22.5t-18.5 51.5q0 45 40 80q24 21 89 48t89 46q42 32 42 83q0 20 -25.5 35t-54.5 15q-133 0 -158 -98q14 16 36 8q21 -8 18 -41q-1 -16 -17 -27.5 t-35 -11.5q-29 0 -49 25.5t-15 54.5q10 61 78 101q64 37 144 37q76 0 133 -35q63 -38 63 -101z" />
<glyph unicode="4" horiz-adv-x="534" d="M574 674q0 -5 -21 -31q-29 -33 -52 -85q-36 -79 -65 -206q-9 -38 -31 -107q24 -11 41 -11q28 0 28 14q0 10 -9.5 16.5t-9.5 21.5q0 13 11 21t26 6q35 -5 32 -48q-4 -70 -94 -70q-22 0 -42 3q-33 -84 -67 -146.5t-47 -62.5q-20 0 -21.5 20t-28.5 20q-20 0 -58 -30.5 t-47 -30.5q-8 0 -13 18q84 104 164 248q-45 14 -84 14q-38 0 -69 -22q-20 -15 -53 -52q-48 0 -48 82q0 109 89 219q80 100 200.5 166.5t216.5 66.5q52 0 52 -34zM506 661q10 5 -6 5q-58 0 -158 -56q-113 -63 -187 -152q-91 -109 -91 -225q70 88 178 79q28 -2 60 -16 q13 26 27 60q58 141 85 193q47 89 92 112z" />
<glyph unicode="5" horiz-adv-x="564" d="M605 684q2 -54 -29 -85q-34 -35 -101 -33q-29 1 -72 23.5t-72 22.5q-47 0 -66 -40l-96 -200q-2 -5 1 -7q4 -2 7 3q70 141 203 141q52 0 88 -45t36 -122q0 -13 -1 -27q-12 -138 -127 -230q-108 -86 -243 -86q-56 0 -96 22q-51 27 -51 78q0 22 13.5 39.5t35.5 20.5 q20 3 37 -9.5t17 -30.5q0 -28 -18 -42q16 -26 60 -26q91 0 167 96q70 88 77 182q3 32 3 45q0 63 -44 63q-43 0 -83 -40q-33 -32 -54 -79q-11 -24 -40 -24q-21 0 -40 13.5t-19 30.5q0 6 3 12l118 244q11 24 13 52q-1 -16 -1 54q0 16 24 16q8 0 14.5 -15t6.5 -28q0 -6 -1 -9 q37 40 82 40q29 0 70.5 -23t69.5 -23q60 0 60 16q0 4 -10 11.5t-9 21.5q2 28 33 28q32 0 34 -51z" />
<glyph unicode="6" horiz-adv-x="584" d="M592 634q0 -27 -17 -46.5t-43 -19.5q-18 0 -32 12t-14 30q0 8 10 18t10 18q0 14 -32 14q-94 0 -183 -94q-84 -89 -127 -218q35 70 94 114q63 48 132 48q51 0 86 -45q32 -42 32 -95q0 -135 -98 -250.5t-208 -115.5q-83 0 -133 59q-47 56 -47 141q0 184 144 342t312 158 q44 0 75 -15q39 -19 39 -55zM392 382q0 56 -36 56q-70 0 -126 -70q-49 -62 -49 -120q0 -23 9 -23q8 0 14.5 5t11.5 5q28 -2 28 -38q0 -22 -16 -37t-38 -15q-43 0 -54 57v-21q0 -107 60 -115q77 -10 139 98q57 102 57 218z" />
<glyph unicode="7" horiz-adv-x="382" d="M470 656q0 -50 -60 -115q-57 -60 -115 -120q-149 -179 -149 -305q0 -29 14.5 -43t29.5 -27q-25 -52 -70 -52q-46 0 -73 45q-25 41 -21 93q9 114 116 237q54 63 191 179q99 84 96 109q0 4 -2 4q-1 0 -2 -3q-10 -28 -37.5 -45t-55.5 -17t-77 7t-81 7q-47 0 -73 -23 q-14 -13 -28 -44q-11 -23 -21 -23q-15 0 -15 20q0 21 17.5 55.5t17.5 56.5q0 10 -5 25t-5 23q0 18 16 18q14 0 24 -42q54 40 102 40q33 0 82 -25t78 -25q24 0 29.5 24t16.5 24q25 0 42.5 -16.5t17.5 -41.5z" />
<glyph unicode="8" horiz-adv-x="564" d="M562 582q0 -57 -75 -102q-53 -31 -127 -48q60 -52 84 -88q40 -60 40 -134q0 -93 -81 -154q-77 -59 -177 -52q-88 6 -149 50q-67 48 -67 124q0 80 70 140q63 53 149 68q-53 69 -53 146q0 79 76 133q72 51 160 45q150 -10 150 -128zM478 588q0 27 -23 44t-61 16 q-45 -1 -81 -26q-39 -26 -39 -60q0 -46 51 -97q58 13 98 39q55 35 55 84zM376 188q0 39 -36 81q-37 39 -75 77q-71 -13 -119 -54q-56 -46 -56 -110q0 -50 36.5 -85t89.5 -41q62 -7 111 32.5t49 99.5z" />
<glyph unicode="9" horiz-adv-x="557" d="M596 592q0 -20 -10 -29q6 -18 6 -37q0 -189 -117 -349q-129 -177 -317 -177q-60 0 -102 22q-50 27 -50 76q0 28 18 49t46 25q24 4 39 -11t15 -35q0 -13 -13 -25.5t-13 -23.5q0 -27 56 -27q92 0 172 81q67 68 111 175q39 96 41 167q-21 -113 -74 -181q-62 -78 -156 -78 q-65 0 -107 42q-45 43 -45 116q0 133 108 235.5t246 102.5q59 0 100 -30q46 -33 46 -88zM555 614q-17 38 -77 38q-116 0 -202 -94q-82 -91 -82 -202q0 -40 22 -66t52 -26q77 0 136 105q55 99 56 220q-2 10 -2 16q0 13 15 19q3 1 29 6q29 6 53 -16z" />
<glyph unicode=":" horiz-adv-x="226" d="M226 378q0 -35 -15 -61q-17 -29 -46 -29q-17 0 -28.5 14.5t-11.5 32.5q0 34 18.5 61t43.5 27q39 0 39 -45zM166 78q0 -35 -15 -61q-17 -29 -46 -29q-17 0 -28.5 14.5t-11.5 32.5q0 34 18.5 61t43.5 27q39 0 39 -45z" />
<glyph unicode=";" horiz-adv-x="226" d="M226 378q0 -35 -15 -61q-17 -29 -46 -29q-17 0 -28.5 14.5t-11.5 32.5q0 34 18.5 61t43.5 27q39 0 39 -45zM166 78q0 -30 -14 -66q-21 -54 -67 -90q-5 -4 -11 -4q-14 0 -14 14q0 8 7 14q17 14 35 43q-17 -1 -27 13t-10 33q0 34 18.5 61t43.5 27q39 0 39 -45z" />
<glyph unicode="&#x3c;" horiz-adv-x="324" d="M376 438l-282 -178l178 -119l-28 -42l-207 137v48l313 196z" />
<glyph unicode="=" horiz-adv-x="228" d="M263 383l-16 -50h-190l16 50h190zM227 300l-16 -50h-190l16 50h190z" />
<glyph unicode="&#x3e;" horiz-adv-x="324" d="M365 290l-313 -196l-26 42l282 178l-178 119l28 42l207 -137v-48z" />
<glyph unicode="?" horiz-adv-x="340" d="M359 494q0 -70 -62 -122q-6 -5 -116 -75q-62 -39 -62 -77q0 -19 19 -35t19 -19q0 -22 -26 -22t-48 37.5t-22 76.5q0 59 58 113q54 42 108 85q58 51 58 106q0 35 -33 64.5t-69 25.5q12 -14 12 -42q0 -18 -16 -32t-35 -14q-26 0 -42.5 17.5t-16.5 44.5q0 35 32 56 q28 20 68 20q75 0 126 -64q48 -61 48 -144zM75 -4q-39 0 -39 48q0 26 17.5 50t43.5 24q39 0 39 -48q0 -26 -17.5 -50t-43.5 -24z" />
<glyph unicode="@" horiz-adv-x="695" d="M683 510q0 -118 -79 -229t-162 -111q-25 0 -46.5 16t-21.5 39q0 15 11 44l47 125q3 7 -4 8q-6 1 -9 -7l-44 -125q-14 -39 -42.5 -69t-55.5 -30q-40 0 -62 28q-20 25 -20 64q0 96 72 172t170 76q33 0 60 -16.5t29 -41.5q2 -28 -22 -35l-65 -157q-4 -10 -4 -22q0 -18 7 -19 q69 0 130 96q61 93 61 194q0 137 -128 146q-164 12 -295 -116q-127 -124 -127 -282q0 -89 33 -147q39 -69 116 -69q114 0 210 96q10 10 22 10q25 0 25 -24q0 -11 -11 -22q-110 -110 -246 -110q-99 0 -153 84q-46 72 -46 182q0 168 130 307q134 143 309 143q16 0 33 -2 q178 -16 178 -196zM483 463q-11 15 -42 15q-81 0 -131 -80q-43 -70 -43 -158q0 -9 5.5 -18t12.5 -9q14 0 32.5 18.5t27.5 42.5l60 152h65q-5 7 -5 14q0 16 18 23z" />
<glyph unicode="A" horiz-adv-x="858" d="M997 653q-1 -5 -16 -9q-78 -21 -121 -98q-32 -58 -56 -175q59 11 59 50q0 5 -8.5 12.5t-8.5 19.5q0 33 28 33q44 0 44 -58q0 -38 -32.5 -65.5t-91.5 -35.5q-43 -216 -110 -325q-2 -14 -16 -10q-11 3 -8.5 15.5t-4.5 22t-21 9.5q-31 0 -53 -8q-30 -12 -74 -48 q-12 -10 -20 3q-8 12 6 17q104 89 193 310q-26 -2 -152 -7q-87 -158 -143 -217q-88 -93 -213 -105q-69 -7 -118 37.5t-49 111.5q0 14 3 28q39 218 415 218q29 0 61 -1q108 181 172 235q60 51 99 71q53 26 116 26q68 0 113 -42q9 -8 7 -15zM896 660q-12 2 -19 2 q-153 0 -306 -289q119 -7 136 -7q56 147 80 189q47 86 109 105zM444 303q-172 -6 -258 -37q-115 -40 -115 -130q0 -50 27 -76q23 -22 58 -22q124 0 288 265z" />
<glyph unicode="B" horiz-adv-x="734" d="M782 626q0 -17 -10.5 -30.5t-25.5 -13.5q-29 0 -29 22q0 3 2 12q1 6 0 9q-2 3 -11 3q-18 0 -34 -14q66 -70 66 -146q0 -46 -26.5 -79.5t-69.5 -46.5q76 -45 76 -147q0 -85 -59 -142t-146 -57q-30 0 -61 4.5t-56 4.5q-49 0 -118 -23q-13 -11 -24 3q-9 11 3 24 q71 76 172 301q103 229 162 296q-61 48 -159 48q-136 0 -237.5 -98.5t-101.5 -230.5q0 -46 24 -82q27 -39 66 -39q60 0 102 61q39 56 39 123q0 76 -43 76q-39 0 -65 -25t-26 -67q0 -5 25 -16t25 -41q0 -15 -13 -26t-29 -11q-28 0 -43 30q-13 25 -13 60q0 71 51 128t107 57 q104 0 104 -151q0 -89 -66 -166q-70 -82 -164 -82q-69 0 -117.5 54t-48.5 126q0 155 126 264q123 108 290 108q130 0 214 -62q44 28 89 28q19 0 36 -13.5t17 -32.5zM660 470q0 48 -24 87q-46 -101 -69 -181q30 -1 61.5 29t31.5 65zM626 226q0 39 -17 66q-19 32 -56 37 q-52 -173 -105 -255q39 -6 56 -6q54 0 90 52q32 47 32 106z" />
<glyph unicode="C" horiz-adv-x="766" d="M857 563q0 -131 -144 -195q-113 -50 -288 -50q-54 0 -97 -5q-10 -36 -10 -71q0 -77 27 -129q33 -63 96 -63q132 0 237 152q11 15 25 3q12 -11 3 -24q-41 -76 -102 -126q-77 -62 -163 -62q-109 0 -177 76q-66 73 -66 179q0 10 2 34q-114 -44 -114 -128q0 -59 28 -59 q5 0 10 18t26 18q34 0 34 -42q0 -29 -24.5 -46t-53.5 -17q-40 0 -64 35q-20 30 -20 67q0 80 56 138q47 49 138 85q46 140 182 243q143 107 302 107q62 0 106 -33q51 -38 51 -105zM788 575q0 36 -33 57q-29 18 -67 18q-89 0 -186 -80q-90 -75 -143 -180q102 17 203 34 q111 20 161 48q65 36 65 103z" />
<glyph unicode="D" horiz-adv-x="810" d="M795 629q0 -18 -10.5 -32t-26.5 -14q-29 0 -29 23q0 3 2 13q1 6 -1 9t-11 3q-18 0 -35 -15q43 -45 73 -119q35 -86 35 -177q0 -138 -74 -235q-80 -105 -207 -105q-31 0 -58 4.5t-53 4.5q-51 0 -122 -24q-12 -10 -24 4q-9 11 3 24q73 78 177 310q106 236 167 305 q-63 50 -164 50q-140 0 -244.5 -101.5t-104.5 -237.5q0 -48 25 -85q27 -40 68 -40q61 0 105 63q40 58 40 127q0 78 -45 78q-40 0 -67.5 -25t-27.5 -68q0 -6 26.5 -18t26.5 -43q0 -15 -13 -26.5t-30 -11.5q-28 0 -44 31q-14 26 -14 62q0 73 55 132q52 56 110 56 q107 0 107 -155q0 -92 -69 -170q-73 -83 -170 -83q-72 0 -123 56t-51 131q0 159 131 271q128 110 301 110q134 0 220 -64q45 29 92 29q20 0 37 -14t17 -33zM680 366q0 52 -11 113q-11 58 -24 79q-112 -378 -205 -514q48 -6 65 -6q79 0 130 111q45 97 45 217z" />
<glyph unicode="E" horiz-adv-x="670" d="M789 579q0 -115 -94 -177q-90 -60 -248 -60q-38 0 -58 -1q23 -35 77 -35q8 0 33 9t46 9q42 0 42 -39q0 -29 -34 -43l-68 -18q-91 -26 -151 -83q-67 -63 -72 -145q-3 -48 25 -81t81 -33q72 0 127 52t55 123q0 34 -14 58q-17 29 -49 30q-35 1 -67 -27.5t-32 -66.5 q0 -14 10.5 -27t22.5 -12q27 2 21 23q3 1 7 1q29 0 29 -37q0 -29 -22 -47q-18 -15 -43 -15q-38 0 -60 33q-18 28 -18 66q0 75 58 125q54 49 126 46q57 -2 89 -45q31 -39 27 -93q-7 -103 -82 -171q-71 -66 -173 -73q-98 -7 -163 34q-68 43 -68 121q0 89 69 154q51 47 148 87 q68 27 136 53q4 1 3 3t-4 1q-50 -14 -94 -14q-96 0 -135 67q-228 -34 -228 -191q0 -26 21 -26q4 0 9 1.5t11 14.5t21 16q31 7 31 -46q0 -33 -19.5 -49.5t-45.5 -16.5q-37 0 -61 29.5t-24 72.5q0 190 268 245q-2 7 -2 21q0 121 146 215q129 83 251 83q62 0 99 -29 q40 -32 40 -92zM722 585q0 64 -78 64q-15 0 -33 -3q-75 -13 -152 -82q-88 -78 -88 -162v-3q16 2 63 7q115 12 192 51q96 50 96 128z" />
<glyph unicode="F" horiz-adv-x="653" d="M863 625q0 -33 -26.5 -53t-63.5 -20q-40 0 -110 21q-42 -57 -81 -147h117l-23 -44h-112q-12 -33 -21 -68q-58 -215 -136 -330q-5 -14 -17 -11q-13 3 -9 16q1 5 1 10q0 24 -25 24t-34 -2q-31 -9 -75 -44q-15 -12 -21 3q-7 10 4 19q65 52 129 163q42 73 102 209q1 2 2.5 6 t1.5 5h-48l23 44h45q51 110 101 172q-153 49 -243 49q-116 0 -206 -90.5t-90 -208.5q0 -58 29 -101q32 -48 83 -48q67 0 112 64q42 59 42 134q0 88 -58 88q-42 0 -69 -33.5t-27 -78.5q0 -40 21 -40q6 0 11.5 9.5t12.5 9.5q11 0 16 -12t3 -26q-3 -21 -19 -34.5t-37 -13.5 q-30 0 -48 30q-15 27 -15 63q0 71 53.5 130t122.5 59q52 0 81 -33t31 -90q3 -108 -65 -190q-70 -85 -171 -85q-72 0 -116 69q-39 61 -39 146q0 148 106 255.5t255 107.5q66 0 142 -28q6 -3 124 -56q69 61 150 61q38 0 61 -21.5t23 -58.5zM816 632q0 31 -40 31q-35 0 -78 -46 q46 -13 77 -13q14 0 27.5 8t13.5 20z" />
<glyph unicode="G" horiz-adv-x="749" d="M857 573q0 -125 -144 -185q-113 -48 -288 -48q-54 0 -97 -5q-10 -33 -10 -67q0 -63 28.5 -101t72.5 -38t98 52q4 4 83 97q45 52 70 52q1 0 13.5 1.5t20.5 1.5q31 0 31 -18q0 -7 -11 -16q-15 -14 -26 -39q-7 -16 -37 -162q-26 -126 -74 -188q-68 -90 -197 -90 q-60 0 -102 22q-50 26 -50 74q0 25 17.5 43.5t42.5 18.5q17 0 29.5 -11.5t12.5 -28.5q0 -9 -14 -19t-14 -19q1 -28 62 -28q77 0 129 72q33 45 70 150t57 132q-17 -13 -52.5 -59.5t-63.5 -65.5q-43 -30 -99 -30q-95 0 -155 52q-62 56 -62 151q0 8 2 32q-105 -39 -114 -122 q-6 -56 28 -56q6 0 12 18.5t25 19.5q33 2 33 -43q0 -28 -22.5 -45.5t-50.5 -17.5q-40 0 -66 35q-23 30 -23 65q0 75 56 131q45 45 138 80q46 133 182 231q143 102 302 102q62 0 106 -31q51 -36 51 -100zM788 584q0 35 -33 54q-28 17 -67 17q-89 0 -186 -76 q-90 -71 -143 -171q102 16 203 32q111 19 161 46q65 35 65 98z" />
<glyph unicode="H" horiz-adv-x="853" d="M1028 592q-3 -47 -45 -47q-27 0 -27 25q0 11 7 22.5l7 11.5q-1 2 -4 2q-40 0 -70.5 -38.5t-60 -135.5t-57.5 -193q-29 -91 -59 -159q-35 -80 -53 -80q-19 0 -20.5 19t-27.5 19q-19 0 -55.5 -29t-44.5 -29q-10 0 -10 18q0 1 53 63q61 73 94 148q21 47 37 90h-135 q-76 -152 -143 -221q-95 -98 -222 -98q-60 0 -105 27q-51 31 -51 81q0 24 11.5 43t32.5 19q16 0 29 -10.5t13 -25.5q0 -21 -16 -30t-16 -14q0 -42 84 -42q109 0 198 124q14 19 145 256q90 162 177 218q-9 0 -22.5 -2t-26.5 -2q-37 0 -133 13.5t-140 13.5q-116 0 -206 -90.5 t-90 -208.5q0 -58 29 -101q32 -48 83 -48q67 0 112 64q42 59 42 134q0 88 -58 88q-42 0 -72 -37t-30 -82q0 -33 27 -33q6 0 11.5 9.5t12.5 9.5q11 0 16 -12t3 -26q-3 -21 -19 -34.5t-37 -13.5q-30 0 -48 30q-15 27 -15 63q0 70 55 131t124 61q52 0 81 -33t31 -90 q3 -108 -66 -192q-72 -86 -173 -86q-72 0 -116 69q-39 61 -39 146q0 163 101 262q95 92 233 92q55 0 155 -27.5t145 -27.5q20 0 49.5 9t48.5 9q34 0 34 -16q0 -13 -16 -22q-25 -16 -28 -18q-46 -43 -92 -123q-25 -45 -79 -156h131q64 161 110 219q71 89 156 80 q22 -2 37 -18.5t13 -37.5z" />
<glyph unicode="I" horiz-adv-x="638" d="M796 670q2 -11 -15 -22q-28 -19 -29 -20q-73 -68 -183 -375q-52 -145 -145 -210q-89 -63 -232 -63q-60 0 -105 27q-51 31 -51 81q0 24 11.5 43t32.5 19q16 0 29 -10.5t13 -25.5q0 -21 -16 -30t-16 -14q0 -40 80 -40q98 0 173 82q43 47 117 178q42 86 83 173 q60 107 161 167q-8 0 -27 -4t-32 -4q-37 0 -133 13.5t-140 13.5q-116 0 -206 -90.5t-90 -208.5q0 -58 29 -101q32 -48 83 -48q67 0 112 64q42 59 42 134q0 88 -58 88q-42 0 -69 -33.5t-27 -78.5q0 -40 21 -40q6 0 11.5 9.5t12.5 9.5q11 0 16 -12t3 -26q-3 -21 -19 -34.5 t-37 -13.5q-30 0 -48 30q-15 27 -15 63q0 71 53.5 130t122.5 59q52 0 81 -33t31 -90q3 -108 -65 -190q-70 -85 -171 -85q-72 0 -116 69q-39 61 -39 146q0 147 106 250t255 103q54 0 145 -27t128 -27q20 0 49.5 9t48.5 9q32 0 34 -14z" />
<glyph unicode="J" horiz-adv-x="756" d="M934 670q2 -11 -15 -22q-28 -19 -29 -20q-165 -154 -234 -396q-4 -16 -14 -48q45 13 45 44q0 5 -7 13t-4 22q4 21 27 20q35 -2 35 -58q0 -75 -119 -102q-133 -326 -421 -326q-69 0 -117 34q-63 44 -63 134q0 103 86 171q83 67 200 67q18 0 35 -2q59 -9 179 -22 q22 43 44 99q45 117 99 190q70 96 181 162q-8 0 -27 -4t-32 -4q-39 0 -128.5 10.5t-127.5 10.5q-106 0 -186.5 -67.5t-80.5 -162.5q0 -47 26 -82q29 -38 75 -38q60 0 101 51q38 48 38 109q0 71 -53 71q-38 0 -62 -27.5t-24 -63.5q0 -32 19 -32q5 0 10 7.5t12 7.5 q19 0 17 -31q-7 -38 -51 -38q-27 0 -41.5 23t-14.5 52q0 59 45 106q49 50 117 50q47 0 73.5 -27t27.5 -73q3 -87 -61 -156q-65 -72 -156 -72q-66 0 -109 52q-40 48 -40 115q0 122 88 212q92 94 223 94q48 0 146 -28.5t136 -28.5q20 0 49.5 9t48.5 9q32 0 34 -14zM480 110 q-62 -1 -135 4q-103 8 -186.5 -39t-83.5 -116q0 -58 40 -85q28 -18 67 -18q75 0 158 75q74 66 140 179z" />
<glyph unicode="K" horiz-adv-x="778" d="M890 580q-3 -47 -45 -47q-21 0 -27 25q-1 5 5 19t6 18q0 6 -7 6q-34 0 -64 -45q-27 -54 -54 -107q-35 -64 -90 -94q90 -20 90 -108q0 -31 -32.5 -83.5t-32.5 -81.5q0 -40 24 -40t36 29t18 30q20 2 20 -28q0 -28 -27 -58q-29 -34 -65 -34q-40 0 -68.5 23t-31.5 61 q-5 58 30 128t35 91q0 31 -59 41q-2 -5 -5 -16q-41 -131 -63 -183q-29 -73 -76 -142q-5 -14 -17 -11q-11 3 -9 16q1 4 1 8q0 26 -25 26t-34 -2q-31 -9 -75 -44q-15 -12 -21 3q-7 10 4 19q125 101 231 372q44 113 88 177l66 80q-39 -6 -42 -6q-37 0 -101 13.5t-108 13.5 q-116 0 -206 -90.5t-90 -208.5q0 -58 29 -101q32 -48 83 -48q67 0 112 64q42 59 42 134q0 88 -58 88q-42 0 -69 -33.5t-27 -78.5q0 -40 21 -40q6 0 11.5 9.5t12.5 9.5q11 0 16 -12t3 -26q-3 -21 -19 -34.5t-37 -13.5q-30 0 -48 30q-15 27 -15 63q0 71 53.5 130t122.5 59 q52 0 81 -33t31 -90q3 -108 -65 -190q-70 -85 -171 -85q-72 0 -116 69q-39 61 -39 146q0 147 106 250t255 103q54 0 113 -27t96 -27q20 0 49.5 9t48.5 9q32 0 34 -14q2 -11 -15 -22q-28 -19 -29 -20q-61 -57 -121 -268q39 30 72 102q39 88 58 112q51 64 126 64q30 0 51 -13 q25 -16 23 -45z" />
<glyph unicode="L" horiz-adv-x="715" d="M766 538q0 -121 -104 -184q-112 -68 -334 -63q-73 -181 -198 -235q49 -2 118 -49q61 -43 123 -86q74 -45 135 -45t98.5 44t37.5 116q0 30 -25.5 53t-56.5 23q-29 0 -48 -20q-15 -16 -15 -33q0 -11 7 -11q5 0 13.5 3t14.5 3q23 0 23 -35q0 -43 -43 -43q-31 0 -51.5 24.5 t-20.5 57.5q0 46 33.5 80t80.5 34q61 0 103.5 -44.5t42.5 -105.5q0 -100 -73 -164q-69 -60 -169 -60q-86 0 -159 58q-56 53 -113 106q-64 58 -126 58q-7 0 -17 -5t-17 -5q-13 0 -22.5 8.5t-7.5 19.5q3 15 58 37q65 26 98 68.5t67 148.5q-111 -6 -111 -60q0 -10 13 -19 t13 -27q0 -15 -11.5 -24.5t-26.5 -9.5q-23 0 -38.5 18.5t-15.5 41.5q0 58 58 97q51 34 139 48q53 163 131 247q98 106 236 106q73 0 118 -51q42 -49 42 -121zM699 561q0 38 -24.5 66.5t-63.5 28.5q-110 0 -171 -90q-34 -49 -86 -202q125 5 230 59q115 59 115 138z" />
<glyph unicode="M" horiz-adv-x="1188" d="M1205 398q-10 -61 -55 -124l-78 -94q-40 -50 -40 -83q0 -10 3 -20q6 -22 27 -22q27 0 45 21q8 10 23 40q10 21 19 21q18 0 18 -34q0 -39 -38 -75.5t-84 -36.5q-33 0 -57.5 29.5t-24.5 64.5q0 67 39 138l74 112q39 63 39 111q0 24 -14 24q-89 0 -258 -431q-4 -10 -9 -17 q-12 -17 -25 -17l-57 -2q-25 -1 -42 -13t-21 -13q-8 -1 -15 5.5t-5 14.5q31 133 88 266q29 66 91 184q41 79 41 100t-12 21q-49 0 -134.5 -167.5t-141.5 -367.5q-3 -9 -7 -16q-10 -16 -23 -16l-75 -2q-24 -1 -41.5 -10.5t-29.5 -9.5q-8 0 -12.5 7t-1.5 17q23 83 108 266 q61 133 61 235q0 160 -135 160q-144 0 -251.5 -115t-107.5 -259q0 -63 26.5 -104.5t63.5 -41.5q60 0 102 61q39 56 39 123q0 70 -43 76q-37 5 -63.5 -22t-26.5 -71q0 -5 24.5 -15.5t24.5 -40.5q0 -16 -13 -27.5t-29 -9.5q-54 6 -54 90q0 71 50 125q47 52 103 52q68 0 97 -53 q21 -40 18 -98q-5 -90 -72 -164q-72 -79 -166 -76q-73 2 -123 63t-45 155q9 173 139 289t305 116q98 0 166 -74.5t68 -174.5q0 -39 -25 -111q-30 -85 -61 -170q-2 -7 3 -9q6 -2 9 5l66 170q51 126 98 192q65 91 134 91q74 0 74 -94q0 -43 -46 -155l-90 -216q-4 -9 4 -9 q5 0 8 7q35 82 70 163q45 100 85 150q52 66 107 66q43 0 70 -36q24 -34 24 -85q0 -14 -2 -29z" />
<glyph unicode="N" horiz-adv-x="937" d="M961 490q-7 -66 -50 -138l-76 -118q-39 -68 -39 -131q0 -46 22 -46q20 0 35 34t33 34q20 0 20 -38q0 -37 -30 -65.5t-70 -28.5q-88 0 -88 134q0 72 40 157l74 136q40 74 40 122q0 29 -1 36q-4 20 -19 20q-67 0 -155 -218q-65 -172 -129 -344q-5 -10 -10 -17 q-13 -18 -26 -18l-93 -2q-14 0 -29 -10t-21 -10q-18 0 -11 24q26 93 114 275q67 139 67 226q0 160 -114 160q-144 0 -251.5 -115t-107.5 -259q0 -63 26.5 -104.5t63.5 -41.5q60 0 102 61q39 56 39 123q0 70 -43 76q-37 5 -63.5 -22t-26.5 -71q0 -5 24.5 -15.5t24.5 -40.5 q0 -16 -13 -27.5t-29 -9.5q-54 6 -54 90q0 71 50 125q47 52 103 52q68 0 97 -53q21 -40 18 -98q-5 -90 -72 -164q-72 -79 -166 -76q-73 2 -123 63t-45 155q9 173 139 289t305 116q98 0 157 -65q56 -64 57 -164q0 -41 -25 -122q-8 -25 -62 -179q-3 -10 7 -10q6 0 7 7 q40 111 80 221q46 121 87 179q52 74 111 74q41 0 70.5 -39t29.5 -102q0 -13 -1 -27z" />
<glyph unicode="O" horiz-adv-x="860" d="M843 563q0 -40 -12 -71q9 -25 9 -53q0 -152 -79 -263q-65 -90 -171 -141q-88 -42 -163 -42q-109 0 -177 76q-66 73 -66 179q0 10 2 34q-116 -45 -116 -135q0 -52 30 -52q5 0 10 18t26 18q34 0 34 -42q0 -29 -24.5 -46t-53.5 -17q-40 0 -64 35q-20 30 -20 67q0 80 56 138 q47 49 138 85q46 140 182 243q143 107 302 107q62 0 106 -33q51 -38 51 -105zM735 394q-9 -145 -121 -251q-98 -93 -187 -93q-63 0 -96 63q-27 52 -27 129q0 35 10 71q39 5 88 5v-24q0 -47 18 -79q20 -38 60 -43q27 -3 49.5 12t22.5 40q0 44 -32 44q-6 0 -16 -9t-18 -9 q-22 0 -22 42q0 16 3 27q171 9 268 67v8zM774 568v7q0 36 -33 57q-29 18 -67 18q-89 0 -186 -80q-90 -75 -143 -180l84 15q36 79 111 129.5t158 53.5q46 2 76 -20zM722 480q-13 36 -46 36q-112 0 -173 -100q162 26 219 64z" />
<glyph unicode="P" horiz-adv-x="768" d="M803 629q0 -18 -10.5 -32t-26.5 -14q-29 0 -29 23q0 3 2 13q1 6 -1 9t-11 3q-18 0 -35 -15q105 -109 105 -260q0 -100 -73 -157q-55 -44 -112 -44q-56 0 -90 14q-32 -107 -84 -191q-8 -13 -17 -11q-11 3 -9 16q1 4 1 8q0 26 -25 26t-34 -2q-31 -9 -75 -44q-15 -12 -21 3 q-7 10 4 19q72 79 179 312.5t168 302.5q-63 50 -164 50q-140 0 -244.5 -101.5t-104.5 -237.5q0 -48 25 -85q27 -40 68 -40q61 0 105 63q40 58 40 127q0 78 -45 78q-38 0 -61.5 -27t-23.5 -72q0 -6 21.5 -15t21.5 -40q0 -15 -13 -26.5t-30 -11.5q-28 0 -44 31q-14 26 -14 62 q0 73 51 128q48 52 106 52q107 0 107 -155q0 -92 -65 -166q-69 -79 -166 -79q-70 0 -114 57q-42 53 -42 130q0 160 121.5 270.5t292.5 110.5q134 0 220 -64q45 29 92 29q20 0 37 -14t17 -33zM696 368q0 50 -16 114q-15 58 -29 81q-39 -76 -67 -175q-23 -88 -45 -176 q16 -7 54 -7q32 0 60 28q43 44 43 135z" />
<glyph unicode="Q" horiz-adv-x="852" d="M846 563q0 -40 -12 -71q9 -25 9 -53q0 -152 -79 -263q-65 -90 -171 -141q-88 -42 -163 -42q-109 0 -177 76q-66 73 -66 179q0 10 2 34q-116 -45 -116 -135q0 -52 30 -52q5 0 10 18t26 18q34 0 34 -42q0 -29 -24.5 -46t-53.5 -17q-40 0 -64 35q-20 30 -20 67q0 80 56 138 q47 49 138 85q46 140 182 243q143 107 302 107q62 0 106 -33q51 -38 51 -105zM829 -70q0 -79 -67 -132q-63 -50 -149 -50q-100 0 -170 59l-104 108q-59 59 -134 59q-9 0 -21.5 -6t-20.5 -6q-26 0 -26 22q0 20 30 31q24 9 56 9q73 0 145 -48l118 -90q71 -48 139 -48 q62 0 104 22q50 27 50 77q0 18 -12 35t-28 17q-40 0 -40 -27q0 -5 5 -11.5t5 -10.5q0 -24 -28 -24q-20 0 -32.5 16.5t-9.5 37.5q4 33 31 50.5t63 17.5q42 0 69 -32t27 -76zM777 568v7q0 36 -33 57q-29 18 -67 18q-89 0 -186 -80q-90 -75 -143 -180l84 15q36 79 111 129.5 t158 53.5q46 2 76 -20zM725 480q-13 36 -46 36q-112 0 -173 -100q162 26 219 64zM738 394q-93 -66 -268 -75q-3 -11 -3 -27q0 -42 22 -42q8 0 18 9t16 9q32 0 32 -44q0 -25 -22.5 -40t-49.5 -12q-39 4 -60 42q-18 33 -18 80v24q-49 0 -88 -5q-10 -36 -10 -71q0 -77 27 -129 q33 -63 96 -63q89 0 187 93q113 106 121 251z" />
<glyph unicode="R" horiz-adv-x="759" d="M782 626q0 -17 -10.5 -30.5t-25.5 -13.5q-29 0 -29 22q0 3 2 12q1 6 0 9q-2 3 -11 3q-18 0 -34 -14q66 -70 66 -146q0 -47 -35.5 -84.5t-84.5 -38.5q40 -9 50 -16q33 -21 30 -78q-1 -31 -34 -90t-33 -89q0 -40 24 -40q28 0 41 34.5t27 34.5q20 0 20 -28t-27 -58 q-29 -34 -65 -34q-40 0 -68.5 23t-31.5 61q-5 58 30 128t35 91q0 36 -55 45q-22 -79 -81 -215q-48 -114 -62 -136q-8 -13 -17 -11q-11 3 -9 16q1 4 1 8q0 26 -25 26t-34 -2q-31 -9 -75 -44q-15 -12 -21 3q-6 9 4 19q90 97 156 228q12 23 94 214q50 116 99 171 q-61 48 -159 48q-136 0 -237.5 -98.5t-101.5 -230.5q0 -46 24 -82q27 -39 66 -39q60 0 102 61q39 56 39 123q0 66 -43 76q-8 2 -15 2q-32 0 -55 -26t-23 -64q0 -13 26 -22.5t26 -38.5q0 -15 -13 -26t-29 -11q-28 0 -43 30q-13 25 -13 60q0 72 52.5 129t107.5 50 q104 -13 104 -151q0 -88 -67 -163q-71 -79 -165 -79q-69 0 -119.5 56t-50.5 128q0 154 128 262q124 106 292 106q130 0 214 -62q44 28 89 28q19 0 36 -13.5t17 -32.5zM660 470q0 48 -24 87q-19 -43 -59 -181q29 -1 56 28.5t27 65.5z" />
<glyph unicode="S" horiz-adv-x="698" d="M802 572q-2 -67 -54.5 -117.5t-111.5 -42.5q-34 5 -55 30t-21 60q0 40 20.5 69.5t57.5 36.5q21 4 37.5 -6t16.5 -28q0 -40 -26 -40q-5 0 -11 7t-11 7q-30 0 -30 -42q0 -14 9.5 -24t22.5 -10q39 0 67.5 30.5t28.5 79.5q0 28 -22.5 47t-49.5 19q-72 0 -123 -53t-51 -127 q0 -49 16 -102q5 -14 34 -92q60 10 60 40q0 8 -10 19.5t-10 20.5q0 30 36 30q20 0 32 -24q10 -20 10 -43q0 -64 -72 -93q-5 -2 -26 -9q14 -52 14 -99q0 -120 -101.5 -205.5t-230.5 -85.5q-88 0 -153 40q-75 46 -81 129q-7 97 76 170q63 55 169 79q63 14 181 21l-30 98 q-16 57 -16 106q0 106 86 179.5t190 64.5q60 -5 95 -40q39 -37 37 -100zM462 142q0 28 -4 48q-180 -33 -242 -58q-122 -49 -122 -137q0 -48 37.5 -80t86.5 -32q100 0 173 80q71 77 71 179z" />
<glyph unicode="T" horiz-adv-x="601" d="M863 625q0 -33 -26.5 -53t-63.5 -20q-40 0 -110 21q-46 -62 -120 -259q-29 -83 -57 -167q-38 -102 -79 -163q-5 -14 -17 -11q-11 3 -9 16q1 4 1 8q0 26 -25 26t-34 -2q-31 -9 -75 -44q-15 -12 -21 3q-7 10 4 19q64 51 127 163q29 51 104 209q83 174 125 227 q-153 49 -243 49q-116 0 -206 -90.5t-90 -208.5q0 -58 29 -101q32 -48 83 -48q67 0 112 64q42 59 42 134q0 88 -58 88q-42 0 -69 -33.5t-27 -78.5q0 -40 21 -40q6 0 11.5 9.5t12.5 9.5q11 0 16 -12t3 -26q-3 -21 -19 -34.5t-37 -13.5q-30 0 -48 30q-15 27 -15 63 q0 71 53.5 130t122.5 59q52 0 81 -33t31 -90q3 -108 -65 -190q-70 -85 -171 -85q-72 0 -116 69q-39 61 -39 146q0 148 106 255.5t255 107.5q66 0 142 -28q6 -3 124 -56q69 61 150 61q38 0 61 -21.5t23 -58.5zM816 632q0 31 -40 31q-35 0 -78 -46q46 -13 77 -13q14 0 27.5 8 t13.5 20z" />
<glyph unicode="U" horiz-adv-x="895" d="M980 624q-41 -129 -131 -339q-75 -177 -75 -193q0 -20 2 -26q3 -11 18 -11q27 0 43 21q7 10 19 40q8 21 17 21q18 0 18 -34q0 -39 -38 -75.5t-84 -36.5q-77 0 -77 83q0 27 56 155q83 190 112 267q3 7 -3 8q-5 1 -8 -6q-46 -106 -91 -211q-62 -134 -117 -203 q-73 -90 -149 -90q-52 0 -86 26.5t-34 71.5q0 60 55 156q50 80 101 161q53 88 52 130q-4 125 -135 125q-139 0 -251 -133q-108 -128 -108 -266q0 -46 24 -82q27 -39 66 -39q60 0 102 61q39 56 39 123q0 64 -43 76q-8 2 -17 2q-33 0 -56 -30t-19 -68q1 -5 26 -14t25 -39 q0 -37 -36 -37q-28 0 -46 30q-16 26 -16 60q0 71 48 123t104 52q104 0 104 -151q0 -89 -63 -161q-67 -77 -161 -77q-69 0 -115.5 54.5t-46.5 127.5q0 172 132.5 306.5t305.5 134.5q103 0 171 -55q71 -59 71 -154q0 -76 -50 -166q-10 -19 -91 -142q-50 -74 -50 -112 q0 -32 22 -32q73 0 182 209q60 114 150 337q11 28 28 28h46q9 0 22 6t20 6q19 0 16 -18z" />
<glyph unicode="V" horiz-adv-x="855" d="M897 567q0 -106 -58 -242t-140 -228q-91 -100 -171 -100q-62 0 -101 28q-52 37 -52 118q0 164 124 319q44 56 165 161q-39 -6 -42 -6q-37 0 -125 12t-132 12q-117 0 -211 -91t-94 -208q0 -58 29 -101q32 -48 83 -48q67 0 112 64q42 59 42 134q0 88 -58 88 q-42 0 -69 -33.5t-27 -78.5q0 -40 21 -40q6 0 11.5 9.5t12.5 9.5q11 0 16 -12t3 -26q-3 -21 -19 -34.5t-37 -13.5q-30 0 -48 30q-15 27 -15 63q0 71 53.5 130t122.5 59q52 0 81 -33t31 -90q3 -108 -65 -190q-70 -85 -171 -85q-72 0 -116 69q-39 61 -39 146q0 146 110 249.5 t260 103.5q54 0 137 -25.5t120 -25.5q20 0 49.5 9t48.5 9q32 0 34 -14q2 -11 -15 -22q-28 -19 -29 -20q-63 -59 -138 -194q-94 -169 -94 -290q0 -91 44 -91q81 0 193 176q110 172 112 292q-18 0 -36 11q-21 13 -21 31q0 23 16 40t38 17q20 0 37 -16t17 -32z" />
<glyph unicode="W" horiz-adv-x="1087" d="M1113 567q0 -104 -56 -245q-55 -136 -131 -231q-81 -103 -146 -103q-63 0 -97 47q-30 42 -30 105q0 125 67 261q61 126 131 175q8 5 2 8q-6 2 -15 -3q-65 -37 -129 -155q-39 -71 -79 -197q-41 -130 -58 -164q-35 -68 -87 -68q-45 0 -79 28q-46 38 -46 118q0 164 124 319 q44 56 165 161q-39 -6 -42 -6q-37 0 -125 12t-132 12q-117 0 -211 -91t-94 -208q0 -58 29 -101q32 -48 83 -48q67 0 112 64q42 59 42 134q0 88 -58 88q-42 0 -69 -33.5t-27 -78.5q0 -40 21 -40q6 0 11.5 9.5t12.5 9.5q11 0 16 -12t3 -26q-3 -21 -19 -34.5t-37 -13.5 q-30 0 -48 30q-15 27 -15 63q0 71 53.5 130t122.5 59q52 0 81 -33t31 -90q3 -108 -65 -190q-70 -85 -171 -85q-72 0 -116 69q-39 61 -39 146q0 146 110 249.5t260 103.5q54 0 137 -25.5t120 -25.5q20 0 49.5 9t48.5 9q32 0 34 -14q2 -11 -15 -22q-28 -19 -29 -20 q-63 -59 -138 -194q-94 -169 -94 -290q0 -38 4 -52q6 -27 28 -27q19 0 66 138q60 177 92 236q42 78 91 130q62 66 115 66q52 0 52 -34q0 -5 -34 -46q-41 -52 -69 -112q-42 -92 -59 -212q-6 -40 -6 -73q0 -95 34 -95q65 0 164.5 170.5t101.5 287.5q-18 0 -36 11 q-21 13 -21 31q0 23 16 40t38 17q20 0 37 -16t17 -32z" />
<glyph unicode="X" horiz-adv-x="863" d="M1036 660q0 -20 -12.5 -35t-31.5 -15q-34 0 -34 30q0 5 7 10.5t7 9.5q0 10 -20 6q-64 -13 -138 -81q-57 -53 -154 -173q0 -355 78 -355q32 0 59 62t43 62t16 -30q0 -45 -37 -98q-42 -60 -93 -60q-63 0 -107 49q-63 69 -78 222q-112 -133 -193 -196q-106 -83 -199 -83 q-137 0 -137 107q0 22 15 39t37 17q40 0 40 -30q0 -25 -19 -33.5t-19 -14.5q0 -40 86 -40q85 0 190 92q71 62 195 212q-1 15 -1 45q0 140 -26 214q-26 71 -72 71q-125 0 -226 -120q-97 -115 -97 -240q0 -42 22 -73q23 -35 59 -35q54 0 92 54q35 51 35 111q0 71 -54 71 q-30 0 -51 -27.5t-17 -61.5q0 -5 23 -13t23 -35q0 -33 -32 -33q-25 0 -41 27q-15 23 -15 54q0 64 46 114t97 50q93 0 93 -136q0 -80 -59 -148q-63 -72 -148 -72q-62 0 -108.5 53t-46.5 118q0 154 123 271.5t280 117.5q85 0 144 -57q64 -63 77 -174q98 113 163 165 q86 67 160 67q56 0 56 -52z" />
<glyph unicode="Y" horiz-adv-x="934" d="M1046 596q0 -4 -32 -32q-39 -34 -65 -85q-40 -77 -57 -197q-27 -193 -116 -318q-125 -176 -352 -176q-59 0 -105 28q-51 32 -51 82q0 24 11.5 43t32.5 19q16 0 29 -10.5t13 -25.5q0 -21 -16 -30t-16 -14q0 -40 80 -40q152 0 265 174q61 92 125 274q34 96 81 174 q49 83 94 114q8 5 2 8q-6 2 -15 -3q-65 -37 -129 -155q-22 -40 -91 -198q-52 -116 -92 -165q-58 -69 -134 -69q-49 0 -74 37q-22 32 -22 83q0 21 4 42q13 74 61 156q40 62 80 124.5t39 102.5q-4 125 -135 125q-139 0 -251 -133q-108 -128 -108 -266q0 -46 24 -82 q27 -39 66 -39q60 0 102 61q39 56 39 123q0 64 -43 76q-8 2 -17 2q-33 0 -56 -30t-19 -68q1 -5 26 -14t25 -39q0 -37 -36 -37q-28 0 -46 30q-16 26 -16 60q0 71 48 123t104 52q104 0 104 -151q0 -89 -63 -161q-67 -77 -161 -77q-73 0 -121 52q-51 55 -51 142 q0 170 136.5 299.5t311.5 129.5q103 0 171 -55q71 -59 71 -154q0 -76 -50 -166q-10 -19 -91 -142q-50 -74 -50 -112q0 -32 22 -32q47 0 129 140q64 119 127 238q42 78 91 130q62 66 115 66q52 0 52 -34z" />
<glyph unicode="Z" horiz-adv-x="658" d="M734 638q0 -100 -86 -164q-18 -14 -159 -85q-86 -43 -86 -92q0 -8 2 -16q7 44 38 65q24 16 50 14q53 -4 91 -72q18 21 22 46q-34 3 -34 34q0 29 32 34q25 4 37.5 -14.5t10.5 -49.5q-4 -54 -49 -96q7 -25 7 -52q0 -146 -119 -263q-122 -119 -281 -119q-78 0 -133 45 t-55 115q0 100 86 154q60 38 193 66q164 35 199 48q-8 46 -32 50q-25 4 -27 -24q0 -4 1 -11.5t1 -11.5q0 -16 -23 -17q-22 -1 -40.5 29t-16.5 60q7 84 69 133q34 26 128 64q83 33 110 64q-30 -8 -39 -8q-62 0 -135.5 29t-158.5 29q-96 0 -168 -64t-72 -154q0 -45 23 -78 q26 -36 68 -36q54 0 91 49q34 44 34 102q0 68 -48 68q-34 0 -55.5 -26t-21.5 -60q0 -31 17 -31q5 0 9.5 7t10.5 7q17 0 15 -29q-7 -36 -46 -36q-24 0 -38 23q-12 20 -12 48q0 55 42 101.5t103 46.5q42 0 66 -25.5t25 -69.5q3 -82 -55 -149t-140 -67q-59 0 -98 49 q-36 46 -36 109q0 112 104.5 206.5t225.5 94.5q68 0 146 -46t114 -46q5 0 21 2q-14 11 -14 34q0 14 11 24t25 10q19 0 34.5 -15.5t15.5 -32.5zM499 179q-44 -19 -177 -60q-111 -34 -156 -61q-68 -40 -68 -96q0 -43 33.5 -70.5t82.5 -27.5q110 0 195 111q72 93 90 204z" />
<glyph unicode="[" horiz-adv-x="286" d="M290 724h-50l-181 -747h44v-49h-108l207 846h88v-50z" />
<glyph unicode="\" horiz-adv-x="390" d="M399 15l-44 -22l-350 690l44 22z" />
<glyph unicode="]" horiz-adv-x="286" d="M269 772l-207 -846h-88v50h50l181 747h-44v49h108z" />
<glyph unicode="^" horiz-adv-x="236" d="M201 740q2 -5 2 -9q0 -12 -13 -12q-10 0 -17 9l-29 38l-88 -45q-6 -3 -10 -3q-14 0 -14 14q0 8 6 13l103 77q12 9 18 7t10 -11z" />
<glyph unicode="_" horiz-adv-x="484" d="M529 -77l-16 -50h-556l16 50h556z" />
<glyph unicode="`" horiz-adv-x="161" d="M131 728q1 -4 -2 -5t-7 1q-44 34 -61 50q-38 37 -38 65q0 27 25 27q13 0 31 -18t31 -51q4 -12 21 -69z" />
<glyph unicode="a" horiz-adv-x="440" d="M487 383q4 -38 -31 -49l-88 -217q-10 -25 -10 -43q0 -22 19 -22t31.5 30.5t18.5 30.5q18 0 18 -30q0 -27 -25.5 -55t-58.5 -28q-34 0 -58 16q-27 19 -27 51q0 17 16 60l64 174q4 12 -5 12q-7 0 -11 -11l-63 -173q-20 -55 -57 -95q-40 -42 -77 -42q-57 0 -87 39 q-27 34 -27 89q0 134 97 237q101 107 238 107q46 0 83 -23t40 -58zM428 398q-17 20 -58 20q-113 0 -183 -112q-60 -96 -60 -217q0 -13 8.5 -26t17.5 -13q19 0 44.5 26t38.5 58l84 212h89q-7 9 -7 19q0 22 26 33z" />
<glyph unicode="b" horiz-adv-x="439" d="M584 640q0 -18 -14.5 -30t-33.5 -12q-20 0 -35 13t-13 31q1 15 12 26q-25 10 -26 10q-106 0 -174 -123q-26 -47 -100 -260q-59 -171 -122 -235q-2 -2 -2 -4q0 -3 4 -4q3 -1 5 1q51 46 100 158q70 158 76 169q46 80 105 80q44 0 68 -46q20 -39 20 -94q0 -123 -97 -232 q-89 -100 -169 -100q-54 0 -93 26q-18 -10 -53 -10q-15 0 -26.5 9.5t-11.5 24.5q0 3 17 21q21 24 38 56q49 93 91 280q37 163 84 225q73 96 238 96q112 0 112 -76zM378 378q0 36 -17 36q-45 0 -78 -56q-7 -12 -61 -136q-44 -103 -96 -171q29 -6 48 -6q53 0 128.5 123 t75.5 210z" />
<glyph unicode="c" horiz-adv-x="370" d="M415 410q2 -23 -11.5 -40.5t-34.5 -17.5q-16 0 -28.5 10.5t-12.5 25.5q0 22 19 31q-1 11 -23 11q-64 0 -133 -94t-69 -189q0 -41 17 -70q18 -33 52 -37q37 -5 66 17q16 12 38 41q18 23 25 22q14 -2 14 -16q0 -29 -36 -65q-42 -42 -96 -47q-74 -7 -125 40q-55 51 -52 139 q3 106 91 200q93 99 204 99q37 0 62 -13q31 -17 33 -47z" />
<glyph unicode="d" horiz-adv-x="387" d="M418 464q0 -186 -91 -332q-88 -140 -189 -140q-55 0 -89 61q-29 52 -29 116q0 122 76.5 211.5t189.5 89.5q24 0 31 -12q4 8 4 39q0 184 -115 184q-22 0 -32 -13q17 -20 13 -42q-6 -34 -41 -34q-17 0 -29.5 12t-12.5 29q0 38 35.5 66t78.5 28q92 0 148 -78q52 -73 52 -185 zM311 344q0 35 -1 42q-6 26 -28 26q-69 0 -123 -91q-51 -87 -51 -187q0 -95 36 -95q54 0 115 139q52 119 52 166z" />
<glyph unicode="e" horiz-adv-x="325" d="M384 390q0 -78 -67 -120q-62 -27 -125 -54q-67 -30 -67 -82q0 -87 56 -87q43 0 84 37t50 37q17 0 17 -15q0 -29 -50 -67q-53 -41 -102 -41q-65 0 -107.5 48.5t-42.5 116.5q0 113 96 208q91 90 191 90q32 0 49.5 -21t17.5 -50zM310 397q0 17 -10 17q-62 0 -112 -65 q-42 -55 -49 -109q23 22 73.5 49t67.5 42q30 27 30 66z" />
<glyph unicode="f" horiz-adv-x="289" d="M573 656q0 -23 -10 -39q-12 -19 -32 -19q-18 0 -32 9t-14 25q0 20 16 30q-29 8 -28 8q-66 0 -115 -62q-41 -51 -79 -155h88l-20 -50h-85l-86 -264q-55 -153 -119 -228q-84 -97 -202 -97q-47 0 -85 25q-43 28 -43 71q0 21 14.5 36.5t35.5 15.5q17 0 29.5 -11.5t12.5 -28.5 q0 -34 -28 -44q48 -16 62 -16q78 0 134 86q41 63 88 207q72 222 82 248h-90l20 50h90q112 261 306 261q33 0 59 -13q31 -16 31 -45z" />
<glyph unicode="g" horiz-adv-x="384" d="M464 464q0 -5 -12 -8q-18 -4 -29 -13q30 -16 30 -38q0 -19 -19 -19q-7 0 -16 8q-12 10 -22 14q-8 -15 -14 -32q-7 -20 -24 -124q-18 -112 -28 -151q-31 -121 -100 -188q-74 -73 -182 -73q-49 0 -85 20q-43 24 -43 66q0 21 14.5 36.5t35.5 15.5q17 0 29.5 -11.5 t12.5 -28.5q0 -34 -28 -44q26 -16 62 -16q120 0 207 243l77 216q10 27 38 78q-6 1 -12 1q-12 -12 -39 -77l-78 -210q-44 -119 -108 -119q-37 0 -72 34q-40 40 -40 98q0 113 83 212q93 110 224 110q11 0 31 -2q30 30 62 30q45 0 45 -28zM320 418q-106 -6 -161 -116 q-44 -89 -44 -213q0 -29 18 -29q36 0 65 74l84 212q7 18 38 72z" />
<glyph unicode="h" horiz-adv-x="404" d="M590 640q0 -18 -14.5 -30t-33.5 -12q-20 0 -35 13t-13 31q1 15 12 26q-25 10 -26 10q-106 0 -174 -125q-26 -49 -101 -266q-60 -173 -123 -237q-2 -2 -2 -4q0 -3 4 -4q3 -1 5 1q52 47 98 158q68 163 71 170q44 80 103 80q66 0 66 -90q0 -28 -64 -154t-64 -153 q0 -18 10 -18q20 0 46 35t33 35q17 0 17 -21q0 -22 -34 -58q-37 -38 -70 -38q-39 0 -57 19q-21 21 -21 72q0 50 64 174.5t64 131.5q0 17 -13 17q-26 0 -52 -56q-28 -68 -57 -136q-44 -99 -99 -170q-36 -47 -84 -47q-15 0 -26.5 9.5t-11.5 24.5q0 3 17 21q21 24 38 56 q49 93 92 285q38 168 85 230q73 96 238 96q112 0 112 -76z" />
<glyph unicode="i" horiz-adv-x="208" d="M298 623q0 -37 -16 -64q-18 -31 -49 -31q-18 0 -30 15.5t-12 34.5q0 36 20 64.5t46 28.5q17 0 29 -13t12 -35zM257 459q0 -30 -82.5 -180.5t-82.5 -205.5q0 -29 18 -29q32 0 48 33.5t31 33.5q17 0 17 -30q0 -40 -34.5 -66.5t-78.5 -26.5q-36 0 -56.5 28t-20.5 69 q0 65 53 181.5t53 130.5q0 8 -20 11.5t-20 16.5q0 30 65 30q58 0 76.5 9.5t19.5 9.5q14 0 14 -15z" />
<glyph unicode="j" horiz-adv-x="282" d="M356 623q0 -37 -16 -64q-18 -31 -49 -31q-18 0 -30 15.5t-12 34.5q0 36 20 64.5t46 28.5q17 0 29 -13t12 -35zM314 459q0 -31 -51 -172q-64 -179 -142 -292q-107 -155 -220 -155q-49 0 -85 20q-43 24 -43 66q0 21 14.5 36.5t35.5 15.5q17 0 29.5 -11.5t12.5 -28.5 q0 -34 -28 -44q26 -16 62 -16q57 0 129 125q55 95 107 239q44 125 44 155q0 8 -20 11.5t-20 16.5q0 30 65 30q58 0 76.5 9.5t19.5 9.5q14 0 14 -15z" />
<glyph unicode="k" horiz-adv-x="422" d="M564 640q0 -18 -14.5 -30t-33.5 -12q-20 0 -35 13t-13 31q1 15 12 26q-25 10 -26 10q-106 0 -174 -125q-26 -49 -101 -266q-60 -173 -123 -237q-2 -2 -2 -4q0 -3 4 -4q3 -1 5 1q57 51 145 265q64 155 191 155q18 0 33 -14.5t15 -34.5q0 -56 -46 -56q-23 0 -33 17 q-8 13 -5 31q-26 0 -57 -31.5t-28 -34.5q5 1 17 1q56 0 56 -84q0 -28 -29 -102t-29 -101q0 -18 10 -18q20 0 46 35t33 35q17 0 17 -21q0 -22 -34 -58q-37 -38 -70 -38q-32 0 -54 19q-29 24 -24 72q4 37 15 70q7 19 14 39q5 12 9 24q9 23 9 33q0 8 -6 8q-19 0 -30 -17 q-18 -32 -35 -65q-35 -61 -89 -131q-36 -47 -84 -47q-15 0 -26.5 9.5t-11.5 24.5q0 3 17 21q21 24 38 56q49 93 92 285q38 168 85 230q73 96 238 96q112 0 112 -76z" />
<glyph unicode="l" horiz-adv-x="260" d="M583 640q0 -18 -14.5 -30t-33.5 -12q-20 0 -35 13t-13 31q1 15 12 26q-25 10 -26 10q-96 0 -199 -150q-77 -114 -144 -288q-56 -146 -56 -186q0 -16 12 -16q20 0 45 34t32 34q17 0 17 -21q0 -23 -33 -58q-37 -39 -71 -38q-72 1 -72 89q0 16 2 34q8 72 56 198 q65 166 154 270q116 136 255 136q112 0 112 -76z" />
<glyph unicode="m" horiz-adv-x="626" d="M666 361q0 -28 -64 -154t-64 -153q0 -18 10 -18q20 0 46 35t33 35q17 0 17 -21q0 -22 -34 -58q-37 -38 -70 -38q-40 0 -56 16q-19 18 -19 69q0 53 62.5 177.5t62.5 134.5q0 17 -13 17q-39 0 -111 -144q-21 -43 -100 -225q-9 -20 -10 -22q-6 -9 -20 -10l-52 -2 q-20 -1 -34 -10.5t-26 -9.5t-12 24q0 41 81.5 205.5t81.5 176.5q0 17 -13 17q-72 0 -211 -369q-3 -9 -7 -16q-9 -15 -22 -16l-42 -2q-20 -1 -34.5 -10.5t-26.5 -9.5q-13 0 -13 15q0 5 2 9q53 92 92 196q45 121 45 197q0 8 -20 11.5t-20 16.5q0 30 65 30q58 0 76.5 9.5 t19.5 9.5q14 0 14 -15q0 -9 -65 -152q-75 -163 -99 -235q-2 -6 2 -7q5 0 7 5q100 241 159 320q45 61 101 61q67 0 67 -81q0 -12 -50 -127q-58 -133 -73 -180q0 -3 6 -3q2 0 45 101q51 121 96 189q66 101 124 101q66 0 66 -90z" />
<glyph unicode="n" horiz-adv-x="418" d="M452 361q0 -28 -64 -154t-64 -153q0 -18 10 -18q20 0 46 35t33 35q17 0 17 -21q0 -22 -34 -58q-37 -38 -70 -38q-40 0 -56 16q-19 18 -19 69q0 53 62.5 177.5t62.5 134.5q0 17 -14 17q-72 0 -211 -369q-3 -9 -7 -16q-9 -15 -22 -16l-42 -2q-20 -1 -34.5 -10.5t-26.5 -9.5 q-14 0 -14 15q0 5 3 9q40 62 85 181q52 137 52 212q0 8 -20 11.5t-20 16.5q0 30 65 30q58 0 76.5 9.5t19.5 9.5q14 0 14 -15q0 -10 -65 -153q-75 -162 -99 -234q-2 -6 2 -7q5 0 7 5q100 241 159 320q45 61 101 61q67 0 67 -90z" />
<glyph unicode="o" horiz-adv-x="408" d="M402 328q0 -128 -83.5 -230.5t-191.5 -102.5q-128 0 -128 137q0 118 94 226q92 105 186 105q60 0 93 -40q30 -36 30 -95zM311 374q0 39 -26 39q-59 0 -131 -114.5t-72 -208.5q0 -46 39 -46q77 0 136 109q54 103 54 221z" />
<glyph unicode="p" horiz-adv-x="472" d="M492 332q0 -130 -90 -238.5t-190 -108.5q-36 0 -56.5 38t-16.5 88q-5 -12 -15 -38q-53 -141 -53 -180q0 -25 21 -35.5t21 -25.5q0 -22 -16 -22h-44q-27 1 -44 1q-11 0 -27 -7t-26 -7q-18 0 -18 11q0 31 108 299.5t108 289.5q0 8 -20 11.5t-20 16.5q0 30 65 30 q58 0 76.5 9.5t19.5 9.5q14 0 14 -15q0 -8 -30 -61q-38 -67 -63 -142q-2 -6 3 -6q4 -1 6 4q40 96 94 155t99 59q94 0 94 -136zM394 380q0 34 -10 34q-51 0 -119 -117t-68 -213q0 -46 19 -46q62 0 120 112.5t58 229.5z" />
<glyph unicode="q" horiz-adv-x="473" d="M495 383q4 -38 -31 -49l-137 -395q-11 -32 -11 -49q0 -25 21.5 -34t21.5 -24q0 -22 -16 -22h-44q-27 1 -44 1q-11 0 -27 -7t-26 -7q-18 0 -18 11q0 17 10 42q28 67 40 99l130 352q4 12 -5 12q-7 0 -11 -11l-63 -173q-20 -55 -57 -95q-40 -42 -77 -42q-57 0 -87 39 q-27 34 -27 89q0 134 97 237q101 107 238 107q46 0 83 -23t40 -58zM436 398q-17 20 -58 20q-113 0 -183 -112q-60 -96 -60 -217q0 -13 8.5 -26t17.5 -13q19 0 44.5 26t38.5 58l84 212h89q-7 9 -7 19q0 22 26 33z" />
<glyph unicode="r" horiz-adv-x="341" d="M435 386q0 -52 -37 -59q-17 -3 -31.5 7.5t-14.5 26.5q0 20 16 30q-2 14 -19 14q-40 0 -105 -124q-53 -98 -109 -247q-3 -9 -7 -16q-9 -15 -22 -16l-42 -2q-20 -1 -34.5 -10.5t-26.5 -9.5q-8 0 -12 8q-3 8 1 16q51 92 89 192q48 127 48 201q0 8 -20 11.5t-20 16.5 q0 30 65 30q58 0 76.5 9.5t19.5 9.5q14 0 14 -15q0 -10 -65 -153q-75 -162 -99 -234q-2 -6 2 -7q5 0 7 5q101 244 157 323q45 64 100 65q23 1 43 -14q26 -20 26 -58z" />
<glyph unicode="s" horiz-adv-x="306" d="M356 399q0 -22 -11.5 -38.5t-30.5 -16.5q-17 0 -30 11t-13 27t13 28q-12 8 -33 8q-24 0 -44 -14q-23 -15 -23 -38q0 -32 25.5 -66.5t50.5 -66.5q26 -43 26 -91q0 -64 -52 -108t-118 -44q-47 0 -80 27q-36 28 -36 71q0 24 16.5 43t39.5 19q20 0 34 -14.5t14 -34.5 q0 -35 -36 -42q-1 -10 11 -18.5t25 -8.5q36 0 62.5 26t26.5 61q0 44 -47.5 107t-47.5 109q0 56 49.5 94.5t114.5 35.5q38 -1 64 -17q30 -18 30 -49z" />
<glyph unicode="t" horiz-adv-x="278" d="M369 457l-20 -50h-95q-32 -69 -119 -255q-21 -45 -21 -75q0 -29 18 -29q20 0 39.5 29t37.5 29q17 0 17 -24q0 -34 -39 -64t-86 -30q-36 0 -56.5 28t-20.5 69q0 44 23 94l104 228h-82l20 50h85l35 77q10 21 26 40.5t26 20t33 4.5q5 1 15 6t17 5q10 0 12 -8q-1 3 -1 -17 q0 -2 -31 -67q-14 -30 -29 -61h92z" />
<glyph unicode="u" horiz-adv-x="458" d="M490 459q0 -33 -72.5 -186.5t-72.5 -191.5t19 -38q20 0 41.5 31.5t28.5 31.5q17 0 17 -21q0 -23 -33 -58q-37 -39 -71 -38q-35 1 -54.5 21.5t-19.5 51.5q0 48 43 148q56 128 64 157q2 6 -3 7q-4 0 -6 -5q-97 -234 -166 -320q-49 -60 -101 -60q-38 0 -60 34q-20 31 -20 73 q0 63 61.5 162t61.5 154q0 16 -13 16q-24 0 -46.5 -31.5t-30.5 -31.5q-16 0 -16 22q0 28 31 60q35 36 76 36q76 0 76 -117q0 -48 -34 -115q-9 -19 -62 -107q-34 -56 -34 -78q0 -32 22 -32q39 0 130 168q87 160 87 195q0 8 -20 11.5t-20 16.5q0 30 65 30q58 0 87.5 9.5 t30.5 9.5q14 0 14 -15z" />
<glyph unicode="v" horiz-adv-x="431" d="M445 361q0 -63 -39 -152q-42 -98 -105 -158q-73 -71 -153 -64q-43 4 -74.5 39.5t-31.5 79.5q0 58 57 148t57 150q0 14 -11 12q-24 -4 -41.5 -34.5t-25.5 -30.5t-14 8.5t-6 17.5q1 29 36.5 61.5t74.5 32.5q29 0 49.5 -23t20.5 -53q0 -54 -32 -124q-7 -16 -59 -113 q-32 -59 -32 -85q0 -14 9.5 -26.5t24.5 -12.5q65 0 128 73q49 57 87 144q32 74 32 104q0 13 -5 24q-24 -2 -41.5 9.5t-17.5 31.5q0 23 17 39.5t39 12.5q56 -11 56 -111z" />
<glyph unicode="w" horiz-adv-x="614" d="M652 361q0 -100 -79 -230q-89 -147 -191 -147q-14 0 -27 3q-74 16 -74 106q0 24 42 120q53 123 64 155q2 6 -2 7q-5 0 -7 -5q-96 -233 -166 -320q-49 -61 -98 -61q-38 0 -60 34q-20 31 -20 73q0 63 61.5 162t61.5 154q0 16 -13 16q-24 0 -46.5 -31.5t-30.5 -31.5 q-16 0 -16 22q0 28 31 60q35 36 76 36q76 0 76 -117q0 -48 -34 -115q-9 -19 -62 -107q-34 -56 -34 -78q0 -32 22 -32q39 0 130 168q87 160 87 195q0 8 -20 11.5t-20 16.5q0 30 65 30q58 0 93.5 9.5t36.5 9.5q14 0 14 -15q0 -30 -67.5 -179.5t-67.5 -204.5q0 -31 18 -29 q93 11 158 143q51 102 51 166q0 13 -5 24q-24 -2 -41.5 9.5t-17.5 31.5q0 23 17 39.5t39 12.5q56 -11 56 -111z" />
<glyph unicode="x" horiz-adv-x="474" d="M540 400q-6 -44 -44 -44q-42 0 -42 31q0 24 16 33q-100 -14 -153 -118q-45 -86 -45 -200q0 -72 36 -70q26 2 43 34t37 32q14 0 14 -28q0 -35 -38 -68q-42 -36 -96 -30q-45 5 -70 49q-21 37 -24 92q-174 -250 -287 -250q-28 0 -47 16.5t-18 40.5q1 22 14 38t32 14 t30.5 -18t7.5 -34q75 16 151 116q64 86 110 203q43 110 43 175q0 14 -18 10q-34 -8 -49 -43t-19 -35q-26 0 -26 28q0 40 37.5 71t84.5 31q33 0 55.5 -22.5t22.5 -53.5q0 -7 -2 -23q98 93 192 93q25 0 40.5 -21t11.5 -49z" />
<glyph unicode="y" horiz-adv-x="427" d="M473 431q0 -3 -17 -21q-21 -24 -38 -56q-25 -48 -47 -126q-29 -101 -42 -136q-100 -264 -287 -264q-49 0 -85 20q-43 24 -43 66q0 21 14.5 36.5t35.5 15.5q17 0 29.5 -11.5t12.5 -28.5q0 -34 -28 -44q26 -16 62 -16q38 0 91.5 46t84.5 107q19 37 85 213q47 126 98 177 q2 2 2 4q0 3 -4 4q-3 1 -5 -1q-52 -47 -100 -163q-72 -173 -76 -181q-46 -85 -105 -85q-38 0 -58.5 29t-20.5 70q0 63 57.5 159t57.5 151q0 16 -13 16q-24 0 -46.5 -31.5t-30.5 -31.5q-16 0 -16 22q0 28 31 60q35 36 76 36q42 0 63 -37q18 -31 18 -76q0 -63 -59 -165 t-59 -123q0 -32 18 -32q26 0 55 62l64 146q48 105 103 176q36 47 84 47q15 0 26.5 -9.5t11.5 -24.5z" />
<glyph unicode="z" horiz-adv-x="401" d="M441 420q0 -126 -93 -175q-15 -8 -171 -49q-93 -25 -93 -90q0 -20 6 -34q1 -4 4 -4q2 1 1 4q-2 12 -2 23q0 75 70 68q37 -4 66 -52t56 -48q20 0 42 27.5t31 27.5q19 0 19 -33q0 -38 -34 -63.5t-77 -25.5q-34 0 -69 43t-56 43q-8 0 -13 -14q28 -6 28 -38q0 -17 -14 -27.5 t-33 -10.5q-37 0 -56 37q-16 30 -16 75q0 108 93 157q13 7 173 54q93 28 93 85q0 4 -2 4q-1 0 -2 -3q-10 -52 -86 -52q-16 0 -46.5 4t-45.5 4q-40 0 -62 -22.5t-26 -22.5q-17 0 -17 20q0 23 31 76q35 61 66 61q28 0 68.5 -22t67.5 -22q7 0 23 6q-4 7 -2 17q3 21 32 21 q18 0 32 -15.5t14 -33.5z" />
<glyph unicode="{" horiz-adv-x="258" d="M389 729q-56 -10 -84 -45q-37 -48 -41 -157q-2 -58 -39 -110q-35 -48 -88 -75q49 -36 49 -102q0 -40 -21 -83q-45 -90 -45 -138q0 -52 62 -63q11 -2 11 -12q0 -23 -36 -18q-113 16 -113 117q0 37 14 87q11 27 22 53q21 53 21 85q0 50 -48 50q-28 0 -21 24q7 27 35 27 q45 0 71 45q19 32 27 86l6 54q48 183 209 204q24 3 24 -12q0 -14 -15 -17z" />
<glyph unicode="|" horiz-adv-x="285" d="M261 699l-178 -711l-48 13l178 710z" />
<glyph unicode="}" horiz-adv-x="288" d="M322 342q-7 -27 -35 -27q-45 0 -71 -45q-19 -32 -27 -86l-6 -54q-48 -183 -209 -204q-24 -3 -24 12q0 14 15 17q56 10 84 45q37 48 41 157q2 58 39 110q35 48 88 75q-49 36 -49 102q0 40 21 83q45 90 45 138q0 52 -62 63q-11 2 -11 12q0 23 36 18q113 -16 113 -117 q0 -37 -14 -87q-11 -27 -22 -53q-21 -53 -21 -85q0 -50 48 -50q28 0 21 -24z" />
<glyph unicode="~" horiz-adv-x="236" d="M233 787q-25 -62 -73 -67q-18 -2 -43.5 8.5t-42.5 9.5q-13 -1 -31 -14q-9 -6 -15 -6q-12 0 -6 13q27 57 73 61q17 2 39.5 -9t40.5 -10q12 1 34 18q10 10 19 10q7 0 7 -7q0 -3 -2 -7z" />
<glyph unicode="&#xa1;" horiz-adv-x="361" d="M351 644q0 -34 -18.5 -61t-43.5 -27q-39 0 -39 45q0 35 16 62.5t45 27.5q17 0 28.5 -14.5t11.5 -32.5zM268 487q-25 -67 -60.5 -217.5t-54.5 -201.5q-34 -89 -75 -89q-48 0 -48 58q0 51 56 159q95 185 146 307q6 15 22 15q17 0 17 -18q0 -6 -3 -13z" />
<glyph unicode="&#xa2;" horiz-adv-x="423" d="M445 515q2 -23 -11.5 -40.5t-34.5 -17.5q-16 0 -28.5 10.5t-12.5 25.5q0 22 19 31q-1 11 -23 11q-11 0 -26 -5q-26 -104 -97 -386q33 -1 60 21q14 11 36 40q16 21 23 20q14 -2 14 -16q0 -29 -36 -65q-42 -42 -96 -47h-6q-5 -1 -7 -1l-18 -72l-44 12l16 65q-54 14 -86 58 q-34 48 -32 117q3 90 72 177.5t163 113.5l27 108l44 -11l-22 -89h11q37 0 62 -13q31 -17 33 -47zM272 497q-49 -42 -83 -108q-37 -72 -37 -137q0 -63 35 -94z" />
<glyph unicode="&#xa3;" horiz-adv-x="647" d="M693 612q0 -19 -14.5 -32t-36.5 -13q-19 0 -33 12.5t-12 29.5q2 14 12 24q-19 9 -39 9q-55 0 -109 -83q-32 -49 -94 -186h128l-18 -50h-133q-51 -109 -91 -164q-54 -75 -112 -87q64 -17 131 -70q53 -43 107 -86q61 -42 125 -42q62 0 78 27q-27 8 -27 43q0 13 12.5 22.5 t29.5 9.5q20 0 34 -17t14 -37q0 -38 -57 -77.5t-117 -39.5q-86 0 -163 56q-58 52 -115 104q-64 56 -118 56q-10 0 -26.5 -4t-25.5 -4q-21 0 -21 33t23 39l56 8q40 7 66 39q48 57 90 191h-72l18 50h70q48 158 102 224q84 102 237 102q40 0 70.5 -24t30.5 -63z" />
<glyph unicode="&#xa4;" horiz-adv-x="478" d="M481 349l-70 -55q14 -26 14 -60q0 -77 -55 -137l44 -60l-51 -44l-46 60q-52 -33 -108 -33q-55 0 -92 29l-65 -56l-34 43l64 55q-15 31 -15 67q0 71 58 140l-40 53l51 41l42 -53q48 31 106 31q56 0 96 -32l66 54zM363 218q0 39 -26 65t-66 26q-54 0 -98.5 -42t-44.5 -96 q0 -39 26.5 -65t67.5 -26q53 0 97 42.5t44 95.5z" />
<glyph unicode="&#xa5;" horiz-adv-x="848" d="M1036 660q0 -20 -12.5 -35t-31.5 -15q-34 0 -34 30q0 5 7 10.5t7 9.5q0 10 -20 6q-111 -22 -299 -262q-9 -28 -29 -89h91l-16 -50h-91q-6 -22 -10 -33h81l-16 -50h-82q-48 -139 -88 -198q-5 -14 -17 -11q-11 3 -9 16q1 4 1 8q0 26 -25 26t-34 -2q-31 -9 -75 -44 q-15 -12 -21 3q-7 10 4 19q82 65 149 183h-87l16 50h98l15 33h-93l16 50h99q1 3 3.5 9.5t3.5 9.5q-1 15 -1 45q0 140 -26 214q-26 71 -72 71q-125 0 -226 -120q-97 -115 -97 -240q0 -42 22 -73q23 -35 59 -35q54 0 92 54q35 51 35 111q0 71 -54 71q-30 0 -51 -27.5 t-17 -61.5q0 -5 23 -13t23 -35q0 -33 -32 -33q-25 0 -41 27q-15 23 -15 54q0 64 46 114t97 50q93 0 93 -136q0 -80 -59 -148q-63 -72 -148 -72q-62 0 -108.5 53t-46.5 118q0 154 123 271.5t280 117.5q85 0 144 -57q64 -63 77 -174q98 113 163 165q86 67 160 67q56 0 56 -52z " />
<glyph unicode="&#xa6;" horiz-adv-x="285" d="M261 699l-73 -299l-50 14l75 297zM174 348l-91 -360l-48 13l91 363z" />
<glyph unicode="&#xa7;" horiz-adv-x="421" d="M451 629q0 -22 -11.5 -38.5t-30.5 -16.5q-17 0 -30 11t-13 27t13 28q-12 8 -33 8q-24 0 -44 -14q-23 -15 -23 -38q0 -32 25.5 -66.5t50.5 -66.5q26 -43 26 -91q0 -50 -34 -89.5t-85 -55.5q24 -39 24 -85q0 -64 -52 -108t-118 -44q-47 0 -80 27q-36 28 -36 71 q0 24 16.5 43t39.5 19q20 0 34 -14.5t14 -34.5q0 -35 -36 -42q-1 -10 11 -18.5t25 -8.5q36 0 62.5 26t26.5 61q0 44 -47.5 107t-47.5 109q0 50 40 86t96 43q-41 57 -41 101q0 56 49.5 94.5t114.5 35.5q38 -1 64 -17q30 -18 30 -49zM288 349q0 35 -20 67q-5 2 -17 2 q-24 0 -44 -14q-23 -15 -23 -38q0 -36 49 -97q55 24 55 80z" />
<glyph unicode="&#xa8;" horiz-adv-x="225" d="M211 802q0 -25 -11.5 -45t-32.5 -20q-12 0 -20 10.5t-8 23.5q0 24 13 43.5t31 19.5q28 0 28 -32zM111 802q0 -25 -11 -45t-32 -20q-29 0 -29 34q0 24 13.5 43.5t30.5 19.5q28 0 28 -32z" />
<glyph unicode="&#xa9;" horiz-adv-x="708" d="M722 340q-29 -136 -146 -233t-254 -97q-118 0 -192.5 74.5t-74.5 187.5q0 33 7 68q29 137 146 233.5t254 96.5q118 0 192.5 -74t74.5 -187q0 -34 -7 -69zM672 340q6 29 6 58q0 96 -63 159t-163 63q-116 0 -216 -82.5t-124 -197.5q-6 -29 -6 -57q0 -96 63.5 -159.5 t163.5 -63.5q115 0 215 82.5t124 197.5zM571 489q2 -20 -10 -36t-32 -16q-14 0 -25 9.5t-11 22.5q0 20 17 28q-1 10 -21 10q-58 0 -120 -84t-62 -170q0 -37 15 -63q17 -30 47 -34q33 -4 60 15q15 11 34 37q16 21 22 20q13 -2 13 -14q0 -27 -33 -59q-37 -37 -86 -42 q-66 -6 -112 36q-50 46 -47 125q3 95 82 180q83 89 183 89q82 0 86 -54z" />
<glyph unicode="&#xaa;" horiz-adv-x="326" d="M329 643q3 -25 -21 -32l-57 -141q-6 -15 -6 -28q0 -14 12 -14t20 19.5t13 19.5q11 0 11 -19q0 -18 -16.5 -36t-37.5 -18q-23 0 -38 11q-18 12 -18 33q0 9 11 39l41 113q2 6 -2 7q-5 1 -8 -7l-41 -112q-13 -36 -38 -62.5t-49 -26.5q-74 0 -74 83q0 87 64.5 155.5 t153.5 68.5q29 0 53 -15t27 -38zM290 653q-12 13 -38 13q-73 0 -118 -73q-39 -63 -39 -141q0 -9 5 -17.5t11 -8.5q13 0 29.5 17t24.5 38l55 138h58q-5 5 -5 12q0 14 17 22z" />
<glyph unicode="&#xab;" horiz-adv-x="336" d="M374 324l-98 -80l63 -80l-45 -38l-94 118l144 119zM241 324l-98 -80l63 -80l-45 -38l-94 118l144 119z" />
<glyph unicode="&#xac;" horiz-adv-x="294" d="M283 333l-36 -123h-96l20 73h-154l16 50h250z" />
<glyph unicode="&#xad;" horiz-adv-x="228" d="M223 333l-16 -50h-190l16 50h190z" />
<glyph unicode="&#xae;" horiz-adv-x="580" d="M558 437q-22 -105 -111.5 -178.5t-194.5 -73.5q-90 0 -147 56.5t-57 142.5q0 26 6 53q22 104 111.5 178t193.5 74q91 0 148 -56.5t57 -143.5q0 -25 -6 -52zM513 437q5 22 5 44q0 70 -47 116.5t-121 46.5q-85 0 -159 -60.5t-92 -146.5q-5 -22 -5 -43q0 -71 47 -117.5 t121 -46.5q86 0 159.5 60.5t91.5 146.5zM404 324q0 -13 -12.5 -27t-28.5 -14q-40 0 -44 37q-3 26 13 57t16 40q0 17 -25 20q-10 -35 -36 -96q-20 -48 -27 -60q-3 -5 -8 -5q-4 1 -4 8q5 14 -10 14q-23 0 -49 -20q-7 -4 -9 1q-2 3 2 9q51 56 91.5 151.5t62.5 120.5 q-25 23 -70 23q-7 0 -7 6t9 7q79 4 114 -41q20 -26 20 -56q0 -21 -16 -37.5t-37 -16.5q20 -6 22 -8q15 -9 14 -34q0 -14 -15.5 -40.5t-15.5 -38.5q0 -18 12 -18t17.5 15t11.5 15q9 0 9 -12zM367 500q0 20 -11 39q-8 -18 -26 -81q13 0 25 13t12 29z" />
<glyph unicode="&#xaf;" horiz-adv-x="220" d="M213 788l-22 -53h-160l22 53h160z" />
<glyph unicode="&#xb0;" horiz-adv-x="254" d="M269 635q0 -54 -35.5 -97.5t-81.5 -43.5q-57 0 -57 61q0 50 40 95t79 45q55 0 55 -60zM224 655q0 12 -7 12q-24 0 -52 -45.5t-28 -83.5q0 -16 13 -16q31 0 53 45q21 41 21 88z" />
<glyph unicode="&#xb1;" horiz-adv-x="267" d="M265 333l-16 -50h-68l-29 -113h-52l29 113h-70l16 50h67l26 103h52l-26 -103h71zM208 97l-16 -50h-190l16 50h190z" />
<glyph unicode="&#xb2;" horiz-adv-x="310" d="M364 592q0 -82 -75 -123q-11 -6 -143 -51q-80 -27 -87 -72q-3 -19 -1 -26q1 -3 3 -2t2 3q0 37 22 56q18 15 50 15q27 0 57.5 -38t59.5 -38q4 0 16 6q-17 7 -14 24q3 18 26 18q21 0 21 -23q0 -29 -24.5 -49t-54.5 -20q-27 0 -63 31t-61 31q-11 0 -11 -16q0 -5 3 -13t3 -18 q0 -18 -26 -18q-43 0 -43 45q0 85 70 132q65 30 130 61q70 34 70 92q0 25 -15 45q-18 24 -46 24q-32 0 -55 -18q-27 -20 -27 -54q0 -13 12 -13q4 0 10 4.5t10 4.5q15 0 15 -29q0 -27 -38 -27q-46 0 -46 60q0 46 41 75t95 27q50 -2 82 -33t32 -73z" />
<glyph unicode="&#xb3;" horiz-adv-x="341" d="M363 618q0 -37 -49 -54q-47 -13 -93 -25q-51 -17 -54 -50q0 -9 0.5 -10.5t1.5 -1.5q2 1 2 3q2 30 28 44q21 11 47 8q33 -4 55 -31t22 -60q0 -75 -68 -122q-63 -43 -146 -43q-79 0 -88 53q-6 37 29 43q12 2 22.5 -5.5t10.5 -18.5q0 -15 -11 -25q10 -15 36 -15 q57 0 101.5 44t44.5 96q0 17 -10.5 33t-24.5 13q-18 -4 -22.5 -27.5t-23.5 -23.5q-14 0 -25 13.5t-11 30.5q0 27 24 48q14 13 53.5 29t53.5 27q25 19 25 50q0 12 -15.5 21t-32.5 9q-80 0 -95 -59q9 11 21 5q13 -4 11 -24q-2 -24 -31 -24q-17 0 -29 15.5t-9 32.5q6 37 47 61 q38 22 86 22q46 0 81.5 -22t35.5 -60z" />
<glyph unicode="&#xb4;" horiz-adv-x="195" d="M205 831q0 -12 -16 -32q-27 -32 -128 -70q-4 -2 -7 1q-2 3 1 7q34 55 50 74q40 47 71 47q11 0 20 -8t9 -19z" />
<glyph unicode="&#xb6;" horiz-adv-x="441" d="M452 699l-14 -48h-27l-173 -672l-48 13l170 659h-75l-172 -672l-48 13l73 287q-102 47 -115 123q-3 16 -3 33q0 100 89 185q84 80 166 80q69 0 177 -1z" />
<glyph unicode="&#xb7;" horiz-adv-x="226" d="M176 333q0 -35 -15 -61q-17 -29 -46 -29q-17 0 -28.5 14.5t-11.5 32.5q0 34 18.5 61t43.5 27q39 0 39 -45z" />
<glyph unicode="&#xb8;" horiz-adv-x="164" d="M147 -97q0 -29 -24.5 -49.5t-54.5 -20.5q-23 0 -39.5 13.5t-16.5 35.5q0 12 9.5 22t21.5 10q28 0 28 -28q0 -13 -10 -20h2q29 0 29 28q0 18 -19.5 44.5t-19.5 45.5q0 27 20 46.5t54 19.5l8 -40q-31 0 -31 -13q0 -15 21.5 -42t21.5 -52z" />
<glyph unicode="&#xb9;" horiz-adv-x="223" d="M318 673q0 -3 -15 -17q-20 -19 -36 -49q-25 -47 -42 -123q-15 -65 -49.5 -141.5t-47.5 -76.5q-12 0 -13 12t-17 12q-12 0 -35 -18t-28 -18q-6 0 -8 11q87 109 134 222q62 150 117 178q0 3 -4 3q-23 -9 -56 -45q-29 -32 -44 -32q-27 0 -27 33q0 2 12 4q18 3 42 23 q50 42 86 42q31 0 31 -20z" />
<glyph unicode="&#xba;" horiz-adv-x="306" d="M303 618q0 -83 -53.5 -149.5t-124.5 -66.5q-83 0 -83 89q0 76 61 147q60 68 121 68q38 0 58.5 -25t20.5 -63zM244 648q0 25 -17 25q-38 0 -85 -74.5t-47 -135.5q0 -29 26 -29q50 0 88 71q35 66 35 143z" />
<glyph unicode="&#xbb;" horiz-adv-x="336" d="M374 244l-144 -118l-29 38l97 80l-64 80l46 39zM241 244l-144 -118l-29 38l97 80l-64 80l46 39z" />
<glyph unicode="&#xbc;" horiz-adv-x="588" d="M318 673q0 -3 -15 -17q-20 -19 -36 -49q-25 -47 -42 -123q-15 -65 -49.5 -141.5t-47.5 -76.5q-12 0 -13 12t-17 12q-12 0 -35 -18t-28 -18q-6 0 -8 11q87 109 134 222q62 150 117 178q0 3 -4 3q-23 -9 -56 -45q-29 -32 -44 -32q-27 0 -27 33q0 2 12 4q18 3 42 23 q50 42 86 42q31 0 31 -20zM548 672l-523 -694l-40 28l523 695zM570 392q0 -3 -13 -18q-17 -21 -31 -51q-22 -48 -39 -124q-3 -15 -19 -64q16 -7 25 -7q17 0 17 9q0 5 -6 9t-6 14q0 20 22 16q21 -4 20 -29q-2 -42 -57 -42q-9 0 -25 2q-50 -126 -68 -126q-12 0 -13 12t-17 12 q-12 0 -35 -18t-28 -18q-6 0 -8 11q50 61 98 148q-27 9 -50 9q-35 0 -73 -45q-29 0 -29 50q0 98 109 187q102 84 194 84q32 0 32 -21zM529 385q8 3 -4 3q-34 0 -94 -34q-68 -38 -113 -91q-54 -65 -54 -135q41 52 106 47q14 -1 36 -9q26 61 53 121q37 81 70 98z" />
<glyph unicode="&#xbd;" horiz-adv-x="630" d="M318 673q0 -3 -15 -17q-20 -19 -36 -49q-25 -47 -42 -123q-15 -65 -49.5 -141.5t-47.5 -76.5q-12 0 -13 12t-17 12q-12 0 -35 -18t-28 -18q-6 0 -8 11q87 109 134 222q62 150 117 178q0 3 -4 3q-23 -9 -56 -45q-29 -32 -44 -32q-27 0 -27 33q0 2 12 4q18 3 42 23 q50 42 86 42q31 0 31 -20zM602 291q0 -82 -75 -123q-11 -6 -143 -51q-80 -27 -87 -72q-3 -19 -1 -26q1 -3 3 -2t2 3q0 37 22 56q18 15 50 15q27 0 57.5 -38t59.5 -38q4 0 16 6q-17 7 -14 24q3 18 26 18q21 0 21 -23q0 -29 -24.5 -49t-54.5 -20q-27 0 -63 31t-61 31 q-11 0 -11 -16q0 -5 3 -13t3 -18q0 -18 -26 -18q-43 0 -43 45q0 85 70 132q65 30 130 61q70 34 70 92q0 25 -15 45q-18 24 -46 24q-32 0 -55 -18q-27 -20 -27 -54q0 -13 12 -13q4 0 10 4.5t10 4.5q15 0 15 -29q0 -27 -38 -27q-46 0 -46 60q0 46 41 75t95 27q50 -2 82 -33 t32 -73zM548 672l-523 -694l-40 28l523 695z" />
<glyph unicode="&#xbe;" horiz-adv-x="623" d="M663 672l-523 -694l-40 28l523 695zM685 392q0 -3 -13 -18q-17 -21 -31 -51q-22 -48 -39 -124q-3 -15 -19 -64q16 -7 25 -7q17 0 17 9q0 5 -6 9t-6 14q0 20 22 16q21 -4 20 -29q-2 -42 -57 -42q-9 0 -25 2q-50 -126 -68 -126q-12 0 -13 12t-17 12q-12 0 -35 -18t-28 -18 q-6 0 -8 11q50 61 98 148q-27 9 -50 9q-35 0 -73 -45q-29 0 -29 50q0 98 109 187q102 84 194 84q32 0 32 -21zM387 618q0 -37 -49 -54q-47 -13 -93 -25q-51 -17 -54 -50q0 -9 0.5 -10.5t1.5 -1.5q2 1 2 3q2 30 28 44q21 11 47 8q33 -4 55 -31t22 -60q0 -75 -68 -122 q-63 -43 -146 -43q-79 0 -88 53q-6 37 29 43q12 2 22.5 -5.5t10.5 -18.5q0 -15 -11 -25q10 -15 36 -15q57 0 101.5 44t44.5 96q0 17 -10.5 33t-24.5 13q-18 -4 -22.5 -27.5t-23.5 -23.5q-14 0 -25 13.5t-11 30.5q0 27 24 48q14 13 53.5 29t53.5 27q25 19 25 50 q0 12 -15.5 21t-32.5 9q-80 0 -95 -59q9 11 21 5q13 -4 11 -24q-2 -24 -31 -24q-17 0 -29 15.5t-9 32.5q6 37 47 61q38 22 86 22q46 0 81.5 -22t35.5 -60zM644 385q8 3 -4 3q-34 0 -94 -34q-68 -38 -113 -91q-54 -65 -54 -135q41 52 106 47q14 -1 36 -9q26 61 53 121 q37 81 70 98z" />
<glyph unicode="&#xbf;" horiz-adv-x="340" d="M281 564q-39 0 -39 48q0 26 17.5 50t43.5 24q39 0 39 -48q0 -26 -17.5 -50t-43.5 -24zM317 424q0 -59 -58 -113q-54 -42 -108 -85q-58 -51 -58 -106q0 -35 33 -64.5t69 -25.5q-12 14 -12 42q0 18 16 32t35 14q26 0 42.5 -17.5t16.5 -44.5q0 -35 -32 -56q-28 -20 -68 -20 q-75 0 -126 64q-48 61 -48 144q0 70 62 122q6 5 116 75q62 39 62 77q0 19 -19 35t-19 19q0 22 26 22t48 -37.5t22 -76.5z" />
<glyph unicode="&#xc0;" horiz-adv-x="970" d="M824 728q1 -4 -2 -5t-7 1q-44 34 -61 50q-38 37 -38 65q0 27 25 27q13 0 31 -18t31 -51q4 -12 21 -69zM997 653q-1 -5 -16 -9q-78 -21 -121 -98q-32 -58 -56 -175q59 11 59 50q0 5 -8.5 12.5t-8.5 19.5q0 33 28 33q44 0 44 -58q0 -38 -32.5 -65.5t-91.5 -35.5 q-43 -216 -110 -325q-2 -14 -16 -10q-11 3 -8.5 15.5t-4.5 22t-21 9.5q-31 0 -53 -8q-30 -12 -74 -48q-12 -10 -20 3q-8 12 6 17q104 89 193 310q-26 -2 -152 -7q-87 -158 -143 -217q-88 -93 -213 -105q-69 -7 -118 37.5t-49 111.5q0 14 3 28q39 218 415 218q29 0 61 -1 q108 181 172 235q60 51 99 71q53 26 116 26q68 0 113 -42q9 -8 7 -15zM896 660q-12 2 -19 2q-153 0 -306 -289q119 -7 136 -7q56 147 80 189q47 86 109 105zM444 303q-172 -6 -258 -37q-115 -40 -115 -130q0 -50 27 -76q23 -22 58 -22q124 0 288 265z" />
<glyph unicode="&#xc1;" horiz-adv-x="970" d="M1010 831q0 -12 -16 -32q-27 -32 -128 -70q-4 -2 -7 1q-2 3 1 7q34 55 50 74q40 47 71 47q11 0 20 -8t9 -19zM997 653q-1 -5 -16 -9q-78 -21 -121 -98q-32 -58 -56 -175q59 11 59 50q0 5 -8.5 12.5t-8.5 19.5q0 33 28 33q44 0 44 -58q0 -38 -32.5 -65.5t-91.5 -35.5 q-43 -216 -110 -325q-2 -14 -16 -10q-11 3 -8.5 15.5t-4.5 22t-21 9.5q-31 0 -53 -8q-30 -12 -74 -48q-12 -10 -20 3q-8 12 6 17q104 89 193 310q-26 -2 -152 -7q-87 -158 -143 -217q-88 -93 -213 -105q-69 -7 -118 37.5t-49 111.5q0 14 3 28q39 218 415 218q29 0 61 -1 q108 181 172 235q60 51 99 71q53 26 116 26q68 0 113 -42q9 -8 7 -15zM896 660q-12 2 -19 2q-153 0 -306 -289q119 -7 136 -7q56 147 80 189q47 86 109 105zM444 303q-172 -6 -258 -37q-115 -40 -115 -130q0 -50 27 -76q23 -22 58 -22q124 0 288 265z" />
<glyph unicode="&#xc2;" horiz-adv-x="970" d="M953 750q2 -5 2 -9q0 -12 -13 -12q-10 0 -17 9l-29 38l-88 -45q-6 -3 -10 -3q-14 0 -14 14q0 8 6 13l103 77q12 9 18 7t10 -11zM997 653q-1 -5 -16 -9q-78 -21 -121 -98q-32 -58 -56 -175q59 11 59 50q0 5 -8.5 12.5t-8.5 19.5q0 33 28 33q44 0 44 -58q0 -38 -32.5 -65.5 t-91.5 -35.5q-43 -216 -110 -325q-2 -14 -16 -10q-11 3 -8.5 15.5t-4.5 22t-21 9.5q-31 0 -53 -8q-30 -12 -74 -48q-12 -10 -20 3q-8 12 6 17q104 89 193 310q-26 -2 -152 -7q-87 -158 -143 -217q-88 -93 -213 -105q-69 -7 -118 37.5t-49 111.5q0 14 3 28q39 218 415 218 q29 0 61 -1q108 181 172 235q60 51 99 71q53 26 116 26q68 0 113 -42q9 -8 7 -15zM896 660q-12 2 -19 2q-153 0 -306 -289q119 -7 136 -7q56 147 80 189q47 86 109 105zM444 303q-172 -6 -258 -37q-115 -40 -115 -130q0 -50 27 -76q23 -22 58 -22q124 0 288 265z" />
<glyph unicode="&#xc3;" horiz-adv-x="970" d="M990 796q-25 -62 -73 -67q-18 -2 -43.5 8.5t-42.5 9.5q-13 -1 -31 -14q-9 -6 -15 -6q-12 0 -6 13q27 57 73 61q17 2 39.5 -9t40.5 -10q12 1 34 18q10 10 19 10q7 0 7 -7q0 -3 -2 -7zM997 653q-1 -5 -16 -9q-78 -21 -121 -98q-32 -58 -56 -175q59 11 59 50q0 5 -8.5 12.5 t-8.5 19.5q0 33 28 33q44 0 44 -58q0 -38 -32.5 -65.5t-91.5 -35.5q-43 -216 -110 -325q-2 -14 -16 -10q-11 3 -8.5 15.5t-4.5 22t-21 9.5q-31 0 -53 -8q-30 -12 -74 -48q-12 -10 -20 3q-8 12 6 17q104 89 193 310q-26 -2 -152 -7q-87 -158 -143 -217q-88 -93 -213 -105 q-69 -7 -118 37.5t-49 111.5q0 14 3 28q39 218 415 218q29 0 61 -1q108 181 172 235q60 51 99 71q53 26 116 26q68 0 113 -42q9 -8 7 -15zM896 660q-12 2 -19 2q-153 0 -306 -289q119 -7 136 -7q56 147 80 189q47 86 109 105zM444 303q-172 -6 -258 -37q-115 -40 -115 -130 q0 -50 27 -76q23 -22 58 -22q124 0 288 265z" />
<glyph unicode="&#xc4;" horiz-adv-x="970" d="M953 802q0 -25 -11.5 -45t-32.5 -20q-12 0 -20 10.5t-8 23.5q0 24 13 43.5t31 19.5q28 0 28 -32zM853 802q0 -25 -11 -45t-32 -20q-29 0 -29 34q0 24 13.5 43.5t30.5 19.5q28 0 28 -32zM997 653q-1 -5 -16 -9q-78 -21 -121 -98q-32 -58 -56 -175q59 11 59 50 q0 5 -8.5 12.5t-8.5 19.5q0 33 28 33q44 0 44 -58q0 -38 -32.5 -65.5t-91.5 -35.5q-43 -216 -110 -325q-2 -14 -16 -10q-11 3 -8.5 15.5t-4.5 22t-21 9.5q-31 0 -53 -8q-30 -12 -74 -48q-12 -10 -20 3q-8 12 6 17q104 89 193 310q-26 -2 -152 -7q-87 -158 -143 -217 q-88 -93 -213 -105q-69 -7 -118 37.5t-49 111.5q0 14 3 28q39 218 415 218q29 0 61 -1q108 181 172 235q60 51 99 71q53 26 116 26q68 0 113 -42q9 -8 7 -15zM896 660q-12 2 -19 2q-153 0 -306 -289q119 -7 136 -7q56 147 80 189q47 86 109 105zM444 303q-172 -6 -258 -37 q-115 -40 -115 -130q0 -50 27 -76q23 -22 58 -22q124 0 288 265z" />
<glyph unicode="&#xc5;" horiz-adv-x="970" d="M921 813q0 -35 -22.5 -63t-52.5 -28q-37 0 -37 39q0 32 25.5 61t51.5 29q35 0 35 -38zM997 653q-1 -5 -16 -9q-78 -21 -121 -98q-32 -58 -56 -175q59 11 59 50q0 5 -8.5 12.5t-8.5 19.5q0 33 28 33q44 0 44 -58q0 -38 -32.5 -65.5t-91.5 -35.5q-43 -216 -110 -325 q-2 -14 -16 -10q-11 3 -8.5 15.5t-4.5 22t-21 9.5q-31 0 -53 -8q-30 -12 -74 -48q-12 -10 -20 3q-8 12 6 17q104 89 193 310q-26 -2 -152 -7q-87 -158 -143 -217q-88 -93 -213 -105q-69 -7 -118 37.5t-49 111.5q0 14 3 28q39 218 415 218q29 0 61 -1q108 181 172 235 q60 51 99 71q53 26 116 26q68 0 113 -42q9 -8 7 -15zM886 817q0 7 -4 7q-12 0 -26 -23.5t-14 -43.5q0 -7 6 -7q16 0 27 22t11 45zM896 660q-12 2 -19 2q-153 0 -306 -289q119 -7 136 -7q56 147 80 189q47 86 109 105zM444 303q-172 -6 -258 -37q-115 -40 -115 -130 q0 -50 27 -76q23 -22 58 -22q124 0 288 265z" />
<glyph unicode="&#xc6;" horiz-adv-x="1116" d="M1227 561q0 -115 -94 -177q-90 -60 -248 -60q-38 0 -58 -1q23 -35 77 -35q8 0 33 9t46 9q42 0 42 -39q0 -29 -34 -43l-68 -18q-91 -26 -151 -83q-67 -63 -72 -145q-3 -48 25 -81t81 -33q72 0 127 52t55 123q0 34 -14 58q-17 29 -49 30q-35 1 -67 -27.5t-32 -66.5 q0 -14 10.5 -27t22.5 -12q27 2 21 23q3 1 7 1q29 0 29 -37q0 -29 -22 -47q-18 -15 -43 -15q-38 0 -60 33q-18 28 -18 66q0 75 58 125q54 49 126 46q57 -2 89 -45q31 -39 27 -93q-7 -103 -82 -171q-71 -66 -173 -73q-98 -7 -163 34q-68 43 -68 121q0 96 82 167q59 51 160 89 q56 19 111 38q4 1 3 3t-4 1q-50 -14 -94 -14q-101 0 -135 67q-5 0 -176 -7q-87 -158 -143 -217q-88 -93 -213 -105q-69 -7 -118 37.5t-49 111.5q0 14 3 28q39 218 415 218q29 0 61 -1q58 96 85 135q46 65 87 100q60 51 99 71q53 26 116 26t97 -34q30 8 120 8q52 0 90 -30 q43 -34 43 -93zM1160 567q0 65 -71 65q-130 0 -213 -96q-67 -77 -67 -150v-5q21 2 63 7q115 12 192 51q96 50 96 128zM896 660q-12 2 -19 2q-152 0 -306 -291q29 -2 70 0q51 3 64 3q0 144 191 286zM444 303q-172 -6 -258 -37q-115 -40 -115 -130q0 -50 27 -76q23 -22 58 -22 q124 0 288 265z" />
<glyph unicode="&#xc7;" horiz-adv-x="864" d="M857 563q0 -131 -144 -195q-113 -50 -288 -50q-54 0 -97 -5q-10 -36 -10 -71q0 -77 27 -129q33 -63 96 -63q132 0 237 152q11 15 25 3q12 -11 3 -24q-41 -76 -102 -126q-77 -62 -163 -62q-33 0 -60 7q-15 -3 -15 -12q0 -15 21.5 -42t21.5 -52q0 -29 -24.5 -49.5 t-54.5 -20.5q-23 0 -39.5 13.5t-16.5 35.5q0 12 9.5 22t21.5 10q28 0 28 -28q0 -13 -10 -20h2q29 0 29 28q0 18 -19.5 44.5t-19.5 45.5q0 24 16 43q-62 30 -97.5 92t-35.5 138q0 10 2 34q-114 -44 -114 -128q0 -59 28 -59q5 0 10 18t26 18q34 0 34 -42q0 -29 -24.5 -46 t-53.5 -17q-40 0 -64 35q-20 30 -20 67q0 80 56 138q47 49 138 85q46 140 182 243q143 107 302 107q62 0 106 -33q51 -38 51 -105zM788 575q0 36 -33 57q-29 18 -67 18q-89 0 -186 -80q-90 -75 -143 -180q102 17 203 34q111 20 161 48q65 36 65 103z" />
<glyph unicode="&#xc8;" horiz-adv-x="761" d="M593 728q1 -4 -2 -5t-7 1q-44 34 -61 50q-38 37 -38 65q0 27 25 27q13 0 31 -18t31 -51q4 -12 21 -69zM789 579q0 -115 -94 -177q-90 -60 -248 -60q-38 0 -58 -1q23 -35 77 -35q8 0 33 9t46 9q42 0 42 -39q0 -29 -34 -43l-68 -18q-91 -26 -151 -83q-67 -63 -72 -145 q-3 -48 25 -81t81 -33q72 0 127 52t55 123q0 34 -14 58q-17 29 -49 30q-35 1 -67 -27.5t-32 -66.5q0 -14 10.5 -27t22.5 -12q27 2 21 23q3 1 7 1q29 0 29 -37q0 -29 -22 -47q-18 -15 -43 -15q-38 0 -60 33q-18 28 -18 66q0 75 58 125q54 49 126 46q57 -2 89 -45 q31 -39 27 -93q-7 -103 -82 -171q-71 -66 -173 -73q-98 -7 -163 34q-68 43 -68 121q0 89 69 154q51 47 148 87q68 27 136 53q4 1 3 3t-4 1q-50 -14 -94 -14q-96 0 -135 67q-228 -34 -228 -191q0 -26 21 -26q4 0 9 1.5t11 14.5t21 16q31 7 31 -46q0 -33 -19.5 -49.5 t-45.5 -16.5q-37 0 -61 29.5t-24 72.5q0 190 268 245q-2 7 -2 21q0 121 146 215q129 83 251 83q62 0 99 -29q40 -32 40 -92zM722 585q0 64 -78 64q-15 0 -33 -3q-75 -13 -152 -82q-88 -78 -88 -162v-3q16 2 63 7q115 12 192 51q96 50 96 128z" />
<glyph unicode="&#xc9;" horiz-adv-x="761" d="M730 831q0 -12 -16 -32q-27 -32 -128 -70q-4 -2 -7 1q-2 3 1 7q34 55 50 74q40 47 71 47q11 0 20 -8t9 -19zM789 579q0 -115 -94 -177q-90 -60 -248 -60q-38 0 -58 -1q23 -35 77 -35q8 0 33 9t46 9q42 0 42 -39q0 -29 -34 -43l-68 -18q-91 -26 -151 -83q-67 -63 -72 -145 q-3 -48 25 -81t81 -33q72 0 127 52t55 123q0 34 -14 58q-17 29 -49 30q-35 1 -67 -27.5t-32 -66.5q0 -14 10.5 -27t22.5 -12q27 2 21 23q3 1 7 1q29 0 29 -37q0 -29 -22 -47q-18 -15 -43 -15q-38 0 -60 33q-18 28 -18 66q0 75 58 125q54 49 126 46q57 -2 89 -45 q31 -39 27 -93q-7 -103 -82 -171q-71 -66 -173 -73q-98 -7 -163 34q-68 43 -68 121q0 89 69 154q51 47 148 87q68 27 136 53q4 1 3 3t-4 1q-50 -14 -94 -14q-96 0 -135 67q-228 -34 -228 -191q0 -26 21 -26q4 0 9 1.5t11 14.5t21 16q31 7 31 -46q0 -33 -19.5 -49.5 t-45.5 -16.5q-37 0 -61 29.5t-24 72.5q0 190 268 245q-2 7 -2 21q0 121 146 215q129 83 251 83q62 0 99 -29q40 -32 40 -92zM722 585q0 64 -78 64q-15 0 -33 -3q-75 -13 -152 -82q-88 -78 -88 -162v-3q16 2 63 7q115 12 192 51q96 50 96 128z" />
<glyph unicode="&#xca;" horiz-adv-x="761" d="M736 750q2 -5 2 -9q0 -12 -13 -12q-10 0 -17 9l-29 38l-88 -45q-6 -3 -10 -3q-14 0 -14 14q0 8 6 13l103 77q12 9 18 7t10 -11zM789 579q0 -115 -94 -177q-90 -60 -248 -60q-38 0 -58 -1q23 -35 77 -35q8 0 33 9t46 9q42 0 42 -39q0 -29 -34 -43l-68 -18 q-91 -26 -151 -83q-67 -63 -72 -145q-3 -48 25 -81t81 -33q72 0 127 52t55 123q0 34 -14 58q-17 29 -49 30q-35 1 -67 -27.5t-32 -66.5q0 -14 10.5 -27t22.5 -12q27 2 21 23q3 1 7 1q29 0 29 -37q0 -29 -22 -47q-18 -15 -43 -15q-38 0 -60 33q-18 28 -18 66q0 75 58 125 q54 49 126 46q57 -2 89 -45q31 -39 27 -93q-7 -103 -82 -171q-71 -66 -173 -73q-98 -7 -163 34q-68 43 -68 121q0 89 69 154q51 47 148 87q68 27 136 53q4 1 3 3t-4 1q-50 -14 -94 -14q-96 0 -135 67q-228 -34 -228 -191q0 -26 21 -26q4 0 9 1.5t11 14.5t21 16q31 7 31 -46 q0 -33 -19.5 -49.5t-45.5 -16.5q-37 0 -61 29.5t-24 72.5q0 190 268 245q-2 7 -2 21q0 121 146 215q129 83 251 83q62 0 99 -29q40 -32 40 -92zM722 585q0 64 -78 64q-15 0 -33 -3q-75 -13 -152 -82q-88 -78 -88 -162v-3q16 2 63 7q115 12 192 51q96 50 96 128z" />
<glyph unicode="&#xcb;" horiz-adv-x="761" d="M715 802q0 -25 -11.5 -45t-32.5 -20q-12 0 -20 10.5t-8 23.5q0 24 13 43.5t31 19.5q28 0 28 -32zM615 802q0 -25 -11 -45t-32 -20q-29 0 -29 34q0 24 13.5 43.5t30.5 19.5q28 0 28 -32zM789 579q0 -115 -94 -177q-90 -60 -248 -60q-38 0 -58 -1q23 -35 77 -35q8 0 33 9 t46 9q42 0 42 -39q0 -29 -34 -43l-68 -18q-91 -26 -151 -83q-67 -63 -72 -145q-3 -48 25 -81t81 -33q72 0 127 52t55 123q0 34 -14 58q-17 29 -49 30q-35 1 -67 -27.5t-32 -66.5q0 -14 10.5 -27t22.5 -12q27 2 21 23q3 1 7 1q29 0 29 -37q0 -29 -22 -47q-18 -15 -43 -15 q-38 0 -60 33q-18 28 -18 66q0 75 58 125q54 49 126 46q57 -2 89 -45q31 -39 27 -93q-7 -103 -82 -171q-71 -66 -173 -73q-98 -7 -163 34q-68 43 -68 121q0 89 69 154q51 47 148 87q68 27 136 53q4 1 3 3t-4 1q-50 -14 -94 -14q-96 0 -135 67q-228 -34 -228 -191 q0 -26 21 -26q4 0 9 1.5t11 14.5t21 16q31 7 31 -46q0 -33 -19.5 -49.5t-45.5 -16.5q-37 0 -61 29.5t-24 72.5q0 190 268 245q-2 7 -2 21q0 121 146 215q129 83 251 83q62 0 99 -29q40 -32 40 -92zM722 585q0 64 -78 64q-15 0 -33 -3q-75 -13 -152 -82q-88 -78 -88 -162v-3 q16 2 63 7q115 12 192 51q96 50 96 128z" />
<glyph unicode="&#xcc;" horiz-adv-x="729" d="M642 728q1 -4 -2 -5t-7 1q-44 34 -61 50q-38 37 -38 65q0 27 25 27q13 0 31 -18t31 -51q4 -12 21 -69zM796 670q2 -11 -15 -22q-28 -19 -29 -20q-73 -68 -183 -375q-52 -145 -145 -210q-89 -63 -232 -63q-60 0 -105 27q-51 31 -51 81q0 24 11.5 43t32.5 19q16 0 29 -10.5 t13 -25.5q0 -21 -16 -30t-16 -14q0 -40 80 -40q98 0 173 82q43 47 117 178q42 86 83 173q60 107 161 167q-8 0 -27 -4t-32 -4q-37 0 -133 13.5t-140 13.5q-116 0 -206 -90.5t-90 -208.5q0 -58 29 -101q32 -48 83 -48q67 0 112 64q42 59 42 134q0 88 -58 88q-42 0 -69 -33.5 t-27 -78.5q0 -40 21 -40q6 0 11.5 9.5t12.5 9.5q11 0 16 -12t3 -26q-3 -21 -19 -34.5t-37 -13.5q-30 0 -48 30q-15 27 -15 63q0 71 53.5 130t122.5 59q52 0 81 -33t31 -90q3 -108 -65 -190q-70 -85 -171 -85q-72 0 -116 69q-39 61 -39 146q0 147 106 250t255 103 q54 0 145 -27t128 -27q20 0 49.5 9t48.5 9q32 0 34 -14z" />
<glyph unicode="&#xcd;" horiz-adv-x="729" d="M772 831q0 -12 -16 -32q-27 -32 -128 -70q-4 -2 -7 1q-2 3 1 7q34 55 50 74q40 47 71 47q11 0 20 -8t9 -19zM796 670q2 -11 -15 -22q-28 -19 -29 -20q-73 -68 -183 -375q-52 -145 -145 -210q-89 -63 -232 -63q-60 0 -105 27q-51 31 -51 81q0 24 11.5 43t32.5 19 q16 0 29 -10.5t13 -25.5q0 -21 -16 -30t-16 -14q0 -40 80 -40q98 0 173 82q43 47 117 178q42 86 83 173q60 107 161 167q-8 0 -27 -4t-32 -4q-37 0 -133 13.5t-140 13.5q-116 0 -206 -90.5t-90 -208.5q0 -58 29 -101q32 -48 83 -48q67 0 112 64q42 59 42 134q0 88 -58 88 q-42 0 -69 -33.5t-27 -78.5q0 -40 21 -40q6 0 11.5 9.5t12.5 9.5q11 0 16 -12t3 -26q-3 -21 -19 -34.5t-37 -13.5q-30 0 -48 30q-15 27 -15 63q0 71 53.5 130t122.5 59q52 0 81 -33t31 -90q3 -108 -65 -190q-70 -85 -171 -85q-72 0 -116 69q-39 61 -39 146q0 147 106 250 t255 103q54 0 145 -27t128 -27q20 0 49.5 9t48.5 9q32 0 34 -14z" />
<glyph unicode="&#xce;" horiz-adv-x="729" d="M764 750q2 -5 2 -9q0 -12 -13 -12q-10 0 -17 9l-29 38l-88 -45q-6 -3 -10 -3q-14 0 -14 14q0 8 6 13l103 77q12 9 18 7t10 -11zM796 670q2 -11 -15 -22q-28 -19 -29 -20q-73 -68 -183 -375q-52 -145 -145 -210q-89 -63 -232 -63q-60 0 -105 27q-51 31 -51 81 q0 24 11.5 43t32.5 19q16 0 29 -10.5t13 -25.5q0 -21 -16 -30t-16 -14q0 -40 80 -40q98 0 173 82q43 47 117 178q42 86 83 173q60 107 161 167q-8 0 -27 -4t-32 -4q-37 0 -133 13.5t-140 13.5q-116 0 -206 -90.5t-90 -208.5q0 -58 29 -101q32 -48 83 -48q67 0 112 64 q42 59 42 134q0 88 -58 88q-42 0 -69 -33.5t-27 -78.5q0 -40 21 -40q6 0 11.5 9.5t12.5 9.5q11 0 16 -12t3 -26q-3 -21 -19 -34.5t-37 -13.5q-30 0 -48 30q-15 27 -15 63q0 71 53.5 130t122.5 59q52 0 81 -33t31 -90q3 -108 -65 -190q-70 -85 -171 -85q-72 0 -116 69 q-39 61 -39 146q0 147 106 250t255 103q54 0 145 -27t128 -27q20 0 49.5 9t48.5 9q32 0 34 -14z" />
<glyph unicode="&#xcf;" horiz-adv-x="729" d="M729 802q0 -25 -11.5 -45t-32.5 -20q-12 0 -20 10.5t-8 23.5q0 24 13 43.5t31 19.5q28 0 28 -32zM629 802q0 -25 -11 -45t-32 -20q-29 0 -29 34q0 24 13.5 43.5t30.5 19.5q28 0 28 -32zM796 670q2 -11 -15 -22q-28 -19 -29 -20q-73 -68 -183 -375q-52 -145 -145 -210 q-89 -63 -232 -63q-60 0 -105 27q-51 31 -51 81q0 24 11.5 43t32.5 19q16 0 29 -10.5t13 -25.5q0 -21 -16 -30t-16 -14q0 -40 80 -40q98 0 173 82q43 47 117 178q42 86 83 173q60 107 161 167q-8 0 -27 -4t-32 -4q-37 0 -133 13.5t-140 13.5q-116 0 -206 -90.5t-90 -208.5 q0 -58 29 -101q32 -48 83 -48q67 0 112 64q42 59 42 134q0 88 -58 88q-42 0 -69 -33.5t-27 -78.5q0 -40 21 -40q6 0 11.5 9.5t12.5 9.5q11 0 16 -12t3 -26q-3 -21 -19 -34.5t-37 -13.5q-30 0 -48 30q-15 27 -15 63q0 71 53.5 130t122.5 59q52 0 81 -33t31 -90 q3 -108 -65 -190q-70 -85 -171 -85q-72 0 -116 69q-39 61 -39 146q0 147 106 250t255 103q54 0 145 -27t128 -27q20 0 49.5 9t48.5 9q32 0 34 -14z" />
<glyph unicode="&#xd0;" horiz-adv-x="810" d="M795 629q0 -18 -10.5 -32t-26.5 -14q-29 0 -29 23q0 3 2 13q1 6 -1 9t-11 3q-18 0 -35 -15q43 -45 73 -119q35 -86 35 -177q0 -138 -74 -235q-80 -105 -207 -105q-31 0 -58 4.5t-53 4.5q-51 0 -122 -24q-12 -10 -24 4q-9 11 3 24q69 74 158 269h-47q-33 -53 -83 -85 q-54 -34 -114 -34q-72 0 -123 56t-51 131q0 159 131 271q128 110 301 110q134 0 220 -64q45 29 92 29q20 0 37 -14t17 -33zM680 366q0 52 -11 113q-11 58 -24 79q-40 -138 -79 -248h82l-10 -48h-90q-56 -141 -108 -218q48 -6 65 -6q79 0 130 111q45 97 45 217zM601 608 q-63 50 -164 50q-140 0 -244.5 -101.5t-104.5 -237.5q0 -48 25 -85q27 -40 68 -40q61 0 105 63q40 58 40 127q0 78 -45 78q-40 0 -67.5 -25t-27.5 -68q0 -6 26.5 -18t26.5 -43q0 -15 -13 -26.5t-30 -11.5q-28 0 -44 31q-14 26 -14 62q0 73 55 132q52 56 110 56 q107 0 107 -155q0 -43 -17 -86h44q55 120 78 165q45 86 86 133z" />
<glyph unicode="&#xd1;" d="M899 796q-25 -62 -73 -67q-18 -2 -43.5 8.5t-42.5 9.5q-13 -1 -31 -14q-9 -6 -15 -6q-12 0 -6 13q27 57 73 61q17 2 39.5 -9t40.5 -10q12 1 34 18q10 10 19 10q7 0 7 -7q0 -3 -2 -7zM961 490q-7 -66 -50 -138l-76 -118q-39 -68 -39 -131q0 -46 22 -46q20 0 35 34t33 34 q20 0 20 -38q0 -37 -30 -65.5t-70 -28.5q-88 0 -88 134q0 72 40 157l74 136q40 74 40 122q0 29 -1 36q-4 20 -19 20q-67 0 -155 -218q-65 -172 -129 -344q-5 -10 -10 -17q-13 -18 -26 -18l-93 -2q-14 0 -29 -10t-21 -10q-18 0 -11 24q26 93 114 275q67 139 67 226 q0 160 -114 160q-144 0 -251.5 -115t-107.5 -259q0 -63 26.5 -104.5t63.5 -41.5q60 0 102 61q39 56 39 123q0 70 -43 76q-37 5 -63.5 -22t-26.5 -71q0 -5 24.5 -15.5t24.5 -40.5q0 -16 -13 -27.5t-29 -9.5q-54 6 -54 90q0 71 50 125q47 52 103 52q68 0 97 -53q21 -40 18 -98 q-5 -90 -72 -164q-72 -79 -166 -76q-73 2 -123 63t-45 155q9 173 139 289t305 116q98 0 157 -65q56 -64 57 -164q0 -41 -25 -122q-8 -25 -62 -179q-3 -10 7 -10q6 0 7 7q40 111 80 221q46 121 87 179q52 74 111 74q41 0 70.5 -39t29.5 -102q0 -13 -1 -27z" />
<glyph unicode="&#xd2;" horiz-adv-x="860" d="M649 728q1 -4 -2 -5t-7 1q-44 34 -61 50q-38 37 -38 65q0 27 25 27q13 0 31 -18t31 -51q4 -12 21 -69zM843 563q0 -40 -12 -71q9 -25 9 -53q0 -152 -79 -263q-65 -90 -171 -141q-88 -42 -163 -42q-109 0 -177 76q-66 73 -66 179q0 10 2 34q-116 -45 -116 -135 q0 -52 30 -52q5 0 10 18t26 18q34 0 34 -42q0 -29 -24.5 -46t-53.5 -17q-40 0 -64 35q-20 30 -20 67q0 80 56 138q47 49 138 85q46 140 182 243q143 107 302 107q62 0 106 -33q51 -38 51 -105zM774 568v7q0 36 -33 57q-29 18 -67 18q-89 0 -186 -80q-90 -75 -143 -180l84 15 q36 79 111 129.5t158 53.5q46 2 76 -20zM722 480q-13 36 -46 36q-112 0 -173 -100q162 26 219 64zM735 394q-93 -66 -268 -75q-3 -11 -3 -27q0 -42 22 -42q8 0 18 9t16 9q32 0 32 -44q0 -25 -22.5 -40t-49.5 -12q-40 5 -60 43q-18 32 -18 79v24q-49 0 -88 -5 q-10 -36 -10 -71q0 -77 27 -129q33 -63 96 -63q89 0 187 93q113 106 121 251z" />
<glyph unicode="&#xd3;" horiz-adv-x="860" d="M779 831q0 -12 -16 -32q-27 -32 -128 -70q-4 -2 -7 1q-2 3 1 7q34 55 50 74q40 47 71 47q11 0 20 -8t9 -19zM843 563q0 -40 -12 -71q9 -25 9 -53q0 -152 -79 -263q-65 -90 -171 -141q-88 -42 -163 -42q-109 0 -177 76q-66 73 -66 179q0 10 2 34q-116 -45 -116 -135 q0 -52 30 -52q5 0 10 18t26 18q34 0 34 -42q0 -29 -24.5 -46t-53.5 -17q-40 0 -64 35q-20 30 -20 67q0 80 56 138q47 49 138 85q46 140 182 243q143 107 302 107q62 0 106 -33q51 -38 51 -105zM774 568v7q0 36 -33 57q-29 18 -67 18q-89 0 -186 -80q-90 -75 -143 -180l84 15 q36 79 111 129.5t158 53.5q46 2 76 -20zM722 480q-13 36 -46 36q-112 0 -173 -100q162 26 219 64zM735 394q-93 -66 -268 -75q-3 -11 -3 -27q0 -42 22 -42q8 0 18 9t16 9q32 0 32 -44q0 -25 -22.5 -40t-49.5 -12q-40 5 -60 43q-18 32 -18 79v24q-49 0 -88 -5 q-10 -36 -10 -71q0 -77 27 -129q33 -63 96 -63q89 0 187 93q113 106 121 251z" />
<glyph unicode="&#xd4;" horiz-adv-x="860" d="M764 750q2 -5 2 -9q0 -12 -13 -12q-10 0 -17 9l-29 38l-88 -45q-6 -3 -10 -3q-14 0 -14 14q0 8 6 13l103 77q12 9 18 7t10 -11zM843 563q0 -40 -12 -71q9 -25 9 -53q0 -152 -79 -263q-65 -90 -171 -141q-88 -42 -163 -42q-109 0 -177 76q-66 73 -66 179q0 10 2 34 q-116 -45 -116 -135q0 -52 30 -52q5 0 10 18t26 18q34 0 34 -42q0 -29 -24.5 -46t-53.5 -17q-40 0 -64 35q-20 30 -20 67q0 80 56 138q47 49 138 85q46 140 182 243q143 107 302 107q62 0 106 -33q51 -38 51 -105zM774 568v7q0 36 -33 57q-29 18 -67 18q-89 0 -186 -80 q-90 -75 -143 -180l84 15q36 79 111 129.5t158 53.5q46 2 76 -20zM722 480q-13 36 -46 36q-112 0 -173 -100q162 26 219 64zM735 394q-93 -66 -268 -75q-3 -11 -3 -27q0 -42 22 -42q8 0 18 9t16 9q32 0 32 -44q0 -25 -22.5 -40t-49.5 -12q-40 5 -60 43q-18 32 -18 79v24 q-49 0 -88 -5q-10 -36 -10 -71q0 -77 27 -129q33 -63 96 -63q89 0 187 93q113 106 121 251z" />
<glyph unicode="&#xd5;" horiz-adv-x="860" d="M794 796q-25 -62 -73 -67q-18 -2 -43.5 8.5t-42.5 9.5q-13 -1 -31 -14q-9 -6 -15 -6q-12 0 -6 13q27 57 73 61q17 2 39.5 -9t40.5 -10q12 1 34 18q10 10 19 10q7 0 7 -7q0 -3 -2 -7zM843 563q0 -40 -12 -71q9 -25 9 -53q0 -152 -79 -263q-65 -90 -171 -141 q-88 -42 -163 -42q-109 0 -177 76q-66 73 -66 179q0 10 2 34q-116 -45 -116 -135q0 -52 30 -52q5 0 10 18t26 18q34 0 34 -42q0 -29 -24.5 -46t-53.5 -17q-40 0 -64 35q-20 30 -20 67q0 80 56 138q47 49 138 85q46 140 182 243q143 107 302 107q62 0 106 -33q51 -38 51 -105 zM774 568v7q0 36 -33 57q-29 18 -67 18q-89 0 -186 -80q-90 -75 -143 -180l84 15q36 79 111 129.5t158 53.5q46 2 76 -20zM722 480q-13 36 -46 36q-112 0 -173 -100q162 26 219 64zM735 394q-93 -66 -268 -75q-3 -11 -3 -27q0 -42 22 -42q8 0 18 9t16 9q32 0 32 -44 q0 -25 -22.5 -40t-49.5 -12q-40 5 -60 43q-18 32 -18 79v24q-49 0 -88 -5q-10 -36 -10 -71q0 -77 27 -129q33 -63 96 -63q89 0 187 93q113 106 121 251z" />
<glyph unicode="&#xd6;" horiz-adv-x="860" d="M771 802q0 -25 -11.5 -45t-32.5 -20q-12 0 -20 10.5t-8 23.5q0 24 13 43.5t31 19.5q28 0 28 -32zM671 802q0 -25 -11 -45t-32 -20q-29 0 -29 34q0 24 13.5 43.5t30.5 19.5q28 0 28 -32zM843 563q0 -40 -12 -71q9 -25 9 -53q0 -152 -79 -263q-65 -90 -171 -141 q-88 -42 -163 -42q-109 0 -177 76q-66 73 -66 179q0 10 2 34q-116 -45 -116 -135q0 -52 30 -52q5 0 10 18t26 18q34 0 34 -42q0 -29 -24.5 -46t-53.5 -17q-40 0 -64 35q-20 30 -20 67q0 80 56 138q47 49 138 85q46 140 182 243q143 107 302 107q62 0 106 -33q51 -38 51 -105 zM774 568v7q0 36 -33 57q-29 18 -67 18q-89 0 -186 -80q-90 -75 -143 -180l84 15q36 79 111 129.5t158 53.5q46 2 76 -20zM722 480q-13 36 -46 36q-112 0 -173 -100q162 26 219 64zM735 394q-93 -66 -268 -75q-3 -11 -3 -27q0 -42 22 -42q8 0 18 9t16 9q32 0 32 -44 q0 -25 -22.5 -40t-49.5 -12q-40 5 -60 43q-18 32 -18 79v24q-49 0 -88 -5q-10 -36 -10 -71q0 -77 27 -129q33 -63 96 -63q89 0 187 93q113 106 121 251z" />
<glyph unicode="&#xd7;" horiz-adv-x="216" d="M249 366l-80 -65l51 -66l-42 -35l-52 65l-78 -65l-28 35l79 66l-52 65l42 36l52 -66l80 66z" />
<glyph unicode="&#xd8;" horiz-adv-x="751" d="M735 679q0 -68 -58 -141q3 -28 3 -47q0 -189 -122 -340t-283 -151q-126 0 -173 119q-41 -54 -41 -84q0 -24 14 -43q34 3 34 -29q0 -25 -27 -25q-26 0 -42 25.5t-16 57.5q0 63 72 137q-1 8 -1 38q0 113 66 229q62 108 159 181.5t187 78.5q96 6 156 -97q34 58 34 96 q0 5 -7 15.5t-13 12.5q-9 -2 -17.5 3t-8.5 13q0 30 34 30q26 0 39 -27q11 -22 11 -52zM563 560q0 26 -13.5 48t-34.5 22q-58 0 -146.5 -110t-145.5 -259q122 76 334 221q6 56 6 78zM547 418q-79 -57 -185 -123q-148 -90 -156 -96q-6 -34 -6 -67q0 -31 18 -55t48 -24 q77 0 155 102.5t126 262.5z" />
<glyph unicode="&#xd9;" d="M754 728q1 -4 -2 -5t-7 1q-44 34 -61 50q-38 37 -38 65q0 27 25 27q13 0 31 -18t31 -51q4 -12 21 -69zM980 624q-41 -129 -131 -339q-75 -177 -75 -193q0 -20 2 -26q3 -11 18 -11q27 0 43 21q7 10 19 40q8 21 17 21q18 0 18 -34q0 -39 -38 -75.5t-84 -36.5q-77 0 -77 83 q0 27 56 155q83 190 112 267q3 7 -3 8q-5 1 -8 -6q-46 -106 -91 -211q-62 -134 -117 -203q-73 -90 -149 -90q-52 0 -86 26.5t-34 71.5q0 60 55 156q50 80 101 161q53 88 52 130q-4 125 -135 125q-139 0 -251 -133q-108 -128 -108 -266q0 -46 24 -82q27 -39 66 -39 q60 0 102 61q39 56 39 123q0 64 -43 76q-8 2 -17 2q-33 0 -56 -30t-19 -68q1 -5 26 -14t25 -39q0 -37 -36 -37q-28 0 -46 30q-16 26 -16 60q0 71 48 123t104 52q104 0 104 -151q0 -89 -63 -161q-67 -77 -161 -77q-69 0 -115.5 54.5t-46.5 127.5q0 172 132.5 306.5 t305.5 134.5q103 0 171 -55q71 -59 71 -154q0 -76 -50 -166q-10 -19 -91 -142q-50 -74 -50 -112q0 -32 22 -32q73 0 182 209q60 114 150 337q11 28 28 28h46q9 0 22 6t20 6q19 0 16 -18z" />
<glyph unicode="&#xda;" d="M905 831q0 -12 -16 -32q-27 -32 -128 -70q-4 -2 -7 1q-2 3 1 7q34 55 50 74q40 47 71 47q11 0 20 -8t9 -19zM980 624q-41 -129 -131 -339q-75 -177 -75 -193q0 -20 2 -26q3 -11 18 -11q27 0 43 21q7 10 19 40q8 21 17 21q18 0 18 -34q0 -39 -38 -75.5t-84 -36.5 q-77 0 -77 83q0 27 56 155q83 190 112 267q3 7 -3 8q-5 1 -8 -6q-46 -106 -91 -211q-62 -134 -117 -203q-73 -90 -149 -90q-52 0 -86 26.5t-34 71.5q0 60 55 156q50 80 101 161q53 88 52 130q-4 125 -135 125q-139 0 -251 -133q-108 -128 -108 -266q0 -46 24 -82 q27 -39 66 -39q60 0 102 61q39 56 39 123q0 64 -43 76q-8 2 -17 2q-33 0 -56 -30t-19 -68q1 -5 26 -14t25 -39q0 -37 -36 -37q-28 0 -46 30q-16 26 -16 60q0 71 48 123t104 52q104 0 104 -151q0 -89 -63 -161q-67 -77 -161 -77q-69 0 -115.5 54.5t-46.5 127.5 q0 172 132.5 306.5t305.5 134.5q103 0 171 -55q71 -59 71 -154q0 -76 -50 -166q-10 -19 -91 -142q-50 -74 -50 -112q0 -32 22 -32q73 0 182 209q60 114 150 337q11 28 28 28h46q9 0 22 6t20 6q19 0 16 -18z" />
<glyph unicode="&#xdb;" d="M869 750q2 -5 2 -9q0 -12 -13 -12q-10 0 -17 9l-29 38l-88 -45q-6 -3 -10 -3q-14 0 -14 14q0 8 6 13l103 77q12 9 18 7t10 -11zM980 624q-41 -129 -131 -339q-75 -177 -75 -193q0 -20 2 -26q3 -11 18 -11q27 0 43 21q7 10 19 40q8 21 17 21q18 0 18 -34q0 -39 -38 -75.5 t-84 -36.5q-77 0 -77 83q0 27 56 155q83 190 112 267q3 7 -3 8q-5 1 -8 -6q-46 -106 -91 -211q-62 -134 -117 -203q-73 -90 -149 -90q-52 0 -86 26.5t-34 71.5q0 60 55 156q50 80 101 161q53 88 52 130q-4 125 -135 125q-139 0 -251 -133q-108 -128 -108 -266q0 -46 24 -82 q27 -39 66 -39q60 0 102 61q39 56 39 123q0 64 -43 76q-8 2 -17 2q-33 0 -56 -30t-19 -68q1 -5 26 -14t25 -39q0 -37 -36 -37q-28 0 -46 30q-16 26 -16 60q0 71 48 123t104 52q104 0 104 -151q0 -89 -63 -161q-67 -77 -161 -77q-69 0 -115.5 54.5t-46.5 127.5 q0 172 132.5 306.5t305.5 134.5q103 0 171 -55q71 -59 71 -154q0 -76 -50 -166q-10 -19 -91 -142q-50 -74 -50 -112q0 -32 22 -32q73 0 182 209q60 114 150 337q11 28 28 28h46q9 0 22 6t20 6q19 0 16 -18z" />
<glyph unicode="&#xdc;" d="M876 788q0 -25 -11.5 -45t-32.5 -20q-12 0 -20 10.5t-8 23.5q0 24 13 43.5t31 19.5q28 0 28 -32zM776 788q0 -25 -11 -45t-32 -20q-29 0 -29 34q0 24 13.5 43.5t30.5 19.5q28 0 28 -32zM980 624q-41 -129 -131 -339q-75 -177 -75 -193q0 -20 2 -26q3 -11 18 -11 q27 0 43 21q7 10 19 40q8 21 17 21q18 0 18 -34q0 -39 -38 -75.5t-84 -36.5q-77 0 -77 83q0 27 56 155q83 190 112 267q3 7 -3 8q-5 1 -8 -6q-46 -106 -91 -211q-62 -134 -117 -203q-73 -90 -149 -90q-52 0 -86 26.5t-34 71.5q0 60 55 156q50 80 101 161q53 88 52 130 q-4 125 -135 125q-139 0 -251 -133q-108 -128 -108 -266q0 -46 24 -82q27 -39 66 -39q60 0 102 61q39 56 39 123q0 64 -43 76q-8 2 -17 2q-33 0 -56 -30t-19 -68q1 -5 26 -14t25 -39q0 -37 -36 -37q-28 0 -46 30q-16 26 -16 60q0 71 48 123t104 52q104 0 104 -151 q0 -89 -63 -161q-67 -77 -161 -77q-69 0 -115.5 54.5t-46.5 127.5q0 172 132.5 306.5t305.5 134.5q103 0 171 -55q71 -59 71 -154q0 -76 -50 -166q-10 -19 -91 -142q-50 -74 -50 -112q0 -32 22 -32q73 0 182 209q60 114 150 337q11 28 28 28h46q9 0 22 6t20 6q19 0 16 -18z " />
<glyph unicode="&#xdd;" d="M933 831q0 -12 -16 -32q-27 -32 -128 -70q-4 -2 -7 1q-2 3 1 7q34 55 50 74q40 47 71 47q11 0 20 -8t9 -19zM1046 596q0 -4 -32 -32q-39 -34 -65 -85q-40 -77 -57 -197q-27 -193 -116 -318q-125 -176 -352 -176q-59 0 -105 28q-51 32 -51 82q0 24 11.5 43t32.5 19 q16 0 29 -10.5t13 -25.5q0 -21 -16 -30t-16 -14q0 -40 80 -40q152 0 265 174q61 92 125 274q34 96 81 174q49 83 94 114q8 5 2 8q-6 2 -15 -3q-65 -37 -129 -155q-22 -40 -91 -198q-52 -116 -92 -165q-58 -69 -134 -69q-49 0 -74 37q-22 32 -22 83q0 21 4 42q13 74 61 156 q40 62 80 124.5t39 102.5q-4 125 -135 125q-139 0 -251 -133q-108 -128 -108 -266q0 -46 24 -82q27 -39 66 -39q60 0 102 61q39 56 39 123q0 64 -43 76q-8 2 -17 2q-33 0 -56 -30t-19 -68q1 -5 26 -14t25 -39q0 -37 -36 -37q-28 0 -46 30q-16 26 -16 60q0 71 48 123t104 52 q104 0 104 -151q0 -89 -63 -161q-67 -77 -161 -77q-73 0 -121 52q-51 55 -51 142q0 170 136.5 299.5t311.5 129.5q103 0 171 -55q71 -59 71 -154q0 -76 -50 -166q-10 -19 -91 -142q-50 -74 -50 -112q0 -32 22 -32q47 0 129 140q64 119 127 238q42 78 91 130q62 66 115 66 q52 0 52 -34z" />
<glyph unicode="&#xde;" horiz-adv-x="809" d="M882 630q0 -14 -10.5 -25.5t-26.5 -11.5q-29 0 -29 19q0 3 2 10q1 5 -1 7.5t-11 2.5q-22 0 -64 -54q-28 -40 -57 -80q112 -94 112 -213q0 -80 -73 -126q-55 -35 -112 -35q-53 0 -90 11q-32 -85 -84 -153q-8 -11 -17 -8q-11 1 -9 12q1 3 1 7q0 21 -25 21q-51 0 -109 -37 q-15 -10 -21 2q-6 8 4 15q77 67 177 235q114 193 170 257q-62 40 -164 40q-140 0 -244.5 -81t-104.5 -190q0 -38 26 -69t67 -31q61 0 105 50q40 46 40 102q0 63 -45 63q-38 0 -61.5 -22t-23.5 -58q0 -4 21.5 -11t21.5 -33q0 -12 -13 -21t-30 -9q-28 0 -44 25q-14 21 -14 49 q0 59 51 102q48 42 106 42q107 0 107 -124q0 -73 -65 -132q-69 -64 -166 -64q-70 0 -114 46q-42 43 -42 104q0 128 121.5 216.5t292.5 88.5q121 0 199 -45q112 137 192 144q23 2 38.5 -9.5t15.5 -28.5zM696 294q0 40 -16 92q-15 46 -29 64q-53 -100 -112 -280q17 -6 54 -6 q31 0 60 23q43 34 43 107z" />
<glyph unicode="&#xdf;" horiz-adv-x="609" d="M606 559q0 -60 -71 -105q-65 -33 -131 -66q-71 -35 -71 -72q0 -23 45 -39q71 -27 84 -35q45 -29 45 -79q0 -70 -62 -115q-58 -41 -136 -41q-45 0 -81 28t-36 68q0 19 17 33.5t37 14.5q21 0 37.5 -10.5t16.5 -28.5q0 -29 -39 -45q21 -21 48 -21q43 0 81 22q45 27 45 70 q0 25 -39 42q-68 28 -74 32q-39 25 -39 72q0 11 2 23q10 61 74 105q55 34 111 68q58 41 58 100q0 20 -19.5 34t-40.5 14q-122 0 -209 -207q-73 -192 -147 -384q-100 -207 -256 -207q-40 0 -72.5 25t-32.5 62q0 21 13 37.5t32 16.5q17 0 29.5 -11.5t12.5 -27.5q0 -34 -27 -45 q36 -18 48 -18q78 0 133 79q42 58 85 190q38 115 76 231h-63l21 50h62q52 122 117 184q80 76 193 76q43 0 83 -36t40 -84z" />
<glyph unicode="&#xe0;" horiz-adv-x="440" d="M341 504q1 -4 -2 -5t-7 1q-44 34 -61 50q-38 37 -38 65q0 27 25 27q13 0 31 -18t31 -51q4 -12 21 -69zM487 383q4 -38 -31 -49l-88 -217q-10 -25 -10 -43q0 -22 19 -22t31.5 30.5t18.5 30.5q18 0 18 -30q0 -27 -25.5 -55t-58.5 -28q-34 0 -58 16q-27 19 -27 51 q0 17 16 60l64 174q4 12 -5 12q-7 0 -11 -11l-63 -173q-20 -55 -57 -95q-40 -42 -77 -42q-57 0 -87 39q-27 34 -27 89q0 134 97 237q101 107 238 107q46 0 83 -23t40 -58zM428 398q-17 20 -58 20q-113 0 -183 -112q-60 -96 -60 -217q0 -13 8.5 -26t17.5 -13q19 0 44.5 26 t38.5 58l84 212h89q-7 9 -7 19q0 22 26 33z" />
<glyph unicode="&#xe1;" horiz-adv-x="440" d="M513 607q0 -12 -16 -32q-27 -32 -128 -70q-4 -2 -7 1q-2 3 1 7q34 55 50 74q40 47 71 47q11 0 20 -8t9 -19zM487 383q4 -38 -31 -49l-88 -217q-10 -25 -10 -43q0 -22 19 -22t31.5 30.5t18.5 30.5q18 0 18 -30q0 -27 -25.5 -55t-58.5 -28q-34 0 -58 16q-27 19 -27 51 q0 17 16 60l64 174q4 12 -5 12q-7 0 -11 -11l-63 -173q-20 -55 -57 -95q-40 -42 -77 -42q-57 0 -87 39q-27 34 -27 89q0 134 97 237q101 107 238 107q46 0 83 -23t40 -58zM428 398q-17 20 -58 20q-113 0 -183 -112q-60 -96 -60 -217q0 -13 8.5 -26t17.5 -13q19 0 44.5 26 t38.5 58l84 212h89q-7 9 -7 19q0 22 26 33z" />
<glyph unicode="&#xe2;" horiz-adv-x="440" d="M435 526q2 -5 2 -9q0 -12 -13 -12q-10 0 -17 9l-29 38l-88 -45q-6 -3 -10 -3q-14 0 -14 14q0 8 6 13l103 77q12 9 18 7t10 -11zM487 383q4 -38 -31 -49l-88 -217q-10 -25 -10 -43q0 -22 19 -22t31.5 30.5t18.5 30.5q18 0 18 -30q0 -27 -25.5 -55t-58.5 -28q-34 0 -58 16 q-27 19 -27 51q0 17 16 60l64 174q4 12 -5 12q-7 0 -11 -11l-63 -173q-20 -55 -57 -95q-40 -42 -77 -42q-57 0 -87 39q-27 34 -27 89q0 134 97 237q101 107 238 107q46 0 83 -23t40 -58zM428 398q-17 20 -58 20q-113 0 -183 -112q-60 -96 -60 -217q0 -13 8.5 -26t17.5 -13 q19 0 44.5 26t38.5 58l84 212h89q-7 9 -7 19q0 22 26 33z" />
<glyph unicode="&#xe3;" horiz-adv-x="440" d="M502 572q-25 -62 -73 -67q-18 -2 -43.5 8.5t-42.5 9.5q-13 -1 -31 -14q-9 -6 -15 -6q-12 0 -6 13q27 57 73 61q17 2 39.5 -9t40.5 -10q12 1 34 18q10 10 19 10q7 0 7 -7q0 -3 -2 -7zM487 383q4 -38 -31 -49l-88 -217q-10 -25 -10 -43q0 -22 19 -22t31.5 30.5t18.5 30.5 q18 0 18 -30q0 -27 -25.5 -55t-58.5 -28q-34 0 -58 16q-27 19 -27 51q0 17 16 60l64 174q4 12 -5 12q-7 0 -11 -11l-63 -173q-20 -55 -57 -95q-40 -42 -77 -42q-57 0 -87 39q-27 34 -27 89q0 134 97 237q101 107 238 107q46 0 83 -23t40 -58zM428 398q-17 20 -58 20 q-113 0 -183 -112q-60 -96 -60 -217q0 -13 8.5 -26t17.5 -13q19 0 44.5 26t38.5 58l84 212h89q-7 9 -7 19q0 22 26 33z" />
<glyph unicode="&#xe4;" horiz-adv-x="440" d="M428 557q0 -25 -11.5 -45t-32.5 -20q-12 0 -20 10.5t-8 23.5q0 24 13 43.5t31 19.5q28 0 28 -32zM328 557q0 -25 -11 -45t-32 -20q-29 0 -29 34q0 24 13.5 43.5t30.5 19.5q28 0 28 -32zM487 383q4 -38 -31 -49l-88 -217q-10 -25 -10 -43q0 -22 19 -22t31.5 30.5 t18.5 30.5q18 0 18 -30q0 -27 -25.5 -55t-58.5 -28q-34 0 -58 16q-27 19 -27 51q0 17 16 60l64 174q4 12 -5 12q-7 0 -11 -11l-63 -173q-20 -55 -57 -95q-40 -42 -77 -42q-57 0 -87 39q-27 34 -27 89q0 134 97 237q101 107 238 107q46 0 83 -23t40 -58zM428 398 q-17 20 -58 20q-113 0 -183 -112q-60 -96 -60 -217q0 -13 8.5 -26t17.5 -13q19 0 44.5 26t38.5 58l84 212h89q-7 9 -7 19q0 22 26 33z" />
<glyph unicode="&#xe5;" horiz-adv-x="440" d="M431 589q0 -35 -22.5 -63t-52.5 -28q-37 0 -37 39q0 32 25.5 61t51.5 29q35 0 35 -38zM487 383q4 -38 -31 -49l-88 -217q-10 -25 -10 -43q0 -22 19 -22t31.5 30.5t18.5 30.5q18 0 18 -30q0 -27 -25.5 -55t-58.5 -28q-34 0 -58 16q-27 19 -27 51q0 17 16 60l64 174 q4 12 -5 12q-7 0 -11 -11l-63 -173q-20 -55 -57 -95q-40 -42 -77 -42q-57 0 -87 39q-27 34 -27 89q0 134 97 237q101 107 238 107q46 0 83 -23t40 -58zM396 593q0 7 -4 7q-12 0 -26 -23.5t-14 -43.5q0 -7 6 -7q16 0 27 22t11 45zM428 398q-17 20 -58 20q-113 0 -183 -112 q-60 -96 -60 -217q0 -13 8.5 -26t17.5 -13q19 0 44.5 26t38.5 58l84 212h89q-7 9 -7 19q0 22 26 33z" />
<glyph unicode="&#xe6;" horiz-adv-x="617" d="M609 390q0 -78 -67 -120q-62 -27 -125 -54q-67 -30 -67 -82q0 -87 56 -87q43 0 84 37t50 37q17 0 17 -15q0 -29 -50 -67q-53 -41 -102 -41q-48 0 -84.5 27t-53.5 71q-75 -103 -150 -103q-104 0 -104 97q0 79 68 120q20 12 125 46q68 23 68 58q0 54 -37 81q-28 21 -67 21 q-22 0 -33 -14q9 -18 9 -35q0 -12 -11 -21t-23 -9q-33 0 -33 41q0 30 27 57q31 30 79 30q47 0 89 -29.5t65 -76.5q95 102 203 102q32 0 49.5 -21t17.5 -50zM535 397q0 17 -10 17q-62 0 -112 -65q-42 -55 -49 -109q23 22 73.5 49t67.5 42q30 27 30 66zM256 228 q-52 -23 -105 -45q-57 -32 -57 -97q0 -36 29 -39q50 -5 94 61q41 61 39 120z" />
<glyph unicode="&#xe7;" horiz-adv-x="370" d="M415 410q2 -23 -11.5 -40.5t-34.5 -17.5q-16 0 -28.5 10.5t-12.5 25.5q0 22 19 31q-1 11 -23 11q-64 0 -133 -94t-69 -189q0 -41 17 -70q18 -33 52 -37q37 -5 66 17q16 12 38 41q18 23 25 22q14 -2 14 -16q0 -29 -36 -65q-42 -41 -96 -47q-25 -3 -50 2q-2 -2 -2 -6 q0 -15 21.5 -42t21.5 -52q0 -29 -24.5 -49.5t-54.5 -20.5q-23 0 -39.5 13.5t-16.5 35.5q0 12 9.5 22t21.5 10q28 0 28 -28q0 -13 -10 -20h2q29 0 29 28q0 18 -19.5 44.5t-19.5 45.5q0 20 10 34q-87 46 -84 162q3 106 91 200q92 99 204 99q37 0 62 -13q31 -17 33 -47z" />
<glyph unicode="&#xe8;" horiz-adv-x="346" d="M271 504q1 -4 -2 -5t-7 1q-44 34 -61 50q-38 37 -38 65q0 27 25 27q13 0 31 -18t31 -51q4 -12 21 -69zM384 390q0 -78 -67 -120q-62 -27 -125 -54q-67 -30 -67 -82q0 -87 56 -87q43 0 84 37t50 37q17 0 17 -15q0 -29 -50 -67q-53 -41 -102 -41q-65 0 -107.5 48.5 t-42.5 116.5q0 113 96 208q91 90 191 90q32 0 49.5 -21t17.5 -50zM310 397q0 17 -10 17q-62 0 -112 -65q-42 -55 -49 -109q23 22 73.5 49t67.5 42q30 27 30 66z" />
<glyph unicode="&#xe9;" horiz-adv-x="346" d="M457 607q0 -12 -16 -32q-27 -32 -128 -70q-4 -2 -7 1q-2 3 1 7q34 55 50 74q40 47 71 47q11 0 20 -8t9 -19zM384 390q0 -78 -67 -120q-62 -27 -125 -54q-67 -30 -67 -82q0 -87 56 -87q43 0 84 37t50 37q17 0 17 -15q0 -29 -50 -67q-53 -41 -102 -41q-65 0 -107.5 48.5 t-42.5 116.5q0 113 96 208q91 90 191 90q32 0 49.5 -21t17.5 -50zM310 397q0 17 -10 17q-62 0 -112 -65q-42 -55 -49 -109q23 22 73.5 49t67.5 42q30 27 30 66z" />
<glyph unicode="&#xea;" horiz-adv-x="346" d="M400 526q2 -5 2 -9q0 -12 -13 -12q-10 0 -17 9l-29 38l-88 -45q-6 -3 -10 -3q-14 0 -14 14q0 8 6 13l103 77q12 9 18 7t10 -11zM384 390q0 -78 -67 -120q-62 -27 -125 -54q-67 -30 -67 -82q0 -87 56 -87q43 0 84 37t50 37q17 0 17 -15q0 -29 -50 -67q-53 -41 -102 -41 q-65 0 -107.5 48.5t-42.5 116.5q0 113 96 208q91 90 191 90q32 0 49.5 -21t17.5 -50zM310 397q0 17 -10 17q-62 0 -112 -65q-42 -55 -49 -109q23 22 73.5 49t67.5 42q30 27 30 66z" />
<glyph unicode="&#xeb;" horiz-adv-x="346" d="M393 557q0 -25 -11.5 -45t-32.5 -20q-12 0 -20 10.5t-8 23.5q0 24 13 43.5t31 19.5q28 0 28 -32zM293 557q0 -25 -11 -45t-32 -20q-29 0 -29 34q0 24 13.5 43.5t30.5 19.5q28 0 28 -32zM384 390q0 -78 -67 -120q-62 -27 -125 -54q-67 -30 -67 -82q0 -87 56 -87 q43 0 84 37t50 37q17 0 17 -15q0 -29 -50 -67q-53 -41 -102 -41q-65 0 -107.5 48.5t-42.5 116.5q0 113 96 208q91 90 191 90q32 0 49.5 -21t17.5 -50zM310 397q0 17 -10 17q-62 0 -112 -65q-42 -55 -49 -109q23 22 73.5 49t67.5 42q30 27 30 66z" />
<glyph unicode="&#xec;" horiz-adv-x="220" d="M187 504q1 -4 -2 -5t-7 1q-44 34 -61 50q-38 37 -38 65q0 27 25 27q13 0 31 -18t31 -51q4 -12 21 -69zM257 459q0 -30 -82.5 -180.5t-82.5 -205.5q0 -29 18 -29q32 0 48 33.5t31 33.5q17 0 17 -30q0 -40 -34.5 -66.5t-78.5 -26.5q-36 0 -56.5 28t-20.5 69q0 65 53 181.5 t53 130.5q0 8 -20 11.5t-20 16.5q0 30 65 30q58 0 76.5 9.5t19.5 9.5q14 0 14 -15z" />
<glyph unicode="&#xed;" horiz-adv-x="220" d="M324 607q0 -12 -16 -32q-27 -32 -128 -70q-4 -2 -7 1q-2 3 1 7q34 55 50 74q40 47 71 47q11 0 20 -8t9 -19zM257 459q0 -30 -82.5 -180.5t-82.5 -205.5q0 -29 18 -29q32 0 48 33.5t31 33.5q17 0 17 -30q0 -40 -34.5 -66.5t-78.5 -26.5q-36 0 -56.5 28t-20.5 69 q0 65 53 181.5t53 130.5q0 8 -20 11.5t-20 16.5q0 30 65 30q58 0 76.5 9.5t19.5 9.5q14 0 14 -15z" />
<glyph unicode="&#xee;" horiz-adv-x="220" d="M281 526q2 -5 2 -9q0 -12 -13 -12q-10 0 -17 9l-29 38l-88 -45q-6 -3 -10 -3q-14 0 -14 14q0 8 6 13l103 77q12 9 18 7t10 -11zM257 459q0 -30 -82.5 -180.5t-82.5 -205.5q0 -29 18 -29q32 0 48 33.5t31 33.5q17 0 17 -30q0 -40 -34.5 -66.5t-78.5 -26.5q-36 0 -56.5 28 t-20.5 69q0 65 53 181.5t53 130.5q0 8 -20 11.5t-20 16.5q0 30 65 30q58 0 76.5 9.5t19.5 9.5q14 0 14 -15z" />
<glyph unicode="&#xef;" horiz-adv-x="220" d="M299 559q0 -25 -11.5 -45t-32.5 -20q-12 0 -20 10.5t-8 23.5q0 24 13 43.5t31 19.5q28 0 28 -32zM199 559q0 -25 -11 -45t-32 -20q-29 0 -29 34q0 24 13.5 43.5t30.5 19.5q28 0 28 -32zM257 459q0 -30 -82.5 -180.5t-82.5 -205.5q0 -29 18 -29q32 0 48 33.5t31 33.5 q17 0 17 -30q0 -40 -34.5 -66.5t-78.5 -26.5q-36 0 -56.5 28t-20.5 69q0 65 53 181.5t53 130.5q0 8 -20 11.5t-20 16.5q0 30 65 30q58 0 76.5 9.5t19.5 9.5q14 0 14 -15z" />
<glyph unicode="&#xf0;" horiz-adv-x="496" d="M454 455q0 -200 -96 -335q-89 -125 -205 -125q-128 0 -128 137q0 118 94 226q92 105 186 105q25 0 47 -8q5 9 5 42q0 55 -12 96q-25 -29 -93 -111l-30 38l101 120q-28 41 -81 41q-22 0 -32 -13q17 -20 13 -42q-6 -34 -41 -34q-17 0 -29.5 12t-12.5 29q0 38 35.5 66 t78.5 28q61 0 108 -39l58 68l30 -38l-55 -65q59 -79 59 -198zM337 374q0 39 -26 39q-59 0 -131 -114.5t-72 -208.5q0 -46 39 -46q77 0 136 109q54 103 54 221z" />
<glyph unicode="&#xf1;" horiz-adv-x="434" d="M460 572q-25 -62 -73 -67q-18 -2 -43.5 8.5t-42.5 9.5q-13 -1 -31 -14q-9 -6 -15 -6q-12 0 -6 13q27 57 73 61q17 2 39.5 -9t40.5 -10q12 1 34 18q10 10 19 10q7 0 7 -7q0 -3 -2 -7zM452 361q0 -28 -64 -154t-64 -153q0 -18 10 -18q20 0 46 35t33 35q17 0 17 -21 q0 -22 -34 -58q-37 -38 -70 -38q-40 0 -56 16q-19 18 -19 69q0 53 62.5 177.5t62.5 134.5q0 17 -14 17q-72 0 -211 -369q-3 -9 -7 -16q-9 -15 -22 -16l-42 -2q-20 -1 -34.5 -10.5t-26.5 -9.5q-14 0 -14 15q0 5 3 9q40 62 85 181q52 137 52 212q0 8 -20 11.5t-20 16.5 q0 30 65 30q58 0 76.5 9.5t19.5 9.5q14 0 14 -15q0 -10 -65 -153q-75 -162 -99 -234q-2 -6 2 -7q5 0 7 5q100 241 159 320q45 61 101 61q67 0 67 -90z" />
<glyph unicode="&#xf2;" horiz-adv-x="411" d="M299 504q1 -4 -2 -5t-7 1q-44 34 -61 50q-38 37 -38 65q0 27 25 27q13 0 31 -18t31 -51q4 -12 21 -69zM430 328q0 -128 -83.5 -230.5t-191.5 -102.5q-128 0 -128 137q0 118 94 226q92 105 186 105q60 0 93 -40q30 -36 30 -95zM339 374q0 39 -26 39q-59 0 -131 -114.5 t-72 -208.5q0 -46 39 -46q77 0 136 109q54 103 54 221z" />
<glyph unicode="&#xf3;" horiz-adv-x="411" d="M502 607q0 -12 -16 -32q-27 -32 -128 -70q-4 -2 -7 1q-2 3 1 7q34 55 50 74q40 47 71 47q11 0 20 -8t9 -19zM430 328q0 -128 -83.5 -230.5t-191.5 -102.5q-128 0 -128 137q0 118 94 226q92 105 186 105q60 0 93 -40q30 -36 30 -95zM339 374q0 39 -26 39 q-59 0 -131 -114.5t-72 -208.5q0 -46 39 -46q77 0 136 109q54 103 54 221z" />
<glyph unicode="&#xf4;" horiz-adv-x="411" d="M414 526q2 -5 2 -9q0 -12 -13 -12q-10 0 -17 9l-29 38l-88 -45q-6 -3 -10 -3q-14 0 -14 14q0 8 6 13l103 77q12 9 18 7t10 -11zM430 328q0 -128 -83.5 -230.5t-191.5 -102.5q-128 0 -128 137q0 118 94 226q92 105 186 105q60 0 93 -40q30 -36 30 -95zM339 374 q0 39 -26 39q-59 0 -131 -114.5t-72 -208.5q0 -46 39 -46q77 0 136 109q54 103 54 221z" />
<glyph unicode="&#xf5;" horiz-adv-x="411" d="M446 572q-25 -62 -73 -67q-18 -2 -43.5 8.5t-42.5 9.5q-13 -1 -31 -14q-9 -6 -15 -6q-12 0 -6 13q27 57 73 61q17 2 39.5 -9t40.5 -10q12 1 34 18q10 10 19 10q7 0 7 -7q0 -3 -2 -7zM430 328q0 -128 -83.5 -230.5t-191.5 -102.5q-128 0 -128 137q0 118 94 226 q92 105 186 105q60 0 93 -40q30 -36 30 -95zM339 374q0 39 -26 39q-59 0 -131 -114.5t-72 -208.5q0 -46 39 -46q77 0 136 109q54 103 54 221z" />
<glyph unicode="&#xf6;" horiz-adv-x="411" d="M393 557q0 -25 -11.5 -45t-32.5 -20q-12 0 -20 10.5t-8 23.5q0 24 13 43.5t31 19.5q28 0 28 -32zM293 557q0 -25 -11 -45t-32 -20q-29 0 -29 34q0 24 13.5 43.5t30.5 19.5q28 0 28 -32zM430 328q0 -128 -83.5 -230.5t-191.5 -102.5q-128 0 -128 137q0 118 94 226 q92 105 186 105q60 0 93 -40q30 -36 30 -95zM339 374q0 39 -26 39q-59 0 -131 -114.5t-72 -208.5q0 -46 39 -46q77 0 136 109q54 103 54 221z" />
<glyph unicode="&#xf7;" horiz-adv-x="252" d="M216 442q0 -30 -12 -52q-15 -25 -39 -25q-15 0 -24.5 12.5t-9.5 27.5q0 29 15.5 52t36.5 23q33 0 33 -38zM271 333l-16 -50h-238l16 50h238zM167 204q0 -30 -12 -52q-15 -25 -39 -25q-15 0 -24.5 12.5t-9.5 27.5q0 29 15.5 52t36.5 23q33 0 33 -38z" />
<glyph unicode="&#xf8;" horiz-adv-x="526" d="M519 462q0 -50 -40 -100q2 -20 2 -30q0 -134 -86.5 -241t-201.5 -107q-93 0 -122 73q-17 -22 -17 -40q0 -14 4 -22q28 3 28 -28q0 -25 -27 -25q-21 0 -34.5 20t-13.5 45q0 46 49 98q-1 7 -1 23q0 122 99 233q95 107 195 113q74 4 109 -58q14 25 14 50q0 7 -6 11 q-10 -3 -18 3.5t-8 15.5q0 30 33 30q21 0 32 -22q10 -18 10 -42zM383 380q0 40 -24 40q-38 0 -95.5 -70.5t-90.5 -155.5q74 45 206 136q4 23 4 50zM365 260q-40 -29 -109 -71q-83 -51 -103 -64q-4 -20 -4 -41q0 -46 38 -46q50 0 102 67q50 64 76 155z" />
<glyph unicode="&#xf9;" horiz-adv-x="458" d="M292 504q1 -4 -2 -5t-7 1q-44 34 -61 50q-38 37 -38 65q0 27 25 27q13 0 31 -18t31 -51q4 -12 21 -69zM490 459q0 -33 -72.5 -186.5t-72.5 -191.5t19 -38q20 0 41.5 31.5t28.5 31.5q17 0 17 -21q0 -23 -33 -58q-37 -39 -71 -38q-35 1 -54.5 21.5t-19.5 51.5q0 55 43 154 q63 147 64 151q2 6 -2 7q-5 0 -7 -5q-97 -234 -166 -320q-49 -60 -101 -60q-38 0 -60 34q-20 31 -20 73q0 63 61.5 162t61.5 154q0 16 -13 16q-24 0 -46.5 -31.5t-30.5 -31.5q-16 0 -16 22q0 28 31 60q35 36 76 36q76 0 76 -117q0 -48 -34 -115q-9 -19 -62 -107 q-34 -56 -34 -78q0 -32 22 -32q39 0 130 168q87 160 87 195q0 8 -20 11.5t-20 16.5q0 30 65 30q58 0 87.5 9.5t30.5 9.5q14 0 14 -15z" />
<glyph unicode="&#xfa;" horiz-adv-x="458" d="M471 607q0 -12 -16 -32q-27 -32 -128 -70q-4 -2 -7 1q-2 3 1 7q34 55 50 74q40 47 71 47q11 0 20 -8t9 -19zM490 459q0 -33 -72.5 -186.5t-72.5 -191.5t19 -38q20 0 41.5 31.5t28.5 31.5q17 0 17 -21q0 -23 -33 -58q-37 -39 -71 -38q-35 1 -54.5 21.5t-19.5 51.5 q0 55 43 154q63 147 64 151q2 6 -2 7q-5 0 -7 -5q-97 -234 -166 -320q-49 -60 -101 -60q-38 0 -60 34q-20 31 -20 73q0 63 61.5 162t61.5 154q0 16 -13 16q-24 0 -46.5 -31.5t-30.5 -31.5q-16 0 -16 22q0 28 31 60q35 36 76 36q76 0 76 -117q0 -48 -34 -115q-9 -19 -62 -107 q-34 -56 -34 -78q0 -32 22 -32q39 0 130 168q87 160 87 195q0 8 -20 11.5t-20 16.5q0 30 65 30q58 0 87.5 9.5t30.5 9.5q14 0 14 -15z" />
<glyph unicode="&#xfb;" horiz-adv-x="458" d="M411 526q2 -5 2 -9q0 -12 -13 -12q-10 0 -17 9l-29 38l-88 -45q-6 -3 -10 -3q-14 0 -14 14q0 8 6 13l103 77q12 9 18 7t10 -11zM490 459q0 -33 -72.5 -186.5t-72.5 -191.5t19 -38q20 0 41.5 31.5t28.5 31.5q17 0 17 -21q0 -23 -33 -58q-37 -39 -71 -38q-35 1 -54.5 21.5 t-19.5 51.5q0 55 43 154q63 147 64 151q2 6 -2 7q-5 0 -7 -5q-97 -234 -166 -320q-49 -60 -101 -60q-38 0 -60 34q-20 31 -20 73q0 63 61.5 162t61.5 154q0 16 -13 16q-24 0 -46.5 -31.5t-30.5 -31.5q-16 0 -16 22q0 28 31 60q35 36 76 36q76 0 76 -117q0 -48 -34 -115 q-9 -19 -62 -107q-34 -56 -34 -78q0 -32 22 -32q39 0 130 168q87 160 87 195q0 8 -20 11.5t-20 16.5q0 30 65 30q58 0 87.5 9.5t30.5 9.5q14 0 14 -15z" />
<glyph unicode="&#xfc;" horiz-adv-x="458" d="M393 557q0 -25 -11.5 -45t-32.5 -20q-12 0 -20 10.5t-8 23.5q0 24 13 43.5t31 19.5q28 0 28 -32zM293 557q0 -25 -11 -45t-32 -20q-29 0 -29 34q0 24 13.5 43.5t30.5 19.5q28 0 28 -32zM490 459q0 -33 -72.5 -186.5t-72.5 -191.5t19 -38q20 0 41.5 31.5t28.5 31.5 q17 0 17 -21q0 -23 -33 -58q-37 -39 -71 -38q-35 1 -54.5 21.5t-19.5 51.5q0 55 43 154q63 147 64 151q2 6 -2 7q-5 0 -7 -5q-97 -234 -166 -320q-49 -60 -101 -60q-38 0 -60 34q-20 31 -20 73q0 63 61.5 162t61.5 154q0 16 -13 16q-24 0 -46.5 -31.5t-30.5 -31.5 q-16 0 -16 22q0 28 31 60q35 36 76 36q76 0 76 -117q0 -48 -34 -115q-9 -19 -62 -107q-34 -56 -34 -78q0 -32 22 -32q39 0 130 168q87 160 87 195q0 8 -20 11.5t-20 16.5q0 30 65 30q58 0 87.5 9.5t30.5 9.5q14 0 14 -15z" />
<glyph unicode="&#xfd;" horiz-adv-x="427" d="M429 593q0 -12 -16 -32q-27 -32 -128 -70q-4 -2 -7 1q-2 3 1 7q34 55 50 74q40 47 71 47q11 0 20 -8t9 -19zM473 431q0 -3 -17 -21q-21 -24 -38 -56q-25 -48 -47 -126q-29 -101 -42 -136q-100 -264 -287 -264q-49 0 -85 20q-43 24 -43 66q0 21 14.5 36.5t35.5 15.5 q17 0 29.5 -11.5t12.5 -28.5q0 -34 -28 -44q26 -16 62 -16q38 0 91.5 46t84.5 107q19 37 85 213q47 126 98 177q2 2 2 4q0 3 -4 4q-3 1 -5 -1q-52 -47 -100 -163q-72 -173 -76 -181q-46 -85 -105 -85q-38 0 -58.5 29t-20.5 70q0 63 57.5 159t57.5 151q0 16 -13 16 q-24 0 -46.5 -31.5t-30.5 -31.5q-16 0 -16 22q0 28 31 60q35 36 76 36q42 0 63 -37q18 -31 18 -76q0 -63 -59 -165t-59 -123q0 -32 18 -32q26 0 55 62l64 146q48 105 103 176q36 47 84 47q15 0 26.5 -9.5t11.5 -24.5z" />
<glyph unicode="&#xfe;" horiz-adv-x="472" d="M492 332q0 -130 -90 -238.5t-190 -108.5q-36 0 -56.5 38t-16.5 88q-5 -12 -15 -38q-53 -141 -53 -180q0 -25 21 -35.5t21 -25.5q0 -22 -16 -22h-44q-27 1 -44 1q-11 0 -27 -7t-26 -7q-18 0 -18 11q0 31 145.5 391t145.5 381q0 8 -20 11.5t-20 16.5q0 30 65 30 q58 0 76.5 9.5t19.5 9.5q14 0 14 -15q0 -10 -67 -153q-77 -161 -101 -233q-2 -6 3 -6q4 -1 6 4q40 96 94 155t99 59q94 0 94 -136zM394 380q0 34 -10 34q-51 0 -119 -117t-68 -213q0 -46 19 -46q62 0 120 112.5t58 229.5z" />
<glyph unicode="&#xff;" horiz-adv-x="427" d="M393 557q0 -25 -11.5 -45t-32.5 -20q-12 0 -20 10.5t-8 23.5q0 24 13 43.5t31 19.5q28 0 28 -32zM293 557q0 -25 -11 -45t-32 -20q-29 0 -29 34q0 24 13.5 43.5t30.5 19.5q28 0 28 -32zM473 431q0 -3 -17 -21q-21 -24 -38 -56q-25 -48 -47 -126q-29 -101 -42 -136 q-100 -264 -287 -264q-49 0 -85 20q-43 24 -43 66q0 21 14.5 36.5t35.5 15.5q17 0 29.5 -11.5t12.5 -28.5q0 -34 -28 -44q26 -16 62 -16q38 0 91.5 46t84.5 107q19 37 85 213q47 126 98 177q2 2 2 4q0 3 -4 4q-3 1 -5 -1q-52 -47 -100 -163q-72 -173 -76 -181 q-46 -85 -105 -85q-38 0 -58.5 29t-20.5 70q0 63 57.5 159t57.5 151q0 16 -13 16q-24 0 -46.5 -31.5t-30.5 -31.5q-16 0 -16 22q0 28 31 60q35 36 76 36q42 0 63 -37q18 -31 18 -76q0 -63 -59 -165t-59 -123q0 -32 18 -32q26 0 55 62l64 146q48 105 103 176q36 47 84 47 q15 0 26.5 -9.5t11.5 -24.5z" />
<glyph unicode="&#x152;" horiz-adv-x="1115" d="M1187 657q1 -10 1 -20q0 -173 -401 -218q23 -35 77 -35q8 0 33 9t46 9q42 0 42 -39q0 -29 -34 -43l-68 -18q-91 -26 -151 -83q-67 -63 -72 -145q-3 -48 25 -81t81 -33q72 0 127 52t55 123q0 34 -14 58q-17 29 -49 30q-35 1 -67 -27.5t-32 -66.5q0 -14 10.5 -27t22.5 -12 q27 2 21 23q3 1 7 1q29 0 29 -37q0 -29 -22 -47q-18 -15 -43 -15q-38 0 -60 33q-18 28 -18 66q0 75 58 125q54 49 126 46q57 -2 89 -45q31 -39 27 -93q-7 -103 -82 -171q-71 -66 -173 -73q-98 -7 -163 34q-68 43 -68 121q0 89 69 154q51 47 148 87q68 27 136 53q4 1 3 3 t-4 1q-50 -14 -94 -14q-81 0 -123 47q-75 -11 -223 -38q-37 -8 -76 -17t-69 -21q-10 -36 -10 -71q0 -77 27 -129q33 -63 96 -63q56 0 124 42q-5 -45 4 -73q-68 -26 -128 -26q-109 0 -177 76q-66 73 -66 179q0 10 2 34q-116 -45 -116 -135q0 -52 30 -52q5 0 10 18t26 18 q34 0 34 -42q0 -29 -24.5 -46t-53.5 -17q-40 0 -64 35q-20 30 -20 67q0 80 56 138q47 49 138 85q46 140 182 243q143 107 302 107q38 0 86 -23q63 46 141 74q75 26 135 26q123 0 139 -121zM1120 663q0 64 -78 64q-15 0 -33 -3q-75 -13 -152 -82q-88 -78 -88 -162v-3 q148 32 242 77q109 53 109 109zM722 634l-22 10q-16 6 -26 6q-89 0 -186 -80q-90 -75 -143 -180q44 12 117 30q72 11 191 32q-2 18 -2 28q0 81 71 154z" />
<glyph unicode="&#x153;" horiz-adv-x="670" d="M672 390q0 -78 -67 -120q-62 -27 -125 -54q-67 -30 -67 -82q0 -87 56 -87q43 0 84 37t50 37q17 0 17 -15q0 -29 -50 -67q-53 -41 -102 -41q-91 0 -133 86q-81 -89 -180 -89q-128 0 -128 137q0 118 94 226q92 105 186 105q90 0 116 -84q89 82 182 82q32 0 49.5 -21 t17.5 -50zM598 397q0 17 -10 17q-62 0 -112 -65q-42 -55 -49 -109q23 22 73.5 49t67.5 42q30 27 30 66zM339 374q0 39 -26 39q-59 0 -131 -114.5t-72 -208.5q0 -46 39 -46q77 0 136 109q54 103 54 221z" />
<glyph unicode="&#x178;" d="M918 802q0 -25 -11.5 -45t-32.5 -20q-12 0 -20 10.5t-8 23.5q0 24 13 43.5t31 19.5q28 0 28 -32zM818 802q0 -25 -11 -45t-32 -20q-29 0 -29 34q0 24 13.5 43.5t30.5 19.5q28 0 28 -32zM1046 596q0 -4 -32 -32q-39 -34 -65 -85q-40 -77 -57 -197q-27 -193 -116 -318 q-125 -176 -352 -176q-59 0 -105 28q-51 32 -51 82q0 24 11.5 43t32.5 19q16 0 29 -10.5t13 -25.5q0 -21 -16 -30t-16 -14q0 -40 80 -40q152 0 265 174q61 92 125 274q34 96 81 174q49 83 94 114q8 5 2 8q-6 2 -15 -3q-65 -37 -129 -155q-22 -40 -91 -198q-52 -116 -92 -165 q-58 -69 -134 -69q-49 0 -74 37q-22 32 -22 83q0 21 4 42q13 74 61 156q40 62 80 124.5t39 102.5q-4 125 -135 125q-139 0 -251 -133q-108 -128 -108 -266q0 -46 24 -82q27 -39 66 -39q60 0 102 61q39 56 39 123q0 64 -43 76q-8 2 -17 2q-33 0 -56 -30t-19 -68q1 -5 26 -14 t25 -39q0 -37 -36 -37q-28 0 -46 30q-16 26 -16 60q0 71 48 123t104 52q104 0 104 -151q0 -89 -63 -161q-67 -77 -161 -77q-73 0 -121 52q-51 55 -51 142q0 170 136.5 299.5t311.5 129.5q103 0 171 -55q71 -59 71 -154q0 -76 -50 -166q-10 -19 -91 -142q-50 -74 -50 -112 q0 -32 22 -32q47 0 129 140q64 119 127 238q42 78 91 130q62 66 115 66q52 0 52 -34z" />
<glyph unicode="&#x2c6;" horiz-adv-x="236" d="M201 740q2 -5 2 -9q0 -12 -13 -12q-10 0 -17 9l-29 38l-88 -45q-6 -3 -10 -3q-14 0 -14 14q0 8 6 13l103 77q12 9 18 7t10 -11z" />
<glyph unicode="&#x2dc;" horiz-adv-x="236" d="M233 787q-25 -62 -73 -67q-18 -2 -43.5 8.5t-42.5 9.5q-13 -1 -31 -14q-9 -6 -15 -6q-12 0 -6 13q27 57 73 61q17 2 39.5 -9t40.5 -10q12 1 34 18q10 10 19 10q7 0 7 -7q0 -3 -2 -7z" />
<glyph unicode="&#x2000;" horiz-adv-x="433" />
<glyph unicode="&#x2001;" horiz-adv-x="866" />
<glyph unicode="&#x2002;" horiz-adv-x="433" />
<glyph unicode="&#x2003;" horiz-adv-x="866" />
<glyph unicode="&#x2004;" horiz-adv-x="288" />
<glyph unicode="&#x2005;" horiz-adv-x="216" />
<glyph unicode="&#x2006;" horiz-adv-x="144" />
<glyph unicode="&#x2007;" horiz-adv-x="144" />
<glyph unicode="&#x2008;" horiz-adv-x="108" />
<glyph unicode="&#x2009;" horiz-adv-x="173" />
<glyph unicode="&#x200a;" horiz-adv-x="48" />
<glyph unicode="&#x2010;" horiz-adv-x="228" d="M223 333l-16 -50h-190l16 50h190z" />
<glyph unicode="&#x2011;" horiz-adv-x="228" d="M223 333l-16 -50h-190l16 50h190z" />
<glyph unicode="&#x2012;" horiz-adv-x="228" d="M223 333l-16 -50h-190l16 50h190z" />
<glyph unicode="&#x2013;" horiz-adv-x="228" d="M223 333l-16 -50h-226l16 50h226z" />
<glyph unicode="&#x2014;" horiz-adv-x="471" d="M466 333l-16 -50h-469l16 50h469z" />
<glyph unicode="&#x2018;" horiz-adv-x="226" d="M186 567q0 -34 -18.5 -61t-43.5 -27q-39 0 -39 45q0 30 14 66q21 54 67 90q5 4 11 4q14 0 14 -14q0 -8 -7 -14q-17 -14 -35 -43q17 1 27 -13t10 -33z" />
<glyph unicode="&#x2019;" horiz-adv-x="226" d="M201 638q0 -30 -14 -66q-21 -54 -67 -90q-5 -4 -11 -4q-14 0 -14 14q0 8 7 14q17 14 35 43q-17 -1 -27 13t-10 33q0 34 18.5 61t43.5 27q39 0 39 -45z" />
<glyph unicode="&#x201a;" horiz-adv-x="226" d="M166 78q0 -30 -14 -66q-21 -54 -67 -90q-5 -4 -11 -4q-14 0 -14 14q0 8 7 14q17 14 35 43q-17 -1 -27 13t-10 33q0 34 18.5 61t43.5 27q39 0 39 -45z" />
<glyph unicode="&#x201c;" horiz-adv-x="339" d="M312 567q0 -34 -18.5 -61t-43.5 -27q-39 0 -39 45q0 30 14 66q21 54 67 90q5 4 11 4q14 0 14 -14q0 -8 -7 -14q-17 -14 -35 -43q17 1 27 -13t10 -33zM186 567q0 -34 -18.5 -61t-43.5 -27q-39 0 -39 45q0 30 14 66q21 54 67 90q5 4 11 4q14 0 14 -14q0 -8 -7 -14 q-17 -14 -35 -43q17 1 27 -13t10 -33z" />
<glyph unicode="&#x201d;" horiz-adv-x="378" d="M348 638q0 -30 -14 -66q-21 -54 -67 -90q-5 -4 -11 -4q-14 0 -14 14q0 8 7 14q17 14 35 43q-17 -1 -27 13t-10 33q0 34 18.5 61t43.5 27q39 0 39 -45zM201 638q0 -30 -14 -66q-21 -54 -67 -90q-5 -4 -11 -4q-14 0 -14 14q0 8 7 14q17 14 35 43q-17 -1 -27 13t-10 33 q0 34 18.5 61t43.5 27q39 0 39 -45z" />
<glyph unicode="&#x201e;" horiz-adv-x="330" d="M296 78q0 -30 -14 -66q-21 -54 -67 -90q-5 -4 -11 -4q-14 0 -14 14q0 8 7 14q17 14 35 43q-17 -1 -27 13t-10 33q0 34 18.5 61t43.5 27q39 0 39 -45zM166 78q0 -30 -14 -66q-21 -54 -67 -90q-5 -4 -11 -4q-14 0 -14 14q0 8 7 14q17 14 35 43q-17 -1 -27 13t-10 33 q0 34 18.5 61t43.5 27q39 0 39 -45z" />
<glyph unicode="&#x2022;" horiz-adv-x="322" d="M301 367q0 -82 -52.5 -146t-121.5 -64q-80 0 -80 85q0 75 59 144q58 66 117 66q38 0 58 -24t20 -61z" />
<glyph unicode="&#x2026;" horiz-adv-x="621" d="M570 78q0 -35 -15 -61q-17 -29 -46 -29q-17 0 -28.5 14.5t-11.5 32.5q0 34 18.5 61t43.5 27q39 0 39 -45zM369 78q0 -35 -15 -61q-17 -29 -46 -29q-17 0 -28.5 14.5t-11.5 32.5q0 34 18.5 61t43.5 27q39 0 39 -45zM166 78q0 -35 -15 -61q-17 -29 -46 -29 q-17 0 -28.5 14.5t-11.5 32.5q0 34 18.5 61t43.5 27q39 0 39 -45z" />
<glyph unicode="&#x202f;" horiz-adv-x="173" />
<glyph unicode="&#x2039;" horiz-adv-x="184" d="M241 324l-98 -80l63 -80l-45 -38l-94 118l144 119z" />
<glyph unicode="&#x203a;" horiz-adv-x="184" d="M233 244l-144 -118l-29 38l97 80l-64 80l46 39z" />
<glyph unicode="&#x205f;" horiz-adv-x="216" />
<glyph unicode="&#x2122;" horiz-adv-x="543" d="M521 565q0 -14 -32 -78t-32 -77q0 -9 5 -9q10 0 23.5 17.5t16.5 17.5q8 0 8 -9q0 -11 -17.5 -30t-34.5 -19q-37 0 -37 42q0 27 31 89t31 67q0 10 -6 10q-28 0 -106 -186q-4 -9 -5 -10q-3 -5 -10 -6l-26 -1q-10 0 -16.5 -5t-13.5 -5q-6 0 -6 12q0 20 41 102.5t41 88.5 q0 10 -7 10q-36 0 -105 -186q-2 -7 -15 -16l-21 -1q-10 0 -17 -5t-13 -5q-4 0 -6 4t0 8q69 120 69 198q0 2 -10 4t-10 10q0 15 32 15q29 0 38.5 4l9.5 4q7 0 7 -6q0 -5 -33 -77q-37 -82 -49 -118q2 -1 5 -1q50 121 79 161q23 31 51 31q33 0 33 -42q0 -5 -25 -62 q-28 -65 -36 -90q0 -3 3 -3q1 0 22 51q26 61 48 95q33 51 62 51q33 0 33 -45zM238 613l-10 -25h-48q-15 -35 -59 -129q-11 -19 -11 -36q0 -16 9 -16q10 0 20 14.5t19 14.5q8 0 8 -12q0 -16 -19.5 -31.5t-42.5 -15.5q-39 0 -39 50q0 21 12 47l52 114h-41l10 25h42l18 37 q15 30 25 30q6 1 17 4q4 0 8.5 2t7.5 2q6 0 6 -11q0 -2 -16 -35l-14 -29h46z" />
<glyph unicode="&#xe000;" horiz-adv-x="475" d="M0 475h475v-475h-475v475z" />
</font>
</defs>
</svg>
