<?xml version="1.0" standalone="no"?>
<!DOCTYPE svg PUBLIC "-//W3C//DTD SVG 1.1//EN" "http://www.w3.org/Graphics/SVG/1.1/DTD/svg11.dtd" >
<svg xmlns="http://www.w3.org/2000/svg">
<metadata></metadata>
<defs>
<font id="odstemplikregular" horiz-adv-x="188" >
<font-face units-per-em="1000" ascent="700" descent="-300" />
<missing-glyph horiz-adv-x="300" />
<glyph horiz-adv-x="1000" />
<glyph horiz-adv-x="1000" />
<glyph unicode="&#xd;" horiz-adv-x="1000" />
<glyph unicode=" "  horiz-adv-x="300" />
<glyph unicode="&#x09;" horiz-adv-x="300" />
<glyph unicode="&#xa0;" horiz-adv-x="300" />
<glyph unicode="!" horiz-adv-x="260" d="M106 7q0 14 11.5 24.5t24.5 10.5q10 0 17 -7t7 -18q0 -14 -11.5 -24.5t-24.5 -10.5q-10 0 -17 7t-7 18zM131 154v12q0 74 15.5 207.5t29.5 202.5h66q-2 -8 -47.5 -177t-45.5 -227v-18h-18z" />
<glyph unicode="&#x22;" horiz-adv-x="227" d="M94 462q7 27 9.5 45.5t2.5 30t1 16.5q2 8 12 15.5t20 7.5q11 0 18.5 -10t7.5 -22q0 -5 -2 -9l-45 -81zM178 462q7 27 9.5 45.5t2.5 30t1 16.5q2 8 12 15.5t20 7.5q11 0 18.5 -10t7.5 -22q0 -5 -2 -9l-45 -81z" />
<glyph unicode="#" horiz-adv-x="444" d="M60 120l5 24h79l19 96h-85l5 24h84l19 94h24q-4 -24 -18 -94h95l19 94h24q-4 -24 -18 -94h96l-5 -24h-96l-18 -96h101l-5 -24h-101l-16 -82h-24q14 78 15 82h-95l-16 -82h-24q14 78 15 82h-79zM169 144h95l19 96h-96z" />
<glyph unicode="$" horiz-adv-x="468" d="M48 104q0 14 6 28l16 -8q-4 -10 -4 -20q0 -31 33.5 -58.5t93.5 -32.5l48 250q-36 25 -59 49.5t-32 46t-11.5 34.5t-2.5 30q0 56 49 88.5t111 32.5l6 32h24l-7 -34q48 -8 76.5 -38.5t28.5 -64.5q0 -17 -8 -33l-16 8q6 9 6 24q0 28 -24 53.5t-66 32.5l-41 -209 q5 -3 32.5 -21.5t36 -25t28.5 -24.5t27.5 -31.5t15 -34.5t7.5 -44q0 -65 -61.5 -102.5t-147.5 -37.5l-7 -38h-24l8 39q-65 6 -103.5 38t-38.5 71zM195 428q0 -53 59 -98l38 196q-52 0 -74.5 -31t-22.5 -67zM217 12q60 0 102.5 30.5t42.5 88.5q0 25 -16 48t-32 35t-51 35z " />
<glyph unicode="%" horiz-adv-x="632" d="M70 323q0 57 44 101t99 44q34 0 59 -18q64 -34 116 -34q56 0 122 52q26 21 34 21q2 0 2 -3q0 -8 -21 -37l-366 -499l-18 14l343 467l-1 1q-49 -28 -95 -28q-45 0 -90 16q12 -22 12 -52q0 -60 -42.5 -104t-96.5 -44q-44 0 -72.5 29.5t-28.5 73.5zM110 308q0 -70 61 -70 q38 0 62 30t30.5 60t6.5 58q0 64 -57 64q-38 0 -62.5 -27.5t-32.5 -57.5t-8 -57zM376 97q0 57 44 101t99 44q45 0 71 -29t26 -72q0 -58 -42 -102.5t-97 -44.5q-44 0 -72.5 29.5t-28.5 73.5zM416 82q0 -70 61 -70q38 0 62 30t30.5 60t6.5 58q0 64 -57 64q-38 0 -62.5 -27.5 t-32.5 -57.5t-8 -57z" />
<glyph unicode="&#x26;" horiz-adv-x="633" d="M60 138q0 56 40.5 96t107.5 54q-54 22 -54 84q0 73 64.5 123.5t138.5 50.5q53 0 87 -31t34 -97q0 -26 -15 -112l136 10v-34l-141 -3q-37 -185 -37 -195q0 -30 11.5 -51t34.5 -21t55.5 23.5t60.5 78.5l11 -4q-58 -116 -136 -116q-42 0 -69 28t-27 67q-45 -95 -145 -95 q-62 0 -109.5 41.5t-47.5 102.5zM120 129q0 -55 28.5 -86t71.5 -31q59 0 100.5 43t56.5 122l20 101l-125 -2q-42 0 -72.5 -12.5t-45 -29t-23 -40t-10 -37t-1.5 -28.5zM209 340q0 -25 14 -35t50 -11l129 8q26 123 26 158q0 34 -20 51t-52 17q-45 0 -86.5 -33t-52.5 -94 q-8 -42 -8 -61z" />
<glyph unicode="'" horiz-adv-x="143" d="M94 462q7 27 9.5 45.5t2.5 30t1 16.5q2 8 12 15.5t20 7.5q11 0 18.5 -10t7.5 -22q0 -5 -2 -9l-45 -81z" />
<glyph unicode="(" horiz-adv-x="334" d="M83 56q0 78 13 146q16 84 55.5 174.5t94.5 157t104 66.5q8 0 12 -1l-4 -18q-3 1 -10 1q-32 0 -63.5 -38t-56 -98.5t-42.5 -123.5t-30 -125q-22 -125 -22 -217q0 -178 69 -190l-3 -18q-58 11 -87.5 91.5t-29.5 192.5z" />
<glyph unicode=")" horiz-adv-x="329" d="M37 -226l4 18q3 -1 10 -1q32 0 63.5 38t56 98.5t42.5 123.5t30 125q21 117 21 215q0 179 -69 191l4 18q58 -11 87.5 -91t29.5 -192q0 -78 -13 -146q-16 -84 -55.5 -174.5t-94.5 -157t-104 -66.5q-8 0 -12 1z" />
<glyph unicode="*" horiz-adv-x="325" d="M98 426q0 3 12 9.5t19 6.5q6 0 32 -16q16 -9 50 -16q-8 30 -10 79q-2 16 -2 17q0 4 2 7t4 4t3 1q23 -14 23 -31q0 -4 -4.5 -23.5t-4.5 -31.5q0 -18 2 -26q21 16 71 36q4 2 9 4l7.5 3t4.5 1q9 0 9 -7q0 -9 -3.5 -15t-8.5 -9.5t-12 -6t-12 -3t-11 -1.5h-5 q-10 -1 -19.5 -3.5t-14.5 -5t-9.5 -5t-5.5 -2.5q25 -20 56 -58q14 -17 14 -19q0 -8 -4 -8q-6 0 -10.5 0.5t-8 1t-6.5 1.5t-5 1.5t-4 3t-3 4t-3 5t-2.5 5.5t-3 7.5t-3.5 8.5q-6 13 -11.5 21t-12 14t-7.5 7q-13 -34 -37 -70q-2 -3 -4.5 -7.5t-4 -6t-3 -4t-3.5 -3t-4 -0.5 q-3 0 -5 7t-3 13v7q0 4 1 7.5t4 7t4.5 5t8 7t9.5 7.5q11 9 17 18.5t9 16t3 7.5q-29 1 -78 14q-3 1 -8 2l-7.5 1.5t-5.5 1.5t-4 3t-1 5z" />
<glyph unicode="+" horiz-adv-x="492" d="M114 220l5 24h146q24 125 30 154h24q-8 -47 -30 -154h155l-5 -24h-154l-28 -142h-24l27 142h-146z" />
<glyph unicode="," d="M35 6q0 15 12 25.5t25 10.5q25 0 25 -30q0 -21 -23.5 -53.5t-25.5 -42.5l-12 1q6 18 13.5 31.5t11.5 19.5t4 11q0 3 -5 3q-12 0 -18.5 7t-6.5 17z" />
<glyph unicode="-" horiz-adv-x="432" d="M114 220l5 24h265l-5 -24h-265z" />
<glyph unicode="." d="M36 7q0 14 11.5 24.5t24.5 10.5q10 0 17 -7t7 -18q0 -14 -11.5 -24.5t-24.5 -10.5q-10 0 -17 7t-7 18z" />
<glyph unicode="/" horiz-adv-x="534" d="M24 -139l533 727l18 -13l-533 -727z" />
<glyph unicode="0" horiz-adv-x="426" d="M47 176q0 92 64 173t147 81q64 0 108 -55.5t44 -126.5q0 -92 -64 -173t-147 -81q-64 0 -108 55.5t-44 126.5zM105 143q0 -51 24 -91t70 -40q36 0 64.5 22t44.5 53.5t26.5 70.5t14 69t3.5 54q0 51 -24 91t-70 40q-36 0 -64.5 -22t-44.5 -53.5t-26.5 -70.5t-14 -69 t-3.5 -54z" />
<glyph unicode="1" horiz-adv-x="250" d="M80 3q4 24 13 81.5t14 87t12 70t13 64t12 35.5q16 34 32 53q-9 -4 -38.5 -19t-48.5 -21l-2 12q21 7 70.5 37.5t63.5 30.5q8 0 15.5 -3.5t11.5 -6.5l3 -4q-11 -2 -31 -33t-26 -60q-11 -53 -55 -328z" />
<glyph unicode="2" horiz-adv-x="406" d="M8 6l46 42q10 10 48.5 45.5t64.5 62.5t58 64.5t49 72.5t17 64q0 26 -20 40.5t-49 14.5q-33 0 -63 -18t-44 -52l-11 5q18 42 53.5 62.5t76.5 20.5q44 0 75 -22t31 -60q0 -49 -32 -98.5t-67 -78t-79 -59t-48 -34.5q28 0 91 -19t95 -19q38 0 48 22l12 22l17 -8 q-43 -84 -75 -84q-42 0 -115 20.5t-112 20.5q-18 0 -55 -37z" />
<glyph unicode="3" horiz-adv-x="398" d="M5 18l12 3q7 -56 48 -84.5t99 -28.5t96 26.5t51.5 62t13.5 77.5q0 44 -25 78.5t-71 40.5q-40 -14 -72 -14t-32 8q0 5 14 10.5t37 10t45 4.5h1q39 23 66 65.5t27 79.5q0 24 -16 39.5t-43 15.5q-88 0 -117 -70l-11 5q35 83 133 83q45 0 73.5 -24.5t28.5 -57.5 q0 -37 -28.5 -76t-74.5 -64q55 -13 89 -57t34 -93q0 -69 -61 -118.5t-156 -49.5q-64 0 -108 31.5t-53 96.5z" />
<glyph unicode="4" horiz-adv-x="426" d="M21 40l5 24q14 13 42.5 45.5t69.5 85t70 116t29 113.5h55q0 -37 -98.5 -175t-142.5 -186h210l40 207q8 44 34.5 77t46.5 33q-3 -14 -9.5 -50t-12.5 -64l-40 -203h55l-5 -23h-54l-28 -144h-60l28 144h-235z" />
<glyph unicode="5" horiz-adv-x="424" d="M10 18l12 3q6 -53 48 -84t93 -31q63 0 110 50t47 141q0 53 -30 95t-84 42q-59 0 -113 -34l-18 4l45 225q46 0 123 -17t89 -17q31 0 48 18l15 17l13 -13q-40 -48 -59.5 -64.5t-37.5 -16.5q-7 0 -66.5 14.5t-117.5 14.5l-29 -143q55 29 111 29q77 0 120.5 -49t43.5 -125 q0 -88 -60.5 -138.5t-139.5 -50.5q-62 0 -108 33.5t-55 96.5z" />
<glyph unicode="6" horiz-adv-x="417" d="M41 187q0 110 86.5 218.5t214.5 140.5l4 -18q-98 -25 -172.5 -137t-74.5 -220q0 -68 29.5 -113.5t78.5 -45.5q48 0 89.5 53.5t41.5 133.5q0 66 -31 95.5t-73 29.5q-47 0 -96 -39l-10 15q62 42 114 42q63 0 107 -43.5t44 -118.5q0 -80 -61 -133t-133 -53t-115 55.5 t-43 137.5z" />
<glyph unicode="7" horiz-adv-x="382" d="M70 346q8 17 15.5 32.5t11 24t6.5 15t4.5 9t2.5 3.5q7 4 28 4q40 0 91 -9.5t87.5 -19t39.5 -9.5q24 0 54 36l14 -12q-43 -58 -56 -76q-19 -27 -52 -70.5t-49 -68t-38.5 -68.5t-38.5 -102t-30 -139h-60q24 114 85 219.5t160 230.5q-16 4 -49.5 12t-53.5 13t-46 9t-45 4 q-49 0 -61 -26l-8 -16z" />
<glyph unicode="8" horiz-adv-x="437" d="M34 111q0 18 6 39.5t21.5 51t50.5 58.5t85 50q-66 36 -66 91q0 61 48.5 97t108.5 36q50 0 85 -24.5t35 -65.5q0 -11 -3.5 -25t-12.5 -35t-30.5 -42.5t-52.5 -38.5q48 -25 75.5 -55.5t27.5 -80.5q0 -48 -24.5 -84.5t-61.5 -54.5t-70.5 -26t-60.5 -8q-62 0 -111.5 32 t-49.5 85zM76 108q0 -43 34.5 -69.5t87.5 -26.5q70 0 111.5 43.5t41.5 108.5q0 27 -9 48t-30.5 37t-36 24t-44.5 21q-77 -35 -116 -83t-39 -103zM180 410q0 -32 24.5 -51.5t73.5 -41.5q100 45 100 127q0 34 -26.5 53t-67.5 19q-34 0 -57 -14.5t-32 -35.5t-12 -34t-3 -22z " />
<glyph unicode="9" horiz-adv-x="433" d="M66 244q0 80 61 133t133 53t115 -55.5t43 -137.5q0 -110 -86.5 -218.5t-214.5 -140.5l-4 18q98 25 172.5 137t74.5 220q0 68 -29.5 113.5t-78.5 45.5q-48 0 -90 -53.5t-42 -133.5q0 -66 31 -95.5t73 -29.5q48 0 97 39l9 -15q-62 -42 -114 -42q-63 0 -106.5 43.5 t-43.5 118.5z" />
<glyph unicode=":" d="M36 7q0 14 11.5 24.5t24.5 10.5q10 0 17 -7t7 -18q0 -14 -11.5 -24.5t-24.5 -10.5q-10 0 -17 7t-7 18zM85 265q0 14 11.5 24.5t24.5 10.5q10 0 17 -7t7 -18q0 -14 -11.5 -24.5t-24.5 -10.5q-10 0 -17 7t-7 18z" />
<glyph unicode=";" d="M35 6q0 15 12 25.5t25 10.5q25 0 25 -30q0 -21 -23.5 -53.5t-25.5 -42.5l-12 1q6 18 13.5 31.5t11.5 19.5t4 11q0 3 -5 3q-12 0 -18.5 7t-6.5 17zM85 265q0 14 11.5 24.5t24.5 10.5q10 0 17 -7t7 -18q0 -14 -11.5 -24.5t-24.5 -10.5q-10 0 -17 7t-7 18z" />
<glyph unicode="&#x3c;" horiz-adv-x="472" d="M91 232l275 230l12 -16l-254 -214l171 -214l-19 -16z" />
<glyph unicode="=" horiz-adv-x="492" d="M105 173l5 23h325l-5 -22q-17 0 -160 -0.5t-165 -0.5zM126 281l5 23h325l-5 -22q-17 0 -160 -0.5t-165 -0.5z" />
<glyph unicode="&#x3e;" horiz-adv-x="452" d="M78 18l254 214l-172 214l19 16l185 -230l-274 -230z" />
<glyph unicode="?" horiz-adv-x="348" d="M28 439q0 53 48 98t121 45q65 0 103.5 -38.5t38.5 -78.5q0 -30 -21 -60.5t-50.5 -57.5l-59 -54t-50.5 -58.5t-21 -62.5v-18h-18v12q0 34 16.5 68t40.5 61.5t47.5 54.5t40 59t16.5 64q0 35 -20.5 63t-65.5 28q-69 0 -111.5 -40t-42.5 -85q0 -26 11.5 -47.5t23.5 -29.5 l-6 -10q-14 9 -27.5 33.5t-13.5 53.5zM94 7q0 14 11.5 24.5t24.5 10.5q10 0 17 -7t7 -18q0 -14 -11.5 -24.5t-24.5 -10.5q-10 0 -17 7t-7 18z" />
<glyph unicode="@" horiz-adv-x="688" d="M54 93q0 90 50.5 172.5t135 133.5t178.5 51q104 0 172 -63q68 -62 68 -169q0 -63 -28 -116q-33 -57 -66.5 -81.5t-81.5 -26.5q-68 0 -68 84q-20 -37 -51 -60.5t-63 -23.5q-58 0 -90.5 35.5t-32.5 90.5q0 74 56 130t127 56q48 0 87 -42q1 -1 3 -1q4 0 20 18.5t27 18.5h17 l-35 -180q-9 -47 -9 -71q0 -42 27 -42q1 0 3 0.5t4 0.5q36 6 62.5 29t53.5 71q26 46 26 110q0 102 -64 160q-66 60 -164 60q-138 0 -245 -106.5t-107 -239.5q0 -99 66.5 -164.5t169.5 -65.5q117 0 217 82l8 -10q-103 -84 -225 -84q-109 0 -178.5 69.5t-69.5 173.5zM236 108 q0 -43 17.5 -69.5t46.5 -26.5q36 0 69.5 29.5t48.5 75.5l26 132q-34 39 -84 39q-47 0 -85.5 -55t-38.5 -125z" />
<glyph unicode="A" horiz-adv-x="602" d="M25 49q0 3 2 9l11 -3q-1 -1 -1 -6q0 -14 13.5 -28.5t32.5 -14.5q28 0 58 51q29 50 66 129h-26l5 24h32q110 236 138 329q-16 33 -56 51l4 12q65 -26 97 -72.5t35 -81.5l26 -238h52l-5 -24h-45l8 -69q6 -58 15 -81.5t26 -23.5q15 0 40 26t51 76l28 57l11 -6l-28 -55 q-59 -116 -121 -116q-33 0 -54 32.5t-26 74.5l-9 85h-177q-44 -93 -71 -139q-31 -53 -74 -53q-23 0 -40.5 17.5t-17.5 37.5zM239 210h163l-26 243q-3 35 -10 58q-38 -109 -127 -301z" />
<glyph unicode="B" horiz-adv-x="682" d="M36 36q0 38 39.5 74.5t116.5 36.5q19 0 32 -4q2 6 4.5 17.5t3.5 15.5l50 250q7 37 7 57t-7 43q-54 -34 -84.5 -88.5t-30.5 -109.5q0 -63 37 -100l-8 -8q-41 41 -41 108q0 59 32.5 117t88.5 95q-11 22 -33 38l7 10q22 -16 41 -39q59 33 127 33q92 0 139 -43.5t47 -102.5 q0 -74 -64 -125q49 -28 78.5 -72t29.5 -89q0 -54 -38 -95q14 2 25.5 9t19 13t17 20.5t13.5 21t14 26.5l13 26l11 -6q-33 -68 -54 -90q-31 -32 -74 -34q-56 -47 -141 -47q-28 0 -56.5 12t-46 25t-46 36.5t-40.5 32.5q-33 -49 -83 -77.5t-92 -28.5q-24 0 -39 11t-15 31zM48 36 q0 -24 35 -24q31 0 67.5 26t62.5 78q1 2 4 10q-11 3 -22 3q-73 0 -110 -30t-37 -63zM275 119q19 -12 54.5 -42.5t65 -47.5t59.5 -17q59 0 95 33q-1 0 -4.5 1t-7 4t-3.5 7q0 11 11 11q2 0 4.5 -1.5t6.5 -3.5t7 -3q25 33 25 81q0 19 -4 42t-21 58t-45 55q-46 -26 -100 -26 q-33 0 -55.5 10t-22.5 28q0 13 22.5 23.5t61.5 10.5t81 -15q45 47 45 110q0 51 -33 89t-99 38q-61 0 -117 -28q37 -53 37 -115q0 -12 -1 -16l-45 -231q-6 -30 -17 -55zM352 308q0 -20 66 -20q39 0 71 24q-31 12 -65 12q-72 0 -72 -16z" />
<glyph unicode="C" horiz-adv-x="437" d="M42 228q0 35 7.5 76t28 91.5t52 91t85.5 68t121 27.5q62 0 92.5 -29.5t30.5 -74.5q0 -39 -22 -75.5t-59 -55.5l-5 11q33 16 53.5 50t20.5 68q0 38 -27.5 63t-83.5 25q-61 0 -107 -32t-69 -75t-37.5 -97.5t-18 -87.5t-3.5 -56q0 -89 42.5 -146.5t124.5 -57.5 q52 0 100 29.5t76 84.5l23 45l11 -6l-23 -45q-33 -65 -86.5 -95.5t-114.5 -30.5q-110 0 -161 69t-51 165z" />
<glyph unicode="D" horiz-adv-x="667" d="M30 36q0 35 34.5 67t91.5 32q34 0 64 -16q12 25 18 57l50 250q7 37 7 57q0 27 -9 50q-65 -32 -103.5 -88.5t-38.5 -114.5q0 -60 42 -102l-8 -8q-46 46 -46 111q0 62 39.5 122t106.5 94q-11 18 -29 31l7 10q22 -17 36 -34q63 28 132 28q114 0 171.5 -69.5t57.5 -174.5 q0 -70 -25 -140t-68 -121q50 1 81 24t56 70l11 -6q-50 -100 -151 -100h-7q-68 -71 -150 -71q-19 0 -35.5 4t-33 14.5t-26 17.5t-28.5 23.5t-25 21.5q-33 -40 -79 -60.5t-79 -20.5q-26 0 -45 11t-19 31zM42 36q0 -12 14.5 -18t32.5 -6q31 0 65.5 24t57.5 67q-26 14 -56 14 q-52 0 -83 -26.5t-31 -54.5zM263 90l24.5 -21t27 -22t24.5 -17t30 -14t31 -4q56 0 105 62q-3 2 -3 7q0 4 3 7.5t7 3.5q3 0 5 -2q35 50 55.5 120.5t20.5 138.5q0 94 -41 154.5t-128 60.5q-67 0 -121 -23q41 -56 41 -120q0 -12 -1 -16l-45 -231q-8 -46 -35 -84z" />
<glyph unicode="E" horiz-adv-x="438" d="M42 150q0 49 33.5 96t88.5 73q-28 34 -28 80q0 69 57 126t131 57q61 0 94 -28t33 -72q0 -47 -34 -94l-9 8q32 44 32 87q0 38 -29 59.5t-86 21.5q-33 0 -58.5 -17t-39 -40t-22 -52.5t-10.5 -49t-2 -35.5q0 -22 6 -38q35 10 67 10q25 0 41.5 -9.5t16.5 -24.5 q0 -16 -19.5 -27t-34.5 -11q-51 0 -89 32q-45 -28 -62 -76.5t-17 -84.5q0 -61 44 -95t108 -34q58 0 109.5 29t80.5 85l24 45l11 -6l-23 -45q-33 -65 -89 -95.5t-121 -30.5q-82 0 -143 44t-61 112zM207 315q19 -27 64 -27q11 0 24 6.5t13 13.5q0 6 -13 11t-29 5q-34 0 -59 -9 z" />
<glyph unicode="F" horiz-adv-x="580" d="M42 100h12q0 -35 30.5 -60.5t68.5 -25.5q35 0 63 25.5t39 79.5l20 99q-5 0 -17 0.5t-18 0.5l13 18h26l35 171q7 38 7 59q0 16 -3 31q-24 -2 -36 -2q-89 0 -138.5 28.5t-49.5 57.5q0 35 59 35q57 0 109.5 -26.5t80.5 -57.5q12 4 73.5 27t108.5 33.5t102 10.5q15 0 15 -13 q0 -17 -24 -53q-25 5 -57 5t-63.5 -5.5t-75.5 -17t-60 -14.5q13 -26 13 -56q0 -15 -3 -33l-35 -183q68 -4 82 -4q27 0 41 1t23 10t11 14.5t7 29t9 38.5q4 18 25 18q13 0 24.5 -8t11.5 -20q0 -5 -3 -11q-22 -44 -46 -68q-7 -17 -7 -34q0 -22 12.5 -36.5t32.5 -14.5 q36 0 49 27l12 -6q-17 -34 -61 -34q-25 0 -43 19.5t-18 49.5q0 1 1 6t1 7q-21 -12 -55 -12q-4 0 -112 9l-22 -115q-10 -52 -49.5 -79t-88.5 -27q-53 0 -92.5 29.5t-39.5 76.5zM106 582q0 -11 13.5 -25t50.5 -26.5t87 -12.5q27 0 52 6q-40 80 -148 80q-55 0 -55 -22z" />
<glyph unicode="G" horiz-adv-x="490" d="M39 203q0 40 7.5 85t28 99t52 96t86 70.5t123.5 28.5q62 0 92.5 -29.5t30.5 -74.5q0 -39 -22 -75.5t-59 -55.5l-5 11q33 16 53.5 50t20.5 68q0 38 -27.5 63t-83.5 25q-61 0 -107.5 -34t-70.5 -81t-39.5 -107.5t-19.5 -101.5t-4 -75q0 -80 31 -116.5t80 -36.5 q41 0 85.5 22.5t74.5 58.5l30 155h60l-39 -201q60 52 103 124l11 -6q-47 -78 -118 -138l-43 -221q-7 -36 -27.5 -61.5t-46.5 -36.5t-45 -15.5t-34 -4.5q-73 0 -113 40t-40 74q0 44 36 71t117.5 60t129.5 63l14 68q-65 -70 -156 -70q-71 0 -118.5 52.5t-47.5 156.5zM82 -198 q0 -26 34.5 -61t100.5 -35q74 0 89 78l38 195q-40 -24 -95.5 -48.5t-87 -38t-55.5 -37t-24 -53.5z" />
<glyph unicode="H" horiz-adv-x="608" d="M42 36q0 59 38 108t103 80l45 228q7 38 7 59q0 58 -45 93l8 10q48 -36 68 -80.5t20 -82.5q0 -10 -2 -20l-35 -182l208 63q46 230 65 256q23 32 56 32q7 0 14 -2.5t16.5 -9t15.5 -23.5t6 -41q0 -61 -31 -120t-82 -88q-45 -235 -45 -268q0 -35 23 -35t55 23t60 78l28 57 l11 -6l-28 -55q-60 -116 -136 -116q-36 0 -52 27t-16 67q0 20 36 205l-208 -64q-18 -96 -27 -130t-21 -49q-19 -30 -47.5 -47t-55.5 -17q-23 0 -37.5 13t-14.5 37zM54 36q0 -31 23 -31q35 0 68 65q10 20 34 135q-58 -28 -91.5 -71.5t-33.5 -97.5zM521 337q46 28 71.5 81 t25.5 110q0 31 -11 45.5t-23 14.5t-25 -57t-38 -194z" />
<glyph unicode="I" horiz-adv-x="444" d="M58 100q0 38 29.5 77.5t54.5 52.5l5 -10q-23 -12 -50 -49t-27 -71q0 -35 30 -60.5t68 -25.5q46 0 74 38q-12 0 -12 11t11 11q3 0 12 -5q12 23 17 50q17 87 32.5 184.5t24 143t18.5 64.5l-40 20t-45 22t-37 14t-37 7q-38 0 -58.5 -16t-46.5 -67l-11 5q28 56 51.5 76 t64.5 20q18 0 41.5 -7.5t40 -15t46 -22.5t41.5 -21q56 79 105 79q38 0 38 -50q0 -36 -21.5 -53t-50.5 -17q-12 0 -30 5q-5 -15 -11.5 -53.5t-21.5 -133t-36 -203.5q-6 -29 -22 -52q4 -1 11 -1q50 0 90.5 36t67.5 88l11 -6q-24 -48 -70 -89t-99 -41q-6 0 -20 2 q-40 -43 -106 -43q-53 0 -92.5 29.5t-39.5 76.5zM403 506q12 -3 23 -3q60 0 60 52q0 35 -15 35q-23 0 -68 -84z" />
<glyph unicode="J" horiz-adv-x="522" d="M42 -198q0 26 14 45t44 34.5t60 27t77.5 29.5t82.5 34l28 147q17 87 32.5 184.5t24 143t18.5 64.5l-40 20t-45 22t-37 14t-37 7q-38 0 -58.5 -16t-46.5 -67l-11 5q28 56 51.5 76t64.5 20q18 0 41.5 -7.5t40 -15t46 -22.5t41.5 -21q56 79 105 79q38 0 38 -50 q0 -36 -21.5 -53t-50.5 -17q-12 0 -30 5q-5 -14 -10.5 -47.5t-20 -124t-35.5 -198.5l-22 -113q105 63 166 164l11 -6q-64 -108 -180 -175l-35 -184q-7 -36 -27.5 -61.5t-46.5 -36.5t-45 -15.5t-34 -4.5q-73 0 -113 40t-40 74zM60 -198q0 -26 34.5 -61t100.5 -35q74 0 89 78 l33 172q-33 -15 -77.5 -31.5t-72 -27.5t-54.5 -25t-40 -31t-13 -39zM481 506q12 -3 23 -3q60 0 60 52q0 35 -15 35q-23 0 -68 -84z" />
<glyph unicode="K" horiz-adv-x="678" d="M48 100q0 38 29.5 77.5t54.5 52.5l6 -10q-23 -12 -50.5 -49.5t-27.5 -70.5q0 -35 31 -60.5t69 -25.5q35 0 63 25.5t39 79.5l56 288q9 43 23 79q-26 7 -49.5 28.5t-42 38.5t-35.5 17q-8 0 -18.5 -5.5t-22.5 -17t-20.5 -35.5t-8.5 -55h-12q1 62 28.5 93.5t53.5 31.5 q25 0 64 -38.5t68 -46.5q20 47 46.5 75.5t46.5 28.5q26 0 26 -46q0 -58 -66 -70q-15 -48 -21 -78l-29 -147q51 81 151.5 184.5t165.5 149.5q16 12 29 12q11 0 11 -8q-3 -24 -4 -31t-6 -19t-14 -15.5t-25 -4.5q-9 0 -15 6q-20 -7 -85 -66.5t-124 -127.5q28 -30 49 -88.5 t31.5 -109.5t27.5 -90.5t39 -39.5q32 0 49 19.5t46 76.5q5 10 8 15l24 48l12 -6l-24 -47q-41 -80 -57 -98q-23 -26 -58 -26q-34 0 -62.5 36.5t-45 83t-38 101.5t-39.5 79q-30 -38 -55 -84l-22 -110q-11 -52 -49.5 -79t-87.5 -27q-53 0 -93 29.5t-40 76.5zM403 498 q50 12 50 57q0 26 -7 26q-14 0 -43 -83z" />
<glyph unicode="L" horiz-adv-x="607" d="M40 36q0 40 35 67.5t72.5 36.5t71.5 9q1 0 29 -4q6 20 67 331q10 52 49 78.5t88 26.5q53 0 92.5 -29t39.5 -76q0 -38 -29.5 -78t-54.5 -53l-5 11q23 12 50 49t27 71q0 35 -30 60.5t-68 25.5q-35 0 -63 -26t-39 -80q-7 -35 -19 -97.5t-16.5 -86t-12 -58.5t-12.5 -53.5 t-10 -32.5q29 -14 66.5 -44.5t69.5 -50t66 -19.5q21 0 50.5 27t53.5 73l29 57l11 -6l-28 -55q-60 -116 -135 -116q-25 0 -47.5 5t-47 19t-36 21t-39 28.5t-31.5 24.5q-32 -45 -85.5 -71.5t-98.5 -26.5q-60 0 -60 42zM52 36q0 -27 39 -27q26 0 51 11.5t41.5 27.5t30 32.5 t19.5 27.5l6 12q-21 9 -50 9q-51 0 -94 -26.5t-43 -66.5z" />
<glyph unicode="M" horiz-adv-x="723" d="M36 33q14 7 22 7q1 0 3 -0.5t4 -0.5q7 -33 19 -33h2q7 0 12.5 4.5t18.5 33t27.5 81t38 159.5t51.5 257q-21 30 -64 49l4 12q134 -55 150 -146l58 -339l248 420q37 60 102 60q24 0 46 -8v-2q0 -8 -6.5 -26.5t-11.5 -22.5q-2 1 -24.5 14.5t-37.5 13.5q-6 0 -14 -3l-63 -443 q-6 -39 -6 -64q0 -40 26 -40h1q15 1 39 31t43 67l29 57l11 -6l-28 -55q-36 -70 -61.5 -93t-68.5 -23q-49 0 -49 69q0 27 5 60l48 344l-224 -377q0 -2 0.5 -7t0.5 -7q0 -59 -53 -132q-13 13 -13 38q0 29 15 57q-1 9 -5 28t-6 29l-61 357q-5 34 -17 62q-27 -146 -49.5 -247.5 t-37.5 -154t-30 -80.5t-24 -33.5t-22 -5.5q-27 0 -48 39z" />
<glyph unicode="N" horiz-adv-x="640" d="M32 52h12q0 -11 2.5 -19.5t7.5 -14.5t11.5 -9t13.5 -3q33 0 59 98q29 113 89 440q-20 29 -57 46l4 12q112 -46 156 -146q19 -47 49 -123t56 -142t48 -123l81 416q11 51 45.5 74.5t75.5 23.5q4 -6 4 -29q0 -20 -4 -25q-5 0 -23 4.5t-29 4.5q-41 0 -52 -55l-86 -440 q20 -36 45 -36q47 0 102 108l28 57l11 -6l-28 -55q-30 -59 -55.5 -87.5t-55.5 -28.5q-40 0 -75.5 27.5t-56.5 79.5l-140 352q-5 10 -15 33t-14 33q-55 -307 -85 -418q-28 -107 -77 -107q-22 0 -34.5 17t-12.5 41z" />
<glyph unicode="O" horiz-adv-x="606" d="M41 218q0 95 40.5 177t119 134.5t177.5 52.5q104 0 162.5 -60t58.5 -164q0 -85 -34.5 -162.5t-96.5 -128.5q24 -7 46 -7q25 0 43.5 8t34.5 29t22.5 32t21.5 42l11 -6q-13 -25 -17 -33t-18 -29.5t-25.5 -29.5t-31 -16.5t-41.5 -8.5q-27 0 -61 8q-85 -62 -191 -62 q-105 0 -163 60.5t-58 163.5zM98 189q0 -177 164 -177q89 0 156 55q-2 1 -6 2.5t-6.5 2.5t-4.5 3.5t-2 6.5q0 11 10 11q5 0 25 -12q56 56 82 142.5t26 162.5q0 178 -164 178q-54 0 -98.5 -18.5t-74 -50.5t-51.5 -70.5t-33.5 -82t-17 -81.5t-5.5 -72z" />
<glyph unicode="P" horiz-adv-x="641" d="M42 100h12q0 -35 30.5 -60.5t68.5 -25.5q35 0 62.5 25.5t38.5 79.5l2 11q-64 77 -64 174q0 66 30 129t90 101q-10 24 -36 44l8 10q24 -18 45 -44q61 32 143 32q95 0 148 -58.5t53 -136.5q0 -55 -26 -107.5t-84.5 -91t-136.5 -38.5q-62 0 -102 21q-5 -24 -8 -40.5 t-3.5 -21.5t-1.5 -8q70 -53 153 -53q73 0 127.5 39.5t80.5 89.5l10 -6q-27 -53 -84 -94t-134 -41q-83 0 -157 53q-15 -43 -52.5 -66t-80.5 -23q-53 0 -92.5 29.5t-39.5 76.5zM204 304q0 -87 55 -158l55 280q7 42 7 57q0 22 -5 38q-56 -35 -84 -94t-28 -123zM328 185 q43 -23 98 -23q47 0 83 20t55 47t31 62t15.5 58.5t3.5 42.5q0 69 -38 117.5t-115 48.5q-69 0 -124 -26q34 -53 34 -113q0 -3 -0.5 -8t-0.5 -6q-1 -12 -42 -220z" />
<glyph unicode="Q" horiz-adv-x="606" d="M43 236q0 60 22.5 120t63.5 111t105.5 83t141.5 32q99 0 162.5 -69.5t63.5 -170.5q0 -48 -17 -96t-51.5 -95t-94.5 -90t-140 -74q20 -2 34 -2q209 0 303 186l11 -6q-30 -59 -72.5 -100t-87.5 -59.5t-81.5 -25.5t-72.5 -7q-22 0 -56 4q-79 -33 -132 -81l209 -26 q18 -2 25 -2q67 0 89 44l9 15l21 -5q-46 -108 -144 -108q-8 0 -24 2q-197 27 -202 27q-29 0 -51 -31l-21 2q17 26 18 28q65 91 175 140q-98 19 -152 83.5t-54 170.5zM101 216q0 -86 43.5 -146.5t127.5 -77.5q142 60 207 156.5t65 200.5q0 92 -46 153.5t-122 61.5 q-54 0 -99 -19t-74 -51.5t-50 -69.5t-31.5 -78t-15.5 -72.5t-5 -57.5z" />
<glyph unicode="R" horiz-adv-x="696" d="M42 100q0 38 29.5 77.5t54.5 52.5l6 -10q-23 -12 -50.5 -49.5t-27.5 -70.5q0 -35 30.5 -60.5t68.5 -25.5q35 0 62.5 25.5t38.5 79.5l60 307q7 38 7 59q0 18 -5 36q-55 -32 -85.5 -85.5t-30.5 -107.5q0 -63 38 -100l-9 -8q-41 41 -41 108q0 58 32.5 115t91.5 92 q-10 23 -36 43l8 10q26 -20 45 -44q64 32 128 32q82 0 136.5 -47.5t54.5 -107.5q0 -62 -53.5 -115.5t-132.5 -53.5h-15q20 -33 50 -101t52.5 -103.5t47.5 -35.5q18 0 31 5.5t27 24t21 31t26 50.5l24 48l11 -6l-24 -47q-41 -80 -57 -98q-23 -26 -58 -26q-34 0 -69 31.5 t-58.5 69.5t-53 90t-45.5 73q-5 5 -5 12q0 8 10.5 18.5t32.5 13.5q1 -1 5 -6.5t7.5 -8.5t9.5 -7.5t13.5 -7t16.5 -2.5q41 0 68.5 18t39 47.5t15 51t3.5 42.5q0 53 -38 91t-102 38q-54 0 -111 -26q34 -52 34 -110q0 -13 -1 -17q-1 -8 -58 -303q-10 -52 -49.5 -80t-88.5 -28 q-53 0 -92.5 29.5t-39.5 76.5z" />
<glyph unicode="S" horiz-adv-x="468" d="M48 104q0 22 6 32q8 16 27 16q10 0 17 -5t7 -12q0 -3 -5 -12.5t-5 -18.5q0 -92 122 -92q82 0 127 54q-12 2 -12 12q0 11 10 11q2 0 14 -6q14 25 14 55q0 43 -19.5 87t-43.5 75.5t-45 73.5t-24 80l-78 -154l-10 6l89 177q4 44 29.5 74.5t67.5 30.5l21 -34q-63 0 -88 -40 q-13 -26 -13 -48q0 -27 18 -56.5t43.5 -57.5t51 -58.5t43.5 -71t18 -84.5q0 -28 -14 -53q50 23 82 86l11 -6q-37 -72 -105 -97q-28 -35 -79 -54.5t-108 -19.5q-77 0 -123 33.5t-46 76.5z" />
<glyph unicode="T" horiz-adv-x="427" d="M33 666q0 24 45 24t110.5 -22.5t108.5 -53.5q29 -20 50 -44q15 4 96 39t133 35q98 0 171 -60l-9 -8q-58 48 -141 48q-45 0 -84.5 -14t-80 -35t-67.5 -29q33 -50 33 -103q0 -21 -4 -38l-59 -305q-4 -23 -18 -46q4 -1 12 -1q24 0 43 8t33.5 26t23 32t22.5 41q4 7 6 11 l11 -6q-14 -28 -22.5 -42.5t-26.5 -37.5t-40 -33.5t-50 -10.5q-8 0 -20 2q-40 -49 -111 -49q-53 0 -92.5 29.5t-39.5 76.5h12q0 -35 30 -60.5t68 -25.5q49 0 79 44q-11 3 -11 11q0 4 3 7.5t7 3.5q2 0 10 -4q10 20 14 43l63 319q6 30 6 54q0 28 -8 49q-17 -3 -33 -3 q-98 0 -185.5 41.5t-87.5 86.5zM45 666q0 -25 35.5 -50t90.5 -40.5t109 -15.5q22 0 47 5q-31 45 -114.5 79t-139.5 34q-28 0 -28 -12z" />
<glyph unicode="U" horiz-adv-x="505" d="M39 162q0 77 41 189.5t41 160.5q0 58 -44 92l7 10q48 -36 68 -80.5t20 -82.5q0 -23 -20.5 -76t-41 -120t-20.5 -124q0 -119 94 -119q24 0 77 44t103 110l80 410h60l-89 -456q-13 -63 -13 -79q0 -25 21 -25h1q15 1 39 31t43 67l29 57l11 -6l-28 -55q-36 -71 -61.5 -93.5 t-67.5 -22.5q-43 0 -43 53q0 29 13 92q-51 -64 -102.5 -104.5t-82.5 -40.5q-59 0 -97 43t-38 125z" />
<glyph unicode="V" horiz-adv-x="466" d="M40 168q0 58 20 125q7 24 24.5 70.5t27 81t9.5 67.5q0 58 -44 92l7 10q48 -36 68 -80.5t20 -82.5q0 -18 -8.5 -45.5t-23.5 -64.5t-20 -53q-28 -81 -28 -150q0 -126 98 -126q38 0 76.5 33.5t67.5 95.5q-34 91 -34 223q0 134 33 204q28 60 70 60q56 0 56 -114 q0 -256 -98 -404q19 -33 43 -33q26 0 47 23.5t45 70.5l11 -6q-24 -48 -47 -74t-56 -26q-27 0 -50 34q-73 -105 -172 -105q-60 0 -101 45t-41 129zM312 364q0 -119 29 -208q61 138 61 348q0 90 -26 90q-18 0 -32 -30q-32 -72 -32 -200z" />
<glyph unicode="W" horiz-adv-x="729" d="M37 152q0 63 21 131t42 127t21 102q0 58 -44 92l7 10q48 -36 68 -80.5t20 -82.5q0 -22 -21.5 -79t-43.5 -128t-22 -127q0 -105 87 -105q35 0 64 26t50.5 75.5t36 99.5t29.5 120l21 106h60l-30 -152q-20 -105 -20 -163q0 -59 20 -85.5t66 -26.5q33 0 66.5 32t61.5 92 q-35 90 -35 228q0 132 34 204q28 60 70 60q56 0 56 -113q0 -248 -99 -405q19 -33 43 -33q26 0 47.5 23.5t45.5 70.5l11 -6q-24 -47 -47.5 -73.5t-56.5 -26.5q-27 0 -50 34q-72 -105 -156 -105q-49 0 -82 31.5t-43 93.5q-35 -66 -73.5 -95.5t-99.5 -29.5q-56 0 -90.5 40.5 t-34.5 117.5zM574 364q0 -125 30 -213q61 142 61 353q0 90 -30 90q-15 0 -29 -30q-32 -72 -32 -200z" />
<glyph unicode="X" horiz-adv-x="517" d="M46 76q0 42 24.5 84.5t63.5 62.5l8 -16q-34 -17 -56 -55.5t-22 -75.5q0 -64 61 -64q80 0 174 218l-34 172q-23 118 -37 143q-11 19 -25 19q-19 0 -40 -24t-57 -93l-11 6q41 80 61 104.5t45 24.5q51 0 78.5 -42t46.5 -139l14 -71q61 160 67 172q18 40 52 59.5t71 19.5 q14 0 26 -3v-2q1 -1 1 -3q0 -11 -4 -27.5t-8 -20.5q-4 1 -15 5.5t-23.5 8t-23.5 3.5q-39 0 -59 -46q-13 -28 -41.5 -103.5t-36.5 -96.5l26 -135q2 -8 5 -23q13 -70 23.5 -98t31.5 -28q34 0 87 104l28 55l11 -6l-34 -67q-54 -104 -92 -104q-46 0 -74 37t-46 131l-7 36 q-92 -204 -180 -204q-39 0 -59 23t-20 59z" />
<glyph unicode="Y" horiz-adv-x="499" d="M39 162q0 76 41 189t41 161q0 58 -44 92l7 10q48 -36 68 -80.5t20 -82.5q0 -25 -20.5 -77t-41 -118t-20.5 -125q0 -119 94 -119q31 0 86.5 40t105.5 114l80 410h60l-105 -541q69 53 119 136l10 -6q-53 -88 -133 -148l-41 -211q-7 -36 -27 -61.5t-46 -36.5t-45 -15.5 t-34 -4.5q-73 0 -113.5 40t-40.5 74q0 43 35 69t117.5 58.5t129.5 59.5l29 148q-50 -69 -104.5 -106t-92.5 -37q-59 0 -97 43t-38 125zM78 -198q0 -25 35 -60.5t101 -35.5q25 0 52.5 19t35.5 59l37 188q-43 -24 -120.5 -55t-109 -54.5t-31.5 -60.5z" />
<glyph unicode="Z" horiz-adv-x="518" d="M36 6q85 95 242 273t195 221q-167 38 -229 38q-63 0 -75 -26l-7 -16l-12 5q13 26 22.5 47.5t12.5 28t5 7.5q7 4 36 4q49 0 122 -9.5t114 -23.5q21 -7 34 -7q17 0 39 22l15 16l13 -13q-86 -97 -247.5 -279.5t-190.5 -215.5q238 -37 319 -37q38 0 48 21l56 109l11 -6 q-9 -18 -21.5 -42.5t-19.5 -38.5t-16.5 -31.5t-16 -27.5t-14 -19t-14 -13t-13.5 -4q-44 0 -179 19.5t-175 19.5q-8 0 -14.5 -5.5t-27.5 -28.5z" />
<glyph unicode="[" horiz-adv-x="556" d="M0 -81q0 180 159 231q4 97 66.5 152t142.5 55q50 0 93 -27t65 -79l-10 -5q-41 93 -148 93q-73 0 -129.5 -47t-61.5 -137q60 15 140 15q73 0 129 13.5t87.5 33.5t51 48t26 53t6.5 52q0 59 -30 111t-72 70l5 10q47 -20 78 -75t31 -117q0 -24 -5 -46.5t-17 -48t-35.5 -46.5 t-56 -38.5t-83.5 -27.5t-115 -10q-84 0 -140 -13q0 -66 49 -120.5t119 -54.5q47 0 80 10.5t61 40t48 62t52 94.5l11 -6q-33 -65 -53 -98t-50 -65t-65 -44t-84 -12q-75 0 -129.5 59t-56.5 129q-147 -44 -147 -215q0 -34 8 -62l-12 -3q-8 29 -8 65z" />
<glyph unicode="\" horiz-adv-x="713" d="M274 668l22 5l210 -877l-22 -5z" />
<glyph unicode="]" horiz-adv-x="647" d="M-49 -66q0 51 13.5 91.5t33.5 66.5t51.5 44.5t58 27.5t63.5 14t57.5 6t49.5 1q115 0 172 15q-1 66 -48 119.5t-115 53.5q-47 0 -81 -11t-62.5 -39.5t-50 -62.5t-52.5 -95l-11 6q32 63 53.5 97.5t52 66t66.5 44t85 12.5q73 0 125.5 -57.5t55.5 -127.5q137 46 137 212 q0 34 -8 62l12 3q8 -29 8 -65q0 -175 -149 -227q-3 -99 -66 -155t-143 -56q-55 0 -100.5 32.5t-65.5 93.5l11 4q18 -57 60 -84.5t95 -27.5q74 0 130.5 48t60.5 139q-58 -18 -156 -18q-32 0 -55.5 -1t-60.5 -6t-64 -14t-57 -26t-49.5 -41t-32 -61t-12.5 -84q0 -34 8 -62 l-12 -3q-8 29 -8 65z" />
<glyph unicode="^" horiz-adv-x="408" d="M123 439l110 105q18 18 29 18h3q7 0 25 -23l77 -103q-2 -2 -25 -2q-16 23 -47.5 55t-36.5 32q-6 0 -48 -32t-64 -55q-19 0 -23 5z" />
<glyph unicode="_" horiz-adv-x="540" d="M54 -191l5 23h373l-5 -22q-17 0 -184 -0.5t-189 -0.5z" />
<glyph unicode="`" horiz-adv-x="269" d="M90 473q0 2 2 30q0 5 12 5q6 0 26 -23q36 -41 64 -85q-2 -2 -20 -2q-16 23 -46 40q-6 4 -13 7.5t-10.5 5.5l-7 4t-4.5 4.5t-2 5.5t-1 8z" />
<glyph unicode="a" horiz-adv-x="436" d="M18 120q0 74 55 130t127 56q26 0 47 -11t32 -21.5t12 -10.5q4 0 21 18.5t28 18.5h16l-35 -180q-10 -55 -10 -74q0 -39 24 -39q49 0 110 123l21 41l11 -6l-22 -41q-30 -58 -55.5 -88.5t-40 -36t-35.5 -5.5q-64 0 -68 75q-21 -34 -51.5 -54.5t-63.5 -20.5q-58 0 -90.5 35.5 t-32.5 90.5zM76 109q0 -43 18 -70t47 -27q36 0 69.5 29.5t48.5 75.5l26 133q-33 38 -85 38q-47 0 -85.5 -55.5t-38.5 -123.5z" />
<glyph unicode="b" horiz-adv-x="358" d="M14 107q0 9 1 13q24 125 38.5 243.5t20.5 171t16 64.5q5 7 36 7q9 0 22.5 -2.5t33.5 -9t33.5 -23t13.5 -39.5q0 -70 -125 -264q51 38 108 38q56 0 86.5 -33.5t30.5 -86.5q0 -74 -48 -132q11 1 20.5 5.5t16.5 8.5t15.5 13.5t12.5 14t12 18t10 17.5t10.5 20t9.5 19l11 -5 l-8.5 -17t-10 -19t-10 -17.5t-12 -18.5t-13 -15.5t-15.5 -15t-17 -10.5t-21 -8.5t-23 -2.5q-47 -47 -111 -47q-61 0 -102.5 35t-41.5 78zM72 96q0 -39 25.5 -61.5t60.5 -22.5t63 34q-11 2 -11 11q0 11 11 11q2 0 12 -5q38 62 38 135q0 41 -16 65.5t-43 24.5q-67 0 -118 -42 q-9 -75 -20 -128q-2 -16 -2 -22zM99 284q118 185 118 250q0 30 -35 45t-56 15q-9 -9 -11.5 -45t-5 -115t-10.5 -150z" />
<glyph unicode="c" horiz-adv-x="312" d="M16 112q0 19 6 42.5t20 50.5t34 49.5t52 37t70 14.5q43 0 68.5 -16t25.5 -44q0 -17 -9 -27.5t-24 -10.5q-10 0 -16.5 6.5t-6.5 16.5q0 19 19 29q-8 28 -57 28q-32 0 -57.5 -23t-39 -56t-20.5 -63t-7 -51q0 -42 21 -62.5t56 -20.5q45 0 92.5 31t74.5 83l24 45l11 -6 l-23 -45q-32 -63 -81.5 -94.5t-102.5 -31.5q-55 0 -92.5 32t-37.5 86z" />
<glyph unicode="d" horiz-adv-x="436" d="M18 120q0 71 54.5 128.5t127.5 57.5q46 0 84 -38q56 320 86 337q1 0 27 0.5t27 0.5q14 0 14 -27q0 -112 -38 -274q-21 -90 -61 -90h-3l-16 -95q-9 -47 -9 -72q0 -41 24 -41q20 0 42.5 22t36 44t31.5 57l21 41l11 -6l-22 -41q-23 -45 -41.5 -72t-35 -39t-27 -15t-27.5 -4 q-61 0 -67 77q-21 -35 -51.5 -56t-64.5 -21q-58 0 -90.5 35.5t-32.5 90.5zM76 109q0 -43 18 -70t47 -27q36 0 69.5 29.5t48.5 75.5q0 1 0.5 3t0.5 3q0 14 21 130q-32 35 -81 35q-45 0 -84.5 -56t-39.5 -123zM339 228q31 2 49 80q38 160 38 271q0 12 -3 15q-22 -16 -84 -366z " />
<glyph unicode="e" horiz-adv-x="312" d="M16 112q0 24 10 55t30 63t57.5 54t84.5 22q40 0 63 -17.5t23 -49.5q0 -39 -36 -77t-108 -38q-33 0 -61 13q-5 -23 -5 -42q0 -42 21 -62.5t56 -20.5q45 0 92.5 31t74.5 83l24 45l11 -6l-23 -45q-32 -63 -81.5 -94.5t-102.5 -31.5q-55 0 -92.5 32t-37.5 86zM82 150 q28 -14 58 -14q43 0 69.5 35.5t26.5 67.5q0 49 -38 49q-46 0 -74.5 -41t-41.5 -97z" />
<glyph unicode="f" horiz-adv-x="190" d="M-64 -300l58 300q20 106 34 189.5t19.5 127t14 116t14.5 119.5q5 35 16.5 44.5t48.5 9.5q34 0 60.5 -22t26.5 -58q0 -27 -3.5 -51.5t-13 -48.5t-16.5 -40t-24 -40t-24 -34.5t-28 -36t-26 -32.5q-10 -78 -25 -168h55q22 0 49.5 29t47.5 67l11 -6q-27 -52 -57 -83t-56 -31 h-54q-13 -69 -38 -197.5t-30 -153.5h-60zM95 266q66 83 87 122q34 65 34 138q0 32 -22.5 50t-56.5 18q-15 0 -19.5 -8t-5.5 -37q-1 -19 -2.5 -74t-5 -104t-9.5 -105z" />
<glyph unicode="g" horiz-adv-x="391" d="M-48 -198q0 43 35 69t117 58.5t129 59.5l13 66q-46 -61 -105 -61q-58 0 -90.5 35.5t-32.5 90.5q0 73 55 129.5t127 56.5q49 0 88 -41q2 -2 3 -2q4 0 20 18.5t27 18.5h16l-51 -265q71 56 118 136l11 -6q-54 -90 -133 -149l-41 -210q-7 -36 -27.5 -61t-47 -34.5t-44.5 -13 t-34 -3.5q-73 0 -113 37.5t-40 70.5zM-30 -198q0 -9 7 -22.5t21.5 -29.5t42.5 -27t64 -11q75 0 89 72l36 188q-43 -24 -120 -55t-108.5 -54.5t-31.5 -60.5zM76 109q0 -43 18 -70t47 -27q35 0 67.5 27.5t48.5 70.5l28 140q-33 38 -85 38q-47 0 -85.5 -54.5t-38.5 -124.5z" />
<glyph unicode="h" horiz-adv-x="403" d="M-8 0l24 123q24 124 38.5 242t20.5 170t15 64q5 7 36 7q9 0 22.5 -2.5t33.5 -9t33.5 -23t13.5 -39.5q0 -70 -131 -275q-6 -45 -15 -96q101 145 183 145q33 0 56.5 -24t23.5 -64q0 -25 -17.5 -90.5t-17.5 -86.5q0 -27 17 -27q15 0 30 19t47 81l29 57l10 -6l-28 -55 q-20 -38 -25.5 -48.5t-18.5 -30.5t-21 -24t-21 -8.5t-31 -4.5q-47 0 -47 55q0 25 18 91.5t18 105.5q0 42 -22 42q-36 0 -86 -42t-105 -131l-22 -115h-61zM101 287q116 185 116 247q0 30 -35 45t-56 15q-9 -9 -11 -44t-4 -113t-10 -150z" />
<glyph unicode="i" d="M23 52q0 27 18 113l-11 6q38 76 44 117h-18l2 12h62q12 0 12 -7q-16 -54 -34.5 -145.5t-18.5 -109.5q0 -20 15 -20q16 0 43 23t52 73l29 57l11 -6l-29 -57q-59 -114 -134 -114q-43 0 -43 58zM90 443q0 17 15 30t29 13q13 0 21.5 -8.5t8.5 -20.5q0 -17 -15 -30t-29 -13 q-13 0 -21.5 8.5t-8.5 20.5z" />
<glyph unicode="j" horiz-adv-x="165" d="M-238 -198q0 33 22 57.5t50.5 38.5t82 38t89.5 46l35 183l-11 6q34 67 41 117h-15l2 12h62q12 0 12 -7q-3 -11 -7 -21.5t-5.5 -16.5t-5.5 -24t-11 -56l-28 -145q73 59 121 141l10 -6q-56 -92 -134 -154l-40 -205q-7 -36 -27.5 -61t-46.5 -34.5t-44 -13t-34 -3.5 q-32 0 -56.5 12t-37 30t-18.5 35t-6 31zM-220 -198q0 -10 4 -23t14 -29t31.5 -27t50.5 -11q74 0 88 72l35 181q-33 -19 -82.5 -42t-75 -35.5t-45.5 -34.5t-20 -51zM90 443q0 17 15 30t29 13q13 0 21.5 -8.5t8.5 -20.5q0 -17 -15 -30t-29 -13q-13 0 -21.5 8.5t-8.5 20.5z" />
<glyph unicode="k" horiz-adv-x="351" d="M-8 0l24 123q24 124 38.5 242t20.5 170t15 64q5 7 36 7q9 0 22 -2.5t33.5 -8.5t34 -22t13.5 -39q0 -73 -133 -279q-8 -66 -21 -135l-3 -17q30 53 83.5 110t112.5 99q16 12 28 12t12 -8q-3 -29 -5.5 -39.5t-13 -20t-31.5 -10.5q-8 0 -14 6q-42 -15 -92 -66 q27 -29 43.5 -63.5t21.5 -57t13 -38t22 -15.5q18 0 30.5 5t27 25t20.5 30.5t26 50.5l25 48l11 -6l-24 -47q-41 -81 -58 -99q-24 -25 -58 -25q-28 0 -47.5 13.5t-29.5 30.5t-27.5 49.5t-33.5 54.5q-34 -45 -54 -100l-8 -42h-60zM100 285q117 186 117 249q0 30 -35 45t-56 15 q-9 -9 -11 -44t-4.5 -113.5t-10.5 -151.5z" />
<glyph unicode="l" horiz-adv-x="204" d="M13 85q0 20 3 38q24 124 38.5 242t20.5 170t15 64q5 7 36 7q9 0 22 -2.5t33.5 -8.5t34 -22t13.5 -39q0 -70 -132 -278q-8 -68 -22 -136q-8 -56 -8 -67q0 -40 24 -40q23 0 54 23t60 78l29 57l11 -6l-29 -55q-58 -116 -136 -116q-67 0 -67 91zM100 286q117 186 117 248 q0 30 -32.5 45t-54.5 15q-4 0 -6 -2q-7 -8 -8.5 -44t-4.5 -112.5t-11 -149.5z" />
<glyph unicode="m" horiz-adv-x="579" d="M9 0l32 165l-11 6q38 76 44 117h-18l2 12h62q12 0 12 -7q-10 -36 -17 -64q68 77 123 77q33 0 54.5 -22t21.5 -61q71 83 128 83q33 0 56 -24t23 -64q0 -24 -17 -89t-17 -87q0 -28 17 -28q13 0 28 18t48 82l29 57l11 -6l-28 -55q-39 -76 -58.5 -96t-59.5 -20q-47 0 -47 55 q0 26 18.5 93.5t18.5 103.5q0 42 -22 42q-55 0 -130 -97q0 -3 -13 -71l-23 -121l-60 2l24 122q18 105 18 123q0 42 -20 42q-56 0 -132 -99l-37 -189h-60z" />
<glyph unicode="n" horiz-adv-x="400" d="M9 0l32 165l-11 6q38 76 44 117h-18l2 12h62q12 0 12 -7q-12 -40 -24 -94q86 107 156 107q33 0 55.5 -24t22.5 -64q0 -27 -17 -92.5t-17 -84.5q0 -27 17 -27q15 0 29.5 18.5t46.5 81.5l29 57l11 -6l-28 -55q-37 -72 -57 -94t-60 -22q-47 0 -47 55q0 26 18.5 93.5 t18.5 103.5q0 42 -22 42q-31 0 -73.5 -31.5t-90.5 -98.5l-31 -158h-60z" />
<glyph unicode="o" horiz-adv-x="362" d="M18 121q0 73 58 129t130 56q58 0 91 -36t33 -89q0 -71 -52 -128q16 1 29.5 7t22 11.5t19.5 21t14.5 22t14.5 28.5l14 28l11 -6q-1 -3 -7.5 -16t-9 -17t-9 -16.5t-10 -17t-11 -14.5t-13.5 -14.5t-14.5 -11t-17 -9.5t-19.5 -5.5t-22 -2.5h-5q-52 -47 -117 -47q-56 0 -93 36 t-37 91zM74 88q0 -76 74 -76q45 0 75 35q-8 3 -8 10q0 4 3 7.5t7 3.5q2 0 11 -4q41 64 41 158q0 66 -71 66q-40 0 -68.5 -23.5t-41 -59.5t-17.5 -64.5t-5 -52.5z" />
<glyph unicode="p" horiz-adv-x="373" d="M-91 -279q0 115 31.5 196t71.5 120l24 131l-6 3l10 19q13 77 13 110h31h8q15 0 17.5 -2.5t2.5 -18.5q38 27 92 27q66 0 101 -35.5t35 -91.5q0 -68 -47 -125q13 2 23.5 5.5t20 12t15 13.5t14.5 19.5t12 19.5t12.5 24l11.5 23l12 -6q-34 -67 -56 -89q-33 -34 -77 -35 q-47 -47 -111 -47q-31 0 -49.5 8t-36.5 30q-6 8 -12 12q-65 -331 -96 -349q-1 0 -27 -0.5t-27 -0.5q-13 0 -13 27zM-79 -279q0 -11 2 -15q24 18 85 312q-30 -40 -58.5 -116.5t-28.5 -180.5zM75 57q9 -4 19 -17q16 -20 31.5 -27t44.5 -7q36 0 65 40q-12 0 -12 11t11 11 q2 0 12 -5q35 59 35 128q0 43 -21 70t-56 27q-59 0 -94 -30q-5 -43 -35 -201z" />
<glyph unicode="q" horiz-adv-x="374" d="M18 120q0 73 55 129.5t127 56.5q26 0 47 -11t32 -21.5t12 -10.5q4 0 21 18.5t28 18.5h14l-41 -212q33 4 51 22t40 61l11 -6q-21 -42 -42 -63t-62 -26l-65 -336q16 26 48.5 47t56.5 23l1 -12q-25 -4 -59.5 -30t-53.5 -69q-2 -4 -5 -4q-50 6 -54 7l69 366q-46 -74 -108 -74 q-58 0 -90.5 35.5t-32.5 90.5zM76 109q0 -43 18 -70t47 -27q28 0 55 18t45 49q-15 5 -15 13q0 11 10 11q1 0 2.5 -0.5t4.5 -2l7 -3.5q5 11 8 20l27 133q-33 38 -85 38q-47 0 -85.5 -55t-38.5 -124z" />
<glyph unicode="r" horiz-adv-x="340" d="M30 171q7 14 20 39q29 58 42 77t29 19q47 0 47 -75q0 -47 -16 -111q57 123 146 186q25 18 46 18q12 0 12 -7q-4 -35 -19.5 -52t-47.5 -19q-13 -23 -13 -46q0 -22 12.5 -36.5t32.5 -14.5q37 0 50 27l10 -6q-5 -10 -8 -14.5t-17 -12t-35 -7.5q-24 0 -40.5 18.5t-16.5 46.5 q0 26 14 51q-31 -11 -69 -63.5t-69 -136.5l-10 -52h-60l35 183q17 90 17 93q0 10 -4 10q-11 0 -20 -13.5t-36 -67.5q-13 -25 -21 -40z" />
<glyph unicode="s" horiz-adv-x="318" d="M-20 78q0 14 1.5 22t10 15.5t23.5 7.5q19 0 33.5 -9t14.5 -18q0 -5 -5 -5q-2 0 -9.5 2.5t-11.5 2.5q-11 0 -11 -18q0 -27 26.5 -46.5t71.5 -19.5q68 0 88 36q-12 2 -12 12q0 11 10 11q4 0 9 -3q1 4 1 13q0 21 -20.5 44.5t-45 41t-45.5 42t-21 48.5l-47 -92l-11 6l67 131 q13 22 43 22l21 -34q-57 0 -57 -32q0 -17 28 -38.5t62 -39t62 -41t28 -43.5q0 -16 -7 -30q9 6 17 13.5t16 20.5t12.5 20.5t13.5 26t12 24.5l11 -6q-2 -4 -11 -21t-12.5 -24t-12.5 -21t-16 -21.5t-18 -16t-23 -13.5q-43 -54 -142 -54q-54 0 -99 26t-45 58z" />
<glyph unicode="t" horiz-adv-x="220" d="M18 342l3 18h67q23 99 23 144h45q12 0 12 -7q-6 -19 -30 -137h110l-2 -18h-111l-43 -219q-9 -45 -9 -68q0 -42 25 -42q23 0 53.5 23t59.5 78l29 57l11 -6l-28 -55q-60 -116 -136 -116q-69 0 -69 88q0 27 13 83l-11 6q22 42 54 171h-66z" />
<glyph unicode="u" horiz-adv-x="415" d="M30 171q38 76 44 117h-18l2 12h62q12 0 12 -7q-46 -152 -46 -237q0 -44 25 -44q27 0 75 37.5t100 116.5q23 118 26 134h60l-35 -180q-14 -72 -14 -83q0 -25 19 -25q22 0 74 102l29 57l11 -6l-28 -55q-38 -75 -57.5 -95.5t-59.5 -20.5q-43 0 -43 53q0 25 10 77 q-48 -64 -93 -97t-74 -33q-80 0 -80 94q0 27 10 77z" />
<glyph unicode="v" horiz-adv-x="378" d="M30 171q45 88 45 129h48q4 0 4 -2l-1 -2v-3q-1 -4 -10 -48.5t-16.5 -89t-7.5 -62.5q0 -41 16 -61t41 -20q35 0 78 39.5t63 105.5q-40 31 -40 76q0 38 22 64t46 26q37 0 37 -75q0 -60 -18 -101q12 -3 23 -3q34 0 48 27l11 -6q-17 -33 -59 -33q-16 0 -28 4 q-32 -71 -88 -106.5t-100 -35.5q-38 0 -73.5 32.5t-35.5 87.5q0 9 6 51zM262 233q0 -37 31 -63q10 40 10 79q0 38 -15 38q-9 0 -17.5 -16t-8.5 -38z" />
<glyph unicode="w" horiz-adv-x="499" d="M30 171q45 88 45 129h48q4 0 4 -2l-1 -2v-3l-29 -149q-8 -46 -8 -72q0 -60 35 -60q21 0 36.5 15t27 47t17.5 56.5t15 68.5q3 14 4 21h60l-15 -76q-9 -46 -9 -73q0 -59 40 -59q33 0 66 37.5t48 104.5q-43 31 -43 79q0 38 22 64t46 26q23 0 30 -19t7 -53q0 -60 -19 -104 q12 -3 23 -3q34 0 48 27l12 -6q-16 -33 -60 -33q-15 0 -27 4q-32 -73 -75.5 -107.5t-83.5 -34.5q-50 0 -75 51q-42 -51 -104 -51q-33 0 -57.5 28.5t-24.5 80.5q0 24 8 62zM383 233q0 -37 34 -66q7 34 7 82q0 38 -15 38q-9 0 -17.5 -16t-8.5 -38z" />
<glyph unicode="x" horiz-adv-x="375" d="M19 51h18q0 -11 5 -19.5t12.5 -12.5t14.5 -5.5t12 -1.5q32 0 48 18q25 29 57 109q-3 14 -7 35.5t-6 33t-5.5 26.5t-6.5 23t-7 16t-9 11.5t-11 3.5q-18 0 -36.5 -25t-56.5 -98l-11 6q43 84 62 109.5t44 25.5q31 0 52 -17.5t36 -60.5l7 14q31 64 87 64q26 0 46 -19t20 -47 q0 -12 -8.5 -20t-19.5 -8t-19 8.5t-8 19.5q0 48 -17 48q-40 0 -65 -54q-10 -20 -15 -31q4 -12 14 -60q3 -17 6.5 -36t5.5 -30t4.5 -23.5t4.5 -19t5 -12.5t7 -8t10 -2q35 0 88 104l28 55l11 -6l-34 -67q-54 -104 -93 -104q-37 0 -59 23t-38 92q-26 -61 -50 -90 q-22 -25 -61 -25q-23 0 -42.5 15t-19.5 42z" />
<glyph unicode="y" horiz-adv-x="408" d="M-30 -198q0 43 34.5 69t117 58.5t128.5 59.5l25 131q-47 -63 -91 -94.5t-73 -31.5q-80 0 -80 94q0 31 10 77l-11 6q38 76 44 117h-18l2 12h62q12 0 12 -7q-46 -152 -46 -237q0 -44 25 -44q27 0 74.5 36.5t98.5 113.5l27 138h60q-1 -6 -3.5 -17.5t-11.5 -58.5t-20 -104 l-16 -84q71 56 117 135l12 -6q-54 -90 -133 -149l-40 -210q-7 -36 -27.5 -61t-47.5 -34.5t-45 -13t-34 -3.5q-73 0 -112.5 37.5t-39.5 70.5zM-12 -198q0 -9 7 -22.5t21.5 -29.5t42 -27t63.5 -11q75 0 89 72l36 187q-39 -22 -94.5 -45.5t-86.5 -36.5t-54.5 -35.5t-23.5 -51.5 z" />
<glyph unicode="z" horiz-adv-x="336" d="M-10 6q37 56 76 72l167 147q-34 8 -73.5 22.5t-50.5 14.5q-20 0 -32 -26l-36 -71l-11 6q51 100 64 120t25 20q13 0 61.5 -17t77.5 -17q34 0 58 21l14 13l12 -14l-248 -219q26 -1 75 -19.5t87 -18.5q44 0 61 35l49 96l11 -6l-55 -106q-33 -65 -80 -65q-42 0 -92 19.5 t-89 19.5q-18 0 -55 -37z" />
<glyph unicode="{" horiz-adv-x="298" d="M36 -87q0 23 26 105t26 105q0 13 -20 41.5t-20 36.5q0 9 32.5 35.5t36.5 39.5q11 47 22 115t20.5 102t28.5 56q47 54 108 54q15 0 30 -3l-4 -18q-8 2 -23 2q-47 0 -78 -46q-14 -20 -20 -54.5t-13 -97.5t-18 -116q-3 -13 -44.5 -39.5t-41.5 -33.5q0 -8 29 -35.5t29 -39.5 q0 -23 -28.5 -105t-28.5 -104q0 -106 83 -122l-4 -18q-42 8 -70 26.5t-39 42t-15 39.5t-4 32z" />
<glyph unicode="|" horiz-adv-x="136" d="M6 -290q170 874 172 884l22 -4q-4 -20 -87 -447.5t-85 -436.5z" />
<glyph unicode="}" horiz-adv-x="340" d="M48 -226l4 17q8 -2 23 -2q45 0 78 47q14 20 20 54.5t13 97.5t18 115q3 13 44.5 40t41.5 34q0 8 -29 35t-29 39q0 23 28 105t28 105q0 62 -22.5 88t-59.5 33l4 18q41 -8 69 -26t39 -41t15 -39.5t4 -32.5q0 -24 -25.5 -106t-25.5 -105q0 -13 20 -41t20 -36t-33 -35.5 t-36 -39.5q-11 -47 -22 -115t-20.5 -102t-28.5 -56q-47 -54 -108 -54q-15 0 -30 3z" />
<glyph unicode="~" horiz-adv-x="382" d="M54 186q43 83 81 83q11 0 78.5 -17.5t86.5 -17.5t30.5 10t25.5 35l16 -7q-24 -49 -47.5 -69t-53.5 -20q-26 0 -81 17t-68 17q-25 0 -52 -38z" />
<glyph unicode="&#xa1;" horiz-adv-x="260" d="M46 -236q2 8 47.5 177t45.5 227v18h18v-12q0 -74 -15.5 -207.5t-29.5 -202.5h-66zM122 323q0 14 11.5 24.5t24.5 10.5q10 0 17 -7t7 -18q0 -14 -11.5 -24.5t-24.5 -10.5q-10 0 -17 7t-7 18z" />
<glyph unicode="&#xa2;" horiz-adv-x="348" d="M40 149q0 60 44.5 123t123.5 69l8 41l23 -4l-7 -36q84 -5 84 -64v-5h-54q0 2 0.5 7.5t0.5 9.5q0 32 -35 34l-54 -276q70 4 125 65l9 -9q-31 -37 -62.5 -54.5t-74.5 -19.5l-7 -34l-22 2l6 32q-49 4 -78.5 37t-29.5 82zM98 130q0 -35 14 -57t40 -25l52 274 q-34 -7 -60 -45.5t-36 -78t-10 -68.5z" />
<glyph unicode="&#xa3;" horiz-adv-x="613" d="M78 30q0 24 34.5 46t96.5 22q16 29 21 47.5t21 107.5h-113l5 23h112l31 162q10 52 48.5 79t87.5 27q53 0 93 -29.5t40 -76.5h-12q0 35 -30.5 60.5t-68.5 25.5q-36 0 -63.5 -25.5t-38.5 -78.5l-27 -144h153l-5 -22h-152q-12 -66 -19.5 -97t-12 -41t-15.5 -26 q28 -8 59.5 -28t63.5 -34t75 -14q60 15 104 100l12 -4q-58 -116 -135 -116q-41 0 -75 14.5t-66 36t-51 28.5q-31 -37 -67.5 -57t-65.5 -20q-40 0 -40 34zM90 30q0 -21 21 -21q41 0 88 72q-55 -1 -82 -16.5t-27 -34.5z" />
<glyph unicode="&#xa4;" horiz-adv-x="372" d="M84 176l37 25q-6 15 -6 34q0 42 31 79l-46 46l20 13l43 -43q38 31 81 31t69 -31l41 28l16 -16l-46 -31q7 -15 7 -36q0 -44 -33 -80l52 -52l-19 -12l-49 48q-36 -30 -80 -30q-45 0 -69 32l-33 -22zM134 239q0 -31 20 -51.5t52 -20.5q41 0 74 31.5t33 73.5q0 31 -20.5 51 t-52.5 20q-40 0 -73 -31.5t-33 -72.5z" />
<glyph unicode="&#xa6;" horiz-adv-x="136" d="M6 -290l66 340h23l-67 -344zM113 260l65 334l22 -4q0 -1 -64 -330h-23z" />
<glyph unicode="&#xa7;" horiz-adv-x="468" d="M10 188q0 59 58.5 97.5t137.5 44.5q-22 18 -36 37q-9 11 -15 23t-9.5 20.5t-5.5 19.5t-2.5 15.5t-1.5 12.5v9q0 45 46 80t108 35q57 0 87.5 -25.5t30.5 -61.5q0 -22 -10 -39l-16 8q8 16 8 31q0 28 -25 48.5t-75 20.5q-45 0 -70 -28.5t-25 -68.5q0 -35 24.5 -64.5 t59.5 -52.5t70.5 -47.5t60 -60t24.5 -79.5q0 -59 -58.5 -97.5t-136.5 -44.5q21 -18 35 -36q9 -11 15 -23t9.5 -20.5t5.5 -19.5t2.5 -15.5t1.5 -12.5v-9q0 -45 -46 -80t-108 -35q-57 0 -87.5 25.5t-30.5 61.5q0 22 10 39l16 -9q-8 -16 -8 -31q0 -28 25 -48t75 -20 q45 0 69.5 28t24.5 69q0 35 -24.5 64.5t-59.5 52.5t-70 47t-59.5 59.5t-24.5 79.5zM70 188q0 -24 15.5 -46t32 -34.5t51 -35.5t49.5 -34q60 1 108 34.5t48 90.5q0 24 -15 46t-31.5 34.5t-51 35.5t-49.5 34q-60 0 -108.5 -33.5t-48.5 -91.5z" />
<glyph unicode="&#xa8;" horiz-adv-x="436" d="M124 443q0 16 13 29.5t30 13.5q13 0 22 -9t9 -21q0 -17 -14 -29.5t-30 -12.5q-13 0 -21.5 8.5t-8.5 20.5zM256 443q0 16 13 29.5t30 13.5q13 0 22 -9t9 -21q0 -17 -14 -29.5t-30 -12.5q-13 0 -21.5 8.5t-8.5 20.5z" />
<glyph unicode="&#xa9;" horiz-adv-x="688" d="M54 113q0 90 50.5 172.5t135 133.5t178.5 51q109 0 178.5 -69.5t69.5 -173.5q0 -90 -50.5 -172.5t-135 -133.5t-178.5 -51q-109 0 -178.5 69.5t-69.5 173.5zM66 112q0 -98 66.5 -164t169.5 -66q138 0 245 106.5t107 239.5q0 98 -66.5 164t-169.5 66q-138 0 -245 -106.5 t-107 -239.5zM205 145q0 24 4 51t17.5 63t35 64t60 47.5t89.5 19.5q43 0 64.5 -21t21.5 -52l-8 -1q0 27 -19.5 44t-58.5 17q-49 0 -83.5 -26t-51 -66.5t-23.5 -77.5t-7 -72q0 -60 26.5 -97t81.5 -37q36 0 69.5 21t53.5 59l8 -5q-45 -88 -141 -88q-74 0 -106.5 45.5 t-32.5 111.5z" />
<glyph unicode="&#xaa;" horiz-adv-x="358" d="M101 416q0 51 39.5 90.5t90.5 39.5q18 0 32.5 -7.5t22 -15t8.5 -7.5q3 0 15 15t20 15h13l-25 -130q-7 -35 -7 -52q0 -24 17 -24q25 0 55 48l10 -6q-15 -24 -28.5 -36t-22 -14.5t-21.5 -3.5q-48 0 -50 52q-32 -52 -81 -52q-41 0 -64.5 25t-23.5 63zM146 408 q0 -31 11.5 -49.5t31.5 -18.5q25 0 47.5 21t33.5 53l18 93q-24 27 -57 27q-32 0 -58.5 -38.5t-26.5 -87.5z" />
<glyph unicode="&#xab;" horiz-adv-x="349" d="M60 168q0 4 2.5 8t5.5 7t8.5 8t7.5 7q53 57 99 84q3 -4 3 -18q-24 -18 -53 -51.5t-30 -40.5q0 -7 18.5 -39t38.5 -50q0 -15 -4 -19q-38 32 -76 76q-20 23 -20 28zM175 168q0 4 2.5 8.5t5 7t8 7.5t7.5 7q52 56 100 84q2 -2 2 -18q-24 -18 -53 -51.5t-30 -40.5q0 -7 19 -39 t39 -50q0 -14 -5 -19q-34 29 -75 76q-20 23 -20 28z" />
<glyph unicode="&#xad;" horiz-adv-x="432" d="M114 220l5 24h265l-5 -24h-265z" />
<glyph unicode="&#xae;" horiz-adv-x="688" d="M54 113q0 90 50.5 172.5t135 133.5t178.5 51q109 0 178.5 -69.5t69.5 -173.5q0 -90 -50.5 -172.5t-135 -133.5t-178.5 -51q-109 0 -178.5 69.5t-69.5 173.5zM66 112q0 -98 66.5 -164t169.5 -66q138 0 245 106.5t107 239.5q0 98 -66.5 164t-169.5 66q-138 0 -245 -106.5 t-107 -239.5zM106 67h9q0 -24 21 -42t48 -18q25 0 44.5 18.5t26.5 55.5l42 215q5 20 5 39q0 17 -4 29q-81 -57 -81 -135q0 -46 26 -72l-6 -6q-29 29 -29 78q0 79 87 143q-8 17 -25 30l6 7q17 -13 30 -29q34 20 101 20q46 0 84.5 -33t38.5 -75q0 -44 -37.5 -81t-92.5 -37h-10 q14 -23 35 -70.5t37 -72.5t33 -25q27 0 43 24l8 -6q-21 -31 -51 -31q-31 0 -59 31t-58.5 86t-40.5 68q-3 4 -3 9q0 10 20 20l10 2q1 -1 4 -5t5 -6.5t6 -5.5t9.5 -4.5t11.5 -1.5q29 0 48 13t27 33.5t10.5 35.5t2.5 30q0 36 -25 63t-63 27q-56 0 -88 -16q25 -38 25 -79v-2 q0 -7 -42 -222q-7 -36 -34.5 -56t-61.5 -20q-37 0 -65 20.5t-28 53.5z" />
<glyph unicode="&#xaf;" horiz-adv-x="295" d="M84 427l6 35h151l-7 -34q-17 0 -72.5 -0.5t-77.5 -0.5z" />
<glyph unicode="&#xb0;" horiz-adv-x="267" d="M96 480q0 26 24 49t52 23q22 0 36 -14t14 -34q0 -25 -21.5 -49t-50.5 -24q-22 0 -38 14t-16 35zM120 480q0 -37 30 -37q23 0 35.5 19t12.5 42q0 36 -26 36q-22 0 -37 -19.5t-15 -40.5z" />
<glyph unicode="&#xb1;" horiz-adv-x="492" d="M72 7l5 23h325l-5 -22q-17 0 -160 -0.5t-165 -0.5zM114 241l5 23h146q24 125 30 154h23q-8 -47 -30 -154h156l-5 -22h-155l-28 -144h-23l28 143h-147z" />
<glyph unicode="&#xb2;" horiz-adv-x="332" d="M63 286l33 29q7 7 34 32t45 44t40 45t34 50t12 45q0 18 -14 28.5t-34 10.5q-22 0 -42 -13.5t-30 -37.5l-11 5q25 58 92 58q30 0 52 -15.5t22 -41.5q0 -34 -22.5 -68.5t-46.5 -54.5t-55 -42t-34 -24q20 0 64 -13.5t66 -13.5q26 0 33 16l9 15l12 -6q-30 -58 -53 -58 q-30 0 -80.5 14t-78.5 14q-12 0 -38 -26z" />
<glyph unicode="&#xb3;" horiz-adv-x="348" d="M78 311l12 4q5 -40 32.5 -60.5t66.5 -20.5q109 0 109 109q0 30 -18 54.5t-50 28.5q-27 -10 -50 -10q-22 0 -22 6q0 3 9.5 7t25.5 7t32 3h1q56 33 56 92q0 17 -11.5 28t-30.5 11q-57 0 -79 -50l-11 5q24 57 94 57q31 0 51 -17t20 -40q0 -54 -63 -88q39 -9 62.5 -40 t23.5 -65q0 -48 -40.5 -79t-107.5 -31q-45 0 -75.5 22t-36.5 67z" />
<glyph unicode="&#xb4;" horiz-adv-x="220" d="M82 403q35 43 98 87q25 18 29 18q11 0 11 -7q-1 -12 -2.5 -19.5t-4.5 -14t-4.5 -9.5t-8 -6.5t-9 -5t-13.5 -5t-17 -5.5q-37 -13 -61 -38q-14 0 -18 5z" />
<glyph unicode="&#xb5;" horiz-adv-x="418" d="M-8 -124q0 35 45 270l28 142h-27l2 12h80q12 0 12 -7q-20 -63 -33 -135t-13 -102q0 -44 25 -44q27 0 75 37.5t100 116.5q23 118 26 134h60l-35 -180q-14 -72 -14 -83q0 -25 19 -25q20 0 54 65l12 -6q-25 -47 -43.5 -62t-53.5 -15q-43 0 -43 53q0 25 10 77 q-48 -64 -93 -97t-74 -33q-56 0 -71 46q-25 -76 -25 -128q0 -27 8 -43q17 -1 27 -11.5t10 -27.5q0 -13 -6 -28.5t-13 -25t-10 -9.5q-13 0 -26 34t-13 75z" />
<glyph unicode="&#xb6;" horiz-adv-x="593" d="M91 339q0 55 26 107.5t84.5 91t136.5 38.5q72 0 153 4q25 40 72.5 64t73.5 28t40 4l3 -12q-120 0 -165 -110q-16 -47 -25.5 -182.5t-21.5 -211.5l-65 -340h-60l59 303q15 76 26 170.5t21 156t27 101.5q-42 6 -115 6q37 -58 37 -113q0 -22 -4 -39l-114 -585h-60l63 324 q-90 3 -141 61t-51 134zM150 328q0 -65 34 -112t103 -53l54 275q6 30 6 54q0 31 -15 65q-54 0 -93 -28t-56.5 -70t-25 -74.5t-7.5 -56.5z" />
<glyph unicode="&#xb7;" horiz-adv-x="240" d="M114 241q0 14 11.5 24.5t24.5 10.5q10 0 17 -7t7 -18q0 -14 -11.5 -24.5t-24.5 -10.5q-10 0 -17 7t-7 18z" />
<glyph unicode="&#xb8;" horiz-adv-x="420" d="M81 -218q36 5 76.5 35t40.5 65q0 20 -11 35.5t-26 15.5q-25 0 -45 -13l-14 10l22 74l17 -5l-15 -55q18 7 35 7q28 0 50.5 -19t22.5 -50q0 -26 -18 -48.5t-44 -36.5t-48.5 -22t-39.5 -11z" />
<glyph unicode="&#xb9;" horiz-adv-x="225" d="M106 274q34 216 44 237q11 24 23 37q-8 -3 -19.5 -9.5t-21.5 -11t-20 -7.5l-1 12q14 4 48.5 24t44.5 20q5 0 10.5 -2.5t7.5 -5.5l3 -2q-7 -1 -21.5 -23t-18.5 -42q-9 -42 -38 -230z" />
<glyph unicode="&#xba;" horiz-adv-x="274" d="M101 417q0 51 41.5 90t91.5 39q41 0 65 -25t24 -62q0 -50 -38.5 -90.5t-90.5 -40.5q-39 0 -66 25t-27 64zM144 394q0 -54 50 -54q29 0 49 20t27.5 50.5t9.5 47.5t2 29q0 47 -48 47q-28 0 -47.5 -16.5t-28 -41.5t-11.5 -45t-3 -37z" />
<glyph unicode="&#xbb;" horiz-adv-x="349" d="M74 74v8q24 18 53 51.5t30 40.5q0 7 -18.5 39t-38.5 50q0 15 4 19q38 -32 76 -76q19 -22 19 -28q0 -8 -22 -30q-52 -56 -100 -84q-3 3 -3 10zM188 77v5q24 18 53 51.5t30 40.5q0 7 -18.5 39t-38.5 50q0 14 5 19q34 -29 75 -76q20 -23 20 -28q0 -4 -2.5 -8.5t-5 -7 t-8 -7.5t-7.5 -7q-53 -57 -99 -84q-4 4 -4 13z" />
<glyph unicode="&#xbf;" horiz-adv-x="382" d="M31 -125q0 30 21 60.5t50.5 57.5l59 54t50.5 58.5t21 62.5v18h18v-12q0 -34 -16.5 -68t-40 -61.5t-47.5 -54.5t-40.5 -59t-16.5 -64q0 -35 20.5 -63t65.5 -28q69 0 111.5 40t42.5 85q0 26 -11.5 47.5t-23.5 29.5l6 10q14 -9 27.5 -33.5t13.5 -53.5q0 -53 -48 -98 t-121 -45q-65 0 -103.5 38.5t-38.5 78.5zM216 323q0 14 11.5 24.5t24.5 10.5q10 0 17 -7t7 -18q0 -14 -11.5 -24.5t-24.5 -10.5q-10 0 -17 7t-7 18z" />
<glyph unicode="&#xc0;" horiz-adv-x="602" d="M25 49q0 3 2 9l11 -3q-1 -1 -1 -6q0 -14 13.5 -28.5t32.5 -14.5q28 0 58 51q29 50 66 129h-26l5 24h32q110 236 138 329q-16 33 -56 51l4 12q65 -26 97 -72.5t35 -81.5l26 -238h52l-5 -24h-45l8 -69q6 -58 15 -81.5t26 -23.5q15 0 40 26t51 76l28 57l11 -6l-28 -55 q-59 -116 -121 -116q-33 0 -54 32.5t-26 74.5l-9 85h-177q-44 -93 -71 -139q-31 -53 -74 -53q-23 0 -40.5 17.5t-17.5 37.5zM239 210h163l-26 243q-3 35 -10 58q-38 -109 -127 -301zM330 711q0 2 2 30q0 5 12 5q5 0 25 -23q40 -44 65 -85q-2 -2 -20 -2q-16 23 -46 40 q-6 4 -13 7.5t-10.5 5.5l-7 4t-4.5 4.5t-2 5.5t-1 8z" />
<glyph unicode="&#xc1;" horiz-adv-x="602" d="M25 49q0 3 2 9l11 -3q-1 -1 -1 -6q0 -14 13.5 -28.5t32.5 -14.5q28 0 58 51q29 50 66 129h-26l5 24h32q110 236 138 329q-16 33 -56 51l4 12q65 -26 97 -72.5t35 -81.5l26 -238h52l-5 -24h-45l8 -69q6 -58 15 -81.5t26 -23.5q15 0 40 26t51 76l28 57l11 -6l-28 -55 q-59 -116 -121 -116q-33 0 -54 32.5t-26 74.5l-9 85h-177q-44 -93 -71 -139q-31 -53 -74 -53q-23 0 -40.5 17.5t-17.5 37.5zM239 210h163l-26 243q-3 35 -10 58q-38 -109 -127 -301zM345 641q35 43 98 87q25 18 28 18q12 0 12 -7q-2 -14 -4.5 -23t-3.5 -14t-8 -10t-9 -6 t-16 -5.5t-19 -6.5q-36 -12 -60 -38q-13 0 -18 5z" />
<glyph unicode="&#xc2;" horiz-adv-x="602" d="M25 49q0 3 2 9l11 -3q-1 -1 -1 -6q0 -14 13.5 -28.5t32.5 -14.5q28 0 58 51q29 50 66 129h-26l5 24h32q110 236 138 329q-16 33 -56 51l4 12q65 -26 97 -72.5t35 -81.5l26 -238h52l-5 -24h-45l8 -69q6 -58 15 -81.5t26 -23.5q15 0 40 26t51 76l28 57l11 -6l-28 -55 q-59 -116 -121 -116q-33 0 -54 32.5t-26 74.5l-9 85h-177q-44 -93 -71 -139q-31 -53 -74 -53q-23 0 -40.5 17.5t-17.5 37.5zM239 210h163l-26 243q-3 35 -10 58q-38 -109 -127 -301zM282 641q35 43 98 87q24 18 28 18h4q5 0 25 -23q40 -44 65 -85q-2 -2 -20 -2 q-14 21 -44 39t-38 18q-9 0 -44.5 -18t-56.5 -39q-12 0 -17 5z" />
<glyph unicode="&#xc3;" horiz-adv-x="602" d="M25 49q0 3 2 9l11 -3q-1 -1 -1 -6q0 -14 13.5 -28.5t32.5 -14.5q28 0 58 51q29 50 66 129h-26l5 24h32q110 236 138 329q-16 33 -56 51l4 12q65 -26 97 -72.5t35 -81.5l26 -238h52l-5 -24h-45l8 -69q6 -58 15 -81.5t26 -23.5q15 0 40 26t51 76l28 57l11 -6l-28 -55 q-59 -116 -121 -116q-33 0 -54 32.5t-26 74.5l-9 85h-177q-44 -93 -71 -139q-31 -53 -74 -53q-23 0 -40.5 17.5t-17.5 37.5zM239 210h163l-26 243q-3 35 -10 58q-38 -109 -127 -301zM260 644q46 89 84 89q8 0 58 -15.5t63 -15.5q16 0 27.5 10t29.5 35l17 -8q-46 -89 -83 -89 q-9 0 -60.5 15t-62.5 15q-16 0 -27 -9.5t-29 -34.5z" />
<glyph unicode="&#xc4;" horiz-adv-x="602" d="M25 49q0 3 2 9l11 -3q-1 -1 -1 -6q0 -14 13.5 -28.5t32.5 -14.5q28 0 58 51q29 50 66 129h-26l5 24h32q110 236 138 329q-16 33 -56 51l4 12q65 -26 97 -72.5t35 -81.5l26 -238h52l-5 -24h-45l8 -69q6 -58 15 -81.5t26 -23.5q15 0 40 26t51 76l28 57l11 -6l-28 -55 q-59 -116 -121 -116q-33 0 -54 32.5t-26 74.5l-9 85h-177q-44 -93 -71 -139q-31 -53 -74 -53q-23 0 -40.5 17.5t-17.5 37.5zM239 210h163l-26 243q-3 35 -10 58q-38 -109 -127 -301zM294 681q0 16 13 29.5t30 13.5q13 0 22 -9t9 -21q0 -17 -14 -29.5t-30 -12.5 q-13 0 -21.5 8.5t-8.5 20.5zM426 681q0 16 13 29.5t30 13.5q13 0 22 -9t9 -21q0 -17 -14 -29.5t-30 -12.5q-13 0 -21.5 8.5t-8.5 20.5z" />
<glyph unicode="&#xc5;" horiz-adv-x="602" d="M25 49q0 5 1 8l12 -3q0 -1 -0.5 -2.5t-0.5 -2.5q0 -14 13.5 -28.5t32.5 -14.5q28 0 58 51q29 50 66 129h-23l5 24h29q125 267 159 405q-34 13 -34 53q0 32 23.5 55t53.5 23q24 0 38 -16t14 -39q0 -27 -16.5 -48t-38.5 -28q15 -133 45 -405h52l-5 -24h-45l8 -69 q6 -58 15 -81.5t26 -23.5q15 0 40 26t51 76l28 57l11 -6l-28 -55q-59 -116 -121 -116q-33 0 -54 32.5t-26 74.5l-9 85h-177q-44 -93 -71 -139q-31 -53 -74 -53q-23 0 -40.5 17.5t-17.5 37.5zM239 210h163l-26 243l-6 70q-37 -110 -131 -313zM368 665q0 -35 29 -35 q20 0 35 18.5t15 42.5q0 37 -29 37q-20 0 -35 -19t-15 -44z" />
<glyph unicode="&#xc6;" horiz-adv-x="808" d="M25 49q0 5 1 8l12 -3q0 -1 -0.5 -2.5t-0.5 -2.5q0 -14 13.5 -28.5t32.5 -14.5q28 0 58 51q24 40 61 119h-16l5 24h23q114 245 143 341q-16 33 -55 49l4 12q65 -26 97 -72.5t35 -81.5l20 -186q32 36 76 57q-28 34 -28 80q0 69 57 126t131 57q61 0 94 -28t33 -72 q0 -47 -34 -94l-9 8q32 44 32 87q0 38 -29 59.5t-86 21.5q-33 0 -58.5 -17t-39 -40t-22 -52.5t-10.5 -49t-2 -35.5q0 -22 6 -38q35 10 67 10q25 0 41.5 -9.5t16.5 -24.5q0 -16 -19.5 -27t-34.5 -11q-51 0 -89 32q-45 -28 -62 -76.5t-17 -84.5q0 -61 44 -95t108 -34 q58 0 109.5 29t80.5 85l24 45l11 -6l-23 -45q-33 -65 -89 -95.5t-121 -30.5q-80 0 -141 42.5t-64 107.5l-3 32h-185q-34 -71 -66 -129q-31 -53 -74 -53q-23 0 -40.5 17.5t-17.5 37.5zM234 200h171l-27 253q-6 42 -11 61q-37 -107 -133 -314zM577 315q19 -27 64 -27 q11 0 24 6.5t13 13.5q0 6 -13 11t-29 5q-34 0 -59 -9z" />
<glyph unicode="&#xc7;" horiz-adv-x="437" d="M42 228q0 35 7.5 76t28 91.5t52 91t85.5 68t121 27.5q62 0 92.5 -29.5t30.5 -74.5q0 -39 -22 -75.5t-59 -55.5l-5 11q33 16 53.5 50t20.5 68q0 38 -27.5 63t-83.5 25q-61 0 -107 -32t-69 -75t-37.5 -97.5t-18 -87.5t-3.5 -56q0 -89 42.5 -146.5t124.5 -57.5 q52 0 100 29.5t76 84.5l23 45l11 -6l-23 -45q-33 -65 -86.5 -95.5t-114.5 -30.5q-4 0 -10.5 0.5t-9.5 0.5l-15 -55q18 7 35 7q28 0 50.5 -19t22.5 -50q0 -26 -18 -48.5t-44 -36.5t-48.5 -22t-39.5 -11l-3 18q36 5 76.5 35t40.5 65q0 20 -11 35.5t-26 15.5q-26 0 -45 -13 l-14 10l21 71q-62 9 -102.5 46t-56 83.5t-15.5 101.5z" />
<glyph unicode="&#xc8;" horiz-adv-x="438" d="M42 150q0 49 33.5 96t88.5 73q-28 34 -28 80q0 69 57 126t131 57q61 0 94 -28t33 -72q0 -47 -34 -94l-9 8q32 44 32 87q0 38 -29 59.5t-86 21.5q-33 0 -58.5 -17t-39 -40t-22 -52.5t-10.5 -49t-2 -35.5q0 -22 6 -38q35 10 67 10q25 0 41.5 -9.5t16.5 -24.5 q0 -16 -19.5 -27t-34.5 -11q-51 0 -89 32q-45 -28 -62 -76.5t-17 -84.5q0 -61 44 -95t108 -34q58 0 109.5 29t80.5 85l24 45l11 -6l-23 -45q-33 -65 -89 -95.5t-121 -30.5q-82 0 -143 44t-61 112zM207 315q19 -27 64 -27q11 0 24 6.5t13 13.5q0 6 -13 11t-29 5q-34 0 -59 -9 zM292 711q0 2 2 30q0 5 12 5q5 0 25 -23q40 -44 65 -85q-2 -2 -20 -2q-16 23 -46 40q-6 4 -13 7.5t-10.5 5.5l-7 4t-4.5 4.5t-2 5.5t-1 8z" />
<glyph unicode="&#xc9;" horiz-adv-x="438" d="M42 150q0 49 33.5 96t88.5 73q-28 34 -28 80q0 69 57 126t131 57q61 0 94 -28t33 -72q0 -47 -34 -94l-9 8q32 44 32 87q0 38 -29 59.5t-86 21.5q-33 0 -58.5 -17t-39 -40t-22 -52.5t-10.5 -49t-2 -35.5q0 -22 6 -38q35 10 67 10q25 0 41.5 -9.5t16.5 -24.5 q0 -16 -19.5 -27t-34.5 -11q-51 0 -89 32q-45 -28 -62 -76.5t-17 -84.5q0 -61 44 -95t108 -34q58 0 109.5 29t80.5 85l24 45l11 -6l-23 -45q-33 -65 -89 -95.5t-121 -30.5q-82 0 -143 44t-61 112zM207 315q19 -27 64 -27q11 0 24 6.5t13 13.5q0 6 -13 11t-29 5q-34 0 -59 -9 zM307 641q35 43 98 87q25 18 28 18q12 0 12 -7q-2 -14 -4.5 -23t-3.5 -14t-8 -10t-9 -6t-16 -5.5t-19 -6.5q-36 -12 -60 -38q-13 0 -18 5z" />
<glyph unicode="&#xca;" horiz-adv-x="438" d="M42 150q0 49 33.5 96t88.5 73q-28 34 -28 80q0 69 57 126t131 57q61 0 94 -28t33 -72q0 -47 -34 -94l-9 8q32 44 32 87q0 38 -29 59.5t-86 21.5q-33 0 -58.5 -17t-39 -40t-22 -52.5t-10.5 -49t-2 -35.5q0 -22 6 -38q35 10 67 10q25 0 41.5 -9.5t16.5 -24.5 q0 -16 -19.5 -27t-34.5 -11q-51 0 -89 32q-45 -28 -62 -76.5t-17 -84.5q0 -61 44 -95t108 -34q58 0 109.5 29t80.5 85l24 45l11 -6l-23 -45q-33 -65 -89 -95.5t-121 -30.5q-82 0 -143 44t-61 112zM207 315q19 -27 64 -27q11 0 24 6.5t13 13.5q0 6 -13 11t-29 5q-34 0 -59 -9 zM244 641q35 43 98 87q24 18 28 18h4q5 0 25 -23q40 -44 65 -85q-2 -2 -20 -2q-14 21 -44 39t-38 18q-9 0 -44.5 -18t-56.5 -39q-12 0 -17 5z" />
<glyph unicode="&#xcb;" horiz-adv-x="438" d="M42 150q0 49 33.5 96t88.5 73q-28 34 -28 80q0 69 57 126t131 57q61 0 94 -28t33 -72q0 -47 -34 -94l-9 8q32 44 32 87q0 38 -29 59.5t-86 21.5q-33 0 -58.5 -17t-39 -40t-22 -52.5t-10.5 -49t-2 -35.5q0 -22 6 -38q35 10 67 10q25 0 41.5 -9.5t16.5 -24.5 q0 -16 -19.5 -27t-34.5 -11q-51 0 -89 32q-45 -28 -62 -76.5t-17 -84.5q0 -61 44 -95t108 -34q58 0 109.5 29t80.5 85l24 45l11 -6l-23 -45q-33 -65 -89 -95.5t-121 -30.5q-82 0 -143 44t-61 112zM207 315q19 -27 64 -27q11 0 24 6.5t13 13.5q0 6 -13 11t-29 5q-34 0 -59 -9 zM257 681q0 16 13 29.5t30 13.5q13 0 22 -9t9 -21q0 -17 -14 -29.5t-30 -12.5q-13 0 -21.5 8.5t-8.5 20.5zM389 681q0 16 13 29.5t30 13.5q13 0 22 -9t9 -21q0 -17 -14 -29.5t-30 -12.5q-13 0 -21.5 8.5t-8.5 20.5z" />
<glyph unicode="&#xcc;" horiz-adv-x="444" d="M58 100q0 38 29.5 77.5t54.5 52.5l5 -10q-23 -12 -50 -49t-27 -71q0 -35 30 -60.5t68 -25.5q46 0 74 38q-12 0 -12 11t11 11q3 0 12 -5q12 23 17 50q17 87 32.5 184.5t24 143t18.5 64.5l-40 20t-45 22t-37 14t-37 7q-38 0 -58.5 -16t-46.5 -67l-11 5q28 56 51.5 76 t64.5 20q18 0 41.5 -7.5t40 -15t46 -22.5t41.5 -21q56 79 105 79q38 0 38 -50q0 -36 -21.5 -53t-50.5 -17q-12 0 -30 5q-5 -15 -11.5 -53.5t-21.5 -133t-36 -203.5q-6 -29 -22 -52q4 -1 11 -1q50 0 90.5 36t67.5 88l11 -6q-24 -48 -70 -89t-99 -41q-6 0 -20 2 q-40 -43 -106 -43q-53 0 -92.5 29.5t-39.5 76.5zM242 711q0 2 2 30q0 5 12 5q5 0 25 -23q40 -44 65 -85q-2 -2 -20 -2q-16 23 -46 40q-6 4 -13 7.5t-10.5 5.5l-7 4t-4.5 4.5t-2 5.5t-1 8zM403 506q12 -3 23 -3q60 0 60 52q0 35 -15 35q-23 0 -68 -84z" />
<glyph unicode="&#xcd;" horiz-adv-x="444" d="M58 100q0 38 29.5 77.5t54.5 52.5l5 -10q-23 -12 -50 -49t-27 -71q0 -35 30 -60.5t68 -25.5q46 0 74 38q-12 0 -12 11t11 11q3 0 12 -5q12 23 17 50q17 87 32.5 184.5t24 143t18.5 64.5l-40 20t-45 22t-37 14t-37 7q-38 0 -58.5 -16t-46.5 -67l-11 5q28 56 51.5 76 t64.5 20q18 0 41.5 -7.5t40 -15t46 -22.5t41.5 -21q56 79 105 79q38 0 38 -50q0 -36 -21.5 -53t-50.5 -17q-12 0 -30 5q-5 -15 -11.5 -53.5t-21.5 -133t-36 -203.5q-6 -29 -22 -52q4 -1 11 -1q50 0 90.5 36t67.5 88l11 -6q-24 -48 -70 -89t-99 -41q-6 0 -20 2 q-40 -43 -106 -43q-53 0 -92.5 29.5t-39.5 76.5zM257 641q35 43 98 87q25 18 28 18q12 0 12 -7q-2 -14 -4.5 -23t-3.5 -14t-8 -10t-9 -6t-16 -5.5t-19 -6.5q-36 -12 -60 -38q-13 0 -18 5zM403 506q12 -3 23 -3q60 0 60 52q0 35 -15 35q-23 0 -68 -84z" />
<glyph unicode="&#xce;" horiz-adv-x="444" d="M58 100q0 38 29.5 77.5t54.5 52.5l5 -10q-23 -12 -50 -49t-27 -71q0 -35 30 -60.5t68 -25.5q46 0 74 38q-12 0 -12 11t11 11q3 0 12 -5q12 23 17 50q17 87 32.5 184.5t24 143t18.5 64.5l-40 20t-45 22t-37 14t-37 7q-38 0 -58.5 -16t-46.5 -67l-11 5q28 56 51.5 76 t64.5 20q18 0 41.5 -7.5t40 -15t46 -22.5t41.5 -21q56 79 105 79q38 0 38 -50q0 -36 -21.5 -53t-50.5 -17q-12 0 -30 5q-5 -15 -11.5 -53.5t-21.5 -133t-36 -203.5q-6 -29 -22 -52q4 -1 11 -1q50 0 90.5 36t67.5 88l11 -6q-24 -48 -70 -89t-99 -41q-6 0 -20 2 q-40 -43 -106 -43q-53 0 -92.5 29.5t-39.5 76.5zM193 641q35 43 98 87q24 18 28 18h4q5 0 25 -23q40 -44 65 -85q-2 -2 -20 -2q-14 21 -44 39t-38 18q-9 0 -44.5 -18t-56.5 -39q-12 0 -17 5zM403 506q12 -3 23 -3q60 0 60 52q0 35 -15 35q-23 0 -68 -84z" />
<glyph unicode="&#xcf;" horiz-adv-x="444" d="M58 100q0 38 29.5 77.5t54.5 52.5l5 -10q-23 -12 -50 -49t-27 -71q0 -35 30 -60.5t68 -25.5q46 0 74 38q-12 0 -12 11t11 11q3 0 12 -5q12 23 17 50q17 87 32.5 184.5t24 143t18.5 64.5l-40 20t-45 22t-37 14t-37 7q-38 0 -58.5 -16t-46.5 -67l-11 5q28 56 51.5 76 t64.5 20q18 0 41.5 -7.5t40 -15t46 -22.5t41.5 -21q56 79 105 79q38 0 38 -50q0 -36 -21.5 -53t-50.5 -17q-12 0 -30 5q-5 -15 -11.5 -53.5t-21.5 -133t-36 -203.5q-6 -29 -22 -52q4 -1 11 -1q50 0 90.5 36t67.5 88l11 -6q-24 -48 -70 -89t-99 -41q-6 0 -20 2 q-40 -43 -106 -43q-53 0 -92.5 29.5t-39.5 76.5zM206 681q0 16 13 29.5t30 13.5q13 0 22 -9t9 -21q0 -17 -14 -29.5t-30 -12.5q-13 0 -21.5 8.5t-8.5 20.5zM338 681q0 16 13 29.5t30 13.5q13 0 22 -9t9 -21q0 -17 -14 -29.5t-30 -12.5q-13 0 -21.5 8.5t-8.5 20.5zM403 506 q12 -3 23 -3q60 0 60 52q0 35 -15 35q-23 0 -68 -84z" />
<glyph unicode="&#xd0;" horiz-adv-x="667" d="M30 36q0 35 34.5 67t91.5 32q34 0 64 -16q12 25 18 57l22 108h-66l4 16h65l25 126q7 37 7 57q0 27 -9 50q-65 -32 -103.5 -88.5t-38.5 -114.5q0 -60 42 -102l-8 -8q-46 46 -46 111q0 62 39.5 122t106.5 94q-11 18 -29 31l7 10q22 -17 36 -34q63 28 132 28 q114 0 171.5 -69.5t57.5 -174.5q0 -70 -25 -140t-68 -121q50 1 81 24t56 70l11 -6q-50 -100 -151 -100h-7q-68 -71 -150 -71q-19 0 -35.5 4t-33 14.5t-26 17.5t-28.5 23.5t-25 21.5q-33 -40 -79 -60.5t-79 -20.5q-26 0 -45 11t-19 31zM42 36q0 -12 14.5 -18t32.5 -6 q31 0 65.5 24t57.5 67q-26 14 -56 14q-52 0 -83 -26.5t-31 -54.5zM263 90l24.5 -21t27 -22t24.5 -17t30 -14t31 -4q56 0 105 62q-3 2 -3 7q0 4 3 7.5t7 3.5q3 0 5 -2q35 50 55.5 120.5t20.5 138.5q0 94 -41 154.5t-128 60.5q-67 0 -121 -23q41 -56 41 -120q0 -12 -1 -16 l-20 -105h133l-2 -16h-135l-21 -110q-8 -46 -35 -84z" />
<glyph unicode="&#xd1;" horiz-adv-x="640" d="M32 52h12q0 -11 2.5 -19.5t7.5 -14.5t11.5 -9t13.5 -3q33 0 59 98q29 113 89 440q-20 29 -57 46l4 12q112 -46 156 -146q19 -47 49 -123t56 -142t48 -123l81 416q11 51 45.5 74.5t75.5 23.5q4 -6 4 -29q0 -20 -4 -25q-5 0 -23 4.5t-29 4.5q-41 0 -52 -55l-86 -440 q20 -36 45 -36q47 0 102 108l28 57l11 -6l-28 -55q-30 -59 -55.5 -87.5t-55.5 -28.5q-40 0 -75.5 27.5t-56.5 79.5l-140 352q-5 10 -15 33t-14 33q-55 -307 -85 -418q-28 -107 -77 -107q-22 0 -34.5 17t-12.5 41zM313 644q46 89 84 89q8 0 58 -15.5t63 -15.5q16 0 27.5 10 t29.5 35l17 -8q-46 -89 -83 -89q-9 0 -60.5 15t-62.5 15q-16 0 -27 -9.5t-29 -34.5z" />
<glyph unicode="&#xd2;" horiz-adv-x="606" d="M41 218q0 95 40.5 177t119 134.5t177.5 52.5q104 0 162.5 -60t58.5 -164q0 -85 -34.5 -162.5t-96.5 -128.5q24 -7 46 -7q25 0 43.5 8t34.5 29t22.5 32t21.5 42l11 -6q-13 -25 -17 -33t-18 -29.5t-25.5 -29.5t-31 -16.5t-41.5 -8.5q-27 0 -61 8q-85 -62 -191 -62 q-105 0 -163 60.5t-58 163.5zM98 189q0 -177 164 -177q89 0 156 55q-2 1 -6 2.5t-6.5 2.5t-4.5 3.5t-2 6.5q0 11 10 11q5 0 25 -12q56 56 82 142.5t26 162.5q0 178 -164 178q-54 0 -98.5 -18.5t-74 -50.5t-51.5 -70.5t-33.5 -82t-17 -81.5t-5.5 -72zM328 711q0 2 2 30 q0 5 12 5q5 0 25 -23q40 -44 65 -85q-2 -2 -20 -2q-16 23 -46 40q-6 4 -13 7.5t-10.5 5.5l-7 4t-4.5 4.5t-2 5.5t-1 8z" />
<glyph unicode="&#xd3;" horiz-adv-x="606" d="M41 218q0 95 40.5 177t119 134.5t177.5 52.5q104 0 162.5 -60t58.5 -164q0 -85 -34.5 -162.5t-96.5 -128.5q24 -7 46 -7q25 0 43.5 8t34.5 29t22.5 32t21.5 42l11 -6q-13 -25 -17 -33t-18 -29.5t-25.5 -29.5t-31 -16.5t-41.5 -8.5q-27 0 -61 8q-85 -62 -191 -62 q-105 0 -163 60.5t-58 163.5zM98 189q0 -177 164 -177q89 0 156 55q-2 1 -6 2.5t-6.5 2.5t-4.5 3.5t-2 6.5q0 11 10 11q5 0 25 -12q56 56 82 142.5t26 162.5q0 178 -164 178q-54 0 -98.5 -18.5t-74 -50.5t-51.5 -70.5t-33.5 -82t-17 -81.5t-5.5 -72zM344 641q35 43 98 87 q25 18 29 18q11 0 11 -7q-1 -12 -2.5 -19.5t-4.5 -14t-4.5 -9.5t-8 -6.5t-9 -5t-13.5 -5t-17 -5.5q-37 -13 -61 -38q-14 0 -18 5z" />
<glyph unicode="&#xd4;" horiz-adv-x="606" d="M41 218q0 95 40.5 177t119 134.5t177.5 52.5q104 0 162.5 -60t58.5 -164q0 -85 -34.5 -162.5t-96.5 -128.5q24 -7 46 -7q25 0 43.5 8t34.5 29t22.5 32t21.5 42l11 -6q-13 -25 -17 -33t-18 -29.5t-25.5 -29.5t-31 -16.5t-41.5 -8.5q-27 0 -61 8q-85 -62 -191 -62 q-105 0 -163 60.5t-58 163.5zM98 189q0 -177 164 -177q89 0 156 55q-2 1 -6 2.5t-6.5 2.5t-4.5 3.5t-2 6.5q0 11 10 11q5 0 25 -12q56 56 82 142.5t26 162.5q0 178 -164 178q-54 0 -98.5 -18.5t-74 -50.5t-51.5 -70.5t-33.5 -82t-17 -81.5t-5.5 -72zM278 641q35 43 98 87 q24 18 28 18h4q5 0 25 -23q40 -44 65 -85q-2 -2 -20 -2q-14 21 -44 39t-38 18q-9 0 -44.5 -18t-56.5 -39q-12 0 -17 5z" />
<glyph unicode="&#xd5;" horiz-adv-x="606" d="M41 218q0 95 40.5 177t119 134.5t177.5 52.5q104 0 162.5 -60t58.5 -164q0 -85 -34.5 -162.5t-96.5 -128.5q24 -7 46 -7q25 0 43.5 8t34.5 29t22.5 32t21.5 42l11 -6q-13 -25 -17 -33t-18 -29.5t-25.5 -29.5t-31 -16.5t-41.5 -8.5q-27 0 -61 8q-85 -62 -191 -62 q-105 0 -163 60.5t-58 163.5zM98 189q0 -177 164 -177q89 0 156 55q-2 1 -6 2.5t-6.5 2.5t-4.5 3.5t-2 6.5q0 11 10 11q5 0 25 -12q56 56 82 142.5t26 162.5q0 178 -164 178q-54 0 -98.5 -18.5t-74 -50.5t-51.5 -70.5t-33.5 -82t-17 -81.5t-5.5 -72zM259 644q46 89 84 89 q8 0 58 -15.5t63 -15.5q16 0 27.5 10t29.5 35l17 -8q-46 -89 -83 -89q-9 0 -60.5 15t-62.5 15q-16 0 -27 -9.5t-29 -34.5z" />
<glyph unicode="&#xd6;" horiz-adv-x="606" d="M41 218q0 95 40.5 177t119 134.5t177.5 52.5q104 0 162.5 -60t58.5 -164q0 -85 -34.5 -162.5t-96.5 -128.5q24 -7 46 -7q25 0 43.5 8t34.5 29t22.5 32t21.5 42l11 -6q-13 -25 -17 -33t-18 -29.5t-25.5 -29.5t-31 -16.5t-41.5 -8.5q-27 0 -61 8q-85 -62 -191 -62 q-105 0 -163 60.5t-58 163.5zM98 189q0 -177 164 -177q89 0 156 55q-2 1 -6 2.5t-6.5 2.5t-4.5 3.5t-2 6.5q0 11 10 11q5 0 25 -12q56 56 82 142.5t26 162.5q0 178 -164 178q-54 0 -98.5 -18.5t-74 -50.5t-51.5 -70.5t-33.5 -82t-17 -81.5t-5.5 -72zM294 681q0 16 13 29.5 t30 13.5q13 0 22 -9t9 -21q0 -17 -14 -29.5t-30 -12.5q-13 0 -21.5 8.5t-8.5 20.5zM426 681q0 16 13 29.5t30 13.5q13 0 22 -9t9 -21q0 -17 -14 -29.5t-30 -12.5q-13 0 -21.5 8.5t-8.5 20.5z" />
<glyph unicode="&#xd7;" horiz-adv-x="492" d="M136 176l120 81l-104 103l20 13l103 -103l131 88l16 -16l-130 -89l110 -110l-19 -12l-110 109l-121 -81z" />
<glyph unicode="&#xd8;" horiz-adv-x="606" d="M34 -18l64 74q-57 60 -57 162q0 95 40.5 177t119 134.5t177.5 52.5q86 0 142 -42l58 66l13 -12l-57 -66q65 -60 65 -170q0 -85 -34.5 -162.5t-96.5 -128.5q24 -7 46 -7q25 0 43.5 8t34.5 29t22.5 32t21.5 42l11 -6q-13 -25 -17 -33t-18 -29.5t-25.5 -29.5t-31 -16.5 t-41.5 -8.5q-27 0 -61 8q-85 -62 -191 -62q-94 0 -151 49l-64 -73zM98 189q0 -65 23 -107l381 436q-41 46 -124 46q-54 0 -98.5 -18.5t-74 -50.5t-51.5 -70.5t-33.5 -82t-17 -81.5t-5.5 -72zM131 66q40 -54 131 -54q89 0 156 55q-2 1 -6 2.5t-6.5 2.5t-4.5 3.5t-2 6.5 q0 11 10 11q5 0 25 -12q56 56 82 142.5t26 162.5q0 74 -29 118z" />
<glyph unicode="&#xd9;" horiz-adv-x="505" d="M39 162q0 77 41 189.5t41 160.5q0 58 -44 92l7 10q48 -36 68 -80.5t20 -82.5q0 -23 -20.5 -76t-41 -120t-20.5 -124q0 -119 94 -119q24 0 77 44t103 110l80 410h60l-89 -456q-13 -63 -13 -79q0 -25 21 -25h1q15 1 39 31t43 67l29 57l11 -6l-28 -55q-36 -71 -61.5 -93.5 t-67.5 -22.5q-43 0 -43 53q0 29 13 92q-51 -64 -102.5 -104.5t-82.5 -40.5q-59 0 -97 43t-38 125zM260 711q0 2 2 30q0 5 12 5q5 0 25 -23q40 -44 65 -85q-2 -2 -20 -2q-16 23 -46 40q-6 4 -13 7.5t-10.5 5.5l-7 4t-4.5 4.5t-2 5.5t-1 8z" />
<glyph unicode="&#xda;" horiz-adv-x="505" d="M39 162q0 77 41 189.5t41 160.5q0 58 -44 92l7 10q48 -36 68 -80.5t20 -82.5q0 -23 -20.5 -76t-41 -120t-20.5 -124q0 -119 94 -119q24 0 77 44t103 110l80 410h60l-89 -456q-13 -63 -13 -79q0 -25 21 -25h1q15 1 39 31t43 67l29 57l11 -6l-28 -55q-36 -71 -61.5 -93.5 t-67.5 -22.5q-43 0 -43 53q0 29 13 92q-51 -64 -102.5 -104.5t-82.5 -40.5q-59 0 -97 43t-38 125zM275 641q35 43 98 87q25 18 28 18q12 0 12 -7q-2 -14 -4.5 -23t-3.5 -14t-8 -10t-9 -6t-16 -5.5t-19 -6.5q-36 -12 -60 -38q-13 0 -18 5z" />
<glyph unicode="&#xdb;" horiz-adv-x="505" d="M39 162q0 77 41 189.5t41 160.5q0 58 -44 92l7 10q48 -36 68 -80.5t20 -82.5q0 -23 -20.5 -76t-41 -120t-20.5 -124q0 -119 94 -119q24 0 77 44t103 110l80 410h60l-89 -456q-13 -63 -13 -79q0 -25 21 -25h1q15 1 39 31t43 67l29 57l11 -6l-28 -55q-36 -71 -61.5 -93.5 t-67.5 -22.5q-43 0 -43 53q0 29 13 92q-51 -64 -102.5 -104.5t-82.5 -40.5q-59 0 -97 43t-38 125zM211 641q35 43 98 87q24 18 28 18h4q5 0 25 -23q40 -44 65 -85q-2 -2 -20 -2q-14 21 -44 39t-38 18q-9 0 -44.5 -18t-56.5 -39q-12 0 -17 5z" />
<glyph unicode="&#xdc;" horiz-adv-x="505" d="M39 162q0 77 41 189.5t41 160.5q0 58 -44 92l7 10q48 -36 68 -80.5t20 -82.5q0 -23 -20.5 -76t-41 -120t-20.5 -124q0 -119 94 -119q24 0 77 44t103 110l80 410h60l-89 -456q-13 -63 -13 -79q0 -25 21 -25h1q15 1 39 31t43 67l29 57l11 -6l-28 -55q-36 -71 -61.5 -93.5 t-67.5 -22.5q-43 0 -43 53q0 29 13 92q-51 -64 -102.5 -104.5t-82.5 -40.5q-59 0 -97 43t-38 125zM224 681q0 16 13 29.5t30 13.5q13 0 22 -9t9 -21q0 -17 -14 -29.5t-30 -12.5q-13 0 -21.5 8.5t-8.5 20.5zM356 681q0 16 13 29.5t30 13.5q13 0 22 -9t9 -21q0 -17 -14 -29.5 t-30 -12.5q-13 0 -21.5 8.5t-8.5 20.5z" />
<glyph unicode="&#xdd;" horiz-adv-x="499" d="M39 162q0 76 41 189t41 161q0 58 -44 92l7 10q48 -36 68 -80.5t20 -82.5q0 -25 -20.5 -77t-41 -118t-20.5 -125q0 -119 94 -119q31 0 86.5 40t105.5 114l80 410h60l-105 -541q69 53 119 136l10 -6q-53 -88 -133 -148l-41 -211q-7 -36 -27 -61.5t-46 -36.5t-45 -15.5 t-34 -4.5q-73 0 -113.5 40t-40.5 74q0 43 35 69t117.5 58.5t129.5 59.5l29 148q-50 -69 -104.5 -106t-92.5 -37q-59 0 -97 43t-38 125zM78 -198q0 -25 35 -60.5t101 -35.5q25 0 52.5 19t35.5 59l37 188q-43 -24 -120.5 -55t-109 -54.5t-31.5 -60.5zM275 641q35 43 98 87 q25 18 28 18q12 0 12 -7q-2 -14 -4.5 -23t-3.5 -14t-8 -10t-9 -6t-16 -5.5t-19 -6.5q-36 -12 -60 -38q-13 0 -18 5z" />
<glyph unicode="&#xde;" horiz-adv-x="592" d="M42 17l9 11q25 -14 53 -14q35 0 63.5 26t39.5 79l6 32q-42 70 -42 145q0 59 28.5 104.5t75.5 72.5l23 120l62 7q-6 -39 -18 -101q25 5 47 5q92 0 151 -51t59 -133q0 -89 -64.5 -149t-157.5 -60q-63 0 -107 27l-6 -33q64 -64 149 -64q75 0 130 39.5t80 89.5l10 -6 q-27 -53 -84 -94t-136 -41q-86 0 -152 63q-13 -47 -51.5 -72.5t-84.5 -25.5q-44 0 -83 23zM183 296q0 -62 34 -127l54 284q-88 -53 -88 -157zM274 157q45 -28 103 -28q81 0 121.5 56t40.5 135q0 72 -35.5 119t-114.5 47q-25 0 -50 -6z" />
<glyph unicode="&#xdf;" horiz-adv-x="359" d="M-136 -307q0 6 5 13q73 0 88 78l42 216q20 106 34 189.5t19.5 127t14 116t14.5 119.5q5 34 25.5 44t66.5 10q44 0 80.5 -24.5t36.5 -70.5q0 -31 -19 -64.5t-41 -57t-41 -53.5t-19 -54q0 -17 24 -42.5t53 -47.5t53 -49t24 -47q0 -14 -3 -27q7 5 14.5 12.5t12 13.5t11.5 18 t9.5 17l10.5 21l10 20l11 -6l-8.5 -17t-9.5 -18.5t-9.5 -17t-12 -18t-12.5 -15.5t-15 -15t-17 -11q-26 -59 -122 -59q-50 0 -74.5 26.5t-24.5 63.5q0 18 21 18q14 0 18.5 -6t4.5 -19q0 -14 1 -23t6 -20t17 -16.5t31 -5.5q42 0 58 31q-14 0 -14 11q0 12 11 12q2 0 10 -4 q2 12 2 19q0 21 -17 48t-37.5 49.5t-37.5 51t-17 52.5q0 39 45 111.5t45 117.5q0 41 -18.5 62t-50.5 21q-54 0 -56 -45q0 -10 -3 -90.5t-6 -122t-15.5 -136.5t-33.5 -200l-38 -194q-7 -36 -27.5 -61.5t-46.5 -36.5t-44.5 -15.5t-33.5 -4.5q-5 0 -5 5z" />
<glyph unicode="&#xe0;" horiz-adv-x="436" d="M18 120q0 74 55 130t127 56q26 0 47 -11t32 -21.5t12 -10.5q4 0 21 18.5t28 18.5h16l-35 -180q-10 -55 -10 -74q0 -39 24 -39q49 0 110 123l21 41l11 -6l-22 -41q-30 -58 -55.5 -88.5t-40 -36t-35.5 -5.5q-64 0 -68 75q-21 -34 -51.5 -54.5t-63.5 -20.5q-58 0 -90.5 35.5 t-32.5 90.5zM76 109q0 -43 18 -70t47 -27q36 0 69.5 29.5t48.5 75.5l26 133q-33 38 -85 38q-47 0 -85.5 -55.5t-38.5 -123.5zM160 473q0 2 2 30q0 5 12 5q5 0 25 -23q40 -44 65 -85q-2 -2 -20 -2q-16 23 -46 40q-6 4 -13 7.5t-10.5 5.5l-7 4t-4.5 4.5t-2 5.5t-1 8z" />
<glyph unicode="&#xe1;" horiz-adv-x="436" d="M18 120q0 74 55 130t127 56q26 0 47 -11t32 -21.5t12 -10.5q4 0 21 18.5t28 18.5h16l-35 -180q-10 -55 -10 -74q0 -39 24 -39q49 0 110 123l21 41l11 -6l-22 -41q-30 -58 -55.5 -88.5t-40 -36t-35.5 -5.5q-64 0 -68 75q-21 -34 -51.5 -54.5t-63.5 -20.5q-58 0 -90.5 35.5 t-32.5 90.5zM76 109q0 -43 18 -70t47 -27q36 0 69.5 29.5t48.5 75.5l26 133q-33 38 -85 38q-47 0 -85.5 -55.5t-38.5 -123.5zM175 403q35 43 98 87q25 18 28 18q12 0 12 -7q-2 -14 -4.5 -23t-3.5 -14t-8 -10t-9 -6t-16 -5.5t-19 -6.5q-36 -12 -60 -38q-13 0 -18 5z" />
<glyph unicode="&#xe2;" horiz-adv-x="436" d="M18 120q0 74 55 130t127 56q26 0 47 -11t32 -21.5t12 -10.5q4 0 21 18.5t28 18.5h16l-35 -180q-10 -55 -10 -74q0 -39 24 -39q49 0 110 123l21 41l11 -6l-22 -41q-30 -58 -55.5 -88.5t-40 -36t-35.5 -5.5q-64 0 -68 75q-21 -34 -51.5 -54.5t-63.5 -20.5q-58 0 -90.5 35.5 t-32.5 90.5zM76 109q0 -43 18 -70t47 -27q36 0 69.5 29.5t48.5 75.5l26 133q-33 38 -85 38q-47 0 -85.5 -55.5t-38.5 -123.5zM112 403q35 43 98 87q24 18 28 18h4q6 0 26 -23q36 -41 64 -85q-2 -2 -20 -2q-14 21 -44 39t-38 18q-9 0 -44 -18t-56 -39q-13 0 -18 5z" />
<glyph unicode="&#xe3;" horiz-adv-x="436" d="M18 120q0 74 55 130t127 56q26 0 47 -11t32 -21.5t12 -10.5q4 0 21 18.5t28 18.5h16l-35 -180q-10 -55 -10 -74q0 -39 24 -39q49 0 110 123l21 41l11 -6l-22 -41q-30 -58 -55.5 -88.5t-40 -36t-35.5 -5.5q-64 0 -68 75q-21 -34 -51.5 -54.5t-63.5 -20.5q-58 0 -90.5 35.5 t-32.5 90.5zM76 109q0 -43 18 -70t47 -27q36 0 69.5 29.5t48.5 75.5l26 133q-33 38 -85 38q-47 0 -85.5 -55.5t-38.5 -123.5zM89 406q46 89 84 89q8 0 58 -15.5t63 -15.5q16 0 27.5 10t29.5 35l17 -8q-46 -89 -83 -89q-9 0 -60.5 15t-62.5 15q-16 0 -27 -9.5t-29 -34.5z" />
<glyph unicode="&#xe4;" horiz-adv-x="436" d="M18 120q0 74 55 130t127 56q26 0 47 -11t32 -21.5t12 -10.5q4 0 21 18.5t28 18.5h16l-35 -180q-10 -55 -10 -74q0 -39 24 -39q49 0 110 123l21 41l11 -6l-22 -41q-30 -58 -55.5 -88.5t-40 -36t-35.5 -5.5q-64 0 -68 75q-21 -34 -51.5 -54.5t-63.5 -20.5q-58 0 -90.5 35.5 t-32.5 90.5zM76 109q0 -43 18 -70t47 -27q36 0 69.5 29.5t48.5 75.5l26 133q-33 38 -85 38q-47 0 -85.5 -55.5t-38.5 -123.5zM124 443q0 16 13 29.5t30 13.5q13 0 22 -9t9 -21q0 -17 -14 -29.5t-30 -12.5q-13 0 -21.5 8.5t-8.5 20.5zM256 443q0 16 13 29.5t30 13.5 q13 0 22 -9t9 -21q0 -17 -14 -29.5t-30 -12.5q-13 0 -21.5 8.5t-8.5 20.5z" />
<glyph unicode="&#xe5;" horiz-adv-x="436" d="M18 120q0 74 55 130t127 56q26 0 47 -11t32 -21.5t12 -10.5q4 0 21 18.5t28 18.5h16l-35 -180q-10 -55 -10 -74q0 -39 24 -39q49 0 110 123l21 41l11 -6l-22 -41q-30 -58 -55.5 -88.5t-40 -36t-35.5 -5.5q-64 0 -68 75q-21 -34 -51.5 -54.5t-63.5 -20.5q-58 0 -90.5 35.5 t-32.5 90.5zM76 109q0 -43 18 -70t47 -27q36 0 69.5 29.5t48.5 75.5l26 133q-33 38 -85 38q-47 0 -85.5 -55.5t-38.5 -123.5zM165 430q0 31 23.5 54.5t53.5 23.5q24 0 38 -16t14 -39q0 -32 -23.5 -55.5t-52.5 -23.5q-24 0 -38.5 16t-14.5 40zM190 427q0 -35 29 -35 q20 0 35 18.5t15 42.5q0 37 -29 37q-20 0 -35 -19.5t-15 -43.5z" />
<glyph unicode="&#xe6;" horiz-adv-x="545" d="M18 117q0 75 49 132t127 57q26 0 46 -8t29 -15.5t10 -7.5q4 0 12.5 21.5t10.5 21.5h16q-8 -45 -10 -64q50 52 124 52q40 0 63 -17.5t23 -49.5q0 -39 -36.5 -77t-108.5 -38q-31 0 -61 14q-5 -27 -5 -44q0 -37 16.5 -59.5t45.5 -22.5q124 0 183 114l24 45l10 -6l-22 -45 q-64 -126 -195 -126q-45 0 -76.5 24.5t-40.5 64.5q-44 -89 -117 -89q-57 0 -87 34.5t-30 88.5zM76 104q0 -42 16 -67t43 -25q36 0 66.5 29t45.5 76l26 144q-25 27 -79 27t-86 -60t-32 -124zM315 150q28 -14 58 -14q43 0 70 35.5t27 67.5q0 49 -38 49q-81 0 -117 -138z" />
<glyph unicode="&#xe7;" horiz-adv-x="312" d="M16 113q0 19 6 42.5t20 50.5t34 49t52 36.5t70 14.5q43 0 68.5 -16t25.5 -44q0 -17 -9 -27.5t-24 -10.5q-10 0 -16.5 6.5t-6.5 16.5q0 19 19 29q-8 28 -57 28q-32 0 -57.5 -23t-39 -56.5t-20.5 -63.5t-7 -51q0 -37 16.5 -59.5t45.5 -22.5q123 0 182 114l24 45l11 -6 l-23 -45q-63 -123 -187 -126l-15 -54q18 7 35 7q28 0 50.5 -19t22.5 -50q0 -26 -18 -48.5t-44 -36.5t-48.5 -22t-39.5 -11l-3 18q36 5 76.5 35t40.5 65q0 20 -11 35.5t-26 15.5q-25 0 -45 -13l-14 10l20 68q-48 4 -78 37.5t-30 81.5z" />
<glyph unicode="&#xe8;" horiz-adv-x="312" d="M16 112q0 24 10 55t30 63t57.5 54t84.5 22q40 0 63 -17.5t23 -49.5q0 -39 -36 -77t-108 -38q-33 0 -61 13q-5 -23 -5 -42q0 -42 21 -62.5t56 -20.5q45 0 92.5 31t74.5 83l24 45l11 -6l-23 -45q-32 -63 -81.5 -94.5t-102.5 -31.5q-55 0 -92.5 32t-37.5 86zM82 150 q28 -14 58 -14q43 0 69.5 35.5t26.5 67.5q0 49 -38 49q-46 0 -74.5 -41t-41.5 -97zM156 473q0 2 2 30q0 5 12 5q5 0 25 -23q40 -44 65 -85q-2 -2 -20 -2q-16 23 -46 40q-6 4 -13 7.5t-10.5 5.5l-7 4t-4.5 4.5t-2 5.5t-1 8z" />
<glyph unicode="&#xe9;" horiz-adv-x="312" d="M16 112q0 24 10 55t30 63t57.5 54t84.5 22q40 0 63 -17.5t23 -49.5q0 -39 -36 -77t-108 -38q-33 0 -61 13q-5 -23 -5 -42q0 -42 21 -62.5t56 -20.5q45 0 92.5 31t74.5 83l24 45l11 -6l-23 -45q-32 -63 -81.5 -94.5t-102.5 -31.5q-55 0 -92.5 32t-37.5 86zM82 150 q28 -14 58 -14q43 0 69.5 35.5t26.5 67.5q0 49 -38 49q-46 0 -74.5 -41t-41.5 -97zM172 403q35 43 98 87q25 18 28 18q12 0 12 -7q-2 -14 -4.5 -23t-3.5 -14t-8 -10t-9 -6t-16 -5.5t-19 -6.5q-36 -12 -60 -38q-13 0 -18 5z" />
<glyph unicode="&#xea;" horiz-adv-x="312" d="M16 112q0 24 10 55t30 63t57.5 54t84.5 22q40 0 63 -17.5t23 -49.5q0 -39 -36 -77t-108 -38q-33 0 -61 13q-5 -23 -5 -42q0 -42 21 -62.5t56 -20.5q45 0 92.5 31t74.5 83l24 45l11 -6l-23 -45q-32 -63 -81.5 -94.5t-102.5 -31.5q-55 0 -92.5 32t-37.5 86zM82 150 q28 -14 58 -14q43 0 69.5 35.5t26.5 67.5q0 49 -38 49q-46 0 -74.5 -41t-41.5 -97zM108 403q35 43 98 87q24 18 28 18h4q6 0 26 -23q36 -41 64 -85q-2 -2 -20 -2q-14 21 -44 39t-38 18q-9 0 -44 -18t-56 -39q-13 0 -18 5z" />
<glyph unicode="&#xeb;" horiz-adv-x="312" d="M16 112q0 24 10 55t30 63t57.5 54t84.5 22q40 0 63 -17.5t23 -49.5q0 -39 -36 -77t-108 -38q-33 0 -61 13q-5 -23 -5 -42q0 -42 21 -62.5t56 -20.5q45 0 92.5 31t74.5 83l24 45l11 -6l-23 -45q-32 -63 -81.5 -94.5t-102.5 -31.5q-55 0 -92.5 32t-37.5 86zM82 150 q28 -14 58 -14q43 0 69.5 35.5t26.5 67.5q0 49 -38 49q-46 0 -74.5 -41t-41.5 -97zM122 443q0 16 13 29.5t30 13.5q13 0 22 -9t9 -21q0 -17 -14 -29.5t-30 -12.5q-13 0 -21.5 8.5t-8.5 20.5zM254 443q0 16 13 29.5t30 13.5q13 0 22 -9t9 -21q0 -17 -14 -29.5t-30 -12.5 q-13 0 -21.5 8.5t-8.5 20.5z" />
<glyph unicode="&#xec;" d="M23 52q0 27 18 113l-11 6q38 76 44 117h-18l2 12h62q12 0 12 -7q-16 -54 -34.5 -145.5t-18.5 -109.5q0 -20 15 -20q16 0 43 23t52 73l29 57l11 -6l-29 -57q-59 -114 -134 -114q-43 0 -43 58zM58 473q0 2 2 30q0 5 12 5q5 0 25 -23q40 -44 65 -85q-2 -2 -20 -2 q-16 23 -46 40q-6 4 -13 7.5t-10.5 5.5l-7 4t-4.5 4.5t-2 5.5t-1 8z" />
<glyph unicode="&#xed;" d="M23 52q0 27 18 113l-11 6q38 76 44 117h-18l2 12h62q12 0 12 -7q-16 -54 -34.5 -145.5t-18.5 -109.5q0 -20 15 -20q16 0 43 23t52 73l29 57l11 -6l-29 -57q-59 -114 -134 -114q-43 0 -43 58zM72 403q35 43 98 87q25 18 28 18q12 0 12 -7q-2 -14 -4.5 -23t-3.5 -14t-8 -10 t-9 -6t-16 -5.5t-19 -6.5q-36 -12 -60 -38q-13 0 -18 5z" />
<glyph unicode="&#xee;" d="M9 403q35 43 98 87q24 18 28 18h4q5 0 25 -23q40 -44 65 -85q-2 -2 -20 -2q-14 21 -44 39t-38 18q-9 0 -44.5 -18t-56.5 -39q-12 0 -17 5zM23 52q0 27 18 113l-11 6q38 76 44 117h-18l2 12h62q12 0 12 -7q-16 -54 -34.5 -145.5t-18.5 -109.5q0 -20 15 -20q16 0 43 23 t52 73l29 57l11 -6l-29 -57q-59 -114 -134 -114q-43 0 -43 58z" />
<glyph unicode="&#xef;" d="M23 52q0 27 18 113l-11 6q38 76 44 117h-18l2 12h62q12 0 12 -7q-16 -54 -34.5 -145.5t-18.5 -109.5q0 -20 15 -20q16 0 43 23t52 73l29 57l11 -6l-29 -57q-59 -114 -134 -114q-43 0 -43 58zM23 443q0 16 13 29.5t30 13.5q13 0 22 -9t9 -21q0 -17 -14 -29.5t-30 -12.5 q-13 0 -21.5 8.5t-8.5 20.5zM155 443q0 16 13 29.5t30 13.5q13 0 22 -9t9 -21q0 -17 -14 -29.5t-30 -12.5q-13 0 -21.5 8.5t-8.5 20.5z" />
<glyph unicode="&#xf0;" horiz-adv-x="362" d="M18 121q0 69 54 127t128 58q47 0 71 -51q-9 96 -57 181l-48 -39l-11 13l50 41q-45 71 -104 100l7 16q66 -32 122 -94l44 36l12 -13l-45 -37q93 -115 93 -248q0 -96 -56 -158q16 1 29.5 7t21.5 11.5t19.5 21.5t14.5 21.5t15 29t14 27.5l11 -6q-1 -3 -7.5 -16t-9 -17 t-9 -16.5t-10 -17t-11 -14.5t-13.5 -14.5t-14.5 -11t-17 -9.5t-19.5 -5.5t-22 -2.5h-4q-51 -47 -118 -47q-56 0 -93 36t-37 91zM74 88q0 -76 74 -76q51 0 79 34q-12 3 -12 11q0 4 3 7.5t7 3.5q3 0 13 -5q13 23 22.5 63t11.5 71q-1 34 -18.5 62.5t-53.5 28.5q-41 0 -68.5 -26 t-38.5 -64.5t-15 -64.5t-4 -45z" />
<glyph unicode="&#xf1;" horiz-adv-x="400" d="M9 0l32 165l-11 6q38 76 44 117h-18l2 12h62q12 0 12 -7q-12 -40 -24 -94q86 107 156 107q33 0 55.5 -24t22.5 -64q0 -27 -17 -92.5t-17 -84.5q0 -27 17 -27q15 0 29.5 18.5t46.5 81.5l29 57l11 -6l-28 -55q-37 -72 -57 -94t-60 -22q-47 0 -47 55q0 26 18.5 93.5 t18.5 103.5q0 42 -22 42q-31 0 -73.5 -31.5t-90.5 -98.5l-31 -158h-60zM101 406q46 89 84 89q8 0 58 -15.5t63 -15.5q16 0 27.5 10t29.5 35l17 -8q-46 -89 -83 -89q-9 0 -60.5 15t-62.5 15q-16 0 -27 -9.5t-29 -34.5z" />
<glyph unicode="&#xf2;" horiz-adv-x="362" d="M18 121q0 73 58 129t130 56q58 0 91 -36t33 -89q0 -71 -52 -128q16 1 29.5 7t22 11.5t19.5 21t14.5 22t14.5 28.5l14 28l11 -6q-1 -3 -7.5 -16t-9 -17t-9 -16.5t-10 -17t-11 -14.5t-13.5 -14.5t-14.5 -11t-17 -9.5t-19.5 -5.5t-22 -2.5h-5q-52 -47 -117 -47q-56 0 -93 36 t-37 91zM74 88q0 -76 74 -76q45 0 75 35q-8 3 -8 10q0 4 3 7.5t7 3.5q2 0 11 -4q41 64 41 158q0 66 -71 66q-40 0 -68.5 -23.5t-41 -59.5t-17.5 -64.5t-5 -52.5zM166 473q0 2 2 30q0 5 12 5q5 0 25 -23q40 -44 65 -85q-2 -2 -20 -2q-16 23 -46 40q-6 4 -13 7.5t-10.5 5.5 l-7 4t-4.5 4.5t-2 5.5t-1 8z" />
<glyph unicode="&#xf3;" horiz-adv-x="362" d="M18 121q0 73 58 129t130 56q58 0 91 -36t33 -89q0 -71 -52 -128q16 1 29.5 7t22 11.5t19.5 21t14.5 22t14.5 28.5l14 28l11 -6q-1 -3 -7.5 -16t-9 -17t-9 -16.5t-10 -17t-11 -14.5t-13.5 -14.5t-14.5 -11t-17 -9.5t-19.5 -5.5t-22 -2.5h-5q-52 -47 -117 -47q-56 0 -93 36 t-37 91zM74 88q0 -76 74 -76q45 0 75 35q-8 3 -8 10q0 4 3 7.5t7 3.5q2 0 11 -4q41 64 41 158q0 66 -71 66q-40 0 -68.5 -23.5t-41 -59.5t-17.5 -64.5t-5 -52.5zM180 403q35 43 98 87q25 18 29 18q11 0 11 -7q-1 -12 -2.5 -19.5t-4.5 -14t-4.5 -9.5t-8 -6.5t-9 -5t-13.5 -5 t-17 -5.5q-37 -13 -61 -38q-14 0 -18 5z" />
<glyph unicode="&#xf4;" horiz-adv-x="362" d="M18 121q0 73 58 129t130 56q58 0 91 -36t33 -89q0 -71 -52 -128q16 1 29.5 7t22 11.5t19.5 21t14.5 22t14.5 28.5l14 28l11 -6q-1 -3 -7.5 -16t-9 -17t-9 -16.5t-10 -17t-11 -14.5t-13.5 -14.5t-14.5 -11t-17 -9.5t-19.5 -5.5t-22 -2.5h-5q-52 -47 -117 -47q-56 0 -93 36 t-37 91zM74 88q0 -76 74 -76q45 0 75 35q-8 3 -8 10q0 4 3 7.5t7 3.5q2 0 11 -4q41 64 41 158q0 66 -71 66q-40 0 -68.5 -23.5t-41 -59.5t-17.5 -64.5t-5 -52.5zM117 403q35 43 98 87q24 18 28 18h4q5 0 25 -23q40 -44 65 -85q-2 -2 -20 -2q-14 21 -44 39t-38 18 q-9 0 -44.5 -18t-56.5 -39q-12 0 -17 5z" />
<glyph unicode="&#xf5;" horiz-adv-x="362" d="M18 121q0 73 58 129t130 56q58 0 91 -36t33 -89q0 -71 -52 -128q16 1 29.5 7t22 11.5t19.5 21t14.5 22t14.5 28.5l14 28l11 -6q-1 -3 -7.5 -16t-9 -17t-9 -16.5t-10 -17t-11 -14.5t-13.5 -14.5t-14.5 -11t-17 -9.5t-19.5 -5.5t-22 -2.5h-5q-52 -47 -117 -47q-56 0 -93 36 t-37 91zM74 88q0 -76 74 -76q45 0 75 35q-8 3 -8 10q0 4 3 7.5t7 3.5q2 0 11 -4q41 64 41 158q0 66 -71 66q-40 0 -68.5 -23.5t-41 -59.5t-17.5 -64.5t-5 -52.5zM95 405q46 89 84 89q8 0 58 -15.5t63 -15.5q16 0 27.5 10t29.5 35l17 -8q-46 -89 -83 -89q-9 0 -60.5 15 t-62.5 15q-16 0 -27 -9.5t-29 -34.5z" />
<glyph unicode="&#xf6;" horiz-adv-x="362" d="M18 121q0 73 58 129t130 56q58 0 91 -36t33 -89q0 -71 -52 -128q16 1 29.5 7t22 11.5t19.5 21t14.5 22t14.5 28.5l14 28l11 -6q-1 -3 -7.5 -16t-9 -17t-9 -16.5t-10 -17t-11 -14.5t-13.5 -14.5t-14.5 -11t-17 -9.5t-19.5 -5.5t-22 -2.5h-5q-52 -47 -117 -47q-56 0 -93 36 t-37 91zM74 88q0 -76 74 -76q45 0 75 35q-8 3 -8 10q0 4 3 7.5t7 3.5q2 0 11 -4q41 64 41 158q0 66 -71 66q-40 0 -68.5 -23.5t-41 -59.5t-17.5 -64.5t-5 -52.5zM131 443q0 16 13 29.5t30 13.5q13 0 22 -9t9 -21q0 -17 -14 -29.5t-30 -12.5q-13 0 -21.5 8.5t-8.5 20.5z M263 443q0 16 13 29.5t30 13.5q13 0 22 -9t9 -21q0 -17 -14 -29.5t-30 -12.5q-13 0 -21.5 8.5t-8.5 20.5z" />
<glyph unicode="&#xf7;" horiz-adv-x="516" d="M114 241l5 23h349l-5 -22q-17 0 -172 -0.5t-177 -0.5zM236 146q0 14 11.5 24.5t24.5 10.5q10 0 17 -7t7 -18q0 -14 -11.5 -24.5t-24.5 -10.5q-10 0 -17 7t-7 18zM276 349q0 14 11.5 24.5t24.5 10.5q10 0 17 -7t7 -18q0 -14 -11.5 -24.5t-24.5 -10.5q-10 0 -17 7t-7 18z " />
<glyph unicode="&#xf8;" horiz-adv-x="362" d="M18 121q0 73 58 129t130 56q44 0 75 -22l35 40l14 -12l-35 -40q35 -35 35 -91q0 -71 -52 -128q16 1 29.5 7t22 11.5t19.5 21t14.5 22t14.5 28.5l14 28l11 -6q-1 -3 -7.5 -16t-9 -17t-9 -16.5t-10 -17t-11 -14.5t-13.5 -14.5t-14.5 -11t-17 -9.5t-19.5 -5.5t-22 -2.5h-5 q-52 -47 -117 -47q-44 0 -75 21l-34 -39l-13 12l33 38q-41 38 -41 95zM74 88q0 -22 6 -38l185 215q-16 23 -59 23q-40 0 -68.5 -23.5t-41 -59.5t-17.5 -64.5t-5 -52.5zM89 34q19 -22 59 -22q45 0 75 35q-8 3 -8 10q0 4 3 7.5t7 3.5q2 0 11 -4q41 64 41 158q0 13 -3 25z" />
<glyph unicode="&#xf9;" horiz-adv-x="415" d="M30 171q38 76 44 117h-18l2 12h62q12 0 12 -7q-46 -152 -46 -237q0 -44 25 -44q27 0 75 37.5t100 116.5q23 118 26 134h60l-35 -180q-14 -72 -14 -83q0 -25 19 -25q22 0 74 102l29 57l11 -6l-28 -55q-38 -75 -57.5 -95.5t-59.5 -20.5q-43 0 -43 53q0 25 10 77 q-48 -64 -93 -97t-74 -33q-80 0 -80 94q0 27 10 77zM178 473q0 2 2 30q0 5 12 5q5 0 25 -23q40 -44 65 -85q-2 -2 -20 -2q-16 23 -46 40q-6 4 -13 7.5t-10.5 5.5l-7 4t-4.5 4.5t-2 5.5t-1 8z" />
<glyph unicode="&#xfa;" horiz-adv-x="415" d="M30 171q38 76 44 117h-18l2 12h62q12 0 12 -7q-46 -152 -46 -237q0 -44 25 -44q27 0 75 37.5t100 116.5q23 118 26 134h60l-35 -180q-14 -72 -14 -83q0 -25 19 -25q22 0 74 102l29 57l11 -6l-28 -55q-38 -75 -57.5 -95.5t-59.5 -20.5q-43 0 -43 53q0 25 10 77 q-48 -64 -93 -97t-74 -33q-80 0 -80 94q0 27 10 77zM194 403q35 43 98 87q25 18 28 18q12 0 12 -7q-2 -14 -4.5 -23t-3.5 -14t-8 -10t-9 -6t-16 -5.5t-19 -6.5q-36 -12 -60 -38q-13 0 -18 5z" />
<glyph unicode="&#xfb;" horiz-adv-x="415" d="M30 171q38 76 44 117h-18l2 12h62q12 0 12 -7q-46 -152 -46 -237q0 -44 25 -44q27 0 75 37.5t100 116.5q23 118 26 134h60l-35 -180q-14 -72 -14 -83q0 -25 19 -25q22 0 74 102l29 57l11 -6l-28 -55q-38 -75 -57.5 -95.5t-59.5 -20.5q-43 0 -43 53q0 25 10 77 q-48 -64 -93 -97t-74 -33q-80 0 -80 94q0 27 10 77zM130 403q35 43 98 87q24 18 28 18h4q5 0 25 -23q40 -44 65 -85q-2 -2 -20 -2q-14 21 -44 39t-38 18q-9 0 -44.5 -18t-56.5 -39q-12 0 -17 5z" />
<glyph unicode="&#xfc;" horiz-adv-x="415" d="M30 171q38 76 44 117h-18l2 12h62q12 0 12 -7q-46 -152 -46 -237q0 -44 25 -44q27 0 75 37.5t100 116.5q23 118 26 134h60l-35 -180q-14 -72 -14 -83q0 -25 19 -25q22 0 74 102l29 57l11 -6l-28 -55q-38 -75 -57.5 -95.5t-59.5 -20.5q-43 0 -43 53q0 25 10 77 q-48 -64 -93 -97t-74 -33q-80 0 -80 94q0 27 10 77zM144 443q0 16 13 29.5t30 13.5q13 0 22 -9t9 -21q0 -17 -14 -29.5t-30 -12.5q-13 0 -21.5 8.5t-8.5 20.5zM276 443q0 16 13 29.5t30 13.5q13 0 22 -9t9 -21q0 -17 -14 -29.5t-30 -12.5q-13 0 -21.5 8.5t-8.5 20.5z" />
<glyph unicode="&#xfd;" horiz-adv-x="408" d="M-30 -198q0 43 34.5 69t117 58.5t128.5 59.5l25 131q-47 -63 -91 -94.5t-73 -31.5q-80 0 -80 94q0 31 10 77l-11 6q38 76 44 117h-18l2 12h62q12 0 12 -7q-46 -152 -46 -237q0 -44 25 -44q27 0 74.5 36.5t98.5 113.5l27 138h60q-1 -6 -3.5 -17.5t-11.5 -58.5t-20 -104 l-16 -84q71 56 117 135l12 -6q-54 -90 -133 -149l-40 -210q-7 -36 -27.5 -61t-47.5 -34.5t-45 -13t-34 -3.5q-73 0 -112.5 37.5t-39.5 70.5zM-12 -198q0 -9 7 -22.5t21.5 -29.5t42 -27t63.5 -11q75 0 89 72l36 187q-39 -22 -94.5 -45.5t-86.5 -36.5t-54.5 -35.5t-23.5 -51.5 zM198 403q35 43 98 87q25 18 28 18q12 0 12 -7q-2 -14 -4.5 -23t-3.5 -14t-8 -10t-9 -6t-16 -5.5t-19 -6.5q-36 -12 -60 -38q-13 0 -18 5z" />
<glyph unicode="&#xfe;" horiz-adv-x="373" d="M-91 -279q0 115 31.5 195.5t71.5 120.5q5 27 12.5 68t11.5 63l-6 3l11 21q65 358 65 371v17q3 0 26.5 9t27.5 9h1q2 -4 2 -11v-4q0 -14 -48 -302q39 25 89 25q66 0 101 -35.5t35 -91.5q0 -69 -47 -125q13 2 23.5 5.5t20 12t15 13.5t14.5 19.5t12 19.5t12.5 24l11.5 23 l12 -6q-34 -67 -56 -89q-33 -34 -77 -35q-47 -47 -111 -47q-31 0 -49.5 8t-36.5 30q-6 8 -12 12q-65 -331 -96 -349q-1 0 -27 -0.5t-27 -0.5q-13 0 -13 27zM-79 -279q0 -3 1 -9l1 -6q24 18 85 312q-26 -33 -56.5 -114t-30.5 -183zM75 57q9 -4 19 -17q16 -20 31.5 -27 t44.5 -7q36 0 65 40q-12 3 -12 11q0 11 11 11q2 0 12 -5q12 19 23.5 56.5t11.5 71.5q0 43 -21 70t-56 27q-58 0 -92 -29q-9 -61 -37 -202z" />
<glyph unicode="&#xff;" horiz-adv-x="408" d="M-30 -198q0 43 34.5 69t117 58.5t128.5 59.5l25 131q-47 -63 -91 -94.5t-73 -31.5q-80 0 -80 94q0 31 10 77l-11 6q38 76 44 117h-18l2 12h62q12 0 12 -7q-46 -152 -46 -237q0 -44 25 -44q27 0 74.5 36.5t98.5 113.5l27 138h60q-1 -6 -3.5 -17.5t-11.5 -58.5t-20 -104 l-16 -84q71 56 117 135l12 -6q-54 -90 -133 -149l-40 -210q-7 -36 -27.5 -61t-47.5 -34.5t-45 -13t-34 -3.5q-73 0 -112.5 37.5t-39.5 70.5zM-12 -198q0 -9 7 -22.5t21.5 -29.5t42 -27t63.5 -11q75 0 89 72l36 187q-39 -22 -94.5 -45.5t-86.5 -36.5t-54.5 -35.5t-23.5 -51.5 zM148 443q0 16 13 29.5t30 13.5q13 0 22 -9t9 -21q0 -17 -14 -29.5t-30 -12.5q-13 0 -21.5 8.5t-8.5 20.5zM280 443q0 16 13 29.5t30 13.5q13 0 22 -9t9 -21q0 -17 -14 -29.5t-30 -12.5q-13 0 -21.5 8.5t-8.5 20.5z" />
<glyph unicode="&#x152;" horiz-adv-x="793" d="M40 206q0 155 86.5 265.5t231.5 110.5q121 0 164 -89q27 40 69.5 64.5t88.5 24.5q61 0 94 -27.5t33 -71.5q0 -46 -35 -95l-9 8q32 44 32 87q0 38 -29 59.5t-86 21.5q-56 0 -85 -36t-41 -103q-6 -30 -6 -55q0 -22 6 -38q30 10 67 10q25 0 42 -10t17 -25q0 -16 -19 -26.5 t-34 -10.5q-53 0 -90 31q-68 -45 -68 -160q0 -61 41.5 -95t104.5 -34q57 0 106.5 28.5t78.5 85.5l24 45l10 -6l-22 -45q-65 -126 -205 -126q-56 0 -103 22.5t-72 60.5q-42 -42 -86 -62.5t-104 -20.5q-100 0 -151 56t-51 156zM95 170q0 -77 34 -117.5t113 -40.5 q107 0 173 103q-5 18 -5 35q0 49 30 95.5t80 72.5q-29 35 -29 81q0 8 0.5 12.5t0.5 5.5q0 73 -26.5 110t-107.5 37q-61 0 -109 -29t-76 -72t-46.5 -98.5t-25 -103t-6.5 -91.5zM562 314q18 -26 65 -26q11 0 23.5 6.5t12.5 13.5q0 6 -13 11t-29 5q-32 0 -59 -10z" />
<glyph unicode="&#x153;" horiz-adv-x="559" d="M18 121q0 74 58 129.5t130 55.5q76 0 108 -60q51 60 130 60q41 0 64 -18t23 -49q0 -39 -36.5 -77t-108.5 -38q-32 0 -60 13q-6 -32 -6 -44q0 -37 16 -59t46 -22q124 0 183 114l23 45l12 -6l-24 -45q-64 -126 -194 -126q-74 0 -105 59q-56 -59 -129 -59q-56 0 -93 36 t-37 91zM74 88q0 -76 74 -76q42 0 71 29.5t40 72.5t14.5 68t3.5 40q0 66 -71 66q-41 0 -69.5 -24t-41 -60.5t-17 -64.5t-4.5 -51zM328 150q28 -14 58 -14q43 0 70 35.5t27 67.5q0 49 -39 49q-80 0 -116 -138z" />
<glyph unicode="&#x178;" horiz-adv-x="499" d="M39 162q0 76 41 189t41 161q0 58 -44 92l7 10q48 -36 68 -80.5t20 -82.5q0 -25 -20.5 -77t-41 -118t-20.5 -125q0 -119 94 -119q31 0 86.5 40t105.5 114l80 410h60l-105 -541q69 53 119 136l10 -6q-53 -88 -133 -148l-41 -211q-7 -36 -27 -61.5t-46 -36.5t-45 -15.5 t-34 -4.5q-73 0 -113.5 40t-40.5 74q0 43 35 69t117.5 58.5t129.5 59.5l29 148q-50 -69 -104.5 -106t-92.5 -37q-59 0 -97 43t-38 125zM78 -198q0 -25 35 -60.5t101 -35.5q25 0 52.5 19t35.5 59l37 188q-43 -24 -120.5 -55t-109 -54.5t-31.5 -60.5zM224 681q0 16 13 29.5 t30 13.5q13 0 22 -9t9 -21q0 -17 -14 -29.5t-30 -12.5q-13 0 -21.5 8.5t-8.5 20.5zM356 681q0 16 13 29.5t30 13.5q13 0 22 -9t9 -21q0 -17 -14 -29.5t-30 -12.5q-13 0 -21.5 8.5t-8.5 20.5z" />
<glyph unicode="&#x2c6;" horiz-adv-x="292" d="M36 403q35 43 98 87q24 18 28 18h4q6 0 26 -23q36 -41 64 -85q-2 -2 -20 -2q-14 21 -44 39t-38 18q-9 0 -44 -18t-56 -39q-13 0 -18 5z" />
<glyph unicode="&#x2dc;" horiz-adv-x="371" d="M82 406q46 89 84 89q8 0 58 -15.5t63 -15.5q16 0 27.5 10t29.5 35l17 -8q-46 -89 -83 -89q-9 0 -60.5 15t-62.5 15q-16 0 -27 -9.5t-29 -34.5z" />
<glyph unicode="&#x2000;" horiz-adv-x="373" />
<glyph unicode="&#x2001;" horiz-adv-x="747" />
<glyph unicode="&#x2002;" horiz-adv-x="373" />
<glyph unicode="&#x2003;" horiz-adv-x="747" />
<glyph unicode="&#x2004;" horiz-adv-x="249" />
<glyph unicode="&#x2005;" horiz-adv-x="186" />
<glyph unicode="&#x2006;" horiz-adv-x="124" />
<glyph unicode="&#x2007;" horiz-adv-x="124" />
<glyph unicode="&#x2008;" horiz-adv-x="93" />
<glyph unicode="&#x2009;" horiz-adv-x="149" />
<glyph unicode="&#x200a;" horiz-adv-x="41" />
<glyph unicode="&#x2010;" horiz-adv-x="432" d="M114 220l5 24h265l-5 -24h-265z" />
<glyph unicode="&#x2011;" horiz-adv-x="432" d="M114 220l5 24h265l-5 -24h-265z" />
<glyph unicode="&#x2012;" horiz-adv-x="432" d="M114 220l5 24h265l-5 -24h-265z" />
<glyph unicode="&#x2013;" horiz-adv-x="540" d="M114 241l5 23h373l-5 -22q-17 0 -184 -0.5t-189 -0.5z" />
<glyph unicode="&#x2014;" horiz-adv-x="828" d="M114 241l5 23h661l-5 -22q-17 0 -328 -0.5t-333 -0.5z" />
<glyph unicode="&#x2018;" d="M102 465q0 21 23.5 54t25.5 43l12 -2q-2 -17 -10.5 -35.5t-8.5 -23.5q0 -8 9 -20.5t10 -15.5q-2 -12 -13 -21t-23 -9q-25 0 -25 30z" />
<glyph unicode="&#x2019;" horiz-adv-x="194" d="M108 436q2 17 10.5 35.5t8.5 23.5q0 8 -9 20.5t-10 15.5q2 12 13 21t23 9q25 0 25 -30q0 -21 -23.5 -54t-25.5 -43z" />
<glyph unicode="&#x201a;" horiz-adv-x="133" d="M36 45q2 12 13 21t23 9q25 0 25 -30q0 -21 -23.5 -54t-25.5 -43l-12 2q2 17 10.5 35.5t8.5 23.5q0 8 -9 20.5t-10 15.5z" />
<glyph unicode="&#x201c;" horiz-adv-x="296" d="M114 465q0 21 23.5 54t25.5 43l12 -2q-2 -17 -10.5 -35.5t-8.5 -23.5q0 -8 9 -20.5t10 -15.5q-2 -12 -13 -21t-23 -9q-25 0 -25 30zM210 465q0 21 23.5 54t25.5 43l12 -2q-2 -17 -10.5 -35.5t-8.5 -23.5q0 -8 9 -20.5t10 -15.5q-2 -12 -13 -21t-23 -9q-25 0 -25 30z" />
<glyph unicode="&#x201d;" horiz-adv-x="296" d="M114 436q2 17 10.5 35.5t8.5 23.5q0 8 -9 20.5t-10 15.5q2 12 13 21t23 9q25 0 25 -30q0 -21 -23.5 -54t-25.5 -43zM210 436q2 17 10.5 35.5t8.5 23.5q0 8 -9 20.5t-10 15.5q2 12 13 21t23 9q25 0 25 -30q0 -21 -23.5 -54t-25.5 -43z" />
<glyph unicode="&#x201e;" horiz-adv-x="229" d="M36 45q2 12 13 21t23 9q25 0 25 -30q0 -21 -23.5 -54t-25.5 -43l-12 2q2 17 10.5 35.5t8.5 23.5q0 8 -9 20.5t-10 15.5zM132 45q2 12 13 21t23 9q25 0 25 -30q0 -21 -23.5 -54t-25.5 -43l-12 2q2 17 10.5 35.5t8.5 23.5q0 8 -9 20.5t-10 15.5z" />
<glyph unicode="&#x2022;" horiz-adv-x="235" d="M93 236q0 29 24 49.5t49 20.5q21 0 35 -14.5t14 -35.5q0 -29 -24 -49.5t-49 -20.5q-21 0 -35 14.5t-14 35.5z" />
<glyph unicode="&#x2026;" horiz-adv-x="428" d="M36 7q0 14 11.5 24.5t24.5 10.5q10 0 17 -7t7 -18q0 -14 -11.5 -24.5t-24.5 -10.5q-10 0 -17 7t-7 18zM156 7q0 14 11.5 24.5t24.5 10.5q10 0 17 -7t7 -18q0 -14 -11.5 -24.5t-24.5 -10.5q-10 0 -17 7t-7 18zM276 7q0 14 11.5 24.5t24.5 10.5q10 0 17 -7t7 -18 q0 -14 -11.5 -24.5t-24.5 -10.5q-10 0 -17 7t-7 18z" />
<glyph unicode="&#x202f;" horiz-adv-x="149" />
<glyph unicode="&#x2039;" horiz-adv-x="235" d="M60 168q0 4 2.5 7.5t5 6.5t8 8t8.5 8q53 57 99 84q3 -4 3 -18q-24 -18 -53 -51.5t-30 -40.5q0 -7 18.5 -39t38.5 -50q0 -15 -4 -19q-38 32 -76 76q-20 23 -20 28z" />
<glyph unicode="&#x203a;" horiz-adv-x="234" d="M74 82q24 18 53 51.5t30 40.5q0 7 -18.5 39t-38.5 50q0 15 4 19q38 -32 76 -76q19 -22 19 -28q0 -8 -22 -30q-52 -56 -100 -84q-3 4 -3 18z" />
<glyph unicode="&#x205f;" horiz-adv-x="186" />
<glyph unicode="&#x20ac;" horiz-adv-x="530" d="M42 199l4 23h44q1 25 6 49h-42l4 23h43q27 123 90.5 186.5t179.5 63.5q65 0 99 -33t34 -72h-18q0 32 -28.5 59.5t-86.5 27.5q-54 0 -90.5 -15t-59.5 -48.5t-35.5 -70.5t-24.5 -98h163l-6 -22q-5 0 -63.5 -0.5t-97.5 -0.5q-3 -9 -7 -49h162l-6 -22q-4 0 -61.5 -0.5 t-95.5 -0.5q0 -56 13.5 -95.5t36.5 -58t45 -26t46 -7.5q125 0 185 117l16 -9q-33 -65 -86.5 -95.5t-114.5 -30.5q-107 0 -154 58.5t-47 146.5h-47z" />
<glyph unicode="&#xe000;" horiz-adv-x="305" d="M0 0v305h305v-305h-305z" />
</font>
</defs>
</svg>
