<?xml version="1.0" standalone="no"?>
<!DOCTYPE svg PUBLIC "-//W3C//DTD SVG 1.1//EN" "http://www.w3.org/Graphics/SVG/1.1/DTD/svg11.dtd" >
<svg xmlns="http://www.w3.org/2000/svg">
<metadata></metadata>
<defs>
<font id="copystructnormal" horiz-adv-x="740" >
<font-face units-per-em="1000" ascent="800" descent="-200" />
<missing-glyph horiz-adv-x="357" />
<glyph horiz-adv-x="1000" />
<glyph horiz-adv-x="1000" />
<glyph unicode="&#xd;" horiz-adv-x="357" />
<glyph unicode=" "  horiz-adv-x="357" />
<glyph unicode="&#x09;" horiz-adv-x="357" />
<glyph unicode="&#xa0;" horiz-adv-x="357" />
<glyph unicode="!" horiz-adv-x="295" d="M17 613q0 -4 -10 -10l-1 9q0 7 3 7q8 0 8 -6zM7 596q2 -1 2 -5q0 -7 -9 -22q0 9 -1 18q1 13 8 9zM231 732q1 -28 -7 -88l-13 -14v21q-24 -2 -24 -5q1 -1 3 -2h-7q3 -3 3.5 -13.5t3.5 -13.5h21q1 -8 -4 -13.5t-3 -14.5h13q1 -6 7 -20q2 -11 2 -22q0 -45 -49 -87v-13 q8 0 27 -7q-1 -9 -1 -20q0 -15 3 -45t3 -45q0 -22 -5 -39l-21 -14q0 -5 1 -6t6 -1q4 1 7 0q-3 -27 -14 -88q8 0 8 -27t-8 -27q2 -11 7 -48v-13q-9 -5 -9 -10q0 -2 2 -4q-36 -4 -54 -7q-9 18 -20 48q2 36 -7 108q14 9 27 21q-2 3 -9.5 3.5t-10.5 3.5l-21 47q0 8 7.5 30.5 t6.5 37.5q-9 29 -21 75q-3 22 7 163q-14 6 -13 6q-1 13 -1 39q0 27 1 16v23t-14 11q2 7 7 7q11 -1 13 0q-2 24 -6 81q8 9 20 20q5 1 8 1q5 0 11.5 -4t14.5 -3q2 0 27 10t34 10q11 0 41 -7q-1 -8 -2 -27v-30q1 -13 2 -4zM9 545q0 -7 -9 -17q0 -1 -1 13q0 9 4 9q2 0 4 -1t2 -4 zM14 522q0 -20 -3 -59q-4 -46 -4 -50q0 19 3 59q4 46 4 50zM23 395q0 -3 -9 -9l-1 8q0 6 3 6q2 0 4.5 -1t2.5 -4zM23 361q0 -6 -9 -16q0 1 -1 7t0 10q0 4 3 4q7 0 7 -5zM30 327q0 -4 -10 -9v9q0 5 3 5q7 0 7 -5zM98 239q0 -4 -10 -9v8q0 6 3 6q7 0 7 -5zM23 300q0 -6 -9 -16 q0 1 -1 7t0 10q0 4 3 4q7 0 7 -5zM95 175q-8 0 -8 17q0 19 8 17v-34zM91 158q0 -4 -10 -10v9q0 6 3 6q7 0 7 -5zM34 189q3 -1 3 -5q0 -8 -10 -22q0 9 -1 18q1 13 8 9zM109 -35q-9 0 -9 27t9 27v-54zM211 -62q0 -18 2 -46.5t2 -38.5q0 -27 -11 -39q-14 -14 -50 -14 q-14 0 -32 2q-17 2 -27 0q-5 36 -14 115q-23 3 -33 7h54l-1 13q0 5 8 7v-13q34 12 102 7zM7 5q2 -1 2 -5q0 -7 -9 -22q0 9 -1 18q1 13 8 9zM14 -69q-9 0 -9 18t9 16v-34zM122 732l1 10q0 4 -8 4zM149 535q0 1 1 10q1 4 -7 4z" />
<glyph unicode="&#x22;" horiz-adv-x="294" d="M226 817q-6 0 -6 19q0 18 6 18v-37zM221 808q2 -1 2 -6q0 -9 -6 -27q0 35 4 33zM124 868q2 -1 2 -2q0 -3 -7 -7v7q0 4 5 2zM73 864q2 -1 2 -2q0 -3 -7 -8v8t5 2zM212 743q-3 -1 -14 0v-28q0 -15 -9 -19q6 -6 9 -14q-4 -2 -42 -4q8 -2 -18 -5q-4 4 -10 9q-2 7 -2 17 q0 11 3.5 36t3.5 36q3 1 10 4.5t18 4.5q-1 3 -14 14q4 14 19 37q5 1 14 5l23 -9q0 -41 -5 -79q5 0 14 -5zM84 843q0 -3 -7 -7v6q-1 4 1 4q6 0 6 -3zM119 827q0 -13 -2 -37q-2 -27 -3 -10q0 8 2.5 27t2.5 20zM73 682l-38 -14q-9 4 -28 10q0 23 -2 54q-2 39 -2 53q21 12 21 13 q0 6 -17 10q-1 5 0.5 14.5t-0.5 13.5q3 0 20.5 4.5t21.5 4.5q8 -1 24 -4q-11 -89 0 -159z" />
<glyph unicode="#" horiz-adv-x="345" d="M233 468q8 -1 9 -3q-2 -1 -12 -2q2 5 3 5zM246 450q3 -2 -3 -9v6q0 4 3 3zM238 431q3 0 -3 -8q-4 8 3 8zM241 423q3 -2 -3 -17q0 18 3 17zM176 466q4 -2 -3 -6v5q0 2 3 1zM216 425q4 -1 -2 -8q0 10 2 8zM272 353l1 -2l-3 1v8q-4 3 -2 3q7 -3 8 -6q-2 -1 -3 -2t-1 -2z M152 441q-10 -1 -10 2t7 4q5 -1 9 -2q0 -2 -6 -4zM233 347q3 -2 -3 -8q0 9 3 8zM230 333q4 -2 -3 -5v4q1 1 3 1zM227 317q4 -2 -3 -16v10q1 7 3 6zM224 296q4 -2 -2 -6q0 7 2 6zM268 374q-16 -4 -33 -9q-26 -7 -32 -5q0 3 -6 6q7 -3 0 -27q-2 -1 -2 -27q4 1 -3 8v-6 q0 -22 3 -35q6 1 16 0q0 -6 11 -5q9 5 13 3v-8q-2 1 -2 -9q2 0 12.5 -2.5t11.5 -2.5h-19q1 -5 -3 -11q-10 3 -29 3l-6 -6h-11q1 -1 -2 -5v4q-1 3 -3 1l-3 -45q-2 0 -3 0.5t0 -0.5q1 0 -2 -3q0 3 1 4q0 -6 -1 -28q0 -10 -3 -28l-4 -4l-4 -4q0 -1 0.5 -4.5t-0.5 -5.5h-35 q1 2 -3 5q3 26 11 84l5 5v22l-1 -7.5t-1 -11.5l-6 24q-19 -1 -36.5 -4t-19.5 -23q2 -7 2 -21q0 -1 -3.5 -12.5t-4.5 -14.5h-3q0 -14 -2 -41q-2 -2 -6 -5q-10 -4 -13 5q-4 -1 -14 3q-10 8 0 62l7 37q0 17 -42 14q7 12 7 14q0 4 -7 8q1 7 0 8q29 -2 46 3q9 39 14 75 q-1 1 -3 11q-14 -1 -41 3q-2 4 -8 8v22q30 0 49 -6q2 5 13 24q-1 13 0 38l6 6q6 26 5 32h27v6q-18 -3 -19 -3q-1 8 3 30h32q-1 -13 -5 -46l-5 -6q-1 -3 0 -10.5t0 -10.5l-6 -3q-1 -6 3 -51h19v16q4 -15 8 -16h22q-1 12 0 13q3 -5 2 -8l6 5q2 6 5 11q-6 2 -5 8q2 10 2 11 q-2 12 -2 16q2 -1 2 -11q3 4 6 14h8l-8 13q-3 2 3 11h5q-6 4 3 33q4 1 9.5 1.5t9.5 0.5q-3 2 -9 3v6q17 -4 18 -5q2 -3 -1 -17h2q0 -7 -2 -16q-1 -1 -0.5 -6l0.5 -5q-1 -1 -8 0l-3 -11h11q-2 -14 -4 -19q-2 -8 -10 -13v-3q8 -4 8 -27q33 -3 44 -3q-1 -5 -6 -19q2 0 3 6h8 q-1 -12 0 -11q4 1 11 0zM216 241q4 -1 -2 -16q0 18 2 16zM214 220q3 -2 -3 -11q0 12 3 11zM181 163h16h-16zM135 212q4 -2 -2 -11q0 12 2 11zM108 236q4 -2 -2 -16q0 17 2 16zM133 196q3 -2 -3 -19q0 20 3 19zM103 206q4 -2 -3 -16q0 18 3 16zM103 177q4 -2 -3 -6v5q0 2 3 1 zM111 169q3 -1 2 -3t-5 -3q2 6 3 6zM203 504q2 1 5 1q-1 3 -5 4v-5zM195 323q-2 5 -3 5zM154 314q-2 26 0 46q-24 3 -46 3q-3 -3 -8 -11q6 -3 6 -5q-1 -1 -9 0q-2 -14 -5 -38q-3 -35 14 -35q6 0 21 5q1 -1 3 -5t3 -5h5q1 2 2.5 5.5t2.5 4.5h6l-3 25h6q-3 1 -3 16q4 -3 5 -6z M41 377q-2 5 -3 5zM30 382q3 6 -8 5q3 0 8 -5zM122 331q4 -2 -3 -19q0 20 3 19zM119 296q-4 0 -3 7q0 7 3 6q-1 -3 0 -13zM116 290q4 -2 -2 -5q0 6 2 5z" />
<glyph unicode="$" horiz-adv-x="538" d="M333 541q3 -1 3 -3q0 -4 -8 -8v9t5 2zM291 514q-7 0 -6 14q0 15 6 13v-27zM291 398q2 -1 2 -3q0 -5 -7 -13q0 19 5 16zM476 102q2 -1 2 -6q0 -10 -7 -31q0 40 5 37zM471 149q-3 -13 -11 -42q-6 -25 -21 -64q-10 -7 -26 -21q-3 -12 -16 -32q-7 -2 -16 -5q-5 -9 -21 -26 q-28 -18 -85 -32q-1 -3 -5.5 -6.5t-4.5 -4.5q-3 -7 5 -37q-13 -2 -11 -21l11 -10q-2 -9 -3 -9t-2 3q-7 -28 0 -31q-6 0 -17 -1t-15 -1q-29 0 -27 49q0 2 3 25t3 33l-96 32q-55 19 -84 42q-1 9 -6 22q-4 3 -14 3.5t-12 6.5q1 7 0 16q16 14 37 42q6 7 16 22q24 -12 69 -43 q2 -7 5 -16q15 -7 44 -7q50 2 41 2q2 16 2 35q0 16 -2 50t-2 51q0 21 2 39q0 3 4.5 13t4.5 17q0 9 -4 17q-7 16 -43 28q-46 17 -52 20q-53 33 -74 90l-11 5q-5 14 0 37q0 22 0 16q0 1 -5.5 3l-5.5 2q-13 38 6 101q6 21 37.5 66.5t46.5 55.5q6 4 56 16q38 9 43 28q-2 18 2 56 l16 16q37 -5 37 -23q0 -4 -1.5 -13t-1.5 -14q0 -16 13 -29q10 -10 32 -14q30 -5 37 -8q9 -10 27 -21q5 -1 11 3t9 4t6 -1l16 -27q9 -2 26 -10q-3 -12 -15 -37q-11 -14 -32 -43q-77 36 -98 36q-23 0 -29 -20q-3 -9 -3 -20t3 -32.5t3 -31.5q0 -13 -3 -22q-5 -1 -16 -5v-11 q1 1 2 1q6 0 7 -35q1 -38 2 -40q3 -9 25 -16q16 -5 33 -10q0 -5 0 13q0 6 5 8q-1 -9 0 -26q3 -7 20.5 -12.5t21.5 -9t7.5 -15.5t8 -15.5t13.5 -1.5q10 2 14 1q1 -6 5 -16q9 -2 21 -11q-1 -9 0 -26q9 -12 21 -32q3 -11 2.5 -32.5t1 -30t7.5 -6.5zM474 19q0 -3 -8 -7v7 q-1 4 2 4q6 0 6 -4zM460 -4q2 -1 2 -4q0 -4 -7 -12q0 -2 0 11q0 7 5 5zM148 281q2 -1 2 -4q0 -6 -7 -17q0 24 5 21zM323 -126q2 -1 2 -3q0 -6 -8 -18v14q0 10 6 7zM323 -184q2 -1 2 -3q0 -4 -8 -13v11q0 8 6 5zM280 -147q2 -1 2 -3q0 -5 -7 -13q0 -2 0 11q0 8 5 5zM217 604 h-21q-13 -9 -32 -21q-3 -1 -10.5 0t-10.5 0q2 -28 0 -26q-18 -70 -18 -76q0 -22 23 -56.5t42 -34.5q28 0 28 108q0 117 -1 106zM344 70q20 27 20 76q0 64 -31 88q-11 8 -27 12q-26 7 -31 9q-1 -3 -5.5 -6.5t-4.5 -4.5q-5 -15 -5 -31q0 -14 5 -37t5 -32q0 11 -11 -53v-42 q6 -2 6 -3q-1 -5 0 -8l15 -5v16q0 9 6 10l5 -21q22 10 53 32zM323 123q2 -1 2 -5q0 -9 -8 -27v20q0 14 6 12zM288 136q0 -3 -8 -8v7q-1 5 2 5q6 0 6 -4zM286 80q-7 0 -7 14q1 15 7 13v-27z" />
<glyph unicode="%" horiz-adv-x="624" d="M526 615q0 -5 -9 -10l-1 9q0 6 3 6q7 0 7 -5zM503 585q-6 -1 -7 2t1.5 7t5.5 5q8 2 8 -1q0 -4 -8 -13zM459 467q0 -4 -9 -9l-1 8q-1 6 3 6q7 0 7 -5zM412 474q0 -5 -9 -10l-1 9q0 6 3 6q7 0 7 -5zM302 545q3 -1 3 -7q0 -11 -10 -33v25q0 18 7 15zM419 387q0 -4 -10 -10 q0 -1 0 9q0 6 3 6q7 0 7 -5zM298 474q0 -5 -9 -10l-1 9q0 6 3 6q7 0 7 -5zM406 354q0 -5 -10 -10l-1 9q0 6 3 6q8 0 8 -5zM248 693q6 -24 6 -52q0 -46 -15 -95q-13 -44 -31.5 -69t-36.5 -32q-13 -5 -57 -7v-14q-7 0 -7 4q1 8 0 10q-10 -1 -33 0q-11 2 -36.5 22.5t-30.5 30.5 q-13 29 -13 153q0 60 6 75q12 9 27 27v20q4 5 16.5 5t16.5 2q13 11 34 27q43 1 47 0l20 -20q10 1 34 -7q7 -4 8 -14q1 -13 5 -19q18 -17 40 -47zM242 505q3 -1 3 -7q0 -11 -10 -34q0 45 7 41zM292 427q0 -4 -10 -10l-1 9q0 7 3 7q8 0 8 -6zM550 780q-2 -4 -9.5 -4.5 t-10 -2.5t-2.5 -4q0 -4 9 -9q-4 -2 -5 -8q-1 -10 -2 -12h-33l20 -41h-7q-15 -32 -47 -107q0 -1 -6.5 -3.5t-6.5 -3.5q2 -11 0 -33q-15 -12 -34 -34q0 -11 -7 -33l-13 -7q-2 -7 3 -16t4 -11q-11 -6 -27 -20q1 -10 0 -27q-12 -10 -27 -27q-3 -18 -13 -54l-14 -6 q-4 -19 -20 -61q-11 -11 -27 -33q-5 -10 -6.5 -27.5t-6.5 -26.5l-27 -20q1 -10 0 -27l-27 -54h-13q1 -10 0 -26q-12 -12 -27 -34q2 -10 0 -27q-21 -27 -47 -67q2 -7 0 -20q-13 -10 -27 -27q2 -11 0 -27q-9 -14 -30.5 -18.5t-43.5 -8.5q1 4 -3.5 12t-4.5 15q0 3 1 7 q10 2 21 7v27q19 4 47 13q2 8 13 20q-5 11 -6 11q-11 2 -14 3v26q9 13 20 34q-2 12 0 33q2 6 17 21t17 20q0 16 6 47q5 10 24 31t23 29q2 5 1 17q-2 12 -1 17q11 12 27 33q10 34 40 101q9 4 20 13q4 13 14 41h13q-1 9 0 26q3 9 24.5 41.5t22.5 39.5q-1 8 0 20q3 5 17.5 10.5 t16.5 9.5t27 74q1 8 -3.5 13t-4.5 8t1 6q10 5 20 13q-2 11 0 34q15 18 34 47q1 2 6 37q3 17 21 23q10 3 33 2q36 -2 34 -2q2 -4 6 -13zM174 370q6 0 -6 -6q29 2 41.5 3.5t5.5 2.5h-41zM325 192q0 -4 -10 -9v8q0 6 3 6q7 0 7 -5zM564 -32q-25 -5 -27 -7q-2 -10 0 -27l20 -6 q-20 -62 -24 -68t-50 -40q-5 -10 -13 -20q-12 -3 -35 -1q-27 2 -39 1q-2 11 -13 27q-6 3 -30 8q-18 3 -23.5 11t-6 25.5t-1.5 22.5l-13 13q-9 35 -9 83q0 62 15 92q4 8 20.5 21t20.5 19q-1 8 6 20q8 5 24.5 5t22.5 2q3 6 14 13q20 2 47 -6l40 -14q-1 -9 7 -27q3 -3 17 -9.5 t16 -16.5q-1 -10 0 -27l14 -7q2 -15 -0.5 -42t0.5 -45zM265 78q0 -4 -10 -10l-1 9q0 6 3 6q8 0 8 -5zM215 -19l-7 -13q0 1 -6.5 7t-6.5 9t6 4q7 1 9.5 -2t4.5 -5zM184 -30q0 -4 -10 -9v9q0 5 3 5q7 0 7 -5zM148 726q7 -2 7 4q0 13 -14 16q3 -9 7 -20zM181 659 q0 3 -12.5 19.5t-14.5 20.5v14q-8 7 -24 9q-23 2 -29 4q-24 -37 -30 -65q-4 -18 -4 -69q-2 2 -8.5 -4t-6.5 -12q0 -2 2 -4q10 -9 20 -47q15 -14 44 -14t43 14q11 47 7 20h6q1 8 -3 29q-4 25 -4 37q0 8 1 15q0 1 7 13t6 20zM497 28q-8 -8 -7 -20h-7q-5 43 -13 74q2 0 -31 2 q-20 1 -30 -2q-39 -11 -39 -103q0 -81 33 -98q10 -5 25 -5q21 -1 28 -2q15 17 34 47q6 21 7 52v55zM114 -46l-7 -20q20 3 20 14q0 7 -13 6zM107 558q3 -1 3 -7q0 -11 -9 -33q0 -2 -1 15q-1 13 0 19q2 9 7 6zM396 -26q-8 0 -8 27t8 27v-54z" />
<glyph unicode="&#x26;" horiz-adv-x="941" d="M913 -180q-10 -2 -20 -7q-3 -1 -6 -1q-4 0 -8.5 4.5t-12.5 3.5q-2 0 -11.5 -6t-15.5 -7q-1 1 -13 20q-10 2 -21 -3t-14 -5q-12 0 -29 26q-20 33 -24 36q-16 9 -47 33q-22 -21 -67 -54q-15 -3 -47 -13q-6 -10 -20 -20q-8 -2 -28.5 4t-31.5 3q-8 -3 0 -21q-4 -1 -6 -1 q-4 0 -6.5 4.5t-7.5 3.5q-2 0 -19.5 -10t-21.5 -10q-16 -2 -32 4q-11 5 -21 9q-17 -2 -47 0q-16 12 -41 27q-9 -2 -27 0q-1 9 -6 20q-34 8 -74 21q14 22 10 22q-1 -1 -3 -2v13q-58 48 -67 87q2 16 0 47q-6 12 -7 20l-14 7l1 -8q0 -7 -3 -7l-4 2q0 19 6 60l14 14q-2 16 0 47 q11 17 27 47q0 11 6 33q7 11 30.5 28t30.5 26q4 12 20 33q11 7 30 12q26 7 30 8q-5 25 -27 74q-11 8 -26 27q-4 11 -3.5 33.5t-3.5 33.5q0 1 -10 7t-10 7q-2 13 4 25q5 7 9 15q-5 3 0 34q3 -2 5 -2q1 0 1 1q0 2 -13 14h14q4 23 20 67q16 25 69 59q58 35 92 35q3 0 20.5 -6.5 t19.5 -6.5q27 3 74 0l27 -27q4 -7 5 -23q0 -12 8 -18q14 3 34 7q42 -64 47 -154q-1 0 -6.5 4t-6.5 3q5 -10 20 -21q2 -10 0 -33q-3 -14 -21 -29q-22 -19 -26 -25q1 -10 0 -27q-2 -5 -12 -8q-13 -3 -15 -5q-8 -15 -27 -40q-19 -7 -47 -27q-4 -5 -4 -16q0 -6 -3 -11 q8 -4 20 -14q7 -19 27 -60l14 -7q2 -8 -7 -26q6 -6 23.5 -8.5t25 -6.5t12 -20.5t6.5 -18.5q7 1 20 0q10 -4 26 -31q11 -18 21 -36h27q0 10 7 33q5 9 26.5 29.5t27.5 31.5q2 14 0 20q5 11 13 27q37 0 47 -2q20 -5 33 -25q8 -12 8 -38q0 -39 -14 -63q-4 -7 -23.5 -16.5 t-23 -15.5t-1.5 -18t1 -17q-8 -13 -20 -34l-2 6q-3 0 1 -34t7 -39q9 1 21 0q8 -3 44 -60q29 -47 43 -74zM195 438q-8 0 -8 27q0 26 8 26v-53zM107 505q3 -1 3 -4q0 -6 -9 -16q0 1 -0.5 8.5t0.5 9.5q1 4 6 2zM110 434q0 -4 -9 -10l-1 9q0 6 3 6q7 0 7 -5zM116 407 q0 -6 -9 -16q0 -1 -1 12q0 9 4 9q6 0 6 -5zM157 326q0 -3 -9 -9l-1 8q0 6 3 6q2 0 4.5 -1t2.5 -4zM110 145q0 -4 -9 -9l-1 8q0 6 3 6q7 0 7 -5zM43 212q0 -4 -9 -9l-1 8q0 6 3 6q7 0 7 -5zM101 95q-8 0 -8 17q0 19 8 17v-34zM20 162q3 -1 3 -5q0 -7 -10 -21v17q0 12 7 9z M116 51q0 -6 -9 -16q0 -1 -1 12q0 9 4 9q6 0 6 -5zM9 111q0 -6 -9 -16q0 -1 -1 13q0 8 4 8q6 0 6 -5zM27 21q-8 0 -8 17q0 19 8 17v-34zM544 565q4 4 -13 44.5t-21 42.5v7q-5 4 -40 13t-47 7q-10 -8 -27 -20q-31 -19 -32 -20q-18 -14 -22 -27t-4 -27q0 -47 37 -91 q34 -40 61 -36l14 13q66 27 80 54q-1 10 0 27q6 6 14 13zM604 1q2 12 0 34l-7 7q-9 7 -33 40q-12 -16 -14 -14q2 11 0 27q-3 9 -23 22.5t-24 18.5q-1 10 -6 26q-6 9 -24 22t-23 19q-2 2 -27 45q-19 30 -34 35q-7 2 -33 0q-5 0 -54 -27v-13q-38 -36 -51 -56q-25 -38 -25 -84 q0 -14 2 -28l14 -33q-2 -12 0 -34q1 -3 9 -4t11 -3q4 -11 13 -27q8 1 20 0v-13q12 -2 41 -13q57 -29 92 -29q13 0 28 2q56 9 148 80zM433 501q0 -4 -10 -10q0 -1 0 9q0 6 3 6q7 0 7 -5zM486 125q0 -4 -9 -10l-1 9q0 6 3 6q7 0 7 -5zM365 212q0 -4 -9 -9v9q-1 5 2 5q7 0 7 -5 zM537 42q2 -1 2 -4q0 -7 -9 -17q0 7 -1 15q1 9 8 6zM547 4q0 -4 -10 -9v8q0 6 3 6q7 0 7 -5zM389 48q3 -1 3 -4q0 -6 -9 -16q0 -1 -1 9q-1 6 0 9q2 5 7 2z" />
<glyph unicode="'" horiz-adv-x="234" d="M150 658q-9 -2 -16.5 3t-13.5 3q-1 -4 0 -17h-17v-6q-14 3 -30 6q0 51 12 106q11 0 35 5v12q-3 2 -23 -6q-2 25 -18 59q21 16 30 18q7 2 22 -1q10 -3 19 -5q2 -31 -6 -88h-24v-12l22 -30q3 -7 8 -47zM32 694q-5 -1 -6 2q-1 2 1 5t5 4q11 2 11 -1q0 -2 -5 -6t-6 -4z M26 705q-5 2 -11 4q-9 4 -9 6q1 2 9 2t9 -1q0 -1 -1 -5q0 -4 3 -6zM58 655q0 -5 -8 -14l-1 10q0 8 3 8q2 0 4 -1t2 -3zM-1 691q0 -4 -8 -9v8q-1 5 2 5q6 0 6 -4zM97 664v9q1 3 -6 3z" />
<glyph unicode="(" horiz-adv-x="296" d="M255 640q0 -6 -8 -15l-1 11q0 8 3 8q2 0 4 -1t2 -3zM235 601q2 -1 2 -4q0 -5 -8 -14q-1 -4 -1 13q0 8 7 5zM196 459q0 -3 -9 -8l-1 8q0 5 3 5q7 0 7 -5zM189 435q0 -3 -8 -8l-1 8q0 5 3 5q2 0 4 -1t2 -4zM151 402q10 2 15 2q10 0 -21 -20q-2 6 -4 13.5t-1 11.5q0 6 5 5 q3 -5 6 -12zM169 360q-22 -3 -22 4q0 4 6 9t10 5zM141 381q0 -4 -8 -9q0 13 2 13q6 0 6 -4zM175 360q2 -1 2 -6q0 -10 -8 -30q0 39 6 36zM169 282q2 -1 2 -4q0 -5 -8 -14q0 -1 -1 8q-1 6 0.5 9t6.5 1zM229 -200q-13 -5 -42 0v6q-2 1 -28 35.5t-26 36.5q2 9 0 24h-13l-36 55 q-3 11 -1 28t1 20q-13 13 -30 36q2 10 0 30q-11 12 -24 30q-2 7 -5 57q0 6 -1 8.5t-10 11.5t-8 20l6.5 7t5.5 17q-1 7 -18 24q-2 2 6 18q6 -1 8 -1v0q-6 1 -6 3q1 2 4 4q1 12 -3.5 43.5t-2.5 52.5l12 6l-5 10q-3 6 -1 14q9 5 18 12q1 12 -6.5 25.5t-5.5 29.5q0 3 36 54 q-3 10 -6 30q1 16 23 70q20 50 31 69q21 26 61 78q16 -8 18 -6v30q8 5 18 12q1 -1 30 -6q-3 -15 -12 -42q-8 -4 -18 -12q4 -6 6 -24l-12 -12q-3 -9 -12 -31h-12q8 0 8 -11q0 -13 -10 -38q-8 -21 -10 -23q-5 -3 -15 -3t-15 -3q-2 -5 0 -18l18 -12q-5 -42 -25 -108l-10 6 q-6 3 -14 0q1 -1 6 -18h18v-18h7q2 -8 2 -16q0 -16 -10 -36t-11 -27q-4 -33 6 -126q8 -24 6 -30q0 -1 -8 -11.5t-10 -13.5q5 -2 25 -12q-6 -11 -19 -36q11 -6 25 -18q1 -3 2 -5q0 -3 -4.5 -6t-3.5 -7q0 -1 9 -6t9 -6q4 -12 3.5 -36.5t2.5 -35.5q8 -12 18 -30q9 -36 24 -97 q-6 -3 -10 -6t-8 -12q32 -1 39 -9q1 -2 15 -45zM169 240q2 -1 2 -4q0 -5 -8 -14q0 -1 -1 8q-1 6 0.5 9t6.5 1zM169 204q2 -1 2 -4q0 -5 -8 -14q0 -1 -1 8q-1 6 0.5 9t6.5 1zM171 152q0 -4 -8 -9q0 1 -1 8q0 5 3 5q6 0 6 -4zM190 80q0 -4 -9 -9l-1 8q0 5 3 5q7 0 7 -4z M193 59q2 -1 2 -4q0 -5 -8 -14q-1 -4 -1 13q0 8 7 5zM214 -10q0 -4 -9 -9l-1 8q0 5 3 5q7 0 7 -4zM217 -25q2 -1 2 -4q0 -5 -8 -14q-1 -3 -1 12q0 9 7 6zM223 -73h6q-2 -1 -7.5 -3t-10.5 -4q1 6 2.5 13t9.5 6v-12zM84 499q3 -1 3 -3t-15 -3q2 -4 6 -18q22 7 22 14 q0 6 -16 10zM108 427q0 1 1 9q-4 2 -7 3q-14 -2 -14 -7q0 -6 20 -5z" />
<glyph unicode=")" horiz-adv-x="341" d="M266 389q0 -3 -9 -8v8q-1 5 2 5q7 0 7 -5zM281 357q2 -1 2 -4q0 -5 -8 -14v13q0 8 6 5zM284 264q0 -4 -9 -9q1 1 0 8q0 5 3 5q1 0 3.5 -1t2.5 -3zM234 249q-1 -9 -14.5 -34t-15.5 -32q-4 -17 -3 -53.5t-3 -54.5q-11 -14 -24 -35q0 -13 -6 -42q-3 -10 -18 -28.5t-18 -25.5 q1 -9 0 -24q-8 -4 -18 -12q-17 -29 -33 -58q-20 -32 -45 -44v-6q-12 1 -36 0q-1 14 6 42q8 4 18 12q0 14 6 42q8 3 18 12q6 10 12 36q3 24 12 78q11 21 24 53q-2 15 0 42l12 6q-2 10 0 30q2 4 9 4t10.5 3t3.5 6q0 4 -11 8q-6 1 -12 3q1 23 5 69q5 42 5 66q0 26 -4 51 q8 0 8 4q0 2 -4 5.5t-4 2.5q7 41 6 48q-5 3 -12 6v36h-6q1 14 0 42q-8 19 -18 47q3 13 6 18v6q-1 2 -12 12q2 15 0 42q-11 10 -24 24q-3 8 -3.5 24.5t-2.5 23.5h-12q-2 6 -0.5 18.5t0.5 17.5l-12 20q-11 20 -11 30t11 10q18 1 24 -9.5t12 -20.5q22 -20 43 -40q26 -27 35 -50 q1 -3 1 -5q0 -3 -4.5 -7.5t-2.5 -11.5q0 -1 8.5 -5.5t9.5 -6.5q2 -10 6 -24q5 -2 12 -6q-1 -9 -3 -9q-2 1 -3 3l-6 -18l18 -6v-12q0 -11 6 -35q9 -4 18 -12q1 -4 0 -45q0 -25 18 -39q-16 -24 -12 -36q1 -4 12 -9.5t12 -8.5q2 -6 2 -13q0 -9 -4 -24.5t-4 -22.5l12 -18v-12 q1 -12 0 -48zM257 129q-7 0 -7 16q1 16 7 14v-30zM162 201q-8 7 -24 18q0 -1 -2.5 -12.5t-3.5 -17.5q3 -1 6 -3v-9h18q1 2 4 10t4 12z" />
<glyph unicode="*" horiz-adv-x="302" d="M167 753q-3 15 0 13t5 -7q1 -6 -5 -6zM108 798q2 -1 2 -5q0 -8 -7 -27q0 34 5 32zM76 798q2 -1 2 -4q0 -8 -7 -23q0 30 5 27zM80 762q2 -1 2 -3q0 -3 -6 -6q0 11 4 9zM48 748q2 -1 2 -3t-6 -6q0 -1 0 7q0 4 4 2zM21 762q0 -8 -4 -19q-3 -1 -3 3q-1 4 1.5 9.5t5.5 6.5z M235 580q-29 9 -41 9l-18 -9q-2 0 -12 2t-16 3v-14q0 -4 -4.5 -21.5t-4.5 -26.5q0 -11 5 -16q-7 -1 -32 -9q-19 42 -14 77q-10 3 -36 10v13q-7 -1 -23 0q11 -20 11 -18q0 -4 -11 -9q-19 -9 -18 -9q-5 4 -5 7q0 2 5 2q-2 0 -2 1q0 2 11 3q-7 7 -18 10l-4 -5v14q12 -6 13 -5 t0 14q7 4 20.5 11.5t20.5 10.5v14q6 8 14 23q-6 4 -18 13q-1 3 -1 11q1 8 3 8q1 -1 2 -5q21 0 46 5q-9 25 -9 38q0 21 27 43h13l5 -32q16 -4 16 -8q0 -3 -16 -5q1 -32 4 -55l9 9q3 -3 10 -9q-1 7 0 19q3 7 23 16.5t31 5.5q2 -4 9 -9q-7 -15 -23 -45q-3 2 -5 4q-4 2 -8 0 q-4 -7 -14 -18q2 -10 9 -32q7 -1 14 -4q-1 -6 0 -14q2 -1 4 -1q3 0 9 2t10 2q5 0 9 -3q6 -4 0 -18zM30 707q1 -5 1 -11q-2 -14 -5 -16.5t-5 -2.5q-5 0 0 13q4 13 9 17zM7 666q-2 10 2 10q2 0 3 -1q12 -19 12 -25q0 -2 -2 -2q-3 0 -8.5 4t-6.5 14zM198 671q4 5 4 9q0 6 -13 4 q-3 0 -3 -2q0 -3 12 -11z" />
<glyph unicode="+" horiz-adv-x="664" d="M323 490q6 -3 -4 -18q0 20 4 18zM278 495q-6 0 -6 12q1 12 6 10v-22zM328 445q5 -3 -5 -13v9q0 7 5 4zM282 486q6 -3 -4 -14q0 16 4 14zM328 391q-6 0 -6 12q1 12 6 10v-22zM278 441q-6 0 -6 12q1 12 6 10v-22zM617 382q1 3 1 -9q0 -6 -6 -5q3 -43 -17 -43 q-4 0 -17.5 1.5t-23.5 1.5t-22.5 -4.5t-14.5 -4.5q-14 -3 -43 -2q-48 2 -47 2q-4 -4 -9 -10q-7 -20 -5 -64q2 -52 0 -67h5l-5 -22l5 -9q-1 -2 -7.5 -12t-6.5 -11l-13 -9q-28 -4 -33 12q-2 21 -3 42q3 49 -5 145q-10 0 -20 1q-2 0 -7 -28v32q-19 4 -50 9q-16 2 -36 -3 q-14 -3 -27 -6q-19 -2 -36 2q-24 7 -27 7q-2 2 9 13l4 14q17 2 27 4h-36q0 24 0 18h-22q38 8 72 5q14 -1 38.5 2t33.5 3q8 0 14 -1l7 -5t16 -4v9q31 5 32 5q13 4 17 18q1 4 -4 32q5 6 5 13q0 5 -5 5v113h9q1 5 -2 10.5t-3 7.5q7 0 23 2q13 2 18 2h9q1 -6 4 -22l10 -5 q1 -9 -3 -18q-7 -12 -7 -13q-1 -8 2 -22t3 -15q-1 -1 -1 -43q0 -43 1 -61q20 -9 59 -13l4 -14q6 0 7 4.5t2 9.5q26 -7 54 -7q12 0 73 7zM282 409q2 -1 2 -3t-6 -6q0 -1 -1 7q3 1 5 2zM282 278q-5 0 -5 18t5 18v-36zM328 273q0 14 -5 -86q0 -9 5 86zM278 246q2 -1 2 -4 q0 -8 -7 -23v17q1 12 5 10zM133 359q6 -3 -4 -9q0 11 4 9zM282 210q2 -1 2 -5q0 -8 -6 -22q0 29 4 27zM395 409q-2 1 -1.5 5t-7.5 4v-9h9zM224 341l26 8q-4 1 -26 6v-14zM206 359l-5 -22q14 4 14 11q0 4 -4 8t-5 3zM183 337q-3 1 -2 5t-7 4v-9h9z" />
<glyph unicode="," horiz-adv-x="205" d="M71 160q3 -1 3 -3q0 -3 -7 -7q0 12 4 10zM67 131q6 0 6 -2q0 -1 -11 -7v7q-1 2 5 2zM129 27h-15q-1 -2 -14 -34q-12 1 -33 -4q-1 -1 -15 -29q-6 2 -14 5q3 6 14 19l-14 5v52q12 2 24 5q4 7 4 21q1 20 1 22q-13 4 -19 9q18 0 57 -5q3 6 14 19q4 -15 10 -52q-18 6 -19 5 v-10h14q0 -10 5 -28zM29 103q3 -2 3 -3q0 -4 -27 -2v-24q-7 21 -5 29q8 5 19 14q1 -1 0 -14h10zM57 17q4 -1 7 -1q7 0 7 5q0 12 -14 15v-19z" />
<glyph unicode="-" d="M665 422q2 -1 2 -3q0 -5 -7 -12v10q0 7 5 5zM595 447q-13 14 0 10q3 0 5 -3t1 -6q-1 -2 -6 -1zM520 467q17 -1 -6 -1q-19 -1 -44 0q-26 1 -15 1q43 2 65 0zM375 462q2 -1 3 -3q0 -3 -8 -7v8t5 2zM635 317q-43 -1 -65 0h-275q1 7 -2 12.5t-3 7.5q7 8 15 20q-9 14 -30 40 q10 6 20 15q23 1 60 0q4 0 26 -7.5t29 -7.5q8 5 30 10q33 -1 80 0v-10q11 -1 41.5 2t43.5 3q2 -4 6 -8.5t17 -24.5q15 -24 15 -38q0 -10 -8 -14zM565 397h-15l5 -20q8 2 8.5 8t1.5 12z" />
<glyph unicode="." horiz-adv-x="370" d="M296 -13q-20 -5 -41 -10q-24 -5 -35 -3q-5 2 -19 12q-17 13 -17 20q0 5 11 6q19 2 37 -4q25 -9 26 -9q35 13 38 13v-25zM296 -177q-24 -19 -50 -38q-11 -2 -26 -2q-31 0 -94 11q-77 14 -95 16q18 5 50 13q-10 8 -38 25q11 19 23 38q14 24 15 38q0 -2 -7 21t-7 39 q0 9 2 15q18 11 38 26q12 -10 12 -26q0 -15 -12 -25q-5 0 18 2q15 1 19 -2q-26 -18 -26 -23q0 -2 1 -2q29 -10 83.5 -13.5t80.5 -11.5q6 -52 13 -101zM18 -51q-15 -3 -25 -25q-17 -3 -17 6q0 16 42 57v-38zM6 -114q-14 -3 -14 7q0 14 14 18q6 2 10 2q6 0 6 -4q0 -7 -16 -23z M119 -102q-6 4 -6 9q0 2 1 5.5t1 4.5q0 7 -21 7v-26h25z" />
<glyph unicode="/" horiz-adv-x="482" d="M279 698q13 -1 14 -2q0 -1 -27 0q-25 1 -7 2h20zM306 630q-8 0 -8 27t8 27v-54zM241 667q0 -4 -10 -10v9q0 6 3 6q7 0 7 -5zM296 592q0 -4 -10 -10l-1 9q0 6 3 6q8 0 8 -5zM224 630q3 -1 3 -4q0 -6 -9 -16q0 1 -0.5 8.5t0.5 9.5q1 4 6 2zM268 517q0 -5 -9 -10l-1 9 q0 6 3 6q7 0 7 -5zM211 521q-13 -3 -13 2q0 9 13 12v-14zM187 504q0 -4 -10 -10l-1 9q0 5 3 5q8 0 8 -4zM177 480q2 -1 2 -5q0 -7 -9 -22q0 9 -1 18q1 13 8 9zM224 392q-8 0 -8 18t8 16v-34zM435 712q-9 -4 -20 -14q-3 -8 -1 -27q3 -20 1 -27q-12 -13 -27 -34 q-5 -15 -7 -41.5t-7 -40.5q-3 -9 -20.5 -33t-20.5 -35q-2 -9 0 -28t0 -27q-3 -17 -27 -53t-27 -49q-2 -8 2.5 -13.5t4.5 -13.5q-8 -28 -21 -68l-13 -7q2 -9 0 -27q-18 -15 -21 -20q1 -11 0 -34q-2 -6 -13.5 -27.5t-13.5 -27.5q2 -10 0 -27q-13 -6 -27 -14q-1 -3 -1 -6 t5 -13.5t3 -20.5q-10 -9 -21 -21q2 -16 0 -47q-9 -9 -20 -21q-2 -8 0 -24t0 -23q-2 -5 -17 -14t-17 -14q1 -9 0 -20q-9 2 -21 0q1 5 14 14l-7 20q3 1 3 2q0 3 -23 5q0 -1 -3 -11t-4 -10t-7 -13h-27q1 1 0 20h27q-1 12 -1 26q0 74 35 171q3 6 7 21h14q-1 12 0 34q9 11 20 27 q7 19 11 47q5 33 9 48q1 3 10.5 14.5t10.5 13.5l-14 20h14q5 23 13 54q12 7 28 21q-6 5 -8 30q-1 22 1 24q2 5 13 -7q4 12 6.5 36.5t7.5 38.5q12 11 27 27q6 17 9 47q4 45 5 49q14 5 41 13q-7 17 -21 28l7 13q11 20 16 50q8 48 11 59l14 14q-2 12 0 34q10 8 20 20h68 q0 2 2 -45q2 -28 -2 -43zM119 300q0 -4 -10 -10l-1 8q0 6 3 6q8 0 8 -4zM166 225q0 -5 -10 -10v9q0 6 3 6q2 0 4.5 -1.5t2.5 -3.5zM105 266q0 -4 -10 -10l-1 8q0 6 3 6q8 0 8 -4zM88 229q3 -1 3 -6q0 -8 -9 -22q0 -2 -1 11q0 9 1 14t6 3zM139 150q0 -4 -10 -10l-1 9q0 6 3 6 q8 0 8 -5zM78 177q0 -4 -10 -10q0 -1 0 9q0 6 3 6q7 0 7 -5zM126 116q0 -5 -10 -10l-1 9q0 6 3 6q8 0 8 -5zM98 41q0 -6 -10 -17q0 -1 -1 13q0 9 4 9q7 0 7 -5zM37 75q0 -6 -10 -16q0 -1 -1 12q0 9 4 9q7 0 7 -5zM77 -7q0 -6 -9 -16q0 -1 -1 12q0 9 4 9q6 0 6 -5zM30 41 q0 -6 -10 -17q0 -1 -1 13q0 9 4 9q7 0 7 -5zM9 -14q0 -6 -9 -16q0 -1 -1 12q0 9 4 9q6 0 6 -5zM7 -71q-4 -1 -7 -1q-6 0 -6 5q0 14 13 17q7 2 7 -4q0 -7 -7 -17zM204 133q9 8 9 12q0 3 -9 2q-2 6 -7 27h-13q0 1 -7 -34q3 1 10.5 -4t16.5 -3z" />
<glyph unicode="0" horiz-adv-x="712" d="M647 427q3 -1 3 -8q0 -12 -10 -39q0 51 7 47zM653 367q0 -9 -1.5 -33.5t-2.5 -35.5q-1 -14 -2 2q0 11 3 38t3 29zM653 193q0 -10 -1.5 -35.5t-2.5 -37.5q-1 -15 -2 0q0 13 3 41.5t3 31.5zM650 89q0 -4 -10 -9v9q0 5 3 5q7 0 7 -5zM647 47q2 -1 2 -4q0 -5 -9 -16 q0 7 -1 14q1 9 8 6zM650 -11q0 -4 -10 -9l-1 9q0 5 3 5q8 0 8 -5zM560 40q-1 -9 -11.5 -43t-15.5 -44l-66 -80q-10 2 -27 0q-3 -2 -4 -12.5t-3 -13.5q-11 -6 -26 -14q1 -9 2 -9t4 3v-7q-6 -3 -12 -3q-5 0 -15.5 2.5t-18.5 2.5q-7 0 -14 -2v-7h-33q-1 -1 -7 -13 q-10 -2 -19 -2q-21 0 -46 9q-17 7 -35 13q-11 3 -26 3h-5q-17 0 -29 4l-6 13q-6 4 -16.5 4t-18 3.5t-38 34.5t-34.5 38q-2 16 -13 47l-14 6q-9 27 -9 58q0 10 2 45q2 30 1 51q-7 134 -7 386q0 6 7 20q-4 10 -7 27l13 13q3 13 4 41q1 20 10 33q12 7 26 20q4 6 6.5 20t8 20.5 t26 13.5t26.5 12q8 18 27 40q9 3 30 1q22 -3 30 -1q6 3 20 7v13q8 1 15 1q15 0 25.5 -7t14.5 -7q10 0 38 20q7 -4 60 -47q7 -2 17 1q14 3 19 3q9 0 17 -4q3 -1 4 -9.5t3 -10.5q5 -5 35 -24q23 -15 32 -29q2 -15 13 -40q12 -3 27 -13q8 -17 7 -47q-1 -48 -1 -53q3 -40 1 -117 q-2 -81 -1 -110q0 -7 5 -48q4 -35 4 -57q0 -16 -2 -28l-13 -34q-2 -17 6 -47t7 -46zM636 -51q0 -4 -9 -9l-1 9q0 5 3 5q7 0 7 -5zM453 693q0 2 1 11q1 3 -7 3zM447 473v14q-1 4 -7.5 4.5t-12.5 1.5q-15 80 -40 117q-35 52 -103 52q-29 0 -64 -9q-3 -6 -7 -13 q-19 -11 -38.5 -22t-27.5 -31q-21 -53 -21 -198q0 -89 7 -189q-3 -44 0 -133q5 -37 14 -60l13 -7q-4 -19 -7 -40q7 -5 12 -5q3 0 12 3.5t16 1.5q11 -9 27 -20q22 -5 58 -5q38 -1 55 5q8 3 19 15l15 18q8 2 20 7q12 12 27.5 61t15.5 87q0 15 -3 25q-6 7 -14 20q-1 13 6 57 q7 50 8 57q1 15 1 32q0 19 -2 55t-2 54q0 25 3 45h-27q32 2 47 0zM327 333q-8 0 -8 27t8 27v-54zM233 440q3 -1 3 -5q0 -8 -9 -22q0 -1 -1 11q-1 9 0 13q2 6 7 3zM323 323q0 -4 -10 -10l-1 9q0 6 3 6q8 0 8 -5zM327 247q-1 -16 -2 -17q-1 54 2 70v-53zM320 213q0 -75 -6 -75 q-1 1 -1 9q-1 12 3 38t4 28zM227 220q-8 0 -8 16q0 19 8 17v-33zM222 203q0 -6 -9 -16q0 -1 -1 12q0 9 4 9q6 0 6 -5zM327 120q0 -17 -3 -51q-4 -41 -4 -42q0 17 3 51q4 41 4 42zM336 -11q0 -4 -9 -9l-1 9q0 5 3 5q7 0 7 -5zM227 33q-8 0 -8 17q0 19 8 17v-34zM223 16 q0 -4 -10 -9v8q0 6 3 6q7 0 7 -5zM229 -11q0 -6 -9 -16q0 -1 -1 13q0 8 4 8q6 0 6 -5zM236 -37q0 -4 -9 -10l-1 9q-1 6 3 6q7 0 7 -5z" />
<glyph unicode="1" horiz-adv-x="432" d="M162 800l12 -1q-13 -1 -19 -1q-17 1 -31 1.5t-2 0.5h40zM20 618q-5 1 -20 0q0 17 3 51q4 41 4 43v-88q4 -1 10 0q2 1 3 -6zM124 478q0 -6 -9 -16q0 -1 -1 12q0 9 4 9q6 0 6 -5zM117 445q0 -7 -9 -17q0 -1 -1 13q0 9 4 9q2 0 4 -1t2 -4zM351 -38q2 -30 -9.5 -78.5 t-10.5 -69.5q-14 -1 -53 -9q-32 -6 -42 -5q-1 0 -12 6.5t-15 7.5q0 609 7 797q-6 1 -8.5 6.5t-4.5 6.5q-63 -24 -72 -35q-16 -20 -16 -93q-7 84 -7 74q-17 -3 -40 -13q0 11 -3 43.5t-3 49.5q0 27 6 42l148 108q6 1 15 1q16 0 63 -5q44 -4 57 -3q-2 -28 1 -82q3 -69 3 -98 q0 -43 -4 -83q-1 -6 -7 -33q-6 -23 -6 -35q0 -14 5 -80q4 -58 2 -89q0 -4 -5 -22t-5 -31q0 -11 3 -21l13 -14q2 -26 -4 -85q-9 -77 -9 -84q-1 -19 5 -43q8 -27 8 -31zM115 286q-1 -11 -1 -17q-1 15 0 35q1 39 1 37v-55zM117 242q0 -6 -9 -16q0 -1 -1 12q0 9 4 9q6 0 6 -5z M108 212q3 -1 3 -7q0 -10 -10 -33v25q0 18 7 15zM115 158q0 -20 -3 -58q-4 -45 -4 -50q0 20 3 59q4 45 4 49zM223 523q-1 2 0 10q1 3 -7 3z" />
<glyph unicode="2" horiz-adv-x="732" d="M682 591q3 -1 3 -6q0 -8 -9 -22q0 -2 -1 11q0 9 1 14t6 3zM682 482q-8 0 -8 18t8 16v-34zM581 503q-8 0 -8 27t8 27v-54zM267 607q0 -4 -10 -10l-1 9q0 6 3 6q8 0 8 -5zM253 560q0 -4 -10 -10l-1 9q0 6 3 6q2 0 5 -1.5t3 -3.5zM682 70q3 -1 3 -7q0 -11 -9 -33q0 44 6 40z M520 91q13 -1 14 -2q-29 1 -34 2h20zM568 -85q4 -12 4 -27q0 6 -11 -74q-91 -21 -210 -7q-19 -3 -54 -7q11 1 -20 7q3 0 -12.5 -4t-21.5 -3q-69 7 -243 7q0 12 -2.5 42t-2.5 46q0 24 5 40q24 26 54 61q7 14 27 40q4 4 34 21v20q16 22 34 47q7 1 20 7q6 5 11 19q6 18 9 22 q12 7 27 20q1 10 7 27q10 3 27 13q3 14 14 34q8 0 20 7q3 12 13 34q13 5 34 20q3 4 3 12.5t4 14.5h13q2 11 7 27q3 4 10 4.5t10 2.5q32 45 54 81q5 21 5 41q0 66 -59 114q-47 38 -102 38q-17 0 -33 -4l-7 -13q-46 -18 -68 -48q-19 -25 -33 -81q-53 0 -135 7q16 119 90 195 q80 83 201 82q49 -1 101 -20q12 -12 34 -27q13 3 33 0q2 -1 -2 -7.5l-4 -6.5q16 -14 47 -47q74 -93 68 -156l-14 -20q6 -23 7 -74q-7 -45 -48 -94q-33 -37 -67 -75q-5 -15 -20 -41h-14l-54 -60q-7 -20 -20 -48q-13 -5 -34 -20q-10 -24 -34 -61q-9 0 -20 -7q2 -13 0 -40 q-7 1 -7 7q0 14 0 13q-8 -1 -20 -7q-6 -11 -9.5 -30t-10.5 -30q-8 -3 -21 -14q34 2 108 -3q87 -6 114 -6q20 0 35 2l14 14q8 1 20 -6.5t13 -7.5h68q7 -5 14 -13zM446 91q13 -1 13 -2q-28 1 -33 2h20zM405 111q-2 -1 -3 -14.5t-5 -13.5q-2 0 -2 3q0 18 10 25zM426 -11h-176 q12 6 6 8q-6 1 -11 0q6 -1 12 -1q11 0 169 -7z" />
<glyph unicode="3" horiz-adv-x="750" d="M698 451q3 -1 3 -5q0 -8 -10 -22q0 9 -1 18q1 13 8 9zM691 377q-8 0 -8 18t8 16v-34zM586 407q0 -6 -9 -16q0 -1 -1 12q0 9 4 9q6 0 6 -5zM694 165q0 -4 -9 -9l-1 8q0 6 3 6q7 0 7 -5zM700 138q0 -6 -9 -16q0 -1 -1 12q0 9 4 9q6 0 6 -5zM698 48q-8 0 -8 27t8 27v-54z M349 444q-15 0 -46 3t-21 4q3 0 67 -7zM597 95q-8 0 -8 18t8 16v-34zM570 15l-13 -7q-24 -62 -29 -72q-17 -33 -45 -55q14 -1 14 -3q-1 -2 -7 -4q-11 2 -27 0q-15 -19 -54 -47q-16 -6 -39 -8q-26 -2 -41 -6l-14 -13q-50 -8 -114 7q-11 10 -27 20q-12 -2 -33 0q-4 8 -13 20 q-13 4 -41 20q-13 12 -27 27q2 7 0 20q-11 6 -26 20q-4 5 -4 16.5t-3 17.5h-14q-4 17 -13 74q15 1 47 6q49 12 81 7q3 -18 6 -20q27 -24 34 -47q-1 -9 0 -20q11 1 27 0q7 -12 20 -27q11 -6 65 -6q56 -1 76 6q4 1 9 13t11 14q11 -2 27 0q-1 11 0 27q2 5 16 18t17 22 q6 19 6 42q0 49 -25 97t-55 62q-43 20 -134 20q-1 3 0 10q1 2 -7 4q1 31 7 94q6 6 14 13q3 1 7 1q18 0 26 -8q51 -1 102.5 35.5t51.5 109.5q0 43 -21.5 80t-58.5 51q-28 11 -69 11q-66 0 -92 -25q-3 -9 -14 -27q-9 -5 -20 -13q2 -12 0 -34q0 -1 -6.5 -3t-6.5 -3l-13 -14 q-3 -1 -61 0q-65 1 -65 29q0 15 18 52q7 3 14 7q19 51 41.5 78.5t65.5 55.5q55 35 94 40q16 2 41 -3.5t46 -3.5q30 8 34 7l13 -13q76 -30 134 -98q69 -80 69 -171q0 -13 -2 -27.5t-14 -54t-19 -52.5q-3 -6 -28 -22.5t-26 -17.5q-4 -5 -3.5 -17t-2.5 -17q24 -28 49 -56 q30 -35 38 -65q4 -14 5 -48q2 -39 -5 -39q0 -4 4 -29t4 -40q0 -10 -2 -18zM265 38q0 -4 -10 -10l-1 9q0 6 4 6q2 0 4.5 -1.5t2.5 -3.5z" />
<glyph unicode="4" horiz-adv-x="732" d="M246 688q0 -4 -10 -10v9q0 6 3 6q7 0 7 -5zM219 634q0 -4 -10 -10v9q-1 6 3 6q7 0 7 -5zM429 330q0 -4 -10 -10l-1 9q0 7 3 7q8 0 8 -6zM439 226q-8 0 -8 27t8 27v-54zM682 -38q-6 -2 -13 -13q-19 -2 -68 -14q0 -30 -5 -72q-7 -52 -8 -63q-21 5 -60 5q-45 0 -62 2 q12 92 0 121q-1 4 -9.5 6.5t-10.5 7.5q-142 7 -311 7v-7q-16 2 -46 -1q-26 -2 -35 1q-2 6 -13 13v115q1 1 13 7q1 8 -3 21l-4 13l34 20q4 7 4 21t3 20q11 11 27 33q0 13 7 41q4 8 20.5 24t19.5 22.5t1 17.5q-2 12 -1 17q3 12 20 35.5t21 32.5q4 21 20 67q20 27 47 81 q-2 10 0 27q3 8 17 21t17 20t2.5 23t4.5 24q15 9 34 27q-1 11 0 34q5 19 19.5 46.5t27.5 34.5h7q8 2 24.5 -6t22.5 -8q34 1 88 0q-18 -32 -39 -81q-31 -77 -36 -87q-9 -8 -20 -21q-9 -31 -34 -94l-13 -7q-7 -11 -11 -29q-5 -22 -9 -32l-14 -7q-12 -30 -27 -108q-5 -1 -13 21 q-78 -150 -109 -230q8 -1 24.5 -4l16.5 -3h-41q7 -10 13 -20q10 -14 35 -14l20 14q6 1 12 1q9 0 22.5 -4t19.5 -4v14h7v-14q3 0 26 -6q17 -3 29 -3q10 0 18.5 2t16 13.5t11.5 13.5q0 1 0 -12q0 -9 3 -9q13 0 13 14q0 2 -2 10q-1 7 0 11h13v94h-13q2 2 13 7q-6 69 7 149 q11 -1 26 -4t21 -3q17 1 68 14q5 -79 0 -115q-2 -13 -2 -25q0 -17 7.5 -57t7.5 -74q4 -2 14 -6l7 -14q7 -3 23 -2q26 2 24 2q4 -38 13 -115zM338 314q0 -77 -6 -77q-1 1 -1 9q0 3 7 68zM104 391q0 -4 -9 -10l-1 9q0 6 3 6q7 0 7 -5zM7 199q3 -1 3 -7q0 -11 -10 -34 q0 45 7 41z" />
<glyph unicode="5" horiz-adv-x="731" d="M653 773q13 -1 14 -2q0 -1 -27 0q-26 1 -8 2h21zM673 713q-8 0 -8 27q0 26 8 26v-53zM646 659q-14 0 -46 3t-21 3t38 -3t29 -3zM675 399q0 -6 -9 -16q0 -1 -1 12q0 9 4 9q6 0 6 -5zM679 369q3 -1 3 -4q0 -6 -9 -16q0 2 -0.5 9t0.5 10q1 4 6 1zM372 641q0 -6 -9 -16 q0 -1 -1 12q0 9 4 9q6 0 6 -5zM478 531q13 -1 14 -2q0 -1 -27 0q-25 2 -8 2h21zM363 578q-8 0 -8 17q0 19 8 17v-34zM682 258q0 -5 -9 -10l-1 9q0 6 3 6q7 0 7 -5zM366 540q0 -6 -9 -16q0 1 -1 7t0 10q0 4 3 4q7 0 7 -5zM679 215q3 -1 3 -7q0 -11 -9 -34q0 -2 -1 15 q-1 13 0.5 20.5t6.5 5.5zM579 316q0 -10 -1.5 -36t-3.5 -38q-1 -16 -2 0q0 -7 7 74zM269 544q-8 0 -8 27t8 27v-54zM558 26q-15 -46 -20 -58q-14 -36 -27 -56q-34 -51 -99 -81.5t-139 -30.5q-66 0 -125 25q-7 8 -20 20q-58 39 -85 76q-32 46 -43 119q6 2 13 13q8 1 23.5 4 t17.5 3l27 -13q5 0 21.5 6.5t18.5 6.5q15 -21 34 -54q-2 -8 0 -20q6 -1 20 -7q8 -14 27 -33q32 -15 75 -15q71 0 106 35v20q11 8 27 27q6 15 8 37q1 14 0 38q-1 26 -1 33q4 72 4 73q0 46 -38 95q-8 12 -17.5 24.5t-22.5 15.5q-11 -2 -34 0q-10 5 -21 9q-17 8 -30 8 q-9 0 -16 -3q-4 -10 -13 -21q-7 -3 -20.5 -2.5t-21.5 -4.5t-22 -30.5t-24 -29.5q-18 -7 -41 -7q-41 0 -87 21q3 2 3 4q0 4 -9 9q-3 11 4 26q9 19 9 21q3 24 3 51t-7 96q-6 60 -3 95q7 86 14 142q-3 11 -5 11q-2 -1 -2 -5v14v60q24 0 61.5 -6.5t46.5 -6.5q12 0 47.5 10 t46.5 10q2 0 18 -6t22 -7q-4 0 9 3.5t18 2.5q34 -4 70 -4q19 0 85 3q55 3 94 1q2 -18 0 -47q2 -13 3.5 -33t3.5 -34l-20 -7q24 -11 20 -13q-27 -11 -115 -11q-27 0 -84 1t-83 1q-105 0 -115 -18t-7 -79q2 -73 0 -89q4 -2 14 -21q12 -1 33 0q1 1 7 11t7 10q20 4 60 13v47 q3 -15 7 -47q20 2 37 2q56 0 131 -29v-13q5 -3 16.5 -2.5t17.5 -4.5l-7 -13q63 -49 79 -115q11 -45 9 -168q0 -13 6 -108zM373 170q0 -4 -10 -9v9q0 5 3 5q7 0 7 -5zM259 184q0 -4 -10 -10q0 -1 0 9q0 6 3 6q7 0 7 -5zM265 157q0 -4 -9 -10l-1 9q-1 6 3 6q7 0 7 -5z" />
<glyph unicode="6" horiz-adv-x="704" d="M558 630q3 -1 3 -5q0 -8 -10 -22q0 9 -1 18q1 13 8 9zM639 215q3 -1 3 -4q0 -6 -9 -16q0 1 -0.5 8.5t0.5 9.5q1 4 6 2zM370 456q0 -5 -9 -10l-1 9q0 6 3 6q7 0 7 -5zM649 177q0 -4 -10 -10v9q0 6 3 6q7 0 7 -5zM649 109q0 -4 -10 -10v9q0 6 3 6q7 0 7 -5zM656 81 q0 -6 -10 -16q0 -1 -1 13q0 9 4 9q7 0 7 -6zM629 -13q0 -4 -10 -10l-1 9q-1 6 3 6q8 0 8 -5zM558 127q0 -4 -7 -19.5t-7 -28.5q2 -10 5 -19q4 -19 2 -29q-9 -13 -20 -34q-1 -3 -1 -6t4 -8t3 -13q0 -3 -10 -14t-10 -13q2 -10 0 -27q-11 -7 -27 -21q-3 -9 -7 -13q17 0 17 -4 q0 -5 -11 -5q-5 0 -14 4l-12 5q2 -10 0 -28q-2 -4 -10 -4t-11 -2q-25 -20 -75 -48q-28 -8 -72 -8q-69 0 -118 15q-10 -2 -27 0q-5 8 -14 20q-68 52 -92 88q-31 47 -44 137q-3 23 -3 43q0 31 23 120q-1 15 7 41q12 4 27 13q5 9 5 25t2 23t13.5 18.5t13.5 15.5q5 10 7.5 24.5 t6.5 23.5q6 2 14 6q0 14 6 41l14 7q2 6 3 22q1 5 4 12q12 10 27 27q6 12 9.5 37t10.5 38q15 12 34 34q-1 10 0 27q8 12 21 34h20q-7 5 -7 16q0 19 22 58l26 42q43 -4 123 -20q-3 -21 -14 -62q-16 -40 -81 -161q-53 -99 -75 -172h54l7 -14q13 -2 32.5 1t26.5 3q14 0 29 -4 q9 -9 21 -20q13 1 40 -7v-13q19 -11 26 -22q7 -17 15 -33q12 -11 27 -34q3 -7 1 -20q-2 -16 -1 -21q1 -6 13 -34q9 -23 8 -40zM588 -61q0 -4 -10 -10l-1 9q0 6 3 6q8 0 8 -5zM422 147l-14 7q0 13 -7 41q-4 7 -25 28.5t-29 25.5q-18 10 -43 10q-23 -1 -45 -3q-8 0 -18.5 4.5 t-16.5 2.5q-2 -10 -6 -21q-19 -10 -37 -21q-24 -13 -31 -26q-5 -9 -5 -27q0 -21 -2 -28l-14 -13q-4 -14 -4 -31q0 -39 18 -85q6 -2 13 -7q1 -3 8 -29q5 -20 13 -25q4 -4 14 -4t13 -3q1 -9 7 -21q5 -2 15 -2q24 0 64.5 8t56.5 15q31 14 54 66.5t23 107.5q0 16 -2 30zM343 170 q0 -6 -10 -16q0 -1 -1 12q0 9 4 9q7 0 7 -5zM327 127q3 -1 3 -8q0 -13 -10 -40q0 52 7 48zM337 61q0 -4 -10 -9l-1 9q0 5 3 5q8 0 8 -5zM224 140q0 -10 -1.5 -36t-2.5 -39q-1 -16 -2 0q0 13 3 42.5t3 32.5zM245 18q2 -1 2 -5q0 -7 -9 -23q0 9 -1 18q1 14 8 10z" />
<glyph unicode="7" horiz-adv-x="668" d="M615 577q-8 0 -8 17q0 19 8 17v-34zM625 560q0 -4 -10 -10l-1 9q0 7 3 7q8 0 8 -6zM624 526q0 -6 -9 -17q0 -1 -1 13q0 9 4 9q6 0 6 -5zM557 350q0 -6 -10 -16q0 -1 -1 12q0 9 4 9q7 0 7 -5zM527 273q-8 0 -8 8q0 13 8 19q4 3 4 -2q0 -4 -2 -13.5t-2 -11.5zM196 543 q-8 0 -8 27t8 27v-54zM291 408q-9 0 -9 18t9 16v-34zM189 530q3 -1 3 -7q0 -11 -10 -34v26q0 18 7 15zM496 195q0 -4 -10 -10v9q-1 6 3 6q7 0 7 -5zM198 472q0 -7 -9 -17q0 -1 -1 13q0 9 4 9q2 0 4 -1t2 -4zM561 672l-14 -27q4 -12 7 -27h-13q-12 -29 -34 -82 q-16 -49 -31 -98q-22 -63 -44 -84q-2 -1 3.5 -7t3.5 -13h-13q-1 -23 -14 -68q-9 -4 -20 -13q2 -12 0 -34q0 -1 -10 -13t-10 -14q-1 -4 0 -13.5t0 -13.5q-3 0 -8 3t-7 3q-8 0 -8 -13q0 -5 4.5 -11t4.5 -9l-13 -7q-4 -10 -4 -24v-3q0 -12 -3 -20q-11 -12 -27 -34q-3 -6 -1 -20 q2 -15 1 -21q-16 -24 -34 -54q1 -10 0 -27q-3 -11 -21 -50.5t-26 -50.5l-14 -20q-18 -8 -71 -8q-68 1 -71 1q-2 49 0 54q3 6 17 17.5t17 16.5q-1 10 0 27q2 6 13.5 17.5t13.5 16.5q6 16 9.5 47t10.5 47q9 4 21 14q6 12 7 30.5t6 30.5q12 17 27 40q-1 10 0 27l14 7q4 12 6 33 t7 34q10 12 21 27q-2 10 0 28q13 15 33 47q8 18 14 50.5t13 50.5q6 15 37 73q25 47 31 76q-8 10 -8 19t8 15q-3 1 -11 7t-9 6q-16 4 -27 -7q-12 -2 -28.5 2.5t-19.5 4.5q-74 0 -169 -13q-1 -36 7 -68q-2 -11 -4 -11q-2 1 -3 4v-54q-9 -6 -20 -13q-14 -4 -47 6q-25 -5 -14 -6 h-40q-7 97 -7 263q20 9 54 20q11 1 26 -3.5t21 -2.5q3 0 8.5 9.5t12.5 10.5q3 1 38 2q36 0 43 -2l13 -14q64 -3 88 0l20 14q32 4 63 4q66 0 133 -18l7 14q5 1 8.5 -4t11.5 -3q1 -21 9 -64q6 -38 5 -57zM432 43q3 -1 3 -4q0 -6 -9 -16q0 1 -0.5 8.5t0.5 9.5q1 4 6 2zM415 -8 q0 -4 -10 -10v9q0 6 3 6q7 0 7 -5zM388 -76q0 -4 -10 -9v9q0 5 3 5q7 0 7 -5zM507 624q-1 2 0 11q1 3 -7 3zM432 368q-1 2 0 6.5t0 5.5q-1 2 -6 1q-6 -1 -6 -6q0 -6 12 -7zM297 273q12 0 12 10q0 11 -12 10v-20z" />
<glyph unicode="8" horiz-adv-x="747" d="M672 414q-1 -11 -1 -17v34q1 38 1 36v-53zM669 204q0 -4 -10 -10l-1 9q0 6 4 6q2 0 4.5 -1.5t2.5 -3.5zM682 170q0 -4 -10 -9l-1 9q0 5 3 5q8 0 8 -5zM685 95q-1 -11 -1 -17q-1 14 0 34q1 38 1 36v-53zM586 174q9 -25 9 -66q0 -85 -23 -140q-11 -12 -26 -33 q-4 -8 -14 -27q16 1 16 -3q0 -1 -2.5 -3.5t-12.5 -0.5q-12 2 -14 1q-6 -2 -14 -19.5t-13.5 -21t-22.5 -6.5t-23 -7q-8 -11 -27 -26q-12 1 -33 0q-23 -9 -60 -20q-14 -2 -28 -2q-75 0 -152 41q-72 37 -99 81q-1 9 -7 26q-11 9 -27 33q-6 18 -8 46q-4 42 -5 48q3 11 5 11 q1 -1 2 -5q0 -2 -3 44q-1 28 3 43q12 10 26 26q3 5 1 17t-1 17q9 4 20 13q12 16 23 31.5t30 28.5q0 11 -6 33q-4 7 -20 17t-19.5 15.5t-22 49t-18.5 45.5q-4 21 -4 41q0 36 14 80q11 36 23 72h20q10 1 14 6q-4 15 0 40q10 2 26 7q3 2 12.5 19.5t14.5 20.5q1 1 60 33 q8 2 11.5 -3t8.5 -4q2 6 6 20q16 3 33.5 -5.5t26.5 -7.5q8 10 27 20q4 0 14.5 -6.5t11.5 -6.5q20 0 60 -7q10 -11 27 -27q7 2 20 0q4 -1 4.5 -9.5t2.5 -10.5q52 -44 62 -55q35 -36 44 -71q-1 -11 0 -33l13 -14q10 -38 7 -79q-2 -19 -18.5 -57.5t-28.5 -56.5q-17 -11 -40 -40 q2 -10 0 -33q16 -10 32 -21q21 -14 27.5 -24t8.5 -26q2 -19 6 -29zM453 554l-27 6q-4 4 -4 16.5t-3 17.5q-13 25 -48.5 43t-76.5 18q-11 0 -21 -1q-44 -6 -85 -52q-42 -49 -42 -102q0 -21 7 -39q9 -3 20 -7q-1 -8 0 -20q1 -7 20.5 -28.5t26.5 -24.5q6 2 20 0q9 -7 18.5 -14 t27.5 -6l13 13q35 8 71 16q31 10 49 37q4 14 20 40q-4 5 -6 20l12 32q10 25 8 35zM73 574q-7 4 -11 12.5t-9 7.5v-14zM439 15q20 39 20 78q0 87 -80 128l-34 20q-25 13 -39 13l-13 -13q-19 2 -53 0q-2 -1 -44 -30t-43 -30q-17 -29 -17 -91q0 -63 24 -75q1 -1 1 -2l-5.5 -4 t-2.5 -8q8 -12 30 -22q18 -9 37 -18q5 -9 13 -20q34 -15 85 -15q13 0 21 2q5 9 14 20q6 4 16.5 4t16.5 3t11.5 16.5t8.5 16.5q14 9 33 27zM349 437q0 -4 -10 -10q0 -1 0 9q0 6 3 6q7 0 7 -5zM273 487q-20 21 -12 21q2 0 5.5 -1t12.5 -11.5t2 -10.5q-3 0 -8 2zM346 174 q3 -1 3 -5q0 -7 -10 -21v17q0 12 7 9zM335 124q0 -6 -9 -16q0 -1 -1 12q0 9 4 9q6 0 6 -5zM342 91q0 -4 -9 -10l-1 9q0 6 3 6q7 0 7 -5zM236 144q0 -4 -10 -10l-1 9q0 6 3 6q8 0 8 -5zM233 55q-8 0 -8 27q0 26 8 26v-53zM243 44q0 -4 -10 -9l-1 8q0 6 3 6q8 0 8 -5z" />
<glyph unicode="9" horiz-adv-x="669" d="M615 482q-1 -25 -14 -87q0 -1 -6.5 -3.5t-6.5 -3.5q-9 -32 -34 -102q-3 -7 -17 -20.5t-17 -19.5q-6 -12 -10.5 -37t-9.5 -37q-6 -2 -14 -7q-42 -114 -74 -162l-13 -7q-7 -25 -27 -74q-19 -21 -48 -61q-3 -6 -7 -30q-4 -19 -13 -24q-13 -8 -40 -9q-19 -1 -53 0 q-41 2 -49 2q18 59 47 114q28 47 55 95q-2 7 0 21q11 11 27 34q-1 9 0 27q14 18 33 47q5 20 21 67q-5 0 -40 -5q-23 -3 -35 -1q-26 3 -87 33.5t-75 47.5q-11 13 -19 35q-13 34 -15 39q-13 15 -27 41q-1 9 6.5 27t7.5 27l-14 13q-3 13 -3 26q0 21 10 50q13 33 14 39 q-3 21 0 61q9 5 20 13q1 10 7 27q20 34 82.5 75t106.5 47q23 3 50 3q82 0 119 -23q6 -11 20 -27q23 -8 54 -27q2 -3 14 -48q3 -2 13.5 -2.5t13.5 -3.5q-1 -1 0 -21q-25 4 -7 -6q2 -1 13 -7q-7 -33 -6 -34h20q-8 -35 -7 -40q1 -4 13 -11.5t14 -9.5l-14 -22q-8 -14 -6 -25z M20 489q-8 0 -8 17q0 19 8 17v-34zM17 472q0 -4 -10 -10q0 -1 0 9q0 6 3 6q7 0 7 -5zM209 199l12 -1q0 -1 -19 -1q-17 0 -31 1t-2 1q31 1 40 0zM9 357q0 -6 -9 -16q0 -1 -1 12q0 9 4 9q6 0 6 -5zM162 -119q-13 0 -43 3.5t-18 3.5q5 0 61 -7zM466 550q1 15 -7 47 q-8 15 -28 24t-39 17q-1 6 -7 13q-42 18 -94 7l-7 -13q-6 -3 -17.5 -0.5t-16.5 0.5q-5 -9 -14 -21q-23 -18 -27 -27q0 -1 -6 -47q23 -1 33 -7h-40q0 -5 -6 -41q-4 -30 -4 -50q0 -17 3 -30l14 -7q1 -10 6 -27q16 -25 51.5 -42.5t75.5 -17.5q22 0 42 6q47 13 73 58 q22 41 22 97q0 31 -7 61zM422 492q0 -4 -10 -10l-1 9q0 6 3 6q8 0 8 -5zM324 489q3 -1 3 -4q0 -6 -9 -16q0 -1 -1 9q-1 6 0 9q2 5 7 2zM331 455q0 -76 -6 -76q-1 1 -1 9q-1 12 3 38.5t4 28.5zM321 351q0 -5 -10 -10l-1 9q0 6 3 6q8 0 8 -5z" />
<glyph unicode=":" horiz-adv-x="243" d="M161 207q-6 -1 -13 -1q-11 0 -27 4.5t-23 4.5v-23q31 -8 32 -8q23 16 16 16q10 3 16 3q7 0 7 -5q0 -8 -13.5 -18.5t-25.5 -11.5q-6 0 -79 24v95h-24q-3 2 -3 6q0 17 11 17q11 1 13 -5t4.5 -8.5t5.5 -2.5q7 0 7 8t1 8q7 2 11 -6.5t5 -8.5q9 -2 35 5q18 5 37 10 q-3 -6 -0.5 -20t0.5 -19q-9 -10 -24 -32q-7 2 -9 -2q-1 -3 0 -11q1 -9 1 -11q7 1 32 8q20 3 20 -5q0 -9 -13 -11zM172 -3q0 -5 -11 -11v10q-1 7 3 7q8 0 8 -6zM130 33q15 -1 16 -2h-30q-30 1 -10 2q21 1 24 0zM66 17q3 -2 3 -6q0 -9 -10 -25q0 -2 -1 12q-1 11 0 15q2 7 8 4z M154 -117q-4 -7 -24 -10t-24 -6t-5 -16.5t-3 -15.5h24q5 -3 24 -8v-16q-20 -2 -72 -8l8 24q-8 2 -17 -3.5t-9 -9.5q1 -3 3 -3q-26 0 -40 -8q-6 13 -16 32q-5 0 24 8q-1 6 -8.5 10t-8 7t-0.5 6q0 6 3.5 10t5.5 7v47q23 1 52 8t51 8q1 3 -1 9q-1 4 0 6q2 2 9 1q3 -16 8 -40 q10 2 6.5 8t1.5 8q14 6 14 -26q0 -18 -6 -29z" />
<glyph unicode=";" horiz-adv-x="373" d="M297 255q-23 15 -6 12q13 -2 13 -10q0 -3 -7 -2zM316 236q3 -1 3 -4q0 -5 -9 -15q0 7 -1 13q0 9 7 6zM291 39q-6 4 -12 7q-11 7 -11 12q0 7 21 7q6 0 6 -3t-3.5 -9.5t-3.5 -9.5t3 -4zM319 16q0 -4 -9 -9v9q-1 5 2 5q7 0 7 -5zM145 229q-4 -20 -7 -39q-6 -13 -37 -11 q-14 1 -18 9.5t-8.5 10t-9.5 1.5q-7 0 -20 -4t-20 -5q-4 24 -2 52q2 47 2 43v13q9 5 63 6q48 1 48 -13q0 -3 -6 -20t-4 -30q10 -8 19 -13zM310 -5q2 -1 2 -4q0 -5 -9 -15v13q0 9 7 6zM227 1q-7 0 -7 26q0 25 7 25v-51zM139 -43q-1 -10 -7 -45v-31q-3 -7 -18 -8.5t-20 -4.5 q-9 -6 -23 -25t-27 -26v-12q-6 3 -10.5 -0.5t-8.5 -6.5q-6 7 -13 19q-1 7 -1 17q0 20 7 76.5t7 77.5h19v13q6 2 11 2q8 0 20.5 -4.5t18.5 -4.5q3 0 7 1q2 6 12 12q3 -7 7 -19q-4 -1 -13 -6q-8 5 -10 5q-2 -1 -2 -2t1 -4.5t1 -5.5q0 -4 -3 -6q10 -4 23 -6.5t22 -5.5zM75 242 q0 1 1 10q0 3 -7 3zM56 223v10q1 3 -6 3z" />
<glyph unicode="&#x3c;" horiz-adv-x="393" d="M328 258q0 -6 -6 -39q-25 7 -75 24l-9 9q-13 5 -42 15l-3 6q-5 -1 -12 0q-8 8 -24 18q-5 -1 -15 0q-3 7 -9 15q-7 4 -23 4t-22 2q-7 6 -21 15h-12q-6 2 -23 11.5t-19 12.5q-14 21 0 39h6q6 7 15 15q14 1 42 9q1 4 3 9h9l9 9q8 1 24 6q14 10 42 24h12q5 5 15 12q8 -1 24 0 q5 1 -3 9q10 2 30 9l3 6q4 -1 12 0q5 6 15 12h12q5 4 15 9q1 0 9 -3h18v-8q-1 -6 -3 -4q3 -8 0 -21q-6 -1 -21 -6l-6 -9q-12 -3 -33 -12l-3 -6q-5 1 -15 0l-3 -6q-5 0 -15 -3q-4 -2 -12.5 -8t-11.5 -7q-11 -2 -36 -9l-9 -9q-4 1 -12 0q-6 -5 -15 -11t-26 -12t-25 -10v-12 q11 -10 15 -12q8 0 24 -3q1 -3 3 -6q1 1 2.5 1.5t3.5 1.5q6 -9 9 -9q2 0 2.5 2t3.5 1q2 -4 6 -9q7 0 24 -3q-4 -4 -3 -6q9 -1 30 -6q2 -4 7 -8t15.5 -5.5t16.5 -4.5q2 -4 6 -9q6 1 18 0q2 0 10 -5.5t11 -6.5q14 -4 45 -18z" />
<glyph unicode="=" horiz-adv-x="704" d="M661 331q2 -1 2 -3q0 -4 -7 -12q0 -2 0 11q0 7 5 4zM537 326q-17 20 -5 16q10 -3 10 -13q0 -4 -5 -3zM661 192q2 -1 2 -3q0 -4 -7 -8q0 -2 0 9q0 4 5 2zM547 306q-7 -2 -22 1.5t-14 3.5h31v7q0 2 5 3q7 -13 0 -15zM490 352q7 0 7 -2q0 -4 -12 -8v8q-1 2 5 2zM439 362 q7 -1 10 -1h-20q-20 1 -6 1h16zM433 321q2 -1 2 -3q0 -4 -7 -12q0 -2 0 11q0 7 5 4zM599 145q6 -1 9 -1h-27q-28 1 -13 1h31zM402 306q-4 -2 -6 -2q-3 0 -3 3q0 11 9 14q6 2 6 -2t-6 -13zM563 373q-8 -1 -40.5 -9t-47.5 -8q-6 0 -10.5 1t-13.5 11.5t-23 9.5v-10 q-4 -1 -15 -6q-3 0 -24 5.5t-23 5.5q-9 0 -14.5 -5.5l-5.5 -5.5q-1 0 -37 6q3 -5 5 -11q-26 4 -51 5q5 3 4 14q-1 9 -4 12q-4 -1 -26 -5q2 -1 10 -15q-7 -2 -17 -2q-18 0 -50 7q-40 9 -47 10v10q-13 -28 -24 -28q-3 0 -12 1q-12 1 -20 2l-6 15l-20 5q13 16 26 31q8 -1 20 0 q1 7 5 16q3 1 10 0q7 -2 7 -4l-1 -1q3 3 4 3t1 -2q0 -5 -10 -27q6 -1 15 0v5q6 1 5 7q-1 5 -5 8h36l6.5 -5.5t9.5 -4.5q2 5 5 16q21 5 57 10q19 1 53 -4q38 -6 51 -6q-9 -19 -6 -21q4 3 16 21h21q3 -5 6 -10.5t9 -5.5h5q-1 -6 0 -15q2 3 26 10h21q5 9 15 21q11 -1 31 0 q1 -1 11 -21q6 2 15 0v21q19 5 31 5q23 0 23 -23q0 -13 -7 -39zM320 337q-7 0 -7 10q0 9 7.5 10t12.5 1q9 0 9 -3q0 -6 -22 -18zM589 187h-26q-1 -11 -5 -31h-52q13 -11 10 -11q-17 4 -62 5l-7 -3.5t-14 -1.5q-10 10 -31 21v-10h-56q-1 -1 -6 -11q-21 -1 -26 10q-5 8 -15 6 q-3 -7 -6 -7q-6 0 -6 7q0 1 7 15v31q3 1 31 5q31 1 26 0l11 3q8 2 4 3h16q0 -6 5 -16q7 7 16 15.5t21 8.5q7 0 15 -3q4 -6 15 -16q0 -5 0 13q0 6 6 8t6 1l-4 -4q0 -1 2 -2h11q-15 -3 -15 -14q0 -3 7 -3q3 0 7.5 1t10.5 16q15 6 83 0q-6 -28 -5 -31q7 -1 8.5 4.5l1.5 5.5 q5 1 7 -4t3 -6q3 1 5 0q-2 -4 1 -5zM268 145q5 0 -5 -5q21 2 31 3t5 2h-31zM278 202q-4 -7 -7 -7q-2 0 -3 2v-36q-6 -1 -16 -11h-15q-4 8 -10 16q-4 1 -7 -4.5t-4 -5.5q-4 -2 -8 -2q-6 0 -14.5 4t-13.5 3l-10 -11h-124q-6 14 -16 47q9 9 19 19.5t22 11.5q11 1 18.5 -4.5 l7.5 -5.5q7 -1 14 -1q11 0 32.5 4t31.5 4q15 0 26 -7q1 -6 3 -12q3 -11 12 -14q12 -4 14 6q-2 5 -3 9q2 1 2 3t-13 2l5 11q16 -1 32 -1q3 -1 25 -20zM418 383q-3 2 -2 6t-8 4v-10h10zM221 383q10 -2 10 2q0 7 -10 8v-10zM164 176q11 -1 11 14q0 14 -11 12q5 -4 0 -26z" />
<glyph unicode="&#x3e;" horiz-adv-x="381" d="M327 434q4 -2 -3 -9v6q0 4 3 3zM279 425q4 -2 -3 -5q0 7 3 5zM307 391q-5 -20 -5 -36q-8 -2 -29 -9q-7 -6 -20 -14q-8 0 -28 -6q-1 0 -2.5 -3.5t-3.5 -4.5q-11 -3 -34 -12q-7 -5 -22 -14q-7 1 -23 -3q3 0 -5 -8q-11 -3 -34 -11q-6 -5 -17 -12q-5 1 -15 0v-5q-8 -1 -25 -6 q-3 -5 -9 -11q-7 -2 -22 -6q-4 28 0 34q25 12 28 11q1 -4 3 -3q2 2 2 7q1 5 -2 5q6 5 14 11q17 2 48 11q8 7 20 17h14q3 4 6 9q2 1 6 0.5t5 -0.5q6 5 17 11q6 -1 17 0q1 1 3.5 5l2.5 4q7 0 20 3q1 1 1.5 4.5l0.5 3.5q2 -2 9 -3q2 1 8 12q3 -1 9 0v11q-20 10 -68 31 q-9 2 -25 8l-6 6q1 1 1.5 3t1.5 3q-12 1 -31 3v11q-5 2 -11 -0.5t-9 -2.5q-5 4 -12 9q-1 1 -5 0.5t-6 -0.5q-1 0 -31 14q-10 5 -34 20q0 9 2 9l1 -1l3 9q-1 0 5 -6q8 5 7.5 6t1.5 2.5t3 2.5l-6 3q0 10 3 9q3 -6 11 -15q5 1 14 -2q1 -1 3 -15q15 9 23 9q6 -5 14 -11 q10 -2 31 -9q2 -3 6 -8q7 0 20 -3q6 -6 19 -14q7 0 23 -3q4 -4 11 -12q6 -1 17 -5q2 -4 6 -9q9 0 25 -3q5 -6 15 -14q5 1 14 0q7 -2 25 -17zM129 352l-3 -9q-5 2 -3 3q1 2 6 6zM101 323q3 -1 -3 -11q0 13 3 11zM253 346q0 9 -2 9z" />
<glyph unicode="?" horiz-adv-x="592" d="M393 488q0 -4 -9 -10l-1 9q-1 6 3 6q7 0 7 -5zM342 526q6 -5 6 -13t-12 -8q0 2 -1 10q-1 7 0 9q2 4 7 2zM541 526l-14 -7q-2 -13 3 -28.5t4 -26.5q-1 -9 -15 -28q-17 -23 -19 -26q-3 -7 -3 -17.5t-4 -17.5q-7 -14 -29 -35q-25 -24 -30.5 -31.5t-70.5 -104.5 q-12 -11 -27 -34q-3 -14 -2 -39q1 -28 8 -30q2 0 2 -5q0 -13 -15 -56h-117q-11 30 -13 61h20v14l-20 7q7 26 9.5 54t10.5 56l14 13q-1 8 0 21q5 6 24 13.5t24 13.5q-1 8 0 21q2 5 16.5 14t17.5 13q1 2 -7 14h14q6 21 20 55q17 11 42 34q-1 13 6 34q9 1 21 7q2 0 -7 34 q9 19 9 30t-9 11q-2 5 0 17.5t0 17.5l-75 75q-21 3 -48 7v13q-4 1 -17 -8q-16 -11 -17 -12q1 75 -7 75q40 4 40 16q0 6 -20 12q3 17 7 17q3 0 7 -4q1 3 -1 10q0 3 8 4q20 2 31 -10q13 -16 17 -17t7 -1q6 0 15 4t12 3q-1 -12 7 -27q4 -2 7 -2t7.5 5t12.5 4q21 -15 48 -34 q-1 -4 0.5 -14t-0.5 -14q-6 -2 -13 -13q32 7 34 7q12 0 41 -7q0 -16 7 -48q12 -5 27 -21q4 -15 3 -44q-3 -48 -3 -45zM205 560q19 -8 19 -11v-1q-3 -2 -32 -1q9 28 13 27v-14zM219 663l-38 -20q-24 -15 -30 -28q-7 -16 -10 -54l-4 -56q-77 7 -130 7q0 -3 -4 27q-2 19 4 35 q6 3 14 14q5 -3 11 -6t16 -1q-8 7 -27 14q3 21 20 68h21q1 3 1 5q0 5 -5.5 9t-9.5 7q16 20 48 48q8 4 24 6t24 7q4 2 7 13.5t7 14.5q9 -1 27 0q4 6 14 13h13q1 -13 7 -41h-34q-3 -12 -7 -41q-3 1 -5 1q-3 0 -2 -6v-9q15 1 41 -6q3 -10 7 -21zM311 419q0 -4 -10 -9l-1 8 q0 6 3 6q8 0 8 -5zM318 392q0 -6 -10 -17q0 -1 -1 13q0 9 4 9q7 0 7 -5zM192 492q-5 -1 -8 -1q-5 0 -5 3q0 8 13 11v-13zM119 440q0 -4 -9 -10l-1 9q-1 6 3 6q7 0 7 -5zM44 495q0 -4 -10 -10l-1 9q0 6 3 6q8 0 8 -5zM110 416q2 -1 2 -5q0 -7 -9 -22q0 -2 -1 11q0 9 1.5 14 t6.5 2zM21 430q9 0 9 -2q0 -3 -6 -6.5t-10 -5.5q0 1 -1 11q0 3 8 3zM10 406q0 -5 -10 -10q0 -1 0 9q0 6 3 6q2 0 4.5 -1.5t2.5 -3.5zM167 138q0 -6 -9 -16q0 1 -1 7t0 10q0 4 3 4q7 0 7 -5zM256 22q0 -4 -9 -10l-1 9q-1 6 3 6q7 0 7 -5zM154 84q0 -4 -10 -10q0 -1 0 9 q0 6 3 6q7 0 7 -5zM158 67q6 -1 6 -5q0 -7 -13 -9q1 3 0 8q-1 4 -1 5q2 2 8 1zM240 -1q-13 0 -43.5 3t-18.5 3q11 0 35.5 -3t26.5 -3zM151 47q2 -1 2 -5q0 -8 -9 -23q0 -3 -1 11q0 9 1.5 14.5t6.5 2.5zM315 -200q-8 -2 -16 -2q-10 0 -23 4q-17 4 -23 5q2 0 2 -1q0 -6 -22 -6 q-9 1 -22 12q-16 13 -19 15q0 10 6 44q6 39 7 45q-7 1 -20 7q26 13 34 14q13 2 41 -2q33 -5 48 -5q23 -45 23 -95q0 -31 -16 -35zM151 -159q-9 0 -9 27q0 28 9 28v-55zM301 738q4 9 4 14q0 9 -10 7q-7 -2 -7 -8q0 -9 13 -13zM438 588q0 2 1 10q1 3 -7 3z" />
<glyph unicode="A" horiz-adv-x="862" d="M586 642q0 -6 -9 -16q0 -1 -1 12q0 9 4 9q2 0 4 -1t2 -4zM614 554q0 -4 -10 -9v9q0 5 3 5q7 0 7 -5zM627 521q0 -6 -10 -16q0 -1 -1 12q0 9 4 9q7 0 7 -5zM647 467q0 -4 -9 -9l-1 8q0 6 3 6q7 0 7 -5zM667 407q0 -4 -9 -10l-1 9q-1 6 3 6q7 0 7 -5zM688 347q0 -4 -10 -10 l-1 9q0 5 3 5q8 0 8 -4zM694 320q0 -4 -9 -10q0 1 -1 9q-1 6 2 6q2 0 5 -1.5t3 -3.5zM714 266q0 -4 -9 -10l-1 9q-1 6 3 6q7 0 7 -5zM735 212q0 -4 -10 -9l-1 8q0 6 3 6q8 0 8 -5zM741 185q0 -4 -9 -9l-1 8q0 6 3 6q7 0 7 -5zM812 -200q-92 0 -141 7q-17 59 -34 117 q-28 88 -46 97q-33 15 -148 7q-186 -13 -235 -7q-25 -63 -74 -181h-27q-3 -2 -5 -13t-8 -14q-23 -10 -94 0q1 23 13 68q7 1 21 13q1 0 33 -13q-30 25 -30 51q0 12 3 29l14 13q-1 18 6 54q10 4 21 14q4 11 3.5 34t2.5 33q2 6 16.5 40.5t17.5 39.5l13 7q3 9 3.5 27t3.5 27 q18 25 40 60q-1 11 0 34q5 17 22 48q21 35 25 46q-1 10 0 26q12 18 27 47q-1 10 0 27q12 10 27 27q2 6 1 20q-2 15 -1 20q3 12 18 32.5t15 21.5q4 10 4 30t3 30q9 16 27 47q0 7 7 21q17 13 33 13q4 0 12 -6.5l8 -6.5q16 -5 68 0q12 -47 40 -148q13 -22 27 -47q2 -19 13 -60 q9 -8 20 -21q7 -18 10 -46q4 -31 10 -48q17 -31 41 -87q-2 -11 0 -33q12 -14 26 -41q4 -9 4 -24t3 -23q1 -1 10.5 -10t9.5 -10q4 -11 4 -33.5t3 -33.5l13 -7q5 -10 7.5 -29.5t6.5 -30.5q10 -9 20 -20q8 -23 15 -57q7 -40 12 -57h40q-31 -11 -31 -19q0 -7 18 -15q1 -11 6 -27 t5.5 -36.5t1.5 -23.5zM332 11q0 -4 -10 -10l-1 9q0 6 3 6q8 0 8 -5zM289 -72q-5 -2 -8 -2q-5 0 -5 6q0 19 13 22q7 2 7 -5q0 -11 -7 -21zM121 -193q-13 -3 -13 5q0 13 13 15q9 -18 0 -20zM544 156q-8 70 -21 114l-13 13q2 12 0 34q-9 8 -20 20q-3 10 -3 28v8q-1 19 -4 31 q-9 8 -20 20q-6 14 -7.5 37.5t-5.5 36.5q-1 2 -10.5 10.5t-9.5 9.5q-5 10 -5.5 25.5t-1.5 21.5h-27q-2 -16 -13 -47l-14 -7q-5 -15 -7 -40.5t-6 -39.5q-8 -26 -33.5 -78t-33.5 -75.5t-27 -121.5q63 -9 135 -9t147 9zM423 545q2 -1 2 -5q0 -7 -9 -22q0 9 -1 18q1 13 8 9z M406 487q0 -4 -10 -9v9q0 5 3 5q7 0 7 -5zM379 421q0 -4 -10 -10l-1 8q0 6 3 6q8 0 8 -4zM443 344q2 -1 2 -4q0 -7 -9 -17q0 7 -1 15q1 9 8 6zM359 366q0 -4 -10 -9v9q0 5 3 5q7 0 7 -5zM342 337q3 -1 3 -4q0 -6 -9 -16q0 -1 -1 9q-1 6 0 9q2 5 7 2zM332 300q0 -4 -10 -10 l-1 9q0 5 3 5q8 0 8 -4zM406 212q0 -4 -10 -9v9q0 5 3 5q7 0 7 -5zM309 263q2 -1 2 -5q0 -7 -9 -22q0 9 -1 18q1 13 8 9z" />
<glyph unicode="B" horiz-adv-x="786" d="M709 131q5 -17 5 -33q0 -47 -32 -75q-3 -2 8 -8q7 -3 13 -6q-2 -20 -14 -60q-6 -3 -13 -7q-1 -10 -7 -27q-15 -24 -66.5 -59t-82.5 -42q-41 -10 -89 -10q-16 0 -56 2q-35 2 -57 1q-12 0 -59 -4q-40 -4 -56 -3q-34 3 -68 5q-32 2 -61 -5q-2 5 -1 21t-5 20h-27q-2 5 -21 13 q-4 49 -6 47q0 4 6.5 12t6.5 9q3 11 7 101q1 28 -6 76q-8 53 -8 79q0 7 7 38.5t7 36.5q2 34 -2 88q-6 64 -6 89q0 16 1 32q10 123 7 156q-6 78 -6 89q0 48 13 66q7 10 141 27q14 2 38 -2q15 -3 30 -5q185 -9 243 -7q6 -12 20 -36.5t21 -37.5q67 12 73 12q21 0 29 -16.5 t6 -62.5q35 -13 38 -14.5t1 -12.5q-3 -18 1 -41q7 -3 14 -7q0 -77 -1 -90q-3 -48 -19 -72q-11 -7 -27 -20q0 -7 -7 -20q-4 -4 -13.5 -4t-13.5 -3t-4.5 -10.5t-2.5 -9.5q-7 -1 -20 -7q-2 -10 0 -27l20 -7v-20q25 -10 61 -27v-34q2 -4 13.5 -9t13.5 -11q3 -9 1 -27 q-2 -20 -1 -27zM9 532q0 -6 -9 -16q0 -1 -1 12q0 9 4 9q6 0 6 -5zM7 482q3 -1 3 -7q0 -10 -10 -33q0 44 7 40zM16 404q0 -6 -9 -16q0 -1 -1 12q0 9 4 9q6 0 6 -5zM7 374q0 -17 -3 -51l-4 -43q0 17 3 52zM14 266q2 -1 2 -6q0 -11 -9 -34q0 44 7 40zM7 212q3 -1 3 -7 q0 -13 -10 -40q0 50 7 47zM7 145q3 -1 3 -7q0 -11 -10 -34q0 45 7 41zM14 91q3 -1 3 -8q0 -13 -10 -40q0 52 7 48zM10 26q0 -4 -10 -10l-1 9q0 6 3 6q8 0 8 -5zM7 -45q3 -1 3 -7q0 -10 -10 -33q0 43 7 40zM554 678l1 11q0 3 -8 3zM466 739q-1 7 -2.5 14.5t-10.5 5.5v-13 q4 -2 13 -7zM581 523q-12 20 -34 68q-10 30 -20 40q-4 3 -68.5 25.5t-66.5 21.5q-1 0 -7 -10t-7 -10q-6 -2 -14 -2q-12 0 -32 4.5t-21 4.5q-59 5 -129 -14q-9 -73 -9 -142t9 -135q14 0 59 -1h71q190 0 202 35q3 9 1 27q-2 21 -1 27q0 -1 2.5 -20t3.5 -27q36 68 61 108z M561 178q-12 7 -27 21v13q-14 11 -66 26t-76 15q2 0 -54 -14q-30 -2 -76 2q-56 5 -80 5q-5 -11 -13 -27h20q-2 -7 -7 -7q-15 0 -13 0q4 -32 4 -77q0 -28 -3 -96q-2 -57 -1 -84q27 -13 81 -27l41 14q19 0 56.5 -4.5t54.5 -4.5q13 0 24 2l13 14q11 1 23 0q16 -2 19 -2 q12 0 26 8q4 3 7 13.5t6 13.5q13 5 34 21q25 36 25 95q0 47 -18 80zM507 516q3 -2 3 -7q0 -11 -10 -33q0 44 7 40zM381 607q0 -5 -9 -10l-1 9q0 6 3 6q7 0 7 -5zM334 600q0 -4 -10 -9l-1 8q0 6 3 6q8 0 8 -5zM415 465q0 -4 -10 -10l-1 9q0 6 3 6q8 0 8 -5zM415 404 q0 -4 -10 -9v8q0 6 3 6q7 0 7 -5zM250 536q13 -1 14 -2q-12 0 -26 1q-26 1 -8 1q10 3 20 0zM503 215q0 -4 -10 -10l-1 9q0 6 3 6q8 0 8 -5zM520 172q3 -1 3 -5q0 -7 -9 -22q0 -2 -1 10q0 9 1 14t6 3zM537 121q0 -4 -10 -10l-1 9q-1 6 3 6q8 0 8 -5zM432 111q3 -1 3 -5 q0 -8 -9 -22q0 -2 -1 10q-1 9 0 14q2 6 7 3zM523 5q0 -4 -9 -9l-1 9q0 5 3 5q7 0 7 -5zM236 -18q12 -1 13 -2q0 -1 -19 0q-18 0 -32 1t-2 1q32 1 40 0z" />
<glyph unicode="C" horiz-adv-x="738" d="M630 410q3 -1 3 -5q0 -8 -10 -23q0 9 -1 19q1 13 8 9zM603 368q-14 0 -47 3.5t-22 3.5q-1 0 69 -7zM516 412q0 -6 -9 -16q0 -1 -1 12q0 9 4 9q6 0 6 -5zM342 560q-7 14 -7 23q0 8 7 5q11 -5 11 -23q0 -7 -5 -7q-2 0 -6 2zM377 478l12 -1q-13 -1 -19 -1q-17 1 -31.5 1.5 t-2.5 0.5h41zM705 519q-57 -19 -143 -7q0 20 -7 55h-14q-8 3 -18 24.5t-16 23.5q-6 3 -17.5 0.5t-16.5 -0.5q-7 3 -20.5 17.5t-20.5 16.5q-18 5 -43 5q-44 0 -94 -13q-46 -12 -62 -26q-1 -8 -7 -20q-7 0 -21 -7q-5 -6 -7 -17.5t-6 -17.5q-13 -10 -28 -27q-3 -11 -1 -34 q2 -25 1 -34l-13 -35q-2 -11 -2 -23q0 -15 6 -58q5 -38 3 -63q-10 -135 0 -191q4 -24 14 -36.5t20 -25.5l32 -48q22 -28 43 -34q14 2 41 0q1 0 24 -9q17 -6 31 -6q7 0 14 1l20 14q8 1 14.5 -3.5t12.5 -4.5q3 0 8 1l47 27q12 7 45.5 43t37.5 46v14q12 5 30 5q12 0 30.5 -2.5 t21.5 -2.5h48q2 -14 0 -41q-13 -14 -28 -41q4 -9 0 -34q-5 -12 -55 -62.5t-61 -54.5q-14 0 -41 -7q-5 -9 -14 -20q-46 -19 -132 -19q-62 0 -94 12q-1 0 -3.5 6.5t-3.5 7.5q-11 3 -25 3h-9q-17 0 -27 4l-62 41v13q-27 22 -53 44q-31 28 -43 52q1 10 0 28q-16 29 -34 75 q-2 13 3 33.5t4 34.5q-7 30 -14 69q-1 13 -1 26q0 31 7 79q7 56 8 73t-4.5 45t-5.5 41q0 12 3 24q13 11 27 27q2 6 2 13q0 6 -2.5 19t-2.5 20q0 9 3 17h7q3 12 7 27q12 4 27 14q5 5 6 17.5t8 16.5q9 0 21 7v13q18 3 41 14q3 5 2.5 14.5t4.5 13.5q15 14 52 30q15 6 30 11h55 l6 20q10 -1 28 0v-34q9 0 20 -7l7 21q-20 10 -20 20q0 6 13 7q6 0 19.5 -7t15.5 -7q8 0 13.5 7t6.5 7q22 -9 48 -21q-1 -20 0 -20q9 -2 14 9t27 11q7 0 51 -25.5t45 -28.5q-2 -9 0 -21q9 -1 27 -7q7 -5 21 -29q17 -27 21 -32q8 0 20 -7q5 -7 5 -21t2 -20q0 -2 10 -14t10 -14 q-1 -13 0 -41zM222 357q0 -6 -10 -16q0 -1 -1 13q0 9 4 9q7 0 7 -6zM215 323q0 -6 -10 -16q0 -1 -1 12q0 9 4 9q7 0 7 -5zM208 289q0 -6 -9 -16q0 1 -1 7t0 10q0 4 3 4q7 0 7 -5zM212 204q-8 0 -8 28q0 27 8 27v-55zM205 190q0 -17 -3 -55t-3 -47q0 17 3 55t3 47zM215 70 q0 -6 -10 -17q0 -1 -1 13q0 9 4 9q7 0 7 -5zM222 35q0 -6 -10 -16q0 -1 -1 13q0 9 4 9q7 0 7 -6zM151 656q12 -3 12 2q0 10 -12 12v-14z" />
<glyph unicode="D" horiz-adv-x="889" d="M822 221l-13 -20q-2 -10 -2 -22q0 -11 2.5 -34t2.5 -34q0 -16 -3 -28h-6q-7 -29 -27 -79q-2 -4 -9.5 -7t-9.5 -6q-1 -10 -7 -27q-17 -27 -77 -69t-94 -49q-11 1 -33 0q-10 -9 -26 -20q-12 -2 -23 -2q-14 0 -45 6q-27 5 -44 3q-4 0 -24.5 -10t-28.5 -10q-3 6 -6 13 q-7 0 -87 3q-46 2 -78 -3l-6 20q-11 2 -12 -11q-1 -2 -2 -2q-5 -1 -6 1q-1 1 0 5.5t0 6.5l-33 -7q-1 16 0 47q1 6 10.5 21.5t9.5 24.5q0 1 -10 13t-10 13q-8 32 -8 86q0 40 8 144q5 70 -7 178q6 -3 14 -27v139q-3 20 -7 59q-22 -1 -22 3q0 1 2 3h20q6 25 8 64q2 49 5 68 q8 0 20 7q-10 7 -26 13v13q-3 8 -4 33q-2 31 4 46q0 1 9.5 6.5t9.5 6.5q17 -5 34 -9.5t35 -4.5q10 0 23 1q5 1 39 8q26 6 47 5q5 0 32 -10l27 -10q2 7 7 20q23 0 69.5 -3.5t61.5 -3.5q21 11 33 7q7 -2 43.5 -33.5t42.5 -32.5q2 0 10.5 4.5t14.5 4.5q4 0 8.5 -2.5t9.5 -17.5 q6 -18 9 -22q6 -7 23 -14t23 -12q47 -40 73 -178q0 -21 -7 -39q13 -42 13 -158q-11 0 -11 -3q1 -2 6.5 -4.5t6.5 -31.5q2 -25 -2 -40zM13 530q2 -1 2 -5q0 -7 -8 -21q0 -2 -1 10q-1 9 0.5 14t6.5 2zM118 418q3 -1 3 -7q0 -10 -9 -32q0 43 6 39zM26 464q6 -1 6 -5 q0 -6 -12 -8q1 3 0 7.5t0 5.5t6 0zM15 421q0 -6 -8 -16q0 21 3 21q5 0 5 -5zM118 307q3 -1 3 -5q0 -5 -9 -15q0 7 -1 14q0 9 7 6zM16 375q0 -4 -9 -9l-1 8q0 6 3 6q7 0 7 -5zM118 267q3 -1 3 -7q0 -11 -9 -32q0 42 6 39zM16 342q0 -4 -9 -9l-1 8q-1 6 3 6q7 0 7 -5zM118 208 q0 -20 -3 -57l-3 -48q0 19 3 57q3 47 3 48zM13 300q0 -19 -3 -60t-3 -52q0 21 3 61q3 48 3 51zM13 116q3 -1 3 -7q0 -11 -9 -33q0 -3 -1 15q0 13 1 20t6 5zM112 -49q-8 0 -8 26q0 27 8 27v-53zM7 63q0 -17 -3 -50q-4 -41 -4 -42q0 17 3 50q4 41 4 42zM158 -200q11 -1 12 -1 q-13 -1 -19 -1q-16 1 -30 1.5t-3 0.5h40zM7 -55q2 -1 2 -7q0 -10 -9 -33q0 43 7 40zM7 -161q2 -1 2 -5q0 -7 -9 -21q0 9 -1 17q1 13 8 9zM572 747q0 1 1 10q0 4 -7 4zM579 655q-1 2 0 10q1 3 -7 3zM691 326q-7 0 -8 7q1 6 1 13q-1 14 0 79q1 47 -6 79q-4 18 -35.5 67.5 t-43.5 57.5q-7 4 -19 5q-15 0 -21 2q-11 9 -26 19q-23 5 -54 3q-41 -3 -45 -3q-45 2 -138 20q-31 -40 -31 -68q0 -20 11 -57h20q2 -2 2 -3q0 -3 -10 -3q-6 -1 -12 -1q-3 -37 -13 -118q8 0 8 -10q0 -14 -8 -29q9 -55 0 -172q-2 -21 -2 -46q0 -38 5 -112q5 -68 4 -92 q62 -12 122 -12q43 0 82 6l26 13q8 0 15 -4.5t18 -2.5q11 10 26 20q7 2 20 -2l13 -4v19l26 33h14q16 21 32 46q17 44 17 114q0 18 -1.5 59t-1.5 64q-3 0 -2 1q0 2 8 6q0 -4 2 -4q1 0 5 10zM526 379q3 -1 3 -4q0 -6 -9 -16q0 1 -0.5 8.5t0.5 9.5q1 4 6 2zM533 353q2 -1 2 -5 q0 -8 -9 -22v18q0 12 7 9zM357 454q0 -6 -8 -16l-1 12q0 9 4 9q5 0 5 -5zM546 195q-1 -11 -1 -17q-1 14 0 34q1 37 1 35v-52zM303 438q13 -1 13 -2q-12 0 -25 1q-26 1 -8 1h20zM434 280q-8 0 -8 18q0 17 8 15v-33zM444 263q0 -4 -10 -9v9q0 5 3 5q7 0 7 -5zM546 149 q2 -1 2 -4q0 -6 -9 -16v14q0 9 7 6zM441 214q2 -1 2 -5q0 -7 -9 -21q0 9 -1 17q1 13 8 9zM533 76q0 -74 -6 -74q-1 2 -1 9q0 6 7 65zM434 168q0 -16 -3 -53t-3 -45q0 -16 6 98zM430 26q0 -5 -9 -15q0 -1 -1 12q0 8 4 8q6 0 6 -5z" />
<glyph unicode="E" horiz-adv-x="651" d="M611 552q2 -1 2 -7q0 -11 -9 -34q0 44 7 41zM607 494q0 -4 -10 -9l-1 8q0 6 3 6q8 0 8 -5zM483 585q-13 0 -42.5 3.5t-17.5 3.5q4 0 60 -7zM349 585q5 0 -7 -6q47 3 50 5q-6 1 -43 1zM456 485q13 -1 14 -2q0 -1 -26 0q-25 1 -8 2h20zM416 471h-148q12 6 6 8q-5 1 -11 0 q6 -1 12 -1q15 0 141 -7zM564 169q-8 0 -8 17q0 19 8 17v-34zM164 548q0 -4 -10 -10v9q0 6 3 6q7 0 7 -5zM248 458q3 -2 3 -6q0 -7 -9 -21q0 -1 -1 11q-1 9 0.5 14t6.5 2zM631 -72q-1 -2 -20 -21q0 -2 7 -15.5t6 -17.5q0 -1 -20 -7q-6 -40 13 -60q-4 -1 -19.5 -5.5 t-24.5 -4.5t-16 3q-1 0 -4.5 7t-8.5 6q-3 -6 -7 -13q2 0 -30 -2q-20 -1 -30 2q-6 2 -6 6q0 2 1.5 5.5t1.5 4.5q0 6 -18 4v-13q-6 -1 -26 -7q-12 -2 -29 -2q-16 0 -50.5 2.5t-51.5 2.5q-21 0 -37 -3q-1 1 -7 13q-10 0 -14 -6t-6 -7q-22 -6 -67 -6q-75 0 -161 13q-4 33 -4 75 q0 30 3 90t3 90q0 25 -2 47q-14 188 0 369q2 27 -3.5 83t-3.5 78q8 18 20 47q-9 3 -20 13q-3 20 7 94q7 0 24 -3.5t23 -2.5q9 1 19 7t14 6q9 -1 19 -10t15 -10q14 -2 32.5 9t20.5 11q19 3 42 -4q28 -9 32 -9q15 -1 31 -1q29 0 80 5.5t77 5.5q42 0 81 -10h40q36 6 67 6 q11 -73 -7 -141q-20 -2 -42 -2q-3 0 -119 9q-14 1 -38 -2q-14 -3 -29 -5q-33 -2 -80 -2h-57q-56 0 -91 -4q0 -4 -6.5 -27t-6.5 -27q-5 -44 -5 -84q0 -57 11 -131q10 -2 35 -10q17 -5 25 -5q22 0 28 55v-53q24 -2 69 2q52 4 72 4t63.5 -4.5t65.5 -4.5q21 0 38 3l14 -114 l-14 -14q-23 -8 -62 -8q-24 0 -79 4.5t-80 3.5q-8 0 -34 -6q-5 0 -14.5 7.5t-18.5 5.5l-14 -13q-15 0 -31.5 5.5t-24.5 5.5q-10 0 -24 -5q-7 -8 -20 -20q8 -62 6 -94q-1 -9 -9 -56q-7 -43 -7 -68q0 -32 10 -50q11 -6 26 -20q73 8 134 8q55 0 75 -8l6 -14q7 -1 7.5 4t2.5 5 q1 -1 4 -2q1 -9 6 -20q9 -1 21 0l6 33q37 2 87 0q4 -1 7.5 -10.5t26.5 -9.5l7 20q22 -3 67 -6zM470 149q-10 0 -34.5 1.5t-42 3.5t-10.5 2q16 1 47 -3zM248 28q-8 0 -8 27t8 27v-54zM47 733q-2 1 1 10t3 12q0 8 -11 5q-3 -1 -3 -4q0 -7 10 -23zM517 -113q4 -3 4 3 q0 21 -11 24h-13q3 -2 10 -13.5t10 -13.5z" />
<glyph unicode="F" horiz-adv-x="635" d="M453 781q-34 8 -34 9q0 3 28 10q2 -7 6 -19zM346 800q12 -1 13 -2q-28 1 -32 2h19zM201 794q-11 0 -39 3t-17 3q10 0 32 -3t24 -3zM119 794l11 -1q0 -1 -17 -1q-16 0 -28.5 1t-2.5 1q29 1 37 0zM421 460q-1 -18 -6 -63q0 1 -3.5 16.5t-3.5 24.5q0 6 1 10zM358 479 q12 -1 13 -2q-12 0 -24 1q-24 1 -7 1h18zM19 787q2 -1 2 -5q0 -7 -8 -20q0 -1 -1 10q-1 9 0.5 13.5t6.5 1.5zM25 750q3 -1 3 -4q0 -5 -9 -15q0 7 -1 13q0 9 7 6zM28 702q0 -4 -9 -9l-1 8q0 6 3 6q7 0 7 -5zM679 618q-109 -28 -314 -19l-13 12q-8 2 -49 0q-45 -1 -58 -6 q-3 -5 -12 -13q0 -50 -7 -106q16 -3 16 -5q0 -1 -3 -2q-21 -5 -13 -44q6 -5 13 -25q1 -15 -13 -57q0 -6 7 -37q25 0 69 -5q35 -4 56 -2q3 6 7 13q28 4 82 0l12 -13q19 -1 63.5 7t62.5 6v-13q5 -1 7.5 4t11.5 3q4 -5 12 -13q-2 -15 -6 -100q-61 0 -101 6q-5 1 -10.5 -2.5 t-1.5 -3.5q-13 2 -23 2q-14 0 -36.5 -4.5t-41.5 -4.5q-17 0 -68.5 3.5t-75.5 3.5q-11 -15 -26 -45q-6 -30 -6 -70q0 -28 4 -86t4 -87q0 -71 -20 -115q-8 1 -13 7t-6 6q-12 2 -49 -0.5t-52 0.5q-8 90 0 94q6 -2 19 0v12h-13q-1 7 -5.5 19.5t-4.5 27.5q0 13 4 36q5 27 6 37 q0 -3 -3.5 11t-2.5 20q1 5 8 52q5 36 5 55q0 12 -4.5 53t-4.5 64q0 16 2 28l13 31q1 9 -6 34t-7 29q-3 38 -2 85q2 79 2 85q1 41 0 50q2 32 0 82l7 7q10 1 20 1q17 0 49 -5q29 -4 50 -3l32 13q26 4 88 -6q5 -1 10.5 2.5t1.5 3.5q12 0 44 -4q28 -4 38 -2q1 0 8 6t11 6 q40 2 94 -6l25 -13q6 1 11.5 10t7.5 9q8 2 16 -5t9 -7q12 -2 23 1q15 5 21 5q2 -5 -3 -11.5t-3 -7.5q21 -14 23 -25l2 -32h-31q30 -20 31 -25v-12zM19 605q2 -1 2 -7q0 -12 -8 -37q0 47 6 44zM28 545q0 -4 -9 -9v8q-1 5 2 5q2 0 4.5 -1t2.5 -3zM19 486q0 -24 -3 -70 q-3 -55 -3 -63q0 37 6 133zM19 335q2 -2 2 -8q0 -11 -8 -36q0 47 6 44zM13 228q2 -1 2 -6q0 -10 -9 -32v24q0 17 7 14zM21 174q0 -4 -8 -9l-1 8q0 5 3 5q6 0 6 -4zM8 148q0 -6 -8 -15l-1 12q0 8 4 8q5 0 5 -5zM57 89q12 -1 13 -2q-12 0 -25 1q-24 1 -7 1h19z" />
<glyph unicode="G" horiz-adv-x="853" d="M521 485q0 -4 -10 -10l-1 8q-1 6 3 6q8 0 8 -4zM527 458q0 -4 -9 -10l-1 9q0 6 3 6q7 0 7 -5zM312 521q-15 2 -32 4q-21 3 -8 3q19 0 40 -7zM796 123q-3 -24 -22.5 -79.5t-30.5 -72.5q-16 -12 -40 -40q0 -10 -6 -27q-26 -15 -67 -40q-4 -9 -13 -20q-11 -5 -30 -7t-30 -6 q-2 -1 -10 -10.5t-9 -9.5q-38 -11 -75 -11q-55 0 -151 38q-20 3 -60 20q-10 15 -33 40q-18 11 -36 23q-24 15 -27 31q2 10 -3 32q-14 12 -34 40q-12 34 -13 90v89q2 46 -6 132q-10 10 -10 13q1 1 3 1q7 -1 7 6v14q15 127 13 166q12 3 40 13v13q-10 4 -18 8t-8 10q0 5 6 22 q3 8 20 18t20.5 15.5t12.5 36.5q6 23 20 29q7 3 23 3t23 4q4 2 -13 13q56 49 86 53q15 2 28.5 -5.5t18.5 -7.5q17 13 39 27l7 -7h13q3 2 4 10.5t10 9.5q16 2 32 -4q11 -5 21 -9q18 2 53 0q29 -5 86 -47q14 -17 46 -46q15 -3 40 -20q-1 -10 0 -27q1 -2 10 -6.5t10 -6.5 q25 -34 33 -66q-1 -11 0 -33q-14 -2 -33 -7q-1 -1 -3.5 -12.5t-22.5 -14.5l-27 14q-8 0 -15 -4.5t-18 -2.5q-14 3 -43 49q-32 50 -42 56.5t-23 8.5q-19 3 -25 5q-45 15 -88 15q-126 0 -177 -107q-11 -22 -20.5 -97.5t-6.5 -115.5q0 -3 7.5 -28.5t6.5 -44.5l-14 -20v-13 q-3 -31 0 -53l14 -13q2 -8 0 -26.5t0 -26.5q12 -16 26 -40q-1 -15 0 -47q45 -9 53 -20q3 -14 13 -33q18 -8 60 0q29 -7 56 -7q66 0 123 47q68 57 68 173q0 15 -1 33q-27 9 -48 9q-17 0 -58 -9q0 -12 -3.5 -40.5t-3.5 -32.5v61q-3 15 -17 18q-28 4 -56 7v13q1 43 0 73v20 q31 16 86 13q0 -7 7 -19q14 8 14 11q0 1 -1 2q5 2 13 20q8 0 19.5 3t14.5 3q9 -1 38 -15q26 -12 41 -11q15 10 33 20q20 3 67 0q1 -4 0 -10q-1 -2 6 -4q-2 -11 -4.5 -17t-8 -8.5t-5.5 -4.5q0 -5 18 -9q0 -12 -6 -93q8 -4 8 -38q0 -25 -2 -42zM534 113q0 -4 -10 -10l-1 9 q0 6 4 6q2 0 4.5 -1.5t2.5 -3.5zM425 176q2 -1 2 -5q0 -7 -9 -21q0 9 -1 17q1 13 8 9zM520 66q0 -6 -9 -16q0 -1 -1 12q0 9 4 9q6 0 6 -5zM418 136q3 -1 3 -7q0 -10 -10 -32v24q0 18 7 15zM282 245q0 -4 -10 -9v9q0 5 3 5q7 0 7 -5zM43 465q0 -4 -10 -10l-1 8q0 6 3 6 q8 0 8 -4zM13 442q3 -1 3 -6q0 -7 -9 -21q0 -2 -1 11q0 9 1 13.5t6 2.5zM13 389q3 -1 3 -5q0 -5 -9 -15q0 -1 -1 9q0 6 1 9.5t6 1.5zM9 351q0 -6 -9 -16q0 -1 -1 13q0 8 4 8q6 0 6 -5zM7 243q-8 0 -8 16q0 19 8 17v-33zM7 216q0 -19 -3 -57q-4 -44 -4 -49q0 19 3 57 q4 44 4 49zM13 97q3 -1 3 -6q0 -7 -9 -21q0 -2 -1 11q0 9 1 13.5t6 2.5z" />
<glyph unicode="H" horiz-adv-x="746" d="M264 484q0 -4 -9 -9v9q-1 5 2 5q7 0 7 -5zM242 526q-12 0 -40 3t-17 3q12 0 57 -6zM471 214q13 -1 13 -2q-27 1 -32 2h19zM168 510q0 -4 -9 -9v8q0 5 3 5q6 0 6 -4zM669 55q-1 -8 -7 -89q0 -2 -7 -21.5t-5 -36.5h12v-44q-6 -2 -6 -4q1 -5 0 -9q-2 0 -51.5 -7t-56.5 -6 q-8 1 -22.5 18.5t-15.5 26.5q0 1 12 32q2 9 2 19q0 12 -4 34.5t-4 35.5q0 7 6 76q5 65 5 103q0 58 -11 76q-1 2 -32 19q-10 1 -24 -7q-20 -12 -21 -12q10 1 -15 1t-35 -1q4 0 -9.5 3t-16.5 3q-35 -9 -51 -6q-13 6 -44 12q-17 0 -52 -5q-43 -6 -57 -7v-19q-1 -8 -6 -13 q0 6 -7 32q0 -3 -6 -14t-6 -12q-2 -28 -2 -63q0 -36 3.5 -112.5t3.5 -113.5q0 -50 -5 -87q-15 -4 -29 -8q-20 -6 -35 -6q-10 0 -19 2q-15 2 -32 6q-13 7 -15 24t-4 33q8 2 8 8q0 3 -3.5 10t-3.5 10q0 7 12 10v13h-13q9 114 9 218q0 105 -9 222q-3 33 5 97q9 68 8 94l-13 25 q-2 24 3 63q6 45 6 66q0 19 -3 37q5 6 13 13q9 3 47.5 5t41.5 1q5 -1 8 -12t4.5 -12t10.5 -4t9 -4q0 -4 -6 -24q-3 -13 0 -27q3 -5 7 -11q5 -9 5 -21q0 -6 -6 -30t-6 -27q0 -6 4 -14t2 -18q0 -1 -9 -9t-10 -10q-1 -18 0 -19h13q0 -9 3 -20.5t3 -17.5q0 -1 -6.5 -12t-6.5 -14 l13 -12q8 -28 13 -90q57 -2 115 -6q1 0 6 -9.5t6 -9.5q5 -1 22 8.5t23 10.5q18 3 44 -1q13 -3 26 -5q41 4 115 6q9 20 19 51q2 17 -3 48q-5 35 -5 48q0 22 8 38q8 4 8 8q0 3 -2 4q-16 11 -16 71q0 20 3 31q1 4 14 16t12 29q-10 17 -26 45q15 5 39 12q29 9 49 9q8 0 14 -2 q2 -1 6.5 -9.5t6.5 -9.5q7 0 19 -7q1 -1 -3 -10t-4 -15q0 -4 1 -7l19 -6q-7 -21 -11 -112q-3 -84 -8 -86q9 -6 19 -19q2 -8 -7 -25q-2 -19 7 -89q-19 -10 -13 -64q6 -22 13 -51q1 -15 1 -31q0 -29 -7 -86.5t-7 -92.5q0 2 3 24.5t3 32.5q-2 1 -2 5q0 7 9 21v-102zM172 488 q3 -1 3 -4q0 -5 -9 -15q0 -1 -1 8q0 7 1 10t6 1zM672 -37q0 -5 -10 -10q0 -1 0 8q0 6 3 6q7 0 7 -4zM168 453q0 -4 -9 -10l-1 9q0 5 3 5q7 0 7 -4zM344 214q-12 0 -40 3t-17 3q10 0 32.5 -3t24.5 -3zM662 -162q2 -1 2 -5q0 -7 -8 -20q0 1 -0.5 10t0.5 12q1 6 6 3zM299 118 q13 -1 13 -2q-12 0 -24 1q-25 1 -8 1q10 2 19 0zM599 -200q12 -1 13 -2q-28 1 -32 2h19zM166 220q0 -20 -3 -58q-4 -44 -4 -50q0 20 3 58q4 45 4 50zM268 87q0 -72 -6 -72q-1 1 -1 8q0 5 7 64zM168 89q0 -5 -9 -15q0 -1 -1 12q0 8 4 8q6 0 6 -5zM263 -7q0 -6 -8 -15l-1 12 q0 8 4 8q5 0 5 -5zM159 -47q-8 0 -7 17q0 17 7 15v-32zM318 284q0 1 1 10q0 3 -7 3z" />
<glyph unicode="I" horiz-adv-x="288" d="M0 521q-1 -11 -1 -17q-1 14 0 34q1 39 1 38v-55zM10 483q0 -4 -10 -10v9q0 6 3 6q7 0 7 -5zM16 456q0 -6 -9 -17q0 -1 -1 13q0 9 4 9q6 0 6 -5zM204 -98q2 -12 2 -23q0 -30 -16 -79q-73 -10 -136 7q0 56 7 102q-10 1 -27 7h27q3 32 -1 84l-6 86q-2 36 3 96q5 69 5 100 q0 21 -1 42q0 4 -5 36q-5 29 -5 47q0 15 3 26l14 13q2 10 2 21q0 22 -11 70t-11 77q0 25 6 50q4 15 16.5 21.5t24.5 12.5v20q-5 1 -27 6q-6 2 -6 6q0 2 2.5 15t3.5 28q4 2 7.5 -3.5t12.5 -3.5q4 1 20 16.5t28 17.5q16 3 39 -2.5t29 -17.5q7 -15 6 -100q-1 -78 -6 -118 l-14 -34q0 -11 7 -18.5t7 -8.5q2 -12 -2 -46q-5 -41 -5 -50q5 -39 7 -122q-2 -28 0.5 -92.5t-0.5 -97.5q0 -4 -9 -75q-6 -54 -5 -75q6 -17 14 -41zM16 265q0 -6 -9 -16q0 -1 -1 12q0 9 4 9q6 0 6 -5zM7 235q3 -1 3 -7q0 -10 -10 -33q0 44 7 40zM7 174q2 -1 2 -5q0 -7 -9 -22 q0 9 -1 18q1 13 8 9zM14 133q0 -77 -6 -77q-1 2 -1 9q0 8 7 68zM14 31q3 -1 3 -7q0 -11 -10 -34q0 45 7 41zM7 -23q3 -1 3 -8q0 -13 -10 -40q0 51 7 48z" />
<glyph unicode="J" horiz-adv-x="654" d="M593 628q0 -6 -9 -16q0 -1 -1 12q0 9 4 9q6 0 6 -5zM580 521q0 -4 -10 -10v9q0 6 3 6q7 0 7 -5zM584 391q3 -1 3 -7q0 -11 -10 -34v26q0 18 7 15zM577 277q-8 0 -8 16q0 19 8 17v-33zM587 259q0 -4 -10 -9l-1 8q0 6 3 6q8 0 8 -5zM580 212q0 -4 -10 -9v8q0 6 3 6 q7 0 7 -5zM560 31q0 -4 -10 -10l-1 9q0 6 3 6q8 0 8 -5zM550 297q2 -6 2 -16q0 -18 -7.5 -56.5t-7.5 -48.5q0 -14 2.5 -45t2.5 -47q0 -27 -5 -49q-9 -10 -20 -27q2 -15 0 -40q-2 -5 -16.5 -14.5t-17.5 -12.5q-21 -28 -41 -56q-25 -31 -53 -45q-43 -21 -76 -21q-6 0 -9.5 1 t-7.5 8t-14 6q-13 -1 -13 -7q0 -4 5.5 -12t5.5 -11q0 -7 -33 -7q-35 0 -78.5 10t-61.5 20q-55 32 -60 40q1 13 -7 34q-16 6 -33 13q-2 10 -7 27q5 2 13 7q1 1 7 13q13 -2 34 0q7 13 20 27q9 2 11 0q1 -1 0 -7q-1 -5 2 -7q2 2 6.5 -1l7.5 -5q4 9 20 27q1 -12 7 -27 q29 -23 114 -23q46 0 67 9q21 21 47 34v13q10 3 27 14q4 5 6.5 20t6.5 20l13 7q1 7 1 18q0 13 -4 57q-4 40 -3 59q5 77 5 208q-1 152 1 208q-6 -5 -6 40q0 80 6 94h21v20h26q-4 33 0 34q5 2 12 2q36 0 82 -22q-9 -63 -6 -108q8 0 8 -6q0 -4 -4 -10t-4 -4q-1 -4 -0.5 -7.5 t-6.5 -5.5q0 -4 3 -18.5t4 -8.5q-1 -1 -7 -33q1 -12 9 -82q7 -56 4 -86l-13 -14v-13q-4 -39 0 -74zM329 1q13 -1 14 -2q-13 0 -26 1q-26 1 -8 1h20zM450 746q-1 2 0 11q1 3 -7 3zM336 -140q-4 2 -3 8t-11 6v-14h14z" />
<glyph unicode="K" horiz-adv-x="808" d="M661 602q0 -4 -10 -10l-1 9q0 5 3 5q8 0 8 -4zM265 642q0 -4 -10 -10l-1 9q0 6 4 6q2 0 4.5 -1.5t2.5 -3.5zM479 346q0 -6 -9 -16q0 -1 -1 12q0 9 4 9q6 0 6 -5zM157 642q0 -4 -9 -10l-1 9q0 6 3 6q7 0 7 -5zM497 310q2 -1 2 -5q0 -7 -9 -22q0 9 -1 18q1 13 8 9zM245 521 q0 -4 -10 -10l-1 9q0 7 3 7q8 0 8 -6zM150 615q0 -6 -9 -16q0 -1 -1 12q0 9 4 9q6 0 6 -5zM188 558q-8 8 -8 12t8 2q12 -3 12 -12q0 -4 -5 -4q-2 0 -7 2zM550 209q3 -1 3 -4q0 -6 -9 -16l-1 9q-1 7 0 10q2 4 7 1zM264 460q0 -6 -9 -16q0 -1 -1 13q0 8 4 8q6 0 6 -5z M765 -200q-36 -4 -91 -4q-69 0 -77 11l-13 40q-1 4 7 27q-44 31 -81 97l-60 118q-21 22 -44 61q1 8 -3 26q-9 4 -20 13q-5 9 -12 33q-5 20 -14 27.5t-21 8t-21 5.5q-11 -9 -56.5 -60.5t-50.5 -53.5q-8 2 -20 0q-4 -4 -4 -12q0 -11 -3 -15.5t-18 -10.5q-21 -9 -22 -9v-13 l13 -7q0 -179 -13 -181q3 -7 13 -27q3 -16 0 -37l-6 -30q-21 -2 -51 -9q-26 -6 -40 -6q-20 0 -44 8v13l-6 14q8 0 8 17q0 18 -8 16q0 27 -5 75.5t-5 71.5q0 22 3 41l13 27q3 18 3 42q0 12 -9 113q-1 14 3 41t4 35q0 6 -1 11q-9 5 -9 9q0 2 3 4q2 43 6 40v128v20q0 -1 -4 15 t-2 25q0 2 20 21q1 6 -6.5 22t-7.5 18v53q1 1 14 7q-1 5 -10.5 14t-9.5 13q-3 13 1 28t12 19q-8 14 -7 20q27 0 59 10q28 8 56 17q11 -5 26 -13q0 -38 -3 -115q-1 -10 -3 -20q0 -2 -10 -26q-7 -18 -4 -34l20 -7q2 -11 3 -46q0 -35 -2 -35q0 1 -1 7q6 -6 7 -13 q-11 -69 -11 -115q0 -49 11 -86h34q14 29 16 31q11 17 24 22q10 -1 27 0l6 14q-6 23 0 33q6 11 47 20q3 5 2 20q-2 25 -2 21q22 20 22 12q0 -3 -1 -6q8 -1 13.5 -7t6.5 -6q7 -1 7 7q0 9 -7.5 19.5t-13.5 7.5q7 7 13 14t61 80v13q16 8 33 17.5t21 22.5q-2 11 0 27q15 4 33 13 q4 16 14 41q4 5 16.5 7t16.5 6q20 52 20 54h34q4 -8 13 -27h14q3 8 7 20q-21 6 -21 10v1q4 5 51 5q39 0 64 -2q-3 -4 -1 -10q2 -8 1 -11q-4 -9 -26.5 -21t-26.5 -18t-4 -17q-1 -7 -4 -11q-14 -5 -33 -20q-2 -3 3 -7l5 -4l-2 -2q-12 -6 -22 -31q-13 -30 -18 -36t-17.5 -11 t-16.5 -9q-8 -7 -14.5 -24t-11.5 -23q-30 -30 -61 -60q-43 -43 -47 -68q-4 -24 9 -38q17 -19 18 -22q2 -6 -0.5 -20t0.5 -21q12 -4 27 -20q-1 -8 0 -20q17 -7 40 -27q4 -9 3 -29.5t4 -30.5q12 -4 27 -14q10 -13 19 -42q7 -22 14 -45q-8 1 -8 -2q0 -2 2 -5h26q3 -16 14 -40 q10 -3 20 -7q6 -11 10 -40t10 -40h7q10 -5 16 -17q10 -22 11 -23q11 11 13 6q4 -7 4 -20.5t3 -19.5q8 -3 20 -13q7 -19 20 -54zM255 109q3 -1 3 -7q0 -11 -10 -34v26q0 18 7 15zM255 42q3 -1 3 -7q0 -11 -10 -34v26q0 18 7 15zM255 -52q3 -2 3 -5q0 -8 -10 -22q0 9 -1 17 q1 13 8 10zM74 666l-6 4q-15 7 -21 9q1 0 9.5 -9.5t12 -10.5t6.5 -1q7 -1 9 0q2 2 -10 8z" />
<glyph unicode="L" horiz-adv-x="798" d="M800 -173q-10 -10 -27 -20q-8 -2 -21 -2q-16 0 -53.5 4t-52.5 4q-20 0 -72.5 -7.5t-80.5 -7.5q-15 0 -28 2q-21 5 -61 13q1 1 4.5 7.5t2.5 6.5q-8 1 -25 -9q-20 -11 -22 -11q-28 -5 -81 -5q-67 1 -70 16q1 9 -3 22q-3 3 -13.5 3.5t-13.5 3.5q-10 8 -11 29q-3 37 -3 38 q6 2 24 4q11 1 23 10q2 8 7 20h-20q2 1 2 2q0 4 -22 4q5 -2 5 -14q0 -11 -5 -12q-7 -2 -8 3l-1 5q-2 0 -5 -2v20q14 0 4 44t10 44v13l-14 13q-6 26 0 101q0 1 8 49q7 44 6 45l-14 14v53l21 7q1 -1 4 -7.5t9 -6.5v61q-7 3 -14 1q-7 -3 -13 -1q1 12 4 36.5t3 30.5 q0 12 -7.5 47t-7.5 56q0 9 1 18q14 114 14 127q-1 16 -8 32t-7 21q0 11 22 28q16 12 33 20h40q1 -1 7 -13q4 -1 47 -7q-9 -92 -9 -105q0 -35 9 -76q-7 -2 -9 -7t-4 -7q-12 8 -14 7q6 -28 14 -81q-4 0 -11 -3l-3 -10q4 -1 7 -1q5 0 6 8t7 6l7 -20q1 -13 -4 -45q-4 -36 -4 -54 q0 -12 1 -22l14 -13q5 -20 0 -60q-3 -20 -13 -67q-11 -51 -14 -54q2 -3 11 -14.5t9 -12.5q3 -10 -5.5 -31.5t-7.5 -22.5h13v-60q0 -3 -4.5 -25.5t-4.5 -36.5q0 -11 2 -19q9 -6 20 -20q19 0 61 -8q38 -6 47 -5q3 6 7 13h20v14q6 1 7 -1q0 -1 -1 -5q-1 -5 0 -8q8 -1 16 3t11 4 q17 -1 19 -17q1 -8 1 -17h14q-8 -22 -7 -26q13 0 27 6q2 4 2 9q0 8 -4.5 19.5t-4.5 12.5q17 -2 61 0q5 4 11 7q9 7 22 6q3 -6 7 -13q23 -1 62 -4q32 -3 52 -3q6 17 20 13q5 -1 5 -8t-5 -19l-7 -13q12 -14 14 -13q-7 -6 -20 -14q3 -6 6 -13h27v-27zM125 635q0 -4 -9 -9l-1 8 q-1 6 3 6q7 0 7 -5zM118 581q0 -6 -9 -16q0 -1 -1 12q0 9 4 9q6 0 6 -5zM125 521q0 -5 -9 -10l-1 9q0 6 3 6q7 0 7 -5zM8 639q3 -1 3 -4q0 -6 -9 -16q0 -1 -1 9q-1 6 0 9q2 5 7 2zM102 498q3 -1 3 -4q0 -6 -9 -16q0 -1 -1 9q-1 6 0 9q2 5 7 2zM15 585q3 -1 3 -7 q0 -10 -10 -33v25q0 18 7 15zM116 431q-23 2 -23 5q1 1 3 2l13 33q-3 -1 -3 -7q0 -10 10 -33zM18 508q0 -4 -10 -10l-1 9q0 6 3 6q2 0 5 -1.5t3 -3.5zM116 357q-1 -11 -1 -16q-1 13 0 33q1 38 1 37v-54zM8 431q-8 0 -8 27t8 27v-54zM122 317q3 -2 3 -8q0 -11 -9 -32 q0 43 6 40zM8 370q3 -1 3 -4q0 -6 -9 -16l-1 9q-1 7 0 10q2 4 7 1zM418 -46q7 -1 7 -7q0 -9 -14 -13q-3 8 -3 13q0 9 10 7zM22 330q-9 9 -9 13q0 3 9 1q3 -1 5.5 -5t1.5 -7t-7 -2zM118 246q0 -6 -9 -16q0 -1 -1 12q0 9 4 9q2 0 4 -1t2 -4zM69 283q2 0 2 -2q0 -5 -9 -18 q-4 9 -4 13q0 7 11 7zM55 183q-11 2 -11 19q0 9 11 7q23 -4 23 -21q0 -6 -11 -6q-5 0 -12 1zM118 91q0 -6 -9 -16q0 -1 -1 12q0 9 4 9q6 0 6 -5zM156 1q13 -1 14 -2q-13 0 -26 1q-26 1 -8 1h20zM8 -12q-5 32 -5 49q0 15 5 11q8 -6 8 -45q0 -18 -8 -15zM69 -59q-6 31 0 27 q8 -5 8 -19q0 -8 -8 -8zM720 -146q-5 4 -5 9q0 3 1.5 7t1.5 5q0 6 -18 6q-3 -8 -7 -21q17 0 27 -6zM243 283q12 0 12 10t-12 10v-20zM659 -126q-1 2 0 6.5t0 5.5q-1 2 -6 1q-6 -1 -6 -6t12 -7zM237 209q3 -1 4 -2q0 -3 -18 -4q2 -5 7 -20q45 7 45 8q0 -3 -38 18zM351 -146 q-3 3 -3 6q0 2 1 5.5t1 4.5q0 4 -13 4l-7 -14q15 -3 21 -6zM263 -126q0 2 1 10q1 3 -7 3z" />
<glyph unicode="M" horiz-adv-x="950" d="M562 502q-6 3 -13 7q5 37 7 27q3 -12 6 -34zM678 271q3 -1 3 -7q0 -13 -10 -40q0 51 7 47zM511 396q0 -6 -10 -16q0 -1 -1 12q0 9 4 9q7 0 7 -5zM671 217q2 -1 2 -5q0 -7 -9 -22q0 9 -1 18q1 13 8 9zM687 159q0 -5 -9 -10l-1 9q0 6 3 6q7 0 7 -5zM678 136q3 -1 3 -5 q0 -8 -10 -22q0 9 -1 18q1 13 8 9zM471 315q0 -4 -10 -10q0 -1 0 9q0 6 3 6q7 0 7 -5zM874 759q-5 -13 -20 -47q-5 1 -12 7t-8 6q-4 1 -8 1q-7 0 -15.5 -3.5t-10.5 -3.5q4 -3 5 -11q0 -13 1 -16q25 -2 61 -14q-8 -73 -9 -75q-6 -12 -52 -27v-27q30 -14 61 -34q2 -6 2 -15 q0 -12 -4 -31t-4 -21h-21q2 -9 0 -21q11 -5 27 -13v-75h-13q-4 -4 0 -20q17 -11 17 -141q0 -67 -4 -117q0 -6 -7 -54q-7 -42 -6 -54q1 -11 7 -18t6 -9q3 -13 3 -28q0 -20 -6 -47q-10 -38 -10 -40q-40 -11 -57 -11q-16 0 -25 15q-15 23 -33 36l-21 7q-3 9 7 20q2 11 2 21 q0 11 -3 27.5t-3 24.5q0 11 4 22q9 0 9 3q0 2 -2 4l-14 14q2 7 7 40q12 7 14 7q6 0 -21 20q1 1 0 21q0 -4 -1 -4q-2 0 -5 10q2 44 6 109q0 7 8 44q6 34 6 44q-8 36 -20 102q-12 -6 -28 -21q-5 -9 -6 -30t-7 -31q-2 -4 -14 14q-8 -10 -20 -27q-6 -14 -13.5 -47.5t-13.5 -47.5 q-14 -17 -34 -48q-3 -10 -3 -30.5t-4 -30.5h-13q-4 -22 -21 -67q-9 -5 -20 -14q1 -9 0 -20q-5 -3 -47 -7q15 -10 27 -14v-13q-74 -7 -78 -7q-45 0 -58 20q-6 10 -11 43q-6 37 -9 46q-13 14 -27 40q-1 9 4 18.5t3 15.5q-2 3 -28 7q-16 54 -52 131q-44 93 -56 126h-14 q-1 -2 -7 -10.5t-6 -9.5q-13 -49 -7 -176q0 -4 3.5 -13.5t3.5 -6.5q-4 -11 -6 -11q-1 1 -1 4v-17q0 -7 7 -10q-2 -20 0 -61q-15 -27 -14 -34q7 -3 14 -7q0 -165 -14 -217h-20q-37 -24 -60 -24q-21 0 -62 24v20q3 11 5 43q2 26 3 47q-1 3 -1 5q7 24 7 48q0 17 -9 67 q-8 44 -5 82q0 6 10 66q6 44 4 76q-1 11 -6 42q-4 26 -4 42t3 31l13 21q2 20 -2 53q-5 39 -5 55q0 10 1 20q0 4 9 29q6 21 4 32l-20 21q-2 13 5 24q8 15 8 16q4 24 -6 109q19 -3 39 -7q23 -3 35 0q4 1 10.5 13.5t9.5 13.5q14 -1 41 0q-4 0 -4 -1q0 -2 11 -6q2 -5 2 -10 q0 -6 -4 -16t-5 -14q20 -17 23 -20q8 -8 18 -28q17 -28 40 -81q-1 -12 0 -34q2 -5 14.5 -14t13.5 -13q-2 -10 0 -27q-4 -2 -13 -4q-4 -1 -8 -10q8 1 14 1q40 0 40 -43q0 -16 -6 -39q11 -7 23 -13q13 -9 13 -18q0 -10 -16 -23q19 -11 41 -34q-2 -10 0 -27q12 -7 27 -20 q5 -12 5.5 -46.5t0.5 -35.5q10 -2 21 -7q2 -3 7 -23q4 -14 13 -17q14 2 41 0q10 8 20 20q4 9 4 27t3 27q11 14 27 41q-1 10 0 27q13 11 27 27q4 9 4 25t3 23q20 26 47 67q4 9 4 24.5t3 23.5q1 1 7.5 3.5t6.5 3.5q-2 11 0 27q13 3 27 6q4 12 3 38t4 37h6q4 2 8 17.5t7 17.5 t16 0t17 -1q3 6 13 13q-2 3 -5 8t-3 9q0 2 2 4q6 3 13 7l-2 1q0 -1 29 -1q23 -20 24 -20l17 33q-13 -2 -34 0q-6 3 -6 11q0 10 6 23q-7 5 -18 5q-19 0 -23 -12l7 -27h-13q3 48 7 57q2 2 40 38q17 -2 47 -7q0 -9 7 -20q3 -1 6 -1t11 5t17 3q11 -9 27 -21zM644.5 65.5 q-4.5 9.5 -4.5 14.5q0 4 4 2q15 -10 15 -25q0 -4 -2 -4t-5 1.5t-7.5 11zM427 238q2 -1 2 -4q0 -7 -9 -17q0 7 -1 14q1 10 8 7zM671 -67q0 -7 1 -15q-1 -9 -8 -6v14q-4 1 -10 -0.5t-10 0.5q-13 14 -6 14q3 0 7.5 -1t25.5 -6zM684 -142q-8 0 -8 18t8 16v-34zM725 -189 q-8 0 -8 19q0 8 8 8q17 0 17 -16q0 -15 -17 -11zM572 -31q0 -6 -10 -16q0 -1 -1 12q0 9 4 9q7 0 7 -5zM680 -160q0 -6 -9 -16q0 -1 -1 12q0 9 4 9q6 0 6 -5zM190 292q9 0 9 -3t-16 -11l-1 11q0 3 8 3zM590 -176l-21 -7q0 9 -1 18q1 12 8 9q7 -13 14 -20zM386 -74 q-14 14 -6 14q3 0 6 -1q8 -2 8 -10q0 -5 -8 -3zM352 -81q12 -1 13 -1q-14 -1 -19 -1q-17 1 -31.5 1.5t-2.5 0.5h40zM847 136q-9 11 -20 27h-7q1 -15 7 -34q2 -2 5 -2q7 0 15 9zM840 -40l-6 20h-21l7 -27q4 0 20 7zM230 542q1 -5 1 14q0 7 -7 7zM108 597q-1 5 -6 13 q-9 4 -27 14zM535 129q8 -3 12 -3q6 0 6 4q0 15 -18 19q1 -5 0 -20zM230 421q3 -2 7 -2q9 0 9 7q0 10 -22 15zM51 573.5q-8 -8.5 -8 -11.5q1 -2 2 -2q3 0 9 3q19 21 12 21q-2 0 -4.5 -1t-10.5 -9.5zM122 -169q-3 2 -3 6q1 5 0 6q-2 3 -11 1q-8 -1 -8 -4q0 -4 22 -9z" />
<glyph unicode="N" horiz-adv-x="926" d="M752 782q0 -6 -9 -16q0 -1 -1 12q0 9 4 9q6 0 6 -5zM851 638q-8 0 -8 18t8 16v-34zM861 621q0 -4 -10 -10l-1 9q0 6 3 6q2 0 5 -1.5t3 -3.5zM858 577q0 -19 -3 -55q-4 -42 -4 -46q0 19 3 55q4 42 4 46zM868 378q0 -5 -10 -10l-1 9q0 6 3 6q8 0 8 -5zM861 350 q0 -6 -10 -16q0 -1 -1 12q0 9 4 9q7 0 7 -5zM402 783q0 -4 -10 -10l-1 9q-1 6 3 6q8 0 8 -5zM858 307q3 -1 3 -5q0 -8 -10 -22q0 9 -1 18q1 13 8 9zM442 708q0 -4 -10 -9v9q0 5 3 5q7 0 7 -5zM757 408q0 -76 -6 -76q-1 1 -1 9q0 3 7 67zM516 607q0 -6 -9 -16q0 -1 -1 12 q0 9 4 9q6 0 6 -5zM851 266q3 -1 3 -5q0 -8 -9 -22q0 -1 -1 11q-1 9 0 13q2 6 7 3zM564 519q0 -4 -10 -10l-1 9q0 6 3 6q8 0 8 -5zM861 94q0 -4 -10 -10l-1 8q0 6 3 6q8 0 8 -4zM399 489q-9 0 -9 27t9 27v-54zM544 371q0 -4 -10 -10l-1 9q-1 6 3 6q8 0 8 -5zM300 600 q0 -4 -9 -9l-1 8q-1 6 3 6q7 0 7 -5zM392 442q-8 0 -8 17q0 19 8 17v-34zM757 645q0 5 -12.5 -17.5t-8.5 -50.5q7 -3 14 -7q-1 -43 -7 -148v-61q-1 -1 -13 -7v-13q7 -3 7 -7q-1 -12 -1 -14q8 2 8 -16t-8 -18q9 -31 9 -55q0 -17 -9 -73q3 -17 7 -47q0 2 -1 2q-3 0 -6 -22h14 q-3 -16 -14 -61q-7 3 -11 3q-6 0 -6 -6q0 -18 17 -24q0 -10 2 -42.5t2 -49.5q0 -52 -17 -57q-5 -1 -5 -3q0 -5 25 -10q-3 -2 -6 -21q-3 -15 -21 -20q-11 -3 -29 -3q-57 0 -86 17q-13 8 -13 18q0 7 9.5 20t10.5 16q-32 6 -67 33q-2 57 -7 54q3 -2 3 -4q0 -4 -17 -2 q-2 6 -6 13h-7v20q-11 17 -27 41q-34 45 -95.5 136t-93.5 134q0 -11 -3.5 -37.5t-3.5 -29.5q0 106 -34 155q-11 7 -27 20q-1 9 -7 27q-3 6 -20.5 16.5t-19.5 17.5v14q-9 2 -21 6q-3 -100 -13 -297q-10 3 -10 -8q0 -5 2 -15t2 -13t-1 -4q8 0 8 -27t-8 -27q4 -15 14 -55 l-21 -6q-1 -2 0 -21q7 1 8 0q0 -1 -1 -5q-1 -5 0 -8q7 -18 7 -33q0 -7 -4.5 -31t-2.5 -44q0 -3 8 -21.5t8 -32.5q0 -7 -2 -14q-6 -3 -14 -13q-5 1 -63 2q-40 2 -58 11q7 20 7 22v1q0 -1 -1 -2q-1 7 -3 6q-6 -1 -10 0q-1 11 -6 40q-3 24 -3 38q0 13 2 24q10 12 20 33l-13 14 q-1 4 -1 8q0 6 4.5 17t3.5 22l-14 7v68q7 94 7 317q0 8 3 79q1 41 -3 70q1 20 0 54q4 2 6 1v-1q0 1 1 7q1 7 -7 27q4 2 12 24.5t8 29.5l-13 6q-5 11 -5 27q-1 21 -2 27q2 0 13.5 3.5t20.5 3.5q1 0 19 -6.5t21 -6.5q8 10 27 20q31 2 47 -14q-1 -11 0 -27q10 -1 21 -6 q3 -7 2.5 -20.5t3.5 -20.5q10 -4 21 -13q-2 -12 0 -34q16 -36 54 -54h7q-2 -10 0 -27q13 -2 27 -7q4 -8 3.5 -26.5t2.5 -27.5q1 0 21 -16.5t20 -17.5q6 -19 27 -54q2 -2 -3 -6.5t-5 -8.5q0 -3 1.5 -6t9.5 -5t10 -8h14q0 -2 0 17q0 7 7 10q0 -3 -1 -29q-1 -19 0 -29 q2 -15 7 -23q12 -4 27 -13q3 -6 3 -20t3.5 -20t20.5 -16t21 -19q6 -14 0 -40v-14h20q45 -83 74 -94q8 2 21 0q13 19 27 47q0 4 -7 12q-3 4 -7 8q-5 21 -3 61q4 49 3 61q3 66 0 203q-1 11 -4 28t-3 25q0 23 21 41q-25 33 -21 34q8 1 34 54q-31 25 -31 58q0 14 4 43q3 1 13 0 q5 0 7 7h48q28 0 47 -7q1 0 5 -6t8 -7q2 -13 1 -58q-1 -37 6 -57q0 -1 7 -4.5t7 -8.5zM300 208q0 -4 -9 -9l-1 8q0 6 3 6q7 0 7 -5zM395 114q0 -4 -10 -10q0 -1 0 9q0 6 3 6q7 0 7 -5zM405 77q3 -1 3 -5q0 -8 -9 -22q0 -1 -1 11q-1 9 0 13q2 6 7 3zM291 138q2 -1 2 -5 q0 -7 -9 -22q0 -2 -1 11q0 9 1.5 14t6.5 2zM297 97q3 -1 3 -5q0 -8 -9 -22q0 -1 -1 11q-1 9 0 13q2 6 7 3zM307 60q0 -5 -10 -10v9q0 6 3 6q2 0 4.5 -1.5t2.5 -3.5zM142 766h-47v-20h40q-2 1 -2 2q0 5 9 18zM365 354q-1 2 0 10q1 4 -7 4zM230 482q-4 2 -3 8t-11 6v-14h14z " />
<glyph unicode="O" horiz-adv-x="846" d="M736 616q0 -4 -9 -9v8q-1 6 2 6q7 0 7 -5zM670 670q0 -4 -10 -10l-1 9q-1 6 3 6q8 0 8 -5zM773 560q3 -1 3 -4q0 -6 -9 -16q0 1 -0.5 8.5t0.5 9.5q1 4 6 2zM783 530q0 -4 -10 -10v9q-1 5 3 5q7 0 7 -4zM773 507q3 -1 3 -4q0 -6 -9 -16q0 1 -0.5 8.5t0.5 9.5q1 4 6 2z M783 476q0 -4 -10 -9v8q0 6 3 6q7 0 7 -5zM789 376q0 -6 -9 -16q0 -1 -1 12q0 9 4 9q6 0 6 -5zM793 320q-8 0 -8 18q0 17 8 15v-33zM783 236q0 -4 -10 -9v8q0 6 3 6q7 0 7 -5zM787 167q-8 0 -8 27q0 26 8 26v-53zM783 150q0 -4 -10 -10l-1 9q0 6 3 6q2 0 5 -1.5t3 -3.5z M762 103q0 -6 -9 -16q0 -1 -1 12q0 9 4 9q6 0 6 -5zM713 213q-10 -14 -20 -33q-2 -19 6 -38q8 -22 8 -35q0 -15 -9.5 -48.5t-17.5 -45.5l-6.5 -2.5t-6.5 -3.5q-4 -9 -4 -24.5t-3 -22.5q-6 -13 -24 -26q-26 -18 -29 -21q-8 -15 -27 -40q-22 -19 -51 -29q-8 -3 -62 -17 l-14 -14q-83 -18 -127 -18q-24 0 -39 5q-5 2 -9 13.5t-5 13.5q-15 1 -60 0q-7 15 -20 33q-16 -3 -46 0q-7 11 -20 27q-45 37 -54 49q-12 15 -33 71q-12 18 -27 53q-2 9 -2 20q0 16 5 47q5 28 4 40q-7 31 -20 100q4 2 13 6q-3 42 0 127q13 1 34 7q-2 10 2 17t4 9q-7 -2 -7 3 q0 16 1 11q-4 -2 -4 2q0 17 30 24v7q-19 -3 -60 -13q0 14 7 40q9 3 20 13q3 11 -7 60v20q4 3 16 1q14 -2 18 -1q10 9 26 20q0 7 2.5 30.5t4.5 22.5v14q3 2 6 2t7.5 -2.5t6.5 -2.5q4 0 7 3q2 14 13 33q2 1 5 1q4 0 9 -4t6 -4q30 30 60 47v13q14 4 44 2q27 -3 43 5h6l7 -20h20 q-4 2 7 13q-3 1 -20 6q-13 3 -13 6q0 4 13 8q19 7 26 7q27 2 50 -8q18 -9 37 -19v-13q9 -3 23.5 5.5t26.5 8.5q5 0 10.5 -1t11.5 -13t9.5 -14t14.5 -2.5t17 -3.5l-4 -14q-1 -3 4 -6v-7q12 1 34 0q24 -21 60 -53q-2 -6 -7 -13l-31 -12l6 -7.5t12 -20.5q8 4 20 6v14q4 1 7 1 q5 0 10.5 -4.5t8.5 -3.5q9 -22 20 -60q2 -20 -3 -51q-5 -36 -5 -48q0 -11 2 -21q10 -13 20 -33q1 -13 -3.5 -34t-4.5 -32q0 -7 1 -14q6 -3 13 -7q-1 -11 -1 -21q0 -11 2 -29t2 -28q0 -14 -3 -29zM207 660v27q-21 0 -27 6q2 -4 0 -10q-2 -8 -2 -10q0 -9 15 -13q6 -2 14 0z M580 387l-7 106q0 1 -9.5 10t-10.5 10q-33 77 -74 108q-49 38 -132 32l-14 -13q-7 -1 -32 0q-19 1 -34 -7q-4 -9 -14 -20h-33q-9 -20 -33 -60q-9 -4 -20 -13q-16 -36 -27 -227q-1 -10 1.5 -23.5t2.5 -16.5q0 -12 -11 -20q17 -35 17 -40q0 -8 -23 -40h13q5 -13 13 -33 q4 -14 6 -46t8 -46.5t27 -33.5q16 -13 33 -27q-3 -13 -7 -27q24 1 53 0q1 0 7 -20q60 -7 85 -7q32 0 55 7q10 12 27 27q11 -2 33 0q2 1 34 35.5t33 37.5q-1 12 0 33q0 1 13 7q0 28 4.5 69t4.5 61q0 19 -2 37q8 0 8 7q0 5 -4 13t-4 6q2 27 0 53t0 47zM323 596q0 -4 -10 -9v8 q0 6 3 6q7 0 7 -5zM370 470q0 -4 -10 -10l-1 9q-1 6 3 6q8 0 8 -5zM276 529q0 -4 -9 -9l-1 9q0 5 3 5q7 0 7 -5zM360 447q0 -17 -3 -51q-4 -41 -4 -43q0 18 3 52q4 40 4 42zM253 475q0 6 7 5q30 -2 30 -16q0 -8 -12 -8q-8 0 -16.5 4t-8.5 15zM356 336q0 -4 -9 -9l-1 8 q-1 6 3 6q7 0 7 -5zM253 373q3 -1 3 -8q0 -13 -9 -38q0 50 6 46zM373 153q-8 0 -8 18t8 16v-34zM250 296q0 -4 -10 -9l-1 8q0 6 3 6q8 0 8 -5zM430 83q0 -4 -10 -10l-1 9q0 7 3 7q8 0 8 -6zM263 249q0 -4 -10 -9v9q0 5 3 5q7 0 7 -5zM270 136q0 -4 -10 -9l-1 8q0 6 3 6 q8 0 8 -5zM290 90q0 -4 -10 -10l-1 9q-1 6 3 6q8 0 8 -5z" />
<glyph unicode="P" horiz-adv-x="821" d="M110 779q9 0 9 -3q0 -5 -16 -10l-1 10q0 3 8 3zM130 738q9 0 9 -3q0 -6 -16 -10q1 2 0 10q-1 3 7 3zM89 725q-11 4 -11 19q0 12 11 8q3 -1 10 -10.5t7 -15.5q0 -4 -5 -4q-4 0 -12 3zM71 673q0 -5 -9 -10l-1 9q0 6 3 6q7 0 7 -5zM795 505q-17 -6 -21 -13 q-5 -19 -6.5 -51.5t-7.5 -51.5q-2 -6 -41 -68q-17 -27 -35 -41q-10 -8 -47 -28q-21 -17 -62 -41q-11 -3 -24 -3q-9 0 -26.5 2t-24.5 1l-14 -14q-10 -2 -23 -2q-17 0 -46 4.5t-33 4.5q-40 2 -144 -14q-7 -5 -14 -13q-3 -11 -6 -114q-2 -98 -1 -112l14 -28q0 -11 -7 -18.5 t-7 -8.5q2 -37 0 -96q-30 0 -69 3q-50 3 -68 4v171q-22 -1 -22 4q0 1 2 3h20q7 11 14 27q1 11 -6.5 50.5t-7.5 45.5q-1 21 4 45q6 29 17 31q1 0 1 2q0 4 -8 18q-10 -6 -10 40q0 35 5.5 74t11.5 44l7 6q-8 8 -28 14q15 84 15 219q0 62 -8 69l14 14q-8 1 -8 4q0 2 21 9 q0 -9 7 -20q3 -1 13 0q10 2 10 5q0 1 -2 2h27v95h14v14q19 1 19 -7q0 -3 -5 -11.5t-5 -11.5q0 -5 11 -4q12 1 49 20q34 18 61 14q32 -5 24 -22q-9 -20 3 -26q3 -1 38 2.5t38 4.5q5 10 14 21q9 2 14 -6t6 -8q33 9 69 20q2 1 1.5 9.5t4.5 11.5q2 -3 7 -34q17 5 17 13q0 4 -3 7 q4 2 19.5 -7t28.5 -6q8 6 20 13q-5 -27 -5 -32q0 -27 33 -29q7 0 7 4.5t7 2.5l6 -14q-10 8 -10 -2q0 -7 4 -19q29 -7 75 -27q4 -9 14 -21h6q9 -15 6 -37q-4 -25 1 -38q13 -5 28 -14q3 -21 7 -55zM41 629q4 2 4 -2l-11 -26q-21 1 -20 0q-3 -6 -1 -20q3 -15 1 -21q-9 0 -9 16 q0 19 9 46q7 1 27 7zM24 550q0 -4 -10 -10l-1 9q-1 6 3 6q8 0 8 -5zM10 508q0 -4 -10 -9v9q0 5 3 5q7 0 7 -5zM78 426q0 -5 -10 -10v9q0 6 3 6q7 0 7 -5zM7 464q2 -1 2 -5q0 -7 -9 -22q0 9 -1 18q1 13 8 9zM21 423q9 0 9 -3q0 -5 -16 -10l-1 10q0 3 8 3zM17 262 q0 -4 -10 -10l-1 9q0 6 3 6q8 0 8 -5zM10 234q0 -4 -10 -9v9q0 5 3 5q7 0 7 -5zM14 211q3 -1 3 -8q0 -13 -10 -40q0 52 7 48zM7 129q0 -84 -6 -84q-1 1 -1 8q0 -5 7 76zM9 15q0 -6 -9 -16q0 -1 -1 12q0 9 4 9q6 0 6 -5zM623 704q14 -5 14 9q0 11 -21 12q3 -2 4 -4 q0 -3 -17 -3q0 -1 4 -7t3 -7h13zM678 622q-11 2 -27 7l-14 -21q19 -13 14 -13h20q-2 1 2 12q2 8 5 15zM527 718q4 -1 7 -1q6 0 6 4q0 13 -19 17zM648 497q0 22 -8.5 67.5t-9.5 71.5q-18 4 -36 7q-24 6 -32 13q-4 4 -4 17t-3 17q-68 -13 -100 -13q-30 0 -51 7q3 8 7 20 q5 -2 6 -2t0 3q-2 5 1 6q-4 1 -28 9q-19 7 -30 7q-6 0 -11.5 -2.5t-3.5 -12.5l4 -22q-9 1 -10.5 6t-2.5 8q-5 1 -24 -5q-12 -5 -24 -9l-7 -20q7 -1 20 -7h-68q-2 4 -4 17q-1 4 -10 10q2 -12 0 -34l-20 -7v-20q3 -3 10 -1t10 1q18 -7 14 -69q0 -6 -5 -51q-4 -37 -4 -59 q0 -16 2 -27l8 -12q7 -11 6 -15q-13 -8 -28 -21q3 -6 0 -20l28 -28l23.5 3t31.5 4q14 -14 20 -13q3 6 7 13q23 0 69 -7t64 -7q10 0 18 1q3 0 14 9.5t13 10.5q16 -2 48 0q25 8 53 39q24 28 35.5 57t11.5 60zM135 626.5q2 9.5 2 16.5q-1 8 -7 6q-10 -4 -10 -25q0 -10 6 -10 q2 0 4.5 1.5t4.5 11zM205 389q8 0 -41 2q-31 2 -41 -2l-7 -14v-27q15 4 48 7q1 10 7 20q12 -23 21 -20v13q11 -2 12 2q1 1 -1 9q-1 7 2 10zM551 563q0 -6 -10 -16q0 -1 -1 12q0 9 4 9q7 0 7 -5zM537 508q0 -4 -10 -9v9q0 5 3 5q7 0 7 -5zM428 597q0 -4 -10 -9l-1 8q0 6 3 6 q8 0 8 -5zM530 467q0 -6 -9 -16q0 1 -1 7t0 10q0 4 3 4q7 0 7 -5zM438 567q0 -10 -1.5 -34.5t-2.5 -36.5q-1 -14 -2 3q0 12 3 39t3 29z" />
<glyph unicode="Q" horiz-adv-x="850" d="M761 534q0 -4 -9 -9l-1 8q0 6 3 6q7 0 7 -5zM774 501q0 -6 -9 -16q0 -1 -1 12q0 9 4 9q6 0 6 -5zM782 454q0 -4 -10 -10l-1 9q0 6 3 6q8 0 8 -5zM772 431q3 -1 3 -7q0 -11 -10 -33v25q0 18 7 15zM785 303q3 -1 3 -5q0 -8 -9 -21q0 -2 -1 10q-1 9 0 13q2 6 7 3zM782 260 q0 -5 -10 -10l-1 9q0 6 3 6q8 0 8 -5zM785 243q3 -1 3 -5q0 -8 -9 -22q0 -1 -1 11q-1 9 0 13q2 6 7 3zM761 85q0 -4 -9 -10l-1 9q0 6 3 6q7 0 7 -5zM785 -133q-34 -32 -53 -67q-22 0 -61 7q-6 3 -11.5 16.5t-9 16.5t-33.5 18.5t-33 15.5q-19 0 -50 -23q-38 -28 -44 -31 q-60 -26 -147 -26q-85 0 -142 26q-11 11 -33 27q-19 3 -54 20v14q-2 7 -18 17q-19 12 -22 16q-18 22 -43 75q-29 63 -24 86q0 1 10.5 10t10.5 14q0 3 -28 16v148q4 67 13 195l-13 6q3 28 13 94q3 18 34 68q10 5 20 13q-2 8 0 20q15 9 40 27v20q22 6 54 20q0 9 7 20 q4 2 14 0.5t13 -0.5q2 -9 13 -27q-3 4 7 14q4 11 -7 20q7 9 20 20q10 -1 27 0l7 14q29 10 74 13q42 2 100 -20l7 -14q3 0 11 4t16 3q15 -9 33 -20q12 2 34 0l33 -40q6 -4 17.5 -4t17 -3t38.5 -51t35 -56q-2 -11 0 -34q0 -1 10 -6.5t10 -6.5q2 -12 -2.5 -30.5t-4.5 -23.5 l14 -7q-4 -30 -4 -66t6 -107.5t6 -106.5q0 -26 -2 -49l-13 -26q2 -25 0 -74q-7 -23 -20 -74q11 2 20 -7q-4 4 -7 4q-7 0 -6 -24q21 -12 53 -40q0 -8 7 -20q11 2 27 0q4 -3 7 -17t6 -17zM564 136q2 11 -7 73q14 7 14 89q0 67 -8.5 144t-18.5 96q-5 10 -24.5 23.5t-22.5 17.5 q-2 1 2 7l4 6q-71 53 -100 54q-5 0 -8.5 -4.5t-11.5 -2.5v13h-41l-13 -13q-10 -3 -33 -3t-32.5 -3.5t-22.5 -15.5q-17 -16 -20 -18q-66 -47 -73 -124q-4 -92 -7 -185q0 1 -4.5 -15t-2.5 -25l14 -20q1 -10 -6.5 -30t-7.5 -24q0 -12 8 -60.5t12 -60.5t21.5 -38t25.5 -29 q6 2 20 0q3 -2 4 -10.5t3 -9.5q6 -4 17 -4t17 -3q11 -12 33 -27q11 -3 23 -3q19 0 44 7l34 10q12 -2 34 0q17 9 17 25q0 18 -22 43q-18 20 -36 32q-10 0 -27 7q-6 5 -7.5 16.5t-5.5 17.5q33 28 67 60v13q8 -1 20 0q49 -24 54 -40v-13q9 -7 27.5 -11.5t26.5 -8.5q9 17 20 47z M359 481q0 -4 -10 -10q0 -1 0 9q0 6 3 6q7 0 7 -5zM352 427q0 -4 -10 -10l-1 9q0 6 3 6q8 0 8 -5zM342 404q3 -1 3 -4q0 -6 -9 -16q0 -1 -1 9q-1 6 0 9q2 5 7 2zM248 464q-8 0 -8 27t8 27v-54zM245 447q0 -4 -10 -9l-1 8q0 6 3 6q8 0 8 -5zM242 384q-8 0 -8 17q0 19 8 16 v-33zM342 303q3 -1 3 -5q0 -8 -9 -21q0 -2 -1 10q-1 9 0 13q2 6 7 3zM349 223q-8 0 -8 17q0 19 8 16v-33zM235 283q3 -1 3 -7q0 -13 -10 -40v29q0 21 7 18zM244 205q0 -6 -9 -16q0 -1 -1 13q0 8 4 8q6 0 6 -5zM251 118q0 -4 -9 -9l-1 8q0 6 3 6q7 0 7 -5z" />
<glyph unicode="R" horiz-adv-x="799" d="M743 456q0 -4 -10 -9l-1 8q0 6 3 6q8 0 8 -5zM743 416q0 -4 -10 -9v8q0 6 3 6q7 0 7 -5zM736 369q0 -4 -9 -9l-1 9q0 5 3 5q7 0 7 -5zM610 210q0 -4 -10 -10l-1 9q0 5 3 5q8 0 8 -4zM636 116q0 -4 -9 -9l-1 8q-1 6 3 6q7 0 7 -5zM676 56q0 -4 -9 -9l-1 8q0 6 3 6 q7 0 7 -5zM710 9q0 -4 -10 -9v9q0 5 3 5q7 0 7 -5zM587 140l-12 -5t-15 -5q-1 0 -1 1q1 3 8 9q4 2 13 7q3 1 5 1q0 -1 1 -3q-2 -4 1 -5zM687 -187q-5 -1 -9 -7t-5 -6q-8 -2 -60 5q-61 8 -66 8q1 10 0 27q-13 12 -27 33q-1 7 4 14t5 12q0 3 -2 8.5t-16.5 10.5t-18 10 t-3.5 15.5t-2 16.5q-11 12 -27 33q-6 12 -8 27q-3 20 -5 27q5 1 20 20q-37 9 -58.5 50.5t-41.5 82.5h-14q0 9 -6 20q-12 6 -53 6h-57q-10 0 -17 1q0 -10 -0.5 -19t-6.5 -15v34h-40q-9 -6 -20 -20q-4 -14 -2 -40q3 -32 2 -40q-1 -105 -13 -307q-9 -1 -15.5 4t-17.5 3v-14 q-22 -7 -38 -6h-36q-9 7 -20 20q-1 5 -1 9q0 6 4.5 20t3.5 24q-10 29 -20 73q-4 71 7 120q6 10 13 27q2 30 -6 93q-9 69 -9 101q0 21 2 39q0 1 8 26q6 21 5 28q-9 7 -20 26q-3 29 7 93q6 43 13 87q2 20 -5.5 44.5t-7.5 29.5q-1 20 5 57q8 51 8 56q5 2 12 7.5t8 5.5q6 2 12 2 q9 0 20.5 -7t14.5 -8q-10 0 13 7q10 -4 27 -7l13 13q16 4 37 4t66 -6q40 -6 57 -4q3 0 23 6.5t24 6.5l13 -13q11 -3 37 0t36 0l14 -14q12 -2 49 -4q27 -1 44 -9q7 -12 20 -27q9 1 27 0q12 -4 26 -29q10 -18 20 -37h14q-1 -9 0 -27q2 -6 16 -19.5t17 -20.5q10 -28 10 -58 q0 -29 -17 -95q-2 -7 -7 -46q-4 -26 -13 -41q-13 -9 -33 -27q-11 -20 -40 -53q-25 -12 -73 -40q12 -36 24 -71.5t9 -75.5q8 -2 13 2t7 5q2 -5 10 -7.5t10 -5.5q5 -20 13 -54l-9 1q-5 1 -5 -3q0 -10 7 -10q3 0 8 3.5t6 2.5t19.5 -31.5t20.5 -35.5q4 -21 20 -60l13 -7 q3 -14 -7 -41q-12 -35 -13 -39q15 2 34 0zM733 -120q-14 2 -25.5 4t-10.5 3t23 0q0 10 0.5 19t6.5 14q-2 -1 -2 -5q0 -7 4 -21zM333 180q3 -1 3 -7q0 -11 -9 -33q0 43 6 40zM333 67q-1 -11 -1 -17v34q1 37 1 36v-53zM329 29q0 -6 -9 -16q0 -1 -1 13q0 8 4 8q6 0 6 -5z M333 -27q3 -1 3 -8q0 -13 -9 -38q0 50 6 46zM227 93q0 -17 -3 -51q-4 -40 -4 -42q0 17 3 51q4 40 4 42zM233 -40q3 -1 3 -5q0 -8 -9 -22q0 -1 -1 11q-1 9 0 13q2 6 7 3zM233 -87q3 -1 3 -4q0 -6 -9 -16q0 2 -0.5 9t0.5 10q1 4 6 1zM553 533h-20q6 5 20 7l-16 50 q-12 33 -24 37q-8 -2 -20 0q-4 14 -20 33q-20 7 -39 7q-15 0 -45 -7t-49 -7q-15 0 -56 9t-65 9q-17 0 -32 -4q-38 -9 -38 -79q0 -19 4 -55q3 -32 2 -83q-2 -87 -2 -90q25 -6 60 -13q0 17 3 51q4 40 4 42v-93q-2 0 34 2q21 1 33 -2q7 -6 20 -14l6 14h14q-4 3 -6 4v0 q6 -3 19 -11q5 4 11 8q10 6 22 5q4 0 17 -7t23 -6q9 10 20 20q10 -1 27 0q7 9 20 20q51 30 64 64q9 22 9 89zM487 167q-29 -19 -34 -27q3 -7 0 -20h14q5 3 16 21t11 25q0 2 -2 2t-5 -1zM333 520q3 -1 3 -7q0 -11 -9 -33q0 43 6 40zM222 609q0 -6 -9 -16q0 -1 -1 13q0 8 4 8 q6 0 6 -5zM229 583q0 -6 -9 -16q0 -1 -1 12q0 9 4 9q6 0 6 -5zM333 460q3 -1 3 -4q0 -6 -9 -16q0 1 -0.5 8.5t0.5 9.5q1 4 6 2zM223 550q0 -4 -10 -10v9q-1 5 3 5q7 0 7 -4zM227 533q0 -75 -6 -75q-1 1 -1 9q0 7 7 66z" />
<glyph unicode="S" horiz-adv-x="824" d="M775 172q0 -4 -10 -10q0 -1 0 9q0 6 3 6q7 0 7 -5zM788 139q0 -4 -9 -10l-1 9q-1 6 2 6q2 0 5 -1.5t3 -3.5zM782 85q0 -4 -10 -10l-1 9q0 6 4 6q2 0 4.5 -1.5t2.5 -3.5zM376 444q-8 0 -8 17q0 19 8 17v-34zM775 64q0 -4 -10 -9v9q0 5 3 5q7 0 7 -5zM268 397q-8 0 -8 27 t8 27v-54zM725 129q-10 -93 -15 -115q-12 -59 -39 -100q-6 -9 -25 -26t-29 -21q-11 0 -33 -7q-4 -9 -14 -20q-11 -7 -28 -8q-22 -2 -32 -5q-19 -12 -47 -27q-11 -2 -28 2.5t-19 4.5q-109 -1 -138 1q-71 4 -124.5 26t-153.5 94q17 28 33 56q26 40 41 44q8 2 14 2 q16 0 29.5 -15t24.5 -15t32 -5q4 -13 14 -27q13 -6 38.5 -5.5t35.5 -1.5q18 -13 47 -27q8 -1 17 6.5t10 7.5q12 2 30.5 -6t22.5 -8q30 -1 108 40q6 -2 20 0q5 2 32 29.5t28 31.5q6 19 6 41q0 36 -13 66q-23 52 -91 66q-72 7 -143 15l-14 13q-14 -2 -40 0q-26 6 -87 36 q-66 31 -74 45q0 10 -7 27q-13 8 -33 26q-18 29 -24 88l-10 100q7 3 13 7q36 134 101 175q3 1 81 47q14 2 18.5 -7t14.5 -7q5 10 14 20q14 6 60 7q48 1 113 -10.5t108 -29.5q6 -3 9 -11t6 -9.5t8 -1.5q6 0 14 4t10 4q10 -1 31 -20q15 -14 30 -27q-2 -5 -14 -33 q-4 -9 -14 -19t-12 -15l6 -20q-10 -9 -27 -27q-50 20 -167 54l-20 13q-22 3 -44 3q-85 0 -140 -36q-61 -40 -61 -112q0 -14 3 -29q4 -27 39 -57q32 -29 62 -37q36 -10 101 -14q71 -6 107 -13q18 -4 60 -20l7 -14q14 1 40 -6q4 -12 13 -27q12 0 34 -7l54 -87q4 -11 4 -27v-10 q0 -13 2 -23zM289 21q-8 -1 -8 4q0 8 8 10t8 -1q0 -4 -8 -13zM74 -32q20 0 20 6q0 7 -20 7v-13z" />
<glyph unicode="T" horiz-adv-x="728" d="M688 568q0 -4 -10 -10l-1 9q0 6 3 6q8 0 8 -5zM688 528q0 -4 -10 -10l-1 9q0 6 4 6q2 0 4.5 -1.5t2.5 -3.5zM597 511q11 -1 12 -2q0 -1 -19 0q-17 0 -30.5 1t-2.5 1q32 1 40 0zM483 417q-8 0 -8 17q0 19 8 17v-34zM490 317q-8 0 -8 27q0 26 8 26v-53zM486 299q0 -4 -9 -9 l-1 9q0 5 3 5q7 0 7 -5zM168 585q3 -1 3 -5q0 -8 -10 -22q0 9 -1 18q1 13 8 9zM486 259q0 -6 -9 -16q0 1 -1 7t0 10q0 4 3 4q7 0 7 -5zM171 534q0 -4 -10 -9v9q0 5 3 5q7 0 7 -5zM490 156q-8 0 -8 16q0 19 8 17v-33zM678 740q2 -6 -7 -74q-97 -14 -113 -14q-30 0 -61 7 q-4 1 -17 11t-17 9v-13q-19 -8 -36.5 -17t-23.5 -30q-2 -5 20 -14h-20q5 -30 13 -87q-22 -11 -20 -13q27 -20 20 -101q-1 -7 -8 -44q-6 -30 -5 -50l13 -20v-13q0 -13 -1 -26q1 -48 1 -55q-1 -9 -8.5 -41.5t-7.5 -51.5q0 -15 3 -28l13 -13q6 -59 -7 -128q0 -2 -8 -17 q-7 -11 -5 -23l13 -7q10 -15 10 -29q0 -23 -30 -45l-13 -13h-47q2 0 -13 3t-21 4q2 -2 3 -4q0 -3 -16 -3q-9 13 -7 13h-7q0 33 7 141q0 -2 -7 81q-3 35 1 95l6 86q2 34 -1 99q-4 77 -4 104q0 46 5 79h-20v7h20q-4 25 -3.5 76.5t-3.5 77.5q-87 10 -194 7q-10 -3 -19 -5 q-19 -5 -28 -2q-10 9 -27 20q4 49 0 87q4 11 6 11q1 0 1 -4l6 20q8 -1 35 -5q22 -4 35 -4t24 3q6 6 21 13q10 1 21 1q25 0 76.5 -7t69.5 -7q3 0 15 4t20 4q7 0 12 -2l14 -20q10 -1 29.5 12.5t23.5 14.5q14 2 29.5 -5.5t17.5 -7.5q14 -2 54 2q47 6 59 6q10 0 15 -2 q10 -13 27 -27q5 -2 11 -2q5 0 14.5 1.5t13.5 1.5q19 0 28 -27zM493 132q0 -4 -10 -10l-1 9q0 6 3 6q8 0 8 -5zM483 109q3 -1 3 -8q0 -13 -9 -39q0 -4 -1 17q0 15 1 23.5t6 6.5zM500 -110q0 -4 -10 -9l-1 8q0 6 3 6q8 0 8 -5z" />
<glyph unicode="U" horiz-adv-x="852" d="M769 683q0 -6 -9 -16q0 -1 -1 12q0 9 4 9q6 0 6 -5zM780 580q-8 0 -8 16q0 19 8 17v-33zM780 500q-8 0 -8 16q0 19 8 17v-33zM790 483q0 -4 -10 -10l-1 9q0 6 4 6q2 0 4.5 -1.5t2.5 -3.5zM782 456q0 -6 -9 -16q0 -1 -1 12q0 9 4 9q6 0 6 -5zM782 389q0 -6 -9 -16 q0 -1 -1 13q0 8 4 8q6 0 6 -5zM787 327q0 -28 -3 -81q-4 -59 -4 -73q0 18 7 154zM363 570q0 -4 -10 -10v9q-1 5 3 5q7 0 7 -4zM253 667q3 -1 3 -4q0 -6 -9 -16q0 1 -0.5 8.5t0.5 9.5q1 4 6 2zM269 623q0 -6 -9 -16q0 -1 -1 12q0 9 4 9q6 0 6 -5zM370 517q0 -5 -10 -10l-1 9 q0 6 3 6q8 0 8 -5zM769 116q0 -6 -9 -16q0 -1 -1 12q0 9 4 9q6 0 6 -5zM253 580q3 -1 3 -4q0 -6 -9 -16q0 1 -0.5 8.5t0.5 9.5q1 4 6 2zM363 463q0 -4 -10 -10q0 -1 0 9q0 6 3 6q7 0 7 -5zM360 400q-8 0 -8 16q0 19 8 17v-33zM367 327q-8 0 -8 16q0 19 8 17v-33zM369 303 q0 -6 -9 -16q0 -1 -1 12q0 9 4 9q6 0 6 -5zM720 707q-8 -7 -27 -14q-2 -42 2 -86q4 -62 5 -80q2 -69 0 -100l-13 -27q-1 -14 6 -29.5t7 -17.5q1 -14 -4 -65.5t-3 -74.5q8 -64 7 -80q-1 -17 -15 -48q-16 -38 -18 -45q2 -11 0 -33l-14 -7q-3 -9 -1 -21q2 -11 1 -12h-20 q1 -12 0 -27q-10 -4 -26 -13q-4 -16 -14 -34q-8 1 -20 0q-2 -9 -6 -20q-7 2 -20 0q-7 -12 -20 -26q-6 -3 -17 -0.5t-17 0.5q-6 -10 -13 -20q-4 -1 -9.5 7t-10.5 6q-4 -2 -11.5 -16.5t-14 -16t-11.5 -1.5q-6 0 -19 4t-24 3q-3 -6 -7 -13q-76 0 -126 13l-14 14q-3 1 -12.5 0 t-13.5 0t-47 28.5t-47 31.5q-2 12 -13 33q-13 5 -33 20q-14 16 -32 56q-16 37 -22 64q-5 22 -5 44q0 12 3 41t2 48q-6 29 -13 67q-2 31 5 81q8 57 8 72t-6.5 59t-6.5 55q0 7 7 40q0 -1 -1 -2q-1 0 1 29v19q4 29 8 57q6 35 12 30q-3 7 -7 13q-14 26 -7 74h74q7 -12 20 -27 q16 1 40 0v-20h-14q-2 -9 4 -16q10 -10 10 -11q-3 -6 -7 -13q-1 3 -2 3q-2 0 -5 -16q13 -3 13 -35q0 -39 -13 -52q-2 -2 -2 -6q0 -16 11 -16q2 0 5 2q9 -17 9 -26q0 -5 -3 -7l-6 -4q1 -4 0 -10q-11 0 -11 -21q0 4 11 -65q-4 -15 -7 -40q0 -2 6.5 -23.5t6.5 -23.5 q3 -34 -7 -79q-12 -55 -13 -68q-2 -27 13.5 -101.5t26.5 -91.5q2 -4 13.5 -7t13.5 -6q5 -14 20 -34q18 -4 47 -13q8 -10 20 -20h53q0 -9 7 -20q8 1 20 0q5 11 20 27q9 4 27 4t26 2q23 7 50 34q25 24 37 46q10 18 24.5 71.5t15.5 75.5q0 9 -20 73q-1 12 5 50q8 45 8 50 q4 57 -7 127q3 -3 5 -3t1.5 4.5t0.5 5.5q1 34 0 100q0 5 -8 39q-7 29 -5 41q10 12 20 26q1 6 1 13q0 13 -5 42q-4 25 -3 32q10 9 20 20q16 -2 87 0q1 -27 2 -34q3 -21 11 -33q10 -4 20 -13v-13q8 2 20 0zM253 393q3 -1 3 -4q0 -6 -9 -16q0 2 -0.5 9t0.5 10q1 4 6 1zM362 269 q0 -6 -9 -16q0 -1 -1 13q0 8 4 8q6 0 6 -5zM362 216q0 -6 -9 -16q0 -1 -1 12q0 9 4 9q6 0 6 -5zM253 287q-8 0 -8 27q0 26 8 26v-53zM367 193q2 -1 2 -5q0 -7 -9 -21q0 9 -1 17q1 13 8 9zM260 273q3 -1 3 -7q0 -10 -10 -33v25q0 18 7 15zM262 169q0 -6 -9 -16q0 -1 -1 13 q0 8 4 8q6 0 6 -5zM270 123q0 -4 -10 -10l-1 9q0 6 4 6q2 0 4.5 -1.5t2.5 -3.5zM290 76q0 -4 -10 -9l-1 8q0 6 3 6q8 0 8 -5zM633 780q-2 -7 -6 -20q19 3 19 13q0 8 -13 7zM640 347q0 7 1 14q-1 8 -8 6q-7 -1 -7 -7q0 -10 14 -13zM120 580q-4 4 -1.5 12t-11.5 8v-20h13z M107 -47q6 10 6 16q0 8 -13 4q-3 -1 -3 -3q0 -6 10 -17z" />
<glyph unicode="V" horiz-adv-x="882" d="M831 514q2 -1 2 -5q0 -7 -8 -21q0 -1 -1 11q-1 8 0.5 13t6.5 2zM814 452q0 -6 -9 -16q0 -1 -1 12q0 9 4 9q6 0 6 -5zM714 488q2 -1 2 -5q0 -7 -8 -21q0 -1 -1 11q-1 8 0.5 13t6.5 2zM792 371q-8 0 -8 18q0 17 8 15v-33zM710 445q0 -5 -9 -15q0 -1 -1 12q0 8 4 8q6 0 6 -5 zM779 319q-8 0 -8 18q0 17 8 15v-33zM698 387q0 -4 -10 -9l-1 8q0 6 3 6q8 0 8 -5zM678 341q0 -3 -9 -9l-1 9q0 5 3 5q2 0 4.5 -1t2.5 -4zM671 322q0 -6 -9 -16q0 -1 -1 13q0 8 4 8q6 0 6 -5zM747 248q2 -1 2 -5q0 -7 -9 -21v17q0 13 7 9zM662 294q2 -2 2 -5q0 -5 -8 -15 q-1 -4 -1 14q0 9 7 6zM390 501q2 -1 2 -5q0 -7 -9 -21q0 9 -1 17q1 13 8 9zM643 242q2 -1 2 -5q0 -7 -9 -21v17q0 12 7 9zM418 419q0 -5 -9 -15q0 -1 -1 12q0 8 4 8q6 0 6 -5zM704 95q0 -4 -9 -9v8q-1 6 2 6q7 0 7 -5zM682 53q2 -1 2 -5q0 -7 -9 -21v17q0 13 7 9zM318 397 q2 -1 2 -5q0 -7 -8 -21q0 -1 -1 11q-1 8 0.5 13t6.5 2zM721 748q-1 -6 -13 -17.5t-13 -14.5q-5 -11 -6 -30t-7 -29l-13 -6q-3 -8 -0.5 -26t0.5 -26q-9 -8 -20 -20q-2 -8 0 -26t0 -26q0 -2 -9 -13t-10 -13q0 -12 -7 -39q-9 -7 -19 -19q2 -15 0 -46q-9 -10 -20 -26 q1 -10 0 -32q-3 -11 -20 -41t-19 -43q2 -10 0 -26q-12 -12 -26 -33q-2 -23 -13 -71l-6 -7q6 4 7 -9q1 -11 -1 -17h-19q-10 -47 -39 -124q-29 -80 -39 -123q-5 -1 -32 -5q-22 -4 -35 -4t-24 3l-6 13q-8 1 -20 13q-12 25 -19 68q-8 58 -13 75l-13 6q-4 9 -4 23.5t-3 22.5 q-14 23 -32 65q2 11 0 32q-15 24 -33 65q2 16 0 46q-9 8 -19 19q1 10 0 26q-3 14 -18 39q-18 28 -21 39q0 16 -7 52q-9 12 -19 32q-1 8 3 19.5t3 13.5q-12 11 -26 32q-4 15 0 33l7 13q-11 4 -26 19q-5 15 -5 50v21q-1 15 -2.5 20t-12.5 14t-13 12q-6 13 -19 59v13 q61 -8 136 0l7 -20q0 3 2 3q4 0 4 -11q0 -14 -13 -24q12 -3 26 -13q2 -7 -3 -15.5t-3 -17.5q9 -5 19 -13q9 -15 13 -40q5 -37 7 -44l13 -13q12 -46 13 -72q0 -6 -4.5 -12.5t-2.5 -13.5q10 -2 20 -6q6 -15 7 -36.5t6 -35.5q19 -42 45 -123q-2 -18 0 -52q9 -4 20 -13 q5 -10 5 -32q-1 -25 1 -33q13 -23 33 -65q9 2 19 7q4 7 4.5 20t2.5 19q14 21 32 58q-1 10 0 26q12 11 26 26q-3 22 0 71q3 14 19.5 40.5t19.5 37.5q2 8 0 23.5t0 22.5q12 13 26 32q4 11 10 68q5 46 16 56q1 1 19 6q-9 8 -9 23q0 19 16 53q19 39 19 41q-2 15 0 39q8 5 20 13 q17 16 23 16q1 0 7.5 -3t13.5 -3q9 0 21 3q6 6 19 13q48 6 48 -34q0 -8 -2 -18zM600 69q0 -4 -9 -9l-1 8q0 6 3 6q7 0 7 -5zM672 -2q0 -4 -10 -10l-1 9q0 5 3 5q8 0 8 -4zM659 -29q0 -4 -10 -9v9q0 5 3 5q7 0 7 -5zM367 238q0 -4 -10 -9l-1 8q0 6 3 6q8 0 8 -5zM574 4 q0 -4 -9 -9v8q-1 6 2 6q7 0 7 -5zM528 49q0 -5 -9 -15q0 -1 0 12q0 8 4 8q5 0 5 -5zM386 186q0 -4 -9 -9l-1 8q0 6 3 6q7 0 7 -5zM646 -74q0 -4 -10 -9l-1 8q0 6 3 6q8 0 8 -5zM630 -103q2 -1 2 -5q0 -7 -9 -21v17q0 13 7 9zM620 -152q0 -4 -10 -9v8q0 6 3 6q7 0 7 -5z M606 -185q0 -5 -9 -15q0 -1 0 12q0 8 4 8q5 0 5 -5zM503 -152q0 -4 -9 -9l-1 9q0 5 3 5q7 0 7 -5zM506 -174q3 -1 3 -4q0 -6 -9 -16q0 2 -0.5 9t0.5 10q1 4 6 1zM643 657q-1 2 0 6.5t0 5.5q-1 2 -7 1t-6 -5q0 -6 13 -8zM169 300q13 -4 13 5q0 13 -13 14v-19z" />
<glyph unicode="W" horiz-adv-x="1189" d="M867 546q0 -6 -9 -16q0 -1 -1 12q0 9 4 9q6 0 6 -5zM831 570q13 -1 14 -2q-13 0 -26 1q-26 1 -8 1h20zM858 516q3 -1 3 -5q0 -8 -10 -22q0 9 -1 18q1 13 8 9zM851 482q3 -1 3 -5q0 -8 -9 -22q0 -1 -1 11q-1 9 0 13q2 6 7 3zM753 526q0 -4 -10 -10v9q0 6 3 6q7 0 7 -5z M840 418q0 -7 -9 -17q0 -1 -1 13q0 9 4 9q2 0 4 -1t2 -4zM739 472q0 -4 -9 -10l-1 9q-1 6 3 6q7 0 7 -5zM821 337q0 -5 -10 -10l-1 9q0 6 4 6q2 0 4.5 -1.5t2.5 -3.5zM814 317q0 -4 -10 -10l-1 8q0 6 3 6q8 0 8 -4zM800 262q0 -4 -9 -9l-1 8q0 6 3 6q7 0 7 -5zM1135 773 q-4 -41 -20 -128q-9 -15 -20 -41q2 -11 0 -34q-10 -12 -21 -27q1 -16 0 -47q-12 -23 -27 -61q-5 -20 -7 -52q-2 -36 -6 -56q-3 -15 -20.5 -52t-20.5 -49.5t-3 -39.5t-4 -41q-9 -14 -20 -34q-4 -15 -6 -42q-1 -23 -7 -39q0 -1 -6.5 -3.5t-7.5 -3.5q-4 -14 -4 -37.5t-3 -36.5 q-12 -26 -27 -68q3 -21 0 -61q-8 -6 -20 -20q-34 -2 -57 -2t-51 2q-26 78 -61 230q-12 24 -27 61q-1 20 -7 60l-13 14q-6 23 -10 64.5t-10 63.5q-9 13 -21 34q2 14 0 41q-9 10 -20 27q-3 11 -4 46q-1 29 -9 41q-3 4 -13.5 8t-13.5 6q-9 -11 -21 -27q2 -14 0 -41l-20 -20 q7 -4 6 -20q0 -16 -6 -20q7 -2 7 -10q0 -18 0 -17q-5 -1 -14 20q2 -14 0 -41q-9 -7 -20 -20q-7 -18 -10 -59q-2 -44 -4 -49l-13 -7q-7 -18 -9 -46q-2 -34 -5 -48q-12 -20 -27 -55q-3 -11 -3 -26v-12q0 -16 -3 -29l-14 -14q2 -12 0 -33l-13 -7q2 -14 0 -41q-10 -26 -27 -74 q-13 2 -27 2q-12 0 -34.5 -2.5t-34.5 -2.5q-16 0 -33 3q6 9 7 34l-20 20q-1 9 3.5 16t2.5 18l-13 13q-4 13 -4 34t-3 34q-9 16 -20 40q-6 24 -6.5 69.5t-7.5 72.5q0 2 -10 7.5t-10 6.5q-8 18 -8 46q-1 33 -5 48l-14 14q-13 50 -27 115q0 7 4 11.5t3 8.5l-14 14 q-14 54 -27 135h-47q18 4 41 7q-6 18 -8 43.5t-6 43.5l-13 14q-16 58 -21 94q-2 12 7 41q50 -7 128 0q10 -10 21 -27q2 -10 -3 -20.5t-4 -20.5l13 -6q7 -19 14 -88q-1 -36 7 -108l13 -7q5 -13 16 -66q10 -49 11 -62q1 -7 -3.5 -11.5t-3.5 -9.5q12 -19 28 -54q-2 -21 0 -61 q12 -20 27 -54q6 -38 20 -108q12 4 27 14q-1 10 0 27q12 17 27 47q5 17 6.5 44t6.5 44q10 11 21 27q-2 16 0 47q9 5 20 14q9 20 9 59q1 46 4 62q12 17 27 48q-1 20 7 61l14 6q1 6 -3.5 8t-4.5 7q0 2 1 6l13 13q4 13 4 34t3 34q10 28 27 87q12 1 51.5 7t50.5 7 q23 -93 54 -189q3 -21 13 -61l14 -7q2 -12 -3 -34t-4 -27q0 -1 16 -28t18 -32q20 -60 20 -115v-14q10 -4 20 -13q5 -11 5 -30q1 -26 2 -31q9 21 14 20q-4 -2 -4 -14q0 -47 24 -121q5 4 19 5q11 1 15 9q8 14 9 44q1 38 4 50q11 24 27 68q3 30 14 101q10 24 20 61q-2 19 0 54 q9 8 20 20q5 16 4.5 48t2.5 47q14 30 34 81q1 2 8 48q5 35 12 40q8 -5 27 -7q11 10 27 20q9 2 18 2l56 -9q2 -5 0 -9q0 -1 7 -4zM375 479q0 -4 -10 -10l-1 9q0 5 3 5q8 0 8 -4zM550 302q0 -6 -9 -16q0 1 -1 8q-1 6 0 9q0 5 3 5q7 0 7 -6zM571 242q0 -4 -10 -10l-1 9q0 6 3 6 q8 0 8 -5zM574 185q-8 0 -8 18t8 16v-34zM655 111q3 -1 3 -4q0 -6 -9 -16q0 -1 -1 9q-1 6 0 9q2 5 7 2zM351 401q3 -1 3 -4q0 -6 -9 -16q0 -1 -1 9q-1 6 0 9q2 5 7 2zM598 141q0 -4 -10 -10q0 -1 0 9q0 6 3 6q7 0 7 -5zM652 60q0 -4 -10 -10l-1 9q0 7 3 7q8 0 8 -6zM608 104 q3 -1 3 -5q0 -8 -10 -22q0 9 -1 18q1 13 8 9zM725 -35q0 -6 -9 -16q0 -1 -1 12q0 9 4 9q6 0 6 -5zM502 154q0 -6 -9 -16q0 -1 -1 12q0 9 4 9q6 0 6 -5zM509 127q0 -6 -9 -16q0 -1 -1 12q0 9 4 9q6 0 6 -5zM331 273q-8 0 -8 17q0 19 8 17v-34zM516 100q0 -6 -9 -16 q0 -1 -1 12q0 9 4 9q6 0 6 -5zM523 66q0 -4 -9 -9l-1 9q0 5 3 5q7 0 7 -5zM530 40q0 -4 -10 -10l-1 9q0 6 3 6q2 0 5 -1.5t3 -3.5zM321 242q0 -4 -10 -10l-1 9q0 6 3 6q8 0 8 -5zM10 553q0 -4 -10 -10l-1 9q0 6 3 6q8 0 8 -5zM544 6q0 -4 -10 -10l-1 9q0 5 3 5q8 0 8 -4z M17 526q0 -4 -10 -10l-1 9q0 6 3 6q8 0 8 -5zM696 -139q3 -1 3 -7q0 -11 -10 -34v26q0 18 7 15zM550 -15q0 -6 -9 -16q0 1 -1 7t0 10q0 4 3 4q7 0 7 -5zM23 505q0 -6 -9 -16q0 1 -1 7t0 10q0 4 3 4q7 0 7 -5zM557 -48q0 -4 -10 -10l-1 9q0 5 3 5q8 0 8 -4zM304 212 q2 -1 2 -5q0 -7 -9 -22q0 9 -1 18q1 13 8 9zM29 478q0 -6 -9 -16q0 -1 -1 12q0 9 4 9q6 0 6 -5zM571 -96q0 -4 -10 -9l-1 8q0 6 3 6q8 0 8 -5zM662 -193q13 -1 14 -2q0 -1 -26 0q-25 1 -8 2h20zM37 431q0 -4 -10 -9l-1 8q0 6 3 6q8 0 8 -5zM577 -123q0 -6 -9 -16q0 1 -1 7 t0 10q0 4 3 4q7 0 7 -5zM50 391q0 -4 -9 -10l-1 9q0 6 3 6q7 0 7 -5zM63 343q0 -6 -9 -16q0 -1 -1 12q0 9 4 9q6 0 6 -5zM77 289q0 -3 -9 -9l-1 9q-1 6 2 6q2 0 5 -1.5t3 -4.5zM84 263q0 -4 -10 -10l-1 9q0 6 3 6q2 0 5 -1.5t3 -3.5zM97 201q0 -6 -9 -16q0 -1 -1 12q0 9 4 9 q6 0 6 -5zM117 141q0 -7 -9 -17q0 -1 -1 13q0 9 4 9q2 0 4 -1t2 -4zM151 -15q0 -6 -9 -16q0 -1 -1 12q0 9 4 9q6 0 6 -5zM171 -82q0 -7 -9 -17q0 -1 -1 13q0 9 4 9q2 0 4 -1t2 -4zM179 -116q0 -4 -10 -10l-1 9q0 6 3 6q8 0 8 -5z" />
<glyph unicode="X" horiz-adv-x="835" d="M445 619q0 -4 -10 -9l-1 8q0 6 3 6q8 0 8 -5zM252 800q13 -1 14 -1q-30 0 -35 1h21zM327 630q2 -1 2 -5q0 -7 -9 -22q0 -3 -1 11q0 9 1.5 14t6.5 2zM649 286q0 -4 -10 -10v9q0 6 3 6q7 0 7 -5zM792 55q0 -5 -10 -10v9q0 6 3 6q2 0 4.5 -1.5t2.5 -3.5zM748 -186l1 -1 q0 -1 -4 -5.5t-4 -7.5q-70 -9 -95 0q-2 1 -20 20q-5 1 -9 -6t-5 -7q-9 1 -27 0q-12 15 -19 36q-9 28 -15 39q-17 17 -41 47q-7 12 -14 34.5t-13 33.5q-18 21 -54 89q-7 3 -14 7q-8 18 -27 54q-11 0 -34 -7q-6 -3 -33 -42t-28 -46q-1 -6 3.5 -12t2.5 -9h-20q-9 -7 -20 -20 q-6 -12 -8 -30q-2 -1 -40 -11q2 -77 -27 -116q-8 -4 -21 -13q0 -8 -7 -21q-23 -20 -76 -20q-30 0 -73 7q1 4 1 7t-4.5 5.5t-3.5 7.5q1 4 13.5 11t13.5 10q6 12 13 42q6 27 14 39q14 8 34 27q5 8 7.5 25t6.5 23q2 3 10.5 7t9.5 7q11 17 24.5 51.5t23.5 50.5q14 12 34 34 q0 11 7 34q11 6 27 20q51 76 48 109q-1 12 -20 35t-21 33q1 8 0 20q-13 9 -34 28q-3 3 -1 10t1 10q-9 9 -21 20q0 12 -6 34q-16 10 -34 28q-3 6 -0.5 20.5t0.5 20.5q-2 5 -16.5 25.5t-17.5 21.5h-14q-5 7 -7.5 20t-7 22.5t-23 30t-23.5 29.5q-7 20 -27 61q56 5 83 5 q50 0 73 -11q17 -8 23 -32q8 -37 11 -43q7 -13 33.5 -37t34.5 -38q6 -18 21 -54h6q-2 -12 0 -35q8 -1 21 -6q4 -4 4 -16.5t2.5 -17t14 -11t13.5 -10.5q-2 -6 0 -20q17 -1 47 7q15 36 34 81q10 9 21 21q-2 9 0 20q8 0 20 7q5 18 21 54q11 10 27 28q5 10 6.5 26.5t6.5 27.5 q15 12 34 34v14q11 8 20 8q4 0 12.5 -2.5t14.5 -2.5q7 0 15 3q1 1 4.5 7.5t8.5 6.5q14 0 46.5 -7t48.5 -7q-16 -42 -40 -81l-14 -7q2 -6 0 -20q-9 -5 -20 -14q-13 -30 -48 -88q-9 -5 -20 -14q1 -7 0 -21q-14 -26 -34 -61q-17 -16 -41 -47q0 -12 -7 -34q-20 -24 -39 -47 q-25 -33 -22 -62q1 -13 33 -54q38 -48 42 -55q6 -17 20 -54h14q-2 -10 0 -28q12 -7 27 -20q8 -12 17 -37.5t17 -37.5q14 -11 34 -34q3 -5 3 -17t4 -17l13 -7q1 -6 -4 -12.5t-5 -9.5q0 -2 2.5 -6t16 -6.5t19 -7t19 -37t20.5 -36.5zM293 181q-1 2 0 10q1 4 -7 4z" />
<glyph unicode="Y" horiz-adv-x="720" d="M772 694q0 -4 -10 -10l-1 9q0 6 3 6q8 0 8 -5zM364 681q0 -4 -10 -10l-1 9q-1 6 3 6q8 0 8 -5zM309 558q0 -4 -10 -10l-1 9q0 6 3 6q8 0 8 -5zM554 204q0 -4 -10 -9l-1 8q0 6 3 6q8 0 8 -5zM558 181q0 -21 -3 -62q-4 -48 -4 -54q0 22 3 63q4 47 4 53zM701 725 q-14 -5 -14 -7q0 -13 -7 -40q-11 -7 -27 -21q1 -6 0 -20q-11 -12 -27 -34q-3 -18 -14 -48q-11 -6 -27 -20q-4 -17 -14 -48q-13 -17 -34 -48v-20q-2 -11 -18 -32q-20 -24 -22 -29q-8 -22 -28 -68q-25 -31 -54 -82q-5 -22 -8 -60q-2 -38 1 -55l14 -21q2 -26 -7 -150 q-1 -10 -7 -115q-25 2 -81 13q-6 -9 -14 -20q-6 2 -20 0q4 10 13 34q-3 1 -6 1q-6 0 -12 -4.5t-9 -3.5q-7 3 -7 48q0 1 7 27t7 27q4 82 -7 232q2 24 0 68q-2 9 -20 28.5t-21 25.5q-9 18 -18 48.5t-16 46.5l-14 7q-12 20 -22 49q-9 26 -18 53q0 1 -6.5 3.5t-7.5 3.5 q2 11 0 27q-3 6 -20.5 16.5t-20 16.5t-1.5 20q0 10 -6 15l-6 7v14q-5 10 -14 27q-8 13 -20 34q-1 6 -7 20q-3 5 -14 34l-13 7q-7 16 -7 34q-3 11 -7 27q17 3 41 7q18 2 52 -2q38 -4 50 -12v-13q4 -13 23 -38q20 -28 24 -37q6 -14 10.5 -34t10.5 -34q11 -11 27 -34 q0 -13 7 -41q16 -20 41 -61q4 -10 5.5 -30t7.5 -31q3 -5 17 -13.5t17 -14.5q5 -15 14 -40h20q9 23 28 61q2 3 10.5 6.5t9.5 6.5q5 10 7 27.5t7 27.5q9 7 20 20q-2 10 0 27q10 9 20 21q4 22 21 61q15 3 34 14q-5 10 -7 34q2 11 16 29q16 22 18 25q5 11 7.5 28t6.5 27 q5 1 46 8q34 7 49 7q9 0 13 -2q13 -6 18.5 -27t9.5 -41zM456 235q0 -77 -6 -77q-1 2 -1 9q0 3 7 68zM551 52q3 -1 3 -7q0 -11 -10 -34v26q0 18 7 15zM449 140q3 -1 3 -5q0 -8 -10 -22q0 9 -1 18q1 13 8 9zM561 -6q0 -4 -10 -10l-1 9q-1 6 3 6q8 0 8 -5zM456 99q3 -1 3 -7 q0 -10 -10 -33q0 44 7 40zM451 14q0 -7 -9 -17q0 -1 -1 13q0 9 4 9q2 0 4 -1t2 -4zM463 -37q-8 3 -8 20q0 8 8 7q10 -2 10 -16q0 -15 -10 -11z" />
<glyph unicode="Z" horiz-adv-x="735" d="M720 613q2 -1 2 -5q0 -7 -9 -21v17q0 13 7 9zM713 573q3 -1 3 -4q0 -6 -9 -16q0 2 -0.5 9t0.5 10q1 4 6 1zM690 523q0 -4 -10 -10l-1 9q0 7 3 7q8 0 8 -6zM262 623q0 -6 -9 -16q0 -1 -1 12q0 9 4 9q6 0 6 -5zM540 280q-6 -1 -7 2t1.5 6.5t5.5 4.5q8 2 8 -1q0 -4 -8 -12z M260 587q3 -1 3 -7q0 -11 -10 -33v25q0 18 7 15zM716 -51q0 -4 -9 -9v9q-1 5 2 5q7 0 7 -5zM720 -73q2 -1 2 -5q0 -7 -9 -22v18q0 12 7 9zM640 -113q-31 -12 -31 -17q0 -3 4 -14t7 -23q-21 -18 -27 -26q-20 2 -50 0q-37 -3 -51 -3q-22 0 -45 3q-4 0 -24 7t-30 6l-13 -13 q-24 -7 -73 -7q-28 0 -108 8q-73 7 -112 5q-5 0 -28.5 -7t-31.5 -6q-6 6 -20 13v14q2 -5 4 -5q5 0 9 18l-20 13q1 9 1 47q-1 30 6 47q4 11 26 31.5t27 28.5q7 12 13 39.5t14 40.5l60 46q5 8 9 38.5t11 41.5q13 9 33 27q1 9 7 27q9 14 26 46h14q4 18 20 54q19 18 46 53 q6 11 9 33.5t11 33.5q4 6 28 19q21 10 21 20q0 5 -4.5 12t-4.5 9l60 93q-8 12 -26 27h-80q-5 14 -14 33q-9 3 -20 7q-4 -10 -13 -40q-25 2 -50 2t-71 -3t-71 -3q-34 0 -68 4q3 36 7 120q11 1 42 5q27 3 43 3q15 0 28 -2q15 -9 33 -20q12 -1 36.5 4t40.5 5q11 0 23 -2 q3 -13 7 -27q8 -2 13 -2q11 0 11 8q0 3 -2.5 10.5t-1.5 10.5q0 1 6 5.5t7 7.5q16 0 57 -4q34 -4 50 -2q17 8 27 6q10 -9 26 -20q14 -5 28 -6h26q2 3 26 33q33 -6 39 -8t28 -12q1 -15 1 -49q-2 -44 -8 -58q-2 -5 -16 -13.5t-17 -12.5q1 -10 0 -27q-6 -3 -11.5 -7t-41.5 -73 q-1 -2 0 -9.5t0 -10.5q-19 -18 -47 -53q-3 -16 -13 -40q-8 0 -20 -7q-2 -3 -22 -48q-15 -35 -25 -39q-10 2 -27 0q1 -5 8 -14.5t6 -18.5h-7q-12 -25 -33 -56q-28 -40 -34 -51q-2 -13 -13 -40q-4 -6 -28 -22q-20 -14 -20 -24q0 -3 4.5 -8t3.5 -12t-16 -20.5t-17 -19.5v-14 h-14q-1 -1 -18 -40q-12 -28 -22 -33q8 -13 7 -20q11 0 26 -2t19 -2q12 0 17.5 9.5t10.5 41.5v-47q20 3 87 0q7 -1 29 -8q19 -6 24 -5q4 0 24 4t32 4q11 0 18 -2l4 -6.5t9 -6.5l7 13q18 7 42 7q36 0 78 -13q4 -16 4 -26q0 -16 -11 -8q12 -3 40 -6zM673 -107q13 -1 14 -2 q-12 0 -26 1q-25 1 -8 1h20zM553 -13q-6 0 -11 1q5 1 9 -1q6 -2 -4 -7q26 2 39.5 4t7.5 3q-8 1 -41 0zM593 -53q-15 6 -15 9q0 2 9 4q12 2 12 -3q0 -4 -6 -10zM363 150q0 -4 -10 -10v9q-1 5 3 5q7 0 7 -4zM487 -40q7 -1 7 -7q0 -10 -14 -13q0 7 -1 14q1 7 8 6zM316 89 q0 -4 -9 -9l-1 9q0 5 3 5q7 0 7 -5zM389 9q0 -6 -9 -16q0 -1 -1 13q0 8 4 8q6 0 6 -5zM480 707l1 10q0 3 -8 3zM373 753q-3 2 -2 8t-11 6v-14h13zM460 -107q-3 2 -3 7q1 5 1 6q-2 2 -11 1q3 0 -20 -14h33zM320 -127q-1 28 0 27l-13 13q2 -2 2 -6q0 -5 -4.5 -16l-4.5 -11 q8 2 13 -2t7 -5z" />
<glyph unicode="^" horiz-adv-x="408" d="M330 699q4 -2 -4 -10v7q0 5 4 3zM279 726q5 -2 -3 -7q0 8 3 7zM333 611q5 -2 -3 -6q0 8 3 6zM311 531q-17 1 -20.5 2.5t-18.5 30.5t-16 34q1 5 0 13q-7 18 -34 61q-2 2 -7 3q-1 9 -6 27q-7 9 -17 24q0 8 -7 24q-2 3 -8 5.5t-9 4.5q-16 -13 -26.5 -38.5t-20.5 -49.5 q0 -1 -5 -6.5t-5 -6.5q0 -2 0.5 -7t-0.5 -7q-11 -10 -27 -30q1 -6 0 -17l-7 -3q-3 -16 -17 -48q-11 -15 -20 -15q-5 0 -5 3q0 1 2 2q-11 1 -37 4q4 11 20 40q8 19 27 57q8 8 17 21q-1 3 0 10q4 2 10 6q0 10 6 27q6 4 14 11v10q7 10 17 27v13q8 8 17 24v10q5 8 10 17 q6 1 13 3q-1 5 0 10q4 3 17 7q20 3 30 -7q4 -13 11 -34q3 -6 13 -20t13 -20.5t7 -19.5t7 -20q9 -10 20 -31q-1 -6 0 -17q8 -8 20 -23q19 -31 41 -81l7 -20q0 -5 -4.5 -7.5t-21.5 -2.5zM182 632q4 -3 -4 -7v5q0 4 4 2zM124 601q5 -2 -3 -6q0 7 3 6z" />
<glyph unicode="_" horiz-adv-x="636" d="M589 507q2 0 -44 9h50q0 -1 -1 14q0 5 8 7t8 -6q0 -19 -6.5 -21.5t-14.5 -2.5zM452 516q14 -1 15 -2q0 -1 -28 0q-28 2 -9 2h22zM545 373q-4 2 -20.5 4t-16.5 7q0 3 6 8t6 7t-4 2h-1h8q24 0 24 -12q0 -3 -2 -10q-2 -5 0 -6zM352 516q-41 -4 -41 -3t5 3q14 6 36 14v-14z M245 523q-19 22 -12 22q2 0 5.5 -1.5t9.5 -11.5t1 -10q-2 0 -4 1zM516 351q-5 0 -36 -5q-25 -3 -28 -2q-5 2 -3 8q3 9 2 10q-1 5 -13 4q-2 0 -4 -14q-2 -10 -25 -8q-18 11 -43 22q-4 0 -16 -7.5l-12 -7.5h-72l-7 22q4 4 21 14q-4 0 10 -4t19 -3q7 1 22.5 10.5t20.5 10.5 q36 7 71 -7l15 -14q6 -1 18 4t20 5q6 0 12 -2q11 -15 28 -36zM223 387q-3 -10 -14 -28q-14 -13 -19 -13q-1 0 -4 3t-7 3q-3 0 -6 -1v36q2 1 15 7q8 -4 16 -5q12 0 19 -2zM159 351q-12 -1 -36 -7v22q1 3 15 7q4 0 21 -22zM88 387q-2 -5 -8 -21q-17 -2 -17 -4q1 -2 10 -3 q-3 2 -13.5 0t-14.5 0v14l-14.5 7.5t-14.5 10.5q0 2 7 3q15 1 34 -2q24 -5 31 -5z" />
<glyph unicode="`" horiz-adv-x="275" d="M201 693q-8 -2 -19 -7q-28 -24 -40 -24t-25 11l-6 13q-9 2 -10 -3q0 -2 2 -5q-2 1 -5 2q3 6 6 13q2 7 0 13q-2 4 -13 7t-13 6q0 10 -6 25q-10 8 -25.5 9.5t-32.5 3.5q9 3 26 7q-17 14 -52 64q11 6 32 20q30 -14 72 -23q35 -8 48 -18q20 -15 35 -56l13 -7v-38q4 0 10 -3 q0 -1 3 -10zM46 648q-1 0 -6.5 9t-5.5 13q0 5 6 3q14 -4 14 -18q0 -10 -8 -7z" />
<glyph unicode="a" horiz-adv-x="655" d="M336 339q0 -6 -9 -16q0 -1 -1 13q0 8 4 8q6 0 6 -5zM334 304q2 -1 2 -5q0 -8 -9 -22q0 9 -1 18q1 12 8 9zM343 260q0 -4 -9 -9l-1 8q0 6 3 6q7 0 7 -5zM62.5 384q-5.5 13 -1.5 13q1 0 3 -1.5t7 -14t2 -12.5q-1 0 -3 1t-7.5 14zM578 -40q1 -27 -2 -76q-4 -55 -4 -82 q-3 0 -45 -8q-29 -5 -47 -5q-21 0 -34 6q-5 2 -11.5 16.5t-8.5 16.5q-70 -35 -143 -35q-39 0 -101 9q-12 -2 -33 0q-16 13 -40 33q-30 24 -60 78q-34 61 -34 112q0 11 2 21l13 7q5 7 7 23t6 23q14 9 33 26q3 13 14 33q7 -1 19 0q11 12 33 27q11 -2 33 0q13 10 27 20 q11 2 23 2q19 0 48.5 -8t40.5 -8q17 0 46.5 7.5t50.5 7.5q11 0 22 -1v16q0 6 7 10q4 -3 4 -6q0 -2 -1 -4t-1 -3q0 -4 11 -7q-9 17 -20 46q-1 6 -1 13q0 8 2 24t2 24q0 11 -3 19q-8 6 -20 19h-20q-15 10 -39 20q-13 1 -27 -5q-17 -8 -20 -8q-6 0 -11.5 6.5t-14.5 6.5 q-21 1 -54 -13q-22 -10 -45 -20q-17 -7 -29 -7t-25 8q-16 10 -32 19q2 5 7 20q-2 3 -33 13q0 28 3 28q1 -1 3 -2q9 5 5 7t-9 1q-4 -1 11 -1v20q30 9 60 19q64 20 65 20q3 -1 9.5 -10t17.5 -9q3 0 4.5 9t1.5 10q14 0 40.5 3.5t32.5 3.5h33q1 -1 7 -13q10 -1 11.5 6l1.5 7 q11 3 20 -7q12 -13 13 -13q10 2 26 0l7 -13q9 -3 29 -2.5t30 -4.5q6 -3 8 -16.5t6 -16.5h19q16 -29 33 -58q16 -33 16 -65q0 -18 -6 -58q-4 -35 -3 -50l13 -13q2 -8 2 -18q0 -12 -4 -31q-4 -22 -4 -24q-2 -27 1 -76q3 -35 5 -69zM162 251q-6 0 -11 1q5 1 9 -1q6 -2 -4 -7 q26 2 39.5 4t6.5 3t-40 0zM17 79q-8 0 -8 27q0 26 8 26v-53zM446 284q0 1 1 10q0 3 -7 3zM440 -27q3 20 3 34q0 12 -2.5 26.5t-2.5 25.5t2 27q-5 1 -14 -20l-6 33q-25 0 -54.5 4t-41.5 4q-11 0 -23 -2l-13 -13q-5 -1 -81 -5q-28 -1 -45 -15q-5 -4 -8 -18q-4 -19 -5 -21 q-11 -29 -11 -45q0 -20 19 -31q26 -12 51 -23q-17 -13 -13 -13q10 -3 30 -1q22 2 30 1l13 -14q31 -8 72 0l20 20q15 5 26 3q18 -3 21 -3q19 38 19 93q1 -2 7.5 -23.5t6.5 -23.5zM336 88q0 -6 -9 -16q0 -1 -1 13q0 8 4 8q6 0 6 -5zM175 33q13 -1 14 -2q-29 1 -33 2h19z" />
<glyph unicode="b" horiz-adv-x="627" d="M181 760q-11 -3 -11 11q0 15 11 16v-27zM188 733q0 -17 -7 -168q0 18 7 168zM558 81q1 -7 1 -16q0 -39 -20 -102q-19 -58 -35 -77q-17 -8 -40 -27q0 -9 -7 -20q-6 2 -20 0q-4 -10 -14 -20q-9 -3 -26 -1q-20 2 -27 1l-14 -14q-20 -5 -39 -5q-39 0 -82 22q-30 18 -60 37 h-27q-9 -23 -20 -47q-10 -6 -55 -9t-60 2q-3 6 -13 14q3 25 3 56q0 28 -3.5 86t-3.5 86q0 60 11 101q15 20 13 20l-20 47q-2 11 7 41q2 27 -1 85q-3 71 -3 98q0 42 4 72q-8 0 -8 7q0 10 8 20q0 11 -2.5 39.5t-2.5 43.5q0 24 5 38q9 4 20 13q1 8 0 20q-1 2 -27 7q0 41 20 101 q21 -6 38 -8q12 -1 32 0q24 1 38 1q1 -9 0 -27h-14v-13h27q-9 -62 -9 -138q0 -98 16 -151q9 -1 27 0q12 15 33 34q12 -1 34 0q6 1 33 19q23 15 41 14q11 -1 23.5 -13.5t16.5 -13.5q5 -1 11.5 7.5t15.5 6.5q6 -9 14 -20q3 -1 7.5 3t12.5 3q20 -1 38 -18q15 -14 29 -29 q4 2 20 7q-1 -8 0 -20l14 -7q2 -4 26 -74q1 -6 1 -11q0 -10 -4.5 -28t-2.5 -28q0 -1 9.5 -6.5t10.5 -7.5q2 -5 2 -12q0 -10 -4.5 -28t-4.5 -20q0 -3 1.5 -27.5t1.5 -39.5q0 -40 -10 -41q-2 0 -2 -3q0 -8 16 -30zM444 121q1 2 -9 14q-6 6 -12 13v13q1 -4 2 -4q2 0 5 11 q0 5 -13 88q13 8 6 33q-9 5 -20 14q-1 2 -13 34q-7 18 -20 26q-10 1 -27 7q-7 6 -10 26q-2 16 -12 16q-5 0 -12 -2l-7 -27q-67 0 -114 -27v-40q-7 3 -7 11v16q-5 -3 -12 -6.5t-14 -0.5q-3 -5 -14 -20q4 -14 7 -40q-6 -24 -14 -54q-1 -17 3 -43.5t4 -37.5q-9 -22 -7 -33 l14 -14q0 -6 -4 -20t-4 -23q0 -5 1 -10q2 -9 16 -25q17 -21 18 -23q3 -14 13 -33q7 -5 23 -9q21 -4 24 -5q64 -22 78 -22q9 0 16 2q5 12 14 27q6 5 36 21q25 13 31 26q2 4 2 7q0 5 -5.5 12.5t-3.5 14.5q4 3 10 6.5t10 6.5q1 5 0 38q0 17 21 36zM323 -107q-4 2 -3 7.5 t-11 5.5v-13h14zM410 222q-8 0 -8 17q0 19 8 17v-34zM403 215q3 -1 3 -5q0 -8 -9 -22q0 -1 -1 11q-1 9 0 13q2 6 7 3zM191 279q0 -4 -10 -10v9q0 5 3 5q7 0 7 -4zM329 108q-14 29 -9 29q1 -1 3 -2q5 4 8 4q4 0 4 -6q0 -9 -6 -25zM197 238q0 -6 -9 -16q0 -1 -1 12q0 9 4 9 q6 0 6 -5zM343 41q11 -1 12 -2q0 -1 -19 0q-17 0 -31 1t-3 1q33 1 41 0z" />
<glyph unicode="c" horiz-adv-x="634" d="M609 -94q-16 -28 -51.5 -57.5t-63.5 -39t-118 -13.5q-1 1 -7 13q-12 2 -24 -2.5t-21 -4.5q-27 4 -52 13q-2 6 -6 13q-16 0 -46 7l-58 51v13h-13q-3 6 -3 19t-3 20q-14 13 -33 39q1 9 0 26q-9 11 -19 26q-18 79 -7 156q9 20 20 51q-2 15 0 46l45 97q6 6 22.5 9.5t22.5 9.5 q3 3 7 21t13 25q5 4 16 4t16 2q12 13 33 26q7 1 12 -3t8 -4t6 1q9 7 18 13q17 13 33 13q10 0 26.5 -6.5t19.5 -6.5q20 1 58 0q-1 -3 7 -13q-19 -13 -13 -13q8 -1 14.5 6t11.5 13q19 -10 58 -32v-13q7 -4 22.5 -3.5t22.5 -3.5q19 -9 19 -32q0 -13 -12 -19h-7q-2 -8 3 -16 t5 -14q0 -4 -1.5 -10t-38.5 -38q-3 2 -12.5 0.5t-13.5 -0.5t-7.5 13t-5.5 13t-104 39q-9 0 -29 -9q-23 -10 -29 -11q-9 -1 -23.5 3t-15.5 4q-8 -9 -19 -20q-48 -29 -63 -77q-11 -31 -15 -111q-3 -9 -5 -18q-4 -17 -2 -27l13 -13q2 -32 7 -71q8 -4 19 -13q2 -13 13 -33 q8 -7 29 -13t30 -13q4 -11 13 -26q8 9 19 20q5 1 16.5 -6.5t20.5 -7.5q4 0 8 1q-5 8 -5 10q0 5 12 3q16 -2 13 -4q-5 -3 -9 -5q-5 -5 9 -11q-38 -4 -38 -10q1 -2 5 -3l7 -19q29 7 32 6q0 13 7 33q5 5 19.5 7.5t19.5 5.5q11 11 52 39q5 8 12 19q22 -19 27 -25q2 -3 19 -33h13 q-2 -10 0 -26q3 0 10 4q2 1 9 -4zM87 317q0 -4 -9 -9v8q-1 6 2 6q7 0 7 -5zM392 -59q0 -4 -10 -9v8q0 6 3 6q7 0 7 -5zM13 204q2 -1 2 -5q0 -7 -9 -21v17q0 13 7 9zM9 148q0 -4 -9 -9l-1 9q0 5 3 5q7 0 7 -5zM0 81q-1 -11 -1 -16q-1 13 0 33q1 37 1 35v-52zM6 48q3 -1 3 -5 q0 -7 -9 -20q0 1 -0.5 10t0.5 12q1 5 6 3zM22 -7q0 -4 -9 -9l-1 8q0 6 3 6q7 0 7 -5zM48 -59q0 -4 -9 -9l-1 8q0 6 3 6q7 0 7 -5z" />
<glyph unicode="d" horiz-adv-x="684" d="M433 747q0 -31 -3 -88q-3 -66 -3 -79q0 41 6 167zM342 743q0 -6 -9 -16q0 -1 -1 12q0 9 4 9q6 0 6 -5zM343 610q0 -4 -10 -10v9q-1 5 3 5q7 0 7 -4zM436 490q0 -4 -9 -10q0 1 -1 9q-1 6 2 6q2 0 5 -1.5t3 -3.5zM343 570q0 -4 -10 -10v9q-1 5 3 5q7 0 7 -4zM343 523 q0 -4 -10 -10q0 -1 0 9q0 6 3 6q7 0 7 -5zM213 560q-63 6 -40 7q8 0 24 -3.5zM607 60q0 -4 -13.5 -17.5t-13.5 -15.5q-2 -15 8.5 -22t11.5 -12q8 -33 -7 -173q-52 -9 -120 0q-4 19 -13 53h-20q-4 -9 -13 -20q-2 -1 -9.5 0t-10.5 0q-15 -4 -54 -29q-34 -23 -60 -24 q-6 0 -53 8.5t-53 11.5q-7 12 -20 27q-8 -1 -20 0l-67 53q-4 8 -4.5 21t-2.5 19l-13 13q-23 86 -23 210q0 38 3 70q0 3 6.5 27.5t6.5 26.5q0 -4 -2 50q-1 29 9 50q8 1 20 6q5 5 5 20t2 20q6 13 25 17q23 6 27 9t7 17.5t7 16.5q12 6 28 4q25 -4 19 -4l7 20q22 8 64 8 q43 0 62 -8l7 -13q9 -3 33 -4q17 -1 27 -9q1 -8 7 -20q11 -8 28 -12q25 -5 32 -8q8 30 4 85q-6 84 -6 92q0 36 8 63q10 24 7 26q-16 14 -13 80q1 1 13 7q70 -2 113 -13q0 1 -2 -124q-2 -74 2 -123q3 -25 6 -49q4 -37 1 -58q-6 -13 -13 -40q-1 -24 9 -82q10 -61 10 -92 q0 -29 -6 -52l-13 -14q-1 -11 10 -49t10 -44zM50 490q0 -4 -10 -10l-1 9q-1 6 3 6q8 0 8 -5zM23 443q0 -4 -10 -10q0 -1 0 9q0 6 3 6q7 0 7 -5zM16 416q0 -4 -9 -9l-1 8q0 6 3 6q7 0 7 -5zM13 380q3 -1 3 -5q0 -8 -9 -22q0 -1 -1 11q-1 9 0 13q2 6 7 3zM7 340q0 -81 -6 -81 q-1 1 -1 8q0 -3 7 73zM20 167q2 -1 2 -5q0 -8 -9 -22v18q0 12 7 9zM513 273q6 7 6 11q0 6 -12 3q-4 -1 -4 -3q0 -4 10 -11zM473 93q1 8 -6 27q-2 10 -2 21q0 14 5 42q4 25 3 37q-6 3 -13 7q0 41 -7 86q1 0 -13 7q0 -1 -1 -13q0 -3 -6 -7q2 11 0 33l-13 7q-17 26 -28.5 31 t-58.5 9v-20q0 -8 -6 -13q-5 12 -5 30q-1 11 -18 11q-9 0 -24 -1q-57 -5 -88 -73q-27 -59 -27 -143q0 -23 2 -44l13 -34q1 -12 -3.5 -33t-3.5 -27q13 -10 27 -26q2 -7 -3.5 -12.5t-3.5 -7.5q4 -5 20 -8t20 -6q11 -15 27 -33q12 -5 61 -3q52 2 72 10q7 11 20 26q1 0 27 7 q6 33 20 100zM433 233q-8 0 -8 18t8 16v-34zM343 330q0 -4 -10 -10v9q-1 5 3 5q7 0 7 -4zM443 216q0 -4 -10 -9v8q0 6 3 6q7 0 7 -5zM333 307q3 -2 3 -7q0 -11 -9 -33q0 43 6 40zM343 250q0 -4 -10 -10v9q-1 5 3 5q7 0 7 -4zM433 160q3 -1 3 -4q0 -6 -9 -16q0 -1 -1 9 q-1 6 0 9q2 5 7 2zM440 127q3 -1 3 -8q0 -12 -10 -39v29q0 21 7 18zM330 210q0 -4 -10 -10l-1 9q0 5 3 5q8 0 8 -4zM322 183q0 -6 -9 -16q0 -1 -1 12q0 9 4 9q6 0 6 -5zM443 56q0 -4 -10 -9v8q0 6 3 6q7 0 7 -5zM342 43q0 -6 -9 -16q0 -1 -1 12q0 9 4 9q6 0 6 -5z" />
<glyph unicode="e" horiz-adv-x="603" d="M477 53q0 -4 -9 -9l-1 8q0 5 3 5q7 0 7 -4zM482 27q0 -5 -8 -14l-1 11q0 8 3 8q6 0 6 -5zM536 137q-4 -17 -8 -33t-17 -23t-69 -7q-36 0 -132 4q-84 4 -109 3q-30 -5 -74 -13q6 -40 25 -111q2 2 3 2q2 0 3.5 -3l1.5 -3q3 0 10 23v-38q21 -10 56 -24q9 1 25 0l6 -13 q7 -1 16 -1q58 0 120 32q11 12 25 25q15 -3 25 -6q6 1 19 0q11 -4 49 -56q-31 -43 -118 -81q-10 -8 -24 -18q-22 -6 -67 -9q-49 -3 -70 3q-11 8 -24 18q-15 0 -44 6q-7 8 -18 19q-35 20 -47.5 31.5t-33.5 42.5q-16 15 -37 44q1 11 0 31q-8 17 -19 43q0 5 7 37q-9 1 -10.5 7 t-2.5 12q6 -3 6 25q0 -10 -6 12q0 -3 3 11.5t3 19.5q0 -3 -3.5 2t-2.5 10q9 61 16 89q12 51 28 79q8 4 18 12q11 24 25 50h12q2 9 13 24q8 2 24 7q2 6 7 12q49 20 117 12q1 3 0 10q-1 2 7 3q17 2 57 -4t60 -15q10 -11 25 -25h12q-1 -8 0 -18q15 -3 38 -13q5 -4 7 -18 t5.5 -19.5t18 -15t18.5 -15.5q23 -40 23 -111q0 -30 -4 -62q0 4 1 4q2 0 5 -10zM307 62l11 -1q-12 -1 -17 -1q-16 1 -29 1.5t-2 0.5h37zM294 -18q-13 0 -42 2.5t-20 3.5q11 1 35.5 -2.5t26.5 -3.5zM319 -241q-11 0 -39 3t-17 3q10 0 32 -3t24 -3zM412 192q-6 37 -9 49 q-5 21 -16 38q-26 39 -49 50q-31 14 -74 14q-13 0 -25 -2l-7 -12q-10 1 -31 0q-16 -5 -43 -38q-30 -37 -30 -72q0 -43 55 -45q9 0 27 6t22 6q9 0 13 -5.5t6 -6.5q28 -8 87 0q27 9 74 18zM220 273q-5 0 -10 1q4 1 8 -1q5 -1 -4 -6q23 2 36.5 3.5t7.5 2.5q-7 1 -38 0z" />
<glyph unicode="f" horiz-adv-x="448" d="M412 618q3 -1 3 -5q0 -8 -10 -22v17q0 13 7 10zM405 388q3 -1 3 -4q0 -6 -9 -16q0 -1 -1 9q-1 6 0 9q2 5 7 2zM297 327q0 -82 -5 -82q-1 1 -1 8q-1 13 2.5 42t3.5 32zM304 178q-8 0 -8 27t8 27v-54zM392 428q-2 0 -20.5 -2.5t-26.5 -3.5q-1 -1 -7 -14q-10 -1 -27.5 3 t-19.5 4l-14 -14q-25 -6 -61 -6q-4 -37 -4 -85q0 -29 3 -99q2 -61 1 -93q-3 -80 -5 -160t5 -144q-8 -1 -27 -7v-7q-10 -3 -25 -3q-16 0 -42 4q-32 6 -34 6q0 12 -7 40q6 -1 7 1q1 1 0 6t0 7h7q-7 12 -14 27q-1 14 9 25t11 15q3 16 -4 16q-1 0 -2 -2q-1 0 -0.5 5t-1.5 5 q-2 -1 -5 -3q7 107 0 135l-14 13q-1 8 6.5 35.5t7.5 32.5l-7 7q1 30 1 60q2 39 13 48v13q-11 29 -21 108q-34 10 -67 14v17q-1 6 -7 10q2 17 7 61q28 3 36 5q24 7 31 22q10 21 6 69q-5 52 1 73q2 8 17 18t17 15v41q7 3 52 30q34 20 56 24q16 3 32 3q18 0 44 -4q37 -5 46 -6 q6 -5 13 -13q6 -16 2 -47q-2 -30 -9 -41h-13q-1 0 -7 -10t-7 -10q-12 -5 -37 -4t-37 -3l-7 -14q-11 -2 -27 -13q-6 -13 -9 -44q-3 -32 2 -51q7 -31 52 -34h77q9 -31 13 -81h41zM300 168q0 -4 -9 -10l-1 9q-1 6 3 6q7 0 7 -5zM307 141q0 -4 -10 -10l-1 9q0 6 4 6 q2 0 4.5 -1.5t2.5 -3.5zM307 46q0 -6 -10 -16q0 -1 -1 12q0 9 4 9q7 0 7 -5zM300 12q0 -6 -9 -16q0 1 -1 7t0 10q0 4 3 4q7 0 7 -5zM300 -35q0 -4 -9 -10l-1 9q-1 6 3 6q7 0 7 -5zM307 -83q0 -6 -10 -16q0 -1 -1 13q0 9 4 9q7 0 7 -6zM257 -112l12 -1q-13 -1 -19 -1 q-17 1 -31.5 1.5t-2.5 0.5h41zM297 726q7 10 7 15q0 8 -13 5q-7 -1 -7 -5q0 -7 13 -15z" />
<glyph unicode="g" horiz-adv-x="696" d="M614 231q-8 0 -8 26t8 26v-52zM614 204q3 -1 3 -6q0 -11 -10 -33v25q1 18 7 14zM616 135q0 -6 -9 -16q0 -1 0 12q0 9 4 9q5 0 5 -5zM624 103q0 -4 -10 -10l-1 9q0 5 3 5q8 0 8 -4zM614 21q-8 0 -8 18q0 17 8 15v-33zM607 -24q-8 0 -7 17q0 17 7 15v-32zM614 -64 q-8 0 -8 18q0 17 8 15v-33zM617 -87q0 -4 -10 -9v8q0 6 3 6q7 0 7 -5zM607 -135q3 -1 3 -5q0 -5 -9 -15q0 7 -1 14q0 9 7 6zM601 -168q3 -1 3 -7q0 -12 -10 -39v28q0 21 7 18zM549 152q1 -13 -6 -26q-7 -16 -7 -20q-3 -30 0 -98t0 -98q0 4 1 5q2 0 5 -11q-2 -15 0.5 -39 t-0.5 -40l-13 -19q2 -36 -6 -105q-6 -3 -14 -6q-3 -16 -13 -46q-11 -4 -26 -13q1 -8 0 -20q-1 -5 -48 -40t-56 -38q-12 -4 -35 -4q-27 -1 -37 -3l-13 -13q-13 -3 -69 5q-52 9 -69 15q-9 3 -24 19t-21 20q-16 4 -46 20q-19 15 -19 26q-1 16 -1 32q15 14 40 33q8 -2 19 0 l13 33q10 1 26 0q4 -2 7 -13t6 -13q10 1 27 0q4 -9 13 -20l27 -17q5 -5 18 -29q8 5 20 13q-8 2 -10 10q0 2 -3 3q49 -8 43 -8q15 0 35 8q4 2 4.5 10.5t2.5 9.5q17 5 39 20q4 6 2 19l-2 13q11 -1 26 0q9 4 20.5 28.5t12.5 37.5q1 9 -5 38l-8 40q-9 1 -26 0q-4 -1 -8 -13 t-5 -13q-7 -4 -22 -4h-4q-13 0 -20 -3q-21 -15 -59 -32q-8 -1 -18 -1q-41 0 -96 22q-51 21 -76 45.5t-45 65.5q-23 49 -20 90q0 1 6.5 16t6.5 17l-13 6q-2 5 -6 33q-11 58 0 124q0 3 9.5 21.5t9.5 24.5q1 9 -8 38q-8 26 -5 40q9 5 20 13q-1 9 0 26q4 14 29 46t36 39 q10 -1 26 0q8 10 20 20q8 1 12 -3.5t7 -3.5q6 2 27 19q18 13 32 14q11 1 47.5 -4t44.5 -9q4 -2 4 -12.5t2 -13.5q7 -2 20 -13q19 6 20 6q6 -5 19 -19q32 -2 39 18q9 26 13 28q13 7 37 7q15 0 42 -3.5t33 -3.5q0 -3 -4 -7.5l-4 -4.5q0 -1 1 -2q14 -7 14 -76q0 -32 -5 -120 q-4 -75 -2 -98zM418 191l-13 13q-1 13 6 23l7 10q1 7 -2 20q-4 18 -5 26h-32q8 5 26 6q1 6 0 20q-9 5 -20 13q-21 29 -32 34q-26 6 -53 12v13h-65q-8 -2 -46 -33h-13q-5 -2 -8 -11q-3 -12 -5 -15q-11 -8 -26 -26q-10 -26 -10 -77q0 -18 10 -139q-2 -18 0 -52q10 -30 57 -61 q51 -33 98 -33q11 0 21 2q8 9 20 20q6 -2 20 0q7 3 14 17q11 20 12 22q8 4 19 13q12 19 13 64v67q3 11 5 22q4 20 2 30zM211 233q0 -5 -9 -15q0 -1 -1 12q0 8 4 8q6 0 6 -5zM300 198q0 -27 -3 -76q-3 -59 -3 -68q0 27 3 76q3 59 3 68zM204 174q0 -6 -8 -15l-1 12q0 8 4 8 q5 0 5 -5zM196 159q0 -74 -6 -74q-1 1 -1 8q0 2 7 66zM205 64q0 -4 -9 -10q0 1 -1 9q-1 5 2 5q8 0 8 -4zM211 37q0 -6 -9 -16q0 -1 -1 13q0 8 4 8q6 0 6 -5zM211 -9q0 -5 -9 -15q0 -1 -1 12q0 8 4 8q6 0 6 -5z" />
<glyph unicode="h" horiz-adv-x="752" d="M112 635q0 -4 -10 -9v8q0 6 3 6q7 0 7 -5zM424 323q3 -1 3 -4q0 -6 -9 -16q0 2 -0.5 9t0.5 10q1 4 6 1zM693 -32q-2 -2 -9.5 -7l-10.5 -7q6 -9 13 -20q2 -11 -5 -20q-8 -12 -8 -13q-1 -10 6 -74q-7 0 -20 -4q-1 0 -6 -16l-7 -7q-10 -3 -23 -3q-15 0 -40 4q-29 6 -31 6 q0 61 13 141q2 7 6 6t4 2q0 4 -10 18q-11 31 -11 92q0 32 5 49l13 14q-2 11 -4 11q-2 -1 -3 -4v8q1 7 -2 7l-4 -2l6 54q3 34 0 53l-13 7q-9 25 -19 50.5t-28 36.5q-10 2 -27 7l-7 13q-24 9 -54 9q-62 0 -93 -29q-6 -13 -20 -33q-12 -7 -27 -20q-3 -6 -1 -20q2 -15 1 -21 l-14 -13q-3 -10 -3 -21q0 -12 5.5 -35.5t4.5 -37.5q0 -4 -3.5 -10.5t-3.5 -2.5q6 -24 7 -14q0 -43 -3.5 -106.5t-3.5 -91.5q0 -52 7 -104q-4 -2 -4.5 -7t-2.5 -6q-24 -13 -60 -13q-21 0 -60 6q-1 5 -1 10q1 1 -6 3q4 18 13 54q-12 10 -12 9q0 2 6 5q1 0 2.5 4t10.5 2 q-20 62 -20 144q0 48 7 98q-2 -19 -7 67q0 2 7 12t6 22q0 1 -10 19t-10 21l20 60v14q-6 -4 -13 33q0 -3 3.5 9.5t3.5 17.5q1 32 0 87q-7 10 -14 34q-1 18 7.5 62.5t6.5 71.5q0 2 -5 27q-4 22 -4 36q0 10 2 18l13 13v32q0 10 27 15q8 2 17 2q12 0 35.5 -4.5t34.5 -4.5 q9 -79 0 -295q0 -8 7 -40q8 2 13.5 -3t13.5 -4l20 20q10 -1 27 0q2 9 7 20q11 8 56 15t58 5q12 -2 32 -16.5t28 -16.5q10 -2 20 4t20 3l7 -14q8 -1 27 -7v-33q4 -7 34 -27q38 -26 40 -27v-13q0 1 1.5 -15.5t1.5 -25.5q0 -13 -3 -13q2 -7 -3.5 -13t-3.5 -14q12 -12 27 -40 q1 -7 1 -14q0 -19 -10.5 -41.5t-10.5 -25.5q0 -5 6.5 -8.5t6.5 -4.5q2 -6 2 -14q0 -12 -4.5 -32t-4.5 -21q-3 -49 14 -114zM438 230q3 -1 3 -7q0 -11 -10 -34v26q0 18 7 15zM116 612q0 -20 -7 -174q0 17 7 174zM15 612q3 -1 3 -8q0 -12 -10 -39v28q1 22 7 19zM434 152 q0 -6 -10 -16q0 -1 -1 12q0 9 4 9q7 0 7 -5zM337 230q3 -1 3 -5q0 -8 -10 -22v17q0 13 7 10zM340 172q0 -4 -10 -10v9q0 6 3 6q7 0 7 -5zM15 505q3 -1 3 -8q0 -12 -10 -39v28q1 22 7 19zM347 152q0 -4 -10 -10l-1 9q0 6 3 6q8 0 8 -5zM434 -9q0 -4 -10 -10q0 -1 0 9q0 6 3 6 q7 0 7 -5zM337 129q0 -17 -3 -51q-4 -41 -4 -43q0 17 3 51q4 41 4 43zM424 -26q3 -1 3 -4q0 -6 -9 -16q0 2 -0.5 9t0.5 10q1 4 6 1zM122 270q3 -1 3 -4q0 -6 -9 -16q0 1 -0.5 8.5t0.5 9.5q1 4 6 2zM109 196q-8 0 -8 17q0 19 8 17v-34zM337 1q3 -1 3 -7q0 -10 -10 -33v25 q0 18 7 15zM18 293q0 -4 -10 -10v9q0 6 3 6q7 0 7 -5zM116 183q2 -1 2 -4q0 -7 -9 -17q0 7 -1 15q1 9 8 6zM8 270q3 -1 3 -5q0 -8 -9 -22q0 -1 -1 11q-1 9 0 13q2 6 7 3zM391 -113l-32 4q-22 3 -8 3q7 0 23.5 -3.5zM330 -52q3 -2 3 -8q0 -13 -9 -39q0 50 6 47zM116 136 q3 -1 3 -7q0 -11 -10 -34q0 45 7 41zM17 199q0 -6 -9 -16q0 -1 -1 12q0 9 4 9q2 0 4 -1t2 -4zM109 82q2 -1 2 -5q0 -7 -9 -22q0 9 -1 18q1 13 8 9zM11 165q0 -4 -9 -9l-1 8q-1 6 3 6q7 0 7 -5zM18 138q0 -4 -10 -9v9q0 5 3 5q7 0 7 -5zM111 24q0 -6 -9 -16q0 -1 -1 12 q0 9 4 9q6 0 6 -5zM8 62q-8 0 -8 27q0 26 8 26v-53zM109 -26q2 -1 2 -5q0 -7 -9 -21q0 9 -1 17q1 13 8 9zM18 44q0 -4 -10 -9v9q0 5 3 5q7 0 7 -5zM118 -70q0 -6 -9 -16q0 -1 -1 12q0 9 4 9q6 0 6 -5zM11 17q0 -3 -9 -9l-1 9q0 5 3 5q2 0 4.5 -1t2.5 -4zM653 82q8 -2 8 1 q0 10 -15 12z" />
<glyph unicode="i" horiz-adv-x="365" d="M277 665q-97 -2 -121 0q-1 10 -4 35q-3 22 -3 26q0 23 11 43q12 15 23 31q25 -5 87 -7q3 -6 7 -13q12 -8 12 -34q0 -13 -12 -81zM101 658q3 -1 3 -4q0 -6 -9 -16q0 1 -0.5 8.5t0.5 9.5q1 4 6 2zM7 631q-8 0 -8 17q0 19 8 17v-34zM108 489q3 -1 3 -5q0 -8 -10 -22v18 q0 12 7 9zM14 462q-8 0 -8 17q0 19 8 17v-34zM105 357q0 -5 -10 -10v9q-1 6 3 6q7 0 7 -5zM7 449q2 -1 2 -5q0 -8 -9 -22q0 9 -1 18q1 13 8 9zM115 320q2 -1 2 -5q0 -7 -9 -22q0 9 -1 18q1 13 8 9zM10 384q0 -4 -10 -10l-1 9q0 6 3 6q8 0 8 -5zM111 283q0 -4 -10 -10 q1 1 0 9q-1 6 2 6q2 0 5 -1.5t3 -3.5zM291 280q3 -11 3 -22q0 -12 -4 -30q-5 -24 -6 -29q-3 -20 -3 -47q0 -24 3 -79t3 -83q0 -35 -3 -62q-2 -45 -7 -128h-34q-2 4 -6 14q-10 0 -30 -7t-24 -7q-9 0 -14 3.5t-13 3.5q7 134 -7 331q5 2 13 20h27v14q-12 7 -33 20q6 8 13 20 q1 3 1 53t-1 55l-13 7q-11 29 -7 81q6 29 13 95q4 2 14 6q28 -8 46 -8q14 0 55 8q2 -20 2 -45q0 -20 -2 -62t-2 -64q0 -24 2 -45zM105 235q0 -4 -10 -9l-1 8q0 6 3 6q8 0 8 -5zM14 341q3 -1 3 -7q0 -11 -10 -34q0 45 7 41zM108 212q3 -1 3 -7q0 -13 -10 -40v29q0 21 7 18z M30 242q0 -4 -10 -10l-1 9q0 6 3 6q8 0 8 -5zM105 147q0 -4 -10 -9l-1 8q0 6 3 6q8 0 8 -5zM118 114q0 -4 -10 -10l-1 9q0 6 4 6q2 0 4.5 -1.5t2.5 -3.5zM9 201q0 -6 -9 -16q0 -1 -1 12q0 9 4 9q6 0 6 -5zM108 91q3 -1 3 -5q0 -8 -10 -22v17q0 13 7 10zM108 -11q-8 0 -8 27 t8 27v-54zM47 84q-17 -12 -13 -14q-34 11 -34 17q0 4 20 4q4 0 27 -7zM14 36q3 -1 3 -7q0 -10 -10 -33q0 44 7 40zM243 726q7 7 7 11q0 3 -6 3q-11 0 -11 -4t10 -10zM203 -51v13q-6 1 -27 7q-2 -8 -7 -20h34z" />
<glyph unicode="j" horiz-adv-x="335" d="M256 776q0 -76 0 -66q-1 -39 -14 -42q-7 -2 -33 7q-22 3 -41 1q-24 -2 -40 -1q0 4 -6 38q-4 29 -4 48q0 16 3 28q12 11 27 27q36 -6 81 -20q3 -10 13 -27q-1 6 1 7q1 1 5.5 0t7.5 0zM195 634q-23 11 -23 12q2 2 10 2q9 0 10 -2l-1 -6q0 -4 4 -6zM94 466q3 -1 3 -7 q0 -11 -10 -34v26q0 18 7 15zM97 287q0 -4 -10 -10v9q0 6 3 6q7 0 7 -5zM94 142q3 -1 3 -5q0 -8 -10 -22v18q0 12 7 9zM256 -93l-14 -21q-2 -29 6 -84q8 -61 8 -89q0 -33 -7 -62l-40 -68q-6 -5 -23.5 -10.5t-23.5 -9.5q-1 -9 -7 -20q-6 1 -20 0q-9 -9 -21 -20q-21 -6 -49 -6 q-45 0 -52 -1q-6 15 -13 34v20q2 -2 20 -14l14 -6l-7 27q-21 -1 -20 0q-5 11 -5 28q-1 28 -2 32q22 2 45.5 3.5t35.5 10.5q3 11 13 27q8 -1 20 6q-1 10 0 27l14 14q2 6 2 13q0 11 -8.5 37t-7.5 44l14 7q-3 20 -3 47q0 23 3 69.5t3 67.5q0 26 -3 45q0 1 -7 16.5t-7 17.5 q-1 29 6 63q8 39 21 51q1 1 1 2q0 5 -14 11q1 10 0 27v48l-14 13q-1 4 -1 8q0 9 7.5 17t7.5 9q4 20 4 42t-5 60q-5 42 -6 59q8 3 19.5 8t14.5 6q15 3 33 7q18 1 30.5 -4t23.5 -10q-1 7 2 7q1 0 6 -3.5t6 -3.5q0 -124 -7 -175q-7 -2 -7 -12t7 -30.5t7 -24.5q3 -27 3 -56 q0 -44 -10 -119q0 -23 -4 -23q-1 1 -3 2l14 -20q2 -7 2 -72q-1 -63 -2 -69zM94 1q-3 48 0 94v-94zM101 -33q6 0 7 -3q0 -6 -21 -10q2 1 5 7t9 6zM87 -60q3 -1 3 -4q0 -6 -9 -16q0 1 -0.5 8.5t0.5 9.5q1 4 6 2zM94 -93q3 -2 3 -5q0 -8 -10 -22v18q0 13 7 9zM87 -134 q3 -1 3 -4q0 -6 -9 -16q0 1 -0.5 8.5t0.5 9.5q1 4 6 2zM20 -255q-3 1 -20 -7q-8 32 7 27q6 -10 13 -20zM229 735l-7 -20q20 3 20 13q0 8 -13 7zM188 -127q13 -3 13 2q0 9 -13 11v-13zM148 -174q5 6 5 10q0 6 -12 3q-3 -1 -3 -2q0 -4 10 -11z" />
<glyph unicode="k" horiz-adv-x="655" d="M620 427q0 -5 -9 -10l-1 9q0 6 3 6q7 0 7 -5zM557 424q-13 -25 -13 -27q-15 7 -15 12q0 1 1 2q9 4 27 13zM289 585q2 -1 2 -5q0 -7 -9 -22q0 9 -1 18q1 13 8 9zM453 347q0 -4 -10 -10l-1 9q0 5 3 5q8 0 8 -4zM295 505q3 -2 3 -9q0 -13 -9 -38q0 50 6 47zM195 579 q2 -1 2 -5q0 -8 -9 -22q0 9 -1 17q1 13 8 10zM201 518q3 -1 3 -7q0 -11 -9 -33q0 43 6 40zM295 424q3 -1 3 -8q0 -13 -9 -39q0 50 6 47zM470 189q4 -10 4 -17q0 -11 -11 -10q0 -2 -1 16q0 12 5 12q1 0 3 -1zM591 -173q-1 0 -2 -8.5t-5 -8.5q-3 0 -7 3l-3 -6.5t-4 -6.5 q-6 -1 -12 -1q-20 0 -41 14q-12 0 -26.5 -5.5t-21.5 -5.5q-9 0 -19 5l-7 20h-13q2 8 0 20q-9 2 -21 7q-11 11 -25 53q-17 52 -22 61q-9 6 -20 20q2 7 0 20q-4 7 -23.5 23t-23.5 24q-3 22 -13 54q-13 19 -30 19q-25 0 -57 -39l-38 -42q-25 -29 -29 -46q-3 -12 0 -24t6 -23 q0 5 -3 -9t-3 -17q0 5 3 -6.5t3 -14.5q-5 -2 -6 -37v-57q-19 1 -44 -2.5t-34 -3.5q-24 0 -50 13q0 3 3 110q2 64 -3 105q-1 5 2.5 14.5t4.5 5.5q-9 57 -7 74q0 5 8 32q6 23 5 35l-13 27q-2 12 -2 27q0 19 4.5 58t4.5 56q0 9 -5 46t-5 58q0 17 3 29.5t27 34.5l-14 33 q-3 14 -1 41q2 32 1 40q0 3 -5.5 27.5t-7.5 39.5q1 1 20 13q1 10 -6.5 26.5t-7.5 25.5q0 5 1 9l13 13q4 -1 114 -7q-1 -5 -7 -8.5t-6 -4.5q-2 -7 -2 -18q0 -19 7 -57q7 -47 8 -53q2 -23 2 -51q0 -26 -2.5 -80.5t-2.5 -82.5q0 -37 3 -68h-27v-26h27q0 -88 7 -141q16 7 47 20 v13q10 2 27 14q-1 8 0 20l33 40q4 3 25 9q16 5 18 18q-1 15 4 40q3 5 20 7.5t21 6.5q-1 11 0 26q3 11 34 31t34 24t2.5 12.5t2.5 13.5q17 -5 61 -20q-12 10 -12 21q0 5 5 6q6 2 21 -3.5t26 -3.5q1 0 9 6t11 7q-3 1 -3 2q0 3 23 5l7 -20q-2 -3 -9.5 -3.5t-10.5 -3.5 q-5 -15 -14 -33q-8 -11 -30 -27.5t-30 -26.5q1 -7 0 -20q-3 -7 -22 -21q-22 -15 -25.5 -19t-3.5 -13.5t-3 -13.5t-9.5 -4t-10 -3t-4 -10t-2.5 -10q-5 -8 -22 -21q-23 -17 -25 -19q22 -48 22 -65q0 -13 -9 -16q11 -1 13 -1q3 0 21 1q15 -42 40 -80l13 -7q-2 -10 0 -27 q1 0 10.5 -3t9.5 -4q5 -4 8 -15q3 -14 6 -18q9 -4 20 -14q-1 -10 0 -27q6 -21 80 -100q-1 -3 -4 -20q-1 -9 -9 -14q13 -5 34 -13zM195 417q0 -17 -3 -51q-4 -39 -4 -43q0 18 3 52q4 40 4 42zM197 293q0 -6 -9 -16q0 -1 -1 12q0 9 4 9q2 0 4 -1t2 -4zM204 259q0 -4 -9 -9 l-1 8q-1 6 3 6q7 0 7 -5zM298 -23q0 -3 -9 -9l-1 8q0 6 3 6q2 0 4.5 -1t2.5 -4zM289 -99q-8 0 -8 16q0 19 8 17v-33zM195 48q0 -23 -3 -68q-4 -51 -4 -59q0 25 7 127z" />
<glyph unicode="l" horiz-adv-x="356" d="M231 474q0 -4 -10 -10v9q0 6 3 6q7 0 7 -5zM235 404q-8 0 -8 17q0 19 8 17v-34zM238 340q0 -4 -10 -10l-1 9q0 6 4 6q2 0 4.5 -1.5t2.5 -3.5zM235 270q3 -1 3 -7q0 -11 -10 -33v25q0 18 7 15zM235 -133q-6 -14 -7 -27v-27q-8 -2 -20 -13q-7 1 -60 4q-38 2 -54 9 q-8 15 -27 34q-12 -1 -33 7q1 11 0 27q-10 4 -21 13q-7 15 -6 41q1 39 0 46q-4 42 -2 138q1 89 -5 137q3 13 7 21q-10 85 0 335q0 -4 -1 -4q-2 0 -6 11v134q1 26 7 34.5t27 12.5q2 0 47 -7h13q9 -3 27 0q2 -8 13 -20q0 -36 1.5 -99t1.5 -90q0 -98 -16 -160q0 4 13 -13 q-1 14 0 40l1 8q-1 0 -1 -109v41h-6v-41q4 -2 13 -6q-2 -30 0 -94q-2 -2 -7.5 2l-5.5 4q-3 -3 -3 -7t4.5 -10t4.5 -7q0 -4 -13 -2v-14q9 -5 9 -10q0 -2 -2 -3q9 21 13 20q-9 -87 -9 -159q0 -88 16 -110q2 -5 13 -13v-7q16 -6 60 -6q2 -11 7 -41q18 0 18 -5q0 -3 -8 -3 q-5 0 -10 2v-9q-1 -6 3 -6q2 0 4 1zM235 183q3 -2 3 -5q0 -8 -10 -22q0 9 -1 17q1 13 8 10zM238 132q0 -4 -10 -10l-1 9q0 6 4 6q2 0 4.5 -1.5t2.5 -3.5zM235 102q3 -1 3 -5q0 -8 -10 -22q0 9 -1 18q1 13 8 9zM231 58q0 -4 -10 -10v9q0 6 3 6q7 0 7 -5zM235 35q3 -1 3 -5 q0 -8 -10 -22q0 9 -1 18q1 13 8 9zM309 -39q3 -1 3 -5q0 -8 -10 -22q0 9 -1 18q1 13 8 9zM134 558q-1 7 -3.5 25t-2.5 16q-3 -16 -7 -41h13z" />
<glyph unicode="m" horiz-adv-x="956" d="M679 484q-8 0 -7 6q2 5 7 6q13 3 19 3q5 0 5 -2q0 -3 -11.5 -9t-14.5 -6v1zM542 436q-15 2 -29 3q-19 3 -7 3q18 0 36 -6zM745 221q2 -1 2 -4q0 -5 -8 -14v12q0 9 6 6zM745 167q2 -1 2 -6q0 -10 -8 -30q0 39 6 36zM398 442q4 -3 -12 -24q0 33 6 30q3 3 5 3q1 0 1 -4 q-1 -5 0 -5zM545 236q0 -4 -9 -9l-1 8q0 5 3 5q7 0 7 -4zM551 133q0 -3 -9 -8l-1 8q0 5 3 5q7 0 7 -5zM542 95q2 -1 2 -7q0 -11 -8 -35q0 45 6 42zM165 460q2 -1 2 -6q0 -10 -8 -30q0 39 6 36zM550 38q0 -5 -8 -15q0 19 2 19t4 -1t2 -3zM871 53q-2 -16 -2 -35q0 -25 5 -71 t5 -68q0 -33 -8 -59q-7 -9 -18 -24q-18 0 -54 6l-12 12q-8 1 -12 -3t-12 -3l-6 108q11 7 24 18q-9 4 -24 12q0 14 3 36q3 28 3 29l18 6q1 -1 3.5 -6.5t8.5 -5.5l3 6q4 -1 9 0v18q-8 0 -36 -6q-4 11 -12 30q2 2 2 5q0 7 -8 19q2 -1 2 -5q0 -6 -8 -19q7 48 7 94q0 19 -1 38h12 v6q-4 16 -12 36l-18 6q-1 4 -1 8q0 6 4 15.5t4 15.5q0 4 -1 9q-4 4 -12 18q2 0 -22 -3q-15 -2 -26 3q-9 14 -24 29q-3 1 -28 -1t-32 -4.5t-20.5 -18t-20.5 -17.5h-12q2 -13 0 -30q-4 -3 -12 18q-33 -73 -36 -162q0 -39 6 -36q-3 -3 -18 -30l24 -36q9 2 24 0q-33 -14 -33 -21 q0 -2 2 -10.5t2 -17.5q0 -7 -1 -16q-2 -4 -18 -12q19 -66 19 -91q0 -45 -62 -45q-22 0 -53 4q-1 14 -1 32q0 26 4 93q4 60 3 90q0 7 -8 39q-6 27 -4 45l12 24q4 27 -8 75q-10 44 -22 63q-7 11 -20.5 17.5t-27.5 12.5q-36 18 -69 18q-28 0 -80 -18q0 -1 5 -17q3 -9 1 -19 q-1 -4 -12 18q-20 -29 -42 -72q-1 -7 -1 -16q0 -17 6 -48q6 -35 7 -50q-1 1 -3 1t-2 -7q0 -12 5 -36q-7 1 -7 -8q0 -10 7 -28q-1 -2 -9.5 -9.5t-8.5 -8.5q-1 -4 -1 -8q0 -8 6.5 -16.5t6.5 -10.5q1 -6 2 -39q1 -38 -2 -51q0 -2 -6.5 -9t-5.5 -15l7 -7t5 -17q-5 -5 -12 -18 q-26 -8 -51 -6q-25 3 -51 6q0 27 5 86q3 50 1 81l-12 24q-5 56 18 126q-2 1 -10 28t-8 32q0 4 6 21.5t6 20.5q3 23 3 50q0 17 -3 69q-2 42 0 66q42 12 46 12q12 0 26 -6l6 -12q2 0 8 4t10 4q3 0 6 -2q4 -14 12 -30q5 -2 18 0t18 0v15q0 6 6 9q1 -9 6 -30v18q17 1 54 12v12 q41 24 71 24q21 0 30.5 -8.5t11.5 -9.5q11 5 36 6q2 -8 6 -18q4 -2 26 -7q17 -4 22 -11q2 -15 6 -30q24 -10 66 0q20 5 30 26t12 22q7 4 24 4t24 2l5 12q4 1 6.5 -5.5t11.5 -6.5q1 0 24 18q9 2 23 2q31 0 68.5 -10t46.5 -22q3 -13 12 -36l24 -18q10 16 12 12q-1 -10 0 -30 q9 -8 18 -17q2 -10 -4 -26l-8 -22q14 -3 36 -6q0 -22 5 -53q6 -36 7 -43q1 -11 -3.5 -27t-4.5 -22t2 -11q8 -7 8 -10q0 -2 -2 -3t-12 -35zM254 293q2 -1 2 -4q0 -5 -8 -14v12q0 9 6 6zM260 233q-7 0 -7 16t7 14v-30zM257 218q0 -4 -9 -9l-1 8q0 5 3 5q7 0 7 -4zM257 188 q0 -4 -9 -9v8q-1 5 2 5q7 0 7 -4zM180 248q0 -4 -9 -9l-1 8q0 5 3 5q7 0 7 -4zM254 131q2 -1 2 -4q0 -5 -8 -14v13q0 8 6 5zM263 74q0 -4 -9 -9v8q-1 5 2 5q7 0 7 -4zM171 113q0 -17 -3 -54.5t-3 -47.5q0 20 3 55q3 44 3 47zM691 406q-3 2 -2 7t-10 5v-12h12zM805 269 q-2 -7 -6 -18q30 11 30 10q0 3 -24 8zM727 316v9q1 3 -6 3zM805 -90q3 -1 6 -1q6 0 6 7q0 16 -12 18v-24zM398 316v42q-13 2 -30 6q-4 -7 -6 -30q6 -6 12 -18h24zM320 340v30h-24q1 -5 1 -17q0 -8 5 -13q-2 -6 2 -6q5 0 16 6zM153 328l4 2q0 3 -4 9t-6 7q2 -8 6 -18z" />
<glyph unicode="n" horiz-adv-x="715" d="M408 319q0 -4 -9 -9l-1 9q0 5 3 5q7 0 7 -5zM425 206q2 -1 2 -4q0 -8 -9 -22q0 8 -1 17q1 12 8 9zM418 141q-8 0 -8 17t8 15v-32zM428 124q0 -4 -10 -10l-1 9q0 5 3 5q8 0 8 -4zM327 206q2 -1 2 -4q0 -5 -9 -16q0 7 -1 14q1 9 8 6zM640 -166h-20q1 -12 0 -26 q-24 -9 -46 -9q-69 0 -69 65q0 14 4 29l14 13q0 5 -4.5 18.5t-4.5 22.5q0 5 2 11q10 5 20 13q1 10 -9 26.5t-11 19.5q-9 44 -9 93q0 80 22 161q-5 3 -13 3t-13 3t-8 16.5t-5 16.5q-15 25 -46 42q-34 19 -74 19q-12 0 -24 -2q-20 -3 -48 -20q-31 -18 -36 -32v-13l-9 1 q-7 2 -11 -8q-15 -41 -15 -133q0 -49 9 -50q0 -39 -3.5 -102t-3.5 -92q0 -51 7 -99q-49 -13 -40 -13q-10 -2 -20 -2q-9 0 -71 15q3 15 7 33q2 18 -7 58l7 46q3 22 3 42q0 23 -9 72q-8 46 -7 88l13 39q0 7 -3.5 15.5t-3.5 10.5q1 5 20 46q-9 3 -15.5 37t-6.5 67q0 16 2 26 q10 13 20 33q0 15 -6 15q-1 0 -1 -2v20q6 -2 20 0q5 2 18 16t20 16t9 2q-5 -4 -5 -5q1 -2 3 -3l2 1q5 0 -21 -21l6 -13q11 0 33 7q5 3 5 12l1 14h27q0 13 6 -65q16 3 46 13q1 9 6 19q9 2 15 -5.5t11 -7.5q4 6 20 13l6 26q5 2 10 2q9 0 24 -7.5t19 -7.5q35 1 32 26q4 1 7 1 q8 0 12 -6.5t7 -7.5q13 -4 41 -5q24 -1 38 -8q10 -5 23 -30t22 -29q8 2 20 0q8 -9 15 -31q5 -17 11.5 -34.5t12.5 -64.5q-10 -29 -10 -44q0 -10 5 -10q3 1 5 2q-3 -26 -3 -53q0 -19 2 -55.5t2 -55.5t-1 -38q-8 0 -8 -4q0 -3 4 -6.5t4 -2.5q0 2 0 -13q0 -4 -7 -7 q15 -91 7 -163zM66 382q-16 8 -16 16q0 9 16 16v-32zM425 4q3 -1 3 -7q0 -11 -10 -33v25q0 18 7 15zM425 -68q2 -1 2 -4q0 -5 -9 -16q0 7 -1 14q1 9 8 6zM333 -3q3 -1 3 -4q0 -6 -9 -16q0 2 -0.5 9t0.5 10q1 4 6 1zM14 284q-1 -11 -1 -16q-1 13 0 33q1 37 1 35v-52zM327 -55 q3 -1 3 -7q0 -13 -10 -39v28q1 21 7 18zM20 219q3 -1 3 -5q0 -8 -9 -21q0 -2 -1 10q0 9 1 13.5t6 2.5zM14 180q0 -80 -6 -80q-1 1 -1 8q0 -3 7 72zM22 78q0 -6 -8 -16l-1 12q0 9 4 9q5 0 5 -5z" />
<glyph unicode="o" horiz-adv-x="648" d="M575 252q3 -20 -1 -52q-5 -49 -5 -52q-1 -23 2 -54q3 -34 3 -49q0 -25 -5.5 -53t-42.5 -80t-61 -68q-10 -7 -32 -13t-33 -13l-6 -13q-9 -3 -29 -3t-29 -3l-7 -13q-32 -6 -65 6l-6 13q-5 1 -10 1q-8 0 -21.5 -4t-20.5 -3q-9 2 -30.5 19t-27.5 19q-7 -2 -20 0 q-19 12 -32.5 36.5t-25.5 48.5q-17 20 -39 58q-8 32 -8 74q0 26 3 64q5 49 5 56h-6q-2 29 6 84l13 7q2 11 4 49q0 27 9 41q3 5 16.5 11t16.5 9q-1 7 0 19q9 3 19 7q8 16 26 38q3 3 10 1t9 -1q5 2 17 16.5t16 16.5q21 9 90 13q82 5 97 0q-5 -31 0 -33q8 -3 16.5 5t9.5 8 q12 2 23.5 -3t22.5 -10q4 -30 6.5 -32.5t38.5 -12.5q1 -15 6 -32q9 -8 16 -8q3 0 6 1.5t4 1.5q7 0 20 -34l13 -7q-2 -15 0 -45q0 -1 9 -15t10 -17zM342 439q3 -1 3 11q0 10 -16 9q-5 0 -5 -3q0 -5 18 -17zM452 155q-6 21 -13 64q-1 9 3.5 21.5t4.5 19.5q0 5 -1 11 q-35 39 -72 78q-6 3 -35.5 8t-35.5 5q-23 0 -71 -26q-23 -9 -52 -26q-34 -40 -34 -206q0 -30 2 -46q1 -4 12 -35q9 -25 7 -37q-5 -3 -13 -19q9 -3 16 0l10 6q13 -35 17 -37q18 -4 35 -8l7 -13q7 -2 12.5 2.5t12.5 4.5l39 -13q5 0 38.5 11t40 15t13.5 22t12 23q8 0 19 6 q3 6 1 20t-1 19q10 9 20 26q2 17 -3.5 49t-3.5 48zM232 297q-8 0 -8 17t8 15v-32zM232 206q-8 0 -8 18q0 17 8 15v-33zM251 109h-12q-8 31 6 26v-6zM355 -20q13 -1 14 -2q0 -1 -26 0q-24 1 -7 2h19z" />
<glyph unicode="p" horiz-adv-x="659" d="M568 28q5 -35 5 -52q0 -30 -11 -54q-8 -4 -20 -13q1 -6 0 -20q-4 -10 -27 -19q-29 -11 -34 -14.5t-12.5 -20t-12.5 -19.5q-29 -20 -99 -20q-75 0 -113 20q-19 23 -40 46h-33q-2 -3 -4 -12q-1 -4 -9 -8v-26q1 -26 2 -51q3 -35 11 -62h20q-4 -3 -27 -6q0 -15 3.5 -54 t3.5 -59q0 -33 -7 -53q-8 -6 -19 -20q-57 0 -106 14v19q-7 26 -7 53q4 62 7 166q-2 14 -5 29q-4 24 -2 37l13 33q3 31 -5 81q-8 57 -8 85q8 21 8 34q0 12 -8 12l13 27q1 18 -4 55.5t-9 36.5q4 29 3 90q-1 58 4 89q-1 47 0 80v26q14 5 28 9q20 6 34 6q9 0 17 -2q1 0 8.5 -6 t11.5 -7q18 11 26 7q5 -2 9.5 -16.5t10.5 -16.5q7 2 20 0l52 36q34 21 61 23q17 1 53 -9.5t46 -10.5q3 0 11 4.5t14 4.5q4 0 8 -2q8 -3 16.5 -27t10.5 -26q8 -6 30 -10.5t29 -9.5v-13q2 -4 13.5 -10t13.5 -10q1 -4 -3.5 -8t-3.5 -12l13 -13q10 -36 10 -68t-10 -64 q16 -13 16 -104q0 -86 -16 -95zM211 -164q0 -22 -3 -64q-4 -47 -4 -55q0 22 3 64q4 47 4 55zM429 458q-3 2 -2 8t-11 6v-14h13zM462 94q1 9 -5 40q-8 35 -8 40q-1 16 1 41q1 29 1 38q0 30 -8 53q-11 31 -47.5 50.5t-83.5 19.5q-21 0 -42 -4q-83 -16 -106 -152q-1 -6 2.5 -11 t4.5 -2q-3 -9 -13 -47q14 -1 14 -15q0 -6 -4.5 -22.5t-3.5 -21.5l14 -14q-1 -29 6 -86q9 -12 20 -26q-2 -14 0 -33q11 1 27 0v-13h20q2 -4 6 -14q13 -1 15.5 9t5 11t5.5 1q4 0 14 -7h-11q6 1 10 0q5 -1 -6 -7q65 9 106 7q1 11 7 33q3 7 25 27q18 18 21 32q2 10 -2.5 21 t-4.5 17q0 4 1 9q0 1 9.5 11.5t9.5 14.5zM419 302q0 -4 -10 -9v8q-1 6 3 6q7 0 7 -5zM426 276q0 -4 -10 -10l-1 9q0 6 4 6q7 0 7 -5zM357 359q-13 0 -42.5 3.5t-17.5 3.5q10 0 33.5 -3.5t26.5 -3.5zM425 236q0 -6 -9 -16q0 -1 -1 12q0 9 4 9q6 0 6 -5zM429 207q3 -2 3 -8 q0 -11 -9 -32q0 43 6 40zM426 123q0 -4 -10 -9l-1 9q0 5 3 5q8 0 8 -5zM214 263q0 -4 -10 -10l-1 9q0 5 3 5q8 0 8 -4zM393 38q0 -4 -10 -10l-1 8q0 6 3 6q8 0 8 -4zM214 183q0 -4 -10 -9l-1 8q0 6 3 6q8 0 8 -5zM217 107q-8 0 -8 18t8 15v-33zM227 90q0 -4 -10 -9v9 q0 5 3 5q7 0 7 -5zM237 54q3 -1 3 -4q0 -6 -9 -15q0 1 -0.5 8t0.5 10t6 1z" />
<glyph unicode="q" horiz-adv-x="646" d="M564 -192q-3 -7 -13 -13v-27q7 -3 7 -82q0 -112 -7 -165h-73l2 -1q-1 -2 -6 -2q-36 0 -43 23q-9 29 -7 80q3 59 0 80q0 -3 3 12.5t4 21.5q-8 35 -7 46q2 22 2 36q0 40 -19 40q-13 0 -56 -22q-84 -42 -128 -42q-13 0 -25 2q-18 11 -47 26q-11 -2 -27 0q-6 3 -14 17t-12 17 l-34 24q-20 15 -26 29q-4 11 -4.5 34t-2.5 33q-9 14 -20 33q-5 25 -2 63q2 44 2 50q0 1 -6 68q-5 46 -5 77q0 50 11 82q13 11 27 33q1 7 -4 12.5t-5 8.5t2 6q5 8 18 12q17 4 22 8q7 13 20 33h13q14 19 34 40q5 3 19 1q16 -2 21 -1q22 10 60 20q11 0 36 -6q29 -6 37 -7v-13 q10 -4 30 -6.5t30 -7.5q8 -10 20 -20q11 2 33 0q2 11 7 40q80 17 120 14q0 -1 4 -30q4 -23 3 -37q-3 -20 -5 -39q-4 -33 -2 -54l13 -27q0 5 0 -14q1 -8 0 -13q-15 -4 -6 -160l4 -32q3 -27 2 -41q-10 -143 0 -213q1 -5 -2.5 -11t-3.5 -3q0 -14 6 -33zM431 101q1 6 -5.5 79.5 t-7.5 74.5q8 19 6 26l-13 7q-40 103 -128 103q-15 0 -32 -3q-11 -9 -27 -20q-35 -15 -49 -25q-23 -16 -31 -42q-11 -35 -11 -150q0 -103 11 -136q3 -8 17 -21.5t17 -18.5q1 -12 6 -27q30 -17 105 -17q28 0 42 4q1 0 3 6t4 7q9 -1 26 0q6 2 25 24t22 29q5 12 5 32q0 24 2 35z M218 155q2 -1 2 -4q0 -6 -9 -16q0 7 -1 14q1 9 8 6zM214 117q0 -4 -10 -9v9q0 5 3 5q7 0 7 -5zM218 95q0 -19 -3 -54q-4 -42 -4 -46q0 19 3 54q4 42 4 46zM224 -12q3 -1 3 -4q0 -6 -9 -16q0 -1 -1 9q-1 6 0 9q2 5 7 2z" />
<glyph unicode="r" horiz-adv-x="616" d="M598 440q-10 -20 -33 -51q-27 -35 -40 -42h-7v-13q-6 -2 -12 -2q-15 0 -33 13q-21 14 -27 15q-10 2 -21 2q-40 0 -82 -23q-47 -25 -55 -61q1 -20 -1 -56l-13 -27q-6 -34 -6 -70q0 -34 7.5 -96t7.5 -93q0 -20 -2 -38q0 -3 -9 -31t-9 -40q0 -15 11 -15q-7 -21 -7 -20 q-17 -3 -35 -3q-10 0 -90 10q0 48 5 104q7 68 8 101q-7 0 -8 2q0 2 4 4t4 0v27l-13 13q-3 15 0 73q6 27 13 59q1 25 -8 79q-8 50 -5 86q6 72 0 119l7 7q74 8 80 8q25 0 52 -8v-33q9 -4 19 -14l54 38q39 25 59 28q53 9 86 0l13 -13q19 3 53 0q13 -16 26 -33q1 3 3 3t4 -9z M119 324q0 -4 -10 -10l-1 9q0 5 3 5q8 0 8 -4zM13 317q0 -4 -10 -10q0 -1 0 9q0 6 3 6q7 0 7 -5zM17 241q-8 0 -8 27q0 26 8 26v-53zM116 162q2 -1 2 -6q0 -10 -9 -33q0 43 7 39zM10 228q2 -1 2 -5q0 -7 -9 -21v17q0 13 7 9zM13 178q0 -4 -10 -9l-1 8q0 6 3 6q8 0 8 -5z M20 152q0 -4 -10 -10l-1 9q0 6 4 6q2 0 4.5 -1.5t2.5 -3.5zM116 103q0 -22 -3 -64q-4 -47 -4 -55q0 25 7 119zM26 125q0 -4 -9 -9l-1 9q0 5 3 5q7 0 7 -5zM17 70q-8 0 -8 16q0 19 8 17v-33zM122 -102q-8 0 -8 26q0 27 8 27v-53zM116 -115q2 -1 2 -4q0 -8 -9 -23q0 9 -1 18 q1 13 8 9zM23 -69q-8 0 -8 18q0 17 8 15v-33zM17 -161q-1 -16 -2 -17q-1 59 2 69v-52z" />
<glyph unicode="s" horiz-adv-x="682" d="M460 284q-16 0 -56.5 3t-29.5 3q-7 0 86 -6zM615 82q0 -4 -10 -10l-1 9q0 6 4 6q2 0 4.5 -1.5t2.5 -3.5zM621 55q0 -4 -9 -9l-1 9q0 5 3 5q7 0 7 -5zM627 -4q0 -6 -9 -16q0 -1 -1 12q0 9 4 9q6 0 6 -5zM308 238q2 -1 2 -4q0 -6 -9 -16q0 7 -1 14q1 9 8 6zM224 286 q0 -5 -9 -15q0 -1 -1 12q0 8 4 8q6 0 6 -5zM565 -40q-3 -14 -32.5 -59.5t-39.5 -52.5q-6 -4 -16.5 -4t-16.5 -3q-4 -8 -14 -20q-15 -9 -46 -19q-44 -14 -114 -14q-72 0 -124 14q-19 12 -52 26q-7 -1 -20 0q-7 4 -16.5 20t-16.5 20q-19 6 -53 20q2 14 7 39q33 4 33 9 q0 1 -2 1q-4 0 -18 -3q-2 6 0 20q9 2 20 6q9 14 26 40q14 -17 40 -40q9 1 26 0q11 -9 26 -20q13 -4 36 -6t37 -7q8 -9 20 -20q17 -4 53 -4t53 4q8 9 19 20q11 4 24 8.5t16 11.5q-2 6 0 20q10 7 20 20q3 20 -5 43q-8 18 -15 36q-4 -1 -7 -1q-5 0 -4 6t-2 8h33q-13 13 -7 13 q-60 -16 -105 -13l-27 13q-16 -4 -59 -6q-34 2 -60 13q-2 7 -6 13q-14 -2 -40 0q-12 3 -49 35.5t-43 43.5q-3 7 -3 20.5t-4 19.5l-13 7q-2 7 -2 15q0 14 7.5 34.5t7.5 22.5q2 9 -3 14t-4 13l14 13q-1 10 0 33q2 7 21 29t25 24q12 -2 33 0q5 9 13 19h13q0 27 0 20q5 3 17 0.5 t16 -0.5q0 1 0 -10q0 -5 7 -3l20 33q3 -1 18 -8q12 -6 21 -5q3 6 7 13q9 0 37 4q24 4 29 3q8 -1 15.5 -10t10.5 -10q15 -4 37 -4h36q15 -2 26 -9q4 -12 14 -27q8 -2 12.5 3t7.5 5q10 0 30 -17q27 -23 29 -24q0 -17 -4 -17q-1 1 -3 4q-28 -54 -59 -79q-24 7 -73 26 q-9 10 -20 20q-25 9 -68 9q-57 0 -100 -15q-50 -17 -56 -47q-3 -13 -3 -22q0 -13 8 -19q13 -9 15 -12q32 -49 121 -49q22 0 57 3l7 -20q6 -1 11 -1q8 0 26 5q15 5 29 3q36 -4 80 -44t52 -75q3 -12 3 -41q1 -29 -3 -32q9 -32 6 -46zM209 -33q5 -7 5 -12q0 -8 -12 -8 q-1 -6 -1 14q0 8 8 6z" />
<glyph unicode="t" horiz-adv-x="529" d="M179 443q2 -1 2 -5q0 -8 -10 -24v19q0 14 8 10zM64 564q3 -1 3 -8q0 -14 -10 -42v31q0 23 7 19zM464 -136q-1 -18 -7 -50q-5 -1 -9 -7.5t-5 -6.5q-10 -2 -22 -2q-62 0 -135 45q-19 10 -43 28q-2 14 -14 36q-10 2 -22 7q10 5 10 29q0 14 -6 58q-5 39 -4 56q7 99 7 336 q-23 4 -23 6q0 1 2 1q21 4 20 14q-1 24 1 29q-34 12 -78 36v78q23 3 71 7q8 33 9 69q2 24 0 69q-2 58 -2 84q9 3 22 7l7 7q33 -10 100 -7q10 -22 21 -57q2 -22 -6 -56q-8 -37 -8 -51q0 -9 10 -34q10 -28 11 -31q37 0 93 -14q-1 -31 -7 -79q12 0 12 -3q-1 -2 -5 -4 q-8 -4 -25 -5q-23 0 -32 -2q-18 -8 -50 -21v-56q-2 -26 -28 -44q-3 -2 -3 -5q0 -7 24 -17q4 -8 4 -34q0 -21 -1.5 -39.5t-2.5 -4.5q2 -18 0 -115v-57q0 -13 7 -50q0 4 -2 -25q-1 -18 2 -25q12 -28 100 -28q3 -22 7 -72zM74 481q0 -6 -10 -17q0 -1 -1 14q0 9 4 9q7 0 7 -6z M181 289q0 -7 -10 -18q0 -2 -1 13q0 10 5 10q2 0 4 -1t2 -4zM164 214q-13 -3 -13 3q0 8 13 12v-15zM7 386q3 -2 3 -9q0 -13 -10 -41q0 53 7 50zM179 179q2 -1 2 -5q0 -8 -10 -24v19q0 14 8 10zM71 293q0 -20 -3 -58q-4 -45 -4 -49q0 20 3 58q4 45 4 49zM174 132 q0 -5 -10 -11l-1 10q0 6 3 6q8 0 8 -5zM179 107q3 -1 3 -7q0 -11 -11 -36v27q1 20 8 16zM67 167q0 -6 -10 -17q0 -1 -1 13q0 9 4 9q2 0 4.5 -1t2.5 -4zM71 136q3 -2 3 -8q0 -11 -10 -35v26q0 20 7 17zM71 64q3 -2 3 -9q0 -13 -10 -41v31q0 23 7 19zM64 -36q-8 0 -8 18 q0 20 8 18v-36zM71 -86q-8 0 -8 18q0 20 8 18v-36z" />
<glyph unicode="u" horiz-adv-x="757" d="M422 287q-1 -11 -1 -16q-1 13 0 33q1 37 1 35v-52zM330 385q-12 -3 -12 2q0 8 12 11v-13zM317 385q3 -1 3 -8q0 -12 -9 -38q0 49 6 46zM418 251q0 -4 -9 -10q0 1 -1 9q-1 5 2 5q8 0 8 -4zM324 326q3 -1 3 -6q0 -11 -10 -33v24q0 18 7 15zM317 241q-8 0 -7 18q0 17 7 15 v-33zM402 176q2 0 2 -3q0 -5 -8 -17q-4 7 -4 12q0 8 10 8zM415 150q3 -1 3 -6q0 -7 -9 -21q0 9 -1 18q0 12 7 9zM327 225q0 -4 -10 -10l-1 8q0 6 3 6q8 0 8 -4zM677 208q-16 -6 -39 -19v-13q12 -2 26 -7q8 -19 7 -128q-1 -101 -7 -147q-6 1 -15 -2q-1 -2 -5 -11 q13 -10 27 -26q2 -13 -4.5 -27t-14 -18t-38.5 -9.5t-49 -5.5q-8 0 -12 1q-6 8 -20 20v33q-6 2 -13 6q-5 -8 -13 -19q-6 -4 -16.5 -4.5t-16.5 -2.5q-28 -13 -56 -27q-35 -16 -61 -12q-1 0 -31 9t-35 10q-44 8 -66.5 31.5t-44.5 47.5q-12 7 -26 19q-8 17 -15 62q-10 58 -11 63 q11 7 39 19q-3 4 -19 15q-12 8 -14 18q-1 7 -1 14q0 9 4.5 32t3.5 39l-13 20v13q7 3 6 7v13q-8 -2 -8 6q0 7 8 7q-2 20 -2 43q0 21 2.5 65.5t2.5 68.5q0 31 -3 58q7 2 26 7v6q2 -1 20 -6v-13h6q1 2 3 17q1 7 11 9q15 3 29 -1q11 -3 23 -6q13 -43 13 -135q0 -95 -26 -100 q6 -8 13 -20q15 -31 13 -124q-3 -11 -5 -22q-4 -21 -2 -31l14 -13q-7 -4 -7 -13q0 -8 7 -13l6 -6q-2 -10 0 -27q4 -7 28 -25.5t31 -19.5q8 1 20 0q6 -13 13 -27q12 -3 24.5 5.5t20.5 8.5q15 -8 40 -14v14q12 0 39 6l-5 7q-4 4 -2 6q15 9 33 26q3 5 1 16q-2 13 -1 17l13 13 q5 17 2 37q-3 22 -2 29l13 19q3 14 0 30q-3 15 -6 29q7 5 11 35q4 27 2 50l-13 33q-1 11 -1 22q0 15 5 53q4 32 2 56q0 2 -4.5 22t-4.5 33q0 10 3 17q6 3 13 13q4 -1 13 -20q6 -1 20 0q3 2 4 8q1 10 2 12q46 -4 79 -20q0 2 3 -85q2 -53 -3 -85q0 -1 -7 -17t-6 -22 q0 -5 9.5 -15t9.5 -11q-1 -9 0 -27zM333 198q0 -4 -9 -9l-1 8q0 6 3 6q7 0 7 -5zM415 78q3 -2 3 -7q0 -11 -9 -33q0 43 6 40zM324 117q2 -1 2 -5q0 -7 -9 -21v17q0 13 7 9zM422 25q3 -1 3 -7q0 -13 -10 -39v28q1 21 7 18zM108 359q0 -17 -3 -50q-4 -41 -4 -42q0 17 3 51 q4 40 4 41zM415 -34q3 -1 3 -4q0 -6 -9 -15q0 1 -0.5 8t0.5 10t6 1zM317 58q3 -1 3 -4q0 -6 -9 -16q0 1 -0.5 8.5t0.5 9.5q1 4 6 2zM101 254q3 -1 3 -5q0 -8 -9 -21q0 1 -0.5 10t0.5 13q1 5 6 3zM10 313q-8 0 -8 16q0 19 8 17v-33zM111 113q0 -4 -10 -9l-1 8q0 6 3 6 q8 0 8 -5zM111 81q0 -4 -10 -10v9q-1 5 3 5q7 0 7 -4zM16 143q3 -1 3 -5q0 -8 -9 -21q0 -2 -1 10q-1 9 0 13q2 6 7 3zM124 15q0 -4 -9 -9l-1 8q0 6 3 6q7 0 7 -5zM13 100q0 -4 -10 -9v8q0 6 3 6q7 0 7 -5zM23 65q6 -1 6 -5q0 -7 -13 -9q1 3 0 7.5t0 5.5q1 2 7 1zM19 9 q0 -4 -9 -10q0 1 -1 9q-1 5 2 5q8 0 8 -4zM121 -125q-5 0 -11 1q6 1 10 -1q5 -2 -5 -7q26 2 39.5 4t6.5 3t-40 0zM25 -18q0 -6 -9 -16q0 -1 -1 12q0 9 4 9q6 0 6 -5zM553 -27q3 4 3 8q0 7 -16 5q-5 -1 -5 -2q0 -4 18 -11z" />
<glyph unicode="v" horiz-adv-x="641" d="M314 332q2 -1 2 -4q0 -5 -9 -16q0 7 -1 14q1 9 8 6zM309 295q0 -6 -9 -16q0 -1 0 12q0 9 4 9q5 0 5 -5zM303 269q0 -4 -9 -9l-1 8q0 6 3 6q7 0 7 -5zM366 162q-8 0 -8 16q0 18 8 16v-32zM287 233q3 -1 3 -4q0 -6 -9 -15q0 1 -0.5 8t0.5 10t6 1zM271 185q0 -5 -10 -10 q0 -1 0 8q0 6 3 6q7 0 7 -4zM595 423q-12 -12 -26 -33q-3 -7 -0.5 -22.5t0.5 -22.5l-13 -7q-6 -10 -11 -29q-8 -26 -9 -30l-13 -6q-3 -7 -1 -23q2 -17 1 -23q-9 -11 -20 -26q2 -9 0 -26l-13 -7q1 -9 0 -26q-9 -11 -19 -26q-5 -22 -20 -72q-7 -25 -26 -66q-9 -12 -33 -19 q-2 -6 -2 -11q0 -6 5 -19t4 -23q-1 -2 -33 -98q-9 -1 -26 -6v-7q-4 -2 -8 -2q-5 0 -9.5 4.5t-8.5 4.5l-20 -13q-4 -1 -21 2.5t-25 3.5q-3 17 -13 53l-13 6q2 14 0 39q-14 21 -33 59q0 13 -6 39q-9 7 -20 20q-6 17 -10.5 44t-10.5 40.5t-25 46.5q-6 19 -9 52t-10 53 q-9 5 -20 13q2 11 0 32q-10 12 -20 27q2 11 0 32h-65q65 13 59 13q1 -2 2 -2q3 0 5 7q1 6 -1 8q-7 6 -26 20q-2 3 -7 26q-4 18 -12 20v13q1 8 12.5 19.5t19.5 13.5l13 -13q10 -1 27 1q21 2 27 2q20 0 31 -10v-26q10 -6 20 -13q6 -21 9.5 -55.5t10.5 -55.5q12 -15 26 -40 q1 -11 -6.5 -19.5t-6.5 -12.5q12 -5 26 -14q3 -7 1 -22q-3 -16 -1 -23q12 -9 26 -26q1 -4 1 -7q0 -5 -3.5 -10.5t-3.5 -9.5q0 -2 9.5 -10t9.5 -9q4 -7 4 -25.5t3 -27.5q22 -37 26 -39h13q8 5 17.5 12.5t15.5 20.5q7 17 10 46t9 45q9 5 20 14q1 3 7 39q0 9 -5 18q-4 6 -2 14 h13q0 18 7 59q9 -14 13 -13q-1 5 6 13v53q3 1 7 0q5 -2 6 -2q4 0 7 8q8 23 15 62q9 55 11 63q32 5 85 13q4 0 13.5 -3.5t6.5 -3.5l26 -6q2 -19 0 -53zM261 162q2 -2 2 -5q0 -5 -8 -15q0 -1 -1 9q-1 6 0.5 9.5t6.5 1.5zM330 66q0 -4 -10 -9l-1 8q0 6 3 6q8 0 8 -5zM15 249 q0 -6 -9 -16q0 -1 -1 13q0 8 4 8q6 0 6 -5zM29 197q0 -4 -10 -9l-1 8q0 6 4 6q2 0 4.5 -1t2.5 -4zM39 175q2 -1 2 -4q0 -5 -9 -16q0 7 -1 14q1 9 8 6zM61 105q0 -4 -9 -9l-1 9q0 5 3 5q7 0 7 -5z" />
<glyph unicode="w" horiz-adv-x="991" d="M767 369q0 -5 -9 -10l-1 8q0 6 3 6t5 -1t2 -3zM755 310q0 -4 -10 -10v9q-1 5 3 5q7 0 7 -4zM742 271q0 -4 -10 -9l-1 8q0 6 4 6q2 0 4.5 -1t2.5 -4zM726 210q2 -1 2 -4q0 -5 -9 -16q0 7 -1 14q1 9 8 6zM700 125q2 -1 2 -4q0 -7 -9 -21v17q0 12 7 8zM690 71q0 -5 -10 -10 q0 -1 0 8q0 6 3 6q7 0 7 -4zM476 148q0 -4 -10 -10l-1 9q0 5 3 5q8 0 8 -4zM252 372q3 -1 3 -4q0 -6 -9 -16q-1 -4 -1 14q0 9 7 6zM946 469q-3 -9 -7 -9q-8 -1 -12 -4q0 1 2 -39q1 -25 -2 -39q-9 -11 -20 -26q2 -13 0 -39q-12 -16 -26 -38q-6 -18 -10 -52.5t-9 -51.5l-13 -7 q-15 -37 -20 -58q2 -11 0 -32l-13 -7q1 -17 -6 -52q-10 -8 -20 -19q0 -19 -6 -59q-3 -11 -58 -142h-104q-9 10 -20 26q2 20 0 58q-2 11 -16 33.5t-16 31.5q2 18 0 52q-11 14 -26 39q1 10 0 26q-8 42 -29.5 100.5t-41.5 87.5q-8 -1 -20 -7q-1 -3 -26 -58q-7 -15 -9 -47 q-3 -36 -10 -57q-12 -15 -26 -39q2 -17 0 -52l-13 -13q-5 -13 -26 -84l-18 -70q-14 -33 -51 -33q-17 0 -41 6l-13 13q-3 0 -7 -4.5t-7 -4.5q-2 0 -5 2v7q-9 4 -11 5v0q4 -3 5 -4q6 -3 7 -3q1 1 -8 8q-12 9 -12 36q0 37 -1 42q-4 3 -9.5 6.5t-9.5 6.5q-4 11 -4 26v10 q0 13 -3 22q-11 15 -26 46q0 22 -6 65q-9 5 -20 13q-3 8 -2.5 25.5t-3.5 25.5q-9 7 -20 20q0 20 -6 58q-11 16 -26 46q1 11 0 32q-11 18 -26 52q2 15 0 45q-2 8 -13.5 24t-12.5 22q1 11 0 32q81 15 123 13q9 -7 20 -19q4 -26 13 -72h32q-8 -2 -32 -6q0 -22 6 -65 q12 -17 26 -45q2 -11 -2.5 -30t-3.5 -22q12 -12 26 -33q1 -17 6 -52q10 -23 26 -77q0 -1 4 5.5t2 13.5q9 -16 9 -23q0 -3 -2 -3q-7 -1 -7 -13t4 -12q2 0 3 12l6 -19q6 -2 14.5 2t8.5 8q-1 2 -3 3h6q5 18 20 65q11 14 26 45q0 22 6 65q9 12 20 26q3 20 13 64q4 11 16.5 36.5 t15.5 35.5q6 36 19 84q8 -1 20 0v20q24 2 84 0q4 -10 20 -65l26 -91l13 -13q-2 -13 0 -39q0 -1 9 -12t10 -14q0 -20 6 -58q11 -14 26 -39q3 -9 0 -25t0 -27q4 -14 18 -42q17 -32 21 -42q11 3 26 13q11 18 16 54q7 51 10 62l13 7l20 58q3 16 1 37q-3 21 -1 28q14 30 32 78 q3 13 1 33q-2 21 -1 25q9 8 19 20q-2 12 0 32q6 13 23.5 22.5t35.5 9.5l19 -12q20 -1 65 -7zM468 121q0 -6 -8 -15l-1 12q0 8 4 8q5 0 5 -5zM265 275q-8 0 -7 17q0 17 7 15v-32zM456 76q0 -4 -9 -9l-1 9q0 5 3 5q7 0 7 -5zM314 141q0 -4 -10 -9v8q0 6 3 6q7 0 7 -5zM430 -21 q0 -4 -9 -9l-1 8q0 6 3 6q7 0 7 -5zM408 -82q2 -1 2 -5q0 -7 -8 -21q0 -1 -1 11q-1 8 0.5 13t6.5 2zM369 -127q13 -1 14 -2q0 -1 -26 0q-24 1 -7 2h19z" />
<glyph unicode="x" horiz-adv-x="731" d="M685 -192q-59 -7 -98 -7q4 0 -6.5 -3t-13.5 -3q-18 0 -29 10q-3 3 -17.5 22t-32.5 46q2 10 0 26q-7 13 -34 40q-31 30 -38 39q-2 10 -13 26q-8 3 -32 13q-52 -63 -92 -131q-9 -20 -19 -41t-27 -31v-13q-10 -4 -28 -4q-20 0 -64 5.5t-58 5.5q25 25 59 65q3 6 2.5 17 t3.5 16q6 2 13 7q4 9 6 28q2 16 6.5 23t16.5 8.5t17 5.5q-1 7 0 20l13 6q24 35 48 69q36 53 37 68q2 26 -19 50q-16 18 -33 36q1 7 0 19q-8 5 -20 13q0 8 -6 26q-6 10 -48 66q-29 40 -44 72h26q-11 11 -6 13q-21 7 -32 13.5t-27 19.5v13q8 5 33 6q8 -6 19 -13q-4 -1 2.5 -4 t10.5 -2q46 8 52 8q21 0 33 -8q2 -14 7 -33h6q20 -10 44.5 -55t34.5 -50q5 -2 30 -5t25 -4q-3 -2 -22 -4q-7 -1 -27 -6q24 -32 40 -32q10 0 24 15l28 30q-6 1 -16 3.5l-10 2.5q15 4 46 13q-2 16 0 46q1 5 15.5 14.5t16.5 11.5q10 12 40 72q17 0 55 3.5t49 3.5q6 0 40 -7 q-2 -15 -13 -39q-15 -4 -33 -13q-5 -9 -4.5 -27t-2.5 -25h-13q-11 -25 -39 -72q-9 -4 -20 -13q-6 -10 -9.5 -26.5t-9.5 -26.5q-28 -29 -59 -65q-7 -23 0 -53q11 -12 26 -32q14 -31 52 -92q14 -8 33 -26q5 -7 6.5 -22.5t6.5 -23.5q11 -5 26 -19q4 -6 4 -16.5t3 -16.5 q5 -9 27 -25t25 -21t3 -13t4 -13zM47 276q0 -5 -10 -10q0 -1 0 8q0 6 3 6q7 0 7 -4zM384 -94q-18 1 -18 10q0 10 11 10q-2 -1 -2 -2q0 -5 9 -18zM459 -189q0 -4 -10 -10l-1 9q0 5 3 5q8 0 8 -4zM60 -111q0 -4 -10 -9l-1 8q0 6 3 6q8 0 8 -5zM89 -205q13 -1 14 -2q0 -1 -26 0 q-24 1 -7 2h19zM11 -199l32 -3q-10 -1 -45 -3q8 20 13 19v-13zM573 -55q0 1 1 10q0 3 -7 3z" />
<glyph unicode="y" horiz-adv-x="658" d="M597 245q0 -4 -10 -9v8q0 6 3 6q7 0 7 -5zM584 205q0 -4 -10 -10l-1 9q0 7 3 7q8 0 8 -6zM259 252q0 -5 -9 -10l-1 9q0 6 3 6q7 0 7 -5zM266 225q0 -4 -10 -10l-1 9q0 6 3 6q8 0 8 -5zM280 185q0 -4 -10 -10l-1 8q0 6 3 6q8 0 8 -4zM293 144q0 -6 -10 -16q0 -1 -1 12 q0 9 4 9q7 0 7 -5zM320 63q0 -4 -10 -10v9q0 6 3 6q7 0 7 -5zM621 513q-16 -38 -40 -102q-3 -11 -3 -30t-4 -30q-11 -15 -27 -41q15 -9 13 -14h-13q-9 -13 -20 -33q-6 -13 -8 -35t-6 -33q-9 -7 -20 -20q1 -11 0 -34q-11 -15 -27 -40q-8 -21 -14 -51q-7 -33 -13 -51 q-13 -21 -34 -61q-6 -16 -10 -39q-5 -26 -10 -42q-14 -22 -34 -61q2 -10 0 -27q-12 -12 -27 -33q-2 -4 -2 -8q0 -5 4.5 -10t4.5 -9q-2 -16 -43 -83t-50.5 -72t-25 -5t-23.5 -3q-1 0 -3.5 -6.5t-3.5 -6.5q-16 -6 -41 -7h-47q-2 5 -20 14q-2 34 0 88q1 4 13 7.5t14 5.5 q1 9 7 20q7 2 23 -1q16 -2 23 1t37 36t32 39q-2 16 0 47q1 5 12 27q9 18 8 34q-1 17 -15 43q-17 32 -19 38q-2 9 2.5 16.5t4.5 10.5q-10 9 -19 21t-13 34q-5 27 -9 39q-12 15 -27 41q-3 10 -3 29.5t-4 31.5q-18 25 -40 61q-4 8 -4 23t-3 24q-9 9 -20 27q-14 48 -47 142 q-8 32 -27 94q9 3 27 7q11 1 46 -2q41 -5 55 -5q21 -37 41 -104q16 -56 33 -112h21q-17 -11 -14 -34q10 -11 20 -27q4 -9 4 -27t3 -27q9 -8 20 -20q4 -9 4 -24.5t3 -22.5l14 -7q2 -7 3 -37q1 -23 10 -31q11 0 27 -6q13 15 27 33q3 8 0.5 24.5t-0.5 23.5l14 13q-2 14 0 41 q4 13 24 40.5t23 40.5q-3 16 0 54q9 11 20 27q-1 16 0 47q13 22 27 48q-1 12 0 33q13 22 34 61q44 -5 135 -13zM442 -187q0 -4 -10 -10l-1 9q0 7 3 7q8 0 8 -6zM415 -262q0 -4 -10 -9v9q0 5 3 5q7 0 7 -5zM391 -305q3 -1 3 -4q0 -6 -9 -16q0 1 -0.5 8.5t0.5 9.5q1 4 6 2z M388 -343q0 -4 -10 -9l-1 8q0 6 3 6q8 0 8 -5zM361 -389q0 -5 -10 -10l-1 9q0 6 3 6q8 0 8 -5z" />
<glyph unicode="z" horiz-adv-x="559" d="M443 494q-12 0 -39.5 3.5t-16.5 3.5q6 0 56 -7zM281 494q12 -1 13 -2q-12 0 -25 1q-24 1 -7 1h19zM243 494q-9 0 -33.5 1.5t-42.5 3.5t-11 2q16 0 48 -3q19 -2 39 -4zM140 478q0 -4 -9 -9l-1 9q0 5 3 5q7 0 7 -5zM503 10q0 -4 -10 -9v8q0 5 3 5q7 0 7 -4zM381 82 q12 -1 12 -2q-26 1 -31 2h19zM443 -6q6 0 -6 -6q27 2 38.5 3.5t5.5 2.5h-38zM493 -187q-18 -11 -12 -12q-14 0 -75 -1q-48 -1 -74 0q-38 1 -57 7q11 7 31 19l-6 18q-12 1 -44 7q9 -8 9 -15q0 -2 -2 -9.5t-1 -13.5q-90 -12 -250 -12v6q-14 7 -10 39t-2 36q4 8 12.5 22 t12.5 22q17 -2 18 0q5 6 7.5 22t5.5 21h6q9 5 17 28.5t14 28.5q7 0 19 6q3 13 13 37q1 2 15 19.5t16 18.5h12q8 11 16 31.5t16 30.5l25 32q4 3 12.5 2t12.5 4q-1 7 0 19q14 14 31 37q-2 9 0 25q14 7 31 25q-1 11 0 31q-36 0 -96 4t-87 4q-19 0 -36 -1q6 0 -12 -13 q-4 -1 -25 13h-25v68q-6 23 -6 32l12 12q16 6 37 6q18 0 48 -6q34 -5 46 -6q12 3 38 6q3 0 31 -19q20 9 63 19q99 7 187 -12q0 2 6 37q0 -35 1 -70q0 -47 -7 -67q-3 -10 -30 -30t-32.5 -27t-10 -22t-8.5 -21q-15 -13 -38 -38q-4 -16 -18 -44h-13q-9 -18 -31 -43h-6 q-6 -9 -11.5 -29t-13.5 -28q-3 -3 -9.5 -3.5t-9.5 -2.5q-13 -8 -44 -50q2 -1 2 -4q0 -4 -8 -21q14 1 14 -2q0 -2 -2.5 -4.5t-13 -4.5t-17.5 -14q-3 -5 -12 -37q7 -6 18 -13q35 -5 107 0q5 0 39 8q31 6 42 5l19 -13q18 3 50 0q12 -4 27 -32l10 -24q1 -8 -3.5 -12t-2.5 -13 q0 -2 5.5 -8.5t6.5 -10.5zM331 32q3 -1 3 -5q0 -7 -9 -20q0 -2 -1 10q0 8 1 12.5t6 2.5zM118 401v18q-9 -1 -25 0v-6q1 0 25 -12zM456 -162q5 -2 8 -2q6 0 0 6t-14 9z" />
<glyph unicode="&#xa7;" horiz-adv-x="569" d="M283 575q-5 -1 -6 2q0 2 2 5t4 4q7 2 7 -1t-7 -10zM104 573q0 -4 -8 -8v6q-1 5 2 5q6 0 6 -3zM109 551q0 -4 -7 -8q0 12 1 12q6 0 6 -4zM37 554q-6 0 -6 22q0 21 6 21v-43zM503 340q1 -12 -5 -27t-6 -16q3 -10 5 -37q-1 -13 -14.5 -41.5t-22.5 -38.5q-3 -4 -10.5 -4 t-10.5 -2l-22 -26q-1 -10 0 -27q9 -3 22 -11v-11q1 -2 10 -9.5t11 -11.5q0 -14 5 -43l11 -5q3 -16 3 -33q0 -61 -39 -118q-35 -51 -74.5 -67.5t-102.5 -16.5q-22 0 -33 5q-1 0 -5 7.5t-6 8.5q-26 10 -53 20q-23 10 -38 34q-32 52 -32 123q27 -2 86 -6q2 -18 11 -48 q2 -5 11 -9q14 -6 15 -7q41 -26 66 -26q18 0 79 31v16q1 2 8.5 8.5t7.5 7.5q1 5 1 13q0 42 -12 62q-9 15 -31.5 23t-43.5 15l-5 10q-8 -1 -22 0q-5 4 -9 9q-8 7 -12 7q-6 1 -9.5 -2.5t-6.5 -2.5l-16 16q-17 3 -54 16q-20 20 -48 43h-10q-1 2 -1 3q0 2 4 3.5t4 2.5t-2 2 q-30 18 -30 73q0 11 2 39q1 24 1 37l-4 16q-3 15 -1 22q0 1 8 10.5t8 10.5q-2 11 0 32q7 18 69 59q-2 2 0.5 13.5t-0.5 13.5h-21v5q2 -3 2 4q0 8 -2 12q-8 9 -16 22q-2 9 2.5 14t2.5 12l-10 6q-16 37 -6 85l11 6q-1 10 5 32q7 3 16 10v16q2 7 17 24t21.5 20t18.5 3t18 2 q17 10 54 21q24 2 35 -6q7 -5 13 -10q12 4 37 5q7 -2 15.5 -17.5t17 -15.5t26.5 -4q22 -11 36 -58q12 -41 12 -87q3 0 -38 -2q-25 -2 -37.5 2.5t-18 36t-13.5 38.5q-21 17 -68 17q-49 0 -69.5 -16t-20.5 -64q0 -25 9 -33q7 -1 16 -5q2 -3 3.5 -4t6.5 -2q-1 -11 6 -26 q5 -3 18 -1q14 2 19 1l5 -11q8 -5 24 -6t25 -5q6 -8 16 -16q16 2 48 0q7 -2 36.5 -33.5t38.5 -35.5h5q3 -4 11 -48q5 -20 10 -54h6zM16 404q2 -1 2 -3q0 -5 -7 -13q0 19 5 16zM5 367q2 -1 2 -4q0 -7 -7 -18q0 24 5 22zM5 319q2 -1 2 -4q0 -4 -7 -12q-1 -2 -1 11q0 7 6 5z M13 263q0 -4 -8 -8v6q-1 5 2 5q6 0 6 -3zM21 46q-7 0 -6 14q0 15 6 13v-27zM29 32q0 -3 -8 -7v7q0 4 2 4q6 0 6 -4zM337 752q-4 3 -1 11q2 5 -10 5v-16h11zM433 634q14 0 14 8t-19 8q-1 -16 5 -16zM396 287q3 26 -6 68.5t-20.5 54t-31 15t-39.5 6.5q-3 3 -8 7t-8 4 q-17 -7 -37 -16q-39 -13 -54.5 -33t-15.5 -56q0 -22 6 -61q5 -32 9 -38q9 -10 18 -21q0 -6 5 -16q8 -6 23 -10q21 -5 25 -6v9q2 1 5 2q1 -3 0 -16h43q10 2 35 16t29 21q-1 6 0 16q10 21 22 54zM289 132q15 0 15 4q0 3 -15 12v-16zM323 401q0 -3 -7 -7q0 11 1 11q2 0 4 -1 t2 -3zM326 383q2 -1 2 -4q0 -6 -7 -18q0 25 5 22zM332 351q2 -1 2 -3q0 -5 -8 -13v11q0 7 6 5zM332 303q2 -1 3 -3q0 -3 -9 -8v9t6 2zM329 278q0 -3 -8 -7v7q-1 4 2 4q1 0 3 -1t3 -3zM246 372q2 -1 2 -6q0 -9 -7 -26q0 35 5 32zM251 329q2 -1 2 -3q0 -5 -7 -13q0 -2 0 12 q0 7 5 4z" />
<glyph unicode="&#xad;" d="M665 422q2 -1 2 -3q0 -5 -7 -12v10q0 7 5 5zM595 447q-13 14 0 10q3 0 5 -3t1 -6q-1 -2 -6 -1zM520 467q17 -1 -6 -1q-19 -1 -44 0q-26 1 -15 1q43 2 65 0zM375 462q2 -1 3 -3q0 -3 -8 -7v8t5 2zM635 317q-43 -1 -65 0h-275q1 7 -2 12.5t-3 7.5q7 8 15 20q-9 14 -30 40 q10 6 20 15q23 1 60 0q4 0 26 -7.5t29 -7.5q8 5 30 10q33 -1 80 0v-10q11 -1 41.5 2t43.5 3q2 -4 6 -8.5t17 -24.5q15 -24 15 -38q0 -10 -8 -14zM565 397h-15l5 -20q8 2 8.5 8t1.5 12z" />
<glyph unicode="&#xb0;" horiz-adv-x="382" d="M176 898q2 -1 2 -2q0 -3 -7 -6v7q1 3 5 1zM210 821q2 -1 2 -2q0 -3 -7 -6v7q0 3 5 1zM82 907q5 0 6 -2q0 -3 -11 -7v7q0 2 5 2zM304 757q-2 -6 -5 -34q-3 -12 -13 -38h-12q-3 -6 -3 -18t-2 -16q-7 -14 -43.5 -29t-63.5 -15q-7 0 -12 1l-9 9q-13 0 -38 8q-6 4 -12 17 t-9 17q-12 7 -26 22q-1 2 2.5 8t3.5 9q0 2 -2 4q7 1 17 0l18 -26q15 -14 40 -26q31 -15 53 -12l34 21q22 10 27 13q13 9 19 23q4 10 2 24q-2 17 -1 26q5 13 13 38q-20 17 -77 47l-4 8q-65 2 -68 0q-11 -13 -26 -29l-12 4v-17q-8 -11 -18 -30q-2 -12 -1 -25q2 -15 1 -26h-25 q0 38 -4 34v8q8 10 17 22q0 1 -5 30q9 4 22 12q3 4 6 14q1 7 11 12v4q8 3 24 0q16 -4 18 -4q7 1 15.5 8.5t14.5 8.5q11 1 44 -7q30 -7 46 -14v-22q9 -2 21 -8v-13q9 -12 22 -34v-9zM35 817q5 -3 -4 -8q0 10 4 8zM26 804q6 0 6 -2q0 -5 -10 -10q0 -1 -1 8q0 4 5 4z" />
<glyph unicode="&#xb4;" horiz-adv-x="272" d="M197 697q6 -1 6 -5q0 -5 -12 -7v9q0 4 6 3zM221 850q-12 -21 -41 -59q-7 1 -18 0v-6h-6l-6 -17h-12q2 -9 0 -24q-2 -5 -17 -10t-18 -8v-11q-13 -36 -82 -42q-4 1 -18 0q-1 12 0 42q-1 6 0 17q2 5 35 24q4 6 4 21t2 20q13 36 39 41q34 3 67 6q1 0 11 6t13 6q1 0 20 -2.5 t27 -3.5zM111 664q0 -3 -8 -8v8q-1 5 2 5q2 0 4 -1t2 -4z" />
<glyph unicode="&#xc4;" horiz-adv-x="727" d="M539 728q-4 -1 -7 -1q-4 0 -4 2q0 7 11 10v-11zM528 789q-1 -1 -1 -2q0 -2 3 -8.5t3 -10.5q0 -7 -11 -7v-5h-28l-5 -17q-2 -1 -7 2.5t-9 3.5q-3 0 -6 -1l-6 23q-7 -5 -10 -5q-1 0 -1 1q0 5 12 20.5t16 16.5h50v-11zM456 722q-7 0 -7 5q0 9 7 12q4 2 4 -1t-2 -9t-2 -7z M478 717v-15q0 -9 -6 -8l-21 21q0 3 5 2q7 -1 22 0zM367 728q-16 -10 -17 -28q-7 -5 -15 -3q-12 3 -13 3v-11q0 -4 -5 -6q-1 -5 0 -16q7 -5 16 -17q-1 3 -22 11q8 36 -5 39q-3 -5 -6 -11h-39l-5 22q3 -1 5 -1q-3 0 -11 1l-6 11q8 -2 17 -5q-16 22 -18 29q-1 5 1 37q9 1 28 6 q1 5 11 11q17 -2 45 -6l5 -16q4 -1 6 1q3 2 0 4h5l6 -5q2 -5 0.5 -16.5t-0.5 -17.5q1 -1 17 -16zM239 711q2 -1 2 -3q0 -5 -8 -14v12q0 8 6 5zM217 672q-12 1 -22 3t-9 3q2 1 20 0v14q0 6 5 8q1 0 3 -14t3 -14zM156 717q2 -1 2 -3q0 -5 -8 -14v12q0 8 6 5zM317 533 q-6 -4 -10 -4q-6 0 0 12q5 11 10 15q2 -11 0 -23zM244 594q5 0 -5 -5q23 2 33.5 3t5.5 2h-34zM158 668q-3 11 1 11q1 0 2.5 -1.5t3.5 -11.5q2 -11 -2 -11q-1 0 -2 1t-3 12zM228 578q2 -1 2 -3q0 -5 -8 -14v12q0 8 6 5zM228 539q2 -1 3 -3q0 -3 -9 -8v9q1 5 6 2zM206 511 q2 -1 2 -3q0 -5 -8 -14v12q0 8 6 5zM252 419q0 -4 -8 -8v7q0 5 2 5q6 0 6 -4zM222 428q2 0 2 -2q0 -4 -7 -15q-4 6 -4 10q0 7 9 7zM717 -139h-17q-1 -6 -3 -6q-6 2 -8 1v-45q-4 -5 -11 -11h-45q-5 16 -11 33q-1 1 -12.5 4t-15.5 13q1 11 0 33q-8 45 -50 106q-25 -6 -84 -6 q-95 0 -127 17q-1 -1 -8.5 -9l-7.5 -8q-5 -1 -12 -1q-8 0 -24 2t-24 2q-10 0 -19 -3.5t-13 -20.5l-8 -29q-16 -19 -36 -62q2 -17 -3 -49q-11 -27 -72 -27q-25 0 -56 5q0 10 6 33q7 3 16 11q11 29 11 45q-1 10 0 28q10 7 23 22q3 7 3 22t2 22q8 9 17 23q-1 10 0 27 q10 11 22 28q3 10 2 26q-3 17 -2 19h11q7 14 10 29q4 22 7 32q8 9 16 22q1 4 16 63q12 48 18 54q10 1 22 5q4 9 3.5 28t3 29.5t49.5 53.5l-17 17q6 22 5 28q9 0 28 5l-11 11q-4 12 0 27q3 11 6 23q4 -3 22 0q-11 42 0 73q8 4 17 11q62 0 72 -6q4 -7 11 -17h11q8 -13 6 -40 q-1 -30 5 -43q10 -2 22 -5q0 -6 4 -12.5t2 -15.5q0 -1 -6.5 -4.5t-4.5 -12.5q0 -1 7.5 -0.5t8.5 0.5q6 -3 0 -55q13 -2 34 -17q4 -6 3.5 -20t1.5 -19q8 -18 23 -56l11 -5q1 -7 -3.5 -14.5t-2.5 -13.5q12 -12 28 -33q0 -15 5 -45q10 -12 23 -33q-2 -9 0 -28q10 -9 22 -28 q-2 -13 0 -38q12 -12 28 -39q-1 -9 0 -28q0 -2 8 -15.5t8 -17.5q1 -6 -2.5 -10t-2.5 -7q3 -10 18 -31q18 -24 21 -30q-1 -1 0.5 -8.5t-0.5 -8.5zM711 -183q-1 0 -6 7t-5 11t6 4q18 -2 18 -15q0 -10 -13 -7zM211 317q2 -1 2 -5q0 -6 -7 -18q0 25 5 23zM130 314q0 -3 -8 -8v7 q-1 5 2 5q6 0 6 -4zM444 -17q2 -1 3 -3q0 -4 -8 -8q0 1 -1 6v6q1 2 6 -1zM125 297q0 -4 -8 -8q0 1 -1 7q0 5 2 5q7 0 7 -4zM119 275q0 -3 -8 -8v7q-1 5 2 5q6 0 6 -4zM108 242q0 -4 -8 -9l-1 8q0 5 3 5l4 -2t2 -2zM83 183q2 -1 3 -3q0 -4 -8 -8q0 1 -1 6v6q1 2 6 -1zM136 80 q0 -4 -8 -8v7q-1 5 2 5q1 0 3.5 -1t2.5 -3zM52 97q0 -3 -8 -8v7q-1 5 2 5q6 0 6 -4zM106 22q2 -1 2 -4q0 -6 -8 -18v15q0 10 6 7zM102 -9q0 -4 -8 -8v7q0 5 2 5q6 0 6 -4zM28 50q2 -1 2 -3q0 -5 -8 -14v12q0 8 6 5zM22 17q3 -2 3 -4q0 -3 -8 -7q0 -1 0 8q0 5 5 3zM6 -17 q2 -1 2 -3q0 -4 -8 -13v11q0 8 6 5zM328 711v12q0 5 -6 5q-4 0 6 33h-17v-28l-17 -5h-22v-11q12 2 50 5v-8q-1 -2 6 -3zM433 539q4 -1 7 -1q4 0 4 2q0 7 -11 10v-11zM456 356q8 0 8 14q0 4 -5 4q-11 0 -11 -5t8 -13zM328 378q12 -4 12 8q0 10 -18 14q4 -22 6 -22zM617 78 q-1 -7 -6 -22q17 3 17 11q0 4 -4 8t-7 3zM506 89q3 59 -12 111l-16 22q-2 7 1.5 20.5l3.5 13.5q-1 5 -16.5 17.5t-16.5 20.5q5 5 6 23h-12q-6 14 -16 39q-1 4 -8 36q-5 22 -14 30q-9 1 -23 6q-13 -43 -44 -128q-8 -7 -17 -17q0 -18 -5 -55q-7 -27 -39 -84q-2 3 -4 -14 q-2 -16 4 -19q12 2 33 0q-12 -4 -33 -5q1 -18 0 -17q13 1 33 0l11 -17q4 0 34 8.5t38 8.5q11 0 28 -5.5t22 -5.5q17 -1 36.5 4.5t25.5 6.5zM400 339q2 -1 2 -4q0 -6 -8 -18v14q0 11 6 8zM422 283q2 -1 2 -4q0 -6 -7 -18q0 25 5 22zM439 233q2 -1 2 -3q0 -5 -8 -13v11 q0 8 6 5zM456 161q-36 9 -17 6v11q6 2 17 11v-28zM475 141q0 -4 -8 -8v7q-1 5 2 5q1 0 3.5 -1t2.5 -3zM344 278q2 -1 2 -4q0 -7 -7 -18q0 25 5 22zM480 119q0 -3 -8 -8v7q-1 5 2 5q6 0 6 -4zM356 239q2 -1 2 -3q0 -5 -8 -14v12q0 8 6 5zM361 211q2 -1 2 -4q0 -4 -7 -13l-1 8 q-1 5 0 8t6 1zM344 106q11 -1 12 -2q-24 1 -28 2h16z" />
<glyph unicode="&#xd6;" horiz-adv-x="651" d="M455 756q2 -12 2 -22q0 -35 -30 -46q-22 -9 -87 -9l-5 50q10 -1 27 5q7 6 0 61q4 1 11 5q9 -2 11 -11q7 -2 11 2t11 4q5 -5 17 -11q0 -25 5 -28h27zM346 778q7 0 7 -3q0 -6 -13 -13v11q-1 5 6 5zM362 630q11 -1 12 -2q-25 1 -28 2h16zM247 751q4 -8 4 -15q0 -10 -10 -13 v-16q4 3 7 3q1 0 1 -1q0 -3 -5.5 -10.5t-7.5 -8.5q-9 2 -27 0l-6 -27l-22 11q25 4 17 5h-11q7 2 -17 6q1 0 -16 -6q-12 7 -22 11v44q22 -7 29 -7t7 5q0 1 -14 35q-11 26 -11 23q0 4 5 5q8 1 12 -5t5 -6q7 -1 11 5t5 6q13 2 18 -5q7 -11 10 -12q10 3 27 0q-1 -16 11 -22v-5z M236 668q-6 9 -6 15q0 3 3 3q1 0 2.5 -1t3.5 -6.5t2 -8.5q0 -4 -5 -2zM176 641q-7 0 -7 15q0 14 7 12v-27zM582 224q-15 -6 -15 -9q0 -1 5 -2t4 -6q-1 -9 0 -11q4 -14 4 -29t-4.5 -39.5t-4.5 -35.5v-61q-1 -35 -11 -60q-12 -12 -28 -32q1 -6 0 -17q-10 -14 -36 -29 q-34 -21 -41 -26q-2 -2 -17 -21q-11 -15 -19.5 -16.5t-13.5 -1.5q-19 0 -19 14q0 4 2 12.5t2 12.5q0 10 -11 11q-7 -31 -6 -55q-3 -1 -11 0t-11 0q-6 -7 -16 -16q-22 -7 -47 -7q-103 0 -206 84q-3 8 -11 22q-11 4 -27 16q0 9 -6 28q-12 15 -27 43q-2 12 2 26.5t3 23.5 q0 3 -8 16.5t-8 16.5q-1 12 -1 21q0 26 14 36q7 5 42 14v16q-17 7 -50 17q-9 74 -5 99l11 22q0 35 5 109l7 -4t10 -1q-7 26 -6 27q6 10 17.5 12t15.5 5t3.5 11t2.5 11q13 6 33 16q-8 7 0 44q12 12 25 24v0q-1 0 -3 -2q0 6 5 17q8 5 39 17q36 13 44 10q1 -6 3 -17q1 -7 13 -5 q-1 14 -6 33q14 2 39 5v6h5q64 7 88 -6q5 -10 17 -22q6 -2 21.5 0.5t22.5 -0.5q3 -7 11 -16q11 2 27 0q2 -12 5 -27l44 -22v-22q5 -5 15 -5t13 -1v-11h-28l-2 -5t-3 -6q21 -6 60 -16q5 -9 11 -22q2 -7 -2 -11.5t-3 -10.5l5 -17q2 -4 6 -16q4 -17 6 -73q2 -64 5 -86zM214 734 q6 -5 9 -5l1 1q0 2 -15 26h-6q3 -9 11 -22zM455 482q0 2 1 8q0 3 -6 3zM143 498q-3 2 -2 6.5t-9 4.5v-11h11zM494 81q8 14 -11 11q-4 -1 -4 -2q0 -3 15 -9zM477 87q2 10 -2.5 16t-8.5 11v11q0 -3 1 -3q2 0 5 9q-5 3 -3 24q3 28 3 30l-11 28q-2 21 2 61q4 46 4 64q0 29 -6 50 q-2 8 -14 21.5t-14 17.5q-4 17 -21 44q-8 7 -24 10q-20 4 -26 6q-2 6 -5 11q-31 13 -66 6q-9 -8 -22 -17q-16 -3 -16 1q0 3 10 5q1 0 -12 3.5t-21 1.5q-1 0 -43 -27q14 -10 11 -11q-8 -4 -17 -4q1 0 -38 9q2 -18 0 -49q-8 -4 -17 -11q-2 -7 2 -13.5t4 -8.5q-8 -5 -17 -11 q-1 -9 -1 -18q0 -13 4.5 -35t2.5 -35q0 -1 -8 -23q-5 -17 -3 -32l11 -22q0 -7 -7 -33t-9.5 -27t-2.5 -3q0 -5 13 -19q0 -2 10 -75q6 -42 23 -62q9 -3 22 -11q5 -15 22 -38q6 -4 17 -4t16 -2q10 -16 11 -16q18 3 55 5q3 -5 5 -11h39q2 7 5 17q6 -2 17 0q1 0 5.5 7.5t5.5 8.5 l42 26q26 17 34 34q3 8 3.5 20t2.5 19q14 22 27 44zM77 405q7 15 7 21q0 7 -7 6q-25 -2 -17 -27h17zM428 372q-7 0 -7 15q1 14 7 12v-27zM433 361q0 -9 -1 -29.5t-2 -30.5q-1 -13 -2 0q0 10 2.5 33.5t2.5 26.5zM431 281q0 -4 -8 -8q0 12 1 12q7 0 7 -4zM436 259q0 -4 -8 -8 v7q-1 5 2 5q6 0 6 -4zM436 215q0 -3 -8 -8v7q-1 5 2 5q1 0 3 -1t3 -3zM450 169q-19 6 -19 9q1 2 8 2t8 -1t0.5 -4.5t2.5 -5.5zM170 416q2 -1 2 -4q0 -5 -7 -13l-1 8q-1 6 0 8q2 3 6 1zM165 328q-7 0 -7 15t7 13v-28zM159 279q-7 0 -6 15q0 14 6 12v-27zM165 268q2 -1 2 -3 q0 -5 -8 -14v12q0 8 6 5zM162 237q0 -3 -8 -8q0 12 1 12q2 0 4 -1t3 -3zM368 -1q-10 -2 -10 2q0 7 10 9v-11zM159 202q2 -1 2 -4q0 -5 -7 -13q0 20 5 17zM165 147q-7 0 -7 15q0 14 7 12v-27zM176 131q2 -1 2 -3q0 -3 -8 -8v8q0 5 6 3zM274 -40q8 -1 11 -1h-21q-21 1 -6 1 q8 3 16 0z" />
<glyph unicode="&#xdc;" horiz-adv-x="655" d="M456 756q-6 0 -6 -78q-15 -2 -44 0q-3 1 -12.5 11.5t-10.5 10.5q-11 -4 -33 -11q0 2 -11 11q2 7 5 25t2 18q-1 -1 -2 -4q-4 1 -4 2q0 2 25 3q23 1 29 0q-1 8 -5 17q-10 2 -33 6v16q8 5 22 17q3 0 27 -7q21 -5 28 -4q3 5 17 11q1 -13 6 -44zM456 628q-7 0 -7 22t7 22v-44z M375 647q0 -4 -8 -8v7q-1 5 2 5q6 0 6 -4zM250 733l-17 -5v-11q20 -9 20 -14l-1 -1q-3 1 -8 4q8 -18 0 -23q-12 -7 -35 -7q-15 0 -65 7q-1 13 -9 44q-7 28 -7 34q10 17 22 39q13 -2 50 -6v-11q6 0 6 3q-1 6 0 8h33q-1 -16 0 -16q4 -13 11 -45zM222 644q2 -1 2 -3 q0 -5 -7 -13q0 19 5 16zM194 539q-26 8 -26 13q0 3 15 4q14 1 14 -7q0 7 -3 -10zM161 500q-19 12 -19 16q1 1 2 1q8 8 17 22v-22q1 -4 0 -17zM191 469q0 -3 -8 -8v7q-1 5 2 5q6 0 6 -4zM117 594q-2 -5 -6 -22q-28 4 -105 11v17q2 2 11 6q13 3 36 2q37 -2 36 -2v-12 q10 2 28 0zM172 439q-20 14 -5 11q11 -2 11 -9q0 -3 -6 -2zM122 472q2 -1 2 -3q0 -5 -7 -13l-1 7q-1 6 0 8q1 3 6 1zM206 356q-7 0 -7 15q0 14 7 12v-27zM208 330q0 -3 -8 -8v7q-1 5 2 5q6 0 6 -4zM94 417l-16 5q3 31 5 22q12 6 6 7q-5 1 -11 0q5 -1 11 -1q11 1 11 -8 q0 -4 -4 -14t-2 -11zM111 406q3 -1 3 -3q0 -4 -8 -9q0 14 5 12zM208 297q0 -3 -8 -8v7q-1 5 2 5q6 0 6 -4zM583 111q-4 -11 -11 -28q-9 -27 -16 -27v-12q13 -7 16 -14q3 -9 0 -30q-5 -34 -16 -56q-12 -7 -28 -22q2 -12 0 -28q-3 -3 -14 -1t-14 1q-7 -2 -10 -14 q-4 -15 -7 -19q-24 -31 -105 -50q-1 3 -3 11q-1 4 -8 6v-28q-21 -2 -47 -6q-22 -4 -30 -4q-23 0 -57 32q-6 -1 -22 -5v-11q-9 -2 -17.5 2.5t-15.5 8.5q-50 14 -74 35q-16 13 -48 59q-10 8 -23 22q0 9 -5 28q-10 12 -22 33q-2 9 1.5 17.5t3.5 10.5l-11 11q-4 13 -2 36 q2 39 2 37q10 0 10 2q-1 1 -5 3.5t-5 27.5v278q1 1 22 11q-1 1 0 16h-16q4 40 -6 112h11q4 -10 11 -23q-2 -2 -2 -3q0 -3 13 -2l17 33q8 -1 22 0q9 -20 0 -22q-9 -1 -9 1q1 2 4 4q-20 -4 -20 -8q0 -3 20 -8q-1 -18 0 -17q4 -2 6 0q0 1 -1 5v6q5 0 26 -3t24 -2q-6 -3 -16 -11 q-10 -15 -11 -27.5t-6 -15.5q-7 -6 -39 -13q4 -7 17 -17q-1 -5 -6 -27q5 -5 16.5 -4.5t16.5 -1.5l28 -33q1 -3 -5 -23t-6 -22q3 -14 6 -39q-1 1 -4 -2t-3 -6t7 -3q-2 -26 2 -86q4 -65 3 -92q0 -4 -7 -36q-6 -28 -4 -36q7 -1 17 -5q3 -3 3 -18q0 -6 2 -10q9 -8 23 -22 q40 -55 111 -67q11 -2 33 6h50q7 7 17 16q24 14 49 28q30 20 34 39q-1 6 0 17q10 13 22 38q3 13 3 23t-3 22t-3 17q0 4 2.5 13t1.5 12q0 1 -1 2v8q1 5 1 7q-2 3 -6 2l4 188q2 122 18 195q19 -5 44 -11q4 7 8 13.5t15 8.5v12q-58 -9 -54 -9q-10 0 -19 3q-2 1 -6 7.5t-6 11.5 q0 2 1 3q3 7 11 17q10 -1 28 0l6 11q15 5 44 17q2 -4 8.5 -4t8.5 -2q2 -1 -6 -17q4 -1 11 -5v-39h-11q-1 -16 11 -28q1 -1 -11 -22q-1 -7 6 -50h-17v-17q10 -6 22 -22q2 -10 -11 -55q1 -1 11 -12q3 -15 0 -55q-2 -43 0 -61q1 -3 -2 -11.5t-3 -5.5q1 -16 0 -17q0 1 3 -12.5 t2 -20.5q0 -2 -6 -12t-5 -16l6 -6t5 -16zM200 250q-7 0 -7 15q1 15 7 13v-28zM197 236q0 -4 -8 -8v7q-1 5 2 5q6 0 6 -4zM206 217q2 -1 2 -4q0 -7 -8 -19v15q0 10 6 8zM400 -39q7 0 7 -2q0 -5 -13 -9v8q-1 3 6 3zM217 106q2 -1 2 -4t-8 -8v9q0 5 6 3zM428 739q8 11 -11 11z M533 450q0 -3 1 12q0 5 -6 5zM500 433q16 -3 16 2q0 9 -22 15q7 -3 6 -17zM522 361q5 12 5 19q0 5 -4 5q-2 0 -6 -2q4 -1 -6 -16q1 1 11 -6zM511 278q0 -2 1 11q0 5 -6 5zM111 172q0 -3 1 14q0 8 -6 8zM217 -156q-3 2 -2 7t-9 5v-12h11z" />
<glyph unicode="&#xdf;" horiz-adv-x="786" d="M607 521q-10 1 -21.5 2t-11.5 5q0 2 4 5.5t4 4.5q0 2 -1.5 3l-1.5 1h8q5 -1 20 -21zM634 461q-3 -11 -14 -27q-3 -2 -5 -3q-1 0 -1 5q1 4 0 5zM634 400q3 -1 3 -5q0 -8 -10 -22q0 9 -1 18q1 13 8 9zM735 157q0 -19 -3 -55q-4 -42 -4 -46q0 19 3 55q4 42 4 46zM728 43 q3 -2 3 -5q0 -8 -10 -22v18q0 13 7 9zM401 302q0 -4 -10 -10q0 -1 0 9q0 6 3 6q7 0 7 -5zM627 36q-8 0 -8 27t8 27v-54zM405 279q3 -1 3 -8q0 -12 -10 -39q0 51 7 47zM634 -31q-8 0 -8 16q0 19 8 17v-33zM593 319q-5 -4 -20 -7q11 -33 11 -96q0 -67 -11 -146q13 -7 13 -45 q0 -26 -6 -56q-9 -16 -20 -41v-20q6 -1 20 -7q-12 2 -34 0v-13q-13 -10 -27 -27q2 -14 0 -41q-7 3 -7 10v17q-51 -31 -97 -40q-34 -7 -105 -7q-6 74 0 121q11 2 81 7v101l4 -43q3 -34 3 -51h13q18 13 14 13q9 5 20 14q3 6 1 20q-1 17 -1 20q1 5 8 36q6 26 5 38l-13 14 q-5 17 0 88q0 2 5 33q3 26 3 42q0 56 -55 72q-26 8 -101 8q-2 -23 -4 -31v0q-5 -18 -8 45q-2 44 -2 73v34h60q47 -1 68 7q37 13 37 81q0 63 -30 87q-33 27 -135 27q3 0 -15 -3t-25 -3q5 1 -2 4t-12 2l-13 -13q-20 -8 -34 -8q3 0 -40 8q-16 3 -21 3q-1 0 -1 -1q0 -2 49 -16 q-1 -21 0 -20q-12 -8 -27 -27q-5 -16 -5 -33q0 -14 6.5 -51.5t4.5 -63.5l-6 -101q-1 -21 6 -122q2 -25 -6 -121q-2 -21 -2 -41q0 -28 5 -75t5 -73q0 -20 -2 -40q-6 -25 -13 -61q5 0 -58 -4q-39 -2 -57 4q-3 6 -13 13q-1 8 -7 21q-2 11 0 33q3 10 7 34q1 19 0 41q0 -2 4 0 t4 4q-1 2 -8 2q0 20 5 66q3 38 1 62q0 4 -8 29q-6 21 -5 39q6 37 13 121v25q0 19 7 16q6 -2 9 -2q9 0 -22 29q-3 9 6 263q17 18 14 20l-8 4l2 9.5t6 20.5q2 6 7 20l6 13l75 61q7 3 20 3t20 4q10 11 27 27h14l6 -21q7 3 21 0l20 24q14 15 26 17t27 2q57 0 123 -23 q70 -24 80 -53q-2 -12 0 -27q8 -8 25 -9t22 -5v-20q2 -7 13.5 -17.5t13.5 -16.5q4 -16 3 -47q-3 -49 -3 -47q-16 -4 -16 -6q0 -1 3 -1q18 -3 13 -34q-2 -9 -20.5 -36.5t-26.5 -30.5h-14q-4 -6 -4 -20t-2 -20q4 -4 32 -36l28 -32q10 2 27 0zM398 218q0 -82 -6 -82q-1 1 -1 8 q0 -2 7 74zM629 -49q0 -6 -9 -16q0 -1 -1 12q0 9 4 9q6 0 6 -5zM297 137q-1 -16 -2 -16q-1 54 2 70v-54zM293 100q0 -4 -10 -10l-1 9q0 5 3 5q8 0 8 -4zM600 -193q-13 0 -46 3t-21 3t38 -3t29 -3zM297 16q2 -1 2 -5q0 -7 -9 -22q0 9 -1 18q1 13 8 9zM290 -18q3 -1 3 -7 q0 -13 -10 -40v28q0 22 7 19zM292 -123q0 -6 -9 -16q0 -1 -1 12q0 9 4 9q6 0 6 -5zM405 730q20 0 20 7t-20 7v-14zM384 724q6 15 6 24q0 12 -12 9q-3 -10 -7 -27q2 2 7.5 -2zM445 623q6 14 6 22q0 11 -13 5q-2 -8 -6 -21z" />
<glyph unicode="&#xe4;" horiz-adv-x="646" d="M548 515q0 -4 -9 -9l-1 9q0 5 3 5q7 0 7 -5zM459 647v-46q-1 -33 -12 -40q-1 -1 -2 -1q0 -1 4.5 -4t3.5 -7q-18 3 -37 6q-25 3 -43 0q-1 0 -9.5 -7t-16.5 -7q-5 0 -10 2q-3 6 -13 12q3 18 7 49q-6 0 -8 21q-2 19 1 28q1 2 13 6q2 5 6 19q42 -7 49 -6q12 8 30 18 q11 -2 25 -12q1 -3 1 -6t-4 -6.5t-4 -6.5t1 -6zM484 494q-5 0 -11 1q5 1 9 -1q5 -1 -4 -6q42 3 45 5q-6 1 -39 1zM441 519q2 -1 2 -4q0 -5 -8 -15q0 -1 -1 8q-1 7 0.5 10t6.5 1zM569 304q3 -1 3 -4t-9 -8v9q0 6 6 3zM584 270q0 -4 -8 -9q0 14 2 14t4 -1t2 -4zM269 500 q-7 0 -7 17q0 16 7 14v-31zM233 598q0 -2 -13 -12q7 0 7 -9q0 -6 -3.5 -17l-3.5 -11q-10 2 -24 3.5t-25 2.5l-6 -12q-39 -2 -55 15q-13 13 -15 41t-3 54q14 0 43 6q3 9 6 19q4 1 6 1q3 0 5 -4t7 -3q2 0 5 6t7 6q41 4 49 -12q1 -1 2 -10q1 -10 -1 -10l-1 1q-1 -19 0 -18 q5 -11 13 -25v-12zM582 96q-8 0 -8 17q0 16 8 14v-31zM576 84q2 -1 2 -3q0 -6 -9 -15v12q0 9 7 6zM576 41q0 -8 -1.5 -30.5t-3.5 -32.5q-1 -13 -2 2q0 4 7 61zM361 200l11 -1q-12 -1 -17 -1q-15 1 -28 1.5t-3 0.5h37zM576 -57q2 -1 2 -4q0 -7 -9 -20v16q0 11 7 8zM539 -94 h-37q4 -32 4 -52t-4 -52q-62 -7 -83 -7q-30 0 -39 7v19q-5 4 -13 12q-10 0 -30 -6q-6 -9 -19 -19q-12 1 -36 0q-13 -9 -31 -18q-18 -3 -45 -0.5t-47 0.5l-6 18q-6 1 -17 -3t-17 -4q-5 0 -9 1l-6 12q-35 14 -56 37q-15 16 -36 55l-12 6q-11 29 -11 65q0 38 11 70q8 25 25 42 q27 28 30 32q2 10 12 24q3 1 98 25q11 1 31 -3t24 -4t17 9.5t14 9.5q7 0 25 -9.5t24 -9.5l6 13q13 5 33 5q28 0 34 1q8 33 8 56q0 77 -105 91q-4 0 -13.5 -3t-5.5 -3q-83 0 -98 -6q-7 -8 -18 -19q-10 -2 -37 -12q-22 18 -30 25q-20 18 -25 30q-1 13 -6 43q25 18 55 37 q17 0 49 6l6 12q6 2 18.5 0.5t18.5 -0.5q4 3 9 7.5t9 4.5q4 1 14 -5.5t11 -6.5q32 1 79 0l19 -12q9 -1 19 3t17 3l6 -12q21 -3 62 -19q8 -13 24 -30h12q3 -5 3.5 -16t3.5 -15l12 -6q2 -5 -2 -11.5l-4 -6.5q6 -4 10 -17.5t8 -25.5l6 -43q0 -2 -7 -21q-5 -12 -5 -22v-12 q5 4 6 -31v-233q25 -2 37 -6zM355 635v9q-3 2 -6 3q-7 -1 -5 -6q1 -5 11 -6zM386 -2q-4 17 -6 37.5t-7 36.5q-4 1 -9 0q-1 -1 -3 6q-11 -3 -23 -5.5t-26 -0.5q-1 0 -12.5 6.5t-17.5 5.5t-11 -11q-7 -13 -8 -14q-6 3 -6 4q1 5 0 9q-49 2 -79 -6v-19q-7 -1 -7 6q0 14 0 13 q-9 0 -30 -7q-6 -11 -19 -24h-12q-14 -20 -14 -39q0 -40 50 -70q46 -29 101 -29q15 0 29 3q9 2 9 10q0 9 -9 9q-3 0 31 -2q20 -1 31.5 2.5t24.5 27.5q8 20 17 39q-13 3 -19 6zM184 41q2 -1 2 -4q0 -5 -8 -14q0 -1 -1 8q-1 6 0.5 9t6.5 1zM192 13q0 -4 -8 -9l-1 8q0 6 3 6 q2 0 4 -1t2 -4z" />
<glyph unicode="&#xf6;" horiz-adv-x="612" d="M465 641q2 -9 2 -20q0 -16 -6 -39q-8 -32 -8 -33q-15 2 -73 0q-8 11 -13 25q-2 6 -6 12q-4 -3 -7.5 -5.5t-10.5 -0.5q-1 0 -5 5.5t-7 6.5q0 33 1 66q3 27 35 32q17 3 44 -1q18 -3 36 -5v-25q8 -7 18 -18zM361 555q-8 -5 -18 -18q0 -1 -1 12q-1 9 0.5 14.5t6.5 4.5 q1 4 3 4q4 0 9 -17zM343 525q3 -1 3 -4q0 -5 -9 -15q0 -1 -1 8q0 7 1 10t6 1zM245 531q-8 0 -7 16q0 16 7 14v-30zM233 568q-14 -11 -43 -25q-13 -2 -43 6l-12 -6q-21 7 -21 47q0 32 15 88h42q1 0 8.5 6t10.5 6q44 -1 44 -84q0 1 -1 -38zM263 519q10 -2 10 -8q0 -5 -16 -5 q1 2 0 6.5t0 5.5t6 1zM82 571q0 -5 -9 -10v9q0 5 3 5q2 0 4 -1t2 -3zM551 72l-12 -31q1 -21 -6 -61q-9 -8 -19 -19q0 -14 -6 -42q-8 -5 -18 -13q-80 -105 -172 -116q-43 -5 -91 6q-9 8 -25 18q-16 0 -49 7q-15 6 -44 35t-36 44q0 11 -6 31l-24 6q-4 30 -19 92q-8 10 -18 24 v19q3 1 12 -13q6 56 6 55q0 3 -6.5 20t-5.5 23q0 2 6 11.5t6 19.5q0 3 -3.5 9t-2.5 15l13 7q3 7 0.5 24.5t-0.5 24.5q9 8 18 18q0 13 6 37q6 11 30 28t31 27q4 13 13 30q5 4 18 4t18 2q3 6 6 13q4 3 40 13.5t40 10.5q16 1 59 -3q47 -4 63 -9q8 -2 24 -17t25 -15t25 -5 q9 -16 24 -36q9 -2 19 -7q3 -4 2.5 -14.5t3.5 -15.5q11 -5 24 -19q-1 -8 0 -24l13 -6q8 -29 8 -58q0 -12 -1.5 -34.5t-1.5 -35.5t1 -25q0 -5 6.5 -23.5t5.5 -31.5zM12 274q2 -1 2 -5q0 -7 -8 -20v16q0 12 6 9zM0 170q-8 0 -8 16q1 16 8 14v-30zM0 102q-8 0 -8 17q1 16 8 14 v-31zM429 66q1 5 1 14q0 19 -6 59q-8 48 -8 49q3 20 0 55q-1 6 -12.5 15t-11.5 10q-5 7 -7.5 21.5t-4.5 20.5q-17 1 -64 11q-41 9 -61 9q-9 0 -16 -1t-30.5 -16t-24.5 -21v-12q-8 2 -19 0q0 -10 -6 -31q0 -1 -9 -6t-9 -6q-6 -19 6 -80q-12 -39 -12 -107q0 -36 6 -58 q0 -1 8.5 -6t9.5 -6q25 -33 68 -49l6 -12q10 -2 16.5 2.5t13.5 3.5l13 -13q20 -4 55 7q8 9 24 24q4 3 12 3t12.5 3t4.5 9.5t2 9.5q13 13 30 36q3 8 1 25t-1 24zM406 252q0 -4 -8 -9l-1 8q0 5 3 5q6 0 6 -4zM404 176q-1 -10 -1 -15v31q1 35 1 33v-49zM413 142q0 -4 -9 -9v8 q-1 5 2 5q7 0 7 -4zM306 261q2 -1 2 -6q0 -10 -8 -30q0 39 6 36zM314 209q0 -6 -8 -15v11q-1 8 3 8q1 0 3 -1t2 -3zM404 121q2 -2 2 -7q0 -10 -8 -30q0 40 6 37zM312 170q2 -1 2 -4q0 -6 -8 -15v13q0 9 6 6zM321 136q0 -4 -9 -9v8q-1 5 2 5q7 0 7 -4zM380 35q2 -1 2 -3 q0 -6 -9 -15v12q0 9 7 6zM306 108q2 -1 2 -4q0 -7 -8 -20v16q0 12 6 8z" />
<glyph unicode="&#xfc;" horiz-adv-x="595" d="M442 641h-18q9 -28 12 -74q-76 -10 -73 -10q-22 0 -56 16v49q15 9 15 12q0 1 -4 2.5t-5 4.5v12q3 1 6 1q4 0 13 -7q0 2 6 21.5t6 21.5q9 1 25 0q4 -1 4 -10q0 -8 -4 -8q10 4 10.5 10.5t1.5 7.5h49q4 -14 12 -49zM385 464v0v0q-2 -8 -2 -15q0 10 0 3q0 12 -2 35q1 1 12 6 q0 -2 3.5 -6t3.5 -5q0 -4 -6.5 -9.5t-8.5 -8.5zM240 622q2 -1 2 -6q0 -10 -8 -30q0 39 6 36zM209 561q-8 -6 -18 -12q-13 -3 -49 0q-39 2 -56 0q1 17 -12 104h18l-1 7.5t-5 7.5q-2 0 -6 -3l-2.5 6t-2.5 10q0 8 11 9q12 1 21 -5.5t10 -6.5q10 -2 17 0.5t13 5.5l7 -25 q-6 -3 -19 -18h19q2 8 6 9q11 2 12 3q-7 4 -4 16q2 7 4 15q39 -29 39 -60q0 -4 -1 -27q-2 -19 -1 -36zM396 348q0 -4 -9 -8v8q-1 5 2 5q7 0 7 -5zM395 317q0 -5 -8 -14v11q-1 8 3 8q5 0 5 -5zM381 247q-8 0 -7 17q0 16 7 14v-31zM172 432q-7 0 -7 25q0 24 7 24v-49zM141 481 l-12 -18q-7 -1 -7 11q0 13 7 13q-3 -2 -3 -3q0 -3 15 -3zM123 493q-12 -3 -31 -6v-18q-5 -1 -7 4q-1 6 1 12.5t6 7.5h31zM178 420q3 -1 3 -4q0 -5 -9 -15q0 7 -1 13q0 9 7 6zM175 386q0 -4 -9 -9v8q-1 5 2 5q7 0 7 -4zM381 168q3 -1 3 -5q0 -7 -9 -20q0 -2 -1 10q0 8 1 12.5 t6 2.5zM178 315q-7 0 -7 25q0 24 7 24v-49zM184 266q0 -70 -5 -70q-1 1 -1 8q-1 11 2.5 35.5t3.5 26.5zM529 -66q1 -22 -19 -129q-1 0 -54 3q-31 1 -57 -3q0 13 -6 37q-2 3 -12.5 3.5t-11.5 2.5q-25 -16 -49 -31q-32 -20 -56 -24q-16 -3 -32 -3q-55 0 -111 28q-49 25 -72 55 q-6 8 -10 22t-8 21q-9 6 -19 18q1 15 0 43q-16 139 -12 203q0 1 6 21t6 22q2 13 -4 37q-7 29 -8 37q-5 65 6 104l12 12q2 11 -2 17.5t-4 13.5q12 -1 25.5 0.5t14.5 1.5q12 0 9 -26q0 2 3 -4q3 -4 -3 -9q14 8 14 11q0 1 -1 2q2 7 6 18t6 18v-30h6v18h25q2 -15 6 -160 q0 -3 3.5 -24.5t3.5 -33.5q0 -9 -1 -15q0 -1 -7 -9.5t-5 -21.5q0 -3 9 -13.5t9 -11.5q4 -19 4 -40q0 -16 -3 -44.5t-3 -41.5q0 -26 8 -46q3 -5 30 -32t32 -29q20 -9 52 -9q62 0 89 21q5 12 19 31q11 2 24 12q3 7 1 24q-2 19 -1 25l12 6q0 21 -4 57.5t-4 54.5q0 16 2 30 l13 12q4 17 0 80q0 6 -7 37q-7 28 -6 37l13 24q2 16 -7 74q6 5 25 6q-3 -5 -6 -12q28 -6 31 -6l12 18q19 -3 49 -6q-2 -6 3 -11t3 -7q-3 -3 -18 -31q3 -1 24 -6q4 -14 3 -43q-3 -46 -3 -43q-8 0 -18 -6q-1 -2 -1 -10t2.5 -9t16.5 -6q0 -142 -6 -270q-2 -43 0 -50zM258 88 q6 0 -6 -6q23 2 36 3.5t7 2.5q-7 1 -37 0zM184 174q2 -1 2 -4q0 -6 -8 -15v13q0 9 6 6zM283 -11q-12 0 -39.5 3.5t-16.5 3.5q6 0 56 -7zM393 616q6 7 6 10q0 6 -12 3q-3 -1 -3 -3q0 -4 9 -10z" />
<glyph unicode="&#x2000;" horiz-adv-x="453" />
<glyph unicode="&#x2001;" horiz-adv-x="907" />
<glyph unicode="&#x2002;" horiz-adv-x="453" />
<glyph unicode="&#x2003;" horiz-adv-x="907" />
<glyph unicode="&#x2004;" horiz-adv-x="302" />
<glyph unicode="&#x2005;" horiz-adv-x="226" />
<glyph unicode="&#x2006;" horiz-adv-x="151" />
<glyph unicode="&#x2007;" horiz-adv-x="151" />
<glyph unicode="&#x2008;" horiz-adv-x="113" />
<glyph unicode="&#x2009;" horiz-adv-x="181" />
<glyph unicode="&#x200a;" horiz-adv-x="50" />
<glyph unicode="&#x2010;" d="M665 422q2 -1 2 -3q0 -5 -7 -12v10q0 7 5 5zM595 447q-13 14 0 10q3 0 5 -3t1 -6q-1 -2 -6 -1zM520 467q17 -1 -6 -1q-19 -1 -44 0q-26 1 -15 1q43 2 65 0zM375 462q2 -1 3 -3q0 -3 -8 -7v8t5 2zM635 317q-43 -1 -65 0h-275q1 7 -2 12.5t-3 7.5q7 8 15 20q-9 14 -30 40 q10 6 20 15q23 1 60 0q4 0 26 -7.5t29 -7.5q8 5 30 10q33 -1 80 0v-10q11 -1 41.5 2t43.5 3q2 -4 6 -8.5t17 -24.5q15 -24 15 -38q0 -10 -8 -14zM565 397h-15l5 -20q8 2 8.5 8t1.5 12z" />
<glyph unicode="&#x2011;" d="M665 422q2 -1 2 -3q0 -5 -7 -12v10q0 7 5 5zM595 447q-13 14 0 10q3 0 5 -3t1 -6q-1 -2 -6 -1zM520 467q17 -1 -6 -1q-19 -1 -44 0q-26 1 -15 1q43 2 65 0zM375 462q2 -1 3 -3q0 -3 -8 -7v8t5 2zM635 317q-43 -1 -65 0h-275q1 7 -2 12.5t-3 7.5q7 8 15 20q-9 14 -30 40 q10 6 20 15q23 1 60 0q4 0 26 -7.5t29 -7.5q8 5 30 10q33 -1 80 0v-10q11 -1 41.5 2t43.5 3q2 -4 6 -8.5t17 -24.5q15 -24 15 -38q0 -10 -8 -14zM565 397h-15l5 -20q8 2 8.5 8t1.5 12z" />
<glyph unicode="&#x2012;" d="M665 422q2 -1 2 -3q0 -5 -7 -12v10q0 7 5 5zM595 447q-13 14 0 10q3 0 5 -3t1 -6q-1 -2 -6 -1zM520 467q17 -1 -6 -1q-19 -1 -44 0q-26 1 -15 1q43 2 65 0zM375 462q2 -1 3 -3q0 -3 -8 -7v8t5 2zM635 317q-43 -1 -65 0h-275q1 7 -2 12.5t-3 7.5q7 8 15 20q-9 14 -30 40 q10 6 20 15q23 1 60 0q4 0 26 -7.5t29 -7.5q8 5 30 10q33 -1 80 0v-10q11 -1 41.5 2t43.5 3q2 -4 6 -8.5t17 -24.5q15 -24 15 -38q0 -10 -8 -14zM565 397h-15l5 -20q8 2 8.5 8t1.5 12z" />
<glyph unicode="&#x2013;" horiz-adv-x="848" d="M772 422q3 -1 3 -3q0 -5 -9 -12v10q0 7 6 5zM683 447q-16 14 0 10q4 0 6.5 -3t1.5 -6q-1 -2 -8 -1zM588 467q21 -1 -8 -1q-24 -1 -56 0q-33 1 -19 1q54 2 83 0zM403 462q2 -1 3 -3q0 -3 -10 -7v8t7 2zM734 317q-55 -1 -83 0h-350q1 7 -3 12.5t-4 7.5q9 8 19 20 q-11 14 -38 40q13 6 26 15q29 1 76 0q5 0 33 -7.5t37 -7.5q10 5 38 10q43 -1 103 0v-10q14 -1 52.5 2t55.5 3q2 -4 7.5 -8.5t21.5 -24.5q19 -24 19 -38q0 -10 -10 -14zM645 397h-19l6 -20q10 2 11 8z" />
<glyph unicode="&#x2014;" horiz-adv-x="1348" d="M1270 422q5 -1 5 -3q0 -5 -18 -12v10q0 7 13 5zM1091 447q-33 14 0 10q8 0 13 -3t3 -6q-3 -2 -16 -1zM900 467q43 -1 -15 -1q-49 -1 -113 0q-66 1 -38 1q110 2 166 0zM530 462q5 -1 8 -3q0 -3 -21 -7v8t13 2zM1193 317q-109 -1 -165 0h-702q3 7 -5 12.5t-8 7.5 q18 8 39 20q-23 14 -77 40q26 6 51 15q59 1 153 0q10 0 66.5 -7.5t73.5 -7.5q21 5 77 10q84 -1 204 0v-10q28 -1 106 2t111 3q5 -4 15 -8.5t44 -24.5q38 -24 38 -38q0 -10 -21 -14zM1015 397h-38l12 -20q21 2 22 8t4 12z" />
<glyph unicode="&#x201c;" horiz-adv-x="306" d="M209 851q-5 0 -10.5 12.5t-5.5 20.5q0 4 2 4q4 -13 14 -37zM215 809q-10 25 -10 30q0 3 3 2q6 -3 7 -32zM88 902q8 -4 -1 -10q0 1 -2 5t-1 5q0 2 4 0zM230 716q-5 -4 -17 -4q-21 -1 -23 -1q5 -1 -6 -3l-11 -2q-5 4 -13 10q-9 12 -15 42q-9 38 -12 46q2 2 7 5l6.5 2 t10.5 2q-3 4 -19 14q-1 14 5 38q2 2 7 2.5t6 1.5l26 -9q16 -42 24 -79q5 0 16 -5h-14q13 -40 13 -38q0 -6 -5 -8q-1 0 7 -6.5t7 -7.5zM99 860q15 -45 15 -52v-1q-11 0 -14 24q-1 15 -1 29zM39 897q7 -3 -2 -9q0 1 -1.5 4.5t-1.5 4.5q1 2 5 0zM55 879q7 -4 -2 -10q0 1 -2 5 t-1 5q0 2 5 0zM105 716q-26 -14 -33 -14q-11 4 -31 9q-20 45 -43 107q6 3 15 9q1 1 1 3q0 7 -20 11q-3 10 -10 28q2 0 19 6q14 4 19 4q9 -2 25 -5q23 -91 58 -158z" />
<glyph unicode="&#x201e;" horiz-adv-x="364" d="M286 -74q-8 -21 -13 -37q-2 0 -2 4q0 8 5.5 20.5t9.5 12.5zM189 -60q1 -1 1 -2q0 -3 -9 -7q1 4 2.5 7.5t5.5 1.5zM265 -120q5 -4 -17 -33q4 10 7 20q6 15 10 13zM136 -65q1 -1 1 -2q0 -3 -9 -7q1 4 2.5 7.5t5.5 1.5zM139 -83q1 -1 1 -2q0 -3 -9 -8q1 4 2.5 8.5t5.5 1.5z M169 -102q-17 -52 -22 -52h-1q0 6 10 25q12 23 13 27zM253 -102q-19 -51 -34 -79q5 -1 13 -5h-14q-5 -14 -10.5 -28t-15.5 -18q4 -7 4 -14l-44 -5q7 -2 -20 -4q-3 4 -6 9q1 12 15 42q19 39 22 46q1 1 10 4.5t21 5.5q0 3 -9 14q9 14 32 37q6 0 16 4zM128 -88 q-42 -88 -58 -158q-34 -14 -42 -14q-1 0 -11 4t-14 5q11 34 35 107q26 13 26 15q0 5 -13 9q0 4 5 13.5t5 13.5q41 10 45 10q6 0 22 -5z" />
<glyph unicode="&#x202f;" horiz-adv-x="181" />
<glyph unicode="&#x205f;" horiz-adv-x="226" />
<glyph unicode="&#xe000;" horiz-adv-x="495" d="M0 495h495v-495h-495v495z" />
</font>
</defs>
</svg>
