<?xml version="1.0" standalone="no"?>
<!DOCTYPE svg PUBLIC "-//W3C//DTD SVG 1.1//EN" "http://www.w3.org/Graphics/SVG/1.1/DTD/svg11.dtd" >
<svg xmlns="http://www.w3.org/2000/svg">
<metadata></metadata>
<defs>
<font id="blackoutmidnight" horiz-adv-x="522" >
<font-face units-per-em="1000" ascent="800" descent="-200" />
<missing-glyph horiz-adv-x="500" />
<glyph horiz-adv-x="1000" />
<glyph horiz-adv-x="1000" />
<glyph unicode="&#xd;" horiz-adv-x="500" />
<glyph horiz-adv-x="500" />
<glyph unicode=" "  horiz-adv-x="500" />
<glyph unicode="&#x09;" horiz-adv-x="500" />
<glyph unicode="&#xa0;" horiz-adv-x="500" />
<glyph unicode="!" horiz-adv-x="235" d="M171 0h-167v168h167v-168v0zM171 744v-517h-168v517h168v0z" />
<glyph unicode="$" horiz-adv-x="454" d="M201 462q41 0 77.5 -16t63.5 -43t43 -63.5t16 -77.5q0 -58 -29 -104.5t-77 -72.5v-85h-168v76q-28 11 -51 29.5t-39.5 43t-26 53.5t-9.5 60h166q0 -14 10 -24t24 -10t24 10t10 24q0 13 -8 22t-20 11h-6q-41 0 -77.5 16t-63.5 43t-43 63.5t-16 77.5q0 64 35 114t91 73v67 h168v-76q48 -26 77 -73t29 -105h-166q0 14 -10 24.5t-24 10.5t-24 -10.5t-10 -24.5q0 -12 8 -21.5t20 -11.5h6v0z" />
<glyph unicode="%" horiz-adv-x="757" d="M649 744l-437 -744h-168l437 744h168zM242 501q0 -25 -9.5 -47t-26 -38.5t-38 -26t-46.5 -9.5t-47 9.5t-38.5 26t-26 38.5t-9.5 47t9.5 47t26 38.5t38.5 26t47 9.5t46.5 -9.5t38 -26t26 -38.5t9.5 -47zM713 257q0 -25 -9.5 -47t-26 -38.5t-38.5 -26t-47 -9.5t-47 9.5 t-38.5 26t-26 38.5t-9.5 47t9.5 46.5t26 38t38.5 26t47 9.5t47 -9.5t38.5 -26t26 -38t9.5 -46.5z" />
<glyph unicode="&#x26;" horiz-adv-x="701" d="M539 192l92 -93l-103 -103l-91 91q-35 -40 -83 -63.5t-105 -23.5q-51 0 -96.5 19.5t-79.5 53t-53.5 79t-19.5 96.5q0 65 30 119t80 87q-17 23 -26 49.5t-9 56.5q0 36 13.5 67.5t37.5 55t55.5 37t67.5 13.5t67.5 -13.5t55 -37t37 -55t13.5 -67.5q0 -51 -26.5 -92.5 t-69.5 -62.5l113 -114l98 97l99 -100z" />
<glyph unicode="'" horiz-adv-x="237" d="M-1 744h167v-168l-53 -93h-102l53 93h-65v168v0z" />
<glyph unicode="*" horiz-adv-x="437" d="M378 612l-99 -27l70 -70l-77 -78l-92 92l-93 -94l-78 77l73 73l-100 27l28 106l114 -30v104h110v-105l116 31l28 -106v0z" />
<glyph unicode="+" horiz-adv-x="588" d="M518 468v-168h-175v-175h-168v175h-175v168h175v174h168v-174h175v0z" />
<glyph unicode="," horiz-adv-x="233" d="M1 168h167v-168l-53 -93h-103l53 93h-64v168v0z" />
<glyph unicode="-" horiz-adv-x="586" d="M517 301h-517v168h517v-168v0z" />
<glyph unicode="." horiz-adv-x="229" d="M167 0h-167v168h167v-168v0z" />
<glyph unicode="0" horiz-adv-x="507" d="M458 229l1 -1h-1q0 -47 -18 -88.5t-49 -72.5t-72.5 -49t-88.5 -18q-46 0 -88 18t-73.5 48.5t-50 70t-18.5 81.5v297q0 47 18 89t49.5 73t73 49t89.5 18q47 0 88.5 -18t72.5 -49t49 -73t18 -89v-1h1h-1q0 -6 0.5 -12.5t0.5 -11.5v-237q0 -5 -0.5 -11t-0.5 -12v-1v0z" />
<glyph unicode="1" horiz-adv-x="328" d="M101 744h168v-744h-168v500l-27 -28l-119 119l146 153v0v0v0v0v0z" />
<glyph unicode="2" horiz-adv-x="511" d="M220 168h231v-168h-447v168l272 314q9 14 9 32q0 8 -2 18q-6 19 -22.5 31.5t-37.5 12.5q-26 0 -44 -18t-18 -44h-168q0 47 18 89t49.5 73.5t73.5 49.5t89 18q39 0 74 -12t64 -33.5t50 -51.5t32 -65q10 -31 10 -68q0 -48 -17.5 -87t-49.5 -73z" />
<glyph unicode="3" horiz-adv-x="504" d="M460 231q0 -38 -10 -69q-11 -35 -32 -65t-50 -51.5t-64 -33.5t-74 -12q-48 0 -89.5 18t-73 49.5t-49.5 73.5t-18 90h168q0 -26 18 -44.5t44 -18.5q21 0 37 12.5t22 31.5q3 8 3 18q0 26 -18 42t-44 16h-106v168h106q26 0 44 16t18 42q0 11 -3 18q-6 19 -22 31.5t-37 12.5 q-26 0 -44 -18t-18 -44h-168q0 47 18 89t49.5 73.5t73 49.5t89.5 18q39 0 74 -12t64 -33.5t50 -51.5t32 -65q10 -31 10 -68q0 -41 -13.5 -77t-37.5 -65q24 -29 37.5 -64.5t13.5 -76.5z" />
<glyph unicode="4" horiz-adv-x="540" d="M495 456v-168h-90v-288h-168v288h-245v168v0l245 286v2h168v-288h90v0z" />
<glyph unicode="5" horiz-adv-x="509" d="M168 574v-65q15 4 30 6t32 2q55 0 97.5 -17.5t72 -45.5t45 -64t15.5 -72v-28v-3v-57q0 -48 -18 -90t-49.5 -73.5t-73.5 -49.5t-89 -18q-48 0 -89.5 18t-73 49.5t-49.5 73.5t-18 90h168q0 -26 18 -44.5t44 -18.5t46 18.5t20 44.5v57q0 24 -17.5 43t-48.5 19q-26 0 -44 -18 t-18 -44h-168v287h-1v168h447v-168h-278z" />
<glyph unicode="6" horiz-adv-x="511" d="M461 229q0 -48 -18.5 -89.5t-49.5 -73t-73 -49.5t-89 -18t-89 17.5t-73.5 48t-50 71t-18.5 86.5v306q0 44 19 83.5t50.5 69.5t73.5 48t88 18q47 0 89 -18t73.5 -49.5t49.5 -73.5t18 -90h-168q0 26 -18 44.5t-44 18.5t-44 -18.5t-18 -44.5h-1v-66q30 9 63 9q47 0 89 -18 t73 -49t49.5 -73t18.5 -89v-1z" />
<glyph unicode="7" horiz-adv-x="520" d="M405 744h69v-168l-311 -576h-168l310 576h-304v168h394v0h10v0v0z" />
<glyph unicode="8" horiz-adv-x="505" d="M460 229q0 -47 -18.5 -89t-49.5 -73t-73 -49t-89 -18t-89 18t-73 49t-49.5 73t-18.5 89v1q0 42 14 77.5t38 64.5q-24 29 -38 64.5t-14 77.5v1q0 47 18.5 89t49.5 73t73 49t89 18t89 -18t73 -49t49.5 -73t18.5 -89v-1q0 -42 -14 -77.5t-38 -64.5q24 -29 38 -64.5t14 -77.5 v-1z" />
<glyph unicode="9" horiz-adv-x="511" d="M1 517q0 48 18 89.5t49.5 73t73 49.5t89.5 18q47 0 88.5 -17.5t73 -48t50 -71t18.5 -86.5v-306q0 -43 -18.5 -83t-50 -70t-73.5 -48t-88 -18q-48 0 -89.5 18t-73 49.5t-49.5 73.5t-18 90h168q0 -26 18 -44.5t44 -18.5t44 18.5t18 44.5v66q-30 -9 -62 -9q-48 0 -89.5 18 t-73 49t-49.5 73t-18 89v1z" />
<glyph unicode=":" horiz-adv-x="262" d="M0 132v168h167v-168h-167v0zM0 633h167v-168h-167v168v0z" />
<glyph unicode=";" horiz-adv-x="245" d="M0 134v168h166v-168l-53 -93h-102l53 93h-64v0zM0 635h166v-168h-166v168v0z" />
<glyph unicode="=" horiz-adv-x="598" d="M517 482h-517v168h517v-168v0zM517 134h-517v168h517v-168v0z" />
<glyph unicode="?" horiz-adv-x="505" d="M92 168h167v-168h-167v168zM229 743q48 0 89.5 -18.5t73 -50t49.5 -73t18 -89.5q0 -45 -15 -78.5t-37 -59t-48 -43.5t-49 -32q-13 -9 -26.5 -15.5t-19.5 -16.5q-3 -5 -4 -11l-2 -12q-1 -7 0 -14h-166v30q0 37 13 65t32.5 49.5t42.5 37t42 27.5q20 13 33.5 22.5t21.5 18 t11.5 16t3.5 16.5q0 26 -18.5 45t-44.5 19q-30 0 -51 -19t-21 -45h-166q0 48 19 89.5t51 73t75 50t92 18.5h1v0z" />
<glyph unicode="@" horiz-adv-x="781" d="M371 526q32 0 60.5 -12.5t49.5 -33.5t33 -49t12 -60v-8q2 -11 6.5 -16t6.5 -5v-175q-36 0 -69 14t-59 40q-10 -2 -19.5 -3.5t-20.5 -1.5q-32 0 -60 12.5t-49 33.5t-33 49t-12 60t12 60t33 49t49 33.5t60 12.5zM295 191q65 -28 133 -8l132 -132q-44 -26 -91.5 -38.5 t-97.5 -12.5q-36 0 -71 7t-67 20q-2 0 -4 2h-2q-65 27 -118 80q-5 5 -9.5 10.5t-9.5 10.5q-42 48 -65.5 110t-23.5 131q0 77 29 144.5t79.5 118t118 79.5t143.5 29q77 0 144.5 -29t118 -79.5t80 -118t29.5 -144.5h-176q0 41 -15.5 76.5t-42 62t-62 42t-76.5 15.5 q-40 0 -76 -15.5t-62.5 -42t-42 -62t-15.5 -76.5q0 -60 32 -107.5t83 -70.5q1 -1 2 -1t1.5 -0.5t1.5 -0.5zM743 371q0 -42 -16 -79.5t-44 -65t-65 -43.5t-79 -16v175q12 0 20 8.5t8 20.5h176z" />
<glyph unicode="A" horiz-adv-x="722" d="M490 0l-100 288h-138l-100 -288h-181l258 744h184l258 -744h-181v0z" />
<glyph unicode="B" horiz-adv-x="495" d="M324 371q48 -25 77 -71.5t29 -103.5q0 -41 -15.5 -77t-42 -62.5t-62.5 -42t-77 -15.5h-5h-228v744h228h5q41 0 77 -15.5t62.5 -42t42 -62.5t15.5 -77q0 -57 -29 -103.5t-77 -71.5z" />
<glyph unicode="C" horiz-adv-x="623" d="M278 167q25 0 46.5 10.5t38 28.5t26 42t9.5 51h168q0 -60 -21 -114t-62 -97t-93.5 -66t-111.5 -23h-1q-59 0 -111 23t-94 66q-39 42 -60.5 94.5t-22.5 110.5v154q1 60 22 113t61 95q42 43 94 66t111 23h1q59 0 111.5 -23t93.5 -66t62 -97t21 -114h-168q0 27 -9.5 51 t-26 42t-38 28.5t-46.5 10.5t-47 -10.5t-38.5 -28.5t-26 -42t-9.5 -51v-145q0 -27 9.5 -51t26 -42t38.5 -28.5t47 -10.5z" />
<glyph unicode="D" horiz-adv-x="581" d="M526 372q0 -75 -28 -142.5t-82 -121.5q-50 -49 -112.5 -76.5t-131.5 -31.5h-22h-150v744h150q75 0 143.5 -27.5t122.5 -80.5q54 -54 82 -121.5t28 -142.5z" />
<glyph unicode="E" d="M456 576h-288v-120h212v-168h-212v-120h288v-168h-456v744h456v-168v0z" />
<glyph unicode="F" d="M457 576h-288v-120h212v-168h-212v-288h-168v744h456v-168v0z" />
<glyph unicode="G" horiz-adv-x="650" d="M569 299v-10t-1 -10v-279h-155v38q-30 -18 -63.5 -28.5t-68.5 -10.5h-1q-59 0 -111.5 23t-93.5 66q-39 42 -60.5 94.5t-22.5 110.5v154q0 60 21.5 113t61.5 95q41 43 93.5 66t111.5 23h1q58 0 110.5 -23t94.5 -66q40 -43 61.5 -97t21.5 -114h-168q0 27 -9.5 51t-26 42 t-38.5 28.5t-47 10.5t-46.5 -10.5t-38 -28.5t-26 -42t-9.5 -51v-145q0 -27 9.5 -51t26 -42t38 -28.5t46.5 -10.5q29 0 52.5 13t40.5 35h-94v155h290v-71z" />
<glyph unicode="H" horiz-adv-x="614" d="M367 744h168v-744h-168v288h-199v-288h-168v744h168v-288h199v288v0z" />
<glyph unicode="I" horiz-adv-x="239" d="M168 744v-744h-168v744h168v0z" />
<glyph unicode="J" horiz-adv-x="530" d="M461 227q-1 -47 -19.5 -88.5t-49.5 -72t-73 -48.5t-89 -18q-48 0 -89.5 18t-73 49.5t-49.5 73.5t-18 90h168q0 -26 18 -44.5t44 -18.5t44.5 18.5t18.5 44.5v513h168v-517z" />
<glyph unicode="K" horiz-adv-x="561" d="M527 744l-317 -373l316 -371h-168l-190 211v-211h-168v744h168v-213l191 213h168v0z" />
<glyph unicode="L" horiz-adv-x="431" d="M168 168h199v-168h-367v744h168v-576v0z" />
<glyph unicode="M" horiz-adv-x="761" d="M689 744v0v-744h-168v260l-91 -260h-168l-93 268v-268h-168v744h171l174 -502l175 502v0h168v0z" />
<glyph unicode="N" horiz-adv-x="604" d="M381 744h168v-744h-170l-210 416v-416h-168v744h171l209 -415v415v0z" />
<glyph unicode="O" horiz-adv-x="639" d="M576 296q-1 -59 -22 -112t-61 -95q-41 -44 -93.5 -67t-111.5 -23h-1q-58 0 -110.5 23t-94.5 66q-39 42 -60.5 95t-22.5 113v174q5 53 26.5 100t56.5 85q42 43 94 66t111 23h1q59 0 111.5 -23t93.5 -66q36 -38 57 -85t26 -100v-22v-92v-60v0z" />
<glyph unicode="P" horiz-adv-x="497" d="M227 744q48 0 90 -18t73.5 -49.5t49.5 -73.5t18 -90t-18 -90t-49.5 -73.5t-73.5 -49.5t-90 -18h-1h-58v-282h-168v744h226h1v0z" />
<glyph unicode="Q" horiz-adv-x="639" d="M438 42q-69 -43 -149 -43h-1q-59 0 -111.5 23t-93.5 66q-40 42 -61.5 95t-21.5 113v174q4 53 25.5 100t57.5 85q41 43 93.5 66t111.5 23h1q58 0 110.5 -23t94.5 -66q35 -38 56.5 -85t26.5 -100v-22v-92v-60q-2 -68 -28 -125l92 -171h-180z" />
<glyph unicode="R" d="M300 0l-130 282h-2v-282h-168v744h226h1q48 0 90.5 -18t74 -49.5t49.5 -73.5t18 -90q0 -68 -35 -122.5t-92 -83.5l141 -307h-173z" />
<glyph unicode="S" d="M460 231q0 -18 -2.5 -35t-7.5 -34q-11 -35 -32 -65t-50 -51.5t-64 -33.5t-74 -12q-48 0 -89.5 18t-73 49.5t-49.5 73.5t-18 90h168q0 -26 18 -44.5t44 -18.5q21 0 37 12.5t22 31.5q3 8 3 18q0 26 -18 42t-44 16q-48 0 -89.5 17.5t-73 48t-49.5 71.5t-18 89q0 17 2.5 34 t7.5 34q11 35 32 65t50 51.5t64 33.5t74 12q48 0 89.5 -18t73 -49.5t49.5 -73.5t18 -89h-168q0 26 -18 44t-44 18q-21 0 -37 -12.5t-22 -31.5q-3 -7 -3 -18q0 -26 18 -42t44 -16q48 0 89.5 -17.5t73 -48t49.5 -71.5t18 -88z" />
<glyph unicode="T" horiz-adv-x="551" d="M497 744v-168h-169v-576h-168v576h-169v168h506v0z" />
<glyph unicode="U" horiz-adv-x="637" d="M578 297q-1 -59 -22 -112t-61 -95q-41 -44 -93.5 -67t-111.5 -23h-1q-58 0 -110.5 23t-94.5 67q-39 42 -60.5 95t-22.5 112v448h168v-445q0 -27 9.5 -51t26 -42t38.5 -28.5t47 -10.5t46.5 10.5t38 28.5t26 42t9.5 51v445h168v-448z" />
<glyph unicode="V" horiz-adv-x="722" d="M525 744h168l-259 -744h-170l-259 744h168l176 -506l176 506v0z" />
<glyph unicode="W" horiz-adv-x="963" d="M734 744h168l-181 -744h-171l-98 404l-98 -404h-171l-181 744h168l99 -404l98 404h171l98 -404l98 404v0z" />
<glyph unicode="X" horiz-adv-x="631" d="M570 744l-200 -372l200 -372h-168l-116 216l-116 -216h-168l200 372l-200 372h168l116 -216l116 216h168v0z" />
<glyph unicode="Y" horiz-adv-x="600" d="M562 744l-200 -372v-372h-168v372l-201 372h168l117 -216l116 216h168v0z" />
<glyph unicode="Z" horiz-adv-x="555" d="M485 744v-168l-290 -408h290v-168h-485v168l289 408h-289v168h485v0z" />
<glyph unicode="`" horiz-adv-x="237" d="M-1 744h167v-168l-53 -93h-102l53 93h-65v168v0z" />
<glyph unicode="a" horiz-adv-x="722" d="M490 0l-100 288h-138l-100 -288h-181l258 744h184l258 -744h-181v0z" />
<glyph unicode="b" horiz-adv-x="495" d="M324 371q48 -25 77 -71.5t29 -103.5q0 -41 -15.5 -77t-42 -62.5t-62.5 -42t-77 -15.5h-5h-228v744h228h5q41 0 77 -15.5t62.5 -42t42 -62.5t15.5 -77q0 -57 -29 -103.5t-77 -71.5z" />
<glyph unicode="c" horiz-adv-x="623" d="M278 167q25 0 46.5 10.5t38 28.5t26 42t9.5 51h168q0 -60 -21 -114t-62 -97t-93.5 -66t-111.5 -23h-1q-59 0 -111 23t-94 66q-39 42 -60.5 94.5t-22.5 110.5v154q1 60 22 113t61 95q42 43 94 66t111 23h1q59 0 111.5 -23t93.5 -66t62 -97t21 -114h-168q0 27 -9.5 51 t-26 42t-38 28.5t-46.5 10.5t-47 -10.5t-38.5 -28.5t-26 -42t-9.5 -51v-145q0 -27 9.5 -51t26 -42t38.5 -28.5t47 -10.5z" />
<glyph unicode="d" horiz-adv-x="581" d="M526 372q0 -75 -28 -142.5t-82 -121.5q-50 -49 -112.5 -76.5t-131.5 -31.5h-22h-150v744h150q75 0 143.5 -27.5t122.5 -80.5q54 -54 82 -121.5t28 -142.5z" />
<glyph unicode="e" d="M456 576h-288v-120h212v-168h-212v-120h288v-168h-456v744h456v-168v0z" />
<glyph unicode="f" d="M457 576h-288v-120h212v-168h-212v-288h-168v744h456v-168v0z" />
<glyph unicode="g" horiz-adv-x="650" d="M569 299v-10t-1 -10v-279h-155v38q-30 -18 -63.5 -28.5t-68.5 -10.5h-1q-59 0 -111.5 23t-93.5 66q-39 42 -60.5 94.5t-22.5 110.5v154q0 60 21.5 113t61.5 95q41 43 93.5 66t111.5 23h1q58 0 110.5 -23t94.5 -66q40 -43 61.5 -97t21.5 -114h-168q0 27 -9.5 51t-26 42 t-38.5 28.5t-47 10.5t-46.5 -10.5t-38 -28.5t-26 -42t-9.5 -51v-145q0 -27 9.5 -51t26 -42t38 -28.5t46.5 -10.5q29 0 52.5 13t40.5 35h-94v155h290v-71z" />
<glyph unicode="h" horiz-adv-x="614" d="M367 744h168v-744h-168v288h-199v-288h-168v744h168v-288h199v288v0z" />
<glyph unicode="i" horiz-adv-x="239" d="M168 744v-744h-168v744h168v0z" />
<glyph unicode="j" horiz-adv-x="530" d="M461 227q-1 -47 -19.5 -88.5t-49.5 -72t-73 -48.5t-89 -18q-48 0 -89.5 18t-73 49.5t-49.5 73.5t-18 90h168q0 -26 18 -44.5t44 -18.5t44.5 18.5t18.5 44.5v513h168v-517z" />
<glyph unicode="k" horiz-adv-x="561" d="M527 744l-317 -373l316 -371h-168l-190 211v-211h-168v744h168v-213l191 213h168v0z" />
<glyph unicode="l" horiz-adv-x="431" d="M168 168h199v-168h-367v744h168v-576v0z" />
<glyph unicode="m" horiz-adv-x="761" d="M689 744v0v-744h-168v260l-91 -260h-168l-93 268v-268h-168v744h171l174 -502l175 502v0h168v0z" />
<glyph unicode="n" horiz-adv-x="604" d="M381 744h168v-744h-170l-210 416v-416h-168v744h171l209 -415v415v0z" />
<glyph unicode="o" horiz-adv-x="639" d="M576 296q-1 -59 -22 -112t-61 -95q-41 -44 -93.5 -67t-111.5 -23h-1q-58 0 -110.5 23t-94.5 66q-39 42 -60.5 95t-22.5 113v174q5 53 26.5 100t56.5 85q42 43 94 66t111 23h1q59 0 111.5 -23t93.5 -66q36 -38 57 -85t26 -100v-22v-92v-60v0z" />
<glyph unicode="p" horiz-adv-x="497" d="M227 744q48 0 90 -18t73.5 -49.5t49.5 -73.5t18 -90t-18 -90t-49.5 -73.5t-73.5 -49.5t-90 -18h-1h-58v-282h-168v744h226h1v0z" />
<glyph unicode="q" horiz-adv-x="639" d="M438 42q-69 -43 -149 -43h-1q-59 0 -111.5 23t-93.5 66q-40 42 -61.5 95t-21.5 113v174q4 53 25.5 100t57.5 85q41 43 93.5 66t111.5 23h1q58 0 110.5 -23t94.5 -66q35 -38 56.5 -85t26.5 -100v-22v-92v-60q-2 -68 -28 -125l92 -171h-180z" />
<glyph unicode="r" d="M300 0l-130 282h-2v-282h-168v744h226h1q48 0 90.5 -18t74 -49.5t49.5 -73.5t18 -90q0 -68 -35 -122.5t-92 -83.5l141 -307h-173z" />
<glyph unicode="s" d="M460 231q0 -18 -2.5 -35t-7.5 -34q-11 -35 -32 -65t-50 -51.5t-64 -33.5t-74 -12q-48 0 -89.5 18t-73 49.5t-49.5 73.5t-18 90h168q0 -26 18 -44.5t44 -18.5q21 0 37 12.5t22 31.5q3 8 3 18q0 26 -18 42t-44 16q-48 0 -89.5 17.5t-73 48t-49.5 71.5t-18 89q0 17 2.5 34 t7.5 34q11 35 32 65t50 51.5t64 33.5t74 12q48 0 89.5 -18t73 -49.5t49.5 -73.5t18 -89h-168q0 26 -18 44t-44 18q-21 0 -37 -12.5t-22 -31.5q-3 -7 -3 -18q0 -26 18 -42t44 -16q48 0 89.5 -17.5t73 -48t49.5 -71.5t18 -88z" />
<glyph unicode="t" horiz-adv-x="551" d="M497 744v-168h-169v-576h-168v576h-169v168h506v0z" />
<glyph unicode="u" horiz-adv-x="637" d="M578 297q-1 -59 -22 -112t-61 -95q-41 -44 -93.5 -67t-111.5 -23h-1q-58 0 -110.5 23t-94.5 67q-39 42 -60.5 95t-22.5 112v448h168v-445q0 -27 9.5 -51t26 -42t38.5 -28.5t47 -10.5t46.5 10.5t38 28.5t26 42t9.5 51v445h168v-448z" />
<glyph unicode="v" horiz-adv-x="722" d="M525 744h168l-259 -744h-170l-259 744h168l176 -506l176 506v0z" />
<glyph unicode="w" horiz-adv-x="963" d="M734 744h168l-181 -744h-171l-98 404l-98 -404h-171l-181 744h168l99 -404l98 404h171l98 -404l98 404v0z" />
<glyph unicode="x" horiz-adv-x="631" d="M570 744l-200 -372l200 -372h-168l-116 216l-116 -216h-168l200 372l-200 372h168l116 -216l116 216h168v0z" />
<glyph unicode="y" horiz-adv-x="600" d="M562 744l-200 -372v-372h-168v372l-201 372h168l117 -216l116 216h168v0z" />
<glyph unicode="z" horiz-adv-x="555" d="M485 744v-168l-290 -408h290v-168h-485v168l289 408h-289v168h485v0z" />
<glyph horiz-adv-x="500" />
<glyph unicode="&#xad;" horiz-adv-x="586" d="M517 301h-517v168h517v-168v0z" />
<glyph unicode="&#x2000;" horiz-adv-x="396" />
<glyph unicode="&#x2001;" horiz-adv-x="792" />
<glyph unicode="&#x2002;" horiz-adv-x="396" />
<glyph unicode="&#x2003;" horiz-adv-x="792" />
<glyph unicode="&#x2004;" horiz-adv-x="264" />
<glyph unicode="&#x2005;" horiz-adv-x="198" />
<glyph unicode="&#x2006;" horiz-adv-x="132" />
<glyph unicode="&#x2007;" horiz-adv-x="132" />
<glyph unicode="&#x2008;" horiz-adv-x="99" />
<glyph unicode="&#x2009;" horiz-adv-x="158" />
<glyph unicode="&#x200a;" horiz-adv-x="44" />
<glyph unicode="&#x2010;" horiz-adv-x="586" d="M517 301h-517v168h517v-168v0z" />
<glyph unicode="&#x2011;" horiz-adv-x="586" d="M517 301h-517v168h517v-168v0z" />
<glyph unicode="&#x2012;" horiz-adv-x="586" d="M517 301h-517v168h517v-168v0z" />
<glyph unicode="&#x2013;" horiz-adv-x="569" d="M500 301h-500v168h500v-168v0z" />
<glyph unicode="&#x2014;" horiz-adv-x="1069" d="M1000 301h-1000v168h1000v-168v0z" />
<glyph unicode="&#x202f;" horiz-adv-x="158" />
<glyph unicode="&#x205f;" horiz-adv-x="198" />
<glyph unicode="&#xe000;" horiz-adv-x="745" d="M0 745h745v-745h-745v745z" />
</font>
</defs>
</svg>
