<?xml version="1.0" standalone="no"?>
<!DOCTYPE svg PUBLIC "-//W3C//DTD SVG 1.1//EN" "http://www.w3.org/Graphics/SVG/1.1/DTD/svg11.dtd" >
<svg xmlns="http://www.w3.org/2000/svg">
<metadata></metadata>
<defs>
<font id="foglihtenregular" horiz-adv-x="283" >
<font-face units-per-em="1000" ascent="773" descent="-227" />
<missing-glyph horiz-adv-x="266" />
<glyph unicode="&#xfb01;" horiz-adv-x="585" d="M18 0v18h35q53 0 53 53v364h-88v27h88v120q0 76 41.5 122t109.5 46q58 0 98 -22v-63h-18v8q-17 50 -80 50q-80 0 -80 -97v-164h160l147 4v-8q-5 -50 -5 -62v-325q0 -53 54 -53h35v-18h-248v18h35q53 0 53 53v311q0 36 -8.5 44.5t-44.5 8.5h-191v-2q13 -7 13 -31v-356 q0 -18 -8 -26v-2h84v-18h-235zM399 643q0 20 12 32t33 12q20 0 32 -11.5t12 -32.5q0 -20 -11.5 -32.5t-32.5 -12.5q-20 0 -32.5 12t-12.5 33z" />
<glyph unicode="&#xfb03;" horiz-adv-x="958" d="M18 0v18h35q53 0 53 53v364h-88v26h88v121q0 76 41.5 122t109.5 46q58 0 98 -22v-63h-18v8q-17 50 -80 50q-80 0 -80 -97v-165h249v121q0 76 41.5 122t109.5 46q58 0 98 -22v-63h-18v8q-17 50 -80 50q-80 0 -80 -97v-164h195l147 4v-8q-5 -50 -5 -62v-325q0 -53 54 -53 h35v-18h-248v18h35q53 0 53 53v311q0 36 -8.5 44.5t-44.5 8.5h-226v-2q13 -7 13 -31v-356q0 -17 -9 -26v-2h85v-18h-236v18h36q53 0 53 53v364h-262v-2q13 -7 13 -31v-356q0 -18 -8 -26v-2h84v-18h-235zM755 643q0 20 11.5 32t32.5 12q20 0 32 -11.5t12 -32.5 q0 -20 -11.5 -32.5t-32.5 -12.5q-20 0 -32 12t-12 33z" />
<glyph unicode="&#xfb04;" horiz-adv-x="958" d="M18 0v18h35q53 0 53 53v364h-88v26h88v121q0 76 41.5 122t109.5 46q58 0 98 -22v-63h-18v8q-17 50 -80 50q-80 0 -80 -97v-165h249v121q0 76 41.5 122t109.5 46q58 0 98 -22v-63h-18v8q-17 50 -80 50q-80 0 -80 -97v-165h160v-26h-173v-2q13 -7 13 -31v-356q0 -17 -9 -26 v-2h85v-18h-236v18h36q53 0 53 53v364h-262v-2q13 -7 13 -31v-356q0 -18 -8 -26v-2h84v-18h-235zM692 0v18h36q53 0 53 53v604q0 36 -8.5 44.5t-44.5 8.5h-18v18l147 4v-7q-5 -50 -5 -54v-618q0 -53 54 -53h35v-18h-249z" />
<glyph horiz-adv-x="1000" />
<glyph horiz-adv-x="1000" />
<glyph unicode="&#xd;" horiz-adv-x="295" />
<glyph unicode=" "  horiz-adv-x="266" />
<glyph unicode="&#x09;" horiz-adv-x="266" />
<glyph unicode="&#xa0;" horiz-adv-x="266" />
<glyph unicode="!" horiz-adv-x="230" d="M71 35q0 20 11.5 32.5t32.5 12.5q20 0 32.5 -12t12.5 -33q0 -20 -12 -32t-33 -12q-20 0 -32 11.5t-12 32.5zM80 732q0 9 35 9q36 0 36 -9q0 -98 -11 -264.5t-11 -263.5h-27q0 97 -11 263.5t-11 264.5z" />
<glyph unicode="&#x22;" horiz-adv-x="204" d="M35 618l10 143q14 -1 20.5 -2t10.5 -6t4 -14q0 -16 -6 -58l-8 -65zM115 618l10 143q14 -1 20.5 -2t10.5 -6t4 -14q0 -16 -6 -58l-8 -65z" />
<glyph unicode="#" horiz-adv-x="461" d="M27 216v26h103l15 142h-101v27h103l17 161l27 -2l-17 -159h124l17 161l27 -2l-17 -159h110v-27h-113l-14 -142h109v-26h-112l-16 -161l-27 2l16 159h-124l-16 -161l-27 2l16 159h-100zM157 242h124l15 142h-125z" />
<glyph unicode="$" horiz-adv-x="505" d="M35 44v187h23q0 -68 54 -121.5t128 -56.5v263q-42 23 -67.5 38.5t-55.5 40t-44.5 53t-14.5 61.5q0 57 49.5 92.5t132.5 37.5v62h17v-62q88 -3 143 -56l-1 38h18v-159h-21v3q-1 56 -37 100.5t-102 47.5v-230q111 -61 143 -85q79 -60 79 -128q0 -63 -61 -102.5t-161 -40.5 v-62h-17v62q-56 1 -109 21.5t-78 42.5v-47h-18zM120 521q0 -36 31 -65t89 -63v220q-120 -3 -120 -92zM257 53q66 2 106.5 33t40.5 79q0 22 -11 41t-35.5 38t-44 31t-56.5 32v-254z" />
<glyph unicode="%" horiz-adv-x="647" d="M44 536q0 62 38.5 100.5t100.5 38.5t100 -38.5t38 -100.5t-38 -100t-100 -38t-100.5 38t-38.5 100zM76 81l475 522l20 -19l-475 -521zM102 542q0 -118 81 -118q40 0 60.5 28t20.5 78q0 49 -19 83.5t-63 34.5q-80 0 -80 -106zM327 130q0 62 38 100t100 38t100.5 -38 t38.5 -100t-38.5 -100.5t-100.5 -38.5t-100 38.5t-38 100.5zM384 136q0 -49 19 -83.5t63 -34.5q80 0 80 105q0 118 -81 118t-81 -105z" />
<glyph unicode="&#x26;" horiz-adv-x="754" d="M44 204q0 84 55 149.5t149 74.5v2q-47 13 -74.5 48.5t-27.5 83.5q0 62 51 100.5t134 38.5q56 0 90 -19.5t43 -40.5h3l3 96h18v-274q0 -17 -9 -26v-2h196v-27h-187v-284q0 -52 27 -83.5t71 -31.5q41 0 72.5 24.5t43.5 67.5l26 -7q-14 -52 -52.5 -82t-89.5 -30 q-94 0 -141 73q-54 -73 -148 -73q-114 0 -183.5 61t-69.5 161zM122 204q0 -95 45 -145t130 -50q88 0 134 72q-14 36 -14 79v248h-126q-83 0 -126 -52t-43 -152zM218 559q0 -124 113 -124h64q27 0 36 8.5t9 35.5v81q0 115 -109 115q-55 0 -84 -30t-29 -86z" />
<glyph unicode="'" horiz-adv-x="124" d="M35 618l10 143q14 -1 20.5 -2t10.5 -6t4 -14q0 -16 -6 -58l-8 -65z" />
<glyph unicode="(" horiz-adv-x="248" d="M35 275q0 137 48 282.5t139 236.5l18 -20q-64 -64 -99 -210.5t-35 -288.5t35 -288.5t99 -210.5l-18 -20q-87 87 -137 235.5t-50 283.5z" />
<glyph unicode=")" horiz-adv-x="248" d="M9 -224q63 63 98 210t35 289t-35 289t-98 210l18 20q91 -91 138.5 -236.5t47.5 -282.5q0 -135 -49.5 -283.5t-136.5 -235.5z" />
<glyph unicode="*" horiz-adv-x="266" d="M33 592l2 3l83 40h2v3l-2 -1l-83 41q-2 1 -2 3l11 20h4q4 -2 38.5 -26t38.5 -26l1 -2l2 1l-2 2q0 4 -3 46t-3 47q1 2 2 3h23l1 -3q0 -5 -3 -47t-3 -46l-2 -2l2 -1l1 2q4 2 39 26t39 26h3l11 -20l-1 -3l-84 -41l-2 1v-3h2l84 -40q1 -1 1 -3l-11 -20h-3q-4 2 -39 26t-39 26 l-1 2l-2 -1l2 -2q0 -5 3 -47t3 -46q0 -2 -1 -3h-23l-2 3q0 4 3 46t3 47l2 2l-2 1l-1 -2q-4 -2 -38.5 -26t-38.5 -26h-4z" />
<glyph unicode="+" horiz-adv-x="434" d="M27 302l1 26h178v182l27 -1v-181h175l-2 -26h-173v-175l-27 2v173h-179z" />
<glyph unicode="," horiz-adv-x="195" d="M53 35q0 45 45 45q20 0 32 -12.5t12 -32.5q0 -56 -22.5 -90.5t-59.5 -34.5v18q19 0 33.5 16t17.5 34q1 8 6 18l-3 2q-5 -7 -16 -7q-45 0 -45 44z" />
<glyph unicode="-" horiz-adv-x="248" d="M18 275l4 27h209l-5 -27h-208z" />
<glyph unicode="." horiz-adv-x="195" d="M53 35q0 20 12 32.5t33 12.5q20 0 32 -12t12 -33q0 -20 -11.5 -32t-32.5 -12q-20 0 -32.5 11.5t-12.5 32.5z" />
<glyph unicode="/" horiz-adv-x="488" d="M18 -172l429 906l23 -12l-428 -906z" />
<glyph unicode="0" horiz-adv-x="523" d="M31 333q0 157 63.5 254t167.5 97t167.5 -97t63.5 -254t-63.5 -254t-167.5 -97t-167.5 97t-63.5 254zM106 368q0 -175 40.5 -267t118.5 -92q74 0 113.5 74t39.5 214q0 175 -41 267.5t-119 92.5q-74 0 -113 -74.5t-39 -214.5z" />
<glyph unicode="1" horiz-adv-x="257" d="M18 0v18h26q36 0 45 10t9 52v424q0 44 2 58l-4 1q-10 -14 -24 -30l-28 -29l-19 18q71 82 121 162h23v-604q0 -42 8.5 -52t44.5 -10h18v-18h-222z" />
<glyph unicode="2" horiz-adv-x="463" d="M35 0v57q34 4 80 65l135 177q39 48 65.5 108.5t26.5 107.5q0 69 -32 105.5t-93 36.5q-60 0 -98.5 -38.5t-46.5 -92.5v-11h-17v151h17v-35q59 53 145 53q88 0 142 -50t54 -131q0 -47 -34.5 -112t-88.5 -120l-168 -179q-5 -6 -18 -14.5t-17 -9.5l3 -7q7 1 56 1h214 q37 0 46 7t13 41h18l-7 -110h-395z" />
<glyph unicode="3" horiz-adv-x="470" d="M35 55v105h17v-11q11 -60 48.5 -100t103.5 -40q76 0 116 46t40 132q0 91 -36.5 138.5t-104.5 47.5h-15v26q60 0 92 34.5t32 99.5q0 61 -31.5 92.5t-91.5 31.5q-64 0 -93.5 -35.5t-39.5 -95.5v-11h-17v150h18v-9q0 -17 -1 -22l2 -1q8 14 22 21q48 28 108 30 q83 0 134.5 -41t51.5 -108q0 -54 -35.5 -95.5t-85.5 -50.5v-1q74 -10 120 -66t46 -135q0 -92 -63.5 -148.5t-167.5 -56.5q-42 0 -88 19t-81 54z" />
<glyph unicode="4" horiz-adv-x="488" d="M18 142v22q22 34 56 90.5t99 190.5t83 221h83l-279 -489h260v240h71v-240h63v-35h-63v-62q0 -42 10 -52t52 -10h17v-18h-230v18h17q42 0 52.5 10t10.5 52v62h-302z" />
<glyph unicode="5" horiz-adv-x="470" d="M35 57v103h17v-16q12 -59 49 -97t103 -38q76 0 116 52t40 152q0 108 -40 165t-116 57t-137 -53l-19 4l15 246q2 34 4 34h262q36 0 45.5 7.5t13.5 40.5h18l-7 -110h-248q-45 0 -53.5 -7.5t-11.5 -49.5l-9 -124q59 39 127 39q104 0 167.5 -68.5t63.5 -180.5 q0 -103 -63.5 -167t-167.5 -64q-43 1 -89.5 20t-79.5 55z" />
<glyph unicode="6" horiz-adv-x="488" d="M35 302q0 172 62.5 277t164.5 105q83 -2 151 -71v-89h-18v2q-7 28 -14.5 47.5t-22 40.5t-38.5 32t-58 11q-74 0 -113 -82t-39 -237h4q22 56 63 85.5t89 29.5q84 0 135.5 -64.5t51.5 -170.5t-57.5 -171t-151.5 -65t-151.5 88t-57.5 232zM114 224q8 -103 41.5 -159 t88.5 -56q65 0 99 53.5t34 155.5t-30 155t-87 53q-56 0 -100.5 -56t-45.5 -146z" />
<glyph unicode="7" horiz-adv-x="452" d="M18 556l7 110h410v-50q-13 -4 -37 -27t-54.5 -68.5t-57.5 -103t-45.5 -140t-18.5 -169.5v-108h-71v48q0 101 41 220t83.5 193t76.5 115q17 21 28 25l-1 6q-8 -3 -74 -3h-211q-37 0 -46 -7t-13 -41h-17z" />
<glyph unicode="8" horiz-adv-x="514" d="M35 187q0 79 46 135t120 66v1q-50 9 -85 50.5t-35 95.5q0 68 47 108.5t129 40.5t129.5 -40.5t47.5 -108.5q0 -54 -35.5 -95.5t-85.5 -50.5v-1q74 -10 120 -66t46 -135q0 -93 -59.5 -149t-162.5 -56t-162.5 56t-59.5 149zM111 187q0 -178 146 -178q147 0 147 178 q0 186 -147 186q-146 0 -146 -186zM143 533q0 -62 31.5 -98t82.5 -36q52 0 83.5 36t31.5 98q0 124 -115 124q-114 0 -114 -124z" />
<glyph unicode="9" horiz-adv-x="488" d="M35 448q0 106 57.5 171t151.5 65t151.5 -88t57.5 -232q0 -172 -62.5 -277t-164.5 -105q-83 2 -151 71v89h18v-2q7 -28 14.5 -47.5t22 -40.5t38.5 -32t58 -11q74 0 113.5 82t39.5 237h-4q-22 -56 -63.5 -85.5t-89.5 -29.5q-84 0 -135.5 64.5t-51.5 170.5zM111 448 q0 -102 30 -155t87 -53q56 0 100.5 56t45.5 146q-8 103 -41.5 159t-88.5 56q-65 0 -99 -53.5t-34 -155.5z" />
<glyph unicode=":" horiz-adv-x="195" d="M53 35q0 20 12 32.5t33 12.5q20 0 32 -12t12 -33q0 -20 -11.5 -32t-32.5 -12q-20 0 -32.5 11.5t-12.5 32.5zM53 386q0 20 12 32.5t33 12.5q20 0 32 -12t12 -33q0 -20 -11.5 -32t-32.5 -12q-20 0 -32.5 11.5t-12.5 32.5z" />
<glyph unicode=";" horiz-adv-x="195" d="M53 35q0 45 45 45q20 0 32 -12.5t12 -32.5q0 -56 -22.5 -90.5t-59.5 -34.5v18q19 0 33.5 16t17.5 34q1 8 6 18l-3 2q-5 -7 -16 -7q-45 0 -45 44zM53 386q0 20 12 32.5t33 12.5q20 0 32 -12t12 -33q0 -20 -11.5 -32t-32.5 -12q-20 0 -32.5 11.5t-12.5 32.5z" />
<glyph unicode="&#x3c;" horiz-adv-x="372" d="M9 314v2l296 237l35 -36l-224 -152q-69 -46 -78 -48v-4q9 -2 78 -48l224 -152l-35 -36z" />
<glyph unicode="=" horiz-adv-x="461" d="M35 226l5 36h386l-4 -36h-387zM35 368l5 36h386l-4 -36h-387z" />
<glyph unicode="&#x3e;" horiz-adv-x="372" d="M32 113l225 152q69 46 78 48v4q-9 2 -78 48l-225 152l35 36l297 -237v-2l-297 -237z" />
<glyph unicode="?" horiz-adv-x="443" d="M44 577v142h18v-19q55 44 131 46q89 0 143.5 -44t54.5 -116q0 -36 -19.5 -71.5t-47.5 -63.5t-56.5 -54.5t-48 -53.5t-19.5 -50v-89h-27v89q0 31 14.5 62.5t35.5 59t42 54.5t35.5 57.5t14.5 59.5q0 133 -121 133q-64 0 -93 -35.5t-39 -95.5v-11h-18zM142 35q0 20 12 32.5 t33 12.5q20 0 32 -12t12 -33q0 -20 -11.5 -32t-32.5 -12q-20 0 -32.5 11.5t-12.5 32.5z" />
<glyph unicode="@" horiz-adv-x="869" d="M44 219q0 167 118 283t295 116q166 0 267.5 -93t101.5 -245q0 -114 -55.5 -195t-133.5 -81q-35 0 -63.5 30t-40.5 87h-3q-22 -49 -60 -84.5t-91 -35.5q-67 0 -114 55.5t-47 150.5q0 105 62 181t178 76q61 0 116 -28q16 11 40 33l14 -1l-36 -328q-3 -33 -3 -34 q0 -79 51 -79q66 0 112.5 74.5t46.5 178.5q0 140 -94 225.5t-248 85.5q-166 0 -276 -108t-110 -264q0 -89 29 -161t79.5 -117.5t115 -69.5t137.5 -24q111 0 202 50l13 -23q-101 -53 -215 -53q-164 0 -276 105t-112 293zM290 193q0 -81 27.5 -123t69.5 -42t83 43t57 116 l24 234q-40 17 -88 17q-85 0 -129 -73t-44 -172z" />
<glyph unicode="A" horiz-adv-x="630" d="M9 0v18h15q38 0 55 53l214 657h65v-5q0 -1 -0.5 -4.5t-0.5 -5.5q0 -34 10 -64l187 -578q12 -36 21.5 -44.5t37.5 -8.5h8v-18h-193v18h86v2q-21 8 -31 37l-44 138h-292l-41 -124q-3 -8 -3 -21q0 -32 46 -32h38v-18h-178zM155 222h275l-124 387q-7 22 -7 40h-7 q0 -10 -10 -40z" />
<glyph unicode="B" horiz-adv-x="621" d="M18 0v18h35q36 0 44.5 8.5t8.5 44.5v577q0 36 -8.5 44.5t-44.5 8.5h-35v18h253q110 0 183.5 -42t73.5 -109q0 -46 -39.5 -88.5t-104.5 -51.5v-4q94 -7 157 -72t63 -144q0 -92 -79 -150t-197 -58h-310zM160 27h157q93 0 150 49.5t57 131.5q0 90 -57 145t-150 55h-104v27 h91q66 0 106 36t40 95q0 60 -50.5 93t-135.5 33h-104v-1q17 -17 17 -52v-559q0 -35 -17 -52v-1z" />
<glyph unicode="C" horiz-adv-x="568" d="M35 362q0 169 78.5 272t206.5 103q96 0 163 -57q7 -7 10 -18h3q-3 12 -3 23l-3 51l18 1l9 -178l-27 -1l-2 16q-6 57 -52 96.5t-120 39.5q-97 0 -148 -83.5t-51 -243.5q0 -182 53 -278t153 -96q64 1 116.5 35t78.5 96l24 -10q-28 -71 -87.5 -109.5t-134.5 -38.5 q-128 0 -206.5 104.5t-78.5 275.5z" />
<glyph unicode="D" horiz-adv-x="656" d="M18 0v18h35q36 0 44.5 8.5t8.5 44.5v577q0 36 -8.5 44.5t-44.5 8.5h-35v18h275q148 0 238 -98.5t90 -260.5t-90 -261t-238 -99h-275zM160 27h120q118 0 190 91.5t72 241.5q0 162 -67 247t-195 85h-120v-1q17 -17 17 -47v-569q0 -30 -17 -47v-1z" />
<glyph unicode="E" horiz-adv-x="585" d="M18 0v18h35q36 0 44.5 8.5t8.5 44.5v577q0 36 -8.5 44.5t-44.5 8.5h-35v18h434q18 0 27 -9h1l-3 50h17l12 -174h-18q-4 68 -34 87t-108 19h-191v-1q22 -22 22 -52v-248h88q46 0 63 19t17 87h18v-240h-18q0 68 -17 87.5t-63 19.5h-88v-284q0 -30 -22 -52v-1h249 q77 0 105.5 19t32.5 87h17l-11 -174l-18 1l3 49h-1q-9 -9 -27 -9h-487z" />
<glyph unicode="F" horiz-adv-x="559" d="M18 0v18h35q36 0 44.5 8.5t8.5 44.5v577q0 36 -8.5 44.5t-44.5 8.5h-35v18h462q17 0 26 -9h1l-4 50h18l12 -174h-18q-4 68 -34 87t-108 19h-218v-1q22 -22 22 -52v-284h124q46 0 63 19.5t17 87.5h18v-240h-18q0 68 -17 87t-63 19h-124v-257q0 -36 9 -44.5t45 -8.5h35v-18 h-248z" />
<glyph unicode="G" horiz-adv-x="638" d="M35 362q0 169 76 272t200 103q97 0 163 -57q7 -7 10 -18h3q0 1 -1.5 9.5t-1.5 13.5l-3 51l18 1l9 -178l-27 -1l-2 16q-6 57 -52 96.5t-120 39.5q-92 0 -141 -83.5t-49 -243.5q0 -182 48.5 -278t140.5 -96q110 2 173 86v180q0 36 -8.5 44.5t-44.5 8.5h-106v18h310v-18h-26 q-36 0 -45 -8.5t-9 -44.5v-315h-17v60q0 49 -27 49q-12 0 -26 -14q-68 -73 -178 -73q-120 0 -193.5 104.5t-73.5 275.5z" />
<glyph unicode="H" horiz-adv-x="674" d="M18 0v18h35q36 0 44.5 8.5t8.5 44.5v577q0 36 -8.5 44.5t-44.5 8.5h-35v18h239v-18h-26q-36 0 -45 -8.5t-9 -44.5v-257h320v257q0 36 -8.5 44.5t-44.5 8.5h-27v18h240v-18h-36q-36 0 -44.5 -8.5t-8.5 -44.5v-577q0 -36 8.5 -44.5t44.5 -8.5h36v-18h-240v18h27 q36 0 44.5 8.5t8.5 44.5v293h-320v-293q0 -36 9 -44.5t45 -8.5h26v-18h-239z" />
<glyph unicode="I" d="M18 0v18h35q36 0 44.5 8.5t8.5 44.5v577q0 36 -8.5 44.5t-44.5 8.5h-35v18h248v-18h-35q-36 0 -45 -8.5t-9 -44.5v-577q0 -36 9 -44.5t45 -8.5h35v-18h-248z" />
<glyph unicode="J" horiz-adv-x="337" d="M6 -8l7 29q41 -12 59 -12q42 0 65 29t23 77v558q0 17 9 26v2h-98v18h249v-18h-36q-53 0 -53 -53v-497q0 -76 -46.5 -122.5t-121.5 -46.5q-25 0 -57 10z" />
<glyph unicode="K" horiz-adv-x="638" d="M18 0v18h35q36 0 44.5 10t8.5 52v568q0 36 -8.5 44.5t-44.5 8.5h-35v18h222v-18h-9q-36 0 -45 -8.5t-9 -44.5v-288q34 0 47 16l211 269q21 25 21 39q0 17 -43 17h-9v18h202v-18h-28q-36 0 -59 -11.5t-53 -48.5l-206 -261l1 -4q30 -10 52.5 -27t35 -32.5t37.5 -50.5 l124 -175q35 -49 52 -60q16 -11 35 -11q2 0 6 0.5t6 0.5l28 4l2 -17q-66 -17 -91 -17q-30 0 -54.5 17.5t-55.5 61.5l-114 160q-40 56 -66 81t-59 26h-22v-257q0 -42 9 -52t45 -10h35v-18h-248z" />
<glyph unicode="L" horiz-adv-x="568" d="M18 0v18h35q36 0 44.5 8.5t8.5 44.5v577q0 36 -8.5 44.5t-44.5 8.5h-35v18h248v-18h-35q-36 0 -45 -8.5t-9 -44.5v-568q0 -30 -22 -52v-1h215q80 0 113.5 19.5t37.5 86.5l3 40h18l-15 -214l-17 1l3 49h-1q-9 -9 -27 -9h-467z" />
<glyph unicode="M" horiz-adv-x="896" d="M9 0v18h16q38 0 48.5 10t13.5 52l42 577q0 3 0.5 8.5t0.5 7.5q0 18 -9 23t-41 5h-40v18h139l249 -578q15 -33 15 -43h5q0 13 14 43l249 578h142v-18h-36q-33 0 -43.5 -7t-10.5 -33q0 -3 0.5 -10t0.5 -12l38 -559q3 -43 13 -52.5t51 -9.5h22v-18h-253v18h36q38 0 50 7 t12 29q0 2 -0.5 5.5t-0.5 5.5l-34 503q-1 18 -1 41h-6q0 -4 -16 -41l-248 -577h-12l-243 566q-15 33 -15 40h-7q0 -22 -1 -40l-35 -490q0 -3 -0.5 -8.5t-0.5 -7.5q0 -21 11.5 -27t51.5 -6h36v-18h-203z" />
<glyph unicode="N" horiz-adv-x="656" d="M18 0v18h26q36 0 45 8.5t9 44.5v577q0 36 -9 44.5t-45 8.5h-26v18h147l345 -562q18 -31 18 -37h6q-1 11 -1 42v486q0 36 -9 44.5t-45 8.5h-26v18h186v-18h-26q-36 0 -45 -8.5t-9 -44.5v-657h-30l-380 619q-20 35 -20 39h-6q1 -11 1 -43v-535q0 -36 8.5 -44.5t44.5 -8.5 h36v-18h-195z" />
<glyph unicode="O" horiz-adv-x="638" d="M35 360q0 169 78.5 273t206.5 104t206 -104t78 -273q0 -170 -78.5 -274t-205.5 -104q-128 0 -206.5 104.5t-78.5 273.5zM117 383q0 -182 53 -278t153 -96q97 0 148 83.5t51 243.5q0 182 -53 278t-153 96q-97 0 -148 -83.5t-51 -243.5z" />
<glyph unicode="P" horiz-adv-x="630" d="M18 0v18h35q36 0 44.5 8.5t8.5 44.5v577q0 36 -8.5 44.5t-44.5 8.5h-35v18h315q122 0 196.5 -66t74.5 -174t-74.5 -173.5t-196.5 -65.5h-156v-169q0 -36 9 -44.5t45 -8.5h35v-18h-248zM155 692l5 -1q17 -17 17 -52v-373h138q102 0 155.5 54.5t53.5 158.5t-53.5 158.5 t-155.5 54.5h-160z" />
<glyph unicode="Q" horiz-adv-x="638" d="M35 397q0 148 80.5 244t204.5 96q127 0 205.5 -101t78.5 -261q0 -111 -58.5 -206t-184.5 -158q-22 -11 -59 -27.5t-55 -26.5t-26 -19q39 0 134.5 -36.5t128.5 -36.5q29 0 45 16.5t16 43.5v4q1 6 0 9h26q2 -20 2 -29q0 -48 -25 -75.5t-70 -27.5q-38 0 -92.5 25.5t-100 51 t-60.5 25.5q-31 0 -31 -36q0 -28 26 -32l-4 -27q-49 9 -49 69q0 56 43 80q13 7 58 29.5t72 37.5q94 56 138.5 148t44.5 201q0 162 -54 247t-156 85q-95 0 -145.5 -79t-50.5 -230q0 -55 5 -102t15.5 -81.5t20 -61.5t26 -46.5t26 -31.5t27 -22t21.5 -12t17 -8l-24 -14 q-107 37 -161.5 138t-54.5 237z" />
<glyph unicode="R" horiz-adv-x="638" d="M18 0v18h35q36 0 44.5 8.5t8.5 44.5v577q0 36 -8.5 44.5t-44.5 8.5h-35v18h284q120 0 193 -61t73 -161q0 -90 -60 -149t-152 -67v-5q21 -4 47.5 -25t43.5 -46l80 -122q27 -42 40.5 -56.5t29.5 -14.5h8l30 6l2 -18q-72 -18 -88 -18q-26 0 -44 16.5t-49 63.5l-90 136 q-28 43 -48 60t-51 17h-54v27h98q80 0 128.5 53.5t48.5 141.5t-48.5 141.5t-128.5 53.5h-151v-1q17 -17 17 -52v-568q0 -36 9 -44.5t45 -8.5h18v-18h-231z" />
<glyph unicode="S" horiz-adv-x="568" d="M30 195l26 1v-8q4 -74 72 -126.5t147 -52.5q89 0 137 35.5t48 102.5q0 35 -29 71t-72 64.5t-93.5 63t-93.5 67t-72 76.5t-29 91q0 76 55.5 116.5t157.5 40.5q43 0 84.5 -13t66.5 -31q9 -7 14 -21l3 2q-2 9 -4 30l-2 32l17 1l10 -186l-25 -1l-1 12q-4 62 -48 105t-115 43 q-146 0 -146 -109q0 -40 40.5 -80t98.5 -76.5t116.5 -76.5t99 -93.5t40.5 -112.5q0 -88 -66.5 -134t-191.5 -46q-51 0 -112 16.5t-91 37.5q-14 10 -17 19l-3 -1q0 -1 2 -12t2 -17l2 -42l-18 -1z" />
<glyph unicode="T" horiz-adv-x="603" d="M18 586l11 174h18l-3 -41h515l-2 41h17l12 -174h-18q-5 74 -20 90t-86 16h-123v-621q0 -36 8.5 -44.5t44.5 -8.5h34v-18h-249v18h36q36 0 44.5 8.5t8.5 44.5v621h-115q-73 0 -92.5 -17.5t-23.5 -88.5h-17z" />
<glyph unicode="U" horiz-adv-x="656" d="M18 701v18h248v-18h-44q-36 0 -44.5 -8.5t-8.5 -44.5v-471q0 -75 46.5 -121.5t117.5 -46.5q90 0 145 53.5t55 141.5l1 426q0 40 -9.5 55.5t-43.5 15.5h-37v18h195v-18h-26q-34 0 -43 -15.5t-9 -55.5l-2 -426q0 -100 -62 -161t-164 -61q-103 0 -169 61.5t-66 160.5v444 q0 36 -9 44.5t-45 8.5h-26z" />
<glyph unicode="V" horiz-adv-x="656" d="M9 701v18h190v-18h-77v-2q21 -7 31 -37l187 -547q8 -22 8 -35v-1h8v1q0 12 10 38l185 530q7 21 7 30q0 23 -49 23h-39v18h178v-18h-12q-27 0 -37 -9.5t-21 -43.5l-224 -653l-46 -4l-225 657q-12 35 -22 44t-37 9h-15z" />
<glyph unicode="W" horiz-adv-x="985" d="M9 701v18h136v-14q0 -19 7 -43l164 -547q6 -20 6 -35v-1h7v1q0 15 6 35l146 479l-16 54q-10 35 -20.5 44t-38.5 9h-23v18h216v-18h-95v-2q23 -8 31 -37l164 -547q6 -24 6 -35v-1h6v1q0 13 8 39l161 529q6 18 6 30q0 13 -10.5 18t-37.5 5h-39v18h178v-18h-15 q-24 0 -35 -11t-20 -42l-197 -652l-48 -5l-168 558l-166 -554l-48 -4l-198 657q-11 36 -20.5 44.5t-37.5 8.5h-15z" />
<glyph unicode="X" horiz-adv-x="616" d="M18 0v17h14q32 0 48 12t42 58l155 270l-153 275q-25 45 -39.5 57t-36.5 12h-13v18h163v-18h-52v-2q29 -10 49 -46l130 -234l133 216q22 36 22 49q0 17 -47 17h-18v18h167v-18h-19q-22 0 -34.5 -11t-41.5 -58l-147 -240l169 -305q25 -45 37.5 -57t35.5 -12h17v-18h-224v18 h21q30 0 41.5 3.5t11.5 14.5q0 12 -19 47l-138 247l-142 -247q-21 -37 -21 -50q0 -10 11 -13t38 -3h19v-17h-179z" />
<glyph unicode="Y" horiz-adv-x="647" d="M9 701v18h181v-18h-60v-2q19 -7 39 -46l168 -320q11 -20 13 -32h4q2 9 13 32l158 306q14 25 14 41q0 21 -46 21h-37v18h183v-18h-23q-22 0 -31 -10t-30 -51l-189 -366v-203q0 -36 8.5 -44.5t44.5 -8.5h36v-18h-249v18h36q36 0 44.5 8.5t8.5 44.5v188l-199 382 q-23 45 -32 52q-11 8 -32 8h-23z" />
<glyph unicode="Z" horiz-adv-x="603" d="M18 0v18q8 0 19.5 14t36.5 55l332 540q28 43 54 62v3h-250q-78 0 -104.5 -18.5t-30.5 -88.5l-17 1l9 169l17 -1l-2 -43h1q9 8 26 8h451v-18q-22 0 -66 -69l-333 -540q-29 -48 -49 -62v-3h303q77 0 105 17.5t32 82.5v7l18 -1l-8 -169l-18 1l2 44h-1q-9 -9 -25 -9h-502z " />
<glyph unicode="[" horiz-adv-x="212" d="M31 -226q4 40 4 75v852q0 35 -4 75v5h173v-18h-115v-1q17 -17 17 -52v-870q0 -34 -17 -51v-2h115v-18h-173v5z" />
<glyph unicode="\" horiz-adv-x="488" d="M18 722l24 12l428 -906l-23 -12z" />
<glyph unicode="]" horiz-adv-x="212" d="M9 -213h115v2q-18 18 -18 51v870q0 34 18 52v1h-115v18h173v-5q-5 -50 -5 -75v-852q0 -25 5 -75v-5h-173v18z" />
<glyph unicode="^" horiz-adv-x="368" d="M27 494l156 153h3l156 -153l-30 -31l-80 87q-40 43 -45 68h-5q-5 -25 -45 -68l-81 -87z" />
<glyph unicode="_" horiz-adv-x="408" d="M0 -115h408v-27h-408v27z" />
<glyph unicode="`" horiz-adv-x="177" d="M18 669q0 6 5 10l16 13q6 4 9 4q4 0 9 -5l98 -117l-14 -12l-107 84l-13 15q-3 5 -3 8z" />
<glyph unicode="a" horiz-adv-x="505" d="M35 106q0 72 69.5 120.5t179.5 48.5q34 0 62 -5v50q0 133 -110 133q-51 0 -78 -18.5t-43 -62.5v-8h-17v71q55 44 137 44q89 0 135.5 -43t46.5 -125v-240q0 -31 5.5 -41t27.5 -10q3 0 9.5 0.5t10.5 0.5l17 1l1 -18l-131 -13v8q0 25 -4 52.5t-4 42.5h-4q-24 -52 -65 -82 t-93 -30q-68 0 -110 34t-42 90zM113 106q0 -97 74 -97q72 0 115.5 59.5t43.5 157.5v20q-30 6 -57 6q-85 0 -130.5 -37.5t-45.5 -108.5z" />
<glyph unicode="b" horiz-adv-x="559" d="M18 728v18l146 4v-7q-4 -40 -4 -54v-297q0 -24 -5 -32v-2h5q23 58 65 89.5t97 31.5q91 0 146.5 -68t55.5 -180t-55.5 -180.5t-146.5 -68.5q-63 0 -107.5 40t-64.5 110q-12 42 -23 42q-12 0 -12 -75v-108h-26v684q0 36 -9 44.5t-45 8.5h-17zM160 231q0 -100 41.5 -161 t109.5 -61q65 0 99 57t34 165t-34 165t-99 57q-68 0 -109.5 -61t-41.5 -161z" />
<glyph unicode="c" horiz-adv-x="470" d="M35 228q0 113 61 182t159 69q68 0 121 -36q9 -7 14 -24l4 1q-5 18 -5 25l-2 43l18 1l8 -160l-26 -1l-1 3q-8 62 -43 92t-88 30q-70 0 -107 -54.5t-37 -157.5q0 -113 41 -172.5t120 -59.5q94 0 147 94l25 -11q-58 -110 -178 -110q-104 0 -167.5 68t-63.5 178z" />
<glyph unicode="d" horiz-adv-x="559" d="M35 231q0 109 56 176.5t147 67.5q113 0 161 -117h6v3q-6 9 -6 31v283q0 36 -8.5 44.5t-44.5 8.5h-18v18l147 4v-7q-5 -50 -5 -54v-618q0 -31 6 -41t28 -10q3 0 9 0.5t10 0.5l17 1l2 -18l-131 -13v8q0 25 -3.5 58t-3.5 47h-5q-48 -117 -161 -117q-91 0 -147 67.5 t-56 176.5zM115 231q0 -106 34.5 -162t99.5 -56q68 0 109 60t41 158t-41 157.5t-109 59.5q-65 0 -99.5 -55.5t-34.5 -161.5z" />
<glyph unicode="e" horiz-adv-x="488" d="M35 231q0 112 62.5 180t164.5 68q78 0 134.5 -52.5t56.5 -142.5v-18q0 -17 -18 -17h-324q2 -117 43 -178.5t118 -61.5q104 0 157 112l24 -10q-58 -129 -187 -129q-104 0 -167.5 68.5t-63.5 180.5zM111 275h258q8 0 8 9q0 83 -33 126t-96 43q-59 0 -96.5 -49t-40.5 -129z " />
<glyph unicode="f" horiz-adv-x="363" d="M18 0v18h35q53 0 53 53v364h-88v26h88v121q0 75 46.5 121.5t122.5 46.5q83 0 138 -44v-71h-18v8q-16 43 -44 61.5t-76 18.5q-47 0 -72.5 -25t-25.5 -72v-165h134v-26h-147v-2q13 -7 13 -31v-356q0 -18 -8 -26v-2h84v-18h-235z" />
<glyph unicode="g" horiz-adv-x="505" d="M27 -98q0 39 28.5 72t77.5 49q-71 41 -71 128q0 39 42 70q-24 39 -24 93q0 74 45 119.5t119 45.5q62 0 105 -29q29 0 95 11h26v-26h-102q49 -46 49 -121q0 -74 -47.5 -119.5t-125.5 -45.5q-80 0 -126 54q-29 -17 -29 -52q0 -73 160 -90q117 -13 169 -52.5t52 -111.5 q0 -69 -57 -107.5t-153 -38.5q-105 0 -169 41.5t-64 109.5zM53 -98q0 -52 53 -79t154 -27q184 0 184 98q0 40 -42.5 61.5t-151.5 33.5q-45 5 -87 20q-56 -10 -83 -41t-27 -66zM146 328q0 -74 25.5 -113t73.5 -39q106 0 106 125q0 152 -106 152q-48 0 -73.5 -32t-25.5 -93z " />
<glyph unicode="h" horiz-adv-x="603" d="M18 0v18h35q36 0 44.5 8.5t8.5 44.5v604q0 36 -8.5 44.5t-44.5 8.5h-18v18l147 9v-8q-5 -50 -5 -58v-310q0 -23 -5 -31v-3h5q24 62 70.5 98t107.5 36q73 0 112 -38.5t39 -112.5v-257q0 -36 8.5 -44.5t44.5 -8.5h27v-18h-218v18h76v2q-9 9 -9 26v265q0 142 -88 142 q-76 0 -123 -64.5t-47 -170.5v-147q0 -36 9 -44.5t45 -8.5h35v-18h-248z" />
<glyph unicode="i" d="M18 0v18h35q36 0 44.5 8.5t8.5 44.5v320q0 36 -8.5 44.5t-44.5 8.5h-18v18l147 4v-8q-5 -50 -5 -53v-334q0 -36 9 -44.5t45 -8.5h35v-18h-248zM98 643q0 20 12 32t33 12q20 0 32 -11.5t12 -32.5q0 -20 -11.5 -32.5t-32.5 -12.5q-20 0 -32.5 12t-12.5 33z" />
<glyph unicode="j" horiz-adv-x="248" d="M-70 -232l8 28q63 -18 80 -18q42 0 65 29.5t23 77.5v506q0 36 -8.5 44.5t-44.5 8.5h-18v18l147 4v-8q-5 -50 -5 -53v-485q0 -76 -46 -122.5t-121 -46.5q-20 0 -80 17zM98 643q0 20 12 32t33 12q20 0 32 -11.5t12 -32.5q0 -20 -11.5 -32.5t-32.5 -12.5q-20 0 -32.5 12 t-12.5 33z" />
<glyph unicode="k" horiz-adv-x="541" d="M18 0v18h35q53 0 53 53v604q0 36 -8.5 44.5t-44.5 8.5h-18v18l147 4v-7q-5 -50 -5 -54v-447q0 -22 -3 -34l3 -2q4 12 18 29l133 170q24 31 40 37v2h-47v18h173v-18h-23q-41 0 -68.5 -11.5t-56.5 -48.5l-97 -124v-3q29 -10 52.5 -27.5t35.5 -33t37 -50.5l39 -55 q34 -50 51 -62q18 -12 37 -12q1 0 4.5 0.5t5.5 0.5l28 4l3 -18q-66 -22 -94 -22t-49.5 19t-57.5 69l-29 41q-9 12 -29.5 42.5t-33.5 47.5t-25 26l-47 -58v-123q0 -18 -8 -26v-2h66v-18h-217z" />
<glyph unicode="l" d="M18 0v18h35q53 0 53 53v604q0 36 -8.5 44.5t-44.5 8.5h-18v18l147 4v-7q-5 -50 -5 -54v-618q0 -53 54 -53h35v-18h-248z" />
<glyph unicode="m" horiz-adv-x="860" d="M18 0v18h35q36 0 44.5 8.5t8.5 44.5v320q0 36 -8.5 44.5t-44.5 8.5h-18v18l147 8v-7q-5 -50 -5 -58v-16q0 -23 -5 -31v-3h5q11 29 27.5 52t36.5 39t44.5 24.5t52.5 8.5q102 0 127 -87q2 -10 2 -21q0 -17 -2 -23h5q8 24 12 33q49 98 149 98q65 0 98.5 -34t33.5 -99v-275 q0 -36 9 -44.5t45 -8.5h26v-18h-218v18h76v2q-9 9 -9 26v282q0 125 -70 125q-68 0 -110 -63.5t-42 -167.5v-151q0 -36 9 -44.5t45 -8.5h26v-18h-209v18h67v2q-9 9 -9 26v282q0 125 -70 125q-68 0 -110 -63.5t-42 -167.5v-151q0 -36 9 -44.5t45 -8.5h35v-18h-248z" />
<glyph unicode="n" horiz-adv-x="603" d="M18 0v18h35q36 0 44.5 8.5t8.5 44.5v320q0 36 -8.5 44.5t-44.5 8.5h-18v18l147 8v-7q-5 -50 -5 -58v-26q0 -18 -5 -31v-3h5q23 61 70 97.5t108 36.5q73 0 112 -38.5t39 -112.5v-257q0 -36 8.5 -44.5t44.5 -8.5h27v-18h-218v18h76v2q-9 9 -9 26v265q0 142 -88 142 q-76 0 -123 -65.5t-47 -169.5v-147q0 -36 9 -44.5t45 -8.5h35v-18h-248z" />
<glyph unicode="o" horiz-adv-x="497" d="M35 231q0 112 59 180t155 68t154.5 -68t58.5 -180t-58.5 -180.5t-154.5 -68.5t-155 68.5t-59 180.5zM113 266q0 -125 35.5 -191t103.5 -66q64 0 98 47.5t34 138.5q0 125 -36 191.5t-103 66.5q-64 0 -98 -48t-34 -139z" />
<glyph unicode="p" horiz-adv-x="576" d="M18 -213h35q53 0 53 53v551q0 33 -6 44t-30 11q-2 0 -7.5 -0.5t-8.5 -0.5l-17 -1l-2 18l132 8v-7q0 -25 3 -58.5t3 -46.5h4q50 121 162 121q91 0 147 -68t56 -180t-55.5 -180.5t-146.5 -68.5q-55 0 -97 31.5t-66 90.5h-5v-3q5 -8 5 -32v-254q0 -18 -8 -26v-2h66v-18h-217 v18zM177 231q0 -98 41.5 -160t109.5 -62q65 0 99.5 57t34.5 165t-34.5 165t-99.5 57q-68 0 -109.5 -61t-41.5 -161z" />
<glyph unicode="q" horiz-adv-x="576" d="M35 231q0 110 56.5 179t146.5 69q114 0 161 -121h5q0 14 3.5 47t3.5 58v7l131 -8l-2 -18l-17 1q-3 0 -8.5 0.5t-7.5 0.5q-24 0 -30.5 -11t-6.5 -44v-551q0 -33 6.5 -44t30.5 -11q2 0 7.5 0.5t8.5 0.5l17 1l2 -18l-147 -9v8q0 24 2 53.5t2 45.5v202q0 23 6 32v3h-6 q-48 -122 -161 -122q-90 0 -146.5 69.5t-56.5 179.5zM115 231q0 -108 34.5 -165t99.5 -57q68 0 109 62t41 160t-41 160t-109 62q-65 0 -99.5 -57t-34.5 -165z" />
<glyph unicode="r" horiz-adv-x="445" d="M18 0v18h35q53 0 53 53v320q0 36 -8.5 44.5t-44.5 8.5h-18v18l147 13v-8q-5 -50 -5 -62v-38q0 -25 -5 -32v-2h5q24 71 66.5 113t102.5 42q82 0 82 -50q0 -18 -13 -31.5t-31 -13.5t-31.5 13.5t-13.5 31.5q0 12 7 23v1q-76 0 -122.5 -77t-46.5 -203v-111q0 -53 54 -53h35 v-18h-248z" />
<glyph unicode="s" horiz-adv-x="426" d="M35 138h27q1 -51 47.5 -90t103.5 -39q119 0 119 84q0 27 -28 52.5t-67.5 47.5t-79 45.5t-67.5 57t-28 73.5q0 50 41.5 80t109.5 30q69 0 110 -31q11 -9 15 -21h3q-3 24 -3 29l-2 23l18 1l8 -141l-26 -2l-1 15q-4 42 -36.5 71.5t-85.5 29.5q-93 0 -93 -62q0 -30 28.5 -58 t70 -50.5t82.5 -47t69.5 -57.5t28.5 -72q0 -56 -51 -90t-135 -34q-36 0 -76.5 13.5t-64.5 31.5q-9 6 -14 20l-4 -2q6 -14 6 -28l2 -34l-18 -1z" />
<glyph unicode="t" horiz-adv-x="408" d="M18 435v27h62q25 0 36 12.5t17 40.5l18 89l26 17v-127q0 -24 -13 -31v-1h218v-27h-205v-337q0 -89 72 -89q48 0 77 26.5t29 70.5h27q0 -56 -36.5 -90t-96.5 -34q-64 0 -103.5 39t-39.5 103v311h-88z" />
<glyph unicode="u" horiz-adv-x="576" d="M18 444v18l146 4v-8q-4 -40 -4 -53v-254q0 -142 88 -142q75 0 122 65.5t47 169.5v147q0 36 -8.5 44.5t-44.5 8.5h-18v18l147 4v-8q-5 -50 -5 -53v-334q0 -36 9 -44.5t45 -8.5h17v-18l-146 -9v8q4 40 4 57v26q0 23 6 32v2h-6q-23 -61 -70 -97.5t-108 -36.5 q-73 0 -111.5 38.5t-38.5 112.5v258q0 36 -9 44.5t-45 8.5h-17z" />
<glyph unicode="v" horiz-adv-x="514" d="M9 444v18h178v-18h-71v-2q18 -6 31 -38l117 -298q10 -24 10 -37v-2h9v2q0 11 13 42l110 280q8 24 8 29q0 24 -50 24h-37v18h179v-18h-13q-26 0 -35.5 -9t-22.5 -44l-156 -396l-41 -4l-158 400q-15 37 -23.5 45t-34.5 8h-13z" />
<glyph unicode="w" horiz-adv-x="781" d="M9 444v18h132v-4q0 -2 -0.5 -6t-0.5 -6q0 -21 8 -42l111 -298q8 -22 8 -37v-2h8v2q0 8 10 37l93 253l-12 32q-15 37 -23.5 45t-34.5 8h-24v18h195v-18h-77v-2q20 -7 31 -38l110 -298q8 -22 8 -37v-2h8v2q0 13 11 42l104 280q7 21 7 29q0 24 -49 24h-28v18h168v-18h-11 q-26 0 -35.5 -9.5t-22.5 -43.5l-147 -396l-42 -4l-122 329l-120 -324l-42 -5l-148 400q-15 37 -23.5 45t-34.5 8h-15z" />
<glyph unicode="x" horiz-adv-x="514" d="M18 0v18h19q30 0 44 11.5t44 57.5l101 153l-88 135q-29 45 -42 57t-34 12h-22v18h158v-18h-42v-2q23 -8 49 -46l74 -114l63 97q23 35 23 47q0 18 -54 18h-11v18h175v-18h-15q-30 0 -44 -11.5t-44 -57.5l-77 -117l112 -171q5 -8 12.5 -19.5t10.5 -16t8 -11.5t7.5 -9.5 t6.5 -6t7.5 -4t8.5 -1.5t11 -1h18v-18h-224v18h24q54 0 54 18q0 13 -22 47l-87 133l-87 -133q-22 -34 -22 -47q0 -18 54 -18h19v-18h-188z" />
<glyph unicode="y" horiz-adv-x="514" d="M9 444v18h178v-18h-71v-2q18 -6 31 -38l117 -298q7 -16 7 -42v-2l7 2l128 327q8 24 8 29q0 24 -50 24h-37v18h179v-18h-13q-26 0 -35.5 -9t-22.5 -44l-205 -520q-47 -120 -140 -120q-20 0 -80 17l10 43q60 -15 80 -15q72 0 104 82l32 81q2 4 2 15q0 18 -5 30l-153 387 q-15 37 -23.5 45t-34.5 8h-13z" />
<glyph unicode="z" horiz-adv-x="488" d="M27 0v18q2 0 4.5 1t5.5 3.5t5.5 5.5t7 9.5t9 12.5t12.5 16.5t15 20.5l209 282q7 9 18.5 25.5t18.5 24.5t13 13v3h-150q-78 0 -104.5 -18.5t-30.5 -88.5l-17 1l9 169l17 -1l-2 -44q9 9 26 9h351v-18q-8 0 -18 -12t-44 -57l-208 -283q-35 -47 -56 -62v-3h184 q76 0 102.5 17.5t30.5 82.5v7l18 -1l-9 -169l-18 1l2 44h-1q-9 -9 -26 -9h-374z" />
<glyph unicode="{" horiz-adv-x="275" d="M20 273v4q66 72 75 87q10 17 10 32q0 26 -20 120.5t-20 122.5q0 63 31.5 102.5t80.5 39.5h89v-18h-53q-40 0 -62.5 -23.5t-22.5 -62.5q0 -30 23 -137.5t23 -126.5q0 -20 -31 -51q-30 -31 -55 -54t-32 -31v-4q7 -8 32 -31t55 -54q31 -31 31 -51q0 -19 -23 -126t-23 -137 q0 -39 22.5 -63t62.5 -24h53v-18h-89q-49 0 -80.5 39.5t-31.5 102.5q0 29 20 124t20 120q0 5 -1 10t-3 10t-4 9.5t-7.5 11t-9 11t-11.5 13.5t-13.5 15l-16.5 18t-19 20z" />
<glyph unicode="|" horiz-adv-x="150" d="M53 -231v1012h45v-1012h-45z" />
<glyph unicode="}" horiz-adv-x="275" d="M9 -213h53q40 0 62.5 24t22.5 63q0 30 -22.5 137t-22.5 126q0 21 30 51q30 31 55 54t32 31v4q-7 8 -32 31t-55 54q-30 30 -30 51q0 19 22.5 126.5t22.5 137.5q0 39 -22.5 62.5t-62.5 23.5h-53v18h89q49 0 80.5 -39.5t31.5 -102.5q0 -28 -20 -122.5t-20 -120.5 q0 -19 13 -37.5t53 -61.5l10.5 -10.5t8.5 -9.5v-4q-8 -8 -19 -20l-16.5 -18t-13.5 -15t-11.5 -13.5t-9 -11t-7.5 -11t-4 -9.5t-3 -10t-1 -10q0 -25 20 -120t20 -124q0 -63 -31.5 -102.5t-80.5 -39.5h-89v18z" />
<glyph unicode="~" horiz-adv-x="461" d="M24 326l13 53q16 67 74 67q38 0 84.5 -30.5t90 -61t73.5 -30.5q32 0 40 38l12 53l26 -7l-12 -52q-18 -73 -78 -73q-31 0 -67.5 19t-64.5 42.5t-60 42.5t-56 19q-29 0 -37 -34l-12 -52z" />
<glyph unicode="&#xa1;" horiz-adv-x="230" d="M71 453q0 20 11.5 32t32.5 12q20 0 32.5 -11.5t12.5 -32.5q0 -20 -12 -32.5t-33 -12.5q-20 0 -32 12t-12 33zM80 -200q0 98 11 242t11 242h27q0 -98 11 -242t11 -242q0 -8 -36 -8q-35 0 -35 8z" />
<glyph unicode="&#xa2;" horiz-adv-x="443" d="M18 308q0 109 60.5 175.5t158.5 66.5v80h17v-80q61 -5 112 -42q7 -5 9 -17h3l-1 33h18v-133h-17v1q-7 57 -42 91t-82 40v-425q96 0 148 94l24 -11q-56 -107 -172 -110v-71h-17v71q-105 4 -162 73.5t-57 163.5zM93 321q0 -209 144 -223v426q-70 0 -107 -52t-37 -151z" />
<glyph unicode="&#xa3;" horiz-adv-x="568" d="M48 48q0 28 19.5 47.5t59.5 19.5q8 0 30 -2q12 71 12 184v18h-89v26h89v162q0 82 45 131.5t124 49.5q21 0 40 -3.5t32.5 -9.5t25 -13t20 -14.5t13.5 -13.5t9 -11l4 -5v-99h-17v11q0 64 -32.5 97.5t-94.5 33.5q-98 0 -98 -142v-174h151v-26h-165v-2q14 -7 14 -31 q0 -104 -23 -181q29 -7 83 -23t91.5 -25.5t60.5 -9.5q44 0 56 52l25 -6l-8 -35q-8 -36 -30 -54.5t-52 -18.5q-24 0 -58 10t-56 19t-67 30t-57 26q-35 -84 -97 -84q-26 0 -43 19t-17 47zM74 48q0 -18 9 -26.5t20 -8.5q32 0 49 73q-25 7 -37 7q-19 0 -30 -13.5t-11 -31.5z" />
<glyph unicode="&#xa4;" horiz-adv-x="337" d="M32 437l20 17l41 -41q33 25 74 25q44 0 78 -28l42 42l18 -20l-41 -41q26 -34 26 -76q0 -41 -25 -74l39 -39l-20 -17l-37 37q-33 -29 -80 -29q-41 0 -75 26l-40 -39l-17 20l37 38q-27 33 -27 77q0 47 29 80zM72 315q0 -39 28 -67.5t67 -28.5t67.5 28.5t28.5 67.5 t-28.5 67.5t-67.5 28.5q-40 0 -67.5 -28t-27.5 -68z" />
<glyph unicode="&#xa5;" horiz-adv-x="585" d="M9 648v18h181v-18h-60v-2q19 -7 39 -46l135 -267q1 -4 4.5 -11t5.5 -12.5t3 -8.5h3q1 3 3 8.5t5.5 12.5t4.5 11l125 253q14 30 14 41q0 12 -10.5 16.5t-34.5 4.5h-37v18h187v-18h-27q-22 0 -31.5 -10.5t-29.5 -51.5l-156 -312v-25h133l-4 -27h-129v-53h133l-4 -27h-129 v-71q0 -36 8.5 -44.5t44.5 -8.5h36v-18h-249v18h35q36 0 45 8.5t9 44.5v71h-138l5 27h133v53h-138l5 27h133v9l-166 330q-22 45 -33 52.5t-31 7.5h-23z" />
<glyph unicode="&#xa6;" horiz-adv-x="150" d="M53 177h45v-408h-45v408zM53 373v408h45v-408h-45z" />
<glyph unicode="&#xa7;" horiz-adv-x="568" d="M35 336q0 43 25 89t55 66q-26 37 -26 85q0 72 55 116.5t145 44.5q94 0 150 -56v82h18v-284h-18v84q0 58 -40 102.5t-110 44.5q-67 0 -102.5 -31.5t-35.5 -90.5q0 -17 4.5 -32t17 -28.5t20.5 -22t31 -20.5t31 -16t38 -17.5t35 -15.5q89 -41 118 -62q87 -62 87 -168 q0 -43 -25 -89.5t-54 -66.5q26 -37 26 -85q0 -72 -55 -116t-145 -44q-95 0 -151 56v-83h-18v284h18v-83q0 -57 40.5 -102.5t110.5 -45.5q67 0 102.5 32t35.5 91q0 17 -4.5 32t-17 28.5t-20.5 22t-31 20.5t-31 16t-38 17.5t-35 15.5q-88 41 -117 61q-89 63 -89 169zM89 344 q0 -23 5.5 -42t18 -35t23 -27t32 -22.5t32.5 -17t36.5 -16.5t33.5 -14q4 -2 20 -9t21 -9.5t19.5 -9t21 -10t18.5 -10t19.5 -12t17 -12t17 -13.5t14.5 -14q41 42 41 126q0 23 -5 42t-18 35t-23 26.5t-32 22.5t-32.5 17.5t-36.5 16.5t-33 14q-3 2 -10 5q-108 48 -147 84 l-11 11q-42 -43 -42 -127z" />
<glyph unicode="&#xa8;" horiz-adv-x="363" d="M35 599q0 26 12 38q11 11 37 11q27 0 38 -11t11 -38q0 -26 -11 -37q-10 -12 -38 -12q-25 0 -37 12t-12 37zM231 599q0 27 11 38t38 11q26 0 37 -11t11 -38q0 -26 -11 -37q-10 -12 -37 -12q-26 0 -38 12q-11 11 -11 37z" />
<glyph unicode="&#xa9;" horiz-adv-x="536" d="M27 444q0 60 33 114q31 50 85.5 81t123.5 31q68 0 123 -31.5t86 -80.5q32 -52 32 -114t-32 -114q-31 -49 -86 -80.5t-123 -31.5q-69 0 -123.5 31.5t-85.5 80.5q-33 54 -33 114zM53 444q0 -57 30.5 -102.5t76.5 -70.5q48 -26 109 -26q62 0 109.5 27t76.5 72t29 100 q0 39 -15.5 73.5t-38.5 58.5t-53 40q-49 27 -108 27q-41 0 -78 -13.5t-64 -35.5t-45 -50q-29 -45 -29 -100zM160 444q0 56 32 91t82 35q35 0 65 -19q5 -4 7 -12l2 1q0 1 -1 3t-1.5 4t-0.5 5l-1 21l9 1l4 -80h-13v1q-4 30 -23.5 45.5t-46.5 15.5q-75 0 -75 -106 q0 -56 21.5 -86t62.5 -30q51 0 78 47l12 -5q-29 -55 -93 -55q-52 0 -86 34t-34 89z" />
<glyph unicode="&#xaa;" horiz-adv-x="415" d="M35 451q0 57 55.5 96t143.5 39q33 0 50 -4v39q0 52 -22.5 79.5t-65.5 27.5q-76 0 -95 -64v-7h-18v62q44 36 112 36q71 0 108.5 -34.5t37.5 -100.5v-194q0 -28 7 -35t36 -7h14v-18l-105 -7v6q0 19 -3 41t-3 35h-4q-42 -89 -127 -89q-54 0 -87.5 27t-33.5 72zM95 451 q0 -73 61 -73q58 0 93 45.5t35 123.5v12q-18 5 -46 5q-70 0 -106.5 -29t-36.5 -84z" />
<glyph unicode="&#xab;" horiz-adv-x="452" d="M35 229v3l182 184l35 -37l-114 -98q-46 -44 -64 -48v-4q18 -4 64 -48l114 -99l-35 -36zM201 229v3l181 184l35 -37l-113 -98q-46 -44 -65 -48v-4q19 -4 65 -48l113 -99l-35 -36z" />
<glyph unicode="&#xac;" horiz-adv-x="372" d="M27 302l1 26h318v-201l-26 2v173h-293z" />
<glyph unicode="&#xad;" horiz-adv-x="239" d="M18 275l4 27h199l-4 -27h-199z" />
<glyph unicode="&#xae;" horiz-adv-x="536" d="M27 444q0 60 33 114q31 50 85.5 81t123.5 31q68 0 123 -31.5t86 -80.5q32 -52 32 -114t-32 -114q-31 -49 -86 -80.5t-123 -31.5q-69 0 -123.5 31.5t-85.5 80.5q-33 54 -33 114zM53 444q0 -57 30.5 -102.5t76.5 -70.5q48 -26 109 -26q62 0 109.5 27t76.5 72t29 100 q0 39 -15.5 73.5t-38.5 58.5t-53 40q-49 27 -108 27q-41 0 -78 -13.5t-64 -35.5t-45 -50q-29 -45 -29 -100zM154 315v8h13q17 0 20.5 3.5t3.5 20.5v199q0 16 -3.5 20t-20.5 4h-13v8h97q50 0 81 -21t31 -56q0 -29 -21 -50.5t-61 -26.5v-2q22 -6 39 -31l23 -35q1 -2 3 -5 q11 -16 16 -21.5t12 -5.5h4l13 3l1 -8q-36 -8 -39 -8q-11 0 -19.5 7.5t-22.5 28.5l-27 41q-13 19 -22 27t-23 8h-16v-76q0 -17 4 -20.5t20 -3.5h4v-8h-97zM215 566q8 -8 8 -23v-109h32q35 0 53.5 17.5t18.5 49.5q0 66 -72 66h-40v-1z" />
<glyph unicode="&#xaf;" horiz-adv-x="363" d="M35 577l5 27h288l-4 -27h-289z" />
<glyph unicode="&#xb0;" horiz-adv-x="230" d="M18 675q0 33 27.5 60.5t60.5 27.5t61 -27.5t28 -60.5q0 -34 -28 -61.5t-61 -27.5q-32 0 -60 28t-28 61zM62 675q0 -71 44 -71q45 0 45 71t-45 71q-44 0 -44 -71z" />
<glyph unicode="&#xb1;" horiz-adv-x="452" d="M35 391l2 26h178v182l26 -2v-180h178l-2 -26h-176v-175l-26 2v173h-180zM38 115l4 27h373l-4 -27h-373z" />
<glyph unicode="&#xb2;" horiz-adv-x="377" d="M35 402v43q29 4 64 42l107 117q74 80 74 142q0 93 -100 93q-48 0 -79 -25t-37 -61v-7h-18v100h18v-24q47 37 114 37q70 0 112.5 -33t42.5 -87q0 -31 -27 -74t-68 -79l-134 -118q-11 -9 -28 -15l2 -6q12 2 44 2h165q30 0 36.5 4.5t10.5 26.5h18l-6 -78h-311z" />
<glyph unicode="&#xb3;" horiz-adv-x="378" d="M31 439v70h18v-8q9 -40 38 -66t79 -26q58 0 89 30t31 87q0 124 -108 124h-12v20q47 0 71.5 22.5t24.5 65.5q0 81 -95 81q-50 0 -72.5 -23.5t-30.5 -62.5v-7h-18v99h18v-6q0 -11 -1 -15l2 -1q13 17 42.5 26.5t58.5 9.5q65 0 104 -27t39 -72q0 -36 -27 -63.5t-65 -34.5v-1 q56 -7 91 -44.5t35 -90.5q0 -62 -49 -99.5t-128 -37.5q-81 2 -135 50z" />
<glyph unicode="&#xb4;" horiz-adv-x="177" d="M23 574l97 117q5 5 10 5q3 0 9 -4l16 -13q5 -4 5 -10q0 -2 -4 -8l-13 -15l-106 -84z" />
<glyph unicode="&#xb5;" horiz-adv-x="594" d="M18 444v18l146 4v-8q-4 -40 -4 -53v-245q0 -151 106 -151q77 0 123 64.5t46 170.5v147q0 36 -8.5 44.5t-44.5 8.5h-18v18l146 4v-8q-4 -40 -4 -53v-334q0 -36 8.5 -44.5t44.5 -8.5h18v-18l-147 -9v8q5 50 5 57v26q0 24 5 32v2h-5q-24 -62 -70.5 -98t-107.5 -36 q-75 0 -118 35q-8 7 -14 16l-2 -1q1 -4 1 -21v-71q0 -21 11 -21q18 0 30 -13t12 -31t-13 -31t-31 -13t-31 13t-13 31v516q0 36 -9 44.5t-45 8.5h-17z" />
<glyph unicode="&#xb6;" horiz-adv-x="514" d="M18 579q0 62 38 100.5t100 38.5h341v-18q-48 0 -59.5 -10t-11.5 -52v-748q0 -42 11.5 -52.5t59.5 -10.5v-17h-142v819q0 42 -8.5 52t-44.5 10t-44.5 -10t-8.5 -52v-819h-143v17q48 0 59.5 10.5t11.5 52.5v551h-21q-62 0 -100 38t-38 100zM44 579q0 -50 31 -80.5t81 -30.5 h21v223h-21q-50 0 -81 -31t-31 -81z" />
<glyph unicode="&#xb7;" horiz-adv-x="195" d="M53 230q0 20 12 32.5t33 12.5q20 0 32 -12t12 -33q0 -20 -11.5 -32t-32.5 -12q-20 0 -32.5 11.5t-12.5 32.5z" />
<glyph unicode="&#xb8;" horiz-adv-x="372" d="M114 -213l3 18q45 0 76 25t31 63q0 21 -9.5 34t-27.5 13q-28 0 -44 -10l-13 2l15 70l18 -1l-11 -49q16 7 34 7q40 0 63 -22t23 -54q0 -41 -46 -68.5t-112 -27.5z" />
<glyph unicode="&#xb9;" horiz-adv-x="209" d="M18 402v18h21q29 0 36 6.5t7 34.5v279q0 29 2 38l-4 1q-9 -12 -19 -20l-22 -19l-16 12q59 57 95 107h17v-398q0 -28 7 -34.5t35 -6.5h15v-18h-174z" />
<glyph unicode="&#xba;" horiz-adv-x="411" d="M35 556q0 89 47 144t124 55q76 0 123 -55t47 -144t-47 -144t-123 -55q-77 0 -124 55t-47 144zM94 584q0 -97 29 -148.5t85 -51.5q110 0 110 143q0 97 -29.5 149t-85.5 52q-109 0 -109 -144z" />
<glyph unicode="&#xbb;" horiz-adv-x="452" d="M35 82l114 99q46 44 64 48v4q-18 4 -64 48l-114 98l36 37l181 -184v-3l-181 -183zM201 82l114 99q46 44 64 48v4q-18 4 -64 48l-114 98l35 37l181 -184v-3l-181 -183z" />
<glyph unicode="&#xbc;" horiz-adv-x="803" d="M18 239v17h21q29 0 36 6.5t7 34.5v279q0 29 2 38l-4 2q-11 -14 -19 -21l-22 -19l-16 12q57 55 95 108h17v-399q0 -28 7 -34.5t35 -6.5h15v-17h-174zM147 25l457 631l21 -15l-457 -632zM444 80v16q15 24 37.5 64t66 133.5t54.5 153.5h63l-189 -340h194v171h54v-171h47v-27 h-47v-33q0 -31 8 -39t39 -8h15v-18h-179v18h17q31 0 38.5 7.5t7.5 39.5v33h-226z" />
<glyph unicode="&#xbd;" horiz-adv-x="843" d="M18 239v17h21q29 0 36 6.5t7 34.5v279q0 30 2 39l-4 1q-11 -14 -19 -21l-22 -19l-16 12q57 55 95 108h17v-399q0 -28 7 -34.5t35 -6.5h15v-17h-174zM116 25l457 631l21 -15l-457 -632zM500 -18v43q28 3 64 43l107 116q74 80 74 142q0 93 -100 93q-48 0 -79 -25t-37 -61 v-7h-18v100h18v-23q45 36 114 36q70 0 112.5 -32.5t42.5 -86.5q0 -31 -27 -74.5t-68 -79.5l-134 -117q-13 -11 -28 -16l2 -5q6 1 44 1h165q29 0 36 5t11 27h18l-6 -79h-311z" />
<glyph unicode="&#xbe;" horiz-adv-x="945" d="M31 276v69h18v-7q9 -40 38 -66.5t79 -26.5q58 0 89 30.5t31 87.5q0 123 -108 123h-12v20q47 0 71.5 22.5t24.5 65.5q0 82 -95 82q-50 0 -72.5 -23.5t-30.5 -62.5v-8h-18v100h18v-6q0 -11 -1 -15l2 -1q13 16 43.5 26t57.5 10q64 0 103.5 -27.5t39.5 -72.5q0 -36 -27 -63 t-65 -34v-1q56 -7 91 -45t35 -91q0 -62 -49 -99.5t-128 -37.5q-33 0 -70.5 13.5t-64.5 37.5zM289 25l457 631l21 -15l-456 -632zM586 80v16q15 24 37.5 64t66 133.5t54.5 153.5h62l-188 -340h194v171h53v-171h48v-27h-48v-33q0 -31 7.5 -39t39.5 -8h15v-18h-178v18h17 q31 0 38.5 7.5t7.5 39.5v33h-226z" />
<glyph unicode="&#xbf;" horiz-adv-x="401" d="M20 -53q0 36 19.5 70.5t47.5 61.5t56 52t47.5 51t19.5 49v53h27v-53q0 -31 -14.5 -62t-35.5 -57t-42 -51.5t-35.5 -55t-14.5 -58.5q0 -65 31.5 -99.5t90.5 -34.5q64 0 92.5 36t38.5 96v11h18v-143h-18v20q-55 -44 -131 -46q-89 0 -143 44t-54 116zM179 453q0 20 12 32 t33 12q20 0 32 -11.5t12 -32.5q0 -20 -11.5 -32.5t-32.5 -12.5q-20 0 -32.5 12t-12.5 33z" />
<glyph unicode="&#xc0;" horiz-adv-x="630" d="M9 0v18h15q38 0 55 53l214 657h65v-5q0 -1 -0.5 -4.5t-0.5 -5.5q0 -34 10 -64l187 -578q12 -36 21.5 -44.5t37.5 -8.5h8v-18h-193v18h86v2q-21 8 -31 37l-44 138h-292l-41 -124q-3 -8 -3 -21q0 -32 46 -32h38v-18h-178zM155 222h275l-124 387q-7 22 -7 40h-7 q0 -10 -10 -40zM240 864q0 6 5 10l16 13q6 4 9 4q4 0 9 -5l98 -117l-14 -12l-107 84l-13 15q-3 4 -3 8z" />
<glyph unicode="&#xc1;" horiz-adv-x="630" d="M9 0v18h15q38 0 55 53l214 657h65v-5q0 -1 -0.5 -4.5t-0.5 -5.5q0 -34 10 -64l187 -578q12 -36 21.5 -44.5t37.5 -8.5h8v-18h-193v18h86v2q-21 8 -31 37l-44 138h-292l-41 -124q-3 -8 -3 -21q0 -32 46 -32h38v-18h-178zM155 222h275l-124 387q-7 22 -7 40h-7 q0 -10 -10 -40zM280 769l97 117q5 5 10 5q3 0 9 -4l16 -13q5 -4 5 -10q0 -2 -4 -8l-12 -15l-107 -84z" />
<glyph unicode="&#xc2;" horiz-adv-x="630" d="M9 0v18h15q38 0 55 53l214 657h65v-5q0 -1 -0.5 -4.5t-0.5 -5.5q0 -34 10 -64l187 -578q12 -36 21.5 -44.5t37.5 -8.5h8v-18h-193v18h86v2q-21 8 -31 37l-44 138h-292l-41 -124q-3 -8 -3 -21q0 -32 46 -32h38v-18h-178zM155 222h275l-124 387q-7 22 -7 40h-7 q0 -10 -10 -40zM212 791l102 100h28l103 -100l-25 -28l-37 43q-8 9 -19.5 20.5t-17 17.5t-10.5 13.5t-6 12.5h-4q-1 -5 -6 -12.5t-10 -13t-17 -18t-19 -20.5l-37 -43z" />
<glyph unicode="&#xc3;" horiz-adv-x="630" d="M9 0v18h15q38 0 55 53l214 657h65v-5q0 -1 -0.5 -4.5t-0.5 -5.5q0 -34 10 -64l187 -578q12 -36 21.5 -44.5t37.5 -8.5h8v-18h-193v18h86v2q-21 8 -31 37l-44 138h-292l-41 -124q-3 -8 -3 -21q0 -32 46 -32h38v-18h-178zM155 222h275l-124 387q-7 22 -7 40h-7 q0 -10 -10 -40zM171 791l8 31q19 69 66 69q29 0 89 -41.5t81 -41.5q28 0 37 36l8 30l26 -6l-8 -30q-20 -75 -70 -75q-30 0 -90 42t-80 42q-25 0 -33 -31l-8 -31z" />
<glyph unicode="&#xc4;" horiz-adv-x="630" d="M9 0v18h15q38 0 55 53l214 657h65v-5q0 -1 -0.5 -4.5t-0.5 -5.5q0 -34 10 -64l187 -578q12 -36 21.5 -44.5t37.5 -8.5h8v-18h-193v18h86v2q-21 8 -31 37l-44 138h-292l-41 -124q-3 -8 -3 -21q0 -32 46 -32h38v-18h-178zM155 222h275l-124 387q-7 22 -7 40h-7 q0 -10 -10 -40zM186 820q0 20 11.5 32t32.5 12q20 0 32.5 -11.5t12.5 -32.5q0 -20 -12 -32t-33 -12q-20 0 -32 11.5t-12 32.5zM381 820q0 20 12 32t33 12q20 0 32 -11.5t12 -32.5q0 -20 -11.5 -32t-32.5 -12q-20 0 -32.5 11.5t-12.5 32.5z" />
<glyph unicode="&#xc5;" horiz-adv-x="630" d="M9 0v18h15q38 0 55 53l211 647q-24 11 -40 33.5t-16 47.5q0 35 28 62t61 27t61 -27t28 -62q0 -25 -15.5 -47t-38.5 -33v-5q0 -38 9 -65l187 -578q12 -36 21.5 -44.5t37.5 -8.5h8v-18h-193v18h86v2q-21 8 -31 37l-44 138h-292l-41 -124q-3 -8 -3 -21q0 -32 46 -32h38v-18 h-178zM155 222h275l-124 387q-7 22 -7 40h-7q0 -10 -10 -40zM261 799q0 -23 20 -42.5t42 -19.5t42 19t20 43t-20 43t-42 19t-42 -19t-20 -43z" />
<glyph unicode="&#xc6;" horiz-adv-x="887" d="M4 0v18h12q38 0 55 53l206 578q11 33 11 56q0 1 -0.5 4t-0.5 5v5h449q18 0 27 -9h1l-3 50h18l11 -174h-18q-4 70 -27 88t-97 18h-186v-1q22 -22 22 -52v-248h102q44 0 57.5 18.5t13.5 87.5h18v-240h-18q0 70 -13.5 88.5t-57.5 18.5h-102v-284q0 -30 -22 -52v-1h248 q74 0 97 18t27 88h18l-11 -174l-18 1l3 49h-1q-9 -9 -26 -9h-475v18h36q36 0 44.5 8.5t8.5 44.5v124h-270l-44 -125q-5 -13 -5 -21q0 -31 47 -31h28v-18h-165zM153 222h260v399q0 63 -53 63h-48q-7 -39 -22 -79z" />
<glyph unicode="&#xc7;" horiz-adv-x="568" d="M35 362q0 169 78.5 272t206.5 103q96 0 163 -57q7 -7 10 -18h3q0 1 -1.5 9.5t-1.5 13.5l-3 51l18 1l9 -178l-27 -1l-2 16q-6 57 -52 96.5t-120 39.5q-97 0 -148 -83.5t-51 -243.5q0 -182 53 -278t153 -96q64 1 116.5 35t78.5 96l24 -10q-28 -71 -87.5 -109.5 t-134.5 -38.5q-13 0 -35 2l-7 -32q16 7 34 7q40 0 63.5 -22.5t23.5 -53.5q0 -41 -46 -68.5t-113 -27.5l3 18q45 0 76 25t31 63q0 21 -10 34t-28 13q-28 0 -44 -10l-12 2l11 55q-106 21 -169 122t-63 253z" />
<glyph unicode="&#xc8;" horiz-adv-x="585" d="M18 0v18h35q36 0 44.5 8.5t8.5 44.5v577q0 36 -8.5 44.5t-44.5 8.5h-35v18h434q18 0 27 -9h1l-3 50h17l12 -174h-18q-4 68 -34 87t-108 19h-191v-1q22 -22 22 -52v-248h88q46 0 63 19t17 87h18v-240h-18q0 68 -17 87.5t-63 19.5h-88v-284q0 -30 -22 -52v-1h249 q77 0 105.5 19t32.5 87h17l-11 -174l-18 1l3 49h-1q-9 -9 -27 -9h-487zM178 864q0 6 5 10l16 13q6 4 9 4q4 0 9 -5l98 -117l-14 -12l-107 84l-13 15q-3 4 -3 8z" />
<glyph unicode="&#xc9;" horiz-adv-x="585" d="M18 0v18h35q36 0 44.5 8.5t8.5 44.5v577q0 36 -8.5 44.5t-44.5 8.5h-35v18h434q18 0 27 -9h1l-3 50h17l12 -174h-18q-4 68 -34 87t-108 19h-191v-1q22 -22 22 -52v-248h88q46 0 63 19t17 87h18v-240h-18q0 68 -17 87.5t-63 19.5h-88v-284q0 -30 -22 -52v-1h249 q77 0 105.5 19t32.5 87h17l-11 -174l-18 1l3 49h-1q-9 -9 -27 -9h-487zM236 769l97 117q5 5 10 5q3 0 9 -4l16 -13q5 -4 5 -10q0 -2 -4 -8l-12 -15l-107 -84z" />
<glyph unicode="&#xca;" horiz-adv-x="585" d="M18 0v18h35q36 0 44.5 8.5t8.5 44.5v577q0 36 -8.5 44.5t-44.5 8.5h-35v18h434q18 0 27 -9h1l-3 50h17l12 -174h-18q-4 68 -34 87t-108 19h-191v-1q22 -22 22 -52v-248h88q46 0 63 19t17 87h18v-240h-18q0 68 -17 87.5t-63 19.5h-88v-284q0 -30 -22 -52v-1h249 q77 0 105.5 19t32.5 87h17l-11 -174l-18 1l3 49h-1q-9 -9 -27 -9h-487zM168 791l102 100h28l103 -100l-25 -28l-37 43q-8 9 -19.5 20.5t-17 17.5t-10.5 13.5t-6 12.5h-4q-1 -5 -6 -12.5t-10 -13t-17 -18t-19 -20.5l-37 -43z" />
<glyph unicode="&#xcb;" horiz-adv-x="585" d="M18 0v18h35q36 0 44.5 8.5t8.5 44.5v577q0 36 -8.5 44.5t-44.5 8.5h-35v18h434q18 0 27 -9h1l-3 50h17l12 -174h-18q-4 68 -34 87t-108 19h-191v-1q22 -22 22 -52v-248h88q46 0 63 19t17 87h18v-240h-18q0 68 -17 87.5t-63 19.5h-88v-284q0 -30 -22 -52v-1h249 q77 0 105.5 19t32.5 87h17l-11 -174l-18 1l3 49h-1q-9 -9 -27 -9h-487zM142 820q0 20 11.5 32t32.5 12q20 0 32.5 -11.5t12.5 -32.5q0 -20 -12 -32t-33 -12q-20 0 -32 11.5t-12 32.5zM337 820q0 20 12 32t33 12q20 0 32 -11.5t12 -32.5q0 -20 -11.5 -32t-32.5 -12 q-20 0 -32.5 11.5t-12.5 32.5z" />
<glyph unicode="&#xcc;" d="M18 0v18h35q36 0 44.5 8.5t8.5 44.5v577q0 36 -8.5 44.5t-44.5 8.5h-35v18h248v-18h-35q-36 0 -45 -8.5t-9 -44.5v-577q0 -36 9 -44.5t45 -8.5h35v-18h-248zM54 864q0 6 5 10l16 13q6 4 9 4q4 0 9 -5l98 -117l-14 -12l-107 84l-13 15q-3 4 -3 8z" />
<glyph unicode="&#xcd;" d="M18 0v18h35q36 0 44.5 8.5t8.5 44.5v577q0 36 -8.5 44.5t-44.5 8.5h-35v18h248v-18h-35q-36 0 -45 -8.5t-9 -44.5v-577q0 -36 9 -44.5t45 -8.5h35v-18h-248zM94 769l97 117q5 5 10 5q3 0 9 -4l16 -13q5 -4 5 -10q0 -2 -4 -8l-12 -15l-107 -84z" />
<glyph unicode="&#xce;" d="M18 0v18h35q36 0 44.5 8.5t8.5 44.5v577q0 36 -8.5 44.5t-44.5 8.5h-35v18h248v-18h-35q-36 0 -45 -8.5t-9 -44.5v-577q0 -36 9 -44.5t45 -8.5h35v-18h-248zM26 791l102 100h28l103 -100l-25 -28l-37 43q-8 9 -19.5 20.5t-17 17.5t-10.5 13.5t-6 12.5h-4q-1 -5 -6 -12.5 t-10 -13t-17 -18t-19 -20.5l-37 -43z" />
<glyph unicode="&#xcf;" d="M0 820q0 20 11.5 32t32.5 12q20 0 32.5 -11.5t12.5 -32.5q0 -20 -12 -32t-33 -12q-20 0 -32 11.5t-12 32.5zM18 0v18h35q36 0 44.5 8.5t8.5 44.5v577q0 36 -8.5 44.5t-44.5 8.5h-35v18h248v-18h-35q-36 0 -45 -8.5t-9 -44.5v-577q0 -36 9 -44.5t45 -8.5h35v-18h-248z M195 820q0 20 12 32t33 12q20 0 32 -11.5t12 -32.5q0 -20 -11.5 -32t-32.5 -12q-20 0 -32.5 11.5t-12.5 32.5z" />
<glyph unicode="&#xd0;" horiz-adv-x="656" d="M18 0v18h35q36 0 44.5 8.5t8.5 44.5v271h-71l5 44h66v262q0 36 -8.5 44.5t-44.5 8.5h-35v18h262q154 0 247.5 -98.5t93.5 -260.5t-93.5 -261t-247.5 -99h-262zM160 27h115q122 0 196.5 91.5t74.5 241.5t-74.5 241t-196.5 91h-115v-1q17 -17 17 -47v-258h165l-5 -44h-160 v-267q0 -30 -17 -47v-1z" />
<glyph unicode="&#xd1;" horiz-adv-x="656" d="M18 0v18h26q36 0 45 8.5t9 44.5v577q0 36 -9 44.5t-45 8.5h-26v18h147l345 -562q18 -31 18 -37h6q-1 11 -1 42v486q0 36 -9 44.5t-45 8.5h-26v18h186v-18h-26q-36 0 -45 -8.5t-9 -44.5v-657h-30l-380 619q-20 35 -20 39h-6q1 -11 1 -43v-535q0 -36 8.5 -44.5t44.5 -8.5 h36v-18h-195zM162 791l8 31q19 69 66 69q29 0 89 -41.5t81 -41.5q28 0 37 36l8 30l26 -6l-8 -30q-20 -75 -70 -75q-30 0 -90 42t-80 42q-25 0 -33 -31l-8 -31z" />
<glyph unicode="&#xd2;" horiz-adv-x="638" d="M35 360q0 169 78.5 273t206.5 104t206 -104t78 -273q0 -170 -78.5 -274t-205.5 -104q-128 0 -206.5 104.5t-78.5 273.5zM117 383q0 -182 53 -278t153 -96q97 0 148 83.5t51 243.5q0 182 -53 278t-153 96q-97 0 -148 -83.5t-51 -243.5zM231 864q0 6 5 10l16 13q6 4 9 4 q4 0 9 -5l98 -117l-14 -12l-107 84l-13 15q-3 4 -3 8z" />
<glyph unicode="&#xd3;" horiz-adv-x="638" d="M35 360q0 169 78.5 273t206.5 104t206 -104t78 -273q0 -170 -78.5 -274t-205.5 -104q-128 0 -206.5 104.5t-78.5 273.5zM117 383q0 -182 53 -278t153 -96q97 0 148 83.5t51 243.5q0 182 -53 278t-153 96q-97 0 -148 -83.5t-51 -243.5zM271 769l97 117q5 5 10 5q3 0 9 -4 l16 -13q5 -4 5 -10q0 -2 -4 -8l-12 -15l-107 -84z" />
<glyph unicode="&#xd4;" horiz-adv-x="638" d="M35 360q0 169 78.5 273t206.5 104t206 -104t78 -273q0 -170 -78.5 -274t-205.5 -104q-128 0 -206.5 104.5t-78.5 273.5zM117 383q0 -182 53 -278t153 -96q97 0 148 83.5t51 243.5q0 182 -53 278t-153 96q-97 0 -148 -83.5t-51 -243.5zM202 791l102 100h28l103 -100 l-25 -28l-37 43q-8 9 -19.5 20.5t-17 17.5t-10.5 13.5t-6 12.5h-4q-1 -5 -6 -12.5t-10 -13t-17 -18t-19 -20.5l-37 -43z" />
<glyph unicode="&#xd5;" horiz-adv-x="638" d="M35 360q0 169 78.5 273t206.5 104t206 -104t78 -273q0 -170 -78.5 -274t-205.5 -104q-128 0 -206.5 104.5t-78.5 273.5zM117 383q0 -182 53 -278t153 -96q97 0 148 83.5t51 243.5q0 182 -53 278t-153 96q-97 0 -148 -83.5t-51 -243.5zM162 791l8 31q19 69 66 69 q29 0 89 -41.5t81 -41.5q28 0 37 36l8 30l26 -6l-8 -30q-20 -75 -70 -75q-30 0 -90 42t-80 42q-25 0 -33 -31l-8 -31z" />
<glyph unicode="&#xd6;" horiz-adv-x="638" d="M35 360q0 169 78.5 273t206.5 104t206 -104t78 -273q0 -170 -78.5 -274t-205.5 -104q-128 0 -206.5 104.5t-78.5 273.5zM117 383q0 -182 53 -278t153 -96q97 0 148 83.5t51 243.5q0 182 -53 278t-153 96q-97 0 -148 -83.5t-51 -243.5zM178 820q0 20 11.5 32t32.5 12 q20 0 32.5 -11.5t12.5 -32.5q0 -20 -12 -32t-33 -12q-20 0 -32 11.5t-12 32.5zM373 820q0 20 12 32t33 12q20 0 32 -11.5t12 -32.5q0 -20 -11.5 -32t-32.5 -12q-20 0 -32.5 11.5t-12.5 32.5z" />
<glyph unicode="&#xd7;" horiz-adv-x="375" d="M35 420l27 24l125 -128l129 131l24 -26l-130 -128l128 -125l-26 -24l-125 126l-123 -126l-24 26l124 123z" />
<glyph unicode="&#xd8;" horiz-adv-x="638" d="M35 360q0 169 78.5 273t206.5 104q118 0 195 -91l60 81l21 -16l-64 -87q72 -103 72 -264q0 -170 -78.5 -274t-205.5 -104q-119 0 -196 91l-60 -81l-21 16l64 87q-72 103 -72 265zM117 383q0 -140 32 -231l330 444q-53 114 -163 114q-97 0 -148 -83.5t-51 -243.5zM161 123 q53 -114 162 -114q97 0 148 83.5t51 243.5q0 140 -32 231z" />
<glyph unicode="&#xd9;" horiz-adv-x="656" d="M18 701v18h248v-18h-44q-36 0 -44.5 -8.5t-8.5 -44.5v-471q0 -75 46.5 -121.5t117.5 -46.5q90 0 145 53.5t55 141.5l1 426q0 40 -9.5 55.5t-43.5 15.5h-37v18h195v-18h-26q-34 0 -43 -15.5t-9 -55.5l-2 -426q0 -100 -62 -161t-164 -61q-103 0 -169 61.5t-66 160.5v444 q0 36 -9 44.5t-45 8.5h-26zM254 864q0 6 5 10l16 13q6 4 9 4q4 0 9 -5l98 -117l-14 -12l-107 84l-13 15q-3 4 -3 8z" />
<glyph unicode="&#xda;" horiz-adv-x="656" d="M18 701v18h248v-18h-44q-36 0 -44.5 -8.5t-8.5 -44.5v-471q0 -75 46.5 -121.5t117.5 -46.5q90 0 145 53.5t55 141.5l1 426q0 40 -9.5 55.5t-43.5 15.5h-37v18h195v-18h-26q-34 0 -43 -15.5t-9 -55.5l-2 -426q0 -100 -62 -161t-164 -61q-103 0 -169 61.5t-66 160.5v444 q0 36 -9 44.5t-45 8.5h-26zM293 769l97 117q5 5 10 5q3 0 9 -4l16 -13q5 -4 5 -10q0 -2 -4 -8l-12 -15l-107 -84z" />
<glyph unicode="&#xdb;" horiz-adv-x="656" d="M18 701v18h248v-18h-44q-36 0 -44.5 -8.5t-8.5 -44.5v-471q0 -75 46.5 -121.5t117.5 -46.5q90 0 145 53.5t55 141.5l1 426q0 40 -9.5 55.5t-43.5 15.5h-37v18h195v-18h-26q-34 0 -43 -15.5t-9 -55.5l-2 -426q0 -100 -62 -161t-164 -61q-103 0 -169 61.5t-66 160.5v444 q0 36 -9 44.5t-45 8.5h-26zM225 791l102 100h28l103 -100l-25 -28l-37 43q-8 9 -19.5 20.5t-17 17.5t-10.5 13.5t-6 12.5h-4q-1 -5 -6 -12.5t-10 -13t-17 -18t-19 -20.5l-37 -43z" />
<glyph unicode="&#xdc;" horiz-adv-x="656" d="M18 701v18h248v-18h-44q-36 0 -44.5 -8.5t-8.5 -44.5v-471q0 -75 46.5 -121.5t117.5 -46.5q90 0 145 53.5t55 141.5l1 426q0 40 -9.5 55.5t-43.5 15.5h-37v18h195v-18h-26q-34 0 -43 -15.5t-9 -55.5l-2 -426q0 -100 -62 -161t-164 -61q-103 0 -169 61.5t-66 160.5v444 q0 36 -9 44.5t-45 8.5h-26zM200 820q0 20 11.5 32t32.5 12q20 0 32.5 -11.5t12.5 -32.5q0 -20 -12 -32t-33 -12q-20 0 -32 11.5t-12 32.5zM395 820q0 20 12 32t33 12q20 0 32 -11.5t12 -32.5q0 -20 -11.5 -32t-32.5 -12q-20 0 -32.5 11.5t-12.5 32.5z" />
<glyph unicode="&#xdd;" horiz-adv-x="647" d="M9 701v18h181v-18h-60v-2q19 -7 39 -46l168 -320q11 -20 13 -32h4q2 9 13 32l158 306q14 25 14 41q0 21 -46 21h-37v18h183v-18h-23q-22 0 -31 -10t-30 -51l-189 -366v-203q0 -36 8.5 -44.5t44.5 -8.5h36v-18h-249v18h36q36 0 44.5 8.5t8.5 44.5v188l-199 382 q-23 45 -32 52q-11 8 -32 8h-23zM276 769l97 117q5 5 10 5q3 0 9 -4l16 -13q5 -4 5 -10q0 -2 -4 -8l-12 -15l-107 -84z" />
<glyph unicode="&#xde;" horiz-adv-x="585" d="M18 0v18h35q36 0 44.5 8.5t8.5 44.5v577q0 36 -8.5 44.5t-44.5 8.5h-35v18h217v-18h-66v-2q8 -8 8 -26v-34h116q120 0 193 -58.5t73 -154.5t-73 -154.5t-193 -58.5h-116v-142q0 -36 9 -44.5t45 -8.5h35v-18h-248zM177 240h107q96 0 147 47.5t51 138.5t-51 139t-147 48 h-107v-373z" />
<glyph unicode="&#xdf;" horiz-adv-x="545" d="M18 0v18h17q36 0 45 8.5t9 44.5v364h-62v27h62v133q0 73 47.5 112t111.5 39q67 0 109 -34.5t42 -95.5q0 -31 -17 -59t-38 -45.5t-38 -43t-17 -51.5t24.5 -54t59.5 -54.5t70.5 -54.5t60 -64.5t24.5 -74.5q0 -60 -45 -96.5t-119 -36.5t-118 38q-8 8 -9 12l-3 -1q1 -4 1 -12 v-37h-17v147h26q0 -52 32.5 -86t87.5 -34q89 0 89 97q0 26 -20.5 54.5t-50 56t-59 56.5t-50 67t-20.5 78q0 29 15.5 56.5t33.5 46t33.5 44t15.5 52.5q0 48 -30 75t-74 27q-87 0 -87 -93v-570q0 -13 4 -53v-7z" />
<glyph unicode="&#xe0;" horiz-adv-x="505" d="M35 106q0 72 69.5 120.5t179.5 48.5q34 0 62 -5v50q0 133 -110 133q-51 0 -78 -18.5t-43 -62.5v-8h-17v71q55 44 137 44q89 0 135.5 -43t46.5 -125v-240q0 -31 5.5 -41t27.5 -10q3 0 9.5 0.5t10.5 0.5l17 1l1 -18l-131 -13v8q0 25 -4 52.5t-4 42.5h-4q-24 -52 -65 -82 t-93 -30q-68 0 -110 34t-42 90zM113 106q0 -97 74 -97q72 0 115.5 59.5t43.5 157.5v20q-30 6 -57 6q-85 0 -130.5 -37.5t-45.5 -108.5zM143 673q0 6 5 10l16 13q6 4 9 4q4 0 9 -5l98 -117l-14 -12l-107 84l-13 15q-3 4 -3 8z" />
<glyph unicode="&#xe1;" horiz-adv-x="505" d="M35 106q0 72 69.5 120.5t179.5 48.5q34 0 62 -5v50q0 133 -110 133q-51 0 -78 -18.5t-43 -62.5v-8h-17v71q55 44 137 44q89 0 135.5 -43t46.5 -125v-240q0 -31 5.5 -41t27.5 -10q3 0 9.5 0.5t10.5 0.5l17 1l1 -18l-131 -13v8q0 25 -4 52.5t-4 42.5h-4q-24 -52 -65 -82 t-93 -30q-68 0 -110 34t-42 90zM113 106q0 -97 74 -97q72 0 115.5 59.5t43.5 157.5v20q-30 6 -57 6q-85 0 -130.5 -37.5t-45.5 -108.5zM187 578l97 117q5 5 10 5q3 0 9 -4l16 -13q5 -4 5 -10q0 -2 -4 -8l-12 -15l-107 -84z" />
<glyph unicode="&#xe2;" horiz-adv-x="505" d="M35 106q0 72 69.5 120.5t179.5 48.5q34 0 62 -5v50q0 133 -110 133q-51 0 -78 -18.5t-43 -62.5v-8h-17v71q55 44 137 44q89 0 135.5 -43t46.5 -125v-240q0 -31 5.5 -41t27.5 -10q3 0 9.5 0.5t10.5 0.5l17 1l1 -18l-131 -13v8q0 25 -4 52.5t-4 42.5h-4q-24 -52 -65 -82 t-93 -30q-68 0 -110 34t-42 90zM113 106q0 -97 74 -97q72 0 115.5 59.5t43.5 157.5v20q-30 6 -57 6q-85 0 -130.5 -37.5t-45.5 -108.5zM119 600l102 100h28l103 -100l-25 -28l-37 43q-8 9 -19.5 20.5t-17 17.5t-10.5 13.5t-6 12.5h-4q-1 -5 -6 -12.5t-10 -13t-17 -18 t-19 -20.5l-37 -43z" />
<glyph unicode="&#xe3;" horiz-adv-x="505" d="M35 106q0 72 69.5 120.5t179.5 48.5q34 0 62 -5v50q0 133 -110 133q-51 0 -78 -18.5t-43 -62.5v-8h-17v71q55 44 137 44q89 0 135.5 -43t46.5 -125v-240q0 -31 5.5 -41t27.5 -10q3 0 9.5 0.5t10.5 0.5l17 1l1 -18l-131 -13v8q0 25 -4 52.5t-4 42.5h-4q-24 -52 -65 -82 t-93 -30q-68 0 -110 34t-42 90zM83 600l8 31q19 69 66 69q29 0 89 -41.5t81 -41.5q28 0 37 36l8 30l26 -6l-8 -30q-20 -75 -70 -75q-30 0 -90 42t-80 42q-25 0 -33 -31l-8 -31zM113 106q0 -97 74 -97q72 0 115.5 59.5t43.5 157.5v20q-30 6 -57 6q-85 0 -130.5 -37.5 t-45.5 -108.5z" />
<glyph unicode="&#xe4;" horiz-adv-x="505" d="M35 106q0 72 69.5 120.5t179.5 48.5q34 0 62 -5v50q0 133 -110 133q-51 0 -78 -18.5t-43 -62.5v-8h-17v71q55 44 137 44q89 0 135.5 -43t46.5 -125v-240q0 -31 5.5 -41t27.5 -10q3 0 9.5 0.5t10.5 0.5l17 1l1 -18l-131 -13v8q0 25 -4 52.5t-4 42.5h-4q-24 -52 -65 -82 t-93 -30q-68 0 -110 34t-42 90zM93 629q0 20 11.5 32t32.5 12q20 0 32.5 -11.5t12.5 -32.5q0 -20 -12 -32t-33 -12q-20 0 -32 11.5t-12 32.5zM113 106q0 -97 74 -97q72 0 115.5 59.5t43.5 157.5v20q-30 6 -57 6q-85 0 -130.5 -37.5t-45.5 -108.5zM288 629q0 20 12 32t33 12 q20 0 32 -11.5t12 -32.5q0 -20 -11.5 -32t-32.5 -12q-20 0 -32.5 11.5t-12.5 32.5z" />
<glyph unicode="&#xe5;" horiz-adv-x="505" d="M35 106q0 72 69.5 120.5t179.5 48.5q34 0 62 -5v50q0 133 -110 133q-51 0 -78 -18.5t-43 -62.5v-8h-17v71q55 44 137 44q89 0 135.5 -43t46.5 -125v-240q0 -31 5.5 -41t27.5 -10q3 0 9.5 0.5t10.5 0.5l17 1l1 -18l-131 -13v8q0 25 -4 52.5t-4 42.5h-4q-24 -52 -65 -82 t-93 -30q-68 0 -110 34t-42 90zM113 106q0 -97 74 -97q72 0 115.5 59.5t43.5 157.5v20q-30 6 -57 6q-85 0 -130.5 -37.5t-45.5 -108.5zM147 629q0 35 27.5 62t60.5 27t61 -27t28 -62t-28 -62t-61 -27t-60.5 27.5t-27.5 61.5zM173 629q0 -23 20 -42.5t42 -19.5t42 19t20 43 t-20 43t-42 19t-42 -19t-20 -43z" />
<glyph unicode="&#xe6;" horiz-adv-x="798" d="M35 106q0 72 69.5 120.5t179.5 48.5h62v45q0 133 -110 133q-51 0 -78 -18.5t-43 -62.5v-8h-17v71q55 44 137 44q97 0 139 -51q19 -23 19 -47v-5h5v5q0 7 7.5 21t14.5 21q61 57 152 57q78 0 134.5 -53t56.5 -143v-27q0 -8 -8 -8h-334q2 -117 43.5 -178.5t118.5 -61.5 q104 0 157 112l23 -10q-58 -129 -186 -129q-136 0 -199 113q-15 24 -15 43v5h-4v-5q0 -18 -14 -46q-50 -110 -159 -110q-68 0 -109.5 34.5t-41.5 89.5zM113 106q0 -97 74 -97q72 0 115.5 59.5t43.5 157.5v23h-62q-83 0 -127 -37t-44 -106zM422 275h257q9 0 9 9 q0 82 -33.5 125.5t-96.5 43.5q-59 0 -96 -48.5t-40 -129.5z" />
<glyph unicode="&#xe7;" horiz-adv-x="470" d="M35 228q0 113 61 182t159 69q68 0 121 -36q9 -7 14 -24l4 1q-5 18 -5 25l-2 43l18 1l8 -160l-26 -1l-1 3q-8 62 -43 92t-88 30q-71 0 -108.5 -54.5t-37.5 -157.5q0 -113 41.5 -172.5t121.5 -59.5q94 0 147 94l25 -11q-58 -110 -178 -110q-21 0 -41 3l-7 -33q16 7 33 7 q40 0 63.5 -22.5t23.5 -53.5q0 -41 -46 -68.5t-113 -27.5l4 18q45 0 75.5 25t30.5 63q0 21 -9.5 34t-27.5 13q-28 0 -44 -10l-13 2l12 57q-79 18 -125.5 82t-46.5 157z" />
<glyph unicode="&#xe8;" horiz-adv-x="488" d="M35 231q0 112 62.5 180t164.5 68q78 0 134.5 -52.5t56.5 -142.5v-18q0 -17 -18 -17h-324q2 -117 43 -178.5t118 -61.5q104 0 157 112l24 -10q-58 -129 -187 -129q-104 0 -167.5 68.5t-63.5 180.5zM111 275h258q8 0 8 9q0 83 -33 126t-96 43q-59 0 -96.5 -49t-40.5 -129z M165 669q0 6 5 10l16 13q6 4 9 4q4 0 9 -5l98 -117l-14 -12l-107 84l-13 15q-3 5 -3 8z" />
<glyph unicode="&#xe9;" horiz-adv-x="488" d="M35 231q0 112 62.5 180t164.5 68q78 0 134.5 -52.5t56.5 -142.5v-18q0 -17 -18 -17h-324q2 -117 43 -178.5t118 -61.5q104 0 157 112l24 -10q-58 -129 -187 -129q-104 0 -167.5 68.5t-63.5 180.5zM111 275h258q8 0 8 9q0 83 -33 126t-96 43q-59 0 -96.5 -49t-40.5 -129z M209 574l97 117q5 5 10 5q3 0 9 -4l16 -13q5 -4 5 -10q0 -2 -4 -8l-12 -15l-107 -84z" />
<glyph unicode="&#xea;" horiz-adv-x="488" d="M35 231q0 112 62.5 180t164.5 68q78 0 134.5 -52.5t56.5 -142.5v-18q0 -17 -18 -17h-324q2 -117 43 -178.5t118 -61.5q104 0 157 112l24 -10q-58 -129 -187 -129q-104 0 -167.5 68.5t-63.5 180.5zM111 275h258q8 0 8 9q0 83 -33 126t-96 43q-59 0 -96.5 -49t-40.5 -129z M141 596l102 100h28l103 -100l-25 -28l-37 43q-8 9 -19.5 20.5t-17 17.5t-10.5 13.5t-6 12.5h-4q-1 -5 -6 -12.5t-10 -13t-17 -18t-19 -20.5l-37 -43z" />
<glyph unicode="&#xeb;" horiz-adv-x="488" d="M35 231q0 112 62.5 180t164.5 68q78 0 134.5 -52.5t56.5 -142.5v-18q0 -17 -18 -17h-324q2 -117 43 -178.5t118 -61.5q104 0 157 112l24 -10q-58 -129 -187 -129q-104 0 -167.5 68.5t-63.5 180.5zM111 275h258q8 0 8 9q0 83 -33 126t-96 43q-59 0 -96.5 -49t-40.5 -129z M115 625q0 20 11.5 32t32.5 12q20 0 32.5 -11.5t12.5 -32.5q0 -20 -12 -32t-33 -12q-20 0 -32 11.5t-12 32.5zM310 625q0 20 12 32t33 12q20 0 32 -11.5t12 -32.5q0 -20 -11.5 -32t-32.5 -12q-20 0 -32.5 11.5t-12.5 32.5z" />
<glyph unicode="&#xec;" d="M18 0v18h35q36 0 44.5 8.5t8.5 44.5v320q0 36 -8.5 44.5t-44.5 8.5h-18v18l147 4v-8q-5 -50 -5 -53v-334q0 -36 9 -44.5t45 -8.5h35v-18h-248zM54 669q0 6 5 10l16 13q6 4 9 4q4 0 9 -5l98 -117l-14 -12l-107 84l-13 15q-3 5 -3 8z" />
<glyph unicode="&#xed;" d="M18 0v18h35q36 0 44.5 8.5t8.5 44.5v320q0 36 -8.5 44.5t-44.5 8.5h-18v18l147 4v-8q-5 -50 -5 -53v-334q0 -36 9 -44.5t45 -8.5h35v-18h-248zM94 574l97 117q5 5 10 5q3 0 9 -4l16 -13q5 -4 5 -10q0 -2 -4 -8l-12 -15l-107 -84z" />
<glyph unicode="&#xee;" d="M18 0v18h35q36 0 44.5 8.5t8.5 44.5v320q0 36 -8.5 44.5t-44.5 8.5h-18v18l147 4v-8q-5 -50 -5 -53v-334q0 -36 9 -44.5t45 -8.5h35v-18h-248zM26 596l102 100h28l103 -100l-25 -28l-37 43q-8 9 -19.5 20.5t-17 17.5t-10.5 13.5t-6 12.5h-4q-1 -5 -6 -12.5t-10 -13 t-17 -18t-19 -20.5l-37 -43z" />
<glyph unicode="&#xef;" d="M0 625q0 20 11.5 32t32.5 12q20 0 32.5 -11.5t12.5 -32.5q0 -20 -12 -32t-33 -12q-20 0 -32 11.5t-12 32.5zM18 0v18h35q36 0 44.5 8.5t8.5 44.5v320q0 36 -8.5 44.5t-44.5 8.5h-18v18l147 4v-8q-5 -50 -5 -53v-334q0 -36 9 -44.5t45 -8.5h35v-18h-248zM195 625 q0 20 12 32t33 12q20 0 32 -11.5t12 -32.5q0 -20 -11.5 -32t-32.5 -12q-20 0 -32.5 11.5t-12.5 32.5z" />
<glyph unicode="&#xf0;" horiz-adv-x="497" d="M35 231q0 112 56.5 180t148.5 68q83 0 127 -61q-6 59 -30 112.5t-60 71.5l-36 -50l-27 12l36 49q-29 10 -100 21l9 31q70 -11 111 -26l34 49l28 -11l-36 -49q77 -38 121.5 -137.5t44.5 -259.5q0 -112 -58.5 -180.5t-154.5 -68.5t-155 68.5t-59 180.5zM109 266 q0 -125 36.5 -191t106.5 -66q67 0 101.5 47.5t34.5 138.5q0 64 -2 95q-7 79 -46 121t-104 42q-62 0 -94.5 -48t-32.5 -139z" />
<glyph unicode="&#xf1;" horiz-adv-x="603" d="M18 0v18h35q36 0 44.5 8.5t8.5 44.5v320q0 36 -8.5 44.5t-44.5 8.5h-18v18l147 8v-7q-5 -50 -5 -58v-26q0 -18 -5 -31v-3h5q23 61 70 97.5t108 36.5q73 0 112 -38.5t39 -112.5v-257q0 -36 8.5 -44.5t44.5 -8.5h27v-18h-218v18h76v2q-9 9 -9 26v265q0 142 -88 142 q-76 0 -123 -65.5t-47 -169.5v-147q0 -36 9 -44.5t45 -8.5h35v-18h-248zM149 596l8 31q19 69 66 69q29 0 89 -41.5t81 -41.5q28 0 37 36l8 30l26 -6l-8 -30q-20 -75 -70 -75q-30 0 -90 42t-80 42q-25 0 -33 -31l-8 -31z" />
<glyph unicode="&#xf2;" horiz-adv-x="497" d="M35 231q0 112 59 180t155 68t154.5 -68t58.5 -180t-58.5 -180.5t-154.5 -68.5t-155 68.5t-59 180.5zM113 266q0 -125 35.5 -191t103.5 -66q64 0 98 47.5t34 138.5q0 125 -36 191.5t-103 66.5q-64 0 -98 -48t-34 -139zM154 669q0 6 5 10l16 13q6 4 9 4q4 0 9 -5l98 -117 l-14 -12l-107 84l-13 15q-3 5 -3 8z" />
<glyph unicode="&#xf3;" horiz-adv-x="497" d="M35 231q0 112 59 180t155 68t154.5 -68t58.5 -180t-58.5 -180.5t-154.5 -68.5t-155 68.5t-59 180.5zM113 266q0 -125 35.5 -191t103.5 -66q64 0 98 47.5t34 138.5q0 125 -36 191.5t-103 66.5q-64 0 -98 -48t-34 -139zM200 574l97 117q5 5 10 5q3 0 9 -4l16 -13 q5 -4 5 -10q0 -2 -4 -8l-12 -15l-107 -84z" />
<glyph unicode="&#xf4;" horiz-adv-x="497" d="M35 231q0 112 59 180t155 68t154.5 -68t58.5 -180t-58.5 -180.5t-154.5 -68.5t-155 68.5t-59 180.5zM113 266q0 -125 35.5 -191t103.5 -66q64 0 98 47.5t34 138.5q0 125 -36 191.5t-103 66.5q-64 0 -98 -48t-34 -139zM132 596l102 100h28l103 -100l-25 -28l-37 43 q-8 9 -19.5 20.5t-17 17.5t-10.5 13.5t-6 12.5h-4q-1 -5 -6 -12.5t-10 -13t-17 -18t-19 -20.5l-37 -43z" />
<glyph unicode="&#xf5;" horiz-adv-x="497" d="M35 231q0 112 59 180t155 68t154.5 -68t58.5 -180t-58.5 -180.5t-154.5 -68.5t-155 68.5t-59 180.5zM91 596l8 31q19 69 66 69q29 0 89 -41.5t81 -41.5q28 0 37 36l8 30l26 -6l-8 -30q-20 -75 -70 -75q-30 0 -90 42t-80 42q-25 0 -33 -31l-8 -31zM113 266 q0 -125 35.5 -191t103.5 -66q64 0 98 47.5t34 138.5q0 125 -36 191.5t-103 66.5q-64 0 -98 -48t-34 -139z" />
<glyph unicode="&#xf6;" horiz-adv-x="497" d="M35 231q0 112 59 180t155 68t154.5 -68t58.5 -180t-58.5 -180.5t-154.5 -68.5t-155 68.5t-59 180.5zM107 625q0 20 11.5 32t32.5 12q20 0 32.5 -11.5t12.5 -32.5q0 -20 -12 -32t-33 -12q-20 0 -32 11.5t-12 32.5zM113 266q0 -125 35.5 -191t103.5 -66q64 0 98 47.5 t34 138.5q0 125 -36 191.5t-103 66.5q-64 0 -98 -48t-34 -139zM302 625q0 20 12 32t33 12q20 0 32 -11.5t12 -32.5q0 -20 -11.5 -32t-32.5 -12q-20 0 -32.5 11.5t-12.5 32.5z" />
<glyph unicode="&#xf7;" horiz-adv-x="465" d="M35 275l5 36h390l-4 -36h-391zM191 146q0 20 11.5 32.5t32.5 12.5q20 0 32.5 -12t12.5 -33q0 -20 -12 -32t-33 -12q-20 0 -32 11.5t-12 32.5zM191 439q0 20 11.5 32.5t32.5 12.5q20 0 32.5 -12t12.5 -33q0 -20 -12 -32t-33 -12q-20 0 -32 11.5t-12 32.5z" />
<glyph unicode="&#xf8;" horiz-adv-x="497" d="M35 231q0 109 59 176.5t155 67.5q77 0 131 -45l36 49l21 -17l-38 -50q63 -68 63 -181q0 -110 -58.5 -177t-154.5 -67q-79 0 -132 44l-35 -48l-22 16l38 51q-63 68 -63 181zM109 266q0 -103 26 -166l214 288q-36 60 -104 60q-67 0 -101.5 -46.5t-34.5 -135.5zM148 73 q36 -60 104 -60q67 0 101.5 46.5t34.5 135.5q0 104 -26 167z" />
<glyph unicode="&#xf9;" horiz-adv-x="576" d="M18 444v18l146 4v-8q-4 -40 -4 -53v-254q0 -142 88 -142q75 0 122 65.5t47 169.5v147q0 36 -8.5 44.5t-44.5 8.5h-18v18l147 4v-8q-5 -50 -5 -53v-334q0 -36 9 -44.5t45 -8.5h17v-18l-146 -9v8q4 40 4 57v26q0 23 6 32v2h-6q-23 -61 -70 -97.5t-108 -36.5 q-73 0 -111.5 38.5t-38.5 112.5v258q0 36 -9 44.5t-45 8.5h-17zM200 669q0 6 5 10l16 13q6 4 9 4q4 0 9 -5l98 -117l-14 -12l-107 84l-13 15q-3 5 -3 8z" />
<glyph unicode="&#xfa;" horiz-adv-x="576" d="M18 444v18l146 4v-8q-4 -40 -4 -53v-254q0 -142 88 -142q75 0 122 65.5t47 169.5v147q0 36 -8.5 44.5t-44.5 8.5h-18v18l147 4v-8q-5 -50 -5 -53v-334q0 -36 9 -44.5t45 -8.5h17v-18l-146 -9v8q4 40 4 57v26q0 23 6 32v2h-6q-23 -61 -70 -97.5t-108 -36.5 q-73 0 -111.5 38.5t-38.5 112.5v258q0 36 -9 44.5t-45 8.5h-17zM240 574l97 117q5 5 10 5q3 0 9 -4l16 -13q5 -4 5 -10q0 -2 -4 -8l-12 -15l-107 -84z" />
<glyph unicode="&#xfb;" horiz-adv-x="576" d="M18 444v18l146 4v-8q-4 -40 -4 -53v-254q0 -142 88 -142q75 0 122 65.5t47 169.5v147q0 36 -8.5 44.5t-44.5 8.5h-18v18l147 4v-8q-5 -50 -5 -53v-334q0 -36 9 -44.5t45 -8.5h17v-18l-146 -9v8q4 40 4 57v26q0 23 6 32v2h-6q-23 -61 -70 -97.5t-108 -36.5 q-73 0 -111.5 38.5t-38.5 112.5v258q0 36 -9 44.5t-45 8.5h-17zM172 596l102 100h28l103 -100l-25 -28l-37 43q-8 9 -19.5 20.5t-17 17.5t-10.5 13.5t-6 12.5h-4q-1 -5 -6 -12.5t-10 -13t-17 -18t-19 -20.5l-37 -43z" />
<glyph unicode="&#xfc;" horiz-adv-x="576" d="M18 444v18l146 4v-8q-4 -40 -4 -53v-254q0 -142 88 -142q75 0 122 65.5t47 169.5v147q0 36 -8.5 44.5t-44.5 8.5h-18v18l147 4v-8q-5 -50 -5 -53v-334q0 -36 9 -44.5t45 -8.5h17v-18l-146 -9v8q4 40 4 57v26q0 23 6 32v2h-6q-23 -61 -70 -97.5t-108 -36.5 q-73 0 -111.5 38.5t-38.5 112.5v258q0 36 -9 44.5t-45 8.5h-17zM146 625q0 20 11.5 32t32.5 12q20 0 32.5 -11.5t12.5 -32.5q0 -20 -12 -32t-33 -12q-20 0 -32 11.5t-12 32.5zM341 625q0 20 12 32t33 12q20 0 32 -11.5t12 -32.5q0 -20 -11.5 -32t-32.5 -12q-20 0 -32.5 11.5 t-12.5 32.5z" />
<glyph unicode="&#xfd;" horiz-adv-x="514" d="M9 444v18h178v-18h-71v-2q18 -6 31 -38l117 -298q7 -16 7 -42v-2l7 2l128 327q8 24 8 29q0 24 -50 24h-37v18h179v-18h-13q-26 0 -35.5 -9t-22.5 -44l-205 -520q-47 -120 -140 -120q-20 0 -80 17l10 43q60 -15 80 -15q72 0 104 82l32 81q2 4 2 15q0 18 -5 30l-153 387 q-15 37 -23.5 45t-34.5 8h-13zM216 574l97 117q5 5 10 5q3 0 9 -4l16 -13q5 -4 5 -10q0 -2 -4 -8l-12 -15l-107 -84z" />
<glyph unicode="&#xfe;" horiz-adv-x="576" d="M18 -195h35q53 0 53 53v817q0 36 -8.5 44.5t-44.5 8.5h-18v18l147 4v-7q-5 -50 -5 -54v-299q0 -20 -4 -30v-2h4q23 57 67 87t96 30q91 0 146.5 -67t55.5 -177t-55.5 -177t-146.5 -67q-52 0 -96 30t-67 87h-5v-3q5 -8 5 -32v-236q0 -19 -8 -27v-1h66v-18h-217v18zM177 231 q0 -98 41.5 -158t109.5 -60q67 0 102.5 56t35.5 162t-35.5 161.5t-102.5 55.5q-68 0 -109.5 -59.5t-41.5 -157.5z" />
<glyph unicode="&#xff;" horiz-adv-x="514" d="M9 444v18h178v-18h-71v-2q18 -6 31 -38l117 -298q7 -16 7 -42v-2l7 2l128 327q8 24 8 29q0 24 -50 24h-37v18h179v-18h-13q-26 0 -35.5 -9t-22.5 -44l-205 -520q-47 -120 -140 -120q-20 0 -80 17l10 43q60 -15 80 -15q72 0 104 82l32 81q2 4 2 15q0 18 -5 30l-153 387 q-15 37 -23.5 45t-34.5 8h-13zM129 625q0 20 11.5 32t32.5 12q20 0 32.5 -11.5t12.5 -32.5q0 -20 -12 -32t-33 -12q-20 0 -32 11.5t-12 32.5zM324 625q0 20 12 32t33 12q20 0 32 -11.5t12 -32.5q0 -20 -11.5 -32t-32.5 -12q-20 0 -32.5 11.5t-12.5 32.5z" />
<glyph unicode="&#x152;" horiz-adv-x="914" d="M35 371q0 165 76 265.5t200 100.5q25 0 86 -9t92 -9h274q18 0 27 -9h1l-4 50h18l12 -174h-18q-4 70 -27 88t-97 18h-187v-1q22 -22 22 -52v-266h111q42 0 52.5 17t10.5 89h17v-239h-17q0 72 -10.5 89t-52.5 17h-111v-266q0 -30 -22 -52v-1h249q74 0 97 18t27 88h18 l-12 -174l-17 1l3 49h-1q-9 -9 -27 -9h-336q-31 0 -92 -9t-86 -9q-124 0 -200 107t-76 282zM113 391q0 -187 52 -284.5t150 -97.5q48 0 86 25.5t38 58.5v533q0 34 -40 59t-92 25q-94 0 -144 -82t-50 -237z" />
<glyph unicode="&#x153;" horiz-adv-x="838" d="M35 231q0 111 59 179.5t155 68.5q93 0 154 -67q21 -25 21 -44v-4h4v4q0 20 23 43q66 69 162 69q78 0 134 -53t56 -143v-27q0 -8 -8 -8h-334q2 -117 43.5 -178.5t118.5 -61.5q103 0 156 112l24 -10q-58 -129 -186 -129q-98 0 -166 69q-23 23 -23 42v5h-4v-5q0 -18 -21 -43 q-57 -68 -154 -68q-95 0 -154.5 68.5t-59.5 180.5zM109 266q0 -125 36.5 -191t106.5 -66q67 0 101.5 47.5t34.5 138.5q0 125 -36.5 191.5t-106.5 66.5q-67 0 -101.5 -48t-34.5 -139zM462 275h270q0 84 -35 131t-99 47q-59 0 -96 -48.5t-40 -129.5z" />
<glyph unicode="&#x178;" horiz-adv-x="647" d="M9 701v18h181v-18h-60v-2q19 -7 39 -46l168 -320q11 -20 13 -32h4q2 9 13 32l158 306q14 25 14 41q0 21 -46 21h-37v18h183v-18h-23q-22 0 -31 -10t-30 -51l-189 -366v-203q0 -36 8.5 -44.5t44.5 -8.5h36v-18h-249v18h36q36 0 44.5 8.5t8.5 44.5v188l-199 382 q-23 45 -32 52q-11 8 -32 8h-23zM186 820q0 20 11.5 32t32.5 12q20 0 32.5 -11.5t12.5 -32.5q0 -20 -12 -32t-33 -12q-20 0 -32 11.5t-12 32.5zM381 820q0 20 12 32t33 12q20 0 32 -11.5t12 -32.5q0 -20 -11.5 -32t-32.5 -12q-20 0 -32.5 11.5t-12.5 32.5z" />
<glyph unicode="&#x2c6;" horiz-adv-x="286" d="M27 596l102 100h28l103 -100l-25 -28l-37 43q-8 9 -19.5 20.5t-17 17.5t-10.5 13.5t-6 12.5h-4q-1 -5 -6 -12.5t-10 -13t-17 -18t-19 -20.5l-37 -43z" />
<glyph unicode="&#x2dc;" horiz-adv-x="363" d="M25 596l8 31q19 69 66 69q29 0 89 -41.5t81 -41.5q28 0 37 36l8 30l26 -6l-8 -30q-20 -75 -70 -75q-30 0 -90 42t-80 42q-25 0 -33 -31l-8 -31z" />
<glyph unicode="&#x2000;" horiz-adv-x="445" />
<glyph unicode="&#x2001;" horiz-adv-x="891" />
<glyph unicode="&#x2002;" horiz-adv-x="445" />
<glyph unicode="&#x2003;" horiz-adv-x="891" />
<glyph unicode="&#x2004;" horiz-adv-x="297" />
<glyph unicode="&#x2005;" horiz-adv-x="222" />
<glyph unicode="&#x2006;" horiz-adv-x="148" />
<glyph unicode="&#x2007;" horiz-adv-x="148" />
<glyph unicode="&#x2008;" horiz-adv-x="111" />
<glyph unicode="&#x2009;" horiz-adv-x="178" />
<glyph unicode="&#x200a;" horiz-adv-x="49" />
<glyph unicode="&#x2010;" horiz-adv-x="248" d="M18 275l4 27h209l-5 -27h-208z" />
<glyph unicode="&#x2011;" horiz-adv-x="248" d="M18 275l4 27h209l-5 -27h-208z" />
<glyph unicode="&#x2012;" horiz-adv-x="248" d="M18 275l4 27h209l-5 -27h-208z" />
<glyph unicode="&#x2013;" horiz-adv-x="454" d="M18 275v27h419v-27h-419z" />
<glyph unicode="&#x2014;" horiz-adv-x="908" d="M18 275v27h873v-27h-873z" />
<glyph unicode="&#x2018;" horiz-adv-x="195" d="M53 604q0 51 21 78t60 46l7 -15q-46 -21 -61 -56q-6 -15 -8 -18l5 -3q8 12 20 12q45 0 45 -44q0 -45 -45 -45q-20 0 -32 12.5t-12 32.5z" />
<glyph unicode="&#x2019;" horiz-adv-x="195" d="M53 683q0 45 45 45q20 0 32 -12.5t12 -32.5q0 -51 -21 -78t-60 -46l-7 15q46 21 61 56q5 15 8 18l-5 3q-8 -12 -20 -12q-45 0 -45 44z" />
<glyph unicode="&#x201a;" horiz-adv-x="195" d="M53 35q0 45 45 45q20 0 32 -12.5t12 -32.5q0 -51 -21 -78t-60 -46l-7 15q46 21 61 56q5 15 8 18l-5 3q-8 -12 -20 -12q-45 0 -45 44z" />
<glyph unicode="&#x201c;" horiz-adv-x="348" d="M53 604q0 51 21 78t60 46l7 -15q-46 -21 -61 -56q-6 -15 -8 -18l5 -3q8 12 20 12q45 0 45 -44q0 -45 -45 -45q-20 0 -32 12.5t-12 32.5zM206 604q0 51 21 78t60 46l7 -15q-46 -21 -61 -56q-6 -15 -8 -18l5 -3q8 12 20 12q45 0 45 -44q0 -45 -45 -45q-20 0 -32 12.5 t-12 32.5z" />
<glyph unicode="&#x201d;" horiz-adv-x="348" d="M53 683q0 45 45 45q20 0 32 -12.5t12 -32.5q0 -51 -21 -78t-60 -46l-7 15q46 21 61 56q5 15 8 18l-5 3q-8 -12 -20 -12q-45 0 -45 44zM206 683q0 45 45 45q20 0 32 -12.5t12 -32.5q0 -51 -21 -78t-60 -46l-7 15q46 21 61 56q6 15 8 18l-5 3q-8 -12 -20 -12q-45 0 -45 44z " />
<glyph unicode="&#x201e;" horiz-adv-x="348" d="M53 35q0 45 45 45q20 0 32 -12.5t12 -32.5q0 -51 -21 -78t-60 -46l-7 15q46 21 61 56q5 15 8 18l-5 3q-8 -12 -20 -12q-45 0 -45 44zM206 35q0 45 45 45q20 0 32 -12.5t12 -32.5q0 -51 -21 -78t-60 -46l-7 15q46 21 61 56q6 15 8 18l-5 3q-8 -12 -20 -12q-45 0 -45 44z " />
<glyph unicode="&#x2022;" horiz-adv-x="248" d="M53 360q0 29 21 49.5t50 20.5t50 -20.5t21 -49.5t-21 -50t-50 -21t-50 21t-21 50z" />
<glyph unicode="&#x2026;" horiz-adv-x="568" d="M53 35q0 20 12 32.5t33 12.5q20 0 32 -12t12 -33q0 -20 -11.5 -32t-32.5 -12q-20 0 -32.5 11.5t-12.5 32.5zM230 35q0 20 12 32.5t33 12.5q20 0 32 -12t12 -33q0 -20 -11.5 -32t-32.5 -12q-20 0 -32.5 11.5t-12.5 32.5zM408 35q0 20 12 32.5t33 12.5q20 0 32 -12t12 -33 q0 -20 -11.5 -32t-32.5 -12q-20 0 -32.5 11.5t-12.5 32.5z" />
<glyph unicode="&#x202f;" horiz-adv-x="178" />
<glyph unicode="&#x2039;" d="M32 229v3l181 184l36 -37l-114 -98q-46 -44 -64 -48v-4q18 -4 64 -48l114 -99l-36 -36z" />
<glyph unicode="&#x203a;" d="M35 82l114 99q46 44 64 48v4q-18 4 -64 48l-114 98l36 37l181 -184v-3l-181 -183z" />
<glyph unicode="&#x205f;" horiz-adv-x="222" />
<glyph unicode="&#x20ac;" horiz-adv-x="585" d="M13 262l9 35h68q-1 12 -1 38t1 38h-68l9 35h63q17 127 89.5 201.5t180.5 74.5q41 0 74 -10.5t46.5 -20t33.5 -26.5q7 -7 10 -18h4q0 3 -2 10.5t-2 12.5l-3 51l18 1l9 -178l-26 -1l-2 16q-6 58 -48 97t-116 39q-86 0 -135 -63.5t-57 -185.5h307l-9 -35h-300v-17 q0 -21 2 -59h289l-9 -35h-277q28 -253 197 -253q124 2 177 131l23 -10q-58 -148 -204 -148q-108 0 -180.5 76t-89.5 204h-81z" />
<glyph unicode="&#x2122;" horiz-adv-x="674" d="M18 686l4 77l9 -1l-1 -16h220l-1 16l8 1l5 -77h-9q-2 29 -8.5 35.5t-34.5 6.5h-48v-241q0 -14 3.5 -17.5t17.5 -3.5h13v-9h-113v9h15q14 0 17.5 3.5t3.5 17.5v241h-46q-29 0 -37 -7t-9 -35h-9zM265 457v9h6q16 0 19.5 3.5t5.5 20.5l16 231q0 2 0.5 4t0.5 3q0 7 -3.5 9 t-16.5 2h-16v9h76l100 -233q5 -10 5 -17h3q0 5 6 17l100 233h76v-9h-15q-13 0 -17 -3t-4 -13q0 -1 0.5 -4t0.5 -5l15 -224q1 -17 4.5 -20.5t20.5 -3.5h9v-9h-115v9h15q16 0 20.5 3t4.5 12v4l-14 201q0 2 -0.5 8t-0.5 8h-2q0 -1 -1 -3.5t-3 -6t-3 -6.5l-99 -231h-25l-97 226 q-6 12 -6 16h-3v-16l-15 -196v-6q0 -8 4.5 -10.5t20.5 -2.5h19v-9h-92z" />
<glyph unicode="&#xe000;" horiz-adv-x="460" d="M0 0v460h460v-460h-460z" />
<glyph unicode="&#xfb02;" horiz-adv-x="638" d="M18 0v18h35q53 0 53 53v364h-88v26h88v121q0 76 41.5 122t109.5 46q58 0 98 -22v-63h-18v8q-17 50 -80 50q-80 0 -80 -97v-165h160v-26h-173v-2q13 -7 13 -31v-356q0 -18 -8 -26v-2h84v-18h-235zM373 0v18h35q54 0 54 53v604q0 36 -9 44.5t-45 8.5h-17v18l146 4v-7 q-4 -40 -4 -54v-618q0 -53 53 -53h35v-18h-248z" />
</font>
</defs>
</svg>
