<?xml version="1.0" standalone="no"?>
<!DOCTYPE svg PUBLIC "-//W3C//DTD SVG 1.1//EN" "http://www.w3.org/Graphics/SVG/1.1/DTD/svg11.dtd" >
<svg xmlns="http://www.w3.org/2000/svg">
<metadata></metadata>
<defs>
<font id="amaranthregular" horiz-adv-x="500" >
<font-face units-per-em="1000" ascent="750" descent="-250" />
<missing-glyph horiz-adv-x="255" />
<glyph horiz-adv-x="1000" />
<glyph horiz-adv-x="1000" />
<glyph unicode="&#xd;" horiz-adv-x="1000" />
<glyph unicode=" "  horiz-adv-x="255" />
<glyph unicode="&#x09;" horiz-adv-x="255" />
<glyph unicode="&#xa0;" horiz-adv-x="255" />
<glyph unicode="!" horiz-adv-x="319" d="M101 63q0 34 19.5 55.5t55.5 21.5q35 0 54 -20.5t19 -54.5q0 -33 -20 -54.5t-56 -21.5q-33 0 -52.5 21.5t-19.5 52.5zM127 220v457h127l-29 -457h-98z" />
<glyph unicode="&#x22;" horiz-adv-x="366" d="M50 677h96l-8 -243h-80zM219 677h96l-8 -243h-80z" />
<glyph unicode="#" horiz-adv-x="616" d="M40 143l10 78h105l20 157h-112l10 78h112l18 137h79l-18 -137h124l18 137h79l-18 -137h99l-10 -78h-99l-20 -157h106l-10 -78h-106l-18 -143h-79l18 143h-124l-18 -143h-79l18 143h-105zM234 221h124l20 157h-124z" />
<glyph unicode="$" horiz-adv-x="519" d="M50 69l43 88q93 -56 150 -56q100 0 100 83q0 19 -5.5 32.5t-21.5 24t-27.5 15.5t-40.5 16q-90 35 -133.5 76.5t-43.5 110.5q0 57 42 100t110 56v79h82v-77q86 -10 145 -45l-40 -82q-2 1 -13.5 6.5t-19 9t-22 9t-26 8.5t-26.5 5.5t-29 2.5q-37 0 -62 -14.5t-25 -44.5 q0 -38 27 -60.5t88 -45.5q81 -32 118.5 -70t37.5 -104q0 -62 -40 -112t-113 -65v-98h-82v94q-89 8 -173 58z" />
<glyph unicode="%" horiz-adv-x="840" d="M40 410q0 81 39 131t114 50q148 0 148 -174q0 -80 -39.5 -130t-114.5 -50q-147 0 -147 173zM138 416q0 -52 11.5 -80t43.5 -28q29 0 39.5 27t10.5 77q0 52 -11.5 80t-44.5 28q-49 0 -49 -104zM237 0l274 587h94l-274 -587h-94zM499 170q0 82 39 131.5t114 49.5 q147 0 147 -174q0 -80 -39 -130t-114 -50q-147 0 -147 173zM597 176q0 -52 11.5 -80t43.5 -28q29 0 39.5 27t10.5 77q0 52 -12 80t-44 28q-49 0 -49 -104z" />
<glyph unicode="&#x26;" horiz-adv-x="574" d="M35 169q0 118 109 194q-23 46 -23 90q0 60 42.5 101t128.5 41q93 0 150 -72l-58 -63q-1 1 -11 9t-18.5 14.5t-23.5 12t-31 5.5q-30 0 -46 -14t-16 -39q0 -45 44 -100t131 -132q21 34 40 79l84 -34q-33 -72 -55 -106l97 -84l-57 -76l-102 83q-87 -84 -204 -84 q-72 0 -126.5 48t-54.5 127zM153 184q0 -43 25.5 -67.5t70.5 -24.5q52 0 100 46q-110 94 -156 152q-40 -44 -40 -106z" />
<glyph unicode="'" horiz-adv-x="196" d="M50 677h96l-8 -243h-80z" />
<glyph unicode="(" horiz-adv-x="383" d="M70 269q0 91 22 171.5t57 136t67.5 91.5t64.5 58l62 -68q-26 -22 -50.5 -53t-51 -78.5t-42.5 -115t-16 -143.5q0 -101 29.5 -187t62 -130t68.5 -74l-62 -68q-32 23 -64.5 58.5t-67.5 91t-57 137t-22 173.5z" />
<glyph unicode=")" horiz-adv-x="383" d="M71 -123q36 30 68.5 74t62 130t29.5 187q0 76 -16 143.5t-42.5 115t-51 78.5t-50.5 53l61 68q32 -22 64.5 -58t67.5 -91.5t57 -136t22 -171.5q0 -92 -22 -173.5t-57 -137t-67.5 -91t-64.5 -58.5z" />
<glyph unicode="*" horiz-adv-x="450" d="M50 518l30 91l103 -43l-9 111h96l-10 -114l110 46l30 -91l-113 -27l76 -87l-78 -57l-61 99l-62 -100l-78 57l77 89z" />
<glyph unicode="+" horiz-adv-x="512" d="M60 257v89h149v152h94v-152h149v-89h-149v-158h-94v158h-149z" />
<glyph unicode="," horiz-adv-x="280" d="M40 -89q66 48 66 114q0 22 -9.5 55t-9.5 43q18 18 66 18q33 0 50 -20t17 -54q0 -75 -38.5 -129.5t-98.5 -84.5z" />
<glyph unicode="-" horiz-adv-x="383" d="M50 278v83h283v-83h-283z" />
<glyph unicode="." horiz-adv-x="269" d="M60 63q0 34 20 55.5t56 21.5q34 0 53 -20.5t19 -54.5q0 -33 -20 -54.5t-55 -21.5q-34 0 -53.5 21.5t-19.5 52.5z" />
<glyph unicode="/" horiz-adv-x="417" d="M-10 -126l318 855h119l-318 -855h-119z" />
<glyph unicode="0" horiz-adv-x="563" d="M45 311q0 157 59 244t184 87q120 0 175 -79.5t55 -235.5q0 -157 -59 -245t-184 -88q-120 0 -175 80t-55 237zM169 322q0 -55 4.5 -94.5t16.5 -75t36.5 -53.5t60.5 -18q59 0 82.5 60t23.5 174q0 55 -4.5 94.5t-16.5 74.5t-36 53t-61 18q-59 0 -82.5 -59t-23.5 -174z" />
<glyph unicode="1" horiz-adv-x="385" d="M0 504q43 18 66 29t60.5 38.5t73.5 65.5h85v-637h-114v504q-72 -67 -126 -82z" />
<glyph unicode="2" horiz-adv-x="492" d="M35 0l1 94q12 14 70 74.5t67 69.5q83 96 110 140t27 93q0 38 -21.5 61t-55.5 23q-15 0 -29 -2t-32 -8t-26.5 -9.5t-34 -14.5t-33.5 -14l-39 79q124 56 218 56q79 0 128 -40.5t49 -132.5q0 -61 -38.5 -122.5t-123.5 -154.5l-92 -101h271v-91h-416z" />
<glyph unicode="3" d="M35 46l34 83q40 -18 57 -25.5t44 -15t49 -7.5q49 0 84 30t35 85q0 45 -26.5 74t-63.5 29q-25 0 -97 -12l-31 78q10 4 31 10.5t31.5 10.5t28 10.5t27 11t22.5 12t19.5 14.5t13.5 16t10 19.5t3 22.5q0 30 -19.5 46.5t-55.5 16.5q-11 0 -20.5 -0.5t-20 -3t-17.5 -4t-20 -6 t-18.5 -7t-23 -9t-24.5 -9.5l-39 77q57 26 99.5 37.5t99.5 11.5q86 0 132 -38t46 -101q0 -89 -102 -136q61 -18 96 -65t35 -104q0 -86 -55.5 -145t-176.5 -59q-74 0 -187 52z" />
<glyph unicode="4" horiz-adv-x="525" d="M20 176v64l182 397h117l-175 -375h156v204l113 20v-224h97l-16 -86h-81v-176h-113v176h-280z" />
<glyph unicode="5" horiz-adv-x="509" d="M45 46l34 83q4 -2 21.5 -9.5t21.5 -9.5t18.5 -8t19.5 -7.5t16.5 -5t18.5 -5t16.5 -2.5t18.5 -1q57 0 82 31t25 95q0 52 -27 80t-73 28q-19 0 -36.5 -2t-29.5 -4.5t-23.5 -6.5t-17.5 -6.5t-12 -5.5l-6 -3l-47 35l34 315h328l-16 -91h-212l-21 -161q27 19 101 19 q81 0 131 -56.5t50 -141.5q0 -89 -51 -151t-157 -62q-91 0 -207 53z" />
<glyph unicode="6" horiz-adv-x="524" d="M45 318q0 66 15.5 122.5t47 102t85 71.5t123.5 26q64 0 127 -27l-31 -79q-52 18 -100 18q-80 0 -111 -53.5t-34 -149.5q54 64 134 64q87 0 137.5 -55t50.5 -153q0 -92 -58.5 -151.5t-162.5 -59.5q-223 0 -223 324zM167 280q4 -105 29.5 -153t80.5 -48q48 0 72 33.5 t24 91.5q0 123 -94 123q-35 0 -67 -17t-45 -30z" />
<glyph unicode="7" horiz-adv-x="458" d="M5 637h417v-72l-201 -565h-123l194 546h-271z" />
<glyph unicode="8" horiz-adv-x="524" d="M50 159q0 55 33.5 94.5t89.5 74.5q-106 61 -106 160q0 64 57.5 109t141.5 45q79 0 133 -43t54 -107q0 -85 -103 -157q52 -28 88 -73.5t36 -96.5q0 -76 -61 -123.5t-152 -47.5t-151 42.5t-60 122.5zM169 163q0 -38 27 -64t73 -26q37 0 60 26t23 62q0 61 -88 126 q-95 -54 -95 -124zM185 493q0 -70 77 -114q34 19 53 44.5t19 67.5q0 31 -19.5 51.5t-52.5 20.5q-35 0 -56 -18.5t-21 -51.5z" />
<glyph unicode="9" horiz-adv-x="523" d="M35 429q0 93 58.5 152t163.5 59q222 0 222 -324q0 -90 -26 -160t-88.5 -116t-155.5 -46q-65 0 -128 27l31 79q54 -18 101 -18q79 0 110 53.5t34 147.5q-52 -62 -134 -62q-87 0 -137.5 55t-50.5 153zM151 430q0 -123 94 -123q45 0 112 45q-3 105 -28.5 154t-80.5 49 q-49 0 -73 -33.5t-24 -91.5z" />
<glyph unicode=":" horiz-adv-x="289" d="M91 63q0 34 19.5 55.5t55.5 21.5q35 0 54 -20.5t19 -54.5q0 -33 -20 -54.5t-56 -21.5q-33 0 -52.5 21.5t-19.5 52.5zM91 432q0 34 19.5 56t55.5 22q35 0 54 -20.5t19 -54.5q0 -33 -20 -54.5t-56 -21.5q-33 0 -52.5 21t-19.5 52z" />
<glyph unicode=";" horiz-adv-x="289" d="M60 -89q66 48 66 114q0 22 -9.5 55t-9.5 43q18 18 65 18q34 0 51 -20t17 -54q0 -75 -39 -129.5t-99 -84.5zM90 432q0 34 20 56t56 22q34 0 53 -20.5t19 -54.5q0 -33 -20 -54.5t-55 -21.5q-34 0 -53.5 21t-19.5 52z" />
<glyph unicode="&#x3c;" horiz-adv-x="455" d="M30 259v82l339 165l40 -93l-194 -87q-10 -5 -61 -26q55 -23 62 -26l199 -91l-40 -93z" />
<glyph unicode="=" horiz-adv-x="503" d="M70 173v88h363v-88h-363zM70 348v88h363v-88h-363z" />
<glyph unicode="&#x3e;" horiz-adv-x="455" d="M40 183l199 91q31 14 62 26q-40 16 -61 26l-194 87l40 93l339 -165v-82l-345 -169z" />
<glyph unicode="?" horiz-adv-x="433" d="M40 637q108 50 179 50q190 0 190 -150q0 -27 -8 -53.5t-26 -55t-30 -44t-38 -47.5q-68 -85 -84 -140l-84 23q0 47 22 94.5t49 79.5t49 67.5t22 61.5q0 36 -21 56.5t-56 20.5q-11 0 -21 -1.5t-17 -3t-19.5 -6.5t-18.5 -7.5t-23.5 -11t-25.5 -12.5zM112 63q0 34 19.5 55.5 t55.5 21.5q35 0 54 -20.5t19 -54.5q0 -33 -20 -54.5t-56 -21.5q-33 0 -52.5 21.5t-19.5 52.5z" />
<glyph unicode="@" horiz-adv-x="894" d="M55 199q0 98 38 178.5t100 131.5t139 78.5t159 27.5q71 0 133.5 -21t112 -61.5t78.5 -106.5t29 -149q0 -38 -10 -83.5t-29.5 -91.5t-55 -77t-80.5 -31q-98 0 -128 115q-27 -115 -142 -115q-82 0 -123.5 59.5t-41.5 164.5q0 103 60 170t155 67q32 0 76.5 -6.5t72.5 -12.5 l28 -7v-212q0 -69 10 -106.5t41 -37.5q22 0 39.5 23.5t26.5 58t13 64t4 50.5q0 131 -80 200t-200 69q-86 0 -162 -37t-127 -115t-51 -183q0 -58 12.5 -106t41 -90.5t83.5 -66.5t133 -24q35 0 78.5 9.5t65.5 17.5t28 11l27 -69q-5 -3 -29.5 -13t-74 -22t-94.5 -12 q-71 0 -131.5 18t-112.5 57.5t-82 112.5t-30 173zM346 227q0 -35 3 -61t10 -49t21.5 -35.5t35.5 -12.5q42 0 73 51t31 117v134q-37 10 -60 10q-57 0 -85.5 -41.5t-28.5 -112.5z" />
<glyph unicode="A" horiz-adv-x="605" d="M-5 0l260 677h94l261 -677h-127l-62 177h-244l-64 -177h-118zM209 265h181q-50 142 -90 279q-48 -157 -91 -279z" />
<glyph unicode="B" horiz-adv-x="565" d="M70 0v677q6 0 88 1t113 1q115 0 176 -46t61 -130q0 -99 -102 -151q59 -22 91 -64.5t32 -97.5q0 -89 -66.5 -140t-195.5 -51q-42 0 -117 0.5t-80 0.5zM189 86h86q65 0 96 28.5t31 77.5q0 48 -32 80t-106 32q-57 0 -75 -1v-217zM189 389h77q60 0 88.5 27.5t28.5 72.5 t-29.5 75t-97.5 30q-51 0 -67 -1v-204z" />
<glyph unicode="C" horiz-adv-x="523" d="M47 330q0 163 75 259.5t220 96.5q99 0 161 -72l-61 -73q-50 53 -112 53q-41 0 -71.5 -19.5t-48.5 -54.5t-26 -79.5t-8 -99.5q0 -255 163 -255q14 0 29.5 2t28 4.5t25 6t20.5 6t14.5 5t8.5 2.5l28 -84l-3 -1t-8.5 -3t-12.5 -4.5t-17 -5.5t-21 -6t-24.5 -5.5t-27.5 -4.5 t-30.5 -3t-32.5 -1q-133 0 -201 86t-68 250zM493 28z" />
<glyph unicode="D" horiz-adv-x="643" d="M70 0v677q5 0 82.5 1t113.5 1q334 0 334 -336q0 -345 -347 -345q-49 0 -114.5 1t-68.5 1zM189 88q15 -1 79 -1q203 0 203 245q0 258 -219 258q-17 0 -38 -0.5t-25 -0.5v-501z" />
<glyph unicode="E" horiz-adv-x="513" d="M70 0v677h402v-90h-283v-189h233l-15 -91h-218v-217h298v-90h-417z" />
<glyph unicode="F" horiz-adv-x="488" d="M70 0v677h402v-90h-283v-195h233l-15 -90h-218v-302h-119z" />
<glyph unicode="G" horiz-adv-x="605" d="M43 329q0 163 75 260t221 97q117 0 184 -71l-58 -76q-55 55 -140 55q-80 0 -116.5 -69.5t-36.5 -185.5q0 -254 132 -254q50 0 92 42.5t42 109.5v91h117v-301q0 -39 -6.5 -71.5t-22 -57t-29 -41.5t-38.5 -33.5t-39.5 -24.5t-42.5 -22l-46 79q34 17 58 39t36 40.5t18 46 t6.5 42t0.5 41.5v14q-47 -87 -169 -87q-121 0 -179.5 89.5t-58.5 247.5z" />
<glyph unicode="H" horiz-adv-x="657" d="M70 0v677h119v-282h279v282h119v-677h-119v308h-279v-308h-119z" />
<glyph unicode="I" horiz-adv-x="259" d="M70 0v677h119v-677h-119z" />
<glyph unicode="J" horiz-adv-x="259" d="M-35 -144q30 15 51 33t31.5 32.5t16 34t6 29.5t0.5 28v664h119v-652q0 -46 -12 -84t-26 -60.5t-43 -45t-45 -32t-51 -26.5z" />
<glyph unicode="K" horiz-adv-x="591" d="M70 0v677h119v-677h-119zM202 366v7q88 32 139.5 107.5t80.5 196.5h117q-21 -96 -50 -161t-60 -99t-77 -65l246 -352h-138z" />
<glyph unicode="L" horiz-adv-x="442" d="M70 0v677h119v-587h253v-90h-372z" />
<glyph unicode="M" horiz-adv-x="811" d="M60 0l40 679h93l171 -424q3 -8 18.5 -45.5t23.5 -57.5q8 20 24.5 60t17.5 43l172 424h91l40 -679h-111l-11 259q-5 164 -5 166q-35 -97 -62 -165l-112 -260h-84l-113 257q-25 57 -67 172q-1 -101 -4 -167l-10 -262h-112z" />
<glyph unicode="N" horiz-adv-x="659" d="M70 0v679h93l235 -352q8 -12 81 -124q-6 86 -6 120l-3 354h119v-678h-99l-228 356q-15 22 -47 73.5t-37 59.5q8 -86 8 -134l3 -354h-119z" />
<glyph unicode="O" horiz-adv-x="668" d="M45 330q0 163 74.5 259.5t221.5 96.5q282 0 282 -342q0 -162 -74 -256t-221 -94q-283 0 -283 336zM174 341q0 -43 4 -78.5t15.5 -69.5t29.5 -56.5t48.5 -36.5t70.5 -14q153 0 153 248q0 55 -7 98t-24.5 81.5t-52 59.5t-84.5 21q-153 0 -153 -253z" />
<glyph unicode="P" horiz-adv-x="535" d="M70 0v677q6 0 88 1t113 1q119 0 178.5 -53.5t59.5 -150.5q0 -95 -65 -152.5t-185 -57.5h-70v-265h-119zM189 354h77q60 0 88.5 31.5t28.5 85.5q0 53 -29.5 88t-97.5 35q-51 0 -67 -1v-239z" />
<glyph unicode="Q" horiz-adv-x="672" d="M43 335q0 158 77 254.5t224 96.5q282 0 282 -343q0 -178 -81 -291.5t-200 -134.5q43 -32 99 -32q66 0 171 51l41 -84q-98 -66 -196 -66q-67 0 -139 35.5t-132 103.5l22 66q27 -5 46 -5q104 0 172.5 92.5t68.5 253.5q0 262 -168 262q-82 0 -122 -70.5t-40 -179.5 q0 -97 24 -147.5t86 -64.5l-13 -85q-47 3 -85 21.5t-63 46.5t-42 65t-24.5 76t-7.5 79z" />
<glyph unicode="R" horiz-adv-x="574" d="M70 0v677q6 0 88 1t113 1q238 0 238 -185q0 -130 -124 -168q16 -9 29.5 -21t27.5 -32.5t23.5 -35.5t25 -48.5t24 -52.5t28 -65.5t29.5 -70.5h-129q-75 175 -106 222q-44 65 -104 70q-7 1 -15 1h-29v-293h-119zM189 380h77q56 0 86.5 25.5t30.5 73.5q0 50 -29.5 82.5 t-97.5 32.5h-67v-214z" />
<glyph unicode="S" horiz-adv-x="507" d="M30 59l42 92q110 -64 167 -64q52 0 78.5 26t26.5 73q0 42 -23.5 64t-76.5 43q-101 42 -146.5 87t-45.5 126q0 75 60.5 127.5t152.5 52.5q61 0 117 -18.5t79 -34.5l-49 -86q-79 46 -141 46q-38 0 -63.5 -18t-25.5 -52q0 -44 28.5 -72.5t91.5 -53.5q88 -35 129 -78t41 -121 q0 -82 -60.5 -143t-164.5 -61q-107 0 -217 65z" />
<glyph unicode="T" horiz-adv-x="493" d="M10 587v90h472l-15 -90h-168v-587h-118v587h-171z" />
<glyph unicode="U" horiz-adv-x="635" d="M60 249v428h118v-419q0 -172 145 -172q66 0 99.5 44.5t33.5 127.5v419h119v-428q0 -114 -63 -184.5t-202 -70.5q-132 0 -191 70.5t-59 184.5z" />
<glyph unicode="V" horiz-adv-x="582" d="M-8 677h127l84 -242q42 -123 90 -275q37 124 90 273l87 244h121l-253 -677h-93z" />
<glyph unicode="W" horiz-adv-x="869" d="M10 677h119l88 -339q23 -88 33 -142q12 51 40 140l106 341h89l106 -341q28 -92 40 -147q8 62 31 147l88 341h121l-188 -677h-88l-134 411q-15 41 -24 80q-12 -50 -21 -80l-130 -411h-88z" />
<glyph unicode="X" horiz-adv-x="582" d="M0 0l210 355l-190 322h135l95 -171q28 -54 41 -80q17 34 42 79l96 172h134l-191 -323l210 -354h-136l-112 200q-26 46 -43 82q-22 -44 -46.5 -89.5t-58.5 -105.5t-49 -87h-137z" />
<glyph unicode="Y" horiz-adv-x="542" d="M0 677h129l142 -307l145 307h126l-213 -423v-254h-119v259z" />
<glyph unicode="Z" horiz-adv-x="528" d="M40 0v71l294 516q-40 -3 -86 -3h-191l-16 93h440v-71l-288 -515q46 2 74 2h226v-93h-453z" />
<glyph unicode="[" horiz-adv-x="369" d="M80 -186v906h228v-88h-119v-730h119v-88h-228z" />
<glyph unicode="\" horiz-adv-x="417" d="M-10 729h119l318 -855h-119z" />
<glyph unicode="]" horiz-adv-x="369" d="M61 -98h119v730h-119v88h228v-906h-228v88z" />
<glyph unicode="^" horiz-adv-x="541" d="M50 315l179 362h83l179 -362l-107 -12l-88 193l-25 61q-9 -24 -26 -61l-92 -200z" />
<glyph unicode="_" d="M0 -80h500v-83h-500v83z" />
<glyph unicode="`" d="M67 708l76 71l170 -189l-48 -52q-13 8 -35 22.5t-75 59t-88 88.5z" />
<glyph unicode="a" horiz-adv-x="536" d="M35 242q0 115 66.5 189.5t172.5 74.5q62 0 193 -29v-236q0 -70 12 -123.5t24 -71.5l12 -18l-89 -36q-5 5 -13 14t-22 41t-16 68q-33 -121 -156 -121q-91 0 -137.5 66t-46.5 182zM158 252q0 -41 2.5 -68t10 -55t24.5 -41.5t43 -13.5q48 0 81.5 60.5t33.5 136.5v144 q-36 11 -66 11q-71 0 -100 -45.5t-29 -128.5z" />
<glyph unicode="b" horiz-adv-x="532" d="M65 23v682l114 20v-305q38 86 134 86q91 0 137.5 -66t46.5 -182q0 -115 -66.5 -189.5t-172.5 -74.5q-36 0 -84 7t-78 15zM179 84q40 -10 66 -10q71 0 100 45.5t29 128.5q0 41 -2.5 68t-10 55t-24.5 41.5t-43 13.5q-48 0 -81.5 -60.5t-33.5 -136.5v-145z" />
<glyph unicode="c" horiz-adv-x="410" d="M35 237q0 128 64.5 200.5t164.5 72.5q86 0 135 -68l-64 -61q-13 14 -20.5 21t-21.5 13.5t-30 6.5q-19 0 -34 -5t-33 -20.5t-28 -52.5t-10 -92q0 -177 110 -177q33 0 98 20l28 -72q-70 -30 -141 -30q-111 0 -164.5 64.5t-53.5 179.5z" />
<glyph unicode="d" horiz-adv-x="536" d="M35 242q0 115 66.5 189.5t172.5 74.5q32 0 79 -7v226l114 -20v-464q0 -32 2.5 -61t6.5 -49.5t9 -37.5t10 -28.5t9 -19t7.5 -12t3.5 -5.5l-89 -36q-45 45 -51 123q-33 -121 -156 -121q-91 0 -137.5 66t-46.5 182zM158 252q0 -41 2.5 -68t10 -54.5t24.5 -41t43 -13.5 q48 0 81.5 60t33.5 136v144q-36 11 -66 11q-71 0 -100 -45.5t-29 -128.5z" />
<glyph unicode="e" horiz-adv-x="473" d="M35 237q0 129 67.5 201t173.5 72q85 0 126 -39t41 -103q0 -74 -79 -126.5t-208 -53.5q13 -113 111 -113q26 0 61.5 8.5t57.5 17.5l23 9l30 -71q-87 -46 -188 -46q-111 0 -163.5 64.5t-52.5 179.5zM153 260q88 3 132 35.5t44 72.5q0 29 -17 46.5t-45 17.5q-60 0 -86 -49.5 t-28 -122.5z" />
<glyph unicode="f" horiz-adv-x="352" d="M0 -147q46 23 71 56t29 54.5t4 50.5v403h-90v81h87q-7 28 -7 61q0 77 51.5 120t126.5 43q67 0 105 -42l-49 -65q-4 4 -20 11.5t-28 7.5t-23 -3t-24 -10.5t-21 -24.5t-8 -42t8 -56h124l-14 -81h-104v-392q0 -46 -11 -83.5t-25.5 -60.5t-41.5 -45t-44.5 -32.5t-49.5 -26.5z " />
<glyph unicode="g" horiz-adv-x="531" d="M35 242q0 115 66.5 189.5t172.5 74.5q77 0 196 -29l-5 -275q-1 -41 14.5 -105.5t15.5 -103.5q0 -103 -53 -156.5t-147 -53.5q-52 0 -108.5 15.5t-74.5 26.5l28 87q101 -39 145 -39q53 0 79.5 32.5t26.5 87.5q0 52 -22 105q-35 -104 -150 -104q-91 0 -137.5 66t-46.5 182z M158 252q0 -41 2.5 -68t10 -55t24.5 -41.5t43 -13.5q46 0 80.5 58t34.5 131v152q-36 11 -66 11q-71 0 -100 -45.5t-29 -128.5z" />
<glyph unicode="h" horiz-adv-x="540" d="M65 0v705l114 20v-291q54 72 155 72q146 0 146 -172v-334h-114v326q0 91 -66 91q-44 0 -82.5 -44t-38.5 -109v-264h-114z" />
<glyph unicode="i" horiz-adv-x="256" d="M50 649q0 32 18 51.5t52 19.5q31 0 48.5 -18.5t17.5 -49.5t-18 -50.5t-51 -19.5q-31 0 -49 19t-18 48zM61 109v389h114v-379q0 -22 6.5 -30.5t21.5 -8.5l26 2l12 -72q-24 -14 -71 -14q-51 0 -80 31t-29 82z" />
<glyph unicode="j" horiz-adv-x="244" d="M-39 -147q35 18 57.5 40t32 45t12 39t2.5 36v485h114v-474q0 -46 -11.5 -83.5t-25.5 -60t-41.5 -45t-44 -32t-49.5 -26.5zM54 649q0 32 18 51.5t51 19.5q32 0 49.5 -18.5t17.5 -49.5t-18.5 -50.5t-51.5 -19.5q-31 0 -48.5 19t-17.5 48z" />
<glyph unicode="k" horiz-adv-x="520" d="M65 0v705l114 20v-285q54 67 154 67q64 0 105.5 -35.5t41.5 -96.5q0 -33 -12.5 -61t-30 -44t-35 -27.5t-30.5 -15.5l-12 -4l140 -223h-129l-144 249l-1 10q14 3 31.5 9.5t44.5 19t44.5 33.5t17.5 46q0 29 -17 44t-45 15t-51 -10t-36 -24t-21.5 -30t-11.5 -26.5t-3 -14.5 v-321h-114z" />
<glyph unicode="l" horiz-adv-x="291" d="M60 108v597l114 21v-607q0 -41 35 -41q12 0 25.5 2t20.5 4l7 2l14 -72q-41 -18 -105 -18q-54 0 -82.5 30.5t-28.5 81.5z" />
<glyph unicode="m" horiz-adv-x="809" d="M25 465l90 36q37 -37 49 -108q24 57 68.5 85t98.5 28q91 0 122 -93q51 93 159 93q74 0 105.5 -44.5t31.5 -127.5v-334h-113v326q0 91 -58 91q-41 0 -75.5 -43t-34.5 -108v-266h-113v326q0 91 -58 91q-43 0 -76 -47t-33 -122v-248h-114v252q0 71 -12 124t-24 71z" />
<glyph unicode="n" horiz-adv-x="549" d="M25 465l90 36q38 -37 49 -108q25 57 72.5 85t105.5 28q146 0 146 -172v-334h-113v323q0 93 -66 93q-48 0 -84.5 -47t-36.5 -122v-247h-114v252q0 71 -12 124t-24 71z" />
<glyph unicode="o" horiz-adv-x="517" d="M35 244q0 118 58.5 192t169.5 74q219 0 219 -255q0 -118 -58.5 -191.5t-169.5 -73.5q-219 0 -219 254zM158 254q0 -84 23 -132t83 -48q54 0 74.5 45t20.5 126q0 85 -23 133t-83 48q-54 0 -74.5 -45t-20.5 -127z" />
<glyph unicode="p" horiz-adv-x="541" d="M25 465l90 36q41 -41 50 -117q34 122 157 122q91 0 137 -66t46 -182q0 -115 -66.5 -189.5t-172.5 -74.5q-26 0 -78 6v-201l-114 -20v473q0 71 -12 124t-24 71zM188 85q36 -11 65 -11q71 0 100.5 45.5t29.5 128.5q0 41 -2.5 68t-10 55t-24.5 41.5t-43 13.5 q-48 0 -81.5 -60.5t-33.5 -136.5v-144z" />
<glyph unicode="q" horiz-adv-x="532" d="M35 242q0 115 66.5 189.5t172.5 74.5q36 0 84 -7t78 -15l31 -7v-699l-114 21v263q-41 -68 -134 -68q-91 0 -137.5 66t-46.5 182zM158 252q0 -41 2.5 -68t10 -54.5t24.5 -41t43 -13.5q48 0 81.5 60t33.5 136v144q-36 11 -66 11q-71 0 -100 -45.5t-29 -128.5z" />
<glyph unicode="r" horiz-adv-x="369" d="M25 465l90 36q36 -36 48 -105q38 109 144 109q14 0 29.5 -2.5t23.5 -5.5l9 -3l-32 -111q-16 11 -49 11q-38 0 -69 -34.5t-31 -85.5v-274h-114v252q0 71 -12 124t-24 71z" />
<glyph unicode="s" horiz-adv-x="412" d="M24 38l37 84q80 -48 131 -48q69 0 69 51q0 56 -74 83q-77 29 -110.5 66.5t-33.5 95.5t48.5 99t120.5 41q35 0 74 -10t60 -20l21 -9l-34 -78q-66 33 -118 33q-24 0 -40 -11.5t-16 -32.5q0 -57 83 -89q69 -26 101.5 -60t32.5 -94t-47.5 -104.5t-126.5 -44.5q-39 0 -83.5 12 t-69.5 24z" />
<glyph unicode="t" horiz-adv-x="361" d="M10 417v81h90l20 117l94 21v-138h123l-14 -81h-109v-296q0 -41 45 -41q17 0 36.5 3.5t30.5 6.5l11 4l19 -75q-53 -23 -128 -23q-128 0 -128 112v309h-90z" />
<glyph unicode="u" horiz-adv-x="549" d="M60 166v332h114v-330q0 -90 66 -90q47 0 84 50t37 126v244h114v-257q0 -70 12 -123.5t24 -71.5l12 -18l-89 -36q-5 4 -12 12.5t-20.5 37.5t-17.5 61q-26 -55 -73.5 -82t-104.5 -27q-146 0 -146 172z" />
<glyph unicode="v" horiz-adv-x="524" d="M60 166v332h114v-329q0 -94 66 -94q34 0 59.5 26t39 72t19.5 98t6 113q0 24 -3 52.5t-5 45.5l-3 16h116q10 -51 10 -102q0 -218 -65 -309.5t-208 -91.5q-146 0 -146 171z" />
<glyph unicode="w" horiz-adv-x="771" d="M60 163v335h114v-326q0 -97 66 -97q96 0 96 194v229h113q-2 -262 -2 -326q0 -97 68 -97q23 0 39.5 11.5t26.5 36t16.5 49t9.5 65.5t3.5 70.5t0.5 76.5q0 27 -2.5 55.5t-5.5 43.5l-3 15h116q10 -50 10 -102q0 -223 -54 -313t-191 -90q-97 0 -133 80q-19 -43 -50.5 -61.5 t-91.5 -18.5q-146 0 -146 170z" />
<glyph unicode="x" horiz-adv-x="480" d="M-5 0l167 264l-146 234h132l63 -103q9 -14 36 -73q29 43 44 71q14 26 25.5 52.5t15.5 39.5l4 13h118q-14 -49 -54 -123q-30 -54 -82 -112l162 -263h-130q-90 157 -113 202q-24 -47 -114 -202h-128z" />
<glyph unicode="y" horiz-adv-x="538" d="M60 166v332h114v-329q0 -90 66 -90q42 0 81 43.5t39 104.5v271h117l-5 -296q-1 -41 14.5 -105.5t15.5 -103.5q0 -103 -53 -156.5t-147 -53.5q-52 0 -108.5 15.5t-74.5 26.5l28 87q99 -39 145 -39q53 0 79.5 32.5t26.5 87.5q0 48 -20 99q-52 -98 -172 -98q-146 0 -146 172 z" />
<glyph unicode="z" horiz-adv-x="418" d="M30 0v68l221 350q-51 -3 -101 -3h-98l-14 83h346v-68l-218 -350q45 3 90 3h137v-83h-363z" />
<glyph unicode="{" horiz-adv-x="364" d="M60 225v82q70 15 70 99q0 28 -7 96.5t-7 106.5q0 53 37 84t105 31q38 0 85 -12l-22 -84q-29 9 -44 9q-25 0 -36 -14t-11 -30q0 -31 6.5 -89.5t6.5 -83.5q0 -51 -16.5 -88t-66.5 -67q49 -30 66 -66.5t17 -86.5q0 -25 -6.5 -83.5t-6.5 -89.5q0 -16 11 -30t36 -14q15 0 44 9 l22 -84q-47 -12 -85 -12q-68 0 -105 31t-37 84q0 38 7 106.5t7 96.5q0 84 -70 99z" />
<glyph unicode="|" horiz-adv-x="309" d="M100 -126v855h109v-855h-109z" />
<glyph unicode="}" horiz-adv-x="364" d="M20 -180l23 84q27 -9 44 -9q25 0 36 14t11 30q0 31 -6.5 89.5t-6.5 83.5q0 50 17 86.5t66 66.5q-50 30 -66.5 67t-16.5 88q0 25 6.5 83.5t6.5 89.5q0 16 -11 30t-36 14q-17 0 -44 -9l-23 84q48 12 86 12q67 0 104 -31t37 -84q0 -38 -7 -106.5t-7 -96.5q0 -84 70 -99v-82 q-70 -15 -70 -99q0 -28 7 -96.5t7 -106.5q0 -53 -37 -84t-104 -31q-38 0 -86 12z" />
<glyph unicode="~" horiz-adv-x="516" d="M50 308q2 3 5 8.5t14.5 20t24.5 25t34.5 19.5t45.5 9q41 0 90 -30t77 -30q20 0 34 5.5t23 13.5t26 27l42 -46q-2 -3 -5 -9t-14.5 -20t-25 -25t-35 -20t-45.5 -9q-40 0 -89 30t-78 30q-28 0 -42 -9t-40 -37z" />
<glyph unicode="&#xa1;" horiz-adv-x="319" d="M66 432q0 31 19.5 52.5t52.5 21.5q36 0 56 -21.5t20 -54.5q0 -34 -19 -54.5t-54 -20.5q-36 0 -55.5 21.5t-19.5 55.5zM92 -182v457h98l29 -457h-127z" />
<glyph unicode="&#xa2;" horiz-adv-x="458" d="M55 310q0 113 51 179t136 79v86h78v-87q65 -12 103 -64l-65 -62q-21 23 -38 32v-315l69 17l28 -72q-39 -20 -97 -27v-118h-78v116q-187 17 -187 236zM175 325q0 -135 67 -162v315q-67 -20 -67 -153z" />
<glyph unicode="&#xa3;" horiz-adv-x="563" d="M60 251v90h74l7 88q7 94 64.5 150.5t149.5 56.5q96 0 157 -45l-48 -87l-4 4q-5 3 -14.5 9t-21 12t-28.5 10t-34 4q-91 0 -102 -107l-10 -95h182l-14 -90h-178l-4 -39q-8 -73 -42 -124q38 6 74 6q19 0 56 -3t57 -3q18 0 41.5 6t37.5 12l15 5l34 -84q-62 -33 -127 -33 q-32 0 -80 6t-69 6q-35 0 -69.5 -2t-51.5 -4l-17 -2l-28 67q5 3 13.5 10.5t23 36.5t17.5 66l6 73h-67z" />
<glyph unicode="&#xa4;" horiz-adv-x="588" d="M30 63l86 77q-45 59 -45 143q0 83 47 143l-86 78l68 68l83 -92q51 27 111 27q63 0 112 -26l82 91l69 -68l-87 -78q47 -60 47 -143q0 -82 -47 -142l88 -78l-68 -68l-84 92q-52 -27 -114 -27t-111 26l-83 -91zM156 288q0 -65 38.5 -109t97.5 -44q62 0 101 41t39 104 q0 65 -39.5 109t-100.5 44q-60 0 -98 -41t-38 -104z" />
<glyph unicode="&#xa5;" horiz-adv-x="592" d="M30 637h129l136 -275l140 275h126l-168 -296h82v-88h-122v-62h122v-88h-122v-103h-119v103h-120v88h120v62h-120v88h82z" />
<glyph unicode="&#xa6;" horiz-adv-x="309" d="M100 -126v374h109v-374h-109zM100 353v376h109v-376h-109z" />
<glyph unicode="&#xa7;" horiz-adv-x="558" d="M50 245q0 102 109 148q-39 49 -39 102q0 63 46.5 105.5t122.5 42.5q53 0 126 -28l-35 -78q-40 22 -88 22q-57 0 -57 -53q0 -22 16 -45t33.5 -36.5t54.5 -39.5t53 -39q48 -37 74.5 -75.5t26.5 -89.5q0 -101 -109 -148q39 -49 39 -101q0 -63 -46.5 -105.5t-122.5 -42.5 q-29 0 -60 6.5t-47 12.5t-19 9l35 78q44 -22 88 -22q57 0 57 53q0 33 -28.5 61.5t-82.5 65t-79 60.5q-68 64 -68 137zM166 258q0 -21 16 -44t33 -37.5t53.5 -42.5t52.5 -41q56 20 56 76q0 17 -8.5 33.5t-26.5 34t-34 30t-44 33.5t-43 33q-55 -21 -55 -75z" />
<glyph unicode="&#xa8;" d="M88 630q0 29 16.5 47t46.5 18q29 0 45 -17.5t16 -45.5t-17 -46t-47 -18q-28 0 -44 18t-16 44zM287 630q0 29 16.5 47t47.5 18q29 0 45 -17.5t16 -45.5t-17 -46t-47 -18q-28 0 -44.5 17.5t-16.5 44.5z" />
<glyph unicode="&#xa9;" horiz-adv-x="782" d="M45 340q0 152 98 249t251 97q152 0 247.5 -96.5t95.5 -249.5q0 -152 -98.5 -249t-251.5 -97q-152 0 -247 96.5t-95 249.5zM130 346q0 -118 73.5 -198.5t186.5 -80.5q115 0 188 74.5t73 191.5q0 119 -73 199.5t-187 80.5q-115 0 -188 -75t-73 -192zM247 338q0 95 43 151 t128 56q58 0 95 -39l-49 -53q-25 19 -54 19q-69 0 -69 -128q0 -57 18.5 -92.5t55.5 -35.5q35 0 68 13l22 -66q-3 -2 -15 -6t-37 -9t-50 -5q-156 0 -156 195z" />
<glyph unicode="&#xaa;" horiz-adv-x="400" d="M35 507q0 78 46.5 128.5t119.5 50.5q24 0 58 -5t56 -9l22 -5v-162q0 -46 8.5 -82.5t16.5 -49.5l8 -13l-66 -26q-27 23 -39 62q-26 -61 -98 -61q-66 0 -99 46t-33 126zM132 513q0 -35 2.5 -56.5t13 -39.5t30.5 -18q29 0 49.5 43t20.5 97v79q-36 6 -38 6q-78 0 -78 -111z " />
<glyph unicode="&#xab;" horiz-adv-x="567" d="M50 245q34 44 88 98t90 87l37 32l47 -54l-130 -163l130 -163l-47 -54q-138 119 -215 217zM270 245q34 44 87.5 98t90.5 87l36 32l47 -54l-130 -163l130 -163l-47 -54q-138 119 -214 217z" />
<glyph unicode="&#xac;" horiz-adv-x="511" d="M50 307v88h410v-213h-86v125h-324z" />
<glyph unicode="&#xad;" horiz-adv-x="383" d="M50 278v83h283v-83h-283z" />
<glyph unicode="&#xae;" horiz-adv-x="584" d="M60 454q0 102 66 167t168 65t166 -65t64 -167t-66 -167t-168 -65t-166 65t-64 167zM125 457q0 -75 47 -126.5t118 -51.5q74 0 120.5 47.5t46.5 122.5t-47 126.5t-120 51.5q-72 0 -118.5 -47.5t-46.5 -122.5zM209 325v255q2 0 33 0.5t42 0.5q92 0 92 -71q0 -36 -39 -59 q15 -5 25 -24.5t33 -81.5l-50 -18q-15 38 -20.5 51.5t-15 29.5t-18.5 20t-24 5h-5v-108h-53zM262 464q11 0 23 2q22 4 29 12.5t7 27.5q0 43 -44 43h-15v-85z" />
<glyph unicode="&#xaf;" d="M90 600v83h322v-83h-322z" />
<glyph unicode="&#xb0;" horiz-adv-x="310" d="M40 604q0 50 33 83.5t83 33.5t82 -33t32 -84q0 -50 -33 -83t-83 -33t-82 33t-32 83zM104 605q0 -27 13.5 -43.5t37.5 -16.5q25 0 38.5 15.5t13.5 43.5q0 27 -14 43.5t-38 16.5t-37.5 -15.5t-13.5 -43.5z" />
<glyph unicode="&#xb1;" horiz-adv-x="513" d="M60 32v88h150v137h-149v89h149v152h94v-152h149v-89h-149v-137h148v-88h-392z" />
<glyph unicode="&#xb2;" horiz-adv-x="317" d="M35 647q72 39 124 39q110 0 110 -94q0 -44 -39 -97t-90 -89h136v-70h-240v71q40 29 74 67q40 42 54.5 64.5t14.5 44.5q0 35 -28 35q-27 0 -84 -34z" />
<glyph unicode="&#xb3;" horiz-adv-x="328" d="M35 363l26 61q45 -27 86 -27q20 0 34 12.5t14 35.5q0 19 -9.5 31t-26.5 12q-15 0 -28.5 -1.5t-19.5 -2.5l-6 -2l-21 52q7 2 23.5 6t26.5 7t21.5 8.5t17.5 14.5t6 21q0 11 -7 19t-18 8q-24 0 -81 -25l-30 63q70 30 120 30t77 -22.5t27 -60.5q0 -44 -44 -73q59 -25 59 -84 q0 -49 -31.5 -83t-100.5 -34q-52 0 -115 34z" />
<glyph unicode="&#xb4;" d="M178 590l170 189l76 -71q-35 -44 -84.5 -86.5t-81.5 -63.5l-31 -20z" />
<glyph unicode="&#xb5;" horiz-adv-x="554" d="M65 -222v720h114v-334q0 -38 23 -62t58 -24q42 0 74 42t32 106v272h114v-257q0 -37 3.5 -70t8 -53.5t11 -38.5t11.5 -27t9.5 -16t4.5 -8l-89 -36q-34 29 -48 94q-37 -92 -131 -92q-46 0 -81 24v-219z" />
<glyph unicode="&#xb6;" horiz-adv-x="578" d="M60 473q0 98 59.5 152t170.5 54v-414q-112 0 -171 55.5t-59 152.5zM284 -144q37 18 60.5 39t32 44.5t10.5 37.5t2 36v664h118v-652q0 -46 -12 -84t-26 -60.5t-43 -45t-45 -32t-51 -26.5z" />
<glyph unicode="&#xb7;" horiz-adv-x="249" d="M50 316q0 34 20 55.5t56 21.5q34 0 53 -20.5t19 -54.5q0 -33 -20 -54.5t-55 -21.5q-34 0 -53.5 21.5t-19.5 52.5z" />
<glyph unicode="&#xb8;" d="M149 -201l16 54q39 -13 64 -13q50 0 50 31q0 21 -29 32.5t-63 11.5l22 88h65l-11 -50q41 -3 65.5 -23.5t24.5 -55.5q0 -50 -34.5 -71t-83.5 -21q-43 0 -86 17z" />
<glyph unicode="&#xb9;" horiz-adv-x="266" d="M10 604q76 26 126 73h59v-341h-82v252q-32 -31 -68 -47z" />
<glyph unicode="&#xba;" horiz-adv-x="409" d="M45 504q0 82 41.5 132t121.5 50q156 0 156 -174q0 -80 -41.5 -130t-120.5 -50q-157 0 -157 172zM142 511q0 -112 67 -112q58 0 58 108q0 112 -66 112q-34 0 -46.5 -28t-12.5 -80z" />
<glyph unicode="&#xbb;" horiz-adv-x="567" d="M35 82l130 163l-130 163l48 54q137 -119 214 -217q-34 -44 -87.5 -98t-89.5 -87l-37 -32zM255 82l130 163l-130 163l47 54q138 -119 214 -217q-34 -44 -87.5 -98t-90.5 -87l-36 -32z" />
<glyph unicode="&#xbc;" horiz-adv-x="711" d="M5 513q76 26 126 73h59v-341h-82v252q-32 -31 -68 -47zM138 0l274 587h93l-273 -587h-94zM407 93v39l90 218h82l-83 -195h68v92l83 20v-112h49l-10 -62h-39v-93h-83v93h-157z" />
<glyph unicode="&#xbd;" horiz-adv-x="725" d="M5 513q76 26 126 73h59v-341h-82v252q-32 -31 -68 -47zM138 0l274 587h93l-273 -587h-94zM443 310q69 39 124 39q110 0 110 -93q0 -64 -89 -153q-16 -16 -40 -33h136v-70h-240v71q40 28 74 67q40 43 54.5 65t14.5 44q0 34 -28 34q-29 0 -84 -33z" />
<glyph unicode="&#xbe;" horiz-adv-x="787" d="M6 264l26 61q45 -27 86 -27q20 0 34.5 12.5t14.5 35.5q0 19 -9.5 31t-27.5 12q-15 0 -28.5 -1.5t-19.5 -3.5l-6 -1l-21 52q7 2 23.5 6t26.5 7t21.5 8.5t17.5 14.5t6 21q0 11 -6.5 19t-17.5 8q-24 0 -82 -25l-29 63q68 30 119 30q50 0 77.5 -22.5t27.5 -60.5 q0 -45 -45 -73q60 -25 60 -84q0 -50 -32 -83.5t-101 -33.5q-52 0 -115 34zM189 0l273 587h94l-274 -587h-93zM459 83v40l91 217h82l-83 -194h67v92l83 20v-112h49l-10 -63h-39v-83h-83v83h-157z" />
<glyph unicode="&#xbf;" horiz-adv-x="434" d="M24 -42q0 27 8 53.5t26 55t30 44t38 47.5q68 85 84 140l84 -23q0 -47 -22 -94.5t-49 -79.5t-49 -67.5t-22 -61.5q0 -36 21 -56.5t56 -20.5q11 0 21 1.5t17 3t19.5 6.5t18.5 7.5t23.5 11t25.5 12.5l39 -79q-108 -50 -179 -50q-190 0 -190 150zM173 430q0 33 20 54.5 t56 21.5q33 0 52.5 -21.5t19.5 -52.5q0 -34 -19.5 -55.5t-55.5 -21.5q-35 0 -54 20.5t-19 54.5z" />
<glyph unicode="&#xc0;" horiz-adv-x="605" d="M-5 0l260 677h94l261 -677h-127l-62 177h-244l-64 -177h-118zM45 846l52 82l227 -152l-28 -58q-18 5 -46.5 14.5t-96 42.5t-108.5 71zM209 265h181q-50 142 -90 279q-48 -157 -91 -279z" />
<glyph unicode="&#xc1;" horiz-adv-x="605" d="M-5 0l260 677h94l261 -677h-127l-62 177h-244l-64 -177h-118zM209 265h181q-50 142 -90 279q-48 -157 -91 -279zM271 776l227 152l52 -82q-41 -38 -104 -70t-105 -45l-42 -13z" />
<glyph unicode="&#xc2;" horiz-adv-x="605" d="M-5 0l260 677h94l261 -677h-127l-62 177h-244l-64 -177h-118zM102 771l198 157l198 -157l-44 -53q-75 32 -154 90q-36 -26 -74.5 -48.5t-59.5 -31.5l-20 -10zM209 265h181q-50 142 -90 279q-48 -157 -91 -279z" />
<glyph unicode="&#xc3;" horiz-adv-x="605" d="M-5 0l260 677h94l261 -677h-127l-62 177h-244l-64 -177h-118zM137 760v74q34 23 79 23q24 0 76 -10t77 -10q20 0 40 3.5t30 7.5l10 3v-74q-35 -23 -80 -23q-25 0 -77 10t-76 10q-20 0 -40 -3.5t-30 -6.5zM209 265h181q-50 142 -90 279q-48 -157 -91 -279z" />
<glyph unicode="&#xc4;" horiz-adv-x="605" d="M-5 0l260 677h94l261 -677h-127l-62 177h-244l-64 -177h-118zM140 809q0 29 16.5 47t46.5 18q29 0 45 -17.5t16 -45.5t-17 -46t-47 -18q-28 0 -44 18t-16 44zM209 265h181q-50 142 -90 279q-48 -157 -91 -279zM339 809q0 29 16.5 47t47.5 18q29 0 45 -17.5t16 -45.5 t-17 -46t-47 -18q-28 0 -44.5 17.5t-16.5 44.5z" />
<glyph unicode="&#xc5;" horiz-adv-x="605" d="M-5 0l247 644q-40 29 -40 83q0 43 29 71.5t72 28.5t70.5 -28t27.5 -72q0 -52 -40 -82l249 -645h-127l-62 177h-244l-64 -177h-118zM209 265h181q-50 142 -90 279q-48 -157 -91 -279zM258 728q0 -42 29 -51h27q31 8 31 50q0 23 -11.5 36.5t-32.5 13.5q-43 0 -43 -49z" />
<glyph unicode="&#xc6;" horiz-adv-x="876" d="M-5 0l410 677h430v-90h-283v-189h233l-15 -91h-218v-217h298v-90h-415v177h-201l-101 -177h-138zM284 265h151v290q-7 -15 -32 -62.5t-62.5 -119t-56.5 -108.5z" />
<glyph unicode="&#xc7;" horiz-adv-x="523" d="M47 330q0 163 75 259.5t220 96.5q99 0 161 -72l-61 -73q-50 53 -112 53q-81 0 -117.5 -69t-36.5 -184q0 -255 163 -255q21 0 44 4t38.5 8.5t29 9t14.5 4.5l28 -84q-59 -27 -144 -33l-9 -42q41 -3 65.5 -23.5t24.5 -55.5q0 -50 -34 -71t-83 -21q-44 0 -87 17l16 54 q39 -13 64 -13q50 0 50 31q0 21 -29 32.5t-63 11.5l20 81q-117 10 -177 95t-60 239z" />
<glyph unicode="&#xc8;" horiz-adv-x="513" d="M28 846l52 82l227 -152l-28 -58q-18 5 -46.5 14.5t-96 42.5t-108.5 71zM70 0v677h402v-90h-283v-189h233l-15 -91h-218v-217h298v-90h-417z" />
<glyph unicode="&#xc9;" horiz-adv-x="513" d="M70 0v677h402v-90h-283v-189h233l-15 -91h-218v-217h298v-90h-417zM255 776l227 152l52 -82q-41 -38 -104 -70t-105 -45l-42 -13z" />
<glyph unicode="&#xca;" horiz-adv-x="513" d="M70 0v677h402v-90h-283v-189h233l-15 -91h-218v-217h298v-90h-417zM85 771l198 157l198 -157l-44 -53q-75 32 -154 90q-36 -26 -74.5 -48.5t-58.5 -31.5l-21 -10z" />
<glyph unicode="&#xcb;" horiz-adv-x="513" d="M70 0v677h402v-90h-283v-189h233l-15 -91h-218v-217h298v-90h-417zM94 809q0 29 16.5 47t46.5 18q29 0 45 -17.5t16 -45.5t-17 -46t-47 -18q-28 0 -44 18t-16 44zM293 809q0 29 16.5 47t47.5 18q29 0 45 -17.5t16 -45.5t-17 -46t-47 -18q-28 0 -44.5 17.5t-16.5 44.5z " />
<glyph unicode="&#xcc;" horiz-adv-x="259" d="M-125 846l52 82l227 -152l-28 -58q-18 5 -46.5 14.5t-96 42.5t-108.5 71zM70 0v677h119v-677h-119z" />
<glyph unicode="&#xcd;" horiz-adv-x="259" d="M70 0v677h119v-677h-119zM102 776l227 152l52 -82q-41 -38 -104 -70t-105 -45l-42 -13z" />
<glyph unicode="&#xce;" horiz-adv-x="259" d="M-68 771l198 157l198 -157l-44 -53q-75 32 -154 90q-36 -26 -74.5 -48.5t-59.5 -31.5l-20 -10zM70 0v677h119v-677h-119z" />
<glyph unicode="&#xcf;" horiz-adv-x="259" d="M-32 809q0 29 16.5 47t46.5 18q29 0 45 -17.5t16 -45.5t-17 -46t-47 -18q-28 0 -44 18t-16 44zM70 0v677h119v-677h-119zM167 809q0 29 16.5 47t47.5 18q29 0 45 -17.5t16 -45.5t-17 -46t-47 -18q-28 0 -44.5 17.5t-16.5 44.5z" />
<glyph unicode="&#xd0;" horiz-adv-x="643" d="M0 303v88h70v286q5 0 82.5 1t113.5 1q334 0 334 -336q0 -345 -347 -345q-49 0 -114.5 1t-68.5 1v303h-70zM189 88q15 -1 79 -1q203 0 203 245q0 258 -219 258q-17 0 -38 -0.5t-25 -0.5v-198h180v-88h-180v-215z" />
<glyph unicode="&#xd1;" horiz-adv-x="659" d="M70 0v679h93l235 -352q8 -12 81 -124q-6 86 -6 120l-3 354h119v-678h-99l-228 356q-15 22 -47 73.5t-37 59.5q8 -86 8 -134l3 -354h-119zM173 768v74q34 23 79 23q24 0 76.5 -10t76.5 -10q20 0 40 3.5t30 7.5l10 3v-74q-35 -23 -80 -23q-24 0 -76.5 10t-76.5 10 q-20 0 -40 -3.5t-30 -6.5z" />
<glyph unicode="&#xd2;" horiz-adv-x="668" d="M45 330q0 163 74.5 259.5t221.5 96.5q282 0 282 -342q0 -162 -74 -256t-221 -94q-283 0 -283 336zM77 846l52 82l227 -152l-28 -58q-18 5 -46.5 14.5t-96 42.5t-108.5 71zM174 341q0 -43 4 -78.5t15.5 -69.5t29.5 -56.5t48.5 -36.5t70.5 -14q153 0 153 248q0 55 -7 98 t-24.5 81.5t-52 59.5t-84.5 21q-153 0 -153 -253z" />
<glyph unicode="&#xd3;" horiz-adv-x="668" d="M45 330q0 163 74.5 259.5t221.5 96.5q282 0 282 -342q0 -162 -74 -256t-221 -94q-283 0 -283 336zM174 341q0 -43 4 -78.5t15.5 -69.5t29.5 -56.5t48.5 -36.5t70.5 -14q153 0 153 248q0 55 -7 98t-24.5 81.5t-52 59.5t-84.5 21q-153 0 -153 -253zM303 776l227 152l52 -82 q-41 -38 -104 -70t-105 -45l-42 -13z" />
<glyph unicode="&#xd4;" horiz-adv-x="668" d="M45 330q0 163 74.5 259.5t221.5 96.5q282 0 282 -342q0 -162 -74 -256t-221 -94q-283 0 -283 336zM134 771l198 157l198 -157l-44 -53q-75 32 -154 90q-36 -26 -74.5 -48.5t-59.5 -31.5l-20 -10zM174 341q0 -43 4 -78.5t15.5 -69.5t29.5 -56.5t48.5 -36.5t70.5 -14 q153 0 153 248q0 55 -7 98t-24.5 81.5t-52 59.5t-84.5 21q-153 0 -153 -253z" />
<glyph unicode="&#xd5;" horiz-adv-x="668" d="M45 330q0 163 74.5 259.5t221.5 96.5q282 0 282 -342q0 -162 -74 -256t-221 -94q-283 0 -283 336zM169 760v74q34 23 79 23q24 0 76 -10t77 -10q20 0 40 3.5t30 7.5l10 3v-74q-35 -23 -80 -23q-25 0 -77 10t-76 10q-20 0 -40 -3.5t-30 -6.5zM174 341q0 -43 4 -78.5 t15.5 -69.5t29.5 -56.5t48.5 -36.5t70.5 -14q153 0 153 248q0 55 -7 98t-24.5 81.5t-52 59.5t-84.5 21q-153 0 -153 -253z" />
<glyph unicode="&#xd6;" horiz-adv-x="668" d="M45 330q0 163 74.5 259.5t221.5 96.5q282 0 282 -342q0 -162 -74 -256t-221 -94q-283 0 -283 336zM172 809q0 29 16.5 47t46.5 18q29 0 45 -17.5t16 -45.5t-17 -46t-47 -18q-28 0 -44 18t-16 44zM174 341q0 -43 4 -78.5t15.5 -69.5t29.5 -56.5t48.5 -36.5t70.5 -14 q153 0 153 248q0 55 -7 98t-24.5 81.5t-52 59.5t-84.5 21q-153 0 -153 -253zM371 809q0 29 16.5 47t47.5 18q29 0 45 -17.5t16 -45.5t-17 -46t-47 -18q-28 0 -44.5 17.5t-16.5 44.5z" />
<glyph unicode="&#xd7;" horiz-adv-x="516" d="M60 170l135 134l-128 128l61 63l128 -130l131 132l65 -67l-130 -130l134 -133l-61 -63l-134 135l-136 -135z" />
<glyph unicode="&#xd8;" horiz-adv-x="668" d="M45 330q0 163 74.5 259.5t221.5 96.5q41 0 73 -7l25 63l98 -40l-26 -64q112 -81 112 -294q0 -162 -74 -256t-221 -94q-40 0 -75 6l-25 -63l-97 40l25 63q-111 78 -111 290zM174 341q0 -118 32 -178l171 424q-26 7 -50 7q-153 0 -153 -253zM290 92q22 -6 52 -6 q153 0 153 248q0 119 -33 182z" />
<glyph unicode="&#xd9;" horiz-adv-x="635" d="M60 249v428h118v-419q0 -172 145 -172q66 0 99.5 44.5t33.5 127.5v419h119v-428q0 -114 -63 -184.5t-202 -70.5q-132 0 -191 70.5t-59 184.5zM63 846l52 82l227 -152l-28 -58q-18 5 -46.5 14.5t-96 42.5t-108.5 71z" />
<glyph unicode="&#xda;" horiz-adv-x="635" d="M60 249v428h118v-419q0 -172 145 -172q66 0 99.5 44.5t33.5 127.5v419h119v-428q0 -114 -63 -184.5t-202 -70.5q-132 0 -191 70.5t-59 184.5zM290 776l227 152l52 -82q-41 -38 -104 -70t-105 -45l-42 -13z" />
<glyph unicode="&#xdb;" horiz-adv-x="635" d="M60 249v428h118v-419q0 -172 145 -172q66 0 99.5 44.5t33.5 127.5v419h119v-428q0 -114 -63 -184.5t-202 -70.5q-132 0 -191 70.5t-59 184.5zM120 771l198 157l198 -157l-44 -53q-75 32 -154 90q-36 -26 -74.5 -48.5t-59.5 -31.5l-20 -10z" />
<glyph unicode="&#xdc;" horiz-adv-x="635" d="M60 249v428h118v-419q0 -172 145 -172q66 0 99.5 44.5t33.5 127.5v419h119v-428q0 -114 -63 -184.5t-202 -70.5q-132 0 -191 70.5t-59 184.5zM155 809q0 29 16.5 47t46.5 18q29 0 45 -17.5t16 -45.5t-17 -46t-47 -18q-28 0 -44 18t-16 44zM354 809q0 29 16.5 47t47.5 18 q29 0 45 -17.5t16 -45.5t-17 -46t-47 -18q-28 0 -44.5 17.5t-16.5 44.5z" />
<glyph unicode="&#xdd;" horiz-adv-x="543" d="M0 677h129l142 -307l145 307h126l-213 -423v-254h-119v259zM245 776l227 152l52 -82q-41 -38 -104 -70t-105 -45l-42 -13z" />
<glyph unicode="&#xde;" horiz-adv-x="537" d="M70 0v677h119v-122h82q240 0 240 -203q0 -98 -64.5 -154t-187.5 -56h-70v-142h-119zM189 230h77q60 0 88.5 32t28.5 86t-29.5 88.5t-97.5 34.5q-51 0 -67 -1v-240z" />
<glyph unicode="&#xdf;" horiz-adv-x="578" d="M-5 -154q35 18 57.5 40.5t30.5 48.5t10 41t2 38v464q0 113 60 180t174 67q86 0 131 -40.5t45 -99.5q0 -39 -18 -68.5t-39.5 -44t-39.5 -33t-18 -37.5q0 -25 16 -45.5t39 -36.5t46.5 -35.5t39.5 -53.5t16 -79q0 -71 -51 -115t-133 -44q-68 0 -127 37l34 75q52 -26 78 -26 q84 0 84 64q0 26 -15 46t-37 35t-44 33.5t-37 50.5t-15 75q0 33 17 62t37 45.5t37 39t17 45.5q0 32 -22.5 47.5t-56.5 15.5q-56 0 -80 -44t-24 -108v-461q0 -46 -11 -83.5t-25.5 -60.5t-41.5 -45t-44 -32t-49 -27z" />
<glyph unicode="&#xe0;" horiz-adv-x="536" d="M35 242q0 115 66.5 189.5t172.5 74.5q62 0 193 -29v-236q0 -70 12 -123.5t24 -71.5l12 -18l-89 -36q-5 5 -13 14t-22 41t-16 68q-33 -121 -156 -121q-91 0 -137.5 66t-46.5 182zM70 708l76 71l170 -189l-48 -52q-13 8 -35 22.5t-75 59t-88 88.5zM158 252q0 -41 2.5 -68 t10 -55t24.5 -41.5t43 -13.5q48 0 81.5 60.5t33.5 136.5v144q-36 11 -66 11q-71 0 -100 -45.5t-29 -128.5z" />
<glyph unicode="&#xe1;" horiz-adv-x="536" d="M35 242q0 115 66.5 189.5t172.5 74.5q62 0 193 -29v-236q0 -70 12 -123.5t24 -71.5l12 -18l-89 -36q-5 5 -13 14t-22 41t-16 68q-33 -121 -156 -121q-91 0 -137.5 66t-46.5 182zM158 252q0 -41 2.5 -68t10 -55t24.5 -41.5t43 -13.5q48 0 81.5 60.5t33.5 136.5v144 q-36 11 -66 11q-71 0 -100 -45.5t-29 -128.5zM210 590l170 189l76 -71q-35 -44 -84.5 -86.5t-81.5 -63.5l-31 -20z" />
<glyph unicode="&#xe2;" horiz-adv-x="536" d="M35 242q0 115 66.5 189.5t172.5 74.5q62 0 193 -29v-236q0 -70 12 -123.5t24 -71.5l12 -18l-89 -36q-5 5 -13 14t-22 41t-16 68q-33 -121 -156 -121q-91 0 -137.5 66t-46.5 182zM87 592l188 187l187 -187l-43 -54l-19 12q-19 11 -55.5 37t-69.5 55q-34 -29 -70.5 -55 t-55.5 -37l-19 -12zM158 252q0 -41 2.5 -68t10 -55t24.5 -41.5t43 -13.5q48 0 81.5 60.5t33.5 136.5v144q-36 11 -66 11q-71 0 -100 -45.5t-29 -128.5z" />
<glyph unicode="&#xe3;" horiz-adv-x="536" d="M35 242q0 115 66.5 189.5t172.5 74.5q62 0 193 -29v-236q0 -70 12 -123.5t24 -71.5l12 -18l-89 -36q-5 5 -13 14t-22 41t-16 68q-33 -121 -156 -121q-91 0 -137.5 66t-46.5 182zM106 589v74q34 23 79 23q25 0 77 -10t76 -10q20 0 40 3.5t30 6.5l10 4v-74q-35 -23 -80 -23 q-24 0 -76 10t-77 10q-20 0 -40 -3.5t-29 -7.5zM158 252q0 -41 2.5 -68t10 -55t24.5 -41.5t43 -13.5q48 0 81.5 60.5t33.5 136.5v144q-36 11 -66 11q-71 0 -100 -45.5t-29 -128.5z" />
<glyph unicode="&#xe4;" horiz-adv-x="536" d="M35 242q0 115 66.5 189.5t172.5 74.5q62 0 193 -29v-236q0 -70 12 -123.5t24 -71.5l12 -18l-89 -36q-5 5 -13 14t-22 41t-16 68q-33 -121 -156 -121q-91 0 -137.5 66t-46.5 182zM105 649q0 29 16.5 47t46.5 18q29 0 45 -17.5t16 -45.5t-17 -46t-47 -18q-28 0 -44 18 t-16 44zM158 252q0 -41 2.5 -68t10 -55t24.5 -41.5t43 -13.5q48 0 81.5 60.5t33.5 136.5v144q-36 11 -66 11q-71 0 -100 -45.5t-29 -128.5zM304 649q0 29 16.5 47t47.5 18q29 0 45 -17.5t16 -45.5t-17 -46t-47 -18q-28 0 -44.5 17.5t-16.5 44.5z" />
<glyph unicode="&#xe5;" horiz-adv-x="536" d="M35 242q0 115 66.5 189.5t172.5 74.5q62 0 193 -29v-236q0 -70 12 -123.5t24 -71.5l12 -18l-89 -36q-5 5 -13 14t-22 41t-16 68q-33 -121 -156 -121q-91 0 -137.5 66t-46.5 182zM158 252q0 -41 2.5 -68t10 -55t24.5 -41.5t43 -13.5q48 0 81.5 60.5t33.5 136.5v144 q-36 11 -66 11q-71 0 -100 -45.5t-29 -128.5zM168 646q0 43 29 71.5t72 28.5t70.5 -28t27.5 -72q0 -43 -29 -72t-72 -29q-42 0 -70 29t-28 72zM224 647q0 -23 11.5 -38t31.5 -15q21 0 32.5 14t11.5 38q0 23 -11.5 36.5t-32.5 13.5q-43 0 -43 -49z" />
<glyph unicode="&#xe6;" horiz-adv-x="760" d="M35 242q0 115 66.5 189.5t172.5 74.5q82 0 164 -35q57 39 135 39q85 0 126 -39t41 -103q0 -74 -79 -126.5t-208 -53.5q13 -113 111 -113q26 0 61.5 8.5t58.5 17.5l22 9l30 -71q-87 -46 -188 -46q-132 0 -184 93q-38 -92 -145 -92q-91 0 -137.5 66t-46.5 182zM158 252 q0 -41 2.5 -68t10 -55t24.5 -41.5t43 -13.5q33 0 59.5 25.5t40.5 68.5q-5 26 -5 69q0 98 41 166q-42 23 -87 23q-71 0 -100 -45.5t-29 -128.5zM450 260q88 3 132 35.5t44 72.5q0 29 -17 46.5t-44 17.5q-61 0 -87 -49.5t-28 -122.5z" />
<glyph unicode="&#xe7;" horiz-adv-x="410" d="M35 237q0 128 64.5 200.5t164.5 72.5q86 0 135 -68l-64 -61q-13 14 -20.5 21t-21.5 13.5t-30 6.5q-19 0 -34 -5t-33 -20.5t-28 -52.5t-10 -92q0 -177 110 -177q33 0 98 20l28 -72q-46 -23 -110 -29l-9 -41q41 -3 65.5 -23.5t24.5 -55.5q0 -50 -34.5 -71t-83.5 -21 q-43 0 -86 17l16 54q39 -13 64 -13q50 0 50 31q0 21 -29 32.5t-63 11.5l20 80q-94 9 -139 72.5t-45 169.5z" />
<glyph unicode="&#xe8;" horiz-adv-x="473" d="M35 237q0 129 67.5 201t173.5 72q85 0 126 -39t41 -103q0 -74 -79 -126.5t-208 -53.5q13 -113 111 -113q26 0 61.5 8.5t57.5 17.5l23 9l30 -71q-87 -46 -188 -46q-111 0 -163.5 64.5t-52.5 179.5zM59 708l76 71l170 -189l-48 -52q-13 8 -35 22.5t-75 59t-88 88.5z M153 260q88 3 132 35.5t44 72.5q0 29 -17 46.5t-45 17.5q-60 0 -86 -49.5t-28 -122.5z" />
<glyph unicode="&#xe9;" horiz-adv-x="473" d="M35 237q0 129 67.5 201t173.5 72q85 0 126 -39t41 -103q0 -74 -79 -126.5t-208 -53.5q13 -113 111 -113q26 0 61.5 8.5t57.5 17.5l23 9l30 -71q-87 -46 -188 -46q-111 0 -163.5 64.5t-52.5 179.5zM153 260q88 3 132 35.5t44 72.5q0 29 -17 46.5t-45 17.5q-60 0 -86 -49.5 t-28 -122.5zM200 590l170 189l76 -71q-35 -44 -84.5 -86.5t-81.5 -63.5l-31 -20z" />
<glyph unicode="&#xea;" horiz-adv-x="473" d="M35 237q0 129 67.5 201t173.5 72q85 0 126 -39t41 -103q0 -74 -79 -126.5t-208 -53.5q13 -113 111 -113q26 0 61.5 8.5t57.5 17.5l23 9l30 -71q-87 -46 -188 -46q-111 0 -163.5 64.5t-52.5 179.5zM76 592l188 187l187 -187l-43 -54l-19 12q-19 11 -55.5 37t-69.5 55 q-34 -29 -70.5 -55t-55.5 -37l-19 -12zM153 260q88 3 132 35.5t44 72.5q0 29 -17 46.5t-45 17.5q-60 0 -86 -49.5t-28 -122.5z" />
<glyph unicode="&#xeb;" horiz-adv-x="473" d="M35 237q0 129 67.5 201t173.5 72q85 0 126 -39t41 -103q0 -74 -79 -126.5t-208 -53.5q13 -113 111 -113q26 0 61.5 8.5t57.5 17.5l23 9l30 -71q-87 -46 -188 -46q-111 0 -163.5 64.5t-52.5 179.5zM94 649q0 29 16.5 47t46.5 18q29 0 45 -17.5t16 -45.5t-17 -46t-47 -18 q-28 0 -44 18t-16 44zM153 260q88 3 132 35.5t44 72.5q0 29 -17 46.5t-45 17.5q-60 0 -86 -49.5t-28 -122.5zM293 649q0 29 16.5 47t47.5 18q29 0 45 -17.5t16 -45.5t-17 -46t-47 -18q-28 0 -44.5 17.5t-16.5 44.5z" />
<glyph unicode="&#xec;" horiz-adv-x="245" d="M-65 713l80 67l139 -190l-48 -51q-92 76 -171 174zM50 109v389h114v-379q0 -22 6.5 -30.5t21.5 -8.5l26 2l12 -72q-24 -14 -71 -14q-51 0 -80 31t-29 82z" />
<glyph unicode="&#xed;" horiz-adv-x="245" d="M50 109v389h114v-379q0 -22 6.5 -30.5t21.5 -8.5l26 2l12 -72q-24 -14 -71 -14q-51 0 -80 31t-29 82zM56 590l140 190l79 -67q-35 -44 -78 -87.5t-68 -65.5l-25 -21z" />
<glyph unicode="&#xee;" horiz-adv-x="245" d="M-64 589l170 192l171 -192l-47 -50q-88 69 -124 102q-48 -44 -124 -102zM50 109v389h114v-379q0 -22 6.5 -30.5t21.5 -8.5l26 2l12 -72q-24 -14 -71 -14q-51 0 -80 31t-29 82z" />
<glyph unicode="&#xef;" horiz-adv-x="245" d="M-35 643q0 28 15.5 45t44.5 17q27 0 42.5 -16.5t15.5 -42.5q0 -27 -16 -44.5t-45 -17.5q-26 0 -41.5 17t-15.5 42zM50 109v389h114v-379q0 -22 6.5 -30.5t21.5 -8.5l26 2l12 -72q-24 -14 -71 -14q-51 0 -80 31t-29 82zM130 643q0 28 16 45t45 17q27 0 42.5 -16.5 t15.5 -42.5q0 -27 -16 -44.5t-45 -17.5q-27 0 -42.5 17t-15.5 42z" />
<glyph unicode="&#xf0;" horiz-adv-x="517" d="M35 239q0 108 57 176.5t161 68.5q53 0 95 -29q-18 48 -48 99l-112 -31l-20 78l75 16l-54 42l58 70q56 -35 103 -86l122 32l20 -77l-94 -20q84 -137 84 -328q0 -117 -58.5 -188.5t-169.5 -71.5q-110 0 -164.5 67.5t-54.5 181.5zM158 248q0 -174 106 -174q95 0 95 166 q0 77 -23 121t-83 44q-54 0 -74.5 -41t-20.5 -116z" />
<glyph unicode="&#xf1;" horiz-adv-x="549" d="M25 465l90 36q38 -37 49 -108q25 57 72.5 85t105.5 28q146 0 146 -172v-334h-113v323q0 93 -66 93q-48 0 -84.5 -47t-36.5 -122v-247h-114v252q0 71 -12 124t-24 71zM157 589v74q34 23 79 23q24 0 76 -10t77 -10q20 0 40 3.5t30 6.5l10 4v-74q-35 -23 -80 -23 q-25 0 -77 10t-76 10q-20 0 -40 -3.5t-30 -7.5z" />
<glyph unicode="&#xf2;" horiz-adv-x="517" d="M35 244q0 118 58.5 192t169.5 74q219 0 219 -255q0 -118 -58.5 -191.5t-169.5 -73.5q-219 0 -219 254zM59 708l76 71l170 -189l-48 -52q-13 8 -35 22.5t-75 59t-88 88.5zM158 254q0 -84 23 -132t83 -48q54 0 74.5 45t20.5 126q0 85 -23 133t-83 48q-54 0 -74.5 -45 t-20.5 -127z" />
<glyph unicode="&#xf3;" horiz-adv-x="517" d="M35 244q0 118 58.5 192t169.5 74q219 0 219 -255q0 -118 -58.5 -191.5t-169.5 -73.5q-219 0 -219 254zM158 254q0 -84 23 -132t83 -48q54 0 74.5 45t20.5 126q0 85 -23 133t-83 48q-54 0 -74.5 -45t-20.5 -127zM200 590l170 189l76 -71q-35 -44 -84.5 -86.5t-81.5 -63.5 l-31 -20z" />
<glyph unicode="&#xf4;" horiz-adv-x="517" d="M35 244q0 118 58.5 192t169.5 74q219 0 219 -255q0 -118 -58.5 -191.5t-169.5 -73.5q-219 0 -219 254zM76 592l188 187l187 -187l-43 -54l-19 12q-19 11 -55.5 37t-69.5 55q-34 -29 -70.5 -55t-55.5 -37l-19 -12zM158 254q0 -84 23 -132t83 -48q54 0 74.5 45t20.5 126 q0 85 -23 133t-83 48q-54 0 -74.5 -45t-20.5 -127z" />
<glyph unicode="&#xf5;" horiz-adv-x="517" d="M35 244q0 118 58.5 192t169.5 74q219 0 219 -255q0 -118 -58.5 -191.5t-169.5 -73.5q-219 0 -219 254zM95 589v74q34 23 79 23q24 0 76 -10t77 -10q20 0 40 3.5t30 6.5l10 4v-74q-35 -23 -80 -23q-25 0 -77 10t-76 10q-20 0 -40 -3.5t-30 -7.5zM158 254q0 -84 23 -132 t83 -48q54 0 74.5 45t20.5 126q0 85 -23 133t-83 48q-54 0 -74.5 -45t-20.5 -127z" />
<glyph unicode="&#xf6;" horiz-adv-x="517" d="M35 244q0 118 58.5 192t169.5 74q219 0 219 -255q0 -118 -58.5 -191.5t-169.5 -73.5q-219 0 -219 254zM94 649q0 29 16.5 47t46.5 18q29 0 45 -17.5t16 -45.5t-17 -46t-47 -18q-28 0 -44 18t-16 44zM158 254q0 -84 23 -132t83 -48q54 0 74.5 45t20.5 126q0 85 -23 133 t-83 48q-54 0 -74.5 -45t-20.5 -127zM293 649q0 29 16.5 47t47.5 18q29 0 45 -17.5t16 -45.5t-17 -46t-47 -18q-28 0 -44.5 17.5t-16.5 44.5z" />
<glyph unicode="&#xf7;" horiz-adv-x="511" d="M60 257v89h391v-89h-391zM194 133q0 28 16 45.5t45 17.5q27 0 42.5 -16.5t15.5 -43.5t-16 -44.5t-45 -17.5q-27 0 -42.5 17t-15.5 42zM194 462q0 28 16 45.5t45 17.5q27 0 42.5 -16.5t15.5 -43.5t-16 -44.5t-45 -17.5q-27 0 -42.5 17t-15.5 42z" />
<glyph unicode="&#xf8;" horiz-adv-x="517" d="M35 244q0 118 58.5 192t169.5 74q37 0 71 -8l25 51l77 -35l-27 -55q73 -64 73 -208q0 -118 -58.5 -191.5t-169.5 -73.5q-37 0 -71 8l-25 -52l-78 35l27 56q-72 63 -72 207zM158 254q0 -59 9 -94l126 258q-18 8 -40 8q-54 0 -74.5 -45t-20.5 -127zM224 81q15 -7 40 -7 q54 0 74.5 45t20.5 126q0 55 -10 95z" />
<glyph unicode="&#xf9;" horiz-adv-x="549" d="M60 166v332h114v-330q0 -90 66 -90q47 0 84 50t37 126v244h114v-257q0 -70 12 -123.5t24 -71.5l12 -18l-89 -36q-5 4 -12 12.5t-20.5 37.5t-17.5 61q-26 -55 -73.5 -82t-104.5 -27q-146 0 -146 172zM73 708l76 71l170 -189l-48 -52q-13 8 -35 22.5t-75 59t-88 88.5z" />
<glyph unicode="&#xfa;" horiz-adv-x="549" d="M60 166v332h114v-330q0 -90 66 -90q47 0 84 50t37 126v244h114v-257q0 -70 12 -123.5t24 -71.5l12 -18l-89 -36q-5 4 -12 12.5t-20.5 37.5t-17.5 61q-26 -55 -73.5 -82t-104.5 -27q-146 0 -146 172zM214 590l170 189l76 -71q-35 -44 -84.5 -86.5t-81.5 -63.5l-31 -20z " />
<glyph unicode="&#xfb;" horiz-adv-x="549" d="M60 166v332h114v-330q0 -90 66 -90q47 0 84 50t37 126v244h114v-257q0 -70 12 -123.5t24 -71.5l12 -18l-89 -36q-5 4 -12 12.5t-20.5 37.5t-17.5 61q-26 -55 -73.5 -82t-104.5 -27q-146 0 -146 172zM91 592l188 187l187 -187l-43 -54l-19 12q-19 11 -55.5 37t-69.5 55 q-34 -29 -70.5 -55t-55.5 -37l-19 -12z" />
<glyph unicode="&#xfc;" horiz-adv-x="549" d="M60 166v332h114v-330q0 -90 66 -90q47 0 84 50t37 126v244h114v-257q0 -70 12 -123.5t24 -71.5l12 -18l-89 -36q-5 4 -12 12.5t-20.5 37.5t-17.5 61q-26 -55 -73.5 -82t-104.5 -27q-146 0 -146 172zM109 649q0 29 16.5 47t46.5 18q29 0 45 -17.5t16 -45.5t-17 -46 t-47 -18q-28 0 -44 18t-16 44zM308 649q0 29 16.5 47t47.5 18q29 0 45 -17.5t16 -45.5t-17 -46t-47 -18q-28 0 -44.5 17.5t-16.5 44.5z" />
<glyph unicode="&#xfd;" horiz-adv-x="538" d="M60 166v332h114v-329q0 -90 66 -90q42 0 81 43.5t39 104.5v271h117l-5 -296q-1 -41 14.5 -105.5t15.5 -103.5q0 -103 -53 -156.5t-147 -53.5q-52 0 -108.5 15.5t-74.5 26.5l28 87q99 -39 145 -39q53 0 79.5 32.5t26.5 87.5q0 48 -20 99q-52 -98 -172 -98q-146 0 -146 172 zM211 590l170 189l76 -71q-35 -44 -84.5 -86.5t-80.5 -63.5l-32 -20z" />
<glyph unicode="&#xfe;" horiz-adv-x="532" d="M65 -221v926l114 20v-288q39 69 134 69q91 0 137.5 -66t46.5 -182q0 -115 -66.5 -189.5t-172.5 -74.5q-27 0 -79 6v-201zM179 84q40 -10 66 -10q71 0 100 45.5t29 128.5q0 41 -2.5 68t-10 54.5t-24.5 41t-43 13.5q-48 0 -81.5 -57.5t-33.5 -132.5v-151z" />
<glyph unicode="&#xff;" horiz-adv-x="538" d="M60 166v332h114v-329q0 -90 66 -90q42 0 81 43.5t39 104.5v271h117l-5 -296q-1 -41 14.5 -105.5t15.5 -103.5q0 -103 -53 -156.5t-147 -53.5q-52 0 -108.5 15.5t-74.5 26.5l28 87q99 -39 145 -39q53 0 79.5 32.5t26.5 87.5q0 48 -20 99q-52 -98 -172 -98q-146 0 -146 172 zM105 649q0 29 16.5 47t46.5 18q29 0 45 -17.5t16 -45.5t-17 -46t-47 -18q-28 0 -44 18t-16 44zM304 649q0 29 16.5 47t47.5 18q29 0 45 -17.5t16 -45.5t-17 -46t-47 -18q-28 0 -44.5 17.5t-16.5 44.5z" />
<glyph unicode="&#x152;" horiz-adv-x="854" d="M45 330q0 163 74.5 259.5t221.5 96.5q48 0 82 -9h391v-90h-284v-189h234l-15 -91h-219v-217h299v-90h-418q-58 -6 -83 -6q-283 0 -283 336zM174 341q0 -43 4 -78.5t15.5 -69.5t29.5 -56.5t48.5 -36.5t70.5 -14q20 0 70 6v489q-39 13 -85 13q-153 0 -153 -253z" />
<glyph unicode="&#x153;" horiz-adv-x="800" d="M35 244q0 118 58.5 192t169.5 74q107 0 165 -78q67 78 175 78q84 0 125 -39t41 -103q0 -74 -79 -126.5t-208 -53.5q13 -113 111 -113q26 0 61.5 8.5t57.5 17.5l23 9l30 -71q-87 -46 -187 -46q-108 0 -164 71q-61 -74 -160 -74q-219 0 -219 254zM158 254q0 -84 23 -132 t83 -48q54 0 74.5 45t20.5 126q0 85 -23 133t-83 48q-54 0 -74.5 -45t-20.5 -127zM480 260q88 3 132 35.5t44 72.5q0 29 -17.5 46.5t-44.5 17.5q-60 0 -86 -49.5t-28 -122.5z" />
<glyph unicode="&#x178;" horiz-adv-x="543" d="M0 677h129l142 -307l145 307h126l-213 -423v-254h-119v259zM109 809q0 29 16.5 47t46.5 18q29 0 45 -17.5t16 -45.5t-17 -46t-47 -18q-28 0 -44 18t-16 44zM308 809q0 29 16.5 47t47.5 18q29 0 45 -17.5t16 -45.5t-17 -46t-47 -18q-28 0 -44.5 17.5t-16.5 44.5z" />
<glyph unicode="&#x2c6;" d="M70 592l188 187l187 -187l-43 -54l-19 12q-19 11 -55.5 37t-69.5 55q-34 -29 -70.5 -55t-55.5 -37l-19 -12z" />
<glyph unicode="&#x2dc;" d="M94 589v74q34 23 79 23q25 0 77 -10t76 -10q20 0 40 3.5t30 6.5l10 4v-74q-35 -23 -80 -23q-24 0 -76 10t-77 10q-20 0 -40 -3.5t-29 -7.5z" />
<glyph unicode="&#x2000;" horiz-adv-x="464" />
<glyph unicode="&#x2001;" horiz-adv-x="928" />
<glyph unicode="&#x2002;" horiz-adv-x="464" />
<glyph unicode="&#x2003;" horiz-adv-x="928" />
<glyph unicode="&#x2004;" horiz-adv-x="309" />
<glyph unicode="&#x2005;" horiz-adv-x="232" />
<glyph unicode="&#x2006;" horiz-adv-x="154" />
<glyph unicode="&#x2007;" horiz-adv-x="154" />
<glyph unicode="&#x2008;" horiz-adv-x="116" />
<glyph unicode="&#x2009;" horiz-adv-x="185" />
<glyph unicode="&#x200a;" horiz-adv-x="51" />
<glyph unicode="&#x2010;" horiz-adv-x="383" d="M50 278v83h283v-83h-283z" />
<glyph unicode="&#x2011;" horiz-adv-x="383" d="M50 278v83h283v-83h-283z" />
<glyph unicode="&#x2012;" horiz-adv-x="383" d="M50 278v83h283v-83h-283z" />
<glyph unicode="&#x2013;" d="M0 278v83h500v-83h-500z" />
<glyph unicode="&#x2014;" horiz-adv-x="698" d="M0 278v83h698v-83h-698z" />
<glyph unicode="&#x2018;" horiz-adv-x="230" d="M20 508q0 75 38.5 129.5t98.5 84.5l43 -58q-67 -48 -67 -114q0 -22 9.5 -55t9.5 -43q-18 -18 -65 -18q-33 0 -50 20t-17 54z" />
<glyph unicode="&#x2019;" horiz-adv-x="230" d="M30 494q66 48 66 114q0 22 -9.5 55t-9.5 43q18 18 66 18q33 0 50 -20t17 -54q0 -75 -38.5 -129.5t-98.5 -84.5z" />
<glyph unicode="&#x201a;" horiz-adv-x="230" d="M30 -89q66 48 66 114q0 22 -9.5 55t-9.5 43q18 18 66 18q33 0 50 -20t17 -54q0 -75 -38.5 -129.5t-98.5 -84.5z" />
<glyph unicode="&#x201c;" horiz-adv-x="430" d="M20 508q0 75 38.5 129.5t98.5 84.5l43 -58q-67 -48 -67 -114q0 -22 9.5 -55t9.5 -43q-18 -18 -65 -18q-33 0 -50 20t-17 54zM219 508q0 75 39 129.5t99 84.5l42 -58q-66 -48 -66 -114q0 -22 9.5 -55t9.5 -43q-18 -18 -65 -18q-34 0 -51 20t-17 54z" />
<glyph unicode="&#x201d;" horiz-adv-x="430" d="M30 497q66 48 66 114q0 22 -9.5 55t-9.5 43q18 18 66 18q33 0 50 -20t17 -54q0 -75 -38.5 -129.5t-98.5 -84.5zM230 497q66 48 66 114q0 22 -9.5 55t-9.5 43q18 18 65 18q34 0 51 -20t17 -54q0 -75 -39 -129.5t-99 -84.5z" />
<glyph unicode="&#x201e;" horiz-adv-x="430" d="M30 -89q66 48 66 114q0 22 -9.5 55t-9.5 43q18 18 66 18q33 0 50 -20t17 -54q0 -75 -38.5 -129.5t-98.5 -84.5zM230 -89q66 48 66 114q0 22 -9.5 55t-9.5 43q18 18 65 18q34 0 51 -20t17 -54q0 -75 -39 -129.5t-99 -84.5z" />
<glyph unicode="&#x2022;" horiz-adv-x="314" d="M50 316q0 49 29 78t78 29t78 -29t29 -78t-29 -78t-78 -29t-78 29t-29 78z" />
<glyph unicode="&#x202f;" horiz-adv-x="185" />
<glyph unicode="&#x2039;" horiz-adv-x="347" d="M50 245q34 44 88 98t90 87l37 32l47 -54l-130 -163l130 -163l-47 -54q-138 119 -215 217z" />
<glyph unicode="&#x203a;" horiz-adv-x="347" d="M35 82l130 163l-130 163l48 54q137 -119 214 -217q-34 -44 -87.5 -98t-89.5 -87l-37 -32z" />
<glyph unicode="&#x205f;" horiz-adv-x="232" />
<glyph unicode="&#x20ac;" horiz-adv-x="554" d="M35 186v88h48q-1 11 -1 35q0 17 1 26h-48v89h60q25 101 92 160t161 59t150 -68l-57 -71q-45 50 -105 50q-42 0 -73 -35t-46 -95h216l-15 -89h-213q0 -2 -0.5 -10.5t-0.5 -15.5q0 -14 3 -35h206l-15 -88h-174q38 -103 121 -103q20 0 42 3.5t36.5 8t27.5 9t14 4.5l25 -82 q-79 -32 -166 -32q-84 0 -144.5 49.5t-84.5 142.5h-60zM490 26z" />
<glyph unicode="&#xe000;" d="M0 0v500h500v-500h-500z" />
</font>
</defs>
</svg>
