<?xml version="1.0" standalone="no"?>
<!DOCTYPE svg PUBLIC "-//W3C//DTD SVG 1.1//EN" "http://www.w3.org/Graphics/SVG/1.1/DTD/svg11.dtd" >
<svg xmlns="http://www.w3.org/2000/svg">
<metadata></metadata>
<defs>
<font id="barrioregular" horiz-adv-x="1024" >
<font-face units-per-em="2048" ascent="1561" descent="-487" />
<missing-glyph horiz-adv-x="614" />
<glyph unicode="&#xfb01;" horiz-adv-x="1202" d="M129 170q0 30 1 90.5t1 81.5q0 44 4 186t4 160q0 16 -4 73t-4 107q0 45 3 100.5t3 80.5v184q0 19 4 73t4 74v9q0 21 7 26.5t22 5.5q7 0 32.5 -2t37.5 -2q39 0 134 4t120 4h49q67 0 143 -2h195q30 0 97 -2t89 -2t29.5 -6t7.5 -20v-271q0 -16 -5 -21t-26 -5q-15 0 -101 6 t-106 6h-381q-36 0 -86 -4l-43 -4q-2 -12 -2 -37v-191q0 -25 -4 -57l-4 -27h45q14 0 42 1.5t40 1.5h148q128 0 190 4l47 2q5 2 39 2h156q37 -2 37 -35q0 -4 -7 -71.5t-8 -131.5q-10 -127 -10 -215q0 -45 2 -53q0 -9 3 -60.5t3 -74.5q0 -14 -2 -28t-2 -28q0 -19 2 -55.5 t2 -42.5q1 -8 -3.5 -13t-14 -6.5t-18.5 -1.5t-23 1h-184q-17 0 -26.5 5.5t-11.5 11t-3 17.5q-3 9 4.5 44.5t7.5 54.5q0 23 12 142.5t12 133.5q0 16 4.5 110.5t4.5 108.5q0 28 6 82h-160q-39 1 -71 2t-46.5 1.5t-21.5 0.5h-109q-51 0 -80 -2v-198q0 -98 -5 -192t-5 -152 q0 -31 1 -73.5t1 -47.5q0 -16 -7.5 -23t-14 -7.5t-25.5 -0.5h-141q-10 1 -15.5 4t-8 10.5t-3 13.5t-0.5 21v23q-4 32 -4 96z" />
<glyph unicode="&#xfb02;" horiz-adv-x="2048" d="M129 170q0 30 1 90.5t1 81.5q0 44 4 186t4 160q0 16 -4 73t-4 107q0 45 3 100.5t3 80.5v184q0 19 4 73t4 74v9q0 21 7 26.5t22 5.5q7 0 32.5 -2t37.5 -2q39 0 134 4t120 4l223 -2q86 0 174 -2l121 -2h35h24l53 -2h19q7 0 9.5 -3t2.5 -13q-14 -357 -14 -414l-2 -293 q0 -13 2 -84.5t2 -105.5q0 -22 -1 -49.5t-1 -40.5q0 -9 2 -11l49 -4q66 -4 109 -2q37 0 188.5 2t189.5 2q45 0 173.5 -4t138.5 -4q22 -2 22 -12q0 -3 -2 -11t-2 -12v-94q0 -25 10.5 -128.5t10.5 -112.5q0 -2 1 -6t1 -5q0 -10 -10 -13t-37 -3q-15 0 -189.5 3t-214.5 3 q-27 0 -158.5 -6t-175.5 -6q-9 0 -20.5 1t-13.5 1q-12 2 -48 2q-28 0 -84 -2t-71 -2q-11 0 -18 1.5t-11 3t-5.5 7.5t-1.5 9.5t0.5 14t0.5 17.5q0 15 6 178.5t6 188.5q0 17 -5 113.5t-5 133.5q0 25 2 31q7 45 21 289l-115 2q-45 1 -97 3.5t-85 2.5h-218q-36 0 -86 -4l-43 -4 q-2 -12 -2 -37v-68q0 -25 -4 -57l-4 -27h45q14 0 42 1.5t40 1.5h148q45 0 108 4t82 4q41 0 41 -25t-10 -59q-1 -16 -7.5 -19.5t-21.5 -3.5q-7 0 -36 1t-46 1q-13 0 -91 2t-99 2h-109q-51 0 -80 -2v-198q0 -98 -5 -192t-5 -152q0 -31 1 -73.5t1 -47.5q0 -16 -7.5 -23 t-14 -7.5t-25.5 -0.5h-141q-10 1 -15.5 4t-8 10.5t-3 13.5t-0.5 21v23q-4 32 -4 96z" />
<glyph horiz-adv-x="2048" />
<glyph horiz-adv-x="2048" />
<glyph unicode="&#xd;" horiz-adv-x="2048" />
<glyph unicode=" "  horiz-adv-x="614" />
<glyph unicode="&#x09;" horiz-adv-x="614" />
<glyph unicode="&#xa0;" horiz-adv-x="614" />
<glyph unicode="!" horiz-adv-x="495" d="M96 1333v45q0 46 10.5 63t30.5 17q11 0 17 -2q9 -1 74.5 0.5t117.5 -2.5q25 -3 35 -11t10 -22q0 -5 -1 -12t-2.5 -16.5t-2.5 -16.5q-6 -69 -9.5 -130t-7.5 -155.5t-10 -189.5q0 -20 -1 -56.5t-1 -53.5t1 -46.5t1 -42.5q3 -40 3.5 -56.5t-0.5 -35t-1 -39.5q0 -32 2.5 -99 t2.5 -79q1 -26 -16 -33.5t-46 -5.5h-104q-17 -1 -27 3t-14.5 16t-5.5 19t-2 26q-5 25 -5 92v82l-4 160q-3 145 -24 356q-21 212 -21 225zM117 123q0 37 13.5 64t35.5 40t44 19t46 6q35 0 62 -13.5t41.5 -35t22 -44.5t7.5 -44q0 -15 -2 -21q0 -36 -44 -80.5t-99 -44.5 q-33 0 -62.5 21t-47 57t-17.5 76z" />
<glyph unicode="&#x22;" horiz-adv-x="763" d="M131 977v229q8 60 8 109q0 44 -8 55v111q8 32 16.5 43.5t30.5 11.5h101q26 0 26 -47q0 -13 -5 -45t-5 -45q0 -93 -8 -156v-248q0 -92 -19 -92h-121q-3 0 -6.5 10t-6.5 28t-3 36zM469 950v531q0 55 45 55h102q27 0 27 -47q-10 -27 -10 -90q0 -17 -4 -69t-4 -87v-266 q0 -74 -17 -74h-112q-10 0 -16 1.5t-8.5 7t-3 8t0 14t0.5 16.5z" />
<glyph unicode="#" horiz-adv-x="1357" d="M61 375q0 15 11.5 35.5t15.5 33.5q3 11 10 18t14 9t13 2q14 -6 70 -6q11 0 17.5 3.5t9 10.5t3 11t0.5 12q0 2 6.5 47.5t6.5 75.5q8 39 22 147t14 135q0 11 -2 17.5t-6 8.5t-6 2.5t-6 0.5h-80q-10 0 -15.5 4.5t-6 7.5t-0.5 8q4 8 10 24.5t12 29t14 20.5q6 0 32.5 3t39.5 3 q9 0 15 1.5t10 7t5.5 9.5t5.5 15.5t7 18.5q1 5 7 38.5t11 59.5t9 61t4 58q0 17 4.5 28t10.5 16.5t18.5 8.5t21 3.5t25.5 0.5h123q27 0 69.5 -8.5t42.5 -24.5q0 -7 -5.5 -21.5t-6.5 -17.5q-23 -90 -29 -131q-3 -19 -9 -53t-6.5 -40.5t1.5 -20.5q0 -11 20 -11q4 0 18 1t21 1 q37 0 158 17h197q6 0 9.5 1.5t6 3t4 6t2 7.5t2 11.5t2.5 13.5q4 32 19 106t26 103q7 48 35 36q2 0 12 1.5t26.5 3.5t35.5 2q18 -3 18 -13q0 -5 -10.5 -26.5t-13.5 -38.5q-3 -21 -13 -72.5t-17 -90t-7 -48.5q0 -17 20 -17q4 0 14 1.5t15 1.5q16 0 88 14q4 2 8 2q10 0 15.5 -9 t5.5 -16q-3 -3 -4.5 -9.5t-4.5 -18.5t-6 -21q-4 -16 -17 -23.5t-26 -7.5h-102q-29 0 -29 -43q-13 -30 -28 -165q-13 -52 -32.5 -150t-19.5 -111q-4 -16 -4 -18q10 -10 27 -10q4 -4 27 -4q34 0 96 10q14 0 23 -6t9 -12.5t-3 -10.5q0 -6 -3.5 -29t-3.5 -36q-6 -17 -22 -17 q-4 0 -12 1t-11 1q-10 0 -60.5 -4t-62.5 -4q-20 5 -24 -4t-4 -42v-11q-5 -30 -26 -137t-25 -123q0 -22 -9.5 -29t-19.5 0q-7 0 -23.5 -2t-23.5 -2q-9 0 -25 4q-16 0 -16 14q0 9 7 32t9 34q1 5 13 68t21 116.5t9 69.5q0 3 1 7.5t1 6.5q0 9 -3.5 13t-8 4t-13.5 -1t-14 -1 q-10 2 -43 2q-18 0 -56 -1t-52 -1q-29 0 -103.5 3t-83.5 3q-4 2 -10 2q-12 0 -19 -10t-7 -21t-17 -94q-5 -29 -15.5 -118t-10.5 -114q0 -16 -5 -22t-16 -6t-41 5t-47 5q-51 0 -139 -10q-33 0 -33 20q0 5 2 13.5t2 9.5q14 33 25.5 145.5t11.5 171.5q0 1 1 3t1 3q0 11 -25 11 h-108q-19 0 -19 8zM506 494q0 -22 31 -27q19 0 116 3t123 3q43 -6 123 -6q19 0 28 8t15 35q0 1 9.5 104t19.5 129q19 119 37 166q1 8 3.5 23t2.5 20q0 23 -29 23q-21 0 -96 -11.5t-101 -11.5q-32 -4 -65 -4q-32 0 -64 4q-27 9 -55 9q-21 0 -24 -9q-1 -4 -23 -100 q0 -28 -15 -138.5t-22 -129.5q-14 -72 -14 -80v-10z" />
<glyph unicode="$" d="M45 168q0 28 35 72q12 12 18 12q13 0 25 -12q52 -58 137 -99t174 -45v129q0 33 3 96t3 97v213q-28 17 -69.5 42t-70.5 43t-50 32q-93 64 -142 148.5t-49 176.5q0 163 144 301q93 68 211 94v25q0 38 -8 61q0 27 20 27q39 0 55 8h29q41 0 41 -41v-71q215 -26 369 -177 q20 -23 20 -55q0 -24 -8 -43q-2 -26 -20.5 -43.5t-43.5 -13.5q-16 5 -46.5 36.5t-62 66t-88 66t-120.5 36.5q0 -118 6 -181q0 -147 8 -219v-53q70 -33 122.5 -64t106 -75t89.5 -93t62 -116.5t34 -147.5q2 -16 2 -45q0 -336 -412 -403q0 -27 9 -43v-35q-9 0 -9 -4q-2 -2 0 -4 q-3 0 -9 -3t-9 -3h-57q-34 0 -45 14q-7 0 -23 16q-2 4 -2 21q0 21 2 35v6q-163 0 -291 110q-48 35 -69 58.5t-21 46.5zM287 1163q0 -62 39 -112t100 -82v112q0 32 -3 78t-3 58v122q-133 -58 -133 -176zM565 350q4 -118 4 -166v-73q52 17 96 71.5t44 114.5q0 59 -38 115.5 t-106 119.5v-182z" />
<glyph unicode="%" horiz-adv-x="1484" d="M49 956q0 99 41 224q26 65 74.5 120t107.5 80q47 13 82 13q81 0 187 -64q34 -32 67 -100q8 -16 16.5 -50t16.5 -51q18 -84 18 -217q0 -151 -18 -200q-36 -74 -96.5 -113t-136.5 -39q-85 0 -136 16q-57 28 -100 68q-90 93 -117 234q-6 41 -6 79zM268 969q0 -21 2 -58 t2 -51q0 -27 14.5 -58t37.5 -42l75 -2q41 41 41 86q6 37 6 69q0 59 -22 164q-5 5 -13.5 25.5t-21 33.5t-33.5 13q-38 0 -65 -53q-23 -47 -23 -127zM307 23q0 9 8.5 26t8.5 25q33 68 67 100q38 64 141.5 244.5t159.5 273.5q153 260 301 488q15 31 57.5 106t59.5 111 q3 3 16.5 29.5t34.5 37.5h33q4 0 17 2t20 2q24 0 14 -22q0 -49 -35 -84q-8 -16 -32.5 -49t-32.5 -51q-19 -31 -62.5 -113.5t-72.5 -120.5q-160 -253 -250 -418q-44 -68 -91 -148.5t-103 -179.5t-91 -159q-3 -5 -17 -42t-34 -58q-17 -17 -100 -17h-8t-7 0.5t-5.5 2t-2.5 3 t0.5 4.5t5.5 7zM825 426q0 157 68 266q35 59 95.5 98t125.5 39q21 0 31 -2q61 0 122.5 -36.5t98.5 -88.5q22 -33 31 -56.5t28 -88.5q15 -103 15 -168q0 -77 -10 -131q-12 -47 -19.5 -70t-24.5 -57t-40 -57q-46 -44 -79.5 -64.5t-88.5 -25.5q-13 -1 -99 10q-117 19 -202 164 q-52 122 -52 268zM1014 383q0 -61 12 -125q0 -39 32 -78t68 -39q20 0 36.5 6t28.5 19t20 24.5t15 33t10 32.5t9 35q8 31 8 69q0 29 -4.5 82t-5.5 68q0 22 -4 45.5t-12 48t-25.5 40t-40.5 15.5q-59 0 -97 -47.5t-38 -103.5q-12 -62 -12 -125z" />
<glyph unicode="&#x26;" horiz-adv-x="1187" d="M100 449q0 114 107 237q46 56 108 102q-49 38 -90 97q-90 126 -90 297q0 66 15.5 119t38 86t56 57t61 35.5t63 17.5t52 7t36.5 1q62 0 117 -23t97.5 -67t67.5 -113t25 -155q0 -142 -109 -285q-43 -56 -106 -110l160 -160q6 -4 16 -12.5t20 -18t24.5 -23.5t25.5 -25 t27.5 -28t27.5 -28l98 -109l21 31q25 45 35 78q14 46 14 106t2.5 73t19.5 19q27 9 45 9q15 0 34 -14.5t20 -33.5q2 -16 2 -26q0 -3 -0.5 -9t-1 -21t-0.5 -40q0 -58 -54 -160q-15 -33 -53 -92q37 -37 101 -98q20 -17 20 -45q0 -16 -12 -25q-4 -2 -13.5 -13t-29.5 -21 q-12 -15 -25 -15q-10 0 -20 7.5t-22 22t-13 15.5q-5 4 -17 18.5t-18 20.5l-22 27q-39 -42 -105 -82q-140 -80 -307 -80q-103 0 -191.5 31t-132.5 75q-60 46 -92.5 125.5t-32.5 217.5zM207 430q-6 -96 26 -162q77 -162 297 -162q69 0 123.5 7t85 16t55 23.5t32 23t17 23 l9.5 14.5q6 9 6 18q0 15 -41 56q-5 5 -29.5 29t-42 42t-45.5 46t-49 50.5t-43 46.5t-37 42.5t-22 29.5q-11 10 -33 34t-39.5 42.5t-37.5 33.5t-33 15q-6 0 -27.5 -14t-50.5 -40t-56 -57.5t-46 -74t-19 -82.5zM262 1219q0 -52 1.5 -77.5t7.5 -62.5t21.5 -67t41.5 -62 q21 -21 41.5 -43.5t27.5 -29.5t16 -12t21 -5q15 0 49.5 25.5t72 64t65.5 93t28 104.5q0 73 -22.5 129t-67.5 88.5t-106 32.5q-16 0 -33.5 -3t-37 -10.5t-37.5 -17.5t-34 -24.5t-28.5 -32.5t-19.5 -41t-7 -49z" />
<glyph unicode="'" horiz-adv-x="419" d="M135 989v488q0 51 51 51h103q28 0 28 -45q-2 -31 -2 -82q0 -15 -4 -64t-4 -82l-2 -247q0 -61 -18 -68q-18 -6 -58 -6q-23 0 -63 4q-15 3 -22 11t-8 15.5t-1 24.5z" />
<glyph unicode="(" horiz-adv-x="757" d="M66 852q0 105 20.5 198.5t51 156.5t68.5 117.5t69.5 84.5t58.5 54.5t31 31.5q11 16 30 16q13 0 38 -8t34 -8h168q33 0 33 -12q0 -15 -39 -43q-17 -11 -32.5 -23t-47 -43.5t-57 -66.5t-56 -92.5t-51.5 -122t-35 -154.5t-14 -190q0 -97 19.5 -194t46 -171t67.5 -149 t71 -120t70.5 -94t51.5 -60l28 -28q15 -15 15 -24q0 -10 -21 -10q-16 0 -70 -8.5t-77 -8.5q-30 0 -41.5 0.5t-34 7.5t-41.5 21q-3 2 -26.5 17t-46 31t-57 52.5t-63.5 80.5t-59.5 118t-52 161t-35.5 212t-14 270z" />
<glyph unicode=")" horiz-adv-x="784" d="M57 -129q0 10 17 27q1 2 33.5 39t70.5 84t86 126.5t86 164.5t64 200.5t26 232.5q0 103 -14.5 196.5t-36.5 160.5t-53 127t-58 97t-59 69t-49 45.5t-33 23.5q-41 30 -41 45q0 13 35 13h172q11 0 36 8t38 8q22 0 35 -16q4 -7 31.5 -32.5t60 -57.5t71.5 -88.5t70.5 -121.5 t52.5 -162t21 -206q0 -161 -16.5 -299t-41 -231t-61.5 -171t-66.5 -121t-69.5 -79t-58.5 -47.5t-42.5 -24.5q-3 -2 -4.5 -2.5t-3.5 -1.5t-3 -2q-20 -14 -43 -21t-35 -7.5t-43 -0.5q-22 0 -77 7.5t-74 7.5q-23 0 -23 10z" />
<glyph unicode="*" horiz-adv-x="1060" d="M51 1128q0 10 3.5 16.5t8 10t13.5 5t14.5 2t18 0t16.5 -0.5h158q32 0 32 8q0 1 -16 25q-12 49 -51 100q-37 58 -47 99q-7 11 -4 20.5t10 16.5t19 13.5t23 11.5q5 2 7 3l92 58q8 8 14 8q11 0 27 -25q7 -7 17.5 -26t24.5 -46t24 -43q29 -57 43 -81l24 -43q10 0 17.5 11.5 t16.5 36t13 33.5q4 16 45.5 84t44.5 74q13 27 31 27q9 0 29 -10q28 -28 108 -58q25 -8 25 -26q0 -7 -4 -16.5t-11 -21.5t-10 -18q-12 -30 -49 -97t-51 -85q-22 -22 18 -27q23 -3 56 2h172q39 0 39 -24q0 -9 -4 -17v-133q0 -26 -41 -26q-15 0 -25 2q-21 0 -104.5 -3 t-102.5 -3q-22 -5 -22 -17q0 -11 32 -51q89 -150 107 -172q4 -6 4 -16q0 -21 -29 -35q-96 -57 -116 -66q-12 -4 -17 -4q-7 0 -13.5 4.5t-10 10t-10 15.5t-9.5 15q-26 61 -63 107q-31 75 -51 75q-6 0 -10 -8.5t-9.5 -24.5t-11.5 -26q-44 -92 -76 -137q-12 -21 -39 -21 q-21 0 -35 11q-18 10 -64 26t-61 23q-18 15 -18 26q0 4 1.5 9t4.5 12t4 12q4 7 20.5 29t30.5 45q5 10 51 82q30 53 9 57q-6 0 -24 -2t-27 -2q-11 0 -27 4q-16 0 -79 -8t-85 -8q-15 0 -23 13t-9 25.5t-1 35.5q0 12 -4 56t-4 68z" />
<glyph unicode="+" d="M31 655q-4 39 8 58.5t33 19.5q5 0 39.5 1t58.5 1q39 0 55 -2q19 1 80 -3t72 3q8 1 13.5 4.5t8.5 10t5 12.5t2.5 17t0.5 18.5t-0.5 22.5t-0.5 24v159q-5 25 -5 72q0 96 15 117q18 6 35 6q10 2 102 2q12 1 20.5 -1.5t13.5 -10t8.5 -14.5t4 -19t1 -19.5t0 -19.5t-0.5 -16 q0 -10 1 -41t1 -53q4 -70 4 -86q0 -21 1 -49.5t1 -41.5q0 -29 -2 -47v-18q0 -19 4 -29q0 -5 52 -8h79q55 8 203 8q19 0 31 -5.5t16 -16.5t5 -17t1 -18v-107q0 -45 -53 -45h-305q-23 -8 -23 -41q0 -8 1 -25t1 -26l3 -133q2 -14 2 -74q2 -35 2 -78q0 -45 -10 -65.5t-31 -26.5 q-5 0 -55 4t-74 4q-22 0 -33 13.5t-12.5 25.5t-1.5 33v346q0 39 -48 39q-22 0 -49 -6q-15 0 -109.5 -4t-117.5 -4q-25 0 -31 7.5t-6 33.5q-4 17 -8.5 53t-7.5 55z" />
<glyph unicode="," horiz-adv-x="374" d="M47 -156q57 210 84 306l27 77q4 18 20 28.5t37 10.5h104q25 0 25 -14q0 -7 -6 -19q-6 -29 -19 -65q-3 -13 -17 -52t-21 -65q-12 -31 -33 -109t-21 -87q-2 -3 -7 -15.5t-11 -22.5t-12 -14q-12 -4 -58 -4q-47 0 -67 4q-10 0 -15.5 1.5t-7.5 6.5t-2.5 8t0 12t0.5 13z" />
<glyph unicode="-" d="M123 635q0 12 22 12q7 0 31 -4h148q40 0 113.5 3t156.5 3h287q9 0 14 -4t5.5 -7.5t-0.5 -12.5t-1 -11v-106q0 -16 -22 -16q-4 0 -15 1t-16 1q-4 0 -56.5 -3.5t-82.5 -3.5q-11 0 -28.5 -0.5t-57 -1.5t-91.5 -2q-51 0 -88.5 -0.5t-57 -1t-26.5 -0.5q-18 -4 -67 -4 q-28 0 -71.5 2t-51.5 2q-14 0 -22 1t-11.5 4.5t-4 5.5t0 10.5t0.5 11.5q0 9 -3.5 39t-5 49.5t0.5 32.5z" />
<glyph unicode="." horiz-adv-x="481" d="M94 139q0 140 148 140q155 0 155 -183q0 -50 -48 -85.5t-107 -35.5q-61 0 -104.5 42t-43.5 122z" />
<glyph unicode="/" horiz-adv-x="673" d="M4 -49q0 4 4 20q2 2 4.5 5.5t3 3.5t1.5 2.5t1 3t2 4.5t3.5 8.5t5 13t8.5 19.5q1 2 70.5 194t91.5 275q27 80 115 322t89 243q26 55 54.5 145.5t40.5 141.5q12 40 31 71t36 37q70 0 94 -8q11 -3 11 -29q0 -43 -25 -102q-1 -2 -32.5 -81.5t-59 -155.5t-39.5 -121 q-15 -41 -83.5 -250.5t-86.5 -249.5q-155 -426 -160 -461q-4 -22 -11.5 -35.5t-11.5 -16t-22 -13.5q-14 -17 -47 -17q-28 0 -58 8.5t-30 22.5z" />
<glyph unicode="0" d="M61 766q0 178 19 311.5t70 216.5q32 51 69.5 84.5t87.5 55.5t112.5 32t147.5 11q227 -34 297 -160q72 -129 84 -273q13 -156 13 -333q0 -192 -27 -351q-25 -162 -136 -257t-290 -95q-188 9 -242 37q-53 27 -109.5 134.5t-76.5 191.5q-19 93 -19 395zM260 1034 q0 -26 2 -117t2 -157l4 -199q6 -167 64 -237q73 -88 102 -127q43 -58 139 -58q59 0 124 44.5t112 125.5q45 74 45 195q0 53 -2 124t-2 87q4 156 4 205q0 84 -4.5 145.5t-18 121t-36.5 99.5q-18 32 -43.5 48.5t-55 22t-78.5 5.5q-19 0 -69 -4q-61 0 -137 -43 q-68 -36 -110 -111t-42 -170zM475 750q0 32 8.5 53.5t24.5 31.5t31.5 13.5t35.5 3.5q105 0 105 -133q0 -36 -32.5 -62t-72.5 -26q-41 0 -70.5 30.5t-29.5 88.5z" />
<glyph unicode="1" d="M96 59v19q0 45 25 51q115 15 227 41q101 -3 101 45q2 33 2 88q0 66 -2 117v184q2 91 -5 193q0 17 -1 51t-1 51t1 52t1 53l7 198l-242 -57q-69 -15 -78 -15q-22 0 -22 11q-7 11 -7 24q-3 81 4 105q9 22 54 39q200 9 432 125q27 8 51 8q22 0 34.5 -8t12.5 -19q0 -6 -6 -246 l-12 -188v-143l6 -125q4 -66 4 -181q1 -22 1.5 -104t3.5 -157t11 -113q244 -9 244 -29l6 -88q2 -22 -10.5 -32t-40.5 -9q-70 2 -145 8t-119 8q-101 -6 -264 -12q-12 0 -38.5 1t-41.5 1q-73 0 -162 -6q-22 0 -31 59z" />
<glyph unicode="2" d="M66 25q0 5 1 9.5t3.5 9.5t4.5 8.5t7.5 10.5t8.5 10.5t11.5 13.5t12.5 15q10 12 147.5 186.5t186.5 233.5q7 8 45.5 53t55 65t52 67t57.5 81.5t48.5 84t46.5 98.5q22 56 22 114q0 102 -67 170t-144 68q-57 0 -109 -9.5t-76 -18.5t-63 -25q-30 -14 -85 -75.5t-56 -61.5 l-10 -5q-2 0 -19 13q-4 4 -17 12.5t-17 11.5q-12 12 -2 27q38 52 100 115q44 44 162 106t192 62q142 0 232 -95t90 -221q0 -30 -4 -60t-8.5 -52t-16.5 -52.5t-17.5 -45t-23 -46t-22 -39t-25.5 -41t-22 -35.5q-26 -43 -114 -162t-164 -216.5t-83 -104.5q-31 -31 -16 -31 q1 0 33 -1t59 -1q47 0 72 2q243 0 360 9q17 -1 28.5 0t18.5 -4.5t10.5 -8t5 -11t1.5 -12.5t-0.5 -13.5t-0.5 -14.5q-1 -16 -1 -41t0.5 -60.5t0.5 -54.5q0 -39 -16 -48t-63 -9q-14 0 -100 -2t-134 -2q-60 0 -78 2q-15 0 -136.5 1t-186.5 1q-47 0 -85 -2t-55 -2q-38 0 -38 23z " />
<glyph unicode="3" d="M68 287q0 4 2 7.5t3.5 4.5t5.5 3t5 3q1 3 21 14t32 11q17 0 23 -29q2 -4 6 -16t9.5 -27t13 -33.5t19 -41.5t25.5 -44q38 -60 110.5 -95.5t168.5 -35.5q36 0 72.5 7.5t67 19.5t53.5 22.5t44.5 22.5t26.5 14q16 10 36.5 35.5t42 65.5t36 98t14.5 121q-8 130 -92 200 q-62 52 -217 52q-41 0 -160 -15.5t-153 -15.5h-4q-4 0 -7 1.5t-5 5t-3 6.5t-1.5 9t-0.5 9v10v10q0 4 1.5 7t5 7t7.5 7.5t12.5 10t16.5 13.5q27 27 365 299q8 8 8 14q0 15 -84 15q-18 0 -221 -4t-223 -4q-9 0 -15.5 3t-10 6.5t-5 12t-1.5 13.5t0.5 17.5t0.5 18.5q0 7 1 76 t1 113q0 23 -1 57t-1 45q0 41 49 41q14 0 46 -4t48 -4q41 0 135.5 8t151.5 8q66 0 174.5 -2t112.5 -2q9 0 14 -4t7 -16.5t2.5 -22t0.5 -33.5v-16l-2 -252q0 -12 -2.5 -21t-10.5 -18.5t-13.5 -14.5t-22.5 -18t-25 -20q-24 -17 -71 -52.5t-91.5 -69.5t-52.5 -40 q-7 -7 -29.5 -25t-35.5 -30q-5 -3 -21 -15.5t-26 -19.5q-25 -16 -25 -27q0 -8 6 -8h82q33 0 112.5 -5t110.5 -9q19 -2 42 -9.5t57 -29.5t60.5 -53.5t45.5 -87.5t19 -127q0 -90 -25 -160q-2 -4 -10 -28t-10 -29l-10 -25t-12 -27t-13 -23.5t-17 -25t-19.5 -22t-24.5 -24 t-29 -21.5q-80 -47 -127 -62q-67 -26 -260 -26q-54 0 -107 29t-89 68t-67.5 87.5t-46.5 79t-22 49.5q-10 18 -10 33z" />
<glyph unicode="4" d="M59 541q0 30 4.5 44.5t13 26t39 50.5t64.5 90q26 39 46 65.5t38.5 47.5t69.5 86.5t123 162.5q66 93 118 169.5t77 114t30 44.5q26 35 55 35h15q10 0 18 4q11 -2 27.5 -3.5t21.5 -3t11.5 -7t8 -15.5t1.5 -29q0 -1 -7.5 -205t-7.5 -542q0 -44 7 -58t22 -14q2 0 35.5 3 t52.5 3q10 0 13.5 -10.5t3.5 -30t2 -28.5q0 -3 1 -7l1 -4q0 -11 -7 -16.5t-14 -5.5h-10q-5 0 -29.5 -2t-42.5 -2q-24 0 -30.5 -12.5t-6.5 -38.5v-11q-2 19 -2 31q-3 0 -5.5 -176.5t-2.5 -224.5v-21q0 -12 -5 -20t-11.5 -12t-18.5 -6t-19 -2t-20.5 0.5t-17.5 0.5 q-17 0 -21 11.5t-4 62.5v98q2 45 5 73t4.5 63t1.5 129q0 33 -11 44t-34 11q-5 0 -88.5 -5t-131.5 -5q-19 0 -46 2t-48 2q-46 0 -137 -4.5t-105 -4.5q-21 0 -32 8.5t-13 18t-2 25.5zM164 600q0 -14 10 -14q2 0 16.5 4t32.5 4q13 0 50 -2t55 -2q7 0 36.5 1.5t78.5 3t102 1.5 h106q37 0 45.5 40.5t8.5 192.5v93l4 102l4 254q0 14 3 38t3 38q0 1 -1 2t-1 2v2q-5 0 -117 -180l-135 -189q-49 -68 -83 -111.5t-56 -69.5t-31 -38q-34 -52 -68.5 -86t-48.5 -48.5t-14 -37.5z" />
<glyph unicode="5" d="M74 1380q0 93 94 93q12 0 33.5 -2.5t29.5 -2.5q57 0 175.5 5.5t179.5 5.5q55 0 160.5 -2t132.5 -2q41 0 55 -12.5t14 -35.5q0 -5 -1 -16.5t-1 -17.5q0 -21 -4 -97.5t-4 -101.5q0 -43 -61 -43q-21 0 -56.5 3t-62.5 3q-61 0 -208.5 -4t-176.5 -4q-58 0 -76 -19t-18 -57 q0 -10 -1 -30t-2 -50.5t-2 -52.5q0 -49 -2 -63v-84q53 50 88 65q108 55 238 62q156 -7 247 -79.5t116 -197.5q10 -94 9 -127.5t-14 -101.5q-2 -8 -8.5 -43t-10.5 -56t-15 -61.5t-22.5 -67.5t-31 -65.5t-41.5 -64t-54.5 -54t-70 -45.5t-87 -28t-105.5 -11q-86 0 -155 20 t-112.5 52t-75.5 76.5t-47 87.5t-24.5 92.5t-10.5 84.5t-1.5 69.5t-1.5 41.5q-4 20 -4 54q0 57 26 57q9 0 57 1t79 1q28 0 34.5 -10t6.5 -39q0 -25 2 -39q7 -47 55.5 -81t134.5 -34q80 0 170 78q42 39 53 71.5t11 104.5q-16 130 -132 139q-90 -6 -137 -19t-90 -50 q-40 -34 -61 -31q-40 0 -83 0.5t-72 1t-34 0.5q-20 0 -20 68q0 17 4.5 58.5t5.5 62.5q3 44 -5.5 273t-8.5 271z" />
<glyph unicode="6" d="M33 690q0 161 35.5 293.5t88.5 214t119 137.5t124 78.5t106 22.5q55 0 107 -16t90 -40t73 -58.5t57.5 -64t43 -64.5t28.5 -51.5t15 -33.5q8 -20 8 -29q0 -39 -54 -61q-32 -15 -210 -148q-13 -8 -29 -8q-14 0 -21.5 11.5t-7.5 23.5q-1 2 -8.5 18.5t-16 27.5t-34.5 21.5 t-64 10.5q-108 0 -108 -301q22 32 57 53q84 55 189 55q64 0 128 -21t118 -60t88 -103t34 -143q0 -83 -12.5 -153t-31.5 -120.5t-50 -90.5t-60.5 -65.5t-70.5 -44.5t-72.5 -28t-73.5 -14t-66.5 -6t-59.5 -1q-50 0 -107.5 23.5t-121 81.5t-114 141.5t-83.5 217t-33 294.5z M399 430q0 -57 31 -103t86 -46q50 0 77.5 59t27.5 123q0 45 -37 73.5t-66 28.5q-47 0 -83 -40.5t-36 -94.5z" />
<glyph unicode="7" d="M104 23q0 10 33 61q22 34 191 317q19 41 121 199h-27q-28 0 -93 -4t-83 -8q-13 0 -19 7t-7 15t-1 25v143q0 35 8.5 51.5t30.5 16.5h348q45 64 82 127q54 78 121.5 187t67.5 118q0 6 -9 6q-3 0 -19.5 -3.5t-25.5 -2.5q-69 6 -139 6q-59 0 -262.5 -19t-241.5 -26 q-20 -4 -28 -4q-35 0 -35 33q0 5 1 23t1 28q0 21 -2 29v4q0 19 9.5 25.5t29.5 8.5q6 0 86 4.5t127 4.5q33 0 131.5 4t142.5 4q27 0 70 -3t73 -3q49 0 126 3t83 3q7 0 12.5 -3t8.5 -9t4.5 -12.5t2 -17t0.5 -18t-0.5 -20.5t-0.5 -20t-1 -14.5t-2 -13.5t-4.5 -14.5t-5.5 -14 t-8 -15.5t-8.5 -15t-10.5 -17t-11 -17t-13 -20l-14 -21q-45 -57 -209 -295h148q21 2 34 -0.5t18.5 -12t7 -18.5t1.5 -27v-153q0 -24 -15 -33.5t-61 -9.5h-102l-74 6q-28 4 -63 4q-8 0 -29.5 -1t-34.5 -1q-34 -50 -96.5 -153.5t-123.5 -205.5t-73 -122q-15 -24 -39 -65 t-38 -63t-21 -26q-2 -2 -8 -2q-5 0 -11 5.5t-15.5 15t-20.5 16.5q-15 9 -15 23z" />
<glyph unicode="8" d="M41 367q0 173 195 335q86 68 196 117q-17 17 -20 21q-4 6 -12 13.5t-21.5 18t-22.5 19.5q-6 5 -34.5 22.5t-46 34t-40.5 47t-35 78.5t-12 111q0 65 24 119t62.5 89.5t88 60t99 35.5t97.5 11q35 0 77 -7.5t93 -29.5t91 -55t67.5 -89.5t27.5 -127.5q0 -153 -86 -289 q-33 -57 -84 -98q66 -34 119 -90q119 -127 119 -299q0 -197 -138.5 -311.5t-350.5 -114.5q-225 0 -339 102t-114 277zM158 348q0 -54 13 -97t33.5 -71.5t53.5 -49t64.5 -31.5t76 -17.5t79 -8t81.5 -1.5q86 0 161 57t114.5 135.5t39.5 149.5q0 157 -151 258q-68 49 -150 76 q-116 -46 -208 -105q-88 -52 -147.5 -129.5t-59.5 -165.5zM291 1219q0 -146 131 -263q56 -50 135 -86q58 25 113 68q112 92 112 192q0 125 -61.5 199t-177.5 74q-49 0 -106.5 -23t-101.5 -67t-44 -94z" />
<glyph unicode="9" d="M43 883q0 112 24.5 205.5t65.5 155t90.5 107.5t104 70t100 35.5t84.5 11.5q78 0 145 -33t114 -86t84.5 -123.5t60.5 -142t38 -144t21 -126.5t6 -94q0 -350 -80 -486q-22 -39 -37.5 -65t-43 -65.5t-56.5 -65.5t-66.5 -51.5t-84 -38.5t-99.5 -13q-63 0 -119 19.5t-93.5 45 t-76 70t-58 73.5t-48.5 77q-31 53 -31 92q0 31 18 46.5t35 15.5q12 0 39 3t49 3q26 0 44 -15.5t33.5 -37.5t36.5 -44t65 -37.5t108 -15.5q79 0 124 54.5t62 138.5q22 86 19 194q-145 -167 -246 -167q-26 0 -44 0.5t-54 4.5t-63 11.5t-63.5 22.5t-63.5 36t-55.5 54.5 t-47 75.5t-30 100.5t-11.5 128.5zM244 932q0 -65 21 -114.5t54.5 -77t70 -41t73.5 -13.5q72 0 143 62.5t78 132.5q0 112 -15 165q-45 147 -210 148q-76 0 -145.5 -69.5t-69.5 -192.5z" />
<glyph unicode=":" horiz-adv-x="499" d="M82 817q0 59 46 107.5t116 48.5q63 0 109 -45t46 -111q0 -70 -37 -123t-112 -53q-74 0 -121 57.5t-47 118.5zM98 147q0 84 45 119t107 35q47 0 80.5 -15t51 -35t27 -51t11.5 -52.5t2 -49.5q0 -54 -50 -91.5t-112 -37.5q-67 0 -114.5 45.5t-47.5 132.5z" />
<glyph unicode=";" horiz-adv-x="473" d="M37 -147l53 165l66 232q12 45 67 45h107q13 0 24 -9t11 -22q0 -6 -7 -20q-2 -9 -9.5 -43t-12.5 -47q-3 -15 -17 -46t-22 -59q-14 -46 -36.5 -130.5t-22.5 -94.5q-19 -45 -43 -51q-15 -6 -45 -6q-28 0 -68 6q-21 0 -33 28.5t-12 51.5zM164 743q0 57 42 100.5t107 43.5 q58 0 100 -41t42 -103q0 -64 -33.5 -113.5t-99.5 -49.5q-68 0 -113 53.5t-45 109.5z" />
<glyph unicode="&#x3c;" d="M76 692q-3 23 94 117q149 142 162 154q41 40 114 92t101 84q11 13 30.5 38t28.5 36t22.5 25.5t23 20t18.5 5.5h110q28 2 55.5 1t50 -3.5t36.5 -12.5t14 -26q0 -7 -4 -19q-36 -54 -64.5 -86t-79.5 -76q-53 -46 -81 -79l-107 -107q-73 -66 -108 -88q-41 -28 -84 -82 q34 -44 69 -78q24 -22 101 -99t114 -106q53 -40 103 -96q32 -35 61.5 -64t44 -43.5l17.5 -17.5q12 -18 12 -30q0 -17 -19 -23q-2 0 -12 -0.5t-32.5 -1t-55.5 -0.5t-65 -0.5t-52 -1t-24 -0.5q-10 0 -19.5 8t-27.5 30.5t-31 35.5q-22 25 -66 65l-57 60q-25 25 -76 65 q-137 121 -207 170q-118 77 -110 133z" />
<glyph unicode="=" d="M43 856q0 8 1 29.5t1 36.5q0 49 35 49q9 0 29 -4h548q65 0 159.5 4t109.5 4q31 0 39.5 -8t13.5 -37q0 -7 1 -35.5t1 -46.5q0 -49 -5.5 -63.5t-23.5 -14.5q-6 0 -23.5 2t-31.5 2h-264q-86 0 -152 4q-16 3 -70 7.5t-67 7.5q-23 0 -127 -5.5t-125 -5.5q-6 -2 -14 -2 q-35 0 -35 76zM66 336v82q0 27 7.5 38t30.5 11h783q4 0 11 1t11 1q16 0 25 -2.5t12.5 -11.5t3.5 -11.5v-17.5v-90q0 -21 -15 -28t-61 -7q-30 0 -141.5 4t-152.5 4h-306q-146 0 -182 -8q-13 0 -19 6t-6.5 11t-0.5 18z" />
<glyph unicode="&#x3e;" d="M125 1223q0 14 11.5 23t33.5 12.5t37.5 4.5t40.5 1h61q9 0 18.5 -5.5t23 -20t22.5 -25.5t28.5 -36t30.5 -38q28 -32 101 -84t114 -92q64 -58 160 -154q99 -92 96 -117q3 -33 -29 -65q-38 -38 -81 -68q-70 -49 -207 -170q-60 -47 -78 -65l-57 -60q-24 -24 -58.5 -63.5 t-53.5 -57.5t-30 -18l-100 2q-13 0 -34.5 1t-24.5 1q-19 6 -19 23q0 12 12 30l17.5 17.5l43.5 43.5t60 64q56 59 105 96q116 90 213 228q34 35 69 78q-44 56 -86 82q-34 23 -106 88q-17 18 -55.5 55t-51.5 51q-32 37 -84 80q-34 31 -76 75.5t-63 63.5q-4 12 -4 19z" />
<glyph unicode="?" horiz-adv-x="811" d="M45 1292q60 66 119 105q83 54 145.5 69t196.5 15q108 0 188 -111.5t80 -292.5q0 -71 -35.5 -149t-71.5 -125t-75 -86q-82 -79 -82 -221q0 -80 -14 -105q-4 -16 -16 -30t-23 -19q-58 -16 -74 -16q-32 0 -57 22q-43 18 -43 35q-7 28 -7 57q0 21 3.5 75t3.5 85 q0 39 28.5 94.5t63.5 101t72.5 95.5t48.5 74q34 61 34 118q0 59 -38 97q-67 55 -130 55q-26 0 -59 -10q-41 -19 -117 -86q-8 -5 -22 4t-45.5 40t-44.5 42q-4 4 -10.5 11.5t-15 20.5t-9.5 21.5t6 13.5zM240 123q0 70 42.5 99.5t96.5 29.5q66 0 99.5 -44t33.5 -93 q0 -15 -2 -21q0 -36 -44 -80.5t-99 -44.5q-51 0 -89 46t-38 108z" />
<glyph unicode="@" horiz-adv-x="1525" d="M84 616q0 105 27 208t66.5 176t69.5 116.5t52 65.5q18 18 53 42t92 53.5t138.5 49t167.5 19.5q143 0 248 -21.5t186 -73.5q59 -32 120.5 -108t101.5 -163t40 -149q0 -98 -15 -238t-32 -190q-26 -68 -54 -98q-57 -59 -161 -59q-98 0 -150 90q-26 50 -33 92l-94 -135 q-78 -94 -231 -94q-79 0 -143 38t-102.5 99.5t-58.5 131.5t-20 140q0 68 23 134.5t56 112t64 75.5t50 37q5 2 66.5 27.5t117.5 42t98 16.5q76 0 176.5 -16t133.5 -38q28 -15 28 -51q0 -14 -5.5 -44.5t-6.5 -41.5q-2 -14 -25.5 -156.5t-23.5 -189.5q0 -135 80 -135 q68 0 106.5 90t38.5 266q0 172 -66.5 274t-195.5 154q-93 41 -240 41q-153 0 -292 -41q-31 -13 -53.5 -23.5t-58.5 -34t-62.5 -50t-56.5 -70.5t-49 -95.5t-31.5 -124.5t-12.5 -159q0 -98 29 -185.5t75 -149.5t101 -112t110 -80t98 -45.5t68 -15.5q140 0 230 33q51 17 91 47 t60 58q15 12 25 12t32 -18q7 -4 32.5 -30t37.5 -34q17 -21 17 -25q0 -9 -17 -26q-23 -23 -139.5 -77t-169.5 -54q-13 0 -59 -1t-76 -1q-202 0 -279 33q-103 40 -241 235q-6 9 -31.5 41.5t-41.5 60.5t-37 75.5t-31.5 115t-10.5 151.5zM512 643q0 -132 52 -209.5t138 -77.5 q82 0 168 69.5t101 119.5q9 36 14.5 131t9.5 115q17 49 17 104q-13 9 -47 20q-69 21 -158 21q-119 0 -207 -83.5t-88 -209.5z" />
<glyph unicode="A" horiz-adv-x="1038" d="M45 27q0 16 10 39l19 75q2 7 8 26t11.5 38.5t8.5 36.5q10 53 52.5 188.5t52.5 196.5q7 33 27.5 102.5t25.5 91.5q4 22 14 59t23 85.5t18 66.5q38 123 47 144q2 6 17.5 49.5t29 85t17.5 65.5q14 50 29.5 74.5t42.5 24.5q4 0 7.5 -2.5t7.5 -8t7 -11.5t7.5 -16.5t7.5 -19 t8.5 -22.5t9.5 -23q10 -23 26 -77t31 -110.5t17 -64.5q3 -21 53 -160.5t53 -152.5q5 -13 29 -79t48 -129t34 -85q4 -11 17.5 -51.5l25 -75t23.5 -74t18 -61.5q6 -23 18.5 -59.5t24.5 -66.5t24.5 -60.5t14.5 -36.5q6 -15 6 -21q0 -8 -23 -8h-114q-16 0 -23 18q-9 25 -22 74 q-14 38 -29.5 111.5t-38.5 120.5q-20 45 -33 88l-18 59q-10 23 -15.5 28t-17.5 5q-24 0 -81 -3t-71 -3q-16 -2 -151 -2h-129q-14 0 -23 -43l-8 -39q-5 -17 -24.5 -109t-22.5 -100q-5 -43 -18 -68q-3 -4 -21 -65q-5 -13 -14 -54q-6 -16 -11 -17q-4 -1 -12 -1h-41 q-19 0 -10 27zM270 651q0 -6 3 -10.5t7.5 -6.5t12 -3t12.5 -1t12.5 0.5t10.5 0.5q9 0 56.5 2t61.5 2q24 4 70 4q23 0 62.5 -1t48.5 -1q26 0 26 14q0 10 -14 45q-8 19 -35.5 110.5t-38.5 121.5q-16 49 -41.5 139t-29.5 115q-29 108 -41 108q-2 0 -5 -5.5t-6 -16.5t-6.5 -22 t-8 -27.5t-7.5 -28.5q-7 -33 -36.5 -137t-41.5 -142q-8 -38 -32 -125.5t-36 -119.5q-4 -12 -4 -15z" />
<glyph unicode="B" horiz-adv-x="1048" d="M127 63l2 455v98q0 79 6 142q3 55 6 255t6 230q3 24 3 57q0 32 -4.5 70t-4.5 43q0 13 23 19q19 6 107.5 17t160.5 11t129.5 -8.5t114 -32.5t94 -64.5t61 -108t23.5 -159.5q0 -196 -119 -307q-52 -46 -117 -67q19 -7 35.5 -13.5t57 -27t73 -42.5t73 -60t67.5 -79.5 t46 -100.5t19 -124q0 -278 -468 -274h-13q-44 0 -174.5 -3t-149.5 -3q-34 0 -45.5 20.5t-11.5 56.5zM385 614q0 -24 4 -124t4 -117q0 -18 -2 -43t-2 -51t4 -112.5t4 -103.5q0 -12 2 -19t9.5 -10t11 -3.5t18.5 0t21 0.5q200 0 300.5 64t100.5 173q0 275 -235 373 q-104 40 -236 37q-2 -6 -2 -16q-2 -10 -2 -48zM391 758q0 -11 2.5 -15t12.5 -4q8 0 26 1.5t54.5 9.5t73 21t77 38.5t71 59t50.5 86t20 116.5q0 66 -11.5 117.5t-29.5 86t-48.5 58.5t-59 37t-71.5 20.5t-75 9t-80 1.5l-4 -131q-4 -148 -4 -219v-234q0 -19 -2 -36.5t-2 -22.5z " />
<glyph unicode="C" horiz-adv-x="1081" d="M76 725q0 154 42.5 290.5t111 228.5t154 145t171.5 53q64 0 122.5 -15.5t96.5 -36.5t71.5 -48.5t48 -44t24.5 -31.5q22 -29 22 -43t-22 -33q-96 -77 -136 -129q-42 -53 -63 -53q-16 0 -33 20q-3 3 -14 15.5t-14.5 16.5t-13.5 14t-15 13.5t-14.5 10.5t-16.5 9t-16.5 4.5 t-18.5 2.5q-29 0 -58 -13t-58.5 -45.5t-52.5 -81t-37.5 -126t-14.5 -174.5q0 -95 20 -169.5t48.5 -116t64 -69t62 -36.5t47.5 -9q63 0 143 80l7.5 7.5l7 7l5.5 5.5t5.5 4t5.5 1q11 0 24 -8l174 -97q5 -2 17 -7.5t17 -7.5t12 -6.5t9.5 -9t2.5 -10.5q0 -10 -6 -22 q-12 -21 -25.5 -40.5t-51 -58.5t-79.5 -66t-109.5 -49t-142.5 -22q-100 0 -195 58t-167.5 156.5t-117 239.5t-44.5 296z" />
<glyph unicode="D" horiz-adv-x="1181" d="M127 621q0 79 8 211t8 215q0 98 -2 220t-2 128q0 12 8.5 19t26.5 9.5t31.5 3t38.5 -0.5t32 -1l74 5q86 4 139 4q45 0 94.5 -8.5t111.5 -32t118.5 -60.5t111.5 -99t95.5 -141.5t65 -195t24.5 -252.5q0 -99 -20 -184t-52.5 -145.5t-79 -110t-94 -81.5t-102.5 -55.5 t-99.5 -35.5t-90.5 -19t-70 -8.5t-43 -1.5q-44 0 -150.5 -2t-128.5 -2q-39 0 -39 70q0 9 1 27t1 26q0 25 -3 99t-3 95q0 5 -5 106.5t-5 197.5zM494 438q52 24 102 74q102 98 102 233q0 129 -98 207q-43 34 -96 49q4 -46 4 -69q0 -37 -4 -110t-4 -105q0 -39 -3 -136.5 t-3 -142.5z" />
<glyph unicode="E" horiz-adv-x="1075" d="M129 195v280q0 57 7 146t7 172t-5 160t-5 134q0 131 6 302q0 27 9.5 36t29.5 9q5 0 15.5 -1t15.5 -1q8 0 57 -3.5t103 -3.5q45 0 156.5 9.5t150.5 9.5q48 0 130.5 -4t96.5 -4q27 0 35 -13t8 -45q0 -19 4 -70t4 -85q0 -41 -6 -76q-2 -31 -28 -31q-8 0 -25.5 5t-20.5 5 q-36 7 -178 7q-26 0 -78 2t-77 2q-28 0 -80 -3.5t-84 -3.5q-29 0 -68.5 1.5t-40.5 1.5q-4 0 -7 -0.5t-5 -1.5t-3.5 -1.5t-2.5 -3.5t-1.5 -4t-0.5 -5.5v-7v-8.5v-9q0 -12 -3 -84t-3 -113v-121q0 -42 2 -65q16 -2 55 -2q35 -2 143 -2q41 0 118.5 4t98.5 4q28 0 60.5 -3 t40.5 -3q16 0 21 -6.5t5 -18.5q0 -4 -2 -22.5t-2 -41.5q0 -18 1 -49.5t1 -58.5q0 -33 -18 -33q-3 0 -16 3t-21 3q-5 0 -67 2t-138 2q-58 0 -112.5 -4t-88 -8t-40.5 -4q-23 0 -27 2q-10 0 -12 2v-205q14 0 22 2q6 0 25.5 1t32.5 1q18 0 103.5 1t137.5 1q32 0 123.5 -2 t134.5 -2q21 0 50 1t36 1q24 0 32.5 -11t8.5 -32q0 -6 -1 -20.5t-1 -20.5q0 -18 -1 -64.5t-1 -78.5q0 -14 -3.5 -23t-7 -14t-14.5 -7t-17.5 -2t-25.5 0.5t-30 0.5q-30 0 -170 2t-191 2q-58 0 -188 -4t-135 -4q-2 0 -6 -1t-6 -1q-8 0 -12 6t-4.5 11t-0.5 18q-2 23 -2 75 q0 10 -2 37.5t-2 51.5z" />
<glyph unicode="F" horiz-adv-x="974" d="M127 346q0 44 6 107.5t6 107.5t-1 116.5t-1 117.5q0 44 3 136.5t3 141.5q0 115 -4 283q0 36 9 48.5t28 12.5q7 0 26 -2t31 -2q25 0 146 4t141 4q22 0 116 6.5t116 6.5l172 -2q47 0 47 -31v-103q0 -4 -0.5 -7t-1 -5.5t-2 -4.5t-2.5 -3t-3.5 -2t-3.5 -1.5t-5 -0.5h-5.5 h-6.5h-7q-7 0 -71.5 2t-106.5 2q-79 0 -152 -8l-100 -6l-6 -37q-4 -46 -4 -72q0 -20 -1 -81t-1 -101q0 -21 -1.5 -56t-1.5 -49v-49q44 0 64 2q19 0 53 1t45 1q23 0 81 2t81 2q33 0 44 -7.5t11 -26.5q0 -11 -1 -34t-1 -34q0 -17 -9 -23t-38 -6q-16 0 -67 2t-76 2h-191 q0 -52 2 -77q0 -23 1 -68t1 -61q0 -36 -3 -100.5t-3 -100.5l2 -242q0 -27 -11.5 -37t-35.5 -10q-17 0 -57 3t-66 3q-34 0 -88 -1t-61 -1q-10 0 -16 2t-9.5 3.5t-5.5 7t-2 7v10.5v11l-2 109q0 8 -2 72.5t-2 115.5z" />
<glyph unicode="G" horiz-adv-x="1212" d="M84 692q0 146 23.5 266.5t60 199.5t88 139.5t101.5 92.5t106.5 52t96 25.5t77.5 5.5q83 0 156 -26.5t118 -60.5t81.5 -78t50.5 -68.5t23 -42.5q1 -2 1 -3q5 -12 16 -42.5t15 -39.5q2 -4 2 -10q0 -4 -1 -6t-4.5 -4.5t-6.5 -4l-11 -5.5l-14 -7q-10 -5 -67 -35.5t-81 -40.5 q-9 -5 -112 -73q-13 -11 -39 -27q-9 -6 -16 -6q-12 -4 -17 -4q-7 0 -12 6t-10 16t-9 15q-2 2 -12 17.5t-17.5 24.5t-23 18t-33.5 9q-42 0 -73 -50t-44.5 -115t-13.5 -130v-18q0 -41 0.5 -63.5t3.5 -63t11.5 -65t22 -50.5t37 -38.5t54.5 -12.5q46 0 76.5 32t41.5 75.5 t11 97.5l-41 8q-52 8 -71 10q-39 4 -39 29q0 14 16 80q7 23 14.5 33.5t16 10.5t20.5 -1q5 -1 31 -4.5t63.5 -8t73.5 -8.5q27 -3 129 -18t138 -16q35 -2 47 -37q4 -21 2 -35q-7 -114 -29 -210t-53 -163.5t-72 -120t-83 -84.5t-89 -52.5t-87.5 -28t-80.5 -7.5q-32 0 -72 7 t-95.5 28.5t-108.5 54t-106 89.5t-92.5 129.5t-64 179t-24.5 233.5z" />
<glyph unicode="H" horiz-adv-x="1396" d="M131 842q0 75 2 294.5t2 235.5q0 41 10 52.5t29 11.5q7 0 22 -1t23 -1q12 0 39.5 3t42.5 3q18 0 51 -2t47 -2q9 0 15.5 -3t10 -7t5 -12t1.5 -12.5t-0.5 -14.5t-0.5 -13q0 -93 -8 -244l-8 -202l-6 -121l122 -4q25 -1 70.5 -2.5t81 -2.5t61.5 -1q160 0 244 2q101 0 154 2 v61q0 17 -1 56t-1 57q0 40 6 247.5t6 215.5q2 18 23 18q4 0 11.5 -1t10.5 -1q8 -2 31 -2q55 0 55 -25q0 -4 -4 -16q-1 -7 -3 -24.5t-4 -37.5t-5 -51.5t-6 -62.5q-5 -61 -10 -294.5t-5 -326.5q0 -40 -3 -140.5t-6 -190t-3 -103.5q0 -9 -1 -37.5t-1 -44.5q0 -17 3 -39.5 t3 -31.5q0 -5 -3 -8.5t-9.5 -5.5t-13 -3.5t-17 -1.5h-17.5h-18h-16q-17 0 -17 21q2 188 2 299v219v151l-165 -4q-88 -2 -238 -2h-193q-77 0 -120 2q0 -29 -3 -85t-3 -93q0 -19 -1.5 -96t-1.5 -125q0 -157 11 -213q4 -24 4 -31q0 -12 -3.5 -20t-7.5 -12.5t-14 -6.5t-14 -2.5 t-17.5 0t-15.5 0.5q-72 4 -164 -6q-38 -4 -45 29q-2 15 -2 100q0 37 -2 339t-2 370z" />
<glyph unicode="I" horiz-adv-x="313" d="M92 72q0 32 4 327.5t4 370.5q0 54 5 193t9 253.5t1 135.5q0 7 -1 21.5t-1 21.5q0 53 32 53q5 0 31.5 -1t44.5 -1q21 0 21 -29q0 -7 -2 -24t-2 -25q-8 -54 -11 -231q0 -56 -8 -285.5t-8 -280.5q0 -96 4 -288.5t8 -227.5q2 -12 2 -28q0 -10 -2.5 -17.5t-10 -12t-12 -7 t-18.5 -3.5t-18.5 -1h-22.5q-43 0 -47 3q-5 5 -3 40q1 23 1 43z" />
<glyph unicode="J" horiz-adv-x="1005" d="M10 506q0 46 2 148t2 116q0 27 5.5 32t25.5 3q24 0 127 14q17 2 25.5 -4.5t10 -20t0 -27t-4 -32t-2.5 -28.5q0 -122 12 -211.5t32 -143.5t51 -86t63.5 -43.5t74.5 -11.5q51 0 92.5 19t66.5 48t42 66t24 70t7 63q0 48 3 289.5t3 275.5q-4 62 -4 136q0 40 1 109t1 89 q-2 27 1 44t12.5 24t17 8.5t20.5 1.5q3 0 35 4t53 4q23 0 33 -2q35 -1 43 -13t6 -54l-4 -627q-4 -16 -0.5 -50t1 -84t-3 -107.5t-11.5 -120t-26 -122.5t-45.5 -113.5t-69.5 -94t-98.5 -64.5t-133.5 -24q-93 0 -169.5 24.5t-126 63t-87 90.5t-57.5 100.5t-32 101t-15 84 t-3 56.5z" />
<glyph unicode="K" horiz-adv-x="1269" d="M125 180q0 65 6.5 335t11.5 306q7 65 7 205q0 45 -2.5 91.5t-2.5 90.5q0 155 11 201q3 21 22 21q6 0 20.5 -3.5t20.5 -3.5q15 0 70 -1.5t82 -0.5h12q8 0 13.5 -2t8.5 -4t4 -7.5t1.5 -8t0 -10t-0.5 -9.5v-120v-84q0 -232 -9 -306q-4 -46 -4 -71q0 -13 1 -36t1 -32l4 -69 l33 34q7 9 60 62q55 49 192 205q16 23 79.5 91.5t111.5 116.5q15 16 67 72.5t85.5 94t39.5 48.5q20 32 43 35q3 0 14 0.5t19.5 0.5t18 -1t15 -4.5t5.5 -9.5q0 -8 -10 -18q-1 -1 -19.5 -20t-36.5 -37.5t-40 -39.5t-33 -30q-22 -19 -122 -140t-116 -147q-51 -58 -129 -139 l-111 -115q100 -124 181 -205q22 -22 134.5 -156.5t133.5 -152.5q23 -19 85.5 -96t65.5 -80q7 -10 7 -17q0 -16 -35 -16q-12 0 -128 -3t-136 -3q-26 0 -42.5 8t-37.5 29q-14 12 -102.5 128t-108.5 138q-36 33 -109 121l-74 84q0 -35 -3 -114t-3 -105q0 -11 -1 -62t-1 -80 q0 -77 6 -98q2 -6 2 -14q0 -21 -28 -21h-82q-11 0 -58.5 -3t-68.5 -3t-25 2q-14 0 -14 12q0 7 8 31q3 14 -3.5 64t-6.5 71z" />
<glyph unicode="L" horiz-adv-x="1073" d="M129 1405q0 35 27 35q9 0 34 -6.5t39 -6.5q58 -8 138 -8q55 0 104 6q24 3 37 -0.5t16 -14.5t2.5 -21.5t-3.5 -28.5t-3 -29t-6 -160.5t-6 -201.5q0 -51 3 -249.5t3 -211.5q0 -19 -2 -112.5t-2 -110.5q0 -3 -1 -17.5t-1 -23.5t1 -28.5t1 -29.5l4 -71l293 -11l244 -2h4 q8 0 11.5 -2.5t4 -5t-0.5 -9t-1 -9.5q-1 -7 1.5 -34t2.5 -38q0 -8 -2.5 -12.5t-9.5 -6t-11.5 -2t-17 0t-18.5 0.5q-13 0 -142 9t-170 9q-39 0 -272 -9t-246 -9q-45 0 -45 41v159q0 38 4 346t4 340q0 34 -9 271t-9 264z" />
<glyph unicode="M" horiz-adv-x="1441" d="M127 451q0 43 10 222.5t10 215.5q0 39 2.5 198t2.5 187q0 13 -1 51t-1 59v9v21t0.5 18.5t2 17t4.5 12t7 9t10 2.5q1 0 16.5 -4.5t32.5 -2.5q18 2 51 2q40 0 58 -4q10 -3 17.5 -12.5t12.5 -24.5t8 -27.5t7 -33t6 -31.5q7 -39 31.5 -106t47 -121t42.5 -98q28 -48 76 -158 t69 -174q8 -23 34.5 -83t31.5 -73l43 -96q39 74 86 170l133 266q31 59 98 196.5t90 178.5q40 79 82.5 148t61.5 69q16 0 16 -27q0 -13 -3.5 -34t-8 -44t-6.5 -38q-9 -62 -9 -492q0 -104 -8.5 -296t-9.5 -277q0 -39 0.5 -84.5t1 -77.5t0.5 -37v-10q0 -9 -2 -14.5t-4.5 -6.5 t-5.5 0h-4q-6 0 -25 -2t-27 -2q-14 2 -14 39v265l4 102q4 44 9.5 172.5t5.5 175.5q-1 8 4 188l4 148q-16 -23 -25 -43q-27 -48 -39 -76q-1 -3 -81.5 -164t-96.5 -190q-20 -36 -94 -189.5t-86 -183.5q-51 -125 -62 -125q-7 0 -34 47q-16 23 -46.5 97t-48.5 126 q-11 33 -91.5 182.5t-90.5 172.5q-25 55 -55 137q-27 65 -35 90l-4 -90q-4 -98 -4 -139q0 -30 -2 -198.5t-2 -205.5l-2 -319q0 -10 -2.5 -15.5t-9.5 -7.5t-11.5 -2.5t-17 0t-17.5 0.5q-12 0 -47.5 -3t-50.5 -3q-30 0 -35.5 13t-3.5 57q0 14 -3 173.5t-3 207.5z" />
<glyph unicode="N" horiz-adv-x="1384" d="M121 123q0 49 2 84q0 323 14 452q2 31 11.5 154.5t16.5 231t7 143.5q0 162 6 242q5 55 58 55q11 0 29.5 -2t23.5 -2q13 0 78 1t96 1q44 0 66 -9t34 -32q38 -79 168 -366.5t187 -401.5q11 -21 47 -91.5t55 -109.5l63 -125l-4 119l-8 201v61q0 113 4 227q0 33 -2 144.5 t-2 150.5l8 197q0 31 31 31q11 0 41 -6q21 -5 72 -5q16 0 21 -4t5 -14q0 -4 -2 -18t-2 -23q0 -11 -3 -270t-3 -320q0 -8 -1 -27.5t-1 -31.5q0 -65 6 -200t6 -169q0 -51 5.5 -198t5.5 -160v-4q0 -41 -39 -37q-6 2 -25 2q-10 0 -35.5 -1.5t-34.5 -0.5q-18 2 -24 7t-23 34 q-4 10 -39.5 97t-73.5 177.5t-55 126.5q-39 75 -227 494q-53 108 -92 178l-60 106l7 -194q1 -38 2.5 -103.5t2.5 -114.5t1 -81q0 -81 4 -279t4 -219q0 -33 4 -108t4 -88v-5q0 -32 -39 -32q-8 0 -58.5 -4t-78.5 -4q-24 0 -97.5 -2.5t-101.5 -2.5q-16 0 -26.5 2.5t-16 11 t-7.5 12t-4.5 17t-2.5 15.5q-8 36 -8 90z" />
<glyph unicode="O" horiz-adv-x="1114" d="M88 731q0 169 32 301.5t81.5 211.5t114.5 130t124.5 69.5t118.5 18.5q92 0 165.5 -27.5t121.5 -70t83 -109t53 -128t28.5 -145t13 -143t2.5 -137.5q0 -93 -15.5 -192t-51.5 -199t-87 -178.5t-128.5 -128t-170.5 -49.5t-168.5 32t-125 82t-86.5 122.5t-56.5 140.5t-31 149 t-14.5 136.5t-3 113.5zM469 666q0 -38 2.5 -65.5t10.5 -59.5t27 -49t48 -17q38 0 63.5 32t35.5 77t10 100q0 82 -26.5 143.5t-68.5 61.5q-27 0 -48 -22t-32 -57t-16.5 -71.5t-5.5 -72.5z" />
<glyph unicode="P" horiz-adv-x="1064" d="M127 74q0 14 2 109.5t2 144.5q0 16 8 397t8 522q0 39 -3 79.5t-3 62.5q0 57 25 53q36 -4 129 -4q1 0 80.5 2t144.5 2q108 0 207 -6q66 -4 122.5 -30t104 -76t74.5 -134.5t27 -194.5q0 -87 -26.5 -155t-65 -106t-87 -63t-86.5 -33.5t-69 -8.5q-46 0 -159 -10.5t-150 -12.5 q-4 -188 -4 -256q0 -265 6 -288q7 -30 -19.5 -48t-48.5 -8q-6 2 -35 2q-61 0 -131 -8q-33 -4 -43 14t-10 54zM412 874l4 -79l96 -7q55 -6 152 -6q25 0 49.5 4.5t54 18t51 35.5t36.5 60.5t15 88.5q0 125 -50.5 189t-149.5 84q-148 30 -242 24q0 -140 -12 -250q-8 -72 -4 -162 z" />
<glyph unicode="Q" horiz-adv-x="1370" d="M86 668q0 135 19.5 247.5t52.5 192.5t79.5 141.5t97 99.5t109 62.5t111 33.5t107.5 9q99 0 183 -23.5t142.5 -62.5t105 -92.5t74.5 -109.5t46 -118.5t25 -115t7 -101.5q0 -83 -8.5 -171t-41.5 -215.5t-89 -217.5q125 -151 154 -174q28 -25 28 -39q0 -10 -16 -10 q-15 1 -30 0.5t-45.5 -1.5t-49.5 -1q-35 0 -52 11t-38 44q-4 8 -41 58q-120 -117 -305 -117q-382 0 -541 334q-69 143 -84 336zM182 743q0 -318 134.5 -476t373.5 -158q146 0 252 106l-151 203q-37 52 -23 55q17 0 115 10q21 2 35 -5.5t19.5 -16t13.5 -28t12 -27.5 q7 -15 63 -82q53 90 81 198.5t28 206.5q0 58 -4.5 112t-18 117t-35.5 115.5t-59 103t-85.5 85.5t-118.5 56t-155 21q-41 0 -97 -19.5t-123.5 -65.5t-124 -112t-94.5 -170.5t-38 -228.5z" />
<glyph unicode="R" horiz-adv-x="1120" d="M125 549q0 83 6 113q10 51 10 288q0 249 -8 375q-2 16 -2 45q0 13 1.5 23.5t2.5 17t5 11.5t6 7t7.5 3.5t7 1.5h8h7.5q7 0 50 5t105 10t115 5q116 0 206 -32.5t145 -90.5t82.5 -134t27.5 -167q0 -148 -96 -287q-41 -59 -94 -106l143 -260q165 -293 184 -320q29 -48 29 -59 q0 -2 -0.5 -4t-2 -3l-3 -2t-4 -1.5t-4.5 -1t-6 -0.5h-6h-6.5h-6.5q-16 0 -114.5 -3t-116.5 -3q-10 0 -17.5 5.5t-14.5 19t-13.5 28.5t-18.5 42.5t-24 51.5q-52 94 -142 276l-104 203q2 -28 7.5 -123t8.5 -141q12 -268 21 -303q2 -8 2 -21q0 -24 -14 -31.5t-45 -2.5 q-28 3 -137 -7t-128 -10q-27 0 -36 10.5t-9 34.5q0 5 1 21t1 26q0 9 -8 200.5t-8 289.5zM455 895q0 -3 1 -8t1 -8q112 0 112 120q0 60 -18.5 88.5t-46.5 28.5q-23 0 -39 -16q-2 -2 -1 -21t2.5 -43t-1.5 -51q-8 -36 -8 -72q0 -3 -1 -9t-1 -9z" />
<glyph unicode="S" horiz-adv-x="1179" d="M76 209q0 8 16 27q23 33 78 88q8 8 16 8q6 0 12.5 -5.5t16 -17t14.5 -16.5q121 -121 275 -121q192 0 192 141t-223 301q-17 12 -59 35.5t-79.5 45t-82 57t-76.5 74t-54 94t-22 118.5q0 76 32 146t83 120t111.5 88t118.5 57t104 19q84 0 166 -21.5t135.5 -47.5t106 -63 t70.5 -54t36 -35l2 -2q8 -8 8 -18q0 -5 -12 -29q-3 -4 -31 -45.5t-41 -56.5q-5 -6 -10.5 -15t-8.5 -12t-8.5 -5.5t-13.5 -2.5q-5 0 -43.5 33t-86 72.5t-112.5 72.5t-116 33q-21 0 -34.5 -1.5t-33.5 -9.5t-32.5 -22t-21.5 -42t-9 -67t17.5 -73t38 -55t60.5 -44.5t60 -32 t63 -26.5q3 -1 34 -14.5t45.5 -20t49 -25.5t54.5 -34.5t52.5 -43t52 -54.5t43.5 -66.5t37.5 -81t22.5 -96t9 -113.5q0 -132 -70 -221.5t-192.5 -130.5t-292.5 -41q-79 0 -148.5 16t-115 39.5t-84.5 54t-58.5 53.5t-35.5 45t-17 23q-8 11 -8 21z" />
<glyph unicode="T" horiz-adv-x="1110" d="M47 1059q0 5 1.5 54t3 112.5t1.5 103.5q0 50 -2 60v14q0 12 3 19t10.5 9t10.5 2.5t13 0.5h203q26 0 125 3t139 3q21 0 155 -3t199 -3q62 0 80 2q34 1 54 -9.5t24.5 -21.5t3.5 -21q-6 -60 -6 -155q0 -57 6 -156q0 -55 -72 -55h-360l-4 -211q-2 -35 -2 -174 q0 -100 1.5 -241t3 -244.5t1.5 -110.5v-10q0 -7 -0.5 -11.5t-2.5 -7.5t-2.5 -4.5t-5 -2.5t-5.5 -1h-7.5h-7.5h-139q-7 0 -11.5 0.5t-8.5 2t-6 3t-3.5 5.5t-2.5 6.5t-1 9v11.5v15v17q0 22 10.5 321.5t10.5 358.5q0 46 -3 145t-3 123q-62 0 -146.5 -1.5t-146.5 -3t-70 -1.5 q-27 0 -36.5 13.5t-4.5 33.5z" />
<glyph unicode="U" horiz-adv-x="999" d="M115 637q0 116 6 156q4 29 4 190q0 259 -8 373q-2 12 -2 33q0 26 7 39t15.5 11.5t16.5 -3.5q4 0 11 -1t11 -1q6 0 18 2t19 2q8 0 10 -13q-6 -318 -6 -835q0 -180 66 -297t166 -117q48 0 83.5 17t53 44t25 52t7.5 49q0 13 5.5 194t5.5 271q0 50 5 198.5t5 217.5 q0 100 -8 141q-6 24 -6 39q0 12 3 20.5t7.5 13t11.5 6.5t11.5 2t13 -0.5t10.5 -0.5h145q9 0 15.5 -1t11 -1.5t8 -4.5t5 -5t2.5 -7.5t1.5 -7.5t1 -10.5t0.5 -11.5q5 -57 5 -111q0 -36 -3 -66q-2 -27 2 -120.5t9 -257t3 -330.5q-2 -111 -28 -198.5t-66 -143t-95 -92 t-112 -51.5t-120 -15q-70 0 -128 28t-96.5 74t-62 89.5t-37.5 89.5q-28 95 -28 350zM223 1425v11v-21v10z" />
<glyph unicode="V" horiz-adv-x="1161" d="M55 1434q0 9 5 13t14.5 4t19 -1.5t23.5 -3.5t24 -2q20 0 110 4t118 4q20 2 32.5 -1t19.5 -13.5t10 -20t7 -28.5q5 -20 49 -322q9 -65 56 -287l45 -202l26 120q20 95 33 187q3 37 54.5 242.5t48.5 250.5q-1 22 1.5 37t5 23t12.5 12t13.5 4.5t19 0t17.5 -0.5q195 0 244 -6 q23 -3 31 -8.5t8 -16.5t-6 -32q-13 -35 -49 -201q-70 -365 -119 -541q-23 -90 -64 -334t-47 -264q-6 -21 -13 -28t-18 -7q-3 0 -13.5 1t-18.5 1q-16 0 -151 -8t-159 -8q-32 0 -42 17t-15 61q-29 123 -147 563q-19 69 -97 409t-84 361q-4 16 -4 21z" />
<glyph unicode="W" horiz-adv-x="1386" d="M57 1405q0 10 15 10h63q35 0 49 2l23 4q5 1 8.5 1.5t7 -0.5t6 -1.5t5 -3.5t4 -5t3 -7t2.5 -8t2.5 -10t2 -10.5t2.5 -12.5q1 -2 13 -45.5t22 -77t25.5 -83.5t32.5 -99t34 -90q44 -135 72 -201l34 -90q4 13 29 84q7 17 17.5 53t27.5 101t18 67q7 28 29.5 94.5t47.5 137 t30 85.5q53 136 78 136h8t6 -1.5t4 -2.5t2.5 -4.5t2 -5.5t2.5 -9t3 -12q2 -11 10 -36.5t11 -49.5q72 -192 98 -254q77 -166 101 -219q4 12 8 18l20 51q6 19 17.5 94.5t23.5 118.5q7 32 38 120t34 114q8 72 49 72q32 8 74 8q20 0 26 -2q25 0 25 -19q0 -4 -4 -24 q-6 -16 -18.5 -62.5t-24.5 -79.5q-10 -30 -52.5 -191t-54.5 -198q-11 -49 -26 -144t-15 -112q0 -52 -28 -119q-14 -37 -48 -228t-38 -198q-1 -7 -3 -18t-3 -17.5t-3 -14t-5 -10.5t-7 -3q-16 0 -23.5 8.5t-19.5 34.5q-19 23 -84 199q-27 66 -86 239q-9 35 -41 117l-28 76 l-29 -58q-14 -30 -78 -192q-13 -37 -34.5 -119.5t-39 -155t-18.5 -77.5q-6 -25 -19.5 -48.5t-23.5 -23.5q-15 0 -22 10.5t-13 32.5q-4 7 -34.5 140t-43.5 163q-14 35 -71 236q-9 21 -37 121t-59 212.5t-39 139.5q-11 37 -43.5 161t-40.5 150q-9 30 -9 41z" />
<glyph unicode="X" horiz-adv-x="1275" d="M96 23q0 6 3.5 13.5t13.5 23t14 22.5q11 18 51.5 74t91 126t68.5 95q28 37 92.5 136.5t83.5 123.5q25 37 25 63q0 20 -15 50q-8 16 -78.5 137.5t-87.5 156.5q-19 35 -121 196t-110 175q-14 22 -14 37q0 21 28 18q17 -1 54 2t51 3q12 -1 23.5 -10.5t19.5 -21t22 -35 t25 -38.5q92 -144 135 -219q45 -79 109 -184q34 -59 63 -101q10 0 17 8.5t15 27t13 26.5l113 184q112 179 147 227q12 16 41 70.5t45 63.5q37 16 74 16q35 0 52.5 -12t8.5 -35q-10 -32 -63 -103q-25 -31 -81 -116.5t-67 -100.5q-25 -35 -99.5 -177.5t-100.5 -196.5 q-15 -21 -15 -35q0 -9 15 -43q6 -14 23.5 -42.5t42 -67t36.5 -58.5q91 -163 141 -230q108 -166 150 -247q8 -13 8 -23q0 -14 -37 -14l-129 2q-11 1 -17 7.5t-17 31t-21 43.5q-13 24 -60.5 92t-62.5 100q-21 39 -83 145t-81 134q-14 20 -24 20t-27 -24q-8 -10 -60.5 -81 t-74.5 -98q-28 -36 -76 -116t-65 -121q-18 -40 -50 -78.5t-51 -46.5q-16 -4 -35 -4q-92 0 -92 29z" />
<glyph unicode="Y" horiz-adv-x="1046" d="M70 1386q0 29 94 29q31 0 49 -2q68 0 84 -2q16 -3 21 -7t6 -17.5t2 -18.5q18 -70 53 -170q53 -169 63 -192q57 -140 90 -254l17 51q8 32 29 88q23 65 43 115q3 11 21.5 57t23.5 55q38 75 75 236q4 17 10 28.5t10.5 18t14.5 9.5t13 3.5t15.5 0t14.5 -0.5t15.5 0.5 t27.5 0.5h33t35 -1.5t30 -3.5t22.5 -7t8.5 -11q0 -3 -4 -19q-1 -2 -32.5 -96.5t-51.5 -140.5q-62 -144 -178 -459q-16 -48 -101 -259.5t-89 -228.5q-5 -16 -11.5 -45t-12.5 -63t-7 -41q-9 -44 -33 -41h-55q-12 -2 -82 -2q-41 -2 -76 -2q-25 0 -25 12q0 3 4 11.5t5 11.5 t33 91t38 107q4 15 14.5 43.5t23.5 62t18 46.5q3 7 8 19t7.5 17.5t4.5 13.5t1.5 14.5t-3.5 13.5t-24.5 78.5t-34.5 99.5q-13 30 -31.5 93.5t-28.5 90.5q-17 46 -81 232.5t-76 226.5q-8 27 -24.5 61.5t-16.5 46.5z" />
<glyph unicode="Z" horiz-adv-x="1312" d="M80 66q0 13 5 87.5t5 92.5q0 12 8.5 27t18.5 26.5l30 34.5t31 35q234 306 283 389q13 22 45 67t58.5 81t67.5 91t48 64q28 40 74 133l37 80q-13 0 -19 2l-41 4l-217 2q-16 0 -60.5 -2t-64.5 -2q-29 0 -37 2q-18 4 -145 4h-86q-11 1 -16.5 4t-6.5 4.5t-0.5 9.5t0.5 9 q0 21 -6 80q0 9 2 15.5t6 9.5t11 4t12.5 0.5t15 -1t15.5 -0.5q31 0 122.5 4t135.5 4q46 0 186 -4t158 -4h121q175 0 204 4q3 0 8 1t7 1q7 0 12.5 -1.5t8 -3.5t4 -6t1.5 -6v-8v-7v-11v-17t-0.5 -19t-2.5 -21.5t-6 -20t-9 -18.5q-4 -5 -43 -62t-79 -115t-87.5 -125.5 t-73.5 -102.5q-158 -223 -250 -344l-194 -267q131 -18 231 -18q45 0 114.5 2t108.5 2q44 0 183 6t157 6q10 0 17.5 -3t11.5 -6t6 -11t2.5 -12.5t1 -15.5t0.5 -15q0 -15 -2 -73.5t-2 -76.5v-12q0 -20 -4 -25t-24 -6q-10 -2 -57 -4t-97 -10q-29 -4 -119 -4q-51 0 -144 2 t-116 2h-502q-19 0 -32 3t-19.5 7t-9.5 12.5t-3 13t0.5 16.5t0.5 16z" />
<glyph unicode="[" horiz-adv-x="641" d="M113 -119q0 6 4 64q22 187 24 407q2 61 2 187q0 97 -2 224t-2 132q0 16 -3 120.5t-3 151.5q0 29 2 55t2 54q0 37 -2 111.5t-2 85.5q-1 32 14.5 39.5t47.5 5.5h122h86l111 6l55 6q8 0 13 -3.5t7 -10.5t2 -12t-0.5 -12.5t-0.5 -8.5v-49q0 -33 -27 -33h-162q-22 0 -36 -2 l-5 -37q-8 -49 -8 -115q0 -45 -12 -287t-12 -270q0 -26 -4.5 -220t-4.5 -220q0 -41 -4 -127l-4 -70h252q25 0 25 -26v-144q0 -23 -8.5 -31t-34.5 -8q-7 0 -60 4.5t-118 4.5h-168q-8 0 -54 4q-32 3 -32 24z" />
<glyph unicode="\" horiz-adv-x="671" d="M4 1456q0 26 10 29q24 8 95 8q17 -6 35.5 -37.5t31.5 -71.5q4 -38 35 -132t59 -154q2 -5 90 -246t115 -320q22 -83 91.5 -275t70.5 -194q5 -12 9 -21.5t6 -14t2.5 -7t1.5 -4t1.5 -2.5t3.5 -4t5 -6q4 -16 4 -20q0 -14 -29.5 -22.5t-56.5 -8.5q-33 0 -49 16q-2 1 -6.5 4 t-6.5 4t-5.5 3.5t-5 4l-5 5t-4.5 6t-3.5 7t-4 9t-3 10.5t-2.5 13q-9 39 -159 461q-18 40 -86.5 249t-83.5 250q-12 45 -39.5 121t-59.5 156.5t-32 81.5q-25 59 -25 102z" />
<glyph unicode="]" horiz-adv-x="638" d="M53 -59q0 32 27 32h162q23 0 37 2l4 37q8 49 8 115q0 45 12 287t12 270q0 26 4.5 220t4.5 220q0 41 4 127l4 70h-252q-25 0 -25 27v143q0 23 8.5 31t34.5 8q5 0 58.5 -4t119.5 -4h168q8 0 54 -4q32 -3 32 -25q0 -5 -4 -63q-22 -187 -24 -408q-2 -61 -2 -186 q0 -97 2 -224.5t2 -132.5q0 -16 3 -120.5t3 -151.5q0 -29 -2 -54.5t-2 -54.5q0 -37 2 -111t2 -85q1 -32 -14.5 -39.5t-46.5 -5.5h-123h-86l-111 -7l-55 -6q-8 0 -13 3.5t-7 10.5t-2 12t0.5 12.5t0.5 8.5v50z" />
<glyph unicode="^" horiz-adv-x="745" d="M43 453q0 15 16 49.5t37.5 75t26.5 51.5q3 6 34 53t68 127q49 79 109 166q22 22 41 22q16 4 20 4q8 0 14.5 -3t12 -7t12.5 -14t11.5 -17t15 -23t16.5 -26q5 -11 70 -137l71 -133q1 -2 14.5 -26.5t21 -41t18.5 -43t15.5 -52t2.5 -48.5q-9 -96 -28 -96q-23 0 -62 45 q-23 14 -53.5 59t-48.5 86q-51 135 -97 203q-73 -118 -88 -154q-9 -24 -34 -73t-33 -66q-55 -90 -119 -90q-9 0 -25 4q-59 0 -59 105z" />
<glyph unicode="_" horiz-adv-x="1157" d="M137 -178q0 6 1 15t1 11v60q0 45 60 45h225l403 2h84q43 0 66 -2q32 0 42.5 -12t10.5 -33q0 -79 -4 -101q-6 -14 -27 -14q-10 0 -43 6t-53 6q-132 -4 -307 -4h-100q-26 0 -95 -3.5t-98 -4.5l-121 -8q-45 0 -45 37z" />
<glyph unicode="`" horiz-adv-x="505" d="M39 1655q0 28 39 45q29 16 45 16q9 0 63 -16q100 -43 176 -60q2 -1 23.5 -9t34 -14t27.5 -18t18 -26q4 -20 4 -27q0 -25 -21.5 -30t-56.5 2q-23 -3 -72 8l-45 16q-46 21 -81 29t-46 14q-26 7 -62 21.5t-40 25.5q-6 12 -6 23z" />
<glyph unicode="a" horiz-adv-x="1196" d="M43 8q0 5 8 29q18 41 29 78q79 271 90 331q19 109 76 265q42 179 131 465l51 163q12 49 41 131q13 31 29 15q4 -3 7 -7t6 -10.5t4.5 -11.5t4 -14.5t4.5 -14.5q6 -28 109 -245q38 -76 88 -219q12 -35 45 -108.5t74 -161t55 -120.5q49 -107 176 -348q8 -15 28.5 -60 t37.5 -77t30 -47q11 -22 11 -27q0 -16 -37 -16h-148q-5 0 -9 3.5t-8.5 11.5t-7.5 15t-8 19t-8 19q-11 22 -41.5 102t-38.5 108q-6 18 -27.5 65t-23.5 52q-7 25 -15.5 33t-21.5 8q-7 0 -36 -2.5t-46 -3.5q-17 -3 -104 -4t-115 -4q-18 -2 -65 -2q-29 0 -69 1l-40 1q-4 0 -7 -1 t-5 -4t-3.5 -5.5t-3 -7.5t-2.5 -8t-2.5 -9.5t-2.5 -9.5q0 -2 -19.5 -84t-23.5 -105q-27 -102 -39 -147q-6 -24 -11.5 -31.5t-15.5 -7.5h-121q-10 0 -10 8zM369 719q0 -12 18 -12q20 0 58.5 0.5t95.5 2.5t97 6.5t40 10.5q0 4 -6 16q-12 21 -48.5 106t-50.5 126q-12 27 -23 57 t-17.5 48t-8.5 22q-2 5 -4.5 10.5t-4 9t-3 7.5t-3 6t-2.5 4.5t-2.5 3.5t-3 1.5t-3.5 0.5t-4.5 -4t-5 -12.5t-4.5 -16.5l-5.5 -22t-5.5 -23q-44 -147 -53 -180q-4 -19 -13 -45t-19 -53t-13 -37q-6 -21 -6 -33z" />
<glyph unicode="b" horiz-adv-x="1130" d="M129 16v90q0 13 6 149t6 189q0 47 -3 251.5t-3 246.5q0 49 10.5 164.5t10.5 136.5q0 29 -4.5 100.5t-4.5 86.5q0 26 37 26q5 0 16 -1t15 -1q9 0 43 4t55 4q5 0 80.5 -3t202.5 -3q373 0 373 -358q0 -168 -160 -254q-69 -39 -160 -58q116 -12 203 -67q205 -130 205 -432 q0 -57 -18 -104t-46 -77.5t-68.5 -53t-78.5 -34.5t-82.5 -19t-74 -9t-60.5 -2q-65 0 -246 -7.5t-201 -7.5q-32 0 -42.5 11t-10.5 32zM186 174q0 -15 3 -22.5t7.5 -9t12.5 -1.5l106 -4q29 -1 118.5 -8.5t135.5 -7.5q265 0 265 201q0 67 -20 121t-48 85.5t-63 53.5t-58.5 30.5 t-40.5 10.5q-32 4 -187 14t-175 10q-33 0 -41 -4.5t-8 -19.5q0 -6 1 -43t1 -78q0 -36 -3.5 -97.5t-3.5 -87.5q0 -31 -1 -82t-1 -61zM203 963q0 -22 7 -26.5t34 -4.5q15 0 66.5 -3t76.5 -3q18 0 79 3t101 3q195 0 195 155q0 52 -27.5 92.5t-70.5 64.5t-103 39t-117.5 20.5 t-121.5 5.5q-31 0 -105 -4l-4 -52q-2 -31 -2 -86q0 -23 -4 -108.5t-4 -95.5z" />
<glyph unicode="c" horiz-adv-x="1175" d="M86 764q0 129 19 235t49.5 178t74.5 127t89 87t97.5 51.5t95 26t87.5 6.5q70 0 130.5 -14.5t98.5 -33t73.5 -49.5t51.5 -51t37 -50.5t25 -35.5q20 -26 20 -41q0 -3 -0.5 -6t-2.5 -6t-3.5 -5.5t-5 -5t-5.5 -4.5t-6.5 -5t-6.5 -4t-7.5 -4.5t-7.5 -4.5q-12 -8 -81.5 -63 t-86.5 -64q-9 -6 -16 -6q-9 0 -16 5.5t-16 18.5t-11 15l-16 18q-16 18 -27 27.5t-34 20t-48 10.5q-29 0 -51 -16t-41 -55t-29 -113t-10 -181q0 -104 14 -182.5t36 -120t44 -61t43 -19.5q40 0 61.5 18t38.5 70q15 49 54 49q10 0 28.5 -4.5t22.5 -5.5q21 -7 106.5 -26 t130.5 -27q29 -5 29 -49q0 -21 -2 -31q-2 -25 -16 -72q-14 -42 -31.5 -80t-55 -88.5t-84 -86.5t-121 -61.5t-163.5 -25.5q-70 0 -141 22t-147 79.5t-134 144.5t-95.5 229t-37.5 320z" />
<glyph unicode="d" horiz-adv-x="1169" d="M129 1346q2 46 6 65t17 19h6q6 0 17 -3.5t20 -3.5q8 0 40.5 2t47.5 2q14 0 40.5 -1t38.5 -1q115 0 207 -10q2 0 24 -2t32.5 -4t36 -8t47 -16.5t52 -27t64.5 -42t72 -58.5q64 -57 106.5 -129.5t61 -153.5t25 -146t6.5 -146q0 -146 -68.5 -321t-173.5 -244 q-69 -44 -179 -72.5t-180 -35.5t-114 -7h-209q-16 0 -23 5t-7.5 10.5t1.5 17t2 16.5q0 4 -1 23t-1 37q0 11 -3 216t-3 287q0 75 1 224.5t1 187.5q0 48 -5 171.5t-5 148.5zM473 854q0 -66 6 -169.5t6 -143.5q0 -14 -1 -109.5t-1 -155.5q-2 -61 -2 -196q141 -9 258 51 q52 27 95.5 69t82 106.5t60.5 160.5t22 215q0 409 -256 565q-113 67 -256 70l-8 -187q-6 -100 -6 -276z" />
<glyph unicode="e" horiz-adv-x="1046" d="M80 633q0 75 8 232t8 192q0 237 -6 313q-2 22 7.5 33.5t29 14t38.5 1t46 -4.5t41 -3q25 0 153.5 6t190.5 6q61 0 201.5 -3t154.5 -3q10 0 17.5 -3t11 -6t5 -10t2 -11t0 -13t-0.5 -12v-23q0 -47 -8 -47q-10 0 -27.5 3t-38.5 3h-327l-254 2q-11 0 -92 -6l-47 -4l-5 -55 q-2 -31 -2 -96q0 -30 4.5 -83t4.5 -75v-82q0 -33 2 -51q18 -2 55 -2h82q14 0 60 4t81 4q38 0 95.5 -4t64.5 -4q9 0 43.5 3t62.5 3q18 0 69.5 -3t72.5 -3q22 0 30 2q2 0 6.5 1t6.5 1q15 0 20.5 -9.5t3.5 -17.5q-1 -5 -2 -35t-2 -38v-4q-2 -12 -6.5 -15.5t-24.5 -3.5 q-8 0 -122.5 11.5t-159.5 11.5q-160 0 -256 -7q-27 -4 -121 -4q-39 0 -57 2l-6 -32q-5 -45 -5 -66q0 -23 4.5 -57t4.5 -58l2 -243q0 -18 -1 -53t-1 -50q-2 -18 -2 -51q27 -2 77 -2q43 -2 134 -2q38 0 109 -2t108 -2q39 0 106 3t92 3q31 0 77 -2t54 -2q9 0 13.5 -1.5 t6.5 -6.5t2.5 -9.5t0.5 -15.5q0 -8 -2 -29.5t-2 -33.5q0 -14 -10 -19.5t-33 -5.5t-37 2q-56 6 -223 6q-48 0 -131.5 -2t-130.5 -2q-63 0 -159.5 2t-109.5 2q-28 0 -37.5 7.5t-9.5 23.5q0 5 1 16t1 17q2 8 2 18q0 4 -1 15t-2 36.5t-1 65.5q0 61 -5 206.5t-5 215.5z" />
<glyph unicode="f" horiz-adv-x="952" d="M129 170q0 30 1 90.5t1 81.5q0 44 4 186t4 160q0 16 -4 73t-4 107q0 45 3 100.5t3 80.5v184q0 19 4 73t4 74v9q0 21 7 26.5t22 5.5q7 0 32.5 -2t37.5 -2q39 0 134 4t120 4l223 -2q30 0 97 -2t89 -2t29.5 -6t7.5 -20q0 -3 -1 -15t-1 -20l2 -240v-119q0 -16 -5 -21t-26 -5 q-15 0 -100 6t-106 6h-218q-36 0 -86 -4l-43 -4q-2 -12 -2 -37v-68q0 -25 -4 -57l-4 -27h45q14 0 42 1.5t40 1.5h148q45 0 108 4t82 4q41 0 41 -25t-10 -59q-1 -16 -7.5 -19.5t-21.5 -3.5q-7 0 -36 1t-46 1q-13 0 -91 2t-99 2h-109q-51 0 -80 -2v-198q0 -98 -5 -192t-5 -152 q0 -31 1 -73.5t1 -47.5q0 -16 -7.5 -23t-14 -7.5t-25.5 -0.5h-141q-10 1 -15.5 4t-8 10.5t-3 13.5t-0.5 21v23q-4 32 -4 96z" />
<glyph unicode="g" horiz-adv-x="1091" d="M80 766q0 181 67 339.5t178 251.5t236 93q71 0 129 -15t95.5 -41t60.5 -48t42 -48t23 -30q17 -20 17 -39q0 -24 -19 -43q-12 -12 -46.5 -41t-49.5 -39q-9 -6 -18 -6q-19 0 -37 18q-1 1 -13.5 15t-24.5 27t-34 30.5t-43.5 30t-51 21.5t-59.5 9q-65 0 -118.5 -55.5 t-85.5 -140t-49 -174.5t-17 -168q0 -63 10 -132t34.5 -144.5t60 -134.5t92 -97.5t125.5 -38.5q146 0 225 115q34 52 43 116h-59q-18 0 -50.5 1t-42.5 1l-206 2q-35 0 -35 33v80q0 15 4.5 22.5t7.5 8t10 0.5h94q18 0 214 5t206 5q18 0 27.5 -19t7.5 -49q0 -18 -1.5 -41.5 t-11 -77t-26 -101t-52 -104t-83 -96.5t-124 -67t-171.5 -27q-94 0 -174.5 47.5t-136 126t-94.5 182t-57.5 214.5t-18.5 223z" />
<glyph unicode="h" horiz-adv-x="1306" d="M127 53q0 10 3 104t3 124q0 9 2 130t2 191q0 52 -4 115t-4 112q0 42 2 113.5t2 91.5q0 40 9.5 202t9.5 177q0 17 6 23t18 6q4 0 13.5 -1t13.5 -1q40 -8 153 -8q26 0 81 2t65 2h2q5 0 8 -2t5 -4t2.5 -6.5t0.5 -7.5v-9v-8q0 -4 1 -44t2 -98t1 -106q0 -66 -4 -176l-4 -94 q2 0 16 -0.5t34 -1t38 -0.5q26 0 62.5 3t56.5 3q29 0 43 -2l47 -4l6 61l6 98q0 26 4.5 184t4.5 175q2 31 8 41.5t28 11.5q20 0 80.5 7t93.5 7q66 0 109 -6q12 -2 19 -3.5t10 -6.5t4 -8t2 -13.5t2 -17.5q0 -13 -6.5 -141t-7.5 -166q0 -31 -12.5 -181t-12.5 -192q0 -41 2 -202 t2 -203q0 -229 8 -281v-4q0 -11 -2 -18t-8 -9.5t-9 -3.5t-12 -0.5t-10 0.5q-16 4 -41 4q-7 0 -53 -4q-57 -6 -184 -6h-4q-9 0 -14.5 2t-8.5 4t-4.5 8t-2 9t0 13t0.5 13q0 45 -6 211.5t-6 231.5q-2 31 -2 94h-60q-18 0 -49.5 -1t-38.5 -1q-5 0 -17 -1t-20 -1q-6 0 -20 1 t-21 1q-31 0 -49 2l-6 -129q-6 -72 -6 -187v-104q0 -110 4 -133q-1 -7 0.5 -12t-1.5 -9t-3.5 -6.5t-5.5 -4t-7.5 -2.5t-8.5 -1h-9h-9.5h-10.5q-10 1 -35 3t-46.5 3.5t-37.5 1.5q-12 -1 -75.5 -6t-90.5 -6q-47 -7 -47 57z" />
<glyph unicode="i" horiz-adv-x="497" d="M78 47q-3 17 4.5 78t7.5 96q0 41 13.5 252t13.5 236q0 27 4 195t4 192q0 32 4 110l4 74v86q0 46 10.5 63t30.5 17q10 0 16 -2q10 -1 72 0.5t90 -2.5q17 -2 27 -6.5t14 -11t4 -15.5q0 -7 -2.5 -22.5t-3.5 -22.5q-22 -173 -24 -358q-2 -53 -2 -164q0 -86 2 -197t2 -115 q0 -14 3 -105.5t3 -133.5q0 -25 -2 -47.5t-2 -46.5q0 -32 2 -97t2 -77q1 -26 -16 -33.5t-46 -5.5h-186q-17 -1 -27 3t-14.5 15.5t-5.5 18.5t-2 26z" />
<glyph unicode="j" horiz-adv-x="804" d="M23 676q-2 30 2.5 47.5t16 23.5t21 7t27.5 -1.5t25 -2.5q21 -1 61 1.5t70 2.5q15 0 25.5 -3.5t16 -7t8 -13t2.5 -14.5t-0.5 -19t-0.5 -19q0 -12 2 -57t2 -74q0 -18 -2 -56t-2 -57q0 -153 78 -153q51 0 51 276q0 72 -4 197t-4 157l-2 465q0 34 14 46t39 12q7 0 22.5 -1 t22.5 -1h121q36 0 49.5 -11.5t13.5 -46.5q0 -17 -5 -104.5t-5 -136.5q0 -294 -12 -486q-1 -23 0 -74.5t2.5 -99.5t-2 -110.5t-12.5 -115t-30.5 -105.5t-53.5 -90t-84.5 -60t-120.5 -23q-67 0 -122 21t-90 53t-61 76t-39 84t-21 83.5t-9.5 66.5t-1.5 42q0 140 -8 281z" />
<glyph unicode="k" horiz-adv-x="1230" d="M102 1108q0 31 1 78t1 57l2 162q0 18 21 18q7 0 23 -3t22 -3l234 -2q21 0 26.5 -7.5t5.5 -21.5q0 -1 1 -33t1 -67q0 -27 -11 -137.5t-11 -144.5v-136q0 -55 2 -86q25 28 49 62l76 98q28 35 116.5 157.5t104.5 147.5q4 7 57 72t60 86q3 12 11.5 18.5t14 8t19 2t14.5 0.5 q8 0 22 1t33 2.5t31 2.5h8q37 0 37 -15q0 -8 -20 -28q-7 -7 -87.5 -105t-111.5 -137q-27 -39 -122 -168t-116 -153q-20 -24 -62 -94t-42 -78q0 -6 5.5 -13t21.5 -23l26 -26q45 -55 156 -166q7 -7 47 -52t88 -96.5t80 -80.5q31 -28 73.5 -71.5t77 -81t37.5 -40.5q4 -4 4 -8 q0 -9 -13.5 -13t-27.5 -1q-9 0 -78 -3t-91 -3q-52 -3 -80 22q-3 3 -17.5 16.5t-29.5 28.5t-29 31q-62 66 -141 145q-14 14 -55.5 50t-61.5 55l-78 65v-172q0 -22 5 -100t5 -96q0 -8 -2 -14t-4 -9t-7.5 -4.5t-8 -1.5h-9.5h-8q-7 0 -49 3t-59 3q-16 0 -82.5 -3t-75.5 -3 q-3 0 -6 0.5t-5 1t-3.5 2.5t-2.5 3t-1.5 4t-1 5t-0.5 6.5v7v8v9.5l-2 502v192q0 233 -5 289q-2 25 -2 78z" />
<glyph unicode="l" horiz-adv-x="1185" d="M127 43q0 15 6 178.5t6 188.5q0 17 -5 113.5t-5 133.5q0 -34 4 11q15 180 21 371v18l-2 231q0 8 -2.5 61.5t-2.5 69.5v2q0 7 3.5 11t10 5t12.5 1t14 -1t12 -1q5 0 27.5 -1t49.5 -1h19q12 0 12 -17q0 -4 -7 -199.5t-7 -230.5l-2 -293q0 -13 2 -84.5t2 -105.5 q0 -22 -1 -49.5t-1 -40.5q0 -9 2 -11l49 -4q66 -4 109 -2q37 0 188.5 2t189.5 2q45 0 173.5 -4t138.5 -4q22 -2 22 -12q0 -3 -2 -11t-2 -12v-94q0 -25 10.5 -128.5t10.5 -112.5q0 -2 1 -6t1 -5q0 -10 -10 -13t-37 -3q-15 0 -189.5 3t-214.5 3q-27 0 -158.5 -6t-175.5 -6 q-9 0 -20.5 1t-13.5 1q-12 2 -48 2q-27 0 -83 -2t-72 -2q-13 0 -20.5 1t-11 7t-4 9t0 16.5t0.5 19.5z" />
<glyph unicode="m" horiz-adv-x="1413" d="M127 670q0 304 12 448q13 156 13 281v8q0 18 3.5 25.5t9.5 7t13 -1.5h17q33 0 51 2q35 0 41 -60q6 -72 63 -245q22 -65 106.5 -286.5t112.5 -283.5q28 -72 72 -207l45 -139q11 19 84 160q6 13 113.5 219t136.5 274q26 60 83.5 183.5t70.5 154.5q2 7 16 48t22.5 64 t21.5 55.5t24 48.5t20 16q16 0 16 -47q0 -25 -5.5 -90t-6.5 -82q-6 -106 -6 -394q0 -329 -10 -462l-2 -334v-6q0 -21 -23 -21q-56 0 -72 2q-10 2 -10 17q0 3 1 14.5t1 19.5q0 68 8.5 365t8.5 395q0 86 -2 131q-3 -6 -23.5 -41t-28.5 -53q-17 -28 -43.5 -81t-36.5 -70 q-22 -43 -97.5 -198t-86.5 -177q-17 -29 -53 -99t-73 -143.5t-38 -75.5q-11 -25 -28.5 -46t-30.5 -21q-6 0 -10 1.5t-6.5 3t-5 6.5t-3.5 8t-3.5 12t-4.5 14q-86 249 -108 299q-107 242 -134 344q-7 20 -29 88.5t-34 105.5q-5 14 -14 42t-17 51.5t-14 44.5l-4 -76 q-2 -43 -2 -131q0 -291 -8 -406q-2 -29 -2 -116q0 -53 1 -130l1 -77v-6q0 -18 -7.5 -26.5t-21.5 -6.5q-9 4 -36 4h-30q-10 0 -10 14q0 3 1 15.5t1 21.5q0 13 -5 287.5t-5 337.5z" />
<glyph unicode="n" horiz-adv-x="1222" d="M131 672q0 90 5 285t5 268q0 93 -6 137q-4 36 -4 47q0 27 7.5 42t18.5 19t27 3q50 -3 121 12q23 4 45 4q7 0 33.5 -2t60.5 -2q21 0 40 -9t33 -22t29 -34t24 -37t22 -40.5t20 -35.5q16 -31 60 -97l30 -47v113q0 112 3 158q0 16 6.5 27t14.5 16.5t23.5 8t25 3t26.5 0.5h8 q40 0 113 4.5t112 11.5q40 4 48 -17t1 -75q-4 -31 -4 -407v-463q0 -102 5.5 -296.5t8.5 -225.5q-4 -23 -32 -23q-8 0 -27 2t-30 2q-22 0 -79 -4t-79 -4q-39 0 -58.5 16.5t-39.5 59.5q-2 4 -55 113t-89 171q-24 39 -135 248l-90 170v-78q0 -16 -0.5 -45t-0.5 -53t1 -45 q0 -419 12 -485q2 -10 2 -25q0 -21 -8.5 -26t-30.5 -3q-69 0 -159 -12q-32 -4 -41 10t-7 64q0 27 -2.5 119.5t-7 235.5t-6.5 243zM1093 21q1 5 1 10l-1 -12v2z" />
<glyph unicode="o" horiz-adv-x="1308" d="M82 770q0 135 45.5 265t118.5 225.5t170 154t196 58.5q144 0 192 -9q54 -10 91 -34q77 -52 138.5 -132.5t96.5 -161t58 -166t31 -144t8 -97.5q0 -40 -3.5 -86.5t-17.5 -123t-37.5 -145.5t-68.5 -144t-104.5 -129t-152.5 -89t-206 -35q-340 0 -483 396q-63 181 -72 397z M213 748q0 -100 13.5 -192t45 -177.5t78 -148.5t118 -100.5t159.5 -37.5q90 0 162.5 34t121.5 93t82.5 140.5t48.5 174t15 195.5q0 168 -49 309t-142 227.5t-211 86.5q-85 0 -114 -8q-43 -13 -76 -50l-21 -20q-20 -21 -28 -29t-31 -33.5t-35 -42.5t-33 -49t-33 -58.5 t-27.5 -64.5t-23.5 -74.5t-14 -82t-6 -92.5z" />
<glyph unicode="p" horiz-adv-x="1136" d="M127 61q0 10 4 195t4 248v561q0 82 8 178l9 135q0 30 6.5 36.5t25.5 6.5h6q20 0 119 10.5t150 10.5q76 0 113 -0.5t97 -2.5t91 -6t74 -11.5t68.5 -19t52.5 -29t46 -40.5q2 -3 23.5 -28.5t26.5 -32.5t21.5 -31t22.5 -39t15.5 -39.5t12.5 -50t3 -53.5q0 -72 -20.5 -134 t-53 -107t-79.5 -82.5t-94.5 -61.5t-102.5 -43q-164 -55 -350 -58l-4 -223l-4 -289q0 -61 -49 -61q-9 0 -24 2t-21 2q-16 0 -79 -4t-79 -4q-23 0 -31 16t-8 49zM428 680q80 -3 154 6q168 12 247 51q73 35 108.5 93.5t35.5 156.5q0 73 -17 162q-37 197 -405 197 q-13 0 -111 -5z" />
<glyph unicode="q" horiz-adv-x="1208" d="M82 737q0 128 23 235.5t59 179.5t84.5 129t96.5 89t98.5 53t86 28t62.5 7q85 0 157 -32.5t123 -90t89.5 -131t61 -160t33.5 -172t11 -172.5q0 -209 -129 -440q151 -182 176 -207q23 -23 23 -35t-27 -12l-152 2q-25 0 -38.5 7t-26.5 30l-57 66l-4 -5q-3 -4 -5 -6 q-22 -34 -51 -51q-84 -54 -178 -47q-30 2 -65.5 10t-87 30t-99 55.5t-97 91t-85.5 130.5t-59 181.5t-23 236.5zM322 745q0 -103 23.5 -188.5t59.5 -137t77 -79t79 -27.5q41 0 84 15q-21 22 -40.5 44.5t-35 41.5t-18.5 22q-21 34 -21 43q0 8 5 11.5t10 3.5t14.5 -1t13.5 -1 q17 0 67 4t67 4q20 0 27 -1.5t14.5 -12.5t13.5 -17l24 -27q41 67 41 168q0 23 1 73.5t1 76.5q0 50 -2 89t-7.5 85t-15.5 80t-27.5 67.5t-41.5 55t-58.5 34.5t-78.5 13q-41 0 -87.5 -29t-89.5 -81.5t-71 -139t-28 -189.5z" />
<glyph unicode="r" horiz-adv-x="1148" d="M133 131q0 21 6 366t6 576q0 235 -6 275q-2 16 -2 43q0 30 8.5 38.5t28.5 8.5q6 0 130 -3t173 -3q33 0 74 -3.5t99.5 -16.5t104 -33.5t78.5 -59.5t33 -90q0 -69 -37 -122t-88.5 -81.5t-117.5 -46.5t-113.5 -23.5t-85.5 -5.5q-27 0 -29 2q2 -2 309 -413t351 -455 q55 -55 55 -76q0 -26 -102 -26q-16 0 -28 1t-21 1.5t-15.5 4t-10.5 4.5t-8 8t-5.5 9t-6 12.5t-6.5 14.5q-7 14 -61 85t-128.5 169.5t-115.5 157.5q-41 60 -215 280l-141 176l-8 -82q-9 -68 -5 -147q11 -124 11 -647q0 -52 -82 -52q-5 0 -9 2t-6.5 6t-4 7.5t-2.5 10t-1.5 11 t-1 11.5t-0.5 10q-4 32 -4 96zM240 1034q181 0 286 19q36 6 62 12.5t52 17t41.5 24.5t25.5 34.5t10 46.5q0 31 -27.5 57t-68 41.5t-82 24t-74.5 8.5q-51 2 -143 2h-70z" />
<glyph unicode="s" horiz-adv-x="1030" d="M86 160q1 1 7.5 13t11.5 21.5t12.5 18t13.5 8.5h4q3 0 5 -0.5l4 -1t4.5 -3.5t5.5 -5.5t9.5 -9.5t12.5 -13q28 -28 105 -61t129 -33q16 0 30 0.5t38 3t44 7t45 13.5t45 21t40 30.5t33.5 41.5t21.5 55t8 70q0 24 -9 46.5t-27.5 42.5t-39 37t-53 36.5t-58.5 34t-66 36 t-67 37.5q-53 30 -92.5 56.5t-81.5 65.5t-69 81t-44.5 99t-17.5 122q0 78 29.5 146.5t78 116.5t110.5 82.5t127 51.5t128 17q48 0 95 -10t81.5 -24t69 -33t53 -33t37 -29t19.5 -15q20 -14 20 -28q0 -9 -8 -17q-3 -3 -10 -13.5t-14 -20.5t-15.5 -18.5t-13.5 -8.5 q-16 0 -41 23q-161 112 -267 112q-142 0 -214 -64t-72 -163q0 -45 18.5 -84t54 -71t68.5 -54t78 -47q14 -7 67 -27t93.5 -37.5t96 -55t92 -80t63 -111.5t26.5 -152q0 -73 -19.5 -133t-50.5 -100.5t-75 -72t-89 -49t-97.5 -28.5t-94 -14.5t-84.5 -3.5q-61 0 -122.5 19 t-106.5 46.5t-69.5 46t-35.5 29.5q-21 18 -10 37z" />
<glyph unicode="t" horiz-adv-x="1183" d="M55 1397q0 7 1 22t1 23q0 16 5.5 21t17.5 5q5 0 21.5 -2t27.5 -2l436 2q66 0 289.5 3.5t239.5 3.5q12 -1 19.5 -4t10.5 -10.5t3.5 -13t-0.5 -19t-1 -19.5q1 -28 -10.5 -37.5t-38.5 -9.5q-10 0 -38.5 -1t-55.5 -1.5t-80 0.5h-8q0 -73 -3 -367t-3 -364q0 -96 16.5 -309 t16.5 -242q1 -13 -0.5 -23t-6.5 -17t-10.5 -12t-16 -7.5t-20 -4t-26 -1.5h-29t-34.5 0.5t-38 0.5q-72 0 -262 4t-200 4q-21 0 -21 41q0 16 4 63.5t4 74.5q-4 54 -4 186q0 456 19 686q4 53 4 143q0 100 -6 152q-23 2 -37 2q-18 0 -89 -2t-81 -2q-17 0 -17 33z" />
<glyph unicode="u" horiz-adv-x="1277" d="M119 561q0 58 5 248t3 250q0 81 -3 206t-3 132q0 5 -0.5 19t0 19t2.5 14t7 12.5t14 6t22 2.5q70 -4 106 -4q24 0 71 4.5t71 4.5q20 0 49 -1t33 -1q19 0 23.5 -8.5t6.5 -34.5v-820v-6q0 -24 0.5 -38.5t7 -41t18 -42.5t35.5 -29t58 -13q43 0 72.5 20t42.5 53.5t17.5 61.5 t4.5 58q0 14 4.5 149t4.5 207q0 48 -3 78q0 56 -6 185t-6 147q0 37 10 51t39 14h260q3 0 14 1t17 1q21 0 34 -12.5t17 -48.5q4 -35 4 -242q0 -94 -1 -253.5t-1 -186.5q0 -35 -3.5 -79t-16.5 -116t-34 -138t-61.5 -137t-93.5 -122.5t-134.5 -85t-180.5 -33.5q-78 0 -145 13 t-115.5 33.5t-89 51.5t-66.5 61t-46 70t-30.5 69.5t-18 67.5t-9.5 56.5t-4 44.5q-2 20 -2 82z" />
<glyph unicode="v" horiz-adv-x="1067" d="M39 1425q0 3 1 5.5t1.5 4t3 2.5t3.5 1.5t4.5 1t4.5 0.5h78q13 0 20.5 -4t9.5 -8t4 -12t3 -11q11 -25 39 -148q11 -50 76.5 -252.5t79.5 -259.5q20 -85 96 -313q19 -62 43 -127q16 -36 16 -37q10 34 41.5 120t50.5 126q38 70 140 395q18 47 73.5 182t63.5 156q10 24 33 93 t26 77q7 29 33 19q9 -4 51 -4q13 0 13 -7q0 -2 -9 -20q-43 -115 -69 -158q-22 -37 -100.5 -262.5t-98.5 -294.5q-14 -33 -82.5 -227.5t-79.5 -222.5q-13 -32 -30.5 -79t-32.5 -88t-15 -42q-4 -17 -9 -21t-17 -4q-6 0 -10.5 1.5t-5.5 3t-3.5 6t-3.5 6.5q-1 4 -22.5 71.5 t-46.5 147t-35 108.5l-139 393q-11 32 -61 196t-58 187q-9 22 -38 134.5t-34 128.5q-8 21 -8 36z" />
<glyph unicode="w" horiz-adv-x="1579" d="M76 1368q0 24 9 33t30 14q15 0 82.5 6t107.5 6q14 0 24.5 -1t18 -5.5t11.5 -6t7.5 -10t4 -10.5t2.5 -14t2 -14q2 -10 13 -68t24 -110q7 -26 31.5 -108t43.5 -148t23 -90q6 -18 12.5 -60t13.5 -69t17 -27h6q15 7 34 38.5t39 72t27 51.5q4 7 64.5 101t69.5 120 q15 23 23 33.5t20.5 20.5t25.5 10q14 0 19.5 -7t9.5 -29t8 -34q3 -25 19.5 -97.5t23.5 -117.5q14 -58 39 -113q7 -21 23 -49q3 19 12 37l24 63q3 17 27.5 94.5t36.5 125.5q18 70 58 201t57 171q3 14 9 24t11 15t16 7.5t15.5 3t20.5 0t20 -0.5h168q41 0 41 -24q0 -6 -3 -18.5 t-4 -18.5q-3 -9 -25.5 -83t-45.5 -136q-26 -77 -113 -381q-9 -40 -52 -216t-52 -216q-28 -94 -72.5 -210t-62.5 -116q-39 0 -70 107q-47 93 -107 297q-13 51 -63 209l-43 122q-10 -26 -14 -32q-5 -13 -17.5 -38t-17.5 -36l-142 -277q-7 -17 -35.5 -80.5t-46 -104.5 t-24.5 -66q-43 -107 -84 -107q-32 0 -41 55q-1 5 -9 25t-16 48t-18 77q-9 56 -68.5 305.5t-66.5 286.5q-7 28 -56 240.5t-65 263.5q-10 48 -10 65z" />
<glyph unicode="x" horiz-adv-x="1216" d="M98 27q0 25 21 73q7 17 60 132t71 157q23 54 117 307q2 5 21.5 52.5t30.5 78t11 41.5t-3 19.5t-6 13.5t-13 18t-17 23q-21 29 -69.5 107t-65.5 110q-12 30 -58 108.5t-63 98.5q-12 18 -12 31q0 20 24 20q13 1 41.5 -0.5t42.5 -1.5q42 0 72 -55q3 -6 28 -55t48 -90.5 t33 -53.5q9 -11 25.5 -41.5t30.5 -54t21 -23.5q17 0 55.5 116t47.5 175q14 90 72 90q14 0 54.5 4.5t63.5 4.5q134 0 176 -15q29 -9 29 -43q0 -29 -22 -71q-16 -34 -77 -203.5t-65 -179.5q-88 -192 -88 -234q0 -9 1.5 -17t5.5 -17t6.5 -14.5t10 -16t10.5 -14.5t14 -17t14 -17 q14 -19 156 -251.5t159 -253.5q23 -26 22 -45q0 -15 -22 -15q-14 0 -63 -2t-60 -2q-10 0 -18.5 15t-19.5 44t-21 46q-21 27 -154 249q-95 158 -110 158q-4 0 -7.5 -4.5t-7 -14.5t-6.5 -20.5t-8.5 -28t-9.5 -30.5q-10 -23 -40.5 -106t-62 -172.5t-35.5 -100.5 q-18 -43 -67 -43q-17 0 -27 2q-23 0 -137 2t-137 2t-23 25z" />
<glyph unicode="y" horiz-adv-x="1083" d="M70 1386q0 8 6 14t19 9t24.5 4.5t31.5 1.5t30 -0.5t29.5 -2t22.5 -1.5q15 -3 20 -7.5t6 -17t3 -18.5l51 -170q23 -69 93 -245t98 -275q10 33 47 139q13 39 57 154.5t58 146.5q59 174 73 236q4 17 10 28.5t10.5 18t14.5 9.5t13.5 3.5t16 0t13.5 -0.5q3 0 43 1t68 1 q131 0 131 -24q0 -3 -4 -19q-1 -2 -32.5 -96.5t-51.5 -140.5q-14 -41 -87 -228t-89 -231q-35 -82 -110.5 -273t-80.5 -215q-5 -16 -11.5 -45t-12.5 -63t-7 -41q-6 -25 -12.5 -33.5t-19.5 -7.5l-121 -2q-15 0 -80 -1t-82 -1q-27 0 -27 12q0 3 4 11.5t5 11.5l73 198 q3 19 26.5 78t27.5 74q3 8 8 19t8 17.5t5.5 14t2 14t-3.5 13.5q-4 8 -26 79t-35 99q-13 30 -31.5 93.5t-28.5 90.5q-17 40 -79.5 224.5t-77.5 234.5q-8 26 -23.5 61t-15.5 47z" />
<glyph unicode="z" horiz-adv-x="1150" d="M45 1354q0 41 8 80q3 18 25 18q9 0 34.5 -5t39.5 -5l200 2q26 0 108 -1t115 -1q214 0 277 -6q129 -11 166 -11q33 0 43 2q3 0 7.5 1.5t6.5 1.5q9 0 14 -3.5t5.5 -6t0 -10.5t-0.5 -9q0 -11 -9 -76q-3 -19 -17.5 -40.5t-47 -57t-47.5 -53.5q-90 -122 -211 -304 q-31 -48 -230 -307q-6 -7 -74 -97.5t-91 -119.5q-10 -11 -23 -31t-30.5 -48.5t-28.5 -45.5l-54 -88q96 -2 261 -2q58 0 124.5 -0.5t111 -1t48.5 -0.5q16 0 89 -4t93 -4l136 2h4q5 0 8.5 -1t4.5 -4t1.5 -5t0 -6t-0.5 -5q0 -2 1 -26t1 -39q0 -25 -27 -25q-6 0 -30 4 q-64 10 -131 7q-21 0 -229 -5.5t-248 -5.5q-306 0 -357 -6h-12q-10 0 -16 2t-8.5 7t-3 8.5t0 11t0.5 8.5q0 31 37 84q5 7 72 98.5t133 180.5t88 114q24 29 163 207.5t191 243.5q71 88 158 221l82 129h-123q-141 0 -180 2q-15 0 -178 3t-248 3q-89 0 -125 -4q-78 -7 -78 29z " />
<glyph unicode="{" horiz-adv-x="561" d="M41 625q0 6 3 23.5t3 37.5q0 27 2 36t12 9q28 0 62.5 37.5t34.5 110.5q0 38 -11 78t-25 74.5t-25 106.5t-11 167q0 54 23.5 102.5t61 81.5t83 57t89 35.5t79.5 11.5q11 0 18 -2.5t9 -8t3 -9.5t0 -13.5t-1 -13.5v-86q0 -19 -10.5 -27.5t-22.5 -10t-39 -1.5 q-125 -17 -125 -170q0 -43 13.5 -77.5t29.5 -56.5t29.5 -69t13.5 -112q0 -117 -66 -211q-27 -41 -65 -68q40 -19 65 -51q66 -78 66 -190q0 -63 -14.5 -151t-14.5 -173q0 -153 187 -149h3.5h2.5q13 0 16.5 -6t3.5 -21q0 -10 4 -42t4 -40q0 -16 -8.5 -25.5t-19.5 -9.5 q-1 0 -13.5 -2.5t-46.5 -5t-88 -2.5q-80 0 -150.5 87t-70.5 177q0 54 22.5 177.5t22.5 191.5q0 48 -13.5 85.5t-33 56t-36 27.5t-27.5 9q-18 0 -23.5 6t-5.5 19z" />
<glyph unicode="|" horiz-adv-x="421" d="M102 -324q0 7 3 26.5t4 31.5q22 210 24 442q2 68 2 203q0 107 -2 243.5t-2 143.5q0 17 -3 131.5t-3 165.5q0 32 2 60t2 59q0 41 -2 120.5t-2 92.5q-1 33 14.5 42t44.5 7h121q12 1 21 -3.5t13.5 -10.5t7.5 -19t3.5 -21.5l1.5 -25.5q3 -21 -4.5 -97t-7.5 -118 q0 -49 -12.5 -311t-12.5 -293q0 -32 -4 -241t-4 -238q0 -44 -4 -138l-4 -92v-106q0 -36 -5 -58.5t-13 -29.5t-18 -9.5t-19 0.5q-36 -2 -99 2q-25 3 -34 12t-9 29z" />
<glyph unicode="}" horiz-adv-x="526" d="M31 -127q0 6 3 31.5t3 38.5v10q0 12 3.5 17t16.5 5h6q173 -3 173 138q0 78 -14.5 159.5t-14.5 139.5q0 107 61 176q28 31 62 49q-123 96 -123 258q0 59 13 102t28 63.5t28 53.5t13 74q0 138 -115 155q-26 0 -37 1t-21 9t-10 25v103q0 11 5 15.5t22 4.5q34 0 74.5 -10.5 t83 -32.5t77 -52.5t56.5 -75t22 -95.5q0 -111 -17 -186t-33.5 -121.5t-16.5 -87.5q0 -65 32 -100t56 -35q12 0 12 -25q0 -21 4 -44t4 -28v-4q0 -7 -1 -11t-7.5 -7.5t-19.5 -3.5q-11 0 -26 -8t-33 -24.5t-30 -51t-12 -80.5q0 -64 19.5 -177t19.5 -163q0 -84 -63.5 -164 t-138.5 -80q-48 0 -80 1.5t-44.5 3t-13.5 1.5q-26 0 -26 33z" />
<glyph unicode="~" horiz-adv-x="1142" d="M115 688q0 81 4 103q4 11 20 14q10 3 29.5 -3.5t52.5 -18t62 -17.5q69 0 182 22q113 25 303 25q94 0 164 -12q33 -1 50.5 -9t20 -18.5t3.5 -22t0 -20.5v-43q0 -43 -60 -43q-22 0 -79 17.5t-89 17.5q-64 -4 -147 -18t-121 -17q-29 -2 -100 -11t-127 -9q-44 1 -77 5.5 t-51 10.5t-28 14.5t-12 16t0 16.5z" />
<glyph unicode="&#xa1;" horiz-adv-x="446" d="M80 1341q0 15 2 21q0 36 44 80.5t99 44.5q51 0 89 -46t38 -108q0 -37 -13.5 -63.5t-35.5 -40t-44.5 -19.5t-45.5 -6q-66 0 -99.5 44t-33.5 93zM109 35q0 13 4 45t4 53q0 49 -2 78q0 101 20 344q4 94 4 125q0 14 -1 38.5t-1 33.5q-3 33 -1.5 76.5t1.5 56.5q2 18 2 63 q0 27 -1 67.5t-1 47.5v6q0 23 10.5 29t36.5 4q8 0 23 -1t22 -1q8 0 24 1t23 1q15 0 22.5 -10.5t9.5 -21t3 -32.5q4 -24 4 -53q0 -35 -4 -121v-162q4 -187 11 -352q10 -233 8 -272q0 -39 2 -53v-2q0 -23 -43 -23q-41 2 -135 2q-45 5 -45 33z" />
<glyph unicode="&#xa2;" d="M63 756q3 261 144 387q125 113 295 125q3 79 0 98q0 7 -1 21t-1 20q0 23 6.5 35t25.5 12q5 0 31.5 -1t44.5 -1q21 0 21 -25q0 -5 -2 -20.5t-2 -24.5q-6 -37 -9 -114q183 -15 281 -113q21 -21 21 -47q0 -21 -15 -45l-63 -98q-34 -43 -64 -43q-21 0 -35 14q-71 71 -129 92 q-14 -350 -14 -442l2 -158q28 0 55 10q37 16 105 58q35 26 55 26q3 0 7 -1t6 -2t6.5 -4t6.5 -4t7.5 -5.5t7.5 -5.5q23 -15 35 -24t30 -29t33 -46q12 -34 -36 -88q-54 -60 -123 -94q-74 -33 -189 -47q0 -39 3 -76.5t3 -54.5q0 -12 -4.5 -20t-10.5 -12t-18.5 -6t-20.5 -2.5 t-25 -0.5h-5h-15q-28 0 -32.5 4.5t-3.5 32.5q2 28 2 49v92q-72 11 -128 30t-103.5 49.5t-80.5 74.5t-57 104.5t-35 140t-12 179.5zM330 705q0 -212 153 -265q4 278 4 344q0 23 1.5 63t3 92.5t2.5 92.5q-88 -34 -126 -109t-38 -218z" />
<glyph unicode="&#xa3;" d="M31 39q0 37 8 135q0 6 72 37q71 30 71 108q0 165 2 222v18q-21 0 -54 2t-38 2q-12 0 -19 0.5t-10 5t-4 5.5t-0.5 10.5t0.5 11.5q0 7 -3.5 36.5t-5 49.5t0.5 31q0 12 21 12q6 0 26 -4h88v61q0 414 160 588q46 48 96 76q50 29 140 47q60 0 112 -14t85 -33.5t63.5 -49.5 t45 -50.5t32 -50t22.5 -35.5q16 -21 16 -41t-38 -45q-8 -6 -68 -62t-78 -65q-7 -7 -14 -7t-13 6t-13 17.5t-11 15.5q-33 49 -63 65q-23 11 -46 11q-112 0 -112 -364l2 -64h223q18 0 18 -16q0 -3 -1 -9.5t-1 -9.5v-102q0 -17 -18 -17q-4 0 -14 1t-15 1q-4 0 -51 -3t-74 -3 l-63 -2v-41q0 -19 -2 -112.5t-2 -110.5q0 -1 -1 -15t-2.5 -25t-5 -27.5t-10.5 -33t-16 -30.5q-18 -24 -53 -39q197 -4 198 -4l146 -6l211 -2h4q6 0 9 -2.5t3.5 -5t0 -9.5t-0.5 -10q-1 -7 1.5 -33.5t2.5 -37.5q0 -7 -2 -11t-5 -6.5t-9 -3.5t-9.5 -1t-12.5 0.5t-13 0.5 q-12 0 -124 9t-146 9q-108 0 -236 -10l-96 -4l-78 -4h-221q-8 0 -8 37z" />
<glyph unicode="&#xa4;" d="M25 111q-4 2 1 18.5t20 40t34 39.5q26 33 106 127q-123 130 -139 369q0 161 119 290q-69 84 -86 103q-19 16 -34 39.5t-20 40t-1 18.5q10 5 32.5 11.5t32.5 6.5q19 0 84 -73q5 -6 24.5 -35.5t34.5 -50.5q111 80 228 80q58 0 87.5 -1t68.5 -7t65 -19q43 -22 84 -55 q80 95 84 106q17 24 26 31.5t29 13.5q11 8 29 8q25 0 45 -16q18 -8 18 -16q0 -5 -8 -21q-11 -3 -13 -4.5t-3.5 -3t-8 -10.5t-18.5 -21q-6 -8 -20 -25t-40 -49t-52 -65q58 -77 83 -163.5t25 -137.5q0 -28 -4 -60.5t-15 -82t-38 -101t-66 -92.5q28 -35 60.5 -74t46.5 -56.5 t20 -27.5q10 -10 17 -18t7.5 -10.5t3 -4.5t4 -2.5t11.5 -3.5q8 -16 8 -20q0 -8 -18 -16q-21 -17 -45 -17q-18 0 -29 8q-20 6 -29 13.5t-26 31.5q-3 6 -18 25t-43 53t-48 60q-103 -64 -260 -64q-129 0 -223 58l-14 -17q-20 -23 -44 -58t-26 -38q-66 -74 -84 -74q-27 0 -65 19 zM199 690q0 -43 6.5 -84t19.5 -80t35.5 -71t52 -57t71 -38.5t91.5 -13.5q60 0 109 18.5t81.5 50t54.5 74.5t32 90.5t10 100.5q0 86 -32.5 160t-95 120t-140.5 46h-8q-30 0 -45.5 -1t-36.5 -8t-37 -22q-17 -10 -34.5 -24t-43 -41t-44.5 -57.5t-32.5 -73.5t-13.5 -89z" />
<glyph unicode="&#xa5;" d="M47 719q0 8 2 29t2 36q0 28 7.5 39t23.5 11q1 0 31 -5h139l-27 82q-53 192 -108 371q-7 27 -22 62t-15 47q0 9 6.5 14.5t19 8.5t24 4t29.5 0.5t28 -1t26 -1.5q7 -1 10 -1q12 -2 17.5 -6t6.5 -9t1 -12v-16q2 -7 10 -35.5t18.5 -65.5t18.5 -69q23 -79 88 -268 q24 -60 80 -254q7 34 14 51q2 10 25 88q87 266 100 303q15 31 37 108.5t29 127.5q8 36 20 47.5t29 11.5h20q2 0 36 1t58 1q117 0 117 -24q0 -7 -4 -19q-2 -4 -28 -97.5t-46 -139.5q-6 -17 -31.5 -96.5t-43.5 -131.5l-29 -82l45 5q98 4 109 4q31 0 40.5 -8t10.5 -37 q0 -7 2 -35.5t2 -46.5q0 -19 -4 -47q-2 -33 -25 -33q-6 0 -23 2t-30 2h-193l-12.5 -37.5t-15 -43t-13.5 -36.5q-5 -19 -16 -49h240q4 0 10.5 1t9.5 1q15 0 24 -3t12.5 -10.5t4 -12t0.5 -17.5v-92q0 -21 -14 -28t-62 -7q-20 0 -100 3t-123 3q-23 2 -55 2q-37 -102 -41 -121 q-7 -21 -16.5 -83.5t-10.5 -65.5q-9 -44 -28 -41h-21q-7 0 -28 -1t-33 -1h-95q-15 0 -39.5 -1t-31.5 -1q-21 0 -21 12q0 3 1 6.5t2.5 8.5t2.5 8q1 4 11 32t21.5 63t17.5 60l14 43q5 44 24 82h-81q-110 0 -142 -8q-13 0 -19.5 5.5t-7.5 12t-1 17.5v84q0 27 8 38t33 11h243 q0 6 -4 18q-4 14 -13.5 52t-17.5 66t-16 46h-6q-140 -8 -199 -8q-6 -2 -14 -2q-28 0 -31 47q-4 20 -4 31z" />
<glyph unicode="&#xa6;" horiz-adv-x="430" d="M123 121v297q0 22 20 22q4 0 12 -1t11 -1h129q18 0 18 -20q0 -5 -1 -16t-1 -17q0 -5 4 -61t4 -86q0 -4 1.5 -57t1.5 -126q1 -53 2 -94t1.5 -59t0.5 -27q8 -24 8 -70q0 -29 -4 -75t-4 -54q0 -14 -1 -22.5t-6 -12t-7 -4.5t-11.5 0t-13.5 1q-11 0 -47.5 -3.5t-60.5 -5.5 t-38 0q-16 0 -16 25q0 5 4 29v155q0 12 -4 74q-2 31 -2 209zM129 1124v297q0 23 21 23q4 0 11.5 -1t10.5 -1h109q18 0 18 -21q0 -5 -1 -15.5t-1 -16.5q0 -5 4 -61.5t4 -86.5q0 -4 1 -56.5t1 -125.5q1 -53 2 -94t1.5 -59t0.5 -27q8 -24 8 -70q0 -29 -4 -75t-4 -54 q0 -14 -1 -22.5t-6 -12t-7 -4.5t-12 -0.5t-13 0.5q-17 0 -55 -5t-53 -5q-13 0 -17 2q-16 0 -16 24q0 5 4 29v156q0 9 -4 71q-2 31 -2 211z" />
<glyph unicode="&#xa7;" horiz-adv-x="915" d="M61 190q0 3 2 6l5 7.5t4 7.5q2 2 21 32.5t28 41.5q5 5 10 12t9 9.5t10 2.5q3 0 14 -9.5t38.5 -32.5t57.5 -46q54 -42 118.5 -71t102.5 -29q29 0 48 3t38 12.5t27.5 30.5t7.5 54q-10 32 -27 56t-42 41.5t-43 27.5t-50.5 23.5t-44.5 19.5q-151 77 -203 158.5t-61 232.5 q0 80 20.5 125t65.5 90q-23 41 -31 60q-20 53 -20 127q0 72 26.5 126t65 83.5t92 48t97 23.5t90.5 5q58 0 119.5 -25.5t89.5 -46t40 -32.5q11 -11 11 -16v-13l-15 -26q-14 -19 -34 -49h-5h-2t-2 0.5t-2 1.5l-3 3t-4.5 4t-7 6.5t-9.5 8.5q-20 20 -78.5 45t-97.5 25 q-16 -2 -45 -2.5t-44.5 -2t-35.5 -8t-33.5 -23t-22.5 -42.5q-2 -8 -2 -25q0 -31 10 -55t34.5 -43.5t45.5 -31.5t63 -33.5t68 -36.5q44 -25 73.5 -45t63 -50.5t53 -62.5t33 -78t13.5 -100q0 -82 -17.5 -133t-56.5 -90q43 -29 60.5 -74.5t19.5 -128.5q-9 -111 -35 -156 q-22 -43 -63 -84q-69 -69 -205 -69q-100 0 -174.5 25.5t-146.5 72.5q-37 25 -65.5 47.5t-43.5 36.5l-14 14q-9 9 -9 14zM287 807q0 -26 6 -47t13.5 -32.5t21.5 -29.5q25 -26 60 -45.5t118 -48.5q74 -23 141 -59l12 24q11 42 11 66q-7 109 -168 190q-13 7 -54 22t-67 27 q-20 8 -62 29q-32 -32 -32 -96z" />
<glyph unicode="&#xa8;" horiz-adv-x="931" d="M111 1593q0 43 32 78t78 35q53 0 94 -27t41 -77q0 -56 -42 -91.5t-85 -35.5q-45 0 -81.5 33t-36.5 85zM580 1593q0 127 151 127q39 0 63.5 -38.5t24.5 -88.5q0 -45 -33.5 -77.5t-95.5 -32.5q-60 0 -85 32.5t-25 77.5z" />
<glyph unicode="&#xa9;" horiz-adv-x="1531" d="M86 764q0 122 53.5 238.5t140.5 203t203 139t234 52.5q93 0 132 -1t101 -10.5t101 -29.5q92 -45 165.5 -117.5t114.5 -144t68.5 -149.5t36.5 -130.5t10 -89.5q0 -35 -4 -76.5t-21 -110.5t-45 -131.5t-81.5 -129.5t-124.5 -116t-181 -80.5t-244 -31.5q-402 0 -573 354 q-74 160 -86 361zM242 743q0 -91 16 -173.5t53 -160t92.5 -133.5t140 -90t189.5 -34q108 0 194.5 31t144.5 84t97 126.5t56.5 156t17.5 175.5q0 153 -58 280.5t-167.5 205t-249.5 77.5q-105 0 -142 -9q-47 -13 -85 -44q-3 -2 -25.5 -19t-33.5 -25.5t-37 -30.5t-41 -38.5 t-39 -44t-39 -52t-32.5 -58t-27.5 -67t-17 -74.5t-7 -83zM473 727q0 175 83.5 290.5t186.5 115.5q83 0 137 -36t68 -65q15 -15 15 -22t-15 -19q-54 -39 -76 -73q-2 -2 -7 -8t-7 -8.5t-6 -6t-7.5 -5t-6.5 -1.5q-11 0 -21 10q-3 3 -12.5 14t-13.5 14.5t-11.5 10t-15 8.5 t-16.5 2q-46 0 -85.5 -61t-39.5 -189q0 -64 16 -111.5t40.5 -69.5t44.5 -32t36 -10q12 0 25.5 6t22 11.5t20.5 15.5t14 12q8 12 12 13.5t18 -3.5q7 -7 48 -27t51 -28q4 -2 11 -4.5t9.5 -4t6.5 -4t4.5 -5.5t-0.5 -7t-5 -10q-7 -15 -20.5 -32.5t-40 -42.5t-71 -41.5 t-97.5 -16.5q-114 0 -204.5 123t-90.5 297z" />
<glyph unicode="&#xaa;" horiz-adv-x="630" d="M51 727q-11 0 0 18q1 2 5.5 12.5t9.5 26.5q3 14 21.5 78t23.5 88q9 52 31.5 120.5t31.5 109.5l39 135l27 82q14 56 20 65q9 21 21 -4q5 -9 6 -18q1 -3 23.5 -54t31.5 -69q24 -52 43 -109q15 -39 88 -194q58 -123 88 -174q15 -41 47 -92q6 -9 6 -15q0 -8 -18 -8h-74 q-7 0 -20 35q-5 8 -21 49.5t-20 54.5l-25 60q-8 20 -18 20q-9 0 -41 -4q-82 0 -111 -4h-86q-9 0 -14 -23q0 -5 -10.5 -43t-10.5 -51q-5 -24 -12 -43l-8 -31q-3 -18 -12 -18h-62zM213 1102q-5 -10 -4.5 -16.5t10.5 -6.5q105 0 121 6q4 0 10 1q10 0 12 2t-2 10q-1 2 -22 49 t-27 67q-5 12 -12.5 35t-13 36t-11.5 13q-2 0 -3 -2t-2 -6t-2 -8.5t-2 -10.5t-3 -11l-26 -91q-5 -19 -23 -67z" />
<glyph unicode="&#xab;" horiz-adv-x="1261" d="M55 692q3 45 88 191q91 151 101 180q35 83 45 129q6 36 24 54t43 18q13 0 49.5 2t57.5 2q129 0 172 -11q29 -6 29 -32q0 -22 -23 -60q-4 -7 -16.5 -32t-29 -54t-34.5 -53q-9 -12 -44.5 -65t-72.5 -95q-76 -98 -139 -180q34 -60 57 -90q11 -11 58 -72t94.5 -125t95.5 -128 t52 -70q22 -19 22 -35q0 -10 -22 -10q-3 0 -25 -1t-35 -1q-37 0 -78 -2h-69q-10 0 -18.5 11.5t-19 33.5t-18.5 34q-7 7 -17.5 33t-27.5 47q-26 35 -69 111q-11 21 -68.5 86.5t-87.5 95.5q-27 27 -74 88zM580 729q23 34 63 86q20 23 70 92t61 92q20 49 55 109q13 21 21 47.5 t16 34.5q5 10 13 33.5t15 35t17 11.5q31 0 70 -2h78q13 0 34.5 -1t24.5 -1q25 0 25 -13q0 -10 -19 -32q-11 -12 -121 -196t-129 -200q-47 -60 -77 -147q36 -67 92 -123q48 -68 93 -136.5t72 -113t31 -49.5q31 -46 31 -66q0 -32 -82 -32q-79 0 -100.5 10t-44.5 61 q-12 23 -35.5 59.5t-41.5 62t-50.5 70.5t-38.5 54l-90 135q-47 78 -53 119z" />
<glyph unicode="&#xac;" d="M59 655v103q0 26 9 37.5t34 11.5h785q26 2 41.5 0.5t21.5 -9t7 -13.5t1 -19v-111q0 -11 -3 -64.5t-3 -76.5q0 -39 3 -134t3 -140q2 -17 -29.5 -26.5t-97.5 -10.5q-47 -6 -77 -6q-64 0 -64 26q4 114 4 178q0 109 -6 226q-47 2 -158 2h-237q-164 0 -203 -8q-15 0 -22.5 5.5 t-8 10.5t-0.5 18z" />
<glyph unicode="&#xad;" d="M123 635q0 12 22 12q7 0 31 -4h148q40 0 113.5 3t156.5 3h287q9 0 14 -4t5.5 -7.5t-0.5 -12.5t-1 -11v-106q0 -16 -22 -16q-4 0 -15 1t-16 1q-4 0 -56.5 -3.5t-82.5 -3.5q-11 0 -28.5 -0.5t-57 -1.5t-91.5 -2q-51 0 -88.5 -0.5t-57 -1t-26.5 -0.5q-18 -4 -67 -4 q-28 0 -71.5 2t-51.5 2q-14 0 -22 1t-11.5 4.5t-4 5.5t0 10.5t0.5 11.5q0 9 -3.5 39t-5 49.5t0.5 32.5z" />
<glyph unicode="&#xae;" horiz-adv-x="1529" d="M86 721q0 35 4 76.5t21 110.5t44.5 131.5t81 129.5t124.5 116t181 80.5t244 31.5q403 0 574 -355q74 -160 86 -360q0 -122 -53.5 -238.5t-140.5 -203t-203 -139t-234 -52.5q-93 0 -132 1t-101 10.5t-101 29.5q-92 45 -165.5 117.5t-114.5 144t-68.5 149.5t-36.5 130.5 t-10 89.5zM256 715q0 -152 59 -278t171 -201.5t257 -75.5q107 0 145 9q47 12 85 44q37 24 63 42.5t76.5 66t83 96t58.5 123t26 155.5q0 88 -16.5 169t-54.5 157t-95 131.5t-143.5 89t-194.5 33.5q-109 0 -197 -30.5t-147.5 -82.5t-99.5 -124t-58 -153t-18 -171zM547 639 q0 45 2 55q8 27 8 170q0 140 -6 180q0 6 -1 14t-1 11q0 6 0.5 10.5t1.5 7.5t1.5 5.5t2.5 4t3 2t3.5 1t3.5 0.5h4h4q3 0 26 3t56.5 6t61.5 3q119 0 180 -62.5t61 -160.5q0 -118 -100 -207q14 -27 76 -137q63 -120 98 -170q15 -24 15 -31q0 -6 -21 -6l-123 -4q-5 0 -8.5 3 t-7 10.5t-7 15.5t-10 22t-12.5 27q-24 43 -76 145l-55 107l8 -138q2 -26 5 -67.5t4.5 -64.5t3.5 -27v-9q0 -16 -6 -20t-25 -2q-4 2 -17 2q-19 0 -65.5 -5t-56.5 -5q-13 0 -18.5 5.5t-5.5 16.5t1 27q0 5 -4 107.5t-4 154.5zM721 809q59 0 59 63q0 64 -35 64q-10 0 -20 -10 q-1 -2 -0.5 -12.5t1 -22t-0.5 -25.5q-4 -32 -4 -39v-18z" />
<glyph unicode="&#xaf;" horiz-adv-x="731" d="M61 1608v55q0 39 23 39h549q3 0 7.5 1t6.5 1q11 0 16 -5.5t6 -11.5t1 -18v-61q0 -15 -8.5 -21t-36.5 -6q-17 0 -81.5 3t-90.5 3h-271q-94 0 -104 -6q-17 0 -17 27z" />
<glyph unicode="&#xb0;" horiz-adv-x="731" d="M86 1200q0 15 2 32.5t9 45t18.5 53t33.5 52.5t51.5 47t74.5 32.5t100 12.5q93 0 152.5 -41.5t82.5 -102.5q31 -67 37 -145q0 -100 -81 -177t-179 -77h-20h-20.5h-18t-18.5 1t-16.5 2t-17 2.5t-14.5 3.5t-14 5q-45 24 -79 62.5t-51 77t-24.5 68t-7.5 46.5zM207 1202 q0 -75 46 -129.5t116 -54.5q50 0 71 16q19 12 30.5 20.5t32.5 29t32.5 49.5t11.5 63q0 79 -42.5 137t-125.5 58q-84 0 -128 -55t-44 -134z" />
<glyph unicode="&#xb1;" d="M43 915q0 30 14 45t31 15l32 1q31 1 54 1q39 0 53 -2q3 0 43.5 -2t65.5 -2q31 0 47 4q9 1 15.5 4.5t10 9.5t5.5 11.5t2.5 16.5t0.5 19t-0.5 22.5t-0.5 24.5v158q-4 33 -4 78q0 54 16 90q27 8 109 8q13 1 22.5 -1.5t15 -10.5t9 -14t5 -19.5t2 -18.5t0 -20t-0.5 -16 q0 -10 3 -55.5t3 -63.5q0 -20 1 -60t1 -59q0 -39 -2 -57v-18q0 -19 4 -29q0 -5 98 -8q117 8 230 8q21 0 34 -5.5t18 -16t6 -17.5t1 -18v-105q0 -45 -59 -45h-295q-27 -7 -27 -43q0 -92 5 -173.5t5 -119.5q0 -77 -45 -90q-5 0 -39 4t-61 4q-15 0 -25.5 5.5t-15.5 11t-7.5 18 t-2.5 17.5v18v305q0 39 -55 39q-24 0 -54 -6q-39 0 -107.5 -4t-101.5 -4q-28 0 -34.5 7.5t-6.5 33.5q-4 17 -8.5 52t-7.5 54q-2 6 -2 18zM80 47v103q0 26 10 37.5t35 11.5h752q36 3 53 -3t19.5 -13t2.5 -25v-111q0 -21 -17.5 -28t-72.5 -7h-74l-88 4q-62 4 -161 4h-215 q-172 0 -213 -8q-15 0 -22.5 6t-8 11t-0.5 18z" />
<glyph unicode="&#xb2;" horiz-adv-x="698" d="M84 750q0 4 0.5 9.5t1.5 18.5t2 31q84 106 166 188q7 7 40 41.5t49.5 53.5t42.5 55.5t44 73.5q12 30 12 57q0 39 -16 59q-8 15 -30.5 27t-47.5 12q-40 0 -121 -26q-15 -6 -32.5 -22t-30 -29t-17.5 -13q-2 0 -3.5 1t-2.5 1.5t-2.5 2l-2.5 2.5t-2 3t-2 3.5t-2.5 4.5l-2.5 5 l-16 18q-16 9 0 25q1 1 6.5 8.5t16.5 19t28 25.5q23 18 89.5 39t117.5 29q84 0 143 -43t59 -115q0 -15 -2 -30.5t-4.5 -26.5t-9 -26t-9.5 -22.5t-12.5 -22.5t-12 -19.5t-14.5 -21t-13 -18.5q-5 -8 -68 -79q-17 -24 -45.5 -53.5t-50 -48t-25.5 -19.5q-15 -15 -8 -15 q2 0 7.5 -0.5t16.5 -0.5t29 1h80q93 0 127 5q9 0 15.5 -0.5t10.5 -3t6.5 -3.5t3.5 -5.5t1 -6v-7v-7.5v-117q0 -19 -9.5 -24t-37.5 -5q-7 0 -50.5 -1t-70.5 -1q-43 0 -57 2h-248q-2 0 -8 -1t-9 -1q-20 0 -20 13z" />
<glyph unicode="&#xb3;" horiz-adv-x="759" d="M96 831q-7 18 -5.5 21t9.5 6q2 1 5.5 3t13.5 7.5t24 12.5q2 2 7 2q8 0 16 -17q6 -30 47 -84q25 -29 63 -41t105 -12q86 0 172 43q65 32 65 143q0 46 -43.5 77.5t-113.5 31.5q-25 -1 -73 -4.5t-83 -5.5t-53 -2q-19 0 -21 2q-9 -3 -12 6q-2 14 -2 33q0 4 3 6.5t11 7.5 t15 10q7 4 59 37t113 73t65 42q6 6 6 8q0 6 -55 6l-291 -4q-7 0 -11.5 2t-6.5 7.5t-2.5 7.5t0 11.5t0.5 10.5q0 4 1 38.5t1 57.5q0 37 -2 49q0 25 33 25q9 0 30 -2t31 -2q27 0 89 4t100 4q42 0 112 -1t74 -1q8 0 11.5 -5t4 -11.5t0.5 -22.5v-8v-178q-22 -11 -75 -42.5 t-64 -39.5q-6 -6 -43 -29l-29 -18q-18 -6 -18 -13q0 -4 4 -4h53q42 0 96 -8q10 0 26.5 -4t37.5 -15.5t39 -28t30.5 -45t12.5 -63.5q0 -43 -15 -81.5t-36 -61.5t-38 -36.5t-26 -16.5q-27 -14 -96.5 -30.5t-151.5 -16.5q-37 0 -70.5 13.5t-59 37t-41.5 42t-32 42.5z" />
<glyph unicode="&#xb4;" horiz-adv-x="487" d="M35 1565q0 4 4 20q3 9 41.5 26.5t60.5 24.5q12 7 45.5 17t79.5 30l45 17q44 14 72 14q32 4 41 4q23 0 32 -12.5t3 -44.5q-7 -23 -41 -43t-60 -27q-105 -35 -174 -67q-55 -19 -65 -19q-19 0 -43 15q-41 14 -41 45z" />
<glyph unicode="&#xb6;" horiz-adv-x="1241" d="M41 1065q0 183 67.5 275.5t165.5 97.5q80 6 170 6q116 0 154 -6q105 6 164 6q86 0 137 -2l201 -4h28q28 0 33.5 -8t5.5 -33v-41q0 -21 -10.5 -28t-46.5 -7q-14 0 -61 3t-70 3v-51q-8 -254 -8 -424q0 -51 8 -277t8 -282q3 -184 10 -227q0 -8 2 -25.5t2 -24.5 q0 -28 -20 -28q-18 0 -43.5 -1t-30.5 -1q-33 0 -33 55q0 6 1.5 19.5t1.5 19.5q3 21 -1 134.5t-9 251t-5 189.5v93q0 361 -8 530v51h-170v-94q0 -142 8 -517t8 -390q0 -49 2.5 -144.5t2.5 -109.5q0 -33 -8 -50.5t-35 -17.5q-13 0 -56.5 4t-58.5 2q-22 -10 -48.5 8t-19.5 48 q6 30 6 102v186q0 114 15 375l-88 8q-102 13 -131 13q-23 0 -50.5 7t-62 28t-62 54t-46.5 91.5t-19 132.5z" />
<glyph unicode="&#xb7;" horiz-adv-x="481" d="M92 733q0 139 148 139q155 0 155 -182q0 -50 -48 -85.5t-107 -35.5q-61 0 -104.5 42t-43.5 122z" />
<glyph unicode="&#xb8;" horiz-adv-x="600" d="M121 -289q0 26 16 101q0 8 6 8q4 0 10 -3.5t17.5 -11t22.5 -12.5q41 -12 77 -12q50 4 62 11q15 12 22 42q0 68 -49 68q-18 0 -40 -14.5t-27 -14.5q-38 0 -50.5 3t-13.5 13q0 16 1.5 25.5t6 24.5t6.5 24q5 33 31 100h105q-33 -43 -47 -65.5t-21 -46.5q22 11 38 14.5 t60 3.5q127 0 127 -143q-1 -30 -13.5 -55t-22 -33.5t-27.5 -22.5q-8 -9 -31 -22l-7 -3.5t-8 -3.5t-8.5 -3t-10 -3t-11.5 -2.5t-15 -2.5t-18 -1.5t-23 -1t-28 -0.5q-50 0 -93.5 11.5t-43.5 27.5z" />
<glyph unicode="&#xb9;" horiz-adv-x="483" d="M20 764v10q0 22 13 25q66 11 104 20h13q8 0 14.5 1t11.5 1.5t8.5 3.5t6 4.5t4.5 6.5t2.5 7t1 9t0.5 9.5v11.5v12q-2 10 -2 57q0 151 -4 188q0 9 -1.5 27t-1.5 27q0 8 1.5 25.5t1.5 25.5l6 100q-30 -6 -61.5 -13t-49 -11.5t-33 -7.5t-21.5 -2.5t-7 4.5q-2 4 -2 12 q-2 14 -2 31q0 19 6 26t28 15q90 3 224 63q20 4 26 4q29 0 29 -14q0 -27 -1 -66t-1 -57q-8 -66 -8 -166q0 -33 2 -72.5t2 -81.5q0 -137 10 -186q123 -6 123 -14q0 -6 2 -19.5t2 -19.5q0 -29 -31 -27q-29 0 -72 3.5t-63 4.5l-151 -6q-40 2 -111 -2q-16 0 -19 31z" />
<glyph unicode="&#xba;" horiz-adv-x="743" d="M86 1098q0 20 2 43.5t9 61.5t18.5 73t34.5 72.5t52.5 64.5t76 44.5t102.5 17.5q95 0 154 -56.5t88 -142.5q30 -86 36 -199q0 -137 -82 -243.5t-184 -106.5h-16h-16.5h-15.5t-16 0.5t-14 1.5t-14.5 2t-12.5 2.5t-13.5 3.5t-11.5 5t-11 6q-46 32 -81.5 85t-52 106 t-24.5 93.5t-8 65.5zM256 1100q0 -76 34 -131.5t87 -55.5q40 0 55 17q1 1 8 7.5t10 10t11 12t12 15.5t11 17.5t10.5 21t7.5 23t6 27t2 30.5q0 81 -31 138.5t-94 57.5q-64 0 -96.5 -55t-32.5 -135z" />
<glyph unicode="&#xbb;" horiz-adv-x="1261" d="M121 168q0 12 18 33q11 11 121 195t129 200q49 62 78 147q-36 67 -92 123q-30 43 -60 87.5t-52 78.5t-39.5 61.5t-29.5 46.5t-16 25q-31 46 -31 66q0 33 82 33q36 0 52.5 -1t33.5 -4t25.5 -11.5t16.5 -20.5t18 -35q15 -29 45.5 -74.5t67.5 -98t51 -73.5q48 -68 90 -137 q49 -73 55 -117q-33 -50 -66 -88q-55 -71 -75 -98q-39 -54 -54 -84q-20 -51 -57 -111q-12 -20 -19.5 -46t-15.5 -34q-5 -10 -13 -33.5t-15 -34.5t-17 -11h-71q-39 2 -76 2q-13 0 -35 1t-25 1q-24 0 -24 12zM580 1255q0 11 22 11q3 0 25 1t35 1h75q41 2 72 2q10 0 18.5 -12 t18.5 -34t18 -34q7 -7 17.5 -33.5t27.5 -48.5q30 -38 70 -109q11 -21 69 -89t85 -95q38 -38 75 -86q-3 -46 -90 -190q-84 -145 -100 -181q-36 -96 -43 -129q-6 -36 -24.5 -53.5t-43.5 -17.5q-12 0 -30.5 -1t-38.5 -2t-37 -1h-26h-31.5t-29 0.5t-32 1.5t-27 3t-26.5 5 q-29 6 -29 33q0 21 23 59q4 7 16 32.5t28 53.5t33 51q6 8 44 63.5t75 98.5q58 72 72 92l67 88q-34 60 -57 90q-15 15 -81.5 103.5t-141.5 189.5t-76 103q-22 25 -22 34z" />
<glyph unicode="&#xbc;" horiz-adv-x="1484" d="M137 764v10q0 22 13 25q66 11 104 20h12q8 0 14.5 1t11.5 1.5t8.5 3.5t6 4.5t4.5 6.5t2.5 7t1 9t0.5 9.5v11.5v12q-2 10 -2 57q0 151 -4 188q0 9 -1 27t-1 27q0 8 1 25.5t1 25.5l6 100q-30 -6 -61.5 -13t-49 -11.5t-33 -7.5t-21.5 -2.5t-7 4.5q-2 4 -2 12q-2 14 -2 31 q0 19 6.5 26t28.5 15q89 3 223 63q20 4 27 4q29 0 29 -14q0 -27 -1 -66t-1 -57q-9 -74 -9 -166q0 -33 2 -72.5t2 -81.5q0 -132 11 -186q123 -6 123 -14q0 -6 2 -19.5t2 -19.5q0 -29 -31 -27q-29 0 -72 3.5t-63 4.5l-152 -6q-40 2 -110 -2q-16 0 -19 31zM322 -33q4 9 36 64 q5 10 110 198.5t142 270.5q105 205 314 565q65 100 149 287q19 39 44.5 70.5t43.5 37.5q2 0 11 1t16 1q27 0 63 -16q6 -6 6 -19q0 -21 -14.5 -54t-28.5 -52q-28 -45 -98 -168t-102 -190q-13 -24 -77.5 -149.5t-115.5 -222t-73 -128.5q-14 -28 -75 -137.5t-113.5 -206.5 t-59.5 -117q-8 -23 -16.5 -36t-14 -18.5t-27.5 -21.5q-15 -6 -41 -6q-27 0 -63 8q-25 14 -16 39zM840 264q0 17 2 24.5t5.5 13t19 25.5t32.5 46q14 23 24.5 36t38 47t70.5 93q32 45 58.5 83.5t38 55.5t14.5 21q11 18 26 18h97q15 0 20.5 -4.5t5.5 -22.5l-4 -100 q-4 -101 -4 -264q0 -22 3.5 -28.5t10.5 -6.5q2 0 18 1t25 1q3 0 5 -2t3 -6.5t1.5 -8t1 -9.5t0.5 -9v-4q0 -8 -3.5 -19.5t-7.5 -11.5h-4q-3 0 -14.5 -1t-19.5 -1q-19 0 -19 -30q-2 8 -2 14q0 -2 -0.5 -12t-1 -26t-0.5 -34q0 -21 -0.5 -45.5t-1.5 -40.5v-16v-10q0 -17 -16 -21 h-76q-7 0 -8.5 5.5t-1.5 31.5v47q0 19 1 33t1 16q0 3 1 17t1 43q0 17 -5.5 22.5t-17.5 5.5q-1 0 -42 -3t-64 -3q-9 0 -22.5 1t-22.5 1q-45 0 -68 -2l-76 -2q-22 0 -22 41zM915 299q0 -8 5 -8q2 0 8.5 2t15.5 2q6 0 24 -1t27 -1q3 0 17.5 1t38.5 2t49 1h53q19 0 22 23t5 135 v51l2 123q0 7 2 18.5t2 18.5l-2 2v2q-15 -20 -56 -88l-67 -93q-44 -68 -82 -106q-13 -22 -26 -37t-20.5 -20t-12.5 -11.5t-5 -15.5z" />
<glyph unicode="&#xbd;" horiz-adv-x="1484" d="M86 764v10q0 22 12 25q70 12 105 20h12q8 0 14.5 1t11.5 1.5t8.5 3.5t6 4.5t4.5 6.5t2.5 7t1 9t0.5 9.5v11.5v12q-2 10 -2 57q0 151 -4 188q0 9 -1 27t-1 27q0 8 1 25.5t1 25.5l6 100q-30 -6 -61.5 -13t-49 -11.5t-33 -7.5t-21.5 -2.5t-7 4.5q-2 4 -2 12q-2 14 -2 31 q0 19 6.5 26t28.5 15q89 3 223 63q20 4 27 4q28 0 28 -14q0 -27 -1 -66t-1 -57q-8 -66 -8 -166q0 -33 2 -72.5t2 -81.5q0 -132 11 -186q122 -6 122 -14q0 -6 2 -19.5t2 -19.5q0 -29 -30 -27q-29 0 -72 3.5t-63 4.5l-152 -6q-40 2 -111 -2q-15 0 -18 31zM250 -33 q6 14 11 22.5t12 19.5l14 22q5 10 110 198.5t142 270.5q45 88 156 286.5t157 278.5q65 100 149 287q19 39 45 70.5t44 37.5q2 0 10.5 1t15.5 1q28 0 64 -16q6 -6 6 -19q0 -21 -14.5 -54t-28.5 -52q-30 -47 -99.5 -169t-101.5 -189q-13 -24 -77.5 -149.5t-115.5 -222 t-73 -128.5q-14 -28 -75 -137.5t-113.5 -206.5t-59.5 -117q-8 -23 -16 -36t-14 -18.5t-27 -21.5q-15 -6 -41 -6q-28 0 -64 8q-25 14 -16 39zM893 14q0 4 0.5 9.5t1.5 19t2 31.5q84 106 166 188q8 9 40 42t49.5 52t43 55.5t43.5 73.5q12 30 12 58q0 39 -16 59q-8 15 -30.5 27 t-47.5 12q-37 0 -121 -27q-15 -6 -32.5 -22t-30 -28.5t-17.5 -12.5q-2 0 -3.5 1t-3.5 2t-2.5 2t-2.5 3.5t-2.5 3.5t-2.5 4.5t-3 5.5l-16 19q-15 9 0 24q1 1 6.5 9t16.5 19.5t28 25.5q23 18 89.5 38.5t117.5 28.5q85 0 143.5 -42.5t58.5 -114.5q0 -15 -2 -30.5t-4.5 -26.5 t-9 -26t-9.5 -22.5t-12.5 -22.5t-12 -19.5t-14.5 -21t-13 -18.5q-7 -11 -68 -80q-17 -24 -45.5 -53t-49.5 -47.5t-26 -19.5q-15 -15 -8 -15h53h80q100 0 127 4q9 0 15.5 -0.5t10.5 -2.5t6.5 -3.5t3.5 -5.5t1 -5.5v-7v-7.5v-117q0 -19 -9.5 -24t-37.5 -5q-7 0 -50.5 -1 t-70.5 -1q-43 0 -57 2h-248q-2 0 -8 -1t-9 -1q-20 0 -20 12z" />
<glyph unicode="&#xbe;" horiz-adv-x="1484" d="M53 831q-7 18 -5.5 21t9.5 6q2 1 5.5 3t13.5 7.5t24 12.5q2 2 6 2q8 0 17 -17q6 -30 47 -84q25 -29 63 -41t105 -12q86 0 172 43q65 32 65 143q0 46 -43.5 77.5t-113.5 31.5q-25 -1 -73 -4.5t-83 -5.5t-53 -2q-19 0 -21 2q-9 -3 -12 6q-2 14 -2 33q0 4 3 6.5t11 7.5 t15 10q7 4 59 37t113 73t65 42q6 6 6 8q0 6 -55 6l-291 -4q-7 0 -11.5 2t-6.5 7.5t-2.5 7.5t0 11.5t0.5 10.5q0 4 1 38.5t1 57.5q0 37 -2 49q0 25 33 25q9 0 30 -2t31 -2q27 0 88.5 4t99.5 4q42 0 113 -1t74 -1q8 0 11.5 -5t4 -11.5t0.5 -22.5v-8v-178q-22 -11 -75 -42.5 t-64 -39.5q-6 -6 -43 -29l-29 -18q-18 -6 -18 -13q0 -4 4 -4h53q42 0 96 -8q10 0 26.5 -4t37.5 -15.5t39 -28t30.5 -45t12.5 -63.5q0 -43 -15 -81.5t-36 -61.5t-38 -36.5t-26 -16.5q-27 -14 -96.5 -30.5t-151.5 -16.5q-37 0 -70.5 13.5t-59 37t-41.5 42t-32 42.5zM362 -33 q6 14 11 22.5t12 19.5l14 22q5 10 110 198.5t142 270.5q105 205 314 565q65 100 149 287q19 39 44.5 70.5t43.5 37.5q2 0 11 1t16 1q27 0 63 -16q6 -6 6 -19q0 -21 -14.5 -54t-28.5 -52q-28 -45 -98 -168t-102 -190q-11 -20 -77 -148.5t-117 -224t-73 -127.5 q-14 -27 -74.5 -137t-113 -207t-59.5 -117q-8 -23 -16.5 -36t-14 -18.5t-27.5 -21.5q-15 -6 -41 -6q-27 0 -63 8q-26 15 -17 39zM932 264q0 17 2 24.5t5.5 13t19 25.5t32.5 46q14 23 24.5 36t38 47t70.5 93q32 45 58.5 83.5t38 55.5t14.5 21q11 18 27 18h96q15 0 20.5 -4.5 t5.5 -22.5l-4 -100q-4 -101 -4 -264q0 -22 4 -28.5t11 -6.5q2 0 18 1t25 1q5 0 6.5 -4.5t2.5 -16.5t1 -14v-4q0 -8 -3 -19.5t-7 -11.5h-4q-3 0 -15 -1t-20 -1q-19 0 -19 -30q-2 8 -2 14q0 -2 -0.5 -12t-1 -26t-0.5 -34q0 -21 -0.5 -45.5t-1.5 -40.5v-16v-10q0 -17 -16 -21 h-76q-7 0 -8.5 5.5t-1.5 31.5v47q0 19 1 33t1 16q0 3 1 17t1 43q0 17 -5.5 22.5t-17.5 5.5q-1 0 -42 -3t-64 -3q-9 0 -22.5 1t-22.5 1q-45 0 -68 -2l-76 -2q-22 0 -22 41zM1008 299q0 -8 4 -8q2 0 8.5 2t15.5 2q6 0 24 -1t27 -1q3 0 17.5 1t38.5 2t49 1h53q19 0 22 23t5 135 v51l2 123q0 7 2 18.5t2 18.5l-2 2v2q-14 -20 -55 -88l-68 -93q-44 -68 -82 -106q-13 -22 -26 -37t-20.5 -20t-12 -11.5t-4.5 -15.5z" />
<glyph unicode="&#xbf;" horiz-adv-x="749" d="M41 373q0 71 35.5 149t71.5 125t75 86q82 79 82 221q0 79 18 119.5t72 40.5q26 0 51 -15t25 -32q6 -24 6 -57q0 -21 -3 -75t-3 -85q0 -39 -28.5 -94.5t-63.5 -101t-72.5 -95.5t-48.5 -74q-53 -80 -53 -159q0 -65 39 -138q52 -55 118 -55q36 0 89 17q46 21 139 110 q8 8 20 8q21 0 70 -43q4 -4 10.5 -11.5t15 -20.5t9.5 -21.5t-6 -13.5q-131 -145 -265 -172q-60 -17 -135 -17q-108 0 -188 111.5t-80 292.5zM262 1335q0 15 2 21q0 36 44.5 80.5t99.5 44.5q51 0 89 -46t38 -108q0 -69 -43 -99t-97 -30q-66 0 -99.5 44t-33.5 93z" />
<glyph unicode="&#xc0;" horiz-adv-x="1036" d="M45 27q0 16 10 39l19 75q2 7 8 26t11.5 38.5t8.5 36.5q10 53 52.5 188.5t52.5 196.5q7 33 27.5 102.5t25.5 91.5q4 22 14 59t23 85.5t18 66.5q38 123 47 144q2 6 17.5 49.5t29 85t17.5 65.5q14 50 29.5 74.5t42.5 24.5q4 0 7.5 -2.5t7.5 -8t7 -11.5t7.5 -16.5t7.5 -19 t8.5 -22.5t9.5 -23q10 -23 26 -77t31 -110.5t17 -64.5q3 -21 53 -160.5t53 -152.5q5 -13 29 -79t48 -129t34 -85q4 -11 17.5 -51.5l25 -75t23.5 -74t18 -61.5q6 -23 18.5 -59.5t24.5 -66.5t24.5 -60.5t14.5 -36.5q6 -15 6 -21q0 -8 -23 -8h-114q-16 0 -23 18q-9 25 -22 74 q-14 38 -29.5 111.5t-38.5 120.5q-20 45 -33 88l-18 59q-10 23 -15.5 28t-17.5 5q-24 0 -81 -3t-71 -3q-16 -2 -151 -2h-129q-14 0 -23 -43l-8 -39q-5 -17 -24.5 -109t-22.5 -100q-5 -43 -18 -68q-3 -4 -21 -65q-5 -13 -14 -54q-6 -16 -11 -17q-4 -1 -12 -1h-41 q-19 0 -10 27zM240 1669q0 28 39 45q31 17 45 17q8 0 17 -2t23.5 -7.5t22.5 -7.5q57 -25 90.5 -36.5t85.5 -22.5q4 -2 23.5 -9t30 -12.5t25 -16t21.5 -24.5t7 -32q0 -25 -21.5 -30.5t-56.5 1.5q-23 -3 -72 8l-45 16q-46 21 -81 29t-46 14q-25 6 -61.5 21.5t-40.5 26.5 q-6 12 -6 22zM270 651q0 -6 3 -10.5t7.5 -6.5t12 -3t12.5 -1t12.5 0.5t10.5 0.5q9 0 56.5 2t61.5 2q24 4 70 4q23 0 62.5 -1t48.5 -1q26 0 26 14q0 10 -14 45q-8 19 -35.5 110.5t-38.5 121.5q-16 49 -41.5 139t-29.5 115q-29 108 -41 108q-2 0 -5 -5.5t-6 -16.5t-6.5 -22 t-8 -27.5t-7.5 -28.5q-7 -33 -36.5 -137t-41.5 -142q-8 -38 -32 -125.5t-36 -119.5q-4 -12 -4 -15z" />
<glyph unicode="&#xc1;" horiz-adv-x="1036" d="M45 27q0 16 10 39l19 75q2 7 8 26t11.5 38.5t8.5 36.5q10 53 52.5 188.5t52.5 196.5q7 33 27.5 102.5t25.5 91.5q4 22 14 59t23 85.5t18 66.5q38 123 47 144q2 6 17.5 49.5t29 85t17.5 65.5q14 50 29.5 74.5t42.5 24.5q4 0 7.5 -2.5t7.5 -8t7 -11.5t7.5 -16.5t7.5 -19 t8.5 -22.5t9.5 -23q10 -23 26 -77t31 -110.5t17 -64.5q3 -21 53 -160.5t53 -152.5q5 -13 29 -79t48 -129t34 -85q4 -11 17.5 -51.5l25 -75t23.5 -74t18 -61.5q6 -23 18.5 -59.5t24.5 -66.5t24.5 -60.5t14.5 -36.5q6 -15 6 -21q0 -8 -23 -8h-114q-16 0 -23 18q-9 25 -22 74 q-14 38 -29.5 111.5t-38.5 120.5q-20 45 -33 88l-18 59q-10 23 -15.5 28t-17.5 5q-24 0 -81 -3t-71 -3q-16 -2 -151 -2h-129q-14 0 -23 -43l-8 -39q-5 -17 -24.5 -109t-22.5 -100q-5 -43 -18 -68q-3 -4 -21 -65q-5 -13 -14 -54q-6 -16 -11 -17q-4 -1 -12 -1h-41 q-19 0 -10 27zM270 651q0 -6 3 -10.5t7.5 -6.5t12 -3t12.5 -1t12.5 0.5t10.5 0.5q9 0 56.5 2t61.5 2q24 4 70 4q23 0 62.5 -1t48.5 -1q26 0 26 14q0 10 -14 45q-8 19 -35.5 110.5t-38.5 121.5q-16 49 -41.5 139t-29.5 115q-29 108 -41 108q-2 0 -5 -5.5t-6 -16.5t-6.5 -22 t-8 -27.5t-7.5 -28.5q-7 -33 -36.5 -137t-41.5 -142q-8 -38 -32 -125.5t-36 -119.5q-4 -12 -4 -15zM336 1554q0 5 4 21q3 9 41.5 26.5t60.5 24.5q12 6 25 10t38.5 12.5t61.5 24.5l45 17q44 14 72 14q32 4 41 4q15 0 23.5 -5t12.5 -17.5t-1 -34.5q-7 -23 -41 -43t-60 -27 q-98 -32 -174 -68q-52 -18 -65 -18q-21 0 -43 14q-41 14 -41 45z" />
<glyph unicode="&#xc2;" horiz-adv-x="1036" d="M45 27q0 16 10 39l19 75q2 7 8 26t11.5 38.5t8.5 36.5q10 53 52.5 188.5t52.5 196.5q7 33 27.5 102.5t25.5 91.5q4 22 14 59t23 85.5t18 66.5q38 123 47 144q2 6 17.5 49.5t29 85t17.5 65.5q14 50 29.5 74.5t42.5 24.5q4 0 7.5 -2.5t7.5 -8t7 -11.5t7.5 -16.5t7.5 -19 t8.5 -22.5t9.5 -23q10 -23 26 -77t31 -110.5t17 -64.5q3 -21 53 -160.5t53 -152.5q5 -13 29 -79t48 -129t34 -85q4 -11 17.5 -51.5l25 -75t23.5 -74t18 -61.5q6 -23 18.5 -59.5t24.5 -66.5t24.5 -60.5t14.5 -36.5q6 -15 6 -21q0 -8 -23 -8h-114q-16 0 -23 18q-9 25 -22 74 q-14 38 -29.5 111.5t-38.5 120.5q-20 45 -33 88l-18 59q-10 23 -15.5 28t-17.5 5q-24 0 -81 -3t-71 -3q-16 -2 -151 -2h-129q-14 0 -23 -43l-8 -39q-5 -17 -24.5 -109t-22.5 -100q-5 -43 -18 -68q-3 -4 -21 -65q-5 -13 -14 -54q-6 -16 -11 -17q-4 -1 -12 -1h-41 q-19 0 -10 27zM168 1534q0 17 14 25l56 34q3 1 15 6.5t19.5 9.5t25 16t38.5 28q81 46 106 53q19 8 37 8q8 2 23 2q11 0 21 -2.5t15.5 -5t19.5 -10.5t22 -12q25 -18 137 -89q1 -1 9 -5.5t13 -8t13.5 -9.5t14 -11t11 -11t7.5 -12t1 -12q-8 -31 -32 -31q-16 0 -56 14l-55 15 q-29 11 -72 37l-65 30l-94 -43q-43 -22 -117 -43q-41 -6 -78 -6q-23 0 -36 10t-13 23zM270 651q0 -6 3 -10.5t7.5 -6.5t12 -3t12.5 -1t12.5 0.5t10.5 0.5q9 0 56.5 2t61.5 2q24 4 70 4q23 0 62.5 -1t48.5 -1q26 0 26 14q0 10 -14 45q-8 19 -35.5 110.5t-38.5 121.5 q-16 49 -41.5 139t-29.5 115q-29 108 -41 108q-2 0 -5 -5.5t-6 -16.5t-6.5 -22t-8 -27.5t-7.5 -28.5q-7 -33 -36.5 -137t-41.5 -142q-8 -38 -32 -125.5t-36 -119.5q-4 -12 -4 -15z" />
<glyph unicode="&#xc3;" horiz-adv-x="1036" d="M45 27q0 16 10 39l19 75q2 7 8 26t11.5 38.5t8.5 36.5q10 53 52.5 188.5t52.5 196.5q7 33 27.5 102.5t25.5 91.5q4 22 14 59t23 85.5t18 66.5q38 123 47 144q2 6 17.5 49.5t29 85t17.5 65.5q14 50 29.5 74.5t42.5 24.5q4 0 7.5 -2.5t7.5 -8t7 -11.5t7.5 -16.5t7.5 -19 t8.5 -22.5t9.5 -23q10 -23 26 -77t31 -110.5t17 -64.5q3 -21 53 -160.5t53 -152.5q5 -13 29 -79t48 -129t34 -85q4 -11 17.5 -51.5l25 -75t23.5 -74t18 -61.5q6 -23 18.5 -59.5t24.5 -66.5t24.5 -60.5t14.5 -36.5q6 -15 6 -21q0 -8 -23 -8h-114q-16 0 -23 18q-9 25 -22 74 q-14 38 -29.5 111.5t-38.5 120.5q-20 45 -33 88l-18 59q-10 23 -15.5 28t-17.5 5q-24 0 -81 -3t-71 -3q-16 -2 -151 -2h-129q-14 0 -23 -43l-8 -39q-5 -17 -24.5 -109t-22.5 -100q-5 -43 -18 -68q-3 -4 -21 -65q-5 -13 -14 -54q-6 -16 -11 -17q-4 -1 -12 -1h-41 q-19 0 -10 27zM121 1612v26v9v11t0.5 10.5t1.5 10.5t3 8.5t5.5 6.5t7.5 2q7 0 22 -4.5t41.5 -12t53.5 -12.5q20 0 40.5 2t31.5 3.5t38 6.5t37 7q91 16 244 16q79 0 131 -8q27 -1 41.5 -7.5t16 -14t2.5 -16t0 -14.5v-30q0 -33 -47 -33q-18 0 -64 12.5t-72 12.5 q-56 -1 -125 -11t-90 -12q-26 -2 -59 -6.5t-61.5 -7t-63.5 -2.5q-135 0 -135 47zM270 651q0 -6 3 -10.5t7.5 -6.5t12 -3t12.5 -1t12.5 0.5t10.5 0.5q9 0 56.5 2t61.5 2q24 4 70 4q23 0 62.5 -1t48.5 -1q26 0 26 14q0 10 -14 45q-8 19 -35.5 110.5t-38.5 121.5 q-16 49 -41.5 139t-29.5 115q-29 108 -41 108q-2 0 -5 -5.5t-6 -16.5t-6.5 -22t-8 -27.5t-7.5 -28.5q-7 -33 -36.5 -137t-41.5 -142q-8 -38 -32 -125.5t-36 -119.5q-4 -12 -4 -15z" />
<glyph unicode="&#xc4;" horiz-adv-x="1036" d="M45 27q0 16 10 39l19 75q2 7 8 26t11.5 38.5t8.5 36.5q10 53 52.5 188.5t52.5 196.5q7 33 27.5 102.5t25.5 91.5q4 22 14 59t23 85.5t18 66.5q38 123 47 144q2 6 17.5 49.5t29 85t17.5 65.5q14 50 29.5 74.5t42.5 24.5q4 0 7.5 -2.5t7.5 -8t7 -11.5t7.5 -16.5t7.5 -19 t8.5 -22.5t9.5 -23q10 -23 26 -77t31 -110.5t17 -64.5q3 -21 53 -160.5t53 -152.5q5 -13 29 -79t48 -129t34 -85q4 -11 17.5 -51.5l25 -75t23.5 -74t18 -61.5q6 -23 18.5 -59.5t24.5 -66.5t24.5 -60.5t14.5 -36.5q6 -15 6 -21q0 -8 -23 -8h-114q-16 0 -23 18q-9 25 -22 74 q-14 38 -29.5 111.5t-38.5 120.5q-20 45 -33 88l-18 59q-10 23 -15.5 28t-17.5 5q-24 0 -81 -3t-71 -3q-16 -2 -151 -2h-129q-14 0 -23 -43l-8 -39q-5 -17 -24.5 -109t-22.5 -100q-5 -43 -18 -68q-3 -4 -21 -65q-5 -13 -14 -54q-6 -16 -11 -17q-4 -1 -12 -1h-41 q-19 0 -10 27zM158 1593q0 43 32 78t78 35q53 0 94 -27t41 -77q0 -38 -22 -68.5t-50.5 -44.5t-54.5 -14q-28 0 -55 13.5t-45 41.5t-18 63zM270 651q0 -6 3 -10.5t7.5 -6.5t12 -3t12.5 -1t12.5 0.5t10.5 0.5q9 0 56.5 2t61.5 2q24 4 70 4q23 0 62.5 -1t48.5 -1q26 0 26 14 q0 10 -14 45q-8 19 -35.5 110.5t-38.5 121.5q-16 49 -41.5 139t-29.5 115q-29 108 -41 108q-2 0 -5 -5.5t-6 -16.5t-6.5 -22t-8 -27.5t-7.5 -28.5q-7 -33 -36.5 -137t-41.5 -142q-8 -38 -32 -125.5t-36 -119.5q-4 -12 -4 -15zM627 1593q0 32 10.5 56.5t26.5 37.5t37.5 21 t39 10t37.5 2q39 0 63.5 -38.5t24.5 -88.5q0 -45 -33.5 -77.5t-95.5 -32.5q-31 0 -54 10t-34.5 27t-16.5 35t-5 38z" />
<glyph unicode="&#xc5;" horiz-adv-x="1036" d="M45 27q0 16 10 39l19 75q2 7 8 26t11.5 38.5t8.5 36.5q10 53 52.5 188.5t52.5 196.5q7 33 27.5 102.5t25.5 91.5q4 22 14 59t23 85.5t18 66.5q38 123 47 144q2 6 17.5 49.5t29 85t17.5 65.5q7 31 23 62q-38 18 -63.5 52.5t-25.5 74.5q2 34 21 77q13 34 45 56t82 22 q30 0 55 -7t41 -17.5t28.5 -25t19 -28t10.5 -28.5t5 -24t1 -17q0 -9 -4 -25t-13 -37t-28 -42t-43 -33q-16 -7 -48 -11l21 -53q10 -23 26 -77t31 -110.5t17 -64.5q3 -21 53 -160.5t53 -152.5q5 -13 29 -79t48 -129t34 -85q4 -11 17.5 -51.5l25 -75t23.5 -74t18 -61.5 q6 -23 18.5 -59.5t24.5 -66.5t24.5 -60.5t14.5 -36.5q6 -15 6 -21q0 -8 -23 -8h-114q-16 0 -23 18q-9 25 -22 74q-14 38 -29.5 111.5t-38.5 120.5q-20 45 -33 88l-18 59q-10 23 -15.5 28t-17.5 5q-24 0 -81 -3t-71 -3q-16 -2 -151 -2h-129q-14 0 -23 -43l-8 -39 q-5 -17 -24.5 -109t-22.5 -100q-5 -43 -18 -68q-3 -4 -21 -65q-5 -13 -14 -54q-6 -16 -11 -17q-4 -1 -12 -1h-41q-19 0 -10 27zM270 651q0 -6 3 -10.5t7.5 -6.5t12 -3t12.5 -1t12.5 0.5t10.5 0.5q9 0 56.5 2t61.5 2q24 4 70 4q23 0 62.5 -1t48.5 -1q26 0 26 14q0 4 -2 10.5 t-6 16.5t-6 18q-8 19 -35.5 110.5t-38.5 121.5q-16 49 -41.5 139t-29.5 115q-29 108 -41 108q-2 0 -5 -5.5t-6 -16.5t-6.5 -22t-8 -27.5t-7.5 -28.5q-7 -33 -36.5 -137t-41.5 -142q-8 -38 -32 -125.5t-36 -119.5q-4 -12 -4 -15zM461 1573q0 -19 15.5 -32t35.5 -13q6 0 14 1 l9 1q1 1 11 6t16.5 14t6.5 23q0 17 -14 31t-37 14q-19 0 -32 -6.5t-19 -16.5t-6 -22z" />
<glyph unicode="&#xc6;" horiz-adv-x="1814" d="M45 8q0 3 8 19q0 2 4 10l15 29q4 13 16 39t16 36q3 6 22.5 42t27.5 59q10 33 67 149q81 153 113 236q7 15 94 194l98 211q72 138 76 144q1 3 19.5 35t29.5 55q34 64 56 110q23 49 44 74t48 25q14 0 20 -31q0 -8 2 -12l41 -5q23 -2 105 -2q46 0 73 2l82 7q92 10 150 10 q48 0 131.5 -4t97.5 -4q37 0 51 -2q22 0 25 -56q0 -26 2 -70t2 -67q0 -67 -2 -94q2 -15 -2.5 -23t-14 -8.5t-18 1t-20.5 5t-15 4.5q-38 7 -180 7q-25 0 -77 2t-78 2q-20 0 -57.5 -2t-59.5 -2h-156q-18 0 -18 -15q0 -2 4 -26q0 -5 16 -197l15 -121q1 -15 10 -65q16 -2 55 -2 q18 -2 64 -2h79q41 0 118.5 4t98.5 4q28 0 60.5 -3t40.5 -3q3 0 10 1t10 1q29 0 29 -50v-41q-4 -36 -4 -43q0 -9 2 -28.5t2 -36.5v-12q0 -12 -4.5 -16.5t-10.5 -3.5l-18 3t-20 2q-4 0 -66 2t-139 2q-58 0 -112.5 -4t-87.5 -8t-40 -4q-22 0 -26 2q-11 0 -13 2l25 -205 q15 0 23 2q6 0 25 1t32 1q18 0 102.5 1t136.5 1q32 0 125 -2t136 -2q57 0 75 2q40 1 54.5 -12t19.5 -43v-172q4 -11 0.5 -18.5t-3 -12.5t-6.5 -8t-10 -4.5t-13 -2t-16.5 -0.5t-20 0.5t-23.5 0.5q-30 0 -171 2t-192 2q-53 0 -88 -2l-288 -4q-17 0 -19 18q-4 26 -8 74 q-3 18 -6 51t-8 72q-1 25 -15 123l-12 133q-6 23 -10.5 28t-16.5 5q-23 0 -80 -3t-71 -3q-10 -2 -60 -2h-223q-10 0 -22 -23q-5 -12 -25 -59q-7 -14 -46 -107t-44 -102q-17 -46 -31 -68q-4 -4 -8.5 -13.5t-11.5 -25.5t-12 -26l-25 -54q-6 -12 -10 -15t-17 -3h-41 q-12 0 -12 8zM403 647q0 -7 3.5 -10.5t10.5 -5t13 -1.5t15 0.5t12 0.5h22q18 0 53 2t43 2q8 2 35 2h148q28 0 28 18q0 4 -2.5 18t-3.5 23q0 1 -3 41t-7 66l-8 67q0 5 -8 58q-19 200 -19 254q-2 12 -5 42.5t-6 48t-7 17.5q-2 0 -6 -5.5t-9.5 -16.5l-11 -22t-13.5 -28t-13 -28 l-29 -55q-99 -208 -107 -224q-1 -2 -31.5 -68.5t-52.5 -112t-34 -64.5q-7 -14 -7 -19z" />
<glyph unicode="&#xc7;" horiz-adv-x="1042" d="M76 766q0 118 42.5 250.5t110.5 226.5t154 146.5t172 52.5q64 0 122.5 -15.5t96.5 -36.5t71.5 -48.5t48 -44t24.5 -31.5q22 -29 22 -43t-22 -33q-96 -77 -136 -129q-42 -53 -63 -53q-16 0 -33 20q-3 3 -14 15.5t-14.5 16.5t-13.5 14t-15 13.5t-14.5 10.5t-16.5 9 t-16.5 4.5t-18.5 2.5q-70 0 -122 -65t-75.5 -153.5t-23.5 -180.5q0 -83 19.5 -152t48.5 -111t63 -70.5t63 -38.5t48 -7q63 0 143 80q3 3 7.5 8t6.5 7t5.5 4.5t6 3.5t5.5 1q11 0 24 -8l174 -96q5 -2 17 -7.5t17 -7.5t12 -6.5t9.5 -9t2.5 -10.5q0 -11 -6 -23 q-12 -21 -25.5 -40.5t-51 -58t-79.5 -66t-109.5 -49t-142.5 -21.5q-29 0 -41 2q-37 -49 -47 -84q22 11 38 14.5t60 3.5q127 0 127 -143q-1 -30 -13.5 -55t-22 -33.5t-27.5 -22.5q-9 -8 -31 -22l-7 -3.5t-8 -3.5t-8.5 -3t-10 -3t-11.5 -2.5t-15 -2.5t-18 -1.5t-23 -1 t-28 -0.5q-50 0 -93.5 11.5t-43.5 27.5q0 26 16 101q0 8 6 8q4 0 10 -3.5t17.5 -11t22.5 -12.5q41 -12 77 -12q50 4 62 11q15 12 22 42q0 68 -49 68q-18 0 -40 -14.5t-27 -14.5q-37 0 -50 3.5t-14 13.5q0 16 1.5 25.5t6 23.5t6.5 24q4 24 29 94q-114 43 -205.5 152.5 t-141.5 255t-50 297.5z" />
<glyph unicode="&#xc8;" horiz-adv-x="1032" d="M129 195v280q0 57 7 146t7 172t-5 160t-5 134q0 131 6 302q0 27 9.5 36t29.5 9q5 0 15.5 -1t15.5 -1q8 0 57 -3.5t103 -3.5q45 0 156.5 9.5t150.5 9.5q48 0 130.5 -4t96.5 -4q27 0 35 -13t8 -45q0 -19 4 -70t4 -85q0 -41 -6 -76q-2 -31 -28 -31q-8 0 -25.5 5t-20.5 5 q-36 7 -178 7q-26 0 -78 2t-77 2q-28 0 -80 -3.5t-84 -3.5q-29 0 -68.5 1.5t-40.5 1.5q-4 0 -7 -0.5t-5 -1.5t-3.5 -1.5t-2.5 -3.5t-1.5 -4t-0.5 -5.5v-7v-8.5v-9q0 -12 -3 -84t-3 -113v-121q0 -42 2 -65q16 -2 55 -2q35 -2 143 -2q41 0 118.5 4t98.5 4q28 0 60.5 -3 t40.5 -3q16 0 21 -6.5t5 -18.5q0 -4 -2 -22.5t-2 -41.5q0 -18 1 -49.5t1 -58.5q0 -33 -18 -33q-3 0 -16 3t-21 3q-5 0 -67 2t-138 2q-58 0 -112.5 -4t-88 -8t-40.5 -4q-23 0 -27 2q-10 0 -12 2v-205q14 0 22 2q6 0 25.5 1t32.5 1q18 0 103.5 1t137.5 1q32 0 123.5 -2 t134.5 -2q21 0 50 1t36 1q24 0 32.5 -11t8.5 -32q0 -6 -1 -20.5t-1 -20.5q0 -18 -1 -64.5t-1 -78.5q0 -14 -3.5 -23t-7 -14t-14.5 -7t-17.5 -2t-25.5 0.5t-30 0.5q-30 0 -170 2t-191 2q-58 0 -188 -4t-135 -4q-2 0 -6 -1t-6 -1q-8 0 -12 6t-4.5 11t-0.5 18q-2 23 -2 75 q0 10 -2 37.5t-2 51.5zM311 1667q0 28 39 45q31 17 45 17q7 0 64 -17q95 -41 176 -59q3 -1 23 -9t30 -13t24.5 -15.5t21.5 -24.5t7 -32q0 -25 -21 -30.5t-56 1.5q-23 -3 -72 8l-45 16q-46 21 -81 29t-46 14q-25 7 -62 22t-41 26q-6 12 -6 22z" />
<glyph unicode="&#xc9;" horiz-adv-x="1032" d="M129 195v280q0 57 7 146t7 172t-5 160t-5 134q0 131 6 302q0 27 9.5 36t29.5 9q5 0 15.5 -1t15.5 -1q8 0 57 -3.5t103 -3.5q45 0 156.5 9.5t150.5 9.5q48 0 130.5 -4t96.5 -4q27 0 35 -13t8 -45q0 -19 4 -70t4 -85q0 -41 -6 -76q-2 -31 -28 -31q-8 0 -25.5 5t-20.5 5 q-36 7 -178 7q-26 0 -78 2t-77 2q-28 0 -80 -3.5t-84 -3.5q-29 0 -68.5 1.5t-40.5 1.5q-4 0 -7 -0.5t-5 -1.5t-3.5 -1.5t-2.5 -3.5t-1.5 -4t-0.5 -5.5v-7v-8.5v-9q0 -12 -3 -84t-3 -113v-121q0 -42 2 -65q16 -2 55 -2q35 -2 143 -2q41 0 118.5 4t98.5 4q28 0 60.5 -3 t40.5 -3q16 0 21 -6.5t5 -18.5q0 -4 -2 -22.5t-2 -41.5q0 -18 1 -49.5t1 -58.5q0 -33 -18 -33q-3 0 -16 3t-21 3q-5 0 -67 2t-138 2q-58 0 -112.5 -4t-88 -8t-40.5 -4q-23 0 -27 2q-10 0 -12 2v-205q14 0 22 2q6 0 25.5 1t32.5 1q18 0 103.5 1t137.5 1q32 0 123.5 -2 t134.5 -2q21 0 50 1t36 1q24 0 32.5 -11t8.5 -32q0 -6 -1 -20.5t-1 -20.5q0 -18 -1 -64.5t-1 -78.5q0 -14 -3.5 -23t-7 -14t-14.5 -7t-17.5 -2t-25.5 0.5t-30 0.5q-30 0 -170 2t-191 2q-58 0 -188 -4t-135 -4q-2 0 -6 -1t-6 -1q-8 0 -12 6t-4.5 11t-0.5 18q-2 23 -2 75 q0 10 -2 37.5t-2 51.5zM324 1556q0 5 4 21q3 9 41.5 26.5t60.5 24.5q12 7 45.5 17t79.5 30l45 17q44 14 72 14q32 4 41 4q23 0 32 -12.5t3 -44.5q-7 -23 -41 -43t-60 -27q-105 -35 -174 -67q-55 -19 -65 -19q-21 0 -43 14q-41 14 -41 45z" />
<glyph unicode="&#xca;" horiz-adv-x="1032" d="M129 195v280q0 57 7 146t7 172t-5 160t-5 134q0 131 6 302q0 27 9.5 36t29.5 9q5 0 15.5 -1t15.5 -1q8 0 57 -3.5t103 -3.5q45 0 156.5 9.5t150.5 9.5q48 0 130.5 -4t96.5 -4q27 0 35 -13t8 -45q0 -19 4 -70t4 -85q0 -41 -6 -76q-2 -31 -28 -31q-8 0 -25.5 5t-20.5 5 q-36 7 -178 7q-26 0 -78 2t-77 2q-28 0 -80 -3.5t-84 -3.5q-29 0 -68.5 1.5t-40.5 1.5q-4 0 -7 -0.5t-5 -1.5t-3.5 -1.5t-2.5 -3.5t-1.5 -4t-0.5 -5.5v-7v-8.5v-9q0 -12 -3 -84t-3 -113v-121q0 -42 2 -65q16 -2 55 -2q35 -2 143 -2q41 0 118.5 4t98.5 4q28 0 60.5 -3 t40.5 -3q16 0 21 -6.5t5 -18.5q0 -4 -2 -22.5t-2 -41.5q0 -18 1 -49.5t1 -58.5q0 -33 -18 -33q-3 0 -16 3t-21 3q-5 0 -67 2t-138 2q-58 0 -112.5 -4t-88 -8t-40.5 -4q-23 0 -27 2q-10 0 -12 2v-205q14 0 22 2q6 0 25.5 1t32.5 1q18 0 103.5 1t137.5 1q32 0 123.5 -2 t134.5 -2q21 0 50 1t36 1q24 0 32.5 -11t8.5 -32q0 -6 -1 -20.5t-1 -20.5q0 -18 -1 -64.5t-1 -78.5q0 -14 -3.5 -23t-7 -14t-14.5 -7t-17.5 -2t-25.5 0.5t-30 0.5q-30 0 -170 2t-191 2q-58 0 -188 -4t-135 -4q-2 0 -6 -1t-6 -1q-8 0 -12 6t-4.5 11t-0.5 18q-2 23 -2 75 q0 10 -2 37.5t-2 51.5zM238 1534q0 17 14 25l55 34q3 2 15 7t20 9t25.5 16t38.5 28q81 46 106 53q19 8 37 8q8 2 22 2q11 0 21 -2.5t15.5 -5t19.5 -10.5t22 -12q25 -18 137 -89q1 -1 9 -5.5t13 -8t13.5 -9.5t14.5 -11t11.5 -11t7.5 -12t1 -12q-8 -31 -33 -31q-15 0 -55 14 l-55 15q-29 11 -72 37l-66 30l-94 -43q-44 -23 -116 -43q-40 -6 -78 -6q-23 0 -36 10t-13 23z" />
<glyph unicode="&#xcb;" horiz-adv-x="1032" d="M129 195v280q0 57 7 146t7 172t-5 160t-5 134q0 131 6 302q0 27 9.5 36t29.5 9q5 0 15.5 -1t15.5 -1q8 0 57 -3.5t103 -3.5q45 0 156.5 9.5t150.5 9.5q48 0 130.5 -4t96.5 -4q27 0 35 -13t8 -45q0 -19 4 -70t4 -85q0 -41 -6 -76q-2 -31 -28 -31q-8 0 -25.5 5t-20.5 5 q-36 7 -178 7q-26 0 -78 2t-77 2q-28 0 -80 -3.5t-84 -3.5q-29 0 -68.5 1.5t-40.5 1.5q-4 0 -7 -0.5t-5 -1.5t-3.5 -1.5t-2.5 -3.5t-1.5 -4t-0.5 -5.5v-7v-8.5v-9q0 -12 -3 -84t-3 -113v-121q0 -42 2 -65q16 -2 55 -2q35 -2 143 -2q41 0 118.5 4t98.5 4q28 0 60.5 -3 t40.5 -3q16 0 21 -6.5t5 -18.5q0 -4 -2 -22.5t-2 -41.5q0 -18 1 -49.5t1 -58.5q0 -33 -18 -33q-3 0 -16 3t-21 3q-5 0 -67 2t-138 2q-58 0 -112.5 -4t-88 -8t-40.5 -4q-23 0 -27 2q-10 0 -12 2v-205q14 0 22 2q6 0 25.5 1t32.5 1q18 0 103.5 1t137.5 1q32 0 123.5 -2 t134.5 -2q21 0 50 1t36 1q24 0 32.5 -11t8.5 -32q0 -6 -1 -20.5t-1 -20.5q0 -18 -1 -64.5t-1 -78.5q0 -14 -3.5 -23t-7 -14t-14.5 -7t-17.5 -2t-25.5 0.5t-30 0.5q-30 0 -170 2t-191 2q-58 0 -188 -4t-135 -4q-2 0 -6 -1t-6 -1q-8 0 -12 6t-4.5 11t-0.5 18q-2 23 -2 75 q0 10 -2 37.5t-2 51.5zM195 1593q0 43 32 78t78 35q53 0 94 -27t41 -77q0 -56 -42 -91.5t-85 -35.5q-45 0 -81.5 33t-36.5 85zM664 1593q0 127 151 127q39 0 63.5 -38.5t24.5 -88.5q0 -45 -33.5 -77.5t-95.5 -32.5q-60 0 -85 32.5t-25 77.5z" />
<glyph unicode="&#xcc;" horiz-adv-x="360" d="M-76 1655q0 28 39 45q29 16 45 16q10 0 64 -16q100 -43 176 -60q2 -1 23.5 -9t33.5 -14t27 -18t18 -26q4 -20 4 -27q0 -25 -21.5 -30t-56.5 2q-22 -3 -71 8l-45 16q-46 21 -81 29t-46 14q-26 7 -62.5 22t-40.5 25q-6 12 -6 23zM92 72q0 32 4 327.5t4 370.5q0 54 5 193 t9 253.5t1 135.5q0 7 -1 21.5t-1 21.5q0 53 32 53q5 0 31.5 -1t44.5 -1q21 0 21 -29q0 -7 -2 -24t-2 -25q-8 -54 -11 -231q0 -56 -8 -285.5t-8 -280.5q0 -96 4 -288.5t8 -227.5q2 -12 2 -28q0 -10 -2.5 -17.5t-10 -12t-12 -7t-18.5 -3.5t-18.5 -1h-22.5q-43 0 -47 3 q-5 5 -3 40q1 23 1 43z" />
<glyph unicode="&#xcd;" horiz-adv-x="360" d="M-16 1556q0 5 4 21q3 9 41.5 26.5t60.5 24.5q12 7 45.5 17t79.5 30l45 17q44 14 72 14q32 4 41 4q23 0 32 -12.5t3 -44.5q-7 -23 -41 -43t-60 -27q-105 -35 -174 -67q-55 -19 -65 -19q-21 0 -43 14q-41 14 -41 45zM92 72q0 32 4 327.5t4 370.5q0 54 5 193t9 253.5 t1 135.5q0 7 -1 21.5t-1 21.5q0 53 32 53q5 0 31.5 -1t44.5 -1q21 0 21 -29q0 -7 -2 -24t-2 -25q-8 -54 -11 -231q0 -56 -8 -285.5t-8 -280.5q0 -96 4 -288.5t8 -227.5q2 -12 2 -28q0 -10 -2.5 -17.5t-10 -12t-12 -7t-18.5 -3.5t-18.5 -1h-22.5q-43 0 -47 3q-5 5 -3 40 q1 23 1 43z" />
<glyph unicode="&#xce;" horiz-adv-x="360" d="M-154 1536q0 15 17 25l53 34q3 1 15 6.5t19.5 9.5t25 16t38.5 28q80 46 107 53q19 8 37 8q8 2 22 2q11 0 21 -2.5t15.5 -5t19.5 -10.5t22 -12q25 -18 137 -89q1 -1 9 -5.5t13 -8t13.5 -9.5t14.5 -11t11.5 -11t7.5 -12t1 -12q-8 -31 -33 -31q-15 0 -55 14l-55 15 q-29 11 -72 37l-66 30l-94 -43q-43 -22 -117 -43q-41 -6 -77 -6q-23 0 -36.5 10t-13.5 23zM92 72q0 32 4 327.5t4 370.5q0 54 5 193t9 253.5t1 135.5q0 7 -1 21.5t-1 21.5q0 53 32 53q5 0 31.5 -1t44.5 -1q21 0 21 -29q0 -7 -2 -24t-2 -25q-8 -54 -11 -231q0 -56 -8 -285.5 t-8 -280.5q0 -96 4 -288.5t8 -227.5q2 -12 2 -28q0 -10 -2.5 -17.5t-10 -12t-12 -7t-18.5 -3.5t-18.5 -1h-22.5q-43 0 -47 3q-5 5 -3 40q1 23 1 43z" />
<glyph unicode="&#xcf;" horiz-adv-x="360" d="M-156 1593q0 43 32.5 78t78.5 35q53 0 94 -27t41 -77q0 -56 -42 -91.5t-85 -35.5q-45 0 -82 33t-37 85zM92 72q0 32 4 327.5t4 370.5q0 54 5 193t9 253.5t1 135.5q0 7 -1 21.5t-1 21.5q0 53 32 53q5 0 31.5 -1t44.5 -1q21 0 21 -29q0 -7 -2 -24t-2 -25q-8 -54 -11 -231 q0 -56 -8 -285.5t-8 -280.5q0 -96 4 -288.5t8 -227.5q2 -12 2 -28q0 -10 -2.5 -17.5t-10 -12t-12 -7t-18.5 -3.5t-18.5 -1h-22.5q-43 0 -47 3q-5 5 -3 40q1 23 1 43zM313 1593q0 40 15 67t41 39t48.5 16.5t47.5 4.5q39 0 63.5 -38.5t24.5 -88.5q0 -45 -33.5 -77.5 t-95.5 -32.5q-60 0 -85.5 32.5t-25.5 77.5z" />
<glyph unicode="&#xd0;" horiz-adv-x="1261" d="M78 791q0 12 20 12q7 0 27 -4h78q10 195 10 248q0 98 -2 220t-2 128q0 12 8.5 19t26.5 9.5t31.5 3t38.5 -0.5t32 -1l74 5q86 4 139 4q45 0 94.5 -8.5t111.5 -32t118.5 -60.5t111.5 -99t95.5 -141.5t65 -195t24.5 -252.5q0 -126 -33 -229t-82 -168t-117.5 -113.5 t-129.5 -72.5t-127.5 -38t-101 -17t-61.5 -3q-44 0 -150 -2t-128 -2q-39 0 -39 70q0 9 1 27t1 26q0 25 -3 99t-3 95q0 5 -5 106.5t-5 197.5v14q-66 4 -78 4t-19 0.5t-10 5t-4 5.5t-0.5 10.5t0.5 11.5q0 7 -3.5 37t-5 50t0.5 32zM563 127q195 65 346 195q81 98 108 185 t27 238q-7 110 -51.5 208t-154.5 208q-135 106 -265 115q5 -154 5 -293q0 -85 -3 -123l-4 -55h197q18 0 18 -17q0 -3 -1 -9t-1 -9v-104q0 -17 -18 -17q-4 0 -14 1t-15 1q-4 0 -52 -3t-77 -3h-41q0 -61 -2 -192.5t-2 -325.5z" />
<glyph unicode="&#xd1;" horiz-adv-x="1384" d="M121 123q0 49 2 84q0 323 14 452q2 31 11.5 154.5t16.5 231t7 143.5q0 162 6 242q5 55 58 55q11 0 29.5 -2t23.5 -2q13 0 78 1t96 1q44 0 66 -9t34 -32q38 -79 168 -366.5t187 -401.5q11 -21 47 -91.5t55 -109.5l63 -125l-4 119l-8 201v61q0 113 4 227q0 33 -2 144.5 t-2 150.5l8 197q0 31 31 31q11 0 41 -6q21 -5 72 -5q16 0 21 -4t5 -14q0 -4 -2 -18t-2 -23q0 -11 -3 -270t-3 -320q0 -8 -1 -27.5t-1 -31.5q0 -65 6 -200t6 -169q0 -51 5.5 -198t5.5 -160v-4q0 -41 -39 -37q-6 2 -25 2q-10 0 -35.5 -1.5t-34.5 -0.5q-18 2 -24 7t-23 34 q-4 10 -39.5 97t-73.5 177.5t-55 126.5q-39 75 -227 494q-53 108 -92 178l-60 106l7 -194q1 -38 2.5 -103.5t2.5 -114.5t1 -81q0 -81 4 -279t4 -219q0 -33 4 -108t4 -88v-5q0 -32 -39 -32q-8 0 -58.5 -4t-78.5 -4q-24 0 -97.5 -2.5t-101.5 -2.5q-16 0 -26.5 2.5t-16 11 t-7.5 12t-4.5 17t-2.5 15.5q-8 36 -8 90zM399 1612v26v9.5v11t0.5 10.5t1.5 10.5t3 8t5.5 6.5t8.5 2q7 0 22 -4.5t41.5 -12t53.5 -12.5q39 0 147 19q91 16 244 16q79 0 131 -8q27 -1 41 -8t16 -13t1.5 -17t0.5 -14v-30q0 -33 -47 -33q-18 0 -63.5 12.5t-71.5 12.5 q-56 -1 -125 -11t-90 -12q-26 -2 -59 -6.5t-61.5 -7t-63.5 -2.5q-136 0 -136 47z" />
<glyph unicode="&#xd2;" horiz-adv-x="1040" d="M88 731q0 169 32 301.5t81.5 211.5t114.5 130t124.5 69.5t118.5 18.5q92 0 165.5 -27.5t121.5 -70t83 -109t53 -128t28.5 -145t13 -143t2.5 -137.5q0 -93 -15.5 -192t-51.5 -199t-87 -178.5t-128.5 -128t-170.5 -49.5t-168.5 32t-125 82t-86.5 122.5t-56.5 140.5t-31 149 t-14.5 136.5t-3 113.5zM350 1655q0 28 39 45q29 16 45 16q10 0 64 -16q100 -43 176 -60q2 -1 23.5 -9t33.5 -14t27 -18t18 -26q4 -20 4 -27q0 -25 -21.5 -30t-56.5 2q-22 -3 -71 8l-45 16q-46 21 -81 29t-46 14q-26 7 -62.5 22t-40.5 25q-6 12 -6 23zM469 666 q0 -38 2.5 -65.5t10.5 -59.5t27 -49t48 -17q38 0 63.5 32t35.5 77t10 100q0 82 -26.5 143.5t-68.5 61.5q-27 0 -48 -22t-32 -57t-16.5 -71.5t-5.5 -72.5z" />
<glyph unicode="&#xd3;" horiz-adv-x="1040" d="M88 731q0 169 32 301.5t81.5 211.5t114.5 130t124.5 69.5t118.5 18.5q92 0 165.5 -27.5t121.5 -70t83 -109t53 -128t28.5 -145t13 -143t2.5 -137.5q0 -93 -15.5 -192t-51.5 -199t-87 -178.5t-128.5 -128t-170.5 -49.5t-168.5 32t-125 82t-86.5 122.5t-56.5 140.5t-31 149 t-14.5 136.5t-3 113.5zM365 1554q0 5 4 21q3 9 41.5 26.5t60.5 24.5q12 7 45.5 17t79.5 30l45 17q44 14 72 14q32 4 41 4q23 0 31.5 -12.5t2.5 -44.5q-7 -23 -41 -43t-59 -27q-98 -32 -174 -68q-52 -18 -65 -18q-21 0 -43 14q-41 14 -41 45zM469 666q0 -38 2.5 -65.5 t10.5 -59.5t27 -49t48 -17q38 0 63.5 32t35.5 77t10 100q0 82 -26.5 143.5t-68.5 61.5q-27 0 -48 -22t-32 -57t-16.5 -71.5t-5.5 -72.5z" />
<glyph unicode="&#xd4;" horiz-adv-x="1040" d="M88 731q0 169 32 301.5t81.5 211.5t114.5 130t124.5 69.5t118.5 18.5q92 0 165.5 -27.5t121.5 -70t83 -109t53 -128t28.5 -145t13 -143t2.5 -137.5q0 -93 -15.5 -192t-51.5 -199t-87 -178.5t-128.5 -128t-170.5 -49.5t-168.5 32t-125 82t-86.5 122.5t-56.5 140.5t-31 149 t-14.5 136.5t-3 113.5zM248 1536q0 17 14 25l55 34q3 2 15 7t20 9t25.5 16t38.5 28q81 46 106 53q19 8 37 8q8 2 23 2q11 0 21 -2.5t15.5 -5.5t18.5 -10.5t22 -11.5q16 -12 138 -89q1 -1 9 -5.5t13 -8t13.5 -9.5t14 -11t11 -11t7.5 -12t1 -12q-8 -31 -32 -31q-16 0 -56 14 l-55 15q-29 11 -72 37l-65 30l-94 -43q-43 -22 -117 -43q-40 -6 -78 -6q-23 0 -36 10t-13 23zM469 666q0 -38 2.5 -65.5t10.5 -59.5t27 -49t48 -17q38 0 63.5 32t35.5 77t10 100q0 82 -26.5 143.5t-68.5 61.5q-27 0 -48 -22t-32 -57t-16.5 -71.5t-5.5 -72.5z" />
<glyph unicode="&#xd5;" horiz-adv-x="1040" d="M88 731q0 169 32 301.5t81.5 211.5t114.5 130t124.5 69.5t118.5 18.5q92 0 165.5 -27.5t121.5 -70t83 -109t53 -128t28.5 -145t13 -143t2.5 -137.5q0 -93 -15.5 -192t-51.5 -199t-87 -178.5t-128.5 -128t-170.5 -49.5t-168.5 32t-125 82t-86.5 122.5t-56.5 140.5t-31 149 t-14.5 136.5t-3 113.5zM199 1612v26v9v11t0.5 10.5t1.5 10.5t3 8.5t5.5 6.5t7.5 2q7 0 22 -4.5t41.5 -12t53.5 -12.5q39 0 147 19q91 16 244 16q79 0 131 -8q27 -1 41 -8t16 -13t1.5 -17t0.5 -14v-30q0 -33 -47 -33q-18 0 -63.5 12.5t-71.5 12.5q-56 -1 -125 -11t-90 -12 q-26 -2 -59 -6.5t-61.5 -7t-63.5 -2.5q-135 0 -135 47zM469 666q0 -38 2.5 -65.5t10.5 -59.5t27 -49t48 -17q38 0 63.5 32t35.5 77t10 100q0 82 -26.5 143.5t-68.5 61.5q-27 0 -48 -22t-32 -57t-16.5 -71.5t-5.5 -72.5z" />
<glyph unicode="&#xd6;" horiz-adv-x="1040" d="M88 731q0 169 32 301.5t81.5 211.5t114.5 130t124.5 69.5t118.5 18.5q92 0 165.5 -27.5t121.5 -70t83 -109t53 -128t28.5 -145t13 -143t2.5 -137.5q0 -93 -15.5 -192t-51.5 -199t-87 -178.5t-128.5 -128t-170.5 -49.5t-168.5 32t-125 82t-86.5 122.5t-56.5 140.5t-31 149 t-14.5 136.5t-3 113.5zM227 1593q0 43 32.5 78t78.5 35q53 0 94 -27t41 -77q0 -56 -42 -91.5t-85 -35.5q-45 0 -82 33t-37 85zM469 666q0 -38 2.5 -65.5t10.5 -59.5t27 -49t48 -17q38 0 63.5 32t35.5 77t10 100q0 82 -26.5 143.5t-68.5 61.5q-27 0 -48 -22t-32 -57 t-16.5 -71.5t-5.5 -72.5zM696 1593q0 40 15 67t41 39t48.5 16.5t47.5 4.5q39 0 63.5 -38.5t24.5 -88.5q0 -45 -33.5 -77.5t-95.5 -32.5q-60 0 -85.5 32.5t-25.5 77.5z" />
<glyph unicode="&#xd7;" d="M33 215q0 16 24 49q106 109 211 211q26 20 54.5 52t45 54t15.5 23q-12 21 -27 33q-33 31 -104 115q-17 13 -94 102l-82 98q-41 23 -41 62q0 20 18 41q61 61 80 73q16 0 55.5 -37t67.5 -73l188 -209q10 -9 23.5 -25.5t22.5 -24t18 -7.5t24 12q14 9 39 35.5t54.5 59.5 t40.5 44q13 18 94 107q62 65 90 88q13 16 31 16q23 0 45 -31q9 -15 20.5 -31.5t19 -27.5t13.5 -23q14 -17 14 -26q0 -11 -18 -29q-7 -9 -129 -131q-24 -24 -51.5 -53t-39.5 -41t-24 -23.5t-20 -17.5q-22 -20 -32.5 -30t-20 -24t-9.5 -26q0 -11 8 -22q29 -31 88.5 -95 t106 -113.5t90.5 -93.5q25 -17 25 -45q0 -19 -17 -36q-29 -32 -63 -80q-18 -11 -31 -11q-22 0 -57 35l-68 72q-55 65 -82 92q-78 85 -92 105q-5 5 -17 19.5t-21 21t-19 6.5q-8 0 -17 -6q-170 -184 -301 -316q-29 -29 -47 -29q-11 0 -22 11l-64 67q-1 2 -6 9t-7.5 12.5 t-2.5 11.5z" />
<glyph unicode="&#xd8;" horiz-adv-x="1177" d="M92 -53q0 4 8 24q8 8 10.5 11t2.5 4.5t7.5 13t22.5 31.5l90 151q-110 200 -110 549q0 122 17 226t45 177.5t67 131.5t81 94t89 60t89 33t83 9q191 0 305 -114q20 39 47.5 72.5t46.5 39.5q71 0 92 -8q14 -4 -1 -47.5t-42 -83.5l-59 -98q48 -105 63 -234.5t15 -286.5 q0 -93 -15.5 -192t-51.5 -199t-87 -178.5t-128.5 -128t-170.5 -49.5q-178 0 -291 113l-14 -28t-12 -25t-6 -13q-4 -11 -9.5 -20t-8.5 -14t-10 -11t-9 -7t-12 -6.5t-11 -6.5q-20 -17 -53 -17q-25 0 -52.5 7.5t-27.5 19.5zM371 643q0 -117 10 -199l29 56q12 20 101.5 174 t149.5 255.5t82 135.5l5 6q-57 96 -136 96q-52 0 -94 -35t-69 -90t-45 -126t-25.5 -139.5t-7.5 -133.5zM436 274q51 -77 142 -77q55 0 98.5 28t72 75t47.5 111t27 132.5t8 142.5q0 130 -26 234q-223 -406 -258 -457z" />
<glyph unicode="&#xd9;" horiz-adv-x="829" d="M115 637q0 116 6 156q4 29 4 190q0 259 -8 373q-2 12 -2 33q0 26 7 39t15.5 11.5t16.5 -3.5q4 0 11 -1t11 -1q6 0 18 2t19 2q8 0 10 -13q-6 -318 -6 -835q0 -180 66 -297t166 -117q48 0 83.5 17t53 44t25 52t7.5 49q0 13 5.5 194t5.5 271q0 50 5 198.5t5 217.5 q0 100 -8 141q-6 24 -6 39q0 12 3 20.5t7.5 13t11.5 6.5t11.5 2t13 -0.5t10.5 -0.5h145q9 0 15.5 -1t11 -1.5t8 -4.5t5 -5t2.5 -7.5t1.5 -7.5t1 -10.5t0.5 -11.5q5 -57 5 -111q0 -36 -3 -66q-2 -27 2 -120.5t9 -257t2 -330.5q-2 -111 -27.5 -198.5t-65.5 -143t-95 -92 t-112 -51.5t-120 -15q-70 0 -128 28t-96.5 74t-62 89.5t-37.5 89.5q-28 95 -28 350zM147 1655q0 28 39 45q29 16 45 16q6 0 14 -1.5t14 -3.5t17.5 -5.5t18.5 -5.5q60 -26 92.5 -37.5t83.5 -22.5q4 -2 23.5 -9t30 -12.5t25 -16t21.5 -24.5t7 -32q0 -25 -21.5 -30t-56.5 2 q-23 -3 -72 8l-45 16q-46 21 -81 29t-46 14q-26 7 -62 21.5t-40 25.5q-7 14 -7 23zM223 1425v11v-21v10z" />
<glyph unicode="&#xda;" horiz-adv-x="829" d="M115 637q0 116 6 156q4 29 4 190q0 259 -8 373q-2 12 -2 33q0 26 7 39t15.5 11.5t16.5 -3.5q4 0 11 -1t11 -1q6 0 18 2t19 2q8 0 10 -13q-6 -318 -6 -835q0 -180 66 -297t166 -117q48 0 83.5 17t53 44t25 52t7.5 49q0 13 5.5 194t5.5 271q0 50 5 198.5t5 217.5 q0 100 -8 141q-6 24 -6 39q0 12 3 20.5t7.5 13t11.5 6.5t11.5 2t13 -0.5t10.5 -0.5h145q9 0 15.5 -1t11 -1.5t8 -4.5t5 -5t2.5 -7.5t1.5 -7.5t1 -10.5t0.5 -11.5q5 -57 5 -111q0 -36 -3 -66q-2 -27 2 -120.5t9 -257t2 -330.5q-2 -111 -27.5 -198.5t-65.5 -143t-95 -92 t-112 -51.5t-120 -15q-70 0 -128 28t-96.5 74t-62 89.5t-37.5 89.5q-28 95 -28 350zM223 1425v11v-21v10zM244 1554q0 5 4 21q2 6 23.5 17.5t44 20.5t34.5 13q12 6 25 10t38.5 12.5t61.5 24.5l45 17q44 14 72 14q32 4 41 4q15 0 23.5 -5t12.5 -17.5t-1 -34.5q-5 -16 -26 -32 t-41 -25t-34 -13q-98 -32 -174 -68q-52 -18 -65 -18q-21 0 -43 14q-41 14 -41 45z" />
<glyph unicode="&#xdb;" horiz-adv-x="829" d="M115 637q0 116 6 156q4 29 4 190q0 259 -8 373q-2 12 -2 33q0 26 7 39t15.5 11.5t16.5 -3.5q4 0 11 -1t11 -1q6 0 18 2t19 2q8 0 10 -13q-6 -318 -6 -835q0 -180 66 -297t166 -117q48 0 83.5 17t53 44t25 52t7.5 49q0 13 5.5 194t5.5 271q0 50 5 198.5t5 217.5 q0 100 -8 141q-6 24 -6 39q0 12 3 20.5t7.5 13t11.5 6.5t11.5 2t13 -0.5t10.5 -0.5h145q9 0 15.5 -1t11 -1.5t8 -4.5t5 -5t2.5 -7.5t1.5 -7.5t1 -10.5t0.5 -11.5q5 -57 5 -111q0 -36 -3 -66q-2 -27 2 -120.5t9 -257t2 -330.5q-2 -111 -27.5 -198.5t-65.5 -143t-95 -92 t-112 -51.5t-120 -15q-70 0 -128 28t-96.5 74t-62 89.5t-37.5 89.5q-28 95 -28 350zM176 1534q0 17 14 25l56 34q3 1 15 6.5t19.5 9.5t25 16t38.5 28q80 46 107 53q19 8 36 8q8 2 23 2q11 0 21 -2.5t15.5 -5t19.5 -10.5t22 -12q25 -18 137 -89q1 -1 9 -5.5t13 -8t13.5 -9.5 t14.5 -11t11.5 -11t7.5 -12t1 -12q-8 -31 -33 -31q-15 0 -55 14l-56 15q-26 10 -71 37l-66 30l-94 -43q-43 -22 -117 -43q-40 -6 -78 -6q-23 0 -36 10t-13 23zM223 1425v11v-21v10z" />
<glyph unicode="&#xdc;" horiz-adv-x="829" d="M115 637q0 116 6 156q4 29 4 190q0 259 -8 373q-2 12 -2 33q0 26 7 39t15.5 11.5t16.5 -3.5q4 0 11 -1t11 -1q6 0 18 2t19 2q8 0 10 -13q-6 -318 -6 -835q0 -180 66 -297t166 -117q48 0 83.5 17t53 44t25 52t7.5 49q0 13 5.5 194t5.5 271q0 50 5 198.5t5 217.5 q0 100 -8 141q-6 24 -6 39q0 12 3 20.5t7.5 13t11.5 6.5t11.5 2t13 -0.5t10.5 -0.5h145q9 0 15.5 -1t11 -1.5t8 -4.5t5 -5t2.5 -7.5t1.5 -7.5t1 -10.5t0.5 -11.5q5 -57 5 -111q0 -36 -3 -66q-2 -27 2 -120.5t9 -257t2 -330.5q-2 -111 -27.5 -198.5t-65.5 -143t-95 -92 t-112 -51.5t-120 -15q-70 0 -128 28t-96.5 74t-62 89.5t-37.5 89.5q-28 95 -28 350zM133 1593q0 43 32.5 78t78.5 35q53 0 94 -27t41 -77q0 -38 -22 -68.5t-50.5 -44.5t-54.5 -14q-28 0 -55 13.5t-45.5 41.5t-18.5 63zM223 1425v11v-21v10zM602 1593q0 21 4 38t12 29.5 t17.5 22.5t22 16t24.5 10.5t25.5 6.5t24 3t22.5 1q39 0 63.5 -38.5t24.5 -88.5q0 -29 -13.5 -53t-43.5 -40.5t-72 -16.5q-25 0 -45 7t-32 17.5t-20 25.5t-11 29.5t-3 30.5z" />
<glyph unicode="&#xdd;" horiz-adv-x="1015" d="M70 1386q0 29 94 29q31 0 49 -2q68 0 84 -2q16 -3 21 -7t6 -17.5t2 -18.5q18 -70 53 -170q53 -169 63 -192q57 -140 90 -254l17 51q8 32 29 88q23 65 43 115q3 11 21.5 57t23.5 55q38 75 75 236q4 17 10 28.5t10.5 18t14.5 9.5t13 3.5t15.5 0t14.5 -0.5t15.5 0.5 t27.5 0.5h33t35 -1.5t30 -3.5t22.5 -7t8.5 -11q0 -3 -4 -19q-1 -2 -32.5 -96.5t-51.5 -140.5q-62 -144 -178 -459q-16 -48 -101 -259.5t-89 -228.5q-5 -16 -11.5 -45t-12.5 -63t-7 -41q-9 -44 -33 -41h-55q-12 -2 -82 -2q-41 -2 -76 -2q-25 0 -25 12q0 3 4 11.5t5 11.5 t33 91t38 107q4 15 14.5 43.5t23.5 62t18 46.5q3 7 8 19t7.5 17.5t4.5 13.5t1.5 14.5t-3.5 13.5t-24.5 78.5t-34.5 99.5q-13 30 -31.5 93.5t-28.5 90.5q-17 46 -81 232.5t-76 226.5q-8 27 -24.5 61.5t-16.5 46.5zM313 1554q0 5 4 21q3 9 41.5 26.5t61.5 24.5q12 7 45.5 17 t79.5 30l45 17q44 14 72 14q32 4 40 4q23 0 32 -12.5t3 -44.5q-7 -23 -41 -43t-59 -27q-98 -32 -174 -68q-52 -18 -66 -18q-21 0 -43 14q-41 14 -41 45z" />
<glyph unicode="&#xde;" horiz-adv-x="1062" d="M131 1372q0 24 2.5 37.5t15 23.5t35.5 7q70 -8 131 -8q29 0 35 2q22 10 48.5 -8t19.5 -48q-6 -18 -6 -80q0 -79 4 -145q38 -2 150.5 -12.5t158.5 -10.5q31 0 69 -8.5t86.5 -33.5t87 -63t65 -106t26.5 -155q0 -110 -27 -194.5t-74.5 -134t-104 -75.5t-122.5 -30 q-61 -4 -199 -4h-126q0 -18 -1.5 -56.5t-1.5 -56.5q0 -20 1.5 -57.5t1.5 -55.5q2 -18 2 -45q0 -44 -15 -47h-94q-31 0 -80 -2t-51 -2q-23 0 -23 51q0 6 1 14.5t2 21t2 20.5q2 14 2 88q0 141 -8.5 522t-8.5 397q0 49 -2 144.5t-2 109.5zM416 891q-3 -73 6.5 -214t9.5 -198 q90 -5 242 25q99 20 149.5 83.5t50.5 188.5q0 50 -15 88.5t-36.5 60.5t-51 35.5t-54 18t-49.5 4.5q-97 0 -152 -6l-96 -6z" />
<glyph unicode="&#xdf;" horiz-adv-x="1234" d="M127 346q0 44 6 107.5t6 107.5t-1 116.5t-1 117.5q0 44 3 136.5t3 141.5q0 83 -2 101q0 5 -1 15.5t-1 16.5t1 19t1 20q2 48 48.5 101.5t136.5 91.5q124 37 192 37q137 0 232 -23q60 -12 77 -18q2 -1 8.5 -2.5t10 -2.5t11 -4t12.5 -5.5t13.5 -7t15 -10t15 -13t16.5 -16 t17.5 -20t18.5 -24.5q35 -72 32 -151q-6 -66 -63 -140q-35 -41 -125 -65q-46 -16 -66 -49q-8 -19 -8 -37q0 -10 5 -19.5t8.5 -14t17.5 -16.5t18 -16q16 -15 28 -24.5t30.5 -21.5t27.5 -19q8 -5 32.5 -16.5t43.5 -21.5t47.5 -29t50.5 -39t46 -51.5t39.5 -67t25.5 -84.5 t10 -105q0 -57 -9.5 -105.5t-27 -83.5t-39.5 -63t-50 -46t-55 -31t-57.5 -19.5t-55.5 -9t-50 -2.5q-32 0 -66 12t-60.5 29t-48.5 35.5t-34.5 32t-13.5 18.5q-16 16 -6 32q0 8 12.5 32t16.5 24h4q2 0 2.5 -0.5t1.5 -1t2.5 -3t3.5 -5t6.5 -8t9.5 -11.5q16 -25 69 -55.5 t89 -30.5q13 0 26 1t35 6t40 13t38 24.5t34 38.5t23 56.5t9 77.5q0 19 -5 37t-13 32.5t-22 31t-27 28.5t-33.5 28t-36 27.5t-39.5 28.5t-39 29q-36 28 -61.5 51.5t-55 59t-47.5 72.5t-30.5 88.5t-12.5 109.5q3 79 33 114q39 39 102 58q70 21 70 77q-9 32 -21.5 52 t-30.5 30.5t-38.5 14.5t-51.5 4q-8 0 -25 -1t-26 -1q-54 -3 -81.5 -49t-30.5 -117v-131q0 -21 -1.5 -56t-1.5 -49l-4 -168q0 -52 2 -77q0 -23 1 -68t1 -61q0 -36 -3 -100.5t-3 -100.5l2 -242q0 -27 -11.5 -37t-35.5 -10q-17 0 -57 3t-66 3q-34 0 -88 -1t-61 -1q-10 0 -16 2 t-9.5 3.5t-5.5 7t-2 7v10.5v11l-2 109q0 8 -2 72.5t-2 115.5z" />
<glyph unicode="&#xe0;" horiz-adv-x="1198" d="M43 8q0 5 8 29q18 41 29 78q79 271 90 331q19 109 76 265q42 179 131 465l51 163q12 49 41 131q13 31 29 15q4 -3 7 -7t6 -10.5t4.5 -11.5t4 -14.5t4.5 -14.5q6 -28 109 -245q38 -76 88 -219q12 -35 45 -108.5t74 -161t55 -120.5q49 -107 176 -348q8 -15 28.5 -60 t37.5 -77t30 -47q11 -22 11 -27q0 -16 -37 -16h-148q-5 0 -9 3.5t-8.5 11.5t-7.5 15t-8 19t-8 19q-11 22 -41.5 102t-38.5 108q-6 18 -27.5 65t-23.5 52q-7 25 -15.5 33t-21.5 8q-7 0 -36 -2.5t-46 -3.5q-17 -3 -104 -4t-115 -4q-18 -2 -65 -2q-29 0 -69 1l-40 1q-4 0 -7 -1 t-5 -4t-3.5 -5.5t-3 -7.5t-2.5 -8t-2.5 -9.5t-2.5 -9.5q0 -2 -19.5 -84t-23.5 -105q-27 -102 -39 -147q-6 -24 -11.5 -31.5t-15.5 -7.5h-121q-10 0 -10 8zM268 1657q0 28 39 45q29 16 45 16q10 0 64 -16q100 -43 176 -60q2 -1 23.5 -9t33.5 -14t27 -18t18 -26q4 -20 4 -27 q0 -25 -21 -30t-56 2q-23 -3 -72 8l-45 16q-46 21 -81 29t-46 14q-26 7 -62.5 22t-40.5 25q-6 12 -6 23zM369 719q0 -12 18 -12q20 0 58.5 0.5t95.5 2.5t97 6.5t40 10.5q0 4 -6 16q-12 21 -48.5 106t-50.5 126q-12 27 -23 57t-17.5 48t-8.5 22q-2 5 -4.5 10.5t-4 9t-3 7.5 t-3 6t-2.5 4.5t-2.5 3.5t-3 1.5t-3.5 0.5t-4.5 -4t-5 -12.5t-4.5 -16.5l-5.5 -22t-5.5 -23q-44 -147 -53 -180q-4 -19 -13 -45t-19 -53t-13 -37q-6 -21 -6 -33z" />
<glyph unicode="&#xe1;" horiz-adv-x="1198" d="M43 8q0 5 8 29q18 41 29 78q79 271 90 331q19 109 76 265q42 179 131 465l51 163q12 49 41 131q13 31 29 15q4 -3 7 -7t6 -10.5t4.5 -11.5t4 -14.5t4.5 -14.5q6 -28 109 -245q38 -76 88 -219q12 -35 45 -108.5t74 -161t55 -120.5q49 -107 176 -348q8 -15 28.5 -60 t37.5 -77t30 -47q11 -22 11 -27q0 -16 -37 -16h-148q-5 0 -9 3.5t-8.5 11.5t-7.5 15t-8 19t-8 19q-11 22 -41.5 102t-38.5 108q-6 18 -27.5 65t-23.5 52q-7 25 -15.5 33t-21.5 8q-7 0 -36 -2.5t-46 -3.5q-17 -3 -104 -4t-115 -4q-18 -2 -65 -2q-29 0 -69 1l-40 1q-4 0 -7 -1 t-5 -4t-3.5 -5.5t-3 -7.5t-2.5 -8t-2.5 -9.5t-2.5 -9.5q0 -2 -19.5 -84t-23.5 -105q-27 -102 -39 -147q-6 -24 -11.5 -31.5t-15.5 -7.5h-121q-10 0 -10 8zM313 1565q0 4 4 20q3 9 41.5 26.5t61.5 24.5q12 7 45.5 17t79.5 30l45 17q44 14 72 14q32 4 40 4q23 0 32 -12.5 t3 -44.5q-7 -23 -41 -43t-59 -27q-105 -35 -174 -67q-55 -19 -66 -19q-19 0 -43 15q-41 14 -41 45zM369 719q0 -12 18 -12q20 0 58.5 0.5t95.5 2.5t97 6.5t40 10.5q0 4 -6 16q-12 21 -48.5 106t-50.5 126q-12 27 -23 57t-17.5 48t-8.5 22q-2 5 -4.5 10.5t-4 9t-3 7.5t-3 6 t-2.5 4.5t-2.5 3.5t-3 1.5t-3.5 0.5t-4.5 -4t-5 -12.5t-4.5 -16.5l-5.5 -22t-5.5 -23q-44 -147 -53 -180q-4 -19 -13 -45t-19 -53t-13 -37q-6 -21 -6 -33z" />
<glyph unicode="&#xe2;" horiz-adv-x="1198" d="M43 8q0 5 8 29q18 41 29 78q79 271 90 331q19 109 76 265q42 179 131 465l51 163q12 49 41 131q13 31 29 15q4 -3 7 -7t6 -10.5t4.5 -11.5t4 -14.5t4.5 -14.5q6 -28 109 -245q38 -76 88 -219q12 -35 45 -108.5t74 -161t55 -120.5q49 -107 176 -348q8 -15 28.5 -60 t37.5 -77t30 -47q11 -22 11 -27q0 -16 -37 -16h-148q-5 0 -9 3.5t-8.5 11.5t-7.5 15t-8 19t-8 19q-11 22 -41.5 102t-38.5 108q-6 18 -27.5 65t-23.5 52q-7 25 -15.5 33t-21.5 8q-7 0 -36 -2.5t-46 -3.5q-17 -3 -104 -4t-115 -4q-18 -2 -65 -2q-29 0 -69 1l-40 1q-4 0 -7 -1 t-5 -4t-3.5 -5.5t-3 -7.5t-2.5 -8t-2.5 -9.5t-2.5 -9.5q0 -2 -19.5 -84t-23.5 -105q-27 -102 -39 -147q-6 -24 -11.5 -31.5t-15.5 -7.5h-121q-10 0 -10 8zM178 1536q0 16 15 25l55 34q3 1 15 6.5t19.5 9.5t25 16t38.5 28q80 46 107 53q19 8 36 8q8 2 23 2q11 0 21 -2.5 t15.5 -5t19.5 -10.5t22 -12q25 -18 137 -89q1 -1 9 -5.5t13 -8t13.5 -9.5t14.5 -11t11.5 -11t7.5 -12t1 -12q-8 -31 -33 -31q-15 0 -55 14l-56 15q-26 10 -71 37l-66 30l-94 -43q-43 -22 -117 -43q-40 -6 -78 -6q-23 0 -36 10t-13 23zM369 719q0 -12 18 -12q20 0 58.5 0.5 t95.5 2.5t97 6.5t40 10.5q0 4 -6 16q-12 21 -48.5 106t-50.5 126q-12 27 -23 57t-17.5 48t-8.5 22q-2 5 -4.5 10.5t-4 9t-3 7.5t-3 6t-2.5 4.5t-2.5 3.5t-3 1.5t-3.5 0.5t-4.5 -4t-5 -12.5t-4.5 -16.5l-5.5 -22t-5.5 -23q-44 -147 -53 -180q-4 -19 -13 -45t-19 -53t-13 -37 q-6 -21 -6 -33z" />
<glyph unicode="&#xe3;" horiz-adv-x="1198" d="M43 8q0 5 8 29q18 41 29 78q79 271 90 331q19 109 76 265q42 179 131 465l51 163q12 49 41 131q13 31 29 15q4 -3 7 -7t6 -10.5t4.5 -11.5t4 -14.5t4.5 -14.5q6 -28 109 -245q38 -76 88 -219q12 -35 45 -108.5t74 -161t55 -120.5q49 -107 176 -348q8 -15 28.5 -60 t37.5 -77t30 -47q11 -22 11 -27q0 -16 -37 -16h-148q-5 0 -9 3.5t-8.5 11.5t-7.5 15t-8 19t-8 19q-11 22 -41.5 102t-38.5 108q-6 18 -27.5 65t-23.5 52q-7 25 -15.5 33t-21.5 8q-7 0 -36 -2.5t-46 -3.5q-17 -3 -104 -4t-115 -4q-18 -2 -65 -2q-29 0 -69 1l-40 1q-4 0 -7 -1 t-5 -4t-3.5 -5.5t-3 -7.5t-2.5 -8t-2.5 -9.5t-2.5 -9.5q0 -2 -19.5 -84t-23.5 -105q-27 -102 -39 -147q-6 -24 -11.5 -31.5t-15.5 -7.5h-121q-10 0 -10 8zM166 1612v26v9v11t0.5 10.5t1.5 10.5t3 8.5t5.5 6.5t7.5 2q7 0 22 -4.5t41.5 -12t53.5 -12.5q40 0 148 19 q91 16 243 16q79 0 131 -8q22 -1 35.5 -5.5t18 -10t6 -12.5t0 -13t0.5 -11v-30q0 -33 -47 -33q-18 0 -64 12.5t-72 12.5q-56 -1 -125 -11t-90 -12q-26 -2 -59 -6.5t-61.5 -7t-63.5 -2.5q-135 0 -135 47zM369 719q0 -12 18 -12q20 0 58.5 0.5t95.5 2.5t97 6.5t40 10.5 q0 4 -6 16q-12 21 -48.5 106t-50.5 126q-12 27 -23 57t-17.5 48t-8.5 22q-2 5 -4.5 10.5t-4 9t-3 7.5t-3 6t-2.5 4.5t-2.5 3.5t-3 1.5t-3.5 0.5t-4.5 -4t-5 -12.5t-4.5 -16.5l-5.5 -22t-5.5 -23q-44 -147 -53 -180q-4 -19 -13 -45t-19 -53t-13 -37q-6 -21 -6 -33z" />
<glyph unicode="&#xe4;" horiz-adv-x="1198" d="M43 8q0 5 8 29q18 41 29 78q79 271 90 331q19 109 76 265q42 179 131 465l51 163q12 49 41 131q13 31 29 15q4 -3 7 -7t6 -10.5t4.5 -11.5t4 -14.5t4.5 -14.5q6 -28 109 -245q38 -76 88 -219q12 -35 45 -108.5t74 -161t55 -120.5q49 -107 176 -348q8 -15 28.5 -60 t37.5 -77t30 -47q11 -22 11 -27q0 -16 -37 -16h-148q-5 0 -9 3.5t-8.5 11.5t-7.5 15t-8 19t-8 19q-11 22 -41.5 102t-38.5 108q-6 18 -27.5 65t-23.5 52q-7 25 -15.5 33t-21.5 8q-7 0 -36 -2.5t-46 -3.5q-17 -3 -104 -4t-115 -4q-18 -2 -65 -2q-29 0 -69 1l-40 1q-4 0 -7 -1 t-5 -4t-3.5 -5.5t-3 -7.5t-2.5 -8t-2.5 -9.5t-2.5 -9.5q0 -2 -19.5 -84t-23.5 -105q-27 -102 -39 -147q-6 -24 -11.5 -31.5t-15.5 -7.5h-121q-10 0 -10 8zM129 1593q0 43 32.5 78t78.5 35q53 0 94 -27t41 -77q0 -56 -42 -91.5t-85 -35.5q-45 0 -82 33t-37 85zM369 719 q0 -12 18 -12q20 0 58.5 0.5t95.5 2.5t97 6.5t40 10.5q0 4 -6 16q-12 21 -48.5 106t-50.5 126q-12 27 -23 57t-17.5 48t-8.5 22q-2 5 -4.5 10.5t-4 9t-3 7.5t-3 6t-2.5 4.5t-2.5 3.5t-3 1.5t-3.5 0.5t-4.5 -4t-5 -12.5t-4.5 -16.5l-5.5 -22t-5.5 -23q-44 -147 -53 -180 q-4 -19 -13 -45t-19 -53t-13 -37q-6 -21 -6 -33zM598 1593q0 40 15 67t41 39t48.5 16.5t47.5 4.5q39 0 63.5 -38.5t24.5 -88.5q0 -45 -33.5 -77.5t-95.5 -32.5q-60 0 -85.5 32.5t-25.5 77.5z" />
<glyph unicode="&#xe5;" horiz-adv-x="1198" d="M43 8q0 5 8 29q18 41 29 78l43 153q16 51 27 60q14 11 20 45q7 41 20 79.5t31.5 83t24.5 60.5q42 179 131 465l51 164q12 49 41 131q12 31 29 14q4 -3 8 -9.5t7.5 -13t13 -16t24.5 -18.5q7 -33 108 -246q41 -83 89 -219q34 -86 81 -189q19 -40 51 -88.5t42 -70.5 q11 -24 20.5 -39t20.5 -31.5t24 -44.5l84 -160q8 -15 28.5 -60t37.5 -77t30 -47q11 -22 11 -27q0 -16 -37 -16h-148q-5 0 -9 3.5t-8.5 11.5t-7.5 15t-8 19t-8 19q-11 22 -41.5 102t-38.5 108q-6 18 -27.5 65t-23.5 52q-7 25 -15.5 33t-21.5 8q-7 0 -36 -2.5t-46 -3.5 q-17 -3 -104 -4t-115 -4q-18 -2 -65 -2q-29 0 -69 1l-40 1q-4 0 -7 -1t-5 -4t-3.5 -5.5t-3 -7.5t-2.5 -8t-2.5 -9.5t-2.5 -9.5q0 -2 -19.5 -84t-23.5 -105q-27 -102 -39 -147q-6 -24 -11.5 -31.5t-15.5 -7.5h-121q-10 0 -10 8zM334 1565q3 37 20 77q30 78 127 78 q41 0 72.5 -13t47.5 -30.5t25.5 -40.5t12 -37t2.5 -26q0 -26 -21.5 -70t-66.5 -67q-25 -11 -76 -11q-55 0 -99 42t-44 98zM369 604q0 -12 18 -12q20 0 58.5 0.5t95.5 2.5t97 6.5t40 10.5q0 5 -6 17q-12 21 -48.5 105.5t-50.5 125.5q-12 27 -23 57t-17.5 48t-8.5 22 q-2 5 -4.5 10.5t-4 9t-3 7.5t-3 6t-2.5 4.5t-2.5 3.5t-3 1.5t-3.5 0.5t-4.5 -4t-5 -12.5t-4.5 -16.5l-5.5 -22t-5.5 -23q-44 -147 -53 -180q-6 -26 -26 -80l-19 -55q-6 -21 -6 -33zM434 1573q0 -19 15.5 -32t35.5 -13q6 0 15 1l8 1q1 1 11 6t17 14t7 23q0 17 -14 31t-37 14 q-28 0 -43 -13t-15 -32z" />
<glyph unicode="&#xe6;" horiz-adv-x="1994" d="M27 6q0 6 18 31q26 29 57 78q2 3 90 141.5t117 189.5q64 120 172 265q20 35 57 91.5t66 104.5q206 318 285 432q25 41 88 131q18 23 29.5 19.5t11.5 -29.5v-43q20 -4 26 -4q8 0 27 3t31 3q16 0 53 -4t53 -4q26 0 154 6t190 6q61 0 202 -3t155 -3q12 0 20 -2.5t11 -11 t4 -11.5t0 -16v-14v-43q0 -27 -9 -27t-26 3t-39 3h-389q-24 0 -71.5 1t-68.5 1h-53q-11 0 -92 -6l-47 -4l-4 -55q-2 -14 -2 -49v-47q0 -30 4 -83t4 -75v-82q0 -33 2 -51q18 -2 55 -2h82q14 0 60.5 4t81.5 4q38 0 95 -4t64 -4q9 0 44 3t63 3q18 0 69 -3t72 -3q23 0 31 2 q2 0 6 1t6 1q15 0 21 -9.5t4 -17.5q-1 -5 -2 -35t-2 -38q-1 -12 -2 -15t-7.5 -5.5t-21.5 -2.5q-8 0 -123 11.5t-160 11.5q-160 0 -256 -7q-40 -4 -63 -4h-58q-39 0 -57 2l-6 -32q-4 -36 -4 -66q0 -23 4 -57t4 -58v-47q0 -20 1 -66.5t1 -70.5v-59q0 -18 -1 -53t-1 -50 q-2 -18 -2 -51q27 -2 78 -2q23 -2 67 -2h66q38 0 109 -2t108 -2q39 0 106.5 3t92.5 3q32 0 78 -2t53 -2q16 0 19 -6.5t3 -26.5q0 -8 -2 -29.5t-2 -33.5q0 -25 -43 -25q-23 0 -37 2q-55 6 -223 6q-102 0 -147 -2l-250 -10q-59 -2 -109 -2h-147q-19 0 -19 108v64q0 27 -1 64.5 t-1 41.5q0 18 -4 64.5t-4 52.5v10q0 19 -5 25t-17 6q-7 0 -37.5 -2.5t-46.5 -3.5q-16 -3 -105 -4t-117 -4q-14 -2 -51 -2h-53q-20 0 -44.5 1t-25.5 1q-3 0 -5.5 -0.5t-5.5 -2.5t-5 -3.5t-4.5 -4.5t-4.5 -5.5t-4.5 -6.5t-4 -6.5t-5 -8t-4.5 -7.5q-2 -3 -112 -189 q-5 -13 -24.5 -43.5t-27.5 -44.5l-36 -59q-13 -23 -21.5 -31t-19.5 -8h-121q-8 0 -8 6zM604 715q0 -8 17 -8q34 0 128 3t119 7q9 1 20 2t15.5 1t9 2t5.5 7t0 14q-3 21 -9 106.5t-6 125.5q-2 24 -2 70.5t-2 73t-10 26.5q-2 0 -4.5 -2t-5.5 -6.5t-6.5 -10t-8 -12.5t-8.5 -14 t-9.5 -16.5t-10.5 -16.5q-8 -13 -32.5 -50.5t-49.5 -75t-35 -54.5q-34 -54 -94 -135q-4 -7 -9.5 -15.5t-8.5 -13.5t-3 -8z" />
<glyph unicode="&#xe7;" horiz-adv-x="1179" d="M86 805q0 174 53 327t133 220q134 123 326 123q70 0 130.5 -14.5t98.5 -33t73.5 -49.5t51.5 -51t37 -50.5t25 -35.5q20 -26 20 -41q0 -3 -0.5 -6t-2.5 -6t-3.5 -5.5t-5 -5t-5.5 -4.5t-6.5 -5t-6.5 -4t-7.5 -4.5t-7.5 -4.5q-12 -8 -81.5 -63t-86.5 -64q-9 -6 -16 -6 q-9 0 -16 5.5t-16 18.5t-11 15l-16 18q-16 18 -27 27.5t-34 20t-48 10.5q-39 0 -66.5 -30.5t-40.5 -82.5t-18.5 -103t-5.5 -108q0 -100 12 -156t37 -110q19 -41 43 -61.5t45 -20.5q40 0 61.5 18t38.5 70q15 49 54 49q10 0 28.5 -4.5t22.5 -5.5q21 -7 106.5 -26t130.5 -27 q29 -5 29 -50q0 -20 -2 -30q-2 -25 -16 -72q-14 -42 -31.5 -80t-55 -88.5t-84 -86.5t-121 -61.5t-163.5 -25.5h-23q-44 -59 -53 -94q22 11 38 14.5t61 3.5q127 0 127 -143q-1 -30 -14 -55t-22 -33t-28 -23q-9 -9 -31 -22l-7 -3.5t-8 -3.5t-8.5 -3t-10 -3t-11.5 -2.5 t-15 -2.5t-18 -1.5t-23 -1t-28 -0.5q-50 0 -93.5 11.5t-43.5 27.5q0 26 16 101q0 8 7 8q3 0 9 -3.5t17.5 -10.5t22.5 -13q40 -12 78 -12q50 4 62 11q15 12 22 42q0 68 -50 68q-18 0 -40 -14.5t-27 -14.5q-38 0 -50.5 3t-13.5 13q0 16 1.5 26t6 24t7.5 24q5 31 28 96 q-142 41 -243 150q-89 97 -143 251.5t-54 344.5z" />
<glyph unicode="&#xe8;" horiz-adv-x="1114" d="M80 633q0 75 8 232t8 192q0 237 -6 313q-2 22 7.5 33.5t29 14t38.5 1t46 -4.5t41 -3q25 0 153.5 6t190.5 6q61 0 201.5 -3t154.5 -3q10 0 17.5 -3t11 -6t5 -10t2 -11t0 -13t-0.5 -12v-23q0 -47 -8 -47q-10 0 -27.5 3t-38.5 3h-327l-254 2q-11 0 -92 -6l-47 -4l-5 -55 q-2 -31 -2 -96q0 -30 4.5 -83t4.5 -75v-82q0 -33 2 -51q18 -2 55 -2h82q14 0 60 4t81 4q38 0 95.5 -4t64.5 -4q9 0 43.5 3t62.5 3q18 0 69.5 -3t72.5 -3q22 0 30 2q2 0 6.5 1t6.5 1q15 0 20.5 -9.5t3.5 -17.5q-1 -5 -2 -35t-2 -38v-4q-2 -12 -6.5 -15.5t-24.5 -3.5 q-8 0 -122.5 11.5t-159.5 11.5q-160 0 -256 -7q-27 -4 -121 -4q-39 0 -57 2l-6 -32q-5 -45 -5 -66q0 -23 4.5 -57t4.5 -58l2 -243q0 -18 -1 -53t-1 -50q-2 -18 -2 -51q27 -2 77 -2q43 -2 134 -2q38 0 109 -2t108 -2q39 0 106 3t92 3q31 0 77 -2t54 -2q9 0 13.5 -1.5 t6.5 -6.5t2.5 -9.5t0.5 -15.5q0 -8 -2 -29.5t-2 -33.5q0 -14 -10 -19.5t-33 -5.5t-37 2q-56 6 -223 6q-48 0 -131.5 -2t-130.5 -2q-63 0 -159.5 2t-109.5 2q-28 0 -37.5 7.5t-9.5 23.5q0 5 1 16t1 17q2 8 2 18q0 4 -1 15t-2 36.5t-1 65.5q0 61 -5 206.5t-5 215.5zM301 1655 q0 28 39 45q29 16 45 16q5 0 10.5 -1t12 -2.5t12 -3.5t14.5 -4.5t15 -4.5q60 -26 92.5 -37.5t83.5 -22.5q4 -2 18 -7t25.5 -10t24.5 -12.5t22 -17t12 -20.5q4 -20 4 -27q0 -25 -21.5 -30t-56.5 2q-22 -3 -71 8l-45 16q-35 16 -61.5 23.5t-40.5 10.5t-25 9q-26 7 -62.5 22 t-40.5 25q-6 12 -6 23z" />
<glyph unicode="&#xe9;" horiz-adv-x="1114" d="M80 633q0 75 8 232t8 192q0 237 -6 313q-2 22 7.5 33.5t29 14t38.5 1t46 -4.5t41 -3q25 0 153.5 6t190.5 6q61 0 201.5 -3t154.5 -3q10 0 17.5 -3t11 -6t5 -10t2 -11t0 -13t-0.5 -12v-23q0 -47 -8 -47q-10 0 -27.5 3t-38.5 3h-327l-254 2q-11 0 -92 -6l-47 -4l-5 -55 q-2 -31 -2 -96q0 -30 4.5 -83t4.5 -75v-82q0 -33 2 -51q18 -2 55 -2h82q14 0 60 4t81 4q38 0 95.5 -4t64.5 -4q9 0 43.5 3t62.5 3q18 0 69.5 -3t72.5 -3q22 0 30 2q2 0 6.5 1t6.5 1q15 0 20.5 -9.5t3.5 -17.5q-1 -5 -2 -35t-2 -38v-4q-2 -12 -6.5 -15.5t-24.5 -3.5 q-8 0 -122.5 11.5t-159.5 11.5q-160 0 -256 -7q-27 -4 -121 -4q-39 0 -57 2l-6 -32q-5 -45 -5 -66q0 -23 4.5 -57t4.5 -58l2 -243q0 -18 -1 -53t-1 -50q-2 -18 -2 -51q27 -2 77 -2q43 -2 134 -2q38 0 109 -2t108 -2q39 0 106 3t92 3q31 0 77 -2t54 -2q9 0 13.5 -1.5 t6.5 -6.5t2.5 -9.5t0.5 -15.5q0 -8 -2 -29.5t-2 -33.5q0 -14 -10 -19.5t-33 -5.5t-37 2q-56 6 -223 6q-48 0 -131.5 -2t-130.5 -2q-63 0 -159.5 2t-109.5 2q-28 0 -37.5 7.5t-9.5 23.5q0 5 1 16t1 17q2 8 2 18q0 4 -1 15t-2 36.5t-1 65.5q0 61 -5 206.5t-5 215.5zM383 1565 q0 4 4 20q3 9 41.5 26.5t60.5 24.5q12 7 45.5 17t79.5 30l45 17q44 14 72 14q32 4 41 4q23 0 32 -12.5t3 -44.5q-7 -23 -41 -43t-59 -27q-109 -36 -175 -67q-7 -3 -19 -7l-18 -6t-14 -4t-14 -2q-19 0 -43 15q-41 14 -41 45z" />
<glyph unicode="&#xea;" horiz-adv-x="1114" d="M80 633q0 75 8 232t8 192q0 237 -6 313q-2 22 7.5 33.5t29 14t38.5 1t46 -4.5t41 -3q25 0 153.5 6t190.5 6q61 0 201.5 -3t154.5 -3q10 0 17.5 -3t11 -6t5 -10t2 -11t0 -13t-0.5 -12v-23q0 -47 -8 -47q-10 0 -27.5 3t-38.5 3h-327l-254 2q-11 0 -92 -6l-47 -4l-5 -55 q-2 -31 -2 -96q0 -30 4.5 -83t4.5 -75v-82q0 -33 2 -51q18 -2 55 -2h82q14 0 60 4t81 4q38 0 95.5 -4t64.5 -4q9 0 43.5 3t62.5 3q18 0 69.5 -3t72.5 -3q22 0 30 2q2 0 6.5 1t6.5 1q15 0 20.5 -9.5t3.5 -17.5q-1 -5 -2 -35t-2 -38v-4q-2 -12 -6.5 -15.5t-24.5 -3.5 q-8 0 -122.5 11.5t-159.5 11.5q-160 0 -256 -7q-27 -4 -121 -4q-39 0 -57 2l-6 -32q-5 -45 -5 -66q0 -23 4.5 -57t4.5 -58l2 -243q0 -18 -1 -53t-1 -50q-2 -18 -2 -51q27 -2 77 -2q43 -2 134 -2q38 0 109 -2t108 -2q39 0 106 3t92 3q31 0 77 -2t54 -2q9 0 13.5 -1.5 t6.5 -6.5t2.5 -9.5t0.5 -15.5q0 -8 -2 -29.5t-2 -33.5q0 -14 -10 -19.5t-33 -5.5t-37 2q-56 6 -223 6q-48 0 -131.5 -2t-130.5 -2q-63 0 -159.5 2t-109.5 2q-28 0 -37.5 7.5t-9.5 23.5q0 5 1 16t1 17q2 8 2 18q0 4 -1 15t-2 36.5t-1 65.5q0 61 -5 206.5t-5 215.5zM262 1534 q0 17 14 25l56 34q3 1 15 6.5t19.5 9.5t25 16t38.5 28q80 46 107 53q19 8 36 8q8 2 23 2q11 0 21 -2.5t15.5 -5t19.5 -10.5t22 -12q25 -18 137 -89q1 -1 9 -5.5t13 -8t13.5 -9.5t14.5 -11t11.5 -11t7.5 -12t1 -12q-8 -31 -33 -31q-15 0 -55 14l-56 15q-26 10 -71 37l-66 30 l-94 -43q-43 -22 -117 -43q-41 -6 -78 -6q-23 0 -36 10t-13 23z" />
<glyph unicode="&#xeb;" horiz-adv-x="1114" d="M80 633q0 75 8 232t8 192v117q0 35 -3 90t-3 71q0 43 60 43q17 0 52 -4t50 -4q25 0 153.5 6t190.5 6q61 0 201.5 -3t154.5 -3q10 0 17.5 -3t11 -6t5 -10t2 -11t0 -13t-0.5 -12v-23q0 -47 -8 -47q-10 0 -27.5 3t-38.5 3h-327l-254 3q-14 0 -30 -1t-34.5 -3t-27.5 -3 l-47 -4l-5 -55q-2 -23 -2 -61q0 -29 4.5 -80t4.5 -72v-82q0 -33 2 -51q18 -2 55 -2h82q14 0 60 4t81 4q38 0 95.5 -4t64.5 -4q9 0 43.5 3t62.5 3q18 0 69.5 -3t72.5 -3q22 0 30 2q2 0 6.5 1t6.5 1q15 0 20.5 -9.5t3.5 -17.5q-1 -5 -2 -35t-2 -38v-4q-2 -12 -6.5 -15.5 t-24.5 -3.5q-8 0 -122.5 11.5t-159.5 11.5q-160 0 -256 -7q-27 -4 -121 -4q-39 0 -57 2l-6 -32q-5 -45 -5 -66q0 -23 4.5 -57t4.5 -58l2 -243q0 -18 -1 -53t-1 -50q-2 -18 -2 -51q27 -2 77 -2q43 -2 134 -2q38 0 109 -2t108 -2q39 0 106 3t92 3q31 0 77 -2t54 -2 q9 0 13.5 -1.5t6.5 -6.5t2.5 -9.5t0.5 -15.5q0 -8 -2 -29.5t-2 -33.5q0 -14 -10 -19.5t-33 -5.5t-37 2q-56 6 -223 6q-48 0 -131.5 -2t-130.5 -2q-63 0 -159.5 2t-109.5 2q-28 0 -37.5 7.5t-9.5 23.5q0 5 1 16t1 17q2 8 2 18q0 4 -1 15t-2 36.5t-1 65.5q0 61 -5 206.5 t-5 215.5zM231 1593q0 43 32.5 78t78.5 35q53 0 94 -27t41 -77q0 -38 -22 -68.5t-50.5 -44.5t-54.5 -14q-45 0 -82 33t-37 85zM700 1593q0 23 5.5 42.5t14.5 32.5t22.5 22.5t26.5 15t29 9t28.5 4.5t25.5 1q39 0 63.5 -38.5t24.5 -88.5q0 -29 -13.5 -53t-43.5 -40.5 t-72 -16.5q-25 0 -45 7t-32 17.5t-20 25.5t-11 29.5t-3 30.5z" />
<glyph unicode="&#xec;" horiz-adv-x="526" d="M-35 1655q0 28 39 45q29 16 45 16q10 0 64 -16q100 -43 176 -60q2 -1 23.5 -9t33.5 -14t27 -18t18 -26q4 -20 4 -27q0 -25 -21.5 -30t-56.5 2q-22 -3 -71 8l-45 16q-46 21 -81 29t-46 14q-26 7 -62.5 22t-40.5 25q-6 12 -6 23zM78 47q-3 17 4.5 78t7.5 96q0 41 13.5 252 t13.5 236q0 27 4 195t4 192q0 32 4 110l4 74v86q0 46 10.5 63t30.5 17q10 0 16 -2q10 -1 72 0.5t90 -2.5q17 -2 27 -6.5t14 -11t4 -15.5q0 -7 -2.5 -22.5t-3.5 -22.5q-22 -173 -24 -358q-2 -53 -2 -164q0 -86 2 -197t2 -115q0 -14 3 -105.5t3 -133.5q0 -25 -2 -47.5 t-2 -46.5q0 -32 2 -97t2 -77q1 -26 -16 -33.5t-46 -5.5h-186q-17 -1 -27 3t-14.5 15.5t-5.5 18.5t-2 26z" />
<glyph unicode="&#xed;" horiz-adv-x="526" d="M55 1565q0 4 4 20q3 9 41.5 26.5t61.5 24.5q12 7 45.5 17t79.5 30l45 17q44 14 71 14q32 4 41 4q23 0 32 -12.5t3 -44.5q-7 -23 -41 -43t-59 -27q-105 -35 -174 -67q-55 -19 -66 -19q-19 0 -43 15q-41 14 -41 45zM82 47q-3 17 4.5 78t7.5 96q0 41 13.5 252t13.5 236 q0 27 4 195t4 192q0 32 4 110l4 74v86q0 46 10.5 63t30.5 17q11 0 17 -2q10 -1 71.5 0.5t89.5 -2.5q25 -3 35 -11t10 -22q0 -7 -2.5 -22.5t-3.5 -22.5q-22 -173 -24 -358q-2 -53 -2 -164q0 -86 2 -197t2 -115q0 -14 3 -105.5t3 -133.5q0 -25 -2 -47.5t-2 -46.5q0 -32 2 -97 t2 -77q1 -26 -16 -33.5t-46 -5.5h-186q-17 -1 -27 3t-14.5 15.5t-5.5 18.5t-2 26z" />
<glyph unicode="&#xee;" horiz-adv-x="526" d="M-72 1534q0 15 17 25l53 34q3 1 15 6.5t19.5 9.5t25 16t38.5 28q80 46 107 53q19 8 37 8q8 2 22 2q11 0 21 -2.5t15.5 -5t19.5 -10.5t22 -12q25 -18 137 -89q1 -1 9 -5.5t13 -8t13.5 -9.5t14.5 -11t11.5 -11t7.5 -12t1 -12q-8 -31 -33 -31q-15 0 -55 14l-56 15 q-26 10 -71 37l-66 30l-94 -43q-43 -22 -117 -43q-41 -6 -78 -6q-23 0 -36 10t-13 23zM82 47q-3 17 4.5 78t7.5 96q0 41 13.5 252t13.5 236q0 27 4 195t4 192q0 32 4 110l4 74v86q0 46 10.5 63t30.5 17q11 0 17 -2q10 -1 71.5 0.5t89.5 -2.5q25 -3 35 -11t10 -22 q0 -7 -2.5 -22.5t-3.5 -22.5q-22 -173 -24 -358q-2 -53 -2 -164q0 -86 2 -197t2 -115q0 -14 3 -105.5t3 -133.5q0 -25 -2 -47.5t-2 -46.5q0 -32 2 -97t2 -77q1 -26 -16 -33.5t-46 -5.5h-186q-17 -1 -27 3t-14.5 15.5t-5.5 18.5t-2 26z" />
<glyph unicode="&#xef;" horiz-adv-x="526" d="M-72 1593q0 43 32.5 78t78.5 35q53 0 94 -27t41 -77q0 -56 -42 -91.5t-85 -35.5q-45 0 -82 33t-37 85zM82 47q-3 17 4.5 78t7.5 96q0 41 13.5 252t13.5 236q0 27 4 195t4 192q0 32 4 110l4 74v86q0 46 10.5 63t30.5 17q11 0 17 -2q10 -1 71.5 0.5t89.5 -2.5q25 -3 35 -11 t10 -22q0 -7 -2.5 -22.5t-3.5 -22.5q-22 -173 -24 -358q-2 -53 -2 -164q0 -86 2 -197t2 -115q0 -14 3 -105.5t3 -133.5q0 -25 -2 -47.5t-2 -46.5q0 -32 2 -97t2 -77q1 -26 -16 -33.5t-46 -5.5h-186q-17 -1 -27 3t-14.5 15.5t-5.5 18.5t-2 26zM397 1593q0 21 4 38t12 29.5 t17.5 22.5t22 16t24.5 10.5t25.5 6.5t24 3t22.5 1q39 0 63.5 -38.5t24.5 -88.5q0 -29 -13.5 -53t-43.5 -40.5t-72 -16.5q-25 0 -45 7t-32 17.5t-20 25.5t-11 29.5t-3 30.5z" />
<glyph unicode="&#xf0;" horiz-adv-x="1181" d="M4 692v56q0 21 5 29.5t18 8.5h106q10 205 10 261q0 98 -2 220t-2 128q0 12 8.5 19t26.5 9.5t31.5 3t38.5 -0.5t32 -1l74 5q86 4 139 4q45 0 94.5 -8.5t111.5 -32t118.5 -60.5t111.5 -99t95.5 -141.5t65 -195t24.5 -252.5q0 -99 -20 -184t-52.5 -145.5t-79 -110t-94 -81.5 t-102.5 -55.5t-99.5 -35.5t-90.5 -19t-70 -8.5t-43 -1.5q-44 0 -150.5 -2t-128.5 -2q-39 0 -39 70q0 9 1 27t1 26q0 25 -3 99t-3 95q0 5 -5 106.5t-5 197.5v51h-2q-95 0 -105 -6q-8 0 -11.5 4t-4 8.5t-0.5 13.5zM412 438q116 15 186 41q78 29 114 92t38 172q0 172 -150 228 q-80 25 -172 28q6 -34 6 -73q0 -50 -8 -140h149q3 0 8 1t7 1q11 0 16 -5.5t5.5 -10.5t0.5 -18v-62q0 -14 -8.5 -20t-36.5 -6q-14 0 -38 1t-57 2.5t-50 2.5l-6 -127q-4 -70 -4 -107z" />
<glyph unicode="&#xf1;" horiz-adv-x="1171" d="M131 672q0 90 5 285t5 268q0 93 -6 137q-4 36 -4 47q0 27 7.5 42t18.5 19t27 3q50 -3 121 12q23 4 45 4q7 0 33.5 -2t60.5 -2q21 0 40 -9t33 -22t29 -34t24 -37t22 -40.5t20 -35.5q16 -31 60 -97l30 -47v113q0 112 3 158q0 16 6.5 27t14.5 16.5t23.5 8t25 3t26.5 0.5h8 q40 0 113 4.5t112 11.5q40 4 48 -17t1 -75q-4 -31 -4 -407v-463q0 -102 5.5 -296.5t8.5 -225.5q-4 -23 -32 -23q-8 0 -27 2t-30 2q-22 0 -79 -4t-79 -4q-39 0 -58.5 16.5t-39.5 59.5q-2 4 -55 113t-89 171q-24 39 -135 248l-90 170v-78q0 -16 -0.5 -45t-0.5 -53t1 -45 q0 -419 12 -485q2 -10 2 -25q0 -21 -8.5 -26t-30.5 -3q-69 0 -159 -12q-32 -4 -41 10t-7 64q0 27 -2.5 119.5t-7 235.5t-6.5 243zM281 1612v26v9v11t0.5 10.5t1.5 10.5t3 8.5t5.5 6.5t7.5 2q7 0 22 -4.5t41.5 -12t53.5 -12.5q16 0 31 1t30 3t25.5 4t29.5 5.5t31 5.5 q91 16 244 16q79 0 131 -8q19 -1 31.5 -4t17.5 -7.5t8 -10t2 -11t-0.5 -10.5t0.5 -9v-30q0 -33 -47 -33q-18 0 -63.5 12.5t-71.5 12.5q-56 -1 -125 -11t-90 -12q-22 -2 -47.5 -5t-42 -5.5t-41.5 -4t-53 -1.5q-135 0 -135 47zM1093 21q1 5 1 10l-1 -12v2z" />
<glyph unicode="&#xf2;" horiz-adv-x="1247" d="M82 770q0 135 45.5 265t118.5 225.5t170 154t196 58.5q144 0 192 -9q54 -10 91 -34q77 -52 138.5 -132.5t96.5 -161t58 -166t31 -144t8 -97.5q0 -40 -3.5 -86.5t-17.5 -123t-37.5 -145.5t-68.5 -144t-104.5 -129t-152.5 -89t-206 -35q-340 0 -483 396q-63 181 -72 397z M213 748q0 -100 13.5 -192t45 -177.5t78 -148.5t118 -100.5t159.5 -37.5q90 0 162.5 34t121.5 93t82.5 140.5t48.5 174t15 195.5q0 168 -49 309t-142 227.5t-211 86.5q-85 0 -114 -8q-43 -13 -76 -50l-21 -20q-20 -21 -28 -29t-31 -33.5t-35 -42.5t-33 -49t-33 -58.5 t-27.5 -64.5t-23.5 -74.5t-14 -82t-6 -92.5zM412 1655q0 28 39 45q29 16 45 16q9 0 63 -16q100 -43 176 -60q2 -1 23.5 -9t34 -14t27.5 -18t18 -26q4 -20 4 -27q0 -25 -21.5 -30t-56.5 2q-23 -3 -72 8l-45 16q-46 21 -81 29t-46 14q-26 7 -62 21.5t-40 25.5q-6 12 -6 23z " />
<glyph unicode="&#xf3;" horiz-adv-x="1247" d="M82 770q0 135 45.5 265t118.5 225.5t170 154t196 58.5q144 0 192 -9q54 -10 91 -34q77 -52 138.5 -132.5t96.5 -161t58 -166t31 -144t8 -97.5q0 -40 -3.5 -86.5t-17.5 -123t-37.5 -145.5t-68.5 -144t-104.5 -129t-152.5 -89t-206 -35q-340 0 -483 396q-63 181 -72 397z M213 748q0 -100 13.5 -192t45 -177.5t78 -148.5t118 -100.5t159.5 -37.5q90 0 162.5 34t121.5 93t82.5 140.5t48.5 174t15 195.5q0 168 -49 309t-142 227.5t-211 86.5q-85 0 -114 -8q-43 -13 -76 -50l-21 -20q-20 -21 -28 -29t-31 -33.5t-35 -42.5t-33 -49t-33 -58.5 t-27.5 -64.5t-23.5 -74.5t-14 -82t-6 -92.5zM473 1565q0 4 4 20q3 9 41.5 26.5t61.5 24.5q12 7 45.5 17t79.5 30l45 17q44 14 71 14q32 4 41 4q23 0 32 -12.5t3 -44.5q-7 -23 -41 -43t-59 -27q-105 -35 -174 -67q-55 -19 -66 -19q-19 0 -43 15q-41 14 -41 45z" />
<glyph unicode="&#xf4;" horiz-adv-x="1247" d="M82 770q0 135 45.5 265t118.5 225.5t170 154t196 58.5q144 0 192 -9q54 -10 91 -34q77 -52 138.5 -132.5t96.5 -161t58 -166t31 -144t8 -97.5q0 -40 -3.5 -86.5t-17.5 -123t-37.5 -145.5t-68.5 -144t-104.5 -129t-152.5 -89t-206 -35q-340 0 -483 396q-63 181 -72 397z M213 748q0 -100 13.5 -192t45 -177.5t78 -148.5t118 -100.5t159.5 -37.5q90 0 162.5 34t121.5 93t82.5 140.5t48.5 174t15 195.5q0 168 -49 309t-142 227.5t-211 86.5q-85 0 -114 -8q-43 -13 -76 -50l-21 -20q-20 -21 -28 -29t-31 -33.5t-35 -42.5t-33 -49t-33 -58.5 t-27.5 -64.5t-23.5 -74.5t-14 -82t-6 -92.5zM360 1534q0 16 15 25l55 34q3 1 15 6.5t19.5 9.5t25 16t38.5 28q80 46 107 53q19 8 37 8q8 2 22 2q11 0 21 -2.5t15.5 -5t19.5 -10.5t22 -12q25 -18 137 -89q1 -1 9 -5.5t13 -8t13.5 -9.5t14.5 -11t11.5 -11t7.5 -12t1 -12 q-8 -31 -33 -31q-15 0 -55 14l-55 15q-29 11 -72 37l-66 30l-94 -43q-43 -22 -117 -43q-41 -6 -77 -6q-23 0 -36.5 10t-13.5 23z" />
<glyph unicode="&#xf5;" horiz-adv-x="1247" d="M82 770q0 135 45.5 265t118.5 225.5t170 154t196 58.5q144 0 192 -9q54 -10 91 -34q77 -52 138.5 -132.5t96.5 -161t58 -166t31 -144t8 -97.5q0 -40 -3.5 -86.5t-17.5 -123t-37.5 -145.5t-68.5 -144t-104.5 -129t-152.5 -89t-206 -35q-340 0 -483 396q-63 181 -72 397z M213 748q0 -100 13.5 -192t45 -177.5t78 -148.5t118 -100.5t159.5 -37.5q90 0 162.5 34t121.5 93t82.5 140.5t48.5 174t15 195.5q0 168 -49 309t-142 227.5t-211 86.5q-85 0 -114 -8q-43 -13 -76 -50l-21 -20q-20 -21 -28 -29t-31 -33.5t-35 -42.5t-33 -49t-33 -58.5 t-27.5 -64.5t-23.5 -74.5t-14 -82t-6 -92.5zM326 1612v26v9v11t0.5 10.5t1.5 10.5t3 8.5t5.5 6.5t7.5 2q7 0 22 -4.5t41.5 -12t53.5 -12.5q39 0 147 19q91 16 244 16q79 0 131 -8q27 -1 41 -8t16 -13t1.5 -17t0.5 -14v-30q0 -33 -47 -33q-18 0 -63.5 12.5t-71.5 12.5 q-56 -1 -125 -11t-90 -12q-26 -2 -59 -6.5t-61.5 -7t-63.5 -2.5q-135 0 -135 47z" />
<glyph unicode="&#xf6;" horiz-adv-x="1247" d="M82 770q0 135 45.5 265t118.5 225.5t170 154t196 58.5q144 0 192 -9q54 -10 91 -34q77 -52 138.5 -132.5t96.5 -161t58 -166t31 -144t8 -97.5q0 -40 -3.5 -86.5t-17.5 -123t-37.5 -145.5t-68.5 -144t-104.5 -129t-152.5 -89t-206 -35q-340 0 -483 396q-63 181 -72 397z M213 748q0 -100 13.5 -192t45 -177.5t78 -148.5t118 -100.5t159.5 -37.5q90 0 162.5 34t121.5 93t82.5 140.5t48.5 174t15 195.5q0 168 -49 309t-142 227.5t-211 86.5q-85 0 -114 -8q-43 -13 -76 -50l-21 -20q-20 -21 -28 -29t-31 -33.5t-35 -42.5t-33 -49t-33 -58.5 t-27.5 -64.5t-23.5 -74.5t-14 -82t-6 -92.5zM336 1593q0 43 32 78t78 35q53 0 94.5 -27t41.5 -77q0 -56 -42 -91.5t-85 -35.5q-45 0 -82 33t-37 85zM805 1593q0 127 151 127q39 0 63.5 -38.5t24.5 -88.5q0 -45 -33.5 -77.5t-95.5 -32.5q-60 0 -85 32.5t-25 77.5z" />
<glyph unicode="&#xf7;" d="M47 655v101q0 25 8.5 36t36.5 11h811q27 2 43 0.5t22.5 -9t7.5 -13t1 -19.5v-107q0 -20 -17 -27t-71 -7q-15 0 -119.5 4t-234.5 4h-248q-174 0 -207 -8q-15 0 -23 5.5t-9 11t-1 17.5zM342 1176q0 54 50 91.5t112 37.5q67 0 114.5 -46t47.5 -133q0 -84 -45 -118.5 t-107 -34.5q-47 0 -80.5 15t-51 35t-27 51t-11.5 52.5t-2 49.5zM365 289q0 70 37 123t112 53q74 0 121 -57.5t47 -118.5q0 -59 -46 -107.5t-116 -48.5q-63 0 -109 45t-46 111z" />
<glyph unicode="&#xf8;" horiz-adv-x="1341" d="M90 -53q0 7 10 24q2 2 5 4q9 6 12 12q10 16 30 44l117 172q-71 107 -108.5 249.5t-44.5 317.5q0 135 45.5 265t118.5 225.5t170 154t196 58.5q144 0 192 -9q54 -10 91 -34q47 -31 94 -78q24 39 53 70.5t47 37.5q71 0 92 -8q12 -4 -6.5 -48t-48.5 -83l-53 -78 q81 -128 117 -276.5t36 -237.5q0 -40 -3.5 -86t-17.5 -123t-37 -146t-68 -144t-105 -129t-152.5 -89t-205.5 -35q-192 0 -318 123q-47 -69 -61 -98q-4 -9 -8.5 -16t-7.5 -12t-8 -9.5t-7.5 -7t-8 -6t-7.5 -5t-9.5 -5t-9.5 -4.5q-20 -17 -53 -17q-24 0 -51 7t-27 20zM242 748 q0 -269 90 -445q75 115 123 197q48 76 205.5 308.5t173.5 256.5q46 57 104 154q-107 133 -254 133h-16q-33 0 -49.5 -1t-41.5 -6t-44.5 -17.5t-38.5 -33.5l-20.5 -20.5l-28.5 -28.5t-31 -33.5t-35 -42.5t-33 -49t-33 -58.5t-27.5 -64.5t-23.5 -74.5t-14 -82t-6 -92.5z M410 195q100 -103 245 -103q90 0 162.5 34t121.5 93t82.5 140.5t48.5 174t15 195.5q0 212 -77 379q-77 -114 -95 -145q-24 -34 -73 -111.5t-95 -151t-91 -143.5t-64 -94q-86 -121 -180 -268z" />
<glyph unicode="&#xf9;" horiz-adv-x="1208" d="M119 561q0 58 5 248t3 250q0 81 -3 206t-3 132q0 5 -0.5 19t0 19t2.5 14t7 12.5t14 6t22 2.5q70 -4 106 -4q24 0 71 4.5t71 4.5q20 0 49 -1t33 -1q19 0 23.5 -8.5t6.5 -34.5v-820v-6q0 -24 0.5 -38.5t7 -41t18 -42.5t35.5 -29t58 -13q43 0 72.5 20t42.5 53.5t17.5 61.5 t4.5 58q0 14 4.5 149t4.5 207q0 48 -3 78q0 56 -6 185t-6 147q0 37 10 51t39 14h260q3 0 14 1t17 1q21 0 34 -12.5t17 -48.5q4 -35 4 -242q0 -94 -1 -253.5t-1 -186.5q0 -35 -3.5 -79t-16.5 -116t-34 -138t-61.5 -137t-93.5 -122.5t-134.5 -85t-180.5 -33.5q-78 0 -145 13 t-115.5 33.5t-89 51.5t-66.5 61t-46 70t-30.5 69.5t-18 67.5t-9.5 56.5t-4 44.5q-2 20 -2 82zM352 1655q0 28 39 45q29 16 45 16q10 0 64 -16q100 -43 176 -60q2 -1 23.5 -9t33.5 -14t27 -18t18 -26q4 -20 4 -27q0 -25 -21 -30t-56 2q-23 -3 -72 8l-45 16q-46 21 -81 29 t-46 14q-26 7 -62.5 22t-40.5 25q-6 12 -6 23z" />
<glyph unicode="&#xfa;" horiz-adv-x="1208" d="M119 561q0 58 5 248t3 250q0 81 -3 206t-3 132q0 5 -0.5 19t0 19t2.5 14t7 12.5t14 6t22 2.5q70 -4 106 -4q24 0 71 4.5t71 4.5q20 0 49 -1t33 -1q19 0 23.5 -8.5t6.5 -34.5v-820v-6q0 -24 0.5 -38.5t7 -41t18 -42.5t35.5 -29t58 -13q43 0 72.5 20t42.5 53.5t17.5 61.5 t4.5 58q0 14 4.5 149t4.5 207q0 48 -3 78q0 56 -6 185t-6 147q0 37 10 51t39 14h260q3 0 14 1t17 1q21 0 34 -12.5t17 -48.5q4 -35 4 -242q0 -94 -1 -253.5t-1 -186.5q0 -35 -3.5 -79t-16.5 -116t-34 -138t-61.5 -137t-93.5 -122.5t-134.5 -85t-180.5 -33.5q-78 0 -145 13 t-115.5 33.5t-89 51.5t-66.5 61t-46 70t-30.5 69.5t-18 67.5t-9.5 56.5t-4 44.5q-2 20 -2 82zM446 1565l5 20q3 9 41.5 26.5t60.5 24.5q12 7 45.5 17t79.5 30l45 17q44 14 72 14q32 4 41 4q23 0 31.5 -12.5t2.5 -44.5q-7 -23 -41 -43t-59 -27q-105 -35 -174 -67 q-55 -19 -66 -19q-19 0 -43 15q-41 14 -41 45z" />
<glyph unicode="&#xfb;" horiz-adv-x="1208" d="M119 561q0 58 5 248t3 250q0 81 -3 206t-3 132q0 5 -0.5 19t0 19t2.5 14t7 12.5t14 6t22 2.5q70 -4 106 -4q24 0 71 4.5t71 4.5q20 0 49 -1t33 -1q19 0 23.5 -8.5t6.5 -34.5v-820v-6q0 -24 0.5 -38.5t7 -41t18 -42.5t35.5 -29t58 -13q43 0 72.5 20t42.5 53.5t17.5 61.5 t4.5 58q0 14 4.5 149t4.5 207q0 48 -3 78q0 56 -6 185t-6 147q0 37 10 51t39 14h260q3 0 14 1t17 1q21 0 34 -12.5t17 -48.5q4 -35 4 -242q0 -94 -1 -253.5t-1 -186.5q0 -35 -3.5 -79t-16.5 -116t-34 -138t-61.5 -137t-93.5 -122.5t-134.5 -85t-180.5 -33.5q-78 0 -145 13 t-115.5 33.5t-89 51.5t-66.5 61t-46 70t-30.5 69.5t-18 67.5t-9.5 56.5t-4 44.5q-2 20 -2 82zM330 1534q0 17 14 25l55 34q3 2 15 7t20 9t25.5 16t38.5 28q81 46 106 53q19 8 37 8q8 2 23 2q11 0 21 -2.5t15.5 -5.5t18.5 -10.5t22 -11.5q16 -12 138 -89q1 -1 9 -5.5t13 -8 t13.5 -9.5t14 -11t11 -11t7.5 -12t1 -12q-8 -31 -33 -31q-15 0 -55 14l-55 15q-29 11 -72 37l-65 30l-95 -43q-44 -23 -116 -43q-41 -6 -78 -6q-23 0 -36 10t-13 23z" />
<glyph unicode="&#xfc;" horiz-adv-x="1208" d="M119 561q0 58 5 248t3 250q0 81 -3 206t-3 132q0 5 -0.5 19t0 19t2.5 14t7 12.5t14 6t22 2.5q70 -4 106 -4q24 0 71 4.5t71 4.5q20 0 49 -1t33 -1q19 0 23.5 -8.5t6.5 -34.5v-820v-6q0 -24 0.5 -38.5t7 -41t18 -42.5t35.5 -29t58 -13q43 0 72.5 20t42.5 53.5t17.5 61.5 t4.5 58q0 14 4.5 149t4.5 207q0 48 -3 78q0 56 -6 185t-6 147q0 37 10 51t39 14h260q3 0 14 1t17 1q21 0 34 -12.5t17 -48.5q4 -35 4 -242q0 -94 -1 -253.5t-1 -186.5q0 -35 -3.5 -79t-16.5 -116t-34 -138t-61.5 -137t-93.5 -122.5t-134.5 -85t-180.5 -33.5q-78 0 -145 13 t-115.5 33.5t-89 51.5t-66.5 61t-46 70t-30.5 69.5t-18 67.5t-9.5 56.5t-4 44.5q-2 20 -2 82zM299 1593q0 43 32.5 78t78.5 35q53 0 94 -27t41 -77q0 -56 -42 -91.5t-85 -35.5q-45 0 -82 33t-37 85zM768 1593q0 40 15 67t41 39t48.5 16.5t47.5 4.5q39 0 63.5 -38.5 t24.5 -88.5q0 -45 -33.5 -77.5t-95.5 -32.5q-60 0 -85.5 32.5t-25.5 77.5z" />
<glyph unicode="&#xfd;" horiz-adv-x="1040" d="M70 1386q0 8 6 14t19 9t24.5 4.5t31.5 1.5t30 -0.5t29.5 -2t22.5 -1.5q15 -3 20 -7.5t6 -17t3 -18.5l51 -170q23 -69 93 -245t98 -275q10 33 47 139q13 39 57 154.5t58 146.5q59 174 73 236q4 17 10 28.5t10.5 18t14.5 9.5t13.5 3.5t16 0t13.5 -0.5q3 0 43 1t68 1 q131 0 131 -24q0 -3 -4 -19q-1 -2 -32.5 -96.5t-51.5 -140.5q-14 -41 -87 -228t-89 -231q-35 -82 -110.5 -273t-80.5 -215q-5 -16 -11.5 -45t-12.5 -63t-7 -41q-6 -25 -12.5 -33.5t-19.5 -7.5l-121 -2q-15 0 -80 -1t-82 -1q-27 0 -27 12q0 3 4 11.5t5 11.5l73 198 q3 19 26.5 78t27.5 74q3 8 8 19t8 17.5t5.5 14t2 14t-3.5 13.5q-4 8 -26 79t-35 99q-13 30 -31.5 93.5t-28.5 90.5q-17 40 -79.5 224.5t-77.5 234.5q-8 26 -23.5 61t-15.5 47zM283 1565q0 4 4 20q3 9 41.5 26.5t60.5 24.5q12 7 45.5 17t79.5 30l45 17q44 14 72 14q32 4 41 4 q23 0 32 -12.5t3 -44.5q-7 -23 -41 -43t-60 -27q-105 -35 -174 -67q-7 -3 -19 -7l-18 -6t-14 -4t-14 -2q-19 0 -43 15q-41 14 -41 45z" />
<glyph unicode="&#xfe;" horiz-adv-x="1130" d="M131 59q0 2 4 75t4 104v479q0 82 8 178l9 135q0 101 2 230q3 194 35 194q16 -2 45 -2q12 0 33 1t33.5 0.5t23.5 -3.5q16 -3 49.5 2t62.5 2q20 0 17 -137q1 -11 1.5 -15t1.5 -10t1.5 -48t1.5 -124h99.5t86.5 -1.5t83.5 -4t69 -7.5t65.5 -13t52.5 -19t49.5 -27t37 -36 q5 -6 27.5 -32.5t30 -37t24 -37.5t23.5 -47.5t13 -53t6 -67.5q0 -100 -29.5 -180.5t-81.5 -133t-111 -85t-128 -49.5q-177 -17 -350 -17q-10 -56 -10 -151l2 -62q0 -61 -49 -61q-9 0 -24 2t-21 2q-16 0 -79 -4t-79 -4q-23 0 -31 16t-8 49zM432 379q27 0 78.5 -7t75.5 -7 q16 1 80 3t102 7.5t66 19.5q73 23 108 80t35 168q0 88 -16 184q-11 58 -55 99.5t-98 61t-122 28.5q-55 8 -131 8q-33 0 -111 -4z" />
<glyph unicode="&#xff;" horiz-adv-x="1040" d="M70 1386q0 8 6 14t19 9t24.5 4.5t31.5 1.5t30 -0.5t29.5 -2t22.5 -1.5q15 -3 20 -7.5t6 -17t3 -18.5l51 -170q23 -69 93 -245t98 -275q10 33 47 139q13 39 57 154.5t58 146.5q59 174 73 236q4 17 10 28.5t10.5 18t14.5 9.5t13.5 3.5t16 0t13.5 -0.5q3 0 43 1t68 1 q131 0 131 -24q0 -3 -4 -19q-1 -2 -32.5 -96.5t-51.5 -140.5q-14 -41 -87 -228t-89 -231q-35 -82 -110.5 -273t-80.5 -215q-5 -16 -11.5 -45t-12.5 -63t-7 -41q-6 -25 -12.5 -33.5t-19.5 -7.5l-121 -2q-15 0 -80 -1t-82 -1q-27 0 -27 12q0 3 4 11.5t5 11.5l73 198 q3 19 26.5 78t27.5 74q3 8 8 19t8 17.5t5.5 14t2 14t-3.5 13.5q-4 8 -26 79t-35 99q-13 30 -31.5 93.5t-28.5 90.5q-17 40 -79.5 224.5t-77.5 234.5q-8 26 -23.5 61t-15.5 47zM176 1593q0 43 32.5 78t78.5 35q53 0 94 -27t41 -77q0 -38 -22 -68.5t-50.5 -44.5t-54.5 -14 q-28 0 -55 13.5t-45.5 41.5t-18.5 63zM645 1593q0 23 5.5 42.5t14.5 32.5t22.5 22.5t26.5 15t29 9t28.5 4.5t25.5 1q39 0 63.5 -38.5t24.5 -88.5q0 -45 -33.5 -77.5t-95.5 -32.5q-25 0 -45 7t-32 17.5t-20 25.5t-11 29.5t-3 30.5z" />
<glyph unicode="&#x152;" horiz-adv-x="1845" d="M113 715q0 77 11.5 159t34 166.5t60 159.5t86 134t115.5 93.5t145 34.5q131 0 226 -61t151 -164l4 152q0 27 9.5 36t29.5 9q5 0 15.5 -1t15.5 -1q8 0 57 -3.5t103 -3.5q45 0 158.5 9.5t127.5 9.5q48 0 131 -4t97 -4q27 0 35 -13t8 -45q0 -18 4 -63t4 -74v-14 q0 -25 -6 -60q-2 -30 -29 -30q-6 0 -14.5 2t-17.5 4.5t-13 3.5q-31 6 -178 6q-25 0 -71 2t-69 2q-26 0 -77 -3t-82 -3q-29 0 -68.5 1t-40.5 1q-13 0 -16.5 -6.5t-3.5 -22.5q0 -41 -3 -114t-3 -115v-127q0 -7 1 -20t1 -19q16 -2 55 -2q35 -2 143 -2q37 0 119 4l78 4 q28 0 60 -3t40 -3q16 0 21.5 -6.5t5.5 -18.5q0 -4 -2 -22t-2 -41q0 -35 1 -70t1 -59q0 -19 -4.5 -26t-14.5 -7q-3 0 -15.5 3t-20.5 3q-29 0 -80 2t-105 2q-58 0 -112.5 -4t-88 -8t-40.5 -4q-23 0 -27 2q-10 0 -12 2v-205q14 0 22 2q6 0 25 1t32 1q18 0 104 1t138 1 q28 0 154 -4q41 0 99.5 1t70.5 1q24 0 32.5 -11t8.5 -32q0 -6 -1 -20.5t-1 -20.5q0 -18 -1 -64.5t-1 -78.5q0 -14 -3.5 -23t-7 -14t-15 -7t-18 -2t-25.5 0.5t-30 0.5q-35 0 -158.5 2t-181.5 2t-188 -4t-135 -4q-2 0 -6.5 -1t-6.5 -1q-3 0 -5.5 0.5t-4 2l-2.5 2.5t-2 3.5 t-1.5 4t-0.5 5.5v5.5v6v5.5q-2 23 -2 75q0 8 -4 66q-22 -39 -53 -74q-67 -74 -147.5 -108.5t-155.5 -34.5q-92 0 -165.5 27.5t-121.5 70t-83 109t-53 128t-28.5 145t-13 143t-2.5 137.5zM481 715q0 -40 7 -80t21 -77t40 -60t59 -23q53 0 85 65t32 152q0 59 -12.5 107.5 t-43.5 82t-77 33.5q-25 0 -44 -8.5t-30.5 -25t-19 -34.5t-11.5 -43t-5 -44.5t-1 -44.5z" />
<glyph unicode="&#x153;" horiz-adv-x="2099" d="M106 770q0 135 45.5 265t119 225.5t170.5 154t196 58.5h25q67 0 101 -1.5t80 -11.5t77 -30q120 -79 206 -240l31 -62v86q0 34 -3 89.5t-3 72.5q0 43 59 43q17 0 52.5 -4t50.5 -4q26 0 154.5 6t189.5 6t201.5 -3t154.5 -3q10 0 17.5 -3t11 -6t5 -10t2 -11t0 -13t-0.5 -12 v-43q0 -27 -8 -27q-9 0 -17.5 1.5t-20 3t-28.5 1.5h-389q-24 0 -71 1t-68 1h-53q-12 0 -93 -6l-47 -4q-3 -27 -6 -151q0 -30 4 -83t4 -75v-82q0 -33 2 -51q18 -2 56 -2h82q14 0 60 4t81 4q38 0 95.5 -4t64.5 -4q10 0 44.5 3t61.5 3q18 0 69.5 -3t72.5 -3q22 0 30 2 q2 0 6.5 1t6.5 1q15 0 20.5 -9.5t3.5 -17.5q-1 -5 -2 -35t-2 -38v-4q-2 -12 -6.5 -15.5t-24.5 -3.5q-8 0 -122.5 11.5t-159.5 11.5q-160 0 -256 -7q-40 -4 -64 -4h-57q-39 0 -57 2l-7 -32q-1 -4 -1.5 -11.5t-1 -21.5t-1.5 -25q0 -30 4 -65.5t4 -57.5v-47q0 -20 1.5 -66.5 t1.5 -70.5v-59q0 -18 -1.5 -53t-1.5 -50q-2 -18 -2 -51q27 -2 78 -2q23 -2 68 -2h65q38 0 109 -2t108 -2q39 0 106.5 3t92.5 3q32 0 78 -2t53 -2q11 0 16 -4t6 -9.5t1 -19.5q0 -8 -2 -29.5t-2 -33.5q0 -14 -10 -19.5t-33 -5.5t-37 2q-55 6 -223 6q-103 0 -148 -2 q-11 0 -37 -1t-41 -1q-42 0 -124 2t-113 2h-68q-28 0 -37.5 7.5t-9.5 23.5q0 5 1 16t1 17q2 8 2 18q0 4 -1 15t-2 36.5t-1 65.5v63q-152 -297 -489 -297q-341 0 -484 396q-63 181 -72 397zM238 748q0 -83 9.5 -160.5t29.5 -152.5t53.5 -136t78 -108t106.5 -73t136 -26 q90 0 162.5 34t121.5 93t82.5 140.5t48.5 174t15 195.5q0 125 -28.5 238t-80 198.5t-127.5 136t-165 50.5h-16q-33 0 -50 -1t-42 -6t-44.5 -17.5t-38.5 -33.5l-13 -13q-22 -21 -35.5 -35t-41.5 -47t-46.5 -61.5t-42 -74t-38 -90.5t-24.5 -104t-10 -121z" />
<glyph unicode="&#x178;" horiz-adv-x="1083" d="M70 1386q0 29 94 29q31 0 49 -2q68 0 84 -2q16 -3 21 -7t6 -17.5t2 -18.5q18 -70 53 -170q53 -169 63 -192q57 -140 90 -254l17 51q8 32 29 88q23 65 43 115q3 11 21.5 57t23.5 55q38 75 75 236q4 17 10 28.5t10.5 18t14.5 9.5t13 3.5t15.5 0t14.5 -0.5t15.5 0.5 t27.5 0.5h33t35 -1.5t30 -3.5t22.5 -7t8.5 -11q0 -3 -4 -19q-1 -2 -32.5 -96.5t-51.5 -140.5q-62 -144 -178 -459q-16 -48 -101 -259.5t-89 -228.5q-5 -16 -11.5 -45t-12.5 -63t-7 -41q-9 -44 -33 -41h-55q-12 -2 -82 -2q-41 -2 -76 -2q-25 0 -25 12q0 3 4 11.5t5 11.5 t33 91t38 107q4 15 14.5 43.5t23.5 62t18 46.5q3 7 8 19t7.5 17.5t4.5 13.5t1.5 14.5t-3.5 13.5t-24.5 78.5t-34.5 99.5q-13 30 -31.5 93.5t-28.5 90.5q-17 46 -81 232.5t-76 226.5q-8 27 -24.5 61.5t-16.5 46.5zM154 1593q0 43 32 78t78 35q53 0 94 -27t41 -77 q0 -56 -42 -91.5t-85 -35.5q-45 0 -81.5 33t-36.5 85zM623 1593q0 127 151 127q39 0 63.5 -38.5t24.5 -88.5q0 -45 -33.5 -77.5t-95.5 -32.5q-60 0 -85 32.5t-25 77.5z" />
<glyph unicode="&#x2c6;" horiz-adv-x="737" d="M57 1534q0 16 15 25l55 34q3 1 15 6.5t19.5 9.5t25 16t38.5 28q80 46 107 53q19 8 37 8q8 2 22 2q11 0 21 -2.5t15.5 -5t19.5 -10.5t22 -12q25 -18 137 -89q1 -1 9 -5.5t13 -8t13.5 -9.5t14.5 -11t11.5 -11t7.5 -12t1 -12q-8 -31 -33 -31q-15 0 -55 14l-56 15 q-26 10 -71 37l-66 30l-94 -43q-43 -22 -117 -43q-40 -6 -78 -6q-23 0 -36 10t-13 23z" />
<glyph unicode="&#x2dc;" horiz-adv-x="966" d="M113 1612v26v9v11t0.5 10.5t1.5 10.5t3 8.5t5.5 6.5t7.5 2q7 0 22 -4.5t41.5 -12t53.5 -12.5q39 0 147 19q91 16 244 16q79 0 131 -8q27 -1 41 -8t16 -13t1.5 -17t0.5 -14v-30q0 -33 -47 -33q-18 0 -63.5 12.5t-71.5 12.5q-56 -1 -125 -11t-90 -12q-26 -2 -59 -6.5 t-61.5 -7t-63.5 -2.5q-135 0 -135 47z" />
<glyph unicode="&#x2000;" horiz-adv-x="865" />
<glyph unicode="&#x2001;" horiz-adv-x="1731" />
<glyph unicode="&#x2002;" horiz-adv-x="865" />
<glyph unicode="&#x2003;" horiz-adv-x="1731" />
<glyph unicode="&#x2004;" horiz-adv-x="577" />
<glyph unicode="&#x2005;" horiz-adv-x="432" />
<glyph unicode="&#x2006;" horiz-adv-x="288" />
<glyph unicode="&#x2007;" horiz-adv-x="288" />
<glyph unicode="&#x2008;" horiz-adv-x="216" />
<glyph unicode="&#x2009;" horiz-adv-x="346" />
<glyph unicode="&#x200a;" horiz-adv-x="96" />
<glyph unicode="&#x2010;" d="M123 635q0 12 22 12q7 0 31 -4h148q40 0 113.5 3t156.5 3h287q9 0 14 -4t5.5 -7.5t-0.5 -12.5t-1 -11v-106q0 -16 -22 -16q-4 0 -15 1t-16 1q-4 0 -56.5 -3.5t-82.5 -3.5q-11 0 -28.5 -0.5t-57 -1.5t-91.5 -2q-51 0 -88.5 -0.5t-57 -1t-26.5 -0.5q-18 -4 -67 -4 q-28 0 -71.5 2t-51.5 2q-14 0 -22 1t-11.5 4.5t-4 5.5t0 10.5t0.5 11.5q0 9 -3.5 39t-5 49.5t0.5 32.5z" />
<glyph unicode="&#x2011;" d="M123 635q0 12 22 12q7 0 31 -4h148q40 0 113.5 3t156.5 3h287q9 0 14 -4t5.5 -7.5t-0.5 -12.5t-1 -11v-106q0 -16 -22 -16q-4 0 -15 1t-16 1q-4 0 -56.5 -3.5t-82.5 -3.5q-11 0 -28.5 -0.5t-57 -1.5t-91.5 -2q-51 0 -88.5 -0.5t-57 -1t-26.5 -0.5q-18 -4 -67 -4 q-28 0 -71.5 2t-51.5 2q-14 0 -22 1t-11.5 4.5t-4 5.5t0 10.5t0.5 11.5q0 9 -3.5 39t-5 49.5t0.5 32.5z" />
<glyph unicode="&#x2012;" d="M123 635q0 12 22 12q7 0 31 -4h148q40 0 113.5 3t156.5 3h287q9 0 14 -4t5.5 -7.5t-0.5 -12.5t-1 -11v-106q0 -16 -22 -16q-4 0 -15 1t-16 1q-4 0 -56.5 -3.5t-82.5 -3.5q-11 0 -28.5 -0.5t-57 -1.5t-91.5 -2q-51 0 -88.5 -0.5t-57 -1t-26.5 -0.5q-18 -4 -67 -4 q-28 0 -71.5 2t-51.5 2q-14 0 -22 1t-11.5 4.5t-4 5.5t0 10.5t0.5 11.5q0 9 -3.5 39t-5 49.5t0.5 32.5z" />
<glyph unicode="&#x2013;" horiz-adv-x="1222" d="M139 684v102q0 26 11.5 38t42.5 12h808q32 2 50.5 0.5t25.5 -9t8.5 -13t1.5 -19.5v-111q0 -21 -20 -28t-84 -7h-84l-104 4q-70 4 -185 4h-188q-202 0 -246 -8q-14 0 -22 2.5t-11 9t-3.5 10t-0.5 13.5z" />
<glyph unicode="&#x2014;" horiz-adv-x="1413" d="M137 682v35q0 26 11 37.5t42 11.5h1002q32 2 50.5 0.5t25.5 -9t8.5 -13t1.5 -19.5v-43q0 -21 -20 -28t-84 -7h-84l-105 4q-70 4 -254 4h-311q-202 0 -246 -8q-14 0 -22 2.5t-11 9t-3.5 10t-0.5 13.5z" />
<glyph unicode="&#x2018;" horiz-adv-x="434" d="M72 1065v33.5v41t1.5 39t4 46t8 42t12.5 46.5q39 100 111 205q13 10 22 10q14 0 27 -10q12 -7 35 -19t32 -18t9 -11q-2 -13 -20.5 -33.5t-38 -50.5t-25.5 -65q-4 -25 -4 -59q0 -59 33 -70q27 -8 46 -21.5t29 -27.5t15.5 -36t6.5 -39t1 -46q0 -43 -46 -76t-100 -33 q-141 0 -159 152z" />
<glyph unicode="&#x2019;" horiz-adv-x="407" d="M43 1430q0 43 44.5 76.5t98.5 33.5q136 0 154 -154v-28.5v-35t-1 -33t-2.5 -39t-4.5 -36t-8 -41t-11 -38.5q-44 -115 -108 -207q-5 -8 -17 -8q-21 0 -48.5 24t-30.5 33q1 11 36 58.5t45 92.5q7 44 7 62q0 33 -11 50t-36 30q-79 45 -93 73t-14 87z" />
<glyph unicode="&#x201a;" horiz-adv-x="415" d="M51 168q0 43 45 77t99 34q135 0 153 -154v-34v-41.5t-1.5 -39.5t-4 -47t-8 -43t-12.5 -47q-43 -112 -109 -207q-8 -8 -18 -8q-16 0 -49.5 27t-47.5 30q7 30 39.5 70t42.5 82q13 41 13 59q0 40 -41 58q-80 45 -91 86q-10 48 -10 98z" />
<glyph unicode="&#x201c;" horiz-adv-x="927" d="M106 1065v29.5v36t1 34t2.5 40t4.5 36.5t8 41.5t11 38.5q41 110 109 211q10 10 20 10q12 0 25 -10q14 -9 35 -20.5t29.5 -18t8.5 -10.5q-1 -12 -36 -60.5t-45 -93.5q-5 -31 -5 -61q0 -61 33 -72q33 -10 53.5 -27t29 -42.5t11 -46.5t2.5 -58q0 -46 -44.5 -79.5 t-98.5 -33.5q-59 0 -101.5 35.5t-52.5 120.5zM532 1065v29.5v36t1 34t2.5 40t4.5 36.5t8 41.5t11 38.5q49 106 119 211q5 8 16 8q15 0 34.5 -14t31.5 -26.5t14 -16.5q-3 -14 -38 -61.5t-52 -90.5q-8 -49 -8 -88q0 -37 14.5 -47.5t61.5 -17.5q52 -16 67 -45.5t15 -96.5 q-5 -132 -160 -125q-70 12 -104 42.5t-38 111.5z" />
<glyph unicode="&#x201d;" horiz-adv-x="913" d="M92 1432q11 36 25.5 58.5t38 33t43 14t57.5 6.5q52 -2 87.5 -34.5t41.5 -92.5q4 -70 4 -100q0 -98 -27 -180q-43 -115 -108 -209q-7 -10 -16 -10q-20 0 -54 30.5t-41 44.5q1 11 36.5 59t45.5 93q9 74 6 92t-69 39q-44 23 -58 55t-12 101zM514 1432q0 46 44.5 79t98.5 33 q59 0 101.5 -35t52.5 -120v-25.5v-29.5t-0.5 -28.5t-2 -33t-3.5 -31.5t-5.5 -34.5t-8.5 -33t-11 -34.5q-36 -113 -104 -211q-13 -13 -29 -13q-20 0 -43.5 13t-37 28t-9.5 21q2 12 15 31t26 37.5t24 56.5t11 86q0 65 -33 72q-29 15 -47 31.5t-25 35t-8.5 30.5t-1.5 34 q0 29 -4 41z" />
<glyph unicode="&#x201e;" horiz-adv-x="903" d="M92 168q0 43 45 77t99 34q135 0 153 -154v-29v-35t-1 -33t-2.5 -39t-4.5 -36t-8 -41.5t-11 -38.5q-44 -115 -108 -207q-8 -8 -18 -8q-16 0 -49.5 27t-47.5 30q7 30 39.5 70t42.5 82q12 37 12 59q0 40 -40 58q-80 45 -91 86q-10 48 -10 98zM494 168q0 43 44.5 77t98.5 34 q30 0 46.5 -2.5t36 -13t34 -34t28.5 -63.5q21 -76 21 -137q0 -60 -25 -158q-52 -119 -123 -205q-10 -10 -18 -10q-10 0 -19 6q-28 18 -61 64q-3 21 7.5 38t32.5 44.5t36 56.5q14 35 14 57q0 40 -53 62q-79 45 -90 86q-10 48 -10 98z" />
<glyph unicode="&#x2022;" horiz-adv-x="591" d="M92 809q1 74 61 121t140 47q96 0 152 -59t57 -175q0 -51 -12.5 -89t-31 -59t-46.5 -34t-53.5 -16.5t-57.5 -3.5q-209 0 -209 268z" />
<glyph unicode="&#x2026;" horiz-adv-x="1443" d="M94 139q0 140 148 140q155 0 155 -183q0 -50 -48 -85.5t-107 -35.5q-61 0 -104.5 42t-43.5 122zM575 139q0 140 148 140q156 0 156 -183q0 -50 -48.5 -85.5t-107.5 -35.5q-61 0 -104.5 42t-43.5 122zM1057 139q0 140 147 140q156 0 156 -183q0 -50 -48.5 -85.5 t-107.5 -35.5q-61 0 -104 42t-43 122z" />
<glyph unicode="&#x202f;" horiz-adv-x="346" />
<glyph unicode="&#x2039;" horiz-adv-x="749" d="M18 692q3 45 88 191q91 151 101 180q35 83 45 129q6 36 24 54t43 18q13 0 49.5 2t57.5 2q129 0 172 -11q29 -6 29 -32q0 -22 -23 -60q-4 -7 -16.5 -32t-29 -54t-34.5 -53q-10 -13 -44.5 -65.5t-71.5 -94.5q-77 -98 -140 -180q31 -55 58 -90q15 -15 81.5 -102.5 t142 -189.5t75.5 -103q22 -19 22 -35q0 -10 -22 -10q-3 0 -25 -1t-35 -1q-37 0 -78 -2h-69q-10 0 -18.5 11.5t-19 33.5t-18.5 34q-7 7 -17.5 33t-27.5 47q-26 35 -69 111q-11 21 -68.5 86.5t-87.5 95.5q-27 27 -74 88z" />
<glyph unicode="&#x203a;" horiz-adv-x="780" d="M90 1255q0 11 23 11q3 0 24.5 1t34.5 1h96q55 2 92 2q8 0 15.5 -8t12.5 -19t13 -27t15 -26q6 -6 11 -18t13 -29.5t21 -34.5q27 -34 69 -109q10 -21 69 -89.5t85 -94.5q42 -42 76 -86q-3 -46 -90 -190q-88 -152 -101 -181q-36 -96 -43 -129q-11 -71 -67 -71 q-13 0 -49.5 -2t-57.5 -2q-133 0 -172 10q-28 6 -28 33q0 23 22 59q4 7 16.5 32.5t28.5 53.5t33 51q6 8 44 63.5t75 98.5q16 27 36.5 60.5t32 56t29.5 63.5q-34 60 -57 90q-15 15 -81.5 103.5t-141.5 189.5t-76 103q-23 26 -23 34z" />
<glyph unicode="&#x205f;" horiz-adv-x="432" />
<glyph unicode="&#x20ac;" d="M29 610q0 78 20 78q5 0 17 -1t20 -1h53q-2 29 -2 86q0 53 2 78h-47q-2 0 -6.5 -1t-5.5 -1q-33 0 -33 43v88q0 20 11.5 27.5t43.5 7.5l62 -2q24 96 66.5 175t93 131t107.5 88t109.5 51.5t100.5 15.5q55 0 106.5 -18t86 -42t65 -56t45 -53t23.5 -38q13 -31 -35 -62 q-57 -39 -72 -24q-31 55 -41 73q-34 47 -74 68.5t-116 21.5q-71 0 -140.5 -43t-111.5 -110q-48 -74 -84 -184h223q98 0 129 8q19 0 19 -35v-80q0 -27 -5.5 -38t-23.5 -11h-375q-4 -54 -4 -80q0 -34 6 -84h8q82 0 105 -6q81 -7 94 -12q17 0 89 5t87 5q4 2 10 2q23 0 23 -78 q0 -8 -1 -28t-1 -35q0 -50 -23 -50l-20 5h-330q22 -73 53 -135t74 -116t102 -85t127 -31q72 0 122.5 29.5t95.5 89.5q6 7 15.5 21.5t12.5 19.5q4 4 8 4q17 0 43.5 -26.5t26.5 -41.5q0 -8 -6 -14l-39 -57q-127 -144 -303 -144q-60 0 -127 31t-131 89t-119.5 152t-85.5 209 q-90 -4 -106 -4q-19 0 -26.5 8.5t-8.5 36.5q0 6 -1 34.5t-1 45.5z" />
<glyph unicode="&#x2122;" horiz-adv-x="1318" d="M63 1251q0 2 1.5 25t2.5 52.5t1 49.5q0 33 -2 37v4q0 19 18 19h100l131 2q19 0 108 -1t107 -1h7q15 0 23 -5t9 -9.5t0 -8.5q0 -2 -1 -30t-1 -56q0 -15 1 -39.5t1 -29.5q0 -29 -32 -29h-179q-2 -25 -2 -103q-4 -40 -4 -104q0 -49 1.5 -115t3 -113.5t1.5 -50.5 q0 -12 -3.5 -15t-12.5 -3h-70q-14 0 -16 12v23q0 11 5 159t5 179l-2 131q-32 0 -74 -0.5t-72.5 -1t-33.5 -0.5q-25 0 -21 22zM655 952q0 19 4.5 109t4.5 106l2 191q0 8 -1 29t-1 32q0 39 12 39q1 0 8.5 -3t15.5 -1h19q25 0 35 -2q5 -2 8.5 -6t6 -11.5l4 -12t4 -16.5t3.5 -15 q4 -25 31 -89.5t29 -72.5q24 -47 73 -166q3 -9 14.5 -37t16.5 -41l23 -47q33 66 108 215q87 175 94 186q15 38 38.5 73.5t41.5 35.5q8 0 8 -12q0 -6 -4 -27.5t-4 -32.5q-4 -10 -4 -114v-127q0 -28 -4 -110.5t-4 -96.5q-2 -14 -2 -94v-82q1 -11 0 -14t-6 -3q-16 2 -47 2 q-8 2 -8 31v53q0 20 1 53t1 37q8 62 8 174q-2 14 2 93q0 46 2 73q-9 -9 -12 -22q-5 -6 -12.5 -20.5t-8.5 -16.5q-2 -4 -31 -66l-45 -86q-7 -12 -27 -53.5t-40 -84t-23 -48.5q-24 -63 -31 -63q-2 0 -16 24q-9 9 -47 111q-6 18 -46 92t-44 84l-29 67l-16 45q-2 -14 -2 -45 q-2 -25 -2 -67l-2 -201q0 -21 -1 -87.5t-1 -70.5q0 -5 -1 -7.5t-4 -3.5t-5 -1.5t-8 0t-9 0.5q-5 0 -20 -1.5t-23.5 -2t-15.5 1.5q-9 2 -9 33z" />
<glyph unicode="&#xe000;" horiz-adv-x="1433" d="M0 0v1434h1434v-1434h-1434z" />
</font>
</defs>
</svg>
