<?xml version="1.0" standalone="no"?>
<!DOCTYPE svg PUBLIC "-//W3C//DTD SVG 1.1//EN" "http://www.w3.org/Graphics/SVG/1.1/DTD/svg11.dtd" >
<svg xmlns="http://www.w3.org/2000/svg">
<metadata></metadata>
<defs>
<font id="sansationbold_italic" horiz-adv-x="1235" >
<font-face units-per-em="2048" ascent="1638" descent="-410" />
<missing-glyph horiz-adv-x="450" />
<glyph unicode="ffi" horiz-adv-x="1050" d="M0 0v1050h1050v-1050h-1050z" />
<glyph unicode="&#xfb01;" horiz-adv-x="1121" d="M-201 -293q152 135 200 373l204 1021q80 401 552 401q169 0 325 -70l-42 -210q-140 70 -306 70q-226 0 -263 -183l-11 -59h606l-210 -1050h-265l168 840h-341l-152 -760q-64 -318 -286 -518z" />
<glyph unicode="&#xfb02;" horiz-adv-x="1151" d="M-201 -293q152 135 200 373l204 1021q80 401 602 401q199 0 365 -70l-286 -1432h-265l254 1274q-46 18 -131 18q-236 0 -273 -183l-11 -59h215l-42 -210h-215l-152 -760q-64 -318 -286 -518z" />
<glyph horiz-adv-x="2048" />
<glyph horiz-adv-x="2048" />
<glyph unicode="&#xd;" horiz-adv-x="390" />
<glyph unicode=" "  horiz-adv-x="450" />
<glyph unicode="&#x09;" horiz-adv-x="450" />
<glyph unicode="&#xa0;" horiz-adv-x="450" />
<glyph unicode="!" horiz-adv-x="565" d="M8 0l49 245h265l-49 -245h-265zM82 370l212 1060h265l-212 -1060h-265z" />
<glyph unicode="&#x22;" horiz-adv-x="815" d="M187 995l57 435h245l-117 -435h-185zM557 995l57 435h245l-117 -435h-185z" />
<glyph unicode="#" horiz-adv-x="1893" d="M27 344l61 154h402l164 378h-401l61 154h412l179 395h180l-179 -395h378l182 400h180l-181 -400h392l-61 -154h-402l-164 -378h401l-61 -154h-412l-160 -349h-180l160 349h-378l-160 -349h-180l159 349h-392zM671 498h377l165 378h-377z" />
<glyph unicode="$" horiz-adv-x="1025" d="M29 230l44 220q161 -70 390 -70q171 0 193 110q20 100 -95 100h-190q-320 0 -256 320q55 275 388 321l40 199h255l-39 -195q134 -12 250 -55l-44 -220q-161 70 -366 70q-215 0 -237 -110q-20 -100 105 -100h170q350 0 286 -320q-55 -276 -375 -321l-36 -179h-255l35 175 q-146 12 -263 55z" />
<glyph unicode="%" horiz-adv-x="1502" d="M-42 0l1303 1430h265l-1303 -1430h-265zM186 1140q60 300 388 300q324 0 264 -300q-64 -319 -388 -319q-328 0 -264 319zM376 1142q-29 -147 109 -147q134 0 163 147q25 124 -109 124q-138 0 -163 -124zM668 299q62 310 390 310q324 0 262 -310q-62 -309 -386 -309 q-328 0 -266 309zM858 301q-27 -137 111 -137q134 0 161 137q27 134 -107 134q-138 0 -165 -134z" />
<glyph unicode="&#x26;" horiz-adv-x="1335" d="M40 414q46 227 246 313q-166 85 -121 308q79 395 589 395q185 0 350 -50l-42 -210q-165 50 -337 50q-258 0 -294 -180q-42 -210 163 -210h338l28 142h143l74 -142h182l-42 -210h-162l-26 -130q-99 -493 -647 -493q-525 0 -442 417zM306 419q-41 -209 220 -209 q282 0 338 282l26 128h-336q-207 0 -248 -201z" />
<glyph unicode="'" horiz-adv-x="445" d="M187 995l57 435h245l-117 -435h-185z" />
<glyph unicode="(" horiz-adv-x="640" d="M63 525q90 453 381 905h265q-291 -452 -381 -905q-91 -453 19 -905h-265q-110 452 -19 905z" />
<glyph unicode=")" horiz-adv-x="640" d="M-143 -380q290 452 381 905t-19 905h265q110 -452 19 -905t-381 -905h-265z" />
<glyph unicode="*" horiz-adv-x="810" d="M188 1150l78 150l190 -103l16 233h156l-76 -232l229 101l18 -147l-236 -43l125 -170l-142 -92l-72 205l-153 -204l-107 89l196 171z" />
<glyph unicode="+" horiz-adv-x="950" d="M42 420l42 210h270l54 270h210l-54 -270h270l-42 -210h-270l-54 -270h-210l54 270h-270z" />
<glyph unicode="," horiz-adv-x="465" d="M-167 -250l237 435h265l-237 -435h-265z" />
<glyph unicode="-" horiz-adv-x="700" d="M42 420l42 210h500l-42 -210h-500z" />
<glyph unicode="." horiz-adv-x="465" d="M-42 0l49 245h265l-49 -245h-265z" />
<glyph unicode="/" horiz-adv-x="1060" d="M-117 0l1011 1430h285l-1011 -1430h-285z" />
<glyph unicode="0" horiz-adv-x="1445" d="M91 713q145 727 783 727q627 0 482 -727q-145 -723 -772 -723q-638 0 -493 723zM367 719q-100 -499 263 -499q352 0 452 499q98 491 -254 491q-363 0 -461 -491z" />
<glyph unicode="1" horiz-adv-x="690" d="M108 0l242 1211h-150l22 109l443 140l-292 -1460h-265z" />
<glyph unicode="2" horiz-adv-x="1180" d="M-42 0l40 200q814 497 879 820q38 190 -222 190q-220 0 -437 -110l48 240q215 100 435 100q525 0 441 -420q-74 -370 -731 -790h573l-46 -230h-980z" />
<glyph unicode="3" horiz-adv-x="1115" d="M-32 50l48 240q186 -70 406 -70q270 0 306 180q42 210 -150 210h-348l46 230h345q195 0 237 210q32 160 -238 160q-220 0 -434 -70l48 240q212 60 432 60q535 0 457 -390q-47 -236 -253 -325q171 -85 123 -325q-82 -410 -617 -410q-220 0 -408 60z" />
<glyph unicode="4" horiz-adv-x="1220" d="M-20 310l40 200l769 920h284l-748 -910h419l96 478h265l-96 -478l121 -136l-15 -74h-148l-62 -310h-265l62 310h-722z" />
<glyph unicode="5" horiz-adv-x="1160" d="M-7 50l44 220q186 -70 396 -70q285 0 335 250q46 230 -229 230q-225 0 -430 -50l210 800h854l-42 -210h-626l-94 -352q61 22 170 22q540 0 452 -440q-92 -460 -652 -460q-200 0 -388 60z" />
<glyph unicode="6" horiz-adv-x="1250" d="M68 550q111 556 873 923l84 -207q-384 -161 -562 -389q130 43 255 43q524 0 436 -440q-98 -490 -661 -490q-537 0 -425 560zM324 556q-71 -356 220 -356q293 0 349 280q46 230 -226 230q-154 0 -304 -48q-26 -40 -39 -106z" />
<glyph unicode="7" horiz-adv-x="1170" d="M45 0l892 1200h-739l46 230h1020l-42 -210l-886 -1220h-291z" />
<glyph unicode="8" horiz-adv-x="1280" d="M23 424q44 223 278 331q-153 95 -107 323q73 366 593 366t447 -366q-46 -228 -242 -323q195 -108 151 -331q-87 -434 -637 -434q-570 0 -483 434zM287 418q-40 -198 270 -198q280 0 320 198q42 212 -251 212q-297 0 -339 -212zM453 1048q-38 -188 222 -188q250 0 288 188 q32 162 -221 162q-257 0 -289 -162z" />
<glyph unicode="9" horiz-adv-x="1265" d="M151 963q96 480 659 480q537 0 425 -560q-111 -556 -873 -923l-84 207q374 161 564 399q-132 -53 -257 -53q-524 0 -434 450zM412 963q-48 -240 224 -240q154 0 304 48q26 40 39 106q71 356 -220 356q-293 0 -347 -270z" />
<glyph unicode=":" horiz-adv-x="490" d="M-17 0l49 245h265l-49 -245h-265zM144 805l49 245h265l-49 -245h-265z" />
<glyph unicode=";" horiz-adv-x="615" d="M-92 -250l237 435h265l-237 -435h-265zM269 805l49 245h265l-49 -245h-265z" />
<glyph unicode="&#x3c;" horiz-adv-x="1100" d="M44 430l38 190l976 380l-50 -250l-619 -229l529 -221l-50 -250z" />
<glyph unicode="=" horiz-adv-x="950" d="M6 240l42 210h750l-42 -210h-750zM78 600l42 210h750l-42 -210h-750z" />
<glyph unicode="&#x3e;" horiz-adv-x="1100" d="M-32 50l50 250l617 221l-527 229l50 250l824 -380l-38 -190z" />
<glyph unicode="?" horiz-adv-x="1115" d="M108 0l49 245h265l-49 -245h-265zM182 370l88 440h265q255 0 301 230q36 180 -234 180q-190 0 -410 -50l42 210q220 50 410 50q515 0 437 -390q-88 -440 -588 -440l-46 -230h-265z" />
<glyph unicode="@" horiz-adv-x="2190" d="M66 540q180 900 1174 900q996 0 816 -900q-138 -690 -615 -690q-301 0 -256 224l28 150l4 46q-172 -270 -408 -270q-368 0 -266 511q108 539 653 539q183 0 433 -43l-177 -889q-12 -58 68 -58q175 0 271 480q138 690 -578 690q-744 0 -882 -690q-142 -710 533 -710 l-42 -210q-940 0 -756 920zM806 513q-59 -293 98 -293q194 0 358 274l63 318q-60 24 -200 24q-255 0 -319 -323z" />
<glyph unicode="A" horiz-adv-x="1562" d="M-117 0l893 1430h285l334 -1430h-275l-85 390h-475l137 230h288l-118 537l-702 -1157h-282z" />
<glyph unicode="B" horiz-adv-x="1321" d="M8 0l286 1430h670q350 0 350 -246q0 -40 -9 -87q-48 -244 -335 -349q228 -44 228 -241q0 -39 -9 -84q-85 -423 -532 -423h-649zM319 230h373q176 0 212 180q7 33 7 60q0 163 -225 163h-80l34 171q341 55 385 276q3 17 3 31q0 89 -127 89h-388z" />
<glyph unicode="C" horiz-adv-x="1390" d="M105 735q141 705 911 705q235 0 406 -70l-48 -240q-169 80 -384 80q-515 0 -610 -475q-17 -86 -17 -157q0 -358 429 -358q215 0 416 80l-48 -240q-199 -70 -434 -70q-645 0 -645 523q0 101 24 222z" />
<glyph unicode="D" horiz-adv-x="1495" d="M8 0l286 1430h560q597 0 597 -477q0 -91 -22 -199q-151 -754 -861 -754h-560zM319 230h295q445 0 550 524q15 74 15 136q0 310 -371 310h-295z" />
<glyph unicode="E" horiz-adv-x="1238" d="M8 0l286 1430h979l-46 -228h-716l-72 -360h682l-47 -237h-685l-75 -375h733l-46 -230h-993z" />
<glyph unicode="F" horiz-adv-x="1164" d="M8 0l286 1430h939l-46 -228h-676l-72 -360h642l-47 -237h-645l-121 -605h-260z" />
<glyph unicode="G" horiz-adv-x="1390" d="M105 735q141 705 911 705q235 0 406 -70l-48 -240q-169 80 -384 80q-515 0 -610 -475q-18 -90 -18 -164q0 -351 401 -351q72 0 169 24l83 416h265l-119 -594q-188 -76 -448 -76q-633 0 -633 520q0 102 25 225z" />
<glyph unicode="H" horiz-adv-x="1535" d="M8 0l286 1430h265l-118 -590h705l118 590h265l-286 -1430h-265l122 610h-705l-122 -610h-265z" />
<glyph unicode="I" horiz-adv-x="565" d="M8 0l286 1430h265l-286 -1430h-265z" />
<glyph unicode="J" horiz-adv-x="740" d="M-117 0l46 230q300 0 336 182l204 1018h265l-204 -1018q-82 -412 -647 -412z" />
<glyph unicode="K" horiz-adv-x="1450" d="M8 0l286 1430h265l-286 -1430h-265zM487 668l34 172l670 590h334l-793 -694l581 -736h-347z" />
<glyph unicode="L" horiz-adv-x="1083" d="M8 0l286 1430h265l-240 -1200h568l-46 -230h-833z" />
<glyph unicode="M" horiz-adv-x="1800" d="M8 0l286 1430h275l268 -1085l692 1085h265l-286 -1430h-245l199 996l-587 -996h-226l-197 996l-199 -996h-245z" />
<glyph unicode="N" horiz-adv-x="1575" d="M8 0l286 1430h265l551 -1022l204 1022h255l-286 -1430h-265l-546 1044l-209 -1044h-255z" />
<glyph unicode="O" horiz-adv-x="1625" d="M101 713q145 727 863 727q587 0 587 -501q0 -103 -25 -226q-145 -723 -852 -723q-589 0 -589 533q0 88 16 190zM377 719q-18 -92 -18 -167q0 -332 361 -332q432 0 532 499q18 91 18 165q0 326 -352 326q-443 0 -541 -491z" />
<glyph unicode="P" horiz-adv-x="1253" d="M8 0l286 1430h640q370 0 370 -287q0 -53 -13 -116q-87 -437 -704 -529l9 236q373 65 417 285q6 29 6 54q0 124 -149 124h-358l-239 -1197h-265z" />
<glyph unicode="Q" horiz-adv-x="1625" d="M101 713q145 727 863 727q587 0 587 -501q0 -102 -25 -226q-132 -657 -729 -717q39 -173 260 -176q130 0 216 30l-42 -210q-86 -30 -216 -30q-447 0 -447 375v10q-483 46 -483 528q0 88 16 190zM377 719q-18 -92 -18 -167q0 -332 361 -332q432 0 532 499q18 91 18 165 q0 326 -352 326q-443 0 -541 -491z" />
<glyph unicode="R" horiz-adv-x="1315" d="M8 2l286 1428h650q373 0 373 -277q0 -49 -12 -106q-61 -303 -427 -429l330 -618h-309l-311 623l24 121q368 65 414 295q5 24 5 44q0 114 -151 114h-363l-239 -1195h-270z" />
<glyph unicode="S" horiz-adv-x="1280" d="M-5 60l48 240q199 -80 470 -80q329 0 373 220q4 22 4 41q0 119 -174 119h-224q-371 0 -371 286q0 52 12 114q88 440 713 440q240 0 441 -70l-48 -240q-199 80 -439 80q-360 0 -402 -210q-5 -25 -5 -46q0 -114 147 -114h224q399 0 398 -292q0 -50 -11 -108 q-90 -450 -684 -450q-271 0 -472 70z" />
<glyph unicode="T" horiz-adv-x="1085" d="M98 1200l46 230h1085l-46 -230h-410l-240 -1200h-265l240 1200h-410z" />
<glyph unicode="U" horiz-adv-x="1530" d="M120 562l174 868h265l-174 -868q-11 -56 -11 -102q0 -240 293 -240q350 0 418 342l174 868h265l-174 -868q-114 -572 -729 -572q-519 0 -519 407q0 76 18 165z" />
<glyph unicode="V" horiz-adv-x="1512" d="M144 1430h305l224 -1095l661 1095h322l-913 -1430h-285z" />
<glyph unicode="W" horiz-adv-x="1890" d="M128 0l51 1430h259l-52 -1027l577 1027h255l151 -987l359 987h271l-555 -1430h-252l-169 1122l-646 -1122h-249z" />
<glyph unicode="X" horiz-adv-x="1502" d="M-117 0l706 715l-420 715h325l291 -532l499 532h345l-705 -715l419 -715h-325l-291 532l-499 -532h-345z" />
<glyph unicode="Y" horiz-adv-x="1300" d="M169 1430h275l264 -689l516 689h285l-712 -930l-100 -500h-265l100 500z" />
<glyph unicode="Z" horiz-adv-x="1250" d="M-17 0l46 230l968 970h-754l46 230h1040l-46 -230l-955 -970h761l-46 -230h-1060z" />
<glyph unicode="[" horiz-adv-x="680" d="M-118 -380l362 1810h530l-42 -210h-265l-278 -1390h265l-42 -210h-530z" />
<glyph unicode="\" horiz-adv-x="1050" d="M169 1430h275l439 -1430h-275z" />
<glyph unicode="]" horiz-adv-x="680" d="M-168 -380l42 210h265l278 1390h-265l42 210h530l-362 -1810h-530z" />
<glyph unicode="^" horiz-adv-x="1050" d="M48 700l546 730h150l254 -730h-230l-154 473l-336 -473h-230z" />
<glyph unicode="_" horiz-adv-x="1050" d="M-159 -210l42 210h1000l-42 -210h-1000z" />
<glyph unicode="`" horiz-adv-x="663" d="M244 1430h319l92 -259h-224z" />
<glyph unicode="a" horiz-adv-x="1187" d="M35 511q108 539 653 539q183 0 433 -43l-201 -1007h-235l24 270q-172 -270 -408 -270q-288 0 -288 313q0 87 22 198zM298 513q-16 -80 -16 -138q0 -155 114 -155q194 0 358 274l63 318q-60 24 -200 24q-255 0 -319 -323z" />
<glyph unicode="b" horiz-adv-x="1178" d="M-8 43l277 1387h265l-126 -630q169 250 415 250q273 0 273 -297q0 -82 -21 -187q-114 -566 -627 -566q-216 0 -456 43zM297 243q85 -29 205 -29q240 0 310 349q12 62 12 109q0 158 -136 158q-164 0 -324 -254z" />
<glyph unicode="c" horiz-adv-x="940" d="M25 535q103 515 643 515q150 0 274 -30l-42 -210q-124 30 -254 30q-295 0 -356 -305q-13 -66 -13 -119q0 -206 203 -206q170 0 326 130l-42 -210q-156 -130 -346 -130q-412 0 -412 363q0 78 19 172z" />
<glyph unicode="d" horiz-adv-x="1187" d="M35 511q108 539 653 539q81 0 175 -8l78 388h265l-286 -1430h-235l24 270q-172 -270 -408 -270q-288 0 -288 313q0 87 22 198zM298 513q-16 -80 -16 -138q0 -155 114 -155q194 0 358 274l63 318q-60 24 -200 24q-255 0 -319 -323z" />
<glyph unicode="e" horiz-adv-x="1081" d="M25 537q103 513 606 513q393 0 393 -241q0 -34 -8 -73q-63 -314 -486 -314h-263q-6 -28 -5 -52q0 -160 239 -160q209 0 394 130l-42 -210q-165 -130 -414 -130q-432 0 -432 370q0 76 18 167zM306 616h265q165 0 188 113q2 12 2 22q0 91 -172 91q-220 0 -283 -226z" />
<glyph unicode="f" horiz-adv-x="716" d="M-201 -293q152 135 200 373l194 970q86 432 558 432q129 0 226 -40l-42 -210q-91 40 -227 40q-206 0 -250 -222h315l-42 -210h-315l-152 -760q-64 -318 -286 -518z" />
<glyph unicode="g" horiz-adv-x="1187" d="M-53 -330l42 210q143 -50 336 -50q296 0 330 170l54 270q-172 -270 -408 -270q-288 0 -288 313q0 87 22 198q108 539 653 539q183 0 433 -43l-201 -1007q-76 -380 -639 -380q-194 0 -334 50zM298 513q-16 -80 -16 -138q0 -155 114 -155q194 0 358 274l63 318 q-60 24 -200 24q-255 0 -319 -323z" />
<glyph unicode="h" d="M-17 0l286 1430h265l-143 -714q191 334 484 334q247 0 248 -227q0 -51 -13 -114l-142 -709h-265l142 712q4 18 4 34q0 90 -122 90q-189 0 -378 -333l-101 -503h-265z" />
<glyph unicode="i" horiz-adv-x="515" d="M-17 0l210 1050h265l-210 -1050h-265zM227 1220l42 210h265l-42 -210h-265z" />
<glyph unicode="j" horiz-adv-x="515" d="M-201 -293q152 135 200 373l194 970h265l-194 -970q-64 -318 -286 -518zM227 1220l42 210h265l-42 -210h-265z" />
<glyph unicode="k" horiz-adv-x="1211" d="M-17 0l286 1430h265l-132 -662q219 282 479 282q274 0 273 -204q0 -36 -8 -79q-40 -200 -356 -341l239 -426h-304l-203 396l17 83q311 80 347 259q2 13 2 24q0 78 -122 78q-183 0 -409 -294l-109 -546h-265z" />
<glyph unicode="l" horiz-adv-x="515" d="M-17 0l286 1430h265l-286 -1430h-265z" />
<glyph unicode="m" horiz-adv-x="1835" d="M-17 0l210 1050h235l-38 -342q180 342 408 342q244 0 244 -227q0 -52 -13 -117q201 344 427 344q258 0 258 -256q0 -64 -16 -143l-130 -651h-265l132 661q8 40 8 71q0 104 -91 104q-168 0 -344 -336l-100 -500h-265l132 658q8 41 8 73q0 105 -89 105q-176 0 -346 -336 l-100 -500h-265z" />
<glyph unicode="n" d="M-17 0l210 1050h235l-41 -354q195 354 488 354q247 0 248 -227q0 -51 -13 -114l-142 -709h-265l142 712q4 18 4 34q0 90 -122 90q-189 0 -378 -333l-101 -503h-265z" />
<glyph unicode="o" horiz-adv-x="1170" d="M38 525q107 535 617 535q422 0 421 -366q0 -77 -18 -169q-107 -534 -617 -534q-421 0 -421 367q0 76 18 167zM304 529q-14 -70 -14 -125q0 -204 193 -204q245 0 311 329q13 66 13 119q0 202 -194 202q-245 0 -309 -321z" />
<glyph unicode="p" horiz-adv-x="1178" d="M-93 -380l286 1430h235l-20 -250q169 250 415 250q272 0 272 -296q0 -82 -21 -188q-113 -566 -626 -566q-97 0 -198 9l-78 -389h-265zM297 243q85 -29 205 -29q240 0 310 349q12 62 12 109q0 158 -136 158q-164 0 -325 -254z" />
<glyph unicode="q" horiz-adv-x="1187" d="M35 511q108 539 653 539q183 0 433 -43l-277 -1387h-265l130 650q-172 -270 -408 -270q-288 0 -288 313q0 87 22 198zM298 513q-16 -80 -16 -138q0 -155 114 -155q194 0 358 274l63 318q-60 24 -200 24q-255 0 -319 -323z" />
<glyph unicode="r" horiz-adv-x="730" d="M-17 0l210 1050h235l-37 -334q178 334 382 334l-45 -224q-198 0 -379 -323l-101 -503h-265z" />
<glyph unicode="s" horiz-adv-x="1025" d="M-7 50l44 220q161 -70 390 -70q171 0 193 110q3 15 3 27q0 73 -98 73h-190q-267 0 -267 222q0 44 11 98q66 330 533 330q198 0 361 -60l-44 -220q-161 70 -366 70q-215 0 -237 -110q-3 -14 -3 -26q0 -74 108 -74h170q296 0 296 -229q0 -42 -10 -91q-66 -330 -512 -330 q-219 0 -382 60z" />
<glyph unicode="t" horiz-adv-x="680" d="M40 283l187 937h196l6 -170h244l-42 -210h-215l-97 -483q-5 -27 -5 -50q0 -97 103 -97h88l-42 -210h-216q-217 0 -217 191q0 42 10 92z" />
<glyph unicode="u" d="M51 341l142 709h265l-142 -712q-4 -18 -3 -34q0 -90 121 -90q189 0 378 333l101 503h265l-210 -1050h-235l41 354q-195 -354 -488 -354q-247 0 -247 227q0 51 12 114z" />
<glyph unicode="v" horiz-adv-x="1080" d="M68 1050h280l108 -734l412 734h280l-637 -1050h-252z" />
<glyph unicode="w" horiz-adv-x="1585" d="M43 550q55 275 200 500h265q-145 -225 -200 -500q-21 -103 -21 -173q0 -147 92 -147q185 0 249 320l100 500h265l-100 -500q-16 -82 -16 -143q0 -177 137 -177q135 0 199 320q28 138 27.5 263t-27.5 237h265q28 -112 27.5 -237t-27.5 -263q-110 -550 -510 -550 q-235 0 -262 289q-138 -289 -373 -289q-314 0 -314 338q0 93 24 212z" />
<glyph unicode="x" horiz-adv-x="1080" d="M-142 0l498 525l-288 525h285l179 -338l311 338h305l-497 -525l287 -525h-285l-179 338l-311 -338h-305z" />
<glyph unicode="y" d="M-5 -330l42 210q143 -50 336 -50q296 0 330 170l71 354q-195 -354 -488 -354q-247 0 -247 227q0 51 12 114l142 709h265l-142 -712q-4 -18 -4 -34q0 -90 122 -90q189 0 378 333l101 503h265l-210 -1050q-76 -380 -639 -380q-194 0 -334 50z" />
<glyph unicode="z" horiz-adv-x="960" d="M-62 0l40 200l633 640h-485l42 210h780l-42 -210l-635 -640h487l-40 -200h-780z" />
<glyph unicode="{" horiz-adv-x="755" d="M40 410l46 230q210 0 272 312q61 302 226 478h265q-165 -176 -226 -478q-70 -352 -335 -427q235 -75 165 -427q-61 -302 34 -478h-265q-95 176 -34 478q62 312 -148 312z" />
<glyph unicode="|" horiz-adv-x="565" d="M-68 -380l362 1810h265l-362 -1810h-265z" />
<glyph unicode="}" horiz-adv-x="755" d="M-168 -380q165 176 226 478q70 352 255 427q-155 75 -85 427q61 302 -34 478h265q95 -176 34 -478q-62 -312 148 -312l-46 -230q-210 0 -272 -312q-61 -302 -226 -478h-265z" />
<glyph unicode="~" horiz-adv-x="950" d="M38 400l42 210q70 61 174 61q86 0 195 -41q109 -40 199 -40q109 0 190 60l-42 -210q-70 -60 -174 -60q-86 0 -195 40q-109 41 -199 41q-109 0 -190 -61z" />
<glyph unicode="&#xa1;" horiz-adv-x="565" d="M-68 -380l212 1060h265l-212 -1060h-265zM169 805l49 245h265l-49 -245h-265z" />
<glyph unicode="&#xa2;" horiz-adv-x="940" d="M64 729q86 431 479 501l40 200h255l-37 -189q96 -7 180 -27l-42 -210q-124 30 -254 30q-295 0 -356 -305q-65 -325 190 -325q170 0 326 130l-42 -210q-97 -81 -208 -112l-43 -212h-255l41 203q-367 60 -274 526z" />
<glyph unicode="&#xa3;" horiz-adv-x="1217" d="M-48 -30l42 212q201 75 233 231q23 117 -19 291t-13 323q83 413 641 413q270 0 407 -100l-48 -240q-132 130 -408 130q-274 0 -314 -201q-29 -144 -5 -199h386l-42 -210h-314q18 -104 -2 -204q-27 -137 -99 -178q22 4 49 4q84 0 205 -43q45 -17 97 -17q125 0 283 98 l-46 -230q-137 -84 -301 -84q-94 0 -195 28q-123 32 -240 32q-153 0 -297 -56z" />
<glyph unicode="&#xa4;" horiz-adv-x="1139" d="M-7 173l140 120q-36 103 -11 232q28 137 104 231l-92 120l131 112l101 -121q121 68 255 68q124 0 212 -68l152 121l88 -112l-142 -120q41 -83 11 -231q-27 -139 -114 -232l104 -120l-132 -112l-104 123q-120 -60 -245 -60q-124 0 -231 60l-140 -123zM286 529 q-49 -246 196 -246t294 246q49 244 -196 244t-294 -244z" />
<glyph unicode="&#xa5;" horiz-adv-x="1250" d="M66 239l42 210h319l22 111h-319l42 210h277l-255 660h265l190 -510l400 510h295l-545 -660h283l-42 -210h-326l-22 -111h326l-42 -210h-326l-48 -239h-265l48 239h-319z" />
<glyph unicode="&#xa6;" horiz-adv-x="565" d="M-68 -380l146 730h265l-146 -730h-265zM148 700l146 730h264l-146 -730h-264z" />
<glyph unicode="&#xa7;" horiz-adv-x="1090" d="M16 40l44 220q163 -60 352 -60q211 0 229 90q20 100 -135 100h-70q-400 0 -338 310q32 158 174 216q-119 60 -86 224q60 300 527 300q198 0 363 -50l-44 -220q-163 60 -361 60q-222 0 -240 -90q-20 -100 135 -100h70q420 0 359 -307q-30 -150 -156 -222q100 -54 67 -221 q-60 -300 -536 -300q-189 0 -354 50zM346 717q-23 -119 132 -119h70q155 0 176 106q25 127 -130 127h-70q-155 0 -178 -114z" />
<glyph unicode="&#xa8;" horiz-adv-x="755" d="M206 1240l38 190h215l-38 -190h-215zM546 1240l38 190h215l-38 -190h-215z" />
<glyph unicode="&#xa9;" horiz-adv-x="1785" d="M153 723q143 717 891 717q737 0 594 -717q-147 -733 -884 -733q-748 0 -601 733zM257 719q-128 -639 495 -639q652 0 780 639q126 631 -506 631q-643 0 -769 -631zM481 728q83 416 499 416q165 0 280 -51l-20 -98q-113 58 -264 58q-325 0 -390 -325q-71 -352 254 -352 q151 0 288 58l-20 -98q-135 -51 -300 -51q-416 0 -327 443z" />
<glyph unicode="&#xaa;" horiz-adv-x="669" d="M190 1161q54 270 317 270q106 0 201 -22l-100 -503h-103l15 125q-84 -125 -202 -125q-179 0 -128 255zM301 1162q-31 -156 53 -156q107 0 182 107l42 209q-25 12 -95 12q-147 0 -182 -172z" />
<glyph unicode="&#xab;" horiz-adv-x="1079" d="M13 525l333 375h272l-333 -375l183 -375h-272zM462 525l333 375h272l-333 -375l183 -375h-272z" />
<glyph unicode="&#xac;" horiz-adv-x="1085" d="M126 840l42 210h885l-80 -400h-210l38 190h-675z" />
<glyph unicode="&#xad;" horiz-adv-x="700" d="M42 420l42 210h500l-42 -210h-500z" />
<glyph unicode="&#xae;" horiz-adv-x="1163" d="M213 1023q85 427 515 427q433 0 348 -427q-83 -415 -516 -415q-418 0 -347 415zM286 1025q-72 -361 285 -361q360 0 432 361q74 369 -286 369q-357 0 -431 -369zM414 756l107 536h229q153 0 127 -128q-21 -105 -181 -155l134 -253h-91l-123 241l9 45q159 25 178 119 q14 74 -72 74h-153l-95 -479h-69z" />
<glyph unicode="&#xaf;" horiz-adv-x="700" d="M202 1220l42 210h500l-42 -210h-500z" />
<glyph unicode="&#xb0;" horiz-adv-x="872" d="M180 1110q64 320 402 320q334 0 270 -320q-64 -319 -398 -319q-338 0 -274 319zM370 1112q-29 -147 119 -147q144 0 173 147q29 144 -115 144q-148 0 -177 -144z" />
<glyph unicode="&#xb1;" horiz-adv-x="950" d="M-42 0l42 210h750l-42 -210h-750zM72 570l42 210h270l54 270h210l-54 -270h270l-42 -210h-270l-54 -270h-210l54 270h-270z" />
<glyph unicode="&#xb2;" horiz-adv-x="590" d="M50 710l35 175q332 173 358 305q13 65 -77 65t-198 -55l36 180q107 50 197 50q283 0 235 -240q-31 -155 -308 -305h247l-35 -175h-490z" />
<glyph unicode="&#xb3;" horiz-adv-x="578" d="M55 736l36 180q93 -36 193 -36q86 0 96 50q13 66 -33 66h-164l31 154h162q48 0 61 66q8 40 -78 40q-100 0 -207 -36l36 180q106 30 206 30q278 0 235 -214q-20 -98 -123 -143q86 -43 66 -143q-45 -224 -323 -224q-100 0 -194 30z" />
<glyph unicode="&#xb4;" horiz-adv-x="663" d="M192 1171l196 259h319l-291 -259h-224z" />
<glyph unicode="&#xb6;" horiz-adv-x="953" d="M56 986q88 444 531 444h510l-18 -90h-150l-354 -1774h-100l354 1774h-160l-354 -1774h-100l194 972q-443 0 -353 448z" />
<glyph unicode="&#xb7;" horiz-adv-x="450" d="M63 525q25 125 150 125t100 -125t-150 -125t-100 125z" />
<glyph unicode="&#xb8;" horiz-adv-x="687" d="M-116 -372l26 128q98 -50 206 -50t119 55q8 44 -75 44h-183l185 270h165l-111 -152q214 0 182 -162q-37 -183 -308 -183q-108 0 -206 50z" />
<glyph unicode="&#xb9;" horiz-adv-x="328" d="M126 710l102 511h-76l19 95l290 110l-143 -716h-192z" />
<glyph unicode="&#xba;" horiz-adv-x="700" d="M191 1168q53 262 303 262t197 -262q-52 -262 -302 -262q-248 0 -198 262zM295 1170q-34 -170 113 -170q148 0 182 170q33 166 -115 166q-147 0 -180 -166z" />
<glyph unicode="&#xbb;" horiz-adv-x="1079" d="M-62 150l333 375l-183 375h272l183 -375l-333 -375h-272zM387 150l333 375l-183 375h272l183 -375l-333 -375h-272z" />
<glyph unicode="&#xbc;" horiz-adv-x="1449" d="M-42 0l1111 1430h245l-1111 -1430h-245zM176 710l102 511h-76l19 95l290 110l-143 -716h-192zM735 26l36 180q93 -36 193 -36q84 0 94 50q13 66 -33 66h-164l31 154h163q47 0 60 66q8 40 -76 40q-100 0 -207 -36l36 180q106 30 206 30q277 0 234 -214q-19 -98 -122 -143 q85 -43 65 -143q-45 -224 -322 -224q-100 0 -194 30z" />
<glyph unicode="&#xbd;" horiz-adv-x="1442" d="M-42 0l1111 1430h245l-1111 -1430h-245zM176 710l102 511h-76l19 95l290 110l-143 -716h-192zM710 0l35 175q333 173 359 305q13 65 -77 65t-199 -55l36 180q108 50 198 50q282 0 234 -240q-31 -155 -309 -305h248l-35 -175h-490z" />
<glyph unicode="&#xbe;" horiz-adv-x="1490" d="M49 0l1111 1430h245l-1111 -1430h-245zM105 736l36 180q93 -36 193 -36q84 0 94 50q13 66 -33 66h-164l31 154h163q47 0 60 66q8 40 -76 40q-100 0 -207 -36l36 180q106 30 206 30q277 0 234 -214q-19 -98 -122 -143q85 -43 65 -143q-45 -224 -322 -224q-100 0 -194 30z M670 150l35 174l296 390h192l-291 -390h155l45 224h182l-45 -224l66 -38l-27 -136h-74l-30 -150h-182l30 150h-352z" />
<glyph unicode="&#xbf;" horiz-adv-x="1115" d="M-40 10q88 440 588 440l46 230h265l-88 -440h-265q-255 0 -301 -230q-36 -180 234 -180q190 0 410 50l-42 -210q-220 -50 -410 -50q-515 0 -437 390zM619 805l49 245h265l-49 -245h-265z" />
<glyph unicode="&#xc0;" horiz-adv-x="1562" d="M-117 0l893 1430h285l334 -1430h-275l-85 390h-475l137 230h288l-118 537l-702 -1157h-282zM616 1810h319l92 -259h-224z" />
<glyph unicode="&#xc1;" horiz-adv-x="1562" d="M-117 0l893 1430h285l334 -1430h-275l-85 390h-475l137 230h288l-118 537l-702 -1157h-282zM769 1551l196 259h319l-291 -259h-224z" />
<glyph unicode="&#xc2;" horiz-adv-x="1562" d="M-117 0l893 1430h285l334 -1430h-275l-85 390h-475l137 230h288l-118 537l-702 -1157h-282zM673 1550l227 260h150l123 -260h-180l-44 130l-96 -130h-180z" />
<glyph unicode="&#xc3;" horiz-adv-x="1562" d="M-117 0l893 1430h285l334 -1430h-275l-85 390h-475l137 230h288l-118 537l-702 -1157h-282zM684 1554l42 210q69 46 139 46q52 0 105 -26t109 -26q75 0 155 46l-42 -210q-69 -46 -139 -46q-52 0 -105 26t-109 26q-75 0 -155 -46z" />
<glyph unicode="&#xc4;" horiz-adv-x="1562" d="M-117 0l893 1430h285l334 -1430h-275l-85 390h-475l137 230h288l-118 537l-702 -1157h-282zM670 1620l38 190h215l-38 -190h-215zM1010 1620l38 190h215l-38 -190h-215z" />
<glyph unicode="&#xc5;" horiz-adv-x="1562" d="M-117 0l893 1430h4q-78 49 -52 179q42 210 270 210q224 0 182 -210q-26 -130 -122 -179h3l334 -1430h-275l-85 390h-475l137 230h288l-118 537l-702 -1157h-282zM818 1611q-27 -137 111 -137q134 0 161 137q27 134 -107 134q-138 0 -165 -134z" />
<glyph unicode="&#xc6;" horiz-adv-x="1925" d="M-117 0l893 1430h1148l-46 -230h-788l88 -360h593l-46 -230h-494l90 -380h383l-46 -230h-568l-231 1144l-329 -544h270l26 -210h-419l-232 -390h-292z" />
<glyph unicode="&#xc7;" horiz-adv-x="1390" d="M105 735q141 705 911 705q235 0 406 -70l-48 -240q-169 80 -384 80q-515 0 -610 -475q-103 -515 412 -515q215 0 416 80l-48 -240q-196 -69 -427 -70l-50 -67q214 0 182 -162q-37 -183 -308 -183q-108 0 -206 50l26 128q98 -50 206 -50t119 55q9 44 -74 44h-183l132 193 q-606 69 -472 737z" />
<glyph unicode="&#xc8;" horiz-adv-x="1238" d="M8 0l286 1430h979l-46 -228h-716l-72 -360h682l-47 -237h-685l-75 -375h733l-46 -230h-993zM522 1810h319l92 -259h-224z" />
<glyph unicode="&#xc9;" horiz-adv-x="1238" d="M8 0l286 1430h979l-46 -228h-716l-72 -360h682l-47 -237h-685l-75 -375h733l-46 -230h-993zM624 1551l196 259h319l-291 -259h-224z" />
<glyph unicode="&#xca;" horiz-adv-x="1238" d="M8 0l286 1430h979l-46 -228h-716l-72 -360h682l-47 -237h-685l-75 -375h733l-46 -230h-993zM529 1550l227 260h150l123 -260h-180l-44 130l-96 -130h-180z" />
<glyph unicode="&#xcb;" horiz-adv-x="1238" d="M8 0l286 1430h979l-46 -228h-716l-72 -360h682l-47 -237h-685l-75 -375h733l-46 -230h-993zM515 1620l38 190h215l-38 -190h-215zM855 1620l38 190h215l-38 -190h-215z" />
<glyph unicode="&#xcc;" horiz-adv-x="565" d="M8 0l286 1430h265l-286 -1430h-265zM178 1810h319l92 -259h-224z" />
<glyph unicode="&#xcd;" horiz-adv-x="565" d="M8 0l286 1430h265l-286 -1430h-265zM280 1551l196 259h319l-291 -259h-224z" />
<glyph unicode="&#xce;" horiz-adv-x="565" d="M9 0l286 1430h265l-286 -1430h-265zM195 1550l227 260h150l123 -260h-180l-44 130l-96 -130h-180z" />
<glyph unicode="&#xcf;" horiz-adv-x="565" d="M8 0l286 1430h265l-286 -1430h-265zM181 1620l38 190h215l-38 -190h-215zM521 1620l38 190h215l-38 -190h-215z" />
<glyph unicode="&#xd0;" horiz-adv-x="1455" d="M-70 610l46 230h200l118 590h520q710 0 575 -676q-151 -754 -861 -754h-520l122 610h-200zM319 230h255q445 0 550 524q89 446 -356 446h-255l-72 -360h285l-46 -230h-285z" />
<glyph unicode="&#xd1;" horiz-adv-x="1575" d="M8 0l286 1430h265l551 -1022l204 1022h255l-286 -1430h-265l-546 1044l-209 -1044h-255zM694 1554l42 210q69 46 139 46q52 0 105 -26t109 -26q75 0 155 46l-42 -210q-69 -46 -139 -46q-52 0 -105 26t-109 26q-75 0 -155 -46z" />
<glyph unicode="&#xd2;" horiz-adv-x="1625" d="M101 713q145 727 863 727q707 0 562 -727q-145 -723 -852 -723q-686 0 -573 723zM377 719q-100 -499 343 -499q432 0 532 499q98 491 -334 491q-443 0 -541 -491zM708 1810h319l92 -259h-224z" />
<glyph unicode="&#xd3;" horiz-adv-x="1625" d="M101 713q145 727 863 727q707 0 562 -727q-145 -723 -852 -723q-686 0 -573 723zM377 719q-100 -499 343 -499q432 0 532 499q98 491 -334 491q-443 0 -541 -491zM810 1551l196 259h319l-291 -259h-224z" />
<glyph unicode="&#xd4;" horiz-adv-x="1625" d="M101 713q145 727 863 727q707 0 562 -727q-145 -723 -852 -723q-686 0 -573 723zM377 719q-100 -499 343 -499q432 0 532 499q98 491 -334 491q-443 0 -541 -491zM715 1550l227 260h150l123 -260h-180l-44 130l-96 -130h-180z" />
<glyph unicode="&#xd5;" horiz-adv-x="1625" d="M101 713q145 727 863 727q707 0 562 -727q-145 -723 -852 -723q-686 0 -573 723zM377 719q-100 -499 343 -499q432 0 532 499q98 491 -334 491q-443 0 -541 -491zM716 1554l42 210q69 46 139 46q52 0 105 -26t109 -26q75 0 155 46l-42 -210q-69 -46 -139 -46 q-52 0 -105 26t-109 26q-75 0 -155 -46z" />
<glyph unicode="&#xd6;" horiz-adv-x="1625" d="M101 713q145 727 863 727q707 0 562 -727q-145 -723 -852 -723q-686 0 -573 723zM377 719q-100 -499 343 -499q432 0 532 499q98 491 -334 491q-443 0 -541 -491zM721 1620l38 190h215l-38 -190h-215zM1061 1620l38 190h215l-38 -190h-215z" />
<glyph unicode="&#xd7;" horiz-adv-x="879" d="M25 334l229 191l-153 191l178 148l153 -191l229 191l118 -148l-229 -191l153 -191l-178 -148l-152 191l-230 -191z" />
<glyph unicode="&#xd8;" horiz-adv-x="1625" d="M-4 0l179 187q-128 181 -74 526q145 727 863 727q212 0 348 -66l53 56h258l-164 -172q139 -182 67 -545q-145 -723 -852 -723q-221 0 -359 75l-62 -65h-257zM377 719q-39 -196 6 -315l734 768q-78 38 -199 38q-443 0 -541 -491zM506 264q83 -44 214 -44q432 0 532 499 q39 198 -7 316z" />
<glyph unicode="&#xd9;" horiz-adv-x="1530" d="M120 562l174 868h265l-174 -868q-68 -342 282 -342t418 342l174 868h265l-174 -868q-114 -572 -729 -572t-501 572zM650 1810h319l92 -259h-224z" />
<glyph unicode="&#xda;" horiz-adv-x="1530" d="M120 562l174 868h265l-174 -868q-68 -342 282 -342t418 342l174 868h265l-174 -868q-114 -572 -729 -572t-501 572zM753 1551l196 259h319l-291 -259h-224z" />
<glyph unicode="&#xdb;" horiz-adv-x="1530" d="M120 562l174 868h265l-174 -868q-68 -342 282 -342t418 342l174 868h265l-174 -868q-114 -572 -729 -572t-501 572zM667 1550l227 260h150l123 -260h-180l-44 130l-96 -130h-180z" />
<glyph unicode="&#xdc;" horiz-adv-x="1530" d="M120 562l174 868h265l-174 -868q-68 -342 282 -342t418 342l174 868h265l-174 -868q-114 -572 -729 -572t-501 572zM654 1620l38 190h215l-38 -190h-215zM994 1620l38 190h215l-38 -190h-215z" />
<glyph unicode="&#xdd;" horiz-adv-x="1300" d="M169 1430h275l264 -689l516 689h285l-712 -930l-100 -500h-265l100 500zM693 1551l196 259h319l-291 -259h-224z" />
<glyph unicode="&#xde;" horiz-adv-x="1278" d="M8 0l286 1430h274l-62 -308h396q408 0 336 -363q-86 -427 -693 -519l9 236q363 65 405 275q28 138 -120 138h-388l-178 -889h-265z" />
<glyph unicode="&#xdf;" horiz-adv-x="1216" d="M-201 -293q152 135 200 373l175 879q94 468 598 468q470 0 395 -377l-27 -135q-315 -53 -342 -188q-14 -71 160 -127.5t132 -267.5q-66 -332 -490 -332h-212l42 210h214q147 0 167 102q20 101 -144 157.5t-125 254.5q40 198 354 326q33 167 -173 167q-232 0 -284 -261 l-175 -876q-64 -318 -286 -518z" />
<glyph unicode="&#xe0;" horiz-adv-x="1187" d="M35 511q108 539 653 539q183 0 433 -43l-201 -1007h-235l24 270q-172 -270 -408 -270q-368 0 -266 511zM298 513q-59 -293 98 -293q194 0 358 274l63 318q-60 24 -200 24q-255 0 -319 -323zM454 1430h319l92 -259h-224z" />
<glyph unicode="&#xe1;" horiz-adv-x="1187" d="M35 511q108 539 653 539q183 0 433 -43l-201 -1007h-235l24 270q-172 -270 -408 -270q-368 0 -266 511zM298 513q-59 -293 98 -293q194 0 358 274l63 318q-60 24 -200 24q-255 0 -319 -323zM556 1171l196 259h319l-291 -259h-224z" />
<glyph unicode="&#xe2;" horiz-adv-x="1187" d="M35 511q108 539 653 539q183 0 433 -43l-201 -1007h-235l24 270q-172 -270 -408 -270q-368 0 -266 511zM298 513q-59 -293 98 -293q194 0 358 274l63 318q-60 24 -200 24q-255 0 -319 -323zM461 1170l227 260h150l123 -260h-180l-44 130l-96 -130h-180z" />
<glyph unicode="&#xe3;" horiz-adv-x="1187" d="M35 511q108 539 653 539q183 0 433 -43l-201 -1007h-235l24 270q-172 -270 -408 -270q-368 0 -266 511zM298 513q-59 -293 98 -293q194 0 358 274l63 318q-60 24 -200 24q-255 0 -319 -323zM462 1174l42 210q69 46 139 46q52 0 105 -26t109 -26q75 0 155 46l-42 -210 q-69 -46 -139 -46q-52 0 -105 26t-109 26q-75 0 -155 -46z" />
<glyph unicode="&#xe4;" horiz-adv-x="1187" d="M35 511q108 539 653 539q183 0 433 -43l-201 -1007h-235l24 270q-172 -270 -408 -270q-368 0 -266 511zM298 513q-59 -293 98 -293q194 0 358 274l63 318q-60 24 -200 24q-255 0 -319 -323zM447 1240l38 190h215l-38 -190h-215zM787 1240l38 190h215l-38 -190h-215z" />
<glyph unicode="&#xe5;" horiz-adv-x="1187" d="M35 511q108 539 653 539q183 0 433 -43l-201 -1007h-235l24 270q-172 -270 -408 -270q-368 0 -266 511zM298 513q-59 -293 98 -293q194 0 358 274l63 318q-60 24 -200 24q-255 0 -319 -323zM523 1361q42 210 270 210q224 0 182 -210q-42 -209 -266 -209q-228 0 -186 209z M613 1363q-27 -137 111 -137q134 0 161 137q27 134 -107 134q-138 0 -165 -134z" />
<glyph unicode="&#xe6;" horiz-adv-x="1745" d="M-1 329q64 321 501 321q104 0 222 -22q42 212 -200 212q-170 0 -342 -48l41 205q179 53 345 53q272 0 354 -113q148 113 384 113q448 0 385 -314t-486 -314h-263q-42 -212 234 -212q209 0 394 130l-42 -210q-165 -130 -414 -130q-237 0 -344 111q-215 -111 -419 -111 q-416 0 -350 329zM264 330q-28 -140 122 -140q152 0 259 72l36 178q-106 20 -220 20q-171 0 -197 -130zM979 616h265q165 0 188 113q22 113 -170 113q-220 0 -283 -226z" />
<glyph unicode="&#xe7;" horiz-adv-x="940" d="M25 535q103 515 643 515q150 0 274 -30l-42 -210q-124 30 -254 30q-295 0 -356 -305q-65 -325 190 -325q170 0 326 130l-42 -210q-143 -119 -314 -129l-58 -78q214 0 182 -162q-37 -183 -308 -183q-108 0 -206 50l26 128q98 -50 206 -50t119 55q9 44 -74 44h-183l140 205 q-362 62 -269 525z" />
<glyph unicode="&#xe8;" horiz-adv-x="1081" d="M25 537q103 513 606 513q448 0 385 -314t-486 -314h-263q-42 -212 234 -212q209 0 394 130l-42 -210q-165 -130 -414 -130q-521 0 -414 537zM306 616h265q165 0 188 113q22 113 -170 113q-220 0 -283 -226zM411 1430h319l92 -259h-224z" />
<glyph unicode="&#xe9;" horiz-adv-x="1081" d="M25 537q103 513 606 513q448 0 385 -314t-486 -314h-263q-42 -212 234 -212q209 0 394 130l-42 -210q-165 -130 -414 -130q-521 0 -414 537zM306 616h265q165 0 188 113q22 113 -170 113q-220 0 -283 -226zM473 1171l196 259h319l-291 -259h-224z" />
<glyph unicode="&#xea;" horiz-adv-x="1081" d="M25 537q103 513 606 513q448 0 385 -314t-486 -314h-263q-42 -212 234 -212q209 0 394 130l-42 -210q-165 -130 -414 -130q-521 0 -414 537zM306 616h265q165 0 188 113q22 113 -170 113q-220 0 -283 -226zM388 1170l227 260h150l123 -260h-180l-44 130l-96 -130h-180z " />
<glyph unicode="&#xeb;" horiz-adv-x="1081" d="M25 537q103 513 606 513q448 0 385 -314t-486 -314h-263q-42 -212 234 -212q209 0 394 130l-42 -210q-165 -130 -414 -130q-521 0 -414 537zM306 616h265q165 0 188 113q22 113 -170 113q-220 0 -283 -226zM374 1240l38 190h215l-38 -190h-215zM714 1240l38 190h215 l-38 -190h-215z" />
<glyph unicode="&#xec;" horiz-adv-x="515" d="M-17 0l210 1050h265l-210 -1050h-265zM93 1430h319l92 -259h-224z" />
<glyph unicode="&#xed;" horiz-adv-x="515" d="M-17 0l210 1050h265l-210 -1050h-265zM195 1171l196 259h319l-291 -259h-224z" />
<glyph unicode="&#xee;" horiz-adv-x="515" d="M-16 0l210 1050h265l-210 -1050h-265zM100 1170l227 260h150l123 -260h-180l-44 130l-96 -130h-180z" />
<glyph unicode="&#xef;" horiz-adv-x="515" d="M-17 0l210 1050h265l-210 -1050h-265zM86 1240l38 190h215l-38 -190h-215zM426 1240l38 190h215l-38 -190h-215z" />
<glyph unicode="&#xf0;" horiz-adv-x="1180" d="M41 540q102 510 536 510q177 0 268 -90q-35 133 -134 198l-251 -97l24 119l82 32q-48 8 -103 8h-206l42 210h208q249 0 396 -88l228 88l-24 -119l-110 -43q181 -193 96 -618q-132 -660 -649 -660q-513 0 -403 550zM302 540q-68 -340 185 -340q251 0 340 446q19 96 13 154 q-80 50 -224 50q-252 0 -314 -310z" />
<glyph unicode="&#xf1;" d="M-17 0l210 1050h235l-41 -354q195 354 488 354q303 0 235 -341l-142 -709h-265l142 712q25 124 -118 124q-189 0 -378 -333l-101 -503h-265zM461 1174l42 210q69 46 139 46q52 0 105 -26t109 -26q75 0 155 46l-42 -210q-69 -46 -139 -46q-52 0 -105 26t-109 26 q-75 0 -155 -46z" />
<glyph unicode="&#xf2;" horiz-adv-x="1170" d="M38 525q107 535 617 535t403 -535q-107 -534 -617 -534q-508 0 -403 534zM304 529q-66 -329 179 -329t311 329q64 321 -181 321t-309 -321zM420 1430h319l92 -259h-224z" />
<glyph unicode="&#xf3;" horiz-adv-x="1170" d="M38 525q107 535 617 535t403 -535q-107 -534 -617 -534q-508 0 -403 534zM304 529q-66 -329 179 -329t311 329q64 321 -181 321t-309 -321zM523 1171l196 259h319l-291 -259h-224z" />
<glyph unicode="&#xf4;" horiz-adv-x="1170" d="M38 525q107 535 617 535t403 -535q-107 -534 -617 -534q-508 0 -403 534zM304 529q-66 -329 179 -329t311 329q64 321 -181 321t-309 -321zM427 1170l227 260h150l123 -260h-180l-44 130l-96 -130h-180z" />
<glyph unicode="&#xf5;" horiz-adv-x="1170" d="M38 525q107 535 617 535t403 -535q-107 -534 -617 -534q-508 0 -403 534zM304 529q-66 -329 179 -329t311 329q64 321 -181 321t-309 -321zM428 1174l42 210q69 46 139 46q52 0 105 -26t109 -26q75 0 155 46l-42 -210q-69 -46 -139 -46q-52 0 -105 26t-109 26 q-75 0 -155 -46z" />
<glyph unicode="&#xf6;" horiz-adv-x="1170" d="M38 525q107 535 617 535t403 -535q-107 -534 -617 -534q-508 0 -403 534zM304 529q-66 -329 179 -329t311 329q64 321 -181 321t-309 -321zM414 1240l38 190h215l-38 -190h-215zM754 1240l38 190h215l-38 -190h-215z" />
<glyph unicode="&#xf7;" horiz-adv-x="985" d="M42 420l42 210h785l-42 -210h-785zM268 150l38 190h225l-38 -190h-225zM380 710l38 190h225l-38 -190h-225z" />
<glyph unicode="&#xf8;" horiz-adv-x="1180" d="M-82 0l145 151q-82 132 -35 374q107 535 637 535q141 0 236 -38l27 28h258l-136 -142q88 -133 38 -383q-107 -534 -637 -534q-147 0 -245 41l-31 -32h-257zM282 379l439 456q-41 15 -98 15q-265 0 -329 -321q-18 -87 -12 -150zM386 219q44 -19 107 -19q265 0 331 329 q18 90 10 155z" />
<glyph unicode="&#xf9;" d="M51 341l142 709h265l-142 -712q-25 -124 118 -124q189 0 378 333l101 503h265l-210 -1050h-235l41 354q-195 -354 -488 -354q-303 0 -235 341zM453 1430h319l92 -259h-224z" />
<glyph unicode="&#xfa;" d="M51 341l142 709h265l-142 -712q-25 -124 118 -124q189 0 378 333l101 503h265l-210 -1050h-235l41 354q-195 -354 -488 -354q-303 0 -235 341zM555 1171l196 259h319l-291 -259h-224z" />
<glyph unicode="&#xfb;" d="M51 341l142 709h265l-142 -712q-25 -124 118 -124q189 0 378 333l101 503h265l-210 -1050h-235l41 354q-195 -354 -488 -354q-303 0 -235 341zM460 1170l227 260h150l123 -260h-180l-44 130l-96 -130h-180z" />
<glyph unicode="&#xfc;" d="M51 341l142 709h265l-142 -712q-25 -124 118 -124q189 0 378 333l101 503h265l-210 -1050h-235l41 354q-195 -354 -488 -354q-303 0 -235 341zM446 1240l38 190h215l-38 -190h-215zM786 1240l38 190h215l-38 -190h-215z" />
<glyph unicode="&#xfd;" d="M-5 -330l42 210q143 -50 336 -50q296 0 330 170l71 354q-195 -354 -488 -354q-303 0 -235 341l142 709h265l-142 -712q-25 -124 118 -124q189 0 378 333l101 503h265l-210 -1050q-76 -380 -639 -380q-194 0 -334 50zM555 1171l196 259h319l-291 -259h-224z" />
<glyph unicode="&#xfe;" horiz-adv-x="1178" d="M-93 -380l362 1810h265l-126 -630q169 250 415 250q348 0 251 -484q-113 -566 -626 -566q-97 0 -198 9l-78 -389h-265zM297 243q85 -29 205 -29q240 0 310 349q53 267 -124 267q-164 0 -325 -254z" />
<glyph unicode="&#xff;" d="M-5 -330l42 210q143 -50 336 -50q296 0 330 170l71 354q-195 -354 -488 -354q-303 0 -235 341l142 709h265l-142 -712q-25 -124 118 -124q189 0 378 333l101 503h265l-210 -1050q-76 -380 -639 -380q-194 0 -334 50zM446 1240l38 190h215l-38 -190h-215zM786 1240l38 190 h215l-38 -190h-215z" />
<glyph unicode="&#x152;" horiz-adv-x="2215" d="M101 713q143 717 861 717h1257l-46 -230h-700q88 -112 68 -360h525l-46 -230h-525q-69 -242 -207 -380h706l-46 -230h-1272q-686 0 -575 713zM377 719q-98 -489 345 -489q422 0 520 489q96 481 -326 481q-443 0 -539 -481z" />
<glyph unicode="&#x153;" horiz-adv-x="1851" d="M38 525q107 535 617 535q251 0 343 -180q160 170 403 170q448 0 385 -314t-486 -314h-263q-42 -212 234 -212q209 0 394 130l-42 -210q-165 -130 -414 -130q-252 0 -347 176q-165 -185 -421 -185q-508 0 -403 534zM304 529q-66 -329 179 -329t311 329q64 321 -181 321 t-309 -321zM1076 616h265q165 0 188 113q22 113 -170 113q-220 0 -283 -226z" />
<glyph unicode="&#x178;" horiz-adv-x="1300" d="M169 1430h275l264 -689l516 689h285l-712 -930l-100 -500h-265l100 500zM603 1620l38 190h215l-38 -190h-215zM943 1620l38 190h215l-38 -190h-215z" />
<glyph unicode="&#x2c6;" horiz-adv-x="700" d="M192 1170l227 260h150l123 -260h-180l-44 130l-96 -130h-180z" />
<glyph unicode="&#x2dc;" horiz-adv-x="700" d="M193 1174l42 210q69 46 139 46q52 0 105 -26t109 -26q75 0 155 46l-42 -210q-69 -46 -139 -46q-52 0 -105 26t-109 26q-75 0 -155 -46z" />
<glyph unicode="&#x2000;" horiz-adv-x="909" />
<glyph unicode="&#x2001;" horiz-adv-x="1819" />
<glyph unicode="&#x2002;" horiz-adv-x="909" />
<glyph unicode="&#x2003;" horiz-adv-x="1819" />
<glyph unicode="&#x2004;" horiz-adv-x="606" />
<glyph unicode="&#x2005;" horiz-adv-x="454" />
<glyph unicode="&#x2006;" horiz-adv-x="303" />
<glyph unicode="&#x2007;" horiz-adv-x="303" />
<glyph unicode="&#x2008;" horiz-adv-x="227" />
<glyph unicode="&#x2009;" horiz-adv-x="363" />
<glyph unicode="&#x200a;" horiz-adv-x="101" />
<glyph unicode="&#x2010;" horiz-adv-x="700" d="M42 420l42 210h500l-42 -210h-500z" />
<glyph unicode="&#x2011;" horiz-adv-x="700" d="M42 420l42 210h500l-42 -210h-500z" />
<glyph unicode="&#x2012;" horiz-adv-x="700" d="M42 420l42 210h500l-42 -210h-500z" />
<glyph unicode="&#x2013;" horiz-adv-x="1200" d="M42 420l42 210h1000l-42 -210h-1000z" />
<glyph unicode="&#x2014;" horiz-adv-x="1700" d="M42 420l42 210h1500l-42 -210h-1500z" />
<glyph unicode="&#x2018;" horiz-adv-x="495" d="M107 995l237 435h245l-237 -435h-245z" />
<glyph unicode="&#x2019;" horiz-adv-x="495" d="M107 995l237 435h245l-237 -435h-245z" />
<glyph unicode="&#x201a;" horiz-adv-x="435" d="M-142 -250l237 435h185l-237 -435h-185z" />
<glyph unicode="&#x201c;" horiz-adv-x="925" d="M107 995l237 435h245l-237 -435h-245zM537 995l237 435h245l-237 -435h-245z" />
<glyph unicode="&#x201d;" horiz-adv-x="925" d="M107 995l237 435h245l-237 -435h-245zM537 995l237 435h245l-237 -435h-245z" />
<glyph unicode="&#x201e;" horiz-adv-x="925" d="M-142 -250l237 435h245l-237 -435h-245zM288 -250l237 435h245l-237 -435h-245z" />
<glyph unicode="&#x2022;" horiz-adv-x="630" d="M103 725q43 215 258 215t172 -215t-258 -215t-172 215z" />
<glyph unicode="&#x2026;" horiz-adv-x="1465" d="M-42 0l49 245h265l-49 -245h-265zM458 0l49 245h265l-49 -245h-265zM958 0l49 245h265l-49 -245h-265z" />
<glyph unicode="&#x202f;" horiz-adv-x="363" />
<glyph unicode="&#x2039;" horiz-adv-x="630" d="M13 525l333 375h272l-333 -375l183 -375h-272z" />
<glyph unicode="&#x203a;" horiz-adv-x="630" d="M-62 150l333 375l-183 375h272l183 -375l-333 -375h-272z" />
<glyph unicode="&#x205f;" horiz-adv-x="454" />
<glyph unicode="&#x20ac;" horiz-adv-x="1385" d="M105 735q141 705 891 705q215 0 388 -60l-48 -240q-171 70 -366 70q-418 0 -531 -228h673l-42 -210h-693l-14 -70h693l-42 -210h-673q3 -272 431 -272q195 0 394 70l-48 -240q-197 -60 -412 -60q-750 0 -601 745z" />
<glyph unicode="&#x2122;" horiz-adv-x="1606" d="M280 1359l14 71h511l-14 -71h-212l-120 -602h-87l120 602h-212zM760 757l134 673h110l136 -561l354 561h106l-134 -673h-78l108 543l-347 -543h-69l-135 543l-108 -543h-77z" />
</font>
</defs>
</svg>
