<?xml version="1.0" standalone="no"?>
<!DOCTYPE svg PUBLIC "-//W3C//DTD SVG 1.1//EN" "http://www.w3.org/Graphics/SVG/1.1/DTD/svg11.dtd" >
<svg xmlns="http://www.w3.org/2000/svg">
<metadata></metadata>
<defs>
<font id="streetwise_buddyregular" horiz-adv-x="455" >
<font-face units-per-em="1000" ascent="800" descent="-200" />
<missing-glyph horiz-adv-x="500" />
<glyph horiz-adv-x="1000" />
<glyph horiz-adv-x="1000" />
<glyph unicode="&#xd;" />
<glyph unicode=" " />
<glyph unicode="!" horiz-adv-x="222" d="M227 620q-9 -10 -21 -204q-11 -201 -38 -250q-21 -39 -65 -39q-61 0 -61 85v195q0 72 4 119l-8 15q1 7 1 17q0 27 -7 79l8 12q2 25 10 33q23 23 78 23q50 0 74 -46q17 -33 25 -39zM129 -93q-28 8 -85 18q-16 24 -16 45q0 50 78 60q30 4 65 -18.5t35 -52.5q0 -26 -37 -39 q-15 -5 -40 -13z" />
<glyph unicode="&#x22;" horiz-adv-x="762" d="M371 673q6 -102 6 -142q0 -118 -43 -168q-40 -2 -62 -7q-28 9 -34 68q-2 23 -7 85q-37 16 -63 29q-52 26 -52 65q0 9 3 17q12 48 55 76q40 26 91 26q69 0 106 -49zM741 673q6 -102 6 -142q0 -118 -43 -168q-40 -2 -62 -7q-28 9 -34 68q-2 23 -7 85q-37 16 -63 29 q-52 26 -52 65q0 9 3 17q12 48 55 76q40 26 91 26q69 0 106 -49z" />
<glyph unicode="#" horiz-adv-x="789" d="M819 343q-30 -29 -104 -35q-34 -3 -117 -7q-4 -32 -4 -65q0 -37 5 -75q17 -8 55.5 -12.5t56.5 -12.5q27 -13 31 -40l-24 -15q-29 3 -67 3q-23 0 -49 -1l-7 -7v-74q0 -49 -14 -69q-17 -25 -64 -25q-29 0 -40 14l-3 160q-30 9 -77 9q-38 0 -50 -10v-144q-25 -16 -59 -16 q-21 0 -37 7q-12 36 -18 158q-15 8 -53 10q-42 2 -55 7q-25 9 -25 35q0 9 3 21q28 19 57 22q5 1 61 1l14 18q0 41 -2 112q-11 8 -66.5 11.5t-75.5 18.5q-3 26 7 37q4 5 22.5 13t23.5 14q27 -4 77 -4q6 23 6 54q0 12 -1 36.5t-1 36.5q0 43 9 63q13 30 52 30q24 0 44.5 -12.5 t23.5 -34.5q1 -8 1 -28q0 -16 -1.5 -47.5t-1.5 -47.5q0 -44 10 -64q40 -10 99 -7q0 -24 -4 140q-2 82 5 141q4 36 27 36q28 0 64 -43q33 -39 41 -71t8 -68q0 -22 -4.5 -65t-4.5 -65q44 2 68 2q162 0 158 -45zM475 168q0 41 -7 124q-21 10 -58 9l-59 -2v-116q30 -16 124 -15z " />
<glyph unicode="$" horiz-adv-x="541" d="M409 47l-18 3q-3 -39 -5 -60q-4 -38 -11 -58q-9 -27 -67 -27q-23 0 -33 8q-26 22 -26 137q-57 23 -104 43q-59 25 -77 78q17 34 47 34q23 0 94.5 -45.5t94.5 -45.5q12 0 21 5q86 45 86 88q0 38 -73 77q-40 21 -133 50q-89 28 -132 53q-11 27 -11 45q0 6 1 11 q82 59 165 109q5 17 5 36q0 14 -5.5 41.5t-5.5 40.5q0 29 45 29q29 0 84 -10q17 -15 17 -46q0 -17 -6 -38l9 -7q62 4 117 -28q8 -26 6 -41q-25 -18 -78 -23q-69 -7 -91 -14q-52 -17 -86 -65q53 -20 190 -75q111 -47 122 -147q10 -86 -142 -158z" />
<glyph unicode="%" horiz-adv-x="842" d="M661 257q12 1 44 7q28 6 44 6q35 0 78 -44.5t43 -79.5q0 -49 -26.5 -105.5t-63.5 -84.5t-91 -28q-62 0 -109 34q-52 37 -52 97q0 20 18 62t32 58q10 11 33.5 27.5t33.5 27.5q4 8 16 23zM231 662q11 1 39 7q25 6 40 6q6 0 10 -5t7 -10q33 -5 41 -7q45 -12 71 -62 q16 -31 16 -53q0 -38 -63.5 -106t-100.5 -68q-9 0 -26 -2.5t-26 -2.5q-60 0 -101 40t-41 100q0 41 51 90q2 1 83 73zM383 -81q-16 -8 -47 -12q-51 20 -58 17q-17 13 -18 40q-1 23 7 46q20 59 85 182q61 116 80 186q54 202 108 295q18 31 70 31q28 0 49 -11q27 -14 27 -39 q0 -14 -21 -47l-30 -46q-8 -25 -35 -94q-3 -8 -112 -242q-67 -144 -95 -248q-1 -19 -10 -58zM312 529l-6 30q-10 -5 -38.5 -35.5t-28.5 -38.5q0 -6 7 -20zM724 138q-17 -12 -42 -38q-11 -23 -11 -46t19 -21q36 34 34 105z" />
<glyph unicode="&#x26;" horiz-adv-x="876" d="M904 -79l-16 -12q-58 6 -99 30q-6 4 -57 46q-44 37 -90 37q-35 0 -139.5 -46.5t-160.5 -46.5q-118 0 -233 124q-1 114 8 146q19 66 99 106q-9 21 -47 69q-32 40 -41 78q-4 17 -4 31q0 91 107 159q93 59 191 65q122 7 185 -66q38 -44 38 -88t-38 -95q-17 -23 -79 -87 q-51 -53 -67 -83q109 -65 174 -111q23 19 55 19q24 0 42 -11q22 -13 22 -35q0 -19 -19 -40q20 -22 68.5 -55.5t67.5 -52.5q35 -35 35 -65q0 -8 -2 -16zM327 391q41 0 102 75q49 60 49 101t-60 37q-51 -3 -120 -75q-21 -22 -21 -56q0 -63 50 -82zM530 104l-198 123 q-67 -63 -67 -124q0 -22 10 -40q34 -23 76 -23q59 0 179 64z" />
<glyph unicode="'" horiz-adv-x="320" d="M277 447q-42 -30 -58 -28q-39 4 -54 49q-5 14 -13 79q-10 76 -13 95q-2 12 0 21t13 24.5t14 22.5q7 1 27 7q17 6 26 6q16 0 37.5 -10.5t30.5 -22.5q12 -17 12 -34q0 -8 -3 -23.5t-3 -22.5q-5 -85 -16 -163z" />
<glyph unicode="(" horiz-adv-x="331" d="M346 -162q-15 -16 -40 -16q-12 0 -38 5q-90 70 -108 87q-69 64 -68 108q-52 66 -52 210q0 129 42 275q50 173 131 238q23 13 68 40q6 -2 32 -2q42 0 42 -47q0 -24 -38 -65l-56 -58q-50 -78 -83.5 -195t-33.5 -210q0 -81 27 -129l11 -12q-5 -42 61 -105q23 -22 97 -88z " />
<glyph unicode=")" horiz-adv-x="365" d="M47 -162q15 -16 40 -16q12 0 38 5q96 75 109 86q69 64 67 109q53 66 53 210q0 128 -43 275q-51 173 -131 238q-23 13 -68 40q-4 -2 -30 -2q-44 0 -44 -47q0 -24 38 -65l56 -58q50 -78 83.5 -195t33.5 -210q0 -81 -27 -129l-11 -12q6 -43 -61 -105l-96 -88z" />
<glyph unicode="*" horiz-adv-x="597" d="M603 324q-14 -7 -44 -20q-17 -1 -50 -6q0 -20 37.5 -67t37.5 -65q0 -10 -4 -19q-35 -27 -52 -27q-23 0 -78 47q-41 35 -69 68q-12 -9 -61 -73q-37 -48 -86 -57q-25 12 -25 38q0 30 29 74q11 17 41 61q-16 10 -46 10h-16q-11 -1 -17 -1q-33 0 -52 12q3 12 3 29q0 9 -1 19 v10q37 36 85 36q-4 0 2 0q6 -1 16 -1h16q19 0 29 8q2 54 14 131q21 17 56 17q19 0 30 -7q17 -11 28 -70q13 -71 19 -85q59 1 95 -6q64 -14 63 -56z" />
<glyph unicode="+" horiz-adv-x="578" d="M589 307q-11 -3 -28 -15.5t-26 -15.5q-31 -11 -77 -16q-22 -2 -25 -28q-1 -9 -1 -140q-21 -8 -22 -21q-23 0 -71 1q-23 26 -30.5 90.5t-16.5 78.5h-84q-48 0 -77 25q-6 5 -6 18t8 32.5t18 23.5q20 8 72 8.5t73 8.5v145q0 21 33 40q30 17 53 17q33 0 51 -29q15 -24 15 -60 q0 -19 -5.5 -56.5t-5.5 -56.5q24 -2 85 -9q47 -5 67 -41z" />
<glyph unicode="," horiz-adv-x="337" d="M326 -78l11 -115q0 -48 -16 -65q-33 -8 -58 -8q-13 0 -23 2q-5 10 -15 33q-4 20 -9 40q-6 12 -47 26q-28 10 -37 17q-16 13 -16 36q0 25 14 56t33 43q16 -7 111 -13q27 -33 52 -52z" />
<glyph unicode="-" horiz-adv-x="645" d="M637 343q-34 -34 -51 -34q-44 0 -130.5 -3.5t-130.5 -3.5q-130 0 -156 14q-19 10 -34 54q20 16 41 33q17 11 57 11q80 0 182 -18q110 -8 120 -10q82 -12 102 -43z" />
<glyph unicode="." horiz-adv-x="190" d="M126 -178q-28 9 -85 19q-16 24 -16 44q0 50 78 60q30 4 65 -18t35 -52q0 -27 -37 -40q-11 -4 -40 -13z" />
<glyph unicode="/" horiz-adv-x="737" d="M104 -94q-12 15 -12 34q0 50 149 242q60 75 179 224q240 301 255 300q39 -2 74 -2q35 -18 35 -49q0 -24 -53 -72l-54 -49l-290 -348q-232 -279 -283 -280z" />
<glyph unicode="0" horiz-adv-x="748" d="M742 294l-8 -21q14 -38 14 -75q0 -129 -133 -216q-118 -77 -253 -77q-150 0 -224 109q-38 55 -43 62q1 9 1 18q0 18 -8 62q-7 40 -5 63q12 129 86 290q95 206 202 206q41 0 82 -33q1 -4 2 -51q107 -9 191 -122q72 -97 96 -215zM351 557q-54 -65 -91.5 -174.5 t-37.5 -196.5q0 -186 157 -186q33 0 70 8q80 17 122 83q38 59 38 145q0 81 -34 157q-37 83 -99 125q-17 11 -125 39z" />
<glyph unicode="1" horiz-adv-x="517" d="M514 642l-9 -11q3 -41 -10 -283t-13 -309q0 -30 2 -35q14 -37 14 -51t-16 -39q-20 -6 -44 -6q-56 0 -73 32q-21 39 -21 68q0 71 8.5 213.5t8.5 213.5q0 65 -5 123l-11 14q-36 -12 -101.5 -89t-101.5 -86q-14 5 -41 17l-32 -3q-8 12 -8 27q0 49 83 127q63 60 119 94l4 14 q61 38 103 38q33 0 67 -20q9 -5 77 -49z" />
<glyph unicode="2" horiz-adv-x="583" d="M625 -18q0 -25 -2 -43q-32 -28 -295 -28q5 0 -196 2q-13 9 -37 26.5t-24 33.5q0 18 22 42h8q87 85 182 216q138 190 138 292q0 52 -39 75q-5 3 -12 3q-26 0 -83 -39q-44 -30 -55 -82q-3 -38 -7 -76q-7 -34 -45 -34q-33 0 -100 22q-1 12 -1 24q0 117 97 206.5t215 89.5 q64 0 115 -33q13 -14 47 -34q-1 -14 5 -34q8 -26 9 -34q2 -15 2 -26q0 -114 -111 -287q-61 -95 -185 -247q51 -11 118 -11h74q97 0 160 -24z" />
<glyph unicode="3" horiz-adv-x="687" d="M96 34q-1 12 -9 39t-8 42q0 20 10 42q55 7 129 -55q106 -89 163 -89t107.5 46.5t50.5 103.5q0 66 -80 89q-11 3 -23 3q-27 0 -85 -30.5t-81 -30.5q-38 0 -72 44q-16 20 -16 37q0 30 50 50q25 10 67 26q54 34 99 94q53 70 53 127q0 9 -2 18q-14 9 -52 9q-31 0 -85 -7 q-50 -48 -116 -48q-38 0 -72 18q-7 26 -7 45q0 8 1 14q196 89 331 89q101 0 147 -57q20 -25 20 -63q-1 -99 -108 -225q15 -11 85 -39q50 -20 78.5 -64t28.5 -98q0 -107 -110 -185q-101 -72 -212 -72q-33 0 -61 8q-56 16 -116 50q-34 20 -105 69z" />
<glyph unicode="4" horiz-adv-x="664" d="M596 263q-4 -94 -4 -156t4 -91q14 -56 14 -72q0 -6 -2 -8l-22 -27q-81 -8 -110 73q-17 48 -17 146v18q1 30 1 25v41q0 36 -2 56q-42 1 -120 -8q-82 -10 -120 -10q-54 0 -131 13q-6 21 -6 44t10 68q10 50 12 70l10 119q7 79 28 108q30 41 84 41q61 0 61 -72q0 -32 -13 -75 q-16 -53 -34 -204q39 -8 92 -8q63 0 117 10l7 7q-10 246 -9 286q1 21 32 35q26 12 50 12q74 0 74 -78q0 -18 -5.5 -53.5t-5.5 -53.5q0 -15 4 -60q3 -38 1 -61l60 -44q21 -15 21 -26q0 -9 -20 -23.5t-61 -41.5z" />
<glyph unicode="5" horiz-adv-x="620" d="M341 364l-40 -42q-29 -27 -50 -27q-15 0 -40 3q-34 4 -41 5q-18 10 -44 37q-32 60 -32 160q0 127 60 162q15 9 121 18q99 9 118 27q78 0 108 -5q73 -12 78 -57q-11 -22 -143 -48q-167 -33 -174 -36q-18 -33 -18 -51q0 9 8 -55q2 -1 6 -1q9 0 29 9q61 14 150 2 q93 -13 146.5 -70t53.5 -149q0 -97 -57 -186q-54 -85 -142 -135q-39 -22 -93 -22q-95 0 -179 56q-94 62 -94 153q0 16 23 40t38 19q19 -6 43 -47q36 -61 47 -75q41 -51 96 -51q79 0 128 78q43 68 43 151q0 60 -27 98q-30 42 -88 42q-16 0 -34 -3z" />
<glyph unicode="6" horiz-adv-x="610" d="M302 477q18 -5 56 -8t57 -9q90 -27 145 -102.5t55 -169.5q0 -118 -88 -200.5t-207 -82.5q-65 0 -119 32q-126 75 -126 265q0 134 71 297q84 193 197 208q30 4 76 -13q52 -19 52 -46q0 -17 -25 -33l-86 -54q-41 -32 -58 -84zM469 264q-12 46 -45 75.5t-79 29.5 q-82 0 -123 -82q-13 -25 -12 -154q0 -52 33.5 -86t84.5 -34q71 0 108 63q31 52 31 128q0 8 2 31q2 22 0 29z" />
<glyph unicode="7" horiz-adv-x="594" d="M613 333q-29 -16 -141 -38q-23 -64 -30 -190q-7 -130 -21 -172q-8 -24 -49 -24q-36 0 -59.5 22t-21.5 58q3 63 17 140l25 139q-12 4 -21 2q-6 -2 -21 -5q-26 -5 -61 9q-40 16 -40 41q0 47 89 55q54 5 67 15l12 203q-3 2 -9 2q-32 0 -105 -23t-105 -24q-1 1 -40 17 q-32 13 -32 44q0 25 30 33q15 2 53 8q42 7 126.5 30t128.5 30q27 -2 82 1q2 -5 22 -29q15 -18 17 -33q2 -17 -17 -60q-16 -62 -26 -194q15 -6 51.5 -8t53.5 -10q25 -12 25 -39z" />
<glyph unicode="8" horiz-adv-x="631" d="M374 -73q-17 1 -56 -9.5t-53 -9.5q-195 19 -195 165q0 109 99 246q-39 39 -47 48q-30 33 -31 55q-8 127 178 226q3 2 47 34q33 24 48 24q77 -1 143 -54q71 -56 71 -131q0 -21 -6 -40q-4 -12 -18.5 -34t-18.5 -34q95 -101 95 -205q0 -107 -107 -191q-21 -17 -73.5 -43.5 t-75.5 -46.5zM398 607q-169 -106 -169 -176q14 -9 20 -35q42 0 55 3q22 5 42 22q27 23 34 27q64 36 64 84q0 66 -46 75zM350 38q56 2 107 79q47 71 47 130q0 30 -20 65q-24 41 -52 34q-66 -16 -99 -37q-50 -32 -91 -106.5t-41 -133.5q0 -61 54 -61q21 0 71 19q22 8 24 11z " />
<glyph unicode="9" horiz-adv-x="643" d="M481 -92q-12 4 -26 4q-16 0 -35 -5q-28 33 -28 96q0 28 8 84t8 84q-78 9 -153 20q-96 14 -140 70q-40 52 -42 153l8 11q3 84 81 181q83 101 164 101h123q13 -11 79 -45q56 -29 82 -59q38 -44 38 -111q0 -30 -8 -68q-5 -23 -26 -64.5t-26 -64.5l-43 -205 q-33 -154 -64 -182zM493 492q0 39 -19 73q-23 42 -59 36q-42 -16 -85 -32q-33 -18 -66 -69q-43 -67 -43 -127q0 -43 25 -67q15 -14 52 -19q73 -9 137 68q58 70 58 137z" />
<glyph unicode=":" horiz-adv-x="343" d="M338 448q-18 1 -20 -17q-1 -7 -3 -25q-20 -37 -75 -37q-84 0 -104 61q-11 34 -17 40q14 25 38 56q8 6 23 6q24 0 89 -25q18 -7 37 -27q24 -25 32 -32zM339 174q-17 1 -20 -17q-1 -13 -3 -26q-19 -37 -75 -37q-38 0 -72 17q-19 10 -32 43q-14 38 -17 41q14 25 38 56 q8 6 23 6q23 0 89 -25q17 -6 37 -25q16 -17 32 -33z" />
<glyph unicode=";" horiz-adv-x="339" d="M338 448q-18 1 -20 -17q-1 -7 -3 -25q-20 -37 -75 -37q-84 0 -104 61q-11 34 -17 40q14 25 38 56q8 6 23 6q24 0 89 -25q18 -7 37 -27q24 -25 32 -32zM326 179l11 -116q0 -48 -15 -64q-34 -9 -60 -9q-12 0 -22 2q-5 10 -15 33q-5 20 -9 40q-6 12 -46 26q-54 19 -54 53 q0 25 14 56t33 43q16 -7 111 -13q27 -33 52 -51z" />
<glyph unicode="&#x3c;" horiz-adv-x="482" d="M308 257q18 -18 64 -51q43 -32 63 -53q33 -35 33 -64q0 -16 -9 -31q-6 -2 -14 -2q-49 0 -157 69q-21 13 -145 94q-1 9 -1 17q0 38 42 73q48 40 55 68l83 92q62 68 94 68q29 0 51 -19.5t22 -47.5q0 -26 -21 -46q-21 -15 -60 -49q-32 -40 -100 -118z" />
<glyph unicode="=" horiz-adv-x="688" d="M674 395q-25 -27 -49 -32q-45 -9 -112 -10q-87 -1 -113 -4q-26 -8 -78 -18q-46 -3 -86 4q-69 12 -69 50q0 30 44 47q36 14 69 11q47 -5 133 -2l133 4q-4 0 32 -9l53 -8q26 -7 43 -33zM721 187l-8 -23q-11 -9 -36 -21q-122 -28 -265 -28q-114 0 -180 23q-17 6 -17 34 q0 13 6 42q5 0 47 14q12 4 123 -6q124 -11 145 -11q12 0 36 1t36 1q88 0 113 -26z" />
<glyph unicode="&#x3e;" horiz-adv-x="558" d="M260 95q-19 19 -20 28q0 18 61 102l77 106q-15 19 -49 37.5t-58 19.5q-30 21 -86 68q-2 14 11 30q12 12 23 24q97 5 169 -48q9 -6 93 -51q50 -26 56 -31q29 -22 29 -53t-18 -43q-71 -48 -113 -92q-16 -18 -47 -53q-27 -30 -53 -44q-5 -3 -35 -1q-32 2 -40 1z" />
<glyph unicode="?" horiz-adv-x="664" d="M369 330q-3 -37 19 -65q11 -14 48 -41q34 -25 46 -44q4 -49 -40 -49q13 0 -66 9q-4 6 -31 21q-45 25 -79 75q-11 17 -60 91q-1 12 -1 24q0 28 7 49q37 21 112 32q33 4 119 16q104 15 104 60q0 36 -78 70q-51 22 -98 22q-48 0 -121.5 -40.5t-87.5 -40.5q-38 0 -80 54 q16 70 95 103q60 25 144 25q113 0 233 -50q152 -63 152 -161q0 -36 -28 -68t-64 -45q-49 -18 -122 -28q-112 -16 -123 -19zM625 -46q-17 -33 -44 -41q-5 -1 -13 -1q-36 0 -82 26q-52 29 -52 61q0 26 41 45q6 3 19 1l20 -3q58 0 79 -15q26 -18 32 -73z" />
<glyph unicode="@" horiz-adv-x="1013" d="M995 275q-106 -53 -160 -52q-23 1 -104 4l-65 -44q-63 -40 -133 -40q-74 0 -124 39q-55 43 -55 115q0 37 17 78q90 62 137 62q39 0 58 -35q24 18 57 21q41 4 54 10q19 -12 48 -42t47 -41q30 -18 69 -18q65 0 65 56q0 72 -72.5 151.5t-144.5 89.5q-28 4 -55 4 q-139 0 -256 -86q-128 -94 -128 -229q0 -121 121 -219q108 -88 284 -88q30 0 90.5 2t90.5 2q23 0 70 18.5t70 18.5q7 0 14 -2q15 -10 27 -39q-14 -59 -133 -87q-81 -19 -170 -19q-169 0 -312 58q-166 67 -243 195q-41 68 -41 175q0 79 25 126q44 84 148 155q110 76 198 72 q49 29 123 29q145 0 279 -93q142 -99 142 -226q0 -62 -38 -121zM590 300q-29 39 -54 55q-44 -30 -44 -59q0 -12 9 -21q4 -5 19 -10t22 -4q6 -3 12 -3q29 0 36 42z" />
<glyph unicode="A" horiz-adv-x="807" d="M865 95q-5 -32 -68 -33q-2 -6 -2 -13q0 -15 13.5 -47.5t13.5 -48.5q0 -27 -30 -45q-17 -10 -31 -10q-28 0 -51 39q-7 11 -35 77q-19 43 -35 50q-39 16 -224 14l-96 -1q-14 13 -31 13q-7 0 -20 -2l-19 -3q-13 -22 -26.5 -72.5t-27.5 -72.5q-22 -34 -59 -34q-9 0 -19 2 q-21 25 -21 63q0 24 12.5 71t12.5 71q0 19 -15 41q-10 15 -10 26t36 26q23 10 29 24q19 44 67 250q40 173 81 219q44 7 63 7q64 0 122 -107q37 -80 73 -161q122 -249 162 -278q7 -5 58 -16q42 -9 77 -49zM586 165l-198 335l-106 -303q106 -19 167 -26q19 -2 43 -1l44 2 q27 1 50 -7z" />
<glyph unicode="B" horiz-adv-x="900" d="M632 230q45 -16 80 -48q43 -39 43 -79q0 -172 -263 -172q-20 0 -60 1.5t-60 1.5q-47 0 -77 -6q-79 -16 -83 -16q-39 0 -106 79q-2 20 9.5 33t31.5 12l-1 334q0 265 23 298q14 21 51 22q5 0 59 1q27 0 86 4q56 4 86 4q359 0 445 -122q39 -55 39 -95q0 -13 -4 -26 q-26 -88 -120 -147q-53 -33 -179 -79zM288 272q21 0 79 8q64 9 70 16q53 2 76 4q43 4 75 15q127 42 177 104q16 20 16 48q0 29 -15.5 58t-40.5 42q-41 21 -132 34q-78 11 -138 11q-107 0 -140.5 -33.5t-33.5 -140.5q0 -28 3.5 -83t3.5 -83zM288 161l-4 -69q0 -47 15 -70 q15 0 79 -6q42 -4 79 -4q6 0 16 5t15 5q37 3 75 25q45 27 41 60q-3 24 -53 46q-43 19 -73 19q-129 0 -190 -11z" />
<glyph unicode="C" horiz-adv-x="810" d="M831 341q-18 -20 -49 -20q-19 0 -72 15q-7 14 -10 40q-4 32 -6 42q7 25 7 49q0 69 -58 109q-51 35 -123 35q-118 0 -202 -84q-100 -100 -100 -276q0 -47 8 -100q11 -72 83 -109q59 -31 139 -31t135 27q12 6 54 41q31 26 59 26q44 0 55 -30q-20 -87 -121 -133 q-82 -37 -184 -37q-89 0 -164 27q-90 32 -131 96q-32 51 -39 107q-3 31 -12 111q-3 27 -3 41q0 54 15 115q17 70 44 106v16q54 88 168 139q103 47 215 47q136 0 216 -70q85 -74 85 -208q0 -43 -9 -91z" />
<glyph unicode="D" horiz-adv-x="813" d="M405 -52l-8 3q-134 -40 -192 -40q-50 0 -73 21q-10 9 -10 279q0 186 6 199q-5 23 -11 105q-4 59 -26 102q10 9 32 38q18 23 38 35q27 -2 62 -3q12 1 122 10q73 6 123 6q100 0 180 -25q176 -55 176 -235q0 -25 -4 -53q-26 -183 -298 -376q-18 -13 -58 -34q-11 -6 -59 -32z M257 583l-13 -426q-3 -95 7 -115q18 -4 37 -4q119 0 249 126q121 118 150 235q0 4 4.5 12t4.5 13q0 3 -1 6q3 16 3 31q0 85 -111 125q-78 28 -182 28q-127 0 -148 -31z" />
<glyph unicode="E" horiz-adv-x="891" d="M820 488q-14 17 -53 64q-50 60 -119 60q-124 0 -257 -128t-141 -252l8 -7q4 1 160 13q138 11 208 11q100 0 128 -17l-19 -39q-44 -14 -235 -46q-161 -27 -208 -56q7 -75 180 -75q94 0 150 15q22 6 73 43q44 32 67 32q26 0 48 -18q2 -7 2 -14q0 -70 -116 -123 q-103 -47 -203 -47q-43 0 -65 12q-13 -3 -28 -3q-67 0 -148.5 49t-113.5 109q-10 19 -16 72q-5 49 -16 62q10 22 12 43q12 125 135 262q121 134 245 166q84 22 163 22q84 0 167 -33q107 -42 107 -115q0 -67 -115 -62z" />
<glyph unicode="F" horiz-adv-x="756" d="M297 573q-17 -29 -17 -149q0 -75 11 -90q-1 -6 3 -80l12 -13q25 -2 61 -2h96q166 0 235 -47q-29 -61 -107 -68q-25 -2 -148 11q-28 3 -51 3q-53 0 -81 -16q-11 -6 -11 -23q0 -18 16.5 -65t16.5 -70q0 -56 -48 -56q-25 0 -53 15q-31 16 -39 37q-11 28 -32 239 q-20 200 -20 247q0 13 1 46q1 28 1 45q-1 27 -4 44q0 1 -25 16t-25 26q0 5 3 11q1 3 14.5 18t16.5 17q37 22 128 22q39 0 75 -4q18 -2 53 -2q61 0 183.5 8t183.5 8q20 0 26 -2q16 -5 27 -26t11 -40q0 -49 -72 -49q-20 0 -59 5.5t-59 5.5q-26 0 -77 -5t-76 -5l-86 -1 q-38 0 -84 -11z" />
<glyph unicode="G" horiz-adv-x="880" d="M434 580l-10 -10q-36 -6 -85.5 -52t-60.5 -82q-21 -17 -37 -72.5t-17 -56.5q5 -25 5 -63q1 -101 94 -173q86 -68 190 -68q32 0 58 7q49 13 101 68q56 57 58 105q-34 29 -82 29q-34 0 -110 -22q-71 -20 -111 -17q-13 13 -13 24q0 13 16 26q21 17 22 20q108 67 215 67 q30 0 53 -7q7 -1 84 -14q96 -16 96 -63q0 -17 -34 -63q-17 -41 -33 -74q-42 -84 -143 -134q-92 -47 -193 -48q-65 -1 -169 44q-110 46 -143 95q-83 122 -83 243q0 174 158 300q146 116 315 116q99 0 164 -46q69 -49 88 -143q3 -13 17 -52q12 -32 12 -53q0 -31 -22 -48 t-54 -17q-44 0 -62.5 16t-20.5 59q-1 32 -6 89q-10 53 -47 80q-16 12 -55 12q-46 0 -155 -22z" />
<glyph unicode="H" horiz-adv-x="805" d="M664 -68q-1 78 -12 139q-26 16 -105 16q-65 0 -172 -11q-68 -7 -137 -15q-2 -16 2 -47q6 -36 6 -48q0 -63 -43 -63q-13 0 -89 37q-10 21 -10 49q0 12 2.5 37t2.5 37q-1 8 -12.5 29.5t-11.5 28.5t4 11l27 29q4 19 4 33q0 9 -2 16q11 23 11 85q0 49 -7.5 147t-7.5 147 q0 43 6 64q47 40 86 40q17 0 38 -5l24 -35q-16 -245 -24 -477q39 -12 100 -12q54 0 157.5 13.5t153.5 14.5q9 24 9 80q0 64 -15.5 191.5t-15.5 191.5q0 16 3 19q21 28 83 28q55 0 62 -63q2 -20 1 -59q-1 -29 2 -219q3 -200 3 -315q0 -133 -5 -139q-11 -14 -33 -14 q-21 0 -46.5 11.5t-38.5 27.5z" />
<glyph unicode="I" horiz-adv-x="260" d="M241 281v-306q0 -31 -22 -48t-54 -17q-67 0 -74 59q-3 25 -3 54q0 46 11 137.5t11 137.5q0 47 -28 204q-19 105 -18 149q0 21 31 38q23 13 51 18q16 3 28 3q69 0 69 -101q0 -14 -1.5 -40.5t-1.5 -40.5q0 -19 1 -27q6 -50 4 -110z" />
<glyph unicode="J" horiz-adv-x="815" d="M93 231q10 29 41 49.5t62 20.5q25 0 45 -15q15 -11 48 -120q17 -55 95 -105q75 -47 135 -47q80 0 117 137q22 82 22 177q0 204 -82 261q-37 -4 -113 -8l-10 -7q-30 5 -89 11v6l-23 29q11 32 30 51q14 0 46 16q40 -3 99 -5q146 14 168 14q49 0 105 -9q29 -25 29 -43 q0 -16 -25 -31q-9 -5 -52 -24q26 -49 36 -116q15 -96 15 -201q0 -153 -58 -249q-70 -116 -214 -116q-138 0 -261.5 95.5t-165.5 228.5z" />
<glyph unicode="K" horiz-adv-x="928" d="M943 612q-14 -47 -102 -105q-11 -7 -169 -96q-96 -54 -120 -89q13 -104 34 -156q32 -80 104 -118q94 57 94 138q0 16 -7 48.5t-7 48.5q0 49 98 49q16 0 36 -2q35 -52 35 -118q0 -104 -72 -184q-74 -84 -176 -84q-136 0 -240 166q-17 35 -56 107q-90 -32 -90 -116 q0 -20 5.5 -61t5.5 -61q0 -27 -7 -48l-31 -22q-78 7 -123 43l-10 354q-5 177 -40 350q69 50 113 50q85 0 85 -217q0 -19 -1 -55.5t-1 -55.5q0 -44 4 -69l276 181q186 122 276 149q10 3 18 3q29 0 68 -30z" />
<glyph unicode="L" horiz-adv-x="655" d="M702 119q-60 -92 -198 -153q-128 -58 -246 -58q-113 0 -178 57q17 117 17 245q0 60 -5.5 178.5t-5.5 178.5q0 51 2 92q1 21 40 35q32 12 57 12q61 0 66 -48q1 -10 1 -35q0 -86 -15 -256t-15 -256q0 -48 6 -63q15 -38 84 -38q60 0 123 40q31 21 112 74q60 39 105 39 q24 0 46 -11z" />
<glyph unicode="M" horiz-adv-x="1080" d="M904 292h-6q-50 -104 -95 -193q-58 -114 -141 -149q-41 -17 -79 -17q-108 0 -179 136q-31 63 -112 229l-8 -5q0 -40 4.5 -119.5t4.5 -119.5q0 -74 -4 -92q-12 -54 -59 -54q-27 0 -58 14t-46 34q9 241 9 349q0 107 -7 132q8 17 8 51q0 29 -7.5 86t-7.5 86q57 45 124 45 q44 0 77 -24q3 -2 48 -149q53 -175 98 -282q67 -161 125 -200q52 13 118 172q42 102 102 293q50 161 56 166q24 22 69 22q82 0 132 -43q0 -72 -8.5 -215t-8.5 -215q0 -42 2 -82q1 -21 8 -71q7 -45 7 -71q0 -36 -7 -52q-10 -23 -45 -37q-29 -12 -59 -12q-13 0 -21 3 q-28 11 -33 94q-2 42 2 162q4 102 -3 128z" />
<glyph unicode="N" horiz-adv-x="909" d="M262 236q-17 -35 -17 -83q0 -28 11 -93q10 -60 8 -93q-2 -28 -26.5 -43t-54.5 -15q-73 0 -81 58q-3 22 -3 50q0 44 12 265q10 185 8 259l-7 6l-8 58l5 11q10 37 38.5 63.5t64.5 26.5q37 0 68 -34q5 -6 47 -177q108 -441 340 -467q12 -1 41 55q65 124 65 287q0 92 -21 187 q-3 12 -20 44q-14 27 -14 45q0 40 66 40q46 0 77 -14q50 -162 50 -324q0 -154 -46 -269q-63 -158 -195 -158q-179 0 -408 315z" />
<glyph unicode="O" horiz-adv-x="873" d="M591 689q25 -31 25 -43q0 -10 -8 -21q5 -8 58 -29q136 -55 186 -201q22 -64 22 -137q0 -183 -124 -298q-61 -56 -168 -56q-119 0 -251 63q-238 113 -238 325q0 160 118.5 286.5t277.5 126.5q52 0 102 -16zM447 603q-103 -36 -161 -141q-52 -93 -57 -211l6 -6 q-2 -7 -2 -14q0 -82 131 -160q119 -72 208 -72q40 0 61 18q46 39 76 114q28 71 28 135q0 69 -26 128q-29 66 -83 99q-21 13 -71 24.5t-71 24.5q-33 20 -39 61z" />
<glyph unicode="P" horiz-adv-x="847" d="M261 94q1 -71 -2 -152q-10 -34 -56 -34q-36 0 -63 21.5t-26 57.5q0 7 -5 157q-6 175 -6 270q0 231 23 262q26 36 116 36q136 0 363 -71q109 -34 140 -49q73 -35 111 -95q18 -28 18 -75q0 -40 -12 -70q-85 -213 -371 -239q-64 -5 -230 -19zM302 581q-13 -9 -37 -29 q-16 -133 -16 -241q0 -71 8 -113q154 11 194 11q74 0 162 65q94 70 94 145q0 24 -9 43q-23 49 -132 82q-53 16 -164 35q-16 3 -49.5 1t-50.5 1z" />
<glyph unicode="Q" horiz-adv-x="866" d="M799 37q55 -71 55 -94q0 -10 -5 -20q-26 -12 -47 -12q-39 0 -73 42q-70 -41 -165 -41q-165 0 -310 105q-158 115 -158 274q0 33 9 68q38 149 122 241q100 108 240 108q58 0 120 -19l25 -35l-8 -28q4 -6 57 -31q34 -16 70 -34q134 -88 134 -288q0 -137 -66 -236zM704 132 q31 63 31 135q0 148 -112 227q-21 15 -68 25t-64 20q-32 19 -47 65q-101 -36 -160 -140q-53 -93 -58 -209q6 -11 9 -32q3 -24 6 -33q27 -69 137 -128q103 -55 183 -55q46 0 74 21q-96 56 -144 127q22 29 32 39q22 20 43 22q30 2 76.5 -27t61.5 -57z" />
<glyph unicode="R" horiz-adv-x="843" d="M870 545q-31 -134 -138 -239q-117 -115 -247 -108q-16 -22 -16 -49q0 -51 46.5 -93.5t97.5 -37.5q20 16 40 51l8 14q19 33 26 41q23 26 49 26q27 0 43 -26q14 -22 14 -50q0 -86 -104 -146q-31 -18 -74 -18q-106 0 -208 95q-91 85 -91 169q0 10 1 20q-14 3 -41 1t-41 -2 q-4 -16 -4 -41q0 -20 3.5 -60t3.5 -60q0 -47 -17 -69q-19 -2 -34 -2q-56 0 -73 33q-13 25 -12 95q1 66 -3 182q-4 130 -4 183q0 115 10 185q5 34 34.5 52t64.5 14q8 -1 21.5 -8.5t19.5 -8.5q27 -10 181 -13q168 -4 258 -23q142 -31 186 -107zM238 307q24 0 67 -18.5 t67 -18.5q44 0 109 37q217 124 217 217q0 13 -8 16q-45 17 -132 34q-99 19 -179 19q-99 0 -125 -34q-8 -11 -13 -119q-3 -67 -3 -133z" />
<glyph unicode="S" horiz-adv-x="743" d="M214 328q39 -60 180 -73l232 -22q114 -26 112 -115q-2 -67 -55 -124t-120 -68q-103 -17 -168 -17q-71 0 -128 17q-34 10 -59.5 47.5t-25.5 74.5q0 48 47 66q16 6 27 6q13 0 25 -14q15 -18 21 -21q-2 -12 -2 -22q0 -22 9 -39q40 -23 104 -23q72 0 124 28q67 36 60 102 q-11 11 -160 28l-184 21q-165 39 -165 160q0 131 150 244q132 99 273 118l10 -5q14 1 27 1q91 0 153 -53q66 -56 66 -145q0 -81 -60 -116q-29 -17 -46 -17q-38 0 -38 81q0 15 1.5 43.5t1.5 43.5q0 24 -5 34q-21 42 -118 42q-20 0 -30 -2q-87 -17 -165 -106q-74 -83 -94 -175 z" />
<glyph unicode="T" horiz-adv-x="882" d="M883 557q-12 2 -149 4q-96 2 -143 15q-26 -36 -26 -238q0 -111 7 -264l6 -131q-11 -11 -33 -32q-50 2 -70 8q-37 11 -45 47q-7 30 -13 290q-5 212 -5 318l-9 5q-100 -11 -136 -11q-144 0 -164 86l17 28q13 1 37.5 11t36.5 12q38 5 94 5q75 0 207 -9l190 -13q22 -1 59 2 q42 4 58 4q113 0 113 -59q0 -51 -32 -78z" />
<glyph unicode="U" horiz-adv-x="759" d="M240 690q16 -17 16 -64q0 -48 -11.5 -142.5t-11.5 -142.5q0 -214 137 -297q31 -19 63 -19q11 0 18 3q85 36 135 161q44 110 44 235q0 68 -15 117q0 3 -21 53q-15 35 -15 57q0 26 20 43q14 12 53 12q44 0 57 -16q46 -58 46 -223q0 -90 -15 -199q-17 -124 -46 -192 q-10 -24 -66 -76q-52 -49 -80 -65q-41 -24 -92 -24q-36 0 -82 13q-114 32 -193 144q-77 106 -83 228l-11 206q-5 86 20 151q15 40 84 40q16 0 49 -3z" />
<glyph unicode="V" horiz-adv-x="751" d="M86 641q24 45 86 45q29 0 49 -13q14 -9 75 -238q65 -245 94 -289q123 179 210 501q8 29 39 46q27 15 60 15q64 0 64 -57q0 -29 -66 -183l-76 -176q-140 -332 -152 -352q-17 -30 -65 -30q-35 0 -62 15q-32 17 -39 48.5t-13 62.5l-117 309q-87 232 -87 296z" />
<glyph unicode="W" horiz-adv-x="1007" d="M865 -69q-87 -4 -112 12q-61 40 -127 171l-100 200l-10 -14q0 -50 -54 -165l-58 -123q-43 -88 -74 -104q-16 -8 -29 -8q-77 0 -136 186q-50 158 -50 292q0 48 10 59q-15 49 -15 114q0 34 9 128q28 27 69 27q32 0 72 -17l21 -46q-29 -232 -29 -326q0 -146 44 -200 q60 86 97 219q16 58 49 237q1 2 0 58q-1 68 75 68q31 0 58 -11q36 -14 36 -40q0 -369 178 -566q50 28 75 159q17 91 17 185q0 141 -28 192q15 57 70 57q49 0 74 -47q5 -7 7 -76q3 -108 3 -141q0 -268 -142 -480z" />
<glyph unicode="X" horiz-adv-x="718" d="M693 -92q-27 2 -79 15q-9 4 -98 133l-107 155q-39 -38 -94 -126q-62 -99 -91 -131l-3 -21q-25 -28 -57 -28q-46 0 -94 54v18q37 39 131 159q99 127 116 161q7 14 -73 125q-77 107 -99 125q1 6 1 11q0 17 -20.5 49t-20.5 43q0 20 20 43q21 5 40 5q59 0 103 -51 q29 -33 66 -112q41 -85 59 -113q17 17 60 96q52 95 80 131q51 65 96 65q36 0 69 -40v-33q-24 -21 -110 -152q-81 -124 -104 -169q-1 -3 -1 -7q0 -19 49 -69q12 -13 93 -119q68 -90 93 -97q27 -28 27 -50q0 -18 -52 -70z" />
<glyph unicode="Y" horiz-adv-x="831" d="M818 613q19 -81 19 -161q0 -139 -55 -229q-63 -103 -192 -127q1 -34 -4 -80q-8 -73 -8 -80q-33 -39 -64 -39q-45 0 -78 77q-28 65 -25 117l-113 46q-74 34 -110 82q-31 40 -58 124q-32 100 -32 188q0 133 73 165q7 3 21 3q27 0 63 -14q43 -17 43 -39q0 -27 -16 -77 q-18 -54 -20 -77q-3 -33 2 -86.5t14 -84.5q17 -56 83 -96q63 -38 124 -38q14 0 32 4q109 24 149 129q27 71 27 205q0 22 -29.5 75t-29.5 64q0 21 34 32q25 8 52 8q59 0 75 -48q11 -33 23 -43z" />
<glyph unicode="Z" horiz-adv-x="846" d="M870 23q8 -15 8 -36q0 -32 -15 -55q-18 -28 -48 -24q-38 11 -74 18q-19 4 -73 4q-64 0 -192.5 -7t-192.5 -7q-110 0 -137 17q-33 21 -33 66q0 37 28 52q105 55 251 228q111 131 209 282q-6 9 -121 9q-62 0 -179 -3l-117 -3q-6 2 -47 19q-27 11 -38 35l12 38q27 22 121 22 q36 0 117 -5q60 -4 96 -2q115 5 243 16q7 1 45 12q34 10 40 8q18 -6 42 -18q12 -6 23.5 -27.5t11.5 -36.5q0 -9 -2 -12q-9 -15 -46 -42q-45 -32 -53 -40q-38 -37 -91 -108q-63 -85 -86 -111q-137 -157 -246 -279l-2 -13q28 -2 88.5 16t90.5 15q187 -19 201 -16l28 9 q24 -8 69 -12q49 -4 69 -9z" />
<glyph unicode="[" horiz-adv-x="335" d="M359 719l-14 -30q-41 -12 -93 -12q74 1 -94 1q-15 -98 -15 -274q0 -63 6 -249l7 -217q15 -17 77 -17q28 0 64 3l21 -21l-9 -31q-41 -25 -139 -40l-9 5q-43 -10 -59 -10q-59 0 -59 60q0 15 4 40q11 70 11 204q0 51 -9 347q-6 188 5 227q13 48 53 73q10 6 31 6 q46 0 203 -40z" />
<glyph unicode="\" horiz-adv-x="751" d="M772 -94q12 15 12 34q0 50 -149 242q-60 75 -179 224q-240 301 -255 300q-39 -2 -74 -2q-35 -18 -35 -49q0 -24 53 -72l54 -49l290 -348q232 -279 283 -280z" />
<glyph unicode="]" horiz-adv-x="368" d="M43 719l14 -30q41 -12 93 -12q-74 1 94 1q14 -98 14 -274q0 -94 -5 -249l-7 -217q-15 -17 -77 -17q-28 0 -64 3l-21 -21l9 -31q41 -25 139 -40l9 5q43 -10 59 -10q59 0 59 60q0 15 -4 40q-11 70 -11 204q0 51 9 347q6 187 -5 227q-13 49 -53 73q-10 6 -32 6 q-46 0 -202 -40z" />
<glyph unicode="^" horiz-adv-x="672" d="M606 348q-25 17 -90 76q-52 47 -98 75q-10 -9 -20 -27q-12 -22 -17 -29q-49 -61 -64 -75q-28 -26 -69 -26q-23 0 -56 7q-8 12 -8 28q0 26 22 60q10 15 35 55q16 32 53 100q38 56 87 63q39 6 98 -42q16 -16 82 -77q60 -46 77 -63q48 -46 48 -80q0 -26 -35 -35 q-5 -1 -45 -10z" />
<glyph unicode="_" horiz-adv-x="626" d="M617 -34q-33 -34 -50 -34q-44 0 -130.5 -3t-130.5 -3q-131 0 -156 13q-20 10 -34 54q29 29 44 37q20 9 60 9q31 0 92.5 -7t92.5 -7q15 0 43.5 1.5t43.5 1.5q88 0 125 -62z" />
<glyph unicode="`" horiz-adv-x="510" d="M467 355l-11 -9q-16 4 -120 89q-99 81 -122 105q7 53 53 66q42 12 70 -3q42 -22 105 -86q73 -74 73 -117q0 -16 -12.5 -31t-28.5 -15q-4 0 -7 1z" />
<glyph unicode="a" horiz-adv-x="807" d="M821 95q-11 -32 -75 -33q-5 -11 -5 -24q0 -12 4.5 -36t4.5 -36q0 -37 -41 -58q-19 -10 -33 -10q-28 0 -43 39q-6 14 -19 77q-9 43 -24 50q-36 16 -221 14l-96 -1q-12 13 -29 13q-7 0 -20 -2l-20 -3q-18 -21 -42 -72.5t-42 -72.5q-29 -34 -66 -34q-9 0 -19 2 q-10 17 -10 39q0 29 30 96.5t29 86.5q-1 9 -8 25.5t-5 24.5q2 10 42 26q24 10 34 24q25 38 119 250q76 172 128 219q45 7 64 7q33 0 53 -12q12 -7 84 -256q73 -252 105 -278q6 -5 55 -16q40 -9 66 -49zM557 165l-127 335l-170 -303q103 -20 161 -26q19 -2 43 -1l45 2 q27 1 48 -7z" />
<glyph unicode="b" horiz-adv-x="900" d="M616 230q37 -14 65 -43q33 -33 33 -68q0 -7 -2 -16q-36 -172 -299 -172q-20 0 -59.5 1.5t-59.5 1.5q-47 0 -78 -6q-83 -16 -87 -16q-27 0 -53 28q-12 13 -36 51q2 20 16 33t34 12l70 334q55 265 85 298q18 21 56 22q5 0 59 1q27 0 87 4q56 4 87 4q359 0 419 -122 q21 -43 21 -75q0 -24 -11 -46q-44 -88 -151 -147q-59 -33 -196 -79zM281 272q23 0 81 8q65 9 73 16q53 2 78 4q43 5 77 15q137 42 199 104q28 28 28 71q0 60 -55 87q-29 14 -109 25q-70 10 -133 10q-108 0 -148.5 -33.5t-62.5 -140.5q-8 -56 -28 -166zM258 161q-1 -6 -9 -33 q-15 -54 -15 -77q0 -17 5 -29q16 0 78 -6q42 -4 78 -4q6 0 17 5t16 5q39 3 81 25q50 26 53 60q2 25 -44 47q-39 18 -68 18q-129 0 -192 -11z" />
<glyph unicode="c" horiz-adv-x="810" d="M838 341q-22 -20 -53 -20q-19 0 -69 15q-2 8 -2 21q0 12 1 22q3 29 2 39q21 42 21 79q0 57 -51 88q-42 26 -103 26q-119 0 -220 -84q-155 -128 -171 -376q-5 -73 61 -110q53 -30 132 -30t140 27q14 6 63 42q35 25 64 25q44 0 49 -30q-38 -85 -145 -131q-90 -39 -196 -39 q-85 0 -154 26q-88 32 -115 97q-21 51 -16 107q3 31 11 111q2 22 6 41q12 55 40 117q31 68 65 104l4 16q71 86 191 137q114 49 231 49q109 0 175 -47q75 -53 75 -158q0 -73 -36 -164z" />
<glyph unicode="d" horiz-adv-x="813" d="M329 -52l-7 3q-142 -40 -200 -40q-50 0 -69 21q-1 2 -1 6q0 36 50 273q39 186 48 199q-1 20 11 105q8 58 -5 102q13 9 41 38q24 25 45 35q26 -2 61 -3q14 1 124 10q74 6 124 6q101 0 175 -25q134 -45 134 -172q0 -51 -23 -116q-65 -184 -377 -376q-44 -22 -131 -66z M315 583l-103 -426q-23 -95 -17 -115q17 -4 36 -4q120 0 276 126q146 118 199 235q1 4 9 15q7 8 6 16q12 30 12 55q0 73 -102 106q-70 23 -161 23q-127 0 -155 -31z" />
<glyph unicode="e" horiz-adv-x="891" d="M859 488q-5 9 -39 64q-37 60 -107 60q-125 0 -284.5 -128.5t-193.5 -251.5l7 -7q4 1 163 13q141 11 210 11q100 0 124 -17l-27 -39q-48 -14 -244 -46q-167 -27 -220 -56q-9 -75 164 -75q94 0 153 15q23 6 82 43q51 32 74 32q26 0 44 -18q6 -75 -143 -137 q-113 -47 -213 -47q-43 0 -62 12q-14 -3 -29 -3q-66 0 -136.5 48t-91.5 110q-5 15 -1 71q4 53 -3 63q15 23 21 43q39 126 191 262q148 133 279 166q88 22 168 22q121 0 191 -50q53 -38 53 -82q0 -45 -45 -65q-36 -16 -85 -13z" />
<glyph unicode="f" horiz-adv-x="756" d="M354 573q-24 -29 -49 -149q-10 -49 -10 -73q0 -12 2 -17q-2 -6 -14 -80l10 -13q24 -2 60 -2h96q166 0 225 -47q-42 -61 -121 -68q-25 -2 -146 11q-28 3 -50 3q-53 0 -84 -16q-17 -9 -17 -36q0 -16 4 -47.5t4 -47.5q0 -48 -30 -73q-12 -10 -32 -10q-24 0 -51 15t-31 37 q-4 27 19 239q22 202 32 247q6 25 21 91q5 24 5 44l-22 15.5t-19 26.5q1 5 4 10t19.5 19.5t20.5 16.5q41 22 132 22q40 0 75 -4q18 -2 52 -2q62 0 185 8t185 8q20 0 26 -2q26 -9 26 -51q0 -64 -84 -64q-19 0 -58 5.5t-58 5.5q-27 0 -77 -5q-53 -5 -78 -5l-86 -1 q-38 0 -86 -11z" />
<glyph unicode="g" horiz-adv-x="880" d="M492 580l-12 -10q-37 -6 -96 -52.5t-79 -81.5q-24 -16 -52 -72t-29 -57q0 -17 -6 -51t-6 -51q0 -75 61 -133q72 -69 176 -69q33 0 60 7q51 13 115 68q68 58 80 105q-28 29 -76 29q-35 0 -114 -22q-75 -20 -115 -17q-10 13 -8 24q3 12 22 26q24 17 26 20q122 67 229 67 q30 0 51 -7q5 -1 81 -14q93 -16 83 -63q-4 -18 -47 -63q-25 -39 -49 -74q-57 -81 -166 -132q-103 -49 -208 -50q-62 -1 -157 43q-103 46 -126 96q-39 84 -39 169q0 218 229 374q170 116 339 116q98 0 153 -45q60 -48 59 -144q7 -35 7 -105q-6 -31 -31.5 -48t-58.5 -17 q-44 0 -59 16t-8 59q13 77 13 89q1 53 -30 80q-14 12 -53 12q-46 0 -159 -22z" />
<glyph unicode="h" horiz-adv-x="805" d="M587 -68q15 78 17 139q-22 16 -101 16q-66 0 -175 -11q-64 -6 -140 -15q-5 -15 -7 -46q-2 -36 -5 -49q-13 -63 -56 -63q-13 0 -81 37q-3 10 -3 22q0 22 13 63q8 27 11 38q1 8 -6.5 30t-5.5 28q1 7 6 11l33 29q13 31 13 49q14 22 28 85q11 50 24 148.5t23 145.5 q9 43 20 64q55 40 94 40q17 0 37 -5l17 -35q-68 -245 -125 -477q37 -12 98 -12q55 0 160.5 13.5t156.5 14.5q30 52 55 293q15 149 20 170q3 15 7 19q27 28 89 28q28 0 37 -10q15 -17 12 -53q-1 -13 -12 -59q-7 -30 -44 -219l-63 -315q-28 -133 -34 -139q-14 -14 -36 -14 q-20 0 -43.5 11.5t-33.5 27.5z" />
<glyph unicode="i" horiz-adv-x="260" d="M235 281l-65 -306q-6 -30 -31.5 -47.5t-57.5 -17.5q-68 0 -62 59q2 16 9 54q9 47 39.5 137.5t40.5 137.5q9 44 14 204q4 104 14 149q9 41 94 56q17 3 28 3q53 0 53 -60q0 -25 -9 -62l-16 -60q-4 -18 -5 -27q-5 -51 -19 -110z" />
<glyph unicode="j" horiz-adv-x="815" d="M78 231q16 28 51 49t67 21q25 0 42 -15q11 -10 22 -120q5 -56 74 -105q66 -47 124 -47q80 0 146 137q41 85 60 177q16 77 16 134q0 92 -43 127q-38 -4 -115 -8l-12 -7q-29 5 -86 11l1 6l-17 29q18 32 41 51q10 0 25 6l24 10q40 -3 98 -5q149 14 171 14q49 0 103 -9 q24 -25 20 -43q-3 -16 -31 -31q-10 -5 -57 -24q15 -49 11 -116q-2 -32 -13 -121q-31 -244 -154 -361q-89 -84 -209 -84q-136 0 -240.5 94.5t-118.5 229.5z" />
<glyph unicode="k" horiz-adv-x="928" d="M1007 612q-25 -48 -124 -105q-12 -7 -189 -96q-109 -55 -139 -89q-9 -105 1 -156q16 -80 79 -118q106 57 123 138q3 16 3.5 48.5t3.5 48.5q10 49 108 49q16 0 36 -2q15 -33 15 -70q0 -24 -5 -48q-22 -103 -110 -184q-92 -84 -195 -84q-136 0 -205 166q-9 35 -33 107 q-96 -32 -114 -116q-3 -41 -15 -122q-6 -26 -17 -48l-36 -22q-76 7 -114 43l65 354q32 174 33 350q80 50 124 50q50 0 56 -67q4 -50 -17 -150q-16 -60 -36 -180l314 181q210 121 308 149q11 3 18 3q29 0 62 -30z" />
<glyph unicode="l" horiz-adv-x="655" d="M662 119q-77 -88 -224 -151q-143 -60 -264 -60q-113 0 -166 57q42 118 69 245q12 58 40 225q23 139 45 224q5 21 46 35q35 12 61 12q61 0 56 -48q-1 -14 -6 -35q-18 -85 -68.5 -254.5t-69.5 -257.5q-10 -49 -8 -63q6 -38 76 -38q61 0 132 40q35 21 127 74q69 39 114 39 q24 0 43 -11z" />
<glyph unicode="m" horiz-adv-x="1080" d="M901 292h-6q-68 -101 -135 -193q-120 -166 -255 -166q-109 0 -151 136q-1 4 -63 229l-10 -5q-12 -80 -41 -239q-16 -74 -24 -93q-23 -53 -70 -53q-26 0 -54 13.5t-39 34.5q106 431 103 481q20 29 30 143q5 59 10 80q66 45 133 45q44 0 72 -24q3 -2 17 -149 q17 -181 38 -282q34 -161 83 -200q55 13 155 172q61 97 163 293q83 160 91 166q29 22 74 22q82 0 123 -43q-15 -72 -54 -215t-54 -215q-9 -43 -15 -82q-5 -73 -15 -142q-5 -34 -19 -54t-51 -34q-33 -13 -62 -13q-38 0 -38 50q0 22 4 47q7 42 36 162q25 102 24 128z" />
<glyph unicode="n" horiz-adv-x="909" d="M247 236q-25 -37 -35 -83q-6 -27 -8 -92q-3 -61 -12 -94q-7 -28 -34.5 -43t-58.5 -15q-73 0 -69 58q1 17 8 50q8 41 68 265q47 178 62 259l-6 6l5 58l7 11q19 38 49 62q35 28 73 28q36 0 61 -34q3 -5 9 -177q16 -441 242 -467q11 -1 53 55q147 199 144 474q0 11 -8.5 38 t-8.5 40q1 51 76 51q46 0 74 -14q5 -50 5 -100q0 -114 -23 -224q-33 -156 -105 -272q-96 -155 -226 -155q-179 0 -342 315z" />
<glyph unicode="o" horiz-adv-x="873" d="M672 689q18 -31 16 -43q-2 -10 -13 -21q4 -8 52 -29q125 -55 144 -201q8 -64 -7 -137q-38 -183 -187 -298q-72 -56 -179 -56q-115 0 -233 61q-132 68 -167 166q-15 42 -15 92q0 36 7 69q34 160 176 285q147 128 307 128q52 0 99 -16zM510 603q-109 -36 -189 -139 q-73 -93 -103 -213l4 -6q-7 -14 -7 -34q0 -65 94 -135q103 -77 199 -77q39 0 64 18q54 39 98.5 110.5t58.5 138.5q15 70 0 130q-16 66 -61 97q-17 12 -65.5 24.5t-66.5 24.5q-29 20 -26 61z" />
<glyph unicode="p" horiz-adv-x="847" d="M216 94q-14 -71 -34 -152q-18 -34 -64 -34q-30 0 -52 16t-22 45q0 26 12 88q9 43 18 87q28 160 51 270q48 231 78 262q34 36 124 36q136 0 348 -71q101 -34 129 -49q66 -35 91 -95q12 -30 3 -75q-8 -39 -27 -70q-129 -213 -421 -239q-65 -5 -234 -19zM359 581 q-15 -9 -43 -29q-44 -134 -67 -241q-15 -71 -16 -113q157 11 197 11q74 0 175 65q127 82 127 167q0 66 -117 103q-52 16 -156 35q-16 3 -49.5 1t-50.5 1z" />
<glyph unicode="q" horiz-adv-x="866" d="M742 37q40 -71 35 -94q-2 -10 -9 -20q-29 -12 -50 -12q-39 0 -64 42q-79 -41 -174 -41q-171 0 -292 110q-102 92 -102 209q0 65 29 128q67 144 171 238q124 111 265 111q58 0 116 -19l18 -35l-14 -28q2 -6 50 -31q31 -16 63 -34q84 -64 84 -196q0 -41 -11 -92 q-30 -138 -115 -236zM667 132q67 95 67 204q0 99 -72 158q-18 15 -62 25q-47 10 -61 20q-28 19 -33 65q-108 -36 -188 -138q-73 -92 -103 -211q3 -11 2 -33q-2 -28 -1 -32q13 -70 113 -129q92 -54 168 -54q46 0 79 21q-84 56 -118 127l40 38q25 21 48 23q30 2 70.5 -26.5 t50.5 -57.5z" />
<glyph unicode="r" horiz-adv-x="843" d="M920 545q-59 -134 -188 -239q-142 -115 -270 -108q-29 -30 -29 -70q0 -38 31 -72q39 -43 88 -38q26 18 51 51q37 48 45 55q29 26 55 26q43 0 43 -54q0 -12 -2 -22q-17 -86 -135 -146q-35 -18 -78 -18q-106 0 -188 95q-59 68 -59 136q0 27 9 53q-13 3 -41 1q-27 -2 -41 -2 q-13 -30 -22 -101q-5 -42 -9 -60q-10 -47 -32 -69q-19 -2 -34 -2q-56 0 -66 33q-8 26 8 95q15 65 36 182q22 129 34 183q25 114 49 185q12 34 44.5 52t68.5 14q8 -1 20 -8.5t17 -8.5q25 -10 178 -13q169 -4 254 -23q135 -31 163 -107zM238 307q22 0 63 -18.5t63 -18.5 q45 0 117 37q244 125 263 217q3 13 -5 16q-42 17 -125 34q-95 19 -175 19q-99 0 -132 -34q-11 -11 -38 -119q-18 -72 -31 -133z" />
<glyph unicode="s" horiz-adv-x="743" d="M219 328q26 -60 164 -73l228 -22q91 -22 91 -88q0 -77 -84 -151q-64 -57 -135 -68q-107 -17 -171 -17q-73 0 -125 17q-27 9 -44.5 39t-17.5 61q0 66 64 88q17 6 28 6q14 0 21 -13q9 -17 18 -22q-9 -22 -9 -40q0 -11 3 -21q35 -23 99 -23q73 0 132 29q73 36 79 101 q-8 11 -154 28l-179 21q-135 33 -135 128q0 124 177 256q155 116 325 138l9 -5q14 1 28 1q96 0 145 -58q36 -43 36 -99q0 -22 -4 -41q-17 -81 -84 -116q-33 -17 -50 -17q-26 0 -26 37q0 13 26 131q5 23 2 34q-12 42 -109 42q-19 0 -30 -2q-92 -17 -188 -106 q-91 -83 -130 -175z" />
<glyph unicode="t" horiz-adv-x="882" d="M935 557q-12 2 -148 4q-96 2 -140 15q-54 -57 -125 -502l-21 -131q-14 -11 -40 -32q-49 2 -68 8q-35 11 -36 47q0 25 49 290q41 221 61 318l-7 5q-103 -11 -139 -11q-144 0 -146 86l23 28q14 1 40 11t39 12q39 5 95 5q76 0 205 -9l187 -13q22 -2 60 2q43 4 59 4 q102 0 102 -48q0 -22 -21 -55q-16 -25 -29 -34z" />
<glyph unicode="u" horiz-adv-x="759" d="M320 690q7 -9 7 -28q0 -42 -45 -178q-32 -94 -42 -143q-12 -59 -12 -107q0 -130 86 -190q27 -19 59 -19q11 0 19 3q92 36 169 161q66 108 93 235q11 52 11 92q0 13 -1 25q1 2 -10 53q-7 35 -3 57q11 55 85 55q44 0 53 -16q17 -29 17 -84q0 -140 -83 -361 q-42 -111 -78 -169q-16 -26 -81 -76q-60 -47 -95 -65q-46 -24 -97 -24q-36 0 -79 13q-108 32 -163 144q-39 79 -39 167q0 36 4 61l33 206q14 87 52 151q24 40 92 40q16 0 48 -3z" />
<glyph unicode="v" horiz-adv-x="751" d="M156 641q33 45 95 45q30 0 47 -13q12 -9 25 -238q13 -246 33 -289q161 179 315 501q14 29 47 46q30 15 65 15q54 0 54 -40q0 -17 -8 -37q-33 -83 -203 -347q-157 -243 -235 -344q-23 -30 -71 -30q-34 0 -58 14q-30 17 -30 49q0 22 1 63l-52 280q-28 170 -28 282 q0 27 3 43z" />
<glyph unicode="w" horiz-adv-x="1007" d="M787 -69q-89 -4 -110 12q-53 39 -91 171l-58 200l-13 -14q-10 -51 -88 -165l-84 -123q-60 -88 -96 -104q-18 -8 -31 -8q-77 0 -97 186q-6 57 -6 114q0 93 18 178q10 48 22 59q-1 13 -1 26q0 40 10 88q7 34 36 128q34 27 75 27q32 0 68 -17l12 -46l-48 -144 q-65 -198 -65 -302q0 -52 17 -80q78 86 143 219q28 58 99 237q1 1 12 58q14 68 89 68q31 0 56 -10q34 -14 28 -41q-29 -136 -29 -247q0 -193 87 -319q57 28 108 155q30 74 51 163q25 100 25 168q0 31 -7 50q27 57 82 57q49 0 64 -47q4 -6 -9 -76q-7 -39 -26 -141 q-55 -266 -243 -480z" />
<glyph unicode="x" horiz-adv-x="718" d="M608 -92q-26 3 -75 15q-7 3 -70 133l-75 155q-46 -37 -120 -126q-81 -98 -119 -131l-7 -21q-31 -28 -63 -28q-46 0 -83 54l4 18q53 44 165 157q121 122 149 163q2 2 2 6q0 23 -48 119q-54 107 -73 125q4 12 4 21q0 17 -11 39q-14 28 -11 43q4 20 29 43q22 5 41 5 q58 0 92 -51q21 -32 42 -112q22 -84 36 -113q20 17 80 96q74 98 107 131q64 65 110 65q36 0 61 -40l-7 -33q-32 -23 -143 -152q-104 -120 -139 -169q-1 -4 -2 -7q-4 -19 34 -69q9 -11 68 -119q49 -90 73 -97q21 -28 16 -50q-4 -18 -67 -70z" />
<glyph unicode="y" horiz-adv-x="831" d="M884 613q2 -81 -15 -161q-30 -142 -105 -231q-84 -101 -217 -125q-6 -33 -21 -80q-22 -69 -25 -80q-41 -39 -72 -39q-45 0 -62 77q-14 65 0 117q-93 41 -103 46q-68 35 -94 83q-22 40 -31 123q-11 100 8 188q29 133 107 165q7 3 22 3q25 0 55 -12q35 -14 40 -34 q2 -13 -34 -86q-31 -64 -35 -75q-9 -29 -15.5 -85.5t-4.5 -85.5q5 -57 65 -97q54 -37 114 -37q14 0 33 4q114 24 176 129q42 71 70 205q1 5 1 11q0 25 -14 64q-19 51 -16 64q8 40 94 40q59 0 65 -48q4 -33 14 -43z" />
<glyph unicode="z" horiz-adv-x="846" d="M810 23q3 -8 3 -17q0 -41 -32 -77q-22 -25 -50 -21q-33 11 -70 18q-20 4 -72 4q-65 0 -194 -7t-194 -7q-75 0 -96 4q-59 11 -59 58q0 53 41 73q116 55 299 228q139 131 268 282q-4 9 -119 9q-61 0 -179 -3l-118 -3q-8 3 -43 19q-24 11 -31 35l20 38q32 22 126 22 q36 0 116 -5q59 -4 96 -2q116 5 246 16q7 1 47 12q36 10 42 8q14 -5 37.5 -18t23.5 -54q0 -14 -6 -22q-13 -17 -54 -42q-53 -33 -62 -40q-45 -37 -113 -108q-81 -84 -110 -111q-136 -125 -305 -279l-4 -13q29 -2 92 16t93 15q183 -19 198 -16l30 9q23 -8 66 -12q48 -4 67 -9 z" />
<glyph unicode="{" horiz-adv-x="289" d="M94 195l-39 37q-23 26 -23 47q0 28 46 53q22 12 28 20q12 16 14 48q2 38 -11 107q-14 74 -14 107q0 110 119 159q27 11 42 11q23 0 40 -26v-23q-41 -51 -50 -63q-28 -38 -41 -68q-3 -10 -3 -23q0 -30 15 -90.5t15 -91.5q0 -68 -45 -108q12 -20 19 -60t15 -56 q-34 -56 -34 -107q0 -47 28 -89q5 -8 55 -60q40 -42 40 -58q0 -20 -18.5 -29t-38.5 -5q-43 8 -97.5 66.5t-63.5 102.5q-11 53 -11 94t13 105z" />
<glyph unicode="|" horiz-adv-x="158" d="M100 -91q-20 3 -41 6q-31 6 -32 15q-4 20 -4 47q0 31 6.5 93t6.5 93q0 309 -12 399q-5 37 -5 54q0 48 22 73q13 14 44 14q14 0 20 -4q28 -20 34 -248q1 -38 1 -279q0 -250 -12 -256z" />
<glyph unicode="}" horiz-adv-x="301" d="M247 195q62 57 62 84q0 29 -45 53q-24 13 -30 20q-12 15 -14 48q-2 38 11 107q14 74 14 107q0 110 -119 159q-27 11 -41 11q-23 0 -40 -26l-1 -23l50 -62q26 -32 41 -69q4 -10 4 -23q0 -29 -15.5 -90t-15.5 -92q0 -68 45 -108q-12 -19 -19.5 -62t-14.5 -54 q35 -56 35 -107q0 -45 -29 -89q-5 -7 -54 -60q-40 -43 -40 -58q0 -19 19 -28.5t38 -5.5q43 8 97.5 66t62.5 103q11 58 11 94q0 41 -12 105z" />
<glyph unicode="~" horiz-adv-x="683" d="M683 378q0 -43 -41.5 -93t-83.5 -64q-33 -11 -57 -11q-41 0 -77 27q-14 11 -57 58q-35 38 -62 53q-28 -3 -90.5 -56t-87.5 -50q-25 28 -25 58q0 55 76 107q58 40 127 58q15 4 27 4q39 0 73 -35q17 -17 51 -66q27 -38 44 -43q9 -2 56.5 40t71.5 42q27 0 55 -29z" />
<glyph unicode="&#xa0;" />
<glyph unicode="&#xa8;" horiz-adv-x="626" d="M608 554q-8 -36 -8 -62q0 -10 1 -18q-20 -10 -57 -32q-46 8 -84 38q-44 34 -44 77q0 15 5 30q21 9 64 19q21 -4 64 -5q20 -15 59 -47zM309 522q0 -21 -30 -47q-26 -23 -49 -29q-28 -7 -78 32t-50 69q0 21 42 46q37 22 54 22q34 0 73 -30t38 -63z" />
<glyph unicode="&#xa9;" horiz-adv-x="873" d="M874 257q0 -185 -124 -297q-62 -56 -170 -56q-120 0 -250 63q-139 67 -195 164q-44 77 -44 164q0 159 120.5 284.5t279.5 125.5q86 0 164 -45q22 -13 43 -47q24 -39 38 -53q48 -46 69 -74q69 -90 69 -229zM447 603q-103 -36 -161 -141q-52 -93 -57 -211l6 -6 q-2 -6 -2 -13q0 -83 130 -161q118 -71 207 -71q40 0 63 17q127 94 127 236q0 140 -115 262q-41 43 -91 61q-54 13 -107 27zM586 290l-12 46q3 10 3 19q0 43 -51 43q-49 0 -82 -36t-33 -85q0 -25 6 -46q2 -6 8 -16q19 -29 51 -29q20 0 64 19t59 19q21 0 29 -24 q-10 -42 -55 -65q-38 -20 -86 -20q-68 0 -110 40.5t-42 108.5q0 54 25 120q13 35 65 58q40 18 88 24q8 1 22 1q56 0 92.5 -35t36.5 -91q0 -59 -37 -59q-14 0 -41 8z" />
<glyph unicode="&#xaa;" />
<glyph unicode="&#xab;" />
<glyph unicode="&#xac;" />
<glyph unicode="&#xad;" horiz-adv-x="645" d="M637 343q-34 -34 -51 -34q-44 0 -130.5 -3.5t-130.5 -3.5q-130 0 -156 14q-19 10 -34 54q20 16 41 33q17 11 57 11q80 0 182 -18q110 -8 120 -10q82 -12 102 -43z" />
<glyph unicode="&#xae;" horiz-adv-x="873" d="M874 257q0 -185 -124 -297q-62 -56 -170 -56q-120 0 -250 63q-139 67 -195 164q-44 77 -44 164q0 159 120.5 284.5t279.5 125.5q86 0 164 -45q22 -13 43 -47q24 -39 38 -53q48 -46 69 -74q69 -90 69 -229zM447 603q-103 -36 -161 -141q-52 -93 -57 -211l6 -6 q-2 -6 -2 -13q0 -83 130 -161q118 -71 207 -71q40 0 63 17q127 94 127 236q0 140 -115 262q-41 43 -91 61q-54 13 -107 27zM418 137q-11 -1 -19 -1q-52 0 -52 67l-3 110q-2 72 0 87q8 60 45 60q11 0 34 -4h28q130 0 220 -45q1 -4 14 -25q-13 -60 -56 -105q-46 -49 -105 -51 q-1 -3 -1 -7q0 -16 35 -36h2q8 13 25 38q10 12 31 12q40 0 40 -31q0 -40 -26.5 -63t-67.5 -23q-40 0 -73 22t-46 59q-9 26 -11 27q0 -74 -14 -91zM436 380q-2 -6 -4 -80q26 -10 39 -10q14 0 35 12q41 23 78 64q3 3 6 2q-50 20 -115 20q-29 0 -39 -8z" />
<glyph unicode="&#xaf;" />
<glyph unicode="&#xb0;" />
<glyph unicode="&#xb1;" />
<glyph unicode="&#xb2;" />
<glyph unicode="&#xb3;" />
<glyph unicode="&#xb4;" horiz-adv-x="522" d="M262 355l11 -9q15 4 120 89q100 81 122 105q-7 53 -53 66q-42 12 -70 -3q-42 -22 -105 -86q-74 -75 -74 -117q0 -16 12.5 -31t28.5 -15q4 0 8 1z" />
<glyph unicode="&#xb5;" />
<glyph unicode="&#xb6;" />
<glyph unicode="&#xb7;" />
<glyph unicode="&#xb8;" />
<glyph unicode="&#xb9;" />
<glyph unicode="&#xba;" horiz-adv-x="489" d="M128 662l36 62q26 35 57 40q1 0 85 12q64 -24 69 -27q43 -17 61 -38q39 -45 39 -91q0 -60 -62 -96q-52 -31 -116 -31q-55 0 -101 23q-58 29 -68 146zM279 703q-29 -14 -29 -73q0 -26 22 -35q15 -8 28 -7q38 2 38 38q0 25 -17.5 47t-41.5 30z" />
<glyph unicode="&#xc0;" horiz-adv-x="807" d="M97 0zM865 95q-5 -32 -68 -33q-2 -6 -2 -13q0 -15 13.5 -47.5t13.5 -48.5q0 -27 -30 -45q-17 -10 -31 -10q-28 0 -51 39q-7 11 -35 77q-19 43 -35 50q-39 16 -224 14l-96 -1q-14 13 -31 13q-7 0 -20 -2l-19 -3q-13 -22 -26.5 -72.5t-27.5 -72.5q-22 -34 -59 -34 q-9 0 -19 2q-21 25 -21 63q0 24 12.5 71t12.5 71q0 19 -15 41q-10 15 -10 26t36 26q23 10 29 24q19 44 67 250q40 173 81 219q44 7 63 7q64 0 122 -107q37 -80 73 -161q122 -249 162 -278q7 -5 58 -16q42 -9 77 -49zM586 165l-198 335l-106 -303q106 -19 167 -26 q19 -2 43 -1l44 2q27 1 50 -7zM467 755l-11 -9q-16 4 -120 89q-99 81 -122 105q7 53 53 66q42 12 70 -3q42 -22 105 -86q73 -74 73 -117q0 -16 -12.5 -31t-28.5 -15q-4 0 -7 1z" />
<glyph unicode="&#xc1;" horiz-adv-x="807" d="M97 0zM865 95q-5 -32 -68 -33q-2 -6 -2 -13q0 -15 13.5 -47.5t13.5 -48.5q0 -27 -30 -45q-17 -10 -31 -10q-28 0 -51 39q-7 11 -35 77q-19 43 -35 50q-39 16 -224 14l-96 -1q-14 13 -31 13q-7 0 -20 -2l-19 -3q-13 -22 -26.5 -72.5t-27.5 -72.5q-22 -34 -59 -34 q-9 0 -19 2q-21 25 -21 63q0 24 12.5 71t12.5 71q0 19 -15 41q-10 15 -10 26t36 26q23 10 29 24q19 44 67 250q40 173 81 219q44 7 63 7q64 0 122 -107q37 -80 73 -161q122 -249 162 -278q7 -5 58 -16q42 -9 77 -49zM586 165l-198 335l-106 -303q106 -19 167 -26 q19 -2 43 -1l44 2q27 1 50 -7zM302 755l11 -9q15 4 120 89q100 81 122 105q-7 53 -53 66q-42 12 -70 -3q-42 -22 -105 -86q-74 -75 -74 -117q0 -16 12.5 -31t28.5 -15q4 0 8 1z" />
<glyph unicode="&#xc2;" horiz-adv-x="807" d="M97 0zM865 95q-5 -32 -68 -33q-2 -6 -2 -13q0 -15 13.5 -47.5t13.5 -48.5q0 -27 -30 -45q-17 -10 -31 -10q-28 0 -51 39q-7 11 -35 77q-19 43 -35 50q-39 16 -224 14l-96 -1q-14 13 -31 13q-7 0 -20 -2l-19 -3q-13 -22 -26.5 -72.5t-27.5 -72.5q-22 -34 -59 -34 q-9 0 -19 2q-21 25 -21 63q0 24 12.5 71t12.5 71q0 19 -15 41q-10 15 -10 26t36 26q23 10 29 24q19 44 67 250q40 173 81 219q44 7 63 7q64 0 122 -107q37 -80 73 -161q122 -249 162 -278q7 -5 58 -16q42 -9 77 -49zM586 165l-198 335l-106 -303q106 -19 167 -26 q19 -2 43 -1l44 2q27 1 50 -7zM546 748q-25 17 -90 76q-52 47 -98 75q-10 -9 -20 -27q-12 -22 -17 -29q-49 -61 -64 -75q-28 -26 -69 -26q-23 0 -56 7q-8 12 -8 28q0 26 22 60q10 15 35 55q16 32 53 100q38 56 87 63q39 6 98 -42q16 -16 82 -77q60 -46 77 -63q48 -46 48 -80 q0 -26 -35 -35q-5 -1 -45 -10z" />
<glyph unicode="&#xc3;" horiz-adv-x="807" d="M97 0zM865 95q-5 -32 -68 -33q-2 -6 -2 -13q0 -15 13.5 -47.5t13.5 -48.5q0 -27 -30 -45q-17 -10 -31 -10q-28 0 -51 39q-7 11 -35 77q-19 43 -35 50q-39 16 -224 14l-96 -1q-14 13 -31 13q-7 0 -20 -2l-19 -3q-13 -22 -26.5 -72.5t-27.5 -72.5q-22 -34 -59 -34 q-9 0 -19 2q-21 25 -21 63q0 24 12.5 71t12.5 71q0 19 -15 41q-10 15 -10 26t36 26q23 10 29 24q19 44 67 250q40 173 81 219q44 7 63 7q64 0 122 -107q37 -80 73 -161q122 -249 162 -278q7 -5 58 -16q42 -9 77 -49zM586 165l-198 335l-106 -303q106 -19 167 -26 q19 -2 43 -1l44 2q27 1 50 -7zM693 918q0 -43 -41.5 -93t-83.5 -64q-33 -11 -57 -11q-41 0 -77 27q-14 11 -57 58q-35 38 -62 53q-28 -3 -90.5 -56t-87.5 -50q-25 28 -25 58q0 55 76 107q58 40 127 58q15 4 27 4q39 0 73 -35q17 -17 51 -66q27 -38 44 -43q9 -2 56.5 40 t71.5 42q27 0 55 -29z" />
<glyph unicode="&#xc4;" horiz-adv-x="807" d="M97 0zM865 95q-5 -32 -68 -33q-2 -6 -2 -13q0 -15 13.5 -47.5t13.5 -48.5q0 -27 -30 -45q-17 -10 -31 -10q-28 0 -51 39q-7 11 -35 77q-19 43 -35 50q-39 16 -224 14l-96 -1q-14 13 -31 13q-7 0 -20 -2l-19 -3q-13 -22 -26.5 -72.5t-27.5 -72.5q-22 -34 -59 -34 q-9 0 -19 2q-21 25 -21 63q0 24 12.5 71t12.5 71q0 19 -15 41q-10 15 -10 26t36 26q23 10 29 24q19 44 67 250q40 173 81 219q44 7 63 7q64 0 122 -107q37 -80 73 -161q122 -249 162 -278q7 -5 58 -16q42 -9 77 -49zM586 165l-198 335l-106 -303q106 -19 167 -26 q19 -2 43 -1l44 2q27 1 50 -7zM628 854q-8 -36 -8 -62q0 -10 1 -18q-20 -10 -57 -32q-46 8 -84 38q-44 34 -44 77q0 15 5 30q21 9 64 19q21 -4 64 -5q20 -15 59 -47zM329 822q0 -21 -30 -47q-26 -23 -49 -29q-28 -7 -78 32t-50 69q0 21 42 46q37 22 54 22q34 0 73 -30 t38 -63z" />
<glyph unicode="&#xc5;" horiz-adv-x="807" d="M97 0zM865 95q-5 -32 -68 -33q-2 -6 -2 -13q0 -15 13.5 -47.5t13.5 -48.5q0 -27 -30 -45q-17 -10 -31 -10q-28 0 -51 39q-7 11 -35 77q-19 43 -35 50q-39 16 -224 14l-96 -1q-14 13 -31 13q-7 0 -20 -2l-19 -3q-13 -22 -26.5 -72.5t-27.5 -72.5q-22 -34 -59 -34 q-9 0 -19 2q-21 25 -21 63q0 24 12.5 71t12.5 71q0 19 -15 41q-10 15 -10 26t36 26q23 10 29 24q19 44 67 250q40 173 81 219q44 7 63 7q64 0 122 -107q37 -80 73 -161q122 -249 162 -278q7 -5 58 -16q42 -9 77 -49zM586 165l-198 335l-106 -303q106 -19 167 -26 q19 -2 43 -1l44 2q27 1 50 -7zM188 922l36 62q26 35 57 40q1 0 85 12q64 -24 69 -27q43 -17 61 -38q39 -45 39 -91q0 -60 -62 -96q-52 -31 -116 -31q-55 0 -101 23q-58 29 -68 146zM339 963q-29 -14 -29 -73q0 -26 22 -35q15 -8 28 -7q38 2 38 38q0 25 -17.5 47t-41.5 30z " />
<glyph unicode="&#xc6;" horiz-adv-x="1324" d="M975 222l-3 -12q37 -81 94 -120q36 -24 115 -48q83 -25 116 -45l-2 -23q-31 -34 -86 -34q-65 0 -150 44q-72 37 -116 80l-37 -39q-110 -116 -266 -116q-110 0 -203 57q-108 66 -108 170t117 156q65 29 110 25q164 -14 218 -14l2 33q-45 81 -118 147q-88 80 -164 80 q-50 0 -108 -52q-26 -23 -86 -95q-44 -52 -65 -52q-9 0 -16 9l-41 -3q-17 18 -17 46q0 76 101 157q110 88 241 88q146 0 268 -117l13 -1l12 24q70 139 233 139q110 0 214 -64q119 -73 119 -176q0 -173 -387 -244zM1117 600l-6 7q-14 1 -48 8q-30 6 -48 6q-9 0 -16 -1 q-97 -25 -97 -152q0 -75 30 -152q10 -5 26 -5q64 0 154 53q100 59 100 116q0 39 -29 78.5t-66 41.5zM815 205q-113 16 -175 16q-20 0 -27 -3l-15 9q-32 -3 -94 -14q-39 -45 -39 -88q0 -61 68 -99q58 -32 123 -32q84 0 136 72q39 54 39 100q0 14 -4 24q-2 3 -12 15z" />
<glyph unicode="&#xc7;" horiz-adv-x="810" d="M325 -240q-17 11 -31 35t-14 44q0 33 27 33q10 0 31.5 -10t30.5 -10q6 0 11 3q8 26 8 51q-144 15 -225 122q-76 99 -76 248q0 139 69 232v16q55 88 168 139q104 47 216 47q136 0 216 -70q84 -74 84 -208q0 -43 -9 -91q-18 -20 -49 -20q-18 0 -72 15q-7 14 -10 40 q-4 32 -6 42q7 25 7 48q0 70 -58 110q-51 35 -124 35q-117 0 -201 -85q-99 -101 -99 -278q0 -47 7 -97q10 -73 82 -109q59 -30 140 -30q79 0 135 26q14 6 54 41q30 26 59 26q44 0 55 -30q-17 -73 -98 -119q-63 -35 -153 -48q-4 -64 -10 -90q-14 -61 -52 -61q-12 0 -36.5 5.5 t-37.5 5.5q-21 0 -39 -8z" />
<glyph unicode="&#xc8;" horiz-adv-x="885" d="M106 0zM820 488q-14 17 -53 64q-50 60 -119 60q-124 0 -257 -128t-141 -252l8 -7q4 1 160 13q138 11 208 11q100 0 128 -17l-19 -39q-44 -14 -235 -46q-161 -27 -208 -56q7 -75 180 -75q94 0 150 15q22 6 73 43q44 32 67 32q26 0 48 -18q2 -7 2 -14q0 -70 -116 -123 q-103 -47 -203 -47q-43 0 -65 12q-13 -3 -28 -3q-67 0 -148.5 49t-113.5 109q-10 19 -16 72q-5 49 -16 62q10 22 12 43q12 125 135 262q121 134 245 166q84 22 163 22q84 0 167 -33q107 -42 107 -115q0 -67 -115 -62zM667 755l-11 -9q-16 4 -120 89q-99 81 -122 105 q7 53 53 66q42 12 70 -3q42 -22 105 -86q73 -74 73 -117q0 -16 -12.5 -31t-28.5 -15q-4 0 -7 1z" />
<glyph unicode="&#xc9;" horiz-adv-x="885" d="M106 0zM820 488q-14 17 -53 64q-50 60 -119 60q-124 0 -257 -128t-141 -252l8 -7q4 1 160 13q138 11 208 11q100 0 128 -17l-19 -39q-44 -14 -235 -46q-161 -27 -208 -56q7 -75 180 -75q94 0 150 15q22 6 73 43q44 32 67 32q26 0 48 -18q2 -7 2 -14q0 -70 -116 -123 q-103 -47 -203 -47q-43 0 -65 12q-13 -3 -28 -3q-67 0 -148.5 49t-113.5 109q-10 19 -16 72q-5 49 -16 62q10 22 12 43q12 125 135 262q121 134 245 166q84 22 163 22q84 0 167 -33q107 -42 107 -115q0 -67 -115 -62zM522 755l11 -9q15 4 120 89q100 81 122 105 q-7 53 -53 66q-42 12 -70 -3q-42 -22 -105 -86q-74 -75 -74 -117q0 -16 12.5 -31t28.5 -15q4 0 8 1z" />
<glyph unicode="&#xca;" horiz-adv-x="885" d="M106 0zM820 488q-14 17 -53 64q-50 60 -119 60q-124 0 -257 -128t-141 -252l8 -7q4 1 160 13q138 11 208 11q100 0 128 -17l-19 -39q-44 -14 -235 -46q-161 -27 -208 -56q7 -75 180 -75q94 0 150 15q22 6 73 43q44 32 67 32q26 0 48 -18q2 -7 2 -14q0 -70 -116 -123 q-103 -47 -203 -47q-43 0 -65 12q-13 -3 -28 -3q-67 0 -148.5 49t-113.5 109q-10 19 -16 72q-5 49 -16 62q10 22 12 43q12 125 135 262q121 134 245 166q84 22 163 22q84 0 167 -33q107 -42 107 -115q0 -67 -115 -62zM756 748q-25 17 -90 76q-52 47 -98 75q-10 -9 -20 -27 q-12 -22 -17 -29q-49 -61 -64 -75q-28 -26 -69 -26q-23 0 -56 7q-8 12 -8 28q0 26 22 60q10 15 35 55q16 32 53 100q38 56 87 63q39 6 98 -42q16 -16 82 -77q60 -46 77 -63q48 -46 48 -80q0 -26 -35 -35q-5 -1 -45 -10z" />
<glyph unicode="&#xcb;" horiz-adv-x="885" d="M106 0zM820 488q-14 17 -53 64q-50 60 -119 60q-124 0 -257 -128t-141 -252l8 -7q4 1 160 13q138 11 208 11q100 0 128 -17l-19 -39q-44 -14 -235 -46q-161 -27 -208 -56q7 -75 180 -75q94 0 150 15q22 6 73 43q44 32 67 32q26 0 48 -18q2 -7 2 -14q0 -70 -116 -123 q-103 -47 -203 -47q-43 0 -65 12q-13 -3 -28 -3q-67 0 -148.5 49t-113.5 109q-10 19 -16 72q-5 49 -16 62q10 22 12 43q12 125 135 262q121 134 245 166q84 22 163 22q84 0 167 -33q107 -42 107 -115q0 -67 -115 -62zM838 854q-8 -36 -8 -62q0 -10 1 -18q-20 -10 -57 -32 q-46 8 -84 38q-44 34 -44 77q0 15 5 30q21 9 64 19q21 -4 64 -5q20 -15 59 -47zM539 822q0 -21 -30 -47q-26 -23 -49 -29q-28 -7 -78 32t-50 69q0 21 42 46q37 22 54 22q34 0 73 -30t38 -63z" />
<glyph unicode="&#xcc;" horiz-adv-x="260" d="M0 0zM241 281v-306q0 -31 -22 -48t-54 -17q-67 0 -74 59q-3 25 -3 54q0 46 11 137.5t11 137.5q0 47 -28 204q-19 105 -18 149q0 21 31 38q23 13 51 18q16 3 28 3q69 0 69 -101q0 -14 -1.5 -40.5t-1.5 -40.5q0 -19 1 -27q6 -50 4 -110zM207 755l-11 -9q-16 4 -120 89 q-99 81 -122 105q7 53 53 66q42 12 70 -3q42 -22 105 -86q73 -74 73 -117q0 -16 -12.5 -31t-28.5 -15q-4 0 -7 1z" />
<glyph unicode="&#xcd;" horiz-adv-x="260" d="M0 0zM241 281v-306q0 -31 -22 -48t-54 -17q-67 0 -74 59q-3 25 -3 54q0 46 11 137.5t11 137.5q0 47 -28 204q-19 105 -18 149q0 21 31 38q23 13 51 18q16 3 28 3q69 0 69 -101q0 -14 -1.5 -40.5t-1.5 -40.5q0 -19 1 -27q6 -50 4 -110zM2 755l11 -9q15 4 120 89 q100 81 122 105q-7 53 -53 66q-42 12 -70 -3q-42 -22 -105 -86q-74 -75 -74 -117q0 -16 12.5 -31t28.5 -15q4 0 8 1z" />
<glyph unicode="&#xce;" horiz-adv-x="351" d="M0 0zM241 281v-306q0 -31 -22 -48t-54 -17q-67 0 -74 59q-3 25 -3 54q0 46 11 137.5t11 137.5q0 47 -28 204q-19 105 -18 149q0 21 31 38q23 13 51 18q16 3 28 3q69 0 69 -101q0 -14 -1.5 -40.5t-1.5 -40.5q0 -19 1 -27q6 -50 4 -110zM296 748q-25 17 -90 76 q-52 47 -98 75q-10 -9 -20 -27q-12 -22 -17 -29q-49 -61 -64 -75q-28 -26 -69 -26q-23 0 -56 7q-8 12 -8 28q0 26 22 60q10 15 35 55q16 32 53 100q38 56 87 63q39 6 98 -42q16 -16 82 -77q60 -46 77 -63q48 -46 48 -80q0 -26 -35 -35q-5 -1 -45 -10z" />
<glyph unicode="&#xcf;" horiz-adv-x="343" d="M0 0zM241 281v-306q0 -31 -22 -48t-54 -17q-67 0 -74 59q-3 25 -3 54q0 46 11 137.5t11 137.5q0 47 -28 204q-19 105 -18 149q0 21 31 38q23 13 51 18q16 3 28 3q69 0 69 -101q0 -14 -1.5 -40.5t-1.5 -40.5q0 -19 1 -27q6 -50 4 -110zM368 854q-8 -36 -8 -62q0 -10 1 -18 q-20 -10 -57 -32q-46 8 -84 38q-44 34 -44 77q0 15 5 30q21 9 64 19q21 -4 64 -5q20 -15 59 -47zM69 822q0 -21 -30 -47q-26 -23 -49 -29q-28 -7 -78 32t-50 69q0 21 42 46q37 22 54 22q34 0 73 -30t38 -63z" />
<glyph unicode="&#xd0;" horiz-adv-x="819" d="M136 271q-16 -2 -29 -2q-75 0 -102 71q18 14 35 29q22 15 41 15q14 0 54 -7q1 66 -4 195l-32 20l-6 29q57 81 117 81q27 0 78 -13q5 -2 21 1q15 3 26 -1q28 7 63 7q92 0 198 -41q116 -44 167 -109q65 -82 65 -174q0 -121 -103 -237q-84 -94 -208 -158q-133 -68 -251 -68 q-83 0 -136 37q6 230 6 325zM437 313q-37 -37 -92 -37q-13 0 -38.5 1.5t-38.5 1.5q-7 -99 -7 -164q0 -74 9 -104q149 3 275 107q134 111 134 256q0 47 -14 88q-29 85 -162 112q-69 14 -206 12q-23 -42 -24 -109l-2 -116q64 -4 90 -9q58 -11 76 -39z" />
<glyph unicode="&#xd1;" horiz-adv-x="909" d="M99 0zM262 236q-17 -35 -17 -83q0 -28 11 -93q10 -60 8 -93q-2 -28 -26.5 -43t-54.5 -15q-73 0 -81 58q-3 22 -3 50q0 44 12 265q10 185 8 259l-7 6l-8 58l5 11q10 37 38.5 63.5t64.5 26.5q37 0 68 -34q5 -6 47 -177q108 -441 340 -467q12 -1 41 55q65 124 65 287 q0 92 -21 187q-3 12 -20 44q-14 27 -14 45q0 40 66 40q46 0 77 -14q50 -162 50 -324q0 -154 -46 -269q-63 -158 -195 -158q-179 0 -408 315zM823 918q0 -43 -41.5 -93t-83.5 -64q-33 -11 -57 -11q-41 0 -77 27q-14 11 -57 58q-35 38 -62 53q-28 -3 -90.5 -56t-87.5 -50 q-25 28 -25 58q0 55 76 107q58 40 127 58q15 4 27 4q39 0 73 -35q17 -17 51 -66q27 -38 44 -43q9 -2 56.5 40t71.5 42q27 0 55 -29z" />
<glyph unicode="&#xd2;" horiz-adv-x="873" d="M93 0zM591 689q25 -31 25 -43q0 -10 -8 -21q5 -8 58 -29q136 -55 186 -201q22 -64 22 -137q0 -183 -124 -298q-61 -56 -168 -56q-119 0 -251 63q-238 113 -238 325q0 160 118.5 286.5t277.5 126.5q52 0 102 -16zM447 603q-103 -36 -161 -141q-52 -93 -57 -211l6 -6 q-2 -7 -2 -14q0 -82 131 -160q119 -72 208 -72q40 0 61 18q46 39 76 114q28 71 28 135q0 69 -26 128q-29 66 -83 99q-21 13 -71 24.5t-71 24.5q-33 20 -39 61zM537 755l-11 -9q-16 4 -120 89q-99 81 -122 105q7 53 53 66q42 12 70 -3q42 -22 105 -86q73 -74 73 -117 q0 -16 -12.5 -31t-28.5 -15q-4 0 -7 1z" />
<glyph unicode="&#xd3;" horiz-adv-x="873" d="M93 0zM591 689q25 -31 25 -43q0 -10 -8 -21q5 -8 58 -29q136 -55 186 -201q22 -64 22 -137q0 -183 -124 -298q-61 -56 -168 -56q-119 0 -251 63q-238 113 -238 325q0 160 118.5 286.5t277.5 126.5q52 0 102 -16zM447 603q-103 -36 -161 -141q-52 -93 -57 -211l6 -6 q-2 -7 -2 -14q0 -82 131 -160q119 -72 208 -72q40 0 61 18q46 39 76 114q28 71 28 135q0 69 -26 128q-29 66 -83 99q-21 13 -71 24.5t-71 24.5q-33 20 -39 61zM402 755l11 -9q15 4 120 89q100 81 122 105q-7 53 -53 66q-42 12 -70 -3q-42 -22 -105 -86q-74 -75 -74 -117 q0 -16 12.5 -31t28.5 -15q4 0 8 1z" />
<glyph unicode="&#xd4;" horiz-adv-x="873" d="M93 0zM591 689q25 -31 25 -43q0 -10 -8 -21q5 -8 58 -29q136 -55 186 -201q22 -64 22 -137q0 -183 -124 -298q-61 -56 -168 -56q-119 0 -251 63q-238 113 -238 325q0 160 118.5 286.5t277.5 126.5q52 0 102 -16zM447 603q-103 -36 -161 -141q-52 -93 -57 -211l6 -6 q-2 -7 -2 -14q0 -82 131 -160q119 -72 208 -72q40 0 61 18q46 39 76 114q28 71 28 135q0 69 -26 128q-29 66 -83 99q-21 13 -71 24.5t-71 24.5q-33 20 -39 61zM636 748q-25 17 -90 76q-52 47 -98 75q-10 -9 -20 -27q-12 -22 -17 -29q-49 -61 -64 -75q-28 -26 -69 -26 q-23 0 -56 7q-8 12 -8 28q0 26 22 60q10 15 35 55q16 32 53 100q38 56 87 63q39 6 98 -42q16 -16 82 -77q60 -46 77 -63q48 -46 48 -80q0 -26 -35 -35q-5 -1 -45 -10z" />
<glyph unicode="&#xd5;" horiz-adv-x="873" d="M93 0zM591 689q25 -31 25 -43q0 -10 -8 -21q5 -8 58 -29q136 -55 186 -201q22 -64 22 -137q0 -183 -124 -298q-61 -56 -168 -56q-119 0 -251 63q-238 113 -238 325q0 160 118.5 286.5t277.5 126.5q52 0 102 -16zM447 603q-103 -36 -161 -141q-52 -93 -57 -211l6 -6 q-2 -7 -2 -14q0 -82 131 -160q119 -72 208 -72q40 0 61 18q46 39 76 114q28 71 28 135q0 69 -26 128q-29 66 -83 99q-21 13 -71 24.5t-71 24.5q-33 20 -39 61zM773 918q0 -43 -41.5 -93t-83.5 -64q-33 -11 -57 -11q-41 0 -77 27q-14 11 -57 58q-35 38 -62 53 q-28 -3 -90.5 -56t-87.5 -50q-25 28 -25 58q0 55 76 107q58 40 127 58q15 4 27 4q39 0 73 -35q17 -17 51 -66q27 -38 44 -43q9 -2 56.5 40t71.5 42q27 0 55 -29z" />
<glyph unicode="&#xd6;" horiz-adv-x="873" d="M93 0zM591 689q25 -31 25 -43q0 -10 -8 -21q5 -8 58 -29q136 -55 186 -201q22 -64 22 -137q0 -183 -124 -298q-61 -56 -168 -56q-119 0 -251 63q-238 113 -238 325q0 160 118.5 286.5t277.5 126.5q52 0 102 -16zM447 603q-103 -36 -161 -141q-52 -93 -57 -211l6 -6 q-2 -7 -2 -14q0 -82 131 -160q119 -72 208 -72q40 0 61 18q46 39 76 114q28 71 28 135q0 69 -26 128q-29 66 -83 99q-21 13 -71 24.5t-71 24.5q-33 20 -39 61zM728 854q-8 -36 -8 -62q0 -10 1 -18q-20 -10 -57 -32q-46 8 -84 38q-44 34 -44 77q0 15 5 30q21 9 64 19 q21 -4 64 -5q20 -15 59 -47zM429 822q0 -21 -30 -47q-26 -23 -49 -29q-28 -7 -78 32t-50 69q0 21 42 46q37 22 54 22q34 0 73 -30t38 -63z" />
<glyph unicode="&#xd7;" horiz-adv-x="565" d="M526 474q-5 -9 -8 -30t-7.5 -29.5t-30.5 -41.5q-22 -28 -19 -47q2 -10 106 -115q-4 -10 -4 -18q0 -7 4 -12q-16 -17 -51 -50q-35 3 -86 43.5t-67 43.5q-55 -57 -59 -60q-39 -35 -72 -37q-15 -1 -28 22q-11 20 -11 37q0 5 1 8q5 16 42 54t49 60l-103 103q-8 8 -8 28 q0 33 18 60q20 31 51 31q42 0 86 -55q32 -40 55 -67q2 1 58 47q34 28 63 28q11 0 21 -3z" />
<glyph unicode="&#xd8;" horiz-adv-x="950" d="M285 150q47 29 140 87q79 51 128 101q44 45 125 152q-53 51 -128 72q-87 24 -120 48q-83 -106 -115 -163q-52 -93 -52 -178q0 -58 22 -119zM749 394q-37 -46 -102 -125q-21 -25 -128 -93q-116 -74 -159 -115q66 -46 156 -46q109 0 188 61q87 66 87 172q0 70 -42 146z M839 497q109 -135 109 -261q0 -152 -140 -246q-123 -82 -283 -82q-146 0 -262 73q-99 -74 -141 -74q-11 13 -11 33q0 48 63 124q-67 91 -67 217q0 113 51 217q53 109 143 170q34 23 178 39q9 -5 139 -55q87 -34 133 -68q17 24 33 47q25 29 47 29q4 0 14 -1h18q21 0 43 2 q35 -18 35 -44q0 -28 -41 -66q-16 -15 -61 -54z" />
<glyph unicode="&#xd9;" horiz-adv-x="759" d="M87 0zM240 690q16 -17 16 -64q0 -48 -11.5 -142.5t-11.5 -142.5q0 -214 137 -297q31 -19 63 -19q11 0 18 3q85 36 135 161q44 110 44 235q0 68 -15 117q0 3 -21 53q-15 35 -15 57q0 26 20 43q14 12 53 12q44 0 57 -16q46 -58 46 -223q0 -90 -15 -199q-17 -124 -46 -192 q-10 -24 -66 -76q-52 -49 -80 -65q-41 -24 -92 -24q-36 0 -82 13q-114 32 -193 144q-77 106 -83 228l-11 206q-5 86 20 151q15 40 84 40q16 0 49 -3zM457 755l-11 -9q-16 4 -120 89q-99 81 -122 105q7 53 53 66q42 12 70 -3q42 -22 105 -86q73 -74 73 -117q0 -16 -12.5 -31 t-28.5 -15q-4 0 -7 1z" />
<glyph unicode="&#xda;" horiz-adv-x="759" d="M87 0zM240 690q16 -17 16 -64q0 -48 -11.5 -142.5t-11.5 -142.5q0 -214 137 -297q31 -19 63 -19q11 0 18 3q85 36 135 161q44 110 44 235q0 68 -15 117q0 3 -21 53q-15 35 -15 57q0 26 20 43q14 12 53 12q44 0 57 -16q46 -58 46 -223q0 -90 -15 -199q-17 -124 -46 -192 q-10 -24 -66 -76q-52 -49 -80 -65q-41 -24 -92 -24q-36 0 -82 13q-114 32 -193 144q-77 106 -83 228l-11 206q-5 86 20 151q15 40 84 40q16 0 49 -3zM302 755l11 -9q15 4 120 89q100 81 122 105q-7 53 -53 66q-42 12 -70 -3q-42 -22 -105 -86q-74 -75 -74 -117 q0 -16 12.5 -31t28.5 -15q4 0 8 1z" />
<glyph unicode="&#xdb;" horiz-adv-x="759" d="M87 0zM240 690q16 -17 16 -64q0 -48 -11.5 -142.5t-11.5 -142.5q0 -214 137 -297q31 -19 63 -19q11 0 18 3q85 36 135 161q44 110 44 235q0 68 -15 117q0 3 -21 53q-15 35 -15 57q0 26 20 43q14 12 53 12q44 0 57 -16q46 -58 46 -223q0 -90 -15 -199q-17 -124 -46 -192 q-10 -24 -66 -76q-52 -49 -80 -65q-41 -24 -92 -24q-36 0 -82 13q-114 32 -193 144q-77 106 -83 228l-11 206q-5 86 20 151q15 40 84 40q16 0 49 -3zM566 748q-25 17 -90 76q-52 47 -98 75q-10 -9 -20 -27q-12 -22 -17 -29q-49 -61 -64 -75q-28 -26 -69 -26q-23 0 -56 7 q-8 12 -8 28q0 26 22 60q10 15 35 55q16 32 53 100q38 56 87 63q39 6 98 -42q16 -16 82 -77q60 -46 77 -63q48 -46 48 -80q0 -26 -35 -35q-5 -1 -45 -10z" />
<glyph unicode="&#xdc;" horiz-adv-x="759" d="M87 0zM240 690q16 -17 16 -64q0 -48 -11.5 -142.5t-11.5 -142.5q0 -214 137 -297q31 -19 63 -19q11 0 18 3q85 36 135 161q44 110 44 235q0 68 -15 117q0 3 -21 53q-15 35 -15 57q0 26 20 43q14 12 53 12q44 0 57 -16q46 -58 46 -223q0 -90 -15 -199q-17 -124 -46 -192 q-10 -24 -66 -76q-52 -49 -80 -65q-41 -24 -92 -24q-36 0 -82 13q-114 32 -193 144q-77 106 -83 228l-11 206q-5 86 20 151q15 40 84 40q16 0 49 -3zM648 854q-8 -36 -8 -62q0 -10 1 -18q-20 -10 -57 -32q-46 8 -84 38q-44 34 -44 77q0 15 5 30q21 9 64 19q21 -4 64 -5 q20 -15 59 -47zM349 822q0 -21 -30 -47q-26 -23 -49 -29q-28 -7 -78 32t-50 69q0 21 42 46q37 22 54 22q34 0 73 -30t38 -63z" />
<glyph unicode="&#xdd;" horiz-adv-x="831" d="M98 0zM818 613q19 -81 19 -161q0 -139 -55 -229q-63 -103 -192 -127q1 -34 -4 -80q-8 -73 -8 -80q-33 -39 -64 -39q-45 0 -78 77q-28 65 -25 117l-113 46q-74 34 -110 82q-31 40 -58 124q-32 100 -32 188q0 133 73 165q7 3 21 3q27 0 63 -14q43 -17 43 -39q0 -27 -16 -77 q-18 -54 -20 -77q-3 -33 2 -86.5t14 -84.5q17 -56 83 -96q63 -38 124 -38q14 0 32 4q109 24 149 129q27 71 27 205q0 22 -29.5 75t-29.5 64q0 21 34 32q25 8 52 8q59 0 75 -48q11 -33 23 -43zM402 755l11 -9q15 4 120 89q100 81 122 105q-7 53 -53 66q-42 12 -70 -3 q-42 -22 -105 -86q-74 -75 -74 -117q0 -16 12.5 -31t28.5 -15q4 0 8 1z" />
<glyph unicode="&#xe0;" horiz-adv-x="807" d="M97 0zM865 95q-5 -32 -68 -33q-2 -6 -2 -13q0 -15 13.5 -47.5t13.5 -48.5q0 -27 -30 -45q-17 -10 -31 -10q-28 0 -51 39q-7 11 -35 77q-19 43 -35 50q-39 16 -224 14l-96 -1q-14 13 -31 13q-7 0 -20 -2l-19 -3q-13 -22 -26.5 -72.5t-27.5 -72.5q-22 -34 -59 -34 q-9 0 -19 2q-21 25 -21 63q0 24 12.5 71t12.5 71q0 19 -15 41q-10 15 -10 26t36 26q23 10 29 24q19 44 67 250q40 173 81 219q44 7 63 7q64 0 122 -107q37 -80 73 -161q122 -249 162 -278q7 -5 58 -16q42 -9 77 -49zM586 165l-198 335l-106 -303q106 -19 167 -26 q19 -2 43 -1l44 2q27 1 50 -7zM467 755l-11 -9q-16 4 -120 89q-99 81 -122 105q7 53 53 66q42 12 70 -3q42 -22 105 -86q73 -74 73 -117q0 -16 -12.5 -31t-28.5 -15q-4 0 -7 1z" />
<glyph unicode="&#xe1;" horiz-adv-x="807" d="M97 0zM865 95q-5 -32 -68 -33q-2 -6 -2 -13q0 -15 13.5 -47.5t13.5 -48.5q0 -27 -30 -45q-17 -10 -31 -10q-28 0 -51 39q-7 11 -35 77q-19 43 -35 50q-39 16 -224 14l-96 -1q-14 13 -31 13q-7 0 -20 -2l-19 -3q-13 -22 -26.5 -72.5t-27.5 -72.5q-22 -34 -59 -34 q-9 0 -19 2q-21 25 -21 63q0 24 12.5 71t12.5 71q0 19 -15 41q-10 15 -10 26t36 26q23 10 29 24q19 44 67 250q40 173 81 219q44 7 63 7q64 0 122 -107q37 -80 73 -161q122 -249 162 -278q7 -5 58 -16q42 -9 77 -49zM586 165l-198 335l-106 -303q106 -19 167 -26 q19 -2 43 -1l44 2q27 1 50 -7zM302 755l11 -9q15 4 120 89q100 81 122 105q-7 53 -53 66q-42 12 -70 -3q-42 -22 -105 -86q-74 -75 -74 -117q0 -16 12.5 -31t28.5 -15q4 0 8 1z" />
<glyph unicode="&#xe2;" horiz-adv-x="807" d="M97 0zM865 95q-5 -32 -68 -33q-2 -6 -2 -13q0 -15 13.5 -47.5t13.5 -48.5q0 -27 -30 -45q-17 -10 -31 -10q-28 0 -51 39q-7 11 -35 77q-19 43 -35 50q-39 16 -224 14l-96 -1q-14 13 -31 13q-7 0 -20 -2l-19 -3q-13 -22 -26.5 -72.5t-27.5 -72.5q-22 -34 -59 -34 q-9 0 -19 2q-21 25 -21 63q0 24 12.5 71t12.5 71q0 19 -15 41q-10 15 -10 26t36 26q23 10 29 24q19 44 67 250q40 173 81 219q44 7 63 7q64 0 122 -107q37 -80 73 -161q122 -249 162 -278q7 -5 58 -16q42 -9 77 -49zM586 165l-198 335l-106 -303q106 -19 167 -26 q19 -2 43 -1l44 2q27 1 50 -7zM546 748q-25 17 -90 76q-52 47 -98 75q-10 -9 -20 -27q-12 -22 -17 -29q-49 -61 -64 -75q-28 -26 -69 -26q-23 0 -56 7q-8 12 -8 28q0 26 22 60q10 15 35 55q16 32 53 100q38 56 87 63q39 6 98 -42q16 -16 82 -77q60 -46 77 -63q48 -46 48 -80 q0 -26 -35 -35q-5 -1 -45 -10z" />
<glyph unicode="&#xe3;" horiz-adv-x="807" d="M97 0zM865 95q-5 -32 -68 -33q-2 -6 -2 -13q0 -15 13.5 -47.5t13.5 -48.5q0 -27 -30 -45q-17 -10 -31 -10q-28 0 -51 39q-7 11 -35 77q-19 43 -35 50q-39 16 -224 14l-96 -1q-14 13 -31 13q-7 0 -20 -2l-19 -3q-13 -22 -26.5 -72.5t-27.5 -72.5q-22 -34 -59 -34 q-9 0 -19 2q-21 25 -21 63q0 24 12.5 71t12.5 71q0 19 -15 41q-10 15 -10 26t36 26q23 10 29 24q19 44 67 250q40 173 81 219q44 7 63 7q64 0 122 -107q37 -80 73 -161q122 -249 162 -278q7 -5 58 -16q42 -9 77 -49zM586 165l-198 335l-106 -303q106 -19 167 -26 q19 -2 43 -1l44 2q27 1 50 -7zM693 918q0 -43 -41.5 -93t-83.5 -64q-33 -11 -57 -11q-41 0 -77 27q-14 11 -57 58q-35 38 -62 53q-28 -3 -90.5 -56t-87.5 -50q-25 28 -25 58q0 55 76 107q58 40 127 58q15 4 27 4q39 0 73 -35q17 -17 51 -66q27 -38 44 -43q9 -2 56.5 40 t71.5 42q27 0 55 -29z" />
<glyph unicode="&#xe4;" horiz-adv-x="807" d="M97 0zM865 95q-5 -32 -68 -33q-2 -6 -2 -13q0 -15 13.5 -47.5t13.5 -48.5q0 -27 -30 -45q-17 -10 -31 -10q-28 0 -51 39q-7 11 -35 77q-19 43 -35 50q-39 16 -224 14l-96 -1q-14 13 -31 13q-7 0 -20 -2l-19 -3q-13 -22 -26.5 -72.5t-27.5 -72.5q-22 -34 -59 -34 q-9 0 -19 2q-21 25 -21 63q0 24 12.5 71t12.5 71q0 19 -15 41q-10 15 -10 26t36 26q23 10 29 24q19 44 67 250q40 173 81 219q44 7 63 7q64 0 122 -107q37 -80 73 -161q122 -249 162 -278q7 -5 58 -16q42 -9 77 -49zM586 165l-198 335l-106 -303q106 -19 167 -26 q19 -2 43 -1l44 2q27 1 50 -7zM628 854q-8 -36 -8 -62q0 -10 1 -18q-20 -10 -57 -32q-46 8 -84 38q-44 34 -44 77q0 15 5 30q21 9 64 19q21 -4 64 -5q20 -15 59 -47zM329 822q0 -21 -30 -47q-26 -23 -49 -29q-28 -7 -78 32t-50 69q0 21 42 46q37 22 54 22q34 0 73 -30 t38 -63z" />
<glyph unicode="&#xe5;" horiz-adv-x="807" d="M97 0zM865 95q-5 -32 -68 -33q-2 -6 -2 -13q0 -15 13.5 -47.5t13.5 -48.5q0 -27 -30 -45q-17 -10 -31 -10q-28 0 -51 39q-7 11 -35 77q-19 43 -35 50q-39 16 -224 14l-96 -1q-14 13 -31 13q-7 0 -20 -2l-19 -3q-13 -22 -26.5 -72.5t-27.5 -72.5q-22 -34 -59 -34 q-9 0 -19 2q-21 25 -21 63q0 24 12.5 71t12.5 71q0 19 -15 41q-10 15 -10 26t36 26q23 10 29 24q19 44 67 250q40 173 81 219q44 7 63 7q64 0 122 -107q37 -80 73 -161q122 -249 162 -278q7 -5 58 -16q42 -9 77 -49zM586 165l-198 335l-106 -303q106 -19 167 -26 q19 -2 43 -1l44 2q27 1 50 -7zM188 922l36 62q26 35 57 40q1 0 85 12q64 -24 69 -27q43 -17 61 -38q39 -45 39 -91q0 -60 -62 -96q-52 -31 -116 -31q-55 0 -101 23q-58 29 -68 146zM339 963q-29 -14 -29 -73q0 -26 22 -35q15 -8 28 -7q38 2 38 38q0 25 -17.5 47t-41.5 30z " />
<glyph unicode="&#xe6;" horiz-adv-x="1324" d="M975 222l-3 -12q37 -81 94 -120q36 -24 115 -48q83 -25 116 -45l-2 -23q-31 -34 -86 -34q-65 0 -150 44q-72 37 -116 80l-37 -39q-110 -116 -266 -116q-110 0 -203 57q-108 66 -108 170t117 156q65 29 110 25q164 -14 218 -14l2 33q-45 81 -118 147q-88 80 -164 80 q-50 0 -108 -52q-26 -23 -86 -95q-44 -52 -65 -52q-9 0 -16 9l-41 -3q-17 18 -17 46q0 76 101 157q110 88 241 88q146 0 268 -117l13 -1l12 24q70 139 233 139q110 0 214 -64q119 -73 119 -176q0 -173 -387 -244zM1117 600l-6 7q-14 1 -48 8q-30 6 -48 6q-9 0 -16 -1 q-97 -25 -97 -152q0 -75 30 -152q10 -5 26 -5q64 0 154 53q100 59 100 116q0 39 -29 78.5t-66 41.5zM815 205q-113 16 -175 16q-20 0 -27 -3l-15 9q-32 -3 -94 -14q-39 -45 -39 -88q0 -61 68 -99q58 -32 123 -32q84 0 136 72q39 54 39 100q0 14 -4 24q-2 3 -12 15z" />
<glyph unicode="&#xe7;" horiz-adv-x="810" d="M325 -240q-17 11 -31 35t-14 44q0 33 27 33q10 0 31.5 -10t30.5 -10q6 0 11 3q8 26 8 51q-144 15 -225 122q-76 99 -76 248q0 139 69 232v16q55 88 168 139q104 47 216 47q136 0 216 -70q84 -74 84 -208q0 -43 -9 -91q-18 -20 -49 -20q-18 0 -72 15q-7 14 -10 40 q-4 32 -6 42q7 25 7 48q0 71 -58 110q-51 35 -125 35q-116 0 -200 -85q-99 -101 -99 -278q0 -47 7 -97q10 -73 82 -109q59 -30 140 -30q79 0 135 26q14 6 54 41q30 26 59 26q44 0 55 -30q-17 -73 -98 -119q-63 -35 -153 -48q-4 -64 -10 -90q-14 -61 -52 -61q-12 0 -36.5 5.5 t-37.5 5.5q-21 0 -39 -8z" />
<glyph unicode="&#xe8;" horiz-adv-x="885" d="M106 0zM820 488q-14 17 -53 64q-50 60 -119 60q-124 0 -257 -128t-141 -252l8 -7q4 1 160 13q138 11 208 11q100 0 128 -17l-19 -39q-44 -14 -235 -46q-161 -27 -208 -56q7 -75 180 -75q94 0 150 15q22 6 73 43q44 32 67 32q26 0 48 -18q2 -7 2 -14q0 -70 -116 -123 q-103 -47 -203 -47q-43 0 -65 12q-13 -3 -28 -3q-67 0 -148.5 49t-113.5 109q-10 19 -16 72q-5 49 -16 62q10 22 12 43q12 125 135 262q121 134 245 166q84 22 163 22q84 0 167 -33q107 -42 107 -115q0 -67 -115 -62zM667 755l-11 -9q-16 4 -120 89q-99 81 -122 105 q7 53 53 66q42 12 70 -3q42 -22 105 -86q73 -74 73 -117q0 -16 -12.5 -31t-28.5 -15q-4 0 -7 1z" />
<glyph unicode="&#xe9;" horiz-adv-x="885" d="M106 0zM820 488q-14 17 -53 64q-50 60 -119 60q-124 0 -257 -128t-141 -252l8 -7q4 1 160 13q138 11 208 11q100 0 128 -17l-19 -39q-44 -14 -235 -46q-161 -27 -208 -56q7 -75 180 -75q94 0 150 15q22 6 73 43q44 32 67 32q26 0 48 -18q2 -7 2 -14q0 -70 -116 -123 q-103 -47 -203 -47q-43 0 -65 12q-13 -3 -28 -3q-67 0 -148.5 49t-113.5 109q-10 19 -16 72q-5 49 -16 62q10 22 12 43q12 125 135 262q121 134 245 166q84 22 163 22q84 0 167 -33q107 -42 107 -115q0 -67 -115 -62zM522 755l11 -9q15 4 120 89q100 81 122 105 q-7 53 -53 66q-42 12 -70 -3q-42 -22 -105 -86q-74 -75 -74 -117q0 -16 12.5 -31t28.5 -15q4 0 8 1z" />
<glyph unicode="&#xea;" horiz-adv-x="885" d="M106 0zM820 488q-14 17 -53 64q-50 60 -119 60q-124 0 -257 -128t-141 -252l8 -7q4 1 160 13q138 11 208 11q100 0 128 -17l-19 -39q-44 -14 -235 -46q-161 -27 -208 -56q7 -75 180 -75q94 0 150 15q22 6 73 43q44 32 67 32q26 0 48 -18q2 -7 2 -14q0 -70 -116 -123 q-103 -47 -203 -47q-43 0 -65 12q-13 -3 -28 -3q-67 0 -148.5 49t-113.5 109q-10 19 -16 72q-5 49 -16 62q10 22 12 43q12 125 135 262q121 134 245 166q84 22 163 22q84 0 167 -33q107 -42 107 -115q0 -67 -115 -62zM756 748q-25 17 -90 76q-52 47 -98 75q-10 -9 -20 -27 q-12 -22 -17 -29q-49 -61 -64 -75q-28 -26 -69 -26q-23 0 -56 7q-8 12 -8 28q0 26 22 60q10 15 35 55q16 32 53 100q38 56 87 63q39 6 98 -42q16 -16 82 -77q60 -46 77 -63q48 -46 48 -80q0 -26 -35 -35q-5 -1 -45 -10z" />
<glyph unicode="&#xeb;" horiz-adv-x="885" d="M106 0zM820 488q-14 17 -53 64q-50 60 -119 60q-124 0 -257 -128t-141 -252l8 -7q4 1 160 13q138 11 208 11q100 0 128 -17l-19 -39q-44 -14 -235 -46q-161 -27 -208 -56q7 -75 180 -75q94 0 150 15q22 6 73 43q44 32 67 32q26 0 48 -18q2 -7 2 -14q0 -70 -116 -123 q-103 -47 -203 -47q-43 0 -65 12q-13 -3 -28 -3q-67 0 -148.5 49t-113.5 109q-10 19 -16 72q-5 49 -16 62q10 22 12 43q12 125 135 262q121 134 245 166q84 22 163 22q84 0 167 -33q107 -42 107 -115q0 -67 -115 -62zM838 854q-8 -36 -8 -62q0 -10 1 -18q-20 -10 -57 -32 q-46 8 -84 38q-44 34 -44 77q0 15 5 30q21 9 64 19q21 -4 64 -5q20 -15 59 -47zM539 822q0 -21 -30 -47q-26 -23 -49 -29q-28 -7 -78 32t-50 69q0 21 42 46q37 22 54 22q34 0 73 -30t38 -63z" />
<glyph unicode="&#xec;" horiz-adv-x="260" d="M0 0zM241 281v-306q0 -31 -22 -48t-54 -17q-67 0 -74 59q-3 25 -3 54q0 46 11 137.5t11 137.5q0 47 -28 204q-19 105 -18 149q0 21 31 38q23 13 51 18q16 3 28 3q69 0 69 -101q0 -14 -1.5 -40.5t-1.5 -40.5q0 -19 1 -27q6 -50 4 -110zM207 755l-11 -9q-16 4 -120 89 q-99 81 -122 105q7 53 53 66q42 12 70 -3q42 -22 105 -86q73 -74 73 -117q0 -16 -12.5 -31t-28.5 -15q-4 0 -7 1z" />
<glyph unicode="&#xed;" horiz-adv-x="260" d="M0 0zM241 281v-306q0 -31 -22 -48t-54 -17q-67 0 -74 59q-3 25 -3 54q0 46 11 137.5t11 137.5q0 47 -28 204q-19 105 -18 149q0 21 31 38q23 13 51 18q16 3 28 3q69 0 69 -101q0 -14 -1.5 -40.5t-1.5 -40.5q0 -19 1 -27q6 -50 4 -110zM2 755l11 -9q15 4 120 89 q100 81 122 105q-7 53 -53 66q-42 12 -70 -3q-42 -22 -105 -86q-74 -75 -74 -117q0 -16 12.5 -31t28.5 -15q4 0 8 1z" />
<glyph unicode="&#xee;" horiz-adv-x="351" d="M0 0zM241 281v-306q0 -31 -22 -48t-54 -17q-67 0 -74 59q-3 25 -3 54q0 46 11 137.5t11 137.5q0 47 -28 204q-19 105 -18 149q0 21 31 38q23 13 51 18q16 3 28 3q69 0 69 -101q0 -14 -1.5 -40.5t-1.5 -40.5q0 -19 1 -27q6 -50 4 -110zM296 748q-25 17 -90 76 q-52 47 -98 75q-10 -9 -20 -27q-12 -22 -17 -29q-49 -61 -64 -75q-28 -26 -69 -26q-23 0 -56 7q-8 12 -8 28q0 26 22 60q10 15 35 55q16 32 53 100q38 56 87 63q39 6 98 -42q16 -16 82 -77q60 -46 77 -63q48 -46 48 -80q0 -26 -35 -35q-5 -1 -45 -10z" />
<glyph unicode="&#xef;" horiz-adv-x="343" d="M0 0zM241 281v-306q0 -31 -22 -48t-54 -17q-67 0 -74 59q-3 25 -3 54q0 46 11 137.5t11 137.5q0 47 -28 204q-19 105 -18 149q0 21 31 38q23 13 51 18q16 3 28 3q69 0 69 -101q0 -14 -1.5 -40.5t-1.5 -40.5q0 -19 1 -27q6 -50 4 -110zM368 854q-8 -36 -8 -62q0 -10 1 -18 q-20 -10 -57 -32q-46 8 -84 38q-44 34 -44 77q0 15 5 30q21 9 64 19q21 -4 64 -5q20 -15 59 -47zM69 822q0 -21 -30 -47q-26 -23 -49 -29q-28 -7 -78 32t-50 69q0 21 42 46q37 22 54 22q34 0 73 -30t38 -63z" />
<glyph unicode="&#xf0;" horiz-adv-x="819" d="M136 271q-16 -2 -29 -2q-75 0 -102 71q18 14 35 29q22 15 41 15q14 0 54 -7q1 66 -4 195l-32 20l-6 29q57 81 117 81q27 0 78 -13q5 -2 21 1q15 3 26 -1q28 7 63 7q92 0 198 -41q116 -44 167 -109q65 -82 65 -174q0 -121 -103 -237q-84 -94 -208 -158q-133 -68 -251 -68 q-83 0 -136 37q6 230 6 325zM437 313q-37 -37 -92 -37q-13 0 -38.5 1.5t-38.5 1.5q-7 -99 -7 -164q0 -74 9 -104q149 3 275 107q134 111 134 256q0 47 -14 88q-29 85 -162 112q-69 14 -206 12q-23 -42 -24 -109l-2 -116q64 -4 90 -9q58 -11 76 -39z" />
<glyph unicode="&#xf1;" horiz-adv-x="909" d="M99 0zM262 236q-17 -35 -17 -83q0 -28 11 -93q10 -60 8 -93q-2 -28 -26.5 -43t-54.5 -15q-73 0 -81 58q-3 22 -3 50q0 44 12 265q10 185 8 259l-7 6l-8 58l5 11q10 37 38.5 63.5t64.5 26.5q37 0 68 -34q5 -6 47 -177q108 -441 340 -467q12 -1 41 55q65 124 65 287 q0 92 -21 187q-3 12 -20 44q-14 27 -14 45q0 40 66 40q46 0 77 -14q50 -162 50 -324q0 -154 -46 -269q-63 -158 -195 -158q-179 0 -408 315zM823 918q0 -43 -41.5 -93t-83.5 -64q-33 -11 -57 -11q-41 0 -77 27q-14 11 -57 58q-35 38 -62 53q-28 -3 -90.5 -56t-87.5 -50 q-25 28 -25 58q0 55 76 107q58 40 127 58q15 4 27 4q39 0 73 -35q17 -17 51 -66q27 -38 44 -43q9 -2 56.5 40t71.5 42q27 0 55 -29z" />
<glyph unicode="&#xf2;" horiz-adv-x="873" d="M93 0zM591 689q25 -31 25 -43q0 -10 -8 -21q5 -8 58 -29q136 -55 186 -201q22 -64 22 -137q0 -183 -124 -298q-61 -56 -168 -56q-119 0 -251 63q-238 113 -238 325q0 160 118.5 286.5t277.5 126.5q52 0 102 -16zM447 603q-103 -36 -161 -141q-52 -93 -57 -211l6 -6 q-2 -7 -2 -14q0 -82 131 -160q119 -72 208 -72q40 0 61 18q46 39 76 114q28 71 28 135q0 69 -26 128q-29 66 -83 99q-21 13 -71 24.5t-71 24.5q-33 20 -39 61zM537 755l-11 -9q-16 4 -120 89q-99 81 -122 105q7 53 53 66q42 12 70 -3q42 -22 105 -86q73 -74 73 -117 q0 -16 -12.5 -31t-28.5 -15q-4 0 -7 1z" />
<glyph unicode="&#xf3;" horiz-adv-x="873" d="M93 0zM591 689q25 -31 25 -43q0 -10 -8 -21q5 -8 58 -29q136 -55 186 -201q22 -64 22 -137q0 -183 -124 -298q-61 -56 -168 -56q-119 0 -251 63q-238 113 -238 325q0 160 118.5 286.5t277.5 126.5q52 0 102 -16zM447 603q-103 -36 -161 -141q-52 -93 -57 -211l6 -6 q-2 -7 -2 -14q0 -82 131 -160q119 -72 208 -72q40 0 61 18q46 39 76 114q28 71 28 135q0 69 -26 128q-29 66 -83 99q-21 13 -71 24.5t-71 24.5q-33 20 -39 61zM402 755l11 -9q15 4 120 89q100 81 122 105q-7 53 -53 66q-42 12 -70 -3q-42 -22 -105 -86q-74 -75 -74 -117 q0 -16 12.5 -31t28.5 -15q4 0 8 1z" />
<glyph unicode="&#xf4;" horiz-adv-x="873" d="M93 0zM591 689q25 -31 25 -43q0 -10 -8 -21q5 -8 58 -29q136 -55 186 -201q22 -64 22 -137q0 -183 -124 -298q-61 -56 -168 -56q-119 0 -251 63q-238 113 -238 325q0 160 118.5 286.5t277.5 126.5q52 0 102 -16zM447 603q-103 -36 -161 -141q-52 -93 -57 -211l6 -6 q-2 -7 -2 -14q0 -82 131 -160q119 -72 208 -72q40 0 61 18q46 39 76 114q28 71 28 135q0 69 -26 128q-29 66 -83 99q-21 13 -71 24.5t-71 24.5q-33 20 -39 61zM636 748q-25 17 -90 76q-52 47 -98 75q-10 -9 -20 -27q-12 -22 -17 -29q-49 -61 -64 -75q-28 -26 -69 -26 q-23 0 -56 7q-8 12 -8 28q0 26 22 60q10 15 35 55q16 32 53 100q38 56 87 63q39 6 98 -42q16 -16 82 -77q60 -46 77 -63q48 -46 48 -80q0 -26 -35 -35q-5 -1 -45 -10z" />
<glyph unicode="&#xf5;" horiz-adv-x="873" d="M93 0zM591 689q25 -31 25 -43q0 -10 -8 -21q5 -8 58 -29q136 -55 186 -201q22 -64 22 -137q0 -183 -124 -298q-61 -56 -168 -56q-119 0 -251 63q-238 113 -238 325q0 160 118.5 286.5t277.5 126.5q52 0 102 -16zM447 603q-103 -36 -161 -141q-52 -93 -57 -211l6 -6 q-2 -7 -2 -14q0 -82 131 -160q119 -72 208 -72q40 0 61 18q46 39 76 114q28 71 28 135q0 69 -26 128q-29 66 -83 99q-21 13 -71 24.5t-71 24.5q-33 20 -39 61zM773 918q0 -43 -41.5 -93t-83.5 -64q-33 -11 -57 -11q-41 0 -77 27q-14 11 -57 58q-35 38 -62 53 q-28 -3 -90.5 -56t-87.5 -50q-25 28 -25 58q0 55 76 107q58 40 127 58q15 4 27 4q39 0 73 -35q17 -17 51 -66q27 -38 44 -43q9 -2 56.5 40t71.5 42q27 0 55 -29z" />
<glyph unicode="&#xf6;" horiz-adv-x="873" d="M93 0zM591 689q25 -31 25 -43q0 -10 -8 -21q5 -8 58 -29q136 -55 186 -201q22 -64 22 -137q0 -183 -124 -298q-61 -56 -168 -56q-119 0 -251 63q-238 113 -238 325q0 160 118.5 286.5t277.5 126.5q52 0 102 -16zM447 603q-103 -36 -161 -141q-52 -93 -57 -211l6 -6 q-2 -7 -2 -14q0 -82 131 -160q119 -72 208 -72q40 0 61 18q46 39 76 114q28 71 28 135q0 69 -26 128q-29 66 -83 99q-21 13 -71 24.5t-71 24.5q-33 20 -39 61zM728 854q-8 -36 -8 -62q0 -10 1 -18q-20 -10 -57 -32q-46 8 -84 38q-44 34 -44 77q0 15 5 30q21 9 64 19 q21 -4 64 -5q20 -15 59 -47zM429 822q0 -21 -30 -47q-26 -23 -49 -29q-28 -7 -78 32t-50 69q0 21 42 46q37 22 54 22q34 0 73 -30t38 -63z" />
<glyph unicode="&#xf7;" horiz-adv-x="565" d="M526 474q-5 -9 -8 -30t-7.5 -29.5t-30.5 -41.5q-22 -28 -19 -47q2 -10 106 -115q-4 -10 -4 -18q0 -7 4 -12q-16 -17 -51 -50q-35 3 -86 43.5t-67 43.5q-55 -57 -59 -60q-39 -35 -72 -37q-15 -1 -28 22q-11 20 -11 37q0 5 1 8q5 16 42 54t49 60l-103 103q-8 8 -8 28 q0 33 18 60q20 31 51 31q42 0 86 -55q32 -40 55 -67q2 1 58 47q34 28 63 28q11 0 21 -3z" />
<glyph unicode="&#xf8;" horiz-adv-x="950" d="M285 150q47 29 140 87q79 51 128 101q44 45 125 152q-53 51 -128 72q-87 24 -120 48q-83 -106 -115 -163q-52 -93 -52 -178q0 -58 22 -119zM749 394q-37 -46 -102 -125q-21 -25 -128 -93q-116 -74 -159 -115q66 -46 156 -46q109 0 188 61q87 66 87 172q0 70 -42 146z M839 497q109 -135 109 -261q0 -152 -140 -246q-123 -82 -283 -82q-146 0 -262 73q-99 -74 -141 -74q-11 13 -11 33q0 48 63 124q-67 91 -67 217q0 113 51 217q53 109 143 170q34 23 178 39q9 -5 139 -55q87 -34 133 -68q17 24 33 47q25 29 47 29q4 0 14 -1h18q21 0 43 2 q35 -18 35 -44q0 -28 -41 -66q-16 -15 -61 -54z" />
<glyph unicode="&#xf9;" horiz-adv-x="759" d="M87 0zM240 690q16 -17 16 -64q0 -48 -11.5 -142.5t-11.5 -142.5q0 -214 137 -297q31 -19 63 -19q11 0 18 3q85 36 135 161q44 110 44 235q0 68 -15 117q0 3 -21 53q-15 35 -15 57q0 26 20 43q14 12 53 12q44 0 57 -16q46 -58 46 -223q0 -90 -15 -199q-17 -124 -46 -192 q-10 -24 -66 -76q-52 -49 -80 -65q-41 -24 -92 -24q-36 0 -82 13q-114 32 -193 144q-77 106 -83 228l-11 206q-5 86 20 151q15 40 84 40q16 0 49 -3zM457 755l-11 -9q-16 4 -120 89q-99 81 -122 105q7 53 53 66q42 12 70 -3q42 -22 105 -86q73 -74 73 -117q0 -16 -12.5 -31 t-28.5 -15q-4 0 -7 1z" />
<glyph unicode="&#xfa;" horiz-adv-x="759" d="M87 0zM240 690q16 -17 16 -64q0 -48 -11.5 -142.5t-11.5 -142.5q0 -214 137 -297q31 -19 63 -19q11 0 18 3q85 36 135 161q44 110 44 235q0 68 -15 117q0 3 -21 53q-15 35 -15 57q0 26 20 43q14 12 53 12q44 0 57 -16q46 -58 46 -223q0 -90 -15 -199q-17 -124 -46 -192 q-10 -24 -66 -76q-52 -49 -80 -65q-41 -24 -92 -24q-36 0 -82 13q-114 32 -193 144q-77 106 -83 228l-11 206q-5 86 20 151q15 40 84 40q16 0 49 -3zM302 755l11 -9q15 4 120 89q100 81 122 105q-7 53 -53 66q-42 12 -70 -3q-42 -22 -105 -86q-74 -75 -74 -117 q0 -16 12.5 -31t28.5 -15q4 0 8 1z" />
<glyph unicode="&#xfb;" horiz-adv-x="759" d="M87 0zM240 690q16 -17 16 -64q0 -48 -11.5 -142.5t-11.5 -142.5q0 -214 137 -297q31 -19 63 -19q11 0 18 3q85 36 135 161q44 110 44 235q0 68 -15 117q0 3 -21 53q-15 35 -15 57q0 26 20 43q14 12 53 12q44 0 57 -16q46 -58 46 -223q0 -90 -15 -199q-17 -124 -46 -192 q-10 -24 -66 -76q-52 -49 -80 -65q-41 -24 -92 -24q-36 0 -82 13q-114 32 -193 144q-77 106 -83 228l-11 206q-5 86 20 151q15 40 84 40q16 0 49 -3zM566 748q-25 17 -90 76q-52 47 -98 75q-10 -9 -20 -27q-12 -22 -17 -29q-49 -61 -64 -75q-28 -26 -69 -26q-23 0 -56 7 q-8 12 -8 28q0 26 22 60q10 15 35 55q16 32 53 100q38 56 87 63q39 6 98 -42q16 -16 82 -77q60 -46 77 -63q48 -46 48 -80q0 -26 -35 -35q-5 -1 -45 -10z" />
<glyph unicode="&#xfc;" horiz-adv-x="759" d="M87 0zM240 690q16 -17 16 -64q0 -48 -11.5 -142.5t-11.5 -142.5q0 -214 137 -297q31 -19 63 -19q11 0 18 3q85 36 135 161q44 110 44 235q0 68 -15 117q0 3 -21 53q-15 35 -15 57q0 26 20 43q14 12 53 12q44 0 57 -16q46 -58 46 -223q0 -90 -15 -199q-17 -124 -46 -192 q-10 -24 -66 -76q-52 -49 -80 -65q-41 -24 -92 -24q-36 0 -82 13q-114 32 -193 144q-77 106 -83 228l-11 206q-5 86 20 151q15 40 84 40q16 0 49 -3zM648 854q-8 -36 -8 -62q0 -10 1 -18q-20 -10 -57 -32q-46 8 -84 38q-44 34 -44 77q0 15 5 30q21 9 64 19q21 -4 64 -5 q20 -15 59 -47zM349 822q0 -21 -30 -47q-26 -23 -49 -29q-28 -7 -78 32t-50 69q0 21 42 46q37 22 54 22q34 0 73 -30t38 -63z" />
<glyph unicode="&#xfd;" horiz-adv-x="831" d="M98 0zM818 613q19 -81 19 -161q0 -139 -55 -229q-63 -103 -192 -127q1 -34 -4 -80q-8 -73 -8 -80q-33 -39 -64 -39q-45 0 -78 77q-28 65 -25 117l-113 46q-74 34 -110 82q-31 40 -58 124q-32 100 -32 188q0 133 73 165q7 3 21 3q27 0 63 -14q43 -17 43 -39q0 -27 -16 -77 q-18 -54 -20 -77q-3 -33 2 -86.5t14 -84.5q17 -56 83 -96q63 -38 124 -38q14 0 32 4q109 24 149 129q27 71 27 205q0 22 -29.5 75t-29.5 64q0 21 34 32q25 8 52 8q59 0 75 -48q11 -33 23 -43zM402 755l11 -9q15 4 120 89q100 81 122 105q-7 53 -53 66q-42 12 -70 -3 q-42 -22 -105 -86q-74 -75 -74 -117q0 -16 12.5 -31t28.5 -15q4 0 8 1z" />
<glyph unicode="&#x2000;" horiz-adv-x="527" />
<glyph unicode="&#x2001;" horiz-adv-x="1055" />
<glyph unicode="&#x2002;" horiz-adv-x="527" />
<glyph unicode="&#x2003;" horiz-adv-x="1055" />
<glyph unicode="&#x2004;" horiz-adv-x="351" />
<glyph unicode="&#x2005;" horiz-adv-x="263" />
<glyph unicode="&#x2006;" horiz-adv-x="175" />
<glyph unicode="&#x2007;" horiz-adv-x="175" />
<glyph unicode="&#x2008;" horiz-adv-x="131" />
<glyph unicode="&#x2009;" horiz-adv-x="211" />
<glyph unicode="&#x200a;" horiz-adv-x="58" />
<glyph unicode="&#x2010;" horiz-adv-x="645" d="M637 343q-34 -34 -51 -34q-44 0 -130.5 -3.5t-130.5 -3.5q-130 0 -156 14q-19 10 -34 54q20 16 41 33q17 11 57 11q80 0 182 -18q110 -8 120 -10q82 -12 102 -43z" />
<glyph unicode="&#x2011;" horiz-adv-x="645" d="M637 343q-34 -34 -51 -34q-44 0 -130.5 -3.5t-130.5 -3.5q-130 0 -156 14q-19 10 -34 54q20 16 41 33q17 11 57 11q80 0 182 -18q110 -8 120 -10q82 -12 102 -43z" />
<glyph unicode="&#x2012;" horiz-adv-x="645" d="M637 343q-34 -34 -51 -34q-44 0 -130.5 -3.5t-130.5 -3.5q-130 0 -156 14q-19 10 -34 54q20 16 41 33q17 11 57 11q80 0 182 -18q110 -8 120 -10q82 -12 102 -43z" />
<glyph unicode="&#x2013;" horiz-adv-x="643" d="M635 343q-34 -34 -51 -34q-44 0 -130 -3.5t-130 -3.5q-129 0 -155 14q-19 10 -34 54q20 16 41 33q17 11 57 11q79 0 181 -18q109 -8 119 -10q82 -12 102 -43z" />
<glyph unicode="&#x2014;" horiz-adv-x="1143" d="M1135 343q-68 -34 -102 -34q-87 0 -259.5 -3.5t-260.5 -3.5q-258 0 -310 14q-38 10 -68 54q40 16 82 33q34 11 113 11q160 0 363 -18q219 -8 239 -10q163 -12 203 -43z" />
<glyph unicode="&#x202f;" horiz-adv-x="211" />
<glyph unicode="&#x205f;" horiz-adv-x="263" />
<glyph unicode="&#xe000;" horiz-adv-x="715" d="M0 715h715v-715h-715v715z" />
<glyph d="M0 0z" />
</font>
</defs>
</svg>
