<?xml version="1.0" standalone="no"?>
<!DOCTYPE svg PUBLIC "-//W3C//DTD SVG 1.1//EN" "http://www.w3.org/Graphics/SVG/1.1/DTD/svg11.dtd" >
<svg xmlns="http://www.w3.org/2000/svg">
<metadata></metadata>
<defs>
<font id="cabinsketchregular" horiz-adv-x="500" >
<font-face units-per-em="1000" ascent="800" descent="-200" />
<missing-glyph horiz-adv-x="225" />
<glyph horiz-adv-x="1000" />
<glyph horiz-adv-x="1000" />
<glyph unicode="&#xd;" horiz-adv-x="1000" />
<glyph unicode=" "  horiz-adv-x="225" />
<glyph unicode="&#x09;" horiz-adv-x="225" />
<glyph unicode="&#xa0;" horiz-adv-x="225" />
<glyph unicode="!" horiz-adv-x="250" d="M48 564q0 19 15 19q4 0 10 -3.5t10 -3.5l1 1q1 1 3.5 1.5t6 1t10.5 0t16 -2.5q10 6 27 2.5t17 -21.5q0 -51 -10 -142.5t-10 -141.5l-4 -11q0 -1 -1 -17.5t-2.5 -36.5t-1.5 -30q0 -8 -5 -10.5t-19 -2.5q-27 0 -32 6q-3 30 -9 87.5t-9 86.5t-6.5 71.5t-5 77t-1.5 69.5z M68 556q1 -1 2 -4q4 -5 6 -6q9 0 9 10h-17zM77 472q0 -21 7 -27q2 6 9 13.5t7 10.5q-17 0 -17 14q0 8 7.5 19t8.5 14l-20 -10q-1 0 -1 -20v-5q-1 -5 -1 -9zM79 17v9q0 50 12 50q54 0 63 -15q1 -5 3.5 -24.5t2.5 -20.5q0 -3 -5 -9t-5 -7q-1 0 -8 2l-7 3q-2 0 -18.5 -2.5 t-17.5 -2.5q-20 0 -20 17zM82 387q10 0 12 12h-3q-9 0 -9 -12zM88 313q21 12 21 31q-15 -4 -18 -8.5t-3 -22.5zM88 536h3q19 5 29 15h-26zM89 70q0 -5 5 -5q4 0 4 5q0 6 -4 6q-5 0 -5 -6zM93 235q0 -27 11 -38q7 18 7 78q-17 0 -17 -13q0 -4 -0.5 -13t-0.5 -14zM102 363 q20 0 20 29q-10 0 -15 -9.5t-5 -19.5zM104 40q0 -11 15 -11q14 0 16 6q-5 10 -23 10q-6 0 -8 -5zM104 299h10v5zM104 435q22 0 22 21q-13 0 -22 -21zM123 506h12v15q-12 -9 -12 -15z" />
<glyph unicode="&#x22;" horiz-adv-x="399" d="M21 497q0 15 1 37.5t1 26.5q0 8 -0.5 22t-0.5 20q0 31 8.5 45t35.5 14q56 0 56 -19q0 -42 -11.5 -121t-13.5 -94q-1 -6 -1 -17t-0.5 -16t-3.5 -11.5t-9 -9t-17 -2.5q-45 0 -45 125zM41 633q0 -7 1 -13.5t2.5 -12t3 -10t3.5 -6.5t3 -2q0 -16 -6 -19q17 0 31.5 11.5 t14.5 28.5q0 4 -1 7.5t-3.5 6t-4.5 4t-6 2.5t-6.5 2t-8 1h-8h-8h-7.5zM45 489h15q-7 -7 -7 -22q0 -3 0.5 -8t0.5 -7q0 -3 3 -22t3 -20q2 2 19 79q0 15 -13 15q-2 0 -6 -2q14 16 14 28q-21 0 -25 -7.5t-4 -33.5zM48 545q3 -6 12 -6q16 0 20.5 8t4.5 28q-13 -2 -37 -30z M201 497q0 15 1 37.5t1 26.5q0 8 -0.5 22t-0.5 20q0 31 8.5 45t35.5 14q56 0 56 -19q0 -42 -11.5 -121t-13.5 -94q-1 -6 -1 -17t-0.5 -16t-3.5 -11.5t-9 -9t-17 -2.5q-45 0 -45 125zM221 633q0 -7 1 -13.5t2.5 -12t3 -10t3.5 -6.5t3 -2q0 -16 -6 -19q17 0 31.5 11.5 t14.5 28.5q0 4 -1 7.5t-3.5 6t-4.5 4t-6 2.5t-6.5 2t-8 1h-8h-8h-7.5zM225 489h15q-7 -7 -7 -22q0 -3 0.5 -8t0.5 -7q0 -3 3 -22t3 -20q2 2 19 79q0 15 -13 15q-2 0 -6 -2q14 16 14 28q-21 0 -25 -7.5t-4 -33.5zM228 545q3 -6 12 -6q16 0 20.5 8t4.5 28q-13 -2 -37 -30z" />
<glyph unicode="#" horiz-adv-x="716" d="M28 208q0 9 4.5 33.5t9 44.5t5.5 20h44q8 11 21.5 15t24.5 4t19.5 11t8.5 36q0 14 -6 14h-80q-4 0 -7 9t-6 10q17 56 18 68q0 17 46 17q4 0 14 -0.5t16 -0.5q55 0 79 15q6 19 11.5 46.5t10 44.5t13 34.5t26.5 26t46 8.5q9 0 13 -10.5t4 -20.5q0 -8 -3.5 -12.5 t-16.5 -11.5q-1 -7 -8.5 -49t-9.5 -50l1 -6v-6h72q6 -6 14 -6t18 18.5t15.5 36t5.5 19.5h6q0 74 28 93q6 0 35.5 5.5t32.5 5.5h3l3 1v-7h13q-7 -7 -7 -13q0 -2 1 -6.5t1 -7.5q0 -10 -11.5 -27.5t-14.5 -25.5q-1 -3 -2 -17t-4 -23.5t-10 -9.5h-1l-2 1l7 -7q-13 -26 -13 -27 q0 -16 17.5 -21t42.5 -4.5t33 -2.5q-6 -9 -11.5 -28.5t-9.5 -33t-9 -13.5q-13 -11 -70 -11q-54 0 -54 -81q0 -19 60 -19q21 0 26 1q6 -6 6 -18q0 -9 -15.5 -32.5t-20.5 -23.5q-12 0 -19 12l-7 -6l-67 -18q-7 -2 -15 -23t-16 -45t-12 -30q-5 -8 -8.5 -20.5t-7.5 -19.5t-13 -7 q0 -7 1.5 -14t1.5 -9q0 -7 -11 -17h7q0 -19 -20 -25q2 9 -15 8q-6 0 -23 -3q-44 -7 -53 2l-1 -1q16 46 43 111q1 2 13 26.5t12 39.5q0 22 -53 22q-48 0 -52 -13q-65 -204 -87 -204q-7 0 -21.5 4.5t-23.5 4.5q0 6 -11 12.5t-11 8.5l42 155q0 15 -3 22.5t-7 8.5t-14 2t-18 4 q-2 0 -5 3t-9 3zM61 263q1 -3 3.5 -11t4.5 -11.5t8 -6.5t17 -3q39 0 46 14h-22q0 11 13.5 15.5t32 8t25.5 7.5q-1 2 -1 5q0 7 7 19t7 19q0 1 -3.5 4t-3.5 5q0 3 13 16h-4q-4 1 -6 1q-10 0 -18 -25.5t-8 -37.5q-3 0 -19 3t-19 3v12q-7 -7 -34 -17t-39 -20zM84 29q6 0 21 21 t17 22h-3q-23 0 -29 -8t-6 -35zM88 9q12 0 21 14h-3q-18 0 -18 -14zM97 90l12 14h-3q-9 -3 -9 -14zM108 436h12q2 -5 2 -6q-2 -7 -13 -12q1 0 7.5 -1t7.5 -1q32 0 54 29q0 10 -16 10q-15 0 -28 -7l6 13q-2 1 -12 1q-20 0 -20 -26zM109 134q19 9 25 18q-5 1 -6 1 q-19 0 -19 -19zM115 49l7 5h-7v-5zM122 90q12 0 12 7q-2 1 -3 1q-2 0 -5.5 -2.5t-3.5 -5.5zM128 127h3q8 0 12 0.5t7 3.5t3 9l-1 6q-18 -11 -24 -19zM128 184l12 5h-12v-5zM133 215q0 -8 13 -8q26 0 56 32q2 -8 14 -8q4 0 8.5 1.5t7.5 3.5t7 6.5t6 6.5t6.5 7.5t5.5 6.5 q-6 2 -24 2q-26 0 -60 -13.5t-39 -31.5q-1 -2 -1 -5zM134 171q4 0 8.5 -3.5t4.5 -6.5l-1 -3q19 11 19 31zM182 415q36 0 51 21l-19 12l12 13l-3 1h-3q-13 0 -25.5 -16.5t-12.5 -30.5zM193 354q31 0 31 22q-10 0 -20.5 -6t-10.5 -16zM196 381q1 0 8 2.5t10 2.5l-6 7zM208 405 q3 -6 15 -6q1 0 28 19q11 4 24.5 5.5t24.5 5t25 13.5l-18 -24q14 0 22 2.5t16 7.5t16 8q-6 -10 -6 -20q9 0 22.5 10t18.5 10q9 0 9 -6q22 10 37 34h-37v9q-24 -6 -40 -6q-3 0 -4 0.5t-2 2.5t-2 3q-25 0 -73 -23.5t-76 -44.5zM220 313l13 -13q12 0 35.5 -0.5t34.5 -0.5 q40 0 47 7l37 75q0 7 -44 19q1 -8 -73 -14q-3 0 -26 -36.5t-24 -36.5zM233 448l37 6q-2 4 -2 12q0 26 32 62l-11 13q-13 -13 -13 -33q0 -13 -21.5 -32.5t-21.5 -27.5zM286 37q0 -12 21 -14q16 3 26 37.5t10 46.5v2q-57 -15 -57 -72zM287 229q0 -5 26 -9t26 -26 q11 0 48.5 29.5t37.5 40.5l-1 1q-3 0 -29.5 -9.5t-37.5 -9.5v13q-15 0 -42.5 -9.5t-27.5 -20.5zM289 559q6 -6 9 -6q10 0 10 32q-19 0 -19 -26zM294 251l13 12q-13 0 -13 -12zM294 602q0 -2 2 -4t4 -2q20 16 20 21q0 3 -5.5 7.5t-9.5 4.5q-5 0 -8 -10t-3 -17zM311 108 q36 0 57 50l-43 -18l13 -13q-27 -2 -27 -19zM329 158q30 0 30 14q-30 0 -30 -14zM357 189q1 -6 12 -6t11 19zM380 276q1 0 5.5 -0.5t7.5 -0.5q26 0 26 15l-1 10q-26 -8 -38 -24zM392 304q10 0 19.5 11t12.5 22q-32 -8 -32 -33zM409 350h9q1 0 7 5.5t13 13t10 12.5 q5 7 4.5 17.5t6.5 15t33 4.5q14 4 40 16t27 14l7 13q-6 -5 -27 -12t-28 -7q-2 0 -5 3t-4 3h-7l-5 -1q0 9 -3.5 19t-3.5 22h-22q43 32 43 66l-31 -32l6 -6q-24 -9 -24 -31q0 -12 18 -18q-27 -34 -27 -37h9q-7 -12 -17.5 -15t-16 -9t-5.5 -28q0 -15 8 -15q-5 0 -10 -4t-5 -9z M412 418h3l3 1q2 1 6.5 4t5.5 7q-13 -5 -18 -12zM428 238h4q3 1 4 1q6 2 26 3.5t36.5 3.5t17.5 5v14q-31 0 -43 -2q-8 0 -26.5 -9t-18.5 -16zM479 546q20 0 35 30t21 57q-6 2 -16 2q-28 0 -28 -21l1 -2v-3h19l-32 -43v-20zM522 418q6 0 16.5 -0.5t14.5 -0.5q7 0 10 3.5 t3 15.5q-7 0 -17.5 -4.5t-18 -8.5t-8.5 -5z" />
<glyph unicode="$" horiz-adv-x="506" d="M34 418q0 90 71 120q48 7 48 17v60q5 5 12 5q0 -10 5.5 -28t10.5 -18t15 5v-5q0 -4 -13 -25t-17 -21q3 -2 6 -9t7 -7q2 0 7 3.5t11.5 7.5t8.5 5v66l-5 5q5 0 5 6q0 11 -5 14h20q6 0 6 -64l40 -17v-5q7 0 15 -3t18 -3q0 -1 12.5 -4.5t25.5 -12t14 -22.5q0 -1 -2 -8l-1 -7 q0 -5 2 -14t2 -14q0 -12 -4 -15t-13 -3q-24 0 -61.5 15t-58.5 16q-23 0 -54.5 -11t-31.5 -30l41 -40q4 1 12 1q21 0 61.5 -15t52.5 -16v-7q5 0 18 -5.5t13 -10.5q0 -2 -1 -3q9 -3 21.5 -17t16.5 -14q2 0 3 1q0 -4 6 -24.5t10 -20.5q0 -41 -4 -57.5t-11.5 -25t-36.5 -29.5 l-1 -2l-2.5 -5t-1.5 -4q-4 -6 -22 -8t-18 -12h-51v-40q12 -4 12 -34q0 -14 -57 -14v8h-15l5 -5h-14q0 1 -6.5 6.5t-6.5 11.5q0 4 7 7q0 3 2 22.5t3 22.5q0 8 -36 20t-56 14l-13 1q0 11 -12 16v45q6 1 6 10q0 2 -0.5 7t-0.5 8q0 11 10 11q5 0 15 -10q7 -2 31 -3.5t42.5 -6.5 t23.5 -16l5 6q4 -1 13 -1q28 0 51 10t23 34q0 27 -40.5 49t-69.5 22q0 4 -22.5 13.5t-47.5 19.5t-29 14q-25 25 -25 67zM54 405q0 -28 14 -28q2 0 2 21q0 15 -8 15t-8 -8zM54 446q20 0 28 26.5t13 31.5l-5 4l-26 -25h-4q0 -7 -3 -19t-3 -18zM74 144q2 -3 8.5 -4.5t7.5 -2.5 v18q-8 0 -16 -11zM74 372q2 -6 11 -6t14 11h-4.5t-9.5 -1t-11 -4zM74 433q7 -6 17 -6l44 31q1 0 3 16t2 19q-7 -3 -10 -10q-8 -15 -14 -21.5t-20 -14.5t-22 -14zM110 159q16 0 16 19q-16 0 -16 -19zM120 347q6 -11 19 -11q2 0 8.5 5.5t7.5 9.5l-4 6zM126 134h9v12 q-9 0 -9 -12zM166 326q1 0 3 -2t4.5 -5.5t2.5 -7.5q11 2 16 6.5t5 14.5q-9 0 -31 -6zM186 43q4 0 11 -1t12 -1q12 0 12 7q-3 1 -6 8t-6 7t-23 -20zM191 63q7 1 12 9.5t8 10.5q0 6 -8 6q-5 0 -8.5 -9.5t-3.5 -15.5v-1zM191 98q12 0 12 15h-12v-15zM215 304q10 0 12 12l-3 1 q-9 0 -9 -13zM221 332h3q4 -1 5 -1q11 0 18 5q-6 6 -8 6v1l-2 -1q-2 -2 -4 -3.5t-5.5 -3.5t-6.5 -3zM221 483h10l-4 5zM226 517q15 0 20.5 -5.5t5.5 -19.5q25 0 25 14q0 13 -46 18q0 -2 -3 -4zM231 137q0 -10 18 -10q1 0 6.5 0.5t7.5 0.5l-32 11v-2zM252 316h5q15 0 26 7 q0 3 -6 8.5t-8 5.5q-1 0 -8.5 -9.5t-8.5 -11.5zM271 151q5 -8 9 -8q1 1 2 1l-10 11zM272 180l15 -6v6h-15zM290 300q3 0 11 2.5t12 2.5l-16 11q-7 -12 -7 -16zM291 504q3 -12 13 -12q0 12 -13 12zM297 200q6 -8 22.5 -18t22.5 -18q17 17 17 56h-10q4 -8 4 -15q0 -10 -4 -10 q-9 0 -25 2.5t-27 2.5zM302 155q5 -12 15 -10.5t21 10.5h-36zM317 454q0 -2 4 -4.5t6 -2.5v29q-9 0 -9 -21zM318 280h14v7q-14 -3 -14 -7zM327 246q1 0 5.5 -0.5t5.5 -0.5q15 0 15 7l-1 3q-7 -3 -25 -9z" />
<glyph unicode="%" horiz-adv-x="835" d="M30 486q0 66 47 118t111 52q46 0 90.5 -16t53.5 -52q20 0 20 -54q0 -75 -24 -127t-82 -85q-5 -3 -13.5 -10.5t-16 -11.5t-16.5 -4h-5l-4 1l6 13q-18 -14 -31 -18l6 11q-5 1 -6 1q-12 0 -13 -10h-30l6 16q-5 0 -19 -7q-6 3 -19.5 18t-23.5 15q-6 0 -12 -3q3 2 7.5 9.5 t4.5 10.5l-12 12q-11 18 -18 55.5t-7 65.5zM61 492q0 -18 10 -72.5t24 -54.5q16 0 16 14q0 35 -13 35h-8q0 6 1 10.5t1 5.5q0 4 -6 16v110q-25 -25 -25 -64zM104 350q0 -3 9 -13t12 -10q10 0 16 20q0 -25 25 -25q28 0 72.5 26.5t50.5 53.5h-5q-59 -62 -90 -62q-15 0 -33 12 t-32 13q-6 0 -15.5 -6t-9.5 -9zM116 493q0 -39 13 -85q28 -37 55 -37q40 0 66.5 41t26.5 83q0 36 -23.5 76t-59.5 40q-40 0 -59 -37.5t-19 -80.5zM172 -1q0 5 9 18t20.5 28t13.5 18q4 7 11 22.5t12.5 26.5t7.5 12l160 266l7 6q5 4 99 160q3 6 16 37t26.5 49.5t30.5 18.5 q9 0 23 -9.5t23 -9.5q0 -1 -16 -30.5t-34 -61.5t-20 -37q-31 -71 -38 -80q-51 -92 -141 -235q-11 -5 -13.5 -18t-6.5 -18q-17 -29 -52.5 -83t-40.5 -54q-1 0 -5 2t-5 2q0 -5 3 -11t3 -13q0 -16 -7 -16h-79q-7 0 -7 10zM221 19h8h6.5h5t4 1t2.5 2t2.5 3.5t1.5 5.5t2 7 q5 27 35 68.5t38 61.5q11 33 13 37q1 1 6 4t8.5 5.5t3.5 5.5q0 9 -6 9q19 0 19 12v5.5v5.5l-1 3q15 0 15 14q-11 0 -40.5 -42.5t-54 -83.5t-24.5 -43zM275 601q0 -23 20 -39l8 9q0 12 -8 21t-20 9zM295 424q14 0 14 29q-14 0 -14 -29zM297 94q0 -6 5 -6q4 0 4 6t-4 6 q-5 0 -5 -6zM302 541l2 -9q3 -9 3 -12q17 4 17 44q-9 0 -15.5 -6.5t-6.5 -16.5zM304 482h17v31q-17 -5 -17 -31zM334 149q0 -6 5 -6q4 0 4 6t-4 6q-5 0 -5 -6zM371 211q0 -6 5 -6q4 0 4 6t-4 6q-5 0 -5 -6zM374 276q33 0 33 28q-11 0 -22 -8.5t-11 -19.5zM396 254q0 -6 5 -6 q4 0 4 6t-4 6q-5 0 -5 -6zM410 328q16 0 16 9l-1 3q-6 0 -10.5 -3.5t-4.5 -8.5zM451 353q0 -6 5 -6q4 0 4 6t-4 6q-5 0 -5 -6zM461 165l1 33q3 6 15.5 28t18.5 31.5t19.5 27.5t24 26.5t27 15.5t33.5 7q23 0 46.5 -4t46 -18t22.5 -36q9 0 20 -17t11 -30q0 -1 -2.5 -3t-3.5 -2 q14 -10 14 -34q0 -117 -32 -152h-13l6 6l-2 1q-16 0 -16 -26q0 2 4 5t5 3l3 -1q-2 -6 -28 -21.5t-34 -15.5h-92l12 7q-6 -2 -17 -2q-17 0 -17 17q-72 0 -72 154zM493 136q0 -18 4 -39t9 -34t8 -13q11 0 11 10q0 1 -4 11.5t-8 22.5l-9.5 28.5t-9.5 29.5q-1 -5 -1 -16z M493 186q4 -7 12 -7v7h-12zM499 408q6 6 6 12zM513 230q0 -6 5 -6q4 0 4 6t-4 6q-5 0 -5 -6zM536 151q0 -13 9.5 -23.5t9.5 -18.5l-3 -7q-3 -6 -3 -8q3 -11 22.5 -27.5t29.5 -16.5q29 0 50.5 40.5t21.5 71.5q0 2 -0.5 12t-0.5 12h-2l-2 -1q-10 0 -10 16q0 7 4 13.5t4 9.5 q-6 31 -54 31q-32 0 -54 -35.5t-22 -68.5zM542 26q4 -7 13 -7v7h-13zM542 544q4 2 5.5 4.5t1.5 7.5v6q-7 -3 -7 -18zM571 288q0 -3 1 -3l5 3q0 2 -4 4q-2 0 -2 -4zM585 14q0 -4 3 -4t4 4q0 3 -3 3q-4 0 -4 -3zM586 587q0 -6 5 -6t5 6t-5 6t-5 -6zM599 612q0 -6 4 -6q5 0 5 6 t-5 6q-4 0 -4 -6zM617 297q0 -2 2 -2q3 0 4 2q0 3 -3 3t-3 -3zM647 26h6v6h-6v-6zM647 292q18 -9 31 -9v9q0 1 -4.5 2t-10.5 2t-10 1q-6 -4 -6 -5zM685 90q0 -6 5 -6q4 0 4 6t-4 6q-5 0 -5 -6zM711 134q0 -6 5 -6t5 6t-5 6t-5 -6zM711 212q0 -6 5 -6t5 6t-5 6t-5 -6z M718 164q0 -2 3 -2q4 0 4 3t-3 3q-4 0 -4 -4z" />
<glyph unicode="&#x26;" horiz-adv-x="580" d="M27 151q0 94 63 157q1 1 13 11t17.5 18t5.5 18q0 12 -20 34.5t-23 30.5q-19 51 -19 92q0 60 27.5 88.5t84.5 40.5q9 2 32.5 10.5t40.5 8.5q47 0 68 -6q5 0 18.5 -7.5t18.5 -7.5q0 -9 16 -32.5t16 -38.5q0 -10 -3.5 -16.5t-3.5 -8.5l3 -5q4 -6 4 -7q0 -26 -8.5 -44.5 t-22.5 -37.5t-20 -35l-67 -68q-12 0 -19 -7t-7 -18q0 -8 32.5 -31t65 -51.5t32.5 -49.5q11 0 23 -13.5t21 -15.5l37 136q-1 2 -1 6q0 10 11.5 15t31 7t20.5 2l-6 8q11 0 15.5 -5t5 -11t3 -12.5t7.5 -9.5q-7 -1 -7 -10q0 -2 0.5 -8t0.5 -8q0 -10 -7 -11l7 -6q-7 -5 -18 -38.5 t-11 -44.5q-3 0 -8.5 -28.5t-16.5 -28.5q0 -32 5 -41.5t18 -17t24 -23.5q6 -11 6 -16q0 -8 -12 -10.5t-27.5 -4t-21.5 -6.5q-10 0 -23 21.5t-23 21.5t-32.5 -14.5t-32.5 -15.5q-112 -20 -139 -20q-76 0 -135.5 45.5t-59.5 118.5zM52 145q0 -40 17 -40q2 0 8 2.5t6 3.5v99 h-18q-3 0 -8 -26.5t-5 -38.5zM76 87q0 -11 13.5 -22.5t25.5 -15.5q1 0 6.5 3.5t5.5 6.5t-7 13t-9 10t-5.5 -2.5t-3.5 -5.5q0 25 -7 25q-19 0 -19 -12zM76 218q19 0 19 16l7 -6v16q-16 0 -21 -5t-5 -21zM90 253h25l-7 12q1 -1 4 -1q15 0 30 24.5t15 37.5q-15 -10 -41 -36.5 t-26 -30.5v-6zM95 506l13 6q-3 6 -13 6v-12zM102 562h13v6q-9 0 -13 -6zM107 156q0 -15 3 -20.5t8 -9t8 -9.5q46 -63 106 -63q37 0 86.5 7t49.5 22q0 16 -28 48.5t-64 68t-45 48.5q-14 0 -30 14t-37 21q-4 -20 -30.5 -59.5t-26.5 -67.5zM121 425q0 -5 5 -5t5 5q0 6 -5 6 t-5 -6zM139 482q0 -19 12.5 -47.5t27.5 -28.5l9 1q26 13 43 23.5t38.5 27.5t32.5 38t11 46q0 20 -12 41.5t-32 21.5q-10 0 -28.5 -3.5t-27.5 -3.5q-10 0 -13 7q-3 -14 -21.5 -24.5t-21.5 -18.5q-2 -13 -6.5 -32.5t-8 -33t-3.5 -14.5zM144 31q17 -7 25 -7t8 15q-33 0 -33 -8z M146 382q0 -6 6 -6q4 0 4 6q0 7 -4 7q-6 0 -6 -7zM157 361q0 -9 22.5 -36.5t46.5 -46.5l4 -4q5 -3 11 -7.5t12.5 -9.5t10.5 -9.5t4 -7.5v-6l38 -18q4 0 8 3t4 7q0 1 -27.5 22.5t-29.5 21.5q0 10 -2.5 12t-11 3t-16.5 6q-12 7 -32.5 37.5t-41.5 35.5v-3zM182 364 q8 -12 29 -12q3 0 36.5 22t39.5 27q2 2 10 13t15.5 20.5t10.5 9.5q4 2 12 25q4 9 15 17.5t11 17.5q0 3 -3 9.5t-3 11.5q0 7 3 22t3 24q0 18 -5 27.5t-21 12.5q8 4 8 9q0 9 -21.5 13t-43.5 4h-21v-7q34 -8 49 -18t14 -18.5t1 -19.5t14 -19q0 -1 0.5 -10t0.5 -11 q0 -22 -15 -43t-15 -34l-6 6l-13 -19l6 -5q-4 -3 -7.5 -8l-7 -10t-4.5 -7l-79 -38zM188 24l12 7l-5 6q-7 0 -7 -13zM200 19q1 0 6 -1h4q17 0 17 15q-17 0 -27 -14zM227 629q0 -6 4 -6q5 0 5 6q0 7 -5 7q-4 0 -4 -7zM243 24q2 -6 17 -6q12 0 14 6h-31zM287 24q1 -1 2 -1 q3 0 11 8l-2 1h-2q-9 -2 -9 -8zM317 32q0 -4 10 -4q7 0 8 3q0 3 -9 3t-9 -2zM317 191h7v7zM348 179h7v7h-7v-7zM386 130h12l-6 5zM397 99q0 -10 8 -13l5 13h-13zM434 128q0 -6 4 -14t4 -10q8 0 13.5 14t10.5 17q-32 0 -32 -7zM441 148q0 -5 7 -5q19 0 30 17l-12 13 q2 -1 6 -1q19 0 19 44q0 2 -3 4t-5 2q34 13 34 77q-31 0 -35.5 -6t-4.5 -40h14q-8 -4 -20.5 -21.5t-12.5 -26.5q0 -1 1.5 -2.5t4.5 -2.5l2 -2q0 -10 -12.5 -25t-12.5 -25zM471 37q0 -14 22 -14q0 14 -22 14zM473 308q0 -6 5 -6q4 0 4 6q0 7 -4 7q-5 0 -5 -7z" />
<glyph unicode="'" horiz-adv-x="193" d="M20 497q0 15 1 37.5t1 26.5q0 8 -0.5 22t-0.5 20q0 31 8.5 45t35.5 14q56 0 56 -19q0 -42 -11.5 -121t-13.5 -94q-1 -6 -1 -17t-0.5 -16t-3.5 -11.5t-9 -9t-17 -2.5q-45 0 -45 125zM40 633q0 -7 1 -13.5t2.5 -12t3 -10t3.5 -6.5t3 -2q0 -16 -6 -19q17 0 31.5 11.5 t14.5 28.5q0 4 -1 7.5t-3.5 6t-4.5 4t-6 2.5t-6.5 2t-8 1h-8h-8h-7.5zM44 489h15q-7 -7 -7 -22q0 -3 0.5 -8t0.5 -7q0 -3 3 -22t3 -20q2 2 19 79q0 15 -13 15q-2 0 -6 -2q14 16 14 28q-21 0 -25 -7.5t-4 -33.5zM47 545q3 -6 12 -6q16 0 20.5 8t4.5 28q-13 -2 -37 -30z" />
<glyph unicode="(" horiz-adv-x="289" d="M51 361q2 69 13 121.5t37 136.5q3 9 17 37.5t20 37.5q25 30 29 30q20 0 63.5 -9.5t43.5 -22.5q0 -16 -4.5 -27.5t-14 -24.5t-13.5 -21q-13 -25 -23.5 -51t-19.5 -57t-15 -52.5t-12.5 -58.5t-9.5 -53.5t-9.5 -59.5t-8.5 -55q6 -4 6 -12q0 -14 -6 -26h6q0 -11 15 -79.5 t15 -105.5h7q13 0 28.5 -55.5t20.5 -55.5q7 0 13 6q-1 -2 -1 -4q0 -4 4 -10t4 -10v-3q-1 -3 -1 -4q0 2 -2.5 4.5t-3.5 2.5q-10 0 -31.5 -6.5t-32.5 -6.5t-21 9.5t-13.5 15.5t-12.5 25q-45 55 -66 197t-21 247zM81 353q11 0 24.5 15t19.5 15v-3l-37 -39q3 -6 5 -6q1 0 5 1.5 t6 1.5q0 -8 -8 -10.5t-8 -9.5q0 -22 19 -25q-13 -5 -16.5 -10.5t-3.5 -19.5l1 -13l13 -7l-13 -6q-1 -11 -1 -14q0 -12 7 -38t7 -34q0 -1 -3.5 -6t-3.5 -6q0 -5 7 -19q6 -6 8.5 -51t21.5 -54q-6 0 -6 -11q0 -12 8.5 -21.5t10.5 -22.5q1 -8 17 -25t16 -25q0 -2 -2 -5q4 5 12 5 q5 0 10 -10t16 -10q0 1 -13.5 30.5t-13.5 30.5q0 3 1 3l-37 68q1 4 1 14q0 22 -14.5 64.5t-16.5 57.5q0 2 3 9t3 17q0 14 -3.5 40t-3.5 39q0 14 3 27.5t3 20.5t-5 7q-3 0 -10 -3.5t-9 -3.5q23 33 33 57t10 60q-16 -5 -33 -17.5t-17 -25.5h13q-3 -5 -14.5 -11.5t-11.5 -20.5z M87 453q0 -1 0.5 -3t0.5 -3q87 48 87 92q-43 -25 -62 -49h18q-4 -8 -15.5 -11.5t-20 -8t-8.5 -17.5zM88 404l13 12h-13v-12zM99 502h8q2 0 28.5 19t32.5 25l-6 6q22 5 42 42t20 57q-76 -36 -80 -50q27 0 50 6l1 -2q-28 -34 -70 -59h25q-1 -1 -14.5 -7t-18.5 -9t-11.5 -11 t-6.5 -17zM101 435q1 0 7 -1h5q23 0 30 8.5t7 35.5q-17 -10 -33 -23t-16 -20zM113 552l43 30h-9q-15 0 -24.5 -8t-9.5 -22zM137 622l1 -1v-2q1 1 11 8t13 10q-7 0 -16 -4t-9 -11zM156 669h31v-13l49 20l2 2q0 3 -23 12.5t-28 9.5q-9 0 -18.5 -14.5t-12.5 -16.5z" />
<glyph unicode=")" horiz-adv-x="289" d="M51 692q0 13 43.5 22.5t63.5 9.5q2 0 9 -7.5t13 -14.5l7 -8q6 -9 20 -37.5t17 -37.5q26 -84 37 -136.5t13 -121.5q0 -105 -21 -247t-66 -197q-19 -39 -32 -46q-7 -4 -15 -4q-11 0 -32.5 6.5t-31.5 6.5q-1 0 -3.5 -2.5t-2.5 -4.5v4l-1 3q0 4 4 10t4 10q0 2 -1 4 q6 -6 13 -6q5 0 20.5 55.5t28.5 55.5h7q0 37 15 105.5t15 79.5h6q-6 12 -6 26q0 8 6 12q-2 12 -8.5 55t-9.5 59.5t-9.5 53.5t-12.5 58.5t-15 52.5t-19.5 57t-23.5 51q-4 8 -13.5 21t-14 24.5t-4.5 27.5zM87 678q1 -2 2 -2l49 -20v13h31q-3 2 -12.5 16.5t-18.5 14.5 q-5 0 -28 -9.5t-23 -12.5zM101 651q0 -20 20 -57t42 -42l-6 -6q6 -6 32.5 -25t28.5 -19h8q0 9 -6.5 17t-11.5 11t-18.5 9t-14.5 7h25q-19 11 -36.5 26t-25.5 24l-8 9l1 2q23 -6 50 -6q-4 14 -80 50zM112 -110q10 0 16 10t10 10q8 0 12 -5q-2 3 -2 5q0 8 16 25t17 25 q2 13 10.5 22.5t8.5 21.5q0 11 -6 11q19 9 21.5 54t8.5 51q7 14 7 19q0 1 -3.5 6t-3.5 6q0 8 7 34t7 38l-1 14l-13 6l13 7q1 9 1 13q0 14 -3.5 19.5t-16.5 10.5q19 3 19 25q0 7 -8 9.5t-8 10.5q2 0 6 -1.5t5 -1.5q2 0 5 6l-37 39v3q6 0 19.5 -15t24.5 -15q0 14 -11.5 20.5 t-14.5 11.5h13q0 13 -17 25.5t-33 17.5q0 -36 10 -60t33 -57q-2 0 -9 3.5t-10 3.5q-5 0 -5 -7t3 -20.5t3 -27.5q0 -13 -3.5 -39t-3.5 -40q0 -10 3 -17t3 -9q-2 -15 -16.5 -57.5t-14.5 -64.5q0 -10 1 -14l-37 -68q1 0 1 -3q0 -1 -13.5 -30.5t-13.5 -30.5zM150 539 q0 -44 87 -92q0 1 0.5 3t0.5 3q0 13 -8.5 17.5t-20 8t-15.5 11.5h18q-19 24 -62 49zM163 637q3 -3 13 -10t11 -8q0 1 1 1v2q0 7 -9 11t-16 4zM169 582l43 -30q0 14 -9.5 22t-24.5 8h-9zM175 478q0 -27 7 -35.5t30 -8.5h6l6 1q0 7 -16 20t-33 23zM224 416l13 -12v12h-13z" />
<glyph unicode="*" horiz-adv-x="423" d="M32 496q0 8 5 19t13 11q20 0 54.5 -19.5t47.5 -19.5q0 7 -1.5 19t-1.5 18q0 26 6.5 34t33.5 19q10 -6 10 -24q0 -7 -1 -25t-1 -20q29 0 64 18l4 -4q7 11 41 14q10 -20 20 -42q0 -22 -46.5 -35.5t-54.5 -23.5q14 -12 39.5 -44t25.5 -42q0 -4 -4.5 -10.5t-5.5 -9.5 q-2 7 -15 7v3l-18 -9q-10 5 -13 5q-5 8 -17 30t-21 33.5t-17 11.5q-6 0 -17 -18t-26 -35.5t-32 -17.5q-8 0 -20 10.5t-12 17.5q0 10 13 23.5t32.5 28.5t25.5 21l-40 21q-10 3 -34 19t-37 16zM102 363q9 0 26 26h-2q-10 0 -17 -8t-7 -18zM164 552l10 -21l10 30q-16 0 -20 -9z M204 461q7 1 16 6.5t9 13.5h-2q-4 0 -13.5 -6.5t-9.5 -13.5zM225 392q0 -10 11 -24.5t20 -14.5q0 6 -4 13t-8 11t-11 10.5t-8 7.5v-3zM238 477q0 -4 7 -6q10 4 10 17q0 1 -1 4v4q-6 -1 -10.5 -6.5t-4.5 -11.5zM245 329l2 1q2 -1 3 -1h-5zM265 502q0 -9 6 -12q1 1 3 1.5 t4.5 1.5t6 2.5t6 2.5t4 2.5t1.5 2.5q0 2 -3.5 7.5t-7.5 6.5q-10 -14 -20 -15z" />
<glyph unicode="+" horiz-adv-x="472" d="M34 299q0 15 3 17.5t23 2.5h105l12 14v48q-12 7 -12 22q0 21 12 21h49q4 0 6.5 -11.5t2.5 -15.5h-33v-45q39 0 49 48q10 -4 12 -42.5t13 -38.5h98l19 -18v-68l-6 -6q-22 0 -52 -2t-51 -5t-21 -5v-105q0 -9 -7.5 -14t-16.5 -5q-18 0 -28.5 1t-22 9t-11.5 24q0 13 7 16 q-10 7 -13 15.5t-3 20t-3 19.5q-4 13 -68 19h-49l5 12l-12 -6v62q-7 1 -7 16zM66 252q26 16 44 37h-44v-37zM103 246q10 -7 19 -7q18 0 18 31q-5 1 -6 1q-4 0 -7.5 -1.5t-7.5 -5t-5.5 -5.5t-5.5 -7t-5 -6zM123 301q0 -5 5 -5q4 0 4 5q0 6 -4 6q-5 0 -5 -6zM157 246 q0 -6 1 -7q23 4 31 19h-5q-27 0 -27 -12zM166 289q0 -6 5 -6q4 0 4 6q0 7 -4 7q-5 0 -5 -7zM189 276q6 0 14 1.5t22 10.5t14 24q0 25 -7 39q-2 -1 -6.5 -3t-6.5 -2.5t-5.5 -2.5t-5 -4t-3.5 -4.5t-2.5 -5.5t-0.5 -7q0 -15 12 -15q-4 -15 -25 -31zM196 165q0 -9 6 -18 q18 12 24 37q-10 -3 -20 -9.5t-10 -9.5zM202 196h30q1 0 2.5 4t3 9.5t1.5 7.5q0 13 -7 16q-17 -14 -30 -37zM212 252h20v-9q29 0 42 17.5t28 17.5q0 7 -11.5 12t-11.5 10q0 2 3 7q-3 -3 -36.5 -24t-33.5 -31zM219 127q14 0 14 17q0 1 -1 5v4q-13 -16 -13 -26zM294 252h38 q-7 24 -13 24q-3 0 -6 -1t-6 -4t-4.5 -5t-4.5 -7t-4 -7zM344 251q10 0 17.5 6.5t7.5 16.5q0 3 -2 9h-23v-32z" />
<glyph unicode="," horiz-adv-x="221" d="M37 -77q0 13 12.5 33t12.5 31q0 2 -7 11.5t-8 13.5q0 1 -2.5 17t-2.5 19q-1 2 -1 6q0 7 5 11.5t14.5 6.5t19 2.5t24.5 1.5t24 2q10 -1 10 -6v-2q-1 -1 -1 -2q0 -4 6 -6l-4 -5q5 -2 5 -9l-1 -5l-4 5l-1 -4v-5q0 -9 5 -12q-5 0 -5 -18q0 -10 1 -12q-13 -2 -33 -47t-39 -45 v6q-30 0 -30 12zM62 -64l3 -1q5 3 28.5 31t23.5 36v5q-31 -7 -55 -71zM71 40q0 -8 11 -8q10 0 21 5v-4h17q0 8 -4 14t-4 10q-4 0 -22.5 -7.5t-18.5 -9.5zM88 17h15v5h-15v-5z" />
<glyph unicode="-" horiz-adv-x="444" d="M48 216v78q48 0 142 4t143 4q15 -7 22.5 -30t7.5 -44q0 -7 -6 -16t-19 -9q-8 0 -45.5 7t-61 10t-35.5 -4h-148zM73 259q0 -15 55 -15q20 0 44 3q1 -2 5.5 -4.5t6.5 -2.5t7 2.5t5 4.5h74l6 5q0 -7 16 -7h5h5.5h5t5.5 0.5t4.5 1t4 1.5t3 2.5t2 3.5t0.5 5q0 13 -16 13 q-23 0 -28 -7q-1 0 -7 3l-6 3l-6 -3l-6 -3l-12 6q-19 0 -50 -6q-1 7 -11 7q-15 0 -23.5 -6.5t-10.5 -6.5q-5 0 -25.5 6.5t-24.5 6.5h-3q-25 0 -25 -13z" />
<glyph unicode="." horiz-adv-x="242" d="M44 21q0 81 24 81q12 0 38 -6.5t26 -12.5v-81h-75l-12 7q-1 8 -1 12zM75 67q0 -3 3.5 -7t3.5 -8q0 -11 -6 -14q1 -1 10 -1q15 0 15 23l-1 3l-24 7z" />
<glyph unicode="/" horiz-adv-x="531" d="M18 -44q19 25 19 43q2 13 9 37t9 24l12 13l129 229l43 85q0 7 17.5 52t39 99t23.5 60q23 50 38 65q11 11 24 20q3 -1 36 -6.5t51 -23.5q0 -15 -34.5 -100.5t-45.5 -91.5l-7 7l-18 -38l11 7l-141 -284l-12 -12h16l-46 -81q-1 0 -1 0.5t-1 0.5q-5 0 -29.5 -60t-37.5 -63 q-10 -1 -13 -1q-15 0 -43 3.5t-42 3.5q0 8 -6 12zM35 -31h69q4 0 9.5 7.5t5.5 11.5q-15 0 -37.5 -4t-39.5 -4q-7 -3 -7 -11zM60 2q3 -4 13.5 -9.5t15.5 -5.5q4 0 7 7t11 7q3 0 7.5 -1t6.5 -1q10 0 14 16h-31q8 3 20.5 11t22.5 10q24 35 62 111q9 38 12 43q2 6 18 32t16 43 h-16q7 1 7 6q0 1 -1 5t-1 6q4 0 6 0.5t3 0.5q4 0 12 -7q10 14 11 29t13 27q7 7 37 57t30 67q0 2 -12 8.5t-12 12.5l1 3l27 -13q16 0 30 49.5t22 49.5q2 0 19 68l1 1v1q0 6 -19.5 9t-32.5 3q0 -10 8 -14q-24 -6 -39.5 -31.5t-15.5 -52.5q0 -7 18 -15q-3 1 -8 1 q-14 0 -21.5 -13.5t-7.5 -29.5q0 -7 5 -7q-10 -3 -17.5 -15.5t-12.5 -14.5l-37 -99q0 -15 -45 -91t-48 -94v-9q0 -1 -12 -13.5t-12 -21.5q0 -6 6 -6q-17 0 -42.5 -42.5t-25.5 -58.5t12 -19h-25zM153 116h19v-7q-7 0 -19 7zM209 104q6 10 6 18q-6 -10 -6 -18z" />
<glyph unicode="0" horiz-adv-x="689" d="M45 333q0 93 45 182t122 132l20 10t19.5 10t16.5 7.5t18 6.5t17 3.5t20 1.5q59 0 127.5 -44t112.5 -99q18 -23 43 -94.5t25 -97.5q0 -41 -12 -55v-80q-28 -24 -28 -57q0 -9 3 -17q-16 -6 -20 -28t-16 -27q0 2 2.5 8t2.5 10q-17 -26 -23 -26q-1 0 -1 1q-17 -42 -55 -55 l18 18q-12 0 -25 -8.5t-19 -9.5q-8 -3 -80 -13q-1 0 -6 0.5t-8 0.5q-10 0 -11 -6q3 0 10.5 0.5t12.5 0.5q21 0 21 -8q-64 -12 -114 -12q-23 7 -46 17t-54 26t-33 17l-12 7q-93 117 -93 278zM69 302q0 -12 7 -13q2 1 12 6.5t14 8t11 7t9.5 8t2.5 7.5l-49 13q-6 0 -6 -27 q0 -1 -0.5 -4.5t-0.5 -5.5zM70 344q62 28 62 50q0 9 -14 14t-23 5q-1 0 -13 -6zM82 238q0 -5 6.5 -17.5t9.5 -12.5q11 0 22.5 13.5t11.5 25.5l-37 6q-2 0 -7.5 -6.5t-5.5 -8.5zM82 266h51q0 8 -3 22.5t-8 14.5q-11 0 -24 -12.5t-16 -24.5zM88 425q30 -6 33 -6q0 12 -16 12 q-2 0 -8 -2.5t-9 -3.5zM95 344h37v21q-8 0 -22.5 -4.5t-14.5 -9.5v-7zM101 191h39q0 25 -8 25l-31 -19v-6zM106 165q0 -31 10 -31l3 1l25 31q0 9 -38 9v-10zM117 498q39 0 39 14l-18 24q-21 -14 -21 -38zM132 111q16 -31 34 -31q3 0 9 4.5t6 9.5q0 18 -31 18q-2 0 -9.5 -0.5 t-8.5 -0.5zM132 135q2 -8 26 -8q0 12 -2 12t-6 -10zM132 469q2 -7 12 -7q5 0 7 0.5t3.5 3.5t1.5 9q-18 0 -24 -6zM156 314q0 -119 40 -179.5t152 -60.5q88 0 136 68t48 161q0 1 -2.5 11.5t-3.5 11.5q0 28 -12 68q-1 3 -13.5 35t-24 63t-11.5 32q-64 68 -113 68 q-24 0 -53.5 -21.5t-49.5 -21.5q-47 -32 -70 -99.5t-23 -135.5zM175 540q0 -10 9 -10t9 6l-18 7v-3zM181 72q2 0 18 8h-18v-8zM193 61l13 -12q14 10 14 21q-25 0 -27 -9zM199 599q11 -20 40 -20q0 9 -5 20.5t-13 11.5q-12 0 -22 -12zM224 49q15 0 19 6l-3 1h-4q-9 0 -12 -7z M242 40l1 -3q14 -13 39 -13q26 0 41 19q-48 6 -56 6l-1 -1h-2t-4 0.5t-5 0.5q-13 0 -13 -9zM261 629q0 -9 6 -12q4 2 7 11.5t6 11.5q-19 0 -19 -11zM293 640h30q-14 -6 -14 -18h39l5 13q7 -9 19 -15.5t27.5 -12t21.5 -8.5l13 11q-20 28 -63 28l1 3v5q0 8 -6 8q-12 -7 -13 -7 q-2 1 -2.5 3.5t-3 3t-12.5 0.5q-36 0 -42 -14zM323 30q1 0 6 -0.5t8 -0.5q28 0 34 14l-8 1h-10q-27 0 -30 -14zM378 37q9 -7 25 -7q20 0 62.5 16t42.5 22v21q2 0 8.5 -1t9.5 -1q13 0 13 11q0 5 -4 10.5t-4 11.5l1 9q4 0 9.5 -3t7.5 -3q10 0 31 57t21 73q0 7 -3.5 16t-3.5 15 l6 5q8 11 8 87h-9q0 51 -29 103t-74 52q-7 0 -7 -3q0 -12 17 -12q12 0 14 2l-12 -19q4 -1 6 -23t10 -22q4 0 8 3l-12 -19q3 -3 7.5 -18.5t16.5 -15.5q9 0 14 3q-14 -9 -14 -40q0 -16 7 -16q2 0 6.5 3t5.5 4q-12 -24 -12 -37q0 -9 6 -31t6 -31q0 -30 -33 -98t-59 -74 q6 -6 6 -10q0 -1 -13 -4.5t-27 -11t-16 -18.5q0 3 -4.5 7.5t-6.5 4.5q-5 0 -16.5 -7t-15.5 -11zM410 -2v7q9 -1 25 3.5t23 4.5v-6q0 -3 -20 -6t-28 -3zM439 606q0 -21 7 -21q8 0 12 7q-10 14 -19 14zM457 581q0 -15 20 -15q3 0 9 0.5t9 0.5q-8 14 -38 14zM489 549 q1 -8 19 -8l8 1q7 1 10 1q0 3 -11.5 10t-12.5 8q-3 0 -8 -5t-5 -7zM558 407z" />
<glyph unicode="1" horiz-adv-x="366" d="M43 540q0 12 9.5 14t9.5 4q57 25 112 93h73q0 -6 4 -17t4 -18q0 -20 -7 -27h8q0 -23 -8 -31h9q0 -44 -3 -74q0 -1 -1.5 -6.5t-3 -11.5t-1.5 -7t2.5 -3.5t3.5 -2.5v-105q7 -2 7 -15q0 -15 -7 -16l6 -5l-6 -7l6 -7v-80l7 -6v-172h-9q0 -3 1 -19.5t1 -18.5t-2.5 -7t-3.5 -5 h-31q1 7 -7 9.5t-21 2.5q-2 0 -5.5 -3.5t-3.5 -8.5q-11 10 -24 27.5t-13 28.5q0 2 2.5 7t3.5 6h-7q0 42 7 61q0 48 1.5 123.5t1.5 109.5q0 90 -15 106q-1 3 -1.5 7t-0.5 6.5t-1 5.5t-2 5t-3 3.5t-4.5 2.5t-6.5 1q-2 0 -25 -12.5t-27 -12.5q-2 1 -3 1l6 6q-2 6 -9 6 q-3 0 -4 -1q-19 38 -19 63zM75 505q21 0 42.5 17.5t28.5 17.5q16 0 28 -13q-8 -2 -8 -13q0 -6 8 -11q0 -2 -2 -5.5t-3.5 -7t-1.5 -6.5q10 -34 12 -57t2 -89q0 -20 -0.5 -49.5t-0.5 -32.5q8 -8 8 -38h9q1 -3 1 -5q-5 -6 -12 -6q0 -15 -3 -39t-3 -36q0 -5 0.5 -7t3.5 -3.5 t9 -1.5q-14 -9 -14 -32q9 0 20 6.5t24 6.5q-6 -8 -19 -14.5t-21.5 -14t-8.5 -20.5q0 -34 67 -34v46l-12 7q19 7 19 32v6q0 24 -7 24q-6 0 -19 -3.5t-17 -3.5q6 0 16 6.5t17.5 15.5t7.5 15h-29q1 1 7 4.5t9 5.5t6 6.5t3 9.5q0 7 -4 9t-15 2q19 11 19 25q0 13 -13 13 q2 1 6.5 5.5t5.5 6.5v3q0 59 -24 59q-5 0 -11 -6q10 13 23 17v56l-6 6l6 7v227q0 2 -8 4t-16 2l-8 1q-9 0 -11 -7l7 -6q-20 -9 -47.5 -37t-39.5 -36q-3 -2 -8.5 -4.5t-9 -4.5t-7 -5t-5 -8.5t-1.5 -12.5zM174 576q17 25 43 25h6q-4 -6 -10.5 -9.5t-12.5 -5.5l-13.5 -4.5 t-12.5 -5.5zM205 34q9 9 18 12h2q1 0 3 -1t4.5 -2.5t2.5 -2.5q-17 -6 -30 -6zM205 305l1 1z" />
<glyph unicode="2" horiz-adv-x="508" d="M23 570q0 14 13 20q-1 -2 -1 -6q0 -6 5.5 -15t5.5 -15q12 0 23 9.5t11 22.5q0 8 -5.5 14.5t-13.5 7.5q6 6 6 12q8 23 51.5 33t78.5 10q109 0 185 -92q8 -10 13.5 -31.5t11.5 -30.5q0 -45 -1 -68.5t-8 -56.5t-22 -60q-47 -69 -93 -124q-7 -8 -25.5 -26t-30.5 -32t-12 -22 q0 -24 185 -24v-12q2 0 8.5 3t8.5 3q21 0 21 -71q0 -2 0.5 -8.5t0.5 -9.5q0 -22 -14 -22q-13 0 -31 12l-92 7q-8 -9 -40 -9h-10v7q-8 0 -20.5 -5.5t-28.5 -6.5q0 4 -8 4t-17.5 -2t-10.5 -2v7h-74q-10 8 -15.5 7.5t-16 -4.5t-15.5 -4q-16 0 -16 17l1 9l104 110 q3 12 45.5 60.5t42.5 65.5q0 1 -0.5 2.5t-0.5 2.5q80 92 80 133v22q0 6 6.5 20t6.5 16l-1 5q-25 64 -53.5 93.5t-87.5 29.5q-25 0 -42.5 -7t-24.5 -16t-17 -18.5t-22 -12.5l7 -7q0 -7 -6.5 -16.5t-13.5 -9.5q-31 0 -31 81zM104 21q1 0 3 -0.5t4 -0.5q8 0 12 8h-3 q-3 0 -9 -3.5t-7 -3.5zM104 595q0 -6 13 -6q7 0 21 10t23 10q1 0 3 -0.5t3 -0.5l18 23q-1 0 -5 0.5t-5 0.5q-71 0 -71 -37zM117 52q23 0 38.5 16t31.5 50.5t22 44.5q2 4 14.5 15t12.5 16h-14q0 -1 -22.5 -25.5t-49 -59t-33.5 -57.5zM129 16q1 -8 32 -8q16 0 24 1t20.5 6 t18.5 19t6 37h-8l-50 -50q-5 0 -5 7q0 6 18.5 24t18.5 22q0 6 -7 9q-16 0 -31 -14t-20.5 -23t-16.5 -30zM178 608h68q8 0 8 20q-10 0 -23.5 -3.5t-21.5 -3.5v9q-14 0 -31 -22zM238 213h15q0 9 -7 13q-8 -5 -8 -13zM241 46l24 25q-1 0 -5 1h-4q-15 0 -15 -26zM246 20 q24 0 27.5 5t3.5 34l-31 -31v-8zM252 241q0 -3 5 -6.5t8 -3.5q5 2 13.5 12.5t7.5 13.5q-13 0 -34 -16zM252 595q8 0 11.5 0.5t6 3.5t2.5 9q-13 -5 -20 -13zM272 268h1q1 0 17 7q-5 5 -10 5q-8 0 -8 -12zM281 609q0 -38 9 -38q2 0 8 2t14.5 5t14.5 5q-7 9 -21 17.5t-25 8.5z M289 34h6l32 31q-4 6 -32 6q0 -5 -1.5 -13.5t-3 -15.5t-1.5 -8zM295 296q0 -2 3 -4t7.5 -3.5t5.5 -2.5l3 1l13 25q-1 0 -9.5 -3t-15.5 -6t-7 -7zM309 28q9 -1 11 -1q19 0 19 13q0 10 -7 12zM320 546h39q0 5 -20 25q-5 -15 -19 -25zM332 358q0 -10 13 -10q14 0 14 20 q-27 0 -27 -10zM338 487q0 -9 16 -13t16 -16l-14 -16q-13 -17 -13 -23q0 -3 2 -3l25 -12q13 15 13 57q0 4 -0.5 21t-0.5 21l-12 19l-31 -32q-1 -1 -1 -3zM350 49q0 -22 10 -22q5 0 14.5 17.5t9.5 27.5h-5.5h-6t-5.5 -0.5t-5.5 -1.5t-4.5 -2.5t-4 -4t-2 -6t-1 -8.5zM376 28 h31l-7 37h-6z" />
<glyph unicode="3" horiz-adv-x="528" d="M30 20q0 60 38 112q5 1 6 1q4 0 14 -10t12 -10t6.5 2.5t4.5 3.5q64 -37 127 -37q57 0 85.5 19.5t28.5 70.5q0 40 -37 95q3 3 3 5q0 14 -79 32.5t-79 22.5q0 1 1 2q-1 0 -13 -6q-37 6 -37 21q0 10 9.5 36t15.5 29q16 -1 38 -1q160 0 160 63q0 72 -69 104q-12 2 -39 2 q-23 0 -66.5 -11t-65.5 -11q0 11 -13.5 35.5t-13.5 38.5q0 13 85 26.5t121 13.5q76 0 117.5 -54t41.5 -132q0 -24 -6 -36q-2 -4 -13.5 -21t-20.5 -33.5t-9 -24.5q0 -2 4.5 -6t11 -8.5t8.5 -5.5q40 -36 51 -82.5t11 -119.5q0 -16 -6.5 -24t-6.5 -13q0 -2 0.5 -6.5t0.5 -7.5 q0 -23 -43 -64t-71 -41l-45 -1q-45 -1 -54 -1q-11 0 -34 0.5t-42 1t-20 0.5q-104 13 -104 25v5h-14zM62 42q0 -9 23 -9q7 0 17.5 9t14.5 19h-18q2 7 12 12t13 9q-3 4 -9 8t-13.5 7t-8.5 4q-14 0 -22.5 -21.5t-8.5 -37.5zM87 8l24 -6v6h-24zM94 606q0 -6 5 -6t5 6t-5 6t-5 -6 zM109 20q29 0 47 24q-3 -7 -3 -17h8l30 31q-24 12 -30 12q-14 0 -33 -18t-19 -32zM141 363q0 -12 19.5 -16.5t46 -4.5t28.5 -1q15 -3 51.5 -21t58.5 -18q0 -7 -2.5 -10.5t-2.5 -5.5q0 -7 5 -12l13 5l-6 7h43q-2 -7 -17 -7t-20 -12q4 0 7.5 -18t6.5 -38t5 -24q1 -3 8 -8.5 t13 -10t9 -5.5h-24v-56q-6 -5 -20 -25v13q-3 -2 -20.5 -13t-28.5 -19.5t-18 -17.5v14q-9 0 -21 -4t-19 -4q-34 7 -40 7q-12 0 -28.5 -12t-16.5 -26q9 0 23.5 6.5t21.5 6.5v-20q59 0 62 32q2 -2 5 -16t10 -14q13 0 19.5 3t8.5 6.5t5.5 12t6.5 14.5l7 -6q8 8 18 25v-6 q-3 -8 -6.5 -14t-4.5 -8t-2 -7t-1 -13q16 0 39 17t39.5 40.5t16.5 39.5q0 19 -7 25h20q0 25 -0.5 40.5t-2.5 38t-6.5 36.5t-12.5 30t-19.5 25t-29 15t-40.5 6q-12 0 -19 -1l4.5 1t9.5 2.5t10 4.5t6 6q-6 6 -7 6q-6 0 -12 -6l-37 12q18 4 38.5 14.5t38 28.5t17.5 37 q0 7 -11 14t-19 7q0 -42 -57 -64q5 -4 5 -12q0 -3 -2.5 -5.5t-6 -4t-9 -3.5t-10.5 -3.5t-11 -4t-10 -4.5l6 -6h-37l7 6h-25l12 13h-31v10q-50 0 -50 -20zM142 600h17q22 0 22 16q-28 -2 -39 -16zM156 44q2 4 5 7q-2 -4 -5 -7zM168 582q0 -7 5 -7t5 7t-5 7t-5 -7zM210 612 q5 -5 12 -5q2 0 4 2t2 3h-18zM247 378h8q16 0 23 7h-9q-15 0 -22 -7zM247 638q0 -3 9 -3q8 0 9 2q0 3 -9 3t-9 -2zM290 600q10 1 25 4t26 5.5l11 2.5q-9 13 -16 13q-17 -1 -31.5 -8.5t-14.5 -16.5zM300 592q0 -4 10 -8.5t20 -6.5l10 -2l-13 -5q8 -5 21 -35.5t15 -32.5 l-5 -13l12 -6q-7 0 -7 -12l36 -13q5 0 9.5 26.5t4.5 36.5q0 13 -9 13q-2 0 -6.5 -1t-6.5 -1q-7 0 -8 7q3 -1 8 -1q12 0 12 15q0 10 -1 10l-32 37q-3 1 -6 1q-9 0 -28 -4.5t-36 -4.5zM383 218h6q1 0 7.5 -1.5t15.5 -4.5t14 -6h-14q-20 0 -29 12zM388 95q0 1 0.5 3.5l0.5 2.5 q14 -21 14 -22q-1 -1 -1 -2q-14 5 -14 18zM389 193q16 0 24 -12l-6 -6zM395 237q0 5 3.5 10t8.5 5v-9h13q-2 -7 -16 -7l-4 0.5t-5 0.5z" />
<glyph unicode="4" horiz-adv-x="575" d="M4 188q0 7 13.5 24.5t31 37t22.5 28.5q4 4 16.5 22.5t15.5 20.5q20 52 58.5 111t52.5 86v2q1 2 1 4q0 1 -1 4v2q18 52 42.5 97t40.5 45q12 0 32 -7t31 -7q0 -5 7 -17t7 -24q0 -53 -3.5 -172t-3.5 -174l7 -11h67q4 0 8.5 -32t4.5 -38q0 -16 -80 -16v-180h-80l-6 5 q0 3 0.5 22.5t0.5 33.5q0 69 -11 90t-47 21v7q-2 -7 -12 -7l-5 7q-4 0 -10 -4t-11 -4q-14 0 -17 8q0 -5 -46.5 -9.5t-65.5 -4.5v7q0 -1 -4.5 -3.5t-6.5 -2.5q-2 6 -8 6q-4 0 -6.5 -1t-5 -2.5t-5.5 -2.5v8q-8 0 -12 0.5t-8 5.5t-4 14zM45 189h10.5h10t9 0.5t9.5 1t8 2t8 3.5 t7 5.5t7 7.5q-3 -5 -3 -7q0 -11 33 -11q20 0 30.5 3.5t16.5 9t23 24.5q-6 0 -23 -6.5t-31 -12.5l-14 -6l-6 1q1 2 16.5 12.5t15.5 18.5q-13 0 -24.5 -3.5t-29 -12t-22.5 -10.5h-6q7 6 7 13q-15 0 -33.5 -9.5t-18.5 -23.5zM83 240q46 0 46 26q-22 0 -28 -3.5t-18 -22.5z M111 282q30 0 30 14q-30 0 -30 -14zM127 309q3 0 16.5 4.5t13.5 7.5v8q-24 0 -30 -20zM150 335q11 0 22 5t11 17q-33 -5 -33 -22zM152 364h4q4 -1 5 -1q19 0 36 15.5t17 34.5q-44 -20 -50 -30q7 0 7 -11q0 -2 -7.5 -5t-11.5 -3zM170 284q27 -20 72 -20q29 0 29 52 q0 82 -15 110q-4 -3 -21.5 -32t-37.5 -64.5t-27 -45.5zM181 412q18 0 33.5 13t25 29t25.5 31.5t34 19.5v7h-54q-6 0 -12.5 -12t-6.5 -18t5 -6l-12 -14l-5 7q-4 -12 -13 -19q6 -2 6 -6l-1 -4q-1 -4 -1 -8h-6q-12 0 -15 -2.5t-3 -17.5zM219 197q22 -6 62 -6v6l-31 12 q-10 0 -31 -12zM225 215q19 0 54 11t44 26h-29q-2 -12 -13 -16t-23.5 -3t-22.5 -2.5t-10 -15.5zM249 535q6 0 14 6.5t12 7.5q-1 0 -5 1h-4q-17 0 -17 -15zM270 530l61 -6l12 6v98q0 8 -14 8q-22 0 -38 -16t-16 -40q9 0 26 6.5t26 6.5l5 -1h5q-6 -6 -56 -25q3 0 15.5 -2.5 t15.5 -3.5l9 1q0 -13 -23.5 -18t-27.5 -14zM279 476q0 -21 11 -21q1 0 4.5 3t7 8t3.5 10h-26zM288 216h6l5 -1q21 0 44 13q0 3 -4.5 7.5t-7.5 4.5q-7 0 -43 -24zM288 419l4 -1h5q24 0 24 12q-1 1 -2 1l-25 6zM293 293q0 -5 10 -5q21 0 31.5 19t10.5 41q-11 0 -25.5 -7.5 t-14.5 -16.5q0 -2 5 -6.5t9 -4.5q-26 0 -26 -20zM293 357q0 -13 12 -13q9 0 20.5 8t11.5 16q0 9 -25 9q-11 0 -15 -4.5t-4 -15.5zM298 401q0 -18 39 -18v37q-8 0 -23.5 -7t-15.5 -12zM299 142q3 -7 13 -7q23 0 23 20q-29 0 -36 -13zM299 185l6 -1q11 0 18 7h-4q-13 0 -20 -6 zM299 450q6 -6 20 -6q17 0 21.5 6t4.5 20q0 4 -1 15.5t-1 14.5l-6 5l-32 -12q1 -8 17 -8q3 0 6.5 0.5t5.5 0.5l3 1q-1 -11 -18.5 -23t-19.5 -14zM305 166h2q2 0 4.5 -0.5t5.5 -0.5q20 0 20 9q0 5 -6 5q-12 0 -26 -13zM312 54q0 -31 19 -31q18 0 18 11q0 8 -13 10.5t-13 9.5 q0 8 7.5 20t7.5 19h-19q-1 0 -2.5 -7t-3 -16.5t-1.5 -15.5zM312 111h25v19q-22 0 -25 -19zM312 271h25v14q-16 0 -25 -14zM362 209h59q0 19 -26 19l-33 -12v-7z" />
<glyph unicode="5" horiz-adv-x="530" d="M38 58q0 17 7.5 41t20.5 24q22 0 71 -15.5t75 -15.5q43 0 60.5 11t44.5 51v3q0 9 -13 22q10 1 17.5 11t7.5 20q0 5 -4 9.5t-4 7.5h7q0 39 -30.5 60.5t-73.5 21.5l-6 -3q-6 -4 -7 -4l-5 7q-1 0 -6 -0.5t-8 -0.5q-8 0 -79 19q-5 5 -7 6q-8 0 -19 -6q-18 0 -18 25 q0 27 9.5 79t9.5 78q0 9 -3 25t-3 24q0 16 4.5 56t7.5 40h81l5 -6l7 6q30 0 85.5 6.5t84.5 6.5q2 0 16.5 -0.5t16.5 -0.5l-5 -6h3l2 1q19 0 19 -79q0 -17 -98 -17v8l-13 -5h-105v-124q0 -6 26 -6q11 0 13 -5.5t5 -7.5q8 -5 15.5 -6.5t17 -2.5t15.5 -2q45 -18 69 -24 q4 -2 16.5 -14.5t16.5 -12.5q2 0 3 1q63 -48 63 -144q0 -19 -4 -36.5t-11.5 -39t-10.5 -33.5l-68 -68h-5v-12q0 -3 -43 -25q-28 -13 -76.5 -22.5t-79.5 -9.5v10q-2 0 -20.5 -1t-21.5 -1q-12 1 -43.5 31t-31.5 45zM63 53q0 -4 3 -7.5t6 -3.5q4 0 7 6l3 7l5 -5q4 2 8.5 8 t7.5 14l3 7q-5 7 -12 7q-13 0 -22 -9.5t-9 -23.5zM94 29q0 -16 22.5 -22.5t42.5 -6.5q16 0 47.5 9t42.5 16v18q12 -12 19 -12q6 0 24 5q-9 16 -15.5 21t-17.5 5q-10 0 -26 -4t-27 -4v-25q-8 0 -10.5 9t-8.5 12l1 -2v-5.5v-6.5q0 -17 -8 -18q-2 6 -5 17t-5.5 16t-7 11.5 t-12 9.5t-19.5 3t-24.5 -18t-12.5 -28zM101 358q38 -13 76 -13l16 1q8 3 22.5 15t14.5 16v5q-24 -11 -78 -11l-1 2q-1 2 -1 3q11 12 13 14q0 11 -13 18q-23 0 -36 -14t-13 -36zM105 440l1 -2q20 10 31 24q-9 0 -20.5 -6.5t-11.5 -15.5zM106 610h7l6 -1q21 0 31 14q-1 0 -5 1 h-4q-28 0 -35 -14zM113 486l13 13q-1 0 -4 1q-1 0 -3 -1.5t-4 -4.5t-2 -8zM113 543l3 -1q2 0 4.5 2.5t4.5 5.5l2 2l-1 4zM144 432h11v7q-7 0 -11 -7zM218 333h6q8 0 23 4.5t15 10.5l-1 3q-36 -6 -43 -18zM224 358q8 -1 9 -1q44 0 52 20q-7 6 -21 6q-13 0 -20.5 -5t-19.5 -20 zM268 333q7 1 25.5 5.5t33.5 8.5l15 4l4 7q-6 6 -29 6h-7q-9 -1 -24.5 -16t-17.5 -15zM279 68q1 -1 14.5 -9.5t18.5 -8.5q3 0 7 3t4 5q0 8 -8 13t-17 5q-10 0 -19 -8zM296 318q27 0 58 21h-10q-48 0 -48 -21zM317 96q2 -14 5 -18t12 -4q17 0 32 12q-5 2 -15.5 17.5 t-25.5 15.5q0 -21 21 -23h-29zM335 309h7q1 0 10.5 2t21.5 4.5t16 4.5q-5 14 -18 14q-12 0 -37 -25zM335 599q9 -7 19 -7q7 0 19 3.5t12 8.5q0 15 -19 26zM342 129q5 -4 21 -15t17 -11q6 0 15 15.5t9 24.5q-59 0 -62 -14zM342 290l4 -1q12 0 13 6h-2q-10 0 -15 -5zM346 179 q7 -13 26 -19t34 -6q17 13 17 44q-51 0 -77 -19zM354 259q0 -1 2 -3.5t3 -2.5q20 0 26 13q-18 0 -31 -7zM359 203q1 0 6.5 -0.5t6.5 -0.5q17 0 18 8h-6q-5 1 -6 1q-17 0 -19 -8zM365 234q0 -18 35 -18q12 0 16 0.5t7.5 3.5t3.5 11q-4 21 -6 28q-56 0 -56 -25zM371 277 q7 0 22.5 4t15.5 9q0 6 -6 12q-32 -10 -32 -25z" />
<glyph unicode="6" horiz-adv-x="550" d="M45 246q0 14 7.5 40.5t7.5 39.5q0 2 -0.5 5.5t-0.5 5.5q38 113 83 184t127 112q4 3 15 10t17.5 11t16.5 7.5t19 3.5q8 0 31.5 -21.5t23.5 -30.5q0 -4 -0.5 -7t-1 -4.5t-3 -2t-3.5 -0.5h-5h-6v-8l-111 -111l-37 -62v-11q12 0 33.5 2t31.5 2q9 0 36 -6.5t39 -6.5q5 0 8 1 q54 -29 94 -72.5t40 -93.5h12q0 -63 -11 -105.5t-49 -74.5q-8 -5 -24.5 -17.5t-28 -21.5t-14.5 -9l-3 3q-3 3 -4 3q-13 0 -18 -19l-7 7q0 -8 -15 -12t-30 -2.5t-15 7.5q0 -3 -3 -7.5t-7 -4.5h-33q-56 0 -56 20q-1 0 -11.5 -0.5t-13.5 -0.5q-8 0 -31.5 22t-23.5 31 q-40 26 -58 81t-18 113zM64 230q0 -5 4 -12t4 -19v-9l-1 -6q8 0 12.5 -7t4.5 -15h20q-12 0 -15.5 -4.5t-3.5 -13.5q0 -8 5.5 -20t12.5 -12q4 0 7 3q-7 -6 -7 -8q0 -3 5 -9.5t9 -7.5q5 0 8 -7t14 -24t33 -36q2 0 24 6t25 6q-3 -5 -12.5 -9.5t-12.5 -8.5l7 -6h49q1 -7 15 -7 q9 0 18.5 1t17 2.5t16.5 5t14.5 5t15 7t13.5 7.5t14.5 9.5t13 9.5t14.5 10.5t14 10.5h13q1 0 6.5 6t13 13.5t10.5 11.5q26 29 26 74q0 5 -3.5 12.5t-6.5 7.5l-3 -1q-1 -3 -16 -12.5t-15 -12.5q12 -6 16 -6q1 0 4.5 1t9.5 1q0 -21 -26.5 -29.5t-33.5 -22.5l5 -6l-24 -12 q7 -3 7 -12l-1 -6q-20 -8 -41 -19t-30.5 -15t-33 -7t-62.5 -3l13 14q-47 17 -55 18q1 1 1 4q0 7 -13.5 13t-19.5 6l6 7q-14 19 -23 36q0 2 -6.5 14.5t-6.5 17.5q0 1 3 7l3 5q0 5 -3.5 17t-3.5 27q0 27 7 42q0 7 -6 7l12 16h-37q2 3 5.5 7.5t5 6.5t4 5t5 4.5t6 3.5t7.5 3.5 t10 2.5q-3 -4 -15 -11t-12 -16q17 0 41 10.5t24 25.5h-18q0 1 -1 8.5t-1 10.5q6 30 7 38h-25q37 0 37 23q0 10 -6 10l18 18q0 4 -5.5 6.5t-17.5 4.5t-14 2q29 0 42 7t26 29q-5 1 -6 1l-49 -13q6 13 34 20.5t33 10.5l-6 6q24 4 32 25q-9 0 -17.5 5t-8.5 14q6 0 10 -4t8 -4 q22 0 52.5 23.5t46.5 45.5q-18 13 -30 13q0 -1 -19.5 -8.5t-44.5 -18.5t-35 -17q-16 -11 -43 -43q-6 -7 -25 -38.5t-19 -33.5l7 -14h-12l-31 -31v-6h6q0 -24 -31 -69l6 -4q0 -18 -12.5 -58t-12.5 -57zM114 115zM114 386h25v-8q-22 0 -25 8zM163 209q0 -14 3.5 -27t7.5 -22 t10.5 -22t10.5 -23q76 -43 92 -43q58 0 88 40t30 99q0 49 -27.5 78.5t-76.5 29.5l-70 -12q-5 -1 -28 -19.5t-31 -18.5q-2 0 -3 1q-6 -22 -6 -61zM200 337l37 31q-4 1 -6 1q-10 0 -20.5 -12t-10.5 -20zM200 517q0 3 12 3q13 0 13 -3q-3 -3 -12 -3q-13 0 -13 3zM219 536 q0 2 9 2t9 -2v-1q-1 -3 -9 -3q-9 0 -9 4zM243 356q11 7 26 7l-19 -18h5h6h6.5t6.5 0.5t6 1t6.5 1.5t6 2.5t5.5 3t4 4t3 5.5q7 -13 14 -13q21 0 41 -13t32 -29t24 -30t19 -15q-9 -1 -9 -24h14q0 -5 -3 -10.5t-3 -10.5h10q32 0 40 9q0 10 -12 36q-34 57 -72.5 84.5t-98.5 27.5 q-18 0 -24.5 -0.5t-16 -4.5t-17.5 -14zM417 97q3 3 7.5 5.5l9 5l9 5t7.5 3.5l3 1v-8q-3 -4 -16 -8t-20 -4zM428 144l0.5 -2l0.5 -2q21 3 21 14q-22 0 -22 -10zM435 189q11 0 24 8t19 17l-43 -6v-19z" />
<glyph unicode="7" horiz-adv-x="482" d="M27 567q0 14 6.5 37t6.5 35q0 1 -0.5 4t-0.5 5q20 5 40 5q42 0 123 -2.5t121 -2.5q22 0 63 2.5t61 2.5q3 0 16.5 -4t13.5 -7v-56l-104 -197q-3 -18 -21.5 -49.5t-21.5 -49.5q-22 -37 -81 -154q-5 -10 -24 -58t-37 -72q0 -6 6 -12l-13 -12h-67q-7 0 -10 3t-3.5 6t-0.5 10 l1 11l143 340q11 65 54 166l-5 19q-1 1 -72.5 6.5t-91.5 5.5h-11.5h-14h-15t-15.5 0.5t-14 1.5t-13 2t-9.5 3t-7 5t-2.5 6zM52 586q0 1 2 1t19 -4.5t24 -4.5l1 1q1 1 3 2.5t5 3t8 3.5t12 4l-6 -12h92q12 12 19 12q2 0 6.5 -3t8.5 -3q15 0 34 25q-4 -1 -12 -1q-12 0 -36 3.5 t-36 3.5t-31 -9.5t-27 -9.5q14 9 14 21q-60 0 -82 -8v5h-18v-30zM144 22q0 -10 17 -10q12 0 18 12.5t7 28t5.5 31.5t14.5 21l-6 6q16 9 16 25h-10q10 7 22 27.5t21 28.5l-5 6q24 15 24 43q-15 -12 -31 -19q6 7 21.5 18.5t25.5 23t10 26.5h-15q0 13 -11 13q-19 0 -19 -22 q0 -17 13 -22q-13 0 -22 -12t-12 -22.5t-3 -14.5l6 -6q-25 -11 -25 -31q0 -1 2.5 -4t3.5 -3q-11 -1 -39.5 -63.5t-28.5 -80.5zM266 312q2 0 8.5 -0.5t10.5 -0.5q27 0 27 23q-24 -14 -37 -14q4 7 15.5 13.5t14.5 12.5h-30q-9 0 -9 -34zM286 389q25 10 44 25h-37q-2 0 -3.5 -6 t-2.5 -12zM298 370q1 -6 12 -6q14 0 23.5 9.5t9.5 22.5q-13 0 -45 -26zM302 450q18 0 28 13q-26 0 -28 -13zM322 505q21 0 33 14.5t12 35.5h-7q-9 0 -23.5 -19t-14.5 -31zM330 438q8 -6 23 -6q7 1 11.5 7.5t4.5 13.5q-18 0 -39 -15zM348 488q2 0 7.5 0.5t8.5 0.5q19 0 28 -8 q3 21 11 25q-48 0 -55 -18zM353 580q34 9 50 31q-2 1 -15 1q-35 0 -35 -32zM403 555q23 0 36 18t13 43h-40q0 -6 11.5 -7.5t11.5 -9.5q0 -17 -32 -44z" />
<glyph unicode="8" horiz-adv-x="585" d="M46 167q0 19 3.5 36t11 40.5t10.5 32.5q12 16 33.5 34t34 30.5t12.5 23.5l-31 31q0 1 -12 27.5t-24.5 56t-12.5 39.5q0 55 51.5 93t108.5 42q7 0 27 7t34 7q60 0 111 -41t51 -98q0 -14 -6 -17v-43q-4 -2 -27.5 -39.5t-34.5 -46.5q-6 -4 -11.5 -4.5t-7 -1.5t-1.5 -7 t32.5 -35t65 -65t32.5 -60h6q0 -9 7 -28.5t7 -30.5q0 -2 -4 -5.5t-4 -5.5q0 -8 8 -11q-1 -4 -3.5 -11.5t-4 -10t-4 -6.5t-6 -5t-8.5 -1q0 -18 -4.5 -32.5t-17 -26t-20.5 -18.5t-29.5 -14.5t-28.5 -10t-32.5 -9t-27.5 -7.5l-13 -4q-13 -3 -18 -3q-39 0 -111 22t-72 47 q-31 0 -50.5 47t-19.5 82zM75 191h26q-15 -7 -18 -13h43q1 0 3.5 3t3.5 4q0 13 -13 13h-2h-2q31 18 31 31q0 3 -8 11l12 12q-5 13 -35 13q-21 0 -31 -24.5t-10 -49.5zM76 148q0 -31 19 -44q29 8 31 22h-27q-4 4 -4 8q0 7 13.5 18t13.5 17h-11h-10.5t-8 -0.5t-7.5 -2 t-4.5 -3.5t-3.5 -6t-1 -9zM101 527q0 -13 4.5 -36.5t11.5 -23.5l3 1.5t7.5 5t5.5 7.5q0 26 -5.5 36t-26.5 10zM107 91q37 0 37 20q-13 1 -25 -4t-12 -16zM108 80q0 -1 2.5 -3.5t4.5 -2.5q12 0 18 6h-25zM114 534q15 0 15 6q0 1 -0.5 4.5t-0.5 5.5q0 7 3.5 9t9.5 3t10 5 q0 12 -6 12q39 8 39 27q-27 0 -48.5 -22.5t-21.5 -49.5zM115 197l1 1zM115 276q28 0 54 14l-18 18h-1q-4 0 -18.5 -13.5t-16.5 -18.5zM120 135l6 6h-6v-6zM120 457l13 -26q15 -20 40.5 -49.5t27.5 -29.5h61q-15 0 -30 8.5t-27 21.5t-24 28.5t-20 28.5t-15 21.5t-10 8.5 q-1 0 -8 -5t-8 -7zM132 58q0 -9 19 -9q8 0 13.5 8t5.5 17l-0.5 3l-0.5 3l-36 -19q-1 -2 -1 -3zM133 271q12 -6 25 -6q1 0 3 2.5t2 3.5t-2 3t-3 2q-5 0 -25 -5zM157 167q0 -20 5.5 -32.5t15.5 -20.5t29 -16q6 -1 33 -7t42 -6q48 0 82.5 20.5t34.5 64.5q0 8 -7 28.5t-7 28.5 q0 5 1 7q-50 68 -142 68q-7 0 -19 -4.5t-22.5 -12t-10.5 -15.5q0 -1 2 -5l-36 -93q-1 -4 -1 -5zM162 316q0 -2 4 -6q5 3 24.5 5t22.5 11q-6 14 -19 14q-5 0 -12.5 -3.5t-13 -9t-5.5 -10.5q-1 0 -1 -1zM163 514q0 -7 4 -22t4 -24h5q7 -23 30.5 -46t45.5 -23q38 0 73.5 35 t35.5 71q0 35 -16.5 58t-49.5 23h-23.5t-24.5 -1.5t-25.5 -4t-22 -8t-19.5 -13t-12 -19t-5 -26.5zM169 36l7 -12q8 2 13 2q12 0 33.5 -10.5t35.5 -10.5q7 0 9.5 1t4.5 5t2 13q0 24 -24 31q-9 -13 -25 -25l-4 1.5t-5 1.5q0 6 1.5 12t1.5 7q0 3 -7 9t-11 6zM194 602 q22 0 73 11.5t51 23.5l-0.5 1.5t-0.5 2.5q-23 -3 -43 -7.5t-30 -7.5t-11 -3q-39 0 -39 -7v-14zM225 333h25q-12 6 -25 6v-6zM282 364h48q2 0 4.5 12.5t2.5 14.5q-16 0 -32 -7.5t-23 -19.5zM286 4q39 0 39 8l-13 37q-2 3 -9 3q-4 0 -7.5 -2t-5 -5.5t-3 -7.5t-1.5 -9.5v-9 v-8.5v-6zM299 326q11 -7 19 -7q13 0 24 14q-1 12 -6 15.5t-15 3.5q-8 0 -11.5 -3.5t-2.5 -7.5t-0.5 -8.5t-7.5 -6.5zM311 613q0 -15 38 -15h6l-6 -6q2 -3 5 -6t7 -5t6 -2q7 1 11 2.5t7.5 3.5t5 5t1.5 7q0 14 -21 26.5t-36 12.5q-5 0 -14.5 -6.5t-9.5 -16.5zM317 648q6 0 6 5 q0 6 -6 6q-4 0 -4 -5.5t4 -5.5zM326 49q0 -37 19 -37q11 0 37 9t35 15q-3 4 -8 10.5t-8.5 11t-3.5 5.5t7 17q4 -3 12 -17t16 -14q7 0 11.5 5.5t4.5 12.5q0 5 -9 13.5t-9 11.5q-1 2 -1 8.5t-2 11.5t-8 5q-2 0 -5 -3t-4 -3l12 -13q-13 -2 -31 -11.5t-24 -19.5q0 -1 2.5 -8.5 l2.5 -7.5q-8 0 -22.5 2.5t-23.5 2.5v-7zM330 400q1 0 5 -0.5l4 -0.5q15 0 30.5 9.5t16.5 22.5q-4 2 -10 2q-8 0 -24.5 -12t-21.5 -21zM349 308q36 -22 47 -22l1 0.5l1 0.5q0 -7 -6 -28q8 -8 22 -8l8 1l-18 13q13 0 30 -6v12q0 4 -11 14.5t-23.5 20t-16.5 9.5q-25 -5 -34 -7z M349 319q15 0 18 7h-18v-7zM373 567q6 -7 25 -7q24 0 24 7q0 13 -2.5 16t-11.5 3q-21 0 -35 -19zM380 457q8 -8 19 -8q9 0 14 7t5 16q-34 0 -38 -15zM384 501q0 -20 14 -20q9 0 19 6q-11 14 -33 14zM391 521q0 -7 10 -11t19 -4q1 0 3 1.5t3.5 3t2.5 3.5t1 3q0 3 -3 10t-5 8 l-30 -11q-1 -2 -1 -3zM416 225q0 -14 9 -23t23 -9q0 14 -7 23l3 1q5 0 15 -7.5t14 -7.5l5 1q0 1 -2 4t-3 6t-1 5t1 3q-10 10 -22 17.5t-17 7.5q-8 0 -13 -6.5t-5 -14.5zM429 146q0 -39 36 -66q4 5 8.5 17t4.5 18q0 7 -11.5 13.5t-18.5 6.5l6 6l-13 26h7l36 -39l7 7v50 q0 7 -15 7q-19 0 -46 -7q0 -1 2 -6.5t2 -6.5q-5 -2 -5 -26z" />
<glyph unicode="9" horiz-adv-x="570" d="M26 460q0 56 23 96.5t63 61.5t85 30t99 9q60 0 104.5 -44t63.5 -100.5t19 -112.5q0 -19 -2.5 -37t-5 -29.5t-10.5 -31.5t-10 -25.5t-14 -29.5l-14 -28q-4 -7 -12 -36t-18.5 -46t-25.5 -17q0 -66 -135 -136l7 13q-18 0 -23.5 -15.5t-14.5 -15.5q-6 13 -29 25.5t-43 10.5 q0 8 -8 13q15 9 49 21t50 22q50 30 86 86t36 112q-19 0 -52 -13.5t-51 -13.5t-26 2q0 9 -30 9v7q-47 0 -68 15q-2 1 -4.5 7.5t-14.5 6.5v4q-74 52 -74 180zM51 422h31q2 0 4.5 8.5t2.5 10.5h-32zM54 457q16 0 37.5 15t21.5 30q0 10 -7 13q10 3 20.5 12.5t10.5 18.5 q0 10 -6 12q12 4 28 17.5t28 18.5q36 14 83 14q10 0 26 -3t27 -3v-2q0 -12 11 -12q15 0 25 13q-10 13 -15 13q-10 -3 -10 -7q-1 6 -30 9.5t-44 3.5q-26 0 -67.5 -7t-49.5 -19q7 0 7 -12q-14 7 -31 7q-65 -59 -65 -132zM57 398l12 -14l13 19q-24 0 -25 -5zM69 360q9 0 13 6 h-13v-6zM76 380h28q0 -1 1 -3t1 -4q0 -5 -13.5 -17t-13.5 -14q29 0 52 6q0 2 -3 13.5t-9 24t-12 12.5q-17 0 -31 -18zM82 324q8 -6 13 -19q22 14 36 31q-41 0 -49 -12zM82 459q2 -4 8.5 -8t9.5 -4q7 0 7 15l-1 4v5zM88 416h5q14 0 14 9l-1 3q-15 -8 -18 -12zM113 298h6 q37 0 37 13q0 10 -13 19q-28 -21 -30 -32zM131 286q0 -4 38 -17t43 -13t37 21t36 28q-12 0 -36.5 -6t-37.5 -6v9q-22 0 -42 -16q5 17 5 19l-43 -12v-7zM131 438q0 -50 28 -76.5t79 -26.5q59 0 102.5 32.5t43.5 88.5q0 27 -20.5 54t-20.5 31q-2 0 -10 7.5t-15 14.5l-7 7 q-42 6 -44 6q-65 0 -100.5 -38t-35.5 -100zM187 9q1 -7 13 -7q14 0 61.5 32.5t67.5 53.5q6 6 14.5 22t15.5 22l-7 6q7 5 17 21t10 21q0 1 -3.5 3.5t-3.5 4.5q9 9 30 51t31 47l-6 7q8 1 8 18h-6q0 7 9 17t9 20h-45q17 18 50 18v41q-18 0 -32 -11.5t-27 -29t-21 -23.5 q-7 -5 -23.5 -12t-24.5 -16.5t-8 -28.5q24 3 40.5 22.5t31.5 19.5l3 -4q-3 -2 -6 -9t-5 -13l-2 -6q0 -10 8.5 -24.5t15.5 -15.5q-31 -7 -31 -35q0 -14 7 -15q-9 0 -13 -8t-7 -19t-6 -16q-31 -46 -36 -61l-73 -74q-2 -2 -56 -19zM248 262h4q5 -1 6 -1q15 0 31 12.5t16 28.5 l-1 1v2q-27 -9 -56 -43zM285 253q16 0 26 13zM344 576q16 0 16 9q0 1 -0.5 2t-0.5 2q-15 -2 -15 -13zM365 568l1 -1q0 -10 13 -10t13 17l-19 10q-8 -12 -8 -16zM383 536q19 0 19 22q-19 -10 -19 -22zM394 518q33 0 33 9q-9 13 -15 13h-1q-17 -8 -17 -22zM411 422l12 31 q-12 0 -12 -31zM411 494q9 0 16.5 6.5t7.5 15.5q-24 0 -24 -22zM414 413q0 -2 2 -6t5 -4q31 23 31 25q0 10 -6 19l-31 -31q-1 -2 -1 -3zM417 463q14 0 18.5 4t4.5 17v6q-1 5 -1 6q-22 -13 -22 -33z" />
<glyph unicode=":" horiz-adv-x="235" d="M43 391q0 4 9 10q6 0 18.5 -3t20.5 -3q13 0 19 3t8 3t6.5 -5.5t4.5 -9.5l-6 -12q0 -2 3 -8t3 -10q0 -7 -13.5 -12t-22.5 -5v6q-16 -9 -31 -9q-8 0 -10 5zM47 82q0 10 3.5 27t3.5 26q34 0 52.5 -5t22.5 -11t4 -16q0 -2 -0.5 -5.5t-0.5 -5.5q0 -11 12 -15q-6 -2 -6 -12 q0 -13 -58 -13q-33 0 -33 30zM72 90v-4q1 -3 1 -4q11 11 25 11q-10 -17 -10 -20q4 0 9 4.5t6 4.5t11 -5v5l1 4q0 7 -6 11.5t-6 5.5q0 5 5 10q-5 -3 -14.5 -5t-15.5 -5.5t-6 -12.5zM76 364q32 0 32 5q0 8 -15 8q-17 0 -17 -13z" />
<glyph unicode=";" horiz-adv-x="278" d="M55 -71q25 34 25 84q0 3 -4.5 6t-8.5 3v98h105q2 0 7.5 -31t5.5 -38q0 -18 -25.5 -54t-43.5 -49q-40 -31 -43 -31h-6v7q-2 0 -4 -0.5t-3 -0.5t-5 6zM80 356v98q63 7 74 7q36 0 36 -20v-67l-12 -13q-5 0 -36.5 -2.5t-37.5 -2.5l-6 -4q-5 -3 -6 -3h-3q-9 0 -9 7zM84 61 q0 -1 2.5 -4.5t5.5 -3.5q6 9 6 30q-13 -6 -13 -22h-1zM98 -21l3 -1q15 5 15 13q-14 -7 -18 -12zM98 393q2 -8 12 -8q9 0 23.5 16.5t14.5 28.5q-21 0 -31 -16t-19 -21zM104 65l25 13l1 -2v-2q-7 -14 -14 -14q12 0 20.5 10t8.5 24q-32 0 -41 -29zM110 10l6 -1q9 0 23 20t21 20 q2 0 6 -2l-6 36q-2 0 -16.5 -16.5t-20.5 -25.5l6 -7q-15 -11 -19 -24zM147 386h4l3 -1q13 0 13 17q-1 7 -1 9q-11 -10 -19 -25z" />
<glyph unicode="&#x3c;" horiz-adv-x="427" d="M29 232v12q110 126 148 204h13q67 0 67 -25q-112 -159 -112 -170q0 -25 7 -28q35 -48 86 -123q13 -20 13 -34q0 -12 -27.5 -20t-41.5 -8q-6 0 -68.5 80t-77.5 105q0 1 -0.5 1t-0.5 1t1 3v2h-7zM64 230q45 0 45 14q0 16 -13 19q-14 0 -23 -10.5t-9 -22.5zM77 207 q13 0 19 3.5t13 14.5q-20 0 -32 -18zM96 201h25q-15 -9 -15 -26q11 0 19.5 6t8.5 16q0 15 -7 23q-27 -14 -31 -19zM104 270h11l19 30h-1q-1 1 -2 1q-12 0 -19.5 -9.5t-7.5 -21.5zM127 146l7 -7l12 13q-16 0 -19 -6zM127 164h4l3 -1q19 0 19 10q0 3 -3.5 6.5t-6.5 3.5 q-7 0 -16 -19zM134 325q14 0 31.5 16.5t17.5 26.5v7q-15 0 -28 -16.5t-21 -33.5zM139 133q2 -7 15 -7q8 0 10 1l-12 -12q4 -4 11.5 -13.5t13 -16.5t6.5 -7l25 12h-19q6 6 6 19q-1 4 -14.5 20.5t-15.5 16.5q-14 0 -26 -13zM183 398q0 -1 1 -1q12 0 17 14l-6 6q-6 -5 -12 -19z " />
<glyph unicode="=" horiz-adv-x="526" d="M62 291q0 30 11 50q0 -3 4.5 -14t8.5 -11q15 6 23 11q-20 0 -20 14l15 6h237l51 -10l4 -6h-14q0 -7 2.5 -19t2.5 -19q0 -11 -3 -14.5t-13 -7.5q-42 10 -158 10q-25 0 -72 -2.5t-70 -2.5q-9 0 -9 15zM76 192v4v6v5t0.5 5.5l1.5 4.5t2 4.5t2.5 3.5t4 3t5 1.5t6.5 0.5 q12 0 76.5 -2t75.5 -2h6q1 0 12 -3t24.5 -5.5t19.5 -2.5q10 0 32 5.5t33 5.5q16 0 16 -28q0 -32 -7 -43.5t-35 -11.5q-3 0 -13.5 0.5t-11.5 0.5q-3 0 -35 5t-36 5q-3 0 -28.5 0.5t-43.5 0.5t-44.5 -0.5t-29.5 -0.5q-22 0 -27.5 8t-5.5 30zM102 202q0 -17 9 -17q5 0 23 9 q0 8 -32 8zM104 312q1 0 6 -1t6 -1q19 0 23 11q-6 6 -21 6q-2 -1 -8 -7t-6 -8zM139 185h10q7 0 25.5 3.5t20.5 5.5v8q-17 0 -23 -0.5t-16 -4.5t-17 -12zM139 312q4 -1 6 -1q8 0 14 6q0 -1 5 -11q26 0 36 15h-51zM195 306h7q54 0 54 12l-1 3h-8q-43 0 -52 -15zM205 190h5 l4 -1q17 0 17 12q-2 0 -6.5 -2t-10.5 -5t-9 -4zM240 190h3l3 -1q7 0 9 5l-5 6zM259 306h62l16 15q-2 0 -9.5 0.5t-8.5 0.5q-3 0 -11 0.5t-13 0.5q-36 0 -36 -17zM266 185h16v6q-14 0 -16 -6zM296 190h10q-5 5 -8 5l-2 -1v-4zM310 180q6 0 18 -3t18 -3q22 0 22 11 q0 10 -17 10q-6 0 -22.5 -4t-18.5 -6v-5zM337 306h26q0 11 -9 11q-10 0 -17 -11z" />
<glyph unicode="&#x3e;" horiz-adv-x="427" d="M49 423q0 25 67 25h13q38 -78 148 -204q2 -6 2 -8q0 -8 -18 -18q-15 -26 -73 -102t-64 -76q-14 0 -41.5 8t-27.5 20q0 14 13 34q51 75 86 123q7 2 7 21q0 13 -7 24q-6 10 -43 64.5t-43 63.5q-19 13 -19 25zM98 90l25 -12q1 0 6.5 7t13 16.5t11.5 13.5l-12 12q2 -1 10 -1 q13 0 15 7q-12 13 -26 13q-2 0 -15.5 -16.5t-14.5 -20.5q0 -13 6 -19h-19zM105 411q5 -14 17 -14l1 1q-6 14 -12 19zM123 368q0 -10 17.5 -26.5t31.5 -16.5q-8 17 -21 33.5t-28 16.5v-7zM153 173q0 -10 19 -10l3 1h4q-9 19 -16 19q-3 0 -6.5 -3.5t-3.5 -6.5zM160 152l12 -13 l7 7q-4 6 -15 6h-4zM172 197q0 -10 8.5 -16t19.5 -6q0 17 -15 26h25q-4 5 -31 19q-7 -8 -7 -23zM172 300l19 -30h11q0 12 -7.5 21.5t-19.5 9.5q-1 0 -3 -1zM197 225q7 -11 13 -14.5t19 -3.5q-12 18 -32 18zM197 244q0 -4 1.5 -6.5t5 -4t6.5 -2.5t8.5 -1h8.5h8h7 q0 12 -9 22.5t-23 10.5q-13 -3 -13 -19z" />
<glyph unicode="?" horiz-adv-x="464" d="M29 590q0 34 59 54.5t100 20.5q83 0 138.5 -41.5t55.5 -122.5q0 -33 -19.5 -85.5t-36.5 -58.5q-14 -17 -31 -42.5t-37 -57.5t-31 -48q2 -4 2 -11q0 -11 -8 -14q4 -3 7.5 -10t4.5 -12l1 -6q0 -16 -39 -16h-5.5h-6h-5t-5 0.5t-4.5 1t-4.5 1.5t-3.5 2.5t-3.5 3.5t-2.5 4.5 t-2 5.5q23 74 26 130q6 3 14.5 18.5t20.5 41.5t20 39q5 8 23 28.5t25.5 37t7.5 38.5t-13 25l7 7q-2 0 -7.5 5t-5.5 7q-20 27 -60.5 41.5t-63.5 14.5l-68 -44l-6 -12q-4 7 -24 19.5t-20 34.5zM55 592q0 -12 12 -19l6 5q23 45 114 45q16 0 22 -1q15 7 18 11q-3 0 -21 1t-22 1 q-23 0 -43.5 -5.5t-45.5 -16.5t-40 -16v-5zM135 -26v68q0 7 53 7q10 0 16.5 -0.5t11.5 -3t7.5 -4t4.5 -7t2.5 -8t1.5 -12t2 -14.5q0 -5 4 -22t4 -29q-17 0 -52.5 7t-42.5 7zM160 -7h19v-7h34q0 11 -7.5 21.5t-17.5 10.5q-5 0 -13.5 -4t-14.5 -4v-17zM209 240q2 0 19.5 24 t17.5 25v7q-26 -9 -31.5 -16.5t-5.5 -39.5zM221 301q1 0 5 -1h5q15 0 30.5 9.5t15.5 25.5q0 23 -29 23q0 -21 17 -21q-11 0 -18 -3.5t-10 -7t-7.5 -12t-8.5 -13.5zM221 607q20 0 20 15l-1 6q-19 -6 -19 -21zM239 589q25 0 63 21q-12 18 -38 18q-11 0 -18 -13t-7 -26z M262 577q12 0 22 15h-4q-18 0 -18 -15zM271 373q0 -11 14 -17q16 0 41 50q21 39 26 57t5 45q0 17 -3.5 31t-7 20.5t-12.5 21.5t-13 22v7q-12 -2 -24.5 -16t-12.5 -25q0 -12 20 -12q10 0 22 3q-2 -1 -10 -8.5t-9 -9.5v-3q0 -3 5 -9t9 -6h3l2 1v-14l13 6q-4 -5 -11.5 -21.5 t-13.5 -31t-7 -14.5l7 -7q-9 -10 -20 -27t-17.5 -29.5t-5.5 -13.5z" />
<glyph unicode="@" horiz-adv-x="655" d="M49 193q0 54 20 89q7 11 13.5 33.5t12.5 32.5q33 58 105.5 95t141.5 37q65 0 113 -27q7 -3 29 -23t22 -30v-1l-1 -1q27 -51 27 -95q0 -128 -37 -142q10 0 10 -12q0 -34 -41 -65q-2 0 -41 -21.5t-88.5 -43t-75.5 -21.5q-6 0 -8 1l-5 -5l-8 -2q-9 -1 -20 -2t-17 -1 q-9 0 -15 3t-13 8.5t-12 8.5q-4 2 -21.5 10.5t-28 15.5t-16.5 15q-46 60 -46 143zM72 199q0 -6 0.5 -18t0.5 -17q18 0 38 7t20 21h-6q-12 -6 -25 -6q-17 0 -17 11q0 3 2 5q1 -6 14 -6q37 0 37 17q-6 0 -17 -3.5t-16 -3.5q-1 0 -4 0.5t-4 0.5q6 4 19 8t16 6h-5l-6 -1 q-6 -1 -13.5 -2t-10.5 -1l-6 4q6 9 31.5 18.5t26.5 25.5h-39q-4 3 -4 6q0 5 19.5 13.5t21.5 12.5l-45 -4q-28 -29 -28 -94zM80 140q0 -4 6.5 -14t13.5 -10l30 30q-41 0 -50 -6zM85 156h45v16q-19 0 -45 -16zM100 103q0 -20 20.5 -44.5t40.5 -24.5q3 0 9 9t14 22.5t12 18.5 l-36 -19q-2 0 -6 1l-3 1v3q4 0 8.5 1.5t7.5 3.5l7.5 5t6.5 4q-5 7 -12.5 10.5t-19 6.5t-13.5 4l5 11h-5q-36 0 -36 -13zM109 316q1 -7 1 -9l45 21h-40q-6 0 -6 -12zM121 232q9 0 20 5q0 4 -5 4q-10 0 -15 -9zM121 343q9 0 20 3t17.5 6.5t6.5 5.5l-27 5h-2zM125 95v5l11 -5 h-11zM125 273q1 0 8 -0.5t8 -0.5q24 0 24 21q-5 -3 -14.5 -7.5t-17 -8t-8.5 -4.5zM155 307q24 6 26 10h-5q-15 0 -21 -10zM155 378q1 0 8 -0.5t8 -0.5q6 0 16.5 6t13.5 6q10 0 17 -4.5t7 -11.5q-1 0 -9 1t-10 1q-25 -5 -30 -7q18 0 30 -10l-35 -15q4 -2 12 -2t16 6t27.5 20 t46.5 27q7 0 26.5 3.5t19.5 8.5q0 1 -37 24q0 -2 -2 -6t-2 -6q-6 3 -11.5 8t-9.5 7.5t-7 2.5q0 -6 5.5 -18t5.5 -18q-10 0 -25.5 7t-23.5 7q2 -3 8 -8t10.5 -9t4.5 -7q-1 0 -4.5 -0.5t-4.5 -0.5q-18 0 -23.5 12.5t-6.5 12.5q-13 0 -13 -11h13q0 -1 -4 -5t-5 -4q-7 0 -11 4z M160 152q0 -32 36 -32q4 0 27 4.5t28 5.5q5 3 18.5 10.5t22.5 11.5v10q-10 0 -28.5 -13t-29.5 -13q-19 0 -38.5 12t-19.5 31l1 13q1 13 2.5 27t1.5 18h-10q-2 0 -4.5 -21.5t-4.5 -42.5zM176 247q15 0 15 20q-13 -9 -15 -20zM191 277h15l31 56q-2 1 -3 1v2q-5 0 -43 -59z M196 65q26 16 26 28q-10 0 -18 -8.5t-8 -19.5zM201 20h21q18 0 57 5.5t39 14.5v6q-25 0 -68.5 -7t-48.5 -19zM205 197q0 -2 0.5 -13t0.5 -13q5 -5 17 -5q33 0 97 56.5t64 94.5q0 10 -13 18.5t-23 8.5q-57 0 -100 -44.5t-43 -102.5zM206 40q49 32 91 32q6 0 26 -2 q-9 14 -67 14h-5zM216 425l30 -16v3l1 2q0 3 -3.5 11.5t-6.5 8.5zM246 343q64 27 100 27q38 0 57 -27q0 1 0.5 4t0.5 4q0 28 -47 28q-35 0 -79 -11q-19 -10 -32 -25zM257 44q17 3 17 13q-17 0 -17 -13zM257 95q5 0 18.5 5t16.5 5q-3 0 -8.5 -4.5t-6.5 -7.5q1 -2 1 -3l90 15 l5 6q-3 10 -15 10q-6 0 -15 -2t-10 -2v8h-35q-5 -7 -20.5 -14.5t-20.5 -15.5zM276 449q2 -4 2 -5l30 -19q2 0 3.5 3.5t3.5 11.5t3 10q1 -3 2.5 -17.5t6.5 -22t16 -7.5l5 15l-11 -4q16 16 16 28q0 6 -10 18q-11 -2 -23 -3.5t-19 -2t-13.5 -1.5t-9 -2t-2.5 -2zM301 161l27 10 h-27v-10zM328 83q0 -2 23 -10t27 -8q12 1 33 12t27 23q-5 -5 -15 -5q-5 0 -18 5t-20 5q-6 0 -26.5 -9.5t-30.5 -11.5v-1zM328 136q4 -1 5 -1q18 0 18 17q-2 0 -4 -0.5t-4 -1.5t-3.5 -2t-3 -2.5l-2.5 -2.5t-3 -3.5t-3 -3.5zM333 55q2 -6 10 -6t10 6h-20zM333 181l26 26 q13 0 14 -5q-1 -8 -1 -21q0 -26 10.5 -38.5t38.5 -12.5q24 0 24 10q0 5 -1 6q-33 3 -45 25t-12 58q0 22 1 33q-19 -18 -37 -42t-18 -39zM353 409l10 5q13 0 29.5 -11t26.5 -14q-1 -1 -1 -3t3 -5t5 -4l3 -2l30 16h-30q7 5 24.5 8.5t25.5 9.5q-2 5 -13.5 19.5t-16.5 15.5 l-5 -2.5t-6 -2.5q-4 0 -15 11h-55q-6 0 -10.5 -13.5t-4.5 -27.5zM409 221q1 -16 8 -33t21 -17q28 0 50 16t22 40q-34 -9 -46 -25h9q0 -1 0.5 -4.5t0.5 -5.5q0 -6 -5 -6h-40v11q7 2 18.5 10t11.5 10q-10 -2 -19 -2q-17 0 -17 9q0 2 3 4.5t7 5t5 3.5l-24 4q-5 -3 -5 -20z M414 257q0 -1 2 -2.5t3 -1.5q6 0 10 4q-5 5 -10 5q-1 0 -3 -2t-2 -3zM418 276q40 0 46 17h-41q-5 -16 -5 -17zM428 358q0 -10 9 -10q6 0 17 7t15 13h-8q-33 0 -33 -10zM429 307q5 0 27.5 12t22.5 14h-2l-48 -5v-21zM435 409q1 1 7 3t7 2h6q-1 -5 -20 -5zM455 136l4 10h-4 v-10zM455 253q4 0 10 0.5t10 1t9 1t8.5 1.5t7.5 2.5t6.5 4t4.5 6t3 7.5t1 10q0 41 -10 41q-5 0 -10 -2.5t-8 -5.5l-6 -6t-4 -5l-1 -2q0 -1 0.5 -1t0.5 -1h28q-5 -8 -18.5 -14.5t-17.5 -13.5h36v-4q-4 -1 -14 -4.5l-20 -7t-12 -4.5zM459 232q1 -1 5 -3t5 -2q11 0 26.5 5.5 t19.5 14.5l-5 6q-3 0 -13.5 -3.5t-22.5 -9t-15 -8.5zM459 343l41 5l5 5q0 2 -2 8t-3 7l-41 -20v-5zM464 384l26 -6v17q-13 0 -26 -11zM469 140q12 6 15 12h-5q-10 0 -10 -12z" />
<glyph unicode="A" horiz-adv-x="563" d="M7 0q0 16 7 38t18 48.5t12 30.5q11 31 27.5 95.5t28.5 96.5q5 15 23.5 58t26.5 72l5 5q1 3 4 18.5t5.5 25.5t8.5 19t15 9q0 16 18.5 76t28.5 68q70 0 86 -7.5t32 -54.5l3 -6q3 -5 6 -11t3 -7q0 -2 -1 -6v-3q8 0 12.5 -15.5t10 -35.5t15.5 -27q-1 0 -4 -2t-3 -3 q0 -7 6.5 -21t6.5 -22h13q-6 -6 -6 -13q0 -5 12 -21.5t12 -21.5q1 -6 4 -25t6.5 -32.5t8.5 -23.5q6 -12 12.5 -18t9.5 -8.5t7 -16.5t8 -43q4 -30 18 -66.5t33.5 -79.5t27.5 -63q0 -20 -33 -20q-11 0 -27 7t-25 7q-5 0 -14.5 -3t-13.5 -3q-5 0 -10.5 12t-13.5 35.5t-11 32.5 q-1 2 -5 12.5t-6 16t-7 16.5t-9 17.5t-10 15.5t-11 14t-12 8.5t-14 3.5q-13 0 -38.5 -3t-38.5 -3q-20 0 -60 3t-65 3q-17 -62 -44 -123q-3 -7 -5.5 -26.5t-8.5 -31t-19 -11.5q-30 0 -66 13zM44 40q0 -15 9 -15q5 0 8 7.5t3 10.5h-8q28 33 31 43h-5l-4 1q-14 0 -24 -16 t-10 -31zM80 132v-4q1 -3 1 -4l38 30h-7l-6 1q-7 0 -13.5 -5.5t-9.5 -11t-3 -6.5zM94 167q25 0 43 25h-7q-14 0 -36 -25zM99 198l1 -6q29 15 37 24q-2 7 -15 7q-23 0 -23 -25zM111 259l1 -5v-7q3 2 14.5 9t17.5 11.5t13.5 12.5t10.5 16h-6q-26 0 -38.5 -7.5t-12.5 -29.5z M124 235h26v24zM130 309q18 6 69 43h-44q-6 0 -10.5 -5.5t-6.5 -11.5t-4.5 -15t-3.5 -11zM155 210q2 -6 9 -6h6q47 0 47 19q0 13 -12 13q-3 0 -22 -9.5t-28 -16.5zM159 363q33 0 45 9.5t19 42.5h-6q-9 -10 -24 -21t-24.5 -18t-9.5 -13zM160 305q10 0 21.5 8t11.5 17l-1 2v2 q-2 -1 -7 -3t-7.5 -3.5t-6.5 -4t-6 -4.5t-3.5 -6t-1.5 -8zM162 395q0 -1 2.5 -3.5t3.5 -2.5q82 48 82 87h-7q-6 0 -32.5 -19t-26.5 -25q8 0 20 3.5t19 3.5q-3 -9 -13.5 -13t-21 -4t-18.5 -6.5t-8 -20.5zM191 465l1 -7q25 7 47 25t34 42l74 25q0 18 -10.5 36.5t-19.5 27.5 l-9 9q-1 0 -5 -0.5t-7 -0.5q-2 0 -16 6.5t-20 6.5q-14 0 -19.5 -34t-11.5 -39h25q-4 -8 -27 -21t-23 -41q0 -13 13 -13q-26 0 -26 -22zM198 281q0 -15 37 -15q19 0 59 3.5t60 3.5q0 17 -16.5 55.5t-16.5 47.5l-48 93q-18 -103 -74 -185l-1 -1v-2zM228 207q20 0 39 21 q-2 0 -7 1t-6 1q-10 1 -18 -5.5t-8 -17.5zM258 201q4 0 12.5 -0.5t13.5 -0.5q50 0 69 28q-5 13 -32 13q-6 0 -17 -10.5t-13 -14.5v12q-33 -14 -33 -27zM286 519q0 -5 6.5 -15.5t10.5 -10.5t12 7.5t19.5 19t18.5 17.5q-45 0 -67 -18zM309 478q0 -5 6.5 -9.5t12.5 -5.5 q-7 -1 -7 -16q0 -22 10 -22q3 0 16 8q0 -7 -3.5 -17t-3.5 -16q7 0 21 3.5t22 3.5q-3 -6 -17 -11.5t-14 -17.5q0 -19 7 -26q37 31 37 62q0 44 -16 44q-7 0 -21 -14l24 25q0 4 -10.5 30t-13.5 26h-6l-43 -43q-1 -3 -1 -4zM351 206q13 0 15 16q-15 -2 -15 -16zM370 343l1 -2 q1 -2 3 -4.5t4 -2.5q6 0 19 3t18 3l-37 -19l-1 -2q0 -5 4 -11t6 -6q15 0 25 13t10 28q0 14 -5 30t-15 16q-7 -9 -24 -37q-8 -8 -8 -9zM371 210h7l5 -1q12 0 31.5 9.5t30.5 9.5q-11 -14 -50 -30q7 -13 20 -13q17 0 27 14.5t10 31.5q0 25 -18 84q-27 0 -39 -31h31v-6 q-2 -2 -14.5 -16.5t-24 -28t-16.5 -23.5zM395 259l14 12q-14 0 -14 -12zM421 173q1 0 3 -3t6 -3q1 1 16.5 3.5t16.5 2.5q-3 -6 -20 -13t-17 -17q0 -14 11 -14q10 0 21.5 18t11.5 29q0 29 -9 29q1 0 -6 -5q-30 -19 -34 -27zM445 111q12 0 28 5.5t16 15.5q0 23 -9 23 q-6 0 -35 -44zM452 93q0 -5 5 -12t10 -7l2 1l32 29v10q-12 0 -30.5 -6t-18.5 -15zM474 61q13 0 27 7l-24 -25q4 -12 36 -12q14 0 14 11q0 17 -20 51q-1 -1 -6.5 -4t-9 -6t-8 -6.5t-7 -7.5t-2.5 -8z" />
<glyph unicode="B" horiz-adv-x="587" d="M61 393q5 35 8 84t6 82t11 49q13 -8 13 -35q0 -9 -3 -27.5t-3 -29.5l6 -21q0 -2 -1.5 -11.5t-3 -28.5t-1.5 -44q0 -4 2 -11t3 -7h31l7 13q-14 109 -14 128q0 16 3.5 30t3.5 20q0 8 -7 13q5 2 14 7t15.5 9t7.5 4q0 -11 7 -14q23 0 68 5q2 1 7 4l5 3q-1 -1 -1 -3 q0 -16 61 -16q5 0 25.5 7.5t20.5 11.5v6l-24 2h-156v2q-8 0 -24 -2t-26 -2q-1 0 -19.5 2.5t-22.5 3.5q0 8 5 16t8 8q1 0 12 -2.5t13 -2.5q11 0 40 6t42 6l4 -2q4 -2 9.5 -3.5t8.5 -1.5l12 7q2 0 13 -3.5t12 -3.5q2 0 15.5 3.5t14.5 3.5q24 0 62 -7t56 -18q30 -18 52 -79.5 t22 -104.5q0 -35 -44 -105q8 -9 24.5 -23.5t25.5 -24t16.5 -30.5t7.5 -49q0 -5 4 -15t4 -22q0 -29 -9 -54.5t-25.5 -45.5t-30 -32.5t-32 -26.5t-21.5 -17q-8 -9 -45 -9h-21q-2 0 -9 -2.5t-24.5 -4.5t-42.5 -2q-1 0 -13 6q-24 0 -70 -3.5t-69 -3.5l-27 1l-12 12v382 q-7 7 -7 13zM90 380q0 -2 4 -8.5t4 -9.5q0 -10 -3 -29t-3 -43q0 -16 3.5 -49t3.5 -50q0 -14 -1 -21l6 -5q-7 -2 -7 -18q0 -11 3.5 -24t3.5 -21q0 -6 -3.5 -19.5t-3.5 -30.5q0 -28 7 -35l38 5v7h-18q0 6 6 14.5t6 12.5q0 19 -25 28q3 1 6 4.5t5 7.5l1 3q0 3 -4.5 9t-7.5 7h13 q0 7 -3 21.5t-3 21.5q0 1 2.5 6t2.5 16q0 8 -2 16t-2 15l3 -3q7 5 7 12v81q43 24 68 55l-12 12q-10 5 -42.5 9.5t-51.5 4.5q-1 -1 -1 -2zM147 141q0 -35 14 -57q4 0 12 0.5t12 0.5q22 0 66 -4t66 -4q91 0 103 44q6 32 6 77q0 31 -9.5 50.5t-29.5 27.5t-36 10t-44 2 q-94 0 -146 -19q-14 -3 -14 -128zM153 545q0 -24 4 -70.5t4 -68.5q14 -15 47 -15h10h17t21.5 0.5t24.5 1.5t25 3t25 5t22.5 8t19 11t12 15t4.5 19l-3 6q-4 6 -4 7t3.5 6t3.5 6q0 23 -26 62q-16 23 -103.5 27t-93.5 16q-13 -13 -13 -39zM154 41q7 0 25 6h-25v-6zM161 14 q11 0 28.5 7.5t20.5 7.5q1 0 12 -3.5t12 -3.5h4q2 0 8 7t7 12q8 -24 12 -24h49l6 -7l8 12q6 -1 16 -1q8 0 20 7l12 6q64 19 91 46t27 90q0 15 -13.5 70.5t-23.5 60.5q-1 0 -7 1.5t-12 2.5l-5 1q-6 2 -12 6t-13.5 5.5t-24.5 1.5q-13 0 -13 -7q12 -8 43 -11q-1 -1 -1 -3 q0 -7 15.5 -19.5t16.5 -15.5q1 -1 9 -20t10 -23q-14 -9 -14 -17q14 0 14 -7q0 -5 -4.5 -17.5t-7.5 -13.5l6 -7l24 12q0 -7 -12.5 -15t-12.5 -28q0 -2 0.5 -9.5t0.5 -8.5q0 1 4.5 3.5t6.5 2.5t5 -2t3 -4q-10 -8 -37 -8q0 -10 -6 -24q-56 -25 -103 -25q-14 0 -18 4l-3 4 q-2 0 -13 -4l-11 -3q-24 -2 -69 -2v-10q-5 0 -30 -6.5t-25 -12.5v-8zM172 306q66 28 87 43l-31 -31v-7q12 0 19 3.5t9.5 8t7.5 11t13 10.5q4 2 25.5 6t30.5 18q0 1 -2 3.5t-3 2.5q-5 0 -18 -4.5t-14 -7.5q-10 0 -23 -1t-40 -5.5t-44 -17.5t-17 -32zM277 318q2 0 8.5 -0.5 t7.5 -0.5q32 0 46 32q0 -7 -4 -15.5t-4 -11.5q16 0 40 13t24 24q0 2 -14 8.5t-18 6.5q-6 0 -34 -18t-52 -38zM326 579q28 0 37 24l-3 1h-5q-29 0 -29 -25zM357 571q50 0 50 9t-9 16.5t-16 7.5q-10 0 -17.5 -11t-7.5 -22zM376 559q9 -6 14 -6q6 0 23 12q-1 0 -5.5 0.5 t-6.5 0.5q-18 0 -25 -7zM389 373q15 0 32 7.5t17 21.5v2l-1 2l-48 -26v-7zM391 528q11 0 29 -5l-7 -7h3q3 -1 4 -1q9 0 13 8q0 -9 -10 -21.5t-10 -22.5q0 -2 5 -5t10 -5l5 -2q-13 -5 -20 -13q8 0 16.5 3t14.5 3l-31 -30q1 -7 11 -7q7 0 12.5 0.5t9 1t6 3l3.5 3.5t1.5 5 t0.5 6.5v8v9.5q0 27 -9 63t-28 36q-10 0 -19.5 -10.5t-9.5 -20.5zM401 399q14 7 19 12h-19v-12z" />
<glyph unicode="C" horiz-adv-x="567" d="M23 275q0 157 98 270.5t251 113.5q26 0 36 -0.5t37 -2.5t40 -7.5t30.5 -15.5t25 -27t7.5 -40q0 -7 -4 -16t-11 -9q-17 0 -61 15.5t-69 15.5q-57 0 -139 -31q-130 -48 -130 -272q0 -2 0.5 -12.5t0.5 -12.5q6 -2 9.5 -16t5 -30.5t3.5 -20.5q48 -111 257 -111 q27 0 69.5 18.5t50.5 18.5q18 0 18 -24q0 -29 -5.5 -52.5t-13.5 -23.5q-4 0 -11 1h-7q-106 -19 -167 -19q-4 0 -12 0.5t-12 0.5q-3 -5 -15.5 -9t-21.5 -4q-106 8 -183 101t-77 201zM52 287q0 -25 13 -25q12 0 39 31h-52v-6zM60 318v-5q1 -5 1 -6q52 32 52 51 q-28 0 -40.5 -7.5t-12.5 -32.5zM61 226q0 -6 2.5 -15.5t3.5 -9.5h12l32 31v7q-50 0 -50 -13zM67 244q15 0 22 1t14.5 6.5t7.5 17.5q0 2 -4.5 4.5t-5.5 2.5q-9 0 -21 -10.5t-13 -21.5zM72 307q2 0 8 -0.5t9 -0.5q23 0 23 16q0 8 -1 10q-27 -11 -39 -25zM72 368h4q13 0 20 1 t13.5 6.5t6.5 17.5q0 1 -2 3.5t-3 2.5q-14 0 -39 -31zM72 387l39 24v6h-32q-7 0 -7 -22v-8zM79 186q0 -3 6.5 -22t7.5 -19q7 0 18 8q-7 -5 -7 -13q0 -15 4.5 -27.5t14 -22.5t18 -16.5t24.5 -13.5t24.5 -10t26.5 -8.5t23 -7.5h1q2 0 18 7q-1 -12 39.5 -18t65.5 -6 q40 0 85.5 6.5t62.5 17.5v19q-83 -26 -123 -26q-12 0 -57 7q-14 3 -93.5 26.5t-84.5 23.5l12 11q-3 7 -7 7q-2 0 -6 -1t-6 -1q0 12 -0.5 16.5t-6 10.5t-17.5 6q9 5 13 18q-17 0 -17 22h-20q4 3 10.5 5.5t10 5t3.5 5.5q0 12 -6 24q-10 -2 -23.5 -13.5t-13.5 -20.5zM97 457 q0 -1 1 -1v-2q1 1 7 3.5t9.5 4.5t8 5t7 6.5t2.5 7.5q-11 0 -23 -7.5t-12 -16.5zM104 436q2 -2 9 -2q10 0 16.5 6.5t6.5 16.5v1l-1 2q-12 -3 -31 -24zM116 484q13 9 28.5 14.5t20.5 8.5t9 15t4 37l-62 -61v-14zM195 557q10 0 19 9.5t9 19.5q-12 0 -20 -8t-8 -21zM222 559 q18 18 18 22v1l-1 2zM258 597l6 -13q49 35 49 37h-11q-8 0 -26 -10.5t-18 -13.5zM277 572q22 1 43 31h-3q-14 0 -40 -31zM325 627q0 -8 14 -19l18 19h-32zM344 597l3 -1h4q11 0 19 19l-3 1h-4q-9 0 -19 -19zM382 620q8 0 12 7h-12v-7zM388 603q5 -1 6 -1q8 0 13 8t5 17z M424 614q9 0 16 4t7 11q-4 0 -8 -2.5t-6.5 -5l-5 -5t-3.5 -2.5zM435 591q11 0 18 9t9 21l-3 1q-9 0 -16.5 -11.5t-7.5 -19.5zM467 608h12q-6 -10 -6 -21q9 0 17.5 6t8.5 15t-6.5 14.5t-15.5 5.5q-3 0 -6.5 -7.5t-3.5 -12.5zM505 581q0 -10 13 -10v32q-13 -8 -13 -22z" />
<glyph unicode="D" horiz-adv-x="665" d="M63 106q0 41 4 125t4 127q0 12 -4 36t-4 37q0 25 7 72.5t7 70.5q0 9 -3 26.5t-3 26.5q0 27 247 27h55q51 -6 119 -44t84 -69q28 -19 52 -88t24 -113q0 -106 -57 -201q-2 -2 -5 -11t-7.5 -14.5t-11.5 -5.5l5 -6l-12 -7l7 -4q-16 -23 -58 -39.5t-77 -23.5q-40 -4 -315 -25 q-11 -1 -22.5 -7t-19.5 -6q-15 0 -15 13q0 8 -0.5 52t-0.5 51zM89 102q0 -4 7 -18q0 -13 5 -43q98 0 112 -7q0 7 6 13q4 0 12 -3t13 -3q26 0 77.5 9t77.5 9h37q15 15 50 15q0 6 -15 10q45 0 69 18q-1 1 -6.5 4.5t-15 7t-18.5 3.5q-5 0 -24.5 -16t-21.5 -17q-15 -6 -39 -10 t-37.5 -5t-47.5 -2t-38 -1q-56 -7 -92 -7q-75 0 -79 18q0 1 -0.5 10.5t-0.5 11.5q0 14 2.5 25t2.5 15q0 19 -11 25q5 2 8 19t3 24q0 11 -2.5 29.5t-2.5 27.5q0 10 3 17t3 12q0 24 -29 24q0 -82 -8 -110l7 -6v-43q-2 0 -4.5 -2.5t-2.5 -3.5q0 -2 3.5 -13t3.5 -12t-3.5 -12 t-3.5 -13zM92 467h41q0 8 -6.5 22.5t-6.5 23.5q0 6 3 16t3 17q0 19 -5 26q-25 -10 -25 -50q0 -4 3 -12t2 -18t-9 -25zM93 454q0 -23 4.5 -65.5t4.5 -63.5h23v73q0 8 -8 14t-16 8h33q0 3 -3 18.5t-6 15.5h-32zM100 575q16 0 56 15.5t51 24.5h-35h-11.5h-12t-10.5 -0.5 t-10.5 -1.5t-9 -3t-8 -5t-5.5 -7t-4 -10t-1 -13zM150 221q0 -123 7 -126l12 -4q18 -3 59 -3q62 0 102.5 3.5t91.5 23t81 55.5l2 -1q15 0 31 67t16 98q0 26 -19.5 85.5t-35.5 64.5q-1 0 -11 1.5t-13.5 4.5t-3.5 10q0 6 2 10q-10 5 -26 15t-28 18.5t-13 9.5q-91 31 -136 31 q-23 0 -62 -6t-42 -13l-7 -12q0 -55 -3.5 -165.5t-3.5 -166.5zM262 621q3 -6 17 -9.5t20 -3.5q7 0 43 18h-6q-6 0 -37 -2t-37 -3zM336 608q9 -11 35 -11q3 0 10.5 3.5t10.5 7.5q-3 7 -13 7q-11 0 -18 -7v14q-3 0 -12.5 -4.5t-12.5 -9.5zM385 589q18 -11 45 -11q0 -20 27 -20 q13 0 14 7v-19h32l-13 -12q5 1 27 -20t22 -26h13l-12 -15q6 -8 11 -19.5t10.5 -20.5t14.5 -16q-13 0 -13 -11q0 -9 4 -13t9 -3.5t9 -2.5t4 -12q0 -1 -7 -4.5t-7 -4.5t1 -1q0 -17 15 -17q24 0 24 11q0 2 -20 12h32v9l-25 13q2 0 4 3.5t2 5.5q0 4 -13 8q13 8 13 20t-13 12 q-11 0 -18 -6q5 5 12 18q0 13 -5 26.5t-16.5 28t-18 22t-23 23.5t-18.5 18h-5q-2 1 -12 3.5t-19 5t-12 3.5q0 9 -20 13.5t-30 4.5q-20 -7 -25 -13zM503 127q6 -7 21 -7q22 0 40.5 14t18.5 36q0 7 -2 10t-10 3q10 0 18.5 4.5t13 12.5t4.5 19q0 2 -1 3.5t-3 2.5t-4.5 2l-5 2 t-5.5 1.5t-5 1.5q3 1 11 6.5t14 5.5q4 0 6 -1q6 28 6 40q-44 0 -44 -14l7 -11q-1 -3 -5.5 -8.5t-6.5 -6.5l5 -5q-9 0 -12.5 -9.5t-4 -23t-1.5 -16.5q0 -2 -6.5 -8.5t-6.5 -7.5q0 -3 1 -3zM533 152q0 2 12 2q13 0 13 -2q-3 -3 -12 -3q-13 0 -13 3zM573 286q56 0 56 64 q-21 0 -38.5 -21.5t-17.5 -42.5zM576 435l1 1z" />
<glyph unicode="E" horiz-adv-x="518" d="M63 389v265h124q19 -7 56 -7q12 0 18 7q30 0 78 3t52 3q13 0 79 -6q4 -2 8 -13q0 -14 -4.5 -29t-4.5 -27q0 -1 0.5 -5t0.5 -6l-24 -6q-42 3 -85 3q-111 0 -198 -22q-8 -17 -8 -39q0 -10 4 -31t4 -32q-5 -41 -7 -58l12 -12l14 -1q14 -1 18 -1q25 0 46.5 4t26.5 4 q8 -8 10 -8q8 0 8 10h112q8 -11 12 -21l12 6q-6 -6 -6 -26q0 -37 1 -42l-13 -11q-69 0 -235 -8q-1 0 -4.5 0.5t-5.5 0.5q-8 0 -8 -6v-186l7 -11q1 -2 37.5 -4.5t63.5 -2.5q12 0 48.5 9t52.5 9q44 0 50 -6l7 -5q1 6 11 6q1 0 5 -0.5t8 -0.5l-11 -5l3 1h5h6h4q13 0 17 -8 q1 0 6.5 3.5t6.5 3.5q14 -9 14 -32q0 -58 -14 -73q-2 0 -14 -0.5t-13 -0.5q-45 0 -78 16h-258q-43 0 -50 21q0 30 3 91t3 91q0 140 -13 195zM88 593q10 0 32 12l-14 -25h7q8 0 43.5 16t36.5 21q-16 7 -50 7q-48 0 -48 -1zM93 548q19 0 31 20h-4q-27 0 -27 -20zM94 491v-5 l1 -4q17 14 23.5 24t6.5 28q0 1 -0.5 7.5t-0.5 7.5q-3 -3 -10.5 -8.5t-13 -9.5t-5.5 -6q0 -8 16 -8q2 0 5 0.5t4 0.5q-4 -5 -15 -10.5t-11 -16.5zM95 399q10 0 24 13t14 25q0 2 -7.5 4.5t-12.5 2.5q-18 0 -18 -5v-40zM99 353q0 -8 7 -27l32 32v8q-39 0 -39 -13zM100 457 q25 0 29.5 4.5t4.5 27.5q-17 0 -34 -32zM103 142l1 -12h9q2 0 6.5 10.5t4.5 15.5q0 18 -6 18l-1 -1q-14 0 -14 -31zM105 258q12 0 16 3.5t4 14.5l-1 7q-19 -16 -19 -25zM105 376q33 0 33 26q-12 0 -22.5 -7.5t-10.5 -18.5zM106 35q0 -4 7 -11q27 27 27 32h-16v11 q-4 -2 -18 -30v-2zM106 73q15 0 15 19h-15v-19zM106 234q0 -5 7 -12q8 3 8 20q-15 0 -15 -8zM106 295q21 0 21 15q-21 0 -21 -15zM110 182q15 0 15 29q-15 0 -15 -29zM131 24q12 0 17.5 3.5t14.5 15.5q-17 -7 -32 -19zM137 326h37v-11q12 0 26 6.5t14 17.5h-70q-7 0 -7 -13z M174 24q1 0 3.5 -0.5t3.5 -0.5q9 0 12 8h-3q-9 0 -16 -7zM205 589q0 -2 3 -2q11 0 11 11l-1 7q-4 -1 -7.5 -5t-4.5 -8zM216 309q16 0 35.5 11.5t27.5 25.5q-1 0 -7 0.5t-7 0.5q-18 1 -33.5 -10.5t-15.5 -27.5zM218 24q1 0 8.5 -0.5t9.5 -0.5q31 0 37 20l-5 1h-7 q-30 0 -43 -20zM248 617h7v6zM267 315h31q7 0 7 31h-7zM298 24q11 0 24 19q-2 1 -3 1q-6 0 -21 -20zM341 31q25 0 37 12v-12l49 19h-62zM341 50q16 0 19 6h-6q-10 0 -13 -6zM341 322h50q-11 13 -19 30q-22 -7 -31 -30zM364 623q0 -13 16 -13q30 0 30 20h-45q-1 -3 -1 -7z M397 14q25 0 38 23h-8q-5 0 -17.5 -5t-12.5 -8v-10zM439 6q27 0 27 44h-27v-44z" />
<glyph unicode="F" horiz-adv-x="495" d="M66 630q0 21 14 24q1 0 15 -3t15 -3q8 0 14 6v-5q48 0 145.5 5.5t146.5 5.5q71 0 71 -30v-63q0 -5 -11 -5q-26 0 -77.5 2.5t-77.5 2.5q-7 0 -20 -2.5t-21 -2.5q-2 0 -16 1.5t-28 2.5t-29.5 1t-25 -4.5t-9.5 -13.5v-81q-1 0 -3 -4.5t-2 -6.5q0 -76 11 -87q42 -7 120 -7 q12 0 34 0.5t32 0.5q1 0 20.5 -10t23.5 -10q1 0 7 4t11 4t5 -7q-7 -9 -10 -15.5t-3.5 -10t-1.5 -12.5t-3 -17q-3 -14 -71 -14q-26 0 -69.5 10t-69.5 10q-8 0 -12.5 3t-5.5 3q-16 0 -20.5 -5t-4.5 -22q0 -26 3 -70t9 -45v-172q0 -13 -18 -13q-8 0 -12 6q-1 0 -10 -3t-21.5 -6 t-22.5 -3q-5 0 -13 9.5t-8 14.5q0 27 6.5 85t6.5 86v52l-6 6v394q-8 2 -8 14zM91 616q0 -8 8.5 -14.5t17.5 -9.5q-6 0 -9.5 -0.5t-6 -2t-3 -3.5t-0.5 -6q0 -5 3.5 -17t3.5 -19v-11v-10.5t1 -9t3 -9.5t5.5 -7.5t9.5 -8.5h-20q10 -20 9.5 -25.5t-5.5 -13.5t-5 -16q0 -2 2.5 -9 t2.5 -9q-11 -1 -11 -17t10 -16q1 0 2 0.5l1 0.5q0 -2 -4 -5t-4 -4l2 -4q12 -6 29 -6q2 0 4.5 1.5t5 4t4 4.5t1.5 3q0 6 -9.5 17t-14.5 13q6 -2 8 -2q10 0 10 15q0 8 -3.5 15t-3.5 9q0 14 10 45t10 47q-19 0 -38 7q0 8 31 8v28q-17 0 -20 8q9 0 11.5 2t2.5 8q0 12 -7 14l7 5 h-51zM97 359q0 -21 13 -21q14 0 25 14q-14 7 -38 7zM98 306l0.5 -1.5t0.5 -2.5q1 -8 12 -12t20 -4q0 9 -4 17t-4 16q0 7 6.5 10t6.5 8q-1 1 -1 2q-1 0 -7.5 -3t-10 -5.5t-9 -6t-8 -8.5t-2.5 -10zM102 177q0 -70 33 -81h-25v-59l7 -6q-8 -4 -8 -28q26 0 34 15.5t8 43.5v28 q0 30 -3 34l-20 8h22q0 1 0.5 3t0.5 3q0 7 -4.5 32.5t-4.5 38.5q-22 15 -39 15q0 -6 -0.5 -22t-0.5 -25zM103 277q0 -15 0.5 -21.5t3.5 -14.5t10.5 -10.5t20.5 -2.5q0 16 -5.5 27.5t-5.5 21.5h-24zM108 415q2 -2 5 -2q2 0 4 1q-3 1 -7 1h-2zM124 407zM144 341 q0 -9 3.5 -12.5t9.5 -6.5t10 -7q56 0 67 18q-6 -1 -16 -1q-15 0 -37.5 4.5t-36.5 4.5zM185 587q3 -1 8 -1q10 0 10 11q0 12 -6 14q-8 -4 -12 -24zM240 321h31q0 8 -3 10.5t-9 2.5q-10 0 -19 -13zM277 315q6 -7 20 -7q8 0 12.5 1.5t7 5t3.5 8t1 11.5q-33 0 -44 -19zM283 611 q0 -7 12 -7q11 0 39 19h-43q-2 0 -5 -5t-3 -7zM339 307q38 0 38 19h-38v-19zM376 611q0 -1 2.5 -3.5t3.5 -2.5l10.5 4t16 9t5.5 12h-32l-1.5 -3.5t-3 -8.5t-1.5 -7zM431 605q0 -4 10 -7t23 -3q0 12 -2.5 17t-11.5 5q-12 0 -19 -12z" />
<glyph unicode="G" horiz-adv-x="627" d="M28 272v135q9 10 16 52t15 54q102 155 329 155q75 0 75 -20h35q1 -7 21 -7l7 -3q8 -2 17.5 -6.5t14.5 -8.5v-1l-1 -2q0 -4 4.5 -6.5t4.5 -25.5q0 -45 -19 -45q-30 0 -87.5 12.5t-86.5 12.5q-32 0 -92 -25q-149 -60 -149 -260q0 -49 11.5 -93t41 -80t72.5 -43 q111 -12 153 -12q5 0 28.5 0.5t27.5 0.5q17 11 17 55q0 21 -11 80q-5 22 -29 22q-2 0 -6.5 -0.5t-7.5 -0.5q-18 0 -28 11.5t-10 47.5q0 38 18 38q4 0 7 -1h112q49 0 49 -12v-246q0 -37 -31 -53t-71 -16q-5 0 -12 3.5t-10 3.5q-21 -17 -98 -17h-19.5h-21.5t-19.5 0.5t-21 1.5 t-18.5 2.5t-18.5 4t-15 6t-14.5 8.5q1 1 -6 7.5t-18 15.5l-22 18t-20 15t-11 6q-9 0 -15 -6q0 7 -39.5 67.5t-41.5 80.5q-1 5 -1 14q0 6 0.5 15.5t0.5 13.5q0 17 -6 31zM46 326q9 -1 9 -11q0 -3 -1 -10t-1 -10q0 -13 17 -13q8 0 13 1q-3 -5 -17.5 -9.5t-14.5 -14.5 q0 -5 4.5 -15t4.5 -20q0 -8 -0.5 -22.5t-0.5 -15.5q4 -2 6.5 -9t3.5 -14t2 -8q2 -4 13.5 -15.5t11.5 -12.5l-1 -3q9 -8 30 -33t40 -40t40 -15q2 0 14 7q-1 1 -3 4l-3 3q-14 7 -14.5 14t-3.5 10q-11 11 -21 12t-17 13q-8 13 -31.5 65.5t-23.5 63.5q0 1 3 3.5t3 5.5 q0 10 -13 28l13 7v43q0 7 -32 7l7 4l-7 8h32v14l-6 16q-14 9 -14 21q-42 0 -42 -8v-51zM51 414q0 -18 14 -18h44q0 16 -19 30h3l5 -2q4 -1 9 -2.5t8 -1.5q-5 9 -5 13t8.5 6t8.5 7q0 6 -4 13.5t-4 12.5l1 4v6l19 -19q4 2 18 30q-14 7 -18 13q7 1 7 14q0 3 -0.5 6t-0.5 5t-1 4 v2q13 -19 25 -19q5 0 8.5 3t6.5 9t4.5 11t3.5 12t3 9q4 -15 12 -19q6 3 6 12q0 17 -14 28q0 1 0.5 2t0.5 2l19 -13l7 6l-7 31q-10 -4 -16 -11t-8.5 -13t-6.5 -19q-3 12 -12 19q-34 -25 -34 -31q0 -1 11 -4t11 -4l-2 -2q-1 -2 -1 -3h-35q-3 0 -17 -14.5t-19 -22.5 q-4 -4 -14 -27t-18 -44t-7 -21zM213 24q8 -12 29 -12q9 0 13 8t7 11q-2 6 -15 6q-29 0 -34 -13zM237 600q0 -33 9 -33q13 0 22 13q-16 20 -31 20zM243 617q3 -3 8 -7t10 -7.5t7 -4.5q13 22 13 38q-30 -8 -38 -19zM267 8q19 0 26.5 5.5t7.5 22.5q-19 0 -26.5 -6t-7.5 -22z M281 579q9 0 17 6.5t8 15.5q0 30 -10 30l-3 -1q-12 -38 -12 -51zM305 11q0 -7 38 -7q0 28 -30 28q-2 0 -4.5 -7.5t-2.5 -12.5zM310 636q0 -7 7.5 -16.5t10.5 -9.5q9 0 9 26h-27zM347 25q0 -19 18 -19q19 0 27 6h67l7 7q-75 5 -105 5q-1 0 -7 0.5t-7 0.5zM354 605h20 q-7 21 -13 25q-7 -10 -7 -25zM392 630l6 -13q7 2 7 13h-13zM416 253q0 -5 10 -5q6 0 28.5 12.5t28.5 17.5h-54zM427 598h15q0 12 -7 19q-8 -3 -8 -19zM441 241l3 -1q3 0 28 19h-3q-13 0 -28 -18zM472 248h3l3 -1q8 0 21 5.5t21 5.5q0 -7 -9.5 -20t-9.5 -22h37 q0 -11 -15.5 -25.5t-15.5 -23.5h20q-2 -4 -11.5 -9t-9.5 -14q47 0 46 118v10l-6 6h-48zM478 24q7 -6 21 -6q35 0 41 13q-13 6 -32 6q-20 0 -30 -13zM498 186h11l18 24h-2q-27 0 -27 -24zM498 587q6 -8 39 -8q0 7 -8.5 17.5t-10.5 10.5q0 1 -4.5 -3t-9.5 -9t-6 -8zM508 59 q0 -2 14 -9t18 -7q9 0 9 26q-41 0 -41 -10zM509 110q32 0 37 33q-21 0 -31 -13l13 1l-6 -8l-13 -2v-11zM515 86h31v25l-31 -12v-13z" />
<glyph unicode="H" horiz-adv-x="709" d="M59 594q0 5 0.5 27.5t0.5 26.5l7 5h74l14 -12q0 -1 -4 -5t-4 -7q0 -15 6.5 -48t6.5 -44q0 -3 0.5 -26t0.5 -39v-20.5t-0.5 -19t-0.5 -15v-10.5v-4q0 -9 7 -9q1 0 4 0.5t5 0.5q12 0 39 -3.5t55 -3.5q16 0 40.5 3.5t27.5 3.5q16 0 45.5 -3.5t44.5 -3.5q52 0 114 20 q0 4 0.5 31t0.5 33q0 24 -4 72t-4 73q0 12 0.5 17.5t4.5 9.5t7 5t15.5 4.5t22.5 6.5q9 0 19.5 -10t18.5 -10q0 -7 -8 -11v-30q0 -22 9.5 -64t9.5 -60q0 -1 -3 -10l-3 -9q0 -15 3.5 -39t3.5 -35q0 -6 -0.5 -14.5t-0.5 -9.5q6 -1 10 -53t4 -78q0 -23 -7 -24v-203q0 -7 -14 -7 t-50 9t-41 10q-10 1 -10 60q0 13 0.5 45.5t0.5 49.5v12q0 30 -0.5 43t-4 30t-9.5 22t-20 11.5t-32.5 8t-48.5 1.5q-4 9 -10 9q-2 0 -5 -4.5t-3 -7.5h-81l-153 11l-13 -8q-1 -31 -1 -42q0 -44 7 -133t7 -134q0 -11 -19 -11q-37 0 -68 37q-6 134 -6 506q-8 27 -8 76zM79 623 q0 -5 4 -13.5t9 -10.5l18 24q0 7 -15 7q-16 0 -16 -7zM85 260q12 -32 12 -46q0 -2 -2.5 -6t-2.5 -5v-43q0 -6 11.5 -9.5t17.5 -3.5v25l-11 -5q12 18 15.5 27.5t3.5 30.5t-9 35q0 9 15 24q-35 -5 -50 -24zM85 426q0 -20 7 -31q3 2 10.5 7.5t9.5 7.5l6.5 6.5t6.5 9.5t3 12 q-1 0 -7 0.5t-7 0.5q-29 0 -29 -13zM85 481q0 -12 10 -12q3 0 9 5.5t10.5 12t9.5 12.5l4 6q0 7 -7 7q-14 0 -25 -8.5t-11 -22.5zM85 537q25 22 25 37q-25 -9 -25 -37zM89 92q35 0 35 47q-25 0 -30 -6.5t-5 -30.5v-10zM91 324q0 -2 0.5 -8t0.5 -7l36 37v6q-17 -1 -27 -10.5 t-10 -17.5zM92 20q38 0 38 80l-5.5 -3t-12 -7t-11.5 -8t-5 -7q0 -1 1 -1l6 -12l-11 -7v-35zM92 364q0 -1 5 -6q1 0 5.5 0.5t8 1t8 1.5t7 3.5t2.5 5.5q0 22 -7 38q-23 -20 -29 -44zM96 292l7 -8q23 0 39.5 26.5t35.5 27.5v-13q30 0 55 13v-6q23 0 37 14q-7 -14 -7 -21 q8 0 25 13q0 -11 7 -11q3 0 10 2.5t8 2.5v-14q67 0 111 52q-7 7 -18 7q-41 -6 -44 -39h-5v26q-10 -14 -25 -18l12 24q0 2 -6.5 7t-10.5 5q-1 -4 -3.5 -8t-6.5 -7.5t-7.5 -6t-8.5 -5.5t-6 -4q-5 13 -31 13v7q-5 0 -12.5 -3.5t-11.5 -3.5q-6 0 -8.5 3t-4.5 3q-30 0 -71 -25 t-59 -50q-1 -2 -1 -3zM97 592q3 -7 13 -7q18 0 18 15q0 18 -7 23q-2 -5 -8 -12.5t-11 -12.5zM103 456h25l7 30h-7q-18 -26 -25 -30zM103 522h5h5.5h4.5t4 0.5t3.5 1t3.5 1.5l2.5 2.5t2 3.5t1 4.5t0.5 5.5q0 15 -14 20q-18 -33 -18 -39zM388 320h5q15 0 22.5 1t14.5 7t7 18 l-1 6v6q-28 -11 -48 -38zM455 336q1 -8 1 -9q51 24 51 51q-6 0 -14 -4.5t-13 -4.5q-9 0 -13 8q-12 -23 -12 -41zM479 320h31q2 0 8.5 16t6.5 23q0 8 -8 11q-3 -6 -20.5 -23.5t-17.5 -26.5zM536 334q7 5 15 13t13.5 15.5t9.5 13.5l5 6h-3q-40 0 -40 -48zM542 246 q0 -4 3.5 -14t3.5 -13q18 0 42 52q-1 0 -6 0.5t-6 0.5q-12 0 -24.5 -7t-12.5 -19zM550 158q15 0 38.5 15.5t23.5 30.5q-62 0 -62 -46zM554 66q0 -30 16 -30q10 0 23.5 13.5t16.5 24.5q-9 0 -27 -4t-29 -4zM554 121q0 -10 6 -28q12 0 26.5 14t23.5 29h-7q-49 0 -49 -15z M560 142q56 0 56 30v7l-1 6q-23 -9 -55 -43zM560 580q3 -1 8.5 -14.5t10.5 -13.5q1 0 3 1q-12 -10 -15 -16l-1 -2q0 -7 6 -10q26 2 26 64v7q0 25 -5 30t-33 5v-51zM567 79h12q31 0 31 7v32q-41 -35 -43 -39zM567 202q19 0 37.5 13.5t18.5 30.5q0 16 -8 25q0 -2 -24 -31.5 l-24 -29.5v-8zM567 444q0 -1 2 -3.5t3 -2.5q4 0 9.5 3.5t10.5 9t6 5.5q-1 0 -5.5 0.5l-4.5 0.5q-16 0 -21 -13zM570 472q15 0 20 0.5t9.5 5t4.5 15.5q0 16 -6 32q-28 -23 -28 -53zM572 290q3 -7 15 -7q18 0 27 6t9 23q0 8 -8 8q-13 0 -43 -30zM572 332q20 0 29.5 5.5 t9.5 22.5q0 2 -0.5 9t-0.5 8q-38 -26 -38 -45zM579 413q1 -6 12 -6q4 0 7.5 1t6 2.5t4 4.5t2 5t1 6.5t0.5 6.5v7q-11 0 -33 -27zM582 553q2 1 3 2q-2 -2 -3 -2zM598 36q13 0 13 15q-12 0 -13 -15z" />
<glyph unicode="I" horiz-adv-x="278" d="M57 646q0 12 74 12q37 0 37 -18q0 -6 -13 -19q0 -33 9 -102t9 -102q0 -6 -2.5 -14.5t-2.5 -15.5q5 -50 5 -69v-332q0 -8 -5 -13q-18 0 -31 19l-6 -6h-50l-6 6v74q0 2 -3 13t-3 12q0 3 3 36.5t3 37.5q0 36 -3 159t-3 130q0 3 0.5 10t0.5 12l-6 68q-7 67 -7 102zM88 615 q0 -13 6 -25l11 7v-7q0 -2 -11 -24q4 -1 6 -1q32 0 32 27q0 30 -26 30q-18 0 -18 -7zM93 81q0 -3 0.5 -20t0.5 -20q4 -12 9.5 -15.5t18.5 -3.5h22q6 19 6 39q0 6 -3 13t-3 10q0 2 3 10.5t3 21.5q0 25 -10 25q-1 0 -10 -5.5t-11 -8.5q2 3 9 11t13 17t8 15h-48q0 -15 -4 -44 t-4 -45zM93 538q0 -2 2.5 -6t4.5 -4q10 0 18 11.5t8 20.5q-9 0 -21 -7t-12 -15zM94 349q17 5 33.5 22.5t16.5 34.5q0 6 -13 6q-9 0 -19.5 -3.5t-11.5 -9.5zM94 479q0 -8 3 -19.5t6 -11.5q13 0 23.5 17.5t10.5 32.5q0 6 -15 6q-20 0 -24 -4t-4 -15v-6zM100 297q0 -16 9 -16 q10 0 21 13t11 24h-36q-5 -5 -5 -21zM104 208h8l32 31v6q-24 0 -32 -7.5t-8 -29.5zM104 516h27v25q-2 -2 -14.5 -11t-12.5 -14zM105 258l7 -7l32 7v35q-25 -10 -39 -35zM105 336q0 -7 41 -7q0 39 -9 39zM105 424h14q26 0 26 17q0 18 -8 19q-29 -25 -32 -36zM110 181 q23 0 31 5.5t8 27.5l-3 4q-3 3 -6 3q-10 0 -20 -15t-10 -25zM112 96q9 7 19 7q1 0 3 -0.5t3 -0.5q-4 0 -13.5 -3t-11.5 -3z" />
<glyph unicode="J" horiz-adv-x="281" d="M7 -111l19 5q18 4 40 15.5t28 28.5q0 4 0.5 26.5t0.5 26.5q0 22 -4.5 65t-4.5 64q0 42 8 71l-7 450q0 11 13 19q4 -1 30 -1q20 0 33 4t20 4q5 0 10 -7t5 -12q0 -2 -3 -13t-3 -12v-53q0 -49 6 -89q-6 -7 -6 -20q0 -2 0.5 -6.5t0.5 -7.5q0 -6 -1 -8q0 -3 -6 -25.5t-6 -25.5 q0 -4 4 -13.5t4 -21.5q0 -11 -4 -15t-4 -5l4 -5q3 -6 3 -7q0 -4 -4 -18.5t-4 -36.5q0 -59 13 -62v-105l-5 -7l5 -7q0 -1 -1 -8.5t-2.5 -16.5t-1.5 -11v-6q5 -25 5 -43q0 -54 -13 -89.5t-32 -48.5t-37.5 -18.5t-32.5 -6.5t-14 -4h-56v56zM86 -125q0 -1 1 -1q3 0 11.5 4t20 9 t18.5 7q-2 0 -8 0.5t-7 0.5q-36 0 -36 -20zM105 630q0 -28 14 -28q5 0 11 3q-1 -4 -4.5 -11.5t-6 -13t-2.5 -6.5h17q0 -5 -10 -16t-12 -22h7l36 38v-12l-36 -50v-13q56 0 56 37q0 15 -6.5 51.5t-6.5 42.5l-56 11v-6zM116 102q22 0 39 22q-1 0 -7 0.5t-7 0.5q-15 0 -20 -4.5 t-5 -18.5zM116 226q25 0 34 32t9 65q-6 0 -12 -4t-9.5 -8.5t-8 -11.5t-5.5 -9q5 -9 25 -13q-33 0 -33 -51zM116 398q10 0 25 10.5t15 19.5l-1 3q-17 -1 -24 -3t-11 -8.5t-4 -21.5zM117 170q27 0 40.5 22.5t13.5 51.5q-15 0 -28 -12t-13 -28h8q0 -22 -8 -22q-1 0 -3.5 1 t-3.5 1q-6 0 -6 -14zM118 472v-4q1 -4 1 -5l30 30q-31 -2 -31 -21zM119 -12q0 -3 4.5 -13t6.5 -12q7 2 19.5 11.5t12.5 16.5q0 3 -11.5 7t-13.5 8q8 -2 11 -2q8 0 11.5 5t4 11t0.5 18q-8 0 -14.5 -8t-8.5 -8l-4 2q2 8 14 19t12 21q-39 0 -39 -8q0 -1 0.5 -10.5t0.5 -15.5 q0 -15 -3 -26t-3 -16zM119 142l5 -7q6 0 25 5t19 8v32q-19 0 -49 -38zM123 441q0 -2 1 -2q30 1 40 8t10 34l-6 12q-45 -40 -45 -52zM124 71q29 0 34.5 6t5.5 35q-5 0 -22.5 -11t-17.5 -16v-14zM124 320q11 0 22 7.5t11 17.5q0 5 -2 7l-31 -7v-25zM124 370q0 -7 20 -7 q18 0 18 7v44l-9 -9t-10.5 -10t-9 -9t-7 -9t-2.5 -7zM137 -50q15 0 20 2.5t5 12.5q-18 0 -25 -15zM137 -86l9 -2q16 0 16 11q0 3 -7 3q-11 0 -18 -12z" />
<glyph unicode="K" horiz-adv-x="601" d="M63 438q0 37 3.5 111t3.5 111h73q12 0 12 -15q0 -2 -0.5 -4t-0.5 -3l1 -2q0 -6 -2 -40.5t-3 -40.5q18 -21 18 -112q0 -63 6 -174t6 -161q0 -8 -0.5 -54t-0.5 -54q-2 -12 -41 -12q-51 0 -63 12q1 21 1 62q0 63 -6.5 188.5t-6.5 187.5zM87 491q19 0 29 12t10 31 q0 6 -7.5 15.5t-7.5 12.5q0 1 3.5 8t7 20.5t3.5 29.5q0 6 -10 11t-15 5q-1 0 -3.5 -2.5t-2.5 -3.5v-68q5 -6 5 -15t1.5 -17t10.5 -12q-2 1 -6 1q-9 0 -13.5 -9.5t-4.5 -18.5zM91 423q0 -7 3 -16q43 22 43 73q0 14 -9 14l-3 -1l-31 -30q-1 -2 -1 -3q0 -8 11.5 -8.5t13.5 -7.5 h-2l-2 1q-13 0 -18 -4.5t-5 -17.5zM94 222l6 -42l43 42q-30 6 -38 6q-11 0 -11 -6zM97 24h14l39 38h-13q-23 0 -31.5 -7.5t-8.5 -30.5zM98 167q0 -23 8 -32q2 4 18 15t16 17h-42zM99 392l1 -2q0 -2 1.5 -4.5t4.5 -2.5q22 0 28 8.5t6 29.5q-7 0 -15 -5t-16 -12t-9 -8v-2z M100 270q14 0 43 32h-43v-32zM100 334q35 23 37 36h-37v-36zM104 248h46v38q-11 0 -28.5 -13.5t-17.5 -24.5zM106 92q14 0 31 19h-31v-19zM111 518zM111 74q15 0 28.5 6.5t13.5 19.5q-6 0 -12.5 -3t-10 -6l-10.5 -9t-9 -8zM116 319q19 0 24.5 5.5t5.5 23.5q-7 0 -14 -4.5 t-11.5 -11t-4.5 -13.5zM118 130q1 0 6 -0.5t6 -0.5q11 0 16 3t5 13q0 1 -0.5 5.5l-0.5 4.5q-13 -4 -32 -25zM118 186q3 -7 12 -7q24 0 24 26q-9 0 -19.5 -9t-16.5 -10zM137 24l3 -1q3 0 7 4.5t4 7.5l-1 2zM201 357q3 0 34 41.5t46 64.5q-1 1 -1 2q0 10 23.5 44t52.5 70 t57 65t35 29q5 0 16.5 -1.5t19.5 -1.5q11 0 26 3q10 0 15.5 -5t14.5 -20q-39 -62 -68 -86l-153 -198q0 -1 -0.5 -4.5t-0.5 -5.5q0 -17 6 -36t13 -31.5t19.5 -34t17.5 -30.5q2 -4 19.5 -20t17.5 -29h6l6 -5.5t17 -15.5t24 -22.5t26.5 -27.5t24.5 -30t18 -31t7 -29 q0 -2 -5 -12q-6 1 -18 1q-34 0 -50 -25q-7 6 -22 23.5t-30.5 37.5t-27 38.5t-11.5 25.5q-6 0 -21 17t-17 17q-35 49 -44 75q-10 16 -36 52t-41 60t-16 35zM238 352h38q1 5 7 18t6 20q0 11 -9 11q-10 0 -20 -9t-10 -19q0 -6 7 -9zM245 334q4 -8 12 -12q20 0 20 12h-32z M269 305q0 -6 10 -18.5t23.5 -26.5t16.5 -19q7 -10 19 -37.5t18 -36.5q2 -4 25 -19l-7 -5q0 -12 18 -24t20 -14l-0.5 -3.5t-0.5 -5.5q0 -13 32.5 -44.5t47.5 -31.5v17q-3 2 -13 19t-22 31t-23 14q-6 0 -9 -2q6 11 6 18q0 5 -0.5 6t-4.5 2t-8 5q-9 8 -27 33t-34.5 49.5 t-33.5 44t-24 19.5v5.5v6v5.5t-0.5 6t-1.5 5t-2 5t-3 3.5t-4.5 2.5t-5.5 1q-12 0 -12 -11zM281 414q2 -5 9.5 -9.5t12.5 -4.5q2 0 6 3.5t8 7.5t7 9t3 7q-23 0 -46 -13zM300 431l31 8q-7 12 -18 12q-13 0 -13 -20zM319 466q0 -2 4 -5t9.5 -5.5t10.5 -4t6 -1.5q2 0 25 38h-6 q-13 0 -31 -5.5t-18 -16.5zM331 493q1 0 5 -0.5l4 -0.5q9 0 25.5 4.5t16.5 12.5q0 9 -26 22q-14 -11 -25 -38zM373 552l0.5 -1t0.5 -2l31 13v10q-4 0 -9 -1t-10.5 -3t-9 -6.5t-3.5 -9.5zM374 537q7 -13 22 -13q7 0 13 8.5t8 16.5l-2 0.5t-3 0.5q-3 0 -17.5 -4t-20.5 -9z M399 587q3 -7 13.5 -10t16.5 -3q3 0 13.5 8t21 18t19 19t8.5 11v11q-54 0 -62 -24q6 0 18.5 3t19.5 3q-6 -11 -34 -17.5t-34 -18.5z" />
<glyph unicode="L" horiz-adv-x="477" d="M60 142q0 3 3 30.5t8 69t10 66.5q-13 39 -13 155q0 18 0.5 55.5t0.5 54.5q-9 7 -9 60q0 13 2 15l13 12h80l7 -6l11 -62q7 -45 7 -120q0 -51 -10 -151t-10 -151q0 -6 0.5 -17t1 -20t0.5 -10l11 -13q-6 -2 -6 -9q0 -3 1.5 -9t1.5 -7q7 -1 68.5 -2.5t71.5 -1.5q10 -8 36 -8 q27 0 62 7t54 7q0 -10 3.5 -27t3.5 -26t-10 -18.5t-14 -9.5q-24 6 -37 6q-33 -23 -88 -23q-14 0 -39 1.5t-35 1.5q-5 0 -25 -0.5t-33 -0.5q-123 0 -123 51v100h-5zM87 129q0 -3 3.5 -13t3.5 -11q0 -8 5 -38q19 10 31 25q-14 6 -18 13q6 0 12.5 3t6.5 5q0 4 -8 10q0 3 5 13 t5 18h-28q20 3 26.5 15t6.5 35q-36 0 -43.5 -14.5t-7.5 -60.5zM94 629q2 -37 13 -37q2 0 5 1t4 1q4 0 7 -7q-3 -8 -14 -28.5t-11 -32.5q14 0 20 0.5t15 3t13 9t4 17.5q0 80 -19 80q-4 0 -37 -7zM98 208q30 0 38 17.5t8 51.5q0 2 -0.5 18t-0.5 26q-2 -2 -7.5 -5.5t-8 -5.5 t-7 -5.5t-6.5 -6.5t-4.5 -6.5t-3.5 -8t-1 -9.5q0 -4 7.5 -6.5t7.5 -5.5q0 -8 -11 -25t-11 -29zM98 442q0 -14 1 -17q25 8 38 35t13 55q-6 0 -13 -3.5t-11.5 -6.5t-12 -9.5t-8.5 -7.5q0 -8 9.5 -12t9.5 -10l-1 -3q-15 0 -20 -4t-5 -17zM99 37q1 -7 14 -7q18 0 26 4t16 21 q-1 0 -3 0.5t-3 0.5q-42 0 -50 -19zM99 55q38 0 38 12q0 9 -7 14zM99 369q25 0 25 10l-1 3l-24 -6v-7zM99 396q6 -2 20 -2q22 0 28 11.5t6 38.5h-10zM99 512l6 -1q11 0 14 7h-3q-11 0 -17 -6zM105 312q4 0 18 14h-18v-14zM112 345h31v27q-4 0 -31 -27zM147 34q38 0 45 -10 q6 0 31 25q-21 0 -31 -7v11q-45 0 -45 -19zM227 22q29 0 39 15q1 -4 6.5 -8.5t7.5 -4.5q8 0 16.5 10.5t8.5 18.5q-78 0 -78 -31zM297 24h5q4 -1 5 -1q3 0 12.5 4t14.5 4l3 -3l3 -4q21 0 60.5 7.5t39.5 18.5q-21 0 -61.5 -4t-63.5 -4z" />
<glyph unicode="M" horiz-adv-x="789" d="M37 27q25 116 25 194q0 5 -0.5 17t-0.5 17l38 223q0 38 12 110q0 2 0.5 12.5t1.5 20t3.5 20t8 16.5t13.5 6l10 -3q9 -4 13 -4l8 4q8 3 9 3q23 -7 97 -143.5t95 -153.5q12 9 23.5 29t22.5 44.5t16 32.5q2 4 22 34.5t21 32.5q33 55 56 111q8 19 46 19q15 0 30.5 -7.5 t15.5 -24.5q0 -1 -0.5 -3.5t-0.5 -4.5q0 -1 0.5 -4t0.5 -5q6 -57 30 -192t31 -271q1 -17 7.5 -57t6.5 -61q0 -15 -2 -23t-9.5 -11t-12 -3.5t-18.5 -0.5q-64 0 -64 23l6 40q-6 56 -6 136q0 13 -6 52.5t-12 73t-7 34.5l-6 6q0 117 -12 117h-13v-24q0 -2 -20.5 -48t-47.5 -106 t-43 -93q-2 -3 -6.5 -14t-7.5 -17.5t-9.5 -12.5t-14.5 -6q-45 0 -47 44q-107 179 -136 266q-1 0 -7 6q-2 -16 -12 -68q0 -26 -10 -87t-10 -90q0 -14 1 -21l-31 -210q-2 -14 -27 -14q-35 0 -65 21q-1 1 -3 9zM74 39q0 -18 25 -18q13 0 13 32q0 5 -0.5 13t-0.5 10h-11l-1 6 q4 12 5 13q-30 0 -30 -56zM85 106q21 0 30.5 17.5t9.5 39.5q0 2 -0.5 9.5t-0.5 8.5l-13 -6v8q-18 0 -22 -17t-4 -60zM85 277q0 -19 7 -47q0 -1 9 -8.5t10 -9.5q0 -3 -5 -10.5t-7 -7.5q37 0 37 46q0 26 -9 31.5t-42 5.5zM99 298q3 0 18 6t18 7q-2 5 -11 5q-25 0 -25 -5v-13z M104 329l38 -5q7 0 7 12q0 9 -7 12q-32 -8 -38 -19zM104 347q13 0 25 7q-1 7 -11 7q-1 0 -6 -0.5t-8 -0.5v-13zM107 281q35 0 35 14q0 3 -7 3q-28 0 -28 -17zM111 378q1 -6 14 -6q30 0 30 12q0 1 -2 7l-36 19l-6 -16h18q-3 -10 -18 -16zM121 454q0 -10 14 -14q-13 0 -13 -11 q0 -21 35 -21q0 25 -7 35.5t-29 10.5zM129 472q2 -1 10.5 -7.5t10.5 -6.5q21 0 21 36q-15 0 -25 5t-17 5v-32zM134 556q5 0 12 2.5t14.5 6t12.5 4.5q-2 -1 -4.5 -5.5t-2.5 -6.5q0 -1 4.5 -4.5t4.5 -5.5t-1 -3q7 0 21.5 8.5t14.5 14.5q0 7 -10 11.5t-18 4.5q-14 0 -31 -7 t-17 -20zM135 600q2 0 11 3.5t15 3.5q1 -8 25 -8q0 14 -13 14v13q-2 1 -18.5 3t-19.5 2v-31zM148 514q1 -6 10 -6h11.5t7.5 2t8 6t6 11q-10 0 -43 -13zM173 569zM197 508h9q35 0 35 10q0 2 -13 15q-22 -16 -31 -25zM204 490l15 -8q2 0 16 14q-1 0 -7 0.5l-6 0.5 q-17 0 -18 -7zM245 446q19 0 32 7q-4 12 -11 19q-21 -14 -21 -26zM259 427q3 0 9 3.5t9 3.5h-18v-7zM270 404q0 -13 7 -13q5 0 13 3.5t8 9.5h-28zM276 416h20v14q-20 0 -20 -14zM281 371q30 0 39 15q-2 5 -11 5q-7 0 -13 -2t-10.5 -7t-4.5 -11zM282 356q0 -10 17 -10h2 q7 0 11 0.5t8.5 3.5t5.5 10h-43l-0.5 -1.5t-0.5 -2.5zM309 329q1 0 6 -0.5l5 -0.5q18 0 24 8q0 2 -5.5 7t-8.5 6q-3 0 -10 -7.5t-11 -12.5zM320 302q8 0 15.5 4t8.5 10h-24v-14zM333 292l7 -6q1 1 5.5 2t9 1.5t9.5 1.5t6 1q2 0 9.5 -0.5t8.5 -0.5v-5q-39 -22 -39 -39 q40 0 64.5 21t24.5 61q-10 -5 -19 -5q2 0 7.5 4.5t5.5 7.5q0 2 -3.5 8t-3.5 10l21 -6q12 0 12 25h-20q1 1 9 8t12 11t12 12.5t12 14.5t7.5 14t3.5 15q-21 0 -38.5 -11t-17.5 -30q0 -4 12 -10q-11 -2 -21.5 -12t-15.5 -17.5t-14.5 -24.5t-10.5 -19l13 -8q-7 -6 -35.5 -8.5 t-32.5 -15.5zM339 270l1 -2q6 0 10 3.5t4 9.5q-15 0 -15 -11zM362 235l1 -1.5t1 -3.5q3 0 8 4.5t5 5.5l-1 2q-4 0 -9 -2.5t-5 -4.5zM374 209q8 0 13.5 8t7.5 13l-4 1q-17 -7 -17 -22zM462 450q12 0 38 14q-9 12 -19 14q-9 0 -14 -9t-5 -19zM486 499l0.5 -1t0.5 -2l24 6l-4 6 q24 6 42 6h6l-6 -6q6 -4 9.5 -9.5t4.5 -10t5.5 -8t13.5 -3.5q29 0 29 6q0 7 -6 19l-13 129l-6 1q-26 0 -50 -31q3 -7 10.5 -9.5t18 -4t15.5 -4.5q-5 -8 -17 -12.5t-21.5 -9t-10.5 -12.5h49l6 -10q-6 -3 -33 -8t-47 -13t-20 -19zM492 483q4 -6 15 -6q8 0 17 6q0 2 -2.5 4.5 t-3.5 2.5q-8 0 -26 -7zM507 533h29q-7 7 -18 7q-10 0 -11 -7zM524 569h4h3.5h3.5t3.5 0.5t3 1.5t3.5 2.5t4 3.5q-2 6 -13 6q-6 0 -9 -2.5t-3 -11.5zM567 521l19 6v-6h-19zM572 465q0 -5 6.5 -11.5t9.5 -6.5q13 0 23 12q-30 6 -39 6zM591 431q0 -2 1 -2l24 -8v21 q-25 0 -25 -11zM592 410l6 -6q8 4 8 13q-8 0 -14 -7zM597 386q0 -16 26 -16v34q-9 0 -17.5 -5t-8.5 -13zM605 341q25 4 25 9q0 11 -19 11l-6 -1v-19zM610 320l0.5 -1.5t0.5 -2.5q8 -5 24 -5q9 0 9 26q-11 0 -22.5 -4t-11.5 -13zM616 266q0 -22 26 -22v37q-11 0 -26 -15z M616 285q17 0 26 13q-1 0 -11 3.5t-15 3.5v-20zM623 203q0 -11 25 -11v38q-25 -8 -25 -27zM623 230q9 0 12 8h-12v-8zM626 138h28v26q-5 0 -10 -2t-9 -5.5t-6.5 -8.5t-2.5 -10zM630 98q0 -6 6 -35t6 -30q15 2 20 5.5t5 12.5t-1.5 22.5t-5.5 27t-9 13.5q-6 0 -13.5 -5 t-7.5 -11zM630 118q15 0 18 7h-18v-7zM630 163l18 18h-18v-18z" />
<glyph unicode="N" horiz-adv-x="662" d="M66 523q0 21 4.5 60t4.5 61q0 3 -0.5 11t-0.5 12q23 6 52 6q32 0 59 -6q11 -17 46 -69.5t57 -90t38 -74.5q0 -10 72.5 -107.5t86.5 -97.5q9 0 9 140q0 4 -0.5 54t-0.5 79q0 1 -2 7t-3 11t-1 6q0 18 3 51t3 50q0 31 43 31q52 0 52 -14q0 -4 -2 -13.5t-2 -12.5 q0 -5 3.5 -19.5t3.5 -22.5q0 -36 7 -105.5t7 -106.5q0 -32 -6.5 -94.5t-6.5 -92.5q0 -113 6 -157q0 -1 4.5 -14.5t4.5 -22.5q-37 0 -76 13q-8 12 -27.5 27t-33 30.5t-13.5 35.5q-9 0 -10.5 2t-1.5 11q-16 0 -26.5 14t-20.5 38.5t-16 32.5q-10 0 -17 8t-13 23.5t-7 17.5 q-4 7 -21 25t-22 31q-10 27 -59 97t-61 70q-5 0 -10 -38q0 -50 7 -148t7 -147q0 -21 -7 -60t-7 -59q0 -24 -68 -24q-10 0 -30 6q-7 42 -7 81q0 60 6.5 182t6.5 188q-14 58 -14 84zM94 26h16l32 30v7q-17 0 -26 -2t-15.5 -10.5t-6.5 -24.5zM97 102q0 -28 20 -28q33 0 33 16 q0 8 -2 10q-22 -19 -38 -19q7 6 7 16q0 3 -0.5 9t-0.5 10q0 2 9.5 25t9.5 26q-23 -3 -30 -12.5t-7 -32.5q0 -3 -0.5 -9.5t-0.5 -10.5zM99 519h5l99 49q-6 19 -12 19q-14 0 -46 -25t-46 -43zM99 544h5l50 31h-6q-16 0 -32.5 -8.5t-16.5 -22.5zM99 581q0 -1 2 -3.5t3 -2.5 l50 55h-2q-3 1 -4 1q-14 0 -31.5 -18t-17.5 -32zM99 636q0 -2 5 -12l20 12l-14 7q-11 0 -11 -7zM104 210q0 -6 6 -12l25 25h-7q-5 0 -14.5 -3.5t-9.5 -9.5zM104 439l6 -6q5 3 13 10t16.5 17.5t8.5 18.5q-9 14 -9 41q-1 -1 -15.5 -8t-19.5 -11v-62zM109 393q2 0 17.5 9.5 t15.5 12.5v6q-33 0 -33 -28zM110 260l32 31v6q-2 -1 -7.5 -2t-7 -1.5t-5.5 -2t-5 -3t-3 -4t-2.5 -5.5t-1 -8t-0.5 -11zM110 343q0 -1 7 -22q29 21 29 41q-36 0 -36 -19zM115 370q13 0 20.5 7.5t7.5 19.5q-10 0 -19 -8.5t-9 -18.5zM117 241q33 0 33 26q0 9 -2 11 q-27 -23 -31 -37zM122 176q32 0 32 22q0 10 -6 19q-26 -20 -26 -41zM127 116q14 0 22.5 13.5t8.5 26.5q-13 1 -22 -13t-9 -27zM127 307q22 0 22 14q0 10 -7 13q-15 -15 -15 -27zM142 593q2 -1 3 -1l7 4q22 12 26 16q0 3 -3 8t-5 5q-12 0 -28 -32zM178 537q3 -5 8 -15t7 -12 t7 -5t13 -3q0 -20 3.5 -29.5t17.5 -21.5l18 25q1 -5 1 -7q0 -6 -4 -17.5t-4 -19.5q39 0 39 9q0 25 -44 84l-30 31q-5 -1 -32 -19zM259 420q11 -19 15 -19q9 0 14 9t5 19q-25 0 -34 -9zM283 387q0 -12 6 -17.5t12 -5.5q20 0 20 13q0 12 -22 25q-16 -6 -16 -15zM307 345 q0 -11 13 -18q14 10 14 34q-27 0 -27 -16zM326 316q0 -16 20 -16q4 0 8 0.5t7 1.5h3q-2 -2 -11 -6t-9 -8t3.5 -10.5t6.5 -6.5q16 0 16 31q0 12 -7 25.5t-18 13.5q-2 0 -8.5 -11.5t-10.5 -13.5zM369 260q0 -23 22 -23q0 -2 -1.5 -8.5t-1.5 -9.5q0 -9 9 -9t16 7q-6 -18 -6 -19 q0 -6 12 -6q25 0 25 15q0 4 -5.5 9.5t-10.5 9.5l-6 4l-3 -1l-31 62q-1 1 -3 1q-16 0 -16 -32zM425 176q0 -6 6 -9q9 0 12 7v-20q14 0 31 13q0 17 -5 17q-1 0 -5 -1t-7 -1v17q-9 0 -20.5 -7.5t-11.5 -15.5zM450 143l24 -25q52 36 67 36q0 -6 -7 -18t-16.5 -25.5t-11.5 -17.5 q62 0 62 105q0 12 -7 12q-23 0 -37 -30.5t-37 -30.5q0 1 1 1v2q0 6 -6 10q-1 -1 -8.5 -4.5t-14 -7t-9.5 -7.5zM471 91q12 0 29.5 15t17.5 26l-1 4q-46 -15 -46 -45zM496 65q21 0 21 16q-21 -2 -21 -16zM517 307q0 -16 6.5 -21t7.5 -8q1 -2 -2 -6.5t-5 -4.5h43v25 q-13 0 -24 -8q8 9 20.5 31t12.5 32q-11 0 -20 -15t-20 -16v11q37 31 37 62h-24q2 4 13.5 10t11.5 16q0 3 -4 7.5t-6 4.5q-11 0 -23.5 -13.5t-12.5 -24.5h7q0 -1 1 -3v-2q-1 -2 -12 -13q-7 -19 -7 -64zM517 439q0 -5 2.5 -14.5t4.5 -9.5h7l30 30q-4 13 -30 13q-2 0 -5 -4 t-5.5 -9t-3.5 -6zM517 480q5 0 25 26.5t20 30.5h-7l-38 -36v-21zM517 525h7l31 31l-6 6l12 6q1 1 3.5 16t2.5 22q0 2 -2.5 6.5t-3.5 4.5h-37q-5 -17 -7 -24q0 -27 19 -34h-19v-34zM524 62q16 0 27 8t11 23h-7zM524 203q11 0 24 8t19 18h-24q6 4 12.5 12.5t6.5 11.5h-38v-50z M531 31l24 -5q2 -1 3.5 1.5t2 7t0.5 7v5.5v9l-30 -13v-12zM536 472q0 -10 27 -10q0 45 -8 45q-19 -23 -19 -35z" />
<glyph unicode="O" horiz-adv-x="712" d="M26 291q0 13 5.5 42t6.5 37q11 99 47 156t120 110h1l2 -1q8 0 59 12.5t66 12.5h26l31 -6q31 -6 66.5 -13.5t43.5 -10.5q33 -14 38 -19q75 -76 102.5 -130t27.5 -144q0 -32 -4.5 -62.5t-14 -74.5t-12.5 -57q-2 -12 -13 -25.5t-11 -29.5q0 -6 -1 -7q-52 -93 -247 -93 l-117 12l-93 43h-5q-6 0 -44 31q-24 19 -49.5 89t-25.5 110q0 7 1 10q-2 0 -4 3t-2 5zM56 276q13 0 20 9t7 22q-27 -1 -27 -31zM57 352q1 0 3 -0.5t3 -0.5q7 0 16.5 4.5t9.5 12.5q0 6 -9 11t-15 5q0 -23 -8 -32zM69 248h5q6 -1 7 -1q19 0 19 12q0 13 -7 13q-10 0 -24 -24z M79 437q16 0 27 7q-2 4 -9 8.5t-9 4.5q-9 0 -9 -20zM81 160q7 -4 7 -12l12 12q0 2 -3 4.5t-4 2.5q-5 0 -12 -7zM81 407l12 -6q8 0 8 14q-17 0 -20 -8zM100 198h13v6q-9 0 -13 -6zM105 499q15 0 32 7q-1 3 -9 7.5t-10 4.5q-4 0 -8.5 -7.5t-4.5 -11.5zM110 141q15 0 15 10 q0 1 -0.5 2t-0.5 2q-14 -2 -14 -14zM117 117q0 -6 9 -19t13 -13q11 0 11 32h-33zM118 334q0 -24 13.5 -105t25.5 -81q1 0 6 0.5t7 0.5q4 0 7 -6.5t3 -12.5q2 -4 8.5 -12t12.5 -14t6 -7q11 0 14.5 -3t7.5 -9t12 -11q12 -6 37 -8.5t37 -9.5q4 0 21 -0.5t19 -0.5q93 0 136 25.5 t65 105.5q0 6 0.5 38t0.5 38v57t-3 54.5t-9.5 63t-20.5 48.5t-35 46q-1 -1 -4 -1q-4 0 -53 16.5t-55 16.5q-9 0 -24.5 -7t-23.5 -7q-6 0 -11.5 3.5t-10.5 3.5q-76 0 -132.5 -73t-56.5 -149zM137 537q4 -4 11 -8.5t12.5 -7t6.5 -3.5q3 0 8 5.5t5 7.5q-19 6 -43 6zM167 73 q10 0 13 8h-13v-8zM167 575q7 -26 34 -26q14 0 23 13q-3 1 -8 5.5t-5 6.5q0 7 6 13q6 0 13 -4t17 -4q11 0 16 1t11 7t11 18q1 -8 15 -8q53 0 53 20l6 -12l-1 -1q6 0 22 8q20 -27 53 -27q14 0 18 8q12 -33 87 -62q0 -8 4.5 -16.5t11.5 -8.5q8 0 14.5 6t6.5 13q0 11 -19 11 q-42 44 -60 62q-16 16 -75.5 24t-99.5 8q-42 0 -42 -19q-7 12 -15 12q-3 0 -20.5 -9t-34 -17.5t-16.5 -9.5l12 -10h-38v-2zM248 37q0 -1 3 -3.5t4 -2.5q21 0 21 14h-6q-20 0 -22 -8zM390 12l24 12h-24v-12zM457 31q61 0 111.5 47t50.5 109q-39 0 -39 -32h20q-3 -5 -17 -9.5 t-15 -13.5q0 -2 19 -21q-23 -1 -28.5 -3.5t-8.5 -13t-12 -20.5q-25 -28 -81 -43zM556 482q0 -3 7 -8.5t9 -5.5t3 1q-7 -12 -7 -21q6 0 14 6t15 6l-5 -6q-6 -5 -12 -12t-6 -10l4 -4l3 -2h50q0 21 -13 54t-33 33q-6 0 -17.5 -13.5t-11.5 -17.5zM569 407l12 -6q8 0 31 13 q-38 0 -43 -7zM575 383l49 -15h-44q0 -23 10 -23q13 0 33 12t20 26q0 19 -6 31q-24 0 -62 -31zM577 287l23 -22q-5 0 -12.5 -3t-7.5 -6q0 -8 14 -8q4 0 14 2.5t16 2.5q-3 -6 -20.5 -10t-17.5 -14q0 -5 4 -8.5t4 -4.5q0 -3 -4 -9.5t-4 -10.5q17 0 19 8q0 -1 3 -3.5t4 -2.5 q32 0 32 89q0 2 -0.5 8t-0.5 7zM587 322q7 -8 22 -8h10q30 0 30 12q0 26 -8 26q-11 0 -29 -10.5t-25 -19.5z" />
<glyph unicode="P" horiz-adv-x="570" d="M66 558q0 8 6 14.5t14 7.5v61q0 3 10.5 11t13.5 8h137l12 6h110q11 -3 38 -19.5t56 -23.5q3 -4 22 -26.5t22.5 -28t16 -24t15.5 -30t7 -30t4 -38.5q0 -76 -44 -143t-118 -81q-61 -13 -104 -13q-14 0 -48.5 2t-38.5 2v-6q0 -6 -2 -9q0 -1 -0.5 -1.5t-1.5 -2t-2 -3.5v-209 l-6 -6q-54 0 -86 24q0 47 -6.5 139.5t-6.5 138.5q0 18 3.5 49t3.5 39q0 15 -3.5 26t-3.5 15q0 3 3.5 11t3.5 24q0 9 -4 19t-4 13q0 10 4 28t4 27q0 13 -6.5 18.5t-13.5 6t-7 4.5zM104 24q11 -12 13 -12q11 0 28 18t17 32h-20q26 9 26 47q-20 0 -37.5 -39.5t-26.5 -45.5z M110 282q21 0 50 33q-1 0 -6 0.5t-6 0.5q-20 0 -29 -6.5t-9 -27.5zM110 587q2 -15 5.5 -20t12.5 -5q17 0 48.5 20.5t45.5 34.5q-24 0 -87 -37h-7q14 17 69 50v8q-83 0 -83 -21h19q0 -1 1 -3t1 -3t-11 -11.5t-14 -12.5zM113 493h41l3 21q3 21 3 24q-13 0 -30 -15.5t-17 -29.5 zM115 369q15 0 27 23.5t18 27.5q0 6 0.5 16.5t0.5 15.5q0 20 -7 30q-12 -9 -21.5 -27.5t-9.5 -33.5t10 -15q-18 -5 -18 -37zM115 466q0 -1 1 -5l1 -4q14 11 18 25q-3 1 -7 1q-13 0 -13 -17zM116 221q0 -11 8 -11l48 49v6q-5 -1 -16.5 -3.5t-16 -4.5t-11 -5.5t-9 -9 t-2.5 -14.5q0 -1 -0.5 -3t-0.5 -4zM117 325q26 0 38.5 6.5t12.5 29.5q0 22 -8 35q-16 -13 -29.5 -33.5t-13.5 -37.5zM117 543q0 -7 7 -12q18 6 18 20q-25 0 -25 -8zM122 160q0 -3 2 -5q17 8 24 18h-3q-23 0 -23 -13zM123 99q0 -1 0.5 -6.5t0.5 -6.5q1 1 10 9t16.5 17.5 t9.5 17.5q-4 -1 -10.5 -3.5t-9.5 -3.5t-7 -3t-5.5 -4.5t-3 -6.5t-1.5 -10zM124 129q16 0 24 3.5t11.5 11.5t3.5 23h-9l-30 -32v-6zM128 186q6 0 14 2.5t13 5.5t5 4v30q-4 0 -12 -10.5t-14 -21.5zM128 265q14 0 50 18l-7 19h-4zM133 406h1q5 0 8 1q-5 0 -9 -1zM148 12 q4 0 7 1t4 5t1 5.5v7v6.5q-6 -3 -12 -25zM185 248q18 -7 62 -7l-19 18l12 6q0 7 -12 7q-43 -5 -43 -24zM185 493q1 -12 3 -64t5.5 -86.5t9.5 -34.5h88l4 7v-7q8 5 22 8t29.5 4.5t17.5 1.5q33 2 50.5 28t28.5 70q7 24 7 30q0 18 -20 54.5t-35 44.5q-14 7 -61 7q-3 0 -24 -0.5 t-27 -0.5q-89 -3 -92 -6l-6 -6v-50zM222 598q4 0 11 2.5t13.5 5t12 4.5t6.5 1q-9 -13 -25 -18q6 -2 13.5 -8t17.5 -6q1 0 6.5 0.5l5.5 0.5l-12 7q14 7 40 7q5 0 12.5 -0.5t10.5 -0.5l10 11q-1 -1 -1 -3q0 -6 30.5 -11t33.5 -10l-6 -6q25 -20 30 -25q1 -1 8.5 -12t17.5 -12 l-14 -12q2 -1 6.5 -3t6 -3t5 -3t4.5 -3.5t3.5 -3.5t3 -4.5t1.5 -5.5t1.5 -6.5t0.5 -8.5q0 -8 -1 -9q1 1 3 2q10 6 15.5 10t12.5 12t7 16q0 22 -9 22q-3 0 -10.5 -4.5t-10.5 -7.5q-1 3 -1 4q0 2 6.5 12.5t6.5 13.5q0 2 -7.5 13.5t-21 24t-26.5 12.5l11 12q-39 21 -72.5 28.5 t-82.5 7.5q-23 0 -38.5 -10t-34.5 -33zM250 276q0 -4 2 -10.5t7 -6.5h43l-11 13h4q29 -4 44 -7q-3 -2 -3 -3q0 -4 15.5 -7t21.5 -3q37 0 37 13h-34q3 3 12 7.5t13 5.5q1 0 6.5 -0.5t12.5 -0.5h12q16 0 45.5 32t29.5 58q-8 0 -16.5 -2t-16.5 -5.5t-14 -8.5t-10 -12.5 t-4 -16.5h7q0 -9 -44.5 -20t-92.5 -18.5t-66 -7.5zM265 248q7 -8 22 -8l8 1q-3 7 -30 7zM344 604l1 1zM463 377h43q5 0 9.5 9.5t7 19.5t2.5 14h-8q-10 -4 -32 -15.5t-22 -15.5v-12zM466 413q25 0 34 13l-5 0.5t-6 0.5q-8 0 -15.5 -3.5t-7.5 -10.5zM478 434q13 0 18.5 0.5 t15.5 2t14.5 7t4.5 14.5q0 10 -3.5 14t-11.5 4q-16 0 -27 -13.5t-11 -28.5z" />
<glyph unicode="Q" horiz-adv-x="710" d="M29 295q0 76 14.5 140t45.5 117.5t86 84t129 30.5q19 0 48.5 -4t41.5 -4v-7q74 0 136.5 -44t97.5 -115q5 -8 18.5 -59t13.5 -66q0 -19 -4.5 -43t-4.5 -41q0 -12 1 -19l-5 -6l5 -6q-12 -6 -12.5 -38.5t-11.5 -41.5l7 -6q-5 -8 -15.5 -30t-10.5 -31q0 -13 25.5 -27.5 t25.5 -25.5q0 -8 -12.5 -19.5t-12.5 -21.5q-1 0 -4.5 4t-5.5 4q-4 0 -9 -13t-16 -13q-8 0 -27 13t-28 13q-17 0 -28 -20q-7 -2 -37 -11t-46.5 -13t-42 -8.5t-44.5 -4.5q-105 0 -225 99q-4 3 -9 5t-6.5 4.5t-1.5 9.5h-8q-2 0 -24 36q-21 34 -32.5 84t-11.5 94zM52 307 q14 0 20 4.5t14 18.5q-1 3 -1 4q-3 1 -7 1q-12 0 -19 -8t-7 -20zM67 239q7 0 13.5 6.5t6.5 13.5h-20v-20zM78 198q0 -23 7 -31q21 14 25 31h-32zM78 365h26v12zM83 449q21 0 21 14q0 11 -12 19q-9 -10 -9 -33zM92 291l12 -26v33q-8 0 -12 -7zM104 426q4 -7 13 -7v7h-13z M109 121q0 -23 25.5 -42.5t49.5 -22.5q1 1 1 9q0 9 -8.5 13.5t-18.5 6.5t-18.5 13.5t-8.5 32.5q-22 0 -22 -10zM115 521q39 0 39 10q-17 17 -19 18q-1 0 -2 0.5t-2 0.5q-7 0 -11.5 -10.5t-4.5 -18.5zM117 493q6 -8 18 -11l6 11q-5 7 -13 7q-9 0 -11 -7zM134 309 q0 -108 12 -130q2 -2 13 -12.5t12 -11.5q0 -31 7 -31h53q0 -2 -5.5 -16t-5.5 -19q0 -8 58 -23.5t78 -15.5q39 0 94 17q0 19 -37.5 55.5t-37.5 59.5q0 10 22 40.5t31 30.5q17 0 37 -20t36.5 -40t25.5 -20q10 0 17 10.5t10 28.5t4 32t2 34v19q7 28 7 49q0 1 -1.5 3.5t-3.5 5 t-2 3.5q0 10 -6 36.5t-12 49t-6 23.5h-25q14 8 14 25q0 38 -57 60.5t-104 22.5q-3 0 -9.5 -0.5t-12.5 -0.5h-5l-109 -37q-8 -9 -25 -21.5t-25 -22.5q-44 -55 -44 -184zM146 580q0 -19 59 -19q0 12 -8.5 25t-18.5 13q-8 0 -18.5 -6t-13.5 -13zM221 31l24 -12v-7 q12 0 34.5 -3.5t35.5 -2.5q0 14 -14 14q-3 0 -10 -1t-11 -1q-11 0 -19.5 13t-14.5 13q-14 0 -25 -13zM255 636q0 -7 33 -16t42 -9h7l-11 25h-71zM342 636q0 -18 21.5 -24t51 -5.5t35.5 -1.5q2 0 9 -12.5t19 -12.5q4 0 12.5 1.5t12.5 1.5q0 -1 0.5 -3.5t0.5 -4.5q-3 -6 -4 -7 q0 -21 4 -21h38q-11 -5 -13 -10q0 -8 6.5 -10t6.5 -6q0 -2 -0.5 -7.5t-0.5 -8.5q0 -14 10 -14q5 0 9 2l-6 -11l13 -43h8q0 -19 8.5 -53t8.5 -52q0 -6 -3.5 -19t-3.5 -18q0 -1 3.5 -4.5t3.5 -12.5q0 -11 -7.5 -33.5t-7.5 -35.5q0 -18 2 -20l12 -5q-2 -1 -11 -5t-15 -7 t-13 -8.5t-10 -10.5h18l-43 -49v-7q4 3 50 18v-4q0 -15 -25 -46h12q31 0 31 10q0 5 -3.5 15.5t-3.5 16.5q0 9 10 26t10 25q0 11 -7 13q17 3 30.5 76.5t13.5 108.5q0 39 -14.5 97t-41.5 58l12 5q-1 2 -9 12.5t-9 12.5t-14 13t-13 16q-16 0 -36.5 18t-29.5 21q-54 17 -99 17v8 h-39zM399 16q0 -2 3 -5.5t5 -3.5q6 0 32 12.5t30 12.5q3 0 9.5 -0.5t9.5 -0.5q10 0 35 27.5t25 47.5q-2 -1 -15 -10t-22.5 -16.5t-10.5 -12.5q-8 -19 -54.5 -31t-46.5 -20zM412 173q7 -1 10 -3.5t3 -5.5t1.5 -8t4.5 -8q4 -5 30 -31q5 12 28 12t23 10q0 2 -8.5 11.5 t-10.5 9.5t-16.5 -6t-15.5 -6l-4 1q-4 1 -5 1q0 7 11.5 19.5t11.5 22.5q0 18 -17 18q-1 0 -6.5 -3t-8.5 -3q-1 1 -3 7t-6 6q-3 0 -11 -6.5t-11 -6.5v-31zM468 160q16 0 25 13h-8q-11 0 -17 -13zM474 106q0 -8 6 -20q19 22 44 38v6q-4 -1 -13.5 -5t-19.5 -8.5t-11 -5.5z M572 52q0 -2 5 -5.5t8 -3.5q2 0 5.5 4.5t5.5 9.5l2 5h-3q-3 1 -4 1q-18 0 -18 -10zM604 31q17 7 24 25h-3q-6 0 -13 -9.5t-8 -15.5z" />
<glyph unicode="R" horiz-adv-x="583" d="M59 613q0 30 12.5 40t48.5 10q13 0 34 -3.5t32 -3.5q6 0 39.5 3.5t57.5 3.5h14.5h16.5t17 -0.5t19 -1l18 -1.5t19 -2.5t17 -4t17 -5.5t14.5 -7t13.5 -9l43 -43v-13h6q1 -10 7 -38t6 -49q0 -91 -37 -141q-8 -10 -24.5 -27t-18.5 -17t-4 0.5t-3 0.5q-8 0 -12 -6.5t-7 -6.5 q-4 0 -9 3t-5 5l2 4l30 31q-2 2 -12 2q-13 0 -21.5 -15.5t-15.5 -17.5q-3 0 -37 -12q3 -7 15.5 -9.5t15.5 -8.5l-12 -13h27q0 1 -1.5 7t-1.5 9q0 7 7 10q5 -15 22.5 -38t21.5 -31q28 -81 118 -215q0 -19 -64 -19q-14 0 -21 5.5t-8 12.5t-4 12.5t-10 5.5l-43 68 q0 11 -12.5 31t-32.5 45.5t-23 29.5q-21 29 -37 55q-34 7 -69 7q-32 0 -43.5 -9t-11.5 -40q0 -26 4 -77t4 -79q0 -40 -19 -55q-33 -6 -63 -6q-12 0 -15.5 4.5t-3.5 16.5q0 32 7 95.5t7 96.5q0 25 -7 52v210q0 7 -6 20.5t-6 16.5q0 5 3 15.5t3 16.5q0 10 -9.5 43t-9.5 36z M96 632q11 -14 16 -14q8 0 8 8q28 -20 42 -20h4l4 1l-18 19l7 6q-26 6 -41 6q-14 0 -22 -6zM109 58q6 0 19 12.5t15 12.5q2 -1 3 -1q-2 -9 -16.5 -21t-14.5 -22q0 -12 21 -12q8 0 12 28.5t4 48.5q0 22 -9 22q-11 0 -19.5 -10t-8.5 -21t5 -13q-7 -3 -11 -24zM109 255 q0 -16 7 -25q18 18 18 28q0 11 -14 11q-11 0 -11 -14zM109 519q0 -10 4.5 -25.5t8.5 -26.5t4 -13q11 13 11 30l-10 55q-9 1 -13.5 -5t-4.5 -15zM114 332l2 -28l5 9zM115 128q1 -7 1 -8q19 10 30 24h-6l-6 1q-12 0 -15.5 -3t-3.5 -14zM116 182q0 -7 4 -7q21 11 21 25 q-1 5 -1 6q-24 -11 -24 -24zM119 153q17 0 23 5.5t10 23.5h-6q-10 0 -18.5 -9t-8.5 -20zM126 217q13 0 20 19q-20 -7 -20 -19zM159 551q6 -49 6 -124q0 -17 -0.5 -40.5t-0.5 -26.5q9 -14 46 -14q53 0 77 8q12 2 32.5 4t30.5 3.5t24.5 6t21 11.5t11.5 20t5 32q0 52 -25 108 q-23 15 -55 22.5t-53 8.5t-59 1h-6q-44 0 -55 -20zM170 311q4 -7 10 -7q9 0 9 7h-19zM177 619q7 -18 46 -18q28 0 28 6l-12 25h-50zM215 315q0 -3 17 -5t35 -3.5t20 -2.5q8 4 8 14zM251 632q2 -2 12 -16.5t16 -14.5q5 0 14.5 3.5t15.5 3.5q0 29 -9 29zM311 288 q0 -12 4.5 -17t17.5 -5q0 8 -7 15t-15 7zM314 632q0 -43 42 -43q3 5 5 14.5t7 15.5l6 -6q3 1 4.5 3t1.5 4l1 2q0 10 -7 10h-60zM318 298q33 8 38 20h-6q-6 1 -7 1q-25 0 -25 -21zM331 244h12v5h-12v-5zM349 228l1 -2v-2q28 -7 51 -7q0 9 -5.5 14t-11 5.5t-17.5 0.5 q-18 0 -18 -9zM368 198q21 0 25 8h-25v-8zM384 575q8 0 19.5 3t18.5 3q0 -1 0.5 -2t0.5 -2t-7.5 -9t-10.5 -10l6 -7l55 -12q1 -2 1 -3q0 -11 -12 -11v-4l30 -7l1 2v2q0 21 -21 59.5t-42 41.5q-25 5 -30 7q-9 -9 -9 -43v-8zM387 187q5 0 11.5 -2.5t6.5 -5.5q0 -4 -3.5 -8 t-3.5 -9q0 -12 13 -12q1 0 3 0.5t4 0.5l-13 -7q0 -13 5 -13q2 0 7 2t8 2q0 -32 24 -72q3 -6 10.5 -16.5t13.5 -18.5l6 -8h19q-7 23 -26 54t-23 39q-4 6 -12.5 28t-16.5 40t-15 19l-5 -2q-6 -3 -9.5 -5.5t-3.5 -5.5zM411 354h20q0 1 -3 3.5t-5 2.5q-6 0 -12 -6zM413 539 q0 -6 5 -6q4 0 4 6t-4 6q-5 0 -5 -6zM426 511q0 -14 14 -35.5t26 -29.5q0 -6 -5 -6q-4 0 -10.5 4t-11.5 4q0 -38 24 -38q23 0 23 79h-16q0 1 -2 3.5t-2 3.5q12 5 13 6q-15 9 -53 9zM434 370q21 0 21 17q-21 0 -21 -17z" />
<glyph unicode="S" horiz-adv-x="560" d="M33 56q16 0 24 17t11.5 34t7.5 17l86 -50q9 2 18 2q12 0 13 -6q1 0 9.5 0.5t14.5 0.5q17 0 26 -4t12 -4q24 0 50.5 4t55.5 13.5t48 29.5t19 48q0 22 -13 49t-31 34l-271 118q-74 32 -74 133q0 11 2 20.5t8 21.5t9 17t12.5 20t10.5 16q55 75 209 75q6 0 24 -3.5t46 -3.5 q89 -14 93 -18l18 -19v-74q0 -5 -9 -18.5t-13 -13.5q-16 7 -55.5 27.5t-70.5 32t-59 11.5q-55 0 -99.5 -23.5t-44.5 -74.5q0 -23 32.5 -53t52.5 -30h8l5 1q23 -7 46.5 -23.5t48 -27.5t59.5 -11q54 -11 101.5 -54t47.5 -94q0 -17 -8 -41t-10 -34q-1 -5 -4 -14 q-14 -52 -28.5 -67t-67.5 -24q-1 0 -3.5 -2.5t-2.5 -3.5q-68 -26 -123 -26q-86 0 -154 14q-2 2 -4 2t-5 -1t-4 -1q-26 0 -45.5 18.5t-28.5 42.5zM68 477q0 -20 11 -20t11 20h-22zM69 513q0 -20 12 -20q15 0 15 20h-27zM76 446l5 -1q15 0 15 10l-1 2zM76 525h24v9 q-22 0 -24 -9zM81 427h14v6h-14v-6zM87 42q0 -17 20 -17q19 0 19 23v1l-1 1q-3 -1 -25 -12l-2 1q-2 1 -3 1v4l7 4q8 3 14.5 7t8.5 8q-2 7 -17 7q-10 0 -15.5 -10t-5.5 -18zM94 542q14 0 22.5 11t8.5 28q-12 -4 -21.5 -15.5t-9.5 -23.5zM100 414h3q3 -1 4 -1q10 0 13 7 q-5 8 -10 8q-6 0 -10 -14zM111 398q0 -1 2.5 -2.5t6 -3t5.5 -3.5q15 0 15 20q-9 0 -18.5 -3t-9.5 -7zM130 26h14l-6 5q19 13 19 25q-27 0 -27 -30zM138 595q0 -2 8 -2q10 0 26.5 8.5t16.5 17.5q-13 0 -32 -7.5t-19 -16.5zM144 385h27q0 5 -6 8.5t-12 3.5q-3 0 -9 -12z M157 26q18 -7 25 -7q11 0 18 10t7 22q-50 0 -50 -25zM174 371q3 -3 12.5 -7.5t13.5 -4.5q2 0 7 4.5t5 7.5l-7 6zM215 13h52q3 0 6 7q0 24 -25 24q-21 0 -27 -6.5t-6 -24.5zM217 366q0 -3 0.5 -5t1.5 -3.5t2.5 -3t3 -2t4 -1t4.5 -1t4.5 -0.5h4.5h5h4q0 16 -34 16zM236 625 q7 -7 12 -7q6 0 14 3.5t8 8.5q-16 0 -34 -5zM279 38q0 -11 10 -18.5t21 -7.5q17 0 19 8q27 4 40.5 6.5t39.5 10.5t39.5 22.5t15.5 34.5q-7 6 -19 6q-3 0 -16 -25.5t-29 -25.5l-6 3q-6 4 -10 4q-13 0 -37.5 -3.5t-33.5 -3.5q-18 0 -21 1q-11 -6 -13 -12zM279 334 q13 -13 26 -13q1 0 3 0.5t3 0.5q-26 12 -32 12zM279 627q0 -10 15 -10q21 0 22 8q5 -21 24 -21q12 0 13 8l19 -18l19 18v-20l5 2q4 1 11.5 4.5t13.5 6.5q1 0 3.5 -0.5t3.5 -0.5q0 -5 -3.5 -15t-3.5 -14q0 -14 19 -19l13 49q0 8 -68.5 20t-98.5 12q-1 0 -4 -4t-3 -6zM311 26 v5q2 1 3 1q2 0 8 -6h-11zM340 310l8 -7l5 7h-13zM360 297q22 -27 43 -27v9h-6q6 3 6 10q0 15 -22 15q-20 0 -21 -7zM402 583q1 -1 1 -2l12 13h-3q-3 -1 -6.5 -4.5t-3.5 -6.5zM413 261h43q0 12 -25 12q-18 0 -18 -12zM434 229l30 -12q-14 -2 -14 -16q9 0 19 6.5t15 12.5t5 8 q0 20 -25 20q-3 0 -16.5 -4.5t-13.5 -7.5v-7zM450 109q35 0 35 48q-7 0 -17 -5.5t-10 -11.5t6 -16q-14 -2 -14 -15zM458 183q0 -10 14 -10q13 0 19 6t6.5 11.5t0.5 22.5q-10 0 -25 -10.5t-15 -19.5z" />
<glyph unicode="T" horiz-adv-x="540" d="M13 585q0 11 10 28.5t10 32.5l1 2l3.5 3.5t5 3.5t8 3t12.5 2t18 1v-9q59 0 177.5 -3.5t178.5 -3.5q39 0 59 1q12 -4 12 -28q0 -30 -6 -39q-7 -1 -40.5 -4t-40.5 -3q-20 -1 -55 -9t-56 -9q-7 -26 -7 -78q0 -46 4 -135t4 -135q0 -48 -3 -98.5t-3 -78.5q0 -2 -0.5 -7.5 t-1 -8t-1.5 -6.5t-2.5 -6t-4 -4.5t-7 -3.5t-9.5 -1q-4 0 -11 3.5t-11 3.5l-5 -1q-5 -2 -12 -3.5t-10 -1.5q-4 0 -14.5 8t-10.5 10l3 512v37q0 15 -88 15q-6 0 -20 -0.5t-21 -0.5q-66 0 -66 11zM63 606q51 0 62 16q-4 0 -31.5 6.5t-30.5 6.5v-29zM125 611q6 0 18 -0.5 t19 -0.5q32 0 32 9t-20 9q-25 0 -49 -17zM205 611q2 -8 13 -8q13 0 18.5 3.5t11.5 15.5q-1 0 -7.5 1t-8.5 1q-22 0 -27 -13zM224 137q0 -4 6.5 -10.5t8.5 -6.5q0 13 16 27t18 25h-3q-10 0 -28 -10.5t-18 -24.5zM229 264q0 -10 7 -12q30 27 37 43q-16 0 -30 -8.5t-14 -22.5z M229 344q0 -17 7 -18q18 16 30 37l-4 6q-33 0 -33 -25zM230 41q5 -5 10 -5q6 0 21 26t15 36h-10v17l-30 -11zM236 190q2 0 3.5 2t2.5 4l1 3l-1 4q-6 -3 -6 -13zM236 215q21 7 30 16t9 27q0 15 -2 19l-37 -49v-13zM236 394q19 16 19 30l-1 6q-18 -1 -18 -36zM236 517 q8 0 19.5 14t11.5 27q0 2 -4.5 5t-8.5 3q0 14 3 24.5t6 15.5l3 5v-22q11 0 25 12t14 24q-63 0 -63 -38q0 -14 3 -24t3 -15q0 -3 -5 -14t-7 -17zM242 172l37 18q1 5 1 8q0 15 -7 17zM242 300q32 0 32 19q0 13 -8 25q-24 -16 -24 -44zM248 24q19 4 19 17q0 1 -1 4v3 q-15 -15 -18 -24zM248 387h14v25zM248 444l6 -2q13 0 13 24l-1 4v9v8q-17 -40 -18 -43zM253 127q13 0 18.5 5.5t7.5 20.5q-2 1 -3 1q-7 -3 -15 -11t-8 -16zM254 80l8 5v-5h-8zM254 505q6 2 10.5 5t7 8.5t4.5 9t2.5 11t0.5 10.5v12v11q-1 -3 -6.5 -21t-6.5 -21 q-1 -5 -6.5 -13.5t-5.5 -11.5zM316 603h6v12h-6v-12zM335 603h43q1 0 4 4t3 6q0 10 -25 10q-2 0 -11 -0.5t-14 -0.5v-19zM397 615l5 -4h72q0 11 -29 11q-47 -7 -48 -7z" />
<glyph unicode="U" horiz-adv-x="667" d="M57 640q0 18 54 18q38 0 38 -18q-18 -55 -18 -174q0 -42 12 -56q0 -4 0.5 -22t0.5 -21q0 -26 -3 -44t-3 -24q0 -15 9.5 -47t9.5 -47q0 -8 -1 -11l56 -74q3 -3 17 -9.5t19 -14.5q22 0 75 -10.5t77 -10.5q23 0 34.5 3.5t18.5 17.5q43 52 55.5 100.5t12.5 123.5q0 48 -4 133 t-4 129q0 70 26 70q9 -8 61 -8l6 -6q0 -20 3 -56t3 -54q-3 -66 -6 -93q7 -13 7 -35q0 -8 -3.5 -22t-3.5 -23t3 -25t3 -25q-9 -161 -37 -217q-4 -8 -10.5 -19t-13 -20t-6.5 -10q-9 5 -19 -5q-8 -11 -20 -12t-18 -13l-98 -14q-7 0 -13 4t-12 4q-10 0 -17 -7v9q-7 0 -19.5 -0.5 t-17.5 -0.5q-67 0 -101 11t-72 55q-43 49 -57 93l-1 11q-1 10 -3.5 20t-7.5 12q1 0 7 6q0 70 -9.5 214t-9.5 214zM80 612q0 -23 1 -23l13 -6l-6 -7v-73q0 -3 3.5 -5.5t5.5 -2.5q21 19 21 54q0 9 -5 9v61q0 2 -4.5 5.5t-9.5 5.5l-5 2q-14 0 -14 -20zM88 334q0 -11 7 -11 q3 0 5 1q-2 -2 -3 -4t-1.5 -4.5t-1 -4t-0.5 -2.5l-1 -1q0 -8 13 -15q-13 -5 -13 -27q0 -20 7 -29t26 -9q0 6 -4 17t-4 17q0 10 3.5 29t3.5 28q0 10 -3.5 18t-3.5 16q0 19 6 69l-36 -38q0 -12 18 -17q-12 -5 -15 -11t-3 -22zM88 459q0 -1 6 -9t6 -9q0 -3 -3.5 -10t-3.5 -12 q0 -1 1 -5v-4q24 18 24 43q0 5 -5 18.5t-10 13.5q-3 0 -9 -10t-6 -16zM93 206q0 -7 6.5 -19.5t6.5 -23.5q2 0 18.5 -3t18.5 -3l-25 -13q0 -13 23 -46.5t48 -33.5q7 0 15.5 4.5t8.5 11.5q0 9 -15 9q-4 0 -10 -1l-7 -1v30h-32q11 0 18 8t7 19h-12q-3 12 -15.5 25t-15.5 19 q-3 5 -3.5 14t-4.5 13t-17 4t-13 -13zM211 49q1 -3 1 -4q27 -24 108 -24q12 0 25 3.5t20 3.5q11 0 33.5 -4t34.5 -4q18 0 41 11t33 14q-2 3 -19.5 11t-26.5 8q-5 0 -35 -11t-35 -14q0 1 1 1v2q0 4 -4 7.5t-7 3.5q-5 0 -13 -4t-15 -4l6 8h-6q-3 0 -23 -7.5t-25 -11.5 q0 19 -11 19q-5 0 -16 -3t-17 -3v19q-13 0 -31.5 -4.5t-18.5 -12.5zM481 73q18 0 27.5 -5t17.5 -5q7 0 13.5 5t6.5 12q0 8 -17 12t-28 4q-4 0 -12 -9t-8 -14zM507 108q9 0 21.5 -3.5t20.5 -3.5t12.5 8.5t4.5 16.5h-53q0 -9 7 -13zM526 144l43 -5q3 0 7.5 8t4.5 16l-8 1 q-3 0 -25 -5.5t-22 -7.5v-7zM531 169q3 -3 10 -3t9 3q0 3 -9 3q-10 0 -10 -3zM535 240l1 -8q1 -7 3 -13.5t6 -6.5q28 0 49 75q-12 6 -32 6q-18 0 -18 -14q17 0 25 8l1 -4h1q0 -2 -9.5 -12.5t-16.5 -15.5q2 -4 24 -15h-34zM536 181h45v44q-45 -30 -45 -44zM538 483 q17 0 36.5 23t19.5 40l-6 67q0 5 -31 13l12 6q-5 1 -6 1q-14 0 -14 -10q0 -3 14 -10q-22 -13 -22 -28q40 0 40 -9l-13 -20q-12 -21 -12 -29h17q0 -10 -17.5 -16.5t-17.5 -27.5zM544 314q0 -9 19 -9q9 0 13.5 0.5t8.5 5t4 12.5q0 19 -11 19l-8 -4q-9 -4 -17.5 -11t-8.5 -13z M544 354q0 -13 9 -13q3 0 19 12.5t16 13.5v61q-44 -31 -44 -39q0 -5 8.5 -12t8.5 -12h-5h-5t-3.5 -1t-3 -3.5t-0.5 -6.5zM544 555q0 -8 1 -9l18 18q0 1 -2.5 3.5t-3.5 2.5q-9 0 -11 -3.5t-2 -11.5zM549 431q0 -8 1 -9q34 15 34 25h-4.5h-5h-5t-5.5 -0.5t-4.5 -1.5t-4 -2 t-3.5 -2.5t-2.5 -4t-0.5 -5.5zM557 466h7l5 -1q13 0 16.5 4t3.5 18q0 1 -0.5 7.5t-0.5 8.5q-20 -17 -31 -37z" />
<glyph unicode="V" horiz-adv-x="630" d="M5 633q0 6 6.5 12.5t13.5 6.5h67q6 0 6 -15q0 -10 2.5 -21.5t4.5 -19.5t8 -22.5t8.5 -20t10.5 -21t9 -17.5q5 -10 40.5 -116.5t72 -198.5t52.5 -92q4 0 34.5 77.5t30.5 85.5q0 1 -0.5 2t-0.5 2q17 50 61.5 175t67.5 194q5 14 49 14h7h8h7.5t7.5 -0.5t6.5 -1t6 -1.5 t4.5 -2.5t3 -3.5t1 -5q-43 -142 -75 -209q1 0 3.5 -2.5t2.5 -4.5q0 -13 -16 -51.5t-16 -56.5q0 -6 1 -9q-8 -16 -28.5 -69t-38.5 -79q-6 -9 -14 -38.5t-16 -52.5t-15 -23q0 -29 -17.5 -40.5t-36 -13t-19.5 -4.5h-46q0 7 -15.5 12.5t-18.5 11.5q-5 22 -14 47t-15.5 39 t-23 46.5t-20.5 40.5q-19 38 -37.5 120t-36.5 120q-7 7 -12.5 16.5t-10.5 22.5t-8 21t-7.5 25t-5.5 21q-2 7 -15.5 44.5t-14.5 41.5q-8 3 -8 13zM43 620q0 -7 6 -25.5t12 -33.5l6 -15q5 0 13 5t8 11q-9 13 -15 15q7 2 7 12q0 11 -7.5 22t-17.5 11t-12 -2zM73 503q1 -2 5 -6 t7.5 -6.5t3.5 -1.5q20 0 20 22q-28 0 -36 -8zM73 518h6q26 0 26 13q-2 12 -7 21q-25 -9 -25 -34zM98 468q0 -4 3 -6.5t9 -5.5l7 -3q-2 0 -7 -4.5t-5 -6.5q0 -15 17 -15q6 0 8 1q-7 -7 -7 -24h26q0 11 -5 20t-10 14t-5 6l1 3q2 3 3 7t2 6l-18 36q-19 -14 -19 -28zM129 392 q0 -16 8 -27.5t24 -11.5l5 1h7q-22 22 -22 38h-22zM141 342q6 -8 10 -24.5t10 -24.5q19 0 19 28q0 14 -4.5 18t-13.5 4q-1 0 -8 -0.5t-13 -0.5zM166 272q0 -11 18 -11q3 0 9.5 0.5t10.5 0.5q-3 29 -13 43q-25 -19 -25 -33zM170 250q0 -14 4.5 -26t4.5 -22v-8q3 6 10 6 q6 0 17.5 -4t15.5 -4v34h-25q10 2 10 24h-37zM196 173q0 -30 45 -30q0 12 -6 25.5t-15 13.5q-24 0 -24 -9zM216 132q4 -9 11.5 -24t13 -25t5.5 -11q0 -19 15 -19q21 0 28 6q-20 11 -43 73h-30zM264 31q0 -9 10 -9q15 0 47 43q-4 -3 -12.5 -7t-15.5 -7.5t-14 -7.5t-11 -7 t-4 -5zM321 45q11 0 27.5 14t16.5 25l-2 2q-2 0 -7 -5t-14.5 -13.5t-20.5 -14.5v-8zM327 27h25v8zM352 53q3 0 8 3t5 5q0 1 -0.5 2t-0.5 2zM356 91q21 0 26 22q-4 1 -6 1q-9 0 -14.5 -7t-5.5 -16zM358 120l24 12v7h-24v-19zM370 157q4 0 11 -0.5t10 -0.5q16 0 16 14z M370 168q5 0 12 7h-12v-7zM381 230q0 -3 0.5 -9t0.5 -8q75 32 75 67l-1 3v4q-55 -24 -55 -28q0 -3 6.5 -8.5t12.5 -6.5q-24 0 -31 6q-8 -7 -8 -20zM382 184q51 0 51 34q0 1 -1 4v4l-50 -32v-10zM405 278q16 0 51 21q-24 6 -31 6q-9 0 -14.5 -8t-5.5 -19zM420 333 q43 17 43 21q-30 7 -37 7q-5 -10 -6 -28zM426 324q0 -8 14 -8q25 0 31 4.5t6 23.5q-28 0 -51 -20zM433 379q0 -6 4 -6q6 0 6 6t-6 6q-4 0 -4 -6zM437 392q12 0 31 7t26 18q-3 1 -7.5 2t-9 2.5t-8.5 3t-7 2.5l-3 1q-6 0 -9.5 -7t-6.5 -16.5t-6 -12.5zM445 373q0 -7 12 -7 q17 0 23 4t8 13.5t6 14.5q-3 0 -21.5 -9t-27.5 -16zM463 442q4 0 16.5 -7t16.5 -7q6 0 11.5 14.5t7.5 28.5l3 14q-31 -15 -55 -43zM471 477q18 0 35 19q-11 7 -18 7q-17 0 -17 -26zM494 515q16 -7 25 -7t14 9t5 19q0 1 -0.5 5.5l-0.5 4.5q-34 -22 -43 -31zM498 539 q11 0 28 9t17 19q0 2 -2 4t-6 3.5t-5 2.5q3 7 13 7q1 0 3 -0.5t3 -0.5q15 30 15 43h-38q0 -15 -14 -42.5t-14 -44.5z" />
<glyph unicode="W" horiz-adv-x="918" d="M9 638q0 20 60 20q52 0 52 -14l-1 -6q0 -7 -1.5 -15t-5.5 -11l2 -2q2 -2 4 -6t2 -10q12 -68 45.5 -166.5t41.5 -128.5v-6l50 -154q0 -2 1 -2q2 0 9 8.5t7 11.5l81 289v25q0 8 30 105q11 38 20 68q14 14 52 14q83 0 83 -14q0 -8 -9.5 -17t-9.5 -18q0 -20 20 -70t23 -61 q56 -115 56 -161l37 -99q-1 -2 -1 -5q0 -11 9 -25.5t17 -18.5q21 34 43.5 157.5t41 228t31.5 107.5q7 0 16.5 -3t21.5 -3q9 0 22 6.5t18 6.5q8 0 15 -11t7 -18q0 -4 -6.5 -17.5t-6.5 -14.5q-20 -82 -20 -145q0 -16 1 -22q-20 -64 -36 -124q-2 -5 -15.5 -54t-24.5 -86.5 t-26 -83.5t-27.5 -72t-20.5 -26q-15 0 -44.5 7.5t-43.5 7.5q0 4 -5.5 10t-8.5 7l-31 99q1 2 1 6q0 12 -16.5 45t-16.5 47q0 5 1 7l-50 161q0 4 7 11l-12 7q0 1 -4 12.5t-8.5 24t-10 26.5t-10.5 22.5t-8 8.5q-6 0 -27 -101q-1 -4 -17.5 -63t-31 -106t-33.5 -105.5t-34.5 -92 t-25.5 -33.5q-8 0 -29 4.5t-21 8.5l-4 -2q-4 -2 -10.5 -4t-12.5 -2q-13 0 -35.5 58t-36.5 109l-30 112l1 2v3q0 11 -17 53t-17 59q0 1 0.5 3t0.5 3q-21 63 -36 117q-1 2 -16.5 46.5t-15.5 64.5zM34 619q7 -9 15.5 -33.5t9.5 -27.5q7 -12 12 -43q14 1 25 12q-1 -1 -12 -11.5 t-13 -12.5v-3q0 -11 7.5 -29t17.5 -18q2 0 9 3t10 3q-13 -7 -13 -21q0 -11 14 -11q3 0 5 1q-19 -15 -19 -22l-1 -1q0 -1 1.5 -3t3.5 -5t3 -5q30 21 30 46q0 8 -12 28q-7 10 -13 50.5t-18 71.5t-37 31v7q-14 0 -25 -7zM113 364h32q-1 -1 -7 -3.5t-8.5 -4.5t-5.5 -5.5t-3 -8.5 q0 -41 24 -80q9 0 17.5 10t12.5 18.5t4 10.5h-40v10h31v27q-5 0 -11.5 -6.5t-10.5 -6.5q0 8 5.5 21t5.5 21q0 7 -7 25.5t-10 18.5q-17 0 -29 -47zM149 240h28l-24 -15q4 -6 6.5 -19t8 -19.5t18.5 -6.5q22 0 22 14q0 19 -13 24q-1 -5 -7 -11.5t-8 -6.5h-1q-1 1 -2 1 q13 36 13 43q0 31 -11 31q-8 -5 -15.5 -13t-11 -13.5t-3.5 -7.5v-1zM169 154q0 -15 8 -15q10 0 21 11.5t11 20.5q0 1 -1 3v1l-38 -6q-1 0 -1 -10v-5zM184 112h11q14 0 19.5 5.5t5.5 26.5q0 12 -6 13q-30 -18 -30 -45zM195 99q0 -9 13 -22q6 0 24 6l-12 -19q5 -1 6 -1 q22 0 67 25q51 139 69 191v14q-22 -7 -41.5 -83.5t-27.5 -89.5q-5 -8 -17.5 -20t-21.5 -12q-10 0 -16 10t-13 10q-30 0 -30 -9zM232 53q6 -14 43 -14q13 8 13 31q-24 0 -56 -17zM349 299q18 10 25.5 22t7.5 34q-33 0 -33 -56zM361 370q0 -7 7 -10q23 18 30 43q-25 0 -25 -11 t7 -13q-4 0 -11.5 -3.5t-7.5 -5.5zM373 410q33 0 33 18l-13 7q4 -2 6 -2q19 0 19 35q-19 0 -32 -19t-13 -39zM386 471q31 0 31 16q0 4 -11 4q-12 0 -16 -3.5t-4 -16.5zM398 503h26v13q-15 0 -26 -13zM398 520q2 0 32 14q-3 6 -13 6q-11 0 -19 -20zM416 550q19 0 25 14 q2 -8 13 -16.5t19 -8.5q11 0 19 19q7 -7 7 -9t-7.5 -10.5t-12.5 -11.5q0 -9 44 -9q0 23 -14.5 59.5t-32.5 36.5q-21 0 -35 -13l13 12q0 1 -5 3.5t-8 2.5q-20 0 -20 -43h15q-20 -16 -20 -26zM492 503q0 -7 6 -7q3 0 9.5 4.5t8.5 7.5h-3l-3 1q-10 0 -18 -6zM502 481 q0 -11 18 -11q12 0 14 1q-17 -9 -24 -18q3 -8 12 -8q8 0 14 8.5t6 17.5q0 15 -14 37q-26 -26 -26 -27zM527 416h33l-1 6q-1 7 -3 14.5t-6 10.5q-8 0 -15.5 -11.5t-7.5 -19.5zM528 392q0 -3 5 -5.5t8 -2.5q17 17 18 19q-4 2 -12 2q-19 0 -19 -13zM539 338q-1 0 5.5 -6.5 l14.5 -14.5q19 11 19 24q0 11 -6 13q5 5 5 10q0 6 -4 13.5t-11 7.5q-5 0 -13.5 -9.5t-8.5 -11.5q0 -1 3.5 -7t3.5 -9l-3 -3t-3 -3.5t-1 -3.5h-1zM559 299q6 -7 18 -12q-13 -11 -13 -21q12 0 18.5 10t20.5 11l-14 43q-12 0 -30 -31zM577 225q0 -5 3.5 -12.5t6.5 -7.5 q11 0 21.5 14t10.5 26q-42 0 -42 -20zM577 249q20 0 29 5t9 22q-3 0 -5.5 -0.5t-5 -1.5t-4.5 -1.5t-4 -2.5t-3.5 -3t-4 -4t-3.5 -4t-4 -5t-4 -5zM596 190q0 -6 7 -9h4.5h5h4.5t4.5 0.5t4 1t3.5 2t2.5 3t2 3.5t0.5 5q0 20 -13 29q-25 -31 -25 -35zM603 167q0 -23 12 -28 q25 25 25 42q-3 -1 -12.5 -3.5t-17 -5t-7.5 -5.5zM621 108q0 -17 5.5 -21.5t19.5 -4.5h6q5 1 6 1l-12 5q13 23 13 26q-19 0 -38 -6zM623 125q29 0 29 16q0 15 -6 16q-23 -13 -23 -32zM639 69q0 -5 5 -18t11 -13q2 0 3 1l36 31v8q-10 0 -28 -4.5t-27 -4.5zM687 31 q21 0 27 10.5t6 31.5q-14 0 -23.5 -13.5t-9.5 -28.5zM694 96q40 0 50 43q-4 -2 -12.5 -9.5t-19.5 -18t-18 -15.5zM708 139q0 -7 5 -7q22 0 36 24t14 45q-45 -36 -45 -42q0 -2 5.5 -5t8.5 -3q-19 -3 -24 -12zM725 189q16 0 38 29h-38v-29zM739 236q0 -6 15 -6q34 0 34 49 q-13 -3 -31 -17t-18 -26zM744 268l3 -1q5 0 11.5 7t6.5 13q-13 0 -21 -19zM756 305q0 -1 3 -3.5t4 -2.5q27 0 38.5 13t11.5 42q-19 -8 -57 -49zM763 330q6 7 21 18t22 19h-7q-22 0 -29 -6.5t-7 -30.5zM768 377q36 0 49.5 10t13.5 48q-4 -3 -15 -11.5t-17.5 -13.5t-14.5 -12 t-12 -12.5t-4 -8.5zM769 414q11 0 20 5t19.5 14.5t15.5 12.5q-1 0 -8.5 0.5t-9.5 0.5q-18 0 -27.5 -10.5t-9.5 -22.5zM774 490v-3l1 -3q13 5 33 16.5t23 14.5h-43q-5 0 -9.5 -9.5t-4.5 -15.5zM781 466q6 -4 12 -7q28 0 39.5 11t11.5 38h-7zM792 564v-6q1 -5 1 -7 q39 24 50 38h-3q-48 0 -48 -25zM799 526q57 0 57 41q0 2 -2.5 5.5t-4.5 3.5q-3 -3 -18 -12t-23.5 -18t-8.5 -20zM799 594q40 0 50 7v24q-20 0 -43 7q-7 -2 -7 -13q0 -6 3.5 -8t3.5 -3q0 -9 -7 -14z" />
<glyph unicode="X" horiz-adv-x="605" d="M1 31q0 10 15 25.5t18 20.5q9 15 50 72.5t74 110t36 76.5q0 11 -11.5 29.5t-29 40.5t-21.5 29q-1 3 -30 49q3 8 -43.5 78t-55.5 76q9 20 59 20q8 0 22 -0.5t18 -0.5q36 -82 86 -123v-16q7 0 13 -9t12 -9v-10q3 -2 29 -35.5t30 -34.5q2 0 12.5 13t14.5 20q2 3 12 26.5 t26 28.5q13 12 59 81t57 73q25 7 60 7q27 0 27 -21q0 -8 -80 -128h-1q-1 1 -2 1q-8 0 -23 -24.5t-17 -25.5l-7 7q-4 -7 -10 -24t-14 -26q-3 -3 -23 -22t-29.5 -33t-9.5 -28q0 -23 27.5 -61t52.5 -59l-5 -7q23 -3 104 -135q8 -12 43 -62q0 -17 -4 -21.5t-15 -4.5 q-37 0 -61.5 10t-34.5 21.5t-27 38.5t-31 43l-32.5 32.5t-35.5 40.5q-6 9 -16 30.5t-18 36t-12 14.5h-4q-11 -34 -44 -91.5t-41 -57.5q-44 -111 -74 -111q-28 0 -61.5 7t-33.5 22zM52 634q0 -16 19 -39.5t19 -39.5q11 0 16.5 -9.5t6 -20.5t4.5 -20.5t13 -9.5q17 9 21 13 q-15 -20 -15 -37h34q-20 -6 -20 -18q0 -7 9 -16t23 -9q5 0 12 7q0 -7 -6 -19l13 -6q-2 0 -5 -4.5t-3 -5.5q0 -2 16.5 -20t16.5 -32q0 -18 -7 -24q10 0 28 19.5t18 29.5q-1 0 -12 -2.5t-15 -2.5l13 11l-20 37h-12l6 14q0 7 -18 26t-19 22q0 1 -1 11t-4 18t-8 8q-1 0 -7.5 -2 t-7.5 -2q0 4 -0.5 6.5t-2.5 5t-3.5 3.5t-5 2.5t-5.5 2t-7.5 1.5t-8.5 2q19 4 19 15q0 8 -12.5 11t-13.5 4q-12 11 -17.5 30.5t-14.5 29.5t-36 10zM64 53q1 -8 15 -8t27.5 15.5t13.5 32.5q0 1 -1 3.5t-2.5 6t-2.5 5.5q4 0 15.5 11t11.5 15q-18 0 -21 -8q0 1 -2.5 3.5 t-3.5 2.5q-17 0 -25 -24l13 -7q-7 -2 -12 -5q3 -1 3 -7t-4 -6t-4 6v3q-6 -7 -10 -16.5t-6 -16t-5 -6.5zM95 83l4 1q2 0 9 -7l-1 -1h-2q-3 0 -10 7zM118 144h33q-5 2 -5 12v7q0 -3 4 -4.5t8 -1.5h5q3 0 8 2.5t5 3.5v38q0 -3 2 -5t4 -2l3 -1q16 17 34.5 50.5t18.5 56.5 q0 11 -19 11q-1 0 -10 -17.5t-9 -18.5q0 -5 3.5 -12.5t3.5 -13.5q-2 6 -13 6q-4 0 -12 -11q-64 -96 -64 -100zM237 367l1 1zM255 293h6q34 0 38 12q-2 19 -9 19q-9 0 -22 -11t-13 -20zM255 317h4q4 0 15.5 7.5t11.5 11.5q-2 1 -3 1t-7 -3.5t-13 -8.5t-8 -8zM286 279l13 -11 q8 2 8 20q-17 0 -21 -9zM304 258q5 -10 11 -10q2 0 5.5 3t3.5 4t-6 13q-5 0 -9.5 -3.5t-4.5 -6.5zM341 218l1 -3q0 -3 1 -3q10 0 12 6q0 12 -6 18q-8 -8 -8 -18zM355 478q8 -7 19 -7t17 13q0 1 -2 3.5t-3 2.5q-27 0 -31 -12zM372 161q9 0 14 8l-7 6q-7 -3 -7 -14zM417 120 h17q-6 6 -17 6v-6zM417 527q4 -1 6 -1q9 0 11 8h-3q-9 0 -14 -7zM439 601q11 0 34.5 14t29.5 23q-2 0 -9.5 0.5t-8.5 0.5q-18 0 -32 -10t-14 -28zM460 39q0 -6 21 -6q1 0 5 0.5t5 0.5l-4 8t-5.5 10t-6 9t-7.5 7.5t-8 2.5v-32z" />
<glyph unicode="Y" horiz-adv-x="578" d="M-10 563q0 7 10.5 11.5t10.5 9.5q0 10 -10 24.5t-10 22.5q0 5 31 11.5t48 6.5q8 0 45.5 -60.5t83.5 -120.5t73 -60q12 0 41 45.5t60 99t45 65.5q4 -3 8 -11t13 -8q19 0 27 19q-3 6 -14.5 12.5t-11.5 18.5h83q6 0 6 -16q0 -5 -17 -14t-20 -13q-102 -154 -117 -191 q-7 -11 -24.5 -31.5t-27.5 -38.5t-10 -39q0 -3 5 -8l-5 -7v-203q-8 -19 -8 -51q0 -19 2 -35q-7 -7 -13 -7q-7 0 -17.5 3t-22.5 3q-46 0 -46 25v209q-13 13 -13 17q0 6 7 21.5t7 26.5q0 21 -5 32t-21 26t-24 25q-13 16 -34 48.5t-21 40.5q-10 0 -16.5 8t-12 21.5t-9.5 18.5 q-7 9 -24.5 26t-18.5 17h-33zM15 610q0 -18 13 -18q11 0 20 8l-7 -11q1 0 5 -0.5t5 -0.5q28 0 28 8q0 22 -44 22q-4 0 -19 -5zM53 569q13 -13 17 -13q10 0 21 25h-7q-25 0 -31 -12zM78 542h19l-6 -16q2 -1 3 -1q4 0 13 9t14 10q-3 7 -12 13t-12 6q-6 -8 -19 -21zM103 514 q0 -9 10.5 -14.5t10.5 -9.5q0 -2 -3 -7q4 -5 19.5 -17t25 -23.5t9.5 -23.5q15 0 15 14q0 5 -7 14t-7 14q0 3 1 4q-35 25 -42 55h-10q2 3 2 5q0 1 -4.5 4t-6.5 3q-3 0 -6 -4.5t-5 -9.5zM189 408q1 -5 1 -6q5 0 12 3.5t7 5.5q0 3 -3.5 7.5t-7.5 4.5q-9 0 -9 -15zM213 390 q0 -11 7 -12q7 1 7 12h-14zM235 171q26 0 35 27h-5l-4 1q-15 0 -20.5 -6t-5.5 -22zM244 63l20 19h-20v-19zM244 124q16 3 16 13q-16 0 -16 -13zM251 230h32q8 8 8 70q-9 0 -12.5 -7.5t-4 -18t-6 -23.5t-17.5 -21zM270 112q19 0 19 10l-1 2q-12 -2 -18 -12zM312 390h6 q2 0 20 25l2 8q-10 0 -19 -11.5t-9 -21.5zM344 431q4 0 16.5 20t27.5 45.5t18 29.5q14 23 25 37q-16 0 -23.5 -7t-12 -22t-7.5 -20q-27 -46 -44 -68v-15z" />
<glyph unicode="Z" horiz-adv-x="542" d="M24 15q0 9 16.5 33t38 51.5t26.5 37.5q30 54 103 170t107 182q25 47 25 73q0 36 -56 36q-44 0 -113.5 -4.5t-105.5 -4.5q-10 0 -10 4v49q0 2 4.5 4.5t7.5 2.5q9 0 28.5 -4t35.5 -4q34 0 53 8l260 -1l40 9q7 0 15 -23l-1 -3q-14 -14 -26.5 -29t-25.5 -34.5l-20 -30 t-23 -37.5t-21 -35q-6 -9 -15 -30.5t-18.5 -38t-22.5 -24.5l-68 -124q-8 0 -53.5 -70.5t-45.5 -80.5q0 -17 103 -17q36 0 88 2q6 -7 44 -7q3 0 6 7h74q14 0 14 -42q0 -45 -21 -45q-23 0 -66 6t-62 6q-24 0 -72.5 -3t-89.5 -3q-7 0 -20 0.5t-23 0.5h-11l-7 5h-55q-1 -4 -8 -8 t-10 -4q-6 0 -12.5 6.5t-6.5 13.5zM83 44q11 0 33 6q0 7 -9 7q-24 0 -24 -13zM98 82l7 -6l18 17l-7 7zM105 33q50 0 62 17q-2 0 -8.5 0.5t-7.5 0.5q-21 0 -46 -18zM123 112h6v7zM135 131l13 12l-3 1q-3 0 -6.5 -4t-3.5 -9zM152 155h15v14q-15 0 -15 -14zM159 33q4 1 16.5 2 t23.5 3t16 6q-6 7 -26 7q-22 0 -30 -18zM171 193q0 -1 1 -4v-3q6 4 12 20h-3q-10 0 -10 -13zM190 220q1 -2 1 -3q14 2 14 14q-15 0 -15 -11zM203 242q16 4 67.5 81.5t51.5 93.5q-15 0 -88 -119q-20 -32 -31 -43v-13zM220 31q106 0 119 19h-105q-5 0 -9.5 -7t-4.5 -12z M319 433q0 -1 1 -4v-3q20 9 20 22q-21 0 -21 -15zM332 618q3 0 19 -2t19 -3q16 0 24 5q-1 7 -11 7q-18 0 -51 -7zM337 455q14 0 17.5 16t8.5 18l-5 1q-10 0 -15.5 -11t-5.5 -24zM345 39h49q7 0 7 12q-2 0 -10 0.5t-13 0.5q-31 0 -33 -13zM362 498q18 0 18 11q0 3 -2 5 q-16 0 -16 -16zM365 524q10 0 20.5 5.5t10.5 14.5q-31 0 -31 -20zM388 563q1 0 5 -1h4q16 0 16 16l-1 5v6zM400 606q7 -4 7 -13l24 13v7l-11 -7l5 12l-5 1q-14 0 -20 -13zM407 39h18v8q-17 0 -18 -8z" />
<glyph unicode="[" horiz-adv-x="340" d="M45 618h21v43q33 0 97 4.5t96 4.5v-7h29q0 -8 3.5 -11.5t3.5 -4.5q-1 0 -4 -7t-5 -18.5t-2 -19.5h-134v-105q-14 -230 -14 -379q0 -67 14 -67t69 -5q15 -1 25.5 -8t14.5 -7l5 10q25 -20 25 -51q0 -20 -37 -20q-18 0 -29 5h-141l-10 5q-1 1 -2 20.5t-2.5 45.5t-1.5 41 q-5 192 -5 257q0 31 8 92.5t8 93.5q0 2 -5.5 14t-5.5 16l6 18q-27 22 -27 40zM86 281q0 -20 12 -20q0 20 -12 20zM86 365h12q0 6 -6 10q-6 -5 -6 -10zM97 0h6q0 8 -6 10v-10zM97 441q7 -12 25 -21v6l1 4q0 15 -9 15t-17 -4zM100 238q0 -7 12 -19v19h-12zM102 552 q8 -15 20 -26v26h-20zM102 592q8 -12 20 -12v47q0 -23 -20 -35zM106 190q0 -7 6 -7v14q-6 0 -6 -7zM106 345q0 -14 12 -21q4 4 4 14q0 7 -16 7zM111 497q0 -7 5.5 -12.5t10.5 -5.5v18h-16zM133 0q1 -1 9 -1q17 0 17 18q-17 0 -26 -17zM173 0l5 -1q8 0 25 11v-11 q6 0 13.5 4.5t7.5 9.5q0 1 -2 4l-3 3h-35q-2 0 -4 -3t-3 -6.5t-3 -6.5zM229 0q8 -4 14 -4t6 9t-6 10zM229 627h35v6h-35v-6z" />
<glyph unicode="\" horiz-adv-x="538" d="M26 601l3 5q3 5 3 6t-2.5 3t-3.5 2q26 10 55 10q6 0 10 -6l82 -146l5 -5q30 -49 85.5 -167t101.5 -182q0 -6 2.5 -11.5t4.5 -5.5t4 2q4 -9 22 -40t18 -41q-2 -11 -17 -11q-65 0 -65 37q7 0 20 -2.5t21 -2.5q0 18 -15 30l-16 -16v8q-8 3 -15 3q-9 0 -10 -6l11 -40h-16 q-4 0 -25 55q-20 43 -43.5 86.5t-56 100.5t-46.5 82q-1 0 -3 2.5t-3 2.5l-96 191q-11 10 -11 31q0 8 2 10l9 5q-15 6 -15 10zM50 601q0 -11 12 -30q5 0 13 2.5t8 4.5q0 23 -33 23zM66 556q0 -9 5 -11l20 21q-25 0 -25 -10zM77 528h30l-20 -13v-6q8 0 16.5 7t8.5 14 q0 15 -15 26q-19 -12 -20 -28zM96 493h22q-12 -9 -16 -13q2 -5 6 -5q9 0 14 5q-1 -2 -3.5 -6t-4.5 -8l-3 -4q0 -13 32 -13q-3 0 -6.5 -0.5t-7 -2t-6 -2.5t-4 -2t-1.5 -2q0 -28 61 -28q0 11 -8.5 23.5t-17.5 13.5l5 6q1 0 -8 15t-19.5 30t-12.5 15q-4 0 -8.5 -3.5t-7 -7 t-4.5 -7.5zM137 404l10 -26h3q6 0 18 10t12 16h-43zM158 368q6 -11 29 -11q4 0 11 0.5t10 0.5q-6 24 -17 37q-6 0 -17 -9.5t-16 -17.5zM166 349q0 -6 8 -15t9 -16l36 -8h-26v-12q9 0 19.5 5t10.5 12q0 9 -5.5 21.5t-9.5 12.5l-20 -11l10 11h-32zM203 288q4 -11 25 -11 l-9 -10q3 -5 6 -5q2 0 5 5t4 5l3 -2q0 -3 -2 -9.5t-2 -11.5q0 -13 13 -13q14 0 14 9q-5 11 -14.5 32t-12.5 26q-2 1 -3 1q-13 0 -27 -16zM248 222l3 -2q3 -3 4 -3q10 10 10 16q-17 0 -17 -8v-3zM257 205q0 -10 13 -10q5 0 9 2q-13 -8 -13 -22q18 0 18 24t-12 24q1 0 1 -1 t-8 -7.5t-8 -9.5zM278 164q0 -9 22 -13q-14 0 -14 -16q13 0 18.5 6t5.5 21l-7 10q-7 10 -11 10q-2 0 -8 -7.5t-6 -10.5zM305 117q0 -13 7 -25.5t22 -12.5q21 0 21 11q0 1 -31 51q-5 0 -12 -7t-7 -17z" />
<glyph unicode="]" horiz-adv-x="340" d="M-7 647q0 1 3.5 4.5t3.5 11.5h29v7q32 0 96 -4.5t97 -4.5v-43h21q0 -18 -27 -40q0 -1 2 -5t3 -8t1 -5q0 -4 -5.5 -16t-5.5 -14q0 -32 8 -93.5t8 -92.5q0 -39 -2.5 -129t-2.5 -128q0 -15 -1.5 -41t-2.5 -45.5t-2 -20.5l-10 -5h-141q-11 -5 -29 -5q-37 0 -37 20q0 31 25 51 l5 -10q4 0 14.5 7t25.5 8q55 5 69 5t14 67q0 149 -14 379v105h-134q0 5 -1 11.5t-2 12.5t-2.5 11t-3 7.5t-2.5 2.5zM24 627h35v6h-35v-6zM39 5q0 -9 6 -9t14 4l-14 15q-6 -1 -6 -10zM64 13q0 -5 7.5 -9.5t13.5 -4.5v11q16 -11 25 -11q4 1 5 1l-1 4q-2 3 -3 6.5t-3 6.5t-4 3 h-35l-3 -3q-2 -3 -2 -4zM129 17q0 -18 17 -18q8 0 9 1q-9 17 -26 17zM161 479q5 0 10.5 5.5t5.5 12.5h-16v-18zM165 433q0 -1 0.5 -5t0.5 -8q18 9 25 21q-8 4 -17 4t-9 -12zM166 338q0 -10 4 -14q12 7 12 21q-16 0 -16 -7zM166 526q12 11 20 26h-20v-26zM166 580q12 0 20 12 q-20 12 -20 35v-47zM176 183q6 0 6 7t-6 7v-14zM176 219q12 12 12 19h-12v-19zM181 405h15v10l-3 1q-1 0 -12 -11zM185 0h6l7 77q-2 -1 -7.5 -36.5t-5.5 -40.5zM190 261q12 0 12 20q-12 0 -12 -20zM190 365h12q0 5 -6 10q-6 -4 -6 -10z" />
<glyph unicode="^" horiz-adv-x="458" d="M21 415v86q4 3 11.5 15.5t13.5 15.5q15 7 38.5 29.5t41.5 41.5t21 20v-5q2 14 21 24.5t19 20.5q6 -2 6 -9q9 -14 31.5 -38t28.5 -24l55 -55q3 0 19.5 -24.5t16.5 -26.5q0 -13 -6 -37t-14 -24l-5 1l5 4q-5 2 -18 11.5t-13 12.5l1 1l-41 41v5q0 9 -28 27t-48 18 q-4 1 -44 -38t-62 -62q-3 -3 -10 -13.5t-14.5 -17t-16.5 -6.5t-9 6zM30 487q16 -22 18 -22q13 0 18 4t8 13t7 14q12 3 22.5 13.5t12.5 22.5q0 5 -7.5 12.5t-10.5 7.5q-13 0 -13 -8q0 -2 1 -3q-7 -12 -14 -18.5t-9.5 -7.5t-4 -5t-1.5 -14q-27 0 -27 -9zM116 560q0 -17 10 -23 q6 7 13.5 25.5t7.5 29.5q0 5 -5 5q-2 -7 -14 -17t-12 -20zM158 571q8 0 19 9.5t19 19.5l8 10q0 1 -4.5 3.5t-10 5.5t-6.5 4h-3q-22 0 -22 -52zM212 577q13 1 13 12q-11 0 -13 -12zM269 526q4 0 7 3.5t3 7.5zM272 501l7 -5l4 9q-1 1 -2 1q-9 -4 -9 -5zM294 476q6 -11 17 -11 q1 0 3 2t4 6t2 9q-16 0 -26 -6z" />
<glyph unicode="_" horiz-adv-x="689" d="M39 -35q0 25 62 25q254 8 385 8q8 0 51.5 -0.5t50.5 -0.5q8 -16 8 -43q0 -44 -31 -44q-90 0 -186 3l-186 -3l-11 7l5 5l-5 6q-9 -5 -13 -18q-88 3 -100 6q-29 13 -30 49zM73 -41q0 -19 16 -19h67l19 13l-12 6h-90zM178 -61h7h8.5t8 0.5t8 1t7 2t6.5 3.5t4 5.5t3 7.5h-15 q-37 0 -37 -20zM237 -53q2 0 12 -1t16 -1q14 0 15 8q-3 7 -24 7h-8l-5 -1zM287 -56q32 0 42 15q-3 7 -11 7q-31 0 -31 -22zM329 -53q16 0 41.5 -1t39.5 -1q55 0 68 26q-2 0 -8 1h-5q-20 0 -31 -13q0 1 -2.5 3.5t-3.5 2.5t-7 -3l-6 -3q-1 0 -5 1h-4l2 2q1 2 1 3q-6 6 -18 6 q-20 0 -26 -12q0 6 -5 6q-3 -1 -31 -18zM478 -47q14 -1 85 -13q15 0 15 20q-5 0 -10.5 -3t-10.5 -3v5h-31v8q-7 0 -27 -5t-21 -9zM502 -65v-8q10 0 18 8h-18z" />
<glyph unicode="`" horiz-adv-x="259" d="M22 686q0 29 11 29q32 -15 90 -44.5t73 -37.5q9 -5 9 -49h-21q-104 46 -130 56q-19 8 -25.5 16.5t-6.5 29.5zM48 677q1 -3 2 -4.5t3.5 -2t3.5 -0.5h4.5h4.5q-3 7 -18 7zM99 650q1 -3 1.5 -5t2 -3.5l2.5 -2.5t3 -1.5t3.5 -1t5 -0.5h5h6.5h8l-5.5 5.5t-5.5 4t-4.5 2.5 t-5 1.5t-4.5 0.5h-6h-6z" />
<glyph unicode="a" d="M25 140q0 13 7.5 41.5t13.5 41.5q22 32 82 47.5t106.5 25t46.5 29.5q0 30 -19.5 50.5t-54.5 20.5q-22 0 -56.5 -15.5t-48.5 -15.5q-26 0 -26 53q0 59 104 59q13 0 45 -5t44 -5q3 0 11 0.5t12 0.5q25 0 25 -19q24 0 24 -18q28 0 40 -46t12 -86q0 -26 -8 -76t-8 -75 q0 -6 2 -17.5t2 -17.5q0 -1 -0.5 -4t-0.5 -5q5 -10 6 -11q0 -7 10.5 -11.5t23.5 -7t23.5 -10t10.5 -19.5q0 -43 -25 -57q-31 10 -43 12q-10 2 -36 20t-28 18q-8 0 -22.5 -10t-18.5 -10q-50 -23 -83 -23q-63 0 -118 37.5t-55 107.5zM52 133l1 -3q3 0 8 3t5 5v2q-1 2 -1 3 q-3 0 -8 -4t-5 -6zM53 93q1 -3 4.5 -6.5t6.5 -5.5t4 -2q7 0 12 12t5 18q-25 0 -32 -16zM58 166q15 0 26 13q-10 7 -19 7q-7 0 -7 -20zM59 155h37q3 3 3 10q0 1 -5 1q-29 0 -35 -11zM65 117q21 0 21 15q-14 0 -21 -15zM77 199q2 -3 12 -8t13 -5q2 0 8 7.5t6 10.5h-27 q5 9 44.5 22t48.5 27h-4q-43 0 -45 -18q-5 -2 -14 -5t-14 -5t-11 -5.5t-10 -8.5t-7 -12zM84 75q15 2 15 14q-13 0 -15 -14zM102 430q0 -15 7 -22q11 0 35.5 7.5t31.5 17.5l10 -8q1 0 6.5 4t8.5 4q11 0 26.5 -4.5t28.5 -4.5q0 23 -11 23q-2 0 -8.5 -1.5t-9.5 -1.5 q-19 1 -26 1q-56 0 -99 -15zM113 141q0 -67 63 -67q29 0 73.5 17.5t44.5 42.5v4q0 18 -0.5 27.5t-3 25t-8 24t-16.5 15t-27 6.5q-5 0 -15 -4.5t-14 -4.5q-7 0 -15.5 -4.5t-21 -13t-15.5 -10.5q-9 -5 -20 -31.5t-25 -26.5zM120 43l9 -4.5t12.5 -6t8.5 -2.5q0 5 -7.5 13 t-11.5 8q-7 0 -11 -8zM170 26q13 -8 15 -8q9 0 9 19l-5 1q-12 0 -19 -12zM195 255l37 5l-9 9zM213 26l43 11l7 26q-16 0 -33 -10.5t-17 -26.5zM251 260q11 -7 30 -7q9 0 19 7q-15 11 -27 11q-17 0 -22 -11zM262 408q1 0 5 -0.5t5 -0.5q10 0 25 4.5t15 11.5q0 10 -27 10 q-9 0 -16 -7.5t-7 -17.5zM275 48q10 0 18 9.5t8 20.5l-1 4v5l-13 -13l2 -5h-14v-21zM294 298l35 5l-26 6zM300 278q2 -8 20 -11.5t22 -6.5q-4 -6 -8 -9.5t-7 -4.5t-5.5 -3t-3.5 -6.5t-1 -13.5q0 -11 4.5 -29t4.5 -29t-3 -24q22 5 32 44t10 83q0 26 -3 36q-22 0 -62 -26z M300 381q0 -3 4 -7t9 -4q25 0 25 18q0 7 -5.5 16t-12.5 9zM311 336q19 0 38 29q-2 -1 -6.5 -2t-6.5 -2t-6 -2.5t-6 -2.5t-5 -3t-4.5 -4.5t-2.5 -5.5t-1 -7zM318 100q2 -7 10 -7q2 0 11 7.5t9 10.5t-4 3q-18 0 -26 -14zM318 321l37 -6l1.5 3t3 6.5t1.5 4.5q0 4 -3.5 9t-5.5 5 q-6 0 -17.5 -7.5t-16.5 -14.5zM328 122q13 0 18 5t5 18q-8 0 -15.5 -7.5t-7.5 -15.5zM340 75q0 -3 2.5 -6t4.5 -3q17 0 17 26q-6 0 -15 -5t-9 -12zM351 55q0 -9 7 -13q8 5 8 13h-15zM375 39q17 0 20 7q-5 8 -9 8q-11 0 -11 -15zM386 26q0 -10 38 -10q0 21 -10 21 q-22 0 -28 -11z" />
<glyph unicode="b" horiz-adv-x="550" d="M51 95q0 54 3.5 192t3.5 217q0 109 12 178q3 19 33 19q31 0 42 -7.5t11 -27.5q0 -16 -12 -22l7 -5q-1 -4 -1 -23q0 -9 3 -52t6 -83l3 -40l7 -7q58 32 173 32q2 -6 28 -14.5t50.5 -21t24.5 -28.5q24 0 42.5 -64.5t27.5 -69.5q-1 -3 -1 -21q0 -11 3 -29.5t3 -29.5 q0 -1 -2.5 -12.5t-2.5 -12.5q5 -5 5 -6q0 -16 -19 -43q-66 -117 -212 -117q-23 0 -63 15.5t-60 15.5q-2 0 -11 -15.5t-22 -15.5q-49 0 -75 18q-3 36 -7 80zM83 595q0 -1 5.5 -6t5.5 -6q0 -3 -3.5 -11t-3.5 -20q0 -31 14 -31l-13 -25l13 -5q-1 0 -3 1h-1q-10 0 -10 -18 q0 -12 3.5 -16.5t3.5 -5.5q0 -9 -6 -18l20 -8h-20v-41h56q-22 34 -22 94q0 9 0.5 27.5t0.5 27.5h-4l7 12v112q0 6 -9 11.5t-16 5.5q-14 0 -14 -21q0 -11 1 -16.5t2.5 -6.5t2.5 -2t1 -3q0 -4 -5.5 -16t-5.5 -15zM87 55q18 0 32 21h-9q-16 0 -16 8l14 18q-4 -2 -7.5 -4t-6 -4 t-4 -5t-2 -5t-1 -6.5t-0.5 -6.5v-8v-8zM87 131q14 0 32 14h-9q-23 0 -23 -14zM87 181q1 -4 1 -5q22 7 22 19q-23 0 -23 -14zM88 107q14 0 27.5 4t21 8.5t7.5 6.5q0 8 -3 10t-9 2q-7 0 -25.5 -10t-18.5 -14v-7zM88 157h34q0 22 -10 24zM88 204q26 0 26 16q-9 0 -20 -8 q0 4 9.5 15t9.5 13q0 4 -9 7t-16 3v-46zM88 262h6l32 31v6h-38v-37zM88 367l6 -1q11 0 14 7q-1 0 -4 1h-3q-10 0 -13 -7zM93 316q59 0 59 29l-1 9q-58 -13 -58 -38zM94 391q4 7 11 7h3zM99 31q27 0 27 14q0 11 -7 14q-20 -17 -20 -28zM101 354h7q1 0 43 19h-4q-29 0 -46 -19 zM106 254q8 0 13 8l-7 6q-6 -6 -6 -14zM126 95q2 0 27 -9.5t34 -9.5q-4 3 -13 18t-20 15q-17 0 -28 -14zM144 225q0 -26 12 -50t26 -37.5t26 -28t12 -24.5q7 0 21 -5.5t14 -8.5v-6h63l5 -6l6 12q39 18 47 18q29 0 40.5 39t11.5 78q0 23 -6 51.5t-17.5 58t-33 49.5t-48.5 20 q-8 0 -92 -6q-36 -8 -61.5 -63t-25.5 -91zM162 379l7 -6l37 31q7 0 53.5 6.5t58.5 6.5q2 0 17.5 -0.5t17.5 -0.5q22 -26 34 -26h3l1 1l24 -55l12 7v-32q9 0 14.5 -12t9.5 -28t7 -21l-6 -10q0 -2 6 -8q0 -2 -2.5 -10.5t-2.5 -9.5q0 -10 10.5 -17t10.5 -15h-4.5h-4.5t-3.5 -1 t-3 -3.5t-0.5 -6.5q0 -9 8 -12q-14 -6 -14 -19q0 -9 6 -12q-14 0 -28.5 -16.5t-14.5 -29.5l-1 -1q0 -2 3 -5t6 -3q6 8 15 14t13 12t4 19q29 0 29 17q0 5 -7 12h13q6 0 6 43q0 164 -73 210q1 1 1 2q0 8 -59 21t-70 13q-42 0 -71.5 -13t-61.5 -42zM187 65q13 -15 20 -15 q0 16 -13 16zM249 33q6 -6 20 -6q4 0 14.5 0.5t15.5 0.5q-13 6 -35 6q-2 0 -8 -0.5t-7 -0.5zM310 28h6l4 -1q29 0 33 14zM365 43l1 -2q28 3 44 24h-4q-9 0 -25 -6.5t-16 -15.5z" />
<glyph unicode="c" horiz-adv-x="446" d="M35 207q0 116 65.5 185t173.5 69q2 0 11.5 -0.5t10.5 -0.5l-13 -6q9 0 23 3t22 3q66 0 79 -17q0 -2 0.5 -13.5t0.5 -12.5q0 -13 -4.5 -34t-4.5 -35q-43 0 -97 33h-86q-14 0 -40.5 -33t-33.5 -60q-1 -3 -2.5 -14.5t-4 -20.5t-6.5 -15q10 -59 28.5 -92t64.5 -62v-7 q9 0 26 -2.5t26 -2.5q76 0 121 25q19 -63 19 -72q0 -28 -73 -28q-35 0 -56 0.5t-59.5 5.5t-63 14t-50 27.5t-38.5 45.5q-2 4 -3 12.5t-4 13t-12 5.5q-20 39 -20 86zM61 202q7 -27 21.5 -63t21.5 -36l25 18l1 3q0 16 -9.5 42.5t-21.5 35.5l5 5q-1 4 -1 13q0 39 12 87t27 48 q15 34 40 43.5t59 12t55 13.5q-15 5 -25 5q-26 0 -65.5 -11t-63.5 -25t-50 -74q-3 -8 -10.5 -37.5t-13.5 -54.5t-7 -25zM116 93q0 -9 14 -9t23 19q0 7 -14 12q-4 0 -10 -5.5t-9.5 -10.5t-3.5 -6zM147 63q0 -10 20 -10q12 0 24 19q-2 7 -13 7q-31 0 -31 -16zM191 44 q0 -9 18 -9q11 0 13 6q0 8 -2.5 10.5t-9.5 2.5q-19 0 -19 -10zM235 35l41 -4q-1 5 -9 10t-12 5q-18 0 -20 -11zM289 41q0 -12 9 -12q14 0 22 12h-31zM324 405l39 -12v26l-21 3q-18 -11 -18 -17zM333 29l9 -1q32 0 32 24q-30 -2 -41 -23z" />
<glyph unicode="d" horiz-adv-x="571" d="M29 231q0 64 24 132q3 3 14 18t11 16v3q20 31 46 43t71 19q6 1 21.5 7t22.5 6v-7q6 7 19 7q22 0 63.5 -15.5t62.5 -15.5q0 21 1.5 84t1.5 65q0 72 -13 103h98q4 0 7 -37q-1 -1 -1 -3q0 -3 3.5 -10t3.5 -8q0 -10 -6 -22q0 -42 6 -124t6 -122q0 -44 -9.5 -130.5 t-9.5 -129.5q0 -16 4 -48.5t4 -48.5q0 -13 -3 -17t-16 -4q-34 0 -47 5t-34 27q-9 0 -52 -15.5t-62 -15.5q-7 0 -10 5q-8 -1 -26 -1q-89 0 -145 70t-56 164zM58 194q8 0 26 21h-9q-11 0 -14 -4.5t-3 -16.5zM62 164q24 0 35.5 6t11.5 27q0 10 -5 11q-42 -22 -42 -44zM64 230 l1 -3l39 -5q7 0 7 32q-14 0 -30.5 -6.5t-16.5 -17.5zM65 252l39 18h-39v-18zM65 307q0 -1 4 -3.5t6 -2.5q12 0 37 22.5t27 33.5q0 1 3 6.5t4 6.5q3 2 11.5 4.5t14.5 6.5t6 10v1l-1 2q-15 -6 -44 -6q14 0 14 12q0 6 -6 6q-26 0 -51 -35.5t-25 -63.5zM72 150q0 -29 24 -29 q18 0 32 8l-7 12q-15 -7 -17 -12l-1 3q0 10 12 22q-2 6 -13 6q-30 0 -30 -10zM78 289q2 0 8 -0.5t7 -0.5h9.5t6.5 1.5t5.5 4.5t1.5 9q-19 0 -38 -14zM89 103q12 -12 16 -12q8 0 16.5 6.5t11.5 13.5q-3 5 -8 5q-4 0 -18.5 -6t-17.5 -7zM115 79q3 -7 13 -7q15 0 24 14h-5 q-17 0 -32 -7zM138 233q0 -7 0.5 -25.5t0.5 -29.5q6 -9 16.5 -27.5t15 -24.5t14.5 -16.5t20 -14t26.5 -6.5t38.5 -3q48 0 82.5 37t34.5 85q0 74 -31 112q-22 26 -52.5 50.5t-52.5 24.5q-7 0 -17.5 -5.5t-19 -12t-16.5 -13t-9 -7.5q-32 -27 -41.5 -53.5t-9.5 -70.5zM139 61 q5 -6 10 -7l7 2q6 2 14 6.5t12 10.5q-8 7 -18 7q-11 0 -22 -15q-2 -3 -3 -4zM157 413q18 -7 25 -7q13 0 30.5 12.5t26.5 12.5h67q-3 0 -21 5.5t-22 6.5q-26 0 -43 -12v6q-46 -6 -63 -13l14 -6zM165 41q1 -5 13 -5q9 0 12 5.5t5 19.5q-27 -13 -30 -20zM201 30q0 -6 7 -6 q3 0 5.5 1t4.5 3t3.5 4.5t1.5 5.5q-9 0 -22 -8zM232 30q16 2 16 14q-15 0 -16 -14zM243 16q21 0 33 5t19 20q-1 0 -6.5 0.5t-7.5 0.5q-12 0 -25 -7t-13 -19zM306 30q19 2 50.5 29.5t31.5 47.5l-0.5 1.5t-0.5 2.5q-3 -3 -40 -34t-41 -47zM313 413q1 -2 4 -7.5t8 -11.5t9 -6 q2 0 34 12q-14 0 -19.5 9.5t-24.5 9.5q-10 0 -11 -6zM344 375q12 -20 30 -24q37 28 74 43q-6 6 -6 12q0 4 6.5 20t6.5 23h-13l-31 -36q-1 -3 -1 -4q0 -3 7 -6t13 -3q-11 -5 -41 -9t-45 -16zM380 324q24 0 38 14h-7q-4 0 -17 -2.5t-14 -3.5v-8zM399 98l5.5 -0.5t6.5 -0.5 q19 0 31 6q0 8 -2.5 10.5t-9.5 2.5q-15 0 -31 -18zM405 59q7 0 13.5 6.5t6.5 13.5h-20v-20zM405 147l9 4.5t13.5 7.5t9.5 9t5 12q-12 0 -19.5 -2t-12.5 -9.5t-5 -21.5zM405 357l6 -0.5t7 -0.5q14 0 21.5 1t15 8t7.5 20q-16 0 -28 -6.5t-29 -21.5zM405 653q0 -27 12 -27 q1 0 3 1t3 1l-5 -12h18q-23 -5 -23 -25q10 0 18.5 8t13 18.5t4.5 20.5q0 13 -0.5 18t-5.5 11t-15 6q-15 0 -19 -3t-4 -17zM411 313q9 0 18.5 2t18 9t8.5 18q-26 0 -45 -29zM417 267q0 -10 3 -12.5t16 -2.5q-15 -15 -15 -26q11 0 18.5 3.5t10.5 11t4 14.5t1 18v6.5t-0.5 14.5 t-0.5 13q-14 -3 -25.5 -15t-11.5 -25zM418 24h24q-2 7 -13 7l-4.5 -0.5t-6.5 -0.5v-6zM418 141q7 -1 8 -1q16 0 16 14q-11 0 -24 -13zM418 208q4 0 18 7h-6q-10 0 -12 -7zM418 542q0 -19 5 -24q19 11 19 33q-24 0 -24 -9zM420 188q12 0 17 3.5t5 16.5q-22 -6 -22 -20z M423 456l7 -7l18 19v52q-5 0 -11 -7t-10 -16t-4 -14q0 -8 7 -8q2 0 5 0.5t4 0.5q0 -7 -2 -9t-6 -4t-8 -7zM423 567q27 0 27 31h-8zM428 53q14 0 14 15q-6 0 -10 -4t-4 -11z" />
<glyph unicode="e" horiz-adv-x="494" d="M32 219q0 50 18 110t44 103q1 -1 2 -1q6 0 24.5 12.5t23.5 12.5q69 16 92 16v-9q20 7 49 7q90 0 90 -27q26 0 43 -21.5t27.5 -46.5t18.5 -29v-86l-18 -13l5 -6q-27 -21 -118 -21q-96 0 -112.5 1t-65.5 8q-1 6 -6 6q-1 0 -5 -1t-6 -1q0 -29 7.5 -64t22.5 -51q8 -8 37 -19 t31 -12q18 -13 31 -13q26 0 79.5 13t78.5 13q22 0 22 -41q0 -20 -3.5 -25t-11 -6t-12.5 -8q-6 -2 -117 -20q-94 0 -135 13q-47 15 -91.5 85t-44.5 121zM69 204q1 0 5 -0.5t5 -0.5q9 0 18.5 4.5t9.5 12.5q0 1 -3 6.5t-3 8.5q2 5 5.5 12.5t5 13t1.5 13.5q0 12 -10 16.5 t-10 8.5t6.5 18.5t6.5 19.5q0 9 21 35.5t21 39.5q2 0 12 -2t13 -2t4 5.5t3 6.5q5 2 25 2.5t37.5 2.5t17.5 7q-17 8 -47 8q-68 0 -103.5 -46t-35.5 -116h32v-6l-37 -37v-19l12 7zM73 163q12 0 20.5 9.5t8.5 21.5q-19 0 -24 -5.5t-5 -25.5zM87 140q29 0 38 8q-3 7 -10 16.5 t-9 15.5q-19 -30 -19 -40zM94 124q12 -9 12 -25q23 12 23 38q-29 0 -35 -13zM112 94l32 -26q12 18 12 23l-1 3l-36 5zM123 264q13 0 17.5 5t4.5 18q-9 0 -15.5 -7t-6.5 -16zM137 253q8 2 18 4l15 3t12.5 4t16.5 8q-3 1 -31 6h-4q-2 0 -12.5 -10t-14.5 -15zM137 320 q9 -17 148 -17q18 0 47.5 4t46.5 4q0 5 -7 20.5t-11 15.5l-2 -1q-7 21 -44.5 35t-63.5 14q-86 0 -114 -75zM155 62q0 -1 3 -3.5t4 -2.5q9 2 20 9t11 10q0 4 -2 7t-4 4t-3 1q-9 0 -19 -8.5t-10 -16.5zM179 47q1 -2 1 -3q22 -6 25 -7q5 -5 6 -5q15 0 26.5 9.5t11.5 23.5 q-38 0 -38 -9q0 3 -3.5 8t-5.5 5t-12.5 -9.5t-10.5 -12.5zM199 260q20 -7 35 -7q9 0 15.5 6t6.5 15q-50 0 -57 -14zM248 37q5 -5 6 -5q20 0 65 8.5t59 8.5l6 -3l6 -2q32 0 32 21q-19 0 -49.5 -7.5t-44.5 -8.5q-10 0 -28 -1t-32 -2l-14 -2zM253 250l1 -1v-2l13 1 q13 1 24.5 2.5t23 5.5t13.5 10h-34q-41 0 -41 -16zM272 439q2 -1 9.5 -13t12.5 -13q1 0 7 3.5t10 3.5q1 0 14 -5t23 -5q0 -8 18 -24t24 -16t16 4t10 9t-4 18l-4 13q0 -6 -12 -6q-8 1 -18.5 8t-10.5 16q-29 0 -29 14q-1 0 -4 -3.5t-9.5 -7t-16.5 -3.5q-4 0 -10 4t-13 4 q-1 0 -6.5 -0.5t-6.5 -0.5zM345 258q70 0 75 14q5 -8 14 -8q0 8 -3.5 18t-3.5 14q0 3 7 8.5t7 21.5q0 39 -23 39q-7 0 -10.5 -3.5t-4 -8t-0.5 -14.5q11 -33 13 -36v-4q0 -14 -11 -19.5t-24.5 -4.5t-24.5 -2.5t-11 -14.5z" />
<glyph unicode="f" horiz-adv-x="348" d="M15 401v68l7 5q3 3 20.5 3.5t32 6t14.5 21.5q0 9 -3 28t-3 29q0 68 25 111q0 -1 14.5 6t31 15t22.5 9q5 0 29 3.5t34 3.5q16 0 20.5 -0.5t11.5 -3.5t8.5 -10.5t1.5 -22.5q0 -26 -7 -38.5t-17.5 -13.5t-22.5 -4t-22.5 -8t-17.5 -26.5t-7 -58.5q0 -26 7 -50q22 2 39 2 q37 0 61 -7q-1 -3 -1 -9q0 -9 4 -28t4 -26t-9 -7t-11 -11l-6 8q-4 -1 -26 -1q-16 0 -27 3t-15 3q-22 0 -33.5 -19.5t-11.5 -42.5q0 -2 4.5 -14t4.5 -29q0 -11 -6.5 -34.5t-6.5 -33.5q0 -6 5 -6q-1 -5 -1 -14q0 -18 7 -48t7 -48q0 -19 -4 -56.5t-4 -55.5h-66q-7 0 -22.5 28.5 t-15.5 36.5q0 2 10.5 19t10.5 29q0 11 -4 33.5t-4 32.5q0 31 7 73q0 27 -7 118q7 7 7 13q-18 14 -39 14q-3 0 -10.5 -0.5t-12.5 -0.5zM36 434q0 -3 33 -8.5t41 -5.5q20 0 22 -6q-18 0 -18 -9q0 -1 0.5 -4t0.5 -4q0 -6 -7 -9q6 -20 6 -30q0 -2 -0.5 -10.5t-0.5 -17.5 q8 5 33 5q0 9 -17 16h2q8 0 8 12q0 2 -0.5 6t-0.5 5q0 -1 5 12t9.5 28.5t5.5 20.5q0 6 -13.5 22t-17.5 17q-11 0 -13 -5q6 -1 6 -12t-2.5 -15t-11.5 -4q-10 0 -27.5 3t-26.5 3q-16 0 -16 -10zM108 179q0 -20 37 -50q1 3 1 19q0 37 -32 37q-1 0 -3.5 -2.5t-2.5 -3.5zM113 553 q0 -72 35 -72q6 0 15 47t13 89l-1 5v9q0 4 8.5 10.5t16.5 6.5q-1 5 -7 14t-11 11q-7 0 -32.5 -10.5t-29.5 -14.5q-7 -10 -7 -65q0 -14 6 -18t20 -4q1 0 3 0.5t3 0.5q0 -9 -32 -9zM127 352q1 0 2 -1q-1 1 -2 1zM132 291q2 -15 13 -15v15h-13zM145 549h6v-6zM182 439h31l6 11 q-1 1 -5 2.5l-8 3t-6 1.5q-6 0 -11.5 -6.5t-6.5 -11.5zM205 677q0 -9 1 -13.5t4.5 -7t10.5 -2.5q8 0 12.5 0.5t8 4t3.5 10.5q0 8 -8 12.5t-8 11.5q-3 0 -11 -8t-13 -8zM243 444l25 -13q8 5 8 12q-15 7 -21 7z" />
<glyph unicode="g" horiz-adv-x="492" d="M32 305q0 71 55.5 120.5t127.5 49.5q3 0 8 -0.5t8 -0.5q1 14 48 14q15 0 43 -10t40 -10q11 0 30.5 10.5t28.5 10.5q2 0 7 -0.5t6 -0.5q-10 -10 -13 -25q0 -14 21 -14q12 0 19 4t10 4q14 -5 14 -22q0 -15 -20.5 -17.5t-41 -2t-20.5 -7.5q0 -17 15.5 -51t15.5 -49 q0 -5 -3 -8t-3 -4q0 -3 1.5 -9t2.5 -11l2 -4q0 -13 -6.5 -30.5t-6.5 -32.5q-7 -33 -27.5 -52.5t-41.5 -23.5t-39 -9t-21 -13q-58 -7 -81 -7q-3 0 -9 0.5t-9 0.5q9 -16 30 -24.5t56.5 -14t36.5 -5.5q4 -9 18.5 -12t32 -3.5t24.5 -2.5q34 -12 85.5 -52.5t51.5 -70.5 q0 -24 -14.5 -48t-36.5 -39v1q-3 0 -38 -27t-42 -29q-37 -13 -106 -13q-99 0 -215 62v9q-15 0 -29 24.5t-14 43.5q0 32 18.5 75t43.5 58q-1 3 -10.5 18.5t-9.5 26.5q0 16 10.5 45.5t10.5 44.5q0 21 -16 38t-32 39.5t-16 55.5zM63 294q26 0 44 14h-19h-4q-8 0 -11.5 -0.5 t-6.5 -3.5t-3 -10zM64 333h12v6zM70 -74v-13q20 3 30 6q-8 7 -30 7zM70 -106h44q0 14 -16 14q-20 0 -28 -14zM75 -127q0 -8 20 -8q19 6 25 11q-7 7 -13 7q-13 0 -31 -7zM76 -50l5 -6l-5 -6h26q0 4 -3.5 9t-3.5 11q0 14 67 66q-25 0 -55.5 -24t-30.5 -50zM76 259 q5 -12 19 -12q21 0 21 12h-40zM76 321h49l13 37q-42 0 -57 -6q17 -7 39 -7q0 -10 -7.5 -14t-20 -6t-16.5 -4zM81 364q69 7 69 30q0 4 -1 6l32 39q-19 0 -35.5 -9.5t-36 -28t-28.5 -25.5v-12zM88 277l32 -5v24q-31 -19 -32 -19zM95 92q7 -25 30 -25q25 0 25 11q0 14 -55 14z M100 -148q11 -18 74 -31q3 6 13 6q1 0 6 -6t7 -7q11 0 29.5 -8t25.5 -10q7 1 7 18l9 -6l3 2q2 1 7 1q0 -10 1.5 -12.5t10.5 -2.5q19 0 58.5 10t39.5 21q0 -2 4 -4t7 -2q2 0 14 8t12 11l-13 5q7 7 7 10l-1 2q-27 -17 -100 -17q-22 0 -66 2.5t-66 2.5q-3 0 -12.5 -2.5 t-14.5 -2.5q-4 1 -11 13t-20 12q-5 0 -31 -13zM120 122q6 0 11 7h-11v-7zM131 -53q0 -25 11 -37.5t36 -23t34 -16.5h141q21 0 48 16t27 34t-21 18q-23 0 -25.5 13.5t-9.5 17.5q-86 31 -161 31q-26 0 -53 -14.5t-27 -38.5zM149 287q0 -50 16 -67t66 -17q49 0 83 27.5t34 79.5 q0 43 -31 74t-74 31q-3 0 -16 -0.5t-15 -0.5q-30 -19 -46.5 -54.5t-16.5 -72.5zM157 154q14 -12 33 -12q12 0 15 5.5t3 20.5q-18 0 -51 -14zM218 157q0 -10 3.5 -13t12.5 -3q43 0 43 13h-10l6 6q7 0 18.5 -3.5t20.5 -3.5q0 5 -4.5 10t-4.5 9q0 1 2 7q-7 -6 -29.5 -8 t-40 -4.5t-17.5 -9.5zM228 452q0 -2 18 -5t27 -3q3 0 19 0.5t19 0.5v-14q6 -4 22 -20.5t20 -22.5q4 -5 5.5 -20t13.5 -16l-6 -13h29q0 17 -18 37.5t-18 27.5q3 10 30 20t27 22l-2 5q-2 5 -5 10.5t-6 6.5l-6 -11q-1 -1 -57 -26q-2 2 -6 7t-7 8t-9 6.5t-13 4.5q-2 0 -14 -0.5 t-21 -0.5t-19.5 1.5t-14.5 5.5zM316 182q0 -23 12 -23t32 14q0 13 -0.5 17.5t-4.5 9t-14 4.5q-25 0 -25 -22zM348 222q17 -19 36 -25q2 0 5.5 4.5t5.5 9.5l2 5q2 7 -13 16.5t-18 15.5q-18 -18 -18 -26zM371 262q5 -9 7.5 -12t7.5 -6.5t11 -3.5q13 0 13 36q0 47 -16 47 q-6 0 -14 -8t-8 -13q0 -8 7 -19q4 0 7.5 3t8.5 3q0 -1 1 -3l1 -2l-13 -8q-13 -8 -13 -14zM434 -24q0 -3 3.5 -5.5t4.5 -2.5q7 0 11 8q-6 6 -11 6l-2 -1zM434 -135q0 -4 7 -8.5t12 -4.5q8 3 11 13q-20 5 -24 5q-1 0 -3.5 -2t-2.5 -3zM458 -106l38 20h-8l-7 1q-14 0 -23 -21z " />
<glyph unicode="h" horiz-adv-x="555" d="M35 93q0 67 9.5 200.5t9.5 199.5q0 33 -3.5 97.5t-3.5 98.5h74l13 -6v-52q0 -169 6 -169l6 -13q93 31 145 31q68 0 115.5 -60t47.5 -128q0 -31 -9.5 -97t-9.5 -99q0 -16 1 -24q-6 0 -6 -5l3 -13q3 -12 6 -26.5t3 -22.5q0 -10 -19.5 -14t-39 -4t-19.5 -1q-14 8 -14 12v198 q0 108 -18 148h-1q-5 0 -32.5 16.5t-29.5 20.5q0 -1 -30 -5.5t-62 -20t-37 -42.5q-6 -24 -6 -56q-8 -133 -8 -159q0 -25 1 -37l-6 -6q19 -30 19 -39q0 -18 -13 -18h-73q-3 6 -9.5 7t-8.5 6q0 7 -0.5 41.5t-0.5 40.5zM59 109q0 -5 7 -5t12 5l-12 -18l6 -6q-7 -3 -7 -12 q0 -2 3.5 -11.5t3.5 -13.5q-7 -5 -7 -10q0 -2 7 -5t12 -3q20 0 20 25q0 16 -7 24q-16 -7 -19 -7l25 25q-3 20 -10 20l-3 -1l7 13q-29 -2 -38 -20zM64 173q7 0 18.5 -4.5t14.5 -9.5q7 10 7 25h-14q5 13 13 19q-2 30 -2 59q0 51 8 82q-5 -5 -12 -5q-17 -8 -21.5 -13.5 t-4.5 -20.5q0 -4 1 -4l12 -7l-12 -11v-80l12 -7q-20 -4 -20 -23zM65 143q0 -9 16 -9q15 0 22 7q0 1 -2.5 3.5t-3.5 2.5q-3 0 -10 -3t-9 -3l6 12q-19 0 -19 -10zM72 653q0 -14 9 -48t9 -44t-6 -13v-99l6 -6q-9 0 -9 -31h16q-15 -11 -15 -20q4 0 12 3.5t14.5 6.5t6.5 4 q0 8 -4 22t-8 15l3 9q3 9 3 10q0 13 -4.5 38.5t-4.5 40.5h-3q7 13 7 38q0 15 -3.5 19t-3.5 5q0 5 3.5 15t3.5 22q0 24 -7 24t-16 -4t-9 -7zM78 363q0 -12 12 -12q25 4 35.5 9.5t13 12t7.5 8.5q3 2 32.5 13t55 23t29.5 20l-6 6l-73 -19h-8l-5 1q-4 -3 -17 -18t-23 -15 q-2 0 -10 8q-14 -5 -21 -8t-14.5 -10.5t-7.5 -18.5zM220 405l4 -1h5q16 0 16 14zM257 405l6 -5q9 0 69 37q-9 6 -44 6zM282 400l14 -8q6 0 29 26q-22 -5 -43 -18zM325 393l3 -1h4q23 0 36 20l-13 13zM350 368q8 -3 12 -5q0 -1 -4 -10l-3 -9q0 -5 7 -5q3 0 9 2.5t9 2.5 l-7 -13l14 -5l-14 -13q10 0 27.5 8.5t17.5 22.5t-14 14q-1 0 -2.5 -0.5t-2.5 -0.5q6 6 6 11q0 10 -5 18t-13 8q-22 0 -37 -26zM368 178l12 6q-1 -1 -1 -3q0 -8 8 -10q-7 -11 -7 -12t3 -3.5t4 -2.5l-7 -6v-132h4q27 0 27 15q0 16 -3.5 48t-3.5 51h-5q15 15 15 30h-11 q0 7 10 29t10 41q0 10 -6 10l-37 -24q0 -12 7 -12q-19 -15 -19 -25zM368 267q26 0 43 14t17 40q-24 0 -42 -15t-18 -39zM372 224q17 0 34.5 17.5t17.5 35.5q-11 0 -28 -10t-17 -21h14q-3 -4 -12 -9t-9 -13z" />
<glyph unicode="i" horiz-adv-x="245" d="M53 318v16q0 37 1 55.5t6 43t18 35.5t34 11q64 0 64 -113q0 -51 -7.5 -114.5t-7.5 -96.5q0 -24 3.5 -71.5t3.5 -70.5q0 -16 -13 -16q-30 3 -62 13q-2 7 -9 17t-9 19q-22 90 -22 272zM68 595v63l13 11q5 7 55 7q8 0 19.5 -4.5t11.5 -8.5v-74q0 -13 -26 -13q-73 0 -73 19z M80 387q0 -2 2.5 -4.5t4.5 -2.5q8 0 38 30h-4q-2 0 -7 -1t-13 -3t-14 -6.5t-6 -11.5zM81 325q0 -2 2.5 -4.5t3.5 -2.5q22 12 43 36h-4q-4 1 -5 1q-16 0 -28 -7.5t-12 -22.5zM81 435q8 -8 15 -8l1 1h2l-6 -12h10q40 0 40 12t-2.5 16t-9.5 4q-3 0 -10 -3.5t-9 -3.5t-5 3.5 t-8 3.5q-11 0 -18 -13zM82 217q11 0 24 8.5t13 19.5q-13 0 -25 -8t-12 -20zM86 277q1 -8 1 -10l25 26l-3 1h-3q-20 0 -20 -17zM87 170q0 -13 6 -13l32 25v6q-38 -5 -38 -18zM87 194h49q9 0 9 44h-9q-10 -5 -49 -44zM90 645q0 -31 17 -31q13 0 18.5 0.5t10 4.5t4.5 13 q0 5 -4 13q-16 -7 -18 -7l7 7h-35zM93 52q6 -16 46 -16q0 5 -2.5 10.5t-5.5 8.5t-3 4h1q11 6 11 49h-15q-2 0 -14.5 -16t-12.5 -20v-1h27zM93 108q0 -9 6 -12l26 24q-1 0 -5 0.5t-5 0.5q-19 0 -22 -13zM93 131q25 0 34.5 10t9.5 35h-7l-37 -37v-8zM93 362q11 4 22 4.5 t15.5 0t8.5 3t5 12t1 26.5q-26 0 -52 -46zM106 255q45 0 45 44h-8l-37 -37v-7zM106 312h4q4 -1 5 -1q28 0 28 7v30q-27 -14 -37 -36z" />
<glyph unicode="j" horiz-adv-x="283" d="M-14 -138q0 3 3 5.5t5 2.5t7.5 -4t9.5 -4q6 0 11.5 7t13.5 18.5t18 19.5l-4 109l-3 445q0 13 46 13q12 0 25.5 -0.5t21.5 -0.5q19 -17 19 -58q0 -51 -3.5 -85.5t-3.5 -40.5q0 -1 3 -7l3 -6q0 -9 -6 -12v-136q7 -2 7 -12q0 -11 -7 -13q1 0 5.5 -23.5t9 -49.5t4.5 -32 l-7 -5q0 -4 4 -21.5t4 -49.5q0 -24 -32 -71q-1 1 -13 -10.5t-27 -24.5t-22 -15q-37 -13 -65 -13q-27 0 -27 19v55zM3 -172q0 -1 3.5 -6.5t3.5 -8.5q14 14 16 14q3 0 10 -7q22 4 44 12t44 26t22 41q0 8 -12 8q16 3 16 45v6q-13 -2 -29 -15q5 5 15 20t10 17q0 19 -6 25l-3 1 q-7 0 -16 -10t-18 -10l37 37q0 51 -9 75q-11 0 -31.5 -24.5t-21.5 -25.5h19l-19 -18l3 -1q14 0 22 15t18 16v-12l-37 -38v-5q9 0 19.5 2.5t12.5 2.5q-2 -2 -17 -11t-15 -16q0 -5 4 -13.5t4 -14.5h11q-16 -7 -16 -24h16q-12 -11 -24 -35.5t-38 -39.5q-37 -21 -37 -27zM53 636 q0 36 68 36q24 0 25 -8q6 -66 6 -74q0 -14 -5.5 -21.5t-11.5 -9t-18 -1.5h-8h-9t-8.5 0.5t-9 1t-7.5 2t-7.5 3.5t-5.5 4.5t-5 6.5t-3 9q0 7 -0.5 23.5t-0.5 27.5zM72 153q0 -32 18 -32q7 0 23 5.5t16 16.5q0 16 -9 16l-2 -1h-2q7 7 12 19h-7q-15 0 -32 -5.5t-17 -18.5z M72 380q21 0 44 25q-1 0 -5 0.5t-5 0.5q-34 0 -34 -26zM72 648q0 -21 6 -27l19 19q-2 8 -25 8zM78 70q13 0 32 19t19 34l-25 -9q-26 -8 -26 -11v-33zM78 206q0 -12 3.5 -17.5t14.5 -5.5q21 0 29.5 8t8.5 30q-7 0 -14.5 -4.5t-16.5 -12t-13 -9.5q0 8 19 24.5t19 44.5v25 q-34 -31 -44 -50q26 6 37 6q-43 -20 -43 -39zM78 270q0 -1 6 -13q4 3 20 25t30 24v38h-18v7q-8 0 -23 -4.5t-15 -8.5l6 -19q2 2 10.5 7t9.5 5q5 0 5 -6q-13 -17 -25 -27h25q-31 0 -31 -28zM78 411q56 0 56 15q0 17 -15 17q-23 0 -41 -6v-26zM84 356q1 0 14 2.5t24.5 5.5 t11.5 4v33q-11 0 -30.5 -15.5t-19.5 -22.5v-7zM90 134q13 13 16 13h3q-9 -10 -19 -13zM90 605q0 -17 31 -17v54q-12 0 -21.5 -12t-9.5 -25z" />
<glyph unicode="k" horiz-adv-x="484" d="M47 468q0 9 7 16q0 41 4.5 119t7.5 78h80l6 -6q-1 -10 -1 -30q0 -41 7 -123t7 -122q0 -10 -0.5 -26t-0.5 -23q0 -37 7 -71q29 26 77.5 83.5t76.5 82.5q14 7 37 7q14 0 21 -1t14.5 -6t7.5 -16q0 -13 -12 -27q-76 -84 -136 -178q25 -36 73 -99t69 -92q6 -9 6 -19 q0 -13 -6 -13h-81q-2 9 -23 9l-11 11q-12 12 -15.5 16t-14 16.5t-16.5 20.5t-14 20t-13.5 24.5t-9.5 24.5l-37 37h-7q0 -11 0.5 -36t0.5 -38q0 -111 -18 -111h-68q-6 10 -6 13q-7 87 -7 268v145q7 14 7 16q0 3 -9.5 16t-9.5 14zM86 266q15 0 17 20q-17 0 -17 -20zM89 605 q33 0 33 27q0 11 -3 14.5t-15 3.5q-15 0 -15 -45zM90 114q0 -20 10 -20q3 0 10 17t7 22q-27 0 -27 -19zM90 336l7 6h-7v-6zM90 398q14 8 14 18h-14v-18zM90 482q38 0 38 30q0 8 -1 13.5t-2.5 7.5t-2.5 4t-1 3q6 9 6 12q0 27 -6 55l-31 -13v-112zM108 17q19 0 19 17l-6 12 q-13 -9 -13 -29zM111 200q0 -6 5 -6q4 0 4 6t-4 6q-5 0 -5 -6zM116 385l11 -6v12zM121 317q15 2 15 13q-15 0 -15 -13zM127 267q0 -5 14.5 -21t32 -32.5t32 -31t14.5 -16.5q0 -7 16 -28t33 -41.5t19 -26.5q4 -15 17 -29t26 -14q8 0 24 7q-14 0 -14 12q0 2 2 6q-1 1 -6.5 12 t-8.5 16.5t-10 15.5t-13 15.5t-14 10t-16 4.5q1 1 3 2t3 2t1 3q0 9 -10.5 15.5t-18.5 8.5t-15 3h26q-1 4 -7 13t-7 9q-2 0 -5 -1.5t-5.5 -3t-3.5 -1.5q0 17 -2 25t-8.5 15t-22.5 13h2q18 0 59.5 58.5t53.5 84.5h-18q-1 -1 -7 -9l-7.5 -10t-7.5 -9.5t-8.5 -10t-8 -9t-9 -9.5 t-9 -8.5t-9.5 -8.5t-9.5 -6.5t-10.5 -5.5l6 -6q-8 -4 -14.5 -11t-13 -10.5t-17.5 -3.5q-3 0 -19 7.5t-22 11.5zM201 230q1 -1 2 -1q-1 1 -2 1zM306 385h26q0 1 -1.5 2t-3 2.5t-2.5 1.5t-19 -6zM336 413q0 -3 3.5 -6.5t6.5 -3.5q7 0 16 13q-3 7 -12 7q-14 0 -14 -10z" />
<glyph unicode="l" horiz-adv-x="291" d="M58 493q0 153 7 210q14 7 43 12t43 12q2 1 3 1q9 0 9 -11q0 -76 -5.5 -217t-6.5 -186q0 -21 -3.5 -58t-3.5 -54q0 -30 2.5 -51.5t10 -44t24.5 -34.5t43 -12q20 -7 20 -13q0 -7 -12.5 -35.5t-12.5 -30.5l-13 -5v8q-8 0 -21.5 -1t-19.5 -1q-29 0 -29 28q-14 0 -24.5 6 t-19 20.5t-11.5 22l-11 27.5q-12 144 -12 407zM83 475q6 6 12 6q1 0 3.5 -2.5t2.5 -3.5q-12 -12 -12 -21q0 -5 5.5 -7t6.5 -3q-16 -5 -16 -45q7 0 12.5 4.5t7.5 4.5h1l2 -1q-2 -5 -19 -32q3 -5 19 -5q-2 -3 -10.5 -8t-8.5 -13q0 -7 4 -15.5t4 -19.5h23v32h-12q12 16 12 45 q0 6 -3 16t-3 16q2 10 5.5 22.5t5.5 23t2 25.5q0 5 -7 12q0 -14 -12 -14q-1 0 -4 1l-3 1q11 6 11 24h15v37q-22 -26 -29 -26l-1 1h-2q19 21 25 37q-37 0 -37 -14q0 -8 1 -15t3 -11.5t4 -8t3 -5.5l1 -2q0 -2 -6 -15.5t-6 -20.5zM85 629h14q0 -1 1 -3l1 -2q0 -2 -4.5 -4.5 t-7.5 -2.5v-37q23 29 25 30q-3 -17 -13 -30q5 -1 11 -1q15 0 15 6v98q-26 0 -34 -12.5t-8 -41.5zM94 241q0 -1 3.5 -3.5t3.5 -3.5l-6 -6v-43q7 -2 7 -13q0 -12 -3.5 -22t-3.5 -22q0 -11 10 -21t10 -17q0 -3 -6.5 -11.5t-7.5 -11.5q12 -6 13 -6q5 0 12 21t7 29q0 10 -2.5 13 t-10.5 3v101l-6 6q8 0 8 39q-10 0 -19 -10.5t-9 -21.5zM95 271q1 0 6.5 4t6.5 4.5t5 4t5 5.5t2 6t1 8q-26 0 -26 -32zM120 50q0 -21 25 -33t46 -12q6 0 10 8l-7 5q8 8 8 11q0 2 -17.5 11t-21.5 10q-3 0 -10 -3.5t-15 -3.5q1 0 13 12q0 17 -13 24q-3 0 -10.5 -13.5 t-7.5 -15.5z" />
<glyph unicode="m" horiz-adv-x="889" d="M51 55q0 28 6.5 82.5t6.5 83.5q0 25 -4 49t-4 34q0 31 3.5 86.5t3.5 67.5l7 7q2 -1 21 -1q13 0 23 3t16 3q7 0 13.5 -12t6.5 -18q12 5 32.5 15.5t31 15t28.5 9t38 4.5q89 0 159 -81q1 0 2 -0.5t2 -0.5q3 0 38 25t39 31q13 4 80 19q85 0 135.5 -56t61.5 -141 q0 -3 -0.5 -18t-0.5 -25q0 -27 7 -37q0 -27 0.5 -68.5t0.5 -55.5q0 -42 -13.5 -64t-55.5 -22q-18 0 -30 9t-16.5 27t-5.5 33.5t-1.5 39t-1.5 33.5q0 6 -6.5 58t-6.5 59q0 8 3.5 23.5t3.5 22.5q0 60 -68 83v6q-9 -7 -40.5 -11t-58 -16t-31.5 -41q0 -4 -0.5 -23t-0.5 -22 q0 -42 7 -124.5t7 -123.5q0 -23 -76 -23q-42 0 -42 21l-12 -7q7 133 7 191q0 53 -18 136q-19 21 -35.5 30.5t-45.5 18.5l-2 2q-2 1 -3 2l-1 2q-3 -5 -29 -20.5t-45 -21.5q0 -2 -12 -39t-13 -47v-10q-1 -11 -1 -15q0 -17 4 -49.5t4 -49.5q0 -144 -26 -160q-1 0 -10 -0.5 t-11 -0.5q-20 0 -62 14q-10 3 -8 4q0 5 -0.5 27.5t-0.5 26.5zM75 107q0 -10 7 -12q13 8 18 24q-25 -8 -25 -12zM82 36q8 0 18 16h-18v-16zM88 156l3 -1q3 0 22 19h-3q-20 0 -22 -18zM88 348h6v6zM88 390q0 -1 3 -3.5t5 -2.5q3 0 9.5 1t7.5 1v-8l12 6q-7 8 -7 23q0 4 3.5 11 t3.5 10q0 6 -22 6q-15 0 -15 -9q0 -5 3 -11.5t6 -6.5q1 0 3 2zM100 21h25v18zM112 212l1 -6q16 2 21 8.5t5 23.5q-10 -1 -18.5 -8.5t-8.5 -17.5zM116 87q16 0 16 13v4l-1 3q-15 -12 -15 -20zM119 341q21 0 39 20.5t31 40.5t22 20l-6 -13q8 1 27 6.5t29 5.5v-8q7 0 18 7.5 t19 7.5l-7 -6q15 -13 35 -13q22 0 22 16q0 28 -64 28h-17.5t-12.5 -2t-14.5 -6t-15.5 -12l6 13q-81 -30 -81 -68q0 -5 1 -7zM340 400q0 -10 12 -10q20 0 44 13q-17 19 -30 19q-4 0 -7 -1l-4.5 -1.5t-4 -3.5t-3.5 -4t-3.5 -6t-3.5 -6zM358 370q24 0 38 20h-7q-31 0 -31 -20z M371 331q0 -3 7 -3q3 0 17 7.5t14 12.5v6q-38 -3 -38 -23zM371 359q38 0 50 19l-12 6q-3 0 -20.5 -11.5t-17.5 -13.5zM383 278q36 17 50 26q0 6 -6 6q-16 0 -30 -8.5t-14 -23.5zM384 261h31q-27 -6 -27 -20q0 -3 1 -5q8 2 26 17.5t24 15.5v28q-12 -5 -33.5 -19.5 t-21.5 -16.5zM384 304q15 5 30 8.5t20 7t16 15.5t33 43h-3q-3 1 -4 1q-16 0 -54 -32t-38 -43zM389 63q25 1 45 20.5t20 43.5q-20 0 -39 -29h18q0 -10 -44 -23v-12zM389 103q0 -8 7 -8l50 49q-25 0 -38.5 -6.5t-16 -13.5t-2.5 -21zM389 212q0 -6 7 -6q4 0 15 3t22 3 q-7 -11 -23.5 -17.5t-16.5 -26.5q22 0 40.5 24.5t18.5 46.5q0 16 -9 16q-13 0 -33.5 -17.5t-20.5 -25.5zM396 33h31v12h13q0 -2 -1 -5l-1 -2q0 -2 8 -5l6 6v43q-10 -6 -26 -13.5t-23 -12t-7 -7.5q0 -5 7 -10zM409 156h43v33q-17 0 -43 -33zM495 396l6 -6l62 32l-6 -13 q20 14 30 19l-12 -19q65 -13 70 -13q2 0 9 1t8 1q0 -17 7 -17q1 0 5 0.5t7 0.5q-1 -9 -1 -11q2 -2 4.5 -8t5 -10.5t5.5 -4.5q6 0 28 11q-20 -20 -20 -27q0 -4 7 -6t7 -3q0 -10 -6 -19h12q-5 -6 -8.5 -27.5t-15.5 -27.5l3 -1h6q13 0 21 6l-25 -23q1 0 26 3.5t36 8.5 q0 7 0.5 19t0.5 19q0 24 -7 45h-18q3 1 7.5 8.5t4.5 8.5q0 20 -31.5 52.5t-49.5 32.5q-5 0 -11 -2.5t-12 -2.5q0 1 2.5 4t2.5 5q0 14 -61 14q-28 0 -55.5 -14t-43.5 -36zM698 209q0 -4 3 -7t5 -3q5 0 29 24h-6q-31 0 -31 -14zM710 156v-3q1 -3 1 -4q19 21 31 21l3 -1l3 -1 l-31 -24h6q9 0 30.5 9t21.5 13q0 15 -18 15q-3 0 -13 -2t-22 -8t-12 -15zM711 126q0 -11 5 -21.5t5 -16.5h-6q0 -17 5.5 -32.5t5.5 -30.5q47 0 47 29q0 7 -7 9q7 2 7 12q0 5 -3.5 15.5t-3.5 16.5l6 6q3 15 3 40q-20 0 -64 -27zM711 181q61 0 61 31q0 1 -6 19 q-23 -15 -55 -50z" />
<glyph unicode="n" horiz-adv-x="577" d="M61 173q0 30 3.5 84t3.5 104q0 22 -0.5 54t-0.5 35q15 12 37 12q20 0 33.5 -21t19.5 -21q19 0 62 24.5t70 24.5q17 0 37.5 -6t50 -18t30.5 -13q100 -39 100 -280q0 -20 -4.5 -58t-4.5 -56q0 -13 1 -19q-9 0 -10.5 -5t-1 -11.5t-10 -11.5t-34.5 -5q2 6 2 11q0 2 -1 2 t-3.5 -2.5t-7 -5t-7.5 -3.5q-12 0 -19 5l-5 8q0 17 -9 29q3 102 3 103q0 107 -21 188q-11 8 -21.5 20t-16.5 17t-20 9t-37 4q-41 0 -96 -32q-20 -12 -20 -58q0 -107 14 -145v-129q0 -6 -9 -6q-4 0 -24.5 1.5t-39.5 3.5l-19 1l-19 12q-1 1 -3.5 60t-2.5 94zM83 68h15l31 31 h-6q-20 0 -30 -6t-10 -25zM84 182q19 0 26 16q0 -4 2 -4q0 -1 -10.5 -15t-10.5 -17h32l-31 -14v-45q7 0 21 20q-4 -7 -4 -12h32q9 0 9 42q-13 0 -31 -22q23 34 23 50q0 13 -3.5 38.5t-3.5 38.5q0 8 1 13l-13 -5q8 10 10.5 17t4 18t3.5 20q4 16 14 29.5t19.5 20t16.5 13.5 t7 12q0 3 -1 5q-7 -2 -23.5 -16t-22.5 -14q-13 0 -22 18.5t-18 18.5q-4 0 -7 -1q6 3 6 13q0 2 -2 3.5t-5 2.5l-3 1q-2 0 -5 -8t-3 -12q0 -14 3.5 -42.5t3.5 -34.5q0 -5 -0.5 -12.5t-0.5 -8.5q6 0 6 -6q0 -7 -6 -24.5t-6 -25.5h25l-19 -18l6 -7q-20 -15 -20 -46zM95 30h53 q2 1 4 4t2 5q0 4 -3.5 11.5t-3.5 9.5t4.5 5t8.5 3q-4 2 -6.5 13.5t-8.5 11.5q-4 0 -9.5 -3t-11.5 -8.5t-10.5 -9.5t-10 -10l-5.5 -6h19q-2 -4 -12 -9.5t-10 -16.5zM113 123q2 4 6 8q-3 -5 -6 -8zM209 402l3 -2.5t3 -4.5l13 12l6 -6h3q1 0 3.5 1.5l5 3t4.5 4t2 3.5l6 -6 q52 0 80 -12q5 -2 14.5 -10t18 -14.5t14.5 -6.5q8 0 8 7l-5 5q2 4 10.5 8t8.5 8q0 10 -22 10q-6 0 -12 -3.5t-10 -3.5q-5 7 -9 7l-2 -1l5 12q-7 7 -20 7q-6 0 -16 -1.5t-13 -1.5v20q-38 0 -43 -17v12q-3 -3 -10.5 -4.5l-15 -3t-14.5 -3.5t-11.5 -7t-4.5 -12zM393 345h20 l-13 -12l7 -7q13 6 16 12.5t3 19.5q0 17 -7 18q-26 -10 -26 -31zM412 309h32q-8 -1 -14.5 -4t-11 -9t-4.5 -14q13 0 27.5 13t14.5 26q0 4 -5 11t-10 7q-7 0 -14 -4.5t-11 -11.5t-4 -14zM421 259q41 0 41 19q0 11 -6 19q-13 -4 -24 -15t-11 -23zM424 241l1 -6q4 1 8.5 7 t4.5 8l-1 3q-13 0 -13 -12zM428 148q10 0 21 9t19 9v-4q-29 -16 -36 -41h18q-16 -4 -16 -24q16 0 31.5 15t15.5 30q0 7 -3.5 35.5t-5.5 28.5q-1 0 -9.5 -6t-17.5 -13.5t-9 -11.5q0 -2 3 -5t5 -3q-8 0 -12 -6t-4 -13zM429 191q17 0 29 15t12 33l-1 6.5t-1 7.5 q-37 -15 -37 -27q0 -28 -2 -35zM435 19h37q0 32 -16 37q18 8 18 12v43q-27 -20 -33 -37t-6 -55z" />
<glyph unicode="o" horiz-adv-x="574" d="M20 267l38 106q1 2 27 28.5t39 38.5q27 24 67 40t76 16q51 0 105 -36q73 -49 104.5 -111t31.5 -152q0 -3 -0.5 -17.5t-0.5 -15.5q-2 -4 -10.5 -9.5t-8.5 -15.5t6 -13q-9 0 -19 -31.5t-17 -36.5q-103 -77 -254 -77l-78 49q-25 0 -47.5 38t-34.5 46q-24 59 -24 153zM47 254 q19 0 52 26q0 7 -15 7q-2 0 -4 -1h-1l-1 1q-31 0 -31 -33zM48 187q11 0 33 10.5t22 20.5h-45q-10 0 -10 -31zM58 238h48q6 0 6 36q-5 -4 -27.5 -16t-26.5 -20zM62 157l7 -25q1 1 5.5 3.5t6.5 4t6 5t6.5 6t4 6t1.5 7.5q-10 1 -11 1q-26 0 -26 -8zM67 310q45 0 57 26 q-16 12 -39 12q-18 0 -18 -38zM76 182l30 -7q9 0 9 27q-4 0 -18.5 -7t-20.5 -13zM81 114q18 3 43 18q0 20 -9 20l-3 -1l-31 -31v-6zM94 95q13 -26 21 -26q11 0 23 8.5t12 19.5q-16 0 -20 -8v31l-36 -18v-7zM94 364q0 -12 17 -12q26 0 26 2l6 25q-24 6 -28 6q-3 0 -11.5 -8 t-9.5 -13zM103 298q20 0 27 19q-2 1 -3 1q-6 0 -15 -7t-9 -13zM124 65q0 -19 19 -19q13 0 22 12v-20q12 0 23 5t11 15q0 7 -13.5 13t-20.5 6h-3q-3 -1 -20 -6t-18 -6zM128 389h14q32 0 32 9l-18 12q0 2 2 4t4 2q6 0 18 -3.5t14 -3.5q9 0 18 8t18.5 17.5t17.5 11.5h-9 q-18 0 -22 7q-14 0 -38.5 -17t-35.5 -20q2 -3 2 -6q0 -4 -8.5 -9.5t-8.5 -11.5zM136 209q0 -84 87 -126q4 0 24 -1t23 -1q87 0 118.5 41t31.5 131q0 11 -4 30t-10 37t-11 28q-27 6 -49 43q-10 0 -31.5 4t-32.5 4q-34 0 -57 -12t-51 -39q-5 -5 -7.5 -22t-10.5 -21 q-6 -16 -13 -47.5t-7 -48.5zM184 23q28 0 28 25q-7 0 -13.5 -3.5t-10.5 -9t-4 -12.5zM223 40l3 -0.5t4 -0.5q10 0 18 7l-4 0.5t-5 0.5q-14 0 -16 -7zM242 29q21 -9 51 -9q19 0 49 10.5t51 21.5t21 13v7h-8.5h-8.5h-7.5t-8 -1t-7 -2t-7.5 -2.5l-7 -3.5t-7 -5q-12 -9 -13 -9 h-80zM279 428q7 -1 22 -4t28.5 -5.5t23.5 -2.5t19 6q-10 13 -30.5 22t-35.5 9q-3 0 -13.5 -10t-13.5 -15zM297 -4l19 7l-3 0.5l-3 0.5q-11 0 -13 -8zM358 21l3 -0.5t4 -0.5q10 0 12 9zM363 410q0 -14 27 -14v14h-27zM395 385q0 -15 13 -19q1 0 5.5 2.5t8.5 5t5 5.5l-5.5 5.5 t-7 6.5t-6 5.5t-3.5 2.5q-10 0 -10 -14zM399 81q10 0 20.5 1.5t21.5 8t11 17.5q0 6 -17 6q-8 0 -16.5 -4.5t-14 -12.5t-5.5 -16zM414 352q17 0 19 9h-19v-9zM420 46l13 6h-2q-8 0 -11 -6zM426 339q0 -13 27 -13q0 22 -13 22q-14 0 -14 -9zM427 126h3.5t4.5 -0.5t4.5 -0.5 h3.5q28 0 28 26h-28q0 -16 -16 -25zM439 303q5 0 9.5 4.5t4.5 9.5h-14v-14zM444 162q38 0 38 26q0 7 -5 10.5t-10 4t-14 0.5q0 -10 -4.5 -20t-4.5 -21zM445 230q8 -13 34 -13q0 39 -9 39zM445 256q1 0 2 -0.5t2 -0.5q2 0 9 6l7 6q4 0 7.5 2.5t3.5 4.5q0 6 -4.5 15.5 t-10.5 9.5q-16 0 -16 -12q0 -5 3.5 -11.5t3.5 -9.5v-1q0 -2 -2.5 -5.5t-4.5 -3.5z" />
<glyph unicode="p" horiz-adv-x="597" d="M55 339q7 28 7 44q0 2 -7 37q0 24 8 30.5t30 6.5q31 0 37 -2.5t18 -21.5q82 42 135 42q101 0 158.5 -59t57.5 -155v-44q0 -65 -12 -93q-12 -29 -55 -74t-69 -45q25 22 25 23t-1 1l-54 -34q-3 -4 -6 -4q-2 0 -11.5 3.5t-15.5 3.5q-15 0 -28 -16q-7 1 -56 13q-8 19 -44 19 q-5 0 -14.5 -2.5t-9.5 -4.5v-198q6 -16 6 -35q0 -15 -66 -15q-17 0 -26 1v19q59 6 59 27q-9 0 -21 -5t-20 -5q-13 0 -13 8v227q0 8 -3 23l-2 15q0 4 2.5 42.5t2.5 43.5q0 22 -3 50.5t-3 66.5q0 52 1 62zM74 291q2 -5 7.5 -9.5t8.5 -4.5q2 0 5 5t3 9h-24zM80 -57h18 q-12 -12 -12 -20q0 -2 9 -20.5t10 -19.5l-7 -5v-50q0 -2 7 -6q19 0 19 11q0 17 -3.5 47.5t-3.5 47.5q0 23 -22 23q-2 0 -15 -8zM80 414q0 -2 4.5 -13t7.5 -12q19 14 19 22q0 6 -9.5 10.5t-14.5 4.5q-1 0 -4 -4.5t-3 -7.5zM85 96q1 -2 1 -3q22 7 25 12h-3q-23 0 -23 -9z M86 130q19 11 19 31q-19 -9 -19 -31zM92 1q4 -3 10 -13t15 -11q8 8 8 22q-17 0 -20 8q-1 0 -13 -6zM92 25q3 0 9 -0.5t8 -0.5q15 0 15 11q0 12 -13 21q-16 -8 -19 -31zM92 377h25v14q-13 0 -25 -14zM105 124q37 0 37 13q0 15 -7 15q-3 0 -6 -3zM111 217h6v12zM117 303 q1 -4 7.5 -10.5t10.5 -8.5q7 4 12 19t7 18h-25l6 6q-2 1 -3 1q-6 0 -10.5 -9.5t-4.5 -15.5zM135 352q4 -6 13 -6q17 0 35 13t30 29t25 30t21 15q-6 -12 -6 -13l6 -12q7 4 17.5 7.5t18 8t13.5 14.5q-12 8 -32 8q-34 0 -55 -10t-42 -35q1 -1 2 -1t3.5 1.5t6 3.5t7.5 3v-1 q1 -1 1 -2q0 -7 -13.5 -17.5t-30 -20.5t-20.5 -15zM147 219q1 -64 39.5 -107.5t103.5 -43.5q72 0 91 32q-5 2 -5 12q0 14 10 14q0 9 7.5 22.5t7.5 21.5q0 5 -3 14.5t-3 14.5q0 2 4 8l4 6q0 3 -11 15t-11 16t3.5 10.5t3.5 8.5q-12 24 -12 28v17q0 13 -13 24.5t-13 23.5 q-7 0 -18.5 5t-19.5 10t-9 6q-8 0 -38 -6v7q-9 0 -28 -16t-28 -16q-4 0 -6 1l-18 -26h-6q-7 0 -19.5 -41.5t-12.5 -60.5zM148 105l12 -24q7 0 7 10q-4 14 -19 14zM198 19h24v9q-22 0 -24 -9zM250 14h46q-14 16 -29 16q-14 0 -17 -16zM314 31l12 -12q9 5 9 12h-21zM331 420 h21q0 13 -10 13q-11 0 -11 -13zM413 303q0 -6 9 -6q40 0 40 16q0 9 -6 14q-13 -5 -28 -13t-15 -11zM413 358h5q6 -1 7 -1q16 0 19 8q-4 7 -13 7q-13 0 -18 -14zM427 244h33q2 -7 2 -13q0 -15 -24 -32q1 -2 12 -7l12 -6h3q5 0 7.5 23.5t2.5 37.5q0 8 -3.5 17t-9.5 9 q-8 -8 -15.5 -12.5t-11 -5.5t-6 -3.5t-2.5 -7.5zM431 142l19 -18q13 9 13 28q0 1 -1 5v4q-20 -5 -31 -19zM442 90q0 -5 2 -9l12 12q-10 1 -11 1q-3 -2 -3 -4z" />
<glyph unicode="q" horiz-adv-x="603" d="M31 201q0 35 9.5 71.5t20.5 61t32 66.5q54 74 166 74q29 0 70 -21.5t60 -46.5q12 36 12 50q0 6 26.5 12t38.5 6q9 0 9 -19l13 6q0 -2 -3 -12t-4 -12q0 -18 3.5 -53t3.5 -55q0 -60 -9.5 -180.5t-9.5 -179.5q0 -30 9.5 -88t9.5 -86q0 -18 -54 -18q-36 0 -47 22t-11 70 q0 7 0.5 24t0.5 26q0 1 -13 118q-7 -3 -10 -4.5t-2.5 -3t-2.5 -4.5t-10 -7q-37 -23 -58.5 -27.5t-77.5 -4.5q-24 0 -24 7q0 3 2 8t2 8q-2 0 -13 -2t-14 -2q-2 0 -7.5 5t-16 13.5t-21.5 13.5q-35 17 -57.5 67.5t-22.5 96.5zM56 183q8 0 12 8l-12 5v-13zM68 129l13 12h-13v-12 zM68 252h6l-6 6v-6zM74 227q9 -15 28 -15q0 21 -9 21q-13 0 -19 -6zM93 85l12 -12l19 25q-21 -6 -31 -13zM93 117h3q41 0 41 12q0 13 -10 13q-5 0 -11.5 -4.5t-13.5 -11.5zM93 283q0 -3 5 -3q6 0 7 3l1 5q2 5 2.5 8t-0.5 4q-2 0 -8.5 -8t-6.5 -9zM100 172h18v12 q-14 -4 -18 -12zM109 362q0 -9 12 -9l18 31q-30 -9 -30 -22zM130 246q0 -78 62 -142q1 1 2 1t2 -1h2q50 -25 91 -25q49 0 81 36t32 88q0 29 -21 66t-42 64.5t-21 32.5q-188 0 -188 -120zM136 48l12 -11q13 5 13 23q-18 0 -25 -12zM157 369q0 -1 0.5 -2t0.5 -2l25 14v9 q-8 0 -17 -5.5t-9 -13.5zM192 20q0 -9 12 -9l18 31q-30 -9 -30 -22zM219 377q16 0 19 7h-19v-7zM220 417q14 0 21 20l-3 1h-3q-15 0 -15 -21zM240 27q0 -1 0.5 -2t0.5 -2l25 14v9q-8 0 -17 -5.5t-9 -13.5zM266 400q24 -6 48 -6q13 0 13 17q0 9 -16.5 14.5t-27.5 5.5h-3h-5.5 t-4 -1t-3.5 -4t-1 -8q6 -4 6 -5q0 -7 -6 -13zM302 35q16 0 19 7h-19v-7zM327 381l37 -30h6q19 0 19 9q0 3 -23.5 21.5t-30.5 18.5q-8 0 -8 -17v-2zM383 67l61 -7v5l1 5q0 14 -7 15q-29 0 -55 -18zM388 55q0 -16 8 -18q3 0 11.5 6t8.5 12h-28zM393 5q1 -1 3 -1q3 0 11 3.5 t13 3.5q-7 -4 -14 -12.5t-7 -11.5h39q1 0 3.5 9.5t2.5 14.5t-12.5 9t-17.5 4q-12 0 -16.5 -4t-4.5 -15zM396 307q6 0 18 7h-18v-7zM397 -24q0 -36 4 -88q2 -16 9 -47t10 -33l4 -4q16 8 39 10q0 3 -3 11t-4 8t-4 -1l-4 -2q0 4 1.5 32t1.5 33q-1 6 -13 74q-7 7 -41 7zM414 344 q6 0 22 -5t16 -10q0 -1 -0.5 -2l-0.5 -1q7 1 7 13q0 8 -0.5 17.5t-0.5 12.5q-28 -5 -43 -25zM414 443l6 -18q8 5 12 18h-18zM420 42q2 -6 12 -6q14 0 14 13q-18 0 -26 -7zM420 104q2 -1 3 -1t5 2.5t4 4.5q-2 1 -3 1q-9 -3 -9 -7zM432 147q16 -8 19 -8v26zM432 296 q0 -2 2.5 -4.5t3.5 -2.5q13 0 16.5 3t3.5 13q0 1 -0.5 5l-0.5 4q-22 -15 -25 -18zM432 394q25 2 25 19q0 10 -6 18q-19 -12 -19 -37zM438 252q12 -7 19 -7v14q-12 0 -19 -7z" />
<glyph unicode="r" horiz-adv-x="383" d="M53 53v418h105q12 0 12 -8q0 -3 -5 -20t-5 -19l23 23q88 57 140 57q3 -4 3 -24q0 -10 -2 -33.5t-2 -36.5q0 -6 2 -16q0 -1 -33 -10.5t-68.5 -31.5t-39.5 -53q-1 -5 -4.5 -23.5t-6.5 -37t-3 -29.5q0 -25 7 -76.5t7 -78.5q0 -18 -6 -44l6 -7q-1 -6 -26 -9.5t-36 -3.5 q-10 0 -12 7q-7 -13 -28 -13q-3 0 -12 2.5t-9 3.5zM78 120q0 -1 6 -19q3 3 10.5 10t12 11.5t10 10.5t8 10.5t2.5 7.5q-4 1 -5 1q-44 0 -44 -32zM80 255h10l19 26h-6q-23 0 -23 -26zM83 317q0 -1 0.5 -5.5t0.5 -5.5l25 36q-16 0 -21 -6t-5 -19zM83 401q17 0 32 15l-31 -31 v-13l8 8q7 9 14.5 17t15 15t9.5 7q0 -25 -35 -65q14 5 29 13.5t15 12.5v61l-56 7v-20h4q0 -7 -2.5 -14t-2.5 -13zM84 64q0 -10 6 -25q14 7 26 21t17 29q-5 -3 -19 -8t-22 -9t-8 -8zM84 181l43 50h-3q-40 -6 -40 -12v-38zM90 163q4 -5 10 -5q17 0 31.5 11t14.5 27q0 22 -6 29 q-1 -2 -20.5 -24.5t-29.5 -37.5zM96 237q12 1 29 7.5t21 10.5q2 8 6 28t6 28.5t6.5 25t8.5 27.5t10 25t13 27q-64 -53 -100 -117h4q36 9 46 12v-5l-50 -62v-7zM103 95q29 0 39 6.5t10 31.5q0 12 -6 18q-6 -9 -21 -27t-22 -29zM109 15h13q36 0 36 12v8q-41 0 -49 -20zM115 39 h7q5 0 20.5 6t15.5 8l-6 31q-23 -22 -37 -45zM205 378q5 -1 6 -1q11 0 18 6.5t7 16.5v4q-1 4 -1 5zM214 412q9 2 21 17t21 15q16 0 16 -22q0 -4 -1 -12t-1 -11q31 10 31 45q0 8 -14 18.5t-14 14.5q0 1 2 3q-13 -13 -13 -14v-3l1 -2q-6 -6 -19.5 -11.5t-21.5 -13.5t-8 -24z " />
<glyph unicode="s" horiz-adv-x="458" d="M35 369q0 30 19 52t43 32.5t58 16.5t53 7t38 1q110 0 110 -26v-66q0 -9 -18 -9q-80 33 -116 33q-30 0 -47 -22.5t-17 -52.5q0 -4 6.5 -13.5t13.5 -10.5l105 -19q40 -7 79 -52t39 -83q0 -1 -4 -11t-4 -14q0 -1 2.5 -3.5t4.5 -2.5q-8 -6 -19 -36q-7 -15 -14 -26.5 t-17.5 -20t-17 -13.5t-22.5 -10t-22 -6.5t-27 -5.5t-28 -5l-18 -1l-45 6q-5 0 -42 13t-43 13q-5 0 -10 -3.5t-9 -3.5q-19 0 -19 70q0 29 10 29q7 -2 18 -10t16 -8l117 -26q20 0 47.5 18.5t27.5 37.5q0 16 -32.5 42.5t-40.5 26.5q-14 0 -31 9.5t-26 9.5q-46 0 -82 46.5 t-36 96.5zM60 363q0 -19 11.5 -48t28.5 -29q2 0 34 25q0 16 -3.5 21.5t-15.5 9.5q20 0 25 36q-3 3 -10 4t-12.5 2t-5.5 3q0 1 10.5 6t22 13t14.5 17q25 0 25 8q0 10 -14 10q-31 0 -70.5 -22.5t-39.5 -55.5zM71 77q0 -25 13 -25q11 0 13 6q5 -11 45 -20.5t57 -9.5q9 0 9 6 q-4 1 -7 7t-5 11l-1 6h-61q-8 19 -63 19zM109 274q6 -13 21 -13q6 0 16.5 3.5t18.5 3.5q-15 -6 -19 -13q5 -8 35 -14t45 -6v-10q6 -1 26.5 -13t23.5 -12q10 0 30 9t26 18q0 18 -34.5 28t-76 14t-43.5 5q-5 2 -14 6.5t-15.5 8.5t-8.5 4q-16 0 -31 -19zM196 441h98 q-29 6 -98 6v-6zM214 49q0 -16 38 -16q14 0 20 3t6 7.5t3.5 10.5t12.5 10q0 -8 2.5 -10t9.5 -2q18 0 25 6q-3 4 -18 13l12 11q3 -6 13 -6q12 0 18.5 12t6.5 25q0 9 -2 13l-60 -18q-5 -5 -7.5 -14t-5.5 -12l-74 -29v-4zM301 181q11 0 28 4.5t30 4.5q0 22 -12 22 q-10 0 -27 -13t-19 -18zM301 434q9 -12 24 -12l6 1q0 8 -8 13t-17 5q-1 0 -3 -3t-2 -4zM320 136q13 0 19 0.5t16.5 2.5t15 8.5t4.5 16.5v3v5.5t-1.5 4t-4.5 3.5t-8 1h-1q-3 0 -21.5 -16t-18.5 -20v-9z" />
<glyph unicode="t" horiz-adv-x="375" d="M27 442q0 17 11.5 25t25.5 7.5t26 1t13 7.5q0 23 3.5 49t8.5 31q13 -5 13 -47q0 -8 -0.5 -17.5l-0.5 -9.5l6 -6l7.5 3.5t15.5 7.5t14.5 9t6.5 9v2t-0.5 3t-0.5 3q6 37 6 50h-2q-4 0 -25 -9.5t-22 -9.5q5 5 25 19q-20 4 -31 12q13 11 38.5 12.5t35.5 5.5q0 -4 6 -9.5 t6 -8.5q0 -1 -3 -12t-3 -13q0 -49 15 -61.5t59 -12.5q7 0 20 3t22 3q3 0 8.5 -4.5t5.5 -7.5v-74l-7 -6q-90 0 -123 -6q0 -1 0.5 -3.5t0.5 -3.5q0 -10 -6.5 -31t-6.5 -30q0 -2 2.5 -4.5t3.5 -2.5v-104q7 -7 7 -31v-11t-0.5 -9.5t-0.5 -4.5q5 -1 6 -13.5t2.5 -27t19.5 -28.5 t52 -17l7 -1q8 -1 10 -1t7.5 -2t7 -4.5t3.5 -6.5t2 -10q0 -13 -2 -22t-4 -13.5t-8 -14.5t-10 -17q-26 2 -76 18.5t-71 17.5q-33 0 -33 127q0 19 4 49t4 40q0 48 -13 161q-8 1 -34.5 7t-34.5 6q-5 0 -12 14.5t-7 23.5zM53 437q0 -6 22.5 -11t32.5 -5l56 44h13l-32 -31v-6 l62 31q-7 3 -18.5 17t-17.5 14q-14 0 -14 -13h7q-8 -13 -36 -21t-51.5 -12t-23.5 -7zM132 397h13l37 31v6q-5 -3 -19.5 -11t-22.5 -14t-8 -12zM138 170q0 -12 5 -22t5 -14q0 -8 -9 -21q7 -18 12 -18q18 0 26 6q-4 -6 -15.5 -12t-16.5 -7q0 -47 58 -47q0 -21 15 -21 q14 0 20 13q1 0 3 -1.5t3 -1.5v-11q24 0 43 26q-2 12 -43 12q-10 0 -19 -6q1 1 1 4q0 6 -11 10.5t-17 4.5t-16.5 -3t-17.5 -3q1 3 10.5 8t17.5 8l9 3l1 2q0 9 -7 9q-1 0 -4 -0.5t-5 -0.5q0 3 1.5 19.5t1.5 18.5q-1 12 -6 36t-6 26l-7 6l7 6l0.5 9.5t0.5 13.5q0 22 -4.5 63.5 t-4.5 64.5q-12 0 -18 -14.5t-6 -28.5q0 -12 3 -16t3 -5q0 -4 -3.5 -9t-3.5 -14q0 -21 10 -21h1h1q-4 -3 -7.5 -17.5t-3.5 -25.5q7 0 7 -5q0 -4 -7 -13.5t-7 -10.5zM139 361q0 -19 6 -20q26 20 26 43l-1 7q-12 0 -21.5 -10.5t-9.5 -19.5zM156 242q1 0 2 1q-1 0 -2 -1z M213 420q5 0 20.5 9t17.5 11l-13 -19q12 0 34 3.5t33 3.5l7 24q-3 0 -15.5 0.5t-14.5 0.5l-31 -1q-5 0 -14.5 -5t-16.5 -11t-7 -8v-8zM213 440q5 1 16.5 7.5t14.5 11.5h-6q-14 0 -25 -19zM273 8h23q0 16 -9 19q-14 -8 -14 -19z" />
<glyph unicode="u" horiz-adv-x="571" d="M45 271v13q12 60 12 67q0 4 -2.5 34.5t-2.5 33.5v10q0 15 5.5 30.5t18.5 15.5l62 -7q14 0 14 -60q0 -22 -2 -44l6 -6q0 -23 -0.5 -61t-0.5 -53q0 -89 21.5 -124t91.5 -35q38 0 61 7t37 31q0 6 0.5 18t0.5 18q0 36 -4.5 108t-4.5 109q0 66 2 68l11 6h69q5 0 15 -185.5 t10 -246.5q-8 -28 -74 -28q-21 0 -28 7t-7 27q0 7 0.5 17t0.5 12q-1 0 -18.5 -20.5t-47.5 -32.5t-82 -12q-73 0 -112 61.5t-45 147.5q0 3 -3 37t-4 37zM74 253q0 -37 8 -37l32 30v7h-40zM76 185h56q1 0 3.5 7t2.5 11q0 7 -3 21t-3 22q-26 -22 -56 -61zM76 284q44 30 44 42 q-27 0 -35.5 -6.5t-8.5 -35.5zM82 155v-4v-4.5v-4.5t0.5 -4.5t1 -4t1.5 -4l2 -3t3 -2.5t4 -1.5t5 -0.5q16 0 30.5 6.5t14.5 19.5q0 12 -12 12q-3 -1 -12 -12t-13 -19l-12 6q21 24 24 37q-4 0 -13.5 -0.5t-13 -1t-7 -4.5t-3.5 -11zM82 271l35 -5q1 1 6.5 3.5t8.5 2.5v37 q0 2 -1 2q-3 0 -13 -7t-21 -16t-15 -11v-6zM82 355q0 -15 6 -16q3 9 20.5 26.5t17.5 31.5q0 17 -5 20l-5 3q0 4 4 15q0 10 -38 10v-38l5 -23q0 -4 -2.5 -12.5t-2.5 -16.5zM94 98l1 -6l30 -43q24 -7 31 -12l37 18v6h-12v13h-56v7l5 -1h8q24 0 24 12q0 10 -6 13l-18 -13 q0 6 3 15t3 16q-3 -2 -16.5 -5t-23.5 -7.5t-10 -12.5zM95 333h16t9.5 2t7 6.5t1.5 12.5q0 4 -4 16q-27 -23 -30 -37zM169 30q16 -12 53 -12q23 0 33 12v-14q29 0 42.5 6t25.5 27l7 -6l18 18q-2 0 -7 0.5t-6 0.5q-19 0 -31 -7h-92q-4 0 -20.5 -10t-22.5 -15zM371 66 q0 -4 7 -11l37 25v16q3 0 8 -2t6 -2q5 0 5 13q0 3 -3.5 11t-4.5 8q-5 0 -10.5 -4t-9.5 -7l-3 -3q0 -10 7 -12q-9 -14 -21.5 -23t-17.5 -9zM384 293q0 -5 3 -11t7 -6q12 0 23 22t11 35q0 2 -2.5 6.5t-4.5 4.5l-30 -30l-1 -2q0 -9 13 -9q-5 0 -12 -4t-7 -6zM385 342q0 -9 6 -9 q22 13 26.5 24.5t4.5 45.5q0 23 -16 23q-3 0 -8.5 -0.5t-6.5 -0.5l-6 -46q17 -4 17 -8q0 -2 -8.5 -11t-8.5 -18zM386 23l9 -9l33 11v5zM390 189q15 0 25.5 12t10.5 27h-11q10 8 10 55q-13 0 -21 -10t-8 -23q3 -15 14 -15q-20 0 -20 -46zM391 43l6 -1h11q26 0 26 15 q0 18 -8 18q-11 0 -22.5 -11t-12.5 -21zM396 139q0 -14 7 -16q19 19 19 21q0 3 -7 6.5t-12 3.5q-7 0 -7 -15zM402 165q18 0 23 4.5t5 23.5q-10 0 -19 -8.5t-9 -19.5z" />
<glyph unicode="v" horiz-adv-x="524" d="M8 445q0 19 35 19q4 0 12 -0.5t11 -0.5q17 0 35.5 -43t18.5 -61q66 -185 112 -241l5 7q8 26 28 69t28 66q1 3 8.5 26.5t16.5 52t18.5 57t16.5 48t8 19.5h74l6 -5q0 -93 -35 -190.5t-95 -217.5q-1 -1 -7 -24.5t-18 -31.5q-9 0 -25 -0.5t-24 -0.5q-49 0 -67 27 q-39 163 -86 247q-16 10 -38 67q-1 0 -19 43q0 10 -9.5 38.5t-9.5 29.5zM40 436q0 -18 26 -73t37 -55q0 25 -22.5 76.5t-40.5 51.5zM108 281q0 -14 12 -14q-4 19 -12 23v-9zM126 245q0 -4 4.5 -25t8.5 -21h13q0 11 -9 30.5t-17 24.5v-9zM151 180q0 -8 14 -8q0 18 -7 20 q-7 -2 -7 -12zM152 159q0 -23 20 -23q0 13 -4 19t-15 11l-1 -3v-4zM176 118q0 -14 20 -14q0 27 -11 27q-9 0 -9 -13zM182 94l4 -16l4.5 -18t4.5 -14t6.5 -11.5t8.5 -3.5q14 0 36.5 7.5t27.5 17.5l2 -4q0 -1 -5.5 -5.5t-7.5 -8.5l5 -7q11 8 24.5 32.5t13.5 37.5q-1 0 -9 -3 t-18.5 -8t-15.5 -9l11 -12q-5 -1 -19.5 -10t-19.5 -9q-6 0 -29 13q7 3 7 6q0 16 -3 21t-16 5q-1 0 -6 -0.5t-6 -0.5zM268 106q4 -1 9 -1q23 0 23 10q0 7 -9 11t-17 4zM280 148q2 0 19 9.5t24 16.5q-5 12 -30 12q-13 -24 -13 -38zM300 143q3 -9 23 -13v19q-1 0 -4.5 -1 t-9 -2.5t-9.5 -2.5zM311 204q12 -12 25 -12q20 0 20 34q-8 0 -19.5 -12t-18.5 -12q-3 0 -7 2zM311 217q70 28 70 64l-1 9q-19 -12 -44 -23l12 -13q-3 -11 -11 -7.5t-17 -2t-9 -27.5zM330 285q32 0 55 31h-44q-11 0 -11 -31zM354 357q19 0 44 33q-14 -2 -22.5 -5t-15 -10 t-6.5 -18zM355 334q6 0 14.5 -0.5t11.5 -0.5q12 0 14.5 5.5t2.5 26.5q-28 -8 -43 -31zM367 396q41 0 49 18q-5 8 -5 22h-7.5h-7.5t-6.5 -0.5t-6 -1t-4.5 -2.5t-4 -4t-2 -5.5t-1 -8.5q6 -3 6 -6t-5.5 -7t-5.5 -5z" />
<glyph unicode="w" horiz-adv-x="753" d="M14 434q0 6 2.5 15.5t4.5 9.5h73q10 0 45.5 -66t35.5 -76l30 -86q0 -2 3 -19l4 -18h6q7 0 21.5 66t34 132.5t39.5 66.5q9 0 9 -6q26 2 32 2q24 0 32 -9.5t20 -43.5q2 -6 3 -10q0 -7 6 -13q2 -7 10 -43t9 -43q6 -29 24.5 -73.5t33.5 -44.5q11 0 18 31.5t12.5 72.5t9.5 51 q23 69 37 104q-1 2 -1 6q0 9 8.5 14.5t17.5 5.5q39 0 56 -13q-1 -34 -17.5 -81t-19.5 -61q-2 -10 -6 -35.5t-7 -38.5q-2 -9 -13.5 -32t-11.5 -38q0 -7 1 -10l-31 -112q1 -3 1 -9q0 -37 -75 -37l-31 23q-17 18 -30 46t-13 40q0 1 -43 110q-5 13 -10 41t-9 40l-18 -93 q-4 -2 -10.5 -25t-13 -51.5t-8.5 -34.5q-15 -42 -32 -63t-45 -21q-25 0 -58 16l-1 18q-1 12 -8.5 18t-9.5 13q-4 27 -32 102t-28 116q-7 0 -10.5 2t-4 4.5t-2 9.5t-3.5 13q-4 11 -12 29.5t-12 28.5t-8 26t-5 33zM39 434q5 -26 21 -26q2 0 10 2q-2 -1 -7 -9t-6 -9v-3 q0 -10 12 -10q2 0 14.5 3t17.5 3l-18 44q-4 5 -44 5zM63 367q0 -15 13 -25q13 20 13 25h-26zM80 323q0 -18 12 -46t24 -28q8 0 34 26q-33 0 -37 11q26 21 26 37h-59zM94 342h33q0 8 -14 18zM119 231h50q0 22 -12 31q-10 -6 -23.5 -17.5t-14.5 -13.5zM125 204q0 -35 25 -35 q31 0 31 19q0 12 -9 12q-5 0 -14.5 -3t-19.5 -3q25 0 25 26q-38 0 -38 -16zM137 157q0 -8 7 -19q20 10 20 19h-27zM150 120q4 0 11 -0.5t11 -0.5q21 0 21 10q0 23 -12 23q-8 0 -17.5 -14.5t-13.5 -17.5zM154 101q0 -24 30 -24q17 0 71 19q8 0 8 42h-14q0 -26 -9 -33.5 t-28.5 -8.5t-30.5 -7l6 12h-33zM162 28h3l3 -1q10 0 13 7h-3q-10 0 -16 -6zM168 58q0 -1 37 -12q15 11 15 25h-15q-33 0 -37 -13zM225 43q5 0 8.5 2t6 7t4 7t3.5 9.5t2 8.5h-3q-9 0 -14.5 -8.5t-5.5 -16.5zM249 160q0 -6 13 -9q13 0 18 31h-4q-7 0 -17 -7t-10 -15zM249 182 q21 5 34.5 20t13.5 36q-15 0 -31.5 -20.5t-16.5 -35.5zM266 240q22 0 32 23.5t10 48.5q-12 0 -23.5 -8t-11.5 -20q0 -2 3.5 -7.5t3.5 -8.5q0 -2 -7 -11.5t-7 -16.5zM285 317l14 6h-14v-6zM289 335h28v13q-28 0 -28 -13zM299 360q3 1 14.5 5t19 7.5t7.5 6.5h-36zM310 397 q0 -5 7 -5h62l5 5q-8 21 -31 21q-9 0 -13 -2l7 6q-2 8 -15 8q-10 0 -16 -10.5t-6 -22.5zM347 360q12 -4 14 -21t18 -22q-18 0 -18 -19q18 0 30 13t12 31q0 3 -7 14.5t-7 18.5q-24 0 -42 -15zM371 275h44q-2 3 -4 10.5t-5 10.5t-11 3q-5 0 -14.5 -10.5t-9.5 -13.5zM376 256 q0 -26 11 -26q8 0 19 9t11 17h-41zM395 209q0 -21 8 -21l24 12q-8 9 -32 9zM403 225q2 -9 26 -9q0 15 -12 15q-8 0 -14 -6zM409 170q1 0 6 -0.5t6 -0.5q15 0 21.5 4t6.5 18q-19 0 -40 -21zM415 151l6 -25q8 -2 22.5 8t14.5 20q-1 9 -5 9zM433 83q0 -2 2 -6t2 -5q26 13 40 29 q-1 0 -5 1h-4q-35 0 -35 -19zM434 108q6 0 22 3.5t21 8.5q0 6 -2 10.5t-4 7t-3 1.5l-4 -1zM445 52q0 -18 11 -18q6 0 16.5 13t10.5 17l-37 -6q-1 -5 -1 -6zM458 77q1 -7 13 -7q13 0 20 3.5t10 3.5t10.5 -3.5t15.5 -3.5v41q-13 -11 -34.5 -18t-34.5 -16zM477 34h6h5.5h4.5 t4.5 0.5t3.5 1.5t2.5 2t2 3t1.5 4.5t0.5 5.5t0.5 7q-20 -10 -31 -24zM526 117q13 0 17.5 10t4 23t1 28t8.5 22q0 1 -5 4t-7 3q-1 0 -4 -3t-3 -4q-7 -39 -12 -83zM544 212q9 0 17.5 5t8.5 14q0 7 -11 7q-15 0 -15 -26zM551 250q30 0 30 18q-2 5 -12.5 14t-17.5 11v-43z M561 322q7 0 18 10.5t17 10.5l1.5 -0.5t2.5 -0.5q25 39 25 80q-8 -3 -17 -7.5t-18 -13.5t-9 -19q0 -9 14 -9q-15 -5 -24.5 -19.5t-9.5 -31.5zM563 308q0 -4 18 -22q14 19 14 44q-1 0 -16.5 -9.5t-15.5 -12.5zM586 428q6 -2 7 -2q7 0 16 9q-8 2 -14 2q-9 0 -9 -9z" />
<glyph unicode="x" horiz-adv-x="513" d="M11 -7v26q24 35 66 112.5t70 115.5q-3 4 -12 19.5t-19 33.5t-12 21q-8 14 -33.5 40t-42.5 51t-17 49q0 21 52 21q24 0 28 -1l148 -148l75 166q2 1 3 1q3 0 9 -6q55 -5 92 -19q6 -2 6.5 -9t6.5 -9q-9 -12 -22 -36.5t-23 -40.5t-15 -16q-3 0 -3.5 -7t-4.5 -7q-3 0 -6 1 q-4 -19 -36.5 -47.5t-32.5 -47.5q28 -55 70.5 -114.5t67.5 -95t25 -49.5q0 -16 -20 -16q-1 0 -13.5 3.5t-17.5 3.5q-32 -3 -37 -3q-8 0 -24 9.5t-16 20.5q0 -1 -10.5 13.5t-22 30.5t-13.5 21q-3 6 -16.5 34.5t-24 50t-13.5 21.5q-8 0 -29.5 -51t-46 -102.5t-40.5 -51.5z M48 450l8 -15q7 -15 14.5 -25.5t14.5 -14.5q19 19 19 20q0 7 -11 9.5t-13 6.5q6 6 6 10q0 10 -25 10q-1 0 -6.5 -0.5t-6.5 -0.5zM75 51q0 -18 9 -18q8 0 20 20t12 33q-22 0 -31.5 -7t-9.5 -28zM97 393q0 -1 1 -1q0 -10 12 -10q8 0 25 6q-4 5 -9.5 10t-9.5 8l-4 2 q-2 0 -8.5 -6.5t-6.5 -8.5zM110 117q9 -12 25 -12q13 0 13 12h-38zM110 356q10 0 18 14h-18v-14zM111 19q8 3 8 11h-8v-11zM116 142q32 0 47 15.5t28 42.5t30 41h-22q0 -17 -29.5 -34t-29.5 -34h19q-5 -8 -21.5 -16t-21.5 -15zM127 342q0 -2 2.5 -5.5t5.5 -3.5q9 0 26 4 t17 11q0 2 -9.5 12.5t-11.5 10.5q-5 0 -17.5 -13.5t-12.5 -15.5zM154 303q49 0 49 15q1 0 -1 3.5t-5.5 7t-6.5 4.5q-25 -17 -36 -30zM164 284q0 -13 11 -13q5 0 11 4t14 13l9 8h-4q-7 0 -24 -3t-17 -9zM202 266h20q0 9 -7 11zM239 222q6 -6 7 -6q12 0 15 2t3 10q0 12 -5 19 q-9 -1 -14.5 -7.5t-5.5 -14.5v-3zM264 289q0 -18 9 -18q8 0 20 20t12 33q-22 0 -31.5 -7t-9.5 -28zM270 173q0 -8 32 -8q0 26 -12 26q-8 0 -14 -5.5t-6 -12.5zM280 141q16 0 16 13q-16 -2 -16 -13zM282 345q10 -2 25 -12h3q3 0 22 21.5t19 25.5q0 5 -9.5 8.5t-9.5 12.5l5 6 q5 0 14.5 -3t11.5 -3v6q-32 14 -35 14l-2 -1zM300 123l1 -6l36 -6q0 1 0.5 3t0.5 3q0 18 -24 37q-14 -18 -14 -31zM305 106q0 -18 14 -26q4 1 7 5t4.5 6.5t1.5 3.5q0 11 -27 11zM325 457q0 -4 1 -8t3.5 -7t4.5 -5.5t6 -4.5t6.5 -3.5t7.5 -3t7 -2l8 -2t7 -1.5q1 5 7 16t6 13 l-1 2q-5 0 -11.5 -4t-13.5 -4q-17 0 -19 7l7 7h-26zM332 71q0 -12 31 -16q-2 -7 -16 -7q-2 0 -5.5 0.5t-4.5 0.5q0 -31 26 -31q30 0 30 19h-23q0 2 -1 4l-1 2q0 2 8 6q-3 5 -6.5 17t-7 19.5t-8.5 7.5q-3 0 -12.5 -9.5t-9.5 -12.5z" />
<glyph unicode="y" horiz-adv-x="565" d="M-1 461q0 13 63 13q43 0 43 -19q44 -116 111 -240q5 -17 25.5 -44.5t23.5 -42.5q33 62 69 151.5t49 150.5q4 22 11.5 27t31.5 5q30 0 43 -7.5t13 -36.5l-7 6q-5 -6 -10.5 -28.5t-12 -40t-14.5 -17.5q2 0 5 -4.5t3 -5.5q-2 -3 -6.5 -13t-9.5 -19l-4 -8h-9q0 -5 0.5 -11 t0.5 -7q0 -5 -13 -5q0 -26 -8.5 -57t-24 -71.5t-20.5 -57.5q-32 -29 -38 -78t-18 -64q-11 -11 -14.5 -17t-4.5 -12.5t-5 -13.5v12q-6 -4 -12 -15.5t-6 -15.5q6 -2 6 -12q0 -4 -31 -50t-38 -49q-2 -1 -21 -3.5t-21 -2.5q-4 0 -11 -3.5t-13 -3.5q0 5 -4 10t-4 10v6 q6 18 26.5 66t31 84t10.5 69q0 11 -5.5 26.5t-12.5 19.5l-44 99l-21 54q-20 54 -42.5 112.5t-28.5 67.5q-32 54 -32 86zM29 447q0 -13 11.5 -31t11.5 -32q48 0 48 21q0 17 -27 29.5t-44 12.5zM59 371q0 -31 60 -39q3 -1 4 -1h-44q0 -37 11 -37q16 0 28.5 17.5t12.5 33.5 q0 18 -16 18q-4 0 -16 -7q0 3 3 7t3 6q0 3 -3 7.5t-6 4.5q-7 0 -22 -3t-15 -7zM99 276q2 0 9.5 -0.5t8.5 -0.5q9 0 23 4t22 4q0 8 -9 22t-14 14q-8 0 -21 -15.5t-19 -27.5zM111 239q8 7 12 18q-1 0 -3 1q-9 0 -9 -19zM130 190q19 7 24 25h-2q-10 0 -16 -9t-6 -16zM135 225 q44 0 44 11q0 26 -18 33q-2 -4 -14 -19t-12 -25zM139 -212q0 -6 16 -10q8 5 12 5q1 0 5 -1t8 -3t5 -2l38 55v19q-49 -29 -50 -31l6 -9q0 -6 -15.5 -14.5t-24.5 -8.5zM154 147l7 -13l18 19q-16 0 -25 -6zM166 -167q0 -5 1 -7q1 1 5 2q17 10 28.5 16.5t25.5 21t15 28.5 q-46 -20 -46 -31h15q-3 -8 -23.5 -13.5t-20.5 -16.5zM166 182h1.5t3 -0.5t4 -0.5h4.5q25 0 25 12q0 3 -5 9t-8 6q-7 0 -16 -9t-9 -17zM178 -132q10 0 50 32v7q-18 0 -34 -10t-16 -29zM191 128h5h6t6 0.5t6 1t4.5 2t3.5 3.5t1 5q0 13 -10 13h-3zM197 54q0 -1 3 -3.5t4 -2.5 q7 0 19.5 9t17.5 16h-3q-2 0 -18 -7.5t-23 -11.5zM204 -63l0.5 -0.5t1.5 -0.5t17 7q-1 0 -4 0.5l-3 0.5q-10 0 -12 -7zM216 23l56 19q3 0 8 -4t5 -6l-1 -3l-68 -68q11 0 20 1t16 4t12 5t10 8.5t7.5 10t6 13t5 13.5t5 16.5t5.5 18.5q0 3 -7 6t-12 3q29 10 42 28t13 49 q0 8 -7 13h20v33q-13 2 -13 8q0 1 1 6t1 8q2 0 10 -5t11 -5q9 15 9 27q0 4 -7 11q0 2 1 4.5t3 5.5t3 3h-19l-7.5 -15t-16.5 -35t-14 -31q-12 -27 -12 -57q0 -12 8 -12q-20 -6 -46.5 -33t-47.5 -34v-6zM216 -75v-9q31 0 38 4t18 30h-7q-1 1 -25 -11t-24 -14zM216 85 q23 4 31 19l-6 1q-6 0 -11.5 -2.5t-9.5 -7t-4 -10.5zM222 0q0 -1 1 -1q3 0 7.5 4t4.5 7l-1 1q-3 0 -7.5 -4.5t-4.5 -6.5zM356 251q18 0 29 10t11 27h-20l13 13h-9q-9 0 -14.5 -4.5t-7 -14.5t-2 -15t-0.5 -16zM374 313h33q1 0 2 1.5t2 3.5t1.5 4t0.5 3q1 4 7.5 18.5t13 28.5 t11.5 28t5 19q0 12 -9 12q-15 0 -34 -19q20 -7 20 -15q0 -6 -8 -10q1 1 1 3q0 3 -1.5 5.5t-3.5 4t-4 1.5t-5 -2.5t-5 -4.5l-2 -2q0 -1 4 -4.5t4 -6.5q0 -2 -2.5 -7t-3.5 -5l12 -6q-30 0 -30 -21q0 -5 6 -11q-15 -11 -15 -18z" />
<glyph unicode="z" d="M30 396v22q0 62 17 62q21 0 61 -6t60 -6q6 0 58.5 3t58.5 3q19 0 60.5 -6t59.5 -6q3 0 8.5 2.5t7.5 3.5q2 -3 5 -13t7 -12q-3 -22 -16.5 -41t-63.5 -76q-16 -18 -32.5 -53t-22.5 -45q-11 -18 -47 -69.5t-52 -78.5l-1 -2v-2l1 -3l24 -6h149q3 -6 12 -6q7 0 31 12v-6 q3 -12 18 -62q-4 -11 -8.5 -15t-15.5 -4q-1 0 -12.5 2t-26 3.5t-23.5 1.5q-3 0 -25 -3.5t-24 -3.5q-28 0 -49 7l11 7q-23 0 -24 -7h-80q-3 5 -29 6t-51 2t-25 4v8h-3h-4.5t-3 2.5t-1.5 6.5q0 19 37 63t43 56q30 59 80 141q5 9 20.5 28t22.5 34.5t7 37.5q-63 14 -219 14z M57 418q44 0 44 25q-1 9 -16 9q-5 0 -14 -1t-14 -1v-32zM88 27q10 0 20.5 2.5t10.5 5.5q0 -1 -2 -1l-29 8v-15zM106 67l37 6q-7 1 -12 6.5t-6 12.5q-19 -3 -19 -25zM112 425q3 0 23 0.5t33 0.5q50 0 81 -8q4 0 8.5 1t9.5 2.5t9.5 3.5t8.5 4l7 3.5t4.5 3l1.5 1.5l-7 6h-154 q-9 0 -17 -5t-8 -13zM125 30q7 0 17 10t10 15h-18q0 -22 -9 -25zM125 104q13 0 31 7.5t24 17.5q-10 6 -31 6q-3 0 -9 -7.5t-10 -14.5t-5 -9zM143 30h32v6q-20 0 -32 -6zM167 178l0.5 -3l0.5 -3q3 2 9 5t11.5 5.5t11 5.5t8.5 5t3 3q-1 0 -4.5 0.5t-6.5 1t-4 0.5 q-29 0 -29 -20zM185 23q8 0 17.5 4t9.5 6q0 5 -7 9q-7 0 -13.5 -6t-6.5 -13zM193 154q5 -1 6 -1q7 0 13 4.5t6 11.5l-1 3q-18 -11 -24 -18zM210 239q11 0 13 7l-6 6q-7 -4 -7 -13zM217 23h56l7 -5q2 0 48.5 3.5t69.5 11.5q0 10 -30 10q-21 0 -57.5 -4t-56.5 -4q-12 0 -18 1 q-14 -4 -19 -13zM230 221q1 -7 14 -7q10 0 14.5 4.5t8.5 15.5h-3q-5 0 -34 -13zM241 293q0 -1 0.5 -2t0.5 -2l38 19h-7q-6 0 -12.5 -1t-13 -5t-6.5 -9zM267 270l18 -6l6 25q-5 0 -10.5 -2t-9.5 -6.5t-4 -10.5zM279 351h6v12q-6 -4 -6 -12zM309 421q0 -1 0.5 -2l0.5 -1l18 19 h-2q-4 0 -8 -3t-6.5 -6.5t-2.5 -6.5zM322 369q14 0 30 12.5t24 22t21 27.5q-2 4 -5 5t-7.5 0.5t-6.5 0.5q-14 -12 -33.5 -37.5t-22.5 -30.5zM371 6q0 -3 10 -3q7 0 9 2q0 3 -10 3q-9 0 -9 -2z" />
<glyph unicode="{" horiz-adv-x="320" d="M4 311l1 8q46 35 58.5 84.5t12.5 125.5q0 45 8.5 66t37.5 48q2 1 6 4t7.5 4.5t6.5 1.5q1 -4 6.5 -3.5t11.5 3.5t7 5q4 1 25.5 3t25.5 2q21 0 21 -16q0 -8 -12 -20q12 -5 12 -18q0 -4 -17 -9t-37 -11t-37 -25t-17 -49q0 -16 6 -46t6 -45q0 -25 -26.5 -67t-26.5 -48 q0 -4 15.5 -38t20.5 -43v-152q0 -6 21 -26.5t35 -20.5q3 0 7.5 0.5t6.5 0.5q16 0 27 -12.5t11 -32.5q0 -11 -11 -15q-3 1 -18 3t-18 2q-28 2 -69.5 21.5t-41.5 44.5v92q0 2 -3.5 7.5t-6.5 6.5q5 19 5 36q0 6 -5 14q0 2 2.5 8t2.5 10q0 14 -17.5 47t-28.5 37q-3 1 -7.5 1h-7 t-4.5 2.5t-2 8.5zM40 311q0 -6 16 -12v15l30 41v13q-5 0 -25.5 -26t-20.5 -31zM65 286l4 -8q4 -7 9.5 -16.5t7.5 -14.5v3q1 3 1 4q0 8 -7 18.5t-14 15.5zM79 369q15 0 26 14.5t11 29.5q0 1 -2.5 6t-2.5 6q6 5 6 10q0 7 -6 12.5t-14 5.5q0 -6 -5.5 -17.5t-5.5 -15.5 q0 -20 15 -20q-10 -1 -16 -10.5t-6 -20.5zM90 90q0 -8 3 -23t8 -16q6 1 6 12q0 27 -17 27zM91 233q0 -21 10 -25l1 7q0 16 -11 23v-5zM95 515q0 -13 6 -18q6 0 6 35q0 6 -0.5 14.5t-0.5 9.5q5 12 24 24.5t19 28.5q39 0 69 18q-2 0 -14 0.5t-15 0.5q-17 0 -33.5 -3t-33.5 -14 t-17 -29q0 -2 0.5 -3.5t0.5 -2.5q0 -4 -9 -9q4 -3 4 -6q-5 -6 -5 -32q0 -2 -0.5 -6.5t-0.5 -7.5zM97 101q0 3 2.5 7.5t2.5 8.5h-5v-16zM97 157q5 3 5 10h-5v-10zM97 461h7q0 5 4 9.5t4 8.5q0 8 -11 8l-4 -1v-25zM101 37q0 -12 25 -12q1 0 6 1h5q-8 1 -14 10.5t-14 9.5t-8 -9 zM136 12l1 -2l25 -10v-7q15 0 15 10q-1 4 -8.5 8.5t-14 7t-7.5 2.5q-11 0 -11 -9zM187 0v-4h20v4h-20z" />
<glyph unicode="|" horiz-adv-x="244" d="M49 -10l4 6v151q8 33 11 70.5t3 86t1 71.5q11 200 11 272l5 6h66l4 -6q0 -16 6 -40v-172q5 -1 5 -10q0 -30 -3 -85t-3 -84q0 -4 0.5 -14t0.5 -14q-9 -9 -9 -26q0 -4 0.5 -10.5t0.5 -9.5q0 -17 -8 -25v-111l-4 -5l4 -91q17 -17 17 -28q0 -10 -31 -10q-43 0 -46 12 q-2 -5 -13 -5q-15 0 -15 5v62zM72 55q0 -11 5 -26t13 -15q31 0 31 21q0 5 -3.5 12.5t-8.5 7.5h-37zM76 69q11 0 18 13h-3q-15 0 -15 -13zM76 89q15 0 20.5 0.5t14 3t11.5 10t3 19.5h-16v5h-25q-5 0 -5 -10q0 -6 5 -6q9 0 14 5q-1 -1 -5.5 -4.5t-7.5 -6.5t-6 -7.5t-3 -8.5z M81 -35q0 -5 0.5 -12.5t0.5 -9.5q6 0 13 1.5t11 3.5l3 2q-1 2 -1 20q0 24 6 30q-6 5 -26 5l6 -5q-13 -8 -13 -35zM82 187q14 0 22 10h-7q-15 0 -15 -10zM83 170l1 -1v-2q3 0 20 -3l18 -2q9 0 9 31q-11 0 -29.5 -7t-18.5 -16zM88 142q5 -1 10 0.5t7.5 4t0.5 5.5 q-10 0 -18 -10zM88 223q12 0 25 11t22 13v41q-15 -5 -15 -10q3 -9 4 -9v-5l-1 -3q-10 3 -18 3q-12 0 -12 -8h20q0 -2 -12 -14.5t-13 -18.5zM92 278q9 0 22.5 12t20.5 15v24q-5 -3 -13.5 -12t-8.5 -11t1 -4v-3q-4 -6 -13 -6.5t-9 -14.5zM93 307q12 0 12 8q0 3 -1 4 q38 15 38 73q-21 0 -48 -32q0 -1 2 -3t3 -2t12 0.5t13 0.5v-7q-10 2 -12 2q-19 0 -19 -44zM94 66q31 0 31 19q-22 0 -31 -19zM94 375l46 28v110q-13 0 -25 -12.5t-12 -25.5l1 -5l25 -9q1 -1 1 -2q0 -10 -10 -23t-21 -21q15 -5 30 -5v-7h-30q-5 -5 -5 -28zM97 456 q0 -22 7 -26l16 26h-23zM98 116l1 1zM99 206q28 0 33 4t5 30q-12 0 -25 -11.5t-13 -22.5zM102 565q0 -5 2 -9l12 9t10.5 8.5t6.5 7.5t5.5 10.5t1.5 13.5q0 3 -0.5 6t-2.5 5t-3 3.5t-4 2t-4.5 1.5t-5.5 1h-5h-5.5h-5.5v-22h9q1 -4 1 -5l-1.5 -2.5t-2.5 -4.5l-1 -2l11 -6 q-18 -2 -18 -17zM103 506l1 -4q12 7 12 15q-13 0 -13 -11zM103 534q0 -8 18 -8q12 0 15.5 5t3.5 18q0 21 -5 23q-32 -36 -32 -38z" />
<glyph unicode="}" horiz-adv-x="320" d="M4 609q0 13 12 18q-12 12 -12 20q0 16 21 16q4 0 25.5 -2t25.5 -3q1 -2 13.5 -8t16.5 -7l-5 10q3 0 6.5 -1.5t7.5 -4.5t6 -4l-4 -5q31 -23 40.5 -43.5t9.5 -65.5q0 -50 3 -80t19.5 -68t48.5 -62q1 -6 1 -8q0 -7 -2.5 -9t-8.5 -2q-12 0 -34 -30.5t-22 -54.5q0 -4 2.5 -10 t2.5 -8q-5 -8 -5 -14q0 -17 5 -36q-3 -1 -6.5 -6.5t-3.5 -7.5v-92q0 -25 -41.5 -44.5t-69.5 -21.5q-3 0 -18 -2t-18 -3q-11 4 -11 15q0 23 5 28.5t24 5.5q0 11 9 11q2 0 6.5 -0.5t7.5 -0.5q14 0 35 20.5t21 26.5v152q5 9 20.5 43t15.5 38q0 6 -26.5 48t-26.5 67q0 15 6 45 t6 46q0 30 -17 49t-37 25t-37 11t-17 9zM25 627q29 -18 68 -18q-1 2 -1 3q0 6 4 6t4 -6q0 -5 -4 -5q-1 0 -2 1q0 -15 19 -27t24 -25q0 -1 -0.5 -9.5t-0.5 -14.5q0 -35 6 -35q6 5 6 18q0 3 -0.5 7.5t-0.5 6.5q0 26 -5 32l4 6q-9 5 -9 9q0 1 0.5 2.5t0.5 3.5q0 18 -17 29 t-33.5 14t-33.5 3q-3 0 -14.5 -0.5t-14.5 -0.5zM36 0v-4h20v4h-20zM42 602q0 -5 3 -5q5 0 5 5t-5 5q-3 0 -3 -5zM56 653q4 -2 8 -2q7 0 7 2t-7 2q-8 0 -8 -2zM66 3q0 -10 15 -10v7l25 10q1 1 1 2q0 9 -11 9l-3 -1t-7 -2.5t-8.5 -3.5t-7.5 -5t-4 -6zM106 26h2.5t5 -0.5 t3.5 -0.5q8 0 16.5 3t8.5 9q0 9 -8 9t-14 -9.5t-14 -10.5zM111 602q0 3 6 3q4 0 4 -2q0 -3 -4 -3q-2 0 -6 2zM118 223q0 -4 3 -4q5 0 5 4q0 5 -5 5q-3 0 -3 -5zM126 435q0 -5 6 -10q0 -1 -2.5 -6t-2.5 -6q0 -15 11 -29.5t26 -14.5q0 11 -6 20.5t-16 10.5q7 0 11 6.5t4 13.5 q0 4 -5.5 15.5t-5.5 17.5q-8 0 -14 -5.5t-6 -12.5zM128 612q0 -5 4 -5t4 5q0 6 -4 6t-4 -6zM128 632q0 6 4 6t4 -6q0 -5 -4 -5t-4 5zM131 479q0 -4 4 -8.5t4 -9.5h7v25q-3 1 -4 1q-11 0 -11 -8zM136 63q0 -11 6 -12q3 1 6 9.5t4 17t1 12.5q-17 0 -17 -27zM141 117 q0 -4 2.5 -8.5t2.5 -7.5v16h-5zM141 167q0 -7 5 -10v10h-5zM141 215l1 -7q10 4 10 25v5q-11 -7 -11 -23zM143 142q0 -5 3 -5q5 0 5 5t-5 5q-3 0 -3 -5zM144 180q0 -3 2 -3q3 0 3 3t-3 3q-2 -2 -2 -3zM148 572q0 -5 4 -5t4 5q0 6 -4 6t-4 -6zM153 71q0 -5 4 -5t4 5t-4 5 t-4 -5zM156 254q0 -1 1 -5v-2q1 2 2.5 5.5t3.5 7t4 7.5t4 7t3.5 6t2.5 4.5l1 1.5l-1 2q-7 -5 -14 -15.5t-7 -18.5zM157 355l30 -41v-15q16 6 16 12q0 5 -20.5 31t-25.5 26v-13zM178 273q0 -4 4 -4t4 4q0 5 -4 5t-4 -5z" />
<glyph unicode="~" horiz-adv-x="459" d="M2 320q0 9 2.5 15.5t8 14t8.5 12.5q6 12 11.5 19.5t10 12t11.5 6.5t12.5 2.5t18 1.5t22.5 2q1 0 7 3l5 3q38 0 69.5 -23.5t54.5 -26.5q13 0 32 25t34 25q12 0 21 -15t12 -17q-10 -27 -41.5 -50t-60.5 -23q-31 0 -73 19t-63 19q-10 0 -33 -6q0 -1 0.5 -2.5t0.5 -2.5 q0 -9 -9.5 -18t-17.5 -9q-3 0 -22.5 6.5t-20.5 6.5zM39 339q28 28 43 36h-6q-11 0 -24 -12t-13 -24zM44 313q4 0 9 4t5 8l-1 1q-2 0 -7.5 -5.5t-5.5 -7.5zM95 375q13 0 36 -4t35 -4q0 14 -34 14q-9 0 -19 -0.5t-12 -0.5zM169 357q7 -7 20 -13t17 -6h4l2 1l-34 24q-3 0 -9 -6 zM298 362q7 0 7 13q-7 0 -7 -13zM320 378l3 -16q2 0 4 4.5t2 5.5z" />
<glyph unicode="&#xa1;" horiz-adv-x="260" d="M48 -58q0 35 1.5 69.5t5 77t6.5 71.5t9 86.5t9 87.5q5 6 22 6q34 0 34 -8q0 -7 3 -48l2 -41l4 -11q0 -50 10 -141.5t10 -142.5q0 -8 -8 -13.5t-8 -11.5q-5 0 -8 6q-2 -5 -7.5 -5t-8.5 -4l-4 9h-11q4 0 4 -5q0 -4 -4 -4t-4 4q0 5 4 5h-15l-6 -9q-3 8 -4 9q-4 0 -10 -3 t-11 -3q-15 0 -15 19zM68 -50h17q0 10 -10 10q-1 0 -2 -2t-2.5 -4.5t-2.5 -3.5zM77 34q0 -4 1 -9v-5q0 -20 1 -20l20 -10q-1 3 -8.5 14t-7.5 19q0 14 17 14q0 3 -6.5 9t-9.5 15q-7 -6 -7 -27zM79 489q0 17 20 17q1 0 17.5 -2.5t18.5 -2.5l7 3q7 2 8 2q10 -7 10 -16 q0 -1 -2.5 -20.5t-3.5 -24.5q-10 -15 -59 -15h-1q4 0 4 5q0 6 -4 6q-5 0 -5 -6q0 -5 5 -5h-10zM82 119q0 -12 9 -12h3q-2 12 -12 12zM88 -30l6 -15h26q-15 15 -32 15zM88 193q0 -19 3 -23t18 -8q0 19 -21 31zM93 271q0 -5 0.5 -14t0.5 -13q0 -13 17 -13q0 60 -7 78 q-11 -12 -11 -38zM102 143q0 -10 5 -19.5t15 -9.5q0 29 -20 29zM104 71q9 -21 22 -21q0 21 -22 21zM104 207l10 -5v5h-10zM104 466l5 -5q20 0 26 10q-2 6 -13 6q-18 0 -18 -11zM123 0q0 -6 12 -15v15h-12zM155 -76q0 5 5 5q3 0 3 -5q0 -4 -3 -4q-5 0 -5 4z" />
<glyph unicode="&#xa2;" horiz-adv-x="455" d="M32 333q0 70 44.5 122.5t112.5 72.5v97q4 -5 12 -18.5t8 -17.5l-2.5 -4.5t-2.5 -5.5q0 -5 3 -7.5t6 -2.5q7 0 11.5 5.5t4.5 12.5q0 3 -4 7q9 7 9 15q0 9 -11 11.5t-14 8.5q29 6 36 11q1 -1 3.5 -7.5t5.5 -14t5 -13.5l2 -6q0 -3 -5.5 -17.5t-5.5 -17.5q0 -46 12 -46 q2 0 5 3.5t3 6.5q2 -4 16 -9.5t20 -5.5l14 6q7 0 15.5 -9.5t16.5 -9.5l-2 -2q-14 -22 -14 -40q0 -4 2.5 -8.5l2.5 -4.5q0 -2 -5 -4.5t-12 -5t-8 -2.5l0.5 1t0.5 2q0 12 -47 12v3q-10 0 -22 1t-17 1q-13 0 -27 -5v3q-12 0 -23 -9q2 -2 2 -4q0 -5 -4 -5q-3 0 -4 3 q-7 -8 -11 -19h-6q0 -17 -15 -47t-15 -45q0 -73 31 -125q14 -24 15 -24h55q0 -7 10 -7q15 0 47.5 16t42.5 16q7 0 12.5 -21.5t5.5 -32.5q0 -15 -31 -24.5t-56 -9.5q-1 0 -3.5 0.5l-2.5 0.5l7 -5v-35q-7 -4 -7 -9q0 -3 7 -17q0 -40 -56 -41q3 1 3 5q0 5 -4 5t-4 -5t3 -5h-4 q-11 0 -11 18v3q0 12 2 35.5t2 36.5q-17 0 -18 14l-10 -5v5l-26 20l-10 -6q0 1 -14 17t-29.5 34t-16.5 21q-36 64 -36 133zM47 326q0 -1 2.5 -3l2.5 -2h2l4 1.5t10.5 5t14 7.5t14.5 9.5t11 11.5l-5 1q-9 0 -24.5 -5.5t-23.5 -5.5q-5 0 -8 1q5 -5 5 -16q0 -1 -2 -3t-3 -2z M52 281h5v-11q14 0 30 18.5t16 34.5l-6.5 -2.5t-15.5 -6.5t-13 -8l-6 5q-10 -13 -10 -30zM52 361h10l51 31v5q-14 -6 -27 -5.5t-19 -3t-15 -21.5v-6zM53 392q0 -5 4 -5t4 5t-4 5t-4 -5zM62 248q0 -2 2.5 -5t3.5 -3q2 0 5.5 2.5t3.5 3.5v-8q12 0 24.5 4t12.5 13l-1 1.5 t-2 4.5t-2 7.5t-2 12t-1 16.5q-8 0 -34 -26h25q-35 -18 -35 -23zM69 402q0 -5 3 -5q4 0 4 5t-4 5q-3 0 -3 -5zM77 321q4 0 9 1.5t10 4t8.5 6.5t3.5 9h-2q-11 0 -29 -21zM82 440q0 -4 0.5 -10t0.5 -7l20 20h-15v5q-6 -1 -6 -8zM83 214q4 4 11 9.5t11 8.5t4 6q-1 1 -1 2 l-25 -10v-16zM84 251q0 5 4 5t4 -5t-4 -5t-4 5zM88 407l5 -5q36 13 50 21q3 1 6 5t5.5 8.5t5.5 9.5t4 6q0 1 -11 6q-20 -8 -42.5 -25.5t-22.5 -25.5zM93 210l4 -5q7 0 14 4.5t7 10.5q0 9 -5 10zM102 192q0 -7 6 -7q2 0 4.5 0.5l5 1t3.5 0.5q0 -1 -1.5 -5.5t-1.5 -6.5 q0 -10 23.5 -23.5t34.5 -13.5h2q6 0 9 0.5t6.5 3t5.5 8.5q-3 -1 -8 -1q-21 0 -43 19.5t-22 39.5q-4 0 -9.5 -2t-10 -5.5t-4.5 -8.5zM103 371q10 -2 21 11q-18 -3 -21 -11zM119 296q0 -5 5 -5q3 0 3 5t-3 5q-5 0 -5 -5zM127 494q0 -1 2 -1q4 0 4 5q-1 1 -2 1q-4 0 -4 -5z M138 472q27 0 36 16q-1 0 -16.5 -4.5t-19.5 -5.5v-6zM169 472q0 -2 2 -2q1 0 3 2q0 2 -2 2q-3 0 -3 -2zM180 518q0 -5 4 -5t4 5q0 6 -4 6t-4 -6zM184 462q15 0 33 6t18 18q0 7 -10 7v11q-23 -12 -26 -16l10 -4l-25 -16v-6zM189 128q9 0 13 0.5t8.5 4t8.5 11.5q0 1 -8 1 q-14 0 -22 -17zM190 169q0 -5 4 -5t4 5t-4 5t-4 -5zM203 7h1h1h-2zM204 37q1 -2 7 -5.5t8 -3.5q20 4 20 32q-10 0 -17 -5t-18 -18zM205 169q0 -5 4 -5t4 5t-4 5t-4 -5zM214 124q0 -11 5 -15q3 19 20.5 26t36.5 5t34.5 2t15.5 20q0 17 -14 17q-10 -3 -12 -5l11 -4 q-14 -2 -22 -10t-19 -10q-7 -2 -21 -2t-22 -4.5t-13 -19.5zM219 77q0 -8 6 -8q10 4 10 17q0 18 -8 18t-8 -21v-6zM219 528q0 -2 3 -2q2 0 3 2q0 2 -3 2t-3 -2zM224 554h5v10q-5 -3 -5 -10zM243 483q8 0 18 5q0 1 -2.5 3t-4.5 2q-4 0 -7.5 -3t-3.5 -7zM245 468q19 0 30 16 v-16q2 1 7 3t9.5 4t9 5t7.5 6.5t3 8.5q-44 0 -66 -27zM289 466q0 -9 17 -9q8 0 11.5 2t4.5 6.5t1 13.5q-11 0 -34 -13zM290 438q0 5 5 5q4 0 4 -5t-4 -5q-5 0 -5 5zM307 189q0 -4 4 -4t4 4q0 5 -4 5t-4 -5zM312 114q0 5 4 5q3 0 3 -5t-3 -5q-4 0 -4 5zM321 119q0 5 4 5t4 -5 t-4 -5t-4 5zM330 433q0 1 3 1t3 -1q-2 -3 -4 -3t-2 3z" />
<glyph unicode="&#xa3;" horiz-adv-x="541" d="M29 16q0 13 26.5 50.5t29.5 44.5q13 28 25 93t12 93q0 17 -31 21t-31 15v43q0 6 19 11t44.5 9t28.5 5q0 1 0.5 12t0.5 12q0 17 -3.5 47.5t-3.5 46.5q0 75 43.5 120.5t116.5 45.5q47 0 90 -17.5t43 -56.5q0 -34 -27 -44l-7 14l-5 -14q-14 19 -43.5 31.5t-54.5 12.5 q-10 0 -12 -16t-10 -16q-1 0 -5 1.5t-7 1.5q-43 0 -43 -120q0 -39 14 -67q26 -3 80.5 -6t80.5 -6q2 -1 10 -15t8 -17q0 -31 -60 -31q-26 0 -75.5 3t-74.5 3l12 -23v-100h-9q0 -1 2 -13t2 -20q0 -15 -7 -22h8q0 -9 -10 -26.5t-10 -28.5q0 -20 111 -20q21 0 58.5 7.5t56.5 7.5 q8 0 17.5 -29.5t9.5 -46.5q0 -4 -6 -11.5t-13 -7.5q-53 0 -120 2q1 2 1 5q0 7 -5 7q-4 0 -4 -7q0 -3 1 -4q-138 5 -179 5q-19 0 -42 -4t-35 -4q-7 0 -12.5 8t-5.5 15zM54 30l6 -5q26 17 37 24q13 20 35.5 32t37.5 28.5t20 54.5h-38q28 11 36 21t8 39q-17 0 -35.5 -21 t-26.5 -24l-12 -6q0 -2 0.5 -7.5t0.5 -8.5q0 -24 -14 -33q7 -2 7 -11q0 -40 -38 -64q-1 1 -3 1q-7 0 -14 -6t-7 -14zM61 36q0 7 5 7q4 0 4 -7q0 -6 -4 -6q-5 0 -5 6zM72 7q2 -3 4 -3t2 3q0 2 -3 2t-3 -2zM72 351q6 0 18 -3t14 -3q32 6 42 6q-12 1 -24 7t-21 6q-23 0 -29 -13 zM73 327q0 -6 5 -6t5 6t-5 6t-5 -6zM77 371q0 -2 3 -2q5 0 5 7q0 1 -2 1q-6 0 -6 -6zM86 327q0 -6 5 -6q4 0 4 6t-4 6q-5 0 -5 -6zM92 93q0 -6 5 -6t5 6t-5 6t-5 -6zM97 30q1 -5 11 -5q67 0 67 32q-9 0 -23 -4t-24 -4q13 10 24 31h-6zM99 327q0 -6 5 -6q4 0 4 6t-4 6 q-5 0 -5 -6zM123 117q0 7 5 7q4 0 4 -7q0 -6 -4 -6q-5 0 -5 6zM134 198q20 8 31 24h-5q-6 1 -8 1q-12 0 -15 -4t-3 -21zM140 371q0 -4 10 -4q6 0 9 3q1 2 -2 3t-8 1q-9 0 -9 -3zM146 252q26 0 26 10q0 9 -7 9q0 2 2.5 4t3.5 2q6 0 18.5 -3t13.5 -3q0 32 -13 37 q-44 -22 -44 -56zM146 289q1 1 9.5 5.5t16 10t7.5 7.5q0 1 -4.5 3t-11 4t-11.5 2q-6 -27 -6 -32zM146 333q0 -7 39 -7q0 19 -11 19q-2 0 -15 -2.5t-13 -3.5v-6zM147 148q0 6 5 6t5 -6t-5 -6t-5 6zM159 241q0 -9 37 -9v29l1 1l-6 -3q-6 -3 -15.5 -9t-16.5 -9zM166 13 q0 -6 5 -6t5 6t-5 6t-5 -6zM171 509q0 -28 7 -96q1 -13 13 -26t12 -22q0 -1 -0.5 -3.5t-0.5 -3.5q25 -8 68 -8q9 0 35 0.5t45 0.5l-7 7q-24 4 -51 7t-38 3t-24.5 5.5t-16.5 8.5t-7 16.5t-4 26v40.5q0 53 6 78l6 13q7 13 7 15q0 15 -33 15q0 -9 8 -13q-25 -8 -25 -64z M173 370q0 -6 5 -6q4 0 4 6t-4 6q-5 0 -5 -6zM179 530q0 7 4 7q5 0 5 -7q0 -6 -5 -6q-4 0 -4 6zM185 105q0 -6 5 -6q4 0 4 6t-4 6q-5 0 -5 -6zM185 438q0 6 5 6q4 0 4 -6t-4 -6q-5 0 -5 6zM188 30q40 0 40 22q-40 -3 -40 -22zM191 123q0 -6 5 -6q4 0 4 6t-4 6q-5 0 -5 -6z M196 599q0 -3 3 -3t3 3q0 2 -3 2t-3 -2zM202 567q0 4 3 4t3 -4q0 -3 -3 -3t-3 3zM203 6q0 -6 5 -6q4 0 4 6t-4 6q-5 0 -5 -6zM221 635q0 -6 5 -6t5 6t-5 6t-5 -6zM226 12q0 -2 4 -2q2 0 3 2q0 3 -4 3q-3 0 -3 -3zM240 6q0 -6 5 -6t5 6t-5 6t-5 -6zM245 34q0 -9 15 -9 q16 0 19.5 3.5t3.5 17.5q-5 1 -12 1q-26 0 -26 -13zM285 3q0 -3 2 -3q5 0 5 4q0 3 -4 3q-3 0 -3 -4zM293 23h8h11t12 0.5t12.5 2t10 4t8 6.5t2.5 9q-9 0 -22 -1.5t-27.5 -6.5t-14.5 -14zM302 647q0 -6 4 -6q5 0 5 6q0 7 -5 7q-4 0 -4 -7zM303 -4q3 0 7 -1q-1 -2 -4 -2t-3 3z M368 626q0 -11 32 -22h2q10 0 10 9q0 8 -11 15t-20 7q-13 0 -13 -9zM376 357q0 -6 5 -6q4 0 4 6q0 7 -4 7q-5 0 -5 -7zM381 37q5 -13 37 -13v33q-15 0 -37 -8l6 -6zM382 332q0 -6 5 -6q4 0 4 6q0 7 -4 7q-5 0 -5 -7zM395 339q0 -6 5 -6q4 0 4 6t-4 6q-5 0 -5 -6zM401 6 q0 -6 4 -6q5 0 5 6t-5 6q-4 0 -4 -6zM413 6q0 -6 5 -6q4 0 4 6t-4 6q-5 0 -5 -6zM425 6q0 -6 5 -6q4 0 4 6t-4 6q-5 0 -5 -6z" />
<glyph unicode="&#xa4;" horiz-adv-x="587" d="M35 562q0 5 17 18.5t25 13.5q10 0 10 -14q0 -2 -8 -10.5t-8 -11.5v-1l20 -19l1 5q0 2 -3 6.5t-3 7.5q0 6 11 17q4 -2 12.5 -19t12.5 -17h36l5 -5q2 5 22 9q-1 -1 -1 -4q0 -5 3 -5q4 0 4 5q0 4 -3 5q29 5 50 5q20 0 60.5 -8t59.5 -8q11 4 45 33.5t56 29.5q0 -5 6.5 -11.5 t6.5 -12.5q0 -17 -26.5 -40.5t-26.5 -42.5q0 -10 3.5 -22t7.5 -19.5t11.5 -21t9.5 -18.5q10 -21 10 -74v-12.5v-12v-11t-0.5 -11t-1 -9.5t-1.5 -10.5t-2.5 -9t-3.5 -9.5t-5 -9l-6 -10q-7 -3 -8.5 -12t-5 -15.5t-16.5 -6.5q0 -7 6.5 -23.5t6.5 -25.5q6 0 11.5 -8t12 -22 t8.5 -18q-5 -8 -16 -9t-14 -2q-1 0 -6 -5l-4 -4q-11 0 -21 21.5t-10 33.5q-3 3 -8.5 7t-9.5 6.5t-5 2.5l-15 -10l-3 -1l-3 -1q-10 0 -11 6q-1 -4 -18 -7t-25 -3q-11 0 -23 3t-21 3t-15 -1l-5 10q0 -2 -1.5 -3.5t-3.5 -1.5h-2q-9 0 -24.5 8.5t-18.5 8.5q-14 0 -25 -12 t-17.5 -26.5t-17.5 -26.5t-24 -12q-10 0 -18 4l6 6q-27 9 -27 20q0 16 23.5 37t23.5 36q0 11 -14.5 28t-16.5 26q-9 35 -10.5 48.5t-1.5 57.5t8 86q2 8 13.5 29.5t11.5 31.5q0 20 -26 42t-26 27zM63 301q0 -5 3 -5q4 0 4 5t-4 5q-3 0 -3 -5zM77 265q6 -5 6 -12q3 0 13.5 3 t20.5 6l10 3l-15 -10q1 0 5.5 -0.5l4.5 -0.5q21 0 21 7q0 5 -7 9.5t-16 7t-15.5 4t-7.5 1.5h42q0 1 -1 4t-2.5 7t-3.5 6q-46 -3 -55 -26l5 -4zM77 330q22 0 50 10q-2 2 -14.5 6t-15.5 10q6 0 17 -2.5t18 -2.5v20h-35l-1 -3q-3 -6 -5 -7q-14 -10 -14 -31zM82 123 q17 0 29.5 12.5t12.5 30.5q-6 0 -13 -6.5t-12.5 -13t-11 -15zM82 296l30 10q-1 5 -10 5l-16 -3v8q-4 -8 -4 -20zM82 376h25l-5 5q40 0 40 11h-15q-1 0 -5 -0.5t-9 -1t-10.5 -1.5t-10 -2.5t-7.5 -3t-3 -2.5v-5zM83 108q0 -5 3 -5q4 0 4 5t-4 5q-3 0 -3 -5zM86 401h59 q0 6 -22.5 13t-36.5 7v-20zM86 437q36 0 57 7q0 5 -6 8t-16 5.5t-14 4.5q-5 0 -10 -5.5t-7.5 -11t-3.5 -8.5zM88 319h44v12q-35 0 -44 -12zM91 240l36 -46q-1 -5 -1 -11q0 -14 6 -14l15 14q4 0 24 -7t22 -7q5 0 5 9q0 42 -23 42q-1 0 -6 -4t-10 -9.5t-6 -7.5l-0.5 2t-0.5 3 q0 3 5 10.5t7 11.5q0 5 -3.5 9.5t-6.5 7.5l-4 2q-3 0 -13 -5l10 -6q-15 -5 -25 -5t-10 6q0 1 6 5q-12 4 -16 4q-3 0 -11 -4zM98 92q0 -5 4 -5t4 5q0 6 -4 6t-4 -6zM103 426q0 -5 4 -5t4 5q0 6 -4 6t-4 -6zM117 477q0 -11 22 -11q0 6 -5.5 14t-9.5 8q-7 0 -7 -11zM122 427 q0 -8 31 -8v8h-31zM137 500q5 -12 5 -18q11 0 11 9q0 1 -0.5 2.5t-0.5 2.5q0 6 6 6l7 -2.5t8 -2.5t3 2t2 3q-7 12 -15 12q-6 0 -16 -4.5t-10 -9.5zM138 462q0 -5 4 -5t4 5t-4 5t-4 -5zM143 477q0 -5 4 -5h1q0 -5 5 -5h1q0 -5 4 -5t4 5t-4 5h-1q0 5 -4 5h-2q0 5 -4 5t-4 -5z M148 472q0 3 3 5q0 -4 -3 -5zM154 467q0 4 3 5q0 -4 -3 -5zM158 325q0 -51 33.5 -78.5t86.5 -27.5q16 0 41 8.5t41 22.5q-1 2 -1 6q0 9 8.5 27.5t8.5 28.5q0 37 -10 72t-35.5 62t-61.5 27q-24 0 -45 -11.5t-35.5 -31.5t-22.5 -47t-8 -58zM163 462q0 -3 2 -3q1 0 3 3 q0 2 -2 2q-3 0 -3 -2zM169 209q0 6 4 6t4 -6q0 -5 -4 -5t-4 5zM169 482q0 -5 4 -5t4 5t-4 5t-4 -5zM178 477l9 -10l1 2q0 2 -2 4.5t-3 3.5l-2 1zM185 542q2 0 3 1h-1t-2 -1zM187 513q0 -15 6 -20q0 4 2.5 11t7.5 7v2h-16zM197 483q0 -2 6 -6l1 2q0 1 -2 4.5t-4 3.5v-3z M212 506q0 -19 9 -19q8 0 21 5.5t22 5.5q21 0 33.5 -2.5t32.5 -13.5q-2 -2 -2 -3q0 -2 3.5 -4t7 -3l3.5 -1q1 0 23 22q-5 7 -32 14t-54.5 11t-39.5 4q-10 0 -14 -0.5t-8.5 -4t-4.5 -11.5zM214 188q0 -5 5 -5q3 0 3 5q0 6 -3 6q-5 0 -5 -6zM216 164q0 -2 7 -3.5t19.5 -3 t26.5 -1.5v27q0 6 -18 6q-32 0 -32 -24zM278 179q0 -9 5 -10v19q-5 -1 -5 -9zM289 163q0 -4 7 -4q10 0 20.5 2.5t19 6t15.5 7.5t11.5 6.5l4.5 2.5q3 0 7 -4t8.5 -10t8 -11.5t6.5 -10.5l3 -5q0 1 0.5 5.5l0.5 4.5q0 9 -3 13t-3 17t1 16q-23 11 -41 11q-3 0 -9 -1.5t-11.5 -5 t-5.5 -6.5q0 -7 5 -9q7 0 10 6l6 -11q-18 2 -19 2q-6 0 -8 -2.5t-2 -10.5q-10 0 -13.5 2t-3 4.5t-1 4.5t-7.5 2q-1 0 -2 -2.5t-2 -6l-2 -7t-1 -6.5zM342 492q0 5 2 5q4 0 4 -5t-4 -5q-2 0 -2 5zM352 456q6 0 17 3t16 3q1 0 2.5 -1.5t2.5 -3t1 -2.5q0 -5 -7 -13t-8 -10h20 q-17 -9 -17 -23q0 -1 0.5 -4.5l0.5 -3.5q13 4 22 14t9 23q0 11 -10 27t-10 28q0 14 13.5 27.5t13.5 24.5q-11 0 -38.5 -39t-27.5 -50zM365 442l4 5h-4v-5zM369 227q0 -5 11.5 -11.5t17.5 -6.5h2q22 31 31.5 56.5t9.5 61.5q-1 0 -7 -3.5t-15.5 -9.5t-13.5 -8q0 -10 11 -10 l-16 -12q8 0 16.5 5.5t14.5 5.5v-5l-35 -20q-3 -3 -3 -7q0 -7 6.5 -9.5t6.5 -6.5l-1 -3l-36 -15v-2zM381 249q0 -5 4 -5t4 5q0 6 -4 6t-4 -6zM389 361q9 0 11 -5q11 0 21.5 14.5t10.5 25.5q0 5 -6.5 11.5t-6.5 10.5l0.5 1t0.5 2l-29 -29q2 -8 19 -11q-2 -1 -5.5 -3t-7 -4.5 t-6 -6t-2.5 -6.5zM400 320q16 0 26 10h-2.5t-3.5 0.5l-2 0.5q-14 0 -18 -11zM400 336q38 0 38 8q0 22 -10 22q-11 0 -28 -30zM406 128q0 -5 4 -5t4 5t-4 5t-4 -5zM406 497q0 -4 4 -4t4 4q0 5 -4 5t-4 -5zM411 113q0 -5 5 -5q3 0 3 5t-3 5q-5 0 -5 -5zM411 558q0 -5 5 -5 q3 0 3 5q0 6 -3 6q-5 0 -5 -6zM418 105q0 -2 1 -2q4 0 4 2q0 1 -3 3q-2 0 -2 -3zM429 556q12 0 12 14q-5 0 -8.5 -4t-3.5 -10zM437 579q0 -5 4 -5t4 5t-4 5t-4 -5z" />
<glyph unicode="&#xa5;" horiz-adv-x="692" d="M24 666q0 13 11 13q36 0 51.5 -0.5t31 -9.5t23.5 -18.5t27 -37.5l6 -9q3 -5 11 -12.5t12.5 -14.5t4.5 -16h8q12 0 46.5 -65.5t45.5 -65.5q6 0 7 1l37 38q-1 1 -1 6q0 8 35.5 54t70.5 81q5 20 30 47t44 27q12 0 34 -6q-2 -2 -2 -6q0 -6 5 -6q4 0 4 6v4q20 -6 32 -6v-16h9 q0 -8 -40.5 -61t-87 -111.5t-53.5 -68.5q-35 -52 -55 -80v-8q26 0 77 -6t77 -6v-47l-7 -7l7 -6l-13 -6h-155v-31q27 -5 39 -7q17 0 50.5 3.5t51.5 3.5q25 0 34 -9q0 -15 -7.5 -34t-17.5 -19l5 -6q-10 0 -32.5 0.5t-33.5 0.5q-65 0 -82 -14q0 -25 10.5 -47t10.5 -41 q0 -6 -2 -22q7 -3 7 -13q0 -7 -4 -10q1 2 1 4q0 6 -4 6q-5 0 -5 -6q0 -5 5 -6q-4 -1 -8 -1q-1 0 -5.5 0.5t-5.5 0.5l7 7q-17 0 -23 -5q-10 3 -31 6.5t-33 9.5q-3 1 -4 1q-6 -8 -14 -8q0 5 -3 13.5t-3 12.5q1 16 12 80q-10 8 -31.5 13.5t-33.5 5.5q-2 0 -5.5 -4t-3.5 -9 q-9 6 -24 6q-4 0 -18 1.5t-27 3t-17 1.5v12h-10q-6 0 -7.5 3.5t-1.5 16.5q0 8 9 21.5t10 14.5q24 0 71 -2.5t70 -2.5v42q0 2 -3.5 3.5t-10.5 2.5t-15 2t-19.5 2t-21 1.5t-22.5 1.5t-22 2q1 1 1 4q0 7 -4 7q-5 0 -5 -7q0 -2 1 -4q-51 4 -51 12t17.5 31t25.5 23h128l-73 117 l-98 135q-17 13 -37 44t-20 49zM67 643q0 -9 11.5 -28t27.5 -37.5t34.5 -32.5t29.5 -14q4 0 22 5q-4 13 -18 25l-13 -18q1 4 1 13q0 10 -2.5 19t-7.5 16.5t-14 12.5t-20 6q6 6 6 7q0 26 -44 26h-13zM82 253q0 6 5 6q4 0 4 -6t-4 -6q-5 0 -5 6zM124 163q19 0 47 -5t43 -5 q0 6 -9 10.5t-22 6t-26 2.5t-23 1h-10v-10zM124 284q0 -1 9.5 -4t14.5 -3t13.5 3t8.5 9h-46v-5zM132 255h7q-1 -2 -3 -2t-4 2zM136 561q0 2 3 2t3 -2t-2 -2q-3 0 -4 2zM155 518l31 -43h2t5.5 -0.5t7.5 -0.5q28 0 28 10q0 4 -3.5 8t-7 6t-4.5 2t-5 -1.5t-9.5 -4.5t-7.5 -7 q1 5 6.5 19.5t5.5 17.5zM186 284q31 -1 51 -7.5t53 -23.5l31 31v8q-13 0 -29.5 -4t-25.5 -4t-26 3.5t-27 3.5q-3 0 -8 -0.5t-9 -1l-4 -0.5zM198 457q12 -32 22 -32q12 0 18.5 13t6.5 26q-40 0 -47 -7zM217 141q0 -6 5 -6t5 6q0 7 -5 7t-5 -7zM222 161q0 -3 13 -3q8 0 13 3 q0 3 -13 3t-13 -3zM233 406q11 0 22 4t11 13q0 14 -13 21q-20 -16 -20 -38zM235 142l13 -7v7h-13zM241 392q0 -6 5 -14.5t11 -8.5q7 0 15.5 11t11.5 21h-9q-34 0 -34 -9zM257 158q0 -5 7.5 -7.5t13.5 -2.5q5 0 13 1t11 1v-8q13 0 29.5 13.5t16.5 23.5q0 1 -1 3.5l-1 2.5 q-16 -25 -30 -25q-1 0 -4 0.5l-3 0.5q5 2 11.5 14t6.5 16v80q-1 0 -5.5 -3t-8 -5.5t-8 -6t-7 -6.5t-2.5 -6q0 -4 5 -6t11.5 -3.5t8.5 -6.5l-37 -34h18q-10 -3 -14 -9.5t-4.5 -12t-6.5 -10t-20 -4.5zM270 357q30 0 76 13q0 4 -17 9.5t-32 8.5q-6 -3 -16.5 -13t-10.5 -18z M277 208q19 0 32 20h-12q-13 0 -16.5 -3.5t-3.5 -16.5zM279 344q0 -4 2 -11t5 -7q12 0 12 18h-19zM282 35q8 0 20 8v-6q5 4 21 5q-7 -2 -7 -12q6 2 14.5 10t15.5 8v-18q13 0 13 23v4.5v5v4.5t-0.5 4.5t-1.5 3.5t-2 3t-3 1.5t-5 0.5t-10 -3t-10 -3q2 1 5 6t5 10.5t2 8.5 q0 12 -6.5 24.5t-14.5 12.5q-12 0 -16 -7.5t-5 -23.5l24 12q1 -2 1 -3q-2 -5 -11 -14t-9 -13h19q-22 -10 -30.5 -20t-8.5 -32zM290 303l12 -1q32 0 32 6v31q-7 -1 -16.5 -9t-18 -17t-9.5 -10zM308 58q0 1 3 5.5t5 4.5q0 -9 -7 -13q0 1 -0.5 2zM311 197q0 6 5 6q4 0 4 -6 t-4 -6q-5 0 -5 6zM323 42q2 1 4 1q-2 0 -4 -1zM339 284q0 -2 8 -3.5t16 -2.5l8 -1q31 8 37 19q-2 0 -8 0.5t-7 0.5q-54 0 -54 -8v-5zM339 419h34q0 6 -8 11.5t-13 7.5zM346 0h6l-4 2zM366 394q0 -6 5 -6q4 0 4 6q0 7 -4 7q-5 0 -5 -7zM371 166h10h9t7 0.5t8.5 2t8.5 4.5 q-1 1 -8.5 3.5t-9.5 2.5q-5 0 -13.5 -4t-11.5 -9zM372 493q0 -6 5 -6q4 0 4 6t-4 6q-5 0 -5 -6zM376 467q32 0 32 10q0 4 -2 8t-4 6.5t-4 2.5q-5 -1 -13.5 -9.5t-8.5 -17.5zM383 0q2 0 3 2q-1 -1 -3 -2zM389 450q10 -12 19 -12q2 0 5 4.5t5 9.5l2 5q-1 0 -31 -7zM396 277 q1 -6 8 -6q2 0 6.5 0.5t7.5 0.5q7 0 8 -6l-0.5 1.5t-0.5 2.5q0 8 10 8q2 0 6.5 -0.5t6.5 -0.5q9 0 9 8q0 6 -21 6h-3q-9 0 -14 -0.5t-12 -3.5t-11 -10zM414 524q2 0 26.5 7.5t34.5 11.5q-5 12 -27 12q-10 0 -21 -10.5t-13 -20.5zM426 173h25v18q-12 -3 -25 -18zM426 505 q8 -12 22 -12q6 0 11 9.5t5 16.5q-14 0 -38 -14zM463 154h7v7h-7v-7zM463 284q0 -3 3 -3q2 0 4 3q0 2 -4 2q-3 0 -3 -2zM467 579q40 0 51 6q6 4 28 28.5t22 31.5v2l-6 7h-44l-30 -44q1 -1 1 -4q0 -4 -11 -12.5t-11 -14.5zM470 561q12 -6 18 -6t15.5 8t9.5 13l-0.5 1.5 t-0.5 2.5q-10 -2 -24 -8.5t-18 -10.5zM475 185h7v6zM513 672q0 -6 5 -6t5 6q0 7 -5 7t-5 -7zM520 628q0 7 5 7q4 0 4 -7q0 -6 -4 -6q-5 0 -5 6zM532 573q0 -6 5 -6t5 6q0 7 -5 7t-5 -7zM532 634q0 6 5 6t5 -6q0 -5 -5 -5t-5 5zM545 665q0 -6 4 -6q5 0 5 6q0 7 -5 7 q-4 0 -4 -7zM559 678q1 1 3 1q3 0 4 -3q-2 0 -4 1t-3 1z" />
<glyph unicode="&#xa6;" horiz-adv-x="213" d="M47 115q0 3 0.5 7t0.5 5q0 93 18 93q3 0 8 -7h40q4 0 7 -5t3 -7q0 -4 -2.5 -38t-2.5 -53q0 -29 5 -86.5t5 -85.5q0 -14 -17 -14q-20 0 -24 11q-5 -10 -20 -10q-2 0 -2.5 1.5t-2.5 3t-5 1.5q0 3 -2.5 20t-2.5 20v127q-6 4 -6 17zM53 634q0 16 9.5 20.5t30.5 4.5h4 q10 0 14 -0.5t7 -2.5t3 -7q0 -19 -12 -26v-75q12 -16 12 -50q0 -10 -0.5 -32t-0.5 -24q4 -2 9.5 -49.5t5.5 -62.5q0 -14 -19 -19.5t-37 -5.5q-1 0 -5.5 0.5t-5.5 0.5l6 4q-7 0 -10 6.5t-4 16.5t-2 12q0 5 0.5 45t0.5 67q0 60 -3 108.5t-3 68.5zM64 639q0 -5 4 -5t4 5t-4 5 t-4 -5zM72 102h15q0 17 3.5 47.5t3.5 46.5q-14 0 -17.5 -4t-3.5 -19q0 -18 6 -20q0 -1 -2.5 -5t-2.5 -5q-2 -14 -2 -41zM73 11q10 0 21 16q0 15 -10 15q-11 0 -11 -31zM74 -25q0 -24 20 -24v32q-20 0 -20 -8zM74 74q0 -3 2 -12.5t3 -9.5h9v45q-14 0 -14 -23zM74 628 q0 -14 5 -45t5 -45q0 -18 -5 -31q5 -1 6 -5t0.5 -7.5t3 -6.5t12.5 -3q0 14 -2 18q-12 20 -12 89q0 10 0.5 26.5t0.5 22.5q-14 0 -14 -13zM78 443q0 -8 15 -8q6 0 6 1l5 26q-6 0 -15 -5t-10 -11l-1 -1v-2zM79 -9q2 -1 5 -1q11 0 11 13l-1 8zM79 370q0 -18 6.5 -25t24.5 -7 q0 16 -6 32l-10 -4q-1 0 -1 1l3 3q3 4 3 6q-20 0 -20 -6zM79 406q15 0 25 15l-20 5zM82 69q0 3 2 3q2 -2 2 -3q0 -2 -2 -2t-2 2zM82 384q26 0 26 20q-9 0 -17.5 -5.5t-8.5 -14.5zM84 465q7 0 15 12h-15v-12z" />
</font>
</defs>
</svg>
