<?xml version="1.0" standalone="no"?>
<!DOCTYPE svg PUBLIC "-//W3C//DTD SVG 1.1//EN" "http://www.w3.org/Graphics/SVG/1.1/DTD/svg11.dtd" >
<svg xmlns="http://www.w3.org/2000/svg">
<metadata></metadata>
<defs>
<font id="bpmonobold" horiz-adv-x="600" >
<font-face units-per-em="1000" ascent="800" descent="-200" />
<missing-glyph horiz-adv-x="500" />
<glyph horiz-adv-x="500" />
<glyph horiz-adv-x="500" />
<glyph unicode="&#xd;" />
<glyph unicode=" " />
<glyph unicode="!" d="M119 699h152v-442h-148zM99 94q0 21 8 39.5t21.5 32t32 21t39.5 7.5t39.5 -7.5t32 -21t21.5 -32t8 -39.5t-8 -39.5t-21.5 -32t-32 -21.5t-39.5 -8t-39.5 8t-32 21.5t-21.5 32t-8 39.5z" />
<glyph unicode="&#x22;" d="M110 699h162l-15 -280h-132zM328 699h162l-14 -280h-133z" />
<glyph unicode="#" d="M324 149h-54v-149h-126v149h-83v126h83v99h-83v124h83v142h126v-142h54v142h124v-142h90v-124h-90v-99h90v-126h-90v-149h-124v149zM270 275h54v99h-54v-99z" />
<glyph unicode="$" d="M461 406q-8 4 -25 9t-38 9t-43.5 7t-41.5 3q-23 0 -39 -4.5t-16 -15.5q0 -8 16.5 -17t52.5 -22q32 -11 65.5 -24t60.5 -32t44 -46t17 -66q0 -60 -36.5 -95.5t-100.5 -48.5v-123h-135v122q-45 7 -85 22t-71 35l48 118q16 -9 37.5 -18.5t45.5 -17t48 -12.5t44 -5 q25 0 41 5.5t16 17.5q0 14 -30 26t-73 26q-32 10 -60 24.5t-49 33t-33.5 40.5t-12.5 47q0 69 38.5 104.5t95.5 47.5v134h135v-130q34 -4 66.5 -11t59.5 -16z" />
<glyph unicode="%" d="M374 610h-74q7 -22 7 -52q0 -33 -9 -61.5t-26.5 -49.5t-43 -33.5t-57.5 -12.5q-33 0 -58.5 12.5t-43 33.5t-26.5 49.5t-9 61.5q0 32 9 60.5t26.5 50t43 34t58.5 12.5q6 0 12 -0.5t12 -1.5h366l-386 -713h-130zM292 138q0 32 9 60.5t26.5 50t43 34t58.5 12.5 q32 0 57.5 -12.5t43 -34t26.5 -50t9 -60.5q0 -33 -9 -61.5t-26.5 -49.5t-43 -33.5t-57.5 -12.5q-33 0 -58.5 12.5t-43 33.5t-26.5 49.5t-9 61.5zM396 138q0 -23 6 -38t27 -15q22 0 27.5 15t5.5 38q0 22 -5.5 37.5t-27.5 15.5q-21 0 -27 -15.5t-6 -37.5zM171 611 q-21 0 -27 -15.5t-6 -37.5q0 -23 6 -38t27 -15q22 0 27.5 15t5.5 38q0 19 -4.5 34t-24.5 19h-4z" />
<glyph unicode="&#x26;" d="M251 276l272 78l25 -95l-71 -22q1 -9 1 -17v-17q0 -58 -22.5 -98.5t-55 -66t-69 -37t-64.5 -11.5q-51 0 -91 17.5t-67.5 46.5t-42 67t-14.5 79q0 45 20 89.5t65 81.5q-23 34 -40 67.5t-17 65.5q0 47 14.5 81t38.5 55.5t54.5 32t62.5 10.5q31 0 60.5 -10t53 -30t37.5 -49 t14 -66q0 -38 -12 -67.5t-31.5 -53.5t-44.5 -45t-50 -40q-36 -27 -64 -54t-28 -60q0 -23 8 -39t21 -26.5t28 -15.5t30 -5q13 0 26.5 6t24 16.5t17.5 24.5t7 29l-70 -18zM207 501q0 -25 19 -57q22 17 39 39t17 45q0 11 -10.5 17.5t-24.5 6.5q-15 0 -27.5 -12.5t-12.5 -38.5z " />
<glyph unicode="'" d="M219 699h161l-13 -280h-133z" />
<glyph unicode="(" d="M528 670q-85 -75 -125.5 -163.5t-40.5 -179.5q0 -94 41 -180t126 -158l-77 -105q-56 38 -97.5 88t-69 107.5t-41 120.5t-13.5 128q0 66 14 130t42 122t70 108t97 87z" />
<glyph unicode=")" d="M146 778q53 -39 94.5 -88.5t70.5 -106.5t44 -119.5t15 -128.5t-15.5 -129.5t-44 -121.5t-69.5 -108t-92 -90l-79 103q85 78 126.5 165.5t41.5 180.5q0 91 -40.5 177t-121.5 158z" />
<glyph unicode="*" d="M158 628l116 63l27 -82l26 80l118 -60l-66 -64l82 10v-127l-81 10l65 -61l-117 -64l-28 81q-4 -7 -7.5 -18.5t-7 -24t-6.5 -23t-6 -14.5l-116 63l64 61l-82 -10v127l82 -10z" />
<glyph unicode="+" d="M367 207v-207h-133v207h-187v127h187v206h133v-206h185v-127h-185z" />
<glyph unicode="," d="M298 181l-81 -273l-136 9l43 264h174z" />
<glyph unicode="-" d="M66 211v133h468v-133h-468z" />
<glyph unicode="." d="M99 94q0 21 8 39.5t21.5 32t32 21t39.5 7.5q43 0 71.5 -28.5t28.5 -71.5q0 -21 -7.5 -39.5t-21 -32t-32 -21.5t-39.5 -8t-39.5 8t-32 21.5t-21.5 32t-8 39.5z" />
<glyph unicode="/" d="M411 699h154l-375 -739h-156z" />
<glyph unicode="0" d="M41 318q0 68 18.5 127.5t52.5 103.5t81.5 69.5t106.5 25.5q60 0 108 -26.5t81.5 -71.5t51.5 -104t18 -124t-18.5 -124t-52.5 -104t-82 -71.5t-106 -26.5q-59 0 -106.5 25.5t-81.5 69.5t-52.5 103.5t-18.5 127.5zM189 224l144 283q-17 6 -32 6q-30 0 -54 -18t-40.5 -46.5 t-25.5 -64t-9 -71.5q0 -24 4 -47t13 -42zM411 408l-144 -278q10 -5 19.5 -6.5t17.5 -1.5q31 0 54 19t38.5 48.5t23.5 65.5t8 70q0 51 -17 83z" />
<glyph unicode="1" d="M53 128h190v354q-25 -7 -49.5 -13.5t-45.5 -12t-37.5 -10t-25.5 -7.5l-41 125l250 68h82v-504h180v-128h-503v128z" />
<glyph unicode="2" d="M62 75q18 20 50 49.5t68.5 63t74 69.5t68 70.5t50 65.5t19.5 54q0 20 -9 34t-23.5 22.5t-34 12.5t-40.5 4q-42 0 -79.5 -19t-66.5 -61l-82 71q17 33 43 57t58 40.5t67.5 24.5t71.5 8q44 0 85 -12.5t72.5 -37t50.5 -62t19 -86.5q0 -43 -26 -89t-63 -88.5t-76.5 -78.5 t-66.5 -58h250v-129h-480v75z" />
<glyph unicode="3" d="M101 152q37 -15 83 -27t88 -12q25 0 49.5 5.5t43.5 16.5t30.5 28.5t11.5 41.5q0 25 -14.5 39.5t-37.5 22.5t-51 10.5t-56 2.5h-65v108h74q57 0 86.5 22t29.5 48q0 16 -10.5 28.5t-27 20.5t-37 12t-39.5 4q-23 0 -45.5 -4.5t-41 -10t-31 -11.5t-16.5 -9l-35 109 q16 11 38.5 19.5t49 14.5t55 9t55.5 3q43 0 82.5 -8.5t70 -26.5t48.5 -47t18 -70q0 -46 -23.5 -76t-60.5 -60q23 -8 44.5 -23t37.5 -35t25.5 -45.5t9.5 -55.5q0 -48 -20.5 -85.5t-56 -64t-83.5 -40.5t-102 -14q-26 0 -55 3.5t-58.5 9.5t-56.5 15t-49 21z" />
<glyph unicode="4" d="M367 649h115v-381h62v-122h-62v-146h-133v146h-294v75zM223 268h126v177z" />
<glyph unicode="5" d="M138 649h379l-32 -134h-230q-2 -19 -5 -34.5t-6 -43.5q21 5 38.5 6t35.5 1q55 0 97.5 -19t71 -49.5t43 -69.5t14.5 -78q0 -43 -17 -84.5t-51 -74t-85 -52.5t-119 -20q-54 0 -110 16t-107 46l55 118q39 -21 83.5 -33t82.5 -12q34 0 59 8t41.5 21t24.5 29.5t8 34.5 q0 48 -34 74t-88 26q-27 0 -58 -5t-63 -22l-77 70z" />
<glyph unicode="6" d="M484 526q-27 0 -69.5 -8.5t-85.5 -27t-80 -47.5t-53 -70q35 29 74 42.5t77 13.5q43 0 80 -14t64 -40t42 -64.5t15 -86.5q0 -53 -21 -95t-55.5 -72t-78.5 -46t-90 -16q-47 0 -92 15.5t-80.5 47.5t-57 81t-21.5 117q0 67 18.5 123t50 101t73.5 78t88 55t93.5 33t90.5 11z M412 223q0 25 -10 43.5t-26 31.5t-37.5 19.5t-43.5 6.5q-31 0 -60 -12.5t-48 -38.5v-26q0 -26 8.5 -48.5t23 -39t34.5 -26.5t44 -10q22 0 42.5 7.5t36.5 21t26 31.5t10 40z" />
<glyph unicode="7" d="M74 649h469v-99l-245 -550h-145l226 515h-322z" />
<glyph unicode="8" d="M299 643q45 0 83.5 -13t67 -35t45 -51t16.5 -61t-18 -66t-60 -66q55 -38 79.5 -81.5t24.5 -86.5q0 -38 -17 -71.5t-48 -59t-74.5 -40.5t-95.5 -15q-53 0 -97 15t-76 40.5t-49.5 59t-17.5 71.5q0 42 24.5 85t79.5 81q-39 32 -57 66t-18 67q0 32 15.5 61.5t43 51.5t66 35 t83.5 13zM300 302q-46 -15 -68 -44.5t-22 -60.5q0 -20 8 -35t21.5 -25t30 -15t34.5 -5t34.5 5t30 14.5t21.5 24.5t8 35q0 32 -23.5 62t-74.5 44zM223 478q0 -24 20 -48t58 -35q37 13 55 35t18 45q0 14 -7 25t-18 18.5t-25 11t-29 3.5q-28 0 -50 -13.5t-22 -41.5z" />
<glyph unicode="9" d="M100 125q30 0 71 6t82.5 20.5t78.5 38.5t59 59q-29 -20 -64.5 -24.5t-66.5 -4.5q-41 0 -77 13.5t-63 39t-43 61t-16 79.5q0 55 20.5 97.5t54.5 71.5t77 44.5t88 15.5q44 0 87 -15.5t76.5 -47.5t54 -81.5t20.5 -116.5q0 -72 -19.5 -128.5t-52 -99.5t-75.5 -73.5t-90 -49.5 t-94.5 -27.5t-89.5 -8.5zM196 414q0 -24 9 -41.5t24 -29t34 -16.5t39 -5q30 0 58.5 11t44.5 31q0 66 -25.5 106t-79.5 40q-19 0 -37.5 -6.5t-33.5 -18.5t-24 -30t-9 -41z" />
<glyph unicode=":" d="M89 94q0 21 8 39.5t21.5 32t32 21t39.5 7.5q43 0 72 -28.5t29 -71.5q0 -19 -8 -37t-21.5 -32.5t-31.5 -23t-39 -8.5q-51 0 -76.5 28t-25.5 73zM89 368q0 22 8 40.5t21.5 32t32 21t39.5 7.5q43 0 72 -28t29 -73q0 -21 -8 -39.5t-21.5 -32t-32 -21.5t-39.5 -8t-39.5 8 t-32 21.5t-21.5 32t-8 39.5z" />
<glyph unicode=";" d="M93 368q0 22 8 40.5t21.5 32t32 21t39.5 7.5t39.5 -7.5t32 -21t21.5 -32t8 -40.5q0 -21 -8 -39.5t-21.5 -32t-32 -21.5t-39.5 -8t-39.5 8t-32 21.5t-21.5 32t-8 39.5zM306 181l-81 -273l-152 9l43 264h190z" />
<glyph unicode="&#x3c;" d="M66 319l468 265v-165l-270 -145l270 -146v-164l-468 264v91z" />
<glyph unicode="=" d="M66 284v132h468v-132h-468zM66 74v133h468v-133h-468z" />
<glyph unicode="&#x3e;" d="M534 228l-468 -264v164l270 147q-69 35 -137.5 72.5t-132.5 71.5v165l468 -265v-91z" />
<glyph unicode="?" d="M169 317q31 34 56 60.5t42.5 48t27 39t9.5 34.5q0 30 -19.5 43.5t-44.5 13.5q-29 0 -47.5 -20t-36.5 -51l-103 75q16 35 38.5 60.5t49.5 42.5t56 25t59 8q37 0 71.5 -13t61 -37.5t42.5 -61t16 -84.5q0 -28 -11.5 -55.5t-33 -58.5t-53.5 -67t-73 -81zM153 94q0 21 8 39.5 t21.5 32t32 21t39.5 7.5t39.5 -7.5t32 -21t21.5 -32t8 -39.5t-8 -39.5t-21.5 -32t-32 -21.5t-39.5 -8t-39.5 8t-32 21.5t-21.5 32t-8 39.5z" />
<glyph unicode="@" d="M541 295q0 -46 -8.5 -89t-24 -76.5t-37.5 -53.5t-49 -20q-56 0 -65 70q-14 -26 -36 -45.5t-50 -19.5q-29 0 -49 13.5t-33 36t-19 51.5t-6 61q0 57 12 99t30 69.5t39.5 41t40.5 13.5q35 0 76 -23l4 28l57 -3q-5 -85 -8.5 -146.5t-3.5 -96.5q0 -27 1 -43t3 -24.5t4 -11 t4 -2.5q12 0 22 14t17 38t11 55t4 64q0 35 -6 74.5t-22.5 72.5t-46 55t-76.5 22t-84.5 -23t-63.5 -62t-40.5 -91.5t-14.5 -111.5q0 -60 15 -105.5t40 -75.5t57 -45t66 -15q26 0 55 5.5t61 18.5l22 -58q-42 -16 -75.5 -24t-66.5 -8q-48 0 -91.5 18.5t-76 57t-51.5 96 t-19 135.5q0 73 18 137.5t52 112t84 75t113 27.5q68 0 110 -27.5t65.5 -70t31.5 -93.5t8 -97zM271 129q32 0 47 22t21 56t7.5 74.5t6.5 77.5q-30 21 -53 21q-30 0 -50.5 -37.5t-20.5 -118.5q0 -16 3 -33t9 -30.5t13.5 -22.5t16.5 -9z" />
<glyph unicode="A" d="M386 168h-174l-39 -168h-143l170 701h190l180 -701h-146zM243 294h108l-58 265z" />
<glyph unicode="B" d="M552 233q0 -66 -23.5 -111.5t-65 -74t-97.5 -41t-121 -12.5q-48 0 -97 3.5t-100 11.5v675q26 6 53 10t52.5 7t46.5 4t35 1q63 0 114.5 -10.5t88 -33t56.5 -58.5t20 -88q0 -48 -18.5 -76.5t-44.5 -48.5q48 -27 74.5 -68.5t26.5 -89.5zM413 225q0 19 -11 34t-30 25 t-44.5 15t-53.5 5q-43 0 -86 -12v-166q21 -4 40 -4.5t36 -0.5q33 0 60.5 4.5t47 16t30.5 31.5t11 52zM188 411q33 -3 58 -3q44 0 69.5 8t38.5 20.5t16.5 28.5t3.5 32q0 45 -31.5 62t-82.5 17q-35 0 -72 -6v-159z" />
<glyph unicode="C" d="M566 45q-97 -55 -201 -55q-66 0 -125.5 23t-105.5 68.5t-73 112.5t-27 156q0 85 26 152t70 113t101.5 70.5t121.5 24.5q22 0 45.5 -1t49 -6t53 -15t58.5 -28l-47 -122q-42 18 -72.5 24.5t-61.5 6.5q-50 0 -87 -18.5t-61.5 -48.5t-36.5 -69t-12 -80q0 -42 12.5 -82.5 t37.5 -72.5t61 -51.5t84 -19.5q32 0 69.5 10.5t79.5 33.5z" />
<glyph unicode="D" d="M562 350q0 -107 -29 -176t-78 -109t-115 -56t-139 -16q-28 0 -71 5t-92 14v672q89 22 168 22q80 0 145.5 -20t112.5 -63t72.5 -110.5t25.5 -162.5zM179 134q22 -3 44 -3q97 0 148 55t51 164q0 117 -54.5 168.5t-157.5 51.5h-15.5t-15.5 -1v-435z" />
<glyph unicode="E" d="M199 132h340v-132h-478v701h461v-132h-323v-146h269v-136h-269v-155z" />
<glyph unicode="F" d="M200 0h-140v701h480v-136h-340v-178h314v-136h-314v-251z" />
<glyph unicode="G" d="M291 404h271v-333q-51 -45 -106 -63t-109 -18q-61 0 -117 24.5t-98.5 71t-68 113t-25.5 151.5q0 81 24 147t65 113.5t95.5 73t115.5 25.5q36 0 89.5 -14t119.5 -60l-77 -105q-48 29 -80 36.5t-52 7.5q-36 0 -66 -18.5t-51.5 -49.5t-33.5 -71.5t-12 -84.5q0 -48 14.5 -89 t39.5 -72t56.5 -48.5t66.5 -17.5q18 0 37.5 4.5t36.5 14.5v131h-135v131z" />
<glyph unicode="H" d="M194 0h-143v701h143v-281h211v281h143v-701h-143v287h-211v-287z" />
<glyph unicode="I" d="M50 701h498v-126h-175v-449h184v-126h-515v126h191v449h-183v126z" />
<glyph unicode="J" d="M547 256q-2 -96 -37 -148.5t-99.5 -77t-155.5 -29.5t-204 -5v135q86 0 152.5 2.5t111.5 16.5t68.5 43.5t23.5 83.5v298h-329v126h470z" />
<glyph unicode="K" d="M22 701h140v-276l234 276h173l-246 -289l254 -412h-160l-196 314l-59 -74v-240h-140v701z" />
<glyph unicode="L" d="M198 701v-575h346v-126h-488v701h142z" />
<glyph unicode="M" d="M417 344l-64 -317h-104l-67 325v-352h-140v701h176l84 -418l91 418h164v-701h-140v344z" />
<glyph unicode="N" d="M191 421v-421h-140v701h139l217 -431v431h141v-701h-140z" />
<glyph unicode="O" d="M34 350q0 80 18 146t52.5 113.5t84 73.5t111.5 26q64 0 113.5 -27.5t83.5 -76t51.5 -114t17.5 -141.5q0 -80 -18 -146t-52.5 -113t-84 -73t-111.5 -26t-111.5 26t-84 73t-52.5 113t-18 146zM175 350q0 -106 34 -163t91 -57q60 0 92.5 57t32.5 163t-34 162.5t-91 56.5 q-60 0 -92.5 -56.5t-32.5 -162.5z" />
<glyph unicode="P" d="M185 0h-140v685q57 11 107.5 17t89.5 6q65 0 122 -15.5t99 -46t66.5 -76t24.5 -106.5q0 -80 -31.5 -132.5t-81 -84t-110 -44t-118.5 -12.5q-8 0 -14.5 0.5t-13.5 0.5v-192zM185 326q8 -1 14.5 -1h13.5q33 0 69 5.5t65 20.5t48 40.5t19 65.5q0 34 -14 57t-37.5 36.5 t-54.5 19t-64 5.5q-15 0 -29 -1t-30 -3v-245z" />
<glyph unicode="Q" d="M34 350q0 80 18 146t52.5 113.5t84 73.5t111.5 26q64 0 113.5 -27.5t83.5 -76t51.5 -114t17.5 -141.5q0 -69 -13.5 -127.5t-39 -103.5t-62.5 -75.5t-85 -43.5q21 -29 55.5 -44t79.5 -30l-76 -123q-49 15 -83.5 39.5t-57 52t-34.5 55.5t-16 50q-48 13 -85 43.5t-62.5 75.5 t-39 103.5t-13.5 127.5zM178 350q0 -103 33 -159t89 -56q60 0 91 56t31 159t-33.5 158.5t-88.5 55.5q-59 0 -90.5 -55.5t-31.5 -158.5z" />
<glyph unicode="R" d="M280 241q-24 -5 -52.5 -6t-57.5 -1v-234h-143v684q58 12 106.5 18t85.5 6q61 0 114.5 -12t93.5 -39t62.5 -70.5t22.5 -105.5q0 -69 -29 -115.5t-68 -74.5l158 -291h-162zM170 360h15q103 0 145 29.5t42 86.5q0 30 -12 50t-32.5 32t-47.5 17t-56 5q-26 0 -54 -3v-217z" />
<glyph unicode="S" d="M492 537q-33 17 -79.5 29.5t-87.5 12.5q-43 0 -74 -17t-31 -48q0 -22 34 -40t85 -41q39 -18 79 -37t71.5 -43.5t51.5 -57t20 -77.5q0 -58 -21.5 -100t-58.5 -69t-85.5 -40t-102.5 -13q-61 0 -129 17.5t-126 43.5l53 127q45 -22 101.5 -36t104.5 -14q28 0 49.5 7t35.5 18 t21.5 23.5t7.5 23.5q0 25 -31 48.5t-85 45.5q-39 16 -79.5 34.5t-73 43t-53 57t-20.5 77.5q0 54 22 91.5t58.5 61t84 34.5t98.5 11q54 0 108 -13.5t103 -39.5z" />
<glyph unicode="T" d="M42 701h515v-126h-184v-575h-140v575h-191v126z" />
<glyph unicode="U" d="M417 701h139v-398q0 -86 -19 -145t-52.5 -96t-80.5 -53t-102 -16q-56 0 -103.5 17t-82 54t-54 96t-19.5 143v398h140v-389q0 -53 9 -88t24.5 -56t37 -29.5t46.5 -8.5q24 0 45.5 8.5t37.5 29.5t25 56t9 88v389z" />
<glyph unicode="V" d="M425 701h155l-196 -701h-168l-196 701h154l127 -507z" />
<glyph unicode="W" d="M501 0h-152l-43 256l-41 -256h-157l-76 701h145l31 -463q2 11 5 33.5t6 49.5t7 56t7 55t6 45.5t5 27.5h122l37 -269q5 40 8 104t5.5 132t5.5 130t7 99h138z" />
<glyph unicode="X" d="M301 254l-124 -254h-164l203 355l-194 346h163l118 -238l114 238h162l-188 -336q82 -138 127 -231.5t68 -133.5h-161z" />
<glyph unicode="Y" d="M230 223l-205 478h155l121 -337l122 337h152l-205 -475v-226h-139z" />
<glyph unicode="Z" d="M76 701h463v-90l-302 -485h311v-126h-497v90l303 485h-278v126z" />
<glyph unicode="[" d="M309 740h202v-120h-70v-581h70v-119h-202v820z" />
<glyph unicode="\" d="M565 -40h-146l-384 739h145z" />
<glyph unicode="]" d="M291 -80h-202v119h71v581h-71v120h202v-820z" />
<glyph unicode="^" d="M499 630h-142l-58 82l-58 -82h-141l157 197h86z" />
<glyph unicode="_" d="M66 0v123h468v-123h-468z" />
<glyph unicode="`" d="M224 773l213 -119l-43 -108l-232 92z" />
<glyph unicode="a" d="M391 0v42q-29 -26 -68 -37.5t-81 -11.5q-35 0 -65 9t-52 28.5t-35 48.5t-13 70q0 45 20 74t52 46t71.5 23.5t78.5 6.5q25 0 48 -2t44 -6v33q0 26 -23 43.5t-71 17.5q-45 0 -90.5 -9.5t-79.5 -23.5l-17 111q33 17 88 29t115 12q43 0 81.5 -8.5t67 -28t45 -52t16.5 -81.5 v-334h-132zM207 149q0 -27 14 -34.5t37 -7.5q18 0 38.5 4t38.5 10t33 12.5t23 12.5v43q-14 5 -36.5 7.5t-48.5 2.5q-42 0 -70.5 -11t-28.5 -39z" />
<glyph unicode="b" d="M65 716h132v-220q24 7 45 9.5t38 2.5q51 0 97 -16t81.5 -47t56 -78t20.5 -108q0 -64 -25 -113t-65.5 -82.5t-92 -51t-105.5 -17.5q-33 0 -78.5 6t-103.5 34v681zM197 129q14 -5 28.5 -6.5t28.5 -1.5q30 0 57 9t47.5 26.5t33 43t12.5 59.5q0 32 -11.5 55t-31 38t-44 22 t-50.5 7q-37 0 -70 -13v-239z" />
<glyph unicode="c" d="M529 49q-53 -26 -95 -39.5t-89 -13.5q-71 0 -122.5 22t-85.5 58t-50 82.5t-16 94.5t16 94t49.5 83t85.5 59.5t123 22.5q39 0 76.5 -7t90.5 -31l-45 -119q-42 17 -69 21t-50 4q-35 0 -60.5 -11t-43 -29t-26 -40.5t-8.5 -45.5q0 -24 9 -46.5t27.5 -40.5t46 -29t63.5 -11 q25 0 54.5 10.5t67.5 29.5z" />
<glyph unicode="d" d="M402 42q-31 -24 -62.5 -35t-61.5 -11q-53 0 -93 21t-67 56t-40.5 80t-13.5 92q0 49 15.5 97.5t50 86.5t88.5 61.5t131 23.5q13 0 26 -1t27 -3v206h133v-716h-133v42zM402 390q-24 6 -48 6q-43 0 -73 -13t-48.5 -34t-27 -47.5t-8.5 -53.5q0 -26 6.5 -49.5t21 -42 t36.5 -29.5t53 -11q21 0 43.5 7t44.5 24v243z" />
<glyph unicode="e" d="M55 251q0 66 22.5 114.5t58 80t80.5 47t90 15.5q54 0 97.5 -18t74.5 -54.5t48 -91.5t17 -130h-349q7 -25 22 -43t34.5 -29.5t43 -17t48.5 -5.5q39 0 79 12.5t72 30.5l49 -103q-29 -18 -58.5 -30t-57 -19.5t-52 -10.5t-43.5 -3q-62 0 -113 18.5t-87 52t-56 80.5t-20 104z M203 307h205q-5 39 -36 62t-68 23q-19 0 -37 -6t-32 -17.5t-23 -27t-9 -34.5z" />
<glyph unicode="f" d="M514 500l-19 -118h-194v-264h223v-118h-466v118h110v264h-109l18 118h91v35q3 48 21.5 82.5t48 56.5t66 32.5t75.5 10.5q43 0 85.5 -11.5t77.5 -34.5l-50 -102q-18 8 -44 13.5t-52 5.5q-18 0 -35.5 -3t-30.5 -10.5t-21 -19t-8 -28.5v-27h213z" />
<glyph unicode="g" d="M292 -69q13 0 32.5 3t38 13.5t31.5 30t13 51.5q-55 -28 -115 -28q-46 0 -87 16.5t-72 47.5t-49.5 74t-18.5 97q0 73 22 125t60.5 86t89.5 50t109 16q48 0 93 -10.5t96 -30.5v-465q0 -54 -21.5 -93.5t-57 -65t-80.5 -37.5t-92 -12q-54 0 -107.5 19t-101.5 54l61 107 q43 -21 83.5 -34.5t72.5 -13.5zM403 384q-12 2 -24.5 4t-26.5 2q-32 0 -59.5 -9.5t-48.5 -28.5t-33 -48t-12 -68q0 -54 30.5 -85t84.5 -31q25 0 45.5 5.5t43.5 19.5v239z" />
<glyph unicode="h" d="M70 716h133v-287q30 40 70 59.5t82 19.5q34 0 65.5 -12.5t56 -36.5t39 -60t14.5 -83v-316h-133v307q0 38 -21 53.5t-50 15.5q-39 0 -73 -19t-50 -48v-309h-133v716z" />
<glyph unicode="i" d="M50 124h187v257h-187v119h319v-376h181v-124h-500v124zM203 658q0 38 26 64.5t64 26.5t64.5 -26.5t26.5 -64.5t-26.5 -64t-64.5 -26t-64 26t-26 64z" />
<glyph unicode="j" d="M49 -34q81 0 146.5 3t111.5 17.5t71 43t25 79.5v262h-258v129h391v-367q0 -108 -33 -167.5t-95 -88.5t-153 -35t-206 -6v130zM370 658q0 38 26.5 64.5t64.5 26.5t64 -26.5t26 -64.5t-26 -64t-64 -26t-64.5 26t-26.5 64z" />
<glyph unicode="k" d="M183 337l142 163h186l-182 -182l221 -318h-166l-153 230l-48 -56v-174h-133v716h133v-379z" />
<glyph unicode="l" d="M53 123h179v473h-161v120h295v-593h180v-123h-493v123z" />
<glyph unicode="m" d="M65 500h129v-73q3 15 12.5 30t23 27.5t29 20t29.5 7.5q21 0 42.5 -20t28.5 -71q21 51 42.5 70.5t44.5 19.5q35 0 61 -35t26 -112v-364h-129v344q0 16 -6 23.5t-13 7.5q-8 0 -15 -8.5t-7 -22.5v-344h-129v344q0 17 -5.5 24t-13.5 7t-14.5 -8t-6.5 -22v-345h-129v500z" />
<glyph unicode="n" d="M70 500h133v-71q30 40 70 59.5t82 19.5q34 0 65.5 -12.5t56 -36.5t39 -60t14.5 -83v-316h-133v307q0 38 -21 53.5t-50 15.5q-39 0 -73 -19t-50 -48v-309h-133v500z" />
<glyph unicode="o" d="M59 251q0 63 21 110.5t54.5 80t76.5 49t88 16.5q50 0 94 -16t77 -48t52 -80t19 -112q0 -62 -20 -110t-53 -80.5t-75.5 -49.5t-87.5 -17q-50 0 -95 16.5t-78.5 48.5t-53 80.5t-19.5 111.5zM413 251q0 63 -33 96.5t-81 33.5q-21 0 -40.5 -10t-34.5 -28t-24 -41.5t-9 -50.5 q0 -31 9.5 -55.5t25.5 -41t36.5 -25.5t42.5 -9q21 0 40.5 9t34.5 26t24 41.5t9 54.5z" />
<glyph unicode="p" d="M69 500h132v-40q29 23 57 33t57 10q54 0 94.5 -21t67 -55t40 -78t13.5 -90q0 -59 -21.5 -106.5t-57 -81t-82.5 -51.5t-98 -18q-36 0 -70 9v-170h-132v659zM201 122q13 -4 42 -4q32 0 60.5 8t49.5 25t33.5 43.5t12.5 64.5q0 30 -10.5 53.5t-28 40t-40 25t-46.5 8.5 q-34 0 -73 -17v-247z" />
<glyph unicode="q" d="M399 16q-45 -19 -97 -19q-50 0 -92.5 18.5t-74 51.5t-49.5 78.5t-18 98.5q0 51 17.5 99t52 86t87 61t122.5 23q45 0 88 -10.5t97 -30.5v-631h-133v175zM399 382q-11 2 -22 4.5t-25 2.5q-38 0 -66.5 -12t-47.5 -32t-28 -46t-9 -53q0 -23 6.5 -46.5t21.5 -43.5t38.5 -32.5 t57.5 -12.5q39 0 74 20v251z" />
<glyph unicode="r" d="M505 346q-19 11 -42.5 17.5t-48.5 6.5q-29 0 -58 -10.5t-54 -35.5v-203h148v-121h-406v121h126v255h-119v124h251v-55q22 29 56 44.5t73 15.5q67 0 125 -46z" />
<glyph unicode="s" d="M461 346q-8 4 -25 9t-38 9t-43.5 7t-41.5 3q-23 0 -39 -4.5t-16 -15.5q0 -8 16.5 -17t52.5 -22q32 -11 65.5 -24t60.5 -32t44 -46t17 -66q0 -74 -58 -112t-154 -38q-56 0 -115 17t-101 45l48 118q16 -9 37.5 -18.5t45.5 -17t48 -12.5t44 -5q25 0 41 5.5t16 17.5 q0 14 -30 26t-73 26q-32 10 -60 24.5t-49 33t-33.5 40.5t-12.5 47q0 46 18 77t47.5 49.5t68 26t79.5 7.5q48 0 96 -9t86 -22z" />
<glyph unicode="t" d="M554 -4q-107 0 -172.5 11.5t-101.5 41.5t-48.5 81t-12.5 130v122h-173l18 118h155v76l132 33v-109h201l-18 -118h-183v-122q0 -51 7 -78t28.5 -40t61.5 -15t106 -2v-129z" />
<glyph unicode="u" d="M526 0h-134v55q-34 -29 -72 -44t-76 -15q-34 0 -64.5 13.5t-54 41.5t-37.5 71.5t-14 104.5v273h131v-277q0 -32 7 -50.5t18.5 -28.5t26 -13t30.5 -3q36 0 63.5 12t41.5 26v334h134v-500z" />
<glyph unicode="v" d="M382 0h-164l-168 500h149l102 -358l103 358h145z" />
<glyph unicode="w" d="M478 0h-141l-33 231l-31 -231h-146l-71 500h139l19 -296q2 14 4.5 38.5t4.5 54t5 61.5t5 60.5t4.5 50t4.5 31.5h120l27 -300l15 300h140z" />
<glyph unicode="x" d="M378 255l188 -255h-168l-101 157q-12 -18 -25.5 -38.5t-27 -41.5t-26 -41t-23.5 -36h-162l183 257l-176 243h165l93 -144q24 35 49 74t46 70h164z" />
<glyph unicode="y" d="M46 500h146l103 -337l117 337h141l-269 -683l-124 33l69 165z" />
<glyph unicode="z" d="M75 81l251 301h-235v118h420v-82l-249 -299h263v-119h-450v81z" />
<glyph unicode="{" d="M491 -94q-83 1 -122 20q-15 7 -30 19.5t-27 30t-19.5 40t-7.5 50.5q0 43 18.5 74t37.5 54q17 22 17 37q0 17 -21 22q-11 4 -32 8t-57 8v123q23 2 46 4.5t43 10.5q8 3 14 9.5t6 16.5q0 16 -16 35q-20 24 -38 53.5t-18 71.5q0 30 7 52.5t19 39.5t27 28.5t30 19.5 q17 9 47 14.5t76 6.5l20 -125q-42 -1 -66.5 -9t-24.5 -28q0 -17 25 -45q20 -24 36 -51t16 -68q0 -32 -18 -59.5t-56 -37.5q38 -19 56.5 -44.5t18.5 -53.5q0 -41 -16 -68t-36 -50q-26 -32 -26 -49q0 -9 8.5 -16.5t21 -12t27 -7t26.5 -2.5h9z" />
<glyph unicode="|" d="M232 740h135v-820h-135v820z" />
<glyph unicode="}" d="M88 28h9q12 0 26.5 2.5t27 7t21 12t8.5 16.5q0 17 -26 49q-20 23 -36 50t-16 68q0 28 18.5 53.5t56.5 44.5q-38 10 -56 37.5t-18 59.5q0 41 16 68t36 51q25 28 25 45q0 20 -24.5 28t-66.5 9l20 125q46 -1 76 -6.5t47 -14.5q15 -8 30 -19.5t27 -28.5t19 -39.5t7 -52.5 q0 -42 -18 -71.5t-38 -53.5q-16 -19 -16 -35q0 -10 6 -16.5t14 -9.5q20 -9 44.5 -12t44.5 -3v-123q-36 -4 -57 -8t-32 -8q-21 -5 -21 -22q0 -15 17 -37q19 -23 37.5 -54t18.5 -74q0 -28 -7.5 -50.5t-19.5 -40t-27 -30t-30 -19.5q-39 -19 -122 -20z" />
<glyph unicode="~" d="M559 302q-8 -38 -25 -71.5t-41 -59t-53.5 -40.5t-62.5 -15q-27 0 -49 12t-41 26t-35 26t-32 12t-32.5 -16t-35.5 -61l-112 39q6 41 25.5 73.5t45.5 54.5t55.5 33.5t56.5 11.5q25 0 45.5 -13t37.5 -28t32 -28t30 -13q16 0 38 19.5t42 69.5z" />
<glyph unicode="&#xa0;" />
<glyph unicode="&#xa3;" d="M101 387h58v53q0 47 15.5 85t41.5 65t59.5 41.5t70.5 14.5q32 0 70 -11.5t83 -46.5l-74 -105q-14 11 -32.5 19.5t-36.5 8.5q-13 0 -24.5 -5.5t-20.5 -20t-14 -38.5t-5 -60h125v-120h-118q0 -18 -1.5 -38.5t-5.5 -40.5t-10 -38t-15 -30h230v-120h-392v90q38 38 50 85 t12 92h-66v120z" />
<glyph unicode="&#xa4;" d="M380 137q-36 -17 -81 -17t-82 17l-85 -84l-91 91l83 84q-16 33 -16 81q0 25 3.5 45t13.5 38l-85 86l93 94l87 -88q17 9 36.5 12.5t42.5 3.5q41 0 79 -18l91 93l88 -98l-86 -87q17 -39 17 -81q0 -23 -3 -41.5t-11 -36.5l86 -86l-93 -93zM233 309q0 -27 19 -46t47 -19 q26 0 45 19t19 46q0 30 -19 48t-45 18q-28 0 -47 -19t-19 -47z" />
<glyph unicode="&#xa5;" d="M498 178v-106h-131v-72h-133v72h-132v106h129v20h-129v108h86q-19 38 -40 82.5t-42 89.5t-41 87t-36 75h153l119 -289q15 31 30 69t30 77t30 76.5t29 66.5h150l-159 -334h87v-108h-130v-20h130z" />
<glyph unicode="&#xa6;" d="M234 276h131v-356h-131v356zM234 740h131v-367h-131v367z" />
<glyph unicode="&#xa7;" d="M396 549q-15 28 -42 42.5t-49 14.5q-31 0 -31 -24q0 -8 7 -14.5t17 -12.5t20 -10t16 -6q27 -13 58 -29.5t57 -42.5t43 -64t17 -95h-133q0 27 -7 45t-19 30t-27.5 20t-31.5 14q-32 12 -61 25.5t-52 32t-36.5 45t-13.5 65.5t17.5 67t45 47t60.5 28t65 9q55 0 107 -31.5 t87 -94.5zM202 193q6 -17 17.5 -29t26 -20t29.5 -11.5t27 -3.5q13 0 21 5.5t8 18.5q0 8 -6 13t-15.5 9.5t-21 8.5t-21.5 10q-30 16 -61.5 30.5t-57.5 38.5t-42.5 61.5t-16.5 98.5h134q0 -26 7.5 -44t19.5 -30.5t27 -20.5t31 -14q34 -14 64 -28t52 -33t34.5 -44.5t12.5 -61.5 q0 -39 -17.5 -67t-44.5 -47t-60.5 -28t-65.5 -9q-24 0 -51 8t-53 23.5t-49.5 39t-40.5 54.5z" />
<glyph unicode="&#xa8;" d="M110 645q0 35 24 57.5t57 22.5q35 0 57.5 -22.5t22.5 -57.5q0 -33 -22.5 -56.5t-57.5 -23.5q-33 0 -57 23.5t-24 56.5zM328 645q0 35 23 57.5t58 22.5t57.5 -22.5t22.5 -57.5q0 -33 -22.5 -56.5t-57.5 -23.5t-58 23.5t-23 56.5z" />
<glyph unicode="&#xa9;" d="M53 308q0 54 18.5 102.5t51.5 84.5t78.5 57t98.5 21t98.5 -21t78.5 -57t51.5 -84.5t18.5 -102.5q0 -55 -18.5 -104t-51.5 -85.5t-78.5 -58t-98.5 -21.5t-98.5 21.5t-78.5 58t-51.5 85.5t-18.5 104zM400 415l-36 -79q-19 13 -42 13q-17 0 -30 -9t-13 -29q0 -15 10 -28 t30 -13q12 0 22 4.5t28 18.5l38 -72q-21 -21 -47.5 -31t-52.5 -10t-49.5 8.5t-42 24.5t-29.5 39.5t-11 52.5q0 33 11.5 58t31 41.5t44.5 25t52 8.5q45 0 86 -23zM138 308q0 -40 12 -74t33.5 -58.5t52 -38.5t66.5 -14t66 14t51.5 38.5t33.5 58.5t12 74t-12 74t-33.5 58.5 t-51.5 38.5t-66 14t-66.5 -14t-52 -38.5t-33.5 -58.5t-12 -74z" />
<glyph unicode="&#xab;" d="M34 230l133 190h166l-141 -188l138 -192h-163zM265 230l132 190h168l-143 -188l139 -192h-164z" />
<glyph unicode="&#xac;" d="M403 243h-337v122h468v-253h-131v131z" />
<glyph unicode="&#xad;" d="M66 219v122h468v-122h-468z" />
<glyph unicode="&#xae;" d="M97 441q0 42 16 79t43.5 65t64.5 44t79 16t79 -16t64.5 -44t43.5 -65t16 -79t-16 -79t-43.5 -64t-64.5 -43t-79 -16t-79 16t-64.5 43t-43.5 64t-16 79zM189 441q0 -22 9 -42t24 -35t35 -24t43 -9q22 0 42 9t35.5 24t24.5 35t9 42t-9 42.5t-24.5 36t-35.5 24.5t-42 9 q-23 0 -43 -9t-35 -24.5t-24 -36t-9 -42.5zM316 375l-21 31v-31h-53v139q28 15 56 15q31 0 52 -16t21 -38q0 -11 -6.5 -23t-22.5 -23l34 -54h-60zM297 448q16 0 16 14q0 6 -4.5 10.5t-11.5 4.5v-29z" />
<glyph unicode="&#xb0;" d="M187 488q0 -23 16 -38t37 -15q22 0 37.5 15t15.5 38q0 22 -15.5 37.5t-37.5 15.5q-21 0 -37 -15.5t-16 -37.5zM83 488q0 32 12.5 60.5t33.5 50t49.5 34t61.5 12.5q32 0 60.5 -12.5t49.5 -34t33.5 -50t12.5 -60.5q0 -33 -12.5 -61.5t-33.5 -49.5t-49.5 -33.5t-60.5 -12.5 q-33 0 -61.5 12.5t-49.5 33.5t-33.5 49.5t-12.5 61.5z" />
<glyph unicode="&#xb1;" d="M367 282v-135h-133v135h-168v122h168v138h133v-138h167v-122h-167zM66 10v113h468v-113h-468z" />
<glyph unicode="&#xb2;" d="M81 434q71 46 98 86.5t27 64.5q0 34 -31 34q-14 0 -29.5 -8t-28.5 -23l-44 73q30 39 66.5 58.5t70.5 19.5q25 0 48 -7.5t40.5 -23.5t28 -39.5t10.5 -54.5q0 -16 -7.5 -35t-19.5 -39t-28 -40t-32 -36h96v-106h-265v76z" />
<glyph unicode="&#xb3;" d="M100 476q45 -18 80 -18q24 0 35 7t11 16q0 10 -12.5 19t-34.5 9h-49v54q7 -1 13 -1.5t12 -0.5q30 0 45.5 10t15.5 21q0 19 -33 19q-19 0 -38.5 -7t-35.5 -15l-25 82q23 17 54 25t59 8q23 0 45 -5t38.5 -15.5t26.5 -27.5t10 -41q0 -19 -18 -37t-37 -22q9 0 21 -4.5t23 -14 t18.5 -24t7.5 -34.5q0 -27 -11 -48t-29.5 -35.5t-44 -22t-54.5 -7.5q-27 0 -61.5 8.5t-63.5 22.5z" />
<glyph unicode="&#xb6;" d="M229 272q-31 3 -62 12.5t-56.5 30t-41.5 54t-16 84.5q0 43 17.5 76.5t46 56.5t64.5 34.5t72 11.5q23 0 49 -5.5t60 -19.5v-607h-133v272zM414 590l132 -46v-544h-132v590z" />
<glyph unicode="&#xb7;" d="M202 404q0 43 26.5 71t71.5 28q42 0 70 -28t28 -71q0 -42 -28 -70t-70 -28q-45 0 -71.5 28t-26.5 70z" />
<glyph unicode="&#xbb;" d="M434 40h-165l138 190l-138 190h164l133 -188zM199 40h-166l140 190l-140 190h165l133 -188z" />
<glyph unicode="&#xbd;" d="M465 705h74l-375 -705h-76zM28 474h95v177q-25 -8 -47.5 -13t-31.5 -9l-20 63l125 34h41v-252h90v-64h-252v64zM336 37q14 15 41.5 40t55 51.5t48 52t20.5 42.5q0 20 -16.5 28.5t-37.5 8.5q-43 0 -73 -40l-41 35q17 33 51 49t69 16q22 0 42.5 -6t36.5 -18.5t25.5 -31 t9.5 -43.5q0 -21 -13 -44t-31.5 -44.5t-38.5 -39.5t-33 -29h125v-64h-240v37z" />
<glyph unicode="&#xd7;" d="M392 250l103 -102l-94 -93l-101 102l-101 -102l-94 93l102 102l-102 102l94 93l101 -102l101 102l94 -93z" />
<glyph unicode="&#xf7;" d="M66 332h468v-124h-468v124zM198 87q0 21 8 39.5t21.5 32t32 21.5t39.5 8t39 -8t31.5 -21.5t21.5 -32t8 -39.5q0 -19 -8 -37t-21.5 -32.5t-31.5 -23t-39 -8.5q-51 0 -76 28t-25 73zM198 456q0 45 29 73t72 28q42 0 71 -28t29 -73q0 -21 -8 -39.5t-21.5 -32t-31.5 -21.5 t-39 -8t-39.5 8t-32 21.5t-21.5 32t-8 39.5z" />
<glyph unicode="&#x2000;" horiz-adv-x="413" />
<glyph unicode="&#x2001;" horiz-adv-x="827" />
<glyph unicode="&#x2002;" horiz-adv-x="413" />
<glyph unicode="&#x2003;" horiz-adv-x="827" />
<glyph unicode="&#x2004;" horiz-adv-x="275" />
<glyph unicode="&#x2005;" horiz-adv-x="206" />
<glyph unicode="&#x2006;" horiz-adv-x="137" />
<glyph unicode="&#x2007;" horiz-adv-x="137" />
<glyph unicode="&#x2008;" horiz-adv-x="103" />
<glyph unicode="&#x2009;" horiz-adv-x="165" />
<glyph unicode="&#x200a;" horiz-adv-x="45" />
<glyph unicode="&#x2010;" d="M66 211v133h468v-133h-468z" />
<glyph unicode="&#x2011;" d="M66 211v133h468v-133h-468z" />
<glyph unicode="&#x2012;" d="M66 211v133h468v-133h-468z" />
<glyph unicode="&#x2013;" d="M66 209v122h468v-122h-468z" />
<glyph unicode="&#x2014;" d="M66 209v122h468v-122h-468z" />
<glyph unicode="&#x2018;" d="M195 429l82 274l127 -12l-42 -262h-167z" />
<glyph unicode="&#x2019;" d="M403 699l-81 -273l-126 12l42 261h165z" />
<glyph unicode="&#x201a;" d="M308 181l-81 -273l-136 9l43 264h174z" />
<glyph unicode="&#x201c;" d="M296 429l82 274l125 -12l-42 -262h-165zM96 429l82 274l127 -12l-42 -262h-167z" />
<glyph unicode="&#x201d;" d="M304 699l-81 -273l-127 12l42 261h166zM503 699l-82 -273l-126 12l43 261h165z" />
<glyph unicode="&#x201e;" d="M305 181l-81 -273l-136 9l42 264h175zM512 181l-80 -273l-136 9l42 264h174z" />
<glyph unicode="&#x2022;" d="M149 270q0 31 12 58t32.5 47.5t48 32.5t58.5 12t58 -12t47.5 -32.5t32.5 -47.5t12 -58t-12 -58t-32.5 -47.5t-47.5 -32.5t-58 -12t-58.5 12t-48 32.5t-32.5 47.5t-12 58z" />
<glyph unicode="&#x2026;" d="M200 94q0 21 8 39.5t21.5 32t32 21t39.5 7.5q43 0 71.5 -28.5t28.5 -71.5q0 -21 -7.5 -39.5t-21 -32t-32 -21.5t-39.5 -8t-39.5 8t-32 21.5t-21.5 32t-8 39.5zM416 94q0 21 8 39.5t21.5 32t32 21t39.5 7.5t39.5 -7.5t32 -21t21.5 -32t8 -39.5t-8 -39.5t-21.5 -32 t-32 -21.5t-39.5 -8t-39.5 8t-32 21.5t-21.5 32t-8 39.5zM-17 94q0 43 29 71.5t71 28.5q43 0 71.5 -28.5t28.5 -71.5q0 -21 -7.5 -39.5t-21 -32t-32 -21.5t-39.5 -8t-39.5 8t-32 21.5t-21 32t-7.5 39.5z" />
<glyph unicode="&#x202f;" horiz-adv-x="165" />
<glyph unicode="&#x2039;" d="M154 238l124 230h167l-132 -229l130 -239h-165z" />
<glyph unicode="&#x203a;" d="M314 0h-169l151 236l-157 224h174l147 -219z" />
<glyph unicode="&#x205f;" horiz-adv-x="206" />
<glyph unicode="&#x20ac;" d="M378 310l-59 -99h-83q20 -46 50.5 -65.5t65.5 -19.5q33 0 68.5 14.5t70.5 39.5l64 -109q-34 -23 -62.5 -38.5t-53.5 -24.5t-46.5 -12.5t-41.5 -3.5q-48 0 -90.5 14t-77 41.5t-59.5 68.5t-37 95h-43v99h42v40h-42v95h43q12 53 36.5 94.5t59 70t77 43t90.5 14.5 q38 0 84 -14t101 -55l-67 -107q-40 25 -67.5 34.5t-50.5 9.5q-43 0 -71.5 -24t-44.5 -66h224l-62 -95h-172v-40h154z" />
<glyph unicode="&#x2122;" d="M38 659h220v-107h-41v-241h-128v241h-51v107zM453 488l-16 -130h-51l-17 130l-10 -177h-102l21 348h113l22 -169q1 8 4.5 33t7 53t7 52t4.5 31h106l20 -348h-101z" />
<glyph unicode="&#xe000;" horiz-adv-x="500" d="M0 500h500v-500h-500v500z" />
</font>
</defs>
</svg>
