<?xml version="1.0" standalone="no"?>
<!DOCTYPE svg PUBLIC "-//W3C//DTD SVG 1.1//EN" "http://www.w3.org/Graphics/SVG/1.1/DTD/svg11.dtd" >
<svg xmlns="http://www.w3.org/2000/svg">
<metadata></metadata>
<defs>
<font id="panefresco_600wtregular" horiz-adv-x="530" >
<font-face units-per-em="1000" ascent="750" descent="-250" />
<missing-glyph horiz-adv-x="235" />
<glyph horiz-adv-x="1000" />
<glyph horiz-adv-x="1000" />
<glyph unicode="&#xd;" horiz-adv-x="235" />
<glyph unicode=" "  horiz-adv-x="235" />
<glyph unicode="&#x09;" horiz-adv-x="235" />
<glyph unicode="&#xa0;" horiz-adv-x="235" />
<glyph unicode="!" d="M219 132h102l1 -132h-102zM219 700h102l-3 -459h-96z" />
<glyph unicode="&#x22;" horiz-adv-x="325" d="M197 464l-1 230h91l-3 -230h-87zM40 464l-1 230h91l-3 -230h-87z" />
<glyph unicode="#" d="M416 175l1 -175h-84l-1 175h-138l1 -175h-84l-1 175h-105v80h105v154h-105v80h105v175h84v-175h138v175h84v-175h106v-80h-106v-154h106v-80h-106zM332 409h-138v-154h138v154z" />
<glyph unicode="$" d="M470 569l-56 6q-25 2 -54 4.5t-57 4.5q0 -52 -0.5 -103t-0.5 -103q34 -15 68.5 -32t62 -40t44.5 -54t17 -74q0 -34 -9 -66.5t-30.5 -58t-58.5 -42t-94 -19.5q0 -28 0.5 -56t0.5 -56l-46 7v104q-27 1 -58 3.5t-58 6t-48 6.5t-28 5l5 81q7 -1 28 -3.5t48 -5.5t56.5 -5 t54.5 -3v226q-35 13 -71 30t-65 40t-47.5 54t-18.5 71q0 35 10.5 65.5t34 53.5t62 37t95.5 17v120h46v-120q25 -1 51.5 -4t50.5 -6.5t42.5 -6.5t27.5 -4zM151 497q0 -35 30.5 -57.5t75.5 -41.5v187q-50 -3 -78 -26t-28 -62zM396 177q0 35 -27 59.5t-67 43.5v-202q38 5 66 29 t28 70z" />
<glyph unicode="%" d="M408 285q60 0 88.5 -36t28.5 -105t-28.5 -106t-88.5 -37q-61 0 -89.5 37t-28.5 106t28.5 105t89.5 36zM399 697l54 -31l-312 -659l-53 31zM363 144q0 -41 9 -61.5t36 -20.5t35.5 20t8.5 62t-8.5 61t-35.5 19t-36 -19t-9 -61zM129 701q60 0 88.5 -36t28.5 -104 q0 -69 -28.5 -106t-88.5 -37q-61 0 -89.5 37t-28.5 106q0 68 28.5 104t89.5 36zM84 561q0 -42 9 -62t36 -20q26 0 35 20t9 62t-9 61t-35 19q-27 0 -36 -19t-9 -61z" />
<glyph unicode="&#x26;" horiz-adv-x="700" d="M322 706q93 0 138.5 -42.5t45.5 -120.5q0 -35 -8.5 -62.5t-26 -50t-45 -43t-66.5 -41.5l122 -122q3 11 7 27t8 33.5t7 35.5t5 32l92 -2q-3 -24 -8.5 -49.5t-11.5 -50.5t-12.5 -47t-13.5 -39l123 -117l-57 -65l-114 106q-48 -54 -100 -79.5t-130 -25.5q-118 0 -177 57 t-59 162q0 81 40.5 127.5t108.5 75.5q-16 20 -26 36.5t-15.5 33t-7.5 34.5t-2 41q0 72 48 114t135 42zM280 71q51 0 86.5 17t69.5 59l-187 192q-54 -20 -82.5 -52.5t-28.5 -83.5q0 -63 36 -97.5t106 -34.5zM234 538q0 -32 9.5 -57.5t34.5 -51.5l23 -23q28 14 49 27t34 28 t19.5 32.5t6.5 40.5q0 42 -21 63t-67 21q-42 0 -65 -19t-23 -61z" />
<glyph unicode="'" horiz-adv-x="100" d="M0 693h92l-5 -234h-86z" />
<glyph unicode="(" horiz-adv-x="260" d="M223 750q-27 -76 -48 -154q-18 -67 -32.5 -145.5t-14.5 -149.5q0 -70 14.5 -145t32.5 -138q21 -73 48 -143h-102q-28 66 -49 138q-18 61 -33 137t-15 151q0 37 4 76.5t11 78t15.5 75t17.5 69.5q21 77 49 150h102z" />
<glyph unicode=")" horiz-adv-x="260" d="M126 750q27 -70 48 -145q18 -64 33.5 -141.5t15.5 -152.5t-15.5 -152.5t-33.5 -140.5q-21 -74 -48 -143h-101q26 72 47 148q17 65 32 141.5t15 146.5q0 71 -15 148t-33 142q-21 76 -47 149h102z" />
<glyph unicode="*" d="M316 507l40 -124l-57 -17l-41 125l-106 -79l-36 46l107 79l-104 76l35 48l104 -74l41 122l58 -19l-40 -125h128v-58h-129z" />
<glyph unicode="+" horiz-adv-x="482" d="M-10 318h205v206h88v-206h208v-86h-208v-208h-88v208h-205v86z" />
<glyph unicode="," horiz-adv-x="170" d="M62 117h103l-57 -240h-93z" />
<glyph unicode="-" horiz-adv-x="440" d="M65 327h308v-92h-308v92z" />
<glyph unicode="." horiz-adv-x="248" d="M65 132h103l1 -132h-103z" />
<glyph unicode="/" d="M353 713l94 -32l-281 -696l-94 32z" />
<glyph unicode="0" d="M263 671q59 0 105 -17.5t77.5 -58t48 -107.5t16.5 -166q0 -95 -16.5 -158.5t-48.5 -102.5t-78 -55.5t-104 -16.5t-104 16.5t-77.5 55t-48 102.5t-16.5 159q0 99 16.5 166t48 107.5t77 58t104.5 17.5zM264 578q-37 0 -64 -12t-44.5 -41t-26 -78.5t-8.5 -125.5 q0 -72 9 -118t26.5 -73t44.5 -37.5t63 -10.5t62.5 10.5t44.5 37.5t26.5 73.5t8.5 118.5q0 75 -8 124.5t-25.5 78.5t-44.5 41t-64 12z" />
<glyph unicode="1" d="M263 660h91l1 -660h-97l-1 548l-160 -106l-45 77z" />
<glyph unicode="2" d="M55 0l-1 89l173 177q31 31 56 58t43 52t27.5 50t9.5 52q0 54 -32.5 75.5t-99.5 21.5q-27 0 -56.5 -3t-53.5 -7q-28 -4 -55 -9l-7 89q29 7 62 13q28 5 62 9t69 4q108 0 159.5 -43.5t51.5 -137.5q0 -38 -8 -68.5t-24.5 -59.5t-42.5 -58.5t-61 -64.5l-143 -146h294l1 -93 h-424z" />
<glyph unicode="3" d="M57 647q31 7 64 12q29 5 63.5 8.5t67.5 3.5q61 0 102.5 -10.5t67 -32.5t37 -54.5t11.5 -77.5q0 -35 -10 -59.5t-24.5 -41.5t-30 -27.5t-26.5 -17.5q24 -10 43.5 -21.5t33.5 -29.5t21.5 -43.5t7.5 -63.5q0 -102 -51.5 -152.5t-166.5 -50.5q-38 0 -77 3.5t-71 8.5 q-37 5 -72 12l11 88q32 -5 65 -9q29 -4 64 -6.5t68 -2.5q130 1 130 106q0 29 -9.5 48.5t-26 31.5t-39 17t-48.5 6h-133v89h133q18 0 37 8t35 21.5t26 32t10 40.5q0 52 -30.5 73t-92.5 21q-33 0 -65 -2.5t-58 -5.5q-30 -4 -57 -8l-10 86v0z" />
<glyph unicode="4" d="M334 114h-309v80l181 466h107l-177 -453h198v207h97v-207h76v-93h-76v-120h-97v120z" />
<glyph unicode="5" d="M466 661v-94h-303l-17 -181q21 8 43 15q19 6 42 11t44 5q103 0 159 -46t56 -154q0 -112 -58.5 -169.5t-164.5 -57.5q-38 0 -78 4.5t-72 9.5q-38 6 -74 15l11 88q35 -7 72 -12q32 -5 68.5 -8.5t69.5 -3.5q57 0 91.5 33.5t34.5 95.5q0 63 -34.5 88.5t-89.5 25.5 q-27 0 -51.5 -5t-43.5 -11q-22 -7 -40 -15l-77 16l21 350h391z" />
<glyph unicode="6" d="M470 565q-28 3 -58 6q-26 2 -57 4.5t-63 2.5q-81 0 -122 -49.5t-41 -146.5l14.5 5t37 11.5t49.5 12t51 5.5q111 0 167.5 -50t56.5 -157q0 -109 -61.5 -164.5t-173.5 -55.5q-126 0 -183.5 89t-57.5 253q0 94 18.5 158.5t52.5 105t83 58.5t109 18q32 0 65 -3t60 -6 q32 -4 62 -8zM274 327q-26 -2 -52 -6.5t-47 -9.5q-25 -6 -47 -14q0 -45 8 -84.5t24.5 -69t43.5 -46t66 -16.5q66 0 100 31.5t34 96.5q0 62 -34 90t-96 28z" />
<glyph unicode="7" d="M52 661h414v-121l-250 -554l-91 27l241 531v23h-314v94z" />
<glyph unicode="8" d="M267 671q53 0 97.5 -11t76.5 -32.5t49.5 -54.5t17.5 -76q0 -31 -5.5 -53.5t-17.5 -40t-30.5 -32t-44.5 -28.5q24 -14 44 -28.5t34.5 -33t22 -43.5t7.5 -59q0 -54 -20 -90t-54 -58.5t-79.5 -32t-97.5 -9.5q-51 0 -96 8.5t-78.5 29.5t-53.5 55.5t-20 85.5q0 37 7.5 63.5 t21 46.5t32.5 35t43 30q-24 15 -42 30t-29 33t-16.5 40.5t-5.5 51.5q0 85 64.5 129t172.5 44zM267 82q66 0 106.5 25t40.5 84q0 23 -7.5 40t-20.5 29t-31 20.5t-39 15.5h-100q-45 -14 -68.5 -38.5t-23.5 -69.5q0 -56 39.5 -81t103.5 -25zM268 578q-63 0 -98.5 -20.5 t-35.5 -73.5q0 -39 20.5 -62t61.5 -40h100q42 17 64.5 40t22.5 62q0 52 -35 73t-100 21z" />
<glyph unicode="9" d="M60 94q27 -4 57 -7q26 -2 57.5 -4t63.5 -2q83 0 123.5 50t41.5 145l-15.5 -4.5t-38.5 -10.5t-50.5 -11t-51.5 -5q-106 0 -163 50t-57 156q0 52 16.5 93t47.5 69.5t73.5 43t95.5 14.5q127 0 185 -88t58 -253q0 -97 -18 -162.5t-52.5 -105t-83.5 -56.5t-111 -17 q-32 0 -65 2.5t-60 6.5q-32 4 -62 9zM255 334q24 0 50 4.5t48 10.5q26 6 51 15q-1 46 -9.5 86t-25.5 68.5t-44 45t-65 16.5q-61 0 -97 -34t-36 -95q0 -62 32.5 -89.5t95.5 -27.5z" />
<glyph unicode=":" horiz-adv-x="194" d="M51 443h102v-132h-102v132zM51 132h102l1 -132h-102z" />
<glyph unicode=";" horiz-adv-x="213" d="M70 129h103l-69 -246h-87zM63 443h102v-132h-102v132z" />
<glyph unicode="&#x3c;" d="M154 311l255 -155v-100q-17 9 -44 24.5t-58.5 34t-66 39.5t-67 40.5t-61.5 36.5t-50 29v98l347 201v-100z" />
<glyph unicode="=" d="M28 424h463v-87h-463v87zM28 226h463v-87h-463v87z" />
<glyph unicode="&#x3e;" d="M62 459v100l347 -201v-98q-21 -12 -50 -29t-61.5 -36.5t-67 -40.5t-66 -39.5t-58.5 -34t-44 -24.5v100l255 155z" />
<glyph unicode="?" horiz-adv-x="386" d="M390 530q0 -44 -14 -76t-34.5 -57t-44.5 -44.5t-44.5 -37.5t-34.5 -35.5t-14 -39.5v-38h-100v41q0 33 13.5 57.5t34 45t44 38.5t44 38t34 43t13.5 54q0 51 -24.5 73t-91.5 22q-19 0 -45 -3.5t-50 -7.5q-28 -5 -58 -11l-12 92q32 8 64 14q26 5 55.5 9.5t49.5 4.5 q109 0 162 -40.5t53 -141.5zM103 132h102l1 -132h-102z" />
<glyph unicode="@" horiz-adv-x="985" d="M936 288q0 -93 -12.5 -151t-35.5 -90.5t-57 -44.5t-76 -12q-44 0 -72.5 10t-48.5 41q-14 -7 -33.5 -16t-42 -16.5t-46 -12.5t-45.5 -5q-37 0 -69.5 10t-57 38t-39 76.5t-14.5 126.5q0 62 9 111.5t31.5 84t61 53t97.5 18.5q15 0 33.5 -3.5t35.5 -8.5q19 -5 40 -12v15h94 v-200q0 -77 3 -121t10.5 -66t20 -27.5t32.5 -5.5q21 0 36.5 6t26.5 27.5t16.5 63t5.5 111.5v18q0 88 -19 150t-59.5 101.5t-104.5 58t-154 18.5q-181 0 -270.5 -89.5t-89.5 -283.5q0 -104 20 -176t63.5 -116t112 -63.5t164.5 -19.5q15 0 39 1.5t47 3.5q27 2 57 5l4 -91 q-29 -3 -56 -5q-23 -2 -48 -3.5t-43 -1.5q-111 0 -196 22t-143 75.5t-87.5 143.5t-29.5 225q0 122 31.5 210t90 144.5t143 83t191.5 26.5q224 0 328.5 -106t104.5 -314v-17zM474 83q34 0 69.5 11t59.5 22q-5 27 -6.5 63.5t-1.5 84.5v139l-32 8q-14 3 -30 6t-29 3 q-38 0 -61.5 -10t-36.5 -31.5t-18 -55.5t-5 -82q0 -50 7.5 -81t20 -48t29 -23t34.5 -6z" />
<glyph unicode="A" horiz-adv-x="605" d="M177 579q13 50 46.5 82t94.5 32h80l175 -693h-93q-13 39 -24 77.5t-23 78.5h-259l-41 -156h-103zM196 247h218l-90 360q-23 0 -35 -18.5t-19 -45.5z" />
<glyph unicode="B" horiz-adv-x="614" d="M337 694q97 0 152.5 -40.5t55.5 -132.5q0 -35 -5.5 -61t-16 -45.5t-26 -33.5t-36.5 -25q23 -9 42 -21.5t32.5 -31t21 -45t7.5 -63.5q0 -53 -15 -90.5t-43.5 -60.5t-68.5 -33.5t-89 -10.5h-265l-1 694h255zM178 306v-216h165q57 0 89 24.5t32 87.5q0 34 -12 54.5t-30 31.5 t-40 14.5t-42 3.5h-162zM178 604v-210h160q57 0 82.5 28.5t25.5 83.5q0 53 -28 75.5t-85 22.5h-155z" />
<glyph unicode="C" horiz-adv-x="535" d="M495 13q-34 -7 -67 -12q-29 -5 -63 -8.5t-63 -3.5q-78 0 -128 23t-78.5 68t-39 112t-10.5 154q0 91 11.5 158.5t41 112t79 66.5t124.5 22q33 0 67.5 -4t62.5 -9q33 -5 63 -12l-3 -87q-33 4 -65 8q-27 3 -58 6t-55 3q-52 0 -84.5 -15t-51 -46.5t-25 -82t-6.5 -120.5 q0 -69 6 -118.5t24.5 -81.5t51.5 -47t87 -15q22 0 52 2.5t58 5.5q33 4 66 9z" />
<glyph unicode="D" horiz-adv-x="637" d="M83 0l-1 694h240q80 0 131.5 -23t81.5 -66.5t42 -105.5t12 -140q0 -79 -11 -145t-40.5 -113.5t-81.5 -74t-133 -26.5h-240zM489 359q0 54 -6.5 98.5t-24.5 77t-50.5 50t-85.5 17.5h-144v-510h144q53 0 85.5 21.5t50.5 58t24.5 85t6.5 102.5z" />
<glyph unicode="E" horiz-adv-x="561" d="M505 0h-220q-47 0 -87 11t-68.5 34.5t-44 60.5t-14.5 89q1 35 9.5 60.5t22 44t32.5 31t42 21.5q-18 12 -33 27t-25.5 34.5t-16.5 45.5t-5 59q1 45 18.5 78t47 54.5t69 32.5t85.5 11h187l-1 -90h-189q-52 0 -83.5 -26t-33.5 -75q-1 -52 26.5 -81.5t80.5 -29.5h138l1 -89 h-142q-18 0 -39.5 -4.5t-41 -16.5t-33 -32.5t-13.5 -52.5q-1 -30 7.5 -50.5t24 -32.5t37 -17.5t47.5 -5.5h213z" />
<glyph unicode="F" horiz-adv-x="548" d="M82 694h427v-93h-331v-246h271v-92h-271l1 -263h-96z" />
<glyph unicode="G" horiz-adv-x="604" d="M349 365h191l1 -206q0 -30 -5 -57.5t-16.5 -49t-31 -36t-47.5 -18.5q-30 -5 -63 -7t-59 -2q-77 0 -128.5 25t-82.5 72.5t-43.5 114.5t-12.5 151q0 87 13 153.5t44 110.5t81 66.5t125 22.5q37 0 77 -4t73 -9q39 -5 76 -12l-4 -86q-37 5 -73 9q-32 3 -67.5 6t-67.5 3 q-53 0 -87 -16t-53.5 -49t-27 -83.5t-7.5 -119.5q0 -68 7 -117.5t26 -81.5t53 -48t87 -16q17 0 36 1.5t36 3.5q9 1 17 5t14 14t10 27t4 43v104h-95v86z" />
<glyph unicode="H" horiz-adv-x="680" d="M498 305h-319l1 -305h-97l-1 694h97v-296h319v296h98l1 -694h-98z" />
<glyph unicode="I" horiz-adv-x="257" d="M79 694h97l1 -694h-97z" />
<glyph unicode="J" horiz-adv-x="310" d="M228 694v-150.5t0.5 -140t0.5 -141v-151.5q0 -60 -11.5 -95.5t-35.5 -55t-61.5 -25.5t-89.5 -6v90q28 0 47 3t31 13.5t17 30t5 53.5v575h97v0z" />
<glyph unicode="K" horiz-adv-x="595" d="M530 693q-1 -60 -7 -115t-22.5 -102t-46.5 -84.5t-79 -61.5l182 -330h-110l-162 301q-24 -5 -50.5 -7t-52.5 -2l2 -292h-97v693h97l-1 -310q75 3 124 27.5t77.5 66t38 96.5t5.5 120h102z" />
<glyph unicode="L" horiz-adv-x="504" d="M83 0l-1 694h97v-601h286l1 -93h-383z" />
<glyph unicode="M" horiz-adv-x="849" d="M87 576q0 25 5 47t15.5 38t27 24.5t41.5 8.5h72l173 -561l139 448q14 50 41 81t77 32h82l1 -694h-95l-1 585q-7 0 -13 -8t-9 -19l-137 -438q-15 -48 -33.5 -70t-43.5 -24h-56l-175 561q-8 0 -10 -9.5t-2 -24.5v-553h-99v576z" />
<glyph unicode="N" horiz-adv-x="695" d="M86 694h79q42 0 73.5 -20t52.5 -74l190 -473q5 -13 12.5 -20.5t14.5 -5.5v593h98l1 -694h-76q-89 2 -123 90l-195 475q-10 28 -28 28l1 -593h-99z" />
<glyph unicode="O" horiz-adv-x="649" d="M323 83q54 0 88.5 15.5t54 47.5t26.5 81t7 116q0 64 -7.5 114t-27 84.5t-53.5 52t-88 17.5t-88 -17.5t-53.5 -51.5t-27 -84t-7.5 -115t7 -114t26.5 -81.5t54 -48.5t88.5 -16zM323 -11q-80 0 -133.5 22.5t-85 67.5t-44.5 111t-13 153q0 86 13 153.5t44.5 114t85 70.5 t133.5 24t133.5 -24t85.5 -70.5t45 -113.5t13 -154q0 -89 -13 -155t-45 -110.5t-85 -66.5t-134 -22z" />
<glyph unicode="P" horiz-adv-x="601" d="M179 221l1 -221h-97l-1 694h252q116 0 172 -56.5t56 -172.5t-56 -180t-172 -64h-155zM334 314q67 0 98 40.5t31 110.5t-31 103t-98 33h-155v-287h155z" />
<glyph unicode="Q" horiz-adv-x="649" d="M599 -226q-30 6 -59.5 27t-55.5 51.5t-48.5 68t-38.5 76.5q-16 -3 -35 -5.5t-39 -2.5q-78 0 -130.5 24t-84 69.5t-44.5 112t-13 152.5q0 85 13.5 151.5t45 112.5t83.5 70t130 24t130 -25.5t83.5 -73.5t45 -116t13.5 -153q0 -116 -25 -194.5t-88 -116.5q26 -63 60 -110 t87 -65zM323 80q52 0 85 16.5t52 49.5t26.5 82.5t7.5 116.5q0 65 -7.5 115.5t-27 84.5t-52.5 51.5t-84 17.5t-84 -18t-52 -53t-26.5 -86t-7.5 -117t7.5 -114.5t27 -81t52 -48.5t83.5 -16z" />
<glyph unicode="R" horiz-adv-x="620" d="M354 250h-175l1 -250h-97l-1 694h259q115 0 171 -51t56 -166q0 -80 -29 -128.5t-89 -72.5l123 -276h-107zM468 475q0 127 -127 127h-162v-260h163q70 0 98 36.5t28 96.5z" />
<glyph unicode="S" horiz-adv-x="532" d="M470 595l-72 8q-31 3 -66.5 6t-64.5 3q-57 0 -91.5 -23t-34.5 -67q0 -33 26 -55.5t65 -41t85 -37t85 -44.5t65 -63.5t26 -93.5q0 -38 -10 -73.5t-34.5 -63.5t-67.5 -44.5t-109 -16.5q-28 0 -62.5 2.5t-66.5 6.5t-56.5 7.5t-33.5 5.5l9 90q8 -1 32.5 -4t55.5 -6t64 -5.5 t57 -2.5t46 5.5t39 18t27.5 32t10.5 47.5q0 36 -26 61t-65 45t-84.5 39t-84.5 44t-65 59.5t-26 86.5q0 39 12.5 72.5t40 58.5t72 39.5t109.5 14.5q27 0 58 -3t59.5 -7t50.5 -8t32 -5z" />
<glyph unicode="T" horiz-adv-x="488" d="M-6 694h499v-93h-200l1 -601h-98l-1 601h-201v93z" />
<glyph unicode="U" horiz-adv-x="640" d="M168 216q0 -74 40.5 -102t108.5 -28q35 0 63 6.5t48 21.5t30.5 40t10.5 62v478h98v-478q0 -61 -16.5 -103.5t-48 -69.5t-78 -39.5t-107.5 -12.5q-59 0 -105 12.5t-77.5 39.5t-47.5 69.5t-16 103.5v478h97v-478v0z" />
<glyph unicode="V" horiz-adv-x="599" d="M567 694l-142 -581q-29 -112 -145 -113h-77l-174 694h98l145 -605q45 5 61 64l129 541h105z" />
<glyph unicode="W" horiz-adv-x="913" d="M134 694l117 -605q24 0 31 37l96 465q9 42 25 68t48 25h58l123 -595q25 3 31 35l107 570h105l-123 -612q-9 -47 -39 -64.5t-75 -17.5h-71l-111 554l-92 -471q-8 -38 -33.5 -60t-76.5 -23h-74l-145 694h99z" />
<glyph unicode="X" horiz-adv-x="581" d="M282 419l156 275h115l-199 -350l200 -344h-101l-157 271l-156 -271h-115l201 344l-202 350h101z" />
<glyph unicode="Y" horiz-adv-x="559" d="M329 0h-97l-1 297l-216 397h102l156 -288l154 288h115l-214 -397z" />
<glyph unicode="Z" horiz-adv-x="570" d="M64 694h435q12 -34 4.5 -74t-38.5 -93l-263 -395q-11 -17 -14 -25.5t-1 -14.5h317v-92h-438q-13 45 0.5 87.5t42.5 87.5l258 387q8 12 13 21.5t3 18.5h-319v92z" />
<glyph unicode="[" horiz-adv-x="300" d="M260 657h-128v-688h128v-92h-224l-1 872h225v-92z" />
<glyph unicode="\" horiz-adv-x="541" d="M369 -22l-311 695l98 43l311 -697z" />
<glyph unicode="]" horiz-adv-x="300" d="M35 749h225l-1 -872h-224v92h128v688h-128v92z" />
<glyph unicode="^" d="M263 566l-128 -245h-100l177 339h99l181 -339h-101z" />
<glyph unicode="_" horiz-adv-x="520" d="M454 -5v-86h-428v86h428z" />
<glyph unicode="`" horiz-adv-x="247" d="M254 664l-28 -74l-233 84l30 84z" />
<glyph unicode="a" horiz-adv-x="524" d="M434 510q-1 -99 -1.5 -196t-0.5 -197q5 -22 21.5 -33t40.5 -15q-1 -20 -2.5 -39.5t-3.5 -39.5q-51 2 -81 14t-45 38q-20 -20 -55.5 -36t-81.5 -16q-36 0 -64 11t-49 31t-35 47.5t-21 60.5q-15 67 -12 133t27.5 118.5t70.5 85t117 32.5q26 0 51.5 -4.5t43.5 -7.5zM214 71 q21 0 41.5 7.5t38 19t30.5 23.5t19 21q-1 31 -1 61.5v62.5v151l-22 3q-12 2 -25.5 4.5t-25.5 1.5q-47 0 -76.5 -26t-44.5 -66.5t-16 -91.5t11 -100q6 -28 24.5 -49.5t46.5 -21.5z" />
<glyph unicode="b" horiz-adv-x="543" d="M180 458q27 21 60.5 35t67.5 14q69 0 110.5 -42t56.5 -108t11.5 -132t-28 -118.5t-71 -85.5t-116.5 -33q-22 0 -49.5 1.5t-54 3.5t-49 4.5t-33.5 4.5v710h94zM316 425q-18 0 -38 -6.5t-39 -17t-34.5 -23t-24.5 -24.5l-1 -275q20 -4 42.5 -6.5t39.5 -2.5q46 0 76 26 t45 66.5t16 91t-10 100.5q-7 28 -25.5 49.5t-46.5 21.5z" />
<glyph unicode="c" horiz-adv-x="436" d="M395 74q-10 -16 -29 -31t-42.5 -27t-49 -19t-48.5 -7q-72 0 -113.5 42.5t-56.5 108.5t-11.5 132t28 118.5t71 85.5t117.5 33q32 0 67 -6.5t62 -15.5l-3 -79q-6 3 -20.5 6t-31.5 5.5t-34 4t-30 1.5q-47 0 -76.5 -25.5t-44.5 -66.5t-16 -91.5t10 -99.5q7 -28 25.5 -49.5 t45.5 -21.5q21 0 42 8t40 19.5t33.5 24.5t20.5 22z" />
<glyph unicode="d" horiz-adv-x="546" d="M459 0h-95l1 58q-12 -14 -29.5 -26t-37 -21.5t-39 -15t-35.5 -5.5q-68 0 -109.5 42.5t-56.5 108.5t-12 132t27.5 118.5t70.5 85.5t117 33q25 0 51.5 -4.5t50.5 -10.5v217h96v-712zM215 72q20 0 42.5 10t43.5 24t37.5 28.5t24.5 24.5v256q-20 4 -46 7.5t-46 3.5 q-47 0 -76.5 -25.5t-44.5 -66.5t-16 -91.5t10 -99.5q7 -28 25.5 -49.5t45.5 -21.5z" />
<glyph unicode="e" horiz-adv-x="507" d="M247 73q27 0 54.5 10.5t50.5 24t40 26t23 17.5l37 -77q-6 -11 -25 -25.5t-46 -27.5t-60.5 -22t-69.5 -9q-84 0 -129 40.5t-62 113.5q-21 92 -9 160.5t43.5 114t76 68t87.5 22.5q36 0 65.5 -10t51.5 -27t36.5 -40t20.5 -50q8 -32 1.5 -64t-29.5 -64q-22 -32 -56 -51 t-71 -30t-72 -15t-58 -5q0 -16 7.5 -30.5t21 -25.5t32 -17.5t39.5 -6.5zM265 427q-23 0 -45.5 -12.5t-40.5 -36.5t-29 -59.5t-9 -81.5q33 1 72.5 9.5t71.5 25.5t51 43.5t10 64.5q-5 23 -26.5 35t-54.5 12z" />
<glyph unicode="f" horiz-adv-x="337" d="M82 416h-57l1 83h56l1 38q0 100 34 142t106 42q13 0 29.5 -1.5t31.5 -3.5l36 -4l-2 -79l-26 2q-11 1 -24.5 1.5t-24.5 0.5q-38 0 -51.5 -24t-13.5 -77v-37h134v-83h-134v-416h-95z" />
<glyph unicode="g" horiz-adv-x="524" d="M271 426q-35 0 -59 -14t-39.5 -39t-22.5 -59t-7 -74q0 -83 22.5 -124.5t78.5 -41.5q20 0 41 8t38 19q19 11 38 27v292q-17 1 -34 3q-14 1 -29.5 2t-26.5 1zM249 -239q-23 0 -47.5 2t-44.5 5q-24 4 -46 8q2 20 2.5 40.5t1.5 40.5q21 -2 41 -4q17 -2 36 -3t33 -1 q72 0 102.5 45.5t30.5 127.5q0 5 -0.5 9t-0.5 9q-4 -3 -15.5 -11.5t-27.5 -17.5t-35.5 -15.5t-38.5 -6.5q-52 0 -88.5 18.5t-59.5 52t-33.5 80.5t-10.5 103q0 61 12 110.5t38.5 84t68.5 53.5t103 19q20 0 51.5 -2t60.5 -4q34 -3 72 -5v-194v-133t0.5 -92.5t0.5 -71.5 q0 -128 -49 -187.5t-157 -59.5z" />
<glyph unicode="h" horiz-adv-x="563" d="M83 0l-1 712h96l-3 -261q8 9 22.5 19.5t33 19t41.5 14.5t48 6q49 0 81 -16t50 -47t25 -78t7 -108l1 -261h-96l-1 261q0 38 -2 68.5t-10 51.5t-24 32t-45 11q-45 0 -76.5 -19t-54.5 -39l3 -366h-95z" />
<glyph unicode="i" horiz-adv-x="247" d="M75 499h95l1 -499h-95zM75 701h95v-105h-95v105z" />
<glyph unicode="j" horiz-adv-x="256" d="M84 499h95v-494q0 -48 -7.5 -82t-27 -61t-52.5 -50t-83 -48l-40 79q35 21 57.5 37t35 33t17.5 39t5 54v493zM84 706h95v-104h-95v104z" />
<glyph unicode="k" horiz-adv-x="504" d="M85 0l-1 711h95l1 -410q49 2 82.5 19t55 44t32 62t15.5 73h100q-10 -99 -44 -156.5t-85 -89.5l152 -253h-103l-136 219q-19 -5 -36 -6.5t-34 -3.5l1 -209h-95z" />
<glyph unicode="l" horiz-adv-x="251" d="M77 712h95l1 -712h-95z" />
<glyph unicode="m" horiz-adv-x="858" d="M87 0l-1 499h95l-1 -70q10 14 24.5 28.5t31.5 26t36 19t39 7.5q43 0 78 -17t55 -55q13 11 29.5 23.5t37.5 23.5t46 18t54 7q93 0 129.5 -61.5t36.5 -188.5l1 -260h-96l-1 257q0 40 -2 71t-10.5 52t-25 32t-46.5 11q-21 0 -40 -6.5t-34.5 -16t-27 -20.5t-17.5 -21 q0 -8 1.5 -34t2.5 -66l1 -259h-96l-1 257q1 83 -16.5 124.5t-72.5 41.5q-18 0 -36 -8.5t-33.5 -20.5t-28 -26t-19.5 -25l2 -343h-95z" />
<glyph unicode="n" horiz-adv-x="566" d="M85 0l-1 499h96l-2 -60q11 12 27 24.5t35 23t41 17t45 6.5q47 0 77.5 -16t48.5 -47.5t25.5 -78t7.5 -108.5l1 -260h-96v259q0 39 -1.5 69.5t-8 51.5t-22 32t-44.5 11q-23 0 -42.5 -7t-36 -17.5t-30.5 -23.5t-26 -25l2 -350h-96z" />
<glyph unicode="o" horiz-adv-x="528" d="M264 510q59 0 100 -19.5t66 -54t36 -83t11 -106.5q0 -59 -10 -106.5t-34.5 -81t-65.5 -52t-103 -18.5q-63 0 -104.5 19.5t-66 55.5t-34.5 86.5t-10 111.5q0 58 10.5 104.5t35.5 78t66 48.5t103 17zM264 72q37 0 60 13.5t35.5 38t16.5 58t4 74.5q0 81 -25 126t-91 45 q-35 0 -57.5 -11.5t-36 -34t-19.5 -55t-6 -74.5q0 -43 5 -76.5t18 -56.5t36 -35t60 -12z" />
<glyph unicode="p" horiz-adv-x="544" d="M84 499h96l-1 -43q29 22 63 36.5t69 14.5q69 0 110 -42t56 -108t12 -132t-27.5 -118.5t-71 -85.5t-116.5 -33q-20 0 -45 2.5t-49 7.5v-216h-96v717zM319 425q-19 0 -40 -7t-40 -17.5t-34.5 -23t-24.5 -24.5l-1 -273q20 -4 43.5 -6.5t41.5 -2.5q46 0 76 25.5t45 66.5 t16 91t-10 100q-7 28 -25.5 49.5t-46.5 21.5z" />
<glyph unicode="q" horiz-adv-x="537" d="M215 72q19 0 40.5 9t42 22.5t38 27.5t26.5 25v257q-20 4 -46 8.5t-46 4.5q-46 0 -76 -26t-45 -66.5t-16 -91.5t11 -100q6 -28 24.5 -49t46.5 -21zM455 -218h-94l1 268q-31 -26 -68.5 -43t-67.5 -17q-36 0 -64 11t-49 31t-35 47.5t-21 60.5q-15 67 -12 133t27.5 118.5 t70.5 85t117 32.5q28 0 58 -4t59 -9q20 0 40 0.5t40 0.5z" />
<glyph unicode="r" horiz-adv-x="358" d="M79 499h95v-74q4 4 16.5 16t32 25.5t46.5 25.5t60 18v-101q-34 -6 -61 -18t-46.5 -24.5t-31.5 -23.5t-16 -15l1 -328h-95z" />
<glyph unicode="s" horiz-adv-x="491" d="M418 410q-33 4 -65 8q-28 3 -58.5 6t-54.5 3q-41 0 -66.5 -16t-25.5 -42q0 -15 9 -26t24.5 -19t36.5 -15t44 -14q33 -10 64 -22t55 -30t39 -43t15 -61q0 -30 -9 -57t-31 -47t-59 -32t-92 -12q-25 0 -56 2.5t-60 5.5q-33 4 -67 9l4 82q35 -5 68 -9q29 -4 59.5 -6.5 t51.5 -2.5q42 0 71 17.5t29 49.5q0 18 -10.5 30t-27.5 21.5t-39.5 16.5t-47.5 15q-28 9 -57 21t-53 29t-39 40.5t-15 55.5q0 29 10 55t33 45.5t60 31t90 11.5q21 0 45.5 -2t48.5 -5.5t44.5 -7.5t33.5 -7z" />
<glyph unicode="t" horiz-adv-x="359" d="M183 414v-218q0 -34 1.5 -56.5t8 -36t19 -19.5t33.5 -6q11 0 25 0.5t28 1.5q16 1 32 3l5 -82q-20 -3 -38 -6q-16 -2 -33.5 -4t-30.5 -2q-41 0 -68.5 8.5t-44.5 30t-24 57t-7 89.5v240h-67v85h67v150h94v-150h147v-85h-147z" />
<glyph unicode="u" horiz-adv-x="559" d="M475 499l1 -499h-95l1 63q-9 -11 -23.5 -24t-32.5 -24t-39.5 -18.5t-43.5 -7.5q-45 0 -76.5 14t-51 44.5t-28.5 78t-9 113.5l1 260h95v-259q0 -44 2.5 -76t10.5 -52t23 -29.5t41 -9.5q21 0 41.5 9.5t38.5 23t31.5 28t20.5 24.5l-3 341h95z" />
<glyph unicode="v" horiz-adv-x="482" d="M117 499l105 -418q14 2 23.5 10.5t13.5 25.5l98 382h101l-109 -413q-12 -41 -41.5 -63t-83.5 -23h-69l-133 499h95z" />
<glyph unicode="w" horiz-adv-x="754" d="M113 499l86 -414q9 2 17 9t13 21l78 313q15 59 56 62h59l100 -405q11 1 17.5 8.5t10.5 19.5l81 386h98l-91 -421q-10 -37 -36.5 -57.5t-74.5 -20.5h-67l-85 361l-65 -280q-18 -81 -105 -81h-73l-110 499h91z" />
<glyph unicode="x" horiz-adv-x="463" d="M122 499l103 -182l103 182h108l-148 -250l149 -249h-98l-104 181l-101 -181h-108l146 249l-148 250h98z" />
<glyph unicode="y" horiz-adv-x="483" d="M111 499l94 -351q9 -30 19.5 -43t24.5 -15l111 409h99l-134 -494q-13 -49 -29 -83t-41.5 -60.5t-64 -49.5t-95.5 -49l-23 89q40 20 66 34.5t43 29.5t27.5 34.5t18.5 49.5q-14 3 -29.5 12t-29.5 23t-24.5 33t-15.5 40l-106 391h89z" />
<glyph unicode="z" horiz-adv-x="479" d="M58 499h358q11 -33 3 -64t-34 -66l-213 -284h247l1 -85h-356q-23 64 28 131l212 283h-246v85z" />
<glyph unicode="{" horiz-adv-x="317" d="M212 171q0 -25 -3.5 -57.5t-3.5 -59.5q0 -22 4 -38.5t15 -28t30.5 -17.5t50.5 -8l-1 -92q-105 4 -152.5 44.5t-47.5 129.5q0 15 1 32t2.5 34t2.5 32t1 24q0 39 -20.5 64t-77.5 42v80q58 14 78 38t20 64q0 10 -1 26t-2.5 34t-2.5 35.5t-1 31.5q0 47 11.5 79.5t36 53.5 t62 31t90.5 12l1 -92q-31 -2 -50.5 -8t-30.5 -16.5t-15 -27t-4 -38.5q0 -12 1 -29t2.5 -34.5t2.5 -33.5t1 -27q0 -31 -5.5 -53t-17.5 -38t-31 -27t-46 -20q55 -18 77.5 -49.5t22.5 -92.5z" />
<glyph unicode="|" d="M210 730h97v-892h-97v892z" />
<glyph unicode="}" horiz-adv-x="317" d="M106 171q0 61 22.5 92.5t77.5 49.5q-27 9 -46 20t-31 27t-17.5 38t-5.5 53q0 11 1 27t2.5 33.5t2.5 34.5t1 29q0 22 -4 38.5t-15 27t-30.5 16.5t-50.5 8l1 92q52 -2 90 -12t62.5 -31t36 -53.5t11.5 -79.5q0 -14 -1 -31.5t-2.5 -35.5t-2.5 -34t-1 -26q0 -40 20 -64t78 -38 v-80q-57 -17 -77.5 -42t-20.5 -64q0 -9 1 -24t2.5 -32t2.5 -34t1 -32q0 -90 -47 -130t-152 -44l-2 92q31 2 50.5 8t30.5 17.5t15 28t4 38.5q0 27 -3 59.5t-4 57.5z" />
<glyph unicode="~" d="M467 291q-15 -16 -33 -27q-15 -10 -34.5 -18t-42.5 -8q-21 0 -46.5 7.5t-50.5 16.5t-48 16.5t-39 7.5q-17 0 -35 -7.5t-33 -15.5q-18 -10 -35 -22l-9 90q16 15 35 26q16 10 37.5 18.5t44.5 8.5q21 0 45.5 -7.5t49.5 -16.5t47.5 -16.5t40.5 -7.5q14 0 31 7t32 15 q18 10 35 23z" />
<glyph unicode="&#xa1;" d="M321 367h-102v132h102v-132zM321 -201h-102l3 459h96z" />
<glyph unicode="&#xa2;" horiz-adv-x="437" d="M209 34q-44 2 -77.5 14.5t-56 37.5t-34 65t-11.5 98q0 110 47.5 161t131.5 56v113h81v-116q16 -2 32 -3t30 -3q16 -2 30 -4l-3 -83q-25 1 -48 3q-20 1 -41.5 2t-35.5 1q-35 0 -59.5 -6.5t-39.5 -21t-21.5 -39t-6.5 -60.5q0 -37 6.5 -61t21.5 -38.5t40 -20t63 -5.5 q14 0 34.5 0.5t40.5 2.5q23 1 47 3l3 -83q-15 -2 -31 -4q-14 -2 -30.5 -3.5t-31.5 -2.5v-116h-81v113z" />
<glyph unicode="&#xa3;" d="M448 585q-24 2 -47 5q-20 2 -41.5 3.5t-38.5 1.5q-20 0 -34 -5.5t-22.5 -18t-12 -34t-3.5 -54.5v-59h165v-83h-165v-258h144l75 16l15 -81l-81 -17l-326 -1l-1 83h81v258h-66v83h66v64q0 59 12 96.5t34 58.5t51.5 29t65.5 8q19 0 41 -2.5t42 -4.5q23 -4 46 -7v-81z" />
<glyph unicode="&#xa4;" d="M358 92q-44 -26 -94.5 -26t-94.5 26l-71 -71l-65 65l71 71q-26 44 -26 94.5t26 94.5l-71 72l65 65l71 -72q44 26 94.5 26t94.5 -26l72 72l65 -65l-72 -72q26 -44 26 -94.5t-26 -94.5l72 -71l-65 -65zM194 182q14 -14 32.5 -21.5t37.5 -7.5t37.5 7.5t32.5 21.5t21 32.5 t7 37.5t-7 37.5t-21 32.5t-32.5 21t-37.5 7t-37.5 -7t-32.5 -21t-21.5 -32.5t-7.5 -37.5t7.5 -37.5t21.5 -32.5z" />
<glyph unicode="&#xa5;" horiz-adv-x="540" d="M47 388h123l-164 272h108l156 -250l154 250h109l-163 -272h121v-81h-167l-5 -19v-48h172v-81h-172l1 -159h-97l-1 159h-175v81h175v48l-5 19h-170v81z" />
<glyph unicode="&#xa6;" d="M306 750v-396h-97v396h97zM306 232v-394h-97v394h97z" />
<glyph unicode="&#xa7;" d="M441 550q-32 3 -61 7q-26 2 -52.5 4.5t-44.5 2.5q-63 0 -88.5 -19t-25.5 -64q0 -21 8 -34t25.5 -22.5t44 -16.5t63.5 -15q41 -9 71 -19t49 -26t28 -40t9 -61q0 -20 -4.5 -40t-11.5 -38t-15 -33t-14 -24q18 -15 27.5 -37t9.5 -65q0 -91 -48.5 -132t-150.5 -41 q-25 0 -56 2.5t-58 6.5q-33 4 -65 10l9 77q31 -4 61 -7q26 -3 54 -5t49 -2q57 0 85.5 20t28.5 64q0 21 -7.5 34.5t-25 22.5t-44.5 15.5t-66 14.5q-42 9 -73 19.5t-51 27.5t-30 42t-10 62q0 21 6.5 41.5t16 38t20 30t17.5 18.5q-22 17 -33 41.5t-11 69.5q0 86 52 126.5 t148 40.5q26 0 54.5 -3t54.5 -7q29 -4 59 -10zM268 316q-23 5 -45 9.5t-39 11.5q-2 -3 -6.5 -11t-9.5 -19.5t-8.5 -24.5t-3.5 -25q0 -20 5.5 -33.5t16.5 -22.5t29 -15t44 -11q30 -7 54.5 -13.5t43.5 -14.5q2 3 6 12t7.5 21t6.5 26t3 28q0 20 -6 33t-18.5 22t-32.5 15t-47 12 z" />
<glyph unicode="&#xa8;" horiz-adv-x="247" d="M-18 723h90v-104h-90v104zM187 723h90v-104h-90v104z" />
<glyph unicode="&#xa9;" d="M8 433q0 56 19.5 105t53.5 85t81 57t102 21q57 0 104 -21.5t81 -58t52.5 -85t18.5 -102.5q0 -56 -18.5 -104.5t-52.5 -84.5t-81.5 -56.5t-104.5 -20.5q-54 0 -101 20.5t-81 56.5t-53.5 84.5t-19.5 103.5zM59 434q0 -44 15.5 -83t42.5 -68t64.5 -46t81.5 -17q45 0 83 16.5 t65.5 45.5t43 68t15.5 84q0 44 -15.5 83.5t-43 69t-65.5 46.5t-82 17t-81.5 -17t-65 -46.5t-43 -69t-15.5 -83.5zM340 288q-10 -2 -21 -4q-10 -2 -23.5 -3t-29.5 -1q-69 0 -96 38.5t-27 118.5q0 73 27.5 112t95.5 39q17 0 30.5 -1t23.5 -2q11 -2 21 -3l-1 -77q-11 1 -22 3 q-10 2 -23.5 3t-28.5 1q-30 0 -39 -21.5t-9 -53.5q0 -34 10 -57.5t38 -23.5q31 0 52 3q11 1 22 3v-74z" />
<glyph unicode="&#xaa;" horiz-adv-x="518" d="M345 437q4 -12 12.5 -16.5t24.5 -6.5l-2 -28q-19 1 -30.5 6t-23.5 16q-19 -7 -39 -11q-17 -5 -38 -8t-42 -3q-31 0 -50.5 21.5t-19.5 58.5q0 70 75 76l102 7v23q0 33 -12.5 44t-39.5 11q-13 0 -30.5 -1t-34.5 -3q-19 -2 -39 -3l-2 31q20 2 39 4q17 2 35 3t32 1 q43 0 63 -20t20 -68v-134zM217 514q-26 -2 -36.5 -13.5t-10.5 -36.5q0 -46 40 -46q17 0 35.5 2.5t33.5 5.5q18 4 35 9v85z" />
<glyph unicode="&#xab;" horiz-adv-x="614" d="M170 248l120 -98v-98l-201 158v72l201 150v-97zM423 248l119 -98v-98l-200 158v72l200 150v-97z" />
<glyph unicode="&#xac;" d="M472 354v-247h-92v155h-325v92h417z" />
<glyph unicode="&#xad;" horiz-adv-x="440" d="M65 327h308v-92h-308v92z" />
<glyph unicode="&#xae;" d="M-2 434q0 57 18.5 107t53 88t83.5 60t111 22q61 0 111 -22t85.5 -59.5t55 -88t19.5 -107.5q0 -56 -19.5 -106.5t-55 -88.5t-85.5 -60t-111 -22q-62 0 -111 22t-83.5 60t-53 88t-18.5 107zM47 434q0 -47 16.5 -88t46 -72.5t69 -49.5t85.5 -18t85.5 18t69 49t46.5 72.5 t17 88.5q0 48 -17 89.5t-46.5 72t-69 48.5t-85.5 18q-47 0 -86.5 -18t-68.5 -48.5t-45.5 -72t-16.5 -89.5zM266 389h-47v-113h-71v315h112q60 0 90.5 -21.5t30.5 -75.5q0 -38 -10.5 -60t-36.5 -36l53 -122h-76zM218 444h49q23 0 34 10.5t11 35.5q0 24 -13 34.5t-40 10.5h-41 v-91z" />
<glyph unicode="&#xaf;" horiz-adv-x="247" d="M-23 712h302v-82h-302v82z" />
<glyph unicode="&#xb0;" d="M99 564q0 65 39.5 104.5t104.5 39.5t104.5 -39.5t39.5 -104.5t-39.5 -104t-104.5 -39t-104.5 39t-39.5 104zM157 564q0 -39 23.5 -63t62.5 -24t63.5 24t24.5 63t-24.5 63.5t-63.5 24.5t-62.5 -24.5t-23.5 -63.5z" />
<glyph unicode="&#xb1;" d="M31 399h190v126h88v-126h194v-87h-194v-124h-88v124h-190v87zM503 137v-87h-472v87h472z" />
<glyph unicode="&#xb2;" horiz-adv-x="265" d="M19 478v68l83 77q24 21 36.5 37.5t12.5 35.5q0 17 -12 23t-33 6q-11 0 -24.5 -1t-26.5 -3q-15 -2 -31 -4l-3 73q18 2 37 5q16 2 35 3.5t36 1.5q56 0 79.5 -22t23.5 -72q0 -35 -15 -58.5t-44 -49.5l-53 -49h115v-71h-216z" />
<glyph unicode="&#xb3;" horiz-adv-x="265" d="M27 790q18 2 36 5q16 2 34 3.5t34 1.5q56 0 83.5 -20t27.5 -65q0 -17 -4 -29.5t-10 -21.5t-12.5 -14.5t-10.5 -7.5q21 -8 32.5 -23.5t11.5 -52.5q0 -51 -29.5 -74.5t-81.5 -23.5q-19 0 -39 1t-37 3q-20 2 -39 5l4 69q16 -2 34 -4q15 -2 32 -3t32 -1q23 0 33 8.5t10 24.5 q0 20 -10.5 26.5t-29.5 6.5h-65v65h64q13 0 23 9t10 24q0 28 -40 28q-15 0 -31 -1t-29 -3q-15 -2 -29 -3l-4 67v0z" />
<glyph unicode="&#xb4;" horiz-adv-x="268" d="M245 758l33 -88l-234 -84l-30 79z" />
<glyph unicode="&#xb6;" d="M381 625h-98l1 -625h-83l-1 324h-7q-41 0 -75 13.5t-59 38.5t-38.5 59t-13.5 76t14 76.5t38.5 59.5t59 39t75.5 14h330v-75h-60l1 -625h-83z" />
<glyph unicode="&#xb7;" horiz-adv-x="248" d="M65 364h103v-132h-103v132z" />
<glyph unicode="&#xb8;" horiz-adv-x="833" d="M563 -127q0 -51 -27 -74.5t-72 -23.5q-17 0 -32 1t-28 3q-15 2 -28 4l3 58q10 -1 21 -1q9 -1 19.5 -1h19.5q42 0 42 34q0 17 -10.5 23.5t-31.5 6.5h-36v98h45v-46q28 0 49.5 -3.5t36 -12.5t22 -25t7.5 -41z" />
<glyph unicode="&#xb9;" horiz-adv-x="265" d="M127 790h72v-312h-78v226l-61 -41l-36 55z" />
<glyph unicode="&#xba;" horiz-adv-x="526" d="M258 659q57 0 85 -32t28 -103t-28 -104.5t-85 -33.5t-86 33.5t-29 104.5t29 103t86 32zM258 418q43 0 61 24.5t18 81.5t-18 80t-61 23t-62 -23t-19 -80t19 -81.5t62 -24.5z" />
<glyph unicode="&#xbb;" horiz-adv-x="614" d="M322 335v97l201 -150v-72l-201 -158v98l120 98zM70 335v97l200 -150v-72l-200 -158v98l119 98z" />
<glyph unicode="&#xbf;" horiz-adv-x="386" d="M7 -31q0 43 13.5 75.5t34 57.5t44.5 44.5t44.5 37.5t34.5 35.5t14 39.5v38h100v-41q0 -33 -13.5 -57.5t-34 -45t-44 -38.5t-44 -38t-34 -43t-13.5 -54q0 -51 24.5 -73t91.5 -22q18 0 44.5 3t50.5 8q28 4 58 11l12 -92q-33 -8 -64 -14q-27 -5 -56 -9.5t-49 -4.5 q-109 0 -161.5 40.5t-52.5 141.5zM293 367h-102v132h102v-132z" />
<glyph unicode="&#xc0;" horiz-adv-x="604" d="M205 694h199l176 -693h-98l-45 155h-270l-42 -156h-97zM188 249h229l-89 355h-49zM418 848l-30 -78l-233 83l32 89z" />
<glyph unicode="&#xc1;" horiz-adv-x="604" d="M205 694h199l176 -693h-98l-45 155h-270l-42 -156h-97zM188 249h229l-89 355h-49zM403 958l33 -88l-234 -84l-30 79z" />
<glyph unicode="&#xc2;" horiz-adv-x="604" d="M205 694h199l176 -693h-98l-45 155h-270l-42 -156h-97zM188 249h229l-89 355h-49zM263 944h76l128 -156h-103l-62 77l-63 -77h-103z" />
<glyph unicode="&#xc3;" horiz-adv-x="605" d="M177 579q13 50 46.5 82t94.5 32h80l175 -693h-93q-13 39 -24 77.5t-23 78.5h-259l-41 -156h-103zM196 247h218l-90 360q-23 0 -35 -18.5t-19 -45.5zM459 824q-14 -16 -30 -28q-14 -11 -30 -19t-33 -8q-18 0 -39 7.5t-41 16.5t-38.5 16.5t-30.5 7.5q-10 0 -22.5 -6.5 t-24.5 -14.5q-14 -10 -28 -21l-21 72q15 16 31 28q14 11 31 20t34 9q20 0 41 -7.5t41 -16t37 -16t28 -7.5q8 0 21 6t25 14q14 9 28 20z" />
<glyph unicode="&#xc4;" horiz-adv-x="604" d="M205 694h200l175 -693h-97l-46 155h-270l-41 -156h-98zM188 249h230l-90 355h-49zM173 923h91v-104h-91v104zM379 923h91v-104h-91v104z" />
<glyph unicode="&#xc5;" horiz-adv-x="604" d="M433 736q0 -40 -23 -68l170 -667h-98l-45 155h-270l-42 -156h-97l170 668q-22 28 -22 68q0 54 37 83.5t91 29.5t91.5 -29.5t37.5 -83.5zM188 249h229l-89 355h-49zM251 736q0 -34 35 -42h37q35 8 35 42q0 21 -14 33t-40 12q-25 0 -39 -12t-14 -33z" />
<glyph unicode="&#xc6;" horiz-adv-x="898" d="M427 156h-238l-47 -156h-99l210 694h601v-93h-331v-201h271v-92h-271v-215h331l1 -93h-427zM214 249h213l1 352h-106z" />
<glyph unicode="&#xc7;" horiz-adv-x="537" d="M426 -127q0 -51 -27 -74.5t-72 -23.5q-17 0 -32 1t-28 3q-15 2 -28 4l3 58q10 -1 21 -1q9 -1 19.5 -1h19.5q42 0 42 34q0 17 -10.5 23.5t-31.5 6.5h-36v88q-67 5 -110 30t-67.5 70t-33.5 109t-9 146q0 91 11.5 158.5t41 112t79 66.5t124.5 22q33 0 67.5 -4t62.5 -9 q33 -5 63 -12l-3 -87q-33 4 -65 8q-27 3 -58 6t-55 3q-52 0 -84.5 -15t-51 -46.5t-25 -82t-6.5 -120.5q0 -69 6 -118.5t24.5 -81.5t51.5 -47t87 -15q22 0 52 2.5t58 5.5q33 4 66 9l3 -88q-31 -6 -63 -11q-27 -5 -59.5 -8.5t-61.5 -4.5v-34q28 0 49.5 -3.5t36 -12.5t22 -25 t7.5 -41z" />
<glyph unicode="&#xc8;" horiz-adv-x="561" d="M82 694h427v-93h-331v-208h271v-91h-271v-209h331l1 -93h-427zM424 848l-30 -78l-233 83l32 89z" />
<glyph unicode="&#xc9;" horiz-adv-x="572" d="M85 694h427v-93h-331v-208h271v-91h-271v-209h331l1 -93h-427zM407 958l33 -88l-234 -84l-30 79z" />
<glyph unicode="&#xca;" horiz-adv-x="572" d="M85 694h427v-93h-331v-208h271v-91h-271v-209h331l1 -93h-427zM269 944h76l128 -156h-103l-62 77l-63 -77h-103z" />
<glyph unicode="&#xcb;" horiz-adv-x="572" d="M85 694h427v-93h-331v-208h271v-91h-271v-209h331l1 -93h-427zM158 923h91v-104h-91v104zM364 923h90v-104h-90v104z" />
<glyph unicode="&#xcc;" horiz-adv-x="257" d="M79 694h97l1 -694h-97zM234 848l-30 -78l-232 83l31 89z" />
<glyph unicode="&#xcd;" horiz-adv-x="257" d="M79 694h97l1 -694h-97zM235 948l33 -88l-234 -84l-30 79z" />
<glyph unicode="&#xce;" horiz-adv-x="257" d="M79 694h97l1 -694h-97zM85 934h86l132 -139h-108l-66 64l-66 -64h-109z" />
<glyph unicode="&#xcf;" horiz-adv-x="257" d="M79 694h97l1 -694h-97zM-21 916h89v-104h-89v104zM189 916h91v-104h-91v104z" />
<glyph unicode="&#xd0;" horiz-adv-x="637" d="M19 390h63v304h240q80 0 131.5 -23t81.5 -66.5t42 -105.5t12 -140q0 -79 -11 -145t-40.5 -113.5t-81.5 -74t-133 -26.5h-240l-1 297h-63v93zM489 359q0 54 -6.5 98.5t-24.5 77t-50.5 50t-85.5 17.5h-144v-212h145v-93h-145v-205h144q53 0 85.5 21.5t50.5 58t24.5 85 t6.5 102.5z" />
<glyph unicode="&#xd1;" horiz-adv-x="687" d="M76 694h164l248 -576h19v576h98l1 -694h-160l-254 576h-19l1 -576h-97zM505 858q-14 -16 -30 -28q-14 -11 -30.5 -19t-33.5 -8q-18 0 -38.5 7.5t-41 16.5t-38.5 16.5t-30 7.5q-10 0 -22.5 -6.5t-24.5 -14.5q-14 -10 -29 -21l-21 72q15 16 32 28q14 11 31 20t34 9 q19 0 40.5 -7.5t41.5 -16t37 -16t28 -7.5q8 0 20.5 6t24.5 14q14 9 29 20z" />
<glyph unicode="&#xd2;" horiz-adv-x="656" d="M327 83q54 0 88.5 15.5t54 47.5t26.5 81t7 116q0 64 -7.5 114t-27 84.5t-53.5 52t-88 17.5t-88 -17.5t-53.5 -51.5t-27 -84t-7.5 -115t7 -114t26.5 -81.5t54 -48.5t88.5 -16zM327 -11q-80 0 -133.5 22.5t-85 67.5t-44.5 111t-13 153q0 86 13 153.5t44.5 114t85 70.5 t133.5 24t133.5 -24t85.5 -70.5t45 -113.5t13 -154q0 -89 -13 -155t-45 -110.5t-85 -66.5t-134 -22zM448 848l-30 -78l-233 83l32 89z" />
<glyph unicode="&#xd3;" horiz-adv-x="656" d="M327 83q54 0 88.5 15.5t54 47.5t26.5 81t7 116q0 64 -7.5 114t-27 84.5t-53.5 52t-88 17.5t-88 -17.5t-53.5 -51.5t-27 -84t-7.5 -115t7 -114t26.5 -81.5t54 -48.5t88.5 -16zM327 -11q-80 0 -133.5 22.5t-85 67.5t-44.5 111t-13 153q0 86 13 153.5t44.5 114t85 70.5 t133.5 24t133.5 -24t85.5 -70.5t45 -113.5t13 -154q0 -89 -13 -155t-45 -110.5t-85 -66.5t-134 -22zM417 958l33 -88l-234 -84l-30 79z" />
<glyph unicode="&#xd4;" horiz-adv-x="656" d="M327 83q54 0 88.5 15.5t54 47.5t26.5 81t7 116q0 64 -7.5 114t-27 84.5t-53.5 52t-88 17.5t-88 -17.5t-53.5 -51.5t-27 -84t-7.5 -115t7 -114t26.5 -81.5t54 -48.5t88.5 -16zM327 -11q-80 0 -133.5 22.5t-85 67.5t-44.5 111t-13 153q0 86 13 153.5t44.5 114t85 70.5 t133.5 24t133.5 -24t85.5 -70.5t45 -113.5t13 -154q0 -89 -13 -155t-45 -110.5t-85 -66.5t-134 -22zM287 944h76l128 -156h-103l-62 77l-63 -77h-103z" />
<glyph unicode="&#xd5;" horiz-adv-x="649" d="M323 83q54 0 88.5 15.5t54 47.5t26.5 81t7 116q0 64 -7.5 114t-27 84.5t-53.5 52t-88 17.5t-88 -17.5t-53.5 -51.5t-27 -84t-7.5 -115t7 -114t26.5 -81.5t54 -48.5t88.5 -16zM323 -11q-80 0 -133.5 22.5t-85 67.5t-44.5 111t-13 153q0 86 13 153.5t44.5 114t85 70.5 t133.5 24t133.5 -24t85.5 -70.5t45 -113.5t13 -154q0 -89 -13 -155t-45 -110.5t-85 -66.5t-134 -22zM507 804q-14 -16 -30 -28q-14 -11 -30 -19t-33 -8q-18 0 -39 7.5t-41 16.5t-38.5 16.5t-30.5 7.5q-10 0 -22.5 -6.5t-24.5 -14.5q-14 -10 -28 -21l-21 72q15 16 31 28 q14 11 31 20t34 9q20 0 41 -7.5t41 -16t37 -16t28 -7.5q8 0 21 6t25 14q14 9 28 20z" />
<glyph unicode="&#xd6;" horiz-adv-x="656" d="M327 83q54 0 88 15.5t53.5 47.5t27 81t7.5 116q0 64 -7.5 114t-27 84.5t-54 52t-87.5 17.5q-54 0 -88 -17.5t-53.5 -51.5t-27 -84t-7.5 -115t7 -114t26.5 -81.5t54 -48.5t88.5 -16zM327 -11q-81 0 -134 22.5t-84.5 67.5t-44.5 111t-13 153q0 86 13 153.5t44.5 114 t85 70.5t133.5 24t133.5 -24t85 -70.5t44.5 -113.5t13 -154q0 -89 -13 -155t-44.5 -110.5t-85 -66.5t-133.5 -22zM175 923h91v-104h-91v104zM380 923h91v-104h-91v104z" />
<glyph unicode="&#xd7;" horiz-adv-x="651" d="M420 340l183 188l63 -62l-184 -187l185 -189l-63 -61l-184 187l-183 -187l-62 61l184 189l-184 187l63 62z" />
<glyph unicode="&#xd8;" horiz-adv-x="649" d="M323 -11q-30 0 -56 3.5t-49 9.5l-58 -124l-86 38l61 130q-49 43 -68.5 117t-19.5 180q0 86 13 153.5t44.5 114t85 70.5t133.5 24q32 0 60 -4t52 -12l55 116l88 -33l-62 -132q47 -45 65.5 -119.5t18.5 -177.5q0 -89 -13 -155t-45 -110.5t-85 -66.5t-134 -22zM147 343 q0 -66 7.5 -115.5t27.5 -81.5l212 454q-31 11 -71 11q-54 0 -88 -17.5t-53.5 -51.5t-27 -84t-7.5 -115zM323 83q54 0 88.5 15.5t54 47.5t26.5 81t7 116q0 62 -7 110t-25 83l-208 -446q27 -7 64 -7z" />
<glyph unicode="&#xd9;" horiz-adv-x="640" d="M168 216q0 -74 40.5 -102t108.5 -28q35 0 63 6.5t48 21.5t30.5 40t10.5 62v478h98v-478q0 -61 -16.5 -103.5t-48 -69.5t-78 -39.5t-107.5 -12.5q-59 0 -105 12.5t-77.5 39.5t-47.5 69.5t-16 103.5v478h97v-478zM351 848l-30 -78l-233 83l32 89z" />
<glyph unicode="&#xda;" horiz-adv-x="642" d="M171 216q0 -74 40.5 -102t108.5 -28q35 0 63 6.5t48 21.5t30.5 40t10.5 62v478h98v-478q0 -61 -16.5 -103.5t-48 -69.5t-78 -39.5t-107.5 -12.5q-59 0 -105 12.5t-77.5 39.5t-47.5 69.5t-16 103.5v478h97v-478zM413 958l33 -88l-234 -84l-30 79z" />
<glyph unicode="&#xdb;" horiz-adv-x="642" d="M171 216q0 -74 40.5 -102t108.5 -28q35 0 63 6.5t48 21.5t30.5 40t10.5 62v478h98v-478q0 -61 -16.5 -103.5t-48 -69.5t-78 -39.5t-107.5 -12.5q-59 0 -105 12.5t-77.5 39.5t-47.5 69.5t-16 103.5v478h97v-478zM283 944h76l128 -156h-103l-62 77l-63 -77h-103z" />
<glyph unicode="&#xdc;" horiz-adv-x="642" d="M171 216q0 -74 40.5 -102t108.5 -28q35 0 63 6.5t48 21.5t30.5 40t10.5 62v478h98v-478q0 -61 -16.5 -103.5t-48 -69.5t-78 -39.5t-107.5 -12.5q-59 0 -105 12.5t-77.5 39.5t-47.5 69.5t-16 103.5v478h97v-478zM195 923h91v-104h-91v104zM401 923h90v-104h-90v104z" />
<glyph unicode="&#xdd;" horiz-adv-x="540" d="M320 0h-97l-1 297l-216 397h108l156 -288l154 288h109l-214 -397zM350 958l33 -88l-234 -84l-30 79z" />
<glyph unicode="&#xde;" horiz-adv-x="564" d="M305 207q68 0 99 40.5t31 111.5q0 69 -31 102t-99 33h-154v-287h154zM151 113l1 -113h-98l-1 694h98v-108h154q116 0 173 -55.5t57 -171.5t-57 -181t-173 -65h-154z" />
<glyph unicode="&#xdf;" horiz-adv-x="612" d="M81 0l-1 538q0 51 12.5 86.5t38.5 57t64.5 31t91.5 9.5q110 0 158 -34t48 -113q0 -53 -20.5 -82t-61.5 -46q-38 -17 -50.5 -25t-12.5 -22q0 -7 2.5 -12.5t11.5 -13t27 -17.5t49 -26q34 -18 58.5 -32.5t40 -29.5t22.5 -32.5t7 -41.5q0 -57 -11.5 -96t-39 -63t-73 -34.5 t-114.5 -10.5q-14 0 -31.5 2.5t-33.5 5.5q-18 4 -37 8l4 76q24 -1 43 -2q17 -1 32.5 -1.5t22.5 -0.5q42 0 69.5 6t43 18.5t21.5 32.5t6 47q0 8 -4 15.5t-15.5 16.5t-31.5 20.5t-52 26.5q-35 17 -57 31.5t-35 29t-18 31t-5 37.5q0 41 20 64t61 40q21 9 33.5 17.5t19.5 17.5 t9 18.5t2 20.5q0 38 -25.5 52t-82.5 14q-54 0 -83.5 -21t-29.5 -83l1 -531h-94z" />
<glyph unicode="&#xe0;" horiz-adv-x="524" d="M434 510q-1 -99 -1.5 -196t-0.5 -197q5 -22 21.5 -33t40.5 -15q-1 -20 -2.5 -39.5t-3.5 -39.5q-51 2 -81 14t-45 38q-20 -20 -55.5 -36t-81.5 -16q-36 0 -64 11t-49 31t-35 47.5t-21 60.5q-15 67 -12 133t27.5 118.5t70.5 85t117 32.5q26 0 51.5 -4.5t43.5 -7.5zM214 71 q21 0 41.5 7.5t38 19t30.5 23.5t19 21q-1 31 -1 61.5v62.5v151l-22 3q-12 2 -25.5 4.5t-25.5 1.5q-47 0 -76.5 -26t-44.5 -66.5t-16 -91.5t11 -100q6 -28 24.5 -49.5t46.5 -21.5zM336 664l-28 -74l-234 84l31 84z" />
<glyph unicode="&#xe1;" horiz-adv-x="524" d="M434 510q-1 -99 -1.5 -196t-0.5 -197q5 -22 21.5 -33t40.5 -15q-1 -20 -2.5 -39.5t-3.5 -39.5q-51 2 -81 14t-45 38q-20 -20 -55.5 -36t-81.5 -16q-36 0 -64 11t-49 31t-35 47.5t-21 60.5q-15 67 -12 133t27.5 118.5t70.5 85t117 32.5q26 0 51.5 -4.5t43.5 -7.5zM214 71 q21 0 41.5 7.5t38 19t30.5 23.5t19 21q-1 31 -1 61.5v62.5v151l-22 3q-12 2 -25.5 4.5t-25.5 1.5q-47 0 -76.5 -26t-44.5 -66.5t-16 -91.5t11 -100q6 -28 24.5 -49.5t46.5 -21.5zM431 758l33 -88l-234 -84l-29 79z" />
<glyph unicode="&#xe2;" horiz-adv-x="524" d="M434 510q-1 -99 -1.5 -196t-0.5 -197q5 -22 21.5 -33t40.5 -15q-1 -20 -2.5 -39.5t-3.5 -39.5q-51 2 -81 14t-45 38q-20 -20 -55.5 -36t-81.5 -16q-36 0 -64 11t-49 31t-35 47.5t-21 60.5q-15 67 -12 133t27.5 118.5t70.5 85t117 32.5q26 0 51.5 -4.5t43.5 -7.5zM214 71 q21 0 41.5 7.5t38 19t30.5 23.5t19 21q-1 31 -1 61.5v62.5v151l-22 3q-12 2 -25.5 4.5t-25.5 1.5q-47 0 -76.5 -26t-44.5 -66.5t-16 -91.5t11 -100q6 -28 24.5 -49.5t46.5 -21.5zM223 744h76l128 -156h-103l-62 77l-63 -77h-102z" />
<glyph unicode="&#xe3;" horiz-adv-x="524" d="M434 510q-1 -99 -1.5 -196t-0.5 -197q5 -22 21.5 -33t40.5 -15q-1 -20 -2.5 -39.5t-3.5 -39.5q-51 2 -81 14t-45 38q-20 -20 -55.5 -36t-81.5 -16q-36 0 -64 11t-49 31t-35 47.5t-21 60.5q-15 67 -12 133t27.5 118.5t70.5 85t117 32.5q26 0 51.5 -4.5t43.5 -7.5zM214 71 q21 0 41.5 7.5t38 19t30.5 23.5t19 21q-1 31 -1 61.5v62.5v151l-22 3q-12 2 -25.5 4.5t-25.5 1.5q-47 0 -76.5 -26t-44.5 -66.5t-16 -91.5t11 -100q6 -28 24.5 -49.5t46.5 -21.5zM436 658q-14 -16 -30 -28q-14 -11 -30 -19t-33 -8q-18 0 -39 7.5t-41 16.5t-38.5 16.5 t-30.5 7.5q-10 0 -22.5 -6.5t-24.5 -14.5q-14 -10 -28 -21l-21 72q15 16 31 28q14 11 31 20t34 9q20 0 41 -7.5t41 -16t37 -16t28 -7.5q8 0 21 6t25 14q14 9 28 20z" />
<glyph unicode="&#xe4;" horiz-adv-x="524" d="M434 510q-1 -99 -1.5 -196t-0.5 -197q5 -22 21.5 -33t40.5 -15q-1 -20 -2.5 -39.5t-3.5 -39.5q-51 2 -81 14t-45 38q-20 -20 -55.5 -36t-81.5 -16q-36 0 -64 11t-49 31t-35 47.5t-21 60.5q-15 67 -12 133t27.5 118.5t70.5 85t117 32.5q26 0 51.5 -4.5t43.5 -7.5zM214 71 q21 0 41.5 7.5t38 19t30.5 23.5t19 21q-1 31 -1 61.5v62.5v151l-22 3q-12 2 -25.5 4.5t-25.5 1.5q-47 0 -76.5 -26t-44.5 -66.5t-16 -91.5t11 -100q6 -28 24.5 -49.5t46.5 -21.5zM101 723h90v-104h-90v104zM306 723h90v-104h-90v104z" />
<glyph unicode="&#xe5;" horiz-adv-x="524" d="M434 510q-1 -99 -1.5 -196t-0.5 -197q5 -22 21.5 -33t40.5 -15q-1 -20 -2.5 -39.5t-3.5 -39.5q-51 2 -81 14t-45 38q-20 -20 -55.5 -36t-81.5 -16q-36 0 -64 11t-49 31t-35 47.5t-21 60.5q-15 67 -12 133t27.5 118.5t70.5 85t117 32.5q26 0 51.5 -4.5t43.5 -7.5zM214 71 q21 0 41.5 7.5t38 19t30.5 23.5t19 21q-1 31 -1 61.5v62.5v151l-22 3q-12 2 -25.5 4.5t-25.5 1.5q-47 0 -76.5 -26t-44.5 -66.5t-16 -91.5t11 -100q6 -28 24.5 -49.5t46.5 -21.5zM170 677q0 22 8.5 42t23 34.5t34.5 23t43 8.5q22 0 42 -8.5t34.5 -23t23 -34.5t8.5 -42 q0 -23 -8.5 -43t-23 -34.5t-34.5 -22.5t-42 -8q-47 0 -78 30.5t-31 77.5zM236 677q0 -19 12.5 -31.5t31.5 -12.5q17 0 29.5 12.5t12.5 31.5q0 18 -12.5 30.5t-29.5 12.5q-19 0 -31.5 -12.5t-12.5 -30.5z" />
<glyph unicode="&#xe6;" horiz-adv-x="828" d="M568 76q29 0 61.5 1t59.5 3q32 2 63 5l2 -75q-34 -7 -68 -11q-29 -4 -64 -7t-67 -3q-51 0 -87.5 13t-61.5 39l-29 -13q-8 -3 -25 -9.5t-41.5 -13t-55 -11.5t-63.5 -5q-69 0 -104.5 41t-35.5 116q0 42 11.5 69.5t34 44.5t56 25.5t77.5 12.5l122 10v36q0 38 -20 57t-55 19 q-28 0 -61 -1.5t-62 -3.5q-34 -3 -68 -5l-4 83q35 4 71 8q30 3 65 6t64 3q98 0 133 -60q26 32 64 46t85 14q103 0 154.5 -55t51.5 -176l-6 -69h-318q1 -68 27.5 -101t93.5 -33zM209 71q23 0 49.5 4t49 9.5t38 10t18.5 5.5q-8 29 -10.5 62t-2.5 72l-127 -10q-38 -3 -57 -20.5 t-19 -55.5q0 -77 61 -77zM677 284q0 78 -26 110t-86 32t-89 -33.5t-29 -108.5h230z" />
<glyph unicode="&#xe7;" horiz-adv-x="436" d="M395 74q-8 -13 -22 -25.5t-31.5 -23t-37.5 -18.5t-40 -12l-1 -40q28 0 49.5 -3.5t36 -12.5t22 -25t7.5 -41q0 -51 -27 -74.5t-72 -23.5q-17 0 -32 1t-28 3q-15 2 -28 4l3 58q10 -1 21 -1q9 -1 19.5 -1h19.5q42 0 42 34q0 17 -10.5 23.5t-31.5 6.5h-36l1 87q-68 2 -108 44 t-55 107q-15 66 -11.5 132t28 118.5t71 85.5t117.5 33q32 0 67 -6.5t62 -15.5l-3 -79q-6 3 -20.5 6t-31.5 5.5t-34 4t-30 1.5q-47 0 -76.5 -25.5t-44.5 -66.5t-16 -91.5t10 -99.5q7 -28 25.5 -49.5t45.5 -21.5q21 0 42 8t40 19.5t33.5 24.5t20.5 22z" />
<glyph unicode="&#xe8;" horiz-adv-x="507" d="M247 73q27 0 54.5 10.5t50.5 24t40 26t23 17.5l37 -77q-6 -11 -25 -25.5t-46 -27.5t-60.5 -22t-69.5 -9q-84 0 -129 40.5t-62 113.5q-21 92 -9 160.5t43.5 114t76 68t87.5 22.5q36 0 65.5 -10t51.5 -27t36.5 -40t20.5 -50q8 -32 1.5 -64t-29.5 -64q-22 -32 -56 -51 t-71 -30t-72 -15t-58 -5q0 -16 7.5 -30.5t21 -25.5t32 -17.5t39.5 -6.5zM265 427q-23 0 -45.5 -12.5t-40.5 -36.5t-29 -59.5t-9 -81.5q33 1 72.5 9.5t71.5 25.5t51 43.5t10 64.5q-5 23 -26.5 35t-54.5 12zM309 653l-28 -74l-234 84l31 84z" />
<glyph unicode="&#xe9;" horiz-adv-x="507" d="M247 73q27 0 54.5 10.5t50.5 24t40 26t23 17.5l37 -77q-6 -11 -25 -25.5t-46 -27.5t-60.5 -22t-69.5 -9q-84 0 -129 40.5t-62 113.5q-21 92 -9 160.5t43.5 114t76 68t87.5 22.5q36 0 65.5 -10t51.5 -27t36.5 -40t20.5 -50q8 -32 1.5 -64t-29.5 -64q-22 -32 -56 -51 t-71 -30t-72 -15t-58 -5q0 -16 7.5 -30.5t21 -25.5t32 -17.5t39.5 -6.5zM265 427q-23 0 -45.5 -12.5t-40.5 -36.5t-29 -59.5t-9 -81.5q33 1 72.5 9.5t71.5 25.5t51 43.5t10 64.5q-5 23 -26.5 35t-54.5 12zM441 742l33 -88l-234 -84l-29 79z" />
<glyph unicode="&#xea;" horiz-adv-x="507" d="M247 73q27 0 54.5 10.5t50.5 24t40 26t23 17.5l37 -77q-6 -11 -25 -25.5t-46 -27.5t-60.5 -22t-69.5 -9q-84 0 -129 40.5t-62 113.5q-21 92 -9 160.5t43.5 114t76 68t87.5 22.5q36 0 65.5 -10t51.5 -27t36.5 -40t20.5 -50q8 -32 1.5 -64t-29.5 -64q-22 -32 -56 -51 t-71 -30t-72 -15t-58 -5q0 -16 7.5 -30.5t21 -25.5t32 -17.5t39.5 -6.5zM265 427q-23 0 -45.5 -12.5t-40.5 -36.5t-29 -59.5t-9 -81.5q33 1 72.5 9.5t71.5 25.5t51 43.5t10 64.5q-5 23 -26.5 35t-54.5 12zM220 736h76l128 -156h-103l-62 77l-63 -77h-102z" />
<glyph unicode="&#xeb;" horiz-adv-x="507" d="M247 73q27 0 54.5 10.5t50.5 24t40 26t23 17.5l37 -77q-6 -11 -25 -25.5t-46 -27.5t-60.5 -22t-69.5 -9q-84 0 -129 40.5t-62 113.5q-21 92 -9 160.5t43.5 114t76 68t87.5 22.5q36 0 65.5 -10t51.5 -27t36.5 -40t20.5 -50q8 -32 1.5 -64t-29.5 -64q-22 -32 -56 -51 t-71 -30t-72 -15t-58 -5q0 -16 7.5 -30.5t21 -25.5t32 -17.5t39.5 -6.5zM265 427q-23 0 -45.5 -12.5t-40.5 -36.5t-29 -59.5t-9 -81.5q33 1 72.5 9.5t71.5 25.5t51 43.5t10 64.5q-5 23 -26.5 35t-54.5 12zM115 710h90v-104h-90v104zM320 710h90v-104h-90v104z" />
<glyph unicode="&#xec;" horiz-adv-x="261" d="M84 499h95l1 -499h-95zM255 664l-28 -74l-233 84l30 84z" />
<glyph unicode="&#xed;" horiz-adv-x="261" d="M252 758l33 -88l-234 -84l-30 79zM84 499h95l1 -499h-95z" />
<glyph unicode="&#xee;" horiz-adv-x="265" d="M84 499h95l1 -499h-95zM89 744h76l128 -156h-103l-62 77l-63 -77h-102z" />
<glyph unicode="&#xef;" horiz-adv-x="261" d="M-20 723h90v-104h-90v104zM185 723h91v-104h-91v104zM84 499h95l1 -499h-95z" />
<glyph unicode="&#xf0;" d="M113 559l70 51q-23 7 -47.5 13t-52.5 12l16 81q95 -15 169 -42l98 72l40 -56l-66 -49q78 -45 118.5 -115t40.5 -176q0 -95 -13.5 -163t-42.5 -111.5t-74 -64t-109 -20.5q-109 0 -168 60t-59 175q0 47 15 85.5t43 65.5t67 41.5t87 14.5q27 0 54.5 -5t49.5 -11 q26 -7 49 -16q-5 58 -35 102.5t-103 78.5l-106 -79zM251 349q-56 0 -86.5 -36t-30.5 -87q0 -69 30.5 -108t95.5 -39q36 0 61.5 12.5t42.5 41t25.5 74t8.5 110.5q-22 9 -47 16q-21 6 -47 11t-53 5z" />
<glyph unicode="&#xf1;" horiz-adv-x="574" d="M87 0l-1 499h94v-29q24 11 49 20q21 8 46.5 14t48.5 6q52 0 85.5 -14.5t52.5 -45t26.5 -77.5t7.5 -112l1 -261h-95l-1 260q0 42 -3.5 73t-13 50.5t-28 29t-48.5 9.5q-21 0 -43.5 -5t-41.5 -10q-22 -7 -43 -15l1 -392h-94zM461 658q-14 -16 -30 -28q-14 -11 -30.5 -19 t-33.5 -8q-18 0 -38.5 7.5t-41 16.5t-38.5 16.5t-30 7.5q-10 0 -22.5 -6.5t-24.5 -14.5q-14 -10 -29 -21l-21 72q15 16 32 28q14 11 31 20t34 9q19 0 40.5 -7.5t41.5 -16t37 -16t28 -7.5q8 0 20.5 6t24.5 14q14 9 29 20z" />
<glyph unicode="&#xf2;" horiz-adv-x="528" d="M264 510q118 0 168 -66t50 -190q0 -63 -10 -112.5t-35 -83t-67 -51.5t-106 -18t-106.5 17t-67.5 51t-35.5 83t-10.5 114q0 63 11.5 110.5t37 80t67.5 49t104 16.5zM264 75q39 0 62.5 11t37 33.5t18 56t4.5 78.5q0 90 -27.5 130.5t-94.5 40.5q-36 0 -60 -9.5t-38 -30 t-20 -53t-6 -78.5q0 -47 5 -80.5t18.5 -55.5t37.5 -32.5t63 -10.5zM394 664l-28 -74l-234 84l31 84z" />
<glyph unicode="&#xf3;" horiz-adv-x="528" d="M264 510q118 0 168 -66t50 -190q0 -63 -10 -112.5t-35 -83t-67 -51.5t-106 -18t-106.5 17t-67.5 51t-35.5 83t-10.5 114q0 63 11.5 110.5t37 80t67.5 49t104 16.5zM264 75q39 0 62.5 11t37 33.5t18 56t4.5 78.5q0 90 -27.5 130.5t-94.5 40.5q-36 0 -60 -9.5t-38 -30 t-20 -53t-6 -78.5q0 -47 5 -80.5t18.5 -55.5t37.5 -32.5t63 -10.5zM358 758l33 -88l-234 -84l-30 79z" />
<glyph unicode="&#xf4;" horiz-adv-x="528" d="M264 510q118 0 168 -66t50 -190q0 -63 -10 -112.5t-35 -83t-67 -51.5t-106 -18t-106.5 17t-67.5 51t-35.5 83t-10.5 114q0 63 11.5 110.5t37 80t67.5 49t104 16.5zM264 75q39 0 62.5 11t37 33.5t18 56t4.5 78.5q0 90 -27.5 130.5t-94.5 40.5q-36 0 -60 -9.5t-38 -30 t-20 -53t-6 -78.5q0 -47 5 -80.5t18.5 -55.5t37.5 -32.5t63 -10.5zM221 744h76l128 -156h-103l-62 77l-63 -77h-103z" />
<glyph unicode="&#xf5;" horiz-adv-x="528" d="M264 510q118 0 168 -66t50 -190q0 -63 -10 -112.5t-35 -83t-67 -51.5t-106 -18t-106.5 17t-67.5 51t-35.5 83t-10.5 114q0 63 11.5 110.5t37 80t67.5 49t104 16.5zM264 75q39 0 62.5 11t37 33.5t18 56t4.5 78.5q0 90 -27.5 130.5t-94.5 40.5q-36 0 -60 -9.5t-38 -30 t-20 -53t-6 -78.5q0 -47 5 -80.5t18.5 -55.5t37.5 -32.5t63 -10.5zM430 658q-14 -16 -30 -28q-14 -11 -30.5 -19t-33.5 -8q-18 0 -38.5 7.5t-41 16.5t-38.5 16.5t-30 7.5q-10 0 -22.5 -6.5t-24.5 -14.5q-14 -10 -29 -21l-21 72q15 16 32 28q14 11 31 20t34 9q19 0 40.5 -7.5 t41.5 -16t37 -16t28 -7.5q8 0 21 6t25 14q14 9 28 20z" />
<glyph unicode="&#xf6;" horiz-adv-x="528" d="M264 510q118 0 168 -66t50 -190q0 -63 -10 -112.5t-35 -83t-67 -51.5t-106 -18t-106.5 17t-67.5 51t-35.5 83t-10.5 114q0 63 11.5 110.5t37 80t67.5 49t104 16.5zM264 75q39 0 62.5 11t37 33.5t18 56t4.5 78.5q0 90 -27.5 130.5t-94.5 40.5q-36 0 -60 -9.5t-38 -30 t-20 -53t-6 -78.5q0 -47 5 -80.5t18.5 -55.5t37.5 -32.5t63 -10.5zM113 723h90v-104h-90v104zM318 723h91v-104h-91v104z" />
<glyph unicode="&#xf7;" d="M215 520h96v-111h-96v111zM49 334h427v-96h-427v96zM215 163h96v-112h-96v112z" />
<glyph unicode="&#xf8;" horiz-adv-x="528" d="M264 510q18 0 35 -1.5t32 -5.5l42 103l60 -22l-42 -104q48 -29 69.5 -86t21.5 -140q0 -63 -10 -112.5t-35 -83t-67 -51.5t-106 -18q-20 0 -38 2t-34 5l-43 -106l-60 22l44 106q-51 30 -70 89t-19 147q0 63 11.5 110.5t37 80t67.5 49t104 16.5zM264 75q39 0 62.5 11 t37 33.5t18 56t4.5 78.5q0 49 -8 83t-26 55l-128 -314q18 -3 40 -3zM264 425q-36 0 -60 -9.5t-38 -30t-20 -53t-6 -78.5q0 -54 6.5 -90.5t26.5 -58.5l126 316q-13 4 -35 4z" />
<glyph unicode="&#xf9;" horiz-adv-x="559" d="M375 664l-34 -84l-231 89l35 88zM478 499l1 -499h-95l-1 29q-23 -11 -47 -20q-20 -8 -45 -14t-48 -6q-53 0 -86.5 13.5t-52.5 43.5t-25.5 77.5t-6.5 115.5v260h95v-259q0 -46 2.5 -77.5t12.5 -51t28 -28t50 -8.5q21 0 42.5 4.5t39.5 10.5q21 6 41 15v394h95z" />
<glyph unicode="&#xfa;" horiz-adv-x="559" d="M478 499l1 -499h-95l-1 29q-23 -11 -47 -20q-20 -8 -45 -14t-48 -6q-53 0 -86.5 13.5t-52.5 43.5t-25.5 77.5t-6.5 115.5v260h95v-259q0 -46 2.5 -77.5t12.5 -51t28 -28t50 -8.5q21 0 42.5 4.5t39.5 10.5q21 6 41 15v394h95zM372 758l33 -88l-234 -84l-30 79z" />
<glyph unicode="&#xfb;" horiz-adv-x="559" d="M478 499l1 -499h-95l-1 29q-23 -11 -47 -20q-20 -8 -45 -14t-48 -6q-53 0 -86.5 13.5t-52.5 43.5t-25.5 77.5t-6.5 115.5v260h95v-259q0 -46 2.5 -77.5t12.5 -51t28 -28t50 -8.5q21 0 42.5 4.5t39.5 10.5q21 6 41 15v394h95zM222 744h76l128 -156h-103l-62 77l-63 -77 h-103z" />
<glyph unicode="&#xfc;" horiz-adv-x="559" d="M478 499l1 -499h-95l-1 29q-23 -11 -47 -20q-20 -8 -45 -14t-48 -6q-53 0 -86.5 13.5t-52.5 43.5t-25.5 77.5t-6.5 115.5v260h95v-259q0 -46 2.5 -77.5t12.5 -51t28 -28t50 -8.5q21 0 42.5 4.5t39.5 10.5q21 6 41 15v394h95zM133 723h91v-104h-91v104zM339 723h90v-104 h-90v104z" />
<glyph unicode="&#xfd;" horiz-adv-x="483" d="M111 499l94 -351q9 -30 19.5 -43t24.5 -15l111 409h99l-134 -494q-13 -49 -29 -83t-41.5 -60.5t-64 -49.5t-95.5 -49l-23 89q40 20 66 34.5t43 29.5t27.5 34.5t18.5 49.5q-14 3 -29.5 12t-29.5 23t-24.5 33t-15.5 40l-106 391h89zM340 758l33 -88l-234 -84l-29 79z" />
<glyph unicode="&#xfe;" horiz-adv-x="538" d="M275 75q46 0 74 10.5t44 32.5t21.5 56.5t5.5 82.5q0 90 -23.5 128t-80.5 38q-21 0 -42.5 -3.5t-39.5 -7.5q-21 -4 -40 -10v-322q17 -2 32 -3q13 -1 26.5 -1.5t22.5 -0.5zM327 510q51 0 87 -13.5t58.5 -44t33 -78.5t10.5 -117q0 -76 -12 -127.5t-40.5 -82.5t-74.5 -44.5 t-113 -13.5q-19 0 -40.5 1.5t-41.5 2.5v-211h-95v930h95v-232q20 8 43 15q19 5 43 10t47 5z" />
<glyph unicode="&#xff;" horiz-adv-x="483" d="M111 499l94 -351q9 -30 19.5 -43t24.5 -15l111 409h99l-134 -494q-13 -49 -29 -83t-41.5 -60.5t-64 -49.5t-95.5 -49l-23 89q40 20 66 34.5t43 29.5t27.5 34.5t18.5 49.5q-14 3 -29.5 12t-29.5 23t-24.5 33t-15.5 40l-106 391h89zM94 723h90v-104h-90v104zM299 723h90 v-104h-90v104z" />
<glyph unicode="&#x152;" horiz-adv-x="944" d="M458 0q-31 -5 -69.5 -8t-66.5 -3q-80 0 -131 22.5t-80 67t-40.5 111t-11.5 155.5q0 93 13 161t43.5 112t81 65.5t125.5 21.5q28 0 66.5 -3t66.5 -8h423v-94h-327v-200h267v-93h-267v-213h327l1 -94h-421zM337 84q8 0 23 1t31.5 2t33.5 2.5t30 2.5v509q-13 1 -30 2.5 l-34 3t-32.5 2.5t-24.5 1q-52 0 -86 -14.5t-53.5 -46t-27.5 -81.5t-8 -122q0 -70 7 -120t26.5 -81.5t54 -46t90.5 -14.5z" />
<glyph unicode="&#x153;" horiz-adv-x="876" d="M617 76q29 0 61.5 1t59.5 3q32 2 63 5l2 -75q-34 -7 -68 -11q-29 -4 -64 -7t-67 -3q-59 0 -97.5 18.5t-61.5 53.5q-24 -36 -64 -54t-103 -18q-64 0 -106.5 17t-67.5 51t-35.5 83t-10.5 114q0 63 11.5 110.5t37 80t67.5 49t104 16.5q122 0 171 -80q26 43 68 61.5t96 18.5 q104 0 155.5 -55t51.5 -176l-6 -69h-318q0 -68 26.5 -101t94.5 -33zM278 75q39 0 62.5 11t37 33.5t18 56t4.5 78.5q0 90 -27.5 130.5t-94.5 40.5q-36 0 -60 -9.5t-38 -30t-20 -53t-6 -78.5q0 -47 5 -80.5t18.5 -55.5t37.5 -32.5t63 -10.5zM726 284q0 78 -26.5 110t-86.5 32 q-59 0 -88.5 -33.5t-29.5 -108.5h231z" />
<glyph unicode="&#x178;" horiz-adv-x="559" d="M329 0h-97l-1 297l-216 397h108l156 -288l154 288h109l-214 -397zM128 916h90v-104h-90v104zM339 916h91v-104h-91v104z" />
<glyph unicode="&#x2c6;" horiz-adv-x="247" d="M95 744h76l128 -156h-103l-62 77l-63 -77h-102z" />
<glyph unicode="&#x2dc;" horiz-adv-x="247" d="M303 658q-14 -16 -30 -28q-14 -11 -30 -19t-33 -8q-18 0 -39 7.5t-41 16.5t-38.5 16.5t-30.5 7.5q-10 0 -22.5 -6.5t-24.5 -14.5q-14 -10 -28 -21l-21 72q15 16 31 28q14 11 31 20t34 9q20 0 41 -7.5t41 -16t37 -16t28 -7.5q8 0 21 6t25 14q14 9 28 20z" />
<glyph unicode="&#x2000;" horiz-adv-x="479" />
<glyph unicode="&#x2001;" horiz-adv-x="958" />
<glyph unicode="&#x2002;" horiz-adv-x="479" />
<glyph unicode="&#x2003;" horiz-adv-x="958" />
<glyph unicode="&#x2004;" horiz-adv-x="319" />
<glyph unicode="&#x2005;" horiz-adv-x="239" />
<glyph unicode="&#x2006;" horiz-adv-x="159" />
<glyph unicode="&#x2007;" horiz-adv-x="159" />
<glyph unicode="&#x2008;" horiz-adv-x="119" />
<glyph unicode="&#x2009;" horiz-adv-x="191" />
<glyph unicode="&#x200a;" horiz-adv-x="53" />
<glyph unicode="&#x2010;" horiz-adv-x="440" d="M65 327h308v-92h-308v92z" />
<glyph unicode="&#x2011;" horiz-adv-x="440" d="M65 327h308v-92h-308v92z" />
<glyph unicode="&#x2012;" horiz-adv-x="440" d="M65 327h308v-92h-308v92z" />
<glyph unicode="&#x2013;" horiz-adv-x="500" d="M499 315v-86h-499v86h499z" />
<glyph unicode="&#x2014;" horiz-adv-x="1000" d="M999 315v-86h-999v86h999z" />
<glyph unicode="&#x2018;" horiz-adv-x="170" d="M98 495h-98l54 228h90z" />
<glyph unicode="&#x2019;" horiz-adv-x="170" d="M69 724h98l-54 -228h-90z" />
<glyph unicode="&#x201a;" horiz-adv-x="202" d="M113 -112h-97l53 228h90z" />
<glyph unicode="&#x201c;" horiz-adv-x="430" d="M335 495h-98l54 228h90zM174 495h-98l54 228h90z" />
<glyph unicode="&#x201d;" horiz-adv-x="435" d="M121 724h98l-54 -228h-90zM282 724h98l-54 -228h-90z" />
<glyph unicode="&#x201e;" horiz-adv-x="399" d="M306 -112h-98l54 228h90zM113 -112h-97l53 228h90z" />
<glyph unicode="&#x2022;" d="M142 388h244v-284h-244v284z" />
<glyph unicode="&#x2026;" horiz-adv-x="744" d="M74 132h103l1 -132h-103zM329 132h102l1 -132h-102zM583 132h103l1 -132h-103z" />
<glyph unicode="&#x202f;" horiz-adv-x="191" />
<glyph unicode="&#x2039;" horiz-adv-x="342" d="M143 248l120 -98v-98l-201 158v72l201 150v-97z" />
<glyph unicode="&#x203a;" horiz-adv-x="342" d="M77 341v97l201 -150v-72l-201 -158v98l119 98z" />
<glyph unicode="&#x205f;" horiz-adv-x="239" />
<glyph unicode="&#x20ac;" horiz-adv-x="568" d="M103 448q7 59 23 101.5t44.5 70.5t72 41t105.5 13q33 0 65 -3t57 -7q29 -4 55 -9l-4 -87q-29 2 -57 5q-24 2 -52 4t-52 2q-39 0 -66.5 -7.5t-45.5 -23.5t-28 -41t-15 -60h250v-75h-256q-1 -10 -1 -20.5v-21.5v-21.5t1 -20.5h256v-76h-250q5 -33 15 -57.5t28 -40t46 -23 t68 -7.5q22 0 49 1.5t52 3.5q28 3 58 6l3 -88q-28 -5 -58 -9q-26 -4 -57.5 -6.5t-60.5 -2.5q-64 0 -107.5 13.5t-72 41.5t-44 69.5t-21.5 98.5h-61v76h56v84h-56v76h61z" />
<glyph unicode="&#x2122;" d="M6 635h200v-60h-58v-243h-66v243h-76v60zM235 635h82l58 -192l62 192h81v-304h-62v208l-56 -191h-47l-56 191v-208h-62v304z" />
<glyph unicode="&#xe000;" horiz-adv-x="500" d="M0 500h500v-500h-500v500z" />
</font>
</defs>
</svg>
