<?xml version="1.0" standalone="no"?>
<!DOCTYPE svg PUBLIC "-//W3C//DTD SVG 1.1//EN" "http://www.w3.org/Graphics/SVG/1.1/DTD/svg11.dtd" >
<svg xmlns="http://www.w3.org/2000/svg">
<metadata></metadata>
<defs>
<font id="radleyregular" horiz-adv-x="702" >
<font-face units-per-em="2048" ascent="1638" descent="-410" />
<missing-glyph horiz-adv-x="734" />
<glyph unicode="&#xfb01;" horiz-adv-x="1248" d="M26 17q0 15 22.5 23.5t55.5 13t40 6.5q42 14 42 50v699h-143v59h143v97q0 87 30.5 152t87 104t129.5 57.5t164 18.5q304 0 387 -115q22 -31 22 -73q0 -56 -34.5 -90t-89.5 -36q-53 0 -87 34t-34 87q0 32 14 58q-8 94 -167 94q-63 0 -106 -22t-66.5 -65t-33.5 -96.5 t-10 -125.5v-79h614v-748q0 -27 19 -42.5t43 -19.5t55.5 -9.5t47.5 -12.5q13 -6 13 -18q0 -9 -4 -18h-561q-4 13 -4 17q0 7 3 12t10 9t13.5 7t17 5t17 3t17.5 2.5t15 2.5q41 6 66.5 20.5t25.5 47.5v683h-408v-699q0 -20 12 -32.5t32.5 -18t41 -8.5t44 -6.5t35.5 -9.5 q13 -6 13 -18q0 -2 -4 -17h-536q-4 15 -4 17z" />
<glyph unicode="&#xfb02;" horiz-adv-x="1210" d="M26 17q0 15 22.5 23.5t55.5 13t40 6.5q42 14 42 50v699h-143v59h143v97q0 161 79 246.5t232 85.5q131 0 199 -40l327 57l1 -1194q0 -27 19 -42.5t43 -19.5t55.5 -9.5t47.5 -12.5q13 -6 13 -18q0 -9 -4 -18h-560q-4 13 -4 17q0 5 2 9.5t6 8t9 6t11.5 5t12.5 4t14 3t13 2 t13 1.5t11 2q41 5 66.5 20t25.5 48l-1 996q0 35 -63 56q1 -7 1 -14q0 -44 -26.5 -70t-73.5 -26q-40 0 -63.5 22t-23.5 60q0 12 7 34.5t7 32.5q0 24 -19.5 31.5t-54.5 7.5q-30 0 -50 -10.5t-31.5 -32.5t-16.5 -44t-10 -57q-8 -62 -8 -165v-79h211v-59h-211v-699 q0 -20 12 -32.5t32.5 -18t41 -8.5t44 -6.5t35.5 -9.5q13 -6 13 -18q0 -2 -4 -17h-536q-4 15 -4 17z" />
<glyph unicode="&#xfb03;" horiz-adv-x="1870" d="M26 17q0 12 15 20t33.5 11t40.5 6t29 6q42 14 42 50v699h-143v59h143v97q0 224 228 303q82 29 173 29q98 0 177.5 -19.5t113.5 -65.5q109 85 304 85q304 0 387 -116q22 -30 22 -72q0 -27 -9 -50.5t-25.5 -40t-39.5 -26t-50 -9.5q-26 0 -48.5 9t-38.5 25t-25 38.5t-9 48.5 q0 32 14 58q-8 94 -167 94q-63 0 -106 -22t-66.5 -65t-33.5 -96.5t-10 -125.5v-79h614v-748q0 -27 19 -42.5t43 -19.5t55.5 -9.5t47.5 -12.5q13 -6 13 -18q0 -9 -4 -18h-561q-4 13 -4 17q0 7 3 12t10 9t13.5 7t17 5t17 3t17.5 2.5t14 2.5q19 2 33.5 6t29 11.5t22.5 20.5 t8 30v683h-408v-699q0 -25 19.5 -38.5t44 -17l56 -8t45.5 -11.5q13 -6 13 -18q0 -2 -4 -17h-536q-4 15 -4 17q0 15 22.5 23.5t55.5 13t40 6.5q42 14 42 50v699h-379v-699q0 -20 12 -32.5t32.5 -18t41 -8.5t44 -6.5t35.5 -9.5q13 -6 13 -18q0 -2 -4 -17h-536q-4 15 -4 17z M392 868h379v97q0 60 13 103q-35 4 -55.5 25.5t-20.5 56.5q0 12 7 34.5t7 32.5q0 12 -13.5 20.5t-35 12t-39.5 5t-36 1.5q-73 0 -116 -38t-68 -107q-22 -61 -22 -164v-79z" />
<glyph unicode="&#xfb04;" horiz-adv-x="1914" d="M26 17q0 15 22.5 23.5t55.5 13t40 6.5q42 14 42 50v699h-143v59h143v97q0 224 228 304q82 28 173 28q98 0 178 -20t114 -66q108 86 304 86q304 0 387 -115q22 -31 22 -73q0 -12 -2 -24v-217h2v-748q0 -27 19 -42.5t43 -19.5t55.5 -9.5t47.5 -12.5q13 -6 13 -18 q0 -9 -4 -18h-561q-4 12 -4 14v3q0 13 15.5 22t33 12.5t42 6.5t32.5 6q61 15 61 62l-1 683h-406v-699q0 -20 12 -32.5t32.5 -18t41 -8.5t44 -6.5t35.5 -9.5q13 -6 13 -18q0 -2 -4 -17h-536q-4 15 -4 17q0 15 22.5 23.5t55.5 13t40 6.5q42 14 42 50v699h-380v-699 q0 -20 12 -32.5t32.5 -18t41 -8.5t44 -6.5t35.5 -9.5q13 -6 13 -18q0 -2 -4 -17h-536q-4 15 -4 17zM392 868h380v97q0 60 13 103q-36 3 -56.5 24.5t-20.5 57.5q0 12 7 34.5t7 32.5q0 12 -13.5 20.5t-35 12t-39.5 5t-36 1.5q-73 0 -116 -38t-68 -106q-22 -62 -22 -165v-79z M978 868h406v148q0 25 6 71.5t6 68.5q0 20 -6 35.5t-15.5 26t-26 18t-31.5 11.5t-38.5 6t-41 2.5t-43.5 0.5q-63 0 -106 -22t-66.5 -65t-33.5 -96.5t-10 -125.5v-79z" />
<glyph horiz-adv-x="2048" />
<glyph horiz-adv-x="2048" />
<glyph unicode="&#xd;" horiz-adv-x="1364" />
<glyph unicode=" "  horiz-adv-x="734" />
<glyph unicode="&#x09;" horiz-adv-x="734" />
<glyph unicode="&#xa0;" horiz-adv-x="734" />
<glyph unicode="!" d="M222 1026q-6 37 -1 65.5t20 47t41 28t63 9.5q69 0 103 -35.5t25 -105.5l-25 -163q-5 -42 -13 -96q-7 -38 -21 -122t-24.5 -149t-17.5 -122q-4 -27 -23 -27q-16 0 -21.5 12t-8.5 35v4l-5 43q-8 58 -18 119q-5 34 -16.5 96.5t-20 114t-13.5 95.5zM228 92q0 53 34 88.5 t87 35.5q54 0 89 -35t35 -89q0 -53 -35 -87t-89 -34q-53 0 -87 34t-34 87z" />
<glyph unicode="&#x22;" d="M124 1055q-7 63 16 92t84 29t84 -29t16 -92l-50 -269q-1 -6 -4.5 -25t-5 -26.5t-5 -19.5t-7.5 -21q-8 -18 -28 -18q-13 0 -20.5 7.5t-10 15t-6.5 23.5q-1 3 -1 5q-5 22 -12 59zM382 1055q-7 63 16 92t84 29t84 -29t16 -92l-50 -269q-1 -6 -4.5 -25t-5 -26.5t-5 -19.5 t-7.5 -21q-8 -18 -28 -18q-13 0 -20.5 7.5t-10 15t-6.5 23.5q-1 3 -1 5q-5 22 -12 59z" />
<glyph unicode="#" horiz-adv-x="1230" d="M147 447q0 13 4.5 23t14.5 15.5t19.5 9t26.5 5t27 1.5h30h16h78l48 173h-68q-8 0 -29 -0.5t-29.5 0t-25 1.5t-24 5t-17 10t-13 16.5t-3.5 24.5q0 13 4.5 23t14.5 15.5t19.5 9t26.5 5t27 1.5h30h16h102l83 294q36 125 45 237q0 46 84 46q65 0 65 -53q0 -8 0.5 -19t0 -15 t-2.5 -13.5t-6 -23.5q-12 -33 -48.5 -137t-59 -171.5t-45.5 -144.5h269l42 177q19 81 33 144l22 107q2 13 5.5 37t6 36.5t8.5 29.5t15.5 25.5t26 14.5t40.5 6q68 0 74 -53q3 -11 0.5 -30t-3.5 -29t-6 -28t-8.5 -28t-10.5 -29.5t-11 -31.5q-44 -132 -112 -348h66h15h30.5 t28 -1.5t27 -5t20 -9t15 -15t4.5 -22.5q0 -11 -2 -19.5t-8 -14.5t-11 -10.5t-15 -7t-17 -4t-20.5 -2t-20.5 -0.5h-23h-23h-99q-24 -85 -48 -173h92h25.5t24 -0.5t24.5 -2t21 -4.5t19 -7.5t13.5 -10.5t10.5 -15t3 -20q0 -13 -4 -22.5t-13 -15t-17.5 -9t-23.5 -4.5t-25.5 -1 t-29.5 0.5t-28 0.5h-120q-74 -292 -117 -539q-17 -90 -92 -90q-17 0 -31.5 11t-22 28.5t-10.5 38t3 39.5l153 512h-273l-59 -252q-30 -134 -59 -289q-5 -27 -13.5 -45t-26 -30.5t-43.5 -12.5q-34 0 -52.5 39t-8.5 78l144 512h-44q-8 0 -29 -0.5t-29.5 0t-25 1.5t-24 5 t-17 10t-13 16.5t-3.5 24.5zM478 501h276q23 90 45 173h-274q-23 -83 -47 -173z" />
<glyph unicode="$" horiz-adv-x="1040" d="M82 80l21 286q17 5 21 5q30 0 44 -89q6 -49 33 -90.5t67 -70t86 -47.5t97 -29l7 457l-139 79q-110 62 -162.5 137.5t-52.5 167.5q0 77 28.5 136.5t80 96t115 56.5t141.5 25q-1 61 -1 103v21.5t0.5 20t2 21t3.5 17.5t5.5 16.5t8.5 11.5t12 8.5t16 2.5q11 0 19 -5.5t13 -17 t8 -22t4 -29t1 -29v-29.5v-12v-39q0 -19 -1 -38q154 -8 280 -63l30 -257q-18 -5 -27 -5q-36 0 -57 85q-15 75 -76.5 118.5t-150.5 56.5q-6 -198 -9 -404l154 -91q70 -41 113.5 -74.5t74.5 -77.5q48 -66 48 -170q0 -86 -30 -151.5t-84.5 -106t-124.5 -62.5t-156 -26v-98 q0 -28 -4 -46t-13 -31t-25 -23q-17 -10 -35.5 12t-19.5 72l2 115q-103 6 -200 34.5t-168 71.5zM261 990q1 -50 29.5 -84.5t77.5 -63.5l95 -57l6 351v2q-65 -5 -115 -28t-76 -62q-17 -26 -17 -58zM545 36q64 0 113 19.5t78.5 62.5t29.5 104q0 32 -9.5 58.5t-29 47.5t-36 34 t-44.5 31q-42 26 -100 59q-2 -176 -2 -416z" />
<glyph unicode="%" horiz-adv-x="1500" d="M99 815q0 123 47.5 215.5t130.5 138.5q59 33 138 33q154 0 247 -131q39 -55 62 -128.5t23 -155.5q0 -80 -20.5 -148t-58.5 -117t-91 -80q-57 -33 -133 -36q-65 0 -120 20.5t-94 57t-66.5 82t-42.5 100.5q-22 73 -22 149zM252 823q0 -67 11 -126t35.5 -108.5t59.5 -78.5 q36 -30 84 -30q44 0 75.5 27.5t47.5 74t23 94t7 99.5q0 106 -27 195t-79 136q-35 32 -81 32q-74 0 -116 -97q-40 -89 -40 -218zM473 -164q0 21 9 44l514 1164l18 50q40 115 52 199q4 30 25 49.5t55 19.5q80 0 79 -59q-1 -15 -1 -27q0 -13 -24 -65q-53 -107 -170 -354 l-125 -279q-155 -354 -285 -736q-13 -40 -35.5 -60.5t-64.5 -20.5q-16 0 -27 11.5t-15.5 28t-4.5 35.5zM988 392q0 123 47.5 215.5t130.5 138.5q59 33 138 33q154 0 247 -131q39 -55 62 -128.5t23 -155.5q0 -120 -45 -209.5t-125 -135.5q-57 -33 -133 -36q-65 0 -120 20.5 t-94 57t-66.5 82t-42.5 100.5q-22 73 -22 149zM1141 400q0 -67 11 -126t35.5 -108.5t59.5 -78.5q36 -30 84 -30q44 0 75.5 27.5t47.5 74t23 94t7 99.5q0 106 -27 195t-79 136q-35 32 -81 32q-74 0 -116 -97q-40 -89 -40 -218z" />
<glyph unicode="&#x26;" horiz-adv-x="1309" d="M62 272q0 30 3.5 57.5t10 51.5t15 46.5t20.5 42t25 37.5t29 34.5t31.5 31t34.5 28.5t36.5 25.5t37.5 24.5q-46 84 -73 168q-26 78 -26 145q0 243 328 243q120 0 191 -59t71 -172q0 -47 -23 -80.5t-62 -64.5q-38 -30 -87 -56l-100 -54q-10 -6 -18 -10q120 -186 302 -345 q32 -28 63 -52q32 65 61 153q44 131 74 302q6 9 6 17q0 3 -1 5.5t-3 4.5t-4.5 4t-6 4t-6.5 3t-7 3t-6.5 2.5t-7 2t-6.5 1.5l-40 14l-4.5 1.5t-5.5 2t-5 2t-6 2.5l-5 2.5t-4.5 3l-3.5 3.5t-2.5 4t-0.5 4q0 1 3 13h380q2 -5 2 -9v-6q0 -14 -43 -23l-41 -9q-19 -3 -31.5 -6.5 t-28.5 -10t-26 -16t-14 -21.5l-74 -244q-48 -149 -95 -245q77 -53 153 -84q63 -25 117 -25q82 3 89 53l23 -16q0 -76 -29.5 -133t-81.5 -83q-33 -17 -80 -17q-73 1 -139 29.5t-141 77.5q-14 9 -29 19q-122 -126 -340 -126q-131 0 -228 45t-141 129q-30 56 -30 125zM253 409 q0 -163 81 -253t239 -90q73 0 138 46q18 12 35 27q-182 140 -340 356q-38 51 -69 101q-38 -38 -61 -82q-23 -46 -23 -105zM384 1017q0 -43 14 -90.5t29.5 -79.5t41.5 -77q6 -10 12 -21q113 62 159 133q26 40 26 93q0 169 -132 169q-150 0 -150 -127z" />
<glyph unicode="'" d="M274 1055q-7 63 16 92t84 29t84 -29t16 -92l-50 -269q-1 -6 -4.5 -25t-5 -26.5t-5 -19.5t-7.5 -21q-8 -18 -28 -18q-13 0 -20.5 7.5t-10 15t-6.5 23.5q-1 3 -1 5q-5 22 -12 59z" />
<glyph unicode="(" horiz-adv-x="657" d="M93 636q0 239 75.5 422.5t217.5 276.5q58 39 129 56q12 3 21.5 -1t14 -13.5t4.5 -21.5q0 -8 -1.5 -13.5t-2.5 -8.5t-6 -6.5t-6.5 -4.5t-9 -4t-9.5 -4q-57 -25 -104 -72.5t-79.5 -110t-54 -130.5t-34.5 -146q-18 -108 -18 -219q0 -179 42 -329t122 -249q65 -82 140 -105 q21 -7 21 -36q0 -19 -10.5 -30t-29.5 -6q-60 15 -112 44.5t-91.5 68.5t-73 89.5t-57 104t-41.5 115.5q-47 155 -47 333z" />
<glyph unicode=")" horiz-adv-x="657" d="M93 -83q0 6 0.5 11t3 9t3.5 6t5.5 4.5t6.5 3.5t8 3.5t8 3.5q57 25 104 72.5t79.5 110t54 130.5t34.5 146q18 108 18 219q0 179 -42 329t-122 249q-65 82 -140 105q-21 7 -21 36q0 19 10.5 30t29.5 6q268 -65 375 -422q47 -154 47 -333q0 -189 -48.5 -344t-138.5 -262 q-99 -116 -235 -149q-12 -3 -21.5 1t-14 13.5t-4.5 21.5z" />
<glyph unicode="*" horiz-adv-x="1227" d="M131 798q0 23 10.5 44.5t29.5 35t40 13.5q34 0 69 -26l39 -28q22 -15 54 -35q63 -38 192 -115q-2 173 -25 347q-4 30 -4 53q0 89 82 89q80 0 80 -74q0 -19 -3 -41.5t-8 -52.5t-7 -48q-19 -146 -22 -275q132 77 194 116q62 40 95 64q35 26 69 26q32 0 56 -29t24 -64 q0 -8 -2 -15.5t-4.5 -12.5t-9 -10t-10 -8t-12.5 -6.5t-13 -5t-14.5 -5t-14.5 -4.5l-74 -26q-120 -41 -252 -102q97 -106 154 -164q59 -58 89 -85q7 -6 13.5 -14t13 -17.5t10.5 -21.5t4 -23q0 -30 -28.5 -57.5t-58.5 -27.5q-27 0 -43.5 20t-41.5 63q-82 144 -189 276 q-117 -144 -190 -276q-1 -4 -8.5 -18t-11 -19.5t-11 -16.5t-14 -16t-17 -9t-21.5 -4q-24 0 -44.5 16.5t-33.5 38.5q-9 15 -9 30q0 21 12.5 41.5t28.5 34.5q29 27 87 85q59 60 155 164q-135 63 -251 102l-75 26q-2 1 -15.5 5t-17 6t-14 6.5t-14 8t-9 10t-7.5 14t-2 17.5z" />
<glyph unicode="+" horiz-adv-x="705" d="M50 448q0 27 11 35.5t41 12.5q24 2 66 2h133v129q0 7 -0.5 20.5t-0.5 22t0.5 20.5t2 20t4.5 16t7.5 13t11.5 7q10 2 28 2q27 0 35.5 -11t12.5 -41q2 -24 2 -66v-132h130h9q31 0 48.5 -1t37 -8t23.5 -22q3 -10 3 -25q0 -29 -10.5 -37t-43.5 -9q-24 -1 -67 -1h-130v-131v-9 q0 -31 -1 -48.5t-8 -37t-22 -23.5q-10 -3 -25 -3q-28 0 -36.5 10.5t-9.5 42.5q-1 24 -1 68v131h-130q-7 0 -20.5 -0.5t-22 -0.5t-20.5 0.5t-20 2t-16 4.5t-13 7.5t-7 11.5q-2 10 -2 28z" />
<glyph unicode="," d="M198 132q0 43 20 76.5t55 52.5t78 19q166 0 166 -222q0 -87 -43.5 -150.5t-110.5 -93.5q-113 -51 -124 12q-1 8 1 14t7 10.5t9 7t11 5.5l31 14q66 30 66 107q-75 0 -120.5 39t-45.5 109z" />
<glyph unicode="-" horiz-adv-x="0" d="M267 442q0 8 2.5 15t8 11.5t11 8t15.5 5.5t16.5 3t19.5 1.5t19.5 0.5h20.5h19h315h8h29.5t28 -1.5t27.5 -4.5t21 -8.5t16 -14.5t5 -21q0 -11 -4 -19t-13 -12.5t-18 -7.5t-23 -3.5t-24.5 -0.5t-27 0.5t-25.5 0.5h-312q-6 0 -26 -0.5t-27.5 0t-24 1.5t-24 4t-16.5 8t-13 14 t-4 20z" />
<glyph unicode="." d="M198 132q0 47 26.5 82.5t66.5 53.5q28 12 60 12q34 0 63 -13t47.5 -33.5t30.5 -46.5q12 -27 12 -55q0 -47 -27 -82.5t-66 -53.5q-28 -12 -60 -12q-65 0 -109 42t-44 106z" />
<glyph unicode="/" horiz-adv-x="822" d="M125 -12l470 1091q6 16 22.5 57t28.5 73.5t20 60.5q10 31 10 46q0 25 27 35.5t64 10.5q32 0 49 -12.5t16 -40.5v-26t-16 -43q-152 -284 -281.5 -598t-262.5 -700q-13 -38 -36 -54.5t-68 -16.5q-23 0 -37 20.5t-13.5 46.5t7.5 50z" />
<glyph unicode="0" horiz-adv-x="1116" d="M66 566q0 177 60.5 316.5t164.5 223.5q120 96 278 96q82 0 153.5 -25.5t121.5 -65t89 -94.5q58 -78 91.5 -183t33.5 -225q0 -226 -94 -384.5t-262 -216.5q-73 -25 -161 -25q-116 4 -205 54.5t-150 132.5q-56 76 -88 177.5t-32 218.5zM282 628q0 -169 44 -305t130 -208 q58 -49 137 -49q121 0 189 148q62 134 62 334q0 155 -35.5 287t-102.5 215q-73 90 -168 90q-118 0 -191 -158q-31 -69 -48 -162t-17 -192z" />
<glyph unicode="1" horiz-adv-x="664" d="M38 1048q0 6 5 18l366 106q22 6 22 -13v-1030q0 -33 21 -50t47.5 -19t64 -6t57.5 -12q15 -7 15 -23q0 -4 -5 -19h-588q-4 13 -4 17q0 10 6.5 16.5t20 10.5t23.5 5.5t27.5 3.5t21.5 3q22 2 37 6.5t30.5 12.5t24 22t8.5 33v800q0 29 -21.5 47t-48 24t-62.5 12.5t-53 14.5 q-15 6 -15 20z" />
<glyph unicode="2" horiz-adv-x="782" d="M14 1039q0 14 7 21q54 67 138.5 107t187.5 40q121 0 207.5 -53.5t128.5 -145.5q31 -66 31 -156q0 -112 -83 -255q-62 -105 -182 -238q-117 -126 -265 -245l345 18q43 2 66.5 12t36.5 36q6 14 25.5 76.5t39.5 83.5q9 10 17 10q3 0 5.5 -0.5t6.5 -1.5l8 -2l-23 -345 q-3 -1 -18 -1t-58 0.5t-68 0.5q-40 0 -130 0.5t-134 0.5h-141q-69 0 -124 -2l-15 52q194 209 334 426q93 144 134 272q21 66 21 124q0 72 -22.5 122.5t-69 78t-115.5 27.5q-135 0 -249 -79q-14 -11 -25 -11q-17 0 -17 27z" />
<glyph unicode="3" horiz-adv-x="918" d="M52 171q0 44 30.5 75t73.5 31q36 0 63.5 -27t27.5 -63q0 -16 -10 -43t-10 -40q0 -25 30.5 -43t65.5 -25.5t66 -7.5q84 0 146 40t92.5 106.5t30.5 152.5q0 88 -25.5 155t-83 107.5t-140.5 40.5q-50 0 -100 -13l-45 52q198 67 295 178q55 62 55 133q0 133 -142 133 q-79 0 -180 -45q-45 -20 -86 -45q-14 -11 -25 -11q-17 0 -17 27q0 14 7 21q52 66 136 106.5t188 40.5q122 0 197.5 -57t75.5 -166q0 -90 -49.5 -154.5t-125.5 -102.5q-57 -28 -130 -34h21q176 0 275 -94.5t99 -268.5q0 -63 -19 -116t-53.5 -92.5t-77 -68.5t-94.5 -49 q-84 -32 -202 -32q-116 0 -208 31t-133 95q-19 31 -19 73z" />
<glyph unicode="4" horiz-adv-x="909" d="M19 330l474 855q98 17 204 17v-806h133q18 0 25.5 -28t4 -56.5t-14.5 -28.5h-148l1 -173q0 -25 18.5 -39.5t42 -18.5t54.5 -8.5t45 -10.5q13 -6 13 -17q0 -8 -4 -16h-538q-4 12 -4 16q0 9 5.5 15t18.5 10t21 5.5t25 3.5t19 3q19 2 32 5.5t28 10t22.5 18.5t7.5 28v168 h-471zM130 396h374v652z" />
<glyph unicode="5" horiz-adv-x="1112" d="M226 172q0 29 14 53t38 38.5t52 14.5q36 0 63.5 -27t27.5 -63q0 -16 -10 -43t-10 -40q0 -25 30.5 -43t65.5 -25.5t66 -7.5q53 0 97 18.5t74.5 50.5t51 71t32.5 85q14 57 14 106q0 130 -67 203t-195 73q-32 0 -61 -4t-59.5 -15t-46.5 -17.5t-51 -23t-44 -20.5 q-14 -7 -27.5 -0.5t-13.5 20.5v625h657l-36 -135h-546l1 -409q130 78 283 78q190 0 298 -96t108 -276q0 -143 -104 -258q-121 -132 -342 -132q-116 0 -208 31t-133 95q-19 31 -19 73z" />
<glyph unicode="6" horiz-adv-x="1112" d="M115 475q0 263 168 499q108 153 258 226q61 30 177 48q9 2 18 2q28 0 28 -28q0 -19 -20 -26q-132 -36 -253 -201q-122 -166 -155 -356q160 60 290 60q191 0 298.5 -89.5t107.5 -266.5q0 -61 -18 -114.5t-49.5 -93.5t-71.5 -69.5t-89 -49.5q-78 -33 -186 -33 q-183 0 -304 80.5t-169 223.5q-30 89 -30 188zM326 524q0 -146 36.5 -259t112.5 -170q51 -39 124 -39q46 0 84 17t64.5 46.5t44 64t27.5 75.5q14 54 14 105q0 129 -67.5 200.5t-195.5 71.5q-21 0 -41.5 -2t-40.5 -7t-34.5 -9t-35 -12.5t-30.5 -13t-32 -15t-29 -13.5 q-1 -11 -1 -20v-20z" />
<glyph unicode="7" horiz-adv-x="870" d="M89 855l23 345q3 1 18 1q41 0 137.5 -1t147.5 -1h157q173 0 283 2l15 -52q-116 -234 -216 -557l-54 -183q-58 -204 -105 -409h-210q58 207 128 407l65 177q124 325 248 513l-432 -28q-60 -2 -84 -24.5t-38 -80.5q-18 -72 -46 -103q-9 -10 -17 -10q-3 0 -5.5 0.5t-6.5 1.5 z" />
<glyph unicode="8" horiz-adv-x="953" d="M40 275q0 104 81 196q58 66 186 152q-72 53 -121 104.5t-74 117.5q-17 45 -17 98q0 41 11.5 76t31.5 60.5t48 47t58.5 35.5t66.5 24q71 21 163 21q114 0 195.5 -40.5t112.5 -116.5q17 -41 17 -78q0 -77 -32 -131.5t-89 -103.5q-36 -32 -78 -64q27 -17 47.5 -30.5 t44.5 -31t43.5 -34t40 -37t36.5 -41t30.5 -45.5t25.5 -52q25 -60 25 -138q0 -196 -230 -266q-86 -26 -216 -26q-135 0 -234 48.5t-145 136.5q-28 55 -28 118zM172 277q0 -78 37.5 -132t101.5 -79t151 -25q74 0 126 29t78.5 81.5t26.5 125.5q0 31 -13 60t-28 47t-39 40 q-36 33 -83 64l-98 64l-99 -66q-103 -71 -140 -134q-21 -35 -21 -75zM273 997q0 -75 62 -139q49 -51 149 -112q37 24 53 35.5t45 34.5t46.5 45.5t29.5 49.5q13 30 13 67q0 166 -197 166q-90 0 -145.5 -36.5t-55.5 -110.5z" />
<glyph unicode="9" horiz-adv-x="1052" d="M35 842q0 119 63 202t165 126q78 32 186 32q130 0 227.5 -40.5t158.5 -116.5t91 -180.5t30 -237.5q0 -225 -168 -419q-154 -179 -408 -276q-17 -8 -34 -3.5t-14 27.5q4 25 21 33q117 44 227 200q114 160 149 346q-126 -49 -288 -49q-191 0 -298.5 89.5t-107.5 266.5z M234 821q0 -129 67.5 -200.5t195.5 -71.5q117 0 210 42q20 9 31 13q3 28 3 57q0 96 -15 176t-48.5 147t-85.5 106q-51 39 -124 39q-46 0 -84 -17t-64.5 -46.5t-44 -64t-27.5 -75.5q-14 -54 -14 -105z" />
<glyph unicode=":" d="M198 132q0 47 26.5 82.5t66.5 53.5q28 12 60 12q50 0 86.5 -26.5t54.5 -66.5q12 -27 12 -55q0 -47 -27 -82.5t-66 -53.5q-28 -12 -60 -12q-65 0 -109 42t-44 106zM198 1017q0 24 7.5 46t21 39t29.5 29.5t35 20.5q28 13 60 13q50 0 86.5 -26.5t54.5 -66.5q12 -27 12 -55 q0 -47 -27 -82.5t-66 -53.5q-28 -12 -60 -12q-65 0 -109 42t-44 106z" />
<glyph unicode=";" d="M198 132q0 43 20 76.5t55 52.5t78 19q166 0 166 -222q0 -87 -43.5 -150.5t-110.5 -93.5q-113 -51 -124 12q-1 8 1 14t7 10.5t9 7t11 5.5l31 14q66 30 66 107q-75 0 -120.5 39t-45.5 109zM198 1017q0 47 26.5 82.5t66.5 52.5q28 13 60 13q50 0 86.5 -26.5t54.5 -66.5 q12 -27 12 -55q0 -47 -27 -82.5t-66 -53.5q-28 -12 -60 -12q-65 0 -109 42t-44 106z" />
<glyph unicode="&#x3c;" horiz-adv-x="938" d="M80 553l355 471q31 44 50 44q30 0 51.5 -16.5t21.5 -42.5q0 -17 -28 -54l-319 -402l309 -429q8 -12 11 -17.5t6 -15t3 -22.5q0 -22 -12 -36.5t-33 -14.5q-30 0 -44.5 8.5t-31.5 32.5z" />
<glyph unicode="=" horiz-adv-x="0" d="M267 442q0 8 2.5 15t8 11.5t11 8t15.5 5.5t16.5 3t19.5 1.5t19.5 0.5h20.5h19h315h8h25t24.5 -1t24.5 -3t20.5 -5.5t17.5 -8.5t10.5 -13.5t4.5 -18.5q0 -11 -4 -19t-13 -12.5t-18 -7.5t-23 -3.5t-24.5 -0.5t-27 0.5t-25.5 0.5h-312q-6 0 -26 -0.5t-27.5 0t-24 1.5t-24 4 t-17 8t-13 14t-3.5 20zM267 684q0 8 2.5 15t8 11.5t11 8t15.5 5.5t16.5 3t19.5 1.5t19.5 0.5h20.5h19h315h8h29.5t28 -1.5t27.5 -4.5t21 -8.5t16 -14.5t5 -21q0 -11 -4 -19t-13 -12.5t-18 -7.5t-23 -3.5t-24.5 -0.5t-27 0.5t-25.5 0.5h-312h-18.5t-18.5 -0.5t-18 0t-18.5 1 t-16.5 2t-15 4t-12 6t-9.5 8.5t-6 11.5t-2.5 14.5z" />
<glyph unicode="&#x3e;" horiz-adv-x="938" d="M400 1009q0 26 21.5 42.5t51.5 16.5q19 0 50 -44l355 -471l-339 -494q-12 -17 -20.5 -25t-21.5 -12t-34 -4t-33 14.5t-12 36.5q0 18 4.5 28t15.5 27l309 429l-319 402q-28 37 -28 54z" />
<glyph unicode="?" horiz-adv-x="856" d="M80 1008q0 52 27.5 91t73.5 61t98.5 32t110.5 10q115 0 209 -35.5t143 -100.5q34 -44 34 -102q0 -125 -98 -224q-31 -30 -83.5 -69t-98 -76.5t-73.5 -77t-28 -91.5q0 -32 12 -68h-91q-33 50 -33 101q0 35 15 71t30 57.5t41 52.5q21 26 56 63.5t61 65.5t55 66t48 75 q24 47 24 98q0 49 -31 82.5t-75.5 47t-99.5 13.5q-100 0 -139 -44q-13 -14 -13 -32q0 -13 10 -40t10 -43q0 -36 -27.5 -63t-63.5 -27q-43 0 -73.5 31t-30.5 75zM249 121q0 54 34 89t87 35q54 0 89 -35t35 -89q0 -53 -35 -87t-89 -34q-53 0 -87 34t-34 87z" />
<glyph unicode="@" horiz-adv-x="1816" d="M166 518q0 318 199 548q102 119 252 187t347 68q127 0 234.5 -26t191 -75.5t146.5 -117.5t108 -154q77 -153 77 -328q0 -155 -64.5 -276.5t-167.5 -181.5q-65 -38 -128 -38q-150 0 -215 191q-44 -63 -114 -101t-159 -38q-71 0 -129.5 24.5t-98 64.5t-63.5 93 q-27 60 -27 139q0 169 65 301t176 202q81 50 190 50q116 0 188 -62.5t105 -168.5q24 -79 24 -188v-320q0 -55 21 -96t60 -41q56 0 96 90q47 111 47 303q0 168 -46.5 301.5t-129.5 225.5q-35 39 -75.5 69.5t-89.5 54.5t-106.5 37t-119.5 13q-233 0 -401 -177 q-87 -92 -135 -224.5t-48 -300.5q0 -144 31 -253.5t95 -187.5t167.5 -118t244.5 -40q119 0 239 36l2 -73q-147 -49 -297 -49q-203 0 -356 79t-239 215q-97 151 -97 343zM727 513q0 -85 24.5 -149t72.5 -97q34 -23 83 -23q118 0 233 107v282q0 186 -51 288q-46 90 -120 90 q-92 0 -163 -132q-79 -146 -79 -366z" />
<glyph unicode="A" horiz-adv-x="1319" d="M15 18q0 6 2.5 11.5t8 9.5t11 6.5t14.5 5t14.5 3.5t15 3t13.5 3q84 17 102 70l359 968q25 72 43 101q16 27 43 27q5 0 9 -1t7.5 -4.5t6 -5.5t6 -7.5t5 -8t5.5 -9.5t4 -9q13 -22 30 -64l394 -993q5 -14 15 -24.5t19.5 -16.5t27 -12t27.5 -8t33 -6.5t31 -6.5q43 -9 43 -33 q0 -4 -4 -17h-594q-5 10 -5 18q0 15 34 26t76.5 18.5t50.5 10.5q19 9 19 30q0 12 -6 27l-127 384h-329l-143 -390q-4 -11 -4 -24q0 -10 5 -18t11.5 -12t18.5 -7.5t20 -4.5t22 -2q3 -1 14 -2t15.5 -1.5t14.5 -2t15.5 -2t14.5 -2t14.5 -2.5t13.5 -3t14 -4t12.5 -4t12.5 -5 q4 -3 4 -11q0 -5 -4 -17h-471q-4 8 -4 18zM439 574h286l-152 407z" />
<glyph unicode="B" horiz-adv-x="1286" d="M11 18q0 8 4 13.5t11.5 9.5t15 6.5t19.5 3.5t20 2t20.5 1.5t17.5 0.5q49 3 78.5 19.5t29.5 55.5v890q0 20 -9.5 35.5t-27.5 25.5t-33 15t-38 11l-51 13q-17 5 -25.5 8t-19.5 11.5t-11 19.5q0 2 4 17h534q97 0 173.5 -7t151.5 -24t131 -51t90 -83q43 -63 43 -148 q0 -78 -47.5 -131.5t-119.5 -85.5q-54 -24 -122 -34q80 -8 147.5 -31.5t119.5 -65t79 -97.5q24 -49 24 -100q0 -136 -119 -218q-144 -100 -443 -100h-642q-5 10 -5 18zM442 130q0 -19 6.5 -33t19 -22t30.5 -9l157 -6q122 -4 207.5 32.5t121.5 113.5q20 44 20 92 q0 91 -52.5 154t-133.5 97q-60 25 -136 27l-240 6v-452zM442 636l238 6q95 3 165.5 39.5t101.5 100.5q20 39 20 80q0 51 -18.5 91t-53.5 67t-74 44t-91 30q-90 22 -230 22q-38 0 -48 -16t-10 -60v-404z" />
<glyph unicode="C" horiz-adv-x="1168" d="M62 590q0 104 26 192.5t73.5 155t108.5 115t138 83.5q147 66 326 66t333 -64l31 -270q-22 -4 -25 -4q-28 0 -58 67q-3 6 -3 7l-25 58q-29 71 -106.5 107.5t-180.5 36.5q-62 0 -119.5 -19t-99.5 -48.5t-77 -68.5q-60 -67 -94 -160.5t-34 -207.5q0 -253 122 -391.5 t362 -138.5q156 0 334 60q6 0 9.5 -6t3.5 -12q0 -7 -5 -10q-209 -166 -465 -166q-195 0 -329 93t-198 251q-48 116 -48 274z" />
<glyph unicode="D" horiz-adv-x="1346" d="M11 18q0 8 4 13.5t11.5 9.5t15 6.5t19.5 3.5t20 2t20.5 1.5t17.5 0.5q108 8 108 75v890q0 31 -24 51.5t-53 28t-67 17.5t-55 19q-16 8 -16 23q0 2 4 17h534q254 0 428 -81t253 -246q53 -110 53 -259q0 -106 -28 -196.5t-79.5 -158t-119 -116t-149.5 -77.5 q-116 -42 -253 -42h-639q-5 10 -5 18zM442 77l59 -8q61 -7 113 -7q53 0 100.5 9.5t86.5 27.5t72.5 41.5t61 54.5t49 64t38.5 71q47 105 47 216q0 566 -499 566h-128v-1035z" />
<glyph unicode="E" horiz-adv-x="1254" d="M11 1159q0 8 6 17h976q54 0 147 20q9 -5 9 -8l7 -308q-14 -6 -23 -6t-16.5 4.5t-13.5 13t-10 17.5t-7.5 22t-6 22t-5 23t-3.5 19q-6 25 -12.5 43.5t-18.5 38t-30.5 30t-42.5 11.5l-478 11q-37 0 -47 -16t-10 -60v-412l391 12q14 1 26 7t22 18.5t14.5 20.5t12.5 24 q2 3 6 11t7 13l7.5 12.5t8.5 12.5t9.5 9.5t12 7t13.5 2.5q4 0 22 -5v-342q-12 -6 -22 -6q-8 0 -15.5 4.5t-14.5 13.5t-11.5 16.5t-10.5 19t-8 15.5q-8 14 -14 22.5t-16.5 21t-22.5 18.5t-26 7l-391 8v-448q0 -80 45 -80l465 11q36 1 62 11.5t40.5 26t25.5 40t16.5 47 t15 54.5t19.5 55q5 14 8.5 20.5t11.5 15.5t16 9q2 0 24 -5l-28 -359q0 -5 -9 -5q-8 0 -18.5 4t-18.5 5q-69 14 -121 14h-969q-5 0 -5 10q0 24 26.5 34t70 12.5t55.5 6.5q53 14 53 67v890q0 30 -22.5 50.5t-50.5 28.5t-64.5 18t-52.5 19q-16 8 -16 23z" />
<glyph unicode="F" horiz-adv-x="1159" d="M11 18q0 8 4 14t11.5 9.5t15 6t19.5 3.5t20 2t20.5 1.5t17.5 0.5q23 2 40 5.5t34 11.5t25.5 22.5t8.5 35.5v890q0 16 -7 29.5t-17 22t-26 16t-28.5 11.5t-29.5 8l-52 13q-17 5 -25.5 8t-19.5 11.5t-11 19.5q0 2 4 17l910 5q61 0 90.5 5.5t46.5 5.5q4 0 16 -4l7 -308 q-13 -5 -24 -5q-9 0 -16.5 4.5t-13 13t-9.5 17.5t-7.5 22.5t-6 22.5t-5 22.5t-3.5 17.5q-27 121 -103 123l-398 10q-37 0 -47 -16.5t-10 -59.5v-388l339 12q14 1 26 7t22 18.5t14.5 20.5t12.5 24q2 2 7.5 13l8 16t9 14t11.5 13.5t12.5 8t15.5 3.5q4 0 22 -5v-342 q-12 -6 -22 -6q-8 0 -15.5 4.5t-15 14.5t-11.5 16.5t-10.5 19t-7.5 14.5q-4 7 -7 12.5t-8 13t-10 13t-11.5 11.5t-12.5 10t-14 6.5t-16 2.5l-339 6v-475q0 -22 12 -37t31 -22t44.5 -12t49 -6.5t48.5 -5t40 -8.5q18 -7 18 -22q0 -10 -4 -17h-666q-4 8 -4 18z" />
<glyph unicode="G" horiz-adv-x="1333" d="M62 590q0 296 216 462q91 71 216 110.5t271 39.5q193 0 357 -64l31 -269q-18 -5 -23 -5q-11 0 -21 7t-18.5 21t-12.5 22.5t-10 23.5l-24 57q-15 37 -44 65t-67.5 45.5t-84 26t-96.5 8.5q-166 0 -278 -84.5t-163 -221.5q-34 -92 -34 -198q0 -195 67 -333t195 -201 q86 -42 198 -42q85 0 133 11q28 2 39 23.5t16 64.5q5 36 7 82.5t2.5 71.5t0 97.5t-0.5 91.5q0 24 -11 40t-30.5 23.5t-39.5 12t-44 9.5t-38 13q-13 6 -13 20q0 6 5 18h526q4 -15 4 -17q0 -6 -2 -10.5t-5.5 -8t-8.5 -6.5t-10 -4.5t-11.5 -3.5t-11.5 -3t-12 -2t-11 -2 q-72 -15 -72 -79v-379q0 -26 -36 -53q-63 -48 -172.5 -73t-231.5 -25q-246 0 -404.5 105t-215.5 300q-27 93 -27 213z" />
<glyph unicode="H" horiz-adv-x="1521" d="M11 18q0 8 3.5 13.5t10.5 9t14.5 6t19 4t19 2t19.5 1.5t16 1q47 4 75 20t28 55v900q0 30 -22.5 49t-50.5 25.5t-64 14.5t-52 17q-15 8 -15 23q0 2 4 17h631q5 -15 5 -18q0 -10 -7.5 -17.5t-22.5 -12t-26.5 -7t-31 -5t-23.5 -3.5q-110 -19 -110 -83v-394h657v394 q0 31 -23 50t-51.5 25t-65.5 14t-54 17q-15 8 -15 23q0 2 4 17h619q5 -15 5 -18q0 -8 -4.5 -14t-14.5 -10t-16 -6t-18 -5l-49 -11q-21 -5 -35.5 -10t-31.5 -14t-26 -24t-9 -34v-906q0 -30 22 -46.5t49.5 -20t65 -8.5t54.5 -12q16 -6 16 -20q0 -4 -4 -17h-623q-5 10 -5 18 t3.5 13.5t11 9.5t15 6t19 3.5t19.5 2t20 1.5t17 1q47 4 76 20t29 55v446h-657v-452q0 -30 24.5 -47t54.5 -20.5t70 -8t58 -11.5q17 -6 17 -20q0 -4 -4 -17h-635q-5 10 -5 18z" />
<glyph unicode="I" horiz-adv-x="734" d="M20 1159q0 2 4 17h670q4 -11 4 -19t-4 -14.5t-12.5 -10t-16.5 -6.5t-21.5 -4.5t-21.5 -2t-22.5 -1.5t-18.5 -1q-117 -8 -117 -73v-920q0 -23 12 -37.5t30 -21t43 -9.5t48.5 -3.5t49.5 -3.5t42 -8q18 -6 18 -22q0 -4 -5 -19h-670q-4 13 -4 17q0 10 7 16.5t23 10.5t26 5.5 t31 3.5t23 2q23 2 40 6t34.5 12t27 22.5t9.5 34.5v908q0 31 -25.5 48.5t-57 21.5t-71.5 10t-58 16q-17 8 -17 25z" />
<glyph unicode="J" horiz-adv-x="718" d="M-40 -197q0 21 11 37.5t29.5 25t41.5 8.5q30 0 53.5 -17.5t23.5 -45.5q0 -9 4 -17.5t10.5 -15t15 -11t17.5 -4.5q22 0 35.5 17.5t24.5 46.5q31 81 31 252v961q0 21 -11.5 35.5t-29.5 22.5t-42.5 14t-46.5 9t-46 7t-37 10q-17 6 -17 20q0 6 5 18h666q4 -15 4 -17 q0 -6 -3.5 -11.5t-9.5 -9t-14.5 -6.5t-17 -5t-19.5 -4t-19 -2.5t-17.5 -1.5t-14.5 -2q-12 -2 -22.5 -3.5t-22.5 -5t-21.5 -7.5t-19 -9.5t-15.5 -13t-10 -17t-4 -21.5v-923q0 -225 -108 -337q-88 -90 -218 -90q-63 0 -109.5 18.5t-66.5 54.5q-10 20 -10 40z" />
<glyph unicode="K" horiz-adv-x="1474" d="M11 1158q0 6 5 18h666q4 -15 4 -17q0 -10 -8 -17t-24.5 -11.5t-27 -6.5t-32 -4.5t-24.5 -2.5q-23 -3 -40 -7.5t-36 -12.5t-29.5 -22.5t-10.5 -34.5v-404h86l496 416q4 15 4 22q0 23 -22 35t-49.5 14t-60 5t-47.5 10q-14 6 -14 20q0 6 5 18h544l4 -18q0 -8 -11 -16 t-31.5 -14t-36.5 -10t-38 -8t-25 -5q-94 -20 -142 -59l-408 -342l488 -574q21 -23 64 -38t92 -28t72 -27q16 -9 16 -19t-4 -18h-684q-6 12 -6 17q0 17 24 25t61 12t44 7q45 13 45 41q0 13 -17 32l-359 446h-90v-456q0 -27 15.5 -43t41.5 -21t53 -6.5t59 -4t50 -8.5t18 -22 q0 -4 -5 -19h-670q-4 13 -4 17q0 10 8 17t23.5 10.5t27 5.5t31 3.5t23.5 2.5q24 2 40.5 6t35 12t28.5 22t10 34v910q0 24 -15.5 40.5t-41.5 24.5t-52.5 12.5t-56.5 9.5t-45 11q-17 6 -17 20z" />
<glyph unicode="L" horiz-adv-x="1073" d="M11 22q0 37 89 43q6 1 16 1l10 1q24 2 42 5.5t36 11.5t27.5 22.5t9.5 35.5v896q0 30 -19 47.5t-48.5 23.5t-60 10t-59.5 13.5t-41 26.5q0 2 4 17h670q4 -11 4 -19t-4 -14t-12.5 -10t-17 -6.5t-22 -4t-21.5 -2t-22 -1.5t-18 -1q-24 -2 -42.5 -5.5t-37 -11t-28.5 -22 t-10 -35.5v-908q0 -80 45 -80l306 11q36 1 62 11.5t40.5 26t25.5 40t16.5 47t15 54.5t18.5 55q6 14 9.5 20.5t11.5 15.5t16 9q2 0 24 -5l-28 -361q-2 -6 -8 -6q-93 26 -159 26h-836q-4 12 -4 22z" />
<glyph unicode="M" horiz-adv-x="1711" d="M11 18q0 7 3.5 13t11.5 9.5t15.5 6t19.5 4t19.5 2t20 1.5t16.5 1q109 8 111 75l27 899q1 34 -22.5 53.5t-53 25.5t-69.5 13t-60 16q-16 7 -16 22l4 17h364l468 -949l386 949h406q5 -17 5 -18q0 -7 -4.5 -12t-13 -8.5t-17.5 -6t-21 -4.5t-21 -3t-20.5 -2t-16.5 -1 q-22 -3 -40 -7.5t-35.5 -13.5t-27 -24t-8.5 -36l30 -916q1 -26 16 -41.5t40 -22t51 -9t56.5 -6t48.5 -9.5q16 -5 16 -19q0 -2 -4 -17h-630q-5 12 -5 18q0 7 3.5 13t11.5 9.5t15.5 6t20 3.5t20 1.5t20.5 1t17 0.5q107 6 107 77l-17 917l-425 -1047h-56l-460 912l-6 -788 q-1 -33 18.5 -49.5t45.5 -17.5t63 -4.5t57 -11.5q15 -7 15 -24q0 -2 -4 -17h-491q-5 12 -5 18z" />
<glyph unicode="N" horiz-adv-x="1499" d="M12 22q0 8 3.5 14.5t10.5 11t15 7.5t19.5 5t20 3.5t20 3t17.5 2.5q22 3 39.5 8.5t34.5 15.5t26 26t10 38l25 863q1 37 -26.5 57t-71.5 31l-52 13q-62 15 -76 37l4 18h372l812 -857l-15 690q0 26 -10 44t-25.5 27t-37.5 16t-42.5 10t-43.5 9t-39 15q-16 8 -16 26q0 4 6 20 h492q4 -9 4 -22q0 -7 -3.5 -13.5t-10.5 -11t-14.5 -7.5t-18 -5.5t-18 -4t-18.5 -3.5t-15 -3q-99 -19 -99 -97l-24 -1009q-1 -16 -24 -16q-29 0 -44 16l-900 952l28 -802q0 -32 14 -50t39 -25t51 -9t58 -6.5t52 -12.5q17 -8 17 -27q0 -6 -6 -20h-536q-4 9 -4 22z" />
<glyph unicode="O" horiz-adv-x="1413" d="M62 590q0 103 25.5 190.5t72 153.5t106 115t133.5 84q143 69 312 69q185 0 324.5 -73.5t221.5 -197.5q94 -144 94 -341q0 -103 -25 -191.5t-70.5 -155.5t-105 -117t-132.5 -86q-142 -68 -310 -68q-187 0 -327.5 74.5t-222.5 200.5q-96 147 -96 343zM277 636 q0 -275 151 -446q136 -154 321 -154q70 0 129.5 22.5t102 62.5t72.5 89.5t51 109.5q32 96 32 226q0 279 -146 444q-131 150 -313 150q-72 0 -132.5 -22t-104.5 -62t-75.5 -89.5t-53.5 -108.5q-34 -95 -34 -222z" />
<glyph unicode="P" horiz-adv-x="1222" d="M11 18q0 8 4 13.5t11.5 9.5t15.5 6.5t19.5 3.5t20 2t21 1.5t17.5 0.5q22 2 39.5 5.5t34 11.5t25.5 22.5t9 35.5v892q0 20 -9.5 35.5t-28 25.5t-33.5 15t-37 11l-52 13q-13 4 -19 6t-16.5 6.5t-15.5 11t-5 15.5q0 2 4 17h414q75 0 132.5 -1.5t128.5 -7t125 -15t111 -26 t99.5 -39.5t78.5 -57t57 -77q28 -56 28 -132q0 -81 -24.5 -145.5t-68 -109t-105.5 -73.5t-134.5 -42.5t-157.5 -13.5q-112 0 -204 48l2 28q76 -19 170 -19q105 0 174 38t101 110t32 179q0 56 -16 100.5t-42.5 74.5t-68 52.5t-84.5 35.5t-100.5 20t-107.5 9.5t-113 2.5v-988 q0 -28 14 -44t37.5 -21.5t48.5 -7t54 -5t47 -11.5q16 -7 16 -23q0 -8 -5 -18h-639q-5 10 -5 18z" />
<glyph unicode="Q" horiz-adv-x="1485" d="M62 590q0 103 25 190.5t71.5 153.5t106 115.5t133.5 84.5q144 68 312 68q185 0 324.5 -73.5t220.5 -197.5q95 -144 95 -341q0 -337 -295 -518q-122 -75 -265 -94l304 -147q96 -52 229 -52q31 0 61 2l61 4q20 5 49 0t29 -22q0 -25 -18 -34q-150 -75 -305 -75 q-32 0 -62.5 7t-47 13.5t-52.5 22.5q-17 7 -49 26q-65 39 -153 98l-82 58q-2 2 -15.5 11.5t-16.5 12t-15 11.5t-16.5 12.5t-14 11.5t-15 13t-12 12t-11.5 13q-118 11 -220.5 60.5t-177.5 123.5q-81 80 -129.5 188.5t-48.5 241.5zM277 636q0 -140 40 -253t110 -193 q29 -33 62 -59.5t73 -48.5t87.5 -34t97.5 -12q162 0 269 125q119 139 119 385q0 141 -37.5 254t-105.5 192q-58 67 -136.5 107.5t-173.5 40.5q-167 0 -280 -126q-125 -140 -125 -378z" />
<glyph unicode="R" horiz-adv-x="1328" d="M11 18q0 7 3.5 13t11 10t14 6.5t19 4t19 2t20 1.5t16.5 1q47 3 75 19t28 55v892q0 30 -23 50t-51 28t-64 17.5t-52 19.5q-15 9 -15 24q0 2 4 17h414q190 0 334.5 -22.5t235.5 -82.5q109 -71 109 -191q0 -68 -29 -121.5t-78.5 -86.5t-108 -52t-126.5 -26l286 -446 q29 -44 85.5 -72t123.5 -31q23 -1 27 -26q0 -10 -7 -21h-391q-17 25 -41 66q-48 82 -108 194q-61 114 -119 223l-54 101l-137 22v-476q0 -34 22.5 -51t51 -19t67.5 -6t60 -13q16 -7 16 -23q0 -8 -5 -18h-628q-5 10 -5 18zM432 644h5q63 3 95.5 5t89.5 8.5t88 16t71.5 27.5 t61.5 42t36 61t15 83q0 48 -14.5 84.5t-35.5 61t-60 41t-72 25t-88.5 13t-92 5.5t-99.5 1v-474z" />
<glyph unicode="S" horiz-adv-x="1028" d="M90 80l21 286q17 5 21 5q30 0 44 -89q13 -106 132 -178q110 -68 240 -68q102 0 164 46.5t62 139.5q0 40 -14 68t-42 54q-7 7 -15 14t-15 12.5t-17.5 12.5l-16.5 11t-18.5 12t-17.5 11t-20 11.5t-18.5 10.5t-21 11.5t-20.5 11.5l-211 119q-110 62 -162.5 137.5 t-52.5 167.5q0 67 22 120.5t60 89.5t91 60t114 35t131 11q173 0 318 -64l30 -257q-18 -5 -27 -5q-36 0 -57 85q-13 58 -53.5 98.5t-99.5 60.5t-131 20q-74 0 -132.5 -22.5t-88.5 -63.5q-20 -28 -20 -64q0 -50 29 -84.5t78 -63.5l336 -201q70 -41 113.5 -74.5t75.5 -77.5 q47 -66 47 -170q0 -90 -33.5 -158t-93.5 -108.5t-137.5 -60.5t-172.5 -20q-241 0 -421 108z" />
<glyph unicode="T" horiz-adv-x="1152" d="M21 872l33 317q9 0 16 1q3 0 10.5 0.5t9.5 0.5q22 0 58 -6t58 -6l356 -3l398 3q17 0 47.5 7t45.5 7h28l45 -321q-9 -4 -18 -4q-5 0 -9 2.5t-8 7.5t-7.5 10.5t-7 14t-6 15t-5.5 15.5t-4.5 14t-3.5 12.5t-3 9.5q-1 4 -3 11q-8 25 -12.5 38t-14 33.5t-20 31t-27.5 19.5 t-38 10l-273 8v-996q0 -31 25.5 -47t58 -19t73.5 -7t59 -12q18 -7 18 -22q0 -4 -4 -17h-670q-4 8 -4 18q0 11 7 18t23.5 10.5t26.5 5t32.5 2.5t24.5 1q25 2 42.5 5.5t35.5 11t27.5 22.5t9.5 36v990l-231 -8q-33 -1 -56.5 -19t-37 -47t-23.5 -58.5t-22 -61t-27 -48.5 q-8 -10 -16 -10q-4 0 -17 4z" />
<glyph unicode="U" horiz-adv-x="1591" d="M21 1159q0 5 6 17h644q5 -15 5 -18q0 -10 -8 -17.5t-23.5 -12t-27.5 -7t-31.5 -5t-23.5 -3.5q-23 -4 -40 -9t-36 -14t-29 -24.5t-10 -35.5v-476q0 -171 71 -291t195 -171q75 -31 153 -31q135 0 226.5 72.5t136.5 189.5q34 88 34 205v508q0 32 -24.5 50.5t-55 23.5 t-70 11.5t-57.5 14.5q-17 8 -17 23q0 2 4 17h522q5 -15 5 -19q0 -10 -8 -17t-25 -11t-28 -6t-33.5 -3.5t-24.5 -1.5q-25 -2 -43 -6t-37 -12t-29.5 -22.5t-10.5 -35.5v-516q0 -179 -77.5 -303t-210.5 -190q-125 -61 -267 -61q-178 0 -306 82t-192 219q-46 101 -46 235v512 q0 31 -23.5 51.5t-52 28t-66 17t-54.5 18.5q-15 9 -15 24z" />
<glyph unicode="V" horiz-adv-x="1450" d="M15 1146l6 30h628q1 -2 7.5 -16t6.5 -20q0 -17 -34 -27.5t-87 -16.5t-56 -7q-56 -12 -37 -61l335 -819l301 788q16 40 7 62.5t-47 28.5l-51 8q-82 12 -131 39q-7 1 -7 15q0 12 7 26h566q6 -10 6 -26q0 -38 -126 -51q-29 -4 -42.5 -7t-31 -9.5t-27.5 -17t-16 -27.5 q-83 -200 -236.5 -566.5t-194.5 -463.5q-9 -20 -39 -20q-28 0 -37 20l-450 1012q-12 28 -36.5 44.5t-63.5 30.5l-64 22q-32 10 -56 29z" />
<glyph unicode="W" horiz-adv-x="1963" d="M40 1156l6 20h578q5 -15 5 -18q0 -18 -21 -26.5t-54.5 -12t-41.5 -5.5q-42 -14 -42 -46q0 -11 4 -22l256 -722l242 645l-44 108q-19 18 -74 37l-43 16q-23 7 -43 18q-6 1 -6 10l6 18h577q5 -15 5 -18q0 -19 -17.5 -27t-43 -9.5l-51 -3t-43 -12t-17.5 -32.5q0 -14 5 -28 l229 -720l233 726q3 12 3 21q0 13 -5.5 23t-12.5 15t-20.5 8t-23.5 3.5t-27 2t-25 2.5q-11 1 -25 3.5t-30.5 10.5t-16.5 17q0 6 5 18h465q16 -4 16 -10q0 -8 -8.5 -15t-24 -11.5t-27.5 -7.5t-30.5 -6t-21.5 -4q-25 -5 -42.5 -10t-38.5 -13.5t-34.5 -22t-18.5 -30.5 l-314 -1038q-6 -18 -38 -18t-38 18l-306 892l-310 -892q-6 -20 -38 -20q-30 0 -38 20l-380 1012q-19 52 -93 82l-59 24q-29 11 -48 30z" />
<glyph unicode="X" horiz-adv-x="1388" d="M50 18q0 11 18 20t39 13.5t46 9t31 5.5q52 16 90 64l326 433l-312 467q-15 22 -40.5 35t-70.5 26t-58 18q-13 4 -21 8t-16 12.5t-8 19.5q0 2 4 17l616 10q4 -11 4 -18q0 -5 -3.5 -10t-11.5 -9.5t-15 -7.5t-18 -6t-17.5 -5t-17.5 -4.5t-13 -3t-7 -1.5q-17 -4 -28 -7 t-27.5 -9t-25 -14.5t-8.5 -18.5q0 -8 8 -22l206 -318l240 318q9 12 9 23q0 5 -2.5 9.5t-8.5 8t-11 6.5t-14 6t-14 4.5t-14.5 4t-11.5 3.5l-63 19q-1 0 -4 1q-50 16 -50 34q0 2 4 17h496q4 -11 4 -19q0 -3 -1.5 -5.5t-3.5 -4.5t-5.5 -4.5t-6.5 -4t-7.5 -3.5t-8 -3t-8.5 -2.5 t-8 -2t-7.5 -2t-5.5 -1.5l-27 -7q-31 -7 -48.5 -12t-40 -14t-38 -21.5t-28.5 -29.5l-279 -374l353 -542q5 -8 11.5 -15t11.5 -12.5t13.5 -10.5t14 -8.5t16 -7l16.5 -5.5t19 -4.5t19 -4t22 -4.5t23 -4q62 -12 62 -31q0 -4 -4 -17h-630q-4 8 -4 18q0 8 6.5 14t20.5 11t22.5 7 t27 5.5t19.5 3.5t14 2.5t18 4t17.5 4.5t18 6.5t13.5 8t11 10t3 12.5q0 10 -7 23l-247 376l-285 -382q-10 -13 -10 -21q0 -4 1.5 -7.5t4.5 -6l6 -5t8.5 -5t9 -4t10.5 -3.5t9.5 -2.5t10 -2.5l7.5 -2l57 -15q54 -15 54 -33q0 -4 -4 -17h-462q-4 8 -4 18z" />
<glyph unicode="Y" horiz-adv-x="1280" d="M32 1159q0 2 4 17h626q4 -11 4 -18t-6.5 -13.5t-21 -12t-22.5 -8.5t-26 -7t-18 -5q-1 0 -14.5 -3t-18 -4.5t-17 -5.5t-18 -7.5t-13.5 -8.5t-11 -11t-3 -13q0 -9 5 -19l230 -410l214 410q6 10 6 20t-6 18t-20 13.5t-21 7.5t-23 6q-3 1 -10 3q-78 20 -104 40q-4 3 -4 11 q0 2 4 17h496q4 -11 4 -19q0 -23 -91 -38q-40 -7 -65 -14.5t-48 -23.5t-37 -41l-266 -460v-456q0 -24 15.5 -39.5t42 -22t53.5 -9.5t57.5 -6.5t47.5 -9.5t17 -20q0 -4 -4 -17h-670q-5 10 -5 18t4 13.5t12.5 9.5t17 6.5t21 3.5t21.5 2t21.5 1.5t18.5 0.5q23 2 41 5.5t36 11.5 t28 22.5t10 35.5v400l-280 500q-3 5 -8 10t-13 10.5t-13 8.5t-16 9t-14 7q-24 14 -50 27l-49 25q-2 2 -8 4.5t-11 5t-11 6t-10.5 6t-7.5 5.5t-3 5z" />
<glyph unicode="Z" horiz-adv-x="1185" d="M90 18l731 1055q1 1 6.5 7.5t9 12t6 12t-1.5 10t-15 3.5l-450 -9q-48 0 -79.5 -18t-48 -49t-27.5 -64t-26.5 -72t-35.5 -63q-11 -13 -20 -13q-3 0 -23 5l63 361q8 2 13 2h9q7 0 17.5 -1t23.5 -2.5t20 -2.5l42 -4q21 -2 36 -2l724 -10q22 0 28.5 -16.5t-1.5 -36.5 l-686 -987q-6 -8 -10 -21.5t-4.5 -26.5t7 -22.5t22.5 -9.5l418 11q36 1 61.5 12t39.5 27.5t25 42.5t16 49t13.5 56.5t16.5 56.5q17 45 36 45q2 0 24 -5l-17 -371q-8 -2 -13 -2h-9q-6 0 -24 4l-41 7q-61 11 -82 11h-785z" />
<glyph unicode="[" horiz-adv-x="794" d="M141 -104l16 1303q2 42 -1 123l-3 68q-2 34 -2 59q0 30 27 52.5t60 22.5h5q364 4 449 5q29 0 51.5 -7t36.5 -24.5t14 -42.5q0 -24 -13 -43t-34.5 -28.5t-47.5 -8.5l-392 5q-18 -311 -19.5 -706.5t6.5 -734.5l116 -1q42 -2 123 2l69 2q33 2 58 2q30 0 52.5 -27t22.5 -60 q0 -20 -6 -34t-18 -22t-27.5 -11.5t-36.5 -3.5q-23 0 -66 3.5t-61 3.5q-153 8 -299 8q-37 0 -59.5 27.5t-20.5 67.5z" />
<glyph unicode="\" horiz-adv-x="822" d="M71 1283q0 44 12 61.5t53 17.5q37 0 64 -10.5t27 -35.5q0 -10 2 -21t6.5 -25t7 -22.5t9 -25t7.5 -19.5q8 -22 26 -66t23 -58l510 -1201q12 -31 6.5 -61t-24.5 -46q-12 -10 -25 -10q-44 0 -68 17t-36 54q-235 677 -437 1105q-105 217 -144 294q-19 39 -19 52z" />
<glyph unicode="]" horiz-adv-x="794" d="M0 1455q0 38 28.5 56t73.5 18q85 -1 449 -5h5q35 0 61 -21.5t26 -53.5q0 -31 -1.5 -97.5t-1.5 -97.5q0 -33 1 -55l12 -1303q2 -40 -20.5 -67.5t-59.5 -27.5q-228 0 -381 -13q-30 -2 -45 -2q-29 0 -47.5 6t-29.5 22t-11 43q0 31 16.5 52.5t40.5 30.5q13 4 18 4q25 0 58 -1 l69 -3q81 -4 123 -2l116 1q7 335 6 732t-19 709l-392 -5q-40 -2 -67.5 20.5t-27.5 59.5z" />
<glyph unicode="^" horiz-adv-x="1500" d="M426 816q0 17 14 47l118 242q54 113 103 226q17 36 56.5 49t79.5 -11q23 -15 34 -38q14 -30 31 -69q18 -39 60 -129t130 -270q14 -30 14 -47q0 -38 -51 -38q-3 0 -7.5 2t-7.5 4.5t-8 7t-7.5 7t-7.5 8t-6 5.5q-27 30 -43 54q-32 45 -82 114q-51 71 -100 139 q-51 -69 -102 -139q-12 -17 -33.5 -49t-36 -53t-36.5 -46.5t-43 -43.5q-12 -10 -18 -10q-51 0 -51 38z" />
<glyph unicode="_" horiz-adv-x="0" d="M267 46q0 8 2.5 15t8 11.5t11 8t15.5 5.5t16.5 3t19.5 1.5t19.5 0.5h20.5h19h315h8h25t24.5 -1t24.5 -3t20.5 -5.5t17.5 -8.5t10.5 -13.5t4.5 -18.5q0 -11 -4 -19t-13 -12.5t-18 -7.5t-23 -3.5t-24.5 -0.5t-27 0.5t-25.5 0.5h-312q-6 0 -26 -0.5t-27.5 0t-24 1.5t-24 4 t-16.5 8t-13 14t-4 20z" />
<glyph unicode="`" horiz-adv-x="1350" d="M429 327q0 40 21 72.5t55 32.5q18 0 35.5 -8t26 -15t22.5 -21l26 -25q40 -38 97 -83q70 -56 216 -162q36 -25 36 -52q0 -18 -13.5 -27.5t-32.5 -9.5q-12 0 -42 16q-23 12 -62 34t-68 37q-102 54 -202 106l-79 43q-36 20 -36 62z" />
<glyph unicode="a" horiz-adv-x="983" d="M76 153q0 76 34.5 124t98.5 80q75 39 170 60t245 42v129q0 49 -3.5 85t-14.5 70t-30 55.5t-51.5 34.5t-76.5 13q-40 0 -80 -13.5t-64 -34.5q-18 -15 -18 -34q0 -13 10 -43.5t10 -46.5q0 -43 -24 -69t-64 -26q-47 0 -77 30.5t-30 79.5q0 48 22 85.5t57.5 61t84 39 t96.5 21.5t100 6q188 0 273.5 -90.5t85.5 -283.5v-397q0 -24 15 -36.5t34 -14t46.5 -4.5t42.5 -8q11 -4 11 -15q0 -22 -24 -37t-62 -21.5t-69.5 -9t-63.5 -2.5q-61 0 -95.5 43.5t-34.5 108.5q-41 -69 -129 -110.5t-195 -41.5q-66 0 -116 16.5t-82 55.5t-32 98zM293 183 q0 -119 99 -119q78 0 177 65q30 20 55 42v255q-94 -27 -154 -50.5t-106 -58.5q-35 -26 -53 -57.5t-18 -76.5z" />
<glyph unicode="b" horiz-adv-x="1125" d="M-19 1227q0 8 4 17l398 70v-585q99 132 230 165q29 8 61 8q81 0 148.5 -36t118.5 -93q53 -60 85.5 -145t32.5 -185q0 -164 -64 -275.5t-183 -156.5q-73 -28 -155 -28q-154 0 -329 68q-58 -39 -94 -56q-45 -22 -53 -2q-4 10 -4 27v1102q0 15 -9.5 26.5t-27.5 19.5 t-29.5 11.5t-31.5 8.5l-47 13q-1 0 -7.5 2t-10 3t-9.5 2.5t-9.5 3.5t-7 4.5t-5.5 5t-2 5.5zM383 134q84 -70 249 -70q51 0 90.5 21.5t64 56.5t40 84.5t21.5 99.5t6 107q0 357 -230 357q-88 0 -173 -77q-38 -33 -68 -76v-503z" />
<glyph unicode="c" horiz-adv-x="916" d="M66 442q0 87 25 160t70 126t103 90t128 58q89 26 175 26q63 0 118 -12.5t98 -38t68 -62t25 -82.5t-31.5 -74.5t-77.5 -28.5q-39 0 -63.5 23.5t-24.5 63.5q0 16 10 43t10 40q0 36 -36.5 54t-85.5 18q-99 0 -168.5 -55.5t-106.5 -142.5q-30 -72 -30 -176q0 -84 16.5 -150.5 t50.5 -118.5t91.5 -80t135.5 -28q107 0 195 20l69 16q7 2 11 -2t4 -10q0 -24 -5 -29q-54 -50 -137.5 -78.5t-182.5 -28.5q-156 0 -263.5 72.5t-156.5 195.5q-34 85 -34 191z" />
<glyph unicode="d" horiz-adv-x="1173" d="M66 412q0 169 63.5 287t180.5 170q76 33 168 33q105 0 212 -64q47 -28 84 -63v347q0 15 -9.5 26.5t-27.5 19.5t-29.5 11.5t-31.5 8.5l-47 13q-1 0 -7.5 2t-10 3t-9.5 2.5t-9.5 3.5t-7 4.5t-5.5 5t-2 5.5q0 8 4 17l398 70v-1130q0 -31 19.5 -50.5t44 -26.5t57 -17 t47.5 -20q14 -9 14 -24q0 -8 -5 -18l-350 -33l-20 163q-26 -40 -49.5 -67t-57.5 -54t-77.5 -40.5t-97.5 -13.5q-151 0 -253.5 64t-151.5 178q-34 81 -34 187zM272 416q0 -120 41.5 -202t123.5 -115q50 -21 107 -21q141 0 230 131v474q-69 82 -157 127q-47 23 -101 23 q-122 0 -187 -130q-57 -113 -57 -287z" />
<glyph unicode="e" horiz-adv-x="946" d="M66 442q0 109 40 194.5t107 145.5q60 54 140 87t171 33q81 0 147 -27t109.5 -72t69.5 -107q30 -70 30 -165q0 -29 -4 -59h-604q-3 -30 -3 -57q0 -105 37 -176.5t108 -107.5t174.5 -36t222.5 36q6 2 10 -2.5t4 -11.5v-17q0 -5 -5 -10q-115 -107 -297 -107 q-157 0 -264.5 72.5t-158.5 195.5q-34 85 -34 191zM273 511l398 21q13 0 21.5 10.5t8.5 25.5q0 48 -4.5 86.5t-16.5 75t-31.5 61.5t-51.5 40t-75 15q-108 0 -176 -106q-59 -91 -73 -229z" />
<glyph unicode="f" horiz-adv-x="622" d="M26 17q0 15 22.5 23.5t55.5 13t40 6.5q42 14 42 50v699h-143v59h143v97q0 161 79 246.5t232 85.5q175 0 236 -70q22 -26 22 -63q0 -44 -26.5 -70t-73.5 -26q-40 0 -63.5 22t-23.5 60q0 12 7 34.5t7 32.5q0 24 -19.5 31.5t-54.5 7.5q-30 0 -50 -10.5t-31.5 -32.5 t-16.5 -44t-10 -57q-8 -62 -8 -165v-79h211v-59h-211v-699q0 -20 12 -32.5t32.5 -18t41 -8.5t44 -6.5t35.5 -9.5q13 -6 13 -18q0 -2 -4 -17h-536q-4 15 -4 17z" />
<glyph unicode="g" horiz-adv-x="977" d="M114 -158q0 73 69 151q24 27 57 50q-53 19 -88.5 62.5t-35.5 104.5q0 71 45 117t114 46q-161 88 -161 244q0 103 54.5 169t144.5 96q60 20 132 20q155 0 247 -84l104 58q50 27 82 27q36 0 60.5 -25t24.5 -61q0 -23 -8.5 -42.5t-26.5 -31.5t-41 -12q-29 0 -44.5 10 t-24.5 30l-13 27q-6 13 -23 13q-19 0 -62 -23q46 -61 46 -151q0 -107 -51 -178.5t-138 -102.5q-59 -22 -132 -22q-67 0 -125 20q-6 -3 -23.5 -7.5t-25.5 -8.5q-37 -21 -37 -74q0 -13 9 -22t27.5 -14.5t30.5 -7.5t34 -4q35 -5 111 -9.5t111 -8.5q54 -6 96.5 -15.5t87 -28 t73.5 -44.5t47.5 -66.5t18.5 -93.5q0 -48 -21 -87.5t-53.5 -65t-78.5 -44.5t-89.5 -28.5t-92.5 -15.5q-54 -7 -107 -7q-216 0 -297 80q-27 26 -27 60zM220 -117q0 -29 14.5 -51.5t37 -36t54 -22.5t61.5 -12t63 -3q83 0 154 21t110 60q25 27 25 60q0 79 -126 117 q-43 13 -101 17l-193 10q-41 -27 -70 -68.5t-29 -91.5zM288 637q0 -254 171 -254q41 0 69.5 17t43.5 49t21 68t6 83q0 44 -4 78.5t-15.5 67t-29.5 53.5t-47.5 34t-69.5 13q-49 0 -83 -31t-48 -77t-14 -101z" />
<glyph unicode="h" horiz-adv-x="1252" d="M11 18q0 5 2 9t5.5 7t9 5.5t11 4.5t12.5 4t13 3t13.5 2t13 1.5t12.5 1.5t10 1q102 14 102 69l-1 996q0 15 -9.5 26.5t-27.5 19.5t-29.5 11.5t-31.5 8.5l-47 13q-1 0 -7.5 2t-10 3t-9.5 2.5t-9.5 3.5t-7 4.5t-5.5 5t-2 5.5q0 8 4 17l396 70l3 -577q63 88 179 139 q59 26 138 26q91 0 158 -32.5t107 -92.5t59 -138.5t19 -176.5v-340q0 -26 16.5 -41t37 -19.5t48 -10.5t42.5 -15q11 -6 11 -19q0 -4 -4 -17h-516q-5 10 -5 18q0 18 43 27l39 9q36 7 59 22t23 46v308v47q1 34 0.5 67.5t-2 65t-6.5 60t-13 53.5t-22 45.5t-32.5 34.5t-46 22 t-61.5 8q-99 0 -193 -94q-43 -41 -78 -94v-525q0 -21 13 -35t34.5 -20.5t43.5 -10t46.5 -8t37.5 -10.5q14 -6 14 -19q0 -4 -4 -17h-590q-5 10 -5 18z" />
<glyph unicode="i" horiz-adv-x="626" d="M33 17q0 7 3 12t10 9t13.5 7t17 5t17 3t17.5 2.5t15 2.5q41 6 66.5 20.5t25.5 47.5v579q0 24 -15.5 38t-34.5 17.5t-45.5 8.5t-40.5 11q-11 6 -11 17q0 6 5 18l348 68v-763q0 -22 11.5 -36t31.5 -20.5t40.5 -9.5t44.5 -7.5t37 -10.5t13 -18q0 -9 -4 -18h-561q-4 13 -4 17 zM179 1104q0 35 15.5 63.5t43 44.5t62.5 16q54 0 89 -35t35 -89q0 -53 -35 -87t-89 -34q-53 0 -87 34t-34 87z" />
<glyph unicode="j" horiz-adv-x="622" d="M-51 -198q0 42 18.5 61.5t56.5 19.5q34 0 56.5 -17t22.5 -44q0 -17 13.5 -31.5t30.5 -14.5q21 0 34.5 16.5t24.5 44.5q31 78 31 245v623q0 24 -17.5 37.5t-39 17.5t-50.5 8.5t-43 10.5q-12 6 -12 19q0 2 4 17l364 68v-764q0 -217 -105 -327q-84 -88 -211 -88 q-35 0 -66.5 7t-57 21t-40.5 32q-14 18 -14 38zM197 1104q0 35 15.5 63.5t43 44.5t62.5 16q54 0 89 -35t35 -89q0 -53 -35 -87t-89 -34q-53 0 -87 34t-34 87z" />
<glyph unicode="k" horiz-adv-x="1133" d="M11 1227q0 8 4 17l398 70v-839h62l350 303q2 6 2 10v6q0 19 -20 27.5t-44.5 8t-44.5 5t-20 20.5q0 5 3 13h394l3 -13q0 -8 -7.5 -14.5t-24.5 -11.5t-24.5 -6.5t-26.5 -5.5q-66 -14 -102 -43l-296 -252l334 -428q19 -21 84.5 -40t80.5 -28q11 -6 11 -13q0 -9 -3 -13h-495 q-5 9 -5 12q0 14 18.5 20t40 7t40 9t18.5 26q0 8 -13 23l-250 323h-65v-304q0 -24 16.5 -39t36.5 -20t47 -11.5t40 -14.5q12 -6 12 -17q0 -4 -4 -14h-524q-3 7 -3 12t3.5 10t10 8.5t13 6.5t16 6t16 4.5t15.5 3.5t12 2q87 22 87 67v1002q0 15 -9.5 26.5t-27.5 19.5 t-29.5 11.5t-31.5 8.5l-47 13q-1 0 -7.5 2t-10 3t-9.5 2.5t-9.5 3.5t-7 4.5t-5.5 5t-2 5.5z" />
<glyph unicode="l" horiz-adv-x="588" d="M-1 1227q0 8 4 17l398 70l1 -1194q0 -27 19 -42.5t43 -19.5t55.5 -9.5t47.5 -12.5q13 -6 13 -18q0 -9 -4 -18h-560q-4 13 -4 17q0 7 3 12t10 9t13 7t17 5t17 3t18 2.5t14 2.5q41 5 66.5 20t25.5 48l-1 996q0 15 -9.5 26.5t-27.5 19.5t-29.5 11.5t-31.5 8.5l-47 13 q-1 0 -7.5 2t-10 3t-9.5 2.5t-9.5 3.5t-7 4.5t-5.5 5t-2 5.5z" />
<glyph unicode="m" horiz-adv-x="1735" d="M11 828q0 6 5 18l368 38l20 -135q53 82 161 129q55 24 131 24q96 0 165 -46t97 -122q100 168 281 168q77 0 135.5 -21t96 -58t61 -93t33 -121.5t9.5 -148.5v-338q0 -25 15.5 -40t34.5 -20.5t45 -12t40 -14.5q10 -6 10 -17q0 -5 -5 -18h-497q-4 13 -4 17q0 17 21.5 27 t54 17t39.5 10q40 18 40 51v386v11q0 53 -1 80t-5 71.5t-14 67.5t-27.5 48t-46 36t-67.5 11q-51 0 -89 -22.5t-76 -60.5q-36 -37 -64 -83q7 -28 10 -68t3 -60.5v-78.5v-338q0 -25 18.5 -40.5t41.5 -20.5t53 -11.5t44 -14.5q12 -6 12 -17q0 -9 -4 -18h-526q-4 13 -4 17 q0 16 22 26.5t55 17.5t41 10q41 18 41 51v429q0 33 -1 58t-4.5 55.5t-9.5 53.5t-16.5 45.5t-25.5 37t-37 23.5t-49 9t-52 -8.5t-47 -24.5t-36.5 -30t-31.5 -33q-39 -42 -71 -96v-521q0 -26 18 -41t40 -19.5t51.5 -10.5t43.5 -14q12 -6 12 -17q0 -9 -4 -18h-528q-4 13 -4 17 q0 18 43 29l40 9q36 8 59 24t23 47v610q0 25 -20.5 39.5t-46 18t-58.5 8t-48 10.5q-14 5 -14 16z" />
<glyph unicode="n" horiz-adv-x="1206" d="M11 824q0 6 5 18l368 38l20 -144q62 89 180 140q61 26 142 26q88 0 153 -32.5t104 -92.5t57.5 -138t18.5 -176v-346q0 -27 16.5 -42.5t37 -19.5t48 -11t41.5 -16q4 -4 4 -11t-4 -17h-504q-4 13 -4 17q0 7 4.5 12.5t10.5 8.5t16 6.5t17 5t17.5 3.5t13.5 2q36 8 58 22.5 t22 44.5v309v37q1 28 0.5 56t-1.5 54.5t-3.5 51.5t-6.5 48t-11.5 43.5t-17 37.5t-23.5 31t-32 23.5t-41 14.5t-51 5q-56 0 -99 -26t-86 -69q-42 -41 -77 -94v-524q0 -27 20.5 -42.5t45.5 -20t58.5 -9.5t49.5 -12q14 -6 14 -18q0 -9 -4 -18h-550q-5 15 -5 18q0 7 7 13t17 9.5 t24 7t25.5 5.5l23 4t15.5 3q27 7 40 21.5t13 44.5v606q0 25 -20.5 39.5t-46 18t-58.5 8t-48 10.5q-14 5 -14 16z" />
<glyph unicode="o" horiz-adv-x="1119" d="M66 442q0 165 83.5 275t220.5 156q87 29 177 29q105 0 194 -34t149.5 -91.5t97.5 -134.5q42 -86 42 -200q0 -216 -151 -344q-62 -53 -146 -84t-183 -31q-157 0 -271.5 70.5t-171.5 188.5q-41 86 -41 200zM272 474q0 -139 46 -240.5t134 -144.5q51 -25 104 -25 q92 0 153 55.5t92 142.5q23 65 23 150q0 97 -19 176.5t-59.5 140t-100.5 91.5q-51 26 -103 26q-109 0 -186 -94q-84 -103 -84 -278z" />
<glyph unicode="p" horiz-adv-x="1167" d="M11 837q0 2 4 17l366 30l18 -180q95 153 233 190q33 8 69 8q144 0 236 -70.5t134 -192.5q30 -88 30 -205q0 -161 -65.5 -269t-184.5 -153q-77 -29 -168 -29q-101 0 -164 35.5t-108 107.5l1 -354q0 -28 21.5 -45t48.5 -22t62 -11.5t50 -14.5t15 -22q0 -4 -4 -17h-566 q-5 10 -5 18t6 14.5t18 11t20.5 7t24 5t18.5 3.5q40 9 63.5 24.5t23.5 48.5l1 936q-1 28 -23 46.5t-49 25.5t-61.5 16t-50.5 19q-14 8 -14 22zM413 258q35 -86 100.5 -140t165.5 -54q38 0 69.5 11.5t54 31t39 49t26.5 61t16.5 71t8.5 76.5t2 80q0 59 -7.5 108.5t-25 94 t-44.5 76t-69 49.5t-96 18q-87 0 -171 -76q-38 -33 -69 -76v-380z" />
<glyph unicode="q" horiz-adv-x="1167" d="M66 442q0 164 64 275.5t183 156.5q73 28 155 28q154 0 329 -68q58 39 94 56q45 22 53 2q4 -10 4 -27v-1093q0 -27 18.5 -44t41.5 -23t54.5 -13t46.5 -14q13 -7 13 -20q0 -8 -5 -18h-566q-4 13 -4 17q0 9 6.5 16t20 11.5t23 7t27.5 5t21 3.5q21 3 35.5 7t30.5 12 t24.5 21.5t8.5 31.5v384q-120 -173 -293 -173q-81 0 -148.5 36t-118.5 92q-20 24 -37.5 50.5t-32.5 58.5t-25.5 66.5t-16.5 74.5t-6 81zM271 452q0 -124 35 -212.5t108 -124.5q42 -20 87 -20q78 0 138.5 42.5t102.5 110.5v502q-87 83 -249 83q-51 0 -90.5 -23t-64 -59.5 t-40 -87.5t-21.5 -102.5t-6 -108.5z" />
<glyph unicode="r" horiz-adv-x="792" d="M11 830q0 6 5 18l322 38l31 -165q23 50 58 89t88.5 65.5t116.5 26.5q55 0 92.5 -26.5t37.5 -74.5q0 -44 -24 -72.5t-65 -28.5q-68 0 -89 56q-1 2 -4.5 11t-5 13t-5.5 11t-7.5 10.5t-9.5 6.5t-13 3q-46 0 -98 -54q-59 -62 -59 -121v-516q0 -27 19.5 -42.5t43.5 -19.5 t56 -9.5t47 -12.5q14 -6 14 -18q0 -9 -4 -18h-540q-4 12 -4 17q0 11 14.5 19t31.5 11.5t38.5 7.5t25.5 5q18 5 28.5 11.5t17 20t6.5 34.5v612q0 25 -17.5 39t-39.5 17.5t-52 8t-44 11.5q-12 5 -12 16z" />
<glyph unicode="s" horiz-adv-x="828" d="M90 64l11 226q17 11 36 11q18 0 27.5 -18.5t9.5 -44.5q0 -59 34 -103t86.5 -66t114.5 -22q64 0 106 29t42 86q0 25 -7.5 45.5t-23 37.5t-28 27t-34.5 24q-48 33 -207 134q-49 31 -79 60.5t-51 77.5t-21 109q0 60 22.5 104t63 70t92 38.5t114.5 12.5q20 0 41 -1.5t41.5 -4 t40.5 -6t39 -8t37.5 -10t34.5 -11t31 -11.5l16 -224q-6 -3 -26 -3q-10 0 -21 12.5t-17.5 26.5t-8.5 25q-11 53 -55 91.5t-103 55.5q-37 12 -71 12q-51 0 -80.5 -25t-29.5 -74q0 -25 6 -44t19.5 -34t25.5 -24t34 -23l187 -123q104 -68 150.5 -136t46.5 -141q0 -64 -26 -111.5 t-72 -74.5t-103.5 -40t-125.5 -13q-191 0 -319 81z" />
<glyph unicode="t" horiz-adv-x="696" d="M43 809v29q129 45 225 164l42 52q1 3 10 15t14 18t13.5 12.5t15.5 6.5q24 0 24 -56v-182h216v-59h-211v-476v-31v-51.5t2 -49t6 -44.5t13 -38t21 -29t31.5 -19t44.5 -7q72 0 122 31q9 6 11 6q19 0 19 -35q0 -1 -10 -14q-25 -32 -71.5 -50.5t-105.5 -18.5 q-79 0 -135.5 23.5t-90 70t-48.5 109.5t-15 148v475h-143z" />
<glyph unicode="u" horiz-adv-x="1175" d="M-24 832q0 5 3 17q34 2 119 10l68 6q82 7 187 15v-472q0 -192 47 -275q39 -69 114 -69q86 0 152.5 40.5t112.5 103.5v516q0 25 -19 41t-43 21t-54.5 12.5t-44.5 15.5q-13 7 -13 20v6q0 1 3 9q20 2 60 5t60 5l69 6q83 7 188 15l-2 -696q0 -31 19.5 -50.5t44 -26.5t57 -17 t48.5 -20q13 -9 13 -24q0 -8 -5 -18l-350 -33l-20 163q-53 -78 -132 -126.5t-184 -48.5q-327 0 -327 423v315q0 32 -24 48t-61 24l-42 10q-10 2 -15 3.5t-13 5t-12 8.5t-4 12z" />
<glyph unicode="v" horiz-adv-x="948" d="M-56 845l4 23h476q0 -1 2 -5l4 -8l4 -8t2 -5q0 -16 -25 -23.5t-53.5 -8.5t-47 -13t-8.5 -37l196 -510l166 454q13 28 12.5 49t-20.5 34q-17 12 -56 26.5t-56 23.5q-5 2 -5 12q0 6 5 19h384q4 -7 4 -19q0 -18 -24.5 -29t-60 -18.5t-42.5 -11.5q-11 -4 -18.5 -11t-14 -20.5 t-9 -19t-9.5 -24.5l-292 -713q-6 -14 -27 -14q-22 0 -27 14l-327 774q-15 33 -61 43l-39 8q-20 4 -37 18z" />
<glyph unicode="w" horiz-adv-x="1364" d="M-56 853l4 15h458q4 -9 4 -13q0 -7 -3.5 -12t-11.5 -8.5t-12.5 -5.5t-16.5 -4.5t-14 -3.5q-17 -4 -26.5 -7.5t-20 -13t-10.5 -23.5v-9q0 -3 2 -8l166 -477l157 435l-32 73q-10 21 -52 33l-36 10q-18 6 -33 14q-5 0 -5 7l5 13h439q4 -10 4 -13q0 -17 -17 -24.5t-37.5 -9 t-37.5 -11.5t-17 -29q0 -10 4 -21l154 -476l145 474q2 4 2 8v8q0 10 -4 18t-8.5 13t-15.5 9t-16.5 5.5t-20 5t-17.5 3.5q-23 6 -47 20q-5 0 -5 7t5 13h360q11 -3 11 -7q0 -14 -40 -25l-4 -2l-42 -12q-21 -6 -31 -9.5t-27.5 -11t-27.5 -18t-14 -23.5l-229 -763 q-5 -13 -27 -13q-24 0 -29 13l-231 645l-217 -645q-5 -14 -27 -14q-23 0 -28 14l-287 766q-6 15 -15.5 26t-25 18.5t-27 11.5t-32.5 11q-5 2 -8 2q-21 7 -35 21z" />
<glyph unicode="x" horiz-adv-x="1022" d="M20 13q0 20 64 27q28 5 45 10.5t33 16t29 27.5l224 326l-234 339q-12 18 -22 27.5t-25.5 17t-38.5 12.5q-22 4 -43.5 14.5t-21.5 24.5q0 1 3 13h468q3 -9 3 -14q0 -4 -2 -7.5t-6 -6.5t-8.5 -6t-10.5 -5.5t-10.5 -4.5t-10 -4t-7.5 -3t-9 -3.5t-10.5 -4.5t-10 -5t-10.5 -6 t-8 -7t-6 -8t-2 -8q0 -6 6 -16l130 -201l150 211q6 9 6 17q0 2 -1 4.5t-2.5 4.5t-4 4t-4.5 3.5t-5.5 3t-6 2.5t-6.5 2.5t-6.5 2.5t-6 2t-4.5 1l-41 14l-4.5 1.5t-5.5 2t-5 2t-6 2.5l-5 2.5t-4.5 3l-3.5 3.5t-2.5 4t-0.5 4q0 1 3 13h360q2 -5 2 -9v-6q0 -14 -45 -24l-20 -4 q-40 -10 -60 -21t-39 -37l-195 -269l273 -402q18 -26 37 -36t60 -15q11 -1 25.5 -5t27.5 -11.5t13 -16.5q0 -2 -3 -12h-505q-3 4 -3 13q0 5 4.5 10t13 8.5t15 6t18 5t13.5 3.5l9.5 2.5t12.5 3.5t11.5 4t12 5.5t9 6t7.5 7.5t2 9q0 9 -5 17l-164 266l-170 -278q-7 -8 -7 -15 q0 -3 1 -5t3 -4.5t4 -4t6 -3t6 -2.5t6.5 -2.5t6.5 -2t7 -2t6 -1.5l39 -11q38 -11 38 -24q0 -2 -3 -12h-370q-3 6 -3 13z" />
<glyph unicode="y" horiz-adv-x="953" d="M-56 845l4 23h498q0 -1 3 -7l6 -12t3 -7q0 -13 -23.5 -20.5t-60 -11.5t-39.5 -5q-42 -9 -27 -45l201 -510l160 450q12 31 12 51q0 15 -6 26.5t-20 19.5t-23 11.5t-27 9.5l-56 19q-5 2 -5 12q0 6 5 19h384q4 -7 4 -19t-17.5 -21t-37 -12.5t-36.5 -3.5q-8 0 -15 -1.5 t-12.5 -3t-10.5 -5.5t-8.5 -6.5t-7.5 -8.5l-6 -9t-5.5 -11t-4.5 -11t-4.5 -12t-4.5 -12q-165 -432 -355 -874l-38 -90q-16 -36 -33.5 -62.5t-42.5 -52.5t-60 -40t-78 -14q-40 0 -71 12.5t-50 39.5t-19 64q0 32 15 55.5t40.5 36t57.5 12.5q20 0 36 -7t23.5 -14.5t20.5 -23.5 t18 -21q12 -12 31 -12t34 8.5t25.5 26t16.5 30.5t14 37.5t11 31.5l51 138l-333 763q-9 19 -23 28.5t-38 14.5l-39 8q-20 4 -37 18z" />
<glyph unicode="z" horiz-adv-x="926" d="M80 14l498 778l4.5 5.5t7 9t4.5 8.5t-1 7.5t-11 2.5l-268 -11q-27 0 -46 -8t-29.5 -24t-17 -31.5t-15 -39t-16.5 -38.5q-20 -40 -43 -58q-11 -9 -21 -9q-7 0 -27 4l47 273q3 1 17 1q4 0 20 -2l35 -6q51 -8 68 -8h519q16 -1 21.5 -12.5t-1.5 -26.5l-461 -727 q-6 -9 -9.5 -22.5t1.5 -25.5t20 -12l276 8q20 1 35 7.5t24 14.5t16.5 24.5t11 28t8.5 34.5q2 6 3 10q14 53 34 73t34 20q3 0 11 -1.5t11 -1.5l-12 -284q-3 -1 -16 -1q-5 0 -20 4l-34 9q-48 13 -66 13h-605z" />
<glyph unicode="{" horiz-adv-x="953" d="M74 781q0 21 15.5 36t37.5 15q23 0 41.5 4.5t32 11t24 20t17.5 24.5t12 32t7 34.5t3.5 40t1.5 41.5v46v5q0 33 -2.5 96.5t-2.5 94.5q0 74 14 123.5t46.5 83.5t87.5 53q62 21 166 21q12 0 12 -52v-5.5v-7v-6.5t-0.5 -7t-1 -6.5t-1.5 -5.5l-2 -4t-3 -3t-4 -1 q-27 0 -46 -1.5t-39.5 -6.5t-33.5 -14t-21 -24.5t-8 -37.5q0 -23 6 -53l13 -65q20 -92 20 -163q0 -90 -26.5 -158t-79.5 -110t-130 -51q114 -14 175 -98t61 -220q0 -73 -20 -164l-13 -64q-6 -30 -6 -53q0 -22 8 -37.5t20.5 -24.5t33.5 -13.5t40 -6t46 -1.5q18 -8 18 -50v-5 q0 -14 -0.5 -21.5t-4.5 -15t-13 -7.5q-51 0 -92 5t-78 17t-63.5 31t-45 47.5t-25.5 67.5q-10 51 -10 113q0 31 2.5 94.5t2.5 96.5v7v45t-1.5 41.5t-3.5 40.5t-7 35t-12 32t-17.5 24.5t-24 20t-32 11t-41.5 4.5q-24 0 -38.5 13t-14.5 35z" />
<glyph unicode="|" horiz-adv-x="510" d="M180 1125v165q0 26 8 45t25 29.5t41 10.5q76 0 76 -82q-6 -954 -6 -1012q0 -22 -0.5 -67t-0.5 -71t1 -60t3 -59q0 -38 -17.5 -56.5t-55.5 -18.5q-34 0 -52 20.5t-18 54.5q0 172 -2 535t-2 566z" />
<glyph unicode="}" horiz-adv-x="953" d="M75 49v5q0 14 0.5 21.5t4.5 15.5t13 8q27 0 46 1.5t40 6t33.5 13.5t20.5 24.5t8 37.5q0 23 -6 53l-13 64q-20 91 -20 164q0 136 61 220t175 98q-115 14 -175.5 98t-60.5 221q0 71 20 164l13 65q6 29 6 52q0 27 -11.5 44.5t-34 26t-45.5 11t-57 2.5q-2 0 -4 1t-3 3l-2 4 t-1.5 5.5t-1 6.5t-0.5 7v6.5v7v5.5q0 52 12 52q64 0 113.5 -8t90 -27t66 -52t34.5 -81q10 -52 10 -113q0 -31 -2.5 -94.5t-2.5 -96.5v-5q0 -46 0.5 -68t4.5 -58t12.5 -54t23.5 -38t39.5 -28t58.5 -8q22 0 37.5 -15t15.5 -36q0 -22 -14.5 -35t-38.5 -13q-23 0 -41.5 -4.5 t-32 -11t-24 -20t-17.5 -24.5t-12 -32t-7 -35t-3.5 -40.5t-1.5 -41.5v-45v-7q0 -33 2.5 -96.5t2.5 -94.5q0 -111 -33 -171.5t-115 -88.5q-62 -21 -166 -21q-12 0 -15 11.5t-3 32.5v5z" />
<glyph unicode="~" horiz-adv-x="1707" d="M565 714q10 82 47.5 124t117.5 42q46 0 107 -33l40 -23q17 -11 28 -11q22 0 31.5 4.5t9.5 19.5q0 11 -8 31h132q7 -24 7 -51q0 -34 -11 -59.5t-31.5 -41.5t-48 -23.5t-62.5 -7.5q-49 0 -110 33l-44 22q-20 10 -35 10q-38 0 -38 -27v-9h-132z" />
<glyph unicode="&#xa1;" d="M222 134l24 151q5 44 13.5 95.5t20 114t16.5 96.5q10 61 18 119l5 43v4q1 6 1.5 9.5t1.5 9.5t2.5 9t3.5 7.5t5 6.5t7 3.5t9 1.5q19 0 23 -27q7 -57 17.5 -122t24.5 -149t20 -122q9 -54 14 -96l25 -163q6 -47 -8 -79t-44.5 -47t-75.5 -15q-74 0 -104 37.5t-19 112.5z M228 1068q0 35 15.5 62.5t43 43t62.5 15.5q54 0 89 -34t35 -87q0 -54 -35 -89t-89 -35q-53 0 -87 35.5t-34 88.5z" />
<glyph unicode="&#xa2;" horiz-adv-x="932" d="M66 442q0 80 21 148.5t59.5 119t87.5 87.5t110 61q78 31 158 40l-1 240q1 49 20 66q16 14 31.5 9.5t27 -18t15.5 -29.5q3 -16 3 -44v-221q87 -5 154.5 -34.5t101.5 -81.5q22 -35 22 -78q0 -46 -31.5 -74.5t-77.5 -28.5q-39 0 -63.5 23.5t-24.5 63.5q0 16 10 43t10 40 q0 22 -16 38.5t-37.5 24t-47.5 10.5v-752q104 3 232 36q7 2 11 -2t4 -10q0 -24 -5 -29q-91 -83 -242 -102v-50v-27v-27v-23t-0.5 -24t-1.5 -20.5t-2.5 -21.5t-3 -18.5t-4.5 -19.5q-3 -12 -6.5 -18.5t-9.5 -10.5t-16 -4q-14 0 -23.5 8t-14 18.5t-7 30t-3 31t-0.5 33.5l-1 139 q-151 3 -254.5 76t-151.5 194q-33 84 -33 188zM272 472q0 -155 57.5 -253.5t175.5 -118.5l-3 737q-109 -31 -169.5 -126.5t-60.5 -238.5z" />
<glyph unicode="&#xa3;" horiz-adv-x="1073" d="M-10 160q0 71 44.5 110.5t119.5 39.5q65 0 138 -21l-65 285h-18h-33.5t-29.5 1t-28 4t-20.5 8t-15 13.5t-4.5 20.5q0 8 2.5 15t8 11.5t11 8t15.5 5.5t16.5 3t19.5 1.5t19.5 0.5h20.5h19l-9 176q-1 6 -1 12v11q0 127 66 209t174 116q66 20 132 20q88 0 156 -31t101 -86 q23 -39 23 -88q0 -44 -30.5 -75.5t-73.5 -31.5q-36 0 -63.5 27t-27.5 63q0 16 10 43t10 40q0 27 -12.5 48t-34 33t-47.5 12q-59 0 -96.5 -43t-56.5 -106q-15 -53 -15 -128v-19q0 -10 1 -20l10 -182h228q6 -24 6 -50q0 -36 -6 -42h-228l15 -210q-5 -65 -20 -122q6 -2 17 -7 l124 -51q59 -24 106 -24q65 0 103 29.5t67 82.5q1 3 4 8t4.5 8.5t4.5 8.5t6 8t6.5 5t7.5 2q7 0 19 -5q-3 -43 -6 -72.5t-10 -65.5t-17 -60t-26 -48.5t-37.5 -39t-52.5 -23.5t-70 -9q-79 0 -193 56q-48 24 -95 52l-21 12q-46 -68 -114 -98q-47 -22 -92 -22q-74 0 -120 48.5 t-46 122.5zM100 158q0 -24 17 -38.5t44 -14.5q79 0 116 54q-79 46 -125 46q-23 0 -37.5 -13t-14.5 -34z" />
<glyph unicode="&#xa4;" horiz-adv-x="932" d="M75 1175q0 16 21 30.5t41 14.5q17 0 25 -4t15 -15q16 -22 50 -68q33 -45 61 -85q21 11 50 20t61.5 14.5t62.5 5.5q91 0 163 -35l104 150q10 15 21.5 20.5t32.5 5.5q11 0 20.5 -4.5t16 -12t10 -17.5t3.5 -22q0 -23 -18 -43l-109 -135q87 -87 87 -218q0 -130 -81 -215 q46 -60 73 -90l42 -46q2 -2 5.5 -6.5t4.5 -5.5t4 -4.5t3.5 -5t2 -5t1.5 -6.5t0.5 -7.5t0.5 -9.5q0 -16 -21 -30.5t-41 -14.5q-17 0 -25 4t-15 15q-8 10 -21 28q-27 37 -61 83l-29 42q-72 -40 -174 -40q-91 0 -163 35l-104 -150q-17 -27 -56 -27q-23 0 -36 15t-13 39t19 46 l109 135q-87 87 -87 218q0 130 81 215q-31 40 -53 66q-44 51 -62 70q-6 6 -8 8.5t-5.5 8t-5 9t-2.5 10t-1 14.5zM258 793q0 -70 21 -121t67 -80.5t114 -29.5q65 0 113.5 31.5t72.5 82.5q18 36 18 82q0 71 -21.5 123t-68 82.5t-114.5 30.5q-64 0 -112 -33.5t-73 -84.5 q-17 -37 -17 -83z" />
<glyph unicode="&#xa5;" horiz-adv-x="1324" d="M64 1159q0 2 4 17h626q4 -11 4 -18t-6.5 -13.5t-21 -12t-22.5 -8.5t-26 -7t-18 -5q-1 0 -14.5 -3t-18 -4.5t-17 -5.5t-18 -7.5t-13.5 -8.5t-11 -11t-3 -13q0 -9 5 -19l230 -410l214 410q6 10 6 20t-6 18t-20 13.5t-21 7.5t-23 6q-2 1 -13 4t-14.5 3.5t-13 3.5t-14 4.5 t-13 4t-13.5 5t-11.5 5.5t-11.5 6t-10 7q-4 3 -4 11q0 2 4 17h496q4 -11 4 -19q0 -23 -91 -38q-60 -10 -94.5 -26.5t-55.5 -52.5l-266 -460v-93h229q41 0 63 -9t37 -33q10 -17 -12 -35.5t-72 -19.5l-245 3v-88l256 2q30 0 51.5 -9t25.5 -29q3 -19 -13 -35t-36 -21 q-16 -3 -44 -3h-240v-86q0 -24 15.5 -39.5t42 -22t53.5 -9.5t57.5 -6.5t47.5 -9.5t17 -20q0 -4 -4 -17h-670q-5 10 -5 18t4 14t12.5 9.5t17 6t21 3.5t21.5 2t21.5 1.5t18.5 0.5q23 2 41 5.5t36 11.5t28 22.5t10 35.5v80h-77h-27h-27h-23t-24 0.5t-20.5 1.5t-21.5 2.5 t-18.5 3t-19.5 4.5q-18 5 -25.5 11.5t-7.5 20.5t8 23.5t18.5 14t30 7t31 3t33.5 0.5l170 1v92q-20 0 -70.5 -2t-70 -2t-66.5 2q-39 4 -61.5 16.5t-22.5 42.5q0 6 2 10.5t6 7.5t8 5.5t11 4t12.5 2.5t14.5 1.5t14 1t15 0.5h15q42 2 116 2h77v43l-280 500q-3 5 -8 10t-13 10.5 t-13 8.5t-16 9t-14 7q-24 14 -50 27l-49 25q-2 2 -9.5 5.5t-14 6.5t-13 7t-10.5 7.5t-4 5.5z" />
<glyph unicode="&#xa6;" horiz-adv-x="510" d="M180 277v195q0 26 8 45t25 29.5t41 10.5q76 0 76 -82l-4 -176q-2 -72 -2 -151q0 -91 3 -130q0 -38 -17.5 -56.5t-55.5 -18.5q-34 0 -52 20.5t-18 54.5q0 35 -4 259zM180 1290q0 40 19 62.5t55 22.5q76 0 76 -82l-4 -176q-2 -72 -2 -151q0 -91 3 -130q0 -38 -17.5 -56.5 t-55.5 -18.5q-34 0 -52 20.5t-18 54.5q0 71 -2 225.5t-2 228.5z" />
<glyph unicode="&#xa7;" horiz-adv-x="891" d="M99 67l11 213q16 12 38 12q18 0 28 -20.5t10 -49.5q0 -38 9.5 -67.5t27.5 -50t41.5 -34.5t55.5 -22t65 -11.5t74 -3.5q63 0 112.5 25.5t74.5 67.5q17 27 17 58q0 15 -3.5 29t-8 24t-14.5 20.5t-16 16t-20.5 14.5t-20.5 12.5t-23 12.5q-48 26 -263 143q-178 98 -178 245 q0 121 106 188q-85 77 -85 172q0 76 44 127t113 75q48 17 108 17q100 0 218 -29q34 -9 55 -19l14 -188q-8 -2 -25 -2q-14 0 -28.5 22t-16.5 39q-29 131 -215 131q-80 0 -130.5 -30.5t-50.5 -95.5q0 -62 91 -106l255 -134q55 -28 89.5 -53.5t57.5 -59.5q29 -45 29 -124 q0 -114 -93 -180q40 -28 62.5 -51.5t38 -64t15.5 -95.5q0 -93 -54 -153t-139 -86q-59 -18 -127 -18q-141 0 -277 49q-44 15 -72 35zM208 751q0 -40 26 -65.5t71 -48.5l274 -143l18 -10q51 42 51 95q0 20 -6.5 37t-14 27.5t-24 22.5t-25.5 17t-29 17q-46 24 -246 133 q-6 3 -12.5 7l-13 8t-11.5 7q-58 -35 -58 -104z" />
<glyph unicode="&#xa8;" horiz-adv-x="1707" d="M458 205q0 48 30.5 79.5t78.5 31.5t79.5 -31.5t31.5 -79.5t-31.5 -78.5t-79.5 -30.5q-47 0 -78 31t-31 78zM1014 205q0 48 30.5 79.5t78.5 31.5t79.5 -31.5t31.5 -79.5t-31.5 -78.5t-79.5 -30.5q-47 0 -78 31t-31 78z" />
<glyph unicode="&#xa9;" horiz-adv-x="1393" d="M52 590q0 100 26.5 186.5t74 152t106.5 115t131 86.5q145 74 307 74q251 0 439 -156q95 -79 150 -193.5t55 -264.5q0 -145 -50.5 -259t-138.5 -194q-83 -77 -199.5 -121t-256.5 -44q-248 0 -438 162q-206 176 -206 456zM180 636q0 -204 84.5 -344.5t236.5 -204.5 q104 -45 239 -45q105 0 192.5 40t150.5 105q42 43 73 95t50.5 121t19.5 143q0 197 -80 336t-223 205q-102 47 -238 47q-73 0 -137.5 -15t-116.5 -42.5t-94.5 -66t-73 -85.5t-50.5 -102q-33 -90 -33 -187zM275 601q0 103 39.5 184t105.5 139q59 52 139 83.5t171 31.5 q100 0 263 -47l20 -185q-12 -3 -17 -3q-17 0 -31.5 23.5t-26.5 56t-17 39.5q-30 36 -86.5 53.5t-126.5 17.5q-118 0 -198 -104q-82 -106 -82 -256q0 -130 49.5 -220.5t140.5 -130.5q59 -27 133 -27q109 0 190 24l69 20h1q6 0 8 -8.5t-3 -12.5q-49 -54 -128 -86t-175 -32 q-150 0 -253.5 69.5t-151.5 188.5q-33 81 -33 182z" />
<glyph unicode="&#xaa;" horiz-adv-x="793" d="M76 354q0 39 12.5 69t31 48t50 32.5t58 21.5t66.5 15l91 17q46 8 89 23v94q0 45 -4.5 76t-17.5 58t-39.5 40t-66.5 13q-38 0 -77.5 -16t-39.5 -43q0 -10 7 -31.5t7 -34.5q0 -31 -17.5 -50t-46.5 -19q-22 0 -40 10.5t-28 28.5t-10 41q0 43 24 74.5t64 48.5t83.5 24.5 t90.5 7.5q92 0 149.5 -29.5t84.5 -89t27 -153.5v-289q0 -9 3 -15.5t9 -11t12 -7t16.5 -4t17 -2.5t18 -1.5t16.5 -1.5q17 -1 17 -13q0 -16 -17 -27t-45.5 -16t-51 -6.5t-46.5 -1.5q-44 0 -69 31.5t-25 78.5q-55 -50 -110.5 -80t-126.5 -30q-73 0 -119.5 29t-46.5 91zM233 363 q0 -36 17.5 -52.5t54.5 -16.5q22 0 47.5 8.5t38.5 15.5t38 22q24 14 45 31v185q-81 -25 -129 -42q-32 -12 -50.5 -21.5t-34 -26t-21.5 -41t-6 -62.5z" />
<glyph unicode="&#xab;" horiz-adv-x="958" d="M66 495q33 35 174 183t217 227q14 15 22 15q29 0 44 -15.5t15 -43.5q0 -17 -28 -54l-243 -312l233 -329q20 -27 20 -55q0 -17 -1.5 -26.5t-8.5 -17t-21 -7.5q-28 0 -41.5 8.5t-34.5 32.5zM406 495q33 35 174 183t217 227q14 15 22 15q29 0 44 -15.5t15 -43.5 q0 -17 -28 -54l-243 -312l233 -329q18 -26 20 -55q0 -17 -1.5 -26.5t-8.5 -17t-21 -7.5q-28 0 -41.5 8.5t-34.5 32.5z" />
<glyph unicode="&#xac;" horiz-adv-x="1287" d="M118 703q0 34 20.5 52t54.5 18q31 0 97.5 -1.5t97.5 -1.5q33 0 55 1l647 6q41 0 68 -19.5t27 -54.5q0 -70 6 -216t6 -210q0 -41 -16 -60t-55 -19q-33 0 -56 18.5t-23 47.5v58l1 69q1 36 1 68.5t-1 54.5l-1 121h-375q-349 0 -479 -5q-38 0 -56.5 17.5t-18.5 55.5z" />
<glyph unicode="&#xad;" horiz-adv-x="1022" d="M277 428q0 19 1.5 28.5t8 17t20 10t39.5 2.5h348q44 0 58.5 -12t14.5 -52v-5v-12.5t-0.5 -10t-2 -9t-3.5 -6.5t-5.5 -5.5t-8 -3t-11.5 -1.5q-15 -1 -42 -1h-344h-8q-16 0 -24 0.5t-18 3t-15 8.5t-7 16q-1 12 -1 32z" />
<glyph unicode="&#xae;" horiz-adv-x="1393" d="M52 590q0 100 26.5 186.5t74 152t106.5 115t131 86.5q145 74 307 74q251 0 439 -156q95 -79 150 -193.5t55 -264.5q0 -145 -50.5 -259t-138.5 -194q-83 -77 -199.5 -121t-256.5 -44q-248 0 -438 162q-206 176 -206 456zM180 636q0 -204 84.5 -344.5t236.5 -204.5 q104 -45 239 -45q105 0 192.5 40t150.5 105q42 43 73 95t50.5 121t19.5 143q0 197 -80 336t-223 205q-102 47 -238 47q-73 0 -137.5 -15t-116.5 -42.5t-94.5 -66t-73 -85.5t-50.5 -102q-33 -90 -33 -187zM354 230q0 7 3.5 11.5t11 6.5t12.5 3t17 2t14 2q28 3 43 13t15 35 v589q0 14 -6 24.5t-18.5 18t-22.5 11.5t-26.5 9t-23.5 8q-18 7 -18 22q0 4 3 11h253q57 0 101 -2t95 -9.5t88 -20.5t69 -36t49 -54t17 -73q0 -45 -19.5 -79.5t-53 -55.5t-73 -32.5t-84.5 -15.5l192 -350q1 -3 4 -5t7 -3.5t9 -2t9 -1t10 -0.5h9q19 -2 29 -10.5t10 -27.5h-217 q-45 88 -67 132t-56.5 120.5t-57.5 139.5l-69 8v-318q0 -23 15 -33t42 -14l39 -7q18 -3 18 -17v-4q0 -2 -2 -7h-366q-4 4 -4 12zM612 644h2q48 2 72 3.5t62.5 7t58 16t41 27t30.5 43.5t9 63q0 30 -8 53.5t-21 39t-34.5 27t-42.5 17.5t-52 9.5t-56 4.5t-61 1v-312z" />
<glyph unicode="&#xaf;" horiz-adv-x="1022" d="M277 155q0 28 5 40t24 15q14 3 40 3h348q44 0 58.5 -12t14.5 -52v-5q0 -19 -1 -26.5t-8 -14t-22 -7.5t-42 -1h-344h-8q-16 0 -24 0.5t-18 3t-15 8.5t-7 17q-1 11 -1 31z" />
<glyph unicode="&#xb0;" d="M153 984q0 62 35 108t88 69q36 17 78 17q65 0 112.5 -34.5t71.5 -87.5q15 -35 15 -72q0 -62 -34.5 -108t-86.5 -69q-36 -16 -78 -16q-66 0 -113.5 33t-71.5 85q-16 35 -16 75zM237 985q0 -32 15.5 -58.5t42 -41t59.5 -14.5q49 0 83 33t34 81t-34.5 80.5t-82.5 32.5 t-82.5 -32.5t-34.5 -80.5z" />
<glyph unicode="&#xb1;" horiz-adv-x="705" d="M50 448q0 27 11 35.5t41 12.5q24 2 66 2h133v129q0 7 -0.5 20.5t-0.5 22t0.5 20.5t2 20t4.5 16t7.5 13t11.5 7q10 2 28 2q27 0 35.5 -11t12.5 -41q2 -24 2 -66v-132h130h9q31 0 48.5 -1t37 -8t23.5 -22q3 -10 3 -25q0 -29 -10.5 -37t-43.5 -9q-24 -1 -67 -1h-130v-131v-9 q0 -31 -1 -48.5t-8 -37t-22 -23.5q-10 -3 -25 -3q-28 0 -36.5 10.5t-9.5 42.5q-1 24 -1 68v131h-130q-7 0 -20.5 -0.5t-22 -0.5t-20.5 0.5t-20 2t-16 4.5t-13 7.5t-7 11.5q-2 10 -2 28z" />
<glyph unicode="&#xb2;" horiz-adv-x="782" d="M42 1163q-5 18 5 23q39 50 105.5 81t147.5 31q89 0 155 -26t104.5 -82.5t38.5 -139.5q0 -81 -29.5 -139.5t-87.5 -125.5q-55 -64 -129.5 -138.5t-161.5 -177.5l262 23q23 1 39 7.5t25 15t15.5 22.5t10 27.5t10 32.5t14.5 33q14 28 26 28q3 0 15 -3l-17 -272q-5 -1 -8 -1 h-6q-12 0 -46 0.5t-54 0.5q-32 0 -104 0.5t-106 0.5q-123 0 -207 -2l-11 40q129 170 210 272q6 7 28.5 36t29.5 38.5t25.5 36.5t25.5 41.5t19.5 41.5t17 48.5t9 51t4.5 60.5q0 81 -33 130t-101 49q-90 0 -210 -69q-5 -4 -11.5 -6.5t-12.5 0t-7 11.5z" />
<glyph unicode="&#xb3;" horiz-adv-x="918" d="M52 521q0 31 23.5 55t54.5 24q27 0 47.5 -20t20.5 -47q0 -12 -7.5 -32.5t-7.5 -29.5q0 -27 40.5 -42t79.5 -15q95 0 148 62.5t53 160.5q0 102 -46.5 164t-139.5 62q-34 0 -74 -9l-34 38q130 62 195 115.5t65 109.5q0 54 -25.5 80.5t-79.5 26.5q-37 0 -76.5 -11.5 t-63 -23.5t-58.5 -32q-15 -15 -29 0q-13 15 0 25q1 1 3 2q38 49 101 79.5t141 30.5q69 0 119 -31.5t72 -82.5q13 -30 13 -58q0 -104 -131 -171q-43 -21 -97 -35q5 0 15.5 0.5t15.5 0.5q128 0 203.5 -75t75.5 -202q0 -90 -55 -151.5t-139 -92.5q-66 -24 -154 -24q-49 0 -93 8 t-82 24.5t-63 40.5q-31 29 -31 76z" />
<glyph unicode="&#xb4;" horiz-adv-x="1350" d="M533 71q0 27 34 52q17 12 61 44t67 49.5t58.5 44.5t63.5 52.5t53 51.5l24 25q40 42 83 42q34 0 55 -32.5t21 -72.5v-6q0 -13 -0.5 -19t-3 -13.5t-8.5 -11.5q-20 -12 -51 -27q-65 -32 -146 -71l-76 -37q-82 -41 -112 -64q-52 -39 -81 -39q-42 0 -42 32z" />
<glyph unicode="&#xb6;" horiz-adv-x="1238" d="M251 816q0 66 17 119.5t46 90.5t74 65t93.5 44.5t112.5 26t123.5 13t133.5 3.5h434q4 -15 4 -17q0 -7 -4 -13t-8.5 -9.5t-14.5 -7t-14 -5t-15 -3.5l-52 -14q-17 -4 -29.5 -8t-28.5 -11.5t-26 -16t-17 -22t-7 -29.5v-892q0 -14 3.5 -24.5t8.5 -18t15 -13t17.5 -9t22 -6 t22.5 -3.5t25 -3t25 -2q48 -6 48 -33q0 -8 -5 -18h-302l1 1058h-80v-1058h-319q-4 13 -4 17q0 5 2.5 9.5t7 7.5t10.5 5.5t13.5 4.5t14 3t15 2t15 1.5t14 1.5t12.5 1q21 2 36.5 6t32 11.5t25.5 21t9 32.5v364q-88 0 -159 8.5t-137.5 30.5t-111.5 58t-72 94.5t-27 136.5z" />
<glyph unicode="&#xb7;" d="M198 755q0 47 26.5 82.5t66.5 52.5q28 13 60 13q34 0 63 -13t47.5 -33.5t30.5 -46.5q12 -27 12 -55q0 -47 -27 -82.5t-66 -53.5q-28 -12 -60 -12q-65 0 -109 42t-44 106z" />
<glyph unicode="&#xb8;" d="M203 -393l20 88q6 -7 16 -13.5t22.5 -10.5t27 -6.5t27.5 -2.5q34 0 56.5 14.5t22.5 44.5q0 31 -17.5 54t-45 34t-60.5 11q-17 0 -39 -5l50 198h74l-30 -112q86 0 148 -29.5t88 -84.5q16 -33 16 -67q0 -80 -63 -124t-153 -44q-97 0 -160 55z" />
<glyph unicode="&#xb9;" horiz-adv-x="664" d="M38 1193q0 5 4 13l310 85q6 0 6 -13q0 -18 -1.5 -48.5t-1.5 -42.5v-700q0 -25 16 -37.5t36 -14t49 -3.5t44 -8q12 -5 12 -17q0 -5 -4 -15h-466q-3 12 -3 13q0 14 22 21t53 11t38 6q39 14 39 48v612q0 29 -23.5 42.5t-64.5 19.5t-53 12q-12 5 -12 16z" />
<glyph unicode="&#xba;" horiz-adv-x="1096" d="M66 568q0 120 60.5 200t159.5 113q63 21 129 21q114 0 196.5 -51.5t123.5 -136.5q30 -63 30 -146q0 -120 -60.5 -199.5t-160.5 -112.5q-62 -21 -127 -21q-114 0 -197 51t-124 137q-30 62 -30 145zM215 592q0 -101 33.5 -174t97.5 -104q37 -18 75 -18q67 0 111.5 40 t66.5 102q17 47 17 109q0 71 -13.5 129t-43.5 102.5t-73 66.5q-37 19 -75 19q-68 0 -112.5 -44t-66.5 -111q-17 -51 -17 -117z" />
<glyph unicode="&#xbb;" horiz-adv-x="958" d="M80 860q0 18 6.5 31t20 20.5t32.5 7.5q8 0 22 -15q76 -79 216 -226t175 -184l-347 -394q-21 -25 -34.5 -33t-41.5 -8q-19 0 -25 12.5t-6 38.5q2 29 20 55l233 329l-243 312q-28 37 -28 54zM420 860q0 18 6.5 31t20 20.5t32.5 7.5q8 0 22 -15q76 -79 216 -226t175 -184 l-347 -394q-21 -25 -34.5 -33t-41.5 -8q-19 0 -25 12.5t-6 38.5q0 28 20 55l233 329l-243 312q-28 37 -28 54z" />
<glyph unicode="&#xbc;" horiz-adv-x="2356" d="M138 1124q0 5 4 13l310 85q6 0 6 -13q0 -18 -1.5 -48.5t-1.5 -42.5v-700q0 -21 9.5 -32.5t26.5 -15.5t35 -5t39.5 -3t34.5 -7q12 -5 12 -17q0 -5 -4 -15h-466q-3 12 -3 13q0 9 9 15t24 9t29.5 5.5t29.5 4.5t21 4q39 14 39 48v612q0 29 -23.5 42.5t-64.5 19.5t-53 12 q-12 5 -12 16zM595 -12l470 1091q6 16 22.5 57t28.5 73.5t20 60.5q10 31 10 46q0 25 27 35.5t64 10.5q32 0 49 -12.5t16 -40.5v-26t-16 -43q-152 -284 -281.5 -598t-262.5 -700q-13 -38 -36 -54.5t-68 -16.5q-23 0 -37 20.5t-13.5 46.5t7.5 50zM1219 393l383 625 q17 1 53.5 5t64.5 6t54 2v-614l99 2q38 0 58.5 -9t20.5 -34q0 -19 -19 -49h-159v-130q0 -20 17 -31t37.5 -13.5t48.5 -5.5t40 -6q12 -4 12 -12q0 -13 -3 -19h-462q-2 5 -2 9v6q0 13 21 20t52 10.5t36 5.5q39 12 39 40v126h-380zM1324 413h286v488z" />
<glyph unicode="&#xbd;" horiz-adv-x="2268" d="M38 1124q0 5 4 13l310 85q6 0 6 -13q0 -18 -1.5 -48.5t-1.5 -42.5v-700q0 -25 16 -37.5t36 -14t49 -3.5t44 -8q12 -5 12 -17q0 -5 -4 -15h-466q-3 12 -3 13q0 9 9 15t24 9t29.5 5.5t29.5 4.5t21 4q39 14 39 48v612q0 29 -23.5 42.5t-64.5 19.5t-53 12q-12 5 -12 16z M468 -12l470 1091q6 16 22.5 57t28.5 73.5t20 60.5q10 31 10 46q0 25 27 35.5t64 10.5q32 0 49 -12.5t16 -40.5v-26t-16 -43q-152 -284 -281.5 -598t-262.5 -700q-13 -38 -36 -54.5t-68 -16.5q-23 0 -37 20.5t-13.5 46.5t7.5 50zM1121 887q-5 18 5 23q39 50 105.5 81 t147.5 31q89 0 155 -26t104.5 -82.5t38.5 -139.5q0 -81 -29.5 -139.5t-87.5 -125.5q-55 -64 -129.5 -138.5t-161.5 -177.5l262 23q28 1 45 9t26.5 22.5t14 29.5t12 38t15.5 40q15 27 27 27q3 0 15 -3l-17 -272q-5 -1 -8 -1h-6q-12 0 -46 0.5t-54 0.5q-32 0 -104 0.5 t-107 0.5q-122 0 -206 -2l-11 40q128 169 210 272q6 7 28.5 36t29.5 38.5t25.5 36.5t25.5 41.5t19.5 41.5t17 48.5t9 51t4.5 60.5q0 81 -33 130t-101 49q-90 0 -210 -69q-5 -4 -11.5 -6.5t-12.5 0t-7 11.5z" />
<glyph unicode="&#xbe;" horiz-adv-x="2610" d="M52 452q0 20 11 38.5t29 29.5t38 11q27 0 47.5 -20t20.5 -47q0 -12 -7.5 -32.5t-7.5 -29.5q0 -27 40.5 -42t79.5 -15q95 0 148 62.5t53 160.5q0 102 -46.5 164t-139.5 62q-34 0 -74 -9l-34 38q130 62 195 115.5t65 109.5q0 54 -25.5 80.5t-79.5 26.5q-37 0 -76.5 -11.5 t-63 -23.5t-58.5 -32q-15 -15 -29 0q-13 15 0 25q1 1 3 2q38 49 101 79.5t141 30.5q69 0 119 -31.5t72 -82.5q13 -30 13 -58q0 -104 -131 -171q-43 -21 -97 -35q5 0 15.5 0.5t15.5 0.5q128 0 203.5 -75t75.5 -202q0 -38 -10.5 -71.5t-29 -59.5t-43.5 -48t-52.5 -38 t-58.5 -27q-66 -24 -154 -24q-49 0 -93 8t-82 24.5t-63 40.5q-31 29 -31 76zM656 -12l470 1091q6 16 17.5 44.5t19.5 49.5t18 48t17 48q9 32 9 47q0 25 27 35.5t64 10.5q32 0 49 -12.5t16 -40.5v-26t-16 -43q-152 -284 -281.5 -598t-262.5 -700q-13 -38 -36 -54.5t-68 -16.5 q-23 0 -37 20.5t-13.5 46.5t7.5 50zM1229 393l383 625q17 1 53.5 5t65 6t53.5 2v-614l99 2q38 0 58.5 -9t20.5 -34q0 -19 -19 -49h-159v-130q0 -20 17 -31t37.5 -13.5t48.5 -5.5t41 -7q11 -3 11 -11q0 -13 -3 -19h-462q-2 5 -2 9v6q0 13 21 20t52 10.5t37 5.5q38 12 38 40 v126h-380zM1334 413h286v488z" />
<glyph unicode="&#xbf;" horiz-adv-x="856" d="M80 227q0 125 99 224q30 30 82.5 69t98 76.5t73.5 77t28 91.5q0 32 -12 68h91q33 -50 33 -101q0 -35 -15 -71t-30 -57.5t-40 -52.5q-22 -26 -57 -63.5t-61 -65.5t-55 -66t-47 -74q-25 -48 -25 -99q0 -49 31 -82.5t75.5 -47t99.5 -13.5q100 0 140 44q12 14 12 32 q0 13 -10 40.5t-10 42.5q0 36 27.5 63t63.5 27q43 0 73.5 -31t30.5 -75q0 -52 -27.5 -91t-73.5 -60.5t-98.5 -32t-110.5 -10.5q-115 0 -209 35.5t-143 100.5q-34 44 -34 102zM362 1070q0 53 35 87t89 34q53 0 87 -34t34 -87q0 -35 -15.5 -63.5t-43 -44.5t-62.5 -16 q-54 0 -89 35t-35 89z" />
<glyph unicode="&#xc0;" horiz-adv-x="1319" d="M15 18q0 6 2.5 11.5t8 9.5t11 6.5t14.5 5t14.5 3.5t15 3t13.5 3q84 17 102 70l359 968q25 72 43 101q16 27 43 27q5 0 9 -1t7.5 -4.5t6 -5.5t6 -7.5t5 -8t5.5 -9.5t4 -9q13 -22 30 -64l394 -993q5 -14 15 -24.5t19.5 -16.5t27 -12t27.5 -8t33 -6.5t31 -6.5q43 -9 43 -33 q0 -4 -4 -17h-594q-5 10 -5 18q0 15 34 26t76.5 18.5t50.5 10.5q19 9 19 30q0 12 -6 27l-127 384h-329l-143 -390q-4 -11 -4 -24q0 -10 5 -18t11.5 -12t18.5 -7.5t20 -4.5t22 -2q3 -1 14 -2t15.5 -1.5t14.5 -2t15.5 -2t14.5 -2t14.5 -2.5t13.5 -3t14 -4t12.5 -4t12.5 -5 q4 -3 4 -11q0 -5 -4 -17h-471q-4 8 -4 18zM320 1557q0 40 21 72.5t55 32.5q18 0 35.5 -8t26 -15t22.5 -20l26 -25q40 -39 96 -84q71 -56 217 -162q36 -25 36 -52q0 -18 -13.5 -27.5t-32.5 -9.5q-12 0 -43 16q-19 10 -40 22t-43.5 24.5t-45.5 24.5q-102 54 -203 107l-78 42 q-36 20 -36 62zM439 574h286l-152 407z" />
<glyph unicode="&#xc1;" horiz-adv-x="1319" d="M15 18q0 6 2.5 11.5t8 9.5t11 6.5t14.5 5t14.5 3.5t15 3t13.5 3q84 17 102 70l359 968q25 72 43 101q16 27 43 27q5 0 9 -1t7.5 -4.5t6 -5.5t6 -7.5t5 -8t5.5 -9.5t4 -9q13 -22 30 -64l394 -993q5 -14 15 -24.5t19.5 -16.5t27 -12t27.5 -8t33 -6.5t31 -6.5q43 -9 43 -33 q0 -4 -4 -17h-594q-5 10 -5 18q0 15 34 26t76.5 18.5t50.5 10.5q19 9 19 30q0 12 -6 27l-127 384h-329l-143 -390q-4 -11 -4 -24q0 -10 5 -18t11.5 -12t18.5 -7.5t20 -4.5t22 -2q3 -1 14 -2t15.5 -1.5t14.5 -2t15.5 -2t14.5 -2t14.5 -2.5t13.5 -3t14 -4t12.5 -4t12.5 -5 q4 -3 4 -11q0 -5 -4 -17h-471q-4 8 -4 18zM424 1301q0 27 34 52q17 12 61 44t67 49.5t58.5 44.5t63.5 52.5t53 51.5l24 25q40 42 83 42q34 0 55 -32.5t21 -72.5v-6q0 -13 -0.5 -19t-3 -13.5t-8.5 -11.5q-20 -12 -52 -27q-64 -32 -145 -71l-76 -37q-82 -41 -112 -64 q-52 -39 -81 -39q-42 0 -42 32zM439 574h286l-152 407z" />
<glyph unicode="&#xc2;" horiz-adv-x="1319" d="M15 18q0 6 2.5 11.5t8 9.5t11 6.5t14.5 5t14.5 3.5t15 3t13.5 3q84 17 102 70l359 968q25 72 43 101q16 27 43 27q5 0 9 -1t7.5 -4.5t6 -5.5t6 -7.5t5 -8t5.5 -9.5t4 -9q13 -22 30 -64l394 -993q5 -14 15 -24.5t19.5 -16.5t27 -12t27.5 -8t33 -6.5t31 -6.5q43 -9 43 -33 q0 -4 -4 -17h-594q-5 10 -5 18q0 15 34 26t76.5 18.5t50.5 10.5q19 9 19 30q0 12 -6 27l-127 384h-329l-143 -390q-4 -11 -4 -24q0 -10 5 -18t11.5 -12t18.5 -7.5t20 -4.5t22 -2q3 -1 14 -2t15.5 -1.5t14.5 -2t15.5 -2t14.5 -2t14.5 -2.5t13.5 -3t14 -4t12.5 -4t12.5 -5 q4 -3 4 -11q0 -5 -4 -17h-471q-4 8 -4 18zM317 1315q0 17 14 47l117 242q55 113 104 226q17 36 56.5 49t79.5 -10q23 -16 34 -39q14 -30 31 -69q18 -39 60 -128q42 -91 130 -271q14 -30 14 -47q0 -38 -51 -38q-3 0 -7.5 2t-7.5 4.5t-8 7t-7.5 7t-7.5 8t-6 6.5q-27 29 -43 53 q-32 45 -82 115q-51 70 -100 138l-102 -138q-10 -14 -41.5 -62.5t-55.5 -78t-52 -52.5q-12 -10 -18 -10q-51 0 -51 38zM439 574h286l-152 407z" />
<glyph unicode="&#xc3;" horiz-adv-x="1319" d="M15 18q0 6 2.5 11.5t8 9.5t11 6.5t14.5 5t14.5 3.5t15 3t13.5 3q84 17 102 70l359 968q25 72 43 101q16 27 43 27q5 0 9 -1t7.5 -4.5t6 -5.5t6 -7.5t5 -8t5.5 -9.5t4 -9q13 -22 30 -64l394 -993q5 -14 15 -24.5t19.5 -16.5t27 -12t27.5 -8t33 -6.5t31 -6.5q43 -9 43 -33 q0 -4 -4 -17h-594q-5 10 -5 18q0 15 34 26t76.5 18.5t50.5 10.5q19 9 19 30q0 12 -6 27l-127 384h-329l-143 -390q-4 -11 -4 -24q0 -10 5 -18t11.5 -12t18.5 -7.5t20 -4.5t22 -2q3 -1 14 -2t15.5 -1.5t14.5 -2t15.5 -2t14.5 -2t14.5 -2.5t13.5 -3t14 -4t12.5 -4t12.5 -5 q4 -3 4 -11q0 -5 -4 -17h-471q-4 8 -4 18zM391 1341q0 162 130 162q8 0 16.5 -1t18.5 -4t16.5 -5t17.5 -6.5t16 -6.5t16.5 -7.5t13.5 -5.5l57 -25q28 -12 48 -12q31 0 31 38q0 10 -0.5 16t-0.5 9q0 34 67 34q35 0 50 -12t15 -43v-24q0 -46 -10 -76.5t-35.5 -49t-66.5 -18.5 q-9 0 -19.5 2t-19.5 4.5t-20.5 7t-18.5 8t-18.5 9t-16.5 7.5q-4 2 -19.5 9t-23.5 10.5t-22 8.5t-25.5 7.5t-22.5 2.5q-23 0 -32.5 -13.5t-9.5 -41.5q0 -12 -57 -12q-75 0 -75 28zM439 574h286l-152 407z" />
<glyph unicode="&#xc4;" horiz-adv-x="1319" d="M15 18q0 6 2.5 11.5t8 9.5t11 6.5t14.5 5t14.5 3.5t15 3t13.5 3q84 17 102 70l359 968q25 72 43 101q16 27 43 27q5 0 9 -1t7.5 -4.5t6 -5.5t6 -7.5t5 -8t5.5 -9.5t4 -9q13 -22 30 -64l394 -993q5 -14 15 -24.5t19.5 -16.5t27 -12t27.5 -8t33 -6.5t31 -6.5q43 -9 43 -33 q0 -4 -4 -17h-594q-5 10 -5 18q0 15 34 26t76.5 18.5t50.5 10.5q19 9 19 30q0 12 -6 27l-127 384h-329l-143 -390q-4 -11 -4 -24q0 -10 5 -18t11.5 -12t18.5 -7.5t20 -4.5t22 -2q3 -1 14 -2t15.5 -1.5t14.5 -2t15.5 -2t14.5 -2t14.5 -2.5t13.5 -3t14 -4t12.5 -4t12.5 -5 q4 -3 4 -11q0 -5 -4 -17h-471q-4 8 -4 18zM247 1435q0 48 30.5 79.5t78.5 31.5t79.5 -31.5t31.5 -79.5t-31.5 -78.5t-79.5 -30.5q-47 0 -78 31t-31 78zM439 574h286l-152 407zM803 1435q0 48 30.5 79.5t78.5 31.5t79.5 -31.5t31.5 -79.5q0 -31 -14.5 -56t-39.5 -39t-57 -14 q-47 0 -78 31t-31 78z" />
<glyph unicode="&#xc5;" horiz-adv-x="1319" d="M15 18q0 6 2.5 11.5t8 9.5t11 6.5t14.5 5t14.5 3.5t15 3t13.5 3q84 17 102 70l359 968q25 72 43 101q16 27 43 27q5 0 9 -1t7.5 -4.5t6 -5.5t6 -7.5t5 -8t5.5 -9.5t4 -9q13 -22 30 -64l394 -993q5 -14 15 -24.5t19.5 -16.5t27 -12t27.5 -8t33 -6.5t31 -6.5q43 -9 43 -33 q0 -4 -4 -17h-594q-5 10 -5 18q0 15 34 26t76.5 18.5t50.5 10.5q19 9 19 30q0 12 -6 27l-127 384h-329l-143 -390q-4 -11 -4 -24q0 -10 5 -18t11.5 -12t18.5 -7.5t20 -4.5t22 -2q3 -1 14 -2t15.5 -1.5t14.5 -2t15.5 -2t14.5 -2t14.5 -2.5t13.5 -3t14 -4t12.5 -4t12.5 -5 q4 -3 4 -11q0 -5 -4 -17h-471q-4 8 -4 18zM435 1474q0 62 35 108t87 70q37 16 79 16q65 0 112.5 -34.5t70.5 -87.5q16 -35 16 -72q0 -62 -34.5 -108t-86.5 -69q-36 -16 -78 -16q-66 0 -113.5 33t-71.5 85q-16 35 -16 75zM439 574h286l-152 407zM519 1475q0 -49 33.5 -81.5 t83.5 -32.5q49 0 83 33t34 81t-34.5 80.5t-82.5 32.5t-82.5 -32.5t-34.5 -80.5z" />
<glyph unicode="&#xc6;" horiz-adv-x="1914" d="M16 0q-3 6 -0.5 12.5t3 10.5t6.5 8.5t9 7t11 5.5t12.5 4.5t13.5 3.5l13.5 3t13 2.5t12.5 2.5q89 17 123 70l674 968q47 72 76 101q13 14 24 20.5t28 6.5q9 0 16 -9.5t9 -17t5 -23.5l588 5q54 0 101 24l34 18q4 0 21 -5l7 -338q-14 -6 -23 -6t-16.5 4.5t-13.5 13t-10 17.5 t-7.5 22t-6 22t-5 23t-3.5 18q-6 26 -12.5 44.5t-18.5 38t-30.5 30t-42.5 11.5l-490 8q-38 1 -46.5 -14.5t-6.5 -61.5l25 -408l374 11q14 1 26 7t22 18.5t14.5 20.5t12.5 23l6 12t7 13l7.5 12.5t8.5 12.5t9.5 9.5t12 7t13.5 2.5q4 0 22 -5v-342q-12 -6 -22 -6q-17 0 -31 22 l-29 47q-5 9 -7.5 13t-8 12.5t-10 13.5t-11 11.5t-12.5 10t-14 6t-16 2.5l-370 6l18 -313l12 -169q13 -59 49 -57l448 15q16 0 29.5 3t24 9.5t18.5 13t14.5 18t11 20t8.5 24t6.5 24.5t6.5 26.5t6 27.5q6 26 16.5 41t31.5 15q3 0 23 -5l-28 -322q-17 -5 -23 -5q-19 0 -35 7.5 t-33 19.5t-28 17q-19 8 -49 8h-940q-1 5 -1 9q0 6 3 11t9 9t11.5 7t15 5.5t15 4t16 3.5t12.5 3q10 2 31.5 5t35.5 6t30 9t24.5 17t8.5 27q0 6 1 14l-3 384h-329l-270 -390q-32 -48 14 -62q15 -4 37 -6l44 -6q58 -6 87 -22q7 -5 -8 -28h-468zM621 574h286l-20 407z" />
<glyph unicode="&#xc7;" horiz-adv-x="1216" d="M62 590q0 104 26 192.5t73.5 155t108.5 115t138 83.5q147 66 326 66t333 -64l31 -270q-22 -4 -25 -4q-28 0 -58 67q-3 6 -3 7l-25 58q-29 71 -106.5 107.5t-180.5 36.5q-62 0 -119.5 -19t-99.5 -48.5t-77 -68.5q-60 -67 -94 -160.5t-34 -207.5q0 -167 52.5 -285 t162 -181.5t269.5 -63.5q156 0 334 60q6 0 9.5 -6t3.5 -12q0 -7 -5 -10q-209 -166 -465 -166q-30 0 -59 2l-20 -73q86 0 148 -29.5t88 -84.5q16 -33 16 -67q0 -80 -63 -124t-153 -44q-97 0 -160 55l20 88q12 -15 38.5 -24t54.5 -9q34 0 56.5 14.5t22.5 44.5q0 31 -17.5 54 t-45 34t-60.5 11q-17 0 -39 -5l43 169q-144 28 -244.5 115.5t-152.5 216.5q-48 116 -48 274z" />
<glyph unicode="&#xc8;" horiz-adv-x="1254" d="M11 1159q0 8 6 17h976q54 0 147 20q9 -5 9 -8l7 -308q-14 -6 -23 -6t-16.5 4.5t-13.5 13t-10 17.5t-7.5 22t-6 22t-5 23t-3.5 19q-6 25 -12.5 43.5t-18.5 38t-30.5 30t-42.5 11.5l-478 11q-37 0 -47 -16t-10 -60v-412l391 12q14 1 26 7t22 18.5t14.5 20.5t12.5 24 q2 3 6 11t7 13l7.5 12.5t8.5 12.5t9.5 9.5t12 7t13.5 2.5q4 0 22 -5v-342q-12 -6 -22 -6q-8 0 -15.5 4.5t-14.5 13.5t-11.5 16.5t-10.5 19t-8 15.5q-8 14 -14 22.5t-16.5 21t-22.5 18.5t-26 7l-391 8v-448q0 -80 45 -80l465 11q36 1 62 11.5t40.5 26t25.5 40t16.5 47 t15 54.5t19.5 55q5 14 8.5 20.5t11.5 15.5t16 9q2 0 24 -5l-28 -359q0 -5 -9 -5q-8 0 -18.5 4t-18.5 5q-69 14 -121 14h-969q-5 0 -5 10q0 24 26.5 34t70 12.5t55.5 6.5q53 14 53 67v890q0 30 -22.5 50.5t-50.5 28.5t-64.5 18t-52.5 19q-16 8 -16 23zM277 1557q0 40 21 72.5 t55 32.5q18 0 35.5 -8t26 -15t22.5 -20l26 -25q40 -39 97 -84q70 -56 216 -162q36 -25 36 -52q0 -18 -13.5 -27.5t-32.5 -9.5q-12 0 -42 16q-20 10 -41 22t-43.5 24.5t-45.5 24.5q-102 54 -202 107l-79 42q-36 20 -36 62z" />
<glyph unicode="&#xc9;" horiz-adv-x="1254" d="M11 1159q0 8 6 17h976q54 0 147 20q9 -5 9 -8l7 -308q-14 -6 -23 -6t-16.5 4.5t-13.5 13t-10 17.5t-7.5 22t-6 22t-5 23t-3.5 19q-6 25 -12.5 43.5t-18.5 38t-30.5 30t-42.5 11.5l-478 11q-37 0 -47 -16t-10 -60v-412l391 12q14 1 26 7t22 18.5t14.5 20.5t12.5 24 q2 3 6 11t7 13l7.5 12.5t8.5 12.5t9.5 9.5t12 7t13.5 2.5q4 0 22 -5v-342q-12 -6 -22 -6q-8 0 -15.5 4.5t-14.5 13.5t-11.5 16.5t-10.5 19t-8 15.5q-8 14 -14 22.5t-16.5 21t-22.5 18.5t-26 7l-391 8v-448q0 -80 45 -80l465 11q36 1 62 11.5t40.5 26t25.5 40t16.5 47 t15 54.5t19.5 55q5 14 8.5 20.5t11.5 15.5t16 9q2 0 24 -5l-28 -359q0 -5 -9 -5q-8 0 -18.5 4t-18.5 5q-69 14 -121 14h-969q-5 0 -5 10q0 24 26.5 34t70 12.5t55.5 6.5q53 14 53 67v890q0 30 -22.5 50.5t-50.5 28.5t-64.5 18t-52.5 19q-16 8 -16 23zM381 1301q0 27 34 52 q17 12 61 44t67 49.5t58.5 44.5t64 52.5t53.5 51.5l23 25q40 42 83 42q34 0 55 -32.5t21 -72.5v-6q0 -13 -0.5 -19t-3 -13.5t-8.5 -11.5q-20 -12 -51 -27q-65 -32 -146 -71l-76 -37q-82 -41 -112 -64q-52 -39 -81 -39q-42 0 -42 32z" />
<glyph unicode="&#xca;" horiz-adv-x="1254" d="M11 1159q0 8 6 17h976q54 0 147 20q9 -5 9 -8l7 -308q-14 -6 -23 -6t-16.5 4.5t-13.5 13t-10 17.5t-7.5 22t-6 22t-5 23t-3.5 19q-6 25 -12.5 43.5t-18.5 38t-30.5 30t-42.5 11.5l-478 11q-37 0 -47 -16t-10 -60v-412l391 12q14 1 26 7t22 18.5t14.5 20.5t12.5 24 q2 3 6 11t7 13l7.5 12.5t8.5 12.5t9.5 9.5t12 7t13.5 2.5q4 0 22 -5v-342q-12 -6 -22 -6q-8 0 -15.5 4.5t-14.5 13.5t-11.5 16.5t-10.5 19t-8 15.5q-8 14 -14 22.5t-16.5 21t-22.5 18.5t-26 7l-391 8v-448q0 -80 45 -80l465 11q36 1 62 11.5t40.5 26t25.5 40t16.5 47 t15 54.5t19.5 55q5 14 8.5 20.5t11.5 15.5t16 9q2 0 24 -5l-28 -359q0 -5 -9 -5q-8 0 -18.5 4t-18.5 5q-69 14 -121 14h-969q-5 0 -5 10q0 24 26.5 34t70 12.5t55.5 6.5q53 14 53 67v890q0 30 -22.5 50.5t-50.5 28.5t-64.5 18t-52.5 19q-16 8 -16 23zM274 1315q0 17 14 47 l118 242q54 113 103 226q17 36 56.5 49t79.5 -10q23 -16 34 -39q14 -30 32 -69q17 -39 59 -128q42 -91 130 -271q14 -30 14 -47q0 -38 -51 -38q-3 0 -7.5 2t-7.5 4.5t-8 7t-7.5 7t-7.5 8t-5 6.5q-28 29 -44 53q-32 45 -81 115q-52 70 -101 138q-51 -69 -101 -138 q-10 -14 -42 -62.5t-56 -78t-52 -52.5q-12 -10 -18 -10q-51 0 -51 38z" />
<glyph unicode="&#xcb;" horiz-adv-x="1254" d="M11 1159q0 8 6 17h976q54 0 147 20q9 -5 9 -8l7 -308q-14 -6 -23 -6t-16.5 4.5t-13.5 13t-10 17.5t-7.5 22t-6 22t-5 23t-3.5 19q-6 25 -12.5 43.5t-18.5 38t-30.5 30t-42.5 11.5l-478 11q-37 0 -47 -16t-10 -60v-412l391 12q14 1 26 7t22 18.5t14.5 20.5t12.5 24 q2 3 6 11t7 13l7.5 12.5t8.5 12.5t9.5 9.5t12 7t13.5 2.5q4 0 22 -5v-342q-12 -6 -22 -6q-8 0 -15.5 4.5t-14.5 13.5t-11.5 16.5t-10.5 19t-8 15.5q-8 14 -14 22.5t-16.5 21t-22.5 18.5t-26 7l-391 8v-448q0 -80 45 -80l465 11q36 1 62 11.5t40.5 26t25.5 40t16.5 47 t15 54.5t19.5 55q5 14 8.5 20.5t11.5 15.5t16 9q2 0 24 -5l-28 -359q0 -5 -9 -5q-8 0 -18.5 4t-18.5 5q-69 14 -121 14h-969q-5 0 -5 10q0 24 26.5 34t70 12.5t55.5 6.5q53 14 53 67v890q0 30 -22.5 50.5t-50.5 28.5t-64.5 18t-52.5 19q-16 8 -16 23zM204 1435 q0 48 30.5 79.5t78.5 31.5t79.5 -31.5t31.5 -79.5t-31.5 -78.5t-79.5 -30.5q-31 0 -56 14t-39 39t-14 56zM760 1435q0 48 30.5 79.5t78.5 31.5t79.5 -31.5t31.5 -79.5q0 -31 -14.5 -56t-39.5 -39t-57 -14q-47 0 -78 31t-31 78z" />
<glyph unicode="&#xcc;" horiz-adv-x="734" d="M20 1159q0 2 4 17h670q4 -11 4 -19t-4 -14.5t-12.5 -10t-16.5 -6.5t-21.5 -4.5t-21.5 -2t-22.5 -1.5t-18.5 -1q-117 -8 -117 -73v-920q0 -23 12 -37.5t30 -21t43 -9.5t48.5 -3.5t49.5 -3.5t42 -8q18 -6 18 -22q0 -4 -5 -19h-670q-4 13 -4 17q0 10 7 16.5t23 10.5t26 5.5 t31 3.5t23 2q23 2 40 6t34.5 12t27 22.5t9.5 34.5v908q0 31 -25.5 48.5t-57 21.5t-71.5 10t-58 16q-17 8 -17 25zM47 1557q0 40 21 72.5t55 32.5q18 0 35.5 -8t26 -15t22.5 -20l26 -25q40 -39 97 -84q70 -56 216 -162q36 -25 36 -52q0 -18 -13.5 -27.5t-32.5 -9.5 q-12 0 -42 16q-20 10 -41 22t-43.5 24.5t-45.5 24.5q-102 54 -202 107l-79 42q-36 20 -36 62z" />
<glyph unicode="&#xcd;" horiz-adv-x="734" d="M20 1159q0 2 4 17h670q4 -11 4 -19t-4 -14.5t-12.5 -10t-16.5 -6.5t-21.5 -4.5t-21.5 -2t-22.5 -1.5t-18.5 -1q-117 -8 -117 -73v-920q0 -23 12 -37.5t30 -21t43 -9.5t48.5 -3.5t49.5 -3.5t42 -8q18 -6 18 -22q0 -4 -5 -19h-670q-4 13 -4 17q0 10 7 16.5t23 10.5t26 5.5 t31 3.5t23 2q23 2 40 6t34.5 12t27 22.5t9.5 34.5v908q0 31 -25.5 48.5t-57 21.5t-71.5 10t-58 16q-17 8 -17 25zM151 1301q0 27 34 52q17 12 61 44t67 49.5t58.5 44.5t63.5 52.5t53 51.5l24 25q40 42 83 42q34 0 55 -32.5t21 -72.5v-6q0 -13 -0.5 -19t-3 -13.5t-8.5 -11.5 q-20 -12 -51 -27q-65 -32 -146 -71l-76 -37q-82 -41 -112 -64q-52 -39 -81 -39q-42 0 -42 32z" />
<glyph unicode="&#xce;" horiz-adv-x="734" d="M20 1159q0 2 4 17h670q4 -11 4 -19t-4 -14.5t-12.5 -10t-16.5 -6.5t-21.5 -4.5t-21.5 -2t-22.5 -1.5t-18.5 -1q-117 -8 -117 -73v-920q0 -23 12 -37.5t30 -21t43 -9.5t48.5 -3.5t49.5 -3.5t42 -8q18 -6 18 -22q0 -4 -5 -19h-670q-4 13 -4 17q0 10 7 16.5t23 10.5t26 5.5 t31 3.5t23 2q23 2 40 6t34.5 12t27 22.5t9.5 34.5v908q0 31 -25.5 48.5t-57 21.5t-71.5 10t-58 16q-17 8 -17 25zM44 1315q0 17 14 47l118 242q54 113 103 226q17 36 56.5 49t79.5 -10q23 -16 34 -39q14 -30 31 -69q18 -39 60 -128q42 -91 130 -271q14 -30 14 -47 q0 -38 -51 -38q-3 0 -7.5 2t-7.5 4.5t-8 7t-7.5 7t-7.5 8t-6 6.5q-27 29 -43 53q-32 45 -82 115q-51 70 -100 138l-102 -138q-9 -14 -41 -62.5t-56 -78t-52 -52.5q-12 -10 -18 -10q-51 0 -51 38z" />
<glyph unicode="&#xcf;" horiz-adv-x="734" d="M-26 1435q0 48 30.5 79.5t78.5 31.5t79.5 -31.5t31.5 -79.5t-31.5 -78.5t-79.5 -30.5q-47 0 -78 31t-31 78zM20 1159q0 2 4 17h670q4 -11 4 -19t-4 -14.5t-12.5 -10t-16.5 -6.5t-21.5 -4.5t-21.5 -2t-22.5 -1.5t-18.5 -1q-117 -8 -117 -73v-920q0 -23 12 -37.5t30 -21 t43 -9.5t48.5 -3.5t49.5 -3.5t42 -8q18 -6 18 -22q0 -4 -5 -19h-670q-4 13 -4 17q0 10 7 16.5t23 10.5t26 5.5t31 3.5t23 2q23 2 40 6t34.5 12t27 22.5t9.5 34.5v908q0 31 -25.5 48.5t-57 21.5t-71.5 10t-58 16q-17 8 -17 25zM530 1435q0 48 30.5 79.5t78.5 31.5t79.5 -31.5 t31.5 -79.5q0 -31 -14.5 -56t-39.5 -39t-57 -14q-47 0 -78 31t-31 78z" />
<glyph unicode="&#xd0;" horiz-adv-x="1346" d="M11 18q0 8 4 13.5t11.5 9.5t15 6.5t19.5 3.5t20 2t20.5 1.5t17.5 0.5q49 3 78.5 19.5t29.5 55.5v417h-51q-6 0 -26 -0.5t-27.5 0t-24 1.5t-24 4t-16.5 8t-13 14t-4 20q0 8 2.5 15t8 11.5t11 8t15.5 5.5t16.5 3t19.5 1.5t19.5 0.5h20.5h19h54v381q0 31 -24 51.5t-53 28 t-67 17.5t-55 19q-16 8 -16 23q0 2 4 17h534q254 0 428 -81t253 -246q53 -110 53 -259q0 -106 -28 -196.5t-79.5 -158t-119 -116t-149.5 -77.5q-116 -42 -253 -42h-639q-5 10 -5 18zM442 77l59 -8q61 -7 113 -7q63 0 118.5 14t99 38t80 58t63 73t47.5 85q47 105 47 216 q0 566 -499 566h-128v-473h46h8h25t24.5 -1t24.5 -3t20.5 -5.5t17.5 -8.5t10.5 -13.5t4.5 -18.5q0 -11 -4 -19t-13 -12.5t-18 -7.5t-23 -3.5t-24.5 -0.5t-27 0.5t-25.5 0.5h-46v-470z" />
<glyph unicode="&#xd1;" horiz-adv-x="1499" d="M12 22q0 8 3.5 14.5t10.5 11t15 7.5t19.5 5t20 3.5t20 3t17.5 2.5q22 3 39.5 8.5t34.5 15.5t26 26t10 38l25 863q1 37 -26.5 57t-71.5 31l-52 13q-62 15 -76 37l4 18h372l812 -857l-15 690q0 26 -10 44t-25.5 27t-37.5 16t-42.5 10t-43.5 9t-39 15q-16 8 -16 26q0 4 6 20 h492q4 -9 4 -22q0 -7 -3.5 -13.5t-10.5 -11t-14.5 -7.5t-18 -5.5t-18 -4t-18.5 -3.5t-15 -3q-99 -19 -99 -97l-24 -1009q-1 -16 -24 -16q-29 0 -44 16l-900 952l28 -802q0 -32 14 -50t39 -25t51 -9t58 -6.5t52 -12.5q17 -8 17 -27q0 -6 -6 -20h-536q-4 9 -4 22zM504 1341 q0 162 130 162q8 0 16.5 -1t18.5 -4t16.5 -5t17.5 -6.5t16 -6.5t16.5 -7.5t13.5 -5.5l58 -25q27 -12 47 -12q31 0 31 38q0 10 -0.5 16t-0.5 9q0 34 67 34q35 0 50 -12t15 -43v-24q0 -46 -10 -76.5t-35.5 -49t-66.5 -18.5q-11 0 -22.5 2.5t-25.5 7.5t-22 8.5t-23.5 10.5 t-19.5 9q-5 2 -14 6.5t-15.5 7.5t-16 7t-17 6.5t-16.5 5t-17.5 4t-16.5 1.5q-23 0 -32.5 -13.5t-9.5 -41.5q0 -12 -57 -12q-75 0 -75 28z" />
<glyph unicode="&#xd2;" horiz-adv-x="1413" d="M62 590q0 103 25.5 190.5t72 153.5t106 115t133.5 84q143 69 312 69q185 0 324.5 -73.5t221.5 -197.5q94 -144 94 -341q0 -103 -25 -191.5t-70.5 -155.5t-105 -117t-132.5 -86q-142 -68 -310 -68q-187 0 -327.5 74.5t-222.5 200.5q-96 147 -96 343zM277 636 q0 -275 151 -446q136 -154 321 -154q70 0 129.5 22.5t102 62.5t72.5 89.5t51 109.5q32 96 32 226q0 279 -146 444q-131 150 -313 150q-72 0 -132.5 -22t-104.5 -62t-75.5 -89.5t-53.5 -108.5q-34 -95 -34 -222zM390 1557q0 40 21 72.5t55 32.5q14 0 26.5 -3.5t24 -11.5 t17 -13t16.5 -16l26 -25q40 -38 97 -83q70 -56 216 -162q36 -25 36 -52q0 -18 -13.5 -27.5t-32.5 -9.5q-12 0 -42 16q-23 12 -62 34t-68 37q-102 54 -202 106l-79 43q-36 20 -36 62z" />
<glyph unicode="&#xd3;" horiz-adv-x="1413" d="M62 590q0 103 25.5 190.5t72 153.5t106 115t133.5 84q143 69 312 69q185 0 324.5 -73.5t221.5 -197.5q94 -144 94 -341q0 -103 -25 -191.5t-70.5 -155.5t-105 -117t-132.5 -86q-142 -68 -310 -68q-187 0 -327.5 74.5t-222.5 200.5q-96 147 -96 343zM277 636 q0 -275 151 -446q136 -154 321 -154q70 0 129.5 22.5t102 62.5t72.5 89.5t51 109.5q32 96 32 226q0 279 -146 444q-131 150 -313 150q-72 0 -132.5 -22t-104.5 -62t-75.5 -89.5t-53.5 -108.5q-34 -95 -34 -222zM494 1301q0 27 34 52q18 13 51.5 37.5t54 39.5t51.5 38 t53 41.5t47 41t47 44.5l23 24q40 43 83 43q34 0 55 -32.5t21 -72.5v-6q0 -13 -0.5 -19t-3 -13.5t-8.5 -11.5q-20 -12 -51 -28q-65 -31 -146 -70l-76 -37q-82 -41 -112 -64q-52 -39 -81 -39q-42 0 -42 32z" />
<glyph unicode="&#xd4;" horiz-adv-x="1413" d="M62 590q0 103 25.5 190.5t72 153.5t106 115t133.5 84q143 69 312 69q185 0 324.5 -73.5t221.5 -197.5q94 -144 94 -341q0 -103 -25 -191.5t-70.5 -155.5t-105 -117t-132.5 -86q-142 -68 -310 -68q-187 0 -327.5 74.5t-222.5 200.5q-96 147 -96 343zM277 636 q0 -275 151 -446q136 -154 321 -154q70 0 129.5 22.5t102 62.5t72.5 89.5t51 109.5q32 96 32 226q0 279 -146 444q-131 150 -313 150q-72 0 -132.5 -22t-104.5 -62t-75.5 -89.5t-53.5 -108.5q-34 -95 -34 -222zM387 1315q0 17 14 47l118 242q54 113 103 226q17 36 56.5 49 t79.5 -11q23 -15 34 -38q14 -30 32 -69q17 -39 59 -129t130 -270q14 -30 14 -47q0 -38 -51 -38q-3 0 -7.5 2t-7.5 4.5t-8 7t-7.5 7t-7.5 8l-5 5.5q-28 30 -44 54q-32 45 -81 114q-52 71 -101 139q-51 -69 -101 -139q-10 -13 -42 -61.5t-56 -78t-52 -52.5q-12 -10 -18 -10 q-51 0 -51 38z" />
<glyph unicode="&#xd5;" horiz-adv-x="1413" d="M62 590q0 103 25.5 190.5t72 153.5t106 115t133.5 84q143 69 312 69q185 0 324.5 -73.5t221.5 -197.5q94 -144 94 -341q0 -103 -25 -191.5t-70.5 -155.5t-105 -117t-132.5 -86q-142 -68 -310 -68q-187 0 -327.5 74.5t-222.5 200.5q-96 147 -96 343zM277 636 q0 -275 151 -446q136 -154 321 -154q70 0 129.5 22.5t102 62.5t72.5 89.5t51 109.5q32 96 32 226q0 279 -146 444q-131 150 -313 150q-72 0 -132.5 -22t-104.5 -62t-75.5 -89.5t-53.5 -108.5q-34 -95 -34 -222zM461 1341q0 162 130 162q8 0 16.5 -1t18.5 -4t16.5 -5 t17.5 -6.5t16 -6.5t16.5 -7.5t13.5 -6.5l58 -25q27 -11 47 -11q31 0 31 38q0 10 -0.5 16t-0.5 9q0 34 67 34q35 0 50 -12t15 -43v-24q0 -46 -10 -76.5t-35.5 -49t-66.5 -18.5q-11 0 -22.5 2.5t-25.5 7.5t-22 8.5t-23.5 10.5t-19.5 9t-19.5 9t-23.5 10.5t-22 8.5t-25.5 7.5 t-22.5 2.5q-23 0 -32.5 -13.5t-9.5 -41.5q0 -12 -57 -12q-75 0 -75 28z" />
<glyph unicode="&#xd6;" horiz-adv-x="1413" d="M62 590q0 103 25.5 190.5t72 153.5t106 115t133.5 84q143 69 312 69q185 0 324.5 -73.5t221.5 -197.5q94 -144 94 -341q0 -103 -25 -191.5t-70.5 -155.5t-105 -117t-132.5 -86q-142 -68 -310 -68q-187 0 -327.5 74.5t-222.5 200.5q-96 147 -96 343zM277 636 q0 -275 151 -446q136 -154 321 -154q70 0 129.5 22.5t102 62.5t72.5 89.5t51 109.5q32 96 32 226q0 279 -146 444q-131 150 -313 150q-72 0 -132.5 -22t-104.5 -62t-75.5 -89.5t-53.5 -108.5q-34 -95 -34 -222zM317 1435q0 32 14 57t39 39.5t56 14.5q48 0 79.5 -31.5 t31.5 -79.5t-31.5 -78.5t-79.5 -30.5q-47 0 -78 31t-31 78zM873 1435q0 32 14 57t39 39.5t56 14.5q48 0 79.5 -31.5t31.5 -79.5t-31.5 -78.5t-79.5 -30.5q-47 0 -78 31t-31 78z" />
<glyph unicode="&#xd7;" horiz-adv-x="1022" d="M249 757q0 17 25.5 41t43.5 24q5 0 9 -1t9 -3.5t7.5 -3.5t8 -6t6.5 -6l7 -7l7 -7l150 -150l151 150q1 1 6.5 7t7.5 7t7 6t7.5 6t7 3.5t9 3.5t9.5 1q27 0 61 -47q8 -11 8 -18q0 -9 -9.5 -20.5t-30.5 -31.5l-150 -150l154 -154l7.5 -7.5l8.5 -8.5t6.5 -7.5t6.5 -9t3.5 -8.5 t1.5 -10q0 -26 -48 -60q-12 -8 -19 -8q-8 0 -16 4t-12 8t-13.5 14t-11.5 12l-152 151l-151 -151q-3 -3 -8 -8.5t-8.5 -9l-8 -8t-8.5 -7t-9.5 -4t-10.5 -1.5q-27 0 -59 49q-8 12 -8 19q0 17 34 51l154 154l-150 150q-21 20 -30.5 31.5t-9.5 20.5z" />
<glyph unicode="&#xd8;" horiz-adv-x="1413" d="M62 590q0 83 17 156t46.5 131t72.5 107t92.5 85t108.5 65q143 68 312 68q103 0 203 -28q1 3 7 17.5t8.5 20.5t8 20t8 23t5.5 21t4.5 21.5t1.5 18.5q0 25 27 35.5t64 10.5q32 0 49 -12.5t17 -40.5q-1 -14 -1 -26q0 -13 -19 -51l-54 -108q143 -75 227 -208t84 -326 q0 -103 -25 -191.5t-70.5 -155.5t-105 -117t-133.5 -86q-141 -68 -309 -68q-71 0 -141 14q-27 -76 -54 -154q-13 -38 -36 -54.5t-68 -16.5q-23 0 -37 20.5t-13.5 46.5t7.5 50l63 148q-124 51 -211.5 143.5t-127.5 222.5q-28 90 -28 198zM277 636q0 -165 52.5 -290 t147.5 -205q147 346 231 543q83 195 119 280l29 69q5 12 12 27.5t10 23.5q-97 56 -201 56q-72 0 -132.5 -22t-104.5 -62t-75.5 -89.5t-53.5 -108.5q-34 -95 -34 -222zM596 67q74 -31 153 -31q70 0 129.5 22.5t102 62.5t72.5 89.5t50 109.5q33 96 33 226q0 288 -155 456 q-68 -143 -165 -369q-96 -232 -220 -566z" />
<glyph unicode="&#xd9;" horiz-adv-x="1640" d="M50 1159q0 5 6 17h644q5 -15 5 -18q0 -10 -8 -17.5t-23.5 -12t-27.5 -7t-31.5 -5t-23.5 -3.5q-23 -4 -40 -9t-36 -14t-29 -24.5t-10 -35.5v-476q0 -171 71 -291t195 -171q75 -31 153 -31q135 0 226.5 72.5t136.5 189.5q34 88 34 205v508q0 32 -24.5 50.5t-55 23.5 t-70 11.5t-57.5 14.5q-17 8 -17 23q0 2 4 17h522q5 -15 5 -19q0 -10 -8 -17t-25 -11t-28 -6t-33.5 -3.5t-24.5 -1.5q-25 -2 -43 -6t-37 -12t-29.5 -22.5t-10.5 -35.5v-516q0 -179 -77.5 -303t-210.5 -190q-125 -61 -267 -61q-178 0 -306 82t-192 219q-46 101 -46 235v512 q0 31 -23.5 51.5t-52 28t-66 17t-54.5 18.5q-15 9 -15 24zM502 1557q0 40 21 72.5t55 32.5q14 0 26.5 -3.5t24 -11.5t17 -13t16.5 -16l26 -25q40 -38 97 -83q70 -56 216 -162q36 -25 36 -52q0 -18 -13.5 -27.5t-32.5 -9.5q-12 0 -42 16q-23 12 -62 34t-68 37 q-102 54 -202 106l-79 43q-36 20 -36 62z" />
<glyph unicode="&#xda;" horiz-adv-x="1640" d="M50 1159q0 5 6 17h644q5 -15 5 -18q0 -10 -8 -17.5t-23.5 -12t-27.5 -7t-31.5 -5t-23.5 -3.5q-23 -4 -40 -9t-36 -14t-29 -24.5t-10 -35.5v-476q0 -171 71 -291t195 -171q75 -31 153 -31q135 0 226.5 72.5t136.5 189.5q34 88 34 205v508q0 32 -24.5 50.5t-55 23.5 t-70 11.5t-57.5 14.5q-17 8 -17 23q0 2 4 17h522q5 -15 5 -19q0 -10 -8 -17t-25 -11t-28 -6t-33.5 -3.5t-24.5 -1.5q-25 -2 -43 -6t-37 -12t-29.5 -22.5t-10.5 -35.5v-516q0 -179 -77.5 -303t-210.5 -190q-125 -61 -267 -61q-178 0 -306 82t-192 219q-46 101 -46 235v512 q0 31 -23.5 51.5t-52 28t-66 17t-54.5 18.5q-15 9 -15 24zM606 1301q0 27 34 52q17 12 61 44t67 49.5t58.5 44.5t64 52.5t53.5 51.5l23 24q40 43 83 43q34 0 55 -32.5t21 -72.5v-6q0 -13 -0.5 -19.5t-3 -13.5t-8.5 -11q-20 -12 -51 -28q-65 -31 -146 -70l-76 -37 q-82 -41 -112 -64q-52 -39 -81 -39q-42 0 -42 32z" />
<glyph unicode="&#xdb;" horiz-adv-x="1640" d="M50 1159q0 5 6 17h644q5 -15 5 -18q0 -10 -8 -17.5t-23.5 -12t-27.5 -7t-31.5 -5t-23.5 -3.5q-23 -4 -40 -9t-36 -14t-29 -24.5t-10 -35.5v-476q0 -171 71 -291t195 -171q75 -31 153 -31q135 0 226.5 72.5t136.5 189.5q34 88 34 205v508q0 32 -24.5 50.5t-55 23.5 t-70 11.5t-57.5 14.5q-17 8 -17 23q0 2 4 17h522q5 -15 5 -19q0 -10 -8 -17t-25 -11t-28 -6t-33.5 -3.5t-24.5 -1.5q-25 -2 -43 -6t-37 -12t-29.5 -22.5t-10.5 -35.5v-516q0 -179 -77.5 -303t-210.5 -190q-125 -61 -267 -61q-178 0 -306 82t-192 219q-46 101 -46 235v512 q0 31 -23.5 51.5t-52 28t-66 17t-54.5 18.5q-15 9 -15 24zM499 1315q0 17 14 47l118 242q54 113 103 226q17 36 56.5 49t79.5 -11q23 -15 34 -38q14 -30 32 -69q17 -39 59 -129t130 -270q14 -30 14 -47q0 -38 -51 -38q-3 0 -7.5 2t-7.5 4.5t-8 7t-7.5 7t-7.5 8l-5 5.5 q-28 30 -44 54q-32 45 -81 114q-52 71 -101 139q-51 -69 -101 -139q-10 -13 -42 -61.5t-56 -78t-52 -52.5q-12 -10 -18 -10q-51 0 -51 38z" />
<glyph unicode="&#xdc;" horiz-adv-x="1640" d="M50 1159q0 5 6 17h644q5 -15 5 -18q0 -10 -8 -17.5t-23.5 -12t-27.5 -7t-31.5 -5t-23.5 -3.5q-23 -4 -40 -9t-36 -14t-29 -24.5t-10 -35.5v-476q0 -171 71 -291t195 -171q75 -31 153 -31q135 0 226.5 72.5t136.5 189.5q34 88 34 205v508q0 32 -24.5 50.5t-55 23.5 t-70 11.5t-57.5 14.5q-17 8 -17 23q0 2 4 17h522q5 -15 5 -19q0 -10 -8 -17t-25 -11t-28 -6t-33.5 -3.5t-24.5 -1.5q-25 -2 -43 -6t-37 -12t-29.5 -22.5t-10.5 -35.5v-516q0 -179 -77.5 -303t-210.5 -190q-125 -61 -267 -61q-178 0 -306 82t-192 219q-46 101 -46 235v512 q0 31 -23.5 51.5t-52 28t-66 17t-54.5 18.5q-15 9 -15 24zM430 1435q0 48 30.5 79.5t78.5 31.5t79.5 -31.5t31.5 -79.5q0 -31 -14.5 -56t-39.5 -39t-57 -14q-47 0 -78 31t-31 78zM986 1435q0 48 30.5 79.5t78.5 31.5t79.5 -31.5t31.5 -79.5t-31.5 -78.5t-79.5 -30.5 q-47 0 -78 31t-31 78z" />
<glyph unicode="&#xdd;" horiz-adv-x="1324" d="M64 1159q0 2 4 17h626q4 -11 4 -18t-6.5 -13.5t-21 -12t-22.5 -8.5t-26 -7t-18 -5q-1 0 -14.5 -3t-18 -4.5t-17 -5.5t-18 -7.5t-13.5 -8.5t-11 -11t-3 -13q0 -9 5 -19l230 -410l214 410q6 10 6 20t-6 18t-20 13.5t-21 7.5t-23 6q-2 1 -13 4t-14.5 3.5t-13 3.5t-14 4.5 t-13 4t-13.5 5t-11.5 5.5t-11.5 6t-10 7q-4 3 -4 11q0 2 4 17h496q4 -11 4 -19q0 -23 -91 -38q-40 -7 -65 -14.5t-48 -23.5t-37 -41l-266 -460v-456q0 -24 15.5 -39.5t42 -22t53.5 -9.5t57.5 -6.5t47.5 -9.5t17 -20q0 -4 -4 -17h-670q-5 10 -5 18t4 13.5t12.5 9.5t17 6.5 t21 3.5t21.5 2t21.5 1.5t18.5 0.5q23 2 41 5.5t36 11.5t28 22.5t10 35.5v400l-280 500q-3 5 -8 10t-13 10.5t-13 8.5t-16 9t-14 7q-24 14 -50 27l-49 25q-2 2 -8 4.5t-11 5t-11 6t-10.5 6t-7.5 5.5t-3 5zM530 1301q0 27 34 52q17 12 61 44t67 49.5t58.5 44.5t64 52.5 t53.5 51.5l23 24q40 43 83 43q34 0 55 -32.5t21 -72.5v-6q0 -13 -0.5 -19.5t-3 -13.5t-8.5 -11q-20 -12 -51 -28q-65 -31 -146 -70l-76 -37q-82 -41 -112 -64q-52 -39 -81 -39q-42 0 -42 32z" />
<glyph unicode="&#xde;" horiz-adv-x="1167" d="M11 1227q0 2 4 17l398 69v-591q115 180 288 180q144 0 236 -70.5t134 -193.5q30 -87 30 -204q0 -161 -65 -269t-185 -153q-77 -29 -168 -29q-101 0 -164.5 35.5t-108.5 107.5l10 -354q0 -23 12.5 -38t33 -22t42.5 -11t46 -9.5t37.5 -13t13.5 -21.5q0 -4 -4 -17h-576 q-5 10 -5 18q0 5 2.5 9.5t6.5 8t10.5 6.5t12.5 5t14 4t13.5 3t13.5 2.5t11 1.5q85 18 90 74q14 219 14 512v824q0 29 -21.5 47.5t-47 25.5t-62 15.5t-51.5 14.5t-15 16zM413 258q35 -86 100 -139t166 -53q45 0 80 14.5t58 42.5t39 62t24 78.5t11.5 87t3.5 93.5 q0 59 -7.5 108.5t-25 94t-44.5 75.5t-69 49.5t-96 18.5q-87 0 -171 -76q-38 -33 -69 -76v-380z" />
<glyph unicode="&#xdf;" horiz-adv-x="1216" d="M5 18q0 20 21.5 28t54.5 11t43 7q42 16 42 66v643q0 197 104 300t303 103q136 0 237.5 -44t150.5 -126q33 -55 33 -124q0 -39 -6.5 -73t-19.5 -61.5t-31.5 -50t-42.5 -39t-52.5 -28t-61.5 -18.5q112 -14 197.5 -59t130.5 -120q33 -56 33 -133q0 -162 -102.5 -242 t-282.5 -80q-74 0 -129.5 27.5t-82.5 76.5q-17 31 -17 68q0 30 23.5 52t54.5 22q26 0 47 -20.5t21 -45.5q0 -11 -7.5 -30t-7.5 -28q0 -26 35 -45t67 -19q59 0 99 43.5t61 104.5q15 48 15 108q0 89 -31.5 152.5t-92.5 98t-147 37.5h-53q-14 0 -23 9t-9 23q0 13 9 21.5t22 8.5 q112 0 163 61.5t51 180.5q0 113 -66 172.5t-181 59.5q-205 0 -205 -346v-640q0 -23 5.5 -37.5t19.5 -22.5t25.5 -11t35.5 -7q5 -1 7 -2q33 -5 33 -32q0 -8 -5 -18h-483q-5 10 -5 18z" />
<glyph unicode="&#xe0;" horiz-adv-x="983" d="M76 153q0 76 34.5 124t98.5 80q75 39 170 60t245 42v129q0 49 -3.5 85t-14.5 70t-30 55.5t-51.5 34.5t-76.5 13q-40 0 -80 -13.5t-64 -34.5q-18 -15 -18 -34q0 -13 10 -43.5t10 -46.5q0 -43 -24 -69t-64 -26q-47 0 -77 30.5t-30 79.5q0 48 22 85.5t57.5 61t84 39 t96.5 21.5t100 6q188 0 273.5 -90.5t85.5 -283.5v-397q0 -24 15 -36.5t34 -14t46.5 -4.5t42.5 -8q11 -4 11 -15q0 -22 -24 -37t-62 -21.5t-69.5 -9t-63.5 -2.5q-61 0 -95.5 43.5t-34.5 108.5q-41 -69 -129 -110.5t-195 -41.5q-66 0 -116 16.5t-82 55.5t-32 98zM148 1252 q0 40 21 72.5t55 32.5q18 0 35.5 -8t26 -15t22.5 -21l26 -25q40 -38 96 -83q71 -56 217 -162q36 -25 36 -52q0 -18 -13.5 -27.5t-32.5 -9.5q-12 0 -43 16q-22 12 -61 34t-68 37q-102 54 -203 106l-78 43q-36 20 -36 62zM293 183q0 -119 99 -119q78 0 177 65q30 20 55 42v255 q-61 -17 -100.5 -30t-83.5 -34t-76 -45q-35 -26 -53 -57.5t-18 -76.5z" />
<glyph unicode="&#xe1;" horiz-adv-x="983" d="M76 153q0 76 34.5 124t98.5 80q75 39 170 60t245 42v129q0 49 -3.5 85t-14.5 70t-30 55.5t-51.5 34.5t-76.5 13q-40 0 -80 -13.5t-64 -34.5q-18 -15 -18 -34q0 -13 10 -43.5t10 -46.5q0 -43 -24 -69t-64 -26q-47 0 -77 30.5t-30 79.5q0 48 22 85.5t57.5 61t84 39 t96.5 21.5t100 6q188 0 273.5 -90.5t85.5 -283.5v-397q0 -24 15 -36.5t34 -14t46.5 -4.5t42.5 -8q11 -4 11 -15q0 -22 -24 -37t-62 -21.5t-69.5 -9t-63.5 -2.5q-61 0 -95.5 43.5t-34.5 108.5q-41 -69 -129 -110.5t-195 -41.5q-66 0 -116 16.5t-82 55.5t-32 98zM252 996 q0 27 34 52q18 13 51.5 37.5t54 39.5t51.5 38t53 41.5t47 41t46 44.5l24 24q40 43 83 43q34 0 55 -32.5t21 -72.5v-6q0 -13 -0.5 -19t-3 -13.5t-8.5 -11.5q-20 -12 -52 -28q-64 -31 -145 -70l-76 -37q-82 -41 -112 -64q-52 -39 -81 -39q-42 0 -42 32zM293 183 q0 -119 99 -119q78 0 177 65q30 20 55 42v255q-94 -27 -154 -50.5t-106 -58.5q-35 -26 -53 -57.5t-18 -76.5z" />
<glyph unicode="&#xe2;" horiz-adv-x="983" d="M76 153q0 76 34.5 124t98.5 80q75 39 170 60t245 42v129q0 49 -3.5 85t-14.5 70t-30 55.5t-51.5 34.5t-76.5 13q-40 0 -80 -13.5t-64 -34.5q-18 -15 -18 -34q0 -13 10 -43.5t10 -46.5q0 -43 -24 -69t-64 -26q-47 0 -77 30.5t-30 79.5q0 48 22 85.5t57.5 61t84 39 t96.5 21.5t100 6q188 0 273.5 -90.5t85.5 -283.5v-397q0 -24 15 -36.5t34 -14t46.5 -4.5t42.5 -8q11 -4 11 -15q0 -22 -24 -37t-62 -21.5t-69.5 -9t-63.5 -2.5q-61 0 -95.5 43.5t-34.5 108.5q-41 -69 -129 -110.5t-195 -41.5q-66 0 -116 16.5t-82 55.5t-32 98zM145 1010 q0 17 14 47l117 242q55 113 104 226q17 36 56.5 49t79.5 -11q23 -15 34 -38q14 -30 31 -69q18 -39 60 -129t130 -270q14 -30 14 -47q0 -38 -51 -38q-3 0 -7.5 2t-7.5 4.5t-8 7t-7.5 7t-7.5 8t-6 5.5q-27 30 -43 54q-32 45 -82 114q-51 71 -100 139q-51 -69 -102 -139 q-10 -13 -41.5 -61.5t-55.5 -78t-52 -52.5q-12 -10 -18 -10q-51 0 -51 38zM293 183q0 -119 99 -119q78 0 177 65q30 20 55 42v255q-94 -27 -154 -50.5t-106 -58.5q-35 -26 -53 -57.5t-18 -76.5z" />
<glyph unicode="&#xe3;" horiz-adv-x="983" d="M76 153q0 76 34.5 124t98.5 80q75 39 170 60t245 42v129q0 49 -3.5 85t-14.5 70t-30 55.5t-51.5 34.5t-76.5 13q-40 0 -80 -13.5t-64 -34.5q-18 -15 -18 -34q0 -13 10 -43.5t10 -46.5q0 -43 -24 -69t-64 -26q-47 0 -77 30.5t-30 79.5q0 48 22 85.5t57.5 61t84 39 t96.5 21.5t100 6q188 0 273.5 -90.5t85.5 -283.5v-397q0 -24 15 -36.5t34 -14t46.5 -4.5t42.5 -8q11 -4 11 -15q0 -22 -24 -37t-62 -21.5t-69.5 -9t-63.5 -2.5q-61 0 -95.5 43.5t-34.5 108.5q-41 -69 -129 -110.5t-195 -41.5q-66 0 -116 16.5t-82 55.5t-32 98zM219 1036 q0 162 130 162q7 0 15 -1t15 -2.5t15.5 -4.5t14.5 -5t15.5 -6t14 -6l13.5 -6t12 -6l57 -25q28 -11 48 -11q31 0 31 38q0 10 -0.5 16t-0.5 9q0 34 67 34q35 0 50 -12t15 -43v-24q0 -46 -10 -76.5t-35.5 -49t-66.5 -18.5q-11 0 -22.5 2.5t-25.5 7.5t-22 8.5t-23.5 10.5 t-19.5 9t-19.5 9t-23.5 10.5t-22 8.5t-25.5 7.5t-22.5 2.5q-12 0 -20 -3.5t-13 -10.5t-7 -17t-2 -24q0 -12 -57 -12q-75 0 -75 28zM293 183q0 -119 99 -119q78 0 177 65q30 20 55 42v255q-61 -17 -100.5 -30t-83.5 -34t-76 -45q-35 -26 -53 -57.5t-18 -76.5z" />
<glyph unicode="&#xe4;" horiz-adv-x="983" d="M75 1130q0 48 30.5 79.5t78.5 31.5q32 0 57.5 -14t39.5 -39.5t14 -57.5q0 -48 -31.5 -78.5t-79.5 -30.5q-47 0 -78 31t-31 78zM76 153q0 76 34.5 124t98.5 80q75 39 170 60t245 42v129q0 49 -3.5 85t-14.5 70t-30 55.5t-51.5 34.5t-76.5 13q-40 0 -80 -13.5t-64 -34.5 q-18 -15 -18 -34q0 -13 10 -43.5t10 -46.5q0 -43 -24 -69t-64 -26q-47 0 -77 30.5t-30 79.5q0 48 22 85.5t57.5 61t84 39t96.5 21.5t100 6q188 0 273.5 -90.5t85.5 -283.5v-397q0 -24 15 -36.5t34 -14t46.5 -4.5t42.5 -8q11 -4 11 -15q0 -22 -24 -37t-62 -21.5t-69.5 -9 t-63.5 -2.5q-61 0 -95.5 43.5t-34.5 108.5q-41 -69 -129 -110.5t-195 -41.5q-66 0 -116 16.5t-82 55.5t-32 98zM293 183q0 -119 99 -119q78 0 177 65q30 20 55 42v255q-94 -27 -154 -50.5t-106 -58.5q-35 -26 -53 -57.5t-18 -76.5zM631 1130q0 48 30.5 79.5t78.5 31.5 t79.5 -31.5t31.5 -79.5q0 -31 -14.5 -56t-39.5 -39t-57 -14q-31 0 -56 14t-39 39t-14 56z" />
<glyph unicode="&#xe5;" horiz-adv-x="983" d="M76 153q0 76 34.5 124t98.5 80q75 39 170 60t245 42v129q0 49 -3.5 85t-14.5 70t-30 55.5t-51.5 34.5t-76.5 13q-40 0 -80 -13.5t-64 -34.5q-18 -15 -18 -34q0 -13 10 -43.5t10 -46.5q0 -43 -24 -69t-64 -26q-47 0 -77 30.5t-30 79.5q0 48 22 85.5t57.5 61t84 39 t96.5 21.5t100 6q188 0 273.5 -90.5t85.5 -283.5v-397q0 -24 15 -36.5t34 -14t46.5 -4.5t42.5 -8q11 -4 11 -15q0 -22 -24 -37t-62 -21.5t-69.5 -9t-63.5 -2.5q-61 0 -95.5 43.5t-34.5 108.5q-41 -69 -129 -110.5t-195 -41.5q-66 0 -116 16.5t-82 55.5t-32 98zM263 1169 q0 62 35 108t87 69q37 17 79 17q65 0 112.5 -34.5t70.5 -87.5q16 -35 16 -72q0 -62 -34.5 -108t-86.5 -69q-36 -16 -78 -16q-66 0 -113.5 33t-71.5 85q-16 35 -16 75zM293 183q0 -119 99 -119q78 0 177 65q30 20 55 42v255q-94 -27 -154 -50.5t-106 -58.5q-35 -26 -53 -57.5 t-18 -76.5zM347 1170q0 -32 15.5 -58.5t42 -41t59.5 -14.5q49 0 83 33t34 81t-34.5 80.5t-82.5 32.5t-82.5 -32.5t-34.5 -80.5z" />
<glyph unicode="&#xe6;" horiz-adv-x="1543" d="M107 148q0 34 6.5 62.5t19 51t28.5 40.5t38.5 32t44.5 24.5t51.5 19t54 14t58.5 11.5l124 24q64 12 123 32v63v9q0 48 -0.5 72t-3.5 64t-9.5 60t-19 47t-31.5 40t-47 22.5t-65 9.5q-27 0 -54.5 -6t-50.5 -16t-39 -22q-18 -14 -18 -32q0 -13 10 -40t10 -43 q0 -24 -12.5 -44.5t-33.5 -33t-45 -12.5q-28 0 -52 14.5t-38 38.5t-14 53q0 46 23 81.5t58.5 57t84.5 35.5t96.5 19.5t97.5 5.5q109 0 187 -39.5t112 -110.5q57 80 181 126q63 24 152 24q121 0 201.5 -63.5t117.5 -165.5q24 -67 24 -142q0 -29 -4 -59h-604q0 -270 167 -350 q55 -27 129 -27q25 0 49 1.5t40.5 3.5t41 6.5t35.5 7t39 9t38 8.5q6 2 10 -2.5t4 -11.5v-17q0 -5 -5 -10q-115 -107 -297 -107q-126 0 -222.5 48.5t-154.5 132.5q-57 -57 -134 -101t-163 -65q-57 -15 -110 -15q-47 0 -87 9t-72.5 28t-51 51.5t-18.5 76.5zM323 160 q0 -49 24 -71.5t75 -22.5q55 0 144 36q92 36 159 91q-58 98 -62 234q-28 -7 -75.5 -22.5t-60.5 -18.5q-6 -3 -18 -7q-25 -7 -37.5 -11.5t-34 -13t-33 -15.5t-27 -18.5t-24 -24t-16 -29.5t-10.5 -37q-4 -29 -4 -70zM870 511l398 21q13 0 21.5 10.5t8.5 25.5q0 48 -4.5 86.5 t-16.5 75t-31.5 61.5t-51.5 40t-75 15q-108 0 -177 -106q-58 -91 -72 -229z" />
<glyph unicode="&#xe7;" horiz-adv-x="932" d="M66 442q0 87 25 160t70 126t103 90t128 58q89 26 175 26q63 0 118 -12.5t98 -38t68 -62t25 -82.5t-31.5 -74.5t-77.5 -28.5q-39 0 -63.5 23.5t-24.5 63.5q0 16 10 43t10 40q0 36 -36.5 54t-85.5 18q-99 0 -168.5 -55.5t-106.5 -142.5q-30 -72 -30 -176q0 -84 16.5 -150.5 t50.5 -118.5t91.5 -80t135.5 -28q107 0 195 20l69 16q7 2 11 -2t4 -10q0 -24 -5 -29q-54 -50 -137.5 -78.5t-182.5 -28.5q-27 0 -53 2l-23 -84q86 0 148 -29.5t89 -84.5q15 -33 15 -67q0 -80 -63 -124t-153 -44q-97 0 -160 55l20 88q6 -7 16 -13.5t22.5 -10.5t27 -6.5 t27.5 -2.5q34 0 56.5 14.5t22.5 44.5q0 46 -35.5 72.5t-87.5 26.5q-17 0 -39 -5l46 182q-107 25 -182.5 91.5t-113.5 162.5q-34 85 -34 191z" />
<glyph unicode="&#xe8;" horiz-adv-x="946" d="M66 442q0 109 40 194.5t107 145.5q60 54 140 87t171 33q81 0 147 -27t109.5 -72t69.5 -107q30 -70 30 -165q0 -29 -4 -59h-604q-3 -30 -3 -57q0 -105 37 -176.5t108 -107.5t174.5 -36t222.5 36q6 2 10 -2.5t4 -11.5v-17q0 -5 -5 -10q-115 -107 -297 -107 q-157 0 -264.5 72.5t-158.5 195.5q-34 85 -34 191zM159 1252q0 40 21 72.5t55 32.5q18 0 35.5 -8t26 -15t22.5 -21l26 -25q40 -38 97 -83q70 -56 216 -162q36 -25 36 -52q0 -18 -13.5 -27.5t-32.5 -9.5q-12 0 -42 16q-23 12 -62 34t-68 37q-102 54 -202 106l-79 43 q-36 20 -36 62zM273 511l398 21q13 0 21.5 10.5t8.5 25.5q0 48 -4.5 86.5t-16.5 75t-31.5 61.5t-51.5 40t-75 15q-108 0 -176 -106q-59 -91 -73 -229z" />
<glyph unicode="&#xe9;" horiz-adv-x="946" d="M66 442q0 109 40 194.5t107 145.5q60 54 140 87t171 33q81 0 147 -27t109.5 -72t69.5 -107q30 -70 30 -165q0 -29 -4 -59h-604q-3 -30 -3 -57q0 -105 37 -176.5t108 -107.5t174.5 -36t222.5 36q6 2 10 -2.5t4 -11.5v-17q0 -5 -5 -10q-115 -107 -297 -107 q-157 0 -264.5 72.5t-158.5 195.5q-34 85 -34 191zM263 996q0 27 34 52q17 12 61 44t67 49.5t58.5 44.5t63.5 52.5t53 51.5l24 24q40 43 83 43q34 0 55 -32.5t21 -72.5v-6q0 -13 -0.5 -19t-3 -13.5t-8.5 -11.5q-20 -12 -51 -28q-65 -31 -146 -70l-76 -37q-82 -41 -112 -64 q-52 -39 -81 -39q-42 0 -42 32zM273 511l398 21q13 0 21.5 10.5t8.5 25.5q0 48 -4.5 86.5t-16.5 75t-31.5 61.5t-51.5 40t-75 15q-108 0 -176 -106q-59 -91 -73 -229z" />
<glyph unicode="&#xea;" horiz-adv-x="946" d="M66 442q0 109 40 194.5t107 145.5q60 54 140 87t171 33q81 0 147 -27t109.5 -72t69.5 -107q30 -70 30 -165q0 -29 -4 -59h-604q-3 -30 -3 -57q0 -105 37 -176.5t108 -107.5t174.5 -36t222.5 36q6 2 10 -2.5t4 -11.5v-17q0 -5 -5 -10q-115 -107 -297 -107 q-157 0 -264.5 72.5t-158.5 195.5q-34 85 -34 191zM156 1010q0 17 14 47l118 242q54 113 103 226q17 36 56.5 49t79.5 -11q23 -15 34 -38q14 -30 31 -69q18 -39 60 -129t130 -270q14 -30 14 -47q0 -38 -51 -38q-3 0 -7.5 2t-7.5 4.5t-8 7t-7.5 7t-7.5 8t-6 5.5 q-27 30 -43 54q-32 45 -82 114q-51 71 -100 139q-51 -69 -102 -139q-9 -13 -41 -61.5t-56 -78t-52 -52.5q-12 -10 -18 -10q-51 0 -51 38zM273 511l398 21q9 0 16 5t10.5 13.5t3.5 17.5q0 48 -4.5 86.5t-16.5 75t-31.5 61.5t-51.5 40t-75 15q-108 0 -177 -106 q-58 -91 -72 -229z" />
<glyph unicode="&#xeb;" horiz-adv-x="946" d="M66 442q0 109 40 194.5t107 145.5q60 54 140 87t171 33q81 0 147 -27t109.5 -72t69.5 -107q30 -70 30 -165q0 -29 -4 -59h-604q-3 -30 -3 -57q0 -105 37 -176.5t108 -107.5t174.5 -36t222.5 36q6 2 10 -2.5t4 -11.5v-17q0 -5 -5 -10q-115 -107 -297 -107 q-157 0 -264.5 72.5t-158.5 195.5q-34 85 -34 191zM133 1130q0 48 30.5 79.5t78.5 31.5q32 0 57.5 -14t39.5 -39.5t14 -57.5q0 -48 -31.5 -78.5t-79.5 -30.5q-47 0 -78 31t-31 78zM273 511l398 21q13 0 21.5 10.5t8.5 25.5q0 48 -4.5 86.5t-16.5 75t-31.5 61.5t-51.5 40 t-75 15q-108 0 -176 -106q-59 -91 -73 -229zM689 1130q0 48 30.5 79.5t78.5 31.5t79.5 -31.5t31.5 -79.5q0 -31 -14.5 -56t-39.5 -39t-57 -14q-31 0 -56 14t-39 39t-14 56z" />
<glyph unicode="&#xec;" horiz-adv-x="626" d="M14 17q0 7 3.5 12.5t11.5 9t15 6.5t19 5t19 3t19 2.5t15 2.5q20 2 35.5 6t32 11t25.5 20t9 31v566q0 24 -15.5 38t-34.5 17.5t-45.5 8.5t-40.5 12q-11 5 -11 16q0 6 5 18l348 68v-750q0 -27 20.5 -42.5t45.5 -20t58.5 -9.5t49.5 -12q14 -6 14 -18q0 -9 -4 -18h-590 q-4 13 -4 17zM72 1252q0 40 21 72.5t55 32.5q18 0 35.5 -8t26 -15t22.5 -21l26 -25q40 -38 97 -83q70 -56 216 -162q36 -25 36 -52q0 -18 -13.5 -27.5t-32.5 -9.5q-12 0 -42 16q-23 12 -62 34t-68 37q-102 54 -202 106l-79 43q-36 20 -36 62z" />
<glyph unicode="&#xed;" horiz-adv-x="626" d="M14 17q0 7 3.5 12.5t11.5 9t15 6.5t19 5t19 3t19 2.5t15 2.5q20 2 35.5 6t32 11t25.5 20t9 31v566q0 24 -15.5 38t-34.5 17.5t-45.5 8.5t-40.5 12q-11 5 -11 16q0 6 5 18l348 68v-750q0 -27 20.5 -42.5t45.5 -20t58.5 -9.5t49.5 -12q14 -6 14 -18q0 -9 -4 -18h-590 q-4 13 -4 17zM171 996q0 27 34 52q18 13 51.5 37.5t54 39.5t51.5 38t53 41.5t47 41t47 44.5l23 24q40 43 83 43q34 0 55 -32.5t21 -72.5v-6q0 -13 -0.5 -19t-3 -13.5t-8.5 -11.5q-20 -12 -51 -28q-65 -31 -146 -70l-76 -37q-82 -41 -112 -64q-52 -39 -81 -39q-42 0 -42 32z " />
<glyph unicode="&#xee;" horiz-adv-x="626" d="M-6 1010q0 17 14 47l118 242q54 113 103 226q17 36 56.5 49t79.5 -11q23 -15 34 -38q14 -30 32 -69q17 -39 59 -129t130 -270q14 -30 14 -47q0 -38 -51 -38q-3 0 -7.5 2t-7.5 4.5t-8 7t-7.5 7t-7.5 8l-5 5.5q-28 30 -44 54q-32 45 -81 114q-52 71 -101 139 q-51 -69 -101 -139q-13 -17 -34.5 -49t-36 -53t-36.5 -46.5t-43 -43.5q-12 -10 -18 -10q-51 0 -51 38zM14 17q0 7 3.5 12.5t11.5 9t15 6.5t19 5t19 3t19 2.5t15 1.5q20 3 35.5 7t32 11t25.5 20t9 31v566q0 24 -15.5 38t-34.5 17.5t-45.5 8.5t-40.5 11q-11 6 -11 17q0 6 5 18 l348 68v-750q0 -27 20.5 -42.5t45.5 -20t58.5 -9.5t49.5 -12q14 -6 14 -18q0 -9 -4 -18h-590q-4 13 -4 17z" />
<glyph unicode="&#xef;" horiz-adv-x="626" d="M-76 1130q0 48 30.5 79.5t78.5 31.5t79.5 -31.5t31.5 -79.5t-31.5 -78.5t-79.5 -30.5q-47 0 -78 31t-31 78zM14 17q0 7 3.5 12.5t11.5 9t15 6.5t19 5t19 3t19 2.5t15 2.5q20 2 35.5 6t32 11t25.5 20t9 31v566q0 24 -15.5 38t-34.5 17.5t-45.5 8.5t-40.5 12q-11 5 -11 16 q0 6 5 18l348 68v-750q0 -27 20.5 -42.5t45.5 -20t58.5 -9.5t49.5 -12q14 -6 14 -18q0 -9 -4 -18h-590q-4 13 -4 17zM480 1130q0 48 30.5 79.5t78.5 31.5t79.5 -31.5t31.5 -79.5q0 -31 -14.5 -56t-39.5 -39t-57 -14q-47 0 -78 31t-31 78z" />
<glyph unicode="&#xf0;" horiz-adv-x="1173" d="M66 412q0 169 63.5 287t180.5 169q76 34 168 34q105 0 212 -64q47 -28 84 -63q0 127 -58 243l-100 -27q-64 -19 -103 -21q-41 0 -41 44q0 13 10 22.5t19 13.5t27 10q3 1 5 2q23 8 57 17l78 21q-69 95 -172 181q-24 20 -37 35q-2 2 -2 3q0 2 6 14l69 -26q147 -56 255 -175 l107 29q62 17 96 17q49 0 49 -46q0 -6 -2 -11t-6.5 -9t-8.5 -7t-11.5 -6t-11 -4t-13 -3.5t-11.5 -3.5q-23 -7 -57 -16l-70 -19q132 -207 132 -526q0 -265 -149 -415q-60 -61 -142 -96.5t-180 -35.5q-144 0 -248.5 68.5t-157.5 179.5q-37 80 -37 184zM272 416 q0 -77 15 -141.5t47 -114.5t78 -75q41 -23 85 -23q110 0 189 123q88 137 88 374v124q-69 77 -157 118q-47 22 -101 22q-52 0 -93.5 -21.5t-68 -59.5t-43 -81t-26.5 -93q-13 -74 -13 -152z" />
<glyph unicode="&#xf1;" horiz-adv-x="1206" d="M11 824q0 6 5 18l368 38l20 -144q62 89 180 140q61 26 142 26q88 0 153 -32.5t104 -92.5t57.5 -138t18.5 -176v-346q0 -27 16.5 -42.5t37 -19.5t48 -11t41.5 -16q4 -4 4 -11t-4 -17h-504q-4 13 -4 17q0 7 4.5 12.5t10.5 8.5t16 6.5t17 5t17.5 3.5t13.5 2q36 8 58 22.5 t22 44.5v309v37q1 28 0.5 56t-1.5 54.5t-3.5 51.5t-6.5 48t-11.5 43.5t-17 37.5t-23.5 31t-32 23.5t-41 14.5t-51 5q-56 0 -99 -26t-86 -69q-42 -41 -77 -94v-524q0 -27 20.5 -42.5t45.5 -20t58.5 -9.5t49.5 -12q14 -6 14 -18q0 -9 -4 -18h-550q-5 15 -5 18q0 7 7 13t17 9.5 t24 7t25.5 5.5l23 4t15.5 3q27 7 40 21.5t13 44.5v606q0 25 -20.5 39.5t-46 18t-58.5 8t-48 10.5q-14 5 -14 16zM375 1021q0 162 130 162q8 0 16.5 -1t18.5 -4t16.5 -5t17.5 -6.5t16 -6.5t16.5 -7.5t13.5 -6.5l57 -25q28 -11 48 -11q31 0 31 38q0 10 -0.5 16t-0.5 9 q0 34 67 34q35 0 50 -12t15 -43v-24q0 -70 -26 -107t-86 -37q-11 0 -22.5 2.5t-25.5 7.5t-22 8.5t-23.5 10.5t-19.5 9t-19.5 9t-23.5 10.5t-22 8.5t-25.5 7.5t-22.5 2.5q-23 0 -32.5 -13.5t-9.5 -41.5q0 -12 -57 -12q-75 0 -75 28z" />
<glyph unicode="&#xf2;" horiz-adv-x="1096" d="M66 442q0 165 83.5 275t220.5 156q87 29 177 29q105 0 194 -34t149.5 -91.5t97.5 -134.5q42 -86 42 -200q0 -216 -151 -344q-62 -53 -146 -84t-183 -31q-157 0 -271.5 70.5t-171.5 188.5q-41 86 -41 200zM232 1252q0 40 21 72.5t55 32.5q18 0 35.5 -8t26 -15t22.5 -20 l26 -25q40 -39 96 -84q71 -56 217 -162q36 -25 36 -52q0 -18 -13.5 -27.5t-32.5 -9.5q-12 0 -43 16q-22 12 -61 34t-68 37q-102 54 -203 107l-78 42q-36 20 -36 62zM272 474q0 -139 46 -240.5t134 -144.5q51 -25 104 -25q92 0 153 55.5t92 142.5q23 65 23 150 q0 97 -19 176.5t-59.5 140t-100.5 91.5q-51 26 -103 26q-109 0 -186 -94q-84 -103 -84 -278z" />
<glyph unicode="&#xf3;" horiz-adv-x="1096" d="M66 442q0 165 83.5 275t220.5 156q87 29 177 29q105 0 194 -34t149.5 -91.5t97.5 -134.5q42 -86 42 -200q0 -216 -151 -344q-62 -53 -146 -84t-183 -31q-157 0 -271.5 70.5t-171.5 188.5q-41 86 -41 200zM272 474q0 -139 46 -240.5t134 -144.5q51 -25 104 -25 q92 0 153 55.5t92 142.5q23 65 23 150q0 97 -19 176.5t-59.5 140t-100.5 91.5q-51 26 -103 26q-109 0 -186 -94q-84 -103 -84 -278zM336 996q0 27 34 52q17 12 61 44t67 49.5t58.5 44.5t63.5 52.5t53 51.5l24 25q40 42 83 42q34 0 55 -32.5t21 -72.5v-6q0 -13 -0.5 -19 t-3 -13.5t-8.5 -11.5q-20 -12 -52 -27q-64 -32 -145 -71l-76 -37q-82 -41 -112 -64q-52 -39 -81 -39q-42 0 -42 32z" />
<glyph unicode="&#xf4;" horiz-adv-x="1096" d="M66 442q0 165 83.5 275t220.5 156q87 29 177 29q105 0 194 -34t149.5 -91.5t97.5 -134.5q42 -86 42 -200q0 -216 -151 -344q-62 -53 -146 -84t-183 -31q-157 0 -271.5 70.5t-171.5 188.5q-41 86 -41 200zM229 1010q0 17 14 47l117 242q55 113 104 226q17 36 56.5 49 t79.5 -10q23 -16 34 -39q14 -30 31 -69q18 -39 60 -128q42 -91 130 -271q14 -30 14 -47q0 -38 -51 -38q-3 0 -7.5 2t-7.5 4.5t-8 7t-7.5 7t-7.5 8t-6 6.5q-27 29 -43 53q-32 45 -82 115q-51 70 -100 138l-102 -138q-10 -14 -41.5 -62.5t-55.5 -78t-52 -52.5q-12 -10 -18 -10 q-51 0 -51 38zM272 474q0 -139 46 -240.5t134 -144.5q51 -25 104 -25q92 0 153 55.5t92 142.5q23 65 23 150q0 148 -45 255t-134 153q-51 26 -103 26q-109 0 -186 -94q-84 -103 -84 -278z" />
<glyph unicode="&#xf5;" horiz-adv-x="1096" d="M66 442q0 165 83.5 275t220.5 156q87 29 177 29q105 0 194 -34t149.5 -91.5t97.5 -134.5q42 -86 42 -200q0 -216 -151 -344q-62 -53 -146 -84t-183 -31q-157 0 -271.5 70.5t-171.5 188.5q-41 86 -41 200zM272 474q0 -139 46 -240.5t134 -144.5q51 -25 104 -25 q92 0 153 55.5t92 142.5q23 65 23 150q0 97 -19 176.5t-59.5 140t-100.5 91.5q-51 26 -103 26q-109 0 -186 -94q-84 -103 -84 -278zM303 1036q0 162 130 162q8 0 16.5 -1t18.5 -4t16.5 -5t17.5 -6.5t16 -6.5t16.5 -7.5t13.5 -5.5l57 -25q28 -12 48 -12q31 0 31 38 q0 10 -0.5 16t-0.5 9q0 34 67 34q35 0 50 -12t15 -43v-24q0 -46 -10 -76.5t-35.5 -49t-66.5 -18.5q-9 0 -19.5 2t-19.5 4.5t-20.5 7t-18.5 8t-18.5 9t-16.5 7.5q-4 2 -19.5 9t-23.5 10.5t-22 8.5t-25.5 7.5t-22.5 2.5q-12 0 -20 -3.5t-13 -10.5t-7 -17t-2 -24q0 -12 -57 -12 q-75 0 -75 28z" />
<glyph unicode="&#xf6;" horiz-adv-x="1096" d="M66 442q0 165 83.5 275t220.5 156q87 29 177 29q105 0 194 -34t149.5 -91.5t97.5 -134.5q42 -86 42 -200q0 -216 -151 -344q-62 -53 -146 -84t-183 -31q-157 0 -271.5 70.5t-171.5 188.5q-41 86 -41 200zM159 1130q0 32 14 57t39 39.5t56 14.5q32 0 57.5 -14t39.5 -39.5 t14 -57.5q0 -48 -31.5 -78.5t-79.5 -30.5q-47 0 -78 31t-31 78zM272 474q0 -139 46 -240.5t134 -144.5q51 -25 104 -25q92 0 153 55.5t92 142.5q23 65 23 150q0 97 -19 176.5t-59.5 140t-100.5 91.5q-51 26 -103 26q-109 0 -186 -94q-84 -103 -84 -278zM715 1130 q0 48 30.5 79.5t78.5 31.5t79.5 -31.5t31.5 -79.5q0 -31 -14.5 -56t-39.5 -39t-57 -14q-47 0 -78 31t-31 78z" />
<glyph unicode="&#xf7;" horiz-adv-x="1267" d="M150 567q0 34 20.5 52t54.5 18q28 0 85 -1.5t85 -1.5t50 1l613 6q79 0 79 -74q0 -36 -18 -51t-57 -15h-18q-11 0 -34.5 -0.5t-36.5 -0.5h-44q-52 -1 -115 -1h-195h-145q-119 0 -249 -5q-38 0 -56.5 17.5t-18.5 55.5zM491 236q0 32 13.5 60t34 46t45.5 29q28 13 60 13 q50 0 86.5 -26.5t54.5 -66.5q12 -27 12 -55q0 -47 -27 -82.5t-66 -53.5q-28 -12 -60 -12q-65 0 -109 42t-44 106zM491 903q0 32 13.5 60t34 46t45.5 29q28 13 60 13q50 0 86.5 -26.5t54.5 -66.5q12 -27 12 -55q0 -47 -27 -82.5t-66 -53.5q-28 -12 -60 -12q-65 0 -109 42 t-44 106z" />
<glyph unicode="&#xf8;" horiz-adv-x="1096" d="M66 442q0 165 83.5 275t221.5 156q86 29 176 29q68 0 136 -17l28 82q34 97 64 142q16 24 33 24q93 0 93 -66q0 -8 -3 -16t-6 -13t-9.5 -15t-9.5 -14l-37 -62q-23 -39 -54 -99q113 -56 180.5 -157t67.5 -249q0 -216 -150 -344q-41 -35 -90.5 -60t-111.5 -40t-128 -15 q-58 0 -113 12l-52 -153q-13 -40 -35.5 -60.5t-64.5 -20.5q-23 0 -35 22.5t-12 52.5q0 21 9 44l68 155q-114 56 -181.5 157.5t-67.5 249.5zM272 474q0 -205 97 -317l290 658q-56 35 -117 35q-109 0 -186 -96q-84 -105 -84 -280zM468 83q45 -17 88 -17q92 0 153 55.5 t92 141.5q23 64 23 149q0 218 -91 335q-50 -107 -116 -268q-65 -164 -149 -396z" />
<glyph unicode="&#xf9;" horiz-adv-x="1175" d="M-24 832q0 5 3 17q34 2 119 10l68 6q82 7 187 15v-472q0 -192 47 -275q39 -69 114 -69q86 0 152.5 40.5t112.5 103.5v516q0 25 -19 41t-43 21t-54.5 12.5t-44.5 15.5q-13 7 -13 20v6q0 1 3 9q20 2 60 5t60 5l69 6q83 7 188 15l-2 -696q0 -31 19.5 -50.5t44 -26.5t57 -17 t48.5 -20q13 -9 13 -24q0 -8 -5 -18l-350 -33l-20 163q-53 -78 -132 -126.5t-184 -48.5q-327 0 -327 423v315q0 32 -24 48t-61 24l-42 10q-10 2 -15 3.5t-13 5t-12 8.5t-4 12zM237 1252q0 40 21 72.5t55 32.5q18 0 35.5 -8t26 -15t22.5 -21l26 -25q40 -38 97 -83 q70 -56 216 -162q36 -25 36 -52q0 -18 -13.5 -27.5t-32.5 -9.5q-12 0 -42 16q-23 12 -62 34t-68 37q-102 54 -202 106l-79 43q-36 20 -36 62z" />
<glyph unicode="&#xfa;" horiz-adv-x="1175" d="M-24 832q0 5 3 17q34 2 119 10l68 6q82 7 187 15v-472q0 -192 47 -275q39 -69 114 -69q86 0 152.5 40.5t112.5 103.5v516q0 25 -19 41t-43 21t-54.5 12.5t-44.5 15.5q-13 7 -13 20v6q0 1 3 9q20 2 60 5t60 5l69 6q83 7 188 15l-2 -696q0 -31 19.5 -50.5t44 -26.5t57 -17 t48.5 -20q13 -9 13 -24q0 -8 -5 -18l-350 -33l-20 163q-53 -78 -132 -126.5t-184 -48.5q-327 0 -327 423v315q0 32 -24 48t-61 24l-42 10q-10 2 -15 3.5t-13 5t-12 8.5t-4 12zM341 996q0 27 34 52q17 12 61 44t67 49.5t58.5 44.5t64 52.5t53.5 51.5l23 24q40 43 83 43 q34 0 55 -32.5t21 -72.5v-6q0 -13 -0.5 -19t-3 -13.5t-8.5 -11.5q-20 -12 -51 -28q-65 -31 -146 -70l-76 -37q-82 -41 -112 -64q-52 -39 -81 -39q-42 0 -42 32z" />
<glyph unicode="&#xfb;" horiz-adv-x="1175" d="M-24 832q0 5 3 17q34 2 119 10l68 6q82 7 187 15v-472q0 -192 47 -275q39 -69 114 -69q86 0 152.5 40.5t112.5 103.5v516q0 25 -19 41t-43 21t-54.5 12.5t-44.5 15.5q-13 7 -13 20v6q0 1 3 9q20 2 60 5t60 5l69 6q83 7 188 15l-2 -696q0 -31 19.5 -50.5t44 -26.5t57 -17 t48.5 -20q13 -9 13 -24q0 -8 -5 -18l-350 -33l-20 163q-53 -78 -132 -126.5t-184 -48.5q-327 0 -327 423v315q0 32 -24 48t-61 24l-42 10q-10 2 -15 3.5t-13 5t-12 8.5t-4 12zM234 1010q0 17 14 47l118 242q54 113 103 226q17 36 56.5 49t79.5 -11q23 -15 34 -38 q14 -30 32 -69q17 -39 59 -129t130 -270q14 -30 14 -47q0 -38 -51 -38q-3 0 -7.5 2t-7.5 4.5t-8 7t-7.5 7t-7.5 8l-5 5.5q-28 30 -44 54q-32 45 -81 114q-52 71 -101 139q-51 -69 -101 -139q-13 -17 -34.5 -49t-36 -53t-36.5 -46.5t-43 -43.5q-12 -10 -18 -10q-51 0 -51 38z " />
<glyph unicode="&#xfc;" horiz-adv-x="1175" d="M-24 832q0 5 3 17q34 2 119 10l68 6q82 7 187 15v-472q0 -192 47 -275q39 -69 114 -69q86 0 152.5 40.5t112.5 103.5v516q0 25 -19 41t-43 21t-54.5 12.5t-44.5 15.5q-13 7 -13 20v6q0 1 3 9q20 2 60 5t60 5l69 6q83 7 188 15l-2 -696q0 -31 19.5 -50.5t44 -26.5t57 -17 t48.5 -20q13 -9 13 -24q0 -8 -5 -18l-350 -33l-20 163q-53 -78 -132 -126.5t-184 -48.5q-327 0 -327 423v315q0 32 -24 48t-61 24l-42 10q-10 2 -15 3.5t-13 5t-12 8.5t-4 12zM167 1115q0 32 14 57t39 39.5t56 14.5q32 0 57.5 -14t39.5 -39.5t14 -57.5q0 -48 -31.5 -78.5 t-79.5 -30.5q-47 0 -78 31t-31 78zM723 1115q0 32 14 57t39 39.5t56 14.5q48 0 79.5 -31.5t31.5 -79.5q0 -24 -8.5 -44t-23 -34.5t-35 -22.5t-44.5 -8q-47 0 -78 31t-31 78z" />
<glyph unicode="&#xfd;" horiz-adv-x="948" d="M-66 845l4 23h498q0 -1 3 -7l6 -12t3 -7q0 -13 -23.5 -20.5t-60 -11.5t-39.5 -5q-42 -9 -27 -45l201 -510l160 450q12 31 12 51q0 15 -6 26.5t-20 19.5t-23 11.5t-27 9.5l-56 19q-5 2 -5 12q0 6 5 19h384q4 -7 4 -19t-17.5 -21t-37 -12.5t-36.5 -3.5q-9 0 -16.5 -1 t-13.5 -4.5t-10.5 -6t-9.5 -9t-7.5 -9t-6.5 -12t-5 -12t-5 -13.5t-5 -13q-165 -432 -355 -874l-38 -90q-16 -36 -33.5 -62.5t-42.5 -52.5t-60 -40t-78 -14q-61 0 -100.5 30t-39.5 86q0 32 15 55.5t40.5 36t57.5 12.5q16 0 28.5 -4t22.5 -11.5t17 -14.5t16 -18.5t14 -17.5 q12 -12 31 -12t34 8.5t25.5 26t16.5 30.5t14 37.5t11 31.5l51 138l-333 763q-9 19 -23 28.5t-38 14.5l-39 8q-20 4 -37 18zM226 981q0 27 34 52q17 12 44.5 32t46.5 33.5t44 32.5t45.5 35t42.5 34.5t42 37t39 37.5l23 24q40 43 83 43q34 0 55 -32.5t21 -72.5v-6 q0 -13 -0.5 -19t-3 -13.5t-8.5 -11.5q-20 -12 -51 -28q-65 -31 -146 -70l-76 -37q-82 -41 -112 -64q-52 -39 -81 -39q-42 0 -42 32z" />
<glyph unicode="&#xfe;" horiz-adv-x="510" d="M-284 1227q0 8 4 17l398 70v-585q99 132 230 165q29 8 61 8q81 0 148.5 -36t118.5 -93q53 -60 85.5 -145t32.5 -185q0 -164 -64 -275.5t-183 -156.5q-73 -28 -155 -28q-154 0 -275 50v-261q0 -29 21.5 -45.5t48.5 -21.5t61.5 -11.5t51.5 -14.5q14 -8 14 -22q0 -4 -4 -17 h-566q-5 10 -5 18t6 14.5t18 11t20.5 7t24 5t18.5 3.5q40 9 63.5 24.5t23.5 48.5l-1 1350q0 10 -4.5 18.5t-13.5 15t-17.5 11.5t-22 9.5t-20.5 6.5t-20 5l-47 13q-1 0 -7.5 2t-10 3t-9.5 2.5t-9.5 3.5t-7 4.5t-5.5 5t-2 5.5zM118 134q86 -68 249 -68q43 0 77.5 14.5t58.5 41 t41 60.5t26.5 76.5t14 85t4.5 89.5q0 357 -230 357q-88 0 -173 -77q-38 -33 -68 -76v-503z" />
<glyph unicode="&#xff;" horiz-adv-x="948" d="M-66 845l4 23h498q0 -1 3 -7l6 -12t3 -7q0 -13 -23.5 -20.5t-60 -11.5t-39.5 -5q-42 -9 -27 -45l201 -510l160 450q12 31 12 51q0 15 -6 26.5t-20 19.5t-23 11.5t-27 9.5l-56 19q-5 2 -5 12q0 6 5 19h384q4 -7 4 -19t-17.5 -21t-37 -12.5t-36.5 -3.5q-9 0 -16.5 -1 t-13.5 -4.5t-10.5 -6t-9.5 -9t-7.5 -9t-6.5 -12t-5 -12t-5 -13.5t-5 -13q-165 -432 -355 -874l-38 -90q-16 -36 -33.5 -62.5t-42.5 -52.5t-60 -40t-78 -14q-61 0 -100.5 30t-39.5 86q0 32 15 55.5t40.5 36t57.5 12.5q16 0 28.5 -4t22.5 -11.5t17 -14.5t16 -18.5t14 -17.5 q12 -12 31 -12t34 8.5t25.5 26t16.5 30.5t14 37.5t11 31.5l51 138l-333 763q-9 19 -23 28.5t-38 14.5l-39 8q-20 4 -37 18zM49 1115q0 32 14 57t39 39.5t56 14.5q48 0 79.5 -31.5t31.5 -79.5t-31.5 -78.5t-79.5 -30.5q-47 0 -78 31t-31 78zM605 1115q0 32 14 57t39 39.5 t56 14.5q48 0 79.5 -31.5t31.5 -79.5q0 -24 -8.5 -44t-23 -34.5t-35 -22.5t-44.5 -8q-47 0 -78 31t-31 78z" />
<glyph unicode="&#x152;" horiz-adv-x="2018" d="M62 590q0 98 26 182t73.5 147t106.5 109.5t131 80.5q146 67 308 67q287 1 515 2q89 0 271.5 1.5t263.5 1.5q54 0 101 25l34 17q4 0 21 -5l7 -338q-14 -6 -23 -6t-16.5 4.5t-13.5 13t-10 17.5t-7.5 22t-6 22t-5 23t-3.5 19q-6 25 -12.5 43.5t-18.5 38t-30.5 30t-42.5 11.5 l-438 8q-20 0 -31.5 -4t-17 -14.5t-7 -22.5t-1.5 -35v-408l351 11q14 1 26 7t22 18.5t14.5 20.5t12.5 24q2 2 7.5 13l8 16t9 14t11.5 13.5t12.5 8t15.5 3.5q4 0 22 -5v-342q-12 -6 -22 -6q-17 0 -31 22l-29 48q-9 14 -14.5 22.5t-16 21t-22.5 18.5t-26 6l-351 6v-458 q0 -81 46 -81l462 15q18 0 33 4.5t25.5 10.5t19.5 17.5t14 20t11 26t8 27t7 30.5t7 30q4 16 8.5 27t14.5 20t25 9q3 0 23 -5l-28 -322q-17 -5 -23 -5q-8 0 -15 1t-14.5 4.5t-11 5.5t-12 8t-10.5 7q-42 26 -82 26h-1038q-214 0 -366 88.5t-226 243.5q-52 111 -52 258z M277 636q0 -130 27 -233.5t81.5 -180t143.5 -117.5t208 -41q181 0 284 10v1036q-32 0 -80 1q-38 0 -119.5 0.5t-129.5 0.5q-78 0 -143 -22.5t-112 -62.5t-80 -92t-53 -115q-27 -87 -27 -184z" />
<glyph unicode="&#x153;" horiz-adv-x="1699" d="M66 442q0 105 39.5 190t104.5 145q40 37 88 64t110.5 44t128.5 17q84 0 158 -28t126.5 -73.5t92.5 -106.5q59 98 153 155t223 57q121 0 201.5 -64.5t117.5 -168.5q24 -67 24 -142q0 -29 -4 -59h-609q0 -130 43 -220t128 -131q56 -26 130 -26q25 0 49 1.5t40.5 3.5t41 6.5 t35.5 7t39 9t38 8.5q6 2 10 -2.5t4 -11.5v-17q0 -5 -5 -10q-116 -108 -297 -108q-250 0 -362 206q-117 -206 -335 -206q-169 0 -291 72.5t-182 196.5q-40 85 -40 191zM272 474q0 -304 160 -402q59 -36 147 -36q53 0 95.5 21.5t70 57.5t45.5 85t26 101t8 109q0 63 -5.5 116.5 t-18.5 104.5t-36 89.5t-55.5 68.5t-79 45.5t-105.5 15.5q-55 0 -98.5 -21t-71.5 -56.5t-47 -84.5t-27 -102t-8 -112zM1022 517l402 15q13 0 21.5 10.5t8.5 25.5q0 48 -4.5 86.5t-16.5 76t-31.5 63t-52 41t-74.5 15.5q-108 0 -178 -105q-62 -91 -75 -228z" />
<glyph unicode="&#x178;" horiz-adv-x="1324" d="M64 1159q0 2 4 17h626q4 -11 4 -18t-6.5 -13.5t-21 -12t-22.5 -8.5t-26 -7t-18 -5q-1 0 -14.5 -3t-18 -4.5t-17 -5.5t-18 -7.5t-13.5 -8.5t-11 -11t-3 -13q0 -9 5 -19l230 -410l214 410q6 10 6 20t-6 18t-20 13.5t-21 7.5t-23 6q-2 1 -13 4t-14.5 3.5t-13 3.5t-14 4.5 t-13 4t-13.5 5t-11.5 5.5t-11.5 6t-10 7q-4 3 -4 11q0 2 4 17h496q4 -11 4 -19q0 -23 -91 -38q-40 -7 -65 -14.5t-48 -23.5t-37 -41l-266 -460v-456q0 -24 15.5 -39.5t42 -22t53.5 -9.5t57.5 -6.5t47.5 -9.5t17 -20q0 -4 -4 -17h-670q-5 10 -5 18t4 13.5t12.5 9.5t17 6.5 t21 3.5t21.5 2t21.5 1.5t18.5 0.5q23 2 41 5.5t36 11.5t28 22.5t10 35.5v400l-280 500q-3 5 -8 10t-13 10.5t-13 8.5t-16 9t-14 7q-24 14 -50 27l-49 25q-2 2 -8 4.5t-11 5t-11 6t-10.5 6t-7.5 5.5t-3 5zM283 1435q0 48 30.5 79.5t78.5 31.5q32 0 57.5 -14t39.5 -39.5 t14 -57.5q0 -48 -31.5 -78.5t-79.5 -30.5q-47 0 -78 31t-31 78zM839 1435q0 48 30.5 79.5t78.5 31.5q32 0 57.5 -14t39.5 -39.5t14 -57.5q0 -48 -31.5 -78.5t-79.5 -30.5q-47 0 -78 31t-31 78z" />
<glyph unicode="&#x2c6;" horiz-adv-x="1500" d="M426 85q0 17 14 47l118 242q54 113 103 226q17 36 56.5 49t79.5 -11q23 -15 34 -38q14 -30 31 -69q18 -39 60 -129t130 -270q14 -30 14 -47q0 -38 -51 -38q-3 0 -7.5 2t-7.5 4.5t-8 7t-7.5 7t-7.5 8t-6 6.5q-27 29 -43 53q-32 45 -82 115q-51 70 -100 138l-102 -138 q-12 -18 -33.5 -50t-36 -53t-36.5 -46.5t-43 -43.5q-12 -10 -18 -10q-51 0 -51 38z" />
<glyph unicode="&#x2dc;" horiz-adv-x="1707" d="M565 111q0 162 130 162q8 0 16.5 -1t18.5 -4t16.5 -5t17.5 -6.5t16 -6.5t16.5 -7.5t13.5 -5.5l58 -25q27 -12 47 -12q31 0 31 38q0 10 -0.5 16t-0.5 9q0 34 67 34q23 0 37 -4.5t21 -17t7 -33.5v-24q0 -70 -26 -107t-86 -37q-11 0 -22.5 2.5t-25.5 7.5t-22 8.5t-23.5 10.5 t-19.5 9t-19.5 9t-23.5 10.5t-22 8.5t-25.5 7.5t-22.5 2.5q-23 0 -32.5 -13.5t-9.5 -41.5q0 -12 -57 -12q-75 0 -75 28z" />
<glyph unicode="&#x2000;" horiz-adv-x="941" />
<glyph unicode="&#x2001;" horiz-adv-x="1883" />
<glyph unicode="&#x2002;" horiz-adv-x="941" />
<glyph unicode="&#x2003;" horiz-adv-x="1883" />
<glyph unicode="&#x2004;" horiz-adv-x="627" />
<glyph unicode="&#x2005;" horiz-adv-x="470" />
<glyph unicode="&#x2006;" horiz-adv-x="313" />
<glyph unicode="&#x2007;" horiz-adv-x="313" />
<glyph unicode="&#x2008;" horiz-adv-x="235" />
<glyph unicode="&#x2009;" horiz-adv-x="376" />
<glyph unicode="&#x200a;" horiz-adv-x="104" />
<glyph unicode="&#x2010;" horiz-adv-x="0" d="M267 442q0 8 2.5 15t8 11.5t11 8t15.5 5.5t16.5 3t19.5 1.5t19.5 0.5h20.5h19h315h8h29.5t28 -1.5t27.5 -4.5t21 -8.5t16 -14.5t5 -21q0 -11 -4 -19t-13 -12.5t-18 -7.5t-23 -3.5t-24.5 -0.5t-27 0.5t-25.5 0.5h-312q-6 0 -26 -0.5t-27.5 0t-24 1.5t-24 4t-16.5 8t-13 14 t-4 20z" />
<glyph unicode="&#x2011;" horiz-adv-x="0" d="M267 442q0 8 2.5 15t8 11.5t11 8t15.5 5.5t16.5 3t19.5 1.5t19.5 0.5h20.5h19h315h8h29.5t28 -1.5t27.5 -4.5t21 -8.5t16 -14.5t5 -21q0 -11 -4 -19t-13 -12.5t-18 -7.5t-23 -3.5t-24.5 -0.5t-27 0.5t-25.5 0.5h-312q-6 0 -26 -0.5t-27.5 0t-24 1.5t-24 4t-16.5 8t-13 14 t-4 20z" />
<glyph unicode="&#x2012;" horiz-adv-x="0" d="M267 442q0 8 2.5 15t8 11.5t11 8t15.5 5.5t16.5 3t19.5 1.5t19.5 0.5h20.5h19h315h8h29.5t28 -1.5t27.5 -4.5t21 -8.5t16 -14.5t5 -21q0 -11 -4 -19t-13 -12.5t-18 -7.5t-23 -3.5t-24.5 -0.5t-27 0.5t-25.5 0.5h-312q-6 0 -26 -0.5t-27.5 0t-24 1.5t-24 4t-16.5 8t-13 14 t-4 20z" />
<glyph unicode="&#x2013;" horiz-adv-x="0" d="M267 442q0 8 2.5 15t8 11.5t11 8t15.5 5.5t16.5 3t19.5 1.5t19.5 0.5h20.5h19h315h8h29.5t28 -1.5t27.5 -4.5t21 -8.5t16 -14.5t5 -21q0 -11 -4 -19t-13 -12.5t-18 -7.5t-23 -3.5t-24.5 -0.5t-27 0.5t-25.5 0.5h-312q-6 0 -26 -0.5t-27.5 0t-24 1.5t-24 4t-16.5 8t-13 14 t-4 20z" />
<glyph unicode="&#x2014;" horiz-adv-x="0" d="M267 442q0 8 2.5 15t8 11.5t11 8t15.5 5.5t16.5 3t19.5 1.5t19.5 0.5h20.5h19h630h19h20.5t19.5 -0.5t19.5 -1.5t16.5 -3t15.5 -5.5t11 -8t8 -11.5t2.5 -15q0 -12 -4 -20.5t-13 -13.5t-16.5 -8t-23.5 -4t-24.5 -1.5t-27.5 0t-26 0.5h-624h-20h-21h-20t-20 1.5t-17.5 3.5 t-15 5.5t-11 8.5t-8 12t-2.5 16z" />
<glyph unicode="&#x2018;" d="M205 881q0 90 40 167.5t100 120.5q41 30 88 30q42 0 42 -39q0 -9 -6 -16t-10.5 -9.5t-16.5 -8.5l-30 -14q-62 -28 -62 -104q75 0 120.5 -39t45.5 -109q0 -65 -43.5 -106.5t-109.5 -41.5q-51 0 -87 21t-53.5 58.5t-17.5 89.5z" />
<glyph unicode="&#x2019;" d="M198 1054q0 65 43.5 106.5t109.5 41.5q77 0 117.5 -45t40.5 -124q0 -90 -40 -167.5t-100 -120.5q-42 -30 -88 -30q-43 0 -43 38q0 9 6 16.5t11 10.5t16 7l30 14q63 28 63 105q-75 0 -120.5 39t-45.5 109z" />
<glyph unicode="&#x201a;" d="M274 127q-7 63 16 92t84 29t84 -29t16 -92l-50 -269q-1 -6 -4.5 -25t-5 -26.5t-5 -19.5t-7.5 -21q-8 -18 -28 -18q-13 0 -20.5 7.5t-10 15t-6.5 23.5q-1 3 -1 5q-5 22 -12 59z" />
<glyph unicode="&#x201c;" d="M205 881q0 90 40 167.5t100 120.5q41 30 88 30q42 0 42 -39q0 -9 -6 -16t-10.5 -9.5t-16.5 -8.5l-30 -14q-62 -28 -62 -104q75 0 120.5 -39t45.5 -109q0 -65 -43.5 -106.5t-109.5 -41.5q-51 0 -87 21t-53.5 58.5t-17.5 89.5zM585 881q0 60 19.5 117.5t50.5 100t69 70.5 q42 30 89 30q42 0 42 -39q0 -9 -6 -16t-10.5 -9.5t-16.5 -8.5l-30 -14q-62 -28 -62 -104q75 0 120.5 -39t45.5 -109q0 -65 -43.5 -106.5t-109.5 -41.5q-77 0 -117.5 45t-40.5 124z" />
<glyph unicode="&#x201d;" d="M198 1054q0 65 43.5 106.5t109.5 41.5q77 0 117.5 -45t40.5 -124q0 -90 -40 -167.5t-100 -120.5q-42 -30 -88 -30q-43 0 -43 38q0 9 6 16.5t11 10.5t16 7l30 14q63 28 63 105q-75 0 -120.5 39t-45.5 109zM593 1054q0 65 43.5 106.5t109.5 41.5q39 0 69 -12t49.5 -34 t29.5 -53t10 -70q0 -90 -40 -167.5t-100 -120.5q-42 -30 -88 -30q-43 0 -43 38q0 9 6 16.5t11 10.5t16 7l30 14q63 28 63 105q-75 0 -120.5 39t-45.5 109z" />
<glyph unicode="&#x201e;" d="M124 129q-7 63 16 92t84 29t84 -29t16 -92l-50 -269q-1 -6 -4.5 -25t-5 -26.5t-5 -19.5t-7.5 -21q-8 -18 -28 -18q-13 0 -20.5 7.5t-10 15t-6.5 23.5q-1 3 -1 5q-5 22 -12 59zM382 129q-5 42 3.5 68.5t32 39.5t64.5 13q61 0 84 -29t16 -92l-50 -269q-1 -6 -4.5 -25 t-5 -26.5t-5 -19.5t-7.5 -21q-8 -18 -28 -18q-13 0 -20.5 7.5t-10 15t-6.5 23.5q-1 3 -1 5q-5 22 -12 59z" />
<glyph unicode="&#x2022;" horiz-adv-x="1119" d="M275 470q0 92 40 157.5t109 98.5q50 24 118 24q98 0 164 -57.5t95 -145.5q18 -57 18 -115q0 -89 -39 -151t-106 -93q-50 -22 -118 -22q-101 0 -168 54t-95 140q-18 54 -18 110z" />
<glyph unicode="&#x2026;" horiz-adv-x="1690" d="M198 132q0 47 26.5 82.5t66.5 53.5q28 12 60 12q50 0 86.5 -26.5t54.5 -66.5q12 -27 12 -55q0 -47 -27 -82.5t-66 -53.5q-28 -12 -60 -12q-65 0 -109 42t-44 106zM693 132q0 32 13.5 60t34 46t45.5 30q28 12 60 12q50 0 86.5 -26.5t54.5 -66.5q12 -27 12 -55 q0 -47 -27 -82.5t-66 -53.5q-28 -12 -60 -12q-43 0 -78 19t-55 53t-20 76zM1186 132q0 32 13.5 60t34 46t45.5 30q28 12 60 12q34 0 63 -13t47.5 -33.5t30.5 -46.5q12 -27 12 -55q0 -47 -27 -82.5t-66 -53.5q-28 -12 -60 -12q-65 0 -109 42t-44 106z" />
<glyph unicode="&#x202f;" horiz-adv-x="376" />
<glyph unicode="&#x2039;" horiz-adv-x="958" d="M406 553q33 35 174 183t217 227q14 15 22 15q29 0 44 -15.5t15 -43.5q0 -17 -28 -54l-243 -312l233 -329q18 -26 20 -55q0 -12 -1 -20t-3.5 -16t-9.5 -11.5t-17 -3.5q-20 0 -33 5t-20.5 12t-22.5 24z" />
<glyph unicode="&#x203a;" horiz-adv-x="958" d="M420 919q0 28 15 43.5t44 15.5q8 0 22 -14q76 -80 216 -227t175 -184l-347 -394q-15 -17 -22 -24t-20.5 -12t-33.5 -5q-14 0 -21 7.5t-8.5 17t-1.5 26.5q0 28 20 55l233 329l-243 312q-28 37 -28 54z" />
<glyph unicode="&#x205f;" horiz-adv-x="470" />
<glyph unicode="&#x20ac;" horiz-adv-x="1116" d="M-83 472q0 8 2.5 15t8 11.5t11 8t15.5 5.5t16.5 3t19.5 1.5t19.5 0.5h20.5h19h22q-5 58 -5 92v29q0 15 2 29h-16q-6 0 -26 -0.5t-27.5 0t-24 1.5t-24 4t-17 8t-13 14t-3.5 20q0 8 2.5 15t8 11.5t11 8t15.5 5.5t16.5 3t19.5 1.5t19.5 0.5h20.5h19h31q27 145 101 250.5 t189 157.5q80 35 180 35q236 0 378 -201q43 -61 72 -132h-203q-59 190 -174 251q-39 20 -85 20q-99 0 -168 -113q-62 -103 -81 -268h155h8h25t24.5 -1t24.5 -3t20.5 -5.5t17.5 -8.5t10.5 -13.5t4.5 -18.5q0 -11 -4 -19t-13 -12.5t-18 -7.5t-23 -3.5t-24.5 -0.5t-27 0.5 t-25.5 0.5h-162v-39q0 -43 5 -111h157h8h29.5t28 -1.5t27.5 -4.5t21 -8.5t16 -14.5t5 -21q0 -11 -4 -19t-13 -12.5t-18 -7.5t-23 -3.5t-24.5 -0.5t-27 0.5t-25.5 0.5h-143q47 -250 184 -331q48 -28 108 -28q41 0 75 16t57 40t42.5 59.5t30.5 67.5t21 71l200 1 q-24 -71 -60.5 -128.5t-87.5 -104.5t-121.5 -74.5t-155.5 -30.5q-82 0 -152.5 21t-125 59t-95 85.5t-71.5 106.5q-42 80 -63 170h-35q-6 0 -26 -0.5t-27.5 0t-24 1.5t-24 4t-16.5 8t-13 14t-4 20z" />
<glyph unicode="&#x2122;" horiz-adv-x="2863" d="M21 1014l20 207q7 0 12.5 0.5t8.5 0.5q14 0 34 -12.5t35 -12.5l212 -2l237 2q13 0 31 12t25 14h16l27 -209q-3 -2 -6 -2h-4q-4 0 -7.5 2.5t-6.5 7t-5 9t-4.5 12t-4 11t-3.5 10.5t-2 8q-1 2 -2 7q-6 19 -9.5 29t-11.5 23t-19 19t-26 7l-163 5v-594q0 -21 22 -30.5t48 -9.5 t48 -5t22 -18q0 -2 -3 -11h-399q-2 4 -2 11q0 12 19.5 17t47 6.5t34.5 3.5q35 11 35 40v590l-137 -5q-13 0 -24 -6t-17.5 -12t-13.5 -21t-9.5 -21.5t-8.5 -24.5l-8 -20q-15 -40 -28 -40h-3q-2 0 -7 2zM701 505q0 11 18 16.5t44.5 7.5t32.5 4q33 9 35 39l16 535 q2 26 -18.5 37.5t-56 16.5t-47.5 10q-10 5 -10 14q1 0 1 2q0 4 1 8h217l279 -565l230 565h242q3 -9 3 -11q0 -10 -20.5 -15.5t-47.5 -8.5t-33 -5q-35 -12 -33 -41l18 -546q0 -21 21 -31t46.5 -10.5t46.5 -5t21 -16.5v-4q0 -2 -2 -7h-375q-3 7 -3 11q0 5 4 9t11 6.5t15.5 4 t18 2t18 1t16.5 1.5t12 2q33 11 33 41l-10 546l-253 -624h-34l-274 544l-3 -470q-2 -26 15.5 -33.5t48.5 -8.5t45 -7q9 -4 9 -14v-4q0 -2 -2 -7h-293q-3 7 -3 11z" />
<glyph unicode="&#xe000;" horiz-adv-x="870" d="M0 0v870h870v-870h-870z" />
</font>
</defs>
</svg>
