<?xml version="1.0" standalone="no"?>
<!DOCTYPE svg PUBLIC "-//W3C//DTD SVG 1.1//EN" "http://www.w3.org/Graphics/SVG/1.1/DTD/svg11.dtd" >
<svg xmlns="http://www.w3.org/2000/svg">
<metadata></metadata>
<defs>
<font id="resagokrlight" horiz-adv-x="183" >
<font-face units-per-em="1000" ascent="800" descent="-200" />
<missing-glyph horiz-adv-x="316" />
<glyph unicode="&#xfb01;" horiz-adv-x="516" d="M33 425v25h67v68q0 52 33.5 83.5t87.5 31.5q31 0 85 -19l36 -13l-8 -23l-44 14q-26 8 -50 8q-46 0 -70.5 -22.5t-24.5 -65.5q0 -9 5 -62h167v-25h-167v-425h-50v425h-67zM396 594v31q0 13 16 13h26q16 0 16 -13v-31q0 -15 -16 -15h-26q-16 0 -16 15zM400 0v467h50v-467 h-50z" />
<glyph unicode="&#xfb02;" horiz-adv-x="516" d="M33 425v25h67v68q0 52 33.5 83.5t87.5 31.5q31 0 85 -19l36 -13l-8 -23l-44 14q-26 8 -50 8q-46 0 -70.5 -22.5t-24.5 -65.5q0 -9 5 -62h167v-25h-167v-425h-50v425h-67zM400 166v467h50v-633l-41 -2q0 5 -4.5 74t-4.5 94z" />
<glyph unicode="&#xfb03;" horiz-adv-x="850" d="M33 425v25h67v68q0 52 33.5 83.5t87.5 31.5q31 0 85 -19l36 -13l-8 -23l-44 14q-26 8 -50 8q-46 0 -70.5 -22.5t-24.5 -65.5q0 -9 5 -62h167v-25h-167v-425h-50v425h-67zM367 425v25h66v68q0 52 33.5 83.5t87.5 31.5q31 0 85 -19l36 -13l-8 -23l-44 14q-26 8 -50 8 q-94 0 -94 -88q0 -19 4 -62h175v-25h-175v-425h-50v425h-66zM729 594v31q0 13 16 13h26q17 0 17 -13v-31q0 -15 -17 -15h-26q-16 0 -16 15zM733 0v467h50v-467h-50z" />
<glyph unicode="&#xfb04;" horiz-adv-x="850" d="M33 425v25h67v68q0 52 33.5 83.5t87.5 31.5q31 0 85 -19l36 -13l-8 -23l-44 14q-26 8 -50 8q-46 0 -70.5 -22.5t-24.5 -65.5q0 -9 5 -62h167v-25h-167v-425h-50v425h-67zM367 425v25h66v68q0 52 33.5 83.5t87.5 31.5q31 0 85 -19l36 -13l-8 -23l-44 14q-26 8 -50 8 q-94 0 -94 -88q0 -19 4 -62h175v-25h-175v-425h-50v425h-66zM733 166v467h50v-633l-41 -2q0 5 -4.5 74t-4.5 94z" />
<glyph horiz-adv-x="1000" />
<glyph horiz-adv-x="1000" />
<glyph unicode="&#xd;" horiz-adv-x="1000" />
<glyph unicode=" "  horiz-adv-x="316" />
<glyph unicode="&#x09;" horiz-adv-x="316" />
<glyph unicode="&#xa0;" horiz-adv-x="316" />
<glyph unicode="!" horiz-adv-x="166" d="M54 633h67q-17 -272 -17 -333q0 -60 4 -100h-41q4 40 4 100q0 54 -17 333zM58 8v25q0 17 17 17h25q17 0 17 -17v-25q0 -16 -17 -16h-25q-17 0 -17 16z" />
<glyph unicode="&#x22;" horiz-adv-x="191" d="M42 610q0 27 2 33.5t9 6.5h22v-67q0 -35 -14 -108h-14q2 17 2 67q0 24 -3.5 43t-3.5 25zM125 610q0 27 2 33.5t9 6.5h22v-67q0 -35 -14 -108h-14q2 17 2 67q0 24 -3.5 43t-3.5 25z" />
<glyph unicode="#" horiz-adv-x="500" d="M38 183l3 25h101l17 217h-100l3 25h100l11 133h25l-11 -133h150l11 133h25l-11 -133h100l-3 -25h-101l-17 -217h100l-3 -25h-100l-11 -133h-25l11 133h-149l-12 -133h-25l11 133h-100zM167 208h150l17 217h-151z" />
<glyph unicode="$" horiz-adv-x="508" d="M42 70l16 40q23 -8 62.5 -25t66 -25t55.5 -10v255l-15 7q-15 7 -51 22.5t-51 24t-37 24t-30.5 34.5t-8.5 43q0 63 53.5 101.5t139.5 38.5v58h26v-58q77 0 159 -30l-16 -38q-18 6 -48 18t-50.5 18t-44.5 7v-223q11 -5 41.5 -18.5t43 -19.5t36.5 -19t35 -23.5t24.5 -26 t19 -33.5t5.5 -39q0 -67 -56.5 -107.5t-148.5 -40.5v-58h-26v58q-79 0 -200 45zM99 482q0 -13 3.5 -24t7.5 -19t14.5 -16.5t17 -13.5t22 -12.5t23 -11t27.5 -11.5t28 -11v212q-65 -2 -104 -27.5t-39 -65.5zM268 50q70 2 112.5 30.5t42.5 74.5q0 23 -10 42t-20.5 31t-37 26.5 t-39.5 20t-48 20.5v-245z" />
<glyph unicode="%" horiz-adv-x="828" d="M42 483q0 71 44 115t117 44t117.5 -44t44.5 -115t-44.5 -114.5t-117.5 -43.5t-117 43.5t-44 114.5zM94 484q0 -65 30 -99.5t88 -34.5q101 0 101 133q0 65 -30 99.5t-88 34.5q-101 0 -101 -133zM143 63l506 518l23 -23l-505 -518zM463 150q0 71 44.5 114.5t117.5 43.5 t117.5 -43.5t44.5 -114.5t-44.5 -114.5t-117.5 -43.5t-117.5 43.5t-44.5 114.5zM515 150q0 -133 118 -133q49 0 75.5 34t26.5 99q0 133 -118 133q-49 0 -75.5 -34t-26.5 -99z" />
<glyph unicode="&#x26;" horiz-adv-x="693" d="M50 154q0 23 9 44.5t20.5 36.5t31.5 30.5t31.5 22.5t31.5 18t22 12q-83 78 -83 162q0 58 41.5 89t120.5 31q34 0 78 -9t65 -19l-17 -30l-75 25q-26 8 -43 8q-120 0 -120 -78q0 -53 59 -117l246 -259q28 51 28 117q0 20 -4 40t-7.5 32t-12 33.5t-11.5 31.5q-11 0 -48.5 -2 t-44.5 -2l-2 29l107 -4l168 4l2 -33q-23 0 -69 4t-76 4q23 -69 23 -137q0 -77 -34 -136l51 -54q30 -30 72 -30q9 0 59 10l-3 -34q-30 -2 -38 -2q-83 0 -123 37l-42 39q-65 -76 -183 -76q-104 0 -167 44.5t-63 117.5zM100 153q0 -61 49.5 -98.5t130.5 -37.5q104 0 164 69 l-229 214q-66 -34 -90.5 -65.5t-24.5 -81.5z" />
<glyph unicode="'" horiz-adv-x="108" d="M42 610q0 27 2 33.5t9 6.5h22v-67q0 -35 -14 -108h-14q2 17 2 67q0 24 -3.5 43t-3.5 25z" />
<glyph unicode="(" horiz-adv-x="250" d="M50 275q0 126 39.5 217t120.5 166l17 -18l-25 -23q-46 -43 -73 -139t-27 -203t27 -203t73 -139l25 -23l-17 -18q-81 75 -120.5 166t-39.5 217z" />
<glyph unicode=")" horiz-adv-x="250" d="M23 -90l25 23q46 43 73 139t27 203t-27 203t-73 139l-25 23l17 18q81 -75 120.5 -166t39.5 -217t-39.5 -217t-120.5 -166z" />
<glyph unicode="*" horiz-adv-x="320" d="M69 603l4 15l60 -19l18 11l1 65h16l1 -65l18 -11l60 19l4 -15l-60 -23l-5 -20l35 -50l-13 -8l-38 47h-20l-38 -47l-13 8l35 50l-5 20z" />
<glyph unicode="+" horiz-adv-x="516" d="M50 283v34h192v208h33v-208h192v-34h-192v-208h-33v208h-192z" />
<glyph unicode="," horiz-adv-x="166" d="M24 -108q51 54 51 95q0 13 -8.5 26t-8.5 19v5q0 13 17 13h25q17 0 17 -12v-34q0 -15 -23 -57t-52 -72z" />
<glyph unicode="-" horiz-adv-x="400" d="M50 279v33h300v-33h-300z" />
<glyph unicode="." horiz-adv-x="166" d="M58 8v25q0 17 17 17h25q17 0 17 -17v-25q0 -16 -17 -16h-25q-17 0 -17 16z" />
<glyph unicode="/" horiz-adv-x="404" d="M22 -15l331 663l30 -15l-332 -663z" />
<glyph unicode="0" horiz-adv-x="508" d="M38 316q0 146 59.5 236t156.5 90q98 0 157.5 -89.5t59.5 -235.5t-59.5 -235.5t-157.5 -89.5t-157 89t-59 235zM91 317q0 -146 42 -223t121 -77q80 0 122 76.5t42 222.5t-42 223.5t-122 77.5q-79 0 -121 -77t-42 -223z" />
<glyph unicode="1" horiz-adv-x="216" d="M33 592v25l117 25v-642h-50v571q0 12 -8 19.5t-20 7.5q-1 0 -39 -6z" />
<glyph unicode="2" horiz-adv-x="454" d="M33 0v39q73 76 109.5 115t79.5 87.5t60.5 73t35.5 55t23 52.5t5 47q0 66 -40 107t-105 41q-33 0 -54 -8l-74 -27l-14 35q21 9 66 17t80 8h37q69 0 111.5 -44.5t42.5 -117.5q0 -28 -5 -52.5t-20 -51.5t-29 -47.5t-46 -55.5t-56 -59.5t-74 -74.5t-86 -87v-2h324v-50h-371z " />
<glyph unicode="3" horiz-adv-x="437" d="M25 25l13 33l66 -25q43 -16 79 -16q75 0 120.5 50t45.5 133q0 57 -32 97.5t-77 40.5h-86v24h33q41 0 76.5 37t35.5 86q0 59 -31.5 95.5t-83.5 36.5q-20 0 -46 -8l-75 -25l-13 33q21 9 63.5 17t74.5 8q71 0 114.5 -39.5t43.5 -103.5q0 -39 -24 -79t-64 -56v-2 q55 0 97.5 -48t42.5 -117q0 -92 -56.5 -148.5t-149.5 -56.5h-16q-32 0 -80.5 11.5t-70.5 21.5z" />
<glyph unicode="4" horiz-adv-x="466" d="M17 108v34q87 113 135 226t48 265h50q0 -97 -27.5 -184.5t-68.5 -155.5t-112 -160h291v200h50v-200h59v-25h-59v-108h-50v108h-316z" />
<glyph unicode="5" horiz-adv-x="462" d="M50 27l14 34l74 -28q43 -16 83 -16q69 0 111 58.5t42 155.5q0 76 -29 122.5t-76 46.5q-21 0 -47 -8l-156 -57h-12v298h342v-50q-19 0 -114 8.5t-128 8.5h-75v-239l128 53q48 19 85 19q61 0 99 -56t38 -148q0 -106 -56 -171.5t-148 -65.5h-16q-32 0 -84.5 12.5t-74.5 22.5 z" />
<glyph unicode="6" horiz-adv-x="495" d="M42 316q0 147 58 236.5t154 89.5h21q32 0 77 -11.5t70 -21.5l-14 -35l-62 25q-46 18 -92 18q-67 0 -110 -73.5t-48 -196.5l127 51q47 19 85 19q67 0 108.5 -51t41.5 -132q0 -110 -56 -176t-148 -66q-96 0 -154 89t-58 235zM95 317q0 -135 43.5 -217.5t115.5 -82.5 q69 0 111 55t42 145q0 76 -32 121t-89 45q-23 0 -46 -7l-145 -48v-11z" />
<glyph unicode="7" horiz-adv-x="441" d="M33 583v50h384v-25q-209 -222 -209 -608h-50q0 145 54.5 307t162.5 293h-73q-32 0 -141 -8.5t-128 -8.5z" />
<glyph unicode="8" horiz-adv-x="516" d="M46 155q0 110 158 192q-59 36 -86 74t-27 86q0 61 46 98t121 37q66 0 106 -34.5t40 -90.5q0 -44 -33.5 -86.5t-90.5 -73.5q6 -4 37 -24t40 -27t32.5 -25t32.5 -29.5t22.5 -29.5t18 -36.5t4.5 -38.5q0 -70 -57 -112.5t-151 -42.5h-17q-88 0 -142 44.5t-54 118.5zM71 155 q0 -62 47 -100t124 -38h17q71 0 114.5 31.5t43.5 82.5q0 47 -25 77t-80 67l-84 56q-157 -80 -157 -176zM132 528q0 -41 14 -66t57 -54l53 -35q57 29 90 68t33 76q0 45 -33.5 72.5t-87.5 27.5q-57 0 -91.5 -24.5t-34.5 -64.5z" />
<glyph unicode="9" horiz-adv-x="495" d="M38 399q0 111 56 177t148 66q96 0 154 -89.5t58 -235.5t-58 -235.5t-154 -89.5h-21q-32 0 -77.5 11t-69.5 21l14 35l62 -25q43 -17 92 -17q67 0 110 73.5t48 196.5l-128 -51q-47 -19 -84 -19q-67 0 -108.5 50.5t-41.5 131.5zM89 416q0 -76 32 -121t89 -45q20 0 46 8 l145 48v10q0 135 -43.5 218t-115.5 83q-69 0 -111 -55.5t-42 -145.5z" />
<glyph unicode=":" horiz-adv-x="166" d="M58 9v25q0 17 17 17h25q17 0 17 -17v-25q0 -16 -17 -16h-25q-17 0 -17 16zM58 408v25q0 17 17 17h25q17 0 17 -17v-25q0 -16 -17 -16h-25q-17 0 -17 16z" />
<glyph unicode=";" horiz-adv-x="166" d="M24 -108q51 54 51 95q0 13 -8.5 26t-8.5 19v5q0 13 17 13h25q17 0 17 -12v-34q0 -15 -23 -57t-52 -72zM58 408v25q0 17 17 17h25q17 0 17 -17v-25q0 -16 -17 -16h-25q-17 0 -17 16z" />
<glyph unicode="&#x3c;" horiz-adv-x="350" d="M50 312v14l210 226l25 -22q-101 -108 -168 -205v-14q69 -95 168 -203l-25 -22z" />
<glyph unicode="=" horiz-adv-x="533" d="M50 204v34h433v-34h-433zM50 388v33h433v-33h-433z" />
<glyph unicode="&#x3e;" horiz-adv-x="350" d="M65 108q99 108 168 203v14q-67 97 -168 205l25 22l210 -226v-14l-210 -226z" />
<glyph unicode="?" horiz-adv-x="383" d="M8 617q70 25 159 25q74 0 120 -34.5t46 -89.5q0 -62 -78 -107q-40 -23 -64 -41.5t-34 -36.5t-12.5 -30.5t-2.5 -34.5v-68h-27q-15 63 -15 101q0 46 21 73t104 78q32 20 45 37.5t13 44.5q0 36 -33.5 59.5t-84.5 23.5q-18 0 -31.5 -1t-29 -4.5t-21.5 -5t-29 -9t-32 -10.5z M96 8v25q0 17 16 17h26q16 0 16 -17v-25q0 -16 -16 -16h-26q-16 0 -16 16z" />
<glyph unicode="@" horiz-adv-x="891" d="M67 230q0 165 117 282t282 117q148 0 253.5 -105.5t105.5 -253.5q0 -101 -53.5 -168t-135.5 -67q-25 0 -50 19.5t-35 45.5l-119 -46q-50 -19 -82 -19q-39 0 -63 26t-24 69l12 238q3 52 34 82.5t86 30.5q25 0 87 -19l87 -27l28 38h18l-5 -65q-1 -10 -7 -64.5t-11 -111 t-5 -82.5q0 -88 68 -88q60 0 102.5 61t42.5 145q0 139 -98.5 237.5t-237.5 98.5q-154 0 -263 -109t-109 -263q0 -139 98.5 -237.5t237.5 -98.5q78 0 150 33l10 -23q-78 -35 -162 -35q-148 0 -253.5 105.5t-105.5 253.5zM309 130q0 -29 17 -47.5t44 -18.5q23 0 49 10l125 43 q-3 12 -3 26q0 51 14 275l-93 24q-35 10 -47 10q-46 0 -69 -23t-26 -80z" />
<glyph unicode="A" horiz-adv-x="508" d="M17 0l203 637q27 -4 47 -4h22l203 -633l-50 -8l-68 212h-261q-16 -68 -25.5 -132t-9.5 -80zM120 229h245l-113 354h-23l-91 -286q-7 -23 -18 -68z" />
<glyph unicode="B" horiz-adv-x="522" d="M67 0v633h186q77 0 124.5 -37t47.5 -98q0 -44 -24.5 -80.5t-63.5 -57.5v-2q59 -11 107 -61.5t48 -126.5t-56 -123t-148 -47h-221zM117 25h175q68 0 109.5 40.5t41.5 106.5q0 73 -42.5 119t-108.5 46h-175v-312zM117 362h126q63 0 100 36t37 93q0 53 -32.5 85t-85.5 32 h-145v-246z" />
<glyph unicode="C" horiz-adv-x="472" d="M35 316q0 147 61.5 236.5t161.5 89.5h15q33 0 87.5 -12.5t76.5 -23.5l-16 -39l-76 33q-39 17 -75 17q-80 0 -128.5 -82.5t-48.5 -217.5t48.5 -217.5t128.5 -82.5q38 0 75 16l76 35l16 -40q-22 -11 -76.5 -23.5t-87.5 -12.5h-15q-100 0 -161.5 89.5t-61.5 234.5z" />
<glyph unicode="D" horiz-adv-x="547" d="M67 0v633h185q117 0 188.5 -87t71.5 -229q0 -143 -71.5 -230t-188.5 -87h-185zM117 25h135q93 0 149.5 80t56.5 211q0 132 -56.5 212t-149.5 80h-135v-583z" />
<glyph unicode="E" horiz-adv-x="466" d="M67 0v633h358v-41q-19 0 -118.5 8t-131.5 8h-58v-246h208v-24h-208v-313h58q32 0 131.5 8t118.5 8v-41h-358z" />
<glyph unicode="F" horiz-adv-x="466" d="M67 0v633h375v-41q-19 0 -123 8t-136 8h-66v-279h241l-1 -29q-7 0 -44.5 2t-48.5 2h-147v-304h-50z" />
<glyph unicode="G" horiz-adv-x="535" d="M35 316q0 147 61 236.5t161 89.5h16q35 0 99.5 -15.5t96.5 -31.5l-16 -39l-109 44q-45 17 -75 17q-79 0 -127.5 -80t-48.5 -220q0 -135 48.5 -217.5t127.5 -82.5q26 0 65 15l93 32v244h-64q-11 0 -48 -2t-44 -2l-2 29h212q-4 -33 -4 -48v-285h-32l-10 43l-85 -32 q-51 -19 -93 -19q-100 0 -161 89t-61 235z" />
<glyph unicode="H" horiz-adv-x="558" d="M67 0v633h50v-271h325v271h50v-633h-50v338h-325v-338h-50z" />
<glyph unicode="I" d="M67 0v633h50v-633h-50z" />
<glyph unicode="J" horiz-adv-x="289" d="M33 11l12 21q23 -7 45 -7q44 0 67.5 24t23.5 69q0 43 -3 123t-3 130v262h50v-517q0 -55 -28.5 -89.5t-75.5 -34.5q-34 0 -88 19z" />
<glyph unicode="K" horiz-adv-x="547" d="M67 0v633h50v-306l331 316l35 -35q-5 -4 -41 -29.5t-74.5 -55.5t-70.5 -60l-81 -76l313 -370l-47 -22l-132 156l-163 209l-70 -69v-291h-50z" />
<glyph unicode="L" horiz-adv-x="466" d="M67 0v633h50v-608h67q32 0 135.5 8t122.5 8v-41h-375z" />
<glyph unicode="M" horiz-adv-x="733" d="M58 0l17 633h16l275 -483l274 483h18l17 -633l-50 -1l-14 534h-1q-43 -78 -125.5 -225t-93.5 -166q-23 -40 -29 -67h-10l-240 420l-15 33h-1l-5 -254q0 -3 -0.5 -10.5t-0.5 -11.5q0 -48 5.5 -142t5.5 -111z" />
<glyph unicode="N" horiz-adv-x="575" d="M57 0q0 19 5 122t5 150v361h22l375 -521l10 -16h1v263q0 47 -8.5 151t-8.5 123h42v-633h-18l-374 521l-15 26h-1v-547h-35z" />
<glyph unicode="O" horiz-adv-x="550" d="M35 318q0 146 66 235t174 89t174 -89t66 -235q0 -147 -66 -236.5t-174 -89.5t-174 89.5t-66 236.5zM90 317q0 -145 52.5 -221.5t153.5 -76.5q80 0 122 76t42 221q0 146 -53 222.5t-153 76.5q-80 0 -122 -76.5t-42 -221.5z" />
<glyph unicode="P" horiz-adv-x="533" d="M67 0v633h205q103 0 165.5 -59.5t62.5 -156.5q0 -105 -62.5 -169.5t-165.5 -64.5h-155v-183h-50zM117 208h155q79 0 127 57.5t48 151.5q0 86 -48 138.5t-127 52.5h-155v-400z" />
<glyph unicode="Q" horiz-adv-x="550" d="M35 318q0 146 66 235t174 89t174 -89t66 -235q0 -137 -58 -225t-154 -100q13 -33 32 -50.5t53 -17.5q42 0 70 3v-37h-54q-54 0 -82.5 27t-45.5 74q-110 0 -175.5 89t-65.5 237zM90 317q0 -94 21 -158h49q15 0 28.5 -2t24.5 -9t19 -10.5t16 -16.5t12 -16.5t11 -21l8 -20 t8 -23.5l7 -21h2q80 0 122 76t42 221q0 146 -53 222.5t-153 76.5q-80 0 -122 -76.5t-42 -221.5zM122 131q44 -99 146 -111q-8 26 -11 35t-12 29t-17.5 27.5t-23.5 15t-33 7.5q-6 0 -25 -1.5t-24 -1.5z" />
<glyph unicode="R" horiz-adv-x="533" d="M67 0v633h212q95 0 150.5 -47.5t55.5 -126.5q0 -84 -52 -135.5t-142 -55.5v-2q65 -27 99 -76l127 -180l-50 -22l-120 177q-37 55 -72.5 78.5t-91.5 23.5h-66v-267h-50zM117 292h166q68 0 108.5 45t40.5 123q0 68 -41 108t-112 40h-162v-316z" />
<glyph unicode="S" horiz-adv-x="506" d="M50 37l16 40q22 -8 54 -21t50 -20t44 -13t52 -6q74 0 119.5 34.5t45.5 91.5q0 15 -3 28.5t-11.5 25.5t-15.5 21.5t-22.5 20.5t-24 17.5t-29 17t-28.5 14.5t-32 15t-30 14q-44 21 -67 33t-53.5 33.5t-44 46.5t-13.5 55q0 71 53 114t139 43h28q76 0 158 -30l-16 -39 q-18 6 -50 19t-54.5 19t-49.5 6q-71 0 -114.5 -30t-43.5 -80q0 -22 10.5 -41.5t22.5 -32t39.5 -29t43 -23.5t51.5 -24q50 -23 76 -36.5t62 -38.5t52.5 -55t16.5 -66q0 -76 -56 -122.5t-147 -46.5h-24q-83 0 -204 45z" />
<glyph unicode="T" horiz-adv-x="533" d="M25 594v39h483v-39q-19 0 -101.5 7t-114.5 7v-608h-50v608q-32 0 -115 -7t-102 -7z" />
<glyph unicode="U" horiz-adv-x="550" d="M58 162v471h50v-504q0 -51 43.5 -81.5t115.5 -30.5h12q84 0 136 40t52 105v197q0 47 -9 151t-9 123h43v-471q0 -77 -58.5 -123.5t-154.5 -46.5h-25q-95 0 -145.5 43.5t-50.5 126.5z" />
<glyph unicode="V" horiz-adv-x="525" d="M25 633l50 9l190 -592h23l91 286q15 46 37.5 166.5t22.5 139.5l61 -8l-204 -638q-26 4 -46 4h-22z" />
<glyph unicode="W" horiz-adv-x="836" d="M25 633l50 9l168 -592h23l122 391q5 15 5 41q0 28 -9 82t-9 69h68q-6 -60 -6 -63q0 -12 6 -36l137 -484h23l87 286q15 46 37.5 166.5t22.5 139.5l62 -8l-200 -638q-27 4 -47 4h-21l-128 447l-141 -451q-27 4 -47 4h-22z" />
<glyph unicode="X" horiz-adv-x="508" d="M25 0l210 314l-194 319l55 8l167 -281h2l57 85q103 153 103 196l53 -8l-198 -297l203 -336l-49 -17l-183 307h-2l-61 -91q-109 -162 -109 -207z" />
<glyph unicode="Y" horiz-adv-x="516" d="M17 633l53 8l200 -382h1l52 94q115 221 115 288l62 -8l-209 -389v-244h-49v210z" />
<glyph unicode="Z" horiz-adv-x="516" d="M42 0v27l333 516q6 10 23.5 35.5t19.5 28.5v1h-110q-32 0 -135.5 -8t-122.5 -8v41h425v-26l-333 -517q-3 -5 -13.5 -20.5t-19 -27.5t-10.5 -16v-1h134q32 0 127.5 8t114.5 8v-41h-433z" />
<glyph unicode="[" horiz-adv-x="216" d="M67 -133v800h116v-25h-66v-750h66v-25h-116z" />
<glyph unicode="\" horiz-adv-x="404" d="M21 633l30 15l331 -663l-29 -15z" />
<glyph unicode="]" horiz-adv-x="216" d="M33 -108h66v750h-66v25h116v-800h-116v25z" />
<glyph unicode="^" horiz-adv-x="366" d="M60 563l108 108h31l107 -108l-17 -18l-35 35q-29 31 -71 55q-34 -18 -71 -55l-34 -35z" />
<glyph unicode="_" horiz-adv-x="533" d="M50 -117h433v-50h-433v50z" />
<glyph unicode="`" horiz-adv-x="233" d="M53 661v9h36q15 0 33 -18t32 -43l30 -55l-17 -3z" />
<glyph unicode="a" horiz-adv-x="470" d="M29 121q0 60 45 96.5t115 36.5h169v91q0 51 -31.5 78t-91.5 27q-49 0 -96 -21l-56 -25l-14 38q21 9 70 21t96 12q85 0 129 -33t44 -95v-243q0 -49 17 -100l-42 -8l-22 62l-120 -47q-49 -19 -69 -19q-65 0 -104 35.5t-39 93.5zM81 117q0 -42 24.5 -67t68.5 -25q33 0 51 7 l133 48v149h-160q-55 0 -86 -30.5t-31 -81.5z" />
<glyph unicode="b" horiz-adv-x="500" d="M67 0v633h50v-224l103 41q64 25 95 25q67 0 107 -66.5t40 -175.5t-40 -175.5t-107 -66.5q-35 0 -95 25l-92 37q-4 2 -12 2q-10 0 -17.5 -14.5t-10.5 -28.5l-2 -15zM117 80l119 -42q36 -12 62 -12q52 0 81 56.5t29 150.5q0 95 -29 151.5t-81 56.5q-30 0 -62 -12l-119 -42 v-307z" />
<glyph unicode="c" horiz-adv-x="425" d="M33 233q0 109 58.5 175.5t153.5 66.5q35 0 79.5 -8.5t65.5 -18.5l-15 -38l-73 28q-31 12 -50 12q-73 0 -118 -59.5t-45 -157.5q0 -97 44.5 -156.5t118.5 -59.5q21 0 50 11l73 28l15 -37q-21 -10 -65.5 -18.5t-79.5 -8.5q-95 0 -153.5 66t-58.5 175z" />
<glyph unicode="d" horiz-adv-x="500" d="M38 233q0 109 40 175.5t107 66.5q31 0 95 -25l103 -41v224h50v-529q0 -49 17 -100l-40 -8l-22 64l-108 -43q-64 -25 -95 -25q-67 0 -107 66t-40 175zM92 233q0 -93 29 -150t77 -57q34 0 66 12l119 42v307l-119 42q-32 12 -66 12q-48 0 -77 -57.5t-29 -150.5z" />
<glyph unicode="e" horiz-adv-x="475" d="M33 235q0 108 59 174t155 66q86 0 139 -54.5t53 -142.5v-30l-351 6q0 -2 -0.5 -7.5t-0.5 -8.5q0 -99 47.5 -160t124.5 -61q31 0 82 23l69 31l17 -37q-100 -42 -176 -42q-98 0 -158 67t-60 176zM89 279l299 2q0 76 -41 122.5t-107 46.5q-61 0 -101.5 -46t-49.5 -125z" />
<glyph unicode="f" horiz-adv-x="333" d="M33 425v25h67v68q0 52 33.5 83.5t87.5 31.5q31 0 85 -19l36 -13l-8 -23l-44 14q-26 8 -50 8q-46 0 -70.5 -22.5t-24.5 -65.5q0 -9 5 -62h125v-25h-125v-425h-50v425h-67z" />
<glyph unicode="g" horiz-adv-x="500" d="M38 233q0 109 40 175.5t107 66.5q35 0 95 -25l108 -44l22 64l23 -3v-489q0 -65 -43.5 -105t-115.5 -40l-180 1v41q15 0 77.5 -8.5t94.5 -8.5q57 0 87 27t30 78v95l-103 -41q-64 -25 -95 -25q-67 0 -107 66t-40 175zM92 233q0 -93 29 -150t77 -57q34 0 66 12l119 42v305 l-119 44q-32 12 -66 12q-48 0 -77 -57.5t-29 -150.5z" />
<glyph unicode="h" horiz-adv-x="512" d="M67 0v633l50 1v-225l120 47q49 19 101 19q55 0 83.5 -30t28.5 -86v-359h-50v349q0 47 -22 71.5t-63 24.5q-30 0 -58 -10l-140 -48v-387h-50z" />
<glyph unicode="i" d="M63 594v31q0 13 16 13h26q16 0 16 -13v-31q0 -15 -16 -15h-26q-16 0 -16 15zM67 0v467h50v-467h-50z" />
<glyph unicode="j" d="M-85 -148l10 23q23 -9 48 -9q102 0 102 82q0 5 -4 70t-4 90v359h50v-518q0 -52 -31 -84t-81 -32q-43 0 -90 19zM63 594v31q0 13 16 13h26q16 0 16 -13v-31q0 -15 -16 -15h-26q-16 0 -16 15z" />
<glyph unicode="k" horiz-adv-x="458" d="M67 0v633h50v-395l253 242l35 -35q-6 -4 -41 -27t-73 -52t-68 -61l-17 -18l236 -279l-47 -22l-48 57l-170 217l-60 -58v-202h-50z" />
<glyph unicode="l" d="M67 166v467h50v-633l-42 -2q0 5 -4 74t-4 94z" />
<glyph unicode="m" horiz-adv-x="779" d="M67 0v467l27 3l20 -64l106 50q40 19 93 19q80 0 98 -70l109 51q40 19 93 19q50 0 77 -30t27 -86v-359h-50v349q0 96 -77 96q-27 0 -50 -10l-125 -51q2 -16 2 -25v-359h-50v349q0 96 -77 96q-27 0 -50 -10l-123 -51v-384h-50z" />
<glyph unicode="n" horiz-adv-x="512" d="M67 0v467l27 3l19 -62l124 48q49 19 101 19q55 0 83.5 -30t28.5 -86v-359h-50v349q0 47 -22 71.5t-63 24.5q-30 0 -58 -10l-140 -48v-387h-50z" />
<glyph unicode="o" horiz-adv-x="491" d="M33 233q0 109 58.5 175.5t154.5 66.5t154 -66.5t58 -175.5t-58 -175t-154 -66t-154.5 66t-58.5 175zM86 234q0 -100 50 -157.5t131 -57.5q67 0 102.5 55t35.5 159q0 105 -46 160t-134 55q-61 0 -100 -57.5t-39 -156.5z" />
<glyph unicode="p" horiz-adv-x="500" d="M67 -167v634l23 3l22 -64l108 44q60 25 95 25q67 0 107 -66.5t40 -175.5t-40 -175t-107 -66q-31 0 -95 25l-103 41v-225h-50zM117 80l119 -42q32 -12 66 -12q48 0 77 57t29 150t-29 150.5t-77 57.5q-34 0 -66 -12l-119 -44v-305z" />
<glyph unicode="q" horiz-adv-x="500" d="M38 233q0 109 40 175.5t107 66.5q35 0 95 -25l108 -44l22 64l23 -3v-634h-50v225l-103 -41q-64 -25 -95 -25q-67 0 -107 66t-40 175zM92 233q0 -93 29 -150t77 -57q34 0 66 12l119 42v305l-119 44q-32 12 -66 12q-48 0 -77 -57.5t-29 -150.5z" />
<glyph unicode="r" horiz-adv-x="300" d="M67 0v467l23 4l27 -99l34 35q4 4 14 14.5t13.5 13.5t12 11t12.5 11t12 8.5t13.5 7.5t13.5 4.5t16 3.5t17 1l-7 -65h-26q-45 0 -86 -41l-39 -39v-337h-50z" />
<glyph unicode="s" horiz-adv-x="445" d="M33 27l15 38q118 -48 174 -48q63 0 101 23.5t38 62.5q0 22 -11 39.5t-34.5 32t-44 24t-56.5 23.5q-39 15 -61 25.5t-49 28.5t-40 39.5t-13 47.5q0 50 44 81t117 31q104 0 171 -25l-15 -38q-59 24 -89.5 31t-65.5 7q-53 0 -86 -18.5t-33 -48.5q0 -38 40.5 -65.5 t112.5 -55.5q31 -12 49 -20t43 -22t38.5 -27.5t23.5 -33.5t10 -43q0 -56 -52.5 -90t-138.5 -34q-94 0 -188 35z" />
<glyph unicode="t" horiz-adv-x="345" d="M17 425v25h91v98l50 23v-121q51 0 106.5 4t56.5 4v-33h-163v-150q0 -25 -4 -93.5t-4 -73.5q0 -45 23.5 -64t78.5 -19q18 0 54 11l11 -24q-57 -20 -96 -20q-55 0 -84 29.5t-29 86.5v317h-91z" />
<glyph unicode="u" horiz-adv-x="512" d="M62 108v359h50v-349q0 -46 22.5 -71t63.5 -25q30 0 58 10l140 48v387h50v-467l-28 -2l-19 61l-124 -48q-49 -19 -101 -19q-55 0 -83.5 30t-28.5 86z" />
<glyph unicode="v" horiz-adv-x="445" d="M21 468l51 7l156 -425h17l32 91q38 108 65.5 211.5t27.5 122.5l55 -8l-174 -471q-24 4 -40 4h-18z" />
<glyph unicode="w" horiz-adv-x="727" d="M23 468l51 7l141 -425h16l111 302q5 15 5 28q0 16 -6 45.5t-6 41.5h65l-6 -47l121 -370h17l32 91q25 72 44 151.5t26 124t7 58.5l63 -8l-164 -471q-24 4 -40 4h-20l-114 344l-128 -348q-25 4 -41 4h-17z" />
<glyph unicode="x" horiz-adv-x="458" d="M29 0l179 226l-167 241l57 8l142 -206h2l10 13q12 15 30 38t28.5 36t24 30t20.5 28t14.5 23.5t10.5 21.5t3 16l46 -8l-172 -220l172 -247l-51 -17l-153 222h-1l-11 -14q-7 -9 -30.5 -38.5t-37.5 -48t-31.5 -43t-26.5 -42t-9 -27.5z" />
<glyph unicode="y" horiz-adv-x="454" d="M21 468l52 7l157 -403q3 -7 15 -43h2l40 112q26 73 47 151.5t30 124t9 58.5l60 -8l-197 -537q-17 -48 -44.5 -72.5t-81.5 -24.5h-77v42q11 0 40.5 -8.5t41.5 -8.5h5q43 0 66 26t23 73q0 32 -13 66z" />
<glyph unicode="z" horiz-adv-x="462" d="M33 0v17l274 360q41 53 51 63l1 2h-82q-32 0 -127.5 -8t-114.5 -8v41h394v-12l-277 -365q-36 -45 -52 -63v-2h86q32 0 127.5 8t114.5 8v-41h-395z" />
<glyph unicode="{" horiz-adv-x="283" d="M50 263v7q3 3 21.5 20t29.5 28t21.5 27.5t10.5 28.5v181q0 44 27.5 78t89.5 34v-25q-25 0 -46 -21.5t-21 -52.5v-177q0 -12 -6.5 -25.5t-18.5 -28t-21.5 -24t-24 -23.5t-16.5 -16v-15q2 -2 16.5 -16t24 -23.5t21.5 -24t18.5 -28t6.5 -25.5v-176q0 -31 21 -52.5t46 -21.5 v-25q-62 0 -89.5 33.5t-27.5 77.5v181q0 12 -10.5 28.5t-21.5 27.5t-29.5 28t-21.5 20z" />
<glyph unicode="|" d="M67 -167v958h50v-958h-50z" />
<glyph unicode="}" horiz-adv-x="283" d="M33 -108q25 0 46 21.5t21 52.5v176q0 12 6.5 25.5t18.5 27.5t22 24.5t24 23.5t17 16v15q-3 3 -17 16t-24 23.5t-22 24.5t-18.5 27.5t-6.5 25.5v177q0 31 -21 52.5t-46 21.5v25q62 0 89.5 -34t27.5 -78v-181q0 -12 10.5 -28.5t21.5 -27.5t29.5 -28t21.5 -20v-7 q-3 -3 -21.5 -20t-29.5 -28t-21.5 -27.5t-10.5 -28.5v-181q0 -44 -27.5 -77.5t-89.5 -33.5v25z" />
<glyph unicode="~" horiz-adv-x="512" d="M68 340l66 50q24 19 54 19q26 0 70.5 -39.5t65.5 -39.5t36 10t42 38l13 14l30 -27l-66 -50q-26 -20 -54 -20q-25 0 -70.5 40t-65.5 40q-21 0 -36 -10t-42 -38l-13 -13z" />
<glyph horiz-adv-x="416" />
<glyph unicode="&#xa1;" horiz-adv-x="166" d="M54 -175q17 272 17 333q0 60 -4 100h41q-4 -40 -4 -100q0 -54 17 -333h-67zM58 425v25q0 16 17 16h25q17 0 17 -16v-25q0 -17 -17 -17h-25q-17 0 -17 17z" />
<glyph unicode="&#xa2;" horiz-adv-x="441" d="M42 312q0 104 53.5 170t142.5 72v104h24v-104q88 -4 136 -27l-15 -37l-72 28q-23 9 -49 11v-433q23 2 49 12l72 27l15 -37q-48 -23 -136 -27v-104h-24v104q-89 6 -142.5 71.5t-53.5 169.5zM97 312q0 -89 38.5 -146.5t102.5 -67.5v429q-64 -10 -102.5 -68t-38.5 -147z" />
<glyph unicode="&#xa3;" horiz-adv-x="541" d="M33 0v25h25q26 0 42.5 29t16.5 76v187h-59v25h59v121q0 77 50.5 123.5t132.5 46.5h12q33 0 87 -12t76 -23l-17 -38l-75 32q-38 16 -79 16q-62 0 -99.5 -31t-37.5 -82v-153l201 8l-16 -38q-7 0 -45 2.5t-49 2.5h-91v-185q0 -107 83 -107h13q32 0 123 7.5t110 7.5v-40h-247 q-57 0 -107 50h-1q-11 -15 -17.5 -23t-25 -17.5t-42.5 -9.5h-23z" />
<glyph unicode="&#xa4;" horiz-adv-x="350" d="M35 206l47 44q-21 28 -21 67q0 37 21 66l-47 45l29 29l44 -48q30 22 67 22q38 0 67 -21l44 47l29 -29l-47 -45q21 -29 21 -66q0 -38 -21 -67l47 -44l-29 -29l-44 47q-30 -22 -67 -22t-67 22l-44 -47zM86 317q0 -37 26 -63t63 -26t63 26t26 63t-26 63t-63 26t-63 -26 t-26 -63z" />
<glyph unicode="&#xa5;" horiz-adv-x="516" d="M17 633l53 8l200 -382h1l52 94q115 221 115 288l62 -8l-209 -389v-46l117 2v-25l-117 2v-177h-49v177l-117 -2v25l117 -2v12z" />
<glyph unicode="&#xa6;" d="M67 188h50v-388h-50v388zM67 446v354h50v-354h-50z" />
<glyph unicode="&#xa7;" horiz-adv-x="558" d="M33 237q0 63 44.5 107t116.5 57q-83 54 -83 125q0 50 44 81t117 31q101 0 171 -26l-15 -38q-59 24 -89 31t-65 7q-53 0 -86 -18.5t-33 -48.5q0 -26 11 -47t37 -39.5t46 -29t60 -28.5q6 -3 9 -4q50 -23 76 -37t62 -39t52.5 -55t16.5 -66q0 -63 -44 -107t-116 -57 q82 -53 82 -124q0 -50 -44 -81t-117 -31q-104 0 -171 25l15 38q59 -24 89.5 -31t65.5 -7q53 0 85.5 18.5t32.5 48.5q0 27 -11.5 48.5t-40 41t-48 29.5t-63.5 30q-41 19 -60.5 28.5t-53 30t-50 38t-30 44t-13.5 55.5zM83 255q0 -15 3 -28.5t11.5 -25.5t15.5 -21.5t22.5 -20.5 t24 -17.5t29 -17t28.5 -14.5t32 -15t30 -14l50 -24q66 5 106 38.5t40 86.5q0 15 -3 28.5t-11.5 25.5t-15.5 21.5t-22.5 20.5t-24 17.5t-29 17t-28.5 14.5t-32 15t-30 14l-27 13.5t-22 11.5q-66 -5 -106.5 -39t-40.5 -87z" />
<glyph unicode="&#xa8;" horiz-adv-x="508" d="M125 592v46h58v-46q0 -13 -29 -13t-29 13zM325 592v46h58v-46q0 -13 -29 -13t-29 13z" />
<glyph unicode="&#xa9;" horiz-adv-x="841" d="M42 317q0 157 111 268t268 111t268 -111t111 -268t-111 -268t-268 -111t-268 111t-111 268zM67 317q0 -147 103.5 -251t250.5 -104t250.5 104t103.5 251t-103.5 250.5t-250.5 103.5t-250.5 -103.5t-103.5 -250.5zM238 325q0 96 52 154.5t138 58.5q34 0 79 -9t66 -19 l-15 -34l-72 26q-26 10 -54 10q-61 0 -98.5 -51.5t-37.5 -135.5q0 -86 37.5 -139t98.5 -53q12 0 54 13l72 24l15 -34q-21 -10 -66 -19t-79 -9q-85 0 -137.5 59.5t-52.5 157.5z" />
<glyph unicode="&#xaa;" horiz-adv-x="395" d="M33 354q0 52 35.5 83.5t94.5 31.5h123v67q0 36 -23.5 58.5t-61.5 22.5q-34 0 -76 -17l-54 -23l-14 29q72 36 144 36q61 0 98 -28.5t37 -75.5v-198q0 -30 14 -79v-1l-43 -7l-18 45l-82 -33q-37 -15 -59 -15q-52 0 -83.5 28.5t-31.5 75.5zM84 351q0 -32 21 -52t55 -20 q15 0 33 6l93 31v128h-112q-41 0 -65.5 -25.5t-24.5 -67.5z" />
<glyph unicode="&#xab;" horiz-adv-x="358" d="M33 280v11l121 134l19 -16q-7 -8 -20.5 -22.5t-18 -19.5t-13.5 -15.5t-14 -18t-13 -18.5t-16 -25v-11q39 -53 95 -116l-19 -16zM169 280v11l121 134l18 -16q-7 -8 -20.5 -22.5t-18 -19.5t-13.5 -15.5t-14 -18t-13 -18.5t-16 -25v-11q39 -53 95 -116l-18 -16z" />
<glyph unicode="&#xac;" horiz-adv-x="516" d="M58 242v33h392v-275h-33v242h-359z" />
<glyph unicode="&#xad;" horiz-adv-x="292" d="M50 279v33h242v-33h-242z" />
<glyph unicode="&#xae;" horiz-adv-x="850" d="M42 317q0 157 111 268t268 111t268 -111t111 -268t-111 -268t-268 -111t-268 111t-111 268zM67 317q0 -147 103.5 -251t250.5 -104t250.5 104t103.5 251t-103.5 250.5t-250.5 103.5t-250.5 -103.5t-103.5 -250.5zM271 96v475h137q84 0 135.5 -36.5t51.5 -96.5 q0 -58 -42.5 -95.5t-113.5 -44.5l-1 -2q68 -28 102 -77l79 -112l-47 -24l-75 111q-37 55 -72.5 78.5t-91.5 23.5h-12v-200h-50zM321 321h83q63 0 101.5 32.5t38.5 85.5q0 48 -38.5 77.5t-101.5 29.5h-83v-225z" />
<glyph unicode="&#xaf;" horiz-adv-x="366" d="M50 583v34h267v-34h-267z" />
<glyph unicode="&#xb0;" horiz-adv-x="225" d="M42 565q0 28 20.5 48t49.5 20t50 -20t21 -48t-21 -47.5t-50 -19.5t-49.5 19.5t-20.5 47.5zM71 565q0 -18 12 -30.5t29 -12.5t29.5 12.5t12.5 30.5t-12.5 30.5t-29.5 12.5t-29 -12.5t-12 -30.5z" />
<glyph unicode="&#xb1;" horiz-adv-x="533" d="M50 0v33h433v-33h-433zM58 350v33h192v209h33v-209h192v-33h-192v-208h-33v208h-192z" />
<glyph unicode="&#xb2;" horiz-adv-x="300" d="M33 396v34q4 4 27.5 27t37.5 37.5t37 41.5t36 48t23.5 46.5t10.5 46.5q0 40 -19.5 61t-55.5 21q-15 0 -30 -5l-47 -17l-9 30q32 15 87 15h24q44 0 71 -27.5t27 -71.5q0 -52 -34.5 -96.5t-145.5 -152.5h185v-38h-225z" />
<glyph unicode="&#xb3;" horiz-adv-x="285" d="M19 411l11 29l45 -17q25 -10 43 -10q88 0 88 103q0 32 -15.5 57t-36.5 25h-51v18h26q20 0 34.5 20t14.5 48q0 73 -55 73q-13 0 -28 -5l-50 -18l-11 30q36 17 91 17q43 0 69 -24t26 -64q0 -23 -11 -45t-30 -32q35 -6 55.5 -35.5t20.5 -66.5q0 -56 -35.5 -90.5t-93.5 -34.5 h-10q-23 0 -53 7.5t-44 14.5z" />
<glyph unicode="&#xb4;" horiz-adv-x="233" d="M52 554l30 55q14 25 32 43t33 18h36v-9l-114 -110z" />
<glyph unicode="&#xb5;" horiz-adv-x="512" d="M62 -167v634h50v-349q0 -46 22.5 -71t63.5 -25q30 0 58 10l140 48v387h50v-467l-28 -2l-19 61l-124 -48q-49 -19 -101 -19q-68 0 -95 45v-12l16 -133q2 -10 2 -17q0 -23 -4.5 -32.5t-17.5 -9.5h-13z" />
<glyph unicode="&#xb6;" horiz-adv-x="466" d="M33 500q0 61 43 97t91 36h233v-766h-25v750h-183v-750h-25v500q-48 0 -91 35.5t-43 97.5z" />
<glyph unicode="&#xb7;" horiz-adv-x="158" d="M50 321v25q0 16 17 16h25q16 0 16 -16v-25q0 -17 -16 -17h-25q-17 0 -17 17z" />
<glyph unicode="&#xb8;" horiz-adv-x="483" d="M177 -155l6 24q24 -15 49 -15q21 0 33.5 14.5t12.5 37.5q0 12 -8.5 19.5t-21.5 7.5q-27 0 -40 -15l-12 1l17 81h20l-11 -50q14 6 32 6q26 0 42 -15.5t16 -40.5q0 -30 -22 -48.5t-57 -18.5q-32 0 -56 12z" />
<glyph unicode="&#xb9;" horiz-adv-x="171" d="M25 741v23l88 21v-389h-48v331q0 18 -14 18q-2 0 -26 -4z" />
<glyph unicode="&#xba;" horiz-adv-x="426" d="M33 444q0 89 49.5 143.5t130.5 54.5t130.5 -54.5t49.5 -143.5q0 -87 -49.5 -140.5t-130.5 -53.5t-130.5 53.5t-49.5 140.5zM85 444q0 -82 37 -125t108 -43q55 0 83.5 43t28.5 125q0 84 -37 128t-108 44q-55 0 -83.5 -44.5t-28.5 -127.5z" />
<glyph unicode="&#xbb;" horiz-adv-x="358" d="M50 163q56 63 95 116v11q-10 16 -17.5 27t-18.5 24.5t-14 17.5t-21 24t-24 26l19 16l121 -134v-11l-121 -133zM185 163q56 63 95 116v11q-10 16 -17.5 27t-18.5 24.5t-14 17.5t-21 24t-24 26l19 16l121 -134v-11l-121 -133z" />
<glyph unicode="&#xbc;" horiz-adv-x="666" d="M58 608v23l88 21v-389h-48v331q0 18 -14 18q-2 0 -26 -4zM75 5l467 633l20 -15l-467 -633zM365 49v28q53 67 81.5 133.5t28.5 156.5h50q0 -83 -31 -146t-98 -149h172v119h49v-119h33v-23h-33v-60h-49v60h-203z" />
<glyph unicode="&#xbd;" horiz-adv-x="683" d="M58 608v23l88 21v-389h-48v331q0 18 -14 18q-2 0 -26 -4zM66 5l467 633l20 -15l-467 -633zM421 -11v34q4 4 27.5 27t37.5 37.5t37 41.5t36 48t23.5 46.5t10.5 46.5q0 40 -19.5 61t-55.5 21q-15 0 -30 -5l-47 -17l-9 30q32 15 87 15h24q44 0 71 -27.5t27 -71.5 q0 -52 -34.5 -96.5t-145.5 -152.5h185v-38h-225z" />
<glyph unicode="&#xbe;" horiz-adv-x="733" d="M19 278l11 29l45 -17q25 -10 43 -10q88 0 88 103q0 32 -15.5 57t-36.5 25h-51v18h26q20 0 34.5 20t14.5 48q0 73 -55 73q-13 0 -28 -5l-50 -18l-11 30q36 17 91 17q43 0 69 -24t26 -64q0 -23 -11 -45t-30 -32q35 -6 55.5 -35.5t20.5 -66.5q0 -56 -35.5 -90.5t-93.5 -34.5 h-10q-23 0 -53 7.5t-44 14.5zM141 5l467 633l20 -15l-467 -633zM432 49v28q53 67 81.5 133.5t28.5 156.5h50q0 -83 -31 -146t-98 -149h172v119h49v-119h33v-23h-33v-60h-49v60h-203z" />
<glyph unicode="&#xbf;" horiz-adv-x="416" d="M55 -60q0 62 78 107q40 23 64 41.5t34 36.5t12.5 30.5t2.5 34.5v68h27q15 -63 15 -101q0 -46 -21 -73t-104 -78q-32 -20 -45 -37.5t-13 -44.5q0 -36 33.5 -59.5t84.5 -23.5q18 0 31.5 1t29 4.5t21.5 5t29 9t32 10.5l14 -30q-70 -25 -159 -25q-74 0 -120 34.5t-46 89.5z M234 425v25q0 16 16 16h26q16 0 16 -16v-25q0 -17 -16 -17h-26q-16 0 -16 17z" />
<glyph unicode="&#xc0;" horiz-adv-x="508" d="M17 0l203 637q27 -4 47 -4h22l203 -633l-50 -8l-68 212h-261q-16 -68 -25.5 -132t-9.5 -80zM120 229h245l-113 354h-23l-91 -286q-7 -23 -18 -68zM152 794v9h36q15 0 33 -18t32 -43l30 -55l-17 -3z" />
<glyph unicode="&#xc1;" horiz-adv-x="508" d="M17 0l203 637q27 -4 47 -4h22l203 -633l-50 -8l-68 212h-261q-16 -68 -25.5 -132t-9.5 -80zM120 229h245l-113 354h-23l-91 -286q-7 -23 -18 -68zM223 687l30 55q14 25 32 43t33 18h36v-9l-114 -110z" />
<glyph unicode="&#xc2;" horiz-adv-x="508" d="M17 0l203 637q27 -4 47 -4h22l203 -633l-50 -8l-68 212h-261q-16 -68 -25.5 -132t-9.5 -80zM120 229h245l-113 354h-23l-91 -286q-7 -23 -18 -68zM138 697l105 106h32l105 -106l-18 -18l-32 33q-29 31 -71 55q-34 -18 -71 -55l-32 -33z" />
<glyph unicode="&#xc3;" horiz-adv-x="508" d="M17 0l203 637q27 -4 47 -4h22l203 -633l-50 -8l-68 212h-261q-16 -68 -25.5 -132t-9.5 -80zM97 708l35 43q25 28 59 28q24 0 77 -36q36 -23 53 -23q39 0 69 57l29 -19l-35 -43q-26 -28 -60 -28q-23 0 -74 34q-37 25 -54 25q-18 0 -32.5 -10.5t-21 -20t-15.5 -26.5z M120 229h245l-113 354h-23l-91 -286q-7 -23 -18 -68z" />
<glyph unicode="&#xc4;" horiz-adv-x="508" d="M17 0l203 637q27 -4 47 -4h22l203 -633l-50 -8l-68 212h-261q-16 -68 -25.5 -132t-9.5 -80zM120 229h245l-113 354h-23l-91 -286q-7 -23 -18 -68zM129 725v46h58v-46q0 -13 -29 -13t-29 13zM329 725v46h58v-46q0 -13 -29 -13t-29 13z" />
<glyph unicode="&#xc5;" horiz-adv-x="508" d="M17 0q18 57 91 286.5t113 353.5q-21 9 -33.5 27.5t-12.5 40.5q0 31 23 53t56 22t56 -22t23 -53q0 -22 -12.5 -40.5t-33.5 -27.5q39 -124 112.5 -352t92.5 -288l-50 -8l-68 212h-261q-16 -68 -25.5 -132t-9.5 -80zM120 229h245l-113 354h-23l-91 -286q-7 -23 -18 -68z M200 708q0 -23 16 -38.5t38 -15.5q24 0 39 15t15 39q0 23 -16 38.5t-38 15.5q-24 0 -39 -15t-15 -39z" />
<glyph unicode="&#xc6;" horiz-adv-x="741" d="M17 0l204 638q32 -5 50 -5h429v-41q-19 0 -114.5 8t-127.5 8h-41v-246h175v-24h-175v-313h41q32 0 127.5 8t114.5 8v-41h-333v204h-253q-40 -172 -40 -212zM120 229h247v377l-132 -6l-97 -303q-7 -23 -18 -68z" />
<glyph unicode="&#xc7;" horiz-adv-x="472" d="M35 316q0 147 61.5 236.5t161.5 89.5h15q33 0 87.5 -12.5t76.5 -23.5l-16 -39l-76 33q-39 17 -75 17q-80 0 -128.5 -82.5t-48.5 -217.5t48.5 -217.5t128.5 -82.5q38 0 75 16l76 35l16 -40q-21 -11 -76.5 -23.5t-89.5 -12.5l-9 -41q11 5 32 5q26 0 42 -15t16 -40 q0 -30 -22 -48.5t-57 -18.5q-32 0 -56 12l6 24q24 -15 49 -15q21 0 33.5 14.5t12.5 37.5q0 26 -30 26q-27 0 -40 -15l-12 2l15 72q-98 3 -157 91.5t-59 232.5z" />
<glyph unicode="&#xc8;" horiz-adv-x="466" d="M67 0v633h358v-41q-19 0 -118.5 8t-131.5 8h-58v-246h208v-24h-208v-313h58q32 0 131.5 8t118.5 8v-41h-358zM145 794v9h36q15 0 33 -18t32 -43l30 -55l-17 -3z" />
<glyph unicode="&#xc9;" horiz-adv-x="466" d="M67 0v633h358v-41q-19 0 -118.5 8t-131.5 8h-58v-246h208v-24h-208v-313h58q32 0 131.5 8t118.5 8v-41h-358zM205 687l30 55q14 25 32 43t33 18h36v-9l-114 -110z" />
<glyph unicode="&#xca;" horiz-adv-x="466" d="M67 0v633h358v-41q-19 0 -118.5 8t-131.5 8h-58v-246h208v-24h-208v-313h58q32 0 131.5 8t118.5 8v-41h-358zM119 697l105 106h32l105 -106l-18 -18l-32 33q-29 31 -71 55q-34 -18 -71 -55l-32 -33z" />
<glyph unicode="&#xcb;" horiz-adv-x="466" d="M67 0v633h358v-41q-19 0 -118.5 8t-131.5 8h-58v-246h208v-24h-208v-313h58q32 0 131.5 8t118.5 8v-41h-358zM111 725v46h58v-46q0 -13 -29 -13t-29 13zM311 725v46h58v-46q0 -13 -29 -13t-29 13z" />
<glyph unicode="&#xcc;" d="M-15 794v9h36q15 0 33 -18t32 -43l30 -55l-17 -3zM67 0v633h50v-633h-50z" />
<glyph unicode="&#xcd;" d="M56 687l30 55q14 25 32 43t33 18h36v-9l-114 -110zM67 0v633h50v-633h-50z" />
<glyph unicode="&#xce;" d="M-29 697l105 106h32l105 -106l-18 -18l-32 33q-29 31 -71 55q-34 -18 -71 -55l-32 -33zM67 0v633h50v-633h-50z" />
<glyph unicode="&#xcf;" d="M-37 725v46h58v-46q0 -13 -29 -13t-29 13zM67 0v633h50v-633h-50zM163 725v46h58v-46q0 -13 -29 -13t-29 13z" />
<glyph unicode="&#xd0;" horiz-adv-x="572" d="M25 304v25h67v304h186q117 0 188.5 -87t71.5 -229q0 -143 -71.5 -230t-188.5 -87h-186v304h-67zM142 25h136q93 0 149 80t56 211q0 132 -56 212t-149 80h-136v-279h10l131 4l-1 -29h-140v-279z" />
<glyph unicode="&#xd1;" horiz-adv-x="575" d="M57 0q0 19 5 122t5 150v361h22l375 -521l10 -16h1v263q0 47 -8.5 151t-8.5 123h42v-633h-18l-374 521l-15 26h-1v-547h-35zM127 708l35 43q24 28 59 28q24 0 77 -36q36 -23 53 -23q39 0 69 57l29 -19l-35 -43q-26 -28 -60 -28q-23 0 -74 34q-37 25 -54 25 q-18 0 -32.5 -10.5t-21 -20t-15.5 -26.5z" />
<glyph unicode="&#xd2;" horiz-adv-x="550" d="M35 318q0 146 66 235t174 89t174 -89t66 -235q0 -147 -66 -236.5t-174 -89.5t-174 89.5t-66 236.5zM90 317q0 -145 52.5 -221.5t153.5 -76.5q80 0 122 76t42 221q0 146 -53 222.5t-153 76.5q-80 0 -122 -76.5t-42 -221.5zM180 803v9h36q15 0 33 -18t32 -43l30 -55l-17 -3 z" />
<glyph unicode="&#xd3;" horiz-adv-x="550" d="M35 318q0 146 66 235t174 89t174 -89t66 -235q0 -147 -66 -236.5t-174 -89.5t-174 89.5t-66 236.5zM90 317q0 -145 52.5 -221.5t153.5 -76.5q80 0 122 76t42 221q0 146 -53 222.5t-153 76.5q-80 0 -122 -76.5t-42 -221.5zM240 696l30 55q14 25 32 43t33 18h36v-9 l-114 -110z" />
<glyph unicode="&#xd4;" horiz-adv-x="550" d="M35 318q0 146 66 235t174 89t174 -89t66 -235q0 -147 -66 -236.5t-174 -89.5t-174 89.5t-66 236.5zM90 317q0 -145 52.5 -221.5t153.5 -76.5q80 0 122 76t42 221q0 146 -53 222.5t-153 76.5q-80 0 -122 -76.5t-42 -221.5zM154 706l105 106h32l105 -106l-18 -18l-32 33 q-29 31 -71 55q-34 -18 -71 -55l-32 -33z" />
<glyph unicode="&#xd5;" horiz-adv-x="550" d="M35 318q0 146 66 235t174 89t174 -89t66 -235q0 -147 -66 -236.5t-174 -89.5t-174 89.5t-66 236.5zM90 317q0 -145 52.5 -221.5t153.5 -76.5q80 0 122 76t42 221q0 146 -53 222.5t-153 76.5q-80 0 -122 -76.5t-42 -221.5zM114 717l35 43q24 28 59 28q24 0 77 -36 q36 -23 53 -23q39 0 69 57l29 -19l-35 -43q-26 -28 -60 -28q-23 0 -74 34q-37 25 -54 25q-18 0 -32.5 -10.5t-21 -20t-15.5 -26.5z" />
<glyph unicode="&#xd6;" horiz-adv-x="550" d="M35 318q0 146 66 235t174 89t174 -89t66 -235q0 -147 -66 -236.5t-174 -89.5t-174 89.5t-66 236.5zM90 317q0 -145 52.5 -221.5t153.5 -76.5q80 0 122 76t42 221q0 146 -53 222.5t-153 76.5q-80 0 -122 -76.5t-42 -221.5zM146 734v46h58v-46q0 -13 -29 -13t-29 13z M346 734v46h58v-46q0 -13 -29 -13t-29 13z" />
<glyph unicode="&#xd7;" horiz-adv-x="466" d="M69 175l141 142l-141 141l23 24l141 -142l142 142l23 -24l-141 -141l141 -142l-23 -23l-142 141l-141 -141z" />
<glyph unicode="&#xd8;" horiz-adv-x="550" d="M35 318q0 146 66 235t174 89q99 0 163 -76l44 60l20 -15l-48 -66q61 -90 61 -227q0 -147 -66 -236.5t-174 -89.5q-99 0 -163 76l-39 -54l-21 14l44 61q-61 89 -61 229zM90 317q0 -118 34 -189l289 402q-53 85 -159 85q-80 0 -122 -76.5t-42 -221.5zM137 103 q53 -84 159 -84q80 0 122 76t42 221q0 119 -34 190z" />
<glyph unicode="&#xd9;" horiz-adv-x="550" d="M58 162v471h50v-504q0 -51 43.5 -81.5t115.5 -30.5h12q84 0 136 40t52 105v197q0 47 -9 151t-9 123h43v-471q0 -77 -58.5 -123.5t-154.5 -46.5h-25q-95 0 -145.5 43.5t-50.5 126.5zM172 794v9h36q15 0 33 -18t32 -43l30 -55l-17 -3z" />
<glyph unicode="&#xda;" horiz-adv-x="550" d="M58 162v471h50v-504q0 -51 43.5 -81.5t115.5 -30.5h12q84 0 136 40t52 105v197q0 47 -9 151t-9 123h43v-471q0 -77 -58.5 -123.5t-154.5 -46.5h-25q-95 0 -145.5 43.5t-50.5 126.5zM243 687l30 55q14 25 32 43t33 18h36v-9l-114 -110z" />
<glyph unicode="&#xdb;" horiz-adv-x="550" d="M58 162v471h50v-504q0 -51 43.5 -81.5t115.5 -30.5h12q84 0 136 40t52 105v197q0 47 -9 151t-9 123h43v-471q0 -77 -58.5 -123.5t-154.5 -46.5h-25q-95 0 -145.5 43.5t-50.5 126.5zM158 697l105 106h32l105 -106l-18 -18l-32 33q-29 31 -71 55q-34 -18 -71 -55l-32 -33z " />
<glyph unicode="&#xdc;" horiz-adv-x="550" d="M58 162v471h50v-504q0 -51 43.5 -81.5t115.5 -30.5h12q84 0 136 40t52 105v197q0 47 -9 151t-9 123h43v-471q0 -77 -58.5 -123.5t-154.5 -46.5h-25q-95 0 -145.5 43.5t-50.5 126.5zM150 725v46h58v-46q0 -13 -29 -13t-29 13zM350 725v46h58v-46q0 -13 -29 -13t-29 13z " />
<glyph unicode="&#xdd;" horiz-adv-x="516" d="M17 633l53 8l200 -382h1l52 94q115 221 115 288l62 -8l-209 -389v-244h-49v210zM237 687l30 55q14 25 32 43t33 18h36v-9l-114 -110z" />
<glyph unicode="&#xde;" horiz-adv-x="508" d="M67 0v633h50v-66h130q103 0 165.5 -55t62.5 -145q0 -94 -62.5 -151.5t-165.5 -57.5h-130v-158h-50zM117 183h130q79 0 127 50.5t48 133.5q0 79 -48 127t-127 48h-130v-359z" />
<glyph unicode="&#xdf;" horiz-adv-x="545" d="M50 367v33h33v126q0 53 35.5 84.5t93.5 31.5q73 0 118 -34.5t45 -91.5q0 -29 -28.5 -57t-57 -52.5t-28.5 -42.5q0 -39 27 -61t107 -57q57 -25 91.5 -56t34.5 -78q0 -54 -52.5 -87t-135.5 -33q-35 0 -59 2.5t-34.5 6t-33.5 11.5l14 36q62 -31 114 -31q51 0 92 24.5 t41 57.5q0 34 -28 61t-96 54q-64 25 -94.5 51.5t-30.5 75.5q0 29 18 54.5t39.5 41.5t39.5 37t18 41q0 42 -30 67.5t-79 25.5q-43 0 -69 -20.5t-26 -54.5q0 -5 2 -33t2 -33v-467h-50v367h-33z" />
<glyph unicode="&#xe0;" horiz-adv-x="470" d="M29 121q0 60 45 96.5t115 36.5h169v91q0 51 -31.5 78t-91.5 27q-49 0 -96 -21l-56 -25l-14 38q21 9 70 21t96 12q85 0 129 -33t44 -95v-243q0 -49 17 -100l-42 -8l-22 62l-120 -47q-49 -19 -69 -19q-65 0 -104 35.5t-39 93.5zM81 117q0 -42 24.5 -67t68.5 -25q33 0 51 7 l133 48v149h-160q-55 0 -86 -30.5t-31 -81.5zM145 661v9h36q15 0 33 -18t32 -43l30 -55l-17 -3z" />
<glyph unicode="&#xe1;" horiz-adv-x="470" d="M29 121q0 60 45 96.5t115 36.5h169v91q0 51 -31.5 78t-91.5 27q-49 0 -96 -21l-56 -25l-14 38q21 9 70 21t96 12q85 0 129 -33t44 -95v-243q0 -49 17 -100l-42 -8l-22 62l-120 -47q-49 -19 -69 -19q-65 0 -104 35.5t-39 93.5zM81 117q0 -42 24.5 -67t68.5 -25q33 0 51 7 l133 48v149h-160q-55 0 -86 -30.5t-31 -81.5zM205 554l30 55q14 25 32 43t33 18h36v-9l-114 -110z" />
<glyph unicode="&#xe2;" horiz-adv-x="470" d="M29 121q0 60 45 96.5t115 36.5h169v91q0 51 -31.5 78t-91.5 27q-49 0 -96 -21l-56 -25l-14 38q21 9 70 21t96 12q85 0 129 -33t44 -95v-243q0 -49 17 -100l-42 -8l-22 62l-120 -47q-49 -19 -69 -19q-65 0 -104 35.5t-39 93.5zM81 117q0 -42 24.5 -67t68.5 -25q33 0 51 7 l133 48v149h-160q-55 0 -86 -30.5t-31 -81.5zM120 564l105 106h32l105 -106l-18 -18l-32 33q-29 31 -71 55q-34 -18 -71 -55l-32 -33z" />
<glyph unicode="&#xe3;" horiz-adv-x="470" d="M29 121q0 60 45 96.5t115 36.5h169v91q0 51 -31.5 78t-91.5 27q-49 0 -96 -21l-56 -25l-14 38q21 9 70 21t96 12q85 0 129 -33t44 -95v-243q0 -49 17 -100l-42 -8l-22 62l-120 -47q-49 -19 -69 -19q-65 0 -104 35.5t-39 93.5zM79 575l35 43q24 28 59 28q24 0 77 -36 q36 -23 53 -23q39 0 69 57l29 -19l-35 -43q-26 -28 -60 -28q-23 0 -74 34q-37 25 -54 25q-18 0 -32.5 -10.5t-21 -20t-15.5 -26.5zM81 117q0 -42 24.5 -67t68.5 -25q33 0 51 7l133 48v149h-160q-55 0 -86 -30.5t-31 -81.5z" />
<glyph unicode="&#xe4;" horiz-adv-x="470" d="M29 121q0 60 45 96.5t115 36.5h169v91q0 51 -31.5 78t-91.5 27q-49 0 -96 -21l-56 -25l-14 38q21 9 70 21t96 12q85 0 129 -33t44 -95v-243q0 -49 17 -100l-42 -8l-22 62l-120 -47q-49 -19 -69 -19q-65 0 -104 35.5t-39 93.5zM81 117q0 -42 24.5 -67t68.5 -25q33 0 51 7 l133 48v149h-160q-55 0 -86 -30.5t-31 -81.5zM111 592v46h58v-46q0 -13 -29 -13t-29 13zM311 592v46h58v-46q0 -13 -29 -13t-29 13z" />
<glyph unicode="&#xe5;" horiz-adv-x="470" d="M29 121q0 60 45 96.5t115 36.5h169v91q0 51 -31.5 78t-91.5 27q-49 0 -96 -21l-56 -25l-14 38q21 9 70 21t96 12q85 0 129 -33t44 -95v-243q0 -49 17 -100l-42 -8l-22 62l-120 -47q-49 -19 -69 -19q-65 0 -104 35.5t-39 93.5zM81 117q0 -42 24.5 -67t68.5 -25q33 0 51 7 l133 48v149h-160q-55 0 -86 -30.5t-31 -81.5zM162 575q0 31 23 53t56 22t56 -22t23 -53t-23 -53t-56 -22t-56 22t-23 53zM191 575q0 -21 14.5 -35.5t35.5 -14.5q23 0 36.5 13.5t13.5 36.5q0 21 -14.5 35.5t-35.5 14.5q-23 0 -36.5 -13.5t-13.5 -36.5z" />
<glyph unicode="&#xe6;" horiz-adv-x="795" d="M29 129q0 63 46.5 102t117.5 40l165 2v72q0 51 -31.5 78t-91.5 27q-49 0 -96 -21l-56 -25l-14 38q21 9 70 21t96 12q144 0 159 -101q55 101 174 101q86 0 139 -54.5t53 -142.5v-30l-352 2v-12q0 -99 47.5 -160t124.5 -61q31 0 82 23l68 31l18 -37q-100 -42 -176 -42 q-110 0 -166 83q-11 -4 -165 -64q-49 -19 -69 -19q-64 0 -103.5 37.5t-39.5 99.5zM81 125q0 -45 25.5 -72.5t67.5 -27.5q33 0 51 7l133 48v168l-160 -2q-53 -1 -85 -34t-32 -87zM410 275l299 6q0 76 -41 122.5t-107 46.5q-61 0 -101.5 -48t-49.5 -127z" />
<glyph unicode="&#xe7;" horiz-adv-x="425" d="M33 233q0 109 58.5 175.5t153.5 66.5q35 0 79.5 -8.5t65.5 -18.5l-15 -38l-73 28q-31 12 -50 12q-73 0 -118 -59.5t-45 -157.5q0 -97 44.5 -156.5t118.5 -59.5q21 0 50 11l73 28l15 -37q-48 -23 -137 -27l-10 -45q13 6 32 6q26 0 42 -15t16 -40q0 -30 -21.5 -49 t-56.5 -19q-33 0 -57 12l6 24q24 -15 50 -15q21 0 33.5 14.5t12.5 37.5q0 12 -8.5 19.5t-22.5 7.5q-26 0 -39 -15l-13 1l16 76q-90 4 -145 70t-55 171z" />
<glyph unicode="&#xe8;" horiz-adv-x="475" d="M33 235q0 108 59 174t155 66q86 0 139 -54.5t53 -142.5v-30l-351 6q0 -2 -0.5 -7.5t-0.5 -8.5q0 -99 47.5 -160t124.5 -61q31 0 82 23l69 31l17 -37q-100 -42 -176 -42q-98 0 -158 67t-60 176zM89 279l299 2q0 76 -41 122.5t-107 46.5q-61 0 -101.5 -46t-49.5 -125z M145 661v9h36q15 0 33 -18t32 -43l30 -55l-17 -3z" />
<glyph unicode="&#xe9;" horiz-adv-x="475" d="M33 235q0 108 59 174t155 66q86 0 139 -54.5t53 -142.5v-30l-351 6q0 -2 -0.5 -7.5t-0.5 -8.5q0 -99 47.5 -160t124.5 -61q31 0 82 23l69 31l17 -37q-100 -42 -176 -42q-98 0 -158 67t-60 176zM89 279l299 2q0 76 -41 122.5t-107 46.5q-61 0 -101.5 -46t-49.5 -125z M205 554l30 55q14 25 32 43t33 18h36v-9l-114 -110z" />
<glyph unicode="&#xea;" horiz-adv-x="475" d="M33 235q0 108 59 174t155 66q86 0 139 -54.5t53 -142.5v-30l-351 6q0 -2 -0.5 -7.5t-0.5 -8.5q0 -99 47.5 -160t124.5 -61q31 0 82 23l69 31l17 -37q-100 -42 -176 -42q-98 0 -158 67t-60 176zM89 279l299 2q0 76 -41 122.5t-107 46.5q-61 0 -101.5 -46t-49.5 -125z M120 564l105 106h32l105 -106l-18 -18l-32 33q-29 31 -71 55q-34 -18 -71 -55l-32 -33z" />
<glyph unicode="&#xeb;" horiz-adv-x="475" d="M33 235q0 108 59 174t155 66q86 0 139 -54.5t53 -142.5v-30l-351 6q0 -2 -0.5 -7.5t-0.5 -8.5q0 -99 47.5 -160t124.5 -61q31 0 82 23l69 31l17 -37q-100 -42 -176 -42q-98 0 -158 67t-60 176zM89 279l299 2q0 76 -41 122.5t-107 46.5q-61 0 -101.5 -46t-49.5 -125z M111 592v46h58v-46q0 -13 -29 -13t-29 13zM311 592v46h58v-46q0 -13 -29 -13t-29 13z" />
<glyph unicode="&#xec;" d="M-4 661v9h36q15 0 33 -18t32 -43l30 -55l-17 -3zM67 0v467h50v-467h-50z" />
<glyph unicode="&#xed;" d="M56 554l30 55q14 25 32 43t33 18h36v-9l-114 -110zM67 0v467h50v-467h-50z" />
<glyph unicode="&#xee;" d="M-17 578l93 93h32l92 -93l-18 -18l-20 20q-30 32 -70 55q-34 -18 -71 -55l-20 -20zM67 0v467h50v-467h-50z" />
<glyph unicode="&#xef;" d="M-17 592v46h59v-46q0 -13 -30 -13q-29 0 -29 13zM67 0v467h50v-467h-50zM142 592v46h58v-46q0 -13 -29 -13t-29 13z" />
<glyph unicode="&#xf0;" horiz-adv-x="487" d="M33 250q0 90 41 145t109 55q35 0 85 -19l125 -48q-16 132 -82 180l-61 -45l-15 20l52 39q-43 14 -63 18l-69 13l4 34q34 -4 82.5 -18.5t72.5 -27.5l60 44l15 -20l-51 -38q47 -34 79.5 -105.5t32.5 -160.5q0 -146 -58 -235t-154 -89q-92 0 -148.5 71t-56.5 187zM85 242 q0 -101 42 -163t111 -62q72 0 115.5 82.5t43.5 217.5q0 14 -2 44l-143 48q-29 9 -47 9q-58 0 -89 -45t-31 -131z" />
<glyph unicode="&#xf1;" horiz-adv-x="512" d="M67 0v467l27 3l19 -62l124 48q49 19 101 19q55 0 83.5 -30t28.5 -86v-359h-50v349q0 47 -22 71.5t-63 24.5q-30 0 -58 -10l-140 -48v-387h-50zM96 575l35 43q24 28 59 28q24 0 77 -36q36 -23 53 -23q39 0 69 57l29 -19l-35 -43q-26 -28 -60 -28q-23 0 -74 34 q-37 25 -54 25q-18 0 -32.5 -10.5t-21 -20t-15.5 -26.5z" />
<glyph unicode="&#xf2;" horiz-adv-x="491" d="M33 233q0 109 58.5 175.5t154.5 66.5t154 -66.5t58 -175.5t-58 -175t-154 -66t-154.5 66t-58.5 175zM86 234q0 -100 50 -157.5t131 -57.5q67 0 102.5 55t35.5 159q0 105 -46 160t-134 55q-61 0 -100 -57.5t-39 -156.5zM151 661v9h36q15 0 33 -18t32 -43l30 -55l-17 -3z " />
<glyph unicode="&#xf3;" horiz-adv-x="491" d="M33 233q0 109 58.5 175.5t154.5 66.5t154 -66.5t58 -175.5t-58 -175t-154 -66t-154.5 66t-58.5 175zM86 234q0 -100 50 -157.5t131 -57.5q67 0 102.5 55t35.5 159q0 105 -46 160t-134 55q-61 0 -100 -57.5t-39 -156.5zM210 554l30 55q14 25 32 43t33 18h36v-9l-114 -110z " />
<glyph unicode="&#xf4;" horiz-adv-x="491" d="M33 233q0 109 58.5 175.5t154.5 66.5t154 -66.5t58 -175.5t-58 -175t-154 -66t-154.5 66t-58.5 175zM86 234q0 -100 50 -157.5t131 -57.5q67 0 102.5 55t35.5 159q0 105 -46 160t-134 55q-61 0 -100 -57.5t-39 -156.5zM125 564l105 106h32l105 -106l-18 -18l-32 33 q-29 31 -71 55q-34 -18 -71 -55l-32 -33z" />
<glyph unicode="&#xf5;" horiz-adv-x="491" d="M33 233q0 109 58.5 175.5t154.5 66.5t154 -66.5t58 -175.5t-58 -175t-154 -66t-154.5 66t-58.5 175zM85 575l35 43q24 28 59 28q24 0 77 -36q36 -23 53 -23q39 0 69 57l29 -19l-35 -43q-26 -28 -60 -28q-23 0 -74 34q-37 25 -54 25q-18 0 -32.5 -10.5t-21 -20 t-15.5 -26.5zM86 234q0 -100 50 -157.5t131 -57.5q67 0 102.5 55t35.5 159q0 105 -46 160t-134 55q-61 0 -100 -57.5t-39 -156.5z" />
<glyph unicode="&#xf6;" horiz-adv-x="491" d="M33 233q0 109 58.5 175.5t154.5 66.5t154 -66.5t58 -175.5t-58 -175t-154 -66t-154.5 66t-58.5 175zM86 234q0 -100 50 -157.5t131 -57.5q67 0 102.5 55t35.5 159q0 105 -46 160t-134 55q-61 0 -100 -57.5t-39 -156.5zM117 592v46h58v-46q0 -13 -29 -13t-29 13zM317 592 v46h58v-46q0 -13 -29 -13t-29 13z" />
<glyph unicode="&#xf7;" horiz-adv-x="450" d="M67 317v33h316v-33h-316zM196 125v25q0 17 16 17h26q16 0 16 -17v-25q0 -17 -16 -17h-26q-16 0 -16 17zM196 517v25q0 16 16 16h26q16 0 16 -16v-25q0 -17 -16 -17h-26q-16 0 -16 17z" />
<glyph unicode="&#xf8;" horiz-adv-x="491" d="M33 233q0 109 58.5 175.5t154.5 66.5q85 0 141 -53l37 44l19 -16l-39 -46q54 -65 54 -171q0 -109 -58 -175t-154 -66q-85 0 -141 53l-37 -45l-19 16l39 47q-55 66 -55 170zM86 234q0 -79 33 -134l242 291q-45 57 -136 57q-61 0 -100 -57.5t-39 -156.5zM134 79 q49 -60 133 -60q67 0 102.5 55t35.5 159q0 85 -29 136z" />
<glyph unicode="&#xf9;" horiz-adv-x="512" d="M62 108v359h50v-349q0 -46 22.5 -71t63.5 -25q30 0 58 10l140 48v387h50v-467l-28 -2l-19 61l-124 -48q-49 -19 -101 -19q-55 0 -83.5 30t-28.5 86zM159 661v9h36q15 0 33 -18t32 -43l30 -55l-17 -3z" />
<glyph unicode="&#xfa;" horiz-adv-x="512" d="M62 108v359h50v-349q0 -46 22.5 -71t63.5 -25q30 0 58 10l140 48v387h50v-467l-28 -2l-19 61l-124 -48q-49 -19 -101 -19q-55 0 -83.5 30t-28.5 86zM219 554l30 55q14 25 32 43t33 18h36v-9l-114 -110z" />
<glyph unicode="&#xfb;" horiz-adv-x="512" d="M62 108v359h50v-349q0 -46 22.5 -71t63.5 -25q30 0 58 10l140 48v387h50v-467l-28 -2l-19 61l-124 -48q-49 -19 -101 -19q-55 0 -83.5 30t-28.5 86zM133 564l105 106h32l105 -106l-18 -18l-32 33q-29 31 -71 55q-34 -18 -71 -55l-32 -33z" />
<glyph unicode="&#xfc;" horiz-adv-x="512" d="M62 108v359h50v-349q0 -46 22.5 -71t63.5 -25q30 0 58 10l140 48v387h50v-467l-28 -2l-19 61l-124 -48q-49 -19 -101 -19q-55 0 -83.5 30t-28.5 86zM125 592v46h58v-46q0 -13 -29 -13t-29 13zM325 592v46h58v-46q0 -13 -29 -13t-29 13z" />
<glyph unicode="&#xfd;" horiz-adv-x="454" d="M21 468l52 7l157 -403q3 -7 15 -43h2l40 112q26 73 47 151.5t30 124t9 58.5l60 -8l-197 -537q-17 -48 -44.5 -72.5t-81.5 -24.5h-77v42q11 0 40.5 -8.5t41.5 -8.5h5q43 0 66 26t23 73q0 32 -13 66zM194 554l30 55q14 25 32 43t33 18h36v-9l-114 -110z" />
<glyph unicode="&#xfe;" horiz-adv-x="500" d="M67 -167v800h50v-224l103 41q64 25 95 25q67 0 107 -66.5t40 -175.5t-40 -175.5t-107 -66.5q-35 0 -95 25l-103 42v-225h-50zM117 80l119 -42q32 -12 66 -12q48 0 77 57t29 150t-29 150.5t-77 57.5q-34 0 -66 -12l-119 -44v-305z" />
<glyph unicode="&#xff;" horiz-adv-x="454" d="M21 468l52 7l157 -403q3 -7 15 -43h2l40 112q26 73 47 151.5t30 124t9 58.5l60 -8l-197 -537q-17 -48 -44.5 -72.5t-81.5 -24.5h-77v42q11 0 40.5 -8.5t41.5 -8.5h5q43 0 66 26t23 73q0 32 -13 66zM100 592v46h58v-46q0 -13 -29 -13t-29 13zM300 592v46h58v-46 q0 -13 -29 -13t-29 13z" />
<glyph unicode="&#x152;" horiz-adv-x="847" d="M35 318q0 145 65 234.5t171 89.5q61 0 109.5 -34.5t78.5 -96.5l-3 122h350v-41q-19 0 -118.5 8t-131.5 8h-50v-246h200v-24h-200v-313h50q32 0 131.5 8t118.5 8v-41h-350l3 123q-62 -131 -188 -131q-106 0 -171 89.5t-65 236.5zM90 317q0 -145 52 -221.5t150 -76.5 q78 0 119 76t41 221t-52 222t-150 77q-78 0 -119 -76.5t-41 -221.5z" />
<glyph unicode="&#x153;" horiz-adv-x="829" d="M33 233q0 109 57.5 175.5t151.5 66.5q135 0 181 -126q22 60 68.5 93t113.5 33q85 0 136.5 -54t51.5 -143v-30l-343 6v-16q0 -100 45.5 -160.5t122.5 -60.5q26 0 77 23l69 31l17 -37q-100 -42 -172 -42q-68 0 -115.5 33.5t-70.5 93.5q-47 -127 -181 -127q-94 0 -151.5 66 t-57.5 175zM86 234q0 -105 45 -160t131 -55q65 0 100 55t35 159q0 105 -45 160t-131 55q-65 0 -100 -55t-35 -159zM452 279l290 2q0 76 -39.5 122.5t-103.5 46.5q-61 0 -99.5 -46t-47.5 -125z" />
<glyph unicode="&#x178;" horiz-adv-x="516" d="M17 633l53 8l200 -382h1l52 94q115 221 115 288l62 -8l-209 -389v-244h-49v210zM143 725v46h58v-46q0 -13 -29 -13t-29 13zM343 725v46h58v-46q0 -13 -29 -13t-29 13z" />
<glyph unicode="&#x2c6;" horiz-adv-x="341" d="M50 564l105 106h32l105 -106l-18 -18l-32 33q-29 31 -71 55q-34 -18 -71 -55l-32 -33z" />
<glyph unicode="&#x2dc;" horiz-adv-x="470" d="M86 575l35 43q25 28 59 28q24 0 77 -36q36 -23 53 -23q39 0 69 57l29 -19l-35 -43q-26 -28 -60 -28q-23 0 -74 34q-37 25 -54 25q-18 0 -32.5 -10.5t-21 -20t-15.5 -26.5z" />
<glyph unicode="&#x2000;" horiz-adv-x="406" />
<glyph unicode="&#x2001;" horiz-adv-x="812" />
<glyph unicode="&#x2002;" horiz-adv-x="406" />
<glyph unicode="&#x2003;" horiz-adv-x="812" />
<glyph unicode="&#x2004;" horiz-adv-x="270" />
<glyph unicode="&#x2005;" horiz-adv-x="203" />
<glyph unicode="&#x2006;" horiz-adv-x="135" />
<glyph unicode="&#x2007;" horiz-adv-x="135" />
<glyph unicode="&#x2008;" horiz-adv-x="101" />
<glyph unicode="&#x2009;" horiz-adv-x="162" />
<glyph unicode="&#x200a;" horiz-adv-x="45" />
<glyph unicode="&#x2010;" horiz-adv-x="400" d="M50 279v33h300v-33h-300z" />
<glyph unicode="&#x2011;" horiz-adv-x="400" d="M50 279v33h300v-33h-300z" />
<glyph unicode="&#x2012;" horiz-adv-x="400" d="M50 279v33h300v-33h-300z" />
<glyph unicode="&#x2013;" horiz-adv-x="483" d="M50 275v25h383v-25h-383z" />
<glyph unicode="&#x2014;" horiz-adv-x="991" d="M50 275v25h892v-25h-892z" />
<glyph unicode="&#x2018;" horiz-adv-x="166" d="M37 528v34q0 15 23 57t52 72l18 -17q-51 -54 -51 -95q0 -13 8.5 -26t8.5 -19v-5q0 -13 -17 -13h-25q-17 0 -17 12z" />
<glyph unicode="&#x2019;" horiz-adv-x="166" d="M24 538q51 54 51 95q0 13 -8.5 26t-8.5 19v5q0 13 17 13h25q17 0 17 -12v-34q0 -15 -23 -57t-52 -72z" />
<glyph unicode="&#x201a;" horiz-adv-x="166" d="M24 -108q51 54 51 95q0 13 -8.5 26t-8.5 19v5q0 13 17 13h25q17 0 17 -12v-34q0 -15 -23 -57t-52 -72z" />
<glyph unicode="&#x201c;" horiz-adv-x="291" d="M37 528v34q0 15 23 57t52 72l18 -17q-51 -54 -51 -95q0 -13 8.5 -26t8.5 -19v-5q0 -13 -17 -13h-25q-17 0 -17 12zM162 528v34q0 15 23 57t52 72l18 -17q-51 -54 -51 -95q0 -13 8.5 -26t8.5 -19v-5q0 -13 -17 -13h-25q-17 0 -17 12z" />
<glyph unicode="&#x201d;" horiz-adv-x="291" d="M24 538q51 54 51 95q0 13 -8.5 26t-8.5 19v5q0 13 17 13h25q17 0 17 -12v-34q0 -15 -23 -57t-52 -72zM149 538q51 54 51 95q0 13 -8.5 26t-8.5 19v5q0 13 17 13h25q17 0 17 -12v-34q0 -15 -23 -57t-52 -72z" />
<glyph unicode="&#x201e;" horiz-adv-x="291" d="M24 -108q51 54 51 95q0 13 -8.5 26t-8.5 19v5q0 13 17 13h25q17 0 17 -12v-34q0 -15 -23 -57t-52 -72zM149 -108q51 54 51 95q0 13 -8.5 26t-8.5 19v5q0 13 17 13h25q17 0 17 -12v-34q0 -15 -23 -57t-52 -72z" />
<glyph unicode="&#x2022;" horiz-adv-x="300" d="M67 283q0 35 24.5 59.5t58.5 24.5t58.5 -24.5t24.5 -59.5t-24.5 -59t-58.5 -24t-58.5 24t-24.5 59z" />
<glyph unicode="&#x2026;" horiz-adv-x="500" d="M58 8v25q0 17 17 17h25q17 0 17 -17v-25q0 -16 -17 -16h-25q-17 0 -17 16zM208 8v25q0 17 17 17h25q17 0 17 -17v-25q0 -16 -17 -16h-25q-17 0 -17 16zM358 8v25q0 17 17 17h25q17 0 17 -17v-25q0 -16 -17 -16h-25q-17 0 -17 16z" />
<glyph unicode="&#x202f;" horiz-adv-x="162" />
<glyph unicode="&#x2039;" horiz-adv-x="235" d="M33 280v11l121 134l32 -33l-20.5 -20.5t-16 -16.5t-10.5 -11.5t-11.5 -14t-10.5 -16t-15 -23.5v-11q4 -6 12.5 -17.5t10.5 -14.5t8.5 -11.5t10 -12t10.5 -11.5t14 -15.5t18 -18.5l-32 -31z" />
<glyph unicode="&#x203a;" horiz-adv-x="235" d="M50 178q15 15 24 24.5t17.5 20t11.5 14.5t13.5 19t16.5 23v11q-8 13 -12.5 20t-10.5 15.5t-8 11.5t-9.5 11.5t-10 11l-14.5 14.5l-18 18l32 33l120 -134v-11l-120 -133z" />
<glyph unicode="&#x205f;" horiz-adv-x="203" />
<glyph unicode="&#x20ac;" horiz-adv-x="552" d="M38 275l12 25h65v16q0 40 2 59h-63l13 25h54q17 112 74.5 177t141.5 65h15q33 0 87.5 -12.5t76.5 -23.5l-16 -39l-76 33q-39 17 -75 17q-66 0 -111.5 -58t-59.5 -159h262l-13 -25h-252q-3 -29 -3 -58v-17h226l-13 -25h-212q8 -118 55.5 -188t120.5 -70q38 0 75 16l76 35 l16 -40q-22 -11 -76.5 -23.5t-87.5 -12.5h-15q-93 0 -152.5 77t-68.5 206h-78z" />
<glyph unicode="&#x2122;" horiz-adv-x="700" d="M25 601v32h256v-32h-2q-9 0 -48 4t-54 4v-297h-48v297q-17 0 -55 -4t-47 -4h-2zM312 312l9 321h24l135 -235l135 235h26l9 -321h-48l-7 238q-23 -43 -67.5 -120.5t-55.5 -97.5h-9l-115 202l-4 9l-3 -92v-13q0 -25 2.5 -71t2.5 -55h-34z" />
<glyph unicode="&#xe000;" horiz-adv-x="475" d="M0 0v475h475v-475h-475z" />
</font>
</defs>
</svg>
