<?xml version="1.0" standalone="no"?>
<!DOCTYPE svg PUBLIC "-//W3C//DTD SVG 1.1//EN" "http://www.w3.org/Graphics/SVG/1.1/DTD/svg11.dtd" >
<svg xmlns="http://www.w3.org/2000/svg">
<metadata></metadata>
<defs>
<font id="cinzelblack" horiz-adv-x="600" >
<font-face units-per-em="1000" ascent="800" descent="-200" />
<missing-glyph horiz-adv-x="250" />
<glyph horiz-adv-x="1000" />
<glyph horiz-adv-x="1000" />
<glyph unicode="&#xd;" horiz-adv-x="1000" />
<glyph unicode=" "  horiz-adv-x="250" />
<glyph unicode="&#x09;" horiz-adv-x="250" />
<glyph unicode="&#xa0;" horiz-adv-x="250" />
<glyph unicode="!" horiz-adv-x="295" d="M45 702h205l-23 -339l-45 -133h-70l-45 133zM55 76q0 37 26.5 63.5t64 26.5t63.5 -26.5t26 -63.5t-26 -63.5t-63.5 -26.5t-64 26.5t-26.5 63.5z" />
<glyph unicode="&#x22;" horiz-adv-x="394" d="M30 505q26 66 31.5 103.5t-2.5 91.5l132 14q1 -22 -5.5 -51t-21 -61.5t-45.5 -61t-72 -40.5zM204 505q26 66 31.5 103.5t-2.5 91.5l131 14q2 -22 -4.5 -51t-21.5 -61.5t-45.5 -61t-71.5 -40.5z" />
<glyph unicode="#" d="M20 217v60h118l28 160h-102v60h113l35 203h62l-35 -203h138l35 203h62l-35 -203h107v-60h-118l-28 -160h102v-60h-113l-38 -217h-62l38 217h-138l-38 -217h-62l38 217h-107zM200 277h138l28 160h-138z" />
<glyph unicode="$" horiz-adv-x="615" d="M44 51q-15 38 -4.5 97t36.5 92h9q-5 -76 48 -135.5t144 -67.5l17 227l-120 56q-69 31 -100.5 87t-22.5 128q10 87 71 133t162 46q17 0 44 -1l6 75l48 -1l-6 -77q42 -3 77 -6h78l-22 -163h-10q0 24 -8.5 44.5t-24.5 36.5t-40 26t-53 14l-16 -205l123 -57q125 -57 115 -194 q-7 -99 -78 -155t-196 -64l-7 -89l-48 3l7 85q-81 1 -141.5 19t-87.5 46zM204 580q-3 -32 20 -52.5t69 -40.5l17 -9l14 186q-35 -2 -62 -13.5t-41.5 -29.5t-16.5 -41zM325 37q57 5 87.5 32.5t30.5 65.5q0 30 -24 56t-78 52z" />
<glyph unicode="%" horiz-adv-x="777" d="M23 547q12 79 66.5 123t139.5 44h1q36 0 64 -7t42.5 -15.5t34 -17t38.5 -9.5q16 -1 31.5 1.5t31 8t26 10.5t26 13t20.5 11l39 -17l-372 -711l-45 19l346 653q-63 -41 -149 -11q21 -43 14 -105q-9 -83 -64.5 -129.5t-146.5 -46.5q-80 0 -118 49t-25 137zM161 537 q-9 -64 -3 -100t25 -36q24 1 41.5 36.5t24.5 98.5q8 65 1.5 101.5t-25.5 36.5q-21 0 -38 -36t-26 -101zM384 172q12 79 66.5 123t139.5 44q77 0 116 -47t32 -130t-63 -129.5t-148 -46.5q-80 0 -118 49t-25 137zM516 162q-9 -64 -3.5 -100t24.5 -36q24 0 41.5 35.5t25.5 99.5 q7 65 0.5 101.5t-25.5 36.5q-21 0 -37.5 -36t-25.5 -101z" />
<glyph unicode="&#x26;" horiz-adv-x="911" d="M25 211q0 39 14 72t38 55t50.5 36t56.5 23q-43 69 -43 134q0 50 24 87t64 57t85.5 29.5t95.5 9.5q71 0 131.5 -17.5t83.5 -53.5l-47 -163h-9q-2 184 -116 184q-46 0 -74 -28.5t-28 -72.5q0 -52 40 -100.5t136 -131.5l134 -115q8 29 6.5 64t-8 65t-24.5 50t-43 20h-15v10 h256v-10h-14q-14 0 -21 -7.5t-9 -16t-4 -28.5v-6q-11 -128 -52 -205q132 -115 187 -141l1 -11q-49 -5 -78.5 -7.5t-76 -2.5t-87.5 9.5t-78 27.5q-81 -37 -200 -37q-30 0 -60.5 2t-69 8.5t-72 16.5t-66 27.5t-56 39.5t-38 55t-14.5 72zM238 244q4 -52 26.5 -92.5t56 -64 t70 -35.5t72.5 -12q47 0 85 20q-25 18 -62.5 48.5t-75.5 61.5t-43 35q-75 62 -122 112q-10 -32 -7 -73z" />
<glyph unicode="'" horiz-adv-x="220" d="M30 505q26 66 31.5 103.5t-2.5 91.5l132 14q1 -22 -5.5 -51t-21 -61.5t-45.5 -61t-72 -40.5z" />
<glyph unicode="(" horiz-adv-x="478" d="M90 334q0 80 20.5 147t62.5 120t110.5 87t159.5 44l6 -8q-164 -78 -159 -388q3 -168 42 -271t115 -156l-6 -9q-90 21 -158.5 65t-110 102t-62 125t-20.5 142z" />
<glyph unicode=")" horiz-adv-x="478" d="M30 724l6 8q90 -10 158.5 -44t110.5 -87t63 -120t21 -147q0 -75 -21 -142t-62.5 -125t-110 -102t-157.5 -65l-6 9q75 53 114.5 156t42.5 271q5 310 -159 388z" />
<glyph unicode="*" horiz-adv-x="390" d="M35 604l3 54l30 46l73 -37l50 -53l-35 64l-14 81l53 14l53 -14l-12 -81l-36 -65l50 54l73 38l30 -46l3 -55l-82 -13l-72 14l67 -31l59 -58l-35 -42l-51 -20l-38 73l-9 73l-8 -73l-37 -73l-51 20l-35 42l58 58l66 31l-72 -14z" />
<glyph unicode="+" horiz-adv-x="481" d="M40 277v65h168v169h65v-169h169v-65h-169v-168h-65v168h-168z" />
<glyph unicode="," horiz-adv-x="260" d="M41 -116q14 6 25 18t17 28.5t0.5 38t-24.5 42.5q-27 31 -24 74t33 64q34 25 78.5 12.5t63.5 -53.5q15 -36 15.5 -72t-15.5 -69t-39.5 -56.5t-57 -35t-68.5 -4.5z" />
<glyph unicode="-" horiz-adv-x="380" d="M30 292l10 40h300l10 -40l-10 -41h-300z" />
<glyph unicode="." horiz-adv-x="250" d="M35 76q0 37 26.5 63.5t63.5 26.5t63.5 -26.5t26.5 -63.5t-26.5 -63.5t-63.5 -26.5t-63.5 26.5t-26.5 63.5z" />
<glyph unicode="/" horiz-adv-x="439" d="M10 14l361 709l59 -27l-361 -710z" />
<glyph unicode="0" horiz-adv-x="690" d="M35 350q0 166 82.5 265t227.5 99t227.5 -99t82.5 -265t-82.5 -265t-227.5 -99t-227.5 99t-82.5 265zM245 350q0 -54 2.5 -98t8 -79t13.5 -60.5t19.5 -42.5t25.5 -25.5t31 -8.5q52 0 76 76.5t24 237.5q0 81 -6 140t-18.5 98t-31 57.5t-44.5 18.5q-51 0 -75.5 -76.5 t-24.5 -237.5z" />
<glyph unicode="1" horiz-adv-x="424" d="M30 640v10q60 3 145.5 19.5t132.5 44.5h10v-650q0 -15 7.5 -27.5t20 -19.5t27.5 -7h21v-10h-357l1 10h21q22 0 38.5 16t16.5 38v507q0 37 -17 53t-49 16h-18z" />
<glyph unicode="2" horiz-adv-x="658" d="M30 636q29 25 72.5 43t91.5 26.5t98 8.5q81 0 145.5 -24t102.5 -71t38 -110q0 -31 -10 -61.5t-24.5 -55t-39.5 -51t-44.5 -44t-51.5 -40.5t-49 -34.5t-48 -30.5q-17 -11 -24 -16h190q45 0 78 25.5t59 79.5h10l-68 -281h-520v10q27 33 72.5 87.5t76 90t67.5 85.5 t58.5 88.5t37 83.5t15.5 85q0 32 -9 58t-25.5 43.5t-40.5 26t-53 6.5q-129 -11 -128 -208h-10z" />
<glyph unicode="3" horiz-adv-x="602" d="M30 641q39 32 104.5 51.5t144.5 19.5q120 0 187 -45t67 -127q0 -65 -40.5 -104t-94.5 -41q30 -6 57.5 -19t52.5 -35.5t39.5 -58.5t14.5 -82q0 -85 -51 -149t-127.5 -93t-169.5 -28t-175 38l2 10q82 -2 151.5 26.5t112 84.5t42.5 127q0 44 -16.5 77.5t-44 52.5t-59 28.5 t-65.5 9.5l2 10q70 -2 120 48.5t43 122.5q-5 53 -39.5 77.5t-82.5 19.5q-59 -5 -84.5 -52t-23.5 -142h-10z" />
<glyph unicode="4" horiz-adv-x="643" d="M-15 189v10l516 515h10v-420h43q26 0 40.5 9.5t24.5 30.5h10l-31 -145h-87v-126q0 -22 16 -37.5t39 -15.5h11v-10h-338l1 10h10q23 0 39 15t17 37v127h-321zM154 294h152v147z" />
<glyph unicode="5" horiz-adv-x="591" d="M10 -31l2 10q27 -1 64 5t79.5 20.5t78 36.5t60.5 57.5t28 77.5q3 56 -32 89.5t-94.5 35.5t-136.5 -27l-9 6l83 384l298 25q54 0 79 50h10l-42 -207l-307 -25l-19 -83q129 30 216.5 5.5t132 -86.5t40.5 -149q-3 -60 -30.5 -109.5t-71 -81t-99 -51.5t-113 -23.5t-114.5 6.5 t-103 34z" />
<glyph unicode="6" horiz-adv-x="675" d="M40 315q0 108 32.5 192t96 140.5t163 79.5t227.5 7l4 -7q-43 -13 -78 -27t-62.5 -30.5t-49.5 -32.5t-38 -37t-28 -39.5t-19.5 -44.5t-12 -47.5t-7 -53.5t-3 -57.5t-0.5 -63.5q0 -54 1.5 -90t6.5 -68.5t14.5 -51t24.5 -29t37 -10.5t37 10t23.5 24.5t13.5 39t6 46t1 53.5 q0 79 -13 113.5t-37 44.5q-36 15 -75 -11l-7 8q11 27 36 46t56 26.5t66 6.5t67 -16.5t58 -41t41 -68.5t13 -97q-2 -51 -20 -94t-52.5 -76.5t-90.5 -53t-128 -20.5q-304 -5 -304 330z" />
<glyph unicode="7" horiz-adv-x="572" d="M5 465l28 233h530l-128 -295q-29 -66 -72 -195t-65 -208h-170q49 79 124.5 214t105.5 200l52 111h-320q-29 0 -46 -14.5t-29 -45.5h-10z" />
<glyph unicode="8" horiz-adv-x="636" d="M25 159q0 67 39 107t96 60q-92 72 -92 179q0 97 69 153t177 56q102 0 175 -48t73 -122q0 -51 -37.5 -85.5t-94.5 -48.5q38 -19 59.5 -32t48 -33t40.5 -39t23.5 -46t9.5 -60q0 -103 -84 -158.5t-229 -55.5q-40 0 -76.5 4.5t-73.5 16t-63 30.5t-43 50.5t-17 71.5zM194 189 q0 -69 29.5 -108.5t82.5 -44.5q49 -5 85 20t36 64q0 34 -34 65t-124 77q-40 20 -52 27q-23 -41 -23 -100zM233 579q0 -40 28 -67t111 -71q27 50 24 120q-2 43 -23.5 71.5t-61.5 30.5q-36 2 -57 -22t-21 -62z" />
<glyph unicode="9" horiz-adv-x="675" d="M40 467q1 41 12.5 76.5t34.5 66t56.5 52.5t81.5 35t106 14q304 5 304 -330q0 -108 -32.5 -192t-96 -140t-163 -79t-227.5 -8l-4 7q43 13 78 27t62.5 30.5t49.5 32.5t38 37t28 39.5t19.5 44.5t12 47.5t7 53.5t3 57.5t0.5 63.5q0 68 -3 110t-12 75.5t-26 48t-44 14.5 q-22 0 -37 -9.5t-23.5 -24t-13 -39t-5.5 -46t-1 -53.5q0 -79 13 -113.5t37 -44.5q36 -15 75 11l7 -8q-11 -27 -36 -46t-56.5 -26.5t-66 -6.5t-66.5 16.5t-58 41t-41 68.5t-13 97z" />
<glyph unicode=":" horiz-adv-x="250" d="M35 76q0 37 26.5 63.5t63.5 26.5t63.5 -26.5t26.5 -63.5t-26.5 -63.5t-63.5 -26.5t-63.5 26.5t-26.5 63.5zM35 458.5q0 37.5 26.5 64t63.5 26.5t63.5 -26.5t26.5 -64t-26.5 -63.5t-63.5 -26t-63.5 26t-26.5 63.5z" />
<glyph unicode=";" horiz-adv-x="260" d="M35 487.5q0 37.5 26.5 63.5t63.5 26t63.5 -26t26.5 -63.5t-26.5 -64t-63.5 -26.5t-63.5 26.5t-26.5 64zM41 -116q14 6 25 18t17 28.5t0.5 38t-24.5 42.5q-27 31 -24 74t33 64q34 25 78.5 12.5t63.5 -53.5q15 -36 15.5 -72t-15.5 -69t-39.5 -56.5t-57 -35t-68.5 -4.5z" />
<glyph unicode="&#x3c;" horiz-adv-x="501" d="M40 280v59l402 187v-71l-309 -145l309 -146v-71z" />
<glyph unicode="=" horiz-adv-x="481" d="M40 179v65h402v-65h-402zM40 354v65h402v-65h-402z" />
<glyph unicode="&#x3e;" horiz-adv-x="481" d="M40 93v71l309 146l-309 145v71l402 -187v-59z" />
<glyph unicode="?" horiz-adv-x="493" d="M0 625q23 40 81.5 64.5t139.5 24.5q117 0 179.5 -46t62.5 -131q0 -58 -32.5 -99t-114.5 -101q-17 -12 -24.5 -18t-19 -18.5t-14.5 -22.5t-2.5 -25t9.5 -32l-9 -6q-30 8 -53 23.5t-36.5 42t-10.5 58.5q2 22 13 40.5t24 32.5t26 30t21.5 42.5t7.5 61.5q-2 118 -91 118 q-97 0 -97 -154h-10zM135 76q0 37 26.5 63.5t64.5 26.5q37 0 63 -26.5t26 -63.5t-26 -63.5t-63 -26.5q-38 0 -64.5 26.5t-26.5 63.5z" />
<glyph unicode="@" horiz-adv-x="998" d="M47 395q41 100 130 173t208 105t246 15q172 -24 259.5 -125t83.5 -249q-4 -158 -101 -275.5t-266 -154t-399 52.5l-4 10q126 -52 235 -43t191.5 62.5t132 146t56.5 208.5q7 130 -43 214t-151 107q-43 8 -87.5 7t-92 -19t-90.5 -47.5t-83 -79.5t-70 -113 q-19 -38 -31.5 -77t-17 -73.5t-2 -61.5t16.5 -43t37 -17q13 -1 26.5 4t25.5 13t24.5 20t23.5 24.5t22.5 28t21 29t21 29t19.5 25.5l127 173q46 57 55 77h6l84 -404q9 -47 40 -47h5l-2 -7h-238l1 7h7q15 0 30 13.5t11 33.5l-8 53h-136q-24 -32 -43.5 -52.5t-39.5 -35 t-40 -21.5t-43 -8q-69 -4 -119.5 39.5t-62.5 116t24 166.5zM398 225h104l-19 121z" />
<glyph unicode="A" horiz-adv-x="720" d="M-40 0v10h9q23 0 45.5 13.5t37.5 40.5l233 511q53 112 57 149h9l317 -659q32 -55 84 -55h8v-10h-379v10h9q22 0 36 17.5t3 45.5l-39 93h-214l-40 -93q-9 -20 -3.5 -34t17 -21.5t24.5 -7.5h9v-10h-223zM198 216h171l-84 200z" />
<glyph unicode="B" horiz-adv-x="731" d="M30 0v10h13q17 0 31.5 8.5t23 22.5t9.5 31v556q-1 17 -9.5 31.5t-23 22.5t-31.5 8h-13v10h348q278 0 278 -174q0 -35 -11 -63t-29.5 -45t-41.5 -26.5t-49 -10.5q77 -4 129.5 -52.5t52.5 -128.5q0 -100 -85 -150t-228 -50h-364zM312 52h13q66 -1 106.5 38.5t40.5 124.5 q0 74 -32 114.5t-94 40.5v9q31 0 52.5 15.5t32 44.5t10.5 71q0 140 -116 140h-13v-598z" />
<glyph unicode="C" horiz-adv-x="793" d="M35 351q0 113 52 195t150.5 125t235.5 43q149 0 257 -46l-10 -191h-9q-29 101 -84 144t-137 43q-111 0 -173 -82t-62 -228q0 -147 57.5 -231t159.5 -87q49 0 84.5 8.5t62 26t45.5 49t32.5 72t24.5 100.5h8l24 -182q-74 -124 -281 -124q-204 1 -320.5 96.5t-116.5 268.5z " />
<glyph unicode="D" horiz-adv-x="842" d="M30 0v10h13q26 0 44.5 18.5t19.5 44.5v560q0 24 -19.5 40.5t-44.5 16.5h-12l-1 10h379q188 0 293.5 -92.5t105.5 -257.5t-105.5 -257.5t-293.5 -92.5h-379zM312 50h77q93 0 146 79.5t53 220.5t-53 220.5t-146 79.5h-77v-600z" />
<glyph unicode="E" horiz-adv-x="667" d="M30 0v10h13q26 0 44.5 18.5t19.5 44.5v554q-1 26 -19.5 44.5t-44.5 18.5h-13v10h443q31 0 67.5 6t51.5 12v-206h-10v8q0 39 -15 67.5t-43 44.5t-67 17h-145v-279h109q48 1 78 31.5t30 78.5v4h10v-278h-10v5q0 47 -30 77.5t-77 31.5h-110v-269h123q48 0 89.5 21t72.5 62 t46 98h10l-38 -232h-585z" />
<glyph unicode="F" horiz-adv-x="631" d="M30 0v10h13q26 0 44.5 18.5t19.5 44.5v554q-1 18 -9.5 32t-23 22.5t-31.5 8.5h-13v10h443q20 0 45 3t44.5 7t29.5 8v-206h-10v8q0 39 -15 67.5t-43 44.5t-67 17h-145v-279h109q48 1 78 31.5t30 77.5v5h10v-278h-10v5q0 47 -30 77.5t-77 31.5h-110v-247q0 -26 19 -44.5 t45 -18.5h13v-10h-359z" />
<glyph unicode="G" horiz-adv-x="861" d="M35 352q0 170 106 266t294 96q81 0 167 -13.5t131 -32.5l-10 -191h-9q-52 187 -229 187q-230 0 -230 -322q0 -146 47.5 -226t144.5 -80q53 0 92.5 28.5t39.5 78.5l1 137q0 22 -13.5 33.5t-37.5 11.5h-16v10h336v-10h-15q-25 0 -38 -11.5t-12 -33.5v-165 q-25 -32 -76 -60.5t-127 -48.5t-156 -20q-179 0 -284.5 97.5t-105.5 268.5z" />
<glyph unicode="H" horiz-adv-x="893" d="M30 0v10h13q26 0 44.5 18.5t19.5 44.5v555q-1 17 -9.5 31t-23 22.5t-31.5 8.5h-13v10h359v-10h-13q-26 0 -44.5 -18t-19.5 -44v-253h269v253q-1 26 -19.5 44t-44.5 18h-13v10h359v-10h-13q-26 0 -44.5 -18.5t-19.5 -44.5v-554q1 -26 19.5 -44.5t44.5 -18.5h13v-10h-359 v10h13q26 0 44.5 18t19.5 44v253h-269v-252q0 -17 8.5 -31.5t23.5 -23t32 -8.5h13v-10h-359z" />
<glyph unicode="I" horiz-adv-x="418" d="M30 0v10h13q26 0 44.5 18.5t19.5 44.5v555q-1 26 -19.5 44t-44.5 18h-13v10h359v-10h-13q-26 0 -44.5 -18t-19.5 -44v-555q0 -17 8.5 -31.5t23.5 -23t32 -8.5h13v-10h-359z" />
<glyph unicode="J" horiz-adv-x="424" d="M-5 -191q117 53 117 244v574q-1 26 -19.5 44.5t-44.5 18.5h-13v10h359v-10h-13q-26 0 -44.5 -18.5t-19.5 -44.5v-577q0 -82 -46.5 -144t-120 -89.5t-155.5 -16.5v9z" />
<glyph unicode="K" horiz-adv-x="822" d="M30 0v10h13q26 0 44.5 18.5t19.5 44.5v555q-1 26 -19.5 44t-44.5 18h-13v10h359v-10h-13q-26 0 -44.5 -18t-19.5 -44v-555q0 -26 19 -44.5t45 -18.5h13v-10h-359zM344 318l239 326q12 17 4.5 32t-28.5 15h-10v9h241v-9h-4q-67 0 -110 -49l-169 -204l234 -352 q49 -74 107 -76v-10h-108h-20.5t-47.5 5t-65.5 14t-66 30t-57.5 51q-14 19 -48.5 73t-62.5 99t-28 46z" />
<glyph unicode="L" horiz-adv-x="652" d="M30 0v10h13q26 0 44.5 18.5t19.5 44.5v554q0 17 -9 31.5t-23.5 23t-31.5 8.5h-13v10h359v-10h-13q-26 0 -45 -18.5t-19 -44.5v-576h123q73 0 129 48t79 133h10l-38 -232h-585z" />
<glyph unicode="M" horiz-adv-x="968" d="M-25 0v10h16q28 0 48.5 17t24.5 46l88 641h9l336 -459l308 459h9l91 -641q3 -20 13.5 -34t26 -21.5t33.5 -7.5h16v-10h-355v9h16q16 0 27.5 13.5t11.5 29.5l-38 292l-170 -252q-5 -7 -12.5 -19t-19 -42.5t-10.5 -54.5h-9l-260 359l-35 -283q0 -16 11.5 -29.5t27.5 -13.5 h16v-9h-220z" />
<glyph unicode="N" horiz-adv-x="881" d="M20 0v10h19q25 0 43 17.5t18 43.5v519q0 35 -3 66t-7 45l-3 14h10q92 -82 263 -234l216 -192v340q-1 26 -19 43.5t-43 17.5h-19v10h366v-10h-18q-25 0 -43 -17.5t-19 -42.5v-516q0 -37 3.5 -69t6.5 -45l3 -14h-9l-479 426v-341q0 -17 8.5 -31t22.5 -22t30 -8h19v-10h-366 z" />
<glyph unicode="O" horiz-adv-x="905" d="M35 350q0 171 110.5 267.5t304.5 96.5t305 -96.5t111 -267.5t-111 -267.5t-305 -96.5t-304.5 96.5t-110.5 267.5zM256 350q0 -148 51.5 -231t143 -83t143 83t51.5 231t-51.5 231t-143 83t-143 -83t-51.5 -231z" />
<glyph unicode="P" horiz-adv-x="707" d="M35 0v10h13q26 0 44.5 18.5t19.5 44.5v560q-3 24 -21 40.5t-43 16.5h-12l-1 10h381q49 0 89 -7t69.5 -20t52 -30t36 -38.5t21 -45t8.5 -50.5q3 -54 -16.5 -100t-55 -75t-79.5 -42.5t-94.5 -4t-95.5 41.5v10l5 1q5 0 13.5 2.5t19.5 7t23 13.5t23 20.5t20.5 31t15.5 42.5 q8 31 6 60q-2 62 -35 97.5t-90 35.5h-35v-577q1 -26 19.5 -44.5t44.5 -18.5h13v-10h-359z" />
<glyph unicode="Q" horiz-adv-x="912" d="M40 350q0 171 110.5 267.5t304.5 96.5t305 -96.5t111 -267.5q0 -85 -28.5 -153t-82.5 -115t-131 -71q47 -8 93.5 -20.5t81.5 -24.5t117 -42q286 -104 448 12l7 -3q0 -64 -27.5 -115.5t-79 -81.5t-118.5 -39t-152.5 10.5t-174.5 68.5q-51 28 -109 69t-94 69t-81 49.5 t-87 22.5q-193 1 -303 97t-110 267zM261 350q0 -148 51.5 -231t143 -83t143 83t51.5 231t-51.5 231t-143 83t-143 -83t-51.5 -231z" />
<glyph unicode="R" horiz-adv-x="793" d="M35 700h391q39 0 74 -4.5t71 -17.5t62 -33.5t42 -55t16 -78.5q0 -31 -8 -59.5t-25 -56.5t-49.5 -47.5t-77.5 -26.5q39 -11 70.5 -38.5t51.5 -61.5q1 -1 10.5 -17.5t20 -34.5t26 -42t28.5 -41q23 -31 40 -47t34 -22t42 -7v-10h-125q-41 0 -69.5 2t-61 8.5t-56 18.5 t-46.5 33.5t-41 51.5q-16 27 -25.5 56t-16 61t-10.5 44q-5 17 -11 29.5t-13 19.5t-13.5 11t-14.5 7v10h16q28 0 49.5 12.5t37 40.5t20.5 70q3 29 2 41q-7 132 -114 132h-44v-575q0 -26 19 -44.5t45 -18.5h12v-10h-359v10h13q26 0 44.5 18t19.5 44v555q0 17 -9 31.5t-23.5 23 t-31.5 8.5h-13v10z" />
<glyph unicode="S" horiz-adv-x="645" d="M54 51q-15 38 -4.5 97t36.5 92h9q-6 -82 55 -143t162 -61q68 0 104.5 28.5t36.5 69.5q0 32 -25 58t-81 52l-163 76q-69 31 -100.5 87t-22.5 128q10 87 71 133t162 46q66 0 169 -10h78l-22 -163h-10q0 55 -43 89t-116 34q-60 0 -96.5 -23t-39.5 -61q-1 -14 3.5 -26 t11.5 -21t20 -18t24.5 -15t29.5 -13l187 -87q125 -57 115 -194q-7 -107 -89 -163.5t-225 -56.5q-83 0 -146 18.5t-91 46.5z" />
<glyph unicode="T" horiz-adv-x="698" d="M10 513v206q14 -6 50.5 -12t67.5 -6h443q31 0 67 6t51 12v-206l-10 1v7q0 40 -15.5 69t-44.5 44.5t-69 16.5h-98v-579q1 -26 19.5 -44t44.5 -18h13v-10h-359v10h13q26 0 44.5 18t19.5 43v580h-99q-60 -1 -94 -35.5t-34 -94.5v-7z" />
<glyph unicode="U" horiz-adv-x="845" d="M30 690v10h343v-10h-16q-22 0 -37 -13.5t-16 -34.5v-382q0 -105 48 -164t134 -59t134.5 55.5t48.5 154.5v395q-1 21 -16 34.5t-37 13.5h-16v10h225v-10h-16q-21 0 -36.5 -13.5t-16.5 -33.5v-386q0 -127 -78.5 -199t-221.5 -72q-179 0 -268 70t-89 200v384q0 22 -15.5 36 t-37.5 14h-16z" />
<glyph unicode="V" horiz-adv-x="720" d="M-40 690v10h379v-10h-9q-21 0 -34.5 -17.5t-3.5 -45.5l143 -343l149 343q12 28 -2 45.5t-36 17.5h-9v10h223v-10h-9q-8 0 -17 -2t-18 -6t-17 -10.5t-16 -15.5t-15 -20l-233 -511q-53 -112 -57 -149h-9l-317 659q-31 55 -84 55h-8z" />
<glyph unicode="W" horiz-adv-x="964" d="M-50 690v10h359v-10h-9q-13 0 -24 -7t-15.5 -21t2.5 -34l109 -272l173 360l9 -1l199 -368l80 281q5 20 0.5 34t-14.5 21t-24 7h-9v10h218v-10h-8q-25 0 -50 -14.5t-36 -42.5l-170 -544q-2 -7 -5 -18.5t-7.5 -41t-1.5 -51.5h-10l-231 435l-158 -324q-26 -56 -27 -111h-9 l-247 655q-14 29 -37.5 43t-48.5 14h-8z" />
<glyph unicode="X" horiz-adv-x="773" d="M-33 0v10h14q54 0 99 57l199 272l-191 293q-17 24 -44 41t-57 17h-14v10h402v-10h-12q-22 0 -34.5 -20.5t-0.5 -41.5l117 -177l113 177q13 21 0 41.5t-35 20.5h-12l-1 10h259v-10h-14q-29 0 -55 -16.5t-44 -41.5l-167 -249l206 -315q16 -24 43.5 -41t57.5 -17h14v-10 h-404v10h13q21 0 33.5 20.5t0.5 41.5l-132 201l-142 -201q-14 -20 0 -41t35 -21h13v-10h-260z" />
<glyph unicode="Y" horiz-adv-x="729" d="M-45 690v10h386v-10h-12q-22 0 -34 -20.5t-1 -41.5l137 -247l142 247q12 21 -1 41.5t-34 20.5h-12v10h249v-10h-14q-30 0 -57.5 -17t-43.5 -42l-196 -309v-249q0 -26 18.5 -44.5t45.5 -18.5h12v-10h-358v10h13q26 0 44.5 18t19.5 44v250l-191 311q-7 11 -17.5 21.5 t-23.5 18.5t-28 12.5t-30 4.5h-14z" />
<glyph unicode="Z" horiz-adv-x="668" d="M35 0v9l332 642h-180q-60 -1 -94 -35.5t-34 -94.5v-8h-10v206q15 -6 52.5 -12t68.5 -6h345q19 0 42 2t40.5 5t23.5 6v-9l-336 -655h141q73 0 129 48.5t79 133.5h10l-38 -232h-571z" />
<glyph unicode="[" horiz-adv-x="472" d="M120 -90v812h309v-10l-104 -50v-692l107 -50v-10h-312z" />
<glyph unicode="\" horiz-adv-x="439" d="M10 696l59 27l361 -709l-59 -28z" />
<glyph unicode="]" horiz-adv-x="472" d="M40 -80l107 50v692l-104 50v10h309v-812h-312v10z" />
<glyph unicode="^" horiz-adv-x="572" d="M35 172l218 209h68l217 -209h-89l-162 153l-163 -153h-89z" />
<glyph unicode="_" horiz-adv-x="500" d="M0 -60h500v-50h-500v50z" />
<glyph unicode="`" d="M54 836q21 73 85 100q43 -37 89.5 -89.5t65.5 -96.5l-7 -7q-53 6 -118 33t-115 60z" />
<glyph unicode="a" horiz-adv-x="632" d="M-42 0v10h8q21 0 42.5 12t33.5 37l206 444q49 107 52 133h8l282 -575q26 -51 78 -51h8v-10h-352v10h8q20 0 32 14t2 37l-29 66h-185l-30 -69q-9 -22 3 -35t32 -13h7v-10h-206zM171 172h146l-73 168z" />
<glyph unicode="b" horiz-adv-x="626" d="M23 0v10h11q22 0 37 15t15 37v476q0 22 -15 37t-37 15h-11v10h311q51 0 91 -6.5t74.5 -22.5t53 -46.5t18.5 -73.5q0 -60 -32 -92.5t-78 -31.5q63 -2 106.5 -43t43.5 -111q0 -88 -73 -130.5t-197 -42.5h-318zM278 46q50 2 81 35.5t31 105.5q0 62 -19 96t-65 34v8 q37 0 50.5 28t13.5 82q0 120 -89 120h-3v-509z" />
<glyph unicode="c" horiz-adv-x="668" d="M23 301q0 147 100 229t281 82q127 0 218 -36l-13 -170h-7q-26 88 -70.5 124.5t-110.5 36.5q-99 0 -146.5 -70.5t-47.5 -192.5q0 -81 20.5 -141t60.5 -94t96 -36q52 0 84.5 10.5t55 38.5t35.5 65t27 103h7l26 -160q-60 -102 -235 -102q-179 1 -280 82t-101 231z" />
<glyph unicode="d" horiz-adv-x="741" d="M18 590v10h341q170 0 264 -79t94 -221.5t-94 -221t-264 -78.5h-340v10h12q23 0 39.5 16t16.5 38v475q-2 22 -18 36.5t-39 14.5h-12zM283 46h57q80 0 126 67t46 187t-45.5 187.5t-126.5 67.5h-57v-509z" />
<glyph unicode="e" horiz-adv-x="575" d="M21 0v10h11q10 0 19.5 4t16.5 11t11.5 16.5t4.5 20.5v475q0 23 -15.5 38t-36.5 15h-11v10h390q25 0 56 5t43 10v-189h-10v5q0 58 -30.5 90t-86.5 33h-103v-235h77q44 1 71.5 29.5t27.5 73.5v2h10v-258h-10v4q0 44 -27.5 73t-71.5 29h-77v-226h96q60 0 109 44t67 120h9 l-28 -210h-512z" />
<glyph unicode="f" horiz-adv-x="542" d="M21 0v10h11q21 0 36.5 15t15.5 37v475q0 23 -15.5 38t-36.5 15h-11v10h390q25 0 56 5t43 10v-191h-10v6q0 38 -13.5 65.5t-40.5 42.5t-65 16h-101v-235h76q45 1 72.5 29.5t27.5 73.5v2h10v-258h-10v4q0 44 -27.5 73t-72.5 29h-76v-210q0 -14 7.5 -26.5t19 -19t26.5 -6.5 h10v-10h-322z" />
<glyph unicode="g" horiz-adv-x="723" d="M24 302q0 146 89.5 228t251.5 82q68 0 144 -10.5t113 -25.5l-14 -170h-7q-45 161 -185 161q-97 0 -142.5 -69.5t-45.5 -205.5q0 -259 149 -259q41 0 70.5 25.5t22.5 69.5v112q0 19 -11 29.5t-31 10.5h-14v8h305v-8h-12q-43 0 -43 -40v-142q-31 -42 -120 -76t-189.5 -34 t-174.5 37t-115 108t-41 169z" />
<glyph unicode="h" horiz-adv-x="754" d="M21 0v10h11q21 0 36.5 15t15.5 37v476q0 22 -15.5 37t-36.5 15h-11v10h322v-10h-10q-22 0 -37 -15t-16 -37v-214h195v214q-1 22 -16 37t-37 15h-10v10h322v-10h-11q-14 0 -26 -6.5t-19.5 -18.5t-7.5 -27v-476q0 -15 7 -27t19 -18.5t26 -6.5h11v-10h-321v10h10q22 0 37 15 t16 37v216h-195v-216q1 -22 16 -37t37 -15h10v-10h-322z" />
<glyph unicode="i" horiz-adv-x="363" d="M21 0v10h11q21 0 36 15t15 37v476q0 22 -15 37t-36 15h-11v10h320v-10h-10q-14 0 -25.5 -6.5t-18.5 -18.5t-8 -27v-476q1 -22 16 -37t36 -15h11v-10h-321z" />
<glyph unicode="j" horiz-adv-x="361" d="M-13 -163q31 15 50.5 38.5t28.5 55t11.5 58.5t2.5 65v481q0 23 -16 39t-38 16h-10l-1 10h326v-10h-11q-21 0 -36.5 -15.5t-17.5 -37.5v-486q0 -75 -42.5 -130.5t-108 -79t-138.5 -13.5v9z" />
<glyph unicode="k" horiz-adv-x="705" d="M22 601h323v-10h-10q-22 0 -37.5 -15t-15.5 -38v-476q0 -22 15.5 -37t37.5 -15h10v-10h-322v10h10q22 0 37 15t16 37v477q-1 22 -16.5 37t-36.5 15h-11v10zM307 268l199 284q11 15 4.5 27.5t-23.5 12.5h-8v8h204v-8h-4q-52 0 -87 -37l-134 -168l189 -309 q21 -34 43.5 -51.5t47.5 -18.5v-8h-103h-17.5t-43 4t-59.5 12t-59.5 27.5t-51.5 46.5q-14 19 -38 63.5t-41.5 79t-17.5 35.5z" />
<glyph unicode="l" horiz-adv-x="557" d="M21 0v10h11q21 0 36.5 15t15.5 37v476q0 22 -15.5 37t-36.5 15h-11v10h323v-10h-11q-11 0 -20.5 -4t-16.5 -11t-11.5 -16.5t-4.5 -20.5v-492h96q60 0 108.5 44t67.5 120h10l-29 -210h-512z" />
<glyph unicode="m" horiz-adv-x="854" d="M-19 0v10h13q25 0 43 13.5t21 38.5l78 550h8l298 -375l267 375h9l80 -555q6 -22 22.5 -34.5t38.5 -12.5h14v-10h-324v10h14q18 0 26 12.5t7 25.5l-33 224l-138 -193q-5 -6 -11.5 -16.5t-16.5 -37t-9 -47.5h-8l-225 280l-27 -210q0 -5 1.5 -11t5 -12t10.5 -10.5t16 -4.5 h14v-10h-194z" />
<glyph unicode="n" horiz-adv-x="779" d="M12 0v10h16q23 0 39 14.5t16 35.5v447q0 30 -3 56.5t-6 38.5l-3 11h9l419 -354v281q0 21 -15.5 35.5t-38.5 14.5h-17v10h340v-10h-17q-23 0 -39 -14t-16 -35v-444q0 -33 3 -60t6 -38l3 -11h-9l-420 353v-281q1 -21 16.5 -35.5t38.5 -14.5h16v-10h-338z" />
<glyph unicode="o" horiz-adv-x="779" d="M25 299q0 149 96.5 231t267.5 82q172 0 268.5 -82t96.5 -231q0 -147 -96.5 -229t-268.5 -82q-171 0 -267.5 82t-96.5 229zM229 299q0 -127 41 -196.5t119 -69.5t119 69.5t41 196.5q0 85 -18 144.5t-54 91.5t-88 32q-78 0 -119 -69.5t-41 -198.5z" />
<glyph unicode="p" horiz-adv-x="607" d="M21 590v10h336q51 0 91 -9t65.5 -23.5t43 -36t25.5 -44t10 -49.5q3 -47 -13 -88.5t-46 -66.5t-67 -37t-79.5 -3t-79.5 39v8q2 0 6 1t15 7.5t20.5 16.5t19.5 30t15 46q13 67 -11.5 115.5t-79.5 48.5h-12v-493q1 -23 15 -37.5t37 -14.5h10v-10h-320v10h11q21 0 36 15t15 37 v477q-1 22 -16 36.5t-36 14.5h-11z" />
<glyph unicode="q" horiz-adv-x="760" d="M25 299q0 149 93.5 231t260.5 82q168 0 261.5 -82t93.5 -231q0 -71 -23 -128t-66 -97t-106 -62q40 -5 77 -15t63 -19t95 -34q85 -32 154 -40t118.5 3.5t91.5 41.5l6 -3q1 -52 -15 -94t-46 -70t-74 -42t-95 -12.5t-112.5 20.5t-124.5 56q-38 22 -75.5 50t-63 50t-51.5 42 t-52.5 31t-53.5 11h-3q-167 0 -260 82t-93 229zM230 299q0 -128 38 -197t111 -69q74 0 112 69t38 197q0 64 -9.5 113.5t-28 84t-47 52.5t-65.5 18q-73 0 -111 -69.5t-38 -198.5z" />
<glyph unicode="r" horiz-adv-x="678" d="M32 0v10h11q21 0 36 15t15 37v476q0 22 -14.5 37t-35.5 15h-12v10h344q228 0 228 -165q0 -25 -5.5 -48.5t-19 -47t-40 -40.5t-63.5 -24q35 -9 64.5 -35.5t44.5 -53.5q4 -7 14.5 -28t22.5 -42.5t26 -42.5q27 -41 44.5 -52t44.5 -11v-10h-118q-33 0 -50 0.5t-41 3.5 t-38.5 9.5t-31.5 17.5t-31.5 28t-28.5 42q-20 34 -29 62.5t-18 73.5q-10 45 -33 57v8h5q28 0 49 25.5t27 83.5q0 1 0.5 6t0.5 10.5v15.5q-2 32 -12 55t-20 33t-26 15.5t-20 5.5h-11h-20v-490q0 -25 16.5 -38.5t36.5 -13.5h9v-10h-321z" />
<glyph unicode="s" horiz-adv-x="549" d="M49 45q-15 36 -4.5 88.5t34.5 82.5h6q-3 -73 46.5 -127t134.5 -55q52 0 78.5 23t26.5 55q0 28 -23.5 51t-76.5 46l-105 49q-64 27 -94 79t-21 120q11 77 59.5 116t130.5 39q56 0 151 -9h67l-24 -146h-6q0 49 -35.5 78.5t-94.5 29.5q-46 0 -72.5 -17.5t-30.5 -48.5 q-1 -16 4 -28.5t19.5 -22t25.5 -15t33 -14.5l129 -59q53 -23 82.5 -67.5t23.5 -110.5q-8 -96 -78 -145t-194 -49q-74 0 -123.5 16.5t-68.5 40.5z" />
<glyph unicode="t" horiz-adv-x="613" d="M7 428v188q13 -5 44 -10t56 -5h399q26 0 59 5t41 10v-188h-10v5q0 38 -13.5 65t-40 41.5t-64.5 14.5h-74v-492q0 -22 15.5 -37t37.5 -15h10v-10h-321v10h10q21 0 36.5 15t15.5 37v492h-73q-28 0 -50.5 -8.5t-37 -24t-22.5 -38t-8 -50.5v-5h-10z" />
<glyph unicode="u" horiz-adv-x="708" d="M19 592v8h310v-8h-14q-18 0 -30.5 -12t-12.5 -31v-326q0 -59 17 -101t50 -64t79 -22q68 0 105 46t38 130v337q-1 19 -13.5 31t-30.5 12h-13v8h193v-8h-13q-18 0 -31 -12.5t-13 -30.5v-326q0 -111 -66 -173t-188 -62q-310 0 -310 233v328q0 9 -3.5 17t-9.5 14t-14 9t-17 3 h-13z" />
<glyph unicode="v" horiz-adv-x="620" d="M-42 590v10h351v-9h-8q-19 0 -31 -14.5t-3 -38.5l116 -257l116 257q11 24 -1 38.5t-32 14.5h-8v9h205v-10h-8q-49 0 -74 -46l-202 -422q-49 -104 -52 -134h-8l-281 557q-26 45 -73 45h-7z" />
<glyph unicode="w" horiz-adv-x="851" d="M-32 590v10h329v-10h-9q-17 0 -28 -13t-5 -34l92 -208l145 278h7l172 -288l62 214q5 24 -5 37.5t-29 13.5h-7v10h191v-10h-7q-13 0 -26 -4t-26 -13.5t-20 -23.5l-147 -462q-2 -5 -4.5 -14.5t-6.5 -35.5t-2 -47h-8l-206 348l-134 -254q-24 -47 -24 -94h-8l-216 552 q-11 25 -31.5 36.5t-41.5 11.5h-7z" />
<glyph unicode="x" horiz-adv-x="666" d="M-24 0v10h12q44 0 79 42l171 229l-163 268q-13 18 -35 30.5t-45 12.5h-11v10h355v-10h-10q-9 0 -16.5 -4.5t-12 -12t-5.5 -16t5 -17.5l92 -151l97 151q10 17 0 33.5t-28 16.5h-10v10h216v-10h-12q-15 0 -31 -6t-28 -16t-21 -22l-145 -218l168 -275q13 -19 35 -32t47 -13 h11v-10h-357v10h10q18 0 28.5 16.5t0.5 33.5l-98 161l-116 -161q-12 -18 -1.5 -34t29.5 -16h10v-10h-221z" />
<glyph unicode="y" horiz-adv-x="633" d="M-48 590v10h350v-10h-10q-19 0 -29.5 -17t-0.5 -34l124 -210l121 210q10 17 -1 34t-29 17h-11v10h218v-10h-13q-26 0 -48.5 -13.5t-36.5 -33.5l-169 -264v-217q1 -22 16.5 -37t38.5 -15h11v-10h-328v10h12q22 0 38 15t16 37v216l-172 265q-14 20 -37 33.5t-48 13.5h-12z " />
<glyph unicode="z" horiz-adv-x="606" d="M25 0v8l301 547h-158q-57 0 -88.5 -32.5t-31.5 -90.5v-4h-10v188q12 -5 45.5 -10t60.5 -5h338q17 0 37.5 1.5t36.5 4t21 5.5v-7l-290 -560h108q68 0 120 44t73 121h10l-36 -210h-537z" />
<glyph unicode="{" horiz-adv-x="407" d="M85 314v10q35 1 43 16q4 10 -1.5 39.5t-14 70.5t-8.5 71q0 43 16.5 80.5t49 67.5t88 47t128.5 17l2 -8q-17 -5 -30 -12t-21.5 -14t-14 -20.5t-8.5 -22t-4 -27t-1.5 -28t0 -32.5t0.5 -33q0 -30 -2 -54.5t-5 -43.5t-9 -34t-10.5 -25.5t-14 -19t-16 -13.5t-18.5 -10 t-19.5 -7t-22 -6t-21.5 -7q21 -6 32 -9.5t28 -12t26.5 -17t21 -24t17 -34.5t9.5 -46.5t4 -62.5q0 -19 -2 -46t-3.5 -44.5t0 -37.5t7.5 -33t20 -24t37 -17l-2 -8q-72 0 -125 17t-81.5 47.5t-42 66t-13.5 78.5q0 38 13.5 103t7.5 80q-7 19 -40 22z" />
<glyph unicode="|" horiz-adv-x="265" d="M100 -180v880h65v-880h-65z" />
<glyph unicode="}" horiz-adv-x="407" d="M20 725l2 8q72 0 127.5 -17t88.5 -47t49.5 -67.5t16.5 -80.5q0 -30 -8.5 -71t-14 -70.5t-1.5 -39.5q7 -15 43 -16v-10q-33 -3 -40 -22q-6 -15 7.5 -80t13.5 -103q0 -43 -13.5 -78.5t-42.5 -66t-81.5 -47.5t-124.5 -17l-2 8q23 6 37 17t20 24t7.5 33t0 37.5t-4 44.5 t-2.5 46q0 35 4 62.5t10 46.5t17.5 34.5t20.5 24t26.5 17t28.5 12t32 9.5q-8 3 -22.5 7t-21.5 6t-19.5 7t-18.5 10t-15.5 13.5t-14.5 19t-11 25.5t-9 34t-5 43.5t-2 54.5q0 10 0.5 33t0.5 32.5t-1.5 28t-4 27t-8.5 22t-14.5 20.5t-21 14t-29.5 12z" />
<glyph unicode="~" horiz-adv-x="494" d="M32 209q-16 73 18 115.5t90 43.5q25 0 57 -15t56.5 -33.5t51 -34.5t41.5 -16q33 -1 49 23.5t-2 70.5h68q10 -41 4.5 -71t-24 -49.5t-43.5 -29t-52 -9.5q-21 0 -44.5 10t-45 24t-41.5 28.5t-40 25t-35 11.5q-28 1 -41 -22t-2 -72h-65z" />
<glyph unicode="&#xa1;" horiz-adv-x="295" d="M45 0l23 339l45 133h70l45 -133l22 -339h-205zM60 625.5q0 37.5 26 64t63.5 26.5t64 -26.5t26.5 -64t-26.5 -63.5t-64 -26t-63.5 26t-26 63.5z" />
<glyph unicode="&#xa2;" horiz-adv-x="578" d="M15 348q0 48 13.5 88.5t35 67.5t52 48t61.5 33t66 19.5t63 10t55 2.5l7 84l47 -1l-7 -85q80 -7 134 -29l-11 -147h-6q-34 116 -120 132l-37 -450q27 1 47 5.5t36 14.5t27 22.5t20 34.5t16 46t14 60h6l23 -138q-50 -85 -193 -88l-7 -87l-46 3l7 85q-142 9 -222.5 79.5 t-80.5 189.5zM202 351q-1 -96 29.5 -154t90.5 -72l36 448q-157 -6 -156 -222z" />
<glyph unicode="&#xa3;" horiz-adv-x="620" d="M30 0q16 30 24 48.5t23.5 61.5t24 95.5t10.5 113.5h-82l18 56h64q-6 322 276 339q74 4 127 -12t76 -45l-48 -142h-10q-3 79 -28 115t-80 34q-52 -1 -78 -37.5t-30 -100t0 -151.5h181l-21 -56h-158q-1 -41 -5.5 -74t-13.5 -57.5t-20.5 -42.5t-27 -31t-32 -21t-37.5 -14 q13 4 36 3t37 -3t40 -5.5t44 -5.5q40 -3 77 3.5t72 23.5t65 48.5t52 75.5h10l-45 -195q-46 -21 -117.5 -29.5t-115.5 -2.5q-32 4 -98.5 18.5t-102.5 13.5q-18 -1 -54 -13.5t-43 -20.5h-10v10z" />
<glyph unicode="&#xa4;" horiz-adv-x="541" d="M50 154l59 58q-53 61 -52.5 141t53.5 140l-60 60l21 21l60 -60q60 51 139.5 51t138.5 -52l61 61l22 -21l-62 -61q52 -60 52.5 -139t-51.5 -139l61 -60l-22 -22l-60 61q-59 -54 -139.5 -54t-140.5 52l-59 -59zM140 222.5q54 -53.5 129.5 -53.5t129 53.5t53.5 129.5 t-53.5 129.5t-129 53.5t-129.5 -53.5t-54 -129.5t54 -129.5z" />
<glyph unicode="&#xa5;" horiz-adv-x="729" d="M-45 690v10h386v-10h-12q-22 0 -34 -20.5t-1 -41.5l137 -247l142 247q12 21 -1 41.5t-34 20.5h-12v10h249v-10h-14q-30 0 -57.5 -17t-43.5 -42l-131 -206h94v-50h-126l-33 -53v-7h159v-50h-159v-192q0 -17 8.5 -31.5t23 -23t32.5 -8.5h12v-10h-358v10h13q26 0 44.5 18 t19.5 44v193h-162v50h162v7l-33 53h-129v50h99l-128 208q-7 11 -17.5 21.5t-23.5 18.5t-28 12.5t-30 4.5h-14z" />
<glyph unicode="&#xa6;" horiz-adv-x="265" d="M100 170h65v-350h-65v350zM100 350v350h65v-350h-65z" />
<glyph unicode="&#xa7;" horiz-adv-x="536" d="M53 -32q15 25 33 32.5t36 0t37.5 -21t37.5 -30t37 -28.5t35 -16t32 9q27 22 1 58.5t-105 112.5q-34 33 -52 51q-52 51 -81.5 109.5t-35.5 113.5t4 108.5t38 98t66.5 78.5t89 53t105.5 19q84 0 129.5 -38.5t15.5 -84.5q-15 -23 -32 -30t-33 0t-33.5 20t-33.5 29t-33 27.5 t-32 15.5t-31 -8q-12 -9 -13.5 -22.5t6.5 -30.5t20.5 -34t30.5 -36.5t33.5 -35.5t33 -33.5t26.5 -27.5q56 -64 87.5 -134t37.5 -134t-10.5 -122.5t-53 -101.5t-95 -68.5t-130.5 -25.5q-57 0 -103.5 18t-64.5 46t0 63zM145 583q-14 -32 -20 -62t-5.5 -53.5t10 -49.5t18.5 -43 t29 -41.5t32.5 -38t36.5 -38.5q32 -32 49 -50.5t42 -50.5t36.5 -56.5t18.5 -57t3 -63.5q13 28 18 55.5t4 50t-11 48.5t-20 44.5t-30 44.5t-34 41.5t-39 42.5q-33 35 -47 51t-34 41t-27.5 40.5t-16 39.5t-11 48.5t-2.5 56.5z" />
<glyph unicode="&#xa8;" d="M76 739.5q0 30.5 21.5 52t52 21.5t52 -21.5t21.5 -52t-21.5 -52.5t-52 -22t-52 22t-21.5 52.5zM338 739.5q0 30.5 21.5 52t52 21.5t52 -21.5t21.5 -52t-21.5 -52.5t-52 -22t-52 22t-21.5 52.5z" />
<glyph unicode="&#xa9;" horiz-adv-x="848" d="M60 350q0 151 106.5 257.5t257.5 106.5t257.5 -106.5t106.5 -257.5t-106.5 -257.5t-257.5 -106.5t-257.5 106.5t-106.5 257.5zM112 350q0 -129 91.5 -220.5t220.5 -91.5t220.5 91.5t91.5 220.5t-91.5 220.5t-220.5 91.5t-220.5 -91.5t-91.5 -220.5zM185 350 q0 96 71 159.5t180 63.5q46 0 96 -11.5t85 -31.5l-6 -120h-6q-53 122 -163 122q-57 0 -89 -48t-32 -134q0 -85 32.5 -133t91.5 -48q67 0 110 40.5t55 116.5h6l23 -108q-78 -91 -205 -91q-108 1 -178.5 64.5t-70.5 158.5z" />
<glyph unicode="&#xaa;" horiz-adv-x="390" d="M-5 377v4h4q26 0 41 23l115 231q28 63 30 75h4l162 -306q16 -23 40 -23h4v-4h-205v4h5q10 0 16.5 7t3.5 18l-16 33h-100l-15 -30q-6 -12 1 -20t18 -8h5v-4h-113zM111 465h75l-37 77z" />
<glyph unicode="&#xab;" horiz-adv-x="541" d="M40 292l225 198l8 -5l-78 -193l79 -197l-9 -7zM248 292l225 198l8 -5l-78 -193l79 -197l-9 -7z" />
<glyph unicode="&#xac;" d="M40 342v65h522v-212h-65v147h-457z" />
<glyph unicode="&#xad;" horiz-adv-x="380" d="M30 292l10 40h300l10 -40l-10 -41h-300z" />
<glyph unicode="&#xae;" horiz-adv-x="245" d="M10 588q0 47 33 80t80 33t80 -33t33 -80t-33 -80t-80 -33t-80 33t-33 80zM34 588q0 -38 25 -63.5t63.5 -25.5t64 25.5t25.5 63.5t-25.5 63.5t-64 25.5t-63.5 -25.5t-25 -63.5zM63 530v2h2q10 0 11 10v95q-1 11 -11 11h-2v2h44h19q12 0 22 -4t16 -11.5t6 -17.5 q0 -29 -31 -33q11 -2 31 -33q9 -15 20 -19v-2h-19q-7 0 -13 1t-10.5 4.5t-7.5 5t-6.5 8t-4.5 8t-4.5 10l-3.5 8.5q-6 13 -9 13v2h10q5 0 8.5 4t5.5 10.5t1 14.5q0 22 -20 21h-10v-97q0 -11 10 -11h3v-2h-57z" />
<glyph unicode="&#xaf;" d="M150 703v85h290v-85h-290z" />
<glyph unicode="&#xb0;" horiz-adv-x="237" d="M20 566q0 41 29 69.5t69.5 28.5t69.5 -28.5t29 -69.5t-29 -70t-69.5 -29t-69.5 29t-29 70zM78 566q0 -17 12 -28.5t28.5 -11.5t28.5 11.5t12 28.5t-12 28.5t-28 11.5q-12 0 -21 -5.5t-14.5 -14.5t-5.5 -20z" />
<glyph unicode="&#xb1;" horiz-adv-x="481" d="M40 50v65h402v-65h-402zM40 347v65h168v169h65v-169h169v-65h-169v-168h-65v168h-168z" />
<glyph unicode="&#xb2;" horiz-adv-x="419" d="M30 674q54 45 163 45q48 0 86.5 -13t61.5 -38.5t23 -60.5q0 -24 -10.5 -48t-27 -42.5t-38 -35.5t-40 -28t-36.5 -19h93q51 0 79 62h5l-41 -188h-310v5q12 17 35.5 48t36 48.5t31.5 44.5t29.5 46t21.5 41.5t15.5 43t4.5 40.5q0 31 -17.5 48t-47.5 14q-62 -7 -62 -128h-6z " />
<glyph unicode="&#xb3;" horiz-adv-x="373" d="M20 676q52 40 155 38q24 0 44 -3t36.5 -8.5t29.5 -13.5t22 -19t13.5 -24.5t4.5 -28.5q0 -36 -20.5 -54.5t-50.5 -19.5q17 -4 31.5 -11t28 -19t21.5 -32t8 -46q0 -52 -32 -87.5t-79.5 -48.5t-103 -7t-101.5 31l1 5q71 -1 119.5 30t48.5 88q0 46 -30 68.5t-66 23.5l1 5 q38 -2 63 26.5t21 65.5q-3 30 -22.5 41t-43.5 7q-31 -4 -43 -31.5t-11 -86.5h-5z" />
<glyph unicode="&#xb4;" d="M204 750q19 44 65 96.5t89 89.5q64 -27 86 -100q-50 -33 -115.5 -60t-117.5 -33z" />
<glyph unicode="&#xb6;" horiz-adv-x="540" d="M50 517q1 83 57 133t139 50h182h7h9t8.5 0.5t10.5 2t10.5 3t12 5t12 8t13 10.5t12.5 14l7 -6q-3 -19 -15 -37t-34.5 -32.5t-48.5 -16.5v-504q0 -55 -18.5 -96.5t-49.5 -63.5l-9 8q14 24 20 49t6.5 40.5t0.5 60.5v505h-83v-650q0 -42 -9 -78.5t-33.5 -70t-63.5 -50.5l-7 9 q41 42 52 78.5t8 111.5v333q-85 0 -141 50.5t-55 133.5z" />
<glyph unicode="&#xb7;" horiz-adv-x="250" d="M35 355q0 37 26.5 63.5t63.5 26.5t63.5 -26.5t26.5 -63.5t-26.5 -63.5t-63.5 -26.5t-63.5 26.5t-26.5 63.5z" />
<glyph unicode="&#xb8;" d="M214 -196l1 10q37 0 68 19t36 57q2 20 -15 32t-40 12t-42 -6l-5 10l48 63h62l-43 -49q15 5 35 5t40 -5.5t33 -22t11 -40.5q-3 -34 -33 -59.5t-71 -32t-85 6.5z" />
<glyph unicode="&#xb9;" horiz-adv-x="292" d="M30 675v5q32 1 93.5 10.5t92.5 24.5h5v-372q0 -12 9 -20.5t21 -8.5h11v-6h-228v6h11q13 0 21.5 8.5t8.5 20.5v289q0 24 -10.5 33.5t-30.5 9.5h-4z" />
<glyph unicode="&#xba;" horiz-adv-x="400" d="M20 543q0 81 46 124t134 43t134 -43t46 -124q0 -80 -46 -123t-134 -43t-134 43t-46 123zM140 543q0 -140 60 -140q31 0 45 35t14 105q0 71 -14 106t-45 35q-60 0 -60 -141z" />
<glyph unicode="&#xbb;" horiz-adv-x="541" d="M60 95l79 197l-78 193l8 5l225 -198l-225 -204zM268 95l79 197l-78 193l8 5l225 -198l-225 -204z" />
<glyph unicode="&#xbc;" horiz-adv-x="769" d="M20 675v5q32 1 93.5 10.5t92.5 24.5h5v-372q0 -12 9 -20.5t21 -8.5h12v-6h-229v6h11q13 0 21.5 8.5t8.5 20.5v289q0 24 -10.5 33.5t-30.5 9.5h-4zM119 11l478 712l47 -32l-477 -711zM329 92v6l332 310h6v-244h26q29 0 41 28h6l-21 -100h-52v-54q0 -13 10 -22.5t23 -9.5h7 v-6h-224v6h7q13 0 23 9t10 22v55h-194zM448 164h75v67z" />
<glyph unicode="&#xbd;" horiz-adv-x="850" d="M20 675v5q32 1 93.5 10.5t92.5 24.5h5v-372q0 -12 9 -20.5t21 -8.5h11v-6h-228v6h11q13 0 21.5 8.5t8.5 20.5v289q0 24 -10.5 33.5t-30.5 9.5h-4zM97 11l478 712l47 -32l-477 -711zM451 366q54 46 163 46q73 0 122 -30.5t49 -82.5q0 -30 -15.5 -58.5t-40.5 -50.5 t-49 -37.5t-47 -26.5h93q51 0 79 62h5l-41 -188h-310v5q12 16 41 55t42 57t34.5 51t31 53.5t17.5 46.5t8 49q0 31 -17.5 48t-47.5 14q-62 -7 -63 -128h-5z" />
<glyph unicode="&#xbe;" horiz-adv-x="839" d="M25 676q52 40 155 38q71 -1 110 -25.5t39 -71.5q0 -36 -20.5 -54.5t-49.5 -19.5q16 -4 30.5 -11t28.5 -19t22 -32t8 -46q0 -52 -32 -87.5t-79.5 -48.5t-103 -7t-101.5 31l1 5q71 -1 119.5 30t48.5 88q0 46 -30 68.5t-66 23.5l1 5q37 -2 62.5 26.5t21.5 65.5q-4 30 -23 41 t-43 7q-32 -4 -43.5 -31.5t-10.5 -86.5h-6zM188 11l478 712l47 -32l-477 -711zM409 92v6l332 311h6v-244h26q29 0 41 27h6l-21 -100h-52v-54q0 -9 4.5 -16t12 -11.5t16.5 -4.5h7v-6h-224v6h7q13 0 22.5 9t10.5 22v55h-194zM528 165h75v66z" />
<glyph unicode="&#xbf;" horiz-adv-x="523" d="M30 163q0 58 32.5 99t114.5 101q17 12 24.5 18t19 18.5t14.5 22.5t2.5 25t-9.5 32l9 6q30 -8 53 -23.5t36.5 -42t10.5 -58.5q-2 -22 -13 -40.5t-24 -32.5t-26 -30t-21.5 -42.5t-7.5 -61.5q2 -118 91 -118q97 0 97 154h10l50 -115q-23 -40 -81.5 -64.5t-139.5 -24.5 q-117 0 -179.5 46t-62.5 131zM178 624q0 37 26 63.5t63 26.5q38 0 64.5 -26.5t26.5 -63.5t-26.5 -63.5t-64.5 -26.5q-37 0 -63 26.5t-26 63.5z" />
<glyph unicode="&#xc0;" horiz-adv-x="720" d="M-40 0v10h9q23 0 45.5 13.5t37.5 40.5l233 511q53 112 57 149h9l317 -659q32 -55 84 -55h8v-10h-379v10h9q22 0 36 17.5t3 45.5l-39 93h-214l-40 -93q-9 -20 -3.5 -34t17 -21.5t24.5 -7.5h9v-10h-223zM136 857q21 73 85 100q43 -37 89.5 -89.5t65.5 -96.5l-7 -7 q-53 6 -118 33t-115 60zM198 216h171l-84 200z" />
<glyph unicode="&#xc1;" horiz-adv-x="720" d="M-40 0v10h9q23 0 45.5 13.5t37.5 40.5l233 511q53 112 57 149h9l317 -659q32 -55 84 -55h8v-10h-379v10h9q22 0 36 17.5t3 45.5l-39 93h-214l-40 -93q-9 -20 -3.5 -34t17 -21.5t24.5 -7.5h9v-10h-223zM198 216h171l-84 200zM325 768q19 44 65 96.5t90 89.5 q64 -27 85 -100q-50 -33 -115 -60t-118 -33z" />
<glyph unicode="&#xc2;" horiz-adv-x="720" d="M-40 0v10h9q23 0 45.5 13.5t37.5 40.5l233 511q53 112 57 149h9l317 -659q32 -55 84 -55h8v-10h-379v10h9q22 0 36 17.5t3 45.5l-39 93h-214l-40 -93q-9 -20 -3.5 -34t17 -21.5t24.5 -7.5h9v-10h-223zM173 756l169 176h11l179 -176l-7 -8l-178 65l-167 -65zM198 216h171 l-84 200z" />
<glyph unicode="&#xc3;" horiz-adv-x="720" d="M-40 0v10h9q23 0 45.5 13.5t37.5 40.5l233 511q53 112 57 149h9l317 -659q32 -55 84 -55h8v-10h-379v10h9q22 0 36 17.5t3 45.5l-39 93h-214l-40 -93q-12 -28 2 -45.5t36 -17.5h9v-10h-223zM174 767q-8 29 1 65.5t40 66.5t76 30q30 0 78.5 -24t83.5 -29q13 -2 26 0.5 t23.5 7.5t19.5 11t14.5 12.5t7.5 11.5h12q6 -12 6 -28t-4 -33.5t-14 -34t-24.5 -30t-35 -21.5t-44.5 -8q-34 0 -83.5 25t-78.5 29q-30 5 -57 -13t-35 -38h-12zM198 216h171l-84 200z" />
<glyph unicode="&#xc4;" horiz-adv-x="720" d="M-40 0v10h9q23 0 45.5 13.5t37.5 40.5l233 511q53 112 57 149h9l317 -659q32 -55 84 -55h8v-10h-379v10h9q22 0 36 17.5t3 45.5l-39 93h-214l-40 -93q-9 -20 -3.5 -34t17 -21.5t24.5 -7.5h9v-10h-223zM140 829.5q0 30.5 21.5 52t52 21.5t52.5 -21.5t22 -52t-22 -52.5 t-52.5 -22t-52 22t-21.5 52.5zM198 216h171l-84 200zM403 829.5q0 30.5 21.5 52t52 21.5t52 -21.5t21.5 -52t-21.5 -52.5t-52 -22t-52 22t-21.5 52.5z" />
<glyph unicode="&#xc5;" horiz-adv-x="720" d="M-40 0v10h9q25 0 49 15.5t39 47.5l228 492q40 83 53 129q-38 2 -63.5 23t-25.5 51q0 33 28.5 54t70.5 21q41 0 69.5 -20.5t28.5 -53.5q0 -29 -24.5 -50t-60.5 -25l303 -621q16 -32 39.5 -47.5t48.5 -15.5h8v-10h-379v10h9q22 0 35.5 17.5t3.5 44.5l-41 94h-210l-43 -95 q-11 -27 3 -44t36 -17h9v-10h-223zM200 216h167l-82 192zM305 768q0 -8 2 -16t5.5 -14.5t9 -11.5t12 -7.5t13.5 -2.5q19 0 31.5 15t11.5 37q1 15 -5 27t-16 19t-22 7q-18 0 -30 -15t-12 -38z" />
<glyph unicode="&#xc6;" horiz-adv-x="1017" d="M-33 0v10h9q43 0 86 61l391 570q13 20 5.5 34.5t-26.5 14.5h-5v10h394q21 0 46 3t44.5 7t28.5 8v-206h-10v8q0 39 -14.5 67.5t-42.5 44.5t-68 17h-134v-282h102q46 2 75.5 32.5t29.5 76.5v5h10v-278h-10v5q0 46 -29 76.5t-74 32.5h-104v-266h113q73 0 128.5 48t78.5 133 h10l-38 -232h-557l1 10h9q20 0 34.5 14t15.5 34v259h-157l-151 -244q-9 -15 -8 -27t8.5 -20t17.5 -12t20 -4h9v-10h-238zM340 367h126v202z" />
<glyph unicode="&#xc7;" horiz-adv-x="793" d="M35 351q0 113 52 195t150.5 125t235.5 43q149 0 257 -46l-10 -191h-9q-29 101 -84 144t-137 43q-111 0 -173 -82t-62 -228q0 -147 57.5 -231t159.5 -87q41 0 72 5.5t56 18.5t43.5 32t33 48.5t25 65.5t19.5 86h8l24 -182q-74 -124 -281 -124h-12l-37 -43q14 5 34 5 t40.5 -5.5t33.5 -22t10 -40.5q-3 -34 -33 -59.5t-70.5 -32t-84.5 6.5l1 10q36 0 67.5 19t35.5 57q3 20 -14.5 32t-40 12t-42.5 -6l-5 10l47 60q-173 17 -270 111t-97 251z" />
<glyph unicode="&#xc8;" horiz-adv-x="667" d="M30 0v10h13q26 0 44.5 18.5t19.5 44.5v554q-1 26 -19.5 44.5t-44.5 18.5h-13v10h443q20 0 45 3t45 7t29 8v-206h-10v8q0 39 -15 67.5t-43 44.5t-67 17h-145v-279h109q48 1 78 31.5t30 78.5v4h10v-278h-10v5q0 47 -30 77.5t-77 31.5h-110v-269h123q29 0 55.5 7.5t50 23 t43.5 37t35 50.5t24 63h10l-38 -232h-585zM156 857q24 73 89 100q41 -37 85.5 -89.5t62.5 -96.5l-7 -7q-53 6 -117 33t-113 60z" />
<glyph unicode="&#xc9;" horiz-adv-x="667" d="M30 0v10h13q26 0 44.5 18.5t19.5 44.5v554q-1 26 -19.5 44.5t-44.5 18.5h-13v10h443q31 0 67.5 6t51.5 12v-206h-10v8q0 39 -15 67.5t-43 44.5t-67 17h-145v-279h109q48 1 78 31.5t30 78.5v4h10v-278h-10v5q0 47 -30 77.5t-77 31.5h-110v-269h123q48 0 89.5 21t72.5 62 t46 98h10l-38 -232h-585zM315 768q19 44 65.5 96.5t89.5 89.5q64 -27 85 -100q-50 -33 -115 -60t-118 -33z" />
<glyph unicode="&#xca;" horiz-adv-x="667" d="M30 0v10h13q26 0 44.5 18.5t19.5 44.5v554q-1 26 -19.5 44.5t-44.5 18.5h-13v10h443q31 0 67.5 6t51.5 12v-206h-10v8q0 39 -15 67.5t-43 44.5t-67 17h-145v-279h109q48 1 78 31.5t30 78.5v4h10v-278h-10v5q0 47 -30 77.5t-77 31.5h-110v-269h123q48 0 89.5 21t72.5 62 t46 98h10l-38 -232h-585zM163 756l169 176h12l178 -176l-7 -8l-178 65l-167 -65z" />
<glyph unicode="&#xcb;" horiz-adv-x="667" d="M30 0v10h13q26 0 44.5 18.5t19.5 44.5v554q-1 26 -19.5 44.5t-44.5 18.5h-13v10h443q20 0 45 3t45 7t29 8v-206h-10v8q0 39 -15 67.5t-43 44.5t-67 17h-145v-279h109q48 1 78 31.5t30 78.5v4h10v-278h-10v5q0 47 -30 77.5t-77 31.5h-110v-269h123q73 0 129 48t79 133h10 l-38 -232h-585zM131 829.5q0 30.5 21.5 52t52 21.5t52 -21.5t21.5 -52t-21.5 -52.5t-52 -22t-52 22t-21.5 52.5zM393 829.5q0 30.5 21.5 52t52 21.5t52 -21.5t21.5 -52t-21.5 -52.5t-52 -22t-52 22t-21.5 52.5z" />
<glyph unicode="&#xcc;" horiz-adv-x="418" d="M5 857q21 73 85 100q44 -37 90 -89.5t65 -96.5l-7 -7q-53 6 -118 33t-115 60zM30 0v10h13q26 0 44.5 18.5t19.5 44.5v555q-1 26 -19.5 44t-44.5 18h-13v10h359v-10h-13q-26 0 -44.5 -18t-19.5 -44v-555q0 -17 8.5 -31.5t23.5 -23t32 -8.5h13v-10h-359z" />
<glyph unicode="&#xcd;" horiz-adv-x="418" d="M30 0v10h13q26 0 44.5 18.5t19.5 44.5v555q-1 17 -9.5 31t-23 22.5t-31.5 8.5h-13v10h359v-10h-13q-26 0 -44.5 -18t-19.5 -44v-555q0 -26 19 -44.5t45 -18.5h13v-10h-359zM184 768q8 19 23 41t31.5 42t35.5 40t35 35t30 28q64 -27 85 -100q-50 -33 -115 -60t-118 -33z " />
<glyph unicode="&#xce;" horiz-adv-x="418" d="M30 0v10h13q26 0 44.5 18.5t19.5 44.5v555q-1 17 -9.5 31t-23 22.5t-31.5 8.5h-13v10h359v-10h-13q-26 0 -44.5 -18t-19.5 -44v-555q0 -26 19 -44.5t45 -18.5h13v-10h-359zM32 756l169 176h12l178 -176l-7 -8l-178 65l-167 -65z" />
<glyph unicode="&#xcf;" horiz-adv-x="418" d="M0 829.5q0 30.5 21.5 52t52 21.5t52 -21.5t21.5 -52t-21.5 -52.5t-52 -22t-52 22t-21.5 52.5zM30 0v10h13q26 0 44.5 18.5t19.5 44.5v555q-1 26 -19.5 44t-44.5 18h-13v10h359v-10h-13q-26 0 -44.5 -18t-19.5 -44v-555q0 -17 8.5 -31.5t23.5 -23t32 -8.5h13v-10h-359z M262 829.5q0 30.5 22 52t52.5 21.5t52 -21.5t21.5 -52t-21.5 -52.5t-52 -22t-52.5 22t-22 52.5z" />
<glyph unicode="&#xd0;" horiz-adv-x="842" d="M30 0v10h13q26 0 44.5 18.5t19.5 44.5v252h-77v50h77v258q0 24 -19.5 40.5t-44.5 16.5h-12l-1 10h379q188 0 293.5 -92.5t105.5 -257.5t-105.5 -257.5t-293.5 -92.5h-379zM312 50h77q94 0 149 79.5t55 220.5t-55 220.5t-149 79.5h-77v-275h108v-50h-108v-275z" />
<glyph unicode="&#xd1;" horiz-adv-x="881" d="M20 0v10h19q25 0 43 17.5t18 43.5v519q0 35 -3 66t-7 45l-3 14h10q92 -82 263 -234l216 -192v340q-1 26 -19 43.5t-43 17.5h-19v10h366v-10h-18q-25 0 -43 -17.5t-19 -42.5v-516q0 -37 3.5 -69t6.5 -45l3 -14h-9l-479 426v-341q0 -17 8.5 -31t22.5 -22t30 -8h19v-10h-366 zM237 767q-8 29 1 65.5t40 66.5t76 30q30 0 78.5 -24t83.5 -29q13 -2 26 0.5t23.5 7.5t19.5 11t14.5 12.5t7.5 11.5h12q5 -15 6 -34.5t-8.5 -41t-23 -39t-38 -29t-52.5 -11.5q-34 0 -83.5 25t-78.5 29q-30 5 -57 -13t-35 -38h-12z" />
<glyph unicode="&#xd2;" horiz-adv-x="905" d="M35 350q0 171 110.5 267.5t305 96.5t305 -96.5t110.5 -267.5t-110.5 -267.5t-305 -96.5t-305 96.5t-110.5 267.5zM237 871q22 73 86 100q26 -23 53.5 -51t57.5 -66.5t43 -68.5l-7 -7q-35 4 -78 18.5t-82.5 33.5t-72.5 41zM251 350q0 -99 23 -169t68 -107.5t108 -37.5 q96 0 148 82.5t52 231.5q0 99 -23 169t-68 107.5t-109 37.5q-96 0 -147.5 -82.5t-51.5 -231.5z" />
<glyph unicode="&#xd3;" horiz-adv-x="905" d="M35 350q0 171 110.5 267.5t305 96.5t305 -96.5t110.5 -267.5t-110.5 -267.5t-305 -96.5t-305 96.5t-110.5 267.5zM256 350q0 -148 51.5 -231t143 -83t143 83t51.5 231t-51.5 231t-143 83t-143 -83t-51.5 -231zM426 782q19 44 65.5 96.5t89.5 89.5q64 -27 85 -100 q-50 -33 -115 -60t-118 -33z" />
<glyph unicode="&#xd4;" horiz-adv-x="905" d="M35 350q0 171 110.5 267.5t304.5 96.5t305 -96.5t111 -267.5t-111 -267.5t-305 -96.5t-304.5 96.5t-110.5 267.5zM256 350q0 -148 51.5 -231t143 -83t143 83t51.5 231t-51.5 231t-143 83t-143 -83t-51.5 -231zM274 770l169 176h12l179 -176l-8 -8l-177 65l-168 -65z" />
<glyph unicode="&#xd5;" horiz-adv-x="905" d="M35 350q0 171 110.5 267.5t304.5 96.5t305 -96.5t111 -267.5t-111 -267.5t-305 -96.5t-304.5 96.5t-110.5 267.5zM256 350q0 -148 51.5 -231t143 -83t143 83t51.5 231t-51.5 231t-143 83t-143 -83t-51.5 -231zM275 781q-7 29 2 65.5t39.5 66.5t76.5 30q24 0 49 -11 t54 -24.5t59 -17.5q15 -2 31.5 2t28 11.5t20 15.5t10.5 14h13q5 -15 6 -34.5t-8.5 -41t-23.5 -39t-38 -29t-53 -11.5q-33 0 -82.5 25t-78.5 29q-30 5 -57 -13t-35 -38h-13z" />
<glyph unicode="&#xd6;" horiz-adv-x="905" d="M35 350q0 171 110.5 267.5t304.5 96.5t305 -96.5t111 -267.5t-111 -267.5t-305 -96.5t-304.5 96.5t-110.5 267.5zM242 843.5q0 30.5 21.5 52t52 21.5t52 -21.5t21.5 -52t-21.5 -52.5t-52 -22t-52 22t-21.5 52.5zM256 350q0 -148 51.5 -231t143 -83t143 83t51.5 231 t-51.5 231t-143 83t-143 -83t-51.5 -231zM504 843.5q0 30.5 22 52t52.5 21.5t52 -21.5t21.5 -52t-21.5 -52.5t-52 -22t-52.5 22t-22 52.5z" />
<glyph unicode="&#xd7;" horiz-adv-x="410" d="M40 191l119 119l-119 119l46 46l119 -119l119 119l46 -46l-119 -119l119 -119l-46 -46l-119 119l-119 -119z" />
<glyph unicode="&#xd8;" horiz-adv-x="905" d="M35 350q0 171 110.5 267.5t304.5 96.5q130 0 224 -44l48 56l44 -34l-43 -50q143 -96 143 -292q0 -171 -110.5 -267.5t-305.5 -96.5q-143 0 -243 54l-54 -63l-44 36l50 58q-124 97 -124 279zM251 350q0 -86 18 -151l329 383q-52 82 -148 82t-147.5 -82.5t-51.5 -231.5z M291 138q52 -102 159 -102q96 0 148 82.5t52 231.5q0 104 -26 177z" />
<glyph unicode="&#xd9;" horiz-adv-x="845" d="M30 690v10h343v-10h-16q-22 0 -37 -13.5t-16 -34.5v-382q0 -105 48 -164t134 -59t134.5 55.5t48.5 154.5v395q-1 21 -16 34.5t-37 13.5h-16v10h225v-10h-16q-21 0 -36.5 -13.5t-16.5 -33.5v-386q0 -127 -78.5 -199t-221.5 -72q-179 0 -268 70t-89 200v384q0 15 -7 26 t-19 17.5t-27 6.5h-16zM270 857q21 73 85 100q43 -37 89.5 -89.5t65.5 -96.5l-7 -7q-53 6 -118 33t-115 60z" />
<glyph unicode="&#xda;" horiz-adv-x="845" d="M30 690v10h343v-10h-16q-22 0 -37 -13.5t-16 -34.5v-382q0 -105 48 -164t134 -59t134.5 55.5t48.5 154.5v395q0 10 -4.5 19t-11.5 15.5t-16.5 10t-20.5 3.5h-16v10h225v-10h-16q-21 0 -36.5 -13.5t-16.5 -33.5v-386q0 -127 -78.5 -199t-221.5 -72q-179 0 -268 70t-89 200 v384q0 15 -7 26t-19 17.5t-27 6.5h-16zM459 768q19 44 65.5 96.5t89.5 89.5q64 -27 85 -100q-50 -33 -115 -60t-118 -33z" />
<glyph unicode="&#xdb;" horiz-adv-x="845" d="M30 690v10h343v-10h-16q-22 0 -37 -13.5t-16 -34.5v-382q0 -105 48 -164t134 -59t134.5 55.5t48.5 154.5v395q-1 21 -16 34.5t-37 13.5h-16v10h225v-10h-16q-21 0 -36.5 -13.5t-16.5 -33.5v-386q0 -127 -78.5 -199t-221.5 -72q-179 0 -268 70t-89 200v384q0 15 -7 26 t-19 17.5t-27 6.5h-16zM307 756l169 176h12l178 -176l-7 -8l-178 65l-167 -65z" />
<glyph unicode="&#xdc;" horiz-adv-x="845" d="M30 690v10h343v-10h-16q-22 0 -37 -13.5t-16 -34.5v-382q0 -105 48 -164t134 -59t134.5 55.5t48.5 154.5v395q-1 21 -16 34.5t-37 13.5h-16v10h225v-10h-16q-21 0 -36.5 -13.5t-16.5 -33.5v-386q0 -127 -78.5 -199t-221.5 -72q-179 0 -268 70t-89 200v384q0 15 -7 26 t-19 17.5t-27 6.5h-16zM274 829.5q0 30.5 22 52t52.5 21.5t52 -21.5t21.5 -52t-21.5 -52.5t-52 -22t-52.5 22t-22 52.5zM537 829.5q0 30.5 21.5 52t52 21.5t52 -21.5t21.5 -52t-21.5 -52.5t-52 -22t-52 22t-21.5 52.5z" />
<glyph unicode="&#xdd;" horiz-adv-x="729" d="M-45 690v10h386v-10h-12q-22 0 -34 -20.5t-1 -41.5l137 -247l142 247q12 21 -1 41.5t-34 20.5h-12v10h249v-10h-14q-30 0 -57.5 -17t-43.5 -42l-196 -309v-249q0 -26 18.5 -44.5t45.5 -18.5h12v-10h-358v10h13q26 0 44.5 18t19.5 44v250l-191 311q-15 24 -42.5 40.5 t-56.5 16.5h-14zM411 768q19 44 65.5 96.5t89.5 89.5q64 -27 85 -100q-50 -33 -115 -60t-118 -33z" />
<glyph unicode="&#xde;" horiz-adv-x="707" d="M43 0v10h12q27 0 45.5 18.5t19.5 44.5v555q-1 17 -9.5 31t-23 22.5t-32.5 8.5h-12v10h358v-10h-12q-17 0 -32 -8.5t-23.5 -22.5t-8.5 -31v-70h91q140 0 205.5 -53t70.5 -138q3 -54 -16.5 -100t-55 -75t-79.5 -42.5t-94.5 -4t-95.5 41.5v10l5 0.5t13.5 3t19.5 7t23 13.5 t23 20.5t20.5 31t15.5 42.5q8 31 6 60q-2 62 -35 97.5t-90 35.5h-27v-435q0 -26 18.5 -44.5t45.5 -18.5h12v-10h-358z" />
<glyph unicode="&#xdf;" horiz-adv-x="1098" d="M49 45q-15 36 -4.5 88.5t34.5 82.5h6q-3 -73 46.5 -127t134.5 -55q52 0 78.5 23t26.5 55q0 28 -23.5 51t-76.5 46l-105 49q-64 27 -94 79t-21 120q11 77 59.5 116t130.5 39q56 0 151 -9h67l-24 -146h-6q0 49 -35.5 78.5t-94.5 29.5q-46 0 -72.5 -17.5t-30.5 -48.5 q-1 -16 4 -28.5t19.5 -22t25.5 -15t33 -14.5l129 -59q53 -23 82.5 -67.5t23.5 -110.5q-8 -96 -78 -145t-194 -49q-74 0 -123.5 16.5t-68.5 40.5zM598 45q-15 36 -4.5 88.5t34.5 82.5h6q-3 -73 46.5 -127t134.5 -55q52 0 78.5 23t26.5 55q0 28 -23.5 51t-76.5 46l-105 49 q-64 27 -94 79t-21 120q11 77 59.5 116t130.5 39q56 0 151 -9h67l-24 -146h-6q0 49 -35.5 78.5t-94.5 29.5q-31 0 -53.5 -8t-35 -23t-14.5 -35q-2 -16 3.5 -28.5t20 -22t25.5 -15t33 -14.5l129 -59q53 -23 82.5 -67.5t23.5 -110.5q-8 -96 -78 -145t-194 -49 q-74 0 -123.5 16.5t-68.5 40.5z" />
<glyph unicode="&#xe0;" horiz-adv-x="632" d="M-42 0v10h8q21 0 42.5 12t33.5 37l206 444q49 107 52 133h8l282 -575q26 -51 78 -51h8v-10h-351v10h7q20 0 32 14t2 37l-29 66h-185l-30 -69q-9 -22 3 -35t32 -13h7v-10h-206zM92 757q21 73 85 100q43 -37 89.5 -89.5t64.5 -96.5l-7 -7q-52 6 -117.5 33t-114.5 60z M171 172h146l-73 168z" />
<glyph unicode="&#xe1;" horiz-adv-x="632" d="M-42 0v10h8q21 0 42.5 12t33.5 37l206 444q49 107 52 133h8l282 -575q26 -51 78 -51h8v-10h-352v10h8q20 0 32 14t2 37l-29 66h-185l-30 -69q-9 -22 3 -35t32 -13h7v-10h-206zM171 172h146l-73 168zM281 668q18 44 64.5 96.5t89.5 89.5q64 -27 85 -100q-50 -33 -115 -60 t-117 -33z" />
<glyph unicode="&#xe2;" horiz-adv-x="632" d="M-42 0v10h8q21 0 42.5 12t33.5 37l206 444q49 107 52 133h8l282 -575q26 -51 78 -51h8v-10h-352v10h8q20 0 32 14t2 37l-29 66h-185l-30 -69q-9 -22 3 -35t32 -13h7v-10h-206zM128 656l169 176h12l179 -176l-8 -8l-177 65l-167 -65zM171 172h146l-73 168z" />
<glyph unicode="&#xe3;" horiz-adv-x="632" d="M-42 0v10h8q21 0 42.5 12t33.5 37l206 444q48 107 52 133h8l282 -575q26 -51 78 -51h8v-10h-352v10h8q20 0 32 14t2 37l-29 66h-186l-29 -69q-9 -22 3 -35t32 -13h7v-10h-206zM130 667q-8 29 1 65.5t39.5 66.5t76.5 30q29 0 77.5 -24t84.5 -29q30 -4 57 12t34 31h12 q5 -12 5.5 -28t-3.5 -33.5t-14.5 -34t-24.5 -30t-35 -21.5t-45 -8q-33 0 -82.5 25t-78.5 29q-30 5 -57 -13t-35 -38h-12zM171 172h146l-73 168z" />
<glyph unicode="&#xe4;" horiz-adv-x="632" d="M-42 0v10h8q21 0 42.5 12t33.5 37l206 444q49 107 52 133h8l282 -575q26 -51 78 -51h8v-10h-352v10h8q20 0 32 14t2 37l-29 66h-185l-30 -69q-9 -22 3 -35t32 -13h7v-10h-206zM96 729.5q0 30.5 21.5 52t52 21.5t52 -21.5t21.5 -52t-21.5 -52.5t-52 -22t-52 22t-21.5 52.5 zM171 172h146l-73 168zM359 729.5q0 30.5 21.5 52t52 21.5t52 -21.5t21.5 -52t-21.5 -52.5t-52 -22t-52 22t-21.5 52.5z" />
<glyph unicode="&#xe5;" horiz-adv-x="632" d="M-42 0v10h8q21 0 42.5 12t33.5 37l206 444q48 107 52 133h8l282 -575q26 -51 78 -51h8v-10h-352v10h8q20 0 32 14t2 37l-29 66h-186l-29 -69q-9 -22 3 -35t32 -13h7v-10h-206zM171 172h146l-73 168zM185 752.5q0 38.5 34 64t85 25.5q50 0 83.5 -25t33.5 -62 q0 -40 -33.5 -66t-84 -26t-84.5 25.5t-34 64zM253 752q0 -25 14.5 -41.5t35.5 -16.5q22 0 37 16.5t15 41.5q0 26 -15 43t-37 17q-21 0 -35.5 -17t-14.5 -43z" />
<glyph unicode="&#xe6;" horiz-adv-x="885" d="M-31 0v10h8q37 0 75 53l337 484q11 18 4.5 30.5t-23.5 12.5h-4v9h355q18 0 39.5 2.5t38.5 6t25 7.5v-188l-9 1v5q0 55 -30.5 86.5t-85.5 33.5h-107v-237h81q42 2 69 29.5t27 70.5v3h8v-252h-8v3q0 43 -26.5 70.5t-68.5 30.5h-82v-225h92q42 0 78.5 19t64.5 56t41 88h9 l-32 -209h-496l1 10h8q17 0 29.5 11.5t12.5 28.5v221h-134l-131 -210q-13 -23 1 -37t34 -14h8v-10h-209zM295 316h105v168z" />
<glyph unicode="&#xe7;" horiz-adv-x="668" d="M23 301q0 147 100 229t281 82q127 0 218 -36l-13 -170h-7q-26 88 -70.5 124.5t-110.5 36.5q-99 0 -146.5 -70.5t-47.5 -192.5q0 -123 46.5 -195.5t130.5 -75.5q35 0 60.5 4.5t45.5 16t33.5 27t25 41.5t19.5 55t18 73h7l26 -160q-60 -102 -235 -102l-39 -45q14 5 34.5 5 t40.5 -5.5t33 -22t11 -40.5q-3 -34 -33.5 -59.5t-71 -32t-84.5 6.5l1 10q36 0 67.5 19t36.5 57q2 20 -15.5 32t-40 12t-42.5 -6l-5 10l48 62q-152 13 -237 93t-85 217z" />
<glyph unicode="&#xe8;" horiz-adv-x="575" d="M21 0v10h11q10 0 19.5 4t16.5 11t11.5 16.5t4.5 20.5v475q0 23 -15.5 38t-36.5 15h-11v10h390q25 0 56 5t43 10v-189h-10v5q0 58 -30.5 90t-86.5 33h-103v-235h77q44 1 71.5 29.5t27.5 73.5v2h10v-258h-10v4q0 44 -27.5 73t-71.5 29h-77v-226h96q60 0 109 44t67 120h9 l-28 -210h-512zM75 757q21 73 85 100q43 -37 89.5 -89.5t65.5 -96.5l-7 -7q-53 7 -118 33.5t-115 59.5z" />
<glyph unicode="&#xe9;" horiz-adv-x="575" d="M21 0v10h11q10 0 19.5 4t16.5 11t11.5 16.5t4.5 20.5v475q0 23 -15.5 38t-36.5 15h-11v10h390q25 0 56 5t43 10v-189h-10v5q0 58 -30.5 90t-86.5 33h-103v-235h77q44 1 71.5 29.5t27.5 73.5v2h10v-258h-10v4q0 44 -27.5 73t-71.5 29h-77v-226h96q60 0 109 44t67 120h9 l-28 -210h-512zM264 668q19 45 65 97t89 89q64 -27 86 -100q-33 -21 -72.5 -40.5t-82.5 -33.5t-78 -19z" />
<glyph unicode="&#xea;" horiz-adv-x="575" d="M21 0v10h11q10 0 19.5 4t16.5 11t11.5 16.5t4.5 20.5v475q0 23 -15.5 38t-36.5 15h-11v10h390q25 0 56 5t43 10v-189h-10v5q0 58 -30.5 90t-86.5 33h-103v-235h77q44 1 71.5 29.5t27.5 73.5v2h10v-258h-10v4q0 44 -27.5 73t-71.5 29h-77v-226h96q60 0 109 44t67 120h9 l-28 -210h-512zM112 657l168 175h12l179 -175l-7 -8l-178 64l-167 -64z" />
<glyph unicode="&#xeb;" horiz-adv-x="575" d="M21 0v10h11q10 0 19.5 4t16.5 11t11.5 16.5t4.5 20.5v475q0 23 -15.5 38t-36.5 15h-11v10h390q25 0 56 5t43 10v-189h-10v5q0 38 -13.5 65.5t-39.5 42t-64 15.5h-103v-235h77q44 1 71.5 29.5t27.5 73.5v2h10v-258h-10v4q0 44 -27.5 73t-71.5 29h-77v-226h96q60 0 109 44 t67 120h9l-28 -210h-512zM79 729.5q0 30.5 21.5 52t52 21.5t52.5 -21.5t22 -52t-22 -52t-52.5 -21.5t-52 21.5t-21.5 52zM342 729.5q0 30.5 21.5 52t52 21.5t52 -21.5t21.5 -52t-21.5 -52t-52 -21.5t-52 21.5t-21.5 52z" />
<glyph unicode="&#xec;" horiz-adv-x="362" d="M-34 757q20 73 85 100q43 -37 89.5 -89t65.5 -97l-7 -7q-53 7 -118 33.5t-115 59.5zM21 0v10h11q21 0 36 15t15 37v476q0 22 -15 37t-36 15h-11v10h320v-10h-10q-14 0 -25.5 -6.5t-18.5 -18.5t-8 -27v-476q0 -11 4.5 -20.5t11.5 -16.5t16.5 -11t19.5 -4h11v-10h-321z" />
<glyph unicode="&#xed;" horiz-adv-x="362" d="M21 0v10h11q21 0 36 15t15 37v476q0 22 -15 37t-36 15h-11v10h320v-10h-10q-14 0 -25.5 -6.5t-18.5 -18.5t-8 -27v-476q0 -11 4.5 -20.5t11.5 -16.5t16.5 -11t19.5 -4h11v-10h-321zM155 669q19 44 65 96t90 89q64 -27 85 -100q-50 -33 -115 -59.5t-118 -32.5z" />
<glyph unicode="&#xee;" horiz-adv-x="362" d="M3 657l169 175h12l178 -175l-7 -8l-178 64l-167 -64zM21 0v10h11q21 0 36 15t15 37v476q0 22 -15 37t-36 15h-11v10h320v-10h-10q-21 0 -36 -15t-16 -37v-476q0 -11 4.5 -20.5t11.5 -16.5t16.5 -11t19.5 -4h11v-10h-321z" />
<glyph unicode="&#xef;" horiz-adv-x="362" d="M-30 729.5q0 30.5 22 52t52.5 21.5t52 -21.5t21.5 -52t-21.5 -52t-52 -21.5t-52.5 21.5t-22 52zM21 0v10h11q21 0 36 15t15 37v476q0 22 -15 37t-36 15h-11v10h320v-10h-10q-14 0 -25.5 -6.5t-18.5 -18.5t-8 -27v-476q1 -22 16 -37t36 -15h11v-10h-321zM233 729.5 q0 30.5 21.5 52t52 21.5t52 -21.5t21.5 -52t-21.5 -52t-52 -21.5t-52 21.5t-21.5 52z" />
<glyph unicode="&#xf0;" horiz-adv-x="741" d="M18 590v10h341q170 0 264 -79t94 -221.5t-94 -221t-264 -78.5h-340v10h12q11 0 21.5 4t18 11t12 16.5t4.5 20.5v216h-67v45h67v216q-1 22 -17.5 36.5t-39.5 14.5h-12zM283 46h57q80 0 126 67t46 187t-46 187.5t-126 67.5h-57v-232h105v-45h-105v-232z" />
<glyph unicode="&#xf1;" horiz-adv-x="779" d="M12 0v10h16q23 0 39 14.5t16 35.5v447q0 30 -3 56.5t-6 38.5l-3 11h9l419 -354v281q0 14 -7 25.5t-19.5 18t-27.5 6.5h-17v10h340v-10h-17q-23 0 -39 -14t-16 -35v-444q0 -33 3 -60t6 -38l3 -11h-9l-420 353v-281q1 -21 16.5 -35.5t38.5 -14.5h16v-10h-338zM187 667 q-8 29 1 65.5t40 66.5t76 30q30 0 78.5 -24t83.5 -29q21 -3 42 4.5t33 18.5t16 20h13q5 -12 5.5 -28t-4 -33.5t-14.5 -34t-24 -30t-35 -21.5t-45 -8q-34 0 -83 25t-78 29q-31 5 -57.5 -13t-34.5 -38h-13z" />
<glyph unicode="&#xf2;" horiz-adv-x="779" d="M25 299q0 149 96.5 231t267.5 82q172 0 268.5 -82t96.5 -231q0 -147 -96.5 -229t-268.5 -82q-171 0 -267.5 82t-96.5 229zM177 758q21 73 85 99q43 -37 89.5 -89t65.5 -96l-7 -7q-53 6 -118 33t-115 60zM229 299q0 -127 41 -196.5t119 -69.5t119 69.5t41 196.5 q0 85 -18 144.5t-54 91.5t-88 32q-78 0 -119 -69.5t-41 -198.5z" />
<glyph unicode="&#xf3;" horiz-adv-x="779" d="M25 299q0 149 96.5 231t267.5 82q172 0 268.5 -82t96.5 -231q0 -147 -96.5 -229t-268.5 -82q-171 0 -267.5 82t-96.5 229zM229 299q0 -127 41 -196.5t119 -69.5t119 69.5t41 196.5q0 85 -18 144.5t-54 91.5t-88 32q-78 0 -119 -69.5t-41 -198.5zM366 669q19 44 65 96.5 t90 89.5q64 -27 85 -100q-50 -33 -115 -60t-118 -33z" />
<glyph unicode="&#xf4;" horiz-adv-x="779" d="M25 299q0 149 96.5 231t267.5 82q172 0 268.5 -82t96.5 -231q0 -147 -96.5 -229t-268.5 -82q-171 0 -267.5 82t-96.5 229zM214 657l169 176h12l178 -176l-7 -8l-178 65l-167 -65zM229 299q0 -127 41 -196.5t119 -69.5t119 69.5t41 196.5q0 129 -41 198.5t-119 69.5 t-119 -69.5t-41 -198.5z" />
<glyph unicode="&#xf5;" horiz-adv-x="779" d="M25 299q0 149 96.5 231t267.5 82q172 0 268.5 -82t96.5 -231q0 -147 -96.5 -229t-268.5 -82q-171 0 -267.5 82t-96.5 229zM215 668q-8 29 1 65.5t40 66.5t76 30q30 0 78.5 -24t83.5 -29q30 -4 57.5 12t33.5 31h12q6 -15 6.5 -34.5t-9 -41t-23 -39t-38 -29t-52.5 -11.5 q-34 0 -83 24.5t-79 29.5t-56.5 -13t-35.5 -38h-12zM229 299q0 -127 41 -196.5t119 -69.5t119 69.5t41 196.5q0 85 -18 144.5t-54 91.5t-88 32q-78 0 -119 -70t-41 -198z" />
<glyph unicode="&#xf6;" horiz-adv-x="779" d="M25 299q0 149 96.5 231t267.5 82q172 0 268.5 -82t96.5 -231q0 -147 -96.5 -229t-268.5 -82q-171 0 -267.5 82t-96.5 229zM181 730.5q0 30.5 22 52t52.5 21.5t52 -21.5t21.5 -52t-21.5 -52.5t-52 -22t-52.5 22t-22 52.5zM229 299q0 -127 41 -196.5t119 -69.5t119 69.5 t41 196.5q0 85 -18 144.5t-54 91.5t-88 32q-78 0 -119 -69.5t-41 -198.5zM444 730.5q0 30.5 21.5 52t52 21.5t52 -21.5t21.5 -52t-21.5 -52.5t-52 -22t-52 22t-21.5 52.5z" />
<glyph unicode="&#xf7;" horiz-adv-x="481" d="M40 277v65h402v-65h-402zM188 152.5q0 21.5 15.5 36.5t37 15t37 -15t15.5 -36.5t-15.5 -37t-37 -15.5t-37 15.5t-15.5 37zM188 468.5q0 21.5 15.5 36.5t37 15t37 -15t15.5 -36.5t-15.5 -37t-37 -15.5t-37 15.5t-15.5 37z" />
<glyph unicode="&#xf8;" horiz-adv-x="779" d="M25 299q0 149 96.5 231t267.5 82q111 0 194 -38l58 69l43 -35l-52 -62q122 -84 122 -247q0 -147 -96.5 -229t-268.5 -82q-114 0 -197 37l-49 -58l-44 36l43 51q-117 82 -117 245zM229 299q0 -72 14 -126l269 317q-41 77 -123 77q-78 0 -119 -69.5t-41 -198.5zM265 112 q41 -79 124 -79q78 0 119 69.5t41 196.5q0 76 -15 132z" />
<glyph unicode="&#xf9;" horiz-adv-x="708" d="M19 592v8h310v-8h-14q-18 0 -30 -12t-13 -31v-326q0 -59 17 -101t50 -64t79 -22q68 0 105 46t38 130v337q-1 19 -13.5 31t-30.5 12h-13v8h193v-8h-13q-18 0 -31 -12.5t-13 -30.5v-326q0 -111 -66 -173t-188 -62q-310 0 -310 233v328q0 12 -6 22t-16 15.5t-22 5.5h-13z M185 757q21 73 85 100q26 -23 53.5 -51t58 -66.5t43.5 -68.5l-7 -7q-53 6 -118 33t-115 60z" />
<glyph unicode="&#xfa;" horiz-adv-x="708" d="M19 592v8h310v-8h-14q-18 0 -30 -12t-13 -31v-326q0 -59 17 -101t50 -64t79 -22q68 0 105 46t38 130v337q-1 19 -13.5 31t-30.5 12h-13v8h193v-8h-13q-18 0 -31 -12.5t-13 -30.5v-326q0 -111 -66 -173t-188 -62q-310 0 -310 233v328q0 12 -6 22t-16 15.5t-22 5.5h-13z M374 668q19 44 65 96.5t89 89.5q64 -27 86 -100q-50 -33 -115.5 -60t-117.5 -33z" />
<glyph unicode="&#xfb;" horiz-adv-x="708" d="M19 592v8h310v-8h-14q-18 0 -30.5 -12t-12.5 -31v-326q0 -89 38.5 -138t107.5 -49q68 0 105 46t38 130v337q-1 19 -13.5 31t-30.5 12h-13v8h193v-8h-13q-18 0 -31 -12.5t-13 -30.5v-326q0 -111 -66 -173t-188 -62q-310 0 -310 233v328q0 12 -6 22t-16 15.5t-22 5.5h-13z M222 656l168 176h12l179 -176l-7 -8l-178 65l-167 -65z" />
<glyph unicode="&#xfc;" horiz-adv-x="708" d="M19 592v8h310v-8h-14q-18 0 -30.5 -12t-12.5 -31v-326q0 -59 17 -101t50 -64t79 -22q68 0 105 46t38 130v337q-1 19 -13.5 31t-30.5 12h-13v8h193v-8h-13q-18 0 -31 -12.5t-13 -30.5v-326q0 -111 -66 -173t-188 -62q-310 0 -310 233v328q0 9 -3.5 17t-9.5 14t-14 9t-17 3 h-13zM189 729.5q0 30.5 21.5 52t52 21.5t52.5 -21.5t22 -52t-22 -52.5t-52.5 -22t-52 22t-21.5 52.5zM452 729.5q0 30.5 21.5 52t52 21.5t52 -21.5t21.5 -52t-21.5 -52.5t-52 -22t-52 22t-21.5 52.5z" />
<glyph unicode="&#xfd;" horiz-adv-x="633" d="M-48 590v10h350v-10h-10q-19 0 -29.5 -17t-0.5 -34l124 -210l121 210q6 12 3.5 23.5t-12 19.5t-21.5 8h-10v10h217v-10h-13q-26 0 -48.5 -13.5t-36.5 -33.5l-169 -264v-217q0 -14 7.5 -26.5t20 -19t27.5 -6.5h11v-10h-328v10h12q22 0 38 15t16 37v216l-172 265 q-7 10 -16 18.5t-20 15t-23.5 10t-25.5 3.5h-12zM349 668q19 44 65.5 96.5t89.5 89.5q64 -27 85 -100q-50 -33 -115 -60t-118 -33z" />
<glyph unicode="&#xfe;" d="M37 0v10h11q23 0 39 15t16 38v475q0 14 -7.5 26t-20 19t-27.5 7h-11v10h324l-1 -10h-10q-15 0 -27.5 -6.5t-20 -18.5t-7.5 -27v-57h75q125 0 183.5 -46t62.5 -118q3 -47 -14 -88t-48.5 -66.5t-70 -37t-83 -2.5t-83.5 38l-1 8q3 1 8 2t18.5 7t25 16t24 30.5t18.5 47.5 q9 46 1 82.5t-35 59t-67 22.5h-15v-373q1 -15 8.5 -27t20 -19t27.5 -7h10l1 -10h-324z" />
<glyph unicode="&#xff;" horiz-adv-x="633" d="M-48 590v10h350v-10h-10q-19 0 -29.5 -17t-0.5 -34l124 -210l121 210q6 12 3.5 23.5t-12 19.5t-21.5 8h-11v10h218v-10h-13q-26 0 -48.5 -13.5t-36.5 -33.5l-169 -264v-217q0 -22 16 -37t39 -15h11v-10h-328v10h12q22 0 38 15t16 37v216l-172 265q-14 20 -37 33.5 t-48 13.5h-12zM165 729.5q0 30.5 21.5 52t52 21.5t52 -21.5t21.5 -52t-21.5 -52.5t-52 -22t-52 22t-21.5 52.5zM427 729.5q0 30.5 22 52t52.5 21.5t52 -21.5t21.5 -52t-21.5 -52.5t-52 -22t-52.5 22t-22 52.5z" />
<glyph unicode="&#x152;" horiz-adv-x="1142" d="M35 352q0 170 112.5 266t311.5 96q36 0 92.5 -7t88.5 -7h308q31 0 67.5 6t51.5 12v-206h-10v8q0 39 -15 67.5t-43 44.5t-67 17h-145v-279h109q48 1 78 31.5t30 78.5v4h10v-278h-10v5q0 31 -13.5 55.5t-38 38.5t-55.5 15h-110v-269h123q73 0 129 48t79 133h10l-38 -232 h-450q-33 0 -94 -7t-99 -7q-189 0 -300.5 97.5t-111.5 268.5zM247 350q-1 -146 58 -230t156 -84q52 0 86 22t34 46v492q0 23 -33 45.5t-86 22.5q-95 0 -154.5 -82t-60.5 -232z" />
<glyph unicode="&#x153;" horiz-adv-x="997" d="M25 303q0 97 44 167t128 107t200 37q26 0 51.5 -3l51 -6t48.5 -3h286q13 0 29 1.5t30 4t25.5 5t17.5 5.5v-186h-10v5q0 37 -13 63t-38.5 40.5t-61.5 15.5h-118v-237h87q43 1 70.5 29t27.5 72v3h10v-252h-10v3q0 43 -27 71t-70 29h-88v-228h103q41 0 77 18.5t63 55 t41 87.5h10l-31 -208h-436l-15 -1q-15 -1 -37 -4t-41 -4.5t-43 -1.5q-166 0 -263.5 83.5t-97.5 231.5zM222 301q0 -63 12.5 -113.5t36 -84.5t56.5 -52t72 -18q46 0 74.5 20t28.5 41v414q0 12 -10.5 25.5t-35 24.5t-56.5 11q-78 0 -127.5 -69.5t-50.5 -198.5z" />
<glyph unicode="&#x178;" horiz-adv-x="729" d="M-45 690v10h386v-10h-12q-22 0 -34 -20.5t-1 -41.5l137 -247l142 247q12 21 -1 41.5t-34 20.5h-12v10h249v-10h-14q-30 0 -57.5 -17t-43.5 -42l-196 -309v-249q0 -26 18.5 -44.5t45.5 -18.5h12v-10h-358v10h13q26 0 44.5 18t19.5 44v250l-191 311q-15 24 -42.5 40.5 t-56.5 16.5h-14zM226 829.5q0 30.5 22 52t52.5 21.5t52 -21.5t21.5 -52t-21.5 -52.5t-52 -22t-52.5 22t-22 52.5zM489 829.5q0 30.5 21.5 52t52 21.5t52 -21.5t21.5 -52t-21.5 -52.5t-52 -22t-52 22t-21.5 52.5z" />
<glyph unicode="&#x2c6;" d="M101 669l169 175h12l179 -175l-8 -8l-177 64l-168 -64z" />
<glyph unicode="&#x2dc;" d="M96 646q-8 29 1 66t39.5 66.5t76.5 29.5q24 0 49 -11t54 -24.5t59 -17.5t57 12t34 32h12q6 -13 6 -29t-4 -33.5t-14.5 -34t-24.5 -30t-35 -21.5t-45 -8q-33 0 -82.5 25t-78.5 29q-30 5 -57 -13t-35 -38h-12z" />
<glyph unicode="&#x2000;" horiz-adv-x="485" />
<glyph unicode="&#x2001;" horiz-adv-x="971" />
<glyph unicode="&#x2002;" horiz-adv-x="485" />
<glyph unicode="&#x2003;" horiz-adv-x="971" />
<glyph unicode="&#x2004;" horiz-adv-x="323" />
<glyph unicode="&#x2005;" horiz-adv-x="242" />
<glyph unicode="&#x2006;" horiz-adv-x="161" />
<glyph unicode="&#x2007;" horiz-adv-x="161" />
<glyph unicode="&#x2008;" horiz-adv-x="121" />
<glyph unicode="&#x2009;" horiz-adv-x="194" />
<glyph unicode="&#x200a;" horiz-adv-x="53" />
<glyph unicode="&#x2010;" horiz-adv-x="380" d="M30 292l10 40h300l10 -40l-10 -41h-300z" />
<glyph unicode="&#x2011;" horiz-adv-x="380" d="M30 292l10 40h300l10 -40l-10 -41h-300z" />
<glyph unicode="&#x2012;" horiz-adv-x="380" d="M30 292l10 40h300l10 -40l-10 -41h-300z" />
<glyph unicode="&#x2013;" horiz-adv-x="500" d="M0 261v60h500v-60h-500z" />
<glyph unicode="&#x2014;" horiz-adv-x="800" d="M0 261v60h800v-60h-800z" />
<glyph unicode="&#x2018;" horiz-adv-x="278" d="M52 583q-17 40 -17.5 79.5t17 75t43.5 62t62.5 38.5t75.5 5l4 -15q-16 -7 -28 -20t-18.5 -31t-0.5 -41t27 -47q29 -33 25.5 -80.5t-35.5 -70.5q-37 -27 -86 -13.5t-69 58.5z" />
<glyph unicode="&#x2019;" horiz-adv-x="268" d="M41 555q12 5 22 14t17 22t8.5 27.5t-5.5 32.5t-23 36q-28 33 -24.5 77.5t33.5 66.5q35 27 82 13.5t66 -55.5q16 -38 16.5 -75.5t-16 -72t-41 -59t-59.5 -36.5t-72 -5z" />
<glyph unicode="&#x201a;" horiz-adv-x="278" d="M41 -127q16 7 28 20.5t18.5 31t0.5 41t-27 46.5q-29 34 -25.5 81t35.5 70q37 28 86 14t70 -59q16 -39 16.5 -78.5t-17 -75.5t-43.5 -62t-62.5 -38t-74.5 -5z" />
<glyph unicode="&#x201c;" horiz-adv-x="528" d="M52 583q-17 40 -17.5 79.5t17 75t43.5 62t62.5 38.5t75.5 5l4 -15q-16 -7 -28 -20t-18.5 -31t-0.5 -41t27 -47q29 -33 25.5 -80.5t-35.5 -70.5q-37 -27 -86 -13.5t-69 58.5zM293 583q-17 40 -17.5 79.5t17 75t43.5 62t62.5 38.5t75.5 5l4 -15q-16 -7 -28 -20t-18.5 -31 t-0.5 -41t27 -47q29 -33 25.5 -80.5t-35.5 -70.5q-37 -27 -86 -13.5t-69 58.5z" />
<glyph unicode="&#x201d;" horiz-adv-x="498" d="M41 555q12 5 22 14t17 22t8.5 27.5t-5.5 32.5t-23 36q-28 33 -24.5 77.5t33.5 66.5q35 27 82 13.5t66 -55.5q16 -38 16.5 -75.5t-16 -72t-41 -59t-59.5 -36.5t-72 -5zM271 555q12 5 22 14t17 22t8.5 27.5t-5.5 32.5t-23 36q-28 33 -24.5 77.5t33.5 66.5q35 27 82 13.5 t66 -55.5q14 -30 16 -63t-7 -62t-26.5 -54.5t-41 -42.5t-53 -24t-60.5 -2z" />
<glyph unicode="&#x201e;" horiz-adv-x="518" d="M41 -134q16 7 28 20t18.5 31t0.5 41.5t-27 46.5q-29 34 -25.5 81t35.5 70q37 28 86 14t70 -59q16 -39 16.5 -78.5t-17 -75.5t-43.5 -62t-62.5 -38t-74.5 -5zM282 -134q15 7 27.5 20t19 31t0 41.5t-27.5 46.5q-29 34 -25.5 81t35.5 70q37 28 86 14t70 -59 q16 -39 16.5 -78.5t-17 -75.5t-43 -62t-62.5 -38t-75 -5z" />
<glyph unicode="&#x2022;" horiz-adv-x="389" d="M54 313q-7 20 0 40q21 64 39 82t82 39q20 7 40 0q64 -21 82 -39t39 -82q6 -20 -1 -43q-21 -62 -39 -79.5t-81 -38.5q-20 -7 -40 0q-64 21 -82 39t-39 82z" />
<glyph unicode="&#x2026;" horiz-adv-x="740" d="M35 76q0 37 26.5 63.5t63.5 26.5t63.5 -26.5t26.5 -63.5t-26.5 -63.5t-63.5 -26.5t-63.5 26.5t-26.5 63.5zM280 76q0 37 26.5 63.5t63.5 26.5t63.5 -26.5t26.5 -63.5t-26.5 -63.5t-63.5 -26.5t-63.5 26.5t-26.5 63.5zM525 76q0 37 26.5 63.5t63.5 26.5t63.5 -26.5 t26.5 -63.5t-26.5 -63.5t-63.5 -26.5t-63.5 26.5t-26.5 63.5z" />
<glyph unicode="&#x202f;" horiz-adv-x="194" />
<glyph unicode="&#x2039;" horiz-adv-x="333" d="M40 292l225 198l8 -5l-78 -193l79 -197l-9 -7z" />
<glyph unicode="&#x203a;" horiz-adv-x="333" d="M60 95l79 197l-78 193l8 5l225 -198l-225 -204z" />
<glyph unicode="&#x205f;" horiz-adv-x="242" />
<glyph unicode="&#x20ac;" horiz-adv-x="693" d="M-40 264l19 50h92q-1 18 -1 36q0 17 1 34h-111l18 50h100q18 82 67.5 145t128.5 99t176 36q67 0 135 -15t91 -44l-53 -155h-10q2 45 -10.5 78.5t-35 51.5t-47.5 26t-53 8q-78 0 -122.5 -59.5t-55.5 -170.5h312l-18 -50h-298v-33v-37h275l-16 -50h-255q25 -227 192 -227 q73 0 117 43.5t69 133.5h9v-165q-29 -30 -96 -46t-133 -16q-142 0 -241 76t-127 201h-119z" />
<glyph unicode="&#x2122;" horiz-adv-x="512" d="M10 643v63q13 -5 34 -5h132q21 0 34 5v-63h-3v2q0 9 -2.5 16.5t-7.5 13t-12.5 8t-17.5 2.5h-24v-164q0 -8 5 -13t13 -5h3v-3h-108v3h4q7 0 12 5t5 13v164h-24q-19 0 -29.5 -10.5t-10.5 -29.5v-2h-3zM205 500v3h5q16 0 20 15l27 187h2l100 -126l89 126h3l27 -186 q4 -16 20 -16h5v-3h-108v3h5q4 0 7 3.5t4 7.5l-12 77l-46 -64q-1 -3 -3.5 -6t-6 -12t-2.5 -16h-3l-75 93l-9 -72q0 -3 1.5 -5.5t4 -4t5.5 -1.5h4v-3h-64z" />
<glyph unicode="&#x25fc;" d="M0 0v600h600v-600h-600z" />
<glyph unicode="&#xfb01;" horiz-adv-x="905" d="M21 0v10h11q21 0 36.5 15t15.5 37v475q0 23 -15.5 38t-36.5 15h-11v10h390q25 0 56 5t43 10v-191h-10v6q0 38 -13.5 65.5t-40.5 42.5t-65 16h-101v-235h76q30 0 52.5 13.5t35 36.5t12.5 53v2h10v-258h-10v4q0 44 -27.5 73t-72.5 29h-76v-210q0 -14 7.5 -26.5t19 -19 t26.5 -6.5h10v-10h-322zM563 0v10h11q21 0 36 15t15 37v476q0 22 -15 37t-36 15h-11v10h320v-10h-10q-14 0 -25.5 -6.5t-18.5 -18.5t-8 -27v-476q0 -14 7 -26.5t19 -19t26 -6.5h11v-10h-321z" />
<glyph unicode="&#xfb02;" horiz-adv-x="1099" d="M21 0v10h11q21 0 36.5 15t15.5 37v475q0 23 -15.5 38t-36.5 15h-11v10h390q25 0 56 5t43 10v-191h-10v6q0 38 -13.5 65.5t-40.5 42.5t-65 16h-101v-235h76q30 0 52.5 13.5t35 36.5t12.5 53v2h10v-258h-10v4q0 44 -27.5 73t-72.5 29h-76v-210q0 -14 7.5 -26.5t19 -19 t26.5 -6.5h10v-10h-322zM563 0v10h11q21 0 36.5 15t15.5 37v476q0 15 -7.5 27t-19 18.5t-25.5 6.5h-11v10h323v-10h-11q-15 0 -26.5 -6.5t-19 -18.5t-7.5 -27v-492h96q60 0 108.5 44t67.5 120h10l-29 -210h-512z" />
</font>
</defs>
</svg>
