<?xml version="1.0" standalone="no"?>
<!DOCTYPE svg PUBLIC "-//W3C//DTD SVG 1.1//EN" "http://www.w3.org/Graphics/SVG/1.1/DTD/svg11.dtd" >
<svg xmlns="http://www.w3.org/2000/svg">
<metadata></metadata>
<defs>
<font id="luxi_serifbold_oblique" horiz-adv-x="1024" vert-adv-y="2048" >
<font-face units-per-em="2048" ascent="1638" descent="-410" />
<missing-glyph horiz-adv-x="512" />
<glyph horiz-adv-x="2048" vert-adv-y="0" />
<glyph horiz-adv-x="2048" vert-adv-y="0" />
<glyph unicode="&#xd;" horiz-adv-x="2048" vert-adv-y="0" />
<glyph unicode=" " horiz-adv-x="512" vert-adv-y="2505" />
<glyph unicode="!" horiz-adv-x="682" vert-adv-y="2505" d="M193 0l49 247h296l-49 -247h-296zM379 419l51 765l59 296h296l-59 -296l-255 -765h-92z" />
<glyph unicode="&#x22;" horiz-adv-x="1137" vert-adv-y="2505" d="M494 987l20 592h296l-217 -592h-99zM938 987l20 592h296l-217 -592h-99z" />
<glyph unicode="#" vert-adv-y="2505" d="M78 0l198 432h-168l49 123h175l164 370h-194l52 124h198l196 431h127l-196 -431h239l196 431h127l-197 -431h167l-49 -124h-172l-165 -370h191l-48 -123h-197l-197 -432h-128l197 432h-239l-197 -432h-129zM459 555h239l165 370h-238z" />
<glyph unicode="$" vert-adv-y="2505" d="M86 74l57 284h136l-3 -19l-9 -61q-4 -28 -4 -43q0 -111 224 -132l109 545l-73 63q-133 115 -167 163q-36 53 -36 133q0 221 187 372q119 97 286 101l32 161h93l-32 -161q166 -9 306 -67l-56 -278h-135l2 19l10 69q3 20 3 37q0 114 -148 131l-103 -514l97 -76 q184 -144 184 -314q0 -220 -175 -363q-118 -98 -312 -124l-32 -160h-93l32 160q-218 13 -380 74zM580 109q82 14 133 79q66 85 66 214q0 103 -102 190zM678 935l90 449q-73 -18 -119 -84q-63 -89 -63 -206q0 -83 92 -159z" />
<glyph unicode="%" horiz-adv-x="2048" vert-adv-y="2505" d="M283 -37l1581 1554h195l-1589 -1554h-187zM835 1480q289 0 289 -264q0 -214 -122 -346q-121 -133 -326 -133q-284 0 -284 263q0 213 121 346q121 134 322 134zM811 1385q-83 0 -138 -118q-28 -59 -44 -136q-22 -103 -22 -183q0 -116 93 -116q106 0 156 149q16 49 32 125 q20 96 20 153q0 126 -97 126zM1663 742q289 0 289 -263q0 -214 -122 -346q-121 -133 -327 -133q-283 0 -283 263q0 212 121 345q121 134 322 134zM1639 648q-83 0 -139 -118q-27 -59 -44 -136q-21 -102 -21 -184q0 -115 93 -115q107 0 156 149q17 51 32 125q20 96 20 153 q0 126 -97 126z" />
<glyph unicode="&#x26;" horiz-adv-x="1706" vert-adv-y="2505" d="M1178 0l-61 84q-204 -121 -453 -121q-233 0 -361 104q-129 103 -129 290q0 229 179 375q76 61 170 103q48 21 146 53q-78 156 -78 246q0 171 138 277q139 106 375 106q368 0 368 -251q0 -157 -155 -275q-109 -83 -298 -136q118 -233 232 -427l54 -92q137 172 137 330 q0 60 -74 64q-6 1 -18 2l-9 1h-7l-18 1l18 93h481l-18 -93l-19 -1l-43 -2q-57 -1 -77 -31q-17 -24 -34 -81q-50 -170 -267 -353q85 -138 111 -149q32 -16 139 -23l18 -1l-18 -93h-429zM1053 153q-174 287 -348 653q-106 -49 -159 -120q-78 -106 -78 -271q0 -317 342 -317 q120 0 243 55zM981 927q254 170 254 377q0 121 -139 121q-107 0 -160 -60q-51 -56 -51 -158q0 -100 96 -280z" />
<glyph unicode="'" horiz-adv-x="569" vert-adv-y="2505" d="M428 962l13 617h321l-235 -617h-99z" />
<glyph unicode="(" horiz-adv-x="682" vert-adv-y="2505" d="M572 -216l-18 -92q-161 101 -250 259q-115 203 -115 471q0 408 281 781q185 245 464 388l-19 -92q-109 -86 -175 -184q-82 -124 -159 -379q-128 -425 -128 -765q0 -162 46 -270q25 -60 73 -117z" />
<glyph unicode=")" horiz-adv-x="682" vert-adv-y="2505" d="M381 1499l18 92q162 -102 250 -259q115 -204 115 -471q0 -408 -281 -781q-184 -245 -464 -388l19 92q109 86 175 185q82 124 159 379q128 422 128 764q0 162 -46 270q-26 61 -73 117z" />
<glyph unicode="*" vert-adv-y="2505" d="M695 999l-173 -271l-150 129l260 196q21 -45 63 -54zM630 1084l-288 29l113 213l221 -154q-46 -40 -46 -88zM705 1190l-6 290h220l-123 -290q-21 10 -43 10q-20 0 -48 -10zM816 1170l286 154l25 -213l-300 -28q6 20 6 32q0 28 -17 55zM811 1052l181 -196l-203 -128 l-62 271q44 10 84 53z" />
<glyph unicode="+" horiz-adv-x="1167" vert-adv-y="2505" d="M530 99l84 419h-420l30 148h419l84 420h148l-83 -420h419l-30 -148h-419l-84 -419h-148z" />
<glyph unicode="," horiz-adv-x="512" vert-adv-y="2505" d="M36 -296l18 92q130 1 164 204h-123l64 321h321l-50 -248q-70 -341 -394 -369z" />
<glyph unicode="-" horiz-adv-x="682" vert-adv-y="2505" d="M153 518l29 148h584l-30 -148h-583z" />
<glyph unicode="." horiz-adv-x="512" vert-adv-y="2505" d="M96 0l64 321h321l-64 -321h-321z" />
<glyph unicode="/" horiz-adv-x="569" vert-adv-y="2505" d="M-118 -296l888 1776h155l-889 -1776h-154z" />
<glyph unicode="0" vert-adv-y="2505" d="M512 740l-48 -258q-32 -172 -32 -295q0 -132 95 -132q67 0 110 74q37 63 84 230q66 238 116 506q50 267 50 428q0 132 -93 132q-68 0 -115 -78q-78 -131 -167 -607zM812 1517q342 0 342 -462q0 -221 -65 -453q-65 -233 -172 -389q-172 -250 -425 -250q-327 0 -327 470 q0 492 237 833q175 251 410 251z" />
<glyph unicode="1" vert-adv-y="2505" d="M119 0l19 93l18 1l116 10q74 6 93 15q19 11 36 55q25 64 35 116l165 826l14 101l8 35q-8 34 -58 34q-24 0 -118 -17l-77 -14l20 99l583 139l-241 -1203q-17 -85 -17 -134q0 -31 34 -44q17 -6 78 -10l107 -8l18 -1l-19 -93h-814z" />
<glyph unicode="2" vert-adv-y="2505" d="M38 0l20 99q99 177 261 333l120 113l67 64l166 162q208 203 208 452q0 196 -185 196q-193 0 -227 -158l-18 -83l-5 -18h-136l55 276q248 82 449 82q380 0 380 -299q0 -168 -103 -287q-81 -93 -279 -224q-123 -81 -167 -119l-86 -75q-148 -128 -184 -267h628l-50 -247 h-914z" />
<glyph unicode="3" vert-adv-y="2505" d="M77 17l56 279h136l-3 -18l-9 -64q-4 -28 -4 -50q0 -109 157 -109q144 0 241 125q98 126 98 299q0 260 -291 260h-101l19 92h85q185 0 291 108q107 110 107 292q0 194 -176 194q-161 0 -195 -138l-22 -90l-5 -19h-142l55 274q219 66 385 66q398 0 398 -286 q0 -170 -147 -298q-100 -88 -266 -137q98 -24 149 -52q159 -89 159 -278q0 -213 -174 -358q-174 -146 -443 -146q-196 0 -358 54z" />
<glyph unicode="4" vert-adv-y="2505" d="M105 401l33 167l783 931h218l-178 -888h148l-42 -210h-148l-22 -111l-14 -99l-8 -36q7 -55 100 -61l18 -1l-18 -93h-543l18 93l19 1q115 7 127 26q16 19 29 71l25 99l22 111h-567zM297 611h417l131 652z" />
<glyph unicode="5" vert-adv-y="2505" d="M119 10l54 274h136l-2 -19l-8 -61q-9 -57 -9 -66q0 -83 121 -83q124 0 211 138q87 137 87 321q0 279 -292 279q-49 0 -115 -7l139 694h758l-45 -228h-638l-99 -365l79 1q228 3 365 -75q163 -93 163 -308q0 -223 -182 -383q-181 -159 -433 -159q-106 0 -290 47z" />
<glyph unicode="6" vert-adv-y="2505" d="M1201 1458l-54 -267h-136l3 18l3 22l3 20q3 22 6 38q7 37 7 63q0 73 -111 73q-149 0 -269 -225q-86 -161 -135 -417q148 171 305 171q270 0 270 -318q0 -264 -174 -468q-175 -205 -399 -205q-166 0 -262 127q-96 126 -96 346q0 203 73 427q71 221 190 376 q213 278 516 278q149 0 260 -59zM692 829q-97 0 -174 -169q-78 -170 -78 -382q0 -223 107 -223q87 0 158 160q86 192 86 427q0 187 -99 187z" />
<glyph unicode="7" vert-adv-y="2505" d="M147 0q84 225 223 419q135 191 529 642l151 173h-721l49 246h895l-38 -188q-583 -588 -767 -1292h-321z" />
<glyph unicode="8" vert-adv-y="2505" d="M520 776l-34 37q-125 136 -125 269q0 184 138 310q137 126 348 126q314 0 314 -259q0 -159 -128 -282q-78 -75 -226 -149q6 -7 18 -20q14 -15 27 -28q107 -109 157 -177q55 -76 55 -171q0 -192 -166 -330q-165 -139 -396 -139q-176 0 -279 80t-103 221q0 186 145 334 q88 89 255 178zM749 891q162 179 162 396q0 138 -105 138q-80 0 -131 -79t-51 -191q0 -100 96 -226zM581 722l-14 -17q-169 -205 -169 -457q0 -193 160 -193q97 0 163 90q67 90 67 210q0 96 -75 192l-82 105z" />
<glyph unicode="9" vert-adv-y="2505" d="M122 22l53 268h136l-2 -19l-3 -22q-3 -22 -7 -41l-1 -6l-2 -11q-6 -42 -6 -64q0 -72 111 -72q149 0 269 225q84 157 135 417q-149 -170 -305 -170q-270 0 -270 316q0 266 174 470t399 204q166 0 261 -127q96 -127 96 -345q0 -204 -73 -427q-72 -223 -189 -377 q-212 -278 -516 -278q-149 0 -260 59zM775 1425q-87 0 -158 -160q-86 -192 -86 -427q0 -187 99 -187q97 0 175 170q77 169 77 382q0 222 -107 222z" />
<glyph unicode=":" horiz-adv-x="682" vert-adv-y="2505" d="M193 0l59 296h296l-59 -296h-296zM353 802l60 296h296l-60 -296h-296z" />
<glyph unicode=";" horiz-adv-x="682" vert-adv-y="2505" d="M134 -296l18 92q138 20 152 204h-111l59 296h296l-43 -218q-68 -332 -371 -374zM353 802l60 296h296l-60 -296h-296z" />
<glyph unicode="&#x3c;" horiz-adv-x="1167" vert-adv-y="2505" d="M1098 99l-889 493l1086 494l-33 -166l-719 -327l-1 -2l589 -327z" />
<glyph unicode="=" horiz-adv-x="1167" vert-adv-y="2505" d="M157 333l29 148h987l-29 -148h-987zM231 703l29 148h987l-29 -148h-987z" />
<glyph unicode="&#x3e;" horiz-adv-x="1167" vert-adv-y="2505" d="M307 1086l888 -494l-1085 -493l33 165l719 327l1 2l-589 327z" />
<glyph unicode="?" vert-adv-y="2505" d="M279 0l50 247h296l-49 -247h-297zM363 419l4 17q35 166 211 297l75 55q232 170 232 417q0 220 -203 220q-192 0 -225 -150l-17 -78l-5 -19h-135l55 276q205 64 408 64q207 0 326 -75q118 -75 118 -203q0 -118 -96 -218q-46 -49 -137 -107l-24 -17q-37 -23 -62 -41 l-53 -39q-102 -75 -145 -263l-27 -116l-4 -20h-296z" />
<glyph unicode="@" horiz-adv-x="1905" vert-adv-y="2505" d="M1192 46q-213 -83 -375 -83q-246 0 -392 137q-146 136 -146 368q0 300 282 624q176 201 403 312q231 113 462 113q238 0 391 -142t153 -361q0 -273 -206 -495q-206 -223 -461 -223q-143 0 -143 83q0 60 103 250h-38q-287 -333 -460 -333q-133 0 -133 156q0 188 171 413 q234 307 489 307q63 0 156 -33l6 -2q4 -1 11 -4l4 -1h129l-209 -521q-39 -97 -39 -146q0 -55 68 -55q151 0 304 195t153 391q0 188 -133 308q-134 121 -350 121q-431 0 -767 -387q-255 -294 -255 -569q0 -187 124 -300q125 -113 328 -113q151 0 356 77zM1283 790l95 233 q-70 60 -161 60q-137 0 -262 -195q-134 -210 -134 -364q0 -80 64 -80q128 0 398 346z" />
<glyph unicode="A" horiz-adv-x="1479" vert-adv-y="2505" d="M0 0l18 93l19 1q81 5 140 96l66 102l747 1201h103l270 -1203q41 -186 95 -194l27 -2l12 -1l-19 -93h-530l18 93l20 1l36 2q52 3 52 52q0 17 -12 75l-15 69l-35 158h-549l-100 -159q-87 -139 -87 -166q0 -26 44 -29l26 -2l18 -1l-19 -93h-345zM525 549h465l-122 549z" />
<glyph unicode="B" horiz-adv-x="1366" vert-adv-y="2505" d="M43 0l19 93l18 1q115 7 127 26q16 19 29 71l25 99l180 901l15 98l7 34q-5 55 -124 64l-18 1l18 92h748q371 0 371 -272q0 -175 -158 -300q-94 -75 -276 -140q137 -32 210 -80q131 -87 131 -246q0 -152 -110 -277q-80 -91 -184 -128q-103 -37 -277 -37h-751zM641 709 l-84 -420q-13 -66 -13 -105q0 -49 42 -63q32 -10 100 -10q168 0 267 95q100 94 100 250q0 118 -80 185q-79 68 -212 68h-120zM661 808h119q160 0 262 107q103 106 103 268q0 199 -249 199h-120z" />
<glyph unicode="C" horiz-adv-x="1479" vert-adv-y="2505" d="M1440 197l-28 -140q-259 -94 -530 -94q-672 0 -672 588q0 367 228 647q260 319 752 319q225 0 475 -65l-61 -305h-173l4 19l8 58l2 17q4 24 4 35q0 58 -86 100q-87 43 -205 43q-279 0 -448 -265q-77 -122 -127 -307q-51 -187 -51 -349q0 -411 438 -411q200 0 470 110z " />
<glyph unicode="D" horiz-adv-x="1479" vert-adv-y="2505" d="M43 0l18 93l19 1q66 4 81 25q15 19 27 72l21 99l180 901l18 98q7 34 7 45q0 49 -75 53l-19 1l19 92h433l75 1l92 2l74 1q213 3 350 -77q215 -127 215 -452q0 -314 -186 -587q-251 -368 -689 -368h-660zM735 1382l-219 -1092q-11 -54 -11 -104q0 -55 56 -70 q42 -11 122 -11q246 0 412 278q160 269 160 600q0 200 -110 298q-112 101 -346 101h-64z" />
<glyph unicode="E" horiz-adv-x="1366" vert-adv-y="2505" d="M55 0l19 93l19 1q115 7 126 26q17 20 30 71l25 99l180 901l14 98l7 34q-4 55 -124 64l-18 1l18 92h1209l-53 -265h-173l3 19l4 26q4 32 5 34q3 12 4 15q1 5 2 7q2 5 2 8q0 58 -136 58h-417l-113 -562h305l98 2q45 1 53 14q8 12 13 38q5 20 12 45l5 19h130l-65 -321h-129 l2 18q0 2 2 11l1 10q1 6 2 15l1 4q3 16 3 30q0 23 -51 25l-93 4h-306l-89 -444q-16 -80 -16 -133q0 -31 30 -42q19 -7 59 -8l82 -2h223l114 3q70 1 87 56l24 95l5 19h173l-56 -278h-1252z" />
<glyph unicode="F" horiz-adv-x="1251" vert-adv-y="2505" d="M55 0l19 93l19 1q115 7 126 26q17 20 30 71l25 99l180 901l14 98l7 34q-4 55 -124 64l-18 1l18 92h1123l-56 -277h-172l2 18q7 59 10 66q2 6 5 16q5 16 5 21q0 58 -137 58h-330l-120 -599h224l98 2q40 1 50 10q7 8 12 29q3 11 4 13q3 9 12 45l5 19h129l-64 -321h-129 l2 18q0 2 1 10q7 39 7 60q0 23 -51 25l-93 4h-224l-82 -407q-16 -79 -16 -137q0 -33 30 -45q15 -7 47 -9l66 -5l19 -1l-19 -93h-654z" />
<glyph unicode="G" horiz-adv-x="1593" vert-adv-y="2505" d="M1704 652l-18 -93l-19 -1q-115 -7 -126 -26q-17 -20 -30 -71l-25 -99l-67 -332q-322 -67 -548 -67q-661 0 -661 587q0 364 228 648q137 170 317 244q181 75 457 75q241 0 490 -65l-58 -292h-173l4 18l8 56q5 34 5 45q0 62 -90 101q-92 39 -230 39q-372 0 -531 -403 q-49 -124 -80 -280q-29 -147 -29 -274q0 -400 421 -400q88 0 174 26l54 274l15 99l7 34q-5 55 -124 63l-18 1l18 93h629z" />
<glyph unicode="H" horiz-adv-x="1593" vert-adv-y="2505" d="M43 0l19 93l18 1q115 7 127 26q16 19 29 71l25 99l180 901l15 98l7 34q-5 55 -124 64l-18 1l18 92h629l-18 -92l-19 -1q-118 -9 -127 -27q-16 -18 -29 -71l-25 -98l-72 -360h570l72 360l15 98l6 34q-4 55 -124 64l-18 1l19 92h629l-19 -92l-18 -1q-119 -9 -128 -27 q-15 -19 -28 -71l-26 -98l-180 -901l-14 -99l-7 -34q5 -55 124 -63l18 -1l-18 -93h-629l18 93l19 1q115 7 126 26q17 19 30 71l25 99l87 436h-570l-87 -436l-15 -99l-6 -34q4 -55 123 -63l19 -1l-19 -93h-629z" />
<glyph unicode="I" horiz-adv-x="797" vert-adv-y="2505" d="M84 0l19 93l18 1q115 7 127 26q16 19 29 71l25 99l180 901l15 98l7 34q-5 55 -124 64l-18 1l18 92h629l-18 -92l-19 -1q-118 -9 -127 -27q-16 -18 -29 -71l-25 -98l-180 -901l-15 -99l-6 -34q4 -55 123 -63l19 -1l-19 -93h-629z" />
<glyph unicode="J" vert-adv-y="2505" d="M-55 -246l58 290h185l-8 -43l-8 -56q-4 -29 -4 -50q0 -92 124 -92q116 0 165 97q38 74 69 228l212 1063l15 98l7 34q-5 55 -124 64l-18 1l18 92h629l-18 -92l-19 -1q-118 -9 -127 -27q-15 -17 -29 -71l-25 -98l-192 -960q-56 -280 -192 -403q-135 -124 -382 -124 q-139 0 -336 50z" />
<glyph unicode="K" horiz-adv-x="1593" vert-adv-y="2505" d="M43 0l19 93l18 1q115 7 127 26q16 19 29 71l25 99l180 901l15 98l7 34q-5 55 -124 64l-18 1l18 92h592l-18 -92l-19 -1q-94 -7 -105 -27q-15 -19 -27 -71l-24 -98l-79 -394l570 394q199 137 199 173q0 20 -52 22l-44 2h-17l18 92h450l-18 -92l-19 -1l-40 -2 q-65 -1 -185 -92l-41 -30q-59 -44 -102 -74l-468 -322l445 -580l97 -119q55 -68 142 -74l18 -1l-18 -93h-716l18 93h19l46 1q89 2 89 43q0 42 -86 154l-322 421l-85 -422l-14 -99l-7 -36q7 -55 99 -61l19 -1l-19 -93h-592z" />
<glyph unicode="L" horiz-adv-x="1366" vert-adv-y="2505" d="M55 0l19 93l19 1q115 7 126 26q17 20 30 71l25 99l180 901l14 98l7 34q-4 55 -124 64l-18 1l18 92h630l-19 -92l-19 -1q-118 -9 -127 -27q-16 -18 -29 -71l-25 -98l-180 -901q-16 -80 -16 -135q0 -46 88 -48l89 -2h223l87 4q83 2 98 21q16 20 28 77l27 120l9 43h197 l-74 -370h-1283z" />
<glyph unicode="M" horiz-adv-x="1933" vert-adv-y="2505" d="M55 0l18 93l19 1q115 7 127 26q16 19 29 71l25 99l180 901l15 98l6 34q-3 55 -123 64l-19 1l19 92h498l241 -958l659 958h424l-18 -92l-19 -1q-119 -9 -128 -27q-16 -18 -29 -71l-25 -98l-180 -901l-14 -99l-7 -34q4 -55 123 -63l19 -1l-19 -93h-580l19 93l19 1 q93 6 106 27q15 20 27 70l24 99l175 878l-691 -1003h-98l-268 1065l-188 -940l-15 -99q-3 -15 -9 -39v0q8 -26 11 -29q28 -26 91 -29l18 -1l-18 -93h-444z" />
<glyph unicode="N" horiz-adv-x="1479" vert-adv-y="2505" d="M44 0l19 93l18 1q115 7 127 26q16 19 29 71l25 99l180 901l15 98l7 34q-5 55 -124 64l-18 1l18 92h385l448 -1099l162 810l15 98l7 35q-5 55 -124 63l-19 1l19 92h466l-18 -92l-19 -1q-117 -9 -126 -27q-16 -18 -29 -71l-25 -98l-242 -1212h-218l-455 1102l-158 -791 l-14 -99l-7 -34q4 -55 124 -63l18 -1l-19 -93h-467z" />
<glyph unicode="O" horiz-adv-x="1593" vert-adv-y="2505" d="M1102 1517q280 0 436 -151q157 -151 157 -431q0 -409 -262 -690q-263 -282 -650 -282q-240 0 -389 125q-187 155 -187 456q0 405 259 688q260 285 636 285zM1082 1419q-233 0 -391 -283q-167 -300 -167 -671q0 -403 288 -403q214 0 363 226q98 148 151 344q51 183 51 381 q0 406 -295 406z" />
<glyph unicode="P" horiz-adv-x="1251" vert-adv-y="2505" d="M43 0l19 93l18 1q115 7 127 26q16 19 29 71l25 99l180 901l15 98l7 34q-5 55 -124 64l-18 1l18 92h457l91 2l100 3l84 2q148 4 246 -52q123 -72 123 -245q0 -202 -138 -365q-185 -218 -589 -218h-92l-64 -317q-16 -80 -16 -137q0 -48 77 -54l67 -5l18 -1l-18 -93h-642z M640 705h59q190 0 307 132q118 131 118 335q0 210 -241 210h-107z" />
<glyph unicode="Q" horiz-adv-x="1593" vert-adv-y="2505" d="M1626 -113l-229 -191q-191 74 -407 255l-31 26q-100 -14 -172 -14q-270 0 -425 153t-155 427q0 405 259 689q259 285 637 285q279 0 435 -151q157 -150 157 -427q0 -357 -209 -630q-143 -188 -380 -292q255 -105 520 -130zM1082 1419q-233 0 -391 -283 q-167 -300 -167 -671q0 -403 288 -403q214 0 364 226q97 146 151 344q50 184 50 381q0 406 -295 406z" />
<glyph unicode="R" horiz-adv-x="1479" vert-adv-y="2505" d="M43 0l19 93l18 1q115 7 127 26q16 19 29 71l25 99l180 901l15 98l7 34q-5 55 -124 64l-18 1l18 92h432l92 2l90 3l92 2q164 4 268 -56q124 -71 124 -238q0 -186 -138 -341q-93 -105 -240 -162l208 -403l59 -102q46 -82 103 -88l48 -3l18 -1l-18 -93h-441l-281 648h-126 l-72 -358l-15 -99q-4 -18 -8 -39v0q8 -26 11 -29q27 -26 90 -29l19 -1l-19 -93h-592zM649 747h54q181 0 300 125q120 126 120 309q0 201 -236 201h-111z" />
<glyph unicode="S" horiz-adv-x="1139" vert-adv-y="2505" d="M104 18l62 309h160l-4 -24l-10 -65q-2 -12 -2 -35q0 -61 63 -101q63 -41 155 -41q136 0 230 97q95 96 95 227q0 116 -161 215l-88 54q-290 178 -290 384q0 196 169 337q169 142 414 142q166 0 383 -65l-60 -298h-160l2 18l11 67q0 4 1 19l1 10v7v5q0 139 -165 139 q-120 0 -206 -85q-86 -84 -86 -195q0 -101 163 -208l88 -58q173 -114 232 -192q64 -82 64 -196q0 -220 -187 -371t-468 -151q-175 0 -406 55z" />
<glyph unicode="T" horiz-adv-x="1366" vert-adv-y="2505" d="M345 0l18 93l19 1l69 5q74 5 97 52q20 39 40 139l218 1092h-180q-106 0 -129 -20q-21 -18 -32 -67q-14 -57 -17 -75q-6 -29 -7 -29l-5 -19h-161l62 308h1286l-62 -308h-160l5 31l14 91q4 27 4 44q0 44 -129 44h-181l-218 -1092q-16 -80 -16 -137q0 -33 30 -45 q15 -7 47 -9l66 -5l19 -1l-19 -93h-678z" />
<glyph unicode="U" horiz-adv-x="1479" vert-adv-y="2505" d="M295 1382l20 98h629l-18 -92l-19 -1q-116 -9 -126 -27q-16 -19 -29 -71l-25 -98l-128 -640q-34 -170 -34 -254q0 -237 249 -237q182 0 290 120q109 120 161 379l126 632l15 98l7 35q-5 54 -124 63l-18 1l18 92h466l-19 -92l-19 -1q-113 -8 -124 -26q-16 -19 -29 -72 l-25 -98l-121 -608q-63 -318 -225 -469t-442 -151q-223 0 -353 103q-131 102 -131 283q0 89 25 214l124 621l14 99l7 34q-4 56 -124 64z" />
<glyph unicode="V" horiz-adv-x="1479" vert-adv-y="2505" d="M278 1388l18 92h617l-19 -92l-19 -1l-7 -1h-13q-11 -1 -18 -1h-7q-81 0 -81 -57q0 -33 23 -135l171 -763l465 763q22 36 43 77l6 12q11 22 16 31l7 14q1 2 3 5q8 14 8 25q0 29 -54 29h-42h-4q-7 1 -11 1l-19 1l19 92h395l-19 -92l-19 -1q-72 -6 -85 -19q-16 -14 -40 -53 l-79 -122l-739 -1212h-100l-274 1212l-25 105q-15 68 -33 75q-17 10 -66 14z" />
<glyph unicode="W" horiz-adv-x="2048" vert-adv-y="2505" d="M290 1388l19 92h592l-19 -92h-18l-54 -1q-59 -1 -69 -23q-10 -20 -10 -67q0 -52 6 -108l72 -675l504 948h126l154 -980l359 703q14 28 32 67l7 15l9 20q14 31 16 36q10 19 10 33q0 30 -56 31l-46 1h-18l18 92h407l-18 -92l-19 -1l-16 -1q-19 -2 -30 -2q-47 -1 -64 -16 q-16 -14 -38 -58l-65 -125l-622 -1204h-96l-165 1027l-546 -1027h-98l-122 1208l-13 112q-7 64 -27 71q-20 10 -84 15z" />
<glyph unicode="X" horiz-adv-x="1479" vert-adv-y="2505" d="M21 0l19 93l18 1q89 6 110 23q24 17 66 66l95 109l390 448l-181 446l-43 99q-31 76 -55 87q-22 10 -80 15l-18 1l18 92h636l-19 -92h-18l-51 -1q-70 -1 -70 -39q0 -42 48 -162l123 -309l289 310q133 143 133 175q0 24 -49 25l-41 1h-18l18 92h413l-18 -92q-3 0 -7 -1 q-8 0 -11 -1l-11 3q-1 0 -7 -3q-3 -1 -29 -3q-44 -5 -61 -17t-47 -43l-128 -137l-363 -398l201 -496l59 -127q30 -65 79 -69l41 -2l19 -1l-19 -93h-635l18 93h19l53 1q72 1 72 37q0 33 -51 161l-144 360l-315 -360q-124 -142 -124 -173q0 -24 51 -25l44 -1h19l-19 -93h-419z " />
<glyph unicode="Y" horiz-adv-x="1479" vert-adv-y="2505" d="M420 0l19 93l19 1q115 7 126 26q17 20 30 71l25 99l70 350l-227 542l-19 44l-14 34q-12 28 -15 38q-28 82 -82 86l-53 3l-19 1l18 92h642l-19 -92h-16l-50 -1q-75 -1 -75 -40q0 -41 51 -166l169 -412l339 412q120 146 120 177q0 30 -90 30h-22l18 92h407l-18 -92l-19 -1 l-44 -4q-59 -6 -108 -66l-114 -135l-452 -540l-70 -352l-14 -99l-7 -34q4 -55 124 -63l18 -1l-19 -93h-629z" />
<glyph unicode="Z" horiz-adv-x="1366" vert-adv-y="2505" d="M90 0l22 111l1067 1258h-433q-91 0 -117 -14t-39 -70l-21 -98l-9 -40h-185l67 333h1097l-22 -111l-1060 -1258h432q137 0 164 11q26 12 42 76l21 83l11 46h185l-66 -327h-1156z" />
<glyph unicode="[" horiz-adv-x="682" vert-adv-y="2505" d="M83 -296l375 1875h462l-18 -92h-210l-338 -1691h210l-19 -92h-462z" />
<glyph unicode="\" horiz-adv-x="569" vert-adv-y="2505" d="M569 -296h-154l-178 1776h155z" />
<glyph unicode="]" horiz-adv-x="682" vert-adv-y="2505" d="M18 -296l18 92h210l338 1691h-210l19 92h462l-375 -1875h-462z" />
<glyph unicode="^" horiz-adv-x="1190" vert-adv-y="2505" d="M825 1149l-390 -557h-166l622 888l266 -888h-165z" />
<glyph unicode="_" vert-adv-y="2505" d="M-30 -148l30 148h1024l-30 -148h-1024z" />
<glyph unicode="`" horiz-adv-x="682" vert-adv-y="2505" d="M867 1283h-132l-343 321h299z" />
<glyph unicode="a" vert-adv-y="2505" d="M1030 93l-19 -97q-77 -21 -129 -21q-145 0 -198 152q-160 -152 -320 -152q-117 0 -186 65q-70 64 -70 178q0 199 159 317q158 119 431 119h50l26 133q21 108 21 142q0 101 -107 101q-134 0 -166 -134l-15 -63l-5 -19h-185l44 222q203 87 388 87q331 0 331 -245 q0 -43 -9 -88l-96 -482l-14 -86l-10 -60q-2 -11 -2 -22q0 -52 51 -52q13 0 30 5zM657 200l73 364h-39q-124 0 -201 -86t-77 -221q0 -124 102 -124q56 0 124 53z" />
<glyph unicode="b" horiz-adv-x="1139" vert-adv-y="2505" d="M106 -12l260 1301l18 99q7 33 7 44q0 46 -75 53l-19 2l19 92h404l-132 -663q63 93 125 139q91 68 206 68q309 0 309 -382q0 -321 -185 -543q-184 -223 -453 -223q-79 0 -186 25zM438 166q88 -50 147 -50q131 0 228 183q98 184 98 425q0 208 -142 208q-101 0 -202 -119z " />
<glyph unicode="c" horiz-adv-x="909" vert-adv-y="2505" d="M881 175l-29 -149q-174 -51 -293 -51q-197 0 -307 105q-111 105 -111 304q0 308 186 524q186 215 462 215q134 0 269 -50l-57 -283h-167l3 18l10 74q0 2 1 17v7q0 124 -89 124q-115 0 -201 -198q-107 -247 -107 -480q0 -232 199 -232q95 0 231 55z" />
<glyph unicode="d" horiz-adv-x="1139" vert-adv-y="2505" d="M736 0l37 182q-64 -93 -126 -139q-91 -68 -206 -68q-308 0 -308 382q0 321 184 544q184 222 453 222q79 0 186 -25l38 191l15 99l7 35q-6 53 -124 62l-19 2l19 92h456l-258 -1289l-17 -99l-4 -17q-3 -18 -3 -27q0 -49 75 -53l19 -1l-19 -93h-405zM923 932q-89 50 -147 50 q-133 0 -229 -183q-97 -184 -97 -425q0 -208 141 -208q102 0 202 119z" />
<glyph unicode="e" horiz-adv-x="909" vert-adv-y="2505" d="M898 193l-30 -150q-181 -68 -338 -68q-390 0 -390 402q0 310 169 528q168 218 414 218q279 0 279 -302q0 -130 -30 -260l-5 -22h-507q-23 -131 -23 -203q0 -212 192 -212q116 0 269 69zM486 632h208q46 231 46 311q0 87 -54 87q-109 0 -200 -398z" />
<glyph unicode="f" horiz-adv-x="682" vert-adv-y="2505" d="M37 0l19 93l18 1q70 5 84 28q14 20 24 69l22 99l141 709h-108l20 99h108l9 44q95 462 453 462q126 0 221 -63l-46 -233h-130l2 18l9 61q4 28 4 51q0 70 -60 70q-58 0 -87 -75q-22 -55 -50 -192l-29 -143h191l-19 -99h-191l-142 -709l-18 -99q-7 -34 -7 -44q0 -51 100 -53 l43 -1l-18 -93h-563z" />
<glyph unicode="g" vert-adv-y="2505" d="M274 39q-89 54 -89 122q0 121 234 218q-87 37 -131 87q-64 74 -64 196q0 201 130 331t339 130q109 0 204 -37l351 31l-93 -158l-181 30q53 -86 53 -176q0 -179 -138 -318q-138 -140 -319 -140q-20 0 -69 5q-74 -54 -74 -103q0 -53 115 -53h117q325 0 325 -206 q0 -175 -175 -296q-174 -122 -434 -122q-181 0 -287 54q-106 53 -106 147q0 162 292 258zM683 1026q-69 0 -127 -127q-70 -154 -70 -329q0 -130 80 -130q69 0 127 127q70 153 70 332q0 127 -80 127zM365 12q-91 -104 -91 -211q0 -128 159 -128q116 0 187 64q72 63 72 165 q0 77 -68 96q-53 14 -162 14h-97z" />
<glyph unicode="h" horiz-adv-x="1139" vert-adv-y="2505" d="M31 0l19 93l19 1q69 5 83 28q14 20 24 69l22 99l200 999l18 99q7 33 7 44q0 44 -76 53l-18 2l18 92h405l-133 -663q68 93 135 139q98 68 217 68q224 0 224 -211q0 -60 -15 -135l-97 -487l-18 -99q-7 -34 -7 -44q0 -49 75 -53l19 -1l-19 -93h-501l19 93l19 1q75 5 95 97 l22 99l90 453q17 86 17 115q0 85 -91 85q-101 0 -206 -138l-103 -515l-18 -99q-7 -35 -7 -47q0 -47 63 -50l19 -1l-19 -93h-501z" />
<glyph unicode="i" horiz-adv-x="569" vert-adv-y="2505" d="M405 1283l59 296h296l-59 -296h-296zM40 0l18 93l19 1q66 4 81 25q15 19 27 72l21 99l104 518l18 99q7 34 7 44q0 49 -76 53l-18 1l18 93h405l-162 -808l-17 -99q-7 -34 -7 -44q0 -49 75 -53l19 -1l-19 -93h-513z" />
<glyph unicode="j" horiz-adv-x="682" vert-adv-y="2505" d="M-126 -111h161l-3 -19l-10 -69q-3 -19 -3 -44q0 -85 81 -85q97 0 133 177l20 98l172 861l18 99q7 33 7 44q0 49 -76 53l-18 1l18 93h405l-215 -1076q-88 -442 -505 -442q-105 0 -239 41zM520 1283l59 296h296l-59 -296h-296z" />
<glyph unicode="k" horiz-adv-x="1139" vert-adv-y="2505" d="M31 0l18 93l19 1q66 4 81 25q15 19 27 72l21 99l200 999l18 99q7 34 7 44q0 45 -75 53l-19 2l19 92h404l-197 -987h16l260 227q59 51 80 72l57 58q21 21 21 34q0 20 -41 21l-42 1h-18l18 93h370l-18 -93l-19 -1q-79 -5 -189 -108q-67 -62 -99 -89l-140 -121l169 -399 q78 -187 130 -192l20 -1l18 -1l-18 -93h-351l-224 530h-12l-49 -240l-17 -99q-7 -34 -7 -44q0 -49 75 -53l19 -1l-19 -93h-513z" />
<glyph unicode="l" horiz-adv-x="569" vert-adv-y="2505" d="M40 0l18 93l19 1q66 4 81 25q15 19 27 72l21 99l200 999l18 99q7 34 7 44q0 45 -75 53l-19 2l19 92h404l-258 -1289l-17 -99q-7 -34 -7 -44q0 -49 75 -53l19 -1l-19 -93h-513z" />
<glyph unicode="m" horiz-adv-x="1706" vert-adv-y="2505" d="M31 0l19 93l19 1q69 5 83 28q14 20 24 69l22 99l104 518l18 99q7 34 7 44q0 49 -76 53l-18 1l18 93h405l-37 -182q68 93 132 139q96 68 210 68q116 0 174 -63q46 -51 50 -161q82 118 149 167q79 57 202 57q226 0 226 -211q0 -60 -15 -135l-97 -487l-18 -99q-7 -33 -7 -44 q0 -49 76 -53l18 -1l-19 -93h-500l18 93l19 1q75 5 95 97l22 99l91 453q16 80 16 115q0 85 -86 85q-95 0 -200 -138l-103 -515l-18 -99q-7 -34 -7 -44q0 -49 76 -53l18 -1l-18 -93h-501l18 93l19 1q75 6 95 97l22 99l91 453q17 85 17 115q0 85 -87 85q-95 0 -200 -138 l-103 -515l-18 -99q-7 -35 -7 -47q0 -47 63 -50l19 -1l-19 -93h-501z" />
<glyph unicode="n" horiz-adv-x="1139" vert-adv-y="2505" d="M31 0l19 93l19 1q69 5 83 28q14 20 24 69l22 99l104 518l18 99q7 34 7 44q0 49 -76 53l-18 1l18 93h405l-37 -182q68 93 135 139q98 68 217 68q224 0 224 -211q0 -60 -15 -135l-97 -487l-18 -99q-7 -34 -7 -44q0 -49 75 -53l19 -1l-19 -93h-501l19 93l19 1q75 5 95 97 l22 99l90 453q17 86 17 115q0 85 -91 85q-101 0 -206 -138l-103 -515l-18 -99q-7 -35 -7 -47q0 -47 63 -50l19 -1l-19 -93h-501z" />
<glyph unicode="o" vert-adv-y="2505" d="M748 1123q366 0 366 -412q0 -311 -175 -523q-174 -213 -437 -213q-361 0 -361 412q0 309 174 522q175 214 433 214zM722 1018q-80 0 -157 -166q-126 -271 -126 -572q0 -200 97 -200q76 0 153 163q127 270 127 577q0 198 -94 198z" />
<glyph unicode="p" horiz-adv-x="1139" vert-adv-y="2505" d="M201 1005l18 93h405l-36 -182q63 93 125 139q91 68 206 68q309 0 309 -382q0 -321 -185 -543q-184 -223 -453 -223q-79 0 -186 25l-20 -105l-18 -99q-7 -34 -7 -44q0 -49 75 -53l19 -1l-19 -93h-513l18 93l19 1q66 4 81 25q15 19 27 72l21 99l183 913l18 99q7 33 7 44 q0 49 -76 53zM438 166q88 -50 147 -50q131 0 228 183q98 184 98 425q0 208 -142 208q-101 0 -202 -119z" />
<glyph unicode="q" horiz-adv-x="1139" vert-adv-y="2505" d="M549 -395l18 93l19 1q70 5 84 28q14 20 24 69l22 99l57 287q-64 -93 -126 -139q-91 -68 -206 -68q-308 0 -308 382q0 321 184 544q184 222 453 222q79 0 186 -25h296l-240 -1203l-18 -99q-7 -33 -7 -44q0 -49 75 -53l19 -1l-19 -93h-513zM923 932q-89 50 -147 50 q-132 0 -229 -183q-97 -184 -97 -425q0 -208 142 -208q101 0 201 119z" />
<glyph unicode="r" horiz-adv-x="909" vert-adv-y="2505" d="M31 0l18 93l19 1q66 4 81 25q15 19 27 72l21 99l104 518l18 99q7 34 7 44q0 49 -76 53l-18 1l18 93h405l-41 -207q189 232 397 232q33 0 69 -8l-70 -350h-136l3 18l5 47q7 50 7 59q0 33 -52 33q-134 0 -244 -137l-100 -495q-16 -79 -16 -138q0 -47 77 -53l67 -5l18 -1 l-18 -93h-590z" />
<glyph unicode="s" horiz-adv-x="797" vert-adv-y="2505" d="M53 50l52 258h148l-2 -18q-16 -83 -16 -111q0 -111 119 -111q78 0 120 47q46 53 46 154q0 82 -91 150l-66 49q-167 124 -167 263q0 169 121 280q120 112 310 112q115 0 260 -44l-49 -246h-148l3 18q3 22 6 42q10 44 10 75q0 62 -69 62q-63 0 -105 -61t-42 -145 q0 -80 86 -145l50 -38q122 -93 159 -143q35 -48 35 -123q0 -168 -140 -284t-335 -116q-120 0 -295 75z" />
<glyph unicode="t" horiz-adv-x="682" vert-adv-y="2505" d="M238 999l19 99h111l37 185l307 52l-48 -237h189l-20 -99h-188l-133 -665l-17 -85q-8 -39 -8 -68q0 -88 79 -88q39 0 102 23l-21 -107q-101 -34 -183 -34q-117 0 -191 58q-75 58 -75 154q0 59 19 154l132 658h-111z" />
<glyph unicode="u" horiz-adv-x="1139" vert-adv-y="2505" d="M208 1005l18 93h405l-149 -743q-17 -85 -17 -115q0 -85 91 -85q101 0 206 138l103 515l18 99q7 34 7 47q0 47 -63 50l-19 1l19 93h392l-161 -808l-18 -99q-7 -35 -7 -44q0 -49 75 -53l19 -1l-19 -93h-404l36 182q-152 -207 -352 -207q-223 0 -223 214q0 62 14 132l98 487 l18 99q7 33 7 44q0 49 -76 53z" />
<glyph unicode="v" vert-adv-y="2505" d="M201 1005l19 93h517l-19 -93l-19 -1l-15 -1q-40 -1 -55 -10q-28 -17 -28 -60q0 -32 19 -129l81 -415l227 415l12 22q20 36 22 41l31 63q13 26 13 46q0 23 -44 26l-28 2l-18 1l19 93h309l-19 -93l-18 -1l-29 -1q-49 -3 -94 -94q-4 -7 -11 -20q-4 -8 -9 -17 q-10 -18 -36 -65l-454 -819h-91l-164 816l-20 104q-18 92 -79 96z" />
<glyph unicode="w" horiz-adv-x="1479" vert-adv-y="2505" d="M213 1005l18 93h525l-19 -93h-18q-77 -1 -89 -41q-12 -38 -12 -136v-17l14 -355l351 636h106l79 -635l158 347l29 63l27 61q14 31 14 46q0 31 -69 31h-18l18 93h358l-18 -93l-19 -1q-98 -6 -119 -39q-27 -36 -81 -156l-370 -821h-91l-96 772l-427 -772h-96l-30 819l-2 97 q-4 94 -105 100z" />
<glyph unicode="x" vert-adv-y="2505" d="M0 0l19 93l12 1l27 2q71 5 146 96l78 94l202 252l-89 280q-47 150 -68 164q-23 18 -89 22l-18 1l18 93h555l-18 -93h-19l-26 -1q-74 -3 -74 -68q0 -46 24 -123l39 -125l100 125q100 125 100 164q0 28 -64 28h-18l18 93h370l-18 -93l-19 -1h-27q-62 0 -129 -83l-88 -109 l-187 -239l94 -301q54 -170 173 -178l18 -1l-18 -93h-549l19 93h18h7q6 1 8 1l45 7q26 11 26 44q0 40 -34 144l-43 132l-103 -131q-25 -32 -51 -71l-7 -9l-9 -13q-9 -13 -13 -19q-4 -5 -7 -9q-22 -28 -22 -51q0 -21 41 -24l14 -1h18l-18 -93h-364z" />
<glyph unicode="y" vert-adv-y="2505" d="M201 1005l19 93h523l-19 -93l-19 -1h-10q-13 -1 -16 -1l-10 1l-7 -2q-28 -9 -33.5 -12.5t-11.5 -15.5q-11 -21 -11 -38q0 -2 2 -15l1 -11q5 -46 17 -106l79 -410l229 410l10 19l10 17q8 16 14 27l31 63q13 26 13 46q0 23 -44 26l-27 2l-19 1l19 93h303l-19 -93l-18 -1 l-29 -1q-49 -3 -94 -94q-4 -7 -11 -21q-23 -41 -45 -81l-670 -1202h-287l406 401l-158 798l-20 104q-18 92 -79 96z" />
<glyph unicode="z" horiz-adv-x="909" vert-adv-y="2505" d="M256 833l53 265h742l-18 -93l-654 -900h190q125 0 147 21q22 19 31 62l4 15l12 44l5 18h135l-53 -265h-798l21 105l656 900h-143q-95 0 -126 -13q-32 -13 -44 -58l-20 -83l-5 -18h-135z" />
<glyph unicode="{" horiz-adv-x="807" vert-adv-y="2505" d="M235 688h62q199 0 200 195l-3 89l-3 106l-1 66q-1 182 97 294q122 141 349 141h101l-19 -92q-119 -8 -173 -50q-59 -49 -61 -179l-1 -42l-1 -71q-3 -175 -51 -273q-76 -161 -252 -230q162 -82 162 -251q0 -91 -66 -264l-27 -71l-15 -41q-26 -71 -26 -106q0 -100 133 -109 q16 -1 40 -4l-19 -92h-103q-148 0 -233 64q-86 65 -86 173q0 89 73 256l46 105l33 75q29 66 29 118q0 100 -142 100h-61z" />
<glyph unicode="|" horiz-adv-x="451" vert-adv-y="2505" d="M92 -296l375 1875h148l-375 -1875h-148z" />
<glyph unicode="}" horiz-adv-x="807" vert-adv-y="2505" d="M829 595h-62q-199 0 -200 -195l3 -89l2 -106l2 -65q0 -183 -97 -295q-122 -141 -349 -141h-101l19 93q118 7 173 49q59 49 61 179l1 42l1 71q3 176 51 273q77 162 252 231q-162 81 -162 250q0 94 66 265l27 70l15 41q26 72 26 106q0 100 -133 109q-16 1 -40 4l18 92h104 q148 0 233 -65q86 -64 86 -173q0 -88 -73 -255l-46 -105l-33 -75q-29 -66 -29 -118q0 -100 142 -100h61z" />
<glyph unicode="~" horiz-adv-x="1065" vert-adv-y="2505" d="M226 444h-98q24 101 54 153q94 168 291 168q119 0 214 -88l42 -39q83 -77 159 -77q147 0 187 179h99q-25 -101 -54 -153q-94 -168 -292 -168q-119 0 -214 88l-42 39q-83 77 -159 77q-147 0 -187 -179z" />
<glyph vert-adv-y="2505" d="M111 555l40 99h75q11 97 38 185h-96l40 99h86q65 160 121 248q208 331 533 331q116 0 317 -65l-56 -280h-148l4 19q11 53 11 109q0 121 -129 121q-141 0 -241 -158q-68 -108 -126 -325h435l-52 -99h-406l-10 -40q-2 -8 -12 -55q-10 -51 -12 -65l-4 -25h345l-52 -99h-309 q-14 -104 -14 -156q0 -312 244 -312q110 0 261 79l-26 -131q-165 -72 -300 -72q-204 0 -329 134q-126 134 -126 361q0 39 3 97h-105z" />
<glyph unicode="&#xa0;" horiz-adv-x="512" vert-adv-y="2505" />
<glyph unicode="&#xa1;" horiz-adv-x="682" vert-adv-y="2505" d="M708 1098l-50 -247h-296l50 247h296zM522 679l-51 -765l-59 -296h-296l59 296l254 765h93z" />
<glyph unicode="&#xa2;" vert-adv-y="2505" d="M591 0l32 158q-111 15 -168 41q-209 99 -209 396q0 217 108 399q107 182 264 256q96 45 235 59l34 171h99l-34 -172l37 -5q119 -15 221 -42l-58 -293h-117q1 7 3 19q1 4 3 24q1 7 2 18q2 10 3 19q7 43 7 61q0 93 -120 104l-185 -925q120 0 279 55l-27 -135 q-138 -40 -279 -52l-31 -156h-99zM833 1210q-125 -40 -208 -186q-112 -198 -112 -457q0 -132 53 -198q30 -39 87 -62z" />
<glyph unicode="&#xa3;" vert-adv-y="2505" d="M49 0l47 234q179 39 234 307l36 181h-160l21 105h160l33 162q52 255 185 391q135 137 328 137q100 0 283 -59l-52 -261h-135q13 81 13 128q0 92 -101 92q-89 0 -132 -77q-36 -64 -64 -205l-62 -308h210l-19 -93h-209l-24 -118q-52 -256 -376 -382h707l-47 -234h-876z" />
<glyph unicode="&#xa4;" vert-adv-y="2505" d="M127 344l170 142q-43 80 -43 164q0 169 140 320l-114 142l84 70l113 -142q129 83 260 83q128 0 225 -83l170 142l56 -70l-170 -142q42 -80 42 -163q0 -170 -139 -322l113 -141l-84 -70l-113 142q-127 -83 -258 -83q-128 0 -226 83l-170 -142zM705 975q-116 0 -208 -91 q-91 -90 -91 -205q0 -79 47 -131q59 -67 156 -67q117 0 208 91q92 90 92 205q0 88 -57 143q-58 55 -147 55z" />
<glyph unicode="&#xa5;" vert-adv-y="2505" d="M229 0l18 93l17 1q105 7 117 27q15 19 28 70l25 99l18 92h-237l18 93h238l34 173h-237l18 92h238l-136 454q-59 194 -111 194l19 92h458l-18 -92q-6 0 -13 -1h-4h-2l-9 1l-7 -2q-28 -4 -34 -8q-20 -13 -18 -26l1 -8q2 -12 4 -20l17 -62q4 -11 8 -27q8 -25 13 -42l92 -307 h3l215 307l46 71q37 57 44 79l5 19l2 9q-3 17 -45 17h-17h-5l19 92h269l-19 -92q-54 -4 -188 -194l-318 -454h238l-19 -92h-237l-35 -173h238l-19 -93h-237l-19 -92l-15 -99l-8 -38q6 -52 114 -59h2q4 -1 8 -1h6l-18 -93h-565z" />
<glyph unicode="&#xa6;" horiz-adv-x="451" vert-adv-y="2505" d="M92 -296l148 740h148l-148 -740h-148zM319 839l148 740h148l-148 -740h-148z" />
<glyph unicode="&#xa7;" vert-adv-y="2505" d="M35 -261l56 280h135l-2 -19q-1 -6 -3 -22q-2 -9 -3 -18q-2 -15 -4 -21q-6 -24 -6 -42q0 -51 73 -88q72 -37 168 -37q106 0 182 71t76 160q0 75 -152 154l-107 56q-138 72 -194 141q-57 69 -57 166q0 181 227 361q-119 82 -119 211q0 185 148 305q147 120 385 120 q170 0 339 -54l-58 -291h-136l3 19q8 58 14 81q5 22 5 37q0 48 -55 82t-132 34q-101 0 -181 -75q-79 -75 -79 -166q0 -76 126 -140l100 -51q145 -74 203 -146q59 -73 59 -174q0 -162 -206 -367q113 -85 113 -224q0 -179 -148 -291t-392 -112q-181 0 -378 60zM778 358 q63 99 63 184q0 87 -82 133l-135 76l-136 81q-67 -87 -67 -176q0 -73 58 -121q46 -39 141 -91z" />
<glyph unicode="&#xa8;" horiz-adv-x="682" vert-adv-y="2505" d="M289 1283l42 210h209l-42 -210h-209zM696 1283l42 210h209l-42 -210h-209z" />
<glyph unicode="&#xa9;" horiz-adv-x="1530" vert-adv-y="2505" d="M1073 1481q262 0 433 -170q172 -169 172 -427q0 -343 -278 -613q-277 -271 -632 -271q-233 0 -395 137q-206 175 -206 459q0 346 277 615q278 270 629 270zM1053 1382q-305 0 -545 -234t-240 -532q0 -224 148 -370q147 -147 376 -147q271 0 493 188q292 248 292 577 q0 225 -149 371q-149 147 -375 147zM1317 1122l-36 -182h-99l19 96q-87 39 -156 39q-137 0 -235 -123q-99 -123 -99 -292q0 -111 65 -179q64 -67 172 -67q111 0 240 52l-22 -109q-151 -40 -274 -40q-360 0 -360 333q0 216 149 361q148 146 372 146q116 0 264 -35z" />
<glyph unicode="&#xaa;" horiz-adv-x="614" vert-adv-y="2505" d="M796 895l-12 -59q-47 -13 -81 -13q-91 0 -123 92q-77 -92 -189 -92q-153 0 -153 146q0 122 96 194q96 71 261 71h24l16 81q13 66 13 85q0 62 -58 62q-77 0 -96 -81l-9 -39l-3 -11h-118l27 134q123 53 234 53q201 0 201 -149q0 -28 -5 -53l-59 -291l-8 -52l-6 -37 q0 -2 -1 -6v-3v-3q0 -32 31 -32q3 0 12 2q4 0 6 1zM564 959l44 220h-17q-161 0 -161 -187q0 -74 55 -74q56 0 79 41z" />
<glyph unicode="&#xab;" vert-adv-y="2505" d="M716 925l-296 -376l145 -376l-88 -62l-357 438l533 438zM1184 925l-296 -376l145 -373l-87 -55l-358 428l532 434z" />
<glyph unicode="&#xac;" horiz-adv-x="1167" vert-adv-y="2505" d="M238 740l30 148h987l-119 -592h-148l89 444h-839z" />
<glyph unicode="&#xad;" horiz-adv-x="682" vert-adv-y="2505" d="M153 518l29 148h584l-30 -148h-583z" />
<glyph unicode="&#xae;" horiz-adv-x="1530" vert-adv-y="2505" d="M1073 1481q262 0 433 -170q172 -169 172 -427q0 -343 -278 -613q-277 -271 -632 -271q-233 0 -395 137q-206 175 -206 459q0 346 277 615q278 270 629 270zM1053 1382q-305 0 -545 -234t-240 -532q0 -224 148 -370q147 -147 376 -147q271 0 493 188q292 248 292 577 q0 225 -149 371q-149 147 -375 147zM511 345l11 56l10 1q62 5 69 14q9 9 16 38l13 54l95 475l8 54l4 19q-5 28 -67 33l-10 1l11 56h240h50l49 2l50 1q88 2 144 -31q67 -38 67 -128q0 -100 -75 -184q-51 -57 -130 -88l114 -214l31 -56q23 -41 56 -47l-11 -56h-214l-140 351 h-68l-37 -188l-9 -54l-4 -22q3 -26 55 -30l10 -1l-11 -56h-327zM845 751h30q93 0 157 67t64 161q0 107 -124 107h-60z" />
<glyph unicode="&#xaf;" vert-adv-y="2505" d="M378 1456l30 148h851l-30 -148h-851z" />
<glyph unicode="&#xb0;" horiz-adv-x="819" vert-adv-y="2505" d="M718 1517q106 0 175 -67q69 -66 69 -170q0 -139 -111 -247t-255 -108q-92 0 -156 55q-83 70 -83 182q0 139 110 247t251 108zM696 1406q-89 0 -157 -67q-68 -68 -68 -154q0 -65 42 -107q43 -42 108 -42q79 0 143 54q84 71 84 169q0 65 -43 106q-42 41 -109 41z" />
<glyph unicode="&#xb1;" horiz-adv-x="1167" vert-adv-y="2505" d="M90 0l30 148h987l-30 -148h-987zM569 296l74 370h-420l30 148h419l74 370h148l-74 -370h420l-30 -148h-419l-74 -370h-148z" />
<glyph unicode="&#xb2;" horiz-adv-x="614" vert-adv-y="2505" d="M147 592l24 119q68 112 228 237l53 42q195 155 195 328q0 114 -98 114q-55 0 -143 -46l-19 -93h-85l33 164q135 46 268 46q240 0 240 -189q0 -168 -207 -295l-81 -50l-50 -32q-142 -90 -168 -186h397l-31 -159h-556z" />
<glyph unicode="&#xb3;" horiz-adv-x="614" vert-adv-y="2505" d="M155 604l31 155h81l-2 -11q-4 -23 -4 -44q0 -65 104 -65q78 0 131 71q54 72 54 168q0 147 -189 147h-51l14 69h54q236 0 236 228q0 111 -94 111q-102 0 -133 -112l-3 -11h-82l30 150q118 43 253 43q229 0 229 -170q0 -130 -114 -203q-53 -35 -152 -61q88 -16 135 -50 q68 -49 68 -145q0 -132 -105 -218t-276 -86q-131 0 -215 34z" />
<glyph unicode="&#xb4;" horiz-adv-x="682" vert-adv-y="2505" d="M328 1283l305 321h299l-471 -321h-133z" />
<glyph unicode="&#xb5;" horiz-adv-x="1139" vert-adv-y="2505" d="M52 -345l231 1153l18 99q7 34 7 44q0 48 -76 53l-18 1l18 93h405l-149 -743q-17 -84 -17 -115q0 -85 91 -85q101 0 206 138l161 805h296l-161 -808l-18 -99q-7 -35 -7 -44q0 -49 75 -53l19 -1l-19 -93h-404l36 182q-88 -119 -133 -157q-51 -44 -127 -44q-34 0 -69 19 l-69 -345h-296z" />
<glyph unicode="&#xb6;" horiz-adv-x="1106" vert-adv-y="2505" d="M433 -296l207 1036q-107 12 -162 36q-175 75 -175 288q0 219 147 339q108 89 259 85l80 -2l194 -6h225l-356 -1776h-92l331 1653h-241l-331 -1653h-86z" />
<glyph unicode="&#xb7;" horiz-adv-x="512" vert-adv-y="2505" d="M202 469l59 296h296l-59 -296h-296z" />
<glyph unicode="&#xb8;" horiz-adv-x="682" vert-adv-y="2505" d="M57 -407l17 85q69 -21 111 -21q107 0 107 83q0 71 -164 73l130 187h109l-79 -114q203 -13 203 -133q0 -82 -76 -133q-75 -52 -198 -52q-74 0 -160 25z" />
<glyph unicode="&#xb9;" horiz-adv-x="614" vert-adv-y="2505" d="M240 592l14 74q8 1 10 1q11 0 14 1q8 1 10 1l8 -1l5 2l5 -2l6 1q39 3 52 28t24 83l91 454q11 55 11 82q0 30 -41 30h-7q-11 0 -29 -2q-15 -1 -23 -2l14 72l314 89l-145 -723q-10 -50 -10 -77q0 -35 52 -35h4h16l9 -1q12 -1 17 -1l-14 -74h-407z" />
<glyph unicode="&#xba;" horiz-adv-x="676" vert-adv-y="2505" d="M643 1517q246 0 246 -251q0 -191 -110 -317t-282 -126q-239 0 -239 252q0 189 109 315q110 127 276 127zM629 1437q-65 0 -118 -113q-64 -137 -64 -298q0 -122 77 -122q53 0 99 87q77 144 77 327q0 119 -71 119z" />
<glyph unicode="&#xbb;" vert-adv-y="2505" d="M678 925l88 62l358 -438l-532 -438l-64 62l295 376zM210 925l87 58l359 -434l-530 -428l-65 55l294 373z" />
<glyph unicode="&#xbc;" horiz-adv-x="1536" vert-adv-y="2505" d="M217 592l15 74q8 1 10 1q11 0 14 1q8 1 10 1q7 -1 8 -1l4 2l5 -2l6 1q39 3 52 28q14 23 25 83l90 454q11 56 11 82q0 30 -40 30h-8q-14 -1 -29 -2t-23 -2l14 72l314 89l-144 -723q-10 -50 -10 -77q0 -35 52 -35h4h16l9 -1q12 -1 17 -1l-15 -74h-407zM165 -37l1419 1554 h123l-1418 -1554h-124zM1201 238h-321l25 125l442 536h171l-102 -513h98l-29 -148h-99l-11 -56q-10 -50 -10 -77q0 -31 45 -34l16 -1l12 -1l-14 -69h-356l14 69l11 1q57 2 71 27q13 24 26 85zM1011 386h220l70 352z" />
<glyph unicode="&#xbd;" horiz-adv-x="1536" vert-adv-y="2505" d="M167 592l15 74q8 1 10 1q11 0 14 1q8 1 10 1l7 -1l5 2l5 -2l6 1q40 3 53 28q13 26 24 83l91 454q11 55 11 82q0 30 -41 30h-8q-15 -1 -29 -2q-15 -1 -23 -2l15 72l314 89l-145 -723q-10 -50 -10 -77q0 -35 52 -35h4h15l10 -1q12 -1 17 -1l-14 -74h-408zM85 -37l1418 1554 h124l-1419 -1554h-123zM934 34l31 155h82l-2 -11q-3 -19 -3 -34l-1 -11q0 -64 102 -64q80 0 133 71q54 72 54 169q0 146 -190 146h-50l14 70h53q237 0 237 227q0 112 -94 112q-102 0 -133 -113l-3 -11h-82l30 151q119 42 251 42q231 0 231 -170q0 -130 -114 -203 q-53 -35 -152 -61q88 -16 135 -50q68 -49 68 -144q0 -132 -106 -219q-105 -86 -275 -86q-131 0 -216 34z" />
<glyph unicode="&#xbe;" horiz-adv-x="1536" vert-adv-y="2505" d="M207 604l31 155h81l-1 -11q-4 -31 -4 -44q0 -65 103 -65q79 0 132 71q53 72 53 168q0 147 -189 147h-50l14 69h53q236 0 236 228q0 111 -93 111q-53 0 -88 -29q-36 -32 -46 -83l-2 -11h-82l30 150q119 43 251 43q231 0 231 -173q0 -127 -114 -200q-53 -35 -152 -61 q89 -17 134 -50q68 -50 68 -145q0 -131 -105 -218q-105 -86 -275 -86q-132 0 -216 34zM202 -37l1419 1554h123l-1418 -1554h-124zM1213 238h-320l25 125l441 536h172l-103 -513h99l-30 -148h-99l-11 -56q-9 -46 -9 -77q0 -32 44 -34l17 -1l11 -1l-14 -69h-355l14 69l11 1 q56 2 70 27q13 24 26 85zM1024 386h219l70 352z" />
<glyph unicode="&#xbf;" vert-adv-y="2505" d="M970 1098l-49 -247h-296l49 247h296zM886 679l-3 -16q-32 -166 -211 -298l-75 -55q-233 -171 -233 -416q0 -221 203 -221q195 0 226 150l16 78l5 19h136l-55 -276q-206 -64 -409 -64q-206 0 -325 75q-118 75 -118 203q0 118 96 218q46 49 137 107q24 16 46 31 q33 22 40 27l53 39q102 75 145 263l27 116l3 20h296z" />
<glyph unicode="&#xc0;" horiz-adv-x="1479" vert-adv-y="2505" d="M0 0l18 93l19 1q81 5 140 96l66 102l747 1201h103l270 -1203q41 -186 95 -194l27 -2l12 -1l-19 -93h-530l18 93l20 1l36 2q52 3 52 52q0 17 -12 75l-15 69l-35 158h-549l-100 -159q-87 -139 -87 -166q0 -26 44 -29l26 -2l18 -1l-19 -93h-345zM525 549h465l-122 549z M1248 1604h-132l-343 321h299z" />
<glyph unicode="&#xc1;" horiz-adv-x="1479" vert-adv-y="2505" d="M0 0l18 93l19 1q81 5 140 96l66 102l747 1201h103l270 -1203q41 -186 95 -194l27 -2l12 -1l-19 -93h-530l18 93l20 1l36 2q52 3 52 52q0 17 -12 75l-15 69l-35 158h-549l-100 -159q-87 -139 -87 -166q0 -26 44 -29l26 -2l18 -1l-19 -93h-345zM525 549h465l-122 549z M880 1604l304 321h300l-472 -321h-132z" />
<glyph unicode="&#xc2;" horiz-adv-x="1479" vert-adv-y="2505" d="M0 0l18 93l19 1q81 5 140 96l66 102l747 1201h103l270 -1203q41 -186 95 -194l27 -2l12 -1l-19 -93h-530l18 93l20 1l36 2q52 3 52 52q0 17 -12 75l-15 69l-35 158h-549l-100 -159q-87 -139 -87 -166q0 -26 44 -29l26 -2l18 -1l-19 -93h-345zM525 549h465l-122 549z M700 1604l305 321h246l177 -321h-117l-208 194l-286 -194h-117z" />
<glyph unicode="&#xc3;" horiz-adv-x="1479" vert-adv-y="2505" d="M0 0l18 93l19 1q81 5 140 96l66 102l747 1201h103l270 -1203q41 -186 95 -194l27 -2l12 -1l-19 -93h-530l18 93l20 1l36 2q52 3 52 52q0 17 -12 75l-15 69l-35 158h-549l-100 -159q-87 -139 -87 -166q0 -26 44 -29l26 -2l18 -1l-19 -93h-345zM525 549h465l-122 549z M715 1604q26 106 65 163q69 102 188 102q65 0 127 -33l67 -36q66 -35 104 -35q80 0 107 104h93q-26 -106 -64 -163q-68 -102 -188 -102q-66 0 -128 33l-67 36q-66 35 -104 35q-80 0 -107 -104h-93z" />
<glyph unicode="&#xc4;" horiz-adv-x="1479" vert-adv-y="2505" d="M0 0l18 93l19 1q81 5 140 96l66 102l747 1201h103l270 -1203q41 -186 95 -194l27 -2l12 -1l-19 -93h-530l18 93l20 1l36 2q52 3 52 52q0 17 -12 75l-15 69l-35 158h-549l-100 -159q-87 -139 -87 -166q0 -26 44 -29l26 -2l18 -1l-19 -93h-345zM525 549h465l-122 549z M756 1604l41 210h210l-42 -210h-209zM1163 1604l42 210h209l-42 -210h-209z" />
<glyph unicode="&#xc5;" horiz-adv-x="1479" vert-adv-y="2505" d="M0 0l18 93l19 1q81 5 140 96l66 102l747 1201h103l270 -1203q41 -186 95 -194l27 -2l12 -1l-19 -93h-530l18 93l20 1l36 2q52 3 52 52q0 17 -12 75l-15 69l-35 158h-549l-100 -159q-87 -139 -87 -166q0 -26 44 -29l26 -2l18 -1l-19 -93h-345zM525 549h465l-122 549z M1136 1964q83 0 138 -54q54 -53 54 -134q0 -110 -88 -195q-87 -86 -199 -86q-75 0 -127 43q-64 54 -64 145q0 109 87 195q88 86 199 86zM1119 1871q-69 0 -122 -52t-53 -120q0 -112 114 -112q63 0 112 42q64 55 64 130q0 112 -115 112z" />
<glyph unicode="&#xc6;" horiz-adv-x="2048" vert-adv-y="2505" d="M0 0l19 93l19 1q65 5 133 90l82 101l975 1195h1014l-53 -265h-173l3 19q5 37 8 57v3q1 5 2 6q2 8 3 9q1 6 2 7l3 6l-1 3q-8 25 -17 33q-35 24 -120 24h-394l-113 -562h283l98 2q45 1 53 14q8 12 13 38q5 20 12 45l5 19h129l-64 -321h-129l2 18l2 11q2 14 3 25q2 9 2 19 q0 5 1 8v6q0 24 -51 26l-92 4h-284l-89 -444q-15 -75 -15 -133q0 -31 30 -42q18 -7 59 -8l81 -2h201l114 3q70 1 87 56l24 95l5 19h173l-56 -278h-1217l18 93l19 1q110 6 124 23q18 18 32 74l25 99l30 148h-524l-126 -153q-44 -53 -63 -80l-36 -50q-15 -21 -15 -32 q0 -24 58 -27l44 -2h18l-18 -94h-358zM579 530h459l149 745z" />
<glyph unicode="&#xc7;" horiz-adv-x="1479" vert-adv-y="2505" d="M1440 197l-28 -140q-262 -94 -531 -94q-671 0 -671 588q0 367 228 647q260 319 752 319q225 0 475 -65l-61 -305h-173l4 19l8 58l2 17q4 24 4 35q0 58 -86 100q-87 43 -205 43q-279 0 -448 -265q-77 -122 -127 -307q-51 -187 -51 -349q0 -411 438 -411q200 0 470 110z M584 -407l17 85q69 -21 111 -21q107 0 107 83q0 71 -164 73l130 187h109l-79 -114q90 -6 136 -28q67 -33 67 -106q0 -81 -75 -132q-76 -52 -198 -52q-75 0 -161 25z" />
<glyph unicode="&#xc8;" horiz-adv-x="1366" vert-adv-y="2505" d="M55 0l19 93l19 1q115 7 126 26q17 20 30 71l25 99l180 901l14 98l7 34q-4 55 -124 64l-18 1l18 92h1209l-53 -265h-173l3 19l4 26q4 32 5 34q3 12 4 15q1 5 2 7q2 5 2 8q0 58 -136 58h-417l-113 -562h305l98 2q45 1 53 14q8 12 13 38q5 20 12 45l5 19h130l-65 -321h-129 l2 18q0 2 2 11l1 10q1 6 2 15l1 4q3 16 3 30q0 23 -51 25l-93 4h-306l-89 -444q-16 -80 -16 -133q0 -31 30 -42q19 -7 59 -8l82 -2h223l114 3q70 1 87 56l24 95l5 19h173l-56 -278h-1252zM1163 1604h-133l-343 321h299z" />
<glyph unicode="&#xc9;" horiz-adv-x="1366" vert-adv-y="2505" d="M55 0l19 93l19 1q115 7 126 26q17 20 30 71l25 99l180 901l14 98l7 34q-4 55 -124 64l-18 1l18 92h1209l-53 -265h-173l3 19l4 26q4 32 5 34q3 12 4 15q1 5 2 7q2 5 2 8q0 58 -136 58h-417l-113 -562h305l98 2q45 1 53 14q8 12 13 38q5 20 12 45l5 19h130l-65 -321h-129 l2 18q0 2 2 11l1 10q1 6 2 15l1 4q3 16 3 30q0 23 -51 25l-93 4h-306l-89 -444q-16 -80 -16 -133q0 -31 30 -42q19 -7 59 -8l82 -2h223l114 3q70 1 87 56l24 95l5 19h173l-56 -278h-1252zM845 1604l305 321h299l-471 -321h-133z" />
<glyph unicode="&#xca;" horiz-adv-x="1366" vert-adv-y="2505" d="M55 0l19 93l19 1q115 7 126 26q17 20 30 71l25 99l180 901l14 98l7 34q-4 55 -124 64l-18 1l18 92h1209l-53 -265h-173l3 19l4 26q4 32 5 34q3 12 4 15q1 5 2 7q2 5 2 8q0 58 -136 58h-417l-113 -562h305l98 2q45 1 53 14q8 12 13 38q5 20 12 45l5 19h130l-65 -321h-129 l2 18q0 2 2 11l1 10q1 6 2 15l1 4q3 16 3 30q0 23 -51 25l-93 4h-306l-89 -444q-16 -80 -16 -133q0 -31 30 -42q19 -7 59 -8l82 -2h223l114 3q70 1 87 56l24 95l5 19h173l-56 -278h-1252zM691 1604l304 321h247l176 -321h-117l-207 194l-286 -194h-117z" />
<glyph unicode="&#xcb;" horiz-adv-x="1366" vert-adv-y="2505" d="M55 0l19 93l19 1q115 7 126 26q17 20 30 71l25 99l180 901l14 98l7 34q-4 55 -124 64l-18 1l18 92h1209l-53 -265h-173l3 19l4 26q4 32 5 34q3 12 4 15q1 5 2 7q2 5 2 8q0 58 -136 58h-417l-113 -562h305l98 2q45 1 53 14q8 12 13 38q5 20 12 45l5 19h130l-65 -321h-129 l2 18q0 2 2 11l1 10q1 6 2 15l1 4q3 16 3 30q0 23 -51 25l-93 4h-306l-89 -444q-16 -80 -16 -133q0 -31 30 -42q19 -7 59 -8l82 -2h223l114 3q70 1 87 56l24 95l5 19h173l-56 -278h-1252zM746 1604l42 210h210l-42 -210h-210zM1153 1604l42 210h210l-42 -210h-210z" />
<glyph unicode="&#xcc;" horiz-adv-x="797" vert-adv-y="2505" d="M84 0l19 93l18 1q115 7 127 26q16 19 29 71l25 99l180 901l15 98l7 34q-5 55 -124 64l-18 1l18 92h629l-18 -92l-19 -1q-118 -9 -127 -27q-16 -18 -29 -71l-25 -98l-180 -901l-15 -99l-6 -34q4 -55 123 -63l19 -1l-19 -93h-629zM945 1604h-133l-343 321h299z" />
<glyph unicode="&#xcd;" horiz-adv-x="797" vert-adv-y="2505" d="M84 0l19 93l18 1q115 7 127 26q16 19 29 71l25 99l180 901l15 98l7 34q-5 55 -124 64l-18 1l18 92h629l-18 -92l-19 -1q-118 -9 -127 -27q-16 -18 -29 -71l-25 -98l-180 -901l-15 -99l-6 -34q4 -55 123 -63l19 -1l-19 -93h-629zM494 1604l305 321h299l-471 -321h-133z " />
<glyph unicode="&#xce;" horiz-adv-x="797" vert-adv-y="2505" d="M84 0l19 93l18 1q115 7 127 26q16 19 29 71l25 99l180 901l15 98l7 34q-5 55 -124 64l-18 1l18 92h629l-18 -92l-19 -1q-118 -9 -127 -27q-16 -18 -29 -71l-25 -98l-180 -901l-15 -99l-6 -34q4 -55 123 -63l19 -1l-19 -93h-629zM355 1604l305 321h247l176 -321h-117 l-208 194l-285 -194h-118z" />
<glyph unicode="&#xcf;" horiz-adv-x="797" vert-adv-y="2505" d="M84 0l19 93l18 1q115 7 127 26q16 19 29 71l25 99l180 901l15 98l7 34q-5 55 -124 64l-18 1l18 92h629l-18 -92l-19 -1q-118 -9 -127 -27q-16 -18 -29 -71l-25 -98l-180 -901l-15 -99l-6 -34q4 -55 123 -63l19 -1l-19 -93h-629zM411 1604l42 210h210l-42 -210h-210z M818 1604l42 210h210l-42 -210h-210z" />
<glyph unicode="&#xd0;" horiz-adv-x="1479" vert-adv-y="2505" d="M599 703l-82 -413q-13 -66 -13 -111q0 -49 58 -63q43 -11 122 -11q244 0 411 278q161 269 161 599q0 201 -110 299q-112 101 -346 101h-65l-116 -580h296l-20 -99h-296zM43 0l19 93l18 1q70 5 84 28q14 20 24 69l22 99l82 413h-108l19 99h109l78 389l18 98q7 35 7 45 q0 49 -76 53l-18 1l18 92h434l74 1l92 2l74 1q213 3 350 -77q215 -127 215 -451q0 -316 -185 -588q-250 -368 -689 -368h-661z" />
<glyph unicode="&#xd1;" horiz-adv-x="1479" vert-adv-y="2505" d="M44 0l19 93l18 1q115 7 127 26q16 19 29 71l25 99l180 901l15 98l7 34q-5 55 -124 64l-18 1l18 92h385l448 -1099l162 810l15 98l7 35q-5 55 -124 63l-19 1l19 92h466l-18 -92l-19 -1q-117 -9 -126 -27q-16 -18 -29 -71l-25 -98l-242 -1212h-218l-455 1102l-158 -791 l-14 -99l-7 -34q4 -55 124 -63l18 -1l-19 -93h-467zM706 1604q26 106 65 163q69 102 188 102q66 0 127 -33l67 -36q65 -35 104 -35q80 0 107 104h93q-26 -107 -64 -163q-68 -102 -188 -102q-66 0 -128 33l-67 36q-66 35 -104 35q-80 0 -107 -104h-93z" />
<glyph unicode="&#xd2;" horiz-adv-x="1593" vert-adv-y="2505" d="M1102 1517q280 0 436 -151q157 -151 157 -431q0 -409 -262 -690q-263 -282 -650 -282q-240 0 -389 125q-187 155 -187 456q0 405 259 688q260 285 636 285zM1082 1419q-233 0 -391 -283q-167 -300 -167 -671q0 -403 288 -403q214 0 363 226q98 148 151 344q51 183 51 381 q0 406 -295 406zM1256 1604h-133l-343 321h300z" />
<glyph unicode="&#xd3;" horiz-adv-x="1593" vert-adv-y="2505" d="M1102 1517q280 0 436 -151q157 -151 157 -431q0 -409 -262 -690q-263 -282 -650 -282q-240 0 -389 125q-187 155 -187 456q0 405 259 688q260 285 636 285zM1082 1419q-233 0 -391 -283q-167 -300 -167 -671q0 -403 288 -403q214 0 363 226q98 148 151 344q51 183 51 381 q0 406 -295 406zM991 1604l304 321h300l-472 -321h-132z" />
<glyph unicode="&#xd4;" horiz-adv-x="1593" vert-adv-y="2505" d="M1102 1517q280 0 436 -151q157 -151 157 -431q0 -409 -262 -690q-263 -282 -650 -282q-240 0 -389 125q-187 155 -187 456q0 405 259 688q260 285 636 285zM1082 1419q-233 0 -391 -283q-167 -300 -167 -671q0 -403 288 -403q214 0 363 226q98 148 151 344q51 183 51 381 q0 406 -295 406zM759 1604l305 321h247l176 -321h-117l-208 194l-285 -194h-118z" />
<glyph unicode="&#xd5;" horiz-adv-x="1593" vert-adv-y="2505" d="M1102 1517q280 0 436 -151q157 -151 157 -431q0 -409 -262 -690q-263 -282 -650 -282q-240 0 -389 125q-187 155 -187 456q0 405 259 688q260 285 636 285zM1082 1419q-233 0 -391 -283q-167 -300 -167 -671q0 -403 288 -403q214 0 363 226q98 148 151 344q51 183 51 381 q0 406 -295 406zM775 1604q26 106 64 163q69 102 189 102q64 0 126 -33l67 -36q66 -35 104 -35q80 0 107 104h93q-26 -106 -64 -163q-68 -102 -188 -102q-66 0 -127 33l-67 36q-65 35 -104 35q-80 0 -108 -104h-92z" />
<glyph unicode="&#xd6;" horiz-adv-x="1593" vert-adv-y="2505" d="M1102 1517q280 0 436 -151q157 -151 157 -431q0 -409 -262 -690q-263 -282 -650 -282q-240 0 -389 125q-187 155 -187 456q0 405 259 688q260 285 636 285zM1082 1419q-233 0 -391 -283q-167 -300 -167 -671q0 -403 288 -403q214 0 363 226q98 148 151 344q51 183 51 381 q0 406 -295 406zM815 1604l42 210h210l-42 -210h-210zM1222 1604l42 210h210l-42 -210h-210z" />
<glyph unicode="&#xd7;" horiz-adv-x="1167" vert-adv-y="2505" d="M152 243l450 375l-300 375l125 105l301 -375l450 375l83 -105l-450 -375l300 -375l-125 -105l-300 375l-451 -375z" />
<glyph unicode="&#xd8;" horiz-adv-x="1593" vert-adv-y="2505" d="M67 -37l233 223q-99 166 -99 361q0 404 260 687q259 283 638 283q261 0 434 -153l160 153h130l-233 -222q98 -166 98 -362q0 -400 -259 -685q-258 -285 -633 -285q-259 0 -440 153l-160 -153h-129zM538 290q35 -126 110 -179q66 -49 166 -49q247 0 402 307 q77 151 123 367q34 159 31 268l-2 79zM1351 1191q-36 126 -110 179q-67 49 -166 49q-246 0 -402 -306q-77 -150 -123 -369q-33 -158 -31 -266l2 -81z" />
<glyph unicode="&#xd9;" horiz-adv-x="1479" vert-adv-y="2505" d="M295 1382l20 98h629l-18 -92l-19 -1q-116 -9 -126 -27q-16 -19 -29 -71l-25 -98l-128 -640q-34 -170 -34 -254q0 -237 249 -237q182 0 290 120q109 120 161 379l126 632l15 98l7 35q-5 54 -124 63l-18 1l18 92h466l-19 -92l-19 -1q-113 -8 -124 -26q-16 -19 -29 -72 l-25 -98l-121 -608q-63 -318 -225 -469t-442 -151q-223 0 -353 103q-131 102 -131 283q0 89 25 214l124 621l14 99l7 34q-4 56 -124 64zM1249 1604h-132l-343 321h299z" />
<glyph unicode="&#xda;" horiz-adv-x="1479" vert-adv-y="2505" d="M295 1382l20 98h629l-18 -92l-19 -1q-116 -9 -126 -27q-16 -19 -29 -71l-25 -98l-128 -640q-34 -170 -34 -254q0 -237 249 -237q182 0 290 120q109 120 161 379l126 632l15 98l7 35q-5 54 -124 63l-18 1l18 92h466l-19 -92l-19 -1q-113 -8 -124 -26q-16 -19 -29 -72 l-25 -98l-121 -608q-63 -318 -225 -469t-442 -151q-223 0 -353 103q-131 102 -131 283q0 89 25 214l124 621l14 99l7 34q-4 56 -124 64zM984 1604l305 321h299l-471 -321h-133z" />
<glyph unicode="&#xdb;" horiz-adv-x="1479" vert-adv-y="2505" d="M295 1382l20 98h629l-18 -92l-19 -1q-116 -9 -126 -27q-16 -19 -29 -71l-25 -98l-128 -640q-34 -170 -34 -254q0 -237 249 -237q182 0 290 120q109 120 161 379l126 632l15 98l7 35q-5 54 -124 63l-18 1l18 92h466l-19 -92l-19 -1q-113 -8 -124 -26q-16 -19 -29 -72 l-25 -98l-121 -608q-63 -318 -225 -469t-442 -151q-223 0 -353 103q-131 102 -131 283q0 89 25 214l124 621l14 99l7 34q-4 56 -124 64zM753 1604l304 321h247l177 -321h-118l-207 194l-286 -194h-117z" />
<glyph unicode="&#xdc;" horiz-adv-x="1479" vert-adv-y="2505" d="M295 1382l20 98h629l-18 -92l-19 -1q-116 -9 -126 -27q-16 -19 -29 -71l-25 -98l-128 -640q-34 -170 -34 -254q0 -237 249 -237q182 0 290 120q109 120 161 379l126 632l15 98l7 35q-5 54 -124 63l-18 1l18 92h466l-19 -92l-19 -1q-113 -8 -124 -26q-16 -19 -29 -72 l-25 -98l-121 -608q-63 -318 -225 -469t-442 -151q-223 0 -353 103q-131 102 -131 283q0 89 25 214l124 621l14 99l7 34q-4 56 -124 64zM808 1604l42 210h210l-42 -210h-210zM1215 1604l42 210h210l-42 -210h-210z" />
<glyph unicode="&#xdd;" horiz-adv-x="1479" vert-adv-y="2505" d="M420 0l19 93l19 1q115 7 126 26q17 20 30 71l25 99l70 350l-227 542l-19 44l-14 34q-12 28 -15 38q-28 82 -82 86l-53 3l-19 1l18 92h642l-19 -92h-16l-50 -1q-75 -1 -75 -40q0 -41 51 -166l169 -412l339 412q120 146 120 177q0 30 -90 30h-22l18 92h407l-18 -92l-19 -1 l-44 -4q-59 -6 -108 -66l-114 -135l-452 -540l-70 -352l-14 -99l-7 -34q4 -55 124 -63l18 -1l-19 -93h-629zM927 1604l305 321h299l-471 -321h-133z" />
<glyph unicode="&#xde;" horiz-adv-x="1258" vert-adv-y="2505" d="M43 0l19 93l18 1q115 7 127 26q16 19 29 71l25 99l180 901l15 98l7 34q-5 55 -124 64l-18 1l18 92h617l-19 -92l-18 -1q-107 -8 -130 -50q-24 -40 -53 -153h95q330 0 423 -51q131 -72 131 -243q0 -198 -138 -362q-186 -220 -590 -220h-96q-2 -14 -8 -45q-4 -26 -7 -44 l-3 -18q-2 -8 -3 -16q-5 -22 -5 -44q0 -36 67 -42l58 -5l18 -1l-18 -93h-617zM581 407h63q190 0 307 131q118 133 118 339q0 209 -241 209h-111z" />
<glyph unicode="&#xdf;" horiz-adv-x="1139" vert-adv-y="2505" d="M31 0l19 93l18 1q76 5 96 97l21 99l165 824q98 491 529 491q149 0 241 -62t92 -160q0 -130 -184 -254l-49 -33q-138 -93 -138 -160q0 -44 69 -116q38 -39 54 -56l92 -110l71 -83q70 -82 70 -189q0 -160 -128 -283q-128 -124 -300 -124q-109 0 -201 44l48 240h98l-2 -18 l-2 -17l-2 -16l-2 -15l-2 -14q-4 -34 -4 -48q0 -63 72 -63t120 60q49 59 49 143q0 57 -80 160l-85 109l-87 93q-51 54 -51 142q0 126 158 266l35 31q119 106 119 302q0 137 -107 137q-87 0 -131 -98q-32 -72 -62 -219l-181 -904l-18 -99q-6 -33 -6 -49q0 -45 50 -48l18 -1 l-18 -93h-464z" />
<glyph unicode="&#xe0;" vert-adv-y="2505" d="M108 0zM1030 93l-19 -97q-77 -21 -129 -21q-145 0 -198 152q-160 -152 -320 -152q-117 0 -186 65q-70 64 -70 178q0 199 159 317q158 119 431 119h50l26 133q21 108 21 142q0 101 -107 101q-134 0 -166 -134l-15 -63l-5 -19h-185l44 222q203 87 388 87q331 0 331 -245 q0 -43 -9 -88l-96 -482l-14 -86l-10 -60q-2 -11 -2 -22q0 -52 51 -52q13 0 30 5zM657 200l73 364h-39q-124 0 -201 -86t-77 -221q0 -124 102 -124q56 0 124 53zM916 1283h-132l-343 321h299z" />
<glyph unicode="&#xe1;" vert-adv-y="2505" d="M108 0zM1030 93l-19 -97q-77 -21 -129 -21q-145 0 -198 152q-160 -152 -320 -152q-117 0 -186 65q-70 64 -70 178q0 199 159 317q158 119 431 119h50l26 133q21 108 21 142q0 101 -107 101q-134 0 -166 -134l-15 -63l-5 -19h-185l44 222q203 87 388 87q331 0 331 -245 q0 -43 -9 -88l-96 -482l-14 -86l-10 -60q-2 -11 -2 -22q0 -52 51 -52q13 0 30 5zM657 200l73 364h-39q-124 0 -201 -86t-77 -221q0 -124 102 -124q56 0 124 53zM602 1283l305 321h299l-471 -321h-133z" />
<glyph unicode="&#xe2;" vert-adv-y="2505" d="M108 0zM1030 93l-19 -97q-77 -21 -129 -21q-145 0 -198 152q-160 -152 -320 -152q-117 0 -186 65q-70 64 -70 178q0 199 159 317q158 119 431 119h50l26 133q21 108 21 142q0 101 -107 101q-134 0 -166 -134l-15 -63l-5 -19h-185l44 222q203 87 388 87q331 0 331 -245 q0 -43 -9 -88l-96 -482l-14 -86l-10 -60q-2 -11 -2 -22q0 -52 51 -52q13 0 30 5zM657 200l73 364h-39q-124 0 -201 -86t-77 -221q0 -124 102 -124q56 0 124 53zM417 1283l304 321h247l177 -321h-118l-207 194l-286 -194h-117z" />
<glyph unicode="&#xe3;" vert-adv-y="2505" d="M108 0zM1030 93l-19 -97q-77 -21 -129 -21q-145 0 -198 152q-160 -152 -320 -152q-117 0 -186 65q-70 64 -70 178q0 199 159 317q158 119 431 119h50l26 133q21 108 21 142q0 101 -107 101q-134 0 -166 -134l-15 -63l-5 -19h-185l44 222q203 87 388 87q331 0 331 -245 q0 -43 -9 -88l-96 -482l-14 -86l-10 -60q-2 -11 -2 -22q0 -52 51 -52q13 0 30 5zM657 200l73 364h-39q-124 0 -201 -86t-77 -221q0 -124 102 -124q56 0 124 53zM423 1283q26 107 64 164q69 102 187 102q65 0 128 -34l67 -36q66 -35 103 -35q81 0 108 105h93 q-26 -107 -64 -164q-68 -102 -187 -102q-63 0 -128 34l-67 35q-69 36 -104 36q-81 0 -108 -105h-92z" />
<glyph unicode="&#xe4;" vert-adv-y="2505" d="M108 0zM1030 93l-19 -97q-77 -21 -129 -21q-145 0 -198 152q-160 -152 -320 -152q-117 0 -186 65q-70 64 -70 178q0 199 159 317q158 119 431 119h50l26 133q21 108 21 142q0 101 -107 101q-134 0 -166 -134l-15 -63l-5 -19h-185l44 222q203 87 388 87q331 0 331 -245 q0 -43 -9 -88l-96 -482l-14 -86l-10 -60q-2 -11 -2 -22q0 -52 51 -52q13 0 30 5zM657 200l73 364h-39q-124 0 -201 -86t-77 -221q0 -124 102 -124q56 0 124 53zM466 1283l42 210h209l-42 -210h-209zM873 1283l42 210h209l-42 -210h-209z" />
<glyph unicode="&#xe5;" vert-adv-y="2505" d="M108 0zM1030 93l-19 -97q-77 -21 -129 -21q-145 0 -198 152q-160 -152 -320 -152q-117 0 -186 65q-70 64 -70 178q0 199 159 317q158 119 431 119h50l26 133q21 108 21 142q0 101 -107 101q-134 0 -166 -134l-15 -63l-5 -19h-185l44 222q203 87 388 87q331 0 331 -245 q0 -43 -9 -88l-96 -482l-14 -86l-10 -60q-2 -11 -2 -22q0 -52 51 -52q13 0 30 5zM657 200l73 364h-39q-124 0 -201 -86t-77 -221q0 -124 102 -124q56 0 124 53zM853 1752q84 0 138 -53t54 -135q0 -110 -88 -195q-87 -86 -200 -86q-75 0 -125 43q-65 55 -65 145q0 110 87 195 q88 86 199 86zM836 1659q-69 0 -122 -52q-53 -51 -53 -119q0 -112 114 -112q63 0 112 42q64 54 64 129q0 112 -115 112z" />
<glyph unicode="&#xe6;" horiz-adv-x="1479" vert-adv-y="2505" d="M317 814l44 222q203 87 386 87q172 0 268 -81q128 81 269 81q279 0 279 -300q0 -131 -30 -262l-5 -22h-507q-23 -124 -23 -203q0 -212 192 -212q116 0 269 69l-30 -150q-179 -68 -340 -68q-156 0 -236 57q-64 44 -122 147q-187 -204 -368 -204q-116 0 -185 65 q-70 64 -70 178q0 199 159 317q158 119 431 119h50l26 133q21 108 21 142q0 101 -107 101q-134 0 -166 -134l-15 -63l-5 -19h-185zM730 564h-39q-124 0 -201 -86t-77 -221q0 -124 102 -124q56 0 124 53l18 14zM1047 632h208q46 231 46 311q0 87 -54 87q-109 0 -200 -398z " />
<glyph unicode="&#xe7;" horiz-adv-x="909" vert-adv-y="2505" d="M141 0zM881 175l-29 -149q-174 -51 -293 -51q-197 0 -307 105q-111 105 -111 304q0 308 186 524q186 215 462 215q134 0 269 -50l-57 -283h-167l3 18l10 74q0 2 1 17v7q0 124 -89 124q-115 0 -201 -198q-107 -247 -107 -480q0 -232 199 -232q95 0 231 55zM278 -407l17 85 q69 -21 111 -21q107 0 107 83q0 71 -164 73l130 187h109l-79 -114q203 -13 203 -133q0 -82 -76 -133q-75 -52 -198 -52q-74 0 -160 25z" />
<glyph unicode="&#xe8;" horiz-adv-x="909" vert-adv-y="2505" d="M140 0zM898 193l-30 -150q-181 -68 -338 -68q-390 0 -390 402q0 310 169 528q168 218 414 218q279 0 279 -302q0 -130 -30 -260l-5 -22h-507q-23 -131 -23 -203q0 -212 192 -212q116 0 269 69zM486 632h208q46 231 46 311q0 87 -54 87q-109 0 -200 -398zM923 1283h-132 l-343 321h299z" />
<glyph unicode="&#xe9;" horiz-adv-x="909" vert-adv-y="2505" d="M140 0zM898 193l-30 -150q-181 -68 -338 -68q-390 0 -390 402q0 310 169 528q168 218 414 218q279 0 279 -302q0 -130 -30 -260l-5 -22h-507q-23 -131 -23 -203q0 -212 192 -212q116 0 269 69zM486 632h208q46 231 46 311q0 87 -54 87q-109 0 -200 -398zM584 1283 l305 321h299l-471 -321h-133z" />
<glyph unicode="&#xea;" horiz-adv-x="909" vert-adv-y="2505" d="M140 0zM898 193l-30 -150q-181 -68 -338 -68q-390 0 -390 402q0 310 169 528q168 218 414 218q279 0 279 -302q0 -130 -30 -260l-5 -22h-507q-23 -131 -23 -203q0 -212 192 -212q116 0 269 69zM486 632h208q46 231 46 311q0 87 -54 87q-109 0 -200 -398zM390 1283 l304 321h247l177 -321h-118l-207 194l-286 -194h-117z" />
<glyph unicode="&#xeb;" horiz-adv-x="909" vert-adv-y="2505" d="M140 0zM898 193l-30 -150q-181 -68 -338 -68q-390 0 -390 402q0 310 169 528q168 218 414 218q279 0 279 -302q0 -130 -30 -260l-5 -22h-507q-23 -131 -23 -203q0 -212 192 -212q116 0 269 69zM486 632h208q46 231 46 311q0 87 -54 87q-109 0 -200 -398zM445 1283l42 210 h209l-42 -210h-209zM852 1283l42 210h209l-42 -210h-209z" />
<glyph unicode="&#xec;" horiz-adv-x="569" vert-adv-y="2505" d="M40 0zM40 0l18 93l19 1q66 4 81 25q15 19 27 72l21 99l104 518l18 99q7 34 7 44q0 49 -76 53l-18 1l18 93h405l-162 -808l-17 -99q-7 -34 -7 -44q0 -49 75 -53l19 -1l-19 -93h-513zM795 1283h-132l-343 321h299z" />
<glyph unicode="&#xed;" horiz-adv-x="569" vert-adv-y="2505" d="M40 0zM40 0l18 93l19 1q66 4 81 25q15 19 27 72l21 99l104 518l18 99q7 34 7 44q0 49 -76 53l-18 1l18 93h405l-162 -808l-17 -99q-7 -34 -7 -44q0 -49 75 -53l19 -1l-19 -93h-513zM285 1283l305 321h299l-471 -321h-133z" />
<glyph unicode="&#xee;" horiz-adv-x="569" vert-adv-y="2505" d="M40 0zM40 0l18 93l19 1q66 4 81 25q15 19 27 72l21 99l104 518l18 99q7 34 7 44q0 49 -76 53l-18 1l18 93h405l-162 -808l-17 -99q-7 -34 -7 -44q0 -49 75 -53l19 -1l-19 -93h-513zM177 1283l304 321h247l177 -321h-118l-207 194l-286 -194h-117z" />
<glyph unicode="&#xef;" horiz-adv-x="569" vert-adv-y="2505" d="M40 0l18 93l19 1q66 4 81 25q15 19 27 72l21 99l104 518l18 99q7 34 7 44q0 49 -76 53l-18 1l18 93h405l-162 -808l-17 -99q-7 -34 -7 -44q0 -49 75 -53l19 -1l-19 -93h-513zM232 1283l42 210h210l-42 -210h-210zM639 1283l42 210h210l-42 -210h-210z" />
<glyph unicode="&#xf0;" vert-adv-y="2505" d="M392 1085l-36 68l266 220q-116 93 -279 114l19 92h30q196 0 364 -96l239 195l37 -69l-205 -168q131 -115 198 -236q98 -178 98 -412q0 -334 -182 -576t-438 -242q-170 0 -268 108q-99 108 -99 300q0 275 167 482q167 208 387 208q63 0 130 -29q-39 153 -141 277zM716 981 q-126 0 -199 -239q-41 -131 -68 -281q-25 -136 -25 -231q0 -162 120 -162q99 0 158 172q47 133 87 360q26 148 26 240q0 141 -99 141z" />
<glyph unicode="&#xf1;" horiz-adv-x="1139" vert-adv-y="2505" d="M31 0zM31 0l19 93l19 1q69 5 83 28q14 20 24 69l22 99l104 518l18 99q7 34 7 44q0 49 -76 53l-18 1l18 93h405l-37 -182q68 93 135 139q98 68 217 68q224 0 224 -211q0 -60 -15 -135l-97 -487l-18 -99q-7 -34 -7 -44q0 -49 75 -53l19 -1l-19 -93h-501l19 93l19 1 q75 5 95 97l22 99l90 453q17 86 17 115q0 85 -91 85q-101 0 -206 -138l-103 -515l-18 -99q-7 -35 -7 -47q0 -47 63 -50l19 -1l-19 -93h-501zM471 1283q26 107 64 164q69 102 187 102q65 0 128 -34l67 -36q66 -35 103 -35q81 0 108 105h93q-26 -107 -64 -164 q-68 -102 -187 -102q-63 0 -128 34l-67 35q-69 36 -104 36q-81 0 -108 -105h-92z" />
<glyph unicode="&#xf2;" vert-adv-y="2505" d="M141 0zM748 1123q366 0 366 -412q0 -311 -175 -523q-174 -213 -437 -213q-361 0 -361 412q0 309 174 522q175 214 433 214zM722 1018q-80 0 -157 -166q-126 -271 -126 -572q0 -200 97 -200q76 0 153 163q127 270 127 577q0 198 -94 198zM943 1283h-132l-343 321h299z" />
<glyph unicode="&#xf3;" vert-adv-y="2505" d="M141 0zM748 1123q366 0 366 -412q0 -311 -175 -523q-174 -213 -437 -213q-361 0 -361 412q0 309 174 522q175 214 433 214zM722 1018q-80 0 -157 -166q-126 -271 -126 -572q0 -200 97 -200q76 0 153 163q127 270 127 577q0 198 -94 198zM605 1283l305 321h299l-471 -321 h-133z" />
<glyph unicode="&#xf4;" vert-adv-y="2505" d="M141 0zM748 1123q366 0 366 -412q0 -311 -175 -523q-174 -213 -437 -213q-361 0 -361 412q0 309 174 522q175 214 433 214zM722 1018q-80 0 -157 -166q-126 -271 -126 -572q0 -200 97 -200q76 0 153 163q127 270 127 577q0 198 -94 198zM410 1283l304 321h247l177 -321 h-118l-207 194l-286 -194h-117z" />
<glyph unicode="&#xf5;" vert-adv-y="2505" d="M141 0zM748 1123q366 0 366 -412q0 -311 -175 -523q-174 -213 -437 -213q-361 0 -361 412q0 309 174 522q175 214 433 214zM722 1018q-80 0 -157 -166q-126 -271 -126 -572q0 -200 97 -200q76 0 153 163q127 270 127 577q0 198 -94 198zM426 1283q26 107 64 164 q69 102 187 102q65 0 128 -34l67 -36q66 -35 103 -35q81 0 108 105h93q-26 -107 -64 -164q-68 -102 -187 -102q-63 0 -128 34l-67 35q-69 36 -104 36q-81 0 -108 -105h-92z" />
<glyph unicode="&#xf6;" vert-adv-y="2505" d="M141 0zM748 1123q366 0 366 -412q0 -311 -175 -523q-174 -213 -437 -213q-361 0 -361 412q0 309 174 522q175 214 433 214zM722 1018q-80 0 -157 -166q-126 -271 -126 -572q0 -200 97 -200q76 0 153 163q127 270 127 577q0 198 -94 198zM466 1283l42 210h209l-42 -210 h-209zM873 1283l42 210h209l-42 -210h-209z" />
<glyph unicode="&#xf7;" horiz-adv-x="1167" vert-adv-y="2505" d="M194 518l29 148h987l-29 -148h-987zM643 913l49 247h247l-50 -247h-246zM465 25l49 246h247l-49 -246h-247z" />
<glyph unicode="&#xf8;" vert-adv-y="2505" d="M235 76l-93 -101h-104l152 164q-54 107 -54 249q0 307 173 521t430 214q168 0 270 -101l93 101h103l-152 -164q55 -108 55 -248q0 -307 -174 -522q-173 -214 -428 -214q-167 0 -271 101zM433 290q3 -210 96 -210q92 0 160 158q61 143 110 447zM810 808q-3 210 -96 210 q-92 0 -159 -158q-62 -144 -111 -447z" />
<glyph unicode="&#xf9;" horiz-adv-x="1139" vert-adv-y="2505" d="M165 0zM208 1005l18 93h405l-149 -743q-17 -85 -17 -115q0 -85 91 -85q101 0 206 138l103 515l18 99q7 34 7 47q0 47 -63 50l-19 1l19 93h392l-161 -808l-18 -99q-7 -35 -7 -44q0 -49 75 -53l19 -1l-19 -93h-404l36 182q-152 -207 -352 -207q-223 0 -223 214q0 62 14 132 l98 487l18 99q7 33 7 44q0 49 -76 53zM1018 1283h-132l-343 321h299z" />
<glyph unicode="&#xfa;" horiz-adv-x="1139" vert-adv-y="2505" d="M165 0zM208 1005l18 93h405l-149 -743q-17 -85 -17 -115q0 -85 91 -85q101 0 206 138l103 515l18 99q7 34 7 47q0 47 -63 50l-19 1l19 93h392l-161 -808l-18 -99q-7 -35 -7 -44q0 -49 75 -53l19 -1l-19 -93h-404l36 182q-152 -207 -352 -207q-223 0 -223 214q0 62 14 132 l98 487l18 99q7 33 7 44q0 49 -76 53zM609 1283l305 321h299l-471 -321h-133z" />
<glyph unicode="&#xfb;" horiz-adv-x="1139" vert-adv-y="2505" d="M165 0zM208 1005l18 93h405l-149 -743q-17 -85 -17 -115q0 -85 91 -85q101 0 206 138l103 515l18 99q7 34 7 47q0 47 -63 50l-19 1l19 93h392l-161 -808l-18 -99q-7 -35 -7 -44q0 -49 75 -53l19 -1l-19 -93h-404l36 182q-152 -207 -352 -207q-223 0 -223 214q0 62 14 132 l98 487l18 99q7 33 7 44q0 49 -76 53zM450 1283l304 321h247l177 -321h-118l-207 194l-286 -194h-117z" />
<glyph unicode="&#xfc;" horiz-adv-x="1139" vert-adv-y="2505" d="M165 0zM208 1005l18 93h405l-149 -743q-17 -85 -17 -115q0 -85 91 -85q101 0 206 138l103 515l18 99q7 34 7 47q0 47 -63 50l-19 1l19 93h392l-161 -808l-18 -99q-7 -35 -7 -44q0 -49 75 -53l19 -1l-19 -93h-404l36 182q-152 -207 -352 -207q-223 0 -223 214q0 62 14 132 l98 487l18 99q7 33 7 44q0 49 -76 53zM495 1283l42 210h209l-42 -210h-209zM902 1283l42 210h209l-42 -210h-209z" />
<glyph unicode="&#xfd;" vert-adv-y="2505" d="M71 0zM201 1005l19 93h523l-19 -93l-19 -1h-10q-13 -1 -16 -1l-10 1l-7 -2q-28 -9 -33.5 -12.5t-11.5 -15.5q-11 -21 -11 -38q0 -2 2 -15l1 -11q5 -46 17 -106l79 -410l229 410l10 19l10 17q8 16 14 27l31 63q13 26 13 46q0 23 -44 26l-27 2l-19 1l19 93h303l-19 -93 l-18 -1l-29 -1q-49 -3 -94 -94q-4 -7 -11 -21q-23 -41 -45 -81l-670 -1202h-287l406 401l-158 798l-20 104q-18 92 -79 96zM701 1283l305 321h299l-471 -321h-133z" />
<glyph unicode="&#xfe;" horiz-adv-x="1139" vert-adv-y="2505" d="M438 166q88 -50 147 -50q131 0 228 183q98 184 98 425q0 208 -142 208q-101 0 -202 -119zM-79 -395l18 93l19 1q66 4 81 25q15 19 27 72l21 99l279 1394l18 99q7 33 7 44q0 46 -75 53l-19 2l19 92h404l-132 -663q63 93 125 139q91 68 206 68q309 0 309 -382 q0 -321 -185 -543q-184 -223 -453 -223q-79 0 -186 25l-20 -105l-18 -99q-7 -34 -7 -44q0 -49 75 -53l19 -1l-19 -93h-513z" />
<glyph unicode="&#xff;" vert-adv-y="2505" d="M201 1005l19 93h523l-19 -93l-19 -1h-10q-13 -1 -16 -1l-10 1l-7 -2q-28 -9 -33.5 -12.5t-11.5 -15.5q-11 -21 -11 -38q0 -2 2 -15l1 -11q5 -46 17 -106l79 -410l229 410l10 19l10 17q8 16 14 27l31 63q13 26 13 46q0 23 -44 26l-27 2l-19 1l19 93h303l-19 -93l-18 -1 l-29 -1q-49 -3 -94 -94q-4 -7 -11 -21q-23 -41 -45 -81l-670 -1202h-287l406 401l-158 798l-20 104q-18 92 -79 96zM570 1283l42 210h210l-42 -210h-210zM977 1283l42 210h210l-42 -210h-210z" />
<glyph unicode="&#x131;" horiz-adv-x="569" vert-adv-y="2505" d="M40 0l18 93l19 1q66 4 81 25q15 19 27 72l21 99l104 518l18 99q7 34 7 44q0 49 -76 53l-18 1l18 93h405l-162 -808l-17 -99q-7 -34 -7 -44q0 -49 75 -53l19 -1l-19 -93h-513z" />
<glyph unicode="&#x152;" horiz-adv-x="2048" vert-adv-y="2505" d="M1329 1437l8 43h908l-53 -265h-148l2 19q1 6 4 26q3 21 5 34q1 5 2 6q2 8 3 9q1 6 2 7l3 6l-1 3q-8 25 -17 33q-34 24 -120 24h-301l-112 -562h201l98 2q45 1 53 14q9 12 14 39q2 10 11 44l5 19h135l-64 -321h-135l2 18q0 2 1 11l2 10q1 6 2 15l1 4q3 16 3 31 q0 22 -51 24l-94 4h-207l-89 -444q-17 -84 -17 -134q0 -30 30 -41q18 -7 60 -8l70 -2h124l115 3q70 1 87 56l20 77l5 18h148l-52 -259h-951l9 44q-176 -81 -323 -81q-239 0 -382 149t-143 415q0 409 246 700q246 290 593 290q143 0 288 -80zM1156 576l65 322q39 193 39 285 q0 107 -66 172q-66 64 -172 64q-234 0 -385 -379q-121 -305 -121 -622q0 -356 235 -356q125 0 226 84q66 54 107 162q38 97 72 268z" />
<glyph unicode="&#x153;" horiz-adv-x="1479" vert-adv-y="2505" d="M997 1003q148 120 309 120q265 0 265 -294q0 -129 -31 -268l-5 -22h-487q-24 -127 -24 -208q0 -207 183 -207q111 0 259 69l-30 -150q-174 -68 -323 -68q-194 0 -297 120q-146 -120 -327 -120q-350 0 -350 406q0 310 169 526t417 216q177 0 272 -120zM703 1018 q-78 0 -155 -169q-124 -275 -124 -573q0 -196 91 -196q75 0 150 165q125 276 125 580q0 193 -87 193zM1074 632h200q46 235 46 314q0 84 -51 84q-105 0 -195 -398z" />
<glyph unicode="&#x178;" horiz-adv-x="1479" vert-adv-y="2505" d="M420 0l19 93l19 1q115 7 126 26q17 20 30 71l25 99l70 350l-227 542l-19 44l-14 34q-12 28 -15 38q-28 82 -82 86l-53 3l-19 1l18 92h642l-19 -92h-16l-50 -1q-75 -1 -75 -40q0 -41 51 -166l169 -412l339 412q120 146 120 177q0 30 -90 30h-22l18 92h407l-18 -92l-19 -1 l-44 -4q-59 -6 -108 -66l-114 -135l-452 -540l-70 -352l-14 -99l-7 -34q4 -55 124 -63l18 -1l-19 -93h-629zM859 1604l42 210h210l-42 -210h-210zM1266 1604l42 210h210l-42 -210h-210z" />
<glyph unicode="&#x2c6;" horiz-adv-x="682" vert-adv-y="2505" d="M234 1283l304 321h247l177 -321h-118l-207 194l-286 -194h-117z" />
<glyph unicode="&#x2da;" horiz-adv-x="682" vert-adv-y="2505" d="M696 1752q84 0 138 -53t54 -135q0 -110 -88 -195q-87 -86 -200 -86q-75 0 -125 43q-65 55 -65 145q0 110 87 195q88 86 199 86zM679 1659q-69 0 -122 -52q-53 -51 -53 -119q0 -112 114 -112q63 0 112 42q64 54 64 129q0 112 -115 112z" />
<glyph unicode="&#x2dc;" horiz-adv-x="682" vert-adv-y="2505" d="M249 1283q26 107 64 164q69 102 187 102q65 0 128 -34l67 -36q66 -35 103 -35q81 0 108 105h93q-26 -107 -64 -164q-68 -102 -187 -102q-63 0 -128 34l-67 35q-69 36 -104 36q-81 0 -108 -105h-92z" />
<glyph unicode="&#x2000;" horiz-adv-x="982" vert-adv-y="0" />
<glyph unicode="&#x2001;" horiz-adv-x="1964" vert-adv-y="0" />
<glyph unicode="&#x2002;" horiz-adv-x="982" vert-adv-y="0" />
<glyph unicode="&#x2003;" horiz-adv-x="1964" vert-adv-y="0" />
<glyph unicode="&#x2004;" horiz-adv-x="654" vert-adv-y="0" />
<glyph unicode="&#x2005;" horiz-adv-x="491" vert-adv-y="0" />
<glyph unicode="&#x2006;" horiz-adv-x="327" vert-adv-y="0" />
<glyph unicode="&#x2007;" horiz-adv-x="327" vert-adv-y="0" />
<glyph unicode="&#x2008;" horiz-adv-x="245" vert-adv-y="0" />
<glyph unicode="&#x2009;" horiz-adv-x="392" vert-adv-y="0" />
<glyph unicode="&#x200a;" horiz-adv-x="109" vert-adv-y="0" />
<glyph unicode="&#x2010;" horiz-adv-x="682" vert-adv-y="2505" d="M153 518l29 148h584l-30 -148h-583z" />
<glyph unicode="&#x2011;" horiz-adv-x="682" vert-adv-y="2505" d="M153 518l29 148h584l-30 -148h-583z" />
<glyph unicode="&#x2012;" horiz-adv-x="682" vert-adv-y="2505" d="M153 518l29 148h584l-30 -148h-583z" />
<glyph unicode="&#x2013;" vert-adv-y="2505" d="M181 537l32 160h876l-32 -160h-876z" />
<glyph unicode="&#x2014;" horiz-adv-x="2048" vert-adv-y="2505" d="M206 537l25 123h1851l-25 -123h-1851z" />
<glyph unicode="&#x2018;" horiz-adv-x="682" vert-adv-y="2505" d="M806 1579l-19 -93q-131 -15 -164 -203h123l-64 -321h-321l50 248q70 339 395 369z" />
<glyph unicode="&#x2019;" horiz-adv-x="682" vert-adv-y="2505" d="M385 962l19 93q132 16 164 203h-123l64 321h321l-50 -248q-70 -340 -395 -369z" />
<glyph unicode="&#x201a;" horiz-adv-x="682" vert-adv-y="2505" d="M134 -296l18 93q132 16 164 203h-123l64 321h321l-50 -248q-70 -341 -394 -369z" />
<glyph unicode="&#x201c;" vert-adv-y="2505" d="M1199 1579l-19 -92q-136 -21 -152 -204h112l-60 -296h-296l44 218q68 331 371 374zM730 1579l-19 -92q-136 -21 -151 -204h111l-60 -296h-296l44 218q68 331 371 374z" />
<glyph unicode="&#x201d;" vert-adv-y="2505" d="M339 987l19 93q137 20 152 203h-111l59 296h296l-44 -218q-68 -331 -371 -374zM808 987l19 93q136 19 151 203h-111l60 296h296l-44 -218q-68 -331 -371 -374z" />
<glyph unicode="&#x201e;" vert-adv-y="2505" d="M83 -296l18 92q138 20 152 204h-111l59 296h296l-43 -218q-68 -332 -371 -374zM552 -296l18 92q136 20 152 204h-111l59 296h296l-43 -218q-68 -332 -371 -374z" />
<glyph unicode="&#x2022;" horiz-adv-x="717" vert-adv-y="2505" d="M591 1123q98 0 162 -64q63 -63 63 -161q0 -129 -104 -229q-104 -101 -236 -101q-88 0 -149 52q-77 65 -77 172q0 129 105 230q104 101 236 101z" />
<glyph unicode="&#x2026;" horiz-adv-x="2048" vert-adv-y="2505" d="M230 0l44 222h222l-44 -222h-222zM913 0l44 222h222l-44 -222h-222zM1595 0l45 222h222l-45 -222h-222z" />
<glyph unicode="&#x202f;" horiz-adv-x="392" vert-adv-y="0" />
<glyph unicode="&#x2039;" horiz-adv-x="682" vert-adv-y="2505" d="M774 925l-296 -376l145 -376l-88 -62l-357 438l533 438z" />
<glyph unicode="&#x203a;" horiz-adv-x="682" vert-adv-y="2505" d="M128 173l295 376l-144 376l88 62l357 -438l-533 -438z" />
<glyph unicode="&#x205f;" horiz-adv-x="491" vert-adv-y="0" />
<glyph unicode="&#x20ac;" vert-adv-y="2505" d="M111 555l40 99h75q11 97 38 185h-96l40 99h86q65 160 121 248q208 331 533 331q116 0 317 -65l-56 -280h-148l4 19q11 53 11 109q0 121 -129 121q-141 0 -241 -158q-68 -108 -126 -325h435l-52 -99h-406l-10 -40q-2 -8 -12 -55q-10 -51 -12 -65l-4 -25h345l-52 -99h-309 q-14 -104 -14 -156q0 -312 244 -312q110 0 261 79l-26 -131q-165 -72 -300 -72q-204 0 -329 134q-126 134 -126 361q0 39 3 97h-105z" />
<glyph unicode="&#x2122;" horiz-adv-x="2048" vert-adv-y="2505" d="M374 728l20 99h117l111 555h-204l-27 -136h-105l47 234h839l-47 -234h-105l27 136h-203l-111 -555h117l-20 -99h-456zM1120 728l20 99h111l111 555h-111l20 98h370l82 -410l239 410h357l-19 -98h-118l-111 -555h118l-20 -99h-346l98 489l-262 -427h-92l-85 390l-90 -452 h-272z" />
<glyph unicode="&#xe000;" horiz-adv-x="1100" vert-adv-y="2200" d="M0 1100h1100v-1100h-1100v1100z" />
<glyph unicode="&#xfb01;" horiz-adv-x="1139" vert-adv-y="2505" d="M46 0l19 93l18 1q70 5 84 28q14 20 24 69l22 99l141 709h-108l20 99h108l11 53q95 453 478 453q119 0 216 -47l-50 -249h-123l2 18l12 74q4 25 4 45q0 61 -56 61q-116 0 -161 -225l-37 -183h555l-161 -808l-18 -99q-7 -33 -7 -44q0 -49 76 -53l18 -1l-19 -93h-503l19 93 q63 3 83 20q20 19 33 78l22 99l142 709h-259l-142 -709l-18 -99q-8 -33 -8 -45q0 -51 85 -53l-19 -93h-503z" />
<glyph unicode="&#xfb02;" horiz-adv-x="1139" vert-adv-y="2505" d="M46 0l18 93l19 1q66 4 81 25q15 19 27 72l21 99l142 709h-108l19 99h109l11 53q95 453 477 453q108 0 160 -22l7 -3h292l-257 -1289l-18 -99q-7 -33 -7 -44q0 -49 75 -53l19 -1l-19 -93h-503l18 93q63 3 84 20q20 19 33 78l22 99l228 1143q-50 72 -117 72 q-127 0 -172 -224l-37 -183h109l-20 -99h-109l-142 -709l-17 -99q-8 -33 -8 -45q0 -51 85 -53l-19 -93h-503z" />
<glyph horiz-adv-x="512" vert-adv-y="2505" d="M0 0z" />
</font>
</defs>
</svg>
