<?xml version="1.0" standalone="no"?>
<!DOCTYPE svg PUBLIC "-//W3C//DTD SVG 1.1//EN" "http://www.w3.org/Graphics/SVG/1.1/DTD/svg11.dtd" >
<svg xmlns="http://www.w3.org/2000/svg">
<metadata></metadata>
<defs>
<font id="rabioheadregular" horiz-adv-x="396" >
<font-face units-per-em="1000" ascent="800" descent="-200" />
<missing-glyph horiz-adv-x="279" />
<glyph horiz-adv-x="1000" />
<glyph horiz-adv-x="1000" />
<glyph unicode="&#xd;" horiz-adv-x="279" />
<glyph unicode=" "  horiz-adv-x="279" />
<glyph unicode="&#x09;" horiz-adv-x="279" />
<glyph unicode="&#xa0;" horiz-adv-x="279" />
<glyph unicode="!" horiz-adv-x="164" d="M128 569q0 -6 -7.5 -49.5t-7.5 -49.5v-212q5 -49 5 -55v-22q-7 -7 -18 -7q-30 0 -37 43q-1 8 -1 50l10 274q-4 9 -4 32q0 47 32 47q20 0 28 -51zM118 54q0 -44 -39 -44q-33 0 -33 34q0 21 15 34.5t36 13.5t21 -38z" />
<glyph unicode="&#x22;" horiz-adv-x="308" d="M282 365h-22q-31 -1 -58 78q-23 63 -23 93q0 74 36 74q29 0 29 -18q0 -15 -6 -45q-6 -34 -7 -47q-2 -29 19 -70q29 -58 32 -65zM112 370q-1 0 -5.5 -3t-11.5 -3q-25 0 -42 86q-12 65 -12 114q0 56 26 56q31 0 34 -33q-3 -43 -2 -128q0 -7 7 -26t6 -25v-38z" />
<glyph unicode="#" horiz-adv-x="645" d="M656 420q0 -12 -13.5 -29t-24.5 -17q1 0 -22 15.5t-42 15.5q-36 0 -45 -66l-2 -74q27 -7 53 -14q35 -9 35 -23q0 -15 -12.5 -24t-28.5 -9q-5 0 -17 2.5t-19 2.5q-25 0 -39 -91q-6 -54 -13 -109h-23q-28 24 -28 39l41 150q-18 21 -115 21q-126 0 -126 -94q0 -12 2 -34 t2 -31q0 -30 -24 -30q-36 0 -36 33q0 6 15.5 56.5t15.5 56.5v19q-4 4 -13 4q-6 0 -55 -15.5t-55 -15.5q-38 0 -46 34q23 24 82 36q47 6 93 13q9 6 24 55q16 46 16 60v19q-3 3 -10 3q-24 0 -62 -23t-41 -23q-17 0 -28 18q-8 12 -8 18q0 23 75 46l80 22q17 10 34 113 q16 96 42 96q9 0 20 -10t11 -18q0 -7 -26 -73.5t-26 -72.5q0 -18 2.5 -22t18.5 -4q-4 0 33.5 2t112.5 3q28 1 31 28q0 23 1 47q3 41 5 82q5 55 18 84h34q3 -12 11 -33l-36 -187q5 -23 25 -23q4 0 12.5 1t13 1t22.5 2.5t25 2.5q30 0 30 -36zM477 364q0 29 -12 41h-113 q-55 0 -77 -37q-19 -30 -19 -91q0 -19 8 -26q15 7 191 6q22 75 22 107z" />
<glyph unicode="$" horiz-adv-x="313" d="M297 452q-11 -2 -39 1l-35 3q-54 0 -54 -107q0 -23 51.5 -50t51.5 -63q0 -57 -63 -101q-2 -2 -22.5 -7t-31.5 -19q-6 -6 -8 -122q-2 -105 -29 -105q-21 0 -36 44q0 5 9 29t10 33q1 35 7 107q-8 9 -50 18q-32 7 -32 31q0 8 10.5 20.5t17.5 14.5q29 -19 45 -25q6 9 15 46 t9 59q0 15 -1 19q-25 21 -50 43q-21 19 -21 43q0 21 41 62q22 22 45 44q10 20 10 71q0 156 40 156q10 0 19 -10.5t9 -19.5q0 -7 -12.5 -53t-13.5 -52v-55q34 -1 67 -1q40 -4 41 -54zM138 389h-20l7 -30q13 25 13 30zM215 220q0 13 -16 28t-29 13q-14 -30 -14 -67 q0 -18 5 -25q16 5 33 18q21 16 21 33z" />
<glyph unicode="%" horiz-adv-x="555" d="M544 220q0 -32 -47 -105q-51 -79 -89 -79q-31 0 -48 42q-11 29 -11 50q0 49 30 114q37 81 88 81q29 0 54 -42q23 -36 23 -61zM262 444q0 -31 -31 -85q-38 -67 -85 -67q-41 0 -65 34q-19 29 -19 66t23 72q26 39 29 73q16 17 42 17q33 0 69.5 -40t36.5 -70zM456 620 q0 1 -31 -54q-35 -60 -50 -98l-100 -246q-62 -157 -82 -261q-5 -28 -29 -28q-36 0 -36 34q0 20 156 395l66 166q54 123 76 123q9 0 19.5 -10.5t10.5 -20.5zM492 226q0 25 -25 25q-27 0 -49 -57q-18 -47 -18 -74q0 -7 3 -13.5t3 -8.5h23q27 26 45 63t18 65zM210 438 q0 7 -13.5 25.5t-20.5 23.5l-40 -42q-23 -26 -23 -68q0 -11 8 -22t20 -11q25 0 49 39q20 35 20 55z" />
<glyph unicode="&#x26;" horiz-adv-x="468" d="M467 62q0 -18 -17 -29q-13 -7 -22 -7q-6 0 -40.5 35.5t-41.5 35.5l-24 -16q-28 -18 -55 -29q-39 -16 -75 -16q-57 0 -99 37.5t-42 90.5q0 63 19 103q9 19 34 48q19 21 19 39q0 1 -18 43t-18 65q0 44 23 79q30 44 82 44q42 0 98 -26q69 -31 69 -74q0 -27 -58 -76 q-39 -32 -78 -63q-18 -19 -18 -26q0 -17 56.5 -79t71.5 -62t27 35q9 27 9 37q0 7 -18 49t-18 49q0 11 8.5 20.5t20.5 9.5q20 0 41 -62q17 -52 17 -68q0 -7 -14 -48q-17 -50 -22 -70q23 -17 46 -33q37 -27 37 -36zM303 482q0 23 -32 36q-25 10 -53 10q-41 0 -57.5 -15 t-16.5 -51q0 -37 16 -77h23q120 77 120 97zM297 136q0 7 -51 63q-63 69 -77 88h-20q-46 -76 -46 -120q0 -85 89 -85q105 18 105 54z" />
<glyph unicode="'" horiz-adv-x="140" d="M112 370q-1 0 -5.5 -3t-11.5 -3q-26 0 -42 86q-12 65 -12 114q0 56 26 56q31 0 34 -33q-3 -43 -2 -128q0 -7 7 -26t6 -25v-38z" />
<glyph unicode="(" horiz-adv-x="225" d="M241 -18q0 -10 -11 -33h-39q-72 69 -116 158.5t-44 169.5q0 22 22 119q27 120 59 197q45 104 91 104q26 0 37 -11q1 -1 1 -3q0 -10 -34 -48q-41 -46 -52 -65q-39 -63 -72 -199q-6 -26 -6 -89q0 -84 41 -161t94 -93q29 -31 29 -46z" />
<glyph unicode=")" horiz-adv-x="358" d="M323 244q0 -44 -22 -139q-11 -44 -54 -120q-46 -82 -70 -82q-16 0 -26 13q-7 10 -7 20q0 23 22 46q37 36 53 63q58 94 58 229q0 95 -50 189q-18 35 -59 97q-11 17 -68 70q-49 46 -49 60q0 9 9.5 21t18.5 12q17 0 43 -32q19 -25 38 -51q81 -93 125 -205q38 -100 38 -191z " />
<glyph unicode="*" horiz-adv-x="496" d="M508 469q0 -10 -11.5 -26.5t-19.5 -16.5q-7 0 -9.5 5t-9.5 5h-131l-14 -14q4 -25 51 -75q57 -61 66 -77v-24h-37q-23 0 -85 74.5t-64 74.5q-22 0 -74 -61q-47 -56 -53 -77h-34q0 2 -3 8.5t-3 13.5q0 16 47 73l66 76q-17 20 -59 23q-66 6 -67.5 7t-4.5 6.5t-3 12.5 q0 20 36 20q7 0 59.5 -7.5t58.5 -7.5q8 0 14.5 13t6.5 23q0 6 -13 60t-13 60q0 9 7.5 19t16.5 9h32q6 -17 12 -95q5 -63 28 -94q85 -2 127 6q4 1 16.5 10.5t19.5 9.5q12 0 28 -11t16 -23z" />
<glyph unicode="+" horiz-adv-x="480" d="M462 295q0 -8 -5.5 -14.5t-6.5 -7t-10 -3.5t-17 -3q-6 0 -53.5 10t-54.5 10q-27 0 -38 -13q1 -2 12 -58q9 -44 23 -74v-18q-30 -11 -48 -11q-21 0 -23 45q-4 75 -6 84q-11 45 -53 45q-5 0 -32 -2.5t-35 -2.5q-32 0 -48 22q0 7 17 24h128q12 13 12 44q0 10 -1.5 29.5 t-1.5 29.5q0 56 48 56q2 0 28 -11v-18q0 -7 -3 -8t-4 -2q-15 -30 -17 -43q-1 -4 -1 -31v-24q2 -11 14 -22h119q8 0 9.5 4.5t2.5 5.5h28q17 -33 17 -43z" />
<glyph unicode="," horiz-adv-x="140" d="M41 -130q2 0 6 -3t12 -3q25 0 41 86q12 65 12 114q0 56 -25 56q-32 0 -34 -33q2 -43 2 -128q-1 -7 -7.5 -26t-6.5 -25v-38z" />
<glyph unicode="-" d="M359 318q0 -14 -8.5 -25t-19.5 -11q-7 0 -35 2.5t-34 2.5q-7 0 -91.5 -7.5t-91.5 -7.5q-8 0 -18 8.5t-10 16.5q0 15 17 26q14 10 27 10q6 0 20.5 -5t20.5 -5q17 0 83 7q80 9 123 19q17 -18 17 -31z" />
<glyph unicode="." horiz-adv-x="163" d="M133 120q0 -13 -15.5 -30.5t-22.5 -17.5q-17 0 -28 13t-11 30q14 54 34 54q17 0 30 -16t13 -33z" />
<glyph unicode="/" horiz-adv-x="254" d="M272 613q0 -20 -77 -274q-81 -269 -84 -286q-2 -8 -10 -19q-11 -13 -22 -13q-8 0 -23 16.5t-15 26.5q0 -1 30 64q33 72 45 115t121 398h18q17 -9 17 -28z" />
<glyph unicode="0" horiz-adv-x="417" d="M390 323q0 -103 -48 -188q-60 -109 -173 -109q-70 0 -103 52q-25 41 -25 104q0 98 41 224q56 173 149 173q76 0 123 -105q36 -80 36 -151zM344 323q0 66 -25 113q-26 53 -96 108q-51 -28 -97 -147q-44 -111 -44 -189q0 -52 18 -91q24 -50 69 -50q82 0 134 101 q41 81 41 155z" />
<glyph unicode="1" horiz-adv-x="286" d="M251 46q0 -31 -33 -31q-35 0 -35 31q0 4 1 12t1 12v193q0 7 5 83t5 82q0 47 0 44q-2 26 -14 46q-12 -6 -55 -52q-38 -40 -54 -40q-12 0 -24 11.5t-12 21.5q34 29 61 53q65 58 81 82q19 28 45 47q10 -7 19 -24.5t9 -21.5q0 15 -10 -93.5t-10 -257.5q0 -86 6 -175 q0 -1 7 -8t7 -15z" />
<glyph unicode="2" horiz-adv-x="395" d="M405 22q-19 -22 -41 -22q-4 0 -38.5 6.5t-51.5 6.5q-56 2 -168 9q-29 2 -29 37q44 66 101 160q30 66 61 131q38 88 38 124q0 80 -49 80q-41 0 -72 -29q-16 -16 -41 -55q-18 -29 -28 -29q-12 0 -35 11v39q46 63 89.5 88.5t99.5 25.5q82 0 82 -113q0 -111 -164 -397 q22 -19 108 -27q97 -10 138 -28v-18z" />
<glyph unicode="3" horiz-adv-x="466" d="M436 215q0 -88 -104 -147q-83 -47 -153 -47q-74 0 -148 16v26q0 13 23 27q15 9 31 18q27 -42 44 -42h10q7 1 12 1q62 0 136 32q98 44 98 114q0 46 -119 67q-72 7 -145 15l-3 43q150 61 226 172q-6 7 -41 16q-31 7 -41 7q-41 0 -92 -23t-52 -23q-7 0 -17 5.5t-19 10.5v29 q16 19 79 34q57 13 101 13q21 0 79.5 -10t63.5 -16q12 -73 -164 -207q57 -24 114 -49q81 -38 81 -82z" />
<glyph unicode="4" horiz-adv-x="429" d="M395 251q0 -23 -29 -38q-22 -10 -43 -21q-2 -40 19.5 -77.5t21.5 -45.5q0 -48 -36 -48q-28 0 -36 47q-4 45 -9 89q-8 48 -40 48h-137q-22 0 -41 9q-24 11 -24 30q0 32 14.5 144t22.5 140h21q11 0 22.5 -15.5t11.5 -22.5q0 -6 -10 -28q-12 -25 -14 -34q-12 -54 -12 -148 q72 -32 166 -29q14 9 18 38l4 42q9 65 17 131q18 102 47 102q24 0 25 -33q0 -6 -10 -30q-12 -27 -14 -38q-25 -110 -32 -198q8 -9 15 -9q13 0 38 26q24 -10 24 -31z" />
<glyph unicode="5" horiz-adv-x="514" d="M492 190q0 -90 -93 -141q-70 -39 -137 -39q-42 0 -121 22q-100 27 -100 60q0 21 34 51q4 -51 74 -73q44 -14 105 -14q68 0 122 33q65 40 65 108q0 59 -81 90q-55 21 -111 21q-6 0 -26.5 -2.5t-27.5 -2.5q-16 0 -31 10t-15 18q-1 18 6 65t7 70q0 55 -28 79l5 39 q79 -5 157 -10q69 -5 119 -26v-18q-14 -17 -71 -17q-7 0 -44 5t-44 5q-40 0 -49 -68q-1 -39 -2 -77q58 -15 117 -30q77 -23 117 -54q53 -41 53 -104z" />
<glyph unicode="6" horiz-adv-x="354" d="M344 136q0 -45 -34 -88q-38 -48 -87 -48q-100 0 -146 78q-36 60 -36 150q0 72 27 168q40 142 111 142q24 0 56 -21q2 -11 -23 -24q-20 -9 -39 -18q-41 -24 -69 -99q-10 -26 -16 -71q-9 -65 -11 -76q2 -3 6 -4.5t7 -4.5q75 62 128 62q56 0 93 -53q33 -45 33 -93zM297 146 q0 21 -11 45q-18 35 -50 35q-19 0 -57 -19q-48 -23 -50 -23q0 -26 -10.5 -47.5t-10.5 -23.5q0 -26 48 -46q38 -16 59 -16q36 0 61 35q21 30 21 60z" />
<glyph unicode="7" horiz-adv-x="443" d="M426 311q-22 -23 -57 -30q-23 -4 -46 -9q-18 -8 -15 -39q0 -79 -2 -128q-1 -34 -2.5 -50t-1.5 -13q-2 0 -4.5 -3t-10.5 -3q-38 0 -38 64q0 27 8 80t8 68t-5 20q-5 9 -52 9q-7 0 -35 -5t-35 -5q-15 0 -29 15q-12 12 -12 18q0 38 36 38q7 0 43 -5t42 -5q41 0 52 14 q1 36 7 110q5 70 5 74q0 18 -14 22q-2 1 -19 1q-47 0 -90 -18q-27 -10 -59 -32q-26 -17 -31 -17q-9 0 -21 11.5t-12 21.5q0 40 125 69q94 21 142 21q35 0 35 -28q0 8 -30 -241q16 -16 56 -15q44 0 62 -10z" />
<glyph unicode="8" horiz-adv-x="340" d="M354 464q0 -36 -59 -107.5t-59 -69.5q0 -3 25.5 -41t25.5 -72q0 -70 -77 -105q-52 -23 -110 -23q-74 0 -74 36q0 41 36 89q18 25 66 72q36 36 36 47q0 4 -35 49q-57 74 -57 130q0 51 58 81q46 24 93 24q52 0 91.5 -32t39.5 -78zM303 464q0 22 -24 33q-12 -9 -45 -20 q-13 9 -13.5 21.5t-1.5 24.5q-91 -21 -91 -77q0 -23 30 -63q24 -34 44 -50q27 15 64 62.5t37 68.5zM236 187q0 18 -11 38.5t-28 20.5q-16 0 -60.5 -56.5t-43.5 -69.5v-22q2 0 8.5 -3t13.5 -3q32 0 71 23q50 30 50 72z" />
<glyph unicode="9" horiz-adv-x="409" d="M369 37h-51v144q-1 13 -7 155q-1 28 -12 44q-29 -24 -59 -48q-27 -19 -68 -19q-49 0 -85 28q-41 31 -41 79q0 70 60 110q52 34 122 34q7 0 42.5 -10t42.5 -10q5 0 16.5 2t22.5 2q18 -18 18 -53q0 -12 -3 -21q-13 -52 -13 -171q0 -130 15 -266zM307 474v32q-46 2 -65 2 q-43 0 -81 -14q-64 -22 -64 -74q0 -56 67 -56q25 0 82 37q62 41 61 73z" />
<glyph unicode=":" horiz-adv-x="163" d="M133 120q0 -13 -15.5 -30.5t-22.5 -17.5q-17 0 -28 13t-11 30q14 54 34 54q17 0 30 -16t13 -33zM133 320q0 -13 -15.5 -30.5t-22.5 -17.5q-17 0 -28 13t-11 30q14 54 34 54q17 0 30 -16t13 -33z" />
<glyph unicode=";" horiz-adv-x="163" d="M133 320q0 -13 -15.5 -30.5t-22.5 -17.5q-17 0 -28 13t-11 30q14 54 34 54q17 0 30 -16t13 -33zM44 -81q2 0 6 -3t12 -3q25 0 41 86q12 64 12 114q0 56 -25 56q-32 0 -34 -33q2 -44 2 -128q-1 -7 -7.5 -26t-6.5 -25v-38z" />
<glyph unicode="&#x3c;" horiz-adv-x="325" d="M323 59q0 -15 -11 -26.5t-22 -11.5q-2 0 -83 84q-96 98 -136 136.5t-40 53.5q0 7 102 104.5t118 97.5q19 0 41 -22q-4 -13 -97 -84q-87 -68 -87 -99q0 -22 107.5 -121.5t107.5 -111.5z" />
<glyph unicode="=" horiz-adv-x="370" d="M344 367q0 -9 -10 -16t-21 -7q-7 0 -37.5 5t-37.5 5q-50 0 -105 -15.5t-48 -15.5q-14 0 -26.5 12.5t-12.5 23.5q0 15 17 29l229 22q17 0 34.5 -16.5t17.5 -26.5zM338 270q-4 -12 -16.5 -24.5t-21.5 -13.5q-65 -6 -113 -8q-11 -1 -44 -12.5t-38 -11.5q-15 0 -26.5 12.5 t-11.5 25.5q0 22 108 38q80 11 117 11q33 0 46 -17z" />
<glyph unicode="&#x3e;" horiz-adv-x="349" d="M328 310q0 -11 -110.5 -145t-125.5 -134q-13 0 -36 23q56 65 113 130q67 79 82 121q-137 89 -179 169l6 38h39q19 -33 63 -92q39 -26 77 -51q71 -48 71 -59z" />
<glyph unicode="?" horiz-adv-x="462" d="M451 536q0 -66 -66 -134q-36 -37 -123 -98q-1 -7 -1 -40q0 -23 -12 -38q-13 4 -38.5 39t-25.5 50q0 23 37 42l62 24q37 16 76.5 69t39.5 86q0 42 -51 66q-37 18 -70 18q-55 0 -116 -36q-71 -42 -71 -99q0 -11 18 -39q15 -24 23 -32v-24h-55l-37 53q-5 11 -5 39 q0 85 101 139q78 40 148 40q57 0 106 -28q60 -36 60 -97zM297 74q0 -14 -11 -26t-24 -12q-31 0 -31 31q0 13 12 29.5t26 16.5q11 0 19.5 -15.5t8.5 -23.5z" />
<glyph unicode="@" horiz-adv-x="661" d="M641 320q0 -54 -21 -108q-27 -74 -76 -74q-65 0 -142 118q-12 -6 -76 -57q-48 -40 -80 -40q-26 0 -43.5 21t-17.5 43q0 50 63 113q34 33 72 47q18 0 51 8q8 4 23 23q12 17 19 17q25 0 33 -60q12 -96 17 -111q19 -60 73 -60t54 100q0 107 -70 178t-171 71q-6 0 -33 -12 q-31 -13 -41 -16q-36 -10 -100 -68q-68 -62 -76 -102q-17 -77 -17 -105q0 -117 112 -167q73 -33 183 -33q52 0 77 21l18 -18q-10 -24 -49 -40q-31 -14 -51 -14q-115 0 -208 46q-128 63 -128 190q0 81 12 126q19 73 128.5 155.5t190.5 82.5q105 0 191 -89q83 -86 83 -186z M385 336l-6 17q-16 3 -74 -37q-64 -46 -64 -83q0 -6 12 -17q40 2 82 46q35 36 50 74z" />
<glyph unicode="A" horiz-adv-x="670" d="M697 8q0 -34 -28 -34q-26 0 -48 50q-20 45 -40 91q-27 49 -66 49q-66 0 -211 -31.5t-161 -51.5q-8 -10 -23 -43q-19 -44 -24 -53h-16q-22 0 -44 94q0 20 34 35q38 17 41 23q55 99 135 264q77 158 77 168q0 5 -10 25.5t-10 31.5q0 19 6 30h21q13 0 58 -97l56 -124 q23 -47 77 -149l18 -34q12 -21 24 -31q5 -4 22 -7t22 -6q17 -11 17 -33q0 -14 -13 -25q4 -19 45 -77.5t41 -64.5zM507 216v18l-156 274l-174 -351z" />
<glyph unicode="B" horiz-adv-x="601" d="M579 269q0 -121 -168 -195q-123 -53 -221 -53q-56 0 -128 10q-6 30 -6 208v163q0 6 -10 92.5t-10 92.5q0 51 123 95q101 36 149 36q62 0 113 -17q76 -25 76 -78q0 -52 -71 -130q-59 -66 -119 -102q0 -4 9 -10q65 0 134 -16q129 -28 129 -96zM446 610q0 34 -63 55 q-49 17 -86 17q-64 0 -129 -39q-81 -49 -81 -125q0 -9 7 -64q7 -65 9 -90h48q64 0 176 84q119 90 119 162zM528 267q0 37 -108 60q-77 17 -130 17q-51 0 -100 -16q-5 -2 -92 -36q8 -84 17 -167q15 -69 103 -69q72 0 180 56q130 69 130 155z" />
<glyph unicode="C" horiz-adv-x="539" d="M564 487q0 -23 -22 -56h-28q-1 26 -13 78q-8 18 -45 30q-30 10 -48 10q-36 0 -108 -31q-82 -36 -136 -83q-67 -59 -67 -120q0 -115 158 -166q94 -31 196 -31q31 0 71 4q0 -1 3 -6.5t3 -12.5q0 -36 -59 -36q-122 0 -244 45q-179 67 -179 198q0 69 78 142q65 61 162 106 q89 42 137 42q54 0 97.5 -32t43.5 -81z" />
<glyph unicode="D" horiz-adv-x="596" d="M579 420q0 -116 -97 -230q-95 -110 -237 -166q-87 -34 -96 -34q-50 0 -50 61q0 4 2 29q3 76 -2 307q-2 53 -13 122q-8 6 -28 13q-12 4 -12 19q0 45 94 74q67 21 106 21q90 0 199 -54q134 -67 134 -162zM528 400q0 85 -102 144q-89 51 -182 51q-37 0 -45 -3q-1 0 -60 -30 q5 -14 5 -42l10 -441q0 -11 8 -19.5t17 -8.5q103 0 226 119t123 230z" />
<glyph unicode="E" horiz-adv-x="477" d="M503 67q0 -24 -22 -30q-5 -1 -32 -1q-28 0 -42 5l-240 -31q-13 2 -27.5 17t-15.5 21q1 62 -11 194q-5 3 -15 1q-16 -2 -19 -2q-12 0 -20 10.5t-8 22.5q0 25 16 29q28 6 41 18q0 62 -12 178q-3 15 -21.5 25.5t-18.5 31.5q0 16 23 26q18 8 36 8q5 0 25.5 -5.5t31.5 -5.5 l200 26l46 -14q28 -11 28 -30q0 -23 -20 -23q-7 0 -28.5 10.5t-28.5 10.5q-57 0 -206 -27q-19 -20 -19 -70q0 -80 -1 -77q3 -47 20 -67l281 31q3 0 27 -11v-30q-28 -26 -38 -26q-3 0 -45.5 10.5t-49.5 10.5q-19 0 -84 -13q-79 -15 -100 -31q14 -38 15 -96q0 -52 9 -66 q15 -25 73 -25h98q6 0 61 10t62 10q9 0 20 -8t11 -17z" />
<glyph unicode="F" horiz-adv-x="454" d="M482 551q0 -9 -9.5 -21t-18.5 -12q-3 0 -56 10t-65 10q-54 0 -109 -10q-58 -12 -81 -29v-131q23 -19 83 -19q5 0 56 5t56 5q13 0 60 -10q44 -9 53 -12v-19q-15 -9 -50 -9q-21 0 -66.5 4.5t-62.5 4.5q-27 0 -115 -17q-13 0 -13 -63q-1 -79 2 -127.5t3 -38.5q0 -26 -13 -32 q-16 -4 -31 -9q-17 11 -17 78q0 34 6 99q5 55 2 76q-4 5 -35 13q-25 7 -25 23q0 8 2.5 13t4.5 10q11 7 48 25q6 42 6 68q0 33 -2.5 37.5t-43.5 34.5v29q16 11 43 42h21q3 0 17 -10t30 -10l292 26q9 0 18.5 -12t9.5 -22z" />
<glyph unicode="G" horiz-adv-x="592" d="M584 262q-18 -16 -33 -16q-4 0 -26 2q-19 1 -33 0q-19 -1 -37 -6q-4 3 -4 -9q0 -6 20.5 -35.5t20.5 -35.5q0 -51 -91 -77q-61 -18 -109 -18q-104 0 -173 45q-83 55 -83 162q0 116 93 227q101 119 225 119q70 0 114.5 -38t44.5 -108q0 -33 -10 -61q-13 -39 -39 -39 q-9 0 -18.5 9.5t-9.5 19.5l13 25t13 54q0 49 -38 75q-32 22 -78 22q-109 0 -188 -106q-71 -94 -71 -194q0 -86 62 -132q54 -39 141 -39q28 0 71 11q54 13 70 32v20q-72 60 -80 60q-6 0 -62.5 -18t-62.5 -18t-31 11v34q6 6 17 14q56 6 202 26q129 17 135 17q18 0 35 -16v-19z " />
<glyph unicode="H" horiz-adv-x="549" d="M518 74q0 -16 -12.5 -29.5t-23.5 -13.5q-10 0 -29 22q10 39 10 86q0 -9 -7 104q-1 27 -18 32q-45 12 -120 12q-104 0 -196 -12q-16 -29 -16 -71q0 -20 5.5 -62.5t5.5 -63.5q0 -42 -16 -72h-34q1 9 0 28v26v219q0 6 -10.5 15.5t-10.5 15.5q0 7 9.5 24t11.5 23l-5 272 q11 12 23 12q17 -13 23 -121l6 -172q71 -25 81 -25q-11 0 32 2.5t134 2.5q24 6 46 6q8 0 18 -1t12 -1q11 0 9 27l-20 156v135q18 22 36 22q30 0 30 -28q0 -7 -10 -54.5t-10 -53.5q0 -34 11 -103q12 -80 26 -107q-13 -41 -13 -102q0 -41 8 -119q0 -4 7 -14.5t7 -16.5z" />
<glyph unicode="I" horiz-adv-x="425" d="M425 72q-26 -13 -73 -18q-68 -7 -82 -10q-21 -4 -77 -23q-51 -16 -57 -16q-18 0 -29.5 11t-8.5 29q18 18 53 20.5t56 18t21 98.5q0 19 -1 51.5t-1 43.5q0 116 -1 129q-3 85 -19 138q-14 -4 -65 -24q-46 -17 -51 -17q-39 0 -39 28q0 4 17 31q43 9 123 24q9 6 21 24 q6 10 24 10q6 0 29 -5t30 -5q6 0 37 8t37 8q26 0 26 -39q0 -15 -12 -38h-16q-6 0 -19 10t-20 10q-29 0 -55 -14q-6 -48 -6 -158l5 -271q5 -29 23 -29q4 0 53 8t74 10z" />
<glyph unicode="J" horiz-adv-x="518" d="M554 600q0 -11 -9.5 -26t-18.5 -15q-6 0 -19 5t-20 5q-33 0 -92 -18q11 -46 53 -154q24 -64 24 -133q0 -96 -41 -160q-51 -78 -152 -78q-45 0 -124 33q-88 37 -88 72q0 24 7.5 33t55.5 41q3 0 9.5 -3t8.5 -3v-18q1 -4 -12 -21t-13 -24q0 -20 66 -47q56 -22 67 -22h41 q69 0 104 80q25 56 25 115q0 71 -43 175q-41 101 -70 112l-251 -41q-12 -1 -36 11v29q91 10 273 38q8 1 25.5 12.5t24.5 11.5q5 0 19.5 -5t21.5 -5q6 0 29 2.5t29.5 2.5t36 10.5t35.5 10.5q8 0 21 -9t13 -17z" />
<glyph unicode="K" horiz-adv-x="493" d="M497 52q-23 -21 -33 -21q-8 0 -11 2.5t-5 4.5q-4 29 -144.5 149.5t-172.5 120.5q-17 0 -19 -24q1 12 1 -33q0 -86 18 -146.5t18 -63.5q0 -16 -11 -28.5t-20 -12.5t-19 7.5t-11 15.5q-6 50 -16 303q0 4 -7.5 17t-7.5 19v247h50q-8 -25 -8 -57q0 -20 4 -58q4 -41 4 -60 q2 -1 2.5 -4.5t8.5 -3.5q45 0 167 85q113 80 127 104q18 -6 49 -27q0 -2 -3 -12.5t-4 -15.5l-182 -106q-128 -74 -128 -80q0 -8 131 -112q185 -145 222 -176v-34z" />
<glyph unicode="L" horiz-adv-x="421" d="M451 69q0 -28 -25 -28q-7 0 -64.5 5t-64.5 5q-6 0 -92 -10t-92 -10q-51 0 -51 48q0 5 5.5 39t5.5 49q1 39 8 122q6 79 6 83q0 104 -10 153.5t-10 56.5q0 12 10.5 20t22.5 8q29 0 29 -177q0 -48 -4 -179q-3 -108 -1 -148q26 -19 40 -19q7 0 126 8t125 8q16 0 26 -12.5 t10 -21.5z" />
<glyph unicode="M" horiz-adv-x="661" d="M636 -18q0 -38 -33 -38q-22 0 -28 37q-1 8 -1 48v188q0 134 -29 255q-10 -12 -101 -156q-76 -121 -103 -121q-8 0 -113 108q-56 59 -113 117q-7 7 -7 -5v-290q0 -6 5 -51t5 -51q0 -22 -39 -44q-22 16 -22 48q0 10 5 42l5 218q0 3 -3.5 69t-3.5 93q-1 42 -15 60.5 t-14 28.5q0 17 12.5 34.5t23.5 17.5q22 0 34 -18q-4 -22 17 -64q19 -36 42 -63q43 -50 110 -114t76 -64q18 0 72 94q36 65 73 130q29 48 39 96q16 8 19 8q12 0 28 -14q14 -77 37 -321q22 -231 22 -278z" />
<glyph unicode="N" horiz-adv-x="655" d="M646 579q0 -33 -42 -274q-46 -264 -68 -264q-7 0 -168 170q-204 213 -257 266l43 -436q0 -7 -17 -41q-50 8 -50 27q0 5 2.5 12.5t2.5 9.5v127q0 106 -28 249t-28 129q0 18 16.5 29.5t34.5 11.5q19 0 30 -8q33 -88 155 -217q117 -116 233 -232q22 12 34 59l16 78 q14 52 19 108q4 38 7 76q10 80 7 97q-7 39 -7 41q0 29 27 29q14 0 26 -16t12 -31z" />
<glyph unicode="O" horiz-adv-x="609" d="M579 218q0 -111 -74 -164q-61 -44 -167 -44q-110 0 -188 56q-88 64 -88 175q0 44 32 134q38 106 90 174q65 87 134 87q53 0 105 -39q4 -7 4 -23q0 -36 0 -27q77 -69 119 -170q33 -84 33 -159zM538 220q0 32 -22 106q-24 81 -47 109q-16 19 -74 70q-46 39 -63 74 q-76 8 -154 -120q-70 -115 -70 -192q0 -211 230 -211q71 0 128 36q72 45 72 128z" />
<glyph unicode="P" horiz-adv-x="492" d="M492 441q0 -80 -87 -146q-61 -47 -168 -88q-54 -21 -109 -42v-148q0 -8 6 -11t6 -5q0 -6 -34 -47q-13 5 -17 8q-9 6 -10.5 14t-1.5 18q0 15 4 49t4 47q0 18 -5 56t-5 57v256q0 10 -14.5 36t-14.5 31q0 37 67 58q48 16 84 16q63 0 164 -39q131 -51 131 -120zM441 438 q0 51 -109 90q-85 31 -129 31q-62 0 -76 -47q-4 -15 -4 -97q0 -130 16 -189q32 1 99 27q83 31 135 72q68 54 68 113z" />
<glyph unicode="Q" horiz-adv-x="576" d="M554 320q0 -67 -36 -127q-24 -39 -67 -79q-36 -34 -36 -37q0 -28 30 -42q5 -2 37 -10v-34q-26 -27 -44 -27q-15 0 -35 41t-41 41q3 0 -41 -15.5t-95 -15.5q-195 0 -195 193q0 138 62 242q70 114 196 146q5 1 24 10t25 9q53 0 130 -94q63 -79 68 -103q18 -81 18 -98z M513 318q0 42 -39 120q-48 95 -102 95q-7 0 -13.5 -10t-12.5 -10t-30.5 18t-30.5 18q-97 0 -162 -135q-51 -104 -51 -183q0 -180 146 -180q35 0 110 32v18l-50 76q-37 59 -37 82q0 11 9 28h14q27 -11 31 -17q7 -19 14 -37q18 -45 62 -115q42 8 92 78t50 122z" />
<glyph unicode="R" horiz-adv-x="530" d="M533 31q0 -36 -30 -36q-67 64 -126 112q-144 117 -240 144q-9 -8 -9 -36l25 -209q-1 0 -9.5 -3t-15.5 -3q-34 0 -43 233l-2 110q-2 69 -13 126q-2 9 -20.5 20t-18.5 26q0 58 130 92q90 24 149 24q67 0 120 -29q67 -37 67 -105q0 -79 -97 -150q-80 -57 -169 -78 q26 -25 104 -72t114 -82q14 -14 29 -28.5t27 -14.5q11 0 16 5q12 -37 12 -46zM446 497q0 40 -42 68q-38 25 -78 25q-51 0 -106 -12q-69 -15 -90 -40q-12 -15 -12 -84q0 -78 4 -91q12 -45 68 -45q77 0 157 44q99 53 99 135z" />
<glyph unicode="S" horiz-adv-x="564" d="M544 174q0 -73 -105 -124q-82 -40 -144 -40q-42 0 -137 25q-122 33 -122 73q0 44 60 51q3 -6 1 -43q78 -60 185 -60q60 0 124 28q86 37 86 101q0 43 -119 94q-30 12 -135 47q-81 27 -102 39q-54 30 -54 79q0 70 114 126q93 45 148 45q43 0 80 -23q43 -27 43 -69 q0 -24 -8 -50q-10 -32 -26 -32q-6 0 -14 3t-13 3q5 47 5 61q0 30 -15.5 43t-59.5 13q-39 0 -110 -31q-88 -39 -88 -84q0 -49 105 -83q98 -32 196 -63q105 -48 105 -129z" />
<glyph unicode="T" horiz-adv-x="440" d="M472 572q0 -17 -13 -30.5t-23 -13.5q-8 0 -12 5t-7 9q-48 12 -94 12q-61 0 -61 -100q0 -105 28 -241t28 -139q0 -58 -23 -64q-30 7 -33 43t-4 72q-43 239 -43 386v29q-7 9 -38 9q-6 0 -51 -10.5t-52 -10.5q-4 0 -28 12v23q11 11 17.5 13t179.5 13q168 11 195 11 q13 0 23.5 -8.5t10.5 -19.5z" />
<glyph unicode="U" horiz-adv-x="564" d="M528 366q0 -108 -54 -216q-68 -135 -177 -135t-180 137q-55 108 -55 205v195q12 27 35 27q31 0 31 -33q0 -6 -10 -79t-10 -80q0 -93 36 -186q52 -134 153 -134q104 0 156 150q34 101 34 206q0 6 -15 57t-15 56v22q23 11 30 11q19 0 32 -32q9 -24 9 -42v-129z" />
<glyph unicode="V" horiz-adv-x="564" d="M559 510q-15 -11 -35 -37q-52 -135 -105 -270q-78 -193 -101 -193q-31 0 -96 126q-48 94 -106 237q-49 124 -49 135q0 7 3 15t3 10q4 0 39 5q40 -114 81 -228q46 -119 113 -213q38 19 102 185q59 152 77 255q11 18 31 27q32 -32 43 -54z" />
<glyph unicode="W" horiz-adv-x="694" d="M667 500q0 -6 -7 -20t-7 -21l-2 -112q-4 -121 -20 -196q-24 -105 -69 -105q-17 0 -56 42q-44 48 -87 158q-34 95 -69 190q-7 1 -11 -4q-31 -87 -56 -187q-21 -82 -35 -113q-22 -48 -75 -106q-29 -3 -64 104q-10 32 -40 191q-33 178 -33 235q0 21 33 23q38 0 37 -28 q-2 -38 -2 -72q0 -233 68 -361q36 31 73 152q23 85 45 169q6 19 5 57q-1 42 4 61q2 8 14.5 20.5t22.5 12.5q25 0 36 -33q35 -122 69 -243q45 -142 116 -201q27 11 42 103q13 75 13 169q0 45 -4 74q-1 7 -5 24t-4 24q0 21 27 21q9 0 25 -8.5t16 -19.5z" />
<glyph unicode="X" horiz-adv-x="521" d="M513 69q0 -7 -8 -21q-10 -17 -20 -17q-7 0 -15 3t-12 4q-28 51 -158 218q-48 -37 -141 -202q2 -4 11 -10.5t9 -12.5q0 -10 -14.5 -23t-24.5 -13h-52q0 2 -3 11.5t-3 16.5q0 13 90 134.5t90 139.5q0 11 -65 89q-16 19 -100 111q-61 67 -61 75q0 28 33 28q12 0 112 -120 l104 -126q15 15 79 126q59 105 67 105q16 0 28.5 -12.5t12.5 -21.5q0 2 -74.5 -112t-74.5 -129q0 -23 69.5 -102.5t98.5 -86.5q22 -25 22 -52z" />
<glyph unicode="Y" horiz-adv-x="573" d="M559 551q0 -2 -55 -81q-61 -88 -81 -125q-1 -3 -19 -21t-23 -35q-17 -52 -17 -148q0 -42 10.5 -73t10.5 -27q0 -31 -34 -31q-29 0 -36 98q-2 60 -4 119q-60 56 -88 84q-51 52 -83 95q-26 36 -60 92.5t-34 65.5q0 13 12 22t24 9q16 0 24 -12q15 -48 76 -149 q80 -131 131 -131q27 0 117 146t101 146t19.5 -16t8.5 -28z" />
<glyph unicode="Z" horiz-adv-x="464" d="M492 13q0 -34 -33 -34l-331 26q-6 0 -20 -5t-21 -5q-10 0 -24 21q-12 18 -12 22q0 2 63 85q78 100 105 137q58 79 101 170q55 112 70 136q-13 12 -28 14q3 -1 -31 -1q-16 0 -106.5 -17.5t-88.5 -17.5q-14 0 -26.5 8t-12.5 20q0 6 8 15q10 14 25 16q40 7 166 20 q123 13 140 13q9 0 17.5 -11.5t8.5 -21.5q0 -42 -151 -275q-114 -175 -173 -254q14 -17 107 -29q73 -9 119 -9q5 0 45.5 2.5t46.5 2.5q36 0 36 -28z" />
<glyph unicode="[" horiz-adv-x="244" d="M261 -50q-58 -24 -155 -19q-6 1 -17 -3.5t-17 -4.5q-18 0 -26 20q-5 11 -5 21l15 695q-3 14 14 25q13 8 22 8q26 0 90 -13q61 -13 69 -19q-10 -33 -52 -33q-7 0 -21.5 1t-21.5 1q-18 0 -29 -5q-14 -6 -23 -36q-7 -24 -7 -46v-150q0 -7 -5 -79.5t-5 -79.5q0 -178 17 -235 q4 -13 65 -13q7 0 23.5 2.5t22.5 2.5q23 0 46 -17v-23z" />
<glyph unicode="]" horiz-adv-x="308" d="M302 -109q0 -20 -103 -54q-93 -30 -115 -30q-17 0 -33.5 15.5t-16.5 27.5q0 20 21 35.5t42 15.5q9 0 12 -3.5t12 -3.5q49 0 76 30q24 27 24 71l-33 459v194q0 4 4 22t4 28q0 28 -28 28q-9 0 -62.5 -23.5t-61.5 -23.5q-14 0 -44 28v32q18 13 114 41q92 27 111 27 q11 0 27 -21.5t16 -35.5q0 -9 -13 -126.5t-13 -125.5q0 -13 10 -184q13 -189 25 -309q1 -16 13 -61.5t12 -52.5z" />
<glyph unicode="a" horiz-adv-x="427" d="M405 115q0 -12 -10 -24q-12 -15 -29 -19q-20 27 -45 88q-34 80 -37 86q-43 -55 -86 -109q-43 -45 -98 -45q-18 0 -37 12q-22 14 -22 32q0 49 144 202q15 15 34 20q26 6 29 7.5t12.5 13t16.5 11.5t33 -17q0 -17 4 -47q12 -45 41 -123q6 -16 29 -51q21 -31 21 -37zM251 308 q0 10 -18 10q-24 -17 -71 -69q-54 -61 -54 -83v-17h27q30 0 76 73q40 67 40 86z" />
<glyph unicode="b" horiz-adv-x="410" d="M374 236q0 -81 -70 -138q-64 -52 -142 -52q-40 0 -90 17q0 1 -2.5 5t-2.5 11q0 11 16 21q13 8 20 8q6 0 30.5 -5.5t30.5 -5.5q64 0 109 35q50 39 50 104q0 51 -54 51q-46 0 -88 -41q-22 -23 -57 -77q-26 -41 -37 -41q-31 0 -31 28q0 7 8 39.5t8 38.5v323q12 12 25 12 q30 0 30 -36q0 -14 -5 -34q-2 -9 -4 -19v-209q-4 -4 8 -4l50.5 33t85.5 33q112 0 112 -97z" />
<glyph unicode="c" horiz-adv-x="362" d="M338 336q0 -11 -16 -22t-27 -11q-1 0 -32 17.5t-32 17.5q-29 0 -82 -38q-57 -41 -57 -72q0 -64 119 -99q76 -22 122 -22v-24q-18 -11 -38 -11q-60 0 -141 32q-118 47 -118 129q0 51 85 106q77 51 123 51q20 0 53 -14q41 -17 41 -40z" />
<glyph unicode="d" horiz-adv-x="376" d="M344 146q0 -64 -36 -64q-21 0 -26 39q-7 54 -17 71q-22 39 -86 39q-42 0 -63 -37q-13 -25 -13 -58q0 -49 42 -73q30 -17 98 -27q4 4 37 3q34 -1 38 -5v-17q-10 -6 -35 -14t-34 -8q-7 0 -26 2.5t-26 2.5q-56 0 -102 42q-49 45 -49 107q0 46 37.5 89.5t85.5 43.5 q44 0 74 -15q13 9 13 27q0 6 -2.5 19t-2.5 18v129q12 12 21 12q24 0 34 -23q-8 -117 3 -179q4 -21 21 -61q14 -33 14 -63z" />
<glyph unicode="e" horiz-adv-x="311" d="M312 76q-1 -35 -62 -56q-45 -15 -83 -15q-34 0 -67 19q-46 28 -53 81q2 30 -3 81q-1 6 -7 11.5t-6 12.5q0 13 9 22q15 15 20 23q13 31 26 61q10 22 47 22q42 0 84 -47q39 -44 39 -78q0 -13 -11.5 -31t-23.5 -18q-3 0 -24.5 10.5t-73.5 10.5q-26 0 -30 -9q-1 -1 -1 -22 q0 -35 16 -66q21 -42 61 -42q31 0 76 15l45 15h22zM190 238q-30 44 -46 44q-10 0 -23 -13.5t-13 -19.5q0 -12 6 -13q39 -8 76 2z" />
<glyph unicode="f" horiz-adv-x="378" d="M395 468l-18 -17q-30 29 -60 57q-21 20 -50 20q-49 0 -62 -76q-5 -26 -5 -96q0 -11 -1 -29v-25q0 -38 16 -51q20 -15 82 -15q39 0 40 -2t7 -11q-11 -18 -54 -18q-7 0 -21 2.5t-20 2.5q-11 0 -22.5 -5.5t-11.5 -12.5q0 -22 26 -111t26 -86q0 -11 -12 -23.5t-22 -12.5 q-23 0 -41 123t-38 123q-5 0 -44 -13t-46 -13q-14 0 -24 13q-9 10 -9 21q0 42 124 33q3 11 3 47v30v34q0 228 96 228q37 0 80.5 -29t60.5 -71v-17z" />
<glyph unicode="g" horiz-adv-x="329" d="M297 279q-17 -18 -28 -18q-6 0 -18 5t-18 5q-41 0 -92 -33q-59 -38 -59 -85q0 -35 33 -35q41 0 62 35q6 10 25 67q13 36 31 36q24 0 38 -81q11 -61 11 -109q0 -75 -44 -163q-55 -108 -138 -108q-16 0 -36 13q-23 16 -23 33q0 12 22 46q8 -3 22 -22t20 -19q61 0 101 98 q30 73 30 122q0 6 -2.5 25.5t-2.5 27.5q4 4 -8 4q1 0 -36 -28.5t-74 -28.5q-36 0 -59 26t-23 56q0 58 63 115q60 55 114 55q13 0 48 -15.5t41 -23.5z" />
<glyph unicode="h" horiz-adv-x="363" d="M389 -40q-1 0 -9.5 -5.5t-15.5 -5.5q-29 0 -45 42q-11 40 -22 79q-13 43 -38 43q-15 0 -77 -51.5t-82 -51.5q-14 0 -28 43l-5 178q0 88 27 179q14 -6 39 -21q-3 -35 -15 -116q-10 -74 -10 -78q0 -9 15 -99q-4 -4 8 -4q3 0 54.5 41t83.5 41q38 0 67 -57q12 -24 26 -77.5 t27 -79.5z" />
<glyph unicode="i" horiz-adv-x="189" d="M123 465q-6 -9 -32.5 -24t-31.5 -15q-9 0 -23.5 12.5t-14.5 20.5q0 15 21 25q18 8 37 8q8 0 20.5 -9.5t23.5 -17.5zM149 218q0 -6 -4.5 -20t-4.5 -21q-2 -51 0 -94q4 -50 4 -47q0 -19 -17 -36q-7 0 -17 10t-11 18q-17 113 -17 169q0 65 33 65q34 0 34 -44z" />
<glyph unicode="j" horiz-adv-x="169" d="M106 423q-1 0 -10.5 -3t-17.5 -3q-43 0 -43 44q0 23 31 23q12 0 24 -6q16 -8 16 -22v-33zM163 -95q0 -72 -24 -124q-30 -66 -89 -66q-27 0 -36.5 13t-14.5 57q5 2 12 7q3 -1 19 -13.5t23 -12.5q43 0 60 71q9 37 9 83q0 85 -19 166q-10 45 -34 113q-19 53 -19 70 q0 9 7.5 19.5t15.5 10.5q9 0 22 -10t15 -17q5 -45 18 -129q35 -167 35 -238z" />
<glyph unicode="k" horiz-adv-x="335" d="M359 -4q-23 -22 -33 -22q-54 0 -109 60q-53 57 -52 105q-22 -3 -33 -42q-19 -65 -25 -76h-35q-11 46 -18 139q-9 136 -10 144.5t-7 32t-6 30.5q0 59 31 59q22 0 33 -18q-7 -38 -7 -78q0 -23 4 -73.5t5 -82.5q4 0 13 -10q21 26 72 71q64 57 87 57t23 -36q0 -5 -35.5 -62 t-35.5 -71q0 -20 31 -56t59 -45q17 -2 48 -12v-14z" />
<glyph unicode="l" horiz-adv-x="167" d="M144 54q0 -10 -18 -28q-14 6 -37 16q-17 73 -30 189q-13 111 -13 182q0 59 28 59q13 0 26 -11t13 -17q0 -3 -7 -22q-14 -22 -14 -76q0 -75 14 -146q8 -47 24 -98q14 -43 14 -48z" />
<glyph unicode="m" horiz-adv-x="529" d="M502 63q-6 -7 -20 -7q-28 0 -45 58q-7 34 -13 67q-6 28 -28 86h-13q-15 0 -54 -65q-24 -39 -48 -79h-34q-17 53 -50 144q-14 -9 -58 -93q-40 -77 -57 -77q-36 0 -36 230q23 22 33 22q27 0 27 -47q0 -18 -4.5 -47t-4.5 -31l8 -9l42 78q37 66 58 66q23 0 41 -60 q12 -39 24 -79q8 6 60 72q43 54 79 56q17 -21 56 -137q38 -110 37 -126v-22z" />
<glyph unicode="n" horiz-adv-x="362" d="M354 27q-12 -12 -21 -12q-19 0 -56 88q-44 104 -59 123q-38 -25 -72 -84q-45 -78 -51 -86q-14 6 -37 18q-1 33 -11.5 104t-10.5 73q0 16 11 24.5t22 16.5q27 -12 27 -48v-17q-1 -11 -1 -17q0 -19 6 -31q4 4 59 69q42 48 74 49q24 -23 73 -130q47 -100 47 -113v-27z" />
<glyph unicode="o" horiz-adv-x="316" d="M272 233q0 -65 -45 -110.5t-109 -45.5q-87 0 -87 100q0 56 37 114q43 68 101 68q53 0 81 -47q22 -37 22 -79zM221 251q0 46 -49 46q-44 0 -75 -61q-27 -54 -20 -87q24 -21 44 -21q45 0 74 42q26 37 26 81z" />
<glyph unicode="p" horiz-adv-x="363" d="M318 217q0 -87 -99 -159q-9 -7 -50 -23q-46 -18 -66 -29q-2 -26 4 -80q6 -64 6 -83q0 -25 -6 -38h-24q-14 4 -21 80q-3 60 -7 121q-29 31 -29 40t13.5 27.5t11.5 46.5q-4 83 -4 171q26 5 95 25q60 17 66 17q110 0 110 -116zM272 230q0 17 -17.5 31.5t-44.5 14.5 q-113 0 -113 -141q0 -55 13 -69q62 17 112 66.5t50 97.5z" />
<glyph unicode="q" horiz-adv-x="370" d="M390 7q0 -9 -9 -17.5t-17 -8.5q-6 0 -16.5 5t-16.5 5q-28 0 -28 -18q0 6 2.5 -26.5t2.5 -101.5l15 -61q0 -29 -31 -29q-34 0 -34 33q0 7 2 17l2 10v147q-11 14 -21 14q-6 0 -66.5 -23t-66.5 -23q-17 0 -26.5 10.5t-9.5 22.5q0 16 84 43q102 32 106 35v64q-1 41 -9 61 q-9 -7 -66 -70q-39 -43 -72 -43q-41 0 -67 32q-22 27 -22 60q0 60 57 105q50 39 96 39q6 0 69 -11q5 15 12 31t27 16q17 0 28 -17q8 -12 8 -19t-10 -35t-11 -34v-164q7 -9 31 -11q30 -2 38 -5q19 -8 19 -33zM241 240q-5 5 -6 12q-36 -2 -87 -27q-71 -36 -71 -88 q0 -11 11 -19.5t22 -8.5q32 0 76 54q27 38 55 77z" />
<glyph unicode="r" horiz-adv-x="284" d="M256 298q-36 -9 -79 -50.5t-53 -81.5q-8 -32 -13 -77q-2 -17 -21 -17q-32 0 -51 88q-13 63 -13 109q0 11 28 39q28 -19 32 -30q1 -4 1 -34l4 -8q9 5 62 58q45 44 70 44q11 0 33 -22v-18z" />
<glyph unicode="s" horiz-adv-x="286" d="M262 325q-24 -13 -70 -33.5t-69 -33.5q8 -13 66 -62q47 -41 47 -65q0 -54 -51 -85q-41 -25 -82 -25q-38 0 -57 22q9 21 22 34q5 0 14.5 -5t17.5 -5q18 0 44 18q30 21 30 46q0 17 -56 56q-61 43 -65 50q-7 12 -7 25q0 24 78 59q71 33 94 33q15 0 44 -29z" />
<glyph unicode="t" horiz-adv-x="337" d="M307 226q-38 -8 -107 -29q-2 -103 6 -143q1 -3 8 -22q7 -15 7 -24q0 -34 -29 -34q-37 0 -37 143q0 31 2 68q-9 15 -24 15q-6 0 -33 -5t-33 -5q-16 0 -28.5 11.5t-12.5 26.5q0 10 10.5 22t19.5 12q7 0 27.5 -5.5t26.5 -5.5q35 0 42 6t7 38v148q0 31 7 69q11 62 34 62 q22 0 31 -43q0 -7 -15.5 -69.5t-15.5 -68.5v-128q19 -8 52 -12q27 -4 55 -8v-19z" />
<glyph unicode="u" horiz-adv-x="381" d="M374 16q-2 0 -8.5 -3t-14.5 -3q-32 0 -61 87q-15 47 -22 93q-3 0 -9 2.5t-9 2.5q-68 -128 -106 -128q-54 0 -85 72q-23 53 -23 99q0 35 1 43q6 37 32 37q9 0 21.5 -16t12.5 -20q0 -6 -10.5 -29.5t-10.5 -29.5q0 -23 15 -54q18 -36 39 -36q32 0 70 82q18 48 37 95 q16 8 26 8q23 0 32 -28q3 -12 8 -59q4 -51 9.5 -72.5t31.5 -67.5q24 -41 24 -47v-28z" />
<glyph unicode="v" horiz-adv-x="324" d="M292 333q0 -22 -64 -137q-67 -119 -90 -119q-30 0 -71 101q-36 88 -36 112q0 15 13 19q23 7 26 9q14 -20 24.5 -73t36.5 -86h15q12 18 62 117q37 76 61 88q23 -10 23 -31z" />
<glyph unicode="w" horiz-adv-x="472" d="M431 382q0 -6 -7 -13t-7 -13q0 -9 4 -41q4 -28 3 -41q-13 -88 -42 -155q-16 -37 -54 -37q-43 0 -68 45q-19 42 -38 83q-4 -3 -42 -63q-32 -50 -59 -50q-48 0 -75 69q-20 49 -20 88q0 110 46 110q9 0 20 -8t11 -18q0 -6 -13 -47t-13 -47q0 -26 8 -47q10 -28 30 -28 q31 0 63 85q29 78 23 108q13 23 32 23q9 0 22.5 -12.5t14.5 -20.5t-4.5 -29.5t-3.5 -32.5q7 -57 11 -73q13 -47 42 -68q52 45 52 127v16v17q0 65 40 91q24 0 24 -18z" />
<glyph unicode="x" horiz-adv-x="320" d="M297 369q0 -6 -48.5 -71.5t-48.5 -71.5q0 -5 31 -42q39 -47 51 -63v-22q-12 -12 -18 -12q-7 0 -38 30q-43 42 -49 47q-12 -5 -23 -25.5t-11 -38.5q0 -17 11 -26q-2 -1 -18 -10q-11 -8 -18 -8q-36 0 -36 31q0 7 23 66t23 65t-46 64t-46 64q0 16 10 27.5t23 11.5t44 -47 q19 -31 39 -61h14q24 36 48 73q38 50 67 50q1 -2 10 -15q6 -8 6 -16z" />
<glyph unicode="y" horiz-adv-x="352" d="M317 292q0 -4 -28 -49q-32 -49 -40 -75q-2 -3 -14 -29q-10 -20 -10 -29q0 -4 1 -7q14 -25 12 -34q-26 -2 -67 -85q-1 -3 -68 -152q-36 -81 -50 -81q-6 0 -14 3t-13 3q0 1 -3 6.5t-3 12.5q0 -2 51 99q56 109 72 196q-38 30 -75 81q-43 59 -43 96q0 31 26 31q10 0 23 -8 l32 -76q22 -48 55 -75q8 10 57 116q39 84 66 84q33 0 33 -28z" />
<glyph unicode="z" horiz-adv-x="325" d="M318 70q-11 -24 -28 -24q-105 0 -228 47v44q37 21 81 74q36 47 73 95v13q-2 0 -4 2t-9 2q-19 0 -80.5 -33.5t-59.5 -33.5l-39 3l-3 27q18 18 57 45q26 12 77 26q47 12 58 12h58q11 -34 11 -49q0 -35 -58 -101q-38 -42 -75 -83q15 -18 69 -32q70 -19 100 -34z" />
<glyph unicode="{" horiz-adv-x="296" d="M318 -56q-51 -36 -74 -36q-69 0 -104 42q-32 39 -32 104q0 6 12.5 79.5t12.5 79.5q0 26 -14 37q-8 7 -37 16q-34 10 -56 22v16q0 9 10 21t22 16q23 4 66 19q25 12 39 48q11 29 11 56q0 19 -22 70q-19 41 -38 83q-6 16 -6 39q0 30 43 53q35 19 59 19q19 0 47.5 -17.5 t29.5 -34.5q-7 -3 -24 -3h-13.5h-14.5q-66 0 -66 -42q0 6 26 -69.5t26 -112.5q0 -84 -67 -140q0 -2 15.5 -30t15.5 -59q0 -6 -15.5 -83t-15.5 -83q0 -41 22.5 -65.5t59.5 -24.5q29 0 58 21l21 -4z" />
<glyph unicode="|" horiz-adv-x="151" d="M133 21q0 -15 -15 -25.5t-26 -10.5q-8 0 -18.5 12t-8.5 22q6 25 6 75q0 47 -7.5 156.5t-7.5 152.5l17 217q1 0 12 -2.5t17 -2.5q0 -24 -2.5 -73t-2.5 -52v-180q0 -52 17 -215q1 -12 10 -40t9 -34z" />
<glyph unicode="}" horiz-adv-x="333" d="M313 313q0 -10 -21 -28q-29 -24 -40 -39q-21 -29 -21 -64q0 -6 15.5 -74t15.5 -75q0 -42 -46 -91.5t-88 -49.5q-19 0 -40 22v23q2 1 30 1q39 0 67 55q20 41 20 63q0 6 -15.5 74.5t-15.5 74.5q0 20 13.5 52t27.5 43q-3 7 -29 23q-30 18 -40 28q-13 13 -26 41 q-12 25 -12 36q0 38 65 145q12 19 12 37q0 26 -25 41q-19 10 -39 10q-6 0 -18.5 -5t-18 -5t-21.5 -2.5t-21 -2.5q-11 21 -11 35q8 9 47 21q35 11 45 11q50 0 81 -37q27 -33 27 -73q0 -39 -33.5 -95t-33.5 -80q0 -35 39 -54q35 -11 72.5 -24t37.5 -37z" />
<glyph unicode="&#xa3;" horiz-adv-x="592" d="M589 102q0 -10 -11 -45h-44q-10 24 -83 68q-63 38 -125 65l-54 -80q-48 -64 -85 -64q-45 0 -90.5 42.5t-45.5 85.5q0 45 30 89q34 50 81 50q26 0 64 -15t64 -36q16 10 21 48q3 27 7 54q-8 15 -49 15q-44 0 -86.5 -15t-44.5 -15q-16 0 -28.5 12t-12.5 21q0 28 99 38 q4 1 118 6q12 22 25.5 89t30.5 94q27 42 81 42q38 0 72 -21q41 -26 41 -69q0 -23 -10.5 -43.5t-25.5 -20.5q-7 0 -12.5 3t-7.5 3q0 47 -2 57q-8 40 -42 40q-43 0 -72 -69q-23 -52 -23 -86q2 -5 5 -9.5t11 -4.5q6 0 57.5 2.5t57.5 2.5q15 0 24 -13t9 -26q0 -33 -25 -33 q-7 0 -21 9t-18 10q-10 2 -49 2q-42 0 -55 -9t-13 -31q0 -5 1 -17v-21q0 -36 -10 -68q126 -78 246 -137zM277 215q-17 14 -45 28q-38 19 -65 19q-22 0 -43 -31.5t-21 -51.5q0 -12 21 -44q24 -38 43 -38q6 0 5 3t5 3q33 0 68 44q32 41 32 68z" />
<glyph unicode="&#xa4;" horiz-adv-x="589" d="M595 82q0 -53 -84 -75q-48 -12 -103 -12q-91 0 -158 42q-44 28 -81 79q-31 43 -36 43q-6 0 -41 -10.5t-41 -10.5q-14 0 -27.5 12t-13.5 22q0 25 55 33q29 3 59 6q14 21 15 90v24q-4 3 -11 3q-6 0 -24.5 -10t-24.5 -10q-16 0 -27 12t-11 26q0 17 47 27q55 12 62 17 q16 15 36 52q25 46 36 60q37 47 95 74q50 24 96 24q59 0 109 -36q57 -41 57 -105q0 -25 -6 -43h-23q-26 69 -52 98q-32 35 -85 35q-59 0 -113 -40t-80 -101q11 -5 34 -5q22 0 66 6t54 6q15 0 24 -16q7 -12 7 -20q0 -30 -36 -30q-6 0 -38 5t-39 5q-75 0 -94 -16 q-24 -19 -24 -89v-24q3 -10 23 -10q21 0 130 18t106 18q12 0 39 -37q0 -9 -12 -18l-142 -10q-92 -9 -123 -30q29 -59 99 -92q60 -28 126 -28q20 0 67 13q56 15 60 31q8 33 20 33q28 0 28 -36z" />
<glyph unicode="&#xa9;" horiz-adv-x="767" d="M738 210q0 -85 -83 -163q-79 -73 -150 -73h-72q-138 0 -242 46q-150 65 -150 206q0 142 99 255q104 119 250 119q103 0 178 -64q47 -39 107 -151q63 -117 63 -175zM692 197q0 51 -40 134q-43 89 -102 148q-70 70 -137 70q-127 0 -227 -94q-104 -97 -104 -227 q0 -110 138 -165q93 -37 186 -37h42q75 0 150 40q94 51 94 131zM507 214q-9 -16 -48 -30q-45 -15 -103 -15q-45 0 -81 27q-39 29 -39 68q0 30 48 83t83 53q15 0 44 -11.5t35 -21.5v-23q-143 0 -143 -90q0 -24 45 -38q32 -11 55 -11q5 0 40.5 10.5t41.5 10.5q7 0 14 -6t8 -6z " />
<glyph unicode="&#xad;" d="M359 318q0 -14 -8.5 -25t-19.5 -11q-7 0 -35 2.5t-34 2.5q-7 0 -91.5 -7.5t-91.5 -7.5q-8 0 -18 8.5t-10 16.5q0 15 17 26q14 10 27 10q6 0 20.5 -5t20.5 -5q17 0 83 7q80 9 123 19q17 -18 17 -31z" />
<glyph unicode="&#xae;" horiz-adv-x="767" d="M738 210q0 -85 -83 -163q-79 -73 -150 -73h-72q-138 0 -242 46q-150 65 -150 206q0 142 99 255q104 119 250 119q103 0 178 -64q47 -39 107 -151q63 -117 63 -175zM692 197q0 51 -40 134q-43 89 -102 148q-70 70 -137 70q-127 0 -227 -94q-104 -97 -104 -227 q0 -110 138 -165q93 -37 186 -37h42q75 0 150 40q94 51 94 131zM508 172q-11 -23 -23 -23q-49 0 -180 138q-8 -7 -8 -54q0 -32 26 -134q-12 -12 -20 -12q-52 0 -52 154q0 97 17 140q27 70 106 70q29 0 48 -20.5t19 -43.5q0 -27 -28 -64t-28 -36q0 -6 46 -45q57 -47 77 -70z M384 383l-28 7l-30 -22q-18 -14 -18 -33v-22q23 8 47 30.5t29 39.5z" />
<glyph unicode="&#xb5;" horiz-adv-x="572" d="M559 174q0 -52 -36 -98q-39 -50 -95 -50q-37 0 -72 49t-37 94q-16 -10 -33 -46q-21 -43 -31 -55q-22 -27 -55 -27q-37 0 -59 51q-12 33 -25 67q-9 -55 -13 -144q-5 -120 -6 -137h-50q0 54 14 196.5t14 193.5q0 58 -12 73q13 19 30 53q13 0 23.5 -2.5l10.5 -2.5 q11 -81 22 -161q22 -125 51 -125q45 0 85 135q20 84 39 167h43q15 -27 14 -44q-12 -118 -12 -135q0 -139 69 -139q41 0 65 52q16 41 32 81q24 -13 24 -46z" />
<glyph unicode="&#xb6;" horiz-adv-x="598" d="M641 583q1 -19 -83 -31q-29 -33 -34 -63q-16 -110 -16 -240v-211q0 -4 1 -14.5t1 -16.5q0 -28 -23 -28q-10 0 -25.5 17t-15.5 27q0 -2 5 23q7 30 10 68q6 53 6 120v142q0 2 5 64.5t5 89.5q-3 4 -6.5 9t-11.5 5q-27 0 -105 -21q-69 -17 -94 -27q-19 -8 -19 -42l-5 -405 q15 -46 15 -52q0 -17 -15 -27.5t-26 -10.5q-19 0 -19 90q0 35 5 126q4 81 2 108q-51 20 -101 40q-82 36 -82 90q0 47 67 99q61 47 100 47q5 0 34 -2.5t35 -2.5q13 0 162 30.5l149 30.5q34 0 40 -2q10 -4 39 -30zM199 497h-42q-20 0 -50 -38t-30 -54q0 -24 45 -47 q39 -20 63 -20q7 0 10 3t4 3v153z" />
<glyph unicode="&#xc5;" horiz-adv-x="671" d="M36 0zM697 8q0 -34 -28 -34q-26 0 -48 50q-20 45 -40 91q-27 49 -66 49q-66 0 -211 -31.5t-161 -51.5q-8 -10 -23 -43q-19 -44 -24 -53h-16q-22 0 -44 94q0 20 34 35q38 17 41 23q55 99 135 264q77 158 77 168q0 5 -10 25.5t-10 31.5q0 19 6 30h21q13 0 58 -97l56 -124 q23 -47 77 -149l18 -34q12 -21 24 -31q5 -4 22 -7t22 -6q17 -11 17 -33q0 -14 -13 -25q4 -19 45 -77.5t41 -64.5zM507 216v18l-156 274l-174 -351zM433 805q0 -47 -52 -86q-45 -34 -82 -34q-43 0 -74 34q-28 31 -28 71q0 56 40 96t101 40q28 0 63 -53q32 -47 32 -68z M376 803q0 16 -16 39q-20 27 -43 27q-25 0 -47 -23.5t-22 -47.5q0 -19 11 -39q14 -28 40 -28q17 0 45 22q32 25 32 50z" />
<glyph unicode="&#xc6;" horiz-adv-x="720" d="M733 59q0 -25 -17 -27q-100 -11 -174 -29q-10 -2 -44.5 -20.5t-41.5 -18.5q-15 0 -39 28q4 18 4 40q0 57 -30 143l-46 118q-42 -6 -84 -11q-48 -8 -109 -27q-10 -4 -24 -30q-8 -20 -17 -39q-46 -92 -46 -133q-3 -5 -5.5 -11t-10.5 -6q-14 0 -26.5 12t-12.5 26q0 9 15 46 t30 63q19 35 36 72q-2 11 3 31q42 59 97 194q10 22 21 43q13 30 13 48q0 11 -7.5 32t-7.5 32t10 13.5t42 2.5l333 -5q15 0 34 10q22 -22 22 -36q0 -35 -31 -35q-6 0 -20 9t-18 9q-44 7 -136 7h-73q-48 -3 -71 -19q37 -115 97 -248q18 2 78 12q56 9 61 9q13 0 24.5 -8.5 t11.5 -19.5q0 -15 -13 -27t-25 -12q-6 0 -20.5 5.5t-20.5 5.5q-34 0 -90 -24q16 -60 41 -134q36 -104 51 -104q7 0 103 25.5t103 25.5q30 0 30 -38zM338 351q0 15 -33 92q-32 72 -41 85l-90 -199q0 -9 7 -16q82 14 152 21q0 2 2.5 6t2.5 11z" />
<glyph unicode="&#xd8;" horiz-adv-x="559" d="M533 182q0 -107 -95 -160q-73 -40 -176 -40q-14 0 -28 1q-23 -19 -28 -93q-6 -19 -17 -54h-17q-14 0 -26.5 11.5t-12.5 24.5q0 6 20 52q21 51 27 73q-86 53 -120 107q-29 48 -29 116q0 158 170 270q16 11 48 14q28 3 55 5q34 24 40 24t8.5 -2.5t9.5 -2.5q16 0 43.5 64 t56.5 64q7 0 30 -11v-17q0 2 -36 -49t-36 -71q0 -5 26 -39q27 -37 34 -55q53 -146 53 -232zM487 213q0 52 -28 134q-32 94 -68 99l-150 -403q26 -17 44 -17q82 0 139 47q63 53 63 140zM338 439q-25 17 -43 17q-84 0 -155 -77q-68 -73 -68 -151q0 -45 26 -97q35 -71 96 -79z " />
<glyph unicode="&#xdf;" horiz-adv-x="478" d="M467 223q0 -65 -76 -112q-64 -39 -122 -39q-23 0 -68 12q-57 16 -57 36q0 12 8 23t17 11l47 -18t53 -18q45 0 89 27q52 33 52 78q0 24 -30 47q-24 19 -132 42q-89 19 -89 47q0 11 18 25q12 8 24 17q39 31 79 71q53 53 53 72q0 30 -50 48q-34 13 -52 13q-87 0 -123 -135 q-21 -76 -21 -157q0 -86 25 -233q23 -136 42 -186l-17 -17h-33q-14 41 -35 186q-23 166 -23 270q0 100 35 191q52 132 155 132q28 0 90 -34q69 -39 69 -71t-72 -102q-49 -48 -82 -73q8 -18 50 -27q62 -12 77 -18q35 -15 65 -44q34 -34 34 -64z" />
<glyph unicode="&#xe5;" horiz-adv-x="354" d="M379 513q0 -30 -27 -61.5t-57 -31.5q-29 0 -68 32q-42 35 -42 68q0 26 32.5 60.5t61.5 34.5q31 0 67 -40q33 -38 33 -62zM313 58q-12 -12 -23 -12q-23 0 -41.5 56.5t-25.5 56.5q-3 0 -23 -20q-24 -24 -43 -37q-31 -20 -62 -20q-28 0 -48.5 17t-20.5 39q0 78 98 122 q73 34 136 32q18 -10 20 -57q2 -39 3 -78q3 -16 15 -50t15 -49zM323 510q0 34 -56 34q-8 0 -14.5 -10t-6.5 -19q0 -11 12 -23q14 -15 32 -15q9 0 21 10.5t12 22.5zM210 228q0 12 -6 13q-17 0 -64 -31q-53 -35 -53 -64q0 -12 6 -12h23q14 6 51 37q43 38 43 57z" />
<glyph unicode="&#xe6;" horiz-adv-x="439" d="M415 146q0 -19 -17.5 -28.5t-38.5 -9.5q-36 0 -60 10t-30 10q-8 0 -49.5 -20.5t-73.5 -20.5q-39 0 -73 38q-32 35 -32 72q0 79 63.5 146t144.5 67q38 0 87 -58.5t49 -92.5q0 -16 -16 -41q-17 -29 -41 -42v-13q28 -14 36 -14q14 0 45 10q6 -1 6 -13zM333 272 q0 10 -22.5 41t-38.5 31t-28.5 -19t-12.5 -43q0 -21 13 -45q16 -27 41 -42q48 48 48 77zM225 160v18q-26 32 -39 77q-12 39 -10 68q-31 -11 -57.5 -52.5t-26.5 -70.5q0 -28 23 -44q20 -12 47 -12q35 0 63 16z" />
<glyph unicode="&#xf8;" horiz-adv-x="367" d="M344 376q0 -15 -28.5 -55t-28.5 -45q0 2 15.5 -35t15.5 -52q0 -50 -65 -95q-35 -25 -75 -40q-34 -13 -64 -140q1 -11 -2 -37q-2 0 -8.5 -3t-13.5 -3q-23 0 -23 28q0 29 51 159q-67 42 -67 103q0 48 36.5 84.5t76.5 36.5q7 0 12 -3t11 -3q38 0 60 31q17 30 33 59 q21 34 51 38q13 -10 13 -28zM267 186l-7 29q-30 -37 -60 -97q20 4 41 29zM195 212q0 12 -6 13h-37q-14 0 -31.5 -26.5t-17.5 -40.5q0 -36 39 -46q53 80 53 100z" />
<glyph unicode="&#x2da;" horiz-adv-x="343" d="M308 510q0 -47 -52 -86q-45 -34 -82 -34q-43 0 -74 34q-28 31 -28 71q0 56 40 96t101 40q28 0 63 -53q32 -47 32 -68zM251 508q0 16 -16 39q-20 27 -43 27q-25 0 -47 -23.5t-22 -47.5q0 -19 11 -39q14 -28 40 -28q17 0 45 22q32 25 32 50z" />
<glyph unicode="&#x2000;" horiz-adv-x="463" />
<glyph unicode="&#x2001;" horiz-adv-x="926" />
<glyph unicode="&#x2002;" horiz-adv-x="463" />
<glyph unicode="&#x2003;" horiz-adv-x="926" />
<glyph unicode="&#x2004;" horiz-adv-x="308" />
<glyph unicode="&#x2005;" horiz-adv-x="231" />
<glyph unicode="&#x2006;" horiz-adv-x="154" />
<glyph unicode="&#x2007;" horiz-adv-x="154" />
<glyph unicode="&#x2008;" horiz-adv-x="115" />
<glyph unicode="&#x2009;" horiz-adv-x="185" />
<glyph unicode="&#x200a;" horiz-adv-x="51" />
<glyph unicode="&#x2010;" d="M359 318q0 -14 -8.5 -25t-19.5 -11q-7 0 -35 2.5t-34 2.5q-7 0 -91.5 -7.5t-91.5 -7.5q-8 0 -18 8.5t-10 16.5q0 15 17 26q14 10 27 10q6 0 20.5 -5t20.5 -5q17 0 83 7q80 9 123 19q17 -18 17 -31z" />
<glyph unicode="&#x2011;" d="M359 318q0 -14 -8.5 -25t-19.5 -11q-7 0 -35 2.5t-34 2.5q-7 0 -91.5 -7.5t-91.5 -7.5q-8 0 -18 8.5t-10 16.5q0 15 17 26q14 10 27 10q6 0 20.5 -5t20.5 -5q17 0 83 7q80 9 123 19q17 -18 17 -31z" />
<glyph unicode="&#x2012;" d="M359 318q0 -14 -8.5 -25t-19.5 -11q-7 0 -35 2.5t-34 2.5q-7 0 -91.5 -7.5t-91.5 -7.5q-8 0 -18 8.5t-10 16.5q0 15 17 26q14 10 27 10q6 0 20.5 -5t20.5 -5q17 0 83 7q80 9 123 19q17 -18 17 -31z" />
<glyph unicode="&#x2013;" horiz-adv-x="588" d="M551 318q0 -14 -14 -25t-31 -11q-12 0 -57.5 2.5t-54.5 2.5q-12 0 -149 -7.5t-149 -7.5q-13 0 -29 8.5t-16 16.5q0 15 28 26q22 10 43 10q10 0 33.5 -5t33.5 -5q28 0 135 7q130 9 199 19q28 -18 28 -31z" />
<glyph unicode="&#x2014;" horiz-adv-x="1088" d="M1051 318q0 -14 -27.5 -25t-63.5 -11q-23 0 -113.5 2.5t-110.5 2.5q-23 0 -297 -7.5t-297 -7.5q-26 0 -58.5 8.5t-32.5 16.5q0 15 55 26q46 10 88 10q19 0 66 -5t67 -5q55 0 269 7q260 9 400 19q55 -18 55 -31z" />
<glyph unicode="&#x2018;" horiz-adv-x="140" d="M112 370q-1 0 -5.5 -3t-11.5 -3q-26 0 -42 86q-12 65 -12 114q0 56 26 56q31 0 34 -33q-3 -43 -2 -128q0 -7 7 -26t6 -25v-38z" />
<glyph unicode="&#x2019;" horiz-adv-x="140" d="M112 370q-1 0 -5.5 -3t-11.5 -3q-26 0 -42 86q-12 65 -12 114q0 56 26 56q31 0 34 -33q-3 -43 -2 -128q0 -7 7 -26t6 -25v-38z" />
<glyph unicode="&#x201a;" horiz-adv-x="140" d="M112 370q-1 0 -5.5 -3t-11.5 -3q-26 0 -42 86q-12 65 -12 114q0 56 26 56q31 0 34 -33q-3 -43 -2 -128q0 -7 7 -26t6 -25v-38z" />
<glyph unicode="&#x201c;" horiz-adv-x="308" d="M282 365h-22q-31 -1 -58 78q-23 63 -23 93q0 74 36 74q29 0 29 -18q0 -15 -6 -45q-6 -34 -7 -47q-2 -29 19 -70q29 -58 32 -65zM112 370q-1 0 -5.5 -3t-11.5 -3q-26 0 -42 86q-12 65 -12 114q0 56 26 56q31 0 34 -33q-3 -43 -2 -128q0 -7 7 -26t6 -25v-38z" />
<glyph unicode="&#x201d;" horiz-adv-x="323" d="M41 365h22q30 -1 58 78q22 63 22 93q0 74 -36 74q-29 0 -29 -18q0 -15 6 -45q7 -34 8 -47q2 -29 -19 -70q-30 -58 -32 -65zM210 370q2 0 6 -3t12 -3q25 0 41 86q13 65 13 114q0 56 -26 56q-31 0 -34 -33q3 -43 2 -128q-1 -7 -7.5 -26t-6.5 -25v-38z" />
<glyph unicode="&#x202f;" horiz-adv-x="185" />
<glyph unicode="&#x205f;" horiz-adv-x="231" />
<glyph unicode="&#xe000;" horiz-adv-x="400" d="M0 400h400v-400h-400v400z" />
<glyph horiz-adv-x="400" d="M0 0z" />
</font>
</defs>
</svg>
