<?xml version="1.0" standalone="no"?>
<!DOCTYPE svg PUBLIC "-//W3C//DTD SVG 1.1//EN" "http://www.w3.org/Graphics/SVG/1.1/DTD/svg11.dtd" >
<svg xmlns="http://www.w3.org/2000/svg">
<metadata></metadata>
<defs>
<font id="webfontregular" horiz-adv-x="556" >
<font-face units-per-em="1000" ascent="800" descent="-200" />
<missing-glyph horiz-adv-x="250" />
<glyph horiz-adv-x="0" />
<glyph unicode="&#xd;" horiz-adv-x="250" />
<glyph horiz-adv-x="0" />
<glyph horiz-adv-x="0" />
<glyph horiz-adv-x="0" />
<glyph unicode="&#x9;" horiz-adv-x="250" />
<glyph unicode=" "  horiz-adv-x="250" />
<glyph unicode="&#x09;" horiz-adv-x="250" />
<glyph unicode="&#xa0;" horiz-adv-x="250" />
<glyph unicode="!" horiz-adv-x="312" d="M257 796q12 3 15 -4l8 -24q-4 -51 -24 -147l-28 -153q-9 -57 -9 -118q0 -57 10 -107q-5 0 -11 9l-6 19q-2 9 -3 15t-1 19q0 23 -1 26q0 14 1 35.5t4 49.5l5 84l-12 -16l-8 -182h-4l-2 102q-5 -10 -10 -28l-2 -38l1 -33q0 -24 1 -30q-1 4 -3.5 15t-6 37t-3.5 54 q0 19 1 41.5t4 46.5l9 74l-4 4q-11 -21 -17 -78q0 -27 -2.5 -41.5t-7.5 -31.5l-7 -67q0 -25 -2 -38t-6 -29l-2 -2l-11 34q-3 18 -3 40q0 30 4 74l5 56q14 48 38 179l24 140q0 -60 -28 -204l-29 -167l7 -7l34 200q7 40 17.5 87t25.5 100q6 0 13 -17q-3 -8 -3 -13l7 -42 q3 7 8 19t9.5 24.5t4.5 32.5zM161 785l-23 -166l-25 -198l-8 -161q-4 -2 -6.5 -5t-4.5 -3q-5 16 -8.5 31.5t-5.5 25.5l-4 62q0 24 3 56.5t14.5 113.5t11.5 118l-32 -159q-5 -32 -8 -67.5t-3 -69.5q0 -52 7 -95q-3 -5 -3 -15v-16l-1 -11q-8 0 -14 12q-3 12 -3 28 q0 47 4 103.5t13 118.5l33 240q3 18 5.5 24.5t11.5 15.5l1 -12l-11 -87q11 14 19 55q6 41 10 51h7l-1 -10q3 -5 5 -7q8 0 11 8zM159 370v-5l-2 9zM159 332v-4l-2 25zM159 300q3 -3 5.5 -16.5t5.5 -17.5q-6 0 -10 10l-3 12zM129 216q33 -12 85 -52l61 -43q2 -3 5 -14l1 -18 q-6 0 -18 12q-9 12 -19 9q9 -5 9 -18t8 -20h-20l4 -15l-6 -4l-8 -1q-8 0 -24 17.5t-25 19.5l-29 15q0 -14 30 -41q30 -24 34 -31q-26 8 -70 43l-51 40l-4 1l-9 -6q2 -4 2 -8l-12 13l-19 37h31v11l72 -30q-9 15 -28 25l-44 22v8q2 2 9 4q9 -3 13 -5l12 -5q6 0 9 10l44 -20 q0 11 -21.5 20.5t-21.5 23.5zM31 115l21 -5l-6 -4l-8 -1l-9 3zM66 100q15 -13 61.5 -38.5t65.5 -48.5q3 -10 -11 -14q-7 0 -18 12t-22 9l17 -24q-11 1 -29 18l-28 31q-43 6 -82 38q5 8 13 8q6 0 19.5 -9.5t20.5 -9.5q-3 7 -7 11.5t-6 8.5q4 6 6 8zM129 32l3 2l-44 34l-3 -2z " />
<glyph unicode="&#x22;" horiz-adv-x="432" d="M188 786q0 8 6 10q6 -4 8.5 -8t4.5 -12q0 -129 -78 -227q0 11 15.5 37.5t17.5 42.5l-19 -36q-18 -31 -42 -54q-5 3 -8 -5q0 -5 -6 -7q-4 -6 -22 -14v14l-31 -31l-7 13q-3 6 1 12q6 4 11 19q3 15 7 19q15 36 19.5 71.5t6.5 59.5t2 49l6 3q4 -2 7 -9l2 -12q0 -16 1 -20 q3 4 5 16q-1 9 -2 12q0 10 -2 17q0 14 15 19q4 -13 7 -30.5t3 -34.5q0 -40 -7.5 -68.5t-13.5 -45.5t-18 -40q13 13 18 24t29 80l6 18l2 20l-3 33l-2 25q0 22 6.5 30.5t14.5 8.5t12 -2q7 0 11 10q8 -9 11 -20t4.5 -18t1.5 -19q0 -22 -4 -34h4l3 29l2 24q0 20 -5 31zM388 790 q0 8 6 10q6 -4 8.5 -8t4.5 -12q0 -129 -78 -227q0 11 15.5 37.5t17.5 42.5l-19 -36q-18 -31 -42 -54q-5 3 -8 -5q0 -5 -6 -7q-4 -6 -22 -14v14l-31 -31l-7 13q-3 6 1 12q6 4 11 19q3 15 7 19q15 36 19.5 71.5t6.5 59.5t2 49l6 3q4 -2 7 -9l2 -12q0 -16 1 -20q3 4 5 16 q-1 9 -2 12q0 10 -2 17q0 14 15 19q4 -13 7 -30.5t3 -34.5q0 -40 -7.5 -68.5t-13.5 -45.5t-18 -40q13 13 18 24t29 80l6 18l2 20l-3 33l-2 25q0 22 6.5 30.5t14.5 8.5t12 -2q7 0 11 10q8 -9 11 -20.5t4.5 -18t1.5 -18.5q0 -22 -4 -34h4l3 29l2 24q0 20 -5 31zM173 655l2 -2 l12 38l-3 2zM63 551l2 14l-11 -26zM86 637l4 59l-18 -94zM286 641l4 59l-18 -94zM373 659l2 -2l12 38l-3 2zM263 555l2 14l-11 -26zM165 630l3 7zM144 611l-3 -9zM365 634l3 7zM344 615l-3 -9z" />
<glyph unicode="#" horiz-adv-x="732" d="M300 697q4 3 8 -4l-2 -17q-3 -10 -11.5 -25.5t-21 -39t-22.5 -57.5q12 12 33.5 57.5t31.5 56.5l12 -16v-14l-20 -43q-4 -4 -6 -8l4 13l11 23q-2 -8 -8 -20l-24 -55l-50 -108l-66 -140l-55 -124q-6 0 -6 10q0 8 2 13l4 14q-6 -6 -10.5 -13.5t-12.5 -7.5l-1 29l-16 -12v18 l81 161l62 130zM223 458l46 125l49 125l-44 -127zM278 621l-19 -37l16 44q10 22 24 46q-4 -21 -21 -53zM577 671q3 3 9 -5l-3 -16l-34 -67q-14 -28 -21 -55q12 12 32.5 55.5t32.5 58.5l12 -17v-14l-15 -31q-7 -14 -11 -19l4 13l11 23q-2 -8 -8 -20l-56 -123l-139 -305 q-6 0 -6 10q0 8 2 14l4 14q-6 -6 -10.5 -13.5t-12.5 -7.5l-1 28l-16 -12v19l84 164l58 123zM500 432l46 125l49 125l-44 -127zM576 647q-26 -43 -40 -90q2 5 6 13l15.5 31t18.5 46zM150 596q-3 3 4 9l17 -3q7 -2 15 -6.5t28 -15.5t43 -20t36 -13q-13 13 -57 33t-57 32l16 12 h14l39 -19l12 -7l-36 15q8 -2 20 -8l54 -24l109 -50l139 -66l125 -55q0 -6 -10 -6q-8 0 -14 2l-13 4q6 -6 13.5 -10.5t7.5 -12.5l-29 -1l12 -16h-18l-257 127zM389 519l-127 46l-123 49l127 -44zM226 574l37 -19l-45 16l-45 24q21 -4 53 -21zM73 415q-3 6 4 9l17 -2l62 -32 l60 -23q-12 12 -57.5 33.5t-56.5 31.5l16 12h14l39 -19l12 -7l-36 15q8 -2 20 -8l56 -25l132 -61l141 -67l98 -42q0 -6 -10 -7l-16 3l-11 4q6 -6 13.5 -11.5t7.5 -12.5l-29 -1l12 -15h-18l-172 87l-132 62zM312 338l-127 47l-123 49l127 -44zM593 613l-8 -11q-2 -4 -2 -13 q6 6 8 11t2 13zM557 523l2 17l-10 -29zM528 525l-23 -79v-10q11 22 14 44q0 19 9 45zM316 640l-9 -13q-2 -5 -1 -11q4 1 7 8t3 16zM280 550l2 16l-10 -29zM496 424q-5 -5 -8.5 -13.5t-3.5 -17.5l8 16zM468 414q-14 -11 -23 -47zM455 335l-3 1q-8 -14 -12.5 -23.5 t-19.5 -45.5l-23 -66zM394 258q-6 -8 -12 -22l-7 -23q5 3 11 18q4 18 8 27zM219 451q-5 -5 -8.5 -12t-3.5 -19l8 16zM207 612l12 -9q5 -3 12 -1q-1 4 -8 7t-16 3zM297 576l-16 2l29 -10zM295 547l79 -23h10q-22 11 -44 14q-19 0 -45 9zM191 441q-14 -14 -23 -48zM178 362 l-3 1q-17 -30 -33 -74l-22 -62zM396 515q6 -6 12.5 -9t18.5 -3q-4 3 -16 8zM406 487q14 -14 48 -23zM485 474l-1 -3q26 -15 50 -25l86 -29zM562 413l16 -9l30 -9q-4 6 -20.5 10t-25.5 8zM117 285q-4 -6 -10 -20l-9 -26q5 4 11 19q4 18 8 27zM130 432l12 -9q5 -3 12 -1 q-1 4 -8 7t-16 3zM220 396l-16 2l29 -10zM218 367l79 -23h10q-10 5 -22 8.5t-23 5.5q-18 0 -44 9zM251 552l-23 -79v-10q11 22 14 44q0 19 9 45zM96 414q11 -6 24.5 -12.5t22.5 -10.5l43 -16l-37 18q-31 17 -53 21zM319 335q6 -6 12.5 -9t18.5 -3q-4 3 -16 8zM329 307 l19 -14q11 -5 29 -10zM408 293q25 -16 73 -35l62 -22zM485 233q5 -4 19 -10l27 -9q-4 6 -19 10z" />
<glyph unicode="$" horiz-adv-x="644" d="M389 785q6 -17 16 -17q5 0 17 9l13 10q6 0 6 -22q58 -6 86 -16q30 -7 50 -35q9 -5 15.5 -13.5t13.5 -19t12 -18.5v-24l1 -22q0 -17 -2 -23q0 -6 -7 -17l-19 -16q-11 -11 -24 -14q5 10 7 18q0 5 -9 10q-9 -24 -37 -39q-10 0 -21 -5l-16 -5q-6 1 -10 2q12 4 19 8.5t8 12.5 q0 15 -10 15l-29 -3q0 -10 -2 -16l-23 6q-12 3 -15 20v10q5 0 12.5 -8t13.5 -8l-1 12q0 5 7 8q18 -15 41 -12q3 8 3 13q0 12 -4.5 20t-31.5 39q5 6 13 -2l13 -7q5 2 6 4q-7 13 -16 20.5t-37 20.5q23 0 47.5 -23.5t30.5 -40.5l4 -23q0 -12 -2 -21l-2 -18q0 -6 3 -14 q9 6 12.5 17t5.5 25l-1 22q0 16 -7 36.5t-36 38t-70 26.5q-5 -3 -7 -15v-16l31 -18l-12 1q-7 3 -13 9l-9 -15q-6 -10 -8 -19l3 -11l-29 -128q74 -45 114 -87q41 -39 41 -101q6 -20 6 -38q0 -40 -19 -72l-42 -68q-10 -12 -34 -25q-22 -10 -29 -16l-4 4q24 19 41.5 41t26.5 51 l-5 4l-41 -61q13 22 21 49t13 51l4 33q0 46 -30.5 84t-76.5 63l-8 -9q46 -34 72 -83t26 -108q-15 -41 -33.5 -69t-48.5 -42q-3 10 -7.5 17.5t-12.5 11.5q-4 -3 -3 -10l3 -9q-3 -9 -27.5 -12.5t-24.5 -8.5q1 -3 1.5 -5t5.5 -8q11 6 19 6q9 0 15 -5.5t13 -14.5l-63 -15l-8 -30 q-3 -12 -3 -25h-10l-4 43q-14 1 -20 -20q-3 -21 -10 -22q-3 1 -5 2.5t-8 6.5l5 28q0 15 -17 19q-62 6 -113.5 35t-87.5 78q0 45 18.5 81.5t57.5 54.5q5 0 17 6l14 6q-11 -2 -32 -20l-27 -22v-10q29 24 65.5 39.5t68.5 15.5q12 0 27 -3q12 -9 18.5 -20.5t8.5 -27.5l-21 18 q-1 -6 3 -19l5 -16q-5 12 -17 19l-32 20l19 -43l-34 28q-13 10 -24 10q-8 0 -18 -7t-10 -23q0 -9 4 -21l4 -14q40 -65 120 -79q6 15 14 47.5t13 65.5t9.5 63t9.5 46l-82 63q-46 41 -53 86q12 -40 52 -75.5t86 -56.5q4 7 -8 17l-14 11q-41 21 -74.5 62.5t-33.5 85.5l-1 18 q0 37 18.5 67.5t55.5 58.5q6 -6 15 -6q11 0 18 10q8 27 56 42t52 50zM414 571q3 -14 25 -26q23 -10 28 -16q-3 -2 -11 -2q-5 0 -8.5 2l-14 8t-15.5 10q-6 2 -6 13v6zM165 563l-2 -27l-2 16q0 6 4 11zM159 259q17 -1 32 -16.5t18 -32.5zM398 769v-10h11v10h-11zM497 716 l52 -39q-6 16 -19.5 24.5t-32.5 14.5zM353 704q-3 -5 -25 -21t-27 -34l-2 -31q0 -24 8 -40t30 -33l26 159h-10zM363 516h4l22 105q9 42 9 81q-11 -31 -19 -72zM222 594l-4 16q-9 -23 -9 -50v-16l9 -26q6 -16 32.5 -43.5t63.5 -50.5q4 3 4 9v8l-61 61l8 3l-23 36 q-11 19 -11 36q0 12 6 24q4 27 30 50l51 42q-35 -12 -61.5 -37t-34.5 -62zM563 659l2 2l-12 12l-2 -2zM218 640q9 0 16.5 7t6.5 18q-16 -7 -21 -11t-2 -14zM285 641q-10 -18 -10 -34q0 -27 14.5 -45.5t26 -31t12.5 -14.5l-28 50q-5 10 -8 21t-3 23l-4 7l5 17q-3 5 -5 7z M565 641q0 -24 1.5 -31.5t6.5 -20.5l1 14q0 10 2 15q0 9 -1.5 13t-9.5 10zM206 624h-5v-14zM598 610l-4 6l-4 -27zM195 601l-11 -43q0 -9 7 -13zM512 741v4l-14 4zM573 712l-26 21l28 -29l2 2zM401 465l-7 2l12 -8zM453 432q40 -23 52.5 -66.5t12.5 -104.5v-44q5 7 8 23 t3 33v32q0 38 -20.5 73t-55.5 54zM344 420v-14h8v6q-1 6 -3.5 7t-4.5 1zM337 357l-5 4v-13zM361 340l-2 -24q24 -16 34 -39.5t12.5 -36.5t2.5 -26l-1 -15l-1 -12l-12 65q-10 35 -41 50l-33 -164q7 -7 19 -7q13 0 23 2l21 1v-6h15q11 8 19 24q7 18 7 35q3 14 3 26 q0 35 -19 68t-47 59zM326 322q-13 -30 -28 -103l-15 -81l6 -8l28 110q9 38 9 82zM453 725q8 -6 12 0q-4 5 -10 5l-14 -1q6 2 12 -4zM53 234l-5 -4l5 -6v10zM69 228l-6 -18l-2 -20v-13q3 -15 25 -24.5t27 -16.5q-6 10 -26.5 31.5t-20.5 41.5zM106 205q3 -26 31.5 -47.5 t37.5 -31.5l35 -12q18 -6 31 -6q8 1 12 2q-51 16 -87.5 37t-59.5 58zM48 197v-32q27 -45 75 -66t113 -30q-32 4 -73 24l-74 37q-18 12 -29.5 29.5t-11.5 37.5zM265 56l-6 -14l19 -1q8 0 11 7zM220 583q3 -18 5.5 -27.5t10 -28.5t23.5 -37q-17 16 -29 41q-4 11 -7 24.5 t-3 27.5z" />
<glyph unicode="%" horiz-adv-x="828" d="M521 799q11 0 13 -15q0 -16 2 -18q6 2 11.5 14.5t13.5 12.5l-65 -219l-90 -307l-59 -210q-12 -51 -19 -52l-10 -1l125 438l-70 -201l-66 -228l-8 -7q-6 -6 -11 -6q-5 2 -6 4l1 15l3 10q-2 7 -4 9q-7 -3 -12.5 -19t-14.5 -19l85 283q10 11 13 44q0 30 9 46l62 203l55 210 l15 6q5 -2 7 -4q0 -11 -3 -26t-11 -38q-11 -40 -13 -56v-9q14 17 24.5 68.5t22.5 71.5zM215 793h18q26 0 37.5 -5t20.5 -25l-14 -8l14 -9q6 6 10 7q7 -6 13.5 -12.5t12.5 -3.5l2 -11l-2 2h-5q-3 -5 2 -11l7 -7l2 9q17 -49 17 -95l-1 -23l-2 2q3 -9 3 -22l-3 -24 q-4 -19 -5 -21l4 -24q0 -19 -11 -41l-19 -42l14 47q6 18 6 31q-8 -5 -20 -40q-9 -33 -20 -43l33 94l11 -7q0 107 -16 169t-84 92q-9 1 -14 2l-13 3q-7 0 -12 -5q4 -8 25 -14q21 -3 27 -12q30 -29 44 -59t19 -49.5t5 -40.5l-1 -18q-8 -15 -18.5 -77.5t-19.5 -83.5q6 -3 5 -14 q-20 0 -30 -26.5t-29 -26.5q-8 -11 -37.5 -14.5t-42.5 -13.5q-12 9 -25 9q-9 0 -18 -6l3 -3q-16 0 -38.5 18.5t-30.5 37.5q-8 23 -13 52l-4 55q0 69 24.5 132.5t69.5 120.5l11 -11q5 -3 14 -5q6 22 25 32l-14 11q-3 -5 -3 -7l-1 -7l-20 -6q3 7 13 13.5t25 12.5l4 -6 q3 12 23 18zM595 458q27 18 64 18q45 0 65 -29l-13 -5l3 -5l6 -6q4 3 12 5q9 0 15 -9q3 1 4 2q6 0 7 -8l-2 -13q0 -9 13 -9q16 -59 16 -121q0 -50 -8.5 -91.5t-29.5 -77.5v11l-16 -9l17 55q10 32 10 49l6 -12v45q0 83 -17 135t-81 77h-18q-9 0 -13 -5q38 -16 54 -26t28 -32 q20 -26 26.5 -54.5t12.5 -79.5q-13 -17 -19 -73q0 -25 -5.5 -44t-14.5 -30q0 -10 3 -13h4q-6 -19 -19.5 -35t-52.5 -46q-6 3 -15 -3t-15 -7q-7 4 -10 6q-5 -4 -9 -6t-11 -2q-8 0 -18 5l-18 5q-9 0 -20 -11q-37 9 -55 43q-14 31 -25 87q0 102 33 183.5t106 135.5zM200 721 q-2 1 -4 1.5t-5 1.5q-10 0 -17.5 -6t-19 -27.5t-20 -65t-8.5 -87.5q0 -48 9 -87.5t31 -71.5q-25 14 -38.5 35.5t-13.5 53.5l-6 103q-6 -26 -6 -53v-22.5t4 -31t15 -53.5q9 -18 23.5 -29t39.5 -11q49 25 63.5 78.5t14.5 130.5q-5 52 -17 83.5t-45 57.5zM130 719l-15 -7 q-75 -107 -75 -245q-2 10 -3 14.5t-1 16.5l1 27q0 16 2 26q-8 -38 -8 -72q0 -46 12.5 -82.5t44.5 -63.5l11 -2q-4 1 -13 15q-6 14 -18 18q-32 35 -32 75q0 14 4 25l12 -42q6 -14 16 -20l-9 56l-4 57v22.5t1.5 18t4.5 18t7 20.5zM505 641l9 40l-24 -96zM264 679 q16 -54 16 -110q0 -111 -52 -196q2 2 4.5 4t14 11t8.5 25q40 68 40 149q0 35 -8 62q-6 31 -23 55zM452 594q-8 -16 -8 -25q0 -6 5 -6zM99 591l-6 -33q-3 -18 -3 -31q0 -20 4 -33zM188 751v-10l18 -2q-9 12 -18 12zM72 464l16 -71q9 -15 25.5 -27.5t34.5 -12.5 q-25 6 -35.5 21.5t-40.5 89.5zM590 444q-1 -4 -16.5 -11t-14.5 -18q5 -2 6.5 -2.5t3.5 -0.5q7 0 13 12.5t13 17.5zM624 433q-1 -4 3 -9q4 -3 10 0v5q-7 6 -13 4zM610 407q-23 -30 -38 -77q-12 -45 -12 -94t9.5 -92t29.5 -80q-33 18 -45 51q-10 37 -10 84v26l1 27 q-4 -14 -6 -27.5t-2 -33.5q0 -33 9 -66.5t30 -57.5l22 -10l19 -4q14 0 18 14q31 31 45 73t14 87q0 14 -1 29t-4 30q-3 28 -12 65q-19 33 -30 45q-9 12 -28 12zM564 402q-23 -17 -39.5 -43.5t-30.5 -66.5q0 -20 -3 -39t-5 -30l-7 -64q0 -24 5 -40.5t19 -33.5l-9 58l-4 57 q0 51 15 95q35 49 59 107zM693 371q22 -58 22 -122q0 -105 -49 -191l22 22q18 38 30 82t12 89q0 36 -8.5 66.5t-28.5 53.5zM155 343h-7l7 -8v8zM530 272l-5 -22l-1 -24q0 -22 6 -43v89zM474 236l-6 -43q-3 -21 -3 -40v-16q0 -8 4 -21l1 20l1 24v41q0 20 3 35zM756 136l8 47 l-17 -58zM505 147l16 -67q13 -21 26.5 -31t27.5 -10q6 0 9 1q-30 6 -46 31q-14 27 -33 76zM483 78l5 -15q4 -7 9 -15.5t13 -18t24 -16.5q-2 15 -23.5 32.5t-27.5 32.5zM119 643l2 9z" />
<glyph unicode="&#x26;" horiz-adv-x="928" d="M428 777q7 3 17.5 6t23 5t26.5 2q38 0 73 -17t53 -48t18 -72q0 -26 -7 -44l-41 -49q-32 -41 -52 -53q-14 -6 -32 -13.5t-36.5 -16.5t-36.5 -29l33 -72q8 -16 33 -44l124 85q74 45 137 45q37 0 71 -14q27 -14 48.5 -33t34.5 -44v-12q0 -15 -3.5 -24.5t-15.5 -17.5 q-8 8 -17 53q-6 43 -36 52q-15 11 -30.5 14.5t-20.5 4t-18 0.5q-41 0 -85 -21l7 -4q19 5 27 8l35 4q8 0 18.5 -0.5t27.5 -7.5q23 -6 49 -22q9 -9 12 -19l10 -34l-22 28l4 -30q-16 30 -28.5 47t-40.5 17q20 -16 41 -47l37 -56q-5 -3 -15 -5q-8 0 -20 24q-9 24 -20 31 q-6 9 -30.5 13.5t-24.5 16.5q-17 3 -33 3q-10 0 -21 -1t-27.5 -5t-24.5 -7.5t-14 -5.5q3 -11 -17 -20q-19 -6 -23 -16q12 -1 34 9q6 4 17 8.5t16 5.5l35 6l37 4q16 0 23.5 -1t19.5 -7q17 -6 37 -27q0 -6 6.5 -22t6.5 -25q0 -12 -11 -23q-6 4 -6 21q0 18 -12 30 q-9 12 -27.5 19.5t-36.5 7.5q-31 0 -79.5 -19.5t-66.5 -24.5q-2 -5 -17.5 -15.5t-14.5 -24.5q17 -29 75 -66.5t76 -74.5q-16 6 -27.5 10t-24.5 10q-6 0 -12 -3q1 -4 16 -13t12 -23q-3 -2 -10 -2q-4 0 -13.5 4t-19.5 6l-9 -3q1 -11 17 -18t17 -12l-3 -9q5 -3 7 -3l6 3 q3 4 16 1q14 -3 16 -5l4 -7q-12 -6 -24 -6h-18q-11 3 -17 4l-26 5l-10 -2q-10 0 -22 6l-23 19q-5 -9 8 -23l15 -16q-12 0 -29 11l-30 21q2 10 5 16l-3.5 3.5t-12.5 7.5l-29 13q-13 6 -24 24l-15 -8q2 -6 15 -17l6 6l4 -6q-6 -4 -11 -5q-10 0 -12 -2l-16 21q-13 20 -27 18 q-38 -41 -87.5 -72.5t-101.5 -40.5q-22 -19 -54 -19q-18 0 -30.5 3.5t-18.5 5.5t-32 14.5t-44.5 48t-24.5 67.5l-3 40q0 69 41.5 126.5t110.5 96.5q6 5 18 9l16 6q0 -6 -7 -14l-12 -12q39 14 77 47l-8 54l-2 53q0 48 11 83t37 63q0 -8 -5 -22t-5 -21q0 -6 4 -14l24 53 q4 -4 5 -7.5t4 -5.5q9 3 12 19.5t5 19.5q9 4 21 17.5t22 20.5q8 -5 23 -5q13 0 22 2l27 7q53 0 95 -22t58 -68l13 -55q3 14 3 29q0 49 -22.5 79t-55.5 42.5t-71 12.5q-20 0 -41 -3zM564 13q8 -13 8 -23q-52 15 -78 59q8 5 18 7q9 0 23 -14zM392 726l-20 -6l3 -8q4 0 8.5 3 t6 6zM360 724q-9 -6 -13 -11q-3 -3 0 -9h6q4 3 7 10q1 6 0 10zM411 698q-1 -4 3 -6q7 0 10 2q-5 3 -7 3zM436 692q3 -10 14 -15l33 -11q-6 11 -18 19q-14 7 -29 7zM340 685l-8 -17l-7 -34l-3 -32q0 -23 10 -40l1 15l-1 26q0 14 1.5 21t9.5 15l9 -13q-6 -17 -6 -33 q0 -19 6 -42l12 -42h7q2 14 -4 48l-5 40q0 22 10 39q-6 -3 -9 5q0 8 -3 11l-17 -13q-3 2 -5 13q1 10 2 15q2 12 0 18zM315 677q-16 -22 -16 -58q0 -11 3 -23zM356 664h8q0 7 2 11q-6 0 -8 -2t-2 -9zM468 652l-28 14l-4 -4zM496 656q-6 -8 -6 -15q0 -10 19 -30q20 -18 21 -27 q2 3 4 12q-2 10 -4 15l-3 17q0 6 12 11q-5 -9 -12 -11q-1 0 -3.5 2.5t-9.5 13t-18 12.5zM394 636q-3 -12 -4 -17t-1 -18q0 -49 26 -75q-3 -3 -5 -13q0 -12 11 -13l50 25q28 16 40 37q-15 32 -45.5 49t-71.5 25zM594 598h-30q0 -7 13 -8h17v8zM300 572l-4 -23v-18 q0 -34 17 -54q3 6 5 21q0 11 -9 36.5t-9 37.5zM377 503q-9 -5 -9 -12q2 -5 4 -6l9 9zM268 498v-23q0 -12 9 -15q0 14 -2 21zM315 468l2 -10l4 3l-3 5zM281 445h-4v-13h4v13zM396 430q-3 -33 25 -55l-8 25q-6 22 -17 30zM253 424q-45 -27 -78.5 -54.5t-58.5 -65.5q2 -3 4 -12 q0 -6 -9.5 -21t-9.5 -21q1 -7 2 -9q15 51 53 89q15 17 41.5 38t54.5 39zM430 394l-6 19l-3 -2zM339 404q8 -40 25.5 -77.5t43.5 -70.5l9 4l-36 63zM147 375l13 13l-20 -13h7zM300 375l-6 -7l83 -138l4 11zM130 368q-6 -4 -11.5 -8.5t-17.5 -16.5t-16 -23zM436 368l-2 -6 l-6 5q6 -44 34 -63q0 7 -2 11.5t-4 6.5q3 5 3 10q0 6 -5.5 17t-17.5 19zM275 360q-44 -28 -67.5 -46t-29 -33.5t-8 -27.5t-3.5 -18q0 -34 27.5 -46t57.5 -12q58 0 104 40q-12 35 -39 76zM424 320l2 2l-26 40l-2 -2zM58 264l4 26l-10 -26h6zM88 264l2 -2l10 22zM504 281 l4 -13q6 0 7 1l2 2q3 6 -2 10q-4 3 -11 0zM75 239q-3 -8 -9 -19q-3 -8 0 -11l9 18q3 6 0 12zM532 239q2 -13 19.5 -26.5t23.5 -22.5zM447 222l6 -6v4q-4 1 -5 1zM103 220l-3 -32q1 -16 12 -27.5t31 -21.5l4 6q-16 12 -28 35zM45 205q-6 -9 -8 -27l1 -22v-9t1 -4 q0 -16 -13 -25h14q6 0 9.5 -8l7 -16t12.5 -20l29 -39l13 1q7 -6 22.5 -10t33.5 -4h18l18 2q-16 0 -45 13l-58 27q-26 22 -41.5 52.5t-15.5 67.5q0 11 2 21zM468 190q0 -18 19 -36t24 -26l21 -15q5 3 7 5l-64 72h-7zM332 136q5 -3 8 -8l32 24q13 10 11 25zM456 136l-17 20 l-3 -2zM288 141l-7 -9zM96 139q3 -18 18 -29l48 -22q13 -4 24 -6t28 -2q28 0 52.5 9t41.5 27l-58 -10l-48 -4q-21 0 -31 1t-32 8.5t-43 27.5zM258 139l-14 -6q-5 -1 -4 -7q18 -3 28 6q-3 8 -10 7zM230 62l-2 -10l-30 2v-6l7 -8q4 -1 6 -1q6 6 16 8l13 -1q6 0 12 3zM424 736 l-15 -5q-3 -1 -2 -7q2 1 4 1.5t5 1.5q8 -2 12 -4l13 -4q7 0 12 5v-11q3 -1 6.5 -1.5t15.5 -6t17 -5.5q8 0 12 7l13 -17l10 2q12 0 24.5 -16.5t16.5 -19.5q5 1 8 -1l5 5q-1 6 -17 18t-19 20l4 9q-10 0 -24 3t-47 14.5t-54 11.5z" />
<glyph unicode="'" horiz-adv-x="296" d="M281 781l-15 -106q-38 -112 -58.5 -161t-61.5 -99l-5 5q-6 -5 -8.5 -10t-10.5 -4l61 166q32 88 32 164v18l-2 18l9 9q2 2 11 5q7 -18 7 -33q0 -9 -1 -14.5t-6.5 -32t-5.5 -38.5q0 -9 3 -21q8 15 13 42q2 21 3 30t1 27v40l13 6l8 2q9 0 13 -13zM197 764l7 -7 q0 -71 -14 -118t-27.5 -78.5t-30.5 -58.5l9 -5l-17 -51q-12 -30 -36 -36v-7l-4 29q-1 -7 -14 -17t-14 -17q0 -6 8 -14l20 3q2 -14 -8 -22l-17 -10l-7 4q-7 -4 -10 -9t-7 -6q-5 2 -7 4q3 6 5 18q0 9 -6.5 21.5t-6.5 18.5l3 9q22 15 31 51q2 18 4.5 32.5t5.5 29.5q0 10 1 28 t4 43l6 66l-1 20l12 10l14 -25l-14 -92l-5 -66l21 75q8 35 8 66l-1 25q0 8 -6 26q12 -6 21 8q7 15 17 16q12 -15 12 -36q0 -16 -11 -50q-4 -17 -6.5 -29t-3.5 -22q27 23 33 82.5t10 73.5zM79 483l2 24l-12 -39zM98 463l2 15l-5 -17z" />
<glyph unicode="(" horiz-adv-x="336" d="M218 793q10 0 11 -4q-26 -30 -44 -66.5t-61 -145.5l125 213h11l-7 -22l26 25q1 -9 11 -10q6 2 8 4l7 -19q-66 -90 -107.5 -201.5t-59.5 -239.5l-2 6q-11 -50 -11 -109q0 -57 6.5 -106.5t21.5 -109.5q-7 1 -14 -7q-3 -6 -4.5 -7t-2.5 -2l-8 6l-12 40l-9 43h-4l-3 -3 q0 -14 3 -26t4.5 -24l2.5 -20q-1 -11 -2 -15q-9 3 -17 24q-6 20 -12 28q-6 -3 -6 -10l3 -18q-2 -6 -3 -8q-13 0 -21 4t-14 31l-9 66l-3 87q0 235 62 368l82 168q20 35 52 60zM268 759l2 -2l6 9l-2 2zM257 742l6 10l-3 1zM201 681q-6 -9 -9.5 -18.5t-1.5 -18.5l9 21q2 6 2 16 zM184 638l-5 -8q0 -5 2 -6zM203 627l-55 -158v-11q0 31 25.5 91.5t29.5 77.5zM148 555q-11 -28 -20.5 -64.5t-20.5 -104.5t-11 -223q0 60 1.5 82.5t6.5 66.5l27 170q0 12 9 33t9 31zM86 471h4l4 15l-2 2zM80 453l-21 -116q-8 -64 -8 -117q0 -74 13 -133q-3 26 -5 55t-2 61 q0 56 6 119zM252 768l-4 -9zM212 648l16 33z" />
<glyph unicode=")" horiz-adv-x="348" d="M197 790l13 -11l4 4q11 -6 20 -26l10 -30q1 3 2.5 6t1.5 8q0 9 -5 20l-4 17q0 6 3 12l19 -30q6 2 6 12l-1 14l26 2q5 -38 8 -82t3 -84q0 -161 -38.5 -316.5t-113.5 -293.5q-6 -7 -8.5 -12.5t-6.5 -9.5q-1 6 7 21.5t10 26.5l-12 4q5 15 14.5 38.5t37.5 83t28 120.5 q-11 -11 -18 -44.5t-11 -41.5l-84 -190q-6 -8 -23 -8q-2 6 4 18t4 22l-8 -8t-14.5 -17.5t-27.5 -9.5l27 33q11 12 14 28q-4 -3 -10 -10t-20 -24.5t-25 -17.5q-6 0 -14 4q75 94 103 192.5t38 151.5t10 111l7 307q8 -15 13.5 -38t5.5 -50q0 -20 1 -39t3 -27t7 -11q6 27 6 56 v27q-3 21 -4 31zM216 769l-2 10l2 -15v5zM229 682l-12 76l4 -121zM266 710l-1 -26q0 -12 5 -20l-1 12v15q0 10 -3 19zM219 544l-3 -74l-11 -30q7 17 7 31l1 37v44l1 37q1 14 6 31zM270 615q-3 -18 -3 -39q0 -20 5 -33l1 22l1 25q0 16 -4 25zM261 481l-21 -125 q11 28 16.5 52.5t7.5 39.5t2 33h-5zM207 401l-2 2l2 -7v5zM186 366l-48 -175q-18 -60 -54 -123q44 56 63.5 123.5t38.5 174.5z" />
<glyph unicode="*" horiz-adv-x="468" d="M200 766q0 9 6 11q2 -1 4.5 -2t6.5 -4.5t4 -11.5l9 14q11 -49 28 -92q13 8 28 26l31 34v-16l13 8q9 5 12 10q0 -20 -27 -37t-32 -34l11 -12q15 8 30 32.5t26 32.5l13 -12l3 2h6q3 -3 4 -8q-1 -3 -3 -6t-6 -8l-8 -10l7 16q-15 0 -24 -16l8 -6l-54 -51q3 -6 8 -6q3 1 5 2 l8 4l78 69q0 -18 -13 -34l-44 -46l67 -19q24 -6 25 -13q0 -8 2 -12q-23 0 -56 6.5t-53 10t-34 3.5h-15l20 -16l16 -9q5 9 12 9l34 -16l40 -4q19 0 29 -16l-21 -10q10 -3 16.5 -7t8.5 -10q-2 -8 -9 -13.5t-24 -5.5q-8 0 -36.5 9t-42.5 9q0 -15 12 -51l13 -39q-7 3 -12 -7 t-15 -9q-8 36 -17.5 63t-26.5 52h-4q5 -25 8.5 -44.5t7 -32.5t21.5 -35v-12q0 -6 -3 -9q-16 7 -24.5 41t-23.5 42l-6 17q-2 6 -8 10q0 -19 14 -58t14 -59q-3 -3 -11 -3q-3 1 -5 2t-7 5q-6 8 -17.5 40t-19.5 43l-69 -66q0 8 15 28l19 27l-16 -5l37 53h-9v7h-12l7 12l-4 6 q-18 -9 -50 -44l-37 -38q0 20 20 41l39 41l-4 5l-36 -34q-14 -13 -31 -35l-2 2l57 67q-17 12 -44 12l-50 4v14q6 -3 18 -3l18 1q16 0 28 -12l14 9l-76 16v12q1 9 12 7q1 5 -5 7t-8.5 3.5t-2.5 2.5q11 12 29 12q9 0 32.5 -6t34.5 -6q6 -10 19 -14t17 -4.5t15 -0.5q24 0 30 1 q-17 15 -64 26l-95 20q5 21 24 21l66 -9q0 9 -6 36l-7 38q0 21 20 34l16 -61q12 -51 36 -66l5 5l-32 92l25 -56l2 15q0 16 -9 40l-16 44l-11 -4v4q24 0 36 -34t16 -39l13 -42l15 -32q0 34 -11.5 67.5t-34.5 77.5zM161 502q3 -3 -1 -8q-3 -3 1 -6h9l-62 -62q0 13 25 40.5 t28 35.5zM76 594q23 -15 59 -19l86 -4zM246 566v5h-16v-5h16zM253 564l23 -3l-10 3q-9 3 -13 0zM138 559l-4 -2l216 -32l-24 14l-105 14q-47 6 -83 6zM228 518l-14 -15q-3 -6 0 -10l12 13q4 5 2 12zM352 713l-72 -85l3 -2q5 5 16.5 17t27 30t25.5 40zM186 474l2 -2l8 16 l-3 2z" />
<glyph unicode="+" horiz-adv-x="486" d="M258 719q3 -3 4 -8l1 -11v-24q-6 -3 -9 -13l-3 -12q3 -1 4 -2h6l9 18q0 -22 -15.5 -77.5t-15.5 -79.5q0 -15 3 -30l12 27q4 9 6.5 16.5t4.5 17.5l23 105q0 -40 -9 -88l-14 -78q3 -3 8 -4h10q11 24 20 82l17 120l5 4q5 2 6 3l2 -16q0 -11 9 -16q6 6 6 21v13q0 6 8 11l5 -6 l-5 -116h5q5 13 11 66t21 77l4 -2l-30 -221q6 -6 18.5 -10t24.5 -4l24 1q17 0 28 -4t20 -19q-3 -4 -6.5 -7.5t-10 -10.5t-8.5 -15q0 -8 13 -15l-2 -11q-6 0 -15.5 2.5t-26 6.5t-29.5 4q-21 0 -31 -13q6 -6 17 -9.5t30 -3.5q35 0 48 -15q-14 0 -27 2l-25 3l-14 -1 q5 -6 34 -12q30 -3 30 -17q0 -8 -7 -19q-19 -2 -40.5 4t-29.5 7.5t-17 1.5q-8 0 -20 -3l-25 -95l-10 -79q-6 -3 -15.5 0.5t-12.5 12.5l12 46q6 24 6 69q-14 -22 -23 -73q-6 -48 -33 -75l-16 18q3 20 7 46t10 46l18 79q-3 6 -13 5q-11 -26 -16 -51.5t-7 -38t-5 -20.5l-4 -15 l-1 -3l4 26l1 16l-6 -10l-4 -19l-2 -24v-23q0 -22 -5 -32q-14 10 -14 38q4 33 8.5 49.5t14.5 27.5t10 69l-4 5l-12 -11l-22 -97q-4 -15 -10.5 -50t-9.5 -55q-6 -1 -10 3l-8 11q-5 -5 -7.5 -9.5t-8.5 -1.5q-3 7 6 14l10 7l-16 22l24 158q-4 2 -9 3t-17 1l-23 1h-46l-38 1 q-12 2 -21 6q0 17 9 25.5t32 19.5l43 -3l40 -3h14q9 0 14 2t8 7v8l-124 16q-1 5 12 14t7 20l61 1q41 0 49 4l-104 16l86 15q42 9 39 30q0 29 6 68l16 76h8l-24 -182q20 20 26 81q0 26 4.5 47.5t10.5 33.5q3 34 6.5 52.5t16.5 33.5zM261 566q8 -3 8 -12q0 -7 -8 -23l-7 -17 l-2 15l1 17zM363 325v4h10v-4h-10zM218 238l2 15l14 -5zM309 485l-10 -64q-3 -20 -13 -44q3 -2 5 -10l-3 -28l14 41q3 -2 5 -12l-1 -29l12 68l-14 -22l-1 12l3 39l4 34z" />
<glyph unicode="," horiz-adv-x="196" d="M156 104q0 8 6 10q5 -4 7 -8l4 -12q0 -113 -68 -200q0 7 4 16.5t13 26.5t11 29q-5 -11 -14 -28t-13 -23t-9.5 -13t-16.5 -17q-6 3 -7 -3q0 -5 -6 -8l-6 -6l-14 -6v12q-5 -3 -14 -13l-13 -13l-6 11q-3 4 0 10q8 4 11 16.5t6 17.5q12 33 18 75t6 86l5 2q5 -4 8 -20 q0 -15 2 -18q3 4 4 14q-1 10 -2 14l-2 14q0 11 13 17q9 -29 9 -59q0 -32 -7 -59.5t-12 -41t-15 -35.5q18 18 27 46l14 46q8 16 8 37q0 13 -2 25l-2 25q0 19 8 31l20 -1q5 0 10 9q16 -18 16 -49q0 -17 -5 -32h4l3 27l3 19q0 14 -6 29zM66 -29l4 54l-16 -83zM45 -105l2 12 l-9 -22zM154 21l-11 -32zM136 -33l3 4zM118 -52l-3 -6z" />
<glyph unicode="-" horiz-adv-x="404" d="M33 483q14 5 38 10l47 4h20t26 -2l48 -4l-14 -1l-21 1q-17 0 -22 1q-12 0 -23 -3q-14 0 -21 -2q16 -4 22 -5t14 -1l45 -1h35l36 1l5 8q13 -12 56 -19q44 -5 60 -17q0 -6 -9.5 -14t-11.5 -13q1 -3 1 -5q4 -5 5 -7l-2 -4l-37 7q-31 4 -43 18q-19 2 -30.5 3t-36.5 1 q-41 0 -45 1l-52 -1h-29q-18 -3 -27 -4q-4 4 -22 4q-19 0 -12 18q-6 0 -6 9q-3 5 3 8.5t3 8.5zM39 405l73 3l72 3q39 0 61.5 -3.5t56.5 -15.5q15 3 32.5 -8.5t23.5 -12.5v-9q-31 8 -69.5 14.5t-98.5 13.5t-144 7zM111 386q6 1 12.5 -6.5t19.5 -4.5l-7 9q48 0 92 -6t96 -18 l-4 -9q1 -3 3 -5.5t11 -7.5t9 -12l-17 -3q6 -5 12 -7t5 -10l-6 -8q-58 19 -126 25l-163 5q0 9 4.5 13t14.5 5l13 -1q10 0 16 -2q10 0 15 4q45 0 77 -4l129 -20q0 5 -11 9.5t-15 5.5t-15 7q-15 3 -31.5 5t-26.5 3l-65 2l-48 -1h-48q-3 11 8 18t13 12q1 -4 9 -7l24 -2v11z M106 487h-28l-26 -6z" />
<glyph unicode="." horiz-adv-x="208" d="M78 181l12 12q8 6 17 6q15 0 34 -26l25 -42l14 -33q3 -7 5 -22q0 -16 -12 -30l-17 7l-9 -22l-15 30q-3 6 -7.5 13t-10.5 16q-1 -6 8.5 -24.5t11.5 -29.5q0 -13 -20 -22q-3 -5 -15 -7l-14 14v-15q-4 -4 -7 -4q-4 -6 -15 -1q-9 5 -12 14q0 16 -22 51t-24 48q0 22 35 38 q0 7 4 12t10 5q7 0 15 -7.5t11 -15.5q10 3 11 10q-1 3 -1.5 5t-4 7t-5.5 8.5t-2 4.5zM123 117l-21 24l28 -46zM92 126q-3 -9 7 -17t7 -19h7l-7 19q-4 9 -14 17zM64 110l45 -72l-17 39q-11 22 -28 33zM37 105q0 -7 10 -16.5t12 -16.5q0 8 -9 19zM64 62l9 -22q5 -9 9 -12z" />
<glyph unicode="/" horiz-adv-x="732" d="M660 792q9 3 14 -4l-3 -15l-56 -60q-20 -23 -34 -51q20 10 59 53.5t48 50.5l18 -15l2 2v-15l-132 -153l-104 -122l-84 -106l-97 -120l-108 -127l-92 -117q-10 0 -11 8q2 8 4 12l8 14q-3 -1 -6 -3t-12.5 -9t-19.5 -7l-3 26l-25 -11l1 17l205 233l217 261zM687 740 q-10 -6 -14 -11t-2 -11q5 1 12 8.5t4 13.5zM628 658l4 15l-17 -26zM581 660l-117 -127v-9l64 68q32 35 53 68zM455 520l-21 -22q-6 -7 -11 -21q13 9 22.5 20t9.5 23zM391 446l-37 -41q-18 -24 -28 -41l33 37q22 22 32 45zM261 243q-4 -2 -11.5 -9.5t-6.5 -18.5 q13 13 15.5 16.5t2.5 11.5zM215 234q-26 -14 -36 -43zM194 162q-21 -18 -34 -34l-59 -88zM97 92q-9 -4 -16 -15.5t-14 -25.5q8 3 15 14z" />
<glyph unicode="0" horiz-adv-x="616" d="M320 780q2 1 14.5 4.5t36 9t45.5 5.5q26 0 48.5 -8t41.5 -29q39 -49 57 -109.5t18 -132.5q0 -87 -23 -170.5t-61 -153.5q-36 -87 -122 -142t-181 -55q-4 12 -10 13q-3 -10 -11 -11q-4 1 -6.5 1.5t-8 5.5t-8.5 6.5t-4 2.5q0 8 -14 22l-16 17l9 2q15 0 19 4l-18 18 q-7 -13 -19 -13q-5 0 -13 9q-5 2 -6 11q0 9 -8 9q-2 -6 -2 -10q0 -10 8 -21l22 -25q-48 48 -65.5 116.5t-17.5 157.5l3 101l3 96q25 67 64.5 126.5t93.5 113.5l-57 -77q-25 -32 -36 -62q6 3 47 61t62 64q20 4 23 22q0 18 18 18q5 -8 13 -8q6 0 21 9t24 9q8 0 16 -7zM316 791 l12 5l1 -3l-11 -4zM388 787l5 -3l6 -1l12 3l12 4l9 -3l-10 2h-9q-18 0 -25 -2zM472 773l-20 9l-3 -2zM350 762q14 -4 18 6q-4 1 -11 0q-5 -1 -7 -6zM316 748l7 -7l2 5zM492 746q-8 0 -13 -9q18 -6 37 -35l22 -31q-8 20 -12 29t-10 22t-24 24zM361 741q58 -11 83.5 -59.5 t47.5 -123.5q0 22 -2 37t-9 36q-9 38 -32 63q-19 24 -36 38q-16 11 -37 11q-11 -1 -15 -2zM289 700l17 1q12 0 27 -3l28 -6q51 -50 62 -153l6 -171q13 52 13 105q0 95 -23 149t-47.5 72t-48.5 18q-17 0 -34 -12zM189 673l5 -13l-48 -86l-19 -90q-8 -54 -8 -96q0 -33 3 -60 t14 -67.5t44 -80.5q-20 43 -27 80.5t-10 66t-3 52.5q0 88 24.5 174t67.5 157q-12 0 -21 -19t-22 -18zM266 700h5q2 6 5 10q-9 3 -10 -10zM271 683q-48 -48 -65 -99.5t-23 -90.5t-6 -80q0 -57 7 -102.5t24 -103.5l37 -52q19 -24 34 -29l17 -3h4q22 0 41 29l27 51 q34 105 34 216q0 128 -46 232q0 20 -15.5 31.5t-36.5 11.5q-19 0 -33 -11zM502 669q-2 -13 4.5 -30.5t8.5 -30.5q-1 -8 -2 -12q2 -6 5 -21.5t6 -34.5t3 -49q0 -60 -12 -109.5t-21 -76.5t-24 -61q-19 -16 -33 -37t-46 -77q49 41 82 99t51 127q0 25 6 91l7 89q0 29 -1.5 40 t-7 37t-26.5 56zM132 631q-4 -14 -23 -57t-19 -70q-8 -8 -12 -19t-4 -28l3 -38l3 -38v-11l10 39l4 31q0 21 3 43.5t10 50.5zM565 537l-5 -68l-13 -67q4 13 6 27t2 25l1 39q-2 10 -2 61l-2 77q13 -42 13 -94zM456 619v5l-8 2zM90 590q-8 -11 -12.5 -19.5t-9.5 -24.5t-7 -29 t-5 -27zM459 506l-7 -163l4 -4q0 8 1 23t4 36l5 56l-1 25q0 9 -6 27zM63 456l-5 -27l-1 -30q0 -10 1 -27t4 -41l5 -70l23 -89q16 -50 49 -77l56 -44q25 -17 47 -17q15 0 31 10q-6 7 -28.5 10t-68.5 30.5t-79.5 130.5t-33.5 241zM416 244v20l-5 -25zM56 144q1 -10 5 -21 t11 -11zM273 96l-2 -11q3 -5 11 -8l16 -1q6 9 -2 13zM388 96l-20 -11q-5 2 -7 4l1 -9q0 -7 6 -7l2 3l16 12q2 2 2 8zM341 60l15 7q-2 2 -8 1q-4 -3 -7 -8zM388 110l-6 -10z" />
<glyph unicode="1" horiz-adv-x="464" d="M380 786q2 3 4.5 4t4.5 2q6 0 13 -8l9 -7q3 9 12 11q6 -2 8 -4l-3 -13l11 -2q-50 -170 -85 -359l-51 -378l-4 -3q-3 18 -3 36q0 34 3 52.5t4 32.5l8 79l-6 -4l-23 -202h-4l-3 46l-18 -12l-2 2q-5 0 -11 -16q-3 -14 -17 -11l72 419l3 -2h5q5 5 1 14l-5 10l45 209zM317 788 q0 -8 -6 -25l-8 -19q9 -3 15 4l12 17q-4 11 3 15q12 4 18 8l6 -2q3 -10 -8 -21q-9 -12 -6 -19l14 11q-22 -34 -35 -77t-19 -91l-57 -283l-42 -273l-23 -14l16 158l5 93q-6 -18 -13 -55t-19 -121.5t-16 -97.5l-7 -4q0 62 6.5 120.5t21.5 140.5l23 107q9 45 9 89l-9 -11 l-38 -200l-33 -221l-11 -8q-8 6 -8 17q0 7 4 19l4 20l113 536q-16 -7 -45 -36l-30 -28q-15 3 -31 -13l-26 -31l2 8l-12 4l16 23q3 6 3 15q-15 -6 -36 -33t-38 -27q-5 0 -11 2.5t-8 12.5v9l10 10t18.5 16.5t50.5 50.5l96 101l94 97l13 -19zM190 648q23 14 39 33l44 59 q-4 9 5.5 14t7.5 15l-55 -61q-10 -13 -20 -27.5t-21 -32.5zM414 749l4 18l-2 2zM387 713q-6 -13 -11.5 -30.5t-11.5 -37.5l-15 -77l21 67q17 49 17 78zM263 702l-19 -17l-55 -58l-48 -54h9l113 115v14zM175 631q4 -3 7 0t3 8q-5 2 -8 -0.5t-2 -7.5zM163 614l1 13l-58 -67z M267 601l-32 -150h5l35 134zM340 534q-1 -3 -1.5 -5.5t-6 -13t-0.5 -16.5q11 8 11 23q0 6 -3 12zM326 473l-3 -8q-2 -5 -2.5 -7t-0.5 -3q4 -5 6 -6l2 8l2 10q-2 6 -4 6zM317 419v17l-4 -17h4zM305 381q-12 -39 -24 -129l-20 -145q17 58 30.5 133.5t13.5 140.5zM315 248l4 58 l-6 -61z" />
<glyph unicode="2" horiz-adv-x="628" d="M459 796q3 1 5.5 2.5t9 8t12.5 0.5q-2 -7 -2 -13q23 -12 43 -29.5t36 -40.5q0 17 -12 33.5t-34 32.5q39 -21 57.5 -59.5t18.5 -83.5q0 -16 -1 -20t-1 -12l2 -12l9 -26q0 -6 -4 -14q-13 -9 -27.5 -45.5t-17.5 -39.5l3 -5q8 8 19 27l17 34q0 -36 -17.5 -57.5t-28 -33.5 t-30.5 -31l18 26q15 18 15 31l-32 -27l-4 9q-4 -2 -5 -8q3 -6 3 -11q-1 -5 -22.5 -25t-78.5 -65l-115 -89q-62 -49 -96 -83l27 -7l-11 -1l-14 1q-15 0 -16 -16q33 -7 108 -15q34 0 58.5 -4t53.5 -12q32 -4 64 -21l53 -26q3 -5 -2 -9l-11 -7q-30 20 -69.5 32t-87.5 18v-7 l84 -28q32 -10 61 -30q-8 -6 -10 -12q2 -5 4 -7l-42 -2l-34 -2q-23 0 -40.5 4.5t-31.5 15.5l-21 -6l-196 26q-29 0 -61 -6l-26 -28q-10 -12 -24 -10q-12 6 -12 21q0 13 7 21q38 66 93 123l144 134q88 76 130 121l37 87q14 37 14 74q0 22 -3.5 37.5t-16.5 37.5 q-11 24 -35.5 40t-56.5 22q-45 -39 -61 -100.5t-16 -137.5q-12 -2 -18.5 -5t-7.5 -13v-4l-7 35q-3 17 -3 36q0 23 5 36l-4 5q-6 -6 -11 -30q0 -20 -5 -28q0 76 21 134.5t59.5 86t58.5 38t40 14.5v-6q14 3 25 3q39 0 69 -23q31 -21 64 -61q0 -9 2 -11l4 2q0 21 -6.5 35 t-23.5 26l-55 35l-25 7q3 3 9 3q5 0 13 -2.5t16 -7.5zM285 794q-18 -3 -31 -13l-46 -32q16 0 43 12l35 15q-74 -42 -119.5 -111t-45.5 -151q-3 -8 -3 -15q0 -10 4 -29l4 -29q0 -27 -30 -30q-20 40 -20 87q0 48 15.5 94.5t42.5 100.5q16 15 40 36.5t47 38.5t64 26zM194 673 l5 9l2 -3l-2 -6h-5zM190 667q-7 -21 -12.5 -45t-10.5 -56q-6 -54 -6 -111q-6 26 -6 52q0 35 8.5 70t11.5 45.5t15 44.5zM188 504l2 -37q-8 8 -8 21q0 8 6 16zM495 383l-143 -105l143 114v-9zM327 264l2 -2l-49 -40zM285 181l137 -18q71 -9 123 -36v-8q-3 -4 -10 -3l-10 7 l-7 -1l-2 -3l20 -14q-6 -6 -23 -8l-20 3l-20 5q-22 17 -56 29l-81 23l-101 6l33 5l28 4zM551 709l-20 27l20 -36v9zM469 572q-29 -138 -140 -229l44 30q16 10 35 33q7 5 18.5 31.5t30.5 29.5l-9 6q9 20 15 47t6 52zM168 217l-44 -47q-38 -39 -44 -67q14 14 62.5 70t85.5 80 q-18 0 -33 -14zM428 767q-25 3 -51 9q-12 0 -19.5 -4t-14.5 -18q51 -22 75 -41q26 -18 37 -54q0 6 -7 15t-2 19l24 -34q-3 34 -26 57q-20 23 -56 47q42 0 74 -50t32 -119q0 -47 -17 -87h9q11 26 16.5 51t7.5 40t2 33t-3 36l-36 56q-17 29 -45 44zM235 119l-56 4 q-20 -3 -27 -6t-7 -17l164 -22q8 0 33 -5t36 -4q-21 9 -63 21l-89 24zM397 69l-3 -6l49 -19l39 -9q-5 3 -14.5 7t-31.5 15.5t-39 11.5z" />
<glyph unicode="3" horiz-adv-x="576" d="M393 794q36 0 63 -14q28 -12 54 -40q9 -13 15 -22t14 -24q10 -23 10 -45q0 -54 -30 -92t-92 -88q6 -12 25 -25l41 -27q26 -20 38 -51t12 -71q0 -20 -3.5 -42.5t-18.5 -71.5t-87 -107t-154 -72q-15 3 -28 3q-7 0 -18 -1t-26 -4l-42 -5l-23 3q-12 2 -21 7q-44 15 -72 57 t-28 92q-6 16 11.5 30.5t17.5 26.5q6 -3 6 -24l-1 -17q0 -8 -1 -11l23 -68q15 -36 50 -52q5 0 17.5 -5t21.5 -3l-67 63q0 -5 3.5 -13t7.5 -13q-16 18 -23 40.5t-9 36.5t-2 33q0 29 6 59h4q0 -15 -2 -21v-13q0 -49 16 -87.5t54 -65.5q47 -15 91 -15q15 0 32 3l5 4l-85 18 q-49 16 -70 58q-14 15 -18 47l-7 59l16 2q-1 6 2.5 10.5t4.5 6.5t2 3l14 -67q9 -35 29 -57q8 -3 14 -7q-3 10 -7.5 21.5l-13.5 34.5t-9 44q0 20 10 37q0 -27 4 -46t19.5 -50t61.5 -49q-12 4 -19 2l-3 -2q15 -21 48 -21h11q11 3 17 4q7 6 16.5 11t15.5 14q21 17 31 44.5 t10 61.5l-1 41v15q0 6 -1 14.5t-1 12.5q-9 26 -31 44.5t-42 26.5l-25 8l-13 1l-23 -1q-5 0 -15 -1q-9 0 -21 3l13 21q-9 2 -15 2l145 87l-4 -15q24 3 35 23.5t17 44.5l5 29q0 24 -16 40l-58 19q-26 8 -48 8q-17 0 -28 -4l-31 -12q-18 -9 -25 -22l1 -12q0 -9 -8 -14 q-6 6 -12 6t-19 -10l-15 -10q0 22 25 41l49 34l31 7q18 3 23.5 3.5t20.5 0.5q25 0 45 -7q22 -6 36 -22l4 4q-12 21 -33 30t-46 9q-26 0 -42 -3t-23.5 -4.5t-19 -4.5t-26.5 -15l-39 -33q-9 3 -9 11q2 9 4.5 13t12.5 16l26 29l-13 3q3 9 16 19l30 21q-4 3 -6 3h-7 q10 17 30.5 29t51.5 24t67 12h25q12 -3 25.5 -5t36.5 -8q-1 9 -14.5 12t-16.5 4t-12 5zM382 558q4 -12 -4 -26l-15 -22q1 4 2 9t6 15zM223 727q6 -3 16 7q-9 0 -16 -7zM382 721q22 -11 42 -30.5t30 -45.5v-4q-24 38 -67.5 63t-89.5 25q-11 0 -21 -2l-9 -6q10 4 26.5 7.5 t36.5 3.5q31 0 52 -11zM194 679l42 18q17 7 20 24q-14 -2 -26.5 -9.5t-35.5 -32.5zM343 714q-4 -5 1 -8l12 -3v5l-7 1q-5 3 -6 5zM488 714l-1 -8q25 -30 25 -71q0 -22 -5 -37q-3 -18 -14 -38q5 2 9.5 12.5t5.5 14.5t7 15v19l1 22q0 24 -5 41.5t-23 29.5zM265 690l31 -3 q16 0 23 7q-11 7 -21 7q-8 0 -16 -2.5t-17 -8.5zM380 697l-11 4l13 -7zM336 694l-4 -6l52 -37q18 -12 27 -32.5t9 -44.5q0 -28 -8 -48q9 9 13 23l4 29q0 13 -2 23l-4 25q-6 26 -35 42zM254 690h-11l-2 -6zM412 755q-16 5 -33 8t-36 3q-30 0 -54.5 -6.5t-42.5 -23.5l51 12 q13 3 19 4t18 1h12q9 0 30 -5t56 -28l55 -41v5q-11 16 -18.5 25t-19.5 21.5t-37 24.5zM419 480l39 28l-47 -28h8zM265 430l-22 -11q5 2 11 -1l9 -3zM271 415q2 -2 9 -4l13 6q-8 6 -22 -2zM306 415q3 -4 5 -4l8 4h-13zM380 391q34 -22 46.5 -57.5t12.5 -84.5l-1 -23l-4 -41 q2 4 5 17.5t8 40.5t13 44q-19 53 -36.5 82t-56.5 35zM512 367l-9 9l9 -24v15zM359 370l43 -79l1 -32l1 -33q0 -30 -5.5 -53.5t-23.5 -43.5h7q17 14 26 43l15 54q0 52 -12.5 90.5t-51.5 53.5zM506 285q0 -36 -14 -68.5t-34 -59.5q21 26 36 53.5t15 53.5q0 9 -3 21zM484 159 l-70 -70q-23 -23 -28 -25q-7 4 -11 8q-4 7 -5.5 7.5t-2.5 1.5q-23 0 -44 -20l-32 -35q10 -2 27 12.5t24 16.5q6 0 12 -11q41 19 75 46.5t55 68.5zM363 135l-13 -14q-6 -7 -3 -12q6 3 10 11zM516 712l3 -9zM475 632l-4 -35z" />
<glyph unicode="4" horiz-adv-x="550" d="M310 790l25 15q5 -6 5 -11q0 -6 2 -8l7 8q3 -9 3 -18q0 -22 -14 -57l-25 -66q-10 -33 -62 -135t-72 -152q12 -3 19 -4t22 -1h20l23 1q-20 0 -43 -4l-45 -7q8 -4 22 -7l24 -2l41 3l42 4q0 10 -13 11q-6 0 -15 -1q3 3 12 3q15 0 20 4l39 145l27 107h7l-41 -252l7 -2h8 q14 43 24 98l19 108h-11l3 16l6 16l2 -24q6 6 7 19l-1 18q0 8 5 16l13 -13l-50 -252l6 -4q8 21 29 112l19 100q1 13 1 21q3 13 5 27.5t18 32.5l7 -1q5 -1 7 1l3 -4q0 -8 4 -11l32 30q6 -12 6 -29q0 -18 -3 -33t-7 -30.5t-10 -35t-17 -69.5t-22 -103q4 -14 38 -17 q33 0 33 -12q0 -7 -7 -18q6 -1 7 -11l-1 -26q-9 0 -10 -4q9 -5 9 -12q-1 -3 -1.5 -5.5t-5.5 -11.5t-2 -18q-13 0 -29 5t-25 2q4 -6 9.5 -8.5t3.5 -11.5l20 -4l4.5 -1.5t9.5 -6.5q-4 -3 -14 -4l-23 4l-24 4q-8 -1 -12 -2q-8 -33 -15 -84t-10 -76.5t-5 -34.5q-9 -3 -12 11 q-1 14 -10 17v40q3 21 4 33l5 52v16q-8 -18 -14 -80q0 -26 -4.5 -46.5t-10.5 -36.5h-5q-2 2 -2 8q0 8 2 12l-3 6l-8 2l-8 -21q0 31 1.5 44.5t6.5 43.5l16 98l-6 6q-4 1 -6 0l-19 -101q-9 -68 -13 -83q-3 -3 -6 0l-4 11q0 23 1.5 35.5t11.5 62t10 73.5l-13 -21l-21 -167 q-7 -3 -13 -12q-4 -10 -8 -16l-7 12q-3 5 -11 -2l-1 21q0 32 11.5 96.5t11.5 90.5l-19 11h-96q-44 0 -91 -13l3 -4q-7 -5 -23 -8l-24 -2l-3 1q7 7 15 11.5t11 12.5l-14 2h-14q0 9 6.5 20t8.5 20q0 7 -4 12q7 31 17 60t30 79l45 119l54 180q6 3 12 -10q0 -22 -17.5 -58 t-20.5 -58l-24 -73q29 39 47 91.5t32 122.5l9 9l9 -9q0 8 4 12l17 14v-19q-3 -11 -4 -15l-11 -48q11 7 22 44t29 43q0 -23 -4.5 -38t-9 -26t-14.5 -33l16 66q-13 -24 -44 -108.5t-38 -96.5q-10 -34 -42 -98t-44 -97l3 -2q22 22 59 98l42 84l39 97q29 72 40 127l23 52z M469 636q0 -30 -10 -62t-16 -56.5t-6 -42.5q5 42 12 80.5t20 80.5zM469 550h-7l7 -7v7zM342 349h7q0 5 -5 4zM458 349l-2 -11q6 1 19 0l14 -2q7 0 12 4zM102 332q-6 0 -6 -9h6v9zM289 298l-38 1l-41 1q-26 0 -36 -2q-16 0 -27 -5l53 -1h19t21 -2q25 0 49 3v5zM86 298 q-6 -3 -12 -13q-6 -7 -1 -15h10q7 0 10 7.5t3 17.5q-5 2 -7 2.5t-3 0.5zM445 285q11 -3 29 -3q12 0 16 4q-5 -1 -14.5 2t-14.5 4.5t-7 2.5q-6 0 -9 -10zM60 280l2 -2l4 11zM54 233q11 0 31.5 1t47.5 4l76 5l29 -1q16 0 29 -4l9 8l-71 5q-18 0 -36 -1t-36 -4q-34 -3 -51 -7 t-28 -6zM226 653l-27 -71z" />
<glyph unicode="5" horiz-adv-x="604" d="M566 779v-11l-142 5l-131 6l7 -9q38 0 55.5 -1t70.5 -7l121 -8l19 -18q-5 -1 -30.5 -4t-56.5 -3q-66 0 -72 -2q-15 0 -37.5 4t-38.5 4q-10 0 -20 -1t-18 -4v-5l38 -5l51 -1l58 -1q31 0 55 -7q20 6 41 6q22 0 30 -8l-23 -21q-10 -6 -20 -9v-5l38 -1q3 -9 -7 -20l-11 -12 l-209 11l67 -4l61 -3l33 1q19 2 39 11q-24 4 -54 6.5t-70 2.5q-37 0 -68 2t-51 5q-7 -5 -4 -14l13 -5q-15 2 -24 -18q-6 -19 -10 -22l-21 -82q0 -9 3 -21q6 1 12 1.5t18 3.5l23 4q13 0 21 -4q11 -3 21 -14q27 0 44 -4t40 -15t41 -35l9 -20q3 -6 14 -7q-3 23 -28.5 51 t-53.5 37l-68 2v10l37 4l18 1q21 0 35.5 -2t34.5 -9q33 -9 57 -33q14 -23 20.5 -45t8.5 -35t2 -30q0 -55 -24.5 -113.5t-61.5 -116.5q-58 -69 -136 -109t-158 -40q-47 0 -87 13q-34 23 -51.5 63t-17.5 84l1 18l8 -5l14 36l14 -11l6 19q3 5 12 2q0 -88 68 -141l25 3 q-31 23 -52 57q-19 35 -19 70l1 15q8 -30 20.5 -56.5t34.5 -45.5l-18 64q-6 30 -6 65q14 -4 17 -26l4 -39q10 -28 37 -49t61 -31q12 0 19 -2h22q21 0 39.5 6t32.5 21q38 62 38 137q0 54 -22 97q-15 24 -36 42q-18 18 -41 24q-62 0 -105 -14t-77 -52l-19 -1q-14 0 -13 14 l82 339q15 8 21 25l11 34q6 -6 15 -8q3 1 5.5 3t9 9.5t12.5 8.5q8 -2 10 -4l16 16zM305 407l-70 -5l40 9zM139 359l50 30l-48 -32zM379 250q0 -27 -1.5 -37.5t-8 -35t-26.5 -49.5l23 66q2 6 7 27.5t6 28.5zM209 668v-11q8 3 10 9zM250 668h-4l4 -7v7zM205 647 q0 -32 -24 -113l-26 -91l16 -5q10 10 12.5 14.5t0.5 15.5q-10 0 -16 2l28 80q15 41 15 76q0 11 -2 21h-4zM232 611l-22 -57q-19 -48 -19 -70l30 68l14 -4q-12 12 -12 25q0 8 12 30t12 35l-1 9q-8 -1 -11 -14zM246 482h6q8 0 15 9t10 18q-24 -6 -29 -10.5t-2 -16.5zM325 495 l-9 -6q38 0 68 -21l55 -47q14 -21 19 -43t7 -35.5t2 -28.5q0 -40 -11.5 -81.5t-32.5 -74.5l34 52q21 57 21 110q0 73 -25 109.5t-51 45.5zM314 452q40 -19 66 -40q27 -19 43 -53q0 33 -30 57l-39 24q-18 12 -40 12zM520 438l-9 12l9 -16v4zM461 698q-2 -2 -4 -9 q0 -15 18 -15q4 1 7 9l6 15q-5 6 -15 6q-9 0 -12 -6zM523 373h-5v-27zM498 321l-3 -18l-3 -18q0 -6 3 -12zM504 693q3 -5 14 2q-3 3 -10 3q-4 -3 -4 -5zM80 96l10 -18q9 -15 17 -16zM387 96l-84 -38q5 0 8 -3q-18 -15 -63.5 -20.5t-53.5 -8.5l27 -2q45 0 88.5 18.5 t77.5 53.5zM171 71l15 -15q6 -6 3 -14q11 -3 21 -3q14 0 24 2t16 3.5t21 8.5l-55 -5q-9 0 -21 12t-24 11zM250 598l-2 -12zM239 727v9v-9z" />
<glyph unicode="6" horiz-adv-x="552" d="M402 801q0 -8 11 -11q12 0 15 -6q-6 -15 -36.5 -42.5t-39.5 -42.5q-51 -52 -88 -123.5t-64 -152.5q2 -1 4 -1.5t5 -1.5q8 0 27 12t28 12q7 0 12 -4q11 7 56 26l47 20l-44 -1q-30 -3 -36 -24q-3 2 -12 4q-5 0 -20.5 -9t-26.5 -7q18 11 37 20.5t40.5 17t39 10t34.5 2.5 q21 0 47 -6q31 -12 51.5 -36.5t24.5 -58.5q5 -28 5 -34v-14q0 -71 -46 -147t-170 -166l-41 -17q-13 -4 -23 -6.5t-35 -7.5q-8 12 -18 12q-5 0 -17 -7.5t-22 -9.5q-8 0 -19 9l-19 12l2 9l-16 -1q-8 0 -14 7l2 10q0 7 -11 10l-14 3q-20 28 -28 58t-11 52t-3 41q0 70 22 149 l37 130l11 20q7 16 17 19q9 42 30.5 79.5t57.5 82.5l82 89q2 -10 -12.5 -27t-18.5 -26q14 10 34.5 31.5t35.5 29.5l1 -4q-83 -93 -140 -177.5t-93.5 -183t-36.5 -205.5q0 -26 3 -56l9 -22l8 -22l-1 41v42v43t4 55.5t33 122t92 187.5t161 179l4 -6q-41 -26 -77 -79l-54 -84 q11 9 31 32t60.5 74.5t85.5 75.5zM324 691l2 -2l5 10l-3 3zM265 613q-20 -20 -37 -52l-26 -62l8 7q2 14 7.5 26t23.5 34.5t24 46.5zM202 594q0 -8 -10 -21.5t-7 -24.5q7 5 13.5 20t3.5 26zM200 493q-6 -6 -8 -17q2 -7 4 -9q3 3 3 11q0 5 1 15zM185 459l-16 -35 q-3 -11 -4 -16t-1 -17q22 25 22 57zM428 455l36 -28q-12 23 -36 28zM425 430l-31 20l35 -24zM352 436q1 -12 13 -19l23 -13q10 -14 17 -34t9 -31.5t2 -26.5v-24q-3 -12 -5 -25t-9 -29q26 43 26 95q0 36 -16 62q-5 12 -12 17.5t-48 27.5zM278 423l-2 -9l10 1q3 -1 8 -1.5 t11 -3.5l-12 8zM440 410l8 -12v6q-4 4 -8 6zM259 409q-18 -3 -29.5 -10.5t-44.5 -44.5q-13 -42 -13 -87q0 -43 9.5 -78.5t33.5 -69.5l25 -15q8 -3 20 -5q10 0 34 25t46 81t22 115l-8 -17l-18 63q-22 43 -68 43h-9zM474 364v19h-4zM151 334q-15 -41 -15 -91q0 -27 1.5 -37 t8.5 -32t26 -44l-13 28q-3 8 -5 22q0 9 6 20l4 -15l-7 49l-4 -36l-3 23l-1 25q0 26 2 45t3.5 29.5t2.5 13.5h-6zM389 278q-9 -36 -23 -68t-38 -72q-3 -9 -18 -21q-15 -9 -18 -21q44 35 70.5 83.5t26.5 98.5zM448 214l20 33q6 11 6 27q-9 -7 -15 -22.5t-11 -37.5zM81 263 q0 -66 4 -98t18.5 -61.5t46.5 -46.5q33 -15 37 -20l9 9l-45 23q-42 27 -57 78q-13 54 -13 116zM328 101q31 19 54 50t37 67q-19 -18 -36 -39zM174 159l-8 15l8 -25v10zM252 33q5 0 20 9q-6 0 -12 -3q-4 -4 -8 -6zM139 434v15v-15z" />
<glyph unicode="7" horiz-adv-x="584" d="M205 790l312 -13q4 -21 -23.5 -51t-32.5 -46t-27 -60l-21 -42l3 -3q11 14 53.5 86.5t80.5 102.5l4 -4l-65 -97l-69 -120l-17 -5q-2 -1 -4.5 -2t-4.5 -4l13 -4l-213 -393q-2 -10 -5 -19.5t-11 -27t-10 -29t-2 -25.5l92 188l132 234l130 230h6l-53 -100q-27 -51 -60 -84 q3 -6 3 -12q0 -15 -19.5 -39.5t-19.5 -40.5q-56 -95 -104 -200.5t-80 -210.5q-4 -3 -6 -5t-8 -2q-3 9 3 21.5t4 20.5l-10 -16q-2 -5 -10 -8q3 9 -3 12q-4 3 -12 0l3.5 14t7.5 20q0 6 -6 12q-8 -5 -18 -26q-8 -20 -21 -26q12 53 40 116l48 106q-32 -38 -62 -101l-53 -116 q-2 5 3.5 19t5.5 22q-10 -1 -15 -24q-3 -21 -13 -28v14q0 8 1.5 12.5t26.5 51.5l9 -2l61 132l-7 6l7 15v-5q2 -4 4 -5l201 361v12h7q-1 7 -1 10l1 13q0 8 -11 11q-21 -26 -55 -89l-67 -124l-91 -177l-110 -240l-22 15l94 202l64 135l81 152l13 7l-7 11l33 61q13 26 22 56 q-33 6 -74 6q-29 0 -48 -4l-160 -13q-5 2 -6 8v12q9 0 10 8q0 8 5 11l140 8l163 3q6 6 6 15q-21 5 -48 8t-56 3l-108 -5l-78 -4q2 2 8 23.5t16 28.5q5 -2 11 -1q6 3 6 8l21 7q11 3 18 12h-24q6 5 14 6l23 2q27 0 41 3zM550 718h-6l8 16zM529 694q-3 4 1 10.5t11 7.5 q1 -5 0 -7l-4 -11h-8zM433 749v-9h13q5 0 7 6zM361 779v4l-17 3zM231 758q-6 -2 -10.5 -3t-10.5 -2l-27 -1l-32 -1q-14 0 -28 -6h140l73 -1h28.5t42.5 -4l4 6q-22 4 -39.5 6.5t-40.5 2.5zM396 688q6 -6 11 -6q11 0 9 15q-4 3 -12 1q-5 -2 -8 -10zM368 688h5l1 9q-4 -2 -5 -4 zM329 621q-9 -11 -14.5 -20t-5.5 -21zM402 608v-4h10q7 0 8 4h-18zM402 552h5l2 13zM246 320q14 3 14 22q-5 -2 -8.5 -11t-5.5 -11zM216 257l9 15l4 11q-7 -2 -12.5 -11t-0.5 -15zM233 149l-27 -56q-13 -29 -16 -48z" />
<glyph unicode="8" horiz-adv-x="572" d="M375 789l30 11q10 3 26 5q11 0 16.5 -5t5.5 -20q5 -5 8 -6.5t4 -2.5l8 14q37 -24 54 -62q18 -36 18 -84q0 -63 -42.5 -99.5t-96.5 -73.5q9 -9 43 -30.5t48.5 -33t28 -45.5t13.5 -68q0 -17 -11 -63.5t-63 -102.5t-123 -92l-75 -17q-39 -9 -75 -9q-52 0 -87 26q3 3 4 8 q0 13 -13 14l-16 -9q-30 30 -50 73q-17 43 -17 88q0 35 12 73q10 13 27.5 52t44.5 54v-9q16 0 33.5 14t33.5 28q0 12 -14 22l-26 20l-26 58q-9 27 -9 54v12l2 12q12 54 36 96.5t68 62.5q-63 -54 -90 -139q0 -19 10 -33q7 57 30 100.5t69 62.5q-23 -19 -36 -44l-37 -83 q5 -6 6 -16l2 -17v-12v-18q0 -8 6 -17q6 -28 27.5 -55.5t47.5 -30.5l7 4q-30 31 -49 67.5t-19 76.5q0 39 16 73.5t49 58.5l5 13q23 21 53.5 33t64.5 12zM221 767q18 20 44 20q0 -6 -17 -13t-18 -15q2 -9 4 -12h-9q3 3 0 11zM464 743l-20 22l-3 -2zM331 747l36 -30 q7 -6 12.5 -11.5l13.5 -13.5q36 -50 36 -115q0 -34 -10 -61h5l16 32q-3 8 -5 10l4 48q0 26 -6 45.5t-23 36.5q0 10 -14.5 25.5t-11.5 29.5q-6 16 -20 16q-8 0 -17.5 -4t-15.5 -8zM455 666q6 -10 6 -31q4 -23 13 -26q2 10 2 20q0 33 -15.5 58.5t-39.5 44.5zM485 719l-8 4 l17 -26zM303 716q-20 -6 -32 -21.5t-22 -38.5q-6 -20 -6 -35q0 -28 12 -48t22 -33t26 -30q8 0 17.5 -5t12.5 -15q38 0 55 42l13 43l9 -2v5q-9 4 -12.5 28t-28 61t-66.5 49zM481 609l-17 -58h4l11 20q3 7 5 21q0 8 -3 17zM184 591q3 -31 9.5 -52t16 -28t15 -11t18.5 -16 t24 -12q6 0 14 4q-33 16 -59 54zM106 531l-1 36l-3 -3zM223 555q12 -24 20.5 -34.5t19.5 -15.5zM111 520q5 -27 21 -54q16 -23 41 -38l11 9q-8 6 -21 17t-26.5 26.5t-25.5 39.5zM362 379q0 18 -18 27l-35 17q-13 8 -23 8q-6 0 -10 -5l66 -33q57 -31 76 -113l15 -81 q3 16 3.5 22t0.5 22q0 52 -24 88zM333 430l11 -10q5 -3 9 3q-10 8 -20 7zM474 386l-41 44l52 -72zM366 415l49 -50q21 -20 31 -43q12 -20 12 -55q0 -22 -5 -45l-3.5 -28t-1.5 -7q9 14 12 29l8 67q-11 43 -38 80t-64 52zM213 386q-11 0 -19 -8l-21 -25q-23 -35 -23 -84 q0 -50 27 -92q32 -31 66.5 -47.5t74.5 -16.5l-9 -5l16 -3q20 0 40 29l24 32q11 25 11 54q0 54 -38 107q-19 22 -44.5 37t-54.5 15l62 -34q25 -13 28 -38q-23 28 -54 43zM89 340q-9 -2 -9 -20q6 3 10 10q3 6 -1 10zM97 311l-8 -20l-7 4q-6 -3 -9 -9l-4 -15l-1 -24 q0 -55 24.5 -103t71.5 -73q42 -13 78 -13q26 0 52 9l-19 -4l-22 3l-20 3q-8 0 -19 -6q-3 3 -11 5t-10 4l-3 3q6 3 14 -2l-73 51q5 -2 9 -8t1 -9q-11 8 -18.5 16.5t-5.5 18.5q7 -3 9 -5l7 -4q-12 16 -26 65l-14 53q0 -17 3 -38l6 -36q-10 15 -15 31.5t-5 38.5q0 12 3 24 q15 3 15 17zM499 311q3 -8 3 -17l-3 -22q-2 -17 2 -21l4 5l3 18l2 16q0 17 -11 21zM43 245q-3 -20 -3 -39q0 -30 4.5 -49t11 -33.5t20 -36.5t53 -38.5t80.5 -16.5h20l12 2q-51 0 -93 24t-59 52.5t-20 37.5t-5 14zM393 82q-9 2 -15 -10t-18 -9l-12 -13q-4 -6 -3 -10l53 36 q18 12 24 23t22 17.5t18 15.5l-3 10q-18 -10 -35 -24.5t-31 -35.5zM173 87l-29 20l31 -18zM287 98l18 -3z" />
<glyph unicode="9" horiz-adv-x="568" d="M59 642q44 67 110 112t140 45q-30 -11 -56.5 -25.5t-42.5 -38.5q16 0 45.5 18.5t53 24.5t58.5 6q43 0 76 -12.5t57 -42.5q19 -33 28 -65t12 -53t3 -43q0 -79 -31 -165t-80 -166l-103 -138q-20 -26 -43 -50t-50 -48l-9 20l-26 -11q0 9 15 24l33 31q-23 -3 -51 -30.5 t-43 -35.5v12q0 6 -8 10q-5 0 -18.5 -6t-19.5 -6q-7 0 -12 4q0 8 -2 13t-4 6l-14 -9l-2 5l109 106q56 55 94.5 108.5t56.5 120.5q-4 1 -12 1q-11 0 -23 -6q-17 -6 -31 -20q7 -2 20 1l20 4l-42 -15q-34 -9 -48 -23q7 -5 17 -5q8 0 12.5 1t10.5 3.5t10 4.5q-30 -16 -70 -16 q-65 0 -113 36q-46 48 -64 113q9 3 9 13q0 14 -2 22l-7 7l-2 -14v-13q-3 13 -3.5 18t-0.5 18q0 17 3 34.5t11 37.5zM302 741l-9 -6q31 -3 58.5 -19t51.5 -43q-11 29 -39.5 48.5t-61.5 19.5zM258 713l-39 -40q-14 -29 -28 -68q-11 -39 -11 -72q0 -47 15.5 -74t38 -44 t48.5 -17q47 0 80 37l8 57l4 56q0 29 -6 59q0 7 -4.5 16.5t-13.5 24t-11 23.5q26 -20 37.5 -52t11.5 -68l-3 -49l-6 -51q11 6 17.5 21t6.5 38q0 45 5 55l13 9q-12 0 -15 5l-9 43q-1 8 -4 15.5t-7 15.5l-33 43q-5 1 -10.5 2.5t-25 9t-40.5 7.5h-6.5t-12.5 -2zM187 709 q-20 -6 -33 -25l-33 -61q-3 2 -5 9l2 9l-1 4l-25 -55q-4 -11 -7 -23t-3 -24q0 -46 18 -90.5t47 -67.5l-45 77l-3 46l-2 36q0 22 4.5 38t15.5 27q-6 -32 -6 -63q0 -51 16.5 -94.5t53.5 -75.5q18 -8 33.5 -12t34.5 -4q12 0 24 3q-6 6 -31.5 10t-34.5 16q-38 24 -52 60 q-11 33 -25 114q0 23 15 61.5t18 51.5l18 20q7 7 6 13zM214 689q-9 -8 -20 -25q-7 -14 -4 -22zM471 687l9 -7v5zM483 669q3 -9 6 -25t5.5 -33t2.5 -49q0 -19 -1 -38t-4 -38l-7 -51q5 12 9 25t5 20.5t1 22.5v12q11 25 11 54q0 18 -1 27t-7 25q-7 27 -20 48zM395 660v-11 q7 2 11 4q-3 3 -5 4zM426 653l-11 -11h4q9 -14 13.5 -37.5t4.5 -48.5q0 -23 -3 -53l-4 -43l-9 -9l-26 -93q20 33 32 74l29 107q5 0 8 -1q0 -1 1 -1q0 -57 -18 -120l-46 -125q18 28 30 61l30 91l19 80l-6 4q4 6 4 14q0 6 -6 21l-5 18v-18q0 -8 -2 -11h-9q-3 33 -9 60 q-3 24 -21 41zM75 462q3 -27 21 -53.5t41 -36.5q-21 12 -33.5 37t-19 37.5t-9.5 15.5zM368 398h7l10 13q3 3 3 11l-2 7q-10 -5 -14.5 -13t-3.5 -18zM329 313q-24 -47 -36 -65l48 66q25 37 25 67zM295 365l18 4q-3 0 -6.5 -0.5t-11.5 -3.5zM170 352l2 2l-22 11zM399 345 l-104 -163q0 -31 -42 -67q-41 -32 -50 -52q14 6 31 21l21 21q12 30 78 108t66 132zM337 157l9 20l-19 -24zM165 98q-2 -5 -15.5 -14.5t-10.5 -20.5zM163 21q8 1 14 6q6 3 6 12q-6 3 -11.5 -6.5t-8.5 -11.5zM392 283l-2 -10z" />
<glyph unicode=":" horiz-adv-x="264" d="M159 453q-3 9 2.5 15t27.5 11q5 -13 32 -40t27 -45q0 -10 -4 -18l-17 -1v-11q-4 3 -11 0q-4 -3 -7 -12l4 -9q5 -6 -3 -9l-71 82q0 -10 8 -22l22 -27l19 -35q-8 1 -10 -7.5t-12 -5.5l-46 50q-15 17 -36 31l-2 -2l68 -90q-20 9 -45.5 27.5t-41.5 40.5q0 10 10 20q11 8 8 20 q9 0 22.5 9.5t20.5 11.5q0 8 10 14q11 3 14 8q5 -1 6 -2zM146 230q13 -6 24 -23q11 -14 16 -27l13 -33q8 -20 10 -29q0 -9 -9 -18q-4 4 -5 7q0 5 -6 5q-1 -2 -2.5 -6t-1.5 -8v-12q-6 -3 -12 1l-7 10l-1 -7v-7q0 -9 -5 -13q-6 2 -11 12t-10 15l1 -25q0 -13 -12 -19 q0 -6 -6 -4l-8 5q-3 -14 -20 -14q-5 0 -10 9q-3 9 -33 48t-33 58q10 3 23.5 22t31.5 14l43 -57q2 13 -10.5 31t-12.5 30q10 -8 31.5 -45.5t34.5 -50.5q-6 20 -30 63l-25 50q5 6 13 6t15 -5t20 -19l25 -28q0 13 -15 37zM177 439q0 -10 12 -23.5t14 -22.5l-3 -11q6 -5 10 -7 l-1 3q4 4 4 11q0 9 -11 21zM73 152q-1 -2 -5 -4q-3 1 -4 2t-1 2l21 -31q10 -3 18 -15t12.5 -17t7.5 -8q-3 9 -7 18t-10.5 19t-17 24.5t-18.5 26.5zM192 393l-14 17z" />
<glyph unicode=";" horiz-adv-x="264" d="M175 425q17 -17 28.5 -29.5t24.5 -29.5t19 -43q-9 0 -11 -1.5t-5.5 -3t-10.5 -6.5q1 -6 2 -9q3 -6 0 -10q0 -5 -5 -5q-5 3 -6 5l-6 7q-6 -3 -6 -10v-16q-14 1 -39.5 38t-44.5 43l16 -35q11 -20 30 -26l11 -44q-14 12 -38 40l-40 50q-9 0 -11 -2l66 -106q-6 -3 -14 -3 q-9 0 -15 6l-78 99q3 5 22 11q18 4 19 16q12 0 20 9t5 24q15 0 30 8l30 16zM228 193l-12 -84l-45 -125q-15 -40 -50 -79l-2 4l-6 -7q-3 -5 -10 -4l48 130q25 70 25 128l-1 18v12q7 8 16 11l3 -11l2 -16q0 -4 -1 -13t-4 -21l-5 -33l1 -15q5 8 9 25t5 26.5t1 29.5v28l10 4l6 2 q6 0 10 -10zM162 180l6 -6q0 -113 -58 -202l9 -2q-8 -25 -18 -46q-6 -18 -24 -24v-6l-5 24l-21 -26q1 -3 2 -5.5t5 -6.5l14 2q2 -7 -1.5 -12.5t-16.5 -12.5q-6 6 -12 -2t-13 -4l4 15q0 5 -5 17t-3 22q15 9 18.5 17.5t14.5 71.5l4 51l4 52q0 16 -1 21l11 7l9 -18 q0 -24 -7 -67l-7 -59l18 67l4 46l-1 14l-3 24q8 -3 15.5 8t14.5 11q9 -9 9 -27q0 -8 -9 -39t-9 -42q20 17 24 53l10 71zM70 -42l1 19l-10 -30zM84 -56l1 10l-2 -13zM162 395l43 -57z" />
<glyph unicode="&#x3c;" horiz-adv-x="524" d="M502 505l-189 -56q-100 -29 -168 -74l-3 -10q28 -19 55.5 -34t70.5 -33t101 -18h15q7 0 21 1.5t19.5 2.5t19.5 6l-22 -6q-17 -3 -29 -13q5 -3 19 -5l23 3l23 5l-2 -7q-9 -4 -16.5 -7t-24.5 -7l-41 -4l-33 1h-12q-6 0 -20 2q22 -14 85 -20q27 0 43 -1.5t31 -4.5 q-51 -23 -99 -23q-66 0 -123.5 35t-125.5 95v-12q47 -65 114.5 -97.5t165.5 -57.5q17 12 43 12q27 0 40 7v-8q-4 -4 -8 -5.5t-5 -2.5q0 -9 7 -9q7 1 9 2l7 3q5 -5 5 -9l-18 -11q2 -6 5 -10t4 -9q-1 -3 -1.5 -5t-5.5 -7q-38 -11 -78 -11q-61 0 -114.5 25.5t-107.5 68.5 l-104 84l-7 10q-2 2 -2 9q13 0 24 -10l23 -21l4 2q-7 3 -22 31q-12 27 -24 27q-9 0 -20 -11v23q2 9 9 18l-25 -6q21 37 63 64l91 49q43 23 107 42l167 42q-1 -15 13 -16q15 0 16 -11l-11 -3q-5 -2 -6 -4zM427 588l11 -2q11 1 16 2l16 2q11 0 17 -11q-86 -18 -161.5 -42 t-140.5 -54.5t-132 -82.5q0 12 -11.5 23t-11.5 20q0 8 4 17l26 24q-4 4 -4 7q0 7 7 8q28 25 74 54l75 47l148 57q63 20 118 20q-1 -5 -12 -14l-22 -14q0 -6 10 -6l17 2q10 0 12 -12q-13 2 -39 -9.5t-41 -11.5l-3 -6q8 -3 17 -3l26 3l18 3l-16 -6q-12 -3 -18 -15zM464 204v-6 q-19 -7 -48 -10q-26 0 -37 -3q17 8 45 13zM470 513l-12 1q-31 0 -56 -19zM427 527l32 9l-54 -8zM437 642q-87 -17 -146 -39t-95 -38t-71 -37l93 39l132 50q9 4 34.5 9t34.5 7.5t18 8.5zM276 545l-75 -28l-1 -8l157 66zM256 488v-6l45 18zM280 264h-10l10 -7v7zM132 362 q5 -10 13.5 -17t18.5 -9l-13 15q-10 14 -19 11zM152 259l-41 58q-7 10 -20 22l-5 -9zM142 336q-2 1 -5.5 4t-9.5 7.5t-11 3.5l15 -15q6 -3 11 0zM132 480q-23 -10 -39.5 -21.5t-29.5 -29.5zM99 511l17 14l-27 -17z" />
<glyph unicode="=" horiz-adv-x="525" d="M40 577q12 3 24.5 5t28.5 4t51 2l69 -2l65 -2l-20 -1l-27 1l-29 1q-15 0 -30 -3h-18l-10 -1l49 -5l58 -1h12h36l38 1h9l6 6q17 -10 76 -16q25 0 46 -3.5t33 -9.5q0 -6 -12.5 -11t-14.5 -10q4 -7 7 -10l-3 -3l-50 5q-20 0 -32.5 3.5t-24.5 11.5h-292q-12 1 -21.5 2 t-18.5 3.5t-5 12.5q-7 0 -8 7l8 8v5zM48 515l115 2l79 3l81 -3q20 0 29.5 -1.5t45.5 -10.5q20 3 46 -7l28 -10v-7q-97 14 -197 21t-218 7zM144 500q9 0 15 -5q6 -3 17 -5l11 1l-10 7l122 -5l128 -14l-4 -7q2 -2 4.5 -4t13.5 -6t11 -10l-22 -3l13 -5q6 -1 8.5 -2.5t0.5 -5.5 l-8 -7q-61 11 -100 15.5t-68 4.5l-215 4q-2 16 23 16l19 -1q14 0 22 -2q10 0 19 3q48 0 71.5 -1t75.5 -7l127 -12q-2 9 -25.5 12t-29.5 6l-78 6l-85 2l-64 -1h-64q-3 9 8 13.5t14 6.5l6 4q5 -7 33 -7h11v9zM40 347q12 3 24.5 5t28.5 4t51 2l69 -2l65 -2l-20 -1l-27 1l-29 1 q-15 0 -30 -3h-18l-10 -1l49 -5l58 -1h12h36l38 1h9l6 6q17 -10 76 -16q25 0 46 -3.5t33 -9.5q0 -6 -12.5 -11t-14.5 -10q4 -7 7 -10l-3 -3l-50 5q-20 0 -32.5 3.5t-24.5 11.5h-292q-12 1 -21.5 2t-18.5 3.5t-5 12.5q-7 0 -8 7l8 8v5zM48 285l115 2l79 3l81 -3 q20 0 29.5 -1.5t45.5 -10.5q20 3 46 -7l28 -10v-7q-97 14 -197 21t-218 7zM144 270q9 0 15 -5q6 -3 17 -5l11 1l-10 7l122 -5l128 -14l-4 -7q2 -2 4.5 -4t13.5 -6t11 -10l-22 -3l13 -5q6 -1 8.5 -2.5t0.5 -5.5l-8 -7q-61 11 -100 15.5t-68 4.5l-215 4q-2 16 23 16l19 -1 q14 0 22 -2q10 0 19 3q48 0 71.5 -1t75.5 -7l127 -12q-2 9 -25.5 12t-29.5 6l-78 6l-85 2l-64 -1h-64q-3 9 8 13.5t14 6.5l6 4q5 -7 33 -7h11v9zM136 581h-36l-34 -5zM136 351h-36l-34 -5z" />
<glyph unicode="&#x3e;" horiz-adv-x="524" d="M28 265l188 55q98 30 169 75l3 10q-28 19 -55.5 34t-70.5 33t-101 18q-24 0 -37 -1.5t-18 -2.5t-20 -6q3 1 7.5 1.5t19.5 4.5t24 13q-7 5 -19 5q-9 0 -24 -4l-22 -4l2 7q17 8 41 13t41 5l32 -1q22 0 33 -2q-13 8 -35 13.5t-50 5.5q-29 0 -46 2t-28 5q51 23 99 23 q66 0 109.5 -26.5t74 -49t65.5 -54.5v12q-45 63 -116 97t-164 58q-17 -12 -44 -12q-28 0 -39 -7v8q4 4 6 4l7 4q0 9 -7 9l-9 -3l-7 -2q-5 5 -5 9l18 11q-3 7 -5 9l-4 10q1 3 2 5.5t5 6.5q38 11 78 11q62 0 103.5 -20t64.5 -34.5t54 -39.5l104 -84l6 -9q3 -5 3 -10 q-12 0 -24 9l-23 22l-4 -2q8 -3 21.5 -30.5t24.5 -27.5q9 0 20 11l-1 -23q0 -10 -8 -18l25 6q-21 -37 -63 -64l-92 -49q-42 -23 -107 -42l-166 -42q1 15 -14 16q-15 0 -15 11l11 2q5 3 6 5zM103 182l-11 2q-11 -1 -16 -2l-16 -2q-11 0 -17 11l160 42q77 24 142.5 55 t131.5 82q0 -12 11.5 -23t11.5 -20q0 -8 -4 -17l-26 -24q4 -4 4 -7q0 -7 -7 -8q-25 -22 -75 -54l-74 -47l-149 -57q-62 -20 -117 -20q1 5 11.5 13t22.5 15q0 6 -10 6l-17 -2q-10 0 -12 12q13 -2 39 9.5t41 11.5l3 6q-8 3 -17 3l-26 -3l-18 -3l15 6q13 3 19 15zM66 566v6 q10 5 36 8q19 0 49 5q-9 -5 -22 -8.5t-23 -5.5zM60 257l12 -1q31 0 56 19zM103 243l-32 -9l54 8zM93 128q85 17 142.5 38t97 39t72.5 37l-94 -40l-131 -49q-9 -4 -34.5 -9t-34.5 -7.5t-18 -8.5zM253 224l76 29l1 8l-157 -66zM274 282v6l-45 -18zM250 506h10l-10 7v-7z M398 408q-5 11 -13 17.5t-19 8.5q2 -2 4 -4.5t10.5 -13.5t17.5 -8zM378 511l41 -58q7 -10 20 -22l5 9zM388 434l26 -15l-16 14q-4 4 -10 1zM398 290q24 11 40 21.5t29 29.5zM431 259l-17 -14l27 17z" />
<glyph unicode="?" horiz-adv-x="460" d="M256 797l-4 -6q2 -6 10 -6q9 0 11 -2q6 3 3 7l-3 5q36 0 68 -29q29 -23 50 -61q0 -81 -80 -152l-141 -114l-9 -25l-1 10q0 26 30 49l58 44l92 76h11q-4 4 -1 15q3 6 5 14q-2 7 -4 9q-3 -6 -20 -17t-18 -21l-183 -152l-5 -21q0 -9 9 -15q22 -8 55.5 -13t82.5 -5 q98 0 123 -14q25 -11 25 -31l-49 11q-15 3 -37 3q-12 0 -27 -3q11 -8 61 -14q48 0 61 -35q-15 -3 -33 6l-26 15q-12 3 -21 3l-13 -1l-23 -6l8 -8l-10 -1l-11 -4q12 -5 30 -5l33 1q15 0 23.5 -4t14.5 -17q-44 11 -97 11q-24 0 -35.5 -1t-31.5 -6q-14 3 -25 3t-40 -6l-36 -5 q21 -6 43 -6q20 0 36 2l37 2q12 0 18 -2h19l33 1q34 0 54 -4.5t36 -22.5v-12q-23 15 -47 19.5t-40 6.5t-34 2q-29 0 -73 -4l-73 -4q-27 0 -45 2t-44 11t-53 43q-6 15 -6 32q0 25 12 48q34 43 111 103t87.5 72t20.5 25t11.5 17.5t3.5 17.5q0 15 -12 24q-21 24 -51 24 q-11 0 -21 -5q-9 3 -28 -12.5t-26 -15.5q-5 0 -11 11l2 15l-17 2q10 24 44 30.5t41 11.5q26 0 61 -33l39 -34q6 17 -17 41l-25 28l-32 9q-9 3 -22 3q-16 0 -26 -5q-21 -4 -40.5 -18t-39.5 -35v25l-19 -17q-2 2 -4 9q0 8 16 24l20 22q34 24 80.5 37.5t92.5 13.5 q-18 10 -42 10q-19 0 -28 -2.5t-19 -5t-27 -9.5q14 9 34 14t33.5 7t27.5 2h15zM92 759l-32 -27q0 6 7 13t18 14h7zM49 726q-6 -15 -12 -24q-4 -9 -15 -15q-1 6 6 16q13 13 21 23zM147 201q14 0 28 -10l24 -20l6 11l46 -45q26 -28 26 -49q0 -9 -4 -17q-3 -3 -8 1l-5 4l-8 -5 l-82 75l-6 -6l81 -91q0 -5 -6 -11l-15 -6l-33 32q-27 29 -43 35q-2 -3 -2 -5l1 -7q-3 8 -36.5 32t-39.5 42q2 2 12 4l27 -3q9 0 10 11l-1 9l-2 2q6 5 11.5 0.5t9 -6.5t4.5 -2q7 4 9 8zM66 140l72 -56q40 -29 57 -58h-21q-29 31 -46 45t-43 23v-9l83 -66q0 -6 -3 -12l-10 -8 l-114 86l-9 14q6 11 17 11q6 0 13 -4l17 -12q3 8 -5 15l-18 16zM136 743h-4l-21 -15zM155 747q12 6 22 6t29.5 -6t32.5 -8q25 -18 37 -43t12 -57q0 -22 -23 -43l-41 -39l66 50q13 26 13 49q0 17 -5 27q-5 27 -35 43l-51 25l10 8q-6 2 -20 4q-25 0 -47 -16zM66 374 q17 -26 32 -36t32 -8q-2 4 -27 16.5t-28 29.5l-2 24q0 17 4.5 29.5t16.5 20.5q-31 -22 -31 -58q0 -9 3 -18zM285 380v4h-25v-4h25zM300 380v4h-10v-4h10zM321 380v4h-14v-4h14zM357 378q3 -3 10 -3q13 0 17 -4zM138 361l-19 6v-4zM24 363l-4 -16q3 -10 7 -23t10.5 -24 t24.5 -17v12q-15 7 -26 27q-8 19 -12 41zM300 355q-13 0 -32 -1t-43 -4l-50 -4l-24 1q17 -3 34 -5t38 -2q45 0 77 8v7zM148 323l-6 -3q5 -6 10 -6l9 3zM161 300l25 -2l108 13l-61 -1q-35 0 -72 -10zM84 283h-12l13 -4zM262 768h-12l14 -2zM233 757l44 -18q21 -9 43 -24 q-15 23 -26.5 28t-27.5 8t-33 6z" />
<glyph unicode="A" horiz-adv-x="884" d="M548 791q9 -8 9 -24v-14q0 -7 4 -12q12 -47 15 -54.5t5.5 -12.5t11.5 -19l5 6q0 16 -12 57t-12 56q5 3 8 3l10 1l11 -52q9 -49 23 -70l6 14l-14 51l-11 59q15 2 21 -20l30 -125l74 -259q50 -154 124 -295q3 -11 -8 -26l-9 13l-11 -11l-8 18l-12 -9q-9 12 -21 36.5 t-18 36.5t-9 16q0 -21 11 -46l20 -43q-2 -5 -9 -8l-17 -1l-78 165l-9 -15l34 -79q19 -39 40 -73q-2 -5 -2.5 -7t-0.5 -3q0 -6 6.5 -16t8.5 -17q0 -7 -8 -12q-28 30 -59 102t-47 94q-7 0 -8 -7q6 -12 6 -19q9 -27 27 -63l36 -68q-4 -4 -4 -11q0 -6 4 -14l10 -17q0 -5 -19 -5 q-14 16 -44.5 89t-79.5 85l-304 6l-94 -141l22 43q11 22 14 41q-8 -8 -26.5 -42t-37.5 -50q0 28 29 72t34 55.5t24 11.5q17 0 17 21l-19 1l-16 3q-18 0 -18 -20q-9 -34 -23 -53l-56 -85l-6 9q-6 -7 -16 -14l-26 -10q10 10 19 25.5t17 35.5q-11 -7 -32.5 -41t-41.5 -34l-16 3 q0 34 3 52t23 28q0 14 22 48.5t22 49.5q-2 2 -12 2q-8 0 -14 -2q-9 0 -9 13q-3 15 21 20.5t24 10.5q0 6 -14 19l-18 2q0 7 13 9.5t15 5.5q-2 2 -4 9q0 8 1 11q-4 6 -7 6q13 17 41 20q14 0 26.5 1.5t18.5 2.5l178 341l9 -9q6 4 7 20q0 18 6 24q12 22 21.5 34.5t28.5 9.5 l-14 10q-3 3 -3 8q4 7 6 10l3 2l12 -15l12 19h4q-19 -62 -55 -132l-72 -144q-34 -70 -43 -106q-6 -32 -13 -41.5t-9 -17.5l3 -9l86 183l63 141q8 -4 14 6.5t9 17.5t8 16q0 27 11 46l30 45q20 -3 27 -35t17 -41q3 9 3 18t-2 17.5t-3 14.5l-5 27l4 16l15 -17l5 11q4 10 11 10z M548 661q4 -30 10 -59.5t16 -70.5t30 -89l3 6l-1 16v12q0 10 -2 18q-17 20 -27.5 80.5t-28.5 86.5zM463 635q-39 -42 -69 -117l-54 -139q9 20 22 42l30 51l6 -11l2 18q0 -7 -2 -9q-4 9 3 25l15 27h9q-3 6 -5 14q0 7 8 12l7 -9q3 24 15 57zM478 591l-60 -133l-66 -140 q11 -2 18 -3t21 -1q25 0 28 -1h56h22q11 0 31 -4l-2 -9q2 -3 10 -5l12 3q4 1 5.5 1t5.5 1l-39 151zM317 552l16 31l-2 2zM532 548v-22l33 -125q12 -50 39 -88l-39 139zM672 504l-13 18q34 -142 51 -191.5t46 -97.5zM287 491l5 -2l6 24zM608 422q0 -22 8 -41l21 -46l9 4 q-1 17 -6 27q-3 10 -14 13q5 11 -5.5 23.5t-12.5 19.5zM231 387l2 -2l11 26l-3 2zM220 366l-24 -42q6 4 13.5 20.5t10.5 21.5zM648 324q-2 -2 -2 -10q3 -4 4 -4.5t2 -0.5q5 3 3 9t-7 6zM507 305v-7h6l3 5zM364 276l-12 11q1 -9 -8 -10q-11 0 -11 -7l60 -10q50 -8 90 -8 q7 7 14 7q5 0 11 -7q6 3 19 0l20 -3q6 0 12 3q0 15 -3 20zM246 275h-5l3 -9zM763 224q0 -22 19.5 -51t21.5 -34zM404 185l-8 2l-4 -6zM483 181l16 -3l17 -3q8 0 16 6q-12 3 -24 3zM592 181l-18 2q-8 0 -13 -4l31 -7v9zM128 170q-16 -1 -18 -17.5t-18 -17.5l-46 -104 q16 9 41 58.5t53 49.5q13 0 24 -4q-1 5 -17 14.5t-19 20.5zM148 105h-6l-11 -14zM768 81l10 -13v7q-2 5 -3 6h-7zM465 611l-2 -8z" />
<glyph unicode="B" horiz-adv-x="764" d="M475 802q31 0 64 -10l98 -34q47 -33 63 -57t16 -48v-12q0 -48 -23.5 -68.5t-108.5 -74.5q8 -7 54 -25q45 -15 61 -31q-32 19 -63 30.5t-64 11.5l-7 -8q28 -7 50 -14.5t49.5 -20.5t62.5 -48q8 -12 13 -30l4 -34q0 -19 -1 -27.5t-7 -24.5q-6 -24 -22 -49 q-72 -88 -170.5 -142.5t-212.5 -69.5q-5 0 -12.5 9.5t-12.5 9.5q-8 -2 -10 -4l-9 -6q0 6 -9 6l-11 -4q2 -2 2 -8v-9l-50 -5h-24q-26 0 -57 3t-38 3.5t-24 4.5q-3 3 2 7l6 4q12 3 33 -6t30 -9q8 0 15 4q5 -6 11 -6q9 3 12 5l15 10h11q9 0 14 -1l21 -3q13 0 21 8l-31 3l-29 3 q-13 0 -21 -4l-13 18q-6 -6 -17 -10t-24 -4l-36 3l-32 4q-15 0 -20 -2q-10 0 -21 4l-21 9v9q5 3 34.5 9t35.5 26l-14 26q-5 9 -18 9l16 3q6 -3 8 -5l13 24q7 16 7 27q0 10 -5 19q11 0 14 15.5t6 18.5l6 -39q10 4 14 25l4 30l-6 1h-8q-6 0 -10 8l9 73q3 32 10 54l14 -31 l19 120q3 28 5 56.5t2 58.5l-7 -3l-26 -175l-3 17l-2 27v19t3 27.5t4.5 29.5t6.5 34l3 53q0 20 10 40l4 -10q3 -3 9 -3l2 16q0 12 2 17q-8 4 -15 4t-20 -4l-23 -4q-13 0 -21 8q5 9 15 19l25 21q-3 3 -12 -0.5t-14 -1.5q-5 15 10 15l11 9l-4 5l26 16q-2 2 -9 4 q-7 -3 -12.5 -5t-8.5 -3q-3 3 -3 9q44 20 96.5 27.5t108.5 7.5l92 -2zM37 31l8 -3l12 -1v-9l-13 3q-8 3 -7 10zM572 775q-23 0 -36.5 3t-23.5 4l-53 8q-15 0 -26 -4q49 -8 83 -15.5t72.5 -19.5t83.5 -54q5 -2 5 -13q0 -9 8 -9v13q-15 30 -44 50.5t-69 36.5zM182 775l19 -1 q5 0 7 12q-19 -3 -26 -11zM320 780l-4 -9l166 -23q93 -21 142 -80l-2 -2q15 0 22 -17l15 -31q6 3 6 15q0 13 2 15l5 6l4 -1q2 -4 4 -15q0 -12 -8 -23l-11 -13l7 1l6 4l7 19q3 8 5 20q0 16 -18 16q-2 -4 -8 -5q-6 1 -8 2l-6 3q-9 35 -40 53.5t-87 38.5q-4 -1 -12 -1 q-6 0 -17 3q-14 6 -28 15q-14 -3 -28 -3h-19q-15 3 -28.5 5t-19 2.5t-19.5 4.5l-18 -4q-8 2 -10 4zM280 766q7 1 11 2q8 0 11 6h-14q-5 0 -8 -8zM204 765h-4l4 -5v5zM136 747q7 -1 14 0q5 3 8 11q-7 0 -11 -2zM460 701l69 -40q29 -16 39.5 -42.5t10.5 -42.5q0 -21 -10 -34 q17 15 17 48q0 13 -2 23.5t-4 17.5q-17 26 -43.5 39t-76.5 31zM212 686l-15 -161l-16 -158l-23 -182h4l37 253zM300 683q-3 -20 -5.5 -38t-5.5 -36t-11 -35v-18q0 -21 -6 -67t-6 -68l1 -24l9 9l20 181zM341 682q-10 -26 -16.5 -62t-6.5 -82q0 -45 -2.5 -77.5t-7.5 -54.5 q8 -1 17.5 6.5t18.5 5.5l2 20l15 1l9 -3l5 26l19 1q10 0 15 -5q9 8 14 16l-14 10l9 7l17 -1h19q11 3 15 4l39 10q20 5 27 39l8 59l-7 -2q-30 39 -67 52.5t-66 19.5t-62 10zM156 602v18h-5zM215 438v51l-3 -53zM632 421q3 -8 24 -28l25 -20q-4 18 -17 30t-32 18zM696 373 l4 -35q3 -23 3 -40l-4 -35l17 66q0 28 -15 55.5t-42 33.5zM212 412q-7 -7 -7 -28l1 -17l2 -12zM510 399q45 -12 84.5 -45.5t46.5 -77.5l2 25q0 7 -1.5 16.5t-10.5 26t-44 34.5q-33 15 -77 21zM269 393h-4l4 -7v7zM308 390l5 -8q11 0 13 2q-6 2 -8.5 4t-9.5 2zM366 384l-5 -5 q19 0 38 -1t44.5 -4t57.5 -15l7 -12q3 -6 -2 -9q-16 7 -42 12.5t-58 5.5q-33 0 -52 2.5t-38 7.5l-14 -8q-12 -38 -18 -85l-4 -99l66 -3l47 -2q28 0 49 3t42 13q-12 -19 -54 -28q-41 -7 -49 -12l21 -1q36 0 73 12.5t83 36.5l27 50q1 4 2.5 8.5t1.5 12.5q0 9 -12.5 46 t-69.5 55.5t-141 18.5zM260 370q-6 -27 -18 -104l-18 -110h6q2 2 2 4l7 23q2 8 7 35.5t7 40.5l14 111h-7zM129 351q-7 -14 -7 -34l1 -16v-20q7 18 7 37zM733 334l-4 4l4 -9v5zM200 278q0 -9 -6 -32t-6 -31l7 63h5zM716 272h4v6h-4v-6zM611 213q5 3 9 13l11 22q-5 -3 -13 -15 zM685 222l11 24l-20 -31zM659 189l2 9l-11 -16zM103 182l-4 -13q7 3 9 5q-1 3 -2 4zM632 169h-4l-44 -35zM278 158v-8q5 -2 20 -4q5 0 15 -1h26l13 2l-16 5l-21 1h-19q-9 0 -18 5zM147 132l2 -9l7 9h-9zM340 130l-5 -20h9l3 4l1 7q1 6 -3 7zM313 127q-3 -12 -20 -12l-24 2 v-7l14 2l16 -1q12 0 15 -1q9 0 17 4l-3 6v7h-15zM438 58q30 9 59 24.5t61 40.5q-21 -7 -31 -11.5t-27 -14.5q-27 -13 -62 -39zM116 108l4 -5q15 -1 16 7q-4 5 -7 5q-6 0 -13 -7zM164 70l4 -12l52 -7q30 -3 54 -3l30 1l32 3l30 4q12 1 13 13q-13 -5 -32 -9t-38 -4 q-27 0 -72 7zM361 791l35 2q-4 -1 -14 0l-11 3q-6 0 -10 -5zM541 329q12 -12 18.5 -25.5t9.5 -23.5t3 -20q0 -9 -3 -18q-28 -33 -38.5 -42.5t-33.5 -13.5l44 35q15 15 15 33q0 26 -3 43q-1 14 -12 32z" />
<glyph unicode="C" horiz-adv-x="672" d="M531 769q23 -7 40 -15.5t42 -27t34 -53.5q-2 -4 -4 -19q0 -15 -2 -19q-9 -3 -15 -3q1 -2 1.5 -4t1.5 -5q0 -12 -10 -15l-11 6q3 8 5 11l-48 39q-31 27 -60 36q6 -10 50 -49.5t44 -71.5q-4 -4 -12 -2l-8 4q-6 -5 -8 -9l-31 20q-3 -9 6 -21t9 -19l-104 86q-18 12 -40 17.5 t-35 7.5t-29 2l-52 -4q-34 0 -59 -44.5t-57 -147.5q0 -108 12 -169t52.5 -93.5t73 -42t70.5 -9.5q75 0 132 33q19 17 35.5 29t26.5 18.5t30 16.5q0 -17 -7 -28l-25 -36l5 -8l-15 -16q9 -1 23.5 8t22.5 12l-4 -20q6 -3 13 1l13 11q3 -2 5 -13l-3 -16l-2 -11l-75 -70 q-26 -22 -66 -38l-9 14l42 26q-17 -5 -32 -9t-28.5 -8t-33.5 -18h17l15 3q10 0 14 -14q-69 -30 -154 -30q-50 0 -101 12t-94 36q-52 42 -84 91.5t-32 105.5l11 7q-15 63 -15 126q0 94 34 174.5t94.5 135.5t113.5 76t86.5 28t70.5 7q64 0 120 -22zM218 532l-11 -39 q0 14 2.5 22t8.5 17zM203 465q0 -10 -2 -16v-17q0 -40 9 -76.5t30 -76.5q-46 57 -46 129q0 27 9 57zM520 756l102 -72l-45 42q-30 24 -57 30zM356 701q37 0 73 -11.5t63 -31.5q-25 20 -53.5 33.5t-55.5 13.5h-16zM234 693q-14 -7 -21.5 -14.5t-12.5 -18.5q14 7 22 14t12 19z M536 627h9v7q-1 1 -6 1zM141 436q10 72 18 97.5t15 41.5t17 33q-33 -27 -39.5 -57.5t-8.5 -54.5t-2 -60zM376 772q14 -6 30 -6l31 3l28 3l16 -3l-70 12q-17 0 -35 -9zM123 467l-10 -52q0 -74 32 -136t93 -103v8q-115 118 -115 283zM135 632q56 58 108 94t113 43 q-93 -33 -172 -97t-100 -150l-16 -92l1 -18q0 87 9 134t57 86zM34 344q0 -45 12.5 -81t40.5 -83h8l-27 67zM588 220l14 8l-3 2zM30 228q4 -20 10 -40t17 -42.5t41 -46.5q-20 24 -38 59zM545 167q7 -1 14 3l12 10q-5 0 -12.5 -5.5t-13.5 -7.5zM255 171q4 -15 16 -19l21 -3v4 l-20 14q-7 4 -17 4zM98 136l-20 28l-3 -2zM543 149l17 9l-2 2zM323 144q-6 1 -9 2q-6 3 -8 -2q9 -9 16 -9l8 3q0 6 -7 6zM389 99q61 0 90 29q-14 -3 -27.5 -6t-31 -7.5t-31.5 -15.5zM128 110l-13 9l20 -14zM107 92q22 -32 57 -46q34 -11 103 -24q-22 0 -41 5t-41 18zM214 92 q20 -10 51 -18.5t56 -8.5q27 0 42 5q-2 2 -13 2l-13 -2q-8 0 -11 11q-18 -3 -36 -3q-41 0 -76 14zM175 81l-14 4l20 -13zM534 70l2 -2l4 7zM240 55l-37 11v-5zM345 18l21 2l27 -1q24 0 38 14q-11 -3 -43 -6q-27 0 -43 -9zM306 20l7 -4l13 4h-20zM54 520l2 11zM602 162l-7 2z M593 119l13 10z" />
<glyph unicode="D" horiz-adv-x="812" d="M216 775q13 10 23 10q11 0 21 -10q66 11 124 11q100 0 184 -30.5t148 -97.5q75 -98 75 -216q0 -24 -3 -48q-36 -151 -162.5 -264t-240 -129t-177.5 -16q-91 0 -177 16q-15 9 -15 16q2 5 4 7q10 0 25.5 5.5t21.5 5.5l-18 9q-15 9 -18 20l41 -2q3 8 -8 18q-8 10 -10 16 q2 7 4 9q7 0 9 -1l11 -7q5 3 6 5q-1 5 -15 11t-11 17h31q-6 4 -7.5 6t-1.5 4l7 8q6 6 7 14l54 457q-3 4 -17 5h-23q-3 17 22 22.5t25 24.5h-11q-7 0 -12 -1l-17 -2q-9 0 -17 6q3 11 23 11q22 0 27 5q-1 3 -2 5.5t-6.5 9.5t-14.5 7q0 7 22 10q19 0 19 20q-4 3 -16 5 q-5 0 -10.5 -1.5t-9.5 -2.5l-20 -3q-6 0 -12 3q6 9 39.5 14.5t42.5 26.5q3 -9 8 -9l8 4q5 3 11 5q7 -5 9 -9zM392 773l22 6h-16q-6 0 -6 -6zM444 773l-14 6l-6 -6h20zM265 762h12q6 0 11 4q-2 2 -10 2zM498 762v4l-14 2zM425 743q4 -13 30 -19l32 -10l-19 18l22 -7l28 -11 q-6 -3 -9 -7q8 -6 48 -26.5t51 -34.5l7 5l22 -19q18 -15 37.5 -45t38.5 -78.5t19 -97.5q0 -27 -9.5 -55.5t-22.5 -47.5q30 21 36 56l15 93l-6 21q-6 17 -17 17l7 16q-3 24 -12.5 41t-19 32t-18.5 29l8 -9q7 -8 1 -14q-5 8 -11 14.5t-23.5 25t-23.5 35.5q-55 35 -110 56 t-114 27zM211 746v-10q1 -5 11 -4l2 4v7q-4 3 -6 3h-7zM213 666h7l4 12q-3 6 -11 0q-6 -6 0 -12zM356 665v-7q72 -21 131.5 -65.5t100.5 -106.5q-24 69 -88 113.5t-144 65.5zM211 635l-27 -234q-9 -29 -16.5 -100.5t-23.5 -100.5q6 -4 7 -11l-2 -10q1 -2 2 -4.5t4 -4.5 l35 194l32 219q0 11 2 22l4 20q0 13 -17 10zM284 633q-6 -6 -6 -23q0 -12 3 -20q6 17 8 29q0 9 -5 14zM524 633l21 -25l32 -26q19 -19 15 -37q15 0 18.5 -11.5t28.5 -61t25 -83.5q0 -17 -1.5 -25.5t-9.5 -25.5q8 8 12.5 20.5t4.5 23.5q0 14 -5 35l-5 37q0 17 7 30l-18 6 q-3 21 -30 53l-29 35q-4 1 -6.5 13t-8.5 12q-3 4 -23 13t-28 17zM168 630l3 -8l1 8h-4zM196 630l-3 -12l-3 -13q0 -5 6 -8v33zM311 630l-14 -30q-3 -8 -3 -14t1 -9l-17 -138q-10 -74 -26 -126l-1 13v11q0 17 6 58t9.5 65.5t3.5 41.5l-32 -214l14 6v-12q0 -16 -1 -25t-6 -34 t-7 -38.5t-2 -25.5q10 37 22 115.5t19 119.5t11 60zM348 624l-25 -172l-33 -295q5 -5 14 -6l20 -1h9q39 0 70 5t79 23.5t104 66.5l20 65q11 36 11 64v15q-8 4 -12 14t-4 27q-27 79 -96.5 130.5t-156.5 63.5zM592 606v-9q8 0 14 2q-1 6 -14 7zM188 542h5v14h-5v-14zM132 342 l12 91q8 44 8 82zM166 387q-11 -12 -5 -23q0 9 2 14zM148 288h4l9 70zM222 215v-4l2 23zM513 170q37 10 50 43q-36 -25 -41 -30t-9 -13zM633 184l-97 -82q-20 0 -45 -24.5t-36 -28.5q51 19 99.5 54t78.5 81zM290 105v-11q67 0 112 8.5t82 35.5q-29 -10 -90 -20zM452 82 l-135 -45q23 0 41.5 2.5t48 8t45.5 34.5zM171 28h-24q-16 0 -24 2h-8l-7 -2q22 -11 54 -11l52 3l40 4v4h-83zM188 743v-11v11zM640 701l-9 4zM175 457l-3 -27zM281 220l3 18zM279 190l-5 -27zM211 166l2 11z" />
<glyph unicode="E" horiz-adv-x="628" d="M78 782l116 9l138 3l169 -2h69.5t34.5 -1l12 -13q6 -5 4 -16l-43 -12q-9 0 -16 7q-22 3 -50.5 5.5t-42.5 2.5l-100 2h-65q-6 -8 -8 -17q2 -6 4 -8l294 -11q3 -6 5 -16q0 -8 -18 -16q-18 -6 -18 -17l2 -9l-30 -5q9 -2 15 -13l12 -21l-138 3l-129 4l-10 -75l-3 -80l80 3 l76 3q35 0 58 -2.5t33 -4.5t33 -10q3 -11 -9 -17l-20 -3q-10 3 -22.5 5t-19.5 3l-48 2l-58 -2h-26.5t-24.5 -2q42 -9 93 -9q20 0 41 3l27 -4q25 -3 34 -12q-18 -3 -36 -3h-23q-22 3 -35 4l-59 4q-16 0 -30.5 -1.5t-34.5 -9.5q15 -2 45.5 -4t41.5 -2q65 0 82 -5l28 -3 q12 0 18 -6l-5 -18l3 -14q-10 0 -22 2t-34.5 11t-39.5 11l-14 -1l-78 -1q-36 0 -77 -9q0 -6 3 -12q4 -3 11 -5l141 -2q24 0 44.5 -2.5t54.5 -9.5q0 -15 -22 -15l-16 -1l-23 4l-28 1h-23q-22 -3 -35 -4l-55 -3h-18q-11 0 -27 4q-11 -24 -21 -89.5t-12 -69.5l4 -4l184 -5 q39 0 71.5 -5t83.5 -17l4 -11q3 -4 4 -7t2 -5q-2 -5 -4 -6q-63 29 -143 36l-193 7q-8 -4 -15 -11t-7 -17l18 -1h23l25 1h14l191 -11l7 9q13 -9 40 -21q29 -11 36 -17q-7 -3 -18 -23q-13 -19 -22 -19q-5 0 -14.5 4.5t-13.5 4.5l-1 -3l17 -13l-10 -17q-3 -6 -14 -3l-29 4v-23 q-10 3 -27.5 8t-55 12.5t-72.5 7.5h-36l-35 1q-62 0 -115 -5.5t-97 -23.5q-15 5 -15 20q1 10 2 14l2 14l25 154l23 202l24 200l-38 13q-3 18 14.5 27t19.5 21q-1 8 -2 12.5t-9 8t-5 12.5q9 1 18.5 9.5t15.5 20.5q0 8 -9 11l-16 6l11 9q-2 2 -9 4l-9 1v6zM150 17l41 5 q23 3 39 3q-6 -16 -32 -16l-21 1l-13 1h-9l-5 -2v8zM85 11q6 9 20 9l14 -1q10 0 15 -2q-7 -8 -21 -10zM311 22l55 -7q18 0 33 -2.5t31 -7.5l-2 -5l-122 11zM365 709q-5 -6 -15 -6l-22 2q-14 0 -19 -15q21 -2 32.5 -3t36.5 -1l46 -1h15h15h12h37l38 1h10q-8 -2 -21 4.5 t-23 8.5q-7 0 -12 -4q-14 4 -31.5 6.5t-40.5 2.5q-16 0 -32.5 1t-25.5 4zM264 699q-10 3 -11 -9h11v9zM509 670l-209 7l-5 -4zM237 621l-9 -139q15 44 21.5 73t6.5 55l-1 18v9q-6 2 -10 -5t-5.5 -9t-2.5 -2zM170 632q0 -57 -6 -118t-20 -134l-50 -271l41 181l29 173 q4 36 7 81.5t3 87.5h-4zM118 630h-7l-9 -148zM197 619l-5 9l5 -14v5zM147 576l-2 11l2 -18v7zM219 441l-2 -22h7l-1 14q0 5 -4 8zM214 388h-4l4 -7v7zM203 345l-13 -57q-6 -29 -6 -47q0 -9 2 -17q2 12 3.5 20.5t8 36.5t6.5 43q0 16 -1 21zM284 98q56 -9 117 -9l61 3l-3 5 q-38 8 -88 8q-51 0 -87 -7zM91 103l-20 -20q5 -9 12 -9q3 1 5 1q5 4 7 5l13 7q8 -2 10 -4q-3 -3 -4.5 -3.5t-3.5 -1.5q-3 -6 1 -15l7 -12q2 3 4.5 4t4.5 2q9 -3 13 -5l11 -4l7 3q0 9 -11.5 12t-14.5 9q3 18 -9 19l-21 -2q-10 0 -11 14zM255 97l-38 1q-8 0 -11 -12 q0 -9 -3 -14l55 4l-12 5zM270 76l14 -11l4 5q4 4 3 8q-5 2 -10 -1t-11 -1zM486 58v4l-49 5l-3 -2zM253 767q-6 -3 -9 -12q-2 -7 2 -13h9q7 1 9 2.5t2 8.5q2 6 -1.5 10.5t-11.5 3.5zM172 737q13 -3 14 6l-3 17q4 5 7 5q-12 0 -15 -9zM158 745l-1 4l1 -9v5zM150 630l-3 -33z M94 415l2 15zM314 78l17 -2z" />
<glyph unicode="F" horiz-adv-x="684" d="M261 810l196 -6q48 0 80 -4t97 -15l15 -17q4 -6 -1 -14q-11 -3 -21 -3q-15 0 -26.5 3t-17 4t-17.5 5l-80 9q-11 0 -14 -4l111 -20l-33 -3q9 -6 26 -9l32 -2v7q4 -7 19.5 -12t20.5 -12l-5 -7q-32 9 -73.5 17.5t-101.5 17.5t-141 9l-9 -9l28 -13q10 -2 126 -13 q49 0 89 -7.5t73 -19.5l3 -2q-6 -6 -18 -6l-24 2q-6 0 -14 -3l22 -22l-9 -2q-11 1 -15 2l-14 2q-11 0 -11 -15q-21 6 -51 10.5t-59 4.5l-121 7l-6 -5l47 -7q26 0 42 -4q-21 0 -39 2q-10 0 -16.5 0.5t-10.5 1.5q-16 0 -22 -1q-11 -30 -16 -79l-5 -90l36 -5l40 -1l46 1h16 t16 1h13h22t25 -2q19 0 43 -8l-83 -3q-64 0 -88 -3v-5q14 -3 28.5 -5t22.5 -3l54 -2h35l36 1h9q0 -21 -8 -29t-23 -8q-10 0 -22.5 3t-20.5 5l-48 8q-14 0 -23 -4q-8 0 -13 -2l-13 -4q12 -9 34 -9l28 1q14 0 21 2q17 0 21 -2q6 0 16 -7l1 -7q-14 -3 -27 -3q-7 0 -20.5 1 t-42.5 5.5t-42 4.5q-9 -3 -20 -3q-14 0 -27 2q-7 0 -11.5 0.5t-7.5 1.5q-20 0 -34 -9q8 -8 29 -11l39 -1l138 -6v-9q-2 -4 -11 -5l-12 3l-11 5l-54 2q-36 0 -42 2h-23q-10 0 -29 -4q11 -2 28.5 -4.5t29.5 -2.5l70 -2l90 -11q3 -3 5 -10l-1 -15l-17 2l-18 1q-21 0 -36 -3 l35 -7q10 -2 22 -8q-6 -6 -21 -8l-26 4l-23 4q-1 1 -19 4.5t-28 6.5l-50 4l-26 -1l-48 -4q-4 -7 -6 -12.5t-5 -12.5l-8 -45l3 -14q0 6 -3 9q-3 -3 -5 -12l3 -15l4 -13q-1 -7 -2 -9q0 -30 -16 -89t-16 -80q-3 -12 -12.5 -16.5t-25.5 -6.5l-16 1q-8 0 -14 2l48 304l-23 -21 l-45 -283q-6 0 -10.5 5t-9.5 17q3 2 5 9v9l-9 9l-9 -18q-2 -6 -2 -24q-6 -1 -13 0q-5 3 -4 8l32 178l-4 7q-28 -90 -48 -198q0 -5 -9 -5l-12 1l-9 13q26 99 40 214l23 280l15 229q20 11 45 16l59 10q3 9 -3 12.5t-17 1.5q-10 -3 -39 -6q-25 0 -43 -5q20 14 72 23zM438 790 l-92 11v-7zM292 797l6 -7l3 7h-9zM438 770l-81 7l-25 -5zM301 774q-13 0 -14 -4h14v4zM286 743q6 -6 12 2l-1 5q-8 3 -12 -1q-3 -5 1 -6zM127 723l3 -6l13 2q14 0 13 13q-18 0 -29 -9zM283 670l-9 -16q0 -28 -6 -85l-6 -65q0 -16 1 -21l14 98q6 51 6 89zM143 663l-17 -235 q8 19 15 83.5t11 73.5v38v11q0 6 -2 14q0 9 -7 15zM247 649l-10 3q-8 -29 -16 -81l-5 -90h16zM317 461l-1 -5l7 -1q7 0 9 2q-4 3 -7 3zM221 452h-9l4 -15l5 1v14zM417 334l-23 7v-4zM234 307l-24 -140l28 136zM212 136l-5 7q0 -17 -10 -51l-10 -46q0 -9 3 -21zM237 665l9 -2 zM127 625l3 29zM126 561l-3 -13zM350 423l-13 2z" />
<glyph unicode="G" horiz-adv-x="752" d="M579 774q1 -1 2.5 -2t3.5 -1q4 2 5 3l-11 13q45 -17 83 -50t42 -75l-8 -3q-5 -1 -5 -7q-23 0 -45.5 36.5t-47 53.5t-61 32t-73.5 15l-18 -1q70 -7 133.5 -53.5t84.5 -110.5q-12 -3 -22 9l-16 27q-35 34 -72 56.5t-82 34.5l-9 10l-13 -13q29 -11 58 -25.5t64.5 -38 t55.5 -73.5q-9 0 -27 15q-14 15 -28 10l6 -14q-7 3 -35 30q-24 26 -42 33q-5 0 -20 6q-12 7 -19 3l58 -45q33 -29 44 -57l-7 -1h-4q-13 0 -37.5 26.5t-40.5 31.5q-31 18 -68 30t-73 12q-29 0 -51 -6.5t-45 -24.5q-63 -95 -63 -212l12 51q0 -15 -2 -23v-16q0 -87 36.5 -160.5 t111.5 -121.5q44 -33 106 -33q33 0 62 10l14 96q2 19 5 44.5t5 36.5l-8 8h-177q12 7 36 7h21l26 1q9 2 18 9q-15 5 -32 5l-21 -1q-16 0 -21 -1h-16l-11 4l8 15q20 3 44 3l34 -1l35 -1q28 0 49 3t39 15q-14 0 -25 2.5t-26 9.5q-3 -6 -7 -7l-16 7q-4 -4 -4 -8l-17 1l-13 1h-35 h-16l-19 4q3 12 10 15t20 5l25 -1q9 1 13 2q0 6 -11.5 12.5t-20.5 4.5h43l44 1q46 0 80 -7q8 10 32 10t31 11l-234 13l10 10l133 6l179 22q1 -2 2.5 -6t1.5 -7l-11 -7q-2 -5 -2 -8q11 -8 11 -23q0 -9 -7 -29l-7 -24q-26 -68 -36 -184l-10 -124q-5 -4 -8 -5t-5 -2l-9 46 q0 32 -16 52l2 99q-13 -46 -13 -102l3 -50q2 -18 3 -26t5 -21q-17 -11 -23 -30q-9 0 -14 27q-3 26 -20 22l-4 -22l-4 -35l-14 6q-8 4 -16 1q-6 -3 -6 -9q1 -6 2 -8v-7q-6 1 -9.5 16.5t-11.5 19.5l-36 -17l12 -8q-6 -7 -33 -15q-26 -6 -28 -8l41 -3q-25 -8 -48 -12t-52 -4 q-61 0 -120.5 21.5t-118 73t-84.5 141t-26 199.5q6 37 19 75t34 77q8 5 25.5 28.5t25.5 32.5t45 42.5t118.5 71.5t160.5 38q12 0 27 -0.5t38 -6t36.5 -10t32.5 -14.5zM283 748q9 3 16 5t25 9t30 22q-19 -3 -40 -12.5t-31 -23.5zM171 672l3 -2l84 62q-19 0 -47 -23zM98 457 q-3 -17 -5 -33t-2 -35q0 -82 37 -151.5t76.5 -97.5t61.5 -41t47.5 -25t60.5 -12q32 0 62 18l-16 1l-21 -1l-21 -1h-12q-73 8 -138.5 58.5t-89.5 118.5l4 -2q-19 30 -26.5 58t-10.5 50t-3 41q0 34 4 61.5t19.5 76.5t48.5 98q-41 -26 -57.5 -102.5t-18.5 -79.5zM180 580 q-13 -28 -23 -72q-3 -20 -5 -39.5t-2 -40.5zM42 493l-8 -21l-4 -21q1 -7 2 -9zM53 469q-5 -19 -8 -41t-3 -45q0 -20 3 -40l1 68q0 17 1 26.5t6 31.5zM486 432q8 -3 21 -3q9 0 9 5q-8 3 -18 3q-9 0 -12 -5zM531 432q5 -3 11 -3q9 1 14 2l13 3h-19q-14 0 -19 -2zM590 343 q-9 -26 -14 -64l-3 -87q1 1 2.5 1.5t2.5 1.5l20 148h-8zM578 340h-12l-18 -67q-4 -22 -4.5 -35t-0.5 -21q0 -26 5 -39l6 8zM163 339q-3 -6 -3 -12q0 -9 5.5 -26t5.5 -24q10 -10 26.5 -39.5t37.5 -32.5q-23 26 -38.5 55.5t-33.5 78.5zM45 321q0 -42 15.5 -81t45.5 -75 q-27 44 -41.5 79.5t-19.5 76.5zM250 188l21 -20v5l-10 8q-4 6 -11 7zM566 161q2 -5 3 -7l6 -2q6 11 4 21q-6 3 -9 -2zM121 165q16 -30 46 -54.5t63 -36.5q-10 6 -18 12t-21 17zM552 152h-4l-5 -14h7zM578 136h-5v-7zM423 40q11 0 15 7zM309 26l34 -5l33 -2q23 0 37 5l-29 2 h-25h-50z" />
<glyph unicode="H" horiz-adv-x="876" d="M760 791q5 -5 12 -7q3 1 6 3t9.5 9.5t13.5 9.5q7 -4 10 -6q0 -36 -4.5 -63.5t-21.5 -112.5l-34 -193q-2 -1 -6.5 -1.5t-10.5 -3.5l15 -24l-20 -182l-6 -167l8 14l6 137q6 68 34 212l-10 -194l-10 -186q-3 -6 -11 -7q-3 1 -5.5 1.5t-11.5 6t-16 6.5q-5 0 -11 -11l-8 -9 q-4 -6 -11 -5l-6 37l-2 42l7 101l7 101l11 62l4 42q0 15 -3 32q-6 -1 -11 -15q-2 -13 -5 -15l4 -4l-12 -16l-14 -135l-10 -152q0 -48 4 -80l-6 -2l-6 1q-3 11 -12 21.5t-12 19.5q-2 -2 -7 -25q-3 -21 -17 -25h-8h-10l-20 -2q-10 0 -14 2l1 13v10v27q0 25 3 43t17 32l-10 20 l24 204l-9 6l-21 1l-24 1q-56 0 -125 -12l-111 -20q-20 -36 -30 -98l-17 -108q-3 -20 -5 -36.5t-6 -28.5q-3 -18 -15 -39l-25 11l-14 -25l-17 14q0 35 21 118.5t21 114.5l-3 34q-20 -23 -20 -75q0 -53 -11 -74l-18 -78q-6 -32 -21 -55q-2 3 -10 5l-15 -2q-2 1 -4.5 2t-5.5 4 q0 22 7 68l7 66q0 15 -3 30l-11 -16l-26 -156h-9q-3 5 -3 11l4 13q-4 6 -8 8q-5 0 -7.5 -13t-7.5 -13l-9 3l-2 18q12 10 18 17l-12 16l43 220l41 260q10 -5 10 -22l-1 -17q0 -10 -2 -16q0 -65 -24 -169.5t-32 -151.5t-8 -76q20 62 39 158l30 147q1 8 6 36.5t5 48.5 q0 34 17 54q-3 14 -5 28.5t-2 31.5l4 67l4 67q0 16 -1 21q-8 -25 -14 -80l-11 -107q-9 -2 -15 -2l15 147l2 66q9 12 28 12q16 0 21 -1l9 -7q6 4 10 10t14 3l6 -25l2 -27l-1 -31v-12q0 -6 -2 -20q0 -21 4 -36q3 8 6 26q0 14 4 26h16q0 -39 -13 -121t-13 -102q10 4 13 32 q0 12 2 22t4 14l31 254q5 4 7.5 4t4.5 -5l6 -15l2 -16l-1 -21q0 -12 -2 -20q0 -14 5 -23q6 11 9 39q0 27 11 44l11 -11l1 13l14 -13l-38 -276l14 -13q31 9 152 20l124 10l11 15q3 32 7 72.5t10.5 80.5t16.5 74t21 35v-44q5 2 10.5 26.5t24.5 21.5q0 -48 -20 -154l-19 -113 l4 -7q1 4 10.5 10.5t9.5 12.5q-1 3 -1.5 5.5t-5.5 6.5l22 141q9 56 33 103l7 -3q0 -45 -5 -76t-14 -76.5t-25 -116.5l17 -14q13 6 19 18t6 28l-1 20q0 14 -2 22l20 116q7 3 8 10q0 18 -2 28q6 16 9 35zM229 793q3 3 5.5 4t4.5 2q6 0 9 -9t3 -21l-4 -64q-9 3 -15 12 q-2 7 -4 24l1 26v10t1 5q0 8 -1 11zM831 791l8 -11q0 -64 -20 -153l-44 -201h-6l25 172zM488 493q6 2 14 -1q9 -3 10 2l-9 3l-9 4q-6 -4 -6 -8zM705 497l-10 3q-5 -4 -5 -7l2 -14q0 -8 -6 -10q2 -4 10 -8q5 0 10 9l4 14zM523 481q-42 0 -78 -4t-66 -13l18 -2q15 0 36 4l35 4 l15 -1l22 -1q17 0 22 -1q23 0 36 10l-15 6l-13 7q-6 0 -12 -9zM355 488q-4 -2 -30 -7q-21 0 -28 -12l20 -1h28q11 3 24 5t51 15h-65zM576 475q-3 -2 -5 -10q3 -6 5 -8l9 7q-4 4 -4 6q0 5 -5 5zM216 457v-20q3 2 5 9q-1 5 -2 6l1 5h-4zM207 416l12 6q-2 4 -8 1zM571 422 q-117 0 -178.5 -10t-108.5 -29l16 -2q15 0 44 7l40 8q14 0 18 -2q6 0 16 -7l156 14l-7 4l11 11zM207 372v-9h9q2 2 2.5 3.5t0.5 2.5q-7 0 -12 3zM598 229q-8 -29 -15 -68l-12 -75q9 -5 11 -22v-12q0 -12 3 -18zM219 635l-3 -15zM210 561l1 26zM604 257l-1 -12z" />
<glyph unicode="I" horiz-adv-x="340" d="M254 781l8 4q6 5 12 3q3 -14 3 -27q0 -14 -4 -37l-3 -33v-16l4 -12q13 16 13 61q0 44 18 62q6 -5 8.5 -9.5t9.5 -4.5q0 -98 -15 -227l-28 -245l-6 -145q-6 -62 -24 -121h-9l17 125q3 29 5 57.5t2 57.5l-11 -16l-27 -238l-15 -15q-6 3 -6 15q0 10 -5 14q-8 0 -10 -13 t-9 -16q0 17 6 59t9.5 69.5t3.5 38.5q-16 -28 -24 -78l-9 -71l-4 -3q0 37 4 79t13 88l36 188q18 96 18 167q0 21 2 40.5t11 74t9 86.5q0 17 -3 38zM162 784l18 2q14 0 19 -15l18 15l10 -15l9 9l-44 -375l-54 -395l-10 -14q-4 -3 -10 0l11 83l4 82h-9q-5 -18 -15 -76.5 t-20 -88.5q-7 -1 -11 -2q-5 -3 -11 0q0 57 13 170l14 154l-5 -5l-50 -323q-9 -3 -13 5q-3 6 0 15l33 204l31 278l34 279l12 8q4 2 8 1l-5 -46q0 -19 -8 -31l1 -16l1 -18q0 -13 -1 -32.5t-4 -45.5l-4 -54l11 18zM173 775q0 -11 -6 -34l-5 -29q0 -9 6 -20q0 7 6 30l7 30 q0 14 -8 23zM314 665l-5 27l-6 -106zM195 628l-7 2q-7 -24 -15 -93t-16 -101l11 9zM148 595l-16 -112q-3 -24 -3 -58zM263 595l-1 -13q0 -9 -2 -15q0 -6 5 -10l2 23q0 11 -4 15zM291 509l-2 9l2 -14v5zM283 449q0 -20 -7 -54l-7 -55l1 -18l10 53l4 53q0 16 -1 21zM124 404 l-2 -14z" />
<glyph unicode="J" horiz-adv-x="557" d="M486 781l16 -9q4 -14 7 -51l4 -43q4 4 10 27.5t8 26.5q0 -80 -11 -142l-32 -181l-37 -212q-13 -97 -90 -217.5t-198 -209.5q13 18 86 86.5t85 113.5q58 88 90.5 194t50.5 235l33 245l-46 -222q-29 -161 -55 -252.5t-77 -179.5l-40 -53l-14 7q-4 -5 -4 -7v-9q-4 7 -17 7 q-7 0 -10 2q-2 -2 -1 -14q3 -8 15 -8q9 2 15 2q-6 -5 -42.5 -53t-68.5 -48q-23 -25 -50.5 -42.5t-65.5 -35.5q2 8 29 23.5t24 32.5q-24 -21 -43 -30.5t-29.5 -13t-28.5 -7.5q8 12 38 30.5t34 22.5q-3 3 -8 4q-7 -3 -10.5 -5.5t-10.5 -4.5l23 19q8 6 20 7q7 -1 9 -2q5 0 7 6 t-1 10q56 46 89.5 109t41.5 132l10 -2l4 15q0 6 -4 11l29 148q4 -10 13 -7l24 118q5 24 7 37t7 59h-20l13 85l16 87q-5 8 -19 14q-9 2 -28 4l-26 -1l-24 -1h-12l-13 1h-10q-16 0 -35 -3t-57.5 -14t-66.5 -11l-14 1l-12 1q20 18 46.5 22.5t44 6.5t38.5 2l40 6l47 2h56h19h20 l12 2l-10 10h-74h-55t-63 -4q-20 0 -37.5 -2.5t-61.5 -13.5q30 24 87 33l163 15q10 0 15 -2h18h12q8 0 17.5 2.5t20.5 9.5q-47 6 -92 6t-62.5 -1.5t-60.5 -7.5t-111 -23q3 7 7 11t0 7l7 6q1 1 2 7l-14 7q3 5 18.5 8.5t16.5 10.5l-3 8h-36q59 24 134.5 36t157.5 12 q58 0 82 -1.5t72 -6.5zM296 422h5l-6 -92q0 -18 -4.5 -33.5t-14.5 -33.5q0 29 6 74zM156 -199l2 -3l-24 -24zM267 752l110 -5l-28 5l-28 1l-27 -1h-27zM403 752v-9l48 -2l-25 6zM176 747q0 -6 5 -6l20 4zM140 739l25 -7q0 8 -17 11zM491 734h-5v-13h5v13zM419 698h-8l8 -6v6 zM408 667l23 -5q0 6 -10 6zM401 652l7 -8v5q-4 3 -7 3zM408 605l-30 -163l-32 -194l-32 -166l44 159l23 110q5 28 8 59.5t3 64.5q1 4 4.5 25.5t6.5 38.5zM348 595l-21 -60q-3 -14 -5 -27.5t-2 -28.5q0 -16 1 -21zM469 533l-5 -13l4 1l3 3q-1 7 -2 9zM473 761v4l-42 4z M312 285l-3 -17l-2 -13l3 -9zM270 178l2 32l-5 -34zM263 125h4v10h-4v-10zM257 97v-6l2 14zM270 87l-29 -97l19 55q3 8 6 20.5t4 21.5zM283 -52q42 47 59 110q-10 -13 -16 -23t-10 -17zM497 761h-11l14 -2zM176 -137l2 10z" />
<glyph unicode="K" horiz-adv-x="764" d="M300 783l-57 -383l7 -10q74 61 138 154l108 155q13 29 25 49.5t33 20.5v-12q0 -37 -42 -99l-45 -69l-158 -201q0 -18 9 -18l52 58q50 54 54 72t8.5 28t15.5 2v16q50 47 86 116l59 112q7 -4 7 -11q0 -5 -3 -13q-9 -6 -10 -17l3 -9l-40 -76q20 20 49.5 70.5t37.5 61.5h12 q3 -6 -2 -15.5t-5 -16.5q7 0 18 18t23 21l-7 -32q-48 -58 -95 -143l2 -5q22 26 39 48.5t36.5 52t36.5 75.5l-6 -3q6 3 9 3q5 0 7 6h7q-6 -24 -28 -65l-26 -49q15 17 34 47l40 69q9 0 10 -13l-1 -8q-1 -6 -2 -8l-42 -67q-20 -31 -48 -53l-5 14q-33 -31 -104 -119t-109 -124 q47 -89 124.5 -170.5t169.5 -130.5q1 -3 2.5 -5t9.5 -9t6 -18q-11 -12 -22 -12q-8 0 -32 21q-20 20 -31 23q-4 -10 9 -24q15 -12 15 -19l-3 -9q-81 47 -155 129t-134 181q0 -30 12 -50.5t85 -110.5l198 -206l-6 -6q-67 33 -130 98l-102 106q6 -22 24 -45l52 -58 q12 -8 18.5 -13t15.5 -12t10 -23q10 -10 46 -29q35 -15 45 -35q-5 -3 -10 -3q-9 0 -29 10l-24 10q-7 0 -8 -10l3 -16l-29 15q0 -7 14.5 -16.5t11.5 -21.5q-57 20 -114 80l-110 118l-124 183l-56 -315l-9 -8q-3 15 -3.5 21t-0.5 21q0 19 1 30t6 41.5t7 48.5t2 34t-1 21 q-4 -13 -13 -54t-22 -105t-14 -67q-5 -2 -7 -2.5t-3 -0.5q-5 0 -13 6q-4 5 -7 15q27 126 27 253q-4 -15 -13 -60t-16 -79l-21 -115l-6 -8l-3 19.5t-1 19.5q0 8 1 22t5.5 43.5t4.5 42.5q0 12 -3 27l-25 -98l-16 -81q-22 5 -22 28q0 8 4 26.5t2 29.5q-5 -6 -11.5 -39 t-18.5 -42l38 233l42 279q21 142 32 196.5t13 56.5q4 0 5 -1l-29 -151l-32 -227l-38 -250l5 -4q21 61 42 222.5t43 220.5q0 51 5 84.5t10 55t14 51.5q11 -13 11 -33q0 -14 -2 -20l-3 -18l-44 -287q3 -4 3 -8q0 -5 6 -8q19 43 34 178.5t36 188.5q5 -6 8 -16t3 -22 q0 -19 -5 -47l-4 -36l-54 -374l23 29l71 473l5 4q4 -11 5.5 -17.5t1.5 -9.5l2 -30q0 -26 -7 -75l-7 -70h5l36 209q0 -46 -15.5 -158.5t-15.5 -145.5l54 311zM636 632q5 -16 -17 -38l-26 -28q3 18 18 36zM569 546l-33 -36l31 39zM439 578l4 11q-5 -3 -6 -5q-3 -5 2 -6z M232 453h5v28h-5v-28zM280 345h6q5 2 9 7q3 6 0 9q-15 0 -15 -16zM368 318l1 3l-14 14l-1 -3zM95 251l8 76l-10 -78zM295 314q57 -90 107.5 -152.5t111.5 -103.5l-94 112q-47 60 -79 112q-4 12 -12 18.5t-20 6.5l11 14q-2 3 -5 4t-4 2q-8 -2 -10 -4zM414 550l-43 -47 q-15 -18 -20 -40l42 50q18 21 21 37zM590 49l-9 4z" />
<glyph unicode="L" horiz-adv-x="624" d="M339 801l14 -45q2 3 3 7.5t2 8.5q0 15 10 16q5 -5 5 -25q-8 0 -14 -2l19 -21l-37 -283q-18 -147 -18 -263l9 -9l100 6l92 7h24h9t24 -4l7 -11q-3 -6 -10 -6l-17 3q-6 0 -11 -8q3 -3 25 -8q21 -3 21 -13q0 -7 -5 -15l-8 -7l-75 6l-86 1h-24l31 -7l35 -2h33q32 0 49.5 -3.5 t36.5 -19.5q0 -15 -18 -18t-15 -18l-98 -10q8 -8 46 -8q39 0 39 -22l-3 -12q-8 -13 -28 -13l-13 1l-14 1q-9 5 -25.5 9t-30.5 4l-31 -1q-20 0 -31 -2q-16 0 -29.5 3t-26.5 13l-25 -11q-11 -3 -24 -3q-22 0 -39 14l-11 -14l-76 -9l-76 -4q-17 0 -22 1h-12q-3 17 7 23l19 4 l18 -1q12 0 19 -2q14 0 23 12l5 -5q2 11 -16 11q-17 0 -23 10l14 15q-2 3 -10 4h-13q-6 0 -9 5q-3 19 22 22.5t26 17.5l-1 11q-6 6 -12 8.5t-3 12.5l14 5q10 3 11 11l24 167l29 212l10 172l-1 13l-1 18q0 18 11 26q8 0 12 -10l6 -14l20 25q12 -21 12 -51q0 -17 -6 -54 t-6 -56q-12 -64 -26 -226l-15 -187l10 9l23 170l24 206l21 194q3 9 11 10q6 -3 6 -5l10 -10l6 10l9 -10l5 16q8 -6 16.5 2t17.5 5zM291 715h5l3 34zM310 726q-7 -9 -7 -28l1 -11l1 -8zM300 665q-12 -59 -19 -126t-7 -130zM260 606l-5 -9q8 -13 19 -8l-4 10q0 8 -10 7z M326 537q0 -5 -1 -16.5t-4 -27.5l-5 -40v-12zM310 393l-35 -199l10 -9q0 15 3 37.5t13 79t10 73.5zM260 303l4 63l-9 -85zM244 217l3 -2l4 54l-3 2zM477 95l23 -11l20 -4q9 0 14 5q-11 7 -29 7zM142 77v-11q3 -6 5 -8q30 0 49 23l-23 2q-14 0 -31 -6zM194 61q11 3 23 3 q17 -2 25 -7q-9 -9 -21 -9l-17 3l-17 3q-13 -2 -18 -5zM251 61l-3 -4h9.5t4.5 1q-8 0 -11 3zM332 58l3 3l-25 2zM285 765v-18v18zM314 756l-2 -14zM167 509l2 20zM165 489l-2 -14zM314 412l2 22zM235 325l-2 -11zM221 224l12 79zM140 262l-2 -27zM436 58l-25 5z" />
<glyph unicode="M" horiz-adv-x="1108" d="M299 782q9 -16 21 -33l-2 26q0 9 5 14q8 -3 15.5 -19.5t10.5 -18.5l-2 29l2 -3l20 3l50 -191l51 -178l62 -173l9 -11l6 6l-38 128q-12 41 -30 73l-45 171l-39 133q11 -25 24 -62.5t26 -79.5l51 -169q24 -82 54 -147q-4 -15 9 -22l79 112l68 110l84 150q13 29 24.5 49 t19.5 34l37 67l12 2h10q6 -6 6 -18l-2 -27q0 -10 5 -16q10 7 10 27l-1 18v16q11 3 19.5 -1.5t17.5 -15.5q5 0 8 6l7 15q13 -5 13 -26q0 -18 7 -27l-6 -139l-5 -125q-8 -3 -17.5 0.5t-10.5 14.5l1 7l3 25l1 48l-3 69l-11 -12v-200v-201l2 -198l-6 -10q-8 6 -16 6 q-11 0 -18 -11q-8 39 -16 115l-10 110l-7 1l-6 236l-7 7q-19 -22 -69.5 -104.5t-58.5 -93.5l16 7q-44 -84 -84 -142t-92 -105q-3 2 -5 10q2 8 4 12l4 12q-4 6 -6 8q-13 -18 -22 -27t-16.5 -14.5t-14.5 -9.5q-2 2 -10 18q-5 15 -14 18v-44q-7 0 -14 14.5t-16 17.5l-5 -31 q-11 -1 -20 10l-13 24l-70 204l-64 196q-17 -54 -47 -194.5t-52 -210.5q-6 3 -8 12l3 21q0 7 -2 11l-20 -44q-8 -3 -20 9q-9 12 -14 13q-3 -1 -5.5 -3t-6.5 -8l3 -12l11 -14q5 0 7 2q3 4 8 -2q-1 -11 -13 -17l-22 -6q-2 3 -0.5 9.5t-2.5 10.5q-2 -2 -4 -4.5t-5.5 -12.5 t-11.5 -12l-8 3l53 210l45 244l-40 -146l-38 -167l-39 -150q-10 -3 -15.5 -7t-13.5 -2l-1 17q0 25 15 68t26 107.5t62 279.5l57 248l9 -6q2 18 3.5 25.5t5 26t23.5 27.5q7 -4 10 -8.5t10 -4.5l7 13l20 -7q0 13 15 13q6 0 14 -6zM1001 782q7 0 9 -15q0 -13 13 -14l7 27 q6 -12 9 -24t3 -32l-1 -28l-1 -28l-10 -14l-2 -185l-2 -134l4 -165q0 -35 3 -56t16 -89l-9 -9q-8 4 -13 24q0 16 -4 22q-6 -6 -6 -25t-5 -25q-7 11 -13 43q-4 30 -12 45q-4 -10 -4 -20q0 -13 2 -25l3 -21q0 -21 -20 -25l-11 27l-9 130l-2 147v139h20q11 0 15 -7q0 61 10 180 zM1049 661l-1 -122l-1 -121l6 -201q0 -41 6.5 -80.5t20.5 -94.5q1 -4 -2.5 -9.5t-10.5 -5.5l-20 140l-5 159l3 183zM864 181l18 -172q-15 2 -15 26t-3 30v116zM149 33l2 -8h-7zM270 668q-3 -8 -3 -16q0 -18 8 -22q0 12 6 24l-4 9q0 5 -7 5zM864 661q-14 -14 -36 -68.5 t-32 -67.5l-32 -48q-18 -30 -18 -52l34 62l46 81l38 67l5 15q0 6 -5 11zM243 760l-4 -39q0 -12 2 -17.5t9 -14.5l1 21q0 14 2 22q0 18 -10 28zM301 657l-5 -12q14 0 15 5zM223 641l-3 -31q0 -12 8 -17l4 4l1 24q0 14 -10 20zM314 601q8 -45 18 -81t28 -68q-2 16 -14 51 t-12 56q0 10 2 18q0 9 -9 15l-10.5 7t-2.5 2zM217 589l-31 -169l-37 -175l42 178q0 28 16 87t16 79h-6zM902 581q-8 -6 -10 -15q0 -9 10 -13l-1 -117l-1 -121l2 -143q0 -22 3.5 -51.5t9.5 -67.5l-4 248l-3 199l11 13q-11 6 -11 28q0 16 1 21q0 15 -7 19zM747 368l57 80 q32 49 47 92zM299 529q25 -131 55.5 -234.5t76.5 -181.5l-53 160l-49 145l-26 111h-4zM248 527h-5q-2 -2 -1 -14q4 -4 6 -8v22zM235 478l-53 -266l31 139zM977 421v-101h6v22l1 24q-1 15 -1 21v10q0 12 -6 24zM607 221l4 -3l44 68l48 80l24 32q7 11 5 21q-21 -29 -53.5 -84 t-47 -78t-24.5 -36zM697 412l-2 5l2 -9v4zM667 364l1 -3l11 23zM743 359l-20 -24q-8 -11 -4 -20zM446 313q2 -9 24 -61t22 -71l-26 59zM629 302h-5l-30 -51zM986 273l-5 7l2 -29zM723 276q-3 -5 -8 -12t-9.5 -13.5t-6.5 -17.5l15 23q6 10 9 20zM587 233l2 14l-15 -33z M875 760l-70 -152l-93 -171l81 139q29 49 51 95t35 85zM445 169q6 -30 17 -39q3 18 -7 37l-20 40q6 -11 10 -38zM673 205l-23 -35q-20 -28 -26 -44q16 14 27 35zM283 753l2 -44l5 -6q3 11 3 21q0 18 -10 29zM184 145q-3 -9 -5 -14q-4 -8 0 -14zM340 694q6 -54 28 -129 l47 -171q6 -8 9 -32q0 -22 11 -31l-37 159q-28 127 -58 204zM864 212l3 -7z" />
<glyph unicode="N" horiz-adv-x="876" d="M180 800q15 3 35.5 -15.5t31.5 -20.5l10 3q0 6 -10 12q-7 6 -9 12l12 1q13 0 25.5 -7t25.5 -20l13 -26l113 -98q62 -58 90 -113l122 -153q9 17 13 53l9 66v-15l-4 -52l-4 -52l1 -15q10 21 17 54l5 70q0 23 6 73l6 56l-1 14l-1 13q-8 -19 -14 -59l-7 -67l4 128 q0 34 2.5 51.5t8.5 44.5t12 33q5 3 14 5q2 -9 4 -25t2 -35q0 -44 5 -60q13 11 13 33l-1 9l1 17l-1 24q0 17 1.5 22.5t7.5 14.5q6 2 12 -9t15 -11l4 16q3 15 15 15l1 -12q0 -12 -1.5 -19t-6 -25t-6.5 -28t-2 -20l-9 -65q-3 -25 -15 -46l3 -15l1 -14q0 -11 -4 -35l-3 -39 l1 -18h6q2 3 7 55t33 64q0 -79 -11 -164l-22 -188l-11 -159q7 12 11.5 31.5t4.5 44.5q0 47 8 105l17 147l26 202l20 171q-3 6 -14 3l-28 -184q-4 6 -1 9q-3 3 -9 1l-11 -9v-6l39 213q6 -9 15 -9q16 0 26 2l8 -32l-32 -218l-25 -243l-29 -223q0 -17 -9 -27t-30 -25h-4l1 31 l1 17q0 29 -3 49q0 11 -3.5 22t-6.5 19l-4 -5l-7 -129q0 -8 -11 -11q-12 0 -19 -2l-22 21q0 -13 -10 -17q-9 -3 -18 0q-8 43 -45.5 106t-45.5 84q-12 0 -12 -10t7 -18l18 -32q8 -12 11 -30q-60 118 -123 210t-150 183l-11 -21l-62 -463q-6 -3 -16 6l40 219l34 275l-11 -22 q-14 -58 -25 -148l-19 -170q-9 -88 -20 -117l-12 -33h-7l-6 15q-2 -2 -3.5 -5.5t-2.5 -8.5q0 -12 -12 -14l8 72l-6 -3l-5 -1q-7 0 -12 8l-6 22l-2 2q-6 -3 -9 -20q-1 -14 -12 -17q-3 -5 -3 -11q0 -7 4 -18l4 -17q0 -9 -14 -10l-18 -17l-4 6q0 35 15.5 132t15.5 128 q-14 -19 -14 -59t-8 -56l-22 -117q-11 3 -22 13l-15 15l57 256q21 128 21 251l5 20l1 19q0 19 -2 34l-1 24l-50 32q-14 11 -20 27l70 -39q3 3 4 10q-1 6 -2 8.5t-1.5 5t-6.5 8t-21 13.5t-21 18l26 -7l26 -4q6 9 -3.5 17.5t-9.5 14.5l9 -4q6 7 9 16.5t14 7.5q3 -7 16 -13 l19 -7v18q3 -3 8 0t5 9zM147 61l-6 -49h-11q-3 6 -3 12q0 8 3 17.5t11 19.5h6zM17 26l9 -2q0 -5 -3 -14l-6 -10q-4 6 -4 15q0 7 4 11zM39 26q3 -2 5 -2h8q5 0 5 -8q1 -12 -7 -13q-9 -4 -13 9zM152 730l-5 5l5 -9v4zM309 726l28 -28q8 -6 12.5 -9t18.5 -11q-31 37 -37 42.5 t-22 5.5zM689 724q3 -8 3 -13q0 -7 -4 -19l-3 -18l1 -9v27zM247 698l-2 -19q0 -9 4 -10l1 19q-2 8 -3 10zM208 683q-4 -2 -5 -3q0 -5 1 -6h4v9zM327 663q0 -10 8 -18l18 -14q-3 19 -26 32zM245 648v-13l4 5q-2 6 -4 8zM143 646l-13 -154l2 -4l11 65q3 24 3 56q0 19 -3 37z M193 637l-12 -4q-2 -5 -1 -9l6 7l13 -14q6 3 6 15q-5 8 -12 5zM405 637l26 -26q-3 8 -9.5 16.5t-16.5 9.5zM717 631q-6 -8 -6 -19q0 -9 6 -14v33zM303 622l-4 -24l75 -77l55 -64h8q2 2 4 9q-1 1 -3 5.5t-7 9.5l-11 15q-21 6 -32.5 20.5t-18.5 24.5t-18 29q7 -5 11 -10.5 t11 -4.5zM420 557l-43 54l-2 -2l43 -54zM195 598l-30 -223l1 -21q0 -23 -4 -45t-7 -35l-10 -68q18 54 24 96l20 152q12 111 17 111q7 -4 9 -6t4.5 -2.5t5.5 -1.5q0 -34 -7 -92t-29 -179t-22 -171q4 26 11.5 64t19.5 86l33 155q5 28 8 61.5t3 64.5l-21 30q-11 -4 -17 9 q-3 15 -9 15zM485 548l-15 18l15 -22v4zM713 540v19l-7 -19h7zM394 405l-108 123l-2 -6q32 -29 82 -95l63 -78l-15 33q-9 20 -11 34zM498 528l62 -114l68 -104l5 24l-65 103q-33 54 -70 91zM440 453l147 -238q2 5 4 15q0 8 -12 25.5t-12 28.5l-75 121q-24 42 -29 42l-12 -2 q-5 4 -5 8h-6zM444 352q-2 -4 -4 -13q0 -21 15 -24q6 5 6 11q0 7 -4 12.5t-13 13.5zM472 312l2 3l-6 10l-3 -2zM132 306h-4l2 -9zM641 306l-2 -20q0 -13 9 -15v13q0 15 -7 22zM634 224l5 -18l2 2q1 4 0 10q-2 6 -7 6zM678 208v-24l2 5q0 7 -0.5 11.5t-1.5 7.5zM606 202h-6 q-1 -2 -1.5 -4t-1.5 -5q0 -5 2.5 -11t9.5 -13zM673 167q-7 -19 -7 -34q0 -14 7 -49l8 -50l-1 -18h6l-5 28l-1 31v36l-1 31q0 11 -6 25zM219 748q0 14 -18 26l-21 17zM182 50l-2 2l2 -6v4zM141 767q1 -4 8.5 -10t17.5 -9q0 6 -11.5 11.5t-14.5 7.5zM147 674v9v-9zM128 427 l-3 -11zM691 730l2 11z" />
<glyph unicode="O" horiz-adv-x="824" d="M374 787q54 14 105 14q82 0 150.5 -33.5t100 -81t44.5 -85t13 -74.5l-1 -24q6 -26 6 -51q0 -41 -11.5 -81.5t-34.5 -85.5q2 -3 4 -12q0 -10 -7 -21l-11 -21l-101 -124q-65 -70 -132 -82q74 45 140.5 112t109.5 146l-8 2q17 55 24.5 92.5t10.5 64.5t3 54q0 16 -1 32.5 t-5 41t-16 51.5l-25 27v-19q-5 0 -8 -4q0 -6 7 -7h8t6 -1q20 -68 20 -139q0 -112 -48.5 -210.5t-139.5 -170.5l-104 -61q-41 -20 -91 -28q-3 9 -9 9q-7 -4 -10.5 -7.5t-8.5 -2.5l-84 10l17 -17q-82 0 -147 64.5t-93 128.5t-28 117q0 29 4 72l4 71l26 85q13 43 46 70 q-18 -43 -32 -79t-19.5 -56t-8.5 -41t-3 -42q0 -61 10 -110t44 -118.5t126 -114.5q-82 63 -123 154.5t-41 196.5v25l5 49q21 107 114 199t203 116zM546 774l-38 1q-19 0 -27 2q-25 0 -43 -7q20 3 39 3q61 0 111 -22.5t98 -67.5q-18 36 -52 54.5t-88 36.5zM283 736 q3 -12 -15 -21q-18 -6 -18 -21l67 40q14 8 21 13t29 23l-46 -13q-21 -6 -38 -21zM374 699q-81 0 -133 -100l-43 -96q-13 -59 -13 -106q0 -70 23.5 -127.5t74.5 -93.5q6 -9 18 -9q9 0 9 9q-35 25 -65 67q-25 39 -41 88q-6 36 -6 72q0 56 15 104.5t49 90.5q-19 -45 -32.5 -100 t-13.5 -100q0 -48 12 -89.5t64 -99.5t155 -58h12q42 0 73.5 31.5t70 97t38.5 159.5q0 98 -54 178l-16 12q-10 11 -21 6l-22 15q-7 5 -8 17q-2 -1 -4 -1.5t-5 -1.5q-6 0 -20.5 15t-22.5 15l-4 -11q-13 0 -19.5 1.5t-28.5 8.5t-30 7zM623 669l-1 -10q0 -15 20 -42t21 -36 l-4 -13q0 -9 10 -10q15 -41 15 -96q0 -43 -5.5 -73t-9 -43.5t-12.5 -37.5q19 33 28 78t9 97l1 21q0 32 -23 81.5t-26 75.5q-6 -4 -14 1zM204 667q-50 -46 -79.5 -112.5t-29.5 -134.5q0 -56 21 -112q-4 18 -7 41t-3 44q0 73 25.5 138.5t72.5 135.5zM130 467q-3 -16 -5 -32 t-2 -34q0 -45 12 -90t37 -88q-44 94 -44 202v26zM690 317l-90 -120q-3 -5 -18 -11.5t-12 -19.5q41 18 68 55.5t52 95.5zM635 281l3 -2l8 12l-2 3zM149 207q15 -45 55.5 -77.5t91.5 -41.5v4q-8 3 -14.5 6t-18.5 9.5t-14.5 14.5t-9.5 6l-6 -2q-21 11 -42 35zM243 147l23 -17 q0 7 -8 11zM420 78q2 -2 9 -4l8 3q6 3 14 1l36 12q18 9 27 24l-51 -18zM321 84q0 -11 15 -13q14 0 25 7zM269 19l-15 8v-8h15zM424 663q44 0 79.5 -14t52.5 -49q21 -15 33 -48l25 -61l4 -54q0 -75 -27.5 -140.5t-82.5 -113.5q32 20 51 67l37 92q3 18 5 36.5t2 40.5 q0 57 -18 108.5t-55 89.5q-9 6 -22.5 12.5t-31.5 13.5zM212 176l-10 13zM357 155l-9 3z" />
<glyph unicode="P" horiz-adv-x="700" d="M114 781l100 13l97 5q114 0 201.5 -33t119.5 -81.5t37 -71.5q1 -11 2.5 -20.5t1.5 -24.5q-4 0 -6 2q-5 -5 -4 -11q16 -5 16 -26v-13q-3 -10 -4 -14l-4 -23q-18 -84 -115 -129l-168 -69l-26 -4l37 12l-67 -4q-38 -3 -61 -11q16 -7 26 -7q11 0 29 5l32 5l-39 -12l-30 -2 l-16 1q-6 -3 -6 -10l1 -10q3 -3 14 -4q3 11 17 14l26 3q11 -3 21 -3q16 0 46 12l39 15l59 25l64 25q-22 -24 -41 -33t-48.5 -20t-61.5 -23l-136 -33q-6 -23 -13 -97t-14 -103l-6 4q0 31 7 95l8 95q-6 -17 -11.5 -62.5t-8.5 -54.5l-4 -25v-8t-1 -6v-14q0 -24 -5 -37 q-6 9 -18 9l-23 -3q-10 0 -16 11l-22 -13l-5 31q-9 -3 -11 -19.5t-10 -22.5l-11 11l38 220l31 215l11 199h-8l-88 -618q-2 -6 -14 -12q-12 -4 -14 -8l12 56q-10 -3 -14 -26q0 -10 -2 -18t-4 -12q-6 12 -6 24q0 9 3 21l5 20q0 58 1.5 79t6.5 58l26 177l23 165q11 -1 14 9 l5 27l6 38q0 10 -4 18q-6 -10 -9 -24l-6 -42h-5v28l3 19q0 6 -3 15q-3 3 -8 0q-3 -3 -7 1q-6 10 8.5 19.5t11.5 18.5l-26 1q-2 12 13 18t16 13l-29 2q3 2 8 6t14 9t15 16q-7 3 -12.5 -0.5t-9 -4.5t-6.5 -2q28 20 82 28l102 11q-14 11 -40 11l-11 -1l-9 -1l-109 -13v4zM151 9 v-9h-13q0 5 2.5 7t10.5 2zM181 738q-9 0 -15 -2q5 0 8.5 0.5t6.5 1.5zM443 729l81 -36q48 -25 71 -57q-16 38 -51.5 56t-100.5 37zM210 727q-3 -8 8 -8q6 0 9 4zM325 690l-4 -11l89 -19q48 -17 84 -51t42 -80l1 8v6q0 18 -2 24q0 9 -3 21q-29 54 -77 72t-130 30zM131 685 l4 -10l5 9zM495 660q48 -27 63 -79.5t15 -123.5q10 28 10 60q0 34 -10 57q-10 31 -28.5 54t-49.5 32zM244 653l-10 -75q-3 -32 -3 -57q0 -18 3 -38l21 157l-3 9q-4 4 -8 4zM314 651l-26 -164q-6 -47 -6 -113h41h13q41 0 79 5t73 23q5 15 7 24.5t5.5 28t4.5 26.5t1 26 q0 10 -1 22t-10.5 44.5t-41 44t-139.5 33.5zM201 592q-2 -6 -4.5 -18t-4.5 -25.5t-2 -31.5v-16l2 -13l12 80q0 12 -3 24zM619 573l-4 10l4 -17v7zM543 455l4 48l-20 -78zM229 413l2 52l-8 -56zM223 385h4v13h-4v-13zM177 363l2 29l-4 -31zM105 361h5v9h-5v-9zM275 320l4 -9 q46 0 98 13l54 16q-25 -8 -71 -13zM205 124q-14 -40 -14 -76l1 -15l7 18q2 9 3 15t1 18v22q0 12 2 18zM164 749q12 -3 28 6q-5 3 -11 3q-14 0 -17 -9zM386 740l-28 2zM207 651l-2 -14zM203 597l2 28zM105 340l-4 -23zM168 292l3 13z" />
<glyph unicode="Q" horiz-adv-x="900" d="M102 610q61 95 160.5 148.5t209.5 53.5q68 0 137 -24v14q82 0 147.5 -72.5t99.5 -166.5q12 -48 12 -97q0 -156 -111 -266l-10 9l-13 -16q-11 -13 -7 -26l134 -174v-18q-7 5 -11.5 9.5t-12.5 6.5q-6 -9 3 -23t5 -21l-27 8l3 -8q3 -8 0 -12q-12 7 -28 35t-32 35 q0 -17 27 -48t27 -55q-9 -5 -25 11q-13 15 -25 12q-2 -11 7.5 -27.5t11.5 -23.5q0 -7 -4 -12l-19 12q0 -12 -8 -12l-28 7q-26 27 -62 77l-75 107l-92 -48q-37 -17 -76 -27q-115 0 -205.5 38t-141.5 127q-20 48 -33 106t-13 119q0 36 4 69t17.5 78.5t53.5 94.5zM447 766 l29 -5q11 -1 14 -13q0 6 8 6l11 -1q6 0 7 4q-10 2 -15 3.5t-13 4.5l-21 4q-8 0 -20 -3zM654 770q69 -49 125 -115q26 -38 40 -89.5t14 -104.5q0 -57 -14.5 -116t-41.5 -105q36 52 52 118.5t16 148.5q-12 86 -63 160.5t-128 102.5zM309 761l7 -9l8 8q3 3 3 8zM267 752 q-95 -69 -153 -157.5t-58 -188.5l3 -10q0 31 6 61.5t26.5 80t65 103.5t73.5 76q27 18 37 35zM402 737q63 -11 113 -34t94 -67q42 -33 64 -94.5t22 -128.5q0 -70 -19 -128q16 32 22 79l5 103l14 17l-16 3q0 17 -2.5 29t-9.5 29l-26 58q-41 62 -111 98t-150 36zM616 688 l-33 16l51 -36zM135 419q0 -86 40.5 -160.5t117.5 -109.5l-71 78l3 -12q-3 -5 -5 -6q-12 16 -25 50l-29 75q-8 23 -12 44.5t-4 49.5q0 66 27 129t52.5 91.5t41 35t16.5 17.5q-69 -35 -111.5 -102.5t-42.5 -149.5l1 -17zM449 694q-25 10 -45 10q-42 0 -62 -14.5t-34.5 -26.5 t-31.5 -27q-30 -31 -45.5 -80t-15.5 -104q0 -51 12 -102.5t33 -95.5q30 -49 77 -76.5t108 -39.5q21 8 27.5 11t15 7.5t19.5 19.5l-56 81q-19 29 -32 66q1 6 2 7q3 3 8 0q15 -12 39.5 -53t41.5 -55q2 14 -12.5 30t-16.5 22t-15 27t-13 32q0 10 7 18q23 -20 58.5 -69.5 t49.5 -65.5q-6 22 -25 50l-36 48q2 8 -4 18l-11 24q0 7 8 12q10 -7 19 -21l17 -24q14 -7 38 -37l27 -32l-42 64q-23 40 -23 70q8 0 15 -8l12 -10v8q11 -9 18.5 -17.5t18.5 -23.5l29 -37q22 46 22 96q0 51 -20 101t-42.5 77t-31.5 35t-26.5 20t-98.5 54q34 0 53.5 -10.5 t33.5 -19.5t42 -30q42 -39 69.5 -94t36.5 -113l3 10l1 10q0 14 -8 31q-5 16 -7 30l3 17q-18 24 -30 54q2 5 4 7l5 7q-4 5 -7 6l-3 -9q-75 84 -179 115zM220 699l2 -9l12 1q5 0 8 3l-10 3q-8 0 -12 2zM696 670q5 -19 25.5 -52t25.5 -55q-5 38 -17 64q-10 27 -34 43zM717 541 l-8 16l-2 -16h10zM122 548l-13 -14l20 -4l-2 13q-3 5 -5 5zM757 510q0 -77 -15.5 -143t-52.5 -122q26 12 36.5 53.5t17.5 51.5q8 6 12.5 42.5t27.5 36.5q-20 3 -20 39q0 16 -2 27.5t-4 14.5zM621 294l-51 62l51 -73v11zM149 188q42 -66 111 -105q16 0 49.5 -15.5t51.5 -15.5 l15 1q-35 13 -59.5 22t-43 18.5t-38.5 27.5q-5 2 -14 17.5t-21 15.5l-62 86q-31 46 -31 88q0 -74 42 -140zM647 280l2 -2l5 12h-5zM631 258h5l3 3l2 2q-9 3 -10 -5zM752 247q-2 -7 -17 -23.5t-12 -27.5l18 22q14 17 11 29zM614 237l-5 -10h7q-1 8 -2 10zM578 205l3 -16h7 q0 7 2 11q-8 2 -12 5zM805 33l-91 128l-5 -9zM687 127q4 -11 16 -26q12 -12 20 -16zM160 109l42 -42l59 -33q14 -8 29 -11t30 -3q-40 6 -81 34zM285 107q31 -28 75 -28q10 0 18 2q-17 0 -54 13zM687 98q5 -16 20.5 -36t31.5 -33l-28 39q-10 17 -24 30zM565 85l-229 -56 q32 -10 60 -10q18 0 32.5 2t35.5 8t46.5 17t54.5 28v11zM419 74l-5 -5q5 1 6 2zM623 49l64 -87h12l-3 -9q4 -5 9 -7.5t7 -8.5l-3 -8l14 -20q9 -16 20 -15q-17 53 -46.5 93.5t-73.5 61.5zM723 13l-6 12l-3 -2zM354 674q2 2 8 2h12h-11zM525 739l13 -8zM82 260v-17v17z M369 129l9 -2z" />
<glyph unicode="R" horiz-adv-x="716" d="M521 773q44 -19 72 -41q30 -21 56.5 -62.5t26.5 -103.5l-17 -9l10 -12q9 -10 16 -3q3 -9 3 -21q0 -18 -12 -30l-17 -9q6 -21 -15 -40l-33 -31h-6l21 22q8 8 7 17q-38 -37 -75 -61.5t-87 -50.5q19 -44 68 -93l55 -56h9q-3 15 -33.5 39.5t-39.5 42.5l59 -58q53 -52 91 -67 v-9q-8 3 -13 6t-12 1q-6 -9 6 -26q13 -14 10 -25l-34 20q-1 -10 20.5 -19.5t18.5 -24.5l-24 6q-17 17 -98.5 86.5t-120.5 131.5l-9 -9q-3 13 -19 35l-20 30l-4 -4q26 -57 72 -112q45 -50 89 -89l125 -95q0 -8 -13 -10t-8 -16q-31 6 -75 43l-96 80l-30 36q-11 15 -26 24 q0 -15 10 -32q11 -15 36 -42l70 -62l94 -70v-9q-68 17 -124.5 59.5t-92 81t-55 64.5t-34.5 52l-56 98q-4 -15 -13 -67t-14.5 -94.5t-12 -81.5t-12.5 -62h-4l2 16v18v10q-6 -6 -15 -32q-6 -23 -9 -28q-3 12 -20 12q-11 0 -17 -12q0 11 0.5 16t5 23.5t6.5 35.5l-1 12l-40 -95 l-2.5 7.5t-1.5 8.5q0 13 -3 18q-4 -4 -23 -15t-20 -26q-10 2 -18 0q-5 -1 -19 -9q-2 5 -2.5 6.5t-0.5 3.5q0 8 7 16l17 19q-6 7 -10 10l27 174l17 145l8 159h15q1 7 1 11q0 5 -5 8h-9l2 18l1 18q0 18 -9 27q-2 -2 -10 -4h-10q2 3 4.5 6.5t13.5 12.5t12 14q0 6 -22 9 q-3 6 0 10l13 10l3 2l-13 11l21 11q8 5 3 15q-2 1 -4 1.5t-5 1.5l-33 -7q0 11 24 17q24 3 19 21h-25q71 38 148 38l24 -1q22 3 44 5t46 2h33t47 -4q17 0 40.5 -4t52.5 -10zM123 745q4 -1 14 -1q3 0 15 2.5t22 11.5l-13 -2q-11 0 -17 2q-17 0 -21 -13zM239 734q2 -8 3 -10 q3 -3 9 0q8 1 5 13q0 6 -7 7q-11 0 -10 -10zM482 738q76 -50 113 -85.5t37 -87.5q0 -13 -3 -27l4 3q3 18 3 35q0 30 -9 57q-32 51 -69 79.5t-83 28.5zM200 737h-9l3 -18l6 2v16zM226 734l-3 3l3 -9v6zM407 737l96 -41q-17 15 -42.5 28t-53.5 13zM180 725l-4 9l3 -15z M482 682q-31 22 -66 34t-66 12q-19 0 -31 -4q49 -6 90.5 -17t81.5 -35zM200 697l7 -4q1 -1 5 -2l5 5zM310 681h-7l7 -5v5zM243 676l2 -7q4 5 5 7h-7zM331 676l11 -8q-5 -3 -24 -3q-17 0 -26 -6l-21 -190v-12l-2 -26v-14.5t-1 -10.5q0 -20 4 -32.5t16 -22.5l-9 34q1 3 3 4 t3 2q7 -4 11.5 -8t9.5 -4l43 -85q24 -44 56 -70q-54 73 -91 161l5 5q6 -6 10 -11l-5 32q0 5 3 11q9 -3 25 -29t20 -29q0 8 -3.5 16.5t-9.5 17.5q-6 8 0 12q4 3 16 5q3 10 6.5 12t10.5 4l16 -6l18 -5q8 0 17 9q29 17 51 44.5t22 59.5l-3 25q-1 14 -40 47l-40 36l43 -21 q21 -10 36 -30q15 -12 21 -28t6 -35q0 -23 -5.5 -40.5t-16.5 -36.5l-39 -48l45 33q12 8 18 22t6 31q0 11 -4 35l-3 37q-24 56 -81.5 86t-127.5 30zM191 672v-13q12 3 9 10q-6 3 -9 3zM497 669l30 -29q26 -23 32 -37q0 16 -10 27t-52 39zM243 654q0 -85 -9 -175l-19 -153 l-35 -199l52 271q18 126 18 256h-7zM219 648q0 -76 -23.5 -241t-23.5 -218q54 216 54 459h-7zM198 635l-7 9l-2 -123zM129 541l4 -42q3 5 5 19q0 11 -3 23h-6zM642 534l4 -5l4 3q-4 2 -8 2zM568 443l11 20l-20 -28zM103 280q-5 -58 -23 -149l-18 -106q13 27 21.5 54.5 t13.5 56.5l13 161q0 50 5 89t14 75zM426 402l5 -6q6 0 12 4t9 11zM383 396l8 -13v6q0 6 -8 7zM471 357l13 9l-19 -9h6zM347 233l-28 53l-3 -2zM407 247l2 2l-9 9l-2 -2zM167 168q0 -4 -1 -9zM587 77l22 -13q18 -10 24 -17q-10 0 -24 13q-12 14 -22 17zM152 725l-6 3zM95 389 l1 13z" />
<glyph unicode="S" horiz-adv-x="652" d="M434 798q57 0 106.5 -24.5t82.5 -66.5v-9q-10 0 -26 16q-14 17 -25 18q6 -34 33 -63l-1 -30l-13 13l1 -30q-12 0 -22.5 16t-19.5 18l-10 -3q4 -7 13.5 -14.5t10.5 -14.5l-3 -7q-5 0 -16 14t-25 14q-18 21 -32 30.5t-33 9.5q9 -11 50.5 -39.5t41.5 -57.5l-3 -17q-6 6 -8 7 t-3 2v-24q-21 43 -60.5 69.5t-102.5 51.5l-23 -3l-25 -1h-30q-19 -6 -29.5 -13.5t-13.5 -25.5q0 -50 33 -76q31 -22 110 -65q-7 8 -55 37.5t-58 59.5q31 -41 113.5 -87.5t115.5 -70.5t45 -61l10 -39q0 -7 -4 -22l-3 -23q0 -6 3 -15l15 36l6 -10q3 -6 3 -18l-1 -15 q0 -8 -2 -14q0 -87 -66.5 -149.5t-157.5 -96.5q-16 -3 -34 -5t-37 -2q-153 0 -250 115q0 10 -7 24.5t-6 23.5q9 -5 14 5.5t6.5 12l2.5 2.5q-22 25 -22 56l1 12l11 16q4 -7 11 -28q1 -7 4 -19.5t9 -30t42 -54.5t78 -52l5 2q-39 16 -57 38.5t-71 101.5v15h7q23 -57 72 -102 q49 -41 112 -61l29 -5l30 -2q64 0 106 32q-21 -4 -45.5 -7t-43.5 -3q-57 0 -107.5 18t-70.5 38l-42 50q-21 27 -23 45q1 8 2 12q0 11 -8 27l-7 24q0 8 10 17q3 -21 9 -34t38 -66q0 13 -4 26q-3 16 -11 27l23 -23l3 2l17 -17q1 10 -5 28.5t-8 32.5l47 -86q20 -36 54 -54 q16 -11 38.5 -16.5t40.5 -5.5h21q12 3 26 5t21.5 5t12.5 4q18 12 23.5 17t5.5 19q0 11 -4 12l-25 -29l15 44l4 32q0 18 -18.5 55t-119.5 87.5t-114 61.5q13 -14 106.5 -71.5t111.5 -90t18 -55.5l-3 -16q-9 74 -84 122l-134 70q-73 46 -82 124q12 2 12 14l-3 9q-11 13 -11 31 q0 12 1 18t7 22l16 44l19 25q0 -8 -7.5 -28.5t-9.5 -34.5q0 -10 4 -18l43 70l-9 9q4 11 12 13q2 -1 4.5 -2t9 -5.5t14.5 -6.5q7 3 9 5l-11 11q3 5 21.5 15.5t21.5 22.5q-6 3 -18.5 -6t-21.5 -9q44 35 105.5 51.5t125.5 16.5zM569 367q5 0 11 -6q2 -4 2 -15q-3 -3 -5 -3 l-5 -1zM266 753l2 -2l15 9l-2 2zM434 749h-5l5 -4v4zM491 730l53 -37q24 -18 43 -40q-31 42 -49.5 56.5t-46.5 20.5zM328 715q3 -4 12 -6h17v6l-20 4q-7 -2 -9 -4zM379 711q3 -4 13 -7l19 -2h10l-19 7q-8 3 -14 3zM203 666q-8 -4 -16 -18l-10 -22l19 22q9 9 7 18zM196 567 l-6 36l6 -41v5zM126 594l-4 -10l-1 -17q0 -31 9.5 -54t33.5 -40q-23 23 -28.5 44t-7.5 37.5t-2 39.5zM175 575l-2 -13q18 -60 79 -100l120 -65q64 -33 93 -80q-3 13 -12 25.5t-24 29.5l-159 95q-62 40 -95 108zM459 416l5 -2l-17 11zM493 378q28 -40 28 -86l-1 -11l-1 -9h4 q3 14 3 29q0 47 -33 77zM357 769q53 0 99.5 -9t91.5 -30q-27 21 -64 33.5t-75 12.5q-28 0 -52 -7zM468 282l-3 -18q3 -4 5 -5q3 5 3 14t-5 9zM556 259l-23 -70q9 9 14 25zM357 124l-1 -7l12 -1q11 0 22.5 3.5t25.5 10.5q53 37 75.5 57.5t22.5 58.5q-14 -47 -53 -73.5 t-104 -48.5zM527 181l-31 -44q-24 -36 -49 -45l-5 4l28 59l-38 -36q-3 -9 -5 -14l-4 -14q0 -5 9 -10q-19 -10 -41 -20t-42 -18q-41 -13 -83 -13q-14 -3 -25 -3q-47 0 -81 20l-96 66q42 -50 97.5 -71.5t123.5 -21.5q79 0 147 45t95 116zM173 597l2 12zM211 70l-23 11z" />
<glyph unicode="T" horiz-adv-x="632" d="M71 767q164 35 328 35l95 -3l99 -10q0 -7 8 -18t8 -20l-20 -1q-7 0 -21 1t-34 4l-52 5q-4 -3 -14 -4l-19 1q-17 0 -17 -17l154 -14q-3 -9 4 -14l14 -7q-8 -5 -12 -13.5t-2 -17.5q-6 -2 -16 1t-15 3h-7l37 -20q0 -9 -10 -12l-17 -4l-137 11l-14 -20l-12 -201l-25 -216 q-12 -108 -12 -196q-6 -6 -17 -7q-13 0 -24 15l-5 -16q-3 -11 -15 -8l-6 40l-2 48q0 38 1 57.5t7 78.5l9 126l40 286q0 7 -18 7l-33 -258l-17 -173l-8 -204q-4 -7 -11 -7l-8 2q-2 14 -4 21q0 8 -9 13q-9 -15 -19 -25t-27 -9l-11 4l-7 5q-5 -5 -7 -9q-8 0 -12 7t-6 20 q0 68 5 133.5t18 152.5l45 311l-9 9l-65 -10l-65 -13l-31 8q-4 2 -5 11l3 8q-5 0 -11 3q0 5 16 10t15 21l-20 14l6 9l207 36q-3 7 -7 11q-31 0 -59.5 -1t-65.5 -5t-79 -21q-6 8 3.5 14.5t10.5 10.5q-4 3 -5 4.5t-1 2.5q4 5 8 7t4 7zM414 753q-4 -8 -5 -9q3 -4 5 -4l2 2 q0 6 -1 10q-1 0 -1 1zM323 740q10 -3 11 11q-5 3 -11 -2q-4 -4 0 -9zM350 751v-11h12v8q-8 3 -12 3zM430 712q12 -5 29 -5q11 0 23 3l-21 6l-14 2q-8 0 -17 -6zM226 715q-8 -3 -14.5 -4t-19.5 -1l-21 1q-16 0 -22 1q-21 0 -32 -5q-12 -3 -21 -19l68 3q22 2 33 4.5t31 9.5v7z M402 694l8 -6l1 6h-9zM427 692v-7l39 -3l32 -2q12 0 23 3zM187 672l34 6q-4 3 -17 0zM169 672l-12 1q-13 0 -18 -2q-8 0 -33 -11l54 4zM90 640h10q6 2 6 7q-2 3 -11 2q-5 -3 -5 -9zM237 631l-21 -146l-15 -126l25 141q5 33 8 67t3 64zM291 599l-4 29l-5 -43zM274 515l1 -3 l3 28l-3 2zM364 411l-16 -130l-5 -113zM342 155v-19l1 3zM342 96v18h-5zM226 66l-3 2l3 -11v9zM280 556l2 23zM239 245l-5 -49zM334 55l3 25z" />
<glyph unicode="U" horiz-adv-x="744" d="M240 797l7 -12q3 -3 10 1q5 -8 5 -20q0 -9 -2 -17v-6.5t-1 -4.5q0 -10 4 -18q6 0 6 16q0 14 7 20l4 -37q0 -14 -1.5 -30.5t-9.5 -48.5l-12 -63l-4 36l-25 -162q-13 -91 -13 -147v-32v-16q3 -16 4 -26q6 2 6 11v15q14 -53 34 -87.5t60 -45.5q41 0 60.5 5.5t33.5 29.5 q42 56 63 120.5t30 124.5l22 178q0 65 4 104q0 37 20 80q6 -5 10 -17t4 -24l-1 -20v-14q0 -10 2 -19l8 17l3 -4q10 13 10 43q0 31 9 42q6 0 9 -7l5 -14q0 -14 -3 -26t-4.5 -24l-2.5 -20q0 -13 4 -24q5 18 10 46.5t5 36v12.5l-1 18q6 -3 12.5 3.5t12.5 3.5q0 -51 -1.5 -71.5 t-6.5 -70.5l-11 -124q5 2 7 4l7 9q0 45 11 117l11 120l1 -14v-23q0 -11 3 -20q3 8 6 33q0 12 3 20t9 15l4 -26q6 5 8 11t0 15q12 0 15 -16.5t6 -22.5q0 -68 -4 -131t-16 -147.5t-64 -187t-149 -170.5v-4q9 0 27.5 13t26.5 16q-56 -59 -139.5 -87t-172.5 -28v6h12l26 -1 q18 0 26 1.5t19 10.5q-11 8 -26 8q-11 0 -22 -2l-25 -2l-16 1q-9 5 -34 9t-35 16q5 6 12.5 9t15.5 3q9 0 36 -6l36 -5q15 0 29 7q-31 3 -55 12.5t-49 28.5q-30 30 -42 72.5t-12 96.5l5 97l5 87l36 269q-2 7 -4 21q0 16 7 29.5t21 26.5h4v-14q0 -6 4 -11l10 15q8 12 16 14 q6 0 15 -6zM71 754q6 17 28 17v-12q0 -8 2 -11q6 0 9.5 12.5t9.5 12.5q7 -2 9 -4v-12q0 -17 -6 -53l-6 -38l1 -15h6l24 118l4 -2q0 -40 -3 -82.5t-10 -92.5l-27 -191q-13 -104 -13 -173q3 -23 13 -49.5t13.5 -34t5.5 -12.5q-1 5 -2 6q0 -11 12 -32l14 -28l-41 -6 q-42 39 -60 95.5t-18 121.5v31q0 7 1 22.5t4 37.5l21 190q9 96 9 184zM251 530q3 -9 3 -18q0 -11 -6 -36t-6 -40h-4v21q3 13 4 19zM234 361l-3 -3l3 41v-38zM60 110l63 -70l-35 23q-28 19 -28 47zM137 36q11 -3 22 -9l21 -10l-27 5q-12 1 -16 14zM116 641l-5 -4q2 -5 -1 -17 l-2 -12q0 -5 10 -8q2 6 4 22q0 11 -6 19zM206 638h-13l2 -8zM599 605q-3 -6 -5 -24q0 -12 3 -21q-2 7 1 20l4 16zM105 577l5 -9l4 6q-3 3 -9 3zM206 573q-2 -2 -2 -9q2 -2 4.5 -4t7.5 -5v9q-2 5 -3 7q-5 2 -7 2zM101 542l-2 -13q0 -5 4 -8l3 16q-3 5 -5 5zM97 470v19l-5 -23 zM614 408l9 66l-13 -81zM84 412q0 -27 -3 -44t-6.5 -50t-3.5 -54v-20.5t1.5 -17t3 -13.5t8.5 -21v178q-1 4 0 17l2 17q0 6 -2 8zM259 666h4l3 24zM603 363v23l-6 -42zM546 370q0 -9 -12 -17q-11 -5 -12 -11q6 -8 6 -15q0 -6 -6 -21l-8 -22q-5 -6 -16 -39q-7 -29 -23 -38 l2 -10q0 -12 -21 -29.5t-21 -35.5q45 41 66 93.5t45 144.5zM663 658l2 2l-2 22v-24zM381 117q-1 -5 -12.5 -7t-9.5 -10zM578 664l-13 2l-2 -21l8 9l1 -21v-24q0 -9 3 -17zM340 98h-9l-1 -7zM458 74h6l5 5l2 2q-5 0 -7 -1zM422 51l19 11l-2 2zM391 40q15 0 20 9 q-5 3 -14 -0.5t-6 -8.5zM353 27q8 0 13 2l15 9q-7 0 -15 -3.5t-13 -7.5zM227 335l2 -51zM257 641l-2 -26zM201 684l2 13zM528 370l-1 -9zM603 624l2 21z" />
<glyph unicode="V" horiz-adv-x="792" d="M180 796q12 -3 15 -22t7 -24l76 -326q0 32 -18 114t-18 117q-12 6 -15 28q0 18 -9 29l-7 67l20 -34q17 -120 42 -231.5t62 -228.5q-7 -3 -8 -14l4 -32l9 -9q58 72 105 157l94 184l88 188h7q-9 -38 -15 -56.5t-17 -45.5q-18 -51 -45 -111l19 22q17 21 30 18l6 6q3 3 6 0 q-6 -40 -21.5 -76t-39.5 -72l6 -5q8 7 25.5 43.5t38.5 39.5q0 9 -6 9h-5l109 219l12 12q8 9 13 9q3 -1 5 -1q5 -4 7 -5l5 -13q-15 -48 -46 -110l-89 -155q0 -9 6 -12l16 -4l-103 -185q-28 -49 -56 -87t-62 -72q8 17 30 48.5t31 46t16 29.5q-34 -28 -70 -76l-56 -78v-18 q0 -11 -2 -18t-12 -15q-8 9 -18 9q-15 0 -21 -16l4 -24q-4 6 -10 8q-2 -1 -4.5 -2t-8.5 -6t-14 -3l-14 27l-13 -12q-9 -9 -17 -10q-7 1 -9 2q3 13 -10 30.5t-15 26.5q1 6 2 10q-4 3 -12 15t-16 14l40 -116q-9 -6 -15 0t-29.5 64.5t-55.5 174.5l-57 249l-45 258q3 7 7 8 q4 -2 8 -3t7 -2q7 4 9 8l15 -26l47 -193l50 -205q10 -38 21 -75t29 -85l6 4l-50 181l-45 180l-35 179l16 1q8 0 8 8l-11 7q-8 5 -9 13v27l11 -16q0 9 8.5 14.5t11.5 14.5l44 -249l39 -172l63 -197q6 6 6 12q-1 3 -2.5 6.5t-7 12t-7.5 18.5l-60 251q5 5 7 12q0 1 -0.5 2.5 t-6.5 11.5t-4 18l-40 265zM663 763q9 6 17 6q11 0 27 -8q-12 -31 -24 -52.5t-20 -36.5l-36 -71l-26 -2q3 27 32 92zM685 546l-10 -25q-6 -21 -17 -28q1 7 3.5 14t7.5 14zM92 537l-9 16l39 -195l16 -40zM594 579l-2 -20q6 12 11 16q-2 2 -5 2.5t-4 1.5zM578 533l-107 -187 q-54 -96 -116 -167l3 -3q60 70 115 162zM528 491h-7l-22 -52zM623 442h4v9h-4v-9zM249 338l-4 16l4 -23v7zM182 165l3 2l-9 27l-5 -2zM410 172l-4 -11h4q5 4 7 6zM378 123q5 0 11 14q3 11 13 17q-10 -1 -17 -10.5t-7 -20.5zM322 70l1 -7q4 -2 6 -2l8 12q2 4 1 8 q-6 0 -16 -11z" />
<glyph unicode="W" horiz-adv-x="1116" d="M1083 793q3 -6 5 -19q0 -10 -7 -31l-7 -30l-8 3l-9 2l-9 -3q-4 -4 -4 -7q2 -6 4 -8l22 -5l-82 -244q-42 -110 -98.5 -221.5t-92.5 -161.5t-44 -54.5t-5 -13.5h-9v11h-17q-3 11 3 27l7 23q0 7 -4 12q-9 -4 -21.5 -30.5t-24.5 -26.5q-10 0 -18 8l-5 -13l-12 3q-4 3 -10 5 q-6 -6 -6 -10l-56 136l-44 137l-46 173l-128 -276q20 29 42.5 66.5t46.5 83.5q-9 -24 -20 -46.5t-30 -55.5l-63 -114q0 13 8 25t9 19q-18 -16 -32 -37.5t-19 -33.5t-10 -29q-12 8 -23 -11.5t-15 -20.5q-2 1 -5 3t-6 7q15 0 15 5l-6 14q-6 12 -3 19q-15 -3 -29.5 -33.5 t-38.5 -30.5l-20 2l-63 253l-52 249q-9 58 -14 115t-5 114q0 18 4 27l20 -19q0 -65 11 -125.5t31 -114.5l4 4l-31 239l9 -1q7 0 7 9q0 8 2 12l40 -232h5l-17 130l-8 117l6 2l25 -202l36 -245q18 -93 54 -180q9 12 9 28q0 10 -11 35q-8 23 -10 38l1 12l-50 218q-3 22 -5 47 t-2 55q-6 22 -14 100l-6 79l11 -11l13 31l12 -16l25 -212l26 -160l41 -182q7 14 7 30t-7 44.5t-9.5 42.5t-3.5 22l-22 136l-27 156l-19 137l17 -18q39 -277 50.5 -334t42.5 -152q8 6 18 26.5t15 26.5q-2 -9 -3 -18q-4 -7 -6 -14.5t-9 -18.5l4 -2q14 20 21.5 36.5t9 28 t1.5 17.5q-6 -3 -9 -5l90 237q0 40 16 89l33 96l4 -24q0 -12 -1 -19t-7 -27l-8 -46l1 -12q3 8 12 46.5t23 52.5q0 13 2 20t7 14q4 -9 18 -11q13 0 19 -7q1 1 5 3t14.5 9.5t18.5 7.5q2 -9 4 -28q0 -17 -2 -24q0 -13 -2 -21l19 -208l24 -146q17 -78 47 -152l-11 53l36 -84l4 4 q-22 63 -39.5 127t-36.5 158.5t-19 227.5l11 77q11 -13 17.5 -35.5t6.5 -53.5t3 -51.5t8 -33.5l12 -46q0 -6 -4 -11q14 -29 24 -88t20 -91l19 -66q9 -31 27 -58q18 26 48 99t34 80q3 35 22 94l22 78l11 -9q10 19 22 65l15 54l-6 5l-31 -95q3 28 21 98l20 81h8l-8 -45 q9 0 12.5 14t7.5 15l2 -6v-8q0 -5 3 -10q6 0 9 6l4 14q-10 -55 -36 -135l-46 -150l29 -7q-23 -70 -69 -163l-85 -175q0 -5 2 -7l7 -5h8q2 7 8.5 18t25.5 39.5t19 52.5l5 -5l110 258l97 285q7 0 16.5 8.5t16.5 10.5q2 -1 4.5 -2t6.5 -5zM1013 788q0 -22 -15 -63t-18 -54l4 8 l2 11q0 6 -6 12q-3 -5 -7.5 -14t-9.5 -22q-6 -22 -9 -44q9 0 12 10l7 17q-11 -40 -27 -80q-12 -37 -32 -68h-14q6 37 34 116l31 98q1 9 2.5 17t6 22.5t21.5 20.5q-2 -2 -2 -11v-9q6 0 12 15.5t8 17.5zM474 380l-11 -18l13 47zM502 702l1 -18v-12q0 -25 7 -36l7 41 q0 6 -2.5 12.5t-12.5 12.5zM487 642h-4v-20zM496 616l-104 -267h-6q2 17 9.5 36t13 33t12.5 30l51 165l-46 -129l-49 -121l-47 -107q-4 -8 -8.5 -16.5t-6 -13t-3.5 -17.5q0 -15 12 -24l32 61q11 20 23 32q16 49 49 117l49 109q16 36 25 83zM562 601q0 -65 9 -122t33 -113 l-35 226zM862 538l5 -10l4 9zM496 481q9 -74 30 -153.5t49 -149.5l56 -143q-39 102 -78 246l-52 200h-5zM101 461l-1 -12q0 -14 7 -25l1 12q0 11 -7 25zM527 735l-4 -31q0 -15 8 -22q6 9 6 18q0 7 -5 20zM935 357l3 23l-40 -98zM695 243l-11 22l6 -27zM602 232l-8 17l8 -28 v11zM862 221q-3 -10 -8 -17q-3 -6 2 -10zM604 207l12 -34q6 -17 13 -28zM293 181q-8 -8 -8 -25q0 -15 8 -23l9 8q6 8 6 17q0 15 -15 23zM669 170l9 -20q-2 3 -2 5v7q0 7 -7 8zM823 141h4l7 20l-2 2zM638 124l-5 4l5 -11v7zM814 125h-7l-13 -28zM714 88q0 -7 -7.5 -16 t-4.5 -15q1 4 3 7t7.5 10t1.5 14zM222 75l-23 -2q-17 0 -25 -9v-11q2 -5 4 -7q14 0 23 4.5t14.5 8.5t9.5 7zM383 336l3 9h4l-4 -12zM379 325l-24 -63q0 11 1 15.5t7 16.5zM171 289v20v-20z" />
<glyph unicode="X" horiz-adv-x="688" d="M230 779q25 -24 46 -84.5t31 -77.5l20 -53q11 -27 24 -42q5 6 0 15q-2 3 -2.5 5.5t-1.5 5.5l11 -13q19 19 57 79.5t56 78.5q16 28 28 46.5t32 33.5l-164 -264l6 -6l82 112l83 134l3 -13q3 -9 3 -17t-18 -32q-18 -21 -66.5 -103t-73.5 -113q3 -6 9 -9l67 95l84 123l56 97 q0 -9 -14 -29q-15 -18 -12 -33q9 3 21.5 22t23.5 27l6 -15l-29 -36q-27 -30 -27 -52l69 77l1 6v7q0 6 6 9q5 2 15 -9l-13 -30h14l-20 -32l-7 13l-124 -167h-11q0 -9 -21 -43t-21 -53l-18 -19l-6 9q-4 -1 -5 -2l-2 -3q3 -2 5 -9q-1 -3 -2.5 -5t-6.5 -9q9 -31 47.5 -96.5 t48.5 -94.5q-11 13 -25 32.5t-23 35.5l-54 103h-7q18 -77 77 -150l99 -123q23 -19 32.5 -32.5t16.5 -31.5q-5 5 -12 7q-3 -2 -6.5 -4.5t-8 -11t-11.5 -9.5l-7 -10q-12 6 -31 31t-29 33q-3 -15 15.5 -36t20.5 -32q0 -9 -10 -20q-69 57 -126 128.5t-96 153.5q-5 3 -9 -4 q31 -63 73 -123l100 -129l-68 68q12 -21 33 -51l42 -56q-11 -1 -32 18l-20 19v-7q-40 39 -84 100l-83 118l-167 -183q0 12 13 29l30 36q-9 -3 -20 -10t-39 -31t-48 -24q-9 0 -15.5 -12t-13.5 -12l2 9q0 13 -6.5 21.5t-17.5 16.5l6 49l117 123q49 54 95 127l-80 187 q-38 96 -55 181l9 20q3 8 15 6l55 -156q0 23 -14.5 81t-14.5 79q21 -25 39 -78l40 -113l62 -140l4 6l-109 327l7 4h10l15 -27q3 -6 3 -11q0 -6 -7 -13q9 -1 22 -16l14 -14q0 11 -9.5 35t-9.5 33q0 14 11 22zM279 738q7 -13 21 -65t28 -69zM571 591l-8 -9l21 31zM546 557 l-7 -4l20 25zM535 197l55 -58q21 -22 35 -49q-28 17 -44 37.5t-25 34t-21 35.5zM110 41v-8h-13q2 5 4.5 7.5t8.5 0.5zM159 540v10l-4 -2zM198 544h-7l7 -13v13zM358 505l6 -15l3 3q0 12 -9 12zM383 462l-1 -13l4 3q0 6 -1 7.5t-2 2.5zM294 420h-4q-2 -2 -2 -8q1 -4 6 -7v15z M271 398l4 -10q0 7 2 10h-6zM230 338l-182 -217q34 22 75 70l70 85l35 43q3 4 5 10zM351 292l-4 -7q27 -59 71 -119l102 -125l-84 114zM212 277q-26 -36 -90 -104l-87 -93v-11q-3 -10 3 -15t14 -5t18 7l23 17q11 8 14 22q-10 -10 -22.5 -15.5t-23.5 -5.5q-5 0 -13 3 q21 24 84 86.5t87 113.5h-7zM151 559l2 2l-5 11l-1 -3zM495 129q-2 -8 4 -19t15 -13q0 9 -5 15q-4 8 -14 17zM204 559q5 -21 7.5 -28.5t14 -36.5t38.5 -78q-7 33 -23 70t-37 73zM611 649l-13 -26z" />
<glyph unicode="Y" horiz-adv-x="656" d="M502 795q8 8 18 10q15 0 15 -27l-1 -9l7 14q5 11 12 14q0 -32 -22 -81.5t-25 -75.5q5 0 13 16.5t15 19.5q6 12 15 55q7 41 36 62l25 -24l4 4q9 -3 13 -11q4 -5 2 -16l-6 2q-4 -7 -7 -11.5t-2 -9.5l15 8q-15 -70 -42 -133l-77 -162q-52 -103 -72 -151l-80 -147l-59 -115 q-6 -14 -23 -14q-15 0 -20 -4q0 7 1 10q3 6 -1 10l-27 -20q-1 15 12.5 39.5t13.5 35.5q0 6 -3 15l-22 -31q-18 -23 -18 -35q0 -8 4 -15q-5 9 -12 9l-7 -3.5t-16.5 -10.5t-17.5 -8l46 72q40 59 49 96l-4 7q-11 -11 -54 -80t-69 -91q12 41 52.5 107t49.5 85l-2 19 q-51 65 -90 154l-61 149l-51 198q10 1 11 11l-3 18q2 7 4 9l109 -312q-4 20 -18 65l-18 66h15q24 -79 59.5 -154.5t84.5 -140.5l4 15l-58 110l-51 114l-60 150q-3 -15 5.5 -35.5t10.5 -28t3 -17.5h-13l-36 105q-5 17 -8 36t-3 39q8 0 12 -10t10 -13q3 3 0 12q-3 7 1 11h13 l2 6l28 -33q0 10 5 15l12 12l13 -23q6 4 7 19q0 17 6 23h6q15 -95 35 -162.5t37 -111.5t36 -87l30 -37l33 46l47 113l55 128zM591 759l-16 -35q-15 -32 -15 -48q9 13 18.5 38.5t12.5 44.5zM144 714l-5 13l5 -19v6zM105 680l-2 5l2 -13v8zM371 424q0 14 2 17l-15 -30l15 6 q0 -8 -8.5 -20t-8.5 -17q2 -8 4 -10q9 2 15 19t17 22l2 -11q0 -10 -10.5 -28t-8.5 -31l74 148q19 41 34 98l-49 -102l-40 -74q-3 4 -3 7q0 2 1 7q21 41 46 103l51 137zM165 657l11 -57q6 -27 21 -47q0 23 -6.5 42.5t-11 30.5t-14.5 31zM541 627l-16 -27q-6 -13 -4 -24l13 29 q5 11 7 22zM577 625l-47 -92l-34 -84q16 27 42 90t39 86zM99 549l-10 33l-3 -1zM220 497q3 -22 11 -37.5t21 -30.5q-4 15 -6 20.5t-8 17.5q-6 18 -18 30zM137 447l-8 8l8 -14v6zM261 402q3 -17 13 -30l24 -27l5 6l-15 32q-12 17 -27 19zM462 379l9 10q2 2 2 9q-6 0 -11 -8 q-3 -7 0 -11zM343 351l6 -6q-1 3 -3 4t-3 2zM443 337l2 8l-8 -13zM243 245l-27 38l27 -46v8zM375 220l8 19l-14 -28zM273 205h-6l-2 -21h6zM345 180l-68 -98l-14 -32q2 -7 4 -9zM362 205l-2 -8z" />
<glyph unicode="Z" horiz-adv-x="756" d="M295 778l124 3l99 4q74 0 132 -11q0 -12 7 -20q7 4 11 8l10 7q5 -4 7 -8l17 9l22 8q3 -9 3 -17q0 -10 -5 -21l-6 -18h-7l-2 -23q-66 -121 -157 -247l-189 -243l13 -13q73 0 133 -10l147 -29l10 -11q4 -2 2 -12q-63 24 -151 36l-167 21q-13 -3 -14 -13q3 -6 5 -8l327 -53 q0 -5 -7 -8l-13 -1l-38 8q-16 3 -28 10l-5 -4q10 -14 33 -25l44 -15q-8 -22 -24 -22q-7 0 -27.5 9t-30.5 9q-6 0 -12 -3q9 -12 30 -21l36 -12q-9 -9 -32 -12q-21 0 -30 -7l-147 34q-76 14 -141 14q-30 0 -58 -3t-57 -10l20 -9l131 -5q30 0 64.5 -3.5t74.5 -10.5q4 4 7 4 q6 0 12 -9q5 -3 10 -3l15 1q6 0 13 -7l12 2q13 0 27 -7l30 -13q3 -4 0.5 -6.5t-13.5 -5.5l-177 32q-93 13 -164 13q-28 0 -52 -1t-44 -4q-25 0 -53 -6q-25 -7 -38 -10q-3 9 7 15l20 13l59 72l-6 5q-12 -7 -35.5 -32.5t-41.5 -33.5l-5 9l180 190l138 160q64 80 118 175h5 q-30 -65 -73 -128l-86 -118l-116 -141h14q84 69 159 180l143 214q3 13 -7 20l-12 -5q-7 -2 -12 -8l-15 15l-112 -3l-188 -19l26 11q-5 10 -21 10q-9 0 -26 -4l-21 -4q-12 0 -12 12q0 6 6 23l12 7q9 3 12 9q0 5 -5.5 15.5t-5.5 19.5q24 6 79 12q24 0 41.5 3t40 8t58 8.5 t77.5 3.5q44 0 71.5 1.5t40.5 4.5q-13 3 -22 4.5t-18 1.5l-48 1l-93 -4l-86 -3l-117 -13q-12 0 -22 7.5t-20 18.5q32 15 82.5 25t97.5 10zM610 730l-10 -1q-10 0 -18 2l-17 2q-15 0 -16 -16q6 -3 21 -5l17 1q15 1 19 0zM593 630l-7 6l-28 -39q0 -5 -6 -20l-6 -13l3 -9 q5 8 18.5 25.5t46.5 60t49 87.5q-14 -14 -35 -44zM350 702l-51 -9h-37q-17 -3 -37 -5t-39 -10q34 0 49 1.5t51 6.5l90 13h-17zM357 682l-184 -22l164 6l132 6l82 -3l-2 9l-27 3t-31 1q-34 0 -38 1l-48 -1h-48zM483 627l-32 3l-30 1q-24 0 -31 -1q-10 0 -24 -7l16 1 q19 0 38 -2q25 0 31 -2q13 0 31 3zM506 634q-2 -2 -1 -11q3 -5 9 -2q7 -3 11 0q3 3 0 6l-8 4q-6 3 -11 3zM275 616l14 -2q22 0 39 9q-14 0 -29 3q-15 0 -24 -10zM523 529l-3 -12q0 -6 5 -6q3 3 4 10q-4 6 -6 8zM488 481l-9 -16l7 -7q11 8 11 14q0 9 -9 9zM507 426 q-31 -41 -103 -119l-91 -101l115 111q44 46 82 106zM179 176l-2 -11l5 5l-1 3zM265 115l-3 -2l248 -38q-76 22 -127 31.5t-88 9.5q-23 0 -30 -1zM514 51l-123 28q-63 12 -114 12q-55 0 -98 -13q106 0 182 -7q40 0 70.5 -5.5t86.5 -20.5v4zM483 706l14 -2z" />
<glyph unicode="[" horiz-adv-x="392" d="M357 797l6 -8q-11 -8 -26 -10.5t-22 -3.5t-14 -3q3 -3 8 -4l13 -1l23 1v-11l-4 -3q9 -8 9 -19q0 -10 -5 -19l-4 -3l7 -4l-16 -18l-87 -3l-12 -22l-19 -158l-14 -185q0 -45 -4.5 -73.5t-16.5 -84.5l-3 -22l-2 -17q0 -12 9 -18l17 -1l34 3l30 4q19 0 32 -8q3 -5 -6 -11 l-11 -6q8 -3 10 -15q0 -14 7 -17l-11 -5q-3 -5 -3 -7q7 -3 8 -10q-2 -11 -4 -15l-4 -15l-12 1l-20 1q-6 2 -12 10q-12 -12 -27 -12q-10 0 -21.5 3.5t-17 5t-8.5 2.5q-15 0 -25 -13l-32 -3l-31 -1h-14q-6 0 -17.5 2.5t-22.5 9.5v6l39 3q0 5 -9 10l-15 7l12 14q-5 2 -9 2h-11 q-5 0 -7 9q0 11 12 17t25 6l45 325l31 268q-11 7 -11 27q2 2 15 4q20 0 19 11q5 0 7 0.5t3 1.5q-2 5 -3 6l-5 5l-20 -12q-9 2 -12 4q-3 5 -3 11q0 10 10 13q0 6 -10 6l-14 -1q-11 0 -8 14q9 6 24.5 10.5t34.5 4.5q39 0 57 8q15 -6 30 -6q12 0 45 6l45 7zM237 773v4h-12v-4 h12zM153 769l29 -4q11 0 16 4h-45zM191 749v-4q2 -2 9 -4q11 2 16 4.5t13 4.5l-7 1h-4q-18 0 -27 -2zM175 701q-3 -6 4 -20l26 9q8 3 14 13q-6 3 -15 3q-11 0 -17 -2zM275 709h-23l-14 -6zM147 590l10 79h-4zM183 585l2 74l-10 -98zM135 183l37 250q0 -6 -1 -7.5t-2 -1.5 q-3 20 -3 39l1 39l8 48q-19 -87 -30 -180zM193 544l5 -15l7 2q1 4 1 6q-4 2 -5.5 3.5t-3.5 2t-4 1.5zM129 483h4v10h-4v-10zM114 395l-1 10l1 -14v4zM172 249l-10 -63q0 -9 2 -17zM101 58q-4 -6 -4 -7q0 -6 9 -12q2 2 18.5 7.5t16.5 15.5q-16 0 -21 1q-11 0 -19 -5zM118 36 l22 -1l28 1q14 2 30 7l-18 -1l-27 1q-12 0 -18 -2q-8 0 -17 -5zM93 204l-2 -15zM271 43l-33 4z" />
<glyph unicode="\" horiz-adv-x="720" d="M644 -12l-194 235l-247 298l-192 219l-1 17l25 -11l3 26q8 0 20.5 -8.5t17.5 -10.5l-7 13l-4 12q0 8 10 9l159 -197q122 -143 147 -179l84 -105l139 -162l88 -102v-15l-2 2l-18 -16q-18 13 -51 52t-56 52q11 -21 38 -53l52 -57l3 -15q-5 -7 -14 -4zM671 40q3 5 -3 11.5 t-13 9.5q-3 -4 3 -11zM612 121l-13 12l17 -26zM565 120q-12 20 -25.5 37.5t-36.5 40.5l-55 58v-9zM439 260q0 10 -9 22t-23 21q3 -10 12 -23zM375 333q-7 21 -33 47l-32 36q5 -10 10.5 -18t15.5 -21t18 -22t21 -22zM245 537q0 7 -4 12q-3 7 -14 16q-3 -8 2 -15zM199 545 l-36 44q9 -29 36 -44zM85 740l41 -65q21 -34 50 -58zM81 688l-13 21q-7 14 -17 20q4 -8 8.5 -16.5t7 -12.5t14.5 -12z" />
<glyph unicode="]" horiz-adv-x="392" d="M362 787l-3 -11q0 -8 -11 -12t-17 -8q-9 -3 -6 -13l13 -2q5 0 8 -8l-25 -177l-28 -177l4 -3l3 3v5l-11 -114q-9 -89 -9 -133q0 -10 -14.5 -15t-17.5 -15q3 -3 15 -5l17 1q1 -4 1 -10q0 -8 -6 -15.5t-27 -17.5l12 -4q11 0 12 -8q-10 0 -11 -11q0 -14 -10 -17q-10 8 -21 8 q-9 0 -29 -8l-30 -7q-13 0 -33 -1t-47 -4l-61 -4q-2 4 -4 10q1 2 4 6t8.5 9.5t2.5 15.5q6 6 22 7q16 0 22 3q3 -12 12 -12l14 3l13 3l11 6q9 3 9 13q-3 6 -9 6q-8 -3 -12.5 -5.5t-12.5 -4.5l-70 -4q-1 2 -1.5 4t-1.5 5l7 13h12h17q15 0 27 6q-13 2 -22.5 3.5t-28.5 7.5 q-3 5 6 11l48 2q38 0 61 12l43 298l16 268l-30 2l-30 1h-60q-6 10 6 16.5t13 11.5q-2 7 -4 9q2 5 3 6l8 7q-5 4 -5 7l1 8l12 1q6 0 9 3l-15 16q3 7 6.5 11t13.5 7l21 2h23q15 0 20 2q8 -9 19 -9q9 0 22 5l18 5q13 0 23 -13q6 -3 13 4.5t13 7.5l15 1l13 3q11 0 11 -17z M324 770h24q-14 -6 -34 -6l-21 1l-25 1q9 -3 23 2.5t19 5.5q6 0 14 -4zM234 764l-29 2l-29 -2h58zM129 718l47 2l-31 2q-12 0 -16 -4zM215 722h-14q-8 0 -11 -4zM257 650l-6 6l-23 -178zM297 552l9 90zM285 631l-22 -124l5 -4l10 66zM263 464q-7 -21 -13 -64q0 -23 -1 -31 t-4 -17q0 -30 -6 -69t-10 -70t-4 -40q0 -18 3 -36l28 201q3 28 5 59t2 67zM274 278h-11l15 -14zM106 36q6 -3 13 2q7 4 14 0q-3 -4 -13 -3q-8 3 -14 1zM226 436l-3 -38zM220 352l3 14zM190 215l-2 -11z" />
<glyph unicode="^" horiz-adv-x="524" d="M184 551l-9 13q-6 -2 -6 -4v-5q-7 0 -10 7q-1 7 -11 8l15 90q6 29 21 54l28 46q11 20 40 32l-2 -13q4 2 15 4l16 1q-5 -5 -7 -10q0 -5 22 -14q21 -6 26 -11l2 3l-18 11q-8 6 -10 12l16 -3l101 -80q61 -49 61 -106q0 -12 -3 -24q-3 -3 -11 -2q-2 1 -4 1.5t-5 1.5l-7 -9 q-3 0 -4.5 1t-2.5 2q1 6 2 8q-4 4 -6 4q-6 -4 -9 -8h-5l4 13l-1 18q0 6 4 13q-26 52 -56 85q-27 32 -85 59h-9q71 -47 97 -80.5t26 -62.5q0 -16 -9 -37q-6 9 -14.5 40t-22.5 42l10 -31l2 -17q0 -14 -7 -27l-6 -2l1 18q0 10 -7 16q-1 -2 -5 -15q0 -10 -2 -12l2 19 q0 37 -23 70t-65 69l-5 -2q-26 -34 -40 -87zM114 590q-5 -1 -8 -9q0 -5 -4 -8l1 17q0 8 -4 15l-5 -2q3 -9 -3 -21.5t-6 -20.5q-6 0 -8 9q0 8 -4 11l-17 -17q-3 11 -5 29q0 17 6 36t16 39.5t16 33.5l26 42q8 14 31 35q2 4 4 4q6 -1 8 -2l16 13q8 3 13 3q6 0 15.5 -6.5 t17.5 -6.5q-41 -44 -61.5 -99t-30.5 -125q-11 3 -11 18q0 7 -3 12zM406 570v24q0 13 5 21l1 -13l1 -14q0 -9 -3 -18h-4zM176 569q2 4 4 18q0 13 2 16q-9 -8 -9 -22q0 -6 3 -12zM159 590l-3 13l1 -29zM76 586q4 5 7 24q0 17 14 48l34 90q-44 -71 -55 -162zM119 627l14 44 q6 18 15 36l5 1q-3 -13 -17 -41.5t-17 -39.5zM173 679l-4 -23l8 23h-4zM343 667h4l-1 5zM256 743q3 -7 7 -10l14 -7q-4 7 -8 9zM333 732l-57 35l-6 -2l30 -17q9 -4 16.5 -7.5t16.5 -8.5zM275 739q0 3 -2 5l-10 8q3 -6 5.5 -7.5t4 -3zM169 743l29 36q-9 -4 -18 -15zM143 760 l1 5l-11 -13z" />
<glyph unicode="_" horiz-adv-x="1104" d="M33 -86q-3 13 9 20l25 10q-2 5 -20.5 7.5t-19.5 13.5l323 -4l386 -10l308 -6q6 0 9.5 -8.5t5.5 -10.5l-194 3l-205 5l-171 2q13 -4 34 -7.5t48 -3.5l57 2q39 0 45 2q48 0 81 -11l297 -9l16 -9q6 -3 6 -9q-2 -6 -6 -8.5t-10 -2.5l-13 1q-8 0 -15 -8q3 -7 26 -10 q22 0 28 -11l-146 8l-145 7h-33h-17q-17 -3 -28 -4q-9 6 -26 6q-11 0 -16 -0.5t-25 -5.5t-31 -5q-9 0 -18 3l-188 2l-190 3l-157 1l-9 8q-2 2 -4 10l3 8q16 3 22 3.5t20 0.5l33 -1q22 0 34 -2l22 1q14 0 33 8q-14 6 -28 9l-34 2l-47 -2l-34 -2h-22q-13 3 -19 4zM228 -53 l-50 -3l123 1zM302 -102l23 -4q18 0 17 11z" />
<glyph unicode="`" horiz-adv-x="364" d="M44 778q10 -10 23 -10q8 0 16 4l21 -144q8 3 8 21v18q0 14 2.5 20t10.5 10l12 -139q-4 4 -8.5 15.5t-9.5 18.5l-9 -3q0 -19 24 -53t24 -52q15 -1 24 -23t24 -22q2 4 2 7l1 8q14 -10 20 -43q4 -30 16 -44q-10 0 -23.5 15.5t-20.5 15.5q-6 0 -13 -4q-73 78 -114.5 167.5 t-41.5 192.5zM143 709l18 15l5 -54q0 -19 3.5 -38.5t9.5 -33.5q5 35 13 66.5t20 55.5q6 -4 7 -17v-13q0 -12 2 -15.5t15 -8.5q-3 -16 -5 -32t-2 -34q0 -53 19 -98q-15 -3 -24 -21q4 -9 7 -11.5t5 -3.5l27 6l72 -141l-3 -3q-60 42 -106 121l-71 134l-9 123l-7 2l-8 1h-12 l6 33zM269 682q8 -10 8 -23q0 -7 -4 -19.5t-5.5 -21.5t-1.5 -17h-15v13q0 20 4 33q3 16 14 35zM254 580q14 -9 18 -49q0 -17 1.5 -27.5t4.5 -19.5q-9 6 -15 34.5t-9 61.5zM101 547q9 -28 25 -55.5t35 -46.5q-7 21 -13.5 37.5t-12.5 27.5q-10 24 -34 37z" />
<glyph unicode="a" horiz-adv-x="612" d="M188 450q20 14 42 26t48 24q49 20 95 20q52 0 94 -26l19 10q0 -12 2 -18q2 12 14 12q8 0 13 -2h10v-7l13 16q5 8 16 8l-5 -26q0 -6 3 -12l7 25q5 13 14 18l-21 -105q-18 -92 -18 -155q0 -48 10 -88t36 -76l-7 -6l-41 49q-14 21 -19 48q-4 -2 -5 -11q0 -8 9 -29l16 -34 q6 -12 9 -25v-4q-3 -3 -13 0l-10 4q-5 -2 -6 -4q-2 -8 6.5 -14t5.5 -17q-6 -3 -11 -3q-8 0 -16 6l-14 18l-2 -17l-14 16q-4 7 -8 21l15 -18l-37 114l-1 -32q0 -18 11 -26l3 -30l-14 35l-11 43q-7 -3 -8 -11q1 -9 2 -13l3 -10q3 -26 12.5 -44t36.5 -55l-5 -5q-25 18 -42 46 q-14 26 -22 58q-1 -2 -1.5 -4t-1.5 -5q0 -7 7 -21l7 -20q5 -14 14 -29l22 -34q-2 -3 -9 -5q-6 3 -9 5l-14 14q-8 8 -20.5 35.5t-18.5 39.5t-8 17h-9l6 8q5 5 -3 11q-8 -6 -30 -19.5t-45.5 -27t-32.5 -21.5q0 -6 8 -10l11 -3q24 27 62 43l-24 -24q-14 -12 -28 -15 q-10 -18 -36 -30l-45 -18h-17t-22 -2h-14.5t-10.5 -1h-22q-13 3 -23 5.5t-27 16.5q-27 18 -36 48.5t-9 72.5v30l1 32q18 56 53.5 107.5t87.5 86.5q10 -4 13 8t9 15zM324 501l13 -1q7 0 9 6q-7 -2 -11 -2q-8 0 -11 -3zM328 489q-19 0 -36 -4.5t-37 -13.5q-32 -12 -60 -40h6 q1 6 9 8l15 -1q33 30 81 36l6 -14q-3 3 -4 8q1 2 3.5 4.5t7.5 5.5l15 6zM494 440l12 38l-2 2zM416 458l5 -10l2 2v6q-2 0 -4 0.5t-3 1.5zM443 450q-3 -2 -4 -3.5t-1 -2.5q4 -5 7 -7t4 -3.5t2 -2.5q3 6 -2.5 9.5t-5.5 9.5zM513 450l-8 -27q-3 -11 1 -16zM407 416 q-10 6 -19 10.5t-29 13t-42 8.5q-21 0 -38 -10l87 -4q8 -1 22.5 -15.5t25.5 -11.5zM197 409l6 4t14 6t11 12l-20 -11q-7 -3 -11 -11zM537 427l-21 -77q0 -11 4 -22l5 48q0 10 6 21.5t9 20.5zM166 414l2 -2l6 7l-1 3zM392 385q-14 15 -40 25t-52 10q-20 0 -38 -6 q37 0 71 -9.5t62 -31.5zM445 403l-5 -8q-12 -37 -18 -70t-6 -71v-21l5 -38q0 29 12 105t12 103zM225 390q-31 -22 -49 -61q-14 -34 -20 -86q0 -55 25 -76q27 -19 32 -21l12 -2q12 0 29 8l45 21q26 13 58.5 63t32.5 108l-1 18l-14 -3l-57 29q-10 4 -24.5 7t-28.5 3 q-24 0 -40 -8zM480 385l-14 -51l-4 -36zM130 351l2 -2l12 13l-2 3zM148 341l-24 -43q-5 -9 -8.5 -18t-5.5 -18l3 7l5 12q1 5 11 1v-41q0 28 4.5 48t7 29t7.5 23zM498 310l-1 -22v-22l1 -28q2 -10 8 -19q-2 6 -4 21l-1 26v12q0 15 -3 32zM39 242q-2 -7 -2 -14.5v-10.5v-12 q-1 14 4.5 31.5t7.5 27.5t2 16q-9 -18 -12 -38zM460 280q-3 -24 -3 -54q0 -16 1 -30t5.5 -33t18.5 -34l-11 30q2 8 4 10q-6 12 -6 31l1 22q0 17 1 22q0 13 -1.5 20.5t-9.5 15.5zM395 241l-1 -14v-12v-22l1 -20v68zM366 226l-17 -24q-4 -12 -24 -27l-39 -28q26 0 49 24 q20 23 31 55zM103 215l-2 -17q0 -24 14.5 -44.5t40.5 -41.5q30 -10 54 -10q32 0 52 18q-23 -7 -53 -7q-15 0 -32 3q-28 10 -46 36.5t-28 62.5zM154 188q-3 -16 9 -28.5t32 -19.5zM67 159q-1 -7 -1 -10q0 -5 5 -5v7q-2 6 -4 8zM57 129q5 -22 13.5 -37t25.5 -18zM108 96 l10 -12l2 2q-4 5 -6 6zM153 72q6 -4 14 -3l13 6q-7 2 -10 4l-9 3q-5 0 -8 -10zM142 79l-8 3l8 -8v5zM62 221l-5 -28z" />
<glyph unicode="b" horiz-adv-x="602" d="M154 805q9 -3 12 -21l3 -18q6 0 9 12.5t13 11.5q-3 -4 -5 -15l3 -18l3 -17q0 -11 -9 -20l4 -17q0 -25 -4 -66t-16.5 -128.5t-12.5 -119.5l13 18q0 26 2.5 43.5t13.5 85.5l14 103l13 3q9 0 11 9q-3 3 -10 3q-6 0 -9 3l4 70l10 76q1 -3 2.5 -4.5t2.5 -1.5l3 2v4h7 q0 -10 -1 -29t-4 -45l-5 -70l12 51l5 -7q0 -41 -15 -133.5t-15 -128.5l4 -3q36 20 51.5 32t24.5 21t22 25l61 25q34 14 60 14t45 -11q8 2 22 4q18 0 34 -11t31 -34q18 -38 18 -90q0 -15 -2.5 -31t-3.5 -22t-5 -17l-5 14q-16 -85 -74 -162.5t-140 -117.5q7 -3 14 3l13 13 l4 -3q-28 -34 -45 -45.5t-36 -11.5q5 6 23.5 18t24.5 19q-20 -7 -71.5 -31.5t-87.5 -24.5h-20l-14 4q-41 0 -75.5 30t-56.5 74q-6 47 -6 91q0 61 13 182l14 170q8 25 19.5 123t13.5 105h5q3 -11 8 -11l4 4l11 -11l2 3l2 -24q0 -10 -1 -27t-4 -40l-4 -50l-30 -252 q-15 -131 -15 -233q0 -9 5.5 -20.5t11.5 -15.5l17 71q0 12 -6 24q-8 -9 -11.5 -22t-3.5 -33q0 25 2 68t2 61l14 134l19 146l4 -5l-17 -194q0 -30 -4.5 -59.5t-19.5 -82.5l7 -4q17 45 26.5 141t12.5 114q10 3 11 11l-6 17q0 40 18 132.5t18 124.5q0 16 -3 37zM132 803l-4 -98 q0 -43 -13 -89l-5 1l16 103q6 42 6 83zM242 796q6 -6 6 -19l-3 -21l-3 -21q-5 7 -7 16l4 17l4 19zM110 578h-4l7 29zM210 588l-13 -85l-5 -81l21 133zM333 514q12 3 20 6.5t25 16.5q-13 0 -26 -6.5t-19 -16.5zM502 522q12 0 13 5q-3 5 -11 4q-5 -3 -2 -9zM524 516l-5 -4 q24 -14 35 -60l11 -66v18q0 21 -1.5 38.5t-9.5 34.5q-9 24 -30 39zM395 490q7 -6 13 -8.5t12 -6.5q26 -12 38 -38q10 -27 10 -61l-3 -53l-2 -35l11 44q5 28 5 47q0 32 -10 56l-21 35q-18 32 -32 32q-9 0 -21 -12zM216 401q-3 -8 -21 -24t-15 -34l63 79q3 6 29.5 23.5 t26.5 38.5q-22 -9 -44 -35zM363 478q-57 -42 -99 -86.5t-62 -95.5t-20 -94q0 -25 6 -44t24 -36q9 -3 18 -3q13 0 36 7t35 5q33 18 55 62l25 65l10 20q4 7 9 4l10 52l4 44q0 27 -7.5 46t-28.5 35l7 1q27 -18 39 -43.5t16 -41t4 -34.5q0 -21 -4 -36q14 22 14 50q0 18 -4 31 l-14 49q-25 43 -73 43zM499 475q-1 -12 6 -31l11 -25q0 -99 -36 -195l36 87q14 42 14 78q0 8 -0.5 18.5t-7.5 27.5q-6 22 -23 40zM147 310v-28l7 19q2 5 -1 9h-6zM180 280l-6 -15l-2 -16q1 -8 2 -12q0 7 4 18l5 16zM422 243v18l-2 -20zM146 250q-3 -11 -3 -26q0 -12 4 -16 l1 13q0 8 2 14q0 8 -4 15zM440 191l20 50l-35 -69zM92 140q-5 -7 -8 -25l-2 -18q9 -17 25.5 -23.5t26.5 -8.5t25 -2q-3 5 -14 9l-21 9q-9 6 -21.5 18.5t-12.5 28.5q1 8 2 12zM221 84q-5 0 -11 -12l28 -9l32 13q11 6 19 18q-8 0 -27.5 -6t-28.5 -6q-8 1 -12 2zM272 63 l-51 -24q17 0 31 5.5t20 18.5zM129 45q0 -7 16 -8l9 1q0 6 -14 7h-11zM172 38h8q2 -4 9 -3l3 4q-2 2 -9 2zM357 448q12 0 18.5 -6.5t28.5 -44.5q3 -11 3 -35l1 -35q0 39 -10.5 67.5t-37.5 46.5l-11 2q-6 0 -13 -4l-15 -13q13 14 36 22zM174 758l-7 -48z" />
<glyph unicode="c" horiz-adv-x="482" d="M282 503q26 14 57 14q36 0 66 -21q-6 3 -17 3q-10 0 -10 -10q-7 2 -12 2q-6 -10 10 -16q15 -3 18 -9l10 -13q6 -8 8 -14q-2 -6 -4 -8q15 -6 15 -26q0 -19 9 -27q0 -13 -2 -16l-15 12q-6 0 -9 -9l-3 -15q0 35 -15 68.5t-39 50.5q9 -2 15 -8q5 -3 14 -12l5 4q-3 13 -24 22 q-17 9 -22 21l-10 2h-9q-11 0 -17 -5q0 -7 12 -12q12 -3 42 -30t30 -106q-14 0 -20 27q-3 27 -12 36l-18 20q-13 12 -26 9q39 -41 39 -100v-12l-2 -12q-16 -3 -20 19q0 19 -7 26q0 20 -21 41l-38 38q-40 -35 -66.5 -86t-26.5 -102q0 -37 13 -69q32 -43 89 -43q43 6 91 31 l95 46l-15 -42q-6 -18 -25 -18q-20 -6 -50 -23t-47 -25.5t-29 -12.5q79 19 163 63q0 -35 -28.5 -50t-47.5 -24.5t-52 -24.5t-62.5 -22.5t-50.5 -10.5t-38 -3q-50 0 -94 24q-35 15 -50 46q-12 30 -12 78l1 43v20t2.5 31t12.5 44.5t29 52.5q1 -7 -5.5 -18.5t-7.5 -18.5h9 q21 55 63.5 101.5t96.5 68.5q-31 -24 -58.5 -52.5t-51.5 -66.5h7q45 53 77 80t74 27l16 10q5 6 0 12zM418 489q-6 6 -13 0t-12 -6q-3 0 -8 3q13 -6 21 -19l34 -50q3 -8 5 -10q4 -4 10 0q0 25 -14 46zM62 204l27 -87q9 -21 46 -30q-20 23 -35 50q-12 27 -15 45l-2 33 q0 56 24 104.5t70 86.5v-12l41 57q-67 -47 -111.5 -111t-44.5 -136zM276 446l1 -7l5 5q-5 1 -6 2zM118 218l-2 -22q0 -51 37 -89l24 -9l22 -4q9 0 18 6l-29 10q-30 12 -45 39t-25 69zM425 176h-5l-2 -6zM64 134q0 -16 11 -33q12 -15 28 -24zM388 107q6 0 14 4l14 8l-15 -4 q-6 0 -13 -8zM111 48l2 2l-4 3zM153 40q6 -3 12 -3q8 1 12 2l13 2l-12 2l-13 -1q-8 0 -12 -2z" />
<glyph unicode="d" horiz-adv-x="695" d="M492 812q7 -5 10 -10t5 -6.5t4 -1.5q6 3 8 5l3 -8l-50 -278l6 -16q3 -7 14 -6l6 5q5 14 10 58.5t19 61.5l-8 9l8 118q6 8 11.5 29.5t13.5 29.5q3 -10 11 -11q8 1 10 2l13 9q5 -9 15 -11q10 3 15 5.5t13 4.5q8 0 17 -13l-31 -129l-18 -96q-6 0 -7 -5l4 -9q4 -5 1 -13 l-5 -112l-4 -84q0 -65 12 -115t48 -94l11 -16l-22 -11q4 -5 9.5 -7.5t5.5 -7.5l-18 -6q6 -4 8 -10q-5 -7 -11.5 -11.5t-6.5 -10.5l3 -8q-45 11 -82.5 32t-57.5 61q-21 30 -30 68q-3 20 -5 42.5t-2 48.5v56l-5 6l-11 -10q0 -119 19 -189t68 -91l63 -27l30 -13q-3 -5 -12 -5 t-23 5l-16 6q-6 0 -6 -7q0 -6 4 -17q-12 3 -26 10l-42 25q-28 18 -41.5 44t-35.5 89q-8 -1 -20 -15l-24 -26l23 8q-19 -24 -47.5 -44t-58.5 -34q-18 -16 -37.5 -22.5t-30.5 -8.5t-28 -2q-21 0 -30.5 1.5t-25.5 6.5q-57 24 -79 77q-6 35 -6 69q0 90 40.5 166.5t115.5 120.5 q20 32 46 42.5t46 16t58 14.5q0 -6 3.5 -9.5t10.5 -3.5t9.5 0.5t3.5 1.5l-7 11l17 -2v-7q9 -5 19 -7q13 0 19 16.5t12 70.5t15.5 100.5t33.5 93.5zM498 748l-3 4l3 -9v5zM455 526h5l35 208q-11 -34 -21 -88zM561 637l4 -2q5 -3 11 -3t6 5q3 12 -5 12q-8 -2 -11.5 -4.5 t-4.5 -7.5zM329 528q-7 0 -13 -3.5t-3 -9.5zM381 523l67 -45l4 13q-7 2 -15.5 6.5t-25 13.5t-30.5 12zM268 499q-2 -1 -4.5 -2.5t-16 -12.5t-22.5 -6q-47 -56 -75 -112t-28 -117q0 -29 9 -64q15 -22 27 -36q12 -11 28 -13q0 6 -7 13l-18 16q-10 11 -18 32q-3 12 -5 22t-2 24 q0 28 4 45l15 46q6 45 56 99t57 66zM544 499q-9 -45 -9 -88q0 -33 5 -48zM342 494v-6l31 -15q27 -13 41 -11q-24 33 -61 33zM482 464q-9 -15 -9 -32q0 -6 3 -14l4 23q1 7 1.5 13t0.5 10zM370 459l29 -22q12 -9 25 -9q6 0 15 3l4 -34h5v42l-8 -1h-6h-15q-6 0 -15 -3 q-3 7 -15 13zM338 427q-14 15 -30 17q-15 0 -29 -14t-36 -55q-11 -26 -18 -54.5t-7 -59.5v-28q3 -11 4.5 -16t5 -14t11.5 -21q3 -12 14 -17.5t25 -5.5q12 0 20 2l17 4q-9 -11 -20 -20l-30 -14q29 0 70 30l49 35q9 3 9 9l-2 15q2 7 4 9l10 -13q3 3 4 8q-3 6 -5 8l-4 9 q2 6 4 8l-31 -34q-18 -18 -33 -30l53 85q15 27 15 66v12q-3 23 -28 45zM367 439l38 -37q-4 14 -14 25t-24 12zM243 402q-27 -45 -45 -96l-4 -33l-1 -26q0 -27 6.5 -45t25.5 -28q-20 34 -20 81q0 20 2 37t10 47.5t26 62.5zM472 363h4v32h-4v-32zM536 342v-37.5t4.5 -49.5 t18.5 -64l-18 89zM471 336v-42q0 -77 31 -141t97 -86q-69 27 -91.5 91.5t-36.5 177.5zM87 136q11 -19 36 -35q26 -13 48 -13l12 1l-58 21q-19 18 -24.5 38.5t-7.5 34.5t-2 33v30v16.5t2 21.5q-18 -33 -18 -79q0 -36 12 -69zM593 204l-11 26l11 -33v7zM198 55q14 2 25.5 4.5 t25.5 7.5t33 18q-19 -3 -43 -12zM179 55h-10l5 -4zM559 584l-1 -13z" />
<glyph unicode="e" horiz-adv-x="475" d="M382 521q13 -4 19 -7.5t22 -14.5t29 -28l4 -37q0 -54 -30.5 -102.5t-79.5 -80.5h-4l2 8q-16 -3 -56 -27t-64 -24q45 14 90 49t63 80q-7 -4 -27 -29t-37 -25q-14 -11 -34 -23t-36.5 -20t-34 -13.5t-42.5 -10.5l-1 -15q0 -17 7 -31.5t24 -25.5q3 3 4 6t1 8l57 -33l-10 2 q-4 -3 -5 -5q0 -12 12 -12l23 -1q29 5 46.5 14.5t90.5 61.5q-2 -10 -14 -29.5t-12 -33.5l1 -10q-42 -38 -82.5 -54t-68.5 -22t-56 -6q-33 0 -69 9q-22 7 -47 24q-22 17 -36 53.5t-14 89.5q0 68 28.5 128t79.5 103q9 18 20.5 26t22.5 13t22 5q12 17 26 22t28 8t30 5l4 -8 q10 9 26 13l34 4l18 -1zM301 130l8 4q0 -5 -8 -4zM363 488l32 -28q15 -21 15 -50q0 -9 -0.5 -19t-5.5 -24t-11 -26t-14 -23h4q17 15 26 43q3 14 5 28.5t2 30.5l-1 20v21q-11 11 -23 20q-9 9 -20 9q-7 -1 -9 -2zM260 473q-1 -13 -23.5 -22.5t-23.5 -23.5q10 3 27 18t29 17.5 t20 2.5q6 3 8 5zM332 470q0 -11 -13 -10v-8q8 -3 16 -10l17 -14l6 -15l2 -20q0 -14 -3 -29q16 10 16 34l-1 9q0 7 -5 15l-5 12q3 6 5 8q-1 8 -16.5 16t-18.5 12zM301 442l-16 3q-27 0 -53 -25l-41 -40q-16 -25 -24.5 -52.5t-8.5 -52.5q0 -12 3 -27q4 0 10 0.5t20 3.5l38 9 l-20 -11q-16 -8 -21 -14q25 0 44 14l42 36q41 41 41 93q0 24 -10 44l6 4q5 -6 7 -10t7 -16t5 -28q0 -18 -2 -27t-8 -22q12 9 15 20l9 40q0 19 -14 33zM75 263v-38q0 -63 12.5 -99.5t59.5 -59.5q12 0 28 -5l25 -4q12 0 23 9q-18 -2 -40 8l-30 12q-27 17 -42 43t-21 62 q2 7 -4 15l-5 12q0 5 9 11q8 53 25 94.5t46 83.5q-31 -26 -52.5 -62t-33.5 -82zM180 392l5 13l-12 -15zM158 376q0 -7 -4.5 -16.5t-10 -18.5t-8 -15t-8.5 -20q-3 -15 -12 -42q0 -12 10 -21zM165 229l7 1q4 4 4 6q-5 -2 -7 -3zM110 203q0 -21 4 -35.5t16 -23.5l-7 28 q-4 23 -13 31zM37 200q0 -46 10.5 -79.5t39.5 -54.5q-19 23 -30 56zM346 499l-15 1l-14 2q-8 0 -10 -9l39 -3v9zM266 66q31 3 58 15t43 38q-6 -2 -24 -10t-34.5 -16.5t-42.5 -26.5zM63 187v-27v27z" />
<glyph unicode="f" horiz-adv-x="453" d="M327 833l4 3q24 0 46 -15.5t44 -40.5q-10 0 -10 -15q0 -8 -2 -11l-25 16q-3 -6 3 -11.5t9 -10t5 -5.5q-5 -7 -9 -9q-5 3 -48.5 36.5t-72.5 39.5l-5 -3l51 -40q46 -36 59 -53q-5 -5 -14 -1l-13 11l7 -20l-1 -23q-9 0 -29 17t-33 16q1 -10 15.5 -19t17.5 -17q-16 2 -30 13 l-25 23q-8 -17 -12 -53q0 -19 -1.5 -29.5t-6.5 -22.5q4 -10 16 -11l14 1h13l-38 -4v-5l15 -2l15 1l15 1q15 0 25 -7q2 3 13 5l25 -3q12 0 12 14q11 6 15.5 -5t7.5 -12q0 -12 -14 -16q9 -5 11 -15q-2 -10 -4 -15l-4 -17l-57 11q-18 3 -43 3h-18.5t-22.5 -4l9 -12 q-3 -4 -5 -10q9 -3 28.5 -5t29.5 -3q41 0 65 -16q-3 -17 -19 -23l-110 13q-12 -52 -17.5 -88.5t-5.5 -86.5l-10 -192q-15 18 -15 47l3 40l4 35q0 11 -2 21h-4l-19 -171q-5 8 -7 25l1 19q0 12 2 20l-1 12l1 53v25.5t2 29.5l-10 -12l-15 -215l-6 -4q-6 0 -9 9.5t-8 10.5l-7 -3 l-1 33h5v-13q0 -6 5 -9q2 3 4 7.5t4 12t7 11.5l-2 9v15q0 7 -4 12q-5 -2 -7 -14.5t-7 -17.5l3 113l26 248l-11 12l-12 -14l-21 -234q3 -12 3 -25l-5 -46l-5 -43v-12l3 -23q-2 -7 -4 -9l4 167l14 189q-2 9 2 19l5 12q0 6 -7 12l-10 -23q0 -34 -2 -66.5t-9 -97.5l-11 -165 q0 -45 6 -93l-5 -3h-11q-7 9 -7 20q0 7 6 27l7 22q0 6 -5 9.5t-22 5.5l10 20q-5 0 -10 3q-1 5 0 12l18 185q5 58 5 128q-2 4 -14 5l-16 -1q-10 0 -16 -2q-12 0 -12 8l3 10q16 16 24.5 28t5.5 27q17 6 26 35t35 29l-8 10l23 126h17q6 3 8 5q-3 8 -17 7v12l6 17q2 -3 9 -5 l13 1q7 0 9 -9q11 4 13 18q-2 3 -2 9q0 4 3 7l17 13l-16 13q2 3 20 7t20 16l65 7h12q7 0 18 -4zM271 519l13 1h11q46 0 84 -14l-1 -10l-112 21zM56 50v-10l-4 10h4zM213 609q23 59 34 132q-10 -20 -20 -61zM175 737q-5 -11 -11 -29t-11 -39t-7 -39t-2 -37q2 5 6 21t11 45z M256 714l-1 13l-4 -19zM245 656q-1 -3 -5 -24l-2 -27zM349 800l15 -17q-6 15 -15 17zM278 774q5 -10 25 -24t34 -16q-4 2 -7 4t-22 17.5t-30 18.5zM62 503l9 -1q5 0 8 5l-9 -1q-5 0 -6.5 -1t-1.5 -2zM52 483l4 -3q6 2 10 2q12 0 13 8q-10 -2 -16 -4.5t-11 -2.5zM222 460 l-4 -20l-1 -17q0 -6 3 -12zM179 313v-15q1 5 0.5 9.5t-0.5 5.5zM200 765q-17 -25 -29 -99l-10 -71h6l20 97zM337 599h9h-9z" />
<glyph unicode="g" horiz-adv-x="730" d="M661 569l22 -5q11 -4 13 -18q-21 -58 -38 -151l-29 -176q-13 -87 -36 -153l-7 15l18 86q4 20 6 36.5t2 34.5l-11 -12q-21 -130 -32 -181t-42 -117.5t-88 -116.5q-5 2 -7 2.5t-3 0.5q-6 0 -15 -15t-20 -15q-33 -21 -61 -27.5t-50.5 -9.5t-43.5 -3q-47 0 -90.5 9.5 t-90.5 27.5l-27 31q-10 15 -10 28q0 11 11 21q-2 4 -2 6l1 6q15 6 31 -12t26 -19l-42 51q9 -3 15.5 3t8.5 16q8 -2 15.5 -4.5t18 -8.5t46.5 -38q29 -17 67 -27.5t73 -10.5q32 0 56 8q26 6 48 25l-61 -13q-26 -4 -37 -4.5t-18 -0.5q-31 0 -59 8.5t-50 28.5q14 0 17 7 q-6 7 -10.5 10t-13.5 5q-9 0 -10 -8q-6 3 -12.5 7.5t-19.5 14t-20 20.5l30 -13l-2 20l66 -38l-3 -2q2 -5 10 -9.5t18 -6.5q2 0 3.5 1.5l2.5 2.5q51 -19 95 -19q43 0 74 17q19 -17 43 -17q3 11 19 14q14 0 20 3q-2 4 -4 10q2 3 4 5.5t11.5 9.5t10.5 12q-1 3 -3 6t-7 8 q-2 -2 -9 -4q-3 1 -4 1.5t-8.5 6t-13.5 3.5q42 152 42 304q-17 -14 -22.5 -66t-8.5 -60q0 -15 -1 -30.5t-4.5 -36.5t-26.5 -111q-11 0 -20 -8l-11 -13l6 28l9 -2q5 3 6 5l-12 19l24 166l-9 8q-4 -6 -45.5 -39.5t-41.5 -57.5q-11 -4 -54 -26t-68 -22q-19 0 -30 5l-35 1 q-7 1 -15 3t-28 12t-38.5 25t-27.5 43q-9 21 -15 44q-5 27 -5 48q0 47 18.5 98.5t46.5 93.5l89 90q54 51 106 66l48 -9q15 0 24 12l130 22q37 0 65 -19q8 0 15 8l15 15l-14 -72l-30 6l-15 -66q8 0 17 25q6 25 17 25q7 0 18 -7q13 7 13 44t12 37q7 0 18 -7q3 10 6.5 15 t10.5 4l-20 -95l-14 -132zM408 99l-44 -35l43 40zM586 30q0 -27 -9 -51.5t-31 -57.5q6 31 15 57t25 52zM416 -114h-8l8 12v-12zM404 469l21 -22l7 6l-14 8q-6 5 -14 8zM310 450q-38 0 -58 -25.5t-52 -89.5q-7 -18 -11.5 -39t-5.5 -28t-1 -23q0 -32 8.5 -56t23 -38t21 -19 t20 -14t30.5 -9q-35 12 -62 48q-24 35 -28 65l-3 37q0 48 22.5 88.5t63.5 81.5l-44 -75q-7 -14 -12 -29.5t-8 -33.5q0 -53 11.5 -89.5t42.5 -62.5q7 -2 25 -4l16 -1h13q8 0 26 5q56 34 85.5 91t40.5 131l-67 57q-44 33 -82 33zM546 450l-24 -126l-16 -131l22 145zM518 406 q-7 -23 -13 -70l-6 -64l14 76zM168 357l1 -4l17 33l-2 4zM130 357h-4q-30 -46 -43 -104.5t-13 -126.5q-13 -3 -21 8.5t-12 14.5l-1 -13q0 -27 18 -39l2 13q15 0 45 -36t53 -36q-38 27 -53.5 66.5t-15.5 92.5v26l2 15q5 1 11 -6zM163 347l-20 -46q-9 -23 -9 -43l1 -12 q0 23 9 50zM560 235l10 53h-5zM549 216l-56 -245l13 10l26 113l23 122h-6zM137 188q-2 -6 -2 -11q0 -7 5 -16t12 -8zM420 182l-23 -29h7q8 12 11 16t5 13zM102 139l15 -50q16 -22 39.5 -38.5t49.5 -13.5q-35 9 -56 34zM549 126q0 -9 -4 -22l-5 -15q2 -6 4 -8zM481 538 q5 -4 30 -18q26 -12 33 -28l5 7q-6 19 -26 27q-18 9 -42 12zM310 38l12 6q3 1 5 9q-15 -6 -17 -15zM478 518q-12 0 -29 5.5t-22 5.5q-6 0 -11 -4q20 0 46 -16l42 -30l2 7zM397 485l34 -17q20 -12 27 -28l-5 -4l23 -22l5 22q-12 19 -35 34t-49 15zM225 -139l10 -8l12 12l-9 2 q-8 0 -13 -6zM100 -160l13 -21q7 0 44.5 -16.5t52.5 -16.5zM285 -216q2 -5 4 -7t10 -2q6 0 9 6h-12q-5 0 -11 3z" />
<glyph unicode="h" horiz-adv-x="607" d="M253 797q13 -8 19.5 -14t3.5 -18q0 -52 -24 -189l-23 -138q0 23 4 64.5t17 127.5t13 141l-28 -172l-23 -147l-15 -120q13 3 19 35l6 36q1 -5 1 -9l-1 -17q0 -9 5 -13q18 12 72 65.5t94 72.5l33 19q-64 -45 -118.5 -103.5t-102.5 -132.5q3 -6 -0.5 -14t-1.5 -13l18 11 l-14 -23q-13 -21 -13 -32q0 -6 3 -12l91 157l-5 2q19 24 38 44.5t45 42.5l82 73q7 -3 13 1t9.5 5t5.5 2q7 -4 10 -7q0 6 8 10q8 3 15 0q3 -6 3 -12q0 -7 -5 -20l-5 -14h-4q1 8 2 12l4 13q-3 8 -5 10q-21 -12 -29.5 -19.5t-15.5 -23.5q-2 -12 -3 -18.5t-1 -22.5l1 -11l1 -8 l-16 -114q-6 -57 -6 -104q0 -57 6.5 -105.5t25.5 -100.5l5 -8l5 -11q-27 -3 -38 20l-19 47l-19 64q-3 -11 -3 -21q0 -15 6 -38l12 -40l-11 1q-3 -3 0 -9q3 -7 8 -9l8 8l4 -10l-17 -10q-9 12 -13 45t-12 45l-7 47l-2 49l9 126l10 130q-27 -16 -52 -43l-60 -68 q-51 -82 -74 -128t-37 -109q-9 -3 -14 -18.5t-17 -16.5l-4 31q-9 -3 -13 -19q-2 -15 -4 -19l-4 32q-7 1 -14 -13q-4 -12 -14 -11q0 55 19.5 175.5t19.5 162.5l-29 -160l-22 -156l-23 -12q-3 4 -5 15l3 14l4 20q-1 7 -2 9q-8 -4 -11 -37q0 -30 -17 -36l11 100q3 21 7 44 t10 45l3 -9l2 -16l-3 -38l-1 -28l23 123q0 11 -2 21l-13 -27l-6 3q0 72 15 164l29 173q8 -13 8 -26q0 -5 -3 -13q-6 -3 -7 -11l7 -30q15 47 15 104l-15 3l1 70q0 19 10 52h6q0 8 11 12l31 10l6 -17l-35 -300l3 -4q12 50 27 178.5t21 154.5l10 -16q0 -87 -9 -156l-33 -208 l-30 -209l17 23l40 280l31 275l9 -17q2 2 5 10l3 7q3 -8 3 -15l-3 -22l-3 -23l3 -17q4 7 7 20t3 35q0 38 21 59zM527 522l9 -1q0 -18 -8 -50t-7 -46q6 4 8.5 10t8.5 1q-13 -76 -13 -156q0 -59 6 -114t18 -111l-3 -18q-18 24 -26 53l-11 85l3 100q0 41 3 69.5t11 51.5l-5 11 l-18 -94q-3 -26 -5 -48.5t-2 -46.5q0 -21 1 -41.5t4 -39.5l9 -55q3 -16 16 -36l-5 -4l-23 26q-3 -9 3 -27l7 -26q0 -8 -4 -15l-16 4q-8 0 -12 -8q-18 20 -23 64l-5 83q0 33 1 48.5t7 65.5l8 115l1 -19l-3 -38l-3 -39l3 -25l13 96q4 36 10 70t13 60h4v-12q4 -4 6 -5zM543 500 q7 -3 8 -19q0 -11 -5 -21t-13 -8zM465 403v25h4v-25h-4zM476 -41q-1 -4 -2 -5l-5 -5h-7zM452 -66l-2 -17h-8l-2 17h12zM209 642q-3 -3 -1 -9q3 -5 13 -4v4zM376 438l2 -2q6 6 12.5 12t9.5 14q-15 -9 -24 -24zM440 462l-24 -153q-4 -29 -6 -58t-2 -65l3 -66q0 41 1 75.5 t4 62.5zM125 385l5 53l-9 -56zM81 381v-5l3 25zM77 357q-3 -5 -6 -16l-2 -19q0 -19 2 -25zM181 204l4 33l-8 -38zM460 193q-3 -21 -3 -50v-20.5t2.5 -23t9.5 -25.5zM113 114l-9 -19q-3 -9 2 -11q5 5 8 14q2 10 -1 16zM420 55l-2 13l2 -20v7zM96 499q-7 -21 -7 -37 q0 -7 2 -10zM473 472l-1 -27zM120 727v-22v22zM152 258l-2 -17zM177 170l4 10zM117 659l-2 -12z" />
<glyph unicode="i" horiz-adv-x="301" d="M206 842l81 -121q-3 -9 -9 -15q-28 16 -43 36l-55 84zM164 835l99 -142l-3 -4l-4 -2l-11 3l-9 5l1 -17q0 -12 -10 -13l-8 1l-22 10q-6 19 -36 59.5t-36 71.5q4 -3 12 -5q6 0 14 14q6 15 13 19zM125 747l3 22q9 -9 22 -43t24 -40.5t13 -11t9.5 -11t9.5 -14.5l-13 -2 q-17 0 -28 12.5t-22.5 33t-18.5 32t-16 28.5t-9 36zM79 776l85 -147q-18 4 -34 20t-30 45t-16.5 35t-8 14t-7.5 18q0 9 11 15zM245 559q9 9 18 11q5 0 8 -8t3 -21t-3 -26.5t-5 -21.5l-27 -156l-31 -182q-5 -33 -10.5 -59t-17.5 -64l-10 -6l-4 6l12 90l21 105l-5 4 q-14 -33 -28 -89l-25 -103l-4 -2q-2 9 2 26l4 23q0 12 -6 18l-16 -42q-9 -34 -22 -45l29 148l-4 7l-14 -13l-11 -59q-9 -55 -20 -77l-6 7l40 182l35 174l22 173q9 -5 9 -24t5 -24q8 3 10 12l-3 21q2 8 3 10l9 -6q7 -5 14 -1l-51 -347q24 69 39 169l27 192q5 -4 5 -8l-1 -16 h7q1 7 1 11q0 8 1 11zM97 540q3 -8 3 -15q0 -10 -2 -18l-2 -18q0 -10 5 -18q4 4 6.5 9.5t2.5 16.5l4 33l11 -6l12 16q7 -25 7 -52q0 -11 -1 -24.5t-3.5 -27.5t-7 -32t-13.5 -42q-8 -62 -15 -105.5t-17 -84.5q-15 -77 -47 -146q-3 8 -11 2l-11 -11q-3 2 -5 9l3 16q0 6 -7 10 l55 284q-3 7 -5 25q0 18 3.5 29.5t6 18.5t8.5 17v39q3 15 6 32t14 43zM164 196l-11 -31q-3 -11 -1 -21z" />
<glyph unicode="j" horiz-adv-x="333" d="M201 768q31 -6 61 -43l49 -63l-1 -22q-12 5 -21 18l-17 25q-6 -5 -6 -12l6 -17q5 -11 2 -21h-8q-19 32 -40 60t-48 43q9 0 22.5 -10.5t22.5 -15.5l6 3l-31 45zM212 676l21 -23q20 -20 20 -37l-8 8q-5 5 -11 5l2 -18q-4 8 -17.5 21.5t-23.5 18.5q0 -7 10 -27l11 -23 l-26 24q-1 -8 9 -29q11 -17 10 -29l-16 13q-11 11 -20 8q0 -2 -1 -8.5t-1 -13.5q0 -10 -9 -12l-11 4q-3 6 -35 38q-31 34 -31 54l5 5l31 -26q27 -24 41 -28q-3 15 -15.5 27.5t-39.5 33.5q9 0 9 8q-6 11 -6 16q7 5 13 5q-1 5 1 7l4 6q9 9 24 11q14 0 32 -14zM264 524 q6 -7 10 -20.5t4 -28.5l-1 -23v-18q0 -23 6 -38q-5 -22 -18 -109.5t-40 -137.5q-5 -37 -14.5 -71t-26.5 -72l-52 -119q4 4 9.5 11t11.5 15l25 41l19 -5l-59 -95q-37 -53 -82 -74q10 16 43.5 61t33.5 79l-45 -62l47 96q0 -7 0.5 -9.5t1.5 -3.5q16 16 23.5 28t9.5 23t2 20 q-6 -3 -12 -12l-14 -25q38 110 54.5 192.5t22.5 140.5t6 113v12v50l-4 31q7 -3 10.5 -19.5t8.5 -21.5q3 2 5 15l-1 19q0 16 16 17zM297 523l16 -20q0 -162 -24.5 -291.5t-86.5 -244.5l-14 3q56 111 82.5 256.5t26.5 296.5zM184 447q0 12 2 23.5t5.5 22.5t20.5 14q3 -9 3 -18 q0 -6 -1.5 -14t-2.5 -14l-4 -27q1 -8 2 -12q0 -82 -9 -157t-37 -188.5t-71 -179.5q-40 -68 -51 -90q-8 -19 -18 -29q0 6 8.5 19.5t8.5 23.5q-9 -1 -15.5 -15.5t-12.5 -19.5l-1 12q0 23 23 72l24 54l11 43q0 -6 5 -13t13 -9q7 3 9 5l4 6q-2 3 -5.5 7.5t-7.5 11.5t-13 4 q14 51 23 101.5t9 99.5l7 260l1 5q6 -9 9 -21t3 -29v-29q0 -14 2 -21q9 9 9 32q0 20 4 32l3 -2q-3 3 0 19l5 25l-1 9l11 6l3 -78l4 -62v-27l-4 -28l3 -6q2 5 5 19t5.5 30.5t2.5 40.5l-3 68l-2 50l2 -9q0 -12 9 -17zM239 449l-4 -32l-1 -27q0 -19 2 -26zM133 313l-5 27l4 -30 zM121 -155h-7l-1 -9z" />
<glyph unicode="k" horiz-adv-x="673" d="M268 801q3 5 12 13q11 7 17 7q8 0 12 -7l-26 -148l-28 -171l-10 -139l5 -7l227 214l-63 -74q-2 2 -9 2q-6 -2 -6 -7q-3 -18 -23 -38l-36 -34q-24 -11 -48 -35l-47 -45q0 -12 9 -15l102 90q90 80 149 147h6q-11 -31 -54.5 -68t-56.5 -55l19 4q32 19 56 43l79 83 q-2 -3 -4.5 -7.5t-10 -15t-9.5 -21.5q14 8 41.5 40.5t54.5 35.5l-1 -22l1 -23q7 4 9.5 6.5t5 3.5t4.5 2q3 -5 3 -7q1 -5 2 -6l-111 -95q-3 5 -9 7l-10 -7q-7 -6 -15 -4q-11 -22 -49.5 -48t-52.5 -38q5 -35 32 -75l53 -79q12 -5 30 -31t25 -30q-9 17 -56 81.5t-58 103.5 q72 -111 105 -152.5t76 -79.5v-11l-16 -2v-5q-2 -2 -10 -1q-6 3 -10 11l-10 -21q-55 44 -102 118l-91 145q-13 -3 -14 -14q1 -3 1.5 -5.5t3.5 -9t5.5 -11.5t3.5 -8l106 -149q36 -52 52 -64t22 -24q-32 15 -70.5 65.5t-55.5 66.5q-18 22 -46 71t-42 65l-3 -7q8 -25 23.5 -52 t38.5 -57l88 -112q2 -6 17 -19t17 -28q-53 41 -103 117l-92 145q0 -18 20.5 -60t20.5 -67l13 -23q11 -20 30 -20q6 -24 41 -60l41 -46l-3 -22q0 -9 -6 -9l-9 3l-108 126l-107 140l-5 21q-2 9 -7 12q-17 -38 -27 -129.5t-22 -127.5l-1 18q0 18 1 26.5t7 33.5l8 53v12l-2 12 q6 14 11.5 45t11.5 44v13q3 9 -2 11q-21 -3 -21 -30t-5 -33l-22 -122q-4 -24 -9.5 -45.5t-13.5 -42.5q-5 0 -6 2v10q-6 6 -12.5 9t-6.5 13q17 70 33 185l26 175l-13 -13l-18 -114l-5 13l-8 -8l-19 -131l-23 -148q-5 0 -8 10q0 9 -3 12q-3 -4 -9 -11t-15 -20t-28 -10l39 223 l31 230q9 3 10 14l-3 16l-3 18q0 9 2 12q0 21 4 54.5t17.5 101t13.5 98.5l13 -7q2 2 7 20t16 23q0 -58 -1.5 -79.5t-6.5 -57.5l-28 -182l-25 -186q13 26 17 68t7 69t5 39l20 137q15 114 33 183l9 -7l-10 -55l-5 -55q0 -25 6 -49l-13 -3q9 -12 9 -31q0 -11 -4 -30l-4 -29 q0 -13 4 -21l31 151q-3 6 -5 14q1 3 1.5 5t6 10t8.5 17l2 46l-6 -10l3 43q3 -3 10 1l8 5q5 -4 6 -6zM133 791v-18v-12q0 -39 -2.5 -59t-6 -31.5t-11.5 -27.5q0 -53 -6 -94l-15 -101q0 -22 -4 -58.5t-17 -110.5t-13 -108q-8 -85 -29 -154q-6 4 -7 19l1 15l1 13 q12 39 24 133.5t19 115.5q0 77 9 154l25 160zM288 794h5v10h-5v-10zM282 753l-21 -135l-16 -123l9 2q0 23 3 54.5t14 104t11 97.5zM555 501q7 0 11 10q-7 -1 -8.5 -3t-1.5 -3t-1 -4zM233 412l-13 -83q8 8 12 23l4 30q0 15 -3 30zM109 210v-19q6 3 6 19h-6zM573 117l-19 25 l-3 -1zM543 491l-15 -13zM122 266l-3 -33z" />
<glyph unicode="l" horiz-adv-x="284" d="M251 823q6 2 12 -4l6 -12l-30 -222l-28 -233l-11 -197q0 -21 35.5 -39t35.5 -37l-3 -16q-23 8 -53 22t-37 31l-6 26l-1 22v30v12v8q-2 5 -2 7q-11 -19 -11 -47q0 -37 14 -71q13 -13 52 -35l42 -23l-11 -13q-66 21 -98.5 41.5t-32.5 66.5l6 74l2 78q-7 -19 -12 -48 q-3 -27 -3 -58v-37l1 -35q9 -27 23 -48t35 -29l-19 1q-8 0 -14 -6q12 -15 41 -15q31 0 38 -2q-10 -8 -20 -12l-23 -4q-14 0 -43 9l-38 13l-20 20l-7 -7l15 -17q-3 -6 -13 -6q-8 0 -23 18.5t-27 58.5q-4 18 -7 40.5t-3 44.5q0 23 4 61.5t17 117.5t13 104l11 8q5 3 10 3l2 -15 l-4 -23l-3 -24q1 -11 2 -15q3 7 6.5 21t8.5 51t11 60l-6 7q-6 -2 -9 -11l-2 -17v-16q-1 -6 -10 -7l-9 2q7 3 8 7q-4 12 -8 19q0 40 22 145.5t22 144.5l15 1l28 -1l14 1h7l-18 -136q-12 0 -12 -6q3 -6 5.5 -9.5t4.5 -10.5q-2 -5 -4 -7l4 -56q15 39 21 102l12 122l9 7l4 -6 l-64 -491l7 -11l7 10l25 192l24 191q8 59 25 132l10 -10q5 -2 8 -10l-35 -329h4l29 196zM99 639v-4l5 24zM98 615q-9 -14 -9 -24l3 -9zM86 348l-11 -116l-4 -96q10 -8 16.5 -36t23.5 -37l-8 29q-6 26 -18 35q-6 32 -6 65v35q3 18 4 27l9 85zM55 332q-6 -3 -6 -12t6 -12 q3 3 3 13q0 5 -3 11zM47 235l-3 -20l-2 -15q0 -9 5 -14v49zM65 50l-20 33l15 -35zM131 59l-6 -11l22 -3l-7 8q-2 3 -5 4t-4 2z" />
<glyph unicode="m" horiz-adv-x="931" d="M852 503q5 3 9 3q7 0 17 -8l20 -18l-24 -127q-12 -66 -12 -117v-25l4 -38q3 -26 9 -55l15 -65l-16 -6l-21 -4q-11 0 -18 8l-8 -7q-6 -6 -12 -1q-14 49 -19 87.5t-7 65t-2 55.5q0 98 24 176l-4 7q-15 -17 -23 -54l-9 -65l-4 -65v-30t4 -42l25 -150q-15 29 -26 83l-13 81 l3 104q0 27 2.5 49.5t8.5 60.5l-17 2q-6 0 -11 -4l17 -12q-19 -82 -19 -162q0 -115 37 -208q-9 -9 -22 -9q-5 0 -13 3l-23 72q-3 -9 -3 -18q0 -12 7 -34l8 -26q-30 7 -34 38q-11 53 -11 120v56q3 25 4 37l7 73l-11 -3l-151 -164q-40 -49 -68 -126l-8 16l-5 -9l-10 18 q0 -7 -6 -15l-10 -11l-12 8l-3 -7l-17 35q-3 -3 -3 -9v-15q-1 -4 -8 -7l-4 36q-4 -3 -10 -20q-3 -16 -13 -17q-9 2 -12 4l-3 15q0 44 15 143t15 134q-2 6 -12 6l-92 -112q-30 -39 -60 -92t-46 -111h-24l1 14q0 7 -6 10q-2 -2 -3 -4.5t-4 -11.5t-14 -8q-2 2 -4 9l4 13l4 12 q0 5 -9 10q-6 -4 -9 -22.5t-14 -21.5l-4 24q-3 -2 -6.5 -4.5t-11.5 -10.5l-5 17q-3 -4 -5 -6q-1 -4 -7 -3l14 127q6 59 6 110v12v37q-3 24 -4 36q0 21 -3.5 36t-12.5 43l14 3l13 2q10 0 15 -5l3 12q0 8 7 11q8 -1 11 -17.5t7 -20.5q6 3 6 17l1 16q6 -6 16.5 4.5t17.5 11.5 q6 0 14 -11q0 20 21 20l14 -14l20 -158l152 125q23 18 49.5 31.5t61.5 24.5q-3 -6 -14 -13l-21 -10l-27 -18q-22 -13 -23 -29q-53 -44 -113 -119l-109 -140l-4 -21q0 -6 4 -10l109 142q56 71 93.5 111.5t56 56t36.5 27.5q16 3 32 -6l-15 -73q-4 -19 -7 -40.5t-3 -34.5 q10 18 19 60l17 78v30q9 3 15.5 -3t9.5 -17q0 -16 -3 -42.5t-13 -88t-10 -79.5l168 165q10 4 49.5 37t65.5 33q3 -7 10 -8q3 1 5.5 2t12 8t17.5 4zM736 439q-7 -9 -25.5 -26t-49 -45.5t-41.5 -47.5l22 20q-13 -30 -55.5 -74t-56.5 -71q54 69 135 150l132 133q-15 -2 -38 -20 zM179 467l8 -38l-2 17q0 6 4 11q7 -2 10 -5q-3 9 -7 13q-2 4 -13 2zM102 431l-9 -2q3 -6 6 -24q0 -18 11 -24q0 -11 -4 -14q2 -11 3 -18t1 -22q0 -25 1 -28q0 -32 -3 -62t-5 -49l-7 -102q25 66 25 134l1 49l1 48q0 13 -0.5 28.5t-3 31.5t-6 27.5t-11.5 26.5zM189 422 q-3 -2 -2 -8l9 -7zM460 419l-24 -119l-15 -107q29 120 39 226zM332 396q-18 -11 -28.5 -20.5t-14.5 -13.5t-12 -16l3 -6zM396 369l3 -8v6zM464 338l-17 -77q-6 -29 -6 -54v-12zM716 285l6 41h-5zM222 277l20 21q10 10 14 23q-12 -3 -24.5 -17.5t-9.5 -26.5zM482 258l7 58 l-11 -72zM137 310l2 -25q3 10 -2 25zM257 285l20 23q-8 0 -12 -9t-8 -14zM554 247l16 21l-22 -28zM538 228l4 10l-7 -16zM514 197l11 21l-8 -15zM133 160l3 21l3 23l-2 13zM414 159q-5 -16 -7 -33q1 -8 2 -12q8 14 8 31q0 6 -3 14zM868 416l-3 -12zM862 391l3 7zM724 349 l-2 -6zM431 152l3 26z" />
<glyph unicode="n" horiz-adv-x="576" d="M526 506l12 -27l-16 -72h-7q0 -19 -4 -48.5t-17 -90.5t-13 -104q-2 -17 8 -32.5t19.5 -24t18.5 -8.5h16q9 -1 6 -14l-27 -12l5 -13q4 -10 3 -20q-29 -21 -69 -21l-35 3q-20 3 -51 16q-24 12 -33 33.5t-9 54.5q0 16 3 43l5 38l24 147q-20 -5 -34 -17l-52 -51 q-35 -38 -89 -113l-79 -112q-3 -14 -6 -17.5t-6 -5.5q-3 8 -11 8q-5 0 -13 -6l-1 16l-15 -28q-6 3 -7 10q1 7 2 11l3 10q0 6 -4 11q-5 -4 -14 -29q-6 -22 -23 -19l-7 -7l2 81l19 157q6 29 9.5 49t11.5 81t8 111q9 4 15.5 -3t9.5 -8t4 -2q0 -25 -9 -88l-8 -86l14 13l-1 12 q0 5 1 16t5.5 33t4.5 32t-2 18q8 9 9 24l1 23q5 -3 8 -2t4 5l3 21q9 3 15 -3t6 -18q0 -24 -12 -91t-12 -92l3 -34l4 1l37 227l7 8q7 -16 7 -30q0 -8 -4 -27l-3 -32v-9l-23 -114l5 -11l8 14l31 200l4 6l6 3q6 -23 6 -45q0 -19 -1.5 -28.5t-6.5 -32.5l-18 -81l8 -6 q19 11 70.5 62.5t85.5 57.5l63 45q52 38 94 38h16zM473 500q3 -9 8 -9zM496 492l21 -14l-4 10q-1 9 -7 10zM477 475l-7 6l-8 -6h15zM467 441q-23 -56 -37 -126l-21 -163q0 -27 4.5 -42t22.5 -25l-11 37q-3 18 -3 43q0 32 12 98l13 78q30 48 44 116q-5 0 -14 -6zM388 431 q3 -15 -16 -25.5t-23 -20.5l47 31q18 15 15 36l-14 -7q-6 -3 -9 -14zM299 400l-66 -64l2 -2l30 25q25 21 34 41zM338 400l-27 -27q-9 -9 -12 -16q3 7 17 13.5t19 14.5q5 4 5 7q-1 6 -2 8zM411 378q-14 -22 -14 -46l1 -12l8 28zM130 173l91 100l75 81l-93 -87 q-48 -45 -73 -94zM488 346h-5q2 -15 -5.5 -36.5t-10 -32t-3.5 -18.5l3 -16zM69 299l-34 -190l3 -5q18 77 24 118zM392 294q-12 -25 -16 -58t-6 -51.5t-3 -22.5q0 -33 13 -59.5t40 -41.5l25 -7q14 -3 28 -3q18 0 31 5q-39 0 -64 7t-46 31q-10 14 -14 30t-5 20.5t-1 16.5 q0 20 9 69t9 64zM118 253l-1 7l1 -11v4zM465 239q0 -21 -2 -40q0 -11 -0.5 -17.5t-1.5 -11.5q0 -14 3 -27.5t13 -27.5q-8 13 -11.5 27t-3.5 32l1 32q0 22 2 33zM159 143l3 9l-6 -11zM447 90q-2 -5 2 -7l10 -2zM502 391l-9 -29z" />
<glyph unicode="o" horiz-adv-x="585" d="M212 478q25 7 62.5 22.5t61.5 21.5t43 6q-38 0 -83 -26l-84 -50v-5l99 46v-11h9q0 15 22 21l44 10q32 0 54 -8t40 -17t33 -19q52 -63 52 -156q0 -24 -2 -36t-10 -48.5t-43.5 -92t-92.5 -87.5l-47 -22q-39 -17 -62 -17h-9q-66 0 -111 6.5t-89 27.5q-39 33 -53.5 82 t-14.5 107q0 74 51 137.5t130 107.5zM324 470q9 0 25 -5l26 -4q5 0 13 3q-17 10 -41 10q-15 0 -23 -4zM412 472q7 -7 16 -11.5t9 -11.5h10q32 -29 52.5 -69t27.5 -87q3 12 3 23q0 14 -6 35l-11 39l-42 53q-27 29 -59 29zM345 436l-25 4l-15 2q-10 0 -15 -4q8 3 14 3 q9 0 23 -5l21 -5zM230 438q-40 -27 -62.5 -53t-30.5 -66l-1 -29q0 -19 -2 -29q0 -18 2.5 -26.5t9.5 -19.5l1 15l-1 20q0 12 -2 20l1 12l-1 12q0 39 31 80zM434 376q18 -25 26 -50.5t8 -50.5q0 -24 -5 -41l-16 -43q-11 -27 -13 -39l31 62q9 16 13 31.5t4 31.5q0 8 -1.5 17 t-5.5 20l-35 73q-24 40 -62 46zM184 431q-52 -28 -85 -88t-33 -127l12 58l47 93q20 37 59 57v7zM276 424q7 -7 27 -10q17 0 27 -6q-8 5 -25 10zM247 408q-27 -12 -45.5 -39.5t-18.5 -60.5q-5 -28 -5 -35.5v-12.5q0 -46 17 -83q18 -35 40 -50l43 -20q20 -6 40 -6t35 7 q23 21 33.5 52t10.5 66v15q0 7 -2 19q0 13 -7 37q-7 6 -13 17l-7 23q-17 33 -50 52t-71 19zM342 408l-2 -5q26 -16 48 -40t34 -53q3 26 -19.5 50t-60.5 48zM548 340h-7q-3 -3 -1 -12q4 -8 8 -12v24zM434 287h-5v-30h5v30zM120 274l-4 -23l-1 -26l1 -25l1 -20q9 -42 43 -72.5 t79 -42.5l-4 3q-53 24 -85 75q-15 26 -23 53.5t-8 59.5zM540 251l-2 2l2 -6v4zM93 213q0 -36 12 -69t38 -46q-17 19 -28 43zM376 66l3 -4q24 13 43 25.5t45 36t38 63.5q-27 -34 -52 -58t-42 -38t-35 -25zM93 144q5 -26 22 -51q19 -25 34 -35t20.5 -12.5t17 -5.5t34.5 -3 l27 1l25 1q-58 0 -107.5 27.5t-72.5 77.5zM420 129v14l-28 -40zM168 79l-7 4l12 -8z" />
<glyph unicode="p" horiz-adv-x="676" d="M574 526q25 -13 42 -28t20.5 -33.5t5.5 -30.5t2 -27q0 -41 -17 -89l-32 -93q-46 -98 -149 -148t-225 -50q-12 -34 -23.5 -127.5t-14.5 -103.5h-7l11 95q9 72 9 107l-18 -83l-15 12q-4 -3 -8 -11q-3 -8 1 -17q15 -8 15 -28q0 -9 -6 -29l-9 -34l-7 -16q-3 -5 -13 -5l2 72 q0 47 2 53q-6 -9 -19 -55.5t-33 -60.5q11 16 14 52l4 62q-14 -8 -20.5 -25t-6.5 -41q-4 -7 -9.5 -37.5t-16.5 -39.5q-2 6 -4 18q0 9 3 19.5t8.5 25.5t5.5 26l8 163l18 188l9 168q0 80 -10 147l9 10q3 -10 13 -6l5 7l15 -117l9 -9q8 16 8 35q0 13 -6 40l-5 37q0 8 3 19l12 2 q26 0 26 -34l3 -1q6 0 6 11l1 16l5 -22.5t1 -12.5l1 -40l-1 -36v-36v-26l2 -16q6 12 10 38t4 51l-1 21v22l-6 63q6 -2 9 -4t10 -10l19 -19v-22q0 -17 2.5 -23t10.5 -5l-10 -14q-3 -6 -3 -11l2 -7q12 6 32 28.5t42 37t39.5 23.5t40.5 20q48 19 89 19q48 0 86 -25zM346 522h-5 l10 4zM59 513l9 8q3 3 9 1q5 -38 9 -93.5t4 -99.5l-6 -144l-19 -208l-14 8q-5 3 -5 13q8 45 10.5 64t2.5 49l5 126l-3 162v23v19v15v11v30q-2 13 -2 16zM337 519l-61 -48q5 7 11.5 13.5t22 18t27.5 16.5zM397 522q3 1 6.5 2.5t9 5.5t12.5 2q-2 -7 -14 -7q-9 0 -14 -3z M518 511q31 -27 43 -59.5t12 -73.5q0 -42 -14 -79q27 47 27 100v16q-4 19 -5 29q-12 27 -31 46t-45 32zM458 538v-6q5 -3 18 -5q15 0 16 11h-34zM384 513l6 4l-3 2zM393 488q-38 -17 -68.5 -41t-48.5 -60l32 27l2 -6q-6 -12 -35 -42t-34 -63l60 87q31 45 70 76q6 6 19 3z M458 483l-3 -4q43 -56 55 -80t12 -54v-9l2 16l1 17l-3 32q-4 16 -9 27.5t-17 28.5t-38 26zM190 455q-2 -2 -4 -13v-6q3 -1 5 -1zM405 455q-77 -46 -126 -113t-49 -149q0 -16 3 -37q13 -10 34 -16q20 -4 27 -4.5t16 -0.5q35 0 61 10q45 26 70.5 73t25.5 99q0 14 -2 27 q0 8 -0.5 13t-1.5 9q0 9 3 21q5 -5 8 -26q0 -17 8 -25q0 12 -1.5 18.5t-5.5 21t-6 24.5t-3 16q-8 16 -25.5 27.5t-35.5 11.5zM593 444v-94q11 17 11 38q0 17 -5 31zM261 406q-3 -3 -8.5 -12t-7.5 -20q7 5 12.5 13.5t3.5 18.5zM478 312l-12 -59q-3 -23 -17 -42 q-11 -18 -13 -27q24 14 33 41t9 66v21zM507 271l2 31l-15 -53zM133 240l-20 -225l-6 -25l-2 -24l3 -25q6 5 6 15q0 19 6 25l10 123zM572 219q-34 -52 -88 -95t-113 -65q63 11 116.5 55t84.5 105zM386 111q19 0 28.5 6t63.5 52zM170 156l-13 -99q-6 -51 -6 -89q0 29 10 85.5 t10 78.5zM228 121l-4 -10q8 -6 21 -13q13 -5 33 -5q18 0 27.5 2t15 3t18.5 5zM344 99q21 0 22 10l-16 -4q-6 -4 -6 -6zM224 59v-15q12 0 18 -2h14q24 0 50 4t53 13q-9 0 -21.5 -1t-28.5 -4l-39 -4l-24 1q-10 2 -22 8zM233 457v34v-34zM585 282l12 21z" />
<glyph unicode="q" horiz-adv-x="643" d="M453 550q26 -7 45 -21q18 -11 26 -33q6 -2 6 -13q0 -13 2 -15l27 42l-16 -66q5 5 17 32q9 26 14 31q6 -9 8 -26q0 -11 -9 -35.5t-11 -32t-3 -18.5l-20 -70l65 141l8 -7q-47 -116 -68 -196t-28 -130.5t-7 -105.5q0 -63 10 -117q-10 3 -15 26.5t-18 24.5l4 -66l5 -48v-15 q-26 29 -35 86l-13 105q0 51 6 101.5t20 107.5l44 183l-11 -11l-41 -150q-2 -8 -10 -45t-17.5 -95.5t-9.5 -121.5l3 -64l-31 9l-3 33l-1 36q0 81 21 177l41 186l-5 7q-24 -24 -33.5 -82t-21.5 -78l-22 -111q-3 -24 -5 -46t-2 -48v-27.5t4.5 -38.5t14.5 -55q6 -12 11 -48.5 t13 -53.5l-52 -2q-11 27 -19 62l-5 69l5 91l5 86q-66 -48 -104 -63.5t-75 -15.5l3 8q3 6 -1 9q-6 0 -6 -9v-8l-46 8q0 5 12.5 13t13.5 15l-3 8l-59 -13q-7 1 -26 14t-33.5 54.5t-14.5 92.5v27l5 52q17 65 60 122.5t106 95.5l-72 -74l7 -4q59 59 132 94t151 35q12 0 26.5 -1 t30.5 -4zM406 -85q12 6 20 6q19 0 25 -43t15 -54q-4 -6 -8 -8q-6 -3 -11 1q0 14 -5 15l-1 -10l-1 -16q-8 -2 -14.5 6.5t-6.5 19.5l1 10q0 9 -7 28t-10 32zM519 -99q3 -6 6 -19l5 -20q-17 8 -17 25q0 6 6 14zM484 510l13 -16v6l-7 8zM335 472l-2 -6q27 0 51.5 -15.5 t42.5 -42.5l2 16v15q-17 15 -42 24t-52 9zM288 441q-48 -10 -72.5 -52t-34.5 -80.5t-10 -46.5v-11q0 -10 0.5 -21.5t8.5 -31.5t20.5 -34.5t27.5 -19.5l30 -4l21 1q17 0 51.5 9.5t52.5 89.5l23 133v-6q-2 -4 -3 -5l-5 1l-5 6q-11 31 -35 52t-55 21zM52 350l25 31q18 21 21 36 q-19 -19 -29.5 -33.5t-16.5 -33.5zM124 348q-55 -75 -55 -163q0 -27 6 -54h10l-2 9q0 8 -3 13q0 55 10.5 104t33.5 91zM41 321l4 17l-13 -42zM539 315q-14 -32 -22 -68l-13 -84h4zM140 271q-3 -12 -5 -22t-2 -23q0 -21 4.5 -40.5t12.5 -40.5l-8 7q-3 3 -6 4t-4 2l31 -42 q27 -16 58 -16q9 0 21 3v4h-21q0 13 -5 14q-6 -3 -9.5 -5t-12.5 -2l-28 16q-10 6 -12 15l35 -16q-50 47 -50 119zM290 81q7 7 34.5 22.5t30.5 36.5l-36 -27q-17 -12 -29 -32zM101 127l-2 -16l36 -36q14 -13 34 -10zM375 546q-107 -27 -184 -78.5t-113 -137.5 q79 92 164 148.5t184 56.5zM379 512v-8q18 -3 38 -15l30 -19q5 -7 12.5 -23t7.5 -29l-1 -10q13 16 13 35q0 20 -19 30q-13 15 -27.5 21.5t-23 9.5t-30.5 8zM375 -145q-3 -5 -3 -13q0 -9 5 -12zM71 325v-10v10z" />
<glyph unicode="r" horiz-adv-x="467" d="M404 532l5 -48q0 -47 8.5 -87.5t12 -55t15.5 -51.5l-5 -17q0 -11 -2 -14q-14 5 -17.5 -9t-16.5 -10l-28 51l-12 30q-2 -6 -4 -18q0 -13 3 -19.5t31 -51.5q1 -6 -3 -10l-12 -3q-23 23 -35 68l-18 87q-9 -6 -9 -19l6 -39q2 -17 4 -26t10 -28q9 -29 27 -67q-10 0 -11 -7 l1 -13q0 -6 -9 -11q-21 21 -35 63l-20 79l-1 20q0 9 -7 26q-4 -1 -14 -13l-11 -14l14 2q-44 -61 -69 -132t-43 -166q-4 -5 -29 -8l24 108l-35 -101l-16 -7q26 66 26 137q-14 -22 -25.5 -75.5t-17.5 -65.5l-22 -10q-15 -6 -22 -19q-11 4 -17 18l-7 20q10 43 20 99.5t21 142.5 t11 195l13 3q11 2 15 9q21 -8 27 -34l9 -87q0 -22 -12 -71.5t-12 -66.5q0 -27 -14 -76l-15 -59l10 12q6 25 33 116.5t27 150.5q0 16 -1 30.5t-4.5 32.5t-20.5 52l4 7q9 -5 17 -24l13 -38q5 7 5 18q0 12 -5 26l-7 21h24l-1 21q24 -5 24 -36q0 -30 10 -39q2 4 4 15l-2 28 q0 14 11 20q4 -12 7 -39l2 -45l-1 -31v-29q21 15 38 34.5t22 40.5l23 18q21 18 27 37q8 0 13.5 5t7.5 15l1 4l4 3l9 -10q6 5 8 21v11q0 6 8 6zM88 460q13 -49 13 -93q3 17 3 33q0 20 -3 33.5t-13 26.5zM349 450q-3 -8 -3 -19q0 -10 5 -16l2 2l3 20q0 9 -7 13zM181 288h4 q15 44 15 94v16l-2 17zM279 380l-44 -44q-4 -12 -8 -20l3 -8l31 39q12 17 18 33zM318 273q0 -20 7.5 -40t19.5 -28l-12 33q-6 23 -15 35zM175 231l-16 -55q9 6 12 24zM52 81l-7 -14q-3 -6 1 -11zM79 75q-1 -4 -2 -9t-6 -19.5t-5 -25.5q1 1 4 8.5t6 18.5t3 27zM353 475l1 7z " />
<glyph unicode="s" horiz-adv-x="544" d="M357 528l24 2q24 0 47.5 -6t48.5 -18q8 2 17.5 -1t22.5 -17v-8q-10 0 -21 4q-9 6 -12 13l3 3q-2 2 -9 4q-9 -3 -14 -3q-7 5 -9 9q-14 0 -56 6l-56 7q-19 0 -28 -2q-12 0 -29 -11l76 -3q27 0 67 -10l7 -11q4 7 20 8l14 -1q10 -5 21.5 -19.5t21.5 -23.5q-6 -29 -18 -29 q-8 0 -30.5 21t-35.5 20l-37 9q-12 3 -16 13q-7 -2 -22 -4q-15 0 -36 4l-27 5q-16 0 -30 -9q4 -11 12 -13q8 2 12 4l11 5q2 -1 4.5 -2t4.5 -5l21 2h15.5t18.5 -2.5t22 -5t22 -7.5l8 -18q5 5 12 7q5 0 19 -9q11 -9 20 -10q6 -6 9 -13l6 -22q-86 38 -121.5 48.5t-67.5 10.5 l-34 -3l105 -22q-9 0 -26.5 6t-26.5 6q-7 0 -19 -6l65 -16q62 -15 89 -46q-16 4 -56 18.5t-62.5 19.5t-42.5 5h-17q-8 0 -25 -3.5t-17 -25.5q0 -13 9 -30l30 -25v15q16 -18 102 -66t92 -111q6 11 6 21q0 11 -6 25l-11 26q-6 6 -85 54t-97 83q19 -26 117 -78t98 -127 q0 -31 -9.5 -56.5t-31.5 -42.5l12 41q3 10 5 28q0 20 -11 35l-4 -39q0 -29 -10 -47q3 -24 -22 -48l-27 -21q-63 -30 -136 -30q-110 0 -184 58q6 0 12 9v10q-5 -2 -14 -4q-11 0 -20 10l-18 34q-3 13 1.5 18t16.5 11l33 -56q14 -23 31 -33l33 -16q15 -6 16 -22l30 -1 q2 -7 4 -11q3 3 15 5l23 -2q9 0 17 6q-5 1 -18 2.5t-27 4.5t-26 18q-15 0 -27 6l-54 39l-18 26q-7 12 -7 22q0 6 4 13q17 -42 51 -75q33 -29 75 -35l36 -6l31 -2q22 0 38 8q-23 4 -50.5 10t-65.5 15.5t-71 45.5l-35 53q5 -2 14 -15.5t17 -18.5q-6 12 -6 28q0 21 12 38 q15 -36 46 -63.5t75 -48.5q8 -8 22 -14q12 -3 33 -3h14q7 0 21 2l23 3l15 30l-1 -22q8 1 12 3.5t4 4.5q0 47 -30 79q0 -6 6 -26l8 -24q-18 50 -102.5 82.5t-106.5 59.5q-21 29 -30 51t-9 45q0 15 6 33q9 35 35.5 68.5t63.5 44.5l1 -14l30 15q11 7 18 17q-2 2 -4 2h-7 q20 12 38 19.5t36 7.5q15 0 28 -7zM404 409v4l10 -4h-10zM137 164q36 -42 80 -66.5t95 -24.5l33 3q-8 -8 -26 -8l-16 1q-12 0 -15 1q-19 0 -39 6.5t-48 22.5t-64 54v11zM195 423q11 1 25.5 18.5t19.5 30.5q-21 -8 -33 -18.5t-12 -30.5zM185 397l-4 -11v-21t3.5 -22.5 t18.5 -27.5l-8 38q-3 15 -3 31v9zM168 387q-8 -8 -11.5 -19t-3.5 -26l1 -21q0 -12 2 -19q0 -27 14 -36.5t35.5 -20t27.5 -13.5q-32 12 -51.5 41.5t-19.5 63.5q15 -56 113 -108.5t107 -114.5q3 14 3 26q0 50 -81.5 90.5t-97.5 57.5t-25 50zM146 403q10 9 16.5 16.5t12.5 13.5 l32 36q-27 -20 -42 -34t-19 -32z" />
<glyph unicode="t" horiz-adv-x="467" d="M191 809q3 -5 5 -20v-24q-7 -6 -12 -27l3 -2h7l8 19q0 -29 -15.5 -81.5t-15.5 -79.5q0 -20 4 -33l3.5 10.5t9.5 23t10 31.5l23 107q0 -29 -3 -55l-20 -117q6 -3 9 -3h10q11 25 20 85l17 123q3 3 12 6l2 -15q0 -13 9 -18q6 6 6 23v14q0 7 8 12l6 -7l-6 -121h6 q4 11 10 67.5t23 81.5l3 -4l-29 -227q6 -6 18.5 -10t25.5 -4l26 1q18 0 28 -5q12 -3 19 -19l-19 -21q-5 -7 -7 -13q0 -8 14 -15l-2 -11l-74 13q-11 0 -18 -2t-14 -11q8 -8 49 -14q36 0 49 -15q-14 0 -27 2l-25 3l-15 -1q5 -6 35 -12q30 -3 30 -17q0 -8 -7 -21q-11 0 -44 6 l-42 7q-12 0 -24 -3l-31 -159l-30 -228q-6 -3 -17 0q-8 4 -11 14q8 35 13 79l4 93q-14 -24 -23 -103q0 -37 -8.5 -61.5t-24.5 -42.5l-17 19l24 170l37 215q-3 9 -15 4q-9 -24 -15.5 -75.5t-11 -81t-6 -40t-2.5 -23.5q-5 -20 -8 -39t-9 -33.5t-10 -34.5l-2 -25v-23l-1 -18 q0 -9 -5 -15q-14 10 -14 40l58 358l-3 6l-13 -12l-68 -416l-9 1l-9 13q-6 -4 -8.5 -10t-8.5 -1q-3 7 3 12l14 9l-17 23l50 372q-8 3 -16 3q-9 0 -26 -4l-23 -4q-13 0 -21 5q0 15 6 22t37 24h17q14 0 20 2.5t12 12.5v8l-54 6q-1 6 10.5 13.5t11.5 12.5l-3 8q9 0 22.5 7.5 t17.5 8.5l-33 6q24 6 39.5 20t15.5 39q0 29 4.5 56t8.5 48.5t10 41.5h6q0 -26 -12 -95l-11 -90q17 17 27.5 89t12.5 75l6 39q0 34 20 52zM233 805q9 -3 9 -12q0 -7 -8 -23l-7 -17q-3 8 -3 15q0 10 2 18t7 19zM283 722q-9 -68 -13 -79l-12 -32q3 -2 5 -10l-2 -13 q-1 -10 0 -17l14 43q3 -2 5 -12l-3 -22l3 -9l11 72l-14 -23l3 47l4 37zM92 508l-20 -5q-6 0 -6 -6l19 -1q8 0 12 5l-1 4zM205 478l-14 4l-3 -14zM47 428h18q14 0 17 10q-9 0 -21 -4.5t-14 -5.5zM250 416q-9 -25 -15 -59l-4 -67q3 12 6 23t9.5 31.5t6.5 42.5q0 14 -3 29z M349 558l-10 3z" />
<glyph unicode="u" horiz-adv-x="616" d="M464 512q0 -20 -9.5 -42.5t-15 -37t-7.5 -24.5q19 18 42 59l26 44q12 -6 28 -6q15 0 26 7q-5 -13 -30.5 -60t-34.5 -73.5t-9 -46.5h7l56 148l9 -9q6 3 10.5 18.5t14.5 18.5q3 -3 -0.5 -9.5t-5.5 -13.5l16 7q3 -22 -12.5 -52t-17.5 -46l-32 -132q-9 -45 -9 -104 q0 -5 7.5 -17t9.5 -19q0 -6 -4 -11q3 -9 21.5 -17.5t18.5 -16.5l-3 -10q-6 0 -18.5 8.5t-20.5 8.5l10 -14q-2 -2 -9 -4q-6 0 -14 7l-21 28l-27 43q-13 26 -13 55q-6 -14 -6 -29q0 -28 17.5 -56t48.5 -54q-7 -2 -12.5 -10.5t-8.5 -11t-6 -4.5q-3 1 -5.5 2t-6.5 6 q-3 14 -10 21l-22 23q-3 -3 -5 -10q1 -3 2 -5.5t6.5 -10t7.5 -14.5q4 -3 9 -7t11 -7.5t8 -9.5q-2 -6 -4 -8q-18 3 -29 23l-21 39q-12 30 -12 69q0 25 1.5 35.5t6.5 35.5l17 78q-13 -3 -19 -16l-12 -45v4q-9 -2 -12 -11l-5 -29l9 -79q5 -37 20 -61l42 -51l-21 -10l-15 -4 q-11 0 -20 16l-53 73v44v18l-1 15l-1 14l-112 -97q-45 -38 -96 -61l-2 4q111 81 210 204q-1 2 -1.5 3.5t-4.5 7.5l-183 -173l-7 1h-4q-14 0 -29 -24q-12 -24 -33 -19q-25 3 -45.5 24t-26.5 52q-6 48 -6 96q0 37 3 74.5t13.5 97t35.5 137.5h5l2 -22q0 -13 -3 -30.5 t-13.5 -59.5t-10.5 -57h7l34 150q5 3 6 7q3 1 5 1l1 -10l-3 -22q0 -10 8 -18l-27 -131l30 105l21 82l14 -11l7 11q2 4 10 2q2 -2 2 -12l-1 -11l18 19q0 -43 -17 -110.5t-23 -100t-6 -51.5v-16l2 -17q-3 -3 -5 -15q0 -11 5 -25.5t10 -22.5l13 -14q6 -3 13 -3q5 7 5 15 q0 5 -9 25t-9 29q0 78 11 137l36 162l15 23q3 -11 3 -27q0 -29 -11 -47l-23 -103q-11 -52 -11 -105q0 -49 7 -71.5t9.5 -24.5t3.5 -2q7 4 10 6l48 39q42 34 99 137zM547 413q-21 -34 -32.5 -72.5t-22.5 -96.5l-1 -24l-1 -25q0 -26 5.5 -41.5t20.5 -26.5l-10 23 q-11 20 -11 61q0 42 25 117zM107 369l-28 -97q-9 -39 -9 -84q0 -23 3 -42.5t12 -40.5q1 -12 12.5 -21.5t23.5 -12.5q-1 5 -12 16t-9 22q-21 36 -21 83q0 20 2 37t9 44l23 90zM415 369l-110 -145q18 15 36.5 35.5t42.5 54.5q14 15 21.5 27t9.5 28zM453 336l3 17l-2 3zM59 150 l-3 -8q0 -28 9 -50t31 -32l-29 49q2 3 4 12q0 8 -2 12q-1 6 -10 17zM508 107q-2 -5 4.5 -11.5t14.5 -9.5zM367 132v18v-18z" />
<glyph unicode="v" horiz-adv-x="576" d="M203 512v-72l6 -179q0 -34 7 -65.5t22 -76.5l5 -3q64 81 103 161.5t39 170.5l1 -13v-17q0 -17 3 -26q8 8 11 40l3 31l6 -2q3 -13 3.5 -18t0.5 -18q0 -30 -9 -63l-17 -63q19 25 33.5 77t20 71t9.5 27l4 -49q0 -70 -38 -145t-149 -188h11q53 39 103.5 106t105.5 202 q-3 12 -3 22l3 28l3 27l-1 14l3 -1l4 1q3 -4 3 -7q2 -6 3 -7q9 0 10 11l-1 13q0 6 10 6l5 -19q7 2 9.5 4.5t5 3.5t3.5 2q7 -4 9 -8q0 -88 -33.5 -159.5t-94.5 -145.5l-118 -140l-11 -8q-2 -2 -10 -2q3 14 16 29l24 23l-3 5q-4 -9 -33 -25t-29 -30q0 -6 6 -18h-21 q-7 2 -16 10v-28q-28 24 -43 70l-20 88q-8 34 -12 77l-3 98l1 70l1 68q10 0 16 15q4 15 15 17v-11q2 -6 3 -8zM109 429q3 6 6 33t18 33l2 -197q0 -56 13 -133.5t44 -146.5q-10 0 -24 -12t-21 -14q-7 0 -15 5l-15 29q-2 -4 -8 -5q-6 0 -7 8q-16 31 -30 83l-23 81l-16 102 l-5 85q0 27 2 45t5 32.5t7 27.5q3 -2 8 -10l9 -27q5 1 8 21q0 19 14 22q-3 -11 -3 -19l3 -25l3 -25l-3 -19l6 -3q7 12 7 30l4 37q3 -3 3 -19q0 -14 8 -19zM470 470h4v-15q0 -22 -4 -41l-6 -38q0 11 -2 17v12q0 18 3 36zM188 477q-6 -18 -6 -40q0 -18 6 -35l1 28l2 27 q0 11 -3 20zM164 429v35l-6 -59zM63 440q0 -146 6.5 -215.5t22.5 -127.5l-16 116l-10 132l-2 19l1 28q0 14 2 21v16zM104 352l22 -172l-5 1l-8 75zM159 241h5l-5 50v-50zM368 268v-11h4q1 8 2 11h-6zM246 105q9 5 17.5 14.5t11.5 20.5l-22 -19q-8 -7 -7 -16zM342 127 l-86 -67l8 -6zM271 116l-19 -29l11 11q11 10 8 18zM140 105q0 -46 26 -76zM102 68l-10 19l10 -30v11z" />
<glyph unicode="w" horiz-adv-x="836" d="M777 549q9 -11 12.5 -30t4.5 -26t5 -19q2 7 4 25q0 17 -2 23l-2 11q9 -9 12 -21t3.5 -16.5t0.5 -15.5l-1 -28q0 -18 -10 -88.5t-83.5 -183t-192.5 -158.5l-10 13q-4 6 -15 4q-2 0 -4 -6l2 -6q-3 -4 -5 -5l-20 16q-3 -12 -9 -18l-16 -10q-34 29 -48 59t-59 174 q-31 -25 -95 -104t-92 -101l-12 11l-11 -31q-5 0 -10 6q-1 3 -5 19l-2 20l3 46l4 38q0 25 -7 45q-4 -14 -5.5 -20.5t-1.5 -10.5l-2 -31l2 -47l2 -34q0 -15 -3 -35q-2 8 -15 8q-8 0 -12 -8h-4v62l1 64q0 162 -8 236t-25 137q7 1 11 -4l8 -10q0 -30 6 -53t21 -55q3 14 3 29 q0 26 -6 47l-15 46q12 6 19 6q16 0 25 -30t16 -40l22 -279l3 2l-6 162l-5 146q-3 13 -7.5 19.5t-9.5 8.5q-6 -2 -8 -4q-3 6 3 9l17 6q12 2 18 -13l12 -29q6 -30 8.5 -61t2.5 -68q0 -47 2.5 -73t9.5 -58q8 -2 11.5 5.5t8.5 9.5l-18 -30q7 0 17 13l17 29q-1 6 -7 3l72 127 q33 67 54 130l11 4l11 5q5 0 8 -11q0 -10 -2 -20l-2 -20l1 -12q7 1 8 13q0 12 4 14.5t8 15.5t11 14l9 -3v-19l20 19q17 17 33 20l-4 -19l26 21q0 -136 10 -218.5t55 -156.5l-5 -4v-6l29 29q32 93 45.5 145.5t13.5 108.5q0 44 -10 81l17 8q19 -55 19 -108q0 -73 -25.5 -140.5 t-70.5 -133.5q15 4 31 23t47 78t31 165q0 60 -18 119q12 -16 17.5 -35.5t7.5 -31.5t2 -27q0 -10 -1 -26.5t-4 -38.5l-5 -63q19 25 25 92q0 31 2.5 49.5t6.5 31.5q0 8 -6 27.5t-6 28.5q0 5 3 13l11 -10q6 3 11 3q9 0 15 -22.5t15 -28.5q3 6 3 14t-4 20t-5 17t-1 7q1 7 2 9 q3 -3 9 -5q10 7 17 9zM18 511q9 -6 16 -25l9 -23q0 -35 2 -67.5t11.5 -127t9.5 -138.5v-37l-4 -39l-14 -13q12 0 12 -10q-1 -7 -2 -11t-6 -9.5t-11 -5.5q-4 4 -4 14q0 8 3 16q-8 53 -12.5 107t-4.5 103q0 78 -11 142.5t-28 112.5l4 4q3 -3 10 -5q5 0 20 12zM759 461 q0 -19 -7 -48l-7 -47v-16l4 -11l16 104l-1 18h-5zM400 452h-5l5 -14v14zM378 416q-5 -3 -5 -14q0 -6 5 -7l4 13q1 5 -4 8zM334 389l-89 -170q27 33 50.5 75t44.5 92zM100 371l-4 15l4 -26v11zM779 324l2 28l-4 -31zM492 350v-21.5t4.5 -34.5t10.5 -39zM338 335 q-26 -49 -56.5 -88t-69.5 -71l22 32l-29 -32q-15 -17 -15 -32q0 -7 6 -19q35 37 71 84t67 98zM406 335q-9 -18 -9 -42l3 -40l4 -34l27 -99q12 -39 33 -68l-32 80q-16 45 -16 76l30 -76q14 -35 39 -68l4 2l-56 126q-27 66 -27 143zM448 319h-6v-39q0 -11 3 -18.5t9 -14.5z M107 293l-4 4l4 -12v8zM378 293l-3 -19.5t-1 -19.5q0 -19 2 -34t10.5 -41.5t29.5 -64.5l-21 86q-8 46 -8 83zM661 205l15 55l-69 -131zM717 206q-18 -25 -58.5 -65.5t-49.5 -52.5l69 61q27 26 39 57zM96 75v24h-4zM478 49q-3 -14 14 -14v6q-7 2 -14 8zM606 217l3 16z" />
<glyph unicode="x" horiz-adv-x="517" d="M179 522l29 -9l78 -163l109 127l1.5 -6t1.5 -3q5 4 11.5 17t15.5 16l4 -15l26 33q3 -1 4.5 -2.5l2.5 -2.5l-13 -24q1 -2 2 -4.5t5 -4.5l24 11q2 -3 4 -12q-1 -3 -1.5 -7t-3.5 -10l-6 -18q-10 -14 -29 -36t-63.5 -71.5t-54.5 -63.5l8 -9l48 52q2 -10 -22.5 -32t-24.5 -33 t15 -23l47 -58q18 -20 33 -28.5t17 -15.5l-3 -11q-3 -7 -1 -12l-5 -1q-28 17 -62 54l-61 70q-2 -2 -4 -9q1 -4 1.5 -6.5t6.5 -9.5t8 -16l90 -99q-14 9 -19.5 12.5t-17.5 13.5l-41 38l-2 -2q10 -8 33 -40q23 -29 44 -41v-7q-36 9 -73 49l-66 76v-11q7 -6 34 -44.5t52 -55.5 q-4 6 -18 1l-16 -6l5 -9h-11l-78 93l-74 -60q2 4 23 21.5t17 33.5l-68 -69q-26 -26 -56 -35q-6 -9 -17 -6l88 87q26 26 53 62l-8 8l-80 -84q-56 -60 -101 -85l7 22l154 173q2 14 -18 45l-52 84l-43 77q-10 23 -22 62q4 5 6 7q5 3 11 -2q6 -13 10 -16q3 14 16 21q8 2 11 -1.5 t6 -12.5l12 6l30 -79q13 -30 26 -45q3 28 -19 78l-23 62q14 -6 23 -34.5t20 -37.5l1 6v5q0 7 -4 19l-4 20l43 -103q17 -40 45 -71q-3 18 -9 35.5t-17 39.5l-38 81zM414 343l-11 -8l22 32zM384 48l5 -3v-5h-5v8zM451 474l-64 -102l47 54q17 23 17 48zM241 237q-2 -5 -2 -7 q3 -4 5 -4q0 8 -3 11zM153 106l2 -2l17 24l-3 2zM326 94l8 -9q2 5 -2.5 6.5t-5.5 2.5zM416 464l-13 -8q-7 -16 -19 -36.5t-28 -42.5l-46 -67h5q37 41 63 78t38 76zM87 428l8 -16z" />
<glyph unicode="y" horiz-adv-x="649" d="M619 508l-44 -179q5 1 6 3q3 4 0 13h7l-32 -159q-12 -66 -26 -112.5t-36 -84.5l27 127q-21 -54 -39 -96t-35.5 -78.5t-69.5 -88.5l3 -5l4 -4q26 19 62 73l39 57q-10 -33 -21.5 -52.5t-19 -30t-23.5 -31.5q2 -2 4 -9q0 -11 -15 -13l-10 -3l-10 -1h-13q-11 0 -15 -2 t-10 -12q-15 2 -24.5 -2.5t-22.5 -15.5q8 -4 15 -4t27 6l23 5q6 0 14 -3l-13 -17l-86 -9l-87 -4q-63 0 -106 6.5t-90 24.5q-2 7 1 17t17 14l87 -20q-4 10 -32 15.5t-38 17.5l-8 6q-2 2 -2 9q20 0 63 -13q14 -3 33 -8t29 -5l39 -1q6 0 19 -1t20 -1h15q9 0 17 2q6 0 10 1t18 6 q-6 12 -20 13q-9 -1 -13 -2l-14 -2q-11 0 -18 11q-6 -8 -25 -8q-13 0 -27 3l-39 7q-13 2 -21 3.5t-29 7.5q-22 4 -31 25h48l-11 6q4 3 3 8l-12 12q23 -6 50 -11.5t71 -12.5t94 -7q15 6 24.5 42t38.5 33q0 5 -6 10l-12 5q0 11 0.5 16t5.5 25t5 33q-18 0 -40.5 -17 t-31.5 -23.5t-19 -11.5l-33 -11q-21 -6 -43 -6q-37 0 -68 20v12q0 13 -3 20t-14 8q-14 0 -19 9l11 15q-15 2 -19.5 14.5t-5.5 20t-1 23.5v17l1 17l19 155l33 180l7 6l4 -6l-11 -48q-3 -18 -3 -40l1 -19q9 9 15 48t34 45q-20 -60 -30 -130l-10 -137l40 185 q0 -35 -17.5 -118.5t-17.5 -110.5q0 -21 1 -31t7.5 -32t27.5 -49q-7 -9 -9 -14q-15 12 -22 37l-10 50q-3 -11 -3 -22q0 -25 11.5 -49.5t31.5 -41.5q-3 6 -3 11q0 6 8.5 9t13.5 3t14 -3q12 -2 18 -5l18 -1l-46 33q-17 14 -28 33q-3 21 -5 41.5t-2 44.5q0 81 19 166l32 145h6 q-3 -6 7 -9l7 18q9 0 9 -8q0 -5 0.5 -7t1.5 -2l-27 -134q-13 -73 -13 -131h4l24 152q9 3 9 12l-1 12q0 6 4 9q5 8 11 47.5t22 49.5l-48 -305q0 -28 3 -53t12 -52q15 -21 33 -21q11 0 18 10q76 64 99.5 133t44.5 165.5t30 108.5l-1 -15q0 -12 -2 -19q0 -8 4 -15q7 6 13 28 t19 23q2 -3 4 -12q0 -8 -5 -19l-5 -18q0 -9 10 -16q5 5 11.5 32t17.5 31q0 -26 -20.5 -87t-21.5 -71l-4 17q-15 -28 -28 -61q-10 -33 -10 -63q17 18 29 50l-63 -269l17 76l19 92l-3 4q-22 -32 -39.5 -106t-25.5 -96q-6 3 -8 5l-6 4l-8 -6q17 -8 17 -24q0 -7 -6 -25l-5 -23 q1 -7 2 -9l40 81l-6 -24q34 68 58 166l46 201q25 107 50 170l12 -24l7 17q4 15 16 19l-30 -113l-29 -140l9 -6l35 121l37 141zM90 515l5 -7q0 -54 -22 -200t-22 -200q-12 32 -12 67q0 17 3 38l5 35l15 112zM51 87q6 1 10 -10l4 -14v-9zM406 0v-5l-2 9zM404 196h-7l6 -9z M511 188v-13l2 5q-1 6 -2 8zM392 142l5 20q2 12 0 18l-10 -15l-4 -12q0 -5 9 -11zM527 122l6 28h-4zM503 147l-1 -14l5 4v7q-2 3 -4 3zM364 128l-40 -51h8l18 17q15 13 17 25zM383 104q-10 -7 -16 -22q-2 -10 -3 -14.5t-1 -15.5v-12q0 12 11.5 31.5t8.5 32.5zM196 226 l-10 -38l11 -59q9 -32 36 -47v5q-39 51 -39 117q0 12 2 22zM428 -35l2 -12q2 1 6 3.5t6 5.5q-9 4 -14 3zM121 -101l-6 9l-3 -13q67 -16 125 -16l47 3q4 3 11 -1q6 -6 10 1v6.5t-1 4.5l-51 -4q-15 0 -30 1t-30 4l-67 12zM174 449v24v-24zM527 250l-2 -12zM275 -182l-15 2z " />
<glyph unicode="z" horiz-adv-x="566" d="M293 525l88 -16q89 -15 130 -35q2 -3 4 -12q0 -8 -4.5 -17.5t-6 -15.5t-2.5 -8q0 -5 6 -13l11 12l-2 -24q-95 -119 -231 -196l-17 -16q24 -30 52 -39l69 -20q40 -9 46 -17.5t13 -6.5v10h11q8 -3 11 -10q-8 -9 -23 -9l-31 3l-9 -1q2 -5 18 -8q15 -1 19 -7l-17 -2 q-23 0 -62 23q-36 23 -51 28q-10 0 -13 -3q48 -47 109 -64q-3 -8 6.5 -14t8.5 -15q-8 -3 -15 -3q-13 0 -31 9.5t-31.5 14t-24.5 4.5l-99 51q-38 20 -77 29v-6l-22 15q-9 6 -18 6q-6 0 -12 -3l-6 -9l-5 3l-5 -3l108 -51q56 -25 107 -56q-4 -5 -4 -11q2 -3 7 -5l14 6 q10 0 29.5 -13t34.5 -10l7 -5q1 -5 -1 -7l-22 -2q-19 0 -35.5 5t-28.5 19q-17 0 -36 9t-29 26q-5 3 -16 5l-16 -1v-8l-117 55q-13 -5 -25 5q12 -3 23 7q-4 7 -14 8q-6 -1 -12.5 -3.5t-17 -6.5t-22.5 -2q-6 7 0 14l13 13q-6 6 0 12q3 3 11 3q12 0 16 7l-9 11q3 12 17 18 l28 12l15 -3l16 -3q9 0 12 7l-9 12h31q-3 9 6 9q16 0 19 4l93 73q47 37 77 80l-24 13l-125 16q-50 6 -95 6q-13 8 -5 16q9 0 17.5 10t14.5 11q3 -1 5 -1q5 -4 7 -5q-10 -4 -16 -8q6 -6 17 -7l17 1l9 -1l3 5l-14 6l13 1h11q23 0 73.5 -6t76.5 -6l-34 -2l107 -26q7 3 9 5.5 t3.5 4l2.5 2.5l-13 12l-144 23q-75 9 -145 9q0 6 7 14l15 15q75 0 150 -9l171 -25l5 5l-20 14l-90 16l-198 19q16 13 41 13l30 -3q20 -3 31 -3q9 0 17 2q-8 6 -27 6h-14q-16 0 -22.5 1.5t-13.5 7.5q21 6 46 6q21 0 44 -6zM175 106q22 -7 106 -53t136 -46q-1 5 -3 6l-4 6 q-51 6 -116 33zM222 32l3 1l29 -13zM499 398l3 -2l6 11zM456 404l-14 -21h5q4 8 6.5 11t2.5 6v4zM481 374v6l-9 -11zM365 373q-31 -57 -86 -102q-4 -9 -25 -25l-20 -17l86 67q28 26 41.5 46t12.5 26q-2 3 -9 5zM459 357q-9 -9 -49 -41.5t-50 -47.5q27 15 49 37zM331 254 l-54 -44q-2 -3 -13.5 -7t-12.5 -9q32 16 49.5 27t34.5 31zM227 225h-5l-10 -9q-4 -3 -3 -7zM271 147l9 -9q7 -6 13 -1q-14 8 -22 10zM238 53q0 -7 5 -12.5t12 -2.5q-4 6 -9 8.5t-8 6.5zM441 486l-78 8l106 -23zM328 504l13 -4z" />
<glyph unicode="&#xa1;" horiz-adv-x="312" d="M257 -192q0 21 -3.5 32t-7 19.5t-11.5 24.5l-3 -24l-4 -18l3 -13l-3 -10q-3 -6 -10 -7l-42 186l-35 201l-7 -7l57 -371l-62 319l-4 66l-4 66v20.5t2 17.5t4.5 16t6.5 18l2 -2l17 -139l8 -69q5 -54 17 -77l4 4l-11 97l-3 67q0 56 13 104l-1 -32l-1 -35q0 -30 2 -38l10 -24 l2 102h4l8 -182l12 -16l-5 98l-4 73v37l4 24q6 15 8.5 19t8.5 6q-4 -23 -7 -53t-3 -56q0 -70 8 -118l29 -154q20 -101 24 -144q-3 -18 -6.5 -24.5t-16.5 -3.5zM161 -181q-2 14 -4 20.5t-12 6.5q-3 -2 -5 -7l1 -10h-7l-14 70q-3 22 -15 36q-2 -18 4 -46l7 -41l-1 -12 q-5 5 -11 17l-6 23l-27 192q-11 75 -17 145t-6 125q0 17 3 28t14 12l1 -12v-12q0 -12 3 -18q-3 -22 -5 -46t-2 -49q0 -75 10 -132l33 -164q0 42 -15 149l-14 141v24t3 32.5t6 34.5t9 26l11 -8q0 -116 19 -255zM159 234l-2 -4l2 9v-5zM159 272l-2 -21l2 25v-4zM159 304l-2 12 l4 17q1 5 9 5l-4 -17q0 -11 -7 -17zM129 388q0 11 21 21t22 23l-44 -20q-3 9 -9 9q-9 -3 -13 -5l-12 -4q-7 2 -9 4v8l44 21q17 9 28 26q-13 0 -36.5 -13.5t-35.5 -16.5v11h-31l13 27q5 12 18 23q0 -6 -2 -8l9 -6l9 4l49 39q40 32 67 41l-34 -31q-30 -24 -30 -41l29 15 q10 1 25.5 19t24.5 18q7 0 13 -5q0 -7 -1 -8.5t-2 -3.5t-1 -3h20q-7 -5 -7 -17q0 -10 -3 -14.5t-7 -6.5q8 -3 19.5 9t17.5 12q0 -21 -6 -32zM31 489l-2 7q2 2 9 4q3 -1 6 -2.5t8 -3.5zM66 504q-3 2 -4.5 4.5t-1.5 3.5q4 7 9 11t4 9q-6 0 -21 -9.5t-20 -9.5q-7 0 -12 8 q38 30 82 38l31 33q12 13 26 16l-17 -24q9 -3 20.5 9t19.5 12q12 -3 11 -14q-12 -16 -69 -51zM129 572l-44 -34l3 -2l44 34z" />
<glyph unicode="&#xa2;" horiz-adv-x="384" d="M236 593q-3 -18 -3 -30q0 -18 10 -18q3 1 5.5 1.5t10.5 4.5q33 -4 57 -24q1 -3 4.5 -10.5t12.5 -20.5t7 -26q-9 -2 -12 8t-6 13q-8 17 -21 28t-30 14l-3 -6l21 -14q11 -5 14.5 -12.5t3.5 -9.5t6 -15l8 -24q3 -3 0 -17l-6 6q-3 5 -9 5l-6 -20q-3 33 -12 54q-7 20 -31 35 l28 -18q0 12 -17 22t-20 17q-10 4 -22 -3q0 -6 7.5 -9t8.5 -4t13 -9.5t22.5 -34t10.5 -56.5q-12 1 -15.5 22t-10.5 28l-14 14q-5 6 -16 7q11 -19 18 -40t10 -43q-2 -10 -4 -12q-4 1 -8.5 4t-4.5 13q0 9 -4 13q-2 15 -11.5 27t-36.5 35q-31 -20 -50 -59q-17 -39 -17 -81 q0 -16 1 -21q0 -19 10 -33q12 -13 29 -24l32 -4q30 0 71 18l75 37q0 -30 -43 -48.5t-47.5 -25t-17 -10t-16.5 -8.5q60 17 122 47q-10 -10 -10 -26q-42 -28 -79 -45t-81 -28l-18 -75q-6 -1 -7 7l-1 3l-2 2q-6 2 -6 -5q0 -2 -1 -3.5t-2 -2.5l-1 12q0 14 4 29l6 24q-2 3 -5 4 t-4 2l-17 -63q-2 5 -4 16l3 24l3 21q-11 3 -28 8t-38.5 16t-34.5 39l-6 34l-2 37q0 72 33 123l-6 -17q-1 -7 0 -13q15 43 47.5 77.5t76.5 56.5q-21 -13 -36 -30l-47 -60l3 -5l48 55q17 17 54 31q2 5 4.5 16t4.5 26t6 24q5 -5 5 -14q0 -7 -4 -20l-4 -20v-5l3 -4h6l14 72 q9 3 14 3t5 -9zM288 536v-6h10q-6 5 -10 6zM155 500q-3 -6 -26 -26t-29 -36l16 20q6 8 15 6h5q2 9 10 18t10.5 12t4.5 6h-6zM80 417q-2 -3 -10 -17.5t-17 -39.5t-9 -48q0 -32 18 -59l20 -19q8 -6 28 -14q-8 4 -18 16.5t-13 17t-9 15.5t-8 22.5t-2 32.5q0 30 9.5 59t28.5 52 q-5 0 -10 -6q-4 -8 -8 -12zM83 324q0 -45 26 -80q21 -12 39 -12q6 0 15 3q-30 3 -46.5 26t-33.5 63zM44 259q2 -14 12 -26t25 -19l-13 15l-10 15q-8 13 -14 15zM297 238l15 12l-24 -12h9zM77 199v-4l10 -2zM97 192l25 -3zM152 171q-8 -11 -8 -21q0 -4 2 -12l5 18q3 8 1 15z M203 497l5 -6z" />
<glyph unicode="&#xa3;" horiz-adv-x="688" d="M526 794q35 -9 51 -31.5t49 -85.5q35 -82 35 -178q0 -57 -15 -108q-12 6 -16.5 16t-6.5 27q0 18 2 32l3 24q0 14 -4 23q-2 -4 -4 -15l-1 -19q0 -25 -5 -34q0 130 -27.5 196t-75.5 102l-2 -2q39 -42 57.5 -101t18.5 -119q0 -50 -12 -100q-1 2 -3 3.5t-3 2.5q-7 -7 -11 -9 q-4 1 -4 3l-13 -13l11 83q7 -3 8 -14l-3 -26q0 -11 7 -18q14 28 14 65q0 10 -1 22t-4 34.5t-8.5 51.5t-23.5 45q-3 -9 -3 -17q0 -12 9 -36t9 -36q0 -11 -4 -20l-25 90q-12 46 -33 79q-17 -11 -43 -58t-30 -51l-49 -108q-19 -44 -25 -88q11 -1 17 -2l33 -1h37q19 0 28 -2 l-6 -6l-48 3l-32 3l-19 -1q-9 0 -23 -7l-6 -1l-4 -3q6 -7 15 -12q9 -3 21 -3l24 1q9 0 18 -3q12 6 33 6h15l14 -2q6 -18 6 -30q0 -18 -10.5 -25t-27.5 -7h-19q-12 3 -19 4l-39 4q-20 0 -31 -8q-11 -23 -17 -59l-5 -71l97 10l108 3q-16 -5 -42 -9.5t-58 -4.5q-36 0 -59 -3.5 t-46 -12.5q13 -5 34 -5l28 1q18 0 28 2l107 1l108 1q0 -6 -12 -8t-18 -7l39 -7v-6l-98 -3l-146 -14l7 -6l65 1l66 2q54 0 93 -7v-5l-303 -19l-7 -7l9 -10l130 7l130 8l2 -2l-34 -9q2 -7 20 -7q25 0 31 -3l-6 -26q-6 0 -70 -4.5t-100 -4.5l-157 -8q-3 -12 -11 -13 q-12 5 -20 7q-5 0 -9 -7.5t-12 -5.5q-4 2 -5 8l-107 -17q0 6 11 13q-2 3 -12 5l-17 -3l-13 -2q-13 0 -13 19l79 26l-3 17q-18 0 -34 -2.5t-45 -10.5q0 6 9 9t10 8l-10 8l19 16l-10 4l46 25h-46q3 11 17.5 16t41.5 8q9 24 15 61l13 71l-12 1l-18 -1q-12 0 -18 -2h-9l-5 2 l15 22q-8 4 -7 17q6 5 13.5 8t4.5 13l16 3q7 3 14 10q-3 12 -19 12q-9 -1 -13 -2l68 17l77 175q28 62 74 120.5t116 103.5l25 9l-4 -13l12 -2q10 0 29 8zM518 197q57 0 96 -7l-21 -1h-13l-26 2l-25 3l-14 -1zM413 752q-28 -19 -52.5 -47t-38.5 -58l7 7l9 8q2 -6 -7 -18.5 t-9 -18.5l76 88q-6 9 6 20.5t9 18.5zM454 743q-49 -43 -83.5 -102t-60.5 -128l24 47l55 93q18 28 52 49q-49 -58 -82 -134.5t-55 -163.5h5q40 112 78 189.5t92 143.5l-21 -16l1 16q-3 6 -5 6zM283 573l-47 -94q-23 -49 -30 -86l36 90zM300 545l-38 -78q-17 -39 -22 -66 l29 61zM298 391l2 -9q2 2 4 9h-6zM159 363v5l-6 -9zM330 327l15 -1q20 0 41 7q-12 0 -22 2l-16 3q-14 0 -18 -11zM394 337l-4 -6q8 -5 20 -5q8 0 19 3l16 4zM285 325h9l2 4q0 4 -2.5 5t-6.5 -1q-1 -6 -2 -8zM214 325v-11q6 0 7 1l2 2q3 3 -1 6zM281 305q-6 -3 -12.5 -13 t-6.5 -26l3 -30l3 -30q0 -12 -2 -16l7 63q3 17 12 40zM204 293q-12 -22 -21 -50t-9 -56q0 -12 2 -22q1 1 5 2l16 73q3 16 5 28.5t2 24.5zM253 227l-8 -16q-4 -12 -4 -20q0 -9 4 -14q5 4 8 15l2 13v12zM518 762v-9q52 -27 79 -94l36 -123h6l1 33q0 15 -2 22q0 11 -17 45 q-12 29 -16.5 38t-23.5 44t-63 44zM560 154v4h-10v-4h10zM170 126v-13l2 3q0 3 -0.5 5.5t-1.5 4.5zM336 122l6 -6l3 6h-9zM232 116v-19l2 2q1 1 2 7q-2 8 -4 10zM255 84l-6 -11h9l1 4zM159 71l-2 -15l11 2q0 11 -9 13zM108 11h-9v-4zM355 125l7 -3z" />
<glyph unicode="&#xa7;" horiz-adv-x="535" d="M370 804q39 0 74.5 -17.5t57.5 -46.5v-6q-7 0 -17.5 11t-18.5 13q3 -17 8 -25.5t16 -19.5l-1 -21l-9 9l2 -21q-9 0 -19 14t-19 9q1 -2 3 -4.5t8.5 -8.5t3.5 -12q-6 0 -12.5 9.5t-15.5 9.5q-12 14 -22.5 21t-23.5 7l34 -27q31 -25 31 -41q0 -6 -3 -12l-5 4l-2 2v-16 q-15 31 -40 46.5t-75 37.5l-27 -2l-28 -1q-18 -6 -23 -11t-7 -16q0 -39 43 -66l57 -33q-6 6 -39 27q-33 19 -40 41q21 -28 101 -72t89 -74l9 -31v-5q0 -10 -2 -19l-2 -13q1 -7 2 -9l10 25q6 -6 6 -20q0 -17 -1 -21q0 -60 -45.5 -103t-113.5 -69q-28 -5 -35.5 -5h-12.5 q-49 0 -96 21t-80 60q0 7 -4.5 16.5t-4.5 17.5q5 -3 10 5l7 9q-17 17 -17 39q0 6 2.5 11.5t6.5 9.5l7 -21l9 -31q5 -16 31 -41.5t54 -36.5l3 1q-21 9 -33 22t-56 76v11h4q15 -40 50 -70.5t68 -41.5q18 -4 29.5 -6t22.5 -2q44 0 76 23q-14 -3 -30 -5t-34 -2q-41 0 -75.5 12 t-60.5 40l-27 33q-9 15 -6 29q0 9 -5 20l-5 17q0 5 7 11q1 -5 3.5 -14.5t9.5 -22.5l20 -33q0 17 -10 37l16 -17l2 2l12 -12q0 9 -4 20t-4.5 15t-1.5 8l33 -60q15 -23 41 -38.5t55 -15.5q12 0 24 2t31 8l13 11q7 7 7 15q0 5 -1 8q-1 0 -1 1l-18 -21l10 26q3 12 3 27 q0 14 -12 38t-81 59t-84 47q9 -12 75 -51t78 -61t12 -42l-1 -10q-7 62 -104 108t-106 113q9 3 9 9q0 3 -3 8q-8 8 -8 21t8 33l10 26l6 10q2 4 6 8q0 -6 -6 -21t-6 -23q0 -6 3 -12l30 48l-6 7q3 9 8 9l11 -7q5 -3 9 -3t7 3l-8 8l15 11q12 6 15 16q-5 3 -14.5 -4t-14.5 -7 q23 18 58 30t105 18zM465 502q11 0 9 -15l-8 -3zM310 566q39 0 74.5 -17.5t57.5 -46.5v-7q-6 0 -18 12q-9 12 -17 12q4 -23 24 -44l-1 -21l-9 9l1 -21q-6 0 -18 13t-19 9l10 -10q9 -7 4 -15q-1 0 -4 2t-9 9.5t-15 8.5q-10 11 -21 18.5t-25 9.5l46 -36q20 -15 20 -33l-3 -11 l-6 3l-2 2v-16q-13 29 -41 48t-73 37l-17 -2h-7.5t-5.5 -1h-26l-20 -9q-9 -5 -9 -18q0 -40 29 -59l71 -41q-4 4 -16 11.5t-33.5 21.5t-29.5 35q21 -29 100 -71.5t90 -76.5l9 -34l-3 -17l-2 -14q1 -6 2 -10l11 26q6 -5 6 -18l-2 -22q0 -60 -45 -104.5t-113 -68.5 q-28 -5 -35.5 -5h-12.5q-108 0 -177 81q0 7 -4.5 17t-3.5 17q6 -3 9 3t4.5 7.5l2.5 2.5q-16 19 -16 48q4 8 8 12l5 -10l7 -29q9 -29 33.5 -54t55.5 -36l3 1q-22 9 -33 21t-56 77v10h5q34 -85 93 -103q61 -16 77 -16q46 0 75 22q-30 -6 -62 -6q-41 0 -76 12t-61 39l-24 30 q-8 11 -10 24l1 9q0 9 -5 20l-5 16q0 6 7 12q3 -18 9 -30t9 -17t15 -23l-3 17q-4 12 -8 20l16 -16l14 -11q2 8 -2.5 20t-5.5 17t-1 7l24 -44q23 -42 47 -55q26 -16 56 -16q18 0 24.5 1.5t11 2.5t20.5 6l14 9q7 7 7 16q0 6 -1 7l-2 2l-18 -21l10 27q3 12 3 26t-12.5 39.5 t-84 61t-80.5 43.5q8 -8 74.5 -48t84.5 -73q5 -14 7 -31q-1 -8 -2 -12q-6 58 -104.5 112.5t-104.5 109.5q5 4 6 6q3 6 -3 12.5t-6 19.5q0 11 8 31l9 28q8 12 14 18q0 -6 -6 -21t-6 -24q0 -6 3 -12l30 49l-7 6q3 9 9 9q7 -3 10 -5l10 -4q5 2 6 4l-8 7l15 11q12 6 15 15 q-4 3 -13.5 -3.5t-14.5 -6.5q30 23 69 32.5t93 15.5zM406 263q11 0 8 -15q-5 -1 -7 -2zM410 756q41 -25 67 -53q-20 29 -35 38.5t-32 14.5zM295 746q2 -2 9 -4h12v4q-9 3 -14 3q-5 -2 -7 -3zM331 743q7 -7 20 -7h6.5t3.5 1q-10 2 -15 4t-15 2zM207 711q-5 -3 -10 -12l-7 -16 q7 9 11 14.5t4.5 8t1.5 5.5zM154 661l-3 -7v-14q0 -20 5.5 -36t24.5 -28q-16 16 -20.5 31.5t-5.5 24.5t-1 29zM188 647l-2 -8q15 -45 104.5 -99.5t101.5 -73.5q-3 9 -9 18.5t-17 20.5l-82 48q-71 41 -96 94zM411 509q20 -28 20 -61l-1 -13q3 11 3 23q0 32 -22 51zM316 783 q38 0 70.5 -6t63.5 -21q-43 32 -97 32q-19 0 -37 -5zM394 442l-1 -10q0 -2 0.5 -3.5t1.5 -2.5l2 9q0 3 -1 4.5t-2 2.5zM456 426l-16 -50q4 4 8 14zM316 331l-2 -5q11 -1 21 0l23 9q43 30 55.5 42t12.5 40q-9 -33 -37 -52t-73 -34zM435 371l-27 -37q-11 -16 -30 -26l-2 3 l12 24q5 10 7 18l-27 -26l-3 -10q-2 -5 -2.5 -7t-0.5 -3q4 -5 6 -6q-23 -13 -56 -26q-32 -10 -60 -10l-18 -2q-29 0 -58 15q-25 15 -66 45q28 -34 67.5 -49.5t88.5 -15.5q54 0 102.5 31.5t66.5 81.5zM252 773l2 -2l10 6l-2 2zM271 505q5 -5 21 -7l10 1l-17 5zM148 473 q-6 -3 -12 -15l-6 -13l10 12q8 9 8 16zM94 423l-3 -8v-12q0 -20 6 -35.5t24 -29.5q-16 18 -22 35q-5 20 -5 50zM129 409l-2 -9q15 -45 104.5 -99.5t101.5 -73.5q-3 10 -8 17q-2 6 -18 23l-112 66q-44 29 -66 76zM319 303l12 -7l-3 2zM352 271q19 -30 19 -63l-1 -12 q3 12 3 24q0 33 -21 51zM334 204l-1 -10q0 -2 0.5 -4t1.5 -3q3 5 3 11q0 2 -1.5 3.5zM397 187l-17 -48q7 7 10 17zM257 92l-2 -5l20 1l23 9q36 24 52 39.5t16 42.5q-9 -32 -38 -52t-71 -35zM376 132l-22 -30q-17 -23 -35 -32l-3 3l13 24q5 9 6 18l-26 -26l-3 -10 q-2 -5 -2.5 -7t-0.5 -3q4 -6 6 -6q-30 -16 -57 -27q-27 -9 -59 -9l-18 -2q-29 0 -57 15t-67 45q29 -36 67.5 -51t87.5 -15q55 0 102.5 31.5t67.5 81.5zM246 509q5 -1 6.5 -1t4.5 -1v-4q-17 0 -21 4q4 4 10 2zM350 518q23 -3 35 -15t33 -39q-12 13 -31 28zM257 545q18 6 38 6 q23 0 48.5 -9t46.5 -24q-24 12 -51 17.5t-45 7.5t-37 2zM186 663l2 8zM198 667l5 -28zM193 535l12 4zM139 429l4 -29zM366 770l4 -3zM138 63l16 -8zM129 424l-2 9zM388 536l-10 6zM197 299l17 -4z" />
<glyph unicode="&#xa8;" horiz-adv-x="432" d="M87 776q11 -4 24 -12t33 -23l43 -30q2 -4 4 -21q-3 1 -5.5 2t-7.5 7t-13 5q6 -3 7 -13q0 -9 5 -12h-13q1 -4 2 -6l1 -5q-4 -2 -10 -4q-5 0 -17 12q-8 11 -16 14l-21 10q0 -9 14 -22l30 -27q-16 5 -45 28l-38 29l-8 -4l1 -5l-11 12l-10 22h21v7q6 0 23 -11q17 -9 26 -9 q-6 8 -20 17t-29 15v5q4 4 11 2l12 -5q5 4 6 7l30 -14q0 6 -13.5 13t-15.5 16zM314 768q9 0 20 -7l16 -14l4 7l31 -29q18 -18 18 -34q0 -6 -2 -9.5t-3 -3.5h-3l-3 4l-6 -3l-56 51l-5 -4l57 -62q0 -6 -15 -12q-7 4 -24 23.5t-28 23.5q-1 -5 -1 -9q-3 9 -24.5 22.5t-27.5 27.5 q3 3 12 1l14 -1q10 0 7 14q3 3 10 -1q8 -4 12 3zM259 726l88 -78h-14q-20 22 -32.5 31.5t-28.5 14.5v-6l56 -45l-1 -7l-8 -7q-6 3 -32.5 26.5t-44.5 32.5l-6 11q5 6 11 6q8 -2 11.5 -3t9.5 -8q3 6 -4 11t-9 7l-3 3zM19 708l15 -4q-8 -6 -16 -1zM44 697q10 -8 43 -26.5 t44 -32.5q-2 -5 -3 -7l-4 -3q-6 0 -13.5 7.5t-14.5 6.5l12 -16q-8 0 -20 12l-19 22q-18 0 -31 8l-26 18q2 3 9 5q3 -1 4 -1t9.5 -5.5t14.5 -5.5q-4 6 -6 8q-6 4 1 10zM58 675l29 -24z" />
<glyph unicode="&#xa9;" horiz-adv-x="560" d="M275 640q33 9 66 9q51 0 92 -20.5t72 -63.5q28 -44 28 -90v-12q3 -15 3 -30q0 -10 -0.5 -22t-7.5 -32q-6 -28 -20 -53q4 -6 0 -17l-9 -17l-63 -77q-42 -45 -83 -52q48 28 89.5 70.5t66.5 91.5l-5 1l17 67q3 17 5 32t2 32q0 45 -14 79l-15 17v-12l-5 -2q2 -5 4 -5h9 q12 -44 12 -87q0 -69 -29.5 -130.5t-87.5 -108.5q-42 -28 -61 -36t-35.5 -12.5t-25.5 -6.5q-2 5 -10 2q-4 -3 -5 -3h-2l-53 6l11 -10q-51 0 -92 40t-56 72.5t-18 51.5l-2 30l2 51l3 38q9 33 18 57.5t27 39.5l-26 -64q-13 -41 -13 -72q0 -71 27 -129t85 -86q-49 38 -77 96 q-25 59 -25 124l3 46q12 65 71.5 123.5t126.5 73.5zM382 632h-20l-19 1q-17 0 -28 -4l24 2q72 0 131 -56q-10 24 -25.5 31.5t-32.5 14t-30 11.5zM218 608q3 -8 -9 -14q-12 -3 -12 -12l74 47l-29 -7q-15 -3 -24 -14zM270 605q-57 0 -96 -70l-32 -67q-9 -36 -9 -73 q0 -50 16.5 -90.5t54.5 -67.5q5 -6 12 -6q6 0 8 6l46 -11q16 -3 29 -5t24 -2q40 -5 66 25.5t49.5 71.5t23.5 106q0 32 -9.5 65.5t-28.5 59.5q-11 10 -15.5 12t-11.5 2l-15 10q-6 5 -6 12q-8 -6 -19 5.5t-19 13.5l-3 -7q-12 0 -32 6t-33 4zM431 566q-3 -12 10.5 -30.5 t14.5 -24.5q-1 -2 -1.5 -4t-1.5 -5q4 -5 6 -5q10 -30 10 -61q0 -28 -5 -49q-3 -22 -12 -46q11 19 17 47.5t6 61.5l1 12q0 19 -11.5 47t-15 37.5t-4.5 14.5q-2 -2 -8 -1zM169 565q-68 -62 -68 -154q0 -38 13 -70q-6 27 -6 53q0 46 15.5 87.5t45.5 83.5zM123 440 q-5 -25 -5 -42q0 -32 7.5 -56.5t23.5 -54.5q-10 21 -17 49.5t-9 42.5t-2 33l1 15zM473 346l-57 -75q-2 -1 -6 -4t-9.5 -5t-2.5 -10q25 10 42 34t33 60zM134 278q9 -30 33.5 -49.5t58.5 -25.5l-15 8q-12 8 -15 15q-6 1 -9 0q-13 8 -28 22zM193 239l15 -10q-4 5 -6 6zM304 196 q3 -3 9 -1l10 1l21 6q13 5 18 17zM242 200q0 -8 9 -8q8 0 16 4zM209 160l-9 5v-5h9zM355 548q10 -4 14 -6t12 -7.5t14 -20.5l-3 -9q0 -6 -5 -6v-5l-2 -3l-4 2l2 4l-21 17q-8 6 -16 9l17 -17q15 -14 15 -25q-8 -1 -10 -2l-10 7q1 -6 2 -8l3 -6q-6 3 -17.5 15t-18.5 15.5 t-20 6.5l-24 2q-22 -3 -30 -17t-20 -51q0 -40 4.5 -61t22.5 -35t44 -14t46 12q12 12 32 22q0 -8 -11 -22l2 -3l-3 -5q3 1 5 2l8 4l-1 -7l9 4v-14q-2 -2 -15 -14t-17 -15t-16 -8l-3 4l14 9l-21 -5l-12 -7l8 1q5 0 8 -5q-25 -10 -53 -10q-39 0 -67 17q-15 11 -24.5 25 t-12.5 23.5t-3 19.5l4 3q-6 23 -6 45q0 64 42.5 105t96.5 41q23 0 41 -7zM247 465l-4 -14q0 6 4 14zM241 441v-12q0 -28 13 -53q-15 20 -15 47q0 10 2 18zM351 543l35 -25l-19 16q-8 6 -16 9zM294 524q27 0 47 -16q-12 9 -20 13t-17 4q-6 0 -10 -1zM252 521q-9 -5 -11 -12 q8 5 11 12zM220 431l6 33q3 14 12 27q-8 -5 -14 -20q-2 -9 -3 -16t-1 -24zM301 548q3 -1 19 -1l17 1l-24 3q-6 0 -12 -3zM214 442l-4 -19q0 -52 43 -83q-39 47 -39 102zM198 470q-3 -18 -3 -47q0 12 2 20l6 30q4 19 30.5 40.5t60.5 34.5q-21 -3 -32.5 -10.5t-19.5 -14.5 t-24 -24q-17 -14 -20 -29zM183 399q0 -16 3 -24.5t4.5 -12.5t10.5 -20l-10 32q-4 16 -8 25zM182 358q2 -8 4 -15.5t4.5 -14t14.5 -15.5l-13 19zM359 337q7 3 9 5zM260 338q1 -4 12 -7q-4 4 -7 5t-5 2zM283 329h-6q2 -2 8 -2zM306 313q21 0 31 10l-19 -5q-9 -2 -12 -5z M208 311q6 -9 16 -15l39 -10q-16 0 -33 11zM245 311q17 -9 39 -9l13 1h-9q-4 2 -4 4l-13 -1q-13 0 -26 5zM232 307l-5 2l7 -5zM290 285l9 1h8q9 0 13 4q-10 -1 -15 -2q-9 0 -15 -3zM445 330l-7 -6zM167 266l7 -8zM356 498l3 2zM190 460l1 4zM379 358l-5 -3zM198 336l7 -10z M358 331l7 3zM380 324l-4 -4zM216 317l-5 3zM358 305l-3 -2zM254 298l-13 4zM277 286h7h-7z" />
<glyph unicode="&#xad;" horiz-adv-x="404" d="M33 483q14 5 38 10l47 4h20t26 -2l48 -4l-14 -1l-21 1q-17 0 -22 1q-12 0 -23 -3q-14 0 -21 -2q16 -4 22 -5t14 -1l45 -1h35l36 1l5 8q13 -12 56 -19q44 -5 60 -17q0 -6 -9.5 -14t-11.5 -13q1 -3 1 -5q4 -5 5 -7l-2 -4l-37 7q-31 4 -43 18q-19 2 -30.5 3t-36.5 1 q-41 0 -45 1l-52 -1h-29q-18 -3 -27 -4q-4 4 -22 4q-19 0 -12 18q-6 0 -6 9q-3 5 3 8.5t3 8.5zM39 405l73 3l72 3q39 0 61.5 -3.5t56.5 -15.5q15 3 32.5 -8.5t23.5 -12.5v-9q-31 8 -69.5 14.5t-98.5 13.5t-144 7zM111 386q6 1 12.5 -6.5t19.5 -4.5l-7 9q48 0 92 -6t96 -18 l-4 -9q1 -3 3 -5.5t11 -7.5t9 -12l-17 -3q6 -5 12 -7t5 -10l-6 -8q-58 19 -126 25l-163 5q0 9 4.5 13t14.5 5l13 -1q10 0 16 -2q10 0 15 4q45 0 77 -4l129 -20q0 5 -11 9.5t-15 5.5t-15 7q-15 3 -31.5 5t-26.5 3l-65 2l-48 -1h-48q-3 11 8 18t13 12q1 -4 9 -7l24 -2v11z M106 487h-28l-26 -6z" />
<glyph unicode="&#xae;" horiz-adv-x="525" d="M237 634q33 9 66 9q51 0 93 -21t70.5 -62.5t28.5 -90.5v-12q3 -17 3 -33q0 -18 -1 -26.5t-7 -24.5q-6 -26 -20 -53q4 -6 0 -17l-9 -17l-63 -77q-42 -45 -82 -52q48 30 88.5 71t67.5 91q-3 1 -5 1l17 67q3 17 5 32t2 33q0 44 -14 78l-16 17v-12l-5 -2q2 -5 4 -5h9 q13 -46 13 -88q0 -70 -30.5 -131.5t-87.5 -106.5q-42 -27 -70 -39.5t-52 -15.5q-3 5 -9 2q-3 -2 -5 -2.5t-3 -0.5l-52 6l10 -10q-50 0 -91 40t-56 72.5t-18 51.5l-2 30l2 51l3 38q9 33 18 57.5t27 39.5q-26 -61 -33 -84t-7 -52q0 -71 27 -129t86 -86q-51 39 -78 96 q-25 59 -25 124l3 46q13 66 71 124t127 73zM345 626h-20l-19 1q-17 0 -28 -4l24 2q74 0 130 -56q-10 23 -25 31t-32 14.5t-30 11.5zM181 602q3 -8 -9 -14q-12 -3 -12 -12l41 25q20 11 32 22q-31 -6 -37.5 -9.5t-14.5 -11.5zM232 599q-56 0 -95 -70l-32 -67q-9 -36 -9 -74 q0 -51 17 -91t54 -66q3 -6 11 -6q6 0 9 6l45 -11q16 -3 29 -5t24 -2q33 -3 57 19t53.5 71t29.5 113q0 32 -9.5 65.5t-28.5 59.5q-11 10 -15.5 12t-11.5 2l-15 8q-6 4 -7 14q-8 -6 -20 6q-9 11 -18 13l-3 -7q-5 0 -29.5 6t-35.5 4zM393 560q-3 -12 10.5 -29.5t14.5 -25.5 l-2 -9q4 -4 6 -5q10 -30 10 -61q0 -28 -3 -44.5t-5 -24.5t-10 -26q12 21 18 48t6 61q3 25 -14 61q-14 35 -16 50h-7zM131 559q-68 -62 -68 -155q0 -37 13 -69q-6 27 -6 52q0 45 15 86.5t46 85.5zM85 434q-5 -25 -5 -42q0 -32 7.5 -56.5t23.5 -54.5q-27 57 -27 126zM435 340 l-56 -75q-2 -1 -6 -4t-9 -5t-4 -10q26 10 43.5 34.5t31.5 59.5zM401 318l7 6l-2 2zM97 272q9 -31 33.5 -50t58.5 -25l-21 11q-7 5 -9 12q-6 1 -10 0q-15 7 -28 22zM156 233l14 -10q-4 5 -6 6zM266 190q3 -2 10 -1l10 1q22 6 27.5 9.5t11.5 13.5zM204 194q0 -6 9 -8q9 0 16 4 zM172 154l-10 5v-5h10zM321 563q21 -11 30 -18.5t19 -23.5t10 -40l-7 -4l5 -7q4 0 5 1q3 -11 -3 -20l-7 -4q1 -6 -6 -16l-12 -12q4 10 8 16q-13 -13 -28 -24l-33 -21q6 -16 22 -33l25 -26q0 7 -10.5 16.5t-14.5 16.5l23 -24q20 -20 34 -26l-9 -1q-3 -3 0.5 -8t5.5 -12l-13 8 q4 -6 9.5 -8.5t5.5 -9.5l-9 3l-51 45q-17 17 -32 41l-4 -3q0 6 -7 14l-7 11q12 -32 37 -59l69 -60q-3 -4 -5 -4q-3 -4 -3 -6q-13 3 -28 17l-29 26l-17 19l-11 11l3 -13l14 -17l28 -26l34 -26v-4q-25 6 -46.5 23.5t-39 37.5t-29.5 41l-22 40l-10 -61q-6 -48 -10 -61v18 l-9 -24q-4 4 -7 4q-6 0 -7 -4q1 11 2 16t1.5 10.5t0.5 7.5l-16 -37q0 11 -2 13l-9 -7q-5 -3 -7 -9l-14 -3q-3 5 3 11t1 10l13 100q6 48 6 90h6l-1 8h-4l2 14q0 6 -4 10l-7 -1q3 5 6 7.5t3.5 4t1.5 2.5q-3 3 -8 3v4l5 4l4 2l-8 3l7 4l2 6q-6 0 -8 -1l-8 -1q5 6 11.5 7t4.5 9 h-9q27 15 53 15l12 -1q18 3 36 3q17 0 34 -2t29 -5zM170 552q9 -3 20 5h-12q-5 0 -8 -5zM214 548q0 -2 5 -5l2 5q-2 4 -4 4zM336 538q-12 11 -30 11q10 -8 23 -18t24 -21t11 -28q0 -7 -1 -11q1 4 1 6t1 6q-2 17 -4 24q-12 21 -25 31zM200 548h-4l1 -6zM278 548l37 -16 q-16 16 -37 16zM306 527q-25 17 -49 17l-12 -1q32 0 65 -20zM200 533l2 -2l4 1zM249 524l4 -3l-9 -1q-7 0 -9 -2l-8 -76l-1 -27q0 -13 7 -20l-3 14q3 1 5 0q1 -1 2.5 -2t2.5 -1l16 -34q9 -16 21 -27q-17 26 -34 64h4l2 -3l-1 17q7 -6 10.5 -13.5t6.5 -9.5q-3 9 -5 14 q-1 1 -1 2l1 2l6 3q1 3 3 4t3 2l11 -5q5 -2 9 4q11 6 19 17.5t8 28.5q0 11 -11.5 20.5t-15 13t-4.5 5.5l17 -10q8 -3 15 -13q8 -8 8 -22q0 -11 -2 -16l-6 -12l-9 -13q-3 -2 -4.5 -5t-1.5 -4l17 13q9 6 9 20l-1 14q0 10 -5.5 24.5t-25.5 25.5t-50 11zM196 523v-5l4 4z M312 522l24 -27q0 9 -10 16zM192 306l19 107q3 25 5 50t2 53q0 -35 -7 -83q-5 -52 -19 -127zM189 331q21 86 21 182zM199 508l-3 4v-49zM174 454q2 2 1 17zM339 432l4 8l-7 -11zM163 367q0 -13 -3.5 -30t-5.5 -30l-6 -41q8 17 12.5 40t4.5 53q0 33 2 50.5t6 29.5zM285 416 l2 -3q4 2 5.5 3.5l2.5 2.5zM346 287q10 -8 17 -12q-6 3 -9 6.5t-8 5.5zM136 252l-6 8zM221 239l6 1zM191 548l1 -6zM272 408l-3 5zM300 398l7 3zM255 348l-10 22zM278 354l-3 4zM187 319l1 4z" />
<glyph unicode="&#xb4;" horiz-adv-x="364" d="M312 794l9 -20q0 -83 -32 -153.5t-92 -134.5q-4 2 -10 4q-6 0 -16.5 -12.5t-19.5 -12.5q8 9 11.5 33.5t17.5 35.5q0 -8 2 -12q8 0 19 18q9 18 20 18q0 15 18 41q20 25 20 43l-7 3l-8 -14q-3 -9 -7 -13l10 111q8 -3 9 -12l2 -15q0 -23 6 -28q4 11 7 25t3 34q0 19 1.5 29.5 t5.5 26.5q8 -3 14 -3q9 0 17 8zM233 738l14 27l5 -27h-12q-8 0 -10 -2l-7 -98l-56 -107q-36 -62 -86 -97l-2 2q6 18 28.5 56t29.5 57l21 -5q5 3 6 5l4 7q-5 11 -19 17q15 39 15 81q0 23 -6 50q15 3 15 19v14q0 6 4 10q9 -17 16 -44l11 -53q4 10 6.5 22.5t2.5 29.5q0 11 1 23 t4 25zM132 717l9 -24q5 -13 5 -30v-11h-12q0 10 -4 26l-5 21q0 10 7 18zM144 635q0 -19 -2 -30t-6 -24q-3 -18 -11 -23l4 36q3 32 15 41zM266 609q-18 -11 -26 -27t-22 -55q15 15 27.5 35.5t20.5 46.5z" />
<glyph unicode="&#xbf;" horiz-adv-x="460" d="M276 -157l-29 -2q-27 0 -53.5 6t-41.5 17q2 -1 10 -3.5t28 -8t37 -5.5q24 0 41 10q-47 0 -93 13t-80 38q-3 6 -19 22t-17 24q2 7 4 9l19 -17v25q17 -18 37.5 -32.5t42.5 -20.5q10 -5 26 -5q12 0 21 3l33 9q4 8 23 27q21 18 21 33q-1 7 -2 9l-39 -35q-34 -32 -61 -32 l-41 11q-32 6 -44 31l17 2q0 13 -2 15q3 11 11 11q6 0 23.5 -15t30.5 -13q4 -2 10 -4l13 -1q26 0 49 24q12 9 12 24q0 8 -3 17l-13 22l-218 196q-12 21 -12 50q0 15 6 30q26 33 59.5 45t82.5 12q14 0 36.5 -1t50.5 -4l64 -4q18 0 34.5 1t30 4t25.5 8.5t26 14.5v-12 q-15 -15 -33 -19.5t-27.5 -5.5t-29.5 -1h-36q-26 0 -34 -2l-37 1h-15q-7 0 -21 2q-29 0 -43 -5q9 0 38 -6l38 -5l25 3q15 -3 32 -5t38 -2q54 0 94 11q-3 -12 -15 -18q-12 -4 -27 -4l-33 1q-17 0 -26 -4l21 -5l-8 -8l20 -5l17 -2q8 0 20 3l30 17q14 6 29 4q-10 -29 -60 -35 q-22 0 -38 -4t-24 -10q15 -3 30 -3q19 0 37 3l46 11q0 -19 -18.5 -28t-50 -13t-79.5 -4t-83 -5t-55 -13q-9 -6 -9 -15q1 -7 2.5 -11.5t2 -6.5t0.5 -3l183 -152q0 -9 17 -19.5t21 -18.5q2 2 4 9q-3 9 -5 14q-3 9 1 15h-11l-92 76q-9 10 -48.5 37.5t-39.5 55.5l1 10l9 -25 q9 -9 32 -28t72 -56.5t83 -80t34 -101.5q-21 -39 -50 -62q-26 -24 -68 -28q4 4 4 6q-2 5 -4 6q-7 -2 -11 -2q-7 0 -10 -6zM112 -119h-7l-17 13q-5 5 -8 14zM69 -86l-21 22q-7 9 -6 17q9 -6 15 -16zM167 439l4 17q-3 6 -9 8q-2 -1 -3.5 -1.5t-8 -5.5t-13.5 -1l2 2 q4 21 -11 22q-9 -1 -13 -2l-15 -2q-6 0 -9 3q4 16 36.5 40t39.5 34v-8t1 -4q14 5 44 35l32 32q12 -3 17 -7q4 -6 4 -10l-81 -91l6 -6q12 8 39 35.5t43 39.5l8 -5l7 5h6q2 -6 4 -18q0 -21 -25 -46l-47 -47l-6 11l-25 -20q-11 -8 -27 -10zM86 500l-10 15q2 3 4.5 6t13 9.5 t5.5 15.5q-3 -3 -15 -11l-15 -4q-8 0 -17 10l9 14q23 12 65 46l49 40l10 -10q3 -3 3 -10l-83 -66v-9q24 6 34.5 15.5t27 25.5t27.5 27h21q-17 -28 -57 -59zM156 -103l-25 15l21 -15h4zM175 -107q20 -15 48 -15q8 0 19 3l-10 8q44 18 63 33q17 11 23 35l3 11l2 16 q0 24 -13 49l-66 50l32 -31q29 -27 32 -51q0 -29 -11 -55t-38 -45q-15 0 -36 -6l-26 -7q-13 0 -22 5zM86 266q-3 -9 -3 -19q0 -36 31 -57q-9 7 -16 22q-3 10 -5 29l2 23q2 15 25 27t30 19q-20 0 -34.5 -10.5t-29.5 -33.5zM305 260h-25v-4h25v4zM320 260h-10v-4h10v4z M341 260h-14v-4h14v4zM393 265q8 1 11 4l-27 -7q5 3 16 3zM158 279l-19 -2v-4zM44 277q6 33 14.5 46.5t23.5 21.5v12q-15 -4 -25 -22l-17 -42zM320 285v7q-19 4 -36.5 6t-42.5 2q-41 0 -70 -7l25 1q12 0 29.5 -1t39.5 -4zM168 317l13 6l-8 3q-6 0 -8.5 -1.5t-3.5 -2.5z M181 340q26 -6 60 -9l73 -2q-12 0 -23.5 0.5t-36.5 4.5l-48 8h-12zM104 357l1 4l-13 -4h12zM282 -128l2 2l-14 -2h12zM253 -117q10 1 22.5 2.5t26.5 5.5q17 3 38 34q-16 -12 -45 -24z" />
<glyph unicode="&#xc4;" horiz-adv-x="852" d="M22 0zM548 791q9 -8 9 -24v-14q0 -7 4 -12q12 -47 15 -54.5t5.5 -12.5t11.5 -19l5 6q0 16 -12 57t-12 56q5 3 8 3l10 1l11 -52q9 -49 23 -70l6 14l-14 51l-11 59q15 2 21 -20l30 -125l74 -259q50 -154 124 -295q3 -11 -8 -26l-9 13l-11 -11l-8 18l-12 -9q-9 12 -21 36.5 t-18 36.5t-9 16q0 -21 11 -46l20 -43q-2 -5 -9 -8l-17 -1l-78 165l-9 -15l34 -79q19 -39 40 -73q-2 -5 -2.5 -7t-0.5 -3q0 -6 6.5 -16t8.5 -17q0 -7 -8 -12q-28 30 -59 102t-47 94q-7 0 -8 -7q6 -12 6 -19q9 -27 27 -63l36 -68q-4 -4 -4 -11q0 -6 4 -14l10 -17q0 -5 -19 -5 q-14 16 -44.5 89t-79.5 85l-304 6l-94 -141l22 43q11 22 14 41q-8 -8 -26.5 -42t-37.5 -50q0 28 29 72t34 55.5t24 11.5q17 0 17 21l-19 1l-16 3q-18 0 -18 -20q-9 -34 -23 -53l-56 -85l-6 9q-6 -7 -16 -14l-26 -10q10 10 19 25.5t17 35.5q-11 -7 -32.5 -41t-41.5 -34l-16 3 q0 34 3 52t23 28q0 14 22 48.5t22 49.5q-2 2 -12 2q-8 0 -14 -2q-9 0 -9 13q-3 15 21 20.5t24 10.5q0 6 -14 19l-18 2q0 7 13 9.5t15 5.5q-2 2 -4 9q0 8 1 11q-4 6 -7 6q13 17 41 20q14 0 26.5 1.5t18.5 2.5l178 341l9 -9q6 4 7 20q0 18 6 24q12 22 21.5 34.5t28.5 9.5 l-14 10q-3 3 -3 8q4 7 6 10l3 2l12 -15l12 19h4q-19 -62 -55 -132l-72 -144q-34 -70 -43 -106q-6 -32 -13 -41.5t-9 -17.5l3 -9l86 183l63 141q8 -4 14 6.5t9 17.5t8 16q0 27 11 46l30 45q20 -3 27 -35t17 -41q3 9 3 18t-2 17.5t-3 14.5l-5 27l4 16l15 -17l5 11q4 10 11 10z M548 661q4 -30 10 -59.5t16 -70.5t30 -89l3 6l-1 16v12q0 10 -2 18q-17 20 -27.5 80.5t-28.5 86.5zM463 635q-39 -42 -69 -117l-54 -139q9 20 22 42l30 51l6 -11l2 18q0 -7 -2 -9q-4 9 3 25l15 27h9q-3 6 -5 14q0 7 8 12l7 -9q3 24 15 57zM478 591l-60 -133l-66 -140 q11 -2 18 -3t21 -1q25 0 28 -1h56h22q11 0 31 -4l-2 -9q2 -3 10 -5l12 3q4 1 5.5 1t5.5 1l-39 151zM317 552l16 31l-2 2zM532 548v-22l33 -125q12 -50 39 -88l-39 139zM672 504l-13 18q34 -142 51 -191.5t46 -97.5zM287 491l5 -2l6 24zM608 422q0 -22 8 -41l21 -46l9 4 q-1 17 -6 27q-3 10 -14 13q5 11 -5.5 23.5t-12.5 19.5zM231 387l2 -2l11 26l-3 2zM220 366l-24 -42q6 4 13.5 20.5t10.5 21.5zM648 324q-2 -2 -2 -10q3 -4 4 -4.5t2 -0.5q5 3 3 9t-7 6zM507 305v-7h6l3 5zM364 276l-12 11q1 -9 -8 -10q-11 0 -11 -7l60 -10q50 -8 90 -8 q7 7 14 7q5 0 11 -7q6 3 19 0l20 -3q6 0 12 3q0 15 -3 20zM246 275h-5l3 -9zM763 224q0 -22 19.5 -51t21.5 -34zM404 185l-8 2l-4 -6zM483 181l16 -3l17 -3q8 0 16 6q-12 3 -24 3zM592 181l-18 2q-8 0 -13 -4l31 -7v9zM128 170q-16 -1 -18 -17.5t-18 -17.5l-46 -104 q16 9 41 58.5t53 49.5q13 0 24 -4q-1 5 -17 14.5t-19 20.5zM148 105h-6l-11 -14zM768 81l10 -13v7q-2 5 -3 6h-7zM465 611l-2 -8zM385 986q11 -4 24 -12t33 -23l43 -30q2 -4 4 -21q-3 1 -5.5 2t-7.5 7t-13 5q6 -3 7 -13q0 -9 5 -12h-13q1 -4 2 -6l1 -5q-4 -2 -10 -4 q-5 0 -17 12q-8 11 -16 14l-21 10q0 -9 14 -22l30 -27q-16 5 -45 28l-38 29l-8 -4l1 -5l-11 12l-10 22h21v7q6 0 23 -11q17 -9 26 -9q-6 8 -20 17t-29 15v5q4 4 11 2l12 -5q5 4 6 7l30 -14q0 6 -13.5 13t-15.5 16zM612 978q9 0 20 -7l16 -14l4 7l31 -29q18 -18 18 -34 q0 -6 -2 -9.5t-3 -3.5h-3l-3 4l-6 -3l-56 51l-5 -4l57 -62q0 -6 -15 -12q-7 4 -24 23.5t-28 23.5q-1 -5 -1 -9q-3 9 -24.5 22.5t-27.5 27.5q3 3 12 1l14 -1q10 0 7 14q3 3 10 -1q8 -4 12 3zM557 936l88 -78h-14q-20 22 -32.5 31.5t-28.5 14.5v-6l56 -45l-1 -7l-8 -7 q-6 3 -32.5 26.5t-44.5 32.5l-6 11q5 6 11 6q8 -2 11.5 -3t9.5 -8q3 6 -4 11t-9 7l-3 3zM317 918l15 -4q-8 -6 -16 -1zM342 907q10 -8 43 -26.5t44 -32.5q-2 -5 -3 -7l-4 -3q-6 0 -13.5 7.5t-14.5 6.5l12 -16q-8 0 -20 12l-19 22q-18 0 -31 8l-26 18q2 3 9 5q3 -1 4 -1 t9.5 -5.5t14.5 -5.5q-4 6 -6 8q-6 4 1 10zM356 885l29 -24z" />
<glyph unicode="&#xc5;" horiz-adv-x="852" d="M22 0zM548 791q9 -8 9 -24v-14q0 -7 4 -12q12 -47 15 -54.5t5.5 -12.5t11.5 -19l5 6q0 16 -12 57t-12 56q5 3 8 3l10 1l11 -52q9 -49 23 -70l6 14l-14 51l-11 59q15 2 21 -20l30 -125l74 -259q50 -154 124 -295q3 -11 -8 -26l-9 13l-11 -11l-8 18l-12 -9q-9 12 -21 36.5 t-18 36.5t-9 16q0 -21 11 -46l20 -43q-2 -5 -9 -8l-17 -1l-78 165l-9 -15l34 -79q19 -39 40 -73q-2 -5 -2.5 -7t-0.5 -3q0 -6 6.5 -16t8.5 -17q0 -7 -8 -12q-28 30 -59 102t-47 94q-7 0 -8 -7q6 -12 6 -19q9 -27 27 -63l36 -68q-4 -4 -4 -11q0 -6 4 -14l10 -17q0 -5 -19 -5 q-14 16 -44.5 89t-79.5 85l-304 6l-94 -141l22 43q11 22 14 41q-8 -8 -26.5 -42t-37.5 -50q0 28 29 72t34 55.5t24 11.5q17 0 17 21l-19 1l-16 3q-18 0 -18 -20q-9 -34 -23 -53l-56 -85l-6 9q-6 -7 -16 -14l-26 -10q10 10 19 25.5t17 35.5q-11 -7 -32.5 -41t-41.5 -34l-16 3 q0 34 3 52t23 28q0 14 22 48.5t22 49.5q-2 2 -12 2q-8 0 -14 -2q-9 0 -9 13q-3 15 21 20.5t24 10.5q0 6 -14 19l-18 2q0 7 13 9.5t15 5.5q-2 2 -4 9q0 8 1 11q-4 6 -7 6q13 17 41 20q14 0 26.5 1.5t18.5 2.5l178 341l9 -9q6 4 7 20q0 18 6 24q12 22 21.5 34.5t28.5 9.5 l-14 10q-3 3 -3 8q4 7 6 10l3 2l12 -15l12 19h4q-19 -62 -55 -132l-72 -144q-34 -70 -43 -106q-6 -32 -13 -41.5t-9 -17.5l3 -9l86 183l63 141q8 -4 14 6.5t9 17.5t8 16q0 27 11 46l30 45q20 -3 27 -35t17 -41q3 9 3 18t-2 17.5t-3 14.5l-5 27l4 16l15 -17l5 11q4 10 11 10z M548 661q4 -30 10 -59.5t16 -70.5t30 -89l3 6l-1 16v12q0 10 -2 18q-17 20 -27.5 80.5t-28.5 86.5zM463 635q-39 -42 -69 -117l-54 -139q9 20 22 42l30 51l6 -11l2 18q0 -7 -2 -9q-4 9 3 25l15 27h9q-3 6 -5 14q0 7 8 12l7 -9q3 24 15 57zM478 591l-60 -133l-66 -140 q11 -2 18 -3t21 -1q25 0 28 -1h56h22q11 0 31 -4l-2 -9q2 -3 10 -5l12 3q4 1 5.5 1t5.5 1l-39 151zM317 552l16 31l-2 2zM532 548v-22l33 -125q12 -50 39 -88l-39 139zM672 504l-13 18q34 -142 51 -191.5t46 -97.5zM287 491l5 -2l6 24zM608 422q0 -22 8 -41l21 -46l9 4 q-1 17 -6 27q-3 10 -14 13q5 11 -5.5 23.5t-12.5 19.5zM231 387l2 -2l11 26l-3 2zM220 366l-24 -42q6 4 13.5 20.5t10.5 21.5zM648 324q-2 -2 -2 -10q3 -4 4 -4.5t2 -0.5q5 3 3 9t-7 6zM507 305v-7h6l3 5zM364 276l-12 11q1 -9 -8 -10q-11 0 -11 -7l60 -10q50 -8 90 -8 q7 7 14 7q5 0 11 -7q6 3 19 0l20 -3q6 0 12 3q0 15 -3 20zM246 275h-5l3 -9zM763 224q0 -22 19.5 -51t21.5 -34zM404 185l-8 2l-4 -6zM483 181l16 -3l17 -3q8 0 16 6q-12 3 -24 3zM592 181l-18 2q-8 0 -13 -4l31 -7v9zM128 170q-16 -1 -18 -17.5t-18 -17.5l-46 -104 q16 9 41 58.5t53 49.5q13 0 24 -4q-1 5 -17 14.5t-19 20.5zM148 105h-6l-11 -14zM768 81l10 -13v7q-2 5 -3 6h-7zM465 611l-2 -8zM480 1068l45 17q21 7 36 7q-19 0 -41 -13l-40 -23q5 0 21.5 8.5t26.5 10.5v-5h4q0 7 11 10l21 5q18 0 30 -5t31 -17q11 -14 18 -33t7 -42 q0 -16 -5 -36.5t-22 -47.5t-44 -43l-32 -14q-11 -4 -25 -4l-18 -1q-44 0 -78 17q-17 14 -26 38q-7 26 -7 53q0 36 23.5 65.5t63.5 52.5zM534 1064l15 -3q10 -1 16 0q-6 3 -20 5h-6zM577 1065l5 -5q3 -1 4 -3t2 -3h5q14 -11 24.5 -32.5t13.5 -42.5l2 12l-3 17l-5 17l-22 26 q-10 13 -26 14zM517 1048q6 3 17 0l11 -2q-13 4 -21 4q-6 -1 -7 -2zM489 1048q-13 -7 -26 -20t-19 -37l-1 -27q0 -14 6 -23l-1 32q0 10 1.5 19t11.5 23zM587 1019q16 -22 16 -49q0 -13 -3 -21l-7 -19q-6 -14 -6 -19q5 8 8.5 16.5t8.5 18.5t5 25q0 10 -6 22l-13 31 q-11 20 -30 23zM466 1042q-22 -12 -30 -32l-20 -40q0 -5 -3 -14l-3 -14q0 21 2.5 33t15 34t38.5 37v-4zM511 1042q2 -2 14 -5q10 0 12 -2q-17 3 -26 7zM497 1035q-31 -16 -31 -49l-2 -24q0 -23 8.5 -40t19.5 -24l22 -9q9 -3 17 -3q9 0 17 4q9 9 15 24.5t6 33.5q0 11 -2 18 q0 11 -2 15q-7 4 -10 19q-17 35 -58 35zM542 1035l-1 -3q11 -5 21.5 -17.5t18.5 -27.5q0 13 -10 25t-29 23zM642 1002q-6 -4 0 -12v12zM436 970l-2 -24v-22q3 -17 21 -35q17 -14 38 -20q-29 13 -43 39t-14 53v9zM423 940q0 -20 5.5 -34.5t18.5 -20.5q-9 9 -17 28zM559 869 q23 11 39.5 25t22.5 34q-10 -14 -14 -18.5t-16 -16t-32 -24.5zM423 908q6 -27 30 -44q5 -5 17 -8h18h21q-61 0 -86 52zM580 900v7l-13 -20zM459 876l-4 2l6 -4zM584 961l3 15z" />
</font>
</defs>
</svg>
