<?xml version="1.0" standalone="no"?>
<!DOCTYPE svg PUBLIC "-//W3C//DTD SVG 1.1//EN" "http://www.w3.org/Graphics/SVG/1.1/DTD/svg11.dtd" >
<svg xmlns="http://www.w3.org/2000/svg">
<metadata></metadata>
<defs>
<font id="euphoria_scriptregular" horiz-adv-x="1057" >
<font-face units-per-em="1250" ascent="1000" descent="-250" />
<missing-glyph horiz-adv-x="267" />
<glyph horiz-adv-x="1250" />
<glyph horiz-adv-x="1250" />
<glyph unicode="&#xd;" horiz-adv-x="1250" />
<glyph unicode=" "  horiz-adv-x="267" />
<glyph unicode="&#x09;" horiz-adv-x="267" />
<glyph unicode="&#xa0;" horiz-adv-x="267" />
<glyph unicode="!" horiz-adv-x="236" d="M66 239q0 96 23 221t61.5 219.5t76.5 94.5q16 0 16 -16q-40 -90 -86.5 -288.5t-46.5 -276.5q0 -13 -14 -13q-30 0 -30 59zM90 -8q-17 0 -25.5 29t-0.5 58.5t32 29.5t24 -23q0 -10 -7.5 -33.5t-14.5 -42.5z" />
<glyph unicode="&#x22;" horiz-adv-x="293" d="M131 553q-7 0 -8.5 14.5t0.5 35.5t6 43.5t9 40.5q5 26 28 26q12 0 17 -8t3 -19q-8 -40 -26.5 -86.5t-28.5 -46.5zM237 553q-7 0 -8.5 14.5t0.5 35.5t6 43.5t9 40.5q5 26 28 26q11 0 16.5 -8t3.5 -19q-8 -40 -26.5 -86.5t-28.5 -46.5z" />
<glyph unicode="#" horiz-adv-x="775" d="M55 270q5 -7 22 -7h112q8 61 27 143q-58 -2 -122 -2q-29 0 -33 20q1 15 12 18q4 -6 21 -6h130q26 97 57 157t55 60q16 0 16 -16q-35 -75 -67 -200q98 0 146 1q26 96 57 155.5t55 59.5q16 0 16 -16q-36 -74 -68 -199q71 1 151 1q9 0 8 -11q-4 -12 -21 -13q-41 0 -144 -3 q-11 -42 -31 -147q79 1 170 1q9 0 8 -11q-4 -12 -21 -13q-47 0 -162 -3q-32 -184 -32 -259q0 -13 -14 -13q-23 0 -23 80q0 99 12 191q-27 -1 -77 -2.5t-73 -1.5q-31 -175 -31 -254q0 -13 -14 -13q-23 0 -23 80q0 93 11 186q-102 -2 -108 -2q-30 0 -34 22q-1 15 12 17z M247 263q24 1 73.5 1.5t74.5 0.5q12 75 29 145q-19 0 -69.5 -1t-76.5 -2q-7 -20 -12 -42.5t-11 -58t-8 -43.5z" />
<glyph unicode="$" horiz-adv-x="479" d="M109 -14q40 0 71 10q17 101 58 336q-8 7 -28.5 24t-29.5 26t-21.5 24t-18 30.5t-5.5 33.5q0 59 48 112t111 68q2 14 5 32t5 29.5t3 17.5q3 14 17 8q21 -9 15 -45q-1 -3 -3 -16t-4 -22q20 -1 30 -13.5t10 -24.5l-1 -12q-10 7 -36 7q-7 0 -11 -1q-31 -169 -49 -258 q30 -26 47 -43.5t33.5 -50.5t16.5 -68q0 -71 -44.5 -131.5t-123.5 -84.5q-3 -14 -7 -34t-6.5 -34t-3.5 -23q-2 -12 -12 -8q-15 7 -9 38q1 7 4 26t4 28q-40 -6 -65 -6q-98 0 -118 66q-17 55 25 115q48 67 126 73l14 1q13 0 21 -8t9 -16l2 -7q-71 0 -123 -59 q-44 -51 -33.5 -95.5t77.5 -44.5zM198 468q0 -42 49 -89q20 124 37 219q-36 -17 -61 -52t-25 -78zM210 9q48 25 74 72.5t26 108.5q0 64 -44 113z" />
<glyph unicode="%" horiz-adv-x="721" d="M149 270q-72 0 -89 83q-17 81 25 179q41 95 105 117q16 6 32 6q10 0 14.5 -5t3.5 -10v-5q-59 0 -98 -85.5t-36.5 -171t44.5 -85.5q48 0 82.5 73.5t32.5 147.5t-42 74q0 3 1.5 7t9.5 11t21 7q43 0 47 -75q4 -86 -38 -172q-48 -96 -115 -96zM166 -23q32 66 174.5 379.5 t157.5 345.5q12 22 29 22q12 0 16.5 -11.5t-0.5 -34t-19 -51.5q-13 -26 -93.5 -185t-153.5 -306.5t-101 -208.5q-10 -20 -20 -14q-16 8 8 60zM481 -23q-72 0 -88 83q-17 81 25 179q40 94 104 117q16 6 32 6q10 0 15 -5t5 -10l-1 -5q-59 0 -98 -85.5t-36.5 -171t43.5 -85.5 q49 0 83.5 74t32.5 147.5t-43 73.5q0 3 1.5 7t10 11t21.5 7q43 0 47 -75q4 -86 -39 -172q-49 -95 -115 -96z" />
<glyph unicode="&#x26;" horiz-adv-x="721" d="M-29 117q0 61 37 112t110 114q-18 62 -19.5 116.5t14 98.5t54.5 69t98 25q7 0 12.5 -3.5t8 -8t4.5 -8.5l2 -5q-82 0 -109 -66t-5 -169q45 39 74.5 68.5t61 71t47 88.5t15.5 99q4 -1 9.5 -3t14.5 -13.5t9 -28.5q0 -60 -35.5 -121t-67.5 -93t-102 -92q-11 -9 -16 -14 q42 -153 146 -272q49 57 68.5 136t5.5 135t-54 56q6 21 34 21q39 0 52.5 -63.5t-9.5 -153t-79 -152.5q103 -106 204 -106q61 0 80 38q10 21 -1 27q-1 1 -3 1q0 1 0.5 2.5t2.5 5.5t5 7.5t9 6t13 2.5q22 0 23 -25q1 -36 -40 -65q-41 -28 -104 -28q-114 0 -226 100 q-72 -55 -163 -55q-74 0 -127.5 38t-53.5 107zM22 110q0 -52 39 -81.5t93 -29.5q79 0 141 46q-107 107 -163 258q-110 -101 -110 -193z" />
<glyph unicode="'" horiz-adv-x="265" d="M174 618q17 0 27 33.5t10 70.5q0 31 26 31q32 0 27 -46q-5 -50 -37 -83q-19 -17 -37 -18q-7 0 -11 3t-5 6v3z" />
<glyph unicode="(" horiz-adv-x="276" d="M118 -77q-60 33 -84.5 129.5t-10.5 213.5t48 230t91.5 192t118.5 87q6 0 8.5 -4t1 -9t-5.5 -5q-57 -9 -111 -126.5t-81.5 -259.5t-22 -272.5t54.5 -161.5q4 -3 5 -8t-2.5 -7t-9.5 1z" />
<glyph unicode=")" horiz-adv-x="297" d="M3 -65q57 9 110.5 127.5t81.5 261.5t22.5 274t-55.5 163q-6 4 -3.5 11t11.5 3q51 -28 76 -102t23.5 -166t-22.5 -194t-56.5 -187.5t-85 -144t-100.5 -64.5q-5 0 -7.5 4t-0.5 9t6 5z" />
<glyph unicode="*" horiz-adv-x="442" d="M120 676q7 23 32.5 22.5t58 -17.5t44.5 -37q5 20 -2 96q-2 13 3.5 22.5t18.5 10.5q14 1 22 -8t10 -25t0 -34.5t-8 -36t-15 -29.5q26 9 77 41q28 15 40 -6q18 -30 -32.5 -52.5t-89.5 -11.5q10 -17 65 -67q23 -21 6 -40q-25 -27 -61 16.5t-35 82.5q-20 -18 -51 -79 q-15 -27 -38 -15q-20 14 -11.5 37.5t34 47.5t49.5 31q-18 8 -90 20q-31 4 -27 31z" />
<glyph unicode="+" horiz-adv-x="626" d="M75 331q4 -6 21 -6h159q19 93 46 154t47 61q12 0 12 -11q-33 -68 -58 -182q-2 -8 -6 -22h207q9 0 8 -11q-2 -13 -21 -13q-57 0 -199 -5q-35 -177 -35 -248q0 -10 -10 -10q-13 0 -13 59q0 104 17 198q-134 -2 -154 -2q-29 0 -33 20q1 15 12 18z" />
<glyph unicode="," horiz-adv-x="204" d="M28 -23q17 0 27 33.5t10 70.5q0 31 26 31q32 0 27 -46q-5 -50 -37 -83q-18 -18 -37 -18q-7 0 -11 3t-5 6v3z" />
<glyph unicode="-" horiz-adv-x="578" d="M75 331q4 -6 21 -6h362q10 0 9 -11q-4 -12 -21 -13q-30 0 -174 -4t-176 -4q-29 0 -33 20q1 15 12 18z" />
<glyph unicode="." horiz-adv-x="234" d="M78 -7q-17 0 -20 29t11 58.5t38 29.5q20 0 20 -23q0 -12 -12.5 -35.5t-24.5 -41.5z" />
<glyph unicode="/" horiz-adv-x="433" d="M5 -23q33 67 178.5 386.5t154.5 338.5q12 22 29 22q12 0 16 -11.5t-0.5 -34t-18.5 -51.5q-13 -26 -93.5 -185t-153.5 -306.5t-101 -208.5q-10 -20 -20 -14q-17 8 7 60z" />
<glyph unicode="0" horiz-adv-x="491" d="M158 -1q-110 0 -145 116q-33 112 13 265q46 151 136 226q57 48 120 48q9 0 14.5 -6.5t6.5 -13.5l1 -6q-101 0 -170.5 -150t-63.5 -300t88 -150q88 0 150 137t59 274t-72 137q1 4 3 9.5t13.5 15t29.5 9.5q62 0 76 -103q15 -114 -34 -262q-54 -162 -144 -220 q-39 -26 -81 -26z" />
<glyph unicode="1" horiz-adv-x="395" d="M1 344q0 66 61.5 140.5t143 122t142.5 47.5q16 0 16 -16q-54 -61 -101.5 -289.5t-47.5 -336.5q0 -13 -14 -13q-30 0 -30 80q0 177 34 331.5t87 213.5q-84 -30 -158.5 -119t-74.5 -170q0 -45 26 -45q-5 -23 -29 -23q-23 0 -39 21t-16 56z" />
<glyph unicode="2" horiz-adv-x="491" d="M-34 47q-5 0 -6 7.5t1 15t6 7.5q20 0 80 53t124.5 125t115 155t50.5 135q0 77 -84 77t-138 -78q-36 -53 -31 -92q3 -21 19 -21v-5t-2 -10t-5.5 -13t-11.5 -10.5t-18 -4.5q-41 0 -39 49q2 60 58 125q79 91 186 92q69 0 104.5 -33.5t35.5 -89.5q0 -53 -41 -123 t-102.5 -133.5t-125 -116.5t-114.5 -84q27 -2 77.5 -8.5t94 -10.5t80.5 -4q24 0 44 5.5t30.5 13.5t17.5 16t9 14l2 5q17 0 14 -26q-4 -40 -46 -67q-35 -21 -84 -21q-70 0 -170.5 28t-130.5 28z" />
<glyph unicode="3" horiz-adv-x="468" d="M-85 -8q0 14 9.5 25.5t19.5 15.5l9 4q0 -20 8 -40t35.5 -38.5t72.5 -18.5q103 0 167 88q56 77 46 164q-9 91 -87 123q-34 14 -78 14q0 4 1 9.5t9 14.5t21 9q46 0 108 66t62 131q0 28 -18.5 45.5t-55.5 17.5q-70 0 -110 -56q-29 -39 -17 -63q5 -12 20 -12q0 -5 -2 -12 t-12.5 -18.5t-27.5 -11.5q-41 0 -42 39q0 47 50 98q68 68 160 68q102 0 121 -70q16 -62 -38 -137q-48 -63 -120 -95q114 -32 132 -140t-66 -203.5t-223 -95.5q-40 0 -71.5 8.5t-48.5 21.5t-25.5 26t-8.5 23z" />
<glyph unicode="4" horiz-adv-x="547" d="M11 204h7q25 22 47.5 74.5t36 112t21.5 115t5.5 92.5t-15.5 37q3 19 22 19q30 0 39.5 -87.5t-10.5 -200t-65 -169.5q118 -16 185 -19q5 72 16 135.5t28.5 118.5t44.5 87t60 32q16 0 16 -16q-31 -42 -59.5 -142.5t-46.5 -213.5q75 7 99 61q13 30 0 45q-4 4 -8 4 q7 22 28 22q26 0 31 -30q7 -43 -33 -82q-44 -43 -121 -48q-14 -95 -14 -155q0 -14 -14 -14q-31 0 -31 80q0 58 2 88q-46 1 -217 15q-25 -15 -49 -15q-50 0 -56 23q-4 17 22 27q13 4 29 4z" />
<glyph unicode="5" horiz-adv-x="450" d="M-85 -8q0 14 9.5 25.5t19.5 15.5l9 4q0 -20 8 -40t35.5 -38.5t72.5 -18.5q102 0 167 102q57 90 52 194t-72 139q-26 14 -59 14q-22 0 -40.5 -9t-29.5 -20.5t-23 -20.5t-22 -9q-12 0 -19.5 6t-8.5 12l-2 7q27 0 44.5 45t24 98.5t17.5 98.5t27 45q2 0 19.5 -7t48 -14 t62.5 -7q31 0 54.5 6.5t35.5 16t19.5 19t9.5 16.5l2 6q14 0 12 -29q-4 -48 -48 -79q-36 -24 -87 -24q-69 0 -126 30q-3 -16 -8 -52.5t-10.5 -67.5t-12.5 -55q40 20 83 20q119 0 163 -97q40 -87 2 -200q-39 -116 -135 -173q-64 -38 -140 -38q-40 0 -71.5 8.5t-48.5 21.5 t-25.5 26t-8.5 23z" />
<glyph unicode="6" horiz-adv-x="467" d="M81 201q0 49 21 104.5t68.5 100.5t108.5 45q85 0 110 -87q24 -86 -21 -193q-45 -111 -130 -153q-38 -19 -80 -19q-107 0 -143 112t11 268q50 164 157 257q88 77 191 77q9 0 14.5 -6.5t6.5 -12.5l1 -7q-130 0 -225 -153q-79 -127 -96 -286q-16 -143 33 -197q20 -23 50 -23 q77 0 131 100q48 91 44 188q-3 92 -55 104q-7 2 -15 2q-60 0 -107 -74.5t-47 -147.5q0 -5 -7 -7t-14 0.5t-7 7.5z" />
<glyph unicode="7" horiz-adv-x="381" d="M47 635q18 -16 52 -16q31 0 136 17.5t148 17.5q16 0 16 -16q-49 -43 -124 -152t-138 -246.5t-63 -225.5q0 -13 -14 -13q-49 0 -20 127q33 145 125 308q73 130 141 184q-27 -4 -108.5 -25t-120.5 -21q-23 0 -30.5 15t-3.5 31z" />
<glyph unicode="8" horiz-adv-x="465" d="M-29 117q0 29 11.5 59t24.5 51t44 52t47.5 45.5t57.5 49.5q-47 64 -47 129q0 63 43.5 106t112.5 43q20 0 31.5 -7t13.5 -15l2 -7q-11 4 -39 4q-52 0 -78.5 -30t-26.5 -73q0 -48 41 -104q79 72 123 141t44 158q4 -1 9.5 -3t14.5 -13.5t9 -28.5q0 -80 -46.5 -144 t-131.5 -138q9 -11 34.5 -40t38 -45t29 -42t24 -51t7.5 -52q0 -89 -63 -139.5t-149 -50.5q-74 0 -127.5 38t-53.5 107zM22 110q0 -52 39 -81.5t93 -29.5q60 0 104 37t44 101q0 30 -14 62t-25 47.5t-44.5 53.5t-40.5 46q-76 -66 -116 -120t-40 -116z" />
<glyph unicode="9" horiz-adv-x="477" d="M-99 -8q0 14 9 25.5t18 15.5l9 4q1 -34 24 -65.5t75 -31.5q107 0 194 144q78 129 98 291q19 158 -36 220q-26 29 -64 29q-78 0 -126.5 -98.5t-38.5 -197t75 -98.5q60 0 103.5 73.5t41.5 147.5q0 5 7 7t14.5 0t7.5 -8q1 -49 -18 -104.5t-65 -100.5t-107 -45q-86 0 -112 88 q-26 86 14 193q42 111 125 152q38 19 79 19q115 0 156 -118q39 -115 -5 -276q-46 -167 -150 -263q-88 -82 -192 -82q-64 0 -99.5 27t-36.5 52z" />
<glyph unicode=":" horiz-adv-x="250" d="M78 -7q-17 0 -20 29t11 58.5t38 29.5q20 0 20 -23q0 -12 -12.5 -35.5t-24.5 -41.5zM102 258q-17 0 -20 29.5t11 59t38 29.5q20 0 20 -24q0 -11 -12 -34.5t-25 -41.5z" />
<glyph unicode=";" horiz-adv-x="240" d="M28 -23q17 0 27 33.5t10 70.5q0 31 26 31q32 0 27 -46q-5 -50 -37 -83q-18 -18 -37 -18q-7 0 -11 3t-5 6v3zM108 258q-17 0 -20 29.5t10.5 59t37.5 29.5q21 0 21 -24q0 -11 -12.5 -34.5t-24.5 -41.5z" />
<glyph unicode="&#x3c;" horiz-adv-x="533" d="M9 239q1 4 4.5 10t19.5 16.5t38 10.5q105 0 193.5 72t88.5 134q3 -1 8 -3t13 -14t8 -30q0 -43 -81.5 -105.5t-160.5 -70.5q67 -30 123.5 -96.5t56.5 -112.5q0 -15 -7 -26.5t-15 -15.5l-7 -4q0 73 -88 154t-194 81z" />
<glyph unicode="=" horiz-adv-x="654" d="M75 256q4 -6 21 -6h407q9 0 8 -11q-2 -13 -21 -13q-29 0 -195 -4t-199 -4q-29 0 -33 20q1 15 12 18zM75 406q4 -6 21 -6h407q9 0 8 -11q-2 -13 -21 -13q-29 0 -195 -4t-199 -4q-29 0 -33 20q1 15 12 18z" />
<glyph unicode="&#x3e;" horiz-adv-x="463" d="M27 52q0 43 81 105.5t161 70.5q-67 30 -123.5 96.5t-56.5 112.5q0 15 7 26t14 15l7 4q0 -73 88 -153.5t195 -80.5q-1 -4 -5 -10t-20 -16.5t-38 -10.5q-70 0 -137.5 -36t-106 -84t-38.5 -87q-3 1 -7.5 3.5t-12.5 14.5t-8 30z" />
<glyph unicode="?" horiz-adv-x="492" d="M132 190q0 32 29.5 78t71 93.5t83 97.5t71 105.5t29.5 102.5q0 77 -85 77q-84 0 -138 -78q-36 -53 -31 -92q3 -21 20 -21q0 -5 -1 -12t-10.5 -19t-26.5 -12q-41 0 -39 49q2 60 58 125q79 91 187 92q68 0 104 -34t36 -89q0 -53 -33.5 -109.5t-81 -103.5t-95 -90.5 t-81 -85.5t-33.5 -74q0 -11 -17 -11.5t-17 11.5zM136 -8q-17 0 -25.5 29t-0.5 58.5t32 29.5t24 -23q0 -10 -7.5 -33.5t-14.5 -42.5z" />
<glyph unicode="@" horiz-adv-x="837" d="M330 134q-52 0 -59 72q-7 81 39 172q50 99 123 115l23 3q19 0 32 -10t17 -20l4 -10q3 -15 -13 -15q-7 0 -11.5 2.5t-5.5 4.5l-1 3q-8 20 -27 20q-44 0 -81.5 -79t-42.5 -147t11 -79q6 0 13.5 6t17.5 18t19.5 25t23 33.5t22.5 35.5t24 39.5t24 38.5t19.5 32t16.5 28 t13 20.5t14 15t15 4.5q14 0 14 -18q-20 -36 -37.5 -102t-12.5 -126.5t46 -60.5q56 0 99 80q48 92 38 198q-13 128 -111 174q-45 22 -106 22q-163 0 -265 -133q-83 -108 -88 -249q-6 -140 69 -218q58 -60 152 -60q42 0 76 10.5t52 25t30.5 29.5t16.5 26l4 10l18 -1 q-1 -5 -4 -13.5t-17 -30.5t-34.5 -38.5t-60.5 -30t-90 -13.5q-162 0 -231 121q-60 105 -26 249q34 147 145 242q113 98 267 98q163 0 219 -125q43 -97 7 -221q-30 -107 -97 -152q-32 -22 -65 -22q-54 0 -75.5 45t-15.5 112h-8q-90 -156 -139 -156z" />
<glyph unicode="A" d="M187 353q14 0 23 -8.5t11 -17.5l2 -9q-59 0 -106 -41.5t-64.5 -100.5t-13.5 -118t48 -100.5t119 -41.5q82 0 163 70q-36 35 -45.5 97.5t9 130.5t56.5 130t103 102t142 40q34 0 73 -12q36 59 66 103.5t68 89t73 73t76.5 46.5t83.5 18q16 0 16 -16q-66 -145 -107 -317 q-30 -123 -49.5 -262.5t-19.5 -236.5q0 -14 -14 -14q-35 0 -35 80q0 48 -5 96.5t-18.5 108.5t-43.5 109.5t-74 74.5q-11 -21 -41.5 -80t-45 -86.5t-43 -77t-48.5 -79.5t-48.5 -65t-55.5 -61q10 -3 24 -3q84 0 139 55.5t76 131.5q3 11 16 10q8 -1 6 -8q-22 -86 -83.5 -150.5 t-154.5 -64.5q-21 0 -47 7q-92 -74 -196 -74q-135 0 -192 106q-47 88 -22 196q24 103 98 147q37 22 81 22zM391 4q38 36 81 94.5t68 98.5t78 130t69 116q-24 7 -54 7q-84 0 -151 -55t-98 -128.5t-31 -148.5t38 -114zM741 459q97 -53 136 -212q18 170 58.5 312.5t86.5 205.5 q-80 -21 -146 -99t-135 -207z" />
<glyph unicode="B" horiz-adv-x="762" d="M-2 531q0 59 71.5 109.5t154.5 75t141 24.5q16 0 16 -16q-42 -97 -79 -253q-19 -78 -39 -188h8q29 91 61.5 169t75 155t93.5 121.5t104 44.5q84 0 100 -68q15 -66 -39 -147q-41 -60 -104 -97q110 -35 118 -176.5t-107 -271t-310 -129.5q-153 0 -199 89q-31 60 0 126 q26 55 74 63q7 1 13 1q5 0 7 -5.5t-0.5 -11.5t-7.5 -6q-34 0 -57 -44q-29 -55 -4 -105q35 -68 156 -68q152 0 264 128q87 98 107 215q19 110 -36 155q-22 18 -54 21q-54 -23 -116 -23q-7 0 -7 13.5t7 13.5q101 0 177 95q56 71 60 139q-2 60 -47 63q-49 0 -105 -70t-101 -170 t-82.5 -204.5t-58.5 -179t-21 -87.5t-14 -13q-30 0 -30 80q0 193 43.5 375t96.5 243q-58 -8 -120 -31.5t-112.5 -69t-50.5 -98.5q0 -26 20 -26q-4 -14 -23 -14q-17 0 -30.5 14t-13.5 39z" />
<glyph unicode="C" horiz-adv-x="605" d="M263 -122q-133 0 -180 133q-46 129 3 316q50 192 167 318q120 128 264 129q20 0 29 -13t8 -25v-13q-8 3 -35 3q-138 0 -247 -161q-94 -139 -123 -324q-28 -179 26 -269q36 -60 101 -60q88 0 150 101q42 68 42 120q0 23 -12 23q6 23 30 23q33 0 27 -55q-7 -71 -65 -145 q-79 -101 -185 -101zM545 523q0 102 23 164.5t60 62.5q10 0 17 -7t7 -19q-3 -3 -8 -8.5t-17.5 -24.5t-22 -41.5t-17.5 -59t-8 -76.5q0 -4 -8.5 -5t-17 3t-8.5 11z" />
<glyph unicode="D" horiz-adv-x="750" d="M44 478q-35 0 -37 43q-2 58 54 125q90 108 250 125l55 3q182 0 264 -145q70 -126 41 -306q-29 -178 -138 -302q-120 -137 -286 -137q-153 0 -196 89q-29 60 4 126q29 56 79 63q5 1 11 1q5 0 6.5 -5.5t-1 -11.5t-7.5 -6q-34 0 -59 -44q-30 -55 -6 -105q32 -68 153 -68 q137 0 248 140q100 126 129 296q31 179 -39 288q-65 101 -204 101q-174 0 -261 -117q-44 -60 -44 -112q0 -21 9 -21q-6 -20 -25 -20zM188 99q0 152 27 295.5t66.5 227t76.5 83.5q16 0 16 -16q-45 -93 -79 -248q-63 -283 -63 -409q0 -13 -14 -13q-30 0 -30 80z" />
<glyph unicode="E" horiz-adv-x="632" d="M224 -152q-148 0 -202 108q-48 96 -4 226q46 136 164 222q73 52 161 72q-80 29 -80 102q0 68 66 128q76 68 184 68q18 0 27 -14t8 -28v-13q-8 4 -34 4q-91 0 -153 -64q-52 -53 -42 -105q11 -59 101 -66q11 -1 22 -1t18.5 -6.5t9.5 -12.5l3 -7q-173 0 -290 -133 q-90 -102 -106 -230q-16 -120 46 -179q39 -38 102 -38q142 0 218 120q55 86 49 182q-4 78 -46 93q-8 3 -17 3q13 23 48 23q49 0 64 -65q19 -81 -25 -184q-54 -126 -163 -177q-60 -28 -129 -28zM548 558q0 102 23 164.5t61 62.5q10 0 17 -7.5t7 -18.5q-3 -3 -8 -8.5 t-17.5 -25t-22 -41.5t-17.5 -59t-8 -77q0 -4 -8.5 -4.5t-17.5 3.5t-9 11z" />
<glyph unicode="F" horiz-adv-x="680" d="M142 -81q23 0 44.5 6.5t40 22t33.5 30.5t30 44t25.5 49t23 59.5t20 61t18.5 67.5t16 66.5t16 69.5q7 31 11 47q-56 -9 -84 -9q-29 0 -33 25q-1 20 11 23q5 -6 22 -6q36 0 93 5q25 98 48 159.5t54 93.5q-16 -1 -50 -1q-192 0 -269 -113q-46 -67 -34 -136q12 -46 39 -50 q-3 -14 -23 -14q-41 0 -58 50q-22 64 18 137q59 109 214 140q53 10 113 10q61 0 104 12t59 27t32.5 27t32.5 12q21 0 17 -18q-7 -28 -60 -53q-32 -14 -72 -22q-33 -14 -55 -76.5t-46 -180.5q52 5 86 5q9 0 8 -11q-4 -12 -21 -13q-17 0 -79 -10q-47 -232 -82 -328 q-81 -225 -226 -242q-12 -1 -25 -1q-117 0 -146.5 107t26.5 214t147 107q13 0 21.5 -6t9.5 -12l2 -6q-86 0 -142 -89q-51 -80 -43 -166q8 -88 75 -109q18 -5 38 -5zM580 317q0 102 23 164.5t61 62.5q10 0 17 -7t7 -19q-3 -3 -8 -8.5t-17.5 -25t-22 -42t-17.5 -59t-8 -76.5 q0 -4 -8.5 -4.5t-17.5 3.5t-9 11z" />
<glyph unicode="G" horiz-adv-x="755" d="M121 58q13 0 21 -6.5t10 -13.5l1 -6q-62 0 -97 -68q-37 -70 -15 -147q25 -88 115 -112q30 -8 65 -8q58 0 104.5 20.5t81 66.5t57.5 86.5t43.5 115.5t29.5 116.5t25 124.5q1 6 2 10t2 9.5t2 10.5q2 16 8 39h-10q-60 -114 -127 -191t-129 -77q-54 0 -85 37t-37 97t6 133 t40 149q-55 13 -87.5 46.5t-35.5 73.5t9.5 78t44.5 63.5t72 25.5q9 0 14 -5.5t5 -11.5l1 -5q-41 0 -70.5 -32t-36.5 -73t16.5 -81t77.5 -53q52 130 131.5 217t164.5 87q73 0 85 -60q13 -62 -43 -138q-70 -96 -193 -127q-37 -9 -77 -11q-44 -136 -44 -256t55 -120q38 0 87 53 t91.5 131t72 139t45.5 103q15 37 29.5 55t34.5 18q22 0 22 -23q-36 -85 -70 -285q-10 -54 -16.5 -87.5t-19 -87t-24 -88.5t-30.5 -81.5t-40 -77t-50.5 -63t-63 -51.5t-76.5 -31t-93 -12q-156 0 -215 104q-45 76 -18 166q24 78 85 105q23 9 47 9zM321 465q128 9 211 103 q58 65 58 125q-6 49 -50 52q-63 0 -120.5 -79.5t-98.5 -200.5z" />
<glyph unicode="H" horiz-adv-x="902" d="M168 312q15 0 24 -9t10 -18l2 -9q-91 0 -142.5 -89t-23.5 -178.5t131 -89.5q34 0 64 13.5t52.5 35t42.5 57t34 69t28.5 83t23.5 87.5t20 92q-32 -4 -54 -4q-28 0 -32 25q-4 19 8 23q1 1 3 1q4 -7 21 -7q22 0 63 3q19 91 30 137.5t33 102t47 79.5q-43 -8 -87 -24t-85 -40 t-67 -59t-26 -73q0 -26 20 -26q-4 -14 -23 -14q-17 0 -30.5 14t-13.5 39q0 44 42 85t102 66.5t121 41t102 15.5q8 0 13 -4t5 -8l1 -4q-21 0 -36 -18t-28 -63t-19.5 -79t-19.5 -108q-2 -12 -3.5 -19t-3 -17.5t-3.5 -19.5q176 15 234 18q32 166 80 275.5t91 109.5q16 0 16 -16 q-66 -145 -107 -317q-30 -123 -49.5 -262.5t-19.5 -236.5q0 -14 -14 -14q-35 0 -35 80q0 169 32 356q-26 -3 -64.5 -7.5t-90 -11.5t-79.5 -10q-12 -65 -23.5 -115.5t-30 -110t-43 -102t-56.5 -79t-75.5 -55.5t-95.5 -19q-78 0 -125.5 44t-54.5 107t7 126t57.5 107t99.5 44z " />
<glyph unicode="I" horiz-adv-x="587" d="M173 312q15 0 23.5 -9t9.5 -18l2 -9q-90 0 -141.5 -89t-23.5 -178.5t131 -89.5q56 0 98.5 36.5t68.5 98t45 137t33 157.5t27.5 155t33.5 135.5t47 92.5q-78 -27 -141.5 -85.5t-63.5 -127.5q0 -31 21 -31q-2 -14 -22 -14q-17 0 -31.5 15t-14.5 43q0 59 58.5 114.5t131 86 t124.5 30.5q8 0 13 -4t6 -8l1 -4q-29 0 -49.5 -37t-30.5 -97.5t-22 -138t-22.5 -158.5t-33.5 -158.5t-53.5 -138t-84.5 -97.5t-124 -37q-78 0 -125.5 44t-54.5 107t7 126t57.5 107t99.5 44z" />
<glyph unicode="J" horiz-adv-x="732" d="M226 -205q75 0 131 44.5t89 117.5t57 163t40.5 186.5t32 181t40 153.5t57.5 98q-141 -22 -215 -138q-52 -82 -44 -160q6 -63 49 -69q4 -1 8 -1q0 -1 -0.5 -2.5t-2.5 -5.5t-5.5 -7.5t-10.5 -6t-17 -2.5q-59 0 -75 63q-20 72 27 162q60 115 187 163q72 27 157 27 q11 0 17 -5t6 -10l1 -5q-29 0 -49.5 -33t-33 -89.5t-23.5 -129t-24 -153t-30 -161t-47.5 -153t-71 -129t-104.5 -89.5t-145 -33q-55 0 -98 17t-68.5 46t-41 66t-16 78.5t7 83t28.5 78.5t47.5 66t64 46t79.5 17q21 0 33.5 -11t14.5 -21l2 -11q-18 2 -25 2 q-108 0 -167.5 -108.5t-23 -217t161.5 -108.5z" />
<glyph unicode="K" horiz-adv-x="660" d="M0 531q0 59 71.5 109.5t154.5 75t141 24.5q16 0 16 -16q-42 -97 -80 -253q-28 -119 -48.5 -250t-20.5 -189q0 -13 -14 -13q-30 0 -30 80q0 193 43.5 375t96.5 243q-58 -8 -120 -31.5t-112.5 -69t-50.5 -98.5q0 -26 20 -26q-4 -14 -23 -14q-17 0 -30.5 14t-13.5 39z M334 308q-1 1 -1.5 4t2.5 10.5t9 15.5q271 435 378 435q14 0 22 -12.5t9 -24.5l1 -12q-21 0 -46 -13.5t-57.5 -45t-57 -58t-66 -80t-62.5 -81.5t-67 -90q24 -16 67 -103.5t83 -181.5t89 -171t86 -77q13 0 23 4.5t14 9.5l3 5q12 0 1 -20q-22 -30 -54 -33q-50 0 -101.5 53.5 t-92 129.5t-75.5 152.5t-63 130t-44 53.5z" />
<glyph unicode="L" horiz-adv-x="584" d="M8 -22q-31 0 -38 -22q-7 -24 27 -38q23 -9 59 -9q48 0 90 29q-88 40 -138 40zM18 3q57 0 160 -37q46 52 77.5 156.5t50 212t40.5 209t63.5 166t105.5 64.5q28 0 42.5 -14t14.5 -28l1 -14q-10 10 -36 10q-45 0 -74.5 -60.5t-48 -157t-38 -199.5t-58.5 -204.5t-95 -156.5 q35 -14 104 -42.5t110 -44.5t90 -30t79 -14q22 0 39.5 5.5t27.5 13.5t17 16.5t9 13.5l2 6q16 0 16 -26q-1 -40 -41 -66q-34 -22 -83 -22q-45 0 -104 18.5t-95 34.5t-113.5 56.5t-96.5 49.5q-55 -36 -128 -36q-84 0 -108 44q-18 31 10 56q21 20 60 20zM562 523 q0 102 23 164.5t61 62.5q10 0 17 -7t7 -19q-3 -3 -8 -8.5t-17.5 -24.5t-22 -41.5t-17.5 -59t-8 -76.5q0 -4 -8.5 -5t-17.5 3t-9 11z" />
<glyph unicode="M" horiz-adv-x="968" d="M22 583q-23 0 -22 29q1 40 43 72q40 31 101 31q45 0 76.5 -26.5t45.5 -71t20 -102.5t-1 -121h10q159 322 267 322q18 0 30 -7.5t19 -22t10 -33t3 -43.5q0 -51 -23 -179h9q37 71 73.5 129t76 108.5t78.5 79t72 28.5q45 0 45 -50q-31 -77 -69.5 -209.5t-69.5 -277 t-25.5 -248.5t61.5 -104q40 0 67 59q6 10 18 6q5 -2 4 -6q-4 -9 -9 -18.5t-18 -29t-31 -32t-38 -12.5q-257 1 32 867q4 12 -6 12q-7 0 -17 -9q-53 -50 -108.5 -134t-97.5 -169.5t-68.5 -147.5t-40.5 -101q-24 -70 -43.5 -104.5t-39.5 -34.5q-21 0 -21 21q0 1 1 2q0 1 5.5 19 t11 38t14 52.5t17 64t18 70.5t18 74.5t16 73t13 69t9 60t3.5 48.5q0 52 -23 52q-22 0 -62 -48.5t-82.5 -121.5t-84 -167t-65.5 -178q-27 -94 -55 -150.5t-51 -56.5q-21 0 -21 22q6 18 11.5 36t19 62t24 84.5t24 96t20.5 103t12.5 99t2 92t-13 73t-31.5 50.5t-54 18 q-61 0 -86 -51q-14 -30 -5 -41q2 -2 4 -2q-3 -14 -23 -14z" />
<glyph unicode="N" horiz-adv-x="693" d="M23 583q-23 0 -22 29q1 40 43 72q40 31 101 31q50 0 83.5 -32.5t46 -86t15 -122t-9.5 -139.5h9q232 441 359 441q45 0 45 -50q-31 -77 -69.5 -209.5t-69.5 -277t-25 -248.5t61 -104q38 0 68 59q5 10 17 6q6 -2 4 -6q-4 -9 -9 -18.5t-17.5 -29t-31 -32t-38.5 -12.5 q-237 0 -8 750q6 20 16 54l16 51q2 8 -5 8q-6 0 -12 -5q-56 -49 -119.5 -144.5t-117 -201.5t-87.5 -179.5t-56 -128.5q-42 -103 -71 -103q-21 0 -21 22v2q3 7 18.5 57t38.5 132t38 171.5t19 169t-20.5 131t-78.5 51.5q-62 0 -87 -53q-13 -29 -4 -39q1 -2 3 -2 q-2 -14 -22 -14z" />
<glyph unicode="O" horiz-adv-x="684" d="M274 -58q-135 0 -183 137q-45 128 -1 311q45 181 147 290q88 94 189 94q28 0 43 -12.5t15 -25.5l1 -12q-10 4 -37 4q-108 0 -194 -143q-81 -133 -100 -306q-20 -176 40 -256q36 -47 94 -47q121 0 200 169t75.5 337.5t-82.5 168.5q0 1 0.5 2.5t3 5.5t6.5 7.5t11.5 6 t17.5 2.5q67 0 88 -104q25 -121 -22 -287q-52 -187 -157 -279q-72 -63 -155 -63z" />
<glyph unicode="P" horiz-adv-x="651" d="M-2 531q0 59 71.5 109.5t154.5 75t141 24.5q16 0 16 -16q-42 -97 -79 -253q-16 -65 -39 -189h8q29 91 61.5 169.5t75 155.5t93.5 121.5t104 44.5q91 0 105 -83q15 -82 -46 -189q-62 -110 -156 -156q-50 -25 -100 -25q-12 0 -18.5 7t-7.5 13l-1 7q94 0 178 112 q69 91 85 186q15 86 -32 97q-6 1 -12 1q-64 0 -134.5 -107.5t-119.5 -242t-81.5 -241.5t-32.5 -120t-14 -13q-30 0 -30 80q0 193 43.5 375t96.5 243q-58 -8 -120 -31.5t-112.5 -69t-50.5 -98.5q0 -26 20 -26q-4 -14 -23 -14q-17 0 -30.5 14t-13.5 39z" />
<glyph unicode="Q" horiz-adv-x="682" d="M53 -22q-31 0 -39 -22q-8 -24 25 -38q22 -9 58 -9q60 0 116 17q-106 52 -160 52zM64 3q73 0 207 -55q146 70 227.5 244t75 316.5t-78.5 142.5q0 1 0.5 2.5t3 5.5t6.5 7.5t11.5 6t17.5 2.5q85 0 92.5 -147t-80.5 -330t-241 -264q26 -11 92 -38.5t98.5 -40t76 -24.5 t71.5 -12q22 0 40.5 5.5t28.5 13.5t17 16.5t9 13.5l3 6q16 0 14 -26q-3 -40 -44 -66q-34 -22 -84 -22q-34 0 -69 7t-85 29t-69.5 31t-85.5 44.5t-71 37.5q-70 -26 -151 -26q-84 0 -106 44q-16 31 13 56q22 20 61 20zM240 39q-115 0 -148 120q-33 117 20 281q55 167 159 261 q83 73 172 73q28 0 42.5 -12.5t14.5 -25.5v-12q-9 4 -36 4q-109 0 -199 -142q-80 -126 -101 -282q-20 -150 33 -207q23 -24 58 -24q43 0 81 38t57 83t19 75q0 31 25 42q19 8 24 -7l1 -7q0 -41 -27.5 -100t-81.5 -108.5t-113 -49.5z" />
<glyph unicode="R" horiz-adv-x="732" d="M-2 531q0 59 71.5 109.5t154.5 75t141 24.5q16 0 16 -16q-42 -97 -79 -253q-22 -92 -40 -199h7q22 72 46.5 136t58 133t68.5 118.5t77.5 81.5t85.5 32q88 0 105 -76q18 -74 -38 -169q-60 -103 -161 -144l-38 -12q29 -3 61.5 -78.5t57.5 -165t60 -163.5t69 -74 q13 0 23 4.5t14 9.5l3 5q13 0 1 -19q-22 -30 -54 -33q-52 0 -100.5 71t-78.5 157.5t-63.5 172.5t-56.5 106q-11 0 -17.5 6.5t-7.5 13.5v7q106 0 190 106q64 81 73 163q9 72 -36 81q-5 1 -11 1q-52 0 -109.5 -71.5t-101.5 -173t-80.5 -207t-56.5 -178t-20 -81.5 q0 -13 -14 -13q-30 0 -30 80q0 193 43.5 375t96.5 243q-58 -8 -120 -31.5t-112.5 -69t-50.5 -98.5q0 -26 20 -26q-4 -14 -23 -14q-17 0 -30.5 14t-13.5 39z" />
<glyph unicode="S" horiz-adv-x="603" d="M161 -133q125 0 198 80.5t73 202.5q0 48 -17.5 88.5t-43.5 67t-56.5 53.5t-56.5 49t-43.5 53t-17.5 66q0 92 82.5 169.5t177.5 77.5q19 0 28 -14t9 -28l-1 -13q-7 4 -35 4q-64 0 -124 -60t-60 -139q0 -32 17.5 -62.5t43.5 -53.5t56 -51.5t56 -56t43.5 -67t17.5 -83.5 q0 -121 -100 -215t-247 -94q-124 0 -157 80q-26 66 19 145q47 81 134 109q32 10 67 10q15 0 24.5 -8.5t11.5 -17.5l1 -9q-94 0 -161 -76q-56 -62 -50 -126q5 -65 77 -78q15 -3 34 -3zM478 522q0 102 23 164t61 62q10 0 17 -7t7 -18q-3 -3 -8 -8.5t-17.5 -25t-22 -42 t-17.5 -59t-8 -76.5q0 -4 -8.5 -5t-17.5 3.5t-9 11.5z" />
<glyph unicode="T" horiz-adv-x="591" d="M147 -81q62 0 108.5 51t71 129t47 175.5t37.5 185.5t40.5 164.5t58.5 107.5h-20q-205 0 -286 -115q-46 -65 -34 -134q12 -45 39 -50q-3 -14 -23 -14q-41 0 -58 49q-22 64 18 136q60 109 220 141q57 11 123 11q70 0 125.5 16t82 36t50 36t37.5 16q21 0 16 -20 q-6 -31 -63 -60q-66 -35 -170 -45q-22 -12 -39 -56.5t-27.5 -106.5t-23.5 -137.5t-26.5 -151.5t-38 -148.5t-55.5 -128t-81.5 -89t-114.5 -33.5q-71 0 -113 44t-45.5 107t12.5 126t60 107t98 44q13 0 21.5 -6t9.5 -12l2 -6q-85 0 -138 -88q-47 -79 -37 -166q11 -88 77 -109 q18 -6 39 -6z" />
<glyph unicode="U" horiz-adv-x="767" d="M161 318q-90 0 -117 113.5t30.5 227.5t170.5 114q87 0 126.5 -48.5t39.5 -124.5q0 -79 -56 -264.5t-56 -242.5q0 -58 39 -58q32 0 95.5 98t110.5 193t74 160q31 75 65 75q22 0 22 -23q-43 -102 -68.5 -246.5t-25.5 -255.5q0 -149 53 -149q28 0 57 59q5 10 17 6q6 -2 4 -6 q-3 -9 -11.5 -27.5t-30 -41.5t-43.5 -23q-104 0 -104 207q0 108 19 229h-10q-153 -290 -236 -290q-101 0 -101 120q0 48 29.5 145.5t59.5 201.5t30 167q0 51 -23.5 82.5t-74.5 31.5q-91 0 -136 -104t-23 -208t93 -104q-7 -14 -19 -14z" />
<glyph unicode="V" horiz-adv-x="628" d="M22 583q-23 0 -24 29q-1 40 39 72q40 31 100 31q65 0 106.5 -46.5t57 -113.5t15.5 -154q0 -181 -65 -419q-4 -12 8 -12q9 0 18 8q105 96 199 328t94 372q0 62 -27 62q1 4 3 9.5t13 14.5t27 9q44 0 44 -75q0 -108 -67 -291.5t-166 -331.5t-175 -148q-52 0 -52 50 q9 27 21.5 74t33.5 172.5t21 227.5q0 240 -120 240q-61 0 -83 -51q-13 -30 -3 -41q2 -2 4 -2q-2 -14 -22 -14z" />
<glyph unicode="W" horiz-adv-x="932" d="M39 583q-23 0 -22 29q1 40 43 72q40 31 101 31q151 0 151 -231q0 -86 -20 -192.5t-33.5 -152t-48.5 -157.5q-3 -11 5 -11q7 1 17 9q70 61 137.5 170.5t98.5 180t46 114.5q49 152 94 152q20 0 20 -21q-8 -25 -24.5 -98.5t-35 -180t-9 -184.5t56.5 -78q46 0 93.5 81 t78.5 197.5t33 220.5q-49 40 -89 104t-40 82q0 19 17 37.5t36 18.5q42 0 73.5 -62t34.5 -150q37 -32 70 -32q10 0 17.5 4t9.5 8l2 5q13 0 12 -18q-1 -26 -31 -34l-18 -2q-31 0 -62 18q-6 -114 -39 -232t-87 -199.5t-111 -81.5q-80 0 -111 78.5t-23 197.5 q-191 -349 -305 -349q-52 0 -49 50q119 322 119 543q0 171 -98 171q-62 0 -87 -53q-13 -29 -4 -39q1 -2 3 -2q-2 -14 -22 -14zM752 745q-7 -4 -2 -24t25 -56t44 -65q-7 62 -27.5 103.5t-39.5 41.5z" />
<glyph unicode="X" horiz-adv-x="649" d="M-10 46q68 0 151 80.5t191 225.5q-22 79 -40 130.5t-43.5 104t-56 78.5t-66.5 26q-61 0 -83 -51q-13 -30 -3 -41q2 -2 4 -2q-2 -14 -22 -14q-23 0 -24 28q-1 39 40 71q41 33 108 33q81 0 139.5 -76.5t103.5 -209.5q145 197 203 259q81 86 131 87q18 0 29 -12t12 -24 l2 -12q-37 0 -81 -26t-94 -78.5t-91.5 -103t-98.5 -126.5q18 -57 40.5 -139.5t38 -139t34.5 -111.5t40 -83.5t45 -28.5q12 0 22 4.5t14 9.5l4 5q9 0 4 -17q-9 -30 -48 -34l-11 -1q-28 0 -53 15t-46 47t-38 66t-34 87.5t-29.5 95t-29.5 103.5q-2 10 -3.5 15t-3.5 13t-4 14 q-40 -55 -60.5 -82t-55.5 -71.5t-56 -67.5t-47.5 -48.5t-47.5 -36t-38 -10.5q-21 0 -33 12t-13 24z" />
<glyph unicode="Y" horiz-adv-x="747" d="M131 77q12 0 20 -6.5t10 -12.5l2 -7q-69 0 -108 -72.5t-18 -152.5q24 -92 113 -119q32 -10 71 -10q50 0 92.5 18.5t72.5 44t56.5 73.5t42.5 85.5t33 103.5t24.5 103t20.5 107q3 17 5 25.5t4.5 22t4.5 24.5h-7q-140 -272 -226 -272q-100 0 -100 120q0 54 50 228.5 t50 253.5q0 51 -23.5 82.5t-74.5 31.5q-91 0 -136 -104t-23 -208t93 -104q-7 -14 -19 -14q-90 0 -117 113.5t30.5 227.5t170.5 114q87 0 126.5 -48.5t39.5 -124.5q0 -79 -46.5 -248.5t-46.5 -226.5q0 -58 39 -58q33 0 93.5 94.5t103 182.5t66.5 147q28 70 63 70q22 0 22 -23 q-35 -85 -70 -285q-12 -69 -21 -113t-27 -111.5t-37 -111t-51 -94t-69.5 -80t-91 -49.5t-116.5 -20q-153 0 -215 104q-46 78 -20 171q23 84 87 115q27 13 57 13z" />
<glyph unicode="Z" horiz-adv-x="668" d="M47 38q-30 0 -38 -21q-8 -23 26 -37q23 -10 60 -10q39 0 83 26q-86 42 -131 42zM57 63q58 0 157 -42q91 77 211 313q-48 -6 -85 -6q-36 0 -40 24q1 15 12 18q5 -6 28 -6q47 0 102 3q15 29 45 89.5t46.5 93.5t40 74.5t42.5 68.5q-22 -5 -38 -5q-35 0 -124 24t-134 24 q-114 0 -161 -94q-37 -73 -17 -152q18 -68 65 -79l16 -2q-5 -23 -33 -23q-59 0 -85 68q-28 75 6 162q40 104 143 140q47 17 102 17q50 0 138 -23.5t114 -23.5q27 0 57 24t53 24q9 0 14.5 -10t4.5 -18.5t-1 -9.5q-16 0 -34 -18t-41 -59t-40.5 -76.5t-50 -104t-51.5 -107.5 q52 2 70 2q10 0 9 -11q-2 -13 -21 -13q-8 0 -18.5 -1t-27 -2t-26.5 -2q-127 -251 -248 -341q31 -14 132.5 -64t158.5 -71.5t97 -21.5q22 0 40 5.5t28 13.5t16.5 16t8.5 13l2 6q16 0 16 -26q-1 -42 -41 -69q-33 -23 -83 -23q-46 0 -106 22t-98.5 43t-115 68t-98.5 60 q-61 -32 -119 -32q-84 0 -108 44q-18 31 10 56q21 20 60 20z" />
<glyph unicode="[" horiz-adv-x="261" d="M4 -99q10 74 46 423t43 428h165q-1 -3 -4 -7t-21.5 -10.5t-47.5 -6.5h-44q-5 -45 -44.5 -395t-46.5 -408h40q29 0 48.5 -6t23.5 -12l5 -6h-163z" />
<glyph unicode="\" horiz-adv-x="471" d="M90 643q-22 91 18 91q5 0 11.5 -6.5t9.5 -19.5q11 -50 77.5 -373t80.5 -388q13 -53 -3 -62q-10 -5 -16 14q-1 2 -1 4q-18 83 -94 396t-83 344z" />
<glyph unicode="]" horiz-adv-x="325" d="M18 -99q1 3 4 7t21.5 10.5t47.5 6.5h44q4 35 44 388t47 415h-40q-29 0 -48.5 6t-23.5 12l-5 6h163q-9 -70 -45 -411.5t-45 -439.5h-164z" />
<glyph unicode="^" horiz-adv-x="458" d="M2 446l237 169h49l169 -169h-34l-151 141l-235 -141h-35z" />
<glyph unicode="_" horiz-adv-x="613" d="M16 -69q-14 0 -10 13q14 21 45 24q41 0 211 -4t231 -4q10 0 9 -10q-8 -16 -37 -18q-52 0 -228.5 -0.5t-220.5 -0.5z" />
<glyph unicode="`" horiz-adv-x="425" d="M194 680q15 25 38 4q37 -34 73 -77.5t31 -53.5q-9 -13 -50.5 17t-80.5 68q-23 21 -11 42z" />
<glyph unicode="a" horiz-adv-x="478" d="M84 0q-65 0 -79 85q-15 93 35 213q53 129 139 176q37 20 76 20q25 0 43.5 -14t23.5 -28l6 -13q-3 -17 -17 -17q-8 0 -13 3t-6 5l-1 3q-1 4 -4 9.5t-14 15t-25 9.5q-65 0 -120 -123q-50 -111 -58 -224q-5 -84 24 -84q19 0 53.5 42.5t72.5 106.5t63.5 110t43.5 81 q34 72 70 72q19 0 19 -23q-9 -19 -23 -54t-37 -139t-23 -204q0 -106 31 -106q12 0 22 10.5t14 21.5l4 10q3 11 14 11q4 0 6 -3t2 -6l-1 -2q-3 -9 -8 -21.5t-21.5 -33.5t-34.5 -21q-42 0 -64.5 55t-22.5 141q0 64 11 133h-10q-127 -217 -191 -217z" />
<glyph unicode="b" horiz-adv-x="501" d="M27 99q0 159 32 319.5t76 257t82 96.5q16 0 16 -16q-53 -117 -92 -285q-38 -160 -57 -307h7q23 58 48 108.5t57.5 102t70 82t72.5 30.5q71 0 88 -92q19 -96 -26 -218q-45 -124 -118 -163q-25 -14 -52 -14q-57 0 -66 61t21 131.5t73 100.5q9 5 15 -4q1 -5 -1 -7 q-38 -30 -61.5 -91.5t-20.5 -110t32 -48.5q41 0 88 105q52 114 59 220q6 96 -40 96q-38 0 -86.5 -63.5t-84.5 -142.5t-61.5 -142.5t-25.5 -70.5q0 -15 -15 -15q-30 0 -30 80z" />
<glyph unicode="c" horiz-adv-x="388" d="M143 -32q-105 0 -134 101q-26 94 22 215q46 119 130 171q44 27 91 27q33 0 51 -23q27 87 69 87q16 0 16 -17q-8 -12 -20.5 -31.5t-33.5 -69.5t-21 -88q0 -13 -10 -13q-12 0 -15 16l-1 7q0 39 7 73q-6 31 -44 31q-72 0 -128.5 -113t-52 -226t81.5 -113q32 0 60.5 20 t40.5 40l13 21q4 9 17 9q7 0 10 -2t3 -4v-3q-2 -5 -6.5 -12.5t-19 -27.5t-31 -35t-42.5 -27.5t-53 -12.5z" />
<glyph unicode="d" horiz-adv-x="487" d="M84 0q-66 0 -80 84q-15 91 34 210q52 126 137 171q37 20 75 20q22 0 38 -10.5t21 -21.5l5 -11q-3 -17 -18 -17q-8 0 -12.5 3t-5.5 6l-1 3q-9 21 -33 21q-65 0 -119 -121q-49 -109 -55 -219q-5 -82 24 -82q20 0 58.5 49.5t79.5 120.5t64.5 114.5t34.5 64.5 q36 156 87.5 272.5t85.5 116.5q17 0 17 -17q-7 -15 -18.5 -41.5t-41 -108.5t-52 -163.5t-41 -194.5t-18.5 -213q0 -149 65 -149q25 0 46.5 21.5t30.5 42.5q5 11 18 6q5 -2 4 -6q-6 -13 -15 -30t-35.5 -42t-53.5 -25q-119 0 -119 224q0 79 14 169h-13q-141 -247 -208 -247z " />
<glyph unicode="e" horiz-adv-x="389" d="M109 216q71 0 130 82q48 66 48 121q0 41 -33 41q-66 0 -123 -104q-56 -102 -61 -213q-5 -115 57 -136q11 -4 25 -4q20 0 39 8.5t32 20.5t23 24t15 20l5 9q4 8 19 8q7 0 10 -2t3 -4l-1 -2q-2 -5 -6.5 -13t-19.5 -28t-31.5 -35.5t-43 -28t-53.5 -12.5q-106 0 -135 100 q-27 94 22 216q49 120 135 173q47 28 96 28q62 0 74 -62q12 -63 -32 -134q-52 -83 -136 -92q-9 -1 -18 -1q-15 0 -25 5t-12 10z" />
<glyph unicode="f" horiz-adv-x="310" d="M-42 -313q-35 0 -45.5 29t1 76.5t29.5 98t45.5 105t43 84t26.5 48.5q23 215 41 308q-24 -3 -44 -3q-28 0 -33 25q0 20 12 23q4 -6 21 -6q33 0 53 2q65 299 222 299q20 0 19 -15q-1 -10 -7 -10q-68 0 -109 -71t-66 -199q119 9 145 9q9 0 8 -11q-2 -13 -21 -13t-139 -20 q-10 -59 -19 -140.5t-16 -148.5t-16 -141t-21 -130t-29 -103t-42.5 -71.5t-58.5 -24.5zM-41 -284q14 0 26 11.5t21 40t15 54t12.5 76.5t10 83t9.5 97q-16 -34 -31 -67t-34 -77t-30.5 -80.5t-18.5 -68.5t-2 -50.5t22 -18.5zM347 635q0 63 21.5 116t53.5 53q12 0 12 -15l-4 -5 q-3 -6 -9 -15t-12.5 -21t-13.5 -27t-13 -30t-9.5 -32t-3.5 -32q0 -12 -10 -12q-11 3 -12 20z" />
<glyph unicode="g" horiz-adv-x="462" d="M-75 -278q-5 10 9 13q12 3 16 -7q18 -41 84 -41q45 0 80.5 22t60 63t40.5 85.5t28 101.5q-180 -4 -278 -138q-6 -9 -19 -3q-7 4 -4 10q43 65 120 110.5t187 49.5q6 28 14.5 79t10.5 64q3 18 9 50t8 46h-11q-132 -227 -196 -227q-65 0 -79 85q-15 93 35 213 q53 129 139 176q37 20 76 20q25 0 43.5 -14t23.5 -28l6 -13q-3 -17 -17 -17q-8 0 -13 3t-6 5l-1 3q-1 4 -4 9.5t-14 15t-25 9.5q-65 0 -120 -123q-50 -111 -58 -224q-5 -84 24 -84q33 0 106.5 115.5t132.5 236.5q30 61 63 61q21 0 21 -24q-4 -7 -12 -23t-29 -91.5 t-39 -180.5q-16 -90 -28 -145q76 -13 88 -66q8 -35 -14 -55q-8 -8 -17 -8q1 3 1.5 8.5t-0.5 19.5t-6.5 26t-20.5 25t-39 19q-16 -62 -37 -110t-52.5 -91t-76.5 -66t-101 -23q-82 0 -109 58z" />
<glyph unicode="h" horiz-adv-x="456" d="M27 99q0 159 32 319.5t76 257t82 96.5q16 0 16 -16q-53 -117 -92 -285q-32 -132 -56 -302h7q127 312 249 312q51 0 51 -49q-7 -23 -18 -60.5t-29 -134.5t-18 -170q0 -106 31 -106q11 0 22 9.5t15 9.5t5.5 -2.5t1.5 -5.5l-1 -2q-2 -5 -6.5 -12t-18 -19t-26.5 -12 q-39 0 -60.5 54.5t-21.5 141.5q0 147 44 303q1 7 -2 10.5t-10 2.5t-14 -8q-50 -45 -103 -141t-82.5 -170t-29.5 -88q0 -13 -14 -13q-30 0 -30 80z" />
<glyph unicode="i" horiz-adv-x="218" d="M26 85q0 148 30.5 264t77.5 116q23 0 23 -25q-10 -26 -25 -69t-39.5 -155.5t-24.5 -200.5q0 -14 -15 -14q-27 0 -27 84zM160 559q-17 0 -20 29.5t11 58.5t38 29q20 0 20 -23q0 -12 -12.5 -35.5t-24.5 -41.5z" />
<glyph unicode="j" horiz-adv-x="251" d="M-42 -313q-36 0 -46.5 30.5t3 80.5t32.5 101.5t47.5 107.5t43 82.5t23.5 42.5q7 75 14.5 126t20 103t31 78t43.5 26q23 0 23 -25q-50 -120 -68 -281q-26 -235 -48 -319q-41 -153 -119 -153zM-41 -284q21 0 36 25t26.5 84t17 102.5t14.5 131.5q1 15 2 23 q-16 -34 -31.5 -67t-34.5 -77.5t-31 -81.5t-19 -70t-2.5 -51.5t22.5 -18.5zM197 559q-17 0 -20 29.5t10.5 58.5t37.5 29q21 0 21 -23q0 -12 -12 -35.5t-24 -41.5z" />
<glyph unicode="k" horiz-adv-x="456" d="M27 99q0 159 32 319.5t76 257t82 96.5q16 0 16 -16q-53 -117 -92 -285q-32 -130 -54 -279h8q114 293 228 293q60 0 69 -60q9 -61 -35 -129q-40 -60 -99 -79q9 -8 22.5 -50.5t26.5 -87t36 -81.5t49 -37q13 0 23 4.5t13 9.5l4 5q12 0 1 -20q-22 -30 -54 -33q-41 0 -77 42 t-56 92t-37.5 99.5t-21.5 55.5q-4 3 -6 6t-3 4v2q79 0 130 83q38 61 32 113q-4 33 -28 33q-35 0 -79.5 -61.5t-79 -139.5t-58.5 -144.5t-24 -80.5q-1 -12 -14 -12q-30 0 -30 80z" />
<glyph unicode="l" horiz-adv-x="263" d="M34 78q0 142 36 309t84.5 277t84.5 110q17 0 17 -20q-7 -16 -18 -44t-39 -112.5t-49.5 -166.5t-39 -192t-17.5 -203q0 -64 15.5 -106.5t42.5 -42.5q23 0 44 21.5t30 42.5q5 11 18 6q5 -2 4 -6q-4 -9 -9.5 -19t-19 -31t-32.5 -34t-39 -13q-58 0 -85.5 61t-27.5 163z" />
<glyph unicode="m" horiz-adv-x="665" d="M12 87q0 150 30 270.5t73 120.5q19 0 19 -21q-46 -145 -66 -298h9q132 330 243 330q48 0 48 -47q-47 -140 -68 -276h8q33 70 66.5 127.5t78.5 107t81 49.5q48 0 48 -46q-52 -173 -52 -337q0 -106 32 -106q11 0 22 9.5t15 9.5t5.5 -2.5t1.5 -5.5l-1 -2q-2 -5 -6.5 -12 t-18 -19t-26.5 -12q-39 0 -60.5 54.5t-21.5 141.5q0 153 32 269q2 7 -5 7q-6 -1 -12 -6q-57 -49 -127 -181.5t-70 -156.5q0 -12 -14 -12q-17 0 -24 18.5t-7 60.5q0 123 45 311q3 10 -6 9q-7 -1 -13 -6q-44 -37 -97 -137t-85 -182.5t-32 -96.5q0 -12 -14 -12q-17 0 -24 18.5 t-7 60.5z" />
<glyph unicode="n" horiz-adv-x="448" d="M12 96q0 149 30.5 270t73.5 121q18 0 18 -22q-46 -149 -66 -303h9q23 57 47.5 107t57.5 101t71 81t75 30q51 0 51 -49q-7 -23 -18 -60.5t-29.5 -134.5t-18.5 -170q0 -106 31 -106q12 0 23 9.5t15 9.5t5.5 -2.5t0.5 -5.5v-2q-2 -5 -6.5 -12t-18 -19t-27.5 -12 q-38 0 -59.5 54.5t-21.5 141.5q0 138 43 303q4 13 -8 13q-8 0 -18 -8q-48 -42 -101 -139t-83 -173.5t-30 -89.5q0 -12 -14 -12q-32 0 -32 79z" />
<glyph unicode="o" horiz-adv-x="413" d="M122 -9q-104 0 -120 119.5t45 239.5t145 120q12 0 20 -6t10 -12l1 -6q-63 0 -110.5 -104.5t-44 -209.5t64.5 -105q37 0 77 56.5t66.5 148.5t26.5 185v12q-31 20 -51 50t-20 47q0 11 12.5 23.5t25.5 12.5q19 0 37 -34t25 -77q31 -21 60 -21q9 0 17 2t11 4l4 2q0 -4 -1 -10 t-10 -16t-25 -10q-26 0 -53 10q-1 -96 -29 -193t-78 -162.5t-106 -65.5z" />
<glyph unicode="p" horiz-adv-x="484" d="M-81 -337q-133 0 102 424q15 110 31 178q35 161 74.5 249.5t71.5 88.5q16 0 16 -19q-2 -4 -18.5 -51.5t-42 -132.5t-44.5 -161h13q114 248 215 248q85 0 93 -121.5t-53.5 -243.5t-146.5 -122q-58 0 -67 61t21 131.5t73 100.5q9 5 15 -4q1 -5 -1 -7q-38 -30 -61.5 -91.5 t-20.5 -110t32 -48.5q41 0 88 105q52 114 59 220q6 96 -40 96q-39 0 -86 -61t-83.5 -141.5t-62.5 -152t-31 -101.5q-6 -39 -9 -56.5t-9.5 -55.5t-12 -58t-14.5 -50.5t-18.5 -47t-22 -34t-27.5 -25t-33 -7.5zM-80 -303q14 0 25 9t20 32t14.5 43t12 61.5t9.5 67.5t9 80 q3 27 5 41q-17 -33 -32.5 -65.5t-33 -72.5t-29 -73t-18 -62t-2.5 -45t20 -16zM214 584z" />
<glyph unicode="q" horiz-adv-x="480" d="M84 0q-65 0 -79 85q-15 93 35 213q53 129 139 176q37 20 76 20q25 0 43.5 -14t23.5 -28l6 -13q-3 -17 -17 -17q-8 0 -13 3t-6 5l-1 3q-1 4 -4 9.5t-14 15t-25 9.5q-65 0 -120 -123q-50 -111 -58 -224q-5 -84 24 -84q27 0 86.5 88t105.5 176l47 88q30 61 63 61 q21 0 21 -24q-5 -11 -12.5 -32t-27 -88t-34.5 -135.5t-27.5 -168.5t-12.5 -195q0 -113 37 -113q11 0 22.5 9.5t14.5 9.5q4 0 6 -2.5t1 -5.5v-2q-2 -5 -6.5 -12t-18.5 -19t-27 -12q-84 0 -84 194q0 170 36 364h-9q-127 -217 -191 -217z" />
<glyph unicode="r" horiz-adv-x="383" d="M17 96q0 149 30 270t73 121q19 0 19 -22q-46 -146 -66 -299h7q36 83 79.5 157.5t99.5 134.5t102 60q10 0 16.5 -6t6.5 -15q-7 -7 -17 -21t-27 -66.5t-17 -114.5q0 -8 -5 -8q-32 0 -37 60.5t17 110.5q-68 -59 -152 -219.5t-84 -209.5q0 -12 -14 -12q-17 0 -24 18.5 t-7 60.5z" />
<glyph unicode="s" horiz-adv-x="379" d="M-15 196q47 68 109.5 187.5t104.5 178.5t83 59q21 0 21 -18q0 -12 -17.5 -32t-35.5 -52t-18 -73q0 -38 29 -146.5t29 -157.5q0 -88 -49 -149.5t-111 -61.5q-82 0 -88 86q-6 82 52 184q41 73 88 102q9 6 11 -9q3 -11 -3 -15q-53 -30 -92 -128q-39 -99 -22 -155 q10 -32 40 -32q42 0 78.5 69t36.5 174q0 51 -18.5 144t-18.5 131q0 19 2 28q-13 -21 -75 -139.5t-110 -187.5q-4 -4 -11 -2.5t-12 7t-3 8.5z" />
<glyph unicode="t" horiz-adv-x="289" d="M28 61q0 175 65 374q-14 -2 -34 -2q-34 0 -38 25q-3 18 9 22q1 1 3 1q6 -7 28 -7q11 0 47 2q47 127 90 127q17 0 17 -19q-16 -40 -36 -103q99 11 129 11q9 0 8 -11q-2 -13 -21 -13q-11 0 -127 -21q-79 -250 -79 -411q0 -149 62 -149q25 0 47 21.5t31 42.5q4 11 17 6 q6 -2 4 -6q-6 -13 -15 -30t-35 -42t-53 -25q-119 0 -119 207z" />
<glyph unicode="u" horiz-adv-x="475" d="M63 90q0 -51 24 -51q17 0 50.5 41t68.5 100t65.5 116t48.5 97q40 92 82 92q20 0 20 -22q-4 -8 -11 -23t-24.5 -63t-31 -97t-24.5 -119.5t-11 -137.5q0 -98 30 -98q12 0 22.5 10.5t15.5 21.5l4 11q1 9 12 9q5 0 7.5 -2t2.5 -5l-1 -2q-3 -9 -8.5 -22t-23 -34.5t-35.5 -21.5 q-40 0 -62 49.5t-22.5 121.5t10.5 154h-9q-121 -211 -186 -211q-77 0 -77 123q0 112 55 241q45 106 85 116q4 1 7 1q18 0 18 -22q-11 -29 -28 -75t-45.5 -146t-28.5 -152z" />
<glyph unicode="v" horiz-adv-x="389" d="M62 102q0 -80 39 -80q34 0 77.5 59t75.5 155.5t32 188.5v6q-29 21 -47 50t-18 46q0 12 13 24t28 12q18 0 33.5 -33.5t20.5 -76.5q29 -22 61 -22q10 0 18 1.5t11 3.5l3 2q0 -4 -1.5 -10t-11.5 -16t-27 -10q-26 0 -51 10q-3 -94 -36 -192.5t-85 -165t-104 -66.5 q-51 0 -74.5 46t-19.5 112.5t20 132.5t41 112t45 46t20 -21q-63 -218 -63 -314z" />
<glyph unicode="w" horiz-adv-x="629" d="M58 77q0 -43 21 -43q26 0 81.5 84t97.5 168l43 83q28 56 51 56q21 0 21 -21q-61 -209 -61 -327q0 -55 32 -55q36 0 75.5 59.5t66 155t26.5 188.5v6q-29 21 -47 50t-18 46q0 12 13 24t28 12q19 0 34 -33.5t20 -76.5q29 -22 61 -22q10 0 18 1.5t11 3.5l3 2q0 -4 -1.5 -10 t-11.5 -16t-27 -10q-26 0 -51 10q-2 -94 -31 -192.5t-75 -165t-94 -66.5q-42 0 -65.5 35t-25.5 87t5 112q-124 -222 -190 -222q-70 0 -67 122q3 114 57 238q48 105 88 110q19 0 19 -21q-12 -29 -30 -74.5t-47.5 -145.5t-29.5 -152z" />
<glyph unicode="x" horiz-adv-x="401" d="M-20 46q3 0 8 3t11 9.5t12.5 13.5t15.5 19.5t16 22.5t18 26.5t18.5 28t20.5 31l21 31.5q-5 14 -13 36t-13 36t-11.5 32.5t-11.5 30.5t-11 26t-10.5 22.5t-10 16t-10 11t-9.5 3.5q1 4 2.5 10.5t13 17.5t28.5 11q25 0 49.5 -48t53.5 -135q117 164 168 164q12 0 19.5 -7 t8.5 -14l1 -7q-36 0 -80.5 -48.5t-101.5 -134.5q58 -184 86 -227q17 -28 33 -28q11 0 22 9.5t15 9.5t5.5 -2.5t1.5 -5.5l-1 -2q-2 -5 -6.5 -12t-18 -19t-26.5 -12q-43 0 -80 58.5t-76 160.5q-52 -82 -84 -123.5t-52 -41.5q-11 0 -16.5 6.5t-5.5 13.5v7z" />
<glyph unicode="y" horiz-adv-x="465" d="M-82 -278q-5 10 9 13q11 1 16 -7q18 -41 84 -41q45 0 80.5 22t60 63t40.5 85.5t28 101.5q-181 -4 -278 -138q-6 -9 -19 -3q-7 4 -4 10q43 65 120 110.5t187 49.5q6 28 14.5 79t10.5 64q6 41 19 104h-9q-130 -231 -198 -231q-77 0 -76 123q0 112 55 241q45 107 86 116l6 1 q17 0 17 -22q-11 -27 -28 -70.5t-45 -143t-28 -159.5q0 -51 24 -51q28 0 90.5 97.5t102 175t55.5 112.5q29 61 62 61q21 0 21 -23q-6 -11 -15.5 -33.5t-33.5 -108t-42 -190.5q-16 -90 -28 -145q76 -13 88 -66q8 -35 -14 -55q-8 -8 -17 -8q1 3 1.5 8.5t-0.5 19.5t-6.5 26 t-20.5 25t-39 19q-77 -290 -267 -290q-82 0 -109 58z" />
<glyph unicode="z" horiz-adv-x="417" d="M-28 -299q83 0 181 114q83 96 112 192q28 91 -23 101q-5 1 -11 1q-34 0 -83 -22.5t-67 -22.5q-10 0 -16.5 11.5t-8.5 22.5l-2 12q74 0 150 102q64 88 78 171q11 75 -37 76q-40 0 -78.5 -30.5t-63 -70t-39.5 -71.5t-15 -40q0 -6 -9.5 -8.5t-19 2.5t-9.5 17q0 11 19 46.5 t49.5 77t77 73.5t91.5 32q46 0 71 -30t25 -78q0 -129 -132 -245q12 2 19 2q82 0 92 -81q11 -83 -54 -194q-69 -117 -169 -169q-56 -28 -111 -28q-73 0 -77 65q-5 70 62 159q72 96 174 135q5 2 10 -2.5t5 -10t-6 -8.5q-103 -38 -173 -140q-53 -79 -46 -130q6 -30 34 -31z" />
<glyph unicode="{" horiz-adv-x="316" d="M42 336q-4 0 -5 10t2.5 20t8.5 10q30 0 50 30t29 74.5t22 97t28 97t50 74.5t85 30q12 0 19 -6.5t7 -12.5l1 -6q-56 0 -87 -33.5t-41 -85t-16 -106t-24.5 -104.5t-54.5 -72q22 -21 22 -73.5t-10 -110t-15.5 -112.5t12 -90.5t64.5 -35.5q-2 -20 -26 -20q-44 0 -65.5 31.5 t-21.5 78.5t3.5 102.5t8.5 102.5t-6 78.5t-40 31.5z" />
<glyph unicode="|" horiz-adv-x="364" d="M127 -104q4 314 16 742q1 83 38 83q7 0 12 -8t4 -22q-36 -664 -39 -757q-1 -54 -18 -58q-9 -1 -12 11q-1 4 -1 9z" />
<glyph unicode="}" horiz-adv-x="321" d="M-26 -64q56 0 87 33.5t41 85t16 105.5t24.5 104t55.5 72q-22 22 -22 74t10 109.5t15.5 112.5t-12 90.5t-64.5 35.5q0 2 1 5.5t7 9.5t17 6q44 0 65.5 -31.5t21.5 -79t-3.5 -102.5t-8.5 -102.5t6 -79t40 -31.5q4 0 5 -9.5t-2.5 -19.5t-8.5 -10q-36 0 -56.5 -41.5t-32 -101 t-26.5 -118.5t-52 -100.5t-96 -41.5q-12 0 -19 6.5t-8 12.5z" />
<glyph unicode="~" horiz-adv-x="475" d="M69 495h33q17 -22 54 -22q27 0 88 19t97 19q34 0 67 -19t49 -38l16 -19h-33q-31 27 -85 27q-37 2 -100 -13.5t-91 -15.5q-26 0 -50 15.5t-34 31.5z" />
<glyph unicode="&#xa1;" horiz-adv-x="312" d="M3 -300q40 89 86 288t46 277q0 14 15 14q30 0 30 -59q0 -97 -23 -222t-61.5 -219.5t-76.5 -94.5q-16 0 -16 16zM166 368q-17 0 -26 29t-0.5 58.5t32.5 29.5t24 -23q0 -10 -7.5 -33.5t-14.5 -42.5z" />
<glyph unicode="&#xa2;" horiz-adv-x="452" d="M118 -155q2 12 9 53.5t12 69.5q-102 2 -130 102q-26 94 22 215t133 172q31 19 65 24q6 35 13 76.5t11.5 67t6.5 36.5q2 14 15 9q20 -6 18 -38q0 -4 -1 -8q-1 -5 -5 -29t-10 -54l-12 -60q21 -4 34.5 -18.5t16.5 -27.5l3 -13h-25q0 3 -1.5 7.5t-10.5 13t-22 10.5 q-83 -439 -85 -449q26 7 48.5 27t32.5 36l9 16q4 9 17 9q7 0 10 -2t3 -4v-3q-2 -4 -5.5 -10.5t-16 -23.5t-26 -31.5t-35 -28t-44.5 -18.5q-4 -24 -11 -60t-11 -58.5t-6 -37.5q-2 -12 -12 -7q-15 6 -10 37zM145 2q6 35 34.5 200.5t43.5 246.5q-65 -23 -112.5 -131 t-40.5 -209.5t75 -106.5z" />
<glyph unicode="&#xa3;" horiz-adv-x="727" d="M27 63q-31 0 -38 -21q-8 -23 25 -37q23 -10 61 -10q52 0 93 25q-83 43 -141 43zM36 88q63 0 169 -36q60 68 97 254q-37 -2 -90 -2q-29 0 -33 22q-1 15 11 17q5 -7 22 -7h95q2 12 7 37q10 56 16 84.5t17.5 74.5t24 70t31 50.5t43 38t55.5 11.5q28 0 42.5 -14t14.5 -28 l1 -14q-10 10 -37 10q-19 0 -35 -8t-28 -28t-20.5 -38t-17 -53t-13.5 -57.5t-13 -67.5t-13 -68h132q9 0 8 -11q-2 -13 -21 -13q-50 0 -125 -3q-44 -197 -122 -273q166 -62 237 -62q35 0 59 13.5t30 26.5l7 14q16 0 15 -26q-2 -40 -43 -66q-32 -21 -81 -21q-50 0 -103.5 15 t-83 29t-84.5 42q-57 -33 -132 -33q-84 0 -109 44q-17 31 10 56q21 20 60 20zM548 451q0 102 23 164.5t61 62.5q10 0 17 -7t7 -19q-3 -3 -8 -8.5t-17.5 -25t-22 -41.5t-17.5 -59t-8 -77q0 -4 -8.5 -4.5t-17.5 3.5t-9 11z" />
<glyph unicode="&#xa4;" horiz-adv-x="565" d="M64 49l61 61q-12 45 -3 93.5t43 90.5t79 52q6 2 9.5 -2.5t3 -10.5t-4.5 -7q-38 -11 -60.5 -75t-11.5 -124t56 -60q59 0 99 82.5t33.5 164.5t-59.5 82q-37 0 -68 -28q-18 -14 -34 -10q-5 1 -2 5q-34 35 -79 80q-7 7 -5 15.5t9 9.5t16 -6l78 -78q45 35 98 35q40 0 66 -23 l69 69q7 7 15 5t9 -9.5t-6 -15.5l-69 -69q26 -46 16 -116.5t-49 -128.5l77 -78q11 -10 2 -19.5t-20 1.5l-75 74q-53 -66 -121 -66q-65 0 -97 42l-56 -55q-4 -4 -9 -5t-8.5 1t-5.5 5.5t-1 8.5t5 9z" />
<glyph unicode="&#xa5;" horiz-adv-x="585" d="M99 354q-71 0 -92 71q-21 69 15 146q39 82 113 97q13 3 28 3q63 0 97.5 -39t34.5 -102q0 -58 -33.5 -162t-33.5 -145q0 -36 22 -36q26 0 58 34t59.5 83.5t49 96.5t32.5 81q26 76 56 76q10 0 15.5 -7.5t2.5 -12.5q-29 -64 -67 -226.5t-64 -228.5h40q8 0 6 -8t-14 -8 q-25 0 -40 -1q-8 -22 -21 -46h54q8 0 6 -8t-14 -8h-57q-65 -106 -180 -106q-96 0 -123 64q-19 45 7 85q19 30 52 30q10 0 16 -4.5t8 -8.5l1 -4q-42 0 -57 -40q-16 -40 11 -71q24 -27 70 -27q80 0 138 80h-40q-21 0 -21 16q1 9 7 10q3 -5 14 -5q34 0 53 -1q16 28 23 43 q-22 -1 -61 -1q-21 0 -22 16q1 9 7 10q3 -5 15 -5h70q30 73 62 207h-8q-80 -131 -152 -131q-68 0 -68 82q0 52 34.5 157.5t34.5 159.5q0 87 -80 87q-68 0 -108 -69t-22 -138t92 -69q-1 -17 -26 -17z" />
<glyph unicode="&#xa6;" horiz-adv-x="417" d="M127 -106q1 69 7 345h38q-15 -288 -16 -309q-1 -52 -17 -55q-8 -1 -11 10q-1 4 -1 9zM136 329q1 52 2.5 105.5t2.5 99t1 56.5q1 77 35 77q16 0 15 -28q-1 -21 -3.5 -65.5t-6 -119.5t-6.5 -125h-40z" />
<glyph unicode="&#xa7;" horiz-adv-x="554" d="M93 -16q85 0 135 53t50 136q0 39 -16.5 70t-40 52t-47.5 40t-40.5 43t-16.5 52q0 56 47.5 106.5t106.5 60.5v4q0 63 57 116.5t121 53.5q20 0 30 -11.5t10 -23.5v-12q-9 7 -34 7q-45 0 -85.5 -38.5t-40.5 -93.5q0 -25 16.5 -49t40.5 -44.5t47.5 -42.5t40 -52.5t16.5 -66.5 q0 -68 -41 -123.5t-116 -77.5q-10 -76 -73.5 -129t-166.5 -53q-92 0 -110 63q-16 53 27 108q50 64 125 65q12 0 20 -7.5t9 -15.5l2 -7q-68 0 -116 -57q-41 -49 -28 -89q12 -37 71 -37zM175 429q0 -26 16.5 -50t40 -44t47 -42t40.5 -53t17 -67q46 22 71 66.5t25 104.5 q0 40 -18.5 73t-42 52t-51 43t-38.5 45q-41 -8 -74 -44t-33 -84z" />
<glyph unicode="&#xa8;" horiz-adv-x="450" d="M160 559q-17 0 -20 29.5t11 58.5t38 29q20 0 20 -23q0 -12 -12.5 -35.5t-24.5 -41.5zM303 559q-17 0 -20.5 29.5t10.5 58.5t38 29q21 0 21 -23q0 -12 -12 -35.5t-24 -41.5z" />
<glyph unicode="&#xa9;" horiz-adv-x="842" d="M114 271q14 128 112.5 217.5t225.5 89.5t208 -90t68 -217t-112.5 -217t-227.5 -90q-127 0 -207 90t-67 217zM135 271q-13 -118 62 -201.5t194 -83.5q118 0 210.5 83.5t105.5 201.5q12 118 -63.5 201.5t-194.5 83.5q-118 0 -209.5 -83.5t-104.5 -201.5zM389 73 q-84 0 -103 84q-17 79 27 174q44 93 114 120q22 8 44 8q24 0 37 -17q21 64 53 64q12 0 12 -12q-56 -78 -56 -142q0 -11 -9 -10q-11 1 -11 18q0 32 5 54q0 1 -0.5 2.5t-3 5.5t-5.5 7.5t-9.5 6t-14.5 2.5q-54 0 -96.5 -85t-39 -170t61.5 -85q24 0 45.5 15t31.5 30l9 15 q2 8 12 8q5 0 8 -2t3 -4v-2q-2 -3 -5 -9t-14.5 -20.5t-23.5 -26t-32 -20.5t-40 -9z" />
<glyph unicode="&#xaa;" horiz-adv-x="457" d="M133 457q-48 0 -52 68q-5 74 39 154q52 89 120 92q17 0 29 -9t15 -18l4 -9q-1 -11 -14 -11q-4 0 -7.5 2t-4.5 4l-1 2q-4 18 -23 18q-38 0 -71 -69t-37.5 -128.5t11.5 -69.5q14 0 51.5 55.5t67.5 110.5l30 55q19 37 41 37q15 0 15 -15q-6 -12 -14.5 -34t-23 -88 t-14.5 -130q0 -34 3.5 -48t13.5 -14q7 0 12 5.5t7 10.5l2 6q2 7 11 7q3 0 4.5 -1.5t1.5 -3.5v-2q-16 -48 -40 -48q-27 0 -41.5 34.5t-14.5 89.5q0 48 7 89h-5q-84 -142 -122 -142z" />
<glyph unicode="&#xab;" horiz-adv-x="610" d="M38 263q-8 12 6 21l228 145v-32l-179 -137l113 -165v-34q-129 148 -168 202zM251 263q-8 12 5 21l229 145v-32l-179 -137l112 -165v-34q-128 148 -167 202z" />
<glyph unicode="&#xac;" horiz-adv-x="815" d="M62 336v27l609 18q28 1 40.5 -13t4.5 -34l-105 -243h-32l71 233z" />
<glyph unicode="&#xad;" horiz-adv-x="495" d="M95 252q-12 0 -9 10q5 17 44 17q36 0 138.5 -4t137.5 -4q9 0 9 -5q-6 -11 -38 -12q-31 0 -132 -1t-150 -1z" />
<glyph unicode="&#xae;" horiz-adv-x="449" d="M87 627q6 61 52.5 103.5t106.5 42.5q61 0 99 -42.5t32 -103.5q-6 -60 -53.5 -102.5t-106.5 -42.5q-61 0 -98.5 42.5t-31.5 102.5zM99 627q-6 -55 28.5 -94t89.5 -39q38 0 71 19q-18 11 -35.5 63.5t-23.5 57.5q-3 0 -4.5 2t-1.5 4v2q33 0 54 40q17 31 5 40q-3 2 -6 2 q-28 0 -59 -76.5t-31 -94.5q0 -4 -4 -4q-9 0 -9 19q0 49 9 91.5t23 58.5q-23 -4 -43 -16t-20 -30q0 -5 5 -5q-1 -7 -6 -7q-12 0 -12 15q0 20 32.5 35t56.5 15q4 0 4 -3q-10 -24 -19 -63q-2 -7 -4.5 -20.5t-3.5 -16.5h3q37 111 79 111q29 0 28 -29q-1 -33 -33 -56 q-13 -10 -28 -13q10 0 19.5 -25t19 -54t17.5 -36q57 39 66 107q5 56 -30 95t-90 39q-56 0 -98.5 -39t-48.5 -95z" />
<glyph unicode="&#xb0;" horiz-adv-x="354" d="M93 578q0 38 26.5 64.5t64.5 26.5q41 0 68 -26t27 -65t-27 -65.5t-68 -26.5q-38 0 -64.5 27t-26.5 65zM122 578q0 -25 18.5 -43.5t43.5 -18.5q26 0 44.5 18.5t18.5 43.5q0 26 -18.5 44.5t-44.5 18.5t-44 -18.5t-18 -44.5z" />
<glyph unicode="&#xb1;" horiz-adv-x="583" d="M75 183q4 -6 21 -6h345q9 0 8 -11q-2 -13 -21 -13q-30 0 -165 -4t-167 -4q-29 0 -33 20q1 15 12 18zM75 333q4 -6 21 -6h148q15 61 37 109t40 48q12 0 12 -11q-21 -44 -48 -146h156q9 0 8 -11q-2 -13 -21 -13q-26 0 -150 -4l-18 -83q0 -10 -11 -10q-26 0 -10 91 q-59 -2 -143 -2q-29 0 -33 20q1 15 12 18z" />
<glyph unicode="&#xb2;" horiz-adv-x="279" d="M50 501q-4 0 -4 10.5t4 10.5q15 0 54 36.5t73.5 86.5t34.5 81q0 29 -32 29q-41 0 -64 -40q-15 -26 -3 -33q2 -1 4 -1q-3 -26 -22 -26q-23 0 -16 32q9 41 49 69q29 20 60 20q67 0 67 -56q0 -44 -54.5 -103.5t-111.5 -96.5q88 -8 103 -8q17 0 29 6t15 12l3 6q10 0 7 -19 q-5 -31 -38 -39l-22 -3q-32 0 -77 13t-59 13z" />
<glyph unicode="&#xb3;" horiz-adv-x="290" d="M28 465q0 8 6 14.5t12 8.5l6 3q0 -45 49 -45t75 44t11.5 88.5t-64.5 44.5q1 16 14 16q21 0 47 31t26 61q0 25 -29 25q-36 0 -53 -29q-11 -21 1 -26l5 -1q-4 -21 -21 -21q-25 0 -20 26q7 33 45 55q25 15 53 15q56 0 61 -41q4 -38 -36 -75q-18 -16 -40 -25q55 -15 62.5 -66 t-33 -95.5t-104.5 -44.5q-25 0 -43 7t-24 15t-6 15z" />
<glyph unicode="&#xb4;" horiz-adv-x="445" d="M263 552q-12 5 15 48t58 78q20 23 41 11q20 -9 5 -36q-30 -36 -69.5 -71t-49.5 -30z" />
<glyph unicode="&#xb5;" horiz-adv-x="475" d="M-28 -288q-22 0 -35 19t-15 53.5t1.5 77t13.5 94t21.5 100.5t26.5 100.5t27 90.5t24 73q26 72 55.5 118.5t55.5 46.5q18 0 18 -22q-11 -29 -28 -75t-45.5 -146t-28.5 -152q0 -51 24 -51q35 0 111 126t122 228q42 92 82 92q20 0 20 -22q-26 -41 -63 -173t-37 -219 q0 -73 32 -73q13 0 23.5 11t14.5 21l4 11q2 9 13 9q5 0 7 -2t2 -4l-1 -3q-3 -9 -8.5 -22t-22.5 -34.5t-35 -21.5q-88 0 -88 162q0 38 9 92h-8q-121 -213 -187 -213q-51 0 -69 57q-17 -80 -24.5 -152t-1.5 -121.5t27 -49.5q0 -3 -1.5 -7.5t-11 -11.5t-24.5 -7z" />
<glyph unicode="&#xb6;" horiz-adv-x="698" d="M109 167q9 0 16 -4.5t9 -8.5l3 -4q-45 0 -70 -50q-27 -56 -1 -108q34 -68 140 -68q79 0 134 42t82 107t47 150t29 163.5t27.5 156.5t44.5 120q-71 27 -112 27q-97 0 -161 -98q-56 -84 -52 -178q3 -93 65 -117q18 -7 39 -7q-3 -15 -22 -15q-100 0 -141 85q-38 79 -4 176 q36 104 131 150q55 27 123 27q66 0 147 -32q2 3 7 8q33 124 95 124q7 0 11.5 -4t5.5 -8l2 -4q-52 0 -82 -82q22 12 54 12q46 0 55 -31q9 -28 -19 -48q-19 -13 -47 -13q-21 0 -60 14q-12 -61 -20.5 -163.5t-15 -188t-19 -167.5t-39.5 -129.5t-70 -47.5q-10 0 -14 6.5t-3 12.5 l1 7q32 0 54 40t35 113t20.5 148t17.5 172.5t21 158.5q-14 -36 -25 -91t-18.5 -109.5t-19 -117.5t-24.5 -118t-37 -106.5t-55 -88.5t-79 -59t-109 -22q-135 0 -181 83q-33 59 -6 121q25 56 78 63q6 1 12 1zM610 669q33 -12 56 -12q37 0 43 22q5 18 -17 25q-7 2 -16 2 q-39 0 -65 -29z" />
<glyph unicode="&#xb7;" horiz-adv-x="302" d="M123 240q-17 0 -20 29.5t10.5 59t37.5 29.5q21 0 21 -23q0 -12 -12 -35.5t-24 -41.5z" />
<glyph unicode="&#xb8;" horiz-adv-x="254" d="M25 -146q6 0 9.5 -3t4.5 -6l1 -3q-14 0 -16 -15q-1 -16 21 -22q6 -1 14 -1q60 0 87 44q21 34 2 55q-10 12 -31 12q-15 0 -28 -3.5t-22 -7.5t-12 -5h-2q-30 0 38 98l4 6h22l-46 -82q26 13 59 13q50 0 60 -38q9 -37 -28 -70q-38 -35 -101 -35q-52 0 -58 31q-4 21 13 30 q4 2 9 2z" />
<glyph unicode="&#xb9;" horiz-adv-x="244" d="M40 630q0 48 56.5 95.5t109.5 47.5q8 0 8 -7q-25 -18 -43 -124.5t-18 -164.5q0 -6 -6 -6q-13 0 -17.5 8.5t-4.5 28.5q0 78 14 147.5t37 99.5q-39 -15 -71 -53t-32 -75q0 -21 18 -21q0 -15 -19 -15q-14 0 -23 11.5t-9 27.5z" />
<glyph unicode="&#xba;" horiz-adv-x="311" d="M111 453q-63 0 -73.5 72t26 144t88.5 72q10 0 15.5 -4.5t6.5 -8.5v-4q-37 0 -65 -61t-26.5 -122.5t37.5 -61.5q34 0 67 73t33 155v8q-18 12 -29.5 29t-11.5 27q0 7 7 14t17 7q11 0 21.5 -20t14.5 -46q17 -10 32 -10q6 0 10.5 1t6.5 3l2 1q0 -22 -20 -22q-17 0 -29 4 q-2 -89 -40 -169.5t-90 -80.5z" />
<glyph unicode="&#xbb;" horiz-adv-x="578" d="M50 61v32l179 137l-112 164v35q128 -149 167 -203q7 -11 -5 -20zM263 61v32l178 137l-112 164v35q128 -149 168 -203q7 -11 -6 -20z" />
<glyph unicode="&#xbc;" horiz-adv-x="988" d="M54 483q0 74 94.5 152t166.5 78q18 0 18 -12q-40 -45 -75 -213.5t-35 -248.5q0 -10 -11 -10q-28 0 -28 59q0 126 23 236.5t60 159.5q-62 -25 -114 -87t-52 -120q0 -33 20 -33q0 -22 -21 -22q-22 0 -34 17t-12 44zM195 -23q32 66 175.5 381t157.5 344q11 22 28 22 q12 0 16.5 -11.5t0 -34t-18.5 -51.5q-13 -26 -93.5 -185t-153.5 -306.5t-101 -208.5q-10 -20 -21 -14q-16 8 8 60zM484 115h10q17 19 32.5 58.5t24.5 83t14 83.5t2.5 66.5t-11.5 26.5v1q0 2 1 5t2.5 5t5.5 4t10 2q26 0 37 -65t-2.5 -149.5t-50.5 -129.5q101 -14 126 -15 q4 55 12.5 102t22 89t35 66t48.5 24q12 0 12 -12q-46 -61 -80 -269q61 6 76 49q9 26 -2 33q-2 1 -4 1q3 20 24 20t25 -27q5 -39 -31 -70q-33 -29 -91 -32q-10 -64 -10 -113q0 -10 -11 -10q-28 0 -28 61q0 41 1 62q-53 2 -157 14q-20 -10 -39 -10q-41 0 -44 20q-2 16 21 23 q8 3 19 3z" />
<glyph unicode="&#xbd;" horiz-adv-x="926" d="M54 483q0 74 94.5 152t166.5 78q18 0 18 -12q-40 -45 -75 -213.5t-35 -248.5q0 -10 -11 -10q-28 0 -28 59q0 126 23 236.5t60 159.5q-62 -25 -114 -87t-52 -120q0 -33 20 -33q0 -22 -21 -22q-22 0 -34 17t-12 44zM195 -23q32 66 175.5 381t157.5 344q11 22 28 22 q12 0 16.5 -11.5t0 -34t-18.5 -51.5q-13 -26 -93.5 -185t-153.5 -306.5t-101 -208.5q-10 -20 -21 -14q-16 8 8 60zM455 -21q-3 0 -4.5 5.5t0.5 11t5 5.5q20 0 85.5 63t125.5 149t60 136q0 53 -59 53q-66 0 -103 -62q-26 -41 -16 -66q4 -9 13 -10q0 -4 -1 -9.5t-9 -15 t-22 -9.5q-34 0 -30 42q4 52 54 102q57 57 129 57q109 0 109 -92q0 -40 -31 -91.5t-77 -98.5t-94 -86.5t-87 -62.5q3 0 76 -5t110 -5q28 0 47 10t24 20l5 10q14 0 11 -24q-3 -38 -42 -58q-23 -11 -55 -11q-52 0 -127 21t-97 21z" />
<glyph unicode="&#xbe;" horiz-adv-x="1032" d="M1 249q0 10 7.5 18.5t14.5 12.5l7 4q0 -23 18.5 -45.5t60.5 -22.5q78 0 121 70q37 62 20 124q-19 67 -92 74q-8 1 -16 1q2 23 22 23q33 0 74.5 46.5t41.5 92.5q0 39 -49 39q-54 0 -80 -43q-17 -29 -3 -41q3 -3 9 -3q-4 -35 -29 -35q-32 0 -33 32q0 41 42 78q46 40 108 40 q80 0 91 -55q11 -50 -38 -105q-32 -35 -76 -53q82 -23 94 -98.5t-48.5 -142.5t-158.5 -67q-54 0 -81 19t-27 37zM239 -23q33 67 178.5 386.5t154.5 338.5q12 22 29 22q12 0 16 -11.5t-0.5 -34t-18.5 -51.5q-13 -26 -93.5 -185t-153.5 -306.5t-101 -208.5q-10 -20 -20 -14 q-17 8 7 60zM529 115h9q18 19 33.5 58.5t24.5 83t14 83.5t2.5 66.5t-11.5 26.5v1v2.5t0.5 3t1.5 3.5t3 3.5t5.5 2.5t7.5 1q27 0 38 -65t-3 -149.5t-51 -129.5q100 -14 127 -15q9 118 37.5 199.5t79.5 81.5q13 0 13 -12q-46 -61 -80 -269q60 6 76 49q9 26 -3 33q-2 1 -4 1 q4 20 24 20q21 0 25 -27q6 -39 -31 -71q-34 -28 -91 -31q-10 -75 -10 -113q0 -10 -10 -10q-29 0 -29 61q0 41 1 62q-49 2 -157 14q-18 -10 -39 -10q-29 0 -39.5 11.5t1 23t35.5 11.5z" />
<glyph unicode="&#xbf;" horiz-adv-x="492" d="M2 -177q0 53 33.5 109.5t80.5 103.5t94.5 90.5t81 85.5t33.5 74q0 11 17.5 11.5t17.5 -11.5q0 -32 -29.5 -78t-71 -93.5t-83 -97.5t-71 -105t-29.5 -102q0 -78 84 -78t138 78q36 53 31 92q-3 21 -19 21v5t2 10t5.5 13t11.5 10.5t18 4.5q41 0 39 -49q-2 -60 -58 -125 q-78 -92 -186 -92q-69 0 -104.5 34t-35.5 89zM352 367q-17 0 -25.5 29t0 58.5t32.5 29.5t24 -23q0 -10 -7.5 -33.5t-15.5 -41.5z" />
<glyph unicode="&#xc0;" d="M187 353q14 0 23 -8.5t11 -17.5l2 -9q-59 0 -106 -41.5t-64.5 -100.5t-13.5 -118t48 -100.5t119 -41.5q82 0 163 70q-36 35 -45.5 97.5t9 130.5t56.5 130t103 102t142 40q34 0 73 -12q36 59 66 103.5t68 89t73 73t76.5 46.5t83.5 18q16 0 16 -16q-66 -145 -107 -317 q-30 -123 -49.5 -262.5t-19.5 -236.5q0 -14 -14 -14q-35 0 -35 80q0 48 -5 96.5t-18.5 108.5t-43.5 109.5t-74 74.5q-11 -21 -41.5 -80t-45 -86.5t-43 -77t-48.5 -79.5t-48.5 -65t-55.5 -61q10 -3 24 -3q84 0 139 55.5t76 131.5q3 11 16 10q8 -1 6 -8q-22 -86 -83.5 -150.5 t-154.5 -64.5q-21 0 -47 7q-92 -74 -196 -74q-135 0 -192 106q-47 88 -22 196q24 103 98 147q37 22 81 22zM391 4q38 36 81 94.5t68 98.5t78 130t69 116q-24 7 -54 7q-84 0 -151 -55t-98 -128.5t-31 -148.5t38 -114zM741 459q97 -53 136 -212q18 170 58.5 312.5t86.5 205.5 q-80 -21 -146 -99t-135 -207zM923 1000q15 24 38 5q36 -34 72.5 -78t30.5 -54q-8 -13 -50 17.5t-80 68.5q-24 21 -11 41z" />
<glyph unicode="&#xc1;" d="M187 353q14 0 23 -8.5t11 -17.5l2 -9q-59 0 -106 -41.5t-64.5 -100.5t-13.5 -118t48 -100.5t119 -41.5q82 0 163 70q-36 35 -45.5 97.5t9 130.5t56.5 130t103 102t142 40q34 0 73 -12q36 59 66 103.5t68 89t73 73t76.5 46.5t83.5 18q16 0 16 -16q-66 -145 -107 -317 q-30 -123 -49.5 -262.5t-19.5 -236.5q0 -14 -14 -14q-35 0 -35 80q0 48 -5 96.5t-18.5 108.5t-43.5 109.5t-74 74.5q-11 -21 -41.5 -80t-45 -86.5t-43 -77t-48.5 -79.5t-48.5 -65t-55.5 -61q10 -3 24 -3q84 0 139 55.5t76 131.5q3 11 16 10q8 -1 6 -8q-22 -86 -83.5 -150.5 t-154.5 -64.5q-21 0 -47 7q-92 -74 -196 -74q-135 0 -192 106q-47 88 -22 196q24 103 98 147q37 22 81 22zM391 4q38 36 81 94.5t68 98.5t78 130t69 116q-24 7 -54 7q-84 0 -151 -55t-98 -128.5t-31 -148.5t38 -114zM741 459q97 -53 136 -212q18 170 58.5 312.5t86.5 205.5 q-80 -21 -146 -99t-135 -207zM1024 856q-12 5 14.5 48t58.5 79q21 22 41 10q21 -10 5 -35q-30 -36 -69.5 -71.5t-49.5 -30.5z" />
<glyph unicode="&#xc2;" d="M187 353q14 0 23 -8.5t11 -17.5l2 -9q-59 0 -106 -41.5t-64.5 -100.5t-13.5 -118t48 -100.5t119 -41.5q82 0 163 70q-36 35 -45.5 97.5t9 130.5t56.5 130t103 102t142 40q34 0 73 -12q36 59 66 103.5t68 89t73 73t76.5 46.5t83.5 18q16 0 16 -16q-66 -145 -107 -317 q-30 -123 -49.5 -262.5t-19.5 -236.5q0 -14 -14 -14q-35 0 -35 80q0 48 -5 96.5t-18.5 108.5t-43.5 109.5t-74 74.5q-11 -21 -41.5 -80t-45 -86.5t-43 -77t-48.5 -79.5t-48.5 -65t-55.5 -61q10 -3 24 -3q84 0 139 55.5t76 131.5q3 11 16 10q8 -1 6 -8q-22 -86 -83.5 -150.5 t-154.5 -64.5q-21 0 -47 7q-92 -74 -196 -74q-135 0 -192 106q-47 88 -22 196q24 103 98 147q37 22 81 22zM391 4q38 36 81 94.5t68 98.5t78 130t69 116q-24 7 -54 7q-84 0 -151 -55t-98 -128.5t-31 -148.5t38 -114zM741 459q97 -53 136 -212q18 170 58.5 312.5t86.5 205.5 q-80 -21 -146 -99t-135 -207zM898 849q96 80 144 118q21 16 30 0l59 -118h-28l-46 77l-130 -77h-29z" />
<glyph unicode="&#xc3;" d="M187 353q14 0 23 -8.5t11 -17.5l2 -9q-59 0 -106 -41.5t-64.5 -100.5t-13.5 -118t48 -100.5t119 -41.5q82 0 163 70q-36 35 -45.5 97.5t9 130.5t56.5 130t103 102t142 40q34 0 73 -12q36 59 66 103.5t68 89t73 73t76.5 46.5t83.5 18q16 0 16 -16q-66 -145 -107 -317 q-30 -123 -49.5 -262.5t-19.5 -236.5q0 -14 -14 -14q-35 0 -35 80q0 48 -5 96.5t-18.5 108.5t-43.5 109.5t-74 74.5q-11 -21 -41.5 -80t-45 -86.5t-43 -77t-48.5 -79.5t-48.5 -65t-55.5 -61q10 -3 24 -3q84 0 139 55.5t76 131.5q3 11 16 10q8 -1 6 -8q-22 -86 -83.5 -150.5 t-154.5 -64.5q-21 0 -47 7q-92 -74 -196 -74q-135 0 -192 106q-47 88 -22 196q24 103 98 147q37 22 81 22zM391 4q38 36 81 94.5t68 98.5t78 130t69 116q-24 7 -54 7q-84 0 -151 -55t-98 -128.5t-31 -148.5t38 -114zM741 459q97 -53 136 -212q18 170 58.5 312.5t86.5 205.5 q-80 -21 -146 -99t-135 -207zM886 868q1 3 3.5 8.5t12 19t20 23.5t28 18.5t37.5 8.5q18 0 45.5 -23.5t47.5 -23.5q12 0 23.5 9t16.5 18l5 9h30q-2 -3 -4.5 -8.5t-12 -19t-20 -24t-26.5 -19t-32 -8.5q-21 0 -50.5 26.5t-43.5 26.5q-13 0 -25 -10.5t-17 -20.5l-6 -10h-32z" />
<glyph unicode="&#xc4;" d="M187 353q14 0 23 -8.5t11 -17.5l2 -9q-59 0 -106 -41.5t-64.5 -100.5t-13.5 -118t48 -100.5t119 -41.5q82 0 163 70q-36 35 -45.5 97.5t9 130.5t56.5 130t103 102t142 40q34 0 73 -12q36 59 66 103.5t68 89t73 73t76.5 46.5t83.5 18q16 0 16 -16q-66 -145 -107 -317 q-30 -123 -49.5 -262.5t-19.5 -236.5q0 -14 -14 -14q-35 0 -35 80q0 48 -5 96.5t-18.5 108.5t-43.5 109.5t-74 74.5q-11 -21 -41.5 -80t-45 -86.5t-43 -77t-48.5 -79.5t-48.5 -65t-55.5 -61q10 -3 24 -3q84 0 139 55.5t76 131.5q3 11 16 10q8 -1 6 -8q-22 -86 -83.5 -150.5 t-154.5 -64.5q-21 0 -47 7q-92 -74 -196 -74q-135 0 -192 106q-47 88 -22 196q24 103 98 147q37 22 81 22zM391 4q38 36 81 94.5t68 98.5t78 130t69 116q-24 7 -54 7q-84 0 -151 -55t-98 -128.5t-31 -148.5t38 -114zM741 459q97 -53 136 -212q18 170 58.5 312.5t86.5 205.5 q-80 -21 -146 -99t-135 -207zM969 856q-17 0 -20 29.5t11 59t38 29.5q20 0 20 -23q0 -12 -12 -35.5t-24 -41.5zM1112 856q-17 0 -20.5 29.5t10.5 59t38 29.5q21 0 21 -23q0 -12 -12.5 -35.5t-24.5 -41.5z" />
<glyph unicode="&#xc5;" d="M187 353q14 0 23 -8.5t11 -17.5l2 -9q-59 0 -106 -41.5t-64.5 -100.5t-13.5 -118t48 -100.5t119 -41.5q82 0 163 70q-36 35 -45.5 97.5t9 130.5t56.5 130t103 102t142 40q34 0 73 -12q36 59 66 103.5t68 89t73 73t76.5 46.5t83.5 18q16 0 16 -16q-66 -145 -107 -317 q-30 -123 -49.5 -262.5t-19.5 -236.5q0 -14 -14 -14q-35 0 -35 80q0 48 -5 96.5t-18.5 108.5t-43.5 109.5t-74 74.5q-11 -21 -41.5 -80t-45 -86.5t-43 -77t-48.5 -79.5t-48.5 -65t-55.5 -61q10 -3 24 -3q84 0 139 55.5t76 131.5q3 11 16 10q8 -1 6 -8q-22 -86 -83.5 -150.5 t-154.5 -64.5q-21 0 -47 7q-92 -74 -196 -74q-135 0 -192 106q-47 88 -22 196q24 103 98 147q37 22 81 22zM391 4q38 36 81 94.5t68 98.5t78 130t69 116q-24 7 -54 7q-84 0 -151 -55t-98 -128.5t-31 -148.5t38 -114zM741 459q97 -53 136 -212q18 170 58.5 312.5t86.5 205.5 q-80 -21 -146 -99t-135 -207zM959 931q0 30 20.5 51t49.5 21q32 0 53 -21t21 -51t-21 -51t-53 -21q-29 0 -49.5 21.5t-20.5 50.5zM988 931q0 -16 12 -28t29 -12t29.5 12t12.5 28q0 18 -12.5 30t-29.5 12t-29 -12t-12 -30z" />
<glyph unicode="&#xc6;" horiz-adv-x="1459" d="M187 353q14 0 23 -8.5t11 -17.5l2 -9q-59 0 -106 -41.5t-64.5 -100.5t-13.5 -118t48 -100.5t119 -41.5q82 0 163 70q-36 35 -45.5 97.5t9 130.5t56.5 130t103 102t142 40q34 0 72 -12q46 75 84.5 128t85 102.5t96.5 74.5t102 25q2 0 2 -8v-16l-1 -8q-52 0 -99 -23.5 t-89 -70.5t-74.5 -97t-72.5 -123q98 -59 115 -247q40 95 122 168t192 97q-80 29 -80 102q0 68 66 128q76 68 184 68q19 0 28 -14t9 -28l-1 -13q-8 4 -35 4q-90 0 -153 -64q-51 -53 -41 -105q11 -60 103 -66q10 -1 20 -1q11 0 18.5 -6.5t9.5 -12.5l2 -7q-172 0 -289 -133 q-90 -102 -107 -230q-15 -120 47 -179q39 -38 102 -38q142 0 218 120q55 86 49 182q-4 78 -46 93q-8 3 -17 3q13 23 48 23q49 0 64 -65q18 -81 -25 -184q-54 -126 -163 -177q-60 -28 -129 -28q-121 0 -175.5 71.5t-48.5 182.5q11 250 -103 323q-10 -19 -49.5 -94t-56.5 -106 t-50.5 -86t-63.5 -92.5t-62 -68.5q21 -3 24 -3q84 0 139 55.5t76 131.5q3 11 16 10q8 -1 6 -8q-22 -86 -83.5 -150.5t-154.5 -64.5q-21 0 -47 7q-92 -74 -196 -74q-135 0 -192 106q-47 88 -22 196q24 103 98 147q37 22 81 22zM391 4q38 36 81 95t67.5 97t79 130t68.5 116 q-21 8 -54 8q-84 0 -151 -55t-98 -128.5t-31 -148.5t38 -114zM1375 558q0 102 23 164.5t61 62.5q9 0 16.5 -7.5t7.5 -18.5q-3 -3 -8 -8.5t-17.5 -25t-22 -41.5t-17.5 -59t-8 -77q0 -4 -9 -4.5t-17.5 3.5t-8.5 11z" />
<glyph unicode="&#xc7;" horiz-adv-x="605" d="M139 -253q6 0 9.5 -3t4.5 -6l1 -3q-14 0 -16 -15q-1 -16 21 -22q6 -1 14 -1q59 0 87 44q21 34 2 56q-10 12 -31 12q-15 0 -28 -3.5t-22 -8t-12 -5.5h-2q-18 0 -2 32.5t38 62.5q-86 26 -121.5 126t-13 226t77 248t155.5 204.5t216 82.5q20 0 29 -13t8 -25v-13q-8 3 -35 3 q-138 0 -247 -161q-94 -139 -123 -324q-28 -179 26 -269q36 -60 101 -60q88 0 150 101q42 68 42 120q0 23 -12 23q6 23 30 23q33 0 27 -55q-7 -71 -65 -145q-79 -101 -185 -101q-18 0 -40 5l-38 -69q26 13 59 13q50 0 60 -38q9 -37 -28 -70q-38 -35 -101 -35q-52 0 -58 31 q-4 21 13 30q4 2 9 2zM545 523q0 102 23 164.5t60 62.5q10 0 17 -7t7 -19q-3 -3 -8 -8.5t-17.5 -24.5t-22 -41.5t-17.5 -59t-8 -76.5q0 -4 -8.5 -5t-17 3t-8.5 11z" />
<glyph unicode="&#xc8;" horiz-adv-x="632" d="M224 -152q-148 0 -202 108q-48 96 -4 226q46 136 164 222q73 52 161 72q-80 29 -80 102q0 68 66 128q76 68 184 68q18 0 27 -14t8 -28v-13q-8 4 -34 4q-91 0 -153 -64q-52 -53 -42 -105q11 -59 101 -66q11 -1 22 -1t18.5 -6.5t9.5 -12.5l3 -7q-173 0 -290 -133 q-90 -102 -106 -230q-16 -120 46 -179q39 -38 102 -38q142 0 218 120q55 86 49 182q-4 78 -46 93q-8 3 -17 3q13 23 48 23q49 0 64 -65q19 -81 -25 -184q-54 -126 -163 -177q-60 -28 -129 -28zM415 966q15 25 38 4q37 -34 72.5 -78t30.5 -54q-8 -12 -50.5 18.5t-80.5 67.5 q-22 21 -10 42zM548 558q0 102 23 164.5t61 62.5q10 0 17 -7.5t7 -18.5q-3 -3 -8 -8.5t-17.5 -25t-22 -41.5t-17.5 -59t-8 -77q0 -4 -8.5 -4.5t-17.5 3.5t-9 11z" />
<glyph unicode="&#xc9;" horiz-adv-x="632" d="M224 -152q-148 0 -202 108q-48 96 -4 226q46 136 164 222q73 52 161 72q-80 29 -80 102q0 68 66 128q76 68 184 68q18 0 27 -14t8 -28v-13q-8 4 -34 4q-91 0 -153 -64q-52 -53 -42 -105q11 -59 101 -66q11 -1 22 -1t18.5 -6.5t9.5 -12.5l3 -7q-173 0 -290 -133 q-90 -102 -106 -230q-16 -120 46 -179q39 -38 102 -38q142 0 218 120q55 86 49 182q-4 78 -46 93q-8 3 -17 3q13 23 48 23q49 0 64 -65q19 -81 -25 -184q-54 -126 -163 -177q-60 -28 -129 -28zM502 823q-13 5 14 48t59 79q19 22 41 10q20 -10 4 -35q-28 -35 -68 -71.5 t-50 -30.5zM548 558q0 102 23 164.5t61 62.5q10 0 17 -7.5t7 -18.5q-3 -3 -8 -8.5t-17.5 -25t-22 -41.5t-17.5 -59t-8 -77q0 -4 -8.5 -4.5t-17.5 3.5t-9 11z" />
<glyph unicode="&#xca;" horiz-adv-x="632" d="M224 -152q-148 0 -202 108q-48 96 -4 226q46 136 164 222q73 52 161 72q-80 29 -80 102q0 68 66 128q76 68 184 68q18 0 27 -14t8 -28v-13q-8 4 -34 4q-91 0 -153 -64q-52 -53 -42 -105q11 -59 101 -66q11 -1 22 -1t18.5 -6.5t9.5 -12.5l3 -7q-173 0 -290 -133 q-90 -102 -106 -230q-16 -120 46 -179q39 -38 102 -38q142 0 218 120q55 86 49 182q-4 78 -46 93q-8 3 -17 3q13 23 48 23q49 0 64 -65q19 -81 -25 -184q-54 -126 -163 -177q-60 -28 -129 -28zM373 824q96 80 144 118q22 16 29 0l60 -118h-28l-46 77l-130 -77h-29zM548 558 q0 102 23 164.5t61 62.5q10 0 17 -7.5t7 -18.5q-3 -3 -8 -8.5t-17.5 -25t-22 -41.5t-17.5 -59t-8 -77q0 -4 -8.5 -4.5t-17.5 3.5t-9 11z" />
<glyph unicode="&#xcb;" horiz-adv-x="632" d="M224 -152q-148 0 -202 108q-48 96 -4 226q46 136 164 222q73 52 161 72q-80 29 -80 102q0 68 66 128q76 68 184 68q18 0 27 -14t8 -28v-13q-8 4 -34 4q-91 0 -153 -64q-52 -53 -42 -105q11 -59 101 -66q11 -1 22 -1t18.5 -6.5t9.5 -12.5l3 -7q-173 0 -290 -133 q-90 -102 -106 -230q-16 -120 46 -179q39 -38 102 -38q142 0 218 120q55 86 49 182q-4 78 -46 93q-8 3 -17 3q13 23 48 23q49 0 64 -65q19 -81 -25 -184q-54 -126 -163 -177q-60 -28 -129 -28zM413 819q-17 0 -20 29.5t10.5 58.5t37.5 29q21 0 21 -23q0 -12 -12 -35.5 t-24 -41.5zM548 558q0 102 23 164.5t61 62.5q10 0 17 -7.5t7 -18.5q-3 -3 -8 -8.5t-17.5 -25t-22 -41.5t-17.5 -59t-8 -77q0 -4 -8.5 -4.5t-17.5 3.5t-9 11zM555 819q-17 0 -20 29.5t11 58.5t38 29q20 0 20 -23q0 -12 -12 -35.5t-24 -41.5z" />
<glyph unicode="&#xcc;" horiz-adv-x="587" d="M173 312q15 0 23.5 -9t9.5 -18l2 -9q-90 0 -141.5 -89t-23.5 -178.5t131 -89.5q56 0 98.5 36.5t68.5 98t45 137t33 157.5t27.5 155t33.5 135.5t47 92.5q-78 -27 -141.5 -85.5t-63.5 -127.5q0 -31 21 -31q-2 -14 -22 -14q-17 0 -31.5 15t-14.5 43q0 59 58.5 114.5t131 86 t124.5 30.5q8 0 13 -4t6 -8l1 -4q-29 0 -49.5 -37t-30.5 -97.5t-22 -138t-22.5 -158.5t-33.5 -158.5t-53.5 -138t-84.5 -97.5t-124 -37q-78 0 -125.5 44t-54.5 107t7 126t57.5 107t99.5 44zM433 939q15 24 39 4q37 -34 73 -77.5t30 -53.5q-9 -13 -50.5 17t-80.5 68 q-23 21 -11 42z" />
<glyph unicode="&#xcd;" horiz-adv-x="587" d="M173 312q15 0 23.5 -9t9.5 -18l2 -9q-90 0 -141.5 -89t-23.5 -178.5t131 -89.5q56 0 98.5 36.5t68.5 98t45 137t33 157.5t27.5 155t33.5 135.5t47 92.5q-78 -27 -141.5 -85.5t-63.5 -127.5q0 -31 21 -31q-2 -14 -22 -14q-17 0 -31.5 15t-14.5 43q0 59 58.5 114.5t131 86 t124.5 30.5q8 0 13 -4t6 -8l1 -4q-29 0 -49.5 -37t-30.5 -97.5t-22 -138t-22.5 -158.5t-33.5 -158.5t-53.5 -138t-84.5 -97.5t-124 -37q-78 0 -125.5 44t-54.5 107t7 126t57.5 107t99.5 44zM502 795q-13 5 14.5 48.5t58.5 77.5q19 23 41 11q19 -10 4 -36q-28 -35 -68 -71 t-50 -30z" />
<glyph unicode="&#xce;" horiz-adv-x="587" d="M173 312q15 0 23.5 -9t9.5 -18l2 -9q-90 0 -141.5 -89t-23.5 -178.5t131 -89.5q56 0 98.5 36.5t68.5 98t45 137t33 157.5t27.5 155t33.5 135.5t47 92.5q-78 -27 -141.5 -85.5t-63.5 -127.5q0 -31 21 -31q-2 -14 -22 -14q-17 0 -31.5 15t-14.5 43q0 59 58.5 114.5t131 86 t124.5 30.5q8 0 13 -4t6 -8l1 -4q-29 0 -49.5 -37t-30.5 -97.5t-22 -138t-22.5 -158.5t-33.5 -158.5t-53.5 -138t-84.5 -97.5t-124 -37q-78 0 -125.5 44t-54.5 107t7 126t57.5 107t99.5 44zM401 797q97 80 145 117q8 8 16.5 8t12.5 -8l60 -117h-29l-45 76l-130 -76h-30z" />
<glyph unicode="&#xcf;" horiz-adv-x="587" d="M173 312q15 0 23.5 -9t9.5 -18l2 -9q-90 0 -141.5 -89t-23.5 -178.5t131 -89.5q56 0 98.5 36.5t68.5 98t45 137t33 157.5t27.5 155t33.5 135.5t47 92.5q-78 -27 -141.5 -85.5t-63.5 -127.5q0 -31 21 -31q-2 -14 -22 -14q-17 0 -31.5 15t-14.5 43q0 59 58.5 114.5t131 86 t124.5 30.5q8 0 13 -4t6 -8l1 -4q-29 0 -49.5 -37t-30.5 -97.5t-22 -138t-22.5 -158.5t-33.5 -158.5t-53.5 -138t-84.5 -97.5t-124 -37q-78 0 -125.5 44t-54.5 107t7 126t57.5 107t99.5 44zM450 814q-17 0 -20 29.5t11 59t38 29.5q20 0 20 -23q0 -12 -12.5 -35.5 t-24.5 -41.5zM593 814q-17 0 -20 29.5t10.5 59t37.5 29.5q21 0 21 -23q0 -12 -12 -35.5t-24 -41.5z" />
<glyph unicode="&#xd0;" horiz-adv-x="750" d="M44 478q-35 0 -37 43q-2 58 54 125q90 108 250 125l55 3q182 0 264 -145q70 -126 41 -306q-29 -178 -138 -302q-120 -137 -286 -137q-153 0 -196 89q-29 60 4 126q29 56 79 63q5 1 11 1q5 0 6.5 -5.5t-1 -11.5t-7.5 -6q-34 0 -59 -44q-30 -55 -6 -105q32 -68 153 -68 q137 0 248 140q100 126 129 296q31 179 -39 288q-65 101 -204 101q-174 0 -261 -117q-44 -60 -44 -112q0 -21 9 -21q-6 -20 -25 -20zM108 402q4 -6 21 -6h85q25 136 65.5 222.5t78.5 86.5q16 0 16 -16q-45 -93 -79 -248q-3 -11 -10 -44q53 1 136 1q9 0 8 -11q-2 -13 -20 -13 q-3 0 -130 -5q-47 -232 -47 -337q0 -13 -14 -13q-30 0 -30 80q0 135 21 267q-64 -2 -80 -2q-29 0 -33 20q1 15 12 18z" />
<glyph unicode="&#xd1;" horiz-adv-x="693" d="M23 583q-23 0 -22 29q1 40 43 72q40 31 101 31q50 0 83.5 -32.5t46 -86t15 -122t-9.5 -139.5h9q232 441 359 441q45 0 45 -50q-31 -77 -69.5 -209.5t-69.5 -277t-25 -248.5t61 -104q38 0 68 59q5 10 17 6q6 -2 4 -6q-4 -9 -9 -18.5t-17.5 -29t-31 -32t-38.5 -12.5 q-237 0 -8 750q6 20 16 54l16 51q2 8 -5 8q-6 0 -12 -5q-56 -49 -119.5 -144.5t-117 -201.5t-87.5 -179.5t-56 -128.5q-42 -103 -71 -103q-21 0 -21 22v2q3 7 18.5 57t38.5 132t38 171.5t19 169t-20.5 131t-78.5 51.5q-62 0 -87 -53q-13 -29 -4 -39q1 -2 3 -2 q-2 -14 -22 -14zM319 830q1 3 3.5 8.5t11.5 19t19.5 24t28 19t37.5 8.5q18 0 45.5 -23.5t47.5 -23.5q12 0 23.5 8.5t16.5 17.5l5 9h30q-4 -9 -12 -22t-32.5 -34.5t-50.5 -21.5q-21 0 -50.5 26t-43.5 26q-13 0 -25 -10.5t-17 -20.5l-6 -10h-31z" />
<glyph unicode="&#xd2;" horiz-adv-x="684" d="M274 -58q-135 0 -183 137q-45 128 -1 311q45 181 147 290q88 94 189 94q28 0 43 -12.5t15 -25.5l1 -12q-10 4 -37 4q-108 0 -194 -143q-81 -133 -100 -306q-20 -176 40 -256q36 -47 94 -47q121 0 200 169t75.5 337.5t-82.5 168.5q0 1 0.5 2.5t3 5.5t6.5 7.5t11.5 6 t17.5 2.5q67 0 88 -104q25 -121 -22 -287q-52 -187 -157 -279q-72 -63 -155 -63zM377 958q15 24 39 4q37 -36 72.5 -79t30.5 -53q-9 -12 -50.5 18t-80.5 68q-23 21 -11 42z" />
<glyph unicode="&#xd3;" horiz-adv-x="684" d="M274 -58q-135 0 -183 137q-45 128 -1 311q45 181 147 290q88 94 189 94q28 0 43 -12.5t15 -25.5l1 -12q-10 4 -37 4q-108 0 -194 -143q-81 -133 -100 -306q-20 -176 40 -256q36 -47 94 -47q121 0 200 169t75.5 337.5t-82.5 168.5q0 1 0.5 2.5t3 5.5t6.5 7.5t11.5 6 t17.5 2.5q67 0 88 -104q25 -121 -22 -287q-52 -187 -157 -279q-72 -63 -155 -63zM457 827q-13 5 14.5 48.5t58.5 77.5q19 23 40 11q20 -9 5 -36q-30 -36 -69 -71.5t-49 -29.5z" />
<glyph unicode="&#xd4;" horiz-adv-x="684" d="M274 -58q-135 0 -183 137q-45 128 -1 311q45 181 147 290q88 94 189 94q28 0 43 -12.5t15 -25.5l1 -12q-10 4 -37 4q-108 0 -194 -143q-81 -133 -100 -306q-20 -176 40 -256q36 -47 94 -47q121 0 200 169t75.5 337.5t-82.5 168.5q0 1 0.5 2.5t3 5.5t6.5 7.5t11.5 6 t17.5 2.5q67 0 88 -104q25 -121 -22 -287q-52 -187 -157 -279q-72 -63 -155 -63zM358 820q96 80 144 117q9 7 17.5 7t11.5 -7l60 -117h-29l-45 76l-130 -76h-29z" />
<glyph unicode="&#xd5;" horiz-adv-x="684" d="M274 -58q-135 0 -183 137q-45 128 -1 311q45 181 147 290q88 94 189 94q28 0 43 -12.5t15 -25.5l1 -12q-10 4 -37 4q-108 0 -194 -143q-81 -133 -100 -306q-20 -176 40 -256q36 -47 94 -47q121 0 200 169t75.5 337.5t-82.5 168.5q0 1 0.5 2.5t3 5.5t6.5 7.5t11.5 6 t17.5 2.5q67 0 88 -104q25 -121 -22 -287q-52 -187 -157 -279q-72 -63 -155 -63zM350 841q1 3 3.5 8.5t11.5 19t19.5 23.5t28 18.5t37.5 8.5q18 0 46 -23.5t47 -23.5q12 0 23.5 9t16.5 18l5 9h31q-2 -3 -4.5 -8.5t-12.5 -19t-20.5 -24t-26.5 -19t-32 -8.5q-21 0 -50.5 26.5 t-43.5 26.5q-12 0 -24 -10t-18 -20l-6 -11h-31z" />
<glyph unicode="&#xd6;" horiz-adv-x="684" d="M274 -58q-135 0 -183 137q-45 128 -1 311q45 181 147 290q88 94 189 94q28 0 43 -12.5t15 -25.5l1 -12q-10 4 -37 4q-108 0 -194 -143q-81 -133 -100 -306q-20 -176 40 -256q36 -47 94 -47q121 0 200 169t75.5 337.5t-82.5 168.5q0 1 0.5 2.5t3 5.5t6.5 7.5t11.5 6 t17.5 2.5q67 0 88 -104q25 -121 -22 -287q-52 -187 -157 -279q-72 -63 -155 -63zM424 816q-17 0 -20 29.5t10.5 59t37.5 29.5q21 0 21 -24q0 -11 -12.5 -34.5t-24.5 -41.5zM566 816q-17 0 -20 29.5t11 59t38 29.5q20 0 20 -24q0 -11 -12.5 -34.5t-24.5 -41.5z" />
<glyph unicode="&#xd7;" horiz-adv-x="587" d="M65 6q-10 -12 -15 -2q-5 14 19 44q15 17 171 204q-16 27 -43 73t-47 80t-34 59q-8 13 4 16q20 5 43 -28l6 -9q7 -13 91 -168q87 107 172 205q12 13 18 0q9 -21 -19 -56q-38 -46 -156 -177q58 -111 103 -189q9 -13 -1 -14q-14 -1 -35 32q0 1 -1 2q-6 11 -36.5 63.5 t-49.5 82.5q-150 -169 -190 -218z" />
<glyph unicode="&#xd8;" horiz-adv-x="684" d="M248 -159q3 9 13 43t17 58h-4q-135 0 -183 137q-45 128 -1 311q45 181 147 290q88 94 189 94q28 0 43 -12.5t15 -25.5l1 -12q-10 4 -37 4q-108 0 -195 -144q-80 -133 -100 -306q-19 -175 41 -255q35 -46 93 -47q235 831 252 899q4 14 18 8q21 -8 15 -41q0 -2 -1 -5 q-2 -9 -8 -30.5t-17.5 -61t-20.5 -71.5q89 -6 93.5 -176.5t-83.5 -349t-224 -202.5q-11 -36 -25 -83t-16 -53q-4 -12 -15 -6q-14 9 -7 37zM320 -20q62 14 114 78t80 150t41 174.5t2 160t-43 96.5q-97 -336 -194 -659z" />
<glyph unicode="&#xd9;" horiz-adv-x="767" d="M161 318q-90 0 -117 113.5t30.5 227.5t170.5 114q87 0 126.5 -48.5t39.5 -124.5q0 -79 -56 -264.5t-56 -242.5q0 -58 39 -58q32 0 95.5 98t110.5 193t74 160q31 75 65 75q22 0 22 -23q-43 -102 -68.5 -246.5t-25.5 -255.5q0 -149 53 -149q28 0 57 59q5 10 17 6q6 -2 4 -6 q-3 -9 -11.5 -27.5t-30 -41.5t-43.5 -23q-104 0 -104 207q0 108 19 229h-10q-153 -290 -236 -290q-101 0 -101 120q0 48 29.5 145.5t59.5 201.5t30 167q0 51 -23.5 82.5t-74.5 31.5q-91 0 -136 -104t-23 -208t93 -104q-7 -14 -19 -14zM478 831q15 24 38 5q36 -34 72.5 -78 t30.5 -54q-8 -13 -49.5 17t-80.5 68q-24 21 -11 42z" />
<glyph unicode="&#xda;" horiz-adv-x="767" d="M161 318q-90 0 -117 113.5t30.5 227.5t170.5 114q87 0 126.5 -48.5t39.5 -124.5q0 -79 -56 -264.5t-56 -242.5q0 -58 39 -58q32 0 95.5 98t110.5 193t74 160q31 75 65 75q22 0 22 -23q-43 -102 -68.5 -246.5t-25.5 -255.5q0 -149 53 -149q28 0 57 59q5 10 17 6q6 -2 4 -6 q-3 -9 -11.5 -27.5t-30 -41.5t-43.5 -23q-104 0 -104 207q0 108 19 229h-10q-153 -290 -236 -290q-101 0 -101 120q0 48 29.5 145.5t59.5 201.5t30 167q0 51 -23.5 82.5t-74.5 31.5q-91 0 -136 -104t-23 -208t93 -104q-7 -14 -19 -14zM562 701q-12 5 14.5 48t58.5 79 q21 23 41 10q21 -10 5 -35q-30 -36 -69.5 -71.5t-49.5 -30.5z" />
<glyph unicode="&#xdb;" horiz-adv-x="767" d="M161 318q-90 0 -117 113.5t30.5 227.5t170.5 114q87 0 126.5 -48.5t39.5 -124.5q0 -79 -56 -264.5t-56 -242.5q0 -58 39 -58q32 0 95.5 98t110.5 193t74 160q31 75 65 75q22 0 22 -23q-43 -102 -68.5 -246.5t-25.5 -255.5q0 -149 53 -149q28 0 57 59q5 10 17 6q6 -2 4 -6 q-3 -9 -11.5 -27.5t-30 -41.5t-43.5 -23q-104 0 -104 207q0 108 19 229h-10q-153 -290 -236 -290q-101 0 -101 120q0 48 29.5 145.5t59.5 201.5t30 167q0 51 -23.5 82.5t-74.5 31.5q-91 0 -136 -104t-23 -208t93 -104q-7 -14 -19 -14zM454 741q96 80 144 118q9 7 17.5 7 t11.5 -7l60 -118h-28l-46 77l-130 -77h-29z" />
<glyph unicode="&#xdc;" horiz-adv-x="767" d="M161 318q-90 0 -117 113.5t30.5 227.5t170.5 114q87 0 126.5 -48.5t39.5 -124.5q0 -79 -56 -264.5t-56 -242.5q0 -58 39 -58q32 0 95.5 98t110.5 193t74 160q31 75 65 75q22 0 22 -23q-43 -102 -68.5 -246.5t-25.5 -255.5q0 -149 53 -149q28 0 57 59q5 10 17 6q6 -2 4 -6 q-3 -9 -11.5 -27.5t-30 -41.5t-43.5 -23q-104 0 -104 207q0 108 19 229h-10q-153 -290 -236 -290q-101 0 -101 120q0 48 29.5 145.5t59.5 201.5t30 167q0 51 -23.5 82.5t-74.5 31.5q-91 0 -136 -104t-23 -208t93 -104q-7 -14 -19 -14zM488 712q-17 0 -20 29t10.5 58.5 t37.5 29.5q21 0 21 -23q0 -11 -12.5 -34.5t-24.5 -41.5zM630 712q-17 0 -20 29t11 58.5t38 29.5q20 0 20 -23q0 -11 -12.5 -34.5t-24.5 -41.5z" />
<glyph unicode="&#xdd;" horiz-adv-x="747" d="M131 77q12 0 20 -6.5t10 -12.5l2 -7q-69 0 -108 -72.5t-18 -152.5q24 -92 113 -119q32 -10 71 -10q50 0 92.5 18.5t72.5 44t56.5 73.5t42.5 85.5t33 103.5t24.5 103t20.5 107q3 17 5 25.5t4.5 22t4.5 24.5h-7q-140 -272 -226 -272q-100 0 -100 120q0 54 50 228.5 t50 253.5q0 51 -23.5 82.5t-74.5 31.5q-91 0 -136 -104t-23 -208t93 -104q-7 -14 -19 -14q-90 0 -117 113.5t30.5 227.5t170.5 114q87 0 126.5 -48.5t39.5 -124.5q0 -79 -46.5 -248.5t-46.5 -226.5q0 -58 39 -58q33 0 93.5 94.5t103 182.5t66.5 147q28 70 63 70q22 0 22 -23 q-35 -85 -70 -285q-12 -69 -21 -113t-27 -111.5t-37 -111t-51 -94t-69.5 -80t-91 -49.5t-116.5 -20q-153 0 -215 104q-46 78 -20 171q23 84 87 115q27 13 57 13zM548 699q-12 5 15 48t58 78q20 23 41 11q10 -5 11 -16t-6 -20q-29 -35 -69 -71t-50 -30z" />
<glyph unicode="&#xde;" horiz-adv-x="503" d="M9 16q-1 43 39 263q-44 4 -66.5 23.5t-22 44t23 51t62.5 45.5l12 -26q-36 -15 -53 -39.5t-5 -46t54 -26.5q33 184 64 315q8 37 21 55.5t26 18.5q16 0 15 -18q-7 -35 -36 -174.5t-41 -196.5q12 1 36 5q15 48 26.5 81.5t32 86t38.5 89.5t44 78.5t52 67t59 43t68 17.5 q84 0 102 -73q19 -77 -42 -180q-73 -123 -209 -189q-71 -35 -150 -47q-10 -27 -23.5 -66.5t-22 -64t-19.5 -54.5t-19 -48.5t-16.5 -35.5t-15.5 -24.5t-13 -7.5q-21 0 -21 33zM79 182q0 -7 6 -7q11 0 43 105l-32 -2q-18 -90 -17 -96zM170 316q145 37 244 173q71 97 79 182 q1 66 -40 69q-41 0 -81.5 -35.5t-77 -102.5t-64.5 -132t-60 -154z" />
<glyph unicode="&#xdf;" horiz-adv-x="402" d="M-284 -36q10 0 17.5 -5t10.5 -10l2 -5q-44 0 -63 -46q-20 -49 8 -92t93 -43q67 0 114 51.5t72.5 133.5t44 181.5t36.5 199t42.5 181.5t69.5 133.5t110 51.5q57 0 87.5 -28.5t30.5 -73.5q0 -31 -19 -58.5t-45.5 -49t-53.5 -43t-46 -48t-19 -55.5t17.5 -55.5t38.5 -45.5 t38.5 -49t17.5 -64q0 -49 -36.5 -86.5t-89.5 -37.5q-64 0 -84 47.5t2.5 94.5t62.5 47q25 0 25 -21q-3 -1 -7 -2.5t-15 -8.5t-19 -16t-15 -25.5t-7 -35.5q0 -58 53 -58q40 0 59 32.5t19 78.5q0 38 -22 71t-44 64.5t-22 64.5q0 42 24.5 78.5t53.5 60t53.5 57t24.5 69.5 q0 32 -17 52.5t-46 20.5q-56 0 -91 -51.5t-51.5 -133.5t-28.5 -181.5t-30 -199.5t-48 -182t-90.5 -133.5t-149.5 -51.5q-107 0 -140 73q-24 54 4 106q24 46 68 46z" />
<glyph unicode="&#xe0;" horiz-adv-x="478" d="M84 0q-65 0 -79 85q-15 93 35 213q53 129 139 176q37 20 76 20q25 0 43.5 -14t23.5 -28l6 -13q-3 -17 -17 -17q-8 0 -13 3t-6 5l-1 3q-1 4 -4 9.5t-14 15t-25 9.5q-65 0 -120 -123q-50 -111 -58 -224q-5 -84 24 -84q19 0 53.5 42.5t72.5 106.5t63.5 110t43.5 81 q34 72 70 72q19 0 19 -23q-9 -19 -23 -54t-37 -139t-23 -204q0 -106 31 -106q12 0 22 10.5t14 21.5l4 10q3 11 14 11q4 0 6 -3t2 -6l-1 -2q-3 -9 -8 -21.5t-21.5 -33.5t-34.5 -21q-42 0 -64.5 55t-22.5 141q0 64 11 133h-10q-127 -217 -191 -217zM195 680q15 25 38 4 q37 -34 73 -77.5t30 -53.5q-8 -13 -49.5 17t-80.5 68q-23 21 -11 42z" />
<glyph unicode="&#xe1;" horiz-adv-x="478" d="M84 0q-65 0 -79 85q-15 93 35 213q53 129 139 176q37 20 76 20q25 0 43.5 -14t23.5 -28l6 -13q-3 -17 -17 -17q-8 0 -13 3t-6 5l-1 3q-1 4 -4 9.5t-14 15t-25 9.5q-65 0 -120 -123q-50 -111 -58 -224q-5 -84 24 -84q19 0 53.5 42.5t72.5 106.5t63.5 110t43.5 81 q34 72 70 72q19 0 19 -23q-9 -19 -23 -54t-37 -139t-23 -204q0 -106 31 -106q12 0 22 10.5t14 21.5l4 10q3 11 14 11q4 0 6 -3t2 -6l-1 -2q-3 -9 -8 -21.5t-21.5 -33.5t-34.5 -21q-42 0 -64.5 55t-22.5 141q0 64 11 133h-10q-127 -217 -191 -217zM254 552q-13 5 14.5 48.5 t58.5 77.5q19 23 41 11q19 -10 4 -36q-30 -36 -69 -71.5t-49 -29.5z" />
<glyph unicode="&#xe2;" horiz-adv-x="478" d="M84 0q-65 0 -79 85q-15 93 35 213q53 129 139 176q37 20 76 20q25 0 43.5 -14t23.5 -28l6 -13q-3 -17 -17 -17q-8 0 -13 3t-6 5l-1 3q-1 4 -4 9.5t-14 15t-25 9.5q-65 0 -120 -123q-50 -111 -58 -224q-5 -84 24 -84q19 0 53.5 42.5t72.5 106.5t63.5 110t43.5 81 q34 72 70 72q19 0 19 -23q-9 -19 -23 -54t-37 -139t-23 -204q0 -106 31 -106q12 0 22 10.5t14 21.5l4 10q3 11 14 11q4 0 6 -3t2 -6l-1 -2q-3 -9 -8 -21.5t-21.5 -33.5t-34.5 -21q-42 0 -64.5 55t-22.5 141q0 64 11 133h-10q-127 -217 -191 -217zM167 557q96 80 145 118 q20 16 29 0l60 -118h-29l-45 77l-130 -77h-30z" />
<glyph unicode="&#xe3;" horiz-adv-x="478" d="M84 0q-65 0 -79 85q-15 93 35 213q53 129 139 176q37 20 76 20q25 0 43.5 -14t23.5 -28l6 -13q-3 -17 -17 -17q-8 0 -13 3t-6 5l-1 3q-1 4 -4 9.5t-14 15t-25 9.5q-65 0 -120 -123q-50 -111 -58 -224q-5 -84 24 -84q19 0 53.5 42.5t72.5 106.5t63.5 110t43.5 81 q34 72 70 72q19 0 19 -23q-9 -19 -23 -54t-37 -139t-23 -204q0 -106 31 -106q12 0 22 10.5t14 21.5l4 10q3 11 14 11q4 0 6 -3t2 -6l-1 -2q-3 -9 -8 -21.5t-21.5 -33.5t-34.5 -21q-42 0 -64.5 55t-22.5 141q0 64 11 133h-10q-127 -217 -191 -217zM180 573q1 3 3.5 8.5 t11.5 19t19.5 23.5t28 18.5t37.5 8.5q18 0 46 -23.5t47 -23.5q12 0 23.5 9t16.5 18l5 9h31q-4 -9 -12 -22t-33 -34.5t-51 -21.5q-21 0 -50.5 26t-43.5 26q-12 0 -24 -10t-18 -20l-6 -11h-31z" />
<glyph unicode="&#xe4;" horiz-adv-x="478" d="M84 0q-65 0 -79 85q-15 93 35 213q53 129 139 176q37 20 76 20q25 0 43.5 -14t23.5 -28l6 -13q-3 -17 -17 -17q-8 0 -13 3t-6 5l-1 3q-1 4 -4 9.5t-14 15t-25 9.5q-65 0 -120 -123q-50 -111 -58 -224q-5 -84 24 -84q19 0 53.5 42.5t72.5 106.5t63.5 110t43.5 81 q34 72 70 72q19 0 19 -23q-9 -19 -23 -54t-37 -139t-23 -204q0 -106 31 -106q12 0 22 10.5t14 21.5l4 10q3 11 14 11q4 0 6 -3t2 -6l-1 -2q-3 -9 -8 -21.5t-21.5 -33.5t-34.5 -21q-42 0 -64.5 55t-22.5 141q0 64 11 133h-10q-127 -217 -191 -217zM233 559q-17 0 -20 29.5 t11 58.5t38 29q20 0 20 -23q0 -12 -12 -35.5t-24 -41.5zM376 559q-17 0 -20.5 29.5t10.5 58.5t38 29q21 0 21 -23q0 -12 -12.5 -35.5t-24.5 -41.5z" />
<glyph unicode="&#xe5;" horiz-adv-x="478" d="M84 0q-65 0 -79 85q-15 93 35 213q53 129 139 176q37 20 76 20q25 0 43.5 -14t23.5 -28l6 -13q-3 -17 -17 -17q-8 0 -13 3t-6 5l-1 3q-1 4 -4 9.5t-14 15t-25 9.5q-65 0 -120 -123q-50 -111 -58 -224q-5 -84 24 -84q19 0 53.5 42.5t72.5 106.5t63.5 110t43.5 81 q34 72 70 72q19 0 19 -23q-9 -19 -23 -54t-37 -139t-23 -204q0 -106 31 -106q12 0 22 10.5t14 21.5l4 10q3 11 14 11q4 0 6 -3t2 -6l-1 -2q-3 -9 -8 -21.5t-21.5 -33.5t-34.5 -21q-42 0 -64.5 55t-22.5 141q0 64 11 133h-10q-127 -217 -191 -217zM240 635q0 30 20.5 51 t50.5 21q32 0 52.5 -21t20.5 -51q0 -31 -20.5 -52t-52.5 -21q-30 0 -50.5 21.5t-20.5 51.5zM270 635q0 -17 11.5 -28.5t29.5 -11.5q17 0 29 11.5t12 28.5q0 18 -12 29.5t-29 11.5q-18 0 -29.5 -11.5t-11.5 -29.5z" />
<glyph unicode="&#xe6;" horiz-adv-x="648" d="M84 0q-65 0 -79 85q-15 93 35 213q53 129 139 176q37 20 76 20q25 0 43.5 -14t23.5 -28l6 -13q-3 -17 -17 -17q-8 0 -13 3t-6 5l-1 3q-1 4 -4 9.5t-14 15t-25 9.5q-65 0 -120 -123q-50 -111 -58 -224q-5 -84 24 -84q23 0 98.5 104t121.5 192q39 74 93 113.5t113 39.5 q62 0 74 -62q12 -63 -32 -134q-52 -83 -136 -92l-18 -1q-15 0 -25 5t-13 10l-2 5q71 0 130 82q48 66 48 121q0 41 -33 41q-66 0 -123 -104q-56 -102 -61 -213q-5 -115 57 -136q11 -4 25 -4q20 0 39 8.5t32 20.5t23 24t15 20l5 9q4 8 19 8q7 0 10 -2t2 -4v-2q-2 -5 -6.5 -13 t-19.5 -28t-31.5 -35.5t-43 -28t-53.5 -12.5q-86 0 -120 64.5t-19 159.5q-130 -192 -179 -192z" />
<glyph unicode="&#xe7;" horiz-adv-x="388" d="M43 -148q6 0 9.5 -3t4.5 -6l1 -3q-15 0 -16 -15q-2 -17 21 -22l14 -1q60 0 87 44q21 34 1 56q-10 12 -31 12q-15 0 -27.5 -3.5t-21.5 -8t-12 -5.5h-2q-12 6 -3.5 27.5t27.5 50.5q-40 13 -64 47.5t-28 80t3.5 97.5t31 102t54.5 90.5t73 65t87 24.5q33 0 51 -23 q27 87 69 87q16 0 16 -17q-8 -12 -20.5 -31.5t-33.5 -69.5t-21 -88q0 -13 -10 -13q-12 0 -15 16l-1 7q0 39 7 73q-6 31 -44 31q-72 0 -128.5 -113t-52 -226t81.5 -113q32 0 60.5 20t40.5 40l13 21q4 9 17 9q7 0 10 -2t3 -4v-3q-2 -5 -6.5 -12.5t-19 -27.5t-31 -35 t-42.5 -27.5t-53 -12.5q-10 0 -26 2l-28 -51q26 13 59 13q50 0 60 -38q9 -37 -28 -70q-38 -35 -101 -35q-52 0 -58 31q-4 21 13 30q4 2 9 2z" />
<glyph unicode="&#xe8;" horiz-adv-x="389" d="M109 216q71 0 130 82q48 66 48 121q0 41 -33 41q-66 0 -123 -104q-56 -102 -61 -213q-5 -115 57 -136q11 -4 25 -4q20 0 39 8.5t32 20.5t23 24t15 20l5 9q4 8 19 8q7 0 10 -2t3 -4l-1 -2q-2 -5 -6.5 -13t-19.5 -28t-31.5 -35.5t-43 -28t-53.5 -12.5q-106 0 -135 100 q-27 94 22 216q49 120 135 173q47 28 96 28q62 0 74 -62q12 -63 -32 -134q-52 -83 -136 -92q-9 -1 -18 -1q-15 0 -25 5t-12 10zM154 680q15 25 38 4q37 -34 73 -77.5t30 -53.5q-8 -13 -49.5 17t-80.5 68q-23 21 -11 42z" />
<glyph unicode="&#xe9;" horiz-adv-x="389" d="M109 216q71 0 130 82q48 66 48 121q0 41 -33 41q-66 0 -123 -104q-56 -102 -61 -213q-5 -115 57 -136q11 -4 25 -4q20 0 39 8.5t32 20.5t23 24t15 20l5 9q4 8 19 8q7 0 10 -2t3 -4l-1 -2q-2 -5 -6.5 -13t-19.5 -28t-31.5 -35.5t-43 -28t-53.5 -12.5q-106 0 -135 100 q-27 94 22 216q49 120 135 173q47 28 96 28q62 0 74 -62q12 -63 -32 -134q-52 -83 -136 -92q-9 -1 -18 -1q-15 0 -25 5t-12 10zM215 552q-12 5 15 48t58 78q20 23 41 11q20 -9 5 -36q-30 -36 -69.5 -71t-49.5 -30z" />
<glyph unicode="&#xea;" horiz-adv-x="389" d="M109 216q71 0 130 82q48 66 48 121q0 41 -33 41q-66 0 -123 -104q-56 -102 -61 -213q-5 -115 57 -136q11 -4 25 -4q20 0 39 8.5t32 20.5t23 24t15 20l5 9q4 8 19 8q7 0 10 -2t3 -4l-1 -2q-2 -5 -6.5 -13t-19.5 -28t-31.5 -35.5t-43 -28t-53.5 -12.5q-106 0 -135 100 q-27 94 22 216q49 120 135 173q47 28 96 28q62 0 74 -62q12 -63 -32 -134q-52 -83 -136 -92q-9 -1 -18 -1q-15 0 -25 5t-12 10zM123 557q96 80 144 118q22 16 29 0l60 -118h-28l-46 77l-130 -77h-29z" />
<glyph unicode="&#xeb;" horiz-adv-x="389" d="M109 216q71 0 130 82q48 66 48 121q0 41 -33 41q-66 0 -123 -104q-56 -102 -61 -213q-5 -115 57 -136q11 -4 25 -4q20 0 39 8.5t32 20.5t23 24t15 20l5 9q4 8 19 8q7 0 10 -2t3 -4l-1 -2q-2 -5 -6.5 -13t-19.5 -28t-31.5 -35.5t-43 -28t-53.5 -12.5q-106 0 -135 100 q-27 94 22 216q49 120 135 173q47 28 96 28q62 0 74 -62q12 -63 -32 -134q-52 -83 -136 -92q-9 -1 -18 -1q-15 0 -25 5t-12 10zM197 559q-17 0 -20 29.5t10.5 58.5t37.5 29q21 0 21 -23q0 -12 -12 -35.5t-24 -41.5zM339 559q-17 0 -20 29.5t11 58.5t38 29q20 0 20 -23 q0 -12 -12 -35.5t-24 -41.5z" />
<glyph unicode="&#xec;" horiz-adv-x="218" d="M26 85q0 148 30.5 264t77.5 116q23 0 23 -25q-10 -26 -25 -69t-39.5 -155.5t-24.5 -200.5q0 -14 -15 -14q-27 0 -27 84zM38 680q15 24 39 4q37 -35 72.5 -78t30.5 -53q-9 -13 -50.5 17t-80.5 68q-23 21 -11 42z" />
<glyph unicode="&#xed;" horiz-adv-x="218" d="M26 85q0 148 30.5 264t77.5 116q23 0 23 -25q-10 -26 -25 -69t-39.5 -155.5t-24.5 -200.5q0 -14 -15 -14q-27 0 -27 84zM140 552q-13 5 14.5 48.5t58.5 77.5q19 23 41 11q19 -10 4 -36q-30 -36 -69 -71.5t-49 -29.5z" />
<glyph unicode="&#xee;" horiz-adv-x="218" d="M20 557q96 80 144 118q8 7 17 7t12 -7l60 -118h-29l-45 77l-130 -77h-29zM26 85q0 148 30.5 264t77.5 116q23 0 23 -25q-10 -26 -25 -69t-39.5 -155.5t-24.5 -200.5q0 -14 -15 -14q-27 0 -27 84z" />
<glyph unicode="&#xef;" horiz-adv-x="218" d="M26 85q0 148 30.5 264t77.5 116q23 0 23 -25q-10 -26 -25 -69t-39.5 -155.5t-24.5 -200.5q0 -14 -15 -14q-27 0 -27 84zM85 559q-17 0 -20.5 29.5t10.5 58.5t38 29q21 0 21 -23q0 -12 -12 -35.5t-24 -41.5zM227 559q-17 0 -20 29.5t10.5 58.5t37.5 29q21 0 21 -23 q0 -12 -12 -35.5t-24 -41.5z" />
<glyph unicode="&#xf0;" horiz-adv-x="528" d="M156 -26q-96 0 -133 93q-33 85 -0.5 189t108.5 141q32 16 68 16q53 0 83 -35t30.5 -83.5t-13.5 -100.5q-5 -16 -18 -19q-8 -2 -8 5q0 2 1 6q13 46 14.5 90t-20 76t-60.5 32q-69 0 -111.5 -96.5t-25.5 -193t94 -96.5q47 0 88 41.5t67 107t40 140t10.5 147t-24.5 121.5 l-57 -30q-11 -7 -12 1q-1 12 33 32l2 1q11 6 24 15q-30 56 -88 56l-8 29q80 0 133 -64q9 5 37 22t42 25t15 -2q1 -16 -38 -38l-2 -1q-11 -7 -41 -23q45 -67 52 -171t-20 -199.5t-97 -164.5t-165 -69z" />
<glyph unicode="&#xf1;" horiz-adv-x="448" d="M12 96q0 149 30.5 270t73.5 121q18 0 18 -22q-46 -149 -66 -303h9q23 57 47.5 107t57.5 101t71 81t75 30q51 0 51 -49q-7 -23 -18 -60.5t-29.5 -134.5t-18.5 -170q0 -106 31 -106q12 0 23 9.5t15 9.5t5.5 -2.5t0.5 -5.5v-2q-2 -5 -6.5 -12t-18 -19t-27.5 -12 q-38 0 -59.5 54.5t-21.5 141.5q0 138 43 303q4 13 -8 13q-8 0 -18 -8q-48 -42 -101 -139t-83 -173.5t-30 -89.5q0 -12 -14 -12q-32 0 -32 79zM117 573q1 3 3.5 8.5t11.5 19t19.5 23.5t28 18.5t37.5 8.5q18 0 45.5 -23.5t47.5 -23.5q12 0 23.5 9t16.5 18l5 9h30 q-4 -9 -12 -22t-32.5 -34.5t-50.5 -21.5q-21 0 -50.5 26t-43.5 26q-13 0 -25 -10t-17 -20l-6 -11h-31z" />
<glyph unicode="&#xf2;" horiz-adv-x="413" d="M122 -9q-104 0 -120 119.5t45 239.5t145 120q12 0 20 -6t10 -12l1 -6q-63 0 -110.5 -104.5t-44 -209.5t64.5 -105q37 0 77 56.5t66.5 148.5t26.5 185v12q-31 20 -51 50t-20 47q0 11 12.5 23.5t25.5 12.5q19 0 37 -34t25 -77q31 -21 60 -21q9 0 17 2t11 4l4 2q0 -4 -1 -10 t-10 -16t-25 -10q-26 0 -53 10q-1 -96 -29 -193t-78 -162.5t-106 -65.5zM134 733q13 24 38 5q36 -34 72.5 -78t30.5 -54q-8 -13 -51 18t-80 68q-24 21 -10 41z" />
<glyph unicode="&#xf3;" horiz-adv-x="413" d="M122 -9q-104 0 -120 119.5t45 239.5t145 120q12 0 20 -6t10 -12l1 -6q-63 0 -110.5 -104.5t-44 -209.5t64.5 -105q37 0 77 56.5t66.5 148.5t26.5 185v12q-31 20 -51 50t-20 47q0 11 12.5 23.5t25.5 12.5q19 0 37 -34t25 -77q31 -21 60 -21q9 0 17 2t11 4l4 2q0 -4 -1 -10 t-10 -16t-25 -10q-26 0 -53 10q-1 -96 -29 -193t-78 -162.5t-106 -65.5zM199 591q-12 5 15 48t58 78q20 23 41 11q20 -9 5 -36q-30 -36 -69.5 -71t-49.5 -30z" />
<glyph unicode="&#xf4;" horiz-adv-x="413" d="M117 585q96 80 144 117q8 8 17 8t12 -8l60 -117h-29l-45 76l-130 -76h-29zM122 -9q-104 0 -120 119.5t45 239.5t145 120q12 0 20 -6t10 -12l1 -6q-63 0 -110.5 -104.5t-44 -209.5t64.5 -105q37 0 77 56.5t66.5 148.5t26.5 185v12q-31 20 -51 50t-20 47q0 11 12.5 23.5 t25.5 12.5q19 0 37 -34t25 -77q31 -21 60 -21q9 0 17 2t11 4l4 2q0 -4 -1 -10t-10 -16t-25 -10q-26 0 -53 10q-1 -96 -29 -193t-78 -162.5t-106 -65.5z" />
<glyph unicode="&#xf5;" horiz-adv-x="413" d="M110 619q1 3 3.5 8.5t12 19t20 24t28 19t37.5 8.5q18 0 45.5 -23.5t46.5 -23.5q13 0 24.5 8.5t16.5 17.5l5 9h30q-4 -9 -12 -22t-32.5 -34.5t-50.5 -21.5q-21 0 -50.5 26t-43.5 26q-13 0 -25 -10t-17 -20l-6 -11h-32zM122 -9q-104 0 -120 119.5t45 239.5t145 120 q12 0 20 -6t10 -12l1 -6q-63 0 -110.5 -104.5t-44 -209.5t64.5 -105q37 0 77 56.5t66.5 148.5t26.5 185v12q-31 20 -51 50t-20 47q0 11 12.5 23.5t25.5 12.5q19 0 37 -34t25 -77q31 -21 60 -21q9 0 17 2t11 4l4 2q0 -4 -1 -10t-10 -16t-25 -10q-26 0 -53 10q-1 -96 -29 -193 t-78 -162.5t-106 -65.5z" />
<glyph unicode="&#xf6;" horiz-adv-x="413" d="M122 -9q-104 0 -120 119.5t45 239.5t145 120q12 0 20 -6t10 -12l1 -6q-63 0 -110.5 -104.5t-44 -209.5t64.5 -105q37 0 77 56.5t66.5 148.5t26.5 185v12q-31 20 -51 50t-20 47q0 11 12.5 23.5t25.5 12.5q19 0 37 -34t25 -77q31 -21 60 -21q9 0 17 2t11 4l4 2q0 -4 -1 -10 t-10 -16t-25 -10q-26 0 -53 10q-1 -96 -29 -193t-78 -162.5t-106 -65.5zM169 608q-17 0 -20 29t11 58.5t38 29.5q20 0 20 -23q0 -12 -12 -35.5t-24 -40.5zM312 608q-17 0 -20.5 29t10.5 58.5t38 29.5q20 0 20 -23q0 -12 -12 -35.5t-24 -40.5z" />
<glyph unicode="&#xf7;" horiz-adv-x="560" d="M75 331q4 -6 21 -6h362q10 0 9 -11q-4 -12 -21 -13q-30 0 -174 -4t-176 -4q-29 0 -33 20q1 15 12 18zM233 117q-17 0 -20 29.5t11 59t38 29.5q20 0 20 -23q0 -12 -12 -35.5t-24 -41.5zM257 383q-17 0 -20 29t11 58.5t38 29.5q20 0 20 -23q0 -12 -12 -35.5t-24 -41.5z" />
<glyph unicode="&#xf8;" horiz-adv-x="399" d="M106 -102q12 92 13 95q-99 7 -115.5 125.5t43.5 238t149 130.5l27 180q2 16 14 11q20 -9 17 -54q-1 -3 -1 -7q-6 -39 -22 -135.5t-41 -240.5t-37 -215q57 17 95.5 115t33.5 189.5t-56 91.5q1 3 2.5 8t11 13.5t23.5 8.5q64 0 66.5 -108t-51.5 -222t-130 -128 q-4 -26 -21 -137q-2 -15 -11 -10q-16 8 -10 51zM125 24q5 37 65 430q-39 -24 -70 -92.5t-43 -140.5t-0.5 -131t48.5 -66z" />
<glyph unicode="&#xf9;" horiz-adv-x="475" d="M63 90q0 -51 24 -51q17 0 50.5 41t68.5 100t65.5 116t48.5 97q40 92 82 92q20 0 20 -22q-4 -8 -11 -23t-24.5 -63t-31 -97t-24.5 -119.5t-11 -137.5q0 -98 30 -98q12 0 22.5 10.5t15.5 21.5l4 11q1 9 12 9q5 0 7.5 -2t2.5 -5l-1 -2q-3 -9 -8.5 -22t-23 -34.5t-35.5 -21.5 q-40 0 -62 49.5t-22.5 121.5t10.5 154h-9q-121 -211 -186 -211q-77 0 -77 123q0 112 55 241q45 106 85 116q4 1 7 1q18 0 18 -22q-11 -29 -28 -75t-45.5 -146t-28.5 -152zM166 680q15 25 38 4q37 -34 73 -77.5t31 -53.5q-9 -13 -50.5 17t-80.5 68q-23 21 -11 42z" />
<glyph unicode="&#xfa;" horiz-adv-x="475" d="M63 90q0 -51 24 -51q17 0 50.5 41t68.5 100t65.5 116t48.5 97q40 92 82 92q20 0 20 -22q-4 -8 -11 -23t-24.5 -63t-31 -97t-24.5 -119.5t-11 -137.5q0 -98 30 -98q12 0 22.5 10.5t15.5 21.5l4 11q1 9 12 9q5 0 7.5 -2t2.5 -5l-1 -2q-3 -9 -8.5 -22t-23 -34.5t-35.5 -21.5 q-40 0 -62 49.5t-22.5 121.5t10.5 154h-9q-121 -211 -186 -211q-77 0 -77 123q0 112 55 241q45 106 85 116q4 1 7 1q18 0 18 -22q-11 -29 -28 -75t-45.5 -146t-28.5 -152zM263 552q-12 5 15 48t58 78q20 23 41 11q20 -9 5 -36q-30 -36 -69.5 -71t-49.5 -30z" />
<glyph unicode="&#xfb;" horiz-adv-x="475" d="M63 90q0 -51 24 -51q17 0 50.5 41t68.5 100t65.5 116t48.5 97q40 92 82 92q20 0 20 -22q-4 -8 -11 -23t-24.5 -63t-31 -97t-24.5 -119.5t-11 -137.5q0 -98 30 -98q12 0 22.5 10.5t15.5 21.5l4 11q1 9 12 9q5 0 7.5 -2t2.5 -5l-1 -2q-3 -9 -8.5 -22t-23 -34.5t-35.5 -21.5 q-40 0 -62 49.5t-22.5 121.5t10.5 154h-9q-121 -211 -186 -211q-77 0 -77 123q0 112 55 241q45 106 85 116q4 1 7 1q18 0 18 -22q-11 -29 -28 -75t-45.5 -146t-28.5 -152zM166 557q96 80 144 118q8 7 17 7t12 -7l60 -118h-29l-45 77l-130 -77h-29z" />
<glyph unicode="&#xfc;" horiz-adv-x="475" d="M63 90q0 -51 24 -51q17 0 50.5 41t68.5 100t65.5 116t48.5 97q40 92 82 92q20 0 20 -22q-4 -8 -11 -23t-24.5 -63t-31 -97t-24.5 -119.5t-11 -137.5q0 -98 30 -98q12 0 22.5 10.5t15.5 21.5l4 11q1 9 12 9q5 0 7.5 -2t2.5 -5l-1 -2q-3 -9 -8.5 -22t-23 -34.5t-35.5 -21.5 q-40 0 -62 49.5t-22.5 121.5t10.5 154h-9q-121 -211 -186 -211q-77 0 -77 123q0 112 55 241q45 106 85 116q4 1 7 1q18 0 18 -22q-11 -29 -28 -75t-45.5 -146t-28.5 -152zM223 559q-17 0 -20.5 29.5t10.5 58.5t38 29q20 0 20 -23q0 -12 -12 -35.5t-24 -41.5zM365 559 q-17 0 -20 29.5t10.5 58.5t37.5 29q21 0 21 -23q0 -12 -12 -35.5t-24 -41.5z" />
<glyph unicode="&#xfd;" horiz-adv-x="465" d="M-82 -278q-5 10 9 13q11 1 16 -7q18 -41 84 -41q45 0 80.5 22t60 63t40.5 85.5t28 101.5q-181 -4 -278 -138q-6 -9 -19 -3q-7 4 -4 10q43 65 120 110.5t187 49.5q6 28 14.5 79t10.5 64q6 41 19 104h-9q-130 -231 -198 -231q-77 0 -76 123q0 112 55 241q45 107 86 116l6 1 q17 0 17 -22q-11 -27 -28 -70.5t-45 -143t-28 -159.5q0 -51 24 -51q28 0 90.5 97.5t102 175t55.5 112.5q29 61 62 61q21 0 21 -23q-6 -11 -15.5 -33.5t-33.5 -108t-42 -190.5q-16 -90 -28 -145q76 -13 88 -66q8 -35 -14 -55q-8 -8 -17 -8q1 3 1.5 8.5t-0.5 19.5t-6.5 26 t-20.5 25t-39 19q-77 -290 -267 -290q-82 0 -109 58zM258 552q-13 5 14.5 48.5t58.5 77.5q20 23 41 11q19 -10 4 -36q-28 -35 -68 -71t-50 -30z" />
<glyph unicode="&#xfe;" horiz-adv-x="481" d="M-20 -442q-34 6 -9.5 217.5t67.5 450.5t77 379q10 44 31 67t40 23q9 0 14 -6.5t2 -16.5q-57 -189 -106.5 -435.5t-72.5 -401.5t-18 -155q14 0 31 60.5t34.5 150.5t44 196t56.5 196t75.5 150.5t97.5 60.5q35 0 54.5 -22t19.5 -55q0 -44 -30.5 -171.5t-30.5 -177.5 q0 -74 27 -74q0 -3 -1.5 -6.5t-10 -10t-22.5 -6.5q-65 0 -65 102q0 64 34 192.5t34 166.5q0 33 -28 33q-46 0 -89 -93.5t-75.5 -227t-61.5 -266.5t-60 -226.5t-59 -93.5z" />
<glyph unicode="&#xff;" horiz-adv-x="465" d="M-82 -278q-5 10 9 13q11 1 16 -7q18 -41 84 -41q45 0 80.5 22t60 63t40.5 85.5t28 101.5q-181 -4 -278 -138q-6 -9 -19 -3q-7 4 -4 10q43 65 120 110.5t187 49.5q6 28 14.5 79t10.5 64q6 41 19 104h-9q-130 -231 -198 -231q-77 0 -76 123q0 112 55 241q45 107 86 116l6 1 q17 0 17 -22q-11 -27 -28 -70.5t-45 -143t-28 -159.5q0 -51 24 -51q28 0 90.5 97.5t102 175t55.5 112.5q29 61 62 61q21 0 21 -23q-6 -11 -15.5 -33.5t-33.5 -108t-42 -190.5q-16 -90 -28 -145q76 -13 88 -66q8 -35 -14 -55q-8 -8 -17 -8q1 3 1.5 8.5t-0.5 19.5t-6.5 26 t-20.5 25t-39 19q-77 -290 -267 -290q-82 0 -109 58zM215 559q-17 0 -20 29.5t11 58.5t38 29q20 0 20 -23q0 -12 -12 -35.5t-24 -41.5zM358 559q-17 0 -20 29.5t10.5 58.5t37.5 29q21 0 21 -23q0 -12 -12.5 -35.5t-24.5 -41.5z" />
<glyph unicode="&#x152;" horiz-adv-x="1121" d="M274 -58q-135 0 -183 137q-45 128 -1 311q45 181 147 290q88 94 189 94q28 0 43 -12.5t15 -25.5l1 -12q-10 4 -37 4q-108 0 -194 -143q-81 -133 -100 -306q-20 -176 40 -256q36 -47 94 -47q121 0 200 169t75.5 337.5t-82.5 168.5q0 1 0.5 2.5t3 5.5t6.5 7.5t11.5 6 t17.5 2.5q66 0 87.5 -102.5t-7.5 -231.5q95 105 231 135q-80 29 -80 102q0 68 66 128q76 68 184 68q19 0 28 -14t9 -28l-1 -13q-8 4 -35 4q-90 0 -153 -64q-51 -53 -41 -105q11 -60 103 -66q10 -1 20 -1q11 0 18.5 -6.5t9.5 -12.5l2 -7q-173 0 -290 -133q-90 -102 -106 -230 q-15 -120 47 -179q39 -38 102 -38q142 0 218 120q54 86 49 182q-4 78 -47 93q-7 3 -16 3q13 23 48 23q49 0 64 -65q18 -81 -25 -184q-54 -126 -163 -177q-60 -28 -129 -28q-113 0 -170.5 62t-56.5 159q-93 -127 -212 -127zM1037 558q0 102 23 164.5t61 62.5q9 0 16.5 -7.5 t7.5 -18.5q-3 -3 -8 -8.5t-17.5 -25t-22 -41.5t-17.5 -59t-8 -77q0 -4 -9 -4.5t-17.5 3.5t-8.5 11z" />
<glyph unicode="&#x153;" horiz-adv-x="643" d="M122 -9q-104 0 -120 124t49 248t157 124q12 0 20 -6t10 -12l1 -6q-69 0 -120.5 -109t-49 -218t63.5 -109q51 0 98 98q48 100 52 201q3 94 -43 94q0 3 1.5 8t10.5 13t22 8q52 0 57 -80q80 116 184 116q62 0 74 -62q12 -63 -32 -134q-52 -83 -136 -92l-18 -1q-15 0 -24.5 5 t-12.5 10l-2 5q71 0 130 82q47 66 47 121q0 41 -33 41q-71 0 -129.5 -114t-54.5 -228.5t83 -114.5q20 0 39 8.5t32 20.5t23 24t15 20l5 9q3 8 18 8q7 0 10 -2t3 -4v-2q-2 -5 -6.5 -13t-19.5 -28t-31.5 -35.5t-43 -28t-53.5 -12.5q-63 0 -98 35t-44 94q-63 -106 -134 -106z " />
<glyph unicode="&#x178;" horiz-adv-x="747" d="M131 77q12 0 20 -6.5t10 -12.5l2 -7q-69 0 -108 -72.5t-18 -152.5q24 -92 113 -119q32 -10 71 -10q50 0 92.5 18.5t72.5 44t56.5 73.5t42.5 85.5t33 103.5t24.5 103t20.5 107q3 17 5 25.5t4.5 22t4.5 24.5h-7q-140 -272 -226 -272q-100 0 -100 120q0 54 50 228.5 t50 253.5q0 51 -23.5 82.5t-74.5 31.5q-91 0 -136 -104t-23 -208t93 -104q-7 -14 -19 -14q-90 0 -117 113.5t30.5 227.5t170.5 114q87 0 126.5 -48.5t39.5 -124.5q0 -79 -46.5 -248.5t-46.5 -226.5q0 -58 39 -58q33 0 93.5 94.5t103 182.5t66.5 147q28 70 63 70q22 0 22 -23 q-35 -85 -70 -285q-12 -69 -21 -113t-27 -111.5t-37 -111t-51 -94t-69.5 -80t-91 -49.5t-116.5 -20q-153 0 -215 104q-46 78 -20 171q23 84 87 115q27 13 57 13zM481 643q-21 0 -20 40q1 48 27 69q10 8 22 8q20 0 20 -23q0 -5 -2.5 -13t-7 -17t-9.5 -18t-10.5 -17t-10 -14.5 t-6.5 -10.5zM624 643q-17 0 -20 29.5t10.5 58.5t37.5 29q21 0 21 -23q0 -5 -2.5 -13t-7 -17t-9.5 -18t-10.5 -17t-10 -14.5t-6.5 -10.5z" />
<glyph unicode="&#x2c6;" horiz-adv-x="457" d="M149 557q96 80 144 118q8 7 17 7t12 -7l60 -118h-29l-45 77l-130 -77h-29z" />
<glyph unicode="&#x2dc;" horiz-adv-x="467" d="M136 573q1 3 3.5 8.5t11.5 19t19.5 23.5t28.5 18.5t38 8.5q18 0 45.5 -23.5t46.5 -23.5q13 0 24.5 9t16.5 18l5 9h30q-4 -9 -12 -22t-32.5 -34.5t-50.5 -21.5q-21 0 -50.5 26t-44.5 26q-12 0 -24 -10t-18 -20l-6 -11h-31z" />
<glyph unicode="&#x2000;" horiz-adv-x="506" />
<glyph unicode="&#x2001;" horiz-adv-x="1013" />
<glyph unicode="&#x2002;" horiz-adv-x="506" />
<glyph unicode="&#x2003;" horiz-adv-x="1013" />
<glyph unicode="&#x2004;" horiz-adv-x="337" />
<glyph unicode="&#x2005;" horiz-adv-x="253" />
<glyph unicode="&#x2006;" horiz-adv-x="168" />
<glyph unicode="&#x2007;" horiz-adv-x="168" />
<glyph unicode="&#x2008;" horiz-adv-x="126" />
<glyph unicode="&#x2009;" horiz-adv-x="202" />
<glyph unicode="&#x200a;" horiz-adv-x="56" />
<glyph unicode="&#x2010;" horiz-adv-x="578" d="M75 331q4 -6 21 -6h362q10 0 9 -11q-4 -12 -21 -13q-30 0 -174 -4t-176 -4q-29 0 -33 20q1 15 12 18z" />
<glyph unicode="&#x2011;" horiz-adv-x="578" d="M75 331q4 -6 21 -6h362q10 0 9 -11q-4 -12 -21 -13q-30 0 -174 -4t-176 -4q-29 0 -33 20q1 15 12 18z" />
<glyph unicode="&#x2012;" horiz-adv-x="578" d="M75 331q4 -6 21 -6h362q10 0 9 -11q-4 -12 -21 -13q-30 0 -174 -4t-176 -4q-29 0 -33 20q1 15 12 18z" />
<glyph unicode="&#x2013;" horiz-adv-x="562" d="M76 247q-13 0 -10 13q12 21 44 24q41 0 167.5 -4t187.5 -4q10 0 9 -9q-6 -17 -37 -18q-52 0 -184.5 -1t-176.5 -1z" />
<glyph unicode="&#x2014;" horiz-adv-x="750" d="M76 247q-13 0 -10 13q12 21 44 24q40 0 238 -4t260 -4q11 0 8 -10q-4 -17 -37 -17q-52 0 -255.5 -1t-247.5 -1z" />
<glyph unicode="&#x2018;" horiz-adv-x="141" d="M28 568q-32 0 -28 46q5 49 37 82q18 19 38 19q7 0 10.5 -3t4.5 -6v-3q-17 0 -27 -33.5t-10 -70.5q0 -31 -25 -31z" />
<glyph unicode="&#x2019;" horiz-adv-x="226" d="M135 579q17 0 27 34t10 71q0 31 26 31q32 0 27 -46q-5 -49 -37 -82q-18 -19 -38 -19q-7 0 -10.5 3t-3.5 5z" />
<glyph unicode="&#x201a;" horiz-adv-x="204" d="M28 -23q17 0 27 33.5t10 70.5q0 31 26 31q32 0 27 -46q-5 -50 -37 -83q-18 -18 -37 -18q-7 0 -11 3t-5 6v3z" />
<glyph unicode="&#x201c;" horiz-adv-x="291" d="M28 568q-32 0 -28 46q5 49 37 82q18 19 38 19q7 0 10.5 -3t4.5 -6v-3q-17 0 -27 -33.5t-10 -70.5q0 -31 -25 -31zM156 568q-32 0 -28 46q5 49 37 82q19 18 38 19q7 0 10.5 -3t4.5 -6v-3q-17 0 -26.5 -33.5t-9.5 -70.5q0 -31 -26 -31z" />
<glyph unicode="&#x201d;" horiz-adv-x="320" d="M96 579q17 0 27 34t10 71q0 31 25 31q32 0 28 -46q-5 -49 -37 -82q-19 -18 -38 -19q-7 0 -10.5 3t-4.5 5v3zM224 579q17 0 27 34t10 71q0 31 26 31q32 0 27 -46q-5 -49 -37 -82q-18 -19 -38 -19q-7 0 -10.5 3t-4.5 5v3z" />
<glyph unicode="&#x201e;" horiz-adv-x="318" d="M28 -23q17 0 27 33.5t10 70.5q0 31 26 31q32 0 27 -46q-5 -50 -37 -83q-18 -18 -37 -18q-7 0 -11 3t-5 6v3zM135 -23q17 0 27 33.5t10 70.5q0 31 26 31q32 0 27 -46q-5 -49 -37 -82q-18 -19 -38 -19q-7 0 -10.5 3t-3.5 6z" />
<glyph unicode="&#x2022;" horiz-adv-x="335" d="M84 379q0 28 19 46.5t46 18.5t46 -18.5t19 -46.5q0 -26 -19 -45.5t-46 -19.5t-46 19.5t-19 45.5z" />
<glyph unicode="&#x2026;" horiz-adv-x="676" d="M69 -7q-17 0 -20 29t11 58.5t38 29.5q20 0 20 -23q0 -12 -12 -35.5t-24 -41.5zM295 -7q-17 0 -20.5 29t10.5 58.5t38 29.5q21 0 21 -23q0 -12 -12 -35.5t-24 -41.5zM520 -7q-17 0 -20 29t10.5 58.5t37.5 29.5q21 0 21 -23q0 -12 -12.5 -35.5t-24.5 -41.5z" />
<glyph unicode="&#x202f;" horiz-adv-x="202" />
<glyph unicode="&#x2039;" horiz-adv-x="367" d="M38 263q-8 12 6 21l228 145v-32l-179 -137l113 -165v-34q-129 148 -168 202z" />
<glyph unicode="&#x203a;" horiz-adv-x="413" d="M68 61v32l179 137l-113 164v35q129 -149 168 -203q7 -11 -6 -20z" />
<glyph unicode="&#x205f;" horiz-adv-x="253" />
<glyph unicode="&#x20ac;" horiz-adv-x="595" d="M15 273q5 -6 21 -6h81q7 57 26 118q-37 -1 -88 -1q-30 0 -33 22q-1 16 12 17q4 -6 21 -6h100q40 104 109.5 170.5t154.5 66.5q54 0 80 -31t26 -64q0 -25 -21 -33q-18 -3 -21 14q0 19 -4.5 36.5t-23 34.5t-49.5 17q-56 0 -103 -59t-78 -152h184q10 0 8 -12q-3 -13 -21 -13 q-34 0 -180 -4q-14 -53 -25 -121h199q9 0 8 -11q-2 -13 -21 -13q-1 0 -188 -5q-7 -92 14 -151t71 -59q81 0 143 101q11 17 29 13q14 -4 7 -14q-81 -129 -180 -129q-84 0 -123.5 67t-34.5 170q-33 -1 -79 -1q-29 0 -33 20q1 15 12 18z" />
<glyph unicode="&#x2122;" horiz-adv-x="611" d="M208 524q21 0 35.5 25.5t20 58t14.5 67.5t19 49h-1q-66 0 -78 -38q-6 -22 7 -29q2 -1 4 -1q0 -8 -11 -8q-15 0 -16 21q-2 34 34 53q24 12 59 12q32 0 54 14l22 13q11 0 6 -10q-12 -20 -57 -27q-10 -5 -17.5 -40t-13 -73t-25.5 -69t-52 -31q-30 0 -38.5 27.5t4.5 54.5 t36 27q7 0 10.5 -2.5t3.5 -5.5v-2q-30 0 -42 -34q-12 -33 7 -47q7 -5 15 -5zM320 534q6 18 12.5 41.5t13.5 55.5t5.5 53.5t-13.5 21.5l6 10q31 0 24 -74q43 79 68 79q21 0 21 -31q0 -10 -7 -43q47 89 77 89q13 0 13 -12q-8 -20 -17.5 -54t-17.5 -71t-6 -63.5t16 -26.5 q11 0 17 11q2 2 6.5 2t4.5 -2q-12 -24 -34 -24q-64 0 8 222q1 2 0 3q-2 2 -5 -2q-43 -42 -76 -130q-17 -47 -27 -47q-5 0 -5 5q32 104 32 146q0 14 -5 14q-13 0 -37 -43.5t-42 -97.5q-13 -44 -28 -44q-4 0 -4.5 1t0 5t0.5 6z" />
<glyph unicode="&#xe000;" horiz-adv-x="485" d="M0 0v485h485v-485h-485z" />
</font>
</defs>
</svg>
