<?xml version="1.0" standalone="no"?>
<!DOCTYPE svg PUBLIC "-//W3C//DTD SVG 1.1//EN" "http://www.w3.org/Graphics/SVG/1.1/DTD/svg11.dtd" >
<svg xmlns="http://www.w3.org/2000/svg">
<metadata></metadata>
<defs>
<font id="kreonlight" horiz-adv-x="448" >
<font-face units-per-em="1000" ascent="800" descent="-200" />
<missing-glyph horiz-adv-x="240" />
<glyph horiz-adv-x="1000" />
<glyph horiz-adv-x="1000" />
<glyph unicode="&#xd;" horiz-adv-x="157" />
<glyph unicode=" "  horiz-adv-x="240" />
<glyph unicode="&#x09;" horiz-adv-x="240" />
<glyph unicode="&#xa0;" horiz-adv-x="240" />
<glyph unicode="!" horiz-adv-x="253" d="M95 228l-18 451l82 12l21 -38l-27 -425h-58zM87 12q-15 15 -15 36.5t15 37t36.5 15.5t37 -15.5t15.5 -37t-15.5 -36.5t-37 -15t-36.5 15z" />
<glyph unicode="&#x22;" horiz-adv-x="284" d="M60 500l-17 189l75 5l9 -22l-22 -171zM175 501l-17 188l75 5l10 -22l-22 -171h-46z" />
<glyph unicode="#" horiz-adv-x="593" d="M37 251l-7 40l7 12h136l37 120h-118l-7 40l7 13h135l61 194h51l8 -14l-57 -180h89l61 194h49l8 -14l-56 -180h113q6 0 6 -7v-46h-136l-37 -120h122q6 0 6 -7v-45h-144l-63 -203h-49l-9 13l59 190h-90l-64 -203h-49l-9 13l59 190h-119zM235 303h90l38 120h-90z" />
<glyph unicode="$" horiz-adv-x="474" d="M214 -108v104q-93 2 -158 33l-11 154h58l27 -99q38 -18 84 -20v270q-84 38 -112.5 63.5t-42.5 54t-14 66t13.5 66.5t36.5 50q46 44 119 54v82h58v-80q56 -3 130 -31l13 -154h-55l-42 106q-23 9 -46 12v-237l15 -6q122 -57 143 -140q7 -25 7 -57.5t-13 -64.5t-35 -56 q-43 -47 -117 -62v-108h-58zM338 107q28 27 28 69.5t-17.5 72t-68.5 55.5q-6 2 -8 4v-238q38 10 66 37zM124 565q-8 -16 -8 -38t8 -40t22 -31q24 -25 68 -45v211q-67 -11 -90 -57z" />
<glyph unicode="%" horiz-adv-x="636" d="M124 0h-47l-3 13l442 679h43l-1 -15zM406 171v-4q0 -76 34 -107q13 -12 33.5 -12t34 12.5t20.5 31.5q14 34 14 79q0 77 -34 109q-14 12 -35 12q-54 0 -63 -83q-3 -21 -4 -38zM348 171v6q0 66 29 112q34 55 96 55q65 0 99 -57q27 -47 27 -116q0 -112 -67 -159 q-24 -16 -60 -16t-59.5 16.5t-37.5 42.5q-25 46 -27 116zM96 518v-4q0 -76 34 -107q13 -12 33.5 -12t34 12.5t20.5 30.5q14 34 14 80q0 77 -34 108q-14 12 -35 12q-37 0 -54 -43q-10 -26 -13 -77zM38 518v6q0 64 29 112q34 55 96 55q64 0 98 -57q28 -47 28 -116 q0 -114 -66 -160q-24 -16 -60.5 -16t-60 17t-37.5 43q-25 44 -27 116z" />
<glyph unicode="&#x26;" horiz-adv-x="602" d="M400 558q0 -100 -126 -194l39 -52q29 -48 97 -129q37 65 55 158h-41l-13 57h122l7 -12q-9 -73 -44 -169q-13 -34 -28 -62l-13 -24q59 -66 81 -66q11 0 35 12q5 -35 17 -71q-20 -7 -40 -7q-53 0 -129 78q-68 -81 -176 -81q-96 0 -153 56q-55 52 -55 126q0 64 47 124 q37 49 97 86l-7 13q-9 16 -19.5 32t-18.5 33q-19 40 -19 69t8.5 54t26.5 47q43 54 116 54q53 0 92 -36q42 -38 42 -96zM373 128q-50 61 -135 181q-16 19 -24 31q-49 -36 -68 -63q-38 -50 -38 -104q0 -52 43 -85q39 -29 84 -29q82 0 138 69zM242 407q94 75 94 144 q0 30 -14 48q-24 33 -54 33t-45.5 -7.5t-24.5 -20.5q-18 -23 -18 -57t18 -68.5t44 -71.5z" />
<glyph unicode="'" horiz-adv-x="170" d="M61 501l-17 188l75 5l9 -22l-22 -171h-45z" />
<glyph unicode="(" horiz-adv-x="258" d="M164 -162q-110 230 -110 452q0 147 38 282q28 96 72 170h60q-64 -120 -90 -304q-9 -69 -9 -148t11 -148.5t26 -127.5q19 -69 62 -176h-60z" />
<glyph unicode=")" horiz-adv-x="259" d="M205 290q0 -222 -110 -452h-60q43 107 60 170q39 146 39 283q0 208 -66 376q-17 45 -33 75h60q71 -120 99 -299q11 -71 11 -153z" />
<glyph unicode="*" horiz-adv-x="332" d="M188 691l8 -10l-20 -105l84 73l30 -38l-4 -11l-99 -42l104 -39l-19 -43l-13 -4l-84 69l17 -112l-47 -4l-9 10l19 104l-83 -72l-28 38l2 12l100 41l-105 39l20 43l11 4l84 -69l-16 112zM159 558l4 -6h7l3 6l-4 6h-6z" />
<glyph unicode="+" horiz-adv-x="438" d="M244 547v-169h160v-63h-160v-181h-51l-12 8v173h-149v50l8 13h141v169h63z" />
<glyph unicode="," horiz-adv-x="199" d="M131 128q9 -36 9 -63t-5.5 -52t-15.5 -48q-23 -53 -50 -78l-36 18v14l43 80l-23 116z" />
<glyph unicode="-" horiz-adv-x="377" d="M63 251v55l8 8h237q6 0 6 -7v-56h-251z" />
<glyph unicode="." horiz-adv-x="206" d="M66 12q-15 15 -15 36.5t15 37t36.5 15.5t37 -15.5t15.5 -37t-15.5 -36.5t-37 -15t-36.5 15z" />
<glyph unicode="/" horiz-adv-x="437" d="M75 0h-48l-3 13l339 679h51l-1 -15z" />
<glyph unicode="0" horiz-adv-x="567" d="M53 344q0 144 54 239q62 109 177 109q114 0 176 -109q54 -95 54 -239t-54 -239q-62 -109 -176 -109q-115 0 -177 109q-54 95 -54 239zM122 344q0 -186 85 -256q31 -25 77 -25q83 0 126 91q35 75 35 190q0 185 -85 256q-30 25 -76 25q-84 0 -127 -91q-35 -74 -35 -190z " />
<glyph unicode="1" horiz-adv-x="327" d="M41 49l105 19v533l-103 -20l-9 57l158 54l22 -10v-614l94 -13v-55h-260z" />
<glyph unicode="2" horiz-adv-x="504" d="M48 0l-10 58q22 25 55.5 56t70 66.5t73 75.5t65.5 82q66 95 66 175q0 61 -45 92q-34 23 -75 23q-59 0 -93 -19l-1 -2q-1 -1 -6 -9q-7 -15 -41 -77l-73 45q38 63 89.5 94.5t110.5 31.5t95 -14.5t60 -39.5q49 -50 49 -130q0 -71 -61 -168q-42 -67 -127 -159 q-43 -46 -107 -106l-12 -12h243l34 108h49l-20 -171h-389z" />
<glyph unicode="3" horiz-adv-x="515" d="M71 112q71 -53 164 -53q63 0 107 33q47 35 47 96q0 79 -78 110q-54 21 -149 21h-15v63q98 0 139.5 16.5t63.5 44t22 75.5q0 49 -40 80q-39 30 -90 30q-55 0 -85 -21l-46 -86l-74 45q35 63 86.5 94.5t126.5 31.5t132 -45q63 -49 63 -127q0 -56 -32 -103q-31 -46 -85 -64 q56 -11 94 -51q42 -46 42 -105t-20 -96t-52 -61q-62 -44 -160 -44q-109 0 -196 59z" />
<glyph unicode="4" horiz-adv-x="508" d="M382 73q62 -14 80 -14v-57h-300v54l152 16v128h-275l-31 64l306 427h68v-423h85v-68h-85v-127zM314 268v324l-229 -324h229z" />
<glyph unicode="5" horiz-adv-x="502" d="M172 390q-39 0 -92 -8v275l31 33h331v-67h-299v-172q16 2 31 2h29q115 0 183 -60q70 -62 70 -162q0 -105 -69 -171q-68 -64 -173 -64q-111 0 -185 59l36 57q29 -26 69.5 -39.5t78.5 -13.5t69 12.5t54 34.5q48 49 48 120q0 92 -67 132q-53 32 -145 32z" />
<glyph unicode="6" horiz-adv-x="563" d="M199.5 404q46.5 26 98 26t90.5 -15.5t68 -43.5q59 -58 59 -152q0 -96 -59 -159q-61 -64 -158 -64q-68 0 -115 32t-76 80q-56 94 -56 221q0 134 59 239q43 76 118 108q38 16 83.5 16t80 -10.5t58.5 -23.5q42 -24 61 -46l-73 -71l-52 72q-32 16 -78 16t-82.5 -30t-59.5 -75 q-42 -84 -42 -188q29 42 75.5 68zM301 59q35 0 62.5 14.5t44.5 36.5q35 45 35 109t-39 106t-108 42q-62 0 -110 -46q-46 -45 -46 -110q10 -64 51 -107q43 -45 110 -45z" />
<glyph unicode="7" horiz-adv-x="427" d="M102 625l-30 -112h-42v177h369l18 -25l-221 -665h-70l-5 14l224 611h-243z" />
<glyph unicode="8" horiz-adv-x="513" d="M255 692q81 0 128 -41.5t47 -117.5q0 -47 -29 -83.5t-80 -76.5q117 -70 138 -145q7 -26 7 -57t-13 -62t-39 -57q-59 -56 -160 -56t-158 56q-49 50 -49 120q0 93 91 162q25 19 50 35q-45 31 -76.5 69.5t-31.5 101t47 107.5t128 45zM127 226.5q-12 -23.5 -12 -52.5 t11.5 -50t30.5 -36q39 -29 97 -29q60 0 100 29q43 33 43 85q0 74 -99 129q-50 28 -55 33q-21 -15 -43.5 -31t-41.5 -35t-31 -42.5zM354 502.5q8 17.5 8 39.5t-10 39t-26 27q-31 21 -72 21q-35 0 -59 -14.5t-35.5 -31t-11.5 -41t8 -43t23 -34.5q19 -20 86 -60q50 42 65.5 61 t23.5 36.5z" />
<glyph unicode="9" horiz-adv-x="535" d="M338.5 275.5q-41.5 -18.5 -88 -18.5t-84 18t-62.5 48q-53 62 -53 150q0 85 47 145q57 73 158 73q204 0 222 -285q2 -41 2 -98t-17.5 -118.5t-49.5 -104.5q-66 -89 -173 -89q-114 0 -194 68l43 60q41 -41 103 -59q20 -6 46 -6t56.5 12.5t55.5 43.5q53 68 57 214 q-27 -35 -68.5 -53.5zM316 614q-25 14 -55 14t-54.5 -10.5t-42.5 -29.5q-40 -42 -40 -110q0 -65 34 -110q35 -47 101 -47q48 0 89 34q43 35 53 89q-16 132 -85 170z" />
<glyph unicode=":" horiz-adv-x="230" d="M78.5 192q-15.5 15 -15.5 36.5t15.5 37t37 15.5t36.5 -15.5t15 -37t-15 -36.5t-36.5 -15t-37 15zM78.5 402q-15.5 15 -15.5 36.5t15.5 37t37 15.5t36.5 -15.5t15 -37t-15 -36.5t-36.5 -15t-37 15z" />
<glyph unicode=";" horiz-adv-x="228" d="M56 -95l36 -18q27 25 44 63q27 63 27 111q0 31 -9 67l-78 -13l23 -116l-43 -80v-14zM71.5 222q-15.5 15 -15.5 36.5t15.5 37t37 15.5t36.5 -15.5t15 -37t-15 -36.5t-36.5 -15t-37 15z" />
<glyph unicode="&#x3c;" horiz-adv-x="401" d="M326 484l-206 -145l206 -144v-71l-297 208v16l297 205v-69z" />
<glyph unicode="=" horiz-adv-x="438" d="M68 310h302v-63h-302v63zM68 434h302v-63h-302v63z" />
<glyph unicode="&#x3e;" horiz-adv-x="401" d="M75 553l297 -205v-16l-297 -208v71l206 144l-206 145v69z" />
<glyph unicode="?" horiz-adv-x="397" d="M161 251l1 -13l-58 -1q-2 10 -2 37.5t14 52.5t35 43.5t45.5 34.5t45.5 35q49 43 49 103q0 35 -16 51q-31 33 -83 33q-36 0 -67 -9l-27 -96h-51l19 143q77 25 127 25t81.5 -11t51.5 -31q39 -38 39 -101q0 -94 -95 -163q-28 -20 -60 -41q-49 -33 -49 -92zM102.5 12 q-15.5 15 -15.5 36.5t15.5 37t37 15.5t36.5 -15.5t15 -37t-15 -36.5t-36.5 -15t-37 15z" />
<glyph unicode="@" horiz-adv-x="807" d="M498 28q-38 -32 -101 -32q-80 0 -130 54q-53 56 -53 152q0 113 68 166q50 40 118 40q45 0 85 -19l43 20l22 -6v-318q0 -26 32 -26q41 0 74 56q31 54 31 116.5t-19 114t-54 88.5q-74 78 -197 78q-132 0 -220 -86q-87 -86 -87 -211q0 -61 22.5 -117.5t62 -99.5t92.5 -69 t118.5 -26t119.5 22l13 -4l-17 -64q-59 -17 -128.5 -17t-135 31t-113.5 83t-75 120.5t-27 143.5t30.5 140.5t82.5 113.5t120.5 75.5t143.5 27.5q149 0 243 -97q93 -94 93 -248q0 -89 -45 -158q-50 -76 -131 -76q-57 0 -81 32zM482 325q-35 20 -77 20q-76 0 -110 -67 q-14 -27 -14 -72.5t12 -74t31 -44.5q32 -28 77.5 -28t80.5 25v241z" />
<glyph unicode="A" horiz-adv-x="570" d="M364 0v44l81 21l-53 176h-223l-52 -179l88 -17v-45h-194l-13 47l54 18l191 626h84l192 -626l47 -18l-11 -47h-191zM279 616l-91 -312h185z" />
<glyph unicode="B" horiz-adv-x="557" d="M181 314v-246h128q69 0 102 40q28 34 28 87q0 51 -41.5 85t-104.5 34h-112zM409 505q0 82 -79 109q-29 9 -69 9h-80v-246h95q65 0 102 40q31 34 31 88zM480 510q0 -109 -88 -156q53 -24 74 -48q44 -49 44 -119q0 -93 -61 -141q-58 -46 -160 -46h-227l-7 56l57 12v559 l-57 5v59h208q103 0 161 -53q56 -49 56 -128z" />
<glyph unicode="C" horiz-adv-x="556" d="M378 64q67 0 122 35l25 -61q-26 -18 -68 -30t-84 -12q-149 0 -243 100q-90 96 -90 250q0 70 24.5 133t68.5 110q95 102 242 102q54 0 117 -13l18 -158h-57l-24 98q-8 1 -17.5 3t-34.5 2q-119 0 -194 -84q-70 -78 -72 -191q2 -123 69 -200q73 -84 198 -84z" />
<glyph unicode="D" horiz-adv-x="605" d="M55 56l57 13v558l-57 5v59h143q163 0 258 -83q105 -92 105 -259q0 -174 -95 -263q-90 -86 -255 -86h-149zM490 353q0 56 -19 106.5t-55 86.5q-75 77 -208 77h-27v-555h44q144 0 211 88q54 72 54 197z" />
<glyph unicode="E" horiz-adv-x="523" d="M55 632v59h398l20 -171h-48l-34 103h-210v-246h162v-63h-162v-246h220l35 103h47l-19 -171h-402l-7 56l57 12v559z" />
<glyph unicode="F" horiz-adv-x="492" d="M328 0h-267l-6 56l57 12v559l-57 5v59h398l21 -171h-48l-35 104h-210v-247h162v-63h-162v-242l152 -21z" />
<glyph unicode="G" horiz-adv-x="607" d="M277.5 84q51.5 -20 108.5 -20t89 7v167l-123 14l18 61h174v-296q-71 -21 -152 -21t-144.5 25.5t-109.5 70.5q-98 97 -98 248q0 156 94 252q97 99 252 99q67 0 139 -18l11 -154h-63l-23 99q-38 5 -69 5q-126 0 -201 -82q-69 -77 -69 -198q0 -124 78 -202q37 -37 88.5 -57z " />
<glyph unicode="H" horiz-adv-x="656" d="M476 64v260h-296v-260l58 -4v-60h-176l-5 56l55 8v563l-58 4v60h177l4 -56l-55 -8v-240h296v240l-58 4v60h176l5 -56l-55 -8v-563l58 -4v-60h-177l-4 56z" />
<glyph unicode="I" horiz-adv-x="293" d="M112 64v563l-57 4v60h176l4 -56l-54 -8v-563l57 -4v-60h-176l-4 56z" />
<glyph unicode="J" horiz-adv-x="358" d="M50 102q40 -40 88 -40q21 0 36 13.5t15 47.5v504l-73 8l6 56h193v-60l-58 -4v-483q0 -93 -50 -128q-29 -20 -68 -20q-73 0 -128 48z" />
<glyph unicode="K" horiz-adv-x="594" d="M112 64v563l-57 4v60h176l4 -56l-54 -8v-341l280 345l-79 6v54h190v-56l-34 -7l-200 -247l179 -315l60 -9v-57h-106l-180 323l-110 -136v-123l57 -4v-60h-176l-4 56z" />
<glyph unicode="L" horiz-adv-x="496" d="M54 631v60h186l4 -56l-64 -8v-559h220l35 103h47l-19 -171h-402l-7 56l57 8v563z" />
<glyph unicode="M" horiz-adv-x="831" d="M226 691l195 -604l187 604h158l6 -60l-52 -5v-559l60 -12v-55h-180l-5 55l56 13v568l-193 -621h-87l-196 608v-557l63 -10v-56h-176l-8 56l58 12v559l-57 5v59h171z" />
<glyph unicode="N" horiz-adv-x="659" d="M174 629v-563l67 -10v-56h-179l-8 56l58 12v559l-58 5v59h167l270 -616v550l-64 10v56h178l10 -56l-61 -12v-623h-105z" />
<glyph unicode="O" horiz-adv-x="645" d="M323 -4q-133 0 -207 110q-66 97 -66 237t66 237q33 49 84.5 80t122.5 31t122.5 -31t84.5 -80q65 -98 65 -237t-65 -237q-33 -49 -84.5 -79.5t-122.5 -30.5zM121 341q0 -114 46 -189q53 -88 156 -88q102 0 155 88q46 75 46 189q0 115 -46 192q-54 90 -155 90 q-102 0 -156 -90q-46 -77 -46 -192z" />
<glyph unicode="P" horiz-adv-x="520" d="M235 332q109 0 153 46q35 35 35 102q0 71 -51 108q-47 35 -127 35h-64v-291h54zM55 55l57 13v559l-57 5v59h164q149 0 219 -68q56 -54 56 -142q0 -109 -78 -166q-70 -51 -178 -51h-57v-194l140 -19v-51h-259z" />
<glyph unicode="Q" horiz-adv-x="649" d="M417 -191q-83 67 -157 135l23 27l213 -73l5 -28zM325 -4q-133 0 -209 110q-66 97 -66 237t66 237q34 49 86 80t123 31t123 -31t86 -80q66 -99 66 -237t-66 -237q-34 -49 -86 -79.5t-123 -30.5zM123 341q0 -114 46 -189q53 -88 156 -88q102 0 155 88q46 75 46 189 q0 115 -46 193q-54 90 -155 90q-102 0 -156 -90q-46 -78 -46 -193z" />
<glyph unicode="R" horiz-adv-x="544" d="M272 266q-22 -2 -44 -2h-47v-194l78 -19v-51h-197l-7 55l57 13v559l-57 5v59h174q187 0 245 -115q20 -40 20 -88t-11.5 -80t-32.5 -56q-40 -49 -107 -70l102 -217l65 -14v-51h-118zM235 332q188 0 188 148q0 72 -49 110q-43 33 -119 33h-74v-291h54z" />
<glyph unicode="S" horiz-adv-x="491" d="M112 183l27 -99q42 -20 81 -20t64.5 7t45.5 21q45 33 45 89q0 38 -17.5 67.5t-63 52t-87 40.5t-75.5 41t-56 55.5t-22 77.5t16.5 76.5t44.5 53.5q59 46 142 46q69 0 154 -32l13 -154h-55l-42 106q-31 13 -66 13t-57 -6t-40 -18q-39 -27 -39 -66t16 -61.5t40.5 -38.5 t55 -28.5t67.5 -29.5t66.5 -40t45.5 -47q30 -43 30 -94.5t-17.5 -87.5t-46.5 -61q-60 -50 -149 -50q-98 0 -168 33l-11 154h58z" />
<glyph unicode="T" horiz-adv-x="547" d="M127 0v52l113 18v553h-137l-39 -97h-46l23 165h465l23 -165h-46l-39 97h-136v-553l115 -18v-52h-296z" />
<glyph unicode="U" horiz-adv-x="628" d="M417 631v60h170l4 -56l-55 -8v-425q0 -96 -65 -152q-62 -54 -158 -54t-156 56q-61 57 -61 150v425l-58 4v60h177l4 -56l-55 -8v-414q0 -72 41 -111t114 -39q107 0 143 81q12 28 12 69v414z" />
<glyph unicode="V" horiz-adv-x="562" d="M205 691v-44l-88 -21l167 -515l171 518l-91 17v45h196v-47l-40 -18l-208 -626h-65l-203 626l-36 18v47h197z" />
<glyph unicode="W" horiz-adv-x="856" d="M201 691v-44l-78 -21l113 -538l155 580h85l152 -586l114 547l-78 17v45h182v-47l-40 -18l-133 -626h-91l-151 576l-150 -576h-100l-129 626l-39 18v47h188z" />
<glyph unicode="X" horiz-adv-x="566" d="M20 0v54l45 7l175 286l-171 280l-47 11v53h195v-43l-71 -15l142 -232l129 232l-59 10v48h179v-54l-45 -7l-167 -289l165 -266l64 -23v-52h-198v52l62 6l-142 231l-137 -231l58 -10v-48h-177z" />
<glyph unicode="Y" horiz-adv-x="539" d="M189 691v-53l-63 -10l152 -298l140 299l-61 8v54h172v-60l-43 -10l-181 -378v-173l115 -18l-9 -52h-280l-10 52l116 18v187l-187 365l-43 9v60h182z" />
<glyph unicode="Z" horiz-adv-x="542" d="M487 604l-360 -536h299l20 102h47v-170h-437l-9 75l368 548h-296l-20 -102h-47v170h425z" />
<glyph unicode="[" horiz-adv-x="306" d="M88 669h206q6 0 6 -8v-54h-151v-724h151v-54q0 -8 -6 -8h-200l-13 16v818z" />
<glyph unicode="\" horiz-adv-x="453" d="M23 681l1 10h66l339 -678l-3 -13h-61z" />
<glyph unicode="]" horiz-adv-x="306" d="M225 655v-818l-13 -16h-200q-6 0 -6 8v54h151v724h-151v54q0 8 6 8h206z" />
<glyph unicode="^" horiz-adv-x="352" d="M52 582l117 142h15l116 -140l-3 -7h-55l-66 69l-66 -69h-54z" />
<glyph unicode="_" horiz-adv-x="573" d="M10 -63v50l12 13h535q6 0 6 -7v-56h-553z" />
<glyph unicode="`" horiz-adv-x="284" d="M195 553l-140 120l44 53h26l104 -140z" />
<glyph unicode="a" d="M308 40q-48 -44 -118 -44q-62 0 -104 35q-45 37 -45 92.5t27.5 86.5t67.5 48q64 27 167 30v64q0 32 -24 51t-64 19q-48 0 -69 -13l-16 -53l-82 15q17 52 64 81q42 27 97 27q83 0 120 -38.5t37 -103.5v-258q0 -29 23 -29q9 0 21 5l11 -38q-21 -21 -55 -21q-46 0 -58 44z M128 184q-21 -20 -21 -54t24 -55.5t61 -21.5q75 0 111 55v124q-125 0 -175 -48z" />
<glyph unicode="b" horiz-adv-x="484" d="M127 22q-31 -22 -36 -22h-16v661l-61 -4l-8 52l105 18l27 -30v-255q45 37 102 37t93.5 -19.5t60.5 -51.5q48 -66 48 -166q0 -102 -50 -170q-56 -76 -157 -76q-63 0 -108 26zM138 85q40 -32 87.5 -32t75 16t44.5 43q31 48 31 125q0 122 -71 168q-26 17 -59 17t-63.5 -14 t-44.5 -37v-286z" />
<glyph unicode="c" horiz-adv-x="405" d="M377 31q-45 -35 -129 -35q-101 0 -156 72q-49 65 -49 165q0 167 112 225q39 21 89 21q89 0 139 -37l-44 -69l-59 47q-8 2 -19 2h-17q-74 0 -108 -61q-27 -49 -27 -129q0 -122 77 -164q28 -15 78 -15t96 27z" />
<glyph unicode="d" horiz-adv-x="495" d="M249 479q52 0 97 -20v202l-61 -4l-8 52l105 18l27 -30v-618q0 -29 23 -29q8 0 21 5l11 -40q-19 -19 -59 -19t-53 41q-45 -41 -104 -41t-96 21t-62 55q-48 66 -48 163q0 105 52 172q55 72 155 72zM346 387q-31 35 -92 35q-74 0 -114 -58q-32 -48 -32 -125q0 -122 74 -169 q26 -17 60 -17q71 0 104 51v283z" />
<glyph unicode="e" horiz-adv-x="443" d="M398 34q-52 -38 -139 -38q-105 0 -163 69q-54 64 -54 167q0 106 55 174q58 73 155 73q63 0 105 -35q44 -36 44 -93t-27.5 -89t-70.5 -49q-71 -28 -192 -28q10 -58 46.5 -95.5t105.5 -37.5t118 36zM125 244q89 0 127 12.5t60.5 33t22.5 58.5q0 37 -27 57q-23 17 -57.5 17 t-60.5 -14.5t-44 -39.5q-36 -51 -38 -124h17z" />
<glyph unicode="f" horiz-adv-x="311" d="M230 670l-18 1q-41 0 -46 -40q-2 -11 -2 -23v-129h110q5 0 5 -6v-51h-115v-361l110 -16v-45h-224l-8 44l59 14v364h-63l-14 46l7 11h70v117q0 58 28.5 94.5t93.5 36.5q50 0 112 -37l-49 -68z" />
<glyph unicode="g" horiz-adv-x="476" d="M118 159q-71 49 -71 144q0 79 50 127q51 49 126.5 49t122.5 -41l91 45l19 -3l10 -68l-87 -11q27 -42 27 -89t-13.5 -79.5t-37.5 -55.5q-51 -49 -129 -49q-28 0 -52 6l-21 -31l3 -21q21 -6 39 -11l36 -10l30 -7q76 -20 105 -41t42 -46t13 -64.5t-17.5 -71.5t-45.5 -53 q-57 -43 -141 -43q-80 0 -135 41q-60 44 -60 119q0 69 59 115q16 13 33 21q-33 22 -33 55t37 73zM113 -34.5q-28 -27.5 -28 -61t13.5 -52t33.5 -30.5q40 -24 77.5 -24t63 7t45.5 19q46 28 46 74q0 50 -62 75q-27 11 -60 18t-64 15q-37 -13 -65 -40.5zM226 422 q-54 0 -83.5 -33.5t-29.5 -84.5t29.5 -85t83.5 -34t84 34t30 85t-30 84.5t-84 33.5z" />
<glyph unicode="h" horiz-adv-x="498" d="M266 422q-66 0 -115 -43v-321l56 -13v-45h-172l-5 44l58 14v603h-55l-9 49l98 17l29 -30v-256q55 38 122 38t104 -36.5t37 -108.5v-276l61 -14v-44h-180l-4 44l60 14v269q0 95 -85 95z" />
<glyph unicode="i" horiz-adv-x="249" d="M160 451v-392l61 -15v-44h-175l-9 43l60 15v358l-54 -4l-9 51l99 18zM59 671q0 22 15 37.5t37 15.5t37.5 -15.5t15.5 -37.5t-15.5 -37t-37.5 -15t-37 15t-15 37z" />
<glyph unicode="j" horiz-adv-x="228" d="M53 671q0 22 15 37.5t37 15.5t37.5 -15.5t15.5 -37.5t-15.5 -37t-37.5 -15t-37 15t-15 37zM7 -190q27 -27 51 -27t29 18t5 43v572l-69 -5l-8 51l113 19l27 -30v-617q0 -47 -15 -68q-29 -39 -81 -39q-50 0 -85 35z" />
<glyph unicode="k" horiz-adv-x="458" d="M151 697v-426l176 163h-41l-8 47h138l14 -27l-168 -157l123 -242l52 -11v-44h-99l-128 250l-59 -56v-136l56 -13v-45h-172l-5 44l58 14v603h-55l-9 49l100 17z" />
<glyph unicode="l" horiz-adv-x="241" d="M152 697v-640l61 -13v-44h-183l-5 44l64 14v603h-55l-9 49l98 17z" />
<glyph unicode="m" horiz-adv-x="767" d="M395 429q64 50 138 50q150 0 150 -145v-276l61 -14v-44h-180l-4 44l60 14v269q0 95 -85 95q-23 0 -54 -8t-63 -42q3 -18 3 -38v-276l61 -14v-44h-180l-4 44l60 14v269q0 95 -85 95q-67 0 -115 -42v-321l61 -15v-44h-173l-6 43l55 15v362l-54 -4l-9 47l101 18l22 -41 q28 19 62 29t61 10q80 0 117 -50z" />
<glyph unicode="n" horiz-adv-x="505" d="M273 422q-67 0 -115 -42v-321l61 -15v-44h-173l-6 43l55 15v362l-54 -4l-9 47l101 18l22 -41q56 39 124 39t105 -36.5t37 -108.5v-276l61 -14v-44h-180l-4 44l60 14v269q0 95 -85 95z" />
<glyph unicode="o" horiz-adv-x="489" d="M42 241q0 47 13 91t39 77q55 72 150 72q101 0 154 -74q49 -67 49 -167t-49 -168q-53 -76 -154 -76q-97 0 -153 76q-49 67 -49 169zM115 290.5q-7 -34.5 -7 -64.5t7.5 -61t24.5 -55q37 -56 104 -56q71 0 107 58q30 49 30 123q0 121 -73 171q-26 17 -64.5 17t-64.5 -20 t-41.5 -49t-22.5 -63.5z" />
<glyph unicode="p" horiz-adv-x="500" d="M249 -4q-55 0 -95 20v-224l121 -21v-44h-234l-9 44l59 14v631l-61 -4l-8 51l105 18l27 -36q47 34 103 34t92.5 -19.5t60.5 -51.5q48 -66 48 -166q0 -102 -50 -170q-56 -76 -159 -76zM154 85q40 -32 87.5 -32t75 16t44.5 43q31 48 31 125q0 122 -71 168q-26 17 -59 17 t-63.5 -14t-44.5 -37v-286z" />
<glyph unicode="q" horiz-adv-x="483" d="M351 451l23 29l35 -10v-685l59 -14v-44h-236l-7 44l121 27v234q-42 -36 -109 -36q-85 0 -138 62q-57 67 -57 176q0 130 74 197q55 50 122 50t113 -30zM311 411q-25 12 -53.5 12t-54 -8t-46.5 -29q-49 -47 -49 -147q0 -99 46 -147q36 -38 81 -38t72.5 16t38.5 34v283 q-10 12 -35 24z" />
<glyph unicode="r" horiz-adv-x="386" d="M159 440q45 41 101 41q69 0 117 -66l-76 -37l-34 46q-36 0 -68 -26q-40 -31 -40 -86v-248l140 -20v-44h-253l-9 44l59 14v357h-54l-8 48l98 17z" />
<glyph unicode="s" horiz-adv-x="397" d="M201 481q31 0 58 -9.5t47 -23.5q38 -26 55 -64l-78 -29l-23 51q-20 17 -61 17q-28 0 -46 -11q-35 -23 -35 -56q0 -32 24 -50q26 -17 89 -37.5t91.5 -54t28.5 -75.5t-14 -67.5t-36 -41.5q-45 -34 -107 -34q-60 0 -107 33q-34 24 -55 63l78 30l23 -52q27 -16 67 -16 q30 0 49 13q36 25 36 57q0 36 -23 56q-21 17 -86 40q-124 39 -124 130q0 61 44 96q43 35 105 35z" />
<glyph unicode="t" horiz-adv-x="303" d="M99 139l2 285h-80l-14 44l7 11h88l1 168l56 14l6 -11q-1 -24 -1 -47v-124h106q5 0 5 -6v-49h-112v-323q0 -27 11.5 -37t36.5 -10t61 26l17 -51q-12 -9 -34.5 -21t-67 -12t-66.5 31t-22 79v33z" />
<glyph unicode="u" horiz-adv-x="490" d="M348 37q-50 -41 -117 -41q-102 0 -137 84q-12 30 -12 76v259h-54l-9 48l101 18l25 -28v-294q0 -67 37 -91q22 -14 56.5 -14t64 14t41.5 33v314h-54l-7 48l100 19l24 -29v-380q0 -22 23 -22l18 3l8 -35q-6 -7 -21 -15t-36 -8q-40 0 -51 41z" />
<glyph unicode="v" horiz-adv-x="439" d="M192 0l-144 426h-38l-8 48l100 7l130 -389l127 334h-45l-5 48l100 7l19 -37l-172 -444h-64z" />
<glyph unicode="w" horiz-adv-x="665" d="M366 445l119 -369l81 350h-45l-9 49l108 5l14 -26l-111 -454h-86l-100 328l-99 -328h-96l-85 426h-42l-8 49l110 5l78 -409l118 374h53z" />
<glyph unicode="x" horiz-adv-x="456" d="M40 0l-10 52h42l114 191l-114 178h-42v58h83l123 -190l114 190h70v-53h-33l-116 -191l115 -177h42v-58h-85l-122 188l-112 -188h-69z" />
<glyph unicode="y" horiz-adv-x="449" d="M42 -185q30 -30 58 -30q36 0 62 63q6 17 11 32l26 73l-154 472h-34l-8 49l95 6l137 -426l132 371h-36l-8 49l96 6l17 -35q-48 -131 -103 -281.5t-88 -238t-43 -111t-24 -42.5q-32 -45 -79 -45q-42 0 -88 36z" />
<glyph unicode="z" horiz-adv-x="428" d="M379 420l-253 -362h190l16 94h47v-152h-332v58l246 362h-183l-16 -83h-47v142h332v-59z" />
<glyph unicode="{" horiz-adv-x="309" d="M125 27l1 79v25q0 51 -30.5 76t-81.5 25v84q45 0 78 26q34 28 34 75v23l-1 72v28q0 159 123 159q19 0 61 -5l-21 -77l-57 17l-9 -2q-31 -13 -31 -105l2 -101q0 -106 -63 -136q-19 -10 -52 -14v-4q59 -7 87 -41t28 -113l-2 -97q0 -101 31 -114l9 -3l57 17l21 -76 q-34 -6 -66 -6t-55.5 13t-37.5 35q-25 39 -25 112v28z" />
<glyph unicode="|" horiz-adv-x="221" d="M139 666v-832h-57v832h57z" />
<glyph unicode="}" horiz-adv-x="310" d="M184 512l-1 -72v-23q0 -47 35 -75q32 -26 78 -26v-84q-52 0 -82.5 -25t-30.5 -76v-25l1 -79v-28q0 -160 -123 -160q-27 0 -61 6l21 76l57 -17l10 3q19 8 24.5 40.5t5.5 73.5l-2 97q0 79 28 113t87 41v4q-61 8 -87 40q-28 37 -28 110l2 101q0 37 -5.5 67t-24.5 38l-10 2 l-57 -17l-21 77q42 5 61 5q123 0 123 -159v-28z" />
<glyph unicode="~" horiz-adv-x="387" d="M359 601q-45 -38 -94 -38q-19 0 -35 6t-32 12.5t-32 12.5t-35.5 6t-34.5 -14t-22 -32l-43 26q12 41 42.5 62t56.5 21t44.5 -6.5t34.5 -14.5q42 -21 57 -21l56 42z" />
<glyph unicode="&#xa1;" horiz-adv-x="239" d="M146 260l27 -425l-21 -38l-82 12l18 451h58zM80 402.5q-15 15.5 -15 37t15 36.5t36.5 15t37 -15t15.5 -36.5t-15.5 -37t-37 -15.5t-36.5 15.5z" />
<glyph unicode="&#xa2;" horiz-adv-x="408" d="M371 31q-39 -30 -101 -34v-155h-58v156q-89 12 -136 80q-44 64 -44 155q0 149 100 215q33 23 80 29v132h58v-131q66 -7 107 -36l-44 -69l-59 47l-4 1v-368q46 4 84 27zM98 233q0 -30 6 -58.5t20 -52.5q29 -52 88 -65v363q-59 -11 -90 -69q-24 -47 -24 -118z" />
<glyph unicode="&#xa3;" horiz-adv-x="487" d="M454 34q-50 -38 -89 -38t-67.5 7t-53.5 15q-68 23 -96.5 23t-45 -14t-21.5 -31l-54 18q7 25 24 42t37 34.5t33 43.5t20 57q10 44 10 138h-70v54l7 9h63v135q0 87 50 129q41 35 104 35q37 0 63 -13q39 -21 57 -36l-48 -66l-59 50q-10 2 -20.5 2t-24 -3t-25.5 -13 q-29 -24 -29 -80v-140h138q6 0 6 -8v-55h-144q-2 -68 -8.5 -126.5t-36.5 -99.5q48 -5 90 -20t62 -22t36 -7l56 42z" />
<glyph unicode="&#xa4;" horiz-adv-x="257" d="M168 800v-444h-79v444h79zM89 -214v479h79v-479h-79z" />
<glyph unicode="&#xa5;" horiz-adv-x="551" d="M121 210h121v29h-121v63h121v11l-174 314l-40 9v55h168v-47l-55 -11l140 -249l139 249l-57 9v49h160v-56l-32 -10l-181 -314v-9h114v-63h-114v-29h114v-63h-114v-77l114 -18l-8 -52h-274l-9 52l109 18v77h-121v63z" />
<glyph unicode="&#xa6;" horiz-adv-x="231" d="M84 290v380h63v-380h-63zM84 -173v374h63v-374h-63z" />
<glyph unicode="&#xa7;" horiz-adv-x="495" d="M107 422q-54 44 -54 111q0 69 57 114q55 44 140 44q81 0 159 -32l12 -154h-54l-42 110q-30 13 -65 13t-57.5 -6.5t-40.5 -17.5q-37 -25 -37 -57t15.5 -51.5t39.5 -35t53.5 -27.5t58.5 -24q81 -35 119 -75t38 -103t-54 -122q44 -44 44 -106q0 -78 -65 -123 q-59 -41 -147 -41q-81 0 -163 33l-10 152h58l20 -106q32 -16 99 -16q89 0 123 54q12 20 12 47.5t-15 47t-38 34.5t-50 27q-116 52 -161 94t-45 104t50 112zM347 147q28 37 28 71.5t-12.5 53.5t-32.5 34q-29 23 -73 40q-59 24 -97 43q-30 -35 -30 -62t9 -43t27 -31 q28 -24 79 -50q74 -38 102 -56z" />
<glyph unicode="&#xa8;" horiz-adv-x="355" d="M66 492.5q-14 14.5 -14 35t14 35t34.5 14.5t35.5 -14.5t15 -35t-15 -35t-35.5 -14.5t-34.5 14.5zM219 492.5q-15 14.5 -15 35t15 35t35.5 14.5t34.5 -14.5t14 -35t-14 -35t-34.5 -14.5t-35.5 14.5z" />
<glyph unicode="&#xa9;" horiz-adv-x="728" d="M478 198q-48 -30 -101 -30t-88.5 14t-61.5 40q-56 56 -56 143q0 93 57 151q54 56 142 56q54 0 80 -7l10 -109h-40l-13 56q-10 2 -39 2t-54 -9t-44 -27q-40 -41 -40 -108t37 -105.5t103 -38.5q24 0 48 6q36 10 45 19zM41 372q0 135 91 228q93 95 232 95q70 0 129.5 -25.5 t102.5 -69.5q91 -93 91 -228t-91 -228q-43 -44 -102.5 -69.5t-130 -25.5t-129.5 25.5t-102 69.5q-91 93 -91 228zM99 372q0 -115 75 -190t190 -75t190 75t75 190t-75 190t-190 75t-190 -75t-75 -190z" />
<glyph unicode="&#xaa;" horiz-adv-x="297" d="M43 504q0 79 134 85v22q0 24 -19 33q-8 5 -22 5t-24 -7l-7 -29l-62 9q8 50 63 65q14 4 28.5 4t31.5 -4t31 -13q33 -21 33 -64v-119q0 -13 8 -13l12 3l10 -31q-19 -16 -42 -16t-34 17q-23 -18 -48 -18t-39.5 4.5t-26.5 13.5q-27 20 -27 53zM177 547q-78 0 -78 -42 q0 -7 6 -18.5t26 -11.5q32 0 45 26l1 5v41z" />
<glyph unicode="&#xab;" horiz-adv-x="454" d="M264 512l-173 -174l173 -174l-41 -41l-213 214l213 216zM408 491l-152 -153l152 -153l-41 -41l-192 193l192 195z" />
<glyph unicode="&#xac;" horiz-adv-x="600" d="M465 417h-412v54l7 9h459l9 -8v-205q0 -7 -8 -7h-55v157z" />
<glyph unicode="&#xad;" horiz-adv-x="377" d="M328 262h-280v91h280v-91z" />
<glyph unicode="&#xae;" horiz-adv-x="728" d="M41 372q0 135 91 228q93 95 232 95q70 0 129.5 -25.5t102.5 -69.5q91 -93 91 -228t-91 -228q-43 -44 -102.5 -69.5t-130 -25.5t-129.5 25.5t-102 69.5q-91 93 -91 228zM99 372q0 -115 75 -190t190 -75t190 75t75 190t-75 190t-190 75t-190 -75t-75 -190zM234 224l26 7 v292l-26 3v51h91q91 0 134 -34.5t43 -94.5q0 -41 -23 -69.5t-62 -42.5l72 -107l34 -7v-44h-75l-88 145q-8 -1 -15 -1h-27v-90l51 -10v-44h-131zM334 380q105 0 105 68q0 40 -29 56t-69 16h-23v-140h16z" />
<glyph unicode="&#xaf;" horiz-adv-x="365" d="M57 630v54l7 9h237q7 0 7 -8v-55h-251z" />
<glyph unicode="&#xb0;" horiz-adv-x="264" d="M38 630q0 45 23 74.5t71 29.5t71 -29.5t23 -74.5t-23 -75t-71 -30t-71 30t-23 75zM101 668q-10 -19 -10 -39t10 -38.5t31 -18.5t31.5 18.5t10.5 38.5t-10.5 39t-31.5 19t-31 -19z" />
<glyph unicode="&#xb1;" horiz-adv-x="481" d="M271 560v-111h138v-63h-138v-113h-55l-8 13v100h-138v48l13 15h125v111h63zM409 169h-339v58l8 12h331v-70z" />
<glyph unicode="&#xb2;" horiz-adv-x="265" d="M100 639l-11 -31l-47 14q10 38 37 53.5t56.5 15.5t52.5 -19.5t23 -48.5t-7.5 -48t-18.5 -35q-15 -23 -46 -54l-10 -10h46l14 32h31l-11 -74h-156l-3 28q108 93 108 148q0 34 -33 34q-13 0 -25 -5z" />
<glyph unicode="&#xb3;" horiz-adv-x="264" d="M166 568q59 -11 59 -60q0 -37 -28 -55.5t-65 -18.5q-56 0 -93 34l29 39q11 -10 24.5 -18t37 -8t33 10.5t9.5 20.5q0 30 -68 30v44q55 0 55 32q0 9 -6.5 17.5t-24 8.5t-24.5 -6l-12 -31l-49 15q9 30 32 49.5t59 19.5q46 0 69 -39q7 -12 7 -29t-10 -34t-34 -21z" />
<glyph unicode="&#xb4;" horiz-adv-x="279" d="M52 585l104 139h27l44 -52l-140 -120z" />
<glyph unicode="&#xb6;" horiz-adv-x="523" d="M47 420.5q-16 36.5 -16 74t11.5 71.5t37.5 62q58 63 170 63h212v-59h-42v-632h-57v632h-32v-507q0 -41 -7 -48q-34 -38 -83 -85l-53 74l75 43v190q-106 2 -170 59q-30 26 -46 62.5z" />
<glyph unicode="&#xb7;" horiz-adv-x="230" d="M63 399h95l9 -9v-135h-104v144z" />
<glyph unicode="&#xb8;" horiz-adv-x="398" d="M155 -106l-18 19l38 102h68l-22 -64q68 -7 95 -63q10 -20 10 -46q0 -51 -34.5 -83t-104.5 -32q-37 0 -63.5 9t-51.5 18l43 82l74 -46q27 0 45 13.5t18 34.5t-19.5 38.5t-68.5 17.5h-9z" />
<glyph unicode="&#xb9;" horiz-adv-x="220" d="M51 468l38 8v159l-39 -6l-9 35l93 29l9 -5v-209l35 -9v-36h-124z" />
<glyph unicode="&#xba;" horiz-adv-x="296" d="M39 563q0 94 67 121q19 8 41 8q46 0 78 -31.5t32 -97.5t-32 -98t-77.5 -32t-77 32t-31.5 98zM108.5 617.5q-13.5 -22.5 -13.5 -57t13.5 -55.5t39.5 -21t39.5 21t13.5 55.5t-13.5 57t-39.5 22.5t-39.5 -22.5z" />
<glyph unicode="&#xbb;" horiz-adv-x="455" d="M190 164l173 174l-173 174l41 41l213 -214l-213 -216zM46 185l152 153l-152 153l41 41l192 -193l-192 -195z" />
<glyph unicode="&#xbc;" horiz-adv-x="598" d="M380 37l84 11v69h-147v64l147 195h53v-212h49v-47h-49v-70l36 -6v-41h-171zM127 -21h-48l-3 13l349 699h52l-1 -14zM51 350l43 7v278l-50 -6l-8 35l103 29l9 -5v-328l35 -8v-37h-129zM464 164v136l-103 -136h103z" />
<glyph unicode="&#xbd;" horiz-adv-x="625" d="M344 0l-5 31q7 8 24 23t38 35t43.5 43t41.5 46q43 54 43 91q0 40 -27 57q-17 11 -36 11q-27 0 -50 -10l-29 -60l-54 34q18 31 51.5 54.5t81 23.5t81.5 -27t34 -83q0 -82 -119 -189q-26 -24 -40 -38h111l19 51h38l-12 -93h-234zM50 350l43 7v278l-50 -6l-8 35l103 29l9 -5 v-328l35 -8v-37h-129zM125 -21h-48l-3 13l349 699h52l-1 -14z" />
<glyph unicode="&#xbe;" horiz-adv-x="654" d="M436 37l84 11v69h-147v64l147 195h53v-212h49v-47h-49v-70l36 -6v-41h-171zM182 -21h-48l-4 13l350 699h52l-2 -14zM225 413q0 71 -120 71v42q59 0 78 8q39 15 39 57q0 25 -26 42q-20 14 -41 14t-32 -5l-17 -7l-27 -46l-44 28q23 47 77 65q20 7 44 7t44 -6t35 -19 q34 -28 34 -74q0 -30 -18 -56t-53 -31q40 -6 58.5 -32.5t18.5 -54t-11.5 -48.5t-30.5 -35q-39 -29 -81 -29q-73 0 -118 32l28 43q35 -33 82 -33q30 0 48 12q33 22 33 55zM520 164v136l-103 -136h103z" />
<glyph unicode="&#xbf;" horiz-adv-x="383" d="M230 229l-1 12l57 2q3 -11 3 -38.5t-14 -52t-35 -43.5t-45.5 -34.5t-45.5 -34.5q-49 -43 -49 -103q0 -35 16 -51q31 -33 82 -33q32 0 67 8l28 97h50l-19 -147q-57 -19 -137 -19t-120.5 40t-40.5 101q0 92 94 160q27 20 50.5 36.5t34 29t15.5 25.5q10 21 10 45zM288 468 q15 -15 15 -37t-15 -37t-36.5 -15t-37 15t-15.5 37t15.5 37t37 15t36.5 -15z" />
<glyph unicode="&#xc0;" horiz-adv-x="570" d="M372 717l-204 101l37 72l30 7l168 -133zM364 0v44l81 21l-53 176h-223l-52 -179l88 -17v-45h-194l-13 47l54 18l191 626h84l192 -626l47 -18l-11 -47h-191zM279 616l-91 -312h185z" />
<glyph unicode="&#xc1;" horiz-adv-x="570" d="M176 764l158 133l30 -7l37 -72l-193 -101zM364 0v44l81 21l-53 176h-223l-52 -179l88 -17v-45h-194l-13 47l54 18l191 626h84l192 -626l47 -18l-11 -47h-191zM279 616l-91 -312h185z" />
<glyph unicode="&#xc2;" horiz-adv-x="570" d="M273 884h16l140 -157h-73l-76 63l-75 -63h-74zM364 0v44l81 21l-53 176h-223l-52 -179l88 -17v-45h-194l-13 47l54 18l191 626h84l192 -626l47 -18l-11 -47h-191zM279 616l-91 -312h185z" />
<glyph unicode="&#xc3;" horiz-adv-x="570" d="M466 770q-49 -43 -84 -43q-23 0 -39 8t-31 17.5t-31 17.5t-43 8t-43 -15.5t-27 -33.5l-37 31v16q20 40 65 58q20 8 53 8t59.5 -17t58.5 -39l62 50zM364 0v44l81 21l-53 176h-223l-52 -179l88 -17v-45h-194l-13 47l54 18l191 626h84l192 -626l47 -18l-11 -47h-191z M279 616l-91 -312h185z" />
<glyph unicode="&#xc4;" horiz-adv-x="570" d="M364 0v44l81 21l-53 176h-223l-52 -179l88 -17v-45h-194l-13 47l54 18l191 626h84l192 -626l47 -18l-11 -47h-191zM279 616l-91 -312h185zM127 772q0 24 16.5 40.5t40 16.5t41 -16.5t17.5 -40.5t-17.5 -41t-41 -17t-40 17t-16.5 41zM303 772q0 24 17.5 40.5t41.5 16.5 t40 -16.5t16 -40.5t-16 -41t-40 -17t-41.5 17t-17.5 41z" />
<glyph unicode="&#xc5;" horiz-adv-x="567" d="M380 751q0 -54 -47 -83l185 -603l47 -18l-11 -47h-191v44l81 21l-53 176h-223l-52 -179l88 -17v-45h-194l-13 47l54 18l184 605q-20 12 -32 33.5t-12 44t7.5 40t19.5 30.5q28 27 68 27q39 0 66.5 -27.5t27.5 -66.5zM278 616l-91 -312h185zM248 751q0 -17 10.5 -27.5 t27.5 -10.5t27 10.5t10 27.5t-10 27.5t-27 10.5t-27.5 -10.5t-10.5 -27.5z" />
<glyph unicode="&#xc6;" horiz-adv-x="720" d="M1 0l-13 47l53 18l237 626h372l20 -171h-48l-34 103h-189v-259h142v-63h-142v-233h199l35 103h47l-19 -171h-370l-8 56l48 12v230h-135l-89 -236l86 -17v-45h-192zM331 627l-11 1l-101 -267h112v266z" />
<glyph unicode="&#xc7;" horiz-adv-x="559" d="M375 -4l-12 1l-12 -38q62 -8 84 -55q8 -17 8 -40q0 -44 -30 -72t-92 -28q-41 0 -88 20l-12 4l37 71l65 -40q24 0 39.5 12t15.5 30t-17 33.5t-60 15.5h-8l-15 16l28 76q-120 22 -192 116q-72 93 -72 228q0 70 24.5 133t68.5 110q95 102 242 102q54 0 117 -13l18 -158h-57 l-24 98q-8 1 -17.5 3t-34.5 2q-119 0 -195 -84q-71 -78 -71 -191q0 -122 69 -200q74 -84 192 -84q73 0 128 35l25 -61q-26 -18 -68 -30t-84 -12z" />
<glyph unicode="&#xc8;" horiz-adv-x="523" d="M328 717l-204 101l37 72l30 7l168 -133zM55 632v59h398l20 -171h-48l-34 103h-210v-246h162v-63h-162v-246h220l35 103h47l-19 -171h-402l-7 56l57 12v559z" />
<glyph unicode="&#xc9;" horiz-adv-x="523" d="M173 764l158 133l30 -7l37 -72l-193 -101zM55 632v59h398l20 -171h-48l-34 103h-210v-246h162v-63h-162v-246h220l35 103h47l-19 -171h-402l-7 56l57 12v559z" />
<glyph unicode="&#xca;" horiz-adv-x="523" d="M251 884h16l141 -157h-74l-76 63l-75 -63h-74zM55 632v59h398l20 -171h-48l-34 103h-210v-246h162v-63h-162v-246h220l35 103h47l-19 -171h-402l-7 56l57 12v559z" />
<glyph unicode="&#xcb;" horiz-adv-x="523" d="M55 632v59h398l20 -171h-48l-34 103h-210v-246h162v-63h-162v-246h220l35 103h47l-19 -171h-402l-7 56l57 12v559zM119 793q0 24 16.5 40.5t40 16.5t41 -16.5t17.5 -40.5t-17.5 -41t-41 -17t-40 17t-16.5 41zM295 793q0 24 17.5 40.5t41.5 16.5t40 -16.5t16 -40.5 t-16 -41t-40 -17t-41.5 17t-17.5 41z" />
<glyph unicode="&#xcc;" horiz-adv-x="293" d="M243 717l-203 101l36 72l31 7l168 -133zM112 64v563l-57 4v60h176l4 -56l-54 -8v-563l57 -4v-60h-176l-4 56z" />
<glyph unicode="&#xcd;" horiz-adv-x="293" d="M37 764l157 133l31 -7l36 -72l-193 -101zM112 64v563l-57 4v60h176l4 -56l-54 -8v-563l57 -4v-60h-176l-4 56z" />
<glyph unicode="&#xce;" horiz-adv-x="293" d="M141 884h16l140 -157h-73l-76 63l-75 -63h-74zM112 64v563l-57 4v60h176l4 -56l-54 -8v-563l57 -4v-60h-176l-4 56z" />
<glyph unicode="&#xcf;" horiz-adv-x="293" d="M36 752q-16 17 -16 40.5t16 40.5t40 17t41 -17t17 -40.5t-17 -40.5t-41 -17t-40 17zM182 752q-17 17 -17 40.5t17 40.5t41 17t40 -17t16 -40.5t-16 -40.5t-40 -17t-41 17zM112 64v563l-57 4v60h176l4 -56l-54 -8v-563l57 -4v-60h-176l-4 56z" />
<glyph unicode="&#xd0;" horiz-adv-x="606" d="M56 56l57 13v245h-90v55l7 8h83v250l-57 5v59h143q163 0 259 -83q104 -92 104 -259q0 -174 -95 -263q-90 -86 -255 -86h-149zM491 353q0 56 -19 106.5t-55 86.5q-75 77 -208 77h-27v-246h168q7 0 7 -7v-56h-175v-246h44q144 0 211 88q54 72 54 197z" />
<glyph unicode="&#xd1;" horiz-adv-x="659" d="M504 770q-49 -43 -84 -43q-23 0 -39 8t-31 17.5t-31 17.5t-43 8t-43 -15.5t-27 -33.5l-37 31v16q20 40 65 58q20 8 53 8t59.5 -17t58.5 -39l62 50zM174 629v-563l67 -10v-56h-179l-8 56l58 12v559l-58 5v59h167l270 -616v550l-64 10v56h178l10 -56l-61 -12v-623h-105z " />
<glyph unicode="&#xd2;" horiz-adv-x="645" d="M415 717l-203 101l36 72l31 7l168 -133zM323 -4q-133 0 -207 110q-66 97 -66 237t66 237q33 49 84.5 80t122.5 31t122.5 -31t84.5 -80q65 -98 65 -237t-65 -237q-33 -49 -84.5 -79.5t-122.5 -30.5zM121 341q0 -114 46 -189q53 -88 156 -88q102 0 155 88q46 75 46 189 q0 115 -46 192q-54 90 -155 90q-102 0 -156 -90q-46 -77 -46 -192z" />
<glyph unicode="&#xd3;" horiz-adv-x="645" d="M208 764l158 133l30 -7l37 -72l-193 -101zM323 -4q-133 0 -207 110q-66 97 -66 237t66 237q33 49 84.5 80t122.5 31t122.5 -31t84.5 -80q65 -98 65 -237t-65 -237q-33 -49 -84.5 -79.5t-122.5 -30.5zM121 341q0 -114 46 -189q53 -88 156 -88q102 0 155 88q46 75 46 189 q0 115 -46 192q-54 90 -155 90q-102 0 -156 -90q-46 -77 -46 -192z" />
<glyph unicode="&#xd4;" horiz-adv-x="645" d="M307 884h16l141 -157h-74l-76 63l-75 -63h-74zM323 -4q-133 0 -207 110q-66 97 -66 237t66 237q33 49 84.5 80t122.5 31t122.5 -31t84.5 -80q65 -98 65 -237t-65 -237q-33 -49 -84.5 -79.5t-122.5 -30.5zM121 341q0 -114 46 -189q53 -88 156 -88q102 0 155 88 q46 75 46 189q0 115 -46 192q-54 90 -155 90q-102 0 -156 -90q-46 -77 -46 -192z" />
<glyph unicode="&#xd5;" horiz-adv-x="645" d="M499 770q-49 -43 -84 -43q-23 0 -39 8t-31 17.5t-31 17.5t-43 8t-43 -15.5t-27 -33.5l-37 31v16q20 40 65 58q20 8 53 8t59.5 -17t58.5 -39l62 50zM323 -4q-133 0 -207 110q-66 97 -66 237t66 237q33 49 84.5 80t122.5 31t122.5 -31t84.5 -80q65 -98 65 -237t-65 -237 q-33 -49 -84.5 -79.5t-122.5 -30.5zM121 341q0 -114 46 -189q53 -88 156 -88q102 0 155 88q46 75 46 189q0 115 -46 192q-54 90 -155 90q-102 0 -156 -90q-46 -77 -46 -192z" />
<glyph unicode="&#xd6;" horiz-adv-x="645" d="M323 -4q-133 0 -207 110q-66 97 -66 237t66 237q33 49 84.5 80t122.5 31t122.5 -31t84.5 -80q65 -98 65 -237t-65 -237q-33 -49 -84.5 -79.5t-122.5 -30.5zM121 341q0 -114 46 -189q53 -88 156 -88q102 0 155 88q46 75 46 189q0 115 -46 192q-54 90 -155 90 q-102 0 -156 -90q-46 -77 -46 -192zM187 793q0 24 16.5 40.5t40 16.5t41 -16.5t17.5 -40.5t-17.5 -41t-41 -17t-40 17t-16.5 41zM363 793q0 24 17.5 40.5t41.5 16.5t40 -16.5t16 -40.5t-16 -41t-40 -17t-41.5 17t-17.5 41z" />
<glyph unicode="&#xd7;" horiz-adv-x="513" d="M54 186l158 154l-153 158l44 44l154 -159l158 154l44 -45l-158 -154l153 -157l-44 -45l-154 159l-158 -153z" />
<glyph unicode="&#xd8;" horiz-adv-x="645" d="M200.5 660q51.5 31 117 31t115.5 -25l39 79h67l-1 -14l-50 -102q55 -51 81 -128t26 -149t-16 -134t-49 -111.5t-84.5 -80t-124 -30.5t-128.5 34l-35 -72h-64l-3 13l50 102q-47 51 -69 123.5t-22 141t16 130.5t49.5 111.5t85 80.5zM224 92q40 -28 97 -28t95 24t62 64 q46 75 46 189q0 144 -68 223zM403 605q-38 18 -86.5 18t-87 -25t-62.5 -65q-46 -77 -46 -192q0 -123 53 -201z" />
<glyph unicode="&#xd9;" horiz-adv-x="628" d="M392 717l-203 101l36 72l31 7l168 -133zM417 631v60h170l4 -56l-55 -8v-425q0 -96 -65 -152q-62 -54 -158 -54t-156 56q-61 57 -61 150v425l-58 4v60h177l4 -56l-55 -8v-414q0 -72 41 -111t114 -39q107 0 143 81q12 28 12 69v414z" />
<glyph unicode="&#xda;" horiz-adv-x="628" d="M219 764l158 133l30 -7l37 -72l-193 -101zM417 631v60h170l4 -56l-55 -8v-425q0 -96 -65 -152q-62 -54 -158 -54t-156 56q-61 57 -61 150v425l-58 4v60h177l4 -56l-55 -8v-414q0 -72 41 -111t114 -39q107 0 143 81q12 28 12 69v414z" />
<glyph unicode="&#xdb;" horiz-adv-x="628" d="M303 884h16l141 -157h-74l-76 63l-75 -63h-74zM417 631v60h170l4 -56l-55 -8v-425q0 -96 -65 -152q-62 -54 -158 -54t-156 56q-61 57 -61 150v425l-58 4v60h177l4 -56l-55 -8v-414q0 -72 41 -111t114 -39q107 0 143 81q12 28 12 69v414z" />
<glyph unicode="&#xdc;" horiz-adv-x="628" d="M417 631v60h170l4 -56l-55 -8v-425q0 -96 -65 -152q-62 -54 -158 -54t-156 56q-61 57 -61 150v425l-58 4v60h177l4 -56l-55 -8v-414q0 -72 41 -111t114 -39q107 0 143 81q12 28 12 69v414zM164 793q0 24 16.5 40.5t40 16.5t41 -16.5t17.5 -40.5t-17.5 -41t-41 -17t-40 17 t-16.5 41zM340 793q0 24 17.5 40.5t41.5 16.5t40 -16.5t16 -40.5t-16 -41t-40 -17t-41.5 17t-17.5 41z" />
<glyph unicode="&#xdd;" horiz-adv-x="539" d="M168 764l158 133l30 -7l37 -72l-193 -101zM189 691v-53l-63 -10l152 -298l140 299l-61 8v54h172v-60l-43 -10l-181 -378v-173l115 -18l-9 -52h-280l-10 52l116 18v187l-187 365l-43 9v60h182z" />
<glyph unicode="&#xde;" horiz-adv-x="500" d="M112 64v563l-57 4v60h177l4 -56l-55 -8v-66h43q175 0 230 -99q21 -37 21 -91q0 -101 -77 -153q-65 -43 -177 -43h-40v-111l110 -13v-51h-228l-5 56zM217 244q132 0 171 64q14 24 14 61.5t-14 61.5t-39 37q-44 24 -131 24h-37v-248h36z" />
<glyph unicode="&#xdf;" horiz-adv-x="511" d="M232 670q-82 0 -82 -111v-559h-115v44l52 11v503q0 83 41 128q39 41 104 41t106.5 -37t41.5 -105q0 -59 -50 -117q-18 -21 -33.5 -36.5t-15.5 -25t2 -17t8 -14.5q12 -15 50.5 -32t66 -34.5t44.5 -38.5q31 -38 31 -104q0 -77 -62 -126q-55 -44 -119 -44q-46 0 -112 24 l24 67l88 -34q55 0 85 33t30 79t-25.5 73.5t-73.5 52t-71.5 48t-23.5 55.5t14 52.5t31.5 40t31.5 42.5t14 48t-5.5 40t-16.5 27q-22 26 -60 26z" />
<glyph unicode="&#xe0;" d="M308 40q-48 -44 -118 -44q-62 0 -104 35q-45 37 -45 92.5t27.5 86.5t67.5 48q64 27 167 30v64q0 32 -24 51t-64 19q-48 0 -69 -13l-16 -53l-82 15q17 52 64 81q42 27 97 27q83 0 120 -38.5t37 -103.5v-258q0 -29 23 -29q9 0 21 5l11 -38q-21 -21 -55 -21q-46 0 -58 44z M128 184q-21 -20 -21 -54t24 -55.5t61 -21.5q75 0 111 55v124q-125 0 -175 -48zM270 554l-140 120l44 53h26l104 -140z" />
<glyph unicode="&#xe1;" d="M308 40q-48 -44 -118 -44q-62 0 -104 35q-45 37 -45 92.5t27.5 86.5t67.5 48q64 27 167 30v64q0 32 -24 51t-64 19q-48 0 -69 -13l-16 -53l-82 15q17 52 64 81q42 27 97 27q83 0 120 -38.5t37 -103.5v-258q0 -29 23 -29q9 0 21 5l11 -38q-21 -21 -55 -21q-46 0 -58 44z M128 184q-21 -20 -21 -54t24 -55.5t61 -21.5q75 0 111 55v124q-125 0 -175 -48zM149 586l104 139h27l44 -52l-140 -120z" />
<glyph unicode="&#xe2;" d="M87 548l116 143h16l116 -141l-3 -6h-55l-66 58l-66 -58h-54zM308 40q-48 -44 -118 -44q-62 0 -104 35q-45 37 -45 92.5t27.5 86.5t67.5 48q64 27 167 30v64q0 32 -24 51t-64 19q-48 0 -69 -13l-16 -53l-82 15q17 52 64 81q42 27 97 27q83 0 120 -38.5t37 -103.5v-258 q0 -29 23 -29q9 0 21 5l11 -38q-21 -21 -55 -21q-46 0 -58 44zM128 184q-21 -20 -21 -54t24 -55.5t61 -21.5q75 0 111 55v124q-125 0 -175 -48z" />
<glyph unicode="&#xe3;" d="M173 600q-41 -4 -58 -46l-43 26l1 17q14 24 35.5 45t57.5 21q22 0 46 -11.5t37.5 -18.5t25.5 -11l53 41l37 -62q-20 -17 -38 -27.5t-40.5 -10.5t-36.5 6t-26.5 12.5t-24.5 12.5t-26 6zM308 40q-48 -44 -118 -44q-62 0 -104 35q-45 37 -45 92.5t27.5 86.5t67.5 48 q64 27 167 30v64q0 32 -24 51t-64 19q-48 0 -69 -13l-16 -53l-82 15q17 52 64 81q42 27 97 27q83 0 120 -38.5t37 -103.5v-258q0 -29 23 -29q9 0 21 5l11 -38q-21 -21 -55 -21q-46 0 -58 44zM128 184q-21 -20 -21 -54t24 -55.5t61 -21.5q75 0 111 55v124q-125 0 -175 -48z " />
<glyph unicode="&#xe4;" d="M103 585q-14 15 -14 34.5t14 34t34 14.5t34.5 -14.5t14.5 -34t-14.5 -34.5t-34.5 -15t-34 15zM242.5 585q-13.5 15 -13.5 34.5t13.5 34t33.5 14.5t34 -14.5t14 -34t-14 -34.5t-34 -15t-33.5 15zM308 40q-48 -44 -118 -44q-62 0 -104 35q-45 37 -45 92.5t27.5 86.5 t67.5 48q64 27 167 30v64q0 32 -24 51t-64 19q-48 0 -69 -13l-16 -53l-82 15q17 52 64 81q42 27 97 27q83 0 120 -38.5t37 -103.5v-258q0 -29 23 -29q9 0 21 5l11 -38q-21 -21 -55 -21q-46 0 -58 44zM128 184q-21 -20 -21 -54t24 -55.5t61 -21.5q75 0 111 55v124 q-125 0 -175 -48z" />
<glyph unicode="&#xe5;" d="M150 536q-26 26 -26 64.5t26 64.5t64 26t64 -26t26 -64.5t-26 -64.5t-64 -26t-64 26zM186.5 628q-10.5 -10 -10.5 -27.5t10.5 -27.5t27.5 -10t27.5 10t10.5 27.5t-10.5 27.5t-27.5 10t-27.5 -10zM308 40q-48 -44 -118 -44q-62 0 -104 35q-45 37 -45 92.5t27.5 86.5 t67.5 48q64 27 167 30v64q0 32 -24 51t-64 19q-48 0 -69 -13l-16 -53l-82 15q17 52 64 81q42 27 97 27q83 0 120 -38.5t37 -103.5v-258q0 -29 23 -29q9 0 21 5l11 -38q-21 -21 -55 -21q-46 0 -58 44zM128 184q-21 -20 -21 -54t24 -55.5t61 -21.5q75 0 111 55v124 q-125 0 -175 -48z" />
<glyph unicode="&#xe6;" horiz-adv-x="698" d="M617 91l18 -55q-23 -18 -52 -28t-76 -10q-105 0 -161 81q-2 -5 -5 -8.5t-5 -7.5q-25 -29 -45 -41q-43 -26 -88 -26t-74 11t-49 29q-39 36 -39 85.5t21 78t55 43.5q54 24 162 24h24v85q0 21 -17 38q-34 32 -80 32q-45 0 -60 -13l-16 -53l-82 15q7 50 58 81q46 27 96 27 q116 0 151 -80q29 39 70.5 60.5t87.5 21.5q69 0 111 -33t42 -89.5t-24.5 -85.5t-62.5 -43q-57 -21 -171 -21h-37q5 -81 57 -123q38 -30 96 -30t95 35zM371 267l56 -1q171 0 171 80q0 38 -27.5 57.5t-57 19.5t-52 -9.5t-41.5 -28.5q-41 -41 -49 -118zM121.5 175.5 q-14.5 -15.5 -14.5 -47t26 -53t65 -21.5t66.5 17.5t38.5 35.5v104h-33q-77 0 -105.5 -10t-43 -25.5z" />
<glyph unicode="&#xe7;" horiz-adv-x="406" d="M186 68q28 -15 78 -15t96 27l17 -49q-39 -30 -101 -34l-10 -29q30 -2 46 -17q31 -26 31 -62.5t-25.5 -60.5t-76.5 -24q-27 0 -46.5 6.5t-37.5 13.5l31 60l55 -34q20 0 33 10t13 25.5t-14.5 28.5t-50.5 13h-6l-13 13l20 57q-89 7 -139 78q-43 62 -43 158q0 167 112 225 q39 21 89 21q89 0 139 -37l-44 -69l-59 47q-8 2 -19 2h-17q-74 0 -108 -61q-27 -49 -27 -129q0 -122 77 -164z" />
<glyph unicode="&#xe8;" horiz-adv-x="443" d="M398 34q-52 -38 -139 -38q-105 0 -163 69q-54 64 -54 167q0 106 55 174q58 73 155 73q63 0 105 -35q44 -36 44 -93t-27.5 -89t-70.5 -49q-71 -28 -192 -28q10 -58 46.5 -95.5t105.5 -37.5t118 36zM125 244q89 0 127 12.5t60.5 33t22.5 58.5q0 37 -27 57q-23 17 -57.5 17 t-60.5 -14.5t-44 -39.5q-36 -51 -38 -124h17zM269 553l-140 120l44 53h26l104 -140z" />
<glyph unicode="&#xe9;" horiz-adv-x="443" d="M398 34q-52 -38 -139 -38q-105 0 -163 69q-54 64 -54 167q0 106 55 174q58 73 155 73q63 0 105 -35q44 -36 44 -93t-27.5 -89t-70.5 -49q-71 -28 -192 -28q10 -58 46.5 -95.5t105.5 -37.5t118 36zM125 244q89 0 127 12.5t60.5 33t22.5 58.5q0 37 -27 57q-23 17 -57.5 17 t-60.5 -14.5t-44 -39.5q-36 -51 -38 -124h17zM177 586l104 139h27l44 -52l-140 -120z" />
<glyph unicode="&#xea;" horiz-adv-x="443" d="M120 548l116 143h16l116 -141l-3 -6h-55l-66 58l-66 -58h-54zM398 34q-52 -38 -139 -38q-105 0 -163 69q-54 64 -54 167q0 106 55 174q58 73 155 73q63 0 105 -35q44 -36 44 -93t-27.5 -89t-70.5 -49q-71 -28 -192 -28q10 -58 46.5 -95.5t105.5 -37.5t118 36zM125 244 q89 0 127 12.5t60.5 33t22.5 58.5q0 37 -27 57q-23 17 -57.5 17t-60.5 -14.5t-44 -39.5q-36 -51 -38 -124h17z" />
<glyph unicode="&#xeb;" horiz-adv-x="443" d="M136 585q-14 15 -14 34.5t14 34t34 14.5t34.5 -14.5t14.5 -34t-14.5 -34.5t-34.5 -15t-34 15zM275.5 585q-13.5 15 -13.5 34.5t13.5 34t33.5 14.5t34 -14.5t14 -34t-14 -34.5t-34 -15t-33.5 15zM398 34q-52 -38 -139 -38q-105 0 -163 69q-54 64 -54 167q0 106 55 174 q58 73 155 73q63 0 105 -35q44 -36 44 -93t-27.5 -89t-70.5 -49q-71 -28 -192 -28q10 -58 46.5 -95.5t105.5 -37.5t118 36zM125 244q89 0 127 12.5t60.5 33t22.5 58.5q0 37 -27 57q-23 17 -57.5 17t-60.5 -14.5t-44 -39.5q-36 -51 -38 -124h17z" />
<glyph unicode="&#xec;" horiz-adv-x="249" d="M160 451v-392l61 -15v-44h-175l-9 43l60 15v358l-54 -4l-9 51l99 18zM174 554l-140 120l44 53h26l104 -140z" />
<glyph unicode="&#xed;" horiz-adv-x="249" d="M160 451v-392l61 -15v-44h-175l-9 43l60 15v358l-54 -4l-9 51l99 18zM39 585l104 139h27l44 -52l-140 -120z" />
<glyph unicode="&#xee;" horiz-adv-x="249" d="M-11 548l116 143h16l116 -141l-4 -6h-54l-66 58l-67 -58h-53zM160 451v-392l61 -15v-44h-175l-9 43l60 15v358l-54 -4l-9 51l99 18z" />
<glyph unicode="&#xef;" horiz-adv-x="249" d="M17 585q-14 15 -14 34.5t14 34t34 14.5t34 -14.5t14 -34t-14 -34.5t-34 -15t-34 15zM145.5 585q-13.5 15 -13.5 34.5t13.5 34t33.5 14.5t34 -14.5t14 -34t-14 -34.5t-34 -15t-33.5 15zM160 451v-392l61 -15v-44h-175l-9 43l60 15v358l-54 -4l-9 51l99 18z" />
<glyph unicode="&#xf0;" horiz-adv-x="511" d="M370 574q89 -123 89 -276q0 -199 -102 -273q-40 -29 -98.5 -29t-97.5 18.5t-65 50.5q-53 63 -53 166q0 99 53 163q54 64 141 64t141 -47q-20 74 -64 133l-117 -62l-28 46l106 61q-49 49 -116 86l29 53q79 -38 143 -106l119 70l33 -59zM237 401q-28 0 -52 -13t-41 -36 q-33 -47 -33 -122q0 -90 45 -138q36 -39 86.5 -39t77.5 21t42 54q26 55 28 147q-6 59 -53 95q-41 31 -100 31z" />
<glyph unicode="&#xf1;" horiz-adv-x="505" d="M216 600q-41 -4 -58 -46l-43 26l1 17q14 24 35.5 45t57.5 21q22 0 46 -11.5t37.5 -18.5t25.5 -11l53 41l37 -62q-20 -17 -38 -27.5t-40.5 -10.5t-36.5 6t-26.5 12.5t-24.5 12.5t-26 6zM273 422q-67 0 -115 -42v-321l61 -15v-44h-173l-6 43l55 15v362l-54 -4l-9 47l101 18 l22 -41q56 39 124 39t105 -36.5t37 -108.5v-276l61 -14v-44h-180l-4 44l60 14v269q0 95 -85 95z" />
<glyph unicode="&#xf2;" horiz-adv-x="489" d="M42 241q0 47 13 91t39 77q55 72 150 72q101 0 154 -74q49 -67 49 -167t-49 -168q-53 -76 -154 -76q-97 0 -153 76q-49 67 -49 169zM115 290.5q-7 -34.5 -7 -64.5t7.5 -61t24.5 -55q37 -56 104 -56q71 0 107 58q30 49 30 123q0 121 -73 171q-26 17 -64.5 17t-64.5 -20 t-41.5 -49t-22.5 -63.5zM317 553l-140 120l44 53h26l104 -140z" />
<glyph unicode="&#xf3;" horiz-adv-x="489" d="M42 241q0 47 13 91t39 77q55 72 150 72q101 0 154 -74q49 -67 49 -167t-49 -168q-53 -76 -154 -76q-97 0 -153 76q-49 67 -49 169zM115 290.5q-7 -34.5 -7 -64.5t7.5 -61t24.5 -55q37 -56 104 -56q71 0 107 58q30 49 30 123q0 121 -73 171q-26 17 -64.5 17t-64.5 -20 t-41.5 -49t-22.5 -63.5zM170 586l104 139h27l44 -52l-140 -120z" />
<glyph unicode="&#xf4;" horiz-adv-x="489" d="M122 548l116 143h16l115 -141l-3 -6h-54l-67 58l-66 -58h-53zM42 241q0 47 13 91t39 77q55 72 150 72q101 0 154 -74q49 -67 49 -167t-49 -168q-53 -76 -154 -76q-97 0 -153 76q-49 67 -49 169zM115 290.5q-7 -34.5 -7 -64.5t7.5 -61t24.5 -55q37 -56 104 -56 q71 0 107 58q30 49 30 123q0 121 -73 171q-26 17 -64.5 17t-64.5 -20t-41.5 -49t-22.5 -63.5z" />
<glyph unicode="&#xf5;" horiz-adv-x="489" d="M195 600q-41 -4 -58 -46l-43 26l1 17q14 24 35.5 45t57.5 21q22 0 46 -11.5t37.5 -18.5t25.5 -11l53 41l37 -62q-20 -17 -38 -27.5t-40.5 -10.5t-36.5 6t-26.5 12.5t-24.5 12.5t-26 6zM42 241q0 47 13 91t39 77q55 72 150 72q101 0 154 -74q49 -67 49 -167t-49 -168 q-53 -76 -154 -76q-97 0 -153 76q-49 67 -49 169zM115 290.5q-7 -34.5 -7 -64.5t7.5 -61t24.5 -55q37 -56 104 -56q71 0 107 58q30 49 30 123q0 121 -73 171q-26 17 -64.5 17t-64.5 -20t-41.5 -49t-22.5 -63.5z" />
<glyph unicode="&#xf6;" horiz-adv-x="489" d="M146 585q-14 15 -14 34.5t14 34t34 14.5t34.5 -14.5t14.5 -34t-14.5 -34.5t-34.5 -15t-34 15zM285.5 585q-13.5 15 -13.5 34.5t13.5 34t33.5 14.5t34 -14.5t14 -34t-14 -34.5t-34 -15t-33.5 15zM42 241q0 47 13 91t39 77q55 72 150 72q101 0 154 -74q49 -67 49 -167 t-49 -168q-53 -76 -154 -76q-97 0 -153 76q-49 67 -49 169zM115 290.5q-7 -34.5 -7 -64.5t7.5 -61t24.5 -55q37 -56 104 -56q71 0 107 58q30 49 30 123q0 121 -73 171q-26 17 -64.5 17t-64.5 -20t-41.5 -49t-22.5 -63.5z" />
<glyph unicode="&#xf7;" horiz-adv-x="414" d="M56 360h302v-63h-302v63zM172.5 145q-15.5 15 -15.5 36.5t15.5 37t37 15.5t36.5 -15.5t15 -37t-15 -36.5t-36.5 -15t-37 15zM172.5 435q-15.5 15 -15.5 36.5t15.5 37t37 15.5t36.5 -15.5t15 -37t-15 -36.5t-36.5 -15t-37 15z" />
<glyph unicode="&#xf8;" horiz-adv-x="489" d="M156.5 461.5q37.5 19.5 84 19.5t89.5 -18l69 139h51l-1 -15l-76 -152q38 -34 56 -86t18 -104t-12 -95.5t-37 -77.5q-53 -76 -154 -76q-44 0 -82 16l-51 -102h-48l-3 13l59 118q-40 35 -58.5 88t-18.5 106t13 97t38.5 77t63 52.5zM302 408q-26 15 -61.5 15t-61.5 -20 t-41 -49q-30 -55 -30 -126q0 -79 40 -129zM189 66q24 -12 58.5 -12t61 16t42.5 42q30 49 30 123q0 81 -39 138z" />
<glyph unicode="&#xf9;" horiz-adv-x="490" d="M348 37q-50 -41 -117 -41q-102 0 -137 84q-12 30 -12 76v259h-54l-9 48l101 18l25 -28v-294q0 -67 37 -91q22 -14 56.5 -14t64 14t41.5 33v314h-54l-7 48l100 19l24 -29v-380q0 -22 23 -22l18 3l8 -35q-6 -7 -21 -15t-36 -8q-40 0 -51 41zM266 553l-140 120l44 53h26 l104 -140z" />
<glyph unicode="&#xfa;" horiz-adv-x="490" d="M348 37q-50 -41 -117 -41q-102 0 -137 84q-12 30 -12 76v259h-54l-9 48l101 18l25 -28v-294q0 -67 37 -91q22 -14 56.5 -14t64 14t41.5 33v314h-54l-7 48l100 19l24 -29v-380q0 -22 23 -22l18 3l8 -35q-6 -7 -21 -15t-36 -8q-40 0 -51 41zM170 586l104 139h27l44 -52 l-140 -120z" />
<glyph unicode="&#xfb;" horiz-adv-x="490" d="M114 548l116 143h16l116 -141l-4 -6h-54l-66 58l-67 -58h-53zM348 37q-50 -41 -117 -41q-102 0 -137 84q-12 30 -12 76v259h-54l-9 48l101 18l25 -28v-294q0 -67 37 -91q22 -14 56.5 -14t64 14t41.5 33v314h-54l-7 48l100 19l24 -29v-380q0 -22 23 -22l18 3l8 -35 q-6 -7 -21 -15t-36 -8q-40 0 -51 41z" />
<glyph unicode="&#xfc;" horiz-adv-x="490" d="M144 585q-14 15 -14 34.5t14 34t34 14.5t34 -14.5t14 -34t-14 -34.5t-34 -15t-34 15zM282.5 585q-13.5 15 -13.5 34.5t13.5 34t33.5 14.5t34.5 -14.5t14.5 -34t-14.5 -34.5t-34.5 -15t-33.5 15zM348 37q-50 -41 -117 -41q-102 0 -137 84q-12 30 -12 76v259h-54l-9 48 l101 18l25 -28v-294q0 -67 37 -91q22 -14 56.5 -14t64 14t41.5 33v314h-54l-7 48l100 19l24 -29v-380q0 -22 23 -22l18 3l8 -35q-6 -7 -21 -15t-36 -8q-40 0 -51 41z" />
<glyph unicode="&#xfd;" horiz-adv-x="449" d="M42 -185q30 -30 58 -30q36 0 62 63q6 17 11 32l26 73l-154 472h-34l-8 49l95 6l137 -426l132 371h-36l-8 49l96 6l17 -35q-48 -131 -103 -281.5t-88 -238t-43 -111t-24 -42.5q-32 -45 -79 -45q-42 0 -88 36zM176 586l104 139h27l44 -52l-140 -120z" />
<glyph unicode="&#xfe;" horiz-adv-x="486" d="M135 24l3 -73v-159l121 -21v-44h-234l-9 44l59 14v885l-61 -4l-8 51l105 18l27 -29v-262q43 37 110 37q83 0 138 -63q58 -67 58 -175q0 -132 -74 -197q-31 -28 -67 -39t-64 -11q-61 0 -104 28zM174 65q25 -11 53.5 -11t54 7.5t46.5 28.5q49 47 49 147t-46 148 q-36 38 -89 38q-34 0 -62.5 -14t-41.5 -38v-284q11 -11 36 -22z" />
<glyph unicode="&#xff;" horiz-adv-x="449" d="M124 585q-14 15 -14 34.5t14 34t34 14.5t34 -14.5t14 -34t-14 -34.5t-34 -15t-34 15zM262.5 585q-13.5 15 -13.5 34.5t13.5 34t33.5 14.5t34.5 -14.5t14.5 -34t-14.5 -34.5t-34.5 -15t-33.5 15zM42 -185q30 -30 58 -30q36 0 62 63q6 17 11 32l26 73l-154 472h-34l-8 49 l95 6l137 -426l132 371h-36l-8 49l96 6l17 -35q-48 -131 -103 -281.5t-88 -238t-43 -111t-24 -42.5q-32 -45 -79 -45q-42 0 -88 36z" />
<glyph unicode="&#x152;" horiz-adv-x="858" d="M387 0q-28 -4 -56 -4q-136 0 -214 110q-69 98 -69 237q0 61 17.5 124t52 113.5t86 82.5t119.5 32h12q34 0 62 -4h391l20 -171h-48l-34 103h-210v-246h172v-63h-172v-246h220l35 103h47l-19 -171h-412zM236 88q40 -24 104.5 -24t106.5 38v489q-23 20 -49 26.5t-69.5 6.5 t-84 -25t-68.5 -65q-57 -85 -57 -193q0 -112 51 -189q26 -40 66 -64z" />
<glyph unicode="&#x153;" horiz-adv-x="782" d="M414 96q-53 -100 -170 -100q-97 0 -153 76q-49 67 -49 168q0 102 52 169q55 72 150 72q66 0 108.5 -29.5t65.5 -76.5q28 48 73 76.5t100 28.5q63 0 105 -34q44 -37 44 -94t-26 -89t-68 -49q-68 -28 -196 -28q10 -58 46.5 -95.5t105.5 -37.5t118 36l17 -54 q-52 -38 -139 -38q-127 0 -184 99zM115 290.5q-7 -34.5 -7 -64.5t7.5 -61t24.5 -55q37 -56 104 -56q69 0 105 56q30 45 32 118v7q0 121 -73 171q-26 17 -64.5 17t-64.5 -20t-41.5 -49t-22.5 -63.5zM464 245q89 0 127 12.5t60.5 33t22.5 58.5q0 37 -27 57q-23 17 -57.5 17 t-60.5 -14.5t-43 -38.5q-37 -52 -39 -125h17z" />
<glyph unicode="&#x2000;" />
<glyph unicode="&#x2001;" horiz-adv-x="897" />
<glyph unicode="&#x2002;" />
<glyph unicode="&#x2003;" horiz-adv-x="897" />
<glyph unicode="&#x2004;" horiz-adv-x="299" />
<glyph unicode="&#x2005;" horiz-adv-x="224" />
<glyph unicode="&#x2006;" horiz-adv-x="149" />
<glyph unicode="&#x2007;" horiz-adv-x="149" />
<glyph unicode="&#x2008;" horiz-adv-x="112" />
<glyph unicode="&#x2009;" horiz-adv-x="179" />
<glyph unicode="&#x200a;" horiz-adv-x="49" />
<glyph unicode="&#x2010;" horiz-adv-x="377" d="M63 251v55l8 8h237q6 0 6 -7v-56h-251z" />
<glyph unicode="&#x2011;" horiz-adv-x="377" d="M63 251v55l8 8h237q6 0 6 -7v-56h-251z" />
<glyph unicode="&#x2012;" horiz-adv-x="377" d="M63 251v55l8 8h237q6 0 6 -7v-56h-251z" />
<glyph unicode="&#x2013;" horiz-adv-x="495" d="M61 363h371v-62h-371v62z" />
<glyph unicode="&#x2014;" horiz-adv-x="725" d="M61 363h601v-62h-601v62z" />
<glyph unicode="&#x2018;" horiz-adv-x="187" d="M57 449q-11 39 -11 82q0 86 56 169l43 -25v-10l-33 -87l23 -116z" />
<glyph unicode="&#x2019;" horiz-adv-x="181" d="M129 701q11 -44 11 -85q0 -83 -56 -166l-43 25v10l33 87l-23 116z" />
<glyph unicode="&#x201a;" horiz-adv-x="207" d="M129 136q24 -48 24 -82.5t-8 -59t-19 -45.5q-18 -33 -45 -64l-36 22v14l39 88l-39 99z" />
<glyph unicode="&#x201c;" horiz-adv-x="295" d="M170 475q-11 39 -11 82q0 86 56 169l43 -25v-10l-33 -87l23 -116zM147 691l-33 -87l23 -129l-78 -16q-1 3 -2.5 13t-3.5 23q-5 33 -5 69q0 79 56 162l43 -25v-10z" />
<glyph unicode="&#x201d;" horiz-adv-x="292" d="M129 701q11 -44 11 -85q0 -83 -56 -166l-43 25v10l33 87l-23 116zM152 485l33 87l-23 129l78 16q11 -44 11 -93q0 -91 -56 -174l-43 25v10z" />
<glyph unicode="&#x201e;" horiz-adv-x="321" d="M125 136q24 -48 24 -82.5t-8 -59t-19 -45.5q-18 -33 -45 -64l-36 22v14l39 88l-39 99zM159 -79l39 88l-39 122l84 25q12 -24 18 -60t6 -56.5t-8 -45t-19 -45.5q-18 -33 -45 -64l-36 22v14z" />
<glyph unicode="&#x2022;" horiz-adv-x="252" d="M49 383q0 32 22.5 55t54.5 23t55 -23t23 -55t-23 -54.5t-55 -22.5t-54.5 22.5t-22.5 54.5z" />
<glyph unicode="&#x202f;" horiz-adv-x="179" />
<glyph unicode="&#x2039;" horiz-adv-x="351" d="M14 314l273 216l5 -2v-70l-198 -157l198 -156v-72l-6 -3l-272 218v26z" />
<glyph unicode="&#x203a;" horiz-adv-x="351" d="M337 288l-272 -218l-6 3v72l198 156l-198 157v70l5 2l273 -216v-26z" />
<glyph unicode="&#x205f;" horiz-adv-x="224" />
<glyph unicode="&#x20ac;" horiz-adv-x="573" d="M504 99l25 -61q-26 -18 -68 -30t-95.5 -12t-100.5 18.5t-79 51.5q-62 63 -77 181h-75v63h70v40q0 10 1 21h-71v63h77q29 185 155 238q44 19 93 19q82 0 145 -13l22 -158h-57l-28 98q-8 1 -22.5 3t-52 2t-70.5 -14.5t-56 -39.5q-42 -46 -58 -135h275v-63h-281 q-1 -8 -1 -17v-44h281v-63h-275q13 -86 55 -131q49 -52 131 -52t137 35z" />
<glyph unicode="&#xe000;" horiz-adv-x="480" d="M0 480h480v-480h-480v480z" />
</font>
</defs>
</svg>
