<?xml version="1.0" standalone="no"?>
<!DOCTYPE svg PUBLIC "-//W3C//DTD SVG 1.1//EN" "http://www.w3.org/Graphics/SVG/1.1/DTD/svg11.dtd" >
<svg xmlns="http://www.w3.org/2000/svg">
<metadata></metadata>
<defs>
<font id="risqueregular" horiz-adv-x="511" >
<font-face units-per-em="1000" ascent="800" descent="-200" />
<missing-glyph horiz-adv-x="260" />
<glyph unicode="&#xfb01;" horiz-adv-x="603" d="M7 372l67 107q9 108 74.5 161t175.5 53q29 0 56.5 -2.5t58.5 -7.5t42 -6q30 0 51.5 -21t21.5 -51q0 -29 -22 -50.5t-51 -21.5q-49 0 -68 43q-48 63 -124 63q-58 0 -82.5 -43.5t-30.5 -135.5l373 27l-38 -392l105 -65l-247 -35l82 64l-23 357l-255 -27v-11 q0 -62 -3.5 -164.5t-3.5 -144.5l113 -63h-263l88 60q-18 167 -26 313z" />
<glyph unicode="&#xfb02;" horiz-adv-x="575" d="M7 372l67 107q8 93 62.5 152.5t137.5 59.5q135 0 248 -61l-45 -569l98 -39l-245 -24l91 72l-18 518q-41 52 -111 52q-59 0 -84.5 -45.5t-31.5 -139.5h177l-36 -45l-144 -18v-14q0 -62 -3.5 -164.5t-3.5 -144.5l113 -63h-263l88 60q-18 169 -26 314z" />
<glyph horiz-adv-x="0" />
<glyph unicode="&#xd;" horiz-adv-x="1000" />
<glyph unicode=" "  horiz-adv-x="260" />
<glyph unicode="&#x09;" horiz-adv-x="260" />
<glyph unicode="&#xa0;" horiz-adv-x="260" />
<glyph unicode="!" horiz-adv-x="270" d="M46 28q0 30 24.5 46t49.5 16q24 0 49 -16t25 -46q0 -28 -25 -43.5t-49 -15.5q-25 0 -49.5 15.5t-24.5 43.5zM93 148l2 532l129 -16l-73 -519z" />
<glyph unicode="&#x22;" horiz-adv-x="320" d="M32 698l126 7l-47 -258l-33 3zM172 668l126 17l-47 -238l-33 3z" />
<glyph unicode="#" horiz-adv-x="510" d="M32 240l5 53l93 4l3 73h-74l5 50l71 5l6 140l104 19l-26 -152l63 5l20 171l124 -17l-39 -146l92 8l-19 -81l-93 -1l-18 -66l85 4l-21 -88l-86 4l-33 -122l-50 7l14 118l-73 4l-21 -127l-41 2l5 128zM197 299l69 3l8 69h-65z" />
<glyph unicode="$" horiz-adv-x="397" d="M31 93l19 194q26 -56 70 -91t96 -35q31 0 49.5 13t18.5 37q0 23 -25 37.5t-60 24t-70.5 23t-60.5 44t-25 75.5q0 34 13 58.5t34.5 37t41 18t40.5 6.5l-27 226l87 -11l-26 -215q55 -6 92 -36l65 80l-29 -196q-11 45 -47.5 78t-87.5 33q-33 0 -54.5 -15t-21.5 -45 q0 -27 24.5 -42.5t60 -24.5t71 -20t60 -37.5t24.5 -69.5q0 -59 -41.5 -90t-94.5 -31q-16 0 -24 1l19 -215l-71 16l24 205q-47 13 -85 46z" />
<glyph unicode="%" horiz-adv-x="644" d="M32 487q0 78 45 112t105 34q54 0 95 -33.5t41 -99.5q0 -62 -39 -106t-111 -45q-53 2 -94.5 36t-41.5 102zM106 470q0 -46 17.5 -70t48.5 -24q33 0 51.5 40t18.5 95q0 95 -60 95q-35 0 -55.5 -34t-20.5 -102zM147 107l301 499l72 -48l-346 -470zM326 177q0 78 44.5 112 t105.5 34q54 0 95 -33.5t41 -99.5q0 -62 -39 -106t-111 -45q-53 2 -94.5 36t-41.5 102zM400 160q0 -94 66 -94q33 0 51.5 40t18.5 95q0 95 -60 95q-35 0 -55.5 -34t-20.5 -102z" />
<glyph unicode="&#x26;" horiz-adv-x="607" d="M15 147q0 35 11.5 65t27 50t43.5 41t47 32t53 28q-36 87 -36 155q0 67 43.5 106t107.5 39q55 0 84.5 -29.5t29.5 -76.5q0 -46 -26.5 -93.5t-73.5 -81.5q-3 -2 -7.5 -6t-5.5 -4q39 -87 109 -177q31 54 31 110q0 50 -20 84q1 0 9.5 -4.5t21.5 -14.5t25 -23.5t21 -36 t9 -47.5q-2 -58 -51 -124l49 -53l100 19l-127 -115q-39 30 -89 80q-96 -74 -214 -74q-87 0 -129.5 40t-42.5 111zM140 172q0 -44 29.5 -72t73.5 -28q55 0 111 46q-76 86 -130 186q-84 -69 -84 -132zM278 529q-3 -51 16 -109q33 28 50.5 63t17.5 70q0 60 -42 60 q-13 0 -21.5 -6t-12.5 -20t-5.5 -25.5t-2.5 -32.5z" />
<glyph unicode="'" horiz-adv-x="181" d="M32 698l126 7l-47 -258l-33 3z" />
<glyph unicode="(" horiz-adv-x="295" d="M30 340q0 69 15 129.5t39 103t53 78t58.5 57t53.5 36.5t39 21l15 6q-6 -7 -16.5 -19.5t-37.5 -56t-47 -90t-37 -119t-17 -146.5q0 -72 16 -141.5t39 -117.5t45.5 -85t38.5 -55l16 -18q-6 1 -15.5 4.5t-38 17.5t-54.5 32t-57.5 52.5t-54 75.5t-38 102.5t-15.5 132.5z" />
<glyph unicode=")" horiz-adv-x="295" d="M-6 -77q6 6 16.5 18.5t37.5 54t47 86.5t37 115.5t17 142.5q0 74 -16 145.5t-38.5 121t-45.5 88t-39 57.5l-16 19q11 -4 29.5 -12.5t65.5 -43t83 -78.5t65.5 -123.5t29.5 -173.5q0 -71 -15 -132.5t-39 -103t-53 -75t-58.5 -52.5t-53.5 -32t-39 -17z" />
<glyph unicode="*" horiz-adv-x="430" d="M35 460l137 43l-131 36l62 107l89 -93l-43 139l138 7l-48 -153l105 100l57 -90l-138 -43l132 -36l-62 -107l-90 92l44 -138l-138 -7l48 152l-105 -99z" />
<glyph unicode="+" horiz-adv-x="400" d="M30 301l5 73l114 3l-2 138l110 -9l-7 -126l119 4l-13 -104l-111 7l-8 -145l-83 5l-3 146z" />
<glyph unicode="," horiz-adv-x="230" d="M33 33q0 27 26.5 42t52.5 15t50.5 -15t24.5 -42q0 -46 -33 -75.5t-85 -42.5q2 3 7 11t7 11t4.5 10t3.5 14t1 16q-22 5 -40.5 19.5t-18.5 36.5z" />
<glyph unicode="-" horiz-adv-x="434" d="M54 301l5 73l321 27v-121z" />
<glyph unicode="." horiz-adv-x="222" d="M33 28q0 30 24.5 46t49.5 16q24 0 49 -16t25 -46q0 -28 -25 -43.5t-49 -15.5q-25 0 -49.5 15.5t-24.5 43.5z" />
<glyph unicode="/" horiz-adv-x="472" d="M15 7l322 666l123 -29l-402 -661z" />
<glyph unicode="0" horiz-adv-x="607" d="M41 325q0 83 16 147t42 104t62.5 66t75 36t82.5 10q109 0 179 -81t70 -251q0 -59 -8.5 -111.5t-28.5 -102t-51 -84.5t-79.5 -56.5t-109.5 -22.5q-104 3 -177 88t-73 258zM161 280q0 -117 37 -185.5t100 -68.5q46 0 80.5 54.5t50 134t15.5 168.5q0 123 -34 190t-91 67 q-72 0 -115 -93.5t-43 -266.5z" />
<glyph unicode="1" horiz-adv-x="329" d="M3 4l102 61l44 513l-128 62l199 33v-608l94 -70z" />
<glyph unicode="2" horiz-adv-x="575" d="M26 -4q42 187 220 268q155 70 155 184q0 69 -40.5 101t-98.5 32q-59 0 -105.5 -42t-67.5 -101l-63 254l77 -118q22 33 49.5 55.5t54 31.5t44 12t32.5 3q103 0 172.5 -57t69.5 -156q0 -31 -5.5 -56.5t-13.5 -44t-24.5 -35t-29.5 -27t-38 -23t-40.5 -19t-46.5 -18.5 t-48 -19q-48 -20 -75 -56.5t-38 -107.5l278 58l64 121l5 -224z" />
<glyph unicode="3" horiz-adv-x="577" d="M29 735l53 -80h464l-294 -233q127 -2 208.5 -54t81.5 -154q0 -51 -17.5 -92t-44.5 -67t-62 -44t-68.5 -25.5t-65.5 -7.5q-33 0 -70 9t-76 28.5t-64 58t-25 89.5q0 89 114 123q-33 -53 -33 -111q0 -59 34.5 -98.5t100.5 -39.5q79 0 114.5 41t35.5 105q0 49 -23 86 t-61 57.5t-79.5 30t-85.5 9.5q-18 0 -27 -1l158 192l-187 37l-41 -100z" />
<glyph unicode="4" horiz-adv-x="619" d="M22 217l104 365l-85 51l310 38l-104 -60l-129 -302l285 -11l-8 286l-81 41l298 30l-97 -64l-40 -503l129 -60l-314 -36l118 102l-4 145z" />
<glyph unicode="5" horiz-adv-x="583" d="M27 176q0 14 4.5 30.5t16 36.5t37 33t60.5 13h7q-33 -47 -33 -111q0 -59 32 -102t94 -43q45 0 78.5 17.5t51.5 46.5t26.5 60.5t8.5 66.5q0 76 -50.5 125.5t-132.5 49.5q-128 0 -176 -38l37 276l385 28l65 72l-44 -270l-26 90l-322 27l12 -129q24 7 57 10.5t53 4.5h21 q99 0 171 -65t72 -172q0 -56 -16.5 -101t-43 -72.5t-63 -46t-74 -26t-78.5 -7.5q-108 0 -169 58t-61 138z" />
<glyph unicode="6" horiz-adv-x="597" d="M37 291q0 72 19.5 140.5t56.5 125t97 91t134 34.5q101 0 151 -42.5t50 -102.5q0 -30 -12.5 -56.5t-34.5 -39.5q-3 86 -49.5 136.5t-105.5 50.5q-88 0 -135.5 -78t-50.5 -211q78 92 185 92q95 0 154 -66.5t59 -157.5q0 -106 -66.5 -171.5t-187.5 -65.5q-109 0 -186.5 90 t-77.5 231zM158 269q8 -129 51.5 -186.5t100.5 -57.5q58 2 91.5 47t33.5 132q0 61 -31.5 108t-91.5 47q-91 0 -154 -90z" />
<glyph unicode="7" horiz-adv-x="510" d="M17 723l70 -83l420 10l-258 -572l127 -68l-309 -14l101 70l162 480l-229 37l-45 -144z" />
<glyph unicode="8" horiz-adv-x="586" d="M28 184q0 59 35 112.5t100 72.5q-36 22 -54.5 59.5t-18.5 72.5q0 88 60 135.5t148 47.5q86 0 147 -50.5t61 -132.5q0 -38 -22.5 -75t-63.5 -61q57 -18 95 -69t38 -112q0 -101 -75.5 -157t-186.5 -56q-107 0 -185 61t-78 152zM148 184q0 -71 46 -113.5t97 -42.5 q55 0 99 42t44 114q0 66 -45.5 111t-97.5 45q-51 0 -97 -42.5t-46 -113.5zM196 500q0 -50 29 -82t70 -32q50 0 74 38t24 86q0 53 -30.5 89t-70.5 36q-39 0 -67.5 -37.5t-28.5 -97.5z" />
<glyph unicode="9" horiz-adv-x="596" d="M43 445q0 106 66.5 171.5t187.5 65.5q109 0 186.5 -90t77.5 -231q0 -72 -19.5 -140.5t-56.5 -125t-97 -91t-134 -34.5q-101 0 -151 42.5t-50 102.5q0 30 12.5 56.5t34.5 39.5q3 -86 49.5 -136.5t105.5 -50.5q88 0 135.5 78t50.5 210q-78 -91 -185 -91q-95 0 -154 66.5 t-59 157.5zM163 448q0 -61 31.5 -108t91.5 -47q91 0 153 89q-8 130 -51 187.5t-100 57.5q-58 -2 -91.5 -47t-33.5 -132z" />
<glyph unicode=":" horiz-adv-x="263" d="M56 28q0 30 24.5 46t49.5 16q24 0 49 -16t25 -46q0 -28 -25 -43.5t-49 -15.5q-25 0 -49.5 15.5t-24.5 43.5zM56 398q0 30 24.5 46t49.5 16q24 0 49 -16t25 -46q0 -28 -25 -43.5t-49 -15.5q-25 0 -49.5 15.5t-24.5 43.5z" />
<glyph unicode=";" horiz-adv-x="269" d="M56 33q0 27 26.5 42t52.5 15t50 -15t24 -42q0 -46 -32.5 -75.5t-84.5 -42.5q2 3 7 11t7 11t4.5 10t3.5 14t1 16q-22 5 -40.5 19.5t-18.5 36.5zM56 398q0 30 25.5 46t51.5 16q24 0 50 -16.5t26 -45.5q0 -28 -26 -43.5t-50 -15.5q-26 0 -51.5 15.5t-25.5 43.5z" />
<glyph unicode="&#x3c;" horiz-adv-x="385" d="M30 337l259 221l50 -114l-237 -104l239 -82l-45 -122z" />
<glyph unicode="=" horiz-adv-x="442" d="M62 316l313 -20l8 -74l-319 -13zM62 444l321 27l-8 -121l-308 21z" />
<glyph unicode="&#x3e;" horiz-adv-x="384" d="M44 258l238 82l-236 104l50 114l259 -221l-266 -201z" />
<glyph unicode="?" horiz-adv-x="609" d="M38 743l83 -120q62 44 162 44q126 0 214 -50.5t88 -138.5q0 -58 -26.5 -93.5t-64 -52t-75 -32t-64 -48t-26.5 -84.5q0 -8 2 -30h-108q-2 10 -2 25q0 105 108 156q112 52 112 157q0 60 -43.5 93t-103.5 33q-49 0 -85 -12.5t-63 -45.5t-37 -50.5t-32 -66.5l-6 -12zM197 28 q0 30 24.5 46t49.5 16q24 0 49 -16t25 -46q0 -28 -25 -43.5t-49 -15.5q-25 0 -49.5 15.5t-24.5 43.5z" />
<glyph unicode="@" horiz-adv-x="666" d="M32 228q0 71 22 129t55.5 93.5t77 59.5t83.5 33.5t78 9.5q37 0 74 -9t75.5 -31.5t67.5 -56.5t47.5 -89t18.5 -124q0 -57 -10 -101t-27.5 -69.5t-35 -42t-40 -22.5t-34.5 -8t-26 -2q-27 0 -46.5 14t-19.5 42q0 19 3 40q-39 -40 -104 -40q-47 0 -70.5 24t-23.5 66t38.5 72 t101.5 30q38 0 68 -13q-8 104 -68 104q-31 0 -59 -26t-48 -71l-21 156l38 -58q48 53 114 53q51 -2 83 -36.5t32 -94.5q0 -39 -15.5 -108t-15.5 -85q0 -25 21 -25q33 0 57 56.5t24 154.5q0 245 -195 245q-108 0 -171.5 -78.5t-63.5 -197.5q0 -57 19 -100.5t47 -66t54.5 -33.5 t47.5 -11q22 0 45.5 9.5t35.5 19.5l12 9q0 -35 -40 -63t-78 -28q-35 0 -73 15.5t-73.5 46t-58.5 85t-23 123.5zM275 145q0 -45 42 -45q49 0 88 60q2 20 2 33q-31 12 -64 12q-32 0 -50 -19t-18 -41z" />
<glyph unicode="A" horiz-adv-x="640" d="M-51 60l144 14l41 138h-24l-41 52l83 9l88 295l-100 52l283 71l147 -590l116 -17l-275 -117l94 119l-55 136l-252 -8l-51 -145l94 -124zM221 281l195 22l-100 248z" />
<glyph unicode="B" horiz-adv-x="611" d="M-22 14l118 73l35 516l-128 83l367 -6q84 0 150.5 -48t66.5 -130q0 -147 -157 -174q36 -13 61.5 -34t38 -45t17.5 -43.5t5 -36.5q0 -42 -15.5 -74.5t-40 -51.5t-58 -31t-66 -16t-68.5 -4t-326 22zM221 65q41 -7 78 -7q58 0 98 28t40 93q0 45 -40 83.5t-125 38.5 q-34 0 -51 -1v-235zM221 354q17 -1 48 -1q53 0 91.5 14t56.5 31t28 41t11.5 36t1.5 24q0 9 -1.5 20t-12 31.5t-29 36t-56.5 27.5t-90 13q-24 0 -48 -3v-270z" />
<glyph unicode="C" horiz-adv-x="589" d="M31 324q0 84 26 153.5t68.5 113.5t95.5 68t108 24q109 0 171 -68l119 95l-136 -292l-12 142q-46 56 -120 56q-80 0 -133 -78.5t-53 -206.5t53 -210t129 -82q70 0 107 61t37 134q0 17 -1 26q62 -41 62 -103q0 -60 -55 -114t-145 -54q-61 0 -116.5 19.5t-102.5 58 t-74.5 105t-27.5 152.5z" />
<glyph unicode="D" horiz-adv-x="613" d="M-23 8l133 61l45 504l-151 68q56 13 125.5 20.5t110.5 8.5l42 1q53 0 104 -19t96.5 -56.5t73.5 -103.5t28 -151q0 -76 -27.5 -137t-71.5 -99t-104 -63.5t-121 -35.5t-127 -10q-77 0 -156 12zM231 61q239 34 239 299q0 42 -9 82t-30 80t-61.5 64.5t-95.5 24.5 q-21 0 -43 -3v-547z" />
<glyph unicode="E" horiz-adv-x="580" d="M-13 -4l122 125l34 450l-147 72l523 37l9 -229l-91 163l-223 -36l7 -231l51 7l101 134l7 -308l-88 126l-70 -10l6 -202l219 -20l82 205l8 -261z" />
<glyph unicode="F" horiz-adv-x="527" d="M-11 671l532 19v-238l-78 167l-249 -49l9 -179h74l81 118v-297l-85 131l-67 -8l13 -244l144 -61l-373 -40l106 95l26 468z" />
<glyph unicode="G" horiz-adv-x="615" d="M32 318q0 80 23 143.5t57.5 101t78 62.5t80.5 34t70 9q10 0 26 -2t55.5 -17.5t66.5 -42.5l111 84l-146 -263v137q-46 44 -118 44q-74 -3 -126.5 -82.5t-52.5 -203.5q0 -127 54 -203.5t136 -76.5q62 0 108 58l-17 126l-119 62l306 37l-80 -80l-17 -268l-44 83 q-77 -79 -181 -79q-48 0 -94.5 20t-86.5 59t-65 106t-25 152z" />
<glyph unicode="H" horiz-adv-x="673" d="M-19 684l340 -5l-95 -52l-13 -242l252 -8l6 203l-90 54l289 18l-110 -90l18 -491l101 -67l-347 -2l123 82l8 230l-254 5l-11 -201l72 -72h-238l84 68l-29 506z" />
<glyph unicode="I" horiz-adv-x="339" d="M-16 -12l119 99l30 473l-102 80l297 -18l-113 -91l14 -442l101 -71z" />
<glyph unicode="J" horiz-adv-x="575" d="M1 178q0 57 35.5 100.5t89.5 43.5q23 0 50 -9q-25 -14 -41.5 -35t-23.5 -42.5t-9 -35t-2 -24.5q0 -66 34.5 -106.5t89.5 -40.5q69 0 109.5 57.5t40.5 163.5q0 137 -27 315l-130 77l382 28l-104 -79q1 -39 1 -106q0 -105 -5 -185t-11 -107l-5 -27q-22 -79 -83 -135 t-160 -56q-111 0 -171 61t-60 142z" />
<glyph unicode="K" horiz-adv-x="679" d="M-22 -5l132 97l10 512l-123 69l327 12l-122 -78l12 -312l208 332l-36 58l310 -19l-140 -47l-283 -347q33 -37 67.5 -65.5t59.5 -43.5t45 -25t31 -12l10 -3q48 -9 106.5 21.5t86.5 63.5q-14 -90 -79 -150t-107 -63q-4 0 -11 1t-32 13t-54.5 33.5t-78 71t-101.5 117.5 l7 -157l120 -57z" />
<glyph unicode="L" horiz-adv-x="566" d="M-15 0l124 108l29 472l-134 70l325 21l-103 -70l6 -495l226 -28l88 165v-221z" />
<glyph unicode="M" horiz-adv-x="802" d="M-12 -6l98 89l30 510l-103 65l241 12l162 -458l124 453l272 -7l-122 -91l19 -475l98 -45l-297 -62l121 107l-80 387l-109 -432l-236 393l-64 -354l94 -79z" />
<glyph unicode="N" horiz-adv-x="707" d="M-10 639l319 53l190 -491l58 399l-107 101l310 -48l-139 -40l-71 -623l-316 487l-50 -378l136 -72l-321 -24l128 96l9 489z" />
<glyph unicode="O" horiz-adv-x="709" d="M30 326q0 156 97 259t243 103q129 0 219.5 -92.5t90.5 -250.5t-91.5 -251.5t-226.5 -93.5t-233.5 90.5t-98.5 235.5zM93 326q0 -108 62.5 -171t155.5 -63q97 0 167.5 65.5t70.5 178.5q0 114 -70 179t-161 65q-97 0 -161 -69.5t-64 -184.5z" />
<glyph unicode="P" horiz-adv-x="602" d="M-15 7l121 72l34 502l-146 89q82 12 202 12q64 0 116.5 -5t107 -20.5t91 -40.5t59.5 -68t23 -101q0 -52 -20.5 -94t-54 -68.5t-78 -44t-89.5 -24.5t-92 -7h-34v-141l123 -61h-363zM225 258q64 0 111.5 16.5t70.5 37.5t36.5 49.5t16 44.5t2.5 30q0 17 -2.5 34t-15 45.5 t-33.5 49.5t-64.5 36.5t-102.5 15.5h-19v-359z" />
<glyph unicode="Q" horiz-adv-x="706" d="M28 340q0 100 50.5 183t125.5 127t153 44q137 0 228.5 -91.5t91.5 -247.5q0 -130 -59.5 -217t-158.5 -117q28 -72 68 -72q24 0 35.5 15.5t11.5 37.5q0 33 -18 43q31 0 49.5 -19.5t18.5 -50.5q0 -46 -39 -76.5t-83 -30.5q-55 0 -83.5 36t-48.5 102h-13q-136 0 -232.5 90.5 t-96.5 243.5zM90 326q0 -112 67 -176q19 30 51 47.5t54 20.5l22 2q58 0 91 -25.5t52 -72.5q54 30 86.5 85t32.5 129q0 114 -70 179t-161 65q-97 0 -161 -69.5t-64 -184.5zM181 130q55 -38 127 -38q12 0 34 2q-29 76 -85 77q-46 0 -76 -41z" />
<glyph unicode="R" horiz-adv-x="626" d="M-10 643q236 13 372 13q34 0 70.5 -9t71.5 -28t57 -54t22 -80q0 -17 -4.5 -37.5t-26 -55t-57.5 -61t-108.5 -47t-169.5 -22.5q61 -46 97 -71t93.5 -53.5t96.5 -28.5q88 0 126 85q-13 -63 -33.5 -110t-42.5 -69.5t-38.5 -33t-27.5 -10.5q-38 0 -127 75t-163 149l4 -121 l103 -57l-310 -22l104 96l18 491zM190 586l5 -261q99 2 173 39.5t74 97.5q0 21 -3.5 36.5t-16.5 33t-36 29t-65.5 19t-100.5 7.5q-20 0 -30 -1z" />
<glyph unicode="S" horiz-adv-x="587" d="M-28 -27l142 251q13 -74 59.5 -127.5t111.5 -53.5q53 0 88 30t35 71t-37.5 70t-90.5 50t-106 45t-90.5 68.5t-37.5 107.5q0 72 56.5 124t165.5 52q62 0 116.5 -20.5t88.5 -49.5l127 87l-146 -280l-11 147q-25 18 -63.5 29.5t-58.5 14.5t-26 3q-61 0 -89.5 -24t-28.5 -59 q0 -57 44.5 -85.5t166.5 -66.5q69 -22 114 -70t45 -111q0 -54 -22.5 -95t-58.5 -62.5t-73.5 -32t-73.5 -10.5q-120 0 -220 84z" />
<glyph unicode="T" horiz-adv-x="590" d="M22 656l560 8l-38 -286l-56 209l-150 -17l20 -488l121 -62l-390 -37l142 103l25 479l-155 6l-60 -178z" />
<glyph unicode="U" horiz-adv-x="620" d="M-20 640l342 36l-107 -80q-1 -20 -1 -60v-12v-58.5t1 -61t2.5 -65t4.5 -62t7.5 -61.5t11 -53.5t15.5 -48t20.5 -35.5t27 -25t33.5 -8q66 0 103.5 72t37.5 222q0 151 -19 244l-99 47l269 34l-99 -80q2 -54 2 -79v-7q0 -74 -0.5 -111.5t-4.5 -101t-11.5 -97t-22.5 -77.5 t-37.5 -65t-56 -37t-77.5 -16q-35 0 -64.5 12.5t-51.5 31.5t-40 52.5t-30 63.5t-22 78.5t-15.5 82.5t-10 90t-6 88.5t-4.5 88.5z" />
<glyph unicode="V" horiz-adv-x="634" d="M-28 611l296 78l-71 -69l123 -516l159 467l-75 109l260 -69l-116 -42l-145 -492l83 -57l-321 -27l87 101l-189 473z" />
<glyph unicode="W" horiz-adv-x="776" d="M-37 631l345 58l-98 -72l60 -463l83 332l-66 47l255 33l-85 -68l61 -310l82 406l-93 73l283 -20l-123 -76l-77 -467l93 -76h-279l50 50l-58 378l-78 -399l81 -64l-282 15l95 73l-138 495z" />
<glyph unicode="X" horiz-adv-x="660" d="M-19 58l148 42l146 221l-180 245l-96 22l305 92l-72 -90l102 -179l114 172l-91 84l317 -58l-105 -41l-188 -240l138 -242l148 -26l-308 -85l88 111l-123 168l-140 -178l82 -85z" />
<glyph unicode="Y" horiz-adv-x="622" d="M-38 605l335 80l-92 -83l110 -284l131 276l-81 84l316 -53l-124 -58l-210 -306l12 -177l97 -71l-332 -22l110 73l37 199l-191 300z" />
<glyph unicode="Z" horiz-adv-x="578" d="M27 14l327 555l-239 -56l-59 -118l-14 293l52 -62l455 22l-408 -578l308 30l100 161l-37 -270z" />
<glyph unicode="[" horiz-adv-x="303" d="M64 720l263 8l-121 -106l-31 -609l116 -71l-191 -13z" />
<glyph unicode="\" horiz-adv-x="490" d="M23 644l123 29l322 -666l-43 -24z" />
<glyph unicode="]" horiz-adv-x="306" d="M-18 728l263 -8l-36 -791l-191 13l115 71l-31 609z" />
<glyph unicode="^" horiz-adv-x="345" d="M44 472l132 232l131 -220l-134 74z" />
<glyph unicode="_" horiz-adv-x="446" d="M46 -98h339v-86h-339v86z" />
<glyph unicode="`" horiz-adv-x="188" d="M0 684l117 36l71 -181z" />
<glyph unicode="a" d="M26 123q0 63 59 109t156 46q68 0 112 -23q-15 174 -112 174q-52 0 -96 -41.5t-67 -113.5l-41 239l62 -95q70 86 180 86q78 -4 126.5 -56t48.5 -144q0 -118 -41 -231l104 -73l-184 8l11 60q-57 -72 -156 -79q-80 -6 -121 30.5t-41 103.5zM138 125q0 -76 72 -76 q43 0 80.5 28.5t62.5 70.5q2 36 2 51v6q-47 18 -108 18q-52 -2 -80.5 -31.5t-28.5 -66.5z" />
<glyph unicode="b" horiz-adv-x="516" d="M-71 610l259 29q-18 -130 -28 -227q59 89 151 89q174 0 174 -211q0 -136 -58.5 -218.5t-166.5 -82.5q-51 0 -87.5 29.5t-52.5 74.5l-49 -114l-19 583zM148 243q0 -193 103 -193q44 0 83 63.5t39 161.5q0 70 -31 110.5t-75 40.5q-39 0 -69.5 -36t-47.5 -92z" />
<glyph unicode="c" horiz-adv-x="482" d="M27 225q0 59 17 106.5t43 76t59 47.5t61 26t53 7q83 0 128 -66l99 100l-81 -264q-5 46 -18 80.5t-26.5 50.5t-30.5 25t-24.5 10.5t-13.5 1.5q-71 0 -112.5 -54.5t-41.5 -151.5q0 -89 39.5 -140.5t93.5 -51.5q59 0 98.5 48.5t33.5 109.5q37 -32 37 -73q0 -63 -54.5 -103.5 t-120.5 -40.5q-21 0 -45.5 4t-60.5 20t-64 41.5t-48.5 75t-20.5 115.5z" />
<glyph unicode="d" horiz-adv-x="532" d="M28 217q0 131 57.5 202t147.5 71q89 0 140 -67l2 115l-119 45l241 43l-63 -565l108 -40l-177 -34l2 95q-60 -102 -152 -102q-79 2 -133 65.5t-54 171.5zM139 206q0 -72 24 -118t67 -46q5 0 13.5 1.5t27 9t35 20.5t34.5 40t29 63l3 159q-16 39 -44 64.5t-63 25.5 q-64 0 -95 -60t-31 -159z" />
<glyph unicode="e" horiz-adv-x="480" d="M27 249q0 115 63.5 184.5t175.5 62.5q78 -5 131.5 -72.5t60.5 -158.5l-317 -86q15 -62 46.5 -104t79.5 -42q64 0 99.5 48t26.5 100q46 -17 46 -76q0 -48 -53 -84.5t-131 -36.5q-104 0 -166 76t-62 189zM132 258q0 -18 1 -27l214 78q-20 66 -50 99.5t-60 33.5 q-55 0 -80 -54.5t-25 -129.5z" />
<glyph unicode="f" horiz-adv-x="337" d="M7 372l67 107q17 212 166 212q32 0 63 -11.5t48 -32.5l79 58l-77 -195q-1 34 -10.5 59t-21 37.5t-26 20t-21.5 9t-11 1.5q-44 -2 -63 -48t-25 -134h178l-36 -45l-144 -18v-14q0 -62 -3.5 -164.5t-3.5 -144.5l113 -63h-263l88 60q-18 169 -26 314z" />
<glyph unicode="g" horiz-adv-x="529" d="M29 217q0 132 58 204t147 69q73 -3 120 -62q-1 14 -5 51l198 24l-93 -81q11 -85 11 -164q0 -67 -4 -120.5t-13.5 -104.5t-26.5 -88.5t-42 -66t-60.5 -43t-81.5 -14.5t-100 41l-57 -64l-13 212q72 -129 162 -129q23 0 37.5 4t34 20t33 55t20.5 102q-56 -82 -138 -82 q-79 2 -133 65.5t-54 171.5zM140 206q0 -72 24 -118t67 -46q4 0 12 1t24.5 7.5t32 17t33 33t29.5 51.5q1 23 1 75q0 55 -3 119q-40 79 -94 79q-64 0 -95 -60t-31 -159z" />
<glyph unicode="h" horiz-adv-x="512" d="M-20 6l75 61l35 544l-109 54l173 29l2 -275q29 42 69 60.5t68 18.5q87 0 127 -58t40 -157q0 -96 -48 -217l97 -54l-253 -26l107 97q13 69 13 127q0 26 -4.5 54t-16.5 61t-37.5 54.5t-61.5 21.5q-59 0 -100 -47l3 -294l65 -54h-244z" />
<glyph unicode="i" horiz-adv-x="250" d="M-14 451l210 36l-38 -392l105 -65l-247 -35l77 60l-17 337zM54 605q0 30 21.5 51t52.5 21q30 0 51.5 -21t21.5 -51q0 -29 -22 -50.5t-51 -21.5q-31 0 -52.5 21.5t-21.5 50.5z" />
<glyph unicode="j" horiz-adv-x="243" d="M-166 -22q50 -75 125 -75q32 0 57 24.5t39.5 70t23.5 92.5t12.5 109t5 100.5t1.5 85.5v5.5v4.5v5l-126 54l194 38q25 -120 25 -279q0 -73 -10.5 -134.5t-33.5 -116t-67.5 -85t-105.5 -30.5q-34 0 -60 10l-23 -86zM51 602q0 27 19 46.5t46 19.5q28 0 47 -19.5t19 -46.5 q0 -28 -19 -47.5t-47 -19.5q-27 0 -46 19.5t-19 47.5z" />
<glyph unicode="k" horiz-adv-x="476" d="M-20 6l75 61l35 544l-109 54l173 29l3 -442l137 175l-56 62l260 -55l-101 -35l-208 -198q29 -36 58 -60t49.5 -33t36.5 -13t24 -3l8 2q6 0 16.5 2t40 22t56.5 56q-8 -51 -25 -90t-36 -58t-34.5 -28.5t-26.5 -9.5q-3 0 -9.5 1.5t-27 11t-42.5 25.5t-54.5 49.5t-64.5 78.5 l1 -94l65 -54h-244z" />
<glyph unicode="l" horiz-adv-x="238" d="M-47 643l247 33l-60 -615l98 -39l-245 -24l88 69l-15 527z" />
<glyph unicode="m" horiz-adv-x="662" d="M-7 472l166 -11v-50q22 30 51 46.5t47 18.5l18 2q73 0 108 -53q45 53 104 53q56 0 93 -49t37 -128q0 -121 -47 -236l69 -31l-242 -45l107 85q12 84 12 171q0 150 -72 150q-21 0 -42 -15q3 -12 3 -25q0 -105 -52 -236l69 -54h-197l66 53q11 83 11 183q0 106 -53 106 q-49 0 -90 -70v-266l82 -59l-242 -17l64 72l33 331z" />
<glyph unicode="n" horiz-adv-x="529" d="M-9 472l167 17v-74q67 93 150 93q82 0 124.5 -57t42.5 -148q0 -133 -38 -230l96 -31l-254 -50l86 65q18 64 18 138q0 35 -4 67t-14 70t-34 60.5t-59 22.5q-62 0 -114 -75v-270l81 -58l-242 -17l64 71l34 355z" />
<glyph unicode="o" horiz-adv-x="520" d="M27 245q0 110 65.5 182.5t167.5 72.5q98 0 161 -69.5t70 -182.5q7 -117 -58 -189.5t-167 -72.5q-100 0 -169.5 70t-69.5 189zM147 237q0 -84 43.5 -135.5t105.5 -51.5q61 0 101 50t40 130q0 81 -41 137.5t-103 56.5q-59 0 -102.5 -51.5t-43.5 -135.5z" />
<glyph unicode="p" horiz-adv-x="522" d="M-20 456l202 34l-3 -63q52 63 125 63q79 -2 133 -65.5t54 -171.5q0 -131 -57.5 -202t-147.5 -71q-74 0 -124 48l-5 -110l98 -53l-240 -41l74 74l-20 523zM165 101q37 -56 89 -56q64 0 95 60t31 159q0 72 -24 118t-67 46q-13 0 -28.5 -4.5t-41 -24.5t-44.5 -55z" />
<glyph unicode="q" horiz-adv-x="515" d="M29 217q0 131 57.5 202t147.5 71q74 0 126 -50l1 56l183 -31l-116 -42l25 -529l89 -30l-193 -48l4 244q-56 -80 -137 -80q-79 2 -133 65.5t-54 171.5zM140 206q0 -72 24 -118t67 -46q15 0 31.5 5t44.5 30.5t48 69.5l3 215q-38 63 -92 63q-64 0 -95 -60t-31 -159z" />
<glyph unicode="r" horiz-adv-x="415" d="M-10 450l168 32l2 -61q20 24 45.5 41t40.5 22l15 6q12 3 30.5 6t64 -6.5t74.5 -39.5l-64 -117q-6 27 -22 44.5t-34 23t-35 7t-28 -0.5l-11 -2q-34 -9 -74 -60l9 -283l88 -44l-259 -23l67 68l27 340z" />
<glyph unicode="s" horiz-adv-x="465" d="M23 -57l23 242q33 -70 88.5 -113.5t119.5 -43.5q39 0 62 16.5t23 46.5q0 24 -22.5 41t-55.5 26t-72.5 23t-72.5 30.5t-55.5 51t-22.5 82.5q0 38 14 67t34.5 44.5t47 25.5t46.5 12.5t38 2.5q82 0 139 -46l80 99l-36 -244q-13 55 -59 96.5t-110 41.5q-41 0 -67.5 -18.5 t-26.5 -56.5q0 -34 31 -53.5t75 -30t88 -24.5t75 -47t31 -87q0 -51 -27.5 -86.5t-64.5 -50t-79 -14.5q-95 0 -170 66z" />
<glyph unicode="t" horiz-adv-x="397" d="M10 384l238 260q-27 -86 -46 -161l190 -16l-25 -59l-184 -13q-8 -42 -13 -79t-6 -54l-1 -16q0 -212 102 -212q45 0 66.5 33t21.5 78q0 19 -3 35q43 -22 43 -86q0 -55 -34.5 -86.5t-88.5 -31.5q-22 0 -45.5 4.5t-53.5 20t-52.5 40.5t-38.5 69.5t-16 103.5q0 75 30 175z " />
<glyph unicode="u" horiz-adv-x="534" d="M6 421l193 66q-21 -58 -33.5 -121t-14.5 -96l-2 -34q0 -88 23 -132t62 -44q40 0 71.5 32t49 84.5t26.5 109.5t10 116l-106 73h165l19 -420l88 -41l-200 -37l9 143q-67 -144 -175 -144q-70 0 -108.5 46.5t-38.5 117.5q0 134 65 257z" />
<glyph unicode="v" horiz-adv-x="496" d="M-16 446l257 29l-59 -58l73 -334l118 311l-73 64l218 -10l-91 -53l-107 -353l75 -52l-293 7l91 62l-145 349z" />
<glyph unicode="w" horiz-adv-x="646" d="M-22 442l267 54l-59 -68l21 -305l129 314l101 -294l63 289l-98 52l220 -4l-73 -60l-34 -352l68 -45l-212 -25l46 52l-108 198l-79 -197l48 -42l-197 -20l69 63l-85 354z" />
<glyph unicode="x" horiz-adv-x="539" d="M-15 11l125 71q57 67 113 145q-75 89 -160 200l-77 32l247 37l-45 -50q43 -75 87 -143q42 65 83 140l-56 46l256 -35l-97 -40q-76 -103 -140 -179q59 -86 120 -161l107 -29l-202 -62l45 69q-61 57 -122 124q-55 -62 -114 -114l33 -62z" />
<glyph unicode="y" d="M-18 460l226 32l-42 -57q24 -186 143 -385q50 142 53 371l-73 71l219 -16l-74 -49q9 -71 10 -144.5t-10 -156.5t-36.5 -146t-77 -105t-123.5 -42q-53 0 -115 27l-36 -72l-50 192q39 -51 82 -70t76 -19q75 0 127 95q-200 209 -219 431z" />
<glyph unicode="z" horiz-adv-x="453" d="M4 -7l313 396l-240 -20l-33 -66v247l50 -85l339 -7l-247 -390l153 -33l92 99l-27 -224l-40 76z" />
<glyph unicode="{" horiz-adv-x="293" d="M5 319q4 2 9.5 5.5t21 13.5t27 20.5t21 25t9.5 27.5q0 6 -9 69.5t-9 106.5q0 149 116 149q22 0 45 -6t40 -14l18 -7q-8 -1 -23.5 -6.5t-35 -17t-33.5 -32.5t-14 -47q0 -19 4 -52t4 -46q0 -44 -9 -79t-21.5 -54.5t-27 -32t-23.5 -16.5t-13 -4q48 -6 68.5 -38.5t20.5 -94.5 q0 -18 -6.5 -64.5t-6.5 -75.5q0 -40 27.5 -66.5t54.5 -33.5l28 -7q-55 -37 -113 -37q-54 0 -81 34.5t-27 78.5q0 29 13 92t13 92q0 91 -69 113q-10 3 -19 4z" />
<glyph unicode="|" horiz-adv-x="244" d="M73 778l109 -14l-33 -840h-59z" />
<glyph unicode="}" horiz-adv-x="294" d="M1 709l17 7q18 8 41 14t45 6q116 0 116 -149q0 -43 -9 -106.5t-9 -69.5q0 -20 22 -43t44 -36l22 -13h-2q-2 0 -7.5 -1.5t-12 -3.5t-14 -6t-14.5 -9.5t-14 -15t-12.5 -20.5t-8.5 -27t-3 -34q0 -29 13 -92t13 -92q0 -44 -27 -78.5t-81 -34.5q-26 0 -54 9.5t-44 18.5l-15 9 q4 1 11.5 2.5t26.5 9.5t33.5 18.5t26.5 31t12 45.5q0 29 -6.5 75.5t-6.5 64.5q0 62 20.5 94.5t68.5 38.5q-4 0 -13 4t-23.5 16.5t-27 32t-21.5 54.5t-9 79q0 13 4 46t4 52q0 26 -14 47t-33.5 32.5t-35 17t-23.5 6.5z" />
<glyph unicode="~" horiz-adv-x="476" d="M52 312q27 46 61 69t63 23q24 0 74 -23.5t60 -23.5q20 0 30.5 1.5t27.5 10t34 25.5l28 -41q-21 -47 -57 -71.5t-64 -24.5q-21 0 -70 22.5t-70 22.5q-47 0 -86 -32z" />
<glyph unicode="&#xa1;" horiz-adv-x="254" d="M37 -145l73 519l58 -3l-2 -532zM67 491q0 28 25 43.5t49 15.5q25 0 49.5 -15.5t24.5 -43.5q0 -30 -24.5 -46t-49.5 -16q-24 0 -49 16t-25 46z" />
<glyph unicode="&#xa2;" horiz-adv-x="427" d="M34 229q0 53 16.5 93.5t42.5 63.5t52.5 35t53.5 16l-27 234l87 -11l-27 -222q58 -5 91 -52l79 80l-65 -211q-4 37 -14 64.5t-21 40t-24.5 20t-19.5 8.5t-11 1q-57 0 -90 -43.5t-33 -120.5q0 -71 31.5 -112.5t74.5 -41.5q47 0 79 38.5t27 87.5q29 -27 29 -58 q0 -49 -41 -81t-93 -34l17 -209l-71 16l23 194q-20 3 -39.5 9t-43.5 21t-41.5 36t-29.5 57t-12 81z" />
<glyph unicode="&#xa3;" horiz-adv-x="503" d="M20 65l95 55q62 93 39 164l-65 5l4 44l44 4q-34 121 0.5 200t115.5 79q75 0 115 -54l61 38l-77 -196l-10 116q-31 43 -72 43q-55 0 -72 -60t18 -159l72 6v-74l-47 3q18 -68 -3 -146l169 -21l52 83l-10 -131z" />
<glyph unicode="&#xa4;" horiz-adv-x="415" d="M20 491l51 84l42 -52q40 37 95 37q56 0 98 -37l51 42l38 -76l-50 -23q13 -34 13 -69q0 -57 -28 -100l46 -37l-76 -55l-29 40q-31 -15 -67 -15q-50 0 -89 30l-33 -50l-50 62l43 38q-14 30 -15 72t12 75zM96 387q0 -52 25 -83.5t64 -31.5q40 0 68 32.5t28 86.5t-28 87 t-65 33q-40 0 -66 -36t-26 -88z" />
<glyph unicode="&#xa5;" horiz-adv-x="622" d="M28 552l268 64l-74 -67l88 -227l104 221l-64 67l253 -42l-99 -47l-139 -202l76 5l-7 -68l-97 4l2 -31l95 -4l7 -41l-99 -3l3 -46l78 -57l-266 -18l89 58l11 60l-72 -2l-1 60l82 -4l6 31l-84 4l-4 41l69 4l-132 206z" />
<glyph unicode="&#xa6;" horiz-adv-x="246" d="M70 778l109 -14l-22 -341l-70 -4zM77 -76l13 351l71 -5l15 -346h-99z" />
<glyph unicode="&#xa7;" horiz-adv-x="509" d="M47 -74l23 242q33 -70 88.5 -113.5t119.5 -43.5q39 0 62 16.5t23 46.5q0 24 -22.5 41t-55.5 26t-72.5 23t-72.5 30.5t-55.5 51t-22.5 82.5q0 88 72 127q-72 45 -72 130q0 38 14 67t34.5 44.5t47 25.5t46.5 12.5t38 2.5q82 0 139 -46l80 99l-36 -244q-13 55 -59 96.5 t-110 41.5q-41 0 -67.5 -18.5t-26.5 -56.5q0 -34 31 -53.5t75 -30t88 -24.5t75 -47t31 -87q0 -93 -85 -133q85 -39 85 -124q0 -51 -27.5 -86.5t-64.5 -50t-79 -14.5q-95 0 -170 66zM162 352q0 -35 27.5 -52t81.5 -32h7q39 0 62 16.5t23 46.5q0 11 -4 20t-13 16.5t-18.5 13 t-25 11t-27.5 9.5t-32 10t-32 10q-49 -17 -49 -69z" />
<glyph unicode="&#xa8;" horiz-adv-x="256" d="M0 616q0 22 15.5 37.5t37.5 15.5q23 0 38 -15.5t15 -37.5t-15.5 -37t-37.5 -15t-37.5 15t-15.5 37zM147 619q0 22 16 38.5t38 16.5q23 0 39 -16t16 -39q0 -22 -16 -38.5t-39 -16.5q-22 0 -38 16.5t-16 38.5z" />
<glyph unicode="&#xa9;" horiz-adv-x="609" d="M44 303q0 121 76 201.5t191 80.5q103 0 178.5 -73t75.5 -195t-76.5 -195.5t-184.5 -73.5q-106 0 -183 70.5t-77 184.5zM85 308q0 -101 58.5 -160.5t146.5 -59.5q91 0 157 62t66 168q0 108 -73 174l-62 -133l-7 71q-23 28 -59 28q-40 0 -66.5 -39.5t-26.5 -103.5 t26.5 -105t64.5 -41q35 0 53.5 30.5t18.5 67.5q0 8 -1 13q31 -21 31 -52q0 -30 -27.5 -57t-72.5 -27q-66 0 -113 42t-47 126q0 82 45 130.5t104 48.5q54 0 85 -34l49 39q-60 51 -139 51q-91 0 -151 -65t-60 -174z" />
<glyph unicode="&#xaa;" horiz-adv-x="371" d="M20 231l5 33l321 27v-81zM33 405q0 40 37.5 69.5t100.5 29.5q42 0 71 -15q-9 112 -71 112q-33 0 -61.5 -27t-42.5 -72l-27 152l40 -61q45 56 115 56q50 -2 81 -35.5t31 -92.5q0 -80 -26 -148l67 -47l-118 5q3 13 7 39q-38 -48 -100 -51q-51 -4 -77.5 19.5t-26.5 66.5z M105 406q0 -48 46 -48q55 0 92 64q1 11 1 32v3q-30 12 -69 12q-33 -2 -51.5 -21t-18.5 -42z" />
<glyph unicode="&#xab;" horiz-adv-x="526" d="M27 249l207 177l40 -91l-189 -84l191 -65l-36 -98zM225 259l207 167l40 -91l-189 -75l191 -74l-36 -98z" />
<glyph unicode="&#xac;" horiz-adv-x="510" d="M53 324l3 50l381 24l10 -236l-117 3l23 139z" />
<glyph unicode="&#xad;" horiz-adv-x="434" d="M54 301l5 73l321 27v-121z" />
<glyph unicode="&#xae;" horiz-adv-x="427" d="M39 478q0 83 51.5 137.5t130.5 54.5q70 0 121.5 -49.5t51.5 -132.5t-52 -133t-126 -50q-72 0 -124.5 47.5t-52.5 125.5zM76 481q0 -60 32 -98l33 31l15 156l-46 18q-34 -40 -34 -107zM109 382q37 -42 98 -42q58 0 100.5 40t42.5 108t-42 107t-97 39q-61 0 -99 -44 q77 4 122 4q26 0 48.5 -13.5t22.5 -41.5q0 -6 -1.5 -12t-8.5 -17t-18.5 -19.5t-35 -15t-54.5 -7.5q65 -49 93 -49t40 27q-5 -26 -15 -43.5t-17.5 -22.5t-12.5 -5q-22 0 -93 71l1 -38l33 -19zM179 572l3 -84q31 1 54.5 13t23.5 31t-13.5 29.5t-57.5 10.5h-10z" />
<glyph unicode="&#xaf;" horiz-adv-x="250" d="M0 656l250 21l-5 -85l-241 4z" />
<glyph unicode="&#xb0;" horiz-adv-x="256" d="M36 568q0 36 28.5 61t68.5 25q39 0 67.5 -25t28.5 -61t-28.5 -60.5t-67.5 -24.5q-40 0 -68.5 24.5t-28.5 60.5zM97 568q0 -20 10.5 -36.5t25.5 -16.5q12 0 23.5 17t11.5 36q0 21 -10 37.5t-25 16.5t-25.5 -17t-10.5 -37z" />
<glyph unicode="&#xb1;" horiz-adv-x="431" d="M45 21l5 73l334 10l-13 -104zM45 301l5 73l114 3l-2 138l110 -9l-7 -126l119 4l-13 -104l-111 7l-8 -145l-83 5l-3 146z" />
<glyph unicode="&#xb2;" horiz-adv-x="345" d="M48 345q20 74 105 107q70 27 70 74q0 52 -62 52q-28 0 -50.5 -16.5t-32.5 -39.5l-30 101l36 -47q32 41 87 41q50 0 85.5 -23t35.5 -63q0 -19 -5.5 -32.5t-21 -23.5t-25 -15t-35.5 -13.5t-36 -12.5q-13 -5 -28 -22t-21 -43l129 26l40 46l2 -90z" />
<glyph unicode="&#xb3;" horiz-adv-x="331" d="M41 638l26 -32h223l-143 -94q63 -1 106.5 -21.5t43.5 -61.5q0 -47 -43.5 -70.5t-90.5 -23.5q-38 0 -75 18t-37 56q0 36 55 49q-16 -20 -16 -44t16.5 -39.5t48.5 -15.5q72 0 72 58q0 38 -36.5 55.5t-83.5 17.5h-13l75 76l-89 15l-20 -40z" />
<glyph unicode="&#xb4;" horiz-adv-x="180" d="M0 539l72 181l108 -28z" />
<glyph unicode="&#xb5;" horiz-adv-x="614" d="M41 421l193 66q-21 -58 -33.5 -121t-14.5 -96l-2 -34q0 -88 23 -132t62 -44q40 0 71.5 32t49 84.5t26.5 109.5t10 116l-106 73h165l19 -420l88 -41l-200 -37l9 143q-67 -144 -175 -144q-42 0 -74 18q10 -121 44 -209l-112 -35q-12 151 -5 391q0 133 65 256z" />
<glyph unicode="&#xb6;" horiz-adv-x="811" d="M32 447q0 58 23 101t59.5 68t91 40.5t107 20.5t116.5 5q109 0 361 -20l-113 -91l14 -487l68 -60l-231 9l36 44l31 523l-113 5l9 -534l32 -66l-276 2l124 62l7 140h-12q-47 0 -92 7t-89.5 24.5t-78 44t-54 68.5t-20.5 94zM163 436q0 -14 2 -29t14.5 -43t33.5 -48.5t65 -38 t103 -19.5l17 359h-17q-59 0 -102.5 -15.5t-64.5 -36.5t-33.5 -49.5t-15 -45.5t-2.5 -34z" />
<glyph unicode="&#xb7;" horiz-adv-x="240" d="M47 348q0 30 24.5 46t49.5 16q24 0 49 -16t25 -46q0 -28 -25 -43.5t-49 -15.5q-25 0 -49.5 15.5t-24.5 43.5z" />
<glyph unicode="&#xb8;" horiz-adv-x="131" d="M0 -107l14 21q18 -23 40 -23q13 0 21.5 9t8.5 23q0 22 -44 22q-14 0 -20 -2l54 78h28l-23 -51q17 0 34.5 -15.5t17.5 -42.5q0 -31 -18.5 -47t-48.5 -16q-18 0 -37.5 13t-26.5 31z" />
<glyph unicode="&#xb9;" horiz-adv-x="235" d="M43 352l49 24l21 205l-62 25l106 13v-241l45 -30z" />
<glyph unicode="&#xba;" horiz-adv-x="365" d="M24 231l5 47l307 13v-81zM30 496q5 73 45.5 117.5t102.5 44.5q65 0 107.5 -46.5t42.5 -116.5q0 -77 -45 -122t-109 -45q-65 0 -106.5 46.5t-37.5 121.5zM66 485q0 -52 25 -83.5t64 -31.5q40 0 68 32.5t28 86.5t-28 87t-65 33q-40 0 -66 -36t-26 -88z" />
<glyph unicode="&#xbb;" horiz-adv-x="525" d="M50 186l190 74l-188 75l40 91l207 -167l-213 -171zM248 186l190 65l-188 84l40 91l207 -177l-213 -161z" />
<glyph unicode="&#xbc;" horiz-adv-x="574" d="M35 352l49 24l21 205l-62 25l106 13v-241l45 -30zM84 107l301 499l72 -48l-346 -470zM294 45q20 74 105 107q70 27 70 74q0 52 -62 52q-28 0 -50.5 -16.5t-32.5 -39.5l-30 101l36 -47q32 41 87 41q50 0 85.5 -23t35.5 -63q0 -19 -5.5 -32.5t-21 -23.5t-25 -15 t-35.5 -13.5t-36 -12.5q-13 -5 -28 -22t-21 -43l129 26l40 46l2 -90z" />
<glyph unicode="&#xbd;" horiz-adv-x="596" d="M40 352l49 24l21 205l-62 25l106 13v-241l45 -30zM78 107l301 499l72 -48l-346 -470zM263 129l50 146l-41 21l159 15l-51 -24l-60 -111l137 -12l-4 112l-40 17l154 12l-46 -26l-20 -201l62 -24l-161 -14l57 40l-1 57z" />
<glyph unicode="&#xbe;" horiz-adv-x="673" d="M38 638l26 -32h223l-143 -94q63 -1 106.5 -21.5t43.5 -61.5q0 -47 -43.5 -70.5t-90.5 -23.5q-38 0 -75 18t-37 56q0 36 55 49q-16 -20 -16 -44t16.5 -39.5t48.5 -15.5q72 0 72 58q0 38 -36.5 55.5t-83.5 17.5h-13l75 76l-89 15l-20 -40zM148 107l301 499l72 -48 l-346 -470zM341 129l50 146l-41 21l159 15l-51 -24l-60 -111l137 -12l-4 112l-40 17l154 12l-46 -26l-20 -201l62 -24l-161 -14l57 40l-1 57z" />
<glyph unicode="&#xbf;" horiz-adv-x="601" d="M20 34q0 58 26.5 93.5t64 52t75 32t64 48t26.5 84.5q0 8 -2 30h108q2 -10 2 -25q0 -105 -108 -156q-112 -52 -112 -157q0 -60 43.5 -93t103.5 -33q49 0 85 12.5t63 45.5t37 50.5t32 66.5l6 12l33 -328l-83 120q-59 -44 -162 -44q-126 0 -214 50.5t-88 138.5zM260 484 q0 28 25 43.5t49 15.5q25 0 49.5 -15.5t24.5 -43.5q0 -30 -24.5 -46t-49.5 -16q-24 0 -49 16t-25 46z" />
<glyph unicode="&#xc0;" horiz-adv-x="640" d="M-51 60l144 14l41 138h-24l-41 52l83 9l88 295l-100 52l283 71l147 -590l116 -17l-275 -117l94 119l-55 136l-252 -8l-51 -145l94 -124zM101 832l117 36l71 -181zM221 281l195 22l-100 248z" />
<glyph unicode="&#xc1;" horiz-adv-x="640" d="M-51 60l144 14l41 138h-24l-41 52l83 9l88 295l-100 52l283 71l147 -590l116 -17l-275 -117l94 119l-55 136l-252 -8l-51 -145l94 -124zM221 281l195 22l-100 248zM301 689l72 181l108 -28z" />
<glyph unicode="&#xc2;" horiz-adv-x="640" d="M-51 60l144 14l41 138h-24l-41 52l83 9l88 295l-100 52l283 71l147 -590l116 -17l-275 -117l94 119l-55 136l-252 -8l-51 -145l94 -124zM209 718l108 157l109 -158l-108 66zM221 281l195 22l-100 248z" />
<glyph unicode="&#xc3;" horiz-adv-x="640" d="M-51 60l144 14l41 138h-24l-41 52l83 9l88 295l-100 52l283 71l147 -590l116 -17l-275 -117l94 119l-55 136l-252 -8l-51 -145l94 -124zM181 725q15 48 41.5 71.5t49.5 23.5q17 0 54 -19t45 -19q19 0 34 10t21 20l5 9l22 -9q-5 -49 -31 -75.5t-51 -26.5q-16 0 -54.5 21 t-54.5 20q-18 -1 -32.5 -11t-20.5 -20l-6 -9zM221 281l195 22l-100 248z" />
<glyph unicode="&#xc4;" horiz-adv-x="640" d="M-51 60l144 14l41 138h-24l-41 52l83 9l88 295l-100 52l283 71l147 -590l116 -17l-275 -117l94 119l-55 136l-252 -8l-51 -145l94 -124zM175 768q0 22 15.5 37.5t37.5 15.5t37.5 -15.5t15.5 -37.5t-15.5 -37t-37.5 -15t-37.5 15t-15.5 37zM221 281l195 22l-100 248z M322 771q0 22 16 38.5t38 16.5q23 0 39 -16t16 -39q0 -22 -16 -38.5t-39 -16.5q-22 0 -38 16.5t-16 38.5z" />
<glyph unicode="&#xc5;" horiz-adv-x="640" d="M-51 60l144 14l41 138h-24l-41 52l83 9l88 295l-100 52l133 33q-42 25 -42 71q0 35 26.5 59.5t62.5 24.5q35 0 61.5 -24.5t26.5 -59.5q0 -21 -11 -40l26 7l147 -590l116 -17l-275 -117l94 119l-55 136l-252 -8l-51 -145l94 -124zM221 281l195 22l-100 248zM287 724 q0 -20 9.5 -36t23.5 -16q11 0 21.5 16.5t10.5 35.5q0 20 -9 36.5t-23 16.5t-23.5 -16.5t-9.5 -36.5z" />
<glyph unicode="&#xc6;" horiz-adv-x="954" d="M-34 60l148 14l98 144l-28 -1l-41 52l112 13l196 289l-81 72l523 37l9 -229l-91 163l-223 -36l7 -231l51 7l101 134l7 -308l-88 126l-70 -10l6 -202l219 -20l82 205l8 -261l-550 -22l122 125l8 105l-200 -6l-124 -153l47 -122zM350 292l148 17l13 182z" />
<glyph unicode="&#xc7;" horiz-adv-x="589" d="M31 324q0 84 26 153.5t68.5 113.5t95.5 68t108 24q109 0 171 -68l119 95l-136 -292l-12 142q-46 56 -120 56q-80 0 -133 -78.5t-53 -206.5t53 -210t129 -82q70 0 107 61t37 134q0 17 -1 26q62 -41 62 -103q0 -60 -55 -114t-145 -54h-6l-8 -19q17 0 34.5 -15.5t17.5 -42.5 q0 -31 -18.5 -47t-48.5 -16q-18 0 -37.5 13t-26.5 31l14 21q18 -23 40 -23q13 0 21.5 9t8.5 23q0 22 -44 22q-14 0 -20 -2l33 48q-56 6 -105 28t-89 61.5t-63.5 102t-23.5 141.5z" />
<glyph unicode="&#xc8;" horiz-adv-x="580" d="M-13 -4l122 125l34 450l-147 72l523 37l9 -229l-91 163l-223 -36l7 -231l51 7l101 134l7 -308l-88 126l-70 -10l6 -202l219 -20l82 205l8 -261zM82 834l117 36l71 -181z" />
<glyph unicode="&#xc9;" horiz-adv-x="580" d="M-13 -4l122 125l34 450l-147 72l523 37l9 -229l-91 163l-223 -36l7 -231l51 7l101 134l7 -308l-88 126l-70 -10l6 -202l219 -20l82 205l8 -261zM277 689l72 181l108 -28z" />
<glyph unicode="&#xca;" horiz-adv-x="580" d="M-13 -4l122 125l34 450l-147 72l523 37l9 -229l-91 163l-223 -36l7 -231l51 7l101 134l7 -308l-88 126l-70 -10l6 -202l219 -20l82 205l8 -261zM177 696l108 157l109 -158l-108 66z" />
<glyph unicode="&#xcb;" horiz-adv-x="580" d="M-13 -4l122 125l34 450l-147 72l523 37l9 -229l-91 163l-223 -36l7 -231l51 7l101 134l7 -308l-88 126l-70 -10l6 -202l219 -20l82 205l8 -261zM134 749q0 22 15.5 37.5t37.5 15.5q23 0 38 -15t15 -38q0 -22 -15.5 -37t-37.5 -15t-37.5 15t-15.5 37zM281 752 q0 22 16 38.5t38 16.5q23 0 39 -16t16 -39q0 -22 -16 -38.5t-39 -16.5q-22 0 -38 16.5t-16 38.5z" />
<glyph unicode="&#xcc;" horiz-adv-x="339" d="M-16 -12l119 99l30 473l-102 80l297 -18l-113 -91l14 -442l101 -71zM-10 808l117 36l71 -181z" />
<glyph unicode="&#xcd;" horiz-adv-x="339" d="M-16 -12l119 99l30 473l-102 80l297 -18l-113 -91l14 -442l101 -71zM181 656l72 181l108 -28z" />
<glyph unicode="&#xce;" horiz-adv-x="338" d="M-16 -12l119 99l30 473l-102 80l297 -18l-113 -91l14 -442l101 -71zM69 680l108 157l109 -158l-108 66z" />
<glyph unicode="&#xcf;" horiz-adv-x="339" d="M-16 -12l119 99l30 473l-102 80l297 -18l-113 -91l14 -442l101 -71zM47 721q0 22 15.5 37.5t37.5 15.5t37.5 -15t15.5 -38q0 -22 -15.5 -37t-37.5 -15t-37.5 15t-15.5 37zM194 724q0 22 16 38.5t38 16.5q23 0 39 -16t16 -39q0 -22 -16 -38.5t-39 -16.5q-22 0 -38 16.5 t-16 38.5z" />
<glyph unicode="&#xd0;" horiz-adv-x="615" d="M-21 8l133 61l20 225l-103 7l5 73l106 9l17 190l-151 68q56 13 125.5 20.5t110.5 8.5l42 1q53 0 104 -19t96.5 -56.5t73.5 -103.5t28 -151q0 -76 -27.5 -137t-71.5 -99t-104 -63.5t-121 -35.5t-127 -10q-77 0 -156 12zM233 61q239 34 239 299q0 42 -9 82t-30 80 t-61.5 64.5t-95.5 24.5q-21 0 -43 -3v-217l122 10v-121l-122 8v-227z" />
<glyph unicode="&#xd1;" horiz-adv-x="707" d="M-10 639l319 53l190 -491l58 399l-107 101l310 -48l-139 -40l-71 -623l-316 487l-50 -378l136 -72l-321 -24l128 96l9 489zM259 748q15 48 41.5 71.5t49.5 23.5q17 0 54 -19t45 -19q19 0 34 9.5t21 19.5l5 10l22 -9q-5 -49 -31 -75.5t-51 -26.5q-16 0 -54.5 21t-54.5 20 q-18 -1 -32.5 -11t-20.5 -19l-6 -10z" />
<glyph unicode="&#xd2;" horiz-adv-x="709" d="M30 326q0 156 97 259t243 103q129 0 219.5 -92.5t90.5 -250.5t-91.5 -251.5t-226.5 -93.5t-233.5 90.5t-98.5 235.5zM93 326q0 -108 62.5 -171t155.5 -63q97 0 167.5 65.5t70.5 178.5q0 114 -70 179t-161 65q-97 0 -161 -69.5t-64 -184.5zM140 856l117 36l71 -181z" />
<glyph unicode="&#xd3;" horiz-adv-x="709" d="M30 326q0 156 97 259t243 103q129 0 219.5 -92.5t90.5 -250.5t-91.5 -251.5t-226.5 -93.5t-233.5 90.5t-98.5 235.5zM93 326q0 -108 62.5 -171t155.5 -63q97 0 167.5 65.5t70.5 178.5q0 114 -70 179t-161 65q-97 0 -161 -69.5t-64 -184.5zM327 708l72 181l108 -28z" />
<glyph unicode="&#xd4;" horiz-adv-x="709" d="M30 326q0 156 97 259t243 103q129 0 219.5 -92.5t90.5 -250.5t-91.5 -251.5t-226.5 -93.5t-233.5 90.5t-98.5 235.5zM93 326q0 -108 62.5 -171t155.5 -63q97 0 167.5 65.5t70.5 178.5q0 114 -70 179t-161 65q-97 0 -161 -69.5t-64 -184.5zM234 720l108 157l109 -158 l-108 66z" />
<glyph unicode="&#xd5;" horiz-adv-x="709" d="M30 326q0 156 97 259t243 103q129 0 219.5 -92.5t90.5 -250.5t-91.5 -251.5t-226.5 -93.5t-233.5 90.5t-98.5 235.5zM93 326q0 -108 62.5 -171t155.5 -63q97 0 167.5 65.5t70.5 178.5q0 114 -70 179t-161 65q-97 0 -161 -69.5t-64 -184.5zM219 737q15 48 41.5 71.5 t49.5 23.5q17 0 54 -19t45 -19q19 0 34 10t21 20l5 9l22 -9q-5 -49 -31 -75.5t-51 -26.5q-16 0 -54.5 21t-54.5 20q-18 -1 -32.5 -11t-20.5 -20l-6 -9z" />
<glyph unicode="&#xd6;" horiz-adv-x="709" d="M30 326q0 156 97 259t243 103q129 0 219.5 -92.5t90.5 -250.5t-91.5 -251.5t-226.5 -93.5t-233.5 90.5t-98.5 235.5zM93 326q0 -108 62.5 -171t155.5 -63q97 0 167.5 65.5t70.5 178.5q0 114 -70 179t-161 65q-97 0 -161 -69.5t-64 -184.5zM229 767q0 22 15.5 37.5 t37.5 15.5t37.5 -15t15.5 -38q0 -22 -15.5 -37t-37.5 -15t-37.5 15t-15.5 37zM376 770q0 22 16 38.5t38 16.5q23 0 39 -16t16 -39q0 -22 -16 -38.5t-39 -16.5q-22 0 -38 16.5t-16 38.5z" />
<glyph unicode="&#xd7;" horiz-adv-x="414" d="M41 423l84 72l86 -97l94 102l64 -83l-96 -88l95 -106l-62 -55l-102 97l-104 -96l-48 55l92 100z" />
<glyph unicode="&#xd8;" horiz-adv-x="709" d="M30 326q0 156 97 259t243 103q53 0 107 -19l26 49l123 -29l-51 -80q105 -97 105 -264q0 -158 -91.5 -251.5t-226.5 -93.5q-82 0 -154 35l-34 -52l-43 24l29 57q-130 95 -130 262zM93 326q0 -137 99 -201l226 432q-49 23 -100 23q-97 0 -161 -69.5t-64 -184.5zM249 100 q27 -8 62 -8q97 0 167.5 65.5t70.5 178.5q0 90 -50 155z" />
<glyph unicode="&#xd9;" horiz-adv-x="620" d="M-20 640l342 36l-107 -80q-1 -20 -1 -60v-12v-58.5t1 -61t2.5 -65t4.5 -62t7.5 -61.5t11 -53.5t15.5 -48t20.5 -35.5t27 -25t33.5 -8q66 0 103.5 72t37.5 222q0 151 -19 244l-99 47l269 34l-99 -80q2 -54 2 -79v-7q0 -74 -0.5 -111.5t-4.5 -101t-11.5 -97t-22.5 -77.5 t-37.5 -65t-56 -37t-77.5 -16q-35 0 -64.5 12.5t-51.5 31.5t-40 52.5t-30 63.5t-22 78.5t-15.5 82.5t-10 90t-6 88.5t-4.5 88.5zM162 841l117 36l71 -181z" />
<glyph unicode="&#xda;" horiz-adv-x="620" d="M-20 640l342 36l-107 -80q-1 -20 -1 -60v-12v-58.5t1 -61t2.5 -65t4.5 -62t7.5 -61.5t11 -53.5t15.5 -48t20.5 -35.5t27 -25t33.5 -8q66 0 103.5 72t37.5 222q0 151 -19 244l-99 47l269 34l-99 -80q2 -54 2 -79v-7q0 -74 -0.5 -111.5t-4.5 -101t-11.5 -97t-22.5 -77.5 t-37.5 -65t-56 -37t-77.5 -16q-35 0 -64.5 12.5t-51.5 31.5t-40 52.5t-30 63.5t-22 78.5t-15.5 82.5t-10 90t-6 88.5t-4.5 88.5zM348 679l72 181l108 -28z" />
<glyph unicode="&#xdb;" horiz-adv-x="620" d="M-20 640l342 36l-107 -80q-1 -20 -1 -60v-12v-58.5t1 -61t2.5 -65t4.5 -62t7.5 -61.5t11 -53.5t15.5 -48t20.5 -35.5t27 -25t33.5 -8q66 0 103.5 72t37.5 222q0 151 -19 244l-99 47l269 34l-99 -80q2 -54 2 -79v-7q0 -74 -0.5 -111.5t-4.5 -101t-11.5 -97t-22.5 -77.5 t-37.5 -65t-56 -37t-77.5 -16q-35 0 -64.5 12.5t-51.5 31.5t-40 52.5t-30 63.5t-22 78.5t-15.5 82.5t-10 90t-6 88.5t-4.5 88.5zM222 708l108 157l109 -158l-108 66z" />
<glyph unicode="&#xdc;" horiz-adv-x="620" d="M-20 640l342 36l-107 -80q-1 -20 -1 -60v-12v-58.5t1 -61t2.5 -65t4.5 -62t7.5 -61.5t11 -53.5t15.5 -48t20.5 -35.5t27 -25t33.5 -8q66 0 103.5 72t37.5 222q0 151 -19 244l-99 47l269 34l-99 -80q2 -54 2 -79v-7q0 -74 -0.5 -111.5t-4.5 -101t-11.5 -97t-22.5 -77.5 t-37.5 -65t-56 -37t-77.5 -16q-35 0 -64.5 12.5t-51.5 31.5t-40 52.5t-30 63.5t-22 78.5t-15.5 82.5t-10 90t-6 88.5t-4.5 88.5zM214 749q0 22 15.5 37.5t37.5 15.5q23 0 38 -15t15 -38q0 -22 -15.5 -37t-37.5 -15t-37.5 15t-15.5 37zM361 752q0 22 16 38.5t38 16.5 q23 0 39 -16t16 -39q0 -22 -16 -38.5t-39 -16.5q-22 0 -38 16.5t-16 38.5z" />
<glyph unicode="&#xdd;" horiz-adv-x="622" d="M-38 605l335 80l-92 -83l110 -284l131 276l-81 84l316 -53l-124 -58l-210 -306l12 -177l97 -71l-332 -22l110 73l37 199l-191 300zM321 677l72 181l108 -28z" />
<glyph unicode="&#xde;" horiz-adv-x="600" d="M-15 7l121 72l34 503l-143 91l334 23l-106 -65v-29q60 -1 109.5 -7.5t99.5 -22.5t83.5 -41t54.5 -67t21 -97q0 -52 -20.5 -94t-54 -68.5t-78 -44t-89.5 -24.5t-92 -7h-34v-61l123 -61h-363zM225 178q64 0 111.5 16.5t70.5 37.5t36.5 49.5t16 44.5t2.5 30q0 17 -2.5 34 t-15 45.5t-33.5 49.5t-64.5 36.5t-102.5 15.5q-12 0 -19 -1v-358z" />
<glyph unicode="&#xdf;" horiz-adv-x="652" d="M7 372l67 107q8 95 56.5 153.5t129.5 58.5q69 0 119 -34t50 -99q0 -33 -13.5 -63t-30 -48.5t-30 -39.5t-13.5 -38q0 -34 31 -53.5t75 -30t88 -24.5t75 -47t31 -87q0 -51 -27.5 -86.5t-64.5 -50t-79 -14.5q-95 0 -170 66l-74 -99l23 242q33 -70 88.5 -113.5t119.5 -43.5 q39 0 62 16.5t23 46.5q0 24 -22.5 41t-55.5 26t-72.5 23t-72.5 30.5t-55.5 51t-22.5 82.5q0 33 41 104t41 102q0 24 -6 41.5t-14 26t-18 13t-14.5 5t-8.5 0.5q-52 -2 -69.5 -66.5t-20.5 -192.5l-6 -373l-151 1l88 60q-18 171 -27 327z" />
<glyph unicode="&#xe0;" d="M26 123q0 63 59 109t156 46q68 0 112 -23q-15 174 -112 174q-52 0 -96 -41.5t-67 -113.5l-41 239l62 -95q70 86 180 86q78 -4 126.5 -56t48.5 -144q0 -118 -41 -231l104 -73l-184 8l11 60q-57 -72 -156 -79q-80 -6 -121 30.5t-41 103.5zM89 669l117 36l71 -181zM138 125 q0 -76 72 -76q43 0 80.5 28.5t62.5 70.5q2 36 2 51v6q-47 18 -108 18q-52 -2 -80.5 -31.5t-28.5 -66.5z" />
<glyph unicode="&#xe1;" d="M26 123q0 63 59 109t156 46q68 0 112 -23q-15 174 -112 174q-52 0 -96 -41.5t-67 -113.5l-41 239l62 -95q70 86 180 86q78 -4 126.5 -56t48.5 -144q0 -118 -41 -231l104 -73l-184 8l11 60q-57 -72 -156 -79q-80 -6 -121 30.5t-41 103.5zM138 125q0 -76 72 -76 q43 0 80.5 28.5t62.5 70.5q2 36 2 51v6q-47 18 -108 18q-52 -2 -80.5 -31.5t-28.5 -66.5zM234 527l72 181l108 -28z" />
<glyph unicode="&#xe2;" d="M26 123q0 63 59 109t156 46q68 0 112 -23q-15 174 -112 174q-52 0 -96 -41.5t-67 -113.5l-41 239l62 -95q70 86 180 86q78 -4 126.5 -56t48.5 -144q0 -118 -41 -231l104 -73l-184 8l11 60q-57 -72 -156 -79q-80 -6 -121 30.5t-41 103.5zM138 125q0 -76 72 -76 q43 0 80.5 28.5t62.5 70.5q2 36 2 51v6q-47 18 -108 18q-52 -2 -80.5 -31.5t-28.5 -66.5zM155 524l108 157l109 -158l-108 66z" />
<glyph unicode="&#xe3;" d="M26 123q0 63 59 109t156 46q68 0 112 -23q-15 174 -112 174q-52 0 -96 -41.5t-67 -113.5l-41 239l62 -95q70 86 180 86q78 -4 126.5 -56t48.5 -144q0 -118 -41 -231l104 -73l-184 8l11 60q-57 -72 -156 -79q-80 -6 -121 30.5t-41 103.5zM123 548q15 48 41.5 71.5 t49.5 23.5q17 0 54 -19t45 -19q19 0 34 9.5t21 19.5l5 10l22 -9q-5 -49 -31 -75.5t-51 -26.5q-16 0 -54.5 21t-54.5 20q-18 -1 -32.5 -11t-20.5 -19l-6 -10zM138 125q0 -76 72 -76q43 0 80.5 28.5t62.5 70.5q2 36 2 51v6q-47 18 -108 18q-52 -2 -80.5 -31.5t-28.5 -66.5z " />
<glyph unicode="&#xe4;" d="M26 123q0 63 59 109t156 46q68 0 112 -23q-15 174 -112 174q-52 0 -96 -41.5t-67 -113.5l-41 239l62 -95q70 86 180 86q78 -4 126.5 -56t48.5 -144q0 -118 -41 -231l104 -73l-184 8l11 60q-57 -72 -156 -79q-80 -6 -121 30.5t-41 103.5zM138 125q0 -76 72 -76 q43 0 80.5 28.5t62.5 70.5q2 36 2 51v6q-47 18 -108 18q-52 -2 -80.5 -31.5t-28.5 -66.5zM138 582q0 22 15.5 37.5t37.5 15.5q23 0 38 -15.5t15 -37.5t-15.5 -37t-37.5 -15t-37.5 15t-15.5 37zM285 585q0 22 16 38.5t38 16.5q23 0 39 -16t16 -39q0 -22 -16 -38.5t-39 -16.5 q-22 0 -38 16.5t-16 38.5z" />
<glyph unicode="&#xe5;" d="M26 123q0 63 59 109t156 46q68 0 112 -23q-15 174 -112 174q-52 0 -96 -41.5t-67 -113.5l-41 239l62 -95q70 86 180 86q78 -4 126.5 -56t48.5 -144q0 -118 -41 -231l104 -73l-184 8l11 60q-57 -72 -156 -79q-80 -6 -121 30.5t-41 103.5zM138 125q0 -76 72 -76 q43 0 80.5 28.5t62.5 70.5q2 36 2 51v6q-47 18 -108 18q-52 -2 -80.5 -31.5t-28.5 -66.5zM162 632q0 35 26.5 59.5t62.5 24.5q35 0 61.5 -24.5t26.5 -59.5t-26.5 -59t-61.5 -24q-36 0 -62.5 24t-26.5 59zM218 632q0 -20 9.5 -36t23.5 -16q11 0 21.5 16.5t10.5 35.5 q0 20 -9 36.5t-23 16.5t-23.5 -16.5t-9.5 -36.5z" />
<glyph unicode="&#xe6;" horiz-adv-x="809" d="M26 123q0 63 59 109t156 46q68 0 112 -23q-15 174 -112 174q-52 0 -96 -41.5t-67 -113.5l-41 239l62 -95q70 86 180 86q90 -5 139 -72q65 71 177 64q78 -5 131.5 -72.5t60.5 -158.5l-317 -86q15 -62 46.5 -104t79.5 -42q64 0 99.5 48t26.5 100q46 -17 46 -76 q0 -48 -53 -84.5t-131 -36.5q-69 0 -120.5 34.5t-79.5 93.5q-33 -50 -86.5 -84.5t-109.5 -38.5q-80 -6 -121 30.5t-41 103.5zM138 125q0 -76 72 -76q40 0 83 31.5t73 73.5q-11 25 -11 45v6q-47 18 -108 18q-52 -2 -80.5 -31.5t-28.5 -66.5zM461 258q0 -17 1 -26l211 89 q-20 61 -49 91t-58 30q-55 0 -80 -54.5t-25 -129.5z" />
<glyph unicode="&#xe7;" horiz-adv-x="482" d="M27 225q0 59 17 106.5t43 76t59 47.5t61 26t53 7q83 0 128 -66l99 100l-81 -264q-5 46 -18 80.5t-26.5 50.5t-30.5 25t-24.5 10.5t-13.5 1.5q-71 0 -112.5 -54.5t-41.5 -151.5q0 -89 39.5 -140.5t93.5 -51.5q59 0 98.5 48.5t33.5 109.5q37 -32 37 -73q0 -63 -54.5 -103.5 t-120.5 -40.5h-5l-13 -30q17 0 34.5 -15.5t17.5 -42.5q0 -31 -18.5 -47t-48.5 -16q-18 0 -37.5 13t-26.5 31l14 21q18 -23 40 -23q13 0 21.5 9t8.5 23q0 22 -44 22q-14 0 -20 -2l41 60q-26 4 -49.5 12t-53 26.5t-50.5 44.5t-35.5 70.5t-14.5 99.5z" />
<glyph unicode="&#xe8;" horiz-adv-x="480" d="M27 249q0 115 63.5 184.5t175.5 62.5q78 -5 131.5 -72.5t60.5 -158.5l-317 -86q15 -62 46.5 -104t79.5 -42q64 0 99.5 48t26.5 100q46 -17 46 -76q0 -48 -53 -84.5t-131 -36.5q-104 0 -166 76t-62 189zM46 662l117 36l71 -181zM132 258q0 -18 1 -27l214 78 q-20 66 -50 99.5t-60 33.5q-55 0 -80 -54.5t-25 -129.5z" />
<glyph unicode="&#xe9;" horiz-adv-x="480" d="M27 249q0 115 63.5 184.5t175.5 62.5q78 -5 131.5 -72.5t60.5 -158.5l-317 -86q15 -62 46.5 -104t79.5 -42q64 0 99.5 48t26.5 100q46 -17 46 -76q0 -48 -53 -84.5t-131 -36.5q-104 0 -166 76t-62 189zM132 258q0 -18 1 -27l214 78q-20 66 -50 99.5t-60 33.5 q-55 0 -80 -54.5t-25 -129.5zM192 517l72 181l108 -28z" />
<glyph unicode="&#xea;" horiz-adv-x="480" d="M27 249q0 115 63.5 184.5t175.5 62.5q78 -5 131.5 -72.5t60.5 -158.5l-317 -86q15 -62 46.5 -104t79.5 -42q64 0 99.5 48t26.5 100q46 -17 46 -76q0 -48 -53 -84.5t-131 -36.5q-104 0 -166 76t-62 189zM117 506l108 157l109 -158l-108 66zM132 258q0 -18 1 -27l214 78 q-20 66 -50 99.5t-60 33.5q-55 0 -80 -54.5t-25 -129.5z" />
<glyph unicode="&#xeb;" horiz-adv-x="480" d="M27 249q0 115 63.5 184.5t175.5 62.5q78 -5 131.5 -72.5t60.5 -158.5l-317 -86q15 -62 46.5 -104t79.5 -42q64 0 99.5 48t26.5 100q46 -17 46 -76q0 -48 -53 -84.5t-131 -36.5q-104 0 -166 76t-62 189zM95 578q0 22 15.5 37.5t37.5 15.5t37.5 -15.5t15.5 -37.5t-15.5 -37 t-37.5 -15t-37.5 15t-15.5 37zM132 258q0 -18 1 -27l214 78q-20 66 -50 99.5t-60 33.5q-55 0 -80 -54.5t-25 -129.5zM242 581q0 22 16 38.5t38 16.5q23 0 39 -16t16 -39q0 -22 -16 -38.5t-39 -16.5q-22 0 -38 16.5t-16 38.5z" />
<glyph unicode="&#xec;" horiz-adv-x="250" d="M-58 651l117 36l71 -181zM-14 451l210 36l-38 -392l105 -65l-247 -35l77 60l-17 337z" />
<glyph unicode="&#xed;" horiz-adv-x="250" d="M-14 451l210 36l-38 -392l105 -65l-247 -35l77 60l-17 337zM132 511l72 181l108 -28z" />
<glyph unicode="&#xee;" horiz-adv-x="263" d="M-12 451l210 36l-38 -392l105 -65l-247 -35l77 60l-17 337zM18 511l108 157l109 -158l-108 66z" />
<glyph unicode="&#xef;" horiz-adv-x="250" d="M-14 451l210 36l-38 -392l105 -65l-247 -35l77 60l-17 337zM-4 575q0 22 15.5 37.5t37.5 15.5q23 0 38 -15t15 -38q0 -22 -15.5 -37t-37.5 -15t-37.5 15t-15.5 37zM143 578q0 22 16 38.5t38 16.5q23 0 39 -16t16 -39q0 -22 -16 -38.5t-39 -16.5q-22 0 -38 16.5t-16 38.5z " />
<glyph unicode="&#xf0;" horiz-adv-x="524" d="M28 248q7 113 70 182.5t161 69.5q39 0 73 -12q-21 58 -49 102l-103 -68l-15 74l82 45q-11 14 -22 25.5t-17 15.5l-5 5l35 41q30 -17 70 -53l75 41l34 -36l-68 -46q143 -160 143 -389q0 -119 -69.5 -189t-169.5 -70q-102 0 -167 72.5t-58 189.5zM82 230q0 -80 40 -130 t101 -50q62 0 105.5 51.5t43.5 135.5t-43.5 135.5t-102.5 51.5q-62 0 -103 -56.5t-41 -137.5z" />
<glyph unicode="&#xf1;" horiz-adv-x="529" d="M-9 472l167 17v-74q67 93 150 93q82 0 124.5 -57t42.5 -148q0 -133 -38 -230l96 -31l-254 -50l86 65q18 64 18 138q0 35 -4 67t-14 70t-34 60.5t-59 22.5q-62 0 -114 -75v-270l81 -58l-242 -17l64 71l34 355zM131 565q15 48 41.5 71.5t49.5 23.5q17 0 54 -19t45 -19 q19 0 34 10t21 20l5 9l22 -9q-5 -49 -31 -75.5t-51 -26.5q-16 0 -54.5 21t-54.5 20q-18 -1 -32.5 -11t-20.5 -20l-6 -9z" />
<glyph unicode="&#xf2;" horiz-adv-x="520" d="M27 245q0 110 65.5 182.5t167.5 72.5q98 0 161 -69.5t70 -182.5q7 -117 -58 -189.5t-167 -72.5q-100 0 -169.5 70t-69.5 189zM82 677l117 36l71 -181zM147 237q0 -84 43.5 -135.5t105.5 -51.5q61 0 101 50t40 130q0 81 -41 137.5t-103 56.5q-59 0 -102.5 -51.5 t-43.5 -135.5z" />
<glyph unicode="&#xf3;" horiz-adv-x="520" d="M27 245q0 110 65.5 182.5t167.5 72.5q98 0 161 -69.5t70 -182.5q7 -117 -58 -189.5t-167 -72.5q-100 0 -169.5 70t-69.5 189zM147 237q0 -84 43.5 -135.5t105.5 -51.5q61 0 101 50t40 130q0 81 -41 137.5t-103 56.5q-59 0 -102.5 -51.5t-43.5 -135.5zM238 530l72 181 l108 -28z" />
<glyph unicode="&#xf4;" horiz-adv-x="520" d="M27 245q0 110 65.5 182.5t167.5 72.5q98 0 161 -69.5t70 -182.5q7 -117 -58 -189.5t-167 -72.5q-100 0 -169.5 70t-69.5 189zM147 237q0 -84 43.5 -135.5t105.5 -51.5q61 0 101 50t40 130q0 81 -41 137.5t-103 56.5q-59 0 -102.5 -51.5t-43.5 -135.5zM157 527l108 157 l109 -158l-108 66z" />
<glyph unicode="&#xf5;" horiz-adv-x="520" d="M27 245q0 110 65.5 182.5t167.5 72.5q98 0 161 -69.5t70 -182.5q7 -117 -58 -189.5t-167 -72.5q-100 0 -169.5 70t-69.5 189zM126 548q15 48 41.5 71.5t49.5 23.5q17 0 54 -19t45 -19q19 0 34 9.5t20 19.5l6 10l22 -9q-5 -49 -31 -75.5t-51 -26.5q-16 0 -54.5 21 t-54.5 20q-18 -1 -32.5 -11t-20.5 -19l-6 -10zM147 237q0 -84 43.5 -135.5t105.5 -51.5q61 0 101 50t40 130q0 81 -41 137.5t-103 56.5q-59 0 -102.5 -51.5t-43.5 -135.5z" />
<glyph unicode="&#xf6;" horiz-adv-x="520" d="M27 245q0 110 65.5 182.5t167.5 72.5q98 0 161 -69.5t70 -182.5q7 -117 -58 -189.5t-167 -72.5q-100 0 -169.5 70t-69.5 189zM138 582q0 22 15.5 37.5t37.5 15.5q23 0 38 -15.5t15 -37.5t-15.5 -37t-37.5 -15t-37.5 15t-15.5 37zM147 237q0 -84 43.5 -135.5t105.5 -51.5 q61 0 101 50t40 130q0 81 -41 137.5t-103 56.5q-59 0 -102.5 -51.5t-43.5 -135.5zM285 585q0 22 16 38.5t38 16.5q23 0 39 -16t16 -39q0 -22 -16 -38.5t-39 -16.5q-22 0 -38 16.5t-16 38.5z" />
<glyph unicode="&#xf7;" horiz-adv-x="398" d="M32 301l5 73l321 27v-121zM139 202q0 24 19.5 37t39.5 13t40 -13t20 -37q0 -23 -20 -35t-40 -12t-39.5 12t-19.5 35zM139 472q0 24 19.5 37t39.5 13t40 -13t20 -37q0 -23 -20 -35t-40 -12t-39.5 12t-19.5 35z" />
<glyph unicode="&#xf8;" horiz-adv-x="520" d="M27 248q7 113 70 182.5t161 69.5q38 0 77 -13l31 60l103 -24l-54 -85q76 -74 76 -193t-69.5 -189t-169.5 -70q-61 0 -110 26l-49 -77l-36 20l45 86q-84 74 -75 207zM81 230q0 -87 47 -139l163 313q-31 20 -66 20q-62 0 -103 -56.5t-41 -137.5zM173 60q21 -10 49 -10 q62 0 105.5 51.5t43.5 135.5q0 55 -21 99z" />
<glyph unicode="&#xf9;" horiz-adv-x="534" d="M6 421l193 66q-21 -58 -33.5 -121t-14.5 -96l-2 -34q0 -88 23 -132t62 -44q40 0 71.5 32t49 84.5t26.5 109.5t10 116l-106 73h165l19 -420l88 -41l-200 -37l9 143q-67 -144 -175 -144q-70 0 -108.5 46.5t-38.5 117.5q0 134 65 257zM77 653l117 36l71 -181z" />
<glyph unicode="&#xfa;" horiz-adv-x="534" d="M6 421l193 66q-21 -58 -33.5 -121t-14.5 -96l-2 -34q0 -88 23 -132t62 -44q40 0 71.5 32t49 84.5t26.5 109.5t10 116l-106 73h165l19 -420l88 -41l-200 -37l9 143q-67 -144 -175 -144q-70 0 -108.5 46.5t-38.5 117.5q0 134 65 257zM258 499l72 181l108 -28z" />
<glyph unicode="&#xfb;" horiz-adv-x="534" d="M6 421l193 66q-21 -58 -33.5 -121t-14.5 -96l-2 -34q0 -88 23 -132t62 -44q40 0 71.5 32t49 84.5t26.5 109.5t10 116l-106 73h165l19 -420l88 -41l-200 -37l9 143q-67 -144 -175 -144q-70 0 -108.5 46.5t-38.5 117.5q0 134 65 257zM161 527l108 157l109 -158l-108 66z " />
<glyph unicode="&#xfc;" horiz-adv-x="534" d="M6 421l193 66q-21 -58 -33.5 -121t-14.5 -96l-2 -34q0 -88 23 -132t62 -44q40 0 71.5 32t49 84.5t26.5 109.5t10 116l-106 73h165l19 -420l88 -41l-200 -37l9 143q-67 -144 -175 -144q-70 0 -108.5 46.5t-38.5 117.5q0 134 65 257zM136 566q0 22 15.5 37.5t37.5 15.5 q23 0 38 -15.5t15 -37.5t-15.5 -37t-37.5 -15t-37.5 15t-15.5 37zM283 569q0 22 16 38.5t38 16.5q23 0 39 -16t16 -39q0 -22 -16 -38.5t-39 -16.5q-22 0 -38 16.5t-16 38.5z" />
<glyph unicode="&#xfd;" d="M-18 460l226 32l-42 -57q24 -186 143 -385q50 142 53 371l-73 71l219 -16l-74 -49q9 -71 10 -144.5t-10 -156.5t-36.5 -146t-77 -105t-123.5 -42q-53 0 -115 27l-36 -72l-50 192q39 -51 82 -70t76 -19q75 0 127 95q-200 209 -219 431zM255 508l72 181l108 -28z" />
<glyph unicode="&#xfe;" horiz-adv-x="505" d="M-37 656l202 34l-9 -271q55 71 131 71q79 -2 133 -65.5t54 -171.5q0 -131 -57.5 -202t-147.5 -71q-76 0 -126 50l-4 -112l99 -53l-240 -41l74 74l-21 723zM145 105q39 -60 92 -60q64 0 95 60t31 159q0 72 -24 118t-67 46q-14 0 -30.5 -5t-43 -28t-45.5 -62z" />
<glyph unicode="&#xff;" d="M-18 460l226 32l-42 -57q24 -186 143 -385q50 142 53 371l-73 71l219 -16l-74 -49q9 -71 10 -144.5t-10 -156.5t-36.5 -146t-77 -105t-123.5 -42q-53 0 -115 27l-36 -72l-50 192q39 -51 82 -70t76 -19q75 0 127 95q-200 209 -219 431zM116 575q0 22 15.5 37.5t37.5 15.5 q23 0 38 -15t15 -38q0 -22 -15.5 -37t-37.5 -15t-37.5 15t-15.5 37zM263 578q0 22 16 38.5t38 16.5q23 0 39 -16t16 -39q0 -22 -16 -38.5t-39 -16.5q-22 0 -38 16.5t-16 38.5z" />
<glyph unicode="&#x152;" horiz-adv-x="1041" d="M30 326q0 156 97 259t243 103q73 0 137 -32l472 34l9 -229l-91 163l-223 -36l7 -241l51 7l101 134l7 -308l-88 126l-69 -10l5 -192l219 -20l82 205l8 -261l-552 -18q-39 -10 -83 -10q-135 0 -233.5 90.5t-98.5 235.5zM93 326q0 -108 62.5 -171t155.5 -63q97 0 167.5 65.5 t70.5 178.5q0 114 -70 179t-161 65q-97 0 -161 -69.5t-64 -184.5zM601 582l2 -2v1z" />
<glyph unicode="&#x153;" horiz-adv-x="844" d="M28 248q7 113 70 182.5t161 69.5q111 0 179 -87q65 90 192 83q78 -5 131.5 -72.5t60.5 -158.5l-317 -86q15 -62 46.5 -104t79.5 -42q64 0 99.5 48t26.5 100q46 -17 46 -76q0 -48 -53 -84.5t-131 -36.5q-115 0 -179 92q-70 -90 -187 -90q-102 0 -167 72.5t-58 189.5z M82 230q0 -80 40 -130t101 -50q62 0 105.5 51.5t43.5 135.5t-43.5 135.5t-102.5 51.5q-62 0 -103 -56.5t-41 -137.5zM496 258q0 -17 1 -26l211 89q-20 61 -49 91t-58 30q-55 0 -80 -54.5t-25 -129.5z" />
<glyph unicode="&#x178;" horiz-adv-x="622" d="M-38 605l335 80l-92 -83l110 -284l131 276l-81 84l316 -53l-124 -58l-210 -306l12 -177l97 -71l-332 -22l110 73l37 199l-191 300zM193 764q0 22 15.5 37.5t37.5 15.5t37.5 -15.5t15.5 -37.5t-15.5 -37t-37.5 -15t-37.5 15t-15.5 37zM340 767q0 22 16 38.5t38 16.5 q23 0 39 -16t16 -39q0 -22 -16 -38.5t-39 -16.5q-22 0 -38 16.5t-16 38.5z" />
<glyph unicode="&#x2c6;" horiz-adv-x="271" d="M27 558l108 157l109 -158l-108 66z" />
<glyph unicode="&#x2dc;" horiz-adv-x="302" d="M15 593q15 48 41.5 71.5t49.5 23.5q17 0 54 -19t45 -19q19 0 34 10t21 20l5 9l22 -9q-5 -49 -31 -75.5t-51 -26.5q-16 0 -54.5 21t-54.5 20q-18 -1 -32.5 -11t-20.5 -20l-6 -9z" />
<glyph unicode="&#x2000;" horiz-adv-x="446" />
<glyph unicode="&#x2001;" horiz-adv-x="892" />
<glyph unicode="&#x2002;" horiz-adv-x="446" />
<glyph unicode="&#x2003;" horiz-adv-x="892" />
<glyph unicode="&#x2004;" horiz-adv-x="297" />
<glyph unicode="&#x2005;" horiz-adv-x="223" />
<glyph unicode="&#x2006;" horiz-adv-x="148" />
<glyph unicode="&#x2007;" horiz-adv-x="148" />
<glyph unicode="&#x2008;" horiz-adv-x="111" />
<glyph unicode="&#x2009;" horiz-adv-x="178" />
<glyph unicode="&#x200a;" horiz-adv-x="49" />
<glyph unicode="&#x2010;" horiz-adv-x="434" d="M54 301l5 73l321 27v-121z" />
<glyph unicode="&#x2011;" horiz-adv-x="434" d="M54 301l5 73l321 27v-121z" />
<glyph unicode="&#x2012;" horiz-adv-x="434" d="M54 301l5 73l321 27v-121z" />
<glyph unicode="&#x2013;" horiz-adv-x="509" d="M54 301l5 73l396 27v-121z" />
<glyph unicode="&#x2014;" horiz-adv-x="659" d="M54 301l5 73l546 27v-121z" />
<glyph unicode="&#x2018;" horiz-adv-x="189" d="M38 570q0 70 95 95q-2 -3 -5.5 -8t-4.5 -7t-3.5 -6.5t-3 -8t-1.5 -9t-1 -11.5q18 -4 33 -15.5t15 -29.5q0 -22 -21 -33.5t-43 -11.5q-21 0 -40.5 11.5t-19.5 33.5z" />
<glyph unicode="&#x2019;" horiz-adv-x="182" d="M36 620q0 22 21 33.5t43 11.5q21 0 40.5 -11.5t19.5 -33.5q0 -70 -95 -95q2 3 5.5 8t4.5 7t3.5 6.5t3 8t1.5 9t1 11.5q-18 4 -33 15.5t-15 29.5z" />
<glyph unicode="&#x201a;" horiz-adv-x="202" d="M34 27q0 22 21 33.5t43 11.5q21 0 40.5 -11.5t19.5 -33.5q0 -70 -95 -95q2 3 5.5 8t4.5 7t3.5 6.5t3 8t1.5 9t1 11.5q-18 4 -33 15.5t-15 29.5z" />
<glyph unicode="&#x201c;" horiz-adv-x="334" d="M39 567q0 71 94 95q-2 -3 -5.5 -9t-5 -9l-4 -8t-3 -10.5t-0.5 -13.5q18 -4 32.5 -15.5t14.5 -29.5q0 -22 -21 -33.5t-42 -11.5q-22 0 -41 11.5t-19 33.5zM183 567q0 70 95 95q-2 -3 -5.5 -8t-4.5 -7t-3.5 -6.5t-3 -8t-1.5 -9t-1 -11.5q18 -4 33 -15.5t15 -29.5 q0 -22 -21 -33.5t-43 -11.5q-21 0 -40.5 11.5t-19.5 33.5z" />
<glyph unicode="&#x201d;" horiz-adv-x="326" d="M35 617q0 22 21 33.5t43 11.5q21 0 40.5 -11.5t19.5 -33.5q0 -70 -95 -95q2 3 5.5 8t4.5 7t3.5 6.5t3 8t1.5 9t1 11.5q-18 4 -33 15.5t-15 29.5zM180 617q0 22 21 33.5t42 11.5q22 0 41 -11.5t19 -33.5q0 -71 -94 -95q2 3 5.5 9t5 9l4 8t3 10.5t0.5 13.5 q-18 4 -32.5 15.5t-14.5 29.5z" />
<glyph unicode="&#x201e;" horiz-adv-x="346" d="M34 27q0 22 21 33.5t43 11.5q21 0 40.5 -11.5t19.5 -33.5q0 -70 -95 -95q2 3 5.5 8t4.5 7t3.5 6.5t3 8t1.5 9t1 11.5q-18 4 -33 15.5t-15 29.5zM179 27q0 22 21 33.5t42 11.5q22 0 41 -11.5t19 -33.5q0 -71 -94 -95q2 3 5.5 9t5 9l4 8t3 10.5t0.5 13.5q-18 4 -32.5 15.5 t-14.5 29.5z" />
<glyph unicode="&#x2022;" horiz-adv-x="334" d="M73 341q0 38 31 58.5t64 20.5q31 0 63 -20.5t32 -58.5q0 -37 -32 -56.5t-63 -19.5q-33 0 -64 19.5t-31 56.5z" />
<glyph unicode="&#x2026;" horiz-adv-x="666" d="M33 28q0 30 24.5 46t49.5 16q24 0 49 -16t25 -46q0 -28 -25 -43.5t-49 -15.5q-25 0 -49.5 15.5t-24.5 43.5zM255 28q0 30 24.5 46t49.5 16q24 0 49 -16t25 -46q0 -28 -25 -43.5t-49 -15.5q-25 0 -49.5 15.5t-24.5 43.5zM477 28q0 30 24.5 46t49.5 16q24 0 49 -16t25 -46 q0 -28 -25 -43.5t-49 -15.5q-25 0 -49.5 15.5t-24.5 43.5z" />
<glyph unicode="&#x202f;" horiz-adv-x="178" />
<glyph unicode="&#x2039;" horiz-adv-x="328" d="M27 249l207 177l40 -91l-189 -84l191 -65l-36 -98z" />
<glyph unicode="&#x203a;" horiz-adv-x="327" d="M50 186l190 65l-188 84l40 91l207 -177l-213 -161z" />
<glyph unicode="&#x205f;" horiz-adv-x="223" />
<glyph unicode="&#x20ac;" horiz-adv-x="594" d="M28 262l16 61l55 -3v31l-40 2l8 42l38 2q18 102 85 160.5t147 58.5q88 0 137 -54l95 76l-109 -234l-10 114q-37 45 -95 45q-53 0 -92 -43t-52 -118l163 8l-30 -68l-138 5v-31l130 -5l-5 -41l-119 -3q13 -75 51.5 -120.5t88.5 -45.5q56 0 85.5 49t29.5 107q0 14 -1 21 q50 -34 50 -83q0 -48 -44 -91t-116 -43q-91 0 -162 51t-89 152z" />
<glyph unicode="&#x2122;" horiz-adv-x="675" d="M70 651l224 3l-15 -114l-23 84l-60 -7l8 -196l49 -24l-156 -15l56 41l10 191l-62 3l-23 -71zM303 386l40 36l11 204l-41 26l97 5l64 -183l50 181l109 -3l-49 -37l7 -190l40 -17l-119 -25l48 43l-32 154l-43 -172l-95 156l-26 -141l38 -31z" />
<glyph unicode="&#xe000;" horiz-adv-x="495" d="M0 0v495h495v-495h-495z" />
</font>
</defs>
</svg>
