<?xml version="1.0" standalone="no"?>
<!DOCTYPE svg PUBLIC "-//W3C//DTD SVG 1.1//EN" "http://www.w3.org/Graphics/SVG/1.1/DTD/svg11.dtd" >
<svg xmlns="http://www.w3.org/2000/svg">
<metadata></metadata>
<defs>
<font id="unnaregular" horiz-adv-x="460" >
<font-face units-per-em="1000" ascent="800" descent="-200" />
<missing-glyph horiz-adv-x="220" />
<glyph horiz-adv-x="1000" />
<glyph horiz-adv-x="1000" />
<glyph unicode="&#xd;" horiz-adv-x="1000" />
<glyph unicode=" "  horiz-adv-x="220" />
<glyph unicode="&#x09;" horiz-adv-x="220" />
<glyph unicode="&#xa0;" horiz-adv-x="220" />
<glyph unicode="!" horiz-adv-x="269" d="M90 48q0 24 19 40.5t46 16.5t45.5 -17t18.5 -41q0 -23 -19.5 -40t-45.5 -17q-25 0 -44.5 17t-19.5 41zM105 588q0 49 49 49q50 0 50 -49q0 -28 -6 -68l-13 -92q-19 -137 -19 -211q0 -16 -11 -16q-12 0 -12 16q0 74 -19 211l-13 92q-6 40 -6 68z" />
<glyph unicode="&#x22;" horiz-adv-x="252" d="M34 600q0 40 33 40t33 -40l-20 -174q0 -17 -13 -17t-13 17zM152 600q0 40 33 40t33 -40l-20 -174q0 -17 -13 -17t-13 17z" />
<glyph unicode="#" horiz-adv-x="505" d="M18 194l11 40h99l52 171h-100l11 40h100l59 194h40l-59 -194h114l59 194h40l-58 -194h101l-11 -40h-102l-51 -171h101l-12 -40h-101l-61 -203h-40l61 203h-114l-61 -203h-40l61 203h-99zM168 234h115l51 171h-114z" />
<glyph unicode="$" horiz-adv-x="466" d="M87 135v106l19 1q8 -45 41.5 -73t80.5 -28q32 0 49.5 16.5t17.5 43.5q0 24 -12.5 38t-43.5 22l-80 22q-33 8 -52.5 32.5t-19.5 57.5q0 42 32.5 69t86.5 29v176h37v-180q8 -1 33 -7.5t36 -6.5q12 0 23 7l-5 -91h-18q0 32 -27 56t-71 24q-67 0 -67 -55q0 -41 52 -54l81 -22 q75 -20 75 -90q0 -47 -30 -75t-82 -33v-215h-37v215q-20 2 -53 11t-42 9q-16 0 -24 -5z" />
<glyph unicode="%" horiz-adv-x="548" d="M0 -52l511 718l37 -22l-512 -721zM30 538q0 69 33.5 105.5t88.5 36.5q56 0 89.5 -37t33.5 -105q0 -69 -33.5 -105.5t-89.5 -36.5q-57 0 -89.5 37t-32.5 105zM94 538q0 -123 58 -123q59 0 59 123q0 124 -59 124q-58 0 -58 -124zM300 74q0 69 33.5 105.5t88.5 36.5 q56 0 89.5 -37t33.5 -105q0 -69 -33.5 -105.5t-89.5 -36.5q-57 0 -89.5 37t-32.5 105zM364 74q0 -123 58 -123q59 0 59 123q0 124 -59 124q-58 0 -58 -124z" />
<glyph unicode="&#x26;" horiz-adv-x="610" d="M22 163q0 104 83 163l73 52q-46 59 -46 114q0 48 38 81t92 33q124 0 124 -103q0 -25 -11.5 -49t-30.5 -35l-57 -36l141 -192q33 80 33 158q0 23 -14 23l-46 -2v29h151v-29l-46 2q-13 0 -13 -22q0 -95 -44 -189l90 -122q10 -13 30 -13l56 2v-28h-167l-60 81 q-32 -43 -73 -67t-109 -24q-80 0 -137 46.5t-57 126.5zM111 171q0 -63 38 -106.5t95 -43.5q76 0 136 84l-181 245l-17 -14q-34 -25 -52.5 -70t-18.5 -95zM209 515q0 -28 19 -54q21 -29 38 -50l44 36q20 20 20 57q0 31 -19.5 52.5t-44.5 21.5q-23 0 -40 -18.5t-17 -44.5z" />
<glyph unicode="'" horiz-adv-x="133" d="M34 600q0 40 33 40t33 -40l-20 -174q0 -17 -13 -17t-13 17z" />
<glyph unicode="(" horiz-adv-x="254" d="M18 240q0 243 193 471h43q-64 -81 -103 -221t-39 -250t39 -250t103 -221h-43q-193 228 -193 471z" />
<glyph unicode=")" horiz-adv-x="254" d="M0 -231q64 81 103 221t39 250t-39 250t-103 221h43q193 -228 193 -471t-193 -471h-43z" />
<glyph unicode="*" horiz-adv-x="338" d="M20 492q0 22 7 30t26 8q10 0 19.5 -12t35.5 -12q15 0 27 5q0 13 -11 29.5t-20 20.5q-3 1 -10 2.5t-10 3.5q-13 7 -13 26q0 12 16.5 24.5t31.5 12.5q8 0 18 -8t10 -21q0 -3 -3 -9.5t-3 -12.5q0 -9 9.5 -25.5t18.5 -22.5q10 6 18.5 22.5t8.5 25.5q0 6 -2.5 12.5t-2.5 9.5 q0 13 10 21t17 8q14 0 31.5 -13.5t17.5 -22.5q0 -21 -13 -28q-3 -1 -10.5 -2t-12.5 -4q-9 -5 -18 -21t-11 -28q12 -5 28 -5q26 0 35.5 12t19.5 12q19 0 26 -8t7 -30t-7 -30t-26 -8q-10 0 -19.5 12t-35.5 12q-16 0 -28 -5q0 -11 10.5 -28t18.5 -21q4 -2 11 -3t11 -3 q14 -8 14 -28q0 -9 -17 -22.5t-32 -13.5q-7 0 -17 8t-10 21q0 3 2.5 9.5t2.5 12.5q0 9 -9 25.5t-18 22.5q-11 -8 -19.5 -23.5t-8.5 -24.5q0 -6 3 -12.5t3 -9.5q0 -13 -10 -21t-17 -8q-14 0 -31.5 13t-17.5 23q0 17 12 27q4 4 12 4.5t13 3.5q9 7 18 21.5t9 26.5q-12 5 -27 5 q-26 0 -35.5 -12t-19.5 -12q-19 0 -26 8t-7 30z" />
<glyph unicode="+" d="M20 259v44h186v185h49v-185h185v-44h-185v-186h-49v186h-186z" />
<glyph unicode="," horiz-adv-x="250" d="M60 -149q26 24 47.5 58t21.5 57q0 29 -36 29q-32 0 -32 43q0 21 17.5 37t40.5 16q70 0 70 -83q0 -50 -34 -94.5t-76 -73.5z" />
<glyph unicode="-" horiz-adv-x="249" d="M22 189v55h206v-55h-206z" />
<glyph unicode="." horiz-adv-x="250" d="M60 47q0 26 18.5 42t46.5 16t46.5 -16t18.5 -42t-18.5 -41.5t-46.5 -15.5t-46.5 15.5t-18.5 41.5z" />
<glyph unicode="/" horiz-adv-x="247" d="M-5 6l219 629l38 -9l-218 -631z" />
<glyph unicode="0" horiz-adv-x="462" d="M30 267q0 139 51.5 208.5t149.5 69.5q99 0 150 -70.5t51 -207.5q0 -276 -201 -276t-201 276zM118 268q0 -145 25 -198t88 -53q64 0 89 54t25 197q0 146 -25 200t-89 54q-63 0 -88 -56t-25 -198z" />
<glyph unicode="1" horiz-adv-x="328" d="M61 461q51 15 103 57q22 18 40 37h15v-515q0 -18 15 -18l48 1v-23h-207v23l49 -1q16 0 16 18v404q0 9 -4.5 13.5t-11.5 0.5l-55 -27z" />
<glyph unicode="2" d="M52 0q9 40 38.5 85t65 84t70 78t57.5 81t23 80q0 56 -26 86t-68 30q-32 0 -51.5 -16.5t-19.5 -41.5q0 -9 5.5 -23.5t5.5 -20.5q0 -17 -13 -28.5t-29 -11.5q-20 0 -33.5 14.5t-13.5 39.5q0 42 39.5 76.5t109.5 34.5q85 0 133 -35.5t48 -103.5q0 -81 -109 -172l-61 -54 q-77 -68 -108 -117h168q92 0 92 88h26q-9 -102 -7 -155q-16 2 -30 2h-312z" />
<glyph unicode="3" horiz-adv-x="440" d="M30 93q0 23 12.5 39.5t32.5 16.5q19 0 31.5 -10t12.5 -27q0 -6 -2 -14.5t-2 -12.5q0 -30 26 -49t70 -19t75.5 38.5t31.5 90.5q0 57 -43.5 87.5t-136.5 39.5v23q58 0 103 41.5t45 99.5q0 39 -22 63.5t-55 24.5q-41 0 -61.5 -18t-20.5 -49q0 -2 1 -10.5t1 -12.5 q0 -16 -13.5 -26.5t-29.5 -10.5q-20 0 -32.5 14.5t-12.5 37.5q0 47 46.5 73t121.5 26q69 0 116.5 -32t47.5 -80q0 -57 -55.5 -101t-129.5 -50q216 0 216 -140q0 -65 -57 -110t-136 -45q-88 0 -134.5 27.5t-46.5 74.5z" />
<glyph unicode="4" horiz-adv-x="441" d="M13 138v56q14 12 26 27l25 28l202 250q12 18 32 45h30v-342h67v-64h-67v-98q0 -18 16 -18l38 1v-23h-207v23l58 -1q16 0 16 18v98h-236zM62 202h187v233z" />
<glyph unicode="5" horiz-adv-x="440" d="M42 93q0 25 13 39.5t32 14.5q42 0 42 -35q0 -10 -4 -20t-4 -15q0 -30 24.5 -45.5t57.5 -15.5q58 0 82 39t24 114q0 67 -30.5 104t-89.5 37q-30 0 -60 -14.5t-43 -35.5q-1 -1 -2 -1h-14q-4 0 -5 1l19 277h224q36 0 69 3q-27 -56 -36 -126h-26q2 14 2 30q0 10 -7.5 19 t-21.5 9h-177l-15 -171q54 42 124 42q80 0 127.5 -45t47.5 -129q0 -81 -55 -129.5t-137 -48.5q-40 0 -73 7.5t-60.5 31.5t-27.5 63z" />
<glyph unicode="6" horiz-adv-x="430" d="M42 235q0 314 207 314q57 0 87 -22.5t30 -64.5q0 -22 -12.5 -34.5t-32.5 -12.5q-41 0 -41 34q0 6 2.5 17t2.5 15q0 16 -13 28.5t-35 12.5q-51 0 -77.5 -57.5t-30.5 -150.5q31 46 90 46q81 0 126 -48.5t45 -136.5q0 -80 -48 -132.5t-123 -52.5q-51 0 -87 19t-55 54.5 t-27 76.5t-8 95zM127 175q0 -68 23.5 -116t68.5 -48q46 0 65.5 40t19.5 124q0 163 -85 163q-25 0 -42.5 -9.5t-27 -23t-14.5 -37t-6.5 -43.5t-1.5 -50z" />
<glyph unicode="7" horiz-adv-x="377" d="M23 388q20 112 20 152q11 -3 103 -3h248q-81 -85 -131.5 -218.5t-50.5 -253.5q0 -20 1 -31l2 -34h-80q-8 37 -8 73q0 182 187 399h-168q-44 0 -65.5 -19t-26.5 -65h-31z" />
<glyph unicode="8" horiz-adv-x="440" d="M37 126q0 42 33.5 82t87.5 67q-51 31 -76 63t-25 72q0 65 49 102t124 37q70 0 114 -30.5t44 -89.5q0 -36 -38 -80.5t-76 -51.5q128 -64 128 -158q0 -65 -56.5 -106.5t-129.5 -41.5q-179 0 -179 135zM104 126q0 -47 30 -78.5t82 -31.5q43 0 70.5 24.5t27.5 65.5 q0 75 -85 125l-47 29q-31 -19 -54.5 -59.5t-23.5 -74.5zM143 439q0 -31 28 -65.5t82 -62.5q70 40 70 120q0 45 -23 69t-65 24t-67 -23.5t-25 -61.5z" />
<glyph unicode="9" horiz-adv-x="430" d="M40 364q0 80 48 132.5t123 52.5q51 0 87 -19t55 -54.5t27 -76.5t8 -95q0 -314 -207 -314q-57 0 -87 22.5t-30 64.5q0 22 12.5 34.5t32.5 12.5q41 0 41 -34q0 -6 -2.5 -17t-2.5 -15q0 -16 13 -28.5t35 -12.5q51 0 77.5 57.5t30.5 150.5q-31 -46 -90 -46q-81 0 -126 48.5 t-45 136.5zM126 364q0 -163 85 -163q25 0 42.5 9.5t27 23t14.5 37t6.5 43.5t1.5 50q0 68 -23.5 116t-68.5 48q-46 0 -65.5 -40t-19.5 -124z" />
<glyph unicode=":" horiz-adv-x="250" d="M60 47q0 26 18.5 42t46.5 16t46.5 -16t18.5 -42t-18.5 -41.5t-46.5 -15.5t-46.5 15.5t-18.5 41.5zM60 345q0 26 18.5 42t46.5 16t46.5 -16t18.5 -42t-18.5 -41.5t-46.5 -15.5t-46.5 15.5t-18.5 41.5z" />
<glyph unicode=";" horiz-adv-x="250" d="M49 345q0 26 18.5 42t46.5 16t46.5 -16t18.5 -42t-18.5 -41.5t-46.5 -15.5t-46.5 15.5t-18.5 41.5zM72 -149q26 24 47.5 58t21.5 57q0 29 -36 29q-32 0 -32 43q0 21 17.5 37t40.5 16q70 0 70 -83q0 -50 -34 -94.5t-76 -73.5z" />
<glyph unicode="&#x3c;" d="M54 206v24l352 212v-48l-257 -155l-43 -20l43 -21l257 -154v-49z" />
<glyph unicode="=" d="M35 103v43h390v-43h-390zM35 302v43h390v-43h-390z" />
<glyph unicode="&#x3e;" d="M54 -5v48l256 155l43 20l-43 21l-256 154v49l352 -211v-24z" />
<glyph unicode="?" horiz-adv-x="400" d="M36 606q0 22 51 43t113 21q87 0 132 -31t45 -89q0 -32 -28.5 -65.5t-62.5 -57t-62.5 -54t-28.5 -57.5q0 -51 47 -78l-12 -19q-31 7 -69.5 40.5t-38.5 63.5q0 28 26 63t56.5 62.5t56.5 59t26 53.5q0 41 -20.5 63.5t-57.5 22.5q-96 0 -96 -54q0 -8 -8.5 -17t-17.5 -9 q-21 0 -36 11.5t-15 27.5zM128 44q0 26 19 43.5t44 17.5q29 0 48 -15t19 -43q0 -25 -19 -41t-44 -16q-26 0 -46.5 14.5t-20.5 39.5z" />
<glyph unicode="@" horiz-adv-x="741" d="M26 178q0 107 50.5 203t142.5 155.5t202 59.5q125 0 209 -83.5t84 -206.5q0 -75 -40.5 -146.5t-112.5 -123.5q-62 -46 -102 -46q-24 0 -24 46q0 49 24 151q-57 -108 -102 -152.5t-93 -44.5q-44 0 -68 32.5t-24 89.5q0 70 36.5 143.5t99.5 124t131 50.5q38 0 57 -39l5 20 l92 17l-23 -98q-42 -191 -42 -238q0 -17 13 -17q18 0 49.5 29.5t52.5 60.5q40 64 40 140q0 108 -76 185t-186 77q-103 0 -182 -57t-122 -161q-35 -88 -35 -176q0 -130 82 -209.5t221 -79.5q89 0 157.5 29.5t133.5 95.5l18 -22q-69 -71 -144 -101.5t-174 -30.5 q-160 0 -255 87t-95 236zM261 123q0 -78 50 -78q20 0 61.5 50t76.5 124t35 129q0 21 -12.5 36.5t-30.5 15.5q-48 0 -89 -43t-68 -116q-23 -64 -23 -118z" />
<glyph unicode="A" horiz-adv-x="601" d="M-20 0v29l26 -2h4q20 0 33 19q15 22 30 58l209 503h26l211 -505q14 -36 29 -57q14 -18 35 -18h5l33 2v-29h-265v29l49 -2q27 -2 30 19t-10 44l-49 118h-232l-47 -112q-6 -15 -9.5 -26.5t-4.5 -22.5t4.5 -16.5t17.5 -4.5l48 3v-29h-173zM154 236h212l-107 252z" />
<glyph unicode="B" horiz-adv-x="573" d="M50 0v29l50 -2q18 0 18 22v500q0 7 -4.5 13.5t-12.5 6.5l-51 -2v30h277q173 0 173 -143q0 -53 -37.5 -89.5t-100.5 -47.5q72 0 121.5 -44.5t49.5 -110.5q0 -162 -221 -162h-262zM211 41q0 -13 14 -13h70q64 0 102.5 36t38.5 98q0 137 -122 137h-103v-258zM211 327h76 q118 0 118 126q0 54 -32.5 85t-91.5 31h-58q-11 0 -12 -12v-230z" />
<glyph unicode="C" horiz-adv-x="607" d="M45 295q0 147 79.5 229.5t220.5 82.5q43 0 68.5 -5.5t92.5 -31.5q18 -6 47 -6q-4 -37 -4 -83q1 -3 1 -13v-14q0 -18 3 -21h-24q-14 62 -68 105.5t-121 43.5q-89 0 -141 -78.5t-52 -208.5q0 -124 54.5 -201t143.5 -77q69 0 122 42.5t67 107.5h28l-2 -21l-2 -24 q-2 -32 -2 -40q0 -29 3 -47h-6q-24 0 -69 -15l-37 -12l-37 -10q-43 -8 -70 -8q-137 0 -216 81.5t-79 223.5z" />
<glyph unicode="D" horiz-adv-x="623" d="M50 0v29l43 -2q15 0 15 22v499q0 21 -19 21l-39 -2v30h225q160 0 236.5 -69.5t76.5 -228.5q0 -299 -301 -299h-237zM201 41q0 -13 12 -13h45q124 0 176 61.5t52 208.5t-52 209t-176 62h-45q-12 0 -12 -13v-515z" />
<glyph unicode="E" horiz-adv-x="563" d="M50 0v30l40 -3q18 0 18 22v499q0 9 -5.5 15.5t-14.5 5.5l-38 -2v30h422q14 0 17 1v-155h-27q0 67 -33.5 96.5t-108.5 29.5h-107q-12 0 -12 -14v-230h94q34 0 55 27t21 74h27v-231h-27q0 44 -22.5 73t-53.5 29h-94v-256q0 -13 12 -13h140q68 0 103.5 39t35.5 112h27v-182 q-23 3 -88 3h-381z" />
<glyph unicode="F" horiz-adv-x="529" d="M50 0v30l40 -3q18 0 18 22v499q0 21 -17 21h-2l-39 -2v30h434q12 0 15 1v-155h-27q0 66 -34 96t-108 30h-117q-12 0 -12 -13v-241h75q36 0 57.5 27.5t21.5 74.5h27v-230h-27q0 45 -22 72.5t-57 27.5h-75v-239q0 -21 19 -21l52 3v-30h-222z" />
<glyph unicode="G" horiz-adv-x="646" d="M45 295q0 154 77.5 233t222.5 79q79 0 161 -37q14 -6 47 -6q-4 -20 -4 -69v-21q0 -9 1 -13v-12l3 -16h-40q1 5 1 15q0 31 -10 52q-35 82 -164 82q-87 0 -140 -73t-53 -214q0 -278 198 -278q45 0 73 9.5t55 36.5v160q0 22 -19 22l-59 -2v29h231v-29l-41 2q-19 0 -19 -21 v-189q-5 1 -14 1l-20 -2q-15 -3 -31 -8l-53 -19q-50 -17 -108 -17q-140 0 -217.5 77t-77.5 228z" />
<glyph unicode="H" horiz-adv-x="696" d="M50 0v29l39 -2q19 0 19 22v499q0 10 -4.5 16t-14.5 5l-39 -2v30h220v-30l-49 2q-9 1 -14.5 -5.5t-5.5 -15.5v-226h294v226q0 10 -4.5 16t-14.5 5l-49 -2v30h219v-30l-39 2q-9 1 -14 -5t-5 -16v-499q0 -22 19 -22l39 2v-29h-219v29l49 -2q19 0 19 22v245h-294v-245 q0 -22 20 -22l49 2v-29h-220z" />
<glyph unicode="I" horiz-adv-x="310" d="M50 0v29l39 -2q19 0 19 22v499q0 9 -5 15.5t-14 5.5l-39 -2v30h210v-30l-39 2q-9 1 -14.5 -5.5t-5.5 -15.5v-499q0 -22 20 -22l39 2v-29h-210z" />
<glyph unicode="J" horiz-adv-x="451" d="M24 -1v173h36q0 -35 8 -67.5t33.5 -60.5t63.5 -28q48 0 69 37t21 126v369q0 9 -5.5 15.5t-13.5 5.5l-69 -2v30h239v-30l-38 2q-9 1 -14.5 -5t-5.5 -15v-370q0 -189 -167 -189q-31 0 -71 7.5t-51 7.5q-29 0 -35 -6z" />
<glyph unicode="K" horiz-adv-x="617" d="M50 0v29l39 -2q19 0 19 22v499q0 10 -5 16t-14 5l-39 -2v30h220v-30l-49 2q-20 0 -20 -22v-269l215 255l11 15q6 8 6 12q0 9 -10 9l-42 -2v30h178v-30l-34 2q-30 1 -58 -29l-154 -173l240 -326q11 -14 24 -14h3l31 3v-30h-237v30l51 -3q14 -1 18.5 5t-3.5 20l-183 248 l-56 -66v-185q0 -22 20 -22l49 2v-29h-220z" />
<glyph unicode="L" horiz-adv-x="514" d="M50 0v30l43 -3q15 0 15 22v499q0 9 -5.5 15.5t-13.5 5.5l-39 -2v30h220v-30l-49 2q-9 1 -14.5 -5.5t-5.5 -15.5v-507q0 -13 12 -13h113q69 0 104.5 36.5t35.5 106.5h26v-174q-18 3 -124 3h-318z" />
<glyph unicode="M" horiz-adv-x="858" d="M45 0v29l39 -2q20 0 20 22v514q0 7 -10 6l-42 -2v30h154l233 -485l218 485h146v-30l-34 2q-9 1 -14.5 -5t-5.5 -15v-500q0 -22 20 -22l39 2v-29h-220v29l49 -2q20 0 20 22v471l-238 -530h-24l-257 536v-477q0 -22 19 -22l49 2v-29h-161z" />
<glyph unicode="N" horiz-adv-x="662" d="M45 0v29l39 -2q20 0 20 22v499q0 9 -5.5 15.5t-14.5 5.5l-39 -2v30h155l325 -443v395q0 20 -17 20h-3l-49 -2v30h161v-30l-39 2h-2q-17 0 -17 -21v-554h-30l-391 531v-476q0 -22 19 -22l49 2v-29h-161z" />
<glyph unicode="O" horiz-adv-x="670" d="M45 299q0 143 66 216q49 55 103.5 73.5t120.5 18.5q141 0 224 -92q66 -73 66 -216t-66 -216q-84 -93 -224 -93q-65 0 -120 19t-104 74q-66 73 -66 216zM147 299q0 -150 45.5 -216t142.5 -66t142.5 66t45.5 216q0 149 -45.5 215t-142.5 66t-142.5 -66t-45.5 -215z" />
<glyph unicode="P" horiz-adv-x="523" d="M50 0v29l39 -2q19 0 19 22v498q0 12 -5 17.5t-18 4.5l-35 -2v30h235q104 0 153.5 -39.5t49.5 -121.5q0 -79 -49 -126t-133 -47h-105v-214q0 -22 20 -22l49 2v-29h-220zM201 291h84q46 0 76.5 41t30.5 104q0 60 -33.5 96.5t-89.5 36.5h-56q-4 0 -8 -3.5t-4 -8.5v-266z" />
<glyph unicode="Q" horiz-adv-x="670" d="M45 299q0 143 66 216q49 55 103.5 73.5t120.5 18.5q141 0 224 -92q66 -73 66 -216t-66 -216q-69 -78 -174 -90q0 -69 46.5 -114t122.5 -45l-13 -30q-112 0 -184.5 53t-72.5 136q-104 12 -173 90q-66 73 -66 216zM147 299q0 -150 45.5 -216t142.5 -66t142.5 66t45.5 216 q0 149 -45.5 215t-142.5 66t-142.5 -66t-45.5 -215z" />
<glyph unicode="R" horiz-adv-x="581" d="M50 0v29l39 -2q19 0 19 22v499q0 22 -22 21l-36 -2v30h225q111 0 161 -37.5t50 -121.5q0 -51 -33.5 -88.5t-88.5 -52.5q50 0 93 -48t43 -127q0 -30 7.5 -61t21.5 -33q6 -2 16.5 -2t16.5 4v-30h-136q-16 32 -16 104v33q0 75 -48.5 112t-118.5 37h-42v-237q0 -22 20 -22 l49 2v-29h-220zM201 313h93q46 0 72 33t26 92q0 69 -28.5 100t-88.5 31h-62q-12 0 -12 -10v-246z" />
<glyph unicode="S" horiz-adv-x="494" d="M48 203h25q23 -185 184 -185q50 0 79.5 33t30.5 87q0 77 -99 116l-102 41q-110 44 -110 146q0 70 48.5 118t136.5 48q26 0 51 -5l42 -12l36 -12q16 -6 27 -6q18 0 29 4q-3 -24 -3 -75q0 -49 6 -67h-26q0 65 -42.5 105.5t-106.5 40.5q-52 0 -84 -28.5t-32 -79.5 q0 -68 86 -102l92 -37q76 -31 108.5 -68.5t32.5 -96.5q0 -78 -55.5 -128t-133.5 -50q-59 0 -103 13q-53 15 -79 15q-29 0 -34 -5q4 21 4 83q0 81 -8 107z" />
<glyph unicode="T" horiz-adv-x="529" d="M15 443v156q14 -2 40 -2h419q32 0 40 2v-156h-26q0 65 -28.5 95.5t-94.5 30.5h-42q-10 0 -12 -11v-509q0 -22 20 -22l53 2v-29h-239v29l54 -2q19 0 19 25v505q0 12 -12 12h-41q-66 0 -95 -30.5t-29 -95.5h-26z" />
<glyph unicode="U" horiz-adv-x="651" d="M35 567v30h219v-30l-49 2q-9 1 -14.5 -5t-5.5 -15v-350q0 -84 46.5 -131t130.5 -47q73 0 121.5 50.5t48.5 126.5v350q0 10 -5 16t-13 5l-49 -2v30h161v-30l-39 2q-9 1 -14.5 -5t-5.5 -15v-360q0 -86 -63 -142.5t-160 -56.5q-122 0 -187 53.5t-65 155.5v349q0 9 -5.5 15.5 t-13.5 5.5z" />
<glyph unicode="V" horiz-adv-x="584" d="M-5 567v30h215v-30l-53 2q-7 0 -9.5 -8t0.5 -16l181 -416l174 405l4 12q7 23 -9 23l-51 -2v30h157v-30l-36 2q-8 1 -11.5 -4t-9.5 -19l-238 -550h-26l-237 550q-11 23 -23 23z" />
<glyph unicode="W" horiz-adv-x="884" d="M-5 567v30h216v-30l-53 2q-13 1 -13 -11q0 -2 3 -11l149 -392l126 390q2 8 2 10q0 14 -19 14h-4l-37 -2v30h208v-30l-42 2q-8 2 -10.5 -7t0.5 -15l164 -406l129 408q3 8 0 14.5t-11 5.5l-52 -2v30h153v-30l-30 2q-18 1 -25 -21l-181 -558h-16l-206 520l-170 -520h-19 l-211 557q-7 22 -21 22h-2z" />
<glyph unicode="X" horiz-adv-x="566" d="M30 0v30l33 -2h3q21 0 34 22l154 246l-151 254q-10 19 -32 19l-32 -2v30h228v-30l-42 2q-12 1 -16 -6.5t2 -14.5l109 -187l119 188q6 8 4.5 14.5t-12.5 5.5l-43 -2v30h152v-30l-28 2h-3q-17 0 -31 -20l-138 -221l169 -284q10 -18 30 -17l39 3v-30h-235v30l49 -3 q11 -1 12.5 7t-5.5 16l-126 213l-135 -216q-5 -9 -2.5 -15t8.5 -5l45 3v-30h-159z" />
<glyph unicode="Y" horiz-adv-x="507" d="M-5 567v30h221v-30l-53 2q-10 1 -11.5 -7.5t4.5 -16.5l137 -228l131 232q10 20 -7 20l-52 -2v30h152v-30l-29 2h-1q-16 0 -28 -21l-146 -260v-240q0 -21 20 -21l48 2v-29h-229v29l49 -2q19 0 19 22v214l-173 287q-10 19 -24 19h-1z" />
<glyph unicode="Z" horiz-adv-x="512" d="M34 0v27l320 542h-151q-72 0 -106.5 -30.5t-34.5 -95.5h-27v157h12q5 0 29 -2h36q23 0 32 -1h320v-24l-323 -546h174q69 0 109.5 37.5t40.5 102.5h27l-8 -171q-12 4 -113 4h-337z" />
<glyph unicode="[" horiz-adv-x="256" d="M46 -147v822h177v-27h-104v-768h104v-27h-177z" />
<glyph unicode="\" horiz-adv-x="248" d="M-8 626l39 9l219 -629l-40 -11z" />
<glyph unicode="]" horiz-adv-x="256" d="M34 -120h105v768h-105v27h176v-822h-176v27z" />
<glyph unicode="^" d="M18 321l201 336h23l200 -336h-47l-145 245l-20 42l-19 -42l-147 -245h-46z" />
<glyph unicode="_" horiz-adv-x="493" d="M0 -143h493v-40h-493v40z" />
<glyph unicode="`" horiz-adv-x="517" d="M183 627q0 6 20 16t37 10q7 0 13 -3t9 -6t14 -16l95 -104q18 -20 18 -23q0 -8 -13 -8q-11 0 -20 9l-163 112q-10 8 -10 13z" />
<glyph unicode="a" horiz-adv-x="450" d="M27 105q0 79 63.5 116t203.5 37v58q0 45 -21.5 66t-66.5 21q-75 0 -75 -44q0 -8 5 -18t5 -20q0 -14 -13.5 -22.5t-34.5 -8.5q-44 0 -44 49q0 41 39.5 66t117.5 25q88 0 131 -34t43 -107v-246q0 -19 13 -19l37 2v-26h-142q2 13 4 37l2 39q-41 -81 -135 -81 q-132 0 -132 110zM118 112q0 -38 18 -59.5t50 -21.5q46 0 77 40t31 102v58q-96 0 -136 -27.5t-40 -91.5z" />
<glyph unicode="b" horiz-adv-x="496" d="M21 705v25h136v-388q37 88 131 88q173 0 173 -221q0 -219 -190 -219q-35 0 -60 10t-36 21t-26 31q-5 9 -18 9q-28 0 -28 -66h-33v692q0 20 -13 20zM159 184q0 -167 112 -167q57 0 78 41t21 151q0 114 -18.5 154t-74.5 40t-87 -47.5t-31 -129.5v-42z" />
<glyph unicode="c" horiz-adv-x="425" d="M36 209q0 99 54 160t142 61q64 0 109.5 -29.5t45.5 -73.5q0 -21 -12.5 -35t-30.5 -14q-40 0 -40 28q0 10 4.5 22.5t4.5 24.5q0 24 -23.5 37t-57.5 13q-54 0 -78.5 -46t-24.5 -151q0 -189 116 -189q45 0 84.5 31t51.5 76l25 -17q-36 -117 -167 -117q-96 0 -149.5 57 t-53.5 162z" />
<glyph unicode="d" horiz-adv-x="496" d="M35 209q0 221 189 221q46 0 75.5 -23t39.5 -59v339q0 20 -13 20l-46 -2v25h146v-687q0 -19 13 -19l37 2v-26h-144q2 8 2 16v22q0 8 1 18l1 11q-25 -77 -111 -77q-102 0 -146 53.5t-44 165.5zM127 209q0 -108 20.5 -150t77.5 -42q61 0 86.5 40t25.5 127v42q0 177 -113 177 q-54 0 -75.5 -50t-21.5 -144z" />
<glyph unicode="e" horiz-adv-x="449" d="M35 209q0 109 51 165t150 56q79 0 127.5 -50.5t50.5 -138.5v-29h-288q0 -188 126 -189q50 0 84.5 25t50.5 62l23 -17q-20 -48 -67.5 -75.5t-104.5 -27.5q-203 0 -203 219zM127 237h182q20 0 20 33q0 68 -21.5 100.5t-71.5 32.5q-56 0 -82.5 -46t-26.5 -120z" />
<glyph unicode="f" horiz-adv-x="296" d="M35 0v26l47 -2q4 0 4.5 1.5t-0.5 7t-1 10.5v352h-39v25h39v66q0 114 21 163q37 87 140 87h14q48 0 79.5 -19.5t31.5 -59.5q0 -33 -40 -33q-13 0 -24.5 7t-11.5 19q0 11 3.5 20.5t3.5 12.5q0 28 -50 28q-37 0 -62.5 -26t-25.5 -88q0 -27 3 -77t3 -71v-29h107v-25h-106 v-352q0 -19 13 -19l66 2v-26h-215z" />
<glyph unicode="g" d="M32 -112q0 74 90 117q-26 7 -39 12.5t-25.5 22t-12.5 42.5q0 23 37 47t41 30q-30 14 -48 47t-18 74q0 67 47.5 108.5t122.5 41.5q39 0 76 -12q25 34 61.5 60.5t56.5 26.5q25 0 35.5 -13.5t10.5 -30.5q0 -13 -9 -25t-23 -12q-18 0 -27.5 11.5t-17.5 11.5q-10 0 -31.5 -11 t-34.5 -27q74 -30 74 -129q0 -66 -47 -107.5t-124 -41.5q-41 0 -75 14q-39 -20 -39 -43q0 -37 58 -37h133q74 0 111.5 -32t37.5 -107q0 -78 -65 -124.5t-173 -46.5q-88 0 -135.5 34t-47.5 99zM81 -110q0 -49 33.5 -79t99.5 -30q83 0 128 38t45 100q0 81 -98 81h-89 q-42 0 -80.5 -33.5t-38.5 -76.5zM146 280q0 -72 17 -99t64 -27t64.5 28.5t17.5 97.5q0 67 -18 95t-64 28t-63.5 -26.5t-17.5 -96.5z" />
<glyph unicode="h" horiz-adv-x="525" d="M35 0v26l37 -2q13 3 13 19v643q0 21 -13 21l-37 -2v25h136v-399q21 46 60 72.5t90 26.5q71 0 102.5 -33.5t31.5 -108.5v-245q0 -19 13 -19l37 2v-26h-195v26l46 -2q13 3 13 19v227q0 71 -12 99.5t-55 28.5q-60 0 -95.5 -52t-35.5 -138v-165q0 -19 13 -19l46 2v-26h-195z " />
<glyph unicode="i" horiz-adv-x="255" d="M35 0v26l37 -2q13 0 13 19v333q0 17 -12 20l-37 -2v26h135v-377q0 -19 13 -19l36 2v-26h-185zM67 633q0 21 15 34t39 13t39.5 -13t15.5 -34q0 -23 -15 -35.5t-40 -12.5q-24 0 -39 12.5t-15 35.5z" />
<glyph unicode="j" horiz-adv-x="251" d="M-58 -212q0 43 25 43q10 0 16 -7l13 -16q18 -24 38 -24q53 0 53 83q0 1 -0.5 14.5t-1 31t-0.5 28.5v435q0 20 -13 20l-41 -2v26h140v-424q0 -239 -143 -239q-51 0 -68.5 6t-17.5 25zM69 633q0 22 15 34.5t39 12.5t39.5 -13t15.5 -34q0 -23 -15.5 -35.5t-39.5 -12.5 q-25 0 -39.5 12.5t-14.5 35.5z" />
<glyph unicode="k" horiz-adv-x="511" d="M35 0v26l37 -2q13 3 13 19v643q0 21 -12 21l-37 -2v25h135v-493l163 140q4 4 5.5 8.5t-0.5 8t-8 3.5l-43 -2v25h162v-25l-36 2q-15 0 -31 -14l-117 -100l175 -241q13 -18 27 -18l36 2v-26h-215v26l45 -2q9 -1 11 4t-2 10l-139 192l-33 -28v-159q0 -19 13 -19l46 2v-26 h-195z" />
<glyph unicode="l" horiz-adv-x="255" d="M35 0v26l37 -2q13 3 13 19v644q0 17 -12 21l-37 -2v25h135v-688q0 -19 13 -19l36 2v-26h-185z" />
<glyph unicode="m" horiz-adv-x="801" d="M35 0v26l37 -2q13 3 13 19v333q0 20 -13 20l-37 -2v26h142q-5 -15 -5 -34l-1 -58q15 45 53 73.5t93 28.5q123 0 130 -114q17 55 57 84.5t93 29.5q71 0 102.5 -33.5t31.5 -108.5v-245q0 -19 13 -19l37 2v-26h-195v26l46 -2q13 3 13 19v227q0 71 -12 99.5t-55 28.5 q-56 0 -91.5 -52.5t-35.5 -137.5v-165q0 -19 13 -19l47 2v-26h-205v26l46 -2q13 3 13 19v229q0 76 -13.5 100.5t-57.5 24.5q-55 0 -89 -52.5t-34 -134.5v-167q0 -19 13 -19l46 2v-26h-195z" />
<glyph unicode="n" horiz-adv-x="525" d="M35 0v26l37 -2q13 3 13 19v333q0 17 -13 20l-37 -2v26h141q-5 -15 -5 -35v-54q21 46 60 72.5t90 26.5q71 0 102.5 -33.5t31.5 -108.5v-245q0 -19 13 -19l37 2v-26h-195v26l46 -2q13 3 13 19v227q0 71 -12 99.5t-55 28.5q-60 0 -95.5 -52t-35.5 -138v-165q0 -19 13 -19 l46 2v-26h-195z" />
<glyph unicode="o" horiz-adv-x="472" d="M35 211q0 102 51 160.5t150 58.5t150 -58.5t51 -160.5q0 -104 -51 -162.5t-150 -58.5t-150 58.5t-51 162.5zM126 209q0 -101 25.5 -146.5t84.5 -45.5t84.5 45.5t25.5 146.5q0 102 -25.5 148t-84.5 46t-84.5 -46t-25.5 -148z" />
<glyph unicode="p" horiz-adv-x="494" d="M20 394v26h139q-4 -25 -4 -51v-29q31 90 132 90q172 0 172 -221q0 -110 -46.5 -164.5t-143.5 -54.5q-85 0 -114 53v-238q0 -20 13 -20l62 2v-26h-206v26l32 -2q13 1 13 20v571q0 20 -13 20zM157 184q0 -167 112 -167q57 0 78 41t21 151q0 111 -19 152.5t-73 41.5 q-56 0 -87.5 -48.5t-31.5 -128.5v-42z" />
<glyph unicode="q" horiz-adv-x="490" d="M35 209q0 221 189 221q42 0 68.5 -12.5t48.5 -42.5q11 -14 20 -14q31 0 31 59h33v-615q0 -10 3 -15t10 -4l32 1v-26h-200v26l56 -1q13 1 13 19v257q-11 -30 -41.5 -51t-75.5 -21q-95 0 -141 48t-46 171zM127 209q0 -81 13 -124t32.5 -55.5t54.5 -12.5q29 0 51.5 17.5 t34.5 44t18 54t6 52.5v41q0 31 -4.5 59t-15.5 56t-33 45t-53 17q-55 0 -79.5 -44.5t-24.5 -149.5z" />
<glyph unicode="r" horiz-adv-x="383" d="M35 394v26h141q-6 -16 -6 -46v-48q42 104 124 104q36 0 55.5 -16t19.5 -44q0 -46 -39 -46q-41 0 -41 26q0 4 2 11.5t2 13.5q0 17 -28 17q-42 0 -68.5 -61.5t-26.5 -122.5v-165q0 -19 13 -19l61 2v-26h-205v26l32 -2q13 0 13 19v333q0 20 -13 20z" />
<glyph unicode="s" horiz-adv-x="411" d="M44 10l5 132l26 2q0 -55 42.5 -91t102.5 -36q40 0 62 20.5t22 55.5q0 28 -16 46t-54 29l-96 27q-40 12 -63 40.5t-23 70.5q0 55 41 89.5t112 34.5q27 0 69 -11l28 -7q11 -4 23 -4q15 0 28 8l-6 -114h-22q0 40 -31.5 70.5t-85.5 30.5q-38 0 -59.5 -20t-21.5 -51 q0 -49 62 -66l96 -27q51 -14 72 -41.5t21 -71.5q0 -65 -46 -100.5t-120 -35.5q-33 0 -78 13l-34 9q-15 4 -27 4q-20 0 -29 -6z" />
<glyph unicode="t" horiz-adv-x="313" d="M25 395v25q58 0 80.5 18.5t37.5 83.5h28v-102h110v-25h-110v-307q0 -38 9 -51.5t32 -13.5q15 0 31 11.5t21 28.5l21 -13q-20 -56 -106 -56q-51 0 -72.5 24t-21.5 78v299h-60z" />
<glyph unicode="u" horiz-adv-x="524" d="M20 394v26h135v-272q0 -68 12 -96.5t49 -28.5q62 0 99.5 50.5t37.5 137.5v164q0 21 -12 21l-47 -2v26h146v-377q0 -19 13 -19l36 2v-26h-142q6 14 6 87q-41 -97 -158 -97q-67 0 -96.5 37t-29.5 121v228q0 20 -13 20z" />
<glyph unicode="v" horiz-adv-x="444" d="M-13 394v26h203v-26l-44 2q-7 0 -12.5 -6t-2.5 -14l109 -264l106 268q3 5 1.5 11t-9.5 5l-44 -2v26h141v-26l-33 2q-18 0 -23 -15l-158 -386h-27l-154 388q-6 13 -20 13z" />
<glyph unicode="w" horiz-adv-x="725" d="M-13 394v26h213v-26l-44 2q-11 1 -14.5 -5t-0.5 -15l94 -266l137 315h21l132 -308l96 262q3 6 1 12t-12 5l-53 -2v26h159v-26l-41 2q-15 0 -21 -17l-149 -389h-22l-133 311l-139 -311h-20l-141 393q-6 13 -17 13z" />
<glyph unicode="x" horiz-adv-x="486" d="M5 0v26l43 -2q11 0 21 13l126 170l-126 176q-7 13 -19 13l-39 -2v26h215v-26l-46 2q-7 0 -10 -3.5t1 -9.5l86 -122l89 118q4 5 3 11t-9 6l-43 -2v26h149v-26l-42 2q-13 0 -25 -15l-105 -143l141 -201q9 -13 19 -13l44 2v-26h-221v26l49 -3q6 -1 8 4.5t-1 9.5l-101 146 l-109 -145q-2 -2 -2 -4q0 -10 13 -10l43 2v-26h-152z" />
<glyph unicode="y" horiz-adv-x="485" d="M-13 394v26h219v-26l-45 2q-7 0 -11 -5.5t-1 -11.5l122 -270l113 272q6 15 -10 15l-47 -2v26h155v-26l-41 2h-2q-16 0 -25 -19l-211 -509q-24 -59 -51 -83t-67 -24q-27 0 -45.5 13t-20.5 36q0 25 11.5 38t27.5 13q17 0 27 -10.5t17.5 -21t18.5 -10.5q28 0 46 46l59 136 l-174 382q-6 13 -16 13z" />
<glyph unicode="z" horiz-adv-x="441" d="M34 -2v20l249 377h-98q-101 0 -119 -115h-21l9 142h14q14 -1 36.5 -1.5t45.5 -0.5h238v-19l-245 -376h105q129 0 129 114h21v-139h-260q-30 0 -66.5 -1t-37.5 -1z" />
<glyph unicode="{" horiz-adv-x="280" d="M30 257v20q40 6 56 24t16 57v224q0 54 20.5 73.5t78.5 19.5h34v-30h-27q-39 0 -39 -56v-231q0 -46 -19.5 -63.5t-76.5 -27.5q58 -12 77 -29t19 -62v-236q0 -56 39 -56h27v-30h-34q-59 0 -79 19t-20 74v229q0 44 -13 57.5t-59 23.5z" />
<glyph unicode="|" horiz-adv-x="232" d="M98 -239v969h36v-969h-36z" />
<glyph unicode="}" horiz-adv-x="290" d="M45 -116h37q39 0 39 56v236q0 45 19 62t77 29q-57 10 -76.5 27.5t-19.5 63.5v231q0 56 -39 56h-37v30h44q58 0 78.5 -19.5t20.5 -73.5v-224q0 -39 16 -57t56 -24v-20q-46 -10 -59 -23.5t-13 -57.5v-229q0 -55 -20 -74t-79 -19h-44v30z" />
<glyph unicode="~" d="M22 255q43 73 109 73q33 0 98.5 -32.5t95.5 -32.5q25 0 44 13t42 46l28 -29q-47 -78 -114 -78q-32 0 -98 32.5t-96 32.5q-26 0 -42.5 -10.5t-39.5 -43.5z" />
<glyph unicode="&#xa1;" horiz-adv-x="269" d="M50 387q0 24 19.5 41t44.5 17q26 0 45.5 -17t19.5 -40q0 -24 -18.5 -41t-45.5 -17t-46 16.5t-19 40.5zM65 -193q0 54 19 159q19 139 19 252q0 16 12 16q11 0 11 -16q0 -113 19 -252q19 -105 19 -159q0 -49 -50 -49q-49 0 -49 49z" />
<glyph unicode="&#xa2;" horiz-adv-x="394" d="M51 290q0 80 42.5 128t112.5 49v180h37v-183q40 -9 64.5 -30t24.5 -49q0 -18 -10 -29t-25 -11q-34 0 -34 23q0 8 5 17.5t5 19.5q0 19 -19 29.5t-46 10.5q-44 0 -62.5 -36.5t-18.5 -120.5q0 -151 91 -151q37 0 67.5 24t41.5 61l20 -13q-23 -78 -104 -92v-212h-37v210 q-73 2 -114 48t-41 127z" />
<glyph unicode="&#xa3;" horiz-adv-x="507" d="M21 -3q43 24 69 67.5t26 91.5v150h-80v23h80v81q0 103 41.5 150t134.5 47q53 0 89 -25t36 -62q0 -16 -12.5 -28t-28.5 -12t-28.5 10t-12.5 24q0 6 4 17l4 16q0 37 -57 37q-40 0 -65.5 -26.5t-25.5 -70.5l6 -45q4 -33 5 -46l4 -40q1 -11 1 -27h120v-23h-119v-80 q0 -40 -26.5 -88.5t-55.5 -64.5h178q78 0 104.5 19.5t26.5 75.5h25l-10 -171q-9 0 -34.5 1.5t-43.5 1.5h-256q-20 0 -59 -1.5t-40 -1.5z" />
<glyph unicode="&#xa4;" horiz-adv-x="443" d="M42 107l49 49q-39 46 -39 109q0 59 38 108l-47 47l23 23l47 -47q50 39 109 39q60 0 110 -40l47 47l23 -23l-48 -47q39 -50 39 -107q0 -58 -40 -110l48 -49l-23 -23l-48 49q-49 -38 -108 -38q-61 0 -108 39l-49 -49zM83 265q0 -58 41 -98.5t98 -40.5q58 0 98.5 40.5 t40.5 98.5q0 57 -40.5 97.5t-98.5 40.5q-57 0 -98 -40.5t-41 -97.5z" />
<glyph unicode="&#xa5;" horiz-adv-x="507" d="M-5 567v30h221v-30l-53 2q-10 1 -11.5 -7.5t4.5 -16.5l137 -228l131 232q10 20 -7 20l-52 -2v30h152v-30l-29 2q-16 1 -29 -21l-116 -207h102v-29h-119l-13 -24v-57h132v-29h-132v-154q0 -21 20 -21l48 2v-29h-229v29l49 -2q19 0 19 22v153h-132v29h132v32l-30 49h-102 v29h85l-126 209q-11 20 -25 19z" />
<glyph unicode="&#xa6;" horiz-adv-x="232" d="M97 113h38v-344h-38v344zM97 265v342h38v-342h-38z" />
<glyph unicode="&#xa7;" horiz-adv-x="437" d="M35 254q0 41 20.5 66.5t68.5 44.5q-37 27 -49.5 50t-12.5 62q0 58 48 94t126 36q68 0 109 -25t41 -71q0 -21 -15 -37t-36 -16q-18 0 -30.5 10t-12.5 25q0 4 10 21.5t10 31.5t-27.5 26t-58.5 12q-37 0 -63 -20t-26 -53q0 -29 10.5 -43.5t47.5 -39.5l124 -85 q88 -60 88 -126q0 -79 -89 -111q33 -25 47.5 -50t14.5 -61q0 -57 -49.5 -94.5t-124.5 -37.5q-67 0 -108.5 26t-41.5 70q0 21 15 38t36 17q19 0 31 -9.5t12 -26.5q0 -10 -10 -24.5t-10 -28.5t26 -25.5t59 -11.5q39 0 65 20t26 52q0 26 -11 41t-48 42l-124 86q-88 60 -88 125z M100 302q0 -46 44 -75l150 -103q25 6 35 17t10 33q0 43 -40 71l-151 103q-48 -12 -48 -46z" />
<glyph unicode="&#xa8;" horiz-adv-x="447" d="M77 568q0 21 15.5 35t38.5 14q22 0 38 -14t16 -35t-15 -34.5t-39 -13.5t-39 13.5t-15 34.5zM272 568q0 21 15.5 35t38.5 14q22 0 38 -14t16 -35t-15 -34.5t-39 -13.5t-39 13.5t-15 34.5z" />
<glyph unicode="&#xa9;" horiz-adv-x="673" d="M56 274q0 118 83.5 202t201.5 84t202 -84t84 -202t-84 -201.5t-202 -83.5t-201.5 83.5t-83.5 201.5zM88 274q0 -106 73.5 -180.5t178.5 -74.5q106 0 179.5 74.5t73.5 180.5t-74 181t-179 75t-178.5 -75t-73.5 -181zM181 278q2 81 45 125.5t120 44.5q47 0 77 -14 q31 -13 44 -11q-3 -21 -3 -46v-10.5v-11.5l1 -5h-12q-8 37 -37.5 60.5t-68.5 23.5q-51 0 -80 -44.5t-29 -117.5q0 -67 29.5 -110t78.5 -43q39 0 69 23t38 59h16q-6 -34 -6 -55q0 -5 2 -19h-3q-16 0 -56 -11t-59 -11q-80 0 -123 45.5t-43 127.5z" />
<glyph unicode="&#xaa;" horiz-adv-x="262" d="M0 411q0 48 40 71t126 23v37q0 50 -52 50q-28 0 -34.5 -6t-6.5 -28q0 -29 -30 -29q-32 0 -32 32q0 54 103 54q58 0 85 -21t27 -67v-147q0 -7 6 -7l30 1v-24h-95l3 47q-22 -55 -86 -55q-84 0 -84 69zM63 416q0 -43 38 -43q26 0 45.5 24.5t19.5 59.5v25q-103 0 -103 -66z " />
<glyph unicode="&#xab;" horiz-adv-x="457" d="M26 187l149 171h36l-98 -171l98 -171h-36zM193 187l149 171h35l-97 -171l97 -171h-35z" />
<glyph unicode="&#xac;" d="M20 319v41h420v-214h-43v173h-377z" />
<glyph unicode="&#xad;" horiz-adv-x="249" d="M22 189v55h206v-55h-206z" />
<glyph unicode="&#xae;" horiz-adv-x="673" d="M56 274q0 118 83.5 202t201.5 84t202 -84t84 -202t-84 -201.5t-202 -83.5t-201.5 83.5t-83.5 201.5zM88 274q0 -106 73.5 -180.5t178.5 -74.5q106 0 179.5 74.5t73.5 180.5t-74 181t-179 75t-178.5 -75t-73.5 -181zM204 118v15h8.5h7.5h6t5.5 0.5t4 1.5t3.5 2t2.5 3 t1.5 4.5t0.5 6t0.5 7.5v256q0 13 -8 18.5t-32 5.5v18h159q52 0 80 -21.5t28 -63.5q0 -34 -24.5 -59t-65.5 -30q24 -3 39 -26l34 -64q9 -18 15 -28.5t9.5 -17.5t8.5 -9.5t6 -3.5t8 -0.5t9 0.5v-15h-47q-21 0 -29.5 5.5t-19.5 30.5l-21 46q-22 49 -35 60.5t-58 11.5v-124 l5 -10l10 -4h24v-16h-135zM300 291h26q90 0 90 72q0 73 -77 73q-25 0 -32 -4t-7 -23v-118z" />
<glyph unicode="&#xaf;" horiz-adv-x="447" d="M104 567v40h239v-40h-239z" />
<glyph unicode="&#xb0;" horiz-adv-x="374" d="M89 509q0 39 29.5 68.5t68.5 29.5t68.5 -29.5t29.5 -68.5t-29.5 -68.5t-68.5 -29.5t-68.5 29.5t-29.5 68.5zM130 509q0 -23 17 -39.5t40 -16.5q22 0 39 16.5t17 39.5t-17 39.5t-39 16.5q-23 0 -40 -16.5t-17 -39.5z" />
<glyph unicode="&#xb1;" d="M20 0v41h420v-41h-420zM20 274v41h187v191h45v-191h188v-41h-188v-194h-45v194h-187z" />
<glyph unicode="&#xb2;" horiz-adv-x="263" d="M29 404q5 28 27.5 57t45.5 50t41.5 48t18.5 51q0 26 -10.5 41t-26.5 15q-12 0 -21.5 -7.5t-9.5 -18.5t6 -22q0 -10 -10 -16.5t-22 -6.5q-13 0 -23 8t-10 22q0 22 24.5 40t65.5 18q47 0 73.5 -18.5t26.5 -54.5q0 -42 -51 -86l-46 -37q-24 -21 -41 -45h73q36 0 36 38h33 q-3 -39 -3 -69v-9q-16 2 -23 2h-174z" />
<glyph unicode="&#xb3;" horiz-adv-x="264" d="M30 451q0 13 9 22.5t24 9.5q12 0 21.5 -6.5t9.5 -15.5q0 -2 -1 -6t-1 -6q0 -14 10.5 -23t28.5 -9t30.5 18t12.5 43q0 27 -21.5 41.5t-68.5 19.5v17q29 0 51.5 20t22.5 48q0 18 -8.5 29t-20.5 11q-31 0 -31 -30v-4q0 -2 0.5 -4t0.5 -4q0 -9 -9.5 -15t-21.5 -6q-14 0 -23 8 t-9 21q0 52 93 52q41 0 67 -15.5t26 -42.5q0 -53 -76 -74q91 -11 91 -72q0 -37 -31 -59t-75 -22q-50 0 -75.5 14.5t-25.5 39.5z" />
<glyph unicode="&#xb4;" horiz-adv-x="349" d="M108 511q0 4 5 9l106 117q11 13 17.5 18.5t9.5 6.5t10 1q8 -2 21 -5q23 -5 29.5 -8t6.5 -11q0 -7 -6 -12l-176 -121q-3 -3 -10 -3q-13 0 -13 8z" />
<glyph unicode="&#xb5;" horiz-adv-x="553" d="M8 -243l46 -1q12 1 15 19v602q0 19 -13 19l-36 -2v26h135v-272q0 -68 12 -96.5t49 -28.5q62 0 99.5 50.5t37.5 137.5v164q0 21 -12 21l-47 -2v26h146v-377q0 -19 13 -19l36 2v-26h-142q6 14 6 87q-18 -44 -54.5 -70.5t-86.5 -26.5q-37 0 -59 20v-235q0 -16 14 -19l46 1 v-26h-205v26z" />
<glyph unicode="&#xb6;" horiz-adv-x="499" d="M30 442q0 72 52.5 113.5t145.5 41.5h250v-31h-101v-835h-35v835h-41q-38 0 -38 -38v-797h-35v557q-94 0 -146 40t-52 114z" />
<glyph unicode="&#xb7;" horiz-adv-x="230" d="M50 184q0 26 18.5 42t46.5 16t46.5 -16t18.5 -42t-18.5 -41.5t-46.5 -15.5t-46.5 15.5t-18.5 41.5z" />
<glyph unicode="&#xb8;" horiz-adv-x="447" d="M131 -198l7 24q12 -13 35 -13t39.5 15.5t16.5 38.5q0 21 -34 39l-23 14q-11 8 -11 15t6 13l41 52h33l-27 -43q-6 -10 -6 -19q0 -7 13.5 -11.5t29.5 -7.5t29.5 -13t13.5 -28q0 -43 -24.5 -67.5t-69.5 -24.5q-44 0 -69 16z" />
<glyph unicode="&#xb9;" horiz-adv-x="187" d="M14 404v18l41 -1q12 0 12 18v165q0 17 -17 11l-30 -11l-6 25q45 12 87 54h25v-244q0 -7 4.5 -13t10.5 -5l29 1v-18h-156z" />
<glyph unicode="&#xba;" horiz-adv-x="351" d="M44 480q0 65 35 101.5t96 36.5t96.5 -36t35.5 -102q0 -64 -34.5 -100t-97.5 -36q-64 0 -97.5 38t-33.5 98zM115 480q0 -63 11.5 -87.5t48.5 -24.5q34 0 47.5 22.5t13.5 89.5q0 65 -13 89.5t-48 24.5t-47.5 -25.5t-12.5 -88.5z" />
<glyph unicode="&#xbb;" horiz-adv-x="457" d="M58 16l97 171l-97 171h36l148 -171l-148 -171h-36zM230 16l97 171l-97 171h36l148 -171l-148 -171h-36z" />
<glyph unicode="&#xbc;" horiz-adv-x="580" d="M40 -47l465 652l34 -20l-466 -655zM54 404v18l41 -1q12 0 12 18v165q0 17 -17 11l-30 -11l-6 25q45 12 87 54h25v-244q0 -7 4.5 -13t10.5 -5l29 1v-18h-156zM367 9v31q2 4 23 28q28 34 122 151h32v-172h33v-39h-33v-33q0 -18 15 -18l18 1v-18h-145v18l41 -1q12 0 12 18 v34h-118zM403 47h81v99z" />
<glyph unicode="&#xbd;" horiz-adv-x="580" d="M40 -47l465 652l34 -20l-466 -655zM54 404v18l41 -1q12 0 12 18v165q0 17 -17 11l-30 -11l-6 25q45 12 87 54h25v-244q0 -7 4.5 -13t10.5 -5l29 1v-18h-156zM380 -60q5 28 27.5 57t45.5 50t41.5 48t18.5 51q0 26 -10.5 41t-26.5 15q-12 0 -21.5 -7.5t-9.5 -18.5 q0 -8 6 -22q0 -10 -10 -16.5t-22 -6.5q-13 0 -23 8t-10 22q0 22 24.5 40t65.5 18q47 0 73.5 -18.5t26.5 -54.5q0 -43 -52 -86l-44 -37q-24 -19 -42 -45h73q36 0 36 38h33q-3 -39 -3 -69v-9q-16 2 -23 2h-174z" />
<glyph unicode="&#xbe;" horiz-adv-x="580" d="M30 451q0 13 9 22.5t24 9.5q12 0 21.5 -6.5t9.5 -15.5q0 -2 -1 -6t-1 -6q0 -14 10.5 -23t28.5 -9t30.5 18t12.5 43q0 27 -21.5 41.5t-68.5 19.5v17q29 0 51.5 20t22.5 48q0 18 -8.5 29t-20.5 11q-31 0 -31 -30v-4q0 -2 0.5 -4t0.5 -4q0 -9 -9.5 -15t-21.5 -6q-14 0 -23 8 t-9 21q0 52 93 52q41 0 67 -15.5t26 -42.5q0 -53 -76 -74q91 -11 91 -72q0 -37 -31 -59t-75 -22q-50 0 -75.5 14.5t-25.5 39.5zM40 -47l465 652l34 -20l-466 -655zM368 9v31q2 4 23 28q26 33 122 151h32v-172h33v-39h-33v-33q0 -18 15 -18l18 1v-18h-145v18l41 -1 q12 0 12 18v34h-118zM404 47h81v99z" />
<glyph unicode="&#xbf;" horiz-adv-x="400" d="M36 -115q0 32 28.5 65.5t62.5 56.5t62.5 53.5t28.5 58.5q0 51 -47 78l12 19q31 -7 69.5 -40.5t38.5 -63.5q0 -28 -26 -63t-56.5 -62.5t-56.5 -59.5t-26 -53q0 -41 20.5 -63.5t57.5 -22.5q96 0 96 54q0 8 8.5 17t17.5 9q21 0 36 -11.5t15 -27.5q0 -22 -51 -43t-113 -21 q-87 0 -132 31t-45 89zM155 388q0 25 19 41t44 16q26 0 46.5 -14.5t20.5 -39.5q0 -26 -19 -43.5t-44 -17.5q-29 0 -48 15t-19 43z" />
<glyph unicode="&#xc0;" horiz-adv-x="601" d="M-20 0v29l26 -2h4q20 0 33 19q15 22 30 58l209 503h26l211 -505q14 -36 29 -57q14 -18 35 -18h5l33 2v-29h-265v29l49 -2q27 -2 30 19t-10 44l-49 118h-232l-47 -112q-6 -15 -9.5 -26.5t-4.5 -22.5t4.5 -16.5t17.5 -4.5l48 3v-29h-173zM154 236h212l-107 252zM197 804 q0 6 20 16t37 10q7 0 13 -3t9 -6t14 -16l95 -104q18 -20 18 -23q0 -8 -13 -8q-11 0 -20 9l-163 112q-10 7 -10 13z" />
<glyph unicode="&#xc1;" horiz-adv-x="601" d="M-20 0v29l26 -2h4q20 0 33 19q15 22 30 58l209 503h26l211 -505q14 -36 29 -57q14 -18 35 -18h5l33 2v-29h-265v29l49 -2q27 -2 30 19t-10 44l-49 118h-232l-47 -112q-6 -15 -9.5 -26.5t-4.5 -22.5t4.5 -16.5t17.5 -4.5l48 3v-29h-173zM154 236h212l-107 252zM198 688 q0 4 5 9l106 117q11 13 17.5 18.5t9.5 6.5t10 1q8 -2 21 -5q23 -5 29.5 -8t6.5 -11t-6 -12l-176 -121q-3 -3 -10 -3q-13 0 -13 8z" />
<glyph unicode="&#xc2;" horiz-adv-x="601" d="M-20 0v29l26 -2h4q20 0 33 19q15 22 30 58l209 503h26l211 -505q14 -36 29 -57q14 -18 35 -18h5l33 2v-29h-265v29l49 -2q27 -2 30 19t-10 44l-49 118h-232l-47 -112q-6 -15 -9.5 -26.5t-4.5 -22.5t4.5 -16.5t17.5 -4.5l48 3v-29h-173zM144 663q0 4 10.5 13t31 26.5 t37.5 35.5l48 48q25 25 29 25t29 -25l48 -48q17 -18 37.5 -35.5t31 -26.5t10.5 -13q0 -8 -9 -8t-28 12l-119 74l-119 -74q-19 -12 -28 -12t-9 8zM154 236h212l-107 252z" />
<glyph unicode="&#xc3;" horiz-adv-x="601" d="M-20 0v29l26 -2h4q20 0 33 19q15 22 30 58l209 503h26l211 -505q14 -36 29 -57q14 -18 35 -18h5l33 2v-29h-265v29l49 -2q27 -2 30 19t-10 44l-49 118h-232l-47 -112q-6 -15 -9.5 -26.5t-4.5 -22.5t4.5 -16.5t17.5 -4.5l48 3v-29h-173zM154 236h212l-107 252zM157 702 q0 37 18.5 64t45.5 27q22 0 86 -21.5t83 -21.5q14 0 23.5 12t9.5 30h20q0 -37 -18.5 -64t-45.5 -27q-23 0 -86.5 21.5t-82.5 21.5q-14 0 -23.5 -12t-9.5 -30h-20z" />
<glyph unicode="&#xc4;" horiz-adv-x="601" d="M-20 0v29l26 -2h4q20 0 33 19q15 22 30 58l209 503h26l211 -505q14 -36 29 -57q14 -18 35 -18h5l33 2v-29h-265v29l49 -2q27 -2 30 19t-10 44l-49 118h-232l-47 -112q-6 -15 -9.5 -26.5t-4.5 -22.5t4.5 -16.5t17.5 -4.5l48 3v-29h-173zM149 745q0 21 15.5 35t38.5 14 q22 0 38 -14t16 -35t-15 -34.5t-39 -13.5t-39 13.5t-15 34.5zM154 236h212l-107 252zM344 745q0 21 15.5 35t38.5 14q22 0 38 -14t16 -35t-15 -34.5t-39 -13.5t-39 13.5t-15 34.5z" />
<glyph unicode="&#xc5;" horiz-adv-x="601" d="M-20 0v29l26 -2q20 -2 35 17t32 60l209 503h26l211 -505q17 -43 31 -60t38 -15l33 2v-29h-265v29l49 -2q27 -2 30 19t-10 44l-49 118h-232l-47 -112q-6 -15 -9.5 -26.5t-4.5 -22.5t4.5 -16.5t17.5 -4.5l48 3v-29h-173zM154 236h212l-107 252zM217 738q0 34 24.5 57.5 t58.5 23.5q36 0 60 -23t24 -58t-24.5 -58.5t-59.5 -23.5t-59 23.5t-24 58.5zM259 738q0 -18 12 -32t29 -14t29.5 14t12.5 32t-12.5 31.5t-29.5 13.5t-29 -13.5t-12 -31.5z" />
<glyph unicode="&#xc6;" horiz-adv-x="881" d="M5 0v30l31 -3q13 -2 25.5 11t34.5 48l279 457q5 9 -0.5 16.5t-14.5 7.5l-51 -2v32h465q20 0 34 2v-156h-26q0 65 -34.5 95.5t-107.5 30.5h-164l45 -245h83q33 0 54.5 28.5t21.5 73.5h26v-231h-26q0 45 -21.5 73.5t-54.5 28.5h-79l48 -251q5 -19 21 -19h66q141 0 141 144 h27v-174q-36 3 -88 3h-345v30l57 -3q12 -1 18 7t4 18l-29 156h-246l-76 -128q-5 -9 -8.5 -17t-5 -17.5t3 -14.5t16.5 -4l51 3v-30h-175zM215 236h224l-52 279z" />
<glyph unicode="&#xc7;" horiz-adv-x="607" d="M45 295q0 147 79.5 229.5t220.5 82.5q43 0 68.5 -5.5t92.5 -31.5q18 -6 47 -6q-4 -37 -4 -83q1 -3 1 -13v-14q0 -18 3 -21h-24q-14 62 -68 105.5t-121 43.5q-89 0 -141 -78.5t-52 -208.5q0 -124 54.5 -201t143.5 -77q69 0 122 42.5t67 107.5h28l-2 -21l-2 -24 q-2 -32 -2 -40q0 -29 3 -47h-6q-24 0 -69 -15l-37 -12l-37 -10q-33 -6 -55 -7l-21 -34q-6 -11 -6 -19q0 -7 13.5 -11.5t29.5 -7.5t29.5 -13t13.5 -28q0 -43 -24.5 -67.5t-69.5 -24.5q-44 0 -69 16l7 24q12 -13 35 -13t39.5 15.5t16.5 38.5q0 21 -34 39l-23 14q-11 8 -11 15 t6 13l33 42q-128 7 -201.5 88t-73.5 217z" />
<glyph unicode="&#xc8;" horiz-adv-x="563" d="M50 0v30l40 -3q18 0 18 22v499q0 9 -5.5 15.5t-14.5 5.5l-38 -2v30h422q14 0 17 1v-155h-27q0 67 -33.5 96.5t-108.5 29.5h-107q-12 0 -12 -14v-230h94q34 0 55 27t21 74h27v-231h-27q0 44 -22.5 73t-53.5 29h-94v-256q0 -13 12 -13h140q68 0 103.5 39t35.5 112h27v-182 q-23 3 -88 3h-381zM182 804q0 6 20 16t37 10q7 0 13 -3t9 -6t14 -16l95 -104q18 -20 18 -23q0 -8 -13 -8q-11 0 -20 9l-163 112q-10 7 -10 13z" />
<glyph unicode="&#xc9;" horiz-adv-x="563" d="M50 0v30l40 -3q18 0 18 22v499q0 9 -5.5 15.5t-14.5 5.5l-38 -2v30h422q14 0 17 1v-155h-27q0 67 -33.5 96.5t-108.5 29.5h-107q-12 0 -12 -14v-230h94q34 0 55 27t21 74h27v-231h-27q0 44 -22.5 73t-53.5 29h-94v-256q0 -13 12 -13h140q68 0 103.5 39t35.5 112h27v-182 q-23 3 -88 3h-381zM219 688q0 4 5 9l106 117q11 13 17.5 18.5t9.5 6.5t10 1q8 -2 21 -5q23 -5 29.5 -8t6.5 -11t-6 -12l-176 -121q-3 -3 -10 -3q-13 0 -13 8z" />
<glyph unicode="&#xca;" horiz-adv-x="563" d="M50 0v30l40 -3q18 0 18 22v499q0 9 -5.5 15.5t-14.5 5.5l-38 -2v30h422q14 0 17 1v-155h-27q0 67 -33.5 96.5t-108.5 29.5h-107q-12 0 -12 -14v-230h94q34 0 55 27t21 74h27v-231h-27q0 44 -22.5 73t-53.5 29h-94v-256q0 -13 12 -13h140q68 0 103.5 39t35.5 112h27v-182 q-23 3 -88 3h-381zM125 663q0 4 10.5 13t31 26.5t37.5 35.5l48 48q25 25 29 25t29 -25l48 -48q17 -18 37.5 -35.5t31 -26.5t10.5 -13q0 -8 -9 -8t-28 12l-119 74l-119 -74q-19 -12 -28 -12t-9 8z" />
<glyph unicode="&#xcb;" horiz-adv-x="563" d="M50 0v30l40 -3q18 0 18 22v499q0 9 -5.5 15.5t-14.5 5.5l-38 -2v30h422q14 0 17 1v-155h-27q0 67 -33.5 96.5t-108.5 29.5h-107q-12 0 -12 -14v-230h94q34 0 55 27t21 74h27v-231h-27q0 44 -22.5 73t-53.5 29h-94v-256q0 -13 12 -13h140q68 0 103.5 39t35.5 112h27v-182 q-23 3 -88 3h-381zM148 745q0 21 15.5 35t38.5 14q22 0 38 -14t16 -35t-15 -34.5t-39 -13.5t-39 13.5t-15 34.5zM343 745q0 21 15.5 35t38.5 14q22 0 38 -14t16 -35t-15 -34.5t-39 -13.5t-39 13.5t-15 34.5z" />
<glyph unicode="&#xcc;" horiz-adv-x="310" d="M50 0v29l39 -2q19 0 19 22v499q0 9 -5 15.5t-14 5.5l-39 -2v30h210v-30l-39 2q-9 1 -14.5 -5.5t-5.5 -15.5v-499q0 -22 20 -22l39 2v-29h-210zM55 804q0 6 20 16t37 10q7 0 13 -3t9 -6t14 -16l95 -104q18 -20 18 -23q0 -8 -13 -8q-11 0 -20 9l-163 112q-10 7 -10 13z" />
<glyph unicode="&#xcd;" horiz-adv-x="310" d="M50 0v29l39 -2q19 0 19 22v499q0 9 -5 15.5t-14 5.5l-39 -2v30h210v-30l-39 2q-9 1 -14.5 -5.5t-5.5 -15.5v-499q0 -22 20 -22l39 2v-29h-210zM86 688q0 4 5 9l106 117q11 13 17.5 18.5t9.5 6.5t10 1q8 -2 21 -5q23 -5 29.5 -8t6.5 -11t-6 -12l-176 -121q-3 -3 -10 -3 q-13 0 -13 8z" />
<glyph unicode="&#xce;" horiz-adv-x="310" d="M2 663q0 4 10.5 13t31 26.5t37.5 35.5l48 48q25 25 29 25t29 -25l48 -48q17 -18 37.5 -35.5t31 -26.5t10.5 -13q0 -8 -9 -8t-28 12l-119 74l-119 -74q-19 -12 -28 -12t-9 8zM50 0v29l39 -2q19 0 19 22v499q0 9 -5 15.5t-14 5.5l-39 -2v30h210v-30l-39 2q-9 1 -14.5 -5.5 t-5.5 -15.5v-499q0 -22 20 -22l39 2v-29h-210z" />
<glyph unicode="&#xcf;" horiz-adv-x="310" d="M7 745q0 21 15.5 35t38.5 14q22 0 38 -14t16 -35t-15 -34.5t-39 -13.5t-39 13.5t-15 34.5zM50 0v29l39 -2q19 0 19 22v499q0 9 -5 15.5t-14 5.5l-39 -2v30h210v-30l-39 2q-9 1 -14.5 -5.5t-5.5 -15.5v-499q0 -22 20 -22l39 2v-29h-210zM202 745q0 21 15.5 35t38.5 14 q22 0 38 -14t16 -35t-15 -34.5t-39 -13.5t-39 13.5t-15 34.5z" />
<glyph unicode="&#xd0;" horiz-adv-x="631" d="M42 293v36h69v219q0 21 -19 21l-39 -2v30h225q160 0 236.5 -69.5t76.5 -228.5q0 -299 -301 -299h-237v29l43 -2q15 0 15 22v244h-69zM204 41q0 -13 12 -13h45q124 0 176 61.5t52 208.5t-52 209t-176 62h-45q-12 0 -12 -13v-227h187v-36h-187v-252z" />
<glyph unicode="&#xd1;" horiz-adv-x="662" d="M45 0v29l39 -2q20 0 20 22v499q0 9 -5.5 15.5t-14.5 5.5l-39 -2v30h155l325 -443v395q0 20 -17 20h-3l-49 -2v30h161v-30l-39 2h-2q-17 0 -17 -21v-554h-30l-391 531v-476q0 -22 19 -22l49 2v-29h-161zM208 702q0 37 18.5 64t45.5 27q22 0 86 -21.5t83 -21.5 q14 0 23.5 12t9.5 30h20q0 -37 -18.5 -64t-45.5 -27q-22 0 -86 21.5t-83 21.5q-14 0 -23.5 -12t-9.5 -30h-20z" />
<glyph unicode="&#xd2;" horiz-adv-x="670" d="M45 299q0 143 66 216q49 55 103.5 73.5t120.5 18.5q141 0 224 -92q66 -73 66 -216t-66 -216q-84 -93 -224 -93q-65 0 -120 19t-104 74q-66 73 -66 216zM147 299q0 -150 45.5 -216t142.5 -66t142.5 66t45.5 216q0 149 -45.5 215t-142.5 66t-142.5 -66t-45.5 -215zM232 804 q0 6 20 16t37 10q7 0 13 -3t9 -6t14 -16l95 -104q18 -20 18 -23q0 -8 -13 -8q-11 0 -20 9l-163 112q-10 7 -10 13z" />
<glyph unicode="&#xd3;" horiz-adv-x="670" d="M45 299q0 143 66 216q49 55 103.5 73.5t120.5 18.5q141 0 224 -92q66 -73 66 -216t-66 -216q-84 -93 -224 -93q-65 0 -120 19t-104 74q-66 73 -66 216zM147 299q0 -150 45.5 -216t142.5 -66t142.5 66t45.5 216q0 149 -45.5 215t-142.5 66t-142.5 -66t-45.5 -215zM242 688 q0 4 5 9l106 117q11 13 17.5 18.5t9.5 6.5t10 1q8 -2 21 -5q23 -5 29.5 -8t6.5 -11t-6 -12l-176 -121q-3 -3 -10 -3q-13 0 -13 8z" />
<glyph unicode="&#xd4;" horiz-adv-x="670" d="M45 299q0 143 66 216q49 55 103.5 73.5t120.5 18.5q141 0 224 -92q66 -73 66 -216t-66 -216q-84 -93 -224 -93q-65 0 -120 19t-104 74q-66 73 -66 216zM147 299q0 -150 45.5 -216t142.5 -66t142.5 66t45.5 216q0 149 -45.5 215t-142.5 66t-142.5 -66t-45.5 -215zM179 663 q0 4 10.5 13t31 26.5t37.5 35.5l48 48q25 25 29 25t29 -25l48 -48q17 -18 37.5 -35.5t31 -26.5t10.5 -13q0 -8 -9 -8t-28 12l-119 74l-119 -74q-19 -12 -28 -12t-9 8z" />
<glyph unicode="&#xd5;" horiz-adv-x="670" d="M45 299q0 143 66 216q49 55 103.5 73.5t120.5 18.5q141 0 224 -92q66 -73 66 -216t-66 -216q-84 -93 -224 -93q-65 0 -120 19t-104 74q-66 73 -66 216zM147 299q0 -150 45.5 -216t142.5 -66t142.5 66t45.5 216q0 149 -45.5 215t-142.5 66t-142.5 -66t-45.5 -215zM192 702 q0 37 18.5 64t45.5 27q22 0 86 -21.5t83 -21.5q14 0 23.5 12t9.5 30h20q0 -37 -18.5 -64t-45.5 -27q-23 0 -86.5 21.5t-82.5 21.5q-14 0 -23.5 -12t-9.5 -30h-20z" />
<glyph unicode="&#xd6;" horiz-adv-x="670" d="M45 299q0 143 66 216q49 55 103.5 73.5t120.5 18.5q141 0 224 -92q66 -73 66 -216t-66 -216q-84 -93 -224 -93q-65 0 -120 19t-104 74q-66 73 -66 216zM147 299q0 -150 45.5 -216t142.5 -66t142.5 66t45.5 216q0 149 -45.5 215t-142.5 66t-142.5 -66t-45.5 -215zM183 745 q0 21 15.5 35t38.5 14q22 0 38 -14t16 -35t-15 -34.5t-39 -13.5t-39 13.5t-15 34.5zM378 745q0 21 15.5 35t38.5 14q22 0 38 -14t16 -35t-15 -34.5t-39 -13.5t-39 13.5t-15 34.5z" />
<glyph unicode="&#xd7;" d="M64 131l138 137l-136 135l29 29l134 -136l137 137l30 -29l-137 -136l137 -138l-28 -28l-138 137l-136 -136z" />
<glyph unicode="&#xd8;" horiz-adv-x="664" d="M44 290q0 152 74.5 234.5t216.5 82.5q43 0 70 -6t67 -24l63 108l37 -20l-64 -110q118 -85 118 -261q0 -145 -79.5 -225t-217.5 -80q-74 0 -138 29l-65 -110l-37 17l67 114q-112 75 -112 251zM146 293q0 -145 38 -206l268 455q-45 38 -118 38q-101 0 -144.5 -68.5 t-43.5 -218.5zM212 51q43 -35 114 -35q106 0 152 65t46 217q0 79 -10 123.5t-35 85.5z" />
<glyph unicode="&#xd9;" horiz-adv-x="651" d="M35 567v30h219v-30l-49 2q-9 1 -14.5 -5t-5.5 -15v-350q0 -84 46.5 -131t130.5 -47q73 0 121.5 50.5t48.5 126.5v350q0 10 -5 16t-13 5l-49 -2v30h161v-30l-39 2q-9 1 -14.5 -5t-5.5 -15v-360q0 -86 -63 -142.5t-160 -56.5q-122 0 -187 53.5t-65 155.5v349q0 9 -5.5 15.5 t-13.5 5.5zM257 804q0 6 20 16t37 10q7 0 13 -3t9 -6t14 -16l95 -104q18 -20 18 -23q0 -8 -13 -8q-11 0 -20 9l-163 112q-10 7 -10 13z" />
<glyph unicode="&#xda;" horiz-adv-x="651" d="M35 567v30h219v-30l-49 2q-9 1 -14.5 -5t-5.5 -15v-350q0 -84 46.5 -131t130.5 -47q73 0 121.5 50.5t48.5 126.5v350q0 10 -5 16t-13 5l-49 -2v30h161v-30l-39 2q-9 1 -14.5 -5t-5.5 -15v-360q0 -86 -63 -142.5t-160 -56.5q-122 0 -187 53.5t-65 155.5v349q0 9 -5.5 15.5 t-13.5 5.5zM283 688q0 4 5 9l106 117q11 13 17.5 18.5t9.5 6.5t10 1q8 -2 21 -5q23 -5 29.5 -8t6.5 -11t-6 -12l-176 -121q-3 -3 -10 -3q-13 0 -13 8z" />
<glyph unicode="&#xdb;" horiz-adv-x="651" d="M35 567v30h219v-30l-49 2q-9 1 -14.5 -5t-5.5 -15v-350q0 -84 46.5 -131t130.5 -47q73 0 121.5 50.5t48.5 126.5v350q0 10 -5 16t-13 5l-49 -2v30h161v-30l-39 2q-9 1 -14.5 -5t-5.5 -15v-360q0 -86 -63 -142.5t-160 -56.5q-122 0 -187 53.5t-65 155.5v349q0 9 -5.5 15.5 t-13.5 5.5zM207 663q0 4 10.5 13t31 26.5t37.5 35.5l48 48q25 25 29 25t29 -25l48 -48q17 -18 37.5 -35.5t31 -26.5t10.5 -13q0 -8 -9 -8t-28 12l-119 74l-119 -74q-19 -12 -28 -12t-9 8z" />
<glyph unicode="&#xdc;" horiz-adv-x="651" d="M35 567v30h219v-30l-49 2q-9 1 -14.5 -5t-5.5 -15v-350q0 -84 46.5 -131t130.5 -47q73 0 121.5 50.5t48.5 126.5v350q0 10 -5 16t-13 5l-49 -2v30h161v-30l-39 2q-9 1 -14.5 -5t-5.5 -15v-360q0 -86 -63 -142.5t-160 -56.5q-122 0 -187 53.5t-65 155.5v349q0 9 -5.5 15.5 t-13.5 5.5zM206 745q0 21 15.5 35t38.5 14q22 0 38 -14t16 -35t-15 -34.5t-39 -13.5t-39 13.5t-15 34.5zM401 745q0 21 15.5 35t38.5 14q22 0 38 -14t16 -35t-15 -34.5t-39 -13.5t-39 13.5t-15 34.5z" />
<glyph unicode="&#xdd;" horiz-adv-x="507" d="M-5 567v30h221v-30l-53 2q-10 1 -11.5 -7.5t4.5 -16.5l137 -228l131 232q10 20 -7 20l-52 -2v30h152v-30l-29 2h-1q-16 0 -28 -21l-146 -260v-240q0 -21 20 -21l48 2v-29h-229v29l49 -2q19 0 19 22v214l-173 287q-10 19 -24 19h-1zM205 688q0 4 5 9l106 117 q11 13 17.5 18.5t9.5 6.5t10 1q8 -2 21 -5q23 -5 29.5 -8t6.5 -11t-6 -12l-176 -121q-3 -3 -10 -3q-13 0 -13 8z" />
<glyph unicode="&#xde;" horiz-adv-x="524" d="M39 0v29l39 -2q9 -1 14 5.5t5 16.5v499q0 21 -19 21l-39 -2v30h220v-30l-49 2q-9 0 -14.5 -6t-5.5 -15v-52h82q106 0 156 -39t50 -123q0 -79 -49 -125.5t-136 -46.5h-103v-113q0 -11 4.5 -17t15.5 -5l49 2v-29h-220zM190 201q0 -13 13 -13h69q45 0 77.5 42.5t32.5 103.5 q0 62 -34 99.5t-92 37.5h-66v-270z" />
<glyph unicode="&#xdf;" horiz-adv-x="528" d="M35 0v29l36 -2q13 0 13 21v464q0 225 173 225q82 0 131.5 -31t49.5 -84q0 -36 -24 -61.5t-70 -51.5q-29 -17 -42 -34.5t-13 -47.5q0 -43 64 -87l87 -63q89 -62 89 -138q0 -69 -50.5 -108t-130.5 -39q-35 0 -66.5 20t-31.5 51q0 38 33 38q20 0 29 -12.5t10.5 -27.5 t13 -27.5t34.5 -12.5q80 0 80 78q0 65 -75 120l-86 62q-79 58 -79 105q0 33 16.5 56.5t64.5 57.5q36 25 52 49t16 63q0 45 -27 72.5t-74 27.5q-46 0 -74.5 -30t-28.5 -81q0 -21 10 -101q5 -40 5 -66v-386q0 -21 14 -21l46 2v-29h-195z" />
<glyph unicode="&#xe0;" horiz-adv-x="450" d="M27 105q0 79 63.5 116t203.5 37v58q0 45 -21.5 66t-66.5 21q-75 0 -75 -44q0 -8 5 -18t5 -20q0 -14 -13.5 -22.5t-34.5 -8.5q-44 0 -44 49q0 41 39.5 66t117.5 25q88 0 131 -34t43 -107v-246q0 -19 13 -19l37 2v-26h-142q2 13 4 37l2 39q-41 -81 -135 -81 q-132 0 -132 110zM118 112q0 -38 18 -59.5t50 -21.5q46 0 77 40t31 102v58q-96 0 -136 -27.5t-40 -91.5zM125 627q0 6 20 16t37 10q7 0 13 -3t9 -6t14 -16l95 -104q18 -20 18 -23q0 -8 -13 -8q-11 0 -20 9l-163 112q-10 8 -10 13z" />
<glyph unicode="&#xe1;" horiz-adv-x="450" d="M27 105q0 79 63.5 116t203.5 37v58q0 45 -21.5 66t-66.5 21q-75 0 -75 -44q0 -8 5 -18t5 -20q0 -14 -13.5 -22.5t-34.5 -8.5q-44 0 -44 49q0 41 39.5 66t117.5 25q88 0 131 -34t43 -107v-246q0 -19 13 -19l37 2v-26h-142q2 13 4 37l2 39q-41 -81 -135 -81 q-132 0 -132 110zM118 112q0 -38 18 -59.5t50 -21.5q46 0 77 40t31 102v58q-96 0 -136 -27.5t-40 -91.5zM130 511q0 4 5 9l106 117q11 13 17.5 18.5t9.5 6.5t10 1q8 -2 21 -5q23 -5 29.5 -8t6.5 -11q0 -7 -6 -12l-176 -121q-3 -3 -10 -3q-13 0 -13 8z" />
<glyph unicode="&#xe2;" horiz-adv-x="450" d="M27 105q0 79 63.5 116t203.5 37v58q0 45 -21.5 66t-66.5 21q-75 0 -75 -44q0 -8 5 -18t5 -20q0 -14 -13.5 -22.5t-34.5 -8.5q-44 0 -44 49q0 41 39.5 66t117.5 25q88 0 131 -34t43 -107v-246q0 -19 13 -19l37 2v-26h-142q2 13 4 37l2 39q-41 -81 -135 -81 q-132 0 -132 110zM69 486q0 4 10.5 13t31 26.5t37.5 35.5l48 48q25 25 29 25t29 -25l48 -48q17 -18 37.5 -35.5t31 -26.5t10.5 -13q0 -8 -9 -8t-28 12l-119 74l-119 -74q-19 -12 -28 -12t-9 8zM118 112q0 -38 18 -59.5t50 -21.5q46 0 77 40t31 102v58q-96 0 -136 -27.5 t-40 -91.5z" />
<glyph unicode="&#xe3;" horiz-adv-x="450" d="M27 105q0 79 63.5 116t203.5 37v58q0 45 -21.5 66t-66.5 21q-75 0 -75 -44q0 -8 5 -18t5 -20q0 -14 -13.5 -22.5t-34.5 -8.5q-44 0 -44 49q0 41 39.5 66t117.5 25q88 0 131 -34t43 -107v-246q0 -19 13 -19l37 2v-26h-142q2 13 4 37l2 39q-41 -81 -135 -81 q-132 0 -132 110zM82 525q0 37 18.5 64t45.5 27q22 0 86 -21.5t83 -21.5q14 0 23.5 12t9.5 30h20q0 -37 -18.5 -64t-45.5 -27q-22 0 -86 21.5t-83 21.5q-14 0 -23.5 -12t-9.5 -30h-20zM118 112q0 -38 18 -59.5t50 -21.5q46 0 77 40t31 102v58q-96 0 -136 -27.5t-40 -91.5z " />
<glyph unicode="&#xe4;" horiz-adv-x="450" d="M27 105q0 79 63.5 116t203.5 37v58q0 45 -21.5 66t-66.5 21q-75 0 -75 -44q0 -8 5 -18t5 -20q0 -14 -13.5 -22.5t-34.5 -8.5q-44 0 -44 49q0 41 39.5 66t117.5 25q88 0 131 -34t43 -107v-246q0 -19 13 -19l37 2v-26h-142q2 13 4 37l2 39q-41 -81 -135 -81 q-132 0 -132 110zM77 568q0 21 15.5 35t38.5 14q22 0 38 -14t16 -35t-15 -34.5t-39 -13.5t-39 13.5t-15 34.5zM118 112q0 -38 18 -59.5t50 -21.5q46 0 77 40t31 102v58q-96 0 -136 -27.5t-40 -91.5zM272 568q0 21 15.5 35t38.5 14q22 0 38 -14t16 -35t-15 -34.5t-39 -13.5 t-39 13.5t-15 34.5z" />
<glyph unicode="&#xe5;" horiz-adv-x="450" d="M27 105q0 79 63.5 116t203.5 37v58q0 45 -21.5 66t-66.5 21q-75 0 -75 -44q0 -8 5 -18t5 -20q0 -14 -13.5 -22.5t-34.5 -8.5q-44 0 -44 49q0 41 39.5 66t117.5 25q88 0 131 -34t43 -107v-246q0 -19 13 -19l37 2v-26h-142q2 13 4 37l2 39q-41 -81 -135 -81 q-132 0 -132 110zM118 112q0 -38 18 -59.5t50 -21.5q46 0 77 40t31 102v58q-96 0 -136 -27.5t-40 -91.5zM129 561q0 34 24.5 57.5t58.5 23.5q36 0 60 -23t24 -58t-24.5 -58.5t-59.5 -23.5t-59 23.5t-24 58.5zM171 561q0 -18 12 -32t29 -14t29.5 14t12.5 32t-12.5 31.5 t-29.5 13.5t-29 -13.5t-12 -31.5z" />
<glyph unicode="&#xe6;" horiz-adv-x="720" d="M27 98q0 80 64 112t203 32v71q0 45 -19.5 67.5t-64.5 22.5q-79 0 -79 -44q0 -5 5 -18.5t5 -19.5q0 -14 -14 -22.5t-33 -8.5q-45 0 -45 49q0 42 40.5 66.5t120.5 24.5q105 0 141 -50q54 50 149 50q87 0 131 -54.5t44 -158.5h-294q0 -90 34 -142t99 -52q39 0 78.5 25 t57.5 62l24 -18q-21 -47 -66.5 -74.5t-99.5 -27.5q-143 0 -190 97q-48 -92 -146 -92q-66 0 -105.5 25.5t-39.5 77.5zM118 93q0 -65 73 -65q41 0 72 42.5t31 106.5v40q-92 0 -134 -31t-42 -93zM381 242h199q10 0 10 28q0 133 -89 133q-62 0 -91 -39.5t-29 -121.5z" />
<glyph unicode="&#xe7;" horiz-adv-x="425" d="M36 209q0 99 54 160t142 61q64 0 109.5 -29.5t45.5 -73.5q0 -21 -12.5 -35t-30.5 -14q-40 0 -40 28q0 10 4.5 22.5t4.5 24.5q0 24 -23.5 37t-57.5 13q-54 0 -78.5 -46t-24.5 -151q0 -189 116 -189q45 0 84.5 31t51.5 76l25 -17q-33 -109 -151 -117l-21 -33q-6 -10 -6 -19 q0 -7 13.5 -11.5t29.5 -7.5t29.5 -13t13.5 -28q0 -43 -24.5 -67.5t-69.5 -24.5q-44 0 -69 16l7 24q12 -13 35 -13t39.5 15.5t16.5 38.5q0 21 -34 39l-23 14q-11 8 -11 15t6 13l34 43q-88 5 -136.5 62t-48.5 156z" />
<glyph unicode="&#xe8;" horiz-adv-x="449" d="M35 209q0 109 51 165t150 56q79 0 127.5 -50.5t50.5 -138.5v-29h-288q0 -188 126 -189q50 0 84.5 25t50.5 62l23 -17q-20 -48 -67.5 -75.5t-104.5 -27.5q-203 0 -203 219zM126 627q0 6 20 16t37 10q7 0 13 -3t9 -6t14 -16l95 -104q18 -20 18 -23q0 -8 -13 -8q-11 0 -20 9 l-163 112q-10 8 -10 13zM127 237h182q20 0 20 33q0 68 -21.5 100.5t-71.5 32.5q-56 0 -82.5 -46t-26.5 -120z" />
<glyph unicode="&#xe9;" horiz-adv-x="449" d="M35 209q0 109 51 165t150 56q79 0 127.5 -50.5t50.5 -138.5v-29h-288q0 -188 126 -189q50 0 84.5 25t50.5 62l23 -17q-20 -48 -67.5 -75.5t-104.5 -27.5q-203 0 -203 219zM127 237h182q20 0 20 33q0 68 -21.5 100.5t-71.5 32.5q-56 0 -82.5 -46t-26.5 -120zM141 511 q0 4 5 9l106 117q11 13 17.5 18.5t9.5 6.5t10 1q8 -2 21 -5q23 -5 29.5 -8t6.5 -11q0 -7 -6 -12l-176 -121q-3 -3 -10 -3q-13 0 -13 8z" />
<glyph unicode="&#xea;" horiz-adv-x="449" d="M35 209q0 109 51 165t150 56q79 0 127.5 -50.5t50.5 -138.5v-29h-288q0 -188 126 -189q50 0 84.5 25t50.5 62l23 -17q-20 -48 -67.5 -75.5t-104.5 -27.5q-203 0 -203 219zM68 486q0 4 10.5 13t31 26.5t37.5 35.5l48 48q25 25 29 25t29 -25l48 -48q17 -18 37.5 -35.5 t31 -26.5t10.5 -13q0 -8 -9 -8t-28 12l-119 74l-119 -74q-19 -12 -28 -12t-9 8zM127 237h182q20 0 20 33q0 68 -21.5 100.5t-71.5 32.5q-56 0 -82.5 -46t-26.5 -120z" />
<glyph unicode="&#xeb;" horiz-adv-x="449" d="M35 209q0 109 51 165t150 56q79 0 127.5 -50.5t50.5 -138.5v-29h-288q0 -188 126 -189q50 0 84.5 25t50.5 62l23 -17q-20 -48 -67.5 -75.5t-104.5 -27.5q-203 0 -203 219zM76 568q0 21 15.5 35t38.5 14q22 0 38 -14t16 -35t-15 -34.5t-39 -13.5t-39 13.5t-15 34.5z M127 237h182q20 0 20 33q0 68 -21.5 100.5t-71.5 32.5q-56 0 -82.5 -46t-26.5 -120zM271 568q0 21 15.5 35t38.5 14q22 0 38 -14t16 -35t-15 -34.5t-39 -13.5t-39 13.5t-15 34.5z" />
<glyph unicode="&#xec;" horiz-adv-x="255" d="M15 627q0 6 20 16t37 10q7 0 13 -3t9 -6t14 -16l95 -104q18 -20 18 -23q0 -8 -13 -8q-11 0 -20 9l-163 112q-10 8 -10 13zM35 0v26l37 -2q13 0 13 19v333q0 17 -12 20l-37 -2v26h135v-377q0 -19 13 -19l36 2v-26h-185z" />
<glyph unicode="&#xed;" horiz-adv-x="255" d="M35 0v26l37 -2q13 0 13 19v333q0 17 -12 20l-37 -2v26h135v-377q0 -19 13 -19l36 2v-26h-185zM44 511q0 4 5 9l106 117q11 13 17.5 18.5t9.5 6.5t10 1q8 -2 21 -5q23 -5 29.5 -8t6.5 -11q0 -7 -6 -12l-176 -121q-3 -3 -10 -3q-13 0 -13 8z" />
<glyph unicode="&#xee;" horiz-adv-x="255" d="M-28 486q0 4 10.5 13t31 26.5t37.5 35.5q23 24 47 48q27 25 30 25t30 -25q24 -24 47 -48q17 -18 37.5 -35.5t31 -26.5t10.5 -13q0 -8 -9 -8t-28 12l-119 74l-119 -74q-19 -12 -28 -12t-9 8zM35 0v26l37 -2q13 0 13 19v333q0 17 -12 20l-37 -2v26h135v-377q0 -19 13 -19 l36 2v-26h-185z" />
<glyph unicode="&#xef;" horiz-adv-x="255" d="M-24 568q0 21 15.5 35t38.5 14q22 0 38 -14t16 -35t-15 -34.5t-39 -13.5t-39 13.5t-15 34.5zM35 0v26l37 -2q13 0 13 19v333q0 17 -12 20l-37 -2v26h135v-377q0 -19 13 -19l36 2v-26h-185zM171 568q0 21 15.5 35t38.5 14q22 0 38 -14t16 -35t-15 -34.5t-39 -13.5 t-39 13.5t-15 34.5z" />
<glyph unicode="&#xf0;" horiz-adv-x="492" d="M35 209q0 108 54 164t157 56q23 0 49 -7.5t33 -18.5q-31 77 -83 115l-105 -61l-15 26l96 55q-67 47 -109 47l20 22q69 0 136 -42l96 55l14 -26l-82 -48q161 -111 161 -333q0 -104 -55 -164t-156 -60q-103 0 -157 56t-54 164zM126 209q0 -109 27 -152t93 -43 q65 0 92.5 45.5t27.5 149.5q0 105 -28 150t-92 45q-68 0 -94 -42t-26 -153z" />
<glyph unicode="&#xf1;" horiz-adv-x="525" d="M35 0v26l37 -2q13 3 13 19v333q0 17 -13 20l-37 -2v26h141q-5 -15 -5 -35v-54q21 46 60 72.5t90 26.5q71 0 102.5 -33.5t31.5 -108.5v-245q0 -19 13 -19l37 2v-26h-195v26l46 -2q13 3 13 19v227q0 71 -12 99.5t-55 28.5q-60 0 -95.5 -52t-35.5 -138v-165q0 -19 13 -19 l46 2v-26h-195zM119 525q0 37 18.5 64t45.5 27q22 0 86 -21.5t83 -21.5q14 0 23.5 12t9.5 30h20q0 -37 -18.5 -64t-45.5 -27q-23 0 -86 21.5t-83 21.5q-14 0 -23.5 -12t-9.5 -30h-20z" />
<glyph unicode="&#xf2;" horiz-adv-x="472" d="M35 211q0 102 51 160.5t150 58.5t150 -58.5t51 -160.5q0 -104 -51 -162.5t-150 -58.5t-150 58.5t-51 162.5zM126 209q0 -101 25.5 -146.5t84.5 -45.5t84.5 45.5t25.5 146.5q0 102 -25.5 148t-84.5 46t-84.5 -46t-25.5 -148zM136 627q0 6 20 16t37 10q7 0 13 -3t9 -6 t14 -16l95 -104q18 -20 18 -23q0 -8 -13 -8q-11 0 -20 9l-163 112q-10 8 -10 13z" />
<glyph unicode="&#xf3;" horiz-adv-x="472" d="M35 211q0 102 51 160.5t150 58.5t150 -58.5t51 -160.5q0 -104 -51 -162.5t-150 -58.5t-150 58.5t-51 162.5zM126 209q0 -101 25.5 -146.5t84.5 -45.5t84.5 45.5t25.5 146.5q0 102 -25.5 148t-84.5 46t-84.5 -46t-25.5 -148zM143 511q0 4 5 9l106 117q11 13 17.5 18.5 t9.5 6.5t10 1q8 -2 21 -5q23 -5 29.5 -8t6.5 -11q0 -7 -6 -12l-176 -121q-3 -3 -10 -3q-13 0 -13 8z" />
<glyph unicode="&#xf4;" horiz-adv-x="472" d="M35 211q0 102 51 160.5t150 58.5t150 -58.5t51 -160.5q0 -104 -51 -162.5t-150 -58.5t-150 58.5t-51 162.5zM80 486q0 4 10.5 13t31 26.5t37.5 35.5l48 48q25 25 29 25t29 -25l48 -48q17 -18 37.5 -35.5t31 -26.5t10.5 -13q0 -8 -9 -8t-28 12l-119 74l-119 -74 q-19 -12 -28 -12t-9 8zM126 209q0 -101 25.5 -146.5t84.5 -45.5t84.5 45.5t25.5 146.5q0 102 -25.5 148t-84.5 46t-84.5 -46t-25.5 -148z" />
<glyph unicode="&#xf5;" horiz-adv-x="472" d="M35 211q0 102 51 160.5t150 58.5t150 -58.5t51 -160.5q0 -104 -51 -162.5t-150 -58.5t-150 58.5t-51 162.5zM93 525q0 37 18.5 64t45.5 27q22 0 86 -21.5t83 -21.5q14 0 23.5 12t9.5 30h20q0 -37 -18.5 -64t-45.5 -27q-23 0 -86 21.5t-83 21.5q-14 0 -23.5 -12t-9.5 -30 h-20zM126 209q0 -101 25.5 -146.5t84.5 -45.5t84.5 45.5t25.5 146.5q0 102 -25.5 148t-84.5 46t-84.5 -46t-25.5 -148z" />
<glyph unicode="&#xf6;" horiz-adv-x="472" d="M35 211q0 102 51 160.5t150 58.5t150 -58.5t51 -160.5q0 -104 -51 -162.5t-150 -58.5t-150 58.5t-51 162.5zM84 568q0 21 15.5 35t38.5 14q22 0 38 -14t16 -35t-15 -34.5t-39 -13.5t-39 13.5t-15 34.5zM126 209q0 -101 25.5 -146.5t84.5 -45.5t84.5 45.5t25.5 146.5 q0 102 -25.5 148t-84.5 46t-84.5 -46t-25.5 -148zM279 568q0 21 15.5 35t38.5 14q22 0 38 -14t16 -35t-15 -34.5t-39 -13.5t-39 13.5t-15 34.5z" />
<glyph unicode="&#xf7;" d="M19 249v41h422v-41h-422zM175 97q0 21 15 34.5t39 13.5t39.5 -12.5t15.5 -35.5q0 -21 -15.5 -34t-39.5 -13t-39 12.5t-15 34.5zM175 436q0 23 15 35.5t39 12.5t39.5 -12.5t15.5 -35.5q0 -21 -15.5 -34t-39.5 -13t-39 12.5t-15 34.5z" />
<glyph unicode="&#xf8;" horiz-adv-x="472" d="M35 211q0 102 51 160.5t150 58.5q54 0 99 -21l53 95l34 -21l-53 -96q68 -59 68 -176q0 -104 -51 -162.5t-150 -58.5q-45 0 -81 13l-49 -88l-38 17l50 89q-83 55 -83 190zM126 209q0 -89 20 -137l166 297q-25 34 -76 34q-59 0 -84.5 -46t-25.5 -148zM173 36q22 -19 63 -19 q59 0 84.5 45.5t25.5 146.5q0 71 -12 115z" />
<glyph unicode="&#xf9;" horiz-adv-x="524" d="M20 394v26h135v-272q0 -68 12 -96.5t49 -28.5q62 0 99.5 50.5t37.5 137.5v164q0 21 -12 21l-47 -2v26h146v-377q0 -19 13 -19l36 2v-26h-142q6 14 6 87q-41 -97 -158 -97q-67 0 -96.5 37t-29.5 121v228q0 20 -13 20zM124 627q0 6 20 16t37 10q7 0 13 -3t9 -6t14 -16 l95 -104q18 -20 18 -23q0 -8 -13 -8q-11 0 -20 9l-163 112q-10 8 -10 13z" />
<glyph unicode="&#xfa;" horiz-adv-x="524" d="M20 394v26h135v-272q0 -68 12 -96.5t49 -28.5q62 0 99.5 50.5t37.5 137.5v164q0 21 -12 21l-47 -2v26h146v-377q0 -19 13 -19l36 2v-26h-142q6 14 6 87q-41 -97 -158 -97q-67 0 -96.5 37t-29.5 121v228q0 20 -13 20zM159 511q0 4 5 9l106 117q11 13 17.5 18.5t9.5 6.5 t10 1q8 -2 21 -5q23 -5 29.5 -8t6.5 -11q0 -7 -6 -12l-176 -121q-3 -3 -10 -3q-13 0 -13 8z" />
<glyph unicode="&#xfb;" horiz-adv-x="524" d="M20 394v26h135v-272q0 -68 12 -96.5t49 -28.5q62 0 99.5 50.5t37.5 137.5v164q0 21 -12 21l-47 -2v26h146v-377q0 -19 13 -19l36 2v-26h-142q6 14 6 87q-41 -97 -158 -97q-67 0 -96.5 37t-29.5 121v228q0 20 -13 20zM106 486q0 4 10.5 13t31 26.5t37.5 35.5l48 48 q25 25 29 25t29 -25l48 -48q17 -18 37.5 -35.5t31 -26.5t10.5 -13q0 -8 -9 -8t-28 12l-119 74l-119 -74q-19 -12 -28 -12t-9 8z" />
<glyph unicode="&#xfc;" horiz-adv-x="524" d="M20 394v26h135v-272q0 -68 12 -96.5t49 -28.5q62 0 99.5 50.5t37.5 137.5v164q0 21 -12 21l-47 -2v26h146v-377q0 -19 13 -19l36 2v-26h-142q6 14 6 87q-41 -97 -158 -97q-67 0 -96.5 37t-29.5 121v228q0 20 -13 20zM96 568q0 21 15.5 35t38.5 14q22 0 38 -14t16 -35 t-15 -34.5t-39 -13.5t-39 13.5t-15 34.5zM291 568q0 21 15.5 35t38.5 14q22 0 38 -14t16 -35t-15 -34.5t-39 -13.5t-39 13.5t-15 34.5z" />
<glyph unicode="&#xfd;" horiz-adv-x="485" d="M-13 394v26h219v-26l-45 2q-7 0 -11 -5.5t-1 -11.5l122 -270l113 272q6 15 -10 15l-47 -2v26h155v-26l-41 2h-2q-16 0 -25 -19l-211 -509q-24 -59 -51 -83t-67 -24q-27 0 -45.5 13t-20.5 36q0 25 11.5 38t27.5 13q17 0 27 -10.5t17.5 -21t18.5 -10.5q28 0 46 46l59 136 l-174 382q-6 13 -16 13zM182 511q0 4 5 9l106 117q11 13 17.5 18.5t9.5 6.5t10 1q8 -2 21 -5q23 -5 29.5 -8t6.5 -11q0 -7 -6 -12l-176 -121q-3 -3 -10 -3q-13 0 -13 8z" />
<glyph unicode="&#xfe;" horiz-adv-x="516" d="M20 704v26h139q-4 -25 -4 -51v-339q31 90 132 90q172 0 172 -221q0 -110 -46.5 -164.5t-143.5 -54.5q-85 0 -114 53v-238q0 -20 13 -20l62 2v-26h-206v26l32 -2q13 1 13 20v881q0 20 -13 20zM157 184q0 -167 112 -167q57 0 78 41t21 151q0 111 -19 152.5t-73 41.5 q-56 0 -87.5 -48.5t-31.5 -128.5v-42z" />
<glyph unicode="&#xff;" horiz-adv-x="485" d="M-13 394v26h219v-26l-45 2q-7 0 -11 -5.5t-1 -11.5l122 -270l113 272q6 15 -10 15l-47 -2v26h155v-26l-41 2h-2q-16 0 -25 -19l-211 -509q-24 -59 -51 -83t-67 -24q-27 0 -45.5 13t-20.5 36q0 25 11.5 38t27.5 13q17 0 27 -10.5t17.5 -21t18.5 -10.5q28 0 46 46l59 136 l-174 382q-6 13 -16 13zM117 568q0 21 15.5 35t38.5 14q22 0 38 -14t16 -35t-15 -34.5t-39 -13.5t-39 13.5t-15 34.5zM312 568q0 21 15.5 35t38.5 14q22 0 38 -14t16 -35t-15 -34.5t-39 -13.5t-39 13.5t-15 34.5z" />
<glyph unicode="&#x152;" horiz-adv-x="868" d="M46 292q0 315 297 315q27 0 66.5 -5t62.5 -5h327v-154h-27q0 68 -33.5 97t-108.5 29h-94q-13 0 -13 -14v-231h76q33 0 55 27.5t22 74.5h27v-231h-27q0 44 -22.5 73t-54.5 29h-76v-257q0 -13 13 -13h115q69 0 104.5 39.5t35.5 112.5h27v-182q-24 3 -88 3h-250 q-20 0 -41.5 -1t-38 -2.5t-30 -3l-22.5 -2.5l-8 -1q-142 0 -218 78t-76 224zM143 296q0 -148 45 -213t148 -65q99 0 99 72v436q0 23 -29 39t-70 16q-102 0 -147.5 -67.5t-45.5 -217.5z" />
<glyph unicode="&#x153;" horiz-adv-x="761" d="M35 202q0 101 47 164.5t145 63.5q119 0 164 -74q27 39 63 56.5t97 17.5q82 0 128.5 -50.5t46.5 -140.5v-22h-294q0 -93 35 -143.5t101 -50.5q42 0 82 27.5t50 59.5l23 -17q-18 -46 -62.5 -74.5t-104.5 -28.5q-105 0 -165 74q-30 -42 -64.5 -58t-98.5 -16q-90 0 -141.5 59 t-51.5 153zM126 203q0 -186 102 -186q70 0 93.5 45.5t23.5 144.5q0 111 -26 153.5t-92 42.5q-53 0 -77 -48.5t-24 -151.5zM432 242h197q12 0 12 15q0 78 -22 112t-73 34q-114 0 -114 -161z" />
<glyph unicode="&#x178;" horiz-adv-x="507" d="M-5 567v30h221v-30l-53 2q-10 1 -11.5 -7.5t4.5 -16.5l137 -228l131 232q10 20 -7 20l-52 -2v30h152v-30l-29 2h-1q-16 0 -28 -21l-146 -260v-240q0 -21 20 -21l48 2v-29h-229v29l49 -2q19 0 19 22v214l-173 287q-10 19 -24 19h-1zM135 745q0 21 15.5 35t38.5 14 q22 0 38 -14t16 -35t-15 -34.5t-39 -13.5t-39 13.5t-15 34.5zM330 745q0 21 15.5 35t38.5 14q22 0 38 -14t16 -35t-15 -34.5t-39 -13.5t-39 13.5t-15 34.5z" />
<glyph unicode="&#x2c6;" horiz-adv-x="402" d="M49 486q0 4 10.5 13t31 26.5t37.5 35.5l48 48q25 25 29 25t29 -25l48 -48q17 -18 37.5 -35.5t31 -26.5t10.5 -13q0 -8 -9 -8t-28 12l-119 74l-119 -74q-19 -12 -28 -12t-9 8z" />
<glyph unicode="&#x2dc;" horiz-adv-x="400" d="M57 525q0 37 18.5 64t45.5 27q22 0 86 -21.5t83 -21.5q14 0 23.5 12t9.5 30h20q0 -37 -18.5 -64t-45.5 -27q-23 0 -86 21.5t-83 21.5q-14 0 -23.5 -12t-9.5 -30h-20z" />
<glyph unicode="&#x2000;" horiz-adv-x="420" />
<glyph unicode="&#x2001;" horiz-adv-x="840" />
<glyph unicode="&#x2002;" horiz-adv-x="420" />
<glyph unicode="&#x2003;" horiz-adv-x="840" />
<glyph unicode="&#x2004;" horiz-adv-x="280" />
<glyph unicode="&#x2005;" horiz-adv-x="210" />
<glyph unicode="&#x2006;" horiz-adv-x="140" />
<glyph unicode="&#x2007;" horiz-adv-x="140" />
<glyph unicode="&#x2008;" horiz-adv-x="105" />
<glyph unicode="&#x2009;" horiz-adv-x="168" />
<glyph unicode="&#x200a;" horiz-adv-x="46" />
<glyph unicode="&#x2010;" horiz-adv-x="249" d="M22 189v55h206v-55h-206z" />
<glyph unicode="&#x2011;" horiz-adv-x="249" d="M22 189v55h206v-55h-206z" />
<glyph unicode="&#x2012;" horiz-adv-x="249" d="M22 189v55h206v-55h-206z" />
<glyph unicode="&#x2013;" horiz-adv-x="477" d="M18 191v39h441v-39h-441z" />
<glyph unicode="&#x2014;" horiz-adv-x="794" d="M0 191v39h794v-39h-794z" />
<glyph unicode="&#x2018;" horiz-adv-x="220" d="M46 477q0 50 34 94.5t76 73.5l19 -11q-26 -24 -47.5 -58t-21.5 -57q0 -17 5.5 -23t16.5 -6h14q32 0 32 -43q0 -21 -17.5 -37t-40.5 -16q-70 0 -70 83z" />
<glyph unicode="&#x2019;" horiz-adv-x="220" d="M64 390q26 24 47.5 58t21.5 57q0 29 -36 29q-32 0 -32 43q0 21 17.5 37t40.5 16q70 0 70 -83q0 -50 -34 -94.5t-76 -73.5z" />
<glyph unicode="&#x201a;" horiz-adv-x="264" d="M102 -149q26 24 47.5 58t21.5 57q0 29 -36 29q-32 0 -32 43q0 21 17.5 37t40.5 16q70 0 70 -83q0 -50 -34 -94.5t-76 -73.5z" />
<glyph unicode="&#x201c;" horiz-adv-x="386" d="M46 477q0 50 34 94.5t76 73.5l19 -11q-26 -24 -47.5 -58t-21.5 -57q0 -17 5.5 -23t16.5 -6h14q32 0 32 -43q0 -21 -17.5 -37t-40.5 -16q-70 0 -70 83zM212 477q0 50 34 94.5t76 73.5l19 -11q-26 -24 -47.5 -58t-21.5 -57q0 -17 5.5 -23t16.5 -6h14q32 0 32 -43 q0 -21 -17.5 -37t-40.5 -16q-70 0 -70 83z" />
<glyph unicode="&#x201d;" horiz-adv-x="386" d="M60 390q26 24 47.5 58t21.5 57q0 29 -36 29q-32 0 -32 43q0 21 17.5 37t40.5 16q70 0 70 -83q0 -50 -34 -94.5t-76 -73.5zM226 390q26 24 47.5 58t21.5 57q0 29 -36 29q-32 0 -32 43q0 21 17.5 37t40.5 16q70 0 70 -83q0 -50 -34 -94.5t-76 -73.5z" />
<glyph unicode="&#x201e;" horiz-adv-x="462" d="M102 -149q26 24 47.5 58t21.5 57q0 29 -36 29q-32 0 -32 43q0 21 17.5 37t40.5 16q70 0 70 -83q0 -50 -34 -94.5t-76 -73.5zM282 -149q26 24 47.5 58t21.5 57q0 29 -36 29q-32 0 -32 43q0 21 17.5 37t40.5 16q70 0 70 -83q0 -50 -34 -94.5t-76 -73.5z" />
<glyph unicode="&#x2022;" horiz-adv-x="469" d="M105 247q0 51 37 83.5t92 32.5t91.5 -32.5t36.5 -83.5t-37 -83.5t-91 -32.5q-57 0 -93 32.5t-36 83.5z" />
<glyph unicode="&#x2026;" horiz-adv-x="689" d="M60 47q0 26 18.5 42t46.5 16t46.5 -16t18.5 -42t-18.5 -41.5t-46.5 -15.5t-46.5 15.5t-18.5 41.5zM280 47q0 26 18.5 42t46.5 16t46.5 -16t18.5 -42t-18.5 -41.5t-46.5 -15.5t-46.5 15.5t-18.5 41.5zM499 47q0 26 18.5 42t46.5 16t46.5 -16t18.5 -42t-18.5 -41.5 t-46.5 -15.5t-46.5 15.5t-18.5 41.5z" />
<glyph unicode="&#x202f;" horiz-adv-x="168" />
<glyph unicode="&#x2039;" horiz-adv-x="226" d="M26 187l149 171h36l-98 -171l98 -171h-36z" />
<glyph unicode="&#x203a;" horiz-adv-x="225" d="M15 16l98 171l-98 171h36l149 -171l-149 -171h-36z" />
<glyph unicode="&#x205f;" horiz-adv-x="210" />
<glyph unicode="&#x20ac;" horiz-adv-x="466" d="M2 217l10 41h48q-1 5 -1 14v46q0 8 1 13h-58l10 41h51q15 113 75 174t154 61q33 0 53.5 -6t71.5 -31q16 -6 37 -6q-3 -39 -3 -83q0 -8 1 -13v-14q0 -5 0.5 -10t1.5 -8v-3h-18q-12 63 -54 106t-94 43q-57 0 -95.5 -55.5t-49.5 -154.5h240l-10 -41h-234q-1 -5 -1 -13v-36 q0 -9 1 -12q0 -8 1 -12h243l-10 -41h-230q13 -95 52.5 -147.5t96.5 -52.5q55 0 96 42.5t51 107.5h22q-3 -36 -3 -45l-2 -23v-17q0 -28 3 -47h-5q-16 0 -54 -15l-28 -12q-36 -18 -84 -18q-90 0 -149.5 60t-74.5 167h-62z" />
<glyph unicode="&#x2122;" horiz-adv-x="758" d="M38 491v72h259v-72h-20q0 33 -14.5 43t-54.5 10h-15v-243q0 -24 44 -24v-15h-140v15q44 0 44 19v248l-47 -1q-27 -2 -32 -19l-5 -33h-19zM336 262v15q43 0 43 20v239q0 12 -31 12v15h90l93 -222l90 222h96v-15h-23q-9 0 -12 -15v-228q0 -17 9 -22.5t29 -5.5v-15h-125v15 q21 0 29.5 5.5t8.5 22.5v226h-6l-106 -269h-8l-106 269h-8v-230q0 -24 44 -24v-15h-107z" />
<glyph unicode="&#xe000;" horiz-adv-x="420" d="M0 0v420h420v-420h-420z" />
</font>
</defs>
</svg>
