<?xml version="1.0" standalone="no"?>
<!DOCTYPE svg PUBLIC "-//W3C//DTD SVG 1.1//EN" "http://www.w3.org/Graphics/SVG/1.1/DTD/svg11.dtd" >
<svg xmlns="http://www.w3.org/2000/svg">
<metadata></metadata>
<defs>
<font id="theano_old_styleregular" horiz-adv-x="1152" >
<font-face units-per-em="2048" ascent="1580" descent="-468" />
<missing-glyph horiz-adv-x="528" />
<glyph unicode="&#xfb01;" horiz-adv-x="1172" d="M74 836q0 47 8 64h158q0 81 36 191t104 199q66 87 163.5 136.5t194.5 49.5q104 0 166 -50.5t62 -107.5q0 -35 -25 -61t-57 -26q-55 0 -117 71q-54 62 -128 62q-48 0 -97 -27t-88 -87q-30 -47 -52 -120.5t-22 -157.5v-72h380q104 0 174 10h32v-802q0 -50 50 -50h108v-60 q-3 0 -98.5 2t-129.5 2t-129.5 -2t-98.5 -2v60h108q50 0 50 50v662q0 36 -15 51t-51 15h-380v-728q0 -50 50 -50h108v-60q-3 0 -98.5 2t-129.5 2t-129.5 -2t-98.5 -2v60h108q50 0 50 50v728h-166z" />
<glyph unicode="&#xfb02;" horiz-adv-x="1172" d="M74 836q0 47 8 64h158q0 81 36 191t104 199q66 87 163.5 136.5t194.5 49.5q75 0 131 -29l65 29h32v-1368q0 -50 50 -50h108v-60q-3 0 -98.5 2t-129.5 2t-129.5 -2t-98.5 -2v60h108q50 0 50 50v728h-446v-728q0 -50 50 -50h108v-60q-3 0 -98.5 2t-129.5 2t-129.5 -2 t-98.5 -2v60h108q50 0 50 50v728h-166zM380 900h446v349q-38 10 -98 64q-53 47 -107 47q-95 0 -167 -110q-30 -47 -52 -120.5t-22 -157.5v-72z" />
<glyph unicode="&#xfb03;" horiz-adv-x="1758" d="M74 836q0 47 8 64h158v66q0 77 18 167t61 158q57 91 139.5 138t179.5 47q83 0 125.5 -37t42.5 -90q0 -39 -25 -61t-66 -22q-48 0 -92 56q-36 42 -83 42q-79 0 -126 -86q-34 -61 -34 -218v-160h446q0 81 36 191t104 199q66 87 163.5 136.5t194.5 49.5q104 0 166 -50.5 t62 -107.5q0 -35 -25 -61t-57 -26q-55 0 -117 71q-54 62 -128 62q-48 0 -97 -27t-88 -87q-30 -47 -52 -120.5t-22 -157.5v-72h380q104 0 174 10h32v-802q0 -50 50 -50h108v-60q-3 0 -98.5 2t-129.5 2t-129.5 -2t-98.5 -2v60h108q50 0 50 50v662q0 36 -15 51t-51 15h-380 v-728q0 -50 50 -50h108v-60q-3 0 -98.5 2t-129.5 2t-129.5 -2t-98.5 -2v60h108q50 0 50 50v728h-446v-728q0 -50 50 -50h108v-60q-3 0 -98.5 2t-129.5 2t-129.5 -2t-98.5 -2v60h108q50 0 50 50v728h-166z" />
<glyph unicode="&#xfb04;" horiz-adv-x="1758" d="M74 836q0 47 8 64h158v66q0 77 18 167t61 158q57 91 139.5 138t179.5 47q83 0 125.5 -37t42.5 -90q0 -39 -25 -61t-66 -22q-48 0 -92 56q-36 42 -83 42q-79 0 -126 -86q-34 -61 -34 -218v-160h446q0 81 36 191t104 199q66 87 163.5 136.5t194.5 49.5q75 0 131 -29l65 29 h32v-1368q0 -50 50 -50h108v-60q-3 0 -98.5 2t-129.5 2t-129.5 -2t-98.5 -2v60h108q50 0 50 50v728h-446v-728q0 -50 50 -50h108v-60q-3 0 -98.5 2t-129.5 2t-129.5 -2t-98.5 -2v60h108q50 0 50 50v728h-446v-728q0 -50 50 -50h108v-60q-3 0 -98.5 2t-129.5 2t-129.5 -2 t-98.5 -2v60h108q50 0 50 50v728h-166zM966 900h446v349q-38 10 -98 64q-53 47 -107 47q-95 0 -167 -110q-30 -47 -52 -120.5t-22 -157.5v-72z" />
<glyph horiz-adv-x="2048" />
<glyph horiz-adv-x="2048" />
<glyph unicode="&#xd;" horiz-adv-x="682" />
<glyph unicode=" "  horiz-adv-x="528" />
<glyph unicode="&#x09;" horiz-adv-x="528" />
<glyph unicode="&#xa0;" horiz-adv-x="528" />
<glyph unicode="!" horiz-adv-x="528" d="M136 104q0 54 37 91t91 37t91 -37t37 -91t-37 -91t-91 -37t-91 37t-37 91zM146 1313q0 27 5.5 54.5t17.5 56t36.5 46.5t58.5 18t58.5 -18t36.5 -46.5t17.5 -56t5.5 -54.5q0 -90 -30 -256q-22 -119 -36 -256l-24 -405h-56l-24 405q-14 139 -36 257q-30 166 -30 255z" />
<glyph unicode="&#x22;" horiz-adv-x="880" d="M170 824zM170 1382q0 46 25 76t69 30t69 -30t25 -76q0 -31 -10 -113l-56 -445h-56l-56 445q-10 83 -10 113zM544 1382q0 46 25 76t69 30t69 -30t25 -76q0 -31 -10 -113l-56 -445h-56l-56 445q-10 83 -10 113z" />
<glyph unicode="#" d="M62 430v96h215l83 408h-298v96h317l93 458h88l-93 -458h334l93 458h88l-93 -458h201v-96h-220l-83 -408h303v-96h-323l-87 -430h-88l87 430h-334l-87 -430h-88l87 430h-195zM365 526h334l83 408h-334z" />
<glyph unicode="$" d="M128 272q0 70 39 115t88 45q35 0 61 -20.5t26 -54.5q0 -28 -12.5 -46t-36.5 -36q-37 -27 -37 -68q0 -72 92 -121.5t202 -49.5v632q-71 28 -124 54t-109 64t-91.5 79.5t-58.5 99t-23 123.5q0 72 27.5 138t71.5 112.5t98 81t108.5 51.5t100.5 17v124h72v-125 q164 0 276 -95.5t112 -221.5q0 -65 -36.5 -110t-88.5 -45q-36 0 -63 22.5t-27 59.5q0 35 47 97q28 37 28 70q0 56 -80.5 108t-167.5 52v-596q213 -74 317.5 -182.5t104.5 -273.5q0 -173 -122.5 -286.5t-299.5 -113.5v-172h-72v172q-105 0 -201 36.5t-158.5 106.5t-62.5 157z M266 1145q0 -55 22 -100.5t63.5 -80.5t88.5 -60.5t110 -49.5v570q-56 0 -120.5 -32.5t-114 -99t-49.5 -147.5zM622 36q129 0 222.5 78t93.5 208q0 108 -83 182.5t-233 134.5v-603z" />
<glyph unicode="%" horiz-adv-x="1540" d="M80 1130q0 91 35 173t101 133.5t146 51.5t146 -51.5t101 -133.5t35 -173t-35 -173t-101 -133.5t-146 -51.5t-146 51.5t-101 133.5t-35 173zM214 1130q0 -54 6.5 -104t21.5 -100t46 -80t74 -30t74 30t46 80t21.5 100t6.5 104t-6.5 104t-21.5 100t-46 80t-74 30t-74 -30 t-46 -80t-21.5 -100t-6.5 -104zM279 -16l884 1492h98l-886 -1492h-96zM896 330q0 91 35 173t101 133.5t146 51.5t146 -51.5t101 -133.5t35 -173t-35 -173t-101 -133.5t-146 -51.5t-146 51.5t-101 133.5t-35 173zM1030 330q0 -54 6.5 -104t21.5 -100t46 -80t74 -30t74 30 t46 80t21.5 100t6.5 104t-6.5 104t-21.5 100t-46 80t-74 30t-74 -30t-46 -80t-21.5 -100t-6.5 -104z" />
<glyph unicode="&#x26;" horiz-adv-x="1622" d="M88 330q0 50 14.5 98t36 86.5t59.5 78.5t69.5 68t83 63t84 55t85.5 51q-60 151 -60 288q0 162 100.5 266t241.5 104q60 0 107 -20.5t73.5 -53t40 -69.5t13.5 -74q0 -62 -24.5 -118.5t-73 -107t-103.5 -92.5t-133 -90q140 -303 351 -563q87 92 141 188t54 167q0 45 -29 75 t-73 30h-76v64h480v-64q-75 0 -128 -40.5t-112 -158.5q-93 -185 -214 -312q153 -185 250 -185q53 0 90 12t82 38l26 -42q-61 -52 -122.5 -76t-143.5 -24q-165 0 -319 156q-212 -156 -457 -156q-181 0 -297.5 97.5t-116.5 260.5zM286 399q0 -77 21.5 -137t55.5 -96t81 -59.5 t92.5 -32t94.5 -8.5q127 0 285 110q-125 152 -210.5 288.5t-162.5 307.5q-110 -65 -183.5 -162.5t-73.5 -210.5zM604 1206q0 -144 74 -293q80 52 128 95.5t80 107.5t32 144q0 69 -34 116.5t-106 47.5q-80 0 -127 -64.5t-47 -153.5z" />
<glyph unicode="'" horiz-adv-x="528" d="M170 1382q0 46 25 76t69 30t69 -30t25 -76q0 -31 -10 -113l-56 -445h-56l-56 445q-10 83 -10 113z" />
<glyph unicode="(" horiz-adv-x="760" d="M144 464q0 279 123.5 546t334.5 478l42 -40q-330 -381 -330 -984q0 -601 330 -982l-42 -42q-211 211 -334.5 478t-123.5 546z" />
<glyph unicode=")" horiz-adv-x="760" d="M116 -520q330 381 330 985q0 600 -330 981l42 42q211 -211 334.5 -477.5t123.5 -545.5q0 -280 -123.5 -547t-334.5 -478z" />
<glyph unicode="*" horiz-adv-x="1104" d="M148 852q0 84 148 104q82 11 164 57q22 11 22 24q0 6 -5.5 12t-10.5 9l-6 3q-82 46 -164 57q-148 20 -148 104q0 31 22.5 56t59.5 25q34 0 62 -21t61 -65q46 -58 124 -107q20 -14 31 -14q10 0 14 6.5t4 26.5q0 90 -31 170q-27 62 -27 94q0 41 22.5 68t61.5 27t61.5 -27 t22.5 -68q0 -32 -27 -94q-31 -80 -31 -170q0 -20 4 -26.5t14 -6.5q11 0 31 14q78 49 124 107q33 44 61 65t62 21q37 0 59.5 -25t22.5 -56q0 -84 -148 -104q-82 -11 -164 -57q-22 -11 -22 -24q0 -6 5.5 -12t10.5 -9l6 -3q82 -46 164 -57q148 -20 148 -104q0 -31 -22.5 -56 t-59.5 -25q-34 0 -62 21t-61 65q-46 58 -124 107q-20 14 -31 14q-10 0 -14 -6.5t-4 -26.5q0 -90 31 -170q27 -62 27 -94q0 -41 -22.5 -68t-61.5 -27t-61.5 27t-22.5 68q0 32 27 94q31 80 31 170q0 20 -4 26.5t-14 6.5q-11 0 -31 -14q-78 -49 -124 -107q-33 -44 -61 -65 t-62 -21q-37 0 -59.5 25t-22.5 56z" />
<glyph unicode="+" d="M62 466v96h460v466h108v-466h460v-96h-460v-466h-108v466h-460z" />
<glyph unicode="," horiz-adv-x="528" d="M126 -341q88 45 138 99q60 65 60 142q0 48 -34 77q-21 18 -71 21q-37 2 -63.5 29.5t-26.5 66.5q0 49 32 78.5t78 29.5q72 0 121 -61q52 -65 52 -162q0 -52 -23.5 -117t-64.5 -113q-65 -76 -175 -129z" />
<glyph unicode="-" horiz-adv-x="900" d="M136 358v132h628v-132h-628z" />
<glyph unicode="." horiz-adv-x="528" d="M136 104q0 54 37 91t91 37t91 -37t37 -91t-37 -91t-91 -37t-91 37t-37 91z" />
<glyph unicode="/" horiz-adv-x="722" d="M88 -468l444 1928h102l-444 -1928h-102z" />
<glyph unicode="0" d="M68 730q0 86 14.5 174.5t42 173t71.5 159t98.5 130.5t127.5 88.5t154 32.5t154 -32.5t127.5 -88.5t98.5 -130.5t71.5 -159t42 -173t14.5 -174.5t-14.5 -174.5t-42 -173t-71.5 -159t-98.5 -130.5t-127.5 -88.5t-154 -32.5t-154 32.5t-127.5 88.5t-98.5 130.5t-71.5 159 t-42 173t-14.5 174.5zM272 730q0 -694 304 -694t304 694t-304 694t-304 -694z" />
<glyph unicode="1" d="M202 1080l355 388h95v-1324q0 -77 20 -144h-190q20 67 20 144v1090q0 36 -27 36q-15 0 -27 -9.5t-31 -31.5l-173 -190z" />
<glyph unicode="2" d="M112 0v39q67 140 189.5 298t264.5 296q60 59 97 98t75 89t58 94.5t33 101t13 120.5q0 118 -75 203t-202 85q-117 0 -182 -46t-65 -111q0 -29 31 -57q29 -26 41.5 -49t12.5 -54q0 -43 -27.5 -75.5t-74.5 -32.5q-60 0 -98.5 43.5t-38.5 118.5q0 90 60.5 165.5t164 118.5 t224.5 43q97 0 176 -29.5t129 -78.5t77 -109.5t27 -126.5q0 -49 -11 -96t-27 -85t-45.5 -79.5t-54.5 -70.5t-67.5 -68t-70.5 -62.5t-77 -62.5q-283 -227 -400 -454h562q26 0 44 9t25.5 19t19.5 30q32 57 42 127q7 47 33 47q17 0 24 -17t7 -35q0 -53 -18 -110l-72 -236h-824z " />
<glyph unicode="3" d="M124 259q0 47 23 75t65 28q28 0 47.5 -11t30 -34t14.5 -41.5t8 -48.5q25 -191 222 -191q157 0 235.5 99.5t78.5 271.5q0 157 -78 248t-220 91q-25 0 -73 -11q-43 -9 -61 -9q-23 0 -39.5 13.5t-16.5 38.5t16.5 38.5t39.5 13.5q18 0 61 -9q48 -11 73 -11q123 0 194.5 95.5 t71.5 244.5q0 129 -69.5 201.5t-187.5 72.5q-117 0 -181 -49.5t-64 -106.5q0 -37 28 -64q24 -22 33.5 -41t9.5 -49q0 -28 -24.5 -52.5t-64.5 -24.5q-55 0 -91.5 40.5t-36.5 96.5q0 123 115 218.5t292 95.5q96 0 175.5 -29.5t129.5 -77.5t77 -108t27 -123q0 -133 -88 -225.5 t-225 -132.5v-10q155 -24 253 -129t98 -246q0 -198 -134 -316.5t-350 -118.5q-183 0 -298.5 83t-115.5 204z" />
<glyph unicode="4" d="M72 450v61l685 957h69v-910h142q77 0 144 20v-148q-67 20 -144 20h-142v-306q0 -77 20 -144h-190q20 67 20 144v306h-604zM174 558h502v702z" />
<glyph unicode="5" d="M78 220q0 38 20.5 67t55.5 29q43 0 63.5 -20t47.5 -73q46 -89 105.5 -132t151.5 -43q94 0 165 36.5t110.5 97t59 129.5t19.5 144q0 179 -105 290t-293 111q-131 0 -246 -64h-30l39 668h555q38 0 54.5 14.5t24.5 43.5q10 37 21 52.5t29 15.5q31 0 31 -33q0 -28 -22 -94 l-55 -165h-573l-18 -307l6 -4q97 37 205 37q114 0 205 -29.5t150 -78.5t98 -115t55.5 -135.5t16.5 -143.5q0 -153 -67.5 -277.5t-191 -196.5t-279.5 -72q-170 0 -289 76.5t-119 171.5z" />
<glyph unicode="6" d="M122 576q0 143 44.5 276t121.5 237.5t178.5 187.5t216.5 136t235 75l16 -56q-233 -75 -393 -236.5t-218 -407.5l22 -8q116 120 275 120q128 0 225 -58.5t147 -155.5t50 -216q0 -220 -128 -359t-321 -139q-95 0 -180 41t-150 116.5t-103 191t-38 255.5zM302 453 q0 -108 24 -190t65.5 -128.5t90.5 -69.5t104 -23q114 0 195 111.5t81 302.5q0 171 -73 275.5t-210 104.5q-107 0 -192 -108.5t-85 -274.5z" />
<glyph unicode="7" d="M174 1108q0 24 16 80l81 272h775v-69q-254 -724 -354 -1391h-231v40l496 1254h-556q-34 0 -57 -9.5t-44 -36.5q-32 -41 -59 -132q-12 -41 -37 -41q-30 0 -30 33z" />
<glyph unicode="8" d="M108 332q0 64 29.5 122.5t82 105.5t110.5 83t128 67v10q-145 86 -210.5 173.5t-65.5 220.5q0 163 122.5 268.5t294.5 105.5q108 0 201.5 -40t152.5 -115t59 -169q0 -61 -23.5 -116.5t-67.5 -101t-94.5 -81.5t-116.5 -71v-7q82 -40 137 -76t103 -84t71 -109.5t23 -137.5 q0 -117 -64.5 -211.5t-169.5 -145.5t-226 -51q-130 0 -236.5 41t-173 124.5t-66.5 194.5zM278 342q0 -79 26.5 -140t72 -96t100 -52.5t115.5 -17.5q136 0 232 82.5t96 205.5q0 42 -13.5 76.5t-36 62.5t-68.5 60.5t-92 59t-126 68.5l-68 35q-108 -53 -173 -140.5t-65 -203.5z M304 1172q0 -56 28.5 -108t81 -96.5t109 -79.5t130.5 -72q72 43 117.5 87.5t71.5 107.5t26 145q0 112 -81.5 192.5t-196.5 80.5t-200.5 -74t-85.5 -183z" />
<glyph unicode="9" d="M110 990q0 220 128 359t321 139q95 0 180 -41t150 -116.5t103 -191t38 -255.5q0 -143 -44.5 -276t-121.5 -237.5t-178.5 -187.5t-216.5 -136t-235 -75l-16 56q233 75 393 236.5t218 407.5l-22 8q-116 -120 -275 -120q-128 0 -225 58.5t-147 155.5t-50 216zM290 1004 q0 -171 73 -275.5t210 -104.5q107 0 192 108.5t85 274.5q0 108 -24 190t-65.5 128.5t-90.5 69.5t-104 23q-114 0 -195 -111.5t-81 -302.5z" />
<glyph unicode=":" horiz-adv-x="528" d="M136 0zM136 788q0 54 37 91t91 37t91 -37t37 -91t-37 -91t-91 -37t-91 37t-37 91zM136 104q0 54 37 91t91 37t91 -37t37 -91t-37 -91t-91 -37t-91 37t-37 91z" />
<glyph unicode=";" horiz-adv-x="528" d="M126 0zM126 -341q88 45 138 99q60 65 60 142q0 48 -34 77q-21 18 -71 21q-37 2 -63.5 29.5t-26.5 66.5q0 49 32 78.5t78 29.5q72 0 121 -61q52 -65 52 -162q0 -52 -23.5 -117t-64.5 -113q-65 -76 -175 -129zM136 788q0 54 37 91t91 37t91 -37t37 -91t-37 -91t-91 -37 t-91 37t-37 91z" />
<glyph unicode="&#x3c;" d="M84 466v96l940 490l44 -88l-869 -450l869 -450l-44 -88z" />
<glyph unicode="=" d="M62 310v96h1028v-96h-1028zM62 622v96h1028v-96h-1028z" />
<glyph unicode="&#x3e;" d="M84 64l869 450l-869 450l44 88l940 -490v-96l-940 -490z" />
<glyph unicode="?" horiz-adv-x="852" d="M110 1370q0 60 52 89t124 29q91 0 173 -29t144.5 -82.5t99.5 -137t37 -184.5q0 -76 -22 -132t-65.5 -90t-97.5 -52.5t-126 -26.5q-54 -6 -71.5 -31.5t-17.5 -87.5v-296h-72v470q0 51 19.5 66t90.5 15q274 0 274 202q0 93 -58 160.5t-152 67.5q-46 0 -97 -18 q-73 -25 -108 -25q-50 0 -88.5 21.5t-38.5 71.5zM168 104q0 54 37 91t91 37t91 -37t37 -91t-37 -91t-91 -37t-91 37t-37 91z" />
<glyph unicode="@" horiz-adv-x="1920" d="M106 345q0 179 61 338t162.5 274t231.5 199t270 125.5t275 41.5q140 0 258 -35.5t200 -95.5t139 -140t84 -168t27 -180q0 -132 -42 -250t-111.5 -202t-157.5 -146t-181.5 -92t-181.5 -30q-66 0 -109.5 54.5t-46.5 131.5l-10 3q-34 -40 -80 -79t-115.5 -74.5t-130.5 -35.5 q-24 0 -49.5 7t-55 24t-48.5 55.5t-19 92.5q0 107 58 233.5t146 231.5t202 175.5t217 70.5q66 0 100.5 -45t41.5 -118l18 -4l75 155l186 12l-310 -557q-56 -102 -56 -161q0 -33 19.5 -62.5t62.5 -29.5q57 0 119 25t124.5 78t111.5 127t80 182t31 232q0 115 -39 214 t-114 174.5t-193 119t-266 43.5q-111 0 -230 -40.5t-230 -120.5t-200 -187.5t-142.5 -254t-53.5 -306.5q0 -136 32 -248.5t89.5 -192.5t137.5 -135t175 -81.5t202 -26.5q177 0 362.5 73.5t283.5 160.5l36 -57q-117 -99 -315.5 -170t-392.5 -71q-113 0 -219 28.5t-200.5 89 t-165 146.5t-112 209.5t-41.5 269.5zM628 140q0 -92 72 -92q141 0 342 281q58 82 99 177t41 158q0 146 -98 146q-50 0 -105 -37t-95.5 -83.5t-89.5 -114.5q-67 -94 -116.5 -213t-49.5 -222z" />
<glyph unicode="A" horiz-adv-x="1624" d="M88 -2v66h22q75 0 127 48.5t89 145.5l446 1194l164 36l412 -1204q22 -55 35.5 -86t35 -66.5t45 -51.5t52.5 -16h72v-66q-19 0 -125 2t-155 2t-187 -2t-157 -2v66h140q34 0 58 21.5t24 58.5q0 28 -16 72l-108 324h-538l-94 -258q-28 -74 -28 -124q0 -94 186 -94v-66 q-6 0 -108 2t-144 2t-142 -2t-106 -2zM554 616h482l-228 684z" />
<glyph unicode="B" horiz-adv-x="1400" d="M128 -2v66h124q78 0 78 80v1178q0 80 -78 80q-37 0 -124 -6v64q250 20 508 20q136 0 252 -21t172 -55q102 -60 151 -134t49 -168q0 -131 -93.5 -219t-250.5 -119v-4q154 -19 254 -90q71 -51 108.5 -123t37.5 -157q0 -91 -39.5 -167.5t-108.5 -128.5q-59 -45 -149.5 -70.5 t-176.5 -25.5h-126q-4 0 -123 2t-171 2t-171 -2t-123 -2zM514 156q0 -80 78 -80h202q73 0 137.5 24t102.5 76q66 90 66 206q0 172 -108 266q-84 72 -232 72h-246v-564zM514 796h242q67 0 132 27t104 77q36 47 50 94t14 112q0 123 -92 208q-97 90 -302 90q-94 0 -148 -8v-600 z" />
<glyph unicode="C" horiz-adv-x="1468" d="M144 720q0 350 212 568q93 96 216 148t260 52q130 0 240 -42q87 -34 126 -34q27 0 43 18.5t27 57.5h48l68 -340l-58 -28q-93 128 -204.5 200t-257.5 72q-136 0 -242.5 -64.5t-173.5 -183.5q-47 -83 -63.5 -182t-16.5 -226q0 -356 172 -528q70 -70 155.5 -105t166.5 -35 q157 0 272.5 75t207.5 203l46 -36q-77 -147 -215 -242.5t-305 -95.5q-280 0 -468 164q-118 103 -187 256.5t-69 327.5z" />
<glyph unicode="D" horiz-adv-x="1664" d="M128 -2v66h124q78 0 78 80v1176q0 82 -78 82q-56 0 -122 -6l-2 64q233 20 434 20q86 0 147.5 -2t147.5 -12t153 -27.5t141 -50.5t133 -80q128 -100 202 -251t74 -327q0 -184 -65 -330.5t-185 -243.5q-198 -158 -472 -158h-122q-4 0 -123 2t-171 2t-171 -2t-123 -2z M514 156q0 -80 78 -80h244q500 0 500 654q0 154 -45.5 296t-146.5 234q-92 84 -212.5 114t-269.5 30q-78 0 -113 -25.5t-35 -100.5v-1122z" />
<glyph unicode="E" horiz-adv-x="1460" d="M128 -2v66h124q78 0 78 80v1172q0 80 -78 80h-124v66q4 0 123 -2t171 -2t171 2t123 2h512l116 -314l-60 -28q-29 49 -73 103t-95 87q-115 74 -244 74h-280q-78 0 -78 -80v-508h224q91 0 150.5 57.5t67.5 182.5h60v-556h-60q-16 240 -218 240h-224v-564q0 -80 78 -80h364 q75 0 141.5 23t106.5 63q47 48 85 116t59 128l64 -20l-92 -388h-604q-4 0 -123 2t-171 2t-171 -2t-123 -2z" />
<glyph unicode="F" horiz-adv-x="1376" d="M128 -2v66h124q78 0 78 80v1172q0 80 -78 80h-124v66q4 0 123 -2t171 -2t171 2t123 2h512l116 -314l-60 -28q-29 49 -73 103t-95 87q-115 74 -244 74h-280q-78 0 -78 -80v-508h224q91 0 150.5 57.5t67.5 182.5h60v-556h-60q-16 240 -218 240h-224v-576q0 -80 78 -80h124 v-66q-4 0 -123 2t-171 2t-171 -2t-123 -2z" />
<glyph unicode="G" horiz-adv-x="1640" d="M144 720q0 350 212 568q93 96 216 148t260 52q130 0 240 -42q87 -34 126 -34q27 0 43 18.5t27 57.5h48l68 -340l-58 -28q-93 128 -204.5 200t-257.5 72q-136 0 -242.5 -64.5t-173.5 -183.5q-47 -83 -63.5 -182t-16.5 -226q0 -356 172 -528q70 -70 155.5 -105t166.5 -35 q340 0 340 244v216q-4 40 -22 60t-56 20h-124v64h588v-64h-124q-78 0 -78 -80v-548h-64q-7 82 -56 82q-38 0 -128 -38q-126 -52 -270 -52q-280 0 -468 164q-118 103 -187 256.5t-69 327.5z" />
<glyph unicode="H" horiz-adv-x="1676" d="M128 -2v66h124q78 0 78 80v1172q0 80 -78 80h-124v66q4 0 123 -2t171 -2t171 2t123 2v-66h-124q-78 0 -78 -80v-532h688v532q0 80 -78 80h-124v66q4 0 123 -2t171 -2t171 2t123 2v-66h-124q-78 0 -78 -80v-1172q0 -80 78 -80h124v-66q-4 0 -123 2t-171 2t-171 -2t-123 -2 v66h124q78 0 78 80v564h-688v-564q0 -80 78 -80h124v-66q-4 0 -123 2t-171 2t-171 -2t-123 -2z" />
<glyph unicode="I" horiz-adv-x="804" d="M128 -2v66h124q78 0 78 80v1172q0 80 -78 80h-124v66q4 0 123 -2t171 -2t171 2t123 2v-66h-124q-78 0 -78 -80v-1172q0 -80 78 -80h124v-66q-4 0 -123 2t-171 2t-171 -2t-123 -2z" />
<glyph unicode="J" horiz-adv-x="780" d="M-120 -304q0 44 28.5 74t63.5 30q57 0 106 -52q31 -29 53 -40.5t53 -11.5q42 0 75.5 22.5t48.5 63.5q22 60 22 190q0 80 -2 104q-2 22 -2 80v1160q0 80 -78 80h-124v66q4 0 123 -2t171 -2t171 2t123 2v-66h-124q-78 0 -78 -80v-1108q0 -30 -4 -76.5t-14 -118.5t-34 -148 t-58 -131q-127 -206 -316 -206q-91 0 -147.5 46t-56.5 122z" />
<glyph unicode="K" horiz-adv-x="1560" d="M128 -2v66h124q78 0 78 80v1172q0 80 -78 80h-124v66q4 0 123 -2t171 -2t171 2t123 2v-66h-124q-78 0 -78 -80v-594l304 274q55 49 113.5 105.5t122.5 132.5t64 108q0 35 -42 50l-46 4h-38v66q6 0 102 -2t138 -2t138 2t102 2v-66q-74 0 -86 -6q-56 -25 -127 -84.5 t-199 -185.5l-234 -228l464 -712q41 -64 86 -90t128 -26v-66q-12 0 -133 2t-171 2t-171 -2t-133 -2v66h56q62 0 92 15.5t30 40.5q0 23 -16.5 57t-63.5 111l-304 480l-176 -156v-468q0 -80 78 -80h124v-66q-4 0 -123 2t-171 2t-171 -2t-123 -2z" />
<glyph unicode="L" horiz-adv-x="1460" d="M128 -2v66h124q78 0 78 80v1172q0 80 -78 80h-124v66q4 0 123 -2t171 -2t171 2t123 2v-66h-124q-78 0 -78 -80v-1160q0 -80 78 -80h364q75 0 141.5 23t106.5 63q47 48 85 116t59 128l64 -20l-92 -388h-604q-4 0 -123 2t-171 2t-171 -2t-123 -2z" />
<glyph unicode="M" horiz-adv-x="1952" d="M128 -2v66h88q54 0 84 31t30 85v1136q0 80 -78 80h-124v64h426l432 -1130l444 1130h434v-64h-130q-72 0 -72 -80v-1172q0 -80 78 -80h124v-66q-4 0 -123 2t-171 2t-171 -2t-123 -2v66h124q78 0 78 80v1124h-30l-494 -1242h-40l-484 1246h-12v-1092q0 -54 30 -85t84 -31 h88v-66q-2 0 -105 2t-141 2t-141 -2t-105 -2z" />
<glyph unicode="N" horiz-adv-x="1640" d="M128 -2v66h88q54 0 84 31t30 85v1136q0 80 -78 80h-124v64h376l776 -1124v944q0 54 -30 85t-84 31h-88v66q2 0 105 -2t141 -2t141 2t105 2v-66h-88q-54 0 -84 -31t-30 -85v-1304h-74l-876 1256v-1052q0 -54 30 -85t84 -31h88v-66q-2 0 -105 2t-141 2t-141 -2t-105 -2z " />
<glyph unicode="O" horiz-adv-x="1612" d="M144 730q0 189 55 328.5t171 255.5q80 80 200.5 127t255.5 47t255.5 -47t200.5 -127q116 -116 171 -255.5t55 -328.5t-55 -328.5t-171 -255.5q-80 -80 -200.5 -127t-255.5 -47t-255.5 47t-200.5 127q-116 116 -171 255.5t-55 328.5zM368 730q0 -168 30 -317t92 -219 q137 -158 336 -158t336 158q62 70 92 219t30 317t-30 317t-92 219q-137 158 -336 158t-336 -158q-62 -70 -92 -219t-30 -317z" />
<glyph unicode="P" horiz-adv-x="1320" d="M128 -2v66h124q78 0 78 80v1178q0 42 -20 61t-60 19q-53 0 -122 -6v64q168 13 248 16.5t242 3.5q258 0 388 -54q125 -52 189.5 -152t64.5 -204q0 -207 -188 -336q-77 -53 -197.5 -73.5t-230.5 -20.5h-130v-496q0 -80 78 -80h124v-66q-4 0 -123 2t-171 2t-171 -2t-123 -2z M514 716h154q81 0 147 17t122 55t87.5 107.5t31.5 166.5q0 161 -102 253.5t-310 92.5q-85 0 -130 -8v-684z" />
<glyph unicode="Q" horiz-adv-x="1612" d="M144 730q0 189 55 328.5t171 255.5q80 80 200.5 127t255.5 47t255.5 -47t200.5 -127q116 -116 171 -255.5t55 -328.5t-55 -328.5t-171 -255.5q-87 -87 -230 -140q-67 -25 -146.5 -65.5t-127.5 -78.5v-8q42 -24 108 -54q61 -27 93 -39.5t80.5 -23.5t94.5 -11 q195 0 312 202l34 -24q-47 -134 -153 -232t-231 -98q-72 0 -158 25t-162 67q-65 36 -99.5 50t-62.5 14q-39 0 -108 -80q-35 -40 -58 -58t-49 -18q-28 0 -48.5 17t-20.5 47q0 43 29 68.5t91 49.5q147 57 214 100q110 71 179 108l-5 8q-314 0 -488 174q-116 116 -171 255.5 t-55 328.5zM368 730q0 -168 30 -317t92 -219q137 -158 336 -158t336 158q62 70 92 219t30 317t-30 317t-92 219q-137 158 -336 158t-336 -158q-62 -70 -92 -219t-30 -317z" />
<glyph unicode="R" horiz-adv-x="1600" d="M128 -2v66h124q78 0 78 80v1176q0 42 -19.5 62t-70.5 20q-46 0 -112 -6v64q249 20 466 20q190 0 300 -17.5t206 -66.5q96 -50 146 -134t50 -176q0 -86 -47 -162t-141 -130q-104 -60 -230 -80v-12l394 -486q28 -35 51.5 -56t62.5 -46q81 -50 186 -50v-64h-412l-434 656 q-14 22 -31 31t-53 9h-128v-552q0 -80 78 -80h124v-66q-4 0 -123 2t-171 2t-171 -2t-123 -2zM514 772h226q160 0 256 72t96 224q0 95 -43 162t-129 120q-94 58 -282 58q-62 0 -124 -8v-628z" />
<glyph unicode="S" horiz-adv-x="1320" d="M120 410l66 22q70 -103 156 -180q63 -57 100 -86.5t86.5 -58.5t101 -40t116.5 -11q53 0 101 9t92.5 30.5t77 54.5t52 83.5t19.5 114.5q0 44 -12 82t-31 66.5t-50.5 53.5t-62 42t-75.5 34t-79.5 27.5t-85.5 24.5q-80 22 -145 46t-131.5 61.5t-111 81.5t-72.5 106.5 t-28 136.5q0 86 42 159t110 120t152.5 73t171.5 26q92 0 186 -30q112 -36 142 -36q45 0 80 66h54l46 -342l-64 -22q-49 75 -91.5 120t-110.5 86q-65 40 -120 55t-134 15q-132 0 -210 -67t-78 -205q0 -51 24 -94t61 -72t92 -54t105.5 -40t113.5 -28q90 -19 170 -55t148.5 -90 t109 -132t40.5 -169t-30.5 -163.5t-80 -118.5t-116 -76.5t-134.5 -43t-139 -12.5q-73 0 -129.5 12.5t-124.5 47.5q-50 26 -73.5 35t-46.5 9q-25 0 -53.5 -26.5t-50.5 -73.5h-60z" />
<glyph unicode="T" horiz-adv-x="1572" d="M108 1140l70 320h1256l70 -320l-60 -28q-26 52 -66.5 111.5t-79.5 92.5q-96 80 -224 80h-176v-1252q0 -80 78 -80h136v-66q-10 0 -130 2t-176 2t-175.5 -2t-130.5 -2v66h136q78 0 78 80v1252h-176q-128 0 -224 -80q-39 -33 -79.5 -92.5t-66.5 -111.5z" />
<glyph unicode="U" horiz-adv-x="1700" d="M128 1396v66q4 0 123 -2t171 -2t171 2t123 2v-66h-124q-78 0 -78 -80v-900q0 -81 32.5 -161.5t101.5 -130.5q121 -88 270 -88q83 0 161.5 32t138.5 88q62 58 93 141t31 163v856q0 80 -78 80h-124v66q5 0 48.5 -1t101 -2t96.5 -1t96.5 1t101 2t48.5 1v-66h-124 q-78 0 -78 -80v-832q0 -97 -36.5 -203t-113.5 -175q-68 -60 -161 -97t-201 -37q-278 0 -432 132q-74 63 -115 156t-41 196v860q0 80 -78 80h-124z" />
<glyph unicode="V" horiz-adv-x="1640" d="M64 1396v66q18 0 138 -2t174 -2t174 2t138 2v-66h-118q-34 0 -59 -21.5t-25 -58.5q0 -40 14 -72l416 -999l346 933q26 72 26 124q0 94 -184 94v66q7 0 110 -2t140 -2t140 2t110 2v-66h-22q-75 0 -127.5 -48.5t-88.5 -145.5l-454 -1216h-84l-498 1190q-18 43 -29 68 t-29.5 58t-34 50.5t-37 30.5t-44.5 13h-92z" />
<glyph unicode="W" horiz-adv-x="2324" d="M64 1396v66q18 0 138 -2t174 -2t174 2t138 2v-66h-120q-34 0 -56 -19.5t-22 -56.5t12 -76l318 -975l322 859l-16 50q-16 52 -28.5 84.5t-32 66.5t-44.5 50.5t-57 16.5h-84v66q18 0 138 -2t174 -2t174 2t138 2v-66h-128q-35 0 -59.5 -24t-24.5 -70q0 -35 26 -126l298 -908 l342 914q26 68 26 124q0 90 -184 90v66q7 0 107 -2t137 -2t137 2t107 2v-66h-10q-51 0 -83.5 -11t-68 -54t-66.5 -125l-465 -1220h-85l-324 1006l-388 -1006h-84l-384 1194q-69 216 -174 216h-92z" />
<glyph unicode="X" horiz-adv-x="1592" d="M88 -2v66q85 0 159 36t121 98l392 528l-360 550q-32 46 -70 76q-56 44 -116 44h-54v66q16 0 133 -2t181 -2t183 2t135 2v-66h-98q-37 0 -63.5 -22t-26.5 -54q0 -29 18 -54l254 -386l240 322q56 74 56 130q0 21 -12.5 37.5t-37.5 20.5q-27 6 -118 6v66q4 0 108 -2t156 -2 t156 2t108 2v-66q-175 0 -248 -98l-362 -488l406 -618q38 -55 74 -86q30 -23 51.5 -32.5t58.5 -9.5h44v-66q-16 0 -134 2t-182 2t-182 -2t-134 -2v66h108q34 0 60 23.5t26 58.5t-12 52l-298 456l-262 -354q-48 -64 -48 -126q0 -38 25.5 -74t74.5 -36h78v-66q-18 0 -130 2 t-166 2t-164 -2t-128 -2z" />
<glyph unicode="Y" horiz-adv-x="1600" d="M92 1396v66q19 0 141 -2t171 -2t171 2t141 2v-66h-120q-34 0 -60 -21.5t-26 -58.5q0 -40 16 -72l328 -676l350 598q36 62 36 122q0 47 -40 77.5t-132 30.5v66q6 0 108 -2t144 -2t142 2t106 2v-66h-22q-69 0 -119.5 -49t-108.5 -145l-424 -714v-342q0 -80 78 -80h136v-66 q-10 0 -130 2t-176 2t-175.5 -2t-130.5 -2v66h136q78 0 78 80v334l-386 778q-38 75 -71.5 106.5t-84.5 31.5h-76z" />
<glyph unicode="Z" horiz-adv-x="1412" d="M88 0v48l1006 1336h-416q-145 0 -256 -82q-113 -84 -230 -262l-60 28l176 392h1028v-48l-996 -1336h556q138 0 224 86q79 79 132 222l62 -20l-78 -364h-1148z" />
<glyph unicode="[" horiz-adv-x="780" d="M232 -536v1996h452v-56h-212q-54 0 -74 -21t-20 -75v-1688q0 -55 20.5 -77.5t73.5 -22.5h212v-56h-452z" />
<glyph unicode="\" horiz-adv-x="722" d="M88 1460h102l444 -1928h-102z" />
<glyph unicode="]" horiz-adv-x="780" d="M96 -480h212q54 0 74 21t20 75v1688q0 55 -20.5 77.5t-73.5 22.5h-212v56h452v-1996h-452v56z" />
<glyph unicode="^" d="M44 898l492 566h80l492 -562l-44 -46l-488 440l-488 -440z" />
<glyph unicode="_" horiz-adv-x="1024" d="M0 -256h1024v-96h-1024v96z" />
<glyph unicode="`" horiz-adv-x="880" d="M166 1415q0 28 21.5 50.5t56.5 22.5q72 0 118 -124l120 -334l-44 -22l-208 277q-64 86 -64 130z" />
<glyph unicode="a" horiz-adv-x="1030" d="M104 176q0 50 17.5 92.5t45.5 72t69 55t80 41.5t87 31q130 40 254 40v159q0 76 -50 133.5t-120 57.5q-96 0 -138 -53q-28 -35 -40 -98q-5 -27 -24 -47t-54 -20q-38 0 -64 23.5t-26 61.5q0 82 104.5 136.5t237.5 54.5q109 0 193 -49q56 -33 88.5 -88.5t32.5 -124.5v-434 q0 -49 17.5 -85.5t54.5 -36.5q51 0 96 66l33 -18q-83 -162 -208 -162q-42 0 -78 35t-51 75l-12 -4q-45 -37 -131.5 -71.5t-166.5 -34.5q-114 0 -176 46q-71 52 -71 146zM274 186q0 -58 40 -93t102 -35q68 0 124.5 24.5t116.5 68.5v309q-155 -4 -270 -65q-51 -27 -82 -79.5 t-31 -129.5z" />
<glyph unicode="b" horiz-adv-x="1094" d="M22 1346v44l266 88h32v-682l8 -5q68 54 142.5 89.5t137.5 35.5q80 0 152 -24t111 -64q139 -140 139 -337q0 -215 -102 -356q-110 -151 -318 -151q-31 0 -86.5 12.5t-92.5 30.5q-78 39 -97 39q-37 0 -84 -74h-50v1271q0 66 -64 73zM320 135q56 -39 122 -62t116 -23 q61 0 115.5 23.5t86.5 67.5q41 55 60.5 130.5t19.5 146.5q0 61 -2.5 98.5t-18 94.5t-46.5 102q-76 111 -213 111q-117 0 -240 -110v-579z" />
<glyph unicode="c" horiz-adv-x="948" d="M84 436q0 204 131 343q127 137 297 137q122 0 202 -43q63 -34 102.5 -82t39.5 -89q0 -43 -23 -66t-63 -23q-36 0 -61 23t-35 60q-15 62 -35 89q-42 57 -106 57q-129 0 -204 -108t-75 -277q0 -175 80.5 -278t226.5 -103q73 0 141.5 41t108.5 96l37 -37 q-45 -72 -133.5 -132t-182.5 -60q-184 0 -311 113q-137 120 -137 339z" />
<glyph unicode="d" horiz-adv-x="1108" d="M84 409q0 215 102 356q110 151 318 151q52 0 126 -23.5t136 -62.5l8 6v427q0 66 -64 73l-94 10v44l266 88h32v-1329q0 -45 31 -64t103 -19v-58l-274 -16v114l-6 4q-63 -53 -140.5 -89.5t-141.5 -36.5q-80 0 -152 24t-111 64q-139 140 -139 337zM254 482q0 -61 2.5 -98.5 t18 -94.5t46.5 -102q76 -111 213 -111q117 0 240 110v578q-56 39 -121.5 62.5t-116.5 23.5q-61 0 -115.5 -23.5t-86.5 -67.5q-41 -55 -60.5 -130.5t-19.5 -146.5z" />
<glyph unicode="e" horiz-adv-x="954" d="M84 436q0 210 128 341q138 139 300 139q84 0 146 -22.5t116 -79.5q95 -100 112 -286h-628q-4 -31 -4 -71q0 -175 80.5 -278t226.5 -103q73 0 141.5 41t108.5 96l37 -37q-45 -72 -133.5 -132t-182.5 -60q-184 0 -311 113q-137 120 -137 339zM267 586h472 q-6 99 -64.5 177.5t-141.5 78.5q-102 0 -171.5 -69.5t-94.5 -186.5z" />
<glyph unicode="f" horiz-adv-x="716" d="M74 836q0 47 8 64h158v66q0 77 18 167t61 158q57 91 139.5 138t179.5 47q83 0 125.5 -37t42.5 -90q0 -39 -25 -61t-66 -22q-48 0 -92 56q-36 42 -83 42q-79 0 -126 -86q-34 -61 -34 -218v-160h196q0 -47 -8 -64h-188v-728q0 -50 50 -50h108v-60q-3 0 -98.5 2t-129.5 2 t-129.5 -2t-98.5 -2v60h108q50 0 50 50v728h-166z" />
<glyph unicode="g" horiz-adv-x="1220" d="M116 -322q0 65 79.5 128t196.5 102v7q-145 35 -196.5 78t-51.5 103q0 111 194 192q-87 43 -138 116.5t-51 170.5q0 153 119.5 247t285.5 94q190 0 308 -112q124 112 208 112q44 0 75 -34.5t31 -77.5q0 -30 -18.5 -49.5t-45.5 -19.5q-36 0 -63 40q-23 41 -62 41 q-47 0 -98 -41q71 -87 71 -200q0 -102 -58 -179.5t-149 -115.5t-199 -38q-85 0 -172 29q-138 -52 -138 -119q0 -35 31.5 -62.5t90.5 -44.5t109 -26.5t119 -18.5q49 -6 82.5 -11t84 -15.5t85 -22.5t74 -31.5t63 -43t39.5 -57t16 -73.5q0 -57 -30 -103.5t-77 -75t-109.5 -48 t-123 -27.5t-121.5 -8q-88 0 -162 8t-145.5 28t-112.5 60.5t-41 97.5zM286 -287q0 -45 27 -79t71.5 -53.5t96.5 -29t109 -9.5q328 0 328 171q0 23 -9 42t-22.5 33t-40 26t-49 19.5t-64 16t-70 13t-80.5 12.5q-66 10 -110 19q-77 -21 -132 -68.5t-55 -112.5zM299 575 q0 -124 71 -199.5t184 -75.5t184.5 75.5t71.5 199.5t-71.5 203.5t-184.5 79.5q-112 0 -183.5 -79t-71.5 -204z" />
<glyph unicode="h" horiz-adv-x="1154" d="M68 -2v60h108q50 0 50 50v1155q0 66 -64 73l-94 10v44l266 88h32v-716l7 -6q59 59 143.5 109.5t157.5 50.5q117 0 190 -63q88 -82 88 -221v-524q0 -50 50 -50h108v-60q-3 0 -98.5 2t-129.5 2t-129.5 -2t-98.5 -2v60h108q50 0 50 50v499q0 130 -63 177q-29 23 -58 31.5 t-83 8.5q-93 0 -242 -135v-581q0 -50 50 -50h108v-60q-3 0 -98.5 2t-129.5 2t-129.5 -2t-98.5 -2z" />
<glyph unicode="i" horiz-adv-x="584" d="M80 0zM184 1290q0 52 36 88t88 36t88 -36t36 -88t-36 -88t-88 -36t-88 36t-36 88zM80 -2v60h108q50 0 50 50v587q0 66 -64 73l-94 10v44l266 88h32v-802q0 -50 50 -50h108v-60q-3 0 -98.5 2t-129.5 2t-129.5 -2t-98.5 -2z" />
<glyph unicode="j" horiz-adv-x="572" d="M0 0zM-96 -368q0 38 26.5 59.5t67.5 21.5q35 0 81 -42q34 -29 62 -29q35 0 66.5 28t42.5 72q16 64 16 216v737q0 66 -64 73l-94 10v44l266 88h32v-860q0 -82 -25 -197.5t-78 -185.5q-106 -141 -274 -141q-57 0 -91 31t-34 75zM212 1290q0 52 36 88t88 36t88 -36t36 -88 t-36 -88t-88 -36t-88 36t-36 88z" />
<glyph unicode="k" horiz-adv-x="1156" d="M68 -2v60h108q50 0 50 50v1155q0 66 -64 73l-94 10v44l266 88h32v-1047l358 274q42 33 42 73q0 27 -22.5 44.5t-52.5 17.5h-49v61q3 0 47 -1.5t99 -2.5t84 -1t78.5 1t89 2.5t42.5 1.5v-61q-59 -8 -98 -27q-49 -23 -106 -68l-293 -225l338 -362q41 -44 81 -70 q41 -25 100 -30v-60q-3 0 -42.5 1t-89.5 2t-79 1t-83.5 -1t-98 -2t-47.5 -1v60h67q17 0 28.5 9.5t11.5 26.5q0 22 -38 64l-259 279l-108 -83v-246q0 -50 50 -50h108v-60q-3 0 -98.5 2t-129.5 2t-129.5 -2t-98.5 -2z" />
<glyph unicode="l" horiz-adv-x="576" d="M68 -2v60h108q50 0 50 50v1155q0 66 -64 73l-94 10v44l266 88h32v-1370q0 -50 50 -50h108v-60q-3 0 -98.5 2t-129.5 2t-129.5 -2t-98.5 -2z" />
<glyph unicode="m" horiz-adv-x="1726" d="M74 -2v60h108q50 0 50 50v587q0 66 -64 73l-94 10v44l266 88h32v-146l7 -5q168 157 301 157q125 0 183 -61q47 -48 65 -114l9 -4q70 69 157 124t168 55q125 0 183 -61q79 -80 79 -215v-532q0 -50 50 -50h108v-60q-3 0 -98.5 2t-129.5 2t-129.5 -2t-98.5 -2v60h108 q50 0 50 50v499q0 61 -10 103.5t-44 70.5q-28 23 -57 33t-77 10q-100 0 -256 -147q2 -13 2 -37v-532q0 -50 50 -50h108v-60q-3 0 -98.5 2t-129.5 2t-129.5 -2t-98.5 -2v60h108q50 0 50 50v499q0 61 -10 103.5t-44 70.5q-28 23 -57 33t-77 10q-94 0 -242 -134v-582 q0 -50 50 -50h108v-60q-3 0 -98.5 2t-129.5 2t-129.5 -2t-98.5 -2z" />
<glyph unicode="n" horiz-adv-x="1160" d="M74 -2v60h108q50 0 50 50v587q0 66 -64 73l-94 10v44l266 88h32v-148l7 -6q59 59 143.5 109.5t157.5 50.5q117 0 190 -63q88 -82 88 -221v-524q0 -50 50 -50h108v-60q-3 0 -98.5 2t-129.5 2t-129.5 -2t-98.5 -2v60h108q50 0 50 50v499q0 130 -63 177q-29 23 -58 31.5 t-83 8.5q-93 0 -242 -135v-581q0 -50 50 -50h108v-60q-3 0 -98.5 2t-129.5 2t-129.5 -2t-98.5 -2z" />
<glyph unicode="o" horiz-adv-x="1080" d="M84 450q0 200 131 333t325 133t325 -133t131 -333q0 -199 -131 -332.5t-325 -133.5t-325 133.5t-131 332.5zM254 450q0 -168 77.5 -288t208.5 -120t208.5 120t77.5 288t-77.5 288t-208.5 120t-208.5 -120t-77.5 -288z" />
<glyph unicode="p" horiz-adv-x="1112" d="M40 -440h108q50 0 50 50v1085q0 66 -64 73l-94 10v44l266 88h32v-114l8 -5q155 125 280 125q80 0 152 -24t111 -64q139 -140 139 -337q0 -215 -102 -356q-110 -151 -318 -151q-52 0 -125 23t-139 64l-6 -4v-457q0 -50 50 -50h108v-60q-3 0 -98.5 2t-129.5 2t-129.5 -2 t-98.5 -2v60zM338 136q56 -39 121.5 -62.5t116.5 -23.5q61 0 115.5 23.5t86.5 67.5q41 55 60.5 130.5t19.5 146.5q0 61 -2.5 98.5t-18 94.5t-46.5 102q-76 111 -213 111q-117 0 -240 -110v-578z" />
<glyph unicode="q" horiz-adv-x="1084" d="M84 409q0 215 102 356q110 151 318 151q77 0 168 -39q50 -23 72 -23q66 0 97 50h73v-1294q0 -50 50 -50h108v-60q-3 0 -98.5 2t-129.5 2t-129.5 -2t-98.5 -2v60h108q50 0 50 50v490l-10 7q-65 -52 -140 -87.5t-138 -35.5q-80 0 -152 24t-111 64q-139 140 -139 337z M254 482q0 -61 2.5 -98.5t18 -94.5t46.5 -102q76 -111 213 -111q117 0 240 110v578q-56 39 -121.5 62.5t-116.5 23.5q-61 0 -115.5 -23.5t-86.5 -67.5q-41 -55 -60.5 -130.5t-19.5 -146.5z" />
<glyph unicode="r" horiz-adv-x="850" d="M74 -2v60h108q50 0 50 50v587q0 66 -64 73l-94 10v44l266 88h32v-201l10 -6q55 70 118 124q104 89 196 89q48 0 75 -29t27 -66q0 -44 -29 -72t-81 -28q-25 0 -63 20q-28 17 -60 17q-79 0 -193 -131v-519q0 -50 50 -50h108v-60q-3 0 -98.5 2t-129.5 2t-129.5 -2t-98.5 -2z " />
<glyph unicode="s" horiz-adv-x="838" d="M76 221l41 21q46 -76 88 -110q105 -90 220 -90q105 0 157 44.5t52 126.5q0 75 -49 114.5t-172 77.5q-56 17 -91.5 30t-77.5 36.5t-65.5 50t-40 68t-16.5 93.5q0 110 77.5 171.5t188.5 61.5q79 0 122 -21q50 -20 75 -20q44 0 56 41h46l33 -237l-41 -12q-45 78 -87 118 q-80 73 -204 73q-74 0 -124 -36t-50 -97q0 -34 17.5 -63t40 -47.5t64 -37.5t67.5 -28t72 -24q147 -46 219 -107.5t72 -168.5q0 -120 -92 -192.5t-232 -72.5q-76 0 -142 25q-50 21 -83 21q-18 0 -31.5 -12.5t-18.5 -33.5h-46z" />
<glyph unicode="t" horiz-adv-x="740" d="M48 836v64q226 19 226 365h72v-365h276q0 -47 -8 -64h-268v-590q0 -170 128 -170q100 0 165 125l37 -25q-32 -82 -85 -135q-60 -57 -154 -57q-105 0 -168 68.5t-63 171.5v612h-158z" />
<glyph unicode="u" horiz-adv-x="1060" d="M44 834v58l274 16v-617q0 -61 10 -103.5t44 -70.5q28 -23 57 -33t77 -10q89 0 226 120v557q0 45 -31 64t-103 19v58l274 16v-759q0 -45 31 -64t103 -19v-58l-274 -16v130l-6 6q-159 -146 -286 -146q-125 0 -183 61q-79 80 -79 215v493q0 45 -31 64t-103 19z" />
<glyph unicode="v" horiz-adv-x="1072" d="M16 842v60q7 0 89 -2t119 -2t123 2t93 2v-60h-59q-21 0 -40 -11.5t-19 -28.5q0 -32 14 -64l234 -570l212 482q34 79 34 126q0 25 -18 45.5t-46 20.5h-56v60q4 0 74 -2t98 -2t98 2t74 2v-60h-42q-29 0 -54 -28q-28 -34 -51 -85l-331 -737h-60l-305 708q-36 84 -67 109 q-41 33 -114 33z" />
<glyph unicode="w" horiz-adv-x="1494" d="M16 842v60q7 0 87 -2t117 -2t121 2t91 2v-60h-59q-20 0 -35.5 -11.5t-15.5 -28.5q0 -29 13 -64l193 -544l190 475l-11 31q-27 75 -53 100q-44 42 -122 42v60q7 0 89 -2t119 -2t119 2t89 2v-60h-65q-21 0 -37 -11.5t-16 -28.5q0 -32 14 -64l192 -543l193 482q13 32 13 96 q0 28 -22 48.5t-55 20.5h-47v60q4 0 74 -2t98 -2t98 2t74 2v-60h-32q-39 0 -64 -28q-30 -34 -51 -85l-297 -737h-60l-209 591l-239 -591h-60l-251 708q-26 74 -69 109q-41 33 -114 33z" />
<glyph unicode="x" horiz-adv-x="1212" d="M68 -2v60q54 8 97 33q72 42 133 101l253 239l-210 241q-79 91 -126 123q-56 39 -117 47v60q12 0 99.5 -2t123.5 -2t123.5 2t99.5 2v-60h-43q-21 0 -38 -15.5t-17 -33.5q0 -44 35 -82l166 -190l176 166q40 37 40 75q0 39 -39 62q-30 18 -72 18v60q4 0 88 -2t112 -2t112 2 t88 2v-60q-67 -16 -112 -45q-60 -38 -117 -92l-237 -230l263 -301q37 -43 79 -72q54 -38 116 -44v-60q-12 0 -99.5 2t-123.5 2t-123.5 -2t-99.5 -2v60h53q23 0 37 12t14 31q0 43 -32 79l-178 204l-201 -195q-35 -35 -35 -70q0 -25 19 -43t45 -18h61v-60q-14 0 -97 2t-109 2 t-109.5 -2t-97.5 -2z" />
<glyph unicode="y" horiz-adv-x="1102" d="M8 -406q0 47 30 73t69 26q34 0 67 -20q33 -19 61 -19q39 0 80 43t75 110l106 213l-291 680q-37 85 -67 109q-41 33 -114 33v60q7 0 89 -2t119 -2t123 2t93 2v-60h-59q-21 0 -40 -11.5t-19 -28.5q0 -32 14 -64l232 -564l231 475q39 80 39 121q0 28 -19 50t-48 22h-54v60 q4 0 77.5 -2t101.5 -2t99 2t75 2v-60h-40q-30 0 -55 -28q-32 -38 -54 -85l-476 -965q-63 -127 -133 -195q-87 -85 -188 -85q-52 0 -88 28.5t-36 81.5z" />
<glyph unicode="z" horiz-adv-x="906" d="M72 0v40l574 802h-190q-97 0 -184 -79q-69 -62 -126 -154l-49 21l116 270h619v-40l-575 -802h280q103 0 168 77q38 45 85 135l48 -11l-54 -259h-712z" />
<glyph unicode="{" horiz-adv-x="780" d="M182 442v44q233 0 233 223q0 75 -38 225q-41 164 -41 251q0 133 93.5 208.5t252.5 94.5l10 -54q-110 -19 -167 -56t-57 -115q0 -91 38 -236q41 -156 41 -235q0 -143 -63 -223t-164 -103v-4q101 -23 164 -103.5t63 -223.5q0 -79 -41 -235q-38 -145 -38 -236 q0 -78 56.5 -114.5t167.5 -55.5l-10 -54q-159 19 -252.5 94.5t-93.5 208.5q0 87 41 251q38 150 38 225q0 223 -233 223z" />
<glyph unicode="|" horiz-adv-x="512" d="M202 -468v1928h108v-1928h-108z" />
<glyph unicode="}" horiz-adv-x="780" d="M88 -506q110 19 167 56t57 115q0 91 -38 236q-41 156 -41 235q0 143 63 223t164 103v4q-101 23 -164 103.5t-63 223.5q0 79 41 235q38 145 38 236q0 78 -56.5 114.5t-167.5 55.5l10 54q159 -19 252.5 -94.5t93.5 -208.5q0 -87 -41 -251q-38 -150 -38 -225 q0 -223 233 -223v-44q-233 0 -233 -223q0 -75 38 -225q41 -164 41 -251q0 -133 -93.5 -208.5t-252.5 -94.5z" />
<glyph unicode="~" d="M112 454q130 208 308 208q40 0 80.5 -11t64.5 -22.5t63 -32.5q36 -19 57 -29t54 -19.5t63 -9.5q69 0 112 31.5t90 96.5l36 -28q-130 -208 -308 -208q-56 0 -103 17t-105 49q-106 58 -174 58q-69 0 -112 -31.5t-90 -96.5z" />
<glyph unicode="&#xa1;" horiz-adv-x="528" d="M136 824q0 54 37 91t91 37t91 -37t37 -91t-37 -91t-91 -37t-91 37t-37 91zM146 -385q0 90 30 256q22 119 36 256l24 405h56l24 -405q14 -139 36 -257q30 -166 30 -255q0 -27 -5.5 -54.5t-17.5 -56t-36.5 -46.5t-58.5 -18t-58.5 18t-36.5 46.5t-17.5 56t-5.5 54.5z" />
<glyph unicode="&#xa2;" d="M176 436q0 204 131 343q127 137 297 137q58 0 99 -8l191 554h70l-197 -571q76 -29 128.5 -85t52.5 -104q0 -43 -23 -66t-63 -23q-36 0 -61 23t-35 60q-16 62 -36 90l-231 -671q67 -39 154 -39q73 0 141.5 41t108.5 96l37 -37q-45 -72 -133.5 -132t-182.5 -60 q-88 0 -162 26l-196 -568h-70l205 594q-47 24 -88 61q-137 120 -137 339zM346 457q0 -195 98 -298l232 672q-24 11 -51 11q-129 0 -204 -108t-75 -277z" />
<glyph unicode="&#xa3;" horiz-adv-x="1538" d="M80 150q0 83 71 137.5t162 54.5q61 0 124.5 -13t103.5 -26.5t111 -40.5q26 63 26 122q0 74 -12.5 132.5t-44.5 147.5h-409v80h378q-41 104 -59.5 176t-18.5 160q0 103 60 197.5t162 152.5t216 58q94 0 174.5 -26.5t130.5 -67.5t78 -88t28 -92t-31.5 -77t-72.5 -32 q-43 0 -72 25.5t-41 59.5q-13 37 -19 101q-5 53 -46 93t-123 40q-109 0 -190.5 -84.5t-81.5 -197.5q0 -81 11 -146.5t36 -161.5q13 -46 22 -90h403v-80h-387q13 -85 13 -198q0 -122 -60 -231q207 -81 364 -81q65 0 119.5 12.5t100.5 39t74.5 49t71.5 61.5l38 -32 q-33 -63 -73.5 -116t-93.5 -98.5t-119.5 -71.5t-139.5 -26q-105 0 -196.5 43t-209.5 127q-69 -79 -164 -124.5t-201 -45.5q-91 0 -152 47.5t-61 130.5zM152 160q0 -61 47.5 -96.5t111.5 -35.5q81 0 159.5 42t132.5 111q-79 56 -141 80.5t-148 24.5q-64 0 -113 -33.5 t-49 -92.5z" />
<glyph unicode="&#xa4;" d="M134 139l121 120q-83 109 -83 253q0 145 84 253l-122 122l68 69l122 -123q106 83 252 83q144 0 253 -83l121 123l68 -70l-121 -121q83 -106 83 -253q0 -146 -83 -252l121 -121l-68 -69l-121 122q-108 -84 -253 -84q-147 0 -253 83l-120 -121zM260 512q0 -138 89 -227 t227 -89t227 89t89 227t-89 227t-227 89t-227 -89t-89 -227z" />
<glyph unicode="&#xa5;" d="M18 1402v60q2 0 85.5 -2t121.5 -2t125.5 2t89.5 2v-60h-64q-20 0 -36.5 -13.5t-16.5 -31.5q0 -29 14 -59l267 -547l243 479q31 62 31 106q0 28 -18.5 47t-47.5 19h-54v60q4 0 82 -2t106 -2t105 2t81 2v-60h-45q-14 0 -35.5 -7.5t-35.5 -21.5q-31 -31 -59 -84l-237 -449 h252v-96h-303l-27 -51v-141h330v-96h-330v-346q0 -50 50 -50h108v-60q-3 0 -98.5 2t-129.5 2t-129.5 -2t-98.5 -2v60h108q50 0 50 50v346h-336v96h336v95l-48 97h-288v96h240l-208 420q-37 75 -71 107q-24 23 -47.5 29t-61.5 6z" />
<glyph unicode="&#xa6;" horiz-adv-x="512" d="M202 300h108v-768h-108v768zM202 692v768h108v-768h-108z" />
<glyph unicode="&#xa7;" horiz-adv-x="1180" d="M134 612q0 91 86.5 159t203.5 100l-84 77q-132 118 -132 264q0 130 97.5 203t230.5 73q77 0 140 -26t101 -67t58.5 -88.5t20.5 -94.5t-24.5 -84.5t-77.5 -37.5q-40 0 -68 25t-28 68q0 25 18 67q12 30 12 52q0 49 -43 85.5t-131 36.5q-83 0 -133.5 -45.5t-50.5 -112.5 q0 -35 9.5 -64.5t32 -59t42.5 -49.5t58 -55l324 -297q128 -117 128 -297q0 -91 -86.5 -159t-203.5 -100l84 -77q132 -118 132 -264q0 -130 -97.5 -203t-230.5 -73q-77 0 -140 26t-101 67t-58.5 88.5t-20.5 94.5t24.5 84.5t77.5 37.5q40 0 68 -25t28 -68q0 -25 -18 -67 q-12 -30 -12 -52q0 -49 43 -85.5t131 -36.5q83 0 133.5 45.5t50.5 112.5q0 35 -9.5 64.5t-32 59t-42.5 49.5t-58 55l-324 297q-128 117 -128 297zM242 639q0 -58 20 -96.5t66 -80.5l177 -162q19 -17 48 -26.5t48 -9.5q215 0 215 153q0 58 -20 96.5t-66 80.5l-174 158 q-23 20 -51.5 30t-47.5 10q-215 0 -215 -153z" />
<glyph unicode="&#xa8;" horiz-adv-x="880" d="M140 1208q0 42 27 69t69 27t69 -27t27 -69t-27 -69t-69 -27t-69 27t-27 69zM548 1208q0 42 27 69t69 27t69 -27t27 -69t-27 -69t-69 -27t-69 27t-27 69z" />
<glyph unicode="&#xa9;" horiz-adv-x="1636" d="M60 730q0 160 58 300.5t158.5 241t241 158.5t300.5 58t300.5 -58t241 -158.5t158.5 -241t58 -300.5t-58 -300.5t-158.5 -241t-241 -158.5t-300.5 -58t-300.5 58t-241 158.5t-158.5 241t-58 300.5zM132 730q0 -190 90.5 -349.5t248 -252t347.5 -92.5t347.5 92.5t248 252 t90.5 349.5t-90.5 349.5t-248 252t-347.5 92.5t-347.5 -92.5t-248 -252t-90.5 -349.5zM372 732q0 108 39 199.5t103 151t144 92.5t165 33q79 0 146 -29q56 -24 80 -24q29 0 41 53h40l47 -240l-46 -17q-133 187 -292 187q-122 0 -209.5 -107.5t-87.5 -296.5 q0 -94 19.5 -165.5t49 -113.5t70.5 -68.5t78.5 -35.5t78.5 -9q96 0 173.5 49t126.5 119l30 -24q-50 -88 -146 -152t-198 -64q-108 0 -196 41t-142.5 107.5t-84 147.5t-29.5 166z" />
<glyph unicode="&#xaa;" horiz-adv-x="780" d="M128 1012q0 118 197 170q85 22 164 22v82q0 42 -30.5 69t-77.5 27q-66 0 -91 -28q-17 -17 -27 -55q-10 -42 -51 -42q-25 0 -40.5 14t-15.5 36q0 47 68.5 83t153.5 36q71 0 128 -28q79 -40 79 -119v-235q0 -28 11.5 -48t36.5 -20q31 0 63 43l20 -14q-25 -47 -54 -74 t-77 -27q-32 0 -57.5 21t-35.5 49h-8q-31 -25 -86 -47.5t-107 -22.5q-74 0 -116 26q-47 30 -47 82zM240 1024q0 -33 26.5 -52.5t67.5 -19.5q72 0 155 55v165q-102 -4 -174 -37q-75 -32 -75 -111z" />
<glyph unicode="&#xab;" horiz-adv-x="942" d="M182 44zM478 420l334 376l34 -26l-216 -350l216 -350l-34 -26zM182 420l334 376l34 -26l-216 -350l216 -350l-34 -26z" />
<glyph unicode="&#xac;" d="M62 650v96h1028v-472h-112v376h-916z" />
<glyph unicode="&#xad;" horiz-adv-x="900" d="M136 358zM136 358v132h628v-132h-628z" />
<glyph unicode="&#xae;" horiz-adv-x="1636" d="M60 730q0 160 58 300.5t158.5 241t241 158.5t300.5 58t300.5 -58t241 -158.5t158.5 -241t58 -300.5t-58 -300.5t-158.5 -241t-241 -158.5t-300.5 -58t-300.5 58t-241 158.5t-158.5 241t-58 300.5zM132 730q0 -190 90.5 -349.5t248 -252t347.5 -92.5t347.5 92.5t248 252 t90.5 349.5t-90.5 349.5t-248 252t-347.5 92.5t-347.5 -92.5t-248 -252t-90.5 -349.5zM362 284v60h108q50 0 50 50v666q0 38 -17.5 55t-57.5 17q-46 0 -83 -4v60q202 16 341 16q118 0 186.5 -10.5t128.5 -41.5t91 -83t31 -109q0 -114 -114 -185q-62 -38 -144 -54v-6 l228 -274q34 -41 68 -64q48 -33 110 -33v-58h-248l-262 397q-9 13 -19.5 18.5t-32.5 5.5h-66v-313q0 -50 50 -50h108v-60q-3 0 -98.5 2t-129.5 2t-129.5 -2t-98.5 -2zM660 763h127q98 0 155.5 45.5t57.5 140.5q0 105 -93 159q-56 32 -162 32q-39 0 -85 -5v-372z" />
<glyph unicode="&#xaf;" horiz-adv-x="880" d="M146 1134v88h588v-88h-588z" />
<glyph unicode="&#xb0;" d="M200 1118q0 162 107 268t269 106t269 -106t107 -268t-107 -268t-269 -106t-269 106t-107 268zM280 1118q0 -126 85 -210t211 -84t211 84t85 210t-85 210t-211 84t-211 -84t-85 -210z" />
<glyph unicode="&#xb1;" d="M62 0zM62 -97v96h1028v-96h-1028zM62 562v96h460v466h108v-466h460v-96h-460v-466h-108v466h-460z" />
<glyph unicode="&#xb2;" horiz-adv-x="660" d="M36 656v34q42 74 118.5 161.5t165.5 159.5q63 52 95.5 86.5t50.5 76.5t18 97q0 65 -44 111t-121 46q-76 0 -111.5 -25t-35.5 -63q0 -17 21 -32q35 -27 35 -58q0 -24 -18 -42t-49 -18q-39 0 -64 24.5t-25 66.5q0 78 80 134.5t199 56.5q124 0 192.5 -58.5t68.5 -137.5 q0 -37 -16 -71.5t-49.5 -68t-61 -55t-74.5 -55.5q-106 -74 -168 -132t-110 -130h354q46 0 59 33l26 63l44 -10l-60 -194h-520z" />
<glyph unicode="&#xb3;" horiz-adv-x="660" d="M52 800q0 24 18 43.5t44 19.5q59 0 68 -75q6 -49 31.5 -74.5t87.5 -25.5q84 0 127.5 56t43.5 140q0 73 -38 125.5t-116 52.5q-24 0 -48 -3q-26 -3 -48 -3q-11 0 -21 8.5t-10 23.5t10 23.5t21 8.5q23 0 47 -3q26 -3 49 -3q66 0 102 43.5t36 116.5q0 72 -37.5 113 t-113.5 41q-49 0 -82 -15t-33 -43q0 -16 9 -28q12 -19 12 -35q0 -21 -15.5 -36t-44.5 -15t-53 20t-24 49q0 70 69 108.5t167 38.5q117 0 195.5 -56.5t78.5 -143.5q0 -132 -181 -178v-7q89 -21 143 -76.5t54 -130.5q0 -108 -82.5 -172t-220.5 -64q-105 0 -175 44t-70 112z " />
<glyph unicode="&#xb4;" horiz-adv-x="880" d="M398 1030l120 334q46 124 118 124q35 0 56.5 -22.5t21.5 -50.5q0 -44 -64 -130l-208 -277z" />
<glyph unicode="&#xb5;" horiz-adv-x="1218" d="M0 0zM-16 -433q0 105 148 655q15 86 25.5 143.5t23.5 123.5t23 107.5t23 85.5t25 70t26.5 48t31 31t34.5 9q30 0 44 -21t14 -49q0 -61 -82 -256q-73 -173 -104 -273q13 -65 70 -103t118 -38q99 0 171 110q22 34 52 107t42 112l114 395q39 10 82 10q42 0 76 -19l-101 -344 q-9 -28 -16 -74.5t-7 -66.5q0 -84 34 -142t77 -58q86 0 152 109q12 20 18 29.5t14.5 21t15 16t12.5 4.5q30 0 30 -42q0 -27 -19.5 -74t-50 -94t-75 -81.5t-88.5 -34.5q-41 0 -73.5 25.5t-51.5 68t-30 84t-16 87.5l-16 7q-17 -41 -44.5 -85t-66 -87.5t-89.5 -71.5t-103 -28 q-51 0 -96 19t-75.5 49t-49 55.5t-29.5 48.5l-14 -3q-23 -189 -23 -483q0 -219 -89 -219q-37 0 -62 29t-25 87z" />
<glyph unicode="&#xb6;" horiz-adv-x="1188" d="M142 1080q0 96 48.5 183t135 142t188.5 55h586v-64h-228v-1864h-88v1864h-238v-1864h-88v1168q-139 18 -227.5 126t-88.5 254z" />
<glyph unicode="&#xb7;" horiz-adv-x="352" d="M48 468zM48 596q0 54 37 91t91 37t91 -37t37 -91t-37 -91t-91 -37t-91 37t-37 91z" />
<glyph unicode="&#xb8;" horiz-adv-x="880" d="M244 -438l20 38q79 -44 170 -44q43 0 71.5 18t28.5 55q0 27 -23 47t-75 43q-74 35 -74 73q0 33 28 75l108 160l42 -27l-61 -91q-21 -34 -21 -50q0 -33 59 -65t90 -61.5t31 -69.5q0 -71 -58.5 -113t-144.5 -42q-102 0 -191 54z" />
<glyph unicode="&#xb9;" horiz-adv-x="660" d="M112 1257l224 223h73v-743q0 -41 11 -81h-131q12 38 12 80v607q0 16 -12 16q-10 0 -32 -20l-114 -113z" />
<glyph unicode="&#xba;" horiz-adv-x="780" d="M122 1165q0 117 78 189t190 72t190 -72t78 -189t-78 -189t-190 -72t-190 72t-78 189zM234 1165q0 -96 38.5 -156.5t117.5 -60.5t117.5 60.5t38.5 156.5t-38.5 156.5t-117.5 60.5t-117.5 -60.5t-38.5 -156.5z" />
<glyph unicode="&#xbb;" horiz-adv-x="942" d="M104 44zM104 70l216 350l-216 350l34 26l334 -376l-334 -376zM400 70l216 350l-216 350l34 26l334 -376l-334 -376z" />
<glyph unicode="&#xbc;" horiz-adv-x="1540" d="M112 0zM112 1257l224 223h73v-743q0 -41 11 -81h-131q12 38 12 80v607q0 16 -12 16q-10 0 -32 -20l-114 -113zM902 244v47l411 533h47v-496h79q45 0 81 11v-105q-38 10 -81 10h-79v-166q0 -43 11 -78h-131q12 38 12 78v166h-350zM983 328h269v349zM278 -16l896 1492h88 l-898 -1492h-86z" />
<glyph unicode="&#xbd;" horiz-adv-x="1540" d="M112 0zM278 -16l896 1492h88l-898 -1492h-86zM112 1257l224 223h73v-743q0 -41 11 -81h-131q12 38 12 80v607q0 16 -12 16q-10 0 -32 -20l-114 -113zM916 0v34q42 74 118.5 161.5t165.5 159.5q63 52 95.5 86.5t50.5 76.5t18 97q0 65 -44 111t-121 46q-76 0 -111.5 -25 t-35.5 -63q0 -17 21 -32q35 -27 35 -58q0 -24 -18 -42t-49 -18q-39 0 -64 24.5t-25 66.5q0 78 80 134.5t199 56.5q124 0 192.5 -58.5t68.5 -137.5q0 -37 -16 -71.5t-49.5 -68t-61 -55t-74.5 -55.5q-106 -74 -168 -132t-110 -130h354q46 0 59 33l26 63l44 -10l-60 -194h-520z " />
<glyph unicode="&#xbe;" horiz-adv-x="1540" d="M52 0zM278 -16l896 1492h88l-898 -1492h-86zM52 800q0 24 18 43.5t44 19.5q59 0 68 -75q6 -49 31.5 -74.5t87.5 -25.5q84 0 127.5 56t43.5 140q0 73 -38 125.5t-116 52.5q-24 0 -48 -3q-26 -3 -48 -3q-11 0 -21 8.5t-10 23.5t10 23.5t21 8.5q23 0 47 -3q26 -3 49 -3 q66 0 102 43.5t36 116.5q0 72 -37.5 113t-113.5 41q-49 0 -82 -15t-33 -43q0 -16 9 -28q12 -19 12 -35q0 -21 -15.5 -36t-44.5 -15t-53 20t-24 49q0 70 69 108.5t167 38.5q117 0 195.5 -56.5t78.5 -143.5q0 -132 -181 -178v-7q89 -21 143 -76.5t54 -130.5q0 -108 -82.5 -172 t-220.5 -64q-105 0 -175 44t-70 112zM902 244v47l411 533h47v-496h79q45 0 81 11v-105q-38 10 -81 10h-79v-166q0 -43 11 -78h-131q12 38 12 78v166h-350zM983 328h269v349z" />
<glyph unicode="&#xbf;" horiz-adv-x="852" d="M112 -127q0 76 22 132t65.5 90t97.5 52.5t126 26.5q54 6 71.5 31.5t17.5 87.5v296h72v-470q0 -51 -19.5 -66t-90.5 -15q-274 0 -274 -202q0 -93 58 -160.5t152 -67.5q46 0 97 18q73 25 108 25q50 0 88.5 -21.5t38.5 -71.5q0 -60 -52 -89t-124 -29q-91 0 -173 29 t-144.5 82.5t-99.5 137t-37 184.5zM428 824q0 54 37 91t91 37t91 -37t37 -91t-37 -91t-91 -37t-91 37t-37 91z" />
<glyph unicode="&#xc0;" horiz-adv-x="1624" d="M88 0zM552 1842q0 26 17.5 48t44.5 22q61 0 130 -64l256 -239l-22 -29l-314 148q-112 53 -112 114zM88 -2v66h22q75 0 127 48.5t89 145.5l446 1194l164 36l412 -1204q22 -55 35.5 -86t35 -66.5t45 -51.5t52.5 -16h72v-66q-19 0 -125 2t-155 2t-187 -2t-157 -2v66h140 q34 0 58 21.5t24 58.5q0 28 -16 72l-108 324h-538l-94 -258q-28 -74 -28 -124q0 -94 186 -94v-66q-6 0 -108 2t-144 2t-142 -2t-106 -2zM554 616h482l-228 684z" />
<glyph unicode="&#xc1;" horiz-adv-x="1624" d="M88 0zM700 1609l256 239q69 64 130 64q27 0 44.5 -22t17.5 -48q0 -61 -112 -114l-314 -148zM88 -2v66h22q75 0 127 48.5t89 145.5l446 1194l164 36l412 -1204q22 -55 35.5 -86t35 -66.5t45 -51.5t52.5 -16h72v-66q-19 0 -125 2t-155 2t-187 -2t-157 -2v66h140 q34 0 58 21.5t24 58.5q0 28 -16 72l-108 324h-538l-94 -258q-28 -74 -28 -124q0 -94 186 -94v-66q-6 0 -108 2t-144 2t-142 -2t-106 -2zM554 616h482l-228 684z" />
<glyph unicode="&#xc2;" horiz-adv-x="1624" d="M88 0zM494 1614q224 168 324 298h64q100 -130 324 -298l-22 -34l-334 188l-334 -188zM88 -2v66h22q75 0 127 48.5t89 145.5l446 1194l164 36l412 -1204q22 -55 35.5 -86t35 -66.5t45 -51.5t52.5 -16h72v-66q-19 0 -125 2t-155 2t-187 -2t-157 -2v66h140q34 0 58 21.5 t24 58.5q0 28 -16 72l-108 324h-538l-94 -258q-28 -74 -28 -124q0 -94 186 -94v-66q-6 0 -108 2t-144 2t-142 -2t-106 -2zM554 616h482l-228 684z" />
<glyph unicode="&#xc3;" horiz-adv-x="1624" d="M88 0zM434 1667q44 74 108 124.5t144 50.5q95 0 202 -47q38 -16 60 -24.5t60 -16.5t77 -8q29 0 56.5 17.5t42.5 35t36 48.5l46 -22q-44 -74 -108 -124.5t-144 -50.5q-98 0 -203 48q-106 48 -196 48q-29 0 -56.5 -17.5t-42.5 -35t-36 -48.5zM88 -2v66h22q75 0 127 48.5 t89 145.5l446 1194l164 36l412 -1204q22 -55 35.5 -86t35 -66.5t45 -51.5t52.5 -16h72v-66q-19 0 -125 2t-155 2t-187 -2t-157 -2v66h140q34 0 58 21.5t24 58.5q0 28 -16 72l-108 324h-538l-94 -258q-28 -74 -28 -124q0 -94 186 -94v-66q-6 0 -108 2t-144 2t-142 -2t-106 -2 zM554 616h482l-228 684z" />
<glyph unicode="&#xc4;" horiz-adv-x="1624" d="M88 0zM514 1746q0 36 25.5 60t61.5 24t61.5 -24t25.5 -60t-25.5 -63t-61.5 -27t-61.5 27t-25.5 63zM1012 1746q0 36 25.5 60t61.5 24t61.5 -24t25.5 -60t-25.5 -63t-61.5 -27t-61.5 27t-25.5 63zM88 -2v66h22q75 0 127 48.5t89 145.5l446 1194l164 36l412 -1204 q22 -55 35.5 -86t35 -66.5t45 -51.5t52.5 -16h72v-66q-19 0 -125 2t-155 2t-187 -2t-157 -2v66h140q34 0 58 21.5t24 58.5q0 28 -16 72l-108 324h-538l-94 -258q-28 -74 -28 -124q0 -94 186 -94v-66q-6 0 -108 2t-144 2t-142 -2t-106 -2zM554 616h482l-228 684z" />
<glyph unicode="&#xc5;" horiz-adv-x="1624" d="M88 0zM584 1762q0 90 75 146t191 56t191 -56t75 -146t-75 -146t-191 -56t-191 56t-75 146zM648 1762q0 -61 54 -99.5t148 -38.5t148 38.5t54 99.5t-54 99.5t-148 38.5t-148 -38.5t-54 -99.5zM88 -2v66h22q75 0 127 48.5t89 145.5l446 1194l164 36l412 -1204 q22 -55 35.5 -86t35 -66.5t45 -51.5t52.5 -16h72v-66q-19 0 -125 2t-155 2t-187 -2t-157 -2v66h140q34 0 58 21.5t24 58.5q0 28 -16 72l-108 324h-538l-94 -258q-28 -74 -28 -124q0 -94 186 -94v-66q-6 0 -108 2t-144 2t-142 -2t-106 -2zM554 616h482l-228 684z" />
<glyph unicode="&#xc6;" horiz-adv-x="2338" d="M86 0v66q81 0 160.5 39.5t121.5 102.5l636 954q30 44 43.5 77t13.5 75q0 33 -25 57.5t-76 24.5h-114v66h160q19 0 132 -2t162 -2t162 2t132 2h512l116 -314l-60 -28q-29 49 -73 103t-95 87q-115 74 -244 74h-280q-78 0 -78 -80v-508h224q91 0 150.5 57.5t67.5 182.5h60 v-556h-60q-16 240 -218 240h-224v-564q0 -80 78 -80h364q75 0 141.5 23t106.5 63q47 48 85 116t59 128l64 -20l-92 -388h-604q-4 0 -123 2t-171 2t-171 -2t-123 -2v66h124q78 0 78 80v488h-454l-216 -330q-52 -80 -52 -126q0 -37 27.5 -73.5t76.5 -36.5h78v-66q-3 0 -121 2 t-175 2t-170 -2t-116 -2zM806 708h402v603z" />
<glyph unicode="&#xc7;" horiz-adv-x="1468" d="M144 720q0 350 212 568q93 96 216 148t260 52q130 0 240 -42q87 -34 126 -34q27 0 43 18.5t27 57.5h48l68 -340l-58 -28q-93 128 -204.5 200t-257.5 72q-136 0 -242.5 -64.5t-173.5 -183.5q-47 -83 -63.5 -182t-16.5 -226q0 -356 172 -528q70 -70 155.5 -105t166.5 -35 q157 0 272.5 75t207.5 203l46 -36q-64 -124 -175.5 -214t-248.5 -115l-56 -93q-19 -30 -19 -52q0 -16 17 -30t59 -37q67 -37 95 -72t28 -84q0 -54 -38.5 -92.5t-92 -54.5t-112.5 -16q-85 0 -191 56l20 40q94 -48 170 -48q44 0 80 20.5t36 57.5q0 34 -27 57.5t-80 49.5 q-80 38 -80 77q0 30 44 99l72 113h-21q-280 0 -468 164q-118 103 -187 256.5t-69 327.5z" />
<glyph unicode="&#xc8;" horiz-adv-x="1460" d="M128 0zM438 1842q0 26 17.5 48t44.5 22q61 0 130 -64l256 -239l-22 -29l-314 148q-112 53 -112 114zM128 -2v66h124q78 0 78 80v1172q0 80 -78 80h-124v66q4 0 123 -2t171 -2t171 2t123 2h512l116 -314l-60 -28q-29 49 -73 103t-95 87q-115 74 -244 74h-280 q-78 0 -78 -80v-508h224q91 0 150.5 57.5t67.5 182.5h60v-556h-60q-16 240 -218 240h-224v-564q0 -80 78 -80h364q75 0 141.5 23t106.5 63q47 48 85 116t59 128l64 -20l-92 -388h-604q-4 0 -123 2t-171 2t-171 -2t-123 -2z" />
<glyph unicode="&#xc9;" horiz-adv-x="1460" d="M128 0zM586 1609l256 239q69 64 130 64q27 0 44.5 -22t17.5 -48q0 -61 -112 -114l-314 -148zM128 -2v66h124q78 0 78 80v1172q0 80 -78 80h-124v66q4 0 123 -2t171 -2t171 2t123 2h512l116 -314l-60 -28q-29 49 -73 103t-95 87q-115 74 -244 74h-280q-78 0 -78 -80v-508 h224q91 0 150.5 57.5t67.5 182.5h60v-556h-60q-16 240 -218 240h-224v-564q0 -80 78 -80h364q75 0 141.5 23t106.5 63q47 48 85 116t59 128l64 -20l-92 -388h-604q-4 0 -123 2t-171 2t-171 -2t-123 -2z" />
<glyph unicode="&#xca;" horiz-adv-x="1460" d="M128 0zM380 1614q224 168 324 298h64q100 -130 324 -298l-22 -34l-334 188l-334 -188zM128 -2v66h124q78 0 78 80v1172q0 80 -78 80h-124v66q4 0 123 -2t171 -2t171 2t123 2h512l116 -314l-60 -28q-29 49 -73 103t-95 87q-115 74 -244 74h-280q-78 0 -78 -80v-508h224 q91 0 150.5 57.5t67.5 182.5h60v-556h-60q-16 240 -218 240h-224v-564q0 -80 78 -80h364q75 0 141.5 23t106.5 63q47 48 85 116t59 128l64 -20l-92 -388h-604q-4 0 -123 2t-171 2t-171 -2t-123 -2z" />
<glyph unicode="&#xcb;" horiz-adv-x="1460" d="M128 0zM400 1746q0 36 25.5 60t61.5 24t61.5 -24t25.5 -60t-25.5 -63t-61.5 -27t-61.5 27t-25.5 63zM898 1746q0 36 25.5 60t61.5 24t61.5 -24t25.5 -60t-25.5 -63t-61.5 -27t-61.5 27t-25.5 63zM128 -2v66h124q78 0 78 80v1172q0 80 -78 80h-124v66q4 0 123 -2t171 -2 t171 2t123 2h512l116 -314l-60 -28q-29 49 -73 103t-95 87q-115 74 -244 74h-280q-78 0 -78 -80v-508h224q91 0 150.5 57.5t67.5 182.5h60v-556h-60q-16 240 -218 240h-224v-564q0 -80 78 -80h364q75 0 141.5 23t106.5 63q47 48 85 116t59 128l64 -20l-92 -388h-604 q-4 0 -123 2t-171 2t-171 -2t-123 -2z" />
<glyph unicode="&#xcc;" horiz-adv-x="804" d="M124 0zM124 1842q0 26 17.5 48t44.5 22q61 0 130 -64l256 -239l-22 -29l-314 148q-112 53 -112 114zM128 -2v66h124q78 0 78 80v1172q0 80 -78 80h-124v66q4 0 123 -2t171 -2t171 2t123 2v-66h-124q-78 0 -78 -80v-1172q0 -80 78 -80h124v-66q-4 0 -123 2t-171 2t-171 -2 t-123 -2z" />
<glyph unicode="&#xcd;" horiz-adv-x="804" d="M128 0zM272 1609l256 239q69 64 130 64q27 0 44.5 -22t17.5 -48q0 -61 -112 -114l-314 -148zM128 -2v66h124q78 0 78 80v1172q0 80 -78 80h-124v66q4 0 123 -2t171 -2t171 2t123 2v-66h-124q-78 0 -78 -80v-1172q0 -80 78 -80h124v-66q-4 0 -123 2t-171 2t-171 -2 t-123 -2z" />
<glyph unicode="&#xce;" horiz-adv-x="804" d="M66 0zM66 1614q224 168 324 298h64q100 -130 324 -298l-22 -34l-334 188l-334 -188zM128 -2v66h124q78 0 78 80v1172q0 80 -78 80h-124v66q4 0 123 -2t171 -2t171 2t123 2v-66h-124q-78 0 -78 -80v-1172q0 -80 78 -80h124v-66q-4 0 -123 2t-171 2t-171 -2t-123 -2z" />
<glyph unicode="&#xcf;" horiz-adv-x="804" d="M86 0zM86 1746q0 36 25.5 60t61.5 24t61.5 -24t25.5 -60t-25.5 -63t-61.5 -27t-61.5 27t-25.5 63zM584 1746q0 36 25.5 60t61.5 24t61.5 -24t25.5 -60t-25.5 -63t-61.5 -27t-61.5 27t-25.5 63zM128 -2v66h124q78 0 78 80v1172q0 80 -78 80h-124v66q4 0 123 -2t171 -2 t171 2t123 2v-66h-124q-78 0 -78 -80v-1172q0 -80 78 -80h124v-66q-4 0 -123 2t-171 2t-171 -2t-123 -2z" />
<glyph unicode="&#xd0;" horiz-adv-x="1664" d="M96 708v76h234v536q0 82 -78 82q-56 0 -122 -6l-2 64q233 20 434 20q86 0 147.5 -2t147.5 -12t153 -27.5t141 -50.5t133 -80q128 -100 202 -251t74 -327q0 -184 -65 -330.5t-185 -243.5q-198 -158 -472 -158h-122q-4 0 -123 2t-171 2t-171 -2t-123 -2v66h124q78 0 78 80 v564h-234zM514 156q0 -80 78 -80h244q500 0 500 654q0 154 -45.5 296t-146.5 234q-92 84 -212.5 114t-269.5 30q-78 0 -113 -25.5t-35 -100.5v-494h338v-76h-338v-552z" />
<glyph unicode="&#xd1;" horiz-adv-x="1640" d="M128 0zM464 1667q44 74 108 124.5t144 50.5q95 0 202 -47q38 -16 60 -24.5t60 -16.5t77 -8q29 0 56.5 17.5t42.5 35t36 48.5l46 -22q-44 -74 -108 -124.5t-144 -50.5q-98 0 -203 48q-106 48 -196 48q-29 0 -56.5 -17.5t-42.5 -35t-36 -48.5zM128 -2v66h88q54 0 84 31 t30 85v1136q0 80 -78 80h-124v64h376l776 -1124v944q0 54 -30 85t-84 31h-88v66q2 0 105 -2t141 -2t141 2t105 2v-66h-88q-54 0 -84 -31t-30 -85v-1304h-74l-876 1256v-1052q0 -54 30 -85t84 -31h88v-66q-2 0 -105 2t-141 2t-141 -2t-105 -2z" />
<glyph unicode="&#xd2;" horiz-adv-x="1612" d="M144 0zM528 1842q0 26 17.5 48t44.5 22q61 0 130 -64l256 -239l-22 -29l-314 148q-112 53 -112 114zM144 730q0 189 55 328.5t171 255.5q80 80 200.5 127t255.5 47t255.5 -47t200.5 -127q116 -116 171 -255.5t55 -328.5t-55 -328.5t-171 -255.5q-80 -80 -200.5 -127 t-255.5 -47t-255.5 47t-200.5 127q-116 116 -171 255.5t-55 328.5zM368 730q0 -168 30 -317t92 -219q137 -158 336 -158t336 158q62 70 92 219t30 317t-30 317t-92 219q-137 158 -336 158t-336 -158q-62 -70 -92 -219t-30 -317z" />
<glyph unicode="&#xd3;" horiz-adv-x="1612" d="M144 0zM676 1609l256 239q69 64 130 64q27 0 44.5 -22t17.5 -48q0 -61 -112 -114l-314 -148zM144 730q0 189 55 328.5t171 255.5q80 80 200.5 127t255.5 47t255.5 -47t200.5 -127q116 -116 171 -255.5t55 -328.5t-55 -328.5t-171 -255.5q-80 -80 -200.5 -127t-255.5 -47 t-255.5 47t-200.5 127q-116 116 -171 255.5t-55 328.5zM368 730q0 -168 30 -317t92 -219q137 -158 336 -158t336 158q62 70 92 219t30 317t-30 317t-92 219q-137 158 -336 158t-336 -158q-62 -70 -92 -219t-30 -317z" />
<glyph unicode="&#xd4;" horiz-adv-x="1612" d="M144 0zM470 1614q224 168 324 298h64q100 -130 324 -298l-22 -34l-334 188l-334 -188zM144 730q0 189 55 328.5t171 255.5q80 80 200.5 127t255.5 47t255.5 -47t200.5 -127q116 -116 171 -255.5t55 -328.5t-55 -328.5t-171 -255.5q-80 -80 -200.5 -127t-255.5 -47 t-255.5 47t-200.5 127q-116 116 -171 255.5t-55 328.5zM368 730q0 -168 30 -317t92 -219q137 -158 336 -158t336 158q62 70 92 219t30 317t-30 317t-92 219q-137 158 -336 158t-336 -158q-62 -70 -92 -219t-30 -317z" />
<glyph unicode="&#xd5;" horiz-adv-x="1612" d="M144 0zM410 1667q44 74 108 124.5t144 50.5q95 0 202 -47q38 -16 60 -24.5t60 -16.5t77 -8q29 0 56.5 17.5t42.5 35t36 48.5l46 -22q-44 -74 -108 -124.5t-144 -50.5q-98 0 -203 48q-106 48 -196 48q-29 0 -56.5 -17.5t-42.5 -35t-36 -48.5zM144 730q0 189 55 328.5 t171 255.5q80 80 200.5 127t255.5 47t255.5 -47t200.5 -127q116 -116 171 -255.5t55 -328.5t-55 -328.5t-171 -255.5q-80 -80 -200.5 -127t-255.5 -47t-255.5 47t-200.5 127q-116 116 -171 255.5t-55 328.5zM368 730q0 -168 30 -317t92 -219q137 -158 336 -158t336 158 q62 70 92 219t30 317t-30 317t-92 219q-137 158 -336 158t-336 -158q-62 -70 -92 -219t-30 -317z" />
<glyph unicode="&#xd6;" horiz-adv-x="1612" d="M144 0zM490 1746q0 36 25.5 60t61.5 24t61.5 -24t25.5 -60t-25.5 -63t-61.5 -27t-61.5 27t-25.5 63zM988 1746q0 36 25.5 60t61.5 24t61.5 -24t25.5 -60t-25.5 -63t-61.5 -27t-61.5 27t-25.5 63zM144 730q0 189 55 328.5t171 255.5q80 80 200.5 127t255.5 47t255.5 -47 t200.5 -127q116 -116 171 -255.5t55 -328.5t-55 -328.5t-171 -255.5q-80 -80 -200.5 -127t-255.5 -47t-255.5 47t-200.5 127q-116 116 -171 255.5t-55 328.5zM368 730q0 -168 30 -317t92 -219q137 -158 336 -158t336 158q62 70 92 219t30 317t-30 317t-92 219 q-137 158 -336 158t-336 -158q-62 -70 -92 -219t-30 -317z" />
<glyph unicode="&#xd7;" d="M179 183l329 330l-329 330l67 67l330 -329l330 329l67 -67l-329 -330l329 -330l-67 -67l-330 329l-330 -329z" />
<glyph unicode="&#xd8;" horiz-adv-x="1612" d="M138 30l168 187q-162 202 -162 513q0 189 55 328.5t171 255.5q80 80 200.5 127t255.5 47q126 0 248 -44t213 -135l161 179l66 -58l-168 -187q162 -202 162 -513q0 -189 -55 -328.5t-171 -255.5q-80 -80 -200.5 -127t-255.5 -47q-126 0 -248 44t-213 135l-161 -179z M368 730q0 -227 49 -390l782 871q-18 35 -37 55q-137 158 -336 158t-336 -158q-62 -70 -92 -218.5t-30 -317.5zM453 249q18 -35 37 -55q137 -158 336 -158t336 158q62 70 92 219t30 317q0 227 -49 390z" />
<glyph unicode="&#xd9;" horiz-adv-x="1700" d="M128 0zM606 1842q0 26 17.5 48t44.5 22q61 0 130 -64l256 -239l-22 -29l-314 148q-112 53 -112 114zM128 1396v66q4 0 123 -2t171 -2t171 2t123 2v-66h-124q-78 0 -78 -80v-900q0 -81 32.5 -161.5t101.5 -130.5q121 -88 270 -88q83 0 161.5 32t138.5 88q62 58 93 141 t31 163v856q0 80 -78 80h-124v66q5 0 48.5 -1t101 -2t96.5 -1t96.5 1t101 2t48.5 1v-66h-124q-78 0 -78 -80v-832q0 -97 -36.5 -203t-113.5 -175q-68 -60 -161 -97t-201 -37q-278 0 -432 132q-74 63 -115 156t-41 196v860q0 80 -78 80h-124z" />
<glyph unicode="&#xda;" horiz-adv-x="1700" d="M128 0zM754 1609l256 239q69 64 130 64q27 0 44.5 -22t17.5 -48q0 -61 -112 -114l-314 -148zM128 1396v66q4 0 123 -2t171 -2t171 2t123 2v-66h-124q-78 0 -78 -80v-900q0 -81 32.5 -161.5t101.5 -130.5q121 -88 270 -88q83 0 161.5 32t138.5 88q62 58 93 141t31 163v856 q0 80 -78 80h-124v66q5 0 48.5 -1t101 -2t96.5 -1t96.5 1t101 2t48.5 1v-66h-124q-78 0 -78 -80v-832q0 -97 -36.5 -203t-113.5 -175q-68 -60 -161 -97t-201 -37q-278 0 -432 132q-74 63 -115 156t-41 196v860q0 80 -78 80h-124z" />
<glyph unicode="&#xdb;" horiz-adv-x="1700" d="M128 0zM548 1614q224 168 324 298h64q100 -130 324 -298l-22 -34l-334 188l-334 -188zM128 1396v66q4 0 123 -2t171 -2t171 2t123 2v-66h-124q-78 0 -78 -80v-900q0 -81 32.5 -161.5t101.5 -130.5q121 -88 270 -88q83 0 161.5 32t138.5 88q62 58 93 141t31 163v856 q0 80 -78 80h-124v66q5 0 48.5 -1t101 -2t96.5 -1t96.5 1t101 2t48.5 1v-66h-124q-78 0 -78 -80v-832q0 -97 -36.5 -203t-113.5 -175q-68 -60 -161 -97t-201 -37q-278 0 -432 132q-74 63 -115 156t-41 196v860q0 80 -78 80h-124z" />
<glyph unicode="&#xdc;" horiz-adv-x="1700" d="M128 0zM568 1746q0 36 25.5 60t61.5 24t61.5 -24t25.5 -60t-25.5 -63t-61.5 -27t-61.5 27t-25.5 63zM1066 1746q0 36 25.5 60t61.5 24t61.5 -24t25.5 -60t-25.5 -63t-61.5 -27t-61.5 27t-25.5 63zM128 1396v66q4 0 123 -2t171 -2t171 2t123 2v-66h-124q-78 0 -78 -80 v-900q0 -81 32.5 -161.5t101.5 -130.5q121 -88 270 -88q83 0 161.5 32t138.5 88q62 58 93 141t31 163v856q0 80 -78 80h-124v66q5 0 48.5 -1t101 -2t96.5 -1t96.5 1t101 2t48.5 1v-66h-124q-78 0 -78 -80v-832q0 -97 -36.5 -203t-113.5 -175q-68 -60 -161 -97t-201 -37 q-278 0 -432 132q-74 63 -115 156t-41 196v860q0 80 -78 80h-124z" />
<glyph unicode="&#xdd;" horiz-adv-x="1600" d="M92 0zM718 1609l256 239q69 64 130 64q27 0 44.5 -22t17.5 -48q0 -61 -112 -114l-314 -148zM92 1396v66q19 0 141 -2t171 -2t171 2t141 2v-66h-120q-34 0 -60 -21.5t-26 -58.5q0 -40 16 -72l328 -676l350 598q36 62 36 122q0 47 -40 77.5t-132 30.5v66q6 0 108 -2t144 -2 t142 2t106 2v-66h-22q-69 0 -119.5 -49t-108.5 -145l-424 -714v-342q0 -80 78 -80h136v-66q-10 0 -130 2t-176 2t-175.5 -2t-130.5 -2v66h136q78 0 78 80v334l-386 778q-38 75 -71.5 106.5t-84.5 31.5h-76z" />
<glyph unicode="&#xde;" horiz-adv-x="1320" d="M128 -2v66h124q78 0 78 80v1172q0 80 -78 80h-124v66q4 0 123 -2t171 -2t171 2t123 2v-66h-124q-78 0 -78 -80v-140h130q293 0 455 -114q161 -113 161 -296t-161 -296q-162 -114 -455 -114h-130v-212q0 -80 78 -80h124v-66q-4 0 -123 2t-171 2t-171 -2t-123 -2zM514 432 h154q63 0 118 10.5t105.5 35.5t86.5 63t57 95.5t21 129.5t-21 129.5t-57 95.5t-86.5 63t-105.5 35.5t-118 10.5h-154v-668z" />
<glyph unicode="&#xdf;" horiz-adv-x="1140" d="M74 836q0 47 8 64h158v66q0 77 18 167t61 158q56 89 146 137t189 48q70 0 125 -20t87.5 -53t49.5 -71.5t17 -77.5q0 -44 -18.5 -87t-53.5 -81.5t-66.5 -65.5t-75.5 -60q-53 -40 -71 -72.5t-18 -81.5q0 -51 50.5 -109t121.5 -100q254 -150 254 -317q0 -130 -78.5 -215 t-189.5 -85q-72 0 -129 34q-27 16 -54 16q-25 0 -48 -46h-34l-47 236l40 20q45 -74 122 -139t134 -65q75 0 118.5 45.5t43.5 124.5q0 68 -40 117t-140 121q-43 31 -70 53.5t-66 62.5t-59.5 85.5t-20.5 94.5q0 82 34.5 136t115.5 132q54 53 77.5 107.5t23.5 130.5 q0 72 -41.5 123t-127.5 51q-131 0 -197 -137q-20 -41 -31.5 -106.5t-11.5 -116.5v-1062q-1 0 -32 2t-38 2q-34 0 -129.5 -2t-98.5 -2v60h108q50 0 50 50v728h-166z" />
<glyph unicode="&#xe0;" horiz-adv-x="1030" d="M104 0zM214 1415q0 28 21.5 50.5t56.5 22.5q72 0 118 -124l120 -334l-44 -22l-208 277q-64 86 -64 130zM104 176q0 50 17.5 92.5t45.5 72t69 55t80 41.5t87 31q130 40 254 40v159q0 76 -50 133.5t-120 57.5q-96 0 -138 -53q-28 -35 -40 -98q-5 -27 -24 -47t-54 -20 q-38 0 -64 23.5t-26 61.5q0 82 104.5 136.5t237.5 54.5q109 0 193 -49q56 -33 88.5 -88.5t32.5 -124.5v-434q0 -49 17.5 -85.5t54.5 -36.5q51 0 96 66l33 -18q-83 -162 -208 -162q-42 0 -78 35t-51 75l-12 -4q-45 -37 -131.5 -71.5t-166.5 -34.5q-114 0 -176 46 q-71 52 -71 146zM274 186q0 -58 40 -93t102 -35q68 0 124.5 24.5t116.5 68.5v309q-155 -4 -270 -65q-51 -27 -82 -79.5t-31 -129.5z" />
<glyph unicode="&#xe1;" horiz-adv-x="1030" d="M104 0zM446 1030l120 334q46 124 118 124q35 0 56.5 -22.5t21.5 -50.5q0 -44 -64 -130l-208 -277zM104 176q0 50 17.5 92.5t45.5 72t69 55t80 41.5t87 31q130 40 254 40v159q0 76 -50 133.5t-120 57.5q-96 0 -138 -53q-28 -35 -40 -98q-5 -27 -24 -47t-54 -20 q-38 0 -64 23.5t-26 61.5q0 82 104.5 136.5t237.5 54.5q109 0 193 -49q56 -33 88.5 -88.5t32.5 -124.5v-434q0 -49 17.5 -85.5t54.5 -36.5q51 0 96 66l33 -18q-83 -162 -208 -162q-42 0 -78 35t-51 75l-12 -4q-45 -37 -131.5 -71.5t-166.5 -34.5q-114 0 -176 46 q-71 52 -71 146zM274 186q0 -58 40 -93t102 -35q68 0 124.5 24.5t116.5 68.5v309q-155 -4 -270 -65q-51 -27 -82 -79.5t-31 -129.5z" />
<glyph unicode="&#xe2;" horiz-adv-x="1030" d="M104 0zM208 1038q167 209 268 422h24q101 -213 268 -422l-36 -30l-244 258l-244 -258zM104 176q0 50 17.5 92.5t45.5 72t69 55t80 41.5t87 31q130 40 254 40v159q0 76 -50 133.5t-120 57.5q-96 0 -138 -53q-28 -35 -40 -98q-5 -27 -24 -47t-54 -20q-38 0 -64 23.5 t-26 61.5q0 82 104.5 136.5t237.5 54.5q109 0 193 -49q56 -33 88.5 -88.5t32.5 -124.5v-434q0 -49 17.5 -85.5t54.5 -36.5q51 0 96 66l33 -18q-83 -162 -208 -162q-42 0 -78 35t-51 75l-12 -4q-45 -37 -131.5 -71.5t-166.5 -34.5q-114 0 -176 46q-71 52 -71 146zM274 186 q0 -58 40 -93t102 -35q68 0 124.5 24.5t116.5 68.5v309q-155 -4 -270 -65q-51 -27 -82 -79.5t-31 -129.5z" />
<glyph unicode="&#xe3;" horiz-adv-x="1030" d="M104 0zM124 1075q40 89 107 144t143 55q30 0 60 -8.5t48 -18t48 -26.5q88 -53 160 -53q62 0 122 112l40 -25q-40 -89 -107 -144t-143 -55q-69 0 -158 54q-87 52 -158 52q-62 0 -122 -112zM104 176q0 50 17.5 92.5t45.5 72t69 55t80 41.5t87 31q130 40 254 40v159 q0 76 -50 133.5t-120 57.5q-96 0 -138 -53q-28 -35 -40 -98q-5 -27 -24 -47t-54 -20q-38 0 -64 23.5t-26 61.5q0 82 104.5 136.5t237.5 54.5q109 0 193 -49q56 -33 88.5 -88.5t32.5 -124.5v-434q0 -49 17.5 -85.5t54.5 -36.5q51 0 96 66l33 -18q-83 -162 -208 -162 q-42 0 -78 35t-51 75l-12 -4q-45 -37 -131.5 -71.5t-166.5 -34.5q-114 0 -176 46q-71 52 -71 146zM274 186q0 -58 40 -93t102 -35q68 0 124.5 24.5t116.5 68.5v309q-155 -4 -270 -65q-51 -27 -82 -79.5t-31 -129.5z" />
<glyph unicode="&#xe4;" horiz-adv-x="1030" d="M104 0zM188 1208q0 42 27 69t69 27t69 -27t27 -69t-27 -69t-69 -27t-69 27t-27 69zM596 1208q0 42 27 69t69 27t69 -27t27 -69t-27 -69t-69 -27t-69 27t-27 69zM104 176q0 50 17.5 92.5t45.5 72t69 55t80 41.5t87 31q130 40 254 40v159q0 76 -50 133.5t-120 57.5 q-96 0 -138 -53q-28 -35 -40 -98q-5 -27 -24 -47t-54 -20q-38 0 -64 23.5t-26 61.5q0 82 104.5 136.5t237.5 54.5q109 0 193 -49q56 -33 88.5 -88.5t32.5 -124.5v-434q0 -49 17.5 -85.5t54.5 -36.5q51 0 96 66l33 -18q-83 -162 -208 -162q-42 0 -78 35t-51 75l-12 -4 q-45 -37 -131.5 -71.5t-166.5 -34.5q-114 0 -176 46q-71 52 -71 146zM274 186q0 -58 40 -93t102 -35q68 0 124.5 24.5t116.5 68.5v309q-155 -4 -270 -65q-51 -27 -82 -79.5t-31 -129.5z" />
<glyph unicode="&#xe5;" horiz-adv-x="1030" d="M104 0zM258 1258q0 99 65.5 164.5t164.5 65.5t164.5 -65.5t65.5 -164.5t-65.5 -164.5t-164.5 -65.5t-164.5 65.5t-65.5 164.5zM314 1258q0 -74 50 -124t124 -50t124 50t50 124t-50 124t-124 50q-72 0 -123 -50.5t-51 -123.5zM104 176q0 50 17.5 92.5t45.5 72t69 55 t80 41.5t87 31q130 40 254 40v159q0 76 -50 133.5t-120 57.5q-96 0 -138 -53q-28 -35 -40 -98q-5 -27 -24 -47t-54 -20q-38 0 -64 23.5t-26 61.5q0 82 104.5 136.5t237.5 54.5q109 0 193 -49q56 -33 88.5 -88.5t32.5 -124.5v-434q0 -49 17.5 -85.5t54.5 -36.5q51 0 96 66 l33 -18q-83 -162 -208 -162q-42 0 -78 35t-51 75l-12 -4q-45 -37 -131.5 -71.5t-166.5 -34.5q-114 0 -176 46q-71 52 -71 146zM274 186q0 -58 40 -93t102 -35q68 0 124.5 24.5t116.5 68.5v309q-155 -4 -270 -65q-51 -27 -82 -79.5t-31 -129.5z" />
<glyph unicode="&#xe6;" horiz-adv-x="1526" d="M104 175q0 50 17.5 92.5t45.5 72.5t68.5 55.5t80 41.5t87.5 31q133 41 254 56v141q0 76 -50 134.5t-120 58.5q-97 0 -138 -51q-28 -35 -40 -98q-5 -27 -24 -47t-54 -20q-38 0 -64 23.5t-26 61.5q0 82 104.5 135.5t237.5 53.5q100 0 177 -41.5t111 -110.5q145 152 313 152 q84 0 146 -22.5t116 -79.5q95 -100 112 -286h-628q-4 -31 -4 -71q0 -175 80.5 -278t226.5 -103q73 0 141.5 41t108.5 96l37 -37q-45 -72 -133.5 -132t-182.5 -60q-77 0 -143.5 19.5t-111 50.5t-69.5 55t-42 48q-76 -70 -178.5 -122t-208.5 -52q-114 0 -176 46 q-71 52 -71 146zM274 191q0 -59 40.5 -96.5t101.5 -37.5q75 0 156.5 41t136.5 103q-53 98 -53 275q-166 -26 -258 -76q-124 -68 -124 -209zM839 586h472q-6 99 -64.5 177.5t-141.5 78.5q-102 0 -171.5 -69.5t-94.5 -186.5z" />
<glyph unicode="&#xe7;" horiz-adv-x="948" d="M84 436q0 204 131 343q127 137 297 137q122 0 202 -43q63 -34 102.5 -82t39.5 -89q0 -43 -23 -66t-63 -23q-36 0 -61 23t-35 60q-15 62 -35 89q-42 57 -106 57q-129 0 -204 -108t-75 -277q0 -175 80.5 -278t226.5 -103q73 0 141.5 41t108.5 96l37 -37 q-36 -57 -102.5 -109.5t-141.5 -72.5l-57 -85q-21 -34 -21 -50q0 -33 59 -65t90 -61.5t31 -69.5q0 -71 -58.5 -113t-144.5 -42q-102 0 -191 54l20 38q79 -44 170 -44q43 0 71.5 18t28.5 55q0 27 -23 47t-75 43q-74 35 -74 73q0 33 28 75l79 117h-5q-184 0 -311 113 q-137 120 -137 339z" />
<glyph unicode="&#xe8;" horiz-adv-x="954" d="M84 0zM238 1415q0 28 21.5 50.5t56.5 22.5q72 0 118 -124l120 -334l-44 -22l-208 277q-64 86 -64 130zM84 436q0 210 128 341q138 139 300 139q84 0 146 -22.5t116 -79.5q95 -100 112 -286h-628q-4 -31 -4 -71q0 -175 80.5 -278t226.5 -103q73 0 141.5 41t108.5 96 l37 -37q-45 -72 -133.5 -132t-182.5 -60q-184 0 -311 113q-137 120 -137 339zM267 586h472q-6 99 -64.5 177.5t-141.5 78.5q-102 0 -171.5 -69.5t-94.5 -186.5z" />
<glyph unicode="&#xe9;" horiz-adv-x="954" d="M84 0zM470 1030l120 334q46 124 118 124q35 0 56.5 -22.5t21.5 -50.5q0 -44 -64 -130l-208 -277zM84 436q0 210 128 341q138 139 300 139q84 0 146 -22.5t116 -79.5q95 -100 112 -286h-628q-4 -31 -4 -71q0 -175 80.5 -278t226.5 -103q73 0 141.5 41t108.5 96l37 -37 q-45 -72 -133.5 -132t-182.5 -60q-184 0 -311 113q-137 120 -137 339zM267 586h472q-6 99 -64.5 177.5t-141.5 78.5q-102 0 -171.5 -69.5t-94.5 -186.5z" />
<glyph unicode="&#xea;" horiz-adv-x="954" d="M84 0zM232 1038q167 209 268 422h24q101 -213 268 -422l-36 -30l-244 258l-244 -258zM84 436q0 210 128 341q138 139 300 139q84 0 146 -22.5t116 -79.5q95 -100 112 -286h-628q-4 -31 -4 -71q0 -175 80.5 -278t226.5 -103q73 0 141.5 41t108.5 96l37 -37 q-45 -72 -133.5 -132t-182.5 -60q-184 0 -311 113q-137 120 -137 339zM267 586h472q-6 99 -64.5 177.5t-141.5 78.5q-102 0 -171.5 -69.5t-94.5 -186.5z" />
<glyph unicode="&#xeb;" horiz-adv-x="954" d="M84 0zM212 1208q0 42 27 69t69 27t69 -27t27 -69t-27 -69t-69 -27t-69 27t-27 69zM620 1208q0 42 27 69t69 27t69 -27t27 -69t-27 -69t-69 -27t-69 27t-27 69zM84 436q0 210 128 341q138 139 300 139q84 0 146 -22.5t116 -79.5q95 -100 112 -286h-628q-4 -31 -4 -71 q0 -175 80.5 -278t226.5 -103q73 0 141.5 41t108.5 96l37 -37q-45 -72 -133.5 -132t-182.5 -60q-184 0 -311 113q-137 120 -137 339zM267 586h472q-6 99 -64.5 177.5t-141.5 78.5q-102 0 -171.5 -69.5t-94.5 -186.5z" />
<glyph unicode="&#xec;" horiz-adv-x="584" d="M34 0zM34 1415q0 28 21.5 50.5t56.5 22.5q72 0 118 -124l120 -334l-44 -22l-208 277q-64 86 -64 130zM80 -2v60h108q50 0 50 50v587q0 66 -64 73l-94 10v44l266 88h32v-802q0 -50 50 -50h108v-60q-3 0 -98.5 2t-129.5 2t-129.5 -2t-98.5 -2z" />
<glyph unicode="&#xed;" horiz-adv-x="584" d="M80 0zM266 1030l120 334q46 124 118 124q35 0 56.5 -22.5t21.5 -50.5q0 -44 -64 -130l-208 -277zM80 -2v60h108q50 0 50 50v587q0 66 -64 73l-94 10v44l266 88h32v-802q0 -50 50 -50h108v-60q-3 0 -98.5 2t-129.5 2t-129.5 -2t-98.5 -2z" />
<glyph unicode="&#xee;" horiz-adv-x="584" d="M28 0zM28 1038q167 209 268 422h24q101 -213 268 -422l-36 -30l-244 258l-244 -258zM80 -2v60h108q50 0 50 50v587q0 66 -64 73l-94 10v44l266 88h32v-802q0 -50 50 -50h108v-60q-3 0 -98.5 2t-129.5 2t-129.5 -2t-98.5 -2z" />
<glyph unicode="&#xef;" horiz-adv-x="584" d="M16 0zM16 1208q0 42 27 69t69 27t69 -27t27 -69t-27 -69t-69 -27t-69 27t-27 69zM376 1208q0 42 27 69t69 27t69 -27t27 -69t-27 -69t-69 -27t-69 27t-27 69zM80 -2v60h108q50 0 50 50v587q0 66 -64 73l-94 10v44l266 88h32v-802q0 -50 50 -50h108v-60q-3 0 -98.5 2 t-129.5 2t-129.5 -2t-98.5 -2z" />
<glyph unicode="&#xf0;" horiz-adv-x="1080" d="M84 450q0 200 131 333t325 133q90 0 168 -30l14 14q-64 157 -188 292l-262 -164l-30 50l250 157q-113 110 -230 181l46 72q139 -70 286 -190l275 172l30 -50l-259 -162l38 -35q151 -145 234.5 -326t83.5 -349q0 -107 -30.5 -206.5t-86 -180t-144 -129t-195.5 -48.5 q-194 0 -325 133.5t-131 332.5zM254 450q0 -168 77.5 -288t208.5 -120q88 0 154.5 63t99 158.5t32.5 204.5q0 108 -32.5 195.5t-98.5 141t-155 53.5q-131 0 -208.5 -120t-77.5 -288z" />
<glyph unicode="&#xf1;" horiz-adv-x="1160" d="M74 0zM228 1075q40 89 107 144t143 55q30 0 60 -8.5t48 -18t48 -26.5q88 -53 160 -53q62 0 122 112l40 -25q-40 -89 -107 -144t-143 -55q-69 0 -158 54q-87 52 -158 52q-62 0 -122 -112zM74 -2v60h108q50 0 50 50v587q0 66 -64 73l-94 10v44l266 88h32v-148l7 -6 q59 59 143.5 109.5t157.5 50.5q117 0 190 -63q88 -82 88 -221v-524q0 -50 50 -50h108v-60q-3 0 -98.5 2t-129.5 2t-129.5 -2t-98.5 -2v60h108q50 0 50 50v499q0 130 -63 177q-29 23 -58 31.5t-83 8.5q-93 0 -242 -135v-581q0 -50 50 -50h108v-60q-3 0 -98.5 2t-129.5 2 t-129.5 -2t-98.5 -2z" />
<glyph unicode="&#xf2;" horiz-adv-x="1080" d="M84 0zM266 1415q0 28 21.5 50.5t56.5 22.5q72 0 118 -124l120 -334l-44 -22l-208 277q-64 86 -64 130zM84 450q0 200 131 333t325 133t325 -133t131 -333q0 -199 -131 -332.5t-325 -133.5t-325 133.5t-131 332.5zM254 450q0 -168 77.5 -288t208.5 -120t208.5 120 t77.5 288t-77.5 288t-208.5 120t-208.5 -120t-77.5 -288z" />
<glyph unicode="&#xf3;" horiz-adv-x="1080" d="M84 0zM498 1030l120 334q46 124 118 124q35 0 56.5 -22.5t21.5 -50.5q0 -44 -64 -130l-208 -277zM84 450q0 200 131 333t325 133t325 -133t131 -333q0 -199 -131 -332.5t-325 -133.5t-325 133.5t-131 332.5zM254 450q0 -168 77.5 -288t208.5 -120t208.5 120t77.5 288 t-77.5 288t-208.5 120t-208.5 -120t-77.5 -288z" />
<glyph unicode="&#xf4;" horiz-adv-x="1080" d="M84 0zM260 1038q167 209 268 422h24q101 -213 268 -422l-36 -30l-244 258l-244 -258zM84 450q0 200 131 333t325 133t325 -133t131 -333q0 -199 -131 -332.5t-325 -133.5t-325 133.5t-131 332.5zM254 450q0 -168 77.5 -288t208.5 -120t208.5 120t77.5 288t-77.5 288 t-208.5 120t-208.5 -120t-77.5 -288z" />
<glyph unicode="&#xf5;" horiz-adv-x="1080" d="M84 0zM176 1075q40 89 107 144t143 55q30 0 60 -8.5t48 -18t48 -26.5q88 -53 160 -53q62 0 122 112l40 -25q-40 -89 -107 -144t-143 -55q-69 0 -158 54q-87 52 -158 52q-62 0 -122 -112zM84 450q0 200 131 333t325 133t325 -133t131 -333q0 -199 -131 -332.5t-325 -133.5 t-325 133.5t-131 332.5zM254 450q0 -168 77.5 -288t208.5 -120t208.5 120t77.5 288t-77.5 288t-208.5 120t-208.5 -120t-77.5 -288z" />
<glyph unicode="&#xf6;" horiz-adv-x="1080" d="M84 0zM240 1208q0 42 27 69t69 27t69 -27t27 -69t-27 -69t-69 -27t-69 27t-27 69zM648 1208q0 42 27 69t69 27t69 -27t27 -69t-27 -69t-69 -27t-69 27t-27 69zM84 450q0 200 131 333t325 133t325 -133t131 -333q0 -199 -131 -332.5t-325 -133.5t-325 133.5t-131 332.5z M254 450q0 -168 77.5 -288t208.5 -120t208.5 120t77.5 288t-77.5 288t-208.5 120t-208.5 -120t-77.5 -288z" />
<glyph unicode="&#xf7;" d="M62 72zM448 200q0 54 37 91t91 37t91 -37t37 -91t-37 -91t-91 -37t-91 37t-37 91zM62 466v96h1028v-96h-1028zM448 828q0 54 37 91t91 37t91 -37t37 -91t-37 -91t-91 -37t-91 37t-37 91z" />
<glyph unicode="&#xf8;" horiz-adv-x="1080" d="M84 28l110 113q-110 129 -110 309q0 200 131 333t325 133q177 0 303 -112l109 112l44 -44l-110 -112q110 -129 110 -310q0 -199 -131 -332.5t-325 -133.5q-175 0 -302 111l-108 -111zM254 450q0 -113 37 -210l469 480q-81 138 -220 138q-131 0 -208.5 -120t-77.5 -288z M320 179q82 -137 220 -137q131 0 208.5 120t77.5 288q0 113 -37 210z" />
<glyph unicode="&#xf9;" horiz-adv-x="1060" d="M44 0zM238 1415q0 28 21.5 50.5t56.5 22.5q72 0 118 -124l120 -334l-44 -22l-208 277q-64 86 -64 130zM44 834v58l274 16v-617q0 -61 10 -103.5t44 -70.5q28 -23 57 -33t77 -10q89 0 226 120v557q0 45 -31 64t-103 19v58l274 16v-759q0 -45 31 -64t103 -19v-58l-274 -16 v130l-6 6q-159 -146 -286 -146q-125 0 -183 61q-79 80 -79 215v493q0 45 -31 64t-103 19z" />
<glyph unicode="&#xfa;" horiz-adv-x="1060" d="M44 0zM470 1030l120 334q46 124 118 124q35 0 56.5 -22.5t21.5 -50.5q0 -44 -64 -130l-208 -277zM44 834v58l274 16v-617q0 -61 10 -103.5t44 -70.5q28 -23 57 -33t77 -10q89 0 226 120v557q0 45 -31 64t-103 19v58l274 16v-759q0 -45 31 -64t103 -19v-58l-274 -16v130 l-6 6q-159 -146 -286 -146q-125 0 -183 61q-79 80 -79 215v493q0 45 -31 64t-103 19z" />
<glyph unicode="&#xfb;" horiz-adv-x="1060" d="M44 0zM232 1038q167 209 268 422h24q101 -213 268 -422l-36 -30l-244 258l-244 -258zM44 834v58l274 16v-617q0 -61 10 -103.5t44 -70.5q28 -23 57 -33t77 -10q89 0 226 120v557q0 45 -31 64t-103 19v58l274 16v-759q0 -45 31 -64t103 -19v-58l-274 -16v130l-6 6 q-159 -146 -286 -146q-125 0 -183 61q-79 80 -79 215v493q0 45 -31 64t-103 19z" />
<glyph unicode="&#xfc;" horiz-adv-x="1060" d="M44 0zM212 1208q0 42 27 69t69 27t69 -27t27 -69t-27 -69t-69 -27t-69 27t-27 69zM620 1208q0 42 27 69t69 27t69 -27t27 -69t-27 -69t-69 -27t-69 27t-27 69zM44 834v58l274 16v-617q0 -61 10 -103.5t44 -70.5q28 -23 57 -33t77 -10q89 0 226 120v557q0 45 -31 64 t-103 19v58l274 16v-759q0 -45 31 -64t103 -19v-58l-274 -16v130l-6 6q-159 -146 -286 -146q-125 0 -183 61q-79 80 -79 215v493q0 45 -31 64t-103 19z" />
<glyph unicode="&#xfd;" horiz-adv-x="1102" d="M8 0zM526 1030l120 334q46 124 118 124q35 0 56.5 -22.5t21.5 -50.5q0 -44 -64 -130l-208 -277zM8 -406q0 47 30 73t69 26q34 0 67 -20q33 -19 61 -19q39 0 80 43t75 110l106 213l-291 680q-37 85 -67 109q-41 33 -114 33v60q7 0 89 -2t119 -2t123 2t93 2v-60h-59 q-21 0 -40 -11.5t-19 -28.5q0 -32 14 -64l232 -564l231 475q39 80 39 121q0 28 -19 50t-48 22h-54v60q4 0 77.5 -2t101.5 -2t99 2t75 2v-60h-40q-30 0 -55 -28q-32 -38 -54 -85l-476 -965q-63 -127 -133 -195q-87 -85 -188 -85q-52 0 -88 28.5t-36 81.5z" />
<glyph unicode="&#xfe;" horiz-adv-x="1112" d="M40 -440h108q50 0 50 50v1653q0 66 -64 73l-94 10v44l266 88h32v-682l8 -5q155 125 280 125q80 0 152 -24t111 -64q139 -140 139 -337q0 -215 -102 -356q-110 -151 -318 -151q-52 0 -125 23t-139 64l-6 -4v-457q0 -50 50 -50h108v-60q-3 0 -98.5 2t-129.5 2t-129.5 -2 t-98.5 -2v60zM338 136q56 -39 121.5 -62.5t116.5 -23.5q61 0 115.5 23.5t86.5 67.5q41 55 60.5 130.5t19.5 146.5q0 61 -2.5 98.5t-18 94.5t-46.5 102q-76 111 -213 111q-117 0 -240 -110v-578z" />
<glyph unicode="&#xff;" horiz-adv-x="1102" d="M8 0zM268 1208q0 42 27 69t69 27t69 -27t27 -69t-27 -69t-69 -27t-69 27t-27 69zM676 1208q0 42 27 69t69 27t69 -27t27 -69t-27 -69t-69 -27t-69 27t-27 69zM8 -406q0 47 30 73t69 26q34 0 67 -20q33 -19 61 -19q39 0 80 43t75 110l106 213l-291 680q-37 85 -67 109 q-41 33 -114 33v60q7 0 89 -2t119 -2t123 2t93 2v-60h-59q-21 0 -40 -11.5t-19 -28.5q0 -32 14 -64l232 -564l231 475q39 80 39 121q0 28 -19 50t-48 22h-54v60q4 0 77.5 -2t101.5 -2t99 2t75 2v-60h-40q-30 0 -55 -28q-32 -38 -54 -85l-476 -965q-63 -127 -133 -195 q-87 -85 -188 -85q-52 0 -88 28.5t-36 81.5z" />
<glyph unicode="&#x131;" horiz-adv-x="584" d="M80 -2v60h108q50 0 50 50v587q0 66 -64 73l-94 10v44l266 88h32v-802q0 -50 50 -50h108v-60q-3 0 -98.5 2t-129.5 2t-129.5 -2t-98.5 -2z" />
<glyph unicode="&#x152;" horiz-adv-x="2360" d="M144 730q0 189 55 328.5t171 255.5q80 80 200.5 127t255.5 47q66 0 144 -14q73 -16 352 -16q52 0 171 2t123 2h512l116 -314l-60 -28q-29 49 -73 103t-95 87q-115 74 -244 74h-280q-78 0 -78 -80v-508h224q91 0 150.5 57.5t67.5 182.5h60v-556h-60q-16 240 -218 240h-224 v-564q0 -80 78 -80h364q75 0 141.5 23t106.5 63q47 48 85 116t59 128l64 -20l-92 -388h-604q-4 0 -123 2t-171 2q-263 0 -352 -16q-78 -14 -144 -14q-135 0 -255.5 47t-200.5 127q-116 116 -171 255.5t-55 328.5zM368 730q0 -168 30 -317t92 -219q137 -158 336 -158t336 158 q68 78 68 190v692q0 112 -68 190q-137 158 -336 158t-336 -158q-62 -70 -92 -218.5t-30 -317.5z" />
<glyph unicode="&#x153;" horiz-adv-x="1696" d="M84 450q0 200 131 333t325 133q115 0 212 -50.5t160 -138.5q72 93 161 141t181 48q84 0 146 -22.5t116 -79.5q95 -100 112 -286h-628q-4 -32 -4 -74q0 -173 81 -275.5t226 -102.5q73 0 141.5 41t108.5 96l37 -37q-45 -72 -133.5 -132t-182.5 -60q-63 0 -120 14t-95.5 34 t-72.5 46.5t-51 46t-31 38.5q-63 -84 -157.5 -131.5t-206.5 -47.5q-194 0 -325 133.5t-131 332.5zM254 450q0 -168 77.5 -288t208.5 -120t208.5 120t77.5 288t-77.5 288t-208.5 120t-208.5 -120t-77.5 -288zM1009 586h472q-6 99 -64.5 177.5t-141.5 78.5 q-102 0 -171.5 -69.5t-94.5 -186.5z" />
<glyph unicode="&#x178;" horiz-adv-x="1600" d="M92 0zM532 1746q0 36 25.5 60t61.5 24t61.5 -24t25.5 -60t-25.5 -63t-61.5 -27t-61.5 27t-25.5 63zM1030 1746q0 36 25.5 60t61.5 24t61.5 -24t25.5 -60t-25.5 -63t-61.5 -27t-61.5 27t-25.5 63zM92 1396v66q19 0 141 -2t171 -2t171 2t141 2v-66h-120q-34 0 -60 -21.5 t-26 -58.5q0 -40 16 -72l328 -676l350 598q36 62 36 122q0 47 -40 77.5t-132 30.5v66q6 0 108 -2t144 -2t142 2t106 2v-66h-22q-69 0 -119.5 -49t-108.5 -145l-424 -714v-342q0 -80 78 -80h136v-66q-10 0 -130 2t-176 2t-175.5 -2t-130.5 -2v66h136q78 0 78 80v334l-386 778 q-38 75 -71.5 106.5t-84.5 31.5h-76z" />
<glyph unicode="&#x237;" horiz-adv-x="572" d="M-96 -368q0 38 26.5 59.5t67.5 21.5q35 0 81 -42q34 -29 62 -29q35 0 66.5 28t42.5 72q16 64 16 216v737q0 66 -64 73l-94 10v44l266 88h32v-860q0 -82 -25 -197.5t-78 -185.5q-106 -141 -274 -141q-57 0 -91 31t-34 75z" />
<glyph unicode="&#x2c6;" horiz-adv-x="880" d="M160 1038q167 209 268 422h24q101 -213 268 -422l-36 -30l-244 258l-244 -258z" />
<glyph unicode="&#x2d9;" horiz-adv-x="880" d="M316 1206q0 52 36 88t88 36t88 -36t36 -88t-36 -88t-88 -36t-88 36t-36 88z" />
<glyph unicode="&#x2da;" horiz-adv-x="880" d="M210 1258q0 99 65.5 164.5t164.5 65.5t164.5 -65.5t65.5 -164.5t-65.5 -164.5t-164.5 -65.5t-164.5 65.5t-65.5 164.5zM266 1258q0 -74 50 -124t124 -50t124 50t50 124t-50 124t-124 50q-72 0 -123 -50.5t-51 -123.5z" />
<glyph unicode="&#x2dc;" horiz-adv-x="880" d="M76 1075q40 89 107 144t143 55q30 0 60 -8.5t48 -18t48 -26.5q88 -53 160 -53q62 0 122 112l40 -25q-40 -89 -107 -144t-143 -55q-69 0 -158 54q-87 52 -158 52q-62 0 -122 -112z" />
<glyph unicode="&#x3bc;" horiz-adv-x="1218" d="M-16 -433q0 105 148 655q15 86 25.5 143.5t23.5 123.5t23 107.5t23 85.5t25 70t26.5 48t31 31t34.5 9q30 0 44 -21t14 -49q0 -61 -82 -256q-73 -173 -104 -273q13 -65 70 -103t118 -38q99 0 171 110q22 34 52 107t42 112l114 395q39 10 82 10q42 0 76 -19l-101 -344 q-9 -28 -16 -74.5t-7 -66.5q0 -84 34 -142t77 -58q86 0 152 109q12 20 18 29.5t14.5 21t15 16t12.5 4.5q30 0 30 -42q0 -27 -19.5 -74t-50 -94t-75 -81.5t-88.5 -34.5q-41 0 -73.5 25.5t-51.5 68t-30 84t-16 87.5l-16 7q-17 -41 -44.5 -85t-66 -87.5t-89.5 -71.5t-103 -28 q-51 0 -96 19t-75.5 49t-49 55.5t-29.5 48.5l-14 -3q-23 -189 -23 -483q0 -219 -89 -219q-37 0 -62 29t-25 87z" />
<glyph unicode="&#x2000;" horiz-adv-x="982" />
<glyph unicode="&#x2001;" horiz-adv-x="1964" />
<glyph unicode="&#x2002;" horiz-adv-x="982" />
<glyph unicode="&#x2003;" horiz-adv-x="1964" />
<glyph unicode="&#x2004;" horiz-adv-x="654" />
<glyph unicode="&#x2005;" horiz-adv-x="491" />
<glyph unicode="&#x2006;" horiz-adv-x="327" />
<glyph unicode="&#x2007;" horiz-adv-x="327" />
<glyph unicode="&#x2008;" horiz-adv-x="245" />
<glyph unicode="&#x2009;" horiz-adv-x="392" />
<glyph unicode="&#x200a;" horiz-adv-x="109" />
<glyph unicode="&#x2010;" horiz-adv-x="900" d="M136 358v132h628v-132h-628z" />
<glyph unicode="&#x2011;" horiz-adv-x="900" d="M136 358v132h628v-132h-628z" />
<glyph unicode="&#x2012;" horiz-adv-x="900" d="M136 358v132h628v-132h-628z" />
<glyph unicode="&#x2013;" horiz-adv-x="1120" d="M72 444v96h976v-96h-976z" />
<glyph unicode="&#x2014;" horiz-adv-x="2176" d="M72 444v96h2032v-96h-2032z" />
<glyph unicode="&#x2018;" horiz-adv-x="528" d="M116 1129q0 52 23.5 117t64.5 113q65 76 175 129l23 -39q-88 -45 -138 -99q-60 -65 -60 -142q0 -48 34 -77q21 -18 71 -21q37 -2 63.5 -29.5t26.5 -66.5q0 -49 -32 -78.5t-78 -29.5q-72 0 -121 61q-52 65 -52 162z" />
<glyph unicode="&#x2019;" horiz-adv-x="528" d="M126 945q88 45 138 99q60 65 60 142q0 48 -34 77q-21 18 -71 21q-37 2 -63.5 29.5t-26.5 66.5q0 49 32 78.5t78 29.5q72 0 121 -61q52 -65 52 -162q0 -52 -23.5 -117t-64.5 -113q-65 -76 -175 -129z" />
<glyph unicode="&#x201a;" horiz-adv-x="528" d="M126 0zM126 -297q88 45 138 99q60 65 60 142q0 48 -34 77q-21 18 -71 21q-37 2 -63.5 29.5t-26.5 66.5q0 49 32 78.5t78 29.5q72 0 121 -61q52 -65 52 -162q0 -52 -23.5 -117t-64.5 -113q-65 -76 -175 -129z" />
<glyph unicode="&#x201c;" horiz-adv-x="924" d="M116 906zM116 1129q0 52 23.5 117t64.5 113q65 76 175 129l23 -39q-88 -45 -138 -99q-60 -65 -60 -142q0 -48 34 -77q21 -18 71 -21q37 -2 63.5 -29.5t26.5 -66.5q0 -49 -32 -78.5t-78 -29.5q-72 0 -121 61q-52 65 -52 162zM512 1129q0 52 23.5 117t64.5 113 q65 76 175 129l23 -39q-88 -45 -138 -99q-60 -65 -60 -142q0 -48 34 -77q21 -18 71 -21q37 -2 63.5 -29.5t26.5 -66.5q0 -49 -32 -78.5t-78 -29.5q-72 0 -121 61q-52 65 -52 162z" />
<glyph unicode="&#x201d;" horiz-adv-x="924" d="M126 906zM126 945q88 45 138 99q60 65 60 142q0 48 -34 77q-21 18 -71 21q-37 2 -63.5 29.5t-26.5 66.5q0 49 32 78.5t78 29.5q72 0 121 -61q52 -65 52 -162q0 -52 -23.5 -117t-64.5 -113q-65 -76 -175 -129zM522 945q88 45 138 99q60 65 60 142q0 48 -34 77 q-21 18 -71 21q-37 2 -63.5 29.5t-26.5 66.5q0 49 32 78.5t78 29.5q72 0 121 -61q52 -65 52 -162q0 -52 -23.5 -117t-64.5 -113q-65 -76 -175 -129z" />
<glyph unicode="&#x201e;" horiz-adv-x="924" d="M126 0zM126 -297q88 45 138 99q60 65 60 142q0 48 -34 77q-21 18 -71 21q-37 2 -63.5 29.5t-26.5 66.5q0 49 32 78.5t78 29.5q72 0 121 -61q52 -65 52 -162q0 -52 -23.5 -117t-64.5 -113q-65 -76 -175 -129zM522 -297q88 45 138 99q60 65 60 142q0 48 -34 77 q-21 18 -71 21q-37 2 -63.5 29.5t-26.5 66.5q0 49 32 78.5t78 29.5q72 0 121 -61q52 -65 52 -162q0 -52 -23.5 -117t-64.5 -113q-65 -76 -175 -129z" />
<glyph unicode="&#x2022;" horiz-adv-x="1103" d="M324 688q0 99 64.5 163.5t163.5 64.5t163.5 -64.5t64.5 -163.5t-64.5 -163.5t-163.5 -64.5t-163.5 64.5t-64.5 163.5z" />
<glyph unicode="&#x2026;" horiz-adv-x="1584" d="M136 0zM136 104q0 54 37 91t91 37t91 -37t37 -91t-37 -91t-91 -37t-91 37t-37 91zM664 104q0 54 37 91t91 37t91 -37t37 -91t-37 -91t-91 -37t-91 37t-37 91zM1192 104q0 54 37 91t91 37t91 -37t37 -91t-37 -91t-91 -37t-91 37t-37 91z" />
<glyph unicode="&#x202f;" horiz-adv-x="392" />
<glyph unicode="&#x2039;" horiz-adv-x="646" d="M182 420l334 376l34 -26l-216 -350l216 -350l-34 -26z" />
<glyph unicode="&#x203a;" horiz-adv-x="646" d="M96 70l216 350l-216 350l34 26l334 -376l-334 -376z" />
<glyph unicode="&#x2044;" horiz-adv-x="220" d="M-382 -16l896 1492h88l-898 -1492h-86z" />
<glyph unicode="&#x205f;" horiz-adv-x="491" />
<glyph unicode="&#x2074;" horiz-adv-x="660" d="M22 900v47l411 533h47v-496h79q45 0 81 11v-105q-38 10 -81 10h-79v-166q0 -43 11 -78h-131q12 38 12 78v166h-350zM103 984h269v349z" />
<glyph unicode="&#x20ac;" horiz-adv-x="1600" d="M110 806l18 112h196q56 255 246 412.5t430 157.5q145 0 264 -54t198 -130l-40 -118q-103 95 -202.5 142.5t-219.5 47.5q-197 0 -344 -128.5t-200 -329.5h872l-38 -112h-854q-4 -33 -4 -76t4 -76h800l-38 -112h-742q53 -201 200 -329.5t344 -128.5q228 0 428 191v-139 q-87 -76 -188 -120t-240 -44q-240 0 -430 157.5t-246 412.5h-206l18 112h171q-3 38 -3 76t3 76h-197z" />
<glyph unicode="&#x2122;" horiz-adv-x="2280" d="M62 1227l48 233h804l48 -233l-41 -10q-44 83 -91 127q-64 60 -139 60h-109v-736q0 -50 50 -50h108v-60q-3 0 -97 2t-128 2t-131 -2t-100 -2v60h108q50 0 50 50v736h-109q-75 0 -139 -60q-47 -44 -91 -127zM1046 554v64h66q39 0 64.5 26.5t25.5 65.5v644q0 50 -48 50h-108 v56h308l268 -659l266 659h318v-56h-108q-50 0 -50 -50v-686q0 -50 50 -50h108v-60q-3 0 -97 2t-128 2t-131 -2t-100 -2v60h108q50 0 50 50v630h-18l-293 -727h-30l-294 723h-7v-584q0 -39 25.5 -65.5t64.5 -26.5h66v-64q-3 0 -83.5 1t-103.5 1t-105 -1t-84 -1z" />
<glyph unicode="&#x2212;" d="M62 466v96h1028v-96h-1028z" />
<glyph unicode="&#xe000;" horiz-adv-x="900" d="M0 900h900v-900h-900v900z" />
<glyph unicode="&#xeb74;" horiz-adv-x="880" d="M164 1208q0 42 27 69t69 27t69 -27t27 -69t-27 -69t-69 -27t-69 27t-27 69zM524 1208q0 42 27 69t69 27t69 -27t27 -69t-27 -69t-69 -27t-69 27t-27 69z" />
<glyph unicode="&#xeff3;" horiz-adv-x="880" d="M174 1762q0 90 75 146t191 56t191 -56t75 -146t-75 -146t-191 -56t-191 56t-75 146zM238 1762q0 -61 54 -99.5t148 -38.5t148 38.5t54 99.5t-54 99.5t-148 38.5t-148 -38.5t-54 -99.5z" />
<glyph unicode="&#xeff5;" horiz-adv-x="880" d="M24 1667q44 74 108 124.5t144 50.5q95 0 202 -47q38 -16 60 -24.5t60 -16.5t77 -8q29 0 56.5 17.5t42.5 35t36 48.5l46 -22q-44 -74 -108 -124.5t-144 -50.5q-98 0 -203 48q-106 48 -196 48q-29 0 -56.5 -17.5t-42.5 -35t-36 -48.5z" />
<glyph unicode="&#xeff7;" horiz-adv-x="880" d="M84 1614q224 168 324 298h64q100 -130 324 -298l-22 -34l-334 188l-334 -188z" />
<glyph unicode="&#xf6c9;" horiz-adv-x="880" d="M290 1609l256 239q69 64 130 64q27 0 44.5 -22t17.5 -48q0 -61 -112 -114l-314 -148z" />
<glyph unicode="&#xf6cb;" horiz-adv-x="880" d="M104 1746q0 36 25.5 60t61.5 24t61.5 -24t25.5 -60t-25.5 -63t-61.5 -27t-61.5 27t-25.5 63zM602 1746q0 36 25.5 60t61.5 24t61.5 -24t25.5 -60t-25.5 -63t-61.5 -27t-61.5 27t-25.5 63z" />
<glyph unicode="&#xf6ce;" horiz-adv-x="880" d="M142 1842q0 26 17.5 48t44.5 22q61 0 130 -64l256 -239l-22 -29l-314 148q-112 53 -112 114z" />
<glyph horiz-adv-x="1578" d="M0 0z" />
</font>
</defs>
</svg>
