<?xml version="1.0" standalone="no"?>
<!DOCTYPE svg PUBLIC "-//W3C//DTD SVG 1.1//EN" "http://www.w3.org/Graphics/SVG/1.1/DTD/svg11.dtd" >
<svg xmlns="http://www.w3.org/2000/svg">
<metadata></metadata>
<defs>
<font id="slinglight" horiz-adv-x="326" >
<font-face units-per-em="1175" ascent="940" descent="-235" />
<missing-glyph horiz-adv-x="500" />
<glyph horiz-adv-x="1175" />
<glyph horiz-adv-x="1175" />
<glyph unicode="&#xd;" />
<glyph unicode=" " />
<glyph unicode="!" horiz-adv-x="449" d="M227 97q22 0 40 -18t18 -39q0 -23 -18 -41t-40 -18t-40.5 17.5t-18.5 40.5q0 21 17.5 39.5t41.5 18.5zM350 781l2 -30l-71 -14l-30 -488h-53l-32 487l-66 13l-3 31l133 -3z" />
<glyph unicode="&#x22;" horiz-adv-x="469" d="M329 736l-12 -173q-6 -57 -25 -57q-15 0 -26 57l-12 173q0 22 11 42q10 15 27 17q15 0 26 -17t11 -42zM200 736l-12 -173q-6 -57 -25 -57q-15 0 -26 57l-12 173q0 22 11 42q10 15 27 17q15 0 26 -17t11 -42z" />
<glyph unicode="#" horiz-adv-x="651" d="M55 301h130l24 175h-118v50h125l34 253h56l-34 -253h154l34 253h56l-34 -253h116v-50h-123l-24 -175h111v-49h-118l-34 -252h-56l34 252h-154l-34 -252h-56l34 252h-123v49zM241 301h154l24 175h-154z" />
<glyph unicode="$" horiz-adv-x="651" d="M359 876v-111q59 0 118.5 -13t112.5 -35l-21 -67l-15 -67l-29 2l-2 33v20l-3 21q-7 6 -63 27q-23 9 -47.5 14.5t-50.5 5.5v-262l13 -3q128 -35 187 -88q56 -50 56 -122q0 -94 -84 -157q-64 -47 -172 -59v-169h-49v167q-73 0 -136 10q-32 6 -65 17.5t-74 32.5l33 132l32 1 l7 -72q20 -20 86 -46q29 -10 58.5 -16.5t58.5 -6.5v306q-125 35 -187 73q-65 41 -65 114q0 92 82 149q67 47 170 56v113h49zM310 459v247q-31 0 -58 -9t-50 -25q-48 -34 -48 -92q0 -61 72 -90zM359 356v-289q65 7 104 36q52 41 52 110q0 64 -55 98q-36 23 -101 45z" />
<glyph unicode="%" horiz-adv-x="876" d="M711 795l84 17l-626 -827l-90 -20zM224 795q88 0 145.5 -60.5t57.5 -149.5q0 -95 -54 -156.5t-142 -61.5q-92 0 -151 60t-59 154q0 91 58 152.5t145 61.5zM226 755q-53 0 -90 -41.5t-37 -104.5q0 -92 34.5 -146t101.5 -54q55 0 88 45q31 48 31 125q0 75 -37 125.5 t-91 50.5zM652 410q89 0 146 -61t57 -150q0 -95 -54 -156.5t-142 -61.5q-92 0 -151 60t-59 154q0 91 58 153t145 62zM653 370q-53 0 -91 -42q-35 -43 -35 -105q0 -92 34.5 -146t101.5 -54q56 0 88 45q31 48 31 125q0 76 -37 126.5t-92 50.5z" />
<glyph unicode="&#x26;" horiz-adv-x="957" d="M787 429q-13 -88 -53 -172q-14 -28 -31 -57t-34 -49q87 -59 190 -97l73 21l10 -29l-131 -65q-63 25 -112 56q-34 21 -43 27q-13 9 -43 31q-49 -43 -105 -74q-67 -40 -168 -40q-121 0 -193.5 75t-72.5 160q0 50 10.5 86t34.5 65q42 55 142 93l-19 37q-14 34 -14 70 q0 109 68 168t181 59q58 0 99.5 -35t41.5 -99q0 -69 -64 -124q-59 -50 -187 -84q61 -87 108 -134q34 -37 71 -70t81 -66q38 45 65 124q8 27 13 52t5 45q0 10 -1.5 20.5t-5.5 24.5l-61 -7l-6 24q34 12 77 33q23 11 34 17.5t41 24.5l3 -56q0 -30 -4 -55zM344 488q99 27 142 63 q50 38 50 94q0 46 -27.5 70.5t-71.5 24.5q-50 0 -89.5 -36.5t-39.5 -103.5q0 -46 36 -112zM284 417q-44 -21 -78 -57q-19 -22 -28.5 -48.5t-9.5 -58.5q0 -92 63.5 -151t145.5 -59q68 0 122 29q40 19 73 51q-38 28 -78.5 62.5t-79.5 74.5q-43 43 -73.5 80t-56.5 77z" />
<glyph unicode="'" d="M199 736l-12 -173q-6 -57 -25 -57q-15 0 -26 57l-12 173q0 22 11 42q10 15 27 17q15 0 26 -17t11 -42z" />
<glyph unicode="(" horiz-adv-x="387" d="M215 287q0 -161 48 -293.5t87 -173.5l-30 -27q-55 52 -122 187.5t-67 306.5q0 174 66 307.5t123 187.5l30 -26q-38 -41 -86.5 -175.5t-48.5 -293.5z" />
<glyph unicode=")" horiz-adv-x="387" d="M173 287q0 160 -48.5 291.5t-89.5 177.5l30 26q56 -51 123.5 -186t67.5 -309q0 -88 -16 -162.5t-52 -144.5q-66 -134 -123 -187l-30 27q40 41 89 177q23 64 36 138.5t13 151.5z" />
<glyph unicode="*" horiz-adv-x="572" d="M287 584q-28 -54 -43 -88l-24 -64q-13 6 -22.5 11t-20.5 14q-20 14 -36 34q16 11 21 15q17 13 32 26l70 69l-97 13l-68 3q0 12 1 19t9 30q5 22 21 45q29 -23 57 -38l86 -45q-5 28 -9 54.5t-9 49t-17 58.5q25 5 49 5q13 0 25.5 -1t24.5 -4q-1 -4 -9.5 -33t-9.5 -33 l-17 -96q29 15 51.5 26t34.5 19q30 15 57 38q14 -22 21 -45t10 -49l-69 -3q-11 0 -27 -2q-42 -7 -69 -11l70 -69l53 -41l-36 -34q-18 -13 -43 -25q-10 33 -24 64q-7 17 -16 35.5t-27 52.5z" />
<glyph unicode="+" horiz-adv-x="660" d="M304 309v249h55v-249h250v-55h-250v-252h-55v252h-252v55h252z" />
<glyph unicode="," d="M194 91l45 7q0 -46 -31 -130.5t-88 -157.5l-33 18q30 77 43.5 135t13.5 127z" />
<glyph unicode="-" horiz-adv-x="469" d="M78 345h57l285 2l-29 -62h-58l-285 -1z" />
<glyph unicode="." d="M162 98q22 0 40 -18t18 -40q0 -24 -18 -41.5t-40 -17.5t-40.5 17.5t-18.5 41.5q0 21 17.5 39.5t41.5 18.5z" />
<glyph unicode="/" horiz-adv-x="652" d="M41 -35l494 847l82 15l-494 -847z" />
<glyph unicode="0" horiz-adv-x="651" d="M602 388q0 -184 -73.5 -295t-203.5 -111q-129 0 -203 111.5t-74 294.5q0 182 72.5 294.5t204.5 112.5q130 0 203 -111q37 -56 55.5 -129.5t18.5 -166.5zM508 388q0 166 -46.5 263t-136.5 97t-136.5 -97t-46.5 -263q0 -165 46 -261.5t137 -96.5q89 0 136 96t47 262z" />
<glyph unicode="1" horiz-adv-x="651" d="M373 228l5 -189l75 -13v-29l-127 3l-128 -3v29l77 13l3 188v349l-3 130h-97v29q18 4 39.5 11t43.5 15q34 14 39 16q14 6 37 18h38l-2 -254v-313z" />
<glyph unicode="2" horiz-adv-x="651" d="M26 -3l-17 46q39 27 76.5 57.5t76.5 65.5q71 67 134 137q38 42 90.5 122.5t52.5 169.5q0 64 -37.5 104.5t-96.5 40.5q-54 0 -95.5 -16.5t-58.5 -34.5l2 -75l-31 -7l-35 137q16 8 51 20l38 14q56 17 117 17q111 0 180 -58t69 -148q0 -87 -71 -185q-35 -49 -65 -84t-54 -58 q-54 -55 -108 -101q-22 -19 -56 -45q-26 -20 -59 -43l126 -5q55 0 77.5 1.5t71.5 6.5q36 0 65 4.5t34 5.5l38 64l27 -5q-7 -33 -10.5 -45.5t-7.5 -26.5t-8.5 -38.5t-6.5 -37.5l-257 3z" />
<glyph unicode="3" horiz-adv-x="651" d="M173 650l-27 -9q-10 42 -28 75l-16 31l73 29q48 19 132 19q90 0 146.5 -47t56.5 -121q0 -52 -34.5 -98.5t-124.5 -70.5q136 0 188.5 -57t52.5 -135q0 -115 -97.5 -199.5t-227.5 -84.5q-50 0 -91 10.5t-73 32.5q-61 45 -85 92l117 73l11 -18l-28 -42q15 -34 58 -64 t112 -30q85 0 144 60t59 147q0 77 -46 125t-146 48l-76 -10l-10 40q73 19 138 58.5t65 117.5q0 56 -30 87t-86 31q-54 0 -85 -17l-27 -13.5t-20 -12.5z" />
<glyph unicode="4" horiz-adv-x="651" d="M474 229l6 -189l69 -12v-30l-119 3l-141 -3v30l93 12l4 188v7h-327l-34 51l192 286q101 150 182 283h56l10 -17l-182 -269q-52 -77 -88 -133q-16 -25 -89 -139h280v344l79 37l16 -14l-7 -83v-284h13q22 0 32 1.5t28 7.5l32 11l13 -16l-25 -40q-6 -10 -11.5 -16.5 t-8.5 -9.5h-73v-6z" />
<glyph unicode="5" horiz-adv-x="651" d="M296 777h24h20h17h14h12q20 0 38 1t33 4q29 0 43 2.5t48 10.5l15 -15l-39 -36l-33 -40h-273l-54 -274q35 25 79.5 38.5t86.5 13.5q117 0 191.5 -66.5t74.5 -171.5t-89 -183.5t-209 -78.5q-105 0 -172 52t-92 121l118 73l17 -22l-39 -48q14 -48 59 -85t121 -37 q81 0 135.5 56t54.5 141q0 81 -54.5 134t-137.5 53q-22 0 -45.5 -5.5t-47 -16t-43 -22t-35.5 -26.5l-45 31l73 386l20 13z" />
<glyph unicode="6" horiz-adv-x="651" d="M598 246q0 -108 -79 -186t-188 -78q-120 0 -198.5 82.5t-78.5 241.5q0 195 143.5 349t336.5 221l17 -40q-229 -96 -330 -257q-64 -105 -74 -223q10 21 25 38.5t39 36.5q65 51 151 51q98 0 167 -69t69 -167zM155 239q0 -96 55 -152.5t126 -56.5q79 0 123 51.5t44 139.5 q0 87 -44.5 143t-118.5 56q-83 0 -134 -51t-51 -130z" />
<glyph unicode="7" horiz-adv-x="651" d="M592 736q-114 -149 -196 -345q-43 -106 -65 -195q-25 -102 -25 -198q-38 -13 -60 -31t-44 -44l-26 13q55 259 155 471q50 105 93 177t84 118l-141 3h-37q-94 0 -183 -10l-30 -67l-29 10l31 142h449z" />
<glyph unicode="8" horiz-adv-x="651" d="M286 384q-48 -23 -92 -66q-47 -42 -47 -116q0 -73 50 -121q51 -45 131 -45q74 0 125 43.5t51 109.5q0 84 -83 129t-135 66zM323 747q-60 0 -102 -38t-42 -94q0 -65 53 -105.5t101 -57.5q46 19 90.5 57t44.5 99q0 60 -41.5 99.5t-103.5 39.5zM242 407q-80 30 -112 78.5 t-32 101.5q0 89 66.5 148.5t168.5 59.5q49 0 87.5 -12t69.5 -39q59 -50 59 -135q0 -65 -40.5 -108.5t-130.5 -70.5q103 -28 158 -84t55 -127q0 -102 -78 -169.5t-198 -67.5q-107 0 -182 63t-75 151q0 75 47 131q44 52 137 80z" />
<glyph unicode="9" horiz-adv-x="651" d="M54 525q0 116 75.5 193t192.5 77q115 0 195.5 -82t80.5 -234q0 -185 -137 -345t-342 -234l-19 41q212 87 321 247q40 58 61.5 115.5t21.5 116.5q-36 -59 -84 -89q-56 -35 -128 -35q-101 0 -169.5 66t-68.5 163zM496 540q0 96 -53.5 151.5t-125.5 55.5q-78 0 -123 -50.5 t-45 -136.5q0 -90 44.5 -147t121.5 -57q71 0 126 48.5t55 135.5z" />
<glyph unicode=":" d="M162 453q22 0 40 -18t18 -40q0 -24 -18 -41.5t-40 -17.5t-40.5 17.5t-18.5 41.5q0 21 17.5 39.5t41.5 18.5zM162 98q22 0 40 -18t18 -40q0 -24 -18 -41.5t-40 -17.5t-40.5 17.5t-18.5 41.5q0 21 17.5 39.5t41.5 18.5z" />
<glyph unicode=";" d="M179 453q22 0 40 -18t18 -40q0 -24 -18 -41.5t-40 -17.5t-40.5 17.5t-18.5 41.5q0 21 17.5 39.5t41.5 18.5zM194 91l45 7q0 -46 -31 -130.5t-88 -157.5l-33 18q30 77 43.5 135t13.5 127z" />
<glyph unicode="&#x3c;" horiz-adv-x="660" d="M121 279l487 -222v-68l-556 261v59l556 261v-68z" />
<glyph unicode="=" horiz-adv-x="660" d="M52 362v55h554v-55h-554zM52 142v55h554v-55h-554z" />
<glyph unicode="&#x3e;" horiz-adv-x="660" d="M52 57l487 222l-487 223v68l556 -261v-59l-556 -261v68z" />
<glyph unicode="?" horiz-adv-x="550" d="M257 795q117 0 175 -53.5t58 -129.5q0 -53 -64 -116q-60 -60 -166 -91l-11 -135l-42 -13l-33 172l19 22q97 18 145 68t48 106q0 46 -34.5 78t-91.5 32q-45 0 -88 -22l-42 -21l2 -64l-24 -9l-40 102q-3 7 -9 18q-1 2 -4 7q7 4 35 15t41 16q54 18 126 18zM221 98 q23 0 40.5 -17.5t17.5 -39.5q0 -24 -17.5 -41.5t-40.5 -17.5q-21 0 -42 18q-16 16 -16 40q0 23 17 40.5t41 17.5z" />
<glyph unicode="@" horiz-adv-x="660" d="M344 597q128 0 209 -72.5t81 -171.5q0 -92 -53.5 -160t-113.5 -68q-21 0 -41.5 12.5t-31.5 50.5q-13 -18 -43 -41q-15 -10 -30.5 -15.5t-33.5 -5.5q-32 0 -56.5 29.5t-24.5 83.5q0 68 52.5 137.5t127.5 69.5q16 0 31.5 -10t25.5 -39l5 33h65l-58 -218q-1 -4 -2.5 -11.5 t-2.5 -14.5q0 -13 8 -21q15 -12 29 -12q36 0 77 59t41 143q0 87 -74 153.5t-184 66.5q-104 0 -181 -83t-77 -200q0 -119 79.5 -199t177.5 -80q63 0 110.5 13t71.5 32l11 -20q-15 -15 -68 -31.5t-120 -16.5q-141 0 -233 92t-92 214q0 118 91.5 209.5t226.5 91.5zM399 416 q-55 0 -96 -66t-41 -135q0 -30 16.5 -43t34.5 -13q47 0 82.5 69.5t35.5 118.5q0 20 -1.5 28t-7.5 21q-6 20 -23 20z" />
<glyph unicode="A" horiz-adv-x="835" d="M527 363l-127 349l-123 -349l125 -3zM811 25v-29l-128 3l-127 -2v29l75 13l-86 269l-140 3l-145 -3l-81 -269l75 -13v-29l-114 3l-114 -3v29l58 13q66 158 140 358q21 60 42.5 120t42.5 120l42 120l42 13q16 6 31.5 12.5t26.5 12.5l24 -13q29 -86 62.5 -182t68.5 -190 q29 -78 71 -184q38 -97 75 -187z" />
<glyph unicode="B" horiz-adv-x="754" d="M221 395v-322l85 -17l83 -8q106 0 165.5 50t59.5 147q0 87 -63.5 123.5t-190.5 36.5q-11 0 -34.5 -1t-36.5 -1q-30 0 -68 -8zM173 0l-127 -3v29l68 13q3 7 5.5 25.5t2.5 43.5l3 97v367l-9 166l-68 12v30l125 -3l232 6q114 0 175 -42t61 -129q0 -58 -39 -105 q-19 -22 -53 -37.5t-87 -27.5q127 0 193 -51.5t66 -126.5q0 -122 -86.5 -196t-229.5 -74zM221 458l96 -4q101 0 158 38q59 36 59 108q0 70 -42.5 99.5t-129.5 29.5l-141 -7v-264z" />
<glyph unicode="C" horiz-adv-x="754" d="M142 396q0 -143 90 -243t221 -100q73 0 134.5 31.5t120.5 82.5l28 -28q-33 -36 -69.5 -64t-80.5 -51q-83 -43 -175 -43q-154 0 -261.5 118.5t-107.5 288.5q0 176 127.5 291.5t320.5 115.5q74 0 124.5 -11.5t88.5 -31.5l9 -3q-15 -43 -23 -78q-3 -12 -8 -34t-9 -44l-25 3 l-9 85q-19 14 -42.5 24t-50.5 17q-30 6 -52.5 9t-52.5 3q-135 0 -216.5 -93t-81.5 -245z" />
<glyph unicode="D" horiz-adv-x="856" d="M702 413q0 143 -80 229.5t-219 86.5h-36.5t-50.5 -4q-21 0 -36.5 -3t-50.5 -12v-638q44 -11 83 -17q23 -3 42.5 -5t41.5 -2q145 0 226 97q39 48 59.5 115.5t20.5 152.5zM124 572l-3 96q0 25 -2 43.5t-5 26.5l-67 12v30l125 -3l292 6q166 0 255.5 -98.5t89.5 -271.5 q0 -174 -119 -297t-286 -123l-232 7l-125 -3v29l67 13q1 3 4 21.5t3 47.5l3 97v367z" />
<glyph unicode="E" horiz-adv-x="713" d="M175 0l-127 -3v29l69 13l7 69q0 20 2 52t2 45v367l-10 166l-67 12v30l124 -3h430q0 -14 3 -33t8 -41q10 -45 11.5 -48.5l10.5 -24.5l-31 -10l-42 77q-5 3 -28 6.5t-57 3.5q-39 4 -81 6t-102 2h-64l-5 -63q-6 -62 -6 -146v-51h60q37 0 76 1.5t63 2.5q21 0 41 1.5t22 3.5 l19 51h29l-4 -89q0 -24 1 -44t5 -45h-32l-19 60l-201 7h-60v-140q0 -48 1 -81t5 -65l5 -63h112q53 0 77 1t73.5 6.5t75.5 9.5t33 5l48 92l28 -12q-5 -16 -11 -37t-11.5 -45t-8 -40.5t-2.5 -34.5h-472z" />
<glyph unicode="F" horiz-adv-x="631" d="M220 205l3 -97q0 -30 3 -45.5t8 -23.5l93 -13v-29l-154 3l-125 -3v29l68 13l8 166v367l-8 166l-69 12v30l126 -3h407q0 -27 11 -71q8 -40 22 -70l-31 -9l-42 72q-2 1 -15 3q-34 6 -71 6q-70 7 -182 7h-41l-5 -63q-6 -62 -6 -146v-70h59l143 3q21 0 40.5 1t23.5 4l19 51 h30l-5 -87q0 -23 1 -43.5t5 -44.5h-32l-19 57l-206 7h-60z" />
<glyph unicode="G" horiz-adv-x="835" d="M147 388q0 -142 89.5 -243t217.5 -101q66 0 116 18q25 9 43.5 17.5t34.5 18.5v134l-3 124l-88 13v28h236v-27l-48 -15l-1 -250l44 -24q-70 -40 -158.5 -70t-187.5 -30q-167 0 -280.5 116.5t-113.5 290.5q0 181 116.5 294t307.5 113q38 0 71 -3t65 -10q59 -13 103 -33 q-12 -35 -22 -76q-5 -20 -7 -30.5t-7 -44.5l-29 5v74q-43 24 -103 41q-29 8 -55.5 12t-58.5 4q-125 0 -203.5 -97t-78.5 -249z" />
<glyph unicode="H" horiz-adv-x="835" d="M125 572l-9 166l-68 12v30l126 -3l126 3v-30l-68 -12l-8 -70l-3 -96v-122l392 -1l1 123l-10 166l-67 12v30l124 -3l128 3v-30l-68 -12q-3 -8 -5.5 -26.5t-2.5 -43.5l-3 -96v-367l9 -166l68 -13v-29l-126 3l-126 -3v29l68 13l8 69l3 97v189l-392 1l-1 -190l10 -166l67 -13 v-29l-124 3l-128 -3v29l68 13q3 7 5.5 25.5t2.5 43.5l3 97v367z" />
<glyph unicode="I" horiz-adv-x="348" d="M221 205l10 -166l67 -13v-29l-124 3l-127 -3v29l69 13l7 69l4 97v367l-10 166l-67 12v30l124 -3l126 3v-30l-68 -12l-8 -70l-3 -96v-367z" />
<glyph unicode="J" horiz-adv-x="348" d="M129 572l-11 166l-72 12v30l130 -3l127 3v-30l-69 -12l-7 -70q0 -20 -2 -52t-2 -44v-450q0 -124 -75 -188.5t-204 -132.5l-17 33q102 58 152 129t50 246v363z" />
<glyph unicode="K" horiz-adv-x="794" d="M221 205l10 -166l67 -13v-29l-124 3l-130 -3v29l72 13l11 166v367l-4 96q0 27 -2 42.5t-5 27.5l-70 12v30l128 -3l126 3v-30l-68 -12l-8 -70l-3 -96v-117l187 140q51 39 90 69q60 49 91 73l-50 13v30l108 -3l108 3v-30l-54 -12q-105 -64 -208 -138q-81 -59 -123 -91 q-38 -29 -77 -60q62 -64 107 -110l106 -106q109 -106 213 -194l74 -14v-28l-80 -4l-80 -10q-98 108 -201 213l-212 215z" />
<glyph unicode="L" horiz-adv-x="652" d="M220 572v-301q0 -48 1 -81.5t5 -65.5l5 -62l105 -5h23q88 0 235 21l48 90l27 -10q-14 -37 -24 -79q-5 -20 -9 -39.5t-7 -39.5h-456l-127 -3v29l68 13q3 7 5.5 25.5t2.5 43.5l3 97v367l-9 166l-68 12v30l125 -3l126 3v-30l-68 -12l-8 -70z" />
<glyph unicode="M" horiz-adv-x="1038" d="M827 777l139 3v-30l-67 -12l1 -166l5 -367l6 -97q0 -55 12 -69l68 -13v-29l-132 3l-121 -3v29l67 13l7 166l-7 531l-260 -739h-79l-261 739l-3 -261v-303q0 -124 2 -133l69 -13v-29l-107 3l-119 -3v29l69 13q6 16 6 133q0 34 4 135t4 168l2 173l-3 45q0 44 -6 46l-57 11 v30l144 -3h77l237 -682l231 682h72z" />
<glyph unicode="N" horiz-adv-x="835" d="M646 122v319v27q0 92 -6 169q0 40 -3 66t-7 35l-70 12v30l119 -3l109 3v-30l-62 -12l-9 -101l-4 -196v-453h-74l-19 25l-426 636v-444q0 -13 2 -50t2 -47q0 -30 3 -45.5t9 -23.5l66 -13v-29l-116 3l-113 -3v29l64 13q4 6 7.5 25t3.5 44l5 97v379l-8 135l-5 19l-68 12v30 l118 -3h46q103 -159 218 -328q36 -54 72 -107q55 -81 73 -109q49 -74 73 -111z" />
<glyph unicode="O" horiz-adv-x="898" d="M752 388q0 152 -86.5 252t-215.5 100q-133 0 -218 -100t-85 -252q0 -151 85.5 -251.5t217.5 -100.5q129 0 215.5 99t86.5 253zM851 388q0 -175 -114 -291t-290 -116t-287.5 115t-111.5 292q0 178 114.5 292.5t290.5 114.5q177 0 287.5 -114t110.5 -293z" />
<glyph unicode="P" horiz-adv-x="672" d="M221 334v-129q0 -20 1 -44.5t4 -52.5q0 -27 2.5 -42.5t6.5 -26.5l92 -13v-29l-153 3l-127 -3v29l69 13l7 69l4 97v367l-10 166l-67 12v30l124 -3l231 6q123 0 185 -49.5t62 -154.5q0 -109 -87 -183q-43 -37 -96.5 -55.5t-118.5 -18.5h-15q-23 0 -41 3q-14 0 -25 2 q-19 5 -29 7l24 55l54 -11l55 -2q73 0 122.5 51t49.5 127q0 80 -52.5 127.5t-141.5 47.5h-31.5t-34.5 -2q-29 0 -64 -11v-327v-55z" />
<glyph unicode="Q" horiz-adv-x="898" d="M751 388q0 152 -86.5 252t-215.5 100q-133 0 -218 -100t-85 -252q0 -151 85.5 -251.5t217.5 -100.5q129 0 215.5 99t86.5 253zM843 -68l22 -17q-36 -45 -56 -83l-19 -37q-162 54 -265 92t-165 67q-103 48 -167 111l-35 31q-111 116 -111 292q0 178 114.5 292.5 t290.5 114.5t287 -114t111 -293q0 -175 -115 -292q-57 -57 -126.5 -86t-158.5 -29q10 -4 64 -20.5t76 -22.5q69 -19 119.5 -30.5t85.5 -16.5z" />
<glyph unicode="R" horiz-adv-x="754" d="M221 370v-165l10 -166l67 -13v-29l-124 3l-127 -3v29l69 13l7 69l4 97v367l-10 166l-67 12v30l124 -3l276 6q103 0 162 -50t59 -138q0 -73 -62 -136q-29 -31 -77.5 -51t-113.5 -28l147 -180q50 -58 152 -161l56 -13v-28h-32.5t-46.5 -4q-18 0 -34.5 -2.5t-42.5 -8.5 q-121 170 -170 232q-42 54 -74 92q-27 32 -54 63h-98zM222 425l114 -7q103 0 164.5 45t61.5 123q0 72 -53.5 107.5t-152.5 35.5l-69 -3q-36 -3 -65 -10v-291z" />
<glyph unicode="S" horiz-adv-x="693" d="M648 221q0 -103 -89.5 -171.5t-228.5 -68.5q-82 0 -150.5 17t-133.5 57q18 33 35 75l27 77l30 -9l-7 -80q11 -10 31 -20.5t57 -25.5q70 -29 143 -29q85 0 134.5 42.5t49.5 119.5q0 65 -59 99q-25 15 -62.5 30t-79.5 27q-135 35 -209 82q-67 47 -67 125q0 102 85.5 164.5 t218.5 62.5q74 0 134 -13.5t115 -36.5l-31 -73q-15 -40 -23 -72l-33 7l6 67q-6 10 -65.5 35t-127.5 25q-82 0 -135 -35q-50 -36 -50 -96q0 -65 67.5 -97t160.5 -57q141 -38 199 -95t58 -133z" />
<glyph unicode="T" horiz-adv-x="713" d="M403 205l10 -166l67 -13v-29l-125 3l-124 -3v29l67 13q2 7 4.5 23.5t2.5 45.5l3 97v404l-10 113q-78 0 -146 -10q-19 -3 -41 -7t-30 -8l-41 -74l-30 10l22 71q1 3 6 25.5t9 47.5h617q5 -32 7.5 -43.5t8.5 -29.5l23 -70l-31 -11l-37 72q-5 3 -31.5 8t-41.5 8 q-36 6 -69.5 8.5t-78.5 2.5l-11 -113v-404z" />
<glyph unicode="U" horiz-adv-x="835" d="M636 267v36q0 80 -2.5 187.5t-2.5 114.5q0 59 -2 90.5t-5 42.5l-76 12v30l124 -3l113 3v-30l-68 -12q-2 -10 -4 -60t-2 -73q0 -40 -2 -154t-2 -148v-41q0 -129 -77.5 -205t-212.5 -76q-149 0 -219.5 67t-70.5 211v313l-10 166l-67 12v30l124 -3l126 3v-30l-68 -12l-8 -70 l-3 -96v-265q0 -129 47.5 -191.5t153.5 -62.5q97 0 155.5 59t58.5 155z" />
<glyph unicode="V" horiz-adv-x="815" d="M583 750v30l110 -3l107 3v-30l-67 -13q-77 -180 -147 -373l-134 -377l-88 1l-66 188q-29 83 -68 188q-34 94 -70.5 185t-80.5 189l-62 11v30l127 -2l122 3v-30l-67 -12l225 -671q54 170 112 335q62 177 111 335z" />
<glyph unicode="W" horiz-adv-x="1121" d="M964 737l-67 13v30l110 -3l105 3v-30l-66 -13l-120 -375l-112 -374h-95l-75 338q-15 63 -29 127q-24 101 -53 213l-83 -339q-19 -79 -39 -168q-16 -73 -37 -171h-96l-112 374q-24 79 -57 184t-62 191l-69 13v30l129 -3l124 3v-30l-67 -10q20 -89 39.5 -168.5t42.5 -164 t46 -166.5q8 -27 49 -165q26 108 52 217q10 42 30 134q11 47 48 220q14 66 29 133h16l37 -3l35 3q33 -160 78 -352l89 -350z" />
<glyph unicode="X" horiz-adv-x="815" d="M529 750v30l118 -3l112 3v-30l-78 -9q-67 -86 -121 -161l-113 -159l283 -384l60 -11v-29l-126 3l-125 -3v29l56 14l-199 311l-197 -312l74 -10v-32l-124 3l-125 -3v29l78 13l262 356l-247 343l-69 12v30l129 -3l123 3v-29l-60 -13l173 -273l89 135l84 137z" />
<glyph unicode="Y" horiz-adv-x="754" d="M523 750v30l111 -3l104 3v-30l-61 -13l-256 -412v-120q0 -13 2 -50t2 -47q0 -53 8 -69l79 -13v-29l-138 3l-140 -3v29l81 13l7 69l5 97v121l-254 411l-62 13v30l122 -3l117 3v-30l-63 -13l201 -368l202 368z" />
<glyph unicode="Z" horiz-adv-x="734" d="M362 55q113 0 174 12q34 6 59 11.5t34 8.5l40 82l31 -9q-13 -38 -22 -81q-4 -17 -6.5 -36t-5.5 -43h-620l-12 30q42 57 86.5 116t83.5 112q71 96 84 114q19 25 82 114q31 44 80.5 115t78.5 114l-123 7q-105 0 -181.5 -9t-85.5 -17l-47 -83l-30 11l24 76l15 77h565l15 -20 q-78 -102 -130 -172q-58 -79 -126 -174q-16 -22 -81 -114q-41 -57 -81.5 -115t-80.5 -116l90 -9z" />
<glyph unicode="[" horiz-adv-x="387" d="M239 732v-888l132 -19l2 -32l-103 5l-119 -5v989l119 -4l102 4l1 -32z" />
<glyph unicode="\" horiz-adv-x="652" d="M528 -22l-487 834l82 -13l488 -834z" />
<glyph unicode="]" horiz-adv-x="387" d="M146 732l-131 18l-1 32l103 -4l117 4v-989l-117 5l-102 -5l-1 32l132 19v888z" />
<glyph unicode="^" horiz-adv-x="660" d="M162 375h-62l205 402h48l205 -402h-62l-167 330z" />
<glyph unicode="_" horiz-adv-x="550" d="M550 -286h-550v53h550v-53z" />
<glyph unicode="`" horiz-adv-x="306" d="M252 703q-11 -3 -18 -9q-10 -5 -16 -12q-21 27 -45 53q-20 22 -42 42q-17 14 -41.5 30t-53.5 31q21 3 43.5 17t37.5 29q33 -27 72 -73q19 -22 33.5 -46.5t29.5 -61.5z" />
<glyph unicode="a" horiz-adv-x="652" d="M454 327l-58 2q-56 0 -104.5 -14.5t-84.5 -38.5q-33 -24 -50 -52.5t-17 -65.5q0 -40 28 -72q31 -31 80 -31q95 0 148 74q27 38 42.5 88t15.5 110zM453 146q-53 -101 -112 -132t-113 -31q-82 0 -132.5 49t-50.5 115q0 96 101 163t260 67h53v39q0 82 -34 116 q-33 36 -103 36q-56 0 -107 -19l-53 -21l3 -62l-24 -8l-52 118q25 11 83 29t164 18q87 0 143.5 -42t56.5 -113v-274q0 -66 6 -102q6 -22 12 -35q3 -7 13 -17l46 -14v-30l-61 2l-34 1h-19.5t-22.5 -2q-10 0 -16 44q-2 22 -3 34q-4 44 -4 71z" />
<glyph unicode="b" horiz-adv-x="672" d="M177 524q44 52 90 75.5t95 23.5q114 0 181.5 -82t67.5 -214q0 -144 -90 -246q-44 -49 -98 -73.5t-120 -24.5q-59 0 -106.5 8.5t-104.5 8.5h-16l-22 -6l30 46q0 36 3 92t3 76v398l-5 198l-76 12v30l75 11q27 5 74 19h21l-2 -161v-191zM178 377v-301q14 -11 59 -29 q42 -15 99 -15q76 0 128 76t52 189q0 117 -50.5 185.5t-143.5 68.5q-67 0 -105.5 -47t-38.5 -127z" />
<glyph unicode="c" horiz-adv-x="591" d="M535 140l27 -24q-30 -41 -93.5 -87t-145.5 -46q-124 0 -201 80t-77 214q0 145 97 245.5t240 100.5q63 0 108 -16l45 -14l-39 -131l-30 6v59q-8 7 -46 24t-81 17q-93 0 -146 -70t-53 -189q0 -120 57.5 -187t161.5 -67q64 0 111 32q22 15 38.5 28.5t26.5 24.5z" />
<glyph unicode="d" horiz-adv-x="672" d="M479 91q-42 -59 -87.5 -83.5t-95.5 -24.5q-111 0 -181 83.5t-70 218.5q0 144 96 241t241 97q12 0 26 -1t28 -4q30 -3 46 -11l-6 197l-79 12v30l76 11q29 5 76 19h22l-2 -161v-492l6 -187l64 -10v-32q-35 4 -80 4h-27l-53 -1v94zM479 285v250l-48 22q-19 6 -37.5 8.5 t-46.5 2.5q-94 0 -150.5 -69t-56.5 -183t52.5 -187.5t134.5 -73.5q76 0 113 61q19 30 29 71.5t10 97.5z" />
<glyph unicode="e" horiz-adv-x="631" d="M589 145q-32 -63 -107 -114q-39 -24 -77 -36t-82 -12q-131 0 -204.5 80t-73.5 224q0 139 87 237.5t211 98.5q108 0 167 -59q61 -56 61 -159l4 -44h-435l-1 -20v-45q0 -109 56 -175t152 -66q38 0 70 9t61 28.5t49 39.5t31 37zM146 411l275 5l55 4q0 76 -34 115t-100 39 q-88 0 -147 -66q-31 -35 -49 -97z" />
<glyph unicode="f" horiz-adv-x="366" d="M207 228l6 -189l88 -13v-29l-138 3l-117 -3v29l70 13l3 188v332l-71 -6v34l71 19v35q0 99 79.5 167t161.5 68q47 0 78 -11l28 -11l-48 -121l-25 6l4 60l-35 15q-21 7 -55 7q-41 0 -72 -34q-28 -34 -28 -97v-84l124 2l-23 -54l-101 4v-330z" />
<glyph unicode="g" horiz-adv-x="652" d="M319 575q-74 0 -119.5 -50t-45.5 -133q0 -77 46 -126.5t119 -49.5q69 0 118 50q47 52 47 129q0 43 -10 73.5t-35 57.5q-43 49 -120 49zM59 396q0 95 77 161t183 66q50 0 88 -12l84 -14l139 -4l1 -18v-10l-17 -7q-15 -7 -104 -7q70 -63 70 -154t-77.5 -160t-183.5 -69 q-71 0 -113 17q-1 -10 -12 -39q-33 -93 -36 -94l36 11q20 6 56.5 10.5t87.5 4.5q110 0 188.5 -45.5t78.5 -133.5q0 -87 -93.5 -147t-216.5 -60q-108 0 -179 47t-71 110q0 36 16.5 60.5t34.5 40.5l32 -22q-8 -10 -11 -25l-3 -32q0 -35 60 -77q30 -20 69 -30t91 -10 q72 0 123.5 30.5t51.5 97.5q0 65 -87 103q-36 16 -96 16q-72 0 -182 -26l-50 55l25 56q9 20 20 52t21 67q-20 10 -32 22q-69 60 -69 169z" />
<glyph unicode="h" horiz-adv-x="693" d="M586 228l6 -189l70 -13v-29l-121 3l-46 -3v29l2 13v338q0 89 -32 131.5t-105 42.5q-77 0 -121.5 -62.5t-44.5 -165.5v-95l4 -189l68 -13v-29l-116 3l-117 -3v29l69 13l4 188v379l-6 198l-76 12v30l75 11q27 5 75 19h22l-2 -161v-202q39 48 95 79t116 31q80 0 130.5 -51 t50.5 -135v-209z" />
<glyph unicode="i" d="M101 802q0 25 17 42t45 20q25 0 43 -19q18 -17 18 -42q0 -26 -16.5 -42.5t-44.5 -19.5q-24 0 -44 18q-18 20 -18 43zM207 228l4 -189l68 -13v-29l-116 3l-117 -3v29l70 13l3 188v126l-6 198l-76 12v30q25 3 48 6.5t27 4.5l75 19h22l-2 -161v-234z" />
<glyph unicode="j" horiz-adv-x="306" d="M91 802q0 25 17 42t45 20q25 0 43 -19q16 -15 19 -42q0 -25 -19 -44q-15 -15 -43 -18q-24 0 -44 18q-18 20 -18 43zM109 353l-6 198l-75 12v30l74 11l75 19h22l-2 -161v-271l4 -144q0 -89 -7 -145q-12 -101 -209 -210l-16 31q25 16 50.5 41.5t46.5 53.5q43 59 43 194v341 z" />
<glyph unicode="k" horiz-adv-x="652" d="M24 816v30l74 11l30 6q27 8 44 13h22l-3 -161v-359l124 103q48 40 62 52q25 22 63 58l-49 11v28l206 1v-28l-67 -14l-249 -196l146 -169q74 -82 156 -165l70 -12v-27q-11 0 -36 -1t-39 -1l-75 -10q-4 3 -6 5q-8 8 -16 17l-132 155q-48 57 -82 95q-24 27 -56 60l-20 20 v-110l6 -189l69 -13v-29l-117 3l-116 -3v29l69 13l4 188v379l-6 198z" />
<glyph unicode="l" d="M39 816v30l74 11q27 5 75 19h22l-2 -161v-487l4 -189l66 -13v-29l-114 3l-117 -3v29l70 13l3 188v379l-6 198z" />
<glyph unicode="m" horiz-adv-x="1060" d="M943 228l5 -189l73 -13v-29l-122 3l-48 -3v29l4 13v332q0 88 -28.5 134t-91.5 46q-74 0 -118 -63q-21 -32 -32.5 -72.5t-11.5 -92.5v-95l6 -189l69 -13v-29l-119 3l-121 -3v29l74 13l3 188v144q0 86 -28.5 133t-93.5 47q-78 0 -120 -70q-19 -34 -30 -76.5t-11 -90.5v-86 l6 -189l69 -13v-29l-119 3l-116 -3v29l69 13l3 188v129l-5 198l-76 13v29q23 0 35 1.5t44 7.5t73 18h25l-10 -128q44 57 100 92.5t100 35.5q73 0 109 -33.5t53 -104.5q29 41 85 89.5t132 48.5q74 0 119 -51.5t45 -134.5v-209z" />
<glyph unicode="n" horiz-adv-x="713" d="M596 228l6 -189l70 -13v-29l-121 3l-46 -3v29l2 13v338q0 89 -32 131.5t-105 42.5q-77 0 -121.5 -62.5t-44.5 -165.5v-95l4 -189l68 -13v-29l-116 3l-117 -3v29l69 13l4 188v129l-6 198l-76 13v29q23 0 35 1.5t41 7.5q38 6 76 18h25l-10 -124q49 58 101.5 91t112.5 33 q80 0 130.5 -51t50.5 -135v-209z" />
<glyph unicode="o" horiz-adv-x="693" d="M647 303q0 -139 -86 -229.5t-220 -90.5q-133 0 -216 90q-39 44 -59.5 102t-20.5 128q0 139 86.5 229.5t219.5 90.5q134 0 215 -90t81 -230zM553 303q0 115 -61.5 193.5t-152.5 78.5q-93 0 -146.5 -76t-53.5 -196q0 -60 15.5 -108t46.5 -88q60 -76 152 -76t146 75.5 t54 196.5z" />
<glyph unicode="p" horiz-adv-x="672" d="M178 10v-79l4 -188l81 -13v-29l-129 3l-116 -3v29l69 13l3 188v425l-5 198l-76 13v29q22 0 33.5 1.5t44.5 7.5t75 18h25l-10 -116q21 29 44.5 51.5t49.5 36.5t49 21t51 7q109 0 174.5 -82.5t65.5 -215.5q0 -141 -87 -242q-44 -50 -100 -75t-128 -25q-27 0 -61 8 q-16 4 -30.5 8.5t-26.5 10.5zM178 80l60 -29q41 -19 92 -19q79 0 132 77q26 39 40 86.5t14 103.5q0 118 -50.5 185t-144.5 67q-70 0 -106.5 -54t-36.5 -158v-259z" />
<glyph unicode="q" horiz-adv-x="672" d="M480 100q-40 -62 -87 -89.5t-99 -27.5q-107 0 -178.5 84t-71.5 214q0 150 95 246t245 96h28.5t26.5 -3q25 0 66 -7l112 -5l2 -26q-51 -10 -52 -19v-295v-337l3 -188l69 -13v-29l-115 3l-133 -3v29l84 13l5 188v169zM479 286v250l-52 22q-15 4 -36 7t-46 3q-95 0 -150 -69 t-55 -184t52.5 -187.5t137.5 -72.5q65 0 107 56.5t42 174.5z" />
<glyph unicode="r" horiz-adv-x="448" d="M202 228l6 -189l81 -13v-29l-131 3l-116 -3v29l69 13l3 188v129l-5 198l-76 13v29q22 0 34.5 1.5t42 7.5t69.5 18h23l-9 -183q40 91 88 138q22 22 47.5 33.5t53.5 11.5q11 0 22 -2t22.5 -5.5t20.5 -10.5q-22 -41 -38 -78q-3 -7 -10 -26.5t-10 -28.5q-20 4 -24 10 q0 8 2 11q0 43 -8 46.5t-18 3.5q-55 -6 -96 -75q-19 -36 -31 -79t-12 -90v-71z" />
<glyph unicode="s" horiz-adv-x="550" d="M512 184q0 -84 -74.5 -142.5t-181.5 -58.5q-63 0 -125 20q-29 11 -55.5 24.5t-53.5 31.5l45 59l39 59l25 -13l-24 -65q21 -18 68 -41q45 -19 106 -19q60 0 105 32t45 82q0 48 -40 75q-43 27 -123 49q-96 28 -153.5 61t-57.5 112q0 80 71 126q34 23 77 35t95 12 q50 0 105 -10q29 -6 45.5 -10.5t31.5 -10.5l-45 -120l-24 8l2 54q-27 13 -64 23q-24 6 -40.5 8.5t-35.5 2.5q-65 0 -100.5 -25t-35.5 -64q0 -41 37 -69q39 -26 139.5 -52.5t147.5 -67.5q49 -38 49 -106z" />
<glyph unicode="t" horiz-adv-x="387" d="M189 219q0 -87 16.5 -125.5t56.5 -38.5q28 0 50 14t38 29l21 -21q-10 -17 -28 -36q-11 -12 -26 -26q-35 -32 -93 -32q-56 0 -89.5 38t-33.5 106v431l-70 -5v34l70 20l-6 143l99 27l-5 -171l150 2l-22 -52l-128 2v-339z" />
<glyph unicode="u" horiz-adv-x="693" d="M591 413v-195l1 -132q0 -46 4 -47l66 -13l1 -29l-60 3h-61l-44 -2l1 132q-44 -74 -100.5 -110.5t-119.5 -36.5q-76 0 -125 51t-49 133v218l-6 166l-75 12v30q19 0 35 2.5t42 8.5q41 6 76 19h21l-5 -203v-165q0 -50 7 -86.5t23 -62.5q31 -51 98 -51q81 0 131 69 q47 71 47 175v86l-5 166l-76 12v30q18 0 34.5 2.5t41.5 8.5q42 7 76 19h22z" />
<glyph unicode="v" horiz-adv-x="631" d="M570 568q-25 -60 -58 -148t-53 -142q-26 -75 -49 -143q-16 -48 -48 -148h-87l-101 289q-38 112 -63 181q-13 35 -42 110l-55 13v29l110 -3l110 3v-29l-58 -12q17 -64 35 -125t41 -133l82 -256l80 256l72 257l-56 13v29l94 -3l94 3v-29z" />
<glyph unicode="w" horiz-adv-x="978" d="M537 609q22 -81 37 -135q20 -70 41 -136l84 -272l139 502l-58 12v29l91 -3l92 3v-29l-43 -11l-105 -288q-49 -142 -93 -294h-80l-75 241q-39 114 -73 241l-146 -482h-80l-201 581l-53 12v29l109 -3l109 3v-29l-57 -12l151 -502q41 155 45 168q21 69 31 103q40 138 72 271 z" />
<glyph unicode="x" horiz-adv-x="631" d="M536 568l-188 -242l208 -287l56 -9v-33l-113 3l-113 -3v29l51 13l-137 217l-137 -217l57 -13v-29l-97 3l-97 -3v33l49 10l198 255l-196 272l-59 13v29l107 -3l108 3v-29l-40 -12l126 -205l133 204l-41 13v29l92 -3l91 3v-29z" />
<glyph unicode="y" horiz-adv-x="591" d="M419 580v29l94 -3l93 3v-29l-35 -12q-69 -149 -120 -293l-101 -292q-50 -137 -120 -214t-177 -77h-22l-21 4.5t-14 3.5t-19 8l36 130l29 -3v-51l23 -7q15 -5 33 -5q63 0 115 61.5t76 135.5l12 28h-29l-106 288q-53 148 -110 282l-53 13v29l109 -3l109 3v-29l-57 -11 l164 -514q19 59 41 129.5t38 127.5q37 128 66 256z" />
<glyph unicode="z" horiz-adv-x="631" d="M275 606h284v-38l-384 -520l141 -8q62 0 116 11q29 4 49 9t28 8l40 77l29 -9l-29 -139h-24l-222 3h-249v37l383 531l-106 -1q-45 0 -73 -3q-31 -5 -46 -7l-65 -12l-33 -84l-31 8l18 105l4 38z" />
<glyph unicode="{" horiz-adv-x="387" d="M68 287q38 17 57 42q21 24 21 73v229q0 67 31 109t123 42h25v-33h-9q-30 0 -57 -27t-27 -84v-206q0 -64 -21.5 -98.5t-64.5 -46.5q40 -9 63 -44q11 -16 17 -41t6 -59v-206q0 -56 26.5 -83.5t57.5 -27.5h9v-33h-25q-90 0 -122 43t-32 108v230q0 48 -21 72q-19 25 -57 41z " />
<glyph unicode="|" horiz-adv-x="244" d="M83 -18v894h29v-894h-29z" />
<glyph unicode="}" horiz-adv-x="387" d="M320 288q-37 -17 -58 -42.5t-21 -71.5v-230q0 -66 -31 -108.5t-123 -42.5h-25v33h10q29 0 56 27t27 84v206q0 66 22 100q24 33 65 44q-40 10 -65 44q-22 35 -22 101v206q0 55 -26 84q-29 27 -57 27h-10v33h25q91 0 122.5 -42t31.5 -109v-229q0 -46 20.5 -71.5t58.5 -42.5 z" />
<glyph unicode="~" horiz-adv-x="660" d="M211 288q-33 0 -58 -22q-14 -13 -21.5 -25t-14.5 -33l-41 41q16 35 53 66q36 28 84 28q53 0 126 -37q39 -20 64.5 -29t45.5 -9q34 0 58 23.5t36 57.5l42 -41q-9 -17 -22.5 -34.5t-31.5 -31.5q-35 -29 -83 -29q-53 0 -126 37.5t-111 37.5z" />
<glyph horiz-adv-x="1100" />
<glyph horiz-adv-x="1100" />
<glyph horiz-adv-x="1100" />
<glyph horiz-adv-x="1100" />
<glyph unicode="&#xa0;" />
<glyph unicode="&#xa1;" horiz-adv-x="695" d="M244 616q9 -9 19 -42v-13q0 -17 -7 -27t-21 -15q-12 -2 -23 6q-13 7 -23 29l-2 30q0 28 10 35l18 11q10 0 29 -14zM139 557l10 4q15 0 23 -7l7 -7l6 -11q3 -19 -16 -29l-10 -5q-10 -5 -19.5 4.5t-14.5 22.5l1 15zM87 514l8 3q21 3 33 -23q0 -12 -14 -23l-9 -4 q-10 0 -18 7q-11 6 -11 16q0 13 11 24zM52 467l6 3q12 0 18 -5l9 -15l-2 -10l-7 -11l-9 -4q-9 -3 -16 4l-9 16q-3 13 10 22zM22 417l9 3l16 -3l5 -4l4 -13q3 -3 -2 -10l-7 -8l-9 -5l-16 5q-10 1 -10 15q0 13 10 20zM54 321l-5 8q-3 26 25 62l28 36l41 33q16 12 36 22.5 t40 14.5l14 1q24 0 41 -27l7 -31q3 -20 5 -23l-6 -26l-25 -40q-5 -7 -9 -9l-7 -9l-12 -20q-1 -2 -1 -3q-3 -7 -3 -9v-15v-25q0 -4 7 -20l16 -22q7 -6 20 -23l15 -19q3 -4 6.5 -17.5t6.5 -27.5l9 -63q0 -31 -8 -48t-32 -25h-11q-23 0 -51 22l-40 43l-11 20l-7 22l-15 66 l-3 27q-1 9 -5.5 20t-10.5 20zM505 605l5 -29l-3 -22q0 -10 -15 -27q-9 -13 -23 -13q-6 0 -14 3q-21 8 -21 39l1 25q0 14 8 25q2 4 5.5 7.5t13.5 9.5q5 2 22 2q10 0 21 -20zM571 527q0 -9 -12 -20q-12 -7 -22 -7l-12 4q-7 2 -11 13v17q0 11 10.5 19t20.5 8l14 -5q5 -3 8 -12 q4 -7 4 -17zM621 489q0 -17 -32 -22l-8 3q-12 6 -12 17q0 2 2 10q8 16 27 19l10 -4q10 -3 13 -23zM654 444q-4 -16 -24 -19l-9 2q-7 3 -9 10v10q1 3 2 5.5t4 7.5q6 6 20 9l7 -4q12 -7 9 -21zM684 395l-5 -8l-4 -7l-18 -5l-7 3q-9 8 -9 17t7 20l16 5l11 -3q5 -4 6 -8z M643 319l-22 -33l-36 -52l-11 -21l-3 -18l-4 -26l-16 -66l-1 -11l-1 -11q0 -1 -1 -4.5t-7 -11.5l-19 -24l-20 -21l-24 -15q-5 -4 -21 -7l-23 -3q-24 4 -34 26l-5 22l-2 13v9v20l10 63q2 15 6 21l6 10l39 45l8 12l5 14l5 13l2 21q0 19 -5 27l-7 17l-42 52l-7 15l-2 18v10 l2 14l9 33q3 10 14 20q12 7 26 7l14 -1q13 -2 21.5 -5.5t24.5 -12.5q29 -14 56 -38q14 -10 26 -22q9 -9 22 -27q20 -25 20 -50l-1 -12z" />
<glyph unicode="&#xa2;" horiz-adv-x="688" d="M277 638q12 -21 12 -44q0 -21 -6 -29q-3 -6 -15 -18l-16 -4q-15 -3 -28 14q-11 19 -11 39q0 13 1.5 20t7.5 20q10 19 30 22q14 0 25 -20zM163 599l13 4l10 -4q17 -11 17 -30q0 -16 -16 -25l-13 -1q-14 -3 -22 7l-7 24q0 18 18 25zM107 565l7 2q11 0 19 -7.5t8 -20.5 q0 -11 -15 -20l-11 -3q-7 -3 -15 5t-8 23q0 13 15 21zM60 525l12 2q9 -4 15 -11l5 -12q0 -10 -13 -19l-7 -2q-8 -2 -17 6q-6 8 -6 18q0 12 11 18zM25 482l8 1q8 0 16 -6l4 -20q0 -9 -11 -17h-9q-9 0 -15 7q-4 7 -6 16q0 11 13 19zM40 378l-5 13q0 16 16.5 35.5t42.5 40.5 q9 8 24 17t32 18q28 14 58 22q18 2 25 2q11 0 22 -3q19 -7 25 -33l6 -32q0 -21 -6 -34t-9 -17.5t-12 -11.5l-17 -17q-19 -16 -32.5 -34t-13.5 -49q0 -22 18 -52l16 -24l9 -17l5 -27v-18t2 -22q0 -39 -13.5 -74t-43.5 -35q-15 0 -32 7q-13 7 -25 22l-34 52q-3 3 -6 20v25 l-7 67l2 27l-2 18q0 10 -5 22zM465 422l7 -22q4 -9 4 -22q0 -14 -2 -18l-7 -19q-3 -7 -10.5 -11t-18.5 -4q-18 0 -28 13.5t-10 37.5l2 23l8 20q4 10 12 15l16 5q15 0 27 -18zM543 356q0 -11 -7 -21q-8 -8 -20 -11l-13 2q-8 0 -13 9l-6 16q0 13 8 24t22 11l11 -3 q18 -5 18 -27zM598 326q0 -16 -24 -27l-11 4l-12 5q-2 2 -3 5t-1 9q0 8 7 18l20 10l9 -2q15 -3 15 -22zM641 289q0 -7 -7 -15q-5 -8 -15 -8h-9q-8 0 -11 8l-3 12q0 7 4.5 14t18.5 9h9q7 -5 9 -9zM677 246q0 -10 -7 -17l-16 -7l-9 2q-11 5 -11 18q0 18 20 24l11 -2 q9 -3 12 -18zM650 165l-18 -38l-29 -76q-2 -6 -2 -22l2 -25l-6 -83l-3 -20q-4 -14 -15 -30q-3 -6 -8.5 -14t-14.5 -19t-26 -20q-5 -3 -14 -6t-16 -4q-20 0 -36 20l-17 44l-3 20l-1 27v35q0 14 7 32l20 32l17 35l5 25q0 32 -12 48l-10 14l-39 35l-18 21q-5 3 -8 19l-1 24 l4 34q3 36 48 36q8 0 42 -8q15 -4 32 -10.5t34 -15.5q35 -16 61.5 -42t26.5 -61z" />
<glyph unicode="&#xa3;" horiz-adv-x="688" d="M277 420q12 -19 12 -43q0 -26 -11.5 -38.5t-24.5 -12.5q-15 0 -26 11.5t-14 40.5q0 23 8.5 41t30.5 21q7 0 13 -4t12 -16zM163 383l13 3q10 0 18 -10.5t9 -24.5q0 -13 -16 -25l-13 -2q-13 0 -22 9q-6 10 -7 23q0 13 18 27zM107 348l7 2q10 0 17.5 -7t9.5 -21 q0 -14 -15 -19l-11 -4q-3 -2 -14 4q-7 6 -9 23q0 14 15 22zM60 309h12q20 -5 20 -23q0 -10 -13 -20h-7q-11 0 -18 7l-5 16l2 11q4 6 9 9zM25 264l8 2q18 0 21 -24q0 -13 -12 -18l-9 -2q-7 0 -15 7q-4 5 -6 17q0 11 13 18zM40 165l-5 7q0 27 37 57l35 30l42 27l45 17 q3 2 8.5 3t11.5 2l19 1q38 0 47 -36l6 -34q3 -19 -11 -41t-33 -36l-19 -17l-15 -18q-4 -3 -9 -25q0 -12 -3 -24q0 -23 18 -52l16 -24l9 -18l4 -24l3 -41q0 -43 -13 -75.5t-44 -35.5q-11 0 -32 7q-14 6 -25 23l-20 30l-14 24q-6 14 -6 43l-7 69l2 25l-2 18q0 7 -5 24z M465 596l7 -22q4 -9 4 -20q0 -13 -2 -20l-7 -20q-3 -6 -10.5 -10t-18.5 -4q-19 0 -29 14q-6 11 -9 37l2 25l8 18q10 17 28 20q15 0 27 -18zM543 531q0 -26 -27 -34l-13 3q-10 0 -14 9l-5 18q0 12 8 22q9 8 22 9l11 -2q18 -6 18 -25zM598 500q0 -7 -7 -17q-3 -5 -17 -9l-11 1 q-13 3 -16 21q0 20 27 29l9 -2q15 -3 15 -23zM641 463q0 -17 -22 -23h-9q-7 0 -11 7l-3 13q0 19 23 23l9 -1q7 -4 10 -10t3 -9zM677 420q0 -10 -7 -18l-16 -7l-9 2q-10 4 -13 11q0 4 3 12t11 14l8 6l11 -3q9 -3 12 -17zM650 336l-18 -33l-22 -59l-7 -22l-2 -20l2 -26l-6 -83 l-3 -17q-8 -22 -20 -41q-5 -9 -12.5 -17t-17.5 -16q-16 -17 -44 -20q-24 0 -37 22l-8 20l-8 25l-3 9v7l-1 28v34q0 12 7 33l20 34l17 32q3 10 4 15t1 15q0 6 -2 18q-5 26 -19 39l-40 35l-18 22l-6 17l-3 28l4 32q3 35 48 35q7 0 27 -5l35 -10l36 -16q13 -5 27 -16l16 -12 l22 -19q33 -27 33 -56z" />
<glyph unicode="&#xa4;" horiz-adv-x="557" d="M530 650l-1 -12q-3 -7 -5 -14l-3 -7q-5 -6 -9 -11.5t-7 -6.5l-14 -11q-12 -14 -25 -14q-3 0 -9 2q-12 6 -20 25q-3 17 7 40q10 19 47 36l11 1q28 0 28 -28zM422 692l9 -7q7 -10 7 -22q0 -10 -8 -19.5t-20 -9.5l-14 2l-9 7q-6 2 -9 20q3 13 11 25l21 7zM356 708l8 -5 q6 -8 6 -18q0 -7 -6.5 -16t-17.5 -11l-9 1l-11 7q-6 6 -6 22q0 8 8 13q5 5 18 10zM296 711l7 -5q4 -4 4 -12q0 -7 -1 -11q-6 -15 -17 -15l-16 5q-4 4 -5 8q0 9 -2 11q0 13 20 21zM239 706l7 -6q0 -1 1 -1q2 -4 5 -11q0 -9 -6 -20l-14 -3h-9l-7 6q-5 4 -8 17l9 15l11 5z M177 624l4 10q11 8 27 12l38 5h26l11 -3q7 -1 8 -2l51 -14q34 -10 63 -30.5t29 -47.5q0 -14 -9 -23l-20 -24q-16 -17 -35 -25l-28 -4l-43 4l-26 -4q-24 0 -45 -25q-17 -24 -23 -49l-8 -26l-3 -12q0 -5 -4 -13l-40 -47q-13 -18 -36 -30l-35 -17l-20 -3l-14 3q-16 3 -25 25 q-5 16 -6.5 24.5t-1.5 20.5q3 29 8 38l6 22l12 21l14 17l44 50l20 19l14 16q7 9 11 19zM509 364l-2 -13l-9 -21l-13 -14q-8 -8 -13 -10q-23 -17 -41 -13q-13 6 -15 24q0 17 11 39q12 19 42 34l14 3q11 0 17 -7t9 -22zM517 249l-23 -10q-9 1 -13 4t-5 6l-9 10l-2 13 q-1 9 8.5 16.5t20.5 10.5q7 3 23 -5l8 -12v-13q0 -7 -8 -20zM534 190q-3 -3 -17 -8q-9 0 -21 7l-4 10l-3 10q0 17 28 23l17 -6l5 -9l4 -10q1 -7 -9 -17zM538 134q-3 -7 -16 -7q-9 0 -15 5l-9 18q-1 4 7 12q10 7 16 7q12 0 17 -4l5 -9q3 -7 -5 -22zM534 78l-17 -7l-15 7l-6 7 l-2 8q0 6 6 12l17 9l7 -2l8 -5l6 -7q4 -3 1 -11q-2 -8 -5 -11zM458 38l-40 -12l-58 -24l-17 -10l-17 -13l-16 -21l-51 -46l-25 -17l-19 -9l-18 -6l-20 -3l-21 -2l-24 3q-8 1 -14.5 3.5t-15.5 9.5q-12 10 -17 31l3 13l17 39l57 62l13 13q2 2 15 5l9 5l14 3q9 0 14 3l35 9 q10 3 22 15l16 21l11 19v103q0 7 9 16q4 5 7 9t11 9l22 22q13 10 25 10q10 0 20 -7q23 -12 38.5 -41t26 -68t10.5 -74v-17q0 -17 -3 -26q-1 -13 -12 -22z" />
<glyph unicode="&#xa5;" horiz-adv-x="832" d="M530 498l-1 -14q-6 -18 -20.5 -35.5t-34.5 -23.5q-3 -1 -6.5 -1h-4.5q-16 0 -23 10q-4 8 -4 30q3 19 17 34q9 16 30 24l21 3q8 0 15 -7q9 -6 11 -20zM420 538l10 -7q7 -3 7 -22q0 -9 -8 -19t-20 -10l-11 2l-10 8l-8 7l-2 14q0 11 10 19q6 7 21 9zM356 554l8 -5 q5 -3 5 -18q0 -12 -5 -18.5t-16 -8.5l-12 3l-8 5q-8 5 -8 13q0 3 2 11q6 17 24 21zM295 557l8 -5q3 -2 3 -15l-4 -16l-6 -4l-7 -3l-8 2l-9 6q-3 1 -6 7l-2 9l9 16q5 4 7 4l6 1zM239 552l7 -5l4 -16l-4 -9q-1 -5 -2 -6l-10 -7l-20 7l-5 16q3 10 6 15l14 7zM177 471l6 11 q14 7 23 9.5t19.5 4t20.5 1.5l30 -3q18 -3 23.5 -4t16.5 -5q23 -3 40 -11q12 -4 16 -6q10 -6 17 -9.5t13.5 -8.5t14.5 -14.5t12.5 -17.5t4.5 -18q0 -12 -9 -23l-20 -26l-18 -15q-9 -7 -21 -10h-94q-23 -3 -42 -26q-8 -10 -13.5 -21.5t-11.5 -29.5l-13 -47q-1 -4 -6 -11.5 t-10 -13.5l-30 -29l-36 -27l-29 -16l-19 -3q-23 0 -36.5 19.5t-13.5 43.5l1 10l13 61q2 11 9 20.5t17 16.5l46 51l18 17l11 12l15 24l23 56zM785 485v-10q-5 -14 -13 -25t-18.5 -20t-27.5 -13q-13 -1 -31 8q-7 14 -7 29q0 11 10 26q6 7 9.5 10.5t12.5 9.5l25 12l13 2 q13 3 20 -8t7 -21zM795 373l-23 -9q-7 0 -22 6l-8 12l-2 13q-2 10 6.5 16.5t26.5 10.5q9 0 20 -6l9 -26l-3 -10zM812 313q-9 -7 -19 -7h-9l-9 7l-5 8q-4 8 -4 12t5 10.5t22 9.5q9 0 16 -5l6 -8l4 -11q2 -5 -7 -16zM815 257l-18 -8l-9 4l-4 3l-6 7l-1 10l1 8l2 5l15 8 q6 0 9 -1l11 -7l4 -6l1 -8q0 -9 -5 -15zM809 202q-4 -6 -14 -7q-9 0 -17 4l-6 8q-7 7 -4 14l11 8q7 4 16 4q5 0 12 -4l8 -5q5 -3 0 -14zM732 162l-39 -14l-56 -22l-21 -12l-15 -13l-15 -21l-52 -44l-25 -20l-15 -7l-20 -5l-21 -6h-20l-28 2q-16 3 -29 15q-13 15 -13 31l1 14 l14 35l19 23l40 42l7 6l7 4l16 6l15 6l21 5l34 12q18 8 32 20q12 13 14 24l5 20l1 11v17l-3 35q0 24 3 33.5t25 30.5l23 20q11 8 24 8q8 0 16 -3q16 -9 34 -33q5 -8 13 -24q5 -9 13 -29l16 -53l5 -44q1 -5 1 -10v-9q0 -20 -7 -28l-11 -19z" />
<glyph unicode="&#xa6;" horiz-adv-x="244" d="M83 -18v334h29v-334h-29zM83 542v334h29v-334h-29z" />
<glyph unicode="&#xa8;" horiz-adv-x="808" d="M788 389q0 -160 -114 -272t-269 -112q-78 0 -148 30t-121.5 81t-85.5 123q-30 71 -30 150q0 78 30 147q16 37 35.5 65.5t48.5 56.5q50 52 120 83t150 31t148 -31q34 -15 64.5 -35t58.5 -48q49 -50 81 -122t32 -147zM739 389q0 65 -28 127q-23 58 -72 107 q-44 45 -103.5 72.5t-130.5 27.5t-129 -26t-105 -72.5t-74 -107.5t-27 -128q0 -71 27.5 -131t71.5 -105q23 -24 47 -40.5t59 -32.5q30 -12 63 -19t67 -7q132 0 236 99q46 44 72 105t26 131zM569 520q0 -17 -15 -35q-16 -16 -37 -16q-23 0 -40 14q-14 14 -14 37q0 20 15 35 q19 16 39 16q19 0 34 -14.5t18 -36.5zM344 523q0 -21 -16 -36q-8 -8 -17 -12.5t-21 -4.5q-22 0 -37 16q-16 15 -16 37q0 20 18 38q17 15 35 15q9 0 18 -4t18 -11q18 -16 18 -38zM612 410q0 -52 -13 -94q-8 -23 -17.5 -41t-24.5 -35q-23 -29 -65 -49q-20 -8 -42 -13t-47 -5 q-85 0 -150 69q-14 16 -15.5 18t-9.5 15q-14 17 -22 41l-11 44q-4 19 -4 50q0 -40 24 -69q24 -38 75 -65q53 -24 111 -24q83 0 137 43l28 23l23 23q9 14 10.5 16.5t7 18t5.5 34.5z" />
<glyph unicode="&#xa9;" horiz-adv-x="495" d="M249 780q96 0 163.5 -68t67.5 -162q0 -97 -68 -164t-163 -67q-96 0 -163 68t-67 162q0 97 68 164t162 67zM249 751q-83 0 -142 -59t-59 -142q0 -85 59 -143.5t142 -58.5t142.5 59t59.5 142t-58.5 142.5t-143.5 59.5zM351 611l-9 -2q-3 31 -25 44q-20 16 -54 16 q-50 0 -75.5 -33t-25.5 -82q0 -52 27 -85q25 -34 78 -34q34 0 56 17q9 9 16.5 18.5t12.5 20.5l9 -1l-11 -48q-3 -7 -32 -14l-60 -6q-62 0 -100 34t-38 97q0 52 42 91t107 39q16 0 24.5 -1.5t25.5 -6.5q31 -9 32 -15v-49z" />
<glyph unicode="&#xab;" horiz-adv-x="550" d="M377 315l74 -177l-35 -19l-133 196l135 195l35 -18zM194 315l73 -177l-35 -19l-133 196l135 195l36 -18z" />
<glyph unicode="&#xad;" horiz-adv-x="469" d="M78 345h57l285 2l-29 -62h-58l-285 -1z" />
<glyph unicode="&#xae;" horiz-adv-x="495" d="M212 551h30q26 0 41 15q13 16 13 38q0 32 -13.5 44t-38.5 12h-32v-109zM248 777q95 0 162 -67q34 -35 50.5 -74t16.5 -88q0 -95 -67 -162t-162 -67t-162 67t-67 162t66.5 162t162.5 67zM248 749q-83 0 -141.5 -59t-58.5 -142t59 -141.5t141 -58.5q81 0 141 59t60 141 q0 83 -58.5 142t-142.5 59zM242 428h-102v13q20 0 25.5 4t7.5 16v181q0 9 -7 16q-5 2 -10 3t-16 1v12h106q51 0 75 -18q21 -20 21 -48q0 -17 -15.5 -37.5t-45.5 -26.5l58 -80q5 -6 8.5 -10.5t8.5 -8.5t19 -8v-9h-40q-10 0 -30 25q-6 9 -24 33q-25 35 -37 53h-32v-78 q0 -10 6.5 -15t23.5 -5v-13z" />
<glyph unicode="&#xaf;" horiz-adv-x="306" d="M-12 815h330v-61h-330v61z" />
<glyph unicode="&#xb0;" horiz-adv-x="440" d="M69 652q0 62 43.5 105.5t105.5 43.5q61 0 105 -44t44 -105q0 -60 -43.5 -104.5t-105.5 -44.5t-105.5 43t-43.5 106zM127 652q0 -37 26.5 -64t64.5 -27q37 0 63 27q27 26 27 64t-27 64q-26 27 -63 27t-64 -26.5t-27 -64.5z" />
<glyph unicode="&#xb1;" horiz-adv-x="660" d="M301 356v202h58v-202h249v-57h-249v-201h-58v201h-250v57h250zM51 0v57h557v-57h-557z" />
<glyph unicode="&#xb4;" horiz-adv-x="306" d="M54 703q14 34 28.5 60t33.5 48q34 38 72 73q7 -8 15 -14.5t24.5 -16t40.5 -15.5q-54 -26 -94 -61q-17 -15 -40.5 -41t-45.5 -54l-18 12q-5 5 -16 9z" />
<glyph unicode="&#xb6;" horiz-adv-x="340" d="M125 25v298q-28 0 -50.5 9.5t-40.5 26.5q-34 31 -34 80q0 56 37 87q37 34 108 34h196v-50h-43v-485h-54v485h-68v-485h-51z" />
<glyph unicode="&#xb7;" d="M117 295v96h98v-96h-98z" />
<glyph unicode="&#xbb;" horiz-adv-x="550" d="M355 315l-73 177l34 18l134 -195l-132 -196l-34 19zM172 315l-74 177l34 18l134 -195l-132 -196l-34 19z" />
<glyph unicode="&#xbc;" horiz-adv-x="978" d="M243 453l3 -113l50 -8v-17l-84 2l-82 -2v17l49 8l3 113v209l-2 78h-63v18q26 5 54 15l49 21h25l-2 -153v-188zM194 -35l461 829l84 17l-461 -830zM864 141l3 -117l45 -7v-18l-77 2l-91 -2v18l60 7l2 112v5h-212l-22 31l124 171q70 94 119 170h36l7 -10l-234 -325h182v207 l52 22l10 -9l-4 -49v-171h8q23 0 39 6l21 6l9 -10l-30 -39h-47z" />
<glyph unicode="&#xbd;" horiz-adv-x="978" d="M243 453l3 -113l50 -8v-17l-84 2l-82 -2v17l49 8l3 113v209l-2 78h-63v18q26 5 54 15l49 21h25l-2 -153v-188zM194 -35l461 829l84 17l-461 -830zM582 -2l-12 27q51 33 99 74t88 83q24 24 58 73t34 103q0 39 -24 62q-23 24 -63 24q-37 0 -62 -11q-15 -5 -21.5 -8 t-16.5 -11l1 -45l-19 -5l-24 83q10 4 29.5 10t33 10t32.5 7t40 3q36 0 63.5 -8t51.5 -27q46 -34 46 -89q0 -50 -47 -110t-76 -86q-18 -18 -33 -31q-6 -5 -37 -30q-16 -13 -45 -32q-20 -14 -30 -20l82 -3q14 0 52 2t45 2l64 7l25 38l17 -3l-21 -89h-330z" />
<glyph unicode="&#xbe;" horiz-adv-x="978" d="M117 707l-18 -5q-6 27 -19 44l-10 19l48 17q33 12 86 12q60 0 95 -28q19 -14 28.5 -31.5t9.5 -41.5q0 -30 -23 -58t-82 -43q89 0 123 -34t34 -82q0 -69 -63.5 -119.5t-147.5 -50.5q-65 0 -106 26q-19 12 -34.5 27t-22.5 28l77 44l7 -11l-18 -25q10 -18 38 -39 q26 -17 72 -17q55 0 93.5 36t38.5 88q0 46 -30 75t-94 29l-49 -7l-7 24q49 12 90.5 36t41.5 70q0 31 -19 51t-57 20q-35 0 -56 -11l-30 -15zM213 -35l461 829l85 17l-461 -830zM864 141l3 -117l45 -7v-18l-77 2l-91 -2v18l60 7l2 112v5h-212l-22 31l124 171q70 94 119 170 h36l7 -10l-234 -325h182v207l52 22l10 -9l-4 -49v-171h8q23 0 39 6l21 6l9 -10l-30 -39h-47z" />
<glyph unicode="&#xbf;" horiz-adv-x="550" d="M295 -190q-116 0 -173 54t-57 129q0 53 61 114.5t168 92.5l10 136l41 12l33 -172l-17 -22q-50 -9 -84.5 -25t-60.5 -43q-48 -51 -48 -106q0 -45 34 -77.5t92 -32.5q43 0 84 22l43 21l-2 64l24 9l40 -103q6 -12 11 -21q1 -1 2 -3q-7 -4 -39 -16q-19 -7 -38 -15 q-53 -18 -124 -18zM331 507q-20 0 -42 17q-16 16 -16 40t17 41.5t41 17.5q23 0 40.5 -17.5t17.5 -40.5t-17 -40.5t-41 -17.5z" />
<glyph unicode="&#xc0;" horiz-adv-x="0" />
<glyph unicode="&#xc1;" horiz-adv-x="0" />
<glyph unicode="&#xc2;" horiz-adv-x="0" />
<glyph unicode="&#xc3;" horiz-adv-x="0" />
<glyph unicode="&#xc4;" horiz-adv-x="0" />
<glyph unicode="&#xc5;" horiz-adv-x="0" />
<glyph unicode="&#xc6;" horiz-adv-x="0" />
<glyph unicode="&#xc7;" horiz-adv-x="0" />
<glyph unicode="&#xc8;" horiz-adv-x="0" />
<glyph unicode="&#xc9;" horiz-adv-x="0" />
<glyph unicode="&#xca;" horiz-adv-x="891" d="M430 65h441q0 -23 -8.5 -40t-22.5 -36q-29 -35 -84 -61q-27 -14 -53 -22.5t-59 -14.5l-68 -10l-70 -3q-107 0 -188 29q-46 14 -83.5 34t-70.5 48q-65 52 -104.5 133t-39.5 181q0 103 38 182q21 40 46.5 72.5t59.5 60.5q64 53 154 82t188 29q41 0 76 -3t69 -11 q65 -13 114.5 -39t76.5 -60q29 -34 29 -72h-441v141l-380 -382l380 -380v142z" />
<glyph unicode="&#xcb;" horiz-adv-x="940" d="M920 336v-138h-641l252 -245h-198l-313 313l313 315h198l-252 -245h641z" />
<glyph unicode="&#xcc;" horiz-adv-x="936" d="M916 266q0 -94 -106 -94l-464 4l71 -68q7 -9 14.5 -18t12.5 -20q13 -21 13 -37q0 -18 -7 -33t-25 -34q-29 -31 -67 -31q-15 0 -21 3l-19 7l-18 13l-21 20l-259 288l259 288q16 19 33.5 31t45.5 16q10 0 24 -9q8 -3 13.5 -6t20.5 -13.5t28 -28.5q10 -17 13 -44 q0 -33 -40 -74l-71 -68l459 2q56 0 82 -23q29 -20 29 -71z" />
<glyph unicode="&#xcd;" horiz-adv-x="445" d="M425 567v-602h-134v-156l-271 457l271 458v-157h134z" />
<glyph unicode="&#xce;" horiz-adv-x="964" d="M944 436v-337h-31v337h31zM837 436v-337h-43v337h43zM734 436v-337h-64v337h64zM624 436v-337h-87v337h87zM512 436v-337h-205v-121h-6q-49 98 -117 169.5t-164 113.5v9l45 21l44 29q8 6 30 24q14 12 29 24q28 23 49 52q23 28 43 61l41 73h6v-118h205z" />
<glyph unicode="&#xcf;" horiz-adv-x="944" d="M925 440v-347h-614v-121l-291 281l291 309v-122h614z" />
<glyph unicode="&#xd0;" horiz-adv-x="987" d="M967 447v-362h-53v362h53zM861 447v-362h-66v362h66zM757 447v-362h-86v362h86zM650 447v-362h-112v362h112zM538 447v-362h-205v-119h-26q-20 39 -25 49q-11 20 -28.5 46t-31 43.5t-32.5 36t-34 31t-42 31.5q-29 16 -44 25q-38 22 -50 28v20q23 9 50 26q11 5 24 14 q19 13 20 13q23 17 38 30q8 7 36 35l23 26l18 19l7 11q9 15 15 21l27 43l28 52h27v-119h205zM937 110h6v313h-6v-313zM818 110h21v313h-21v-313zM692 110h42v313h-42v-313zM562 110h64v313h-64v-313zM309 110h229v313h-229v120h11q-16 -34 -20 -42q-10 -18 -26 -44 q-12 -20 -28.5 -39.5t-38.5 -40.5l-62 -51q-49 -34 -102 -65l-5 12q48 -22 88.5 -50t77.5 -66q33 -31 62.5 -73.5t53.5 -91.5h-11v118z" />
<glyph unicode="&#xd1;" horiz-adv-x="974" d="M953 450v-367h-613v-140l-320 310l320 339v-142h613zM318 107h610v320h-610v105l-266 -279l266 -253v107z" />
<glyph unicode="&#xd2;" horiz-adv-x="976" d="M634 592l322 -339l-322 -310v140h-614v367h614v142zM658 0l263 253l-263 279v-105h-612v-320h612v-107z" />
<glyph unicode="&#xd3;" horiz-adv-x="987" d="M967 276v-20q-18 -8 -37 -18q-30 -15 -55 -34q-35 -25 -76 -63l-23 -24q-5 -8 -10 -15q-6 -5 -8 -7l-23 -31l-27 -44q-6 -14 -12.5 -27t-14.5 -27h-27v119h-204v362h204v119h29q48 -103 113 -171q34 -34 75.5 -63.5t95.5 -55.5zM450 447v-362h-113v362h113zM317 447v-362 h-87v362h87zM194 447v-362h-68v362h68zM73 447v-362h-53v362h53zM951 273l-8 -12q-51 27 -86 50q-36 29 -75 66q-18 19 -35 39.5t-31.5 41t-26 41t-20.5 44.5h11v-120h-230v-313h230v-118h-11q43 95 113 165q19 19 37.5 34.5t38.5 27.5q42 30 93 54zM363 110h62v313h-62 v-313zM255 110h40v313h-40v-313zM149 110h20v313h-20v-313zM45 110h5v313h-5v-313z" />
<glyph unicode="&#xd4;" horiz-adv-x="945" d="M634 93h-614v347h614v122l292 -309l-292 -281v121z" />
<glyph unicode="&#xd5;" horiz-adv-x="964" d="M655 99h-205v337h205v118h6q21 -49 49.5 -89.5t67.5 -79.5l17 -14l20 -17l22 -18l17 -15l41 -25q19 -8 28 -13q3 -2 21 -13v-9q-20 -9 -42 -22q-29 -12 -47 -26l-21 -17l-17 -13l-39 -35q-31 -33 -60 -76q-14 -19 -28.5 -43t-28.5 -51h-6v121zM425 99h-88v337h88v-337z M295 99h-66v337h66v-337zM168 99h-42v337h42v-337zM49 99h-29v337h29v-337z" />
<glyph unicode="&#xd6;" horiz-adv-x="447" d="M154 -35h-134v602h134v157l272 -458l-272 -457v156z" />
<glyph unicode="&#xd7;" horiz-adv-x="936" d="M519 108l70 68l-459 -4q-45 0 -80 22q-30 21 -30 72q0 44 27 70q27 24 79 24l463 -2l-88 85l-11 19l-7 20l-3 18q-1 4 -1 11q0 10 7 26q10 18 24.5 31t32.5 23t34 10q23 0 41 -13q10 -6 18.5 -13.5t21.5 -20.5l257 -288l-257 -288q-17 -19 -41 -33l-40 -10q-3 -1 -10 -1 q-12 0 -26 6q-10 7 -15 11q-9 7 -16 15q-14 16 -22 34q-2 4 -4.5 14.5t-3.5 18.5q0 13 8.5 33.5t30.5 41.5z" />
<glyph unicode="&#xd8;" horiz-adv-x="941" d="M661 198h-641v138h641l-253 245h200l313 -315l-313 -313h-200z" />
<glyph unicode="&#xd9;" horiz-adv-x="891" d="M459 -77l380 380l-380 382v-141h-439q0 46 29 78q17 18 33.5 30t42.5 25q51 27 120 39.5t138 12.5q99 0 187 -29t155 -84q63 -50 107 -133q39 -80 39 -180q0 -98 -40.5 -178t-106 -133.5t-152.5 -83.5t-189 -30h-19q-10 0 -22 0.5t-32 3.5l-63 9q-21 4 -37 9t-26.5 8 t-24 8.5t-32.5 14.5q-24 13 -41.5 25t-33.5 29q-32 30 -32 80h439v-142z" />
<glyph unicode="&#xf1;" horiz-adv-x="970" d="M951 762v-964h-931v234h29l9 -14l10 14h15l31 30h31v31l17 18h30v30h17l79 80v18h32v28l16 16h32l15 18h34v47l45 47h16l16 15h27l16 -15l64 -94v-159h-17l-47 -45l32 -35h34l47 49h48v30h48l31 32h35v33h30v80l-17 17v31l-13 16v31h-35v17l-31 31h-17l-14 15l-144 97 h-65l-62 -64h-15l-62 -64h-33l-64 -63h-15l-16 -16h-14l-49 -48h-16l-15 -16h-32v-29h-17l-30 -34h-17l-29 -16v571h931z" />
<glyph unicode="&#x152;" horiz-adv-x="416" d="M395 267q0 -15 -2 -19q0 -16 -4 -24l-39 -98l-11 -1q-5 0 -13 -4l-19 -4q-13 2 -20 4.5t-13 9.5q-11 13 -18 28l-24 43l-33 59l-23 39l-8 13q-2 5 -5 7l-14 23l-27 42l-19 32l-35 53l-6 8q-2 6 -4 8l-13 14l-25 32l3 11q12 0 19 -2q11 0 22 -5q9 -2 25 -15q16 -9 33 -31 l4 -6q2 -1 4 -7l19 -34l13 -19l23 -44q2 -6 6 -13t12 -15l13 -18l10 -11l3 -7q2 -3 3.5 -6l3.5 -7l12 -20l5 -7l3 -6l30 -44l19 25l11 31l14 28h7h16l13 -4l23 -16l4 -10z" />
<glyph unicode="&#x153;" horiz-adv-x="654" d="M614 640l20 -28l-26 -34l-54 -65q-26 -30 -56 -73l-74 -104l111 -247l-14 -12v-8l-23 -18l8 -17q-1 -4 -16 -19q-9 -6 -20 -8q-3 1 -6.5 3t-11 7.5t-12.5 12.5q-9 13 -14 21l-51 83l-46 78l-103 -152q-1 -3 -20 -34l-34 -56l-33 -57l-18 -31l-20 -7l-46 -6l-23 32l-9 26 l9 32l-12 18l15 31q4 11 22 38l21 31l28 42l32 43q3 4 20 26.5t23 30.5l45 60l39 47l-88 255l14 26l16 7l7 -3l12 -8l8 9l9 -4l18 18l19 -5l87 -174l173 204h16l25 -17l27 23z" />
<glyph unicode="&#x178;" horiz-adv-x="719" d="M699 678v-675h-679v143h21l8 -9l5 9h11l27 23h19v23l12 11h23v25h12l58 56v14h23v21l10 11h25l12 13h23v33l34 34h10l13 13h21l12 -13l45 -67v-114h-10l-35 -37l21 -23h27l35 34h34v25h35l23 23h22v22h23v61l-11 11v23l-12 10v25h-22v13l-23 21h-14l-12 11l-104 69h-46 l-45 -46h-12l-44 -47h-25l-46 -46h-11l-11 -10h-10l-37 -34h-12l-11 -14h-22v-20h-13l-25 -24h-10l-21 -13v415h679z" />
<glyph unicode="&#x2c6;" horiz-adv-x="0" />
<glyph unicode="&#x2dc;" horiz-adv-x="306" d="M363 818q-23 -37 -58 -66q-17 -14 -33 -21t-34 -7q-27 0 -90 27.5t-94 27.5q-25 0 -46 -18q-12 -9 -20 -17q-4 -3 -19 -20l-24 22q23 37 56.5 65.5t68.5 28.5q15 0 36 -6t51 -20t54.5 -20.5t42.5 -8.5q24 0 44 17t21 18q9 8 20 20z" />
<glyph unicode="&#x2000;" horiz-adv-x="442" />
<glyph unicode="&#x2001;" horiz-adv-x="884" />
<glyph unicode="&#x2002;" horiz-adv-x="442" />
<glyph unicode="&#x2003;" horiz-adv-x="884" />
<glyph unicode="&#x2004;" horiz-adv-x="294" />
<glyph unicode="&#x2005;" horiz-adv-x="221" />
<glyph unicode="&#x2006;" horiz-adv-x="147" />
<glyph unicode="&#x2007;" horiz-adv-x="147" />
<glyph unicode="&#x2008;" horiz-adv-x="110" />
<glyph unicode="&#x2009;" horiz-adv-x="176" />
<glyph unicode="&#x200a;" horiz-adv-x="49" />
<glyph unicode="&#x2010;" horiz-adv-x="469" d="M78 345h57l285 2l-29 -62h-58l-285 -1z" />
<glyph unicode="&#x2011;" horiz-adv-x="469" d="M78 345h57l285 2l-29 -62h-58l-285 -1z" />
<glyph unicode="&#x2012;" horiz-adv-x="469" d="M78 345h57l285 2l-29 -62h-58l-285 -1z" />
<glyph unicode="&#x2013;" horiz-adv-x="550" d="M13 345h273l278 2l-29 -62h-273l-279 -1z" />
<glyph unicode="&#x2014;" horiz-adv-x="1100" d="M15 345h820l280 2l-29 -62h-820l-280 -1z" />
<glyph unicode="&#x2018;" d="M136 514l-49 -6q0 33 10.5 71t32.5 85q38 90 76 132l33 -18q-29 -77 -43 -128.5t-14 -133.5z" />
<glyph unicode="&#x2019;" d="M195 790l44 5q0 -34 -10 -68.5t-33 -87.5q-36 -85 -76 -132l-33 19q29 77 43 128.5t14 133.5z" />
<glyph unicode="&#x201a;" d="M195 94l44 5q0 -34 -10.5 -69.5t-32.5 -86.5q-18 -42 -37.5 -76t-38.5 -56l-33 18q29 77 43 128.5t14 133.5z" />
<glyph unicode="&#x201c;" horiz-adv-x="469" d="M319 514l-49 -6q0 32 10.5 70t31.5 86q40 90 76 132l33 -18q-8 -22 -25 -73q-13 -37 -18.5 -60t-9.5 -56t-4 -73zM98 514l-50 -6q0 34 10.5 69.5t32.5 86.5q40 90 76 132l33 -18q-29 -77 -43 -130q-6 -26 -10 -59t-4 -73z" />
<glyph unicode="&#x201d;" horiz-adv-x="469" d="M377 790l44 5q0 -33 -10.5 -70t-32.5 -86q-37 -87 -75 -132l-33 19q14 41 25.5 75t17.5 57.5t10 55.5t4 74zM156 790l44 5q0 -33 -10.5 -70t-32.5 -86q-38 -88 -76 -132l-33 19q15 41 26 73.5t17.5 57.5t10.5 57t4 74z" />
<glyph unicode="&#x201e;" horiz-adv-x="469" d="M377 94l44 5q0 -33 -10.5 -71t-32.5 -85q-37 -89 -75 -132l-33 18q14 40 25.5 74.5t17.5 58t10 55.5t4 74zM156 94l44 5q0 -33 -10.5 -71t-32.5 -85q-38 -90 -76 -132l-33 18q15 40 26 73t17.5 58t10.5 57t4 74z" />
<glyph unicode="&#x2022;" horiz-adv-x="385" d="M59 386q0 57 40.5 96.5t94.5 39.5q57 0 97 -41t40 -95q0 -55 -40 -97q-42 -40 -97 -40t-95 40.5t-40 96.5z" />
<glyph unicode="&#x2026;" horiz-adv-x="416" d="M393 543l2 -11l-23 -32l-13 -14l-46 -69l-18 -32l-29 -42l-49 -82l-46 -85l-18 -30l-16 -21q-1 -2 -28 -8q-17 0 -33 8h-7l-3 1l-23 57l-13 41l-10 33q-3 14 10 33l21 16l14 4h12h12l11 -28l4 -16l7 -14l19 -26l30 44l20 33l12 20l6 7l2 4q6 14 17 26l20 34l39 63l4 10 q1 3 2 5t4 5l8 13q13 24 43 39q33 14 56 14z" />
<glyph unicode="&#x202f;" horiz-adv-x="176" />
<glyph unicode="&#x2039;" horiz-adv-x="0" />
<glyph unicode="&#x203a;" horiz-adv-x="0" />
<glyph unicode="&#x205f;" horiz-adv-x="221" />
<glyph unicode="&#x2122;" horiz-adv-x="613" d="M236 723h-18q0 15 -9 27t-25 12h-36v-195q0 -16 3 -20t28 -7v-11h-99v11q22 0 27 5.5t5 21.5v195h-38q-13 0 -23 -11.5t-10 -27.5h-18v54h213v-54zM584 777v-12q-20 0 -27 -5q-4 -6 -4 -22v-171q0 -15 3.5 -19.5t27.5 -7.5v-11h-96v11q20 0 25 7t5 20v153l-96 -191h-9 l-96 191v-153q0 -16 3.5 -20t28.5 -7v-11h-80v11q20 0 25 7t5 20v171q0 15 -5 21t-25 6v12h59l100 -200l99 200h57z" />
<glyph unicode="&#xe000;" horiz-adv-x="610" d="M0 610h610v-610h-610v610z" />
</font>
</defs>
</svg>
