<?xml version="1.0" standalone="no"?>
<!DOCTYPE svg PUBLIC "-//W3C//DTD SVG 1.1//EN" "http://www.w3.org/Graphics/SVG/1.1/DTD/svg11.dtd" >
<svg xmlns="http://www.w3.org/2000/svg">
<metadata></metadata>
<defs>
<font id="stardos_stencilregular" horiz-adv-x="1054" >
<font-face units-per-em="2048" ascent="1638" descent="-410" />
<missing-glyph horiz-adv-x="528" />
<glyph horiz-adv-x="2048" />
<glyph horiz-adv-x="2048" />
<glyph unicode="&#xd;" horiz-adv-x="682" />
<glyph unicode=" "  horiz-adv-x="528" />
<glyph unicode="&#x09;" horiz-adv-x="528" />
<glyph unicode="&#xa0;" horiz-adv-x="528" />
<glyph unicode="!" horiz-adv-x="593" d="M247 397q-10 155 -32 347.5t-29 271.5q-18 183 -18 253.5t9 101t25 48.5q31 33 95 33t88 -26q40 -44 40 -117t-5 -144.5t-13 -150t-17.5 -160.5t-18.5 -162q-23 -204 -27 -295h-97zM376 212q51 -51 51 -91t-10 -63.5t-28 -41.5q-38 -36 -80 -36t-66.5 9.5t-42.5 26.5 q-37 36 -37 93t37 94t92.5 37t83.5 -28z" />
<glyph unicode="&#x22;" horiz-adv-x="790" d="M55 1348q0 104 88.5 104t88.5 -104q0 -25 -3.5 -56t-7.5 -69l-30 -312q-7 -57 -47 -57t-46 57l-32 312q-11 84 -11 125zM417 1452q88 0 88 -104q0 -25 -3.5 -56t-7.5 -69l-32 -312q-6 -57 -45 -57q-41 0 -48 57l-30 312q-10 95 -10 125q0 104 88 104z" />
<glyph unicode="#" horiz-adv-x="1053" d="M956 442h-204l-66 -442h-136l66 442h-238l-65 -442h-137l66 442h-206v121h223l44 295h-206v121h221l67 442h135l-64 -442h237l64 442h138l-66 -442h190v-121h-205l-44 -295h186v-121zM439 858l-45 -295h238l45 295h-238z" />
<glyph unicode="$" d="M425 1309q-99 -63 -99 -193q0 -116 110 -189q34 -22 72 -40v684h102v-727q204 -88 286 -166q104 -100 104 -254q0 -128 -86 -242q-87 -117 -220 -156v91q65 33 96.5 94t31.5 120t-16.5 97.5t-45.5 69.5q-53 58 -150 102v-764h-102v809q-277 120 -331 281 q-18 54 -18 115.5t19 116.5t54 100q71 93 192 138zM310 317q-44 -49 -49 -77q11 -76 105 -124q28 -14 58 -22v-79q-136 22 -226 109q-94 89 -94 212q0 116 83 154q25 12 67 12t74 -29t32 -92.5t-50 -63.5zM772 1255q-13 56 -78 81v76q110 -22 179 -94q67 -70 67 -155 q0 -139 -126 -139q-54 0 -85 30t-31 68.5t13.5 54t29.5 15.5q22 22 31 63z" />
<glyph unicode="%" horiz-adv-x="1496" d="M1148 29q96 41 96 330.5t-96 330.5v58q113 -17 186 -116q80 -107 80 -272t-79 -274q-72 -99 -187 -114v57zM1065 690q-92 -39 -92 -330.5t92 -330.5v-57q-112 17 -185 116q-78 106 -78 272q0 167 78 273q72 98 185 115v-58zM176 -31l1035 1483h119l-1035 -1483h-119z M441 730q96 41 96 330.5t-96 330.5v58q113 -17 187 -116q79 -107 79 -272t-79 -273q-72 -100 -187 -115v57zM358 1391q-92 -39 -92 -330.5t92 -330.5v-57q-112 17 -185 116q-78 106 -78 272q0 167 78 273q72 98 185 115v-58z" />
<glyph unicode="&#x26;" horiz-adv-x="1539" d="M633 879q172 113 172 280q0 83 -32 140t-96 72v80q136 -10 221 -89q81 -76 81 -163t-26 -144.5t-68 -104.5q-72 -79 -203 -147zM368 653q-76 -76 -76 -219q0 -128 84 -228q82 -99 208 -123v-114h-15q-214 0 -351 108q-145 113 -145 306q0 168 145 283q44 35 96 67z M1219 -25q-162 0 -287 111q-118 -91 -265 -111v102q118 9 194 73q-140 129 -225 236q-382 474 -382 712q0 144 96 242q91 94 244 110v-77q-113 -19 -113 -167q0 -170 101 -348q154 -239 358 -460q41 -45 78 -79q51 79 69 198q5 33 5 68.5t-16.5 58t-40.5 33t-51 15.5t-47 17 v65h504v-63q-27 -8 -53.5 -13.5t-51.5 -15.5q-57 -23 -86 -76q-17 -39 -33.5 -83t-35.5 -89q-46 -112 -100 -188q71 -81 100 -103q57 -43 109 -43q106 0 131 142l72 -29q-35 -166 -163 -219q-47 -19 -111 -19z" />
<glyph unicode="'" horiz-adv-x="528" d="M176 1348q0 104 87.5 104t87.5 -104q0 -30 -10 -125l-33 -312q-6 -57 -44 -57q-42 0 -48 57l-30 312q-10 95 -10 125z" />
<glyph unicode="(" horiz-adv-x="924" d="M864 -408q-302 24 -494 287q-189 260 -189 656q0 371 191 641q124 177 308 256q92 39 197 47v-82q-194 -20 -323 -218q-148 -227 -148 -644q0 -555 242 -765q94 -83 216 -96v-82z" />
<glyph unicode=")" horiz-adv-x="924" d="M59 1479q152 -12 278 -87.5t216 -200.5q190 -264 190 -656q0 -371 -191 -641q-123 -175 -308 -254q-93 -40 -197 -48v82q196 20 323 218q147 229 147 643q0 430 -146 655q-120 186 -312 207v82z" />
<glyph unicode="*" horiz-adv-x="921" d="M892 1237l-352 -182l352 -185l-68 -118l-314 217l12 -381h-122l11 381l-313 -217l-68 118l352 183l-352 184l68 119l313 -217l-11 381h122l-12 -381l314 217z" />
<glyph unicode="+" horiz-adv-x="1425" d="M632 981h159v-422h489v-137h-489v-422h-159v422h-489v137h489v422z" />
<glyph unicode="," horiz-adv-x="528" d="M147 -338q41 47 70 98t29 96q0 77 -24 140q-39 11 -66 41t-27 85t34.5 90.5t81.5 35.5t75.5 -11.5t49.5 -36.5q47 -56 47 -162q0 -220 -187 -419z" />
<glyph unicode="-" horiz-adv-x="637" d="M560 557v-133h-483v133h483z" />
<glyph unicode="." horiz-adv-x="528" d="M210 238q25 10 53.5 10t53.5 -10.5t43 -28.5q39 -39 39 -96q0 -90 -82 -123q-25 -10 -53.5 -10t-53.5 10t-44 28q-39 37 -39 95q0 90 83 125z" />
<glyph unicode="/" horiz-adv-x="594" d="M-113 -31l650 1483h168l-650 -1483h-168z" />
<glyph unicode="0" d="M485 -28q-171 22 -279 199q-122 199 -122 540q0 340 122 539q108 177 279 199v-77q-84 -19 -123 -150q-46 -156 -46 -511q0 -509 99 -618q31 -34 70 -43v-78zM568 49q83 18 122 149q46 155 46 513q0 507 -100 617q-31 34 -68 43v79q171 -22 278 -198q123 -201 123 -541 t-123 -541q-107 -176 -278 -198v77z" />
<glyph unicode="1" d="M428 1382q69 31 125 70h100v-1182q0 -68 6 -103t28.5 -49.5t53 -22.5t64.5 -14t62 -20v-61h-657v61q29 14 63.5 20t65.5 14q73 19 81 67q8 46 8 108v1112zM345 1232q-37 17 -143 19v61q82 17 143 42v-122z" />
<glyph unicode="2" d="M419 1373q-90 -6 -148 -60q-57 -53 -57 -119q17 -15 39.5 -28t42.5 -28q49 -37 49 -88q0 -83 -72 -106q-21 -6 -44 -6q-69 0 -106 46t-37 119.5t22.5 129t65.5 100.5q93 99 245 116v-76zM318 170h171q196 0 262 82q33 41 54.5 96t39.5 90h48v-438h-696zM106 0h-54l20 189 q216 258 334 385.5t164 193.5q100 143 100 285q0 268 -168 313v86q197 -6 312 -122q105 -108 105 -265q0 -272 -417 -641q-60 -52 -112 -98q-125 -109 -158 -154z" />
<glyph unicode="3" d="M423 1379q-69 -6 -117.5 -42.5t-58.5 -105.5q50 -19 69 -35q42 -36 42 -94t-33.5 -91.5t-92.5 -33.5t-96.5 40.5t-37.5 113t24 124t68 91.5q93 87 233 103v-70zM69 262q0 192 162 192q49 0 83 -44q30 -42 30 -81t-10 -60.5t-27 -36.5q-29 -25 -87 -44q2 -60 59 -100 q58 -41 144 -43v-75q-166 8 -262 91q-92 80 -92 201zM591 762q347 -61 347 -365q0 -171 -118 -290q-121 -122 -314 -136v82q190 42 190 328q0 178 -74 261q-60 67 -160 67l-46 -1q-14 -1 -28 -1q-57 0 -57 43t57 43q82 4 108 12t56 22.5t56 46.5q62 73 62 206 q0 252 -164 293v78q179 -8 288 -108q108 -98 108 -243q0 -271 -311 -334v-4z" />
<glyph unicode="4" d="M794 211q0 -91 38 -110q17 -9 41.5 -14t53.5 -24v-63h-527v57q29 24 63.5 31.5t50.5 12t28 17.5q26 27 26 101v1096l90 137h136v-1241zM486 1017q-85 -134 -169 -265t-168 -265h336v-106h-453v111l453 695zM878 486h109v-106h-109v106z" />
<glyph unicode="5" d="M420 -31q-159 6 -260 91q-96 82 -96 188q0 186 147 186q54 0 88 -32t34 -75t-11 -62.5t-28 -32.5q-21 -16 -78 -37q2 -63 63 -105.5t141 -44.5v-76zM803 1253q-39 -27 -95.5 -34.5t-125 -7.5t-297.5 22l-33 -406l-3 -97q-10 -10 -16.5 -23t-12.5 -24q-16 -27 -31 -27 q-48 0 -48 67q0 73 10 176t17 173q12 138 30 366q178 -27 295 -27q266 0 311 23q15 7 26 14q27 20 44 20t23.5 -5t6.5 -24.5t-8.5 -55t-31 -69.5t-61.5 -61zM335 872q72 37 171.5 37t184.5 -34t145 -93q123 -122 123 -309q0 -195 -117 -334q-125 -148 -339 -167v81 q207 37 207 398q0 177 -69 271.5t-192 94.5q-58 0 -114 -27v82z" />
<glyph unicode="6" d="M741 1309q-16 63 -134 67h-1v76q136 0 220 -65q81 -62 81 -145t-35 -119t-87 -36t-85 28.5t-33 88.5q0 52 50 87q13 9 24 18zM523 1363q-191 -76 -191 -591v-267q0 -320 96 -416q32 -32 74 -43v-74q-194 20 -300 187q-107 169 -107 462q0 379 127 599q112 193 301 226 v-83zM553 803q-78 0 -138 -47v80q83 53 162 53t145 -24.5t122 -76.5q130 -122 130 -335q0 -205 -107 -339t-282 -144v75q117 23 145 211q11 71 11 176t-14 176.5t-39 115.5q-44 79 -135 79z" />
<glyph unicode="7" d="M129 1436q138 -15 232 -15h498l-110 -164h-284q-86 0 -139 -26q-72 -35 -103 -131q-7 -21 -13 -42q-18 -56 -32 -79h-67zM487 -31q-145 0 -145 185q0 288 276 752q63 106 220 351l113 164h21v-125q-69 -105 -136.5 -213t-120.5 -227q-119 -269 -119 -553q0 -65 8 -114.5 t8 -90.5q0 -129 -125 -129z" />
<glyph unicode="8" d="M635 881q57 43 82.5 95t25.5 146.5t-49 165t-134 87.5v76q161 -12 262 -108q95 -91 95 -215q0 -139 -111 -235q-35 -31 -80 -61zM395 610q-150 -105 -150 -272q0 -126 60 -203t172 -91v-75q-191 6 -303 109q-110 103 -110 264q0 184 240 320zM365 711q-120 67 -178 140 q-73 92 -73 216q0 143 99 253q101 111 264 129v-71q-86 -10 -141 -70q-53 -60 -53 -128t19 -110.5t58 -81.5q62 -63 236 -161l81 -45q287 -146 287 -389q0 -165 -100 -279q-110 -125 -304 -142v71q100 12 161 90q58 75 58 178q0 162 -194 278q-60 36 -131 73z" />
<glyph unicode="9" horiz-adv-x="1053" d="M441 -30q-207 10 -277 142q-24 44 -24 107.5t31.5 98t69 34.5t56.5 -10t31 -26q25 -31 25 -60.5t-6 -45t-13.5 -28t-16 -23.5t-12.5 -22q0 -34 35 -60t101 -31v-76zM430 624q36 -18 94 -18t116 47v-82q-78 -51 -165.5 -51t-153.5 30.5t-118 87.5q-117 127 -117 316 q0 211 102 346q104 139 285 151v-75q-155 -34 -155 -399q0 -294 112 -353zM723 794q0 182 -14.5 289t-37.5 169q-38 103 -115 123v74q178 -21 284 -176q116 -170 116 -464q0 -385 -119 -603q-114 -209 -313 -234v82q101 38 148 199q51 178 51 541z" />
<glyph unicode=":" horiz-adv-x="528" d="M210 950q25 11 53.5 11t53.5 -10.5t43 -28.5q39 -39 39 -97q0 -90 -82 -123q-25 -10 -53.5 -10t-53.5 10t-44 28q-39 37 -39 95q0 91 83 125zM210 238q25 10 53.5 10t53.5 -10.5t43 -28.5q39 -39 39 -96q0 -90 -82 -123q-25 -10 -53.5 -10t-53.5 10t-44 28q-39 37 -39 95 q0 90 83 125z" />
<glyph unicode=";" horiz-adv-x="528" d="M147 -338q41 47 70.5 98t29.5 97q0 77 -24 138q-40 11 -67 41.5t-27 85.5t35 90.5t81.5 35.5t75 -11.5t49.5 -36.5q47 -56 47 -162q0 -221 -186 -419zM210 950q25 11 53.5 11t53.5 -10.5t43 -28.5q39 -39 39 -97q0 -90 -82 -123q-25 -10 -53.5 -10t-53.5 10t-44 28 q-39 37 -39 95q0 91 83 125z" />
<glyph unicode="&#x3c;" horiz-adv-x="1425" d="M143 416v143l1137 430v-141zM432 451l848 -318v-141l-1033 388z" />
<glyph unicode="=" horiz-adv-x="1425" d="M1280 596h-1137v137h1137v-137zM1280 248h-1137v137h1137v-137z" />
<glyph unicode="&#x3e;" horiz-adv-x="1425" d="M1280 565v-143l-1137 -430v141zM991 530l-848 318v141l1033 -388z" />
<glyph unicode="?" horiz-adv-x="924" d="M398 1365q-74 0 -122 -39q-45 -35 -47 -87q62 -13 97 -48t35 -85t-32 -81.5t-93.5 -31.5t-101 40t-39.5 108.5t21 118.5t60 90q83 83 222 99v-84zM608 1118q0 182 -127 233v101q169 -6 273 -108q96 -95 96 -226q0 -130 -100 -230q-43 -43 -93.5 -81t-93.5 -82 q-100 -102 -100 -236v-86h-95v107q0 120 62 216q27 40 58 76.5t58 79.5q62 103 62 236zM508 212q50 -51 50 -91t-10 -63.5t-28 -41.5q-36 -36 -79 -36t-67.5 9.5t-41.5 26.5q-37 35 -37 92.5t36.5 94.5t92 37t84.5 -28z" />
<glyph unicode="@" horiz-adv-x="1899" d="M556 61q211 3 374 63q52 19 105 42l30 -74q-217 -84 -325 -101.5t-184 -20.5v91zM473 -30q-381 12 -628 234q-233 209 -233 474q0 335 242 549q241 212 619 224v-82q-278 -15 -455 -193q-193 -192 -193 -508q0 -231 179 -404q184 -179 469 -201v-93zM818 467 q0 -78 93 -78q134 0 227 144q83 130 83 284q0 211 -187 373q-193 167 -478 179v82q331 -10 555 -189q105 -84 165 -197.5t60 -245.5q0 -182 -120 -338q-135 -174 -344 -174q-91 0 -148 39t-69 100h-5q-71 -69 -116 -93q-86 -46 -154.5 -46t-114 16t-77.5 49q-68 69 -68 203 q0 117 63 237q62 120 169 198q114 82 246 82q87 0 141 -48l-23 -89q-32 40 -87 40t-111 -32t-104 -89q-111 -132 -111 -301q0 -83 36 -126.5t92 -43.5t102.5 36.5t86.5 92.5q78 112 117 255l76 280h174l-154 -516q-15 -49 -15 -84z" />
<glyph unicode="A" horiz-adv-x="1254" d="M711 451h-304l25 92h249zM513 1003l-235 -702q-31 -89 -30 -133.5t14 -58.5t34 -20t48 -10t55 -18v-61h-435v61q21 12 44 19t44 16q49 22 63 66l338 1003zM488 1267q-54 19 -73 38q2 21 5.5 39.5l7 37t7.5 30.5q190 40 220 40q21 -17 39 -63l439 -1211q22 -60 66 -82 q20 -10 42.5 -16.5t47.5 -18.5v-61h-541v61q23 11 48 15.5t46 9.5q46 11 46 45q0 30 -48 162t-85 235q-103 289 -202 578z" />
<glyph unicode="B" horiz-adv-x="1341" d="M628 1339q-48 0 -72 -7v89h104q263 0 396 -99q122 -90 122 -251q0 -128 -94 -214q-93 -85 -252 -103v-4q297 -40 386 -214q33 -62 33 -145.5t-29 -154.5t-90 -124q-131 -112 -381 -112h-195v88q22 -6 90 -6q173 0 254 70t81 225t-87.5 238t-265.5 83h-72v88h38 q313 0 313 283q0 270 -279 270zM473 0h-389v59q27 12 52.5 19t45.5 18q42 24 42 88v1053q0 64 -42 88q-20 11 -45.5 18t-52.5 19v59h389v-1421z" />
<glyph unicode="C" horiz-adv-x="1321" d="M1047 1352q36 0 59 53h88v-500h-68q-40 38 -71 124.5t-51 136.5t-50 92q-66 93 -183 109v82q126 -12 242 -84q21 -13 34 -13zM771 65q220 0 313 220q32 76 46 182l95 -23q-31 -233 -143 -348.5t-311 -125.5v95zM688 -30q-271 14 -436 213q-166 201 -166 528 q0 318 172 527q169 206 430 214v-84q-221 -21 -294 -355q-27 -124 -27 -297.5t27 -288.5t72 -190q82 -139 222 -166v-101z" />
<glyph unicode="D" horiz-adv-x="1451" d="M826 1316q-78 30 -152.5 30t-101.5 -5v80h98q320 0 503 -198q178 -192 178 -512q0 -321 -178 -513q-183 -198 -503 -198h-98v81q40 -5 108 -5t146.5 30.5t132.5 103.5q110 150 110 501q0 510 -243 605zM489 0h-405v59q27 12 52.5 19t45.5 18q42 24 42 88v1053 q0 64 -42 88q-20 11 -45.5 18t-52.5 19v59h405v-1421z" />
<glyph unicode="E" horiz-adv-x="1253" d="M84 0v59q24 15 54.5 23t43.5 15t22 22q20 31 20 114v953q0 84 -14.5 107t-27 29.5t-28.5 11.5q-50 14 -70 28v59h389v-1421h-389zM556 82l19 -1q225 0 319 47q99 50 140 198q9 31 15.5 56.5t14.5 46.5q15 44 42 71h65v-500h-615v82zM926 1421q62 0 200 15v-490h-70 q-35 45 -54 101t-39 109t-40 85t-50 54q-60 44 -162.5 44t-154.5 -15v97h370zM556 846h292v-188h-292v188z" />
<glyph unicode="F" horiz-adv-x="1142" d="M792 1320q-47 13 -121.5 13t-114.5 -8v96h337q67 0 211 15v-490h-66q-36 38 -53 98.5t-29 99t-32.5 75.5t-52.5 62.5t-79 38.5zM473 227q0 -79 15 -101.5t29 -29t32 -11t39.5 -9.5t46.5 -17v-59h-551v59q24 15 54.5 23t43.5 15t22 22q20 31 20 114v953q0 84 -14.5 107 t-27 29.5t-28.5 11.5q-50 14 -70 28v59h389v-1194zM556 834h292v-188h-292v188z" />
<glyph unicode="G" horiz-adv-x="1363" d="M1024 1356q35 0 52 53h85v-498h-67q-42 53 -72 143t-48.5 137t-48.5 85q-67 83 -190 90v85q90 -6 157.5 -37t92.5 -44.5t39 -13.5zM1190 242q0 -92 33 -164l-38 -23q-104 -30 -290 -30q-10 0 -45 -13q-67 -23 -115 -32v72q113 6 161 90q45 79 45 249q0 93 -6 130 t-23 51.5t-40.5 23t-50.5 13.5t-51 14v67h524q-5 -36 -21.5 -57t-34.5 -41q-48 -53 -48 -125v-225zM652 1361q-282 -56 -282 -656q0 -490 172 -605q51 -34 110 -44v-81q-258 0 -412 201q-152 201 -152 535q0 299 156 507q160 212 408 232v-89z" />
<glyph unicode="H" horiz-adv-x="1450" d="M983 1200q0 74 -15 95.5t-28 27.5t-28 11q-49 14 -69 28v59h525v-59q-27 -12 -51.5 -19t-43.5 -18q-41 -24 -41 -88v-1053q0 -64 41 -88q19 -11 43.5 -18t51.5 -19v-59h-525v59q116 16 134 107q6 30 6 70v964zM465 227q0 -109 42 -131q14 -6 46.5 -15.5t51.5 -21.5v-59 h-524v59q27 12 51 19t43 18q41 24 41 88v1053q0 64 -41 88q-19 11 -43 18t-51 19v59h524v-59q-23 -15 -55 -24t-44.5 -15.5t-21.5 -21.5q-19 -32 -19 -111v-963zM900 694h-352v92h352v-92z" />
<glyph unicode="I" horiz-adv-x="725" d="M630 1421v-59q-29 -12 -55 -19t-45 -18q-43 -24 -43 -88v-1053q0 -64 43 -88q20 -11 46 -18t56 -19v-59h-539v59q29 12 55 19t46 18q44 24 44 88v1053q0 64 -44 88q-20 11 -46 18t-55 19v59h537z" />
<glyph unicode="J" horiz-adv-x="966" d="M323 -30q-144 6 -227 78q-75 66 -75 159t39.5 134.5t101 41.5t95 -33.5t33.5 -77.5t-9 -64t-23 -32q-15 -14 -63 -33q2 -38 36 -65t92 -32v-76zM499 1243q0 60 -52 83q-23 10 -52 17t-58 19v59h551v-59q-26 -12 -50.5 -19t-43.5 -17q-44 -22 -44 -83v-893 q0 -184 -86 -275.5t-258 -103.5v81q52 14 73 58.5t21 127.5z" />
<glyph unicode="K" horiz-adv-x="1341" d="M556 808l313 376q13 15 27 30t26 29q28 33 28 50.5t-13 26t-33.5 14t-45 10t-46.5 16.5v61h491v-61q-15 -12 -37.5 -18.5t-51.5 -15.5q-74 -24 -129 -77l-325 -385l444 -692q32 -56 85 -78q22 -9 43.5 -15t42.5 -18v-61h-561v61q17 12 39 17.5t42 11.5q48 14 48 43 q0 20 -13 42.5t-35 60.5l-339 521v51zM473 223q0 -80 23 -106q37 -44 116 -58v-59h-528v59q27 12 52.5 19t45.5 18q42 24 42 88v1010q0 79 -14.5 101t-27.5 28t-28 11q-51 14 -70 28v59h528v-59q-82 -16 -104 -43q-35 -43 -35 -123v-973z" />
<glyph unicode="L" horiz-adv-x="1142" d="M90 0v59q18 12 39.5 17t40.5 12q47 15 53 55q7 40 7 103v930q0 117 -26 138q-21 17 -58.5 26.5t-55.5 21.5v59h537v-59q-22 -12 -45 -17.5t-43 -12.5q-47 -17 -52 -54q-7 -40 -7 -100v-1178h-390zM563 83q15 -1 31 -1h33q188 0 271 118q37 54 58 123.5t30 94.5 q19 54 47 90h63v-508h-533v83z" />
<glyph unicode="M" horiz-adv-x="1715" d="M904 512l269 909h449v-59q-24 -12 -48 -18.5t-43 -15.5q-42 -22 -42 -75v-1069q0 -62 43 -86q19 -11 44 -19t53 -20v-59h-523v59q24 12 47.5 20t42.5 19q43 25 43 86v1094h-4l-278 -941zM338 1181v-968q0 -78 46 -110q21 -14 47.5 -22.5t53.5 -21.5v-59h-401v59 q24 12 49 19.5t45 21.5q46 31 46 111v1013zM342 1257q-211 81 -258 105v59h451l383 -1215l-61 -206h-118z" />
<glyph unicode="N" horiz-adv-x="1429" d="M1101 532v705q0 54 -50 83q-22 12 -49.5 22t-54.5 22v59h418v-59q-25 -12 -51.5 -22t-47.5 -22q-50 -29 -50 -83v-885zM326 1062v-876q0 -55 52 -82q23 -13 53.5 -23t62.5 -22v-59h-440v59q28 12 56 22t50 23q51 28 51 82v1026zM330 1186q-107 126 -214 158q-28 9 -55 18 v59h390l765 -1210v-219h-147z" />
<glyph unicode="O" horiz-adv-x="1429" d="M671 -30q-256 18 -423 232q-162 208 -162 509q0 299 162 507q167 214 423 232v-82q-147 -15 -221 -156q-83 -162 -83 -501q0 -498 179 -615q56 -36 125 -43v-83zM754 53q224 23 282 357q22 123 22 301q0 496 -179 613q-56 36 -125 44v83q258 -18 424 -231 q163 -209 163 -509t-163 -509q-166 -213 -424 -231v82z" />
<glyph unicode="P" horiz-adv-x="1230" d="M917 1049q0 297 -276 297q-44 0 -78 -6v81h87q392 0 508 -204q41 -71 41 -160.5t-32.5 -158.5t-97.5 -120q-140 -110 -390 -110h-116v75q182 0 265 65q89 72 89 241zM480 238q0 -69 5.5 -93.5t22.5 -37t41 -19t52 -12t54 -17.5v-59h-565v59q17 12 38.5 17t41.5 12 q48 15 54 56.5t6 95.5v942q0 111 -26 132q-21 17 -58.5 26.5t-55.5 21.5v59h390v-1183z" />
<glyph unicode="Q" horiz-adv-x="1429" d="M754 53q224 23 282 357q22 123 22 301q0 496 -179 613q-56 36 -125 44v83q258 -18 424 -231q163 -209 163 -509q0 -255 -121 -449q-122 -196 -324 -262q70 -39 125.5 -74.5t98.5 -62.5q94 -58 130.5 -58t52.5 4.5t28 12.5t22.5 18.5t24.5 21.5l71 -65q-59 -95 -169 -128 q-41 -12 -107.5 -12t-132 31.5t-117 78.5t-92.5 102t-77 102v82zM671 -30q-256 18 -423 232q-162 208 -162 509q0 299 162 507q167 214 423 232v-82q-147 -15 -221 -156q-83 -162 -83 -501q0 -498 179 -615q56 -36 125 -43v-83z" />
<glyph unicode="R" horiz-adv-x="1341" d="M600 1421q587 0 587 -354q0 -144 -106 -240q-111 -100 -302 -108v-4q104 -25 161 -105q30 -42 66 -133.5t57 -145t42 -96.5q47 -97 83 -97q15 0 26 13.5t22 30.5q31 43 56 43q3 0 14 -5.5t11 -21.5t-7 -34q-57 -91 -86 -119q-62 -61 -137.5 -61t-120 24t-74.5 64.5 t-48.5 93.5t-33 111t-28.5 117t-35 112q-48 119 -133 161q-21 11 -51 23v82q283 0 343 159q20 55 20 130q0 135 -79 210t-242 75q-29 0 -42 -3v78h37zM480 238q0 -66 4 -93t18.5 -39t34.5 -18.5t42 -11.5t41 -17v-59h-530v59q15 12 36 17t42 12q50 15 56 56.5t6 95.5v942 q0 111 -26 132q-21 17 -58.5 26.5t-55.5 21.5v59h390v-1183z" />
<glyph unicode="S" horiz-adv-x="1164" d="M592 1449q74 -7 126.5 -34t72 -38t33 -11t22.5 6t16 14t12 17.5t10 17.5h92v-469h-72q-22 23 -50 100.5t-47.5 123.5t-48.5 86q-64 89 -166 105v82zM306 43.5q-24 11.5 -49.5 11.5t-56.5 -55h-93v494h69q22 -23 39.5 -63t37 -86.5t42.5 -95.5t56 -91q74 -93 188 -105v-82 q-90 8 -149.5 34.5t-83.5 38zM622 54q108 13 167 88q52 67 52 153.5t-31 139t-81.5 93t-115.5 73.5t-132.5 65.5t-132 68t-114.5 81.5q-113 104 -113 253q0 151 103 258q110 112 285 124v-83q-124 -16 -167 -127q-14 -36 -14 -90t32 -101t84 -84t118.5 -68t136 -63t136 -69 t118.5 -86q116 -111 116 -268q0 -170 -123 -296q-129 -134 -324 -146v84z" />
<glyph unicode="T" horiz-adv-x="1187" d="M717 1421v-1192q0 -79 17 -101.5t31.5 -29t32.5 -10.5q51 -13 77 -29v-59h-562v59q22 14 57.5 23.5t50 15.5t25.5 20q21 30 21 111v1192h250zM1014 1421q41 0 137 15v-473h-68q-14 38 -24.5 80.5t-23.5 84t-30 80t-44 67.5q-60 64 -161 64v82h214zM36 1436q48 -15 73 -15 h275v-82q-144 0 -204 -133q-29 -63 -46 -134.5t-30 -108.5h-70v471z" />
<glyph unicode="U" horiz-adv-x="1405" d="M793 52q210 9 275 164q22 51 22 118v891q0 83 -98 116q-27 9 -54 21v59h420v-59q-27 -12 -54.5 -21t-49.5 -23q-50 -30 -50 -93v-860q0 -364 -411 -393v80zM710 -31q-374 0 -476 233q-34 77 -34 177v858q0 64 -39 88q-18 11 -43 18t-54 19v59h523v-59q-30 -12 -55 -19 t-44 -18q-39 -23 -39 -88v-905q0 -117 71 -192q68 -72 190 -86v-85z" />
<glyph unicode="V" horiz-adv-x="1187" d="M701 427q0 8 30 93t53.5 152t48 138t48 142t41.5 132q42 137 42 172.5t-12.5 50t-31.5 20.5t-41 11t-41 20v63h394v-63q-16 -10 -35 -17t-39 -17q-46 -25 -66 -81l-342 -986zM715 156l-62 -179h-123l-429 1293q-17 48 -87 70q-20 7 -41 18v63h516v-63q-25 -10 -49 -16 t-42 -14q-42 -16 -42 -45.5t11.5 -60.5t24.5 -71z" />
<glyph unicode="W" horiz-adv-x="1715" d="M1294 470q41 135 92.5 316.5t71.5 251.5t36.5 126.5t16.5 91.5t-11.5 50t-30 23.5t-41.5 14t-46 14.5v63h383v-63q-14 -10 -31.5 -16t-34.5 -14q-42 -18 -55 -46q-17 -39 -36 -104l-262 -886zM1309 168l-56 -191h-125l-271 920h-5l-176 -620l-51 185l142 492q11 39 21 68 t14 55q-17 99 -42 161.5t-39.5 74t-30.5 18.5t-32 12t-28 15v63h476v-63q-19 -9 -40 -14t-39 -12q-42 -16 -42 -45t9.5 -59t23.5 -75zM641 153l-50 -176h-131l-358 1237q-30 97 -55 110q-12 7 -25 12q-37 12 -45 22v63h467v-63q-18 -10 -38.5 -15.5t-37.5 -12.5 q-42 -17 -42 -46.5t10 -58.5t20 -64z" />
<glyph unicode="X" horiz-adv-x="1230" d="M699 961q50 73 86.5 126t60.5 91q47 76 47 103t-11 37t-28.5 16t-39 10.5t-42.5 13.5v63h444v-63q-20 -12 -61 -22q-70 -16 -95 -42q-87 -95 -231 -319q-36 -56 -75 -113zM535 555q-55 -83 -95 -142t-67 -100t-43.5 -67t-25.5 -43q-15 -28 -15 -56t12 -40.5t30.5 -17.5 t42 -8.5t46.5 -19.5v-61h-443v61q17 14 51 24q66 17 85 38q38 42 56 69l303 462zM194 1231q-11 19 -23.5 35t-23.5 32q-18 23 -50.5 31.5t-52.5 13.5t-37 15v63h532v-57q-20 -11 -39 -17t-35 -12q-35 -13 -35 -41q0 -19 26 -62l571 -954q26 -45 66.5 -100.5t60 -68.5t37 -20 t33.5 -12t29 -16v-61h-546v61q21 11 44.5 15.5t43.5 10.5q46 14 46 50q0 22 -40 86z" />
<glyph unicode="Y" horiz-adv-x="1187" d="M709 792q194 378 208 414q17 45 17 67.5t-13 36t-32.5 21t-43.5 13t-45 14.5v63h430v-63q-16 -12 -56 -24.5t-58.5 -22t-45.5 -50t-67 -113t-79 -150t-77.5 -157t-77.5 -156.5zM727 603l-10 -15v-357q0 -113 54 -135q16 -6 34 -10q55 -14 74 -27v-59h-573v59 q22 14 57.5 22t51.5 14.5t27 22.5q25 33 25 118v356l-347 665q-29 56 -112 84q-20 7 -39 17v63h559v-63q-24 -10 -48.5 -15t-43.5 -11q-44 -15 -44 -50q0 -26 31 -86.5t61.5 -120t76 -147.5t109.5 -213z" />
<glyph unicode="Z" horiz-adv-x="1164" d="M434 88q136 0 234.5 14.5t143 39.5t73.5 59t46 75t31 82q38 118 62 152h70v-510h-710zM123 1436q67 -15 160 -15h470l-50 -88q-222 0 -303 -37q-87 -40 -124 -120q-23 -47 -45 -114.5t-41 -94.5h-67v469zM844 1421h232v-75l-792 -1346h-225v92z" />
<glyph unicode="[" horiz-adv-x="988" d="M335 1438h397v-70q0 -11 -14.5 -14.5t-40.5 -10.5q-98 -8 -119.5 -24.5t-27 -37t-5.5 -52.5v-1389q0 -65 22 -81q34 -25 130 -33q26 -5 40.5 -9t14.5 -16v-68h-397v1805z" />
<glyph unicode="\" horiz-adv-x="594" d="M55 1452l650 -1483h-168l-650 1483h168z" />
<glyph unicode="]" horiz-adv-x="988" d="M653 -367h-397v68q0 12 14 16t51 8.5t67 11t46 18.5q28 20 28 85v1389q0 65 -22 81q-32 25 -130 33q-26 7 -40 10.5t-14 14.5v70h397v-1805z" />
<glyph unicode="^" horiz-adv-x="1425" d="M211 680l428 741h147l428 -741h-179l-323 567l-324 -567h-177z" />
<glyph unicode="_" horiz-adv-x="1187" d="M0 -256v102h1187v-102h-1187z" />
<glyph unicode="`" horiz-adv-x="637" d="M394 1096l-339 200q-64 37 -64 80t45 64q15 6 42 6q43 0 124 -76l287 -274h-95z" />
<glyph unicode="a" d="M572 510q-268 -97 -268 -283q0 -75 36 -120.5t107.5 -45.5t124.5 53v-95q-77 -46 -174 -46t-155.5 19t-98.5 52q-83 67 -83 177q0 227 403 343q57 17 108 30v-84zM335 868q55 -21 55 -96q0 -48 -34 -77t-91.5 -29t-91 31t-33.5 80t23 88t65 69q87 63 219 73v-76 q-81 -8 -112 -63zM930 99q55 0 70 100l51 -27q-10 -97 -53.5 -148t-138.5 -51q-74 0 -110 27q-58 44 -94 133v623q0 62 -32.5 107.5t-92.5 61.5v82q339 -18 339 -358v-473q0 -77 61 -77z" />
<glyph unicode="b" horiz-adv-x="1097" d="M740.5 7q-80.5 -34 -156 -34t-131.5 15v99q41 -28 93 -28q233 0 233 424q0 338 -125 405q-40 21 -82 21t-68 -18.5t-51 -41.5v117q71 42 147.5 42t150.5 -31t133 -95q135 -143 135 -393q0 -237 -136 -382q-62 -66 -142.5 -100zM143 -8q14 98 14 227v1028q0 60 -39 83 q-18 11 -39 17.5t-41 18.5v61h332v-1414q-51 21 -74 47q-28 -13 -47 -37t-25 -31h-81z" />
<glyph unicode="c" horiz-adv-x="967" d="M727 846q-28 69 -125 79v81q133 -7 212 -88q69 -69 69 -159q0 -92 -71 -125q-24 -11 -65 -11t-73.5 30.5t-32.5 70.5t9 59t22 31t28 19t27 13zM602 64q122 18 180 154q17 38 30 77l83 -25q-56 -193 -183 -258q-47 -25 -110 -34v86zM310 492q0 -392 209 -428v-91 q-189 4 -315 135q-133 141 -133 373q0 205 124 356q128 156 324 170v-88q-150 -35 -194 -254q-15 -75 -15 -173z" />
<glyph unicode="d" horiz-adv-x="1097" d="M727 1262q0 54 -40 72q-18 9 -41 14.5t-46 17.5v61h340v-1245q0 -80 80 -106q20 -6 38 -17v-59h-331v1262zM532 909q-214 0 -214 -425t202 -425q60 0 124 74v-119q-66 -41 -156 -41t-163 34t-127 99q-119 143 -119 375t117 379q118 148 297 148q79 0 151 -38v-95 q-48 34 -112 34z" />
<glyph unicode="e" horiz-adv-x="1050" d="M720 596q0 288 -144 324v86q187 -17 288 -157q95 -131 95 -341h-566v88h327zM580 61q174 8 247 164q21 45 36 92l86 -32q-56 -209 -229 -281q-61 -25 -140 -30v87zM309 553q0 -430 188 -484v-92q-196 22 -311 163q-115 139 -115 349q0 221 115 363q116 143 307 155v-83 q-184 -22 -184 -371z" />
<glyph unicode="f" horiz-adv-x="660" d="M415 221q0 -110 45 -133q22 -10 51 -14t64 -21v-53h-520v53q20 13 53.5 21.5t47.5 14t24 18.5q22 27 22 96v690h-161v57q14 15 57 20q82 11 102 31q11 203 44.5 277t72.5 108.5t98 50.5v-1216zM660 1320q-21 56 -130 56q-15 0 -32 -5v79q22 2 61 2t83.5 -12.5t77.5 -35.5 q69 -51 69 -134q0 -54 -35 -86q-30 -27 -63 -27t-50.5 5.5t-30.5 15.5q-30 23 -30 63q0 58 80 79zM498 981h130v-88h-130v88z" />
<glyph unicode="g" horiz-adv-x="1033" d="M356 320q-27 -52 -27 -109q0 -4 28.5 -3.5t75 0t106 -3t121.5 -11t121.5 -25.5t106.5 -46q103 -65 103 -177q0 -128 -115 -217q-119 -92 -310 -100v66q120 8 195 68q69 56 69 135t-77.5 124t-204.5 45t-205 -9q-68 -25 -78 -111q-3 -26 -3 -59.5t16.5 -67t45.5 -59.5 q60 -55 149 -65v-67q-173 10 -277 92q-95 75 -95 178q0 116 99 182q27 17 53 26v5q-51 13 -77 84q-9 25 -9 49.5t8 40t21 29.5q24 23 64 49zM342 680q0 -225 122 -253v-69q-87 6 -170 54q-172 98 -172 276q0 127 95 214q94 86 247 100v-69q-122 -28 -122 -253zM838 933.5 q-22 20.5 -22 41t15 61.5q-61 -3 -72 -94q72 -57 95 -99q38 -68 38 -145.5t-25 -135.5t-71 -101q-95 -89 -249 -103v68q127 28 127 254t-127 254v69q72 -5 141 -28q27 139 173 139q56 0 84 -22q47 -38 47 -80t-22 -70.5t-66 -28.5t-66 20.5z" />
<glyph unicode="h" horiz-adv-x="1188" d="M411 158q0 -47 41 -68q19 -10 41.5 -17.5t43.5 -19.5v-53h-466v53q22 12 44.5 19.5t40.5 17.5q41 21 41 68v1104q0 54 -40 72q-18 9 -41 14.5t-47 17.5v61h342v-1269zM644 901q-82 0 -150 -62v109q88 60 204 60q134 0 220 -72q93 -78 93 -211v-567q0 -46 42 -68 q18 -10 40 -17.5t42 -19.5v-53h-387v72q0 18 8 27.5t17 18.5q25 27 25 58v553q0 172 -154 172z" />
<glyph unicode="i" horiz-adv-x="636" d="M437 993v-835q0 -47 41 -68q19 -10 41 -17.5t43 -19.5v-53h-465v53q21 12 43.5 19.5t41.5 17.5q42 21 42 68v669q0 53 -40 73q-18 9 -41 14.5t-46 17.5v55zM224 1396.5q37 35.5 80.5 35.5t68 -9.5t42.5 -26.5q38 -36 38 -93q0 -56 -38 -92q-37 -35 -95.5 -35t-95.5 35 t-37 92.5t37 93z" />
<glyph unicode="j" horiz-adv-x="548" d="M100 -416q-9 -1 -18 -1h-17q-161 0 -215 101q-16 32 -16 77.5t31.5 75.5t72 30t61 -10.5t33.5 -26.5q22 -30 22 -63q0 -68 -25 -68q10 -23 57 -23h14v-92zM183 819q0 48 -45 73q-20 10 -43.5 18t-44.5 22v61h347v-983q0 -261 -110 -358q-41 -37 -104 -54v1221zM270 1432 q58 0 95.5 -35.5t37.5 -93t-37.5 -92.5t-95.5 -35t-95 35t-37 92.5t37 93t95 35.5z" />
<glyph unicode="k" horiz-adv-x="1076" d="M392 201q0 -92 40 -111q12 -5 26 -10q41 -13 59 -27v-53h-465v53q22 18 45 23t41 14q41 22 41 111v1016q0 100 -39 116q-12 5 -26 9q-44 10 -62 24v61h340v-1226zM475 598l178 166q69 64 69 94t-80 46q-22 5 -41 14v63h444v-59q-23 -11 -50 -22.5t-61 -31.5 q-80 -46 -170 -133l-114 -110l300 -486q26 -44 56.5 -54t48.5 -14.5t37 -15.5v-55h-439v53q49 23 51 70q0 13 -6 24l-223 391v60z" />
<glyph unicode="l" horiz-adv-x="570" d="M397 1427v-1269q0 -47 41 -68q18 -10 40.5 -17.5t44.5 -19.5v-53h-466v53q21 12 43.5 19.5t40.5 17.5q42 22 42 68v1102q0 47 -43 70q-19 10 -42 17t-44 19v61h343z" />
<glyph unicode="m" horiz-adv-x="1714" d="M480 949q86 59 197 59q178 0 259 -122q24 -36 35 -77v-651q0 -49 39 -70q18 -10 39 -16.5t41 -18.5v-53h-383v68q0 19 17 35t25 27.5t8 33.5v577q0 160 -140 160q-82 0 -137 -53v101zM1190 901q-76 0 -136 -49v98q90 56 177.5 56t141 -17t91.5 -52q81 -73 81 -216v-563 q0 -49 41 -70q17 -10 38.5 -16.5t42.5 -18.5v-53h-385v68q0 19 17 36q33 33 33 62v584q0 151 -142 151zM397 158q0 -47 41 -68q18 -10 40.5 -17.5t44.5 -19.5v-53h-466v53q21 12 43.5 19.5t40.5 17.5q42 22 42 68v620q0 99 -39 115q-12 5 -26 9q-44 10 -64 24v61h343v-829z " />
<glyph unicode="n" horiz-adv-x="1188" d="M646 901q-83 0 -152 -65v109q88 63 207 63q138 0 223 -72q87 -75 87 -211v-526q0 -95 39 -111q12 -5 26 -8q38 -10 59 -27v-53h-387v68q0 19 17 35t25 27.5t8 33.5v571q0 166 -152 166zM411 203q0 -94 40 -113q12 -5 26 -10q41 -13 60 -27v-53h-466v53q18 14 45.5 23 t40 14t21.5 18q19 26 19 93v577q0 99 -39 115q-12 5 -26 9q-44 10 -63 24v61h342v-784z" />
<glyph unicode="o" horiz-adv-x="1053" d="M483 -25q-171 17 -281 145q-123 143 -123 369q0 228 123 371q111 129 281 146v-78q-88 -17 -129 -115q-44 -108 -44 -324q0 -317 98 -401q33 -27 75 -35v-78zM566 52q177 30 177 437q0 323 -104 407q-33 26 -73 33v78q170 -13 284 -143q126 -145 126 -375 q0 -229 -124 -372q-114 -130 -286 -143v78z" />
<glyph unicode="p" horiz-adv-x="1097" d="M370 868v-1101q2 -48 44 -69q20 -9 44 -16.5t50 -19.5v-53h-477v53q21 12 43.5 19.5t40.5 16.5q41 22 41 69v1060q0 53 -40 73q-17 9 -39.5 14.5t-45.5 17.5v61h332zM605 -27q-86 0 -152 30l1 89q49 -33 103.5 -33t95 25.5t68.5 77.5q58 109 58 321q0 332 -124 405 q-37 21 -70.5 21t-53 -9.5t-34.5 -23.5q-18 -17 -44 -59v141q74 50 164.5 50t163.5 -40.5t126 -111.5q112 -148 112 -367q0 -238 -117 -379q-115 -137 -297 -137z" />
<glyph unicode="q" horiz-adv-x="1097" d="M954 987q-14 -129 -14 -227v-993q0 -47 42 -69q18 -9 40.5 -16.5t44.5 -19.5v-53h-478v53q26 12 50.5 19t44.5 17q43 22 43 69v1168q13 -6 34 -12t33 -10l75 74h85zM534 59q68 0 110 61v-118q-62 -29 -146.5 -29t-162.5 35t-135 101q-121 140 -121 378q0 229 134 378 q128 143 307 143q63 0 124 -28v-94q-37 23 -93 23t-98.5 -25t-72.5 -77q-62 -107 -62 -326q0 -422 216 -422z" />
<glyph unicode="r" horiz-adv-x="812" d="M406 750v-553q0 -90 44 -107q14 -6 30 -10q53 -15 75 -27v-53h-482v53q19 12 40 19.5t39 17.5q41 21 41 68v579q0 115 -18.5 133t-36 26t-36.5 13.5t-33 16.5v61h325zM643 739q-25 21 -25 52t26 61q-9 6 -23 6q-68 -1 -132 -96v154q74 92 168 92q108 0 145 -94 q12 -29 12 -78t-29 -83.5t-73 -34.5t-69 21z" />
<glyph unicode="s" horiz-adv-x="900" d="M473 53q75 11 120.5 55.5t45.5 103.5t-23.5 91.5t-62 56t-87.5 42t-100 37t-100 41.5t-88 55q-85 71 -85 186q0 103 78 183q88 92 230 103v-79q-58 -11 -92.5 -48t-34.5 -87t24 -79.5t63.5 -51t90 -39t103.5 -37t103.5 -43t89.5 -58.5q88 -78 88 -202q0 -109 -82 -195 q-98 -103 -281 -114v79zM541 772q0 75 55 96q-31 55 -112 63v76q132 -10 220 -73q87 -63 87 -152q0 -54 -33.5 -85t-91 -31t-91.5 29t-34 77zM333 209q0 -75 -55 -96q31 -55 112 -63v-76q-129 8 -220 73q-87 63 -87 152q0 54 33.5 85t91 31t91.5 -29t34 -77z" />
<glyph unicode="t" horiz-adv-x="703" d="M473 969h164v-88h-164v88zM390 -26q-173 8 -204 154q-10 46 -10 103v650h-135v61q15 13 32.5 21.5t34.5 16.5q44 22 64 53.5t33.5 68t23 73t18 71.5t21.5 69l122 6v-1347zM473 65q75 0 117 107q13 33 25 72l64 -15q-27 -179 -123 -229q-35 -18 -83 -24v89z" />
<glyph unicode="u" horiz-adv-x="1164" d="M539 80q82 0 148 64v-115q-90 -56 -222 -56q-218 0 -271 153q-18 53 -18 128v567q0 52 -39 73q-17 9 -38 14.5t-40 17.5v61h331v-751q0 -156 149 -156zM770 821q0 53 -40 73q-18 9 -40 14.5t-44 17.5v61h337v-823q0 -52 41 -72q18 -9 39 -15t40 -18v-59h-319l-14 106v715 z" />
<glyph unicode="v" horiz-adv-x="924" d="M552 339l133 363q42 115 42 141.5t-13.5 37.5t-33 16.5t-41 9t-38.5 11.5v63h368v-63q-12 -9 -28.5 -13t-34.5 -11q-51 -21 -70 -84q-3 -10 -7 -19l-224 -588zM570 108l-49 -128h-115l-332 860q-13 35 -56 53q-49 20 -65 37v51h467v-61q-17 -9 -38 -13t-40 -9 q-43 -13 -43 -44q0 -20 8.5 -40t22 -59t33 -91.5t42.5 -114.5t50 -135t60 -160z" />
<glyph unicode="w" horiz-adv-x="1450" d="M491 -20h-106l-302 864q-17 48 -85 65q-17 4 -32 15v57h461v-55q-15 -11 -36.5 -15.5t-40.5 -10.5q-47 -13 -47 -48q0 -19 10.5 -50t44.5 -131.5t82.5 -246.5t99.5 -292zM1104 379l106 328q16 49 27.5 80t11.5 56t-13.5 36t-33 17t-41.5 10t-40 12v63h367v-53 q-9 -18 -33.5 -24.5t-37 -11.5t-33 -39t-51 -105t-59.5 -154q-48 -132 -120 -358zM1123 140q-21 -67 -54 -160h-100l-247 698h-6l-144 -447l-51 148l138 426q-7 40 -24 70q-31 56 -31 74v23q0 4 1 9h316l15 -76q-59 0 -59 -28q17 -77 83 -264.5t111 -319.5z" />
<glyph unicode="x" horiz-adv-x="1033" d="M595 667q30 40 54.5 69.5t40.5 51.5q35 48 35 67t-10 27t-25.5 14t-33.5 11t-33 11v63h403v-55q-14 -10 -30.5 -15t-35.5 -11q-47 -15 -67 -36t-32 -33t-22 -24l-180 -220zM448 335q-66 -84 -105 -136t-39 -71.5t11 -29t26.5 -16t33 -11.5t31.5 -14v-57h-415v57 q21 13 44 19.5t50 19.5q66 32 129 109l172 211zM623 207q-50 65 -98.5 129.5t-99.5 128.5l-266 356q-50 69 -112 85q-17 5 -35 14v61h475v-63q-14 -7 -31.5 -10.5t-32.5 -7.5q-35 -9 -35 -32t55 -98t81 -108q65 -84 96 -123l284 -381q33 -45 68 -61t53.5 -22t35.5 -18v-57 h-498v55q17 9 36 15t35 12q36 14 36 37.5t-48 87.5h1z" />
<glyph unicode="y" horiz-adv-x="924" d="M561 365q33 94 61.5 172.5t50.5 139.5q47 130 47 162.5t-11 42t-27.5 15t-36.5 10t-38 13.5v61h354v-61q-16 -10 -32.5 -15t-31.5 -11q-36 -16 -50 -54l-229 -605zM197 -170.5q8 -17.5 8 -46.5t-35 -66q15 -20 39 -20q60 0 114.5 77.5t96.5 219.5l-343 856q-17 44 -85 60 q-16 4 -30 10v61h458v-59q-21 -8 -42 -13.5t-38 -12.5q-39 -14 -39 -38q0 -14 41 -121l1 -1q60 -151 118.5 -300.5t118.5 -299.5l-117 -304q-97 -244 -289 -244q-130 0 -174 102q-14 33 -14 83t33.5 82t69.5 32t54 -7.5t32 -20t22 -30z" />
<glyph unicode="z" horiz-adv-x="924" d="M393 82q32 2 63 3t73.5 4t80 19.5t62 40t39.5 52t27 58.5q34 86 55 112h66v-371h-520zM847 898l-611 -897h-176v94q154 223 304.5 444.5t306.5 441.5h176v-83zM517 900q-38 -2 -103 -8.5t-97 -21.5t-52.5 -36.5t-32.5 -47t-22 -50.5q-25 -70 -42 -90h-66v336h475z" />
<glyph unicode="{" horiz-adv-x="987" d="M349 281q0 114 -27 155t-62 62.5t-90 36.5q106 29 145 89q34 53 34 167v376q0 188 96 257q78 55 271 55v-54q-145 -25 -169 -163q-8 -45 -8 -103v-338q0 -127 -28.5 -174.5t-65.5 -71.5t-96 -38v-5q112 -27 154 -97q36 -60 36 -187v-338q0 -122 28.5 -168t62.5 -66.5 t86 -29.5v-54q-192 0 -271 56q-96 69 -96 256v377z" />
<glyph unicode="|" horiz-adv-x="527" d="M183 1421h159v-1421h-159v1421z" />
<glyph unicode="}" horiz-adv-x="988" d="M639 791q0 -114 27 -156t61.5 -63.5t90.5 -36.5q-105 -28 -145 -89q-34 -51 -34 -165v-377q0 -187 -96 -256q-79 -56 -273 -56v54q102 18 142 83q37 61 37 181v338q0 127 28.5 174.5t65.5 71.5t96 38v5q-112 27 -154 97q-36 60 -36 187v338q0 181 -92 236q-35 21 -87 30 v54q195 0 273 -55q96 -69 96 -257v-376z" />
<glyph unicode="~" horiz-adv-x="1425" d="M166 455q108 176 297 176q92 0 267 -69q66 -25 125.5 -46.5t101 -21.5t70.5 12t54 32q37 31 90 99l85 -113q-71 -84 -113 -114q-86 -60 -170.5 -60t-143.5 21.5t-116.5 47t-120 47t-141.5 21.5q-122 0 -199 -143z" />
<glyph unicode="&#xa1;" horiz-adv-x="593" d="M344 604q5 -110 30 -325.5t33 -294.5q18 -176 18 -249.5t-8.5 -104t-24.5 -48.5q-31 -33 -95 -33t-88 25q-41 46 -41 118.5t5 143.5t12.5 149.5t17 160.5t17.5 162q20 189 27 296h97zM392 798q-35 -36 -78.5 -36t-67.5 10t-42 28q-41 38 -41 78.5t10.5 65t28.5 41.5 q41 37 98 37t92 -37t35 -94t-35 -93z" />
<glyph unicode="&#xa2;" d="M441 1058q-106 -106 -106 -336.5t107 -328.5l-1 -141q-152 41 -241 162q-92 124 -92 303q0 164 92 293q92 128 241 178v-130zM620 0h-103v1423h103v-1423zM797 1042q-12 58 -113 86v82q197 -25 258 -142q20 -38 20 -87.5t-30.5 -85t-84 -35.5t-83 27.5t-29.5 81t62 73.5z M684 334q110 31 169 141q17 32 32 66l76 -27q-69 -219 -277 -266v86z" />
<glyph unicode="&#xa3;" horiz-adv-x="1053" d="M677 1313q-25 51 -121 60v78q133 -8 211 -79q73 -65 73 -146q0 -143 -128 -143q-48 0 -78 27t-30 62.5t10.5 54.5t24 34t25 27t13.5 25zM748 688h280v-88h-215zM395 600h-295v88h205zM586 232q28 56 28 119t-38.5 123t-104.5 126l-88 88q-55 55 -102 102.5t-81 95.5 q-73 103 -73 218q0 125 84 221q97 110 261 125v-83q-65 -15 -106.5 -61t-41.5 -106.5t15.5 -102.5t44 -82t67 -81.5t85.5 -90.5q216 -228 250 -329q14 -43 14 -106q0 -123 -100 -243zM804 72q133 0 224 161l78 -59q-67 -99 -111 -135q-86 -70 -177 -70t-148 20.5t-108 55.5 l-97 64q-116 77 -168.5 92.5t-93 15.5t-66.5 -20t-26 -56t35.5 -61t122 -25t134.5 18l98 -63q-93 -41 -208.5 -41t-174 15t-98.5 41q-81 54 -81 133q0 123 140 163q45 13 106 13t116 -17.5t101.5 -42t84 -50.5t66.5 -44l104 -63q83 -45 147 -45z" />
<glyph unicode="&#xa4;" d="M527 295q-170 0 -287 86l-107 -98l-97 86l109 94q-100 102 -100 249.5t100 243.5l-109 97l97 86l109 -97q118 84 283.5 84t286.5 -84l109 97l96 -86l-108 -97q100 -94 100 -242.5t-100 -250.5l108 -94l-96 -86l-107 98q-117 -86 -287 -86zM527 1008q-138 0 -235 -88 q-97 -87 -97 -209q0 -126 97 -211q97 -86 235 -86t235 86q97 85 97 211q0 122 -97 209q-97 88 -235 88z" />
<glyph unicode="&#xa5;" horiz-adv-x="1053" d="M254 731h-198v88h152zM71 1257q-29 56 -111 84q-21 7 -40 17v63h525v-63q-24 -10 -48.5 -15t-44.5 -11q-43 -15 -43 -50q0 -26 31 -86.5t62 -120t76 -147.5t109 -213l47 -93v-391q0 -113 54 -135q16 -6 34 -10q55 -14 74 -27v-59h-553v59q22 14 57.5 22t51.5 14.5 t28 22.5q24 33 24 118v367zM697 685l-60 107q194 378 208 414q17 45 17 67.5t-13 36t-32.5 21t-43.5 13t-45 14.5v63h430v-63q-15 -11 -35.5 -17.5t-40.5 -12.5q-49 -16 -69 -44q-73 -108 -146 -256t-110.5 -221.5t-59.5 -121.5zM842 819h162v-88h-204zM717 559h287v-88 h-287v88zM321 471h-265v88h265v-88z" />
<glyph unicode="&#xa6;" horiz-adv-x="527" d="M183 537h159v-537h-159v537zM183 1421h159v-538h-159v538z" />
<glyph unicode="&#xa7;" horiz-adv-x="1188" d="M627 1451q113 -6 193 -63q78 -55 78 -135q0 -52 -32.5 -82t-86.5 -30t-84.5 26t-30.5 57.5t13 48.5t29 29t29 22t13 27t-34.5 34.5t-86.5 22.5v43zM544 -237q-141 8 -224 73q-73 58 -73 133q0 50 34.5 80.5t75.5 30.5t63.5 -8t38.5 -20q33 -26 33 -58t-12.5 -48t-28 -27 t-28 -20.5t-12.5 -22.5t10 -24t28 -20q38 -19 95 -25v-44zM494 899q-122 91 -157 131q-73 83 -73 174q0 104 80 170q75 63 200 75v-44q-71 -11 -111.5 -49.5t-40.5 -86.5t19 -79t53.5 -62t83.5 -65t119.5 -83t136.5 -99t112 -99q98 -103 98 -209q0 -136 -126 -207 q-38 -21 -84 -28l-70 49q67 0 100 25q57 43 57 93t-39.5 103.5t-134.5 124.5zM465 843q-12 2 -32.5 2t-46.5 -9t-47 -26q-47 -36 -47 -93q0 -59 31 -101q55 -74 150 -139l230 -158q113 -79 150 -126q69 -87 69 -170q0 -101 -80 -173q-83 -74 -215 -86v44q70 10 114.5 50.5 t44.5 93t-26.5 92t-70 76t-99 72.5t-113.5 73t-113.5 77.5t-99.5 86.5q-96 102 -96 218q0 102 70 167q65 62 172 72z" />
<glyph unicode="&#xa8;" horiz-adv-x="637" d="M25 1306.5q34 28.5 71.5 28.5t59.5 -7.5t38 -21.5q35 -29 35 -62.5t-9.5 -52.5t-25.5 -33q-34 -28 -84.5 -28t-84.5 28t-34 74t34 74.5zM445 1306.5q34 28.5 84.5 28.5t84.5 -28.5t34 -74.5t-34 -74t-84.5 -28t-84.5 28t-34 74t34 74.5z" />
<glyph unicode="&#xa9;" horiz-adv-x="1899" d="M1049 1142q178 -6 245 -46q21 -12 22 -25l7 -168h-48q-19 115 -129 164q-40 18 -97 23v52zM1049 357q191 10 272 186h45l-56 -168q-19 -58 -261 -69v51zM966 306q-349 13 -455 240q-36 77 -36 170t33 167t96 129q132 118 362 130v-52q-139 -15 -212 -118 q-67 -95 -67 -241q0 -236 152 -329q53 -33 127 -42v-54zM907 -30q-338 15 -567 228t-229 513q0 196 107 365q160 252 474 341q103 29 215 34v-104q-176 -10 -329 -101q-225 -134 -296 -375q-23 -78 -23 -160.5t22.5 -160.5t64 -147t100 -127.5t130.5 -101.5q153 -91 331 -99 v-105zM990 75q272 15 462 202q189 186 189 434q0 249 -189 435q-189 185 -462 201v104q335 -12 568 -227q145 -135 202 -321q28 -92 28 -192q0 -298 -231 -513q-146 -135 -353 -194q-102 -29 -214 -34v105z" />
<glyph unicode="&#xaa;" horiz-adv-x="632" d="M380 1300q0 65 -52 89v62q204 -15 204 -218v-285q0 -38 33 -38q13 0 26.5 13t20.5 42l41 -13q-9 -66 -27 -86q-32 -35 -110 -35t-136 50v419zM297 1139q-127 -54 -127 -158q0 -35 22 -56.5t52 -21.5t53 10v-72q-34 -10 -79 -10q-97 0 -153 40t-56 100.5t28 96.5t71 62 q65 40 189 73v-64zM143 1243q-89 0 -89 74q0 53 51 89t140 44v-53q-49 -7 -55 -31q34 -13 34 -49.5t-23 -55t-58 -18.5z" />
<glyph unicode="&#xab;" horiz-adv-x="1127" d="M955 1059v-115l-267 -344l267 -344v-115l-422 418v82zM564 1059v-115l-267 -344l267 -344v-115l-422 418v82z" />
<glyph unicode="&#xac;" horiz-adv-x="1425" d="M1121 596h-978v137h1137v-485h-159v348z" />
<glyph unicode="&#xad;" horiz-adv-x="637" d="M560 557v-133h-483v133h483z" />
<glyph unicode="&#xae;" horiz-adv-x="1899" d="M919 725q85 0 130.5 46t45.5 134q0 119 -107 152q-32 10 -69 10v51h71q194 0 264 -110q24 -37 24 -82.5t-15 -81t-42 -64.5q-55 -57 -143 -82l143 -166q104 -122 184 -178v-28h-163q-38 0 -70.5 30t-68.5 79t-80 111.5t-104 127.5v51zM836 446q0 -46 18 -59 q28 -18 101 -20v-41h-413v41q73 2 89 14q27 19 27 65v551q0 46 -18 58q-24 18 -98 22v41h294v-672zM905 -30q-338 15 -567 228t-229 513q0 196 107 365q160 252 474 341q103 29 215 34v-104q-176 -10 -329 -101q-225 -134 -296 -375q-23 -78 -23 -160.5t22.5 -160.5t64 -147 t100 -127.5t130.5 -101.5q153 -91 331 -99v-105zM988 75q272 15 462 202q189 186 189 434q0 249 -189 435q-189 185 -462 201v104q335 -12 568 -227q145 -135 202 -321q28 -92 28 -192q0 -298 -231 -513q-146 -135 -353 -194q-102 -29 -214 -34v105z" />
<glyph unicode="&#xaf;" horiz-adv-x="637" d="M644 1286v-108h-649v108h649z" />
<glyph unicode="&#xb0;" horiz-adv-x="950" d="M475 1366q-96 0 -162 -62q-63 -60 -63 -145q0 -84 63 -143q66 -62 162 -62t162 62q64 60 64 143q0 84 -64 145q-66 62 -162 62zM475 1452q142 0 239.5 -84.5t97.5 -208.5q0 -123 -98 -207t-239 -84t-239 84t-98 207q0 124 97.5 208.5t239.5 84.5z" />
<glyph unicode="&#xb1;" horiz-adv-x="1425" d="M632 981h159v-317h489v-138h-489v-317h-159v317h-489v138h489v317zM143 137h1137v-137h-1137v137z" />
<glyph unicode="&#xb2;" horiz-adv-x="632" d="M142 1143q-86 0 -86 108q0 117 116 175q37 19 85 24v-45q-85 -6 -115 -70q-9 -19 -9 -38q10 -9 24 -17t26 -18q29 -22 29 -52q0 -67 -70 -67zM196 681h103q115 0 157 49q20 23 30 52t27 60h29v-263h-419zM408 1219q0 154 -101 181v52q117 -4 187 -74q63 -65 63 -159 q0 -146 -179 -319q-49 -46 -95 -86q-119 -105 -139 -132l-76 -103h-32l12 114q25 29 49.5 57.5t52 60t61.5 70.5t71.5 79t65.5 80q60 86 60 179z" />
<glyph unicode="&#xb3;" horiz-adv-x="632" d="M275 1408q-94 -9 -106 -89q47 -19 57 -38.5t10 -47t-20 -47.5t-58 -20t-63.5 24t-25.5 68t15.5 74.5t42.5 55.5q58 52 148 62v-42zM52 735q0 116 107 116q45 0 64 -52q5 -14 5 -30t-6 -29.5t-16 -22.5q-17 -14 -53 -26q2 -35 35.5 -60t86.5 -26v-45q-108 5 -165.5 54 t-57.5 121zM376 1036q209 -37 209 -219q0 -104 -71 -175q-74 -74 -189 -82v50q114 25 114 197q0 156 -89 188q-25 9 -51 9l-28 -1h-17q-34 0 -34 26t34 26q3 4 17 3.5t33 1t40 9t39 26.5q41 43 41 128q0 157 -99 181v47q109 -6 174 -65q64 -59 64 -146q0 -162 -187 -201v-3z " />
<glyph unicode="&#xb4;" horiz-adv-x="637" d="M147 1096l287 274q32 30 63.5 53t59 23t43 -6.5t25.5 -17.5q21 -22 21 -47q0 -41 -64 -79l-340 -200h-95z" />
<glyph unicode="&#xb5;" horiz-adv-x="1164" d="M47 -391v53q21 12 44 19.5t42 16.5q43 22 43 69v1054q0 52 -39 73q-17 9 -38 14.5t-40 17.5v61h331v-1378h-343zM474 91q33 -11 71 -11t77 18.5t70 48.5q60 60 78 146v481q0 75 -13 94t-25 24.5t-26 9.5q-42 11 -60 24v61h337v-823q0 -52 41 -72q18 -9 39 -15t40 -18v-59 h-319v123h-3q-89 -147 -307 -150v118z" />
<glyph unicode="&#xb6;" horiz-adv-x="1425" d="M140 1010q0 411 433 411h132v-1661h-145v826q-205 0 -316 120q-104 111 -104 304zM845 1421h321v-47q-97 -4 -127 -23q-49 -32 -49 -96v-1495h-145v1661z" />
<glyph unicode="&#xb7;" horiz-adv-x="528" d="M398 489q0 -52 -40 -88q-39 -36 -80.5 -36t-66.5 9.5t-43 26.5q-40 36 -40 88q0 53 40 89q39 36 81 36q70 0 109.5 -36t39.5 -89z" />
<glyph unicode="&#xb8;" horiz-adv-x="637" d="M274 -203q-44 0 -72 -14l-36 12l104 205h79l-68 -137q34 10 79.5 10t79.5 -10t59 -29q54 -39 54 -104q0 -78 -74 -125q-77 -49 -205 -49q-117 0 -213 34l36 62q64 -27 141 -27t113 25.5t36 62.5q0 84 -113 84z" />
<glyph unicode="&#xb9;" horiz-adv-x="632" d="M260 1410q43 19 75 42h60v-710q0 -82 36 -99q17 -8 40.5 -10.5t52.5 -16.5v-37h-395v37q29 14 53 16.5t42 10.5q36 17 36 99v668zM210 1320q-22 11 -86 11v37q54 11 86 25v-73z" />
<glyph unicode="&#xba;" horiz-adv-x="632" d="M354 905q92 39 92 236.5t-92 236.5v72q106 -13 176 -90q77 -84 77 -217q0 -134 -77 -219q-71 -77 -176 -90v71zM271 1378q-88 -37 -88 -236t88 -236v-72q-169 24 -229 184q-21 55 -21 124.5t20.5 123.5t54.5 92q68 76 175 91v-71z" />
<glyph unicode="&#xbb;" horiz-adv-x="1127" d="M564 1059l422 -418v-82l-422 -418v115l268 344l-268 344v115zM174 1059l422 -418v-82l-422 -418v115l266 344l-266 344v115z" />
<glyph unicode="&#xbc;" horiz-adv-x="1581" d="M410 -31h-149l1037 1483h153zM1422 145q0 -64 24 -77q11 -7 26.5 -9.5t34.5 -13.5v-45h-343v41q23 17 43 19t35 7q33 11 33 83v647l53 73h94v-725zM1192 229h-266v74l266 375v-119l-175 -254v-4h175v-72zM1505 301h54v-72h-54v72zM260 1410q43 19 75 42h60v-710 q0 -82 36 -99q17 -8 40.5 -10.5t52.5 -16.5v-37h-395v37q29 14 53 16.5t42 10.5q36 17 36 99v668zM210 1320q-22 11 -86 11v37q54 11 86 25v-73z" />
<glyph unicode="&#xbd;" horiz-adv-x="1582" d="M354 -31h-150l1038 1483h152zM260 1410q43 19 75 42h60v-710q0 -82 36 -99q17 -8 40.5 -10.5t52.5 -16.5v-37h-395v37q29 14 53 16.5t42 10.5q36 17 36 99v668zM210 1320q-22 11 -86 11v37q54 11 86 25v-73zM1124 564q-86 0 -86 108q0 118 116 176q37 18 85 23v-45 q-85 -6 -115 -70q-9 -19 -9 -38q10 -9 24 -17t26 -17q29 -23 29 -53q0 -67 -70 -67zM1178 102h103q115 0 157 50q20 22 30 51t27 60h29v-263h-419zM1390 640q0 154 -101 181v52q117 -4 187 -74q63 -65 63 -159q0 -146 -179 -318q-49 -47 -95 -88q-119 -104 -139 -131 l-76 -103h-32l12 114q25 29 49.5 57.5t52 60t61.5 70.5t71.5 79t65.5 80q60 86 60 179z" />
<glyph unicode="&#xbe;" horiz-adv-x="1581" d="M410 -31h-149l1037 1483h152zM1422 145q0 -64 24 -77q11 -7 26.5 -9.5t34.5 -13.5v-45h-343v41q23 17 43 19t35 7q33 11 33 83v647l53 73h94v-725zM1192 229h-266v74l266 375v-119l-175 -254v-4h175v-72zM1505 301h54v-72h-54v72zM275 1408q-94 -9 -106 -89 q47 -19 57 -38.5t10 -47t-20 -47.5t-58 -20t-63.5 24t-25.5 68t15.5 74.5t42.5 55.5q58 52 148 62v-42zM52 735q0 116 107 116q45 0 64 -52q5 -14 5 -30t-6 -29.5t-16 -22.5q-17 -14 -53 -26q2 -35 35.5 -60t86.5 -26v-45q-108 5 -165.5 54t-57.5 121zM376 1036 q209 -37 209 -219q0 -104 -71 -175q-74 -74 -189 -82v50q114 25 114 197q0 156 -89 188q-25 9 -51 9l-28 -1h-17q-34 0 -34 26t34 26q3 4 17 3.5t33 1t40 9t39 26.5q41 43 41 128q0 157 -99 181v47q109 -6 174 -65q64 -59 64 -146q0 -162 -187 -201v-3z" />
<glyph unicode="&#xbf;" horiz-adv-x="924" d="M525 -364q74 0 122 38q45 36 47 88q-62 13 -97 48t-35 85t32 81.5t93.5 31.5t101 -40t39.5 -108.5t-21 -118.5t-60 -89q-83 -84 -222 -100v84zM315 -117q0 -182 127 -233v-101q-169 6 -273 109q-96 94 -96 225q0 130 100 230q43 43 93.5 81t93.5 82q100 102 100 236v86 h95v-107q0 -120 -63 -215q-26 -41 -57 -77.5t-57 -80.5q-63 -102 -63 -235zM591.5 798q-36.5 -37 -79.5 -37t-66.5 10.5t-41.5 28.5q-39 39 -39 79.5t10 64t27 40.5q39 37 81 37t66.5 -9.5t42.5 -26.5q36 -35 36 -92.5t-36.5 -94.5z" />
<glyph unicode="&#xc0;" horiz-adv-x="1254" d="M711 451h-304l25 92h249zM513 1003l-235 -702q-31 -89 -30 -133.5t14 -58.5t34 -20t48 -10t55 -18v-61h-435v61q21 12 44 19t44 16q49 22 63 66l338 1003zM488 1267q-54 19 -73 38q2 21 5.5 39.5l7 37t7.5 30.5q190 40 220 40q21 -17 39 -63l439 -1211q22 -60 66 -82 q20 -10 42.5 -16.5t47.5 -18.5v-61h-541v61q23 11 48 15.5t46 9.5q46 11 46 45q0 30 -48 162t-85 235q-103 289 -202 578zM781 1542l-339 200q-64 37 -64 80t46 64q14 6 42 6q42 0 123 -76l287 -274h-95z" />
<glyph unicode="&#xc1;" horiz-adv-x="1254" d="M711 451h-304l25 92h249zM513 1003l-235 -702q-31 -89 -30 -133.5t14 -58.5t34 -20t48 -10t55 -18v-61h-435v61q21 12 44 19t44 16q49 22 63 66l338 1003zM488 1267q-54 19 -73 38q2 21 5.5 39.5l7 37t7.5 30.5q190 40 220 40q21 -17 39 -63l439 -1211q22 -60 66 -82 q20 -10 42.5 -16.5t47.5 -18.5v-61h-541v61q23 11 48 15.5t46 9.5q46 11 46 45q0 30 -48 162t-85 235q-103 289 -202 578zM377 1542l287 274q32 30 63.5 53t59 23t43 -6.5t25.5 -17.5q21 -22 21 -47q0 -41 -64 -79l-340 -200h-95z" />
<glyph unicode="&#xc2;" horiz-adv-x="1254" d="M711 451h-304l25 92h249zM513 1003l-235 -702q-31 -89 -30 -133.5t14 -58.5t34 -20t48 -10t55 -18v-61h-435v61q21 12 44 19t44 16q49 22 63 66l338 1003zM488 1267q-54 19 -73 38q2 21 5.5 39.5l7 37t7.5 30.5q190 40 220 40q21 -17 39 -63l439 -1211q22 -60 66 -82 q20 -10 42.5 -16.5t47.5 -18.5v-61h-541v61q23 11 48 15.5t46 9.5q46 11 46 45q0 30 -48 162t-85 235q-103 289 -202 578zM700 1886l266 -344h-87l-253 227l-254 -227h-85l263 344h150z" />
<glyph unicode="&#xc3;" horiz-adv-x="1254" d="M711 451h-304l25 92h249zM513 1003l-235 -702q-31 -89 -30 -133.5t14 -58.5t34 -20t48 -10t55 -18v-61h-435v61q21 12 44 19t44 16q49 22 63 66l338 1003zM488 1267q-54 19 -73 38q2 21 5.5 39.5l7 37t7.5 30.5q190 40 220 40q21 -17 39 -63l439 -1211q22 -60 66 -82 q20 -10 42.5 -16.5t47.5 -18.5v-61h-541v61q23 11 48 15.5t46 9.5q46 11 46 45q0 30 -48 162t-85 235q-103 289 -202 578zM982 1812q-61 -217 -226 -217q-58 0 -128 33.5t-105.5 49t-66.5 15.5t-50.5 -9t-33.5 -24q-20 -22 -36 -69h-65q23 106 82.5 158.5t141.5 52.5 q57 0 128 -34t105.5 -49.5t63 -15.5t47.5 8.5t33 22.5q16 17 45 78h65z" />
<glyph unicode="&#xc4;" horiz-adv-x="1254" d="M711 451h-304l25 92h249zM513 1003l-235 -702q-31 -89 -30 -133.5t14 -58.5t34 -20t48 -10t55 -18v-61h-435v61q21 12 44 19t44 16q49 22 63 66l338 1003zM488 1267q-54 19 -73 38q2 21 5.5 39.5l7 37t7.5 30.5q190 40 220 40q21 -17 39 -63l439 -1211q22 -60 66 -82 q20 -10 42.5 -16.5t47.5 -18.5v-61h-541v61q23 11 48 15.5t46 9.5q46 11 46 45q0 30 -48 162t-85 235q-103 289 -202 578zM332 1752.5q34 28.5 71.5 28.5t59.5 -7.5t38 -21.5q35 -29 35 -62.5t-9.5 -52.5t-25.5 -33q-34 -28 -84.5 -28t-84.5 28t-34 74t34 74.5zM752 1752.5 q34 28.5 84.5 28.5t84.5 -28.5t34 -74.5t-34 -74t-84.5 -28t-84.5 28t-34 74t34 74.5z" />
<glyph unicode="&#xc5;" horiz-adv-x="1254" d="M711 451h-304l25 92h249zM513 1003l-235 -702q-31 -89 -30 -133.5t14 -58.5t34 -20t48 -10t55 -18v-61h-435v61q21 12 44 19t44 16q49 22 63 66l338 1003zM488 1267q-54 19 -73 38q2 21 5.5 39.5l7 37t7.5 30.5q190 40 220 40q21 -17 39 -63l439 -1211q22 -60 66 -82 q20 -10 42.5 -16.5t47.5 -18.5v-61h-541v61q23 11 48 15.5t46 9.5q46 11 46 45q0 30 -48 162t-85 235q-103 289 -202 578zM386 1763q0 87 70 148q69 59 171 59q101 0 169 -59q71 -61 71 -148q0 -88 -71 -149q-69 -60 -169 -60q-101 0 -171 60q-70 61 -70 149zM473 1762 q0 -28 12 -52.5t33 -43.5q43 -40 109 -40q102 0 141 84q12 24 12 52.5t-11.5 53.5t-32.5 43q-44 39 -109 39t-109.5 -39t-44.5 -97z" />
<glyph unicode="&#xc6;" horiz-adv-x="1935" d="M886 1317q-22 12 -50 12q-18 -11 -43 -61l-320 -609q-191 -337 -222 -412t-31 -100.5t13.5 -37.5t34.5 -18.5t47 -11.5t52 -18v-61h-431v61q22 15 42.5 22.5t40.5 18.5q44 24 83 95l534 985q41 74 41 100q0 32 -47 48q-21 6 -46.5 12t-49.5 16v63h601v-1253 q0 -77 101 -84q31 -2 95.5 -2t130.5 12.5t113 41.5q88 53 128 190q9 31 15.5 56.5t13.5 46.5q17 45 44 71h64v-500h-1104v59q21 12 40 17t35.5 9.5t30.5 11t24 21.5q20 31 20 109v1090zM1327 1339q-79 0 -108 -4v86h371q54 0 204 15v-490h-68q-32 29 -46.5 75.5t-30.5 102.5 q-36 119 -97 164q-70 51 -225 51zM1216 795h156v-136h-156v136zM803 659h-241l48 136l193 -47v-89z" />
<glyph unicode="&#xc7;" horiz-adv-x="1321" d="M1047 1352q36 0 59 53h88v-500h-68q-40 38 -71 124.5t-51 136.5t-50 92q-66 93 -183 109v82q126 -12 242 -84q21 -13 34 -13zM771 65q220 0 313 220q32 76 46 182l95 -23q-31 -233 -143 -348.5t-311 -125.5v95zM688 -30q-271 14 -436 213q-166 201 -166 528 q0 318 172 527q169 206 430 214v-84q-221 -21 -294 -355q-27 -124 -27 -297.5t27 -288.5t72 -190q82 -139 222 -166v-101zM627 -203q-44 0 -72 -14l-36 12l104 205h79l-68 -137q80 23 159 0q69 -20 99 -73q14 -27 14 -62.5t-19 -67.5t-55 -55q-77 -49 -205 -49 q-117 0 -213 34l36 62q64 -27 141 -27t113 25.5t36 62.5q0 84 -113 84z" />
<glyph unicode="&#xc8;" horiz-adv-x="1253" d="M84 0v59q24 15 54.5 23t43.5 15t22 22q20 31 20 114v953q0 84 -14.5 107t-27 29.5t-28.5 11.5q-50 14 -70 28v59h389v-1421h-389zM556 82l19 -1q225 0 319 47q99 50 140 198q9 31 15.5 56.5t14.5 46.5q15 44 42 71h65v-500h-615v82zM926 1421q62 0 200 15v-490h-70 q-35 45 -54 101t-39 109t-40 85t-50 54q-60 44 -162.5 44t-154.5 -15v97h370zM556 846h292v-188h-292v188zM780 1542l-339 200q-64 37 -64 80t45 64q15 6 34 6t35 -6.5t29 -17.5q28 -21 36 -52l319 -274h-95z" />
<glyph unicode="&#xc9;" horiz-adv-x="1253" d="M84 0v59q24 15 54.5 23t43.5 15t22 22q20 31 20 114v953q0 84 -14.5 107t-27 29.5t-28.5 11.5q-50 14 -70 28v59h389v-1421h-389zM556 82l19 -1q225 0 319 47q99 50 140 198q9 31 15.5 56.5t14.5 46.5q15 44 42 71h65v-500h-615v82zM926 1421q62 0 200 15v-490h-70 q-35 45 -54 101t-39 109t-40 85t-50 54q-60 44 -162.5 44t-154.5 -15v97h370zM556 846h292v-188h-292v188zM377 1542l287 274q32 30 63.5 53t59 23t43 -6.5t25.5 -17.5q21 -22 21 -47q0 -41 -64 -79l-340 -200h-95z" />
<glyph unicode="&#xca;" horiz-adv-x="1253" d="M84 0v59q24 15 54.5 23t43.5 15t22 22q20 31 20 114v953q0 84 -14.5 107t-27 29.5t-28.5 11.5q-50 14 -70 28v59h389v-1421h-389zM556 82l19 -1q225 0 319 47q99 50 140 198q9 31 15.5 56.5t14.5 46.5q15 44 42 71h65v-500h-615v82zM926 1421q62 0 200 15v-490h-70 q-35 45 -54 101t-39 109t-40 85t-50 54q-60 44 -162.5 44t-154.5 -15v97h370zM556 846h292v-188h-292v188zM700 1886l266 -344h-87l-253 227l-254 -227h-85l263 344h150z" />
<glyph unicode="&#xcb;" horiz-adv-x="1253" d="M84 0v59q24 15 54.5 23t43.5 15t22 22q20 31 20 114v953q0 84 -14.5 107t-27 29.5t-28.5 11.5q-50 14 -70 28v59h389v-1421h-389zM556 82l19 -1q225 0 319 47q99 50 140 198q9 31 15.5 56.5t14.5 46.5q15 44 42 71h65v-500h-615v82zM926 1421q62 0 200 15v-490h-70 q-35 45 -54 101t-39 109t-40 85t-50 54q-60 44 -162.5 44t-154.5 -15v97h370zM556 846h292v-188h-292v188zM332 1752.5q34 28.5 71.5 28.5t59.5 -7.5t38 -21.5q35 -29 35 -62.5t-9.5 -52.5t-25.5 -33q-34 -28 -84.5 -28t-84.5 28t-34 74t34 74.5zM752 1752.5 q34 28.5 84.5 28.5t84.5 -28.5t34 -74.5t-34 -74t-84.5 -28t-84.5 28t-34 74t34 74.5z" />
<glyph unicode="&#xcc;" horiz-adv-x="725" d="M630 1421v-59q-29 -12 -55 -19t-45 -18q-43 -24 -43 -88v-1053q0 -64 43 -88q20 -11 46 -18t56 -19v-59h-539v59q29 12 55 19t46 18q44 24 44 88v1053q0 64 -44 88q-20 11 -46 18t-55 19v59h537zM516 1542l-339 200q-64 37 -64 80t45 64q15 6 42 6q43 0 124 -76l287 -274 h-95z" />
<glyph unicode="&#xcd;" horiz-adv-x="725" d="M630 1421v-59q-29 -12 -55 -19t-45 -18q-43 -24 -43 -88v-1053q0 -64 43 -88q20 -11 46 -18t56 -19v-59h-539v59q29 12 55 19t46 18q44 24 44 88v1053q0 64 -44 88q-20 11 -46 18t-55 19v59h537zM113 1542l287 274q32 30 63.5 53t59 23t43 -6.5t25.5 -17.5q21 -22 21 -47 q0 -41 -64 -79l-340 -200h-95z" />
<glyph unicode="&#xce;" horiz-adv-x="725" d="M630 1421v-59q-29 -12 -55 -19t-45 -18q-43 -24 -43 -88v-1053q0 -64 43 -88q20 -11 46 -18t56 -19v-59h-539v59q29 12 55 19t46 18q44 24 44 88v1053q0 64 -44 88q-20 11 -46 18t-55 19v59h537zM436 1886l266 -344h-87l-253 227l-254 -227h-85l263 344h150z" />
<glyph unicode="&#xcf;" horiz-adv-x="725" d="M630 1421v-59q-29 -12 -55 -19t-45 -18q-43 -24 -43 -88v-1053q0 -64 43 -88q20 -11 46 -18t56 -19v-59h-539v59q29 12 55 19t46 18q44 24 44 88v1053q0 64 -44 88q-20 11 -46 18t-55 19v59h537zM68 1752.5q34 28.5 71.5 28.5t59.5 -7.5t38 -21.5q35 -29 35 -62.5 t-9.5 -52.5t-25.5 -33q-34 -28 -84.5 -28t-84.5 28t-34 74t34 74.5zM488 1752.5q34 28.5 84.5 28.5t84.5 -28.5t34 -74.5t-34 -74t-84.5 -28t-84.5 28t-34 74t34 74.5z" />
<glyph unicode="&#xd0;" horiz-adv-x="1451" d="M71 811h153v426q0 64 -42 88q-20 11 -45.5 18t-52.5 19v59h405v-610h315v-96h-315v-715h-405v59q27 12 52.5 19t45.5 18q42 24 42 88v531h-153v96zM826 1316q-78 30 -152.5 30t-101.5 -5v80h98q320 0 503 -198q178 -192 178 -512q0 -321 -178 -513q-183 -198 -503 -198 h-98v81q40 -5 108 -5t146.5 30.5t132.5 103.5q110 150 110 501q0 510 -243 605z" />
<glyph unicode="&#xd1;" horiz-adv-x="1429" d="M1101 532v705q0 54 -50 83q-22 12 -49.5 22t-54.5 22v59h418v-59q-25 -12 -51.5 -22t-47.5 -22q-50 -29 -50 -83v-885zM326 1062v-876q0 -55 52 -82q23 -13 53.5 -23t62.5 -22v-59h-440v59q28 12 56 22t50 23q51 28 51 82v1026zM330 1186q-107 126 -214 158q-28 9 -55 18 v59h390l765 -1210v-219h-147zM1070 1812q-61 -217 -226 -217q-58 0 -128 33.5t-105.5 49t-66.5 15.5t-50.5 -9t-33.5 -24q-20 -22 -36 -69h-65q23 106 82.5 158.5t141.5 52.5q57 0 128 -34t105.5 -49.5t63 -15.5t47.5 8.5t33 22.5q16 17 45 78h65z" />
<glyph unicode="&#xd2;" horiz-adv-x="1429" d="M671 -30q-256 18 -423 232q-162 208 -162 509q0 299 162 507q167 214 423 232v-82q-147 -15 -221 -156q-83 -162 -83 -501q0 -498 179 -615q56 -36 125 -43v-83zM754 53q224 23 282 357q22 123 22 301q0 496 -179 613q-56 36 -125 44v83q258 -18 424 -231 q163 -209 163 -509t-163 -509q-166 -213 -424 -231v82zM868 1542l-339 200q-64 37 -64 80t45 64q15 6 42 6q43 0 124 -76l287 -274h-95z" />
<glyph unicode="&#xd3;" horiz-adv-x="1429" d="M671 -30q-256 18 -423 232q-162 208 -162 509q0 299 162 507q167 214 423 232v-82q-147 -15 -221 -156q-83 -162 -83 -501q0 -498 179 -615q56 -36 125 -43v-83zM754 53q224 23 282 357q22 123 22 301q0 496 -179 613q-56 36 -125 44v83q258 -18 424 -231 q163 -209 163 -509t-163 -509q-166 -213 -424 -231v82zM465 1542l287 274q32 30 63.5 53t59 23t43 -6.5t25.5 -17.5q21 -22 21 -47q0 -41 -64 -79l-340 -200h-95z" />
<glyph unicode="&#xd4;" horiz-adv-x="1429" d="M671 -30q-256 18 -423 232q-162 208 -162 509q0 299 162 507q167 214 423 232v-82q-147 -15 -221 -156q-83 -162 -83 -501q0 -498 179 -615q56 -36 125 -43v-83zM754 53q224 23 282 357q22 123 22 301q0 496 -179 613q-56 36 -125 44v83q258 -18 424 -231 q163 -209 163 -509t-163 -509q-166 -213 -424 -231v82zM788 1886l266 -344h-87l-253 227l-254 -227h-85l263 344h150z" />
<glyph unicode="&#xd5;" horiz-adv-x="1429" d="M671 -30q-256 18 -423 232q-162 208 -162 509q0 299 162 507q167 214 423 232v-82q-147 -15 -221 -156q-83 -162 -83 -501q0 -498 179 -615q56 -36 125 -43v-83zM754 53q224 23 282 357q22 123 22 301q0 496 -179 613q-56 36 -125 44v83q258 -18 424 -231 q163 -209 163 -509t-163 -509q-166 -213 -424 -231v82zM1070 1812q-61 -217 -226 -217q-58 0 -128 33.5t-105.5 49t-66.5 15.5t-50.5 -9t-33.5 -24q-20 -22 -36 -69h-65q23 106 82.5 158.5t141.5 52.5q57 0 128 -34t105.5 -49.5t63 -15.5t47.5 8.5t33 22.5q16 17 45 78h65z " />
<glyph unicode="&#xd6;" horiz-adv-x="1429" d="M671 -30q-256 18 -423 232q-162 208 -162 509q0 299 162 507q167 214 423 232v-82q-147 -15 -221 -156q-83 -162 -83 -501q0 -498 179 -615q56 -36 125 -43v-83zM754 53q224 23 282 357q22 123 22 301q0 496 -179 613q-56 36 -125 44v83q258 -18 424 -231 q163 -209 163 -509t-163 -509q-166 -213 -424 -231v82zM420 1752.5q34 28.5 71.5 28.5t59.5 -7.5t38 -21.5q35 -29 35 -62.5t-9.5 -52.5t-25.5 -33q-34 -28 -84.5 -28t-84.5 28t-34 74t34 74.5zM840 1752.5q34 28.5 84.5 28.5t84.5 -28.5t34 -74.5t-34 -74t-84.5 -28 t-84.5 28t-34 74t34 74.5z" />
<glyph unicode="&#xd7;" horiz-adv-x="1425" d="M256 981l456 -393l457 393l111 -98l-456 -394l456 -393l-111 -96l-457 393l-456 -393l-113 96l455 393l-455 394z" />
<glyph unicode="&#xd8;" horiz-adv-x="1429" d="M455 202q75 -134 216 -149v-83q-164 12 -294 105l-130 -214h-116l170 280q-102 103 -158.5 249.5t-56.5 307t42.5 291t119.5 229.5q167 214 423 232v-82q-147 -15 -221 -156q-83 -162 -83 -501q0 -240 42 -393l554 911q-71 122 -209 139v83q155 -12 284 -99l118 194h117 l-157 -257q106 -103 165.5 -252.5t59.5 -311.5t-42.5 -292.5t-120.5 -230.5q-166 -213 -424 -231v82q224 23 282 357q22 123 22 278q0 276 -47 429z" />
<glyph unicode="&#xd9;" horiz-adv-x="1405" d="M793 52q210 9 275 164q22 51 22 118v891q0 83 -98 116q-27 9 -54 21v59h420v-59q-27 -12 -54.5 -21t-49.5 -23q-50 -30 -50 -93v-860q0 -364 -411 -393v80zM710 -31q-374 0 -476 233q-34 77 -34 177v858q0 64 -39 88q-18 11 -43 18t-54 19v59h523v-59q-30 -12 -55 -19 t-44 -18q-39 -23 -39 -88v-905q0 -117 71 -192q68 -72 190 -86v-85zM856 1542l-339 200q-64 37 -64 80t45 64q15 6 42 6q43 0 124 -76l287 -274h-95z" />
<glyph unicode="&#xda;" horiz-adv-x="1405" d="M793 52q210 9 275 164q22 51 22 118v891q0 83 -98 116q-27 9 -54 21v59h420v-59q-27 -12 -54.5 -21t-49.5 -23q-50 -30 -50 -93v-860q0 -364 -411 -393v80zM710 -31q-374 0 -476 233q-34 77 -34 177v858q0 64 -39 88q-18 11 -43 18t-54 19v59h523v-59q-30 -12 -55 -19 t-44 -18q-39 -23 -39 -88v-905q0 -117 71 -192q68 -72 190 -86v-85zM453 1542l287 274q32 30 63.5 53t59 23t43 -6.5t25.5 -17.5q21 -22 21 -47q0 -41 -64 -79l-340 -200h-95z" />
<glyph unicode="&#xdb;" horiz-adv-x="1405" d="M793 52q210 9 275 164q22 51 22 118v891q0 83 -98 116q-27 9 -54 21v59h420v-59q-27 -12 -54.5 -21t-49.5 -23q-50 -30 -50 -93v-860q0 -364 -411 -393v80zM710 -31q-374 0 -476 233q-34 77 -34 177v858q0 64 -39 88q-18 11 -43 18t-54 19v59h523v-59q-30 -12 -55 -19 t-44 -18q-39 -23 -39 -88v-905q0 -117 71 -192q68 -72 190 -86v-85zM776 1886l266 -344h-87l-253 227l-254 -227h-85l263 344h150z" />
<glyph unicode="&#xdc;" horiz-adv-x="1405" d="M793 52q210 9 275 164q22 51 22 118v891q0 83 -98 116q-27 9 -54 21v59h420v-59q-27 -12 -54.5 -21t-49.5 -23q-50 -30 -50 -93v-860q0 -364 -411 -393v80zM710 -31q-374 0 -476 233q-34 77 -34 177v858q0 64 -39 88q-18 11 -43 18t-54 19v59h523v-59q-30 -12 -55 -19 t-44 -18q-39 -23 -39 -88v-905q0 -117 71 -192q68 -72 190 -86v-85zM408 1752.5q34 28.5 71.5 28.5t59.5 -7.5t38 -21.5q35 -29 35 -62.5t-9.5 -52.5t-25.5 -33q-34 -28 -84.5 -28t-84.5 28t-34 74t34 74.5zM828 1752.5q34 28.5 84.5 28.5t84.5 -28.5t34 -74.5t-34 -74 t-84.5 -28t-84.5 28t-34 74t34 74.5z" />
<glyph unicode="&#xdd;" horiz-adv-x="1187" d="M709 792q194 378 208 414q17 45 17 67.5t-13 36t-32.5 21t-43.5 13t-45 14.5v63h430v-63q-16 -12 -56 -24.5t-58.5 -22t-45.5 -50t-67 -113t-79 -150t-77.5 -157t-77.5 -156.5zM727 603l-10 -15v-357q0 -113 54 -135q16 -6 34 -10q55 -14 74 -27v-59h-573v59 q22 14 57.5 22t51.5 14.5t27 22.5q25 33 25 118v356l-347 665q-29 56 -112 84q-20 7 -39 17v63h559v-63q-24 -10 -48.5 -15t-43.5 -11q-44 -15 -44 -50q0 -26 31 -86.5t61.5 -120t76 -147.5t109.5 -213zM344 1542l287 274q32 30 63.5 53t59 23t43 -6.5t25.5 -17.5 q21 -22 21 -40.5t-5 -29.5t-18 -20q-26 -18 -93 -36l-288 -200h-95z" />
<glyph unicode="&#xde;" horiz-adv-x="1230" d="M481 219q0 -50 35 -100q17 -23 50 -31q68 -16 83 -29v-59h-558v59q27 12 52.5 19t44.5 18q43 24 43 88v1010q0 59 -4 83.5t-19 36t-34.5 18.5t-41.5 12.5t-41 17.5v59h530v-59q-24 -16 -54.5 -24t-43.5 -14t-23 -20q-19 -27 -19 -104v-981zM644 1038q-44 0 -80 -6v81h98 q404 0 506 -219q32 -69 32 -152t-32 -152t-97 -120q-140 -110 -391 -110h-116v76h10q175 0 256 65q88 71 88 240q0 297 -274 297z" />
<glyph unicode="&#xdf;" horiz-adv-x="1352" d="M815 -26q-205 9 -269 156q-20 47 -20 92.5t19.5 61.5t43.5 16q60 0 75 -67q38 -169 151 -190v-69zM423 127q0 -24 25 -32t25 -21v-74h-404v53q22 12 46.5 19.5t45.5 17.5q48 24 48 70v862q0 273 215 378zM507 1431q75 21 163.5 21t166.5 -22.5t137 -63.5 q127 -89 127 -233q0 -178 -196 -289q-86 -50 -196 -79q16 -26 61.5 -49.5t104.5 -50.5t123 -60t118 -78q123 -104 123 -244q0 -119 -91 -206q-94 -91 -249 -103v68q76 11 116 64q34 44 34 101t-21.5 96t-57 70t-80.5 56t-91.5 48t-91.5 46.5t-81 50.5q-78 61 -78 139 q0 96 102 139q88 37 117 55.5t51 46.5q51 64 51 179q0 187 -130 233q-41 14 -111 14t-121 -39v90z" />
<glyph unicode="&#xe0;" d="M572 510q-268 -97 -268 -283q0 -75 36 -120.5t107.5 -45.5t124.5 53v-95q-77 -46 -174 -46t-155.5 19t-98.5 52q-83 67 -83 177q0 227 403 343q57 17 108 30v-84zM335 868q55 -21 55 -96q0 -48 -34 -77t-91.5 -29t-91 31t-33.5 80t23 88t65 69q87 63 219 73v-76 q-81 -8 -112 -63zM930 99q55 0 70 100l51 -27q-10 -97 -53.5 -148t-138.5 -51q-74 0 -110 27q-58 44 -94 133v623q0 62 -32.5 107.5t-92.5 61.5v82q339 -18 339 -358v-473q0 -77 61 -77zM681 1096l-339 200q-64 37 -64 80t46 64q14 6 42 6q42 0 123 -76l287 -274h-95z" />
<glyph unicode="&#xe1;" d="M572 510q-268 -97 -268 -283q0 -75 36 -120.5t107.5 -45.5t124.5 53v-95q-77 -46 -174 -46t-155.5 19t-98.5 52q-83 67 -83 177q0 227 403 343q57 17 108 30v-84zM335 868q55 -21 55 -96q0 -48 -34 -77t-91.5 -29t-91 31t-33.5 80t23 88t65 69q87 63 219 73v-76 q-81 -8 -112 -63zM930 99q55 0 70 100l51 -27q-10 -97 -53.5 -148t-138.5 -51q-74 0 -110 27q-58 44 -94 133v623q0 62 -32.5 107.5t-92.5 61.5v82q339 -18 339 -358v-473q0 -77 61 -77zM277 1096l287 274q32 30 63.5 53t59 23t43 -6.5t25.5 -17.5q21 -22 21 -47 q0 -41 -64 -79l-340 -200h-95z" />
<glyph unicode="&#xe2;" d="M572 510q-268 -97 -268 -283q0 -75 36 -120.5t107.5 -45.5t124.5 53v-95q-77 -46 -174 -46t-155.5 19t-98.5 52q-83 67 -83 177q0 227 403 343q57 17 108 30v-84zM335 868q55 -21 55 -96q0 -48 -34 -77t-91.5 -29t-91 31t-33.5 80t23 88t65 69q87 63 219 73v-76 q-81 -8 -112 -63zM930 99q55 0 70 100l51 -27q-10 -97 -53.5 -148t-138.5 -51q-74 0 -110 27q-58 44 -94 133v623q0 62 -32.5 107.5t-92.5 61.5v82q339 -18 339 -358v-473q0 -77 61 -77zM600 1440l266 -344h-87l-253 227l-254 -227h-85l263 344h150z" />
<glyph unicode="&#xe3;" d="M572 510q-268 -97 -268 -283q0 -75 36 -120.5t107.5 -45.5t124.5 53v-95q-77 -46 -174 -46t-155.5 19t-98.5 52q-83 67 -83 177q0 227 403 343q57 17 108 30v-84zM335 868q55 -21 55 -96q0 -48 -34 -77t-91.5 -29t-91 31t-33.5 80t23 88t65 69q87 63 219 73v-76 q-81 -8 -112 -63zM930 99q55 0 70 100l51 -27q-10 -97 -53.5 -148t-138.5 -51q-74 0 -110 27q-58 44 -94 133v623q0 62 -32.5 107.5t-92.5 61.5v82q339 -18 339 -358v-473q0 -77 61 -77zM882 1366q-61 -217 -226 -217q-58 0 -128 33.5t-105.5 49t-66.5 15.5t-50.5 -9 t-33.5 -24q-20 -22 -36 -69h-65q23 106 82.5 158.5t141.5 52.5q57 0 128 -34t105.5 -49.5t63 -15.5t47.5 8.5t33 22.5q16 17 45 78h65z" />
<glyph unicode="&#xe4;" d="M572 510q-268 -97 -268 -283q0 -75 36 -120.5t107.5 -45.5t124.5 53v-95q-77 -46 -174 -46t-155.5 19t-98.5 52q-83 67 -83 177q0 227 403 343q57 17 108 30v-84zM335 868q55 -21 55 -96q0 -48 -34 -77t-91.5 -29t-91 31t-33.5 80t23 88t65 69q87 63 219 73v-76 q-81 -8 -112 -63zM930 99q55 0 70 100l51 -27q-10 -97 -53.5 -148t-138.5 -51q-74 0 -110 27q-58 44 -94 133v623q0 62 -32.5 107.5t-92.5 61.5v82q339 -18 339 -358v-473q0 -77 61 -77zM232 1306.5q34 28.5 71.5 28.5t59.5 -7.5t38 -21.5q35 -29 35 -62.5t-9.5 -52.5 t-25.5 -33q-34 -28 -84.5 -28t-84.5 28t-34 74t34 74.5zM652 1306.5q34 28.5 84.5 28.5t84.5 -28.5t34 -74.5t-34 -74t-84.5 -28t-84.5 28t-34 74t34 74.5z" />
<glyph unicode="&#xe5;" d="M572 510q-268 -97 -268 -283q0 -75 36 -120.5t107.5 -45.5t124.5 53v-95q-77 -46 -174 -46t-155.5 19t-98.5 52q-83 67 -83 177q0 227 403 343q57 17 108 30v-84zM335 868q55 -21 55 -96q0 -48 -34 -77t-91.5 -29t-91 31t-33.5 80t23 88t65 69q87 63 219 73v-76 q-81 -8 -112 -63zM930 99q55 0 70 100l51 -27q-10 -97 -53.5 -148t-138.5 -51q-74 0 -110 27q-58 44 -94 133v623q0 62 -32.5 107.5t-92.5 61.5v82q339 -18 339 -358v-473q0 -77 61 -77zM286 1317q0 87 70 148q69 59 171 59q101 0 169 -59q71 -61 71 -148q0 -88 -71 -149 q-69 -60 -169 -60q-101 0 -171 60q-70 61 -70 149zM373 1316q0 -28 12 -52.5t33 -43.5q43 -40 109 -40q102 0 141 84q12 24 12 52.5t-11.5 53.5t-32.5 43q-44 39 -109 39t-109.5 -39t-44.5 -97z" />
<glyph unicode="&#xe6;" horiz-adv-x="1604" d="M1114 -27q-224 10 -330 199q-54 -59 -114 -101v674q0 112 -72 162q-25 18 -62 25v75q167 -9 270 -116q99 101 249 115v-85q-153 -41 -153 -368q0 -446 212 -488v-92zM451 61q82 0 136 60v-104q-84 -44 -176 -44t-151.5 19.5t-99.5 53.5q-81 70 -81 181q0 265 508 365v-83 q-200 -52 -259 -187q-18 -43 -18 -89q0 -172 141 -172zM1287 596q0 295 -149 326v85q191 -13 295 -158q94 -131 94 -341h-542v88h302zM276 674q-120 0 -120 114q0 87 84 149q82 60 213 70v-73q-84 -9 -113 -62q56 -17 56 -92q0 -48 -33.5 -77t-86.5 -29zM1197 63 q154 16 220 166q19 43 33 88l86 -32q-79 -281 -339 -309v87z" />
<glyph unicode="&#xe7;" horiz-adv-x="967" d="M727 846q-28 69 -125 79v81q133 -7 212 -88q69 -69 69 -159q0 -92 -71 -125q-24 -11 -65 -11t-73.5 30.5t-32.5 70.5t9 59t22 31t28 19t27 13zM602 64q122 18 180 154q17 38 30 77l83 -25q-56 -193 -183 -258q-47 -25 -110 -34v86zM310 492q0 -392 209 -428v-91 q-189 4 -315 135q-133 141 -133 373q0 205 124 356q128 156 324 170v-88q-150 -35 -194 -254q-15 -75 -15 -173zM450 -203q-44 0 -72 -14l-36 12l104 205h79l-68 -137q79 23 159 0q69 -20 98 -73q15 -27 15 -62.5t-19 -67.5t-55 -55q-77 -49 -205 -49q-117 0 -213 34l36 62 q64 -27 141 -27t113 25.5t36 62.5q0 84 -113 84z" />
<glyph unicode="&#xe8;" horiz-adv-x="1050" d="M720 596q0 288 -144 324v86q187 -17 288 -157q95 -131 95 -341h-566v88h327zM580 61q174 8 247 164q21 45 36 92l86 -32q-56 -209 -229 -281q-61 -25 -140 -30v87zM309 553q0 -430 188 -484v-92q-196 22 -311 163q-115 139 -115 349q0 221 115 363q116 143 307 155v-83 q-184 -22 -184 -371zM679 1096l-339 200q-64 37 -64 80t46 64q14 6 42 6q42 0 123 -76l287 -274h-95z" />
<glyph unicode="&#xe9;" horiz-adv-x="1050" d="M720 596q0 288 -144 324v86q187 -17 288 -157q95 -131 95 -341h-566v88h327zM580 61q174 8 247 164q21 45 36 92l86 -32q-56 -209 -229 -281q-61 -25 -140 -30v87zM309 553q0 -430 188 -484v-92q-196 22 -311 163q-115 139 -115 349q0 221 115 363q116 143 307 155v-83 q-184 -22 -184 -371zM275 1096l287 274q32 30 63.5 53t59 23t43 -6.5t25.5 -17.5q21 -22 21 -47q0 -41 -64 -79l-340 -200h-95z" />
<glyph unicode="&#xea;" horiz-adv-x="1050" d="M720 596q0 288 -144 324v86q187 -17 288 -157q95 -131 95 -341h-566v88h327zM580 61q174 8 247 164q21 45 36 92l86 -32q-56 -209 -229 -281q-61 -25 -140 -30v87zM309 553q0 -430 188 -484v-92q-196 22 -311 163q-115 139 -115 349q0 221 115 363q116 143 307 155v-83 q-184 -22 -184 -371zM598 1440l266 -344h-87l-253 227l-254 -227h-85l263 344h150z" />
<glyph unicode="&#xeb;" horiz-adv-x="1050" d="M720 596q0 288 -144 324v86q187 -17 288 -157q95 -131 95 -341h-566v88h327zM580 61q174 8 247 164q21 45 36 92l86 -32q-56 -209 -229 -281q-61 -25 -140 -30v87zM309 553q0 -430 188 -484v-92q-196 22 -311 163q-115 139 -115 349q0 221 115 363q116 143 307 155v-83 q-184 -22 -184 -371zM230 1306.5q34 28.5 71.5 28.5t59.5 -7.5t38 -21.5q35 -29 35 -62.5t-9.5 -52.5t-25.5 -33q-34 -28 -84.5 -28t-84.5 28t-34 74t34 74.5zM650 1306.5q34 28.5 84.5 28.5t84.5 -28.5t34 -74.5t-34 -74t-84.5 -28t-84.5 28t-34 74t34 74.5z" />
<glyph unicode="&#xec;" horiz-adv-x="636" d="M437 993v-835q0 -47 41 -68q19 -10 41 -17.5t43 -19.5v-53h-465v53q21 12 43.5 19.5t41.5 17.5q42 21 42 68v669q0 53 -40 73q-18 9 -41 14.5t-46 17.5v61h340zM472 1096l-339 200q-64 37 -64 80t45 64q15 6 42 6q43 0 124 -76l287 -274h-95z" />
<glyph unicode="&#xed;" horiz-adv-x="636" d="M437 993v-835q0 -47 41 -68q19 -10 41 -17.5t43 -19.5v-53h-465v53q21 12 43.5 19.5t41.5 17.5q42 21 42 68v669q0 53 -40 73q-18 9 -41 14.5t-46 17.5v61h340zM69 1096l287 274q32 30 63.5 53t59 23t43 -6.5t25.5 -17.5q21 -22 21 -47q0 -41 -64 -79l-340 -200h-95z" />
<glyph unicode="&#xee;" horiz-adv-x="636" d="M437 993v-835q0 -47 41 -68q19 -10 41 -17.5t43 -19.5v-53h-465v53q21 12 43.5 19.5t41.5 17.5q42 21 42 68v669q0 53 -40 73q-18 9 -41 14.5t-46 17.5v61h340zM392 1440l266 -344h-87l-253 227l-254 -227h-85l263 344h150z" />
<glyph unicode="&#xef;" horiz-adv-x="636" d="M437 993v-835q0 -47 41 -68q19 -10 41 -17.5t43 -19.5v-53h-465v53q21 12 43.5 19.5t41.5 17.5q42 21 42 68v669q0 53 -40 73q-18 9 -41 14.5t-46 17.5v61h340zM24 1306.5q34 28.5 71.5 28.5t59.5 -7.5t38 -21.5q35 -29 35 -62.5t-9.5 -52.5t-25.5 -33q-34 -28 -84.5 -28 t-84.5 28t-34 74t34 74.5zM444 1306.5q34 28.5 84.5 28.5t84.5 -28.5t34 -74.5t-34 -74t-84.5 -28t-84.5 28t-34 74t34 74.5z" />
<glyph unicode="&#xf0;" horiz-adv-x="1053" d="M478 896q-168 -40 -168 -420.5t168 -420.5v-80q-176 18 -286 153q-113 139 -113 347q0 207 113 345q112 136 286 154v-78zM561 51q182 27 182 421t-182 426v77q72 -7 125 -33q-42 154 -140 266l-240 -135l-50 68l226 129q-54 50 -106.5 74.5t-67.5 35.5t-23 25l28 57 q155 -42 278 -133l236 133l49 -67l-217 -123q232 -205 297 -540q20 -107 20 -226t-32 -217t-88 -166q-111 -136 -295 -149v77z" />
<glyph unicode="&#xf1;" horiz-adv-x="1188" d="M646 901q-83 0 -152 -65v109q88 63 207 63q138 0 223 -72q87 -75 87 -211v-526q0 -95 39 -111q12 -5 26 -8q38 -10 59 -27v-53h-387v68q0 19 17 35t25 27.5t8 33.5v571q0 166 -152 166zM411 203q0 -94 40 -113q12 -5 26 -10q41 -13 60 -27v-53h-466v53q18 14 45.5 23 t40 14t21.5 18q19 26 19 93v577q0 99 -39 115q-12 5 -26 9q-44 10 -63 24v61h342v-784zM949 1366q-61 -217 -226 -217q-58 0 -128 33.5t-105.5 49t-66.5 15.5t-50.5 -9t-32.5 -24q-21 -22 -37 -69h-65q23 106 82.5 158.5t141.5 52.5q57 0 128 -34t105.5 -49.5t63 -15.5 t47.5 8.5t33 22.5q16 17 45 78h65z" />
<glyph unicode="&#xf2;" horiz-adv-x="1053" d="M483 -25q-171 17 -281 145q-123 143 -123 369q0 228 123 371q111 129 281 146v-78q-88 -17 -129 -115q-44 -108 -44 -324q0 -317 98 -401q33 -27 75 -35v-78zM566 52q177 30 177 437q0 323 -104 407q-33 26 -73 33v78q170 -13 284 -143q126 -145 126 -375 q0 -229 -124 -372q-114 -130 -286 -143v78zM680 1096l-339 200q-64 37 -64 80t45 64q15 6 42 6q43 0 124 -76l287 -274h-95z" />
<glyph unicode="&#xf3;" horiz-adv-x="1053" d="M483 -25q-171 17 -281 145q-123 143 -123 369q0 228 123 371q111 129 281 146v-78q-88 -17 -129 -115q-44 -108 -44 -324q0 -317 98 -401q33 -27 75 -35v-78zM566 52q177 30 177 437q0 323 -104 407q-33 26 -73 33v78q170 -13 284 -143q126 -145 126 -375 q0 -229 -124 -372q-114 -130 -286 -143v78zM277 1096l287 274q32 30 63.5 53t59 23t43 -6.5t25.5 -17.5q21 -22 21 -47q0 -41 -64 -79l-340 -200h-95z" />
<glyph unicode="&#xf4;" horiz-adv-x="1053" d="M483 -25q-171 17 -281 145q-123 143 -123 369q0 228 123 371q111 129 281 146v-78q-88 -17 -129 -115q-44 -108 -44 -324q0 -317 98 -401q33 -27 75 -35v-78zM566 52q177 30 177 437q0 323 -104 407q-33 26 -73 33v78q170 -13 284 -143q126 -145 126 -375 q0 -229 -124 -372q-114 -130 -286 -143v78zM600 1440l266 -344h-87l-253 227l-254 -227h-85l263 344h150z" />
<glyph unicode="&#xf5;" horiz-adv-x="1053" d="M483 -25q-171 17 -281 145q-123 143 -123 369q0 228 123 371q111 129 281 146v-78q-88 -17 -129 -115q-44 -108 -44 -324q0 -317 98 -401q33 -27 75 -35v-78zM566 52q177 30 177 437q0 323 -104 407q-33 26 -73 33v78q170 -13 284 -143q126 -145 126 -375 q0 -229 -124 -372q-114 -130 -286 -143v78zM882 1366q-61 -217 -226 -217q-58 0 -128 33.5t-105.5 49t-66.5 15.5t-50.5 -9t-33.5 -24q-20 -22 -36 -69h-65q23 106 82.5 158.5t141.5 52.5q57 0 128 -34t105.5 -49.5t63 -15.5t47.5 8.5t33 22.5q16 17 45 78h65z" />
<glyph unicode="&#xf6;" horiz-adv-x="1053" d="M483 -25q-171 17 -281 145q-123 143 -123 369q0 228 123 371q111 129 281 146v-78q-88 -17 -129 -115q-44 -108 -44 -324q0 -317 98 -401q33 -27 75 -35v-78zM566 52q177 30 177 437q0 323 -104 407q-33 26 -73 33v78q170 -13 284 -143q126 -145 126 -375 q0 -229 -124 -372q-114 -130 -286 -143v78zM232 1306.5q34 28.5 71.5 28.5t59.5 -7.5t38 -21.5q35 -29 35 -62.5t-9.5 -52.5t-25.5 -33q-34 -28 -84.5 -28t-84.5 28t-34 74t34 74.5zM652 1306.5q34 28.5 84.5 28.5t84.5 -28.5t34 -74.5t-34 -74t-84.5 -28t-84.5 28t-34 74 t34 74.5z" />
<glyph unicode="&#xf7;" horiz-adv-x="1425" d="M143 422v137h1137v-137h-1137zM653 1010q27 10 58.5 10t58.5 -10t46 -28q43 -38 43 -77.5t-11.5 -63t-31.5 -40.5q-42 -37 -89 -37t-74 10t-47 27q-43 37 -43 77t11.5 63.5t31.5 41t47 27.5zM652 207q27 10 58.5 10t58.5 -10t47 -27q43 -38 43 -78t-11.5 -63.5 t-31.5 -40.5q-44 -37 -90.5 -37t-73.5 10t-46 27q-43 37 -43 77t11.5 63.5t31 41t46.5 27.5z" />
<glyph unicode="&#xf8;" horiz-adv-x="1053" d="M367 141q40 -74 116 -88v-78q-100 10 -178 58l-110 -191h-98l139 242q-157 144 -157 405q0 228 123 371q111 129 281 146v-78q-88 -17 -129 -115q-44 -108 -44 -324q0 -155 20 -242l347 605q-40 64 -111 77v78q89 -8 170 -52l97 169h100l-126 -219q169 -146 169 -416 q0 -229 -124 -372q-114 -130 -286 -143v78q177 30 177 437q0 163 -26 261z" />
<glyph unicode="&#xf9;" horiz-adv-x="1164" d="M539 80q82 0 148 64v-115q-90 -56 -222 -56q-218 0 -271 153q-18 53 -18 128v567q0 52 -39 73q-17 9 -38 14.5t-40 17.5v61h331v-751q0 -156 149 -156zM770 821q0 53 -40 73q-18 9 -40 14.5t-44 17.5v61h337v-823q0 -52 41 -72q18 -9 39 -15t40 -18v-59h-319l-14 106v715 zM736 1096l-339 200q-64 37 -64 80t45 64q15 6 42 6q43 0 124 -76l287 -274h-95z" />
<glyph unicode="&#xfa;" horiz-adv-x="1164" d="M539 80q82 0 148 64v-115q-90 -56 -222 -56q-218 0 -271 153q-18 53 -18 128v567q0 52 -39 73q-17 9 -38 14.5t-40 17.5v61h331v-751q0 -156 149 -156zM770 821q0 53 -40 73q-18 9 -40 14.5t-44 17.5v61h337v-823q0 -52 41 -72q18 -9 39 -15t40 -18v-59h-319l-14 106v715 zM332 1096l287 274q32 30 63.5 53t59 23t43 -6.5t25.5 -17.5q21 -22 21 -47q0 -41 -64 -79l-340 -200h-95z" />
<glyph unicode="&#xfb;" horiz-adv-x="1164" d="M539 80q82 0 148 64v-115q-90 -56 -222 -56q-218 0 -271 153q-18 53 -18 128v567q0 52 -39 73q-17 9 -38 14.5t-40 17.5v61h331v-751q0 -156 149 -156zM770 821q0 53 -40 73q-18 9 -40 14.5t-44 17.5v61h337v-823q0 -52 41 -72q18 -9 39 -15t40 -18v-59h-319l-14 106v715 zM655 1440l266 -344h-87l-253 227l-254 -227h-85l263 344h150z" />
<glyph unicode="&#xfc;" horiz-adv-x="1164" d="M539 80q82 0 148 64v-115q-90 -56 -222 -56q-218 0 -271 153q-18 53 -18 128v567q0 52 -39 73q-17 9 -38 14.5t-40 17.5v61h331v-751q0 -156 149 -156zM770 821q0 53 -40 73q-18 9 -40 14.5t-44 17.5v61h337v-823q0 -52 41 -72q18 -9 39 -15t40 -18v-59h-319l-14 106v715 zM287 1306.5q34 28.5 71.5 28.5t59.5 -7.5t38 -21.5q35 -29 35 -62.5t-9.5 -52.5t-25.5 -33q-34 -28 -84.5 -28t-84.5 28t-34 74t34 74.5zM707 1306.5q34 28.5 84.5 28.5t84.5 -28.5t34 -74.5t-34 -74t-84.5 -28t-84.5 28t-34 74t34 74.5z" />
<glyph unicode="&#xfd;" horiz-adv-x="924" d="M561 365q33 94 61.5 172.5t50.5 139.5q47 130 47 162.5t-11 42t-27.5 15t-36.5 10t-38 13.5v61h354v-61q-16 -10 -32.5 -15t-31.5 -11q-36 -16 -50 -54l-229 -605zM197 -170.5q8 -17.5 8 -46.5t-35 -66q15 -20 39 -20q60 0 114.5 77.5t96.5 219.5l-343 856q-17 44 -85 60 q-16 4 -30 10v61h458v-59q-21 -8 -42 -13.5t-38 -12.5q-39 -14 -39 -38q0 -14 41 -121l1 -1q60 -151 118.5 -300.5t118.5 -299.5l-117 -304q-97 -244 -289 -244q-130 0 -174 102q-14 33 -14 83t33.5 82t69.5 32t54 -7.5t32 -20t22 -30zM213 1095l287 274q32 30 63.5 53 t59 23t43 -6.5t25.5 -16.5q21 -23 21 -48q0 -41 -64 -79l-340 -200h-95z" />
<glyph unicode="&#xfe;" horiz-adv-x="1097" d="M370 -233q0 -47 44 -69q19 -9 43.5 -16.5t50.5 -19.5v-53h-476v53q21 12 43 19.5t41 16.5q41 22 41 69v1493q0 61 -84 87q-23 7 -44 19v61h341v-1660zM578 909q-74 0 -125 -77v113q88 63 171.5 63t157 -40.5t126.5 -111.5q111 -149 111 -367q0 -240 -117 -379 q-116 -137 -306 -137q-77 0 -143 30v91q41 -35 110 -35q100 0 158 104t58 320q0 332 -123 405q-37 21 -78 21z" />
<glyph unicode="&#xff;" horiz-adv-x="924" d="M561 365q33 94 61.5 172.5t50.5 139.5q47 130 47 162.5t-11 42t-27.5 15t-36.5 10t-38 13.5v61h354v-61q-16 -10 -32.5 -15t-31.5 -11q-36 -16 -50 -54l-229 -605zM197 -170.5q8 -17.5 8 -46.5t-35 -66q15 -20 39 -20q60 0 114.5 77.5t96.5 219.5l-343 856q-17 44 -85 60 q-16 4 -30 10v61h458v-59q-21 -8 -42 -13.5t-38 -12.5q-39 -14 -39 -38q0 -14 41 -121l1 -1q60 -151 118.5 -300.5t118.5 -299.5l-117 -304q-97 -244 -289 -244q-130 0 -174 102q-14 33 -14 83t33.5 82t69.5 32t54 -7.5t32 -20t22 -30zM168 1305.5q34 28.5 71.5 28.5 t59.5 -7.5t38 -20.5q35 -30 35 -63.5t-9.5 -52.5t-25.5 -32q-34 -29 -84.5 -29t-84.5 28t-34 74t34 74.5zM588 1305.5q34 28.5 84.5 28.5t84.5 -28.5t34 -74.5t-34 -74t-84.5 -28t-84.5 28t-34 74t34 74.5z" />
<glyph unicode="&#x152;" horiz-adv-x="2043" d="M710 68q143 0 217 68v-142q-131 -8 -185 -8q-296 0 -482 212q-180 205 -180 513q0 300 176 508q182 217 469 217q30 0 61.5 -2t63.5 -4l77 -4v-115q-78 43 -217 43q-188 0 -273 -159t-85 -484q0 -492 196 -604q68 -39 162 -39zM1010 1423q46 -2 85 -2h164v-1421h-150 q-49 0 -99 -2v1425zM1342 85q28 -3 93.5 -3t134.5 10.5t118 36.5q91 48 133 184q10 31 17 58t14 50q16 49 45 79h65v-500h-620v85zM1580 1327.5q-54 11.5 -132 11.5t-106 -4v86h363q41 0 212 15v-490h-69q-37 37 -66 136q-30 102 -53.5 144t-59 66t-89.5 35.5zM1342 846h292 v-188h-292v188z" />
<glyph unicode="&#x153;" horiz-adv-x="1714" d="M496 -24q-172 20 -282 146q-124 143 -124 367q0 226 124 369q111 128 282 147v-77q-173 -33 -173 -439q0 -315 99 -401q32 -27 74 -35v-77zM1294 63q161 16 227 166q19 43 33 88l86 -32q-53 -199 -214 -275q-58 -27 -132 -34v87zM1075 596h316q0 155 -35.5 233t-110.5 93 v84q188 -16 290 -156q96 -134 96 -342h-556v88zM1162 922q-170 -36 -170 -365q0 -460 235 -493v-91q-108 4 -196.5 48.5t-144.5 119.5q-121 -148 -307 -166v77q173 29 173 437q0 321 -100 404q-32 27 -73 35v78q175 -16 295 -152q106 136 288 152v-84z" />
<glyph unicode="&#x178;" horiz-adv-x="1187" d="M709 792q194 378 208 414q17 45 17 67.5t-13 36t-32.5 21t-43.5 13t-45 14.5v63h430v-63q-16 -12 -56 -24.5t-58.5 -22t-45.5 -50t-67 -113t-79 -150t-77.5 -157t-77.5 -156.5zM727 603l-10 -15v-357q0 -113 54 -135q16 -6 34 -10q55 -14 74 -27v-59h-573v59 q22 14 57.5 22t51.5 14.5t27 22.5q25 33 25 118v356l-347 665q-29 56 -112 84q-20 7 -39 17v63h559v-63q-24 -10 -48.5 -15t-43.5 -11q-44 -15 -44 -50q0 -26 31 -86.5t61.5 -120t76 -147.5t109.5 -213zM299 1752.5q34 28.5 71.5 28.5t59.5 -7.5t38 -21.5q35 -29 35 -62.5 t-9.5 -52.5t-25.5 -33q-34 -28 -84.5 -28t-84.5 28t-34 74t34 74.5zM719 1752.5q34 28.5 84.5 28.5t84.5 -28.5t34 -74.5t-34 -74t-84.5 -28t-84.5 28t-34 74t34 74.5z" />
<glyph unicode="&#x2c6;" horiz-adv-x="637" d="M392 1440l266 -344h-87l-253 227l-254 -227h-85l263 344h150z" />
<glyph unicode="&#x2dc;" horiz-adv-x="637" d="M675 1366q-61 -217 -226 -217q-58 0 -128 33.5t-105.5 49t-66.5 15.5t-50.5 -9t-32.5 -24q-21 -22 -37 -69h-65q23 106 82.5 158.5t141.5 52.5q57 0 128 -34t105.5 -49.5t63 -15.5t47.5 8.5t33 22.5q16 17 45 78h65z" />
<glyph unicode="&#x2000;" horiz-adv-x="985" />
<glyph unicode="&#x2001;" horiz-adv-x="1970" />
<glyph unicode="&#x2002;" horiz-adv-x="985" />
<glyph unicode="&#x2003;" horiz-adv-x="1970" />
<glyph unicode="&#x2004;" horiz-adv-x="656" />
<glyph unicode="&#x2005;" horiz-adv-x="492" />
<glyph unicode="&#x2006;" horiz-adv-x="328" />
<glyph unicode="&#x2007;" horiz-adv-x="328" />
<glyph unicode="&#x2008;" horiz-adv-x="246" />
<glyph unicode="&#x2009;" horiz-adv-x="394" />
<glyph unicode="&#x200a;" horiz-adv-x="109" />
<glyph unicode="&#x2010;" horiz-adv-x="637" d="M560 557v-133h-483v133h483z" />
<glyph unicode="&#x2011;" horiz-adv-x="637" d="M560 557v-133h-483v133h483z" />
<glyph unicode="&#x2012;" horiz-adv-x="637" d="M560 557v-133h-483v133h483z" />
<glyph unicode="&#x2013;" horiz-adv-x="1187" d="M1187 549v-117h-1187v117h1187z" />
<glyph unicode="&#x2014;" horiz-adv-x="2374" d="M2374 549v-117h-2374v117h2374z" />
<glyph unicode="&#x2018;" horiz-adv-x="506" d="M200 1155q178 0 178 -137q0 -87 -74 -118q-24 -11 -57 -11q-70 0 -114.5 50.5t-44.5 125.5t12.5 128t35.5 103q44 98 125 179l67 -54q-83 -74 -116 -192q-11 -37 -12 -74z" />
<glyph unicode="&#x2019;" horiz-adv-x="506" d="M178 920q54 49 89 119.5t39 146.5q-6 -1 -12 -1h-25t-47 8.5t-48 25.5q-45 37 -45 104q0 87 73 119q24 10 57 10q69 0 113.5 -51t44.5 -126t-12.5 -127.5t-35.5 -101.5q-45 -98 -125 -180z" />
<glyph unicode="&#x201a;" horiz-adv-x="506" d="M185 -299q120 111 128 266q-6 -1 -12 -1h-25t-47 8.5t-49 25.5q-44 38 -44 104q0 87 72 118q25 11 58 11q69 0 114 -50.5t45 -125.5t-13 -127.5t-36 -102.5q-47 -102 -124 -179z" />
<glyph unicode="&#x201c;" horiz-adv-x="879" d="M596 1155q178 0 178 -137q0 -87 -74 -118q-24 -11 -57 -11q-70 0 -114.5 50.5t-44.5 125.5t12.5 128t35.5 103q44 98 125 179l67 -54q-83 -74 -116 -192q-11 -37 -12 -74zM178 1155q178 0 178 -137q0 -87 -73 -118q-24 -11 -57 -11q-70 0 -115 50.5t-45 125.5t12.5 128 t35.5 103q46 99 126 179l66 -54q-54 -49 -89 -120.5t-39 -145.5z" />
<glyph unicode="&#x201d;" horiz-adv-x="879" d="M154 920q54 49 89.5 119.5t39.5 146.5q-7 -1 -13 -1h-25t-47 9t-49 26q-45 36 -45 103q0 87 74 119q24 10 57 10q70 0 114.5 -51t44.5 -126t-12.5 -127.5t-35.5 -101.5q-45 -101 -126 -180zM573 920q83 74 115 191q10 37 12 75q-6 -1 -12 -1h-25t-47 9t-48 26 q-45 37 -45 103q0 87 73 119q24 10 57 10q69 0 114 -51t45 -126t-12.5 -127.5t-35.5 -101.5q-44 -100 -125 -180z" />
<glyph unicode="&#x201e;" horiz-adv-x="879" d="M154 -299q54 50 89.5 120.5t39.5 145.5q-7 -1 -13 -1h-25t-47 9t-49 27q-45 37 -45 102q0 87 74 118q24 11 57 11q70 0 114.5 -50.5t44.5 -125.5t-12.5 -127.5t-35.5 -102.5q-46 -103 -126 -179zM573 -299q119 110 127 266q-6 -1 -12 -1h-25t-47 9t-48 27q-45 37 -45 102 q0 87 73 118q24 11 57 11q69 0 114 -50.5t45 -125.5t-12.5 -127.5t-35.5 -102.5q-45 -101 -125 -179z" />
<glyph unicode="&#x2022;" horiz-adv-x="1187" d="M181 710q0 74 32.5 138.5t88.5 112.5q121 104 292 104q170 0 290 -104q120 -103 120 -250q0 -148 -119.5 -252.5t-290.5 -104.5t-292 104q-121 105 -121 252z" />
<glyph unicode="&#x2026;" horiz-adv-x="2375" d="M296.5 214.5q37.5 33.5 99.5 33.5t99 -33.5t37 -100.5t-37 -100.5t-99 -33.5t-99.5 33.5t-37.5 100.5t37.5 100.5zM1086.5 214.5q37.5 33.5 99.5 33.5t99.5 -33.5t37.5 -100.5t-37.5 -100.5t-99.5 -33.5t-99.5 33.5t-37.5 100.5t37.5 100.5zM1877.5 214.5 q37.5 33.5 99.5 33.5t99 -33.5t37 -100.5t-37 -100.5t-99 -33.5t-99.5 33.5t-37.5 100.5t37.5 100.5z" />
<glyph unicode="&#x202f;" horiz-adv-x="394" />
<glyph unicode="&#x2039;" horiz-adv-x="737" d="M564 1059v-115l-267 -344l267 -344v-115l-422 418v82z" />
<glyph unicode="&#x203a;" horiz-adv-x="737" d="M174 1059l422 -418v-82l-422 -418v115l266 344l-266 344v115z" />
<glyph unicode="&#x205f;" horiz-adv-x="492" />
<glyph unicode="&#x20ac;" d="M881 1352q24 0 45 53h64v-418h-59q-32 0 -41.5 18t-12 32.5t-11.5 48t-22.5 85.5t-35.5 95q-47 96 -137 108v75q98 -12 183 -84q16 -13 27 -13zM697 56q127 23 191 192q24 66 36 164l93 -15q-49 -392 -320 -425v84zM159 711q0 52 4 104h-158l14 88h151q37 238 149 383 q115 148 269 164v-84q-108 -44 -161 -270q-19 -81 -28 -193h356l-12 -88h-349q-2 -26 -2 -53v-94h330l-15 -88h-313q19 -352 144 -471q36 -35 76 -48v-91q-183 14 -304 175q-123 165 -147 435h-158l14 88h140v43z" />
<glyph unicode="&#x2122;" horiz-adv-x="2351" d="M281 1370q-126 0 -158 -129h-59v180h820v-180h-59q-18 63 -44 86q-47 43 -114 43h-100v-635q0 -52 17 -65q29 -21 103 -23v-47h-426v47q74 2 92 15q28 21 28 73v635h-100zM1216 1214h-5v-432q0 -73 18 -93q29 -34 106 -42v-47h-309v47q74 8 92 30q27 33 27 105v486 q-31 70 -109 94q-25 8 -50 8v51h301l349 -614l363 614h260v-51q-70 -2 -96 -25t-26 -69v-541q0 -53 17 -65q27 -21 98 -23v-47h-421v47q74 2 92 15q26 20 26 73v473h-4l-354 -614h-25z" />
<glyph unicode="&#xe000;" horiz-adv-x="980" d="M0 980h980v-980h-980v980z" />
<glyph unicode="&#xfb01;" horiz-adv-x="1296" d="M415 221q0 -110 45 -133q22 -10 51 -14t64 -21v-53h-520v53q20 13 53.5 21.5t47.5 14t24 18.5q22 27 22 96v690h-161v57q14 15 57 20q82 11 102 31q11 203 44.5 277t72.5 108.5t98 50.5v-1216zM660 1320q-21 56 -130 56q-15 0 -32 -5v79q22 2 61 2t83.5 -12.5t77.5 -35.5 q69 -51 69 -134q0 -54 -35 -86q-30 -27 -63 -27t-50.5 5.5t-30.5 15.5q-30 23 -30 63q0 58 80 79zM498 981h130v-88h-130v88zM1097 993v-835q0 -47 41 -68q19 -10 41 -17.5t43 -19.5v-53h-465v53q21 12 43.5 19.5t41.5 17.5q42 21 42 68v669q0 53 -40 73q-18 9 -41 14.5 t-46 17.5v55zM884 1396.5q37 35.5 80.5 35.5t68 -9.5t42.5 -26.5q38 -36 38 -93q0 -56 -38 -92q-37 -35 -95.5 -35t-95.5 35t-37 92.5t37 93z" />
<glyph unicode="&#xfb02;" horiz-adv-x="1230" d="M415 221q0 -110 45 -133q22 -10 51 -14t64 -21v-53h-520v53q20 13 53.5 21.5t47.5 14t24 18.5q22 27 22 96v690h-161v57q14 15 57 20q82 11 102 31q11 203 44.5 277t72.5 108.5t98 50.5v-1216zM660 1320q-21 56 -130 56q-15 0 -32 -5v79q22 2 61 2t83.5 -12.5t77.5 -35.5 q69 -51 69 -134q0 -54 -35 -86q-30 -27 -63 -27t-50.5 5.5t-30.5 15.5q-30 23 -30 63q0 58 80 79zM498 981h130v-88h-130v88zM1057 1427v-1269q0 -47 41 -68q18 -10 40.5 -17.5t44.5 -19.5v-53h-466v53q21 12 43.5 19.5t40.5 17.5q42 22 42 68v1102q0 47 -43 70 q-19 10 -42 17t-44 19v61h343z" />
</font>
</defs>
</svg>
