<?xml version="1.0" standalone="no"?>
<!DOCTYPE svg PUBLIC "-//W3C//DTD SVG 1.1//EN" "http://www.w3.org/Graphics/SVG/1.1/DTD/svg11.dtd" >
<svg xmlns="http://www.w3.org/2000/svg">
<metadata></metadata>
<defs>
<font id="josefin_slabitalic" horiz-adv-x="538" >
<font-face units-per-em="1000" ascent="750" descent="-250" />
<missing-glyph horiz-adv-x="300" />
<glyph horiz-adv-x="1000" />
<glyph horiz-adv-x="1000" />
<glyph unicode="&#xd;" horiz-adv-x="300" />
<glyph unicode=" "  horiz-adv-x="300" />
<glyph unicode="&#x09;" horiz-adv-x="300" />
<glyph unicode="&#xa0;" horiz-adv-x="300" />
<glyph unicode="!" horiz-adv-x="201" d="M21 55q1 14 13 23.5t24 9.5t20.5 -9.5t6.5 -23.5t-13 -23.5t-24 -9.5q-12 0 -20.5 9.5t-6.5 23.5zM48 166l82 584h41l-82 -584h-41z" />
<glyph unicode="&#x22;" horiz-adv-x="310" d="M45 472l35 248h44q-10 -63 -19.5 -124t-19.5 -124h-40zM178 472l35 248h44q-10 -63 -19.5 -124t-19.5 -124h-40z" />
<glyph unicode="#" horiz-adv-x="571" d="M11 210q3 11 5.5 20.5t5.5 20.5h107q10 35 19 70.5t18 71.5h-106q2 10 4.5 20t4.5 20h107q14 53 28 105t28 105h42q-14 -53 -28 -105t-28 -105h142q14 53 28 105t28 105h42q-14 -53 -28 -105t-28 -105h123q-2 -10 -5 -20t-5 -20h-123q-9 -36 -18 -71.5t-19 -70.5h122 q-2 -11 -5 -20.5t-5 -20.5h-123l-54 -210h-42l54 210h-142l-54 -210h-42l54 210h-107zM171 251h142q10 35 19 70.5t18 71.5h-142q-9 -36 -18 -71.5t-19 -70.5z" />
<glyph unicode="$" horiz-adv-x="567" d="M-2 76l14 106h40l-13 -90q22 -23 54 -39.5t80 -18.5l46 323q-29 9 -55.5 20.5t-46 29t-29.5 44t-6 66.5q3 31 16 62.5t36 57.5t56.5 44t77.5 21l8 62h41l-8 -61q32 -2 68.5 -12t65.5 -37l-15 -108h-40l13 88q-15 11 -39.5 19t-58.5 10l-38 -276q33 -11 65.5 -23.5 t57 -34.5t37 -56t6.5 -87q-6 -42 -26 -77t-50 -60t-67.5 -39.5t-78.5 -16.5l-9 -61h-41l8 62q-35 2 -62.5 10.5t-49 20.5t-36 25.5t-21.5 25.5zM125 524q-4 -29 3 -48.5t21 -33.5t33.5 -23.5t42.5 -17.5l37 259q-30 -3 -54 -15.5t-41 -31t-28 -41.5t-14 -48zM214 34 q31 3 60 14.5t53 30.5t40 45.5t21 59.5q6 40 -3 67t-28 44.5t-44.5 28.5t-53.5 20z" />
<glyph unicode="%" horiz-adv-x="726" d="M120 389q3 24 15.5 45t30.5 36.5t40.5 24.5t46.5 9t44 -9t33.5 -24.5t20 -36.5t3.5 -45t-15.5 -45.5t-30.5 -37t-40.5 -24.5t-46.5 -9t-44 9t-34 24.5t-20.5 37t-2.5 45.5zM158 0q93 126 184.5 250t184.5 250h46q-93 -126 -184.5 -250t-184.5 -250h-46zM162 388 q-5 -31 14 -52.5t51 -21.5t56 21.5t29 52.5q5 32 -14 53.5t-51 21.5t-56 -21.5t-29 -53.5zM385 112q3 24 15.5 45t30.5 36.5t40.5 24.5t46.5 9t44 -9t34 -24.5t20.5 -36.5t2.5 -45q-3 -24 -15.5 -45.5t-30.5 -37t-40.5 -24.5t-46.5 -9t-44 9t-34 24.5t-20 37t-3 45.5z M427 112q-5 -32 14 -53.5t51 -21.5t56 21.5t29 53.5q5 31 -14 53t-51 22t-56 -22t-29 -53z" />
<glyph unicode="&#x26;" horiz-adv-x="700" d="M77 158q0 41 15 78.5t41 66.5t61 49t74 27l-55 117q-18 37 -18 77q0 27 12 58t35 57t57 43t78 17q37 0 68.5 -13t54.5 -29l-22 -34q-22 14 -49 25.5t-57 11.5q-33 0 -58.5 -14t-42.5 -35t-25.5 -45t-8.5 -43q0 -33 15 -64l161 -340q17 24 22 55l21 152h144l-6 -41h-101 l-10 -68q-4 -36 -11 -78t-30 -80l50 -105l-35 -22l-42 87q-32 -35 -75.5 -55.5t-91.5 -20.5q-38 0 -69 12.5t-54 35t-35.5 53t-12.5 65.5zM118 164q0 -28 10 -52t28 -41.5t43 -27.5t55 -10q43 0 80.5 20.5t61.5 53.5l-110 234q-32 -3 -60 -15.5t-50.5 -32.5t-37 -47 t-18.5 -59q-1 -6 -1.5 -12t-0.5 -11z" />
<glyph unicode="'" horiz-adv-x="153" d="M39 472l35 248h44q-10 -63 -19.5 -124t-19.5 -124h-40z" />
<glyph unicode="(" horiz-adv-x="406" d="M127.5 149q-4.5 68 6.5 143q10 75 33.5 143t55 126t67.5 105.5t72 80.5q7 -6 14 -11.5t14 -11.5q-33 -33 -67 -78t-63.5 -100t-51.5 -119t-32 -135t-6 -135t18 -119t35.5 -100t45.5 -78q-8 -6 -17 -11.5t-17 -11.5q-27 33 -50 80.5t-38 105.5t-19.5 126z" />
<glyph unicode=")" horiz-adv-x="400" d="M35 -142q33 33 67 78t63.5 100t52 119t32.5 135t5.5 135t-18.5 119t-35.5 100t-45.5 78q8 6 17 11.5t17 11.5q27 -33 50 -80.5t38 -105.5t19.5 -126t-5.5 -143q-11 -75 -34.5 -143t-55 -126t-67.5 -105.5t-72 -80.5q-7 6 -14 11.5t-14 11.5z" />
<glyph unicode="*" horiz-adv-x="335" d="M26 525q24 13 48.5 25.5t49.5 25.5q-21 14 -41.5 27t-41.5 27q6 9 12.5 18t11.5 17q22 -14 43 -27t42 -27l16 109h44q-5 -27 -8.5 -54t-8.5 -55q26 14 51 27l50 26q9 -16 15 -35q-25 -14 -50 -27t-51 -27q22 -13 43 -26t42 -27q-6 -9 -13 -18.5t-14 -19.5l-84 54 q-5 -26 -8.5 -52t-8.5 -52h-40l15 104q-48 -25 -98 -52q-4 10 -8 19.5t-8 19.5z" />
<glyph unicode="+" horiz-adv-x="543" d="M83 211l6 41h159l22 159h42l-22 -159h159l-6 -41h-159l-23 -160h-42l23 160h-159z" />
<glyph unicode="," horiz-adv-x="200" d="M2 -120q27 52 53 103t53 103h47q-29 -52 -57.5 -103t-57.5 -103h-38z" />
<glyph unicode="-" horiz-adv-x="300" d="M50 169l5 41h184l-5 -41h-184z" />
<glyph unicode="." horiz-adv-x="163" d="M52 33q2 14 13.5 23.5t24.5 9.5q12 0 21 -9.5t7 -23.5t-13.5 -23.5t-23.5 -9.5q-13 0 -22 9.5t-7 23.5z" />
<glyph unicode="/" horiz-adv-x="345" d="M-36 -19q97 190 192 377.5t192 377.5h42q-97 -190 -192 -377.5t-192 -377.5h-42z" />
<glyph unicode="0" horiz-adv-x="616" d="M36 327q9 59 34 118.5t65.5 106.5t95.5 76.5t123 29.5q67 0 112.5 -30t72 -78t34.5 -107.5t-1 -118.5q-11 -72 -41.5 -133t-74 -105t-96 -68.5t-105.5 -24.5t-98 25.5t-75.5 70t-43.5 105.5t-2 133zM79 327q-9 -65 1.5 -119t36 -92.5t63.5 -60.5t82 -22q43 0 87 21t81 59 t64 91.5t36 118.5q9 59 1 112t-31 93.5t-61.5 64.5t-91.5 24t-98 -23t-80 -63t-58.5 -93t-31.5 -111z" />
<glyph unicode="1" horiz-adv-x="265" d="M4 0l5 40h80l79 569h-95l6 41h137l-85 -610h79l-5 -40h-201z" />
<glyph unicode="2" horiz-adv-x="505" d="M6 0q72 62 140 121.5t122 116t89.5 109t42.5 99.5q7 49 -3 81.5t-29 52.5t-43.5 28.5t-46.5 8.5q-45 0 -76 -16t-51 -39t-30 -50t-13 -49q-10 -67 24 -110l-29 -25q-23 23 -32.5 59.5t-4.5 75.5q6 40 23.5 75.5t45 62t65.5 42t84 15.5q42 0 74.5 -15.5t53 -42.5t29 -63.5 t2.5 -78.5q-8 -54 -40 -107.5t-78 -105.5t-101.5 -103t-109.5 -101h273l15 105h40l-21 -146h-415z" />
<glyph unicode="3" horiz-adv-x="515" d="M42 60l35 31q18 -26 47 -42t66 -16q35 0 68 13.5t59 36.5t44 53.5t23 64.5t-4.5 64.5t-29.5 53.5t-49 36t-64 13q-17 0 -33.5 -5.5t-32.5 -15.5l220 262h-208l-8 -60h-40l14 101h323l-212 -246q40 -3 73 -19.5t55.5 -43.5t33 -62.5t4.5 -77.5q-6 -43 -28.5 -81t-55 -66.5 t-73 -45t-83.5 -16.5q-46 0 -82.5 18.5t-61.5 49.5z" />
<glyph unicode="4" horiz-adv-x="515" d="M16 183l433 475l-61 -434h97l-6 -41h-97l-20 -143h83l-6 -40h-201l5 40h77l20 143h-324zM107 224h239l43 311z" />
<glyph unicode="5" horiz-adv-x="543" d="M72 50l35 28q18 -21 45 -33t60 -12q35 0 68 13.5t59 36.5t44 53.5t23 64.5q4 34 -5 64t-29 52.5t-49 35.5t-64 13t-66 -12t-51 -33l10 69l37 260h287l-14 -101h-40l8 60h-205l-30 -217q17 7 34.5 11t36.5 4q43 0 79 -16t61 -44t36.5 -65.5t5.5 -80.5t-28.5 -81 t-55.5 -66.5t-73.5 -45t-83.5 -16.5q-42 0 -76.5 15.5t-58.5 42.5z" />
<glyph unicode="6" horiz-adv-x="520" d="M32 195q10 72 49.5 134.5t95.5 117t121.5 101t127.5 87.5q5 -8 10.5 -17t11.5 -17q-117 -70 -187 -133.5t-103 -109.5q22 22 51.5 35.5t61.5 13.5q43 0 79 -16.5t60.5 -44.5t36 -66t5.5 -81t-28 -80.5t-54.5 -65.5t-73.5 -44.5t-84 -16.5q-42 0 -77.5 16t-60 43.5 t-36 64.5t-6.5 79zM75 199q-5 -35 4 -65t28.5 -52.5t47.5 -35.5t63 -13q34 0 66.5 13t59 35.5t44.5 52.5t23 65q4 34 -5 64.5t-29 53.5t-49 36t-63 13q-35 0 -67 -13t-57.5 -36t-43 -53.5t-22.5 -64.5z" />
<glyph unicode="7" horiz-adv-x="469" d="M33 0l360 609h-300l-8 -60h-40l14 101h406l-383 -650h-49z" />
<glyph unicode="8" horiz-adv-x="510" d="M28 201q9 66 53 116.5t105 72.5q-31 16 -47 48t-10 72q4 30 19 57t38.5 47.5t52 32t59.5 11.5t57 -12t43.5 -32.5t25.5 -47.5t4 -58q-5 -39 -30 -70t-60 -48q57 -21 87.5 -72t21.5 -117q-6 -43 -28.5 -81t-55 -66.5t-73 -45t-83.5 -16.5t-78.5 16.5t-60 45t-35.5 66.5 t-5 81zM71 201q-5 -34 3.5 -64.5t27.5 -54t47 -37t63 -13.5t68 13.5t59 37t43.5 54t22.5 64.5t-4 63.5t-29 52t-49 36t-63 13.5q-35 0 -67 -13t-57.5 -35.5t-42.5 -52.5t-22 -64zM170 506q-6 -43 21.5 -71t73.5 -28t80.5 28t40.5 71q3 22 -2 42t-17 35.5t-30.5 24.5t-41.5 9 t-44 -9t-38 -24.5t-28.5 -35.5t-14.5 -42z" />
<glyph unicode="9" horiz-adv-x="525" d="M59 427q6 43 28 80.5t54.5 65.5t73 44.5t83.5 16.5t79 -16.5t60.5 -44.5t35.5 -65.5t5 -80.5q-10 -71 -49.5 -133t-96 -116t-121.5 -100t-126 -86q-11 16 -22 33q117 71 187 134t103 110q-23 -23 -52 -36t-61 -13q-44 0 -79.5 16t-60.5 44t-36 66t-5 81zM100 427 q-5 -35 4.5 -65t29 -53t48.5 -36t64 -13q34 0 66.5 13t58 36t43 53t22.5 65q5 34 -4 64.5t-28.5 53t-48 35.5t-62.5 13q-35 0 -67.5 -13t-58.5 -35.5t-44 -53t-23 -64.5z" />
<glyph unicode=":" horiz-adv-x="175" d="M34 33q2 14 13.5 23.5t24.5 9.5q12 0 20.5 -9.5t6.5 -23.5t-13 -23.5t-24 -9.5t-21.5 9.5t-6.5 23.5zM69 283q2 14 13.5 23.5t24.5 9.5q12 0 20.5 -9.5t6.5 -23.5t-13 -23.5t-24 -9.5t-21.5 9.5t-6.5 23.5z" />
<glyph unicode=";" horiz-adv-x="201" d="M-28 -120q26 52 52 103t53 103h48q-29 -52 -57.5 -103t-57.5 -103h-38zM104 283q2 14 13 23.5t24 9.5t21.5 -9.5t6.5 -23.5t-13 -23.5t-24 -9.5t-21.5 9.5t-6.5 23.5z" />
<glyph unicode="&#x3c;" horiz-adv-x="680" d="M115 238q118 63 236 126.5t237 126.5l-8 -55q-93 -50 -185 -99t-186 -99q79 -50 157.5 -99t158.5 -99l-8 -55q-101 63 -201 126.5t-201 126.5z" />
<glyph unicode="=" horiz-adv-x="708" d="M83 135l6 41h506l-6 -41h-506zM110 329l6 41h506l-6 -41h-506z" />
<glyph unicode="&#x3e;" horiz-adv-x="650" d="M79 -15l8 55q93 50 185.5 99t186.5 99q-79 50 -158 99t-158 99l7 55q101 -63 201 -126.5t202 -126.5q-119 -63 -237 -126.5t-237 -126.5z" />
<glyph unicode="?" horiz-adv-x="452" d="M65 591q12 26 32 51t46.5 45t59.5 32.5t73 12.5q41 0 75 -15.5t56.5 -42t33 -62t4.5 -75.5q-8 -54 -40 -95.5t-83 -73.5q-19 -13 -36.5 -23t-32 -22.5t-25.5 -31.5t-15 -49l-11 -78h-42l14 97q4 31 18 50.5t33.5 34.5t44 28.5t51.5 33.5q37 27 56.5 59.5t24.5 69.5 q4 33 -3.5 61t-25 49t-44 32.5t-59.5 11.5q-58 0 -102 -30t-68 -83q-8 4 -17.5 7t-17.5 6zM132 48q2 14 13.5 23.5t23.5 9.5t21 -9.5t7 -23.5t-13.5 -23.5t-23.5 -9.5t-21 9.5t-7 23.5z" />
<glyph unicode="@" horiz-adv-x="990" d="M82 189q12 84 54 158t105 129t142 87t163 32t153.5 -32t116.5 -87t68.5 -129t9.5 -159q-11 -57 -31 -93.5t-45.5 -57.5t-53.5 -29t-54 -8h-90l6 40q2 12 3.5 23.5t3.5 22.5q-9 -17 -26 -34t-39.5 -30t-50 -21t-57.5 -8q-41 0 -75 15.5t-57 41.5t-33.5 61.5t-4.5 76.5 q6 40 26.5 75.5t51 62t68.5 42t79 15.5q29 0 53.5 -8.5t43.5 -22t31 -30.5t17 -35l8 44t9 44h34l-47 -335h55q49 0 84 35t49 113q11 76 -8 143t-61.5 116.5t-105 78t-137.5 28.5q-76 0 -146.5 -28.5t-127 -78t-94.5 -116.5t-49 -143q-10 -76 9.5 -142t62 -115.5t105 -78 t137.5 -28.5q61 0 117.5 18t107.5 50l21 -30q-55 -38 -120.5 -58.5t-131.5 -20.5q-84 0 -153.5 32t-116.5 87t-69 129t-10 158zM332 188q-5 -32 3 -60t26 -49t45 -33t60 -12t62.5 12t53.5 33t39.5 49t20.5 60t-3 60.5t-26 49.5t-44.5 33t-59.5 12t-62.5 -12t-53.5 -33 t-40 -49.5t-21 -60.5z" />
<glyph unicode="A" horiz-adv-x="812" d="M35 0l5 40h77q98 174 196 346t195 346q50 -174 98.5 -346t97.5 -346h78l-5 -40h-193l5 40h73q-19 65 -37 129.5t-37 130.5h-281q-37 -66 -73 -130.5t-74 -129.5h73l-5 -40h-193zM330 340h247l-77 271l-5 28q-1 -2 -3.5 -6t-4.5 -9q-3 -6 -6 -13l-31.5 -58.5t-38 -68 t-41.5 -72.5t-40 -72z" />
<glyph unicode="B" horiz-adv-x="526" d="M35 0l5 40h61l87 620h-61l6 40h221q47 0 84 -10t61.5 -31t34.5 -55q6 -20 7 -44q0 -16 -3 -35q-8 -62 -45 -109t-103 -64q29 -6 54 -20t42.5 -36t25.5 -51q5 -18 6 -39q0 -12 -2 -26q-6 -45 -29 -78.5t-56.5 -56t-74 -34t-82.5 -11.5h-239zM142 40h133q37 0 71 9t61 27 t45 44.5t23 62.5q2 12 2 24q0 24 -9 43q-13 28 -37.5 46.5t-59 27t-72.5 8.5h-116zM189 372h132q71 0 118.5 41.5t56.5 108.5q2 15 2 28q0 52 -31 78q-39 32 -109 32h-128z" />
<glyph unicode="C" horiz-adv-x="610" d="M85 349q10 74 47.5 139.5t92.5 114t124 77t143 28.5q51 0 95 -13t81 -37l-16 -112h-40l13 86q-30 17 -65.5 26.5t-73.5 9.5q-65 0 -126 -25.5t-109.5 -69t-81.5 -101.5t-42 -124q-3 -23 -3 -45q0 -39 10 -77q16 -58 53 -101t90 -68t118 -25q45 0 86.5 11.5t80.5 32.5 l19 -34q-44 -23 -91 -36.5t-98 -13.5q-74 0 -135 28t-103 76.5t-61 113.5q-12 41 -12 86q0 26 4 53z" />
<glyph unicode="D" horiz-adv-x="632" d="M35 0l5 40h63l87 620h-63l6 40h210q72 0 132.5 -24.5t102 -70t60.5 -110.5q12 -41 12 -88q0 -27 -4 -57q-9 -59 -38 -121t-82 -113t-131 -83.5t-184 -32.5h-176zM144 40h87q83 0 149 26.5t113 70t75.5 99t36.5 114.5q4 27 4 52q-1 40 -11 76q-16 58 -53 98.5t-90.5 62 t-117.5 21.5h-105z" />
<glyph unicode="E" horiz-adv-x="571" d="M35 0l5 40h72l87 620h-72l6 40h487l-22 -154h-40l16 114h-333l-41 -287h335l-6 -40h-335l-41 -293h348l16 114h40l-21 -154h-501z" />
<glyph unicode="F" horiz-adv-x="557" d="M35 0l5 40h72l87 620h-72l6 40h487l-22 -154h-40l16 114h-333l-41 -287h335l-6 -40h-335l-41 -293h88l-5 -40h-201z" />
<glyph unicode="G" horiz-adv-x="609" d="M33 347q10 74 47.5 139.5t93 114t124.5 77t143 28.5q51 0 94.5 -13t81.5 -37l-28 -34q-32 21 -71 32.5t-83 11.5q-65 0 -126 -25.5t-109.5 -69t-82 -101.5t-42.5 -124q-3 -23 -3 -45q0 -40 10 -77q17 -58 53.5 -101t90 -68t118.5 -25q76 0 147 34l27 194h-144l5 40h186 l-5 -40l-31 -218q-43 -23 -90 -36.5t-98 -13.5q-74 0 -135 28t-103 76.5t-61 113.5q-12 43 -12 89q0 24 3 50z" />
<glyph unicode="H" horiz-adv-x="738" d="M35 0l5 40h78l87 620h-78l6 40h201l-5 -40h-82l-41 -287h430l40 287h-81l5 40h201l-5 -40h-78l-87 -620h77l-5 -40h-201l5 40h82l41 293h-430l-41 -293h82l-5 -40h-201z" />
<glyph unicode="I" horiz-adv-x="271" d="M35 0l5 40h78l87 620h-78l6 40h201l-5 -40h-82l-88 -620h82l-5 -40h-201z" />
<glyph unicode="J" horiz-adv-x="277" d="M-24 -143l5 40q36 2 68 16t57.5 39t43 60.5t23.5 80.5l80 567h-166l6 40h207l-86 -610q-8 -56 -30 -98.5t-54 -72t-71.5 -45.5t-82.5 -17z" />
<glyph unicode="K" horiz-adv-x="686" d="M35 0l5 40h77l87 620h-77l6 40h193l-5 -40h-75l-39 -274q-1 -8 -2.5 -15t-3.5 -15l21 21l336 283h-53l6 40h193l-6 -40h-86l-285 -239q63 -96 124 -191t123 -190h82l-5 -40h-193l5 40h60q-57 88 -114 176.5t-114 177.5l-99 -83q-9 -68 -18 -135.5t-19 -135.5h82l-5 -40 h-201z" />
<glyph unicode="L" horiz-adv-x="568" d="M35 0l5 40h69l87 620h-69l6 40h193l-5 -40h-83l-88 -620h348l16 114h40l-21 -154h-498z" />
<glyph unicode="M" horiz-adv-x="967" d="M35 0l5 40h81l87 620h-81l6 40h105q14 -22 46 -73.5t72.5 -116t83 -132.5t77.5 -123q102 111 202.5 222.5t202.5 222.5h105l-6 -40h-81l-87 -620h84l-5 -40h-201l5 40h75l76 535q0 1 1 7t2.5 12.5t2.5 12.5t1 8q-4 -5 -9 -11.5t-12 -14.5q-18 -20 -44 -49t-57 -63 t-65.5 -72l-69 -76t-68 -74.5t-61.5 -67.5q-56 90 -95.5 153t-68.5 109.5t-50.5 80.5t-41.5 66l-11 19q-1 -11 -1.5 -20.5t-1.5 -19.5l-75 -535h78l-5 -40h-201z" />
<glyph unicode="N" horiz-adv-x="846" d="M39 0l6 40h81l86 620h-81l6 40h108l441 -612l15 -26l2 32l79 566h-76l6 40h201l-6 -40h-84l-96 -692l-464 639l-15 22l-2 -28l-79 -561h79l-6 -40h-201z" />
<glyph unicode="O" horiz-adv-x="786" d="M85 349q10 74 47.5 139.5t92.5 114t124 77t143 28.5t135.5 -28.5t103.5 -77t61 -114.5q12 -43 12 -89q0 -25 -3 -50q-11 -74 -48.5 -139t-93 -113.5t-124.5 -76.5t-143 -28t-135 28t-103 76.5t-61 113.5q-12 41 -12 86q0 26 4 53zM127 348q-3 -23 -3 -46q0 -42 10 -78 q16 -58 53 -100t90.5 -67t118.5 -25t126.5 25t111 68t83 100.5t42.5 123.5q3 23 3 45q0 41 -11 79q-17 58 -54 101.5t-91 68.5t-119 25t-126 -25.5t-110 -69t-82 -101.5t-42 -124z" />
<glyph unicode="P" horiz-adv-x="495" d="M35 0l5 40h61l87 620h-61l6 40h211q31 0 67 -10t65 -32q28 -22 46 -57q12 -25 13 -57q0 -13 -2 -27q-13 -86 -75 -137t-165 -51h-110l-41 -289h99l-5 -40h-201zM189 370h103q52 0 88.5 14t60 36t35.5 47.5t15 49.5q1 8 1 16q0 20 -7 38q-10 26 -31 46t-51.5 31.5 t-68.5 11.5h-104z" />
<glyph unicode="Q" horiz-adv-x="808" d="M85 349q10 74 47.5 139.5t92.5 114t124 77t143 28.5t135.5 -28.5t103.5 -77t61 -114.5q12 -42 12 -89q0 -24 -3 -50q-8 -51 -28.5 -98t-51 -86.5t-70 -71.5t-84.5 -53h213l-6 -40h-307q-40 -8 -75 -8q-74 0 -135 28t-103 76.5t-61 113.5q-12 41 -12 86q0 26 4 53z M127 348q-3 -23 -3 -45q0 -40 10 -77q17 -58 53.5 -101t89.5 -68t118 -25q66 0 127.5 25t111 68t83 100.5t42.5 123.5q3 23 3 45q0 41 -11 79q-17 58 -54 101.5t-91.5 68.5t-119.5 25t-126 -25.5t-109.5 -69t-81.5 -101.5t-42 -124z" />
<glyph unicode="R" horiz-adv-x="572" d="M35 0l5 40h61l87 620h-61l6 40h211q31 0 67 -10t65 -32q28 -22 46 -57q12 -25 13 -57q0 -13 -2 -27q-11 -72 -56 -119.5t-120 -62.5l97 -295h88l-5 -40h-114l-110 331q-11 -1 -23 -1.5t-23 -0.5h-84l-41 -289h99l-5 -40h-201zM189 370h103q52 0 88.5 14t60 36t35.5 47.5 t15 49.5q1 8 1 16q0 20 -7 38q-10 26 -31 46t-51.5 31.5t-68.5 11.5h-104z" />
<glyph unicode="S" horiz-adv-x="478" d="M48 76l14 106h40l-13 -90q25 -25 62.5 -42.5t92.5 -17.5q33 0 66 10.5t59.5 30t45 47.5t23.5 64q2 16 2 30q0 24 -6 42q-10 28 -32.5 46t-52 29t-60.5 20.5t-61 20.5t-53 29q-23 17 -35 45q-9 21 -9 50q0 10 1 21q3 33 17.5 66.5t40.5 60t63.5 43.5t87.5 17q34 0 76 -9 t76 -41l-15 -108h-40l13 88q-18 12 -47 21t-70 9q-35 0 -62.5 -11.5t-48 -31t-32.5 -45t-16 -52.5q-1 -11 -1 -20q0 -23 8 -39q12 -23 34.5 -38t52.5 -25t61.5 -20t61 -23.5t51.5 -35t33 -54.5q7 -21 7 -50q0 -16 -2 -33q-6 -44 -27.5 -80t-54 -61.5t-73 -39t-83.5 -13.5 q-39 0 -71 8t-57 20.5t-41.5 27.5t-25.5 28z" />
<glyph unicode="T" horiz-adv-x="623" d="M111 546l22 154h553l-22 -154h-40l16 114h-215l-88 -620h78l-5 -40h-201l5 40h82l87 620h-216l-16 -114h-40z" />
<glyph unicode="U" horiz-adv-x="696" d="M128 660l6 40h201l-5 -40h-83l-60 -431q-3 -21 -3 -40q0 -25 5 -45q9 -36 31.5 -61t56 -38t76.5 -13q42 0 79.5 13t67 38t49 61.5t26.5 84.5l61 431h-83l6 40h201l-6 -40h-77l-61 -434q-8 -57 -32 -101t-60 -73.5t-81 -44.5t-95 -15q-51 0 -92 15t-68.5 44.5t-39.5 73.5 q-7 26 -7 57q0 21 3 44l61 434h-77z" />
<glyph unicode="V" horiz-adv-x="830" d="M131 660l6 40h201l-5 -40h-75q41 -144 81 -286t82 -285l4 -28l14 28q80 143 160 285t161 286h-69l5 40h201l-5 -40h-90q-97 -174 -194.5 -346t-194.5 -346q-50 174 -99 346t-99 346h-84z" />
<glyph unicode="W" horiz-adv-x="1203" d="M131 660l6 40h201l-5 -40h-75q41 -144 80.5 -286t82.5 -285l4 -28q48 100 107 199t114 197q-14 51 -28.5 101.5t-29.5 101.5h-84l6 40h201l-6 -40h-74q40 -144 80 -286t82 -285l5 -28l13 28q81 143 160.5 285t160.5 286h-69l6 40h201l-5 -40h-90q-97 -174 -195 -346 t-195 -346l-119 417l-5 27q-55 -111 -121 -223t-127 -221q-50 174 -99 346t-99 346h-84z" />
<glyph unicode="X" horiz-adv-x="704" d="M35 0l5 40h83l251 319l-153 301h-94l6 40h201l-5 -40h-58q33 -63 65 -126l64 -126l7 -18l13 18l197 252h-57l5 40h202l-6 -40h-94q-60 -78 -119.5 -153.5t-119.5 -152.5q39 -79 79.5 -157t80.5 -157h86l-5 -40h-202l5 40h64l-118 231q-6 12 -12 26t-13 26l-12 -19 q-52 -67 -103.5 -132.5t-103.5 -131.5h67l-5 -40h-201z" />
<glyph unicode="Y" horiz-adv-x="746" d="M127 660l6 40h201l-5 -40h-73q38 -83 76 -165t75 -165l8 -28h1l15 28l243 330h-71l5 40h201l-5 -40h-79q-73 -100 -145.5 -198t-145.5 -197l-31 -225h78l-5 -40h-201l5 40h74l31 225q-45 99 -90 197.5t-90 197.5h-78z" />
<glyph unicode="Z" horiz-adv-x="629" d="M35 0l5 40l565 620h-461l11 75h42l-5 -35h471l-6 -40l-564 -620h466l23 161h40l-28 -201h-559z" />
<glyph unicode="[" horiz-adv-x="338" d="M20 -149l6 41l119 854h175l-6 -41h-132l-114 -813h132l-5 -41h-175z" />
<glyph unicode="\" horiz-adv-x="346" d="M63 736h46q43 -190 85.5 -377.5t85.5 -377.5h-46q-43 190 -85.5 377.5t-85.5 377.5z" />
<glyph unicode="]" horiz-adv-x="342" d="M14 -149l5 41h132l114 813h-132l5 41h175l-120 -857l-5 -38h-174z" />
<glyph unicode="^" horiz-adv-x="470" d="M99 479q36 45 72.5 90.5t72.5 90.5q24 -45 47.5 -90.5t47.5 -90.5h-33q-18 30 -35.5 60.5t-34.5 60.5q-26 -30 -52 -60.5t-52 -60.5h-33z" />
<glyph unicode="_" horiz-adv-x="600" d="M97 0l5 41h400l-5 -41h-400z" />
<glyph unicode="`" horiz-adv-x="200" d="M-15 612h42q17 -33 32 -66.5t31 -66.5h-33q-19 33 -36.5 66.5t-35.5 66.5z" />
<glyph unicode="a" d="M62 188q6 40 26 75.5t50.5 62t68.5 42t79 15.5q29 0 54 -8.5t44 -22t31.5 -31t16.5 -34.5q3 22 7.5 44t8.5 44h34l-47 -335h74l-6 -40h-111l6 40q2 12 3 23.5t3 22.5q-9 -17 -25.5 -34t-39 -30t-50 -21t-57.5 -8q-41 0 -75 15.5t-57 41.5q-24 26 -34 62q-7 23 -6 47 q0 14 2 29zM104 188q-2 -12 -2 -24q0 -19 5 -36q8 -28 26 -49t44.5 -33t59.5 -12t63 12t54 33t39.5 49t20.5 60q1 11 1 21q0 21 -5 39q-8 28 -26 49.5t-44.5 33.5t-59.5 12t-62.5 -12t-53.5 -33t-40 -49.5t-20 -60.5z" />
<glyph unicode="b" d="M35 0l6 40h74l95 670h-71l6 40h112l-58 -413q-3 -12 -5.5 -24.5t-5.5 -24.5q9 18 26.5 35t40 30.5t50 21.5t56.5 8q41 0 75 -15.5t56 -41.5q24 -26 34 -62q7 -23 6 -48q0 -14 -2 -28q-6 -41 -26 -76.5t-50.5 -61.5t-68.5 -41.5t-79 -15.5q-30 0 -55.5 8t-44.5 21t-31 30 t-16 34q-2 -11 -3 -22.5t-3 -23.5l-6 -40h-112zM178 188q-2 -12 -2 -24q0 -19 5 -36q8 -28 26 -49t44.5 -33t59.5 -12t63 12t54 33t39.5 49t20.5 60q1 11 1 22q-1 20 -5 38q-8 28 -25.5 49.5t-44 33.5t-59.5 12t-63 -12t-54 -33t-40 -49.5t-20 -60.5z" />
<glyph unicode="c" horiz-adv-x="391" d="M62 188q6 40 26 76t50.5 62t68.5 41.5t79 15.5q36 0 66 -11.5t52 -31.5l-14 -98h-38l11 74q-17 13 -38 20t-45 7q-33 0 -63 -12t-53.5 -33t-39.5 -49.5t-20 -60.5q-2 -12 -2 -24q0 -19 5 -36q8 -28 26 -49t44 -33t59 -12q29 0 55 8.5t48 24.5l22 -31q-29 -20 -61.5 -31.5 t-68.5 -11.5q-41 0 -74.5 15.5t-56.5 41.5q-24 26 -34 62q-7 23 -6 47q0 14 2 29z" />
<glyph unicode="d" d="M62 188q6 40 26 75.5t50.5 62t68.5 42t79 15.5q29 0 53.5 -8t43.5 -21.5t31.5 -30.5t17.5 -35l4 42l4 42l48 338h-71l6 40h112l-100 -710h74l-6 -40h-111l6 40q2 12 3 23.5t3 22.5q-9 -17 -25.5 -34t-39 -30t-50 -21t-57.5 -8q-41 0 -75 15.5t-57 41.5q-24 26 -34 62 q-7 23 -6 47q0 14 2 29zM104 188q-2 -12 -2 -24q0 -19 5 -36q8 -28 26 -49t44.5 -33t59.5 -12t63 12t54 33t39.5 49t20.5 60q1 11 1 21q0 21 -5 39q-8 28 -26 49.5t-44.5 33.5t-59.5 12t-62.5 -12t-53.5 -33t-40 -49.5t-20 -60.5z" />
<glyph unicode="e" horiz-adv-x="441" d="M62 188q6 40 26 76t50.5 62t68.5 41.5t79 15.5q30 0 55.5 -10.5t45 -29t33 -44t18.5 -56.5q-82 -31 -164 -61.5t-164 -61.5q12 -38 45.5 -62t80.5 -24q31 0 59.5 11t51.5 31q6 -8 11.5 -15.5t10.5 -15.5q-29 -24 -64 -38t-74 -14q-41 0 -74.5 15.5t-56.5 41.5 q-24 26 -34 62q-7 23 -6 47q0 14 2 29zM103 159q72 27 143 53.5t142 53.5q-13 34 -41.5 55.5t-66.5 21.5q-37 0 -70 -15.5t-58 -41.5q-24 -24 -38 -58q-12 -29 -11 -60v-9z" />
<glyph unicode="f" horiz-adv-x="303" d="M35 0l5 40h61l41 294h-61l6 41h61l20 143q8 55 30 98t54.5 72t72 44.5t83.5 17.5l-6 -40q-34 -1 -66 -14t-58 -38t-44 -60t-24 -79l-21 -144h125l-5 -41h-125l-42 -294h91l-5 -40h-193z" />
<glyph unicode="g" horiz-adv-x="539" d="M92 -190l34 31q19 -24 51 -36t66 -12q31 0 60 12.5t53 35.5t40 55.5t22 71.5l9 72q3 11 5.5 22.5t5.5 22.5q-11 -18 -28 -34.5t-39.5 -29t-49 -20.5t-55.5 -8q-41 0 -75 15.5t-57 41.5t-34 62q-6 22 -6 47q0 14 2 29q6 40 26 75.5t50.5 62t68.5 42t79 15.5q29 0 54 -8.5 t44 -22t31.5 -31t16.5 -34.5l8 44l8 44h109l-6 -40h-75l-52 -370q-7 -49 -27.5 -88.5t-50 -67.5t-66 -43t-76.5 -16q-42 1 -82.5 16t-63.5 44zM138 188q-2 -12 -2 -24q0 -19 5 -36q8 -28 26 -49t44.5 -33t59.5 -12t63 12t54 33t39.5 49t20.5 60q1 11 1 21q0 21 -5 39 q-8 29 -26 50t-44.5 33t-59.5 12t-62.5 -12t-53.5 -33t-40 -49.5t-20 -60.5z" />
<glyph unicode="h" horiz-adv-x="545" d="M35 0l5 40h78l94 670h-74l6 40h115l-60 -427l-9 -45q28 48 75 75.5t104 29.5q55 0 83 -31q23 -26 23 -64q0 -8 -1 -17l-32 -231h73l-5 -40h-193l5 40h78l31 220v9q0 26 -15 47q-18 24 -60 26q-31 0 -60 -10.5t-53 -28.5t-40.5 -43t-20.5 -55l-23 -165h74l-5 -40h-193z " />
<glyph unicode="i" horiz-adv-x="263" d="M35 0l5 40h77l42 295h-78l6 40h119l-47 -335h74l-5 -40h-193zM172 508q2 14 13 23.5t24 9.5q13 1 21 -9q7 -8 8 -19q0 -3 -1 -5q-2 -14 -13.5 -23.5t-23.5 -9.5q-14 -1 -22 9q-7 8 -6 19v5z" />
<glyph unicode="j" horiz-adv-x="184" d="M6 -150q28 25 48 61t26 84l48 340h-73l6 40h114l-53 -379q-8 -59 -31.5 -103t-58.5 -73zM142 508q2 14 13 23.5t24 9.5t21 -9q7 -8 7 -19v-5q-2 -14 -13 -23.5t-24 -9.5t-22 9q-6 8 -6 19v5z" />
<glyph unicode="k" horiz-adv-x="503" d="M35 0l5 40h74l94 670h-70l5 40h112l-79 -560l176 145h-61l6 40h185l-6 -40h-72q-35 -29 -64 -54t-64 -54q27 -48 54.5 -94t55.5 -93h87l-5 -40h-185l5 40h48q-24 40 -47.5 79.5t-46.5 79.5l-73 -60l-14 -99h78l-5 -40h-193z" />
<glyph unicode="l" horiz-adv-x="263" d="M35 0l5 40h74l94 670h-70l5 40h112l-100 -710h78l-5 -40h-193z" />
<glyph unicode="m" horiz-adv-x="828" d="M35 0l5 40h78l41 295h-71l5 40h106l-4 -35q-2 -17 -2.5 -31t-2.5 -31q27 48 74.5 76t104.5 29q51 0 79 -27.5t27 -72.5q28 45 74.5 72t101.5 28q55 0 83 -31q24 -26 23 -66v-15l-33 -231h74l-5 -40h-193l5 40h78l30 220v9q0 26 -15 47q-18 24 -60 26q-30 0 -59 -10 t-52.5 -28t-40 -42.5t-21.5 -53.5l-23 -168h74l-5 -40h-194l5 40h78l31 220v9q0 26 -15 47q-18 24 -60 26q-31 0 -60 -10.5t-53 -28.5t-40.5 -43t-20.5 -55l-23 -165h74l-5 -40h-193z" />
<glyph unicode="n" horiz-adv-x="545" d="M35 0l5 40h78l41 295h-71l5 40h106l-4 -35q-2 -17 -2.5 -31t-2.5 -31q27 47 75 76t104 29q55 0 83 -31q23 -26 23 -64q0 -8 -1 -17l-32 -231h73l-5 -40h-193l5 40h78l31 220v9q0 26 -15 47q-18 24 -60 26q-31 0 -60 -10.5t-53 -28.5t-40.5 -43t-20.5 -55l-23 -165h74 l-5 -40h-193z" />
<glyph unicode="o" horiz-adv-x="465" d="M63 188q6 40 26 76t50 62.5t68 42t79 15.5t75 -15.5t57.5 -42t33.5 -62.5q7 -23 7 -47q0 -14 -2 -29q-6 -41 -26 -76.5t-50.5 -61.5t-69 -41.5t-79.5 -15.5t-74.5 15.5t-56.5 41.5t-33 62q-7 23 -7 47q0 14 2 29zM104 188q-2 -12 -2 -23q0 -19 6 -37q8 -28 26 -49t44 -33 t58 -12t62 12t54 33t40 49t21 60q1 11 1 21q0 20 -5 39q-8 28 -26 49t-44.5 33.5t-58.5 12.5t-62 -12.5t-54 -33.5t-40 -49t-20 -60z" />
<glyph unicode="p" d="M-2 -250l5 40h65l77 545h-74l6 40h107q-2 -22 -4.5 -45t-4.5 -45q9 18 26.5 35.5t40.5 31t50.5 22t56.5 8.5q41 0 75 -15.5t56.5 -41.5t33.5 -62q7 -24 7 -51q0 -12 -2 -25q-6 -40 -26.5 -75.5t-51 -62t-68.5 -42t-79 -15.5q-30 0 -55 8t-43.5 20.5t-31 29t-17.5 34.5 v-40l-36 -254h84l-4 -40h-193zM166 187q-2 -12 -2 -24q0 -19 5 -37q8 -28 26 -49t44.5 -33t59.5 -12t63 12t54 33t40 49.5t21 60.5q1 11 1 21q0 21 -5 40q-8 28 -26 48.5t-44.5 32.5t-59.5 12t-63 -12t-54 -32.5t-40 -48.5t-20 -61z" />
<glyph unicode="q" horiz-adv-x="540" d="M96 187q6 40 26 76t50.5 62t68.5 41.5t79 15.5q29 0 54 -8.5t44 -22t31.5 -31t17.5 -35.5q3 22 7.5 44.5t7.5 45.5h110l-6 -40h-76l-76 -545h68l-5 -40h-194l5 40h84l35 254q2 10 5 20t5 20q-10 -18 -27 -34.5t-39.5 -29t-49 -20.5t-56.5 -8q-41 0 -75 15.5t-56.5 42 t-33.5 62.5q-6 22 -6 47q0 13 2 28zM138 187q-2 -12 -2 -24q0 -19 5 -37q8 -28 26 -49t44.5 -33t59.5 -12t63 12t54 33t39.5 49.5t20.5 60.5q1 11 1 21q0 21 -5 40q-8 28 -26 48.5t-44.5 32.5t-59.5 12t-62.5 -12t-53.5 -32.5t-40 -48.5t-20 -61z" />
<glyph unicode="r" horiz-adv-x="344" d="M35 0l5 40h78l41 295h-71l5 40h106l-4 -35q-2 -17 -2.5 -31t-2.5 -31q14 24 34 43.5t43 33t47.5 21t47.5 7.5l-8 -41q-32 -1 -61 -11.5t-52.5 -28.5t-39 -43t-19.5 -54l-23 -165h74l-5 -40h-193z" />
<glyph unicode="s" horiz-adv-x="322" d="M56 29l10 74h38l-6 -51q17 -13 37.5 -16t41.5 -3q9 0 23 3.5t27 12t23.5 21.5t13.5 32q1 7 1 13q-1 17 -9 27q-12 14 -30.5 22.5t-42 15t-42.5 17.5t-31 29q-8 13 -8 32q0 9 2 19q4 26 17 45.5t30.5 32.5t37.5 19.5t38 6.5q4 0 16.5 -1t27.5 -4.5t30 -10.5t24 -19 l-10 -74h-38l7 53q-6 6 -15.5 9t-18.5 4.5t-17 1.5h-11q-24 0 -47.5 -14t-28.5 -48q0 -3 -1 -6q0 -18 11 -28q12 -12 31.5 -21t42 -16.5t41 -19.5t29.5 -31q8 -13 8 -32q0 -9 -2 -19q-2 -17 -11 -36.5t-25.5 -36.5t-41.5 -28.5t-58 -11.5q-10 0 -25.5 1.5t-32 5.5t-31.5 11 t-25 19z" />
<glyph unicode="t" horiz-adv-x="314" d="M81 334l6 41h87l34 244h42l-34 -244h115l-6 -41h-115l-41 -294h82l-5 -40h-124l46 334h-87z" />
<glyph unicode="u" horiz-adv-x="539" d="M82 335l6 40h115l-36 -260v-6q0 -28 16 -50q18 -24 59 -26q31 0 60 10.5t53 28.5t40 43t21 55l23 165h-74l5 40h116l-48 -339h71l-5 -36h-108l4 35l8 62q-27 -48 -75 -76.5t-103 -28.5t-83 31q-24 26 -24 66q0 7 1 15l32 231h-74z" />
<glyph unicode="v" horiz-adv-x="588" d="M84 335l6 40h185l-5 -40h-65q26 -70 52 -141t49 -141q40 66 86 138t94 144h-59l6 40h175l-6 -40h-73q-59 -91 -117.5 -179.5t-115.5 -178.5q-35 90 -68.5 178.5t-66.5 179.5h-77z" />
<glyph unicode="w" horiz-adv-x="848" d="M84 335l6 40h179l-5 -40h-59q26 -71 51 -141.5t48 -140.5q31 52 63.5 103.5t64.5 103.5l-9 75h-65l6 40h185l-6 -40h-66q26 -71 51 -141.5t48 -140.5q42 71 86.5 141t89.5 141h-59l6 40h169l-6 -40h-68q-58 -91 -115 -179.5t-114 -178.5l-98 272l-174 -272 q-33 90 -65.5 178.5t-64.5 179.5h-79z" />
<glyph unicode="x" horiz-adv-x="503" d="M35 0l5 40h74q33 38 66 76.5t67 76.5q-22 35 -43 70.5t-42 71.5h-81l6 40h193l-5 -40h-62l71 -121l104 121h-57l5 40h184l-5 -40h-77l-132 -154q20 -36 41 -71l42 -70h84l-5 -40h-193l5 40h57q-18 30 -35 59.5t-35 58.5q-25 -29 -50 -59t-51 -59h58l-5 -40h-184z" />
<glyph unicode="y" horiz-adv-x="601" d="M92 -250l5 40h85q32 52 66 104.5t67 103.5q-31 85 -61.5 168.5t-60.5 168.5h-77l6 40h185l-5 -40h-64q27 -75 54.5 -148.5t50.5 -148.5q42 72 90.5 147t96.5 150h-58l6 40h175l-6 -40h-72q-88 -137 -174.5 -272.5t-174.5 -272.5h64l-5 -40h-193z" />
<glyph unicode="z" horiz-adv-x="431" d="M35 0l5 41q43 37 83 73.5l80 73l80 73t83 74.5h-273l11 75h38l-5 -35h292l-6 -41q-43 -37 -83 -73.5t-79.5 -73t-79.5 -73t-83 -73.5h265l8 53h38l-13 -94h-361z" />
<glyph unicode="{" horiz-adv-x="291" d="M89 275l8 46q24 1 41.5 14.5t29 33.5t18 43.5t9.5 43.5l23 172q6 46 18 70t27 34.5t33 12t38 1.5h47l-5 -41h-52q-31 0 -45 -23.5t-23 -84.5l-20 -142q-6 -41 -15.5 -67.5t-21 -44t-24.5 -27.5t-26 -17q11 -7 21 -17.5t17 -28.5t9 -44.5t-4 -66.5l-19 -141 q-9 -62 -2 -85.5t38 -23.5h52l-6 -40h-47q-21 0 -39 1.5t-29.5 14t-15 41t4.5 82.5l20 149q3 20 3 43.5t-6 43.5t-19.5 33.5t-37.5 14.5z" />
<glyph unicode="|" horiz-adv-x="240" d="M96 -232l130 932h42l-130 -932h-42z" />
<glyph unicode="}" horiz-adv-x="320" d="M65 -148l6 40h52q15 0 26 5.5t18.5 18t12.5 33.5t10 52l23 164q4 32 14 55t22 38.5t25 25t23 15.5q-11 7 -21 17t-17 27.5t-9 44t4 67.5l19 142q9 62 2 85t-38 23h-52l6 41h47q19 0 36.5 -1t30 -11.5t17 -35t-1.5 -70.5l-20 -150q-3 -18 -5 -44.5t2 -51t17.5 -42.5 t42.5 -19l-8 -46q-29 -2 -47 -19.5t-29 -42t-16.5 -51t-8.5 -44.5l-20 -148q-6 -47 -18 -71t-27 -34.5t-33.5 -11.5t-37.5 -1h-47z" />
<glyph unicode="~" horiz-adv-x="489" d="M130 470q3 19 13 33t23.5 23.5t29 14t29.5 4.5q21 0 37.5 -9.5t30.5 -26.5q13 -17 24 -22.5t25 -5.5q7 0 17 2t20 7.5t18.5 15.5t12.5 26q6 -1 12.5 -1t12.5 -1q-8 -38 -37 -56.5t-58 -18.5q-21 0 -37.5 9.5t-30.5 26.5t-24.5 22.5t-24.5 5.5q-8 0 -18 -2t-19.5 -7.5 t-18.5 -15.5t-13 -26q-6 1 -12.5 1t-11.5 1z" />
<glyph unicode="&#xa1;" horiz-adv-x="200" d="M82 -210l82 584h41l-82 -584h-41zM168 485q3 14 14 23.5t23 9.5q13 0 21 -9.5t6 -23.5t-13 -23.5t-23 -9.5q-13 0 -21.5 9.5t-6.5 23.5z" />
<glyph unicode="&#xa2;" horiz-adv-x="385" d="M71 188q5 36 22.5 69t43 58.5t58 42.5t68.5 22l9 58h42l-8 -55q32 -2 60 -13t48 -30l-1 -1q-1 -4 -1 -11l-13 -87h-38l11 75q-14 11 -32.5 18t-39.5 7l-44 -307q25 2 49 10.5t44 22.5l21 -31q-52 -39 -119 -42l-8 -62h-42l8 65q-35 5 -62.5 22t-46 42.5t-26.5 58t-3 68.5 zM113 188q-8 -57 21 -98t81 -51l42 297q-27 -4 -51.5 -17t-43.5 -33t-32 -45t-17 -53z" />
<glyph unicode="&#xa3;" horiz-adv-x="574" d="M27 0l5 41h44q17 0 28.5 6t19 20.5t12.5 39.5t11 64l17 125h-65l6 41h65l23 163q10 70 64 102t139 32q67 0 100 -26.5t47 -66.5l-34 -19q-8 17 -16.5 30t-21.5 22t-32.5 14t-48.5 5q-78 0 -113.5 -26.5t-42.5 -72.5l-22 -157h124l-6 -41h-124l-23 -165 q-5 -29 -11.5 -52.5t-23.5 -37.5h325l15 104h43l-21 -145h-483z" />
<glyph unicode="&#xa4;" horiz-adv-x="500" d="M103 239l39 35q-24 38 -18 87q8 48 40 83q-7 8 -13.5 16.5t-14.5 16.5l34 29l28 -32q20 14 42.5 22t47.5 8q24 0 45 -8.5t37 -22.5l36 33l26 -30l-36 -31q11 -18 15.5 -39.5t0.5 -44.5q-3 -25 -14 -46.5t-28 -39.5l29 -35l-33 -29q-8 8 -15.5 17t-15.5 17 q-41 -27 -87 -27q-48 0 -80 26l-39 -34zM166 361q-3 -21 2.5 -40t17.5 -33t29.5 -22t38.5 -8t40.5 8t35.5 22t26.5 33t13.5 40t-2.5 39.5t-17 32.5t-29 22t-38.5 8t-40.5 -8t-35.5 -22t-27 -32.5t-14 -39.5z" />
<glyph unicode="&#xa5;" horiz-adv-x="746" d="M127 660l6 40h201l-5 -40h-73q38 -83 77 -164.5t74 -165.5l8 -28h1l15 28l243 330h-71l5 40h201l-5 -40h-79q-66 -90 -131 -178.5t-131 -177.5h119l-6 -41h-142l-16 -122h142l-6 -41h-142l-9 -60h78l-5 -40h-201l5 40h74l9 60h-142l5 41h142l17 122h-142l6 41h119 l-163 356h-78z" />
<glyph unicode="&#xa6;" horiz-adv-x="215" d="M89 -233l49 350h42l-49 -350h-42zM170 350l50 350h42l-50 -350h-42z" />
<glyph unicode="&#xa7;" horiz-adv-x="500" d="M187 341q0 24 9.5 49t26.5 45t40 33t51 13q10 0 20 -2t20 -5q-10 20 -20.5 43t-19.5 45t-14.5 41.5t-5.5 33.5q0 22 10.5 38t26.5 28t35.5 21.5t36.5 18.5q4 -9 7.5 -18t8.5 -17l-49 -27q-15 -8 -22.5 -18.5t-7.5 -25.5q0 -24 19 -65l67 -151q5 -11 7.5 -22.5t2.5 -23.5 q0 -24 -10 -48.5t-27.5 -44.5t-41.5 -32.5t-52 -12.5q-22 0 -37 7q9 -22 19.5 -45t19.5 -45t15 -41.5t6 -32.5q0 -23 -10.5 -39t-26.5 -28t-35 -21t-35 -18q-5 9 -8.5 18t-8.5 17l50 27q14 8 21 17.5t7 24.5q0 26 -22 74q-21 43 -35 72.5t-22.5 50t-12 36t-3.5 30.5z M228 352q0 -11 3 -21q5 -26 23.5 -40.5t45.5 -14.5q18 0 35.5 8t31 20.5t21.5 29.5t8 35q0 37 -24.5 56.5t-56.5 19.5q-20 -2 -36 -10.5t-27 -21t-17.5 -29t-6.5 -32.5z" />
<glyph unicode="&#xa8;" horiz-adv-x="370" d="M73 508q2 14 13 23.5t24 9.5t21.5 -9.5t6.5 -23.5t-13 -23.5t-23 -9.5q-13 0 -22 9.5t-7 23.5zM238 508q2 14 13.5 23.5t24.5 9.5q12 0 20.5 -9.5t6.5 -23.5t-12.5 -23.5t-23.5 -9.5t-22 9.5t-7 23.5z" />
<glyph unicode="&#xa9;" horiz-adv-x="793" d="M177 372q8 56 35 103t66.5 81.5t89.5 54t104 19.5t98.5 -19.5t74.5 -54t43.5 -81.5t5.5 -103q-8 -55 -34.5 -102t-66.5 -81.5t-89.5 -54t-103.5 -19.5t-98.5 19.5t-74.5 54t-44 81.5t-6 102zM202 371q-7 -50 5 -92.5t39.5 -74t67.5 -49t88 -17.5q49 0 94 17.5t81.5 49 t60.5 74t31 92.5q7 51 -5 94t-39.5 74.5t-67.5 49.5t-89 18q-48 0 -93 -18t-81 -49.5t-60.5 -74.5t-31.5 -94zM280 375q5 34 22 63.5t41.5 51.5t56 34.5t64.5 12.5q45 0 80 -22l-7 -51h-18l5 39q-29 16 -62 16q-30 0 -57.5 -11.5t-49.5 -31t-37 -46t-19 -56.5 q-4 -29 3.5 -55t24 -45.5t40.5 -31t53 -11.5q20 0 39 5.5t37 14.5l9 -15q-20 -11 -41.5 -17t-44.5 -6q-33 0 -61 13t-46.5 35t-27.5 51.5t-4 62.5z" />
<glyph unicode="&#xaa;" horiz-adv-x="585" d="M103 442q4 28 18.5 54t36.5 45t49.5 30t56.5 11q21 0 39 -6t32 -15.5t23 -22.5t12 -25q2 16 5 32t6 31h25l-34 -241h53l-4 -29h-80l4 29q2 9 2.5 17t1.5 16q-6 -12 -18 -24.5t-28 -22t-36 -15t-42 -5.5q-29 0 -53.5 11t-41 30t-24.5 44.5t-3 55.5zM133 442 q-4 -23 2 -43.5t19 -35.5t32 -23.5t43 -8.5t45.5 8.5t39 23.5t28.5 35.5t15 43.5q3 23 -3 43.5t-19 35.5t-32 23.5t-43 8.5t-45 -8.5t-38.5 -23.5t-29 -35.5t-14.5 -43.5z" />
<glyph unicode="&#xab;" horiz-adv-x="601" d="M139 239q49 41 97 80.5t97 80.5l-6 -48q-32 -29 -64 -56.5t-64 -56.5q23 -29 47.5 -57t47.5 -57l-6 -48zM310 239q49 41 97 80.5t97 80.5l-6 -48q-63 -55 -128 -113q23 -29 47.5 -57t47.5 -57l-6 -48z" />
<glyph unicode="&#xac;" horiz-adv-x="559" d="M109 211l4 33h360l-13 -96h-42l9 63h-318z" />
<glyph unicode="&#xad;" horiz-adv-x="300" d="M50 169l5 41h184l-5 -41h-184z" />
<glyph unicode="&#xae;" horiz-adv-x="801" d="M177 372q8 56 35 103t66.5 81.5t89.5 54t104 19.5t98.5 -19.5t74.5 -54t43.5 -81.5t5.5 -103q-8 -55 -34.5 -102t-66.5 -81.5t-89.5 -54t-103.5 -19.5t-98.5 19.5t-74.5 54t-44 81.5t-6 102zM202 371q-7 -50 5 -92.5t39.5 -74t67.5 -49t88 -17.5q49 0 94 17.5t81.5 49 t60.5 74t31 92.5q7 51 -5 94t-39.5 74.5t-67.5 49.5t-89 18q-48 0 -93 -18t-81 -49.5t-60.5 -74.5t-31.5 -94zM311 210l2 19h29l41 293h-29l3 19h100q14 0 31 -5t31 -15.5t22 -27t5 -39.5q-5 -33 -26.5 -55.5t-56.5 -30.5l46 -139h41l-2 -19h-54l-52 157q-5 -1 -11 -1h-11 h-39l-20 -137h47l-2 -19h-95zM383 385h49q25 0 42 6.5t28 17t16.5 22.5t7.5 23q4 27 -17 47.5t-57 20.5h-49z" />
<glyph unicode="&#xaf;" horiz-adv-x="399" d="M85 486l3 30h230l-3 -30h-230z" />
<glyph unicode="&#xb0;" horiz-adv-x="282" d="M63 559q5 37 33.5 62t65.5 25q36 0 57 -25t16 -62q-5 -36 -33 -60.5t-64 -24.5q-37 0 -58.5 24.5t-16.5 60.5zM92 560q-3 -24 11.5 -40.5t37.5 -16.5q24 0 43 16.5t22 40.5q4 23 -10.5 39.5t-38.5 16.5q-23 0 -42 -16.5t-23 -39.5z" />
<glyph unicode="&#xb1;" horiz-adv-x="524" d="M86 122l5 40h360l-5 -40h-360zM120 371l6 41h159l23 159h42l-23 -159h159l-6 -41h-159l-22 -160h-42l22 160h-159z" />
<glyph unicode="&#xb2;" horiz-adv-x="398" d="M80 375q36 31 69.5 60t60 57t44 54t21.5 49q3 24 -2 40.5t-14 26t-21.5 14t-22.5 4.5q-23 0 -38 -8t-25 -19.5t-15 -24.5t-7 -24q-5 -33 12 -55l-14 -12q-11 11 -16 29t-2 38q3 19 11.5 36.5t22 31t32.5 21t41 7.5q21 0 37 -7.5t26.5 -21t14.5 -31.5t1 -39 q-4 -26 -19.5 -52.5t-38.5 -52.5t-50.5 -51t-54.5 -50h135l8 52h20l-11 -72h-205z" />
<glyph unicode="&#xb3;" horiz-adv-x="419" d="M70 410l17 15q9 -13 23 -21t33 -8q17 0 33 7t29 18t22 26t11 32q3 17 -2 32t-14.5 26t-24 17.5t-31.5 6.5q-9 0 -17 -2.5t-16 -7.5l109 129h-103l-4 -30h-19l6 50h160l-105 -121q20 -2 36 -10t27.5 -21t16.5 -30.5t2 -38.5t-14 -40t-27 -33t-36 -22t-41 -8q-23 0 -41 9 t-30 25z" />
<glyph unicode="&#xb4;" horiz-adv-x="240" d="M100 479q27 33 54 66.5t54 66.5h43q-29 -33 -59 -66.5t-59 -66.5h-33z" />
<glyph unicode="&#xb5;" horiz-adv-x="533" d="M103 -201l74 536h-73l5 40h116l-36 -260q-3 -32 15 -56t60 -26q31 0 60 10.5t53 28.5t40 43t20 55l23 165h-74l6 40h115l-47 -339h71l-5 -36h-108l3 35l9 62q-27 -48 -75.5 -76.5t-103.5 -28.5q-27 0 -45.5 9.5t-29.5 26.5l-31 -229h-42z" />
<glyph unicode="&#xb6;" horiz-adv-x="512" d="M120 586q5 34 22 64t42 52t56.5 35t65.5 13h297l-5 -36h-93l-95 -678h92l-4 -36h-134l100 714h-122l-99 -714h-42l59 423q-34 0 -62 12.5t-47 34.5t-27.5 52t-3.5 64z" />
<glyph unicode="&#xb7;" horiz-adv-x="165" d="M52 281q2 14 13.5 23.5t24.5 9.5q12 0 21 -9.5t7 -23.5t-13.5 -23.5t-23.5 -9.5q-13 0 -22 9.5t-7 23.5z" />
<glyph unicode="&#xb8;" horiz-adv-x="452" d="M126 -169q8 3 14.5 6t14.5 6q3 -19 17 -31.5t37 -12.5q28 0 47.5 19t23.5 47q4 25 -6 38.5t-23 23.5t-24 20.5t-8 29.5l3 23h29l-1 -6q-2 -14 0.5 -22.5t8 -14.5t12 -10t12.5 -8q20 -15 26.5 -34.5t4.5 -37.5q-7 -48 -36 -74.5t-70 -26.5q-29 0 -52.5 16t-29.5 49z" />
<glyph unicode="&#xb9;" horiz-adv-x="259" d="M51 401l2 18h37l36 262h-44l3 19h63l-39 -281h36l-2 -18h-92z" />
<glyph unicode="&#xba;" horiz-adv-x="469" d="M110 442q5 28 19.5 54t36 45.5t49 30.5t56.5 11q30 0 54.5 -11t41.5 -30.5t24.5 -45.5t3.5 -54q-5 -30 -19.5 -55.5t-36.5 -44.5t-49.5 -30t-57.5 -11q-29 0 -53.5 11t-41 30t-24 44.5t-3.5 55.5zM140 442q-4 -23 2.5 -43.5t19.5 -35.5t31.5 -23.5t41.5 -8.5t45 8.5 t39 23.5t28.5 35.5t15.5 43.5q3 23 -3 43t-19 35t-32 24t-42 9t-44.5 -9t-39 -24t-29 -35t-14.5 -43z" />
<glyph unicode="&#xbb;" horiz-adv-x="601" d="M117 77l6 48q32 29 63.5 57t63.5 57q-23 29 -47 57t-47 56l6 48q37 -41 74 -80.5t74 -80.5zM288 77l6 48q32 29 63.5 57t63.5 57q-23 29 -47 56.5t-47 56.5l6 48q37 -41 74 -80.5t74 -80.5z" />
<glyph unicode="&#xbc;" horiz-adv-x="968" d="M110 234l3 28h57l56 404h-67l4 29h97l-60 -433h56l-4 -28h-142zM226 -19q97 190 192 377.5t192 376.5h42q-97 -189 -192 -376.5t-192 -377.5h-42zM486 136l322 354l-46 -323h72l-4 -31h-72l-15 -106h62l-5 -30h-149l4 30h57l15 106h-241zM553 167h178l32 231z" />
<glyph unicode="&#xbd;" horiz-adv-x="1069" d="M100 234l3 28h57l56 404h-67l4 29h97l-60 -433h56l-3 -28h-143zM226 -19q97 190 192 377.5t192 376.5h42q-97 -189 -192 -376.5t-192 -377.5h-42zM550 0q51 44 99 86t86.5 82t63.5 77t30 71t-2 57t-20.5 37.5t-31 20.5t-32.5 6q-32 0 -54 -11.5t-36 -27.5t-21 -35.5 t-10 -34.5q-7 -48 17 -78l-20 -18q-16 16 -23 42t-3 54t16.5 53t32 44t46 30t59.5 11q30 0 53 -11t37.5 -30t20.5 -45t1 -56q-5 -38 -28 -76t-55.5 -74.5t-71.5 -73t-77 -71.5h193l10 74h29l-15 -103h-294z" />
<glyph unicode="&#xbe;" horiz-adv-x="1276" d="M118 252l27 24q14 -20 36.5 -32.5t51.5 -12.5q27 0 52.5 10.5t45.5 28.5t33.5 41.5t17.5 49.5q4 27 -3.5 50.5t-22.5 41t-37.5 27.5t-49.5 10q-13 0 -26 -4t-25 -12l170 203h-161l-6 -47h-31l11 78h249l-163 -190q30 -2 55.5 -15t43 -33.5t25.5 -48t4 -60.5 q-5 -33 -22.5 -62.5t-42.5 -51.5t-56 -34.5t-64 -12.5q-36 0 -64 14t-48 38zM401 -19q97 190 192 377.5t192 377.5h42q-97 -190 -192 -377.5t-192 -377.5h-42zM684 136l322 354l-45 -323h72l-4 -31h-73l-15 -106h62l-4 -30h-150l4 30h57l15 106h-241zM752 167h178l32 231z " />
<glyph unicode="&#xbf;" horiz-adv-x="427" d="M12 2q8 54 40 95.5t83 73.5q19 13 36.5 23t32 22.5t25.5 31.5t15 49l11 78h42l-14 -97q-4 -31 -18 -50.5t-33.5 -34.5t-44 -28.5t-51.5 -33.5q-37 -27 -56.5 -59.5t-24.5 -69.5q-4 -33 3.5 -61t25 -49t44 -32.5t59.5 -11.5q58 0 102 30t68 83q8 -4 17.5 -7t17.5 -6 q-12 -26 -32 -51t-46.5 -45t-59.5 -32.5t-73 -12.5q-41 0 -75 15.5t-56.5 42t-33 62t-4.5 75.5zM260 491q2 14 13.5 23.5t23.5 9.5t21 -9.5t7 -23.5t-13.5 -23.5t-23.5 -9.5t-21 9.5t-7 23.5z" />
<glyph unicode="&#xc0;" horiz-adv-x="812" d="M35 0l5 40h77q98 174 196 346t195 346q50 -174 98.5 -346t97.5 -346h78l-5 -40h-193l5 40h73q-19 65 -37 129.5t-37 130.5h-281q-37 -66 -73 -130.5t-74 -129.5h73l-5 -40h-193zM330 340h247l-77 271l-5 28q-1 -2 -3.5 -6t-4.5 -9q-3 -6 -6 -13l-31.5 -58.5t-38 -68 t-41.5 -72.5t-40 -72zM417 883h42q17 -33 32 -66.5t31 -66.5h-33q-19 33 -36.5 66.5t-35.5 66.5z" />
<glyph unicode="&#xc1;" horiz-adv-x="812" d="M35 0l5 40h77q98 174 196 346t195 346q50 -174 98.5 -346t97.5 -346h78l-5 -40h-193l5 40h73q-19 65 -37 129.5t-37 130.5h-281q-37 -66 -73 -130.5t-74 -129.5h73l-5 -40h-193zM330 340h247l-77 271l-5 28q-1 -2 -3.5 -6t-4.5 -9q-3 -6 -6 -13l-31.5 -58.5t-38 -68 t-41.5 -72.5t-40 -72zM499 750q27 33 54 66.5t54 66.5h43q-29 -33 -59 -66.5t-59 -66.5h-33z" />
<glyph unicode="&#xc2;" horiz-adv-x="812" d="M35 0l5 40h77q98 174 196 346t195 346q50 -174 98.5 -346t97.5 -346h78l-5 -40h-193l5 40h73q-19 65 -37 129.5t-37 130.5h-281q-37 -66 -73 -130.5t-74 -129.5h73l-5 -40h-193zM330 340h247l-77 271l-5 28q-1 -2 -3.5 -6t-4.5 -9q-3 -6 -6 -13l-31.5 -58.5t-38 -68 t-41.5 -72.5t-40 -72zM388 750q36 45 72.5 90.5t72.5 90.5q24 -45 47.5 -90.5t47.5 -90.5h-33q-18 30 -35.5 60.5t-34.5 60.5q-26 -30 -52 -60.5t-52 -60.5h-33z" />
<glyph unicode="&#xc3;" horiz-adv-x="812" d="M35 0l5 40h77q98 174 196 346t195 346q50 -174 98.5 -346t97.5 -346h78l-5 -40h-193l5 40h73q-19 65 -37 129.5t-37 130.5h-281q-37 -66 -73 -130.5t-74 -129.5h73l-5 -40h-193zM330 340h247l-77 271l-5 28q-1 -2 -3.5 -6t-4.5 -9q-3 -6 -6 -13l-31.5 -58.5t-38 -68 t-41.5 -72.5t-40 -72zM358 764q3 19 13 33t23.5 23.5t29 14t29.5 4.5q21 0 37.5 -9.5t30.5 -26.5q13 -17 24 -22.5t25 -5.5q7 0 17 2t20 7.5t18.5 15.5t12.5 26q6 -1 12.5 -1t12.5 -1q-8 -38 -37 -56.5t-58 -18.5q-21 0 -37.5 9.5t-30.5 26.5t-24.5 22.5t-24.5 5.5 q-8 0 -18 -2t-19.5 -7.5t-18.5 -15.5t-13 -26q-6 1 -12.5 1t-11.5 1z" />
<glyph unicode="&#xc4;" horiz-adv-x="812" d="M35 0l5 40h77q98 174 196 346t195 346q50 -174 98.5 -346t97.5 -346h78l-5 -40h-193l5 40h73q-19 65 -37 129.5t-37 130.5h-281q-37 -66 -73 -130.5t-74 -129.5h73l-5 -40h-193zM330 340h247l-77 271l-5 28q-1 -2 -3.5 -6t-4.5 -9q-3 -6 -6 -13l-31.5 -58.5t-38 -68 t-41.5 -72.5t-40 -72zM396 798q2 14 13 23.5t24 9.5t21.5 -9.5t6.5 -23.5t-13 -23.5t-23 -9.5q-13 0 -22 9.5t-7 23.5zM561 798q2 14 13.5 23.5t24.5 9.5q12 0 20.5 -9.5t6.5 -23.5t-12.5 -23.5t-23.5 -9.5t-22 9.5t-7 23.5z" />
<glyph unicode="&#xc5;" horiz-adv-x="812" d="M35 0l5 40h77q98 174 196 346t195 346q50 -174 98.5 -346t97.5 -346h78l-5 -40h-193l5 40h73q-19 65 -37 129.5t-37 130.5h-281q-37 -66 -73 -130.5t-74 -129.5h73l-5 -40h-193zM330 340h247l-77 271l-5 28q-1 -2 -3.5 -6t-4.5 -9q-3 -6 -6 -13l-31.5 -58.5t-38 -68 t-41.5 -72.5t-40 -72zM445 836q4 30 28 51.5t54 21.5q31 0 49.5 -21.5t13.5 -51.5t-29 -51.5t-54 -21.5t-48.5 21.5t-13.5 51.5zM475 836q-2 -17 8.5 -30t27.5 -13q18 0 32.5 13t16.5 30t-9 29.5t-28 12.5t-31.5 -12.5t-16.5 -29.5z" />
<glyph unicode="&#xc6;" horiz-adv-x="776" d="M35 0l5 40h78q94 166 186 330t186 330h335l-22 -154h-40l16 114h-247l-40 -287h248l-6 -40h-248l-41 -293h261l16 114h40l-21 -154h-343l41 295h-134q-36 -64 -72 -127.5t-73 -127.5h73l-5 -40h-193zM327 335h118l40 284q-35 -72 -76.5 -142.5t-81.5 -141.5z" />
<glyph unicode="&#xc7;" horiz-adv-x="610" d="M117 349q10 74 47.5 139.5t92.5 114t124 77t143 28.5q51 0 95 -13t81 -37l-27 -193h-40l23 167q-29 17 -64.5 26.5t-73.5 9.5q-65 0 -126 -25.5t-110 -69t-82 -101.5t-42 -124q-9 -65 7.5 -122.5t53 -100.5t90 -68t118.5 -25q45 0 86.5 11.5t79.5 32.5l20 -34 q-43 -23 -89 -36t-95 -14q-2 -11 0 -13q2 -18 13 -25.5t21 -14.5q20 -15 26.5 -34.5t3.5 -37.5q-7 -48 -36 -74.5t-70 -26.5q-29 0 -52 16t-29 49l28 12q3 -19 17 -31.5t37 -12.5q28 0 48 19t24 47q3 25 -7 38.5t-23 23.5t-24 20.5t-8 29.5l2 16q-69 4 -126 33.5t-95 77.5 t-55 111t-7 134z" />
<glyph unicode="&#xc8;" horiz-adv-x="571" d="M35 0l5 40h72l87 620h-72l6 40h487l-22 -154h-40l16 114h-333l-41 -287h335l-6 -40h-335l-41 -293h348l16 114h40l-21 -154h-501zM293 883h42q17 -33 32 -66.5t31 -66.5h-33q-19 33 -36.5 66.5t-35.5 66.5z" />
<glyph unicode="&#xc9;" horiz-adv-x="571" d="M35 0l5 40h72l87 620h-72l6 40h487l-22 -154h-40l16 114h-333l-41 -287h335l-6 -40h-335l-41 -293h348l16 114h40l-21 -154h-501zM400 750q27 33 54 66.5t54 66.5h43q-29 -33 -59 -66.5t-59 -66.5h-33z" />
<glyph unicode="&#xca;" horiz-adv-x="571" d="M35 0l5 40h72l87 620h-72l6 40h487l-22 -154h-40l16 114h-333l-41 -287h335l-6 -40h-335l-41 -293h348l16 114h40l-21 -154h-501zM278 750q36 45 72.5 90.5t72.5 90.5q24 -45 47.5 -90.5t47.5 -90.5h-33q-18 30 -35.5 60.5t-34.5 60.5q-26 -30 -52 -60.5t-52 -60.5h-33z " />
<glyph unicode="&#xcb;" horiz-adv-x="571" d="M35 0l5 40h72l87 620h-72l6 40h487l-22 -154h-40l16 114h-333l-41 -287h335l-6 -40h-335l-41 -293h348l16 114h40l-21 -154h-501zM284 798q2 14 13 23.5t24 9.5t21.5 -9.5t6.5 -23.5t-13 -23.5t-23 -9.5q-13 0 -22 9.5t-7 23.5zM449 798q2 14 13.5 23.5t24.5 9.5 q12 0 20.5 -9.5t6.5 -23.5t-12.5 -23.5t-23.5 -9.5t-22 9.5t-7 23.5z" />
<glyph unicode="&#xcc;" horiz-adv-x="271" d="M35 0l5 40h78l87 620h-78l6 40h201l-5 -40h-82l-88 -620h82l-5 -40h-201zM138 883h42q17 -33 32 -66.5t31 -66.5h-33q-19 33 -36.5 66.5t-35.5 66.5z" />
<glyph unicode="&#xcd;" horiz-adv-x="271" d="M35 0l5 40h78l87 620h-78l6 40h201l-5 -40h-82l-88 -620h82l-5 -40h-201zM225 750q27 33 54 66.5t54 66.5h43q-29 -33 -59 -66.5t-59 -66.5h-33z" />
<glyph unicode="&#xce;" horiz-adv-x="272" d="M35 0l5 40h78l87 620h-78l6 40h201l-5 -40h-82l-88 -620h82l-5 -40h-201zM122 750q36 45 72.5 90.5t72.5 90.5q24 -45 47.5 -90.5t47.5 -90.5h-33q-18 30 -35.5 60.5t-34.5 60.5q-26 -30 -52 -60.5t-52 -60.5h-33z" />
<glyph unicode="&#xcf;" horiz-adv-x="271" d="M35 0l5 40h78l87 620h-78l6 40h201l-5 -40h-82l-88 -620h82l-5 -40h-201zM134 798q2 14 13 23.5t24 9.5t21.5 -9.5t6.5 -23.5t-13 -23.5t-23 -9.5q-13 0 -22 9.5t-7 23.5zM299 798q2 14 13.5 23.5t24.5 9.5q12 0 20.5 -9.5t6.5 -23.5t-12.5 -23.5t-23.5 -9.5t-22 9.5 t-7 23.5z" />
<glyph unicode="&#xd0;" horiz-adv-x="632" d="M35 0l5 40h63l41 291h-54l6 41h53l41 288h-63l6 40h210q72 0 132.5 -24.5t102 -70t60.5 -110.5t8 -145q-9 -59 -38 -121t-82 -113t-131 -83.5t-184 -32.5h-176zM145 41h87q83 0 148.5 26.5t112.5 69.5t75.5 98.5t36.5 114.5q10 71 -6.5 128.5t-53.5 98t-90.5 62 t-117.5 21.5h-105l-41 -288h207l-6 -41h-207z" />
<glyph unicode="&#xd1;" horiz-adv-x="808" d="M39 0l6 40h81l86 620h-81l6 40h108l441 -612l15 -26l2 32l79 566h-76l6 40h201l-6 -40h-84l-96 -692l-464 639l-15 22l-2 -28l-79 -561h79l-6 -40h-201zM361 763q3 19 13 33t23.5 23.5t29 14t29.5 4.5q21 0 37.5 -9.5t30.5 -26.5q13 -17 24 -22.5t25 -5.5q7 0 17 2 t20 7.5t18.5 15.5t12.5 26q6 -1 12.5 -1t12.5 -1q-8 -38 -37 -56.5t-58 -18.5q-21 0 -37.5 9.5t-30.5 26.5t-24.5 22.5t-24.5 5.5q-8 0 -18 -2t-19.5 -7.5t-18.5 -15.5t-13 -26q-6 1 -12.5 1t-11.5 1z" />
<glyph unicode="&#xd2;" horiz-adv-x="786" d="M85 349q10 74 47.5 139.5t92.5 114t124 77t143 28.5t135.5 -28.5t103.5 -77t61 -114t9 -139.5q-11 -74 -48.5 -139t-93 -113.5t-124.5 -76.5t-143 -28t-135 28t-103 76.5t-61 113.5t-8 139zM127 348q-9 -66 7.5 -123.5t53 -100t90 -67.5t118.5 -25t126.5 25t111 68 t83 100.5t42.5 123.5t-8 124t-54 101.5t-91 68.5t-119 25t-126 -25.5t-110 -69t-82 -101.5t-42 -124zM408 883h42q17 -33 32 -66.5t31 -66.5h-33q-19 33 -36.5 66.5t-35.5 66.5z" />
<glyph unicode="&#xd3;" horiz-adv-x="786" d="M85 349q10 74 47.5 139.5t92.5 114t124 77t143 28.5t135.5 -28.5t103.5 -77t61 -114t9 -139.5q-11 -74 -48.5 -139t-93 -113.5t-124.5 -76.5t-143 -28t-135 28t-103 76.5t-61 113.5t-8 139zM127 348q-9 -66 7.5 -123.5t53 -100t90 -67.5t118.5 -25t126.5 25t111 68 t83 100.5t42.5 123.5t-8 124t-54 101.5t-91 68.5t-119 25t-126 -25.5t-110 -69t-82 -101.5t-42 -124zM491 750q27 33 54 66.5t54 66.5h43q-29 -33 -59 -66.5t-59 -66.5h-33z" />
<glyph unicode="&#xd4;" horiz-adv-x="786" d="M85 349q10 74 47.5 139.5t92.5 114t124 77t143 28.5t135.5 -28.5t103.5 -77t61 -114t9 -139.5q-11 -74 -48.5 -139t-93 -113.5t-124.5 -76.5t-143 -28t-135 28t-103 76.5t-61 113.5t-8 139zM127 348q-9 -66 7.5 -123.5t53 -100t90 -67.5t118.5 -25t126.5 25t111 68 t83 100.5t42.5 123.5t-8 124t-54 101.5t-91 68.5t-119 25t-126 -25.5t-110 -69t-82 -101.5t-42 -124zM379 750q36 45 72.5 90.5t72.5 90.5q24 -45 47.5 -90.5t47.5 -90.5h-33q-18 30 -35.5 60.5t-34.5 60.5q-26 -30 -52 -60.5t-52 -60.5h-33z" />
<glyph unicode="&#xd5;" horiz-adv-x="786" d="M85 349q10 74 47.5 139.5t92.5 114t124 77t143 28.5t135.5 -28.5t103.5 -77t61 -114t9 -139.5q-11 -74 -48.5 -139t-93 -113.5t-124.5 -76.5t-143 -28t-135 28t-103 76.5t-61 113.5t-8 139zM127 348q-9 -66 7.5 -123.5t53 -100t90 -67.5t118.5 -25t126.5 25t111 68 t83 100.5t42.5 123.5t-8 124t-54 101.5t-91 68.5t-119 25t-126 -25.5t-110 -69t-82 -101.5t-42 -124zM352 797q3 19 13 33t23.5 23.5t29 14t29.5 4.5q21 0 37.5 -9.5t30.5 -26.5q13 -17 24 -22.5t25 -5.5q7 0 17 2t20 7.5t18.5 15.5t12.5 26q6 -1 12.5 -1t12.5 -1 q-8 -38 -37 -56.5t-58 -18.5q-21 0 -37.5 9.5t-30.5 26.5t-24.5 22.5t-24.5 5.5q-8 0 -18 -2t-19.5 -7.5t-18.5 -15.5t-13 -26q-6 1 -12.5 1t-11.5 1z" />
<glyph unicode="&#xd6;" horiz-adv-x="786" d="M85 349q10 74 47.5 139.5t92.5 114t124 77t143 28.5t135.5 -28.5t103.5 -77t61 -114t9 -139.5q-11 -74 -48.5 -139t-93 -113.5t-124.5 -76.5t-143 -28t-135 28t-103 76.5t-61 113.5t-8 139zM127 348q-9 -66 7.5 -123.5t53 -100t90 -67.5t118.5 -25t126.5 25t111 68 t83 100.5t42.5 123.5t-8 124t-54 101.5t-91 68.5t-119 25t-126 -25.5t-110 -69t-82 -101.5t-42 -124zM385 798q2 14 13 23.5t24 9.5t21.5 -9.5t6.5 -23.5t-13 -23.5t-23 -9.5q-13 0 -22 9.5t-7 23.5zM550 798q2 14 13.5 23.5t24.5 9.5q12 0 20.5 -9.5t6.5 -23.5t-12.5 -23.5 t-23.5 -9.5t-22 9.5t-7 23.5z" />
<glyph unicode="&#xd7;" horiz-adv-x="500" d="M126 29q32 29 64 56.5t64 56.5l-97 112l35 30l96 -112q32 29 64 56t64 56q6 -7 12.5 -14.5t12.5 -14.5l-64 -56l-64 -56q24 -29 48 -57t49 -56l-33 -30q-26 29 -50 56.5t-48 56.5q-63 -55 -128 -113q-6 8 -13 15t-12 14z" />
<glyph unicode="&#xd8;" horiz-adv-x="786" d="M81 14q20 20 38.5 39t38.5 39q-44 49 -64 115t-9 142q10 74 47.5 139.5t92.5 114t124 77t143 28.5q60 0 111.5 -18.5t92.5 -52.5q18 19 36.5 37.5t36.5 37.5q13 -12 25 -25l-37 -37t-36 -37q47 -49 69 -117.5t11 -146.5q-11 -74 -48 -139t-92.5 -113.5t-125 -76.5 t-143.5 -28q-62 0 -115 20t-94 55q-19 -20 -38 -39.5t-39 -39.5q-6 7 -12.5 13t-12.5 13zM127 348q-10 -66 7 -124t55 -101q120 122 237.5 242t237.5 241q-35 29 -80 45.5t-97 16.5q-65 0 -126 -25.5t-110 -69t-82 -101.5t-42 -124zM214 98q35 -32 81 -49t101 -17 q65 0 126.5 25t111 68t83.5 100.5t43 123.5q10 69 -9.5 128.5t-61.5 103.5q-120 -121 -237.5 -241.5t-237.5 -241.5z" />
<glyph unicode="&#xd9;" horiz-adv-x="696" d="M128 660l6 40h201l-5 -40h-83l-60 -431q-7 -48 2 -84.5t31.5 -61.5t56 -38t76.5 -13q42 0 79.5 13t67 38t49 61.5t26.5 84.5l61 431h-83l6 40h201l-6 -40h-77l-61 -434q-8 -57 -32 -101t-60 -73.5t-81 -44.5t-95 -15q-51 0 -92 15t-68.5 44.5t-39.5 73.5t-4 101l61 434 h-77zM367 883h42q17 -33 32 -66.5t31 -66.5h-33q-19 33 -36.5 66.5t-35.5 66.5z" />
<glyph unicode="&#xda;" horiz-adv-x="696" d="M128 660l6 40h201l-5 -40h-83l-60 -431q-7 -48 2 -84.5t31.5 -61.5t56 -38t76.5 -13q42 0 79.5 13t67 38t49 61.5t26.5 84.5l61 431h-83l6 40h201l-6 -40h-77l-61 -434q-8 -57 -32 -101t-60 -73.5t-81 -44.5t-95 -15q-51 0 -92 15t-68.5 44.5t-39.5 73.5t-4 101l61 434 h-77zM437 750q27 33 54 66.5t54 66.5h43q-29 -33 -59 -66.5t-59 -66.5h-33z" />
<glyph unicode="&#xdb;" horiz-adv-x="696" d="M128 660l6 40h201l-5 -40h-83l-60 -431q-7 -48 2 -84.5t31.5 -61.5t56 -38t76.5 -13q42 0 79.5 13t67 38t49 61.5t26.5 84.5l61 431h-83l6 40h201l-6 -40h-77l-61 -434q-8 -57 -32 -101t-60 -73.5t-81 -44.5t-95 -15q-51 0 -92 15t-68.5 44.5t-39.5 73.5t-4 101l61 434 h-77zM335 750q36 45 72.5 90.5t72.5 90.5q24 -45 47.5 -90.5t47.5 -90.5h-33q-18 30 -35.5 60.5t-34.5 60.5q-26 -30 -52 -60.5t-52 -60.5h-33z" />
<glyph unicode="&#xdc;" horiz-adv-x="696" d="M128 660l6 40h201l-5 -40h-83l-60 -431q-7 -48 2 -84.5t31.5 -61.5t56 -38t76.5 -13q42 0 79.5 13t67 38t49 61.5t26.5 84.5l61 431h-83l6 40h201l-6 -40h-77l-61 -434q-8 -57 -32 -101t-60 -73.5t-81 -44.5t-95 -15q-51 0 -92 15t-68.5 44.5t-39.5 73.5t-4 101l61 434 h-77zM345 799q2 14 13 23.5t24 9.5t21.5 -9.5t6.5 -23.5t-13 -23.5t-23 -9.5q-13 0 -22 9.5t-7 23.5zM510 799q2 14 13.5 23.5t24.5 9.5q12 0 20.5 -9.5t6.5 -23.5t-12.5 -23.5t-23.5 -9.5t-22 9.5t-7 23.5z" />
<glyph unicode="&#xdd;" horiz-adv-x="746" d="M127 660l6 40h201l-5 -40h-73q38 -83 76 -165t75 -165l8 -28h1l15 28l243 330h-71l5 40h201l-5 -40h-79q-73 -100 -145.5 -198t-145.5 -197l-31 -225h78l-5 -40h-201l5 40h74l31 225q-45 99 -90 197.5t-90 197.5h-78zM474 750q27 33 54 66.5t54 66.5h43 q-29 -33 -59 -66.5t-59 -66.5h-33z" />
<glyph unicode="&#xde;" horiz-adv-x="506" d="M35 0l5 40h71l87 620h-71l6 40h193l-5 -40h-81l-17 -125h108q31 0 67 -10t65.5 -32t46.5 -57t10 -84q-12 -86 -74 -137t-165 -51h-111l-17 -124h88l-5 -40h-201zM176 205h103q52 0 89 14t60 36t35 47.5t15 49.5q4 28 -5.5 54t-30.5 46t-52 31.5t-68 11.5h-105z" />
<glyph unicode="&#xdf;" horiz-adv-x="549" d="M36 0l6 40h73l45 316h-63l5 40h63l4 29q8 55 30 98t52.5 72.5t68.5 45.5t77 17q31 -1 56 -13t42.5 -32.5t25 -47.5t3.5 -58q-5 -38 -30 -69.5t-60 -48.5q28 -10 50 -28.5t36.5 -43t20.5 -54.5t2 -63q-6 -43 -28.5 -81t-55 -66t-73 -44.5t-83.5 -16.5q-53 0 -95 25l22 36 q33 -21 77 -21q35 0 68 13.5t59.5 36.5t44 53.5t22.5 64.5q4 34 -5 64t-29 52.5t-49 35.5t-63 13q1 5 1 10t1 11l3 21q22 0 43 7t37.5 20t27.5 31t14 40t-2 42t-17 36t-30 25t-41 9q-32 0 -62 -13.5t-54.5 -38.5t-41.5 -60.5t-23 -79.5l-60 -425h-115z" />
<glyph unicode="&#xe0;" d="M62 188q6 40 26 75.5t50.5 62t68.5 42t79 15.5q29 0 54 -8.5t44 -22t31.5 -31t16.5 -34.5q3 22 7.5 44t8.5 44h34l-47 -335h74l-6 -40h-111l6 40q2 12 3 23.5t3 22.5q-9 -17 -25.5 -34t-39 -30t-50 -21t-57.5 -8q-41 0 -75 15.5t-57 41.5t-33.5 61.5t-4.5 76.5zM104 188 q-5 -32 3 -60t26 -49t44.5 -33t59.5 -12t63 12t54 33t39.5 49t20.5 60q4 32 -4 60.5t-26 49.5t-44.5 33t-59.5 12t-62.5 -12t-53.5 -33t-40 -49.5t-20 -60.5zM200 612h42q17 -33 32 -66.5t31 -66.5h-33q-19 33 -36.5 66.5t-35.5 66.5z" />
<glyph unicode="&#xe1;" d="M62 188q6 40 26 75.5t50.5 62t68.5 42t79 15.5q29 0 54 -8.5t44 -22t31.5 -31t16.5 -34.5q3 22 7.5 44t8.5 44h34l-47 -335h74l-6 -40h-111l6 40q2 12 3 23.5t3 22.5q-9 -17 -25.5 -34t-39 -30t-50 -21t-57.5 -8q-41 0 -75 15.5t-57 41.5t-33.5 61.5t-4.5 76.5zM104 188 q-5 -32 3 -60t26 -49t44.5 -33t59.5 -12t63 12t54 33t39.5 49t20.5 60q4 32 -4 60.5t-26 49.5t-44.5 33t-59.5 12t-62.5 -12t-53.5 -33t-40 -49.5t-20 -60.5zM308 479q27 33 54 66.5t54 66.5h43q-29 -33 -59 -66.5t-59 -66.5h-33z" />
<glyph unicode="&#xe2;" d="M62 188q6 40 26 75.5t50.5 62t68.5 42t79 15.5q29 0 54 -8.5t44 -22t31.5 -31t16.5 -34.5q3 22 7.5 44t8.5 44h34l-47 -335h74l-6 -40h-111l6 40q2 12 3 23.5t3 22.5q-9 -17 -25.5 -34t-39 -30t-50 -21t-57.5 -8q-41 0 -75 15.5t-57 41.5t-33.5 61.5t-4.5 76.5zM104 188 q-5 -32 3 -60t26 -49t44.5 -33t59.5 -12t63 12t54 33t39.5 49t20.5 60q4 32 -4 60.5t-26 49.5t-44.5 33t-59.5 12t-62.5 -12t-53.5 -33t-40 -49.5t-20 -60.5zM203 479q36 45 72.5 90.5t72.5 90.5q24 -45 47.5 -90.5t47.5 -90.5h-33q-18 30 -35.5 60.5t-34.5 60.5 q-26 -30 -52 -60.5t-52 -60.5h-33z" />
<glyph unicode="&#xe3;" d="M62 188q6 40 26 75.5t50.5 62t68.5 42t79 15.5q29 0 54 -8.5t44 -22t31.5 -31t16.5 -34.5q3 22 7.5 44t8.5 44h34l-47 -335h74l-6 -40h-111l6 40q2 12 3 23.5t3 22.5q-9 -17 -25.5 -34t-39 -30t-50 -21t-57.5 -8q-41 0 -75 15.5t-57 41.5t-33.5 61.5t-4.5 76.5zM104 188 q-5 -32 3 -60t26 -49t44.5 -33t59.5 -12t63 12t54 33t39.5 49t20.5 60q4 32 -4 60.5t-26 49.5t-44.5 33t-59.5 12t-62.5 -12t-53.5 -33t-40 -49.5t-20 -60.5zM148 470q3 19 13 33t23.5 23.5t29 14t29.5 4.5q21 0 37.5 -9.5t30.5 -26.5q13 -17 24 -22.5t25 -5.5q7 0 17 2 t20 7.5t18.5 15.5t12.5 26q6 -1 12.5 -1t12.5 -1q-8 -38 -37 -56.5t-58 -18.5q-21 0 -37.5 9.5t-30.5 26.5t-24.5 22.5t-24.5 5.5q-8 0 -18 -2t-19.5 -7.5t-18.5 -15.5t-13 -26q-6 1 -12.5 1t-11.5 1z" />
<glyph unicode="&#xe4;" d="M62 188q6 40 26 75.5t50.5 62t68.5 42t79 15.5q29 0 54 -8.5t44 -22t31.5 -31t16.5 -34.5q3 22 7.5 44t8.5 44h34l-47 -335h74l-6 -40h-111l6 40q2 12 3 23.5t3 22.5q-9 -17 -25.5 -34t-39 -30t-50 -21t-57.5 -8q-41 0 -75 15.5t-57 41.5t-33.5 61.5t-4.5 76.5zM104 188 q-5 -32 3 -60t26 -49t44.5 -33t59.5 -12t63 12t54 33t39.5 49t20.5 60q4 32 -4 60.5t-26 49.5t-44.5 33t-59.5 12t-62.5 -12t-53.5 -33t-40 -49.5t-20 -60.5zM204 508q2 14 13 23.5t24 9.5t21.5 -9.5t6.5 -23.5t-13 -23.5t-23 -9.5q-13 0 -22 9.5t-7 23.5zM369 508 q2 14 13.5 23.5t24.5 9.5q12 0 20.5 -9.5t6.5 -23.5t-12.5 -23.5t-23.5 -9.5t-22 9.5t-7 23.5z" />
<glyph unicode="&#xe5;" d="M62 188q6 40 26 75.5t50.5 62t68.5 42t79 15.5q29 0 54 -8.5t44 -22t31.5 -31t16.5 -34.5q3 22 7.5 44t8.5 44h34l-47 -335h74l-6 -40h-111l6 40q2 12 3 23.5t3 22.5q-9 -17 -25.5 -34t-39 -30t-50 -21t-57.5 -8q-41 0 -75 15.5t-57 41.5t-33.5 61.5t-4.5 76.5zM104 188 q-5 -32 3 -60t26 -49t44.5 -33t59.5 -12t63 12t54 33t39.5 49t20.5 60q4 32 -4 60.5t-26 49.5t-44.5 33t-59.5 12t-62.5 -12t-53.5 -33t-40 -49.5t-20 -60.5zM238 540q4 30 28 51.5t54 21.5q31 0 49.5 -21.5t13.5 -51.5t-29 -51.5t-54 -21.5t-48.5 21.5t-13.5 51.5zM268 540 q-2 -17 8.5 -30t27.5 -13q18 0 32.5 13t16.5 30t-9 29.5t-28 12.5t-31.5 -12.5t-16.5 -29.5z" />
<glyph unicode="&#xe6;" horiz-adv-x="593" d="M50 102q4 28 19.5 47.5t38 31.5t49.5 17t56 5h123l5 40q4 25 2.5 43.5t-12 30.5t-32 18t-58.5 6q-14 0 -29.5 -3t-31 -7.5t-28.5 -10t-22 -11.5q-5 7 -10.5 14t-11.5 14q12 9 28.5 17.5t35.5 14.5t39 9.5t37 3.5q74 0 105 -19q44 19 88 19q30 0 55.5 -10.5t45 -29.5 t33 -44.5t18.5 -56.5q-56 -20 -111 -41t-110 -41l-5 -31q-4 -29 -12.5 -48.5t-25.5 -34.5q26 -13 63 -13q31 0 59.5 11t51.5 31l21 -30q-29 -25 -64 -39t-74 -14q-50 0 -87 21q-38 -22 -106 -22q-36 0 -64.5 5.5t-47.5 18t-27.5 34t-3.5 54.5zM92 101q-3 -22 6 -35.5t25 -21 t36.5 -10.5t39.5 -3t39.5 3t38 11t30 22.5t15.5 38.5l8 54h-79h-40.5t-51 -5.5t-45 -17.5t-22.5 -36zM373 329q11 -14 13 -35.5t-3 -52.5l-5 -38q42 15 82.5 30.5t82.5 30.5q-13 35 -41.5 56t-66.5 21q-17 0 -32.5 -3.5t-29.5 -8.5z" />
<glyph unicode="&#xe7;" horiz-adv-x="391" d="M51 188q6 40 26 76t50.5 62t68.5 41.5t79 15.5q35 0 65.5 -11.5t52.5 -31.5l-13 -99h-39l10 75q-35 27 -82 27q-33 0 -63 -12t-53.5 -33t-39.5 -49.5t-20 -60.5q-5 -32 3 -60t25.5 -49t44 -33t59.5 -12q56 0 103 33l21 -31q-6 -5 -23.5 -13.5t-37.5 -16.5t-38 -13t-25 -3 q-2 -12 1.5 -20t8.5 -13.5t12 -9.5t13 -8q20 -15 26 -34.5t3 -37.5q-6 -45 -31.5 -69t-59.5 -29q-19 -3 -35 1q-23 4 -39.5 19t-21.5 42l29 12q3 -20 17 -32t37 -12q28 0 47.5 19t23.5 47q3 25 -7 38.5t-23 23.5t-23.5 20.5t-8.5 29.5l3 19q-36 4 -65.5 20t-49 41.5t-28 59 t-3.5 71.5z" />
<glyph unicode="&#xe8;" horiz-adv-x="441" d="M62 188q6 40 26 76t50.5 62t68.5 41.5t79 15.5q30 0 55.5 -10.5t45 -29t33 -44t18.5 -56.5q-82 -31 -164 -61.5t-164 -61.5q12 -38 45.5 -62t80.5 -24q31 0 59.5 11t51.5 31q6 -8 11.5 -15.5t10.5 -15.5q-29 -24 -64 -38t-74 -14q-41 0 -74.5 15.5t-56.5 41.5t-33.5 61.5 t-4.5 76.5zM103 159q72 27 143 53.5t142 53.5q-13 34 -41.5 55.5t-66.5 21.5q-37 0 -70 -15.5t-57.5 -41t-38 -59t-11.5 -68.5zM168 612h42q17 -33 32 -66.5t31 -66.5h-33q-19 33 -36.5 66.5t-35.5 66.5z" />
<glyph unicode="&#xe9;" horiz-adv-x="441" d="M62 188q6 40 26 76t50.5 62t68.5 41.5t79 15.5q30 0 55.5 -10.5t45 -29t33 -44t18.5 -56.5q-82 -31 -164 -61.5t-164 -61.5q12 -38 45.5 -62t80.5 -24q31 0 59.5 11t51.5 31q6 -8 11.5 -15.5t10.5 -15.5q-29 -24 -64 -38t-74 -14q-41 0 -74.5 15.5t-56.5 41.5t-33.5 61.5 t-4.5 76.5zM103 159q72 27 143 53.5t142 53.5q-13 34 -41.5 55.5t-66.5 21.5q-37 0 -70 -15.5t-57.5 -41t-38 -59t-11.5 -68.5zM277 479q27 33 54 66.5t54 66.5h43q-29 -33 -59 -66.5t-59 -66.5h-33z" />
<glyph unicode="&#xea;" horiz-adv-x="441" d="M62 188q6 40 26 76t50.5 62t68.5 41.5t79 15.5q30 0 55.5 -10.5t45 -29t33 -44t18.5 -56.5q-82 -31 -164 -61.5t-164 -61.5q12 -38 45.5 -62t80.5 -24q31 0 59.5 11t51.5 31q6 -8 11.5 -15.5t10.5 -15.5q-29 -24 -64 -38t-74 -14q-41 0 -74.5 15.5t-56.5 41.5t-33.5 61.5 t-4.5 76.5zM103 159q72 27 143 53.5t142 53.5q-13 34 -41.5 55.5t-66.5 21.5q-37 0 -70 -15.5t-57.5 -41t-38 -59t-11.5 -68.5zM182 479q36 45 72.5 90.5t72.5 90.5q24 -45 47.5 -90.5t47.5 -90.5h-33q-18 30 -35.5 60.5t-34.5 60.5q-26 -30 -52 -60.5t-52 -60.5h-33z" />
<glyph unicode="&#xeb;" horiz-adv-x="441" d="M62 188q6 40 26 76t50.5 62t68.5 41.5t79 15.5q30 0 55.5 -10.5t45 -29t33 -44t18.5 -56.5q-82 -31 -164 -61.5t-164 -61.5q12 -38 45.5 -62t80.5 -24q31 0 59.5 11t51.5 31q6 -8 11.5 -15.5t10.5 -15.5q-29 -24 -64 -38t-74 -14q-41 0 -74.5 15.5t-56.5 41.5t-33.5 61.5 t-4.5 76.5zM103 159q72 27 143 53.5t142 53.5q-13 34 -41.5 55.5t-66.5 21.5q-37 0 -70 -15.5t-57.5 -41t-38 -59t-11.5 -68.5zM144 508q2 14 13 23.5t24 9.5t21.5 -9.5t6.5 -23.5t-13 -23.5t-23 -9.5q-13 0 -22 9.5t-7 23.5zM309 508q2 14 13.5 23.5t24.5 9.5 q12 0 20.5 -9.5t6.5 -23.5t-12.5 -23.5t-23.5 -9.5t-22 9.5t-7 23.5z" />
<glyph unicode="&#xec;" horiz-adv-x="263" d="M35 0l5 40h77l42 295h-78l6 40h119l-47 -335h74l-5 -40h-193zM102 612h42q17 -33 32 -66.5t31 -66.5h-33q-19 33 -36.5 66.5t-35.5 66.5z" />
<glyph unicode="&#xed;" horiz-adv-x="263" d="M35 0l5 40h77l42 295h-78l6 40h119l-47 -335h74l-5 -40h-193zM187 479q27 33 54 66.5t54 66.5h43q-29 -33 -59 -66.5t-59 -66.5h-33z" />
<glyph unicode="&#xee;" horiz-adv-x="263" d="M35 0l5 40h77l42 295h-78l6 40h119l-47 -335h74l-5 -40h-193zM68 479q36 45 72.5 90.5t72.5 90.5q24 -45 47.5 -90.5t47.5 -90.5h-33q-18 30 -35.5 60.5t-34.5 60.5q-26 -30 -52 -60.5t-52 -60.5h-33z" />
<glyph unicode="&#xef;" horiz-adv-x="263" d="M35 0l5 40h77l42 295h-78l6 40h119l-47 -335h74l-5 -40h-193zM80 508q2 14 13 23.5t24 9.5t21.5 -9.5t6.5 -23.5t-13 -23.5t-23 -9.5q-13 0 -22 9.5t-7 23.5zM245 508q2 14 13.5 23.5t24.5 9.5q12 0 20.5 -9.5t6.5 -23.5t-12.5 -23.5t-23.5 -9.5t-22 9.5t-7 23.5z" />
<glyph unicode="&#xf0;" horiz-adv-x="464" d="M62 187q5 40 25 76t50 62.5t68 42.5t79 16q37 1 67 -14.5t49 -41.5q-7 50 -30.5 116.5t-72.5 138.5q-18 -17 -36.5 -34t-36.5 -34q-6 7 -12 13l-13 13q20 18 39.5 36.5t39.5 36.5q-39 50 -81 89l16 14l16 14q42 -36 82 -87q17 17 34.5 33t34.5 33l12 -12t13 -12 q-20 -18 -38 -35.5t-37 -35.5q31 -45 57 -97.5t44 -107.5t25 -110.5t0 -107.5q-5 -41 -25 -76.5t-50 -62.5t-68 -42.5t-79 -16.5q-41 0 -75 14.5t-57 41t-34 61.5t-6 76zM104 188q-5 -32 3 -60t26 -49t45 -32.5t60 -11.5t63 12.5t54 33.5t39.5 49t20.5 60q4 33 -4.5 61 t-26.5 49t-45 32.5t-60 11.5t-63 -12.5t-53.5 -33.5t-39 -49.5t-19.5 -60.5z" />
<glyph unicode="&#xf1;" horiz-adv-x="545" d="M35 0l5 40h78l41 295h-71l5 40h106l-4 -35q-2 -17 -2.5 -31t-2.5 -31q27 47 75 76t104 29q55 0 83 -31t22 -81l-32 -231h73l-5 -40h-193l5 40h78l31 220q3 32 -15 56t-60 26q-31 0 -60 -10.5t-53 -28.5t-40.5 -43t-20.5 -55l-23 -165h74l-5 -40h-193zM195 462q3 19 13 33 t23.5 23.5t29 14t29.5 4.5q21 0 37.5 -9.5t30.5 -26.5q13 -17 24 -22.5t25 -5.5q7 0 17 2t20 7.5t18.5 15.5t12.5 26q6 -1 12.5 -1t12.5 -1q-8 -38 -37 -56.5t-58 -18.5q-21 0 -37.5 9.5t-30.5 26.5t-24.5 22.5t-24.5 5.5q-8 0 -18 -2t-19.5 -7.5t-18.5 -15.5t-13 -26 q-6 1 -12.5 1t-11.5 1z" />
<glyph unicode="&#xf2;" horiz-adv-x="465" d="M63 188q6 40 26 76t50 62.5t68 42t79 15.5t75 -15.5t57.5 -42t34 -62.5t4.5 -76q-6 -41 -26 -76.5t-50.5 -61.5t-69 -41.5t-79.5 -15.5t-74.5 15.5t-56.5 41.5t-33.5 61.5t-4.5 76.5zM104 188q-5 -32 3.5 -60t26.5 -49t44 -33t58 -12t62 12t54 33t40 49t21 60q4 32 -4 60 t-26 49t-44.5 33.5t-58.5 12.5t-62 -12.5t-54 -33.5t-40 -49t-20 -60zM201 612h42q17 -33 32 -66.5t31 -66.5h-33q-19 33 -36.5 66.5t-35.5 66.5z" />
<glyph unicode="&#xf3;" horiz-adv-x="465" d="M63 188q6 40 26 76t50 62.5t68 42t79 15.5t75 -15.5t57.5 -42t34 -62.5t4.5 -76q-6 -41 -26 -76.5t-50.5 -61.5t-69 -41.5t-79.5 -15.5t-74.5 15.5t-56.5 41.5t-33.5 61.5t-4.5 76.5zM104 188q-5 -32 3.5 -60t26.5 -49t44 -33t58 -12t62 12t54 33t40 49t21 60q4 32 -4 60 t-26 49t-44.5 33.5t-58.5 12.5t-62 -12.5t-54 -33.5t-40 -49t-20 -60zM300 479q27 33 54 66.5t54 66.5h43q-29 -33 -59 -66.5t-59 -66.5h-33z" />
<glyph unicode="&#xf4;" horiz-adv-x="465" d="M63 188q6 40 26 76t50 62.5t68 42t79 15.5t75 -15.5t57.5 -42t34 -62.5t4.5 -76q-6 -41 -26 -76.5t-50.5 -61.5t-69 -41.5t-79.5 -15.5t-74.5 15.5t-56.5 41.5t-33.5 61.5t-4.5 76.5zM104 188q-5 -32 3.5 -60t26.5 -49t44 -33t58 -12t62 12t54 33t40 49t21 60q4 32 -4 60 t-26 49t-44.5 33.5t-58.5 12.5t-62 -12.5t-54 -33.5t-40 -49t-20 -60zM186 479q36 45 72.5 90.5t72.5 90.5q24 -45 47.5 -90.5t47.5 -90.5h-33q-18 30 -35.5 60.5t-34.5 60.5q-26 -30 -52 -60.5t-52 -60.5h-33z" />
<glyph unicode="&#xf5;" horiz-adv-x="465" d="M63 188q6 40 26 76t50 62.5t68 42t79 15.5t75 -15.5t57.5 -42t34 -62.5t4.5 -76q-6 -41 -26 -76.5t-50.5 -61.5t-69 -41.5t-79.5 -15.5t-74.5 15.5t-56.5 41.5t-33.5 61.5t-4.5 76.5zM104 188q-5 -32 3.5 -60t26.5 -49t44 -33t58 -12t62 12t54 33t40 49t21 60q4 32 -4 60 t-26 49t-44.5 33.5t-58.5 12.5t-62 -12.5t-54 -33.5t-40 -49t-20 -60zM148 470q3 19 13 33t23.5 23.5t29 14t29.5 4.5q21 0 37.5 -9.5t30.5 -26.5q13 -17 24 -22.5t25 -5.5q7 0 17 2t20 7.5t18.5 15.5t12.5 26q6 -1 12.5 -1t12.5 -1q-8 -38 -37 -56.5t-58 -18.5 q-21 0 -37.5 9.5t-30.5 26.5t-24.5 22.5t-24.5 5.5q-8 0 -18 -2t-19.5 -7.5t-18.5 -15.5t-13 -26q-6 1 -12.5 1t-11.5 1z" />
<glyph unicode="&#xf6;" horiz-adv-x="465" d="M63 188q6 40 26 76t50 62.5t68 42t79 15.5t75 -15.5t57.5 -42t34 -62.5t4.5 -76q-6 -41 -26 -76.5t-50.5 -61.5t-69 -41.5t-79.5 -15.5t-74.5 15.5t-56.5 41.5t-33.5 61.5t-4.5 76.5zM104 188q-5 -32 3.5 -60t26.5 -49t44 -33t58 -12t62 12t54 33t40 49t21 60q4 32 -4 60 t-26 49t-44.5 33.5t-58.5 12.5t-62 -12.5t-54 -33.5t-40 -49t-20 -60zM184 508q2 14 13 23.5t24 9.5t21.5 -9.5t6.5 -23.5t-13 -23.5t-23 -9.5q-13 0 -22 9.5t-7 23.5zM349 508q2 14 13.5 23.5t24.5 9.5q12 0 20.5 -9.5t6.5 -23.5t-12.5 -23.5t-23.5 -9.5t-22 9.5t-7 23.5z " />
<glyph unicode="&#xf7;" horiz-adv-x="501" d="M68 208l5 41h360l-5 -41h-360zM200 104q2 14 13.5 23.5t24.5 9.5q12 0 20.5 -9.5t6.5 -23.5t-13 -23.5t-24 -9.5t-21.5 9.5t-6.5 23.5zM235 354q2 14 13.5 23.5t24.5 9.5q12 0 20.5 -9.5t6.5 -23.5t-13 -23.5t-24 -9.5t-21.5 9.5t-6.5 23.5z" />
<glyph unicode="&#xf8;" horiz-adv-x="463" d="M51 5q11 12 23 24l24 24q-22 26 -31 60.5t-4 74.5q6 40 26 76t50.5 62t68.5 41.5t79 15.5q30 0 56.5 -8.5t47.5 -23.5q10 10 20 19.5t19 19.5l21 -21q-9 -9 -19 -18.5t-19 -19.5q26 -26 38 -63.5t6 -79.5q-6 -41 -26 -76.5t-50.5 -61.5t-69 -41.5t-79.5 -15.5 q-34 0 -62.5 10.5t-51.5 29.5q-11 -12 -23 -24t-23 -24q-5 5 -10.5 10t-10.5 10zM105 188q-5 -30 2 -56.5t23 -46.5q57 59 114.5 117t115.5 117q-35 24 -79 24q-33 0 -63 -12t-53.5 -33t-39.5 -49.5t-20 -60.5zM150 64q35 -30 88 -30q33 0 63 12t54 33t39.5 49t20.5 60 q5 33 -4 62t-29 50q-58 -60 -116 -118.5t-116 -117.5z" />
<glyph unicode="&#xf9;" horiz-adv-x="539" d="M82 335l6 40h115l-36 -260q-2 -32 16 -56t59 -26q31 0 60 10.5t53 28.5t40 43t21 55l23 165h-74l5 40h116l-48 -339h71l-5 -36h-108l4 35l8 62q-27 -48 -75 -76.5t-103 -28.5t-83 31t-23 81l32 231h-74zM213 612h42q17 -33 32 -66.5t31 -66.5h-33q-19 33 -36.5 66.5 t-35.5 66.5z" />
<glyph unicode="&#xfa;" horiz-adv-x="539" d="M82 335l6 40h115l-36 -260q-2 -32 16 -56t59 -26q31 0 60 10.5t53 28.5t40 43t21 55l23 165h-74l5 40h116l-48 -339h71l-5 -36h-108l4 35l8 62q-27 -48 -75 -76.5t-103 -28.5t-83 31t-23 81l32 231h-74zM309 479q27 33 54 66.5t54 66.5h43q-29 -33 -59 -66.5t-59 -66.5 h-33z" />
<glyph unicode="&#xfb;" horiz-adv-x="539" d="M82 335l6 40h115l-36 -260q-2 -32 16 -56t59 -26q31 0 60 10.5t53 28.5t40 43t21 55l23 165h-74l5 40h116l-48 -339h71l-5 -36h-108l4 35l8 62q-27 -48 -75 -76.5t-103 -28.5t-83 31t-23 81l32 231h-74zM207 479q36 45 72.5 90.5t72.5 90.5q24 -45 47.5 -90.5t47.5 -90.5 h-33q-18 30 -35.5 60.5t-34.5 60.5q-26 -30 -52 -60.5t-52 -60.5h-33z" />
<glyph unicode="&#xfc;" horiz-adv-x="539" d="M82 335l6 40h115l-36 -260q-2 -32 16 -56t59 -26q31 0 60 10.5t53 28.5t40 43t21 55l23 165h-74l5 40h116l-48 -339h71l-5 -36h-108l4 35l8 62q-27 -48 -75 -76.5t-103 -28.5t-83 31t-23 81l32 231h-74zM222 508q2 14 13 23.5t24 9.5t21.5 -9.5t6.5 -23.5t-13 -23.5 t-23 -9.5q-13 0 -22 9.5t-7 23.5zM387 508q2 14 13.5 23.5t24.5 9.5q12 0 20.5 -9.5t6.5 -23.5t-12.5 -23.5t-23.5 -9.5t-22 9.5t-7 23.5z" />
<glyph unicode="&#xfd;" horiz-adv-x="601" d="M92 -250l5 40h85q32 52 66 104.5t67 103.5q-31 85 -61.5 168.5t-60.5 168.5h-77l6 40h185l-5 -40h-64q27 -75 54.5 -148.5t50.5 -148.5q42 72 90.5 147t96.5 150h-58l6 40h175l-6 -40h-72q-88 -137 -174.5 -272.5t-174.5 -272.5h64l-5 -40h-193zM391 479q27 33 54 66.5 t54 66.5h43q-29 -33 -59 -66.5t-59 -66.5h-33z" />
<glyph unicode="&#xfe;" horiz-adv-x="503" d="M-54 -250l6 40h76l129 920h-77l6 40h193l-5 -40h-75l-53 -373q-2 -13 -5.5 -26t-6.5 -25q10 18 27.5 35t40.5 30.5t50 21.5t56 8q41 0 75 -15.5t56.5 -41.5t33 -61.5t5.5 -75.5q-6 -40 -26.5 -75.5t-51 -62t-68.5 -42t-79 -15.5q-30 0 -54.5 8t-43 20.5t-31 29 t-16.5 34.5q-1 -10 -1.5 -20t-0.5 -20l-36 -254h82l-6 -40h-200zM126 187q-5 -32 3 -60.5t26 -49.5t44.5 -33t59.5 -12t63 12t54 33t39.5 49.5t20.5 60.5q4 33 -4 61t-26 48.5t-44.5 32.5t-59.5 12t-62.5 -12t-53.5 -32.5t-40 -48.5t-20 -61z" />
<glyph unicode="&#xff;" horiz-adv-x="601" d="M92 -250l5 40h85q32 52 66 104.5t67 103.5q-31 85 -61.5 168.5t-60.5 168.5h-77l6 40h185l-5 -40h-64q27 -75 54.5 -148.5t50.5 -148.5q42 72 90.5 147t96.5 150h-58l6 40h175l-6 -40h-72q-88 -137 -174.5 -272.5t-174.5 -272.5h64l-5 -40h-193zM292 508q2 14 13 23.5 t24 9.5t21.5 -9.5t6.5 -23.5t-13 -23.5t-23 -9.5q-13 0 -22 9.5t-7 23.5zM457 508q2 14 13.5 23.5t24.5 9.5q12 0 20.5 -9.5t6.5 -23.5t-12.5 -23.5t-23.5 -9.5t-22 9.5t-7 23.5z" />
<glyph unicode="&#x2000;" horiz-adv-x="465" />
<glyph unicode="&#x2001;" horiz-adv-x="931" />
<glyph unicode="&#x2002;" horiz-adv-x="465" />
<glyph unicode="&#x2003;" horiz-adv-x="931" />
<glyph unicode="&#x2004;" horiz-adv-x="310" />
<glyph unicode="&#x2005;" horiz-adv-x="232" />
<glyph unicode="&#x2006;" horiz-adv-x="155" />
<glyph unicode="&#x2007;" horiz-adv-x="155" />
<glyph unicode="&#x2008;" horiz-adv-x="116" />
<glyph unicode="&#x2009;" horiz-adv-x="186" />
<glyph unicode="&#x200a;" horiz-adv-x="51" />
<glyph unicode="&#x2010;" horiz-adv-x="300" d="M50 169l5 41h184l-5 -41h-184z" />
<glyph unicode="&#x2011;" horiz-adv-x="300" d="M50 169l5 41h184l-5 -41h-184z" />
<glyph unicode="&#x2012;" horiz-adv-x="300" d="M50 169l5 41h184l-5 -41h-184z" />
<glyph unicode="&#x2013;" horiz-adv-x="509" d="M100 177l5 41h301l-5 -41h-301z" />
<glyph unicode="&#x2014;" horiz-adv-x="700" d="M99 177l5 41h502l-5 -41h-502z" />
<glyph unicode="&#x2018;" horiz-adv-x="164" d="M49 633q-7 37 7 78q8 -2 15.5 -3.5t15.5 -3.5q-11 -35 -6 -64.5t23 -49.5q-6 -5 -11.5 -10t-10.5 -10q-26 26 -33 63z" />
<glyph unicode="&#x2019;" horiz-adv-x="164" d="M52 590q24 20 37.5 49.5t11.5 64.5q8 2 16.5 3.5t16.5 3.5q3 -41 -15 -78t-50 -63q-5 5 -8.5 10t-8.5 10z" />
<glyph unicode="&#x201a;" horiz-adv-x="146" d="M22 -29q24 20 37.5 49.5t11.5 64.5q8 2 16.5 3.5t16.5 3.5q3 -41 -14.5 -78t-49.5 -63q-5 5 -9 10t-9 10z" />
<glyph unicode="&#x201c;" horiz-adv-x="249" d="M43 633q-7 37 7 78q8 -2 16 -3.5t16 -3.5q-12 -35 -6.5 -64.5t23.5 -49.5l-12 -10t-11 -10q-26 26 -33 63zM147 633q-7 37 7 78q8 -2 16 -3.5t16 -3.5q-12 -35 -6.5 -64.5t23.5 -49.5l-12 -10t-11 -10q-26 26 -33 63z" />
<glyph unicode="&#x201d;" horiz-adv-x="248" d="M33 590q24 20 37.5 49.5t11.5 64.5q8 2 16.5 3.5t16.5 3.5q3 -41 -14.5 -78t-49.5 -63q-5 5 -9 10t-9 10zM137 590q24 20 37.5 49.5t11.5 64.5q8 2 16.5 3.5t16.5 3.5q3 -41 -14.5 -78t-49.5 -63q-5 5 -9 10t-9 10z" />
<glyph unicode="&#x201e;" horiz-adv-x="277" d="M22 -29q24 20 37.5 49.5t11.5 64.5q8 2 16.5 3.5t16.5 3.5q3 -41 -14.5 -78t-49.5 -63q-5 5 -9 10t-9 10zM126 -29q24 20 37.5 49.5t11.5 64.5q8 2 16.5 3.5t16.5 3.5q3 -41 -14.5 -78t-49.5 -63q-5 5 -9 10t-9 10z" />
<glyph unicode="&#x2022;" horiz-adv-x="479" d="M162 300q3 19 12 35.5t23 29t31 19.5t36 7q38 0 60.5 -26.5t17.5 -64.5q-3 -19 -12 -35t-23 -28t-31.5 -19t-36.5 -7q-38 0 -60 25.5t-17 63.5z" />
<glyph unicode="&#x202f;" horiz-adv-x="186" />
<glyph unicode="&#x2039;" horiz-adv-x="392" d="M139 239q49 41 97 80.5t97 80.5l-6 -48q-32 -29 -64 -56.5t-64 -56.5q23 -29 47.5 -57t47.5 -57l-6 -48z" />
<glyph unicode="&#x203a;" horiz-adv-x="392" d="M117 77l6 48q32 29 63.5 57t63.5 57q-23 29 -47 56.5t-47 56.5l6 48q37 -41 74 -80.5t74 -80.5z" />
<glyph unicode="&#x205f;" horiz-adv-x="232" />
<glyph unicode="&#xe000;" horiz-adv-x="375" d="M0 0v375h375v-375h-375z" />
</font>
</defs>
</svg>
