<?xml version="1.0" standalone="no"?>
<!DOCTYPE svg PUBLIC "-//W3C//DTD SVG 1.1//EN" "http://www.w3.org/Graphics/SVG/1.1/DTD/svg11.dtd" >
<svg xmlns="http://www.w3.org/2000/svg">
<metadata></metadata>
<defs>
<font id="rawengulklight" horiz-adv-x="553" >
<font-face units-per-em="1000" ascent="786" descent="-214" />
<missing-glyph horiz-adv-x="357" />
<glyph unicode="&#xfb01;" horiz-adv-x="482" d="M36 446v18h71v81q0 59 42 101t101 42q36 0 71 -20v-25h-17v15q-24 12 -54 12q-52 0 -88.5 -36.5t-36.5 -88.5v-81h161v-18h-161v-446h-18v446h-71zM375 446v18h35v-464h-18v446h-17zM379 612q0 9 6.5 15.5t15.5 6.5t16 -6.5t7 -15.5t-7 -16t-16 -7t-15.5 7t-6.5 16z" />
<glyph unicode="&#xfb02;" horiz-adv-x="482" d="M36 446v18h71v81q0 59 42 101t101 42q36 0 71 -20v-25h-17v15q-24 12 -54 12q-52 0 -88.5 -36.5t-36.5 -88.5v-81h161v-18h-161v-446h-18v446h-71zM375 661v18h35v-679h-18v661h-17z" />
<glyph unicode="&#xfb03;" horiz-adv-x="767" d="M36 446v18h71v81q0 59 42 101t101 42q36 0 71 -20v-25h-17v15q-24 12 -54 12q-52 0 -88.5 -36.5t-36.5 -88.5v-81h125v-18h-125v-446h-18v446h-71zM322 446v18h71v81q0 59 42 101t101 42q36 0 71 -20v-25h-17v15q-24 12 -54 12q-52 0 -88.5 -36.5t-36.5 -88.5v-81h161 v-18h-161v-446h-18v446h-71zM661 446v18h35v-464h-18v446h-17zM665 612q0 9 6.5 15.5t15.5 6.5t16 -6.5t7 -15.5t-7 -16t-16 -7t-15.5 7t-6.5 16z" />
<glyph unicode="&#xfb04;" horiz-adv-x="750" d="M36 446v18h71v81q0 59 42 101t101 42q36 0 71 -20v-25h-17v15q-24 12 -54 12q-52 0 -88.5 -36.5t-36.5 -88.5v-81h125v-18h-125v-446h-18v446h-71zM322 446v18h71v81q0 59 42 101t101 42q36 0 71 -20v-25h-17v15q-24 12 -54 12q-52 0 -88.5 -36.5t-36.5 -88.5v-81h161 v-18h-161v-446h-18v446h-71zM661 661v18h35v-679h-18v661h-17z" />
<glyph horiz-adv-x="1000" />
<glyph horiz-adv-x="1000" />
<glyph unicode="&#xd;" horiz-adv-x="324" />
<glyph unicode=" "  horiz-adv-x="357" />
<glyph unicode="&#x09;" horiz-adv-x="357" />
<glyph unicode="&#xa0;" horiz-adv-x="357" />
<glyph unicode="!" horiz-adv-x="160" d="M58 13q0 9 6.5 16t15.5 7t16 -7t7 -16t-7 -15.5t-16 -6.5t-15.5 6.5t-6.5 15.5zM71 179v500h36v-18h-18v-482h-18z" />
<glyph unicode="&#x22;" horiz-adv-x="232" d="M54 537l8 26q9 35 9 82q0 28 -2 34l17 5q3 -12 3 -39q0 -49 -10 -86l-8 -28zM143 537l8 26q10 38 10 82q0 25 -3 34l17 5q4 -16 4 -39q0 -45 -11 -86l-8 -28z" />
<glyph unicode="#" horiz-adv-x="375" d="M21 232v18h80l14 161h-79v18h80l10 108l18 -2l-9 -106h124l10 108l18 -2l-9 -106h79v-18h-81l-14 -161h80v-18h-82l-11 -126l-18 2l11 124h-125l-11 -126l-18 2l11 124h-78zM119 250h125l14 161h-125z" />
<glyph unicode="$" horiz-adv-x="589" d="M36 110v24h18v-17q34 -33 101 -64.5t131 -34.5v320q-40 12 -65.5 20.5t-57 23.5t-49.5 30.5t-30.5 39.5t-12.5 53q0 53 63.5 94t151.5 44v53h18v-53q58 -2 116 -24t98 -62v-30h-18v23q-74 71 -196 75v-273q42 -12 61.5 -18.5t55.5 -19.5t54.5 -26t39.5 -32t30 -43t9 -54 q0 -68 -66 -112.5t-184 -46.5v-54h-18v54q-70 3 -141.5 37.5t-106.5 69.5zM89 505q0 -31 15 -55t46.5 -41.5t60 -28t75.5 -23.5v268q-81 -3 -139 -39t-58 -81zM304 18q112 2 172 42.5t60 98.5q0 31 -14.5 56.5t-32.5 41.5t-54.5 31.5t-61 23.5t-69.5 21v-315z" />
<glyph unicode="%" horiz-adv-x="625" d="M36 536q0 47 30.5 81.5t85.5 34.5t85.5 -34.5t30.5 -81.5q0 -48 -30.5 -82t-85.5 -34t-85.5 34t-30.5 82zM54 536q0 -40 25.5 -69t72.5 -29t72.5 29t25.5 69t-25 69t-73 29t-73 -29t-25 -69zM56 41l500 571l14 -11l-500 -572zM357 107q0 47 30.5 81.5t85.5 34.5 t85.5 -34.5t30.5 -81.5q0 -48 -30.5 -82t-85.5 -34t-85.5 34t-30.5 82zM375 107q0 -40 25.5 -69t72.5 -29t72.5 29t25.5 69t-25 69t-73 29t-73 -29t-25 -69z" />
<glyph unicode="&#x26;" horiz-adv-x="660" d="M36 179q0 54 36.5 104.5t101.5 80.5q-31 49 -31 98v2q0 71 49.5 120.5t119.5 49.5q69 0 119.5 -46.5t50.5 -105.5v-9h-44v18h26q-4 48 -48.5 86.5t-103.5 38.5q-63 0 -107 -44.5t-44 -107.5v-2q0 -44 26 -84.5t107 -127.5l175 -188q102 69 102 192q0 11 -3.5 26t-11.5 35 t-27.5 34.5t-46.5 16.5v-27h-18v45h9q35 0 60.5 -16.5t36 -40.5t15 -42t4.5 -31q0 -130 -108 -205q33 -31 59 -31h85v-18h-85q-36 0 -74 38q-78 -47 -169 -47q-127 0 -194 57t-67 131zM54 179q0 -66 61.5 -118t181.5 -52q86 0 157 43l-174 186q-60 63 -95 111 q-62 -28 -96.5 -74t-34.5 -96z" />
<glyph unicode="'" horiz-adv-x="142" d="M54 537l8 26q9 35 9 82q0 28 -2 34l17 5q3 -12 3 -39q0 -49 -10 -86l-8 -28z" />
<glyph unicode="(" horiz-adv-x="232" d="M36 258v1q0 156 43 295.5t122 187.5l9 -15q-72 -43 -114 -177.5t-42 -290.5v-1q0 -154 41.5 -279.5t114.5 -169.5l-9 -15q-79 48 -122 179t-43 285z" />
<glyph unicode=")" horiz-adv-x="232" d="M22 -191q73 44 115 169.5t42 279.5v1q0 156 -42.5 290.5t-114.5 177.5l9 15q79 -48 122 -187.5t43 -295.5v-1q0 -154 -43 -285t-122 -179z" />
<glyph unicode="*" horiz-adv-x="321" d="M47 549l7 16l98 -35v104h18v-104l98 35l6 -16l-99 -36l62 -84l-15 -11l-61 85l-62 -85l-14 11l61 84z" />
<glyph unicode="+" horiz-adv-x="446" d="M36 321v18h178v179h18v-179h179v-18h-179v-178h-18v178h-178z" />
<glyph unicode="," horiz-adv-x="151" d="M38 -77q33 38 33 68q-9 0 -15.5 6.5t-6.5 15.5t6.5 16t15.5 7t16 -7t7 -16v-3q-5 -48 -47 -95z" />
<glyph unicode="-" horiz-adv-x="321" d="M36 268v18h250v-18h-250z" />
<glyph unicode="." horiz-adv-x="147" d="M45 13q0 9 6.5 16t15.5 7t15.5 -7t6.5 -16t-6.5 -15.5t-15.5 -6.5t-15.5 6.5t-6.5 15.5z" />
<glyph unicode="/" horiz-adv-x="535" d="M25 -42l470 734l15 -10l-470 -734z" />
<glyph unicode="0" d="M36 330q0 149 72 235.5t169 86.5q98 0 169.5 -87.5t71.5 -234.5q0 -157 -72 -248t-169 -91q-98 0 -169.5 92.5t-71.5 246.5zM54 330q0 -149 66.5 -235t156.5 -86q88 0 155.5 85.5t67.5 235.5q0 142 -66.5 223t-156.5 81q-89 0 -156 -80.5t-67 -223.5z" />
<glyph unicode="1" horiz-adv-x="196" d="M29 560l75 83h21v-643h-18v621l-65 -74z" />
<glyph unicode="2" horiz-adv-x="446" d="M36 0v20l224 226q71 73 102 123t31 95q0 70 -49.5 120t-120.5 50q-70 0 -119.5 -49.5t-49.5 -120.5h-18q0 78 55 133t132 55q78 0 133 -55.5t55 -132.5q0 -51 -32.5 -103t-105.5 -127l-214 -216h334v18h18v-36h-375z" />
<glyph unicode="3" horiz-adv-x="446" d="M36 179h18q0 -71 49.5 -120.5t119.5 -49.5q71 0 120.5 50t49.5 120q0 71 -50 120t-120 49v18q55 0 94.5 39t39.5 95q0 55 -39 94.5t-95 39.5q-55 0 -94.5 -39t-39.5 -95h-18q0 64 45 108t107 44q64 0 108 -45t44 -107q0 -48 -27.5 -87t-70.5 -55q58 -18 96 -66.5 t38 -112.5q0 -77 -55 -132.5t-133 -55.5q-77 0 -132 55t-55 133z" />
<glyph unicode="4" horiz-adv-x="446" d="M36 125v21q81 121 126 204.5t65.5 153t20.5 139.5h18q0 -106 -46 -212t-166 -288h294v286h18v-286h45v-18h-45v-125h-18v125h-312z" />
<glyph unicode="5" horiz-adv-x="446" d="M36 95v21h18v-17q23 -40 69.5 -65t92.5 -25q68 0 122.5 54t54.5 160q0 102 -52.5 158.5t-117.5 56.5q-46 0 -99.5 -34t-69.5 -85l-18 2l21 322h327v-36h-18v18h-293l-17 -260q29 42 77.5 66t89.5 24q73 0 130.5 -62t57.5 -170q0 -113 -59.5 -172.5t-135.5 -59.5 q-51 0 -102 28t-77 73z" />
<glyph unicode="6" horiz-adv-x="446" d="M36 223q0 39 0.5 67.5t4.5 76t11 83t21 76t33 66t49 43t68 17.5q47 0 87.5 -20.5t64.5 -56.5v-21h-18v15q-50 65 -134 65q-148 0 -167 -304q26 60 76 92.5t100 32.5q71 0 125 -61t54 -171t-54 -171t-125 -61q-73 0 -134.5 62t-61.5 170zM54 223q0 -101 56.5 -157.5 t121.5 -56.5q63 0 112 55.5t49 158.5t-49 159t-112 56q-65 0 -121.5 -57t-56.5 -158z" />
<glyph unicode="7" horiz-adv-x="392" d="M18 607v36h357v-21l-81 -111q-133 -183 -133 -511h-18q0 334 136 521l76 104h-319v-18h-18z" />
<glyph unicode="8" horiz-adv-x="446" d="M36 179q0 63 37 112.5t96 66.5q-44 17 -71 56t-27 86q0 64 45 108t107 44q64 0 108 -45t44 -107q0 -48 -27.5 -87t-70.5 -55q58 -18 96 -66.5t38 -112.5q0 -77 -55 -132.5t-133 -55.5q-77 0 -132 55t-55 133zM54 179q0 -71 49.5 -120.5t119.5 -49.5q71 0 120.5 50 t49.5 120q0 71 -50 120t-120 49q-71 0 -120 -49.5t-49 -119.5zM89 500q0 -55 39 -94.5t95 -39.5q55 0 94.5 39t39.5 95q0 55 -39 94.5t-95 39.5q-55 0 -94.5 -39t-39.5 -95z" />
<glyph unicode="9" horiz-adv-x="446" d="M36 420q0 110 53.5 171t124.5 61q73 0 135 -62t62 -170q0 -38 -1 -67.5t-5 -76.5t-11 -82.5t-21 -75.5t-33 -66t-49 -43.5t-68 -17.5q-47 0 -87.5 20.5t-64.5 56.5v19h18v-13q50 -65 134 -65q148 0 167 303q-26 -60 -76 -92t-100 -32q-71 0 -124.5 61t-53.5 171zM54 420 q0 -103 48.5 -159t111.5 -56q65 0 122 57t57 158t-57 157.5t-122 56.5q-63 0 -111.5 -55.5t-48.5 -158.5z" />
<glyph unicode=":" horiz-adv-x="151" d="M49 13q0 9 6.5 16t15.5 7t16 -7t7 -16t-7 -15.5t-16 -6.5t-15.5 6.5t-6.5 15.5zM49 406q0 9 6.5 16t15.5 7t16 -7t7 -16t-7 -15.5t-16 -6.5t-15.5 6.5t-6.5 15.5z" />
<glyph unicode=";" horiz-adv-x="151" d="M38 -77q33 38 33 68q-9 0 -15.5 6.5t-6.5 15.5t6.5 16t15.5 7t16 -7t7 -16v-3q-5 -48 -47 -95zM49 406q0 9 6.5 16t15.5 7t16 -7t7 -16t-7 -15.5t-16 -6.5t-15.5 6.5t-6.5 15.5z" />
<glyph unicode="&#x3c;" horiz-adv-x="303" d="M36 305v33l243 165l10 -15l-235 -160v-13l235 -167l-10 -14z" />
<glyph unicode="=" horiz-adv-x="464" d="M36 214v18h393v-18h-393zM36 393v18h393v-18h-393z" />
<glyph unicode="&#x3e;" horiz-adv-x="303" d="M14 148l236 167v13l-236 160l10 15l244 -165v-33l-244 -171z" />
<glyph unicode="?" horiz-adv-x="410" d="M36 509q0 71 49.5 120.5t119.5 49.5q71 0 120.5 -49.5t49.5 -120.5q0 -38 -13.5 -67.5t-33 -47t-43 -34t-43 -28.5t-33 -31.5t-13.5 -43.5v-69h-17v69q0 32 18.5 56t44.5 40.5t52 34.5t44.5 48.5t18.5 72.5q0 63 -44.5 107.5t-107.5 44.5t-107 -44.5t-44 -107.5h-18z M165 13q0 9 7 16t16 7t15.5 -7t6.5 -16t-6.5 -15.5t-15.5 -6.5t-16 6.5t-7 15.5z" />
<glyph unicode="@" horiz-adv-x="785" d="M18 199q0 165 122 287.5t302 122.5q79 0 143 -26.5t103 -71t59.5 -97.5t20.5 -110q0 -66 -21.5 -120.5t-55 -87t-70.5 -50t-71 -17.5q-78 0 -82 64q-24 -33 -58.5 -51.5t-66.5 -18.5q-52 0 -93 41t-41 116q0 113 70 189.5t145 76.5h128l-63 -315q-3 -12 -3 -32 q0 -53 64 -53q30 0 63.5 16t64.5 46t51.5 81.5t20.5 114.5q0 53 -19 103t-56 92t-97.5 67t-135.5 25q-115 0 -209 -55.5t-145.5 -145t-51.5 -191.5q0 -126 81.5 -214.5t229.5 -88.5q105 0 199 47l8 -15q-97 -49 -207 -49q-156 0 -242.5 93t-86.5 227zM227 180q0 -67 36 -103 t80 -36q33 0 69 22.5t56 62.5l4 10l57 293h-105q-67 0 -132 -71t-65 -178z" />
<glyph unicode="A" horiz-adv-x="589" d="M13 0v18h13l259 670h20l266 -684l-17 -8l-70 183h-377l-69 -179h-25zM114 196h363l-182 468z" />
<glyph unicode="B" horiz-adv-x="589" d="M54 661v18h209q103 0 161 -43.5t58 -105.5q0 -44 -33 -85t-90 -62v-3q87 -11 141 -70t54 -127q0 -76 -57.5 -129.5t-161.5 -53.5h-264v661h-17zM89 18h246q97 0 149 48t52 117t-57 126t-153 57h-237v-348zM89 384h174q95 0 148 45.5t53 100.5q0 53 -52 92t-149 39h-174 v-277z" />
<glyph unicode="C" horiz-adv-x="625" d="M36 339q0 144 102 246.5t246 102.5q104 0 205 -67v-32h-18v23q-85 58 -187 58q-136 0 -233 -97t-97 -234t97 -233.5t233 -96.5q104 0 191 61l11 -15q-91 -64 -202 -64q-144 0 -246 102t-102 246z" />
<glyph unicode="D" horiz-adv-x="660" d="M54 661v18h241q136 0 233 -101.5t97 -238.5t-97 -238t-233 -101h-224v661h-17zM89 18h206q128 0 220 95.5t92 225.5t-92 226t-220 96h-206v-643z" />
<glyph unicode="E" d="M54 661v18h428v-36h-18v18h-375v-322h232v-18h-232v-303h411v18h18v-36h-447v661h-17z" />
<glyph unicode="F" d="M54 661v18h464v-45h-18v27h-411v-322h268v-18h-268v-321h-18v661h-17z" />
<glyph unicode="G" horiz-adv-x="660" d="M36 339q0 144 102 246.5t246 102.5q104 0 205 -67v-32h-18v23q-85 58 -187 58q-136 0 -233 -97t-97 -234t97 -233.5t233 -96.5q61 0 122 28t101 74v193h-143v17h161v-321h-18v88q-42 -44 -102.5 -70.5t-120.5 -26.5q-144 0 -246 102t-102 246z" />
<glyph unicode="H" horiz-adv-x="625" d="M71 0v679h18v-340h447v340h18v-679h-18v321h-447v-321h-18z" />
<glyph unicode="I" horiz-adv-x="160" d="M71 0v679h18v-679h-18z" />
<glyph unicode="J" horiz-adv-x="357" d="M18 54v17h18v-12q16 -24 47 -37t65 -13q57 0 97.5 36t40.5 98v518h-215v18h233v-536q0 -70 -46 -111t-110 -41q-38 0 -74 16t-54 45z" />
<glyph unicode="K" horiz-adv-x="589" d="M71 0v679h18v-455l387 455h42v-18h-34l-266 -314l251 -294q16 -20 34 -27.5t51 -7.5v-18q-38 0 -59 9.5t-40 32.5l-250 292l-116 -138v-196h-18z" />
<glyph unicode="L" d="M71 0v679h18v-661h411v18h18v-36h-447z" />
<glyph unicode="M" horiz-adv-x="892" d="M18 0v18h18l80 677h15l313 -686h5l313 686h15l89 -694l-17 -3l-86 659l-302 -666h-29l-303 665l-77 -656h-34z" />
<glyph unicode="N" horiz-adv-x="625" d="M54 661v18h44l438 -664v664h18v-697h-17l-448 678v-660h-18v661h-17z" />
<glyph unicode="O" horiz-adv-x="767" d="M36 339q0 144 102 246.5t246 102.5t246 -102.5t102 -246.5t-102 -246t-246 -102t-246 102t-102 246zM54 339q0 -137 97 -233.5t233 -96.5t233 96.5t97 233.5t-97 234t-233 97t-233 -97t-97 -234z" />
<glyph unicode="P" horiz-adv-x="589" d="M54 661v18h276q92 0 158 -66t66 -158t-66 -157.5t-158 -65.5h-241v-232h-18v661h-17zM89 250h241q85 0 145.5 60t60.5 145t-60.5 145.5t-145.5 60.5h-241v-411z" />
<glyph unicode="Q" horiz-adv-x="767" d="M36 339q0 144 102 246.5t246 102.5t246 -102.5t102 -246.5t-102 -246t-246 -102q-159 0 -226 -93l24 -27q35 38 97 38q47 0 151 -30t132 -30q24 0 40 17.5t16 35.5h18q0 -26 -21.5 -48.5t-52.5 -22.5q-32 0 -135 30t-148 30q-60 0 -90 -39l-6 -8l-48 52l4 7q54 78 160 99 q-115 29 -189 122.5t-74 214.5zM54 339q0 -137 97 -233.5t233 -96.5t233 96.5t97 233.5t-97 234t-233 97t-233 -97t-97 -234z" />
<glyph unicode="R" horiz-adv-x="589" d="M54 661v18h245q103 0 161 -56t58 -132t-57.5 -131.5t-161.5 -55.5h-8v-1q28 -17 63 -74l104 -172q15 -23 28 -31t35 -8h33v-18h-33q-25 0 -42.5 10t-34.5 37l-104 171q-25 40 -40.5 56t-40 23t-71.5 7h-99v-304h-18v661h-17zM89 321h210q95 0 148 50.5t53 119.5 t-53 119.5t-148 50.5h-210v-340z" />
<glyph unicode="S" horiz-adv-x="589" d="M36 95v30h18v-23q35 -34 103 -63.5t138 -29.5q114 0 177.5 41.5t63.5 101.5q0 30 -13.5 56.5t-32 44.5t-52.5 36.5t-61 30t-71 27.5q-122 45 -164 74q-71 48 -71 115q0 70 66 111t158 41q58 0 119 -21.5t102 -62.5l3 -2l-1 -31h-18v23q-38 37 -94.5 56.5t-110.5 19.5 q-86 0 -146 -37.5t-60 -96.5q0 -26 13 -48t29.5 -37t51 -33t58.5 -27.5t71 -27.5q40 -15 59 -22.5t53.5 -23.5t52.5 -30.5t38.5 -35t29.5 -45.5t9 -54q0 -69 -70 -115t-189 -46q-75 0 -148 32.5t-109 68.5z" />
<glyph unicode="T" horiz-adv-x="589" d="M36 643v36h518v-36h-18v18h-232v-661h-18v661h-232v-18h-18z" />
<glyph unicode="U" horiz-adv-x="625" d="M54 661v18h35v-447q0 -92 65.5 -157.5t157.5 -65.5t158 65.5t66 157.5v447h18v-447q0 -100 -71 -170.5t-171 -70.5t-170.5 70.5t-70.5 170.5v429h-17z" />
<glyph unicode="V" horiz-adv-x="589" d="M18 661v18h21l257 -665l258 668l17 -7l-265 -684h-19l-260 670h-9z" />
<glyph unicode="W" horiz-adv-x="937" d="M18 661v18h29l239 -665l178 498v95h18v-96l179 -497l242 667l17 -5l-249 -685h-20l-178 494l-177 -494h-20l-241 670h-17z" />
<glyph unicode="X" horiz-adv-x="589" d="M20 5l264 346l-237 310h-15v18h24l239 -313l243 318l14 -11l-246 -322l264 -346l-15 -10l-260 342l-261 -342z" />
<glyph unicode="Y" horiz-adv-x="589" d="M18 661v18h22l255 -413l256 417l15 -9l-262 -428v-246h-18v246l-257 415h-11z" />
<glyph unicode="Z" horiz-adv-x="571" d="M36 0v14l459 647h-424v-18h-17v36h464v-16l-458 -645h458v18h18v-36h-500z" />
<glyph unicode="[" horiz-adv-x="196" d="M71 -214v964h90v-18h-72v-928h72v-18h-90z" />
<glyph unicode="\" horiz-adv-x="535" d="M25 681l15 10l470 -734l-15 -10z" />
<glyph unicode="]" horiz-adv-x="214" d="M36 -196h89v928h-89v18h107v-964h-107v18z" />
<glyph unicode="^" horiz-adv-x="446" d="M23 432l198 247h12l190 -248l-14 -10l-183 237l-189 -237z" />
<glyph unicode="_" horiz-adv-x="678" d="M36 -170h607v-18h-607v18z" />
<glyph unicode="`" horiz-adv-x="214" d="M51 647l13 13l100 -100l-13 -13z" />
<glyph unicode="a" horiz-adv-x="517" d="M36 139q0 56 53.5 92.5t142.5 36.5h197v53q0 38 -15 65.5t-40.5 42t-52.5 20.5t-58 6q-80 0 -138 -30v-18h-18v29l5 2q63 35 151 35q78 0 130.5 -36.5t52.5 -115.5v-303h18v-18h-35v79q-32 -42 -90 -65t-116 -23q-80 0 -133.5 40t-53.5 108zM54 139q0 -60 47.5 -95 t121.5 -35q63 0 123.5 27.5t82.5 72.5v141h-197q-84 0 -131 -32.5t-47 -78.5z" />
<glyph unicode="b" d="M54 661v18h35v-351q24 66 79 105.5t127 39.5q98 0 160.5 -69.5t62.5 -171.5t-62.5 -171.5t-160.5 -69.5q-72 0 -127 39.5t-79 106.5v-137h-18v661h-17zM89 232q0 -94 57.5 -158.5t148.5 -64.5t148 64.5t57 158.5t-57 158.5t-148 64.5t-148.5 -64.5t-57.5 -158.5z" />
<glyph unicode="c" horiz-adv-x="482" d="M36 232q0 100 70.5 170.5t170.5 70.5t169 -69v-26h-17v18q-64 59 -152 59q-92 0 -157.5 -65.5t-65.5 -157.5t65.5 -157.5t157.5 -65.5q98 0 163 70l13 -11q-72 -77 -176 -77q-100 0 -170.5 70.5t-70.5 170.5z" />
<glyph unicode="d" d="M36 232q0 113 66 177t157 64q66 0 122.5 -36.5t82.5 -103.5v328h-18v18h36v-661h18v-18h-36v131q-26 -67 -82.5 -103.5t-122.5 -36.5q-91 0 -157 64t-66 177zM54 232q0 -105 61 -164t144 -59t144 59t61 164t-61 164t-144 59t-144 -59t-61 -164z" />
<glyph unicode="e" horiz-adv-x="517" d="M36 232q0 100 71 170.5t170 70.5q61 0 113.5 -28.5t86.5 -77.5l4 -7l-6 -5q-2 -1 -38 -32t-55.5 -45t-57 -30t-70.5 -16h-200q0 -92 65.5 -157.5t157.5 -65.5q98 0 163 70l13 -11q-72 -77 -176 -77q-100 0 -170.5 70.5t-70.5 170.5zM54 250h200q24 0 47 7t47.5 22.5 t38 25t40 32.5t30.5 26q-69 92 -180 92q-87 0 -151.5 -59.5t-71.5 -145.5z" />
<glyph unicode="f" horiz-adv-x="357" d="M36 446v18h71v81q0 59 42 101t101 42q39 0 73.5 -20.5t51.5 -53.5v-23h-18v18q-36 61 -107 61q-52 0 -88.5 -36.5t-36.5 -88.5v-81h161v-18h-161v-446h-18v446h-71z" />
<glyph unicode="g" horiz-adv-x="482" d="M18 -99q0 38 19.5 77.5t48.5 62.5q-30 14 -30 44q0 47 64 111q-49 46 -49 116q0 75 50.5 118t119.5 43q53 0 97 -27h126v-17h-102q49 -46 49 -117q0 -75 -50.5 -117.5t-119.5 -42.5q-62 0 -107 33q-60 -60 -60 -100q0 -26 33 -33l277 -67q41 -9 65 -39t24 -66 q0 -40 -32 -67t-94 -27h-183q-74 0 -110 32.5t-36 82.5zM36 -99q0 -38 28 -67.5t100 -29.5h183q54 0 81 22t27 54q0 29 -20.5 54t-55.5 34l-273 66q-29 -18 -49.5 -56.5t-20.5 -76.5zM89 312q0 -68 45 -105t107 -37t107 37.5t45 104.5q0 68 -45 105.5t-107 37.5t-107 -37.5 t-45 -105.5z" />
<glyph unicode="h" d="M54 661v18h35v-366q28 72 88.5 116t134.5 44q77 0 123.5 -40.5t46.5 -111.5v-303h18v-18h-36v321q0 64 -41 99t-111 35q-91 0 -157 -69.5t-66 -171.5v-214h-18v661h-17z" />
<glyph unicode="i" horiz-adv-x="160" d="M54 446v18h35v-464h-18v446h-17zM58 612q0 9 6.5 15.5t15.5 6.5t16 -6.5t7 -15.5t-7 -16t-16 -7t-15.5 7t-6.5 16z" />
<glyph unicode="j" horiz-adv-x="142" d="M-143 -134h18v-14q33 -48 89 -48q44 0 75.5 31.5t31.5 75.5v535h-17v18h35v-553q0 -52 -36.5 -88.5t-88.5 -36.5q-69 0 -105 58l-2 2v20zM58 612q0 9 7 15.5t16 6.5t15.5 -6.5t6.5 -15.5t-6.5 -16t-15.5 -7t-16 7t-7 16z" />
<glyph unicode="k" horiz-adv-x="517" d="M54 661v18h35v-538l307 323h50v-18h-42l-180 -190l182 -202q34 -36 76 -36v-18q-52 0 -89 41l-181 203l-123 -130v-114h-18v661h-17z" />
<glyph unicode="l" horiz-adv-x="160" d="M54 661v18h35v-679h-18v661h-17z" />
<glyph unicode="m" horiz-adv-x="875" d="M54 446v18h35v-146q25 71 80 113t126 42q75 0 113 -39.5t38 -112.5v-3q25 71 80 113t126 42q75 0 113.5 -39.5t38.5 -112.5v-303h17v-18h-35v321q0 134 -134 134q-90 0 -148 -68.5t-58 -172.5v-214h-17v321q0 134 -134 134q-90 0 -148 -68.5t-58 -172.5v-214h-18v446h-17 z" />
<glyph unicode="n" d="M54 446v18h35v-153q28 74 88.5 118t134.5 44q77 0 123.5 -40.5t46.5 -111.5v-303h18v-18h-36v321q0 64 -41 99t-111 35q-91 0 -157 -69.5t-66 -171.5v-214h-18v446h-17z" />
<glyph unicode="o" d="M36 232q0 100 70.5 170.5t170.5 70.5t170.5 -70.5t70.5 -170.5t-70.5 -170.5t-170.5 -70.5t-170.5 70.5t-70.5 170.5zM54 232q0 -92 65.5 -157.5t157.5 -65.5t157.5 65.5t65.5 157.5t-65.5 157.5t-157.5 65.5t-157.5 -65.5t-65.5 -157.5z" />
<glyph unicode="p" d="M54 446v18h35v-136q24 66 79 105.5t127 39.5q98 0 160.5 -69.5t62.5 -171.5t-62.5 -171.5t-160.5 -69.5q-72 0 -127 39.5t-79 106.5v-351h-18v660h-17zM89 232q0 -94 57.5 -158.5t148.5 -64.5t148 64.5t57 158.5t-57 158.5t-148 64.5t-148.5 -64.5t-57.5 -158.5z" />
<glyph unicode="q" d="M36 232q0 113 66 177t157 64q67 0 123 -36.5t82 -105.5v133h18v-660h18v-18h-36v347q-26 -69 -82 -105.5t-123 -36.5q-91 0 -157 64t-66 177zM54 232q0 -105 61 -164t144 -59t144 59t61 164t-61 164t-144 59t-144 -59t-61 -164z" />
<glyph unicode="r" horiz-adv-x="339" d="M54 446v18h35v-176q28 82 89 133.5t117 51.5h9v-35h-18v17q-67 -7 -132 -83.5t-65 -183.5v-188h-18v446h-17z" />
<glyph unicode="s" horiz-adv-x="446" d="M36 69v23h18v-18q53 -65 169 -65q81 0 125.5 29t44.5 69t-33 67.5t-80.5 43.5t-95 32.5t-80.5 45t-33 70.5q0 40 46 73.5t106 33.5q93 0 152 -59v-25h-18v18q-51 48 -134 48q-56 0 -95 -29t-39 -60q0 -22 10 -38.5t31.5 -30t40.5 -21.5t52 -20q100 -35 132 -56 q56 -36 56 -93q0 -49 -51 -82.5t-137 -33.5q-69 0 -117 22t-70 56z" />
<glyph unicode="t" horiz-adv-x="410" d="M36 446v18h71v107h18v-107h232v-18h-232v-312q0 -52 36.5 -88.5t88.5 -36.5q34 0 62 16.5t45 44.5v19h18v-25q-17 -33 -51.5 -53t-73.5 -20q-59 0 -101 42t-42 101v312h-71z" />
<glyph unicode="u" d="M54 446v18h35v-321q0 -64 41 -99t111 -35q91 0 157 69.5t66 171.5v214h18v-446h18v-18h-36v154q-28 -71 -89 -117t-134 -46q-77 0 -123.5 40.5t-46.5 111.5v303h-17z" />
<glyph unicode="v" horiz-adv-x="517" d="M18 446v18h28l222 -454l214 437v17h18v-20l-221 -453h-22l-222 455h-17z" />
<glyph unicode="w" horiz-adv-x="785" d="M18 446v18h29l194 -452l152 355v79h18v-79l151 -355l188 436v16h18v-20l-195 -453h-21l-150 351l-150 -351h-22l-195 455h-17z" />
<glyph unicode="x" horiz-adv-x="500" d="M29 6l209 236l-181 204h-13v18h21l185 -209l190 216l13 -13l-191 -216l209 -236l-13 -12l-208 235l-208 -235z" />
<glyph unicode="y" horiz-adv-x="535" d="M27 -129h18v-17q34 -50 82 -50q56 0 93 80l38 79l-214 483h-17v18h27l214 -479l233 483l17 -7l-282 -584q-44 -91 -109 -91q-58 0 -100 63v22z" />
<glyph unicode="z" horiz-adv-x="500" d="M36 0v15l385 431h-350v-17h-17v35h392v-15l-384 -431h384v18h18v-36h-428z" />
<glyph unicode="{" horiz-adv-x="196" d="M0 250v36h9q21 0 41.5 18.5t20.5 61.5v268q0 68 30 92t78 24v-18q-42 0 -66 -20t-24 -78v-268q0 -47 -22 -70t-49 -27v-2q27 -4 49 -27t22 -70v-268q0 -58 24 -78t66 -20v-18q-48 0 -78 24t-30 92v268q0 43 -20.5 61.5t-41.5 18.5h-9z" />
<glyph unicode="|" horiz-adv-x="160" d="M71 -179v822h18v-822h-18z" />
<glyph unicode="}" horiz-adv-x="196" d="M18 -196q41 0 65 20t24 78v268q0 47 22.5 70t49.5 27v2q-27 4 -49.5 27t-22.5 70v268q0 58 -24 78t-65 20v18q48 0 77.5 -24t29.5 -92v-268q0 -43 21 -61.5t42 -18.5h8v-36h-8q-21 0 -42 -18.5t-21 -61.5v-268q0 -68 -29.5 -92t-77.5 -24v18z" />
<glyph unicode="~" horiz-adv-x="357" d="M41 329q13 48 61 48q17 0 39 -10l84 -39q16 -8 31 -8q31 0 41 34l19 -4q-13 -48 -60 -48q-18 0 -40 10l-84 39q-16 8 -30 8q-33 0 -43 -33z" />
<glyph unicode="&#xa1;" horiz-adv-x="160" d="M54 -196h17v482h18v-500h-35v18zM58 451q0 9 6.5 15.5t15.5 6.5t16 -6.5t7 -15.5t-7 -15.5t-16 -6.5t-15.5 6.5t-6.5 15.5z" />
<glyph unicode="&#xa2;" horiz-adv-x="482" d="M36 268q0 93 61.5 161t152.5 78v64h18v-62h9q97 0 167 -67l2 -3v-28h-17v20q-65 60 -152 60h-9v-446h9q98 0 163 70l13 -11q-72 -77 -176 -77h-9v-81h-18v83q-91 10 -152.5 78t-61.5 161zM54 268q0 -85 56.5 -148.5t139.5 -73.5v443q-84 -10 -140 -73t-56 -148z" />
<glyph unicode="&#xa3;" horiz-adv-x="517" d="M18 0v18q52 0 88.5 36.5t36.5 88.5v178h-81v18h81v170q0 59 42 101t101 42q39 0 72 -19.5t52 -52.5l1 -1v-17h-18v11q-36 61 -107 61q-52 0 -88.5 -36.5t-36.5 -88.5v-170h151v-18h-151v-178q0 -40 -20 -73.5t-53 -51.5h376v27h18v-45h-464z" />
<glyph unicode="&#xa4;" horiz-adv-x="303" d="M25 428l13 11l41 -40q12 9 18.5 13t22 8.5t34.5 4.5q42 0 73 -25l6 -4l42 42l12 -14l-41 -41q27 -41 27 -77q0 -39 -26 -75l38 -38l-14 -12l-36 37q-36 -30 -81 -30q-36 0 -76 27l-39 -37l-11 12l37 38l-4 6q-25 31 -25 72q0 40 26 74l4 7zM54 306q0 -41 29.5 -71 t70.5 -30t71 30t30 71q0 43 -29 72t-72 29q-41 0 -70.5 -29.5t-29.5 -71.5z" />
<glyph unicode="&#xa5;" horiz-adv-x="589" d="M18 661v18h22l254 -411h2l255 415l15 -9l-249 -406h129v-18h-140l-2 -4v-67h142v-18h-142v-161h-18v161h-143v18h143v67l-3 4h-140v18h128l-242 393h-11z" />
<glyph unicode="&#xa6;" horiz-adv-x="160" d="M71 143h18v-357h-18v357zM71 321v358h18v-358h-18z" />
<glyph unicode="&#xa7;" d="M36 296q0 46 30.5 83t88.5 57q-48 45 -48 105q0 59 42.5 98.5t127.5 39.5q70 0 119.5 -49.5t49.5 -120.5h-17q0 63 -44.5 107.5t-107.5 44.5q-77 0 -114.5 -34t-37.5 -86q0 -39 21.5 -69t56.5 -49.5t76.5 -36.5t83.5 -35.5t77 -41t56.5 -58.5t21.5 -83q0 -46 -31 -82.5 t-89 -56.5q48 -45 48 -106q0 -59 -42 -98t-127 -39q-71 0 -120.5 49.5t-49.5 119.5h18q0 -63 44.5 -107t107.5 -44q77 0 114.5 33.5t37.5 85.5q0 39 -21.5 69t-56.5 49.5t-76.5 36.5t-83.5 35.5t-77 41t-56.5 58.5t-21.5 83zM54 296q0 -56 37 -96.5t83 -59.5t110 -46t97 -51 q59 18 89 50.5t30 74.5q0 56 -37 96.5t-83.5 59.5t-110.5 46t-97 51q-58 -18 -88 -50.5t-30 -74.5z" />
<glyph unicode="&#xa8;" horiz-adv-x="357" d="M45 594q0 13 9 22t22 9t22 -9t9 -22t-9 -22.5t-22 -9.5t-22 9.5t-9 22.5zM254 594q0 13 9.5 22t22.5 9t22 -9t9 -22t-9 -22.5t-22 -9.5t-22.5 9.5t-9.5 22.5z" />
<glyph unicode="&#xa9;" horiz-adv-x="821" d="M36 341q0 94 50 172q50 80 137.5 128t191.5 48t192 -48t138 -128q50 -78 50 -172t-50 -172q-49 -79 -138 -128q-83 -46 -192 -46q-107 0 -192 46q-86 45 -137 128q-50 78 -50 172zM54 341q0 -88 47 -163q49 -77 131.5 -121.5t182.5 -44.5q104 0 184 44q80 43 130 122 q48 76 48 163t-48 163q-49 78 -131 122.5t-183 44.5t-183 -45t-131 -122q-47 -75 -47 -163zM205 339.5q0 88.5 63 151.5t152 63q76 0 139 -53l3 -3v-25h-17v17q-56 46 -125 46q-81 0 -139 -58t-58 -139q0 -53 26.5 -98t72 -71.5t98.5 -26.5q87 0 144 61l13 -11 q-64 -68 -157 -68q-89 0 -152 63t-63 151.5z" />
<glyph unicode="&#xaa;" horiz-adv-x="375" d="M36 424q0 43 38.5 73t105.5 30h141v44q0 52 -32.5 75.5t-83.5 23.5q-75 0 -116 -30v-6h-18v14q53 40 134 40q59 0 96.5 -28t37.5 -89v-232h18v-18h-36v53q-48 -62 -141 -62q-61 0 -102.5 30t-41.5 82zM54 424q0 -43 35.5 -68.5t90.5 -25.5q45 0 84.5 20t56.5 54v105h-141 q-61 0 -93.5 -25t-32.5 -60z" />
<glyph unicode="&#xab;" horiz-adv-x="339" d="M36 221v22l122 150l13 -12l-117 -144v-9l117 -143l-13 -12zM170 221v22l122 150l13 -12l-117 -144v-9l117 -143l-13 -12z" />
<glyph unicode="&#xac;" horiz-adv-x="535" d="M36 286v18h428v-215h-18v197h-410z" />
<glyph unicode="&#xad;" horiz-adv-x="357" d="M36 268v18h250v-18h-250z" />
<glyph unicode="&#xae;" horiz-adv-x="830" d="M36 341q0 94 50 172q50 80 137.5 128t191.5 48t192 -48t138 -128q50 -78 50 -172t-50 -172q-49 -79 -138 -128q-83 -46 -192 -46q-107 0 -192 46q-86 45 -137 128q-50 78 -50 172zM54 341q0 -88 47 -163q49 -77 131.5 -121.5t182.5 -44.5q104 0 184 44q80 43 130 122 q48 76 48 163t-48 163q-49 78 -131 122.5t-183 44.5t-183 -45t-131 -122q-47 -75 -47 -163zM268 538v17h158q64 0 99.5 -34.5t35.5 -81.5q0 -29 -14 -54t-43.5 -42.5t-69.5 -19.5q3 -2 28 -34l62 -98q8 -12 15.5 -16.5t19.5 -4.5h25v-18h-25q-30 0 -49 30l-63 97 q-22 31 -35 37.5t-53 6.5h-55v-171h-18v386h-18zM304 341h122q56 0 86.5 29t30.5 69t-30.5 69.5t-86.5 29.5h-122v-197z" />
<glyph unicode="&#xaf;" horiz-adv-x="357" d="M36 607v18h285v-18h-285z" />
<glyph unicode="&#xb0;" horiz-adv-x="250" d="M36 589q0 36 27.5 63t61.5 27t61.5 -27t27.5 -63q0 -35 -27.5 -62t-61.5 -27t-61.5 27t-27.5 62zM54 589q0 -28 22 -49.5t49 -21.5t49 21.5t22 49.5t-22 50t-49 22t-49 -22t-22 -50z" />
<glyph unicode="&#xb1;" horiz-adv-x="446" d="M36 71v18h375v-18h-375zM36 357v18h178v179h18v-179h179v-18h-179v-178h-18v178h-178z" />
<glyph unicode="&#xb2;" horiz-adv-x="303" d="M36 429v25l135 134q79 78 79 125v1q0 40 -29 69t-69 29t-69 -29t-29 -69h-18q0 48 34 82t82 34t82 -34t34 -82v-1q0 -31 -19.5 -62t-64.5 -75l-130 -129v-1h196v18h18v-35h-232z" />
<glyph unicode="&#xb3;" horiz-adv-x="303" d="M36 536h18q0 -40 29 -69t69 -29t69 29t29 69q0 41 -29 71.5t-69 30.5v17q31 0 54 23.5t23 55.5t-22.5 55t-54.5 23t-54.5 -23t-22.5 -55h-18q0 39 28 67.5t67 28.5t66.5 -28.5t27.5 -67.5q0 -60 -53 -87q33 -14 54 -44t21 -67q0 -48 -34 -82t-82 -34t-82 34t-34 82z" />
<glyph unicode="&#xb4;" horiz-adv-x="214" d="M51 560l100 100l12 -13l-100 -100z" />
<glyph unicode="&#xb5;" d="M54 446v18h35v-321q0 -64 41 -99t111 -35q91 0 157 69.5t66 171.5v214h18v-446h18v-18h-36v154q-28 -71 -89 -117t-134 -46q-56 0 -97 22.5t-59 62.5v-50q0 -25 6.5 -61.5t6.5 -52.5q0 -32 -16 -59l-14 9q12 19 12 50q0 13 -4.5 51t-4.5 63v420h-17z" />
<glyph unicode="&#xb6;" horiz-adv-x="410" d="M36 509q0 56 39 95t95 39h169v-822h-18v804h-125v-804h-17v554h-9q-56 0 -95 39t-39 95zM54 509q0 -48 34 -82t82 -34h9v232h-9q-48 0 -82 -34t-34 -82z" />
<glyph unicode="&#xb7;" horiz-adv-x="160" d="M58 237q0 9 6.5 15.5t15.5 6.5t16 -6.5t7 -15.5t-7 -16t-16 -7t-15.5 7t-6.5 16z" />
<glyph unicode="&#xb8;" horiz-adv-x="401" d="M121 -154l14 11q18 -23 48 -23q18 0 31 8.5t19 21t6 27.5q0 13 -4.5 24t-14.5 18t-24 7t-40 -13l-20 7l21 73l17 -5l-15 -53q18 9 37 9q29 0 45 -19.5t16 -47.5q0 -30 -19.5 -52.5t-54.5 -22.5q-39 0 -62 30z" />
<glyph unicode="&#xb9;" horiz-adv-x="160" d="M26 771l45 50h18v-392h-18v366l-33 -37z" />
<glyph unicode="&#xba;" horiz-adv-x="446" d="M36 500q0 78 54.5 133t132.5 55t133 -55t55 -133t-55 -133t-133 -55t-132.5 55t-54.5 133zM54 500q0 -71 49.5 -120.5t119.5 -49.5q71 0 120.5 50t49.5 120t-49.5 120t-120.5 50q-70 0 -119.5 -49.5t-49.5 -120.5z" />
<glyph unicode="&#xbb;" horiz-adv-x="339" d="M34 85l118 143v9l-118 144l13 12l123 -150v-22l-123 -148zM168 85l118 143v9l-118 144l13 12l123 -150v-22l-123 -148z" />
<glyph unicode="&#xbc;" horiz-adv-x="625" d="M11 42l500 571l13 -11l-500 -572zM26 628l45 51h18v-393h-18v366l-33 -37zM339 54v17l2 2q77 116 103.5 171t26.5 113h17q0 -62 -26.5 -118t-100.5 -168h175v143h18v-143h35v-17h-35v-90h-18v90h-197z" />
<glyph unicode="&#xbd;" horiz-adv-x="625" d="M11 42l500 571l13 -11l-500 -572zM26 628l45 51h18v-393h-18v366l-33 -37zM357 -10l136 134q78 77 78 125v1q0 40 -28.5 69t-69.5 29t-69.5 -29t-28.5 -69h-18q0 48 34 82t82 34t82 -34t34 -82v-1q0 -31 -19.5 -62t-64.5 -75l-130 -129v-1h214v-18h-232v26z" />
<glyph unicode="&#xbe;" horiz-adv-x="732" d="M36 393h18q0 -41 29 -69.5t69 -28.5t69 28.5t29 69.5t-29 71.5t-69 30.5v17q31 0 54 23.5t23 55.5t-23 55.5t-54 23.5t-54 -23.5t-23 -55.5h-18q0 39 28 68t67 29t66.5 -29t27.5 -68q0 -28 -14.5 -51.5t-38.5 -35.5q33 -14 54 -44t21 -67q0 -48 -34 -82t-82 -34t-82 34 t-34 82zM118 42l500 571l13 -11l-500 -572zM446 54v17l2 2q77 116 103.5 171t26.5 113h18q0 -62 -26.5 -117.5t-101.5 -168.5h175v143h18v-143h35v-17h-35v-90h-18v90h-197z" />
<glyph unicode="&#xbf;" horiz-adv-x="410" d="M36 -45q0 45 18.5 78t44.5 52t52 35t44.5 37.5t18.5 49.5v70h18v-70q0 -32 -18.5 -56t-44.5 -40.5t-52 -34.5t-44.5 -48.5t-18.5 -72.5q0 -63 44 -107t107 -44t107.5 44t44.5 107h18q0 -70 -49.5 -119.5t-120.5 -49.5t-120 49t-49 120zM201 451q0 9 6.5 15.5t15.5 6.5 t16 -6.5t7 -15.5t-7 -15.5t-16 -6.5t-15.5 6.5t-6.5 15.5z" />
<glyph unicode="&#xc0;" horiz-adv-x="589" d="M13 0v18h13l259 670h20l266 -684l-17 -8l-70 183h-377l-69 -179h-25zM114 196h363l-182 468zM220 861l13 13l100 -100l-13 -13z" />
<glyph unicode="&#xc1;" horiz-adv-x="589" d="M13 0v18h13l259 670h20l266 -684l-17 -8l-70 183h-377l-69 -179h-25zM114 196h363l-182 468zM258 774l100 100l13 -13l-100 -100z" />
<glyph unicode="&#xc2;" horiz-adv-x="589" d="M13 0v18h13l262 678h14l269 -692l-17 -8l-70 183h-377l-69 -179h-25zM114 196h363l-182 468zM151 767l133 108h21l133 -108l-11 -13l-128 103h-9l-128 -103z" />
<glyph unicode="&#xc3;" horiz-adv-x="589" d="M13 0v18h13l262 678h14l269 -692l-17 -8l-70 183h-377l-69 -179h-25zM114 196h363l-182 468zM171 796l2 15q10 52 57 52q21 0 39 -9l55 -30q15 -10 35 -10q33 0 39 39l4 15l17 -3l-3 -15q-10 -53 -57 -53q-20 0 -38 9l-56 31q-14 9 -35 9q-34 0 -39 -38l-3 -15z" />
<glyph unicode="&#xc4;" horiz-adv-x="589" d="M13 0v18h13l262 678h14l269 -692l-17 -8l-70 183h-377l-69 -179h-25zM114 196h363l-182 468zM179 808q0 9 6.5 15.5t15.5 6.5t15.5 -6.5t6.5 -15.5t-6.5 -15.5t-15.5 -6.5t-15.5 6.5t-6.5 15.5zM371 808q0 9 6.5 15.5t15.5 6.5t15.5 -6.5t6.5 -15.5t-6.5 -15.5 t-15.5 -6.5t-15.5 6.5t-6.5 15.5z" />
<glyph unicode="&#xc5;" horiz-adv-x="589" d="M13 0v18h13l259 670q-30 5 -55 31.5t-25 57.5q0 33 28.5 61t61.5 28q32 0 60.5 -28t28.5 -61q0 -32 -24.5 -58t-55.5 -31l267 -684l-17 -8l-70 183h-377l-69 -179h-25zM114 196h363l-182 468zM223 777q0 -26 23 -49t49 -23q25 0 49 23q22 22 22 49t-22 49q-23 22 -49 22 t-49 -22q-23 -23 -23 -49z" />
<glyph unicode="&#xc6;" horiz-adv-x="857" d="M18 0v18h10l325 661h433v-36h-18v18h-322v-322h161v-18h-161v-303h358v18h17v-36h-392v179h-302l-89 -179h-20zM136 196h293v465h-65z" />
<glyph unicode="&#xc7;" horiz-adv-x="625" d="M36 339q0 144 102 246.5t246 102.5q104 0 205 -67v-32h-18v23q-85 58 -187 58q-136 0 -233 -97t-97 -234t97 -233.5t233 -96.5q104 0 191 61l11 -15q-91 -64 -202 -64q-24 0 -54 5l-14 -50q16 8 38 8q29 0 44.5 -19t15.5 -47q0 -30 -19.5 -53t-54.5 -23q-39 0 -62 31 l14 11q19 -24 48 -24q27 0 41.5 17.5t14.5 40.5q0 20 -11 34.5t-31 14.5q-13 0 -41 -14l-20 7l19 68q-120 25 -198 120.5t-78 220.5z" />
<glyph unicode="&#xc8;" d="M54 661v18h428v-36h-18v18h-375v-322h232v-18h-232v-303h411v18h18v-36h-447v661h-17zM202 861l13 13l100 -100l-13 -13z" />
<glyph unicode="&#xc9;" d="M54 661v18h428v-36h-18v18h-375v-322h232v-18h-232v-303h411v18h18v-36h-447v661h-17zM240 774l100 100l13 -13l-100 -100z" />
<glyph unicode="&#xca;" d="M54 661v18h428v-36h-18v18h-375v-322h232v-18h-232v-303h411v18h18v-36h-447v661h-17zM133 767l133 108h21l133 -108l-11 -14l-128 104h-9l-128 -104z" />
<glyph unicode="&#xcb;" d="M54 661v18h428v-36h-18v18h-375v-322h232v-18h-232v-303h411v18h18v-36h-447v661h-17zM160 808q0 9 7 15.5t16 6.5t15.5 -6.5t6.5 -15.5t-6.5 -16t-15.5 -7t-16 7t-7 16zM352 808q0 9 7 15.5t16 6.5t15.5 -6.5t6.5 -15.5t-6.5 -16t-15.5 -7t-16 7t-7 16z" />
<glyph unicode="&#xcc;" horiz-adv-x="160" d="M5 862l13 12l100 -100l-13 -12zM71 0v679h18v-679h-18z" />
<glyph unicode="&#xcd;" horiz-adv-x="160" d="M44 774l100 100l12 -12l-100 -100zM71 0v679h18v-679h-18z" />
<glyph unicode="&#xce;" horiz-adv-x="160" d="M-28 796l98 79h21l97 -79l-11 -14l-92 75h-9l-92 -75zM71 0v679h18v-679h-18z" />
<glyph unicode="&#xcf;" horiz-adv-x="160" d="M-36 808q0 9 7 15.5t16 6.5t15.5 -6.5t6.5 -15.5t-6.5 -15.5t-15.5 -6.5t-16 6.5t-7 15.5zM71 0v679h18v-679h-18zM156 808q0 9 7 15.5t16 6.5t15.5 -6.5t6.5 -15.5t-6.5 -15.5t-15.5 -6.5t-16 6.5t-7 15.5z" />
<glyph unicode="&#xd0;" horiz-adv-x="660" d="M18 339v18h53v304h-17v18h241q136 0 233 -101.5t97 -238.5t-97 -238t-233 -101h-224v339h-53zM89 18h206q128 0 220 95.5t92 225.5t-92 226t-220 96h-206v-304h197v-18h-197v-321z" />
<glyph unicode="&#xd1;" horiz-adv-x="625" d="M54 661v18h44l438 -664v664h18v-697h-17l-448 678v-660h-18v661h-17zM206 796l3 15q10 52 57 52q20 0 38 -9l56 -30q15 -10 35 -10q33 0 39 39l4 15l16 -3l-2 -15q-10 -53 -57 -53q-21 0 -39 9l-55 31q-13 9 -35 9q-34 0 -39 -38l-4 -15z" />
<glyph unicode="&#xd2;" horiz-adv-x="767" d="M36 339q0 144 102 246.5t246 102.5t246 -102.5t102 -246.5t-102 -246t-246 -102t-246 102t-102 246zM54 339q0 -137 97 -233.5t233 -96.5t233 96.5t97 233.5t-97 234t-233 97t-233 -97t-97 -234zM309 861l13 13l100 -100l-13 -13z" />
<glyph unicode="&#xd3;" horiz-adv-x="767" d="M36 339q0 144 102 246.5t246 102.5t246 -102.5t102 -246.5t-102 -246t-246 -102t-246 102t-102 246zM54 339q0 -137 97 -233.5t233 -96.5t233 96.5t97 233.5t-97 234t-233 97t-233 -97t-97 -234zM347 774l100 100l13 -13l-100 -100z" />
<glyph unicode="&#xd4;" horiz-adv-x="767" d="M36 339q0 144 102 246.5t246 102.5t246 -102.5t102 -246.5t-102 -246t-246 -102t-246 102t-102 246zM54 339q0 -137 97 -233.5t233 -96.5t233 96.5t97 233.5t-97 234t-233 97t-233 -97t-97 -234zM240 767l133 108h22l133 -108l-12 -13l-128 103h-9l-127 -103z" />
<glyph unicode="&#xd5;" horiz-adv-x="767" d="M36 339q0 144 102 246.5t246 102.5t246 -102.5t102 -246.5t-102 -246t-246 -102t-246 102t-102 246zM54 339q0 -137 97 -233.5t233 -96.5t233 96.5t97 233.5t-97 234t-233 97t-233 -97t-97 -234zM260 796l2 15q10 52 58 52q20 0 38 -9l55 -30q15 -10 35 -10q34 0 40 39 l3 15l17 -3l-3 -15q-10 -53 -57 -53q-20 0 -38 9l-56 31q-14 9 -34 9q-35 0 -40 -38l-3 -15z" />
<glyph unicode="&#xd6;" horiz-adv-x="767" d="M36 339q0 144 102 246.5t246 102.5t246 -102.5t102 -246.5t-102 -246t-246 -102t-246 102t-102 246zM54 339q0 -137 97 -233.5t233 -96.5t233 96.5t97 233.5t-97 234t-233 97t-233 -97t-97 -234zM268 808q0 9 6.5 15.5t15.5 6.5t15.5 -6.5t6.5 -15.5t-6.5 -15.5 t-15.5 -6.5t-15.5 6.5t-6.5 15.5zM460 808q0 9 6.5 15.5t15.5 6.5t15.5 -6.5t6.5 -15.5t-6.5 -15.5t-15.5 -6.5t-15.5 6.5t-6.5 15.5z" />
<glyph unicode="&#xd7;" horiz-adv-x="303" d="M38 221l101 100l-101 101l13 14l101 -102l101 102l12 -14l-101 -101l102 -100l-13 -14l-101 102l-101 -102z" />
<glyph unicode="&#xd8;" horiz-adv-x="767" d="M36 339q0 144 102 246.5t246 102.5q135 0 236 -93l70 71l13 -12l-70 -71q99 -99 99 -244q0 -144 -102 -246t-246 -102q-140 0 -240 97l-75 -76l-13 12l75 76q-95 100 -95 239zM54 339q0 -132 90 -227l463 470q-96 88 -223 88q-136 0 -233 -97t-97 -234zM156 100 q96 -91 228 -91q136 0 233 96.5t97 233.5q0 135 -93 231z" />
<glyph unicode="&#xd9;" horiz-adv-x="625" d="M54 661v18h35v-447q0 -92 65.5 -157.5t157.5 -65.5t158 65.5t66 157.5v447h18v-447q0 -100 -71 -170.5t-171 -70.5t-170.5 70.5t-70.5 170.5v429h-17zM237 861l13 13l100 -100l-13 -13z" />
<glyph unicode="&#xda;" horiz-adv-x="625" d="M54 661v18h35v-447q0 -92 65.5 -157.5t157.5 -65.5t158 65.5t66 157.5v447h18v-447q0 -100 -71 -170.5t-171 -70.5t-170.5 70.5t-70.5 170.5v429h-17zM275 774l100 100l13 -13l-100 -100z" />
<glyph unicode="&#xdb;" horiz-adv-x="625" d="M54 661v18h35v-447q0 -92 65.5 -157.5t157.5 -65.5t158 65.5t66 157.5v447h18v-447q0 -100 -71 -170.5t-171 -70.5t-170.5 70.5t-70.5 170.5v429h-17zM169 767l133 108h21l133 -108l-11 -14l-128 104h-9l-128 -104z" />
<glyph unicode="&#xdc;" horiz-adv-x="625" d="M54 661v18h35v-447q0 -92 65.5 -157.5t157.5 -65.5t158 65.5t66 157.5v447h18v-447q0 -100 -71 -170.5t-171 -70.5t-170.5 70.5t-70.5 170.5v429h-17zM196 808q0 9 7 15.5t16 6.5t15.5 -6.5t6.5 -15.5t-6.5 -16t-15.5 -7t-16 7t-7 16zM388 808q0 9 7 15.5t16 6.5 t15.5 -6.5t6.5 -15.5t-6.5 -16t-15.5 -7t-16 7t-7 16z" />
<glyph unicode="&#xdd;" horiz-adv-x="589" d="M18 661v18h22l255 -413l256 417l15 -9l-262 -428v-246h-18v246l-257 415h-11zM258 774l100 100l13 -13l-100 -100z" />
<glyph unicode="&#xde;" d="M71 0v679h18v-72h197q97 0 164.5 -67.5t67.5 -164.5t-67.5 -164.5t-164.5 -67.5h-197v-143h-18zM89 161h197q88 0 151 62.5t63 151.5t-63 151.5t-151 62.5h-197v-428z" />
<glyph unicode="&#xdf;" horiz-adv-x="535" d="M36 446v18h35v81q0 59 42 101t101 42t101 -42t42 -101q0 -39 -15.5 -71.5t-39.5 -52.5t-48.5 -32t-47.5 -16q276 -116 276 -266q0 -54 -44.5 -85t-107.5 -31q-49 0 -95 19t-73 56l-1 3v20h18v-15q25 -32 66 -48.5t85 -16.5q37 0 67 11.5t48.5 34t18.5 52.5 q0 29 -11.5 56.5t-29 49t-44.5 43t-50.5 36t-55 30.5t-50.5 24t-44 18v24h9q18 0 42.5 9.5t49.5 27.5t42 50t17 70q0 52 -36.5 88.5t-88.5 36.5t-88.5 -36.5t-36.5 -88.5v-545h-18v446h-35z" />
<glyph unicode="&#xe0;" horiz-adv-x="517" d="M36 139q0 56 53.5 92.5t142.5 36.5h197v53q0 38 -15 65.5t-40.5 42t-52.5 20.5t-58 6q-80 0 -138 -30v-18h-18v29l5 2q63 35 151 35q78 0 130.5 -36.5t52.5 -115.5v-303h18v-18h-35v79q-32 -42 -90 -65t-116 -23q-80 0 -133.5 40t-53.5 108zM54 139q0 -60 47.5 -95 t121.5 -35q63 0 123.5 27.5t82.5 72.5v141h-197q-84 0 -131 -32.5t-47 -78.5zM188 647l13 13l100 -100l-13 -13z" />
<glyph unicode="&#xe1;" horiz-adv-x="517" d="M36 139q0 56 53.5 92.5t142.5 36.5h197v53q0 38 -15 65.5t-40.5 42t-52.5 20.5t-58 6q-80 0 -138 -30v-18h-18v29l5 2q63 35 151 35q78 0 130.5 -36.5t52.5 -115.5v-303h18v-18h-35v79q-32 -42 -90 -65t-116 -23q-80 0 -133.5 40t-53.5 108zM54 139q0 -60 47.5 -95 t121.5 -35q63 0 123.5 27.5t82.5 72.5v141h-197q-84 0 -131 -32.5t-47 -78.5zM226 560l100 100l13 -13l-100 -100z" />
<glyph unicode="&#xe2;" horiz-adv-x="517" d="M36 139q0 56 53.5 92.5t142.5 36.5h197v53q0 38 -15 65.5t-40.5 42t-52.5 20.5t-58 6q-80 0 -138 -30v-18h-18v29l5 2q63 35 151 35q78 0 130.5 -36.5t52.5 -115.5v-303h18v-18h-35v79q-32 -42 -90 -65t-116 -23q-80 0 -133.5 40t-53.5 108zM54 139q0 -60 47.5 -95 t121.5 -35q63 0 123.5 27.5t82.5 72.5v141h-197q-84 0 -131 -32.5t-47 -78.5zM120 553l133 108h21l133 -108l-11 -14l-128 104h-9l-128 -104z" />
<glyph unicode="&#xe3;" horiz-adv-x="517" d="M36 139q0 56 53.5 92.5t142.5 36.5h197v53q0 38 -15 65.5t-40.5 42t-52.5 20.5t-58 6q-80 0 -138 -30v-18h-18v29l5 2q63 35 151 35q78 0 130.5 -36.5t52.5 -115.5v-303h18v-18h-35v79q-32 -42 -90 -65t-116 -23q-80 0 -133.5 40t-53.5 108zM54 139q0 -60 47.5 -95 t121.5 -35q63 0 123.5 27.5t82.5 72.5v141h-197q-84 0 -131 -32.5t-47 -78.5zM139 581l3 15q10 53 57 53q20 0 38 -9l56 -30q15 -10 34 -10q35 0 40 38l3 16l17 -3l-2 -15q-10 -53 -58 -53q-20 0 -38 9l-55 30q-15 10 -35 10q-34 0 -39 -38l-4 -15z" />
<glyph unicode="&#xe4;" horiz-adv-x="517" d="M36 139q0 56 53.5 92.5t142.5 36.5h197v53q0 38 -15 65.5t-40.5 42t-52.5 20.5t-58 6q-80 0 -138 -30v-18h-18v29l5 2q63 35 151 35q78 0 130.5 -36.5t52.5 -115.5v-303h18v-18h-35v76q-32 -40 -90.5 -62.5t-115.5 -22.5q-80 0 -133.5 40t-53.5 108zM54 139 q0 -60 47.5 -95t121.5 -35q63 0 123.5 27.5t82.5 72.5v141h-197q-84 0 -131 -32.5t-47 -78.5zM147 594q0 9 7 15.5t16 6.5t15.5 -6.5t6.5 -15.5t-6.5 -16t-15.5 -7t-16 7t-7 16zM339 594q0 9 7 15.5t16 6.5t15.5 -6.5t6.5 -15.5t-6.5 -16t-15.5 -7t-16 7t-7 16z" />
<glyph unicode="&#xe5;" horiz-adv-x="517" d="M36 139q0 56 53.5 92.5t142.5 36.5h197v53q0 38 -15 65.5t-40.5 42t-52.5 20.5t-58 6q-80 0 -138 -30v-18h-18v29l5 2q63 35 151 35q78 0 130.5 -36.5t52.5 -115.5v-303h18v-18h-35v76q-32 -40 -90.5 -62.5t-115.5 -22.5q-80 0 -133.5 40t-53.5 108zM54 139 q0 -60 47.5 -95t121.5 -35q63 0 123.5 27.5t82.5 72.5v141h-197q-84 0 -131 -32.5t-47 -78.5zM174 589q0 33 28 61.5t61 28.5t61.5 -28t28.5 -62q0 -33 -28.5 -61t-61.5 -28q-32 0 -60.5 28.5t-28.5 60.5zM192 589q0 -27 22 -49t49 -22q26 0 49 22q23 23 23 49t-23 49 q-24 23 -49 23t-49 -23q-22 -22 -22 -49z" />
<glyph unicode="&#xe6;" horiz-adv-x="910" d="M36 130q0 55 48.5 87.5t138.5 32.5h206v71q0 38 -15 65.5t-40.5 42t-52.5 20.5t-58 6q-80 0 -138 -30v-23h-18v34l5 2q63 35 151 35q77 0 129.5 -36t53.5 -114q27 67 88.5 108.5t135.5 41.5q61 0 113.5 -28.5t86.5 -77.5l4 -7q-3 -3 -23 -20t-29.5 -24.5t-30.5 -23 t-36.5 -24t-36 -18t-40.5 -14t-40 -4.5h-192q0 -92 66 -157.5t158 -65.5q98 0 163 70l13 -11q-72 -77 -176 -77q-75 0 -136 41.5t-88 108.5v-141h-17v76q-32 -40 -90.5 -62.5t-115.5 -22.5q-82 0 -134.5 36t-52.5 103zM54 130q0 -59 47 -90t122 -31q63 0 123.5 27.5 t82.5 72.5v123h-206q-84 0 -126.5 -28t-42.5 -74zM447 250h191q12 0 25 2.5t24 5.5t25 9.5t22.5 11t23 14t21 14t21 15.5t18 14l17.5 15t15 12q-69 92 -180 92q-87 0 -151.5 -59.5t-71.5 -145.5z" />
<glyph unicode="&#xe7;" horiz-adv-x="482" d="M36 232q0 100 70.5 170.5t170.5 70.5t169 -69v-26h-17v18q-64 59 -152 59q-92 0 -157.5 -65.5t-65.5 -157.5t65.5 -157.5t157.5 -65.5q98 0 163 70l13 -11q-72 -77 -176 -77q-16 0 -24 1l-15 -52q18 9 37 9q29 0 45 -19.5t16 -47.5q0 -19 -8 -36t-25.5 -28t-40.5 -11 q-40 0 -63 31l14 10q18 -23 49 -23q27 0 41.5 17t14.5 40q0 20 -11 34.5t-31.5 14.5t-40.5 -13l-21 7l21 70q-86 15 -142.5 82t-56.5 155z" />
<glyph unicode="&#xe8;" horiz-adv-x="517" d="M36 232q0 100 71 170.5t170 70.5q61 0 113.5 -28.5t86.5 -77.5l4 -7l-6 -5q-2 -1 -38 -32t-55.5 -45t-57 -30t-70.5 -16h-200q0 -92 65.5 -157.5t157.5 -65.5q98 0 163 70l13 -11q-72 -77 -176 -77q-100 0 -170.5 70.5t-70.5 170.5zM54 250h200q24 0 47 7t47.5 22.5 t38 25t40 32.5t30.5 26q-69 92 -180 92q-87 0 -151.5 -59.5t-71.5 -145.5zM202 647l13 13l100 -100l-13 -13z" />
<glyph unicode="&#xe9;" horiz-adv-x="517" d="M36 232q0 100 71 170.5t170 70.5q61 0 113.5 -28.5t86.5 -77.5l4 -7l-6 -5q-2 -1 -38 -32t-55.5 -45t-57 -30t-70.5 -16h-200q0 -92 65.5 -157.5t157.5 -65.5q98 0 163 70l13 -11q-72 -77 -176 -77q-100 0 -170.5 70.5t-70.5 170.5zM54 250h200q24 0 47 7t47.5 22.5 t38 25t40 32.5t30.5 26q-69 92 -180 92q-87 0 -151.5 -59.5t-71.5 -145.5zM240 560l100 100l13 -13l-100 -100z" />
<glyph unicode="&#xea;" horiz-adv-x="517" d="M36 232q0 100 71 170.5t170 70.5q61 0 113.5 -28.5t86.5 -77.5l4 -7l-6 -5q-2 -1 -38 -32t-55.5 -45t-57 -30t-70.5 -16h-200q0 -92 65.5 -157.5t157.5 -65.5q98 0 163 70l13 -11q-72 -77 -176 -77q-100 0 -170.5 70.5t-70.5 170.5zM54 250h200q24 0 47 7t47.5 22.5 t38 25t40 32.5t30.5 26q-69 92 -180 92q-87 0 -151.5 -59.5t-71.5 -145.5zM133 553l133 108h22l133 -108l-12 -14l-128 104h-9l-127 -104z" />
<glyph unicode="&#xeb;" horiz-adv-x="517" d="M36 232q0 100 71 170.5t170 70.5q61 0 113.5 -28.5t86.5 -77.5l4 -7l-6 -5q-2 -1 -38 -32t-55.5 -45t-57 -30t-70.5 -16h-200q0 -92 65.5 -157.5t157.5 -65.5q98 0 163 70l13 -11q-72 -77 -176 -77q-100 0 -170.5 70.5t-70.5 170.5zM54 250h200q24 0 47 7t47.5 22.5 t38 25t40 32.5t30.5 26q-69 92 -180 92q-87 0 -151.5 -59.5t-71.5 -145.5zM161 594q0 9 6.5 15.5t15.5 6.5t15.5 -6.5t6.5 -15.5t-6.5 -16t-15.5 -7t-15.5 7t-6.5 16zM353 594q0 9 6.5 15.5t15.5 6.5t15.5 -6.5t6.5 -15.5t-6.5 -16t-15.5 -7t-15.5 7t-6.5 16z" />
<glyph unicode="&#xec;" horiz-adv-x="160" d="M10 647l13 13l100 -100l-13 -13zM54 446v18h35v-464h-18v446h-17z" />
<glyph unicode="&#xed;" horiz-adv-x="160" d="M48 560l100 100l13 -13l-100 -100zM54 446v18h35v-464h-18v446h-17z" />
<glyph unicode="&#xee;" horiz-adv-x="160" d="M-28 581l98 80h21l97 -80l-11 -13l-92 75h-9l-92 -75zM54 446v18h35v-464h-18v446h-17z" />
<glyph unicode="&#xef;" horiz-adv-x="160" d="M4 594q0 9 7 15.5t16 6.5t15.5 -6.5t6.5 -15.5t-6.5 -16t-15.5 -7t-16 7t-7 16zM54 446v18h35v-464h-18v446h-17zM116 594q0 9 6.5 15.5t15.5 6.5t16 -6.5t7 -15.5t-7 -16t-16 -7t-15.5 7t-6.5 16z" />
<glyph unicode="&#xf0;" horiz-adv-x="446" d="M36 232q0 110 54 175.5t124 65.5q49 0 97.5 -33.5t75.5 -91.5q-17 158 -89 230l-80 -32l-7 16l72 29q-29 25 -80 44l5 17q53 -18 94 -54l87 35l7 -16l-80 -32q92 -97 95 -345v-17q-3 -105 -65 -168.5t-132 -63.5t-124 65.5t-54 175.5zM54 232q0 -104 49 -163.5t111 -59.5 q64 0 121 59.5t58 160.5v10q-3 99 -59.5 157.5t-119.5 58.5q-62 0 -111 -59.5t-49 -163.5z" />
<glyph unicode="&#xf1;" d="M54 446v18h35v-153q28 74 88.5 118t134.5 44q77 0 123.5 -40.5t46.5 -111.5v-303h18v-18h-36v321q0 64 -41 99t-111 35q-91 0 -157 -69.5t-66 -171.5v-214h-18v446h-17zM171 581l3 15q10 53 57 53q20 0 38 -9l56 -30q15 -10 34 -10q35 0 40 38l3 16l17 -3l-2 -15 q-10 -53 -58 -53q-20 0 -38 9l-55 30q-15 10 -35 10q-34 0 -39 -38l-4 -15z" />
<glyph unicode="&#xf2;" d="M36 232q0 100 70.5 170.5t170.5 70.5t170.5 -70.5t70.5 -170.5t-70.5 -170.5t-170.5 -70.5t-170.5 70.5t-70.5 170.5zM54 232q0 -92 65.5 -157.5t157.5 -65.5t157.5 65.5t65.5 157.5t-65.5 157.5t-157.5 65.5t-157.5 -65.5t-65.5 -157.5zM202 647l13 13l100 -100l-13 -13 z" />
<glyph unicode="&#xf3;" d="M36 232q0 100 70.5 170.5t170.5 70.5t170.5 -70.5t70.5 -170.5t-70.5 -170.5t-170.5 -70.5t-170.5 70.5t-70.5 170.5zM54 232q0 -92 65.5 -157.5t157.5 -65.5t157.5 65.5t65.5 157.5t-65.5 157.5t-157.5 65.5t-157.5 -65.5t-65.5 -157.5zM240 560l100 100l13 -13 l-100 -100z" />
<glyph unicode="&#xf4;" d="M36 232q0 100 70.5 170.5t170.5 70.5t170.5 -70.5t70.5 -170.5t-70.5 -170.5t-170.5 -70.5t-170.5 70.5t-70.5 170.5zM54 232q0 -92 65.5 -157.5t157.5 -65.5t157.5 65.5t65.5 157.5t-65.5 157.5t-157.5 65.5t-157.5 -65.5t-65.5 -157.5zM133 553l133 108h21l133 -108 l-11 -14l-128 104h-9l-128 -104z" />
<glyph unicode="&#xf5;" d="M36 232q0 100 70.5 170.5t170.5 70.5t170.5 -70.5t70.5 -170.5t-70.5 -170.5t-170.5 -70.5t-170.5 70.5t-70.5 170.5zM54 232q0 -92 65.5 -157.5t157.5 -65.5t157.5 65.5t65.5 157.5t-65.5 157.5t-157.5 65.5t-157.5 -65.5t-65.5 -157.5zM153 581l3 15q10 53 57 53 q20 0 38 -9l56 -30q15 -10 34 -10q35 0 40 38l3 16l17 -3l-2 -15q-10 -53 -58 -53q-20 0 -38 9l-55 30q-15 10 -35 10q-34 0 -39 -38l-4 -15z" />
<glyph unicode="&#xf6;" d="M36 232q0 100 70.5 170.5t170.5 70.5t170.5 -70.5t70.5 -170.5t-70.5 -170.5t-170.5 -70.5t-170.5 70.5t-70.5 170.5zM54 232q0 -92 65.5 -157.5t157.5 -65.5t157.5 65.5t65.5 157.5t-65.5 157.5t-157.5 65.5t-157.5 -65.5t-65.5 -157.5zM160 594q0 9 7 15.5t16 6.5 t15.5 -6.5t6.5 -15.5t-6.5 -16t-15.5 -7t-16 7t-7 16zM352 594q0 9 7 15.5t16 6.5t15.5 -6.5t6.5 -15.5t-6.5 -16t-15.5 -7t-16 7t-7 16z" />
<glyph unicode="&#xf7;" horiz-adv-x="392" d="M36 357v18h321v-18h-321zM170 246q0 9 6.5 15.5t15.5 6.5t15.5 -6.5t6.5 -15.5t-6.5 -16t-15.5 -7t-15.5 7t-6.5 16zM170 487q0 9 6.5 15.5t15.5 6.5t15.5 -6.5t6.5 -15.5t-6.5 -16t-15.5 -7t-15.5 7t-6.5 16z" />
<glyph unicode="&#xf8;" d="M36 232q0 100 70.5 170.5t170.5 70.5q98 0 169 -69l66 67l12 -13l-66 -67q60 -68 60 -159q0 -100 -70.5 -170.5t-170.5 -70.5q-91 0 -159 60l-58 -57l-13 12l57 57q-68 70 -68 169zM54 232q0 -91 63 -156l316 316q-65 63 -156 63q-92 0 -157.5 -65.5t-65.5 -157.5z M130 63q62 -54 147 -54q92 0 157.5 65.5t65.5 157.5q0 85 -54 147z" />
<glyph unicode="&#xf9;" d="M54 446v18h35v-321q0 -64 41 -99t111 -35q91 0 157 69.5t66 171.5v214h18v-446h18v-18h-36v154q-28 -71 -89 -117t-134 -46q-77 0 -123.5 40.5t-46.5 111.5v303h-17zM211 647l13 13l100 -100l-13 -13z" />
<glyph unicode="&#xfa;" d="M54 446v18h35v-321q0 -64 41 -99t111 -35q91 0 157 69.5t66 171.5v214h18v-446h18v-18h-36v154q-28 -71 -89 -117t-134 -46q-77 0 -123.5 40.5t-46.5 111.5v303h-17zM249 560l100 100l13 -13l-100 -100z" />
<glyph unicode="&#xfb;" d="M54 446v18h35v-321q0 -64 41 -99t111 -35q91 0 157 69.5t66 171.5v214h18v-446h18v-18h-36v154q-28 -71 -89 -117t-134 -46q-77 0 -123.5 40.5t-46.5 111.5v303h-17zM142 553l133 108h21l133 -108l-11 -14l-128 104h-9l-128 -104z" />
<glyph unicode="&#xfc;" d="M54 446v18h35v-321q0 -64 41 -99t111 -35q91 0 157 69.5t66 171.5v214h18v-446h18v-18h-36v154q-28 -71 -89 -117t-134 -46q-77 0 -123.5 40.5t-46.5 111.5v303h-17zM169 594q0 9 7 15.5t16 6.5t15.5 -6.5t6.5 -15.5t-6.5 -16t-15.5 -7t-16 7t-7 16zM361 594q0 9 7 15.5 t16 6.5t15.5 -6.5t6.5 -15.5t-6.5 -16t-15.5 -7t-16 7t-7 16z" />
<glyph unicode="&#xfd;" horiz-adv-x="535" d="M26 446v18h28l214 -479l233 483l17 -7l-282 -584q-44 -91 -109 -91q-58 0 -100 63v22h18v-17q34 -50 82 -50q56 0 93 80l38 79l-214 483h-18zM231 560l100 100l13 -13l-100 -100z" />
<glyph unicode="&#xfe;" d="M54 661v18h35v-349q25 65 79.5 104t126.5 39q98 0 160.5 -69.5t62.5 -171.5t-62.5 -171.5t-160.5 -69.5q-72 0 -126.5 39t-79.5 104v-348h-18v875h-17zM89 232q0 -94 57.5 -158.5t148.5 -64.5t148 64.5t57 158.5t-57 158.5t-148 64.5t-148.5 -64.5t-57.5 -158.5z" />
<glyph unicode="&#xff;" horiz-adv-x="535" d="M27 -129h18v-17q34 -50 82 -50q56 0 93 80l38 79l-214 483h-17v18h27l214 -479l233 483l17 -7l-282 -584q-44 -91 -109 -91q-58 0 -100 63v22zM151 594q0 9 7 15.5t16 6.5t15.5 -6.5t6.5 -15.5t-6.5 -16t-15.5 -7t-16 7t-7 16zM343 594q0 9 7 15.5t16 6.5t15.5 -6.5 t6.5 -15.5t-6.5 -16t-15.5 -7t-16 7t-7 16z" />
<glyph unicode="&#x152;" horiz-adv-x="821" d="M36 339q0 138 97 239t233 101h384v-45h-18v27h-303v-322h187v-18h-187v-303h339v27h18v-45h-420q-136 0 -233 100.5t-97 238.5zM54 339q0 -130 92 -225.5t220 -95.5h45v643h-45q-128 0 -220 -96t-92 -226z" />
<glyph unicode="&#x153;" horiz-adv-x="982" d="M36 232q0 100 70.5 170.5t170.5 70.5q55 0 103 -22.5t81.5 -62.5t47.5 -91q22 77 86 126.5t146 49.5q61 0 113.5 -28.5t86.5 -77.5l5 -7q-11 -8 -32.5 -26.5t-41 -34.5t-44 -32t-53 -25.5t-56.5 -9.5h-201q0 -92 65.5 -157.5t157.5 -65.5q98 0 163 70l13 -11 q-72 -77 -176 -77q-82 0 -146 49.5t-86 126.5q-22 -77 -86 -126.5t-146 -49.5q-100 0 -170.5 70.5t-70.5 170.5zM54 232q0 -92 65.5 -157.5t157.5 -65.5t157.5 65.5t65.5 157.5t-65.5 157.5t-157.5 65.5t-157.5 -65.5t-65.5 -157.5zM519 250h201q23 0 46 7t47 22.5t38 25.5 t39.5 32t30.5 26q-32 42 -79 67t-101 25q-87 0 -151 -59.5t-71 -145.5z" />
<glyph unicode="&#x178;" horiz-adv-x="589" d="M18 661v18h22l255 -413l256 417l15 -9l-262 -428v-246h-18v246l-257 415h-11zM179 808q0 9 6.5 15.5t15.5 6.5t15.5 -6.5t6.5 -15.5t-6.5 -15.5t-15.5 -6.5t-15.5 6.5t-6.5 15.5zM371 808q0 9 6.5 15.5t15.5 6.5t15.5 -6.5t6.5 -15.5t-6.5 -15.5t-15.5 -6.5t-15.5 6.5 t-6.5 15.5z" />
<glyph unicode="&#x2c6;" horiz-adv-x="392" d="M53 553l133 108h21l133 -108l-11 -14l-128 104h-9l-128 -104z" />
<glyph unicode="&#x2dc;" horiz-adv-x="285" d="M19 581l2 15q10 53 58 53q20 0 38 -9l55 -30q15 -10 35 -10q34 0 39 38l4 16l17 -3l-3 -15q-10 -53 -57 -53q-20 0 -38 9l-56 30q-15 10 -34 10q-35 0 -40 -38l-3 -15z" />
<glyph unicode="&#x2000;" horiz-adv-x="437" />
<glyph unicode="&#x2001;" horiz-adv-x="875" />
<glyph unicode="&#x2002;" horiz-adv-x="437" />
<glyph unicode="&#x2003;" horiz-adv-x="875" />
<glyph unicode="&#x2004;" horiz-adv-x="291" />
<glyph unicode="&#x2005;" horiz-adv-x="218" />
<glyph unicode="&#x2006;" horiz-adv-x="145" />
<glyph unicode="&#x2007;" horiz-adv-x="145" />
<glyph unicode="&#x2008;" horiz-adv-x="109" />
<glyph unicode="&#x2009;" horiz-adv-x="175" />
<glyph unicode="&#x200a;" horiz-adv-x="48" />
<glyph unicode="&#x2010;" horiz-adv-x="321" d="M36 268v18h250v-18h-250z" />
<glyph unicode="&#x2011;" horiz-adv-x="321" d="M36 268v18h250v-18h-250z" />
<glyph unicode="&#x2012;" horiz-adv-x="321" d="M36 268v18h250v-18h-250z" />
<glyph unicode="&#x2013;" horiz-adv-x="464" d="M36 268v18h393v-18h-393z" />
<glyph unicode="&#x2014;" horiz-adv-x="892" d="M36 268v18h821v-18h-821z" />
<glyph unicode="&#x2018;" horiz-adv-x="151" d="M35 590v3q5 48 47 95l9 -8q-33 -38 -33 -68q9 0 15.5 -6.5t6.5 -15.5t-6.5 -16t-15.5 -7t-16 7t-7 16z" />
<glyph unicode="&#x2019;" horiz-adv-x="151" d="M38 575q33 38 33 68q-9 0 -15.5 6.5t-6.5 15.5t6.5 16t15.5 7t16 -7t7 -16v-3q-5 -48 -47 -95z" />
<glyph unicode="&#x201a;" horiz-adv-x="151" d="M38 -77q33 38 33 68q-9 0 -15.5 6.5t-6.5 15.5t6.5 16t15.5 7t16 -7t7 -16v-3q-5 -48 -47 -95z" />
<glyph unicode="&#x201c;" horiz-adv-x="241" d="M36 590v3q5 48 47 95l9 -8q-33 -38 -33 -68q9 0 15.5 -6.5t6.5 -15.5t-6.5 -16t-15.5 -7t-16 7t-7 16zM125 590v3q5 48 47 95l9 -8q-33 -38 -33 -68q9 0 15.5 -6.5t6.5 -15.5t-6.5 -16t-15.5 -7t-16 7t-7 16z" />
<glyph unicode="&#x201d;" horiz-adv-x="241" d="M38 575q33 38 33 68q-9 0 -15.5 6.5t-6.5 15.5t6.5 16t15.5 7t16 -7t7 -16v-3q-5 -48 -47 -95zM127 575q33 38 33 68q-9 0 -15.5 6.5t-6.5 15.5t6.5 16t15.5 7t16 -7t7 -16v-3q-5 -48 -47 -95z" />
<glyph unicode="&#x201e;" horiz-adv-x="241" d="M38 -77q33 38 33 68q-9 0 -15.5 6.5t-6.5 15.5t6.5 16t15.5 7t16 -7t7 -16v-3q-5 -48 -47 -95zM127 -77q33 38 33 68q-9 0 -15.5 6.5t-6.5 15.5t6.5 16t15.5 7t16 -7t7 -16v-3q-5 -48 -47 -95z" />
<glyph unicode="&#x2022;" horiz-adv-x="250" d="M36 232q0 37 26 63t63 26t63 -26t26 -63t-26 -63t-63 -26t-63 26t-26 63z" />
<glyph unicode="&#x2026;" horiz-adv-x="375" d="M58 13q0 9 6.5 16t15.5 7t16 -7t7 -16t-7 -15.5t-16 -6.5t-15.5 6.5t-6.5 15.5zM165 13q0 9 7 16t16 7t15.5 -7t6.5 -16t-6.5 -15.5t-15.5 -6.5t-16 6.5t-7 15.5zM272 13q0 9 7 16t16 7t15.5 -7t6.5 -16t-6.5 -15.5t-15.5 -6.5t-16 6.5t-7 15.5z" />
<glyph unicode="&#x202f;" horiz-adv-x="175" />
<glyph unicode="&#x2039;" horiz-adv-x="178" d="M18 221v22l116 143l14 -12l-112 -137v-10l112 -136l-14 -11z" />
<glyph unicode="&#x203a;" horiz-adv-x="178" d="M30 91l113 136v10l-113 137l15 12l116 -143v-22l-116 -141z" />
<glyph unicode="&#x205f;" horiz-adv-x="218" />
<glyph unicode="&#x20ac;" horiz-adv-x="660" d="M21 268l1 18h54q-5 30 -5 53q0 12 2 36h-35l2 18h36q20 126 117 210.5t227 84.5q108 0 201 -65l4 -2v-32h-18v23q-85 58 -187 58q-122 0 -214 -79t-112 -198h384l-2 -18h-385q-2 -24 -2 -36q0 -23 5 -53h366l-2 -18h-361q25 -112 115.5 -185.5t207.5 -73.5q104 0 191 61 l10 -15q-91 -64 -201 -64q-125 0 -220.5 78.5t-120.5 198.5h-58z" />
<glyph unicode="&#x2122;" horiz-adv-x="982" d="M62 652v18h304v-18h-143v-393h-18v393h-143zM403 259v19l47 394h14l187 -405l187 405h14l53 -405l-17 -3l-49 370l-177 -386h-22l-178 385l-44 -374h-15z" />
<glyph unicode="&#xe000;" horiz-adv-x="470" d="M0 0v470h470v-470h-470z" />
</font>
</defs>
</svg>
