<?xml version="1.0" standalone="no"?>
<!DOCTYPE svg PUBLIC "-//W3C//DTD SVG 1.1//EN" "http://www.w3.org/Graphics/SVG/1.1/DTD/svg11.dtd" >
<svg xmlns="http://www.w3.org/2000/svg">
<metadata></metadata>
<defs>
<font id="lobster_tworegular" horiz-adv-x="485" >
<font-face units-per-em="1000" ascent="800" descent="-200" />
<missing-glyph horiz-adv-x="215" />
<glyph unicode="&#xfb01;" horiz-adv-x="456" d="M-84 -159q0 91 130 146v574q0 75 44.5 131.5t137.5 56.5q73 0 112 -35.5t39 -87.5q0 -32 -14.5 -47t-36.5 -15q-21 0 -36.5 13t-15.5 33q0 15 8 29.5t20 16.5q-10 48 -69 48q-89 0 -89 -156v-48h81v-35h-81v-545q0 -94 -33 -132t-91 -38q-53 0 -79.5 24.5t-26.5 66.5z M-45 -150q0 -20 13 -34t33 -14q27 0 36 28.5t9 87.5v31q-91 -44 -91 -99zM286 139v361h100v-340q0 -90 45 -90q49 0 72 109h37q-11 -59 -27.5 -98.5t-37 -57t-37.5 -23.5t-37 -6q-62 0 -88.5 43t-26.5 102z" />
<glyph unicode="&#xfb02;" horiz-adv-x="456" d="M-84 -147q0 74 130 133v575q0 28 2 50.5t10.5 49.5t23 45t42 30.5t64.5 12.5q22 0 42.5 -2t33.5 -4t32 -8t27.5 -9.5t31.5 -12.5t32 -13v-540q0 -90 45 -90q49 0 72 109h37q-11 -59 -27.5 -98.5t-37 -57t-37.5 -23.5t-37 -6q-62 0 -88.5 43t-26.5 102v542q-38 5 -61 5 q-49 0 -64.5 -33t-15.5 -105v-48h81v-35h-81v-545q0 -102 -23 -136t-76 -34q-57 0 -94 26t-37 77zM-45 -150q0 -20 13 -34t34 -14q26 0 35 29t9 87v31q-91 -44 -91 -99z" />
<glyph unicode="&#xfb03;" horiz-adv-x="696" d="M-84 -161q0 85 130 146v591q0 84 41 129t110 45q91 0 120 -83q48 82 156 82q73 0 112 -35.5t39 -87.5q0 -32 -15 -47t-36 -15t-36.5 13t-15.5 33q0 15 8 29.5t20 16.5q-10 48 -69 48q-89 0 -89 -156v-48h81v-35h-81v-545q0 -95 -41 -132.5t-100 -37.5q-74 0 -120 65 q-29 -65 -108 -65q-52 0 -79 24.5t-27 64.5zM-45 -150q0 -20 13 -34t33 -14q27 0 36 28.5t9 87.5v30q-91 -46 -91 -98zM140 -152q36 -46 83 -46q31 0 49.5 24t18.5 92v104q-76 -14 -145 -34v-68q0 -42 -6 -72zM146 21q59 17 145 34v410h-145v-444zM146 500h145v76 q0 61 -17 85.5t-52 24.5q-46 0 -61 -34t-15 -104v-48zM526 139v361h100v-340q0 -90 45 -90q49 0 72 109h37q-11 -59 -27.5 -98.5t-37 -57t-37.5 -23.5t-37 -6q-62 0 -88.5 43t-26.5 102z" />
<glyph unicode="&#xfb04;" horiz-adv-x="701" d="M-84 -161q0 85 130 146v591q0 84 41 129t110 45q84 0 114 -69q33 68 122 68q22 0 42.5 -2t33.5 -4t32 -8t27.5 -9.5t31.5 -12.5t32 -13v-540q0 -90 45 -90q49 0 72 109h37q-11 -59 -27.5 -98.5t-37 -57t-37.5 -23.5t-37 -6q-62 0 -88.5 43t-26.5 102v542q-37 5 -61 5 q-49 0 -64.5 -33t-15.5 -105v-48h81v-35h-81v-545q0 -95 -41 -132.5t-100 -37.5q-74 0 -120 65q-29 -65 -108 -65q-52 0 -79 24.5t-27 64.5zM-45 -150q0 -20 13 -34t33 -14q27 0 36 28.5t9 87.5v30q-91 -46 -91 -98zM140 -152q36 -46 83 -46q31 0 49.5 24t18.5 92v104 q-76 -14 -145 -34v-68q0 -42 -6 -72zM146 21q59 17 145 34v410h-145v-444zM146 500h145v76q0 61 -17 85.5t-52 24.5q-46 0 -61 -34t-15 -104v-48z" />
<glyph horiz-adv-x="1000" />
<glyph horiz-adv-x="1000" />
<glyph unicode="&#xd;" horiz-adv-x="1000" />
<glyph unicode=" "  horiz-adv-x="215" />
<glyph unicode="&#x09;" horiz-adv-x="215" />
<glyph unicode="&#xa0;" horiz-adv-x="215" />
<glyph unicode="!" horiz-adv-x="239" d="M54 61q0 27 19.5 47t46.5 20t47 -20t20 -47t-20 -46.5t-47 -19.5q-28 0 -47 19t-19 47zM63 700h112l-31 -469h-53z" />
<glyph unicode="&#x22;" horiz-adv-x="331" d="M41 561l21 189h85l-51 -189h-55zM200 561l21 189h85l-51 -189h-55z" />
<glyph unicode="#" horiz-adv-x="526" d="M33 141v66h123v126h-123v66h120v319h36v-319h141v319h36v-319h127v-66h-127v-126h127v-66h-127v-168h-36v168h-141v-168h-32v168h-124zM189 207h141v126h-141v-126z" />
<glyph unicode="$" horiz-adv-x="379" d="M28 237q0 32 14 50.5t35 18.5q24 0 47 -23q-30 -4 -30 -52q0 -40 25 -63.5t57 -26.5v206l-28.5 19t-31.5 21.5t-24.5 20.5t-24 26.5t-12 28t-6.5 36.5q0 46 34.5 76.5t85.5 35.5v107h41v-107q51 -4 87 -29.5t36 -73.5q0 -22 -7.5 -39.5t-22.5 -17.5q-18 0 -38 18 q15 18 15 45t-19 45.5t-55 22.5v-171q33 -19 50.5 -31t42.5 -34.5t36.5 -50.5t11.5 -62q0 -57 -41.5 -90.5t-107.5 -35.5v-134h-14l-3 134q-68 2 -110.5 36t-42.5 94zM122 512q0 -42 49 -80v148q-49 -14 -49 -68zM201 142q28 4 45.5 25.5t17.5 54.5q0 61 -63 105v-185z" />
<glyph unicode="%" horiz-adv-x="614" d="M26 539q0 72 32.5 117.5t88.5 45.5q112 0 112 -160q0 -67 -30 -117.5t-90 -50.5q-52 0 -82.5 41t-30.5 124zM82 535q0 -122 64 -122q29 0 45.5 36.5t16.5 92.5q0 128 -57 128q-31 0 -50 -38.5t-19 -96.5zM154 0l247 750h60l-247 -750h-60zM358 165q0 72 33 117.5t89 45.5 q111 0 111 -160q0 -67 -29.5 -117.5t-90.5 -50.5q-52 0 -82.5 41t-30.5 124zM415 161q0 -122 63 -122q30 0 46.5 36.5t16.5 92.5q0 128 -57 128q-31 0 -50 -38.5t-19 -96.5z" />
<glyph unicode="&#x26;" horiz-adv-x="643" d="M36 208q0 76 36.5 129.5t98.5 79.5q-90 57 -90 151q0 73 52 128.5t145 55.5q64 0 108.5 -30t44.5 -97q0 -38 -15 -60t-40 -22q-27 0 -53 27q16 7 28.5 26.5t12.5 45.5q0 36 -23.5 54t-56.5 18q-51 0 -81.5 -41.5t-30.5 -98.5q0 -17 3.5 -35t13 -44t34.5 -47t61 -30 q-65 -15 -101 -67t-36 -125q0 -75 40 -120t118 -45q91 0 130 61.5t42 169.5q-8 1 -24 2.5t-28 2.5t-22 1q-65 0 -85 -45l-7 1q3 54 44.5 87.5t111.5 33.5q16 0 41 -2.5t36 -2.5q31 0 55.5 11t31.5 32h6q1 -4 1 -13q0 -38 -38 -71t-94 -37q-3 -146 -68.5 -228t-183.5 -82 q-111 0 -164.5 67t-53.5 159z" />
<glyph unicode="'" horiz-adv-x="172" d="M41 561l21 189h85l-51 -189h-55z" />
<glyph unicode="(" horiz-adv-x="270" d="M38 250q0 164 54.5 306t152.5 194l12 -27q-73 -38 -114.5 -176t-41.5 -296q0 -53 6.5 -107t22.5 -121.5t51 -132.5t86 -116l-22 -24q-102 91 -154.5 221t-52.5 279z" />
<glyph unicode=")" horiz-adv-x="270" d="M3 726l23 24q102 -91 154 -221t52 -279q0 -164 -54.5 -306t-152.5 -194l-11 27q49 26 85 102.5t53 172t17 197.5q0 53 -6.5 107t-22.5 121.5t-51 132.5t-86 116z" />
<glyph unicode="*" horiz-adv-x="396" d="M32 495l119 69l-119 69l24 40l116 -67v146h52v-146l116 67l24 -40l-120 -69l120 -69l-24 -40l-116 67v-146h-52v146l-116 -67z" />
<glyph unicode="+" horiz-adv-x="430" d="M31 247v70h143v122h83v-122h142v-70h-142v-143h-83v143h-143z" />
<glyph unicode="," horiz-adv-x="216" d="M39 69q0 25 21 42t44 17q71 0 71 -80q0 -49 -27.5 -102.5t-64.5 -71.5q-14 8 -14 24q0 14 11 41t11 39q0 20 -8 28t-18 8.5t-18 13.5t-8 41z" />
<glyph unicode="-" horiz-adv-x="318" d="M59 231v70h200v-70h-200z" />
<glyph unicode="." horiz-adv-x="209" d="M38 61q0 27 19.5 47t46.5 20t47 -20t20 -47t-20 -46.5t-47 -19.5q-28 0 -47 19t-19 47z" />
<glyph unicode="/" horiz-adv-x="504" d="M15 -250l425 1000h50l-425 -1000h-50z" />
<glyph unicode="0" horiz-adv-x="588" d="M46 360q0 179 67 284.5t191 105.5q64 0 111.5 -30t74 -82t39 -113.5t12.5 -134.5q0 -60 -8 -115.5t-27 -107t-47 -89.5t-71.5 -61t-97.5 -23q-111 0 -177.5 92.5t-66.5 273.5zM171 363q0 -56 7 -105.5t21.5 -93.5t41 -69.5t61.5 -25.5q69 0 102 94.5t33 240.5 q0 161 -35.5 228.5t-86.5 67.5q-67 0 -105.5 -99.5t-38.5 -237.5z" />
<glyph unicode="1" horiz-adv-x="308" d="M11 618l3 52q108 0 217 78v-748h-108v618h-112z" />
<glyph unicode="2" horiz-adv-x="505" d="M36 58q0 39 16 77.5t41.5 70.5t56 64.5t61 66.5t56 69t41.5 79t16 91q0 57 -24 90.5t-73 33.5q-44 0 -69.5 -26t-25.5 -63q0 -52 34 -75q-21 -25 -51 -25q-33 0 -51.5 30t-18.5 70q0 64 51 101t140 37q59 0 101 -16.5t63.5 -45.5t31 -59.5t9.5 -66.5q0 -50 -17.5 -95 t-45 -79t-61.5 -65.5t-69 -59.5t-64 -54t-49.5 -56t-23.5 -60q15 4 36 4q27 0 92.5 -9t99.5 -9q51 0 75.5 15t47.5 54q15 -38 15 -70q0 -86 -106 -86q-42 0 -122.5 16t-100.5 16q-53 0 -99 -25q-13 19 -13 60z" />
<glyph unicode="3" horiz-adv-x="533" d="M30 186q0 57 24 88t67 31q57 0 75 -48q-73 -4 -73 -83q0 -60 35.5 -85t82.5 -25q68 0 102.5 45.5t34.5 107.5q0 76 -51 134t-145 67q82 19 127.5 68.5t45.5 104.5q0 45 -29 76.5t-79 31.5q-41 0 -64 -21.5t-23 -51.5q0 -45 51 -80q-27 -31 -61 -31q-32 0 -55 27.5 t-23 70.5q0 65 52.5 100.5t128.5 35.5q82 0 142 -40.5t60 -116.5q0 -53 -30.5 -102t-80.5 -73q84 -33 122 -80t38 -113q0 -92 -77 -161t-183 -69q-32 0 -63.5 7t-68 25.5t-59.5 59.5t-23 100z" />
<glyph unicode="4" horiz-adv-x="476" d="M10 290q4 32 21.5 74.5t36 78t33.5 85t15 97.5q0 80 -19 123q47 -1 74 -37t27 -95q0 -51 -21 -97.5t-51 -93t-41 -76.5h183v386l108 15v-401h83l-2 -59h-81v-290h-108v290h-258z" />
<glyph unicode="5" horiz-adv-x="505" d="M32 169q0 54 22.5 83t57.5 29q51 0 74 -51q-67 -6 -67 -68q0 -47 33.5 -75.5t79.5 -28.5q62 0 94 51t32 119q0 77 -42.5 120t-112.5 43q-81 0 -144 -46l70 387q110 -16 149 -16q73 0 142 33q13 -33 13 -56q0 -77 -94 -77q-24 0 -52.5 4.5t-62 11.5t-45.5 9l-41 -207 q59 31 122 31q103 0 157 -66.5t54 -163.5q0 -101 -59.5 -171t-172.5 -70q-38 0 -72 9t-65.5 27.5t-50.5 54.5t-19 84z" />
<glyph unicode="6" horiz-adv-x="544" d="M43 323q0 116 30 210.5t95 155.5t156 61q65 0 106 -28.5t41 -66.5q0 -22 -13.5 -40.5t-38.5 -18.5q-7 0 -25 4q10 13 10 35q0 28 -21.5 48.5t-54.5 20.5q-52 0 -93.5 -57t-63.5 -145.5t-22 -187.5q0 -244 139 -244q70 0 102 52.5t32 119.5q0 65 -30 105.5t-86 40.5 q-59 0 -96 -58q-14 17 -14 36q0 34 34 60.5t90 26.5q83 0 137.5 -60t54.5 -152q0 -100 -61 -173.5t-172 -73.5q-108 0 -172 79.5t-64 249.5z" />
<glyph unicode="7" horiz-adv-x="448" d="M14 684q0 65 100 65q40 0 125 -12.5t127 -12.5q41 0 78 8q1 -2 1 -8q0 -26 -23 -69.5t-56 -95.5t-66 -112t-56 -135.5t-23 -148.5q0 -81 35 -156q-31 -16 -59 -16q-53 0 -77.5 49.5t-24.5 110.5q0 58 24 122t59 117.5t69.5 101.5t59 89t24.5 65q-76 19 -132 19 q-105 0 -105 -60q0 -11 2 -17q-33 1 -57.5 29.5t-24.5 66.5z" />
<glyph unicode="8" horiz-adv-x="529" d="M38 215q0 75 37.5 126.5t106.5 75.5q-53 30 -80 74t-27 92q0 68 50 117.5t138 49.5q85 0 136.5 -47t51.5 -116q0 -48 -26 -94.5t-76 -75.5q73 -24 108 -76.5t35 -120.5q0 -95 -62.5 -160.5t-168.5 -65.5q-102 0 -162.5 61.5t-60.5 159.5zM141 213q0 -54 33 -100.5 t88 -46.5q52 0 83.5 43.5t31.5 101.5q0 105 -120 166q-50 -17 -83 -64t-33 -100zM171 594q0 -42 22.5 -80t68.5 -64q44 26 69.5 70t25.5 86q0 40 -24 69t-66 29q-43 0 -69.5 -32t-26.5 -78z" />
<glyph unicode="9" horiz-adv-x="543" d="M31 513q0 95 61.5 166t170.5 71q108 0 172.5 -80t64.5 -249q0 -116 -30 -210.5t-95.5 -155.5t-156.5 -61q-63 0 -104 41t-41 82q0 22 13.5 40.5t38.5 18.5q7 0 25 -4q-10 -13 -10 -35q0 -28 21.5 -48.5t54.5 -20.5q79 0 128.5 105.5t49.5 256.5q0 261 -139 261 q-46 0 -78 -31.5t-44 -70t-12 -77.5q0 -61 30 -98.5t86 -37.5q59 0 96 58q14 -17 14 -36q0 -34 -34 -60.5t-90 -26.5q-83 0 -137.5 57t-54.5 145z" />
<glyph unicode=":" horiz-adv-x="251" d="M59 145q0 27 19.5 47t46.5 20t47 -20t20 -47t-20 -46.5t-47 -19.5q-28 0 -47 19t-19 47zM59 386q0 27 19.5 47t46.5 20t47 -20t20 -47t-20 -46.5t-47 -19.5q-28 0 -47 19t-19 47z" />
<glyph unicode=";" horiz-adv-x="247" d="M55 386q0 27 19.5 47t46.5 20t47 -20t20 -47t-20 -46.5t-47 -19.5q-28 0 -47 19t-19 47zM56 152q0 25 21 42t44 17q71 0 71 -80q0 -49 -27.5 -102.5t-64.5 -71.5q-14 8 -14 24q0 14 11 41t11 39q0 20 -8 28t-18 8.5t-18 13.5t-8 41z" />
<glyph unicode="&#x3c;" horiz-adv-x="359" d="M27 225v54l275 150v-55l-219 -120l219 -96v-57z" />
<glyph unicode="=" horiz-adv-x="466" d="M63 133v80h340v-80h-340zM63 316v80h340v-80h-340z" />
<glyph unicode="&#x3e;" horiz-adv-x="359" d="M57 101v57l219 96l-219 120v55l275 -150v-54z" />
<glyph unicode="?" horiz-adv-x="415" d="M23 561q0 55 44 97t135 42q92 0 141 -43t49 -111q0 -40 -18.5 -74.5t-45.5 -60.5t-54 -51t-47 -58t-22 -70h-46q-3 15 -3 28q0 30 14.5 59.5t35.5 54t42 49.5t35.5 57.5t14.5 66.5q0 56 -31 82.5t-75 26.5q-37 0 -64.5 -22.5t-27.5 -57.5q0 -25 22 -49t62 -30 q-16 -42 -64 -42q-38 0 -67.5 28.5t-29.5 77.5zM116 61q0 27 19.5 47t46.5 20t47 -20t20 -47t-20 -46.5t-47 -19.5q-28 0 -47 19t-19 47z" />
<glyph unicode="@" horiz-adv-x="565" d="M34 164q0 163 100.5 278t240.5 115q27 0 51 -5.5t50 -20.5t41.5 -48.5t15.5 -82.5q0 -100 -51.5 -182t-122.5 -82q-34 0 -49 25q-25 -41 -65 -41q-28 0 -45.5 22.5t-17.5 65.5q0 71 42 147.5t93 76.5q26 0 39 -17l4 15l55 -6l-45 -192q-7 -28 -7 -36q0 -20 15 -20 q38 0 72.5 73.5t34.5 141.5q0 53 -26.5 88t-86.5 35q-73 0 -134 -53.5t-92.5 -128.5t-31.5 -148q0 -151 153 -151q52 0 93.5 22.5t58.5 58.5q23 -10 23 -43q0 -48 -56 -78.5t-148 -30.5q-38 0 -72 10.5t-65 32.5t-49 63t-18 96zM234 224q0 -19 7 -35.5t23 -16.5q22 0 38 25 q0 10 3 19l43 168q-9 15 -21 15q-36 0 -64.5 -64t-28.5 -111z" />
<glyph unicode="A" horiz-adv-x="603" d="M-43 351q0 47 53.5 75t136.5 28q15 0 47 -2q55 132 128 215t155 83q44 0 80 -14v-736h-110v360q-74 36 -185 49q-54 -193 -54 -354q0 -104 35 -169q-27 0 -48.5 5.5t-44.5 21.5t-36 51t-13 87q0 159 77 362q-60 -2 -99.5 -17t-39.5 -39q0 -4 1 -6q26 -8 26 -33 q0 -32 -41 -32q-28 0 -48 16t-20 49zM272 442q107 -19 175 -52v312q-47 -3 -93 -74.5t-82 -185.5z" />
<glyph unicode="B" horiz-adv-x="670" d="M17 509q0 100 94.5 170.5t226.5 70.5q112 0 171.5 -51.5t59.5 -125.5q0 -38 -20.5 -75.5t-57.5 -63.5q78 -8 124 -62t46 -147q0 -37 -7.5 -74.5t-24.5 -77.5t-52.5 -65t-83.5 -25q-47 0 -79 22.5t-32 63.5q0 22 4 34q26 -39 74 -39q83 0 83 151q0 179 -138 179 q-21 0 -65 -4v-390h-108v641l108 15v-226h14q54 0 93.5 48t39.5 102q0 60 -41 97t-118 37q-93 0 -159.5 -53.5t-66.5 -152.5q0 -21 3 -38.5t7.5 -30t9 -21t9.5 -16t6 -9.5q-57 0 -88.5 29.5t-31.5 86.5z" />
<glyph unicode="C" horiz-adv-x="505" d="M47 350q0 74 12.5 140.5t41 127t82 96.5t126.5 36q80 0 133.5 -40.5t53.5 -115.5q0 -70 -53 -70q-31 0 -47 18q9 7 16.5 29.5t7.5 49.5q0 46 -22.5 69.5t-61.5 23.5q-58 0 -97.5 -51.5t-56.5 -127.5t-17 -168q0 -307 212 -307q127 0 178 120l25 -10q-25 -89 -95 -137.5 t-166 -48.5q-130 0 -201 93t-71 273z" />
<glyph unicode="D" horiz-adv-x="705" d="M18 515q0 95 91.5 165t224.5 70q92 0 161 -32t108 -87.5t58 -121.5t19 -142q0 -95 -24.5 -182t-69 -142.5t-98.5 -55.5q-61 0 -138 58v-45h-108v641l108 15v-578q34 -26 70 -26q49 0 82 50t46 117.5t13 146.5q0 186 -55.5 267t-185.5 81q-95 0 -160.5 -56.5t-65.5 -150.5 q0 -76 55 -114q-131 0 -131 122z" />
<glyph unicode="E" horiz-adv-x="447" d="M41 209q0 73 35.5 127.5t99.5 80.5q-90 57 -90 151q0 73 52 128.5t145 55.5q64 0 108.5 -30t44.5 -97q0 -38 -15 -60t-40 -22q-27 0 -53 27q16 7 28.5 26.5t12.5 45.5q0 36 -23.5 54t-56.5 18q-51 0 -81.5 -41.5t-30.5 -95.5q0 -16 3 -34t13 -45.5t34.5 -49t61.5 -30.5 q-65 -15 -101 -67t-36 -125q0 -75 40 -120t117 -45q68 0 118 34t69 85l25 -10q-26 -87 -101.5 -137.5t-165.5 -50.5q-106 0 -159.5 67.5t-53.5 159.5z" />
<glyph unicode="F" horiz-adv-x="554" d="M21 524q0 101 69 163.5t209 62.5q34 0 91 -6t90 -6q54 0 89 12q-3 -63 -25.5 -83.5t-64.5 -20.5q-43 0 -133 18v-229h148v-59h-148v-376h-108v682q-7 1 -19 1q-124 0 -124 -148q0 -51 13 -88.5t32 -53.5q-119 0 -119 131z" />
<glyph unicode="G" horiz-adv-x="593" d="M33 421q0 92 30 164.5t100 119.5t172 47q53 0 96 -11.5t75.5 -45.5t32.5 -88q0 -83 -65 -83q-4 0 -7 0.5t-6 0.5t-6 1t-5.5 2t-6 2.5t-5.5 3t-6.5 3.5t-6.5 3.5t-7 4.5t-8 5q2 0 6.5 1.5t11 6.5t12 12.5t9.5 20.5t4 30q0 46 -29 69.5t-75 23.5q-63 0 -108.5 -42t-66 -106 t-20.5 -139q0 -107 43 -177.5t115 -70.5q65 0 102.5 62t45.5 178l97 -1v-376q0 -249 -204 -249q-92 0 -132.5 45.5t-40.5 107.5q0 51 27.5 86.5t88.5 35.5q41 0 66.5 -18t25.5 -52q0 -14 -5 -28q-26 28 -63 28q-33 0 -50 -18.5t-17 -48.5q0 -42 29.5 -70.5t70.5 -28.5 q40 0 67.5 31t27.5 103v238q-52 -95 -167 -95q-111 0 -179.5 86t-68.5 226z" />
<glyph unicode="H" horiz-adv-x="694" d="M18 517q0 93 80.5 163t183.5 70q15 0 41 -2v-313h216v282l109 31v-748h-109v376h-216v-376h-109v697q-55 -22 -86.5 -71t-31.5 -115q0 -42 8.5 -69t16.5 -35t21 -14q-56 0 -90 30t-34 94z" />
<glyph unicode="I" horiz-adv-x="403" d="M18 514q0 94 91 165t206 71q16 0 42 -2v-748h-110v691q-68 -19 -106.5 -66t-38.5 -114q0 -48 12 -73.5t34 -44.5q-130 0 -130 121z" />
<glyph unicode="J" horiz-adv-x="433" d="M1 -56q0 51 27 87.5t89 36.5q85 0 85 -82q0 -2 -0.5 -6.5t-0.5 -7.5q-26 25 -58 25q-28 0 -46.5 -20.5t-18.5 -55.5q0 -39 29.5 -63t67.5 -24q42 0 71 33.5t29 98.5v726q-69 -16 -106.5 -64.5t-37.5 -120.5q0 -78 46 -114q-62 0 -96 29t-34 87q0 99 91 170t208 71h41 v-710q0 -121 -47 -184t-159 -63q-92 0 -136 41t-44 110z" />
<glyph unicode="K" horiz-adv-x="648" d="M17 514q0 94 91 165t206 71q16 0 42 -2v-323l179 320h88l-224 -321q36 2 43 2q49 0 82 -12.5t49 -37t22 -51.5t6 -66q0 -26 -2.5 -81t-2.5 -73q0 -85 57 -105q-57 -17 -86 -17q-43 0 -65.5 28t-22.5 75q0 26 5.5 91.5t5.5 90.5q0 120 -95 120q-17 0 -39 -5v-383h-110v692 q-70 -20 -110 -67t-40 -116q0 -79 42 -116q-53 0 -87 29.5t-34 91.5z" />
<glyph unicode="L" horiz-adv-x="453" d="M18 504q0 94 91 165t206 71q16 0 42 -2l-1 -3v-715q32 -7 78.5 -30.5t94.5 -41t97 -17.5q35 0 77 20q3 -13 3 -27q0 -43 -30.5 -73t-79.5 -30q-35 0 -77.5 24.5t-76.5 54t-81.5 54t-90.5 24.5q-15 0 -23 -1v704q-68 -19 -106.5 -66t-38.5 -114q0 -48 12 -73.5t34 -44.5 q-130 0 -130 121z" />
<glyph unicode="M" horiz-adv-x="752" d="M21 507q0 95 82.5 169t170.5 74q36 0 61 -14l100 -581l117 581h114l56 -736h-114l-40 524l-106 -524h-107l-89 514l-81 -514h-60l110 700q-131 -30 -131 -191q0 -91 37 -116q-55 0 -87.5 28.5t-32.5 85.5z" />
<glyph unicode="N" horiz-adv-x="709" d="M20 522q0 86 65.5 157t162.5 71q38 0 70 -14l278 -642v654h67v-748h-134l-251 563v-563h-67v689q-117 -40 -117 -169q0 -87 48 -127q-63 0 -92.5 31t-29.5 98z" />
<glyph unicode="O" horiz-adv-x="702" d="M18 504q0 102 99 174t241 72q71 0 127 -21t91 -56t58 -84t32.5 -102t9.5 -113q0 -71 -13.5 -134.5t-42 -120.5t-83 -91t-127.5 -34q-109 0 -176 79t-67 251q0 61 9 118t28.5 108.5t55 82.5t82.5 31q26 0 51 -8q-47 -28 -75 -133t-28 -217q0 -40 4.5 -75.5t15.5 -74.5 t36 -62.5t61 -23.5q52 0 86.5 50t48 121t13.5 158q0 76 -11.5 132.5t-30.5 91t-47 55.5t-57.5 28.5t-66.5 7.5q-105 0 -172 -58t-67 -166q0 -76 31 -97q-55 0 -85.5 28t-30.5 83z" />
<glyph unicode="P" horiz-adv-x="601" d="M18 514q0 95 91.5 165.5t213.5 70.5q129 0 203 -61t74 -154q0 -94 -64 -172t-174 -78h-22v-285h-108v641l108 15v-340q82 1 124 61.5t42 142.5q0 37 -7 67t-26.5 61t-61 48.5t-103.5 17.5q-92 0 -152 -54t-60 -148q0 -81 42 -119q-120 0 -120 121z" />
<glyph unicode="Q" horiz-adv-x="727" d="M17 503q0 102 103 174.5t246 72.5q71 0 126 -21t89 -55.5t55.5 -84t30 -100.5t8.5 -110q0 -231 -110 -329q25 -25 43 -39.5t46.5 -27t59.5 -12.5q10 0 24 2q-8 -34 -26 -49t-51 -15q-35 0 -65 17.5t-45.5 36.5t-38.5 52q-47 -21 -104 -21q-108 0 -175 79t-67 251 q0 61 9 118t28.5 108.5t55 82.5t82.5 31q26 0 51 -8q-47 -28 -75 -133.5t-28 -219.5q0 -108 27 -167q41 14 82 14q50 0 94 -32q62 87 62 286q0 92 -15 155.5t-44.5 96t-63.5 45.5t-80 13q-106 0 -177.5 -59t-71.5 -167q0 -76 31 -95q-55 0 -85.5 28.5t-30.5 81.5zM334 106 q28 -36 72 -36q29 0 54 17q-31 33 -71 33q-28 0 -55 -14z" />
<glyph unicode="R" horiz-adv-x="652" d="M17 514q0 95 90.5 165.5t216.5 70.5q118 0 187 -45.5t69 -119.5q0 -44 -24 -89t-68 -73q68 -10 90.5 -51.5t22.5 -112.5q0 -26 -2.5 -81t-2.5 -73q0 -85 57 -105q-57 -17 -86 -17q-43 0 -65.5 28t-22.5 75q0 26 5.5 91.5t5.5 90.5q0 120 -95 120q-28 0 -56 -7v-381h-108 v641l108 15v-233h26q57 0 92 46.5t35 105.5q0 58 -39 98.5t-134 40.5t-156 -55.5t-61 -149.5q0 -19 1.5 -35t4 -27.5t5 -19.5t6.5 -14l6 -9t5.5 -6.5l4.5 -4.5q-48 0 -83 30t-35 91z" />
<glyph unicode="S" horiz-adv-x="493" d="M34 149q0 55 29.5 100.5t79.5 45.5q23 0 38 -12.5t27 -44.5q-43 -2 -61.5 -29t-18.5 -59q0 -50 39.5 -78.5t84.5 -28.5q47 0 76.5 36t29.5 100q0 45 -16 78t-42 52.5t-57 35t-62.5 31t-57.5 35.5t-42 54.5t-16 81.5q0 96 59 149t142 53q18 0 36.5 -2t44.5 -10.5 t45.5 -22.5t33.5 -40.5t14 -61.5q0 -39 -16.5 -61.5t-43.5 -22.5q-24 0 -43 21q29 21 29 69q0 38 -24.5 66.5t-71.5 28.5q-51 0 -79.5 -34.5t-28.5 -86.5q0 -39 17.5 -68t45.5 -46.5t61.5 -33t67.5 -34t62 -42.5t45.5 -64.5t17.5 -94.5q0 -112 -67.5 -166.5t-165.5 -54.5 q-86 0 -149 40.5t-63 120.5z" />
<glyph unicode="T" horiz-adv-x="671" d="M20 537q0 91 72.5 151.5t225.5 60.5q56 0 133 -11.5t116 -11.5q70 0 118 21q3 -18 3 -34q0 -83 -106 -83q-55 0 -164 24v-654h-108v670q-14 2 -40 2q-88 0 -130.5 -32t-42.5 -109q0 -92 41 -139q-118 0 -118 145z" />
<glyph unicode="U" horiz-adv-x="770" d="M16 513q0 96 92.5 166.5t214.5 70.5q21 0 47 -5v-538q0 -82 33 -109.5t89 -27.5t89.5 28t33.5 111v539h110v-542q0 -34 -9.5 -66t-33 -67.5t-74.5 -57.5t-124 -22q-58 0 -102.5 15t-69.5 37.5t-40 52.5t-20 55.5t-5 51.5v502q-75 -17 -116 -69t-41 -132q0 -22 3 -40 t8 -30t9.5 -20t9.5 -14.5t6 -7.5q-44 0 -77 31.5t-33 87.5z" />
<glyph unicode="V" horiz-adv-x="644" d="M19 526q0 95 69.5 159.5t188.5 64.5q15 0 43 -4l133 -666l139 665h57l-168 -745h-111l-149 693q-74 0 -105.5 -45t-31.5 -114q0 -79 47 -140q-48 0 -80 30t-32 102z" />
<glyph unicode="W" horiz-adv-x="996" d="M19 526q0 95 69.5 159.5t188.5 64.5q15 0 43 -4l143 -666l129 665h74l143 -665l129 665h57l-158 -745h-111l-120 542l-115 -542h-111l-159 693q-70 0 -103.5 -46t-33.5 -113q0 -79 47 -140q-48 0 -80 30t-32 102z" />
<glyph unicode="X" horiz-adv-x="615" d="M20 526q0 98 73.5 161.5t174.5 63.5q22 0 41 -3l129 -301l118 298h47l-140 -357l167 -388h-108l-131 301l-122 -301h-47l143 360l-153 354q-54 -15 -88 -70.5t-34 -124.5q0 -79 37 -116q-54 0 -80.5 26t-26.5 97z" />
<glyph unicode="Y" horiz-adv-x="608" d="M20 524q0 95 66 160.5t173 65.5q15 0 41 -2l145 -384l129 381h52l-160 -437v-308h-108v308l-157 406q-63 -17 -91 -68t-28 -116q0 -79 50 -137q-112 0 -112 131z" />
<glyph unicode="Z" horiz-adv-x="489" d="M18 0l329 705q-75 5 -143 5q-82 0 -85 -20q24 -16 24 -41q0 -17 -12 -29.5t-31 -12.5q-25 0 -47 20t-22 50q0 29 30.5 51t79.5 22h340l-328 -697q13 0 58.5 -1.5t72.5 -1.5q106 0 115 21q-25 16 -25 42q0 18 13.5 29t33.5 11q24 0 44.5 -16t20.5 -44q0 -36 -30 -64.5 t-77 -28.5h-361z" />
<glyph unicode="[" horiz-adv-x="285" d="M71 -250v1000h193v-62h-120v-876h121v-62h-194z" />
<glyph unicode="\" horiz-adv-x="504" d="M14 750h50l425 -1000h-50z" />
<glyph unicode="]" horiz-adv-x="285" d="M20 -188h121v876h-120v62h193v-1000h-194v62z" />
<glyph unicode="^" horiz-adv-x="421" d="M-64 561l166 167h21l96 -167h-22l-86 101l-141 -101h-34z" />
<glyph unicode="_" horiz-adv-x="438" d="M44 0v70h350v-70h-350z" />
<glyph unicode="`" horiz-adv-x="201" d="M-128 750h85l71 -189h-55z" />
<glyph unicode="a" d="M32 223q0 67 18 128.5t63 107.5t109 46q68 0 93 -53v48h100v-340q0 -90 45 -90q49 0 72 109h37q-11 -59 -27.5 -98.5t-37 -57t-37.5 -23.5t-37 -6q-78 0 -97 95q-16 -41 -50.5 -68t-79.5 -27q-70 0 -120.5 56.5t-50.5 172.5zM137 230q0 -160 91 -160q32 0 59.5 32.5 t27.5 76.5v228q-18 43 -59 43q-40 0 -68.5 -36.5t-39.5 -84.5t-11 -99z" />
<glyph unicode="b" horiz-adv-x="418" d="M46 179l1 507l100 14v-237q37 39 95 39q29 0 56.5 -10t53.5 -32.5t41.5 -67t15.5 -106.5q0 -122 -57.5 -207t-161.5 -85q-144 0 -144 185zM147 153q0 -90 59 -90q54 0 84 58.5t30 141.5q0 80 -28 133.5t-77 53.5q-37 0 -68 -34v-263z" />
<glyph unicode="c" horiz-adv-x="364" d="M35 227q0 47 8 91t27 88.5t57.5 71.5t92.5 27q63 0 96 -30.5t33 -89.5q0 -26 -10 -42.5t-29 -16.5q-22 0 -37 21q17 14 17 52q0 24 -14.5 38.5t-40.5 14.5q-34 0 -56 -34.5t-30 -79.5t-8 -98q0 -97 31 -133.5t87 -36.5q102 0 152 109h34q-25 -76 -86.5 -130.5 t-132.5 -54.5q-79 0 -135 56.5t-56 176.5z" />
<glyph unicode="d" d="M32 223q0 67 18 128.5t63 107.5t109 46q68 0 93 -53v234l100 14v-540q0 -90 45 -90q49 0 72 109h37q-11 -59 -27.5 -98.5t-37 -57t-37.5 -23.5t-37 -6q-78 0 -97 95q-16 -41 -50.5 -68t-79.5 -27q-70 0 -120.5 56.5t-50.5 172.5zM137 230q0 -160 91 -160q32 0 59.5 32.5 t27.5 76.5v228q-18 43 -59 43q-40 0 -68.5 -36.5t-39.5 -84.5t-11 -99z" />
<glyph unicode="e" horiz-adv-x="368" d="M35 225q0 46 10 92t31 89.5t60 71t90 27.5q133 0 133 -130q0 -70 -58 -117t-159 -58q7 -74 37 -102t78 -28q109 0 158 109h32q-26 -76 -91.5 -130.5t-139.5 -54.5q-77 0 -129 56t-52 175zM141 239q71 11 112.5 50.5t41.5 95.5q0 71 -50 71q-33 0 -57.5 -34.5t-35.5 -82.5 t-11 -100z" />
<glyph unicode="f" horiz-adv-x="239" d="M-84 -153q0 83 130 139v590q0 84 40 129t106 45q62 0 100.5 -38.5t38.5 -111.5h-39q-6 43 -22.5 64.5t-50.5 21.5q-44 0 -58.5 -34.5t-14.5 -103.5v-48h81v-35h-81v-545q0 -97 -33.5 -133.5t-91.5 -36.5q-105 0 -105 97zM-45 -150q0 -20 13 -34t33 -14q27 0 36 28.5 t9 87.5v31q-91 -44 -91 -99z" />
<glyph unicode="g" d="M32 233q0 65 18 124t63 103.5t109 44.5q68 0 93 -53v48h100v-479q56 18 81.5 48.5t35.5 109.5h37q-15 -99 -47.5 -135.5t-106.5 -58.5v-64q0 -88 -35 -129.5t-90 -41.5q-48 0 -77 28t-29 70q0 86 131 140v86q-43 -60 -112 -60q-70 0 -120.5 54t-50.5 165zM137 240 q0 -150 91 -150q32 0 59.5 31t27.5 73v213q-18 43 -59 43q-40 0 -68.5 -35t-39.5 -80.5t-11 -94.5zM223 -148q0 -23 13 -36.5t35 -13.5q25 0 34.5 19t9.5 57v70q-92 -42 -92 -96z" />
<glyph unicode="h" horiz-adv-x="467" d="M46 0v686l100 14v-276q43 81 120 81q137 0 137 -179q0 -23 -3 -83t-3 -87q0 -86 45 -86q49 0 72 109h37q-33 -185 -137 -185q-59 0 -88 43.5t-29 109.5q0 12 1.5 86t1.5 88q0 108 -64 108q-63 0 -90 -109v-320h-100z" />
<glyph unicode="i" horiz-adv-x="217" d="M29 644q0 27 19.5 47t46.5 20t47 -20t20 -47t-20 -46.5t-47 -19.5q-28 0 -47 19t-19 47zM47 139v361h100v-340q0 -90 45 -90q49 0 72 109h37q-11 -59 -27.5 -98.5t-37 -57t-37.5 -23.5t-37 -6q-62 0 -88.5 43t-26.5 102z" />
<glyph unicode="j" horiz-adv-x="217" d="M-84 -152q0 86 131 140v512h100v-479q56 18 81.5 48.5t35.5 109.5h37q-15 -99 -47.5 -135.5t-106.5 -58.5v-64q0 -88 -35 -129.5t-90 -41.5q-48 0 -77 28t-29 70zM-45 -148q0 -23 13 -36.5t35 -13.5q25 0 34.5 19t9.5 57v70q-92 -42 -92 -96zM29 644q0 27 19.5 47 t46.5 20t47 -20t20 -47t-20 -46.5t-47 -19.5q-28 0 -47 19t-19 47z" />
<glyph unicode="k" horiz-adv-x="457" d="M46 0v686l100 14v-363l172 163h97l-167 -135h10q136 0 136 -156q0 -15 -1.5 -47.5t-1.5 -39.5q0 -52 39 -52q52 0 75 109h37q-9 -49 -23 -85t-27.5 -54.5t-31 -29.5t-30 -13.5t-27.5 -2.5q-57 0 -85 32t-28 82q0 5 0.5 45.5t0.5 47.5q0 88 -63 88q-55 0 -82 -77v-212 h-100z" />
<glyph unicode="l" horiz-adv-x="216" d="M47 139v547l100 14v-540q0 -90 45 -90q49 0 72 109h37q-11 -59 -27.5 -98.5t-37 -57t-37.5 -23.5t-37 -6q-62 0 -88.5 43t-26.5 102z" />
<glyph unicode="m" horiz-adv-x="693" d="M46 0v500h100v-69q39 74 110 74q90 0 118 -89q41 89 115 89q137 0 137 -179q0 -23 -3 -83t-3 -87q0 -86 45 -86q49 0 72 109h37q-33 -185 -137 -185q-59 0 -88 43.5t-29 109.5q0 12 1.5 86t1.5 88q0 108 -64 108q-63 0 -78 -109v-320h-100v334q0 44 -11 69.5t-45 25.5 q-30 0 -47.5 -25.5t-31.5 -83.5v-320h-100z" />
<glyph unicode="n" horiz-adv-x="467" d="M46 0v500h100v-76q43 81 120 81q137 0 137 -179q0 -23 -3 -83t-3 -87q0 -86 45 -86q49 0 72 109h37q-33 -185 -137 -185q-59 0 -88 43.5t-29 109.5q0 12 1.5 86t1.5 88q0 108 -64 108q-63 0 -90 -109v-320h-100z" />
<glyph unicode="o" horiz-adv-x="419" d="M34 227q0 48 10 93.5t31 88.5t61 69.5t93 26.5q134 0 157 -158h6q79 0 137 60l15 -27q-19 -31 -61.5 -52.5t-91.5 -29.5q0 -6 0.5 -20t0.5 -21q0 -123 -45 -193t-126 -70q-76 0 -131.5 57t-55.5 176zM142 231q0 -88 28 -124.5t69 -36.5q103 0 103 201q0 16 -1 24 q-29 2 -41.5 13.5t-12.5 36.5q0 23 10 32.5t30 10.5q-22 62 -72 62q-39 0 -65.5 -35.5t-37 -82.5t-10.5 -101z" />
<glyph unicode="p" horiz-adv-x="423" d="M46 -250v787h101v-77q43 45 104 45q74 0 120 -63t46 -185t-47 -192.5t-125 -70.5q-60 0 -98 48v-267zM147 92q27 -34 66 -34q48 0 76 57.5t28 145.5q0 94 -30.5 136.5t-70.5 42.5q-43 0 -69 -48v-300z" />
<glyph unicode="q" horiz-adv-x="445" d="M32 223q0 67 18 128.5t63 107.5t109 46q68 0 92 -51v46h101v-725l-101 -25v303q-42 -59 -111 -59q-70 0 -120.5 56.5t-50.5 172.5zM137 230q0 -160 91 -160q29 0 55.5 28t30.5 67v245q-18 40 -58 40t-68.5 -36.5t-39.5 -84.5t-11 -99z" />
<glyph unicode="r" horiz-adv-x="336" d="M46 0v500h100v-84q19 29 32 45t36 30t50 14q32 0 49 -17t17 -43q0 -27 -15 -39.5t-31 -12.5q-11 0 -26 12.5t-30 12.5q-34 0 -82 -50v-368h-100z" />
<glyph unicode="s" horiz-adv-x="342" d="M24 142q0 53 36 73q3 7 17.5 47.5t18.5 53t15 46.5t15.5 52.5t10 45.5t7.5 51l101 20q14 -58 32 -127t24.5 -96t14 -62.5t10 -59t2.5 -54.5q25 17 61 47h42q-42 -58 -119 -113q-21 -36 -61 -54t-78 -18q-79 0 -114 44.5t-35 103.5zM71 143q16 -74 81 -74q70 0 70 70 q0 37 -5 65.5t-21.5 93t-29.5 126.5q-4 -33 -13 -68t-23.5 -77.5t-21.5 -66.5q22 -15 22 -44q0 -18 -9.5 -28.5t-22.5 -10.5q-16 0 -27 14z" />
<glyph unicode="t" horiz-adv-x="236" d="M13 465v35h34v138l100 14v-152h77v-35h-77v-305q0 -90 47 -90q28 0 52 28t38 81h37q-16 -59 -36 -98.5t-42 -57t-39.5 -23.5t-38.5 -6q-65 0 -91.5 42.5t-26.5 102.5v326h-34z" />
<glyph unicode="u" horiz-adv-x="454" d="M46 149v351h100v-340q0 -90 60 -90q31 0 54.5 30t23.5 79v321h100v-340q0 -90 45 -90q49 0 72 109h37q-11 -59 -27.5 -98.5t-37 -57t-37.5 -23.5t-37 -6q-78 0 -97 94q-18 -47 -48.5 -70.5t-66.5 -23.5q-64 0 -102.5 37t-38.5 118z" />
<glyph unicode="v" horiz-adv-x="399" d="M46 131v369h100v-340q0 -90 58 -90q39 0 65 39t36.5 93t10.5 118q0 62 -9 105q-7 -8 -26 -8q-22 0 -35 16t-13 37t13.5 36t37.5 15q38 0 61 -44.5t23 -139.5q0 -61 -10 -118t-30.5 -109.5t-58 -84t-86.5 -31.5q-55 0 -96 37t-41 100z" />
<glyph unicode="w" horiz-adv-x="623" d="M46 149v351h100v-340q0 -90 60 -90q31 0 54.5 30t23.5 79v321h100v-340q0 -90 58 -90q39 0 65 39t36.5 93t10.5 118q0 62 -9 105q-7 -8 -26 -8q-22 0 -35 16t-13 37t13.5 36t37.5 15q38 0 61 -44.5t23 -139.5q0 -61 -10 -118t-30.5 -109.5t-58 -84t-86.5 -31.5 q-40 0 -74.5 20.5t-51.5 57.5q-38 -78 -108 -78q-64 0 -102.5 37t-38.5 118z" />
<glyph unicode="x" horiz-adv-x="498" d="M45 177q4 19 11.5 64.5t13 74.5t17 68.5t25 63t36 40.5t51.5 17q41 0 66.5 -30t46.5 -89l40 -111q76 105 76 167q0 12 -1 17q-9 -4 -21 -4q-23 0 -39 15t-16 38q0 22 15 37t38 15q30 0 49.5 -26.5t19.5 -72.5q0 -50 -25.5 -102.5t-79.5 -127.5l20 -53q20 -55 38 -81.5 t42 -26.5q28 0 51.5 33.5t26.5 72.5h30q-4 -55 -21.5 -93.5t-41.5 -56.5t-44.5 -25t-39.5 -7q-44 0 -76.5 39.5t-66.5 131.5l-105 -165h-68l155 216l-44 124q-18 51 -30 70.5t-26 19.5q-56 0 -86 -253h-37z" />
<glyph unicode="y" horiz-adv-x="454" d="M46 149v351h100v-340q0 -90 60 -90q30 0 54 28.5t24 75.5v326h100v-479q56 18 81.5 48.5t35.5 109.5h37q-15 -99 -47.5 -135.5t-106.5 -58.5v-64q0 -88 -35 -129.5t-90 -41.5q-48 0 -77 28t-29 70q0 86 131 140v63q-38 -57 -97 -57q-64 0 -102.5 37t-38.5 118zM192 -148 q0 -23 13 -36.5t35 -13.5q25 0 34.5 19t9.5 57v70q-92 -42 -92 -96z" />
<glyph unicode="z" horiz-adv-x="414" d="M61 441q0 59 103 59h248l-214 -430q102 -6 129 -6q37 0 41 21q-7 2 -12.5 10t-5.5 16q0 15 12 24t29 9q23 0 40.5 -15.5t17.5 -43.5q0 -32 -32 -58.5t-82 -26.5h-262l216 446h-86q-57 0 -57 -14q0 -6 8.5 -16t8.5 -16q0 -11 -13 -21t-32 -10q-27 0 -42 21t-15 51z" />
<glyph unicode="{" horiz-adv-x="257" d="M35 226v56q18 -3 31 -3q52 0 52 67q0 37 -27 126t-27 133q0 57 29.5 101t93.5 44q23 0 44 -6v-47q-5 0 -15 2t-15 2q-80 0 -80 -99q0 -49 27 -144t27 -134q0 -42 -20 -70q20 -28 20 -70q0 -39 -27 -134t-27 -144q0 -99 80 -99q5 0 15 2t15 2v-47q-21 -6 -44 -6 q-64 0 -93.5 44t-29.5 101q0 44 27 133t27 126q0 67 -52 67q-13 0 -31 -3z" />
<glyph unicode="|" horiz-adv-x="195" d="M71 -250v1001h53v-1001h-53z" />
<glyph unicode="}" horiz-adv-x="257" d="M26 697v47q21 6 44 6q64 0 93.5 -44t29.5 -101q0 -44 -27 -133t-27 -126q0 -67 52 -67q13 0 31 3v-56q-18 3 -31 3q-52 0 -52 -67q0 -37 27 -126t27 -133q0 -57 -29.5 -101t-93.5 -44q-22 0 -43 6v47q5 0 14.5 -2t14.5 -2q80 0 80 99q0 49 -27 144t-27 134q0 42 20 70 q-20 28 -20 70q0 39 27 134t27 144q0 99 -80 99q-5 0 -15 -2t-15 -2z" />
<glyph unicode="~" horiz-adv-x="401" d="M31 592q26 88 131 88q35 0 83 -14.5t72 -14.5q38 0 53 20h5q-1 -33 -38.5 -61.5t-87.5 -28.5q-31 0 -83 16.5t-75 16.5q-34 0 -55 -24z" />
<glyph unicode="&#xa1;" horiz-adv-x="226" d="M45 391q0 27 20 46.5t47 19.5q28 0 47 -19t19 -47q0 -27 -19.5 -47t-46.5 -20t-47 20t-20 47zM57 -248l31 469h53l28 -469h-112z" />
<glyph unicode="&#xa2;" horiz-adv-x="373" d="M28 352q0 53 12.5 102.5t50 93.5t95.5 52l-2 118h58l-3 -118q45 -5 72 -32.5t27 -73.5q0 -53 -35 -53q-18 0 -34 19q16 12 16 47q0 18 -13.5 32.5t-33.5 18.5l-8 -347h6q59 0 105 44q0 -52 -32.5 -78.5t-79.5 -32.5l-4 -171h-27l-3 170q-70 4 -118.5 55t-48.5 154z M123 364q0 -65 15.5 -101t54.5 -47l-6 330q-32 -22 -48 -73.5t-16 -108.5z" />
<glyph unicode="&#xa3;" horiz-adv-x="472" d="M21 343q20 68 87 83l9 293l97 22l-10 -316q11 -3 32.5 -9.5t37.5 -10t33 -3.5q38 0 53 20h5q-1 -33 -38.5 -61.5t-87.5 -28.5q-21 0 -37 4l-9 -278q31 10 75.5 10t88.5 9t93 41q1 -9 1 -25q0 -44 -16 -68.5t-44 -24.5h-295l10 362q-12 3 -25 3q-34 0 -55 -24z" />
<glyph unicode="&#xa4;" horiz-adv-x="457" d="M45 492l38 36l56 -56q41 30 91 30q49 0 89 -29l56 56l36 -36l-55 -55q30 -41 30 -92q0 -50 -30 -91l55 -55l-36 -36l-55 55q-40 -29 -90 -29q-51 0 -92 30l-56 -56l-36 36l56 56q-29 40 -29 89q0 50 29 90zM114 346q0 -48 34 -82t82 -34t82 34t34 82t-34 82t-82 34 t-82 -34t-34 -82z" />
<glyph unicode="&#xa5;" horiz-adv-x="501" d="M21 745h112l146 -383l134 383h52l-165 -438h155v-35h-155v-80h154v-35h-154v-157h-108v157h-124v35h124v80h-124v35h124z" />
<glyph unicode="&#xa6;" horiz-adv-x="195" d="M71 222h53v-472h-53v472zM71 301v450h53v-450h-53z" />
<glyph unicode="&#xa7;" horiz-adv-x="519" d="M37 89q0 52 25.5 82.5t58.5 30.5q20 0 35.5 -12t21.5 -36q-32 -3 -44 -17.5t-12 -43.5q0 -54 29.5 -81.5t74.5 -27.5q39 0 68 22.5t29 74.5q0 47 -29 85t-70 64t-82 51t-70 60t-29 78q0 38 20.5 68t54.5 46q-15 31 -15 70q0 73 53 110t138 37q18 0 35.5 -2.5t45 -12 t44.5 -34t17 -61.5q0 -60 -43 -60q-21 0 -39 16q23 15 23 55q0 30 -21.5 51t-60.5 21q-46 0 -73.5 -29t-27.5 -71q0 -41 31 -73.5t75 -56.5t88 -51t75 -70.5t31 -100.5q0 -49 -21.5 -86t-62.5 -48q4 -22 4 -36q0 -73 -50 -114t-138 -41q-20 0 -39.5 2t-48.5 10.5t-50 23 t-36 42.5t-15 65zM116 439q0 -24 36.5 -52.5t83 -54t95.5 -69t69 -91.5q30 18 30 63q0 36 -21.5 66t-56.5 53t-72.5 43.5t-77 47.5t-62.5 55q-24 -21 -24 -61z" />
<glyph unicode="&#xa8;" horiz-adv-x="392" d="M-65 645q0 22 15.5 38t37.5 16t38 -16t16 -38t-16 -37.5t-38 -15.5t-37.5 15t-15.5 38zM94 645q0 22 15.5 38t37.5 16t38 -16t16 -38t-16 -37.5t-38 -15.5q-23 0 -38 15t-15 38z" />
<glyph unicode="&#xa9;" horiz-adv-x="554" d="M35 331q0 107 71 181.5t171 74.5t171 -74t71 -181t-71 -181.5t-171 -74.5q-99 0 -170.5 74.5t-71.5 180.5zM61 331q0 -98 64 -166t154 -68q89 0 153 68t64 166t-64 166t-153 68q-90 0 -154 -68t-64 -166zM136 336q0 65 45.5 106.5t103.5 41.5q41 0 75 -24t48 -71l-37 -14 q-6 31 -31 48t-57 17q-48 0 -75.5 -31t-27.5 -72q0 -45 27.5 -79t74.5 -34q57 0 89 49l34 -23q-21 -31 -56.5 -49.5t-72.5 -18.5q-60 0 -100 45.5t-40 108.5z" />
<glyph unicode="&#xaa;" horiz-adv-x="326" d="M40 594q0 58 26.5 104.5t81.5 46.5q35 0 50 -27v22h55v-181q0 -49 24 -49q10 0 16 2q-1 -46 -39 -46q-44 0 -50 46q-23 -46 -69 -46q-38 0 -66.5 32t-28.5 96zM99 600q0 -91 53 -91q18 0 32 18t14 43v123q-11 21 -32 21q-35 0 -51 -35t-16 -79z" />
<glyph unicode="&#xab;" horiz-adv-x="514" d="M21 254l175 195l51 -45l-143 -151l167 -140l-31 -44zM229 254l175 195l51 -45l-143 -151l167 -140l-31 -44z" />
<glyph unicode="&#xac;" horiz-adv-x="453" d="M41 231v70h350l2 -250h-81v180h-271z" />
<glyph unicode="&#xad;" horiz-adv-x="319" d="M59 231v70h201v-70h-201z" />
<glyph unicode="&#xae;" horiz-adv-x="554" d="M35 334q0 107 71 181.5t171 74.5t171 -74t71 -181t-71 -181.5t-171 -74.5q-99 0 -170.5 74.5t-71.5 180.5zM61 334q0 -98 64 -166t154 -68q89 0 153 68t64 166t-64 166t-153 68q-90 0 -154 -68t-64 -166zM185 192l1 291h98q100 0 100 -84q0 -61 -57 -77l63 -125l-37 -6 l-62 124h-70v-123h-36zM221 350h66q25 0 43 11.5t18 37.5q0 46 -63 46h-64v-95z" />
<glyph unicode="&#xb0;" horiz-adv-x="317" d="M42 539q0 72 31.5 117.5t87.5 45.5q61 0 87.5 -45.5t26.5 -114.5q0 -68 -29 -118t-89 -50q-53 0 -84 41.5t-31 123.5zM98 535q0 -17 2.5 -34.5t8.5 -39t20 -35t35 -13.5q29 0 44.5 36.5t15.5 92.5q0 128 -59 128q-31 0 -49 -38.5t-18 -96.5z" />
<glyph unicode="&#xb1;" horiz-adv-x="477" d="M53 77v70h368v-70h-368zM56 351v70h142v122h82v-122h143v-70h-144v-143h-81v143h-142z" />
<glyph unicode="&#xb2;" horiz-adv-x="344" d="M41 673q0 31 28 53.5t87 22.5q118 0 118 -101q0 -43 -22 -80.5t-49.5 -59.5t-56.5 -50t-39 -52q22 0 60.5 -6t54.5 -6q48 0 78 40q1 -2 3.5 -8.5t4 -14.5t1.5 -18q0 -53 -59 -53q-22 0 -69.5 9t-63.5 9q-29 0 -54 -15q-9 20 -9 33q0 28 16.5 56t39.5 52.5t46 49.5 t39.5 56t16.5 63q0 34 -17 52t-43 18q-24 0 -39 -13t-15 -32q0 -26 26 -43q-20 -16 -39 -16t-31.5 16t-12.5 38z" />
<glyph unicode="&#xb3;" horiz-adv-x="344" d="M41 444q0 33 15 50.5t38 17.5q26 0 41 -24q-39 -10 -39 -50q0 -31 19 -48t46 -17q32 0 55.5 24t23.5 68q0 25 -9 44.5t-25.5 31.5t-28 18t-29.5 12q38 10 55.5 36.5t17.5 55.5q0 30 -18.5 46t-43.5 16q-23 0 -39.5 -12.5t-16.5 -33.5q0 -27 25 -39q-16 -18 -36 -18 q-18 0 -29.5 15.5t-11.5 37.5q0 35 33 55t78 20q46 0 79 -22t33 -64q0 -62 -55 -89q48 -13 69 -43t21 -63q0 -61 -41.5 -94t-98.5 -33q-52 0 -90 27t-38 75z" />
<glyph unicode="&#xb4;" horiz-adv-x="287" d="M-8 561l51 189h85l-81 -189h-55z" />
<glyph unicode="&#xb5;" horiz-adv-x="454" d="M46 -166v666h100v-340q0 -90 60 -90q31 0 54.5 30t23.5 79v321h100v-340q0 -90 45 -90q49 0 72 109h37q-11 -59 -27.5 -98.5t-37 -57t-37.5 -23.5t-37 -6q-78 0 -97 94q-18 -47 -48.5 -70.5t-66.5 -23.5q-19 0 -41 5v-141z" />
<glyph unicode="&#xb6;" horiz-adv-x="517" d="M22 539q0 86 51.5 148t149.5 62q97 0 162 -57t65 -178v-595h-73v385q-31 -11 -68 -16v-369h-73v367q-97 12 -155.5 86t-58.5 167z" />
<glyph unicode="&#xb7;" horiz-adv-x="253" d="M44 267q0 35 24 59t58 24t58.5 -24t24.5 -59q0 -34 -24 -58t-59 -24q-34 0 -58 23.5t-24 58.5z" />
<glyph unicode="&#xb8;" horiz-adv-x="227" d="M40 -190q12 32 33 32q13 0 40 -15t41 -15q18 0 29.5 12t11.5 27q0 19 -16 35.5t-44 16.5q-30 0 -57 -22l21 148l40 -23l-13 -72q30 8 51 8q75 0 75 -70q0 -42 -29 -66t-70 -24q-53 0 -113 28z" />
<glyph unicode="&#xb9;" horiz-adv-x="195" d="M25 682l2 25q23 0 54.5 11t51.5 31v-404h-53v337h-55z" />
<glyph unicode="&#xba;" horiz-adv-x="301" d="M39 593q0 58 26.5 105.5t85.5 47.5q63 0 82 -73q11 0 20 9t13 19l10 -12q-9 -42 -36 -55q1 -10 1 -31q0 -61 -23.5 -99.5t-65.5 -38.5q-48 0 -80.5 30.5t-32.5 97.5zM98 595q0 -88 67 -88q21 0 34 28.5t13 75.5q0 3 -0.5 9t-0.5 9q-27 0 -27 30q0 21 18 26q-13 31 -42 31 q-30 0 -46 -38t-16 -83z" />
<glyph unicode="&#xbb;" horiz-adv-x="517" d="M36 405l31 44l219 -185l-175 -195l-51 45l143 151zM244 405l31 44l219 -185l-175 -195l-51 45l143 151z" />
<glyph unicode="&#xbc;" horiz-adv-x="660" d="M22 640l2 25q23 0 54.5 11t51.5 31v-404h-53v337h-55zM146 0l247 750h60l-247 -750h-60zM386 149q2 17 25 85t23 106q0 32 -15 65q21 0 42 -20t21 -52t-26 -85t-30 -68h114v217l59 8v-225h37l-3 -31h-34v-149h-59v149h-154z" />
<glyph unicode="&#xbd;" horiz-adv-x="670" d="M22 640l2 25q23 0 54.5 11t51.5 31v-404h-53v337h-55zM134 0l247 750h60l-247 -750h-60zM380 333q0 31 28 53.5t87 22.5q118 0 118 -101q0 -43 -22 -80.5t-49.5 -59.5t-56.5 -50t-39 -52q22 0 60.5 -6t54.5 -6q48 0 78 40q1 -2 3.5 -8.5t4 -14.5t1.5 -18q0 -53 -59 -53 q-22 0 -69.5 9t-63.5 9q-30 0 -55 -15q-8 13 -8 33q0 28 16.5 56t39.5 52.5t46 49.5t39.5 56t16.5 63q0 34 -17 52t-43 18q-24 0 -39 -13t-15 -32q0 -26 26 -43q-20 -16 -39 -16t-31.5 16t-12.5 38z" />
<glyph unicode="&#xbe;" horiz-adv-x="796" d="M29 401q0 33 15 50.5t38 17.5q26 0 41 -24q-39 -10 -39 -50q0 -31 19 -48t46 -17q32 0 55.5 24t23.5 68q0 25 -9 44.5t-25.5 31.5t-28 18t-29.5 12q38 10 55.5 36.5t17.5 55.5q0 30 -18.5 46t-43.5 16q-23 0 -39.5 -12.5t-16.5 -33.5q0 -27 25 -39q-17 -18 -36 -18 q-18 0 -29.5 15.5t-11.5 37.5q0 35 33 55t78 20q46 0 79 -22t33 -64q0 -61 -55 -89q48 -13 69 -43t21 -63q0 -61 -41.5 -94t-98.5 -33q-52 0 -90 27t-38 75zM263 0l247 750h60l-247 -750h-60zM524 149q2 17 25 85t23 106q0 32 -15 65q21 0 42 -20t21 -52t-26 -85t-30 -68 h114v217l59 8v-225h37l-3 -31h-34v-149h-59v149h-154z" />
<glyph unicode="&#xbf;" horiz-adv-x="413" d="M30 -93q0 40 18.5 74.5t45.5 60.5t54 51t47 58t22 70h46q3 -15 3 -28q0 -30 -14.5 -59.5t-35.5 -54t-42 -49.5t-35.5 -57.5t-14.5 -66.5q0 -56 31 -82.5t75 -26.5q37 0 64.5 22.5t27.5 57.5q0 25 -22 49t-62 30q16 42 64 42q38 0 67.5 -28.5t29.5 -77.5q0 -55 -44 -97 t-135 -42q-92 0 -141 43t-49 111zM173 392q0 27 20 46.5t47 19.5q28 0 47 -19t19 -47q0 -27 -19.5 -47t-46.5 -20t-47 20t-20 47z" />
<glyph unicode="&#xc0;" horiz-adv-x="603" d="M-43 351q0 47 53.5 75t136.5 28q15 0 47 -2q55 132 128 215t155 83q44 0 80 -14v-736h-110v360q-74 36 -185 49q-54 -193 -54 -354q0 -104 35 -169q-27 0 -48.5 5.5t-44.5 21.5t-36 51t-13 87q0 159 77 362q-60 -2 -99.5 -17t-39.5 -39q0 -4 1 -6q26 -8 26 -33 q0 -32 -41 -32q-28 0 -48 16t-20 49zM272 442q107 -19 175 -52v312q-47 -3 -93 -74.5t-82 -185.5zM303 1000h85l71 -189h-55z" />
<glyph unicode="&#xc1;" horiz-adv-x="603" d="M-43 351q0 47 53.5 75t136.5 28q15 0 47 -2q55 132 128 215t155 83q44 0 80 -14v-736h-110v360q-74 36 -185 49q-54 -193 -54 -354q0 -104 35 -169q-27 0 -48.5 5.5t-44.5 21.5t-36 51t-13 87q0 159 77 362q-60 -2 -99.5 -17t-39.5 -39q0 -4 1 -6q26 -8 26 -33 q0 -32 -41 -32q-28 0 -48 16t-20 49zM272 442q107 -19 175 -52v312q-47 -3 -93 -74.5t-82 -185.5zM398 811l51 189h85l-81 -189h-55z" />
<glyph unicode="&#xc2;" horiz-adv-x="603" d="M-43 351q0 47 53.5 75t136.5 28q15 0 47 -2q55 132 128 215t155 83q44 0 80 -14v-736h-110v360q-74 36 -185 49q-54 -193 -54 -354q0 -104 35 -169q-27 0 -48.5 5.5t-44.5 21.5t-36 51t-13 87q0 159 77 362q-60 -2 -99.5 -17t-39.5 -39q0 -4 1 -6q26 -8 26 -33 q0 -32 -41 -32q-28 0 -48 16t-20 49zM272 442q107 -19 175 -52v312q-47 -3 -93 -74.5t-82 -185.5zM272 811l166 167h21l96 -167h-22l-86 101l-141 -101h-34z" />
<glyph unicode="&#xc3;" horiz-adv-x="603" d="M-43 351q0 47 53.5 75t136.5 28q15 0 47 -2q55 132 128 215t155 83q44 0 80 -14v-736h-110v360q-74 36 -185 49q-54 -193 -54 -354q0 -104 35 -169q-27 0 -48.5 5.5t-44.5 21.5t-36 51t-13 87q0 159 77 362q-60 -2 -99.5 -17t-39.5 -39q0 -4 1 -6q26 -8 26 -33 q0 -32 -41 -32q-28 0 -48 16t-20 49zM258 836q26 88 131 88q35 0 83 -14.5t72 -14.5q38 0 53 20h5q-1 -33 -38.5 -61.5t-87.5 -28.5q-31 0 -83 16.5t-75 16.5q-34 0 -55 -24zM272 442q107 -19 175 -52v312q-47 -3 -93 -74.5t-82 -185.5z" />
<glyph unicode="&#xc4;" horiz-adv-x="603" d="M-43 351q0 47 53.5 75t136.5 28q15 0 47 -2q55 132 128 215t155 83q44 0 80 -14v-736h-110v360q-74 36 -185 49q-54 -193 -54 -354q0 -104 35 -169q-27 0 -48.5 5.5t-44.5 21.5t-36 51t-13 87q0 159 77 362q-60 -2 -99.5 -17t-39.5 -39q0 -4 1 -6q26 -8 26 -33 q0 -32 -41 -32q-28 0 -48 16t-20 49zM272 442q107 -19 175 -52v312q-47 -3 -93 -74.5t-82 -185.5zM298 895q0 22 15.5 38t37.5 16t38 -16t16 -38t-16 -37.5t-38 -15.5q-23 0 -38 15t-15 38zM457 895q0 22 15.5 38t37.5 16t38 -16t16 -38t-16 -37.5t-38 -15.5t-37.5 15 t-15.5 38z" />
<glyph unicode="&#xc5;" horiz-adv-x="603" d="M-43 351q0 47 53.5 75t136.5 28q15 0 47 -2q55 132 128 215t155 83q44 0 80 -14v-736h-110v360q-74 36 -185 49q-54 -193 -54 -354q0 -104 35 -169q-27 0 -48.5 5.5t-44.5 21.5t-36 51t-13 87q0 159 77 362q-60 -2 -99.5 -17t-39.5 -39q0 -4 1 -6q26 -8 26 -33 q0 -32 -41 -32q-28 0 -48 16t-20 49zM272 442q107 -19 175 -52v312q-47 -3 -93 -74.5t-82 -185.5zM338 886q0 32 21 54.5t57 22.5q37 0 57.5 -24.5t20.5 -58.5q0 -32 -18.5 -53.5t-54.5 -21.5q-39 0 -61 24t-22 57zM378 885q0 -18 11 -32t31 -14q18 0 28 12.5t10 30.5 q0 19 -10 33.5t-29 14.5t-30 -13.5t-11 -31.5z" />
<glyph unicode="&#xc6;" horiz-adv-x="833" d="M10 349q0 49 53 77t137 28q30 0 46 -2q56 132 131.5 215t162.5 83q23 0 85 -9.5t86 -9.5q60 0 111 19q-3 -54 -26 -73.5t-62 -19.5q-44 0 -124 22v-266h147v-59h-147v-284h220v-70h-330v360q-73 35 -185 49q-54 -186 -54 -354q0 -104 35 -169q-28 0 -49.5 6t-44.5 22 t-35.5 52t-12.5 90q0 69 20 166t56 191q-60 -2 -99 -17t-39 -39q0 -4 1 -6q26 -8 26 -32q0 -33 -42 -33q-27 0 -47 16t-20 47zM325 442q107 -19 175 -52v311q-49 -8 -94.5 -78.5t-80.5 -180.5z" />
<glyph unicode="&#xc7;" horiz-adv-x="507" d="M48 350q0 74 12.5 140.5t41 127t82 96.5t126.5 36q80 0 133.5 -40.5t53.5 -115.5q0 -70 -53 -70q-30 0 -47 18q9 7 16.5 29.5t7.5 49.5q0 46 -22.5 69.5t-61.5 23.5q-58 0 -97.5 -51.5t-56.5 -127.5t-17 -168q0 -307 212 -307q127 0 178 120l25 -10q-24 -83 -87 -131 t-150 -54l-9 -51q30 8 51 8q75 0 75 -70q0 -42 -29 -66t-70 -24q-53 0 -113 28q12 32 33 32q13 0 40 -15t41 -15q18 0 29.5 12t11.5 27q0 19 -16 35.5t-44 16.5q-30 0 -57 -22l14 104q-121 6 -187 98.5t-66 266.5z" />
<glyph unicode="&#xc8;" horiz-adv-x="447" d="M41 209q0 73 35.5 127.5t99.5 80.5q-90 57 -90 151q0 73 52 128.5t145 55.5q64 0 108.5 -30t44.5 -97q0 -38 -15 -60t-40 -22q-27 0 -53 27q16 7 28.5 26.5t12.5 45.5q0 36 -23.5 54t-56.5 18q-51 0 -81.5 -41.5t-30.5 -95.5q0 -16 3 -34t13 -45.5t34.5 -49t61.5 -30.5 q-65 -15 -101 -67t-36 -125q0 -75 40 -120t117 -45q68 0 118 34t69 85l25 -10q-26 -87 -101.5 -137.5t-165.5 -50.5q-106 0 -159.5 67.5t-53.5 159.5zM152 1000h85l71 -189h-55z" />
<glyph unicode="&#xc9;" horiz-adv-x="447" d="M41 209q0 73 35.5 127.5t99.5 80.5q-90 57 -90 151q0 73 52 128.5t145 55.5q64 0 108.5 -30t44.5 -97q0 -38 -15 -60t-40 -22q-27 0 -53 27q16 7 28.5 26.5t12.5 45.5q0 36 -23.5 54t-56.5 18q-51 0 -81.5 -41.5t-30.5 -95.5q0 -16 3 -34t13 -45.5t34.5 -49t61.5 -30.5 q-65 -15 -101 -67t-36 -125q0 -75 40 -120t117 -45q68 0 118 34t69 85l25 -10q-26 -87 -101.5 -137.5t-165.5 -50.5q-106 0 -159.5 67.5t-53.5 159.5zM251 811l51 189h85l-81 -189h-55z" />
<glyph unicode="&#xca;" horiz-adv-x="447" d="M41 209q0 73 35.5 127.5t99.5 80.5q-90 57 -90 151q0 73 52 128.5t145 55.5q64 0 108.5 -30t44.5 -97q0 -38 -15 -60t-40 -22q-27 0 -53 27q16 7 28.5 26.5t12.5 45.5q0 36 -23.5 54t-56.5 18q-51 0 -81.5 -41.5t-30.5 -95.5q0 -16 3 -34t13 -45.5t34.5 -49t61.5 -30.5 q-65 -15 -101 -67t-36 -125q0 -75 40 -120t117 -45q68 0 118 34t69 85l25 -10q-26 -87 -101.5 -137.5t-165.5 -50.5q-106 0 -159.5 67.5t-53.5 159.5zM136 811l166 167h21l96 -167h-22l-86 101l-141 -101h-34z" />
<glyph unicode="&#xcb;" horiz-adv-x="447" d="M41 209q0 73 35.5 127.5t99.5 80.5q-90 57 -90 151q0 73 52 128.5t145 55.5q64 0 108.5 -30t44.5 -97q0 -38 -15 -60t-40 -22q-27 0 -53 27q16 7 28.5 26.5t12.5 45.5q0 36 -23.5 54t-56.5 18q-51 0 -81.5 -41.5t-30.5 -95.5q0 -16 3 -34t13 -45.5t34.5 -49t61.5 -30.5 q-65 -15 -101 -67t-36 -125q0 -75 40 -120t117 -45q68 0 118 34t69 85l25 -10q-26 -87 -101.5 -137.5t-165.5 -50.5q-106 0 -159.5 67.5t-53.5 159.5zM128 895q0 22 15.5 38t37.5 16t38 -16t16 -38t-16 -37.5t-38 -15.5q-23 0 -38 15t-15 38zM287 895q0 22 15.5 38t37.5 16 t38 -16t16 -38t-16 -37.5t-38 -15.5t-37.5 15t-15.5 38z" />
<glyph unicode="&#xcc;" horiz-adv-x="403" d="M18 514q0 94 91 165t206 71q16 0 42 -2v-748h-110v691q-68 -19 -106.5 -66t-38.5 -114q0 -48 12 -73.5t34 -44.5q-130 0 -130 121zM170 1000h85l71 -189h-55z" />
<glyph unicode="&#xcd;" horiz-adv-x="403" d="M18 514q0 94 91 165t206 71q16 0 42 -2v-748h-110v691q-68 -19 -106.5 -66t-38.5 -114q0 -48 12 -73.5t34 -44.5q-130 0 -130 121zM272 811l51 189h85l-81 -189h-55z" />
<glyph unicode="&#xce;" horiz-adv-x="403" d="M18 514q0 94 91 165t206 71q16 0 42 -2v-748h-110v691q-68 -19 -106.5 -66t-38.5 -114q0 -48 12 -73.5t34 -44.5q-130 0 -130 121zM156 811l166 167h21l96 -167h-22l-86 101l-141 -101h-34z" />
<glyph unicode="&#xcf;" horiz-adv-x="403" d="M18 514q0 94 91 165t206 71q16 0 42 -2v-748h-110v691q-68 -19 -106.5 -66t-38.5 -114q0 -48 12 -73.5t34 -44.5q-130 0 -130 121zM168 895q0 22 15.5 38t37.5 16t38 -16t16 -38t-16 -37.5t-38 -15.5q-23 0 -38 15t-15 38zM327 895q0 22 15.5 38t37.5 16t38 -16t16 -38 t-16 -37.5t-38 -15.5t-37.5 15t-15.5 38z" />
<glyph unicode="&#xd0;" horiz-adv-x="705" d="M18 515q0 95 91.5 165t224.5 70q92 0 161 -32t108 -87.5t58 -121.5t19 -142q0 -95 -24.5 -182t-69 -142.5t-98.5 -55.5q-61 0 -138 58v-45h-108v352h-64v61h64v228l108 15v-243h82v-61h-82v-274q34 -26 70 -26q49 0 82 50t46 117.5t13 146.5q0 186 -55.5 267t-185.5 81 q-95 0 -160.5 -56.5t-65.5 -150.5q0 -76 55 -114q-131 0 -131 122z" />
<glyph unicode="&#xd1;" horiz-adv-x="709" d="M20 522q0 86 65.5 157t162.5 71q38 0 70 -14l278 -642v654h67v-748h-134l-251 563v-563h-67v689q-117 -40 -117 -169q0 -87 48 -127q-63 0 -92.5 31t-29.5 98zM259 836q26 88 131 88q35 0 83 -14.5t72 -14.5q38 0 53 20h5q-1 -33 -38.5 -61.5t-87.5 -28.5q-31 0 -83 16.5 t-75 16.5q-34 0 -55 -24z" />
<glyph unicode="&#xd2;" horiz-adv-x="702" d="M18 504q0 102 99 174t241 72q71 0 127 -21t91 -56t58 -84t32.5 -102t9.5 -113q0 -71 -13.5 -134.5t-42 -120.5t-83 -91t-127.5 -34q-109 0 -176 79t-67 251q0 61 9 118t28.5 108.5t55 82.5t82.5 31q26 0 51 -8q-47 -28 -75 -133t-28 -217q0 -40 4.5 -75.5t15.5 -74.5 t36 -62.5t61 -23.5q52 0 86.5 50t48 121t13.5 158q0 76 -11.5 132.5t-30.5 91t-47 55.5t-57.5 28.5t-66.5 7.5q-105 0 -172 -58t-67 -166q0 -79 31 -97q-55 0 -85.5 28t-30.5 83zM295 1000h85l71 -189h-55z" />
<glyph unicode="&#xd3;" horiz-adv-x="702" d="M18 504q0 102 99 174t241 72q71 0 127 -21t91 -56t58 -84t32.5 -102t9.5 -113q0 -71 -13.5 -134.5t-42 -120.5t-83 -91t-127.5 -34q-109 0 -176 79t-67 251q0 61 9 118t28.5 108.5t55 82.5t82.5 31q26 0 51 -8q-47 -28 -75 -133t-28 -217q0 -40 4.5 -75.5t15.5 -74.5 t36 -62.5t61 -23.5q52 0 86.5 50t48 121t13.5 158q0 76 -11.5 132.5t-30.5 91t-47 55.5t-57.5 28.5t-66.5 7.5q-105 0 -172 -58t-67 -166q0 -79 31 -97q-55 0 -85.5 28t-30.5 83zM384 811l51 189h85l-81 -189h-55z" />
<glyph unicode="&#xd4;" horiz-adv-x="702" d="M18 504q0 102 99 174t241 72q71 0 127 -21t91 -56t58 -84t32.5 -102t9.5 -113q0 -71 -13.5 -134.5t-42 -120.5t-83 -91t-127.5 -34q-109 0 -176 79t-67 251q0 61 9 118t28.5 108.5t55 82.5t82.5 31q26 0 51 -8q-47 -28 -75 -133t-28 -217q0 -40 4.5 -75.5t15.5 -74.5 t36 -62.5t61 -23.5q52 0 86.5 50t48 121t13.5 158q0 76 -11.5 132.5t-30.5 91t-47 55.5t-57.5 28.5t-66.5 7.5q-105 0 -172 -58t-67 -166q0 -84 31 -97q-55 0 -85.5 28t-30.5 83zM269 811l166 167h21l96 -167h-22l-86 101l-141 -101h-34z" />
<glyph unicode="&#xd5;" horiz-adv-x="702" d="M18 504q0 102 99 174t241 72q71 0 127 -21t91 -56t58 -84t32.5 -102t9.5 -113q0 -71 -13.5 -134.5t-42 -120.5t-83 -91t-127.5 -34q-109 0 -176 79t-67 251q0 61 9 118t28.5 108.5t55 82.5t82.5 31q26 0 51 -8q-47 -28 -75 -133t-28 -217q0 -40 4.5 -75.5t15.5 -74.5 t36 -62.5t61 -23.5q52 0 86.5 50t48 121t13.5 158q0 76 -11.5 132.5t-30.5 91t-47 55.5t-57.5 28.5t-66.5 7.5q-105 0 -172 -58t-67 -166q0 -76 31 -97q-55 0 -85.5 28t-30.5 83zM235 836q26 88 131 88q35 0 83 -14.5t72 -14.5q38 0 53 20h5q-1 -33 -38.5 -61.5t-87.5 -28.5 q-31 0 -83 16.5t-75 16.5q-34 0 -55 -24z" />
<glyph unicode="&#xd6;" horiz-adv-x="702" d="M18 504q0 102 99 174t241 72q71 0 127 -21t91 -56t58 -84t32.5 -102t9.5 -113q0 -71 -13.5 -134.5t-42 -120.5t-83 -91t-127.5 -34q-109 0 -176 79t-67 251q0 61 9 118t28.5 108.5t55 82.5t82.5 31q26 0 51 -8q-47 -28 -75 -133t-28 -217q0 -40 4.5 -75.5t15.5 -74.5 t36 -62.5t61 -23.5q52 0 86.5 50t48 121t13.5 158q0 76 -11.5 132.5t-30.5 91t-47 55.5t-57.5 28.5t-66.5 7.5q-105 0 -172 -58t-67 -166q0 -76 31 -97q-55 0 -85.5 28t-30.5 83zM282 895q0 22 15.5 38t37.5 16t38 -16t16 -38t-16 -37.5t-38 -15.5q-23 0 -38 15t-15 38z M441 895q0 22 15.5 38t37.5 16t38 -16t16 -38t-16 -37.5t-38 -15.5t-37.5 15t-15.5 38z" />
<glyph unicode="&#xd7;" horiz-adv-x="387" d="M42 366l51 52l109 -111l96 96l48 -48l-96 -96l94 -93l-50 -52l-95 94l-106 -106l-48 48l106 106z" />
<glyph unicode="&#xd8;" horiz-adv-x="690" d="M16 504q0 102 99 174t241 72q15 0 43 -2v5h32v-10q67 -13 115.5 -48t75.5 -86.5t39.5 -109t12.5 -125.5t-12.5 -129.5t-39 -117t-76 -91.5t-115.5 -41v-66h-32v65q-106 3 -170 82t-64 248q0 61 9 118t28.5 108.5t55 82.5t82.5 31q26 0 51 -8q-47 -28 -75 -133t-28 -217 q0 -230 111 -236v637q-27 7 -59 7q-105 0 -172 -58t-67 -166q0 -75 31 -97q-55 0 -85.5 28t-30.5 83zM431 73q62 18 92 110t30 216q0 245 -122 298v-624z" />
<glyph unicode="&#xd9;" horiz-adv-x="770" d="M16 513q0 96 92.5 166.5t214.5 70.5q21 0 47 -5v-538q0 -82 33 -109.5t89 -27.5t89.5 28t33.5 111v539h110v-542q0 -34 -9.5 -66t-33 -67.5t-74.5 -57.5t-124 -22q-58 0 -102.5 15t-69.5 37.5t-40 52.5t-20 55.5t-5 51.5v502q-75 -17 -116 -69t-41 -132q0 -22 3 -40 t8 -30t9.5 -20t9.5 -14.5t6 -7.5q-44 0 -77 31.5t-33 87.5zM360 1000h85l71 -189h-55z" />
<glyph unicode="&#xda;" horiz-adv-x="770" d="M16 513q0 96 92.5 166.5t214.5 70.5q21 0 47 -5v-538q0 -82 33 -109.5t89 -27.5t89.5 28t33.5 111v539h110v-542q0 -34 -9.5 -66t-33 -67.5t-74.5 -57.5t-124 -22q-58 0 -102.5 15t-69.5 37.5t-40 52.5t-20 55.5t-5 51.5v502q-75 -17 -116 -69t-41 -132q0 -22 3 -40 t8 -30t9.5 -20t9.5 -14.5t6 -7.5q-44 0 -77 31.5t-33 87.5zM454 811l51 189h85l-81 -189h-55z" />
<glyph unicode="&#xdb;" horiz-adv-x="770" d="M16 513q0 96 92.5 166.5t214.5 70.5q21 0 47 -5v-538q0 -82 33 -109.5t89 -27.5t89.5 28t33.5 111v539h110v-542q0 -34 -9.5 -66t-33 -67.5t-74.5 -57.5t-124 -22q-58 0 -102.5 15t-69.5 37.5t-40 52.5t-20 55.5t-5 51.5v502q-75 -17 -116 -69t-41 -132q0 -22 3 -40 t8 -30t9.5 -20t9.5 -14.5t6 -7.5q-44 0 -77 31.5t-33 87.5zM350 811l166 167h21l96 -167h-22l-86 101l-141 -101h-34z" />
<glyph unicode="&#xdc;" horiz-adv-x="770" d="M16 513q0 96 92.5 166.5t214.5 70.5q21 0 47 -5v-538q0 -82 33 -109.5t89 -27.5t89.5 28t33.5 111v539h110v-542q0 -34 -9.5 -66t-33 -67.5t-74.5 -57.5t-124 -22q-58 0 -102.5 15t-69.5 37.5t-40 52.5t-20 55.5t-5 51.5v502q-75 -17 -116 -69t-41 -132q0 -22 3 -40 t8 -30t9.5 -20t9.5 -14.5t6 -7.5q-44 0 -77 31.5t-33 87.5zM358 895q0 22 15.5 38t37.5 16t38 -16t16 -38t-16 -37.5t-38 -15.5q-23 0 -38 15t-15 38zM517 895q0 22 15.5 38t37.5 16t38 -16t16 -38t-16 -37.5t-38 -15.5t-37.5 15t-15.5 38z" />
<glyph unicode="&#xdd;" horiz-adv-x="608" d="M20 524q0 95 66 160.5t173 65.5q15 0 41 -2l145 -384l129 381h52l-160 -437v-308h-108v308l-157 406q-63 -17 -91 -68t-28 -116q0 -79 50 -137q-112 0 -112 131zM409 811l51 189h85l-81 -189h-55z" />
<glyph unicode="&#xde;" horiz-adv-x="600" d="M18 401q0 76 55 136.5t143 86.5v110l109 15v-109h4q122 0 195.5 -64t73.5 -159q0 -91 -64 -166.5t-174 -75.5q-22 0 -35 1v-176h-109v590q-125 -43 -125 -193q0 -28 5 -50t10.5 -32t12 -19t7.5 -10q-51 0 -79.5 30.5t-28.5 84.5zM325 205h22q76 0 121 60.5t45 146.5 q0 35 -8.5 65.5t-28.5 59.5t-58.5 47t-92.5 20v-399z" />
<glyph unicode="&#xdf;" horiz-adv-x="450" d="M53 -250v780q0 170 146 170q81 0 124.5 -40.5t43.5 -113.5q0 -37 -16.5 -69.5t-48.5 -49.5q138 -43 138 -218q0 -101 -44 -155t-96 -54q-11 0 -33 2v39q36 0 59.5 28t32 65t8.5 81q0 159 -133 188l4 38q39 9 59.5 39.5t20.5 66.5q0 43 -21.5 68t-52.5 25q-32 0 -56 -29.5 t-25 -80.5v-744z" />
<glyph unicode="&#xe0;" d="M32 223q0 67 18 128.5t63 107.5t109 46q68 0 93 -53v48h100v-340q0 -90 45 -90q49 0 72 109h37q-11 -59 -27.5 -98.5t-37 -57t-37.5 -23.5t-37 -6q-78 0 -97 95q-16 -41 -50.5 -68t-79.5 -27q-70 0 -120.5 56.5t-50.5 172.5zM121 750h85l71 -189h-55zM137 230 q0 -160 91 -160q32 0 59.5 32.5t27.5 76.5v228q-18 43 -59 43q-40 0 -68.5 -36.5t-39.5 -84.5t-11 -99z" />
<glyph unicode="&#xe1;" d="M32 223q0 67 18 128.5t63 107.5t109 46q68 0 93 -53v48h100v-340q0 -90 45 -90q49 0 72 109h37q-11 -59 -27.5 -98.5t-37 -57t-37.5 -23.5t-37 -6q-78 0 -97 95q-16 -41 -50.5 -68t-79.5 -27q-70 0 -120.5 56.5t-50.5 172.5zM137 230q0 -160 91 -160q32 0 59.5 32.5 t27.5 76.5v228q-18 43 -59 43q-40 0 -68.5 -36.5t-39.5 -84.5t-11 -99zM205 561l51 189h85l-81 -189h-55z" />
<glyph unicode="&#xe2;" d="M32 223q0 67 18 128.5t63 107.5t109 46q68 0 93 -53v48h100v-340q0 -90 45 -90q49 0 72 109h37q-11 -59 -27.5 -98.5t-37 -57t-37.5 -23.5t-37 -6q-78 0 -97 95q-16 -41 -50.5 -68t-79.5 -27q-70 0 -120.5 56.5t-50.5 172.5zM98 561l166 167h21l96 -167h-22l-86 101 l-141 -101h-34zM137 230q0 -160 91 -160q32 0 59.5 32.5t27.5 76.5v228q-18 43 -59 43q-40 0 -68.5 -36.5t-39.5 -84.5t-11 -99z" />
<glyph unicode="&#xe3;" d="M32 223q0 67 18 128.5t63 107.5t109 46q68 0 93 -53v48h100v-340q0 -90 45 -90q49 0 72 109h37q-11 -59 -27.5 -98.5t-37 -57t-37.5 -23.5t-37 -6q-78 0 -97 95q-16 -41 -50.5 -68t-79.5 -27q-70 0 -120.5 56.5t-50.5 172.5zM67 586q26 88 131 88q35 0 83 -14.5t72 -14.5 q38 0 53 20h5q-1 -33 -38.5 -61.5t-87.5 -28.5q-31 0 -83 16.5t-75 16.5q-34 0 -55 -24zM137 230q0 -160 91 -160q32 0 59.5 32.5t27.5 76.5v228q-18 43 -59 43q-40 0 -68.5 -36.5t-39.5 -84.5t-11 -99z" />
<glyph unicode="&#xe4;" d="M32 223q0 67 18 128.5t63 107.5t109 46q68 0 93 -53v48h100v-340q0 -90 45 -90q49 0 72 109h37q-11 -59 -27.5 -98.5t-37 -57t-37.5 -23.5t-37 -6q-78 0 -97 95q-16 -41 -50.5 -68t-79.5 -27q-70 0 -120.5 56.5t-50.5 172.5zM126 645q0 22 15.5 38t37.5 16t38 -16t16 -38 t-16 -37.5t-38 -15.5q-23 0 -38 15t-15 38zM137 230q0 -160 91 -160q32 0 59.5 32.5t27.5 76.5v228q-18 43 -59 43q-40 0 -68.5 -36.5t-39.5 -84.5t-11 -99zM285 645q0 22 15.5 38t37.5 16t38 -16t16 -38t-16 -37.5t-38 -15.5t-37.5 15t-15.5 38z" />
<glyph unicode="&#xe5;" d="M32 223q0 67 18 128.5t63 107.5t109 46q68 0 93 -53v48h100v-340q0 -90 45 -90q49 0 72 109h37q-11 -59 -27.5 -98.5t-37 -57t-37.5 -23.5t-37 -6q-78 0 -97 95q-16 -41 -50.5 -68t-79.5 -27q-70 0 -120.5 56.5t-50.5 172.5zM137 230q0 -160 91 -160q32 0 59.5 32.5 t27.5 76.5v228q-18 43 -59 43q-40 0 -68.5 -36.5t-39.5 -84.5t-11 -99zM182 636q0 32 21 54.5t57 22.5q37 0 57.5 -24.5t20.5 -58.5q0 -32 -18.5 -53.5t-54.5 -21.5q-39 0 -61 24t-22 57zM222 635q0 -18 11 -32t31 -14q18 0 28 12.5t10 30.5q0 19 -10 33.5t-29 14.5 t-30 -13.5t-11 -31.5z" />
<glyph unicode="&#xe6;" horiz-adv-x="617" d="M46 158q0 132 191 132q34 0 62 -4q6 24 6 59q0 48 -23.5 80t-67.5 32q-70 0 -109 -59l-34 29q59 78 152 78q68 0 138 -46q52 46 114 46q58 0 95.5 -30.5t37.5 -103.5q0 -69 -55 -110t-157 -49q7 -75 32.5 -108.5t81.5 -33.5q109 0 158 109h32q-25 -78 -85 -131.5 t-137 -53.5q-101 0 -151 95q-14 -45 -40.5 -70t-81.5 -25q-64 0 -111.5 37.5t-47.5 126.5zM151 153q0 -38 20.5 -60.5t52.5 -22.5q76 0 79 168q-14 2 -40 2q-112 0 -112 -87zM393 251q71 8 111 43.5t40 90.5q0 71 -50 71q-35 0 -58.5 -30.5t-33 -75t-9.5 -99.5z" />
<glyph unicode="&#xe7;" horiz-adv-x="364" d="M35 227q0 47 8 91t27 88.5t57.5 71.5t92.5 27q63 0 96 -30.5t33 -89.5q0 -26 -10 -42.5t-29 -16.5q-22 0 -37 21q17 14 17 52q0 24 -14.5 38.5t-40.5 14.5q-34 0 -56 -34.5t-30 -79.5t-8 -98q0 -97 31 -133.5t87 -36.5q102 0 152 109h34q-21 -64 -68 -114t-105 -65 l-12 -66q30 8 51 8q75 0 75 -70q0 -42 -29 -66t-70 -24q-53 0 -113 28q12 32 33 32q13 0 40 -15t41 -15q18 0 29.5 12t11.5 27q0 19 -16 35.5t-44 16.5q-30 0 -57 -22l16 113q-80 0 -136.5 56.5t-56.5 176.5z" />
<glyph unicode="&#xe8;" horiz-adv-x="368" d="M35 225q0 46 10 92t31 89.5t60 71t90 27.5q133 0 133 -130q0 -70 -58 -117t-159 -58q7 -74 37 -102t78 -28q109 0 158 109h32q-26 -76 -91.5 -130.5t-139.5 -54.5q-77 0 -129 56t-52 175zM92 750h85l71 -189h-55zM141 239q71 11 112.5 50.5t41.5 95.5q0 71 -50 71 q-33 0 -57.5 -34.5t-35.5 -82.5t-11 -100z" />
<glyph unicode="&#xe9;" horiz-adv-x="368" d="M35 225q0 46 10 92t31 89.5t60 71t90 27.5q133 0 133 -130q0 -70 -58 -117t-159 -58q7 -74 37 -102t78 -28q109 0 158 109h32q-26 -76 -91.5 -130.5t-139.5 -54.5q-77 0 -129 56t-52 175zM141 239q71 11 112.5 50.5t41.5 95.5q0 71 -50 71q-33 0 -57.5 -34.5t-35.5 -82.5 t-11 -100zM201 561l51 189h85l-81 -189h-55z" />
<glyph unicode="&#xea;" horiz-adv-x="368" d="M35 225q0 46 10 92t31 89.5t60 71t90 27.5q133 0 133 -130q0 -70 -58 -117t-159 -58q7 -74 37 -102t78 -28q109 0 158 109h32q-26 -76 -91.5 -130.5t-139.5 -54.5q-77 0 -129 56t-52 175zM78 561l166 167h21l96 -167h-22l-86 101l-141 -101h-34zM141 239 q71 11 112.5 50.5t41.5 95.5q0 71 -50 71q-33 0 -57.5 -34.5t-35.5 -82.5t-11 -100z" />
<glyph unicode="&#xeb;" horiz-adv-x="368" d="M35 225q0 46 10 92t31 89.5t60 71t90 27.5q133 0 133 -130q0 -70 -58 -117t-159 -58q7 -74 37 -102t78 -28q109 0 158 109h32q-26 -76 -91.5 -130.5t-139.5 -54.5q-77 0 -129 56t-52 175zM89 645q0 22 15.5 38t37.5 16t38 -16t16 -38t-16 -37.5t-38 -15.5t-37.5 15 t-15.5 38zM141 239q71 11 112.5 50.5t41.5 95.5q0 71 -50 71q-33 0 -57.5 -34.5t-35.5 -82.5t-11 -100zM248 645q0 22 15.5 38t37.5 16t38 -16t16 -38t-16 -37.5t-38 -15.5q-23 0 -38 15t-15 38z" />
<glyph unicode="&#xec;" horiz-adv-x="217" d="M-35 750h85l71 -189h-55zM47 139v361h100v-340q0 -90 45 -90q49 0 72 109h37q-11 -59 -27.5 -98.5t-37 -57t-37.5 -23.5t-37 -6q-62 0 -88.5 43t-26.5 102z" />
<glyph unicode="&#xed;" horiz-adv-x="217" d="M47 139v361h100v-340q0 -90 45 -90q49 0 72 109h37q-11 -59 -27.5 -98.5t-37 -57t-37.5 -23.5t-37 -6q-62 0 -88.5 43t-26.5 102zM69 561l51 189h85l-81 -189h-55z" />
<glyph unicode="&#xee;" horiz-adv-x="217" d="M-38 561l166 167h21l96 -167h-22l-86 101l-141 -101h-34zM47 139v361h100v-340q0 -90 45 -90q49 0 72 109h37q-11 -59 -27.5 -98.5t-37 -57t-37.5 -23.5t-37 -6q-62 0 -88.5 43t-26.5 102z" />
<glyph unicode="&#xef;" horiz-adv-x="217" d="M-36 645q0 22 15.5 38t37.5 16t38 -16t16 -38t-16 -37.5t-38 -15.5q-23 0 -38 15t-15 38zM47 139v361h100v-340q0 -90 45 -90q49 0 72 109h37q-11 -59 -27.5 -98.5t-37 -57t-37.5 -23.5t-37 -6q-62 0 -88.5 43t-26.5 102zM123 645q0 22 15.5 38t37.5 16t38 -16t16 -38 t-16 -37.5t-38 -15.5t-37.5 15t-15.5 38z" />
<glyph unicode="&#xf0;" d="M32 223q0 67 18 128.5t63 107.5t109 46q68 0 93 -53v55q0 46 -7 77l-70 -19l-6 30l67 18q-16 41 -61 87h35q69 -39 95 -68l72 20l6 -30l-58 -16q27 -48 27 -129v-317q0 -90 45 -90q49 0 72 109h37q-11 -59 -27.5 -98.5t-37 -57t-37.5 -23.5t-37 -6q-78 0 -97 95 q-16 -41 -50.5 -68t-79.5 -27q-70 0 -120.5 56.5t-50.5 172.5zM137 230q0 -160 91 -160q32 0 59.5 32.5t27.5 76.5v228q-18 43 -59 43q-40 0 -68.5 -36.5t-39.5 -84.5t-11 -99z" />
<glyph unicode="&#xf1;" horiz-adv-x="467" d="M46 0v500h100v-76q43 81 120 81q137 0 137 -179q0 -23 -3 -83t-3 -87q0 -86 45 -86q49 0 72 109h37q-33 -185 -137 -185q-59 0 -88 43.5t-29 109.5q0 12 1.5 86t1.5 88q0 108 -64 108q-63 0 -90 -109v-320h-100zM64 586q26 88 131 88q35 0 83 -14.5t72 -14.5q38 0 53 20 h5q-1 -33 -38.5 -61.5t-87.5 -28.5q-31 0 -83 16.5t-75 16.5q-34 0 -55 -24z" />
<glyph unicode="&#xf2;" horiz-adv-x="419" d="M34 227q0 48 10 93.5t31 88.5t61 69.5t93 26.5q134 0 157 -158h6q79 0 137 60l15 -27q-19 -31 -61.5 -52.5t-91.5 -29.5q0 -6 0.5 -20t0.5 -21q0 -123 -45 -193t-126 -70q-76 0 -131.5 57t-55.5 176zM114 750h85l71 -189h-55zM142 231q0 -88 28 -124.5t69 -36.5 q103 0 103 201q0 16 -1 24q-29 2 -41.5 13.5t-12.5 36.5q0 23 10 32.5t30 10.5q-22 62 -72 62q-39 0 -65.5 -35.5t-37 -82.5t-10.5 -101z" />
<glyph unicode="&#xf3;" horiz-adv-x="419" d="M34 227q0 48 10 93.5t31 88.5t61 69.5t93 26.5q134 0 157 -158h6q79 0 137 60l15 -27q-19 -31 -61.5 -52.5t-91.5 -29.5q0 -6 0.5 -20t0.5 -21q0 -123 -45 -193t-126 -70q-76 0 -131.5 57t-55.5 176zM142 231q0 -88 28 -124.5t69 -36.5q103 0 103 201q0 16 -1 24 q-29 2 -41.5 13.5t-12.5 36.5q0 23 10 32.5t30 10.5q-22 62 -72 62q-39 0 -65.5 -35.5t-37 -82.5t-10.5 -101zM209 561l51 189h85l-81 -189h-55z" />
<glyph unicode="&#xf4;" horiz-adv-x="419" d="M34 227q0 48 10 93.5t31 88.5t61 69.5t93 26.5q134 0 157 -158h6q79 0 137 60l15 -27q-19 -31 -61.5 -52.5t-91.5 -29.5q0 -6 0.5 -20t0.5 -21q0 -123 -45 -193t-126 -70q-76 0 -131.5 57t-55.5 176zM96 561l166 167h21l96 -167h-22l-86 101l-141 -101h-34zM142 231 q0 -88 28 -124.5t69 -36.5q103 0 103 201q0 16 -1 24q-29 2 -41.5 13.5t-12.5 36.5q0 23 10 32.5t30 10.5q-22 62 -72 62q-39 0 -65.5 -35.5t-37 -82.5t-10.5 -101z" />
<glyph unicode="&#xf5;" horiz-adv-x="419" d="M34 227q0 48 10 93.5t31 88.5t61 69.5t93 26.5q134 0 157 -158h6q79 0 137 60l15 -27q-19 -31 -61.5 -52.5t-91.5 -29.5q0 -6 0.5 -20t0.5 -21q0 -123 -45 -193t-126 -70q-76 0 -131.5 57t-55.5 176zM69 586q26 88 131 88q35 0 83 -14.5t72 -14.5q38 0 53 20h5 q-1 -33 -38.5 -61.5t-87.5 -28.5q-31 0 -83 16.5t-75 16.5q-34 0 -55 -24zM142 231q0 -88 28 -124.5t69 -36.5q103 0 103 201q0 16 -1 24q-29 2 -41.5 13.5t-12.5 36.5q0 23 10 32.5t30 10.5q-22 62 -72 62q-39 0 -65.5 -35.5t-37 -82.5t-10.5 -101z" />
<glyph unicode="&#xf6;" horiz-adv-x="419" d="M34 227q0 48 10 93.5t31 88.5t61 69.5t93 26.5q134 0 157 -158h6q79 0 137 60l15 -27q-19 -31 -61.5 -52.5t-91.5 -29.5q0 -6 0.5 -20t0.5 -21q0 -123 -45 -193t-126 -70q-76 0 -131.5 57t-55.5 176zM108 645q0 22 15.5 38t37.5 16t38 -16t16 -38t-16 -37.5t-38 -15.5 q-23 0 -38 15t-15 38zM142 231q0 -88 28 -124.5t69 -36.5q103 0 103 201q0 16 -1 24q-29 2 -41.5 13.5t-12.5 36.5q0 23 10 32.5t30 10.5q-22 62 -72 62q-39 0 -65.5 -35.5t-37 -82.5t-10.5 -101zM267 645q0 22 15.5 38t37.5 16t38 -16t16 -38t-16 -37.5t-38 -15.5t-37.5 15 t-15.5 38z" />
<glyph unicode="&#xf7;" horiz-adv-x="418" d="M34 215v70h350v-70h-350zM143 431q0 27 19.5 47t46.5 20t47 -20t20 -47t-20 -46.5t-47 -19.5q-28 0 -47 19t-19 47zM144 66q0 27 19.5 47t46.5 20t47 -20t20 -47t-20 -46.5t-47 -19.5q-28 0 -47 19t-19 47z" />
<glyph unicode="&#xf8;" horiz-adv-x="419" d="M34 227q0 46 9 90t28.5 86t56 69.5t85.5 31.5v101h52v-103q102 -20 121 -155h6q79 0 137 60l15 -27q-19 -31 -61.5 -52.5t-91.5 -29.5q0 -6 0.5 -20t0.5 -21q0 -111 -36.5 -178.5t-103.5 -81.5v-100h-52v98q-70 8 -118 64.5t-48 167.5zM142 231q0 -88 28 -124.5t69 -36.5 q103 0 103 201q0 16 -1 24q-29 2 -41.5 13.5t-12.5 36.5q0 23 10 32.5t30 10.5q-22 62 -72 62q-39 0 -65.5 -35.5t-37 -82.5t-10.5 -101z" />
<glyph unicode="&#xf9;" horiz-adv-x="454" d="M46 149v351h100v-340q0 -90 60 -90q31 0 54.5 30t23.5 79v321h100v-340q0 -90 45 -90q49 0 72 109h37q-11 -59 -27.5 -98.5t-37 -57t-37.5 -23.5t-37 -6q-78 0 -97 94q-18 -47 -48.5 -70.5t-66.5 -23.5q-64 0 -102.5 37t-38.5 118zM73 750h85l71 -189h-55z" />
<glyph unicode="&#xfa;" horiz-adv-x="454" d="M46 149v351h100v-340q0 -90 60 -90q31 0 54.5 30t23.5 79v321h100v-340q0 -90 45 -90q49 0 72 109h37q-11 -59 -27.5 -98.5t-37 -57t-37.5 -23.5t-37 -6q-78 0 -97 94q-18 -47 -48.5 -70.5t-66.5 -23.5q-64 0 -102.5 37t-38.5 118zM179 561l51 189h85l-81 -189h-55z" />
<glyph unicode="&#xfb;" horiz-adv-x="454" d="M46 149v351h100v-340q0 -90 60 -90q31 0 54.5 30t23.5 79v321h100v-340q0 -90 45 -90q49 0 72 109h37q-11 -59 -27.5 -98.5t-37 -57t-37.5 -23.5t-37 -6q-78 0 -97 94q-18 -47 -48.5 -70.5t-66.5 -23.5q-64 0 -102.5 37t-38.5 118zM79 561l166 167h21l96 -167h-22 l-86 101l-141 -101h-34z" />
<glyph unicode="&#xfc;" horiz-adv-x="454" d="M46 149v351h100v-340q0 -90 60 -90q31 0 54.5 30t23.5 79v321h100v-340q0 -90 45 -90q49 0 72 109h37q-11 -59 -27.5 -98.5t-37 -57t-37.5 -23.5t-37 -6q-78 0 -97 94q-18 -47 -48.5 -70.5t-66.5 -23.5q-64 0 -102.5 37t-38.5 118zM78 645q0 22 15.5 38t37.5 16t38 -16 t16 -38t-16 -37.5t-38 -15.5q-23 0 -38 15t-15 38zM237 645q0 22 15.5 38t37.5 16t38 -16t16 -38t-16 -37.5t-38 -15.5t-37.5 15t-15.5 38z" />
<glyph unicode="&#xfd;" horiz-adv-x="454" d="M46 149v351h100v-340q0 -90 60 -90q30 0 54 28.5t24 75.5v326h100v-479q56 18 81.5 48.5t35.5 109.5h37q-15 -99 -47.5 -135.5t-106.5 -58.5v-64q0 -88 -35 -129.5t-90 -41.5q-48 0 -77 28t-29 70q0 86 131 140v63q-38 -57 -97 -57q-64 0 -102.5 37t-38.5 118zM182 561 l51 189h85l-81 -189h-55zM192 -148q0 -23 13 -36.5t35 -13.5q25 0 34.5 19t9.5 57v70q-92 -42 -92 -96z" />
<glyph unicode="&#xfe;" horiz-adv-x="473" d="M-31 700h23q32 -19 52 -35t44.5 -44t38.5 -68.5t18 -94.5q42 47 104 47q75 0 121 -63t46 -194q0 -45 -9 -87t-28 -81t-55.5 -62.5t-86.5 -23.5q-49 0 -90 48v-266l-101 -26v735q0 75 -16 122t-61 93zM147 92q27 -34 60 -34q40 0 65.5 33.5t34.5 75.5t9 89q0 100 -30 142 t-71 42q-42 0 -68 -48v-300z" />
<glyph unicode="&#xff;" horiz-adv-x="454" d="M46 149v351h100v-340q0 -90 60 -90q31 0 54.5 30t23.5 79v321h100v-479q56 18 81.5 48.5t35.5 109.5h37q-15 -99 -47.5 -135.5t-106.5 -58.5v-64q0 -88 -35 -129.5t-90 -41.5q-48 0 -77 28t-29 70q0 86 131 140v63q-38 -57 -97 -57q-64 0 -102.5 37t-38.5 118zM82 645 q0 22 15.5 38t37.5 16t38 -16t16 -38t-16 -37.5t-38 -15.5q-23 0 -38 15t-15 38zM192 -148q0 -23 13 -36.5t35 -13.5q25 0 34.5 19t9.5 57v70q-92 -42 -92 -96zM241 645q0 22 15.5 38t37.5 16t38 -16t16 -38t-16 -37.5t-38 -15.5t-37.5 15t-15.5 38z" />
<glyph unicode="&#x152;" horiz-adv-x="883" d="M18 504q0 102 99 174t241 72q74 0 131 -23q58 23 118 23q35 0 92 -6t90 -6q53 0 88 12q-2 -63 -24.5 -83.5t-63.5 -20.5q-42 0 -124 16t-97 18q97 -86 107 -267h140v-59h-140q-5 -190 -89 -284h285v-70h-404q-25 -6 -57 -6q-109 0 -176 79t-67 251q0 61 9 118t28.5 108.5 t55 82.5t82.5 31q26 0 51 -8q-47 -28 -75 -133t-28 -217q0 -40 4.5 -75.5t15.5 -74.5t36 -62.5t61 -23.5q52 0 86.5 50t48 121t13.5 158q0 76 -11.5 132.5t-30.5 91t-47 55.5t-57.5 28.5t-66.5 7.5q-105 0 -172 -58t-67 -166q0 -76 31 -97q-55 0 -85.5 28t-30.5 83z" />
<glyph unicode="&#x153;" horiz-adv-x="677" d="M34 227q0 48 10 93.5t31 88.5t61 69.5t93 26.5q115 0 148 -115q52 115 158 115q133 0 133 -130q0 -70 -58 -117t-159 -58q7 -74 37 -102t78 -28q109 0 158 109h32q-26 -76 -91.5 -130.5t-139.5 -54.5q-116 0 -160 105q-44 -105 -144 -105q-76 0 -131.5 57t-55.5 176z M142 231q0 -88 28 -124.5t69 -36.5q103 0 103 201q0 16 -1 24q-54 0 -54 54q0 37 40 39q-22 62 -72 62q-39 0 -65.5 -35.5t-37 -82.5t-10.5 -101zM450 239q71 11 112.5 50.5t41.5 95.5q0 71 -50 71q-33 0 -57.5 -34.5t-35.5 -82.5t-11 -100z" />
<glyph unicode="&#x178;" horiz-adv-x="608" d="M20 524q0 95 66 160.5t173 65.5q15 0 41 -2l145 -384l129 381h52l-160 -437v-308h-108v308l-157 406q-63 -17 -91 -68t-28 -116q0 -79 50 -137q-112 0 -112 131zM286 895q0 22 15.5 38t37.5 16t38 -16t16 -38t-16 -37.5t-38 -15.5q-23 0 -38 15t-15 38zM445 895 q0 22 15.5 38t37.5 16t38 -16t16 -38t-16 -37.5t-38 -15.5t-37.5 15t-15.5 38z" />
<glyph unicode="&#x2c6;" horiz-adv-x="293" d="M-114 561l166 167h21l96 -167h-22l-86 101l-141 -101h-34z" />
<glyph unicode="&#x2dc;" horiz-adv-x="403" d="M-81 586q26 88 131 88q35 0 83 -14.5t72 -14.5q38 0 53 20h5q-1 -33 -38.5 -61.5t-87.5 -28.5q-31 0 -83 16.5t-75 16.5q-34 0 -55 -24z" />
<glyph unicode="&#x2000;" horiz-adv-x="500" />
<glyph unicode="&#x2001;" horiz-adv-x="1000" />
<glyph unicode="&#x2002;" horiz-adv-x="500" />
<glyph unicode="&#x2003;" horiz-adv-x="1000" />
<glyph unicode="&#x2004;" horiz-adv-x="333" />
<glyph unicode="&#x2005;" horiz-adv-x="250" />
<glyph unicode="&#x2006;" horiz-adv-x="166" />
<glyph unicode="&#x2007;" horiz-adv-x="166" />
<glyph unicode="&#x2008;" horiz-adv-x="125" />
<glyph unicode="&#x2009;" horiz-adv-x="200" />
<glyph unicode="&#x200a;" horiz-adv-x="55" />
<glyph unicode="&#x2010;" horiz-adv-x="318" d="M59 231v70h200v-70h-200z" />
<glyph unicode="&#x2011;" horiz-adv-x="318" d="M59 231v70h200v-70h-200z" />
<glyph unicode="&#x2012;" horiz-adv-x="318" d="M59 231v70h200v-70h-200z" />
<glyph unicode="&#x2013;" horiz-adv-x="379" d="M59 231v70h261v-70h-261z" />
<glyph unicode="&#x2014;" horiz-adv-x="469" d="M59 231v70h351v-70h-351z" />
<glyph unicode="&#x2018;" horiz-adv-x="208" d="M37 574q0 49 27.5 102.5t64.5 71.5q14 -8 14 -24q0 -14 -11 -41t-11 -39q0 -20 8 -28t18 -8.5t18 -13.5t8 -41q0 -25 -21 -42t-44 -17q-71 0 -71 80z" />
<glyph unicode="&#x2019;" horiz-adv-x="205" d="M35 689q0 25 21 42t44 17q71 0 71 -80q0 -49 -27.5 -102.5t-64.5 -71.5q-14 8 -14 24q0 14 11 41t11 39q0 20 -8 28t-18 8.5t-18 13.5t-8 41z" />
<glyph unicode="&#x201a;" horiz-adv-x="216" d="M39 69q0 25 21 42t44 17q71 0 71 -80q0 -49 -27.5 -102.5t-64.5 -71.5q-14 8 -14 24q0 14 11 41t11 39q0 20 -8 28t-18 8.5t-18 13.5t-8 41z" />
<glyph unicode="&#x201c;" horiz-adv-x="425" d="M37 574q0 49 27.5 102.5t64.5 71.5q14 -8 14 -24q0 -14 -11 -41t-11 -39q0 -20 8 -28t18 -8.5t18 -13.5t8 -41q0 -25 -21 -42t-44 -17q-71 0 -71 80zM254 574q0 49 27.5 102.5t64.5 71.5q14 -8 14 -24q0 -14 -11 -41t-11 -39q0 -20 8 -28t18 -8.5t18 -13.5t8 -41 q0 -25 -21 -42t-44 -17q-71 0 -71 80z" />
<glyph unicode="&#x201d;" horiz-adv-x="422" d="M35 689q0 25 21 42t44 17q71 0 71 -80q0 -49 -27.5 -102.5t-64.5 -71.5q-14 8 -14 24q0 14 11 41t11 39q0 20 -8 28t-18 8.5t-18 13.5t-8 41zM252 689q0 25 21 42t44 17q71 0 71 -80q0 -49 -27.5 -102.5t-64.5 -71.5q-14 8 -14 24q0 14 11 41t11 39q0 20 -8 28t-18 8.5 t-18 13.5t-8 41z" />
<glyph unicode="&#x201e;" horiz-adv-x="435" d="M39 69q0 25 21 42t44 17q71 0 71 -80q0 -49 -27.5 -102.5t-64.5 -71.5q-14 8 -14 24q0 14 11 41t11 39q0 20 -8 28t-18 8.5t-18 13.5t-8 41zM258 69q0 25 21 42t44 17q71 0 71 -80q0 -49 -27.5 -102.5t-64.5 -71.5q-14 8 -14 24q0 14 11 41t11 39q0 20 -8 28t-18 8.5 t-18 13.5t-8 41z" />
<glyph unicode="&#x2022;" horiz-adv-x="253" d="M44 267q0 35 24 59t58 24t58.5 -24t24.5 -59q0 -34 -24 -58t-59 -24q-34 0 -58 23.5t-24 58.5z" />
<glyph unicode="&#x2026;" horiz-adv-x="691" d="M38 61q0 27 19.5 47t46.5 20t47 -20t20 -47t-20 -46.5t-47 -19.5q-28 0 -47 19t-19 47zM275 61q0 27 19.5 47t46.5 20t47 -20t20 -47t-20 -46.5t-47 -19.5q-28 0 -47 19t-19 47zM520 61q0 27 19.5 47t46.5 20t47 -20t20 -47t-20 -46.5t-47 -19.5q-28 0 -47 19t-19 47z " />
<glyph unicode="&#x202f;" horiz-adv-x="200" />
<glyph unicode="&#x2039;" horiz-adv-x="306" d="M21 254l175 195l51 -45l-143 -151l167 -140l-31 -44z" />
<glyph unicode="&#x203a;" horiz-adv-x="309" d="M36 405l31 44l219 -185l-175 -195l-51 45l143 151z" />
<glyph unicode="&#x205f;" horiz-adv-x="250" />
<glyph unicode="&#x20ac;" horiz-adv-x="616" d="M28 294v40h71v16q0 39 2 59h-73v40h76q8 61 25 112.5t46.5 95t77 68.5t108.5 25q80 0 133.5 -40.5t53.5 -115.5q0 -70 -53 -70q-31 0 -47 18q9 7 16.5 29.5t7.5 49.5q0 46 -22.5 69.5t-61.5 23.5q-72 0 -114 -74.5t-53 -190.5h209v-40h-212q-1 -14 -1 -42v-33h213v-40 h-210q23 -234 209 -234q92 0 141 58l26 -25q-74 -109 -225 -109q-120 0 -190 78.5t-80 231.5h-73z" />
<glyph unicode="&#x2122;" horiz-adv-x="484" d="M50 595q0 27 22 45t67 18q17 0 40 -3.5t35 -3.5q19 0 35 6q1 -4 1 -11q0 -24 -32 -24q-9 0 -49 7v-196h-32v201q-5 1 -13 1q-51 0 -51 -42q0 -28 12 -42q-35 0 -35 44zM255 433l32 221h29l32 -175l33 175h34l22 -221h-35l-17 156l-30 -156h-32l-27 154l-23 -154h-18z" />
<glyph unicode="&#x25fc;" horiz-adv-x="560" d="M0 0v560h560v-560h-560z" />
</font>
</defs>
</svg>
