<?xml version="1.0" standalone="no"?>
<!DOCTYPE svg PUBLIC "-//W3C//DTD SVG 1.1//EN" "http://www.w3.org/Graphics/SVG/1.1/DTD/svg11.dtd" >
<svg xmlns="http://www.w3.org/2000/svg">
<metadata></metadata>
<defs>
<font id="texgyretermesbold_italic" horiz-adv-x="500" >
<font-face units-per-em="1000" ascent="795" descent="-205" />
<missing-glyph horiz-adv-x="250" />
<glyph unicode="&#xfb01;" horiz-adv-x="556" d="M-188 -127q0 24 13.5 39t35.5 15t36.5 -14t14.5 -35q0 -14 -12 -27q-7 -8 -7 -13q0 -9 17 -9q33 0 50 31t40 136l92 411h-75l10 42h76q27 79 47 118t51 71q60 65 164 65q63 0 102.5 -26.5t39.5 -68.5q0 -25 -16 -41t-41 -16t-41.5 16t-16.5 39q0 20 15 36q7 10 7 15 q0 16 -26 16q-59 0 -90 -37q-24 -29 -38 -63.5t-39 -123.5h118q32 0 108 7l47 3q-7 -26 -33.5 -128.5t-40.5 -158.5q-21 -76 -21 -95q0 -6 5 -11t10 -5q23 0 78 79l22 -13q-52 -79 -87 -107.5t-80 -28.5q-34 0 -52.5 17.5t-18.5 48.5q0 17 16 81l69 269h-150l-94 -385 q-10 -39 -32 -85t-45 -75q-53 -67 -131 -67q-42 0 -69.5 22t-27.5 56z" />
<glyph unicode="&#xfb02;" horiz-adv-x="556" d="M-186 -124q0 25 13.5 39t38.5 14q21 0 34 -12.5t13 -33.5q0 -14 -10 -28q-6 -7 -6 -13q0 -12 22 -12q26 0 42 33.5t41 141.5l92 402h-74l10 42h74q26 82 44.5 121t48.5 71q57 63 156 63q23 0 88 -12l13 -3l99 12l-151 -602q-4 -15 -4 -20q0 -7 5 -12t12 -5q26 0 76 75 l20 -11q-51 -79 -85 -107t-78 -28q-32 0 -52 16t-20 42q0 15 5 37l79 321h-147l-79 -326q-69 -286 -223 -286q-43 0 -70 22.5t-27 58.5zM221 449h151l30 119q-21 15 -21 39q0 17 15 38l6 11q0 7 -11 13t-25 6q-52 0 -89 -62q-27 -44 -56 -164z" />
<glyph unicode="&#xfb03;" horiz-adv-x="834" d="M-188 -127q0 24 13.5 39t35.5 15t36.5 -14t14.5 -35q0 -14 -12 -27q-7 -8 -7 -13q0 -9 17 -9q35 0 56.5 33t43.5 134l92 411h-75l10 42h76q27 79 47 118t51 71q60 65 164 65q88 0 125 -47q60 47 145 47q63 0 102.5 -26.5t39.5 -68.5q0 -25 -16 -41t-41 -16t-41.5 16 t-16.5 39q0 20 15 36q7 10 7 15q0 16 -26 16q-59 0 -90 -37q-24 -29 -38 -63.5t-39 -123.5h118q32 0 108 7l47 3q-7 -26 -33.5 -128.5t-40.5 -158.5q-21 -76 -21 -95q0 -6 5 -11t10 -5q23 0 78 79l22 -13q-52 -79 -87 -107.5t-80 -28.5q-34 0 -52.5 17.5t-18.5 48.5 q0 17 16 81l69 269h-150l-94 -385q-57 -227 -188 -227q-42 0 -69.5 22t-27.5 56q0 24 13.5 39t35.5 15t36.5 -14t14.5 -35q0 -14 -12 -27q-7 -8 -7 -13q0 -9 17 -9q25 0 34 17t22 82q8 41 14 68l92 411h-151l-94 -385q-19 -80 -83 -160q-24 -31 -61 -49t-74 -18 q-42 0 -69.5 22t-27.5 56zM231 449h152q27 79 44 111q-25 17 -25 46q0 20 15 36q7 10 7 15q0 16 -26 16q-59 0 -90 -37q-24 -29 -38 -63.5t-39 -123.5z" />
<glyph unicode="&#xfb04;" horiz-adv-x="819" d="M-188 -127q0 24 13.5 39t35.5 15t36.5 -14t14.5 -35q0 -14 -12 -27q-7 -8 -7 -13q0 -9 17 -9q35 0 56.5 33t43.5 134l92 411h-75l10 42h76q27 79 47 118t51 71q60 65 164 65q82 0 121 -42q56 43 135 43q23 0 88 -12l13 -3l99 12l-151 -602q-4 -15 -4 -20q0 -7 5 -12 t12 -5q26 0 76 75l20 -11q-51 -79 -85 -107t-78 -28q-32 0 -52 16t-20 42q0 15 5 37l79 321h-147l-79 -326q-36 -149 -82 -217.5t-121 -68.5q-43 0 -70 22.5t-27 58.5q0 25 13.5 39t38.5 14q21 0 34 -12.5t13 -33.5q0 -14 -10 -28q-6 -7 -6 -13q0 -12 22 -12q6 0 10.5 1 t8 4.5t6 7.5t5.5 12.5t5 17t5 23l6 29t7.5 37t9.5 43.5l92 402h-151l-94 -385q-19 -80 -83 -160q-24 -31 -61 -49t-74 -18q-42 0 -69.5 22t-27.5 56zM231 449h151q26 83 41 114q-21 16 -21 43q0 20 15 36q7 10 7 15q0 16 -26 16q-59 0 -90 -37q-24 -29 -38 -63.5t-39 -123.5 zM499 449h151l30 119q-21 15 -21 39q0 17 15 38l6 11q0 7 -11 13t-25 6q-52 0 -89 -62q-27 -44 -56 -164z" />
<glyph horiz-adv-x="1000" />
<glyph horiz-adv-x="1000" />
<glyph unicode="&#xd;" horiz-adv-x="1000" />
<glyph unicode=" "  horiz-adv-x="250" />
<glyph unicode="&#x09;" horiz-adv-x="250" />
<glyph unicode="&#xa0;" horiz-adv-x="250" />
<glyph unicode="!" horiz-adv-x="389" d="M67 58q0 32 21 53.5t52 21.5q29 0 51 -22.5t22 -52.5t-21.5 -50.5t-52.5 -20.5t-51.5 20t-20.5 51zM167 212q46 240 53 354q2 50 12 72q22 46 69 46q31 0 50 -20t19 -53t-31 -89q-84 -166 -143 -318z" />
<glyph unicode="&#x22;" horiz-adv-x="555" d="M136 398l16 214q2 29 26 51t53 22q19 0 32 -14.5t13 -34.5q0 -15 -15 -47q-16 -37 -46 -105t-38 -86h-41zM396 398l16 214q2 29 26 51t53 22q19 0 32 -14.5t13 -34.5q0 -15 -15 -47q-16 -37 -46 -105t-38 -86h-41z" />
<glyph unicode="#" d="M-33 210l20 73h106l54 134h-96l20 73h105l87 210h77l-86 -210h113l87 210h77l-86 -210h88l-20 -73h-97l-54 -134h87l-20 -73h-97l-85 -210h-78l85 210h-113l-85 -210h-78l85 210h-96zM171 283h113l54 134h-113z" />
<glyph unicode="$" d="M-20 86l42 142l22 -6q2 -81 21.5 -118.5t71.5 -61.5l74 261q-80 61 -106 97.5t-26 87.5q0 77 56 129.5t140 52.5q16 0 38 -2l18 65h50l-20 -72q57 -10 118 -49l18 -14l-42 -133l-21 5q1 11 1 30q0 52 -19.5 81t-64.5 44l-59 -215q84 -73 112 -114.5t28 -94.5 q0 -82 -65.5 -141.5t-156.5 -59.5h-32l-28 -100h-52l29 107q-47 11 -77 27.5t-70 51.5zM178 542q0 -30 15 -53t55 -53l55 199q-5 2 -15 2q-50 0 -80 -26t-30 -69zM186 32h16q54 0 87.5 34.5t33.5 90.5q0 35 -14.5 59.5t-55.5 57.5z" />
<glyph unicode="%" horiz-adv-x="833" d="M39 431q0 94 69.5 171t154.5 77q38 0 77 -28t96 -28q90 0 169 69h39l-394 -700h-56l349 620q-64 -27 -119 -27q-15 0 -43 5q-1 -122 -61 -208q-60 -88 -152 -88q-57 0 -93 38.5t-36 98.5zM154 394q-1 -23 12.5 -38.5t35.5 -15.5q52 0 98.5 75.5t46.5 161.5q0 17 -4 22 t-25 13q-9 4 -16 11q-9 8 -15 8q-29 3 -65 -53q-25 -37 -45.5 -93t-22.5 -91zM450 128q0 86 69 167t157 81q52 0 84.5 -32t32.5 -84q0 -96 -59.5 -183t-150.5 -87q-60 0 -96.5 38t-36.5 100zM567 93q-1 -24 13 -40.5t37 -16.5q55 0 101 83q41 74 41 137q0 29 -14 48t-37 21 q-38 2 -76 -55q-22 -34 -42.5 -89.5t-22.5 -87.5z" />
<glyph unicode="&#x26;" horiz-adv-x="778" d="M5 148q0 72 57 132q26 27 61 47t122 57q-11 56 -11 92q0 92 51.5 149t133.5 57q60 0 99 -32t39 -82t-44 -92t-138 -80q19 -120 86 -227q43 53 58.5 80.5t15.5 48.5q0 17 -12 25t-44 13v25h212v-25q-34 -7 -53.5 -20t-47.5 -47t-104 -136q55 -72 110 -72q37 0 77 40 l26 -21q-46 -55 -83 -76.5t-87 -21.5q-76 0 -139 62q-92 -63 -192 -63q-86 0 -139.5 46.5t-53.5 120.5zM138 190q0 -59 36 -98.5t91 -39.5q44 0 97 28q-42 65 -66 122.5t-43 140.5q-63 -31 -89 -65.5t-26 -87.5zM355 530q0 -28 11 -96q59 34 85 68.5t26 79.5 q0 32 -13.5 49.5t-38.5 17.5q-70 0 -70 -119z" />
<glyph unicode="'" horiz-adv-x="278" d="M128 398l16 214q2 29 26 51t53 22q19 0 32 -14.5t13 -34.5q0 -15 -15 -47q-16 -37 -46 -105t-38 -86h-41z" />
<glyph unicode="(" horiz-adv-x="333" d="M28 207q0 108 40 197q34 78 89 137.5t169 143.5l18 -20q-61 -56 -94 -99.5t-60 -103.5q-68 -152 -68 -352q0 -87 15 -144t56 -130l-23 -15q-76 104 -109 193.5t-33 192.5z" />
<glyph unicode=")" horiz-adv-x="333" d="M-44 -159q59 54 88 91t54 88q36 74 57.5 177.5t21.5 201.5q0 85 -15.5 144t-56.5 127l23 15q70 -95 100 -172q43 -107 43 -214q0 -149 -83 -273q-38 -57 -83.5 -100.5t-131.5 -104.5z" />
<glyph unicode="*" d="M65 388q0 26 26 41q19 10 53 10q35 2 50.5 5.5t39.5 17.5l11 6l-11 6q-25 14 -41 18t-49 5q-36 0 -53 11q-26 17 -26 41q0 21 15 37.5t34 16.5q33 0 63 -48q18 -29 30.5 -41.5t34.5 -25.5l11 -6v12q0 46 -26 90q-17 29 -17 49q0 24 13.5 38t36.5 14t37 -14t14 -38 q0 -20 -17 -49q-26 -44 -26 -90v-12l11 6q22 13 34.5 25.5t30.5 41.5q30 48 63 48q19 0 34 -16.5t15 -37.5q0 -24 -26 -41q-17 -11 -53 -11q-33 -1 -49 -5t-41 -18l-11 -6l11 -6q24 -14 39.5 -17.5t50.5 -5.5q34 0 53 -10q26 -15 26 -41q0 -22 -15 -38t-35 -16 q-19 0 -32.5 10.5t-29.5 37.5t-28 39t-37 27l-11 6v-12q0 -44 26 -89q17 -29 17 -50q0 -23 -14 -37t-37 -14t-36.5 14t-13.5 38q0 20 17 49q26 45 26 89v12l-11 -6q-25 -15 -37 -27t-28 -39t-29.5 -37.5t-32.5 -10.5q-20 0 -35 16t-15 38z" />
<glyph unicode="+" horiz-adv-x="570" d="M32 206v88h197v197h88v-197h197v-88h-197v-197h-88v197h-197z" />
<glyph unicode="," horiz-adv-x="250" d="M-60 -158q118 63 118 117q0 19 -30 39q-40 27 -40 63q0 32 20 52.5t51 20.5q38 0 61.5 -27t23.5 -71q0 -61 -52 -120.5t-139 -97.5z" />
<glyph unicode="-" horiz-adv-x="333" d="M2 166l24 116h245l-23 -116h-246z" />
<glyph unicode="." horiz-adv-x="250" d="M11 60q0 32 21.5 53.5t53.5 21.5q30 0 51.5 -21.5t21.5 -52.5t-21.5 -52.5t-53.5 -21.5q-31 0 -52 21t-21 52z" />
<glyph unicode="/" horiz-adv-x="278" d="M-64 -18l319 703h87l-319 -703h-87z" />
<glyph unicode="0" d="M17 206q0 111 42.5 222t112.5 183t155 72q68 0 109 -65.5t41 -175.5q0 -119 -53 -240t-130 -176q-55 -40 -117 -40q-72 0 -116 60t-44 160zM120 81q0 -30 13.5 -48t36.5 -18q31 0 55.5 33t50.5 111q46 142 86 330q12 67 12 93q0 34 -13 53t-36 19q-29 0 -53.5 -35.5 t-52.5 -119.5q-35 -100 -67 -235.5t-32 -182.5z" />
<glyph unicode="1" d="M5 0v23q54 0 80 16.5t39 57.5l128 459q4 18 4 24q0 33 -46 33q-30 0 -63 -5l2 23q141 21 270 52l-154 -560q-12 -45 -12 -54q0 -28 19 -36.5t78 -9.5v-23h-345z" />
<glyph unicode="2" d="M-27 0v24l90 90q141 140 195 220t54 149q0 52 -24.5 81t-68.5 29q-75 0 -133 -86l-22 12q38 74 80 111q62 53 138 53q69 0 116.5 -48.5t47.5 -119.5q0 -114 -144 -237l-196 -167h149q58 0 84 15t55 65h25l-79 -191h-367z" />
<glyph unicode="3" d="M-15 67q0 26 16 41t44 15q20 0 34 -10t31 -36q7 -10 13 -19t8.5 -12.5t3.5 -4.5q14 -14 40 -14q46 0 78 47.5t32 114.5q0 104 -74 140q-29 15 -83 18l4 22q97 20 143 57.5t46 95.5q0 41 -23.5 65.5t-63.5 24.5q-35 0 -60 -16t-56 -59l-21 13q47 70 95 101.5t109 31.5 q64 0 106.5 -38.5t42.5 -97.5q0 -90 -107 -144l-12 -6q43 -32 60 -65t17 -82q0 -110 -84.5 -186.5t-205.5 -76.5q-61 0 -97 21.5t-36 58.5z" />
<glyph unicode="4" d="M-15 150l28 105l427 428h63l-119 -435h69l-27 -98h-68l-42 -150h-128l41 150h-244zM53 248h203l79 280z" />
<glyph unicode="5" d="M-11 66q0 25 16.5 41t42.5 16q22 0 37.5 -11.5t33.5 -41.5q16 -26 27 -34.5t27 -8.5q53 0 93.5 49t40.5 113q0 49 -26.5 90t-74.5 65q-47 24 -133 28l131 297h283l-36 -109h-254l-34 -76q71 -15 100.5 -25t55.5 -28q93 -62 93 -180q0 -112 -84 -188t-208 -76 q-59 0 -95 21.5t-36 57.5z" />
<glyph unicode="6" d="M23 195q0 109 56 210t156 171q58 41 114 62.5t154 40.5l6 -24q-101 -38 -166.5 -96.5t-111.5 -149.5q35 13 62 13q70 0 110 -45.5t40 -125.5q0 -111 -71.5 -188.5t-174.5 -77.5q-82 0 -128 55.5t-46 154.5zM135 95q0 -78 55 -78q40 0 61 39q25 47 46.5 129.5t21.5 129.5 q0 67 -68 67q-25 0 -36.5 -12t-27.5 -55q-52 -135 -52 -220z" />
<glyph unicode="7" d="M52 0l332 556h-133q-78 0 -109 -14t-59 -63h-26l87 190h381l-381 -669h-92z" />
<glyph unicode="8" d="M3 153q0 64 43.5 109t136.5 78v5q-42 44 -58 77.5t-16 76.5q0 79 54 131.5t137 52.5q71 0 123.5 -38.5t52.5 -104.5q0 -53 -32.5 -89.5t-110.5 -69.5v-5q46 -50 66 -92.5t20 -90.5q0 -89 -62.5 -147.5t-159.5 -58.5q-86 0 -140 46t-54 120zM100 141q0 -58 26.5 -91 t72.5 -33q47 0 77 36.5t30 93.5q0 39 -16.5 68.5t-80.5 105.5q-59 -41 -84 -82.5t-25 -97.5zM220 554q0 -38 19 -70t71 -81q43 45 58 74t15 67q0 48 -22 77t-59 29q-36 0 -59 -27.5t-23 -68.5z" />
<glyph unicode="9" d="M-12 15q184 56 277 244q-32 -14 -61 -14q-68 0 -109.5 46t-41.5 121q0 114 71.5 192.5t174.5 78.5q85 0 130.5 -58t45.5 -149q0 -109 -57 -212t-155 -172q-58 -41 -114.5 -62.5t-154.5 -39.5zM177 352q0 -64 66 -64q32 0 44.5 14.5t32.5 74.5q43 128 43 205q0 69 -49 69 q-48 0 -79 -63q-23 -47 -40.5 -117.5t-17.5 -118.5z" />
<glyph unicode=":" horiz-adv-x="333" d="M23 61q0 32 21.5 53t53.5 21q30 0 51.5 -22t21.5 -52q0 -31 -21.5 -52.5t-53.5 -21.5q-31 0 -52 21t-21 53zM116 385q0 32 21.5 53t53.5 21q30 0 51.5 -22t21.5 -52q0 -31 -21.5 -52.5t-53.5 -21.5q-31 0 -52 21t-21 53z" />
<glyph unicode=";" horiz-adv-x="333" d="M-25 -159q118 63 118 117q0 19 -30 39q-23 15 -31.5 28.5t-8.5 34.5q0 32 20 52.5t51 20.5q38 0 61.5 -27t23.5 -71q0 -61 -52 -120.5t-139 -97.5zM116 385q0 32 21.5 53t53.5 21q30 0 51.5 -22t21.5 -52q0 -31 -21.5 -52.5t-53.5 -21.5q-31 0 -52 21t-21 53z" />
<glyph unicode="&#x3c;" horiz-adv-x="570" d="M56 211v78l414 209v-98l-296 -150l296 -150v-98z" />
<glyph unicode="=" horiz-adv-x="570" d="M32 122v88h482v-88h-482zM32 290v88h482v-88h-482z" />
<glyph unicode="&#x3e;" horiz-adv-x="570" d="M56 2v98l296 150l-296 150v98l414 -209v-78z" />
<glyph unicode="?" d="M79 61q0 32 21.5 53t53.5 21q30 0 51.5 -22t21.5 -52q0 -31 -21.5 -52.5t-53.5 -21.5q-31 0 -52 21t-21 53zM119 555q0 56 49.5 92.5t125.5 36.5q79 0 127.5 -39.5t48.5 -104.5q0 -47 -29.5 -87.5t-96.5 -83.5l-66 -43q-29 -19 -45 -42.5t-37 -75.5l-29 7q6 76 71 159 l41 51q64 80 64 149q0 37 -18.5 58t-50.5 21q-24 0 -43 -11.5t-19 -26.5q0 -8 11 -22q18 -24 18 -45q0 -25 -18 -42.5t-43 -17.5q-26 0 -43.5 19t-17.5 48z" />
<glyph unicode="@" horiz-adv-x="832" d="M63 328q0 149 108.5 253t264.5 104q142 0 238 -86t96 -212q0 -99 -55.5 -172t-131.5 -73q-37 0 -64 22t-29 53q-56 -74 -125 -74q-39 0 -66 33t-27 81q0 58 23.5 116t71 100t106.5 42q27 0 41 -10t31 -42l11 38h71l-65 -257q-2 -6 -2 -20q0 -45 37 -45q54 0 90.5 66.5 t36.5 133.5q0 110 -84.5 188.5t-202.5 78.5q-124 0 -203.5 -91t-79.5 -233q0 -128 83 -211t212 -83q94 0 198 48l13 -35q-73 -34 -120 -46.5t-101 -12.5q-159 0 -267.5 100t-108.5 246zM348 275q0 -39 16 -62t43 -23q49 0 83.5 72t37.5 140q3 62 -42 65q-44 3 -91 -55 t-47 -137z" />
<glyph unicode="A" horiz-adv-x="667" d="M-67 0v25q27 6 43 19.5t40 50.5l372 588h25l96 -572q10 -57 22 -69.5t62 -16.5v-25h-304v25q48 5 63.5 16.5t15.5 42.5q0 10 -3 32t-7 49.5t-5 42.5h-215l-59 -102q-15 -26 -15 -46q0 -35 65 -35v-25h-196zM161 248h185l-37 243z" />
<glyph unicode="B" horiz-adv-x="667" d="M-24 0v25q36 4 52 19t28 53l122 449q11 39 11 57q0 21 -15 30t-58 11v25h272q236 0 236 -146q0 -67 -47 -106q-26 -22 -56 -35t-86 -27q77 -25 107 -58t30 -91q0 -96 -79 -151t-216 -55h-301zM198 65q0 -33 57 -33q65 0 105 40q27 27 43 70t16 87q0 58 -35 85 q-28 21 -115 24l-66 -244q-5 -17 -5 -29zM277 368q99 4 139 30q61 40 61 138q0 101 -87 101q-24 0 -34.5 -8.5t-17.5 -35.5z" />
<glyph unicode="C" horiz-adv-x="667" d="M32 241q0 182 120.5 313t287.5 131q64 0 131 -21q24 -8 38 -8q20 0 38 29h30l-51 -234l-32 6q3 19 3 35q0 73 -35 115.5t-96 42.5q-63 0 -120 -48q-68 -59 -114 -172t-46 -221q0 -82 40 -128t110 -46q48 0 90 18q32 14 57.5 35t62.5 65l30 -22q-40 -55 -78 -84 q-86 -65 -194 -65q-122 0 -197 71.5t-75 187.5z" />
<glyph unicode="D" horiz-adv-x="722" d="M-46 0v25q36 5 52.5 19.5t27.5 52.5l121 446q12 44 12 59q0 18 -9 26t-33 11l-31 5v25h290q142 0 221.5 -72.5t79.5 -200.5q0 -171 -126.5 -283.5t-318.5 -112.5h-286zM177 68q0 -34 54 -34q142 0 223 118q39 58 61.5 140t22.5 165q0 181 -165 181q-25 0 -37.5 -8.5 t-17.5 -29.5l-128 -474q-13 -52 -13 -58z" />
<glyph unicode="E" horiz-adv-x="667" d="M-27 0v25q39 6 53.5 19t26.5 53l123 449q10 38 10 61q0 28 -42 33l-31 4v25h540l-43 -190l-27 5q0 46 -6.5 69.5t-23.5 41.5q-42 42 -154 42q-31 0 -43 -9t-20 -35l-61 -223q99 -1 134.5 17.5t70.5 88.5l28 -4l-74 -273l-28 5q4 25 4 44q0 52 -29.5 70.5t-114.5 19.5 l-56 -209q-15 -31 -15 -63q0 -34 61 -34q131 0 214 61q28 20 47 42t44 64l25 -5l-59 -194h-554z" />
<glyph unicode="F" horiz-adv-x="667" d="M-13 0v25q39 6 53.5 19t26.5 53l123 449q10 38 10 61q0 28 -42 33l-31 4v25h533l-43 -190l-27 5q0 76 -26 107q-42 46 -151 46q-31 0 -43 -9t-20 -35l-61 -223q98 1 130.5 18t67.5 88l28 -4l-74 -273l-28 5q4 25 4 44q0 51 -28.5 70t-108.5 20q-5 -19 -26 -96.5 t-32 -119.5q-11 -36 -11 -53q0 -23 14.5 -32t56.5 -12v-25h-295z" />
<glyph unicode="G" horiz-adv-x="722" d="M21 251q0 115 60 219t159 162q92 53 208 53q64 0 124 -21q24 -9 36 -9q27 0 42 30h31l-51 -221l-29 4q-1 51 -7.5 78t-23.5 52q-35 51 -108 51q-70 0 -129 -51q-68 -59 -112 -169.5t-44 -220.5q0 -91 42 -139.5t122 -48.5q29 0 56.5 8.5t37.5 21.5q4 6 29 91 q29 95 29 127q0 16 -12 24q-14 8 -62 12v26h287v-26q-40 -3 -52.5 -16t-26.5 -66l-48 -181l-28 -13q-42 -20 -108.5 -33t-125.5 -13q-132 0 -214 74.5t-82 194.5z" />
<glyph unicode="H" horiz-adv-x="778" d="M-24 0v25q37 5 52.5 19t27.5 53l122 449q11 38 11 58q0 17 -9 24.5t-33 10.5l-31 5v25h317v-25q-49 -1 -69 -16t-32 -56l-54 -199h239l47 173q10 38 10 61q0 15 -9 22t-32 10l-32 5v25h298v-25q-38 -5 -53.5 -18.5t-27.5 -53.5q-10 -37 -51.5 -187.5t-63.5 -231.5 q-19 -66 -19 -87q0 -22 16 -30.5t57 -10.5v-25h-317v25q50 3 70.5 17.5t30.5 54.5l64 232h-239l-50 -181l-4 -16q-13 -40 -13 -64t12.5 -31.5t60.5 -11.5v-25h-296z" />
<glyph unicode="I" horiz-adv-x="389" d="M-32 0v25q37 4 52.5 18.5t27.5 53.5l123 449q10 38 10 61q0 15 -9 22t-32 10q-22 4 -32 5v25h298v-25q-38 -5 -54 -18.5t-28 -53.5l-114 -420q-18 -64 -18 -87q0 -21 15 -29.5t57 -10.5v-25h-296z" />
<glyph unicode="J" d="M-46 2q0 30 18.5 50t45.5 20q26 0 44.5 -18t18.5 -45q0 -18 -13 -33q-10 -11 -10 -21q0 -18 27 -18q28 0 44.5 32.5t45.5 144.5l114 432q11 42 11 61q0 26 -42 32l-31 5v25h297v-25q-37 -5 -52.5 -18.5t-28.5 -53.5l-128 -479q-26 -98 -77 -145t-132 -47q-66 0 -109 28.5 t-43 72.5z" />
<glyph unicode="K" horiz-adv-x="667" d="M-21 0v25q37 5 52.5 18.5t27.5 53.5l122 449q11 38 11 58q0 17 -9 24.5t-33 10.5l-31 5v25h310v-25q-44 -4 -63 -18.5t-31 -53.5l-62 -228l197 175q77 72 77 98q0 21 -35 25l-21 2v25h211v-25q-33 -5 -47.5 -12t-46.5 -36l-216 -198l157 -338q8 -18 21 -25t42 -10v-25 h-280v25l27 3q38 3 38 24q0 14 -13 43l-113 242l-67 -249q-2 -10 -2 -17q0 -25 13.5 -34t52.5 -12v-25h-289z" />
<glyph unicode="L" horiz-adv-x="611" d="M-22 0v25q37 4 52.5 18.5t27.5 53.5l123 449q10 38 10 61q0 15 -9 22t-32 10q-22 4 -32 5v25h317v-25q-50 -3 -69.5 -17t-31.5 -55l-129 -478q-5 -18 -5 -32q0 -30 64 -30q127 0 211 61q29 22 48 44t43 62l24 -5l-59 -194h-553z" />
<glyph unicode="M" horiz-adv-x="889" d="M-29 0v25q40 9 55.5 32t45.5 121l109 373q11 41 11 58q0 21 -12.5 27t-59.5 8v25h221l54 -480l310 480h212v-25q-38 -4 -54 -18.5t-27 -53.5l-123 -449q-10 -26 -10 -55q0 -24 14 -32.5t58 -10.5v-25h-312v25q49 3 68.5 17t31.5 55l125 464l-375 -573h-28l-67 559 l-101 -369q-19 -68 -19 -92q0 -31 16 -43t64 -18v-25h-207z" />
<glyph unicode="N" horiz-adv-x="722" d="M-27 0v25q41 8 56.5 31.5t44.5 121.5l120 411q-14 33 -28 42t-55 13v25h195l215 -465l80 287q18 67 18 94q0 29 -18 42t-62 17v25h209v-25q-31 -7 -45 -18t-25 -37t-32 -98l-143 -506h-28l-257 549l-99 -356q-18 -63 -18 -94q0 -29 18 -42t62 -17v-25h-208z" />
<glyph unicode="O" horiz-adv-x="722" d="M27 221q0 103 54.5 209.5t154 180.5t213.5 74q104 0 173 -65.5t69 -165.5q0 -112 -59 -223t-154 -178q-98 -71 -215 -71q-106 0 -171 66t-65 173zM171 137q0 -56 27.5 -88.5t74.5 -32.5q81 0 149 102q49 74 87 200t38 214q0 53 -28 86t-73 33q-99 0 -175 -142 q-39 -73 -69.5 -186t-30.5 -186z" />
<glyph unicode="P" horiz-adv-x="611" d="M-27 0v25q39 6 53.5 19t26.5 53l123 449q10 38 10 61q0 28 -42 33l-31 4v25h287q104 0 158.5 -39.5t54.5 -115.5q0 -90 -74 -143.5t-199 -53.5q-37 0 -81 5l-54 -199q-10 -34 -10 -59q0 -20 15 -28.5t57 -10.5v-25h-294zM269 354q34 -2 42 -2q53 0 84 19t50 65 q22 52 22 110q0 43 -22 67t-62 24q-26 0 -39 -14q-4 -6 -11 -30z" />
<glyph unicode="Q" horiz-adv-x="722" d="M27 211q0 89 36 176t94 152.5t135.5 105.5t156.5 40q69 0 124.5 -30t86.5 -83t31 -120q0 -100 -47 -199t-130 -173q-58 -52 -111 -71.5t-151 -25.5l-46 -47q0 -6 38 -8q65 -4 110 -18l42 -13q46 -15 83 -15q31 0 55 7t47 23.5t53 47.5l21 -19q-31 -42 -59.5 -70 t-59.5 -46t-64.5 -25.5t-75.5 -7.5q-55 0 -136 26q-68 21 -104 21q-43 0 -114 -28l-14 24l156 130q14 11 19 19q-4 5 -14 9q-40 14 -56.5 23t-35.5 28q-70 65 -70 167zM171 136q0 -55 27.5 -87t74.5 -32q81 0 149 103q49 73 87 198t38 214q0 53 -28 86t-73 33 q-51 0 -93.5 -34.5t-81.5 -107.5q-40 -72 -70 -185t-30 -188z" />
<glyph unicode="R" horiz-adv-x="667" d="M-29 0v25q37 4 52.5 18.5t27.5 53.5l123 449q10 38 10 61q0 15 -9 22t-32 10q-22 4 -32 5v25h276q236 0 236 -143q0 -88 -83 -143q-38 -26 -109 -40l83 -246q16 -44 31 -56t57 -16v-25h-202l-107 331h-29l-55 -193q-14 -50 -14 -71q0 -22 14 -30.5t58 -11.5v-25h-296z M273 363q91 1 127 25q33 20 52.5 62t19.5 92q0 46 -23.5 70.5t-66.5 24.5q-23 0 -32.5 -8.5t-16.5 -35.5z" />
<glyph unicode="S" horiz-adv-x="556" d="M2 -18l36 224l29 -2q5 -82 32 -123q41 -65 122 -65q73 0 107 58q19 33 19 68q0 67 -113 153q-85 66 -119 130q-13 28 -13 66q0 83 58 138.5t143 55.5q41 0 98 -19q36 -11 51 -11q31 0 44 26h30l-40 -201l-27 4q-10 88 -41 127t-91 39q-48 0 -76 -28t-28 -77 q0 -34 15 -56.5t62 -57.5q92 -70 130 -125.5t38 -120.5q0 -93 -62 -148t-167 -55q-54 0 -123 24q-32 11 -46 11t-21.5 -6.5t-16.5 -28.5h-30z" />
<glyph unicode="T" horiz-adv-x="611" d="M50 0v25h14q38 0 59.5 16.5t31.5 55.5l148 537q-77 -2 -127.5 -35t-89.5 -108l-25 7l38 171h551l-36 -192l-27 2q-4 83 -35.5 118.5t-102.5 36.5l-140 -506q-11 -42 -11 -62q0 -24 15 -31.5t68 -9.5v-25h-331z" />
<glyph unicode="U" horiz-adv-x="722" d="M67 148q0 54 34 175l55 206q15 58 15 76q0 16 -9 23.5t-33 11.5l-31 4v25h311v-25q-46 -2 -63.5 -15.5t-30.5 -56.5l-82 -300q-28 -101 -28 -133q0 -47 32.5 -74t89.5 -27q82 0 133 60q43 53 79 184l58 209q19 70 19 96q0 27 -18.5 40t-61.5 17v25h208v-25 q-41 -8 -56.5 -31t-45.5 -122l-66 -228q-42 -147 -89 -201q-68 -80 -197 -80q-98 0 -160.5 46.5t-62.5 119.5z" />
<glyph unicode="V" horiz-adv-x="667" d="M65 644v25h298v-25q-51 -4 -63.5 -11.5t-12.5 -33.5q0 -10 1 -16l51 -401l190 302q59 94 59 127q0 27 -40 31l-25 2v25h192v-25q-41 -13 -59 -40l-393 -622h-32l-76 509q-16 107 -29.5 130t-60.5 23z" />
<glyph unicode="W" horiz-adv-x="889" d="M65 645v24h277v-25q-36 -5 -48.5 -15.5t-12.5 -37.5q0 -11 1 -16l39 -349l150 311q-1 64 -13.5 83t-57.5 25v24h269v-25q-40 -4 -51.5 -14.5t-11.5 -43.5q0 -12 6 -65l33 -295l156 327q15 30 15 46q0 27 -10.5 34.5t-52.5 10.5v25h187v-24q-32 -5 -47.5 -18.5 t-36.5 -54.5l-286 -590h-29l-59 489l-233 -489h-29l-78 579q-7 53 -18 64.5t-59 19.5z" />
<glyph unicode="X" horiz-adv-x="667" d="M-24 0v25q32 6 72 42.5t159 167.5l68 74l-84 272q-12 35 -29 47t-62 16v25h305v-25l-30 -3q-25 -3 -34.5 -11t-9.5 -25q0 -24 34 -129q1 -3 17 -55l94 99q70 74 70 98q0 21 -33 24l-22 2v25h203v-25q-27 -4 -46.5 -16t-52.5 -45l-199 -205l74 -237q22 -70 42 -90t74 -26 v-25h-308v25q41 4 54.5 11.5t13.5 26.5q0 33 -38 141l-19 60l-134 -148q-30 -33 -30 -51q0 -34 65 -40v-25h-214z" />
<glyph unicode="Y" horiz-adv-x="611" d="M73 0v25q52 4 69.5 16.5t31.5 55.5l60 216l-88 268q-14 40 -24.5 49t-48.5 14v25h283v-25q-42 -2 -56 -9t-14 -28q0 -24 33 -119q16 -51 44 -136l129 186q26 37 26 60q0 26 -13.5 35t-53.5 11v25h208v-25q-28 -6 -46.5 -20t-44.5 -49l-190 -267l-52 -191q-8 -29 -8 -45 q0 -28 14 -36.5t63 -10.5v-25h-322z" />
<glyph unicode="Z" horiz-adv-x="611" d="M-11 0v29l434 605h-78q-82 0 -137.5 -32t-114.5 -115l-28 4l57 178h468v-29l-434 -605h70q127 0 192 45q61 41 109 119l27 -5l-59 -194h-506z" />
<glyph unicode="[" horiz-adv-x="333" d="M-37 -159l199 833h200l-7 -35h-69q-27 0 -34 -9t-18 -54l-158 -676v-2q0 -22 35 -22h78l-7 -35h-219z" />
<glyph unicode="\" horiz-adv-x="278" d="M-1 685h85l195 -703h-84z" />
<glyph unicode="]" horiz-adv-x="333" d="M-56 -157l7 35h68q27 0 34 8.5t18 52.5l158 677v2q0 21 -35 21h-78l7 35h220l-200 -831h-199z" />
<glyph unicode="^" horiz-adv-x="570" d="M67 304l178 365h80l178 -365h-89l-129 272l-129 -272h-89z" />
<glyph unicode="_" d="M0 -75h500v-50h-500v50z" />
<glyph unicode="`" horiz-adv-x="333" d="M228 633q10 19 31.5 33t41.5 14q13 0 22.5 -10.5t20.5 -39.5l52 -131h-49l-105 87q-16 13 -19 23t5 24z" />
<glyph unicode="a" d="M-21 114q0 76 42 158t106.5 136t124.5 54q32 0 49.5 -17t24.5 -55l18 59l111 7l-71 -236q-34 -112 -34 -148q0 -15 12 -15t26.5 14t45.5 56l21 -15q-84 -126 -151 -126q-28 0 -47.5 19t-19.5 47q0 19 14 67q-43 -72 -80.5 -102t-83.5 -30q-49 0 -78.5 35t-29.5 92z M102 112q0 -23 13 -38.5t32 -15.5q43 0 84 75q29 52 50.5 123.5t21.5 116.5q0 20 -10 32.5t-27 14.5q-42 3 -90 -82q-31 -56 -52.5 -121.5t-21.5 -104.5z" />
<glyph unicode="b" d="M-14 47q0 9 20 81l94 327q39 136 39 157q0 30 -45 30h-18v27q118 13 208 30l-90 -328q38 51 69 71t69 20q49 0 80.5 -34.5t31.5 -89.5q0 -134 -99 -242.5t-221 -108.5q-49 0 -93.5 19.5t-44.5 40.5zM109 47q0 -12 8.5 -19.5t22.5 -7.5q65 0 116 91q27 46 45 108t18 106 q0 69 -44 69q-51 0 -89 -84q-27 -57 -49 -134q-28 -99 -28 -129z" />
<glyph unicode="c" horiz-adv-x="444" d="M-5 138q0 120 89.5 222t195.5 102q50 0 81 -25t31 -65q0 -31 -17 -50.5t-45 -19.5q-25 0 -41.5 14.5t-16.5 37.5q0 16 13 39q8 12 8 19q0 17 -22 17q-45 0 -86 -71q-27 -49 -44.5 -110t-17.5 -108q0 -40 20 -64.5t53 -24.5q32 0 59 20t63 70l28 -18q-44 -63 -77 -91 q-53 -45 -121 -45t-110.5 42t-42.5 109z" />
<glyph unicode="d" d="M-21 112q0 76 42 158.5t106.5 137t123.5 54.5q39 0 72 -33l18 68q29 106 29 118q0 28 -41 28h-21v27q129 10 209 29l-111 -405q-57 -208 -57 -223q0 -12 11 -12q22 0 67 72l22 -16q-41 -66 -76.5 -96t-72.5 -30q-28 0 -44 16t-16 45q0 20 11 68q-43 -71 -80.5 -101 t-85.5 -30q-46 0 -76 35t-30 90zM103 122q-2 -26 10 -44.5t31 -18.5q44 0 86 74q26 48 52 126.5t26 111.5q0 21 -10.5 34.5t-26.5 14.5q-47 3 -98 -87q-27 -49 -47.5 -110t-22.5 -101z" />
<glyph unicode="e" horiz-adv-x="444" d="M5 134q0 124 89.5 226t198.5 102q46 0 75.5 -24.5t29.5 -62.5q0 -56 -54 -105q-38 -35 -82 -54t-121 -34q-6 -30 -6 -49q0 -82 64 -82q32 0 58 19.5t60 71.5l29 -17q-45 -74 -88.5 -106t-101.5 -32q-65 0 -108 41.5t-43 105.5zM148 214q74 23 109 61q49 51 49 120 q0 34 -28 34q-74 0 -130 -215z" />
<glyph unicode="f" horiz-adv-x="333" d="M-169 -126q0 22 15.5 38t35.5 16q19 0 34.5 -15t15.5 -33q0 -16 -12 -34l-4 -9q0 -11 18 -11q30 0 48.5 39t41.5 150l88 392h-73l9 42h73q22 76 40.5 115t49.5 73q55 61 136 61q46 0 72.5 -21.5t26.5 -58.5q0 -23 -14.5 -38t-36.5 -15q-21 0 -35 14t-14 35q0 14 11 31 l5 11q0 13 -17 13q-53 0 -91 -149l-18 -71h92l-9 -42h-90q-63 -298 -95 -394q-42 -126 -90 -172q-47 -46 -114 -46q-45 0 -72 21.5t-27 57.5z" />
<glyph unicode="g" d="M-52 -97q0 38 27 62q30 24 106 42q-62 21 -62 66q0 28 17 45t79 52q-80 34 -80 110t65 129t157 53q63 0 110 -33h111v-56h-67q6 -24 6 -42q0 -93 -89 -144q-59 -34 -127 -34q-16 0 -31 4q-11 4 -20 4q-10 0 -19 -12t-9 -24q0 -24 51 -38l53 -15q82 -23 115.5 -51 t33.5 -74q0 -66 -66.5 -108t-172.5 -42q-86 0 -137 28.5t-51 77.5zM35 -91q0 -34 31 -56t80 -22q57 0 88.5 18t31.5 51q0 36 -41 57q-17 8 -59 22t-51 15q-6 1 -23.5 -9.5t-27.5 -20.5q-29 -28 -29 -55zM151 243q0 -59 42 -59q47 0 78 69q29 63 29 119q0 26 -12.5 42.5 t-32.5 16.5q-45 0 -74.5 -65t-29.5 -123z" />
<glyph unicode="h" horiz-adv-x="556" d="M-13 0l154 567q8 29 8 42q0 34 -41 34l-22 -1v27q97 8 208 30l-107 -416q74 106 117.5 142.5t94.5 36.5q35 0 55.5 -20t20.5 -55q0 -29 -30 -122l-58 -178q-3 -8 -3 -12q0 -5 5.5 -10.5t11.5 -5.5q17 0 75 83l22 -15q-50 -77 -85.5 -106.5t-81.5 -29.5q-29 0 -47.5 16 t-18.5 42q0 52 61 231q27 81 27 89t-6.5 14.5t-15.5 6.5q-40 0 -104 -94q-36 -53 -58 -108t-61 -188h-121z" />
<glyph unicode="i" horiz-adv-x="278" d="M2 54q0 22 13 69l58 215q7 30 7 40q0 29 -46 29h-13v27q116 9 202 28l-91 -334q-9 -38 -9 -52q0 -6 4.5 -10.5t10.5 -4.5q24 0 64 60l14 20l22 -14q-52 -79 -87 -107.5t-80 -28.5q-31 0 -50 17.5t-19 45.5zM131 592q0 26 20 46t46 20q28 0 48.5 -20t20.5 -48t-20 -47.5 t-49 -19.5q-28 0 -47 20t-19 49z" />
<glyph unicode="j" horiz-adv-x="278" d="M-189 -130q0 22 14.5 37.5t34.5 15.5t34.5 -14.5t14.5 -34.5q0 -14 -10 -28q-5 -8 -5 -10q0 -4 7.5 -8t16.5 -4q21 0 36.5 28t34.5 103l92 355q12 45 12 67q0 30 -42 30h-20v27q134 12 208 28l-114 -438q-60 -231 -209 -231q-47 0 -76 21t-29 56zM149 592q0 26 20 46 t46 20q28 0 48.5 -20t20.5 -48t-20 -47.5t-49 -19.5q-28 0 -47 20t-19 49z" />
<glyph unicode="k" d="M-23 0l156 567q8 29 8 42q0 34 -42 34l-21 -1v27q99 10 208 30l-123 -460q95 75 129.5 109t34.5 53q0 12 -11 16.5t-40 6.5v25h207v-25q-34 -4 -59 -18t-76 -58l-63 -55q30 -148 43.5 -189t34.5 -41q14 0 28 14t34 50l22 -11q-37 -69 -67.5 -96.5t-68.5 -27.5 q-46 0 -72.5 47.5t-50.5 175.5l-39 -27l-50 -188h-122z" />
<glyph unicode="l" horiz-adv-x="278" d="M2 51q0 37 34 158l75 264q33 120 33 142q0 28 -42 28q-10 0 -21 -1v27q96 9 209 30l-145 -523q-22 -79 -22 -100q0 -6 4.5 -10.5t10.5 -4.5q13 0 30.5 17.5t47.5 62.5l22 -14q-52 -79 -87 -107.5t-81 -28.5q-31 0 -49.5 16.5t-18.5 43.5z" />
<glyph unicode="m" horiz-adv-x="778" d="M-14 0l67 238q35 126 35 144q0 25 -54 25v27q130 10 200 27l-64 -199q48 75 76 110t56 56q41 34 86 34q31 0 49 -18t18 -50q0 -36 -26 -104q62 99 104.5 135.5t93.5 36.5q33 0 55 -20t22 -51q0 -41 -23 -107l-45 -133q-21 -67 -21 -78q0 -14 16 -14q21 0 57 58 q6 11 12 18l22 -13q-44 -74 -79 -102.5t-81 -28.5q-67 0 -67 63q0 48 36 153l45 131q7 23 7 30q0 8 -7 14.5t-16 6.5q-47 0 -112 -116q-27 -48 -42.5 -89t-58.5 -184h-120l65 207q45 138 45 160q0 9 -5.5 15.5t-12.5 6.5q-25 0 -65 -47q-43 -51 -75 -126t-72 -216h-121z" />
<glyph unicode="n" horiz-adv-x="556" d="M-6 0l56 204q46 162 46 178q0 14 -11 19t-43 6v27q92 3 200 27l-64 -198q78 116 123 158q43 41 100 41q73 0 73 -75q0 -39 -26 -115l-36 -109q-25 -74 -25 -87q0 -17 14 -17q13 0 26.5 15t43.5 61l22 -13q-44 -73 -79 -102t-80 -29q-32 0 -50 16t-18 44q0 47 28 131 l55 166q5 17 5 21q0 8 -7.5 14.5t-17.5 6.5q-14 0 -34 -14.5t-35 -34.5q-46 -60 -77.5 -135t-67.5 -206h-121z" />
<glyph unicode="o" d="M-3 135q0 126 88 226.5t199 100.5q69 0 113 -42.5t44 -108.5q0 -127 -86.5 -225.5t-198.5 -98.5q-69 0 -114 42t-45 106zM116 78q0 -29 13 -45.5t36 -16.5q52 0 95 94q25 54 43.5 134t18.5 131q0 27 -12.5 42.5t-34.5 15.5q-49 0 -90 -75q-26 -47 -47.5 -135t-21.5 -145z " />
<glyph unicode="p" d="M-120 -178q36 -1 48.5 11.5t26.5 62.5l100 388q22 82 22 98q0 14 -10 18.5t-44 6.5v27l193 28l-38 -115q44 62 80.5 88.5t79.5 26.5q50 0 79 -33t29 -88q0 -85 -40.5 -167.5t-105.5 -134.5t-131 -52q-25 0 -68 22q-10 -38 -11 -41q-26 -96 -26 -114t13.5 -24.5t51.5 -7.5 v-27h-249v27zM113 58q0 -15 11.5 -25.5t27.5 -10.5q50 0 97 82q27 49 48 115t24 115q2 24 -9 40t-30 17t-42.5 -16t-42.5 -47q-18 -27 -46 -121q-38 -128 -38 -149z" />
<glyph unicode="q" d="M1 117q0 84 52 175q44 77 105 123.5t118 46.5q37 0 54 -22q10 -13 17 -50l15 59h109l-85 -304q-80 -264 -80 -295q0 -28 51 -28h14v-27h-267v27q46 2 61.5 13t28.5 50l63 213q-39 -61 -73 -86t-79 -25q-49 0 -76.5 34.5t-27.5 95.5zM126 116q0 -57 39 -57q45 0 88 74 q26 46 49 122t23 116q0 46 -35 48q-45 3 -95 -85q-31 -54 -50 -115t-19 -103z" />
<glyph unicode="r" horiz-adv-x="389" d="M-21 0q102 345 102 382q0 14 -10 18.5t-44 6.5v27q131 11 200 28l-66 -209q59 119 96 164t75 45q26 0 41.5 -18t15.5 -48q0 -31 -16.5 -52t-41.5 -21q-23 0 -45 25q-9 13 -16 13q-22 0 -65 -76q-34 -58 -72 -181l-33 -104h-121z" />
<glyph unicode="s" horiz-adv-x="389" d="M-19 -13l22 166l27 -3q19 -133 96 -133q24 0 40.5 15.5t16.5 38.5q0 38 -56 104q-50 59 -65 90t-15 71q0 58 36.5 92t97.5 34q25 0 58 -13q23 -9 36 -9q11 0 16 3.5t13 17.5h29l-23 -153l-27 2q-12 62 -33 90.5t-55 28.5q-24 0 -38.5 -14.5t-14.5 -38.5q0 -33 56 -98 q81 -94 81 -159q0 -56 -42 -94t-106 -38q-27 0 -63 12q-21 8 -31 8q-22 0 -29 -20h-27z" />
<glyph unicode="t" horiz-adv-x="278" d="M-11 56q0 30 24 113l68 238h-51v35q59 22 100.5 57t82.5 95h35l-39 -145h72v-42h-83l-33 -119q-54 -186 -54 -212q0 -6 5 -10.5t11 -4.5q25 0 76 80l22 -14q-50 -77 -85.5 -106.5t-80.5 -29.5q-32 0 -51 18t-19 47z" />
<glyph unicode="u" horiz-adv-x="556" d="M15 65q0 33 21 108l40 133q14 45 14 73q0 15 -10.5 20.5t-45.5 7.5v27q55 2 209 28l-94 -308q-15 -48 -15 -66q0 -25 21 -25q28 0 73 55q43 54 71.5 120t70.5 211h118l-78 -268q-25 -80 -25 -105q0 -17 14 -17q24 0 72 74l21 -13q-75 -129 -161 -129q-65 0 -65 60 q0 37 24 110q-77 -108 -113.5 -139t-86.5 -31q-75 0 -75 74z" />
<glyph unicode="v" horiz-adv-x="444" d="M16 407v27q99 14 155 28q16 -61 22 -125t9 -209q74 85 100 123.5t26 64.5q0 14 -20 37q-24 27 -24 51q0 23 17 40.5t39 17.5q24 0 42.5 -20.5t18.5 -46.5q0 -66 -61 -154q-42 -61 -88.5 -112.5t-140.5 -141.5h-26l4 136q1 20 1 41q0 173 -27 227q-5 10 -14.5 13t-32.5 3z " />
<glyph unicode="w" horiz-adv-x="667" d="M16 407v27q119 20 155 28q29 -108 33 -275l156 275h27l32 -332q119 139 119 181q0 15 -20 42q-21 29 -21 49q0 24 17 42t39 18q25 0 43 -18.5t18 -43.5q0 -125 -272 -413h-27l-23 285l-113 -199l-57 -86h-27l1 45l1 35v5l-2 78q-5 224 -38 249q-9 8 -41 8z" />
<glyph unicode="x" d="M-46 46q0 24 16 40t39 16q17 0 40 -13q13 -8 21 -8q14 0 23.5 8t24.5 33l44 70l-30 154q-8 37 -20 52t-36 15q-16 0 -35 -2v27l167 24q23 -34 45 -138q59 83 91 110.5t67 27.5q23 0 40.5 -18.5t17.5 -42.5q0 -22 -16.5 -37.5t-39.5 -15.5q-15 0 -32 11q-18 9 -25 9 q-32 0 -83 -82q-3 -4 -5.5 -7.5t-3.5 -5.5l32 -156q6 -29 14.5 -41t22.5 -12q13 0 25.5 10.5t41.5 48.5l21 -14q-46 -66 -80.5 -94t-70.5 -28q-37 0 -58.5 34.5t-38.5 120.5l-24 -39q-44 -72 -69 -94t-62 -22q-28 0 -46 16.5t-18 42.5z" />
<glyph unicode="y" horiz-adv-x="444" d="M-94 -145q0 22 15 38.5t35 16.5q30 0 60 -21q18 -14 34 -14q13 0 32 15t35 37q25 35 25 69q0 50 -50 288q-23 107 -48 122q-9 5 -30 5v27q84 8 149 24q29 -75 66 -277l12 -75q53 101 70 141.5t17 63.5q0 17 -24 35q-31 23 -31 55q0 23 17.5 40t39.5 17q25 0 43.5 -19 t18.5 -45q0 -76 -75.5 -227t-173.5 -270q-41 -50 -87.5 -78t-87.5 -28q-26 0 -44 17.5t-18 42.5z" />
<glyph unicode="z" horiz-adv-x="389" d="M-43 -1l292 354h-145q-23 0 -36.5 -13.5t-26.5 -47.5l-28 3l43 154h312v-10l-281 -335q39 -17 61 -39t46 -67q13 -26 23.5 -36.5t23.5 -10.5q22 0 22 16q0 5 -7 15q-13 14 -13 31q0 21 15 36.5t35 15.5q21 0 37 -15.5t16 -36.5q0 -39 -31 -65t-77 -26q-57 0 -131 50 q-48 33 -74 33q-13 0 -32 -14q-12 -10 -19 -14z" />
<glyph unicode="{" horiz-adv-x="348" d="M5 249q66 14 94 38t43 78l46 179q23 82 76 112t172 30l-3 -12q-61 -11 -92 -39t-46 -85l-45 -171q-17 -64 -47.5 -90t-103.5 -40q56 -15 74 -30t18 -46q0 -38 -29 -130q-30 -99 -30 -140q0 -34 18.5 -52t62.5 -26l-3 -12q-104 2 -143 21.5t-39 69.5q0 56 35 159 q26 80 26 116q0 26 -19 42t-65 28z" />
<glyph unicode="|" horiz-adv-x="220" d="M54 -159v833h88v-833h-88z" />
<glyph unicode="}" horiz-adv-x="348" d="M-129 -187l3 12q61 11 92 39t46 85l45 171q17 64 47.5 90t103.5 40q-56 15 -74 30t-18 46q0 33 28 130q31 102 31 141q0 33 -19 51t-62 26l3 12q70 -1 104.5 -8t53.5 -24q24 -21 24 -56q0 -57 -35 -162q-26 -80 -26 -116q0 -26 19 -42t65 -28q-67 -15 -94.5 -38.5 t-42.5 -77.5l-46 -179q-23 -82 -76 -112t-172 -30z" />
<glyph unicode="~" horiz-adv-x="570" d="M54 247q48 84 121 84q27 0 53 -8t83 -33q60 -27 82 -27q33 0 68 45l55 -48q-34 -48 -61 -66.5t-62 -18.5q-43 0 -105 33q-62 35 -112 35q-22 0 -36.5 -9t-32.5 -33z" />
<glyph unicode="&#xa1;" horiz-adv-x="389" d="M139 -162q0 33 31 89q84 166 143 318l29 -8q-46 -240 -53 -354q-2 -50 -12 -72q-22 -46 -69 -46q-31 0 -50 20t-19 53zM296 391q0 30 21.5 50.5t52.5 20.5t51.5 -20t20.5 -51q0 -32 -21 -53.5t-52 -21.5q-29 0 -51 22.5t-22 52.5z" />
<glyph unicode="&#xa2;" d="M42 138q0 121 89.5 222.5t195.5 101.5q10 0 28 -3l41 117h35l-45 -127q53 -29 53 -79q0 -29 -18.5 -48.5t-46.5 -19.5q-21 0 -35 11l-92 -261q59 3 118 89l27 -18q-47 -68 -82 -95.5t-85 -37.5l-47 -133h-34l46 130q-71 5 -109.5 44.5t-38.5 106.5zM169 147q0 -64 45 -90 l125 356v2q-2 14 -22 14q-45 0 -86 -73q-27 -48 -44.5 -107t-17.5 -102z" />
<glyph unicode="&#xa3;" d="M-32 75q0 39 26.5 63t69.5 24q28 0 61 -14l19 162h-109l10 60h105q19 93 40 144.5t58 92.5q65 76 153 76q47 0 78 -26t31 -65q0 -29 -17.5 -48.5t-43.5 -19.5q-23 0 -38 14.5t-15 36.5q0 8 3.5 27t3.5 26q0 9 -7 15t-17 6q-45 0 -60 -77l-39 -202h114l-10 -60h-115 q-22 -100 -64 -169l-11 -17q82 -32 125 -32q36 0 54.5 13t35.5 50h25q-15 -75 -45 -114q-42 -53 -106 -53q-58 0 -127 61q-38 -60 -98 -60q-40 0 -65 24t-25 62zM-2 70q0 -23 15.5 -37t40.5 -14q43 0 59 71q-33 30 -64 30q-23 0 -37 -13.5t-14 -36.5z" />
<glyph unicode="&#xa4;" d="M-26 92l98 98q-37 56 -37 120q0 65 37 122l-98 98l58 56l96 -96q56 35 122 35t122 -35l96 96l58 -56l-98 -98q37 -59 37 -122q0 -69 -37 -120l98 -98l-58 -58l-96 98q-60 -37 -122 -37t-122 37l-96 -98zM123 310q0 -56 37 -94.5t90 -38.5q52 0 89.5 39t37.5 92 q0 57 -37 96t-90 39t-90 -38.5t-37 -94.5z" />
<glyph unicode="&#xa5;" d="M33 164l14 50h141l22 78h-142l14 50h125l-79 239q-15 38 -28 48t-54 15v25h280v-25q-43 -2 -59 -8.5t-16 -23.5q0 -14 6 -32l80 -236l135 194q26 37 26 60q0 26 -14 35t-56 11v25h200v-25q-30 -6 -48.5 -20t-44.5 -49l-166 -233h135l-13 -50h-150l-21 -78h152l-14 -50 h-152l-3 -11q-16 -59 -16 -85q0 -25 15.5 -33t65.5 -10v-25h-322v25q57 4 76 16.5t33 55.5l19 67h-141z" />
<glyph unicode="&#xa6;" horiz-adv-x="220" d="M54 -159v333h88v-333h-88zM54 341v333h88v-333h-88z" />
<glyph unicode="&#xa7;" d="M36 -38q0 26 16.5 43t41.5 17t40.5 -14t15.5 -36q0 -26 -22 -45q-13 -10 -13 -18q0 -11 20.5 -20t46.5 -9q38 0 62 21t24 55q0 25 -15 49.5t-68 89.5l-66 80q-51 63 -51 124q0 53 30.5 89.5t73.5 36.5q23 0 49 -6l2 3q-55 61 -55 129q0 59 43 96.5t112 37.5 q59 0 97.5 -27.5t38.5 -70.5q0 -26 -16.5 -43.5t-41.5 -17.5q-23 0 -39 16t-16 38q0 20 22 38q14 10 14 17q0 11 -18 19.5t-41 8.5q-38 0 -61.5 -20.5t-23.5 -52.5q0 -43 68 -123l69 -81q60 -69 60 -143q0 -50 -34.5 -86t-82.5 -36q-14 0 -30 4l-2 -4q59 -74 59 -130 t-47.5 -95t-116.5 -39q-61 0 -103 30.5t-42 74.5zM139 342q0 -33 29 -76q47 -64 79 -91q31 -27 58 -27q24 0 41.5 17.5t17.5 40.5q0 50 -62.5 122t-106.5 72q-24 0 -40 -16.5t-16 -41.5z" />
<glyph unicode="&#xa8;" horiz-adv-x="333" d="M154 589q0 27 19 46.5t45 19.5q27 0 46.5 -19.5t19.5 -46.5q0 -26 -19.5 -45t-46.5 -19q-26 0 -45 19.5t-19 44.5zM364 589q0 27 19 46.5t45 19.5q27 0 46.5 -19.5t19.5 -46.5q0 -26 -19.5 -45t-46.5 -19q-26 0 -45 19.5t-19 44.5z" />
<glyph unicode="&#xa9;" horiz-adv-x="747" d="M19 325q0 143 100.5 243.5t242.5 100.5t243 -100.5t101 -243.5q0 -142 -100.5 -242.5t-243.5 -100.5q-142 0 -242.5 100t-100.5 243zM57 325q0 -127 89 -216t216 -89t216.5 89t89.5 216t-89.5 216.5t-216.5 89.5t-216 -89.5t-89 -216.5zM166 274q-3 102 70 174.5 t176 72.5q38 0 80 -12q11 -4 21 -4q9 0 20 16h25l-29 -137l-32 5q2 9 2 22q-1 38 -20.5 60t-52.5 22q-36 0 -64 -24q-39 -32 -64.5 -92.5t-24.5 -118.5q2 -42 24.5 -66.5t61.5 -24.5q29 0 52 10q33 13 71 56l24 -16q-28 -36 -49 -50q-54 -37 -118 -37q-76 0 -124 39.5 t-49 104.5z" />
<glyph unicode="&#xaa;" horiz-adv-x="266" d="M-23 351l8 30h316l-8 -30h-316zM16 476q0 72 59 140.5t121 68.5q37 0 47 -45l11 36l76 4l-46 -140q-22 -66 -22 -89q0 -9 5 -9q11 0 46 42l13 -9q-54 -76 -97 -76q-18 0 -31 11.5t-13 26.5q0 14 11 51q-28 -49 -52.5 -68.5t-57.5 -19.5q-31 0 -50.5 21t-19.5 55zM94 473 q0 -11 7 -19.5t17 -8.5q34 0 67 70t33 115q0 26 -20 28q-26 3 -65 -66t-39 -119z" />
<glyph unicode="&#xab;" d="M12 217v9l170 124q30 21 47 37q28 28 41 28q5 0 9 -3.5t4 -8.5q0 -30 -101 -134l-45 -49l40 -83q33 -69 33 -90q0 -15 -15 -15q-6 0 -15 10zM197 217v9l170 124q30 21 47 37q28 28 41 28q5 0 9 -3.5t4 -8.5q0 -30 -101 -134l-45 -49l40 -83q33 -69 33 -90q0 -15 -15 -15 q-6 0 -15 10z" />
<glyph unicode="&#xac;" horiz-adv-x="570" d="M32 290v88h482v-212h-88v124h-394z" />
<glyph unicode="&#xad;" horiz-adv-x="333" d="M2 166l24 116h245l-23 -116h-246z" />
<glyph unicode="&#xae;" horiz-adv-x="747" d="M19 325q0 143 100.5 243.5t242.5 100.5t243 -100.5t101 -243.5q0 -142 -100.5 -242.5t-243.5 -100.5q-142 0 -242.5 100t-100.5 243zM57 325q0 -127 89 -216t216 -89t216.5 89t89.5 216t-89.5 216.5t-216.5 89.5t-216 -89.5t-89 -216.5zM165 160q20 2 28 9t14 27l67 244 q5 17 5 32q0 13 -20 14q-11 3 -19 3v22h168q148 0 150 -81q2 -50 -50 -81q-21 -14 -61 -22l52 -130q10 -23 18.5 -29t35.5 -8v-21h-135l-71 187l-31 -108q-7 -24 -7 -38q0 -10 7.5 -13.5t30.5 -5.5l1 -22h-182zM352 345q45 1 62 12q40 22 38 80q0 48 -48 48q-10 0 -14 -4 t-6 -15z" />
<glyph unicode="&#xaf;" horiz-adv-x="333" d="M153 555l17 70h325l-16 -70h-326z" />
<glyph unicode="&#xb0;" horiz-adv-x="400" d="M83 540q0 60 41.5 101.5t101.5 41.5t101.5 -41.5t41.5 -101.5q0 -61 -41.5 -102t-103.5 -41q-58 0 -99.5 42t-41.5 101zM124 540q0 -44 30 -75.5t71 -31.5q43 0 73 31.5t30 75.5q0 43 -30.5 75t-71.5 32q-42 0 -72 -31.5t-30 -75.5z" />
<glyph unicode="&#xb1;" horiz-adv-x="570" d="M32 0v88h482v-88h-482zM32 294v88h197v197h88v-197h197v-88h-197v-127h-88v127h-197z" />
<glyph unicode="&#xb2;" horiz-adv-x="300" d="M2 274v16q119 113 148 145q70 77 70 121q0 31 -15.5 48.5t-43.5 17.5q-39 0 -82 -48l-18 11q53 98 144 98q46 0 77 -28.5t31 -70.5q0 -36 -21 -67.5t-71 -72.5l-125 -101h89q37 0 54 8.5t36 36.5h16l-51 -114h-238z" />
<glyph unicode="&#xb3;" horiz-adv-x="300" d="M17 315q0 18 10.5 29.5t26.5 11.5q24 0 43 -28q16 -21 22 -25.5t20 -4.5q30 0 50.5 26.5t20.5 65.5q0 87 -100 91l2 14q121 22 121 85q0 24 -15 38t-40 14q-38 0 -75 -42l-14 13q57 80 133 80q42 0 70.5 -23.5t28.5 -57.5q0 -28 -17 -46.5t-62 -44.5q29 -20 40.5 -39.5 t11.5 -48.5q0 -65 -56 -111.5t-135 -46.5q-86 0 -86 50z" />
<glyph unicode="&#xb4;" horiz-adv-x="333" d="M204 499l122 131q47 50 70 50q20 0 34 -14t14 -33q0 -14 -8.5 -24t-30.5 -23l-152 -87h-49z" />
<glyph unicode="&#xb5;" horiz-adv-x="576" d="M-55 -162q-1 27 41 105.5t57 137.5l90 358h125l-71 -282q-11 -37 -11 -64q1 -15 11 -25t25 -10q32 0 69.5 48t63.5 154l44 179h125l-73 -289q-17 -68 -17 -82q1 -10 8.5 -18.5t17.5 -8.5q15 0 30 23.5t23 45.5l18 -10q-14 -50 -45.5 -82t-80.5 -32q-37 0 -59.5 23 t-24.5 60l-1 38h-2q-23 -36 -40 -58t-49.5 -42.5t-69.5 -20.5q-53 0 -76 43q-22 -62 -19 -132q5 -113 -60 -113q-22 0 -35 16t-14 38z" />
<glyph unicode="&#xb6;" d="M-57 -193l7 25q64 5 78 18q9 9 28 82l85 326q-65 3 -98 25q-47 33 -47 105q0 57 22 118.5t54 96.5q62 66 195 66h295l-6 -25q-61 -5 -74 -13.5t-24 -49.5l-169 -649l-16 -73q0 -20 50 -25l23 -2l-7 -25h-171l217 837h-55l-217 -837h-170zM75 394q0 -81 72 -111l94 361 q-49 -12 -74 -29.5t-47 -55.5q-45 -77 -45 -165z" />
<glyph unicode="&#xb7;" horiz-adv-x="250" d="M29 250q0 34 24.5 59t59.5 25t59.5 -25t24.5 -59t-24.5 -59t-59.5 -25t-59.5 25t-24.5 59z" />
<glyph unicode="&#xb8;" horiz-adv-x="333" d="M-80 -193l22 33q38 -17 67 -17q26 0 41 11t15 30q0 36 -47 36q-14 0 -30 -4l-13 12l66 97h44l-45 -67q15 3 26 3q39 0 64.5 -20.5t25.5 -51.5q0 -37 -35.5 -62t-88.5 -25q-51 0 -112 25z" />
<glyph unicode="&#xb9;" horiz-adv-x="300" d="M30 274v19q42 0 58.5 15t29.5 65q2 8 13 41t26 81t25 82.5t9 35.5q-4 21 -26 21q-4 0 -32 -2l-11 -1l2 21q103 16 177 31l-100 -330q-6 -18 -6 -34t11 -21t48 -5v-19h-224z" />
<glyph unicode="&#xba;" horiz-adv-x="300" d="M13 352l8 30h275l-8 -30h-275zM56 489q0 75 57.5 135.5t129.5 60.5q48 0 77 -27.5t27 -70.5q-4 -74 -60 -130.5t-125 -56.5q-46 0 -76 25t-30 64zM137 455q0 -11 3.5 -19t10 -12t14.5 -4q27 0 51 39.5t36 85.5t14 82t-25 38q-34 2 -60 -48q-17 -30 -30.5 -79.5 t-13.5 -82.5z" />
<glyph unicode="&#xbb;" d="M12 44q0 30 101 134l45 49l-40 83q-33 67 -33 90q0 15 15 15q6 0 15 -10l168 -175v-9l-170 -124q-31 -23 -47 -38q-29 -27 -41 -27q-13 0 -13 12zM197 44q0 30 101 134l45 49l-40 83q-33 67 -33 90q0 15 15 15q6 0 15 -10l168 -175v-9l-170 -124q-31 -23 -47 -38 q-29 -27 -41 -27q-13 0 -13 12z" />
<glyph unicode="&#xbc;" horiz-adv-x="750" d="M7 274v19q42 0 58.5 15t29.5 65q10 31 13 41q60 178 60 199q0 8 -8 14.5t-18 6.5q-4 0 -32 -2l-11 -1l2 21q103 16 177 31l-100 -330q-6 -18 -6 -34t11 -21t48 -5v-19h-224zM136 -14l435 697h58l-435 -697h-58zM381 88l16 67l278 255h46l-78 -261h45l-17 -61h-44l-28 -88 h-86l27 88h-159zM425 149h132l52 170z" />
<glyph unicode="&#xbd;" horiz-adv-x="750" d="M-9 274v19q42 0 58.5 15t29.5 65q10 31 13 41q60 178 60 199q0 8 -8 14.5t-18 6.5q-4 0 -32 -2l-11 -1l2 21q103 16 177 31l-100 -330q-6 -18 -6 -34t11 -21t48 -5v-19h-224zM121 -14l435 697h58l-435 -697h-58zM412 0v16q119 113 148 145q70 77 70 121q0 31 -15.5 48.5 t-43.5 17.5q-39 0 -82 -48l-18 11q53 98 144 98q46 0 77 -28.5t31 -70.5q0 -36 -21 -67.5t-71 -72.5l-125 -101h89q37 0 54 8.5t36 36.5h16l-51 -114h-238z" />
<glyph unicode="&#xbe;" horiz-adv-x="750" d="M7 315q0 18 10.5 29.5t26.5 11.5q24 0 43 -28q16 -21 22 -25.5t20 -4.5q30 0 50.5 26.5t20.5 64.5q0 88 -100 92l2 14q121 22 121 85q0 24 -15 38t-40 14q-38 0 -75 -42l-14 13q57 80 133 80q42 0 70.5 -23.5t28.5 -57.5q0 -28 -14.5 -45t-57.5 -42l-7 -4 q29 -20 40.5 -39.5t11.5 -48.5q0 -65 -56 -111.5t-135 -46.5q-86 0 -86 50zM141 -14l435 697h58l-435 -697h-58zM386 88l16 67l278 255h46l-78 -261h45l-17 -61h-44l-28 -88h-86l27 88h-159zM430 149h132l52 170z" />
<glyph unicode="&#xbf;" d="M150 -91q0 47 29.5 87.5t96.5 83.5l66 43q29 19 45 42.5t37 75.5l29 -7q-6 -76 -71 -159l-41 -51q-64 -80 -64 -149q0 -37 18.5 -58t50.5 -21q24 0 43 11.5t19 26.5q0 8 -11 22q-18 24 -18 45q0 25 18 42.5t43 17.5q26 0 43.5 -19t17.5 -48q0 -56 -49.5 -92.5 t-125.5 -36.5q-79 0 -127.5 39.5t-48.5 104.5zM393 388q0 31 21.5 52.5t53.5 21.5q31 0 52 -21t21 -53t-21.5 -53t-53.5 -21q-30 0 -51.5 22t-21.5 52z" />
<glyph unicode="&#xc0;" horiz-adv-x="667" d="M-67 0v25q27 6 43 19.5t40 50.5l372 588h25l96 -572q10 -57 22 -69.5t62 -16.5v-25h-304v25q48 5 63.5 16.5t15.5 42.5q0 10 -3 32t-7 49.5t-5 42.5h-215l-59 -102q-15 -26 -15 -46q0 -35 65 -35v-25h-196zM161 248h185l-37 243zM314 825q5 10 17 18.5t27 14t28 5.5 q15 0 27 -9t27 -31l75 -106h-53l-126 71q-19 11 -23.5 18.5t1.5 18.5z" />
<glyph unicode="&#xc1;" horiz-adv-x="667" d="M-67 0v25q27 6 43 19.5t40 50.5l372 588h25l96 -572q10 -57 22 -69.5t62 -16.5v-25h-304v25q48 5 63.5 16.5t15.5 42.5q0 10 -3 32t-7 49.5t-5 42.5h-215l-59 -102q-15 -26 -15 -46q0 -35 65 -35v-25h-196zM161 248h185l-37 243zM304 717l132 106q49 40 76 40 q20 0 35.5 -11.5t15.5 -26.5q0 -11 -8.5 -19t-33.5 -18l-164 -71h-53z" />
<glyph unicode="&#xc2;" horiz-adv-x="667" d="M-67 0v25q27 6 43 19.5t40 50.5l372 588h25l96 -572q10 -57 22 -69.5t62 -16.5v-25h-304v25q48 5 63.5 16.5t15.5 42.5q0 10 -3 32t-7 49.5t-5 42.5h-215l-59 -102q-15 -26 -15 -46q0 -35 65 -35v-25h-196zM161 248h185l-37 243zM234 720l172 141h87l94 -141h-55l-96 77 l-141 -77h-61z" />
<glyph unicode="&#xc3;" horiz-adv-x="667" d="M-67 0v25q27 6 43 19.5t40 50.5l372 588h25l96 -572q10 -57 22 -69.5t62 -16.5v-25h-304v25q48 5 63.5 16.5t15.5 42.5q0 10 -3 32t-7 49.5t-5 42.5h-215l-59 -102q-15 -26 -15 -46q0 -35 65 -35v-25h-196zM161 248h185l-37 243zM250 732q10 54 41.5 86t74.5 32 q38 0 97 -26q39 -16 54 -16q9 0 15.5 2t13 7t11.5 13t11 20h41q-16 -63 -44 -91t-73 -28q-25 0 -57 13l-59 23q-21 8 -38 8q-11 0 -19.5 -4t-15 -13.5t-13.5 -25.5h-40z" />
<glyph unicode="&#xc4;" horiz-adv-x="667" d="M-67 0v25q27 6 43 19.5t40 50.5l372 588h25l96 -572q10 -57 22 -69.5t62 -16.5v-25h-304v25q48 5 63.5 16.5t15.5 42.5q0 10 -3 32t-7 49.5t-5 42.5h-215l-59 -102q-15 -26 -15 -46q0 -35 65 -35v-25h-196zM161 248h185l-37 243zM259 789q0 27 19 46.5t45 19.5 q27 0 46.5 -19.5t19.5 -46.5q0 -26 -19.5 -45t-46.5 -19q-25 0 -44.5 19.5t-19.5 44.5zM469 789q0 27 19 46.5t45 19.5q27 0 46.5 -19.5t19.5 -46.5q0 -26 -19.5 -45t-46.5 -19q-25 0 -44.5 19.5t-19.5 44.5z" />
<glyph unicode="&#xc5;" horiz-adv-x="667" d="M-67 0v25q27 6 43 19.5t40 50.5l372 588h25l96 -572q10 -57 22 -69.5t62 -16.5v-25h-304v25q48 5 63.5 16.5t15.5 42.5q0 10 -3 32t-7 49.5t-5 42.5h-215l-59 -102q-15 -26 -15 -46q0 -35 65 -35v-25h-196zM161 248h185l-37 243zM328 811q0 28 14.5 52.5t39.5 38.5t53 14 q43 0 74.5 -31t31.5 -75t-31.5 -75.5t-75.5 -31.5t-75 31.5t-31 76.5zM376 809q0 -24 17 -41t40 -17q25 0 42.5 17t17.5 40q0 25 -17.5 42.5t-42.5 17.5q-23 0 -40 -17.5t-17 -41.5z" />
<glyph unicode="&#xc6;" horiz-adv-x="944" d="M-64 0v25q19 2 30 9q7 3 58 68l366 472q20 27 20 44q0 14 -16 19.5t-65 8.5v23h589l-45 -190l-24 5l-2 40q-6 113 -162 113q-32 0 -43 -6t-16 -26l-65 -235h19q76 0 110.5 20.5t64.5 85.5l26 -4l-73 -273l-25 5q3 30 3 46q0 50 -25 66.5t-108 21.5l-63 -241 q-5 -20 -5 -28q0 -20 13.5 -28.5t44.5 -8.5q112 0 179 48q28 19 49.5 44.5t52.5 74.5l26 -3l-59 -196h-527v25q39 6 52.5 18.5t25.5 52.5l46 159h-192l-114 -157q-15 -20 -15 -39q0 -16 14 -23.5t50 -10.5v-25h-195zM225 294h173l92 333h-12z" />
<glyph unicode="&#xc7;" horiz-adv-x="667" d="M32 241q0 182 120.5 313t287.5 131q64 0 131 -21q24 -8 38 -8q20 0 38 29h30l-51 -234l-32 6q3 19 3 35q0 73 -35 115.5t-96 42.5q-63 0 -120 -48q-68 -59 -114 -172t-46 -221q0 -82 40 -128t110 -46q48 0 90 18q32 14 57.5 35t62.5 65l30 -22q-40 -55 -78 -84 q-86 -65 -194 -65q-30 0 -63 6l-34 -50q15 3 26 3q39 0 64.5 -20.5t25.5 -51.5q0 -37 -35.5 -62t-88.5 -25q-52 0 -112 25l22 33q37 -17 67 -17q26 0 41 11t15 30q0 36 -47 36q-14 0 -30 -4l-13 12l61 90q-82 27 -126.5 90.5t-44.5 152.5z" />
<glyph unicode="&#xc8;" horiz-adv-x="667" d="M-27 0v25q39 6 53.5 19t26.5 53l123 449q10 38 10 61q0 28 -42 33l-31 4v25h540l-43 -190l-27 5q0 46 -6.5 69.5t-23.5 41.5q-42 42 -154 42q-31 0 -43 -9t-20 -35l-61 -223q99 -1 134.5 17.5t70.5 88.5l28 -4l-74 -273l-28 5q4 25 4 44q0 52 -29.5 70.5t-114.5 19.5 l-56 -209q-15 -31 -15 -63q0 -34 61 -34q131 0 214 61q28 20 47 42t44 64l25 -5l-59 -194h-554zM346 825q8 15 30 26.5t42 11.5q27 0 54 -40l75 -106h-53l-126 71q-19 11 -23.5 18.5t1.5 18.5z" />
<glyph unicode="&#xc9;" horiz-adv-x="667" d="M-27 0v25q39 6 53.5 19t26.5 53l123 449q10 38 10 61q0 28 -42 33l-31 4v25h540l-43 -190l-27 5q0 46 -6.5 69.5t-23.5 41.5q-42 42 -154 42q-31 0 -43 -9t-20 -35l-61 -223q99 -1 134.5 17.5t70.5 88.5l28 -4l-74 -273l-28 5q4 25 4 44q0 52 -29.5 70.5t-114.5 19.5 l-56 -209q-15 -31 -15 -63q0 -34 61 -34q131 0 214 61q28 20 47 42t44 64l25 -5l-59 -194h-554zM336 717l132 106q49 40 76 40q20 0 35.5 -11.5t15.5 -26.5q0 -11 -8.5 -19t-33.5 -18l-164 -71h-53z" />
<glyph unicode="&#xca;" horiz-adv-x="667" d="M-27 0v25q39 6 53.5 19t26.5 53l123 449q10 38 10 61q0 28 -42 33l-31 4v25h540l-43 -190l-27 5q0 46 -6.5 69.5t-23.5 41.5q-42 42 -154 42q-31 0 -43 -9t-20 -35l-61 -223q99 -1 134.5 17.5t70.5 88.5l28 -4l-74 -273l-28 5q4 25 4 44q0 52 -29.5 70.5t-114.5 19.5 l-56 -209q-15 -31 -15 -63q0 -34 61 -34q131 0 214 61q28 20 47 42t44 64l25 -5l-59 -194h-554zM266 720l172 141h87l94 -141h-55l-96 77l-141 -77h-61z" />
<glyph unicode="&#xcb;" horiz-adv-x="667" d="M-27 0v25q39 6 53.5 19t26.5 53l123 449q10 38 10 61q0 28 -42 33l-31 4v25h540l-43 -190l-27 5q0 46 -6.5 69.5t-23.5 41.5q-42 42 -154 42q-31 0 -43 -9t-20 -35l-61 -223q99 -1 134.5 17.5t70.5 88.5l28 -4l-74 -273l-28 5q4 25 4 44q0 52 -29.5 70.5t-114.5 19.5 l-56 -209q-15 -31 -15 -63q0 -34 61 -34q131 0 214 61q28 20 47 42t44 64l25 -5l-59 -194h-554zM291 789q0 27 19 46.5t45 19.5q27 0 46.5 -19.5t19.5 -46.5q0 -26 -19.5 -45t-46.5 -19q-25 0 -44.5 19.5t-19.5 44.5zM501 789q0 27 19 46.5t45 19.5q27 0 46.5 -19.5 t19.5 -46.5q0 -26 -19.5 -45t-46.5 -19q-25 0 -44.5 19.5t-19.5 44.5z" />
<glyph unicode="&#xcc;" horiz-adv-x="389" d="M-32 0v25q37 4 52.5 18.5t27.5 53.5l123 449q10 38 10 61q0 15 -9 22t-32 10q-22 4 -32 5v25h298v-25q-38 -5 -54 -18.5t-28 -53.5l-114 -420q-18 -64 -18 -87q0 -21 15 -29.5t57 -10.5v-25h-296zM194 825q8 15 30 26.5t42 11.5q27 0 54 -40l75 -106h-53l-126 71 q-19 11 -23.5 18.5t1.5 18.5z" />
<glyph unicode="&#xcd;" horiz-adv-x="389" d="M-32 0v25q37 4 52.5 18.5t27.5 53.5l123 449q10 38 10 61q0 15 -9 22t-32 10q-22 4 -32 5v25h298v-25q-38 -5 -54 -18.5t-28 -53.5l-114 -420q-18 -64 -18 -87q0 -21 15 -29.5t57 -10.5v-25h-296zM184 717l132 106q49 40 76 40q20 0 35.5 -11.5t15.5 -26.5 q0 -11 -8.5 -19t-33.5 -18l-164 -71h-53z" />
<glyph unicode="&#xce;" horiz-adv-x="389" d="M-32 0v25q37 4 52.5 18.5t27.5 53.5l123 449q10 38 10 61q0 15 -9 22t-32 10q-22 4 -32 5v25h298v-25q-38 -5 -54 -18.5t-28 -53.5l-114 -420q-18 -64 -18 -87q0 -21 15 -29.5t57 -10.5v-25h-296zM114 720l172 141h87l94 -141h-55l-96 77l-141 -77h-61z" />
<glyph unicode="&#xcf;" horiz-adv-x="389" d="M-32 0v25q37 4 52.5 18.5t27.5 53.5l123 449q10 38 10 61q0 15 -9 22t-32 10q-22 4 -32 5v25h298v-25q-38 -5 -54 -18.5t-28 -53.5l-114 -420q-18 -64 -18 -87q0 -21 15 -29.5t57 -10.5v-25h-296zM139 789q0 27 19 46.5t45 19.5q27 0 46.5 -19.5t19.5 -46.5 q0 -26 -19.5 -45t-46.5 -19q-25 0 -44.5 19.5t-19.5 44.5zM349 789q0 27 19 46.5t45 19.5q27 0 46.5 -19.5t19.5 -46.5q0 -26 -19.5 -45t-46.5 -19q-25 0 -44.5 19.5t-19.5 44.5z" />
<glyph unicode="&#xd0;" horiz-adv-x="722" d="M-31 0v25q36 5 52.5 19.5t27.5 52.5l63 232h-102l12 44h102l46 170q12 44 12 59q0 18 -9 26t-33 11l-31 5v25h290q142 0 221.5 -72.5t79.5 -200.5q0 -171 -126.5 -283.5t-318.5 -112.5h-286zM192 68q0 -34 54 -34q142 0 223 118q39 58 61.5 140t22.5 165q0 181 -165 181 q-46 0 -55 -38l-61 -227h122l-12 -44h-122l-55 -203q-13 -52 -13 -58z" />
<glyph unicode="&#xd1;" horiz-adv-x="722" d="M-27 0v25q41 8 56.5 31.5t44.5 121.5l120 411q-14 33 -28 42t-55 13v25h195l215 -465l80 287q18 67 18 94q0 29 -18 42t-62 17v25h209v-25q-31 -7 -45 -18t-25 -37t-32 -98l-143 -506h-28l-257 549l-99 -356q-18 -63 -18 -94q0 -29 18 -42t62 -17v-25h-208zM308 732 q10 54 41.5 86t74.5 32q38 0 97 -26q39 -16 54 -16q17 0 28.5 9t22.5 33h41q-16 -63 -44 -91t-73 -28q-25 0 -57 13l-59 23q-21 8 -38 8q-31 0 -48 -43h-40z" />
<glyph unicode="&#xd2;" horiz-adv-x="722" d="M27 221q0 103 54.5 209.5t154 180.5t213.5 74q104 0 173 -65.5t69 -165.5q0 -112 -59 -223t-154 -178q-98 -71 -215 -71q-106 0 -171 66t-65 173zM171 137q0 -56 27.5 -88.5t74.5 -32.5q81 0 149 102q49 74 87 200t38 214q0 53 -28 86t-73 33q-99 0 -175 -142 q-39 -73 -69.5 -186t-30.5 -186zM368 825q8 15 30 26.5t42 11.5q27 0 54 -40l75 -106h-53l-126 71q-19 11 -23.5 18.5t1.5 18.5z" />
<glyph unicode="&#xd3;" horiz-adv-x="722" d="M27 221q0 103 54.5 209.5t154 180.5t213.5 74q104 0 173 -65.5t69 -165.5q0 -112 -59 -223t-154 -178q-98 -71 -215 -71q-106 0 -171 66t-65 173zM171 137q0 -56 27.5 -88.5t74.5 -32.5q81 0 149 102q49 74 87 200t38 214q0 53 -28 86t-73 33q-99 0 -175 -142 q-39 -73 -69.5 -186t-30.5 -186zM358 717l132 106q49 40 76 40q20 0 35.5 -11.5t15.5 -26.5q0 -11 -8.5 -19t-33.5 -18l-164 -71h-53z" />
<glyph unicode="&#xd4;" horiz-adv-x="722" d="M27 221q0 103 54.5 209.5t154 180.5t213.5 74q104 0 173 -65.5t69 -165.5q0 -112 -59 -223t-154 -178q-98 -71 -215 -71q-106 0 -171 66t-65 173zM171 137q0 -56 27.5 -88.5t74.5 -32.5q81 0 149 102q49 74 87 200t38 214q0 53 -28 86t-73 33q-99 0 -175 -142 q-39 -73 -69.5 -186t-30.5 -186zM288 720l172 141h87l94 -141h-55l-96 77l-141 -77h-61z" />
<glyph unicode="&#xd5;" horiz-adv-x="722" d="M27 221q0 103 54.5 209.5t154 180.5t213.5 74q104 0 173 -65.5t69 -165.5q0 -112 -59 -223t-154 -178q-98 -71 -215 -71q-106 0 -171 66t-65 173zM171 137q0 -56 27.5 -88.5t74.5 -32.5q81 0 149 102q49 74 87 200t38 214q0 53 -28 86t-73 33q-99 0 -175 -142 q-39 -73 -69.5 -186t-30.5 -186zM304 732q10 54 41.5 86t74.5 32q38 0 97 -26q39 -16 54 -16q17 0 28.5 9t22.5 33h41q-16 -63 -44 -91t-73 -28q-25 0 -57 13l-59 23q-21 8 -38 8q-31 0 -48 -43h-40z" />
<glyph unicode="&#xd6;" horiz-adv-x="722" d="M27 221q0 103 54.5 209.5t154 180.5t213.5 74q104 0 173 -65.5t69 -165.5q0 -112 -59 -223t-154 -178q-98 -71 -215 -71q-106 0 -171 66t-65 173zM171 137q0 -56 27.5 -88.5t74.5 -32.5q81 0 149 102q49 74 87 200t38 214q0 53 -28 86t-73 33q-99 0 -175 -142 q-39 -73 -69.5 -186t-30.5 -186zM313 789q0 27 19 46.5t45 19.5q27 0 46.5 -19.5t19.5 -46.5q0 -26 -19.5 -45t-46.5 -19q-25 0 -44.5 19.5t-19.5 44.5zM523 789q0 27 19 46.5t45 19.5q27 0 46.5 -19.5t19.5 -46.5q0 -26 -19.5 -45t-46.5 -19q-25 0 -44.5 19.5t-19.5 44.5z " />
<glyph unicode="&#xd7;" horiz-adv-x="570" d="M71 111l140 139l-140 139l63 63l139 -140l139 140l63 -63l-140 -139l140 -139l-63 -63l-139 140l-139 -140z" />
<glyph unicode="&#xd8;" horiz-adv-x="722" d="M27 212q0 89 36 176t94 152t135.5 105t156.5 40q40 0 82 -13l53 92h49l-63 -108q54 -31 78 -66q43 -61 43 -137q0 -112 -59 -222t-154 -178q-100 -71 -212 -71q-43 0 -83 13l-70 -120h-48l79 136q-39 23 -61 47q-56 65 -56 154zM171 141q0 -33 11 -64l324 553 q-27 21 -63 21q-92 0 -165 -130q-43 -77 -75 -190t-32 -190zM208 38q28 -22 65 -22q81 0 149 103q48 71 86.5 197t38.5 211q0 30 -14 66z" />
<glyph unicode="&#xd9;" horiz-adv-x="722" d="M67 148q0 54 34 175l55 206q15 58 15 76q0 16 -9 23.5t-33 11.5l-31 4v25h311v-25q-46 -2 -63.5 -15.5t-30.5 -56.5l-82 -300q-28 -101 -28 -133q0 -47 32.5 -74t89.5 -27q82 0 133 60q43 53 79 184l58 209q19 70 19 96q0 27 -18.5 40t-61.5 17v25h208v-25 q-41 -8 -56.5 -31t-45.5 -122l-66 -228q-42 -147 -89 -201q-68 -80 -197 -80q-98 0 -160.5 46.5t-62.5 119.5zM410 825q8 15 30 26.5t42 11.5q27 0 54 -40l75 -106h-53l-126 71q-19 11 -23.5 18.5t1.5 18.5z" />
<glyph unicode="&#xda;" horiz-adv-x="722" d="M67 148q0 54 34 175l55 206q15 58 15 76q0 16 -9 23.5t-33 11.5l-31 4v25h311v-25q-46 -2 -63.5 -15.5t-30.5 -56.5l-82 -300q-28 -101 -28 -133q0 -47 32.5 -74t89.5 -27q82 0 133 60q43 53 79 184l58 209q19 70 19 96q0 27 -18.5 40t-61.5 17v25h208v-25 q-41 -8 -56.5 -31t-45.5 -122l-66 -228q-42 -147 -89 -201q-68 -80 -197 -80q-98 0 -160.5 46.5t-62.5 119.5zM400 717l132 106q49 40 76 40q20 0 35.5 -11.5t15.5 -26.5q0 -11 -8.5 -19t-33.5 -18l-164 -71h-53z" />
<glyph unicode="&#xdb;" horiz-adv-x="722" d="M67 148q0 54 34 175l55 206q15 58 15 76q0 16 -9 23.5t-33 11.5l-31 4v25h311v-25q-46 -2 -63.5 -15.5t-30.5 -56.5l-82 -300q-28 -101 -28 -133q0 -47 32.5 -74t89.5 -27q82 0 133 60q43 53 79 184l58 209q19 70 19 96q0 27 -18.5 40t-61.5 17v25h208v-25 q-41 -8 -56.5 -31t-45.5 -122l-66 -228q-42 -147 -89 -201q-68 -80 -197 -80q-98 0 -160.5 46.5t-62.5 119.5zM330 720l172 141h87l94 -141h-55l-96 77l-141 -77h-61z" />
<glyph unicode="&#xdc;" horiz-adv-x="722" d="M67 148q0 54 34 175l55 206q15 58 15 76q0 16 -9 23.5t-33 11.5l-31 4v25h311v-25q-46 -2 -63.5 -15.5t-30.5 -56.5l-82 -300q-28 -101 -28 -133q0 -47 32.5 -74t89.5 -27q82 0 133 60q43 53 79 184l58 209q19 70 19 96q0 27 -18.5 40t-61.5 17v25h208v-25 q-41 -8 -56.5 -31t-45.5 -122l-66 -228q-42 -147 -89 -201q-68 -80 -197 -80q-98 0 -160.5 46.5t-62.5 119.5zM355 789q0 27 19 46.5t45 19.5q27 0 46.5 -19.5t19.5 -46.5q0 -26 -19.5 -45t-46.5 -19q-25 0 -44.5 19.5t-19.5 44.5zM565 789q0 27 19 46.5t45 19.5 q27 0 46.5 -19.5t19.5 -46.5q0 -26 -19.5 -45t-46.5 -19q-25 0 -44.5 19.5t-19.5 44.5z" />
<glyph unicode="&#xdd;" horiz-adv-x="611" d="M73 0v25q52 4 69.5 16.5t31.5 55.5l60 216l-88 268q-14 40 -24.5 49t-48.5 14v25h283v-25q-42 -2 -56 -9t-14 -28q0 -24 33 -119q16 -51 44 -136l129 186q26 37 26 60q0 26 -13.5 35t-53.5 11v25h208v-25q-28 -6 -46.5 -20t-44.5 -49l-190 -267l-52 -191q-8 -29 -8 -45 q0 -28 14 -36.5t63 -10.5v-25h-322zM309 717l132 106q49 40 76 40q20 0 35.5 -11.5t15.5 -26.5q0 -11 -8.5 -19t-33.5 -18l-164 -71h-53z" />
<glyph unicode="&#xde;" horiz-adv-x="611" d="M-27 0v25q39 6 53.5 19t26.5 53l123 449q10 38 10 61q0 28 -42 33l-31 4v25h294l-1 -25q-40 -6 -53 -17.5t-28 -54.5l-13 -38h48q104 0 158.5 -39.5t54.5 -115.5q0 -90 -74 -143.5t-199 -53.5q-37 0 -81 5l-14 -64q-10 -44 -10 -59q0 -20 15 -28.5t57 -10.5v-25h-294z M229 219q34 -2 42 -2q53 0 84 19t50 65q22 52 22 110q0 43 -22 67t-62 24q-26 0 -39 -14q-4 -6 -11 -30z" />
<glyph unicode="&#xdf;" d="M-200 -123q0 24 14 38.5t37 14.5q22 0 35 -12t13 -33q0 -20 -11 -31q-6 -6 -6 -12q0 -11 16 -11q26 0 39 17q25 33 47 132l92 423q66 302 251 302q64 0 105 -37t41 -94q0 -59 -41 -97q-25 -25 -53.5 -40.5t-87.5 -37.5q71 -14 101 -42q43 -37 43 -102q0 -104 -66.5 -183 t-153.5 -79q-41 0 -73 22l20 35q18 -23 47 -23q35 0 62 60q18 40 31 104.5t13 112.5q0 49 -24 65q-12 10 -50 15l7 37q26 0 50 14.5t35 38.5q29 63 29 140q0 61 -46 61q-34 0 -58 -39t-44 -127l-91 -407q-68 -302 -226 -302q-43 0 -70 21t-27 56z" />
<glyph unicode="&#xe0;" d="M-21 114q0 76 42 158t106.5 136t124.5 54q32 0 49.5 -17t24.5 -55l18 59l111 7l-71 -236q-34 -112 -34 -148q0 -15 12 -15t26.5 14t45.5 56l21 -15q-84 -126 -151 -126q-28 0 -47.5 19t-19.5 47q0 19 14 67q-43 -72 -80.5 -102t-83.5 -30q-49 0 -78.5 35t-29.5 92z M102 112q0 -23 13 -38.5t32 -15.5q43 0 84 75q29 52 50.5 123.5t21.5 116.5q0 20 -10 32.5t-27 14.5q-42 3 -90 -82q-31 -56 -52.5 -121.5t-21.5 -104.5zM190 633q10 19 31.5 33t41.5 14q13 0 22.5 -10.5t20.5 -39.5l52 -131h-49l-105 87q-16 13 -19 23t5 24z" />
<glyph unicode="&#xe1;" d="M-21 114q0 76 42 158t106.5 136t124.5 54q32 0 49.5 -17t24.5 -55l18 59l111 7l-71 -236q-34 -112 -34 -148q0 -15 12 -15t26.5 14t45.5 56l21 -15q-84 -126 -151 -126q-28 0 -47.5 19t-19.5 47q0 19 14 67q-43 -72 -80.5 -102t-83.5 -30q-49 0 -78.5 35t-29.5 92z M102 112q0 -23 13 -38.5t32 -15.5q43 0 84 75q29 52 50.5 123.5t21.5 116.5q0 20 -10 32.5t-27 14.5q-42 3 -90 -82q-31 -56 -52.5 -121.5t-21.5 -104.5zM166 499l122 131q47 50 70 50q20 0 34 -14t14 -33q0 -14 -8.5 -24t-30.5 -23l-152 -87h-49z" />
<glyph unicode="&#xe2;" d="M-21 114q0 76 42 158t106.5 136t124.5 54q32 0 49.5 -17t24.5 -55l18 59l111 7l-71 -236q-34 -112 -34 -148q0 -15 12 -15t26.5 14t45.5 56l21 -15q-84 -126 -151 -126q-28 0 -47.5 19t-19.5 47q0 19 14 67q-43 -72 -80.5 -102t-83.5 -30q-49 0 -78.5 35t-29.5 92z M100 503l160 174h81l86 -174h-51l-88 95l-131 -95h-57zM102 112q0 -23 13 -38.5t32 -15.5q43 0 84 75q29 52 50.5 123.5t21.5 116.5q0 20 -10 32.5t-27 14.5q-42 3 -90 -82q-31 -56 -52.5 -121.5t-21.5 -104.5z" />
<glyph unicode="&#xe3;" d="M-21 114q0 76 42 158t106.5 136t124.5 54q32 0 49.5 -17t24.5 -55l18 59l111 7l-71 -236q-34 -112 -34 -148q0 -15 12 -15t26.5 14t45.5 56l21 -15q-84 -126 -151 -126q-28 0 -47.5 19t-19.5 47q0 19 14 67q-43 -72 -80.5 -102t-83.5 -30q-49 0 -78.5 35t-29.5 92z M102 112q0 -23 13 -38.5t32 -15.5q43 0 84 75q29 52 50.5 123.5t21.5 116.5q0 20 -10 32.5t-27 14.5q-42 3 -90 -82q-31 -56 -52.5 -121.5t-21.5 -104.5zM108 532q10 54 41.5 86t74.5 32q38 0 97 -26q39 -16 54 -16q17 0 28.5 9t22.5 33h41q-16 -63 -44 -91t-73 -28 q-25 0 -57 13l-59 23q-21 8 -38 8q-31 0 -48 -43h-40z" />
<glyph unicode="&#xe4;" d="M-21 114q0 76 42 158t106.5 136t124.5 54q32 0 49.5 -17t24.5 -55l18 59l111 7l-71 -236q-34 -112 -34 -148q0 -15 12 -15t26.5 14t45.5 56l21 -15q-84 -126 -151 -126q-28 0 -47.5 19t-19.5 47q0 19 14 67q-43 -72 -80.5 -102t-83.5 -30q-49 0 -78.5 35t-29.5 92z M102 112q0 -23 13 -38.5t32 -15.5q43 0 84 75q29 52 50.5 123.5t21.5 116.5q0 20 -10 32.5t-27 14.5q-42 3 -90 -82q-31 -56 -52.5 -121.5t-21.5 -104.5zM116 589q0 27 19 46.5t45 19.5q27 0 46.5 -19.5t19.5 -46.5q0 -26 -19.5 -45t-46.5 -19q-26 0 -45 19.5t-19 44.5z M326 589q0 27 19 46.5t45 19.5q27 0 46.5 -19.5t19.5 -46.5q0 -26 -19.5 -45t-46.5 -19q-26 0 -45 19.5t-19 44.5z" />
<glyph unicode="&#xe5;" d="M-21 114q0 76 42 158t106.5 136t124.5 54q32 0 49.5 -17t24.5 -55l18 59l111 7l-71 -236q-34 -112 -34 -148q0 -15 12 -15t26.5 14t45.5 56l21 -15q-84 -126 -151 -126q-28 0 -47.5 19t-19.5 47q0 19 14 67q-43 -72 -80.5 -102t-83.5 -30q-49 0 -78.5 35t-29.5 92z M102 112q0 -23 13 -38.5t32 -15.5q43 0 84 75q29 52 50.5 123.5t21.5 116.5q0 20 -10 32.5t-27 14.5q-42 3 -90 -82q-31 -56 -52.5 -121.5t-21.5 -104.5zM180 592q0 43 31.5 74t75.5 31q43 0 74.5 -31.5t31.5 -74.5q0 -44 -31.5 -75.5t-75.5 -31.5t-75 31.5t-31 76.5z M228 590q0 -24 17 -41t40 -17q25 0 42.5 17t17.5 40q0 25 -17.5 42.5t-42.5 17.5q-23 0 -40 -17.5t-17 -41.5z" />
<glyph unicode="&#xe6;" horiz-adv-x="722" d="M-5 106q0 79 42 163t107 138.5t126 54.5q33 0 51 -14.5t31 -51.5l18 58l103 5l-20 -65q32 37 57.5 51t62.5 14q47 0 73.5 -23t26.5 -64q0 -62 -59.5 -109.5t-168.5 -72.5l-39 -9q-5 -25 -5 -46q0 -40 17.5 -62.5t48.5 -22.5q73 0 124 89l28 -17q-66 -135 -194 -135 q-75 0 -110 44q-23 28 -33 87q-42 -70 -82.5 -100t-90.5 -30q-49 0 -81.5 33.5t-32.5 84.5zM121 124q-1 -30 12 -48t36 -18q51 0 93 79q29 51 50 118t21 108q0 25 -13.5 40.5t-34.5 15.5q-40 0 -79.5 -58t-61 -125.5t-23.5 -111.5zM413 214q39 5 85 34q85 56 85 140 q0 41 -33 41q-73 0 -132 -198z" />
<glyph unicode="&#xe7;" horiz-adv-x="444" d="M-24 -193l22 33q37 -17 67 -17q26 0 41 11t15 30q0 36 -47 36q-14 0 -30 -4l-13 12l60 88q-46 16 -71 53.5t-25 88.5q0 120 89.5 222t195.5 102q50 0 81 -25t31 -65q0 -31 -17 -50.5t-45 -19.5q-25 0 -41.5 14.5t-16.5 37.5q0 16 13 39q8 12 8 19q0 17 -22 17 q-45 0 -86 -71q-27 -49 -44.5 -110t-17.5 -108q0 -40 20 -64.5t53 -24.5q32 0 59 20t63 70l28 -18q-44 -63 -77 -91q-51 -45 -121 -45q-11 0 -18 1l-34 -50q15 3 26 3q39 0 64.5 -20.5t25.5 -51.5q0 -37 -35.5 -62t-88.5 -25q-51 0 -112 25z" />
<glyph unicode="&#xe8;" horiz-adv-x="444" d="M5 134q0 124 89.5 226t198.5 102q46 0 75.5 -24.5t29.5 -62.5q0 -56 -54 -105q-38 -35 -82 -54t-121 -34q-6 -30 -6 -49q0 -82 64 -82q32 0 58 19.5t60 71.5l29 -17q-45 -74 -88.5 -106t-101.5 -32q-65 0 -108 41.5t-43 105.5zM148 214q74 23 109 61q49 51 49 120 q0 34 -28 34q-74 0 -130 -215zM207 633q10 19 31.5 33t41.5 14q13 0 22.5 -10.5t20.5 -39.5l52 -131h-49l-105 87q-16 13 -19 23t5 24z" />
<glyph unicode="&#xe9;" horiz-adv-x="444" d="M5 134q0 124 89.5 226t198.5 102q46 0 75.5 -24.5t29.5 -62.5q0 -56 -54 -105q-38 -35 -82 -54t-121 -34q-6 -30 -6 -49q0 -82 64 -82q32 0 58 19.5t60 71.5l29 -17q-45 -74 -88.5 -106t-101.5 -32q-65 0 -108 41.5t-43 105.5zM148 214q74 23 109 61q49 51 49 120 q0 34 -28 34q-74 0 -130 -215zM183 499l122 131q47 50 70 50q20 0 34 -14t14 -33q0 -14 -8.5 -24t-30.5 -23l-152 -87h-49z" />
<glyph unicode="&#xea;" horiz-adv-x="444" d="M5 134q0 124 89.5 226t198.5 102q46 0 75.5 -24.5t29.5 -62.5q0 -56 -54 -105q-38 -35 -82 -54t-121 -34q-6 -30 -6 -49q0 -82 64 -82q32 0 58 19.5t60 71.5l29 -17q-45 -74 -88.5 -106t-101.5 -32q-65 0 -108 41.5t-43 105.5zM117 503l160 174h81l86 -174h-51l-88 95 l-131 -95h-57zM148 214q74 23 109 61q49 51 49 120q0 34 -28 34q-74 0 -130 -215z" />
<glyph unicode="&#xeb;" horiz-adv-x="444" d="M5 134q0 124 89.5 226t198.5 102q46 0 75.5 -24.5t29.5 -62.5q0 -56 -54 -105q-38 -35 -82 -54t-121 -34q-6 -30 -6 -49q0 -82 64 -82q32 0 58 19.5t60 71.5l29 -17q-45 -74 -88.5 -106t-101.5 -32q-65 0 -108 41.5t-43 105.5zM133 589q0 27 19 46.5t45 19.5 q27 0 46.5 -19.5t19.5 -46.5q0 -26 -19.5 -45t-46.5 -19q-25 0 -44.5 19.5t-19.5 44.5zM148 214q74 23 109 61q49 51 49 120q0 34 -28 34q-74 0 -130 -215zM343 589q0 27 19 46.5t45 19.5q27 0 46.5 -19.5t19.5 -46.5q0 -26 -19.5 -45t-46.5 -19q-25 0 -44.5 19.5 t-19.5 44.5z" />
<glyph unicode="&#xec;" horiz-adv-x="278" d="M2 54q0 22 13 69l58 215q7 30 7 40q0 29 -46 29h-13v27q116 9 202 28l-91 -334q-9 -38 -9 -52q0 -6 4.5 -10.5t10.5 -4.5q24 0 64 60l14 20l22 -14q-52 -79 -87 -107.5t-80 -28.5q-31 0 -50 17.5t-19 45.5zM102 633q10 19 31.5 33t41.5 14q13 0 22.5 -10.5t20.5 -39.5 l52 -131h-49l-105 87q-16 13 -19 23t5 24z" />
<glyph unicode="&#xed;" horiz-adv-x="278" d="M2 54q0 22 13 69l58 215q7 30 7 40q0 29 -46 29h-13v27q116 9 202 28l-91 -334q-9 -38 -9 -52q0 -6 4.5 -10.5t10.5 -4.5q24 0 64 60l14 20l22 -14q-52 -79 -87 -107.5t-80 -28.5q-31 0 -50 17.5t-19 45.5zM78 499l122 131q47 50 70 50q20 0 34 -14t14 -33 q0 -14 -8.5 -24t-30.5 -23l-152 -87h-49z" />
<glyph unicode="&#xee;" horiz-adv-x="278" d="M2 54q0 22 13 69l58 215q7 30 7 40q0 29 -46 29h-13v27q116 9 202 28l-91 -334q-9 -38 -9 -52q0 -6 4.5 -10.5t10.5 -4.5q24 0 64 60l14 20l22 -14q-52 -79 -87 -107.5t-80 -28.5q-31 0 -50 17.5t-19 45.5zM12 503l160 174h81l86 -174h-51l-88 95l-131 -95h-57z" />
<glyph unicode="&#xef;" horiz-adv-x="278" d="M2 54q0 22 13 69l58 215q7 30 7 40q0 29 -46 29h-13v27q116 9 202 28l-91 -334q-9 -38 -9 -52q0 -6 4.5 -10.5t10.5 -4.5q24 0 64 60l14 20l22 -14q-52 -79 -87 -107.5t-80 -28.5q-31 0 -50 17.5t-19 45.5zM28 589q0 27 19 46.5t45 19.5q27 0 46.5 -19.5t19.5 -46.5 q0 -26 -19.5 -45t-46.5 -19q-26 0 -45 19.5t-19 44.5zM238 589q0 27 19 46.5t45 19.5q27 0 46.5 -19.5t19.5 -46.5q0 -26 -19.5 -45t-46.5 -19q-26 0 -45 19.5t-19 44.5z" />
<glyph unicode="&#xf0;" d="M-3 134q0 81 39.5 157.5t103.5 123.5t132 47q44 0 71 -42l2 4q-6 78 -62 150l-119 -62l-33 31l122 64q-58 55 -116 65l44 27q71 -10 132 -60l107 57l34 -32l-107 -56q51 -60 72.5 -114t21.5 -122q0 -157 -85 -271t-201 -114q-68 0 -113 42t-45 105zM116 86q0 -70 49 -70 q52 0 95 94q25 54 43.5 134t18.5 131q0 27 -12.5 42.5t-33.5 15.5q-49 0 -87 -68q-27 -49 -50 -136.5t-23 -142.5z" />
<glyph unicode="&#xf1;" horiz-adv-x="556" d="M-6 0l56 204q46 162 46 178q0 14 -11 19t-43 6v27q92 3 200 27l-64 -198q78 116 123 158q43 41 100 41q73 0 73 -75q0 -39 -26 -115l-36 -109q-25 -74 -25 -87q0 -17 14 -17q13 0 26.5 15t43.5 61l22 -13q-44 -73 -79 -102t-80 -29q-32 0 -50 16t-18 44q0 47 28 131 l55 166q5 17 5 21q0 8 -7.5 14.5t-17.5 6.5q-14 0 -34 -14.5t-35 -34.5q-46 -60 -77.5 -135t-67.5 -206h-121zM165 532q10 54 41.5 86t74.5 32q38 0 97 -26q39 -16 54 -16q17 0 28.5 9t22.5 33h41q-16 -63 -44 -91t-73 -28q-25 0 -57 13l-59 23q-21 8 -38 8q-31 0 -48 -43 h-40z" />
<glyph unicode="&#xf2;" d="M-3 135q0 126 88 226.5t199 100.5q69 0 113 -42.5t44 -108.5q0 -127 -86.5 -225.5t-198.5 -98.5q-69 0 -114 42t-45 106zM116 78q0 -29 13 -45.5t36 -16.5q52 0 95 94q25 54 43.5 134t18.5 131q0 27 -12.5 42.5t-34.5 15.5q-49 0 -90 -75q-26 -47 -47.5 -135t-21.5 -145z M220 633q10 19 31.5 33t41.5 14q13 0 22.5 -10.5t20.5 -39.5l52 -131h-49l-105 87q-16 13 -19 23t5 24z" />
<glyph unicode="&#xf3;" d="M-3 135q0 126 88 226.5t199 100.5q69 0 113 -42.5t44 -108.5q0 -127 -86.5 -225.5t-198.5 -98.5q-69 0 -114 42t-45 106zM116 78q0 -29 13 -45.5t36 -16.5q52 0 95 94q25 54 43.5 134t18.5 131q0 27 -12.5 42.5t-34.5 15.5q-49 0 -90 -75q-26 -47 -47.5 -135t-21.5 -145z M196 499l122 131q47 50 70 50q20 0 34 -14t14 -33q0 -14 -8.5 -24t-30.5 -23l-152 -87h-49z" />
<glyph unicode="&#xf4;" d="M-3 135q0 126 88 226.5t199 100.5q69 0 113 -42.5t44 -108.5q0 -127 -86.5 -225.5t-198.5 -98.5q-69 0 -114 42t-45 106zM116 78q0 -29 13 -45.5t36 -16.5q52 0 95 94q25 54 43.5 134t18.5 131q0 27 -12.5 42.5t-34.5 15.5q-49 0 -90 -75q-26 -47 -47.5 -135t-21.5 -145z M130 503l160 174h81l86 -174h-51l-88 95l-131 -95h-57z" />
<glyph unicode="&#xf5;" d="M-3 135q0 126 88 226.5t199 100.5q69 0 113 -42.5t44 -108.5q0 -127 -86.5 -225.5t-198.5 -98.5q-69 0 -114 42t-45 106zM116 78q0 -29 13 -45.5t36 -16.5q52 0 95 94q25 54 43.5 134t18.5 131q0 27 -12.5 42.5t-34.5 15.5q-49 0 -90 -75q-26 -47 -47.5 -135t-21.5 -145z M138 532q10 54 41.5 86t74.5 32q38 0 97 -26q39 -16 54 -16q17 0 28.5 9t22.5 33h41q-16 -63 -44 -91t-73 -28q-25 0 -57 13l-59 23q-21 8 -38 8q-31 0 -48 -43h-40z" />
<glyph unicode="&#xf6;" d="M-3 135q0 126 88 226.5t199 100.5q69 0 113 -42.5t44 -108.5q0 -127 -86.5 -225.5t-198.5 -98.5q-69 0 -114 42t-45 106zM116 78q0 -29 13 -45.5t36 -16.5q52 0 95 94q25 54 43.5 134t18.5 131q0 27 -12.5 42.5t-34.5 15.5q-49 0 -90 -75q-26 -47 -47.5 -135t-21.5 -145z M146 589q0 27 19 46.5t45 19.5q27 0 46.5 -19.5t19.5 -46.5q0 -26 -19.5 -45t-46.5 -19q-26 0 -45 19.5t-19 44.5zM356 589q0 27 19 46.5t45 19.5q27 0 46.5 -19.5t19.5 -46.5q0 -26 -19.5 -45t-46.5 -19q-26 0 -45 19.5t-19 44.5z" />
<glyph unicode="&#xf7;" horiz-adv-x="570" d="M32 206v88h482v-88h-482zM189 83q0 35 24.5 59.5t59.5 24.5t59.5 -24.5t24.5 -59.5t-24.5 -59.5t-59.5 -24.5t-59.5 24.5t-24.5 59.5zM189 417q0 35 24.5 59.5t59.5 24.5t59.5 -24.5t24.5 -59.5t-24.5 -59.5t-59.5 -24.5t-59.5 24.5t-24.5 59.5z" />
<glyph unicode="&#xf8;" d="M-3 134q0 128 88.5 228t200.5 100q20 0 42 -6l59 104h37l-65 -116q82 -40 82 -133q0 -127 -86.5 -225.5t-197.5 -98.5q-24 0 -51 8l-64 -114h-40l72 126q-77 44 -77 127zM116 78l191 341q-14 14 -32 14q-48 0 -86 -68q-27 -49 -50 -136.5t-23 -142.5v-8zM128 34 q14 -18 37 -18q57 0 101 109q22 52 39 127t17 120q0 3 -1 5z" />
<glyph unicode="&#xf9;" horiz-adv-x="556" d="M15 65q0 33 21 108l40 133q14 45 14 73q0 15 -10.5 20.5t-45.5 7.5v27q55 2 209 28l-94 -308q-15 -48 -15 -66q0 -25 21 -25q28 0 73 55q43 54 71.5 120t70.5 211h118l-78 -268q-25 -80 -25 -105q0 -17 14 -17q24 0 72 74l21 -13q-75 -129 -161 -129q-65 0 -65 60 q0 37 24 110q-77 -108 -113.5 -139t-86.5 -31q-75 0 -75 74zM246 633q10 19 31.5 33t41.5 14q13 0 22.5 -10.5t20.5 -39.5l52 -131h-49l-105 87q-16 13 -19 23t5 24z" />
<glyph unicode="&#xfa;" horiz-adv-x="556" d="M15 65q0 33 21 108l40 133q14 45 14 73q0 15 -10.5 20.5t-45.5 7.5v27q55 2 209 28l-94 -308q-15 -48 -15 -66q0 -25 21 -25q28 0 73 55q43 54 71.5 120t70.5 211h118l-78 -268q-25 -80 -25 -105q0 -17 14 -17q24 0 72 74l21 -13q-75 -129 -161 -129q-65 0 -65 60 q0 37 24 110q-77 -108 -113.5 -139t-86.5 -31q-75 0 -75 74zM222 499l122 131q47 50 70 50q20 0 34 -14t14 -33q0 -14 -8.5 -24t-30.5 -23l-152 -87h-49z" />
<glyph unicode="&#xfb;" horiz-adv-x="556" d="M15 65q0 33 21 108l40 133q14 45 14 73q0 15 -10.5 20.5t-45.5 7.5v27q55 2 209 28l-94 -308q-15 -48 -15 -66q0 -25 21 -25q28 0 73 55q43 54 71.5 120t70.5 211h118l-78 -268q-25 -80 -25 -105q0 -17 14 -17q24 0 72 74l21 -13q-75 -129 -161 -129q-65 0 -65 60 q0 37 24 110q-77 -108 -113.5 -139t-86.5 -31q-75 0 -75 74zM156 503l160 174h81l86 -174h-51l-88 95l-131 -95h-57z" />
<glyph unicode="&#xfc;" horiz-adv-x="556" d="M15 65q0 33 21 108l40 133q14 45 14 73q0 15 -10.5 20.5t-45.5 7.5v27q55 2 209 28l-94 -308q-15 -48 -15 -66q0 -25 21 -25q28 0 73 55q43 54 71.5 120t70.5 211h118l-78 -268q-25 -80 -25 -105q0 -17 14 -17q24 0 72 74l21 -13q-75 -129 -161 -129q-65 0 -65 60 q0 37 24 110q-77 -108 -113.5 -139t-86.5 -31q-75 0 -75 74zM172 589q0 27 19 46.5t45 19.5q27 0 46.5 -19.5t19.5 -46.5q0 -26 -19.5 -45t-46.5 -19q-26 0 -45 19.5t-19 44.5zM382 589q0 27 19 46.5t45 19.5q27 0 46.5 -19.5t19.5 -46.5q0 -26 -19.5 -45t-46.5 -19 q-26 0 -45 19.5t-19 44.5z" />
<glyph unicode="&#xfd;" horiz-adv-x="444" d="M-94 -145q0 22 15 38.5t35 16.5q30 0 60 -21q18 -14 34 -14q13 0 32 15t35 37q25 35 25 69q0 50 -50 288q-23 107 -48 122q-9 5 -30 5v27q84 8 149 24q29 -75 66 -277l12 -75q53 101 70 141.5t17 63.5q0 17 -24 35q-31 23 -31 55q0 23 17.5 40t39.5 17q25 0 43.5 -19 t18.5 -45q0 -76 -75.5 -227t-173.5 -270q-41 -50 -87.5 -78t-87.5 -28q-26 0 -44 17.5t-18 42.5zM160 499l122 131q47 50 70 50q20 0 34 -14t14 -33q0 -14 -8.5 -24t-30.5 -23l-152 -87h-49z" />
<glyph unicode="&#xfe;" d="M-120 -178q37 -1 51 14t27 71l162 630q17 64 17 75q0 30 -45 30h-18v27q117 13 206 30l-95 -340l3 -3q38 57 73 81.5t78 24.5q49 0 78 -33t29 -88q0 -85 -40.5 -167.5t-105.5 -134.5t-131 -52q-25 0 -68 22q-10 -38 -11 -41q-26 -96 -26 -114t13.5 -24.5t51.5 -7.5v-27 h-249v27zM113 58q0 -15 11.5 -25.5t27.5 -10.5q50 0 97 82q27 49 48 115t24 115q2 24 -9 40t-30 17t-42.5 -16t-42.5 -47q-18 -27 -46 -121q-38 -128 -38 -149z" />
<glyph unicode="&#xff;" horiz-adv-x="444" d="M-94 -145q0 22 15 38.5t35 16.5q30 0 60 -21q18 -14 34 -14q13 0 32 15t35 37q25 35 25 69q0 50 -50 288q-23 107 -48 122q-9 5 -30 5v27q84 8 149 24q29 -75 66 -277l12 -75q53 101 70 141.5t17 63.5q0 17 -24 35q-31 23 -31 55q0 23 17.5 40t39.5 17q25 0 43.5 -19 t18.5 -45q0 -76 -75.5 -227t-173.5 -270q-41 -50 -87.5 -78t-87.5 -28q-26 0 -44 17.5t-18 42.5zM110 589q0 27 19 46.5t45 19.5q27 0 46.5 -19.5t19.5 -46.5q0 -26 -19.5 -45t-46.5 -19q-26 0 -45 19.5t-19 44.5zM320 589q0 27 19 46.5t45 19.5q27 0 46.5 -19.5t19.5 -46.5 q0 -26 -19.5 -45t-46.5 -19q-26 0 -45 19.5t-19 44.5z" />
<glyph unicode="&#x152;" horiz-adv-x="944" d="M23 224q0 108 55 212.5t146 170.5q53 38 107 54t133 16q16 0 77 -4t70 -4h335l-46 -191l-25 6q2 28 2 37q0 59 -40 87q-41 29 -125 29q-26 0 -35.5 -8t-17.5 -39l-61 -220h25q67 -1 103.5 22t60.5 81l27 -3l-72 -272l-27 5l1 19q3 26 3 41q0 31 -21 48q-11 10 -31.5 14.5 t-77.5 10.5l-64 -245q-4 -18 -4 -25q0 -34 73 -34q88 0 146.5 38t110.5 129l27 -5l-60 -194h-324l-24 -1h-22l-154 -7h-18q-120 0 -186.5 59.5t-66.5 172.5zM164 158q0 -60 33 -96.5t88 -36.5q43 0 67.5 22.5t39.5 75.5l108 391q12 41 12 69q0 62 -73 62q-90 0 -161 -106 q-46 -68 -80 -181.5t-34 -199.5z" />
<glyph unicode="&#x153;" horiz-adv-x="722" d="M6 144q0 76 45 157q44 75 110 118t139 43q40 0 66 -14t50 -48q44 35 75.5 48.5t70.5 13.5q52 0 82 -24.5t30 -65.5q0 -71 -87 -127q-34 -22 -65 -33t-108 -28q-8 -39 -8 -56q0 -78 67 -78q35 0 59.5 18.5t58.5 70.5l28 -15q-37 -68 -72 -97q-52 -40 -116 -40 q-63 0 -117 57q-63 -57 -148 -57q-71 0 -115.5 43.5t-44.5 113.5zM124 97q0 -81 53 -81q54 0 97 97q22 48 42.5 127.5t20.5 118.5q0 74 -55 74q-37 0 -67 -42.5t-61 -138.5q-30 -96 -30 -155zM421 218q58 17 89.5 38.5t53.5 58.5q22 41 22 77q0 40 -37 40q-22 0 -36 -16 q-24 -27 -39 -60t-53 -138z" />
<glyph unicode="&#x178;" horiz-adv-x="611" d="M73 0v25q52 4 69.5 16.5t31.5 55.5l60 216l-88 268q-14 40 -24.5 49t-48.5 14v25h283v-25q-42 -2 -56 -9t-14 -28q0 -24 33 -119q16 -51 44 -136l129 186q26 37 26 60q0 26 -13.5 35t-53.5 11v25h208v-25q-28 -6 -46.5 -20t-44.5 -49l-190 -267l-52 -191q-8 -29 -8 -45 q0 -28 14 -36.5t63 -10.5v-25h-322zM264 789q0 27 19 46.5t45 19.5q27 0 46.5 -19.5t19.5 -46.5q0 -26 -19.5 -45t-46.5 -19q-26 0 -45 19.5t-19 44.5zM474 789q0 27 19 46.5t45 19.5q27 0 46.5 -19.5t19.5 -46.5q0 -26 -19.5 -45t-46.5 -19q-26 0 -45 19.5t-19 44.5z" />
<glyph unicode="&#x2c6;" horiz-adv-x="333" d="M138 503l160 174h81l86 -174h-51l-88 95l-131 -95h-57z" />
<glyph unicode="&#x2dc;" horiz-adv-x="333" d="M146 532q10 54 41.5 86t74.5 32q38 0 97 -26q39 -16 54 -16q17 0 28.5 9t22.5 33h41q-16 -63 -44 -91t-73 -28q-25 0 -57 13l-59 23q-21 8 -38 8q-31 0 -48 -43h-40z" />
<glyph unicode="&#x2000;" horiz-adv-x="458" />
<glyph unicode="&#x2001;" horiz-adv-x="916" />
<glyph unicode="&#x2002;" horiz-adv-x="458" />
<glyph unicode="&#x2003;" horiz-adv-x="916" />
<glyph unicode="&#x2004;" horiz-adv-x="305" />
<glyph unicode="&#x2005;" horiz-adv-x="229" />
<glyph unicode="&#x2006;" horiz-adv-x="152" />
<glyph unicode="&#x2007;" horiz-adv-x="152" />
<glyph unicode="&#x2008;" horiz-adv-x="114" />
<glyph unicode="&#x2009;" horiz-adv-x="183" />
<glyph unicode="&#x200a;" horiz-adv-x="50" />
<glyph unicode="&#x2010;" horiz-adv-x="333" d="M2 166l24 116h245l-23 -116h-246z" />
<glyph unicode="&#x2011;" horiz-adv-x="333" d="M2 166l24 116h245l-23 -116h-246z" />
<glyph unicode="&#x2012;" horiz-adv-x="333" d="M2 166l24 116h245l-23 -116h-246z" />
<glyph unicode="&#x2013;" d="M-40 178l17 91h500l-17 -91h-500z" />
<glyph unicode="&#x2014;" horiz-adv-x="1000" d="M-40 178l17 91h1000l-17 -91h-1000z" />
<glyph unicode="&#x2018;" horiz-adv-x="333" d="M128 467q0 61 52 120.5t139 97.5l13 -24q-118 -63 -118 -116q0 -20 29 -40q41 -26 41 -63q0 -32 -20 -52.5t-51 -20.5q-38 0 -61.5 27t-23.5 71z" />
<glyph unicode="&#x2019;" horiz-adv-x="333" d="M98 393q118 63 118 116q0 20 -30 40q-40 27 -40 63q0 32 20 52.5t51 20.5q38 0 61.5 -27t23.5 -71q0 -61 -52 -121t-139 -97z" />
<glyph unicode="&#x201a;" horiz-adv-x="333" d="M-5 -158q118 63 118 117q0 19 -30 39q-23 15 -31.5 28.5t-8.5 34.5q0 32 20 52.5t51 20.5q38 0 61.5 -27t23.5 -71q0 -61 -52 -120.5t-139 -97.5z" />
<glyph unicode="&#x201c;" d="M53 467q0 61 52 120.5t139 97.5l13 -24q-118 -63 -118 -116q0 -20 29 -40q41 -26 41 -63q0 -32 -20 -52.5t-51 -20.5q-38 0 -61.5 27t-23.5 71zM309 467q0 61 52 120.5t139 97.5l13 -24q-118 -63 -118 -116q0 -20 29 -40q41 -26 41 -63q0 -32 -20 -52.5t-51 -20.5 q-38 0 -61.5 27t-23.5 71z" />
<glyph unicode="&#x201d;" d="M53 393q118 63 118 116q0 20 -30 40q-40 27 -40 63q0 32 20 52.5t51 20.5q38 0 61.5 -27t23.5 -71q0 -61 -52 -121t-139 -97zM309 393q118 63 118 116q0 20 -30 40q-40 27 -40 63q0 32 20 52.5t51 20.5q38 0 61.5 -27t23.5 -71q0 -61 -52 -121t-139 -97z" />
<glyph unicode="&#x201e;" d="M-57 -158q118 63 118 117q0 19 -30 39q-40 27 -40 63q0 32 20 52.5t51 20.5q38 0 61.5 -27t23.5 -71q0 -61 -52 -120.5t-139 -97.5zM199 -158q118 63 118 117q0 19 -30 39q-23 15 -31.5 28.5t-8.5 34.5q0 32 20 52.5t51 20.5q38 0 61.5 -27t23.5 -71q0 -61 -52 -120.5 t-139 -97.5z" />
<glyph unicode="&#x2022;" horiz-adv-x="350" d="M47 290q0 88 59 147.5t149 59.5q85 0 144 -60.5t59 -146.5q0 -88 -60 -147.5t-149 -59.5q-87 0 -144.5 59.5t-57.5 147.5z" />
<glyph unicode="&#x2026;" horiz-adv-x="1000" d="M40 61q0 32 21.5 53t53.5 21q30 0 51.5 -22t21.5 -52q0 -31 -21.5 -52.5t-53.5 -21.5q-31 0 -52 21t-21 53zM372 61q0 32 21.5 53t53.5 21q30 0 51.5 -22t21.5 -52q0 -31 -21.5 -52.5t-53.5 -21.5q-31 0 -52 21t-21 53zM704 61q0 32 21.5 53t53.5 21q30 0 51.5 -22 t21.5 -52q0 -31 -21.5 -52.5t-53.5 -21.5q-31 0 -52 21t-21 53z" />
<glyph unicode="&#x202f;" horiz-adv-x="183" />
<glyph unicode="&#x2039;" horiz-adv-x="333" d="M32 217v9l170 124q30 21 47 37q28 28 41 28q5 0 9 -3.5t4 -8.5q0 -30 -101 -134l-45 -49l40 -83q33 -69 33 -90q0 -15 -15 -15q-6 0 -15 10z" />
<glyph unicode="&#x203a;" horiz-adv-x="333" d="M10 44q0 30 101 134l45 49l-40 83q-33 67 -33 90q0 15 15 15q6 0 15 -10l168 -175v-9l-170 -124q-31 -23 -47 -38q-28 -27 -41 -27t-13 12z" />
<glyph unicode="&#x205f;" horiz-adv-x="229" />
<glyph unicode="&#x20ac;" d="M52 256l32 50h48q4 25 13 53h-64l33 50h45q43 119 138.5 199.5t193.5 80.5q33 0 92 -19q15 -6 27 -6q20 0 33 24h19l-48 -182h-19v12q0 66 -26.5 98.5t-72.5 32.5q-54 0 -110 -64.5t-99 -175.5h186l-33 -50h-167q-8 -20 -15 -53h135l-32 -50h-109q-5 -37 -5 -62 q0 -75 30 -116t84 -41q39 0 82.5 32.5t73.5 96.5l6 12h20l-48 -182h-20q-1 24 -22 24q-12 0 -30 -6q-71 -19 -100 -19q-91 0 -142 65.5t-52 183.5q0 7 1 12h-78z" />
<glyph unicode="&#x2122;" horiz-adv-x="1013" d="M190 570l21 99h350l-20 -111l-28 1q-4 43 -20.5 62t-53.5 21l-75 -267q-5 -23 -5 -33q1 -11 9 -14t38 -4l1 -22h-210l-1 22h13q37 0 45 34l79 284q-78 -4 -117 -79zM546 323q26 4 33.5 15t24.5 64l59 200q5 22 5 30q0 5 -1.5 7.5t-7 4.5t-12.5 2.5t-22 1.5l-1 21h147 l42 -247l174 247h135l1 -21q-22 -2 -30 -9t-13 -26l-66 -241q-6 -16 -5 -29q0 -11 8 -14.5t32 -4.5l1 -22h-199v22q27 1 38 7.5t17 26.5l59 221l-202 -283h-26l-50 277l-47 -171q-10 -32 -10 -48q1 -16 10.5 -21.5t38.5 -8.5l1 -22h-133z" />
<glyph unicode="&#xe000;" horiz-adv-x="460" d="M0 0v460h460v-460h-460z" />
</font>
</defs>
</svg>
