<?xml version="1.0" standalone="no"?>
<!DOCTYPE svg PUBLIC "-//W3C//DTD SVG 1.1//EN" "http://www.w3.org/Graphics/SVG/1.1/DTD/svg11.dtd" >
<svg xmlns="http://www.w3.org/2000/svg">
<metadata></metadata>
<defs>
<font id="modern_pictogramsnormal" horiz-adv-x="548" >
<font-face units-per-em="1000" ascent="750" descent="-250" />
<missing-glyph horiz-adv-x="300" />
<glyph horiz-adv-x="1000" />
<glyph horiz-adv-x="1000" />
<glyph unicode="&#xd;" horiz-adv-x="1000" />
<glyph unicode=" "  horiz-adv-x="300" />
<glyph unicode="&#x09;" horiz-adv-x="300" />
<glyph unicode="&#xa0;" horiz-adv-x="300" />
<glyph unicode="!" horiz-adv-x="793" d="M30 72q0 20 10 36l295 510q20 36 62 36q41 0 62 -36l295 -510q9 -17 9 -36q0 -31 -21 -51.5t-51 -20.5h-588q-30 0 -51.5 21t-21.5 51zM338 130q0 -25 17.5 -42t42.5 -17t42.5 17t17.5 42q0 26 -17.5 43.5t-42.5 17.5q-26 0 -43 -17.5t-17 -43.5zM344 247h107v239h-107 v-239z" />
<glyph unicode="&#x22;" horiz-adv-x="1204" />
<glyph unicode="#" horiz-adv-x="1035" d="M63 283q61 0 119.5 19t107.5 49.5t97 67.5t96.5 74t97.5 67.5t107.5 50t119.5 19.5q29 -64 84 -181.5t72 -153.5q-82 0 -159.5 -33.5t-141.5 -82t-128 -98t-146 -88t-170 -45.5q-26 56 -78 167.5t-78 167.5zM159 230q17 -37 51 -109t51 -109q105 20 226 109 q-56 21 -83.5 81t-17.5 136q-124 -90 -227 -108zM257 153q23 0 34 1q0 -1 2 -7q-8 -4 -30 -12q-5 9 -6 18zM262 178q3 10 9 16q4 -3 12.5 -10t12.5 -10q-2 -6 -4 -8zM280 113q4 4 11 11.5t10 11.5q3 -2 7 -4q-1 -3 -2 -5.5t-2.5 -5.5t-2.5 -5.5t-2 -5.5l-2 -6q-7 1 -17 9z M292 211q12 4 18 5q0 -5 2 -15.5t2 -16.5q-7 -2 -8 -3q-3 5 -7 15q-1 3 -3 7.5t-4 7.5zM320 131q4 0 8 2l4.5 -9t5 -10.5t4.5 -9.5q-5 -3 -17 -5q-4 23 -5 32zM326 183q3 11 11 31q7 -1 15 -8q-3 -4 -9.5 -13t-9.5 -14q-1 1 -3.5 2.5t-3.5 1.5zM338 141l4 8q12 -5 31 -10 q-6 -12 -9 -17q-6 4 -26 19zM341 169v1q16 8 28 16h1q2 -6 4 -18q-14 -4 -31 -7q0 6 -2 8zM539 456q56 -20 84 -81t17 -135q121 89 228 108q-20 41 -54.5 115.5t-47.5 102.5q-108 -20 -227 -110zM648 439q5 4 15 9q28 -57 35 -75q-7 -3 -16 -9q-6 13 -17 38t-17 37zM682 458 q3 2 7.5 4.5t7.5 3.5l11.5 -23t13.5 -27.5t11 -24.5q-2 -1 -7.5 -3.5t-8.5 -3.5q-15 33 -35 74zM717 474q3 1 6 2.5l5 2.5t5 2q5 -11 11 -24t13 -27t11 -23q-7 -3 -16 -6q-16 36 -35 73z" />
<glyph unicode="$" horiz-adv-x="643" d="M60 236q0 80 43.5 145t114.5 95l-65 143q0 20 22 20h293q22 0 22 -20l-65 -143q71 -30 114.5 -95t43.5 -145q0 -109 -76.5 -185.5t-184.5 -76.5q-109 0 -185.5 76.5t-76.5 185.5zM170 117l5 -3q7 4 10 4q5 0 7 -2q58 -29 110 -32v-15q0 -12 -13 -16v-7h63v7q-16 4 -16 16 v15q58 3 92.5 30.5t34.5 70.5q0 81 -119 92h-8v70q29 -2 56 -16q18 -10 23.5 -16t5.5 -14l6 -3l36 72l-5 4q-8 -6 -11 -6q-6 0 -10 3q-72 28 -101 28v14q0 11 16 15v7h-63v-7q13 -4 13 -15v-12q-58 -2 -90 -28t-32 -70t27 -63t95 -25v-77q-44 4 -68.5 19t-24.5 32l-6 3z M242 311q0 10 8 18q13 16 52 19v-68q-34 3 -47 8.5t-13 22.5zM336 136v73q38 -3 50 -8t12 -20q0 -36 -62 -45z" />
<glyph unicode="%" horiz-adv-x="830" d="M90 271l98 99l157 -156l336 366l109 -99l-428 -480z" />
<glyph unicode="&#x26;" horiz-adv-x="709" />
<glyph unicode="'" horiz-adv-x="766" d="M80 177v251l177 178h251l178 -178v-251l-178 -177h-251zM107 188l161 -161h229l162 161v229l-162 162h-229l-161 -162v-229zM141 202v201l142 142h200l142 -142v-201l-142 -141h-200z" />
<glyph unicode="(" horiz-adv-x="842" d="M28 479l5 8q56 -36 63 -40q6 -5 15 -7.5t24.5 3.5t28.5 26q13 19 13.5 37t-5 26t-11.5 12l-63 41l5 8q7 4 19.5 8.5t46 4.5t60.5 -16q0 -1 4 -4t9.5 -6.5t7.5 -5.5q46 -41 32 -106q-4 -21 0.5 -32.5t22.5 -31.5l83 -83l99 101l72 -74l-95 -97l176 -158q19 -19 18.5 -45 t-19.5 -46q-19 -19 -45.5 -18.5t-45.5 19.5l-161 170l-150 -181q-10 -11 -26.5 -11t-27.5 11l-39 40q-11 10 -11 26.5t11 27.5l172 160l-83 80q-37 36 -65 27q-42 -15 -82 11q-28 18 -42.5 46.5t-15.5 48.5v20zM365 596q52 13 97.5 13.5t71.5 -5t53 -22.5t33.5 -23t21.5 -21 l53 -53q6 -6 7.5 -33t11.5 -38q13 -13 30 -13q8 6 18 5t16 -8l11 -12q19 -19 0 -40l-54 -55q-19 -19 -40 0l-12 13q-7 6 -9.5 15.5t1.5 14.5q7 4 4 16t-15 24q-17 18 -38 21t-29 -8l-21 -21l-74 73l12 12q3 3 9 10q10 12 10 23t-5 18l-6 8q-29 28 -68 44t-64 18l-24 1z M569 25q11 -10 24.5 -10.5t23.5 9.5q10 9 10 23.5t-10 24.5t-23.5 10t-24.5 -10q-9 -10 -9 -24t9 -23z" />
<glyph unicode=")" horiz-adv-x="589" d="M48 32l94 179l1 1q3 -20 24 -33.5t45 -13.5q17 0 26 6q28 -22 54 -22q29 0 51 22q14 -6 28 -6q25 0 45 14t25 33q1 -1 4 -1h2l94 -179l-100 -8l-63 -74l-83 131l-83 -131l-67 75zM52 422q0 18 6 25q2 3 9 4.5t17 1.5t19 0.5t18.5 0t10.5 -0.5h2q-1 1 -20 8t-33.5 14.5 t-14.5 13.5q-2 12 4 25q12 26 34 26q2 0 14 -6.5t23.5 -13.5t12.5 -8l4 -1l-7.5 7t-13.5 13.5t-13.5 14.5t-11.5 14.5t-3 9.5q1 9 13 22q14 13 29 13q3 0 14.5 -11t23 -24t14.5 -15q-32 63 -24 74q15 18 40 18q5 0 12 -9.5t12 -20t10.5 -23.5t6.5 -15v2q0 71 7 75q9 6 25 6 q15 0 24 -6q7 -4 7 -75q0 1 9 20.5t17 32.5t14 13q26 0 41 -18q7 -11 -23 -70v-4q2 6 24 28t26 22q16 0 30 -13q10 -11 13 -22q1 -3 -3 -9.5t-11 -13.5l-13.5 -13.5t-13 -12.5t-7.5 -7l-1 -3l25 15q25 14 30 14q23 0 32 -26q7 -15 4 -25q0 -6 -14 -13.5t-33 -15t-20 -7.5h2 q71 0 74 -6q6 -9 6 -25q0 -15 -6 -24q-4 -8 -74 -8q1 -1 19.5 -8t32 -14t13.5 -12q2 -10 -4 -26q-10 -27 -32 -27q-4 0 -27 13t-25 15l-3 1q1 -1 7.5 -7t13.5 -12.5t14 -14.5t11 -14t3 -9q-3 -13 -16.5 -25t-26.5 -12q-3 0 -13.5 10.5t-23 24.5t-13.5 15v-3q30 -60 23 -69 q-17 -20 -41 -20q-6 0 -14 13.5t-16.5 32t-9.5 20.5q0 -70 -7 -73q-8 -7 -24 -7q-17 0 -25 7q-7 3 -7 73v2q-1 -1 -6.5 -14t-10.5 -24t-12 -20.5t-12 -9.5q-23 0 -40 20q-5 5 6.5 34t17.5 38l-4 -1q-1 -1 -13 -14.5t-22 -24t-13 -10.5q-8 0 -17.5 5.5t-16.5 14.5t-8 17 q-2 8 46 56h-1q-2 -2 -24.5 -15t-25.5 -13q-22 0 -34 27q-6 14 -4 26q0 5 14 12t32 14t20 8h-10.5h-18.5t-18.5 0.5t-17.5 2.5t-9 5q-6 7 -6 24zM135 422q0 -64 46 -109.5t111 -45.5q64 0 109 45.5t45 109.5q0 65 -45 110.5t-109 45.5q-65 0 -111 -46t-46 -110zM171 422 q0 33 16 60.5t44 43.5t61 16q49 0 83.5 -35t34.5 -85q0 -33 -15.5 -60t-43 -43t-59.5 -16q-50 0 -85.5 35t-35.5 84z" />
<glyph unicode="*" horiz-adv-x="790" d="M60 378h256l79 242l79 -242h256l-207 -150l79 -244l-207 150l-208 -150l80 244z" />
<glyph unicode="+" horiz-adv-x="649" d="M80 185v138h183v175h143v-175h183v-138h-183v-185h-143v185h-183z" />
<glyph unicode="," horiz-adv-x="545" d="M60 451q0 89 62.5 151.5t152.5 62.5t153.5 -62.5t63.5 -151.5q0 -17 -3 -34.5t-11 -36.5t-14 -32.5t-19 -34t-19 -30t-21.5 -31t-18.5 -26.5q-40 -57 -66 -116.5t-32 -90.5l-5 -31q-1 -4 -3.5 -6t-5 0t-3.5 6q-2 12 -7 34t-32 84.5t-66 119.5q-71 99 -85 130 q-21 44 -21 95zM196 447q0 -35 24 -60t57 -25q35 0 59 25t24 60t-24 58.5t-59 23.5q-33 0 -57 -24t-24 -58z" />
<glyph unicode="-" d="M55 60l215 378l217 -378h-432z" />
<glyph unicode="." horiz-adv-x="765" d="M28 548q0 15 8 23.5t16 9.5l7 1h2q2 0 5.5 0.5t7.5 0.5q99 0 127 -82l433 -31q17 -1 28 -12.5t11 -27.5v-225q0 -17 -12 -29t-29 -12h-382q-14 0 -25.5 10t-13.5 24l-71 254q-12 46 -33 52q-8 2 -33 3t-35.5 9t-10.5 32zM181 50q0 28 19.5 47.5t47.5 19.5t47.5 -19.5 t19.5 -47.5t-19.5 -47.5t-47.5 -19.5t-47.5 19.5t-19.5 47.5zM218 427l30 -91h98v83zM256 313l24 -77h66v77h-90zM378 236h100v77h-100v-77zM378 336h100v74l-100 7v-81zM506 50q0 28 19.5 47.5t46.5 19.5q28 0 47 -19.5t20 -47.5q0 -28 -19.5 -47.5t-47.5 -19.5 q-27 0 -46.5 19.5t-19.5 47.5zM510 236h91v77h-91v-77zM510 336h91v65l-91 7v-72z" />
<glyph unicode="/" d="M54 418h432l-215 -378z" />
<glyph unicode="0" horiz-adv-x="568" d="M100 138v229h181l187 187v-603l-187 187h-181z" />
<glyph unicode="1" horiz-adv-x="733" d="M100 138v229h181l187 187v-603l-187 187h-181zM522 123q55 55 55 134q0 75 -51 127l49 49q78 -80 78 -182q0 -101 -79 -179z" />
<glyph unicode="2" horiz-adv-x="888" d="M100 138v229h181l187 187v-603l-187 187h-181zM522 123q55 55 55 134q0 75 -51 127l49 49q78 -80 78 -182q0 -101 -79 -179zM634 23q93 91 93 230q0 138 -93 231l53 53q58 -58 89.5 -133.5t31.5 -155.5q0 -162 -118 -280z" />
<glyph unicode="3" horiz-adv-x="976" d="M100 0v595h776v-595h-776zM154 54h127v126h-127v-126zM154 234h127v127h-127v-127zM154 415h127v126h-127v-126zM335 54h126v126h-126v-126zM335 234h126v127h-126v-127zM335 415h126v126h-126v-126zM515 54h127v126h-127v-126zM515 234h127v127h-127v-127zM515 415h127 v126h-127v-126zM696 54h126v126h-126v-126zM696 234h126v127h-126v-127zM696 415h126v126h-126v-126z" />
<glyph unicode="4" horiz-adv-x="841" d="M100 51v128h128v-128h-128zM100 233v130h128v-130h-128zM100 418v129h128v-129h-128zM314 81v65h427v-65h-427zM314 255v65h427v-65h-427zM314 439v65h427v-65h-427z" />
<glyph unicode="5" horiz-adv-x="813" d="M100 447v148h168v-148h-168zM120 36v55h128v-55h-128zM120 176v55h128v-55h-128zM120 316v55h128v-55h-128zM322 447v148h168v-148h-168zM342 36v55h128v-55h-128zM342 176v55h128v-55h-128zM342 316v55h128v-55h-128zM545 447v148h168v-148h-168zM565 36v55h128v-55 h-128zM565 176v55h128v-55h-128zM565 316v55h128v-55h-128z" />
<glyph unicode="6" horiz-adv-x="880" d="M76 176l192 238q16 20 40.5 24.5t46.5 -8.5l183 -107l162 200q17 21 45 24t50 -15q22 -17 24.5 -45t-14.5 -50l-198 -244q-16 -19 -40.5 -23.5t-46.5 8.5l-183 106l-156 -193q-21 -25 -53 -25q-26 0 -45.5 18.5t-21.5 43t15 48.5z" />
<glyph unicode="7" horiz-adv-x="744" d="M100 0v430h144v-430h-144zM300 0v320h144v-320h-144zM500 0v595h144v-595h-144z" />
<glyph unicode="8" horiz-adv-x="734" d="M60 253q0 110 77.5 188t187.5 78v-269h266q-1 -109 -78.5 -185.5t-187.5 -76.5t-187.5 77.5t-77.5 187.5zM409 334v268q110 0 187.5 -77.5t77.5 -187.5v-3h-265zM591 250v3v-3z" />
<glyph unicode="9" horiz-adv-x="673" d="M64 75q0 17 12 30q41 84 61.5 161.5t31 126t32.5 78.5q37 51 97 64q2 20 16 33t34 13t34.5 -13.5t15.5 -32.5q60 -13 97 -64q22 -30 32.5 -78.5t31 -126t61.5 -161.5q13 -15 13 -30q0 -33 -50.5 -57t-113.5 -34.5t-121 -10.5t-121 10.5t-113 34.5t-50 57zM122 95 q52 -62 226 -60q177 0 226 60q-49 59 -226 59t-226 -59zM303 119q0 7 45 7t45 -7q0 -21 -13 -35.5t-32 -14.5t-32 14.5t-13 35.5z" />
<glyph unicode=":" horiz-adv-x="241" d="M40 73q0 32 22.5 55t55.5 23q32 0 55 -23t23 -55q0 -33 -23 -55.5t-55 -22.5q-33 0 -55.5 22.5t-22.5 55.5zM40 354q0 32 22.5 55t55.5 23q32 0 55 -23t23 -55q0 -33 -23 -55.5t-55 -22.5q-33 0 -55.5 22.5t-22.5 55.5z" />
<glyph unicode=";" horiz-adv-x="242" d="M40 -73q58 28 66 81q-24 5 -38 22.5t-14 40.5q0 29 19.5 48.5t48.5 19.5q35 0 57.5 -25.5t22.5 -64.5q0 -54 -44 -94t-118 -37v9zM40 354q0 32 22.5 55t55.5 23q32 0 55 -23t23 -55q0 -33 -23 -55.5t-55 -22.5q-33 0 -55.5 22.5t-22.5 55.5z" />
<glyph unicode="&#x3c;" d="M40 243l408 207v-412z" />
<glyph unicode="=" horiz-adv-x="770" d="M60 302q0 135 95 230t230 95q134 0 229.5 -95t95.5 -230q0 -134 -95.5 -229.5t-229.5 -95.5q-135 0 -230 95.5t-95 229.5zM329 470q0 -24 16.5 -41t40.5 -17t40.5 16.5t16.5 41.5q0 23 -16.5 39.5t-40.5 16.5t-40.5 -16.5t-16.5 -39.5zM338 84h97v279h-97v-279z" />
<glyph unicode="&#x3e;" d="M100 38v412l408 -205z" />
<glyph unicode="?" horiz-adv-x="770" d="M60 302q0 135 95 230t230 95q134 0 229.5 -95t95.5 -230q0 -134 -95.5 -229.5t-229.5 -95.5q-135 0 -230 95.5t-95 229.5zM256 386h104q0 46 23 46q22 0 22 -46q0 -53 -56 -53q-9 0 -16 1v-98h104v41q77 20 77 109q0 57 -36.5 93.5t-93.5 36.5q-63 0 -95.5 -33.5 t-32.5 -96.5zM324 130q0 -25 18 -43.5t43 -18.5t43 18.5t18 43.5t-18 43.5t-43 18.5t-43 -18.5t-18 -43.5z" />
<glyph unicode="@" horiz-adv-x="739" d="M63 303q0 145 93 235q46 45 106 67q62 25 135 25q98 0 175 -45t107 -122q20 -51 20 -111q0 -82 -37 -145q-47 -74 -130 -74q-61 0 -80 46q-34 -44 -91 -44q-63 0 -97 44.5t-34 114.5q0 73 41.5 121t110.5 48q42 0 72 -30l6 21h68l-14 -207q-2 -41 23 -41q28 0 48 27.5 t27 59t7 59.5q0 94 -61.5 148t-159.5 54q-112 0 -182 -72t-70 -185q0 -106 68 -177q65 -65 164 -65q109 0 193 37l12 6v-77l-5 -2q-81 -40 -201 -40q-132 0 -215 77q-99 90 -99 247zM314 294q0 -18 3 -34.5t17 -33.5t38 -17q37 0 55 32q14 25 14 68q0 82 -61 82 q-33 0 -49.5 -28t-16.5 -69z" />
<glyph unicode="A" horiz-adv-x="929" d="M100 0v507h114v48h72v-48h543v-507h-729zM137 318h200q49 62 128 62q78 0 127 -62h200v152h-655v-152zM329 217q0 -56 40 -96t96 -40t95.5 40t39.5 96t-39.5 96t-95.5 40t-96 -40t-40 -96zM386 217q0 32 23.5 55t55.5 23t55 -23t23 -55t-23 -55t-55 -23t-55.5 23 t-23.5 55z" />
<glyph unicode="B" horiz-adv-x="708" d="M100 82v465q0 25 17.5 42.5t42.5 17.5h372v-461h-326q-32 0 -51 -16.5t-19 -45.5v-2q0 -30 19.5 -48t50.5 -18h374v501h28v-537h-402q-45 0 -75.5 28.5t-30.5 73.5zM193 83q0 13 17 13h322v-28h-322q-17 0 -17 15z" />
<glyph unicode="C" horiz-adv-x="767" d="M60 303q0 133 95 228t228 95q134 0 229 -94.5t95 -228.5t-95 -228.5t-229 -94.5t-228.5 94.5t-94.5 228.5zM148 123q34 -46 90 -78l73 138q32 -20 73 -20q59 0 99.5 40.5t40.5 99.5q0 57 -39 98l132 84q-11 15 -24 27q-29 29 -65 50l-73 -138q-32 19 -71 19 q-58 0 -99 -40.5t-41 -99.5q0 -56 37 -96zM324 303q0 25 17.5 43t42.5 18q26 0 43.5 -18t17.5 -43q0 -24 -18 -42t-43 -18q-24 0 -42 18t-18 42zM354 303q0 -13 8 -21.5t22 -8.5t22.5 8.5t8.5 21.5t-8.5 22t-22.5 9q-13 0 -21.5 -8.5t-8.5 -22.5z" />
<glyph unicode="D" horiz-adv-x="699" d="M100 0v608h335l164 -168v-440h-499zM172 72h355v344h-129v120h-226v-464zM214 276h94l-2 83h85v-84h94l-135 -157z" />
<glyph unicode="E" horiz-adv-x="900" d="M60 252q6 11 18 29.5t52 65.5t82.5 82.5t107.5 65t130 29.5t129.5 -28t109.5 -68t80.5 -80t52.5 -68l18 -28q-6 -11 -18 -29.5t-52 -65t-82.5 -82t-107.5 -65t-130 -29.5t-129.5 28t-109.5 67.5t-80.5 79.5t-52.5 68zM259 252q0 -79 56 -135t135 -56t135 56t56 135 t-56 135t-135 56t-135 -56t-56 -135zM365 252q0 35 25 60.5t60 25.5q34 0 60 -26t26 -60q0 -35 -25.5 -60t-60.5 -25t-60 25t-25 60z" />
<glyph unicode="F" horiz-adv-x="464" d="M80 278v127h73v93q0 118 127 118h104v-117h-56q-29 0 -38.5 -14t-9.5 -39v-41h104l-10 -127h-94v-278h-127v278h-73z" />
<glyph unicode="G" horiz-adv-x="808" d="M100 63v481q0 63 63 63h481q34 0 49 -15t15 -48v-481q0 -63 -64 -63h-165v198h78v95h-78v63q0 38 36 38h42v89h-89q-96 0 -96 -89v-101h-64v-95h64v-198h-209q-63 0 -63 63z" />
<glyph unicode="H" horiz-adv-x="926" d="M80 353v135q0 42 69.5 75t127.5 40q20 3 52.5 4t66.5 0.5t64 -1t52 -0.5l22 -1q28 0 46.5 -18.5t18.5 -45.5v-54h115v-135h-115v-52q0 -28 -18.5 -46.5t-46.5 -18.5l-24 -1q-23 0 -54 -1t-65.5 -1t-66.5 1t-48 3q-19 3 -49 12t-64.5 23.5t-58.5 36.5t-24 45zM201 388 q0 -24 17 -41t41 -17t41 17t17 41t-17 41t-41 17t-41 -17t-17 -41zM380 192h140l55 -192h-118q-25 0 -33 31zM750 352v136l96 70v-277z" />
<glyph unicode="I" horiz-adv-x="791" d="M70 587q0 15 10.5 25.5t25.5 10.5h579q14 0 25 -10.5t11 -25.5t-11 -25.5t-25 -10.5h-5l-108 -550h-350l-107 550h-9q-15 0 -25.5 10.5t-10.5 25.5zM170 551l6 -32l32 32h-38zM184 477l14 -68l21 -21l62 62l-62 61zM213 331l20 -103l48 48l-62 61zM244 188l62 -61l62 61 l-62 62zM244 363l62 -62l62 62l-62 61zM244 537l62 -62l62 62l-15 14h-94zM253 129l14 -74h60zM332 101l46 -46h30l47 46l-62 62zM332 276l61 -62l62 62l-62 61zM332 450l61 -62l62 62l-62 61zM419 188l61 -61l62 61l-62 62zM419 363l61 -62l62 62l-62 61zM419 537l61 -62 l62 62l-15 14h-94zM459 55h68l17 84zM506 276l54 -55l20 103l-13 13zM506 450l61 -62l32 31l10 51l-42 41zM578 551l39 -38l8 38h-47z" />
<glyph unicode="J" horiz-adv-x="750" d="M72 137l194 336l158 99l76 -43q2 5 7 29q0 2 2 11t3 13t4 13.5t5.5 15.5t6.5 15.5t9.5 16.5t12 15.5t15 16.5t18.5 16q33 28 82 3q23 -10 40 -32q14 -22 16 -46q-2 -41 -52 -65q-35 -16 -87 -22q-42 -5 -56 -15l74 -43l-8 -186l-194 -336q-7 -12 -20 -16t-24 3l-269 156 q-12 7 -16 20t3 25zM391 455q-14 -25 -6.5 -53.5t32.5 -43.5q25 -14 54 -6.5t43 32.5q12 21 9.5 43t-17.5 39l-34 21q-23 8 -45.5 -1t-35.5 -31zM519 530q17 11 61 15q51 6 82 21q41 18 43 50q0 18 -13.5 36t-33.5 28q-39 19 -66 -2q-56 -43 -69 -122q0 -4 -2 -12 q0 -2 -0.5 -6.5t-1.5 -7.5z" />
<glyph unicode="K" horiz-adv-x="699" d="M100 0v608h335l164 -168v-440h-499zM172 72h355v344h-129v120h-226v-464zM221 147v28h254v-28h-254zM221 227v28h254v-28h-254zM221 307v28h254v-28h-254z" />
<glyph unicode="L" horiz-adv-x="799" d="M91 296q-14 31 -9.5 57.5t20.5 40.5q-12 28 -5 52.5t27 38.5q-31 96 96 106q97 7 218 -31q42 -12 51 -21v46q0 10 7 17t16 7h163q10 0 17 -7t7 -17v-385q0 -9 -7 -16t-17 -7h-163q-9 0 -16 7t-7 16v26q-35 -23 -65 -69.5t-41 -75.5t-13 -39q-20 -82 -86 -82q-37 0 -67 36 t-30 101q0 45 23 86h-15q-52 0 -85 27.5t-19 85.5zM183 306q-31 0 -34 -24q-4 -24 21 -36q11 -6 25 -6h60q15 0 22.5 -7.5t7.5 -18.5q0 -10 -20.5 -52t-20.5 -64q0 -35 13 -58t27 -23q25 0 29 31q9 62 65 142t111 104v181q-111 55 -246 58q-48 2 -66 -24q-15 -21 14 -36 q9 -4 20 -6q12 -2 11 -9q0 -6 -9 -6q-49 0 -57 -26q-7 -20 19 -30q7 -3 15 -4q6 0 8.5 -3t0 -6t-8.5 -3q-27 0 -38.5 -15t-2.5 -30.5t34 -16.5q5 0 7 -3t0 -6t-7 -3z" />
<glyph unicode="M" horiz-adv-x="600" d="M100 60v541q0 25 17.5 42.5t42.5 17.5h280q25 0 42.5 -17.5t17.5 -42.5v-541q0 -25 -17.5 -42.5t-42.5 -17.5h-280q-25 0 -42.5 17.5t-17.5 42.5zM162 397h276v194h-276v-194zM173 205q0 -52 37.5 -89.5t89.5 -37.5t89.5 37t37.5 90t-37.5 90t-89.5 37t-89.5 -37.5 t-37.5 -89.5zM252 205q0 20 14 34t34 14t34 -14t14 -34t-14 -34t-34 -14t-34 14t-14 34z" />
<glyph unicode="N" horiz-adv-x="549" d="M100 63v549q0 8 6.5 14.5t14.5 6.5h306q9 0 15.5 -6.5t6.5 -14.5v-549q0 -26 -19 -45t-45 -19h-221q-26 0 -45 19t-19 45zM149 109q0 -19 12 -31.5t31 -12.5h31v44h-74zM149 128h74v42h-74v-42zM149 189h74v42h-74v-42zM149 250h74v42h-74v-42zM149 336h251v195h-251 v-195zM236 577q0 -14 13 -14h51q12 0 12 14q0 13 -12 13h-51q-13 0 -13 -13zM239 65h71v44h-71v-44zM239 128h71v42h-71v-42zM239 189h71v42h-71v-42zM239 250h71v42h-71v-42zM327 65h29q20 0 32 12.5t12 31.5h-73v-44zM327 128h73v42h-73v-42zM327 189h73v42h-73v-42z M327 250h73v42h-73v-42z" />
<glyph unicode="O" horiz-adv-x="580" d="M100 60v536q0 29 18.5 47t48.5 18h246q30 0 48.5 -18t18.5 -47v-536q0 -25 -17.5 -42.5t-42.5 -17.5h-260q-25 0 -42.5 17.5t-17.5 42.5zM136 132h308v397h-308v-397zM228 605q0 -13 12 -13h100q12 0 12 13t-12 13h-100q-12 0 -12 -13zM252 64q0 -15 11 -26.5t27 -11.5 t27 11.5t11 26.5q0 16 -11 27t-27 11t-27 -11t-11 -27z" />
<glyph unicode="P" horiz-adv-x="878" d="M100 63v401q0 33 16 49t47 14h551q34 0 49 -15t15 -48v-401q0 -63 -64 -63h-551q-63 0 -63 63zM308 111l302 152l-302 152v-304z" />
<glyph unicode="Q" horiz-adv-x="769" d="M100 80v540q0 33 23 56.5t56 23.5h411q33 0 56 -23.5t23 -56.5v-540q0 -33 -23 -56.5t-56 -23.5h-411q-33 0 -56 23.5t-23 56.5zM196 124h377v480h-377v-480zM347 64q0 -15 11 -26.5t27 -11.5t27 11.5t11 26.5q0 16 -10.5 27t-27.5 11t-27.5 -11t-10.5 -27z" />
<glyph unicode="R" horiz-adv-x="629" d="M60 241q0 103 75 180q76 74 178 74l-32 138l264 -182l-254 -193l23 147q-68 -1 -116 -49t-48 -115q0 -68 48.5 -116.5t116.5 -48.5t116 48.5t48 116.5h90q0 -106 -74 -180q-73 -75 -180 -75t-180 75q-75 75 -75 180z" />
<glyph unicode="S" horiz-adv-x="817" d="M90 169q0 14 9.5 24t23.5 12v331q-14 1 -23.5 11t-9.5 24q0 15 10.5 25.5t25.5 10.5h261l15 39h9l15 -39h265q15 0 25.5 -10.5t10.5 -25.5t-10.5 -25.5t-25.5 -10.5v-330q15 0 25.5 -10.5t10.5 -25.5t-10.5 -25.5t-25.5 -10.5h-262v-46l133 -81l-12 -21l-121 46v-92 q0 -11 -7.5 -18.5t-17.5 -7.5q-11 0 -17.5 7.5t-6.5 18.5v92l-120 -46l-12 21l132 81v46h-254q-15 0 -25.5 10.5t-10.5 25.5zM169 208h476v324h-476v-324z" />
<glyph unicode="T" horiz-adv-x="526" d="M92 229v279q0 13 5 24.5t13.5 20t20.5 13.5t25 5q26 0 44.5 -18.5t18.5 -44.5v-93h163q27 0 45.5 -18.5t18.5 -45.5q0 -26 -18.5 -44.5t-45.5 -18.5h-163v-59q0 -28 13.5 -50.5t37.5 -36t54 -15.5h58q27 0 45.5 -18.5t18.5 -44.5q0 -27 -18.5 -45.5t-45.5 -18.5h-63 q-94 5 -160.5 70t-66.5 159z" />
<glyph unicode="U" horiz-adv-x="808" d="M100 63v481q0 63 63 63h481q34 0 49 -15t15 -48v-481q0 -63 -64 -63h-481q-63 0 -63 63zM273 272q0 -77 49 -120q48 -48 118 -51h68q20 0 33.5 14t13.5 34q0 19 -13.5 33t-33.5 14h-65q-34 2 -55.5 23t-21.5 53v42h142q20 0 33.5 14t13.5 33q0 20 -13.5 34t-33.5 14h-142 v59q0 19 -14 33.5t-32 14.5q-20 0 -33.5 -14t-13.5 -34v-196z" />
<glyph unicode="V" horiz-adv-x="875" d="M79 0v608h433l-60 -62h-301v-474h355v209l72 81v-362h-499zM245 180l33 126l297 305q0 3 60 18l1 1l53 -55l-18 -60l-297 -307l-127 -29zM287 256l37 -36l31 7l18 18l4 28l-36 37l-28 -5l-18 -17zM606 644l45 45q21 21 50 21t49 -20q21 -20 20 -48.5t-22 -50.5l-46 -45 l14 60l-51 51z" />
<glyph unicode="W" horiz-adv-x="892" d="M100 239v316q0 22 15.5 37.5t37.5 15.5h390q22 0 37 -15.5t15 -37.5v-58h-81v35h-333v-269h46v-76h-74q-22 0 -37.5 15.5t-15.5 36.5zM297 52v323q0 21 15.5 36.5t36.5 15.5h391q22 0 37 -15.5t15 -36.5v-323q0 -21 -15 -36.5t-37 -15.5h-391q-21 0 -36.5 15.5 t-15.5 36.5zM377 75h335v277h-335v-277z" />
<glyph unicode="X" horiz-adv-x="651" d="M81 108l146 146l-145 143l97 99l145 -145l145 145l98 -99l-145 -143l146 -147l-99 -97l-145 146l-145 -146z" />
<glyph unicode="Y" horiz-adv-x="1061" d="M60 304q0 27 17.5 50.5t34.5 33.5l18 10h266q148 0 254 138q0 11 8 19t20 8t20.5 -8t8.5 -19v-462q0 -11 -8.5 -19t-20.5 -8t-20 8t-8 19q-107 132 -254 132h-51l112 -189l-68 -49q-23 -12 -45 14l-139 224h-75q-3 2 -7.5 4.5t-16.5 12.5t-21.5 20.5t-17 27t-7.5 33.5z M147 276q0 -5 4.5 -9.5t9.5 -4.5h80q5 0 9 4.5t4 9.5q0 13 -13 13h-80q-5 0 -9.5 -4t-4.5 -9zM147 334q0 -5 4.5 -9.5t9.5 -4.5h80q5 0 9 4.5t4 9.5q0 13 -13 13h-80q-5 0 -9.5 -4t-4.5 -9zM409 251q135 0 232 -97v301q-95 -101 -232 -101v-103zM780 150l27 27l110 -110 l-27 -26zM780 454l110 109l27 -26l-110 -110zM827 287v38h184v-38h-184z" />
<glyph unicode="Z" horiz-adv-x="749" d="M100 0v65h411v-65h-411zM100 144v65h557v-65h-557zM100 288v65h411v-65h-411zM100 432v65h557v-65h-557z" />
<glyph unicode="[" horiz-adv-x="574" d="M40 228h170l-2 269h156v-271h170l-246 -245z" />
<glyph unicode="\" horiz-adv-x="879" d="M100 1v128h128v-128h-128zM100 183v130h128v-130h-128zM100 368v129h128v-129h-128zM284 1v128h129v-128h-129zM284 183v130h129v-130h-129zM284 368v129h129v-129h-129zM467 1v128h129v-128h-129zM467 184v130h129v-130h-129zM467 368v129h129v-129h-129zM651 1v130h128 v-130h-128zM651 184v130h128v-130h-128zM651 368v129h128v-129h-128z" />
<glyph unicode="]" horiz-adv-x="574" d="M40 271l246 245l248 -247h-170l2 -269h-156v271h-170z" />
<glyph unicode="^" horiz-adv-x="712" d="M100 68q0 30 21.5 51.5t51.5 21.5t52 -21.5t22 -51.5t-22 -51.5t-52 -21.5t-51.5 21t-21.5 52zM104 258v95q145 0 248.5 -96.5t103.5 -256.5h-100q0 105 -74 181.5t-178 76.5zM104 449v103q110 0 212 -41t178.5 -112t122.5 -175.5t46 -223.5h-109q0 88 -36.5 171 t-97.5 144t-144 97.5t-172 36.5z" />
<glyph unicode="_" horiz-adv-x="1250" d="M100 -1v504h1050v-504h-1050zM262 80h151v55h-151v-55zM262 220h151v54h-151v-54zM262 360h151v53h-151v-53zM838 80h151v55h-151v-55zM838 220h151v54h-151v-54zM838 359h151v54h-151v-54z" />
<glyph unicode="`" horiz-adv-x="763" d="M40 639q2 94 67 158l31 -32q-53 -51 -53 -129q0 -76 53 -129l-30 -31q-66 66 -68 163zM117 28l222 571l34 23h13l33 -23l222 -571q6 -18 -4 -33.5t-30 -15.5q-25 0 -33 23l-11 28h-368l-11 -28q-8 -23 -33 -23q-20 0 -30 15.5t-4 33.5zM169 637q0 57 46 102l29 -30 q-32 -30 -32 -75q0 -42 29 -71l-28 -28q-44 44 -44 102zM209 66h136l-98 97zM261 200l33 -32l62 61l-60 60zM313 322l68 -67l68 67h-136zM319 142l62 -62l62 62l-62 62zM323 358h112l-56 145zM333 669q0 19 13.5 32.5t32.5 13.5t32.5 -13.5t13.5 -32.5t-13.5 -32.5 t-32.5 -13.5t-32.5 13.5t-13.5 32.5zM406 229l62 -61l30 29l-35 89zM417 66h132l-37 95zM519 561q32 30 32 76q0 40 -29 71l28 28q44 -49 44 -103q0 -57 -45 -101zM625 505q54 52 52 129q2 76 -52 130l30 29q66 -65 68 -162q-2 -94 -67 -157z" />
<glyph unicode="a" horiz-adv-x="967" d="M100 127v369h106v98h661v-505q0 -35 -26 -62t-58 -27h-574q-109 0 -109 127zM154 127q0 -68 25 -68q27 0 27 68v315h-52v-315zM245 54h538q13 0 21.5 11.5t8.5 23.5v451h-553v-413q0 -43 -15 -73zM346 122v18h127v-18h-127zM346 179v18h127v-18h-127zM346 234v18h127v-18 h-127zM346 291v18h127v-18h-127zM346 350v18h127v-18h-127zM365 426v35h333v-35h-333zM523 165v203h213v-203h-213z" />
<glyph unicode="b" horiz-adv-x="821" d="M100 218v308q0 35 17 52t51 16h486q67 0 67 -68v-310q0 -65 -67 -65h-219l-242 -195l50 195h-75q-68 0 -68 67zM228 277h365v66h-365v-66zM228 402h365v66h-365v-66z" />
<glyph unicode="c" horiz-adv-x="845" d="M30 499v88q0 22 15.5 37.5t37.5 15.5h178v4q0 16 12 27.5t28 11.5h9q16 0 27.5 -11.5t11.5 -27.5v-4h148v4q0 16 11 27.5t27 11.5h10q16 0 27.5 -11.5t11.5 -27.5v-4h178q22 0 37.5 -15.5t15.5 -37.5v-88q0 -22 -15.5 -37.5t-37.5 -15.5h-80v-391q0 -55 -56 -55h-407 q-56 0 -56 55v391h-80q-22 0 -37.5 15.5t-15.5 37.5zM290 98q0 -14 10.5 -24.5t26.5 -10.5q14 0 24.5 10.5t10.5 24.5q0 15 -10.5 25.5t-24.5 10.5q-16 0 -26.5 -10.5t-10.5 -25.5zM290 190q0 -15 10.5 -25.5t26.5 -10.5q14 0 24.5 10.5t10.5 25.5q0 14 -10.5 24.5 t-24.5 10.5q-16 0 -26.5 -10.5t-10.5 -24.5zM290 282q0 -16 10.5 -26t26.5 -10q15 0 25 10t10 26q0 14 -10.5 24.5t-24.5 10.5q-16 0 -26.5 -10.5t-10.5 -24.5zM290 373q0 -14 10.5 -24.5t26.5 -10.5q14 0 24.5 10.5t10.5 24.5q0 15 -10.5 25.5t-24.5 10.5 q-16 0 -26.5 -10.5t-10.5 -25.5zM387 98q0 -14 10.5 -24.5t25.5 -10.5q14 0 24.5 10.5t10.5 24.5q0 15 -10.5 25.5t-24.5 10.5q-15 0 -25.5 -10.5t-10.5 -25.5zM387 190q0 -15 10.5 -25.5t25.5 -10.5q14 0 24.5 10.5t10.5 25.5q0 14 -10.5 24.5t-24.5 10.5 q-15 0 -25.5 -10.5t-10.5 -24.5zM387 282q0 -16 10.5 -26t25.5 -10t25 10t10 26q0 14 -10.5 24.5t-24.5 10.5q-15 0 -25.5 -10.5t-10.5 -24.5zM387 373q0 -14 10.5 -24.5t25.5 -10.5q14 0 24.5 10.5t10.5 24.5q0 15 -10.5 25.5t-24.5 10.5q-15 0 -25.5 -10.5t-10.5 -25.5z M483 98q0 -14 10.5 -24.5t25.5 -10.5t25.5 10.5t10.5 24.5q0 15 -10 25.5t-26 10.5q-15 0 -25.5 -10.5t-10.5 -25.5zM483 190q0 -15 10.5 -25.5t25.5 -10.5q16 0 26 10.5t10 25.5q0 14 -10.5 24.5t-25.5 10.5t-25.5 -10.5t-10.5 -24.5zM483 282q0 -16 10.5 -26t25.5 -10 q16 0 26 10t10 26q0 14 -10.5 24.5t-25.5 10.5t-25.5 -10.5t-10.5 -24.5zM483 373q0 -14 10.5 -24.5t25.5 -10.5t25.5 10t10.5 25t-10 25.5t-26 10.5q-15 0 -25.5 -10.5t-10.5 -25.5z" />
<glyph unicode="d" horiz-adv-x="953" d="M100 124v293q0 26 17.5 44t44.5 18h77v94h27v103h422v-103h27v-94h78q24 0 42 -18.5t18 -43.5v-293q0 -25 -18 -43.5t-42 -18.5h-61l27 -122h-553l22 122h-66q-27 0 -44.5 18t-17.5 44zM161 370q0 -18 13 -30.5t30 -12.5q18 0 31 12.5t13 30.5q0 17 -13 30t-31 13 q-17 0 -30 -13t-13 -30zM254 -23h454l-38 193h-387zM294 405h366v233h-366v-233zM345 67v28h111v-28h-111zM503 67v28h111v-28h-111z" />
<glyph unicode="e" horiz-adv-x="678" d="M60 -24l90 355l190 189q64 18 132 0l-165 -164l-120 -62l-26 -142q43 -44 78 -78l141 27l62 120l167 167q9 -37 8.5 -67t-5.5 -49l-5 -19l-189 -190l-356 -90zM303 218l48 94l181 181q17 -10 27 -21q11 -10 21 -27l-181 -181l-94 -48z" />
<glyph unicode="f" horiz-adv-x="779" d="M32 0q-3 9 0 57q18 9 76.5 27.5t112 33.5t56.5 17l1 36l15 4q6 56 6 65q-23 45 -28 71q-19 0 -21 19q-1 8 -1.5 24t-3.5 24q-2 10 4 19t13 7q-20 103 0 131q49 70 158 89q25 3 33 -1l3 -1.5t0 -2.5t-3 -5t-7 -8q6 -4 15 -10.5t27.5 -28t26.5 -44.5q7 -26 6 -64.5 t-6 -54.5q0 -1 3.5 0t7 -3.5t2.5 -12.5q0 -4 -1 -11t-1 -12.5t-1 -13t-2 -12t-2.5 -11t-3 -9.5t-4 -6.5t-5 -3t-6.5 1.5q-1 -64 -20 -77q-6 -50 3 -52h13q5 -41 15 -52q214 -55 235 -79v-51h-716z" />
<glyph unicode="g" horiz-adv-x="1150" d="M30 2q0 6 2 14.5t13.5 28t30.5 28.5t70 26t97 31t49 15l1 37l16 4q5 60 5 68q-23 48 -29 74q-20 0 -23 22q-1 6 -1.5 23t-2.5 26q-2 11 4 20.5t14 7.5q-21 107 0 138q52 73 165 93q26 2 35 -1q7 -2 -1 -10q-2 -3 -7 -8q6 -4 15.5 -11t29 -30t27.5 -47q8 -27 7 -67t-7 -57 q1 -1 4.5 0t7.5 -3.5t3 -13.5q-6 -68 -14 -78q-5 -7 -13 -4q-1 -65 -22 -79q-5 -53 4 -55h13q6 -43 16 -54q49 -20 105 -33q35 -9 85 -7q1 4 9.5 20t11 32.5t2.5 45.5q0 12 -5 25.5t-10 21.5l-5 8q0 -1 -1 -2.5t-4 -4t-9 0.5q-20 11 -25 34q-2 23 -15 39q-4 7 0.5 16 t17.5 10q-1 2 -1.5 4.5t-1.5 9t2 8.5q-2 0 -4.5 0.5t-7.5 4t1 12.5q-5 2 -9.5 5t-10.5 15t13 27q-22 23 4 27q-2 2 -4 5t-6 11.5t-4 15.5t6.5 15.5t20.5 13.5q-2 5 -4.5 12.5t-6 27t-1.5 35t14 29t36 14.5q20 3 37.5 -2t42 -18.5t34.5 -17.5q6 5 16 12.5t33 18.5t37 8 q41 -8 52.5 -42.5t-13.5 -69.5q25 7 32.5 -21t-13.5 -43q16 -18 0 -38q3 -4 6 -10t2 -19t-14 -19q-5 -20 -12 -29q13 2 17 -8q8 -20 -3 -38q-3 -4 -16 -34q0 -1 -1.5 -6.5t-3 -8t-4.5 -6t-8 -3t-11 4.5q-23 -28 -29 -68t9 -80l5 -9q162 -33 193 -46v-46h-560v2h-530z" />
<glyph unicode="h" horiz-adv-x="997" d="M100 1v400h546v-400h-546zM693 150v102l204 127v-356z" />
<glyph unicode="i" horiz-adv-x="805" d="M56 601q-22 0 -31 18t0 36t31 18h71q25 0 36 -10t21 -33l25 -50h452q21 0 32.5 -11t11.5 -29v-187q0 -16 -10.5 -27t-26.5 -13l-404 -45q-16 -2 -23 -13.5t0 -22.5t25 -11h383q21 0 29.5 -16.5t0 -32.5t-29.5 -16h-391q-42 0 -67.5 26t-21.5 61.5t37 60.5l35 26l-124 271 h-61zM105 46q0 26 18 44.5t44 18.5q27 0 45 -18.5t18 -44.5t-18 -44t-45 -18q-25 0 -43.5 18t-18.5 44zM235 524l31 -68h101l-22 68h-110zM281 420l41 -89l80 8l-26 81h-95zM381 524l21 -68h99l-16 68h-104zM412 420l25 -77l90 9l-20 68h-95zM521 524l15 -68h114v68h-129z M528 46q0 26 18.5 44.5t44.5 18.5t44 -18.5t18 -44.5t-18 -44t-44 -18t-44.5 18t-18.5 44zM544 420l16 -63l90 9v54h-106z" />
<glyph unicode="j" horiz-adv-x="768" d="M80 367q0 65 40 105t106 40q24 0 44.5 -5.5t31.5 -10t30.5 -22.5t23.5 -23t28 -32q47 54 67 68q37 25 91 25q66 0 106 -40t40 -105q0 -85 -76 -160l-228 -227l-228 227q-76 75 -76 160z" />
<glyph unicode="k" horiz-adv-x="620" d="M30 0v38q37 24 167 54q3 11 10 25t11 31.5t4 49.5q0 12 -5 25.5t-10 21.5l-5 8q0 -1 -1 -2.5t-4 -4t-9 0.5q-20 11 -25 34q-2 23 -15 39q-4 7 0.5 16t17.5 10q-1 2 -1.5 4.5t-1.5 9t2 8.5q-2 0 -4.5 0.5t-7.5 4t1 12.5q-5 2 -9.5 5t-10.5 15t13 27q-22 23 4 27q-2 2 -4 5 t-6 11.5t-4 15.5t6.5 15.5t20.5 13.5q-2 5 -4.5 12.5t-6 27t-1.5 35t14 29t36 14.5q20 3 37.5 -2t42 -18.5t34.5 -17.5q6 5 16 12.5t33 18.5t37 8q41 -8 52.5 -42.5t-13.5 -69.5q25 7 32.5 -21t-13.5 -43q16 -18 0 -38q3 -4 6 -10t2 -19t-14 -19q-5 -20 -12 -29q13 2 17 -8 q8 -20 -3 -38q-3 -4 -16 -34q0 -1 -1.5 -6.5t-3 -8t-4.5 -6t-8 -3t-11 4.5q-23 -28 -29 -68t9 -80l5 -9q162 -33 193 -46v-46h-560z" />
<glyph unicode="l" horiz-adv-x="799" d="M100 11v385q0 9 7 16t16 7h164q9 0 16 -7t7 -16v-26q35 23 64.5 69.5t41 75.5t13.5 39q19 82 85 82q38 0 68 -36t30 -101q0 -42 -23 -86h14q53 0 86 -27.5t18 -85.5q15 -31 10.5 -57.5t-20.5 -40.5q12 -28 5 -52.5t-27 -38.5q31 -96 -96 -106q-97 -7 -218 31 q-42 12 -51 21v-46q0 -10 -7 -17t-16 -7h-164q-9 0 -16 7t-7 17zM310 121q107 -53 246 -59q47 -1 66 24q16 22 -14 37q-9 4 -20 6q-12 2 -11 9q0 6 8 6q48 0 57 25q8 20 -16 30l-17 4q-6 1 -8.5 4t0 6t8.5 3q27 0 38.5 15t2.5 30.5t-34 16.5q-5 0 -7 3t0 6t7 3q31 0 34 24 t-22 37q-11 5 -25 5h-59q-15 0 -23 7.5t-8 18.5q0 10 21 52t21 64q0 35 -13.5 58t-27.5 23q-24 0 -28 -31q-9 -62 -65 -142t-111 -104v-181z" />
<glyph unicode="m" horiz-adv-x="909" d="M100 37v407l207 -195zM139 0l207 211l108 -102l110 104l206 -213h-631zM150 497h608l-304 -289zM603 250l206 194v-407z" />
<glyph unicode="n" horiz-adv-x="550" d="M60 198q0 91 64 153v133q0 62 44.5 106.5t106.5 44.5t106 -44.5t44 -106.5v-133q65 -63 65 -153q0 -89 -63 -152t-152 -63t-152 63t-63 152zM111 198l10 -24h68v48h-68zM148 106l10 -24l24 -9l49 49l-34 34zM148 290l49 -49l34 34l-49 49l-24 -9zM205 401q67 24 139 0v83 q0 29 -20.5 49.5t-48.5 20.5q-29 0 -49.5 -20.5t-20.5 -49.5v-83zM250 46l24 -10l24 10v68h-48v-68zM250 283h48v68l-24 10l-24 -10v-68zM316 122l49 -49l25 9l9 24l-49 50zM316 275l34 -34l49 49l-9 24l-25 10zM358 174h68l10 24l-10 24h-68v-48z" />
<glyph unicode="o" horiz-adv-x="892" d="M100 47v402q0 20 14 34t34 14h183v-72h-159v-353h521v130h72v-155q0 -19 -13.5 -33t-33.5 -14h-570q-20 0 -34 14t-14 33zM327 180q0 6 0.5 17.5t5 43.5t12.5 61t25 65t40 61.5t60.5 43t83.5 17.5l-27 118l265 -186l-265 -189l29 133q-4 0 -11 -0.5t-28 -4t-39.5 -10 t-41.5 -20.5t-39.5 -32.5t-28 -49t-11.5 -68.5h-30z" />
<glyph unicode="p" horiz-adv-x="1089" d="M80 425v72h438v138h270v-138h221v-72h-929zM166 -1v391h755v-391h-455v240h-136v-240h-164zM586 194h117v141h-117v-141zM739 194h117v141h-117v-141z" />
<glyph unicode="q" horiz-adv-x="682" d="M40 419v104q0 62 44 106t106 44t106.5 -44t44.5 -106v-121q30 10 66 10q89 0 152 -62.5t63 -151.5t-63 -152t-152 -63t-152 63t-63 152q0 93 68 156v169q0 29 -20.5 49t-49.5 20q-28 0 -48.5 -20t-20.5 -49v-104h-81zM244 198l10 -24h68v48h-68zM281 106l10 -24l24 -9 l49 49l-34 34zM281 290l49 -49l34 34l-49 49l-24 -9zM383 46l24 -10l24 10v68h-48v-68zM383 283h48v68l-24 10l-24 -10v-68zM449 122l49 -49l25 9l9 24l-49 50zM449 275l34 -34l49 49l-9 24l-25 10zM491 174h68l10 24l-10 24h-68v-48z" />
<glyph unicode="r" horiz-adv-x="806" d="M88 -16l44 168l394 392q24 7 48 2l-418 -418l-12 -44l48 -48l45 12l20 19l2 45l-32 32l383 383q6 -5 12 -12q25 -25 33 -49.5t3 -37.5l-5 -12l-394 -394l-168 -41zM555 575l39 39q26 27 65.5 27.5t64.5 -25.5q29 -28 27.5 -65.5t-30.5 -66.5l-37 -37q3 5 6 13.5 t-3.5 34.5t-32.5 51q-23 23 -47.5 30t-38.5 3z" />
<glyph unicode="s" horiz-adv-x="688" d="M40 39q0 21 12 36l103 104l101 41q-53 64 -53 146q0 91 66 156t157 65q90 0 156 -66t66 -156q0 -94 -64 -158q-66 -66 -158 -66q-81 0 -145 53l-41 -100l-104 -104q-16 -12 -36 -12q-24 0 -42 18.5t-18 42.5zM289 365q0 -58 40 -98q42 -40 97 -40q56 0 96 40.5t40 97.5 q0 55 -40.5 95.5t-95.5 40.5q-56 0 -96.5 -40.5t-40.5 -95.5z" />
<glyph unicode="t" horiz-adv-x="774" d="M35 202q8 -2 20 -4.5t46 -6t52 2.5q41 8 73.5 39.5t45.5 87.5q7 32 30.5 57t43.5 34l19 9q0 73 45.5 108t95.5 35q38 0 63 -16t31 -32l7 -15h135v-17l-106 -68q4 -28 -7 -51.5t-23 -32.5l-13 -9q2 -4 4 -12t4.5 -32t0.5 -47.5t-14 -54t-34 -56.5q-87 -101 -208 -63 q-7 2 -11 0t-4 -4v-3q25 -102 -42 -108q-20 -2 -29.5 15.5t-9.5 35.5l1 19q-67 -59 -92 -32q-11 11 -7 27q4 17 19 38.5t28 34.5l13 13q-41 0 -74 11t-51.5 27t-31 32t-16.5 27zM481 458q0 -16 11.5 -28t28.5 -12t28.5 12t11.5 28t-11.5 28t-28.5 12t-28.5 -12t-11.5 -28z " />
<glyph unicode="u" horiz-adv-x="635" d="M60 42l92 91l-58 58h168v-168l-58 58l-91 -92zM60 452l53 52l91 -93l58 59v-168h-168l58 58zM373 23v168h168l-58 -58l92 -91l-52 -53l-92 92zM373 302v168l58 -58l92 92l52 -52l-92 -92l58 -58h-168z" />
<glyph unicode="v" horiz-adv-x="695" d="M100 -1v168l58 -58l91 92l53 -53l-92 -91l58 -58h-168zM100 326v168h168l-58 -58l92 -92l-53 -52l-91 93zM393 148l52 53l92 -92l58 58v-168h-168l58 58zM393 344l92 92l-58 58h168v-168l-58 58l-92 -92z" />
<glyph unicode="w" horiz-adv-x="769" d="M60 305q0 134 95 228.5t230 94.5t229.5 -94t94.5 -229q0 -136 -94 -230.5t-230 -94.5q-135 0 -230 94.5t-95 230.5zM120 305q0 -26 2 -37q27 -32 106 -46q-6 37 -6 80q0 26 3 55q-66 13 -94 25q-11 -38 -11 -77zM135 215q25 -62 63 -97q32 -35 85 -57q-32 45 -48 121 q-67 15 -100 33zM146 417q4 -4 83 -25q17 100 60 157q-64 -30 -91 -59q-32 -29 -52 -73zM258 302q0 -47 6 -87q48 -8 101 -10v141q-61 2 -106 7q0 -9 -0.5 -25.5t-0.5 -25.5zM264 387q49 -4 101 -6v186h-2q-34 -13 -60.5 -62t-38.5 -118zM273 176q9 -38 27 -70 q27 -65 65 -65v129q-47 2 -92 6zM403 41q54 0 93 135q-46 -4 -93 -6v-129zM403 205q51 1 101 9q6 32 6 88q0 33 -1 50q-51 -5 -106 -6v-141zM403 381q50 1 102 6q-21 116 -76 166q-21 14 -26 14v-186zM480 550q43 -56 59 -159q67 12 84 25q-45 99 -143 134zM485 61 q54 23 86 57q39 36 60 93q-37 -17 -97 -30q-18 -77 -49 -120zM541 221q72 12 90 29.5t18 54.5q0 40 -12 76q-46 -19 -93 -24q2 -19 2 -55q0 -39 -5 -81z" />
<glyph unicode="x" horiz-adv-x="769" d="M60 305q0 134 95 228.5t230 94.5t229.5 -94t94.5 -229q0 -136 -94 -230.5t-230 -94.5q-135 0 -230 94.5t-95 230.5zM217 205l67 -68l101 101l99 -100l68 67l-100 100l100 100l-68 67l-99 -100l-101 101l-67 -68l101 -100z" />
<glyph unicode="y" horiz-adv-x="711" d="M110 197q-70 71 -70 171t70 170q71 70 171 70t171 -70q65 -65 67 -164t-56 -163l92 -32l103 -104q14 -17 12 -40t-18 -39t-38 -17.5t-40 11.5l-104 104l-32 90q-65 -57 -163.5 -54.5t-164.5 67.5zM155 242q53 -52 126 -52t125 52t52 125.5t-52 125.5q-52 53 -125 53 t-126 -53q-52 -52 -52 -125.5t52 -125.5zM174 344v51h80v81h54v-81h79v-51h-79v-80h-54v80h-80z" />
<glyph unicode="z" horiz-adv-x="711" d="M111 197q-71 71 -71 171t71 170t171 70t170 -70q65 -65 67 -164t-55 -163l91 -32l103 -104q14 -17 12 -40t-18 -39t-38 -17.5t-40 11.5l-104 104l-32 90q-65 -57 -163.5 -54.5t-163.5 67.5zM155 242q53 -52 126.5 -52t124.5 52q52 52 52 125.5t-52 125.5 q-51 53 -124.5 53t-126.5 -53q-52 -52 -52 -125.5t52 -125.5zM174 332v76h213v-76h-213z" />
<glyph unicode="{" horiz-adv-x="770" d="M60 303q0 135 95 230t230 95q134 0 229.5 -95t95.5 -230q0 -134 -95.5 -229.5t-229.5 -95.5q-135 0 -230 95.5t-95 229.5zM131 304q0 -105 74.5 -179.5t179.5 -74.5t179 74.5t74 179.5t-74 179t-179 74t-179.5 -74t-74.5 -179zM174 305q0 7 6 13t13 6t13 -6t6 -13t-6 -13 t-13 -6t-13 6t-6 13zM234 165q0 7 6 13t13 6t13 -6t6 -13t-6 -13t-13 -6t-13 6t-6 13zM238 401q-23 25 2.5 49t49.5 0l104 -114h87q23 0 31.5 -18t-1 -36t-30.5 -18h-102q-17 0 -26 12zM364 113q0 7 6 13t13 6t13 -6t6 -13t-6 -13t-13 -6t-13 6t-6 13zM365 494q0 8 5.5 13.5 t13.5 5.5t13.5 -5.5t5.5 -13.5t-5.5 -13.5t-13.5 -5.5t-13.5 5.5t-5.5 13.5zM498 442q0 8 6 13.5t13 5.5t13 -5.5t6 -13.5t-6 -13.5t-13 -5.5t-13 5.5t-6 13.5zM504 171q0 7 6 13t13 6t13 -6t6 -13t-6 -13t-13 -6t-13 6t-6 13zM557 305q0 7 5.5 13t13.5 6t13.5 -6t5.5 -13 t-5.5 -13t-13.5 -6t-13.5 6t-5.5 13z" />
<glyph unicode="|" horiz-adv-x="237" d="M100 -248v1001h37v-1001h-37z" />
<glyph unicode="}" horiz-adv-x="770" d="M60 303q0 135 95 230t230 95q134 0 229.5 -95t95.5 -230q0 -134 -95.5 -229.5t-229.5 -95.5q-135 0 -230 95.5t-95 229.5zM131 304q0 -105 74.5 -179.5t179.5 -74.5t179 74.5t74 179.5t-74 179t-179 74t-179.5 -74t-74.5 -179zM248 391q-23 25 2.5 49t49.5 0l94 -104h77 q23 0 31.5 -18t-1 -36t-30.5 -18h-92q-17 0 -26 12z" />
<glyph unicode="&#xad;" d="M55 60l215 378l217 -378h-432z" />
<glyph unicode="&#xc4;" horiz-adv-x="500" />
<glyph unicode="&#xd7;" horiz-adv-x="651" d="M81 108l146 146l-145 143l97 99l145 -145l145 145l98 -99l-145 -143l146 -147l-99 -97l-145 146l-145 -146z" />
<glyph unicode="&#xec;" horiz-adv-x="745" />
<glyph unicode="&#x2c6;" horiz-adv-x="500" />
<glyph unicode="&#x2000;" horiz-adv-x="398" />
<glyph unicode="&#x2001;" horiz-adv-x="797" />
<glyph unicode="&#x2002;" horiz-adv-x="398" />
<glyph unicode="&#x2003;" horiz-adv-x="797" />
<glyph unicode="&#x2004;" horiz-adv-x="265" />
<glyph unicode="&#x2005;" horiz-adv-x="199" />
<glyph unicode="&#x2006;" horiz-adv-x="132" />
<glyph unicode="&#x2007;" horiz-adv-x="132" />
<glyph unicode="&#x2008;" horiz-adv-x="99" />
<glyph unicode="&#x2009;" horiz-adv-x="159" />
<glyph unicode="&#x200a;" horiz-adv-x="44" />
<glyph unicode="&#x2010;" d="M55 60l215 378l217 -378h-432z" />
<glyph unicode="&#x2011;" d="M55 60l215 378l217 -378h-432z" />
<glyph unicode="&#x2012;" d="M55 60l215 378l217 -378h-432z" />
<glyph unicode="&#x2013;" horiz-adv-x="616" d="M55 60l249 378l251 -378h-500z" />
<glyph unicode="&#x2014;" horiz-adv-x="1116" d="M55 60l498 378l502 -378h-1000z" />
<glyph unicode="&#x2018;" horiz-adv-x="500" />
<glyph unicode="&#x202f;" horiz-adv-x="159" />
<glyph unicode="&#x205f;" horiz-adv-x="199" />
<glyph unicode="&#xe000;" horiz-adv-x="630" d="M0 0v630h630v-630h-630z" />
</font>
</defs>
</svg>
