<?xml version="1.0" standalone="no"?>
<!DOCTYPE svg PUBLIC "-//W3C//DTD SVG 1.1//EN" "http://www.w3.org/Graphics/SVG/1.1/DTD/svg11.dtd" >
<svg xmlns="http://www.w3.org/2000/svg">
<metadata></metadata>
<defs>
<font id="tagapagsalaysay_caps_narratIt" horiz-adv-x="353" >
<font-face units-per-em="1000" ascent="800" descent="-200" />
<missing-glyph horiz-adv-x="454" />
<glyph horiz-adv-x="1000" />
<glyph horiz-adv-x="1000" />
<glyph unicode="&#xd;" horiz-adv-x="454" />
<glyph unicode=" "  horiz-adv-x="454" />
<glyph unicode="&#x09;" horiz-adv-x="454" />
<glyph unicode="&#xa0;" horiz-adv-x="454" />
<glyph unicode="!" horiz-adv-x="206" d="M563 735q-9 -20 -45 -62q-43 -51 -54 -69q-47 -68 -144 -223q-15 -30 -51 -90q-4 -7 -17 -18q-17 -15 -25 -15q-11 0 -11 15q0 23 11 47q7 10 18 30q20 35 195 314q8 13 55 68q56 65 69 65q10 0 10 -15q0 -23 -11 -47zM204 96q-10 -21 -12 -25q-12 -17 -33 -33 q-6 -1 -17 -4q-24 -8 -52 -31q-24 -20 -36 -20t-12 16q0 19 13 45q5 12 11 24t20.5 25.5t53.5 38.5q44 28 60 28q17 0 17 -19q0 -18 -13 -45z" />
<glyph unicode="&#x22;" horiz-adv-x="442" d="M727 695q-18 -38 -54 -71q-11 -7 -30 -22q-22 -27 -45 -54q-36 -41 -50 -41t-14 21q0 28 17 65q10 22 32 54q9 9 27 28q13 17 46 54q9 8 33 25q28 19 37 19q14 0 14 -21q0 -28 -13 -57zM509 712q-23 -49 -149 -167q-12 -13 -25 -27t-28 -14q-17 0 -17 24q0 29 15 62 q18 38 43 64q24 19 69 56q9 10 28 28l28 30q25 24 38 24t13 -20q0 -29 -15 -60z" />
<glyph unicode="#" horiz-adv-x="583" d="M720 311q-26 -56 -57 -68q-8 -1 -26 -4q-32 -8 -103 -31q-8 -23 -27 -56q-30 -51 -54 -51q-15 0 -15 19t19 66q-46 -12 -90.5 -24t-61.5 -23q-46 -97 -77 -97q-11 0 -11 18q0 20 12 54q-54 -18 -68 -18q-22 0 -22 21q0 16 14 47q27 58 59 66q7 0 22 2q7 2 53 20 q6 20 22 52l-2 5q-13 -5 -51 -26q-32 -17 -35 -17q-11 0 -11 18q0 25 11 47q32 70 140 113l62 132q4 10 22 29q21 23 33 23q17 0 10 -35q-3 -15 -24 -59t-25 -63q26 7 144 45q11 53 49 90q14 14 26 14t12 -29q0 -14 -2.5 -34t-2.5 -19q55 16 156 42q4 -8 4 -19 q0 -18 -13.5 -47.5t-31.5 -49t-36 -24.5q-45 -12 -137 -40l-19 -57q122 38 132 38q14 0 14 -18q0 -23 -14 -52zM514 322q6 17 12 34.5t15 23.5h-14l-141 -42q-4 -10 -12.5 -31.5t-12.5 -29.5q52 15 153 45z" />
<glyph unicode="$" horiz-adv-x="427" d="M538 267q-8 -18 -75 -108q-26 -36 -82 -62q-46 -22 -85 -27q-13 -17 -26 -35q-26 -31 -43 -31q-10 0 -10 16q0 12 5 34l5 19q-7 4 -20 11q-27 16 -49 44q-26 35 -23 65q5 34 17 60q37 80 85 80q14 0 14 -18q0 -13 -6.5 -33.5l-6.5 -20.5q3 -6 27 -33q20 -22 68 -22 q34 0 74 13q51 17 64 45q3 7 3 13q0 20 -33 36q-23 10 -36 11t-34 2q-44 2 -70 11q-40 12 -40 59q0 39 27 98q58 124 179 170q13 5 30 4q9 19 26 55q6 11 27 36q29 34 44 34q11 0 11 -17q0 -30 -15 -56q-13 -20 -34 -58q1 -1 5 -4q58 -12 58 -65q0 -27 -16 -63 q-32 -67 -71 -89q7 -8 20 -24q8 -11 8 -40q0 -63 -22 -110zM514 448q-2 5 -2 12q0 9 5 25q7 21 7 22q-23 26 -89 26q-33 0 -86 -39q5 -21 49 -27q35 -4 69 -7q18 -4 47 -12z" />
<glyph unicode="%" horiz-adv-x="570" d="M586 640q-63 -134 -200 -164q-44 -9 -43 -9q-18 0 -29.5 19.5t-8.5 36.5q7 38 21 69q31 67 107 143q8 8 41 22.5t42 14.5q3 0 4.5 -1.5t4.5 -1.5q2 0 14 5.5t15 5.5q2 0 22 -7q34 -12 34 -50q0 -31 -24 -83zM830 728q-14 -31 -58 -77q-38 -38 -75 -76q-30 -34 -93 -105 q-26 -27 -74 -80.5t-187 -193.5q-116 -117 -162 -177q-15 -19 -33 -19q-12 0 -12 17q0 22 14 51q15 33 46 67l62 68q87 87 225 229q61 65 148 162q26 30 80 89q31 30 85 88q18 22 34 22q11 0 11 -17q0 -24 -11 -48zM666 209q-10 -23 -36 -58q-28 -38 -43 -49 q-31 -20 -80 -42q-55 -23 -79 -23q-41 0 -41 47q0 40 22 88q33 71 90 117q29 25 60 34q4 0 14 3q1 0 19 13q14 11 20 11q5 0 28.5 -10t33.5 -18q16 -11 11 -49q-6 -36 -19 -64zM512 638q-14 9 -17 9q-19 0 -49 -12q-37 -13 -47 -32q3 0 5 -3q28 7 57 14q35 9 51 24zM580 202 q-29 15 -31 15q-8 0 -71 -44q2 0 6.5 -1.5t7.5 -1.5q10 0 88 32z" />
<glyph unicode="&#x26;" horiz-adv-x="746" d="M1002 556q-39 -84 -115 -176q-96 -116 -162 -116q-34 0 -27 56q-39 -31 -55 -31q-21 0 -21 17q0 12 10 39q11 23 31 72q-32 -28 -90 -83q-15 -16 -30 -31q-26 -25 -36 -25t-10 13t9 36q4 12 9 24q-117 -100 -139 -100q-15 0 -15 19q0 12 6 32.5t6 21.5q-25 -16 -99 -63 q17 -4 17 -33q-1 -45 0 -46q0 -2 19 -23q25 -28 78 -28q57 0 116 12q1 0 50 16q23 7 46 15q27 10 47 25q8 8 17.5 16.5t16.5 8.5q11 0 11 -15q0 -18 -11 -41q-18 -41 -54 -68q-53 -39 -175 -70q-46 -12 -117 -12q-90 0 -119 69q1 13 1 38q-1 53 11 79q12 18 34 49 q-81 -44 -104 -44q-18 0 -18 18q0 17 15 51q36 77 112 146q13 14 43 40q55 41 111 59q-16 -1 -16 16t12 43q26 55 101 102q66 41 102 54q13 6 106 24q65 13 131 13q78 0 115 -19q55 -27 63 -104q1 -7 -9.5 -37.5t-23.5 -58.5zM950 560l10 21q-15 48 -58 66q-33 15 -99 15 q-41 0 -53 -1q-85 -7 -160 -29q-90 -27 -148 -91q-8 -8 -20 -17q17 4 27 4q46 0 46 -37q0 -27 -37 -105q26 20 57 45q24 22 49 43q46 39 62 39q19 0 10 -40q67 69 98 69q16 0 16 -23q0 -41 -28 -95q51 58 106 95q63 43 107 43q12 0 15 -2zM377 414q-26 4 -54 -21t-37 -39 q16 2 54 21q22 17 37 39zM861 431q-12 8 -35.5 -14t-27.5 -37q11 4 38 21q15 12 25 30z" />
<glyph unicode="'" horiz-adv-x="184" d="M534 722q-20 -42 -129 -144q-10 -12 -21.5 -24t-24.5 -12q-15 0 -15 21q0 25 14 54q15 33 37 55q20 16 59 48q8 9 25 25q12 12 24 25q21 21 32 21t11 -17q0 -25 -12 -52z" />
<glyph unicode="(" horiz-adv-x="225" d="M567 732q-19 -39 -41 -56q-32 -24 -63 -48q-38 -30 -53 -50q-61 -80 -97 -157q-29 -60 -66 -170q-9 -26 -13 -75q-1 -3 -4.5 -16.5t-3.5 -20.5t5.5 -10t15.5 -12q4 -5 -0.5 -26t-10.5 -34q-7 -16 -26 -39q-24 -30 -40 -30q-12 0 -20.5 13t-8.5 38q0 26 8 67q2 25 19 98 q39 124 83 218q53 115 147 237q16 20 56 57q94 81 112 81q13 0 13 -17q0 -22 -12 -48z" />
<glyph unicode=")" horiz-adv-x="287" d="M442 367q-30 -67 -85 -147q-58 -85 -105 -131l-46 -50q-46 -44 -68 -44q-11 0 -11 17q0 22 10 45q20 42 43 56q13 8 37 27q111 109 163 220q32 69 38 154q7 97 2 124q-5 12 -13 37q-3 11 -2 22q1 15 12 38q5 12 20 32q23 30 36 30q8 0 14 -14q3 -9 6 -16.5t7 -19.5 q5 -37 5 -80q0 -118 -34 -221q-21 -63 -29 -79z" />
<glyph unicode="*" horiz-adv-x="331" d="M525 458q-29 -63 -58 -63q-7 0 -19 24q-8 15 -16 29q-11 -28 -26 -64q-37 -78 -65 -78q-12 0 -12 19q0 13 3 22q11 25 29 78q-44 -47 -94 -96q-6 -6 -17 -6q-10 0 -10 15q0 21 12 49q10 21 18 30q57 60 117 126q1 0 -9.5 24t-11.5 46q0 17 13 45q7 16 23 36q20 26 34 26 q8 0 15 -18q10 -29 12 -32q11 23 35 69q33 56 56 56q9 0 9 -15q0 -17 -35 -105q74 60 86 60t12 -15q0 -20 -14 -49t-34 -48l-70 -56q30 -47 30 -65q0 -16 -13 -44z" />
<glyph unicode="+" horiz-adv-x="442" d="M634 424q-6 -13 -28 -43q-30 -39 -45 -39h-124l-58 -125q-9 -20 -32 -46q-28 -30 -45 -30q-15 0 -17 17q-1 22 3.5 36.5t16.5 42.5q8 10 20 29l31 66q-28 2 -70 -8q-2 0 -20 -7q-14 -5 -19 -5q-19 0 -19 24q0 26 15 59q29 62 69 81q26 12 108 20q5 12 14.5 40t10.5 30 q10 20 29 45q28 37 48 37q14 0 14 -22q0 -23 -15 -71q-9 -25 -17 -49h131q12 0 12 -21q0 -33 -13 -61z" />
<glyph unicode="," horiz-adv-x="155" d="M157 33q-10 -22 -58 -78q-51 -60 -65 -60q-8 0 -8 12t10 35.5t64 79.5q12 16 40 48q9 10 18 10q8 0 8 -12q0 -17 -9 -35z" />
<glyph unicode="-" d="M498 378q-28 -61 -61 -61q-3 0 -35.5 3.5t-35.5 3.5t-40 -2.5t-40 -2.5q-46 0 -46 25q0 15 13 42q6 13 22.5 34.5t22.5 22.5q69 5 126 5q-6 0 53 -4q11 0 29 -6q5 -5 5 -15q0 -17 -13 -45z" />
<glyph unicode="." horiz-adv-x="172" d="M199 99q-12 -28 -30 -43q-6 -4 -33 -19q-12 -6 -34 -24q-16 -14 -24 -14q-10 0 -10 14q0 17 9 37q12 26 26 39t46 35q38 25 50 25q9 0 9 -13q0 -19 -9 -37z" />
<glyph unicode="/" horiz-adv-x="345" d="M711 731q-15 -31 -93 -103q-13 -12 -79 -87q-36 -41 -88 -104q-39 -45 -112 -135q-32 -45 -97 -130q-25 -24 -74 -77q-10 -14 -37 -46l-20 -26q-22 -25 -35 -25q-11 0 -11 17q0 26 14 55q15 33 75 101q41 46 83 92q22 32 70 95q67 81 202 245q35 42 89 99q90 95 112 95 q12 0 12 -18q0 -24 -11 -48z" />
<glyph unicode="0" horiz-adv-x="357" d="M478 293q-14 -29 -57 -98q-17 -27 -33 -45q-59 -63 -87 -85q-89 -68 -140 -68q-69 0 -69 76q0 60 34 134q13 23 35 66q29 55 87 134q20 28 80 84q75 69 104 69q3 0 11 -3t11 -4q62 -8 62 -96q0 -82 -38 -164zM419 295q6 12 15 73q3 14 -12 37t-30 23q-3 0 -16 -12.5 t-23 -12.5q-2 0 -13 8q-94 -76 -150 -197q-14 -29 -14 -52q0 -38 43 -38q36 0 92 43q46 35 77 75q15 19 31 53z" />
<glyph unicode="1" horiz-adv-x="230" d="M256 68l-11 -23q-9 -15 -29 -32q-9 -3 -26 -9q-20 -8 -39 -15t-40 -7q-26 0 -26 21q0 13 13 43q28 60 65 63q18 38 58 116q19 37 38 75q16 31 38 91q-29 -18 -40 -18q-13 0 -13 18q0 20 10 43q17 36 34 48q23 17 62.5 41t43.5 24q8 0 12 -9q2 -9 0 -17q-18 -67 -34 -102 l-104 -222q-10 -14 -23 -34l-16 -35q3 -1 12.5 1.5t11.5 2.5q16 0 16 -18q0 -17 -13 -46z" />
<glyph unicode="2" horiz-adv-x="344" d="M381 88q-7 -15 -25 -38q-24 -30 -39 -30q-3 0 -7 2t-6 2q-11 1 -60 1q-63 0 -85 -4q-18 -3 -60.5 -15.5t-44.5 -12.5q-13 0 -13 19q0 24 14 54q29 63 142 161q103 85 205 169q2 5 1 7q-66 -10 -124 -59q-12 -11 -24 -23t-24 -12t-12 17q0 24 12 48q30 65 111 116 q77 49 138 49q36 0 36 -42q0 -34 -17 -69q-49 -106 -264 -267q48 0 95 1q65 -1 65 -28q0 -16 -14 -46z" />
<glyph unicode="3" horiz-adv-x="356" d="M452 229q-38 -82 -114 -152q-93 -85 -183 -85q-36 0 -59 14q-28 15 -28 45q0 17 10 38q6 14 20 32q19 26 33 26q3 0 10 -9q10 -13 13 -15q16 -14 56 -14q87 0 168 90q17 20 21 27q4 8 -13 15q-13 4 -21 4q-24 0 -66 -17t-44 -17q-10 0 -10 15q0 21 10 44q14 29 52 65 q56 53 70 69l2 3q-92 -32 -116 -32q-11 0 -11 15q0 19 11 43q5 11 20 30q17 23 25 25q19 5 59 15l58 18q39 11 63 11q19 0 19 -21q0 -17 -11 -43q-10 -21 -79 -105q59 -7 59 -55q0 -29 -24 -79z" />
<glyph unicode="4" horiz-adv-x="389" d="M391 51q-4 -9 -22 -29q-21 -24 -32 -24t-11 18q0 29 13 56l55 118h-172q-24 -1 -58 16q-12 6 -12 23q0 21 16 54q8 19 33 53q35 33 234 202q16 14 27 14t11 -16q0 -20 -13 -49q-19 -40 -60 -75q-88 -74 -106 -91h161l71 152q5 11 23.5 29.5t29.5 18.5q13 0 13 -21 q0 -17 -5 -29z" />
<glyph unicode="5" horiz-adv-x="295" d="M353 163q-13 -27 -37 -55q-33 -38 -56 -60q-38 -37 -80 -70q-11 -9 -85 -59q-82 -56 -89 -56q-13 0 -13 17q0 20 15 51q6 12 11 24q9 16 26 32q9 4 28 13q24 14 130 89q8 6 44 38q41 36 44.5 44t3.5 17q0 31 -27 31q-40 0 -83 -28.5t-47 -28.5q-14 0 -14 17q0 24 26 77 q1 4 24 45t24 44l41 87q7 15 25 38q23 31 37 31q2 0 7 -5t8 -5q2 0 16 4t19 5q21 2 70 9q45 6 47 6q14 0 14 -17q0 -20 -12 -45q-6 -15 -22 -34q-18 -23 -29 -27q-26 -10 -78.5 -14.5t-73.5 -13.5q-5 -9 -14 -24l-7 -14q62 20 81 20q50 0 50 -70q0 -61 -24 -113z" />
<glyph unicode="6" horiz-adv-x="418" d="M516 222q-29 -62 -65 -99q-47 -49 -138.5 -94.5t-138.5 -45.5q-19 0 -43 8t-29 18q-9 16 -9 41q0 65 49 168q65 140 204 259q79 67 128 67q19 0 23.5 -3.5t4.5 -14.5q0 -19 -12 -45q-8 -16 -22 -36q-20 -26 -32.5 -25.5t-35.5 -2.5q-41 -18 -99 -70q-52 -49 -76 -85 q-11 -16 -24 -45q-25 -54 -25 -76q0 -9 3 -14q6 10 16 31q30 73 135 142q98 65 158 65q24 0 36.5 -21t12.5 -49q0 -15 -3 -27q-6 -20 -18 -46zM454 219q0 7 -10 13.5t-16 6.5q-36 0 -103 -38q-74 -41 -93 -83l-4 -8h21q2 0 37 11q28 8 94 43q74 39 74 55z" />
<glyph unicode="7" horiz-adv-x="357" d="M569 473q-14 -30 -35 -51q-48 -43 -98 -91q-1 -3 0 -4q3 2 7 2q14 0 14 -19q0 -22 -12 -47q-6 -14 -22 -34q-18 -25 -26.5 -26.5t-50.5 -1.5q-29 -1 -47 -12t-105 -116q-8 -12 -25 -36q-9 -10 -29 -29q-27 -25 -35 -25q-11 0 -11 18q0 27 11 50.5t40 56t57 64.5 q-3 2 -12 0q-10 -3 -11 -3q-13 0 -13 18q0 23 11 47q17 36 40 50q13 8 49.5 15t62.5 18q23 10 50 41l48 56h-47q-34 -1 -87 -20t-58 -19q-12 0 -12 17q0 21 12 48q24 52 54 64q69 28 129 36q26 3 89 3q61 0 69 -3q5 -3 5 -15q0 -25 -12 -52z" />
<glyph unicode="8" horiz-adv-x="427" d="M724 611q-7 -15 -22 -35q-18 -22 -29 -26q-67 -24 -178 -116q-144 -120 -149 -129q1 -15 2 -31q-1 -36 -17 -71q-25 -54 -90 -119q-83 -84 -148 -84q-27 0 -27 27q0 23 20 66q41 87 133 186q-13 15 -13 42q0 35 19 76q26 56 61 88q40 35 110 72q34 19 72 19 q19 0 35.5 -9.5t12.5 -22.5q175 130 206 130q14 0 14 -18q0 -20 -12 -45zM409 450h-13q-17 1 -51 -20q-26 -16 -51 -32q9 -10 23 -28q14 13 92 80zM264 196q4 8 -8 29q-63 -58 -89 -97q23 4 58 30q32 24 39 38z" />
<glyph unicode="9" horiz-adv-x="333" d="M380 149q-10 -22 -44 -61q-30 -35 -41 -43q-63 -43 -97 -51q-13 -3 -45 -3q-47 0 -81 18q-5 2 -5 12q0 21 13 48q6 15 23 37q24 30 41 30q2 0 7.5 -5.5t9.5 -6.5q33 -8 51 -8q29 0 38 3q20 5 64 34q3 1 15 14l35 79q-67 -41 -142 -41q-60 0 -60 48q0 30 23 79 q18 40 66 89.5t99 83.5q5 4 34 15q25 9 61 9q25 0 29 -1q11 -3 23.5 -18.5t15.5 -30.5q0 -2 -2 -17q-5 -43 -10 -52zM421 380q2 5 2 9q0 15 -38 15q-69 0 -130 -69q22 -5 26 -5q-3 0 44 5q13 2 47 15q43 17 49 30z" />
<glyph unicode=":" horiz-adv-x="185" d="M391 477q-32 -68 -81 -68q-45 0 -45 30q0 16 12 41q7 16 22 35q21 26 36 26q3 0 15 -2.5t15 -2.5q4 0 14.5 2.5t13.5 2.5q10 0 10 -15q0 -22 -12 -49zM230 150q-29 -64 -71 -64q-35 0 -35 28q0 16 13 44q29 63 65 63q40 0 40 -30q0 -16 -12 -41z" />
<glyph unicode=";" horiz-adv-x="158" d="M344 430q-30 -65 -88 -65q-20 0 -20 20q0 14 10 37q6 12 21 31.5t23 22.5q9 0 29 4q25 6 23 6q13 0 13 -16q0 -17 -11 -40zM229 179q-10 -21 -32 -47q-25 -29 -48.5 -57t-64.5 -83q-10 -15 -20 -31q-20 -28 -34 -28q-11 0 -11 15q0 20 12 47q27 57 136 183q7 7 20 22 q30 36 44 36q10 0 10 -13q0 -18 -12 -44z" />
<glyph unicode="&#x3c;" horiz-adv-x="393" d="M743 731q-18 -38 -55 -68l-238 -199q-75 -55 -153 -117q-1 -2 39 -73q54 -97 87 -163q0 -5 1 -10q-5 -24 -14 -43q-31 -68 -63 -68q-8 0 -32 46q-45 78 -127 240q-9 19 2 57q1 3 11 25q22 47 88 85q42 25 185 139q12 10 166 140q89 75 102 75q12 0 12 -18q0 -24 -11 -48z " />
<glyph unicode="=" horiz-adv-x="373" d="M550 467q-7 -14 -20 -33q-18 -23 -29 -26q-109 -21 -186 -26q-10 -1 -38 -9.5t-29 -8.5q-12 0 -12 16q0 19 11 42q20 43 48 56q34 17 76 21q81 8 86 9q14 2 54 12q36 8 39 8q10 0 10 -16q0 -23 -10 -45zM487 282q-7 -14 -20 -32q-19 -26 -32 -26l-51 -3q-25 -4 -72 -10 q-59 -9 -107 -21q-5 -2 -24.5 -9t-23.5 -7q-12 0 -12 16q0 19 12 45q20 41 40 52q33 17 114 32q27 5 70 11q81 11 85 11q19 0 24 -1q9 -2 9 -15q0 -18 -12 -43z" />
<glyph unicode="&#x3e;" horiz-adv-x="397" d="M567 380q-13 -29 -58 -76l-278 -290q-16 -16 -29 -16q-12 0 -12 16q0 23 12.5 49.5t76.5 92.5q104 107 210 219q0 1 -31 99q-2 3 -27 99q-6 28 -11.5 55.5t-20.5 38.5q-5 4 -5 15q0 21 13 49q31 66 61 66q18 0 30 -31q9 -22 11.5 -44.5t21.5 -94.5q5 -18 39 -115 q8 -23 12 -58q4 -33 -15 -74z" />
<glyph unicode="?" horiz-adv-x="496" d="M812 652q-18 -39 -59 -91q-55 -70 -175 -133q-96 -47 -192 -93q-37 -106 -95 -106q-22 0 -22 26q0 28 20 70q26 56 78 96.5t153 86.5q177 80 205 119q10 8 24 24q3 7 -8.5 25t-17.5 20q-44 16 -102 16q-148 0 -198 -67q-7 -18 -27 -55q-13 -19 -34 -35h-18q-5 8 -5 21 q0 83 100 180q93 91 245 91q154 0 154 -100q0 -40 -26 -95zM369 136q-18 -39 -40 -54q-8 -7 -122 -67q-9 -7 -27 -19q-6 -4 -19 -4q-17 0 -17 20q0 18 13 47q9 19 16 30q13 19 29 30q9 6 72 36l42 24q42 23 51 23q13 0 13 -19q0 -23 -11 -47z" />
<glyph unicode="@" horiz-adv-x="683" d="M754 170q-29 -62 -117 -114q-72 -42 -151 -63q-17 1 -49 -1q-43 -7 -42 -7q-35 0 -80 19q-31 14 -40 18q-24 13 -35.5 27.5t-16.5 32.5l-8 30q-6 11 -13 36q-4 81 11 147q12 50 46 123q37 79 59 114q41 63 116 134q9 9 74 47q13 6 38 20q66 42 146 62q44 11 74 11 q31 0 98 -11q16 -3 27 -15q35 -42 44 -132q1 -7 -3 -23q-5 -22 -6 -28q-7 -46 -32 -100q-115 -246 -259 -246q-23 0 -27 1q-12 3 -17 17q-43 -24 -54 -29q-27 -12 -59 -12q-23 0 -25 1q-28 12 -45 33q-12 14 -3 48q10 34 25 67q68 145 190 171q33 7 41 7q27 0 48 -19 q6 -5 1 -37q-3 -21 -28 -82q-4 -10 -5 -37q39 -1 44 1q27 7 59 32q12 8 23 30q15 23 32 53q12 25 15 60q0 7 -5.5 22t-6.5 21q-1 16 -11.5 38.5t-21.5 25.5q-43 14 -100 14q-2 0 -17.5 -3.5t-23.5 -3.5q-76 -4 -249 -114q-5 -5 -14 -15q-36 -38 -54 -66q-11 -17 -29 -55 q-34 -73 -30 -126q-1 -15 -2 -41q4 -9 11 -28q3 -17 14 -47q17 -28 91 -56q21 -8 55 -8q-5 0 40 7q15 -1 46 1q23 6 51 18q21 10 48 23q41 20 63 37q13 12 41 32q3 1 8 1q13 0 13 -16q0 -20 -13 -47zM621 416q0 10 -21 10q-26 0 -58 -12q-39 -14 -53 -35q23 -17 28.5 -19 t22.5 -2h22q32 7 42 21q3 3 10 18t7 19z" />
<glyph unicode="A" horiz-adv-x="439" d="M435 42q-6 -13 -23 -31q-20 -21 -31 -21q-13 0 -13 21q0 17 6 29l54 117q4 8 80 186q-73 -6 -163 -45q-94 -41 -136 -91q-29 -33 -93 -170q-17 -36 -33 -93q-3 -11 0 -25q6 -32 -12 -69q-7 -16 -23 -37q-22 -29 -36 -29q-16 0 -16 42q0 25 4 47q11 62 60 168 q115 247 296 466q47 57 129 126q47 39 123 85q35 22 87 49.5t57 27.5q11 0 11 -18q0 -32 -16 -66zM651 641q-83 -39 -155 -93q-76 -57 -143 -136q-3 -1 -8 -9l-4 -8q58 33 126 54q62 19 101 19q8 18 83 173z" />
<glyph unicode="B" horiz-adv-x="530" d="M648 271q-29 -62 -97 -126q-77 -72 -159 -101t-88 -31q-36 -10 -74 -10q-73 0 -101 23q-10 -9 -19 -18q-18 -16 -25 -16q-16 0 -13 27q5 39 45 127l209 453q7 22 16 50q9 15 26 44.5t32 58.5q33 56 52 56q14 0 14 -21t-2 -21q2 0 22.5 9.5t28.5 12.5q38 15 83 15 q99 0 99 -66q0 -29 -18 -68q-32 -69 -91 -116q9 -3 29 -9q69 -23 69 -117q0 -75 -38 -156zM597 658q-34 11 -62 11q-63 0 -137 -45q-44 -96 -43 -99q48 9 124 51t118 82zM590 282q3 6 6 45q8 95 -129 95q-67 0 -175 -37l-103 -222q42 -27 104 -27q47 0 107 22q50 18 85 34 q29 14 63.5 44t41.5 46z" />
<glyph unicode="C" horiz-adv-x="530" d="M652 221q-18 -39 -63 -86q-63 -66 -152 -106q-79 -35 -144 -37q-3 0 -14.5 -2.5t-15.5 -2.5q-17 0 -41 10q-73 28 -73 132q0 114 75 274q55 118 172 242q154 163 286 163q45 0 75 -17q36 -19 36 -56q0 -21 -12 -47q-7 -16 -23 -36q-23 -28 -38 -28q-3 0 -15 16t-17 20 q-18 14 -69 14q-97 0 -207 -107q-88 -85 -129 -172q-46 -99 -46 -164q0 -51 26 -86q5 -7 24 -15q25 -9 37 -9q3 0 14.5 2t16.5 2q60 5 122 31q80 34 130 93q9 12 19 24q18 21 30 21q13 0 13 -16q0 -22 -17 -57z" />
<glyph unicode="D" horiz-adv-x="593" d="M785 427q-92 -197 -268 -303q-45 -28 -135 -79q-52 -26 -131 -43q-15 -3 -83 -3q-2 0 -11 -4t-12 -4q-10 0 -10 16q0 35 38 117l44 95q1 3 5.5 18t6.5 18l42 90q7 16 60 148q57 143 53 143t-31.5 -17.5t-38.5 -17.5t-11 18q0 23 10 44q20 42 59 68q29 20 99 48q5 0 16 1 q91 27 178 27q103 0 138 -60q15 -17 37 -56q11 -33 7 -63q-11 -92 -62 -201zM728 430q12 25 25 72q8 27 9 50q0 17 -4 26q-30 64 -68 85q-28 16 -87 16q-80 0 -148 -20q-55 -138 -167 -412q-42 -99 -55 -119h63q4 0 17.5 4t15.5 5q62 12 153.5 63.5t164.5 116.5 q50 45 81 113z" />
<glyph unicode="E" horiz-adv-x="649" d="M762 228q-19 -39 -43.5 -61t-92.5 -62l-76 -46q-49 -27 -85 -38q-130 -39 -182 -39q-34 0 -68 16.5t-48 39.5q-32 56 -35 84q-1 11 -1 23q0 149 143 339q129 171 270 252q112 64 174 64q18 0 59 -10q89 -21 89 -65q0 -18 -11 -43q-8 -16 -24 -36q-22 -27 -37 -27 q-3 0 -12.5 9t-13.5 11q-58 29 -110 29q-64 0 -161.5 -62.5t-176.5 -149.5q0 -1 -0.5 -1t0.5 -1h4q-5 0 74 27q234 81 419 81q50 0 59 -3q5 -2 5 -12q0 -25 -12 -50q-7 -16 -24 -37q-23 -29 -37 -29h-108q-54 0 -164 -25q-85 -19 -135 -36q-62 -20 -168 -62q-15 -30 -15 -63 q0 -51 31 -87q4 -8 15 -21q29 -24 80 -24q31 0 76 11q4 1 85 23q35 10 111 53q65 37 103 65l18 18q16 16 25 16q13 0 13 -18q0 -23 -13 -53z" />
<glyph unicode="F" horiz-adv-x="440" d="M705 500q-8 -17 -24 -37q-20 -25 -36 -27l-31 -2q-22 -4 -65 -8q-78 -3 -120 -7q-75 -8 -146 -29l-84 -181q-27 -69 -57 -145q-8 -16 -27 -41q-26 -34 -43 -34q-11 0 -11 19q0 20 5 31l48 101q3 12 10 34q126 279 215 461q7 13 22 39q55 98 81 98q3 0 7 -7.5t7 -7.5 q2 0 66.5 12.5t78.5 14.5q40 5 73 6h47q6 1 23 5.5t20 4.5q15 0 15 -18q0 -19 -14 -48q-6 -13 -11 -25q-8 -13 -29 -31q-16 -13 -64 -18q-28 1 -85 -1q-51 -9 -155 -26q-14 -2 -25 -8q-18 -33 -50 -102l1 -1q79 20 120 24q170 19 225 19q15 0 20 -3t5 -14q0 -22 -12 -48z " />
<glyph unicode="G" horiz-adv-x="605" d="M819 482q-7 -15 -23 -36q-20 -26 -34 -32q-18 -7 -52 -21q-19 -64 -50 -131l-28 -60q-20 -38 -46 -66q-53 -57 -153 -102q-94 -42 -153 -42q-103 0 -127 82q-8 21 -18 62q-1 10 -1 21q0 65 52 177q23 51 93 155q68 99 90 121q26 25 80 73q20 16 72 46t75 38 q116 43 153 43q84 0 84 -52q0 -19 -12 -45q-9 -19 -26 -40q-22 -28 -36 -28q-3 0 -13.5 9.5t-15.5 11.5q-15 6 -45 6q-28 0 -95 -24q-60 -21 -80 -34q-28 -15 -81 -49q-37 -28 -65 -59q-22 -24 -63.5 -88.5t-58.5 -102.5q-20 -41 -20 -70q0 -43 47 -96q6 -6 31.5 -12.5 t43.5 -6.5q54 0 142 42q18 7 36 15q25 11 41 26q21 20 46 73q8 19 22 76q-34 -14 -126 -56q-79 -36 -82 -36q-12 0 -12 19q0 25 11 47q4 10 20.5 33t24.5 28q41 26 65 37q277 117 286 117q13 0 13 -18q0 -25 -12 -51z" />
<glyph unicode="H" horiz-adv-x="507" d="M515 65q-8 -17 -26 -41q-27 -35 -44 -35q-10 0 -13 13q-2 12 3 24q27 79 50 127l57 123q10 25 33 81q-56 -6 -156 -13q-76 0 -155 -22q-22 -54 -48 -114l-56 -122q-1 -2 -4.5 -15t-6.5 -19q-9 -21 -27 -43q-24 -31 -43 -31q-13 0 -13 22q0 20 5 32l59 126q2 3 11 28.5 t11 29.5l161 345q1 4 29.5 76t29.5 76q36 75 67 75q13 0 13 -18q0 -25 -41 -123q-7 -20 -17 -47l-64 -136q50 9 154 19q33 1 146 15q1 0 6 4l110 235q7 15 30 45q30 39 46 39q13 0 13 -16q0 -26 -25 -73q-66 -128 -142 -305q-22 -55 -47 -118l-58 -124q-2 -3 -24 -60 t-24 -60z" />
<glyph unicode="I" horiz-adv-x="297" d="M329 67q-6 -14 -25 -37q-23 -29 -36 -29h-91q-3 0 -47.5 -8t-48.5 -8q-28 0 -28 26q0 18 13 46q31 66 61 66q3 0 8.5 -2.5t9.5 -2.5q31 0 42 25l74 158q2 4 64.5 127t64.5 126q43 93 43 104q0 7 -5 7q-3 0 -25.5 -4t-24.5 -4q-15 0 -15 18q0 19 14 49q21 44 44 60 q11 7 59 12q90 10 106 10q35 0 43 -4q5 -2 5 -13q0 -23 -12 -50q-6 -13 -22 -34q-19 -26 -29 -28.5t-66 -3.5l-123 -262q-39 -74 -81 -153l-58 -125q81 3 94 -3q4 -2 4 -12q0 -26 -12 -51z" />
<glyph unicode="J" horiz-adv-x="490" d="M582 220q-16 -34 -17 -35q-12 -23 -36 -55q-3 -4 -45 -45q-49 -49 -91 -63q-92 -31 -171 -31q-138 0 -138 96q0 41 26 98q55 117 168 165q15 6 50 6q34 0 61 -14q4 -2 4 -12q0 -23 -11 -48q-10 -21 -26 -39q-22 -26 -41 -26q-3 0 -24.5 5t-24.5 5q-15 0 -33 -3 q-6 -1 -33.5 -18.5t-30.5 -24.5q-3 -6 5.5 -22t12.5 -19q12 -10 24 -13q35 -8 71 -8q61 0 117 15q95 26 124 88q6 21 19 62q28 85 49 186q33 157 39 180h-30q-2 0 -23.5 -5t-25.5 -5q-13 0 -13 17q0 18 13 47q9 20 13 25q7 11 27 31q2 2 13 7q21 5 55 10q69 7 128 15 q11 2 39 1q4 -5 4 -15q0 -21 -13 -47q-19 -43 -39 -55q-13 -9 -36 -10q-30 -3 -46 -7q-8 -52 -30 -153l-34 -132q-30 -112 -50 -154z" />
<glyph unicode="K" horiz-adv-x="430" d="M459 55q-30 -64 -59 -64q-13 0 -20 35q-2 18 -5 36q-7 44 -7 111q0 36 3 107q3 67 3 98q0 2 -3 11.5t-3 15.5q-46 -41 -138 -110q-3 -4 -10 -15l-46 -99q-1 -3 -24.5 -61t-24.5 -61q-33 -71 -62 -71q-11 0 -11 20q0 31 11 55l41 88q2 3 16.5 39t15.5 39t24.5 47.5 t24.5 46.5l63 136q33 70 84 163q85 152 112 152q12 0 12 -16q0 -21 -15 -52q-1 -4 -35.5 -61.5t-36.5 -61.5q-25 -53 -66 -140q71 58 135 116q72 64 219 194q13 13 26 25q18 16 28 16q11 0 11 -16q0 -23 -11 -47q-18 -37 -54 -70q-97 -85 -197 -176q-1 -3 -3 -68 q-2 -136 -2 -157q2 -90 18 -156q3 -13 -14 -49z" />
<glyph unicode="L" horiz-adv-x="455" d="M566 183q-16 -35 -41 -57q-7 -7 -39 -18q-59 -19 -131 -45q-47 -21 -95 -42q-73 -32 -93 -32q-33 0 -33 42q0 19 9 58q3 15 10 45q5 22 56 153q25 68 78 202q20 59 78 200q51 108 81 108q5 0 9 -7t4 -12q0 -21 -14 -52q-11 -24 -22 -47q-59 -148 -173 -446 q-10 -25 -16 -58q0 -2 -4.5 -17.5t-4.5 -22.5q0 -6 2 -10q7 0 10 1q67 27 133 55q76 30 143 52q57 18 53 18q12 0 12 -18q0 -25 -12 -50z" />
<glyph unicode="M" horiz-adv-x="648" d="M643 40q-4 -9 -21 -28q-22 -24 -33 -24q-10 0 -10 22q0 30 6 43l124 267q7 13 26 44l99 215q-40 -51 -120 -154q-58 -69 -162 -200l-70 -104q-44 -65 -79 -94q-8 -12 -17 -23q-17 -22 -31 -22q-10 0 -12 19q0 -1 7 42q-1 12 -1 38q13 74 34 218q16 146 9 295 q-25 -59 -52 -124l-55 -116q-1 -4 -51 -127t-51 -126q-36 -77 -66 -77q-11 0 -11 16q0 19 14 54q7 22 32 82l221 525q45 96 74 96q6 0 13 -18q6 -1 13 -6q5 -22 4 -92q3 -69 -3 -247q-5 -52 -17 -136q-19 -124 -21 -138q2 0 7 4q27 42 91 131q61 75 187 234q32 43 135 167 q22 27 45 54q43 47 59 47q10 0 10 -16q0 -39 -37 -118z" />
<glyph unicode="N" horiz-adv-x="528" d="M532 55q-8 -18 -23 -38q-21 -28 -36 -28q-8 0 -10 6q1 13 0 32q-18 76 -21 116q-4 30 -10 114q-4 11 -10 35q-11 64 -31 163q-17 62 -18 118q-42 -99 -87 -205l-76 -161q-11 -24 -29 -76q-6 -23 -15 -53q-33 -69 -61 -69q-12 0 -12 19q0 52 43 144l61 130q1 3 15 38 t16 38l49 106q1 3 23.5 61.5t23.5 61.5l43 93q4 13 11 34q7 15 22 35q22 28 37 28q10 0 11 -8q-1 -12 -2 -35q4 -4 8 -13q-1 -37 5 -110q7 -45 28 -133.5t28 -136.5q4 -54 15 -163q9 23 20 52l62 133q2 3 65 149t64 149q53 114 82 114q14 0 14 -17q0 -7 -4 -17 q-52 -141 -131 -310l-80 -171q-1 -3 -4 -15t-5 -15l-55 -119q-2 -3 -13 -38t-13 -38z" />
<glyph unicode="O" horiz-adv-x="707" d="M915 469q-12 -28 -40 -77q-73 -103 -110 -147q-84 -99 -167 -145q-13 -8 -41 -25q-83 -48 -132 -66q-54 -20 -108 -20q-182 0 -182 176q0 22 3 47.5t40 103.5q41 89 109 181q80 106 167 174l64 54q45 37 79 51q78 34 189 34q179 0 179 -159q0 -32 -7 -70q-6 -33 -43 -112 zM850 465q23 49 23 91q0 53 -35 84t-101 31q-21 0 -24 -1l-19 -7q-3 0 -8 1.5t-8 1.5q-21 0 -55.5 -15t-33.5 -15q-3 0 -8.5 7t-8.5 7q-27 0 -126 -84q-81 -70 -99 -91q-70 -85 -104 -157q-8 -15 -16 -37q-6 -154 156 -154q74 0 175 57q109 60 147 94q7 6 59 65q24 27 41 52 q42 63 45 70z" />
<glyph unicode="P" horiz-adv-x="467" d="M741 553q-63 -134 -221 -217q-24 -13 -86 -31q-105 -30 -146 -30q-24 0 -56 12q-19 -41 -54 -125q-17 -39 -33 -79q-44 -94 -71 -94q-10 0 -12 12q-2 10 2 20q74 184 83 206l138 295q16 31 40 88q-1 6 -1 19q1 15 13 40q14 31 53 64q10 14 33 42q12 13 23 13q9 0 13 -19 q77 28 133 28q114 0 168 -102q8 -16 10 -36q2 -38 -29 -106zM688 569q0 35 -56 80q-23 18 -51 24q-17 3 -46 3q-52 0 -132 -30q-14 -25 -31 -55l-82 -177q21 -17 55 -17q47 0 149 32q24 8 60 21q35 18 78 52q56 43 56 67z" />
<glyph unicode="Q" horiz-adv-x="736" d="M918 424q-43 -92 -117 -182q-24 -29 -72 -86q-22 -20 -45 -45q-3 -6 20 -20q7 -4 6 -16q-3 -26 -14 -50q-9 -19 -24 -39q-24 -32 -42 -32q-21 0 -34 33l-20 56q-26 -14 -56 -22q-77 -20 -107 -20q-3 0 -42 -1.5t-43 -1.5q-80 0 -115 29q-30 23 -44 68q-14 42 -11 86 q7 100 55 202q43 93 72 124q115 124 224 203q141 101 238 101q17 0 49 -9q1 -5 8 -12q20 -1 60 -7q100 -27 100 -162q0 -98 -46 -197zM850 420q23 48 23 99q0 56 -30 91q-32 39 -95 39h-119q0 -29 -1 -94q-2 -74 -2 -109q0 -166 34 -246q33 14 99.5 91.5t90.5 128.5z M546 154q-14 99 -14 218q0 46 3 109q3 83 3 90q3 20 8 56q-93 -45 -242 -197q-12 -12 -29 -48q-23 -50 -23 -111q0 -77 40 -109q29 -23 102 -23q3 0 41.5 1.5t42.5 1.5q22 0 68 12z" />
<glyph unicode="R" horiz-adv-x="505" d="M525 41q-31 -66 -63 -66q-13 0 -69 60q-87 94 -135 196q-2 6 -29 16l-90 -194q-5 -9 -22 -28q-20 -22 -31 -22q-12 0 -12 20t6 31l88 189q1 3 75.5 174t76.5 174q45 97 50 107q38 71 62 71q4 0 8.5 -7t4.5 -12q76 47 163 47q19 0 74 -23q79 -33 79 -113q0 -52 -32 -122 q-72 -153 -286 -250q-23 -10 -58 -20q25 -37 83 -104q25 -21 68 -69q3 -3 -1.5 -23t-9.5 -32zM675 569q0 38 -53 69q-44 27 -79 27q-69 0 -109 -25q-44 -27 -49 -36q-27 -56 -67 -151q-10 -24 -30 -66l-6 -5h61q23 -1 91 16q35 9 63 24q35 20 99 55q18 10 43 33t30.5 35 t5.5 24z" />
<glyph unicode="S" horiz-adv-x="663" d="M791 298q-24 -51 -121 -155q-55 -58 -137 -105q-77 -44 -141 -59q-26 -5 -79 -5h-38q-7 1 -49 13q-2 1 -37 27q-49 37 -65 72q-6 13 -6 34q0 55 27 115q27 56 83.5 98.5t102.5 42.5q24 0 24 -22q0 -16 -13 -44q-29 -61 -58 -65q-18 -1 -53 -10q-11 -6 -26 -18 q8 -56 99 -103q17 -8 73 -8q52 0 73 6t111 48q75 35 123 91q20 19 46 50q1 10 5 27q5 13 5 27q0 42 -36 73q-17 13 -71 13q-26 0 -91 -10t-71 -10q-101 0 -101 82q0 36 21 80q44 94 130 154t180 60q96 0 96 -53q0 -21 -13 -49q-7 -15 -24 -37q-23 -30 -37 -30 q-2 0 -11.5 13.5t-19.5 17.5q-16 6 -51 6q-27 0 -34 -1q-21 -3 -72 -21q-6 -2 -37 -21q-34 -21 -37 -29q-1 -2 -1 -5q0 -9 12 -18.5t18 -10.5q41 -6 43 -6t68 10.5t96 10.5q33 0 38 -1q17 -2 40 -15t37 -45.5t14 -68.5q0 -20 -3.5 -36.5t-10 -46.5t-21.5 -63z" />
<glyph unicode="T" horiz-adv-x="505" d="M882 731q-9 -19 -26 -40q-24 -28 -43 -28h-177q-133 -237 -158 -291l-156 -334q-4 -9 -21 -28q-21 -24 -32 -24t-11 20t5 30l186 399q40 73 123 225q-42 -1 -148 -14q-15 -2 -56 -8q-35 -6 -38 -6q-14 0 -22 1q-3 2 -5.5 7.5t-2.5 11.5q0 14 13 44q11 23 14 27 q10 14 32 32q3 3 123 20q126 17 155 17h226q3 0 7.5 2.5t8.5 2.5q15 0 15 -20t-12 -46z" />
<glyph unicode="U" horiz-adv-x="534" d="M581 125q-46 -98 -75 -98q-10 0 -10 16q0 12 5 27q1 2 0 6q-38 -38 -97 -58q-45 -16 -85 -17q-4 0 -25.5 -3t-25.5 -3q-34 0 -69 20q-40 22 -43 54q-4 47 -3 57q11 70 30 127q54 159 106 270q32 69 97 204q8 15 30 45q32 44 48 44q8 0 9 -15q2 -12 -1 -20q-3 -11 -12 -32 q-14 -24 -32 -54l-110 -236q-33 -71 -59 -159q-23 -80 -23 -122q1 -26 34 -43q29 -15 56 -15q26 0 79 8q39 6 84 29q9 5 31 27q19 18 33 21l38 83q9 29 28 86q35 92 116 285q63 135 93 135q11 0 11 -19t-6 -31l-71 -152q-11 -32 -32 -88q-16 -40 -49 -125q-13 -40 -29 -86 l-43 -94q-1 -7 -6 -26q-4 -11 -22 -48z" />
<glyph unicode="V" horiz-adv-x="525" d="M832 635q-61 -64 -62 -66q-38 -54 -77 -98q-79 -89 -156 -189q-112 -144 -123 -159q-56 -69 -102 -105q-9 -9 -17.5 -17t-19.5 -8t-11 24q0 15 7 52q0 20 3 54q14 102 46 319q8 69 17 137q17 129 28 153q7 14 22 34q22 30 36 30q12 0 10 -35q-5 -38 -16 -113 q-6 -50 -61 -436q-4 -33 -1 -68q15 15 103 127q72 93 235 289q11 12 49 64q14 19 74 85q73 80 88 80q10 0 10 -15q0 -18 -14 -50t-68 -89z" />
<glyph unicode="W" horiz-adv-x="839" d="M1234 718q-7 -13 -24 -33q-29 -32 -40 -46q-122 -153 -396 -525q-1 -1 -21 -35q-8 -14 -37 -49q-39 -45 -55 -45q-11 0 -11 16q0 5 1.5 16t1.5 14q-15 112 -15 217q0 60 5 115q-23 -28 -53 -80q-40 -67 -52 -85q-50 -76 -89 -131q-14 -13 -35 -31q-11 -13 -22.5 -26 t-26.5 -13q-16 0 -22 38q-1 21 -2 41q-4 46 -4 96q0 67 9 185q11 142 14 206q4 97 33 159q7 15 22 37q23 31 38 31q6 0 9 -11t2 -15q-5 -20 -13 -58q-6 -85 -19 -255q-13 -155 -13 -195q0 -67 11 -117q42 52 147 226q40 52 82 111q2 4 9 75t8 108q-5 9 -10 26q1 24 12 48 q6 12 21 33q23 31 38 31q23 0 23 -54q0 -17 -3 -39l-2 -24q-2 -54 -13 -132l-16 -120q-4 -30 -4 -76q0 -119 12 -198q7 8 240 317l106 141q12 16 34 46q86 124 122 124q10 0 10 -15q0 -22 -12 -49z" />
<glyph unicode="X" horiz-adv-x="541" d="M586 77q-6 -15 -25 -38q-24 -30 -37 -30q-11 0 -14 14q-9 39 -30 116q-12 25 -33 75q-11 39 -31 117q-119 -116 -177 -186q-31 -37 -58 -73q-10 -12 -26.5 -34t-32.5 -44q-31 -39 -47 -39q-12 0 -12 17q0 22 12 47.5t47 71.5q43 57 132 166q34 39 93 98q51 51 51 52 q1 2 -8 34q-10 38 -12 53l-6 96q-7 83 -7 74q0 33 16 67q31 66 60 66q12 0 12 -8q-1 -14 -1 -39q6 -65 12.5 -129.5t22.5 -116.5q1 0 3 2q53 57 138 143q32 32 84 76q86 72 112 72q15 0 15 -19q0 -21 -12 -46q-17 -36 -39 -54q-5 -4 -30 -14q-19 -8 -130.5 -111.5 t-120.5 -123.5q-1 -3 8 -42q9 -42 21 -70q8 -16 21 -44q9 -29 27 -91q14 -46 14 -61q0 -20 -12 -44z" />
<glyph unicode="Y" horiz-adv-x="585" d="M976 733q-15 -33 -38 -52l-58 -40q-8 -9 -27 -28q-28 -23 -82 -74q-35 -38 -108 -113q-87 -81 -254 -246q-33 -34 -62 -79q-18 -29 -36 -59q-35 -52 -55 -52q-13 0 -13 17q0 22 13 50q5 10 27 42q13 23 39 64q5 8 64 82q14 18 28 34q45 41 92 89q1 2 -50 99 q-61 115 -85 197q-3 11 -3 21q0 19 13 47q6 12 22 34q23 31 37 31q8 0 26 -54q22 -66 57 -136l42 -70q29 -50 30 -81q40 34 92 87q29 32 84 89q44 41 128 121q7 7 37.5 25.5t38.5 18.5q12 0 12 -17q0 -23 -11 -47z" />
<glyph unicode="Z" horiz-adv-x="704" d="M773 78q-5 -11 -23 -35q-24 -32 -36 -32h-460q-3 0 -89 -12t-89 -12h-24q-8 4 -8 19q0 24 12.5 50.5t72.5 96.5q14 11 45 41.5t97 91.5q21 15 64 46q11 10 32 29l187 146q5 3 205 150h-118q-3 0 -80 -8.5t-81 -8.5q-19 0 -19 21q0 18 13 46q8 18 24 38.5t25 24.5t32 6 q36 5 94 8q7 0 32.5 4t27.5 4h138q2 0 17.5 3t22.5 4q14 1 71 1h22q15 1 21 1q42 0 42 -26q0 -17 -14 -46q-21 -45 -59 -66q-56 -29 -111 -58q-40 -23 -102 -56q-33 -17 -80 -52q-162 -118 -334 -255q-10 -10 -32 -29q-28 -18 -103 -81q21 2 66 8q42 6 44 6h453q13 0 13 -19 q0 -26 -11 -49z" />
<glyph unicode="[" horiz-adv-x="228" d="M570 736q-7 -15 -22 -34q-19 -26 -33 -28q-2 -1 -77 -1q-53 -99 -57 -108l-44 -93q-26 -48 -55 -101l-116 -249q1 0 1 -1t4 -1q2 0 46 15t47 15q13 0 13 -17q0 -21 -12 -47q-16 -33 -35 -50q-11 -10 -61 -24l-31 -12q-19 -7 -35 -7q-20 0 -22 13q-1 5 3 38q4 37 10 50 l122 261q1 3 28 52.5t28 52.5l42 89l48 90q16 32 31 64q19 37 40 64q19 24 34 29q10 4 57 4q66 0 35 2q23 -2 23 -19q0 -22 -12 -47z" />
<glyph unicode="\" horiz-adv-x="291" d="M319 63q-8 -17 -24 -38q-23 -31 -38 -31q-17 0 -17 31q0 16 8 57q11 50 31 118q16 54 29 119q33 175 53 334q1 4 -6.5 10.5t-7.5 13.5q-1 23 13 53q32 67 64 67q27 0 27 -44q0 -14 -4 -40q-7 -41 -21 -122q-10 -66 -20 -133q-13 -87 -25 -131q-17 -60 -41 -151 q-7 -25 -8 -61q-2 -27 -13 -52z" />
<glyph unicode="]" horiz-adv-x="264" d="M323 176q-8 -12 -23 -36q-16 -33 -51 -99q-21 -36 -43 -44q-9 -3 -67 -3h-57q-9 3 -9 18q0 21 14 50q7 16 28 42q27 34 42 34q6 0 13 -13h61q5 12 21 38.5t17 28.5l138 296q10 21 62 175q-9 -2 -44 -15q-29 -11 -32 -11q-11 0 -11 17q0 24 12 49q16 35 39 55q12 11 55 25 t62 14q21 0 21 -13q0 -19 -26 -88q-18 -45 -36 -91q-22 -63 -47 -132z" />
<glyph unicode="^" horiz-adv-x="362" d="M632 596q-7 -15 -21 -32q-17 -21 -29 -21q-8 0 -17 26q-8 21 -24 118q-32 -21 -93 -60q-5 -3 -83 -57q-66 -46 -71 -46q-10 0 -10 14q0 19 10 40q15 34 34 47q75 53 223 155q31 20 42 20q14 0 17 -12q4 -35 16 -104q6 -10 14 -28q10 -23 -8 -60z" />
<glyph unicode="_" horiz-adv-x="285" d="M283 23q-26 -55 -49 -56q-34 -1 -109 -4q-68 -3 -69 -3q-49 0 -57 2q-24 4 -24 23q0 13 11 36q27 57 52 57q2 0 9 -2.5t10 -3.5h51q3 0 73.5 3t73.5 3h30q8 -2 8 -14q0 -18 -10 -41z" />
<glyph unicode="`" horiz-adv-x="161" d="M466 629q-33 -69 -64 -69q-21 0 -21 45v7q0 13 -2 17q-12 34 -12 42q1 21 15 51q32 70 63 70q19 0 27 -61q4 -17 8 -50q1 -19 -14 -52z" />
<glyph unicode="a" horiz-adv-x="439" d="M435 42q-6 -13 -23 -31q-20 -21 -31 -21q-13 0 -13 21q0 17 6 29l54 117q4 8 80 186q-73 -6 -163 -45q-94 -41 -136 -91q-29 -33 -93 -170q-17 -36 -33 -93q-3 -11 0 -25q6 -32 -12 -69q-7 -16 -23 -37q-22 -29 -36 -29q-16 0 -16 42q0 25 4 47q11 62 60 168 q115 247 296 466q47 57 129 126q47 39 123 85q35 22 87 49.5t57 27.5q11 0 11 -18q0 -32 -16 -66zM651 641q-83 -39 -155 -93q-76 -57 -143 -136q-3 -1 -8 -9l-4 -8q58 33 126 54q62 19 101 19q8 18 83 173z" />
<glyph unicode="b" horiz-adv-x="530" d="M648 271q-29 -62 -97 -126q-77 -72 -159 -101t-88 -31q-36 -10 -74 -10q-73 0 -101 23q-10 -9 -19 -18q-18 -16 -25 -16q-16 0 -13 27q5 39 45 127l209 453q7 22 16 50q9 15 26 44.5t32 58.5q33 56 52 56q14 0 14 -21t-2 -21q2 0 22.5 9.5t28.5 12.5q38 15 83 15 q99 0 99 -66q0 -29 -18 -68q-32 -69 -91 -116q9 -3 29 -9q69 -23 69 -117q0 -75 -38 -156zM597 658q-34 11 -62 11q-63 0 -137 -45q-44 -96 -43 -99q48 9 124 51t118 82zM590 282q3 6 6 45q8 95 -129 95q-67 0 -175 -37l-103 -222q42 -27 104 -27q47 0 107 22q50 18 85 34 q29 14 63.5 44t41.5 46z" />
<glyph unicode="c" horiz-adv-x="530" d="M652 221q-18 -39 -63 -86q-63 -66 -152 -106q-79 -35 -144 -37q-3 0 -14.5 -2.5t-15.5 -2.5q-17 0 -41 10q-73 28 -73 132q0 114 75 274q55 118 172 242q154 163 286 163q45 0 75 -17q36 -19 36 -56q0 -21 -12 -47q-7 -16 -23 -36q-23 -28 -38 -28q-3 0 -15 16t-17 20 q-18 14 -69 14q-97 0 -207 -107q-88 -85 -129 -172q-46 -99 -46 -164q0 -51 26 -86q5 -7 24 -15q25 -9 37 -9q3 0 14.5 2t16.5 2q60 5 122 31q80 34 130 93q9 12 19 24q18 21 30 21q13 0 13 -16q0 -22 -17 -57z" />
<glyph unicode="d" horiz-adv-x="593" d="M785 427q-92 -197 -268 -303q-45 -28 -135 -79q-52 -26 -131 -43q-15 -3 -83 -3q-2 0 -11 -4t-12 -4q-10 0 -10 16q0 35 38 117l44 95q1 3 5.5 18t6.5 18l42 90q7 16 60 148q57 143 53 143t-31.5 -17.5t-38.5 -17.5t-11 18q0 23 10 44q20 42 59 68q29 20 99 48q5 0 16 1 q91 27 178 27q103 0 138 -60q15 -17 37 -56q11 -33 7 -63q-11 -92 -62 -201zM728 430q12 25 25 72q8 27 9 50q0 17 -4 26q-30 64 -68 85q-28 16 -87 16q-80 0 -148 -20q-55 -138 -167 -412q-42 -99 -55 -119h63q4 0 17.5 4t15.5 5q62 12 153.5 63.5t164.5 116.5 q50 45 81 113z" />
<glyph unicode="e" horiz-adv-x="649" d="M762 228q-19 -39 -43.5 -61t-92.5 -62l-76 -46q-49 -27 -85 -38q-130 -39 -182 -39q-34 0 -68 16.5t-48 39.5q-32 56 -35 84q-1 11 -1 23q0 149 143 339q129 171 270 252q112 64 174 64q18 0 59 -10q89 -21 89 -65q0 -18 -11 -43q-8 -16 -24 -36q-22 -27 -37 -27 q-3 0 -12.5 9t-13.5 11q-58 29 -110 29q-64 0 -161.5 -62.5t-176.5 -149.5q0 -1 -0.5 -1t0.5 -1h4q-5 0 74 27q234 81 419 81q50 0 59 -3q5 -2 5 -12q0 -25 -12 -50q-7 -16 -24 -37q-23 -29 -37 -29h-108q-54 0 -164 -25q-85 -19 -135 -36q-62 -20 -168 -62q-15 -30 -15 -63 q0 -51 31 -87q4 -8 15 -21q29 -24 80 -24q31 0 76 11q4 1 85 23q35 10 111 53q65 37 103 65l18 18q16 16 25 16q13 0 13 -18q0 -23 -13 -53z" />
<glyph unicode="f" horiz-adv-x="440" d="M705 500q-8 -17 -24 -37q-20 -25 -36 -27l-31 -2q-22 -4 -65 -8q-78 -3 -120 -7q-75 -8 -146 -29l-84 -181q-27 -69 -57 -145q-8 -16 -27 -41q-26 -34 -43 -34q-11 0 -11 19q0 20 5 31l48 101q3 12 10 34q126 279 215 461q7 13 22 39q55 98 81 98q3 0 7 -7.5t7 -7.5 q2 0 66.5 12.5t78.5 14.5q40 5 73 6h47q6 1 23 5.5t20 4.5q15 0 15 -18q0 -19 -14 -48q-6 -13 -11 -25q-8 -13 -29 -31q-16 -13 -64 -18q-28 1 -85 -1q-51 -9 -155 -26q-14 -2 -25 -8q-18 -33 -50 -102l1 -1q79 20 120 24q170 19 225 19q15 0 20 -3t5 -14q0 -22 -12 -48z " />
<glyph unicode="g" horiz-adv-x="605" d="M819 482q-7 -15 -23 -36q-20 -26 -34 -32q-18 -7 -52 -21q-19 -64 -50 -131l-28 -60q-20 -38 -46 -66q-53 -57 -153 -102q-94 -42 -153 -42q-103 0 -127 82q-8 21 -18 62q-1 10 -1 21q0 65 52 177q23 51 93 155q68 99 90 121q26 25 80 73q20 16 72 46t75 38 q116 43 153 43q84 0 84 -52q0 -19 -12 -45q-9 -19 -26 -40q-22 -28 -36 -28q-3 0 -13.5 9.5t-15.5 11.5q-15 6 -45 6q-28 0 -95 -24q-60 -21 -80 -34q-28 -15 -81 -49q-37 -28 -65 -59q-22 -24 -63.5 -88.5t-58.5 -102.5q-20 -41 -20 -70q0 -43 47 -96q6 -6 31.5 -12.5 t43.5 -6.5q54 0 142 42q18 7 36 15q25 11 41 26q21 20 46 73q8 19 22 76q-34 -14 -126 -56q-79 -36 -82 -36q-12 0 -12 19q0 25 11 47q4 10 20.5 33t24.5 28q41 26 65 37q277 117 286 117q13 0 13 -18q0 -25 -12 -51z" />
<glyph unicode="h" horiz-adv-x="507" d="M515 65q-8 -17 -26 -41q-27 -35 -44 -35q-10 0 -13 13q-2 12 3 24q27 79 50 127l57 123q10 25 33 81q-56 -6 -156 -13q-76 0 -155 -22q-22 -54 -48 -114l-56 -122q-1 -2 -4.5 -15t-6.5 -19q-9 -21 -27 -43q-24 -31 -43 -31q-13 0 -13 22q0 20 5 32l59 126q2 3 11 28.5 t11 29.5l161 345q1 4 29.5 76t29.5 76q36 75 67 75q13 0 13 -18q0 -25 -41 -123q-7 -20 -17 -47l-64 -136q50 9 154 19q33 1 146 15q1 0 6 4l110 235q7 15 30 45q30 39 46 39q13 0 13 -16q0 -26 -25 -73q-66 -128 -142 -305q-22 -55 -47 -118l-58 -124q-2 -3 -24 -60 t-24 -60z" />
<glyph unicode="i" horiz-adv-x="165" d="M280 313q-1 -3 -12 -17.5t-13 -17.5l-107 -230q-6 -13 -24 -34q-23 -25 -37 -25q-11 0 -11 21q0 25 7 41l116 248q2 3 13 18t12 19l139 298q2 3 13 42t13 42q35 75 66 75q11 0 11 -21q0 -26 -17 -81q-12 -42 -18 -54z" />
<glyph unicode="j" horiz-adv-x="490" d="M582 220q-16 -34 -17 -35q-12 -23 -36 -55q-3 -4 -45 -45q-49 -49 -91 -63q-92 -31 -171 -31q-138 0 -138 96q0 41 26 98q55 117 168 165q15 6 50 6q34 0 61 -14q4 -2 4 -12q0 -23 -11 -48q-10 -21 -26 -39q-22 -26 -41 -26q-3 0 -24.5 5t-24.5 5q-15 0 -33 -3 q-6 -1 -33.5 -18.5t-30.5 -24.5q-3 -6 5.5 -22t12.5 -19q12 -10 24 -13q35 -8 71 -8q61 0 117 15q95 26 124 88q6 21 19 62q28 85 49 186q33 157 39 180h-30q-2 0 -23.5 -5t-25.5 -5q-13 0 -13 17q0 18 13 47q9 20 13 25q7 11 27 31q2 2 13 7q21 5 55 10q69 7 128 15 q11 2 39 1q4 -5 4 -15q0 -21 -13 -47q-19 -43 -39 -55q-13 -9 -36 -10q-30 -3 -46 -7q-8 -52 -30 -153l-34 -132q-30 -112 -50 -154z" />
<glyph unicode="k" horiz-adv-x="430" d="M459 55q-30 -64 -59 -64q-13 0 -20 35q-2 18 -5 36q-7 44 -7 111q0 36 3 107q3 67 3 98q0 2 -3 11.5t-3 15.5q-46 -41 -138 -110q-3 -4 -10 -15l-46 -99q-1 -3 -24.5 -61t-24.5 -61q-33 -71 -62 -71q-11 0 -11 20q0 31 11 55l41 88q2 3 16.5 39t15.5 39t24.5 47.5 t24.5 46.5l63 136q33 70 84 163q85 152 112 152q12 0 12 -16q0 -21 -15 -52q-1 -4 -35.5 -61.5t-36.5 -61.5q-25 -53 -66 -140q71 58 135 116q72 64 219 194q13 13 26 25q18 16 28 16q11 0 11 -16q0 -23 -11 -47q-18 -37 -54 -70q-97 -85 -197 -176q-1 -3 -3 -68 q-2 -136 -2 -157q2 -90 18 -156q3 -13 -14 -49z" />
<glyph unicode="l" horiz-adv-x="455" d="M566 183q-16 -35 -41 -57q-7 -7 -39 -18q-59 -19 -131 -45q-47 -21 -95 -42q-73 -32 -93 -32q-33 0 -33 42q0 19 9 58q3 15 10 45q5 22 56 153q25 68 78 202q20 59 78 200q51 108 81 108q5 0 9 -7t4 -12q0 -21 -14 -52q-11 -24 -22 -47q-59 -148 -173 -446 q-10 -25 -16 -58q0 -2 -4.5 -17.5t-4.5 -22.5q0 -6 2 -10q7 0 10 1q67 27 133 55q76 30 143 52q57 18 53 18q12 0 12 -18q0 -25 -12 -50z" />
<glyph unicode="m" horiz-adv-x="648" d="M643 40q-4 -9 -21 -28q-22 -24 -33 -24q-10 0 -10 22q0 30 6 43l124 267q7 13 26 44l99 215q-40 -51 -120 -154q-58 -69 -162 -200l-70 -104q-44 -65 -79 -94q-8 -12 -17 -23q-17 -22 -31 -22q-10 0 -12 19q0 -1 7 42q-1 12 -1 38q13 74 34 218q16 146 9 295 q-25 -59 -52 -124l-55 -116q-1 -4 -51 -127t-51 -126q-36 -77 -66 -77q-11 0 -11 16q0 19 14 54q7 22 32 82l221 525q45 96 74 96q6 0 13 -18q6 -1 13 -6q5 -22 4 -92q3 -69 -3 -247q-5 -52 -17 -136q-19 -124 -21 -138q2 0 7 4q27 42 91 131q61 75 187 234q32 43 135 167 q22 27 45 54q43 47 59 47q10 0 10 -16q0 -39 -37 -118z" />
<glyph unicode="n" horiz-adv-x="528" d="M532 55q-8 -18 -23 -38q-21 -28 -36 -28q-8 0 -10 6q1 13 0 32q-18 76 -21 116q-4 30 -10 114q-4 11 -10 35q-11 64 -31 163q-17 62 -18 118q-42 -99 -87 -205l-76 -161q-11 -24 -29 -76q-6 -23 -15 -53q-33 -69 -61 -69q-12 0 -12 19q0 52 43 144l61 130q1 3 15 38 t16 38l49 106q1 3 23.5 61.5t23.5 61.5l43 93q2 2 5.5 16t5.5 18q7 15 22 35q22 28 37 28q10 0 11 -8q-1 -12 -2 -35q4 -4 8 -13q-1 -37 5 -110q7 -45 28 -133.5t28 -136.5q4 -54 15 -163q9 23 20 52l62 133q2 3 65 149t64 149q53 114 82 114q14 0 14 -17q0 -7 -4 -17 q-52 -141 -131 -310l-80 -171q-1 -3 -4 -15t-5 -15l-55 -119q-2 -3 -13 -38t-13 -38z" />
<glyph unicode="o" horiz-adv-x="707" d="M915 469q-12 -28 -40 -77q-73 -103 -110 -147q-84 -99 -167 -145q-13 -8 -41 -25q-83 -48 -132 -66q-54 -20 -108 -20q-182 0 -182 176q0 22 3 47.5t40 103.5q41 89 109 181q80 106 167 174l64 54q45 37 79 51q78 34 189 34q179 0 179 -159q0 -32 -7 -70q-6 -33 -43 -112 zM850 465q23 49 23 91q0 53 -35 84t-101 31q-21 0 -24 -1l-19 -7q-3 0 -8 1.5t-8 1.5q-21 0 -55.5 -15t-33.5 -15q-3 0 -8.5 7t-8.5 7q-27 0 -126 -84q-81 -70 -99 -91q-70 -85 -104 -157q-8 -15 -16 -37q-6 -154 156 -154q74 0 175 57q109 60 147 94q7 6 59 65q24 27 41 52 q42 63 45 70z" />
<glyph unicode="p" horiz-adv-x="467" d="M741 553q-63 -134 -221 -217q-24 -13 -86 -31q-105 -30 -146 -30q-24 0 -56 12q-19 -41 -54 -125q-17 -39 -33 -79q-44 -94 -71 -94q-10 0 -12 12q-2 10 2 20q74 185 83 206l138 295q16 31 40 88q-1 6 -1 19q1 15 13 40q14 31 53 64q10 14 33 42q12 13 23 13q9 0 13 -19 q77 28 133 28q114 0 168 -102q8 -16 10 -36q2 -38 -29 -106zM688 569q0 35 -56 80q-23 18 -51 24q-17 3 -46 3q-52 0 -132 -30q-14 -25 -31 -55l-82 -177q21 -17 55 -17q47 0 149 32q24 8 60 21q35 18 78 52q56 43 56 67z" />
<glyph unicode="q" horiz-adv-x="736" d="M918 424q-43 -92 -117 -182q-24 -29 -72 -86q-22 -20 -45 -45q-3 -6 20 -20q7 -4 6 -16q-3 -26 -14 -50q-9 -19 -24 -39q-24 -32 -42 -32q-21 0 -34 33l-20 56q-26 -14 -56 -22q-77 -20 -107 -20q-3 0 -42 -1.5t-43 -1.5q-80 0 -115 29q-30 23 -44 68q-14 42 -11 86 q7 100 55 202q43 93 72 124q115 124 224 203q141 101 238 101q17 0 49 -9q1 -5 8 -12q20 -1 60 -7q100 -27 100 -162q0 -98 -46 -197zM850 420q23 48 23 99q0 56 -30 91q-32 39 -95 39h-119q0 -29 -1 -94q-2 -74 -2 -109q0 -166 34 -246q33 14 99.5 91.5t90.5 128.5z M546 154q-14 99 -14 218q0 46 3 109q3 83 3 90q3 20 8 56q-93 -45 -242 -197q-12 -12 -29 -48q-23 -50 -23 -111q0 -77 40 -109q29 -23 102 -23q3 0 41.5 1.5t42.5 1.5q22 0 68 12z" />
<glyph unicode="r" horiz-adv-x="505" d="M525 41q-31 -66 -63 -66q-13 0 -69 60q-87 94 -135 196q-2 6 -29 16l-90 -194q-5 -9 -22 -28q-20 -22 -31 -22q-12 0 -12 20t6 31l88 189q1 3 75.5 174t76.5 174q45 97 50 107q38 71 62 71q4 0 8.5 -7t4.5 -12q76 47 163 47q19 0 74 -23q79 -33 79 -113q0 -52 -32 -122 q-72 -153 -286 -250q-23 -10 -58 -20q25 -37 83 -104q25 -21 68 -69q3 -3 -1.5 -23t-9.5 -32zM675 569q0 38 -53 69q-44 27 -79 27q-69 0 -109 -25q-44 -27 -49 -36q-27 -56 -67 -151q-10 -24 -30 -66l-6 -5h61q23 -1 91 16q35 9 63 24q35 20 99 55q18 10 43 33t30.5 35 t5.5 24z" />
<glyph unicode="s" horiz-adv-x="663" d="M791 298q-24 -51 -121 -155q-55 -58 -137 -105q-77 -44 -141 -59q-26 -5 -79 -5h-38q-7 1 -49 13q-2 1 -37 27q-49 37 -65 72q-6 13 -6 34q0 55 27 115q27 56 83.5 98.5t102.5 42.5q24 0 24 -22q0 -16 -13 -44q-29 -61 -58 -65q-18 -1 -53 -10q-11 -6 -26 -18 q8 -56 99 -103q17 -8 73 -8q52 0 73 6t111 48q75 35 123 91q20 19 46 50q1 10 5 27q5 13 5 27q0 42 -36 73q-17 13 -71 13q-26 0 -91 -10t-71 -10q-101 0 -101 82q0 36 21 80q44 94 130 154t180 60q96 0 96 -53q0 -21 -13 -49q-7 -15 -24 -37q-23 -30 -37 -30 q-2 0 -11.5 13.5t-19.5 17.5q-16 6 -51 6q-27 0 -34 -1q-21 -3 -72 -21q-6 -2 -37 -21q-34 -21 -37 -29q-1 -2 -1 -5q0 -9 12 -18.5t18 -10.5q41 -6 43 -6t68 10.5t96 10.5q33 0 38 -1q17 -2 40 -15t37 -45.5t14 -68.5q0 -20 -3.5 -36.5t-10 -46.5t-21.5 -63z" />
<glyph unicode="t" horiz-adv-x="505" d="M882 731q-9 -19 -26 -40q-24 -28 -43 -28h-177q-133 -237 -158 -291l-156 -334q-4 -9 -21 -28q-21 -24 -32 -24t-11 20t5 30l186 399q40 73 123 225q-42 -1 -148 -14q-15 -2 -56 -8q-35 -6 -38 -6q-14 0 -22 1q-3 2 -5.5 7.5t-2.5 11.5q0 14 13 44q11 23 14 27 q10 14 32 32q3 3 123 20q126 17 155 17h226q3 0 7.5 2.5t8.5 2.5q15 0 15 -20t-12 -46z" />
<glyph unicode="u" horiz-adv-x="534" d="M581 125q-46 -98 -75 -98q-10 0 -10 16q0 12 5 27q1 2 0 6q-38 -38 -97 -58q-45 -16 -85 -17q-4 0 -25.5 -3t-25.5 -3q-34 0 -69 20q-40 22 -43 54q-4 47 -3 57q11 70 30 127q54 159 106 270q32 69 97 204q8 15 30 45q32 44 48 44q8 0 9 -15q2 -12 -1 -20q-3 -11 -12 -32 q-14 -24 -32 -54l-110 -236q-33 -71 -59 -159q-23 -80 -23 -122q1 -26 34 -43q29 -15 56 -15q26 0 79 8q39 6 84 29q9 5 31 27q19 18 33 21l38 83q9 29 28 86q35 92 116 285q63 135 93 135q11 0 11 -19t-6 -31l-71 -152q-11 -32 -32 -88q-16 -40 -49 -125q-13 -40 -29 -86 l-43 -94q-1 -7 -6 -26q-4 -11 -22 -48z" />
<glyph unicode="v" horiz-adv-x="525" d="M832 635q-61 -64 -62 -66q-38 -54 -77 -98q-79 -89 -156 -189q-112 -144 -123 -159q-56 -69 -102 -105q-9 -9 -17.5 -17t-19.5 -8t-11 24q0 15 7 52q0 20 3 54q14 102 46 319q8 69 17 137q17 129 28 153q7 14 22 34q22 30 36 30q12 0 10 -35q-5 -38 -16 -113 q-6 -50 -61 -436q-4 -33 -1 -68q15 15 103 127q72 93 235 289q11 12 49 64q14 19 74 85q73 80 88 80q10 0 10 -15q0 -18 -14 -50t-68 -89z" />
<glyph unicode="w" horiz-adv-x="839" d="M1234 718q-7 -13 -24 -33q-29 -32 -40 -46q-122 -153 -396 -525q-1 -1 -21 -35q-8 -14 -37 -49q-39 -45 -55 -45q-11 0 -11 16q0 5 1.5 16t1.5 14q-15 112 -15 217q0 60 5 115q-23 -28 -53 -80q-40 -67 -52 -85q-50 -76 -89 -131q-14 -13 -35 -31q-11 -13 -22.5 -26 t-26.5 -13q-16 0 -22 38q-1 21 -2 41q-4 46 -4 96q0 67 9 185q11 142 14 206q4 97 33 159q7 15 22 37q23 31 38 31q6 0 9 -11t2 -15q-5 -20 -13 -58q-6 -85 -19 -255q-13 -155 -13 -195q0 -67 11 -117q42 52 147 226q40 52 82 111q2 4 9 75t8 108q-5 9 -10 26q1 24 12 48 q6 12 21 33q23 31 38 31q23 0 23 -54q0 -17 -3 -39l-2 -24q-2 -54 -13 -132l-16 -120q-4 -30 -4 -76q0 -119 12 -198q7 8 240 317l106 141q12 16 34 46q86 124 122 124q10 0 10 -15q0 -22 -12 -49z" />
<glyph unicode="x" horiz-adv-x="541" d="M586 77q-6 -15 -25 -38q-24 -30 -37 -30q-11 0 -14 14q-9 39 -30 116q-12 25 -33 75q-11 39 -31 117q-119 -116 -177 -186q-31 -37 -58 -73q-10 -12 -26.5 -34t-32.5 -44q-31 -39 -47 -39q-12 0 -12 17q0 22 12 47.5t47 71.5q43 57 132 166q34 39 93 98q51 51 51 52 q1 2 -8 34q-10 37 -12 53l-6 96q-7 83 -7 74q0 33 16 67q31 66 60 66q12 0 12 -8q-1 -14 -1 -39q6 -65 12.5 -129.5t22.5 -116.5q1 0 3 2q53 57 138 143q32 32 84 76q86 72 112 72q15 0 15 -19q0 -21 -12 -46q-17 -36 -39 -54q-5 -4 -30 -14q-19 -8 -130.5 -111.5 t-120.5 -123.5q-1 -3 8 -42q9 -42 21 -70q8 -16 21 -44q9 -29 27 -91q14 -46 14 -61q0 -20 -12 -44z" />
<glyph unicode="y" horiz-adv-x="585" d="M976 733q-15 -33 -38 -52l-58 -40q-8 -9 -27 -28q-28 -23 -82 -74q-35 -38 -108 -113q-87 -81 -254 -246q-33 -34 -62 -79q-18 -29 -36 -59q-35 -52 -55 -52q-13 0 -13 17q0 22 13 50q5 10 27 42q13 23 39 64q5 8 64 82q14 18 28 34q45 41 92 89q1 2 -50 99 q-61 115 -85 197q-3 11 -3 21q0 19 13 47q6 12 22 34q23 31 37 31q8 0 26 -54q22 -66 57 -136q21 -35 42 -71q29 -49 30 -80q40 34 92 87q29 32 84 89q44 41 128 121q7 7 37.5 25.5t38.5 18.5q12 0 12 -17q0 -23 -11 -47z" />
<glyph unicode="z" horiz-adv-x="704" d="M773 78q-5 -11 -23 -35q-24 -32 -36 -32h-460q-3 0 -89 -12t-89 -12h-24q-8 4 -8 19q0 24 12.5 50.5t72.5 96.5q14 11 45 41.5t97 91.5q21 15 64 46q11 10 32 29l187 146q5 3 205 150h-118q-3 0 -80 -8.5t-81 -8.5q-19 0 -19 21q0 18 13 46q8 18 24 38.5t25 24.5t32 6 q36 5 94 8q7 0 32.5 4t27.5 4h138q2 0 17.5 3t22.5 4q14 1 71 1h22q15 1 21 1q42 0 42 -26q0 -17 -14 -46q-21 -45 -59 -66q-56 -29 -111 -58q-40 -23 -102 -56q-33 -17 -80 -52q-162 -118 -334 -255q-10 -10 -32 -29q-28 -18 -103 -81q21 2 66 8q42 6 44 6h453q13 0 13 -19 q0 -26 -11 -49z" />
<glyph unicode="{" horiz-adv-x="267" d="M515 569q-6 -12 -22 -33q-19 -26 -28 -29h-17q-9 22 -12 59q-2 31 -5 61q-6 17 -16 54q-3 18 13 53q31 66 60 66q8 0 14 -18q20 -62 18 -120q4 -16 8 -46q-2 -21 -13 -47zM399 376q-7 -16 -23 -36q-21 -29 -34 -29h-94q-3 0 -14.5 -4t-14.5 -4q-13 0 -13 17q0 19 14 48 q24 52 56 65q19 8 79 8q34 0 44 -3q14 -4 14 -17q0 -14 -14 -45zM360 222q-14 -30 -36 -53q-15 -13 -52 -43q-43 -38 -132 -110q-9 -12 -30 -33q-21 -16 -38 -16q-13 0 -13 18q0 23 12 48q16 35 40 56q31 24 96 74l86 74q57 48 68 48t11 -16q0 -22 -12 -47z" />
<glyph unicode="|" horiz-adv-x="181" d="M305 313q-1 -3 -12 -17.5t-13 -17.5l-107 -230q-6 -13 -24 -34q-23 -25 -37 -25q-11 0 -11 21q0 25 7 41l116 248q2 3 13 18t12 19l139 298q2 3 13 42t13 42q35 75 66 75q11 0 11 -21q0 -26 -17 -81q-12 -42 -18 -54z" />
<glyph unicode="}" horiz-adv-x="276" d="M607 724q-31 -67 -83 -84q-14 -5 -79 -50q-27 -20 -53 -41q-52 -40 -60 -40q-13 0 -13 18q0 25 13 52q15 32 32.5 49t101.5 80q19 14 76 51q62 38 68 38q12 0 12 -17q0 -23 -15 -56zM427 338q-32 -69 -63 -69q-3 0 -24 3t-25 3q-3 0 -41.5 -4t-41.5 -4q-15 0 -15 20 q0 21 12 48q7 15 25 38.5t28 26.5q35 12 103 12q58 0 58 -26q0 -15 -16 -48zM273 24q-33 -70 -63 -70q-9 0 -35 68t-28 100q-2 16 14 49q8 17 23 38q23 31 40 31q10 0 16 -22q3 -13 6 -27q3 -10 11.5 -29.5t18.5 -38.5q13 -25 13 -42q0 -5 -1 -9q-6 -28 -15 -48z" />
<glyph unicode="~" horiz-adv-x="383" d="M686 702q-33 -71 -120 -101q-2 -1 -31 -1q-37 0 -59.5 8t-35.5 8q-39 0 -61.5 -27.5t-36.5 -27.5t-14 19q0 24 17 61q23 50 67.5 83t91.5 33q7 0 36.5 -8t57.5 -8h27q9 4 34 20q22 13 26 13q14 0 14 -19q0 -25 -13 -53z" />
<glyph unicode="&#xa9;" horiz-adv-x="724" d="M875 428q-43 -92 -105 -168q-8 -14 -29 -41q-96 -100 -180 -131q-16 -9 -56 -23q-55 -14 -102 -14q-2 0 -20.5 3t-30.5 4q-55 3 -95 43q-44 44 -44 110q0 22 1 65q4 105 35 172q38 81 124 178q20 22 88 79q13 10 66 36q17 7 50 21q77 35 117 35q24 0 30 -3q10 -4 23 -6 q2 -3 10 -6q22 -2 105 -27q11 -3 43 -24q6 -4 8 -21q2 -21 3 -22q12 -31 12 -67q0 -32 -15 -98q-6 -27 -38 -95zM840 490q3 15 3 74q0 3 -3.5 8.5t-3.5 7.5q0 14 -7 35q-16 14 -42 21q-37 10 -47 14q-40 17 -75 17q-4 0 -16.5 -2.5t-15.5 -2.5q-4 0 -9 5.5t-8 5.5 q-10 0 -78 -30q-27 -11 -56 -23.5t-45 -25.5q-95 -75 -127 -143q-9 -20 -12 -61q-2 -24 -3 -49q-5 -70 22 -107q44 -59 144 -59q135 0 242 98q11 9 29 25q6 6 21 30q15 17 36 46q4 6 25.5 52t25.5 64zM616 336l-12.5 -25t-42.5 -40.5t-51 -25.5q-51 0 -75 -1t-18 -1 q-22 0 -34 29q-10 23 -10 54q0 13 2 21q6 19 23 55q30 64 62 101q46 53 119 82q2 1 44 1q41 0 43 -1q30 -16 30 -47q0 -19 -12 -44q-7 -15 -21 -34q-21 -28 -35 -28q-2 0 -14 14.5t-19 17.5h-29.5h-28.5q-79 -32 -79 -69q0 -22 17 -27q3 -1 42 -1t42 1q8 2 33 16 q22 13 25 13q13 0 13 -15q0 -17 -14 -46z" />
<glyph unicode="&#xad;" d="M498 378q-28 -61 -61 -61q-3 0 -35.5 3.5t-35.5 3.5t-40 -2.5t-40 -2.5q-46 0 -46 25q0 15 13 42q6 13 22.5 34.5t22.5 22.5q69 5 126 5q-6 0 53 -4q11 0 29 -6q5 -5 5 -15q0 -17 -13 -45z" />
<glyph unicode="&#xae;" horiz-adv-x="612" d="M697 311.5q-35 -54.5 -57 -79.5q-28 -32 -90 -67q-56 -32 -86 -38q-13 -7 -36 -16q-40 -8 -62 -17q-7 -2 -36 -2q-33 0 -70 7q-7 2 -19 16q-18 21 -19 22q-37 35 -37 97q0 25 6 51q3 18 12 58q7 21 38 88q14 32 45 90q7 11 63 84q24 32 90.5 76t95.5 48q6 1 19.5 7.5 t17.5 6.5q2 0 9 -1t10 -1h12q35 29 62 29q33 0 77 -42q5 -6 10 -20q6 -20 7 -23q30 -65 29 -125q0 -6 -14 -75q-4 -22 -9 -43q-3 -12 -18 -44t-50 -86.5zM693 396q11 22 17 70q2 8 5 19q1 59 -41 139q-7 6 -19 16q-17 19 -30 19h-15q-15 -24 -28 -26q-22 2 -64 -1 q-11 -3 -52 -20q-6 -4 -19 -13q-6 -1 -17 -6q-30 -21 -48 -35q-32 -27 -42 -47q-8 -8 -19 -24q-4 -7 -27 -56q-9 -19 -18 -37q-10 -25 -14 -49q-7 -59 3 -75q34 -51 51 -59.5t65 -8.5q22 0 30 2q45 13 57.5 17.5t33.5 13.5q83 24 131 69q31 30 60 92zM529 326 q-18 -37 -36 -37q-3 0 -33 12q-15 7 -60 50q-2 -8 -7.5 -25t-11.5 -27q-11 -19 -26 -29h-11q-3 29 3 42l49 105q-1 6 1 17q2 5 16 36q28 59 44 59q7 0 7 -9q37 20 48 23q3 1 27 1q22 0 28 -1.5t10 -15t1 -21.5q-4 -11 -10 -22q-27 -59 -84 -93q5 -12 27 -17.5t25 -13.5 q3 -11 -7 -34zM513 469h-32q2 0 -37 -20l-9 -21h20z" />
<glyph unicode="&#x2000;" horiz-adv-x="423" />
<glyph unicode="&#x2001;" horiz-adv-x="847" />
<glyph unicode="&#x2002;" horiz-adv-x="423" />
<glyph unicode="&#x2003;" horiz-adv-x="847" />
<glyph unicode="&#x2004;" horiz-adv-x="282" />
<glyph unicode="&#x2005;" horiz-adv-x="211" />
<glyph unicode="&#x2006;" horiz-adv-x="141" />
<glyph unicode="&#x2007;" horiz-adv-x="141" />
<glyph unicode="&#x2008;" horiz-adv-x="105" />
<glyph unicode="&#x2009;" horiz-adv-x="169" />
<glyph unicode="&#x200a;" horiz-adv-x="47" />
<glyph unicode="&#x2010;" d="M498 378q-28 -61 -61 -61q-3 0 -35.5 3.5t-35.5 3.5t-40 -2.5t-40 -2.5q-46 0 -46 25q0 15 13 42q6 13 22.5 34.5t22.5 22.5q69 5 126 5q-6 0 53 -4q11 0 29 -6q5 -5 5 -15q0 -17 -13 -45z" />
<glyph unicode="&#x2011;" d="M498 378q-28 -61 -61 -61q-3 0 -35.5 3.5t-35.5 3.5t-40 -2.5t-40 -2.5q-46 0 -46 25q0 15 13 42q6 13 22.5 34.5t22.5 22.5q69 5 126 5q-6 0 53 -4q11 0 29 -6q5 -5 5 -15q0 -17 -13 -45z" />
<glyph unicode="&#x2012;" d="M498 378q-28 -61 -61 -61q-3 0 -35.5 3.5t-35.5 3.5t-40 -2.5t-40 -2.5q-46 0 -46 25q0 15 13 42q6 13 22.5 34.5t22.5 22.5q69 5 126 5q-6 0 53 -4q11 0 29 -6q5 -5 5 -15q0 -17 -13 -45z" />
<glyph unicode="&#x2013;" horiz-adv-x="582" d="M716 378q-52 -61 -113 -61q-5 0 -65 3.5t-66 3.5q-5 0 -73.5 -2.5t-73.5 -2.5q-85 0 -85 25q0 15 24 42q11 13 41.5 34.5t41.5 22.5q127 5 232 5q-11 0 98 -4q21 0 54 -6q9 -5 9 -15q0 -17 -24 -45z" />
<glyph unicode="&#x2014;" horiz-adv-x="1082" d="M1192 378q-103 -61 -225 -61q-11 0 -131 3.5t-131 3.5t-147.5 -2.5t-147.5 -2.5q-170 0 -170 25q0 15 48 42q22 13 83 34.5t83 22.5q255 5 465 5q-22 0 196 -4q40 0 107 -6q18 -5 18 -15q0 -17 -48 -45z" />
<glyph unicode="&#x202f;" horiz-adv-x="169" />
<glyph unicode="&#x205f;" horiz-adv-x="211" />
<glyph unicode="&#x2122;" horiz-adv-x="676" d="M910 585q-8 -17 -24 -39q-22 -30 -35 -30q-20 0 -10 30q18 44 47 133l-1 4q-34 -24 -100 -77q-8 -11 -26 -31q-5 -5 -18 -10q-4 -9 -18 -23t-24 -14q-3 0 -27 45q-17 31 -33 62l-30 -62q-33 -60 -53 -60q-8 0 -9 14q-2 11 1 19q44 117 55 140q33 72 69 83q1 0 11 7t14 7 q8 0 10 -8q-1 -17 5 -48q11 -24 41 -80q29 41 113 104q21 16 66 45q2 2 19 2q15 0 8 -47q-3 -20 -12 -59q-27 -81 -39 -107zM592 742q-15 -33 -33 -45q-21 -15 -65 -18q-17 -54 -43 -110q-47 -99 -73 -99q-10 0 -10 17q0 20 6 33l50 106q1 2 5.5 17t7.5 22v1v0h-4 q-8 0 -28.5 -10.5t-37.5 -10.5h-16q-4 2 -4 12q0 24 10 43q7 16 23 36q21 25 35 25q3 0 5 -2.5t5 -2.5q2 0 18.5 8.5t23.5 10.5q90 23 124 23q12 0 12 -15q0 -18 -11 -41z" />
<glyph unicode="&#xe000;" horiz-adv-x="795" d="M0 795h795v-795h-795v795z" />
</font>
</defs>
</svg>
