<?xml version="1.0" standalone="no"?>
<!DOCTYPE svg PUBLIC "-//W3C//DTD SVG 1.1//EN" "http://www.w3.org/Graphics/SVG/1.1/DTD/svg11.dtd" >
<svg xmlns="http://www.w3.org/2000/svg">
<metadata></metadata>
<defs>
<font id="capsuularegular" horiz-adv-x="540" >
<font-face units-per-em="1000" ascent="800" descent="-200" />
<missing-glyph horiz-adv-x="200" />
<glyph horiz-adv-x="1000" />
<glyph horiz-adv-x="1000" />
<glyph unicode="&#xd;" horiz-adv-x="200" />
<glyph unicode=" "  horiz-adv-x="200" />
<glyph unicode="&#x09;" horiz-adv-x="200" />
<glyph unicode="&#xa0;" horiz-adv-x="200" />
<glyph unicode="!" horiz-adv-x="170" d="M65 700h40l-10 -550h-20zM50 35q0 14 10.5 24.5t24.5 10.5t24.5 -10.5t10.5 -24.5t-10.5 -24.5t-24.5 -10.5t-24.5 10.5t-10.5 24.5z" />
<glyph unicode="&#x22;" horiz-adv-x="222" d="M50 754h40l-10 -124h-20zM132 754h40l-10 -124h-20z" />
<glyph unicode="#" horiz-adv-x="490" d="M420 390h-86l-19 -80h105v-40h-115l-26 -110h-41l26 110h-80l-26 -110h-41l26 110h-73v40h83l19 80h-102v40h111l27 110h41l-27 -110h80l27 110h41l-27 -110h77v-40zM194 310h80l19 80h-80z" />
<glyph unicode="$" horiz-adv-x="510" d="M90 200q0 -32 11 -60t30.5 -50t46 -36t57.5 -18v328q-31 8 -58.5 23t-47.5 35t-32 46t-12 57q0 39 13.5 72t36.5 57t54 37.5t66 13.5q51 0 94.5 -23.5t71.5 -62.5l-33 -22q-20 27 -49 44.5t-64 22.5v-265q40 -8 73.5 -25.5t58.5 -42.5t39 -57t14 -69q0 -45 -16 -83.5 t-44 -66.5t-65.5 -44t-79.5 -16t-79.5 16t-65.5 44t-44 65.5t-16 79.5h40zM420 205q0 29 -11.5 52.5t-31 42.5t-46 32.5t-56.5 22.5v-319q30 3 56.5 17t46 36.5t31 51.5t11.5 64zM125 525q0 -44 32 -73.5t78 -43.5v255q-48 -7 -79 -44t-31 -94z" />
<glyph unicode="%" horiz-adv-x="473" d="M70 600q0 -27 19 -46t46 -19t46 19t19 46t-19 46t-46 19t-46 -19t-19 -46zM30 600q0 22 8 41t22.5 33t33.5 22.5t41 8.5t41 -8.5t33 -22.5t22.5 -33t8.5 -41t-8.5 -41t-22.5 -33.5t-33 -22.5t-41 -8t-41 8t-33.5 22.5t-22.5 33.5t-8 41zM273 100q0 -27 19 -46t46 -19 t46 19t19 46t-19 46t-46 19t-46 -19t-19 -46zM233 100q0 22 8 41t22.5 33t33.5 22.5t41 8.5t41 -8.5t33 -22.5t22.5 -33t8.5 -41t-8.5 -41t-22.5 -33.5t-33 -22.5t-41 -8t-41 8t-33.5 22.5t-22.5 33.5t-8 41zM132 0l168 700h41l-168 -700h-41z" />
<glyph unicode="&#x26;" horiz-adv-x="616" d="M135 565q0 -42 29 -71t71 -29t71 29t29 71t-29 71t-71 29t-71 -29t-29 -71zM332 389q54 -110 122 -207.5t152 -181.5h-55q-71 74 -132 161q-4 -35 -19.5 -65t-40.5 -52.5t-56.5 -35.5t-67.5 -13q-38 0 -72 14.5t-59 39.5t-39.5 59t-14.5 72q0 36 11 64.5t30 53t44 46 t53 44.5q11 8 22 17t23 20q-29 0 -54 11.5t-43.5 30t-29.5 44t-11 54.5t11 54.5t30 44.5t44.5 30t54.5 11t54.5 -11t44.5 -30t30 -44.5t11 -54.5q0 -26 -9 -49t-24 -41q-34 -38 -67 -66.5t-63 -52.5q-26 -21 -48 -40t-38.5 -39t-26 -43.5t-9.5 -53.5t11.5 -56.5t31 -46 t46 -31t56.5 -11.5t56.5 11.5t46 31t31 46t11.5 56.5q0 16 -2.5 31t-9.5 28q-17 31 -34.5 61t-33.5 62z" />
<glyph unicode="'" horiz-adv-x="140" d="M50 754h40l-10 -124h-20z" />
<glyph unicode="(" horiz-adv-x="261" d="M205 -40q-34 28 -59 70.5t-42 94t-25.5 109t-8.5 116.5q0 58 8.5 116t25.5 109t42 93.5t59 71.5l26 -30q-30 -26 -52.5 -64.5t-38 -86t-23 -101t-7.5 -108.5t7.5 -108.5t23 -101t38 -86.5t52.5 -64z" />
<glyph unicode=")" horiz-adv-x="261" d="M30 -10q30 25 52.5 64t38 86.5t23 101t7.5 108.5t-7.5 108.5t-23 101t-38 86t-52.5 64.5l26 30q34 -29 59 -71.5t42 -93.5t25.5 -109t8.5 -116q0 -59 -8.5 -116.5t-25.5 -109t-42 -94t-59 -70.5z" />
<glyph unicode="*" horiz-adv-x="298" d="M158 631l65 34q7 4 13.5 -2t9 -14.5t1 -16.5t-8.5 -9l-74 -10l53 -51q6 -6 2.5 -13.5t-11 -12.5t-15.5 -6.5t-12 5.5l-32 66l-32 -65q-3 -8 -11.5 -6.5t-16 6.5t-11.5 12.5t2 13.5l53 51l-72 9q-8 1 -10 9.5t1 17.5t9 15t14 2l64 -35l-13 72q-2 8 6 12t17 4t16.5 -4 t6.5 -12z" />
<glyph unicode="+" horiz-adv-x="500" d="M270 480v-140h140v-40h-140v-140h-40v140h-140v40h140v140h40z" />
<glyph unicode="," horiz-adv-x="170" d="M58 13q-6 8 -7 18t3 18.5t12 14.5t19 6q14 0 24.5 -10.5t10.5 -24.5q0 -21 -5.5 -39t-13 -32t-16 -25.5t-15.5 -18.5h-20q15 30 18.5 52.5t-10.5 40.5z" />
<glyph unicode="-" horiz-adv-x="390" d="M320 260h-250v40h250v-40z" />
<glyph unicode="." horiz-adv-x="170" d="M50 35q0 14 10.5 24.5t24.5 10.5t24.5 -10.5t10.5 -24.5t-10.5 -24.5t-24.5 -10.5t-24.5 10.5t-10.5 24.5z" />
<glyph unicode="/" horiz-adv-x="269" d="M30 0l168 700h41l-168 -700h-41z" />
<glyph unicode="0" horiz-adv-x="510" d="M50 495q0 45 16 83.5t44 66.5t65.5 44t79.5 16t79.5 -16t65.5 -44t44 -66.5t16 -83.5v-290q0 -45 -16 -83.5t-44 -66.5t-65.5 -44t-79.5 -16t-79.5 16t-65.5 44t-44 66.5t-16 83.5v290zM420 495q0 37 -13 68.5t-35.5 54t-52.5 35t-64 12.5t-64 -12.5t-52.5 -35t-35.5 -54 t-13 -68.5v-290q0 -37 13 -68.5t35.5 -54t52.5 -35t64 -12.5t64 12.5t52.5 35t35.5 54t13 68.5v290z" />
<glyph unicode="1" horiz-adv-x="240" d="M170 0h-40v660h-60v40h100v-700z" />
<glyph unicode="2" horiz-adv-x="448" d="M398 535q0 -33 -11 -62.5t-30 -56.5t-43 -52t-51 -49h1q-28 -26 -56 -53.5t-52 -60.5t-41 -72.5t-23 -88.5h305v-40h-347q1 66 18 117t43.5 92t59 73.5t65.5 62.5q24 22 46 45t39 46.5t27 48t10 50.5t-8.5 49.5t-26 41.5t-43.5 28.5t-60 10.5q-42 0 -76 -18.5t-57 -49.5 l-33 22q28 39 71.5 62.5t94.5 23.5q44 0 77.5 -14t56 -37.5t33.5 -54t11 -64.5z" />
<glyph unicode="3" horiz-adv-x="461" d="M206 400h5q26 0 49 10.5t40 28t26.5 40t9.5 46.5q0 31 -10 57t-28 44.5t-41.5 28.5t-50.5 10q-42 0 -76 -18.5t-57 -49.5l-33 22q28 39 71.5 62.5t94.5 23.5q35 0 66 -13.5t54 -37.5t36.5 -57t13.5 -72q0 -45 -24 -82.5t-88 -60.5q79 -24 113 -71.5t34 -105.5 q0 -45 -16 -83.5t-44 -66.5t-65.5 -44t-79.5 -16q-51 0 -94.5 23t-71.5 61l33 23q23 -31 57 -49t76 -18q34 0 64 12.5t52.5 35t35.5 54t13 68.5q0 31 -13 59t-35.5 49.5t-52.5 34t-64 12.5v40z" />
<glyph unicode="4" horiz-adv-x="440" d="M209 700l-118 -440h169v160h40v-160h100v-40h-100v-220h-40v220h-210v40l117 440h42z" />
<glyph unicode="5" horiz-adv-x="461" d="M371 264q0 37 -13 68.5t-35.5 54t-52.5 35t-64 12.5q-24 0 -45.5 -6.5t-40.5 -17.5h-40v290h300v-40h-260v-205q39 19 86 19q42 0 79.5 -16t65.5 -44t44 -66.5t16 -83.5v-59q0 -45 -16 -83.5t-44 -66.5t-65.5 -44t-79.5 -16q-51 0 -94.5 23t-71.5 61l33 23q23 -31 57 -49 t76 -18q34 0 64 12.5t52.5 35t35.5 54t13 68.5v59z" />
<glyph unicode="6" horiz-adv-x="510" d="M255 474q42 0 79.5 -16t65.5 -44t44 -66.5t16 -83.5v-59q0 -45 -16 -83.5t-44 -66.5t-65.5 -44t-79.5 -16t-79.5 16t-65.5 44t-44 66.5t-16 83.5v59q0 78 11 154t43.5 137.5t91.5 102t154 47.5v-40q-62 0 -105.5 -20.5t-73 -55.5t-46.5 -83t-25 -103q29 32 68 51.5 t87 19.5zM255 434q-33 0 -62 -11.5t-51.5 -32.5t-36 -50t-15.5 -64v-71q0 -37 13 -68.5t35.5 -54t52.5 -35t64 -12.5t64 12.5t52.5 35t35.5 54t13 68.5v59q0 37 -13 68.5t-35.5 54t-52.5 35t-64 12.5z" />
<glyph unicode="7" horiz-adv-x="438" d="M398 700q-3 -58 -14.5 -105t-29 -86.5t-39.5 -74t-45 -68.5q-24 -36 -47.5 -73.5t-42 -82t-30 -98.5t-10.5 -112h-40q-1 63 11 120.5t31.5 104.5t44 86t49.5 77q19 29 38 58.5t35 62t27.5 70t17.5 81.5h-304v40h348v0z" />
<glyph unicode="8" horiz-adv-x="510" d="M460 205q0 -45 -16 -83.5t-44 -66.5t-65.5 -44t-79.5 -16t-79.5 16t-65.5 44t-44 66.5t-16 83.5q0 58 33.5 105.5t87.5 71.5q-38 23 -62 60.5t-24 82.5q0 39 13.5 72t36.5 57t54 37.5t66 13.5t66 -13.5t54 -37.5t36.5 -57t13.5 -72q0 -45 -24 -82.5t-63 -60.5 q54 -24 88 -71.5t34 -105.5zM255 360q-34 0 -64 -12.5t-52.5 -34t-35.5 -49.5t-13 -59q0 -37 13 -68.5t35.5 -54t52.5 -35t64 -12.5t64 12.5t52.5 35t35.5 54t13 68.5q0 30 -12.5 57.5t-34.5 48.5t-52 34.5t-66 14.5zM255 400q28 0 51.5 10.5t41 28t27.5 40t10 46.5 q0 31 -10 57t-28 44.5t-41.5 28.5t-50.5 10t-50.5 -10t-41.5 -28.5t-28 -44.5t-10 -57q0 -25 10 -47.5t28 -40t41.5 -27.5t50.5 -10z" />
<glyph unicode="9" horiz-adv-x="510" d="M160 35q59 0 102.5 20.5t74 58t48.5 89.5t26 115l-1 -1q-29 -32 -68 -51.5t-87 -19.5q-42 0 -79.5 16t-65.5 44t-44 66.5t-16 83.5v39q0 45 16 83.5t44 66.5t65.5 44t79.5 16t79.5 -16t65.5 -44t44 -66.5t16 -83.5v-37q0 -97 -14.5 -181.5t-49 -147t-92.5 -98.5t-144 -36 v40zM255 286q33 0 62 11.5t51.5 32.5t36 50t15.5 64v51q0 37 -13 68.5t-35.5 54t-52.5 35t-64 12.5t-64 -12.5t-52.5 -35t-35.5 -54t-13 -68.5v-39q0 -37 13 -68.5t35.5 -54t52.5 -35t64 -12.5z" />
<glyph unicode=":" horiz-adv-x="170" d="M50 35q0 14 10.5 24.5t24.5 10.5t24.5 -10.5t10.5 -24.5t-10.5 -24.5t-24.5 -10.5t-24.5 10.5t-10.5 24.5zM50 345q0 14 10.5 24.5t24.5 10.5t24.5 -10.5t10.5 -24.5t-10.5 -24.5t-24.5 -10.5t-24.5 10.5t-10.5 24.5z" />
<glyph unicode=";" horiz-adv-x="170" d="M50 345q0 14 10.5 24.5t24.5 10.5t24.5 -10.5t10.5 -24.5t-10.5 -24.5t-24.5 -10.5t-24.5 10.5t-10.5 24.5zM58 13q-6 8 -7 18t3 18.5t12 14.5t19 6q14 0 24.5 -10.5t10.5 -24.5q0 -21 -5.5 -39t-13 -32t-16 -25.5t-15.5 -18.5h-20q15 30 18.5 52.5t-10.5 40.5z" />
<glyph unicode="&#x3c;" horiz-adv-x="398" d="M70 343l258 150v-46l-219 -127l219 -127v-46l-258 150v46z" />
<glyph unicode="=" horiz-adv-x="500" d="M410 240h-320v40h320v-40zM410 360h-320v40h320v-40z" />
<glyph unicode="&#x3e;" horiz-adv-x="398" d="M328 297l-258 -150v46l219 127l-219 127v46l258 -150v-46z" />
<glyph unicode="?" horiz-adv-x="376" d="M346 525q0 -30 -6.5 -54t-17 -44.5t-24 -39.5t-27.5 -40q-14 -20 -29 -41t-27.5 -45t-20.5 -51t-8 -60h-20q0 73 21 124t52 95q13 18 25 35t21.5 35t15 39t5.5 47q0 31 -10 57t-28 44.5t-41.5 28.5t-50.5 10q-42 0 -76 -18.5t-57 -49.5l-33 22q28 39 71.5 62.5t94.5 23.5 q35 0 66 -13.5t54 -37.5t36.5 -57t13.5 -72zM141 35q0 14 10.5 24.5t24.5 10.5t24.5 -10.5t10.5 -24.5t-10.5 -24.5t-24.5 -10.5t-24.5 10.5t-10.5 24.5z" />
<glyph unicode="@" horiz-adv-x="497" d="M330 380q-25 10 -50 10q-37 0 -62.5 -25.5t-27.5 -66.5v-103q0 -43 26 -69t64 -26t64 26t26 69v240q0 55 -31 85t-79 30h-40q-48 0 -79 -30t-31 -85v-280q0 -40 13.5 -71t36.5 -54t54 -36.5t66 -13.5t65.5 13.5t53.5 36.5l28 -28q-29 -29 -66 -45.5t-81 -16.5 q-43 0 -81.5 17.5t-67 47t-45 68.5t-16.5 82v280q0 74 42 114.5t108 40.5h40q66 0 108 -40.5t42 -114.5v-240q0 -28 -10 -52.5t-27.5 -43t-41 -29t-51.5 -10.5t-51.5 10.5t-41 29t-27.5 43t-10 52.5v104q1 26 12 50t28.5 42t40.5 28.5t49 10.5t50 -9v-41z" />
<glyph unicode="A" horiz-adv-x="452" d="M427 0h-40l-64 260h-194l-64 -260h-40l171 700h60zM139 300h174l-87 357z" />
<glyph unicode="B" horiz-adv-x="520" d="M328 392q84 -24 118 -74t34 -108q0 -47 -16 -84.5t-44 -65.5t-65.5 -44t-79.5 -16h-205v700h205q34 0 64 -13t52.5 -35.5t35.5 -52.5t13 -69q0 -41 -22.5 -78.5t-89.5 -59.5zM440 210q0 29 -13 59t-35.5 52.5t-52.5 35.5t-64 13h-125v40h125q26 0 48.5 10t39.5 27 t27 39.5t10 43.5q0 31 -10 53.5t-27 39.5t-39.5 27t-48.5 10h-165v-620h165q34 0 64 13t52.5 35.5t35.5 52.5t13 69z" />
<glyph unicode="C" horiz-adv-x="477" d="M105 205q0 -39 13 -69t35.5 -52.5t52.5 -35.5t64 -13t64 13t45.5 29t23.5 26l34 -21q-10 -14 -30 -34.5t-57.5 -36.5t-79.5 -16t-79.5 16t-65.5 44t-44 65.5t-16 84.5v290q0 47 16 84.5t44 65.5t65.5 44t79.5 16t79.5 -16t57.5 -36.5t30 -34.5l-34 -21q-8 10 -23.5 26 t-45.5 29t-64 13t-64 -13t-52.5 -35.5t-35.5 -52.5t-13 -69v-290v0z" />
<glyph unicode="D" horiz-adv-x="545" d="M275 700q42 0 79.5 -16t65.5 -44t44 -65.5t16 -84.5v-280q0 -47 -16 -84.5t-44 -65.5t-65.5 -44t-79.5 -16h-205v700h205zM440 490q0 39 -13 69t-35.5 52.5t-52.5 35.5t-64 13h-165v-620h165q34 0 64 13t52.5 35.5t35.5 52.5t13 69v280z" />
<glyph unicode="E" horiz-adv-x="450" d="M70 700h340v-40h-300v-250h200v-40h-200v-330h300v-40h-340v700z" />
<glyph unicode="F" horiz-adv-x="430" d="M70 700h340v-40h-300v-250h200v-40h-200v-370h-40v700z" />
<glyph unicode="G" d="M265 410h210v-205q0 -45 -16 -83.5t-44 -66.5t-65.5 -44t-79.5 -16t-79.5 16t-65.5 44t-44 66.5t-16 83.5v290q0 45 16 83.5t44 66.5t65.5 44t79.5 16q51 0 93.5 -23.5t73.5 -63.5l-34 -21q-35 38 -67 53t-66 15t-64 -12.5t-52.5 -35t-35.5 -54t-13 -68.5v-290 q0 -37 13 -68.5t35.5 -54t52.5 -35t64 -12.5t64 12.5t52.5 35t35.5 54t13 68.5v165h-170v40z" />
<glyph unicode="H" horiz-adv-x="550" d="M70 700h40v-290h330v290h40v-700h-40v370h-330v-370h-40v700z" />
<glyph unicode="I" horiz-adv-x="180" d="M70 700h40v-700h-40v700z" />
<glyph unicode="J" horiz-adv-x="180" d="M70 700h40v-640q0 -45 -16 -83.5t-44 -66.5t-65.5 -44t-79.5 -16v40q34 0 64 12.5t52.5 35t35.5 54t13 68.5v640z" />
<glyph unicode="K" horiz-adv-x="486" d="M70 700h40v-700h-40v700zM150 410l232 290h53l-249 -312l280 -388h-49l-267 370v40z" />
<glyph unicode="L" horiz-adv-x="430" d="M70 700h40v-660h300v-40h-340v700z" />
<glyph unicode="M" horiz-adv-x="640" d="M530 637l-193 -327h-34l-193 327v-637h-40v700h49l201 -341l201 341h49v-700h-40v637z" />
<glyph unicode="N" horiz-adv-x="520" d="M110 633v-633h-40v700h56l284 -633v633h40v-700h-54z" />
<glyph unicode="O" d="M65 495q0 45 16 83.5t44 66.5t65.5 44t79.5 16t79.5 -16t65.5 -44t44 -66.5t16 -83.5v-290q0 -45 -16 -83.5t-44 -66.5t-65.5 -44t-79.5 -16t-79.5 16t-65.5 44t-44 66.5t-16 83.5v290zM435 495q0 37 -13 68.5t-35.5 54t-52.5 35t-64 12.5t-64 -12.5t-52.5 -35t-35.5 -54 t-13 -68.5v-290q0 -37 13 -68.5t35.5 -54t52.5 -35t64 -12.5t64 12.5t52.5 35t35.5 54t13 68.5v290z" />
<glyph unicode="P" horiz-adv-x="490" d="M110 660v-660h-40v700h225q34 0 64 -13t52.5 -35.5t35.5 -52.5t13 -69q0 -29 -13 -59t-35.5 -52.5t-52.5 -35.5t-64 -13h-145v40h145q26 0 48.5 10t39.5 27t27 39.5t10 43.5q0 31 -10 53.5t-27 39.5t-39.5 27t-48.5 10h-185z" />
<glyph unicode="Q" d="M475 205q0 -45 -16 -83.5t-44 -66.5t-65.5 -44t-79.5 -16t-79.5 16t-65.5 44t-44 66.5t-16 83.5v290q0 45 16 83.5t44 66.5t65.5 44t79.5 16t79.5 -16t65.5 -44t44 -66.5t16 -83.5v-290zM105 205q0 -37 13 -68.5t35.5 -54t52.5 -35t64 -12.5t64 12.5t52.5 35t35.5 54 t13 68.5v290q0 37 -13 68.5t-35.5 54t-52.5 35t-64 12.5t-64 -12.5t-52.5 -35t-35.5 -54t-13 -68.5v-290zM207 -94q31 19 55.5 18t52.5 -18q76 -49 152 0l-22 34q-59 -35 -108 0q-40 25 -77.5 24t-74.5 -24z" />
<glyph unicode="R" horiz-adv-x="496" d="M150 410h145q26 0 48.5 10t39.5 27t27 39.5t10 43.5q0 31 -10 53.5t-27 39.5t-39.5 27t-48.5 10h-185v-660h-40v700h225q34 0 64 -13t52.5 -35.5t35.5 -52.5t13 -69q0 -29 -13 -59t-35.5 -52.5t-52.5 -35.5t-64 -13h-96l267 -370h-49l-267 370v40z" />
<glyph unicode="S" horiz-adv-x="490" d="M410 205q0 31 -13 56.5t-35.5 45t-52.5 33t-64 20.5q-35 7 -65.5 21t-54 35t-37 48.5t-13.5 60.5q0 39 13.5 72t36.5 57t54 37.5t66 13.5q51 0 94.5 -23.5t71.5 -62.5l-33 -22q-23 31 -57 49.5t-76 18.5q-27 0 -50.5 -10t-41.5 -28.5t-28 -44.5t-10 -57q0 -25 11.5 -45.5 t30.5 -36.5t44 -26.5t52 -15.5q42 -7 78 -24t62.5 -42.5t41.5 -58t15 -71.5q0 -45 -16 -83.5t-44 -66.5t-65.5 -44t-79.5 -16t-79.5 16t-65.5 44t-44 65.5t-16 79.5h40q0 -34 13 -64t35.5 -52.5t52.5 -35.5t64 -13t64 12.5t52.5 35t35.5 54t13 68.5z" />
<glyph unicode="T" horiz-adv-x="450" d="M20 700h410v-40h-185v-660h-40v660h-185v40z" />
<glyph unicode="U" d="M435 700h40v-495q0 -45 -16 -83.5t-44 -66.5t-65.5 -44t-79.5 -16t-79.5 16t-65.5 44t-44 66.5t-16 83.5v495h40v-495q0 -37 13 -68.5t35.5 -54t52.5 -35t64 -12.5t64 12.5t52.5 35t35.5 54t13 68.5v495z" />
<glyph unicode="V" horiz-adv-x="452" d="M196 0l-171 700h40l161 -657l161 657h40l-171 -700h-60z" />
<glyph unicode="W" horiz-adv-x="676" d="M153 0l-128 700h41l119 -651l120 651h65l119 -650l120 650h42l-130 -700h-65l-118 650l-120 -650h-65z" />
<glyph unicode="X" horiz-adv-x="410" d="M341 0l-135 310l-135 -310h-46l158 360l-158 340h46l135 -290l135 290h44l-157 -340l157 -360h-44z" />
<glyph unicode="Y" horiz-adv-x="410" d="M226 344v-344h-40v344l-161 356h46l135 -300l135 300h44z" />
<glyph unicode="Z" horiz-adv-x="440" d="M70 700h330l-296 -660h286v-40h-350l298 660h-268v40z" />
<glyph unicode="[" horiz-adv-x="230" d="M70 740h110v-40h-70v-700h70v-40h-110v780z" />
<glyph unicode="\" horiz-adv-x="268" d="M71 700l167 -700h-40l-168 700h41z" />
<glyph unicode="]" horiz-adv-x="230" d="M160 -40h-110v40h70v700h-70v40h110v-780z" />
<glyph unicode="^" horiz-adv-x="336" d="M264 452q-24 53 -48.5 105t-47.5 105l-95 -210h-43l116 258h44l116 -258h-42z" />
<glyph unicode="_" horiz-adv-x="640" d="M570 -80h-500v40h500v-40z" />
<glyph unicode="`" horiz-adv-x="265" d="M143 590l-53 120h46l39 -120h-32z" />
<glyph unicode="a" horiz-adv-x="402" d="M262 229q-14 10 -32 15.5t-38 5.5q-48 0 -79 -27.5t-31 -72.5q0 -54 31 -84.5t79 -30.5q51 0 80.5 30.5t29.5 84.5v200q0 55 -29.5 85t-80.5 30q-57 0 -92 -44l-32 19q18 30 52.5 47.5t71.5 17.5q32 0 59.5 -11t47.5 -31.5t31.5 -49t11.5 -63.5v-200q0 -25 0.5 -45 t4 -34.5t12 -22.5t23.5 -8v-40q-32 0 -48 14.5t-23 38.5q-20 -26 -51 -42t-68 -16q-31 0 -58 11.5t-47.5 32t-32.5 49t-12 62.5q0 29 12 54.5t32.5 44.5t47.5 30t58 11q38 0 70 -17v-44z" />
<glyph unicode="b" horiz-adv-x="405" d="M140 483q32 17 70 17q31 0 58 -11t47.5 -31.5t32.5 -49t12 -63.5v-195q0 -34 -11.5 -62.5t-31.5 -49t-47.5 -32t-59.5 -11.5q-31 0 -58 11.5t-47.5 32t-32.5 49t-12 62.5v550h40v-550q0 -54 31 -84.5t79 -30.5q51 0 80.5 30.5t29.5 84.5v195q0 55 -31 85t-79 30 q-20 0 -38 -5.5t-32 -15.5v44z" />
<glyph unicode="c" horiz-adv-x="360" d="M85 150q0 -54 29.5 -84.5t80.5 -30.5q26 0 51 10.5t39 33.5l32 -21q-20 -28 -52.5 -45.5t-69.5 -17.5q-32 0 -59.5 11.5t-47.5 32t-31.5 49t-11.5 62.5v200q0 35 11.5 63.5t31.5 49t47.5 31.5t59.5 11q36 0 69 -16.5t54 -48.5l-32 -19q-6 11 -16 19.5t-22.5 14t-26.5 8 t-26 2.5q-51 0 -80.5 -30t-29.5 -85v-200z" />
<glyph unicode="d" horiz-adv-x="425" d="M265 439q-14 10 -32 15.5t-38 5.5q-48 0 -79 -30t-31 -85v-195q0 -54 29.5 -84.5t80.5 -30.5q45 0 76.5 29t33.5 81v555h40v-545q0 -26 0.5 -47t4 -36t11.5 -23.5t24 -8.5v-40q-32 0 -48 14.5t-23 39.5q-21 -27 -52 -43t-67 -16q-32 0 -59.5 11.5t-47.5 32t-31.5 49 t-11.5 62.5v195q0 35 12 63.5t32.5 49t47.5 31.5t58 11q38 0 70 -17v-44z" />
<glyph unicode="e" horiz-adv-x="387" d="M125 250h70q48 0 79 30t31 75q0 54 -31 82t-79 28q-51 0 -80.5 -28t-29.5 -82v-205q0 -55 29.5 -85t80.5 -30q56 0 91 44l32 -21q-20 -29 -53 -46t-70 -17q-32 0 -59.5 11t-47.5 31t-31.5 49t-11.5 64v200q0 34 11.5 62.5t31.5 49t47.5 32t59.5 11.5q31 0 58 -11.5 t47.5 -32t32.5 -49t12 -62.5q0 -29 -12 -54.5t-32.5 -44.5t-47.5 -30t-58 -11h-70v40z" />
<glyph unicode="f" horiz-adv-x="230" d="M110 550v-50h90v-40h-90v-460h-40v460h-40v40h40v50q0 41 15.5 71t41 50t55.5 28t58 5v-40q-22 4 -44.5 -1.5t-42.5 -20.5t-31.5 -37.5t-11.5 -54.5z" />
<glyph unicode="g" horiz-adv-x="415" d="M200 80q-32 0 -59.5 11.5t-47.5 32t-31.5 49t-11.5 62.5v115q0 35 11.5 63.5t31.5 49t47.5 31.5t59.5 11q35 0 66 -15.5t52 -41.5q7 26 23.5 39t48.5 13v-40q-16 0 -24 -8t-11.5 -22t-4 -34.5t-0.5 -45.5v-115q0 -34 -12 -62.5t-32.5 -49t-47.5 -32t-58 -11.5zM90 235 q0 -54 29.5 -84.5t80.5 -30.5q48 0 79 30.5t31 84.5v115q0 55 -31 85t-79 30q-51 0 -80.5 -30t-29.5 -85v-115zM90 -110q0 -48 31 -79t79 -31q51 0 80.5 30.5t29.5 84.5q0 45 -29.5 75t-80.5 30v40q32 0 59.5 -12t47.5 -32t31.5 -46t11.5 -55q0 -34 -11.5 -62.5t-31.5 -49 t-47.5 -32t-59.5 -11.5q-31 0 -58 12t-47.5 32.5t-32.5 47.5t-12 58h40z" />
<glyph unicode="h" horiz-adv-x="415" d="M320 350q0 55 -29.5 85t-80.5 30q-48 0 -79 -30t-31 -85v-350h-40v700h40v-252q20 22 49 39.5t61 17.5t59.5 -11t47.5 -31.5t31.5 -49t11.5 -63.5v-350h-40v350z" />
<glyph unicode="i" horiz-adv-x="170" d="M65 0v500h40v-500h-40zM60 615q0 11 7 18t18 7t18 -7t7 -18t-7 -18t-18 -7t-18 7t-7 18z" />
<glyph unicode="j" horiz-adv-x="165" d="M100 500v-615q0 -36 -12 -63t-32.5 -47.5t-47.5 -32.5t-58 -12v40q48 0 79 31t31 84v615h40zM55 615q0 11 7 18t18 7t18 -7t7 -18t-7 -18t-18 -7t-18 7t-7 18z" />
<glyph unicode="k" horiz-adv-x="399" d="M100 0h-40v700h40v-700zM350 500l-174 -218l203 -282h-49l-190 264v40l157 196h53z" />
<glyph unicode="l" horiz-adv-x="180" d="M60 700h40v-555q0 -28 0.5 -47t4 -33t11.5 -22t24 -8v-40q-28 0 -44 11.5t-24 31t-10 46t-2 61.5v555z" />
<glyph unicode="m" horiz-adv-x="635" d="M60 500h40v-53q20 22 44 40t56 18q43 0 71.5 -21t48.5 -55q20 34 49 55t71 21q32 0 58 -11.5t44 -32t28 -49t10 -62.5v-350h-40v350q0 54 -24.5 84.5t-75.5 30.5q-48 0 -74 -30.5t-26 -84.5v-350h-40v350q0 54 -24.5 84.5t-75.5 30.5q-48 0 -73 -30t-27 -81v-354h-40v500 z" />
<glyph unicode="n" horiz-adv-x="415" d="M60 500h40v-53q20 22 49 40t61 18t59.5 -11.5t47.5 -32t31.5 -49t11.5 -62.5v-350h-40v350q0 54 -29.5 84.5t-80.5 30.5q-48 0 -79 -30.5t-31 -84.5v-350h-40v500z" />
<glyph unicode="o" horiz-adv-x="390" d="M195 -5q-32 0 -59.5 11.5t-47.5 32t-31.5 49t-11.5 62.5v200q0 35 11.5 63.5t31.5 49t47.5 31.5t59.5 11q31 0 58 -11t47.5 -31.5t32.5 -49t12 -63.5v-200q0 -34 -12 -62.5t-32.5 -49t-47.5 -32t-58 -11.5zM85 150q0 -54 29.5 -84.5t80.5 -30.5q48 0 79 30.5t31 84.5v200 q0 55 -31 85t-79 30q-51 0 -80.5 -30t-29.5 -85v-200z" />
<glyph unicode="p" horiz-adv-x="405" d="M140 61q14 -10 32 -15.5t38 -5.5q48 0 79 30t31 85v195q0 54 -29.5 84.5t-80.5 30.5q-48 0 -79 -30.5t-31 -84.5v-610h-40v760h40v-53q20 22 49 40t61 18t59.5 -11.5t47.5 -32t31.5 -49t11.5 -62.5v-195q0 -35 -12 -64t-32.5 -49t-47.5 -31t-58 -11q-38 0 -70 17v44z" />
<glyph unicode="q" horiz-adv-x="405" d="M265 17q-32 -17 -70 -17q-31 0 -58 11t-47.5 31t-32.5 49t-12 64v195q0 34 11.5 62.5t31.5 49t47.5 32t59.5 11.5q31 0 58 -11.5t47.5 -32t32.5 -49t12 -62.5v-610h-40v610q0 54 -31 84.5t-79 30.5q-51 0 -80.5 -30.5t-29.5 -84.5v-195q0 -55 31 -85t79 -30q20 0 38 5.5 t32 15.5v-44z" />
<glyph unicode="r" horiz-adv-x="300" d="M60 500h40v-51q38 40 86 52t94 -12v-47q-27 21 -58.5 25t-58.5 -8t-45 -39t-18 -67v-353h-40v500z" />
<glyph unicode="s" horiz-adv-x="370" d="M191 289q30 -4 56.5 -16t46 -30t30.5 -41.5t11 -51.5q0 -34 -12 -62.5t-32.5 -49t-47.5 -32t-58 -11.5q-32 0 -59.5 12t-47.5 32.5t-31.5 47.5t-11.5 58h40q0 -48 29.5 -79t80.5 -31q48 0 79 30.5t31 84.5q0 43 -31 67.5t-79 32.5q-27 4 -50.5 14.5t-41 26t-28 35.5 t-10.5 44q0 30 10 55t28 42.5t41.5 27.5t50.5 10q42 0 76 -20.5t53 -53.5l-32 -21q-13 25 -38 40t-59 15q-38 0 -64 -26t-26 -69q0 -16 8 -29.5t21.5 -24t31 -17.5t35.5 -10z" />
<glyph unicode="t" horiz-adv-x="260" d="M110 150q0 -32 11.5 -54.5t31.5 -37.5t45 -21q20 -5 42 -1v-40q-28 -3 -56 4q-32 9 -57.5 29t-41 50t-15.5 71v310h-40v40h40v200h40v-200h90v-40h-90v-310v0z" />
<glyph unicode="u" horiz-adv-x="415" d="M355 500v-356q0 -24 0.5 -43t4.5 -32.5t12 -21t23 -7.5v-40q-32 0 -48 14.5t-23 39.5q-21 -27 -52 -43t-67 -16q-32 0 -59.5 11.5t-47.5 32t-31.5 49t-11.5 62.5v350h40v-350q0 -54 29.5 -84.5t80.5 -30.5q45 0 76.5 29t33.5 81v355h40z" />
<glyph unicode="v" horiz-adv-x="344" d="M62 500l110 -450l110 450h42l-122 -500h-60l-122 500h42z" />
<glyph unicode="w" horiz-adv-x="520" d="M500 500l-92 -500h-65l-83 452l-83 -452h-65l-92 500h42l83 -452l83 452h65l83 -452l82 452h42z" />
<glyph unicode="x" horiz-adv-x="310" d="M155 200l-90 -200h-45l112 250l-112 250h45l90 -200l90 200h45l-113 -250l113 -250h-45z" />
<glyph unicode="y" horiz-adv-x="345" d="M151 -33l-131 533h42l110 -449l111 449h42l-162 -651q-6 -26 -20.5 -46.5t-33.5 -35.5t-42 -23.5t-47 -9.5v40q36 2 65.5 24.5t38.5 58.5z" />
<glyph unicode="z" horiz-adv-x="330" d="M88 40h217v-40h-280l207 460h-197v40h260z" />
<glyph unicode="{" horiz-adv-x="259" d="M150 553v-68q0 -17 -1.5 -36t-6 -37t-12 -34.5t-19.5 -27.5q12 -12 19.5 -28t12 -34.5t6 -37.5t1.5 -35v-67q0 -34 13 -64t35 -53q21 -20 51 -34l-17 -37q-38 17 -62 43q-28 28 -44 65.5t-16 79.5v67q0 25 -0.5 46t-4 36.5t-11.5 24t-24 8.5v40q16 0 24 8.5t11.5 24 t4 36.5t0.5 46v68q0 42 16 79.5t44 65.5q25 25 62 42l17 -36q-30 -14 -51 -35q-22 -22 -35 -52t-13 -64z" />
<glyph unicode="|" horiz-adv-x="180" d="M70 780h40v-860h-40v860z" />
<glyph unicode="}" horiz-adv-x="259" d="M109 553q0 34 -13 64t-35 52q-21 21 -51 35l17 36q37 -17 62 -42q28 -28 44 -65.5t16 -79.5v-68q0 -25 0.5 -46t4 -36.5t11.5 -24t24 -8.5v-40q-16 0 -24 -8.5t-11.5 -24t-4 -36.5t-0.5 -46v-67q0 -42 -16 -79.5t-44 -65.5q-24 -26 -62 -43l-17 37q30 14 51 34 q22 23 35 53t13 64v67q0 16 1.5 35t6 37.5t12 34.5t19.5 28q-12 11 -19.5 27.5t-12 34.5t-6 37t-1.5 36v68v0z" />
<glyph unicode="~" horiz-adv-x="507" d="M60 290q18 42 49 58.5t66 16.5q27 0 48.5 -11t41 -23.5t38.5 -23.5t43 -11q20 0 37 13.5t27 36.5l37 -16q-14 -35 -41 -54.5t-60 -19.5q-31 0 -55 13t-46 27q-17 11 -33.5 20t-36.5 9q-23 0 -44.5 -11.5t-33.5 -39.5z" />
<glyph unicode="&#xa1;" horiz-adv-x="170" d="M75 550h20l10 -550h-40zM50 665q0 14 10.5 24.5t24.5 10.5t24.5 -10.5t10.5 -24.5t-10.5 -24.5t-24.5 -10.5t-24.5 10.5t-10.5 24.5z" />
<glyph unicode="&#xa2;" horiz-adv-x="360" d="M286 421q-10 19 -32.5 29.5t-48.5 14.5v-430q23 2 45 13t35 31l32 -21q-20 -28 -52.5 -45.5t-69.5 -17.5q-32 0 -59.5 11.5t-47.5 32t-31.5 49t-11.5 62.5v200q0 35 11.5 63.5t31.5 49t47.5 31.5t59.5 11q36 0 69 -16.5t54 -48.5zM85 150q0 -45 21 -74t59 -38v423 q-38 -8 -59 -36.5t-21 -74.5v-200z" />
<glyph unicode="&#xa3;" horiz-adv-x="420" d="M270 304h-170v-264h300v-40h-340v550q0 41 15.5 71t41 50t57.5 29q28 7 56 4v-40q-22 4 -42 -1q-25 -6 -45 -21t-31.5 -37.5t-11.5 -54.5v-206h170v-40z" />
<glyph unicode="&#xa4;" horiz-adv-x="477" d="M275 394h-170v-50h170v-40h-170v-104q0 -39 13 -69t35.5 -52.5t52.5 -35.5t64 -13t64 13t45.5 28.5t23.5 26.5l34 -22q-10 -14 -30 -34t-57.5 -36t-79.5 -16t-79.5 16t-65.5 44t-44 65.5t-16 84.5v300q0 47 16 84.5t44 65.5t65.5 44t79.5 16t79.5 -16t57.5 -36.5 t30 -34.5l-1 1l-33 -22q-8 10 -23.5 26t-45.5 29t-64 13t-64 -13t-52.5 -35.5t-35.5 -52.5t-13 -69v-66h170v-40z" />
<glyph unicode="&#xa5;" horiz-adv-x="410" d="M95 254h91v50h-91v40h91l-161 356h46l135 -300l135 300h44l-159 -356h79v-40h-79v-50h79v-40h-79v-214h-40v214h-91v40z" />
<glyph unicode="&#xa6;" horiz-adv-x="180" d="M70 280h40v-360h-40v360zM70 780h40v-420h-40v420z" />
<glyph unicode="&#xa7;" horiz-adv-x="364" d="M82 135q0 -42 29 -71t71 -29t71 29t29 71q0 32 -12.5 56.5t-32 44.5t-43.5 36t-48 30q-21 13 -40 25.5t-34 26t-23.5 29.5t-8.5 36q0 14 5 30t18 34q-10 17 -15.5 37.5t-5.5 44.5q0 29 11 54.5t30 44.5t44.5 30t54.5 11t54.5 -11t44.5 -30t30 -44.5t11 -54.5h-40 q0 42 -29 71t-71 29t-71 -29t-29 -71q0 -32 12.5 -56.5t32 -44.5t43.5 -36t48 -30q21 -13 40 -25.5t34 -26t23.5 -29.5t8.5 -36q0 -14 -5 -30.5t-18 -34.5q10 -17 15.5 -37.5t5.5 -43.5q0 -29 -11 -54.5t-30 -44.5t-44.5 -30t-54.5 -11t-54.5 11t-44.5 30t-30 44.5t-11 54.5 h40zM198 364q-29 17 -58 37.5t-52 46.5q-8 -15 -8 -29q0 -11 7.5 -21.5t19.5 -21t27.5 -20.5t31.5 -20q28 -17 57.5 -37.5t52.5 -46.5q8 15 8 29q0 11 -7.5 21.5t-19.5 21t-27.5 20.5t-31.5 20z" />
<glyph unicode="&#xa8;" horiz-adv-x="360" d="M90 615q0 11 7 18t18 7t18 -7t7 -18t-7 -18t-18 -7t-18 7t-7 18zM220 615q0 11 7 18t18 7t18 -7t7 -18t-7 -18t-18 -7t-18 7t-7 18z" />
<glyph unicode="&#xa9;" horiz-adv-x="780" d="M30 350q0 75 28.5 140.5t77 114t114 77t140.5 28.5t140.5 -28.5t114 -77t77 -114t28.5 -140.5t-28.5 -140.5t-77 -114t-114 -77t-140.5 -28.5t-140.5 28.5t-114 77t-77 114t-28.5 140.5zM70 350q0 -66 25 -124.5t68.5 -102t102 -68.5t124.5 -25t124.5 25t102 68.5 t68.5 102t25 124.5t-25 124.5t-68.5 102t-102 68.5t-124.5 25t-124.5 -25t-102 -68.5t-68.5 -102t-25 -124.5zM480 520q-3 4 -10.5 11.5t-19 15t-27 13t-33.5 5.5q-21 0 -40.5 -8.5t-34.5 -23.5t-24 -36t-9 -45v-205q0 -24 9 -44.5t24 -35.5t34.5 -23.5t40.5 -8.5 q18 0 33.5 5t27 12.5t18.5 15t10 12.5l36 -18q-4 -7 -14.5 -18.5t-26.5 -22.5t-37.5 -19t-46.5 -7q-30 0 -56.5 11.5t-47 31.5t-32.5 48t-12 61v205q0 33 12 61t32.5 48.5t47 32t56.5 11.5q25 0 46.5 -8t37.5 -19t26.5 -21.5t13.5 -16.5z" />
<glyph unicode="&#xaa;" horiz-adv-x="192" d="M36 672q9 15 24 22.5t31 7.5q27 0 46 -18.5t19 -48.5v-76q0 -20 11 -20v-40q-21 0 -34 11q-16 -13 -42 -13q-29 0 -47.5 18.5t-18.5 49.5q0 26 18.5 44t47.5 18v-40q-11 0 -18.5 -6t-7.5 -16q0 -13 7.5 -20.5t18.5 -7.5q25 0 25 28v70q0 12 -7 19.5t-18 7.5 q-15 0 -21 -10z" />
<glyph unicode="&#xab;" horiz-adv-x="638" d="M328 142l-258 116v44l258 116v-43l-210 -95q53 -23 105 -47.5t105 -48.5v-42zM568 142l-258 116v44l258 116v-43l-210 -95q53 -23 105 -47.5t105 -48.5v-42z" />
<glyph unicode="&#xac;" horiz-adv-x="600" d="M30 241h500v-321h-40v281h-460v40z" />
<glyph unicode="&#xad;" horiz-adv-x="833" />
<glyph unicode="&#xae;" horiz-adv-x="780" d="M30 350q0 75 28.5 140.5t77 114t114 77t140.5 28.5t140.5 -28.5t114 -77t77 -114t28.5 -140.5t-28.5 -140.5t-77 -114t-114 -77t-140.5 -28.5t-140.5 28.5t-114 77t-77 114t-28.5 140.5zM70 350q0 -66 25 -124.5t68.5 -102t102 -68.5t124.5 -25t124.5 25t102 68.5 t68.5 102t25 124.5t-25 124.5t-68.5 102t-102 68.5t-124.5 25t-124.5 -25t-102 -68.5t-68.5 -102t-25 -124.5zM518 100l-181 255v40h103q18 0 33 7t26 18.5t17.5 25.5t6.5 29q0 38 -24 61.5t-59 23.5h-125v-460h-40v500h165q26 0 48.5 -9t39 -25.5t26 -39.5t9.5 -51 q0 -22 -9.5 -43.5t-26 -38.5t-39 -27.5t-48.5 -10.5h-54l181 -255h-49z" />
<glyph unicode="&#xaf;" horiz-adv-x="320" d="M250 670v-40h-180v40h180z" />
<glyph unicode="&#xb0;" horiz-adv-x="350" d="M50 625q0 26 10 48.5t27 39.5t39.5 27t48.5 10t48.5 -10t39.5 -27t27 -39.5t10 -48.5t-10 -48.5t-27 -39.5t-39.5 -27t-48.5 -10t-48.5 10t-39.5 27t-27 39.5t-10 48.5zM90 625q0 -35 25 -60t60 -25t60 25t25 60t-25 60t-60 25t-60 -25t-25 -60z" />
<glyph unicode="&#xb1;" horiz-adv-x="500" d="M270 560v-140h140v-40h-140v-140h-40v140h-140v40h140v140h40zM410 160h-320v40h320v-40z" />
<glyph unicode="&#xb2;" horiz-adv-x="254" d="M204 629q0 -26 -15.5 -47t-35.5 -40q-17 -15 -32.5 -32t-21.5 -41h105v-40h-148q0 31 6.5 53t16.5 38.5t22 29t24 23.5q16 14 27.5 28t11.5 28t-9 23.5t-26 9.5q-11 0 -22 -7.5t-21 -20.5l-36 20q16 22 36.5 35t42.5 13q38 0 56.5 -22t18.5 -51z" />
<glyph unicode="&#xb3;" horiz-adv-x="262" d="M117 595q17 0 30 9.5t13 20.5q0 17 -9 27t-23 10q-11 0 -21.5 -7.5t-20.5 -20.5l-36 20q16 22 37 35t41 13q29 0 50.5 -21t21.5 -55q0 -14 -5.5 -26.5t-14.5 -22.5q32 -24 32 -63q0 -38 -24.5 -62.5t-59.5 -24.5q-20 0 -41 13t-37 35l36 20q10 -13 20.5 -20.5t21.5 -7.5 q19 0 32 13.5t13 33.5q0 17 -17 29t-41 12z" />
<glyph unicode="&#xb4;" horiz-adv-x="263" d="M90 590l39 120h44l-51 -120h-32z" />
<glyph unicode="&#xb5;" horiz-adv-x="420" d="M100 500v-350q0 -54 29.5 -84.5t80.5 -30.5q45 0 76.5 29t33.5 81v355h40v-356q0 -24 0.5 -43t4.5 -32.5t12 -21t23 -7.5v-40q-32 0 -48 14.5t-23 39.5q-21 -27 -52 -43t-67 -16q-68 0 -110 47v-182h-40v640h40z" />
<glyph unicode="&#xb6;" horiz-adv-x="450" d="M260 370h-65q-34 0 -64 13t-52.5 35.5t-35.5 52.5t-13 59q0 39 13 69t35.5 52.5t52.5 35.5t64 13h185v-700h-40v660h-40v-660h-40v370zM146 420q23 -10 49 -10h65v250h-65q-26 0 -48.5 -10t-39.5 -27t-27 -39.5t-10 -53.5q0 -21 10 -43.5t27 -39.5t39 -27z" />
<glyph unicode="&#xb7;" horiz-adv-x="170" d="M50 370q0 14 10.5 24.5t24.5 10.5t24.5 -10.5t10.5 -24.5t-10.5 -24.5t-24.5 -10.5t-24.5 10.5t-10.5 24.5z" />
<glyph unicode="&#xb8;" horiz-adv-x="282" d="M132 -30q24 0 42 -17.5t18 -42.5q0 -24 -18 -42t-42 -18t-42 18l21 21q9 -9 21 -9t21 9t9 21q0 13 -9 21.5t-21 8.5v30z" />
<glyph unicode="&#xb9;" horiz-adv-x="174" d="M124 429h-40v231h-34v40h74v-271z" />
<glyph unicode="&#xba;" horiz-adv-x="261" d="M131 427q-35 0 -58 23.5t-23 60.5v108q0 38 23 60.5t58 22.5q32 0 56 -22.5t24 -60.5v-108q0 -37 -24 -60.5t-56 -23.5zM131 467q16 0 28 12t12 32v108q0 20 -12 31.5t-28 11.5q-17 0 -29 -11.5t-12 -31.5v-108q0 -20 12 -32t29 -12z" />
<glyph unicode="&#xbb;" horiz-adv-x="638" d="M310 184q53 24 105 48.5t105 47.5l-210 95v43l258 -116v-44l-258 -116v42zM70 184q53 24 105 48.5t105 47.5l-210 95v43l258 -116v-44l-258 -116v42z" />
<glyph unicode="&#xbc;" horiz-adv-x="407" d="M134 429h-40v231h-34v40h74v-271zM84 0l168 700h41l-168 -700h-41zM219 107l45 168h41l-42 -158h29v56h40v-56h35v-40h-35v-77h-40v77h-73v30z" />
<glyph unicode="&#xbd;" horiz-adv-x="398" d="M134 429h-40v231h-34v40h74v-271zM84 0l168 700h41l-168 -700h-41zM368 200q0 -26 -15.5 -47t-35.5 -40q-17 -15 -32.5 -32t-21.5 -41h105v-40h-148q0 31 6.5 53t16.5 38.5t22 29t24 23.5q16 14 27.5 28t11.5 28t-9 23.5t-26 9.5q-11 0 -22 -7.5t-21 -20.5l-36 20 q16 22 36.5 35t42.5 13q38 0 56.5 -22t18.5 -51z" />
<glyph unicode="&#xbe;" horiz-adv-x="454" d="M131 0l168 700h41l-168 -700h-41zM266 107l45 168h41l-42 -158h29v56h40v-56h35v-40h-35v-77h-40v77h-73v30zM117 595q17 0 30 9.5t13 20.5q0 17 -9 27t-23 10q-11 0 -21.5 -7.5t-20.5 -20.5l-36 20q16 22 37 35t41 13q29 0 50.5 -21t21.5 -55q0 -14 -5.5 -26.5 t-14.5 -22.5q32 -24 32 -63q0 -38 -24.5 -62.5t-59.5 -24.5q-20 0 -41 13t-37 35l36 20q10 -13 20.5 -20.5t21.5 -7.5q19 0 32 13.5t13 33.5q0 17 -17 29t-41 12z" />
<glyph unicode="&#xbf;" horiz-adv-x="376" d="M30 175q0 30 6.5 54t17 44.5t24 39.5t27.5 40q14 20 29 41t27.5 45t20.5 51t8 60h20q0 -37 -5.5 -67.5t-15.5 -56.5t-23.5 -49.5t-28.5 -45.5q-13 -18 -25 -35t-21.5 -35t-15 -39t-5.5 -47q0 -31 10 -57t28 -44.5t41.5 -28.5t50.5 -10q42 0 76 18.5t57 49.5l33 -22 q-28 -39 -71.5 -62.5t-94.5 -23.5q-35 0 -66 13.5t-54 37.5t-36.5 57t-13.5 72zM235 665q0 -14 -10.5 -24.5t-24.5 -10.5t-24.5 10.5t-10.5 24.5t10.5 24.5t24.5 10.5t24.5 -10.5t10.5 -24.5z" />
<glyph unicode="&#xc0;" horiz-adv-x="452" d="M214 750l-49 96h44l37 -96h-32zM256 700h-60l-171 -700h40l64 260h194l64 -260h40zM226 657l87 -357h-174z" />
<glyph unicode="&#xc1;" horiz-adv-x="452" d="M214 750l37 96h44l-49 -96h-32zM427 0h-40l-64 260h-194l-64 -260h-40l171 700h60zM139 300h174l-87 357z" />
<glyph unicode="&#xc2;" horiz-adv-x="452" d="M256 700h-60l-171 -700h40l64 260h194l64 -260h40zM226 657l87 -357h-174zM273 750l-47 67l-47 -67h-51l75 86h46l75 -86h-51z" />
<glyph unicode="&#xc3;" horiz-adv-x="452" d="M427 0h-40l-64 260h-194l-64 -260h-40l171 700h60zM139 300h174l-87 357zM85 786q13 29 35 41t46 12q19 0 34.5 -7.5t29 -17t27 -17t30.5 -7.5q14 0 26 9.5t19 26.5l36 -16q-13 -29 -34 -42t-47 -13q-18 0 -33 7.5t-29 17t-28 17t-31 7.5q-14 0 -26 -9t-19 -25z" />
<glyph unicode="&#xc4;" horiz-adv-x="452" d="M427 0h-40l-64 260h-194l-64 -260h-40l171 700h60zM139 300h174l-87 357zM136 815q0 11 7 18t18 7t18 -7t7 -18t-7 -18t-18 -7t-18 7t-7 18zM266 815q0 11 7 18t18 7t18 -7t7 -18t-7 -18t-18 -7t-18 7t-7 18z" />
<glyph unicode="&#xc5;" horiz-adv-x="452" d="M427 0h-40l-64 260h-194l-64 -260h-40l171 700h60zM139 300h174l-87 357zM171 830q0 -23 16 -39t39 -16t39 16t16 39t-16 39t-39 16t-39 -16t-16 -39zM141 830q0 35 25 60t60 25t60 -25t25 -60t-25 -60t-60 -25t-60 25t-25 60z" />
<glyph unicode="&#xc6;" horiz-adv-x="767" d="M387 260h-188l-134 -260h-40l362 700h340v-40h-300v-250h200v-40h-200v-330h300v-40h-340v260zM387 300v323l-167 -323h167z" />
<glyph unicode="&#xc7;" horiz-adv-x="477" d="M242 -31q24 0 42 -17.5t18 -42.5q0 -24 -18 -42t-42 -18t-42 18l21 21q9 -9 21 -9t21 9t9 21q0 13 -9 21.5t-21 8.5v30zM105 205q0 -39 13 -69t35.5 -52.5t52.5 -35.5t64 -13t64 13t45.5 29t23.5 26l34 -21q-10 -14 -30 -34.5t-57.5 -36.5t-79.5 -16t-79.5 16t-65.5 44 t-44 65.5t-16 84.5v290q0 47 16 84.5t44 65.5t65.5 44t79.5 16t79.5 -16t57.5 -36.5t30 -34.5l-34 -21q-8 10 -23.5 26t-45.5 29t-64 13t-64 -13t-52.5 -35.5t-35.5 -52.5t-13 -69v-290z" />
<glyph unicode="&#xc8;" horiz-adv-x="450" d="M70 0h340v40h-300v330h200v40h-200v250h300v40h-340v-700zM233 750l-49 96h44l37 -96h-32z" />
<glyph unicode="&#xc9;" horiz-adv-x="450" d="M70 700h340v-40h-300v-250h200v-40h-200v-330h300v-40h-340v700zM205 750l37 96h44l-49 -96h-32z" />
<glyph unicode="&#xca;" horiz-adv-x="450" d="M70 0h340v40h-300v330h200v40h-200v250h300v40h-340v-700zM272 750l-47 67l-47 -67h-51l75 86h46l75 -86h-51z" />
<glyph unicode="&#xcb;" horiz-adv-x="450" d="M70 700h340v-40h-300v-250h200v-40h-200v-330h300v-40h-340v700zM130 815q0 11 7 18t18 7t18 -7t7 -18t-7 -18t-18 -7t-18 7t-7 18zM260 815q0 11 7 18t18 7t18 -7t7 -18t-7 -18t-18 -7t-18 7t-7 18z" />
<glyph unicode="&#xcc;" horiz-adv-x="180" d="M70 0h40v700h-40v-700zM76 750l-49 96h44l37 -96h-32z" />
<glyph unicode="&#xcd;" horiz-adv-x="180" d="M70 700h40v-700h-40v700zM78 750l37 96h44l-49 -96h-32z" />
<glyph unicode="&#xce;" horiz-adv-x="180" d="M70 0h40v700h-40v-700zM137 750l-47 67l-47 -67h-51l75 86h46l75 -86h-51z" />
<glyph unicode="&#xcf;" horiz-adv-x="180" d="M70 700h40v-700h-40v700zM0 815q0 11 7 18t18 7t18 -7t7 -18t-7 -18t-18 -7t-18 7t-7 18zM130 815q0 11 7 18t18 7t18 -7t7 -18t-7 -18t-18 -7t-18 7t-7 18z" />
<glyph unicode="&#xd0;" horiz-adv-x="545" d="M20 410h50v290h205q42 0 79.5 -16t65.5 -44t44 -65.5t16 -84.5v-280q0 -47 -16 -84.5t-44 -65.5t-65.5 -44t-79.5 -16h-205v370h-50v40zM440 490q0 39 -13 69t-35.5 52.5t-52.5 35.5t-64 13h-165v-250h110v-40h-110v-330h165q34 0 64 13t52.5 35.5t35.5 52.5t13 69v280z " />
<glyph unicode="&#xd1;" horiz-adv-x="520" d="M110 633v-633h-40v700h56l284 -633v633h40v-700h-54zM118 786q13 29 35 41t46 12q19 0 34.5 -7.5t29 -17t27 -17t30.5 -7.5q14 0 26 9.5t19 26.5l36 -16q-13 -29 -34 -42t-47 -13q-18 0 -33 7.5t-29 17t-28 17t-31 7.5q-14 0 -26 -9t-19 -25z" />
<glyph unicode="&#xd2;" d="M65 205q0 -45 16 -83.5t44 -66.5t65.5 -44t79.5 -16t79.5 16t65.5 44t44 66.5t16 83.5v290q0 45 -16 83.5t-44 66.5t-65.5 44t-79.5 16t-79.5 -16t-65.5 -44t-44 -66.5t-16 -83.5v-290zM435 205q0 -37 -13 -68.5t-35.5 -54t-52.5 -35t-64 -12.5t-64 12.5t-52.5 35 t-35.5 54t-13 68.5v290q0 37 13 68.5t35.5 54t52.5 35t64 12.5t64 -12.5t52.5 -35t35.5 -54t13 -68.5v-290zM258 750l-49 96h44l37 -96h-32z" />
<glyph unicode="&#xd3;" d="M65 495q0 45 16 83.5t44 66.5t65.5 44t79.5 16t79.5 -16t65.5 -44t44 -66.5t16 -83.5v-290q0 -45 -16 -83.5t-44 -66.5t-65.5 -44t-79.5 -16t-79.5 16t-65.5 44t-44 66.5t-16 83.5v290zM435 495q0 37 -13 68.5t-35.5 54t-52.5 35t-64 12.5t-64 -12.5t-52.5 -35t-35.5 -54 t-13 -68.5v-290q0 -37 13 -68.5t35.5 -54t52.5 -35t64 -12.5t64 12.5t52.5 35t35.5 54t13 68.5v290zM250 750l37 96h44l-49 -96h-32z" />
<glyph unicode="&#xd4;" d="M65 205q0 -45 16 -83.5t44 -66.5t65.5 -44t79.5 -16t79.5 16t65.5 44t44 66.5t16 83.5v290q0 45 -16 83.5t-44 66.5t-65.5 44t-79.5 16t-79.5 -16t-65.5 -44t-44 -66.5t-16 -83.5v-290zM435 205q0 -37 -13 -68.5t-35.5 -54t-52.5 -35t-64 -12.5t-64 12.5t-52.5 35 t-35.5 54t-13 68.5v290q0 37 13 68.5t35.5 54t52.5 35t64 12.5t64 -12.5t52.5 -35t35.5 -54t13 -68.5v-290zM317 750l-47 67l-47 -67h-51l75 86h46l75 -86h-51z" />
<glyph unicode="&#xd5;" d="M65 495q0 45 16 83.5t44 66.5t65.5 44t79.5 16t79.5 -16t65.5 -44t44 -66.5t16 -83.5v-290q0 -45 -16 -83.5t-44 -66.5t-65.5 -44t-79.5 -16t-79.5 16t-65.5 44t-44 66.5t-16 83.5v290zM435 495q0 37 -13 68.5t-35.5 54t-52.5 35t-64 12.5t-64 -12.5t-52.5 -35t-35.5 -54 t-13 -68.5v-290q0 -37 13 -68.5t35.5 -54t52.5 -35t64 -12.5t64 12.5t52.5 35t35.5 54t13 68.5v290zM128 786q13 29 35 41t46 12q19 0 34.5 -7.5t29 -17t27 -17t30.5 -7.5q14 0 26 9.5t19 26.5l36 -16q-13 -29 -34 -42t-47 -13q-18 0 -33 7.5t-29 17t-28 17t-31 7.5 q-14 0 -26 -9t-19 -25z" />
<glyph unicode="&#xd6;" d="M65 495q0 45 16 83.5t44 66.5t65.5 44t79.5 16t79.5 -16t65.5 -44t44 -66.5t16 -83.5v-290q0 -45 -16 -83.5t-44 -66.5t-65.5 -44t-79.5 -16t-79.5 16t-65.5 44t-44 66.5t-16 83.5v290zM435 495q0 37 -13 68.5t-35.5 54t-52.5 35t-64 12.5t-64 -12.5t-52.5 -35t-35.5 -54 t-13 -68.5v-290q0 -37 13 -68.5t35.5 -54t52.5 -35t64 -12.5t64 12.5t52.5 35t35.5 54t13 68.5v290zM180 815q0 11 7 18t18 7t18 -7t7 -18t-7 -18t-18 -7t-18 7t-7 18zM310 815q0 11 7 18t18 7t18 -7t7 -18t-7 -18t-18 -7t-18 7t-7 18z" />
<glyph unicode="&#xd7;" horiz-adv-x="434" d="M118 447l99 -99l99 99l28 -28l-99 -99l99 -99l-28 -28l-99 99l-99 -99l-28 28l99 99l-99 99z" />
<glyph unicode="&#xd8;" d="M65 495q0 45 16 83.5t44 66.5t65.5 44t79.5 16t79.5 -16t65.5 -44t44 -66.5t16 -83.5v-290q0 -45 -16 -83.5t-44 -66.5t-65.5 -44t-79.5 -16t-79.5 16t-65.5 44t-44 66.5t-16 83.5v290zM435 495q0 48 -20.5 85t-55.5 59l-143 -596q23 -8 54 -8q34 0 64 12.5t52.5 35 t35.5 54t13 68.5v290zM105 205q0 -48 20 -84.5t54 -59.5l144 595q-26 9 -53 9q-34 0 -64 -12.5t-52.5 -35t-35.5 -54t-13 -68.5v-290z" />
<glyph unicode="&#xd9;" d="M435 205q0 -37 -13 -68.5t-35.5 -54t-52.5 -35t-64 -12.5t-64 12.5t-52.5 35t-35.5 54t-13 68.5v495h-40v-495q0 -45 16 -83.5t44 -66.5t65.5 -44t79.5 -16t79.5 16t65.5 44t44 66.5t16 83.5v495h-40v-495zM268 750l-49 96h44l37 -96h-32z" />
<glyph unicode="&#xda;" d="M435 700h40v-495q0 -45 -16 -83.5t-44 -66.5t-65.5 -44t-79.5 -16t-79.5 16t-65.5 44t-44 66.5t-16 83.5v495h40v-495q0 -37 13 -68.5t35.5 -54t52.5 -35t64 -12.5t64 12.5t52.5 35t35.5 54t13 68.5v495zM240 750l37 96h44l-49 -96h-32z" />
<glyph unicode="&#xdb;" d="M435 205q0 -37 -13 -68.5t-35.5 -54t-52.5 -35t-64 -12.5t-64 12.5t-52.5 35t-35.5 54t-13 68.5v495h-40v-495q0 -45 16 -83.5t44 -66.5t65.5 -44t79.5 -16t79.5 16t65.5 44t44 66.5t16 83.5v495h-40v-495zM317 750l-47 67l-47 -67h-51l75 86h46l75 -86h-51z" />
<glyph unicode="&#xdc;" d="M435 700h40v-495q0 -45 -16 -83.5t-44 -66.5t-65.5 -44t-79.5 -16t-79.5 16t-65.5 44t-44 66.5t-16 83.5v495h40v-495q0 -37 13 -68.5t35.5 -54t52.5 -35t64 -12.5t64 12.5t52.5 35t35.5 54t13 68.5v495zM180 815q0 11 7 18t18 7t18 -7t7 -18t-7 -18t-18 -7t-18 7t-7 18z M310 815q0 11 7 18t18 7t18 -7t7 -18t-7 -18t-18 -7t-18 7t-7 18z" />
<glyph unicode="&#xdd;" horiz-adv-x="410" d="M226 344v-344h-40v344l-161 356h46l135 -300l135 300h44zM175 750l37 96h44l-49 -96h-32z" />
<glyph unicode="&#xde;" horiz-adv-x="490" d="M110 610h185q34 0 64 -13t52.5 -35.5t35.5 -52.5t13 -69q0 -29 -13 -59t-35.5 -52.5t-52.5 -35.5t-64 -13h-145v40h145q26 0 48.5 10t39.5 27t27 39.5t10 43.5q0 31 -10 53.5t-27 39.5t-39.5 27t-48.5 10h-185v-570h-40v700h40v-90z" />
<glyph unicode="&#xdf;" horiz-adv-x="405" d="M320 310q0 48 -30.5 74t-84.5 26v40q54 0 84.5 24.5t30.5 75.5q0 54 -29.5 84.5t-80.5 30.5q-48 0 -79 -30.5t-31 -84.5v-550h-40v550q0 34 12 62.5t32.5 49t47.5 32t58 11.5q32 0 59.5 -11.5t47.5 -32t31.5 -49t11.5 -62.5q0 -43 -21 -71.5t-55 -48.5q34 -20 55 -49 t21 -71v-160q0 -34 -12 -62.5t-32.5 -49t-47.5 -32t-58 -11.5v40q48 0 79 30.5t31 84.5v160v0z" />
<glyph unicode="&#xe0;" horiz-adv-x="402" d="M262 273q-32 17 -70 17q-31 0 -58 -11t-47.5 -30t-32.5 -44.5t-12 -54.5q0 -34 12 -62.5t32.5 -49t47.5 -32t58 -11.5q37 0 68 16t51 42q7 -24 23 -38.5t48 -14.5v40q-15 0 -23.5 8t-12 22.5t-4 34.5t-0.5 45v200q0 35 -11.5 63.5t-31.5 49t-47.5 31.5t-59.5 11 q-37 0 -71.5 -17.5t-52.5 -47.5l32 -19q35 44 92 44q51 0 80.5 -30t29.5 -85v-200q0 -54 -29.5 -84.5t-80.5 -30.5q-48 0 -79 30.5t-31 84.5q0 45 31 72.5t79 27.5q20 0 38 -5.5t32 -15.5v44zM203 590l-53 120h46l39 -120h-32z" />
<glyph unicode="&#xe1;" horiz-adv-x="402" d="M262 229q-14 10 -32 15.5t-38 5.5q-48 0 -79 -27.5t-31 -72.5q0 -54 31 -84.5t79 -30.5q51 0 80.5 30.5t29.5 84.5v200q0 55 -29.5 85t-80.5 30q-57 0 -92 -44l-32 19q18 30 52.5 47.5t71.5 17.5q32 0 59.5 -11t47.5 -31.5t31.5 -49t11.5 -63.5v-200q0 -25 0.5 -45 t4 -34.5t12 -22.5t23.5 -8v-40q-32 0 -48 14.5t-23 38.5q-20 -26 -51 -42t-68 -16q-31 0 -58 11.5t-47.5 32t-32.5 49t-12 62.5q0 29 12 54.5t32.5 44.5t47.5 30t58 11q38 0 70 -17v-44zM183 590l39 120h44l-51 -120h-32z" />
<glyph unicode="&#xe2;" horiz-adv-x="402" d="M262 273q-32 17 -70 17q-31 0 -58 -11t-47.5 -30t-32.5 -44.5t-12 -54.5q0 -34 12 -62.5t32.5 -49t47.5 -32t58 -11.5q37 0 68 16t51 42q7 -24 23 -38.5t48 -14.5v40q-15 0 -23.5 8t-12 22.5t-4 34.5t-0.5 45v200q0 35 -11.5 63.5t-31.5 49t-47.5 31.5t-59.5 11 q-37 0 -71.5 -17.5t-52.5 -47.5l32 -19q35 44 92 44q51 0 80.5 -30t29.5 -85v-200q0 -54 -29.5 -84.5t-80.5 -30.5q-48 0 -79 30.5t-31 84.5q0 45 31 72.5t79 27.5q20 0 38 -5.5t32 -15.5v44zM259 590l-47 101l-47 -101h-46l70 120h46l70 -120h-46z" />
<glyph unicode="&#xe3;" horiz-adv-x="402" d="M262 229q-14 10 -32 15.5t-38 5.5q-48 0 -79 -27.5t-31 -72.5q0 -54 31 -84.5t79 -30.5q51 0 80.5 30.5t29.5 84.5v200q0 55 -29.5 85t-80.5 30q-57 0 -92 -44l-32 19q18 30 52.5 47.5t71.5 17.5q32 0 59.5 -11t47.5 -31.5t31.5 -49t11.5 -63.5v-200q0 -25 0.5 -45 t4 -34.5t12 -22.5t23.5 -8v-40q-32 0 -48 14.5t-23 38.5q-20 -26 -51 -42t-68 -16q-31 0 -58 11.5t-47.5 32t-32.5 49t-12 62.5q0 29 12 54.5t32.5 44.5t47.5 30t58 11q38 0 70 -17v-44zM60 639q13 29 35 41t46 12q19 0 34.5 -7.5t29 -17t27 -17t30.5 -7.5q14 0 26 9.5 t19 26.5l36 -16q-13 -29 -34 -42t-47 -13q-18 0 -33 7.5t-29 17t-28 17t-31 7.5q-14 0 -26 -9t-19 -25z" />
<glyph unicode="&#xe4;" horiz-adv-x="402" d="M262 229q-14 10 -32 15.5t-38 5.5q-48 0 -79 -27.5t-31 -72.5q0 -54 31 -84.5t79 -30.5q51 0 80.5 30.5t29.5 84.5v200q0 55 -29.5 85t-80.5 30q-57 0 -92 -44l-32 19q18 30 52.5 47.5t71.5 17.5q32 0 59.5 -11t47.5 -31.5t31.5 -49t11.5 -63.5v-200q0 -25 0.5 -45 t4 -34.5t12 -22.5t23.5 -8v-40q-32 0 -48 14.5t-23 38.5q-20 -26 -51 -42t-68 -16q-31 0 -58 11.5t-47.5 32t-32.5 49t-12 62.5q0 29 12 54.5t32.5 44.5t47.5 30t58 11q38 0 70 -17v-44zM122 615q0 11 7 18t18 7t18 -7t7 -18t-7 -18t-18 -7t-18 7t-7 18zM252 615q0 11 7 18 t18 7t18 -7t7 -18t-7 -18t-18 -7t-18 7t-7 18z" />
<glyph unicode="&#xe5;" horiz-adv-x="402" d="M262 229q-14 10 -32 15.5t-38 5.5q-48 0 -79 -27.5t-31 -72.5q0 -54 31 -84.5t79 -30.5q51 0 80.5 30.5t29.5 84.5v200q0 55 -29.5 85t-80.5 30q-57 0 -92 -44l-32 19q18 30 52.5 47.5t71.5 17.5q32 0 59.5 -11t47.5 -31.5t31.5 -49t11.5 -63.5v-200q0 -25 0.5 -45 t4 -34.5t12 -22.5t23.5 -8v-40q-32 0 -48 14.5t-23 38.5q-20 -26 -51 -42t-68 -16q-31 0 -58 11.5t-47.5 32t-32.5 49t-12 62.5q0 29 12 54.5t32.5 44.5t47.5 30t58 11q38 0 70 -17v-44zM154 645q0 -23 16 -39t39 -16t39 16t16 39t-16 39t-39 16t-39 -16t-16 -39zM124 645 q0 35 25 60t60 25t60 -25t25 -60t-25 -60t-60 -25t-60 25t-25 60z" />
<glyph unicode="&#xe6;" horiz-adv-x="644" d="M262 229q-14 10 -32 15.5t-38 5.5q-48 0 -79 -27.5t-31 -72.5q0 -54 31 -84.5t79 -30.5q49 0 78.5 28.5t31.5 80.5v206q0 55 -29.5 85t-80.5 30q-57 0 -92 -44l-32 19q18 30 52.5 47.5t71.5 17.5q43 0 77 -19.5t53 -54.5q20 34 53.5 54t76.5 20q31 0 58 -11.5t47.5 -32 t32.5 -49t12 -62.5q0 -29 -12 -54.5t-32.5 -44.5t-47.5 -30t-58 -11h-70v40h70q48 0 79 30t31 75q0 54 -31 82t-79 28q-51 0 -80.5 -28t-29.5 -82v-211q2 -52 31 -80.5t79 -28.5q56 0 91 44l32 -21q-20 -29 -53 -46t-70 -17q-43 0 -77 19t-53 54q-20 -35 -54 -54t-76 -19 q-31 0 -58 11.5t-47.5 32t-32.5 49t-12 62.5q0 29 12 54.5t32.5 44.5t47.5 30t58 11q38 0 70 -17v-44z" />
<glyph unicode="&#xe7;" horiz-adv-x="360" d="M85 150q0 -54 29.5 -84.5t80.5 -30.5q26 0 51 10.5t39 33.5l32 -21q-20 -28 -52.5 -45.5t-69.5 -17.5q-32 0 -59.5 11.5t-47.5 32t-31.5 49t-11.5 62.5v200q0 35 11.5 63.5t31.5 49t47.5 31.5t59.5 11q36 0 69 -16.5t54 -48.5l-32 -19q-6 11 -16 19.5t-22.5 14t-26.5 8 t-26 2.5q-51 0 -80.5 -30t-29.5 -85v-200zM187 -31q24 0 42 -17.5t18 -42.5q0 -24 -18 -42t-42 -18t-42 18l21 21q9 -9 21 -9t21 9t9 21q0 13 -9 21.5t-21 8.5v30z" />
<glyph unicode="&#xe8;" horiz-adv-x="387" d="M125 210h70q31 0 58 11t47.5 30t32.5 44.5t12 54.5q0 34 -12 62.5t-32.5 49t-47.5 32t-58 11.5q-32 0 -59.5 -11.5t-47.5 -32t-31.5 -49t-11.5 -62.5v-200q0 -35 11.5 -64t31.5 -49t47.5 -31t59.5 -11q37 0 70 17t53 46l-32 21q-35 -44 -91 -44q-51 0 -80.5 30t-29.5 85 v205q0 54 29.5 82t80.5 28q48 0 79 -28t31 -82q0 -45 -31 -75t-79 -30h-70v-40zM186 590l-53 120h46l39 -120h-32z" />
<glyph unicode="&#xe9;" horiz-adv-x="387" d="M125 250h70q48 0 79 30t31 75q0 54 -31 82t-79 28q-51 0 -80.5 -28t-29.5 -82v-205q0 -55 29.5 -85t80.5 -30q56 0 91 44l32 -21q-20 -29 -53 -46t-70 -17q-32 0 -59.5 11t-47.5 31t-31.5 49t-11.5 64v200q0 34 11.5 62.5t31.5 49t47.5 32t59.5 11.5q31 0 58 -11.5 t47.5 -32t32.5 -49t12 -62.5q0 -29 -12 -54.5t-32.5 -44.5t-47.5 -30t-58 -11h-70v40zM176 590l39 120h44l-51 -120h-32z" />
<glyph unicode="&#xea;" horiz-adv-x="387" d="M125 210h70q31 0 58 11t47.5 30t32.5 44.5t12 54.5q0 34 -12 62.5t-32.5 49t-47.5 32t-58 11.5q-32 0 -59.5 -11.5t-47.5 -32t-31.5 -49t-11.5 -62.5v-200q0 -35 11.5 -64t31.5 -49t47.5 -31t59.5 -11q37 0 70 17t53 46l-32 21q-35 -44 -91 -44q-51 0 -80.5 30t-29.5 85 v205q0 54 29.5 82t80.5 28q48 0 79 -28t31 -82q0 -45 -31 -75t-79 -30h-70v-40zM240 590l-47 101l-47 -101h-46l70 120h46l70 -120h-46z" />
<glyph unicode="&#xeb;" horiz-adv-x="387" d="M125 250h70q48 0 79 30t31 75q0 54 -31 82t-79 28q-51 0 -80.5 -28t-29.5 -82v-205q0 -55 29.5 -85t80.5 -30q56 0 91 44l32 -21q-20 -29 -53 -46t-70 -17q-32 0 -59.5 11t-47.5 31t-31.5 49t-11.5 64v200q0 34 11.5 62.5t31.5 49t47.5 32t59.5 11.5q31 0 58 -11.5 t47.5 -32t32.5 -49t12 -62.5q0 -29 -12 -54.5t-32.5 -44.5t-47.5 -30t-58 -11h-70v40zM105 615q0 11 7 18t18 7t18 -7t7 -18t-7 -18t-18 -7t-18 7t-7 18zM235 615q0 11 7 18t18 7t18 -7t7 -18t-7 -18t-18 -7t-18 7t-7 18z" />
<glyph unicode="&#xec;" horiz-adv-x="160" d="M60 0v500h40v-500h-40zM64 590l-53 120h46l39 -120h-32z" />
<glyph unicode="&#xed;" horiz-adv-x="160" d="M60 0v500h40v-500h-40zM67 590l39 120h44l-51 -120h-32z" />
<glyph unicode="&#xee;" horiz-adv-x="160" d="M60 0v500h40v-500h-40zM127 590l-47 101l-47 -101h-46l70 120h46l70 -120h-46z" />
<glyph unicode="&#xef;" horiz-adv-x="160" d="M60 0v500h40v-500h-40zM-10 615q0 11 7 18t18 7t18 -7t7 -18t-7 -18t-18 -7t-18 7t-7 18zM120 615q0 11 7 18t18 7t18 -7t7 -18t-7 -18t-18 -7t-18 7t-7 18z" />
<glyph unicode="&#xf0;" horiz-adv-x="390" d="M110 581l78 40q-23 18 -50.5 30t-60.5 16l6 38q46 -5 81.5 -21t64.5 -42l77 40l14 -27l-70 -36q52 -63 73.5 -161.5t21.5 -215.5v-92q0 -34 -12 -62.5t-32.5 -49t-47.5 -32t-58 -11.5q-32 0 -59.5 11.5t-47.5 32t-31.5 49t-11.5 62.5v200q0 35 11.5 63.5t31.5 49 t47.5 31.5t59.5 11v-40q-51 0 -80.5 -30t-29.5 -85v-200q0 -54 29.5 -84.5t80.5 -30.5q48 0 79 30.5t31 84.5v92q0 56 -5 108t-16 98t-29 84t-44 67l-87 -45z" />
<glyph unicode="&#xf1;" horiz-adv-x="415" d="M60 500h40v-53q20 22 49 40t61 18t59.5 -11.5t47.5 -32t31.5 -49t11.5 -62.5v-350h-40v350q0 54 -29.5 84.5t-80.5 30.5q-48 0 -79 -30.5t-31 -84.5v-350h-40v500zM66 639q13 29 35 41t46 12q19 0 34.5 -7.5t29 -17t27 -17t30.5 -7.5q14 0 26 9.5t19 26.5l36 -16 q-13 -29 -34 -42t-47 -13q-18 0 -33 7.5t-29 17t-28 17t-31 7.5q-14 0 -26 -9t-19 -25z" />
<glyph unicode="&#xf2;" horiz-adv-x="390" d="M195 -5q31 0 58 11.5t47.5 32t32.5 49t12 62.5v200q0 35 -12 63.5t-32.5 49t-47.5 31.5t-58 11q-32 0 -59.5 -11t-47.5 -31.5t-31.5 -49t-11.5 -63.5v-200q0 -34 11.5 -62.5t31.5 -49t47.5 -32t59.5 -11.5zM85 350q0 55 29.5 85t80.5 30q48 0 79 -30t31 -85v-200 q0 -54 -31 -84.5t-79 -30.5q-51 0 -80.5 30.5t-29.5 84.5v200zM186 590l-53 120h46l39 -120h-32z" />
<glyph unicode="&#xf3;" horiz-adv-x="390" d="M195 -5q-32 0 -59.5 11.5t-47.5 32t-31.5 49t-11.5 62.5v200q0 35 11.5 63.5t31.5 49t47.5 31.5t59.5 11q31 0 58 -11t47.5 -31.5t32.5 -49t12 -63.5v-200q0 -34 -12 -62.5t-32.5 -49t-47.5 -32t-58 -11.5zM85 150q0 -54 29.5 -84.5t80.5 -30.5q48 0 79 30.5t31 84.5v200 q0 55 -31 85t-79 30q-51 0 -80.5 -30t-29.5 -85v-200zM180 590l39 120h44l-51 -120h-32z" />
<glyph unicode="&#xf4;" horiz-adv-x="390" d="M195 -5q31 0 58 11.5t47.5 32t32.5 49t12 62.5v200q0 35 -12 63.5t-32.5 49t-47.5 31.5t-58 11q-32 0 -59.5 -11t-47.5 -31.5t-31.5 -49t-11.5 -63.5v-200q0 -34 11.5 -62.5t31.5 -49t47.5 -32t59.5 -11.5zM85 350q0 55 29.5 85t80.5 30q48 0 79 -30t31 -85v-200 q0 -54 -31 -84.5t-79 -30.5q-51 0 -80.5 30.5t-29.5 84.5v200zM242 590l-47 101l-47 -101h-46l70 120h46l70 -120h-46z" />
<glyph unicode="&#xf5;" horiz-adv-x="390" d="M195 -5q-32 0 -59.5 11.5t-47.5 32t-31.5 49t-11.5 62.5v200q0 35 11.5 63.5t31.5 49t47.5 31.5t59.5 11q31 0 58 -11t47.5 -31.5t32.5 -49t12 -63.5v-200q0 -34 -12 -62.5t-32.5 -49t-47.5 -32t-58 -11.5zM85 150q0 -54 29.5 -84.5t80.5 -30.5q48 0 79 30.5t31 84.5v200 q0 55 -31 85t-79 30q-51 0 -80.5 -30t-29.5 -85v-200zM54 639q13 29 35 41t46 12q19 0 34.5 -7.5t29 -17t27 -17t30.5 -7.5q14 0 26 9.5t19 26.5l36 -16q-13 -29 -34 -42t-47 -13q-18 0 -33 7.5t-29 17t-28 17t-31 7.5q-14 0 -26 -9t-19 -25z" />
<glyph unicode="&#xf6;" horiz-adv-x="390" d="M195 -5q-32 0 -59.5 11.5t-47.5 32t-31.5 49t-11.5 62.5v200q0 35 11.5 63.5t31.5 49t47.5 31.5t59.5 11q31 0 58 -11t47.5 -31.5t32.5 -49t12 -63.5v-200q0 -34 -12 -62.5t-32.5 -49t-47.5 -32t-58 -11.5zM85 150q0 -54 29.5 -84.5t80.5 -30.5q48 0 79 30.5t31 84.5v200 q0 55 -31 85t-79 30q-51 0 -80.5 -30t-29.5 -85v-200zM105 615q0 11 7 18t18 7t18 -7t7 -18t-7 -18t-18 -7t-18 7t-7 18zM235 615q0 11 7 18t18 7t18 -7t7 -18t-7 -18t-18 -7t-18 7t-7 18z" />
<glyph unicode="&#xf7;" horiz-adv-x="500" d="M215 205q0 14 10.5 24.5t24.5 10.5t24.5 -10.5t10.5 -24.5t-10.5 -24.5t-24.5 -10.5t-24.5 10.5t-10.5 24.5zM215 435q0 14 10.5 24.5t24.5 10.5t24.5 -10.5t10.5 -24.5t-10.5 -24.5t-24.5 -10.5t-24.5 10.5t-10.5 24.5zM410 300h-320v40h320v-40z" />
<glyph unicode="&#xf8;" horiz-adv-x="390" d="M195 -5q-32 0 -59.5 11.5t-47.5 32t-31.5 49t-11.5 62.5v200q0 35 11.5 63.5t31.5 49t47.5 31.5t59.5 11q31 0 58 -11t47.5 -31.5t32.5 -49t12 -63.5v-200q0 -34 -12 -62.5t-32.5 -49t-47.5 -32t-58 -11.5zM305 350q0 33 -12 57.5t-33 38.5l-97 -407q13 -4 32 -4 q48 0 79 30.5t31 84.5v200zM85 150q0 -64 41 -94l98 405q-7 2 -14 3t-15 1q-51 0 -80.5 -30t-29.5 -85v-200z" />
<glyph unicode="&#xf9;" horiz-adv-x="420" d="M320 500v-355q-2 -52 -33.5 -81t-76.5 -29q-51 0 -80.5 30.5t-29.5 84.5v350h-40v-350q0 -34 11.5 -62.5t31.5 -49t47.5 -32t59.5 -11.5q36 0 67 16t52 43q7 -25 23 -39.5t48 -14.5v40q-15 0 -23 7.5t-12 21t-4.5 32.5t-0.5 43v356h-40zM205 590l-53 120h46l39 -120h-32z " />
<glyph unicode="&#xfa;" horiz-adv-x="420" d="M360 500v-356q0 -24 0.5 -43t4.5 -32.5t12 -21t23 -7.5v-40q-32 0 -48 14.5t-23 39.5q-21 -27 -52 -43t-67 -16q-32 0 -59.5 11.5t-47.5 32t-31.5 49t-11.5 62.5v350h40v-350q0 -54 29.5 -84.5t80.5 -30.5q45 0 76.5 29t33.5 81v355h40zM197 590l39 120h44l-51 -120h-32z " />
<glyph unicode="&#xfb;" horiz-adv-x="420" d="M320 500v-355q-2 -52 -33.5 -81t-76.5 -29q-51 0 -80.5 30.5t-29.5 84.5v350h-40v-350q0 -34 11.5 -62.5t31.5 -49t47.5 -32t59.5 -11.5q36 0 67 16t52 43q7 -25 23 -39.5t48 -14.5v40q-15 0 -23 7.5t-12 21t-4.5 32.5t-0.5 43v356h-40zM257 590l-47 101l-47 -101h-46 l70 120h46l70 -120h-46z" />
<glyph unicode="&#xfc;" horiz-adv-x="420" d="M360 500v-356q0 -24 0.5 -43t4.5 -32.5t12 -21t23 -7.5v-40q-32 0 -48 14.5t-23 39.5q-21 -27 -52 -43t-67 -16q-32 0 -59.5 11.5t-47.5 32t-31.5 49t-11.5 62.5v350h40v-350q0 -54 29.5 -84.5t80.5 -30.5q45 0 76.5 29t33.5 81v355h40zM118 615q0 11 7 18t18 7t18 -7 t7 -18t-7 -18t-18 -7t-18 7t-7 18zM248 615q0 11 7 18t18 7t18 -7t7 -18t-7 -18t-18 -7t-18 7t-7 18z" />
<glyph unicode="&#xfd;" horiz-adv-x="345" d="M151 -33l-131 533h42l110 -449l111 449h42l-162 -651q-6 -26 -20.5 -46.5t-33.5 -35.5t-42 -23.5t-47 -9.5v40q36 2 65.5 24.5t38.5 58.5zM165 590l39 120h44l-51 -120h-32z" />
<glyph unicode="&#xfe;" horiz-adv-x="405" d="M140 61q14 -10 32 -15.5t38 -5.5q48 0 79 30t31 85v195q0 54 -29.5 84.5t-80.5 30.5q-48 0 -79 -30.5t-31 -84.5v-610h-40v960h40v-253q20 22 49 40t61 18t59.5 -11.5t47.5 -32t31.5 -49t11.5 -62.5v-195q0 -35 -12 -64t-32.5 -49t-47.5 -31t-58 -11q-38 0 -70 17v44z " />
<glyph unicode="&#xff;" horiz-adv-x="345" d="M151 -33l-131 533h42l110 -449l111 449h42l-162 -651q-6 -26 -20.5 -46.5t-33.5 -35.5t-42 -23.5t-47 -9.5v40q36 2 65.5 24.5t38.5 58.5zM83 615q0 11 7 18t18 7t18 -7t7 -18t-7 -18t-18 -7t-18 7t-7 18zM213 615q0 11 7 18t18 7t18 -7t7 -18t-7 -18t-18 -7t-18 7t-7 18 z" />
<glyph unicode="&#x152;" horiz-adv-x="815" d="M65 495q0 45 16 83.5t44 66.5t65.5 44t79.5 16q22 0 45 -5h460v-40h-377q35 -29 56 -71t21 -94v-85h200v-40h-200v-165q0 -52 -21 -94.5t-56 -70.5h377v-40h-460q-23 -5 -45 -5q-42 0 -79.5 16t-65.5 44t-44 66.5t-16 83.5v290zM435 495q0 37 -13 68.5t-35.5 54t-52.5 35 t-64 12.5t-64 -12.5t-52.5 -35t-35.5 -54t-13 -68.5v-290q0 -37 13 -68.5t35.5 -54t52.5 -35t64 -12.5t64 12.5t52.5 35t35.5 54t13 68.5v290z" />
<glyph unicode="&#x153;" horiz-adv-x="647" d="M195 -5q-32 0 -59.5 11.5t-47.5 32t-31.5 49t-11.5 62.5v200q0 35 11.5 63.5t31.5 49t47.5 31.5t59.5 11q42 0 76 -20t54 -55q19 35 53 55t77 20q31 0 58 -11.5t47.5 -32t32.5 -49t12 -62.5q0 -29 -12 -54.5t-32.5 -44.5t-47.5 -30t-58 -11h-70v40h70q48 0 79 27.5 t31 72.5q0 54 -31 84.5t-79 30.5q-51 0 -80.5 -28t-29.5 -82v-205q0 -55 29.5 -85t80.5 -30q56 0 91 44l32 -21q-20 -29 -53 -46t-70 -17q-43 0 -77 19.5t-54 54.5q-20 -35 -54 -54.5t-75 -19.5zM85 150q0 -54 29.5 -84.5t80.5 -30.5q48 0 79 30.5t31 84.5v205 q-2 53 -32.5 81.5t-77.5 28.5q-51 0 -80.5 -30t-29.5 -85v-200z" />
<glyph unicode="&#x178;" horiz-adv-x="410" d="M226 344v-344h-40v344l-161 356h46l135 -300l135 300h44zM115 815q0 11 7 18t18 7t18 -7t7 -18t-7 -18t-18 -7t-18 7t-7 18zM245 815q0 11 7 18t18 7t18 -7t7 -18t-7 -18t-18 -7t-18 7t-7 18z" />
<glyph unicode="&#x2c6;" horiz-adv-x="366" d="M230 590l-47 101l-47 -101h-46l70 120h46l70 -120h-46z" />
<glyph unicode="&#x2dc;" horiz-adv-x="403" d="M60 639q13 29 35 41t46 12q19 0 34.5 -7.5t29 -17t27 -17t30.5 -7.5q14 0 26 9.5t19 26.5l36 -16q-13 -29 -34 -42t-47 -13q-18 0 -33 7.5t-29 17t-28 17t-31 7.5q-14 0 -26 -9t-19 -25z" />
<glyph unicode="&#x2000;" horiz-adv-x="457" />
<glyph unicode="&#x2001;" horiz-adv-x="915" />
<glyph unicode="&#x2002;" horiz-adv-x="457" />
<glyph unicode="&#x2003;" horiz-adv-x="915" />
<glyph unicode="&#x2004;" horiz-adv-x="305" />
<glyph unicode="&#x2005;" horiz-adv-x="228" />
<glyph unicode="&#x2006;" horiz-adv-x="152" />
<glyph unicode="&#x2007;" horiz-adv-x="152" />
<glyph unicode="&#x2008;" horiz-adv-x="114" />
<glyph unicode="&#x2009;" horiz-adv-x="183" />
<glyph unicode="&#x200a;" horiz-adv-x="50" />
<glyph unicode="&#x2010;" horiz-adv-x="390" d="M320 260h-250v40h250v-40z" />
<glyph unicode="&#x2011;" horiz-adv-x="390" d="M320 260h-250v40h250v-40z" />
<glyph unicode="&#x2012;" horiz-adv-x="390" d="M320 260h-250v40h250v-40z" />
<glyph unicode="&#x2013;" horiz-adv-x="500" d="M440 260h-380v40h380v-40z" />
<glyph unicode="&#x2014;" horiz-adv-x="640" d="M570 260h-500v40h500v-40z" />
<glyph unicode="&#x2018;" horiz-adv-x="170" d="M113 687q6 -8 6.5 -18t-3 -18.5t-11.5 -14.5t-19 -6q-14 0 -24.5 10.5t-10.5 24.5q0 17 2.5 29.5t8.5 22.5t15.5 18.5t22.5 18.5h20q-21 -23 -19.5 -37.5t12.5 -29.5z" />
<glyph unicode="&#x2019;" horiz-adv-x="170" d="M57 707q-6 8 -7 18t3 18.5t12 14.5t19 6q14 0 24.5 -10.5t10.5 -24.5q1 -34 -11.5 -52t-37.5 -37h-20q21 23 19.5 37.5t-12.5 29.5z" />
<glyph unicode="&#x201a;" horiz-adv-x="170" d="M57 13q-6 8 -7 18t3 18.5t12 14.5t19 6q14 0 24.5 -10.5t10.5 -24.5q1 -34 -11.5 -52t-37.5 -37h-20q21 23 19.5 37.5t-12.5 29.5z" />
<glyph unicode="&#x201c;" horiz-adv-x="280" d="M223 687q6 -8 6.5 -18t-3 -18.5t-11.5 -14.5t-19 -6q-14 0 -24.5 10.5t-10.5 24.5q0 17 2.5 29.5t8.5 22.5t15.5 18.5t22.5 18.5h20q-21 -23 -19.5 -37.5t12.5 -29.5zM113 687q6 -8 6.5 -18t-3 -18.5t-11.5 -14.5t-19 -6q-14 0 -24.5 10.5t-10.5 24.5q0 17 2.5 29.5 t8.5 22.5t15.5 18.5t22.5 18.5h20q-21 -23 -19.5 -37.5t12.5 -29.5z" />
<glyph unicode="&#x201d;" horiz-adv-x="280" d="M57 707q-6 8 -7 18t3 18.5t12 14.5t19 6q14 0 24.5 -10.5t10.5 -24.5q1 -34 -11.5 -52t-37.5 -37h-20q21 23 19.5 37.5t-12.5 29.5zM167 707q-6 8 -7 18t3 18.5t12 14.5t19 6q14 0 24.5 -10.5t10.5 -24.5q1 -34 -11.5 -52t-37.5 -37h-20q21 23 19.5 37.5t-12.5 29.5z" />
<glyph unicode="&#x201e;" horiz-adv-x="280" d="M57 13q-6 8 -7 18t3 18.5t12 14.5t19 6q14 0 24.5 -10.5t10.5 -24.5q1 -34 -11.5 -52t-37.5 -37h-20q21 23 19.5 37.5t-12.5 29.5zM167 13q-6 8 -7 18t3 18.5t12 14.5t19 6q14 0 24.5 -10.5t10.5 -24.5q1 -34 -11.5 -52t-37.5 -37h-20q21 23 19.5 37.5t-12.5 29.5z" />
<glyph unicode="&#x2022;" horiz-adv-x="300" d="M50 290q0 42 29 71t71 29t71 -29t29 -71t-29 -71t-71 -29t-71 29t-29 71z" />
<glyph unicode="&#x2026;" horiz-adv-x="440" d="M45 35q0 14 10.5 24.5t24.5 10.5t24.5 -10.5t10.5 -24.5t-10.5 -24.5t-24.5 -10.5t-24.5 10.5t-10.5 24.5zM185 35q0 14 10.5 24.5t24.5 10.5t24.5 -10.5t10.5 -24.5t-10.5 -24.5t-24.5 -10.5t-24.5 10.5t-10.5 24.5zM325 35q0 14 10.5 24.5t24.5 10.5t24.5 -10.5 t10.5 -24.5t-10.5 -24.5t-24.5 -10.5t-24.5 10.5t-10.5 24.5z" />
<glyph unicode="&#x202f;" horiz-adv-x="183" />
<glyph unicode="&#x2039;" horiz-adv-x="398" d="M328 142l-258 116v44l258 116v-43l-210 -95q53 -23 105 -47.5t105 -48.5v-42z" />
<glyph unicode="&#x203a;" horiz-adv-x="398" d="M70 184q53 24 105 48.5t105 47.5l-210 95v43l258 -116v-44l-258 -116v42z" />
<glyph unicode="&#x205f;" horiz-adv-x="228" />
<glyph unicode="&#x20ac;" horiz-adv-x="477" d="M275 394h-170v-50h170v-40h-170v-104q0 -39 13 -69t35.5 -52.5t52.5 -35.5t64 -13t64 13t45.5 28.5t23.5 26.5l34 -22q-10 -14 -30 -34t-57.5 -36t-79.5 -16t-79.5 16t-65.5 44t-44 65.5t-16 84.5v300q0 47 16 84.5t44 65.5t65.5 44t79.5 16t79.5 -16t57.5 -36.5 t30 -34.5l-1 1l-33 -22q-8 10 -23.5 26t-45.5 29t-64 13t-64 -13t-52.5 -35.5t-35.5 -52.5t-13 -69v-66h170v-40z" />
<glyph unicode="&#x2122;" horiz-adv-x="760" d="M363 240v460h43l131 -221l130 221h43v-460h-40v386l-118 -199h-30l-119 201v-388h-40zM153 240v420h-103v40h247v-40h-104v-420h-40z" />
<glyph unicode="&#xe000;" horiz-adv-x="500" d="M0 500h500v-500h-500v500z" />
</font>
</defs>
</svg>
