<?xml version="1.0" standalone="no"?>
<!DOCTYPE svg PUBLIC "-//W3C//DTD SVG 1.1//EN" "http://www.w3.org/Graphics/SVG/1.1/DTD/svg11.dtd" >
<svg xmlns="http://www.w3.org/2000/svg">
<metadata></metadata>
<defs>
<font id="snippetregular" horiz-adv-x="520" >
<font-face units-per-em="1000" ascent="800" descent="-200" />
<missing-glyph horiz-adv-x="300" />
<glyph horiz-adv-x="1000" />
<glyph horiz-adv-x="1000" />
<glyph unicode="&#xd;" horiz-adv-x="1000" />
<glyph unicode=" "  horiz-adv-x="300" />
<glyph unicode="&#x09;" horiz-adv-x="300" />
<glyph unicode="&#xa0;" horiz-adv-x="300" />
<glyph unicode="!" horiz-adv-x="270" d="M120 239q0 39 14.5 150t29.5 203l14 92h58q-60 -358 -60 -445q0 -13 2.5 -26.5t5.5 -20.5l2 -7l-56 -12q-10 30 -10 66zM127 45q0 23 16.5 40t39.5 17q24 0 40.5 -17t16.5 -40t-16.5 -39.5t-40.5 -16.5q-23 0 -39.5 16.5t-16.5 39.5z" />
<glyph unicode="&#x22;" horiz-adv-x="282" d="M50 684h72l-10 -192h-52zM160 684h72l-10 -192h-52z" />
<glyph unicode="#" horiz-adv-x="464" d="M40 184v54h77l20 107h-72v54h84l36 179h58l-35 -179h93l35 179h58l-35 -179h65v-54h-77l-20 -107h72v-54h-83l-37 -184h-58l36 184h-93l-36 -184h-58l36 184h-66zM176 238h92l20 107h-92z" />
<glyph unicode="$" horiz-adv-x="557" d="M40 64l33 48q89 -56 169 -65v275q-37 12 -63 25t-52 34.5t-39 53.5t-13 75q0 59 45.5 102t121.5 50v88h58v-88q107 -9 195 -72l-33 -48q-87 54 -162 64v-242q37 -12 58 -19.5t51.5 -24t46.5 -35t28.5 -48.5t12.5 -68q0 -83 -56 -126.5t-141 -50.5v-62h-58v61 q-114 7 -202 73zM137 510q0 -49 27.5 -77.5t77.5 -48.5v224q-49 -5 -77 -32t-28 -66zM300 46q135 11 135 123q0 54 -35 83t-100 51v-257z" />
<glyph unicode="%" horiz-adv-x="750" d="M100 514q0 65 33 107t87 42q53 0 86.5 -42.5t33.5 -106.5t-33.5 -106t-86.5 -42q-54 0 -87 42t-33 106zM154 514q0 -48 18 -78t48 -30t48 30t18 78t-18 78.5t-48 30.5t-48 -30.5t-18 -78.5zM276 0l219 653h58l-218 -653h-59zM490 138q0 65 33 107t87 42q53 0 86.5 -42.5 t33.5 -106.5t-33.5 -106t-86.5 -42q-54 0 -87 42t-33 106zM544 138q0 -48 18 -78t48 -30t48 30t18 78t-18 78.5t-48 30.5t-48 -30.5t-18 -78.5z" />
<glyph unicode="&#x26;" horiz-adv-x="606" d="M60 166q0 57 28.5 108t82.5 78q-51 60 -51 128q0 67 45.5 110.5t131.5 43.5q24 0 114 -8v-52q-104 8 -121 8q-55 0 -80 -28t-25 -74q0 -18 6.5 -36t13 -30t24.5 -31.5t25 -26.5t31.5 -29t28.5 -26l151 -142q40 70 40 158v40h53v-42q0 -109 -53 -192l91 -85l-36 -41 l-89 82q-84 -89 -216 -89q-84 0 -139.5 48t-55.5 128zM117 170q0 -58 40 -93t98 -35q110 0 177 72l-149 138l-73 62q-46 -21 -69.5 -60.5t-23.5 -83.5z" />
<glyph unicode="'" horiz-adv-x="172" d="M50 684h72l-10 -192h-52z" />
<glyph unicode="(" horiz-adv-x="383" d="M50 294q0 142 65.5 264t192.5 192l25 -43q-96 -55 -159 -172.5t-63 -240.5t63 -240t159 -172l-25 -43q-127 70 -192.5 192t-65.5 263z" />
<glyph unicode=")" horiz-adv-x="413" d="M80 -118q96 55 159 172t63 240t-63 240.5t-159 172.5l25 43q127 -70 192.5 -192t65.5 -264q0 -141 -65.5 -263t-192.5 -192z" />
<glyph unicode="*" horiz-adv-x="415" d="M60 562l19 57l105 -41l-6 116h60l-7 -117l107 42l17 -57l-104 -29l67 -81l-49 -34l-61 94l-62 -96l-48 36l68 82z" />
<glyph unicode="+" horiz-adv-x="472" d="M50 268v51h158v160h56v-160h158v-51h-158v-161h-56v161h-158z" />
<glyph unicode="," horiz-adv-x="249" d="M60 -127q40 43 40 119v60q0 14 9.5 23.5t22.5 9.5q14 0 23 -9.5t9 -23.5v-60q0 -102 -70 -152z" />
<glyph unicode="-" horiz-adv-x="497" d="M100 277v57h297v-57h-297z" />
<glyph unicode="." horiz-adv-x="313" d="M100 45q0 23 16.5 40t39.5 17q24 0 40.5 -17t16.5 -40t-16.5 -39.5t-40.5 -16.5q-23 0 -39.5 16.5t-16.5 39.5z" />
<glyph unicode="/" horiz-adv-x="392" d="M50 -70l219 820h63l-218 -820h-64z" />
<glyph unicode="0" horiz-adv-x="682" d="M70 326q0 146 75 241.5t196 95.5t196 -95.5t75 -241.5q0 -145 -75 -240.5t-196 -95.5t-196 95.5t-75 240.5zM133 326q0 -124 58 -202.5t151 -78.5t150.5 78t57.5 203t-57.5 203.5t-150.5 78.5q-94 0 -151.5 -78t-57.5 -204z" />
<glyph unicode="1" horiz-adv-x="388" d="M10 521l12 43q15 -3 29 -3q44 0 94 28q20 11 125 80h8v-669h-61v573q-79 -64 -153 -64q-27 0 -54 12z" />
<glyph unicode="2" horiz-adv-x="491" d="M25 0v13q0 65 35.5 121.5t86.5 97t102 78.5t86.5 82.5t35.5 92.5q0 60 -34 93t-98 33q-77 0 -181 -8v52q90 8 174 8q102 0 149 -48.5t47 -132.5q0 -56 -31 -104.5t-77 -84.5t-93.5 -70.5t-87 -77t-50.5 -88.5h372v-57h-436z" />
<glyph unicode="3" horiz-adv-x="499" d="M35 1v54q79 -10 168 -10q87 0 132 33t45 110q0 89 -77 156q-59 -22 -145 -22h-19v55h21q32 0 56 2t50 9t42.5 19.5t27.5 34.5t11 53q0 116 -132 116q-67 0 -171 -8v52q90 8 164 8q196 0 196 -171q0 -79 -52 -120q87 -74 87 -188q0 -97 -61 -145.5t-172 -48.5 q-34 0 -76.5 3t-68.5 5z" />
<glyph unicode="4" horiz-adv-x="586" d="M70 237l60 416h61l-52 -359h301v359h61v-653h-61v237h-370z" />
<glyph unicode="5" horiz-adv-x="514" d="M15 649l33 34q39 -36 119 -36l245 6v-57q-119 -4 -245 -4h-28v-192q39 10 90 10q112 0 173.5 -50.5t61.5 -153.5q0 -96 -61 -156t-172 -60q-34 0 -76.5 3t-68.5 5l-26 3v55q79 -10 168 -10q88 0 132.5 43.5t44.5 120.5q0 78 -49.5 111t-141.5 33q-32 0 -64.5 -5 t-49.5 -10l-17 -5l-5 4v265q-41 15 -63 46z" />
<glyph unicode="6" horiz-adv-x="589" d="M70 326q0 186 70 261.5t204 75.5q34 0 124 -8v-52q-104 8 -131 8q-106 0 -152.5 -66.5t-51.5 -188.5q85 35 173 35q110 0 161.5 -51t51.5 -140q0 -98 -53 -154t-160 -56q-82 0 -136.5 45.5t-77 118.5t-22.5 172zM133 302q5 -117 50 -187t124 -70q151 0 151 157 q0 134 -151 134q-78 0 -174 -34z" />
<glyph unicode="7" horiz-adv-x="462" d="M20 649l33 34q38 -35 119 -35q28 0 119 2.5t136 2.5v-8l-254 -645h-64l239 596q-97 -3 -176 -3q-112 0 -152 56z" />
<glyph unicode="8" horiz-adv-x="577" d="M65 182q0 34 10 63.5t30.5 54t35.5 38t41 34.5q-81 46 -81 129q0 70 51 117.5t136 47.5q84 0 135.5 -48t51.5 -117q0 -79 -92 -140q129 -58 129 -179q0 -86 -57.5 -142t-165.5 -56t-166 56t-58 142zM127 184q0 -65 42.5 -105.5t119.5 -40.5t119 40.5t42 105.5 q0 29 -11.5 53t-28 39.5t-44.5 29t-50 20.5t-56 16l-22 6q-63 -53 -84 -83q-27 -39 -27 -81zM163 500q0 -21 9.5 -38t20.5 -27t34.5 -20.5t36 -14t40.5 -11.5q1 0 10 -3t14 -4q41 29 63 55.5t22 62.5q0 48 -34.5 79.5t-90.5 31.5t-90.5 -31t-34.5 -80z" />
<glyph unicode="9" horiz-adv-x="589" d="M70 453q0 98 53 154t160 56q82 0 136.5 -45.5t77 -118.5t22.5 -172q0 -186 -70 -261.5t-204 -75.5q-34 0 -124 8v52q104 -8 131 -8q105 0 152 67t51 188q-83 -35 -172 -35q-110 0 -161.5 51t-51.5 140zM131 451q0 -134 151 -134q87 0 173 34q-4 117 -49 187t-124 70 q-151 0 -151 -157z" />
<glyph unicode=":" horiz-adv-x="313" d="M120 45q0 23 16.5 40t39.5 17q24 0 40.5 -17t16.5 -40t-16.5 -39.5t-40.5 -16.5q-23 0 -39.5 16.5t-16.5 39.5zM120 442q0 23 16.5 40t39.5 17q24 0 40.5 -17t16.5 -40t-16.5 -39.5t-40.5 -16.5q-23 0 -39.5 16.5t-16.5 39.5z" />
<glyph unicode=";" horiz-adv-x="313" d="M103 -127q40 43 40 119v60q0 14 9.5 23.5t22.5 9.5q14 0 23 -9.5t9 -23.5v-60q0 -102 -70 -152zM120 442q0 23 16.5 40t39.5 17q24 0 40.5 -17t16.5 -40t-16.5 -39.5t-40.5 -16.5q-23 0 -39.5 16.5t-16.5 39.5z" />
<glyph unicode="&#x3c;" horiz-adv-x="391" d="M30 265l266 185l32 -47l-196 -136l198 -138l-34 -49z" />
<glyph unicode="=" horiz-adv-x="472" d="M60 187v52h352v-52h-352zM60 347v52h352v-52h-352z" />
<glyph unicode="&#x3e;" horiz-adv-x="391" d="M60 401l34 49l266 -185l-266 -185l-32 47l196 136z" />
<glyph unicode="?" horiz-adv-x="430" d="M50 635v52q90 8 174 8q102 0 149 -48.5t47 -132.5q0 -40 -16 -72t-39.5 -51t-51.5 -38t-51.5 -33t-39.5 -35t-16 -46q0 -13 2.5 -26.5t5.5 -20.5l2 -7l-59 -12q-10 30 -10 66q0 43 22 74.5t54 51t64 38.5t54 47.5t22 66.5q0 60 -34 93t-98 33q-77 0 -181 -8zM161 45 q0 23 16.5 40t39.5 17q24 0 40.5 -17t16.5 -40t-16.5 -39.5t-40.5 -16.5q-23 0 -39.5 16.5t-16.5 39.5z" />
<glyph unicode="@" horiz-adv-x="759" d="M90 233q0 140 80.5 228t217.5 88q133 0 214.5 -81.5t81.5 -211.5q0 -79 -41 -123.5t-96 -44.5q-88 0 -102 82q-19 -62 -87 -62q-37 0 -60.5 22.5t-23.5 63.5q0 43 35 63t86 20h40v24q0 56 -54 56q-29 0 -73 -24l-22 36q52 31 95 31q100 0 100 -94v-92q0 -43 20 -62 t46 -19q31 0 57.5 32t26.5 93q0 111 -67.5 177.5t-175.5 66.5q-111 0 -177.5 -74t-66.5 -192q0 -112 67.5 -179.5t176.5 -67.5q81 0 195 37l14 -45q-114 -40 -209 -40q-134 0 -216 80.5t-82 211.5zM321 194q0 -20 13.5 -32.5t34.5 -12.5q23 0 41.5 26.5t23.5 63.5h-39 q-74 0 -74 -45z" />
<glyph unicode="A" horiz-adv-x="635" d="M10 0l297 703h19l299 -703h-64l-97 227h-295l-95 -227h-64zM193 284h247l-99 233q-14 32 -25 78q-10 -45 -24 -78z" />
<glyph unicode="B" horiz-adv-x="618" d="M10 690l33 34q43 -40 119 -40q28 0 70.5 5t87.5 5q89 0 145.5 -50t56.5 -130q0 -105 -96 -147q58 -23 92.5 -71.5t34.5 -109.5q0 -90 -62.5 -143.5t-170.5 -53.5q-56 0 -106.5 2.5t-72.5 5.5l-22 3v631q-74 11 -109 59zM180 49q65 -5 137 -5q84 0 130.5 38.5t46.5 107.5 q0 61 -47 102t-121 42h-146v-285zM180 389h139q64 0 103.5 33t39.5 92t-39 92t-106 33q-48 0 -85 -5t-52 -5v-240z" />
<glyph unicode="C" horiz-adv-x="644" d="M60 342q0 151 91.5 251.5t236.5 100.5q105 0 160.5 -37.5t55.5 -101.5q0 -59 -53 -94t-163 -35h-258q-9 -39 -9 -84q0 -135 58.5 -216t168.5 -81q56 0 119 25t106 53l26 -45q-41 -32 -109 -60t-142 -28q-142 0 -215 97.5t-73 254.5zM146 478h242q85 0 119 19t34 58 q0 84 -153 84q-83 0 -146.5 -43t-95.5 -118z" />
<glyph unicode="D" horiz-adv-x="769" d="M5 690l33 34q43 -40 119 -40q28 0 94 5t111 5q157 0 252 -100t95 -252q0 -153 -95 -252.5t-252 -99.5q-91 0 -153 2.5t-79 5.5l-16 2v631q-74 11 -109 59zM175 50q68 -5 187 -5q131 0 209 82t78 215t-78 215t-209 82q-40 0 -102.5 -5t-84.5 -5v-579z" />
<glyph unicode="E" horiz-adv-x="593" d="M95 0v684h448v-57h-387v-237h317v-57h-317v-276h407v-57h-468z" />
<glyph unicode="F" horiz-adv-x="553" d="M95 0v684h448v-57h-387v-245h317v-57h-317v-325h-61z" />
<glyph unicode="G" horiz-adv-x="689" d="M60 342q0 152 93.5 252t244.5 100q106 0 166 -38t60 -101q0 -59 -53 -94t-163 -35h-278q-9 -39 -9 -84q0 -136 61 -216.5t176 -80.5q50 0 87.5 16t56 37.5t29.5 50t13.5 46.5t2.5 35v83h59v-563h-59v325q-60 -85 -189 -85q-149 0 -223.5 97t-74.5 255zM147 478h261 q85 0 119 19t34 58q0 41 -43.5 62.5t-119.5 21.5q-88 0 -153.5 -43t-97.5 -118z" />
<glyph unicode="H" horiz-adv-x="681" d="M95 0v684h61v-300h369v300h61v-684h-61v327h-369v-327h-61z" />
<glyph unicode="I" horiz-adv-x="251" d="M95 0v684h61v-684h-61z" />
<glyph unicode="J" horiz-adv-x="449" d="M35 627v57h319v-499q0 -205 -129 -205q-66 0 -107.5 51.5t-41.5 153.5q0 114 56.5 176t166.5 71v195h-264zM136 185q0 -73 23.5 -112.5t65.5 -39.5q39 0 56.5 33t17.5 119v195q-84 -8 -123.5 -55t-39.5 -140z" />
<glyph unicode="K" horiz-adv-x="610" d="M95 0v684h61v-308h160l-2 -7h1l1 7h3l194 316l52 -32l-182 -293q84 -25 119 -121l88 -246h-64l-70 208q-11 32 -20 50t-25 34.5t-41.5 23t-63.5 6.5h-150v-322h-61z" />
<glyph unicode="L" horiz-adv-x="503" d="M95 0v684h61v-627h327v-57h-388z" />
<glyph unicode="M" horiz-adv-x="814" d="M95 0v693h19l266 -339q8 -10 21 -24l299 363h19v-693h-61v454q0 46 8 114q-61 -85 -86 -114l-136 -161q44 -32 91 -43l-15 -45q-117 25 -201 128l-98 121q-33 41 -73 103q8 -66 8 -103v-454h-61z" />
<glyph unicode="N" horiz-adv-x="764" d="M95 0v694h19l461 -550q18 -23 34 -37q-4 35 -4 82v496h61v-621q29 -16 53 -21l-15 -45q-44 9 -83 31.5t-60 43t-47 50.5l-286 332q-31 35 -79 106q7 -79 7 -106v-455h-61z" />
<glyph unicode="O" horiz-adv-x="795" d="M60 342q0 152 93.5 252t244.5 100q45 0 116 -5t99 -5q76 0 119 40l33 -34q-40 -55 -129 -61q99 -128 99 -287q0 -152 -93.5 -252t-243.5 -100q-151 0 -244.5 100t-93.5 252zM121 342q0 -132 76.5 -214.5t200.5 -82.5t200.5 82.5t76.5 214.5q0 58 -14 111t-36.5 89.5 t-36.5 55t-28 32.5q-147 9 -163 9q-123 0 -199.5 -82.5t-76.5 -214.5z" />
<glyph unicode="P" horiz-adv-x="558" d="M5 690l33 34q43 -40 119 -40q28 0 70.5 5t87.5 5q93 0 150.5 -61.5t57.5 -155.5t-57.5 -156t-150.5 -62l-89 2v55q41 -2 86 -2q68 0 110 45t42 118q0 72 -42 117t-110 45q-48 0 -85 -5t-52 -5v-629h-61v631q-74 11 -109 59z" />
<glyph unicode="Q" horiz-adv-x="795" d="M60 342q0 152 93.5 252t244.5 100q150 0 243.5 -100t93.5 -252t-93.5 -252t-243.5 -100q-5 0 -14.5 0.5t-13.5 0.5l-59 -85l80 -27q58 -20 118 -20q41 0 90 35l25 -44q-59 -43 -115 -43q-64 0 -130 22l-99 33l-42 -61l-43 33l118 166q-116 27 -184.5 120.5t-68.5 221.5z M121 342q0 -132 76.5 -214.5t200.5 -82.5t200.5 82.5t76.5 214.5t-76.5 214.5t-200.5 82.5t-200.5 -82.5t-76.5 -214.5z" />
<glyph unicode="R" horiz-adv-x="591" d="M5 690l33 34q43 -40 119 -40q28 0 70.5 5t87.5 5q89 0 145.5 -56t56.5 -142q0 -67 -33.5 -112.5t-92.5 -63.5q56 -26 90 -104l90 -216h-66l-70 178q-23 59 -61 89t-103 30h-96v-297h-61v631q-74 11 -109 59zM175 352h139q63 0 103 39t40 105q0 65 -39.5 104t-105.5 39 q-48 0 -85 -5t-52 -5v-277z" />
<glyph unicode="S" horiz-adv-x="532" d="M35 64l33 48q108 -67 202 -67q71 0 115.5 29.5t44.5 94.5q0 35 -12.5 61t-40 45.5t-50.5 30.5t-63 26q-34 13 -47 18.5t-42.5 19.5t-43 27t-30.5 33.5t-24 47t-7 59.5q0 65 54 109.5t142 44.5q23 0 53 -1t37 -1q33 0 53 7.5t41 27.5l33 -34q-25 -35 -53.5 -45.5 t-73.5 -10.5q-10 0 -44 1t-56 1q-58 0 -91 -28t-33 -71q0 -35 12 -60.5t41 -44t48.5 -27t63.5 -24.5q41 -15 70 -29.5t60.5 -39t48 -60.5t16.5 -83q0 -91 -67.5 -135t-165.5 -44q-123 0 -224 74z" />
<glyph unicode="T" horiz-adv-x="569" d="M15 627v57h539v-57h-239v-627h-61v627h-239z" />
<glyph unicode="U" horiz-adv-x="715" d="M90 267v417h61v-417q0 -103 56.5 -162.5t149.5 -59.5q94 0 150.5 59.5t56.5 162.5v417h61v-417q0 -123 -73.5 -200t-193.5 -77q-121 0 -194.5 76.5t-73.5 200.5z" />
<glyph unicode="V" horiz-adv-x="659" d="M35 679l59 15l167 -558q25 -90 99 -97l212 655l57 -17l-221 -685q-26 -6 -52 -6q-60 0 -98.5 38.5t-55.5 96.5z" />
<glyph unicode="W" horiz-adv-x="972" d="M40 680l59 15l144 -559q12 -46 33.5 -70t60.5 -27l126 282v249h61v-249l86 -203q30 -73 91 -79l179 657l57 -17l-186 -687q-25 -6 -52 -6q-102 0 -148 117l-57 144l-114 -255q-26 -6 -52 -6q-59 0 -94 38.5t-50 96.5z" />
<glyph unicode="X" horiz-adv-x="586" d="M50 0l156 365q-40 38 -61 96l-82 217l58 16l83 -218q16 -40 40 -64.5t70 -35.5l9 -3l142 321l58 -16l-146 -333q44 -34 70 -99l99 -246h-64l-94 231q-17 42 -44.5 64.5t-73.5 33.5l-12 3l-142 -332h-66z" />
<glyph unicode="Y" horiz-adv-x="532" d="M35 680l59 15l97 -289q30 -96 120 -97l134 385l57 -17l-144 -415q-28 -6 -51 -6v-256h-61v264q-82 28 -114 127z" />
<glyph unicode="Z" horiz-adv-x="541" d="M40 0v13l359 614h-339v57h431v-13l-359 -614h379v-57h-471z" />
<glyph unicode="[" horiz-adv-x="328" d="M50 -174v924h238v-57h-177v-810h177v-57h-238z" />
<glyph unicode="\" horiz-adv-x="392" d="M50 750h63l219 -820h-64z" />
<glyph unicode="]" horiz-adv-x="328" d="M40 -117h177v810h-177v57h238v-924h-238v57z" />
<glyph unicode="^" d="M75 363l175 252h20l175 -252l-50 -35l-137 196l-135 -194z" />
<glyph unicode="_" horiz-adv-x="440" d="M0 -78h440v-55h-440v55z" />
<glyph unicode="`" d="M163 677l36 49l158 -125l-22 -34z" />
<glyph unicode="a" horiz-adv-x="492" d="M40 133q0 77 61 112t150 35h97v56q0 62 -25 91t-79 29q-75 0 -148 -54l-27 42q31 27 78.5 45.5t96.5 18.5q159 0 159 -161v-203q0 -77 39 -119l-34 -33q-37 28 -52 80q-41 -82 -156 -82q-71 0 -115.5 37.5t-44.5 105.5zM97 133q0 -91 103 -91q62 0 104 34t44 94v59h-97 q-154 0 -154 -96z" />
<glyph unicode="b" horiz-adv-x="553" d="M85 10v716h55v-293q48 75 150 75q99 0 156 -73t57 -184q0 -113 -64.5 -187t-168.5 -74q-53 0 -99 5t-66 10zM140 51q72 -9 129 -9q80 0 128.5 57t48.5 149q0 87 -41 147.5t-115 60.5q-54 0 -99 -33.5t-51 -94.5v-277z" />
<glyph unicode="c" horiz-adv-x="435" d="M60 247q0 47 8.5 88.5t28.5 82.5t60.5 65.5t98.5 24.5q44 0 134 -8v-52q-104 8 -141 8q-132 0 -132 -206q0 -100 41.5 -154t117.5 -54q58 0 133 48l26 -42q-74 -58 -161 -58q-99 0 -156.5 67.5t-57.5 189.5z" />
<glyph unicode="d" horiz-adv-x="558" d="M50 247q0 113 64.5 187t168.5 74q61 0 131 -9v228h55v-583q0 -77 39 -119l-34 -33q-39 29 -53 86q-21 -41 -63 -64.5t-95 -23.5q-99 0 -156 73t-57 184zM107 250q0 -87 41 -147.5t115 -60.5q59 0 105 38.5t46 107.5v258q-80 10 -130 10q-80 0 -128.5 -57t-48.5 -149z" />
<glyph unicode="e" d="M60 247q0 107 61 184t156 77q77 0 129 -41.5t52 -110.5q0 -82 -63 -119t-157 -37h-118q18 -158 168 -158q67 0 156 48l26 -42q-85 -58 -182 -58q-112 0 -170 66.5t-58 190.5zM117 252h121q163 0 163 104q0 46 -34.5 74.5t-89.5 28.5q-70 0 -114.5 -62.5t-45.5 -144.5z " />
<glyph unicode="f" horiz-adv-x="393" d="M85 -250v744q0 240 157 240q71 0 108.5 -41t37.5 -101q0 -89 -54 -142t-146 -53h-48v-108h148v-52h-148v-487h-55zM140 449h48q73 0 108 41t35 102q0 38 -23.5 64t-65.5 26q-102 0 -102 -185v-48z" />
<glyph unicode="g" horiz-adv-x="590" d="M25 111q0 51 41.5 80.5t106.5 31.5q-36 44 -36 110q0 80 52.5 127.5t135.5 47.5q34 0 69 -10h165v-51l-91 6q45 -47 45 -120q0 -80 -52.5 -127t-135.5 -47q-56 0 -98 21q-20 2 -33 2q-47 0 -80.5 -16t-33.5 -52q0 -37 30.5 -49.5t90.5 -12.5q20 0 66.5 1.5t71.5 1.5 q48 0 85 -5.5t72 -20.5t54.5 -45.5t19.5 -74.5q0 -60 -38.5 -99t-91 -53t-116.5 -14q-63 0 -114 14.5t-88 53t-37 98.5q0 54 5 109q-65 27 -65 93zM140 -91q0 -55 47 -84.5t137 -29.5q50 0 89.5 8.5t70.5 35t31 70.5q0 29 -14.5 48t-42 28.5t-56.5 13t-68 3.5 q-15 0 -55 -1.5t-62 -1.5q-44 0 -74 5q-3 -33 -3 -95zM192 334q0 -56 35.5 -89t96.5 -33q60 0 96 33.5t36 88.5t-36 88.5t-96 33.5q-61 0 -96.5 -33t-35.5 -89z" />
<glyph unicode="h" horiz-adv-x="542" d="M85 0v726h55v-306q63 88 163 88q168 0 168 -161q0 -51 -4 -120.5t-4 -98.5q0 -67 24 -128h-53q-26 50 -26 134q0 28 4 90t4 112q0 120 -113 120q-50 0 -88 -25t-75 -76v-355h-55z" />
<glyph unicode="i" horiz-adv-x="236" d="M55 472l34 33q61 -44 61 -152v-353h-55v353q0 76 -40 119zM68 662q0 19 13.5 33t32.5 14q20 0 33.5 -13.5t13.5 -33.5q0 -19 -14 -32.5t-33 -13.5t-32.5 13.5t-13.5 32.5z" />
<glyph unicode="j" horiz-adv-x="238" d="M57 472l34 33q61 -44 61 -152v-603h-55v603q0 76 -40 119zM70 662q0 19 13.5 33t32.5 14q20 0 33.5 -13.5t13.5 -33.5q0 -19 -14 -32.5t-33 -13.5t-32.5 13.5t-13.5 32.5z" />
<glyph unicode="k" horiz-adv-x="527" d="M85 0v726h55v-317q52 99 157 99q76 0 124 -41.5t48 -110.5q0 -107 -107 -142q37 -24 58 -68l67 -146h-62l-54 120q-17 38 -41 58t-63 22h-127v-200h-55zM142 252h116q92 0 123 29.5t31 74.5q0 47 -30.5 75t-84.5 28q-69 0 -112 -62.5t-43 -144.5z" />
<glyph unicode="l" horiz-adv-x="245" d="M85 143v583h55v-583q0 -76 40 -119l-34 -33q-61 44 -61 152z" />
<glyph unicode="m" horiz-adv-x="817" d="M50 472l34 33q40 -28 54 -88q54 91 156 91q50 0 87 -23.5t53 -69.5q28 46 69.5 69.5t84.5 23.5q73 0 116 -42.5t43 -118.5q0 -51 -4.5 -120.5t-4.5 -98.5q0 -67 24 -128h-53q-26 50 -26 134q0 28 4 90t4 112q0 120 -102 120q-92 0 -144 -99v-357h-55v336q0 120 -102 120 q-42 0 -82.5 -27t-60.5 -71v-358h-55v353q0 76 -40 119z" />
<glyph unicode="n" horiz-adv-x="547" d="M50 472l34 33q43 -31 55 -92q65 95 169 95q168 0 168 -161q0 -51 -4 -120.5t-4 -98.5q0 -67 24 -128h-53q-26 50 -26 134q0 28 4 90t4 112q0 120 -113 120q-50 0 -88 -25t-75 -76v-355h-55v353q0 76 -40 119z" />
<glyph unicode="o" horiz-adv-x="597" d="M50 247q0 113 69 187t180 74t179.5 -73t68.5 -185q0 -114 -68.5 -187t-179.5 -73q-112 0 -180.5 72t-68.5 185zM107 250q0 -94 52.5 -151t139.5 -57q86 0 138.5 58.5t52.5 151.5q0 92 -52.5 148t-138.5 56q-87 0 -139.5 -56.5t-52.5 -149.5z" />
<glyph unicode="p" horiz-adv-x="558" d="M50 472l34 33q40 -30 53 -84q21 41 63 64t95 23q99 0 156 -73t57 -184q0 -113 -64.5 -187t-168.5 -74q-60 0 -130 9v-249h-55v603q0 76 -40 119zM145 51q72 -9 129 -9q80 0 128.5 57t48.5 149q0 87 -41 147.5t-115 60.5q-54 0 -99 -33.5t-51 -94.5v-277z" />
<glyph unicode="q" horiz-adv-x="558" d="M55 247q0 113 64.5 187t168.5 74q53 0 99 -5t66 -10l20 -5v-738h-55v314q-48 -74 -150 -74q-99 0 -156 73t-57 184zM112 250q0 -87 41 -147.5t115 -60.5q54 0 99 33.5t51 94.5v276q-60 10 -129 10q-80 0 -128.5 -57t-48.5 -149z" />
<glyph unicode="r" horiz-adv-x="364" d="M50 472l34 33q42 -31 55 -88q52 91 146 91q14 0 28.5 -2t22.5 -4l8 -2v-52q-30 7 -66 7q-77 0 -133 -98v-357h-55v353q0 76 -40 119z" />
<glyph unicode="s" horiz-adv-x="417" d="M35 48l28 42q73 -48 149 -48q47 0 77 20t30 63q0 38 -26.5 62t-64 37.5t-75 29t-64 48.5t-26.5 85q0 50 40.5 85.5t105.5 35.5q53 0 120 -6v-52q-78 6 -127 6q-37 0 -59 -20t-22 -49q0 -38 26.5 -61.5t64 -37t75 -29t64 -49t26.5 -85.5q0 -69 -50 -102t-123 -33 q-95 0 -169 58z" />
<glyph unicode="t" horiz-adv-x="398" d="M55 623l34 33q61 -44 61 -152v-6h158v-55h-158v-300q0 -101 75 -101q53 0 132 48l26 -42q-22 -18 -72 -38t-96 -20q-120 0 -120 153v361q0 76 -40 119z" />
<glyph unicode="u" horiz-adv-x="536" d="M55 488l48 16q29 -45 29 -140q0 -28 -4 -90t-4 -112q0 -62 25.5 -91t82.5 -29q50 0 85.5 25t74.5 78v353h55v-354q0 -77 39 -119l-34 -33q-43 31 -55 95q-63 -97 -165 -97q-163 0 -163 161q0 51 4 120.5t4 98.5q0 68 -22 118z" />
<glyph unicode="v" horiz-adv-x="516" d="M35 488l54 15l105 -367q25 -92 97 -102l148 469l52 -17l-155 -494q-26 -6 -47 -6q-60 0 -96 38.5t-53 96.5z" />
<glyph unicode="w" horiz-adv-x="766" d="M45 488l54 15l90 -367q21 -94 88 -102l85 247v217h56v-217l51 -145q16 -47 35 -71.5t51 -29.5l124 468l52 -17l-130 -494q-25 -6 -47 -6q-98 0 -139 135l-26 85l-68 -214q-25 -6 -47 -6q-105 0 -139 135z" />
<glyph unicode="x" horiz-adv-x="469" d="M45 0l114 266q-37 35 -59 100l-45 120l53 16l46 -121q17 -43 38.5 -67t66.5 -35q1 -1 4 -1l100 224l53 -16l-102 -233q43 -30 68 -102l52 -151h-59l-47 136q-15 44 -41 66.5t-72 33.5q-3 0 -7 2l-102 -238h-61z" />
<glyph unicode="y" horiz-adv-x="516" d="M35 488l54 15l105 -367q27 -91 95 -101l150 468l52 -17l-203 -636q-36 -111 -172 -111l-7 49q100 0 127 80l38 119q-99 11 -134 134z" />
<glyph unicode="z" horiz-adv-x="459" d="M30 13l295 433h-257v52h351v-13l-273 -398l80 -28q58 -20 118 -20q41 0 90 35l25 -44q-59 -43 -115 -43q-64 0 -130 22l-99 32l-42 -61z" />
<glyph unicode="{" horiz-adv-x="349" d="M30 261v55q3 0 9 1t20 5t25 10t20 18t9 27q0 17 -10 101t-10 127q0 23 5 42t16 32.5t21 22.5t29.5 16.5t31.5 11.5t35.5 10.5t33.5 9.5l14 -46q-70 -19 -97.5 -37t-27.5 -60q0 -22 10 -108t10 -122q0 -65 -66 -89q9 -3 18 -8t21 -15t19.5 -27t7.5 -38q0 -36 -10 -122 t-10 -108q0 -42 27.5 -60t97.5 -37l-14 -46q-10 3 -33.5 9.5t-35.5 10.5t-31.5 11.5t-29.5 16.5t-21 22.5t-16 32.5t-5 42q0 43 10 127t10 101q0 24 -20.5 39t-41.5 19z" />
<glyph unicode="|" horiz-adv-x="391" d="M165 -70v820h61v-820h-61z" />
<glyph unicode="}" horiz-adv-x="349" d="M70 -127q70 19 97.5 37t27.5 60q0 22 -10 108t-10 122q0 38 21.5 59.5t44.5 28.5q-13 4 -25.5 11.5t-26.5 28.5t-14 49q0 36 10 122t10 108q0 42 -27.5 60t-97.5 37l14 46q10 -3 33.5 -9.5t35.5 -10.5t31.5 -11.5t29.5 -16.5t21 -22.5t16 -32.5t5 -42q0 -43 -10 -127 t-10 -101q0 -24 21 -39.5t41 -18.5l21 -3v-55q-3 0 -9 -1t-20 -5t-25 -10t-20 -18t-9 -27q0 -17 10 -101t10 -127q0 -23 -5 -42t-16 -32.5t-21 -22.5t-29.5 -16.5t-31.5 -11.5t-35.5 -10.5t-33.5 -9.5z" />
<glyph unicode="~" d="M55 270q26 73 120 73q30 0 87 -17.5t82 -17.5q55 0 72 36l49 -21q-26 -73 -120 -73q-29 0 -87 17.5t-82 17.5q-55 0 -72 -36z" />
<glyph unicode="&#xa1;" horiz-adv-x="270" d="M30 452q0 23 16.5 39.5t40.5 16.5q23 0 39.5 -16.5t16.5 -39.5t-16.5 -40t-39.5 -17q-24 0 -40.5 17t-16.5 40zM34 -187q60 358 60 445q0 13 -2.5 26.5t-5.5 20.5l-2 7l56 12q10 -30 10 -66q0 -39 -14.5 -150t-29.5 -203l-14 -92h-58z" />
<glyph unicode="&#xa2;" horiz-adv-x="510" d="M75 335q0 45 7.5 84.5t25.5 79.5t54.5 65.5t87.5 30.5v155h61v-155q79 -5 104 -7v-52l-104 7v-412q64 8 123 47l26 -42q-63 -49 -149 -57v-149h-61v151q-82 13 -128.5 79t-46.5 175zM132 338q0 -86 30.5 -137.5t87.5 -65.5v408q-118 -10 -118 -205z" />
<glyph unicode="&#xa3;" horiz-adv-x="496" d="M35 303v57h82v125q0 83 49 130.5t151 47.5q24 0 114 -8v-52q-104 8 -121 8q-64 0 -98 -33t-34 -93v-125h154v-57h-154v-179q0 -13 -2 -35l72 -25q58 -20 118 -20q41 0 90 35l25 -49q-59 -43 -115 -43q-64 0 -130 22l-74 24q-5 -13 -11.5 -24.5t-10.5 -16.5l-3 -5l-51 21 q31 44 31 116v179h-82z" />
<glyph unicode="&#xa4;" horiz-adv-x="688" d="M60 34l102 102q-47 59 -47 151q0 91 48 151l-103 104l43 44l106 -106q63 41 134 41q73 0 136 -41l106 106l43 -44l-103 -104q46 -58 46 -150q0 -91 -47 -150l104 -104l-43 -44l-107 107q-65 -42 -135 -42q-73 0 -135 40l-105 -105zM178 288q0 -81 45.5 -130.5 t120.5 -49.5t120.5 50.5t45.5 131.5t-45 129t-121 48t-121 -49t-45 -130z" />
<glyph unicode="&#xa5;" horiz-adv-x="537" d="M35 650l59 15l97 -269q35 -96 121 -97l133 365l57 -17l-144 -395q-22 -6 -54 -6v-36h110v-48h-110v-44h110v-48h-110v-70h-54v70h-108v48h108v44h-108v48h108v43q-42 14 -72 49t-46 79z" />
<glyph unicode="&#xa6;" horiz-adv-x="391" d="M165 -70v370h61v-370h-61zM165 380v370h61v-370h-61z" />
<glyph unicode="&#xa7;" horiz-adv-x="415" d="M65 325q0 39 13.5 67t25 37t22.5 13q-31 38 -31 86q0 114 203 145l13 -53q-84 -17 -117.5 -36t-33.5 -56q0 -28 19.5 -51t47.5 -41.5t56 -38t47.5 -49.5t19.5 -67q0 -39 -14 -67t-25.5 -37t-22.5 -13q32 -39 32 -86q0 -114 -203 -145l-13 53q84 17 117.5 36t33.5 56 q0 28 -19.5 51t-47.5 41.5t-56 38t-47.5 49.5t-19.5 67zM127 325q0 -19 12.5 -37t25 -28t41 -29t39.5 -27q43 22 43 77q0 19 -12.5 36.5t-25 27.5t-41 29.5t-39.5 27.5q-43 -24 -43 -77z" />
<glyph unicode="&#xa8;" d="M105 662q0 19 13 32t31 13q19 0 32 -13t13 -32q0 -18 -13 -31t-32 -13q-18 0 -31 13t-13 31zM326 662q0 19 13 32t31 13q19 0 32 -13t13 -32q0 -18 -13 -31t-32 -13q-18 0 -31 13t-13 31z" />
<glyph unicode="&#xa9;" horiz-adv-x="766" d="M80 243q0 133 85 219.5t219 86.5q133 0 217.5 -86t84.5 -217q0 -133 -84.5 -219.5t-217.5 -86.5q-135 0 -219.5 85t-84.5 218zM134 246q0 -116 69.5 -187.5t180.5 -71.5q109 0 178.5 73t69.5 188q0 114 -69 183.5t-179 69.5q-111 0 -180.5 -71t-69.5 -184zM264 246 q0 63 27.5 110.5t94.5 47.5q31 0 83 -4v-47q-47 5 -83 5q-70 0 -70 -110q0 -54 22.5 -83t63.5 -29q31 0 74 29l22 -38q-52 -37 -102 -37q-61 0 -96.5 41t-35.5 115z" />
<glyph unicode="&#xaa;" horiz-adv-x="308" d="M40 496q0 42 34.5 61.5t84.5 19.5h39v24q0 26 -14 40.5t-39 14.5q-29 0 -71 -24l-22 35q52 31 93 31q98 0 98 -92v-104q0 -37 25 -65l-25 -26q-31 23 -36 59q-19 -58 -84 -58q-37 0 -60 22t-23 62zM86 496q0 -19 13.5 -31.5t33.5 -12.5q23 0 41 26t23 62h-38 q-73 0 -73 -44z" />
<glyph unicode="&#xab;" horiz-adv-x="615" d="M60 251q0 21 32 48l206 184l37 -41l-216 -191l216 -191l-37 -41l-206 184q-32 27 -32 48zM270 251q0 21 32 48l206 184l37 -41l-216 -191l216 -191l-37 -41l-206 184q-32 27 -32 48z" />
<glyph unicode="&#xac;" horiz-adv-x="440" d="M40 264v58h360v-175h-62v117h-298z" />
<glyph unicode="&#xad;" horiz-adv-x="392" d="M50 276v58h292v-58h-292z" />
<glyph unicode="&#xae;" horiz-adv-x="766" d="M80 420q0 133 85 219.5t219 86.5q133 0 217.5 -86t84.5 -217q0 -133 -84.5 -219.5t-217.5 -86.5q-135 0 -219.5 85t-84.5 218zM134 423q0 -116 69.5 -187.5t180.5 -71.5q109 0 178.5 73t69.5 188q0 114 -69 183.5t-179 69.5q-111 0 -180.5 -71t-69.5 -184zM234 583l29 29 q24 -24 59 -24q6 0 30.5 2.5t34.5 2.5q52 0 84.5 -29.5t32.5 -75.5q0 -30 -17.5 -53.5t-41.5 -32.5q26 -10 41 -44l38 -92l-47 -20l-32 85q-22 58 -84 58h-22v-149h-48v305q-34 9 -57 38zM339 429h58q25 0 42 16t17 43t-19 43t-51 16l-47 -5v-113z" />
<glyph unicode="&#xaf;" d="M97 627v57h326v-57h-326z" />
<glyph unicode="&#xb0;" horiz-adv-x="365" d="M50 529q0 59 36.5 97t95.5 38t96 -37t37 -96t-36.5 -97t-95.5 -38q-60 0 -96.5 37t-36.5 96zM104 530q0 -38 21.5 -61.5t56.5 -23.5t57 23.5t22 61.5t-21.5 61.5t-56.5 23.5t-57 -23.5t-22 -61.5z" />
<glyph unicode="&#xb1;" horiz-adv-x="472" d="M50 0v52h372v-52h-372zM50 268v51h158v160h56v-160h158v-51h-158v-161h-56v161h-158z" />
<glyph unicode="&#xb2;" horiz-adv-x="280" d="M40 414v5q0 31 14 57.5t28.5 40t40.5 32.5q57 40 57 69q0 40 -42 40q-18 0 -84 -3v42q46 4 81 4q89 0 89 -84q0 -33 -19.5 -56t-56.5 -49q-41 -28 -54 -55h146v-43h-200z" />
<glyph unicode="&#xb3;" horiz-adv-x="268" d="M40 418v43q47 -6 77 -6q60 0 60 47q0 24 -24 48q-22 -7 -54 -7h-18v44h20q64 0 64 36t-43 36q-14 0 -52 -2q-4 0 -14.5 -0.5t-12.5 -0.5v42q38 3 77 3q88 0 88 -79q0 -30 -16 -49q31 -33 31 -73q0 -44 -28 -66t-77 -22z" />
<glyph unicode="&#xb4;" d="M163 601l158 125l36 -49l-172 -110z" />
<glyph unicode="&#xb5;" horiz-adv-x="553" d="M85 -250v748h55v-336h1q0 -62 25.5 -91t82.5 -29q50 0 85.5 25t74.5 78v353h55v-354q0 -77 39 -119l-34 -33q-43 31 -55 95q-63 -97 -165 -97q-69 0 -109 28v-268h-55z" />
<glyph unicode="&#xb6;" horiz-adv-x="449" d="M20 431q0 100 60.5 143t192.5 43q12 0 126 -3v-689h-58v632h-82v-632h-59v325q-92 11 -136 54.5t-44 126.5z" />
<glyph unicode="&#xb7;" horiz-adv-x="293" d="M90 322q0 23 16.5 40t39.5 17q24 0 40.5 -17t16.5 -40t-16.5 -39.5t-40.5 -16.5q-23 0 -39.5 16.5t-16.5 39.5z" />
<glyph unicode="&#xb8;" horiz-adv-x="833" d="M247 0h53v-66q26 -3 43 -19t17 -41q0 -80 -71 -131l-34 33q4 4 14.5 15.5t14.5 16.5t10 14.5t8.5 18.5t2.5 20q0 12 -7.5 19.5t-13 9.5t-21 4.5t-16.5 2.5v103z" />
<glyph unicode="&#xb9;" horiz-adv-x="245" d="M40 631l9 39q13 -3 21 -3q43 0 99 37l6 -4v-286h-48v223q-28 -13 -52 -13q-19 0 -35 7z" />
<glyph unicode="&#xba;" horiz-adv-x="349" d="M35 554q0 64 38.5 104.5t100.5 40.5q63 0 101.5 -40t38.5 -103q0 -64 -38.5 -105t-101.5 -41q-62 0 -100.5 40.5t-38.5 103.5zM84 556q0 -45 25 -73t65 -28q42 0 67 28.5t25 73.5q0 44 -25 70.5t-67 26.5q-41 0 -65.5 -26.5t-24.5 -71.5z" />
<glyph unicode="&#xbb;" horiz-adv-x="615" d="M70 60l216 191l-216 191l37 41l206 -184q32 -27 32 -48t-32 -48l-206 -184zM280 60l216 191l-216 191l37 41l206 -184q32 -27 32 -48t-32 -48l-206 -184z" />
<glyph unicode="&#xbc;" horiz-adv-x="695" d="M90 590l9 39q13 -3 21 -3q44 0 99 37l6 -4v-286h-48v223q-28 -13 -52 -13q-19 0 -35 7zM220 0l219 653h58l-218 -653h-59zM481 94l26 186h45l-20 -142h97v142h46v-280h-46v94h-148z" />
<glyph unicode="&#xbd;" horiz-adv-x="683" d="M90 590l9 39q13 -3 21 -3q40 0 85 28l14 9l6 -4v-286h-48v223q-28 -13 -52 -13q-19 0 -35 7zM220 0l219 653h58l-218 -653h-59zM463 0v5q0 31 14 57.5t28.5 40t40.5 32.5q57 40 57 69q0 40 -42 40q-18 0 -84 -3v42q46 4 81 4q89 0 89 -84q0 -33 -19.5 -56t-56.5 -49 q-41 -28 -54 -55h146v-43h-200z" />
<glyph unicode="&#xbe;" horiz-adv-x="714" d="M100 375v43q47 -6 77 -6q60 0 60 47q0 24 -24 48q-22 -7 -54 -7h-18v44h20q64 0 64 36t-43 36q-14 0 -52 -2q-4 0 -14.5 -0.5t-12.5 -0.5v42q38 3 77 3q88 0 88 -79q0 -30 -16 -49q31 -33 31 -73q0 -44 -28 -66t-77 -22zM239 0l219 653h58l-218 -653h-59zM500 94l26 186 h45l-20 -142h97v142h46v-280h-46v94h-148z" />
<glyph unicode="&#xbf;" horiz-adv-x="430" d="M10 -17q0 40 16 72t39.5 51t51.5 38t51.5 33t39.5 35t16 46q0 13 -2.5 26.5t-5.5 20.5l-2 7l59 12q10 -30 10 -66q0 -43 -22 -74.5t-54 -51t-64 -38.5t-54 -47.5t-22 -66.5q0 -60 34 -93t98 -33q77 0 181 8v-52q-90 -8 -174 -8q-102 0 -149 48.5t-47 132.5zM156 452 q0 23 16.5 39.5t40.5 16.5q23 0 39.5 -16.5t16.5 -39.5t-16.5 -40t-39.5 -17q-24 0 -40.5 17t-16.5 40z" />
<glyph unicode="&#xc0;" horiz-adv-x="635" d="M10 0l297 703h19l299 -703h-64l-97 227h-295l-95 -227h-64zM124 768l18 58l194 -63l-12 -40zM193 284h247l-99 233q-14 32 -25 78q-10 -45 -24 -78z" />
<glyph unicode="&#xc1;" horiz-adv-x="635" d="M10 0l297 703h19l299 -703h-64l-97 227h-295l-95 -227h-64zM193 284h247l-99 233q-14 32 -25 78q-10 -45 -24 -78zM296 763l194 63l18 -58l-200 -45z" />
<glyph unicode="&#xc2;" horiz-adv-x="635" d="M10 0l297 703h19l299 -703h-64l-97 227h-295l-95 -227h-64zM160 755l109 103q34 32 48 32t48 -32l109 -102l-37 -37l-120 112l-120 -113zM193 284h247l-99 233q-14 32 -25 78q-10 -45 -24 -78z" />
<glyph unicode="&#xc3;" horiz-adv-x="635" d="M10 0l297 703h19l299 -703h-64l-97 227h-295l-95 -227h-64zM115 787q26 73 120 73q30 0 87 -17.5t82 -17.5q55 0 72 36l49 -21q-26 -73 -120 -73q-29 0 -87 17.5t-82 17.5q-55 0 -72 -36zM193 284h247l-99 233q-14 32 -25 78q-10 -45 -24 -78z" />
<glyph unicode="&#xc4;" horiz-adv-x="635" d="M10 0l297 703h19l299 -703h-64l-97 227h-295l-95 -227h-64zM160 813q0 19 13 32t31 13q19 0 32 -13t13 -32q0 -18 -13 -31t-32 -13q-18 0 -31 13t-13 31zM193 284h247l-99 233q-14 32 -25 78q-10 -45 -24 -78zM381 813q0 19 13 32t31 13q19 0 32 -13t13 -32 q0 -18 -13 -31t-32 -13q-18 0 -31 13t-13 31z" />
<glyph unicode="&#xc5;" horiz-adv-x="635" d="M10 0l280 663q-34 7 -54 34t-20 65q0 46 27.5 75t73.5 29q45 0 73 -28.5t28 -73.5q0 -38 -20.5 -66t-54.5 -35l282 -663h-64l-97 227h-295l-95 -227h-64zM193 284h247l-99 233q-14 32 -25 78q-10 -45 -24 -78zM265 763q0 -26 12 -42.5t34 -17.5h10q22 1 35 17.5t13 42.5 q0 27 -13.5 43t-37.5 16t-38.5 -16t-14.5 -43z" />
<glyph unicode="&#xc6;" horiz-adv-x="880" d="M0 0l359 684h471v-57h-387v-237h317v-57h-317v-276h407v-57h-468v227h-192l-117 -227h-73zM219 284h163v339q-11 -44 -35 -92z" />
<glyph unicode="&#xc7;" horiz-adv-x="644" d="M60 342q0 151 91.5 251.5t236.5 100.5q105 0 160.5 -37.5t55.5 -101.5q0 -59 -53 -94t-163 -35h-258q-9 -39 -9 -84q0 -135 58.5 -216t168.5 -81q56 0 119 25t106 53l26 -45q-38 -30 -101 -57t-132 -30v-57q26 -3 43 -19t17 -41q0 -80 -71 -131l-34 33q4 4 14.5 15.5 t14.5 16.5t10 14.5t8.5 18.5t2.5 20q0 12 -7.5 19.5t-13 9.5t-21 4.5t-16.5 2.5v95q-125 12 -189 107.5t-64 242.5zM146 478h242q85 0 119 19t34 58q0 84 -153 84q-83 0 -146.5 -43t-95.5 -118z" />
<glyph unicode="&#xc8;" horiz-adv-x="593" d="M95 0v684h448v-57h-387v-237h317v-57h-317v-276h407v-57h-468zM136 767l18 58l194 -63l-12 -40z" />
<glyph unicode="&#xc9;" horiz-adv-x="593" d="M95 0v684h448v-57h-387v-237h317v-57h-317v-276h407v-57h-468zM308 762l194 63l18 -58l-200 -45z" />
<glyph unicode="&#xca;" horiz-adv-x="593" d="M95 0v684h448v-57h-387v-237h317v-57h-317v-276h407v-57h-468zM172 754l109 103q34 32 48 32t48 -32l109 -102l-37 -37l-120 112l-120 -113z" />
<glyph unicode="&#xcb;" horiz-adv-x="593" d="M95 0v684h448v-57h-387v-237h317v-57h-317v-276h407v-57h-468zM172 812q0 19 13 32t31 13q19 0 32 -13t13 -32q0 -18 -13 -31t-32 -13q-18 0 -31 13t-13 31zM393 812q0 19 13 32t31 13q19 0 32 -13t13 -32q0 -18 -13 -31t-32 -13q-18 0 -31 13t-13 31z" />
<glyph unicode="&#xcc;" horiz-adv-x="251" d="M-68 768l18 58l194 -63l-12 -40zM95 0v684h61v-684h-61z" />
<glyph unicode="&#xcd;" horiz-adv-x="251" d="M95 0v684h61v-684h-61zM104 763l194 63l18 -58l-200 -45z" />
<glyph unicode="&#xce;" horiz-adv-x="251" d="M-32 755l109 103q34 32 48 32t48 -32l109 -102l-37 -37l-120 112l-120 -113zM95 0v684h61v-684h-61z" />
<glyph unicode="&#xcf;" horiz-adv-x="251" d="M-32 813q0 19 13 32t31 13q19 0 32 -13t13 -32q0 -18 -13 -31t-32 -13q-18 0 -31 13t-13 31zM95 0v684h61v-684h-61zM189 813q0 19 13 32t31 13q19 0 32 -13t13 -32q0 -18 -13 -31t-32 -13q-18 0 -31 13t-13 31z" />
<glyph unicode="&#xd0;" horiz-adv-x="779" d="M10 389v57h114v185q-74 11 -109 59l33 34q43 -40 119 -40q28 0 94 5t111 5q157 0 252 -100t95 -252q0 -153 -95 -252.5t-252 -99.5q-91 0 -153 2.5t-79 5.5l-16 2v389h-114zM185 50q68 -5 187 -5q131 0 209 82t78 215t-78 215t-209 82q-40 0 -102.5 -5t-84.5 -5v-183h122 v-57h-122v-339z" />
<glyph unicode="&#xd1;" horiz-adv-x="764" d="M95 0v694h19l461 -550q18 -23 34 -37q-4 35 -4 82v496h61v-621q29 -16 53 -21l-15 -45q-44 9 -83 31.5t-60 43t-47 50.5l-286 332q-31 35 -79 106q7 -79 7 -106v-455h-61zM178 787q26 73 120 73q30 0 87 -17.5t82 -17.5q55 0 72 36l49 -21q-26 -73 -120 -73 q-29 0 -87 17.5t-82 17.5q-55 0 -72 -36z" />
<glyph unicode="&#xd2;" horiz-adv-x="795" d="M60 342q0 152 93.5 252t244.5 100q45 0 116 -5t99 -5q76 0 119 40l33 -34q-40 -55 -129 -61q99 -128 99 -287q0 -152 -93.5 -252t-243.5 -100q-151 0 -244.5 100t-93.5 252zM121 342q0 -132 76.5 -214.5t200.5 -82.5t200.5 82.5t76.5 214.5q0 58 -14 111t-36.5 89.5 t-36.5 55t-28 32.5q-147 9 -163 9q-123 0 -199.5 -82.5t-76.5 -214.5zM209 767l18 58l194 -63l-12 -40z" />
<glyph unicode="&#xd3;" horiz-adv-x="795" d="M60 342q0 152 93.5 252t244.5 100q45 0 116 -5t99 -5q76 0 119 40l33 -34q-40 -55 -129 -61q99 -128 99 -287q0 -152 -93.5 -252t-243.5 -100q-151 0 -244.5 100t-93.5 252zM121 342q0 -132 76.5 -214.5t200.5 -82.5t200.5 82.5t76.5 214.5q0 58 -14 111t-36.5 89.5 t-36.5 55t-28 32.5q-147 9 -163 9q-123 0 -199.5 -82.5t-76.5 -214.5zM381 762l194 63l18 -58l-200 -45z" />
<glyph unicode="&#xd4;" horiz-adv-x="795" d="M60 342q0 152 93.5 252t244.5 100q45 0 116 -5t99 -5q76 0 119 40l33 -34q-40 -55 -129 -61q99 -128 99 -287q0 -152 -93.5 -252t-243.5 -100q-151 0 -244.5 100t-93.5 252zM121 342q0 -132 76.5 -214.5t200.5 -82.5t200.5 82.5t76.5 214.5q0 58 -14 111t-36.5 89.5 t-36.5 55t-28 32.5q-147 9 -163 9q-123 0 -199.5 -82.5t-76.5 -214.5zM245 754l109 103q34 32 48 32t48 -32l109 -102l-37 -37l-120 112l-120 -113z" />
<glyph unicode="&#xd5;" horiz-adv-x="795" d="M60 342q0 152 93.5 252t244.5 100q45 0 116 -5t99 -5q76 0 119 40l33 -34q-40 -55 -129 -61q99 -128 99 -287q0 -152 -93.5 -252t-243.5 -100q-151 0 -244.5 100t-93.5 252zM121 342q0 -132 76.5 -214.5t200.5 -82.5t200.5 82.5t76.5 214.5q0 58 -14 111t-36.5 89.5 t-36.5 55t-28 32.5q-147 9 -163 9q-123 0 -199.5 -82.5t-76.5 -214.5zM200 786q26 73 120 73q30 0 87 -17.5t82 -17.5q55 0 72 36l49 -21q-26 -73 -120 -73q-29 0 -87 17.5t-82 17.5q-55 0 -72 -36z" />
<glyph unicode="&#xd6;" horiz-adv-x="795" d="M60 342q0 152 93.5 252t244.5 100q45 0 116 -5t99 -5q76 0 119 40l33 -34q-40 -55 -129 -61q99 -128 99 -287q0 -152 -93.5 -252t-243.5 -100q-151 0 -244.5 100t-93.5 252zM121 342q0 -132 76.5 -214.5t200.5 -82.5t200.5 82.5t76.5 214.5q0 58 -14 111t-36.5 89.5 t-36.5 55t-28 32.5q-147 9 -163 9q-123 0 -199.5 -82.5t-76.5 -214.5zM245 812q0 19 13 32t31 13q19 0 32 -13t13 -32q0 -18 -13 -31t-32 -13q-18 0 -31 13t-13 31zM466 812q0 19 13 32t31 13q19 0 32 -13t13 -32q0 -18 -13 -31t-32 -13q-18 0 -31 13t-13 31z" />
<glyph unicode="&#xd7;" horiz-adv-x="502" d="M60 116l149 149l-142 143l43 43l142 -143l142 143l41 -41l-142 -142l149 -149l-43 -43l-149 149l-149 -150z" />
<glyph unicode="&#xd8;" horiz-adv-x="795" d="M60 342q0 152 93.5 252t244.5 100q45 0 116 -5t99 -5q76 0 119 40l33 -34q-40 -55 -129 -61q99 -128 99 -287q0 -152 -93.5 -252t-243.5 -100q-94 0 -170 42l-30 -53l-49 30l36 52q-60 47 -92.5 120.5t-32.5 160.5zM121 342q0 -149 94 -232l337 521q-125 8 -155 8 q-123 0 -199.5 -82.5t-76.5 -214.5zM262 78q61 -33 136 -33q124 0 200.5 82.5t76.5 214.5q0 138 -81 249z" />
<glyph unicode="&#xd9;" horiz-adv-x="715" d="M90 267v417h61v-417q0 -103 56.5 -162.5t149.5 -59.5q94 0 150.5 59.5t56.5 162.5v417h61v-417q0 -123 -73.5 -200t-193.5 -77q-121 0 -194.5 76.5t-73.5 200.5zM165 768l18 58l194 -63l-12 -40z" />
<glyph unicode="&#xda;" horiz-adv-x="715" d="M90 267v417h61v-417q0 -103 56.5 -162.5t149.5 -59.5q94 0 150.5 59.5t56.5 162.5v417h61v-417q0 -123 -73.5 -200t-193.5 -77q-121 0 -194.5 76.5t-73.5 200.5zM337 763l194 63l18 -58l-200 -45z" />
<glyph unicode="&#xdb;" horiz-adv-x="715" d="M90 267v417h61v-417q0 -103 56.5 -162.5t149.5 -59.5q94 0 150.5 59.5t56.5 162.5v417h61v-417q0 -123 -73.5 -200t-193.5 -77q-121 0 -194.5 76.5t-73.5 200.5zM201 755l109 103q34 32 48 32t48 -32l109 -102l-37 -37l-120 112l-120 -113z" />
<glyph unicode="&#xdc;" horiz-adv-x="715" d="M90 267v417h61v-417q0 -103 56.5 -162.5t149.5 -59.5q94 0 150.5 59.5t56.5 162.5v417h61v-417q0 -123 -73.5 -200t-193.5 -77q-121 0 -194.5 76.5t-73.5 200.5zM201 813q0 19 13 32t31 13q19 0 32 -13t13 -32q0 -18 -13 -31t-32 -13q-18 0 -31 13t-13 31zM422 813 q0 19 13 32t31 13q19 0 32 -13t13 -32q0 -18 -13 -31t-32 -13q-18 0 -31 13t-13 31z" />
<glyph unicode="&#xdd;" horiz-adv-x="532" d="M35 680l59 15l97 -289q30 -96 120 -97l134 385l57 -17l-144 -415q-28 -6 -51 -6v-256h-61v264q-82 28 -114 127zM257 763l194 63l18 -58l-200 -45z" />
<glyph unicode="&#xde;" horiz-adv-x="528" d="M95 0v684h61v-127q77 7 129 7q93 0 150.5 -61.5t57.5 -155.5t-57.5 -156t-150.5 -62q-23 0 -71.5 0.5t-57.5 0.5v-130h-61zM156 185q9 0 57 -0.5t69 -0.5q68 0 110 45t42 118q0 72 -42 117t-110 45q-49 0 -126 -7v-317z" />
<glyph unicode="&#xdf;" horiz-adv-x="512" d="M85 -250v744q0 240 157 240q72 0 109 -35.5t37 -96.5q0 -27 -10 -48.5t-24 -35t-28.5 -25t-24.5 -25.5t-10 -31q0 -35 19 -58.5t46.5 -39.5t55 -35t46.5 -56.5t19 -92.5q0 -74 -53 -119.5t-140 -45.5q-61 0 -144 8v-248h-55zM140 50q60 -8 152 -8q60 0 93.5 30.5 t33.5 82.5q0 42 -19.5 70.5t-47.5 45t-55.5 34.5t-47 50.5t-19.5 81.5q0 32 16 56.5t34.5 37t34.5 31t16 40.5q0 37 -23 58.5t-66 21.5q-102 0 -102 -185v-447z" />
<glyph unicode="&#xe0;" horiz-adv-x="502" d="M50 133q0 77 61 112t150 35h97v56q0 62 -25 91t-79 29q-75 0 -148 -54l-27 42q31 27 78.5 45.5t96.5 18.5q159 0 159 -161v-203q0 -77 39 -119l-34 -33q-37 28 -52 80q-41 -82 -156 -82q-71 0 -115.5 37.5t-44.5 105.5zM89 677l36 49l158 -125l-22 -34zM107 133 q0 -91 103 -91q62 0 104 34t44 94v59h-97q-154 0 -154 -96z" />
<glyph unicode="&#xe1;" horiz-adv-x="502" d="M50 133q0 77 61 112t150 35h97v56q0 62 -25 91t-79 29q-75 0 -148 -54l-27 42q31 27 78.5 45.5t96.5 18.5q159 0 159 -161v-203q0 -77 39 -119l-34 -33q-37 28 -52 80q-41 -82 -156 -82q-71 0 -115.5 37.5t-44.5 105.5zM107 133q0 -91 103 -91q63 0 105.5 36t42.5 99v52 h-97q-154 0 -154 -96zM226 601l158 125l36 -49l-172 -110z" />
<glyph unicode="&#xe2;" horiz-adv-x="502" d="M50 133q0 77 61 112t150 35h97v56q0 62 -25 91t-79 29q-75 0 -148 -54l-27 42q31 27 78.5 45.5t96.5 18.5q159 0 159 -161v-203q0 -77 39 -119l-34 -33q-37 28 -52 80q-41 -82 -156 -82q-71 0 -115.5 37.5t-44.5 105.5zM97 613l109 123q27 32 48 32t48 -32l109 -122 l-37 -33l-120 133l-120 -134zM107 133q0 -91 103 -91q63 0 105.5 36t42.5 99v52h-97q-154 0 -154 -96z" />
<glyph unicode="&#xe3;" horiz-adv-x="502" d="M50 133q0 77 61 112t150 35h97v56q0 62 -25 91t-79 29q-75 0 -148 -54l-27 42q31 27 78.5 45.5t96.5 18.5q159 0 159 -161v-203q0 -77 39 -119l-34 -33q-37 28 -52 80q-41 -82 -156 -82q-71 0 -115.5 37.5t-44.5 105.5zM56 627q26 73 120 73q30 0 77 -17.5t72 -17.5 q55 0 72 36l49 -18q-26 -73 -120 -73q-29 0 -77 17.5t-72 17.5q-55 0 -72 -36zM107 133q0 -91 103 -91q62 0 104 34t44 94v59h-97q-154 0 -154 -96z" />
<glyph unicode="&#xe4;" horiz-adv-x="502" d="M50 133q0 77 61 112t150 35h97v56q0 62 -25 91t-79 29q-75 0 -148 -54l-27 42q31 27 78.5 45.5t96.5 18.5q159 0 159 -161v-203q0 -77 39 -119l-34 -33q-37 28 -52 80q-41 -82 -156 -82q-71 0 -115.5 37.5t-44.5 105.5zM98 662q0 19 13 32t31 13q19 0 32 -13t13 -32 q0 -18 -13 -31t-32 -13q-18 0 -31 13t-13 31zM107 133q0 -91 103 -91q63 0 105.5 36t42.5 99v52h-97q-154 0 -154 -96zM319 662q0 19 13 32t31 13q19 0 32 -13t13 -32q0 -18 -13 -31t-32 -13q-18 0 -31 13t-13 31z" />
<glyph unicode="&#xe5;" horiz-adv-x="502" d="M50 133q0 77 61 112t150 35h97v56q0 62 -25 91t-79 29q-75 0 -148 -54l-27 42q31 27 78.5 45.5t96.5 18.5q159 0 159 -161v-203q0 -77 39 -119l-34 -33q-37 28 -52 80q-41 -82 -156 -82q-71 0 -115.5 37.5t-44.5 105.5zM107 133q0 -91 103 -91q63 0 105.5 36t42.5 99v52 h-97q-154 0 -154 -96zM152 649q0 46 27.5 75t73.5 29q45 0 73 -28.5t28 -73.5q0 -46 -28 -75t-73 -29q-46 0 -73.5 28.5t-27.5 73.5zM201 650q0 -28 13.5 -44t37.5 -16q25 0 39 16.5t14 43.5t-13.5 43t-37.5 16t-38.5 -16t-14.5 -43z" />
<glyph unicode="&#xe6;" horiz-adv-x="816" d="M50 133q0 77 61 112t150 35h97v56q0 62 -25 91t-79 29q-75 0 -148 -54l-27 42q31 27 78.5 45.5t96.5 18.5q121 0 148 -108q27 50 70.5 79t100.5 29q77 0 129 -41.5t52 -110.5q0 -82 -63 -119t-157 -37h-118q18 -158 168 -158q67 0 156 48l26 -42q-85 -58 -182 -58 q-151 0 -198 124q-10 -55 -57 -89.5t-119 -34.5q-71 0 -115.5 37.5t-44.5 105.5zM107 133q0 -91 103 -91q63 0 105.5 36t42.5 99v52h-97q-154 0 -154 -96zM413 252h121q163 0 163 104q0 46 -34.5 74.5t-89.5 28.5q-70 0 -114.5 -62.5t-45.5 -144.5z" />
<glyph unicode="&#xe7;" horiz-adv-x="435" d="M60 247q0 47 8.5 88.5t28.5 82.5t60.5 65.5t98.5 24.5q44 0 134 -8v-52q-104 8 -141 8q-132 0 -132 -206q0 -100 41.5 -154t117.5 -54q58 0 133 48l26 -42q-68 -52 -144 -57v-57q26 -3 43 -19t17 -41q0 -80 -71 -131l-34 33q4 4 14.5 15.5t14.5 16.5t10 14.5t8.5 18.5 t2.5 20q0 12 -7.5 19.5t-13 9.5t-21 4.5t-16.5 2.5v96q-84 11 -131 77.5t-47 176.5z" />
<glyph unicode="&#xe8;" d="M60 247q0 107 61 184t156 77q77 0 129 -41.5t52 -110.5q0 -82 -63 -119t-157 -37h-118q18 -158 168 -158q67 0 156 48l26 -42q-85 -58 -182 -58q-112 0 -170 66.5t-58 190.5zM112 677l36 49l158 -125l-22 -34zM117 252h121q163 0 163 104q0 46 -34.5 74.5t-89.5 28.5 q-70 0 -114.5 -62.5t-45.5 -144.5z" />
<glyph unicode="&#xe9;" d="M60 247q0 107 61 184t156 77q77 0 129 -41.5t52 -110.5q0 -82 -63 -119t-157 -37h-118q18 -158 168 -158q67 0 156 48l26 -42q-85 -58 -182 -58q-112 0 -170 66.5t-58 190.5zM117 252h121q163 0 163 104q0 46 -34.5 74.5t-89.5 28.5q-70 0 -114.5 -62.5t-45.5 -144.5z M249 601l158 125l36 -49l-172 -110z" />
<glyph unicode="&#xea;" d="M60 247q0 107 61 184t156 77q77 0 129 -41.5t52 -110.5q0 -82 -63 -119t-157 -37h-118q18 -158 168 -158q67 0 156 48l26 -42q-85 -58 -182 -58q-112 0 -170 66.5t-58 190.5zM117 252h121q163 0 163 104q0 46 -34.5 74.5t-89.5 28.5q-70 0 -114.5 -62.5t-45.5 -144.5z M120 613l109 123q27 32 48 32t48 -32l109 -122l-37 -33l-120 133l-120 -134z" />
<glyph unicode="&#xeb;" d="M60 247q0 107 61 184t156 77q77 0 129 -41.5t52 -110.5q0 -82 -63 -119t-157 -37h-118q18 -158 168 -158q67 0 156 48l26 -42q-85 -58 -182 -58q-112 0 -170 66.5t-58 190.5zM117 252h121q163 0 163 104q0 46 -34.5 74.5t-89.5 28.5q-70 0 -114.5 -62.5t-45.5 -144.5z M121 662q0 19 13 32t31 13q19 0 32 -13t13 -32q0 -18 -13 -31t-32 -13q-18 0 -31 13t-13 31zM342 662q0 19 13 32t31 13q19 0 32 -13t13 -32q0 -18 -13 -31t-32 -13q-18 0 -31 13t-13 31z" />
<glyph unicode="&#xec;" horiz-adv-x="235" d="M-16 699l50 33l90 -148l-33 -24zM55 472l34 33q61 -44 61 -152v-353h-55v353q0 76 -40 119z" />
<glyph unicode="&#xed;" horiz-adv-x="235" d="M53 584l90 148l50 -33l-107 -139zM55 472l34 33q61 -44 61 -152v-353h-55v353q0 76 -40 119z" />
<glyph unicode="&#xee;" horiz-adv-x="235" d="M-16 613l89 123q23 32 48 32t48 -32l89 -122l-42 -30l-95 128l-94 -128zM55 472l34 33q61 -44 61 -152v-353h-55v353q0 76 -40 119z" />
<glyph unicode="&#xef;" horiz-adv-x="235" d="M-38 662q0 19 13 32t31 13q19 0 32 -13t13 -32q0 -18 -13 -31t-32 -13q-18 0 -31 13t-13 31zM55 472l34 33q61 -44 61 -152v-353h-55v353q0 76 -40 119zM123 662q0 19 13 32t31 13q19 0 32 -13t13 -32q0 -18 -13 -31t-32 -13q-18 0 -31 13t-13 31z" />
<glyph unicode="&#xf0;" horiz-adv-x="587" d="M50 247q0 113 69 187t180 74q49 0 106 -11l-25 74h-110v55h91l-30 89l58 18l35 -107h113v-55h-94l51 -153q32 -93 32 -176q0 -116 -62 -184t-165 -68q-112 0 -180.5 72t-68.5 185zM107 250q0 -94 52.5 -151t139.5 -57q81 0 125 54t44 139q0 80 -31 170l-13 36 q-68 15 -125 15q-87 0 -139.5 -56.5t-52.5 -149.5z" />
<glyph unicode="&#xf1;" horiz-adv-x="547" d="M50 472l34 33q43 -31 55 -92q65 95 169 95q168 0 168 -161q0 -51 -4 -120.5t-4 -98.5q0 -67 24 -128h-53q-26 50 -26 134q0 28 4 90t4 112q0 120 -113 120q-50 0 -88 -25t-75 -76v-355h-55v353q0 76 -40 119zM78 627q26 73 120 73q30 0 77 -17.5t72 -17.5q55 0 72 36 l49 -18q-26 -73 -120 -73q-29 0 -77 17.5t-72 17.5q-55 0 -72 -36z" />
<glyph unicode="&#xf2;" horiz-adv-x="597" d="M50 247q0 113 69 187t180 74t179.5 -73t68.5 -185q0 -114 -68.5 -187t-179.5 -73q-112 0 -180.5 72t-68.5 185zM107 250q0 -94 52.5 -151t139.5 -57q86 0 138.5 58.5t52.5 151.5q0 92 -52.5 148t-138.5 56q-87 0 -139.5 -56.5t-52.5 -149.5zM134 677l36 49l158 -125 l-22 -34z" />
<glyph unicode="&#xf3;" horiz-adv-x="597" d="M50 247q0 113 69 187t180 74t179.5 -73t68.5 -185q0 -114 -68.5 -187t-179.5 -73q-112 0 -180.5 72t-68.5 185zM107 250q0 -94 52.5 -151t139.5 -57q86 0 138.5 58.5t52.5 151.5q0 92 -52.5 148t-138.5 56q-87 0 -139.5 -56.5t-52.5 -149.5zM271 601l158 125l36 -49 l-172 -110z" />
<glyph unicode="&#xf4;" horiz-adv-x="597" d="M50 247q0 113 69 187t180 74t179.5 -73t68.5 -185q0 -114 -68.5 -187t-179.5 -73q-112 0 -180.5 72t-68.5 185zM107 250q0 -94 52.5 -151t139.5 -57q86 0 138.5 58.5t52.5 151.5q0 92 -52.5 148t-138.5 56q-87 0 -139.5 -56.5t-52.5 -149.5zM142 613l109 123q27 32 48 32 t48 -32l109 -122l-37 -33l-120 133l-120 -134z" />
<glyph unicode="&#xf5;" horiz-adv-x="597" d="M50 247q0 113 69 187t180 74t179.5 -73t68.5 -185q0 -114 -68.5 -187t-179.5 -73q-112 0 -180.5 72t-68.5 185zM103 627q26 73 120 73q30 0 77 -17.5t72 -17.5q55 0 72 36l49 -18q-26 -73 -120 -73q-29 0 -77 17.5t-72 17.5q-55 0 -72 -36zM107 250q0 -94 52.5 -151 t139.5 -57q86 0 138.5 58.5t52.5 151.5q0 92 -52.5 148t-138.5 56q-87 0 -139.5 -56.5t-52.5 -149.5z" />
<glyph unicode="&#xf6;" horiz-adv-x="597" d="M50 247q0 113 69 187t180 74t179.5 -73t68.5 -185q0 -114 -68.5 -187t-179.5 -73q-112 0 -180.5 72t-68.5 185zM107 250q0 -94 52.5 -151t139.5 -57q86 0 138.5 58.5t52.5 151.5q0 92 -52.5 148t-138.5 56q-87 0 -139.5 -56.5t-52.5 -149.5zM143 662q0 19 13 32t31 13 q19 0 32 -13t13 -32q0 -18 -13 -31t-32 -13q-18 0 -31 13t-13 31zM364 662q0 19 13 32t31 13q19 0 32 -13t13 -32q0 -18 -13 -31t-32 -13q-18 0 -31 13t-13 31z" />
<glyph unicode="&#xf7;" horiz-adv-x="472" d="M50 268v51h372v-51h-372zM189 143q0 19 13.5 33t32.5 14t33 -14t14 -33t-14 -32.5t-33 -13.5t-32.5 13.5t-13.5 32.5zM189 442q0 19 13.5 33t32.5 14t33 -13.5t14 -33.5q0 -19 -14 -32.5t-33 -13.5t-32.5 13.5t-13.5 32.5z" />
<glyph unicode="&#xf8;" horiz-adv-x="597" d="M50 247q0 113 69 187t180 74q63 0 117 -27l23 38l49 -30l-27 -38q86 -73 86 -201q0 -114 -68.5 -187t-179.5 -73q-65 0 -119 27l-22 -38l-49 30l26 37q-85 72 -85 201zM107 250q0 -104 55 -159l225 348q-39 17 -88 17q-87 0 -139.5 -56.5t-52.5 -149.5zM210 59 q35 -17 89 -17q86 0 138.5 58.5t52.5 151.5q0 102 -55 155z" />
<glyph unicode="&#xf9;" horiz-adv-x="536" d="M55 488l48 16q29 -45 29 -140q0 -28 -4 -90t-4 -112q0 -62 25.5 -91t82.5 -29q50 0 85.5 25t74.5 78v353h55v-354q0 -77 39 -119l-34 -33q-43 31 -55 95q-63 -97 -165 -97q-163 0 -163 161q0 51 4 120.5t4 98.5q0 68 -22 118zM100 677l36 49l158 -125l-22 -34z" />
<glyph unicode="&#xfa;" horiz-adv-x="536" d="M55 488l48 16q29 -45 29 -140q0 -28 -4 -90t-4 -112q0 -62 25.5 -91t82.5 -29q50 0 85.5 25t74.5 78v353h55v-354q0 -77 39 -119l-34 -33q-43 31 -55 95q-63 -97 -165 -97q-163 0 -163 161q0 51 4 120.5t4 98.5q0 68 -22 118zM237 601l158 125l36 -49l-172 -110z" />
<glyph unicode="&#xfb;" horiz-adv-x="536" d="M55 488l48 16q29 -45 29 -140q0 -28 -4 -90t-4 -112q0 -62 25.5 -91t82.5 -29q50 0 85.5 25t74.5 78v353h55v-354q0 -77 39 -119l-34 -33q-43 31 -55 95q-63 -97 -165 -97q-163 0 -163 161q0 51 4 120.5t4 98.5q0 68 -22 118zM108 613l109 123q27 32 48 32t48 -32 l109 -122l-37 -33l-120 133l-120 -134z" />
<glyph unicode="&#xfc;" horiz-adv-x="536" d="M55 488l48 16q29 -45 29 -140q0 -28 -4 -90t-4 -112q0 -62 25.5 -91t82.5 -29q50 0 85.5 25t74.5 78v353h55v-354q0 -77 39 -119l-34 -33q-43 31 -55 95q-63 -97 -165 -97q-163 0 -163 161q0 51 4 120.5t4 98.5q0 68 -22 118zM109 662q0 19 13 32t31 13q19 0 32 -13 t13 -32q0 -18 -13 -31t-32 -13q-18 0 -31 13t-13 31zM330 662q0 19 13 32t31 13q19 0 32 -13t13 -32q0 -18 -13 -31t-32 -13q-18 0 -31 13t-13 31z" />
<glyph unicode="&#xfd;" horiz-adv-x="516" d="M35 488l54 15l105 -367q27 -91 95 -101l150 468l52 -17l-203 -636q-36 -111 -172 -111l-7 49q100 0 127 80l38 119q-99 11 -134 134zM246 601l158 125l36 -49l-172 -110z" />
<glyph unicode="&#xfe;" horiz-adv-x="533" d="M85 0v726h55v-289q47 71 140 71q95 0 149 -58t54 -147q0 -90 -61.5 -148.5t-160.5 -58.5q-63 0 -121 8v-104h-55zM140 158q73 -10 120 -10q75 0 120.5 42.5t45.5 110.5q0 64 -38.5 109.5t-107.5 45.5q-49 0 -90 -31t-50 -87v-180z" />
<glyph unicode="&#xff;" horiz-adv-x="516" d="M35 488l54 15l105 -367q27 -91 95 -101l150 468l52 -17l-203 -636q-36 -111 -172 -111l-7 49q100 0 127 80l38 119q-99 11 -134 134zM118 662q0 19 13 32t31 13q19 0 32 -13t13 -32q0 -18 -13 -31t-32 -13q-18 0 -31 13t-13 31zM339 662q0 19 13 32t31 13q19 0 32 -13 t13 -32q0 -18 -13 -31t-32 -13q-18 0 -31 13t-13 31z" />
<glyph unicode="&#x152;" horiz-adv-x="1018" d="M60 342q0 152 93.5 252t244.5 100q45 0 226 -5t209 -5q76 0 119 40l33 -34q-44 -61 -152 -61q-44 0 -252 6v-245h317v-57h-317v-276h407v-57h-391q-120 -10 -199 -10q-151 0 -244.5 100t-93.5 252zM121 342q0 -132 76.5 -214.5t200.5 -82.5q68 0 122 7v585q-106 2 -123 2 q-123 0 -199.5 -82.5t-76.5 -214.5z" />
<glyph unicode="&#x153;" horiz-adv-x="944" d="M50 247q0 113 69 187t180 74q77 0 132.5 -37t83.5 -102q24 63 72.5 101t113.5 38q77 0 129 -41.5t52 -110.5q0 -82 -63 -119t-157 -37h-117q18 -158 167 -158q67 0 156 48l26 -42q-85 -58 -182 -58q-155 0 -201 131q-28 -61 -83 -96t-129 -35q-112 0 -180.5 72t-68.5 185 zM107 250q0 -94 52.5 -151t139.5 -57q86 0 138.5 58.5t52.5 151.5q0 92 -52.5 148t-138.5 56q-87 0 -139.5 -56.5t-52.5 -149.5zM542 252h120q163 0 163 104q0 46 -34.5 74.5t-89.5 28.5q-70 0 -114 -62.5t-45 -144.5z" />
<glyph unicode="&#x178;" horiz-adv-x="532" d="M35 680l59 15l97 -289q30 -96 120 -97l134 385l57 -17l-144 -415q-28 -6 -51 -6v-256h-61v264q-82 28 -114 127zM121 813q0 19 13 32t31 13q19 0 32 -13t13 -32q0 -18 -13 -31t-32 -13q-18 0 -31 13t-13 31zM342 813q0 19 13 32t31 13q19 0 32 -13t13 -32q0 -18 -13 -31 t-32 -13q-18 0 -31 13t-13 31z" />
<glyph unicode="&#x2c6;" d="M103 613l109 123q27 32 48 32t48 -32l109 -122l-37 -33l-120 133l-120 -134z" />
<glyph unicode="&#x2dc;" d="M65 627q26 73 120 73q30 0 77 -17.5t72 -17.5q55 0 72 36l49 -18q-26 -73 -120 -73q-29 0 -77 17.5t-72 17.5q-55 0 -72 -36z" />
<glyph unicode="&#x2000;" horiz-adv-x="445" />
<glyph unicode="&#x2001;" horiz-adv-x="890" />
<glyph unicode="&#x2002;" horiz-adv-x="445" />
<glyph unicode="&#x2003;" horiz-adv-x="890" />
<glyph unicode="&#x2004;" horiz-adv-x="296" />
<glyph unicode="&#x2005;" horiz-adv-x="222" />
<glyph unicode="&#x2006;" horiz-adv-x="148" />
<glyph unicode="&#x2007;" horiz-adv-x="148" />
<glyph unicode="&#x2008;" horiz-adv-x="111" />
<glyph unicode="&#x2009;" horiz-adv-x="178" />
<glyph unicode="&#x200a;" horiz-adv-x="49" />
<glyph unicode="&#x2010;" horiz-adv-x="497" d="M100 277v57h297v-57h-297z" />
<glyph unicode="&#x2011;" horiz-adv-x="497" d="M100 277v57h297v-57h-297z" />
<glyph unicode="&#x2012;" horiz-adv-x="497" d="M100 277v57h297v-57h-297z" />
<glyph unicode="&#x2013;" horiz-adv-x="427" d="M0 277v57h427v-57h-427z" />
<glyph unicode="&#x2014;" horiz-adv-x="587" d="M0 277v57h587v-57h-587z" />
<glyph unicode="&#x2018;" horiz-adv-x="249" d="M85 493v60q0 102 70 152l34 -33q-40 -43 -40 -119v-60q0 -14 -9.5 -23.5t-22.5 -9.5q-14 0 -23 9.5t-9 23.5z" />
<glyph unicode="&#x2019;" horiz-adv-x="249" d="M60 483q40 43 40 119v60q0 14 9.5 23.5t22.5 9.5q14 0 23 -9.5t9 -23.5v-60q0 -102 -70 -152z" />
<glyph unicode="&#x201a;" horiz-adv-x="249" d="M60 -127q40 43 40 119v60q0 14 9.5 23.5t22.5 9.5q14 0 23 -9.5t9 -23.5v-60q0 -102 -70 -152z" />
<glyph unicode="&#x201c;" horiz-adv-x="374" d="M85 493v60q0 102 70 152l34 -33q-40 -43 -40 -119v-60q0 -14 -9.5 -23.5t-22.5 -9.5q-14 0 -23 9.5t-9 23.5zM210 493v60q0 102 70 152l34 -33q-40 -43 -40 -119v-60q0 -14 -9.5 -23.5t-22.5 -9.5q-14 0 -23 9.5t-9 23.5z" />
<glyph unicode="&#x201d;" horiz-adv-x="374" d="M60 483q40 43 40 119v60q0 14 9.5 23.5t22.5 9.5q14 0 23 -9.5t9 -23.5v-60q0 -102 -70 -152zM185 483q40 43 40 119v60q0 14 9.5 23.5t22.5 9.5q14 0 23 -9.5t9 -23.5v-60q0 -102 -70 -152z" />
<glyph unicode="&#x201e;" horiz-adv-x="374" d="M60 -127q40 43 40 119v60q0 14 9.5 23.5t22.5 9.5q14 0 23 -9.5t9 -23.5v-60q0 -102 -70 -152zM185 -127q40 43 40 119v60q0 14 9.5 23.5t22.5 9.5q14 0 23 -9.5t9 -23.5v-60q0 -102 -70 -152z" />
<glyph unicode="&#x2022;" horiz-adv-x="369" d="M100 314q0 34 25 59.5t59 25.5q36 0 60.5 -25t24.5 -60t-24.5 -59.5t-60.5 -24.5q-34 0 -59 24.5t-25 59.5z" />
<glyph unicode="&#x202f;" horiz-adv-x="178" />
<glyph unicode="&#x2039;" horiz-adv-x="405" d="M60 251q0 21 32 48l206 184l37 -41l-216 -191l216 -191l-37 -41l-206 184q-32 27 -32 48z" />
<glyph unicode="&#x203a;" horiz-adv-x="405" d="M70 60l216 191l-216 191l37 41l206 -184q32 -27 32 -48t-32 -48l-206 -184z" />
<glyph unicode="&#x205f;" horiz-adv-x="222" />
<glyph unicode="&#x20ac;" horiz-adv-x="533" d="M20 237l11 52h65q-1 13 -1 40v18h-75l11 52h67q28 265 265 265q43 0 110 -6v-55q-82 6 -110 6q-97 0 -145.5 -53t-58.5 -157h247l-9 -52h-241v-18q0 -27 1 -40h231l-8 -52h-218q30 -192 201 -192q72 0 144 46l26 -45q-72 -56 -170 -56q-229 0 -262 247h-81z" />
<glyph unicode="&#xe000;" horiz-adv-x="500" d="M0 0v500h500v-500h-500z" />
</font>
</defs>
</svg>
