<?xml version="1.0" standalone="no"?>
<!DOCTYPE svg PUBLIC "-//W3C//DTD SVG 1.1//EN" "http://www.w3.org/Graphics/SVG/1.1/DTD/svg11.dtd" >
<svg xmlns="http://www.w3.org/2000/svg">
<metadata></metadata>
<defs>
<font id="rothmanplain" horiz-adv-x="178" >
<font-face units-per-em="1000" ascent="800" descent="-200" />
<missing-glyph horiz-adv-x="137" />
<glyph unicode="&#xd;" horiz-adv-x="137" />
<glyph unicode=" "  horiz-adv-x="137" />
<glyph unicode="&#x09;" horiz-adv-x="137" />
<glyph unicode="&#xa0;" horiz-adv-x="137" />
<glyph unicode="!" horiz-adv-x="111" d="M31 846h37l-10 -689h-17zM71 64v-54h-45v54h45z" />
<glyph unicode="&#x22;" d="M28 887l15 -3q2 -9 18.5 -51t16.5 -67q0 -14 -4 -26h-46v54q2 2 11 2q7 0 9 6q-10 42 -20 85zM103 887l16 -3q3 -12 18.5 -54t15.5 -65q0 -11 -3 -25h-47v54q3 2 12 2q7 0 8 6q-10 42 -20 85z" />
<glyph unicode="$" horiz-adv-x="209" d="M94 874h16v-62q21 0 38.5 -8t23.5 -24t7 -29.5t1 -36.5v-40h-36q0 12 1.5 34.5t1.5 23.5q0 27 -7 43.5t-28 23.5v-195q44 -51 53 -64t13 -34q0 -17 2.5 -47t2.5 -37q0 -32 -8 -52t-33 -32l-30 -9v-103h-15v101q-32 9 -42.5 13.5t-16 21t-8 34.5t-2.5 42v27t1 28h35 q0 -36 0.5 -72.5t6 -58t23.5 -21.5v145.5t2 75.5q-33 29 -50.5 67.5t-17.5 83.5q0 20 5 45q5 14 11.5 26.5t24.5 18.5q4 5 10 8t15 1v62zM94 794q-9 2 -18 -12q-3 -14 -6 -34.5t-3 -34.5q0 -25 6 -46.5t21 -38.5v166zM139 364q0 11 1 37t1 39q0 32 -6 56t-22 40v-194 q8 1 16 7.5t10 14.5z" />
<glyph unicode="&#x26;" horiz-adv-x="253" d="M46 853q23 9 45 9q30 0 59 -19q12 -13 15.5 -29t3.5 -39v-18q0 -19 1 -54t1 -50q0 -38 -2 -51t-9 -31.5t-22 -26t-29 -13.5q14 -6 29 -12t21 -20l8 -37q0 -75 -2.5 -187.5t-2.5 -128.5l6 -4q21 33 43 66q7 2 9.5 -6.5t3.5 -9.5q-2 -10 -13.5 -25.5t-17 -25t-13 -22.5 t-7.5 -24q0 -12 8 -21q4 -8 17.5 -15t18.5 -13q-4 -13 -4 -32q-19 -3 -35.5 7t-29.5 28q-8 -1 -15 -12.5t-11 -14.5q-15 -23 -48 -23q-9 0 -23 2t-29.5 16.5t-15.5 36.5l1 420q0 30 27 44q11 4 19 6t10 9q-18 7 -30.5 12t-18.5 17l-6 29v199q0 22 9 39t29 24zM117 502 q-4 9 -11.5 12.5t-19.5 3.5h-10q-13 -4 -20 -15t-7 -24l-3 -427q0 -15 7.5 -19t23.5 -4q14 -1 24 7t18 22q9 12 9 26q0 8 -5 18l1 378zM124 824q-4 13 -17 19t-28 3q-13 -2 -17 -9.5t-9 -20.5v-248q5 -10 10.5 -17.5t19.5 -3.5q15 3 26 10t14 19v122t1 126z" />
<glyph unicode="'" horiz-adv-x="89" d="M28 887l15 -3q2 -9 18.5 -51t16.5 -67q0 -14 -4 -26h-46v54q2 2 11 2q7 0 9 6q-10 42 -20 85z" />
<glyph unicode="," horiz-adv-x="98" d="M23 60h44q4 -16 4 -34q0 -26 -12 -56.5t-23 -59.5h-13q7 26 14 52.5t5 38.5q-22 0 -22 18q0 12 1 22t2 19z" />
<glyph unicode="-" d="M26 470h126v-38h-126v38z" />
<glyph unicode="." horiz-adv-x="98" d="M22 62h52v-62h-52v62z" />
<glyph unicode="0" horiz-adv-x="186" d="M9 809q0 38 25 59t60 21q33 0 56.5 -20.5t23.5 -58.5v-706q0 -50 -25 -77.5t-58 -27.5t-57.5 27t-24.5 76v707zM129 810q0 27 -11.5 42.5t-26.5 15.5t-26.5 -15.5t-11.5 -43.5v-707q0 -36 11 -56.5t27 -20.5t27 20.5t11 60.5v704z" />
<glyph unicode="1" horiz-adv-x="107" d="M11 861l87 28v-889h-40v847l-47 -10v24z" />
<glyph unicode="2" horiz-adv-x="188" d="M92 889q33 0 55.5 -9t22.5 -31v-301q0 -64 -58.5 -183t-58.5 -162v-174h89v149h36v-178h-161v202q0 41 29 108t58 133.5t29 102.5v282q0 41 -37 41q-21 0 -34.5 -9t-13.5 -34v-199h-34v214q0 23 23 35.5t55 12.5z" />
<glyph unicode="3" horiz-adv-x="189" d="M100 888q31 0 52 -13t21 -47v-298q0 -13 -17.5 -33.5t-28.5 -20.5q14 -2 29 -20.5t15 -41.5v-365q0 -25 -23 -37t-54 -12q-45 0 -63.5 13t-18.5 35v238h41v-240q0 -14 10 -24.5t31 -10.5q17 0 31 12t14 29v362q0 32 -27 41t-68 9v22l60 6q36 8 36 39v297q0 44 -41 44 q-22 0 -34 -10t-12 -33v-199h-35v197q0 34 24 47.5t58 13.5z" />
<glyph unicode="4" horiz-adv-x="229" d="M154 889h16v-585h49v-36h-49v-268h-40v267h-120zM130 303v418l-91 -418h91z" />
<glyph unicode="5" horiz-adv-x="183" d="M153 889v-22h-105v-235q8 3 22.5 5t22.5 2q32 0 54.5 -17t22.5 -62v-494q0 -35 -28 -50.5t-58 -15.5q-31 0 -53.5 11.5t-22.5 51.5v295h40v-295q0 -32 8 -41t27 -9q23 0 35.5 10t12.5 43v495q0 34 -13 48t-36 14q-18 0 -38.5 -8t-32.5 -16v290h142z" />
<glyph unicode="6" horiz-adv-x="187" d="M91 889q48 0 64.5 -12.5t16.5 -36.5v-204h-42v205q0 19 -10.5 27.5t-27.5 8.5q-15 0 -25.5 -10.5t-10.5 -25.5v-368q9 7 23.5 12.5t30.5 5.5q29 0 48.5 -23t19.5 -78v-318q0 -31 -22 -51.5t-66 -20.5q-30 0 -55 15t-25 53v772q0 27 23.5 38t57.5 11zM133 390 q0 34 -11.5 52.5t-27.5 18.5q-15 0 -26.5 -18t-11.5 -50v-325q0 -28 8.5 -38.5t26.5 -10.5q42 0 42 51v320z" />
<glyph unicode="7" horiz-adv-x="184" d="M9 889h168l-98 -889h-46l107 867h-102v-85h-29v107z" />
<glyph unicode="8" horiz-adv-x="186" d="M97 889q29 0 54 -13t25 -35v-305q0 -29 -20.5 -45.5t-34.5 -14.5q17 -4 36 -19.5t19 -36.5v-342q0 -40 -27 -59t-56 -19q-30 0 -55 16.5t-25 61.5v340q0 23 22.5 38.5t40.5 17.5q-31 3 -47 19t-16 39v312q0 23 25.5 34t58.5 11zM136 842q0 19 -11.5 27t-27.5 8 q-18 0 -28.5 -7t-10.5 -26v-310q0 -20 11.5 -31.5t28.5 -11.5q16 0 27 11t11 32v308zM136 419q0 18 -12 27t-28 9q-15 0 -26.5 -9.5t-11.5 -26.5v-343q0 -22 10 -39.5t25 -17.5q18 0 30.5 18.5t12.5 40.5v341z" />
<glyph unicode="9" horiz-adv-x="187" d="M97 0q-48 0 -64.5 12.5t-16.5 36.5v204h42v-205q0 -19 10.5 -27.5t27.5 -8.5q15 0 25.5 10.5t10.5 25.5v368q-9 -7 -24 -12.5t-31 -5.5q-29 0 -48 22.5t-19 78.5v318q0 31 22 51.5t66 20.5q29 0 54.5 -15t25.5 -53v-772q0 -26 -24 -37.5t-57 -11.5zM54 499 q0 -35 11.5 -53.5t28.5 -18.5q15 0 26.5 18t11.5 51v325q0 28 -8.5 38.5t-26.5 10.5q-22 0 -32.5 -11.5t-10.5 -39.5v-320z" />
<glyph unicode=":" horiz-adv-x="102" d="M21 507h52v-63h-52v63zM21 62h52v-62h-52v62z" />
<glyph unicode=";" horiz-adv-x="98" d="M23 60h44q4 -16 4 -34q0 -26 -12 -56.5t-23 -59.5h-13q7 26 14 52.5t5 38.5q-22 0 -22 18q0 12 1 22t2 19zM21 507h52v-63h-52v63z" />
<glyph unicode="?" d="M13 836q0 25 21.5 39t52.5 14q30 0 51 -14.5t21 -41.5v-349q0 -56 -35.5 -141t-35.5 -170h-18q0 87 29.5 172.5t29.5 138.5v348q0 23 -12.5 35.5t-30.5 12.5q-16 0 -27.5 -11.5t-11.5 -32.5v-205h-34v205zM60 81h39v-47h-39v47z" />
<glyph unicode="A" horiz-adv-x="197" d="M101 891q32 0 56 -13t24 -41v-837h-41v454h-83v-454h-43v837q0 28 26 41t61 13zM140 832q0 14 -14 25t-28 11q-16 0 -28 -11t-12 -27v-352h82v354z" />
<glyph unicode="B" horiz-adv-x="193" d="M133 889q17 0 26.5 -8.5t9.5 -33.5v-305q0 -31 -13.5 -49t-36.5 -21q29 -8 41.5 -24t12.5 -44v-327q0 -31 -10.5 -54t-30.5 -23h-118v889h119zM124 853q0 10 -14 13.5t-35 3.5h-19v-382h13q23 0 39 3t16 12v350zM128 430q0 18 -15.5 23.5t-42.5 5.5h-13v-435 q28 0 49.5 4.5t21.5 20.5v381z" />
<glyph unicode="C" horiz-adv-x="191" d="M97 889q29 0 53 -10t24 -32v-220h-34v219q0 16 -12 22t-31 8q-12 0 -25 -10t-13 -23v-792q0 -16 12.5 -26.5t28.5 -10.5q13 0 25.5 11.5t12.5 26.5v229h36v-227q0 -25 -23 -39.5t-52 -14.5q-35 0 -56.5 12t-21.5 46v788q0 23 21.5 33t54.5 10z" />
<glyph unicode="D" horiz-adv-x="189" d="M13 888h20t25 1q47 0 80.5 -9.5t33.5 -36.5l1 -801q0 -32 -46 -37.5t-85 -5.5h-29v889zM131 839q0 20 -17.5 29t-61.5 9v-860q33 0 56.5 7t23.5 42z" />
<glyph unicode="E" horiz-adv-x="142" d="M124 889v-25h-73v-375h73v-23h-73v-442h83v-24h-122v889h112z" />
<glyph unicode="F" horiz-adv-x="134" d="M128 889v-27h-78v-374h69v-30h-69v-458h-40v889h118z" />
<glyph unicode="G" horiz-adv-x="189" d="M97 888q31 0 53 -13t22 -49v-196h-36v196q0 45 -38 45q-19 0 -33.5 -12.5t-14.5 -37.5v-754q0 -20 15.5 -39t28.5 -19q18 0 32 19t14 41v348h-54v17h94v-348q0 -33 -20.5 -60t-63.5 -27q-45 0 -64.5 24t-19.5 64v739q0 35 27.5 48.5t57.5 13.5z" />
<glyph unicode="H" horiz-adv-x="190" d="M9 889h42v-420h83v420h37v-889h-37v457h-83v-457h-43z" />
<glyph unicode="I" horiz-adv-x="80" d="M18 889h41v-889h-41v889z" />
<glyph unicode="J" horiz-adv-x="181" d="M133 889h35v-811q0 -45 -25.5 -62t-55.5 -17q-28 0 -53 16t-25 56v321h35v-323q0 -28 13 -43.5t30 -15.5q18 0 32 17t14 47v815z" />
<glyph unicode="K" horiz-adv-x="202" d="M9 889h42v-397l9 -3l82 400h28l-80 -387l104 -502h-42l-93 464l-7 4v-468h-43v889z" />
<glyph unicode="L" horiz-adv-x="141" d="M10 889h43v-868h81v-21h-124v889z" />
<glyph unicode="M" horiz-adv-x="254" d="M13 889h34l82 -623l79 623h34v-889h-42v620l-64 -503h-13l-67 492v-609h-43v889z" />
<glyph unicode="N" horiz-adv-x="186" d="M12 889h31l98 -588v588h36v-889h-39v184l-86 479v-663h-40v889z" />
<glyph unicode="O" horiz-adv-x="186" d="M93 889q35 0 56.5 -12t21.5 -46v-742q0 -50 -22.5 -70t-56.5 -20t-58 18t-24 72v741q0 31 23 45t60 14zM129 830q0 48 -36 48q-40 0 -40 -49v-740q0 -31 11.5 -51t27.5 -20t26.5 18.5t10.5 51.5v742z" />
<glyph unicode="P" horiz-adv-x="188" d="M14 889h24t27 1q52 0 81.5 -10t29.5 -43v-480q0 -36 -29 -47.5t-70 -11.5h-20v-298h-43v889zM134 811q0 32 -14.5 41.5t-40.5 9.5h-22v-541q38 0 57.5 5.5t19.5 36.5v448z" />
<glyph unicode="Q" horiz-adv-x="216" d="M94 887q36 0 55 -14.5t19 -51.5v-759q2 -2 19.5 -22t17.5 -32q0 -8 -4 -15q-5 3 -18.5 17.5t-24.5 15.5q-11 -16 -22 -20.5t-34 -4.5q-28 -3 -58 10.5t-30 51.5v757q0 38 21 52.5t59 14.5zM130 823q0 49 -36 49q-20 0 -29 -11t-9 -40v-741q0 -22 10 -38.5t30 -18.5 q12 0 23 8.5t12 22.5q-3 4 -28 26t-25 40q0 5 3 13q24 -18 49 -36v726z" />
<glyph unicode="R" horiz-adv-x="187" d="M10 889q8 0 29.5 1t25.5 1q58 0 79.5 -16t21.5 -43v-325q0 -25 -10 -30t-42 -13q26 -5 41 -11.5t15 -23.5v-427q-1 -3 -17 -3h-25v430q0 13 -15.5 18t-38.5 5q-18 -1 -24 -1v-451h-40v889zM127 833q0 20 -15.5 26.5t-41.5 6.5h-19v-390h12q30 0 47 7t17 33v317z" />
<glyph unicode="S" horiz-adv-x="181" d="M91 889q39 0 58 -10t19 -36v-214h-37v212q0 16 -11.5 26.5t-28.5 10.5q-18 0 -30.5 -11.5t-12.5 -27.5v-172q0 -51 31 -120q29 -57 60 -117t31 -93v-277q0 -29 -23.5 -45t-56.5 -16q-32 0 -54 14.5t-22 47.5v213h40v-214q0 -18 9.5 -31t26.5 -13q43 0 43 46v276 q0 11 -61.5 137.5t-61.5 190.5v175q0 27 22.5 37.5t58.5 10.5z" />
<glyph unicode="T" horiz-adv-x="186" d="M12 889h166v-20h-60v-869h-42v869h-64v20z" />
<glyph unicode="U" horiz-adv-x="183" d="M11 889h41v-809q0 -33 8 -50.5t31 -17.5q24 0 33.5 19t9.5 51v807h37v-807q0 -46 -21 -64.5t-59 -18.5q-35 0 -57.5 19.5t-22.5 61.5v809z" />
<glyph unicode="V" horiz-adv-x="192" d="M9 889h42l49 -682l63 682h21l-88 -889h-15z" />
<glyph unicode="W" horiz-adv-x="266" d="M53 889l18 -563l66 535l65 -533l26 561h25l-50 -889h-12l-63 593l-75 -593h-14l-27 889h41z" />
<glyph unicode="X" horiz-adv-x="196" d="M12 889h45l47 -343l55 343h21l-57 -419l64 -470h-41l-52 374l-62 -374h-25l71 446z" />
<glyph unicode="Y" horiz-adv-x="201" d="M9 889h44l57 -473l61 473h21l-75 -543v-346h-43v346z" />
<glyph unicode="Z" horiz-adv-x="179" d="M29 889h141l-118 -870h112v-19h-158l122 871h-99v18z" />
<glyph unicode="a" horiz-adv-x="197" d="M101 446q32 0 56 -6.5t24 -20.5v-419h-41v228h-83v-228h-43v419q0 14 25.5 20.5t61.5 6.5zM140 417q0 7 -14 12t-28 5q-16 0 -28 -5t-12 -13v-177h82v178z" />
<glyph unicode="b" horiz-adv-x="193" d="M133 444q18 0 27 -4t9 -17v-152q0 -15 -14 -24.5t-36 -9.5q33 -7 43.5 -13.5t10.5 -21.5v-163q0 -16 -10.5 -27.5t-30.5 -11.5h-118v444h119zM124 427q0 7 -23.5 7.5t-44.5 1.5v-192h13q23 0 39 1.5t16 6.5v175zM128 216q0 9 -14 11.5t-44 2.5h-13v-218q33 0 52 2t19 10 v192z" />
<glyph unicode="c" horiz-adv-x="191" d="M97 444q41 0 59 -5.5t18 -15.5v-110h-34v110q0 7 -14 11t-29 4q-13 0 -25.5 -4.5t-12.5 -11.5v-396q0 -8 12 -13t29 -5q14 0 26 5.5t12 13.5v114h36v-113q0 -13 -22.5 -20.5t-52.5 -7.5q-34 0 -56 6t-22 23v394q0 12 21 16.5t55 4.5z" />
<glyph unicode="d" horiz-adv-x="189" d="M13 444h20.5t25.5 1q47 0 80.5 -4.5t33.5 -18.5v-401q0 -15 -47.5 -18.5t-83.5 -3.5h-29v445zM132 420q0 12 -26 15.5t-54 3.5v-430q32 0 56 3.5t24 20.5v387z" />
<glyph unicode="e" horiz-adv-x="142" d="M124 444v-12h-73v-188h73v-11h-73v-221h83v-12h-122v444h112z" />
<glyph unicode="f" horiz-adv-x="134" d="M128 444v-13h-78v-187h69v-15h-69v-229h-40v444h118z" />
<glyph unicode="g" horiz-adv-x="189" d="M97 444q32 0 53.5 -6.5t21.5 -24.5v-97h-36v97q0 11 -10 17t-28 6q-20 0 -34 -6t-14 -19v-378q0 -10 15.5 -19.5t30.5 -9.5q19 2 31.5 10.5t12.5 19.5v175h-54v9h94v-175q0 -17 -20.5 -30.5t-63.5 -13.5q-45 0 -64.5 12t-19.5 32v370q0 21 33.5 26t51.5 5z" />
<glyph unicode="h" horiz-adv-x="190" d="M9 444h42v-210h83v210h37v-444h-37v229h-83v-229h-43z" />
<glyph unicode="i" horiz-adv-x="80" d="M18 444h41v-444h-41v444z" />
<glyph unicode="j" horiz-adv-x="181" d="M133 444h35v-405q0 -22 -26.5 -31t-54.5 -9q-27 0 -52.5 8.5t-25.5 28.5v161h35v-163q0 -13 13.5 -20.5t29.5 -7.5q17 0 31.5 8.5t14.5 23.5v406z" />
<glyph unicode="k" horiz-adv-x="202" d="M9 444h42v-197l9 -3l82 200h28l-80 -193l104 -251h-42l-93 232l-7 2v-234h-43v444z" />
<glyph unicode="l" horiz-adv-x="141" d="M10 444h43v-433h81v-11h-124v444z" />
<glyph unicode="m" horiz-adv-x="254" d="M13 444h34l82 -311l79 311h34v-444h-42v310l-64 -251h-13l-67 245v-304h-43v444z" />
<glyph unicode="n" horiz-adv-x="186" d="M12 444h31l98 -293v293h36v-444h-39v92l-86 240v-332h-40v444z" />
<glyph unicode="o" horiz-adv-x="186" d="M93 444q34 0 56 -6t22 -22v-372q0 -25 -22.5 -35t-56.5 -10t-58 9t-24 36v372q0 15 23 21.5t60 6.5zM129 416q0 23 -36 23q-40 0 -40 -25v-370q0 -15 12 -25t27 -10q16 0 26.5 9.5t10.5 25.5v372z" />
<glyph unicode="p" horiz-adv-x="188" d="M14 444h28t31 1q49 0 76 -5t27 -21v-240q0 -21 -36 -25.5t-83 -4.5v-149h-43v444zM134 406q0 15 -14 20t-38 5h-25v-270q41 0 59 2.5t18 18.5v224z" />
<glyph unicode="q" horiz-adv-x="216" d="M94 443q36 0 55 -7t19 -25v-380q2 -1 19.5 -10.5t17.5 -16.5q0 -3 -4 -7q-5 1 -18.5 8.5t-24.5 7.5q-10 -8 -21.5 -10t-34.5 -2h-12q-27 0 -51.5 7t-24.5 24v378q0 19 20.5 26t59.5 7zM130 412q0 25 -36 25q-38 0 -38 -26v-371q0 -11 9.5 -19.5t30.5 -8.5q12 0 23 4.5 t12 11.5q-24 10 -41.5 18.5t-8.5 20.5q24 -9 49 -18v363z" />
<glyph unicode="r" horiz-adv-x="187" d="M10 444h28t32 1q42 0 69 -6t27 -22v-164q0 -14 -16 -16.5t-36 -4.5q30 -3 43 -5.5t13 -12.5v-213q-18 -1 -25.5 -1t-16.5 -1v215q0 5 -13 8.5t-45 3.5h-20v-226h-40v444zM127 417q0 7 -13 11.5t-44 4.5h-19v-195h12q28 0 46 4t18 16v159z" />
<glyph unicode="s" horiz-adv-x="181" d="M91 444q40 0 58.5 -4.5t18.5 -17.5v-108h-37v107q0 8 -12 13t-28 5q-19 0 -31 -5.5t-12 -13.5v-87q0 -32 61 -89t61 -75v-139q0 -14 -24 -22.5t-56 -8.5t-54 7.5t-22 24.5v107h40v-108q0 -9 9.5 -15.5t26.5 -6.5q43 0 43 23v138q0 16 -61.5 71.5t-61.5 92.5v88 q0 14 21.5 18.5t59.5 4.5z" />
<glyph unicode="t" horiz-adv-x="186" d="M12 444h166v-10h-60v-434h-42v434h-64v10z" />
<glyph unicode="u" horiz-adv-x="183" d="M11 444h41v-404q0 -16 7.5 -24.5t31.5 -8.5t33.5 9t9.5 25v403h37v-403q0 -23 -21.5 -32.5t-58.5 -9.5q-36 0 -58 10t-22 31v404z" />
<glyph unicode="v" horiz-adv-x="192" d="M9 444h42l49 -341l63 341h21l-88 -444h-15z" />
<glyph unicode="w" horiz-adv-x="266" d="M53 444l18 -281l66 268l65 -267l26 280h25l-50 -444h-12l-63 297l-75 -297h-14l-27 444h41z" />
<glyph unicode="x" horiz-adv-x="196" d="M12 444h45l47 -171l55 171h21l-57 -208l64 -236h-41l-52 188l-62 -188h-25l71 223z" />
<glyph unicode="y" horiz-adv-x="201" d="M9 444h44l57 -236l61 236h21l-75 -271v-173h-43v173z" />
<glyph unicode="z" horiz-adv-x="179" d="M29 444h141l-118 -434h112v-10h-158l122 436h-99v8z" />
<glyph unicode="&#xad;" d="M26 470h126v-38h-126v38z" />
<glyph unicode="&#xfd;" horiz-adv-x="0" />
<glyph unicode="&#x2000;" horiz-adv-x="445" />
<glyph unicode="&#x2001;" horiz-adv-x="891" />
<glyph unicode="&#x2002;" horiz-adv-x="445" />
<glyph unicode="&#x2003;" horiz-adv-x="891" />
<glyph unicode="&#x2004;" horiz-adv-x="297" />
<glyph unicode="&#x2005;" horiz-adv-x="222" />
<glyph unicode="&#x2006;" horiz-adv-x="148" />
<glyph unicode="&#x2007;" horiz-adv-x="148" />
<glyph unicode="&#x2008;" horiz-adv-x="111" />
<glyph unicode="&#x2009;" />
<glyph unicode="&#x200a;" horiz-adv-x="49" />
<glyph unicode="&#x2010;" d="M26 470h126v-38h-126v38z" />
<glyph unicode="&#x2011;" d="M26 470h126v-38h-126v38z" />
<glyph unicode="&#x2012;" d="M26 470h126v-38h-126v38z" />
<glyph unicode="&#x2013;" horiz-adv-x="552" d="M26 470h500v-38h-500v38z" />
<glyph unicode="&#x2014;" horiz-adv-x="1052" d="M26 470h1000v-38h-1000v38z" />
<glyph unicode="&#x2018;" horiz-adv-x="89" d="M53 884l16 3q0 -15 -10 -48t-10 -37q1 -6 8 -6q9 0 12 -2v-54h-47q-3 14 -3 26q0 25 16.5 69t17.5 49z" />
<glyph unicode="&#x2019;" horiz-adv-x="89" d="M28 887l15 -3q2 -9 18.5 -51t16.5 -67q0 -14 -4 -26h-46v54q2 2 11 2q7 0 9 6q-10 42 -20 85z" />
<glyph unicode="&#x201c;" horiz-adv-x="173" d="M53 884l16 3q0 -15 -10 -48t-10 -37q1 -6 8 -6q9 0 12 -2v-54h-47q-3 14 -3 26q0 25 16.5 69t17.5 49zM133 884l16 3q0 -15 -10 -48t-10 -37q1 -6 8 -6q9 0 12 -2v-54h-47q-3 14 -3 26q0 25 16.5 69t17.5 49z" />
<glyph unicode="&#x201d;" d="M28 887l15 -3q2 -9 18.5 -51t16.5 -67q0 -14 -4 -26h-46v54q2 2 11 2q7 0 9 6q-10 42 -20 85zM103 887l16 -3q3 -12 18.5 -54t15.5 -65q0 -11 -3 -25h-47v54q3 2 12 2q7 0 8 6q-10 42 -20 85z" />
<glyph unicode="&#x202f;" />
<glyph unicode="&#x205f;" horiz-adv-x="222" />
<glyph unicode="&#xe000;" horiz-adv-x="445" d="M0 445h445v-445h-445v445z" />
</font>
</defs>
</svg>
