<?xml version="1.0" standalone="no"?>
<!DOCTYPE svg PUBLIC "-//W3C//DTD SVG 1.1//EN" "http://www.w3.org/Graphics/SVG/1.1/DTD/svg11.dtd" >
<svg xmlns="http://www.w3.org/2000/svg">
<metadata></metadata>
<defs>
<font id="bowlby_oneregular" horiz-adv-x="1645" >
<font-face units-per-em="2048" ascent="1638" descent="-410" />
<missing-glyph horiz-adv-x="716" />
<glyph horiz-adv-x="2048" />
<glyph horiz-adv-x="2048" />
<glyph unicode="&#xd;" horiz-adv-x="2048" />
<glyph unicode=" "  horiz-adv-x="716" />
<glyph unicode="&#x09;" horiz-adv-x="716" />
<glyph unicode="&#xa0;" horiz-adv-x="716" />
<glyph unicode="!" horiz-adv-x="792" d="M107 1500q0 6 40.5 10t80.5 5l40 1h56l64 5q61 5 245 7q71 0 73 -22l-14 -188q-43 -518 -70 -756q-2 -19 -94 -19h-60q-4 0 -10 0.5t-10 0.5q-7 0 -21 -0.5t-20 -0.5h-40q-13 0 -41.5 -0.5t-42.5 -0.5h-31q-2 0 -7 -0.5t-8 -0.5h-39q-21 9 -28 38t-7.5 80.5t-1.5 63.5 l-10 130q-1 12 -5 59t-5 71l-27 396q0 17 -3.5 58t-3.5 63zM127 -3q0 48 3.5 128.5t8.5 141.5t7 61q356 0 433 -2.5t77 -14.5v-3l-1 -1v-2q-1 -5 -1 -20q1 -45 1 -132q0 -112 4 -164q-11 -10 -196 -17h-20q-42 0 -108 -2t-94 -2h-8q-54 -2 -79 -2l-10 15z" />
<glyph unicode="&#x22;" horiz-adv-x="1285" d="M193 892q0 57 5 139l5 253q0 5 -0.5 15.5t-0.5 15.5q0 21 4 38q2 24 2 70v21q0 5 -1 16t-1 17q0 44 9 53q7 0 18.5 -0.5t18.5 -0.5h131q1 0 27 1t45 1q117 0 135 -14q0 -1 -0.5 -2t-0.5 -2q0 -97 7 -297t7 -299q0 -27 -12 -34.5t-48 -7.5h-40q-3 0 -9 0.5t-10 0.5 q-177 -2 -267 -5q-4 4 -12.5 11t-11.5 10zM736 938v64q0 3 0.5 11.5t0.5 10.5l9 269q2 30 2 94v80q0 2 -0.5 7t-0.5 8q0 42 5 49h58q318 0 318 2v-6q-3 0 -3 -8q14 -268 16 -607q0 -22 -3 -28h-2l16 -10q0 -11 -16 -11v20h-1l1 1l-121 -4q-88 0 -193 -5l-65 -3 q-21 28 -21 66z" />
<glyph unicode="#" horiz-adv-x="1548" d="M237 613q0 20 11 31t43 11q6 0 17 -0.5t16 -0.5h108l24 189h-46q-105 0 -105 20q0 39 1.5 119t1.5 118q0 18 98 18q16 0 37 -1t26 -1h5q8 0 14.5 13t13 45t10 53t11.5 71l6 39l26 183q14 10 193 10h13q51 0 61 -13q-16 -86 -28 -193l-3 -26q-2 -19 -30 -192h147 q4 30 13.5 140.5t20 181.5t25.5 94h242q9 0 13 -4q-19 -165 -43 -335l-11 -75q2 0 14 -0.5t16 -0.5h33q34 0 46 1h21q4 0 10.5 0.5t8.5 0.5q8 -6 8 -56q0 -3 -0.5 -8.5t-0.5 -7.5v-92q0 -10 1 -28.5t1 -26.5v-16q0 -22 -99 -22q-20 0 -45.5 1.5t-29.5 1.5h-14l-14 -101 q0 -2 -1 -7.5t-1 -8.5l-10 -87h128q15 0 21 1q6 -2 7 -4v-151q0 -5 0.5 -14t0.5 -13v-69q-2 -7 -7 -7q-27 0 -86.5 2t-91.5 2q-19 -135 -26 -209q-1 -11 -1 -37t-0.5 -47t-6 -47.5t-15 -44t-30 -30t-50.5 -12.5q-8 0 -38 -1.5t-52 -1.5q-96 0 -113 20q0 3 12 101l6 49 q15 119 34 249q-25 -4 -58.5 -6t-68.5 -10l-39 -325q-3 -23 -4.5 -32t-7.5 -23.5t-17 -20.5t-29 -6q-38 0 -112.5 2t-108.5 2q-7 10 -14 15l2 1l-10 16q7 57 19 135l35 243h-49q-74 0 -88.5 8t-14.5 53v140q0 5 -1 17t-1 17zM329 -22q0 9 6 9q1 0 9 -4zM658 656 q1 -46 39 -53h9q1 0 3.5 0.5t3.5 0.5l133 6q32 2 38 33l36 209q-6 50 -51 50h-21q-19 0 -60.5 3t-58.5 3h-12l-23 -40q-1 -6 -22 -140z" />
<glyph unicode="$" horiz-adv-x="1444" d="M28 453q2 16 50 16q7 0 23.5 -1t24.5 -1h478q9 -4 14.5 -23t10.5 -42t16 -45.5t39 -38t72 -15.5q63 0 107 32.5t44 92.5q0 39 -32 61.5t-72 25.5q-8 0 -24.5 5.5t-43 14.5t-48.5 15l-38 10q-270 71 -348 109q-122 55 -180 152t-58 221q0 77 17.5 142.5t44.5 112.5 t70 86.5t85 65t98 47t100 34t101 24.5q-5 68 -5 157q0 38 6 50q56 -2 78 -2q37 0 105 1.5t103 1.5q22 0 22 -83q0 -23 -2 -66t-2 -62q60 -4 112.5 -12.5t108.5 -25t101.5 -39.5t86.5 -58.5t69 -80.5t44.5 -107.5t16.5 -136.5l-1 -2q-2 0 -4 1h-2q-94 0 -178 -3l-60 -2 q-132 -5 -237 -5q-36 0 -44.5 7t-16.5 36q-25 88 -130 89l-26 -6q-25 -6 -39.5 -10.5t-33.5 -14.5t-28 -25t-10 -36q1 -23 16.5 -42t34.5 -30.5t54.5 -23.5t55.5 -16.5t59 -13.5l152 -34q212 -56 314 -117q188 -143 188 -390q0 -81 -23 -150.5t-65.5 -120.5t-95.5 -91 t-121 -69t-133 -48t-141 -34l3 -174q0 -2 0.5 -8t0.5 -9q-2 -18 -23 -18q-150 0 -300 6l-28 26q1 24 1 61q0 44 -4.5 70t-18 40t-27.5 18.5t-44 9.5q-108 18 -190 63.5t-133 112t-79.5 144.5t-37.5 171z" />
<glyph unicode="%" horiz-adv-x="2153" d="M18 1039q0 5 4 21q23 258 126 370q156 123 329 123q99 0 175.5 -28.5t124 -74t77.5 -109t41.5 -127.5t11.5 -136q0 -88 -14 -164t-48 -145.5t-85.5 -119t-131 -79t-180.5 -29.5q-102 0 -180 29.5t-124.5 76.5t-75.5 114.5t-39.5 134t-10.5 143.5zM338 1043v-13v-45.5 t2.5 -51.5t7.5 -56.5t15 -50.5t23.5 -45t36 -29t50.5 -12q114 0 114 221v41q0 4 -0.5 11t-0.5 10v86q0 3 0.5 11t0.5 11q0 45 -3.5 77t-14.5 67t-36 53.5t-63 18.5q-27 -1 -48.5 -14t-35 -31t-23.5 -47.5t-14.5 -53t-7 -58t-3 -53t-0.5 -47.5zM549 -37q108 203 331.5 603 t332.5 604l179 324q19 39 40 70q156 0 204 7l-19 -39q-99 -186 -171 -332l-94 -185v2l-88 -166q-104 -194 -155 -305q-32 -62 -310 -619q-10 -18 -113 -18q-47 0 -105 2h-8q-1 0 -3 0.5l-2 0.5zM1284 430q0 18 1 27q5 52 9 83t14 80t23 82.5t35.5 69t52.5 60.5 q76 63 151 93.5t163 30.5q67 0 144.5 -19.5t136.5 -57.5h-1q45 -36 83 -96t56 -114h-1q29 -87 29 -215q0 -125 -36 -224.5t-99 -162.5t-147 -96t-182 -33q-75 0 -137.5 16t-106.5 42.5t-77.5 65.5t-54 81.5t-33.5 93t-18 96.5t-5 97zM1604 408q1 -30 2 -47t4 -49.5t8 -52 t15 -45t23.5 -40t34 -24.5t46.5 -10q120 0 120 210v29q0 6 -0.5 16t-0.5 15v100q0 3 0.5 11t0.5 12q0 38 -5 71t-17.5 67t-39 54t-63.5 20l-5 -1q-20 -1 -37 -9.5t-28.5 -20.5t-21 -31.5t-15.5 -37t-10.5 -43.5t-6.5 -43t-3 -44t-1 -38.5v-32.5v-36zM1636 1571l12 20l16 -12 q-5 -5 -28 -8z" />
<glyph unicode="&#x26;" horiz-adv-x="1815" d="M17 370q0 294 400 441q-107 69 -176.5 166t-69.5 198q0 43 12.5 86t35.5 80t54 66q62 58 195 101t292 43q68 0 133 -5.5t132 -18.5t129 -36.5t108 -55.5q65 -46 95.5 -111t30.5 -134q0 -60 -21.5 -115t-65.5 -106.5t-94.5 -95.5t-123.5 -97q53 -53 82 -77v1l108 -103 q40 54 54 99q3 8 4 22t3 24.5t7.5 22t19.5 18t37 8.5q43 1 124 1q26 0 79.5 -2t80.5 -2h2q66 0 93 2q8 -5 14 -19l-5 -35q-10 -114 -61.5 -228t-140.5 -203l195 -202q28 -30 47 -55l20 -19q34 -33 36 -48q0 -16 -60 -16q-9 0 -25 0.5t-22 0.5h-259q-114 0 -214 4 q-33 18 -59 44l-39 33l-53 -27q-214 -80 -357 -89l-89 -3q-198 0 -356 58t-245 159t-87 225zM502 396q0 -48 23.5 -87t61 -61.5t79.5 -34.5t84 -12q111 0 262 80q-19 15 -35 30.5t-25.5 25.5t-20 22t-16.5 18l-151 144q-8 0 -12.5 4t-9 12.5t-7.5 11.5q-62 62 -90 63 q-54 -26 -98.5 -91t-44.5 -125zM595 1169q3 -32 19.5 -61.5t43 -54.5t50.5 -42t54 -36l-1 1q13 -8 26 -8q15 0 26 5q34 26 53.5 43t46.5 46t40.5 59t13.5 62q0 40 -19 69.5t-50 44.5t-62.5 22t-63.5 7q-71 0 -124 -42.5t-53 -114.5z" />
<glyph unicode="'" horiz-adv-x="803" d="M198 909q0 20 2 56t2 50l7 215q4 127 5 194v37q0 3 -0.5 9t-0.5 9q0 42 7 50h66q150 0 309 -3q4 -1 4 -10l3 -185q6 -411 6 -413q0 -29 -53.5 -38.5t-157.5 -9.5h-111q-7 0 -20 0.5t-19 0.5h-25q-14 9 -19 16t-5 22z" />
<glyph unicode="(" horiz-adv-x="832" d="M140 616q16 143 66 358.5t102 377.5t75 167q8 4 14 4q168 9 389 9q8 -6 10 -13l-54 -205q-127 -446 -127 -708q13 -312 133 -712l57 -200q-3 -5 -11 -15l-12 -15h-50q-61 0 -172 4t-164 4q-34 19 -117 291l-19 50q-100 264 -120 603zM805 -306l4 6l-3 -10z" />
<glyph unicode=")" horiz-adv-x="835" d="M41 1521q9 14 20 22h318q10 0 31 0.5t32 0.5q13 0 28 -22v2l55 -151q59 -163 90.5 -258.5t63 -244.5t31.5 -273q-5 -162 -52 -334q-30 -114 -103 -332t-101 -245q-106 -6 -169 -6h-32q-5 0 -15 0.5t-15 0.5h-61q-71 0 -102 -3q1 5 5 14.5t5 13.5q0 1 1 2l5 11 q156 527 156 875q0 251 -127 701zM48 -321q5 0 11 -1h1q-1 -3 -1 -9zM445 -320q9 4 27 9q0 -22 -15 -26q0 1 2 3l-6 11v-15h-4z" />
<glyph unicode="*" horiz-adv-x="930" d="M89 1167q0 71 19 89q98 0 200 -6l-56 87q-45 70 -52 107q2 4 39 18q94 76 134 76q1 0 9 -15t23 -42.5t24 -44.5l61 -112l16 65l18 41l10 19q3 6 14 28.5t20 37.5t16 22q163 -75 163 -90q0 -18 -24 -54q-41 -56 -82 -147l66 6q30 6 90 6h13q34 0 42 -5.5t8 -28.5 q0 -61 -6 -93v-58q0 -4 -206 -4l42 -65h-1q22 -41 29 -60l14 -23q16 -22 24 -45l-129 -83l1 2l-39 -21l1 1q-7 5 -44.5 69t-61.5 109l-42 -81v1q-52 -104 -60 -104q-11 0 -48.5 18.5t-57.5 38.5q-11 6 -23 13.5t-26 17t-22 14.5l-8 2q7 28 71 130l22 45q-11 0 -52 -1t-45 -1 h-14h-10q-30 0 -41.5 1.5t-23 13.5t-13.5 35.5t-2 70.5zM193 875l2 -1q-2 0 -2 1zM195 874l2 -1l-1 -2v1zM758 878l23 13q19 -24 19 -47l-41 8v17q0 1 -1 5v4z" />
<glyph unicode="+" horiz-adv-x="1271" d="M97 447q0 3 0.5 8t0.5 7v69q0 5 -0.5 16t-0.5 17v64q0 33 6 43t31 10q130 0 354 2v66q0 44 1.5 127.5t1.5 127.5v33q0 25 6.5 33t32.5 8q3 0 9 -0.5t10 -0.5h109q6 0 25.5 1t34.5 1q67 0 78 -12q0 -66 -1.5 -195.5t-1.5 -197.5q57 0 186 1t201 1q9 -4 9 -51v-122 q0 -6 -0.5 -18.5t-0.5 -19.5v-35q0 -31 -1 -39h-4q-17 -1 -48 -1h-269q-12 0 -40 0.5t-38 0.5q4 -100 4 -321v-50q0 -33 -76 -33q-12 0 -41.5 0.5t-45.5 0.5h-50q-76 0 -76 -2l-5 386q-2 0 -13.5 -0.5t-14.5 -0.5h-102q-3 0 -10.5 0.5t-11.5 0.5t-11.5 -0.5t-10.5 -0.5h-136 q-4 0 -17.5 0.5t-21.5 0.5h-37q-15 9 -15 75z" />
<glyph unicode="," horiz-adv-x="735" d="M9 -229q4 14 12.5 59.5t13.5 68.5l8 35q6 27 19 83t21 91t19.5 85t20 83t18 65.5t16.5 51.5t12 24q18 2 56 2h158q24 0 74.5 1.5t76.5 1.5q137 0 137 -11v-4q-57 -169 -83 -256l-13 -43q-5 -19 -16.5 -53.5l-13.5 -40.5l-19 -63q-9 -29 -32 -91.5t-33 -94.5 q-19 -15 -203 -15q-8 0 -22 0.5t-20 0.5h-189q-8 6 -18 20z" />
<glyph unicode="-" horiz-adv-x="859" d="M50 379q0 4 0.5 13t0.5 15v30q0 21 1 64.5t1 65.5v15q0 9 -1 31t-1 35q0 84 11 84h221q11 0 34.5 -0.5t36.5 -0.5q50 0 154 1.5t150 1.5h34q6 0 19 -0.5t19 -0.5h68q14 -15 14 -169v-14q0 -8 -0.5 -22t-0.5 -20v-115q-2 -18 -7 -18q-122 0 -365 -10t-366 -10 q-13 11 -23 24z" />
<glyph unicode="." horiz-adv-x="775" d="M129 25q0 16 1.5 50t1.5 54v54q0 219 14 234q234 -2 354 -2h46q3 0 11 0.5t12 0.5q80 0 80 -9l3 -153q0 -3 0.5 -62.5t2.5 -89.5v-69q0 -2 0.5 -6.5t0.5 -6.5q0 -38 -3 -38h-5l-2 1q-328 -18 -493 -18l-23 36q-1 9 -1 24z" />
<glyph unicode="/" horiz-adv-x="804" d="M-38 -14q22 72 28 78l60 165q175 481 465 1247l34 87q17 5 80 5q26 0 72 -1.5t67 -1.5h26q1 0 4.5 0.5t5.5 0.5q42 0 42 -11q-15 -67 -35 -123l-29 -77q-89 -258 -180 -534l-22 -63q-12 -34 -98.5 -291t-136.5 -386l-18 -47h2q-10 -28 -15.5 -39.5t-20 -29.5t-39 -26 t-62.5 -9h-43q-38 -5 -108 -5h-51q-2 4 -13 27t-15 34z" />
<glyph unicode="0" horiz-adv-x="1462" d="M26 744q0 164 36 297t99.5 225t154 157.5t194.5 100.5t227 47h14q122 0 222.5 -28t170.5 -74.5t124 -114t86 -140t52 -159.5t27 -165t7 -163q0 -192 -72 -379q-39 -105 -104.5 -183t-150 -126.5t-182.5 -72.5t-210 -25q-125 0 -229 30t-177.5 82t-129 124.5t-87.5 153 t-48 173.5q-9 43 -19 174zM543 734q0 -48 0.5 -76t4 -83t10 -90.5t20 -80t32.5 -71t49 -45t68 -18.5q40 0 71 16t51 38.5t34.5 61t21.5 71t11 80.5t4.5 76.5t0.5 72.5v19q4 61 4 192q0 39 -2 70.5t-7 74t-17.5 74.5t-31 61t-49 44.5t-70.5 15.5q-42 0 -74.5 -17.5t-54 -43.5 t-36.5 -71t-22.5 -83t-12 -96.5t-5 -95.5t-0.5 -96z" />
<glyph unicode="1" horiz-adv-x="1579" d="M211 979q0 263 2 263q4 2 11 6t14.5 7.5t15 7.5t14.5 8t12 6q8 4 22.5 9.5t26 11t17.5 9.5q26 13 27 13q242 116 299 205q53 0 154 -3t154 -3q92 0 136 4q3 -6 3 -56v-57q0 -51 -1 -148t-1 -146q0 -294 5 -506q0 -100 4.5 -305.5t4.5 -315.5q-25 -23 -129 -23 q-17 0 -46.5 1t-39.5 1h-17q-7 0 -20.5 -0.5t-20.5 -0.5h-41q-11 0 -32 -0.5t-31 -0.5q-101 0 -200 3l-16 25q-10 14 -10 36q0 76 8 676l4 274q-164 -112 -320 -161q-7 1 -8 9v106q0 8 -0.5 23t-0.5 22z" />
<glyph unicode="2" horiz-adv-x="1458" d="M68 76q0 73 2 163v7q2 82 2 125q0 16 159 121l173 115q180 124 274 209q164 149 164 268q0 52 -31.5 82.5t-82.5 30.5q-47 0 -73.5 -23.5t-33 -52.5t-14.5 -57.5t-20 -35.5q-31 -1 -93 -1h-303q-7 0 -22 0.5t-23 0.5h-39q-34 0 -39 9q8 121 27 178q26 95 92.5 165.5 t159 109t192.5 56.5t209 18q107 0 203 -16t182.5 -52t149 -89.5t99.5 -132t37 -175.5q0 -87 -29.5 -169t-73.5 -145t-116 -129t-134.5 -111.5t-151.5 -103.5q-6 -4 -21 -17.5t-31 -28.5t-18 -17q81 0 247 4.5t241 4.5q61 0 82.5 -42t21.5 -126q0 -32 -2.5 -98.5t-2.5 -97.5 v-20q0 -25 -22 -27l-76 2q-67 0 -181 3.5t-155 3.5q-430 0 -899 -20l-13 17q-17 12 -17 94z" />
<glyph unicode="3" horiz-adv-x="1454" d="M24 446q0 13 11 13q45 0 134.5 2t113.5 2l247 4q15 0 17 -13q21 -157 149 -157q66 0 102.5 38t36.5 99q0 46 -15.5 79.5t-38 51.5t-57 28.5t-63 13t-65.5 2.5q-9 -2 -24 -2q-45 0 -56.5 20.5t-11.5 80.5q0 104 6 148t31 44h38q4 0 11 -0.5t10 -0.5h21q94 0 146 40.5 t52 143.5q0 55 -31.5 90.5t-86.5 35.5q-21 0 -38.5 -4t-28.5 -8.5t-20.5 -16.5t-14 -17.5t-10 -23.5t-6.5 -22.5t-5 -24.5l1 1q-2 -4 -6.5 -20.5t-9 -26t-10.5 -13.5q-193 0 -391 6h-37q-3 0 -8.5 -0.5t-8.5 -0.5q-53 0 -59 19q2 16 4.5 53.5t7 65t13.5 52.5q59 164 180 241 v-1q103 59 237 78.5t303 19.5q62 0 127 -11.5t130.5 -34t123.5 -59t102.5 -82.5t70.5 -108.5t26 -134.5q0 -74 -25 -131.5t-73 -96.5t-97.5 -63.5t-117.5 -46.5q190 -59 268.5 -143t78.5 -218q0 -75 -17.5 -139t-46.5 -110.5t-72 -84t-88.5 -62.5t-101.5 -44.5t-105 -30 t-106 -18.5q-71 -8 -165 -8q-192 0 -331.5 40t-241.5 140q-100 87 -109 326z" />
<glyph unicode="4" horiz-adv-x="1433" d="M-3 244q0 223 6 361q56 140 122.5 256.5t173.5 278.5v-1q5 7 15 24t11 19q157 241 206 321q6 6 28.5 8t52.5 2t39 1l90 3q200 7 333 7h185l16 -5q0 -1 1 -1v-48q0 -98 -3.5 -289.5t-3.5 -288.5q0 -12 0.5 -47t0.5 -49v-24q0 -7 -1 -27t-1 -28q0 -99 66 -99h65 q3 0 10.5 0.5t11.5 0.5q12 0 18.5 -2.5t10 -10.5t4.5 -23l9 10l5 -12h-14v2l-4 -4q0 -3 3 -93.5t3 -158.5q0 -33 -0.5 -50t-2 -31.5t-4 -19.5t-7.5 -5h-58q-4 0 -11.5 -0.5t-11.5 -0.5h-85q3 -93 3 -207q0 -23 -3.5 -33t-16.5 -11q-134 2 -202 2h-37q-190 0 -291 -6l-1 1v-1 q-14 22 -24 33q0 35 1 93.5t1 84.5v36q0 43 -69 43q-81 0 -158 -31l-286 -3q-8 0 -52 -2.5t-68 -1.5q-20 0 -29.5 0.5t-24 7t-22.5 19.5zM385 634l13 -27v-26l22 -22h32q44 0 137.5 2.5t142.5 2.5q12 5 20 10.5t13.5 12t8.5 14t5 17.5v21q0 4 -0.5 11.5t-0.5 10.5v50 q0 5 1.5 51.5t1.5 82.5q0 42 -1 75.5t-3 75t-7 72.5t-12 58.5t-19 43t-27 16.5q-23 -13 -34 -29l-51 -91q-11 -19 -38 -68.5t-42 -75.5l-56 -98q-58 -102 -106 -190zM1468 581h7q0 -6 -4 -6z" />
<glyph unicode="5" horiz-adv-x="1469" d="M76 396q7 16 85 16q4 0 12 -0.5t11 -0.5h167q42 0 129.5 -2.5t145.5 -2.5q7 -5 13 -24t11 -37.5t23 -33.5t48 -15q124 0 124 195q0 34 -1.5 58.5t-8.5 54t-19.5 48.5t-35 32t-54.5 13q-78 0 -95 -73v-1q0 1 0.5 1t0.5 1l17 -9l-18 7q-2 -7 -3 -18.5t-2 -16.5t-6 -9.5 t-15 -5.5q-71 3 -207 3h-230q-14 0 -22 9.5t-11 29t-3.5 28.5t-0.5 30v42q0 2 0.5 6.5t0.5 7.5l-3 220q-2 134 -2 198v192q0 54 2 83v36q0 55 18 82q49 -2 136 -2l984 -9q3 0 8 0.5t7 0.5q37 0 45 -14v-195v-16q0 -103 -3.5 -122.5t-21.5 -19.5h-19q-369 0 -657 -4 q-4 -16 -6 -35t-2 -45t-1 -35l-7 -96q0 -4 -0.5 -20.5t-0.5 -19.5q71 47 155.5 73t159.5 26q221 0 354.5 -135t133.5 -347q0 -127 -40 -229t-105.5 -167t-155 -109t-183 -62t-194.5 -18q-112 0 -212.5 17.5t-202.5 68t-164 129.5q-54 82 -79 241z" />
<glyph unicode="6" horiz-adv-x="1457" d="M53 748q0 235 89.5 419t257 292t388.5 119q122 -3 219 -30.5t159 -69t106 -99.5t65 -115t30 -123q-32 -8 -156.5 -13.5t-215 -7t-113.5 -1.5q-20 0 -21 -4l-2 60q-21 34 -81 34q-52 0 -88.5 -27.5t-54.5 -74.5t-25.5 -93t-7.5 -97v-29v-15.5v-21.5l1 -10q65 77 149.5 112 t170.5 35q219 0 365.5 -135.5t146.5 -340.5q0 -96 -27 -177.5t-75 -141t-109 -105.5t-133.5 -75.5t-144 -45.5t-144.5 -21q-84 1 -166 10.5t-178 39.5t-149 77v-1q-168 169 -226 378q-30 134 -30 298zM584 464q0 -61 23 -116t74 -87l12 15q3 -1 10 -1l-4 -20l15 -5l-1 1 q50 -16 59 -16q46 0 82 15.5t57.5 40t35.5 59t19 68.5t5 72q-4 113 -46 170.5t-146 59.5q-58 0 -98 -21t-60.5 -59t-28.5 -80t-8 -96z" />
<glyph unicode="7" horiz-adv-x="1462" d="M72 1485q0 62 27 62q360 0 1064 -14l207 -4q24 -1 24 -146v-47q0 -85 -3.5 -134t-10.5 -93.5t-27.5 -87t-46 -91.5t-74 -131.5t-103 -181.5t-142 -268t-183.5 -366q-5 -15 -27 -15q-14 0 -44.5 0.5t-45.5 0.5h-49q-8 0 -24.5 0.5t-25.5 0.5h-89q-10 0 -31.5 -0.5 t-33.5 -0.5q-241 0 -241 20q0 9 4 18t11 22t11 23l422 842q91 180 113 219h-70q-97 0 -319 -4h-240q-16 0 -25 5.5t-24 26.5v280q0 6 -2 28t-2 36z" />
<glyph unicode="8" horiz-adv-x="1451" d="M37 391q23 250 270 373q-223 103 -223 327q0 103 39.5 186t103 136.5t148.5 89t171.5 50.5t176.5 15q101 0 193.5 -15.5t179 -52t150.5 -90.5t102 -137t38 -185q0 -111 -63 -190.5t-183 -121.5q54 -27 84.5 -43.5t66 -41.5t54.5 -49q86 -108 86 -249q0 -93 -43 -184 q-37 -82 -128 -146.5t-204 -91.5q-123 -30 -353 -30q-149 0 -264 26t-185.5 67.5t-118.5 102.5t-68.5 121t-29.5 133zM546 436q10 -89 57.5 -141.5t129.5 -52.5q86 0 134.5 51.5t48.5 135.5q0 104 -45.5 160.5t-138.5 56.5q-82 0 -134 -61t-52 -149zM573 1071 q0 -190 163 -190q81 0 119.5 55.5t38.5 137.5q0 188 -166 188q-75 0 -115 -61.5t-40 -129.5z" />
<glyph unicode="9" horiz-adv-x="1456" d="M50 1002q8 108 51.5 200t110 157t151.5 111t177 68t186 22q356 0 526 -200v1q97 -122 137.5 -259.5t40.5 -309.5q0 -372 -156 -601q-177 -260 -653 -260q-219 0 -364 118q-134 99 -144 329q15 20 29 32l461 -7q4 -2 7.5 -7t6 -11.5t4.5 -12t3 -10.5l1 -5q9 -28 28 -43.5 t61 -15.5q30 0 54.5 9.5t40.5 24t29 38.5t20 45t12 52.5t7 51.5t4 51v21q0 5 0.5 20.5t0.5 16.5q-121 -78 -281 -84q-79 0 -155.5 18t-146.5 55.5t-123.5 90.5t-87.5 129t-38 165zM505 1005q13 -218 201 -218q37 0 66.5 9.5t49.5 26.5t34 38t21.5 48t11 53t3.5 55 q0 39 -4.5 72t-16.5 66t-32 55.5t-53.5 36.5t-78.5 14q-44 0 -79.5 -15.5t-58 -40t-37.5 -58.5t-21 -69t-6 -73z" />
<glyph unicode=":" horiz-adv-x="771" d="M124 2v33q0 177 11 373q0 11 198 11q11 0 30 -0.5t26 -0.5h152q89 0 104 -12v-188l2 -94v-72q0 -43 1 -64q-21 -23 -325 -23q-13 0 -34 0.5t-29 0.5h-39q-49 0 -74 -1l-9 12t-10 14t-4 11zM128 717v20q0 12 1 34t1 36v60q0 195 15 211q38 -1 110 -1q13 0 36.5 0.5 t35.5 0.5h69q18 0 56.5 0.5t58.5 0.5q135 0 135 -11q2 -62 2 -94q0 -6 -0.5 -17.5t-0.5 -17.5v-8l5 -136l-7 -47q9 -37 9 -75q0 -32 -12 -32q-275 -15 -490 -15l-23 36q-1 20 -1 55z" />
<glyph unicode=";" horiz-adv-x="733" d="M9 -199q0 1 0.5 2l0.5 1l6 32q18 93 26 123q0 9 22 124.5t52.5 235t48.5 119.5h30q5 0 15.5 -0.5t15.5 -0.5h62q45 0 118 1.5t132 1.5q132 0 132 -11v-12q-36 -101 -96 -285l-47 -147l-14 -49l-22 -54q-5 -14 -17.5 -42.5t-17.5 -42.5q-10 -16 -220 -16q-28 0 -82 1 t-77 1h-50l-5.5 5.5l-7.5 7.5zM145 671v13q0 1 0.5 3l0.5 2l3 92q1 12 2.5 81t5 129t10.5 68h37q13 0 37.5 0.5t36.5 0.5h74q19 0 59 0.5t61 0.5q194 0 194 -3q7 -247 7 -409v-34l-4 1l-2 -2q-31 -2 -95 -4t-73 -2l-326 -13q-19 26 -23.5 39t-4.5 37z" />
<glyph unicode="&#x3c;" horiz-adv-x="1271" d="M89 452v58q0 4 0.5 11t0.5 10v46q0 2 -0.5 7.5t-0.5 9.5q0 62 30 99l923 348q70 29 134 50h4q15 0 15 -69v-12q0 -180 -13 -203q-266 -101 -718 -283q142 -55 683 -261q24 -9 32.5 -16t14 -32.5t5.5 -79.5q0 -79 -8 -145v-2q0 -26 -11 -26h-4l-2 1l-5 1 q-328 132 -951 374q-10 4 -33.5 12t-36.5 14.5t-28.5 17.5t-23 28.5t-7.5 41.5zM1175 1091v21l7 1l3 -19z" />
<glyph unicode="=" horiz-adv-x="1273" d="M94 227q0 22 1 34v19q0 4 0.5 10.5t0.5 9.5v25q0 3 -0.5 8t-0.5 7v15q0 49 12 76l2 -1h1q0 1 1 1h22q445 -28 758 -28l38 1q234 6 249 7q9 -16 9 -135v-103q0 -3 0.5 -7t0.5 -6q0 -36 -13 -36l-285 -4q-155 0 -423 -7t-349 -8l-21 26q-3 48 -3 96zM95 713v84q0 5 0.5 14 t0.5 14v24q0 3 -0.5 7.5t-0.5 6.5v12q0 58 12 58h102q158 0 477.5 -2t491.5 -2q7 -16 7 -143v-125q-1 0 -1 1l-286 -10q-131 -6 -390 -14.5t-390 -14.5l-21 27v6q-2 38 -2 57zM1185 639v22l10 -11z" />
<glyph unicode="&#x3e;" horiz-adv-x="1269" d="M89 -8q0 129 10 248q15 34 431 188l32 13q153 55 239 91q-77 31 -220.5 92t-256.5 106t-217 82q-4 8 -4 31q0 2 0.5 5.5t0.5 4.5v30q0 168 -3 199q-2 1 -3 3l6 -2l-0.5 -0.5t-1.5 -0.5q3 -2 8 -2q187 -75 414 -160q405 -153 540 -207l122 -50q12 -26 12 -209 q0 -39 -1.5 -44.5t-14.5 -18.5h3q-466 -185 -691 -283l-137 -57q-166 -68 -237 -93z" />
<glyph unicode="?" horiz-adv-x="1121" d="M52 1107v16q2 238 2 357q0 69 381 88l39 2q239 0 398 -73l45 -23l-1 1q83 -53 127 -121l12 -25q35 -83 39 -128v-5q4 -31 11 -55q-6 -126 -60 -205q-36 -44 -86 -85t-91 -69t-78.5 -57.5t-59.5 -64t-24 -74.5q9 -37 9 -93h6q-21 -8 -32 -8l-120 -2q-133 0 -367 -8 q-11 6 -11 61q0 62 11 100q13 45 45.5 89t70.5 79.5t75.5 72t66.5 81t38 90.5q-7 55 -43.5 74t-93.5 19l-5 -1q-124 -4 -271 -60zM186 42v56q0 3 0.5 9t0.5 10v83q0 3 -0.5 10t-0.5 11q0 96 18 121l86 -3q78 -3 194 -5q163 -4 193 -13q28 -9 30 -39v-6l2 -198 q0 -6 0.5 -16.5t0.5 -15.5v-60h2l-1 -1l13 2q0 -8 -5 -15.5t-10 -7.5v21l1 1q-35 -5 -104.5 -5t-94.5 -1l-54 -3l-32.5 -2.5t-37 -3t-33.5 -1.5l-75 -3q-48 -2 -71 -2q-4 6 -7.5 11.5t-6 10.5t-4 8.5t-2.5 7.5t-1.5 7t-0.5 7v7v8.5v9.5z" />
<glyph unicode="@" horiz-adv-x="1671" d="M79 731q0 180 67.5 331.5t179 250.5t253.5 154t294 55q144 0 277.5 -41.5t238 -116.5t167 -191t62.5 -254q0 -142 -55 -276.5t-141 -219t-177 -94.5q-116 8 -177 170h-33q-59 -74 -125 -112t-165 -38q-122 0 -211 87.5t-89 210.5v35q0 77 28 150.5t78 132.5t128 95.5 t170 36.5q127 0 206 -76l72 -107l10 36q4 15 18 64.5t20 73.5l84 -3l-68 -382q-15 -57 -15 -123q0 -62 23.5 -98.5t86.5 -36.5q55 23 95.5 66.5t62.5 97t32 108t10 110.5q0 125 -33 223.5t-88 162t-132.5 105t-161 59t-179.5 17.5q-130 0 -247 -44t-209 -126.5 t-146.5 -213.5t-54.5 -294q0 -132 54.5 -245.5t145.5 -190t209 -119.5t245 -43q137 0 236 28q3 -10 5.5 -21t5.5 -19l23 -71q-138 -47 -332 -47q-147 0 -284 57t-239 154.5t-163.5 236.5t-61.5 295zM620 703q0 -99 45 -156.5t112 -59.5q125 0 203 81.5t78 189.5 q0 85 -52 138.5t-130 53.5q-109 0 -175 -71.5t-81 -175.5z" />
<glyph unicode="A" horiz-adv-x="1639" d="M-38 -17q29 100 67 224t61.5 196.5t76 234t66.5 203.5l23 71h-1l27 83q13 40 74.5 222t90.5 281q2 7 5 9h166q60 0 178.5 2.5t176.5 2.5l96 -5q8 0 35.5 2.5t43.5 2.5q60 0 60 -24q74 -208 151.5 -445t164 -512t139.5 -435l14 -50q7 -27 20 -57q-1 -9 -14.5 -11t-54.5 -2 h-19h-59q-10 0 -30.5 -0.5t-31.5 -0.5h-61q-16 0 -48.5 -0.5t-48.5 -0.5q-144 0 -241 7q-3 1 -7 12l-5 21q-4 45 -20 108t-27 91l-428 -4q-4 -17 -26 -101t-33 -127q-10 -10 -95 -10q-4 0 -12.5 0.5t-12.5 0.5h-58q-43 0 -130 -3t-130 -3h-30q-6 0 -15 -0.5t-13 -0.5h-70 q-7 7 -15 18zM648 535h59q5 0 18.5 -0.5t22.5 -0.5l239 1q-15 119 -23 175l-38 171q-58 256 -60 265q-2 4 -6 15.5t-7 16t-11.5 12t-21.5 13.5q-27 -7 -153 -567q-2 -8 -3 -12.5t-2.5 -11t-2.5 -11.5z" />
<glyph unicode="B" horiz-adv-x="1571" d="M104 468q0 374 5 648q0 3 -0.5 9.5t-0.5 10.5v62q0 129 5 296l-2 2l54 3q261 14 339 14h466q239 0 397 -99q56 -48 91 -129t35 -162q0 -122 -66 -204.5t-198 -151.5q149 -41 228.5 -131.5t79.5 -221.5q0 -232 -208 -352q-153 -90 -387 -90q-50 0 -149.5 2t-148.5 2 q-193 0 -512 -9q-20 42 -22 153q-6 230 -6 348zM652 1157q0 -107 5 -219l2 -53q2 -38 44 -45l49 6q42 5 73.5 14t66.5 29t54.5 58.5t19.5 93.5q0 52 -22 88.5t-59.5 54.5t-75 25.5t-79.5 7.5q-78 0 -78 -60zM673 413q0 -119 21 -134h37q56 0 95.5 6.5t80 25t62 59.5 t21.5 103q0 35 -9.5 63t-23 46t-38 31.5t-43 20t-51 11t-49.5 5.5t-49 2h-29l-18 -56q-7 -103 -7 -183z" />
<glyph unicode="C" horiz-adv-x="1556" d="M49 797q0 1 1 7.5t1 11.5q10 75 16 113.5t23 103t42 117.5q53 106 135.5 184t180.5 121t199.5 63t211.5 20q129 0 234.5 -25t180.5 -70t128.5 -108.5t82 -138.5t36.5 -163l9 -94q-17 -16 -215 -16q-24 0 -80 1t-79 1h-13q-17 0 -46 1t-41 1q-4 0 -12.5 -0.5t-11.5 -0.5 h-20q-17 0 -26.5 22.5t-15 54t-15 63.5t-34.5 54.5t-65 22.5q-38 0 -67.5 -14t-48.5 -33.5t-32.5 -55.5t-19.5 -63.5t-9.5 -75.5t-4 -73.5t-0.5 -74.5v-24q0 -12 -2 -45.5t-2 -55.5q0 -276 156 -282q19 0 34.5 4t27 14.5t19.5 19t16 26.5t11 27t10 31.5t9 28.5q11 40 21 55 h38q7 0 22.5 -0.5t23.5 -0.5h162q8 0 24.5 0.5t24.5 0.5q16 0 47.5 -0.5t47.5 -0.5h58q9 0 29 -0.5t30 -0.5h40q12 -1 17 -21l-3 -33q-9 -118 -55.5 -214.5t-116.5 -160t-162 -106.5t-189 -61.5t-200 -18.5q-135 0 -247 29.5t-189.5 78.5t-137 119t-94.5 144.5t-57 163.5 t-30 166t-8 161z" />
<glyph unicode="D" horiz-adv-x="1648" d="M115 52q0 6 0.5 18t0.5 18v156q0 39 1 113.5t1 108.5v366q-2 126 -2 188v164q0 3 0.5 11t0.5 12v286q0 8 109 13.5t174 5.5h114q36 0 96 1.5t91 1.5q489 0 687 -162l8 -6q21 -20 39 -39.5t56.5 -75.5t64.5 -116.5t47.5 -156.5t21.5 -200q0 -147 -40 -273.5t-109.5 -218.5 t-163.5 -157.5t-203.5 -98.5t-226.5 -34l-4 -4h-25q-46 0 -134 1.5t-132 1.5q-181 0 -453 -9q-19 36 -19 85zM644 1083q0 -173 8 -469l6 -289q6 -31 40 -37q103 2 159 14q197 70 197 479q0 61 -3 103.5t-13.5 103t-37.5 107.5t-69 78q-27 18 -61 27.5t-58 11t-65.5 2.5 t-60.5 2q-18 -27 -24 -40l-18 -37v-56z" />
<glyph unicode="E" horiz-adv-x="1306" d="M107 -11v35q0 188 3 547.5t3 521.5l1 145q0 32 -1.5 96t-2.5 112.5t-1 54.5q1 0 7 -3q760 13 1145 14q4 -2 6 -6v-282q0 -7 -0.5 -30.5t-1.5 -36.5q-5 -16 -59 -16h-7q-242 0 -504 8q0 -9 -2.5 -32t-3.5 -33l-5 -38q-5 -38 -7 -132l310 7q80 2 116 2h16q61 0 80 -3.5 t19 -20.5q0 -2 -0.5 -4.5t-0.5 -3.5v-24q0 -53 2.5 -132t2.5 -125l-1 -1v1q-304 -15 -486 -15h-47v-242q94 0 273 8.5t270 8.5q45 0 57 -13q-1 -26 -1 -74q0 -53 3.5 -139t3.5 -133q0 -25 -22 -29q-56 0 -166 1.5t-166 1.5q-98 0 -390 -7l-164 -4q-29 -1 -81.5 -2.5 t-95.5 -2.5t-81 -1l-3 2h1l-5.5 5.5l-7.5 7.5z" />
<glyph unicode="F" horiz-adv-x="1265" d="M113 106l6 1391q0 13 136 13q4 0 12 -0.5t13 -0.5h68q82 0 243.5 2.5t239.5 2.5q57 0 169 -2t174 -2h34q2 0 7 0.5t8 0.5q28 0 37.5 -12.5t9.5 -35.5q0 -15 -0.5 -46t-0.5 -47q0 -137 -4 -244q-117 -10 -320 -10l-231 -1v-29q0 -14 -1 -43t-1 -45q0 -35 3 -68 q250 21 414 21q77 0 104 -18v-335q0 -33 -13 -44t-40 -11h-13q-5 0 -25 1t-29 1q-179 -10 -397 -15q0 -69 3.5 -202.5t3.5 -195.5q0 -6 -0.5 -17t-0.5 -17v-94q0 -17 -3.5 -24t-14.5 -8q-100 0 -289.5 -2.5t-282.5 -2.5q-2 6 -15 27q-4 66 -4 112z" />
<glyph unicode="G" horiz-adv-x="1681" d="M52 748q0 138 31 253t82.5 195.5t124.5 142.5t150 99t166 60.5t166 32t157 8.5q73 0 182 -14t191 -41q100 -41 171.5 -118t93.5 -172q4 -26 9.5 -81.5t9.5 -81.5q-6 -15 -43 -15q-87 0 -255 4.5t-253 4.5q-4 2 -10 27v-3q-6 25 -11 39t-18.5 32.5t-39 27.5t-62.5 9 q-48 0 -86 -18t-61.5 -44t-40.5 -69t-25 -77t-12 -85.5t-4 -78v-69.5v-24v-23v-46t2 -47.5t6 -51.5t12 -47.5t19.5 -47t30 -38t42 -32.5t56.5 -19t73 -8q121 0 208 29l5 158l-72 6l-10 -5h-104q-1 0 -5.5 -0.5t-6.5 -0.5l-25 26q-2 17 -2 54v224q0 17 24 34h67q87 0 195 -2 h10q98 -2 149 -2h60q3 0 11 0.5t12 0.5q178 0 203 -23q0 -130 -6 -386t-6 -373v-14q0 -1 1 -2v-2l-3 -8h1v-2.5t-1 -2.5q-47 -36 -229.5 -66t-300.5 -30q-19 0 -27 1l-51 -3q-80 -5 -92 -5q-420 0 -639.5 211t-219.5 599z" />
<glyph unicode="H" horiz-adv-x="1654" d="M102 122q0 40 3 115.5t3 105.5q0 137 2 292t4.5 333t3.5 271v48q1 15 1 68.5t2.5 95t8.5 54.5h5q66 -2 97 -2h112q21 0 63 1t58 1h38q93 0 138.5 -10t59.5 -29.5t14 -60.5q0 -16 -1.5 -57.5t-1.5 -67.5v-47q0 -27 -3 -94t-3 -104q0 -22 3 -58h62q4 0 12 -0.5t13 -0.5h80 q44 0 90 7v237q0 12 0.5 36.5t0.5 37.5v69q0 3 -0.5 8t-0.5 8v51q0 59 5.5 72t28.5 13q4 0 10 -0.5t10 -0.5h65q29 0 98 3t118 3q258 0 258 -41v-71q0 -4 0.5 -12.5t0.5 -11.5q0 -8 -0.5 -26t-0.5 -26v-155q0 -111 2.5 -322.5t2.5 -315.5q0 -16 -2 -42v-48q0 -32 2 -84v-23 q0 -18 -1 -26q0 -128 2 -330q-14 -19 -175 -19q-255 0 -419 6q-2 2 -19 25v160q0 60 1 157.5t1 149.5q0 45 -10 53t-61 8h-14q-95 0 -150 -9v-140q0 -77 -1 -200t-1 -187q-15 -16 -251 -16h-48q-203 0 -297 6q-19 6 -19 142z" />
<glyph unicode="I" horiz-adv-x="842" d="M99 -20q0 3 0.5 8t0.5 9l3 110q0 19 0.5 86t2.5 110t8 86q0 435 12 877q-3 63 -3 127v33q-4 31 -4 72q0 7 5 14q214 -13 440 -13q96 0 156 6q2 -3 3 -17h-7v-362q0 -140 3.5 -409t3.5 -405q0 -9 3 -15v-2q3 -6 3 -13q0 -28 2 -81t2 -66l4 -144q-5 -11 -18 -17h-34 q-99 0 -285 -4.5t-275 -4.5q-10 5 -26 15z" />
<glyph unicode="J" horiz-adv-x="1383" d="M-11 462q0 39 12 39q19 0 62.5 -2t66.5 -2q58 0 83 1q20 -2 37 -2h35q3 0 7.5 0.5t5.5 0.5l169 -3q26 -2 37 -18.5t13 -37.5t5 -42t21 -35.5t54 -14.5q31 0 51.5 16t29 46t11 54.5t2.5 59.5v26h-3l-4 142q-3 100 -5 456q0 203 5 349l-1 1q0 11 12 13q2 0 4 1h3 q8 0 24 -0.5t25 -0.5h366q12 0 36 0.5t37 0.5h98q8 0 12 -9q-2 -22 -2 -67v-16q0 -2 -0.5 -8t-0.5 -9l-2 -51q-7 -190 -7 -564v-110q0 -141 -1 -211q-1 -119 -46.5 -213.5t-114 -151t-159 -93.5t-172.5 -51t-164 -14q-168 0 -284 35q-48 12 -94.5 34t-95 60.5t-85 86.5 t-59.5 117.5t-23 148.5v26q0 2 -0.5 6t-0.5 6z" />
<glyph unicode="K" horiz-adv-x="1646" d="M110 -9v152q0 29 1 80t1 77v565l3 495q0 13 -1.5 43.5t-1.5 42.5q0 55 11 68q27 1 71 1q107 0 162 -1l141 -2q39 3 80 3q107 0 127 -20q-5 -244 -5 -580l35 -6q15 39 54.5 117t45.5 91l11 24q4 9 36.5 77.5t49.5 110.5q51 129 90 178q70 1 200 1q71 0 205 -3.5t201 -3.5 q-285 -515 -405 -713l23 -37q21 -26 43 -60q55 -90 164.5 -280.5t171.5 -291.5l24 -39q44 -73 44 -88q0 -5 -6 -13h-6q-56 2 -83 2q-42 0 -98 -2h-449q-154 288 -320 625q-8 -80 -24 -378v-13q0 -23 1 -109.5t1 -117.5q-12 -18 -105 -18q-3 0 -10 0.5t-11 0.5h-54 q-51 0 -150 -1t-133 -1h-92q-12 0 -19 2t-9.5 4.5t-6.5 8t-8 9.5z" />
<glyph unicode="L" horiz-adv-x="1265" d="M116 1353q0 127 21 165q20 -1 55 -1h48q28 0 83.5 1t84.5 1q287 0 316 -36q0 -57 -4 -172t-4 -177l-3 -293q0 -2 -0.5 -6t-0.5 -6l-4 -416l40 -23q181 11 412 11q108 0 110 -17l-1 -4q-6 -18 -6 -56v-23q0 -53 7 -76q0 -149 -1 -233q-6 -26 -987 -26q-45 0 -149 2 q-16 30 -16 99q0 10 1 32t1 33v227q0 21 0.5 86.5t0.5 103.5v188q0 49 0.5 150t0.5 153q0 84 -2 158v11q0 20 -1.5 69t-1.5 75z" />
<glyph unicode="M" horiz-adv-x="2193" d="M130 -23q0 1 4 17v6v2q1 1 1 2q-5 72 -5 175q2 215 2.5 603.5t1.5 513.5q0 9 -0.5 26.5t-0.5 25.5v50q0 15 -1 46.5t-1 47.5q0 10 11 21h137q11 0 37.5 0.5t42.5 0.5q282 0 403.5 -8t174.5 -8q29 -172 86 -456l71 -358h35l127 649l1 5q1 5 1 10q3 14 9 55.5t11.5 69.5 t9.5 33h4q113 0 328 3t323 3q6 0 19 -0.5t20 -0.5h112q9 -4 10 -37l10 -378q12 -470 17 -732q0 -202 -6 -379q-3 -12 -40 -14l-45 -2q-54 -2 -80 -2h-52q-97 -1 -286 -1q-16 14 -24 61.5t-9.5 90t-1.5 116.5q0 69 1 171.5t1 142.5v81q0 107 -1 158l-38 7q-33 -121 -127 -539 l-9 -40q-7 -31 -23.5 -110.5t-26.5 -120.5q-12 -14 -106 -14h-13q-19 0 -56.5 1.5t-55.5 1.5q-10 0 -31 -0.5t-30 -0.5h-47q-12 0 -38.5 -0.5t-40.5 -0.5h-10.5h-11.5h-10.5t-10.5 0.5t-9.5 1.5t-9 2.5t-7.5 4t-6.5 5.5t-3.5 7l1 -1l-91 397q-4 15 -13 47t-14.5 56.5 t-6.5 46.5l-75 324l-37 -2q-12 -283 -12 -514q0 -261 1 -364q0 -2 -1 -2h-73q-4 0 -12 0.5t-13 0.5q-60 0 -178 -1.5t-177 -1.5q-34 0 -36 -1z" />
<glyph unicode="N" horiz-adv-x="1727" d="M90 13v18q0 3 0.5 10t0.5 10l5 390q0 642 12 971l2 83q0 9 689 16q6 -4 18 -44v3l6 -20q70 -201 197 -530q89 -231 91 -237l34 2q0 139 2 414.5t2 400.5q0 8 146 8q50 0 138.5 -2.5t112.5 -2.5h74q7 -331 7 -803q0 -11 -0.5 -33t-0.5 -34v-370q0 -28 1 -90t1 -86v-50 q0 -10 0.5 -26t0.5 -21q-6 -8 -49 -8h-26q-57 0 -161 -2t-153 -2q-200 0 -298 1q-5 6 -15.5 29.5t-25.5 65t-24.5 68.5t-26 76.5t-17.5 51.5l-191 507l-36 -5q0 -15 -0.5 -50.5t-0.5 -51.5v-271q0 -47 2 -138t2 -133v-112v-17.5t-2 -13t-6 -12t-12 -4.5q-99 3 -189 3h-31 q-23 0 -77 -2t-74 -2h-20q-10 0 -35 -1t-37 -1q-14 9 -25 23t-11 24z" />
<glyph unicode="O" d="M35 752q0 1 1 8.5t1 13.5q12 125 32 221.5t65 180.5q107 185 298.5 280.5t424.5 95.5q90 0 186.5 -18t204.5 -71t169 -134q117 -146 153 -272q38 -120 38 -281q0 -358 -148 -546l-46 -61q-93 -108 -263 -166.5t-337 -60.5q-286 0 -469 120q-310 201 -310 690zM605 671 q0 -65 8.5 -123t28 -116t61 -94t99.5 -39q50 0 89 16t64.5 40t44 65.5t27.5 78t14 93.5t6 95.5t1 100.5q0 56 -3.5 102.5t-16.5 102.5t-35 94.5t-63 64.5t-97 26q-31 0 -57 -8t-45.5 -19.5t-36 -33t-27 -39.5t-19.5 -48.5t-13.5 -50.5t-9 -55.5t-6.5 -53t-4 -52.5 q-1 -5 -1 -7l-4 -51v-3l-1 -2v-3q-4 -42 -4 -81z" />
<glyph unicode="P" horiz-adv-x="1527" d="M117 120v541q0 80 1 211.5t1 199.5v417q2 1 12.5 1h23.5t28.5 0.5t23.5 1.5l124 5q48 2 74 2h159q42 0 141 3.5t153 3.5q60 0 132 -5h7q34 2 43 2q98 0 186 -33t156.5 -94t108.5 -157t40 -214q0 -87 -20.5 -159t-54 -122.5t-83 -90.5t-99 -64t-111.5 -41.5t-111.5 -26 t-106.5 -13.5l-216 -9q-10 -240 -10 -373q0 -6 0.5 -16t0.5 -15v-81q-4 -14 -15 -19l-571 -9q-17 48 -17 154zM694 833l3 -60q48 1 90 7.5t83.5 23.5t71 42.5t47.5 66.5t18 94q0 56 -15 83v-1q-8 21 -19.5 37.5t-27.5 28t-31.5 20t-37.5 14t-38.5 8.5t-42.5 4t-41.5 1.5 t-42.5 0.5q-12 0 -15 -295z" />
<glyph unicode="Q" horiz-adv-x="1642" d="M49 747q0 170 46 308t124 229t184.5 152.5t222.5 88.5t243 27q174 0 316.5 -59t236 -162.5t144.5 -243t51 -300.5q0 -104 -38 -217t-105 -204h55q11 0 32 1t33 1q40 -2 54 -13.5t14 -30.5q0 -1 -0.5 -5t-0.5 -6v-10q-1 -7 -1 -24v-37q0 -2 0.5 -6t0.5 -7l1 -97 q0 -4 -0.5 -12.5t-0.5 -13.5v-49q0 -5 -0.5 -17t-0.5 -18q0 -3 0.5 -8.5t0.5 -8.5v-28q-4 -14 -23 -23q-128 16 -281 16q-105 0 -286 -20t-269 -20q-211 0 -356.5 82.5t-246.5 238.5q-13 0 -13 -2l-14 14q-123 192 -123 484zM605 727q0 -45 0.5 -73.5t5 -79t12 -85t23 -76 t37 -66t56 -42t77.5 -17.5q1 0 5.5 0.5t6.5 0.5h18q3 0 9.5 -1t10.5 -1q31 0 56 10.5t42.5 31.5t31 43.5t22 56.5t14 59.5t8.5 64t4 58.5t2 53v18q0 20 1.5 62.5t1.5 67.5q0 48 -2.5 87t-9.5 86.5t-22.5 83t-38.5 66.5t-59.5 47.5t-83.5 16.5q-70 0 -118 -45.5t-70.5 -122.5 t-31 -149t-8.5 -155z" />
<glyph unicode="R" horiz-adv-x="1561" d="M103 -26l2 90q0 5 -0.5 15t-0.5 15q0 69 2 207t2 208v73q0 12 0.5 37t0.5 38l1 259q0 5 0.5 16t0.5 18q0 36 -1.5 111.5t-1.5 115.5q0 52 2 158.5t2 160.5q0 8 57 8q7 0 29 -0.5t35 -0.5h61q20 0 63 -0.5t64 -0.5l138 2q53 0 160 1.5t161 1.5q102 0 185 -4 q223 -6 339.5 -105t116.5 -279q0 -125 -73 -213.5t-213 -155.5q54 -17 96.5 -44.5t71 -59t49.5 -73t32.5 -78.5t20 -85t12 -83t7.5 -81.5t8 -72.5l10 -51q16 -90 28 -130h1v-1q-1 0 -1 1l-4 -3q-170 -11 -369 -11q-82 0 -190 5h-6q-31 0 -66 295l-5 43q-4 110 -38.5 148 t-119.5 38q-2 0 -6.5 -0.5t-6.5 -0.5h-53v-304q0 -5 0.5 -15.5t0.5 -16.5v-183q-3 -10 -15 -12q-110 -4 -310.5 -4t-264.5 -1l-6 2l-2 -1q-2 0 -6 3zM700 1086q0 -203 5 -255q313 7 313 216q0 89 -89 131q-60 26 -160 26h-58q-11 -16 -11 -118zM1571 -6q0 1 5 1l-5 -3v2z " />
<glyph unicode="S" horiz-adv-x="1484" d="M53 414q3 -1 9 -1q91 0 265.5 4.5t263.5 4.5q13 0 22 -14t17 -34t21 -40t42.5 -34t72.5 -14q59 0 103 33.5t44 92.5q0 26 -14 47.5t-32 34.5t-52 25t-55 17t-61 14q-4 1 -16.5 3t-18.5 4h2l-57 15q-55 10 -92 22q-239 64 -345.5 161t-106.5 261q0 119 44 214t115 155 t167 100t194.5 56.5t204.5 16.5q287 0 451 -104h-1q105 -76 144 -149.5t49 -181.5l-26 -26q-263 -10 -466 -10q-34 0 -51 10.5t-22 25.5t-11 30t-27.5 25.5t-62.5 10.5h-4q-20 0 -49.5 -6.5t-61.5 -27.5t-33 -53q0 -20 11.5 -37t24.5 -27t40 -20.5t40.5 -14t42.5 -11.5 l35 -9q21 -6 122.5 -30t169.5 -46v1q65 -22 116 -46.5t100 -61t81 -81t51.5 -106t19.5 -135.5q0 -88 -25 -162t-66 -126t-102 -93.5t-122.5 -67.5t-140 -45.5t-142 -29.5t-139.5 -17q-88 0 -177.5 12.5t-176 38.5t-154 72.5t-97.5 106.5q-41 59 -55 108.5t-23 138.5z" />
<glyph unicode="T" horiz-adv-x="1318" d="M-4 1496q2 0 8 -2q216 0 639 5.5t634 5.5q39 0 49 -5.5t10 -20.5v-264q0 -13 0.5 -39.5t0.5 -40.5q0 -33 -7 -33q-59 0 -179 1.5t-183 1.5q-2 -97 -2 -304q0 -205 1 -285l4 -530q-5 -14 -20 -15q-38 0 -107.5 1.5t-103.5 1.5l-1 -1q-12 0 -34 0.5t-32 0.5h-183 q-74 0 -111 -1l-17 15q-1 1 -13 16q0 88 7 391l2 80q0 75 4.5 226t4.5 226l-2 25q-1 12 -2 34q-5 71 -14.5 88t-50.5 17q-8 0 -22.5 -1t-17.5 -1l-248 4q-13 26 -13 117q0 17 1 46.5t1 41.5v27q-1 160 -3 171z" />
<glyph unicode="U" horiz-adv-x="1615" d="M104 493q5 418 5 773q-5 0 -5 116q0 94 9 119h21q147 8 401 8q18 -4 65.5 -5t65.5 -3l31 -4q7 -198 9 -545l-3 -202q0 -33 -1.5 -95.5t-1.5 -104.5q0 -200 116 -200q49 0 82.5 43t35.5 97l4 10l3 337q0 5 0.5 15t0.5 15q0 232 -6 448l-2 73q-2 44 -2 70q0 44 11 57 q386 0 582 -3q6 -6 28 -20q-8 -189 -8 -486v-172q0 -9 0.5 -28.5t0.5 -30.5q0 -46 -1.5 -140.5t-1.5 -140.5q0 -129 -41.5 -228t-109 -160t-162.5 -100t-191 -53.5t-206 -14.5q-104 0 -199 16.5t-188.5 57t-164 102t-119 159t-58.5 220.5z" />
<glyph unicode="V" horiz-adv-x="1555" d="M-21 1500q0 2 77 3.5t184 2.5t194 1.5t131 0.5q18 0 28 -13q79 -469 178 -1022l8 -53h40l9 52q31 195 118 629l24 113q12 55 32 161.5t23 122.5q46 12 509 12h45q12 -7 15 -13l-201 -727q-22 -82 -26 -101l-47 -184q-113 -481 -162 -512q-27 0 -85 2h-5q-23 0 -64 1.5 t-62 1.5h-75q-32 -4 -79 -4q-166 0 -376 -5q-39 35 -83 255q-14 68 -37.5 154t-57.5 200t-47 160l-30 106q-13 46 -45.5 157t-51 176t-42.5 157.5t-39 165.5z" />
<glyph unicode="W" horiz-adv-x="2130" d="M-41 1500q1 8 14 14q23 -3 49 -3h12l95 3q24 0 70 1.5t68 1.5q68 0 105 -3h63q9 0 33 -2h14q19 0 41.5 -137t48.5 -363t31 -264l7 -57l39 -1q37 232 82 542q0 36 16 143t33 132q11 -1 35 -1q30 0 87.5 0.5t86.5 0.5h389q4 0 6 -2l36 -234q14 -102 45.5 -307.5 t39.5 -259.5l8 -54h38q26 289 98 761l4 23q1 8 1.5 22.5t2 21.5t6.5 16t18 13t35 4q321 0 469 -18q4 -4 8 -23q-24 -112 -79 -349t-82 -361l-8 -37q-2 -6 -12.5 -36t-9.5 -42l-70 -317l-32 -157q-27 -133 -37 -191l-5 2q-70 -4 -213 -4h-156q-9 0 -27 0.5t-27 0.5 q-113 0 -206 -4q-5 0 -16 71.5t-22 158t-13 97.5l-9 50q-32 210 -64 443l-37 1q-57 -294 -101 -714q-11 -110 -43 -115q-143 5 -260 5q-151 0 -361 -7q-29 23 -44 121l-6 39q-21 110 -46 227.5t-62 287.5t-50 229l-21 97q-12 58 -36.5 168t-44 200.5t-34.5 165.5z" />
<glyph unicode="X" horiz-adv-x="1600" d="M-27 -21q0 11 8 29t25.5 46.5t28.5 45t34 50.5q7 7 10 15l376 589l-92 151q-109 194 -213 367l-139 230q-1 2 -1 4h159q195 0 312 -8q92 0 141 1q39 -38 157 -325l15 -40l34 -67l31 70q30 72 92 206t80 155l5 -3l114 4q334 12 473 12q9 -5 9 -23q0 -2 -0.5 -4.5 t-0.5 -3.5l-236 -378q-2 -4 -56 -89l-172 -273l22 -40q18 -25 37.5 -53.5t43.5 -65.5t36 -55l24 -42q8 -14 27 -42t21 -31v1l180 -278v1l90 -143v3l2 -3h-2q3 -3 3 -7q0 -14 -50 -17q-87 0 -258.5 -2t-254.5 -2q-60 0 -83 14q-7 18 -24 51t-22 44l-161 337q-21 -38 -70 -142 t-92.5 -187t-72.5 -111q-152 4 -333 4q-12 0 -33.5 -0.5t-31.5 -0.5h-187q-5 3 -5 6zM1647 -2l1 -3q-1 1 -1 3z" />
<glyph unicode="Y" horiz-adv-x="1524" d="M-33 1501q0 5 32 5h257q213 0 321 -3q12 -2 43.5 -89t63 -188.5t60.5 -203.5l45 -159q35 93 72.5 202t86 259.5t56.5 176.5q1 8 148 8h128q46 0 77 -2h173q6 0 17 0.5t16 0.5q10 -5 15 -25l-30 -59v1l-65 -125q-6 -12 -45.5 -84t-55 -101t-43 -82.5t-46.5 -95.5l-34 -65 q-55 -106 -187 -374q-2 -34 -2 -102v-413q-5 -16 -20 -16q-99 0 -287.5 -2t-285.5 -2q-22 28 -22 64q0 21 1 63t1 62v29q0 6 0.5 15.5t0.5 14.5l1 73q0 67 -10.5 134.5t-24 118t-41 118.5t-45.5 106.5t-53 111.5l-149 298q-6 12 -37 71t-52 98v-1q-80 122 -80 162z" />
<glyph unicode="Z" horiz-adv-x="1395" d="M19 339l16 13l141 171q310 388 481 593q-47 0 -156 -1.5t-139 -1.5l-74 -2q-109 -3 -219 -3q-6 3 -8 14.5t-1 25.5t-1 28v19q0 1 0.5 3.5t0.5 4.5v59q0 50 -4.5 137t-4.5 92l1 6q2 0 9 -4q309 -1 1009 10l217 3q34 -1 50 -12.5t16 -48.5q0 -10 -1 -28t-1 -28v-10 q0 -53 -1.5 -117.5t-1.5 -82.5v-13q-15 -100 -219 -322l-77 -84q-129 -152 -209 -250l-114 -139h53q26 0 247.5 4t332.5 4q15 0 15 -178v-112q0 -10 1 -30.5t1 -34.5q0 -32 -12.5 -40.5t-44.5 -8.5h-26q-201 0 -600.5 -5t-598.5 -5q-28 0 -42 6t-29 28q0 273 -7 340z" />
<glyph unicode="[" horiz-adv-x="1035" d="M172 -246q0 10 1 29t1 28v77q0 4 0.5 13t0.5 14v134q0 983 23 1474q0 8 30 8q21 0 59.5 -1t54.5 -1h38q99 0 245.5 4t250.5 4q68 0 90 -30.5t22 -103.5q0 -17 -0.5 -70t-1 -92.5t-1.5 -46.5q-58 -2 -95 -2q-93 0 -243 12q-6 -418 -6 -640q0 -370 5 -537q51 0 147.5 2 t142.5 2h37q19 -19 19 -143q0 -24 -1 -57t-1 -43v-25q0 -5 1 -15t1 -14q0 -61 -23 -64q-129 0 -382 -4.5t-377 -4.5l-13 14q-25 26 -25 79zM985 1193l2 1q-1 -1 -2 -1z" />
<glyph unicode="\" horiz-adv-x="809" d="M-26 1565l6 4q105 -6 208 -6q30 0 78 2l2 -1v-2q-1 -3 -1 -6q0 -7 1 -12q238 -641 272 -731l58 -157q43 -117 129.5 -350t129.5 -350q0 -8 2 -12q0 -16 -21 -16h-40q-4 0 -11.5 -0.5t-10.5 -0.5h-117q-5 0 -15.5 0.5t-15.5 0.5h-28q-65 0 -79 -2l-99 296 q-285 866 -448 1343z" />
<glyph unicode="]" horiz-adv-x="1036" d="M64 1195v199q0 9 0.5 26.5t0.5 26.5v32q0 2 -0.5 6.5t-0.5 6.5q0 41 12 55h82q38 0 98 -1t92 -1q19 0 70.5 0.5t71.5 0.5h70q12 0 36 0.5t37 0.5q39 0 122.5 -5t124.5 -5v10l10 -10h-10v-71q0 -9 -0.5 -25t-0.5 -24v-175q0 -153 -9 -614l-4 -176q0 -111 -5 -333t-5 -333 v-79q0 -21 -11 -33q-68 -4 -147 -4h-33l-303 3q-271 3 -275 3q-8 2 -10 22v3q-5 140 -5 261q0 39 5.5 49.5t21.5 10.5h32q198 0 285 3v115q0 349 -14 1033h-150q-28 0 -83.5 -1.5t-82.5 -1.5l-9 9q-9 9 -13 16z" />
<glyph unicode="^" horiz-adv-x="1275" d="M133 768l1 3l3 -3h-4zM137 769l17 -1l-1 -1l-2 -6l3 6q0 -5 -3 -6h-6zM154 768q0 1 1 1zM155 769q28 63 86 182.5t66 135.5l77 161q23 47 69 143.5t69 143.5l2 2q81 -1 233 -1q13 0 19 1q1 -1 4 -19q62 -123 189 -368.5t189 -367.5q-12 -26 -151 -26q-19 0 -54 1.5 t-49 1.5h-22q-6 0 -14.5 11t-19 30.5t-19 37.5t-19.5 42t-16 33l-40 82q-55 122 -107 223l-208 -437q-7 -7 -10 -9h-20q-36 0 -106.5 -1t-105.5 -1q-3 0 -12.5 0.5t-14.5 0.5q-11 0 -15 -2z" />
<glyph unicode="_" horiz-adv-x="1050" d="M-15 -222q0 54 15 54h326q57 0 184.5 1t189.5 1q224 0 298 -4q48 -2 63 -12t15 -50q0 -7 -0.5 -16.5t-0.5 -13t-1.5 -8t-2.5 -5.5t-4.5 -2.5t-7 -1.5h-11.5q-12 0 -35 0.5t-33 0.5h-42q-7 0 -21.5 0.5t-22.5 0.5q-421 0 -880 -25l-23 30v3q-6 30 -6 47zM1073 -277l1 2 l17 -11z" />
<glyph unicode="`" horiz-adv-x="633" d="M-117 1806q0 5 9 13q205 -18 440 -18h30q1 0 2.5 0.5t3.5 0.5q18 -13 94 -141t97 -154q0 -2 3 -5q31 -48 31 -58q0 -14 -61 -14h-318q-1 0 -3 -1l-4 -2l-2 -1q-2 2 -36 44v-1l-31 38q-89 107 -141 160q-114 114 -114 139z" />
<glyph unicode="a" horiz-adv-x="1575" d="M35 327q0 243 226 298q21 5 42 9t48 7l40.5 4.5t49 4.5t44.5 4l33 3q5 0 24.5 3.5t21.5 3.5t5.5 -0.5t4.5 -0.5h24q34 0 53 5l54 7q34 2 55 5t47.5 12.5t41.5 25t25.5 44t10.5 68.5q-6 10 -6 27q0 15 -5 30t-14 27.5t-20.5 22.5t-26 15.5t-30.5 5.5h-5q-19 0 -34 -6.5 t-24.5 -17t-17 -26t-11 -29.5t-6 -31t-3 -28.5t-0.5 -24.5q-5 -8 -12 -8q-16 4 -60 4h-516q5 69 35 152q25 61 73.5 111t106 82t127 54t133 32.5t126.5 12.5l60 3q5 0 16.5 1.5t15.5 1.5q6 0 12 -3h13q9 0 24.5 1t20.5 1q14 0 63 -7l29 -4q6 -1 14 -1h16t15 -1 q88 -12 159.5 -40t121 -65t85.5 -89t57.5 -104t34 -117.5t16.5 -122.5t4 -125q7 -23 7 -42q0 -14 -2.5 -36.5t-2.5 -32.5v-116q1 -2 1 -17q0 -10 -1 -35t-1 -33v-9q3 -5 3 -14q0 -1 -0.5 -4t-0.5 -5v-21q0 -95 29 -180l10 -22h-452q-6 0 -17.5 0.5t-18.5 0.5q-40 0 -61 -1 q-32 60 -61 164q-8 -17 -25.5 -39.5t-36.5 -39.5t-29 -17q-50 -24 -77 -36.5t-69.5 -26.5t-78.5 -19q-12 -2 -38.5 -7t-50 -8.5t-42.5 -3.5q-110 0 -204.5 41t-156 125.5t-61.5 196.5zM688 404q0 -25 7.5 -48t21 -41t33.5 -28.5t43 -10.5q25 0 53 14.5t43 39.5l2 10 q0 10 0.5 30t0.5 32v30q0 6 0.5 16.5t0.5 15.5q0 50 -8 96q-20 -11 -51.5 -22.5t-54 -20t-45 -22.5t-34.5 -36.5t-12 -54.5z" />
<glyph unicode="b" horiz-adv-x="1524" d="M38 775v780q205 2 599 2q2 -94 2 -261q0 -98 -2 -216q88 75 187 117t188 42q171 0 287 -116q5 -5 7 -6q11 -10 26 -31t20 -25v1l10 -8q61 -81 97 -212q18 -77 18 -139q0 -16 -1 -26q0 -6 1 -11.5t1 -6.5v-6l-1 -51q-1 -97 -14.5 -182t-50 -171t-92.5 -147t-148 -99.5 t-212 -38.5q-164 0 -320 147l-46 -32l-43 -84h-512q0 133 -0.5 391t-0.5 389zM603 524q0 -45 14 -100.5t45.5 -101t69.5 -45.5q33 0 59 26.5t39.5 67t20.5 79.5t7 72q0 8 -1 11v2q1 4 1 11v13q0 46 -6 96t-19 104t-40 88.5t-64 34.5q-24 0 -44 -16t-33 -42.5t-21 -49.5 t-13 -47q-15 -73 -15 -203z" />
<glyph unicode="c" horiz-adv-x="1520" d="M0 577q0 58 10 118t32.5 122t54.5 116.5t79.5 102t105.5 78.5l135 72q78 28 183.5 41t163.5 13q112 0 184 -22l19 -6v1h2q339 -90 451 -298l2 -7q50 -101 67 -226l-23 8h-626l-5 37q-16 115 -54 153q-1 1 -8.5 4.5t-11.5 7.5q-30 -2 -50.5 -28.5t-29.5 -65t-13 -76 t-5.5 -70t-3.5 -38.5l5 -105l10 -10h-11q2 -28 9 -59.5t28 -63.5t51 -32q24 0 42 19.5t27 49t13 56.5t4 50q77 4 232 4h38q11 0 44 -0.5t52 -0.5h96q29 0 95.5 -0.5t97.5 -0.5q-15 -156 -91.5 -272t-211.5 -182q-20 -7 -55 -23l-38 -18q-159 -61 -291 -61q-14 0 -19 4 q-13 0 -37.5 -2.5t-42.5 -2.5q-61 0 -120 14q-40 0 -108 21q-102 24 -192.5 71.5t-147.5 115.5l-18 21q-87 112 -113 301l-3 21q-4 32 -4 48z" />
<glyph unicode="d" horiz-adv-x="1528" d="M33 527q0 163 37 308q16 54 37.5 104.5t54 102.5t71 91.5t90 67t108.5 33.5q3 0 8 -0.5t7 -0.5q18 0 45 3t40 3q43 0 95 -16.5t96.5 -39.5t85.5 -51l21 -13l-1 1q23 -15 29 -22l31 14q-1 4 -4 15t-6 20.5t-5 19.5t-2 15v6q0 2 1.5 33.5t1.5 67.5v265h298q49 0 149.5 0.5 t150.5 0.5q0 -261 0.5 -780.5t0.5 -780.5h-510q-21 34 -31 63l-40 70q-96 -85 -180.5 -124t-207.5 -39q-199 0 -335 158t-136 405zM656 510q0 -55 21 -113l-1 1q7 -30 40 -76.5t67 -46.5q13 0 21 5h-1q34 14 57 51.5t32.5 84t12.5 76.5t3 51q-1 80 -12 159q-4 26 -14.5 56.5 t-25 58t-34.5 45.5t-40 18q-30 0 -55.5 -34.5t-39.5 -85t-22 -100.5t-8 -87q0 -14 1 -19q-2 -6 -2 -21q0 -4 2 -10q-2 -6 -2 -13z" />
<glyph unicode="e" horiz-adv-x="1475" d="M-11 531q0 9 2 19q-2 9 -2 26t1 26v15q0 212 126 366.5t339 217.5l23 7q53 9 76 19l-1 -1q45 13 126 13q21 0 67 -4l42 -4q11 -1 31.5 -3t30 -3t25 -3t31 -5.5t34.5 -8.5v1l21 -9q210 -65 327 -198v1q27 -32 66.5 -96.5t39.5 -89.5l8 -27l5 -29q19 -67 19 -116 q0 -41 1 -65h-824v-33q6 -23 6 -56q0 -17 0.5 -31.5t2.5 -28t2.5 -22t4.5 -20t4.5 -15.5t6 -16t6 -13.5t8 -15t8.5 -14.5v1l11 -21q19 -21 52 -30q69 14 94 109q4 15 13 60q36 10 102 10q21 0 64 -1.5t64 -1.5h369q-12 -122 -72 -224h1q-52 -82 -161.5 -141.5t-215.5 -84 t-194 -24.5q-8 0 -16 2h-23q-2 0 -5 -0.5t-4 -0.5h-9q-8 0 -20 2q-10 -6 -24 -6q-13 0 -40 5t-47 5q-7 -3 -15 -3q-35 0 -126 27v-1l-24 7l-24 8q-150 44 -257 154.5t-137 257.5q-3 18 -11 54.5t-8 52.5zM604 708q64 4 118 4h130l21 13q-5 31 -8.5 48t-11.5 49.5t-17.5 52 t-23 41t-32.5 32t-42 10.5q-37 0 -67 -42t-45.5 -96t-21.5 -112z" />
<glyph unicode="f" horiz-adv-x="893" d="M46 985v150h118v38q0 11 1 17q-3 15 -3 36q0 75 33.5 166t90.5 141q53 38 186 38q184 0 360 -3v-213h-34q-36 0 -52 1q-27 -10 -44 -28.5t-24 -44.5t-9 -45t-2 -48q2 -6 2 -10q0 -1 -1 -3v-2v-28q32 -6 74 -6h45q26 0 41 -1v-307h-163v-834q-38 0 -105.5 -0.5 t-103.5 -0.5q-93 0 -295 2v834h-114q0 27 -0.5 76t-0.5 75z" />
<glyph unicode="g" horiz-adv-x="1599" d="M38 662q0 121 40.5 226.5t113 183.5t179.5 123t234 45q203 0 339 -113q6 -6 10.5 -12t6.5 -8t10 -7.5t25 -17.5l14 44v70h259h82.5t93.5 0.5t84 0.5l1 -933q0 -17 -2 -53v-4q-1 -19 -1 -60v-11q0 -9 1 -27t1 -26q0 -7 -3 -28.5t-3 -27.5q0 -5 1 -5q0 -2 -6 -21 q-11 -66 -25 -103q-41 -110 -163 -200.5t-212 -103.5q-10 -10 -39 -15.5t-35 -7.5v1q-97 -32 -227 -32q-47 0 -50 2h-30q-9 -3 -29 -3q-57 0 -159 23l-32 7q-72 15 -133 43q-142 57 -223 152t-110 263l-2 9q32 -2 94 -2q27 0 82 1.5t82 1.5h443l-1 -4q0 -52 22.5 -94.5 t68.5 -42.5q28 0 48.5 20.5t30.5 53t14 63t4 60.5v20q-3 0 -3 -4q-2 3 -2 17q0 15 2 30.5t2 27.5q0 15 -9 81q-13 -23 -35.5 -46t-37.5 -27q-109 -48 -272 -48q-148 0 -271.5 63.5t-198 183.5t-74.5 271zM700 688q0 -13 1.5 -20.5t1.5 -14.5v-9q0 -1 -0.5 -3.5t-0.5 -3.5v-6 q0 -51 15.5 -104.5t48.5 -93t74 -39.5q66 0 110 164h-5q15 39 15 80v32q0 2 0.5 6t0.5 6q-1 28 -2.5 47t-5 52t-8.5 56t-15 50.5t-22.5 44.5t-31.5 28.5t-43 11.5q-34 0 -60 -25t-39 -59t-21.5 -77.5t-10.5 -72t-2 -50.5z" />
<glyph unicode="h" horiz-adv-x="1438" d="M40 783v785q201 2 579 2l1 -504q70 79 170.5 126t190.5 47q76 0 156 -40t132 -106q44 -69 75 -166.5t31 -162.5q0 -13 -1 -46t-1 -53q0 -51 0.5 -160.5t0.5 -150.5v-183q0 -30 0.5 -86.5t0.5 -85.5h-568l-1 512q0 7 1.5 47t1.5 64q0 91 -26.5 135.5t-69.5 44.5 q-35 0 -57 -18.5t-31 -55t-11 -64t-2 -72.5v-128q0 -7 0.5 -20.5t0.5 -21.5v-422q-50 0 -144 -0.5t-143 -0.5h-285q0 134 -0.5 393t-0.5 391z" />
<glyph unicode="i" horiz-adv-x="764" d="M52 1576l10 10v-10q112 0 314.5 1t303.5 1q0 -47 0.5 -137.5t0.5 -136.5h-616q0 96 -2 137q0 22 -0.5 67t-0.5 68h-10zM60 25v45q0 197 6 327l3 214q0 58 4 277.5t4 278.5v30l78 1q3 0 9 -0.5t8 -0.5h29q3 0 11.5 -0.5t13.5 -0.5q2 0 6.5 0.5t6.5 0.5h72q3 0 8 0.5t7 0.5 l341 -4h2q2 1 3 1q3 0 3 -6l1 -95q1 -95 3 -201.5t3 -172t1 -106.5q0 -34 -0.5 -74.5t-0.5 -50.5v-53q0 -9 1.5 -26t1.5 -27v-31q0 -1 -1 -2v-2v-31q0 -1 0.5 -4t0.5 -5l1 -150q0 -41 -4 -98t-7 -59l-18 -2h-364l-42 -4q-156 0 -190 4v7q0 2 -0.5 8.5t-0.5 10.5z" />
<glyph unicode="j" horiz-adv-x="918" d="M38 -503q0 4 3 16v3q3 12 3 15v19q0 15 1.5 47.5t1.5 48.5v228h-8l8 10v-10h33q46 0 78.5 12t49.5 29t26.5 45.5t11.5 50.5t2 55v15q0 21 1 63t1 64v988h292q47 0 145.5 0.5t147.5 0.5q3 -645 3 -1305v-4q3 -20 3 -39q0 -83 -34.5 -172.5t-89.5 -127.5h1 q-128 -84 -378 -84q-24 0 -63 1.5t-43 1.5h-6q-1 0 -3 -0.5t-3 -0.5h-18q-6 0 -10 2h-18q-15 -5 -37 -5q-14 0 -38 2h-6q-18 2 -31 2q-19 13 -26 29zM251 1554h292q47 0 145 0.5t147 0.5q0 -45 0.5 -131t0.5 -130h-582q0 48 -1.5 133.5t-1.5 126.5z" />
<glyph unicode="k" horiz-adv-x="1632" d="M20 0v1569h318q53 0 158 0.5t160 0.5q0 -121 2.5 -435t2.5 -441l38 112q36 115 132 392h536q3 0 9.5 -0.5t9.5 -0.5h77q6 0 17.5 1t19.5 1q-6 -32 -24.5 -69.5t-40.5 -63.5q-16 -23 -25 -41v1q-51 -77 -192 -322q48 -103 220 -458l121 -247h-688l-69 206 q-42 122 -103 322l-38 -86v-440q-97 -3 -271 -3q-250 0 -370 2z" />
<glyph unicode="l" horiz-adv-x="770" d="M62 1570q46 0 129 0.5t125 0.5q116 0 360 -2v-1570h-612q0 262 -1 783.5t-1 787.5z" />
<glyph unicode="m" horiz-adv-x="2224" d="M31 600v597q49 0 138 0.5t136 0.5h275l7 -24q37 -131 56 -204q65 112 151.5 190.5t172.5 78.5q16 0 36 -2q7 2 18 2q87 0 178 -71.5t150 -171.5q101 132 192 187.5t197 55.5q74 0 156 -34.5t151.5 -102.5t93.5 -152l7 -26q2 -7 10 -36t12.5 -49.5t4.5 -38.5q0 -15 -4 -29 q7 -6 7 -18q0 -9 -1 -22t-1 -17q2 -72 2 -101v-614h-606l-1 588q0 4 0.5 11.5t0.5 10.5q0 145 -81 145q-29 0 -48.5 -16.5t-28 -44.5t-11.5 -51t-3 -48q0 -13 1 -38.5t1 -30.5v-525q-49 0 -140 -0.5t-138 -0.5h-277l-1 537q0 10 1 30.5t1 34.5q0 130 -80 154 q-94 -5 -94 -145q0 -11 1 -33.5t1 -26.5v-550q-56 0 -161.5 -0.5t-160.5 -0.5h-320q0 103 -0.5 301.5t-0.5 299.5z" />
<glyph unicode="n" horiz-adv-x="1460" d="M50 599v598l266 -1q45 0 133.5 0.5t134.5 0.5q5 -21 18 -66t25 -90l19 -75q40 101 49 112l16 20q49 69 130 105.5t172 36.5q107 0 196.5 -59.5t139.5 -155t50 -201.5q0 -12 -3 -19v-615q0 -32 0.5 -96t0.5 -95h-585l-2 500q0 9 2 44t2 58q0 153 -81 153q-87 0 -87 -145 q0 -32 1 -44v-15q0 -2 0.5 -8t0.5 -9v-533q-52 0 -149.5 -0.5t-148.5 -0.5h-299q0 103 -0.5 301t-0.5 299z" />
<glyph unicode="o" horiz-adv-x="1569" d="M22 633q0 9 3 15v16q-3 4 -3 8l1 7q1 1 1 2v2h-1q19 175 74 230q0 5 2 8.5t6 9t6 7.5v-1q3 3 8.5 13t6.5 11q35 45 77 84t92 71.5t101 51.5l35 13q28 13 81.5 27t103.5 21l32 3q6 1 16 1.5t17 0.5t14.5 1t11.5 3l43 -1q3 1 9 1q2 0 7 -1l-1 1q6 -3 18 -3q4 4 14 4 q217 0 369 -89l20 -9q327 -157 327 -536q-2 -10 -2 -12v-8q-3 -165 -76 -297h1q-102 -156 -284.5 -240t-375.5 -84q-163 0 -282 37t-240 117q-70 47 -118.5 108.5t-72 132t-32.5 135t-9 139.5zM672 581q0 -34 5.5 -77.5t16.5 -92t34 -81t52 -32.5q28 0 49.5 21.5t32.5 52.5 t18 74.5t9 78.5t2 74q-1 50 -7 99t-17.5 95.5t-33 75t-49.5 28.5q-20 0 -37 -13.5t-28.5 -35t-20 -50.5t-13.5 -58t-8 -61t-4 -55t-1 -43z" />
<glyph unicode="p" horiz-adv-x="1552" d="M34 439v757q46 0 130 0.5t128 0.5h261q19 -39 34 -66l38 -70q106 97 195.5 137.5t199.5 40.5q102 0 185.5 -39t136.5 -101.5t89 -145.5t51 -167.5t15 -171.5q0 -24 -4 -44q-16 -174 -60.5 -288.5t-156.5 -217.5v1q-100 -86 -190 -86q-26 -12 -51 -12q-28 0 -75.5 6.5 t-62.5 14.5q-140 30 -225 118l-38 -1q9 -57 9 -98q0 -3 -0.5 -9t-0.5 -9v-306q-53 0 -152.5 -0.5t-151.5 -0.5h-303q0 129 -0.5 379.5t-0.5 377.5zM630 579q0 -37 3.5 -76.5t14.5 -92.5t37 -91.5t64 -47.5q104 9 122 232q0 5 2.5 27.5t2.5 35.5q-1 1 -1 4t1 5v17q0 49 -4 81 l-6 42q-3 12 -7.5 39t-8 43.5t-11.5 39.5t-18 36t-27.5 22.5t-39.5 9.5q-37 0 -62.5 -31t-38.5 -82.5t-18 -103.5t-5 -109z" />
<glyph unicode="q" horiz-adv-x="1556" d="M33 542q0 16 6 37q-5 9 -5 14q0 124 36.5 250.5t107.5 218.5q153 178 386 178q41 -4 105 -18t81 -32q25 -12 46 -28.5t50.5 -46t38.5 -37.5l27 -17q8 20 16 38t18 37t14 28l10 21q0 1 5.5 10t6.5 12q68 -10 510 -10l1 -339q0 -196 2.5 -588t2.5 -589h-608l-1 439 q-52 -24 -85 -51q-44 -44 -134 -72.5t-166 -28.5q-131 0 -239.5 81t-166.5 204.5t-58 257.5q-7 13 -7 31zM661 570q0 -266 119 -299q24 2 43 12t29.5 22.5t19.5 33.5t12.5 35t8.5 37q0 15 8.5 58.5t8.5 63.5l-1 14q0 5 1 20t1 25q0 31 -2 60t-6 64.5t-13 65.5t-22 56.5 t-33.5 44t-45.5 23.5q-15 -2 -27 -7t-21.5 -13t-17 -15.5t-13.5 -20t-10 -21.5t-8 -24.5t-6 -24t-5 -24.5q-3 -22 -8.5 -45t-8.5 -43.5t-3 -50.5v-47z" />
<glyph unicode="r" horiz-adv-x="1186" d="M44 596v601q47 0 133.5 0.5t132.5 0.5h266q6 -33 15 -92.5t17 -109t17 -92.5h35q37 171 142 243l40 23q3 6 36 22l-4 -1l23 9q98 39 169 40q15 0 20 -2h37v-558q-21 5 -52 5q-59 0 -106.5 -13t-80 -33.5t-56.5 -52.5t-38 -65t-22.5 -75t-11 -78t-2.5 -79q0 -19 1 -56.5 t1 -48.5v-184q-62 0 -179 -0.5t-177 -0.5h-355q0 102 -0.5 299.5t-0.5 297.5z" />
<glyph unicode="s" horiz-adv-x="1638" d="M37 833q0 75 25 135t66.5 100t102.5 69.5t125 46t142 26.5q13 1 29.5 4.5t31 7t30 6.5t31 5t29.5 2q7 0 13 -2q25 0 67.5 3.5t59.5 3.5q30 0 87.5 -4t88.5 -4q15 -1 47 -3.5t52 -4.5t48.5 -5.5t54 -8t49.5 -11.5q107 -29 189.5 -100t94.5 -154l-7 2l-220 -10 q-15 0 -45 0.5t-46 0.5q-81 0 -251 -2q-8 22 -26.5 39.5t-46.5 28.5t-59 11q-27 0 -49.5 -9.5t-35 -24t-12.5 -30.5q0 -29 11.5 -50.5t30.5 -35t47 -23t57.5 -13.5t65.5 -7.5t67 -4.5t66.5 -4t60.5 -8q28 -5 68 -10.5t65.5 -9t60 -11.5t62 -19t60.5 -31t65 -48q14 -6 40 -37 q45 -69 57 -200q-5 -144 -105 -255.5t-253 -161.5q-12 -6 -30 -8l-34 -8q-97 -28 -168 -28q-43 -14 -138 -14q-4 0 -13 0.5t-12 0.5h-73q-1 0 -5 -0.5t-6 -0.5q-155 0 -332 50v-1q-377 93 -378 324q53 -4 159 -4q82 0 242.5 1.5t243.5 1.5q-1 -6 -1 -20q0 -44 45 -72 t105 -28q58 0 92 23t34 60q0 36 -19 60.5t-56 36.5t-68.5 17.5t-81.5 9.5t-70 7q-28 5 -75 11.5t-82.5 11t-83 13.5t-84 18.5t-78.5 25.5t-72.5 35t-60.5 47.5t-49 62.5t-30.5 79.5t-11.5 98.5z" />
<glyph unicode="t" horiz-adv-x="1042" d="M50 1042v143h115v331h309q51 0 153 0.5t156 0.5l1 -330h167q0 -26 0.5 -72t0.5 -71v-142h-163v-404q0 -2 -0.5 -7t-0.5 -8q0 -35 2.5 -51.5t16 -33.5t42 -22.5t79.5 -5.5q4 0 13 -0.5t14 -0.5q15 0 27 3q0 -64 0.5 -186.5t0.5 -186.5h-547q-8 0 -20.5 -1t-13.5 -1h-11 q-10 0 -17 2q-42 10 -75 28t-54.5 36.5t-36.5 47.5t-22.5 52t-11.5 60.5t-4.5 60.5t-0.5 64v554h-118q0 26 -0.5 70.5t-0.5 69.5z" />
<glyph unicode="u" horiz-adv-x="1538" d="M54 519q0 6 0.5 16.5t0.5 15.5v644h318q53 0 158 0.5t160 0.5v-96q0 -102 -1 -316t-1 -319q0 -102 73 -102q61 0 61 108v724q57 0 166 0.5t163 0.5h326q0 -198 0.5 -597t0.5 -598h-560l-47 162q-67 -104 -158.5 -151.5t-192.5 -47.5q-192 0 -323 110l1 7q-17 5 -42 36.5 t-38 54.5q-65 118 -65 347z" />
<glyph unicode="v" horiz-adv-x="1663" d="M-5 1196q62 0 191.5 0.5t188.5 0.5h372q5 -29 10 -80l22 -218q12 -124 45 -402h2l108 700h705l-3 -20h-3q-166 -580 -342 -1177h-966q-74 254 -121 419l-18 72q-92 353 -191 705z" />
<glyph unicode="w" horiz-adv-x="1966" d="M1 1199h335q52 0 164.5 0.5t168.5 0.5q2 -27 5 -40l6 -43q36 -315 44 -420h4q4 24 12 80.5t13 87.5l49 293q0 3 1 14t1 12q109 2 337 2q12 -94 37 -243t37 -235h2q14 76 36 218l16 104l14 74q7 68 14 94h655q-58 -271 -214 -979l-56 -220h-636l-22 167q-17 110 -30 218.5 t-18.5 153.5t-7.5 45q-14 -86 -42 -283t-46 -301h-677q-16 74 -32.5 166.5t-26.5 154.5t-27.5 175t-24.5 157l-21 133q0 1 -70 414z" />
<glyph unicode="x" horiz-adv-x="1624" d="M33 -1q14 44 32 88l19 48q12 32 43.5 122t55.5 153.5t51 122.5q32 87 52 137q-32 79 -84 231h1l-17 51q-13 40 -33 92q-41 123 -50 153h308q51 0 156 0.5t159 0.5q12 -65 30 -191t26 -166l13 -66h35l39 190q2 10 19 105t27 128h627l-154 -330l-17 -40q-7 -17 -21 -43 t-23.5 -44.5t-9.5 -22.5l-27 -50q42 -101 130.5 -326.5t137.5 -342.5h-635q-44 177 -124 541h-36q-4 -21 -20 -104t-23 -125l-18 -108q-12 -75 -37 -205h-10q-166 2 -245 2h-101q-16 0 -50 -0.5t-52 -0.5h-174z" />
<glyph unicode="y" horiz-adv-x="1403" d="M-16 1195h305q48 0 149.5 0.5t151.5 0.5l45 -259q5 -43 16 -122t16 -119l97 500h591v2l20 -2l-5 -20h-2l-264 -732q-41 -103 -74 -218q-10 -32 -36 -98.5t-29 -75.5q-14 -36 -48 -132.5t-63 -167t-63 -131.5q-90 -153 -287 -166l-94 -1q-11 0 -39.5 -2t-41.5 -2 q-22 0 -39 3q-7 -2 -21 -2q-11 0 -31 1.5t-30 1.5q-8 0 -20 -1.5t-19 -1.5q-5 0 -25 2h-7q-30 2 -41 2q-8 -2 -15 -2h-21l-19 51q-2 6 -2 14q0 11 1 15v7q0 2 0.5 5.5t0.5 4.5v114q0 118 -1 175q14 2 32 2q15 0 25 -3q14 3 37 3h8q9 5 55 12q9 1 24 5t17 4v-1q29 10 48 28.5 t28 45.5t13 49.5t6 57.5q0 51 -40 177l-16 50q-117 375 -293 926z" />
<glyph unicode="z" horiz-adv-x="1440" d="M-3 1q14 27 40 68q30 46 128.5 197.5t144.5 226.5l202 326h-56q-37 0 -111.5 1t-116.5 1h-82v375h1253q-1 -3 -4 -3l-113 -182q-244 -421 -365 -641h189q36 0 111 -0.5t108 -0.5v-370h-1180q-5 0 -37 -1.5t-50 -1.5q-29 0 -47 3l1 -1q-3 0 -8 1.5t-7 1.5z" />
<glyph unicode="{" horiz-adv-x="1032" d="M54 718q0 46 12 58q181 2 191 110l-2 269q0 1 -0.5 3.5t-0.5 4.5v25q0 66 14 118.5t36.5 87.5t58 61t70 40t83 22.5t86 11t88.5 3.5l128 2q15 0 40.5 -1.5t38.5 -1.5h8l25 -23q0 -30 -0.5 -83t-0.5 -80v-83q0 -5 0.5 -19.5t0.5 -23.5q0 -56 -19 -56q-3 0 -9 0.5t-10 0.5 h-48q-58 0 -85.5 -25t-32.5 -94l-3 -80q-2 -54 -2 -164q0 -71 -58.5 -123t-142.5 -81l85 -32q70 -33 92.5 -90t22.5 -180v-36q0 -8 -1 -27t-1 -29v-18q0 -48 4.5 -74.5t20.5 -48.5t47.5 -30.5t84.5 -8.5h14q25 0 29 -5v-22q0 -2 -0.5 -6t-0.5 -6v-80q0 -5 0.5 -16t0.5 -17 q0 -182 -13 -196l-184 8q-55 0 -96 2t-90.5 8.5t-85 18t-71.5 32t-58.5 48.5t-38 70t-18.5 95q-2 56 -2.5 116t-0.5 95.5t-1 73.5t-2.5 58t-7 41.5t-13 31.5t-20.5 20t-30 14.5t-42 8.5l-35 4q-49 6 -49 7q-6 147 -6 291z" />
<glyph unicode="|" horiz-adv-x="492" d="M88 -56q0 340 11 873l3 148q2 81 7 554v7q0 1 -0.5 3.5t-0.5 4.5v13q0 18 4 23q47 1 132 1q99 0 143 -1q1 -1 1 -13q0 -5 -1.5 -23t-1.5 -34l4 -341q6 -548 13 -879l5 -340q-11 -24 -114 -24h-74q-79 0 -108 5l-11 12q-2 1 -12 11z" />
<glyph unicode="}" horiz-adv-x="1035" d="M100 -302l3 155q0 5 -0.5 20t-0.5 24q0 127 17 134h55q66 0 99.5 25t33.5 102q0 23 -1.5 70t-1.5 76q4 135 46.5 193.5t174.5 103.5q-124 38 -168.5 94.5t-44.5 169.5q0 33 1.5 95.5t1.5 78.5q0 76 -35 103.5t-134 27.5q-32 0 -32 4q0 24 1 71t1 70v60q0 8 -1 30t-1 34 q0 57 8 76q30 -2 83 -2h27q1 0 3 -0.5t4 -0.5h19h4l3 1h98q54 0 84 -1t78.5 -8.5t77 -21.5t64 -42t55.5 -68.5t35.5 -102t18.5 -141.5v-46q0 -36 -3 -98t-3 -90q0 -33 13 -57t31.5 -36t47.5 -19t50 -8.5t51 -1.5h2q1 1 2 1q7 -2 7 -13v-119q0 -7 -0.5 -21t-0.5 -21v-128 q0 -7 0.5 -23t0.5 -21q-6 -8 -29 -10.5t-50.5 -3.5t-55 -7.5t-45.5 -29.5t-18 -62q0 -21 2 -54l3 -68q4 -82 4 -127q0 -80 -12.5 -143t-36 -106t-54 -72.5t-70.5 -45.5t-80 -23t-88 -7h-46q-3 0 -8.5 0.5t-7.5 0.5l-126 -1q-4 0 -14 -1t-15 -1h-66q-4 0 -12.5 0.5t-12.5 0.5 q-8 0 -12 -1q-3 4 -5.5 8.5t-5 7.5t-5.5 7v-1z" />
<glyph unicode="~" horiz-adv-x="1303" d="M138 563q0 3 2 5q117 204 287 204q39 0 83 -11.5t65 -20.5t76 -34l33 -18q2 -1 8.5 -4t7.5 -3q130 -65 190 -65q43 0 87.5 39t78.5 90q-4 8 -6 21l10 4l10 -10l10 1q18 0 57 -109t39 -154q0 -9 -1 -13v-5q-63 -88 -131 -136.5t-154 -48.5q-84 0 -200 57q-9 2 -15 6 l-24 12q-42 21 -65 31.5t-62.5 21t-76.5 10.5q-55 0 -93 -31t-74 -97l-69 10l-16 43q0 1 -4.5 11t-6.5 17l1 -1q-47 125 -47 178z" />
<glyph unicode="&#xa1;" horiz-adv-x="784" d="M77 -397l13 138q4 89 26 260q8 62 20.5 240.5t25.5 308.5t27 142q3 4 46 4q15 0 38 -0.5t24 -0.5h167q41 0 65 -1t42 -6t24.5 -10t11 -19t5 -26t2.5 -38.5t6 -49.5l8 -57q45 -467 64 -741q8 -112 8 -132q-1 -3 -3.5 -5.5t-6.5 -4t-7.5 -3t-9 -2.5t-9.5 -1.5t-11 -1 t-11 -1t-11.5 -1t-10.5 -0.5q-2 0 -5 -0.5t-4 -0.5l-512 -9l-20 15q-1 2 -2 3zM129 893l5 154q0 4 0.5 11.5t0.5 11.5v15q0 139 8 139h69q35 0 105.5 1t106.5 1h169h19.5t20 -0.5t15.5 -0.5q11 -22 11 -218v-119q-14 -18 -151 -18q-6 0 -18 0.5t-18 0.5h-87q-38 0 -119 -3.5 t-112 -3.5q-16 16 -25 29zM659 888q0 1 1 2z" />
<glyph unicode="&#xa2;" horiz-adv-x="1497" d="M143 536q0 409 487 552v55q0 31 -1 88t-1 86q0 13 232 13q60 0 74 -8v-7q-1 -19 -2 -97t-3 -123l9 -10q178 -10 290 -111.5t132 -300.5q-12 -6 -111 -6q-5 0 -16 0.5t-17 0.5h-58q-36 0 -107 -1.5t-109 -1.5q-32 0 -46 7v3q0 31 -2 51.5t-10.5 48.5t-30 43t-55.5 15 q-143 -4 -143 -311q0 -76 6 -118v-7q0 -175 114 -175q31 0 55.5 10.5t38 22.5t24.5 36.5t14.5 36t9.5 37.5l6 24q155 -3 445 -3q8 0 12 -15q-4 -51 -8.5 -81.5t-19 -70.5t-38.5 -68q-49 -74 -137 -118.5t-224 -85.5q5 -88 5 -178q0 -15 -0.5 -22t-2.5 -16t-6.5 -12.5 t-12.5 -4.5h-71q-125 0 -217 5l-25 29l3 192q-75 19 -108 28.5t-87.5 33t-89.5 53.5q-156 131 -170 286q-28 107 -28 195z" />
<glyph unicode="&#xa3;" horiz-adv-x="1440" d="M12 628q0 14 0.5 40.5t0.5 39.5v38q0 6 0.5 18.5t0.5 19.5v15q0 9 -1 27t-1 28q0 39 12 51q6 0 19 -0.5t22 -0.5h41q14 0 52.5 -0.5t53.5 -0.5q-2 66 -2 129q0 170 70 296q80 116 234.5 177.5t328.5 61.5q389 0 542 -232q55 -66 55 -241q0 -20 -8 -25q-366 3 -431 5 q-43 1 -57 10t-17 25q-2 11 -7.5 22.5t-15 25.5t-27.5 22.5t-40 8.5q-102 -8 -102 -159q0 -48 3 -81v-6q2 -20 2 -47l251 5q44 0 53 -7q0 -41 1.5 -126t1.5 -126q0 -22 -15 -22q-13 0 -21 1l-58 3q-20 1 -60 1q-132 0 -143 -18q-6 -13 -8 -109l-3 -109q151 4 340 4h56 q43 0 133.5 3.5t138.5 3.5q15 -5 15 -51v-30q0 -51 2 -153t2 -150q-2 -27 -18 -36t-46 -9h-38q-4 0 -11 -0.5t-10 -0.5h-215q-8 0 -25.5 0.5t-27.5 0.5q-353 0 -589 -5l-36 -2q-48 -2 -69 -2h-53q-5 0 -14.5 0.5t-13.5 0.5h-96q-62 0 -95 2l-18 23q0 4 -0.5 9.5t-0.5 8.5v20 q0 40 -2.5 116.5t-2.5 129.5q0 75 17 94l142 10q3 147 3 165v29q0 6 0.5 21.5t0.5 19.5h-83q-4 0 -10.5 0.5t-9.5 0.5h-29q-2 0 -6 -0.5t-7 -0.5q-51 0 -51 18z" />
<glyph unicode="&#xa4;" horiz-adv-x="1478" d="M221 61q35 62 89 119l57 60q-43 54 -62 113h1l-12 33q-29 69 -39 130l-6 110q1 44 7.5 92.5t21.5 107t44.5 115t69.5 97.5l-53 55q-117 119 -117 134q0 6 20.5 20t29.5 16l-2 2l7 -3h-4l-1 1l170 -182q145 102 318 102q227 0 348 -112l23 -19l200 210l-2 1l4 2l-2 -3 q5 -2 13.5 -8t21.5 -17t14 -12q-1 -7 -15.5 -23.5t-41.5 -44.5t-41 -44q-9 -10 -26.5 -27t-24.5 -25h1l-53 -57q116 -153 116 -419q0 -174 -89 -316l85 -89q60 -63 90 -120q-11 -8 -25 -11l-17 -10q-3 -1 -5 -1q-18 0 -76 63q-4 5 -6 7l-96 102q-75 -75 -159.5 -107.5 t-184.5 -42.5l-45 -1q-3 0 -8.5 1t-6.5 1q-67 8 -109.5 16t-106.5 35.5t-116 71.5l-71 -76q-61 -70 -81 -70q-5 0 -20 12q-12 2 -27 11zM478 634q0 -69 12 -122t35 -88t50 -57t64 -38q36 -29 94 -29q1 0 4 0.5t5 0.5h25q28 0 48 1t51.5 8t54 18.5t48.5 34.5t42 55t27 82 t11 112q0 52 -5.5 95.5t-14.5 75.5t-24.5 57.5t-30.5 42t-36.5 28.5t-39 18.5t-43 9.5t-43 4t-43.5 1h-35q-35 0 -67 -7t-67.5 -28t-61.5 -54t-43 -90t-17 -131z" />
<glyph unicode="&#xa5;" horiz-adv-x="1456" d="M-29 1523q0 8 181 8h74q3 0 55.5 1.5t92.5 1.5q164 0 183 -18q3 -23 10.5 -47.5t20 -57t17.5 -47.5l38 -118h-1l29 -92q4 -14 18.5 -56t20.5 -63l25 -80l27 -99q111 358 129 418l56 186q14 43 53 56t146 13q25 0 73.5 -1t71.5 -1h39q6 0 15.5 0.5t14.5 0.5h29q7 0 25 0.5 t29 0.5q62 0 70 -10q-18 -32 -38 -75.5l-40 -87t-38 -76.5l-83 -169q-15 -37 -44 -111t-37 -95l-34 -85q51 -3 75 -3q23 0 32 1h13q2 0 4.5 0.5t5 0.5h4.5q12 -6 12 -49q0 -11 0.5 -44.5t0.5 -51.5q0 -77 -13 -83h-261l-46 30q0 -99 10 -241q117 10 220 10q59 0 77.5 -11 t18.5 -40q0 -7 -1 -20t-1 -19v-94q0 -37 -9.5 -47t-37.5 -10q-12 0 -34.5 0.5t-32.5 0.5h-33q-5 0 -16.5 0.5t-17.5 0.5q-60 0 -142 -4q0 -6 -0.5 -22.5t-0.5 -35v-28.5q0 -7 0.5 -21.5t0.5 -21.5q0 -50 -24 -54q-26 0 -92.5 -0.5t-91.5 -0.5h-91q-16 0 -47 -0.5t-46 -0.5 h-19q-1 0 -3.5 0.5l-2.5 0.5l-149 3q-3 5 -23 30v3q0 14 1 23v13q0 3 0.5 10t0.5 11q0 9 -1 27.5t-1 25.5v36l-219 -6q-32 0 -50.5 1.5t-29.5 7t-12 14.5v90q0 5 0.5 15.5t0.5 16.5q0 9 -1.5 28t-1.5 29q0 48 35 48q3 0 14.5 -0.5t18.5 -0.5h32q21 0 66.5 -1t70.5 -1h49 l41 6q0 30 -1 52.5t-4.5 52t-9.5 48t-17.5 32t-27.5 13.5q-87 -5 -249 -5q-14 9 -14 89v25q0 15 1 42.5t1 40.5q0 23 14 28.5t46 5.5h6h10q5 0 19.5 -1t23.5 -1h33l-17 102l-123 252q-12 25 -33.5 73t-40 85t-41.5 73q-7 16 -23 44t-25 48t-9 32zM1342 600v4l20 -2z" />
<glyph unicode="&#xa6;" horiz-adv-x="494" d="M100 -345q0 219 5 496.5t5 288.5q0 2 -0.5 5t-0.5 4v18q0 27 67 27q105 0 213 -3q-1 -1 -1 -2t0.5 -5t0.5 -7q0 -4 -0.5 -16t-0.5 -19q0 -17 2 -22v-414l2 -16l4 -338q-10 -25 -106 -25h-72h-2q-3 0 -7 -0.5t-9 -1t-11 -0.5h-12q-57 0 -64 16zM100 797q0 203 5 459.5 t5 262.5v7q0 1 -0.5 3.5t-0.5 4.5v13q0 18 4 23q47 1 132 1q100 0 143 -1q1 -1 1 -13q0 -5 -1.5 -23t-1.5 -34l4 -341l6 -364q-10 -26 -106 -26h-72h-2q-3 0 -7 -0.5t-9 -1t-11 -0.5h-12q-57 0 -64 16z" />
<glyph unicode="&#xa7;" horiz-adv-x="1819" d="M200 715q0 88 63.5 168.5t174.5 119.5q-78 41 -124 104.5t-49 136.5q24 183 180 260q135 55 324 55q181 0 460 -44l1 -188q0 -11 0.5 -32.5t0.5 -32.5q0 -16 -4 -20q-174 39 -278 39q-22 0 -40 -4.5t-30.5 -14.5t-12.5 -25q0 -46 147 -93l64 -21l-1 1l26 -9 q117 -47 183 -126t78 -169q-3 -106 -22 -145q-50 -119 -205 -199q65 -44 104 -105t39 -123q0 -72 -32 -129.5t-80.5 -91.5t-111.5 -56.5t-118.5 -30.5t-108.5 -8q-313 0 -568 47l-24 28q-3 79 -3 220q0 72 20 72q2 0 9 -3t9 -3q197 -67 321 -67q29 0 56 14.5t27 46.5 q0 44 -115 86q-5 2 -8 3q-11 5 -105 42t-141 71h1q-107 93 -107 226zM618 783q0 -34 25 -64t60 -48t74 -31t65.5 -18.5t34.5 -5.5q11 0 31.5 8.5t41.5 28t21 43.5q0 29 -47.5 57.5t-105.5 46t-105 28.5t-50 10l45 45q-13 0 -27.5 -6.5t-25.5 -15.5t-17 -18l15 -13l-15 12 q-20 -32 -20 -59z" />
<glyph unicode="&#xa8;" horiz-adv-x="659" d="M-108 1474q0 314 22 339q36 -1 153 -1.5t180 -2.5q7 -2 7 -25q0 -2 -0.5 -6t-0.5 -5v-32q0 -19 1 -54t1 -44v-31q0 -109 1 -156q-10 -11 -81 -11q-3 0 -10 0.5t-11 0.5h-51q-31 0 -97.5 -3.5t-89.5 -3.5q-4 6 -12 17.5t-12 17.5zM458 1469q0 85 6 208.5t18 135.5 q55 -3 104 -3q29 0 83 1.5t87 1.5q61 0 64 -8q5 -157 7 -342q-3 -6 -3 -10l-7 1q-60 -6 -169.5 -8t-163.5 -6zM813 1438l10 14l14 -1q0 -17 -14 -17q-6 0 -10 4z" />
<glyph unicode="&#xa9;" horiz-adv-x="1646" d="M12 745q5 120 34.5 226t77.5 187t111.5 148.5t135.5 113.5t150.5 77.5t155 46t150.5 14.5q161 0 310 -64t260 -174t180.5 -263t77.5 -324q-3 -134 -50 -263.5t-130 -228.5v1q-125 -145 -286.5 -226.5t-345.5 -81.5q-105 0 -221.5 33t-222.5 93v-1q-93 58 -166 143.5 t-116.5 181t-68 183.5t-36.5 178zM223 758q0 -160 81.5 -302.5t220.5 -228.5t297 -86q121 0 233.5 49t196 133t134 203t50.5 252q0 119 -48.5 226t-129.5 183t-189.5 121.5t-225.5 47.5h-14q-125 0 -239 -52t-199 -144q-82 -88 -116 -177.5t-52 -224.5zM412 757 q8 125 75 228t166.5 159t208.5 56q151 0 241.5 -86.5t122.5 -231.5l1 1v-2l-1 1q-4 -9 -47 -9q-5 0 -12.5 0.5t-10.5 0.5h-149l-8 8q-37 114 -148 114q-53 0 -92 -23.5t-59.5 -62.5t-29.5 -79.5t-9 -82.5q0 -96 44.5 -164t132.5 -68q44 0 70 12.5t35 29t25 44t36 46.5 q27 2 73 2h80q3 0 7.5 0.5t6.5 0.5h13q46 0 53 -20q-33 -144 -135 -240.5t-231 -96.5q-93 0 -170.5 27.5t-129 72.5t-87.5 106t-53 125t-19 132z" />
<glyph unicode="&#xaa;" horiz-adv-x="845" d="M64 1077q0 90 85 132.5t232 42.5q91 0 159 -3v62q0 71 -25 108.5t-91 37.5q-35 0 -66.5 -15.5t-46.5 -42.5q-36 0 -106.5 -1t-106.5 -1q50 116 335 116h56q69 0 144.5 -15.5t122.5 -49.5q36 -41 36 -121q0 -19 -0.5 -56t-0.5 -54v-279h-5l-2 -1q-1 0 -3 0.5t-5 0.5h-18 q-34 0 -104 2h-6q-66 2 -98 2l-2 21v1q-1 2 -1 3v55q-141 -98 -271 -98q-97 0 -154.5 37.5t-57.5 115.5zM295 1105q0 -49 35 -75.5t85 -26.5q57 0 86.5 22t38.5 78v31l1 49q0 6 -1 17.5t-1 16.5v18h-25q-32 0 -56.5 -1.5t-57.5 -9t-54 -21t-36 -38.5t-15 -60z" />
<glyph unicode="&#xab;" horiz-adv-x="1335" d="M1 498q4 37 38.5 95.5t88.5 132.5t69 99h-1l137 213q2 2 7 4.5l7 3.5h3q92 -2 134 -2h95q5 0 16 0.5t16 0.5h131q1 0 3 -1t3.5 -1.5t2.5 -0.5t2 1q-3 -38 -58 -136l-25 -45q-2 -5 -8 -17t-8 -18l-139 -306q34 -81 77 -176t87 -190t73 -163q-6 -7 -44.5 -9t-92 -2 t-71.5 -1q-113 -5 -194 -5q-8 0 -10 11l-38 56q-31 45 -301 456zM633 500q0 3 1 8.5t1 7.5q56 92 170.5 274t154.5 247q9 6 56 6h22q36 0 108 1.5t109 1.5q11 0 35 -1t36 -1h28q27 0 30 -9l-79 -172q-96 -210 -160 -337l15 -36v-6q90 -209 103 -236l28 -60q42 -90 89 -198 q-6 -14 -59 -14q-3 0 -8 0.5t-8 0.5h-41q-12 0 -35 -0.5t-34 -0.5h-204q-19 0 -35 10q-10 16 -128 201h2l-37 56q-85 129 -160 257zM1162 498q21 0 21 -11l1 -6h-20z" />
<glyph unicode="&#xac;" horiz-adv-x="1283" d="M103 911l8 5l-1 -2v-4q-2 1 -7 1zM108 638q0 32 1.5 88.5t1.5 84.5v23q0 4 -0.5 12.5t-0.5 12.5v51q183 0 542 6t537 6q17 -4 19 -6l3 -335q2 -224 2 -333q-5 -21 -22 -21h-47q-2 0 -7.5 0.5t-8.5 0.5q-95 0 -213 -5l-30 34v360l-772 3q-5 4 -5 18z" />
<glyph unicode="&#xad;" horiz-adv-x="859" d="M50 379q0 4 0.5 13t0.5 15v30q0 21 1 64.5t1 65.5v15q0 9 -1 31t-1 35q0 84 11 84h221q11 0 34.5 -0.5t36.5 -0.5q50 0 154 1.5t150 1.5h34q6 0 19 -0.5t19 -0.5h68q14 -15 14 -169v-14q0 -8 -0.5 -22t-0.5 -20v-115q-2 -18 -7 -18q-122 0 -365 -10t-366 -10 q-13 11 -23 24z" />
<glyph unicode="&#xae;" horiz-adv-x="1710" d="M56 746q7 164 56 302q50 134 136 235.5t190 159.5t212.5 86.5t219.5 28.5q160 0 308 -64t259.5 -173t182 -262.5t78.5 -325.5q-4 -156 -65 -302t-165 -254q-115 -114 -267.5 -178.5t-314.5 -64.5q-120 0 -247.5 37t-237.5 108h1q-78 51 -138 119t-95.5 134t-60.5 144.5 t-35.5 139t-16.5 130.5zM282 763q0 -120 40.5 -229.5t114 -193t183.5 -132.5t240 -49q173 0 310.5 80.5t214.5 224t77 322.5q0 208 -124 367l-2 2q-85 91 -208.5 143.5t-251.5 52.5q-142 0 -249 -38.5t-196 -137.5q-81 -99 -115 -190t-34 -222zM614 1043v75h6q40 0 129 3.5 t135 3.5q119 0 195.5 -48t76.5 -143q0 -51 -15.5 -90.5t-37.5 -60.5t-50.5 -34.5t-49.5 -17.5t-39 -4l106 -201q11 -13 28 -46.5t38 -62.5l8 -15v-10q3 0 6 1t4 1l-10 -11v9q-48 -5 -120 -5l4 -7l-10 7h6q-25 45 -65 134.5t-60 128.5l-33 63h-137v-97q0 -41 -2.5 -118 t-2.5 -106q-9 1 -31 1h-55q-3 0 -10.5 0.5t-11.5 0.5v512q-2 92 -2 137zM724 379v13q20 -1 20 -13h-20zM728 808q23 0 82 -2t92 -2q22 0 39 1.5t34.5 5.5t29.5 11.5t22 19.5t15 30t5 41q0 47 -21 78q-21 26 -59.5 33t-109.5 7q-59 0 -128 -7q0 -7 -0.5 -29t-0.5 -31v-156z " />
<glyph unicode="&#xaf;" horiz-adv-x="678" d="M-117 1219v64q0 3 0.5 9t0.5 9v57q0 4 -0.5 11t-0.5 10q0 62 18 101q418 -26 675 -26h67q23 0 72 2t80 2q4 -5 4 -28q0 -3 -0.5 -7t-0.5 -6v-72q0 -42 1 -58v-26q0 -5 0.5 -14.5t0.5 -13.5q0 -15 -7.5 -20t-23.5 -5h-30q-2 0 -6 0.5t-6 0.5l-136 -2q-4 0 -12.5 -0.5 t-12.5 -0.5h-26q-83 0 -151 -4l-269 -3q-36 -1 -108.5 -2.5t-107.5 -1.5z" />
<glyph unicode="&#xb0;" horiz-adv-x="878" d="M124 1270q24 128 105 213t214 85q121 0 213 -86t92 -217v-14q-2 -113 -88 -205t-200 -92q-59 0 -116.5 18.5t-107 55t-80.5 99.5t-32 143z" />
<glyph unicode="&#xb1;" horiz-adv-x="1266" d="M91 -6q0 28 1.5 78.5t1.5 76.5v14q0 6 -1 23t-1 26q0 59 24 77l24 -3q166 -13 367 -13q21 0 82 0.5t86 0.5h85q14 0 42 0.5t42 0.5q223 0 338 -9q4 -4 4 -85q0 -5 -0.5 -14.5t-0.5 -13.5v-171q-4 -7 -29 -7q-2 0 -5 0.5t-4 0.5l-364 -4q-28 0 -146.5 -2.5t-183.5 -1.5 h-93q-24 0 -68 -1t-67 -1h-61q-37 0 -52 -1zM97 788v169q0 15 160 15h24q4 0 13 0.5t13 0.5l177 3v138v14q0 49 5 61.5t31 12.5q3 0 10.5 -0.5t11.5 -0.5h206q3 0 7 0.5t6 0.5q33 0 39 -11q0 -3 -0.5 -6t-0.5 -5l-3 -213h180q9 0 28 -0.5t28 -0.5h150q7 -4 7 -27l-3 -236 q0 -1 0.5 -4t0.5 -5q0 -18 -6 -18h-391l-1 -106q2 -42 2 -67v-25q0 -25 1 -25h-39q-3 0 -8.5 0.5t-7.5 0.5q-41 0 -113.5 -1.5t-108.5 -1.5h-12q-7 89 -9 214q-58 4 -109 4q-31 0 -97 -1.5t-101 -1.5h-46q-43 0 -43 13v81q0 4 -0.5 13.5t-0.5 14.5zM478 454l21 1 q0 -1 2.5 -3.5t2.5 -5.5q-12 -7 -18 -7q-8 0 -8 15z" />
<glyph unicode="&#xb2;" horiz-adv-x="1160" d="M129 48q0 46 1.5 110t1.5 96q0 6 51 40l33 22l166 112q104 73 171 133q117 105 117 193q0 39 -23.5 61.5t-61.5 22.5q-34 0 -54 -15.5t-25 -34t-10 -40t-12 -28.5q-25 -1 -64 -1h-179q-5 0 -16 0.5t-17 0.5h-59q-16 0 -20 2q4 72 18 120q19 66 65 114t109.5 75 t132.5 39.5t145 12.5q92 0 173 -18.5t147 -55.5t104.5 -100t38.5 -145q0 -61 -20.5 -118t-51.5 -100.5t-80.5 -89t-93 -77.5t-104.5 -71l1 1q-16 -10 -62 -56q54 0 175.5 2.5t181.5 2.5q38 0 51.5 -28t13.5 -82q0 -20 -2 -66t-2 -72v-13q0 -12 -8 -13l-53 1q-218 5 -236 5 q-285 0 -625 -13q-18 21 -18 71z" />
<glyph unicode="&#xb3;" horiz-adv-x="1227" d="M133 306q0 3 1 3l322 4q4 0 12 0.5t12 0.5q5 0 7 -6q6 -56 31 -84t79 -28q50 0 76.5 28.5t26.5 73.5q0 33 -11.5 57.5t-28 38t-42 21t-47 9.5t-49.5 2q-7 -2 -13 -2q-27 0 -34 13.5t-7 51.5q0 37 0.5 53.5t2 37.5t6 29t11.5 8q2 0 6 -0.5t7 -0.5h44q68 0 106 30.5 t38 106.5q0 41 -23 67t-66 26q-37 0 -57.5 -15t-24.5 -34t-9.5 -41.5t-15.5 -32.5q-147 0 -270 4h-37q-30 0 -36 6q2 9 4.5 52t12.5 68q46 113 124 163q71 42 163 55t211 13q65 0 133 -18.5t129 -53t99.5 -93.5t38.5 -131q0 -50 -19 -89.5t-54.5 -66.5t-73.5 -45t-89 -34 q139 -43 199 -103t60 -151q0 -288 -369 -336q-65 -6 -115 -6q-132 0 -230.5 28.5t-167.5 97.5q-68 60 -73 223zM168 857l1 2q0 -1 -1 -2z" />
<glyph unicode="&#xb4;" horiz-adv-x="641" d="M45 1438l168 286q43 63 49 70h70q62 0 205.5 -5t212.5 -5v-3q-40 -46 -131 -147.5t-139 -156.5q-38 -43 -69.5 -53t-102.5 -11l-183 -3q-3 0 -8.5 -0.5t-7.5 -0.5h-49z" />
<glyph unicode="&#xb5;" horiz-adv-x="1358" d="M74 1033q0 19 9 27q55 1 164 1q4 0 14 -0.5t15 -0.5h314q12 -5 20 -28q-3 -41 -3 -117l-4 -355q0 -2 -0.5 -8t-0.5 -9v-18q0 -11 -1 -34t-1 -35q0 -33 1.5 -56t6.5 -48.5t14 -41t25.5 -26t39.5 -10.5q28 0 46.5 12.5t27 36.5t11.5 48t3 58q0 12 -0.5 34.5t-0.5 33.5v17 l3 128q1 46 1 141v261q0 8 151 8q7 0 13 -2l7 -1h19q52 0 166 3t165 3q9 -4 13 -26q0 -14 0.5 -41.5t0.5 -42.5q0 -116 -5 -327t-5 -316q0 -14 1.5 -18t1.5 -5l1 1q0 -12 1.5 -39t1.5 -33l3 -69l6 -8q-1 -17 -4.5 -64t-3.5 -74q-7 -13 -40 -13h-11q-2 0 -5.5 0.5t-4.5 0.5 h-94q-10 0 -27 -0.5t-25 -0.5h-133q-92 0 -165 4q-11 9 -11 88v21l-34 6l-17 -32q-62 -115 -119 -115q-4 0 -40 11v-82q0 -51 2 -150.5t2 -146.5h-6q-14 0 -43 -2t-33 -2l-40 -2q-82 -5 -143 -5h-52q-4 0 -10 0.5t-9 0.5h-106q-1 0 -4 -0.5t-5 -0.5q-47 0 -53 2q5 15 7 24 l-6 337q-7 394 -7 674l-2 144q0 12 -0.5 36t-0.5 35v69q0 22 -1 68.5t-1 70.5zM588 -431q0 7 4 15q1 0 4.5 -1t5.5 -2t4.5 -2.5t3.5 -3.5t1 -5q0 -10 -12 -10q-11 0 -11 9z" />
<glyph unicode="&#xb6;" horiz-adv-x="1323" d="M33 1158q5 69 29.5 124.5t59.5 91.5t86 63t98 40.5t106.5 21.5t100 10t90.5 2q4 0 12 -1t11 -1h99q1 0 5 1t6 1l194 4q200 4 300 4q30 0 30 -42v-47q0 -2 0.5 -7t0.5 -8t-0.5 -8t-0.5 -8l-4 -362q-1 -72 -1.5 -255.5t-2.5 -281.5l-9 -525q0 -1 1 -3v-3q-4 -13 -28 -16.5 t-87 -3.5q-35 0 -95.5 1.5t-78.5 1.5q-7 0 -28 34v11q0 2 -0.5 7t-0.5 8v34q0 105 7 502l2 105q0 101 4.5 316.5t4.5 315.5l-63 5q-26 2 -71 13q-8 -96 -8 -155q-7 -281 -7 -831v-90q0 -15 0.5 -44t0.5 -44v-170h1q1 0 1 -1q-2 0 -2 1q-44 0 -122 -1.5t-112 -1.5 q-59 0 -59 9v199q0 110 1.5 314.5t1.5 310.5q-66 3 -124 12.5t-123 34t-111.5 62.5t-78.5 102t-36 148z" />
<glyph unicode="&#xb7;" horiz-adv-x="791" d="M130 503q10 26 20 67t22 70t37 57h-1q72 82 185 82h11q5 0 21 -2h12q87 0 156.5 -81t69.5 -176q0 -116 -76 -196t-184 -80q-114 0 -188.5 76.5t-84.5 182.5z" />
<glyph unicode="&#xb8;" horiz-adv-x="605" d="M4 -469q0 21 29 71l13 29q0 2 2 6l3 6q7 20 18 26q4 -2 37.5 -14.5t47.5 -17t40.5 -10t48.5 -5.5q12 0 24 1.5t35 6.5t37 19t14 36q0 44 -78 44q-8 -3 -32 -8l-22 -7v-20l-5 -1l-2 19l7 2q-12 0 -35 16l-22 14h1q-44 25 -44 59q20 35 57 101.5t49 88.5q4 4 15 6h5 q1 0 3.5 -0.5t4.5 -0.5h17l138 -2q11 -2 11 -11q0 -10 -6.5 -21t-22.5 -35t-30 -50q120 0 186 -50t66 -131q0 -109 -94 -171t-228 -62q-96 0 -192 19t-96 47z" />
<glyph unicode="&#xb9;" horiz-adv-x="1030" d="M161 574v287l93 45q3 3 8 3l19 9q155 72 201 137q139 -3 272 -3q20 0 30 1q1 -5 1 -35v-80q0 -7 -0.5 -21t-0.5 -20v-123q0 -174 3 -354q0 -73 2.5 -217.5t2.5 -216.5q-9 -8 -84 -8q-4 0 -11.5 0.5t-10.5 0.5h-197q-9 0 -26 -0.5t-26 -0.5h-10q-2 0 -8.5 -0.5t-9.5 -0.5 q-2 0 -5 0.5t-4 0.5l-12 15v-1q-5 8 -5 22q0 328 8 678q-121 -82 -227 -119q-3 0 -3 1z" />
<glyph unicode="&#xba;" horiz-adv-x="938" d="M-17 1215v10q14 86 57.5 152t105.5 104.5t133 58t147 19.5q103 0 190 -16t165 -52.5t125 -104.5t53 -163q-7 -95 -53.5 -165.5t-121.5 -110.5t-163.5 -58.5t-191.5 -18.5q-80 0 -149.5 16.5t-133.5 54t-107 107.5t-56 167z" />
<glyph unicode="&#xbb;" horiz-adv-x="1332" d="M8 -15q0 29 50 125l57 132q41 95 48 110l66 155l-218 521q0 5 -1 9.5t-1 5.5q0 9 41 9q134 0 368 -6q0 -2 1 -5l160 -254q24 -39 78.5 -130.5t86.5 -141.5l-3 -3q-49 -83 -106 -177h1q-40 -63 -93 -152l-112 -189q-15 -9 -79 -9h-32l-65 -1q-94 -7 -193 -7q-54 0 -54 8z M430 -9l3 3l14 -14l-3 -3zM600 -19q23 57 219 535l-15 33l5 5l-207 480q-1 1 -1 5q0 6 61 6h219q16 0 50.5 1.5t49.5 1.5q38 0 66 -43q6 -13 14 -25q46 -78 177 -284h-1l29 -47q79 -113 79 -136q0 -9 -5 -21.5t-16 -30t-19.5 -30.5t-24.5 -36t-22 -32l-22 -32 q-40 -58 -108.5 -172.5t-105.5 -170.5q-17 -9 -107 -9q-17 0 -47 1t-40 1h-19q-52 -3 -140 -3h-30q-37 0 -39 3zM744 520l2 -4h-1zM773 517l8 42h20q0 -1 3 -10z" />
<glyph unicode="&#xbc;" horiz-adv-x="2592" d="M109 1199v287l93 45q3 3 8 3l19 9q155 72 201 137q140 -3 272 -3q20 0 30 1q1 -5 1 -35v-80q0 -7 -0.5 -21t-0.5 -20v-123q0 -174 3 -354q0 -73 2.5 -217.5t2.5 -216.5q-9 -8 -84 -8q-4 0 -11.5 0.5t-10.5 0.5h-197q-9 0 -26 -0.5t-26 -0.5h-10q-2 0 -8.5 -0.5t-9.5 -0.5 q-1 0 -4 0.5t-5 0.5l-12 15v-1q-5 8 -5 22q0 328 8 678q-121 -82 -227 -119q-3 0 -3 1zM721 -7q22 72 28 78l60 165q175 481 465 1247l34 87q17 5 80 5q26 0 72 -1.5t67 -1.5h26q1 0 4.5 0.5t5.5 0.5q42 0 42 -11q-15 -67 -35 -123l-29 -77q-89 -258 -180 -534l-22 -63 q-12 -34 -98.5 -291t-136.5 -386l-18 -47h2q-10 -28 -15.5 -39.5t-20 -29.5t-39 -26t-62.5 -9h-43q-38 -5 -108 -5h-51q-2 4 -13 27t-15 34zM1455 153q0 184 5 260q20 51 43 98.5t53 98.5t51.5 84.5t60.5 94.5q5 9 17 26t14 20v-1q59 92 134 214l7 8q8 1 39 1.5t46 2.5l66 2 q90 5 220 5h145l23 -5l2 -10l-2 1v-37q0 -65 -2.5 -194.5t-2.5 -195.5q0 -58 1 -82v-5q0 -1 -0.5 -6t-0.5 -7v-12q-1 -7 -1 -25q0 -56 33 -56h45q3 0 8 0.5t8 0.5q20 0 27 -4t9 -22q12 2 22 2l-24 -24q0 -2 2.5 -63.5t2.5 -107.5q0 -52 -4.5 -69.5t-20.5 -17.5h-41 q-2 0 -7 -0.5t-8 -0.5h-46q2 -86 2 -131q0 -23 -4.5 -33t-21.5 -12q-94 2 -143 2q-156 0 -236 -5l-27 30q0 25 1.5 68.5t1.5 63.5v25q0 15 -34 15q-43 0 -107 -20l-183 -2q-14 0 -47 -1t-48 -1h-11.5h-11h-9t-9 0.5l-7.5 1.5t-7 2.5t-6 3.5t-6.5 4.5t-5 6.5t-5.5 8z M1757 430q0 -5 19 -37h12q30 0 95 1.5t99 1.5q16 9 21 25q0 2 -0.5 7t-0.5 7v49q0 5 1 43.5t1 66.5q0 202 -30 209q-10 -6 -14 -12l-53 -93q-21 -37 -36 -64z" />
<glyph unicode="&#xbd;" horiz-adv-x="2601" d="M109 1199v287l93 45q3 3 8 3l19 9q155 72 201 137q140 -3 272 -3q20 0 30 1q1 -5 1 -35v-80q0 -7 -0.5 -21t-0.5 -20v-123q0 -174 3 -354q0 -73 2.5 -217.5t2.5 -216.5q-9 -8 -84 -8q-4 0 -11.5 0.5t-10.5 0.5h-197q-9 0 -26 -0.5t-26 -0.5h-10q-2 0 -8.5 -0.5t-9.5 -0.5 q-1 0 -4 0.5t-5 0.5l-12 15v-1q-5 8 -5 22q0 328 8 678q-121 -82 -227 -119q-3 0 -3 1zM721 -7q22 72 28 78l60 165q175 481 465 1247l34 87q17 5 80 5q26 0 72 -1.5t67 -1.5h26q1 0 4.5 0.5t5.5 0.5q42 0 42 -11q-15 -67 -35 -123l-29 -77q-89 -258 -180 -534l-22 -63 q-12 -34 -98.5 -291t-136.5 -386l-18 -47h2q-10 -28 -15.5 -39.5t-20 -29.5t-39 -26t-62.5 -9h-43q-38 -5 -108 -5h-51q-2 4 -13 27t-15 34zM1454 41q0 47 1.5 111t1.5 95q0 6 51 40q7 4 10.5 6.5t10 7t12.5 8.5l166 112q104 73 171 133q117 105 117 193q0 39 -23.5 61.5 t-61.5 22.5q-34 0 -54 -15.5t-25 -34t-10 -40t-12 -28.5q-25 -1 -64 -1h-179q-6 0 -17 0.5t-16 0.5h-59q-16 0 -20 2q4 72 18 120q19 66 65 114t109.5 75t132.5 39.5t145 12.5q92 0 173 -18.5t147 -55.5t104.5 -100t38.5 -145q0 -61 -20.5 -118t-51.5 -100.5t-80.5 -89 t-93 -77.5t-104.5 -71l1 1q-16 -10 -62 -56q54 0 175.5 2.5t181.5 2.5q38 0 51.5 -28t13.5 -82q0 -19 -2 -65.5t-2 -72.5v-13q0 -12 -8 -13l-53 1q-217 5 -236 5q-285 0 -625 -13q-18 21 -18 71z" />
<glyph unicode="&#xbe;" horiz-adv-x="2588" d="M82 931q0 3 1 3l322 4q4 0 12 0.5t12 0.5q5 0 7 -6q6 -56 31 -84t79 -28q50 0 76.5 28.5t26.5 73.5q0 33 -11.5 57.5t-28 38t-42 21t-47 9.5t-49.5 2q-7 -2 -13 -2q-27 0 -34 13.5t-7 51.5q0 36 0.5 53t2 38t6 29t11.5 8q2 0 6 -0.5t7 -0.5h44q68 0 106 30.5t38 106.5 q0 41 -23 67t-66 26q-37 0 -57.5 -15t-24.5 -34t-9.5 -41.5t-15.5 -32.5q-147 0 -270 4h-37q-30 0 -36 6q2 9 4.5 52t12.5 68q46 113 124 163q71 42 163 55t211 13q65 0 133 -18.5t129 -53t99.5 -93.5t38.5 -131q0 -50 -19 -89.5t-54.5 -66.5t-73.5 -45t-89 -34 q139 -43 199 -103t60 -151q0 -288 -369 -336q-65 -6 -115 -6q-132 0 -230.5 28.5t-167.5 97.5q-68 60 -73 223zM117 1482l1 2q0 -1 -1 -2zM862 -7q2 5 4.5 14t4.5 16t4.5 15.5t5 14.5t5 11t4.5 7l60 165q175 481 465 1247l34 87q17 5 80 5q26 0 72 -1.5t67 -1.5h26h3 t3.5 0.5t3.5 0.5q42 0 42 -11q-15 -67 -35 -123l-29 -77q-89 -258 -180 -534l-22 -63q-12 -34 -98.5 -291t-136.5 -386l-18 -47h2q-6 -18 -8 -23t-9 -20t-12 -20t-15.5 -15t-22.5 -13.5t-30 -7.5t-40 -5h-43q-38 -5 -108 -5h-51q-2 4 -13 27t-15 34zM1481 153q0 184 5 260 q20 51 43 98.5t53 98.5t51.5 84.5t60.5 94.5q5 9 17 26t14 20v-1q59 92 134 214l7 8q8 1 39 1.5t46 2.5l66 2q90 5 220 5h145l23 -5l2 -10l-2 1v-37q0 -65 -2.5 -194.5t-2.5 -195.5q0 -58 1 -82v-5q0 -1 -0.5 -6t-0.5 -7v-12q-1 -7 -1 -25q0 -26 6.5 -41t26.5 -15h45 q2 0 7.5 0.5t8.5 0.5q20 0 27 -4t9 -22q12 2 22 2l-24 -24q0 -2 2.5 -63.5t2.5 -107.5q0 -36 -1.5 -53t-7 -25.5t-16.5 -8.5h-41q-3 0 -8 -0.5t-7 -0.5h-46q2 -86 2 -131q0 -16 -1.5 -24t-7 -14t-17.5 -7q-94 2 -143 2q-156 0 -236 -5l-27 30q0 25 1.5 68.5t1.5 63.5v25 q0 15 -34 15q-43 0 -107 -20l-183 -2q-14 0 -47 -1t-48 -1h-13h-12t-9.5 0.5t-9.5 1t-7.5 2t-8 3.5t-6.5 4.5t-6.5 6.5t-5.5 9zM1783 430q0 -5 19 -37h12q30 0 95 1.5t99 1.5q16 9 21 25q0 2 -0.5 7t-0.5 7v49q0 5 1 43.5t1 66.5q0 202 -30 209q-10 -6 -14 -12l-53 -93 q-21 -37 -36 -64z" />
<glyph unicode="&#xbf;" horiz-adv-x="1121" d="M52 246q6 126 62 204q38 57 88 106t90 79.5t76.5 62t58.5 69t24 84.5q-3 12 -4 36t-2 41t-4 18q1 1 3 2.5t4 2.5h1q8 2 20 2l120 2q6 0 18.5 -0.5t19.5 -0.5q18 0 225 6l102 3q11 -10 11 -116v-9q0 -50 -10 -89q-11 -44 -42.5 -87t-69.5 -78.5t-76 -72.5t-68 -82t-40 -92 q9 -55 45.5 -73.5t92.5 -18.5l4 1q135 4 271 60q8 -5 19 -15.5t14 -12.5v-15q-2 -238 -2 -357q0 -74 -418 -91q-239 0 -400 74l-45 23l1 -1q-86 55 -126 122l-13 24q-17 37 -29 103t-21 86zM419 1473q22 22 28 22v-20zM447 1318v155q15 0 432 17l70 3q7 -10 11 -17.5 t6.5 -13t3.5 -12t1 -9.5v-11.5v-12.5v-37q0 -4 -0.5 -10t-0.5 -9v-102q0 -4 0.5 -11.5t0.5 -11.5q0 -96 -18 -119l-85 3q-109 6 -250 9q-119 2 -144 10t-25 49v25q0 2 0.5 6.5t0.5 6.5l-2 60q0 5 -0.5 15.5t-0.5 16.5z" />
<glyph unicode="&#xc0;" horiz-adv-x="1639" d="M-38 -17q29 100 67 224t61.5 196.5t76 234t66.5 203.5l23 71h-1l27 83q13 40 74.5 222t90.5 281q2 7 5 9h166q60 0 178.5 2.5t176.5 2.5l96 -5q8 0 35.5 2.5t43.5 2.5q60 0 60 -24q74 -208 151.5 -445t164 -512t139.5 -435l14 -50q7 -27 20 -57q-1 -9 -14.5 -11t-54.5 -2 h-19h-59q-10 0 -30.5 -0.5t-31.5 -0.5h-61q-16 0 -48.5 -0.5t-48.5 -0.5q-144 0 -241 7q-3 1 -7 12l-5 21q-4 45 -20 108t-27 91l-428 -4q-4 -17 -26 -101t-33 -127q-10 -10 -95 -10q-4 0 -12.5 0.5t-12.5 0.5h-58q-43 0 -130 -3t-130 -3h-30q-6 0 -15 -0.5t-13 -0.5h-70 q-7 7 -15 18zM469 2033q0 5 9 13q205 -18 440 -18h30q1 0 2.5 0.5t3.5 0.5q18 -13 94 -141t97 -154q0 -2 3 -5q31 -48 31 -58q0 -14 -61 -14h-318q-1 0 -3 -1l-4 -2l-2 -1q-2 2 -36 44v-1l-31 38q-4 5 -22 27t-26 31.5t-24.5 28t-33 36.5t-35.5 37q-114 114 -114 139z M648 535h59q5 0 18.5 -0.5t22.5 -0.5l239 1q-15 119 -23 175l-38 171q-58 256 -60 265q-2 4 -6 15.5t-7 16t-11.5 12t-21.5 13.5q-27 -7 -153 -567q-2 -8 -3 -12.5t-2.5 -11t-2.5 -11.5z" />
<glyph unicode="&#xc1;" horiz-adv-x="1639" d="M-38 -17q29 100 67 224t61.5 196.5t76 234t66.5 203.5l23 71h-1l27 83q13 40 74.5 222t90.5 281q2 7 5 9h166q60 0 178.5 2.5t176.5 2.5l96 -5q8 0 35.5 2.5t43.5 2.5q60 0 60 -24q74 -208 151.5 -445t164 -512t139.5 -435l14 -50q7 -27 20 -57q-1 -9 -14.5 -11t-54.5 -2 h-19h-59q-10 0 -30.5 -0.5t-31.5 -0.5h-61q-16 0 -48.5 -0.5t-48.5 -0.5q-144 0 -241 7q-3 1 -7 12l-5 21q-4 45 -20 108t-27 91l-428 -4q-4 -17 -26 -101t-33 -127q-10 -10 -95 -10q-4 0 -12.5 0.5t-12.5 0.5h-58q-43 0 -130 -3t-130 -3h-30q-6 0 -15 -0.5t-13 -0.5h-70 q-7 7 -15 18zM477 1690l168 286q5 8 16 24.5t18 26.5t15 19h70q51 0 125.5 -2.5t154.5 -5t138 -2.5v-3q-40 -46 -131 -147.5t-139 -156.5q-38 -43 -69.5 -53t-102.5 -11l-183 -3q-3 0 -8.5 -0.5t-7.5 -0.5h-49zM648 535h59q5 0 18.5 -0.5t22.5 -0.5l239 1q-15 119 -23 175 l-38 171q-58 256 -60 265q-2 4 -6 15.5t-7 16t-11.5 12t-21.5 13.5q-27 -7 -153 -567q-2 -8 -3 -12.5t-2.5 -11t-2.5 -11.5z" />
<glyph unicode="&#xc2;" horiz-adv-x="1639" d="M-38 -17q29 100 67 224t61.5 196.5t76 234t66.5 203.5l23 71h-1l27 83q13 40 74.5 222t90.5 281q2 7 5 9h166q60 0 178.5 2.5t176.5 2.5l96 -5q8 0 35.5 2.5t43.5 2.5q60 0 60 -24q74 -208 151.5 -445t164 -512t139.5 -435l14 -50q7 -27 20 -57q-1 -9 -14.5 -11t-54.5 -2 h-19h-59q-10 0 -30.5 -0.5t-31.5 -0.5h-61q-16 0 -48.5 -0.5t-48.5 -0.5q-144 0 -241 7q-3 1 -7 12l-5 21q-4 45 -20 108t-27 91l-428 -4q-4 -17 -26 -101t-33 -127q-10 -10 -95 -10q-4 0 -12.5 0.5t-12.5 0.5h-58q-43 0 -130 -3t-130 -3h-30q-6 0 -15 -0.5t-13 -0.5h-70 q-7 7 -15 18zM336 1705q0 2 1 6q64 99 181 253l22 35q25 41 72 49.5t269 12.5l177 3q4 -2 9 -6t11.5 -11t11.5 -13.5t12.5 -17.5t12.5 -17.5t13.5 -19.5t12.5 -18v1l62 -92q12 -18 47 -65l20 -28q4 -6 10.5 -14.5t11.5 -15t10 -14t8.5 -13t5.5 -10.5t2 -9q0 -10 -27 -10 q-2 0 -5.5 0.5t-5.5 0.5h-62q-53 0 -149.5 -3.5t-145.5 -3.5q-7 4 -13 8t-11.5 10.5t-9 11t-8.5 13.5t-7 13t-7.5 15.5t-7.5 14.5l-30 60q-13 -12 -30.5 -36.5t-30 -45.5t-26 -37t-22.5 -16h-278q-8 0 -24 -1.5t-25 -1.5q-57 0 -57 12zM648 535h59q5 0 18.5 -0.5t22.5 -0.5 l239 1q-15 119 -23 175l-38 171q-58 256 -60 265q-2 5 -5 13t-5 12.5t-6 10.5t-11.5 11t-18.5 10q-27 -6 -161 -602z" />
<glyph unicode="&#xc3;" horiz-adv-x="1639" d="M-38 -17q29 100 67 224t61.5 196.5t76 234t66.5 203.5l23 71h-1l27 83q13 40 74.5 222t90.5 281q2 7 5 9h166q60 0 178.5 2.5t176.5 2.5l96 -5q8 0 35.5 2.5t43.5 2.5q60 0 60 -24q74 -208 151.5 -445t164 -512t139.5 -435l14 -50q7 -27 20 -57q-1 -9 -14.5 -11t-54.5 -2 h-19h-59q-10 0 -30.5 -0.5t-31.5 -0.5h-61q-16 0 -48.5 -0.5t-48.5 -0.5q-144 0 -241 7q-3 1 -7 12l-5 21q-4 45 -20 108t-27 91l-428 -4q-4 -17 -26 -101t-33 -127q-10 -10 -95 -10q-4 0 -12.5 0.5t-12.5 0.5h-58q-43 0 -130 -3t-130 -3h-30q-6 0 -15 -0.5t-13 -0.5h-70 q-7 7 -15 18zM359 1708q0 172 77 256.5t219 84.5q53 0 186 -37v1q30 -11 87 -26l30 -6q4 0 14 -10l25 28q5 17 6 26l23 19l253 -7q3 -1 13 -15q-22 -344 -284 -344q-54 0 -142 21q-9 3 -59 19t-82.5 24t-56.5 9q-5 0 -9.5 -1t-8 -2t-7 -3.5t-5.5 -4t-4 -5.5l-3 -6t-2.5 -7 t-1.5 -6.5t-1.5 -7t-1.5 -6.5q0 -12 -232 -12h-27q-6 6 -6 18zM648 535h59q5 0 18.5 -0.5t22.5 -0.5l239 1q-15 119 -23 175l-38 171q-58 256 -60 265q-2 4 -6 15.5t-7 16t-11.5 12t-21.5 13.5q-27 -7 -153 -567q-2 -8 -3 -12.5t-2.5 -11t-2.5 -11.5zM964 2019l9 10l7 -17z " />
<glyph unicode="&#xc4;" horiz-adv-x="1639" d="M-38 -17q29 100 67 224t61.5 196.5t76 234t66.5 203.5l23 71h-1l27 83q13 40 74.5 222t90.5 281q2 7 5 9h166q60 0 178.5 2.5t176.5 2.5l96 -5q8 0 35.5 2.5t43.5 2.5q60 0 60 -24q74 -208 151.5 -445t164 -512t139.5 -435l14 -50q7 -27 20 -57q-1 -9 -14.5 -11t-54.5 -2 h-19h-59q-10 0 -30.5 -0.5t-31.5 -0.5h-61q-16 0 -48.5 -0.5t-48.5 -0.5q-144 0 -241 7q-3 1 -7 12l-5 21q-4 45 -20 108t-27 91l-428 -4q-4 -17 -26 -101t-33 -127q-10 -10 -95 -10q-4 0 -12.5 0.5t-12.5 0.5h-58q-43 0 -130 -3t-130 -3h-30q-6 0 -15 -0.5t-13 -0.5h-70 q-7 7 -15 18zM390 1701q0 314 22 339q37 -1 153.5 -1.5t179.5 -2.5q7 -2 7 -25v-4t-0.5 -4t-0.5 -3v-32q0 -18 1 -53t1 -45v-31q0 -109 1 -156q-10 -11 -81 -11q-3 0 -10 0.5t-11 0.5h-51q-31 0 -97.5 -3.5t-89.5 -3.5q-4 6 -11.5 17.5t-12.5 17.5zM648 535h59 q5 0 18.5 -0.5t22.5 -0.5l239 1q-15 119 -23 175l-38 171q-58 256 -60 265q-2 4 -6 15.5t-7 16t-11.5 12t-21.5 13.5q-27 -7 -153 -567q-2 -8 -3 -12.5t-2.5 -11t-2.5 -11.5zM956 1696q0 85 6 208.5t18 135.5q56 -3 104 -3q29 0 83 1.5t87 1.5q61 0 64 -8q5 -157 7 -342 q-3 -6 -3 -10l-7 1q-60 -6 -169.5 -8t-163.5 -6zM1311 1665l10 14l14 -1q0 -17 -14 -17q-6 0 -10 4z" />
<glyph unicode="&#xc5;" horiz-adv-x="1639" d="M-38 -17q29 100 67 224t61.5 196.5t76 234t66.5 203.5l23 71h-1l27 83q13 40 74.5 222t90.5 281q2 7 5 9h166q60 0 178.5 2.5t176.5 2.5l96 -5q8 0 35.5 2.5t43.5 2.5q60 0 60 -24q74 -208 151.5 -445t164 -512t139.5 -435l14 -50q7 -27 20 -57q-1 -9 -14.5 -11t-54.5 -2 h-19h-59q-10 0 -30.5 -0.5t-31.5 -0.5h-61q-16 0 -48.5 -0.5t-48.5 -0.5q-144 0 -241 7q-3 1 -7 12l-5 21q-4 45 -20 108t-27 91l-428 -4q-4 -17 -26 -101t-33 -127q-10 -10 -95 -10q-4 0 -12.5 0.5t-12.5 0.5h-58q-43 0 -130 -3t-130 -3h-30q-6 0 -15 -0.5t-13 -0.5h-70 q-7 7 -15 18zM536 1944l0.5 0.5l1.5 1.5q7 54 26.5 103t53 91t86.5 67t118 25q76 0 143 -36t108.5 -101.5t41.5 -144.5q0 -60 -24 -113.5t-63 -90.5t-90.5 -58.5t-105.5 -21.5q-63 0 -116.5 24t-89.5 64.5t-59 89t-31 100.5zM648 535h59q5 0 18.5 -0.5t22.5 -0.5l239 1 q-15 119 -23 175l-38 171q-58 256 -60 265q-2 4 -6 15.5t-7 16t-11.5 12t-21.5 13.5q-27 -7 -153 -567q-2 -8 -3 -12.5t-2.5 -11t-2.5 -11.5zM685 1963q0 -47 23.5 -82t55.5 -50.5t65 -15.5q54 0 92.5 35.5t38.5 99.5q0 43 -20 74.5t-49.5 46t-64.5 14.5q-50 0 -90 -32.5 t-51 -89.5z" />
<glyph unicode="&#xc6;" horiz-adv-x="2383" d="M-42 -17q84 290 255.5 809.5t229.5 705.5q2 7 4 9h167q58 0 175.5 2.5t179.5 2.5l96 -5q9 0 36 2.5t43 2.5q20 0 33 -4q462 8 693 8q9 -5 14 -11l52 -178q45 -159 57 -206q-6 -6 -51 -6h-7q-248 0 -514 8q21 -128 41 -205l296 7q82 2 122 2q61 0 89.5 -6.5t37.5 -23.5 l7 -32q13 -48 46 -145h-1l40 -137q-291 -15 -474 -15h-57l56 -191q92 0 269.5 8.5t264.5 8.5q50 0 68 -17l81 -278q2 -9 10.5 -33t13.5 -42t5 -31q0 -5 -10 -7q-54 0 -165 1.5t-167 1.5q-138 0 -301 -5q-17 -8 -96 -8h-51q-46 -2 -84 -2q-8 0 -21.5 0.5t-18.5 0.5l-149 -2 q-84 1 -188 8q-3 1 -7 12l-6 22q-31 199 -106 198l-369 -4q-9 -37 -29 -114t-29 -114q-11 -10 -96 -10q-4 0 -11.5 0.5t-11.5 0.5h-59q-43 0 -130 -3t-130 -3h-31q-5 0 -14 -0.5t-13 -0.5h-70q-7 7 -15 18zM625 601l39 -66h39q5 0 18.5 -0.5t22.5 -0.5q233 0 238 61 q0 14 -2.5 29.5t-5.5 28t-7.5 29.5t-6.5 28l-38 171q-23 94 -60 265q-2 4 -6 15.5t-7 16t-11.5 12t-21.5 13.5q-21 -2 -43.5 -46.5t-43.5 -120.5t-38 -148t-36.5 -160t-29.5 -127zM1265 -45l13 16l6 -5l-14 -15zM2099 583q1 0 3.5 0.5t3.5 0.5l4 -3q-8 0 -8 -4v-3z" />
<glyph unicode="&#xc7;" horiz-adv-x="1556" d="M49 797q0 1 1 7.5t1 11.5q10 75 16 113.5t23 103t42 117.5q43 86 106 153t133.5 110.5t154 72t165 40.5t168.5 12q129 0 234.5 -25t180.5 -70t128.5 -108.5t82 -138.5t36.5 -163l9 -94q-17 -16 -215 -16q-24 0 -80 1t-79 1h-13q-18 0 -47 1t-40 1q-4 0 -12.5 -0.5 t-11.5 -0.5h-20q-17 0 -26.5 22.5t-15 54t-15 63.5t-34.5 54.5t-65 22.5q-38 0 -67.5 -14t-48.5 -33t-32 -54.5t-19.5 -63.5t-10 -75t-4 -73t-0.5 -74v-3v-24q0 -12 -2 -45.5t-2 -55.5q0 -276 156 -282q17 0 31 4t24 9.5t19.5 17t15 20t12 24t9.5 24.5t8.5 26.5t7.5 25.5 q11 40 21 55h38q7 0 22.5 -0.5t23.5 -0.5h162q8 0 24.5 0.5t24.5 0.5q16 0 47.5 -0.5t47.5 -0.5h58q9 0 29 -0.5t30 -0.5h40q12 -1 17 -21l-3 -33q-8 -111 -50 -203t-105 -154.5t-146.5 -107t-173 -67t-187.5 -27.5q-20 -30 -35 -58q120 0 186 -50t66 -131q0 -74 -46 -128 t-118 -79.5t-158 -25.5q-59 0 -124 7.5t-114.5 23.5t-49.5 35q0 21 29 71l13 29q0 2 2 6l3 6q7 20 18 26q4 -2 37.5 -14.5t47.5 -17t40.5 -10t48.5 -5.5q12 0 24 1.5t35 6.5t37 19t14 36q0 44 -78 44q-8 -3 -32 -8l-22 -7v-20l-5 -1l-2 19l7 2q-12 0 -35 16l-22 14h1 q-44 25 -44 59q18 31 78 140q-110 14 -201 51.5t-155 88.5t-113 120t-78 139.5t-47.5 152.5t-25 153.5t-6.5 148.5z" />
<glyph unicode="&#xc8;" horiz-adv-x="1306" d="M107 -11v35q0 188 3 547.5t3 521.5l1 145q0 32 -1.5 96t-2.5 112.5t-1 54.5q1 0 7 -3q760 13 1145 14q4 -2 6 -6v-282q0 -7 -0.5 -30.5t-1.5 -36.5q-5 -16 -59 -16h-7q-242 0 -504 8q0 -9 -2.5 -32t-3.5 -33l-5 -38q-5 -38 -7 -132l310 7q80 2 116 2h16q61 0 80 -3.5 t19 -20.5q0 -2 -0.5 -4.5t-0.5 -3.5v-24q0 -53 2.5 -132t2.5 -125l-1 -1v1q-304 -15 -486 -15h-47v-242q94 0 273 8.5t270 8.5q45 0 57 -13q-1 -26 -1 -74q0 -53 3.5 -139t3.5 -133q0 -25 -22 -29q-56 0 -166 1.5t-166 1.5q-98 0 -390 -7l-164 -4q-29 -1 -81.5 -2.5 t-95.5 -2.5t-81 -1l-3 2h1l-5.5 5.5l-7.5 7.5zM259 2061q0 5 9 13q205 -18 440 -18h30q1 0 2.5 0.5t3.5 0.5q14 -11 51.5 -71.5t79 -130.5t60.5 -93q0 -2 3 -5q31 -48 31 -58q0 -14 -61 -14h-318q-1 0 -3 -1l-4 -2l-2 -1q-2 2 -36 44v-1l-31 38q-89 107 -141 160 q-114 114 -114 139z" />
<glyph unicode="&#xc9;" horiz-adv-x="1306" d="M107 -11v35q0 188 3 547.5t3 521.5l1 145q0 32 -1.5 96t-2.5 112.5t-1 54.5q1 0 7 -3q760 13 1145 14q4 -2 6 -6v-282q0 -7 -0.5 -30.5t-1.5 -36.5q-5 -16 -59 -16h-7q-242 0 -504 8q0 -9 -2.5 -32t-3.5 -33l-5 -38q-5 -38 -7 -132l310 7q80 2 116 2h16q61 0 80 -3.5 t19 -20.5q0 -2 -0.5 -4.5t-0.5 -3.5v-24q0 -53 2.5 -132t2.5 -125l-1 -1v1q-304 -15 -486 -15h-47v-242q94 0 273 8.5t270 8.5q45 0 57 -13q-1 -26 -1 -74q0 -53 3.5 -139t3.5 -133q0 -25 -22 -29q-56 0 -166 1.5t-166 1.5q-98 0 -390 -7l-164 -4q-29 -1 -81.5 -2.5 t-95.5 -2.5t-81 -1l-3 2h1l-5.5 5.5l-7.5 7.5zM317 1901l168 286q43 63 49 70h70q62 0 205.5 -5t212.5 -5v-3q-40 -46 -131 -147.5t-139 -156.5q-38 -43 -69.5 -53t-102.5 -11l-183 -3q-3 0 -8.5 -0.5t-7.5 -0.5h-49z" />
<glyph unicode="&#xca;" horiz-adv-x="1306" d="M107 -11v35q0 188 3 547.5t3 521.5l1 145q0 32 -1.5 96t-2.5 112.5t-1 54.5q1 0 7 -3q760 13 1145 14q4 -2 6 -6v-282q0 -7 -0.5 -30.5t-1.5 -36.5q-5 -16 -59 -16h-7q-242 0 -504 8q0 -9 -2.5 -32t-3.5 -33l-5 -38q-5 -38 -7 -132l310 7q80 2 116 2h16q61 0 80 -3.5 t19 -20.5q0 -2 -0.5 -4.5t-0.5 -3.5v-24q0 -53 2.5 -132t2.5 -125l-1 -1v1q-304 -15 -486 -15h-47v-242q94 0 273 8.5t270 8.5q45 0 57 -13q-1 -26 -1 -74q0 -53 3.5 -139t3.5 -133q0 -25 -22 -29q-56 0 -166 1.5t-166 1.5q-98 0 -390 -7l-164 -4q-29 -1 -81.5 -2.5 t-95.5 -2.5t-81 -1l-3 2h1l-5.5 5.5l-7.5 7.5zM197 1693q0 2 1 6q64 99 181 253l22 35q25 41 72 49.5t269 12.5l177 3q4 -2 9 -6t11.5 -11t11.5 -13.5t12.5 -17.5t12.5 -17.5t13.5 -19.5t12.5 -18v1l62 -92q12 -18 47 -65l20 -28q5 -8 15.5 -22l16.5 -22t11 -17.5t5 -14.5 q0 -10 -27 -10q-2 0 -5.5 0.5t-5.5 0.5h-62q-53 0 -149.5 -3.5t-145.5 -3.5q-7 4 -13 8t-11.5 10.5t-9 11t-8.5 13.5t-7 13t-7.5 15.5t-7.5 14.5l-30 60q-16 -15 -39 -50t-41 -60t-29 -25h-278q-8 0 -24 -1.5t-25 -1.5q-57 0 -57 12z" />
<glyph unicode="&#xcb;" horiz-adv-x="1306" d="M107 -11v35q0 188 3 547.5t3 521.5l1 145q0 32 -1.5 96t-2.5 112.5t-1 54.5q1 0 7 -3q760 13 1145 14q4 -2 6 -6v-282q0 -7 -0.5 -30.5t-1.5 -36.5q-5 -16 -59 -16h-7q-242 0 -504 8q0 -9 -2.5 -32t-3.5 -33l-5 -38q-5 -38 -7 -132l310 7q80 2 116 2h16q61 0 80 -3.5 t19 -20.5q0 -2 -0.5 -4.5t-0.5 -3.5v-24q0 -53 2.5 -132t2.5 -125l-1 -1v1q-304 -15 -486 -15h-47v-242q94 0 273 8.5t270 8.5q45 0 57 -13q-1 -26 -1 -74q0 -53 3.5 -139t3.5 -133q0 -25 -22 -29q-56 0 -166 1.5t-166 1.5q-98 0 -390 -7l-164 -4q-29 -1 -81.5 -2.5 t-95.5 -2.5t-81 -1l-3 2h1l-5.5 5.5l-7.5 7.5zM226 1704q0 314 22 339q36 -1 153 -1.5t180 -2.5q7 -2 7 -25q0 -2 -0.5 -6t-0.5 -5v-32q0 -19 1 -54t1 -44v-31q0 -109 1 -156q-10 -11 -81 -11q-3 0 -10 0.5t-11 0.5h-51q-31 0 -97.5 -3.5t-89.5 -3.5q-4 6 -11.5 17.5 t-12.5 17.5zM792 1699q0 85 6 208.5t18 135.5q55 -3 104 -3q29 0 83 1.5t87 1.5q61 0 64 -8q5 -157 7 -342q-3 -6 -3 -10l-7 1q-60 -6 -169.5 -8t-163.5 -6zM1147 1668l10 14l14 -1q0 -17 -14 -17q-6 0 -10 4z" />
<glyph unicode="&#xcc;" horiz-adv-x="829" d="M50 2058q0 5 9 13q205 -18 440 -18h30q1 0 2.5 0.5t3.5 0.5q11 -8 37 -48.5t53 -86.5t56.5 -93.5t44.5 -66.5q0 -2 3 -5q31 -48 31 -58q0 -14 -61 -14h-318q-1 0 -3 -1l-4 -2l-2 -1q-2 2 -36 44v-1l-31 38q-89 107 -141 160q-114 114 -114 139zM94 -20q0 3 0.5 8t0.5 9 l3 110q0 19 0.5 86t2.5 110t8 86q0 434 12 877q-3 63 -3 127v33q-4 31 -4 72q0 7 5 14q214 -13 440 -13q96 0 156 6q2 -3 3 -17h-7v-362q0 -140 3.5 -409t3.5 -405q0 -9 3 -15v-2q3 -6 3 -13q0 -28 2 -81t2 -66l4 -144q-5 -11 -18 -17h-34q-99 0 -285 -4.5t-275 -4.5 q-10 5 -26 15z" />
<glyph unicode="&#xcd;" horiz-adv-x="832" d="M98 -20q0 3 0.5 8t0.5 9l3 110q0 19 0.5 86t2.5 110t8 86q0 435 12 877q-3 63 -3 127v33q-4 31 -4 72q0 7 5 14q214 -13 440 -13q96 0 156 6q2 -3 3 -17h-7v-362q0 -140 3.5 -409t3.5 -405q0 -9 3 -15v-2q3 -6 3 -13q0 -28 2 -81t2 -66l4 -144q-5 -11 -18 -17h-34 q-99 0 -285 -4.5t-275 -4.5q-10 5 -26 15zM176 1699l168 286q43 63 49 70h70q62 0 205.5 -5t212.5 -5v-3q-40 -46 -131 -147.5t-139 -156.5q-38 -43 -69.5 -53t-102.5 -11l-183 -3q-3 0 -8.5 -0.5t-7.5 -0.5h-49z" />
<glyph unicode="&#xce;" horiz-adv-x="843" d="M-4 1696q0 2 1 6q64 99 181 253l22 35q25 41 72 49.5t269 12.5l177 3q4 -2 9 -6t11.5 -11t11.5 -13.5t12.5 -17.5t12.5 -17.5t13.5 -19.5t12.5 -18v1l62 -92q12 -18 47 -65l20 -28q5 -8 15.5 -22l16.5 -22t11 -17.5t5 -14.5q0 -10 -27 -10q-2 0 -5.5 0.5t-5.5 0.5h-62 q-53 0 -149.5 -3.5t-145.5 -3.5q-7 4 -13 8t-11.5 10.5t-9 11t-8.5 13.5t-7 13t-7.5 15.5t-7.5 14.5l-30 60q-16 -15 -39 -50t-41 -60t-29 -25h-278q-8 0 -24 -1.5t-25 -1.5q-57 0 -57 12zM96 -20q0 3 0.5 8t0.5 9l3 110q0 19 0.5 86t2.5 110t8 86q0 435 12 877 q-3 63 -3 127v33q-4 31 -4 72q0 7 5 14q214 -13 440 -13q96 0 156 6q2 -3 3 -17h-7v-362q0 -140 3.5 -409t3.5 -405q0 -9 3 -15v-2q3 -6 3 -13q0 -28 2 -81t2 -66l4 -144q-5 -11 -18 -17h-34q-99 0 -285 -4.5t-275 -4.5q-10 5 -26 15z" />
<glyph unicode="&#xcf;" horiz-adv-x="829" d="M4 1711q0 314 22 339q36 -1 153 -1.5t180 -2.5q7 -2 7 -25q0 -2 -0.5 -6t-0.5 -5v-32q0 -18 1 -53t1 -45v-31q0 -109 1 -156q-10 -11 -81 -11q-3 0 -10 0.5t-11 0.5h-51q-31 0 -97.5 -3.5t-89.5 -3.5q-4 6 -11.5 17.5t-12.5 17.5zM90 -20q0 3 0.5 8t0.5 9l3 110 q0 19 0.5 86t2.5 110t8 86q0 435 12 877q-3 63 -3 127v33q-4 31 -4 72q0 7 5 14q214 -13 440 -13q96 0 156 6q2 -3 3 -17h-7v-362q0 -140 3.5 -409t3.5 -405q0 -9 3 -15v-2q3 -6 3 -13q0 -28 2 -81t2 -66l4 -144q-5 -11 -18 -17h-34q-99 0 -285 -4.5t-275 -4.5q-10 5 -26 15 zM570 1706q0 85 6 208.5t18 135.5q55 -3 104 -3q29 0 83 1.5t87 1.5q61 0 64 -8q5 -157 7 -342q-3 -6 -3 -10l-7 1q-60 -6 -169.5 -8t-163.5 -6zM925 1675l10 14l14 -1q0 -17 -14 -17q-6 0 -10 4z" />
<glyph unicode="&#xd0;" d="M-51 648q0 2 0.5 6.5t0.5 7.5v16q0 14 1 41.5t1 40.5v11q0 7 -1 21t-1 20q0 45 15 45h149q-1 47 -1 163v164q0 3 0.5 11t0.5 12v286q0 8 109.5 13.5t173.5 5.5h116q31 0 92 1.5t93 1.5q493 0 687 -162l9 -7h-1q21 -19 40.5 -39.5t57 -75.5t63.5 -115t47 -156t21 -201 q0 -147 -39.5 -273.5t-109.5 -218.5t-163.5 -157.5t-203 -98.5t-227.5 -34l-4 -4h-25q-42 0 -130 1.5t-134 1.5q-181 0 -453 -9q-21 33 -21 78q0 8 0.5 22t0.5 21v156q0 39 1 113.5t1 108.5v168q-25 -1 -142 -1q-5 2 -24 15zM641 1083q0 -78 2 -190v-35h50q7 0 21.5 -0.5 t20.5 -0.5h66q16 -13 16 -101q0 -5 -0.5 -14.5t-0.5 -13.5v-52q0 -31 -28 -31q-3 0 -9 0.5t-9 0.5h-121l3 -179q0 -9 -0.5 -31.5t-0.5 -35.5q0 -106 44 -112q104 2 159 14q199 69 199 479q0 48 -1 81t-8 84t-19.5 87.5t-37 75.5t-58.5 64q-28 18 -62 27.5t-59 11t-64.5 2.5 t-58.5 2q-19 -29 -24 -39l-20 -37v-57z" />
<glyph unicode="&#xd1;" horiz-adv-x="1727" d="M90 13v18q0 3 0.5 10t0.5 10l5 390q0 642 12 971l2 83q0 9 689 16q6 -4 18 -44v3l6 -20q70 -201 197 -530q89 -231 91 -237l34 2q0 139 2 414.5t2 400.5q0 8 146 8q50 0 138.5 -2.5t112.5 -2.5h74q7 -331 7 -803q0 -11 -0.5 -33t-0.5 -34v-370q0 -28 1 -90t1 -86v-50 q0 -10 0.5 -26t0.5 -21q-6 -8 -49 -8h-26q-57 0 -161 -2t-153 -2q-200 0 -298 1q-5 6 -15.5 29.5t-25.5 65t-24.5 68.5t-26 76.5t-17.5 51.5l-191 507l-36 -5q0 -15 -0.5 -50.5t-0.5 -51.5v-271q0 -47 2 -138t2 -133v-112v-17.5t-2 -13t-6 -12t-12 -4.5q-99 3 -189 3h-31 q-23 0 -77 -2t-74 -2h-20q-10 0 -35 -1t-37 -1q-14 9 -25 23t-11 24zM400 1897q0 172 77 256.5t219 84.5q53 0 186 -37v1q30 -11 87 -26l30 -6q4 0 14 -10l25 28q5 17 6 26l23 19l253 -7q2 -1 13 -15q-22 -344 -284 -344q-55 0 -142 21q-14 4 -46.5 14.5t-55 17.5t-50.5 13 t-46 7q-5 0 -9.5 -1t-8 -2t-7 -3.5t-5.5 -4t-4 -5.5l-3 -6t-2.5 -7t-1.5 -6.5t-1.5 -7t-1.5 -6.5q0 -12 -232 -12h-27q-6 6 -6 18zM1005 2208l9 10l7 -17z" />
<glyph unicode="&#xd2;" d="M35 752q0 1 1 8.5t1 13.5q12 125 32 221.5t65 180.5q107 185 298.5 280.5t424.5 95.5q90 0 186.5 -18t204.5 -71t169 -134q117 -146 153 -272q38 -120 38 -281q0 -358 -148 -546l-46 -61q-93 -108 -263 -166.5t-337 -60.5q-286 0 -469 120q-310 201 -310 690zM396 2073 q0 5 9 13q205 -18 440 -18h30q1 0 2.5 0.5t3.5 0.5q18 -13 94 -141t97 -154q0 -2 3 -5q31 -48 31 -58q0 -14 -61 -14h-318q-1 0 -3 -1l-4 -2l-2 -1q-2 2 -36 44v-1l-31 38q-89 107 -141 160q-114 114 -114 139zM605 671q0 -51 4.5 -97.5t18 -97t34.5 -87.5t57 -62.5 t83 -27.5q39 0 71.5 10t56.5 25t42.5 41.5t31 51.5t21 63.5t13 68.5t7 75.5t3 76t0.5 77.5q0 39 -1.5 72t-7 74.5t-15 74.5t-25.5 65.5t-38 54.5t-55 35.5t-73 13.5q-31 0 -57 -8t-45.5 -19.5t-36 -33t-27 -39.5t-19.5 -48.5t-14 -51t-9 -55t-6 -53t-4 -52.5q-1 -5 -1 -7 l-4 -51q0 -1 -0.5 -3l-0.5 -2v-3q-4 -42 -4 -81z" />
<glyph unicode="&#xd3;" d="M35 752q0 1 1 8.5t1 13.5q12 125 32 221.5t65 180.5q107 185 298.5 280.5t424.5 95.5q90 0 186.5 -18t204.5 -71t169 -134q117 -146 153 -272q38 -120 38 -281q0 -358 -148 -546l-46 -61q-93 -108 -263 -166.5t-337 -60.5q-286 0 -469 120q-310 201 -310 690zM463 1709 l168 286q43 63 49 70h70q62 0 205.5 -5t212.5 -5v-3q-40 -46 -131 -147.5t-139 -156.5q-38 -43 -69.5 -53t-102.5 -11l-183 -3q-3 0 -8.5 -0.5t-7.5 -0.5h-49zM605 671q0 -65 8.5 -123t28 -116t61 -94t99.5 -39q50 0 89 16t64.5 40t44 65.5t27.5 78t14 93.5t6 95.5t1 100.5 q0 56 -3.5 102.5t-16.5 102.5t-35 94.5t-63 64.5t-97 26q-31 0 -57 -8t-45.5 -19.5t-36 -33t-27 -39.5t-19.5 -48.5t-13.5 -50.5t-9 -55.5t-6.5 -53t-4 -52.5q-1 -5 -1 -7l-4 -51v-3l-1 -2v-3q-4 -42 -4 -81z" />
<glyph unicode="&#xd4;" d="M35 752q0 1 1 8.5t1 13.5q12 125 32 221.5t65 180.5q107 185 298.5 280.5t424.5 95.5q90 0 186.5 -18t204.5 -71t169 -134q117 -146 153 -272q38 -120 38 -281q0 -358 -148 -546l-46 -61q-93 -108 -263 -166.5t-337 -60.5q-286 0 -469 120q-310 201 -310 690zM348 1702 q0 2 1 6q64 99 181 253l22 35q25 41 72 49.5t269 12.5l177 3q4 -2 9 -6t11.5 -11t11.5 -13.5t12.5 -17.5t12.5 -17.5t13.5 -19.5t12.5 -18v1l62 -92q12 -18 47 -65l20 -28q5 -8 15.5 -22l16.5 -22t11 -17.5t5 -14.5q0 -10 -27 -10q-2 0 -5.5 0.5t-5.5 0.5h-62 q-53 0 -149.5 -3.5t-145.5 -3.5q-7 4 -13 8t-11.5 10.5t-9 11t-8.5 13.5t-7 13t-7.5 15.5t-7.5 14.5l-30 60q-16 -15 -39 -50t-41 -60t-29 -25h-278q-8 0 -24 -1.5t-25 -1.5q-57 0 -57 12zM605 671q0 -51 4.5 -97.5t18 -97t34.5 -87.5t57 -62.5t83 -27.5q39 0 71.5 10 t56.5 25t42.5 41.5t31 51.5t21 63.5t13 68.5t7 75.5t3 76t0.5 77.5q0 39 -1.5 72t-7 74.5t-15 74.5t-25.5 65.5t-38 54.5t-55 35.5t-73 13.5q-31 0 -57 -8t-45.5 -19.5t-36 -33t-27 -39.5t-19.5 -48.5t-14 -51t-9 -55t-6 -53t-4 -52.5q-1 -5 -1 -7l-4 -51q0 -1 -0.5 -3 l-0.5 -2v-3q-4 -42 -4 -81z" />
<glyph unicode="&#xd5;" d="M35 752q0 1 1 8.5t1 13.5q12 125 32 221.5t65 180.5q107 185 298.5 280.5t424.5 95.5q90 0 186.5 -18t204.5 -71t169 -134q117 -146 153 -272q38 -120 38 -281q0 -358 -148 -546l-46 -61q-93 -108 -263 -166.5t-337 -60.5q-286 0 -469 120q-310 201 -310 690zM351 1708 q0 172 77 256.5t219 84.5q53 0 186 -37v1q30 -11 87 -26l30 -6q4 0 14 -10l25 28q5 17 6 26l23 19l253 -7q3 -1 13 -15q-22 -344 -284 -344q-54 0 -142 21q-9 3 -59 19t-82.5 24t-56.5 9q-13 0 -21 -3.5t-13 -14t-5.5 -13.5t-4.5 -18q0 -12 -232 -12h-27q-6 6 -6 18z M605 671q0 -51 4.5 -97.5t18 -97t34.5 -87.5t57 -62.5t83 -27.5q39 0 71.5 10t56.5 25t42.5 41.5t31 51.5t21 63.5t13 68.5t7 75.5t3 76t0.5 77.5q0 39 -1.5 72t-7 74.5t-15 74.5t-25.5 65.5t-38 54.5t-55 35.5t-73 13.5q-31 0 -57 -8t-45.5 -19.5t-36 -33t-27 -39.5 t-19.5 -48.5t-14 -51t-9 -55t-6 -53t-4 -52.5q-1 -5 -1 -7l-4 -51q0 -1 -0.5 -3l-0.5 -2v-3q-4 -42 -4 -81zM956 2019l9 10l7 -17z" />
<glyph unicode="&#xd6;" d="M35 752q0 1 1 8.5t1 13.5q12 125 32 221.5t65 180.5q107 185 298.5 280.5t424.5 95.5q90 0 186.5 -18t204.5 -71t169 -134q117 -146 153 -272q38 -120 38 -281q0 -358 -148 -546l-46 -61q-93 -108 -263 -166.5t-337 -60.5q-286 0 -469 120q-310 201 -310 690zM390 1937 q0 314 22 339q36 -1 153 -1.5t180 -2.5q7 -2 7 -25q0 -2 -0.5 -6t-0.5 -5v-32q0 -18 1 -53t1 -45v-31q0 -109 1 -156q-10 -11 -81 -11q-3 0 -10 0.5t-11 0.5h-51q-31 0 -97.5 -3.5t-89.5 -3.5q-4 6 -11.5 17.5t-12.5 17.5zM605 671q0 -65 8.5 -123t28 -116t61 -94t99.5 -39 q50 0 89 16t64.5 40t44 65.5t27.5 78t14 93.5t6 95.5t1 100.5q0 56 -3.5 102.5t-16.5 102.5t-35 94.5t-63 64.5t-97 26q-31 0 -57 -8t-45.5 -19.5t-36 -33t-27 -39.5t-19.5 -48.5t-13.5 -50.5t-9 -55.5t-6.5 -53t-4 -52.5q-1 -5 -1 -7l-4 -51v-3l-1 -2v-3q-4 -42 -4 -81z M956 1932q0 85 6 208.5t18 135.5q55 -3 104 -3q29 0 83 1.5t87 1.5q61 0 64 -8q5 -157 7 -342q-3 -6 -3 -10l-7 1q-60 -6 -169.5 -8t-163.5 -6zM1311 1901l10 14l14 -1q0 -17 -14 -17q-6 0 -10 4z" />
<glyph unicode="&#xd7;" horiz-adv-x="1283" d="M166 254q0 6 15 24.5t40.5 44t51.5 50t55 52.5t43 43l64 65q-82 89 -225 232l-20 17q-8 7 -15 17t-8 15q0 16 58 66l61 61q5 5 17 17.5t21 22t21 20t21.5 16.5t16.5 6l96 -98q76 -79 179 -180l272 274q3 2 4 2q16 0 130 -126l44 -45q27 -27 30 -34q-6 -6 -15 -12 q-8 -7 -76 -75q-115 -109 -192 -189q100 -96 228 -224l20 -19q32 -30 32 -39q0 -14 -107 -117l-39 -37q-3 -3 -8.5 -8t-8.5 -9h1q-6 -6 -14 -14.5t-12.5 -13t-7.5 -6.5l-276 267q-21 -24 -50 -53t-65.5 -64t-54.5 -53l-100 -99l-10 -3q-11 2 -26.5 15.5t-34 31.5t-27.5 25 l-29 30q-6 6 -18.5 17.5t-20 18t-18.5 17t-17.5 17.5l-13 14t-9.5 12t-3 8zM937 52q2 0 2 1z" />
<glyph unicode="&#xd8;" d="M35 752q0 1 1 8.5t1 13.5q12 125 32 221.5t65 180.5q72 124 186 210t249.5 126t287.5 40q93 0 201.5 -24.5t209.5 -76.5l118 185q-2 -3 -2 -4q1 0 8.5 -2.5t17 -6t17 -8t7.5 -7.5q0 -20 -114 -188q77 -57 134 -132.5t90 -160.5t48.5 -172t15.5 -179q0 -358 -148 -546 l-46 -61q-63 -73 -169.5 -125.5t-215.5 -76t-215 -25.5q-213 0 -385 72l-41 -68q-76 -125 -102 -130l-19 6q-4 0 -20 7q10 26 32 81l85 136l-13 12q-316 205 -316 694zM605 671q0 -89 22 -215l383 596q-30 60 -72.5 93t-104.5 33q-31 0 -57 -8t-45.5 -19.5t-36 -33 t-27 -39.5t-19.5 -48.5t-14 -51t-9 -55t-6 -53t-4 -52.5q-1 -5 -1 -7l-4 -51q0 -1 -0.5 -3l-0.5 -2v-3q-4 -42 -4 -81zM666 380q54 -76 136 -81q39 0 71.5 10t56.5 25t42.5 41.5t31 51.5t21 63.5t13 68.5t7 75.5t3 76t0.5 77.5q0 59 -11 181zM1386 1636q0 1 1 2z" />
<glyph unicode="&#xd9;" horiz-adv-x="1615" d="M104 493q5 418 5 773q-5 0 -5 116q0 94 9 119h21q147 8 401 8q18 -4 65.5 -5t65.5 -3l31 -4q7 -198 9 -545l-3 -202q0 -33 -1.5 -95.5t-1.5 -104.5q0 -200 116 -200q49 0 82.5 43t35.5 97l4 10l3 337q0 5 0.5 15t0.5 15q0 232 -6 448l-2 73q-2 44 -2 70q0 44 11 57 q386 0 582 -3q6 -6 28 -20q-8 -189 -8 -486v-172q0 -9 0.5 -28.5t0.5 -30.5q0 -46 -1.5 -140.5t-1.5 -140.5q0 -129 -41.5 -228t-109 -160t-162.5 -100t-191 -53.5t-206 -14.5q-104 0 -199 16.5t-188.5 57t-164 102t-119 159t-58.5 220.5zM421 2058q0 5 9 13 q205 -18 440 -18h30h2q2 1 4 1q9 -7 27.5 -34.5t40.5 -64t44.5 -74.5t44 -72t34.5 -50q0 -2 3 -5q31 -48 31 -58q0 -14 -61 -14h-318q-1 0 -3 -1l-4 -2l-2 -1q-2 2 -36 44v-1l-31 38q-89 107 -141 160q-114 114 -114 139z" />
<glyph unicode="&#xda;" horiz-adv-x="1615" d="M104 493q5 418 5 773q-5 0 -5 116q0 94 9 119h21q147 8 401 8q18 -4 65.5 -5t65.5 -3l31 -4q7 -198 9 -545l-3 -202q0 -33 -1.5 -95.5t-1.5 -104.5q0 -200 116 -200q49 0 82.5 43t35.5 97l4 10l3 337q0 5 0.5 15t0.5 15q0 232 -6 448l-2 73q-2 44 -2 70q0 44 11 57 q386 0 582 -3q6 -6 28 -20q-8 -189 -8 -486v-172q0 -9 0.5 -28.5t0.5 -30.5q0 -46 -1.5 -140.5t-1.5 -140.5q0 -129 -41.5 -228t-109 -160t-162.5 -100t-191 -53.5t-206 -14.5q-104 0 -199 16.5t-188.5 57t-164 102t-119 159t-58.5 220.5zM478 1702l168 286q43 63 49 70h70 q62 0 205.5 -5t212.5 -5v-3q-40 -46 -131 -147.5t-139 -156.5q-38 -43 -69.5 -53t-102.5 -11l-183 -3q-3 0 -8.5 -0.5t-7.5 -0.5h-49z" />
<glyph unicode="&#xdb;" horiz-adv-x="1615" d="M104 493q5 418 5 773q-5 0 -5 116q0 94 9 119h21q147 8 401 8q18 -4 65.5 -5t65.5 -3l31 -4q7 -198 9 -545l-3 -202q0 -33 -1.5 -95.5t-1.5 -104.5q0 -200 116 -200q49 0 82.5 43t35.5 97l4 10l3 337q0 5 0.5 15t0.5 15q0 232 -6 448l-2 73q-2 44 -2 70q0 44 11 57 q386 0 582 -3q6 -6 28 -20q-8 -189 -8 -486v-172q0 -9 0.5 -28.5t0.5 -30.5q0 -46 -1.5 -140.5t-1.5 -140.5q0 -129 -41.5 -228t-109 -160t-162.5 -100t-191 -53.5t-206 -14.5q-104 0 -199 16.5t-188.5 57t-164 102t-119 159t-58.5 220.5zM337 1696q0 2 1 6q64 99 181 253 l22 35q25 41 72 49.5t269 12.5l177 3q4 -2 9 -6t11.5 -11t11.5 -13.5t12.5 -17.5t12.5 -17.5t13.5 -19.5t12.5 -18v1l62 -92q12 -18 47 -65l20 -28q5 -8 15.5 -22l16.5 -22t11 -17.5t5 -14.5q0 -10 -27 -10q-2 0 -5.5 0.5t-5.5 0.5h-62q-53 0 -149.5 -3.5t-145.5 -3.5 q-7 4 -13 8t-11.5 10.5t-9 11t-8.5 13.5t-7 13t-7.5 15.5t-7.5 14.5l-30 60q-16 -15 -39 -50t-41 -60t-29 -25h-278q-8 0 -24 -1.5t-25 -1.5q-57 0 -57 12z" />
<glyph unicode="&#xdc;" horiz-adv-x="1615" d="M104 493q5 418 5 773q-5 0 -5 116q0 94 9 119h21q147 8 401 8q18 -4 65.5 -5t65.5 -3l31 -4q7 -198 9 -545l-3 -202q0 -33 -1.5 -95.5t-1.5 -104.5q0 -200 116 -200q49 0 82.5 43t35.5 97l4 10l3 337q0 5 0.5 15t0.5 15q0 232 -6 448l-2 73q-2 44 -2 70q0 44 11 57 q386 0 582 -3q6 -6 28 -20q-8 -189 -8 -486v-172q0 -9 0.5 -28.5t0.5 -30.5q0 -46 -1.5 -140.5t-1.5 -140.5q0 -129 -41.5 -228t-109 -160t-162.5 -100t-191 -53.5t-206 -14.5q-104 0 -199 16.5t-188.5 57t-164 102t-119 159t-58.5 220.5zM379 1937q0 314 22 339 q36 -1 153 -1.5t180 -2.5q7 -2 7 -25q0 -2 -0.5 -6t-0.5 -5v-32q0 -18 1 -53t1 -45v-31q0 -109 1 -156q-10 -11 -81 -11q-3 0 -10 0.5t-11 0.5h-51q-31 0 -97.5 -3.5t-89.5 -3.5q-4 6 -12 17.5t-12 17.5zM945 1932q0 85 6 208.5t18 135.5q55 -3 104 -3q29 0 83 1.5t87 1.5 q61 0 64 -8q5 -157 7 -342q-3 -6 -3 -10l-7 1q-60 -6 -169.5 -8t-163.5 -6zM1300 1901l10 14l14 -1q0 -17 -14 -17q-6 0 -10 4z" />
<glyph unicode="&#xdd;" horiz-adv-x="1524" d="M-33 1501q0 5 32 5h257q213 0 321 -3q12 -2 43.5 -89t63 -188.5t60.5 -203.5l45 -159q35 93 72.5 202t86 259.5t56.5 176.5q1 8 148 8h128q46 0 77 -2h173q6 0 17 0.5t16 0.5q10 -5 15 -25l-30 -59v1l-65 -125q-6 -12 -45.5 -84t-55 -101t-43 -82.5t-46.5 -95.5l-34 -65 q-55 -106 -187 -374q-2 -34 -2 -102v-413q-5 -16 -20 -16q-99 0 -287.5 -2t-285.5 -2q-22 28 -22 64q0 21 1 63t1 62v29q0 6 0.5 15.5t0.5 14.5l1 73q0 67 -10.5 134.5t-24 118t-41 118.5t-45.5 106.5t-53 111.5l-149 298q-6 12 -37 71t-52 98v-1q-80 122 -80 162zM465 1674 l168 286q5 8 16 24.5t18 26.5t15 19h70q51 0 125.5 -2.5t154.5 -5t138 -2.5v-3q-40 -46 -131 -147.5t-139 -156.5q-38 -43 -69.5 -53t-102.5 -11l-183 -3q-3 0 -8.5 -0.5t-7.5 -0.5h-49z" />
<glyph unicode="&#xde;" horiz-adv-x="1527" d="M117 120v407q0 81 1 212t1 199l-1 420v1q1 1 1 2v107q0 105 17 154l572 -9q11 -3 14 -19v-81q0 -5 -0.5 -15t-0.5 -15l3 -106q173 -2 266 -10h7q34 2 43 2q98 0 186 -33t156.5 -94t108.5 -156.5t40 -212.5q0 -87 -20.5 -159.5t-54 -123t-83 -90.5t-99 -64.5t-111.5 -41.5 t-111.5 -25t-106.5 -13l-216 -9q-3 -57 -10 -241q0 -6 0.5 -16t0.5 -15v-82q-3 -15 -14 -18l-572 -9q-17 48 -17 154zM686 1069q3 -19 6.5 -153.5t3.5 -216.5l41 -59q54 2 98 13t85 36t64 72.5t23 113.5q0 52 -15 82q-9 24 -25 42t-33 29.5t-44 20t-46 12t-53.5 6t-51.5 2.5 h-53z" />
<glyph unicode="&#xdf;" horiz-adv-x="1559" d="M72 -19q2 1 6 1q0 118 -2.5 363t-2.5 376q0 214 4 361q3 87 26.5 170t70.5 131q100 86 246.5 134t310.5 48q135 0 280 -28q61 -7 117 -20.5t115 -41t102 -64.5t70.5 -94t27.5 -127q0 -111 -64 -187q-14 -15 -58 -55t-69.5 -70.5t-25.5 -53.5q0 -27 39 -56.5t87 -54.5 t55 -31v1q101 -62 150 -142.5t49 -208.5q0 -86 -33 -155.5t-85.5 -113.5t-121 -74t-136 -42.5t-134.5 -12.5q-258 0 -371 98l-3 -1l1 -1h1h-4l7 -15l-14 -15l-17 12l17 20l9 -1q-61 60 -91 182l-38 -2v-71q0 -154 4 -158q-67 -4 -149 -4q-60 0 -171.5 2t-165.5 2h-33v-2v-1 l-1 -1q0 3 -1 3h-4zM592 1000q1 -105 1 -322v-365l46 45l362 3q13 -2 16.5 -19.5t2 -37.5t9.5 -36.5t38 -16.5q7 0 17 3l20 1q16 42 16 57q0 25 -11 47.5t-32.5 41t-38.5 30t-43 26.5q-23 18 -73 52t-83 60t-70.5 62.5t-56.5 79.5t-19 91q0 58 29 113.5t77 98.5h-1l32 23 q33 24 52 39.5t38 44t19 57.5q0 108 -136 108q-60 0 -102.5 -24.5t-64 -67.5t-30.5 -87.5t-10 -97.5z" />
<glyph unicode="&#xe0;" horiz-adv-x="1575" d="M35 327q0 243 226 298q21 5 42 9t48 7l40.5 4.5t49 4.5t44.5 4l33 3q5 0 24.5 3.5t21.5 3.5t5.5 -0.5t4.5 -0.5h24q34 0 53 5l54 7q34 2 55 5t47.5 12.5t41.5 25t25.5 44t10.5 68.5q-6 10 -6 27q0 15 -5 30t-14 27.5t-20.5 22.5t-26 15.5t-30.5 5.5h-5q-19 0 -34 -6.5 t-24.5 -17t-17 -26t-11 -29.5t-6 -31t-3 -28.5t-0.5 -24.5q-5 -8 -12 -8q-16 4 -60 4h-516q5 69 35 152q25 61 73.5 111t106 82t127 54t133 32.5t126.5 12.5l60 3q5 0 16.5 1.5t15.5 1.5q6 0 12 -3h13q9 0 24.5 1t20.5 1q14 0 63 -7l29 -4q6 -1 14 -1h16t15 -1 q88 -12 159.5 -40t121 -65t85.5 -89t57.5 -104t34 -117.5t16.5 -122.5t4 -125q7 -23 7 -42q0 -14 -2.5 -36.5t-2.5 -32.5v-116q1 -2 1 -17q0 -10 -1 -35t-1 -33v-9q3 -5 3 -14q0 -1 -0.5 -4t-0.5 -5v-21q0 -95 29 -180l10 -22h-452q-6 0 -17.5 0.5t-18.5 0.5q-40 0 -61 -1 q-32 60 -61 164q-8 -17 -25.5 -39.5t-36.5 -39.5t-29 -17q-50 -24 -77 -36.5t-69.5 -26.5t-78.5 -19q-12 -2 -38.5 -7t-50 -8.5t-42.5 -3.5q-110 0 -204.5 41t-156 125.5t-61.5 196.5zM436 1806q0 5 9 13q205 -18 440 -18h30q1 0 2.5 0.5t3.5 0.5q18 -13 94 -141t97 -154 q0 -2 3 -5q31 -48 31 -58q0 -14 -61 -14h-318q-1 0 -3 -1l-4 -2l-2 -1q-2 2 -36 44v-1l-31 38q-4 5 -22 27t-26 31.5t-24.5 28t-33 36.5t-35.5 37q-114 114 -114 139zM688 404q0 -25 7.5 -48t21 -41t33.5 -28.5t43 -10.5q25 0 53 14.5t43 39.5l2 10q0 10 0.5 30t0.5 32v30 q0 6 0.5 16.5t0.5 15.5q0 50 -8 96q-20 -11 -51.5 -22.5t-54 -20t-45 -22.5t-34.5 -36.5t-12 -54.5z" />
<glyph unicode="&#xe1;" horiz-adv-x="1575" d="M35 327q0 243 226 298q21 5 42 9t48 7l40.5 4.5t49 4.5t44.5 4l33 3q5 0 24.5 3.5t21.5 3.5t5.5 -0.5t4.5 -0.5h24q34 0 53 5l54 7q34 2 55 5t47.5 12.5t41.5 25t25.5 44t10.5 68.5q-6 10 -6 27q0 15 -5 30t-14 27.5t-20.5 22.5t-26 15.5t-30.5 5.5h-5q-19 0 -34 -6.5 t-24.5 -17t-17 -26t-11 -29.5t-6 -31t-3 -28.5t-0.5 -24.5q-5 -8 -12 -8q-16 4 -60 4h-516q5 69 35 152q25 61 73.5 111t106 82t127 54t133 32.5t126.5 12.5l60 3q5 0 16.5 1.5t15.5 1.5q6 0 12 -3h13q9 0 24.5 1t20.5 1q14 0 63 -7l29 -4q6 -1 14 -1h16t15 -1 q88 -12 159.5 -40t121 -65t85.5 -89t57.5 -104t34 -117.5t16.5 -122.5t4 -125q7 -23 7 -42q0 -14 -2.5 -36.5t-2.5 -32.5v-116q1 -2 1 -17q0 -10 -1 -35t-1 -33v-9q3 -5 3 -14q0 -1 -0.5 -4t-0.5 -5v-21q0 -95 29 -180l10 -22h-452q-6 0 -17.5 0.5t-18.5 0.5q-40 0 -61 -1 q-32 60 -61 164q-8 -17 -25.5 -39.5t-36.5 -39.5t-29 -17q-50 -24 -77 -36.5t-69.5 -26.5t-78.5 -19q-12 -2 -38.5 -7t-50 -8.5t-42.5 -3.5q-110 0 -204.5 41t-156 125.5t-61.5 196.5zM445 1438l168 286q5 8 16 24.5t18 26.5t15 19h70q51 0 125.5 -2.5t154.5 -5t138 -2.5v-3 q-40 -46 -131 -147.5t-139 -156.5q-38 -43 -69.5 -53t-102.5 -11l-183 -3q-3 0 -8.5 -0.5t-7.5 -0.5h-49zM688 404q0 -25 7.5 -48t21 -41t33.5 -28.5t43 -10.5q25 0 53 14.5t43 39.5l2 10q0 10 0.5 30t0.5 32v30q0 6 0.5 16.5t0.5 15.5q0 50 -8 96q-20 -11 -51.5 -22.5 t-54 -20t-45 -22.5t-34.5 -36.5t-12 -54.5z" />
<glyph unicode="&#xe2;" horiz-adv-x="1575" d="M35 327q0 243 226 298q21 5 42 9t48 7l40.5 4.5t49 4.5t44.5 4l33 3q5 0 24.5 3.5t21.5 3.5t5.5 -0.5t4.5 -0.5h24q34 0 53 5l54 7q34 2 55 5t47.5 12.5t41.5 25t25.5 44t10.5 68.5q-6 10 -6 27q0 15 -5 30t-14 27.5t-20.5 22.5t-26 15.5t-30.5 5.5h-5q-19 0 -34 -6.5 t-24.5 -17t-17 -26t-11 -29.5t-6 -31t-3 -28.5t-0.5 -24.5q-5 -8 -12 -8q-16 4 -60 4h-516q5 69 35 152q25 61 73.5 111t106 82t127 54t133 32.5t126.5 12.5l60 3q5 0 16.5 1.5t15.5 1.5q6 0 12 -3h13q9 0 24.5 1t20.5 1q14 0 63 -7l29 -4q6 -1 14 -1h16t15 -1 q88 -12 159.5 -40t121 -65t85.5 -89t57.5 -104t34 -117.5t16.5 -122.5t4 -125q7 -23 7 -42q0 -14 -2.5 -36.5t-2.5 -32.5v-116q1 -2 1 -17q0 -10 -1 -35t-1 -33v-9q3 -5 3 -14q0 -1 -0.5 -4t-0.5 -5v-21q0 -95 29 -180l10 -22h-452q-6 0 -17.5 0.5t-18.5 0.5q-40 0 -61 -1 q-32 60 -61 164q-8 -17 -25.5 -39.5t-36.5 -39.5t-29 -17q-50 -24 -77 -36.5t-69.5 -26.5t-78.5 -19q-12 -2 -38.5 -7t-50 -8.5t-42.5 -3.5q-110 0 -204.5 41t-156 125.5t-61.5 196.5zM303 1419q0 2 1 6q64 99 181 253l22 35q25 41 72 49.5t269 12.5l177 3q4 -2 9 -6 t11.5 -11t11.5 -13.5t12.5 -17.5t12.5 -17.5t13.5 -19.5t12.5 -18v1l62 -92q12 -18 47 -65l20 -28q5 -8 15.5 -22l16.5 -22t11 -17.5t5 -14.5q0 -10 -27 -10q-2 0 -5.5 0.5t-5.5 0.5h-62q-53 0 -149.5 -3.5t-145.5 -3.5q-7 4 -13 8t-11.5 10.5t-9 11t-8.5 13.5t-7 13 t-7.5 15.5t-7.5 14.5l-30 60q-16 -15 -39 -50t-41 -60t-29 -25h-278q-7 0 -15.5 -1t-17.5 -1.5t-16 -0.5q-57 0 -57 12zM688 404q0 -52 29.5 -90t75.5 -38q25 0 53 14.5t43 39.5l2 10q0 10 0.5 30t0.5 32v30q0 6 0.5 16.5t0.5 15.5q0 50 -8 96q-22 -12 -64 -27t-67 -25.5 t-45.5 -37t-20.5 -66.5z" />
<glyph unicode="&#xe3;" horiz-adv-x="1575" d="M35 327q0 243 226 298q21 5 42 9t48 7l40.5 4.5t49 4.5t44.5 4l33 3q5 0 24.5 3.5t21.5 3.5t5.5 -0.5t4.5 -0.5h24q34 0 53 5l54 7q34 2 55 5t47.5 12.5t41.5 25t25.5 44t10.5 68.5q-6 10 -6 27q0 15 -5 30t-14 27.5t-20.5 22.5t-26 15.5t-30.5 5.5h-5q-19 0 -34 -6.5 t-24.5 -17t-17 -26t-11 -29.5t-6 -31t-3 -28.5t-0.5 -24.5q-5 -8 -12 -8q-16 4 -60 4h-516q5 69 35 152q25 61 73.5 111t106 82t127 54t133 32.5t126.5 12.5l60 3q5 0 16.5 1.5t15.5 1.5q6 0 12 -3h13q9 0 24.5 1t20.5 1q14 0 63 -7l29 -4q6 -1 14 -1h16t15 -1 q88 -12 159.5 -40t121 -65t85.5 -89t57.5 -104t34 -117.5t16.5 -122.5t4 -125q7 -23 7 -42q0 -14 -2.5 -36.5t-2.5 -32.5v-116q1 -2 1 -17q0 -10 -1 -35t-1 -33v-9q3 -5 3 -14q0 -1 -0.5 -4t-0.5 -5v-21q0 -95 29 -180l10 -22h-452q-6 0 -17.5 0.5t-18.5 0.5q-40 0 -61 -1 q-32 60 -61 164q-8 -17 -25.5 -39.5t-36.5 -39.5t-29 -17q-50 -24 -77 -36.5t-69.5 -26.5t-78.5 -19q-12 -2 -38.5 -7t-50 -8.5t-42.5 -3.5q-110 0 -204.5 41t-156 125.5t-61.5 196.5zM327 1434q0 172 77 256.5t219 84.5q53 0 186 -37v1q30 -11 87 -26l30 -6q4 0 14 -10 l25 28q5 17 6 26l23 19l253 -7q3 -1 13 -15q-22 -344 -284 -344q-54 0 -142 21q-9 3 -59 19t-82.5 24t-56.5 9q-31 0 -40 -33q-1 -3 -3 -11l-1 -5q0 -12 -232 -12h-27q-6 6 -6 18zM688 404q0 -25 7.5 -48t21 -41t33.5 -28.5t43 -10.5q25 0 53 14.5t43 39.5l2 10q0 10 0.5 30 t0.5 32v30q0 6 0.5 16.5t0.5 15.5q0 50 -8 96q-20 -11 -51.5 -22.5t-54 -20t-45 -22.5t-34.5 -36.5t-12 -54.5zM932 1745l9 10l7 -17z" />
<glyph unicode="&#xe4;" horiz-adv-x="1575" d="M35 327q0 243 226 298q21 5 42 9t48 7l40.5 4.5t49 4.5t44.5 4l33 3q5 0 24.5 3.5t21.5 3.5t5.5 -0.5t4.5 -0.5h24q34 0 53 5l54 7q34 2 55 5t47.5 12.5t41.5 25t25.5 44t10.5 68.5q-6 10 -6 27q0 15 -5 30t-14 27.5t-20.5 22.5t-26 15.5t-30.5 5.5h-5q-19 0 -34 -6.5 t-24.5 -17t-17 -26t-11 -29.5t-6 -31t-3 -28.5t-0.5 -24.5q-5 -8 -12 -8q-16 4 -60 4h-516q5 69 35 152q25 61 73.5 111t106 82t127 54t133 32.5t126.5 12.5l60 3q5 0 16.5 1.5t15.5 1.5q6 0 12 -3h13q9 0 24.5 1t20.5 1q14 0 63 -7l29 -4q6 -1 14 -1h16t15 -1 q88 -12 159.5 -40t121 -65t85.5 -89t57.5 -104t34 -117.5t16.5 -122.5t4 -125q7 -23 7 -42q0 -14 -2.5 -36.5t-2.5 -32.5v-116q1 -2 1 -17q0 -10 -1 -35t-1 -33v-9q3 -5 3 -14q0 -1 -0.5 -4t-0.5 -5v-21q0 -95 29 -180l10 -22h-452q-6 0 -17.5 0.5t-18.5 0.5q-40 0 -61 -1 q-32 60 -61 164q-8 -17 -25.5 -39.5t-36.5 -39.5t-29 -17q-50 -24 -77 -36.5t-69.5 -26.5t-78.5 -19q-12 -2 -38.5 -7t-50 -8.5t-42.5 -3.5q-110 0 -204.5 41t-156 125.5t-61.5 196.5zM327 1474q0 314 22 339q37 -1 153.5 -1.5t179.5 -2.5q7 -2 7 -25q0 -2 -0.5 -6t-0.5 -5 v-32q0 -19 1 -54t1 -44v-31q0 -109 1 -156q-10 -11 -81 -11q-3 0 -10 0.5t-11 0.5h-51q-31 0 -97.5 -3.5t-89.5 -3.5q-4 5 -8 11t-8 12.5t-8 11.5zM688 404q0 -25 7.5 -48t21 -41t33.5 -28.5t43 -10.5q25 0 53 14.5t43 39.5l2 10q0 10 0.5 30t0.5 32v30q0 6 0.5 16.5 t0.5 15.5q0 50 -8 96q-20 -11 -51.5 -22.5t-54 -20t-45 -22.5t-34.5 -36.5t-12 -54.5zM893 1469q0 45 2 115.5t8 145t14 83.5q56 -3 104 -3q29 0 83 1.5t87 1.5q61 0 64 -8q5 -157 7 -342q-3 -6 -3 -10l-7 1q-60 -6 -169.5 -8t-163.5 -6zM1248 1438l10 14l14 -1 q0 -17 -14 -17q-6 0 -10 4z" />
<glyph unicode="&#xe5;" horiz-adv-x="1575" d="M35 327q0 243 226 298q21 5 42 9t48 7l40.5 4.5t49 4.5t44.5 4l33 3q5 0 24.5 3.5t21.5 3.5t5.5 -0.5t4.5 -0.5h24q34 0 53 5l54 7q34 2 55 5t47.5 12.5t41.5 25t25.5 44t10.5 68.5q-6 10 -6 27q0 15 -5 30t-14 27.5t-20.5 22.5t-26 15.5t-30.5 5.5h-5q-19 0 -34 -6.5 t-24.5 -17t-17 -26t-11 -29.5t-6 -31t-3 -28.5t-0.5 -24.5q-5 -8 -12 -8q-16 4 -60 4h-516q5 69 35 152q25 61 73.5 111t106 82t127 54t133 32.5t126.5 12.5l60 3q5 0 16.5 1.5t15.5 1.5q6 0 12 -3h13q9 0 24.5 1t20.5 1q14 0 63 -7l29 -4q6 -1 14 -1h16t15 -1 q88 -12 159.5 -40t121 -65t85.5 -89t57.5 -104t34 -117.5t16.5 -122.5t4 -125q7 -23 7 -42q0 -14 -2.5 -36.5t-2.5 -32.5v-116q1 -2 1 -17q0 -10 -1 -35t-1 -33v-9q3 -5 3 -14q0 -1 -0.5 -4t-0.5 -5v-21q0 -95 29 -180l10 -22h-452q-6 0 -17.5 0.5t-18.5 0.5q-40 0 -61 -1 q-32 60 -61 164q-8 -17 -25.5 -39.5t-36.5 -39.5t-29 -17q-50 -24 -77 -36.5t-69.5 -26.5t-78.5 -19q-12 -2 -38.5 -7t-50 -8.5t-42.5 -3.5q-110 0 -204.5 41t-156 125.5t-61.5 196.5zM504 1689l0.5 0.5l1.5 1.5q7 54 26.5 103t53 91t86.5 67t118 25q76 0 143 -36 t108.5 -101.5t41.5 -144.5q0 -80 -40.5 -146t-105 -102t-137.5 -36q-63 0 -116.5 24t-89.5 64.5t-59 89t-31 100.5zM653 1708q0 -69 45.5 -108.5t98.5 -39.5q54 0 92.5 35.5t38.5 99.5q0 63 -40 99t-94 36q-50 0 -90 -32.5t-51 -89.5zM688 404q0 -25 7.5 -48t21 -41 t33.5 -28.5t43 -10.5q25 0 53 14.5t43 39.5l2 10q0 10 0.5 30t0.5 32v30q0 6 0.5 16.5t0.5 15.5q0 50 -8 96q-20 -11 -51.5 -22.5t-54 -20t-45 -22.5t-34.5 -36.5t-12 -54.5z" />
<glyph unicode="&#xe6;" horiz-adv-x="2100" d="M-64 30q0 11 5 23q3 6 9 12l3 -6l-1 -3q0 -3 -9 -3h11v2l5 -16q0 -6 -4 -7l-11 -27q-8 8 -8 25zM-47 59l23 70q2 7 6.5 24.5t9 30t11.5 24.5h-1q25 70 64 186l24 79h-1q31 94 100.5 300.5t100.5 300.5l21 61q35 90 85 251h-1q0 1 3.5 6.5t4.5 8.5q36 -1 108 -1h147 q9 -1 34 -1h101q3 0 15 -0.5t19 -0.5h35q13 0 39 -0.5t40 -0.5h16q49 0 92 -5q109 4 301 4h53q5 0 13 0.5t12 0.5h196q7 -2 13.5 -13t13 -29.5t11.5 -35.5t11 -39t9 -30l65 -213q2 1 4 1q3 0 3 -5q-5 1 -7 4q-8 -7 -18 -7q-6 0 -9 1h-14q-2 0 -6.5 0.5t-6.5 0.5l-213 2 q-8 0 -22 -0.5t-20 -0.5q-75 0 -115 5q-9 0 -77 4q0 -27 5.5 -46t5.5 -24l22 -88q1 0 8.5 -0.5t9.5 -0.5h46q61 0 184 3t189 3q23 0 31.5 -8.5t12 -28t8.5 -28.5l11 -39q5 -8 7.5 -19t5.5 -17l15 -51q9 -32 42 -127q-44 0 -128.5 -4t-140.5 -4h-110q-17 0 -83 3l9 -36 q0 -7 5 -16l31 -107q1 0 8.5 -0.5t9.5 -0.5h15q49 0 150 3.5t151 3.5l134 3q27 0 64 -16l22 -71l11 -28l-1 1l54 -180q1 -6 5.5 -13.5t4.5 -15.5l7 -24q5 -15 5 -20t-9 -5h-14q-11 0 -33.5 1.5t-35.5 1.5h-50q-2 0 -6 0.5t-6 0.5h-92q-2 0 -4 0.5t-4 0.5h-51q-80 0 -240 2 q-8 -4 -36 -4h-97q-28 -1 -97 -1q-38 0 -59 1l-88 -4l1 -10l-5 14h-58q-9 0 -26.5 -1t-27.5 -1q-64 0 -66 19l-41 153q-7 31 -13.5 36t-39.5 5h-334q-14 -41 -25 -88l-26 -111q-10 -17 -93 -17q-2 0 -6 0.5t-6 0.5h-71q-44 -3 -125 -3h-209q-1 0 -3.5 -0.5t-4.5 -0.5l-16 16 q0 2 -2 4zM585 606l5 -42q30 0 60 2l161 -5l2 0.5t3 0.5h5q17 0 25 1t18 4.5t14 12.5t4 25q0 23 -15 79v-3l-8 30q-6 18 -6 25l-28 126q-6 22 -10 49l-15 78q-2 3 -7 21v-3l-18 80q-8 32 -37 45q-39 -14 -72 -160l-9 -49q-4 -10 -6 -18l-6 -23q-16 -77 -51 -224 q0 -9 -4.5 -25.5t-4.5 -26.5zM1148 47l2 -4v4h-2zM1849 571l1 -1q-1 0 -1 1zM1850 570h6q-4 -1 -4 -3v-2z" />
<glyph unicode="&#xe7;" horiz-adv-x="1520" d="M0 577q0 73 17 149t49.5 149.5t88 137t127.5 101.5l135 72q78 28 183.5 41t163.5 13q112 0 184 -22l19 -6v1h2q339 -90 451 -298l2 -7q50 -101 67 -226l-23 8h-626l-5 37q-5 34 -9 55.5t-16 51t-29 46.5q-1 1 -8.5 4.5t-11.5 7.5q-30 -2 -50.5 -28.5t-29.5 -65t-13 -76 t-5.5 -70t-3.5 -38.5l5 -105l10 -10h-11q1 -19 6 -42t14.5 -50t27 -45t40.5 -18q24 0 42 19.5t27 49t13 56.5t4 50q77 4 232 4h38q11 0 44 -0.5t52 -0.5h96q29 0 95.5 -0.5t97.5 -0.5q-15 -156 -91.5 -272t-211.5 -182q-20 -7 -55 -23l-38 -18q-51 -20 -109 -35t-113 -21 q-3 -8 -21.5 -36t-33.5 -55q120 0 186 -50t66 -131q0 -109 -94 -171t-228 -62q-96 0 -192 19t-96 47q0 21 29 71l13 29q0 2 2 6l3 6q7 20 18 26q4 -2 37.5 -14.5t47.5 -17t40.5 -10t48.5 -5.5q12 0 24 1.5t35 6.5t37 19t14 36q0 44 -78 44q-8 -3 -32 -8l-22 -7v-20l-5 -1 l-2 19l7 2q-12 0 -35 16l-22 14h1q-44 25 -44 59q6 10 91 163q-53 5 -83 12q-40 0 -108 21q-102 24 -192.5 71.5t-147.5 115.5l-18 21q-87 112 -113 301l-3 21q-4 32 -4 48z" />
<glyph unicode="&#xe8;" horiz-adv-x="1475" d="M-11 531q0 9 2 19q-2 9 -2 26t1 26v15q0 212 126 366.5t339 217.5l23 7q53 9 76 19l-1 -1q45 13 126 13q21 0 67 -4l42 -4q11 -1 31.5 -3t30 -3t25 -3t31 -5.5t34.5 -8.5v1l21 -9q210 -65 327 -198v1q27 -32 66.5 -96.5t39.5 -89.5l8 -27l5 -29q19 -67 19 -116 q0 -41 1 -65h-824v-33q6 -23 6 -56q0 -17 0.5 -31.5t2.5 -28t2.5 -22t4.5 -20t4.5 -15.5t6 -16t6 -13.5t8 -15t8.5 -14.5v1l11 -21q19 -21 52 -30q69 14 94 109q4 15 13 60q36 10 102 10q21 0 64 -1.5t64 -1.5h369q-12 -122 -72 -224h1q-52 -82 -161.5 -141.5t-215.5 -84 t-194 -24.5q-8 0 -16 2h-23q-2 0 -5 -0.5t-4 -0.5h-9q-8 0 -20 2q-10 -6 -24 -6q-13 0 -40 5t-47 5q-7 -3 -15 -3q-35 0 -126 27v-1l-24 7l-24 8q-150 44 -257 154.5t-137 257.5q-3 18 -11 54.5t-8 52.5zM386 1806q0 5 9 13q205 -18 440 -18h30q1 0 2.5 0.5t3.5 0.5 q18 -13 94 -141t97 -154q0 -2 3 -5q31 -48 31 -58q0 -14 -61 -14h-318q-1 0 -3 -1l-4 -2l-2 -1q-2 2 -36 44v-1l-31 38q-89 107 -141 160q-114 114 -114 139zM604 708q64 4 118 4h130l21 13q-5 27 -7.5 41t-9 42.5t-13 45t-17 39t-22.5 35t-29 21.5t-37 9q-19 0 -36.5 -11 t-31 -30.5t-25 -44t-19.5 -53t-13.5 -56.5t-8.5 -55z" />
<glyph unicode="&#xe9;" horiz-adv-x="1475" d="M-11 531q0 9 2 19q-2 9 -2 26t1 26v15q0 212 126 366.5t339 217.5l23 7q53 9 76 19l-1 -1q45 13 126 13q21 0 67 -4l42 -4q11 -1 31.5 -3t30 -3t25 -3t31 -5.5t34.5 -8.5v1l21 -9q210 -65 327 -198v1q27 -32 66.5 -96.5t39.5 -89.5l8 -27l5 -29q19 -67 19 -116 q0 -41 1 -65h-824v-33q6 -23 6 -56q0 -17 0.5 -31.5t2.5 -28t2.5 -22t4.5 -20t4.5 -15.5t6 -16t6 -13.5t8 -15t8.5 -14.5v1l11 -21q19 -21 52 -30q69 14 94 109q4 15 13 60q36 10 102 10q21 0 64 -1.5t64 -1.5h369q-12 -122 -72 -224h1q-52 -82 -161.5 -141.5t-215.5 -84 t-194 -24.5q-8 0 -16 2h-23q-2 0 -5 -0.5t-4 -0.5h-9q-8 0 -20 2q-10 -6 -24 -6q-13 0 -40 5t-47 5q-7 -3 -15 -3q-35 0 -126 27v-1l-24 7l-24 8q-150 44 -257 154.5t-137 257.5q-3 18 -11 54.5t-8 52.5zM395 1438l168 286q43 63 49 70h70q62 0 205.5 -5t212.5 -5v-3 q-40 -46 -131 -147.5t-139 -156.5q-38 -43 -69.5 -53t-102.5 -11l-183 -3q-3 0 -8.5 -0.5t-7.5 -0.5h-49zM604 708q64 4 118 4h130l21 13q-5 31 -8.5 48t-11.5 49.5t-17.5 52t-23 41t-32.5 32t-42 10.5q-37 0 -67 -42t-45.5 -96t-21.5 -112z" />
<glyph unicode="&#xea;" horiz-adv-x="1475" d="M-11 531q0 9 2 19q-2 9 -2 26t1 26v15q0 212 126 366.5t339 217.5l23 7q53 9 76 19l-1 -1q45 13 126 13q21 0 67 -4l42 -4q11 -1 31.5 -3t30 -3t25 -3t31 -5.5t34.5 -8.5v1l21 -9q210 -65 327 -198v1q27 -32 66.5 -96.5t39.5 -89.5l8 -27l5 -29q19 -67 19 -116 q0 -41 1 -65h-824v-33q6 -23 6 -56q0 -17 0.5 -31.5t2.5 -28t2.5 -22t4.5 -20t4.5 -15.5t6 -16t6 -13.5t8 -15t8.5 -14.5v1l11 -21q19 -21 52 -30q69 14 94 109q4 15 13 60q36 10 102 10q21 0 64 -1.5t64 -1.5h369q-12 -122 -72 -224h1q-52 -82 -161.5 -141.5t-215.5 -84 t-194 -24.5q-8 0 -16 2h-23q-2 0 -5 -0.5t-4 -0.5h-9q-8 0 -20 2q-10 -6 -24 -6q-13 0 -40 5t-47 5q-7 -3 -15 -3q-35 0 -126 27v-1l-24 7l-24 8q-150 44 -257 154.5t-137 257.5q-3 18 -11 54.5t-8 52.5zM253 1419q0 2 1 6q64 99 181 253l22 35q25 41 72 49.5t269 12.5 l177 3q4 -2 9 -6t11.5 -11t11.5 -13.5t12.5 -17.5t12.5 -17.5t13.5 -19.5t12.5 -18v1l62 -92q12 -18 47 -65l20 -28q5 -8 15.5 -22l16.5 -22t11 -17.5t5 -14.5q0 -10 -27 -10q-2 0 -5.5 0.5t-5.5 0.5h-62q-53 0 -149.5 -3.5t-145.5 -3.5q-7 4 -13 8t-11.5 10.5t-9 11 t-8.5 13.5t-7 13t-7.5 15.5t-7.5 14.5l-30 60q-16 -15 -39 -50t-41 -60t-29 -25h-278q-8 0 -24 -1.5t-25 -1.5q-57 0 -57 12zM604 708q64 4 118 4h130l21 13q-5 27 -7.5 41t-9 42.5t-13 45t-17 39t-22.5 35t-29 21.5t-37 9q-28 0 -52.5 -23.5t-40.5 -62t-26.5 -80.5 t-14.5 -84z" />
<glyph unicode="&#xeb;" horiz-adv-x="1475" d="M-11 531q0 9 2 19q-2 9 -2 26t1 26v15q0 212 126 366.5t339 217.5l23 7q53 9 76 19l-1 -1q45 13 126 13q21 0 67 -4l42 -4q11 -1 31.5 -3t30 -3t25 -3t31 -5.5t34.5 -8.5v1l21 -9q210 -65 327 -198v1q27 -32 66.5 -96.5t39.5 -89.5l8 -27l5 -29q19 -67 19 -116 q0 -41 1 -65h-824v-33q6 -23 6 -56q0 -17 0.5 -31.5t2.5 -28t2.5 -22t4.5 -20t4.5 -15.5t6 -16t6 -13.5t8 -15t8.5 -14.5v1l11 -21q19 -21 52 -30q69 14 94 109q4 15 13 60q36 10 102 10q21 0 64 -1.5t64 -1.5h369q-12 -122 -72 -224h1q-52 -82 -161.5 -141.5t-215.5 -84 t-194 -24.5q-8 0 -16 2h-23q-2 0 -5 -0.5t-4 -0.5h-9q-8 0 -20 2q-10 -6 -24 -6q-13 0 -40 5t-47 5q-7 -3 -15 -3q-35 0 -126 27v-1l-24 7l-24 8q-150 44 -257 154.5t-137 257.5q-3 18 -11 54.5t-8 52.5zM277 1474q0 314 22 339q36 -1 153 -1.5t180 -2.5q7 -2 7 -25 q0 -2 -0.5 -6t-0.5 -5v-32q0 -19 1 -54t1 -44v-31q0 -109 1 -156q-10 -11 -81 -11q-3 0 -10 0.5t-11 0.5h-51q-31 0 -97.5 -3.5t-89.5 -3.5q-4 6 -11.5 17.5t-12.5 17.5zM604 708q64 4 118 4h130l21 13q-5 31 -8.5 48t-11.5 49.5t-17.5 52t-23 41t-32.5 32t-42 10.5 q-37 0 -67 -42t-45.5 -96t-21.5 -112zM843 1469q0 85 6 208.5t18 135.5q55 -3 104 -3q29 0 83 1.5t87 1.5q61 0 64 -8q5 -157 7 -342q-3 -6 -3 -10l-7 1q-60 -6 -169.5 -8t-163.5 -6zM1198 1438l10 14l14 -1q0 -17 -14 -17q-6 0 -10 4z" />
<glyph unicode="&#xec;" horiz-adv-x="669" d="M-17 1806q0 5 9 13q205 -18 440 -18h30q1 0 2.5 0.5t3.5 0.5q14 -11 51.5 -71.5t79 -130.5t60.5 -93q0 -2 3 -5q31 -48 31 -58q0 -14 -61 -14h-318q-1 0 -3 -1l-4 -2l-2 -1q-2 2 -36 44v-1l-31 38q-89 107 -141 160q-114 114 -114 139zM62 21v45q0 183 4 327l3 214 q0 63 4 203t4 208v28l130 1h4.5t4.5 -0.5t5 -0.5h5h68q5 0 13 0.5t12 0.5l265 -4l2 0.5t3 0.5q2 0 2 -5l1 -63q0 -4 -1 -17.5t0 -20.5v-76q0 -169 10 -270l4 -42q6 -71 8 -175v-27q0 -1 -0.5 -2.5l-0.5 -1.5v-31q0 -2 0.5 -5t0.5 -4l1 -150q0 -63 -8 -121t-19 -58h-294 l-39 -6q-60 0 -172 2l-19 16v13q0 3 -0.5 10t-0.5 11z" />
<glyph unicode="&#xed;" horiz-adv-x="669" d="M-8 1438l168 286q43 63 49 70h70q62 0 205.5 -5t212.5 -5v-3q-40 -46 -131 -147.5t-139 -156.5q-38 -43 -69.5 -53t-102.5 -11l-183 -3q-3 0 -8.5 -0.5t-7.5 -0.5h-49zM62 21v45q0 183 4 327l3 214q0 63 4 203t4 208v28l130 1q3 0 9 -0.5t10 -0.5h68q5 0 13 0.5t12 0.5 l265 -4l2 1h3q2 0 2 -5l1 -63q0 -4 -1 -17.5t0 -20.5v-76q0 -169 10 -270l4 -42q6 -71 8 -175v-27q0 -1 -1 -2v-2v-31q0 -1 0.5 -4t0.5 -5l1 -150q0 -63 -8 -121t-19 -58h-294l-39 -6q-60 0 -172 2l-19 16v13q0 3 -0.5 10t-0.5 11z" />
<glyph unicode="&#xee;" horiz-adv-x="669" d="M-149 1419q0 2 1 6q64 99 181 253l22 35q25 41 72 49.5t269 12.5l177 3q4 -2 9 -6t11.5 -11t11.5 -13.5t12.5 -17.5t12.5 -17.5t13.5 -19.5t12.5 -18v1l62 -92q12 -18 47 -65l20 -28q5 -8 15.5 -22l16.5 -22t11 -17.5t5 -14.5q0 -10 -27 -10q-2 0 -5.5 0.5t-5.5 0.5h-62 q-53 0 -149.5 -3.5t-145.5 -3.5q-7 4 -13 8t-11.5 10.5t-9 11t-8.5 13.5t-7 13t-7.5 15.5t-7.5 14.5l-30 60q-16 -15 -39 -50t-41 -60t-29 -25h-278q-8 0 -24 -1.5t-25 -1.5q-57 0 -57 12zM62 21v45q0 183 4 327l3 214q0 63 4 203t4 208v28l130 1q3 0 9 -0.5t10 -0.5h68 q5 0 13 0.5t12 0.5l265 -4l2 0.5t3 0.5q2 0 2 -5l1 -63q0 -5 -0.5 -13t-0.5 -12.5v-12.5v-76q0 -169 10 -270l4 -42q6 -71 8 -175v-27q0 -1 -0.5 -2.5l-0.5 -1.5v-31q0 -1 0.5 -4t0.5 -5l1 -150q0 -63 -8 -121t-19 -58h-294l-39 -6q-60 0 -172 2l-19 16v13q0 3 -0.5 10 t-0.5 11z" />
<glyph unicode="&#xef;" horiz-adv-x="669" d="M-126 1474q0 314 22 339q36 -1 153 -1.5t180 -2.5q7 -2 7 -25q0 -2 -0.5 -6t-0.5 -5v-32q0 -19 1 -54t1 -44v-31q0 -109 1 -156q-10 -11 -81 -11q-3 0 -10 0.5t-11 0.5h-51q-31 0 -97.5 -3.5t-89.5 -3.5q-4 6 -11.5 17.5t-12.5 17.5zM62 21v45q0 183 4 327l3 214 q0 63 4 203t4 208v28l130 1q3 0 9 -0.5t10 -0.5h68q5 0 13 0.5t12 0.5l265 -4l2 1h3q2 0 2 -5l1 -63q0 -4 -1 -17.5t0 -20.5v-76q0 -169 10 -270l4 -42q6 -71 8 -175v-27q0 -1 -1 -2v-2v-31q0 -1 0.5 -4t0.5 -5l1 -150q0 -63 -8 -121t-19 -58h-294l-39 -6q-60 0 -172 2 l-19 16v13q0 3 -0.5 10t-0.5 11zM440 1469q0 85 6 208.5t18 135.5q55 -3 104 -3q29 0 83 1.5t87 1.5q61 0 64 -8q5 -157 7 -342q-3 -6 -3 -10l-7 1q-60 -6 -169.5 -8t-163.5 -6zM795 1438l10 14l14 -1q0 -17 -14 -17q-6 0 -10 4z" />
<glyph unicode="&#xf0;" horiz-adv-x="1453" d="M-26 657q0 2 0.5 6t0.5 7v16q0 15 1 43t1 41v11q0 7 -1 21t-1 20q0 47 15 47h119q-3 24 -3 47l-3 49v163q-8 132 -8 203v46l-5 4q2 3 10 3h11q19 0 35 4q127 14 312 14h134q80 0 143.5 -3t149.5 -15t151.5 -32.5t129.5 -59.5t104 -93q159 -196 159 -471q0 -137 -38 -251 t-100.5 -191t-145 -131.5t-168 -81t-172.5 -30.5l-6 3l-44 -2q-24 -2 -44 -2q-69 0 -106 3h-111q-4 0 -11.5 0.5t-12.5 0.5q-55 0 -180.5 -3t-168.5 -3q-16 31 -16 66v137q2 83 2 250v66q0 12 0.5 42t0.5 42q-31 -1 -110 -1q-9 3 -24 15zM591 870h49q3 0 9 -0.5t9 -0.5h56 q13 0 13 -103q0 -5 -0.5 -14.5t-0.5 -14.5v-53q0 -28 -12 -28q-86 0 -119 -1v-55q0 -2 0.5 -7t0.5 -8v-43q0 -5 -0.5 -14t-0.5 -13v-22q0 -148 31 -165h36q50 0 90 15.5t65.5 37t44.5 58.5t29 66.5t16 75.5t7.5 70t2.5 65q1 10 1 15v81q-3 18 -5 49q-4 69 -23 119.5 t-44.5 78.5t-62.5 44.5t-69 21.5t-71 5h-27l-11 -37v2l-14 -23q0 -29 1 -37v-11q0 -2 0.5 -6t0.5 -6v-60q0 -8 -1 -23t-1 -28v-31z" />
<glyph unicode="&#xf1;" horiz-adv-x="1460" d="M50 599v598l266 -1q45 0 133.5 0.5t134.5 0.5q5 -21 18 -66t25 -90l19 -75q40 101 49 112l16 20q49 69 130 105.5t172 36.5q107 0 196.5 -59.5t139.5 -155t50 -201.5q0 -12 -3 -19v-615q0 -32 0.5 -96t0.5 -95h-585l-2 500q0 9 2 44t2 58q0 153 -81 153q-87 0 -87 -145 q0 -32 1 -44v-15q0 -2 0.5 -8t0.5 -9v-533q-52 0 -149.5 -0.5t-148.5 -0.5h-299q0 103 -0.5 301t-0.5 299zM269 1434q0 172 77 256.5t219 84.5q53 0 186 -37v1q30 -11 87 -26l30 -6q4 0 14 -10l25 28q5 17 6 26l23 19l253 -7q3 -1 13 -15q-22 -344 -284 -344q-54 0 -142 21 q-9 3 -59 19t-82.5 24t-56.5 9q-13 0 -21 -3.5t-13 -14t-5.5 -13.5t-4.5 -18q0 -12 -232 -12h-27q-6 6 -6 18zM874 1745l9 10l7 -17z" />
<glyph unicode="&#xf2;" horiz-adv-x="1569" d="M22 633q0 9 3 15v16q-3 4 -3 8l1 7q1 1 1 2v2h-1q19 175 74 230q0 5 2 8.5t6 9t6 7.5v-1q3 3 8.5 13t6.5 11q35 45 77 84t92 71.5t101 51.5l35 13q28 13 81.5 27t103.5 21l32 3q6 1 16 1.5t17 0.5t14.5 1t11.5 3l43 -1q3 1 9 1q2 0 7 -1l-1 1q6 -3 18 -3q4 4 14 4 q217 0 369 -89l20 -9q327 -157 327 -536q-2 -10 -2 -12v-8q-3 -165 -76 -297h1q-102 -156 -284.5 -240t-375.5 -84q-163 0 -282 37t-240 117q-70 47 -118.5 108.5t-72 132t-32.5 135t-9 139.5zM433 1806q0 5 9 13q205 -18 440 -18h30q1 0 2.5 0.5t3.5 0.5q18 -13 94 -141 t97 -154q0 -2 3 -5q31 -48 31 -58q0 -14 -61 -14h-318q-1 0 -3 -1l-4 -2l-2 -1q-2 2 -36 44v-1l-31 38q-6 7 -19 23t-20 24.5t-20.5 24t-24 27.5t-26 28.5t-31.5 32.5q-114 114 -114 139zM672 581q0 -34 5.5 -77.5t16.5 -92t34 -81t52 -32.5q111 0 111 301q-1 50 -7 99 t-17.5 95.5t-33 75t-49.5 28.5q-35 0 -59 -36.5t-34.5 -93t-14.5 -101.5t-4 -85z" />
<glyph unicode="&#xf3;" horiz-adv-x="1569" d="M22 633q0 9 3 15v16q-3 4 -3 8l1 7q1 1 1 2v2h-1q19 175 74 230q0 5 2 8.5t6 9t6 7.5v-1q3 3 8.5 13t6.5 11q35 45 77 84t92 71.5t101 51.5l35 13q28 13 81.5 27t103.5 21l32 3q6 1 16 1.5t17 0.5t14.5 1t11.5 3l43 -1q3 1 9 1q2 0 7 -1l-1 1q6 -3 18 -3q4 4 14 4 q217 0 369 -89l20 -9q327 -157 327 -536q-2 -10 -2 -12v-8q-3 -165 -76 -297h1q-102 -156 -284.5 -240t-375.5 -84q-163 0 -282 37t-240 117q-70 47 -118.5 108.5t-72 132t-32.5 135t-9 139.5zM442 1438l168 286q5 8 13 20t12.5 19t11 15.5t12.5 15.5h70q51 0 125.5 -2.5 t154.5 -5t138 -2.5v-3q-40 -46 -131 -147.5t-139 -156.5q-38 -43 -69.5 -53t-102.5 -11l-183 -3q-3 0 -8.5 -0.5t-7.5 -0.5h-49zM672 581q0 -34 5.5 -77.5t16.5 -92t34 -81t52 -32.5q28 0 49.5 21.5t32.5 52.5t18 74.5t9 78.5t2 74q-1 50 -7 99t-17.5 95.5t-33 75 t-49.5 28.5q-20 0 -37 -13.5t-28.5 -35t-20 -50.5t-13.5 -58t-8 -61t-4 -55t-1 -43z" />
<glyph unicode="&#xf4;" horiz-adv-x="1569" d="M22 633q0 9 3 15v16q-3 4 -3 8l1 7q1 1 1 2v2h-1q19 175 74 230q0 5 2 8.5t6 9t6 7.5v-1q3 3 8.5 13t6.5 11q35 45 77 84t92 71.5t101 51.5l35 13q28 13 81.5 27t103.5 21l32 3q6 1 16 1.5t17 0.5t14.5 1t11.5 3l43 -1q3 1 9 1q2 0 7 -1l-1 1q6 -3 18 -3q4 4 14 4 q217 0 369 -89l20 -9q327 -157 327 -536q-2 -10 -2 -12v-8q-3 -165 -76 -297h1q-102 -156 -284.5 -240t-375.5 -84q-163 0 -282 37t-240 117q-70 47 -118.5 108.5t-72 132t-32.5 135t-9 139.5zM300 1419q0 2 1 6q64 99 181 253l22 35q25 41 72 49.5t269 12.5l177 3 q4 -2 9 -6t11.5 -11t11.5 -13.5t12.5 -17.5t12.5 -17.5t13.5 -19.5t12.5 -18v1l62 -92q12 -18 47 -65l20 -28q5 -8 15.5 -22l16.5 -22t11 -17.5t5 -14.5q0 -10 -27 -10q-2 0 -5.5 0.5t-5.5 0.5h-62q-53 0 -149.5 -3.5t-145.5 -3.5q-7 4 -13 8t-11.5 10.5t-9 11t-8.5 13.5 t-7 13t-7.5 15.5t-7.5 14.5l-30 60q-16 -15 -39 -50t-41 -60t-29 -25h-278q-8 0 -24 -1.5t-25 -1.5q-57 0 -57 12zM672 581q0 -18 1.5 -40t5 -49.5t9.5 -54t14.5 -52t19.5 -45t26 -31t32 -11.5q28 0 49.5 21.5t32.5 52.5t18 74.5t9 78.5t2 74q-1 50 -7 99t-17.5 95.5t-33 75 t-49.5 28.5q-20 0 -37 -13.5t-28.5 -35t-20 -50.5t-13.5 -58t-8 -61t-4 -55t-1 -43z" />
<glyph unicode="&#xf5;" horiz-adv-x="1569" d="M22 633q0 9 3 15v16q-3 4 -3 8l1 7q1 1 1 2v2h-1q19 175 74 230q0 5 2 8.5t6 9t6 7.5v-1q3 3 8.5 13t6.5 11q35 45 77 84t92 71.5t101 51.5l35 13q28 13 81.5 27t103.5 21l32 3q6 1 16 1.5t17 0.5t14.5 1t11.5 3l43 -1q3 1 9 1q2 0 7 -1l-1 1q6 -3 18 -3q4 4 14 4 q217 0 369 -89l20 -9q327 -157 327 -536q-2 -10 -2 -12v-8q-3 -165 -76 -297h1q-102 -156 -284.5 -240t-375.5 -84q-163 0 -282 37t-240 117q-70 47 -118.5 108.5t-72 132t-32.5 135t-9 139.5zM324 1434q0 172 77 256.5t219 84.5q53 0 186 -37v1q30 -11 87 -26l30 -6 q4 0 14 -10l25 28q5 17 6 26l23 19l253 -7q3 -1 13 -15q-22 -344 -284 -344q-55 0 -142 21q-9 3 -59 19t-82.5 24t-56.5 9q-5 0 -9.5 -1t-8 -2t-7 -3.5t-5.5 -4t-4 -5.5l-3 -6t-2.5 -7t-1.5 -6.5t-1.5 -7t-1.5 -6.5q0 -12 -232 -12h-27q-6 6 -6 18zM672 581q0 -34 5.5 -77.5 t16.5 -92t34 -81t52 -32.5q28 0 49.5 21.5t32.5 52.5t18 74.5t9 78.5t2 74q-1 50 -7 99t-17.5 95.5t-33 75t-49.5 28.5q-20 0 -37 -13.5t-28.5 -35t-20 -50.5t-13.5 -58t-8 -61t-4 -55t-1 -43zM929 1745l9 10l7 -17z" />
<glyph unicode="&#xf6;" horiz-adv-x="1569" d="M22 633q0 9 3 15v16q-3 4 -3 8l1 7q1 1 1 2v2h-1q19 175 74 230q0 5 2 8.5t6 9t6 7.5v-1q3 3 8.5 13t6.5 11q35 45 77 84t92 71.5t101 51.5l35 13q28 13 81.5 27t103.5 21l32 3q6 1 16 1.5t17 0.5t14.5 1t11.5 3l43 -1q3 1 9 1q2 0 7 -1l-1 1q6 -3 18 -3q4 4 14 4 q217 0 369 -89l20 -9q327 -157 327 -536q-2 -10 -2 -12v-8q-3 -165 -76 -297h1q-102 -156 -284.5 -240t-375.5 -84q-163 0 -282 37t-240 117q-70 47 -118.5 108.5t-72 132t-32.5 135t-9 139.5zM324 1474q0 314 22 339q41 -1 104.5 -1t122 -0.5t106.5 -2.5q7 -2 7 -25 q0 -2 -0.5 -6t-0.5 -5v-32q0 -18 1 -53t1 -45v-31q0 -109 1 -156q-10 -11 -81 -11q-3 0 -10 0.5t-11 0.5h-51q-31 0 -97.5 -3.5t-89.5 -3.5q-5 6 -12.5 17.5t-11.5 17.5zM672 581q0 -34 5.5 -77.5t16.5 -92t34 -81t52 -32.5q28 0 49.5 21.5t32.5 52.5t18 74.5t9 78.5t2 74 q-1 50 -7 99t-17.5 95.5t-33 75t-49.5 28.5q-20 0 -37 -13.5t-28.5 -35t-20 -50.5t-13.5 -58t-8 -61t-4 -55t-1 -43zM890 1469q0 85 6 208.5t18 135.5q56 -3 104 -3q29 0 83 1.5t87 1.5q61 0 64 -8q5 -157 7 -342q-3 -6 -3 -10l-7 1q-60 -6 -169.5 -8t-163.5 -6zM1245 1438 l10 14l14 -1q0 -17 -14 -17q-6 0 -10 4z" />
<glyph unicode="&#xf7;" horiz-adv-x="1282" d="M104 423q0 220 36 252h59q116 0 347 -5.5t346 -5.5q158 0 304 3q3 0 3 -2q0 -44 -4.5 -109.5t-4.5 -93.5v-46q0 -3 0.5 -6t0.5 -5q-5 -7 -32 -7l2 1q-208 -6 -322 -6h-25q-63 0 -165 -8l-254 -9q-272 -9 -275 -9q-16 22 -16 56zM511 113q0 67 42 111.5t101 44.5 q61 0 107 -40t46 -105q0 -66 -43.5 -107t-103.5 -41q-56 0 -102.5 36t-46.5 101zM517 938q0 65 43.5 104.5t102.5 39.5t104.5 -38t45.5 -101q0 -62 -47.5 -105t-109.5 -43q-58 0 -98.5 39.5t-40.5 103.5z" />
<glyph unicode="&#xf8;" horiz-adv-x="1455" d="M24 732q0 2 2 10t2 12q31 318 174 484l24 26q51 55 146 96l40 17q67 29 200 52q22 3 69 5h4q34 0 55 3q155 -4 284 -48l139 257q0 1 14 -4.5t21 -8.5l32 -15q0 -3 11 -3l6 -3q0 -18 -22.5 -63.5t-56.5 -106.5t-48 -93q5 -4 27.5 -19.5t32.5 -23t27 -21t29 -25.5t21 -24 l21 -29q146 -184 146 -466q0 -304 -134 -474l-42 -53q-87 -102 -245 -151t-307 -49q-112 0 -255 43q-11 -20 -30 -58.5t-30.5 -61t-27 -48t-28.5 -37.5t-24 -12l-28 7h-13q-8 2 -18 6t-14 5l19 80q0 5 4.5 13.5t11.5 19.5t10 17l61 116l-28 19q-93 63 -167 165v-1 q-90 143 -112 384zM512 724q0 -106 23 -244l308 574q-53 44 -116 44q-88 0 -131 -44.5t-66 -128.5h1q-19 -54 -19 -151v-50zM605 367q62 -28 105 -28q45 0 81 13t59.5 32.5t40.5 52.5t25.5 63t13.5 73.5t6 74t1 75.5v38q0 82 -23 202z" />
<glyph unicode="&#xf9;" horiz-adv-x="1538" d="M54 519q0 6 0.5 16.5t0.5 15.5v644h318q53 0 158 0.5t160 0.5v-96q0 -102 -1 -316t-1 -319q0 -102 73 -102q61 0 61 108v724q57 0 166 0.5t163 0.5h326q0 -198 0.5 -597t0.5 -598h-560l-47 162q-67 -104 -158.5 -151.5t-192.5 -47.5q-192 0 -323 110l1 7q-17 5 -42 36.5 t-38 54.5q-65 118 -65 347zM418 1806q0 5 9 13q205 -18 440 -18h30q1 0 2.5 0.5t3.5 0.5q18 -13 94 -141t97 -154q0 -2 3 -5q31 -48 31 -58q0 -14 -61 -14h-318q-1 0 -3 -1l-4 -2l-2 -1q-2 2 -36 44v-1l-31 38q-89 107 -141 160q-114 114 -114 139z" />
<glyph unicode="&#xfa;" horiz-adv-x="1538" d="M54 519q0 6 0.5 16.5t0.5 15.5v644h318q53 0 158 0.5t160 0.5v-96q0 -102 -1 -316t-1 -319q0 -102 73 -102q61 0 61 108v724q57 0 166 0.5t163 0.5h326q0 -198 0.5 -597t0.5 -598h-560l-47 162q-67 -104 -158.5 -151.5t-192.5 -47.5q-192 0 -323 110l1 7q-17 5 -42 36.5 t-38 54.5q-65 118 -65 347zM426 1438l168 286q43 63 49 70h70q62 0 205.5 -5t212.5 -5v-3q-40 -46 -131 -147.5t-139 -156.5q-38 -43 -69.5 -53t-102.5 -11l-183 -3q-3 0 -8.5 -0.5t-7.5 -0.5h-49z" />
<glyph unicode="&#xfb;" horiz-adv-x="1538" d="M54 519q0 6 0.5 16.5t0.5 15.5v644h318q53 0 158 0.5t160 0.5v-96q0 -102 -1 -316t-1 -319q0 -102 73 -102q61 0 61 108v724q57 0 166 0.5t163 0.5h326q0 -198 0.5 -597t0.5 -598h-560l-47 162q-67 -104 -158.5 -151.5t-192.5 -47.5q-192 0 -323 110l1 7q-17 5 -42 36.5 t-38 54.5q-65 118 -65 347zM285 1419q0 2 1 6q64 99 181 253l22 35q25 41 72 49.5t269 12.5l177 3q4 -2 9 -6t11.5 -11t11.5 -13.5t12.5 -17.5t12.5 -17.5t13.5 -19.5t12.5 -18v1l62 -92q12 -18 47 -65l20 -28q5 -8 15.5 -22l16.5 -22t11 -17.5t5 -14.5q0 -10 -27 -10 q-2 0 -5.5 0.5t-5.5 0.5h-62q-53 0 -149.5 -3.5t-145.5 -3.5q-7 4 -13 8t-11.5 10.5t-9 11t-8.5 13.5t-7 13t-7.5 15.5t-7.5 14.5l-30 60q-16 -15 -39 -50t-41 -60t-29 -25h-278q-8 0 -24 -1.5t-25 -1.5q-57 0 -57 12z" />
<glyph unicode="&#xfc;" horiz-adv-x="1538" d="M54 519q0 6 0.5 16.5t0.5 15.5v644h318q53 0 158 0.5t160 0.5v-96q0 -102 -1 -316t-1 -319q0 -102 73 -102q61 0 61 108v724q57 0 166 0.5t163 0.5h326q0 -198 0.5 -597t0.5 -598h-560l-47 162q-67 -104 -158.5 -151.5t-192.5 -47.5q-192 0 -323 110l1 7q-17 5 -42 36.5 t-38 54.5q-65 118 -65 347zM308 1474q0 314 22 339q36 -1 153 -1.5t180 -2.5q7 -2 7 -25q0 -2 -0.5 -6t-0.5 -5v-32q0 -19 1 -54t1 -44v-31q0 -109 1 -156q-10 -11 -81 -11q-3 0 -10 0.5t-11 0.5h-51q-31 0 -97.5 -3.5t-89.5 -3.5q-4 6 -11.5 17.5t-12.5 17.5zM874 1469 q0 85 6 208.5t18 135.5q56 -3 104 -3q29 0 83 1.5t87 1.5q61 0 64 -8q5 -157 7 -342q-3 -6 -3 -10l-7 1q-60 -6 -169.5 -8t-163.5 -6zM1229 1438l10 14l14 -1q0 -17 -14 -17q-6 0 -10 4z" />
<glyph unicode="&#xfd;" horiz-adv-x="1403" d="M-16 1195h305q48 0 149.5 0.5t151.5 0.5l45 -259q5 -43 16 -122t16 -119l97 500h591v2l20 -2l-5 -20h-2l-264 -732q-41 -103 -74 -218q-10 -32 -36 -98.5t-29 -75.5q-14 -36 -48 -132.5t-63 -167t-63 -131.5q-90 -153 -287 -166l-94 -1q-11 0 -39.5 -2t-41.5 -2 q-22 0 -39 3q-7 -2 -21 -2q-11 0 -31 1.5t-30 1.5q-8 0 -20 -1.5t-19 -1.5q-5 0 -25 2h-7q-30 2 -41 2q-8 -2 -15 -2h-21l-19 51q-2 6 -2 14q0 11 1 15v7q0 2 0.5 5.5t0.5 4.5v114q0 118 -1 175q14 2 32 2q15 0 25 -3q14 3 37 3h8q9 5 55 12q9 1 24 5t17 4v-1q29 10 48 28.5 t28 45.5t13 49.5t6 57.5q0 51 -40 177l-16 50q-117 375 -293 926zM359 1438l168 286q5 8 13 20t12.5 19t11 15.5t12.5 15.5h70q51 0 125.5 -2.5t154.5 -5t138 -2.5v-3q-40 -46 -131 -147.5t-139 -156.5q-38 -43 -69.5 -53t-102.5 -11l-183 -3q-3 0 -8.5 -0.5t-7.5 -0.5h-49z " />
<glyph unicode="&#xfe;" horiz-adv-x="1366" d="M101 1745q4 8 17 11t44 3h465q3 -5 3 -34v-325q44 0 127 -5t127 -5h16q2 0 4 1h3h22q147 0 269 -80h-1q76 -53 125 -155t49 -204q0 -118 -49 -208.5t-148 -170.5q-123 -63 -300 -74l-35 -2q-41 -7 -143 -7h-14q-15 0 -37 -3v-108q0 -183 9 -322q-8 -15 -63 -15h-475 q-9 24 -13 45v313q0 33 2 51v263q0 106 1.5 325t1.5 336v265zM593 849q0 -13 0.5 -21t2.5 -15t3 -10t6 -12.5t9 -16.5h-1q0 -5 3.5 -11t3.5 -7l10 10q6 -3 15 -3q32 0 61.5 4t57.5 12.5t51 23.5t40.5 35.5t27 50t9.5 65.5q0 33 -7.5 58.5t-19.5 42.5t-32 29.5t-39 19t-47 10 t-49.5 4.5t-53.5 1h-16q-8 -8 -22 -36v-71l-4 -37q-9 -83 -9 -126z" />
<glyph unicode="&#xff;" horiz-adv-x="1403" d="M-16 1195h305q48 0 149.5 0.5t151.5 0.5l45 -259q5 -43 16 -122t16 -119l97 500h591v2l20 -2l-5 -20h-2l-264 -732q-41 -103 -74 -218q-10 -32 -36 -98.5t-29 -75.5q-14 -36 -48 -132.5t-63 -167t-63 -131.5q-90 -153 -287 -166l-94 -1q-11 0 -39.5 -2t-41.5 -2 q-22 0 -39 3q-7 -2 -21 -2q-11 0 -31 1.5t-30 1.5q-8 0 -20 -1.5t-19 -1.5q-5 0 -25 2h-7q-30 2 -41 2q-8 -2 -15 -2h-21l-19 51q-2 6 -2 14q0 11 1 15v7q0 2 0.5 5.5t0.5 4.5v114q0 118 -1 175q14 2 32 2q15 0 25 -3q14 3 37 3h8q9 5 55 12q9 1 24 5t17 4v-1q29 10 48 28.5 t28 45.5t13 49.5t6 57.5q0 51 -40 177l-16 50q-117 375 -293 926zM241 1474q0 314 22 339q37 -1 153.5 -1.5t179.5 -2.5q7 -2 7 -25q0 -2 -0.5 -6t-0.5 -5v-32q0 -18 1 -53t1 -45v-31q0 -109 1 -156q-10 -11 -81 -11q-3 0 -10 0.5t-11 0.5h-51q-31 0 -97.5 -3.5t-89.5 -3.5 q-4 6 -11.5 17.5t-12.5 17.5zM807 1469q0 45 2 115.5t8 145t14 83.5q56 -3 104 -3q29 0 83 1.5t87 1.5q61 0 64 -8q5 -157 7 -342q-3 -6 -3 -10l-7 1q-60 -6 -169.5 -8t-163.5 -6zM1162 1438l10 14l14 -1q0 -17 -14 -17q-6 0 -10 4z" />
<glyph unicode="&#x152;" horiz-adv-x="1992" d="M41 714q0 181 35 307q106 288 259 365l102 58h-2q191 67 438 67q96 0 260 -17l832 18q13 -2 15 -14q1 -65 3 -194t2 -192l-28 -27q-85 2 -246.5 3.5t-197.5 1.5l-3 -143q207 5 368 5q33 0 41.5 -9.5t8.5 -45.5q0 -46 -1 -136t-1 -132v-82q-3 -8 -9 -11h-48q-115 0 -363 4 v-164q34 1 120 1q13 0 38 -0.5t37 -0.5h219q35 0 51 2q1 -1 3 -4t3 -5l-4 -379q-2 0 -3 1l-927 -10q-25 0 -98 -2t-112 -2q-119 0 -215 16.5t-185 62.5q-126 48 -216.5 153.5t-133 234.5t-42.5 270zM588 736q3 -21 4 -72.5t2 -97.5t13 -101t34 -94.5t67.5 -66t110.5 -26.5 q59 0 142 34l20 39q-19 444 -19 782q-1 16 -38.5 31t-73.5 23h-8q-3 0 -12 1t-14 1q-45 0 -81.5 -17.5t-59.5 -44.5t-40.5 -68.5t-26 -78.5t-13.5 -87t-6 -82.5t-1 -74.5zM845 383l29 11l11 -33q-11 -11 -32 -11zM1971 -25q0 1 1 3t1 3v9q3 -2 7 -4l2 -1z" />
<glyph unicode="&#x153;" horiz-adv-x="1942" d="M35 475q0 251 110 395q206 220 453 220q27 0 40 -1q24 3 53 3q159 0 324 -104q154 118 390 118q554 0 554 -627q0 -42 -22 -71h-14q-45 0 -129.5 1t-127.5 1h-187q-175 0 -255 1v-37q0 -150 132 -150q31 0 53 14t37.5 31t24.5 21q50 -2 74 -2q61 0 173 3t163 3 q39 0 39 -15q0 -13 -4 -28t-8.5 -25.5t-12 -26.5t-9.5 -21q-35 -62 -89.5 -108.5t-120 -72.5t-133 -38.5t-138.5 -12.5q-280 0 -409 129q-132 -119 -376 -119q-270 0 -427.5 143.5t-157.5 375.5zM484 515q0 -317 164 -317q38 0 68 13t49 31.5t32.5 49.5t20.5 56.5t10.5 63.5 t4 59.5t0.5 55.5q0 35 -0.5 56.5t-4 58.5t-9.5 61t-18.5 53t-30 46t-44.5 29t-62 12q-46 0 -80 -25t-52.5 -60t-30 -83t-14.5 -85t-3 -75zM1213 661q0 -45 50 -45h16q1 0 4 0.5t5 0.5q20 0 75 -3t83 -3q62 0 87 12t25 47v33q0 56 -51.5 111t-128.5 55q-72 0 -116.5 -59 t-48.5 -149z" />
<glyph unicode="&#x178;" horiz-adv-x="1524" d="M-33 1501q0 5 32 5h257q213 0 321 -3q12 -2 43.5 -89t63 -188.5t60.5 -203.5l45 -159q35 93 72.5 202t86 259.5t56.5 176.5q1 8 148 8h128q46 0 77 -2h173q6 0 17 0.5t16 0.5q10 -5 15 -25l-30 -59v1l-65 -125q-6 -12 -45.5 -84t-55 -101t-43 -82.5t-46.5 -95.5l-34 -65 q-55 -106 -187 -374q-2 -34 -2 -102v-413q-5 -16 -20 -16q-99 0 -287.5 -2t-285.5 -2q-22 28 -22 64q0 21 1 63t1 62v29q0 6 0.5 15.5t0.5 14.5l1 73q0 67 -10.5 134.5t-24 118t-41 118.5t-45.5 106.5t-53 111.5l-149 298q-6 12 -37 71t-52 98v-1q-80 122 -80 162zM332 1697 q0 314 22 339q36 -1 153 -1.5t180 -2.5q7 -2 7 -25q0 -2 -0.5 -6t-0.5 -5v-32q0 -19 1 -54t1 -44v-31q0 -109 1 -156q-10 -11 -81 -11q-3 0 -10 0.5t-11 0.5h-51q-31 0 -97.5 -3.5t-89.5 -3.5q-4 6 -11.5 17.5t-12.5 17.5zM898 1692q0 45 2 115.5t8 145t14 83.5 q56 -3 104 -3q29 0 83 1.5t87 1.5q61 0 64 -8q5 -157 7 -342q-3 -6 -3 -10l-7 1q-60 -6 -169.5 -8t-163.5 -6zM1253 1661l10 14l14 -1q0 -17 -14 -17q-6 0 -10 4z" />
<glyph unicode="&#x2c6;" horiz-adv-x="710" d="M-125 1419q0 2 1 6q64 99 181 253l22 35q25 41 72 49.5t269 12.5l177 3q4 -2 9 -6t11.5 -11t11.5 -13.5t12.5 -17.5t12.5 -17.5t13.5 -19.5t12.5 -18v1l62 -92q12 -18 47 -65l20 -28q5 -8 15.5 -22l16.5 -22t11 -17.5t5 -14.5q0 -10 -27 -10q-2 0 -5.5 0.5t-5.5 0.5h-62 q-53 0 -149.5 -3.5t-145.5 -3.5q-7 4 -13 8t-11.5 10.5t-9 11t-8.5 13.5t-7 13t-7.5 15.5t-7.5 14.5l-30 60q-16 -15 -39 -50t-41 -60t-29 -25h-278q-8 0 -24 -1.5t-25 -1.5q-57 0 -57 12z" />
<glyph unicode="&#x2dc;" horiz-adv-x="699" d="M-126 1434q0 172 77 256.5t219 84.5q53 0 186 -37v1q30 -11 87 -26l30 -6q4 0 14 -10l25 28q5 17 6 26l23 19l253 -7q3 -1 13 -15q-22 -344 -284 -344q-55 0 -142 21q-9 3 -59 19t-82.5 24t-56.5 9q-13 0 -21 -3.5t-13 -14t-5.5 -13.5t-4.5 -18q0 -12 -232 -12h-27 q-6 6 -6 18zM479 1745l9 10l7 -17z" />
<glyph unicode="&#x2000;" horiz-adv-x="1138" />
<glyph unicode="&#x2001;" horiz-adv-x="2276" />
<glyph unicode="&#x2002;" horiz-adv-x="1138" />
<glyph unicode="&#x2003;" horiz-adv-x="2276" />
<glyph unicode="&#x2004;" horiz-adv-x="758" />
<glyph unicode="&#x2005;" horiz-adv-x="569" />
<glyph unicode="&#x2006;" horiz-adv-x="379" />
<glyph unicode="&#x2007;" horiz-adv-x="379" />
<glyph unicode="&#x2008;" horiz-adv-x="284" />
<glyph unicode="&#x2009;" horiz-adv-x="455" />
<glyph unicode="&#x200a;" horiz-adv-x="126" />
<glyph unicode="&#x2010;" horiz-adv-x="859" d="M50 379q0 4 0.5 13t0.5 15v30q0 21 1 64.5t1 65.5v15q0 9 -1 31t-1 35q0 84 11 84h221q11 0 34.5 -0.5t36.5 -0.5q50 0 154 1.5t150 1.5h34q6 0 19 -0.5t19 -0.5h68q14 -15 14 -169v-14q0 -8 -0.5 -22t-0.5 -20v-115q-2 -18 -7 -18q-122 0 -365 -10t-366 -10 q-13 11 -23 24z" />
<glyph unicode="&#x2011;" horiz-adv-x="859" d="M50 379q0 4 0.5 13t0.5 15v30q0 21 1 64.5t1 65.5v15q0 9 -1 31t-1 35q0 84 11 84h221q11 0 34.5 -0.5t36.5 -0.5q50 0 154 1.5t150 1.5h34q6 0 19 -0.5t19 -0.5h68q14 -15 14 -169v-14q0 -8 -0.5 -22t-0.5 -20v-115q-2 -18 -7 -18q-122 0 -365 -10t-366 -10 q-13 11 -23 24z" />
<glyph unicode="&#x2012;" horiz-adv-x="859" d="M50 379q0 4 0.5 13t0.5 15v30q0 21 1 64.5t1 65.5v15q0 9 -1 31t-1 35q0 84 11 84h221q11 0 34.5 -0.5t36.5 -0.5q50 0 154 1.5t150 1.5h34q6 0 19 -0.5t19 -0.5h68q14 -15 14 -169v-14q0 -8 -0.5 -22t-0.5 -20v-115q-2 -18 -7 -18q-122 0 -365 -10t-366 -10 q-13 11 -23 24z" />
<glyph unicode="&#x2013;" horiz-adv-x="1054" d="M-15 415q0 24 1.5 67.5t1.5 68.5q0 13 -0.5 41.5t-0.5 42.5q0 102 13 102q69 0 216.5 -2t218.5 -2q295 0 492 5l45 1q6 0 27.5 1t31.5 1q34 0 43 -11q7 -189 7 -325q0 -27 -15 -27h-3l-202 -3q-139 0 -422 -8t-429 -8h-1q-13 10 -18.5 21t-5.5 35z" />
<glyph unicode="&#x2014;" horiz-adv-x="2046" d="M-24 734q4 0 16 -5h398q117 0 249.5 1t295 2.5t250.5 2.5l779 3q16 0 64.5 0.5t65.5 0.5q7 -4 7 -26q0 -36 -2 -95t-2 -92l-3 -139q-4 -4 -10 -6q-285 8 -749 8h-47q-367 0 -1142 -25l-74 -3q-44 -2 -68 -2q-2 3 -7.5 9t-8.5 11t-6 12q0 334 -6 343z" />
<glyph unicode="&#x2018;" horiz-adv-x="727" d="M38 917q14 34 29 74.5t30.5 83.5t27.5 73q39 112 148 380q13 6 168 6q240 0 240 -15q0 -34 -10.5 -85t-27.5 -116t-23 -94l-10 -48q-3 -15 -10.5 -51.5t-12 -58t-12 -54t-13 -52.5t-12 -40.5t-12.5 -30t-12 -9.5h-2q-112 -6 -275 -6h-102q-7 0 -23 0.5t-25 0.5h-40 q-10 15 -21 42z" />
<glyph unicode="&#x2019;" horiz-adv-x="725" d="M35 894q2 10 7 28.5t7 28.5l38 140q-4 1 -18 7q34 89 83.5 231t57.5 198q12 1 32 1h166q18 0 60 1t67 1q153 0 153 -11q-2 -4 -2 -11q-11 -25 -21 -55l-21.5 -64.5t-19.5 -57.5l-29 -81q-17 -46 -58 -164.5t-65 -179.5q8 6 11 10l-17 -28l6 18q-42 -33 -201 -33h-91 q-3 0 -7 -0.5t-6 -0.5h-68q-46 0 -54 8z" />
<glyph unicode="&#x201a;" horiz-adv-x="729" d="M34 -208q75 320 163 629h1l2 1h102q10 0 27.5 -0.5t26.5 -0.5h134q6 0 20.5 0.5t22.5 0.5q156 0 156 -11v-12q-132 -390 -223 -612q-32 -21 -212 -21h-113q-8 0 -20.5 -1t-19.5 -1h-34q-2 0 -14 4l-3 7q-2 2 -8 8.5t-8 8.5zM179 430l17 -9q0 -1 -0.5 -1.5l-0.5 -0.5z" />
<glyph unicode="&#x201c;" horiz-adv-x="1213" d="M-5 908l56 149q7 20 38.5 111t52.5 141l17 41q53 161 75 178h155q244 0 244 -1q0 -43 -30 -157q-13 -39 -35 -166.5t-43.5 -224.5t-38.5 -97h-99l-195 -6q-35 0 -94.5 -2.5t-84.5 -2.5q-3 7 -9 18.5t-9 18.5zM675 900q47 126 147 409q8 16 24 65h-1q40 122 73 161 q82 -6 290 -12q52 0 105 3q0 -11 2 -21l-61 -272q-22 -129 -48 -240.5t-45 -111.5q-125 -6 -312 -6h-44q-7 0 -21 0.5t-21 0.5h-71z" />
<glyph unicode="&#x201d;" horiz-adv-x="1216" d="M-5 901q12 43 50 214.5t70.5 291t50.5 122.5q62 2 103 2h18q3 0 10 -0.5t11 -0.5h159q178 0 178 3v-1q-69 -183 -163 -475l-26 -86q-29 -87 -36 -87l-6 3q-206 -11 -401 -12q-5 5 -17 25q0 1 -1 1zM678 889l46 184q11 40 28 128q0 4 2 8q2 11 7 32.5t7.5 34t7 33t8 34 t8 33t8.5 33t9.5 30.5t11 30t11.5 26.5t12 24.5q5 13 6 14q92 -3 175 -3h66q236 0 236 -15l-60 -177q-46 -138 -96 -273l-25 -74q-15 -43 -43 -109q-9 -16 -234 -16q-9 0 -25 0.5t-23 0.5h-125z" />
<glyph unicode="&#x201e;" horiz-adv-x="1217" d="M-8 -212l4 -4q11 44 33 128.5t32 124.5q0 3 1 11t1 12l31 136q52 217 66 228h71q48 1 111 1q299 0 305 -6q0 -1 -1 -2.5t-1 -2.5v2q-36 -112 -110 -328l-47 -130q-2 -6 -5 -12t-4 -12l1 1q-11 -25 -24.5 -68t-22.5 -67t-16 -24q-1 0 -5 2l-341 -15q-13 -1 -32 -1h-25 l-18 22q-1 -1 -1 -5zM584 -215q55 177 80 311q7 57 32.5 174t54.5 162l62 -2q37 -4 81 -4h15.5t15.5 0.5t15.5 0.5h15.5q23 -1 102 -2t128.5 -5t49.5 -13v-9q-21 -64 -150 -417l-73 -201q-18 -17 -161 -17q-6 0 -16 0.5t-14 0.5h-70q-24 0 -74 -1t-74 -1z" />
<glyph unicode="&#x2022;" horiz-adv-x="1143" d="M149 731l7 17l17 -4v-13l3 3q7 77 35 147.5t76 129.5t123.5 94.5t167.5 35.5q162 0 285 -115.5t123 -282.5q0 -168 -119 -282t-281 -114q-73 0 -137.5 22t-111 59t-82 86.5t-55.5 104t-27 112.5l-9 -10z" />
<glyph unicode="&#x2026;" horiz-adv-x="2075" d="M84 25q0 16 2 50t2 54v54q0 219 14 234q234 -2 354 -2h46q3 0 11 0.5t12 0.5q81 0 81 -9l3 -153q0 -3 0.5 -62.5t2.5 -89.5v-69q0 -2 0.5 -6.5t0.5 -6.5q0 -38 -3 -38h-4l-3 1q-295 -18 -494 -18l-23 36q-2 9 -2 24zM788 55q0 121 10 355q0 10 261 10q9 0 23 -0.5 t19 -0.5h105q89 0 104 -12v-250q0 -113 5 -165q-19 -13 -120.5 -19.5t-205.5 -6.5q-14 0 -35 0.5t-27 0.5h-26q-15 0 -45 -0.5t-44 -0.5l-23 32q-1 20 -1 57zM1486 -24q0 9 6 9t11 -4zM1492 70q0 161 11 339q0 13 148 13q31 0 95 -1.5t108 -1.5q12 -1 51 -2t69 -3.5t41 -6.5 v-153q0 -9 0.5 -27.5t0.5 -28.5v-15q0 -3 -0.5 -9t-0.5 -9v-30q0 -51 2 -147q-15 -22 -268 -22q-35 0 -81 1t-53 1h-8q-14 0 -44.5 -1t-46.5 -1q-12 14 -13 15h2l-11 19v6q-2 44 -2 64z" />
<glyph unicode="&#x202f;" horiz-adv-x="455" />
<glyph unicode="&#x2039;" horiz-adv-x="734" d="M-1 517q0 13 20.5 44t50.5 71.5t42 62.5l73 118q27 48 42 74t40 66.5t43 61t30 24.5q96 4 292 4h49q55 0 62 -7q-162 -369 -220 -512l14 -37l-2 -8q12 -30 26.5 -63.5t33.5 -74.5t30 -65l36 -82l29 -57q3 -5 11 -21.5t12 -24.5t11 -23t11 -24t8 -20.5t6 -20t2 -14.5 q0 -12 -12 -12h-44q-3 0 -7.5 0.5t-6.5 0.5q-65 0 -176.5 -5.5t-155.5 -6.5h-14q-14 9 -32.5 35.5t-31 48.5t-35.5 65q-18 34 -55.5 95t-45.5 74v-1q-5 7 -32 44.5t-47 67t-38.5 65.5t-18.5 57z" />
<glyph unicode="&#x203a;" horiz-adv-x="730" d="M0 1040q0 5 54 5h228q16 0 50 1.5t49 1.5q20 0 35 -9.5t30 -36.5l9 -17q17 -25 46.5 -73.5t37.5 -61.5h-1q74 -128 102 -169l28 -42q5 -7 13.5 -19.5t14.5 -21.5t13.5 -20.5t12.5 -20t9.5 -17t7 -15.5t2.5 -11q0 -17 -48 -90q-1 -1 -2.5 -2t-3 -3t-3.5 -7l-264 -423 l-8 -4q-1 0 -1 -1h-1l-147 -2q-79 -6 -190 -6q-72 0 -72 5q0 2 1 3l213 530l-8 20h6l-121 287q-9 22 -34 71t-41.5 88t-16.5 60zM177 544q0 2 2 6v9l18 3l4 -14l1 1l5 -15h-14q-16 1 -16 10zM417 -16l3 5l17 9v-19z" />
<glyph unicode="&#x205f;" horiz-adv-x="569" />
<glyph unicode="&#x20ac;" horiz-adv-x="1444" d="M4 482l12 46q35 134 51 150h64q0 3 0.5 16.5t0.5 18.5v74h-77q-41 0 -49 5l56 194q1 2 2 2l100 3q21 81 57 156t85.5 141.5t117 116.5t143.5 74v-1l58 19q20 5 46 9t52 7t52.5 4.5t49 2.5t40.5 1q160 0 283.5 -42.5t221.5 -152.5q19 -14 34 -32t23.5 -32t16 -37.5 t10.5 -35.5t8.5 -41t7.5 -39q-5 -3 -5 -5h-468q-8 6 -32.5 33.5t-51 39.5t-73.5 12q-34 0 -60.5 -11.5t-41 -25t-27 -40.5t-16.5 -40.5t-11 -42.5l-2 -35h197q31 0 93.5 0.5t92.5 0.5q9 -1 10 -11q-4 -10 -17.5 -61.5t-25.5 -94.5t-16 -43q-2 0 -4 1h-1q-128 -6 -189 -6 t-143 2v-103q96 7 143 7q2 0 7.5 -0.5t8.5 -0.5h52q35 0 87 2q12 -2 12 -11q0 -1 -1 -2l-55 -210q19 1 45 1l-21 -19l509 -8q13 -3 19 -18q-11 -92 -25 -144t-51 -100q-148 -228 -579 -245q-159 8 -213 26v-1l-61 22q-41 12 -104 54q-49 25 -90.5 63t-71 80t-55.5 95.5 t-43 99.5t-34 103h-79q-3 0 -14.5 -0.5t-18.5 -0.5q-40 0 -42 10zM694 464q5 -38 14 -72t25 -70.5t43 -58t62 -21.5q18 0 31.5 6.5t23 21.5t15 28.5t9.5 38.5t6 39.5t4 42.5l30 27l-28 1l4 17h-239zM1021 785q0 3 1 4l21 32v-38z" />
<glyph unicode="&#x2122;" horiz-adv-x="2073" d="M64 1412v40q0 56 16 67.5t87 11.5q28 0 82.5 -1.5t82.5 -1.5q49 0 145.5 3t146.5 3q82 0 149 -7q8 -2 13 -15.5t6.5 -42.5t2 -44.5t0.5 -51.5q0 -39 -11 -50q-9 0 -88 2t-122 4v-97q0 -4 -0.5 -12.5t-0.5 -13.5q0 -102 5 -289.5t6 -268.5q-11 -19 -146 -19h-57 q-3 0 -8 -0.5t-7 -0.5h-41q-4 0 -9.5 -0.5t-7.5 -0.5q-7 0 -12.5 6.5t-12.5 18t-11 16.5v34q0 115 5.5 324.5t6.5 268.5v24q-32 0 -42 -1h-9q-60 -3 -74 -3q-26 0 -41 0.5t-26.5 6t-16.5 8.5t-8 18.5t-3 25v38.5zM774 1309q7 7 11 15l15 6l2 -20l-14 -0.5zM918 652v91 q6 388 9 779q0 5 4 7q176 0 349 -3q13 -2 59 -157l33 -95q1 -5 28 -89h-1q34 -108 56 -185l170 519q2 13 32 13h42q26 0 66.5 -1t62.5 -1h59q91 0 94 6q0 -155 5 -323l3 -125q1 -40 1 -196.5t5 -241.5q-5 -14 -30 -14q-6 0 -17.5 -0.5t-16.5 -0.5h-97q-28 0 -46 2.5t-32 10 t-22 18t-12.5 30.5t-6 43t-1.5 60q0 19 1 58t1 60v45l-38 7l-18 -62q-5 -18 -18 -64.5t-21 -73t-18 -57.5t-17 -47q-19 -41 -118 -41q-19 0 -56.5 1.5t-55.5 1.5q-27 25 -44 67.5t-32 103.5l-13 52l-33 109l-38 -6q-5 -143 -5 -307q-10 -14 -94 -14h-27q-6 0 -16.5 -0.5 t-15.5 -0.5h-59q-37 0 -49 3.5t-12 17.5z" />
<glyph unicode="&#xe000;" horiz-adv-x="1200" d="M0 0v1200h1200v-1200h-1200z" />
<glyph unicode="&#xfb01;" horiz-adv-x="1865" d="M46 985v150h118v38q0 11 1 17q-3 15 -3 36q0 75 33.5 166t90.5 141q53 38 186 38q184 0 360 -3v-213h-34q-36 0 -52 1q-27 -10 -44 -28.5t-24 -44.5t-9 -45t-2 -48q2 -6 2 -10q0 -1 -1 -3v-2v-28q32 -6 74 -6h45q26 0 41 -1v-307h-163v-834q-38 0 -105.5 -0.5 t-103.5 -0.5q-93 0 -295 2v834h-114q0 27 -0.5 76t-0.5 75zM1172 1576l10 10v-10q112 0 314.5 1t303.5 1q0 -47 0.5 -137.5t0.5 -136.5h-616q0 96 -2 137q0 22 -0.5 67t-0.5 68h-10zM1180 25v45q0 197 6 327l3 214q0 58 4 277.5t4 278.5v30l78 1q3 0 9 -0.5t8 -0.5h29 q3 0 11.5 -0.5t13.5 -0.5q2 0 6.5 0.5t6.5 0.5h72q3 0 8 0.5t7 0.5l341 -4h2q2 1 3 1q3 0 3 -6l1 -95q1 -95 3 -201.5t3 -172t1 -106.5q0 -34 -0.5 -74.5t-0.5 -50.5v-53q0 -9 1.5 -26t1.5 -27v-31q0 -1 -1 -2v-2v-31q0 -1 0.5 -4t0.5 -5l1 -150q0 -41 -4 -98t-7 -59l-18 -2 h-364l-42 -4q-156 0 -190 4v7q0 2 -0.5 8.5t-0.5 10.5z" />
<glyph unicode="&#xfb02;" horiz-adv-x="2246" d="M46 985v150h118v38q0 11 1 17q-3 15 -3 36q0 75 33.5 166t90.5 141q53 38 186 38q184 0 360 -3v-213h-34q-36 0 -52 1q-27 -10 -44 -28.5t-24 -44.5t-9 -45t-2 -48q2 -6 2 -10q0 -1 -1 -3v-2v-28q32 -6 74 -6h45q26 0 41 -1v-307h-163v-834q-38 0 -105.5 -0.5 t-103.5 -0.5q-93 0 -295 2v834h-114q0 27 -0.5 76t-0.5 75zM1181 1570q45 0 128 0.5t126 0.5q116 0 360 -2v-1570h-612q0 262 -1 783.5t-1 787.5z" />
</font>
</defs>
</svg>
