<?xml version="1.0" standalone="no"?>
<!DOCTYPE svg PUBLIC "-//W3C//DTD SVG 1.1//EN" "http://www.w3.org/Graphics/SVG/1.1/DTD/svg11.dtd" >
<svg xmlns="http://www.w3.org/2000/svg">
<metadata></metadata>
<defs>
<font id="feliparegular" horiz-adv-x="410" >
<font-face units-per-em="1000" ascent="800" descent="-200" />
<missing-glyph horiz-adv-x="256" />
<glyph horiz-adv-x="1000" />
<glyph horiz-adv-x="1000" />
<glyph unicode="&#xd;" horiz-adv-x="1000" />
<glyph unicode=" "  horiz-adv-x="256" />
<glyph unicode="&#x09;" horiz-adv-x="256" />
<glyph unicode="&#xa0;" horiz-adv-x="256" />
<glyph unicode="!" horiz-adv-x="358" d="M40 49l72 69q31 -24 67 -81l-70 -64q-1 1 -26.5 31t-42.5 45zM119 182q93 379 111 637l84 52q-24 -172 -38 -257t-47 -204t-85 -238z" />
<glyph unicode="&#x22;" horiz-adv-x="370" d="M93 664q8 166 24 216l68 -19q-10 -39 -25 -79t-31 -78.5t-22 -54.5zM263 664q8 166 24 216l68 -19q-10 -39 -25 -79t-31 -78.5t-22 -54.5z" />
<glyph unicode="#" horiz-adv-x="630" d="M57 159l54 54h95l25 185h-174l54 54h128l18 133l59 54l-26 -187h119l18 133l58 54l-26 -187h151l-54 -54h-104l-26 -185h167l-54 -54h-120l-24 -177l-58 -54l31 231h-118l-24 -177l-59 -54l31 231h-141zM257 213h119l25 185h-118z" />
<glyph unicode="$" horiz-adv-x="351" d="M-15 33l51 46q43 -37 96 -37q31 0 67 14q0 53 -23.5 105t-51.5 85t-51.5 67.5t-23.5 56.5q0 97 126 126l17 110l47 32l-19 -135q11 1 32 1q69 0 69 -12q-25 -35 -75 -57q-4 30 -49 30q-27 0 -56.5 -10.5t-41.5 -24.5q0 -28 41.5 -85.5t82.5 -121.5t41 -108 q0 -34 -29.5 -62t-75.5 -44l-20 -126l-47 -32l21 147q-24 -2 -32 -2q-35 0 -65.5 12.5t-30.5 24.5z" />
<glyph unicode="%" horiz-adv-x="805" d="M39 576q0 40 19.5 86t61.5 82.5t95 36.5q63 0 92 -40t29 -104q0 -72 -61.5 -133t-134.5 -61q-42 0 -71.5 35.5t-29.5 97.5zM62 27q15 20 159 204t237.5 315t180.5 272l49 -50q-78 -129 -267.5 -365.5t-339.5 -396.5zM90 596q0 -111 74 -111q114 0 114 158q0 39 -20 74 t-60 35q-47 0 -77.5 -47.5t-30.5 -108.5zM441 143q0 40 19.5 86t61.5 82.5t95 36.5q63 0 92 -40t29 -104q0 -72 -61.5 -133t-134.5 -61q-42 0 -71.5 35.5t-29.5 97.5zM492 163q0 -111 74 -111q114 0 114 158q0 39 -20 74t-60 35q-47 0 -77.5 -47.5t-30.5 -108.5z" />
<glyph unicode="&#x26;" horiz-adv-x="698" d="M38 267q0 91 33 182t82.5 156t106.5 105.5t105 40.5q35 0 57.5 -20t22.5 -58q0 -73 -169 -176q144 13 267 13q5 0 134 -3l-61 -58q-26 2 -137 2q-3 -17 -16 -73t-20.5 -101.5t-7.5 -83.5q0 -125 81 -141q49 34 115.5 106.5t125.5 152.5l9 -6q-80 -112 -163 -202.5 t-138 -112.5q-25 0 -54.5 29.5t-39.5 90.5q-81 -97 -141 -118q-54 0 -93 23t-59.5 63.5t-30 87t-9.5 101.5zM109 299q0 -120 37 -176t107 -68q44 10 115 80v22q0 158 54 293q-153 0 -286 -29q-5 -2 -13 -6q-14 -59 -14 -116zM133 451q37 17 74 38l1 1h1q158 89 161 151 q0 24 -13.5 38t-39.5 14q-44 0 -98.5 -71.5t-85.5 -170.5z" />
<glyph unicode="'" horiz-adv-x="220" d="M119 664q8 166 24 216l68 -19q-10 -39 -25 -79t-31 -78.5t-22 -54.5z" />
<glyph unicode="(" horiz-adv-x="414" d="M114 363q17 139 90 266.5t174 186.5l11 -14q-73 -57 -132.5 -189t-74.5 -262q-16 -140 11.5 -252t107.5 -167l-13 -15q-98 59 -144.5 178t-29.5 268z" />
<glyph unicode=")" horiz-adv-x="385" d="M30 -69q73 57 132.5 189t74.5 262q16 140 -11.5 252t-107.5 167l13 15q98 -59 144.5 -178t29.5 -268q-17 -139 -90 -266.5t-174 -186.5z" />
<glyph unicode="*" horiz-adv-x="479" d="M87 529l118 63l5 18q-7 5 -46.5 35.5t-59.5 46.5l60 29l71 -82l11 6l10 99l60 25l-37 -125l7 -7q17 12 38.5 27t39.5 27.5t39 25.5l4 -71l-115 -40l-4 -14l92 -65l-50 -35l-63 69l-10 -4l-20 -102l-56 -16l41 120l-6 7l-118 -55z" />
<glyph unicode="+" horiz-adv-x="621" d="M48 292l54 54h184v183l54 54v-237h243l-54 -54h-189v-190l-54 -54v244h-238z" />
<glyph unicode="," horiz-adv-x="272" d="M60 66q8 10 23.5 29t24 28t12.5 10q21 -17 41 -44t26 -39q-2 -15 -28 -62t-70 -103l-15 11q53 71 53 87q-6 10 -33.5 38.5t-33.5 44.5z" />
<glyph unicode="-" horiz-adv-x="400" d="M45 293l28 53q141 -1 301 32l-31 -54q-142 -32 -298 -31z" />
<glyph unicode="." horiz-adv-x="270" d="M61 65l72 69q31 -24 67 -81l-70 -64q-1 1 -26.5 31t-42.5 45z" />
<glyph unicode="/" horiz-adv-x="436" d="M56 -29q20 52 92 229t129 334t98 304l49 -50q-51 -169 -181 -498t-146 -373z" />
<glyph unicode="0" horiz-adv-x="529" d="M42 185q0 136 80.5 235.5t194.5 99.5q84 0 125 -51t41 -131q0 -136 -88.5 -236t-206.5 -100q-74 0 -110 51.5t-36 131.5zM88 237q0 -84 43 -133t106 -51q65 1 110 43.5t62 97t17 114.5q0 67 -42 118t-108 51q-72 0 -130 -77t-58 -163z" />
<glyph unicode="1" horiz-adv-x="318" d="M64 396q25 27 73.5 65t81.5 58q15 0 15 -37q0 -26 -8 -74q-9 -60 -29.5 -180.5t-29.5 -182.5l-49 -61q-7 5 -7 22q0 83 28 240.5t34 206.5q-23 -12 -101 -69z" />
<glyph unicode="2" horiz-adv-x="440" d="M-14 15q21 11 34 21q50 40 80 65.5t73 68.5t76 85q49 62 49 119q0 87 -89 87q-67 0 -143 -40l-11 16q101 76 187 76q47 0 79 -25t32 -78q0 -84 -75 -178q-67 -85 -169 -163l2 -6h174q78 0 133 39l8 -15q-65 -55 -109 -88l-324 1z" />
<glyph unicode="3" horiz-adv-x="423" d="M-60 -75l36 63q94 -48 161 -48q69 0 97 16q45 47 45 110q0 48 -32.5 82.5t-93.5 37.5l-10 17l35 23q30 20 48 34t36 40t18 53q0 46 -26.5 79.5t-72.5 33.5q-49 0 -128 -45l-11 19q125 74 176 74q54 0 86.5 -31t32.5 -92q0 -42 -34 -88.5t-83 -79.5l1 -3q5 1 14 1 q48 0 76.5 -34t28.5 -75q0 -72 -39.5 -126t-91.5 -77.5t-103 -23.5q-101 0 -166 40z" />
<glyph unicode="4" horiz-adv-x="461" d="M-40 26q46 35 154.5 186.5t149.5 243.5q31 38 73 63q17 0 17 -31q0 -111 -64 -424q87 0 154 13l5 -15q-60 -35 -167 -43q-12 -73 -23 -131l-48 -60q-10 8 -7 34q1 17 20 155h-201q-24 0 -56 -5zM38 62l3 -3q36 3 94.5 2.5t95.5 0.5q56 331 62 379l-2 3 q-35 -87 -112 -201.5t-141 -180.5z" />
<glyph unicode="5" horiz-adv-x="463" d="M-12 -119l42 61q98 -47 176 -47q50 0 82.5 29t32.5 98q0 131 -137 131q-42 0 -101 -17l-8 12q19 200 50 312q11 14 31.5 31t34.5 23q24 0 65 0.5t61 0.5q30 0 108 -2q-28 -26 -60 -61q-72 -3 -108 -3q-55 0 -83 5l-6 -4q-34 -135 -50 -269l3 -5q63 38 118 38 q66 0 103.5 -40t37.5 -106q0 -73 -39.5 -127t-91.5 -77t-105 -23q-38 0 -82.5 11t-73.5 29z" />
<glyph unicode="6" horiz-adv-x="503" d="M47 197q0 72 30.5 150t82.5 144t130.5 108.5t165.5 42.5q32 0 55 -9l-58 -68q-21 4 -46 4q-144 0 -222.5 -94.5t-78.5 -243.5q0 -86 43 -134.5t113 -48.5q53 0 83 44.5t30 100.5q0 126 -120 126q-43 0 -99 -33l-7 17q31 29 75.5 51t81.5 22q59 0 89.5 -38.5t30.5 -99.5 q0 -80 -65.5 -163.5t-143.5 -83.5q-82 0 -126 58t-44 148z" />
<glyph unicode="7" horiz-adv-x="422" d="M21 427l38 81q124 -9 209 -9q66 0 121 4l8 -10q-76 -145 -141 -322t-86 -280l-80 -44l-9 10q105 361 249 569l-6 13q-30 -1 -114.5 -7.5t-131.5 -6.5q-38 0 -57 2z" />
<glyph unicode="8" horiz-adv-x="481" d="M37 147q0 60 42.5 110t122.5 108q-47 47 -67 76.5t-20 65.5q0 56 63.5 100.5t129.5 44.5q43 0 69 -23t26 -70q0 -27 -20 -60t-38.5 -52t-59.5 -60q65 -51 96.5 -94t31.5 -104q0 -72 -66.5 -131.5t-148.5 -59.5q-68 0 -114.5 42.5t-46.5 106.5zM105 164q0 -55 35 -89.5 t89 -34.5q62 0 97 35t35 94q0 43 -30.5 79.5t-102.5 93.5q-60 -45 -91.5 -85.5t-31.5 -92.5zM165 533q0 -46 94 -124q33 26 57.5 62.5t24.5 67.5q0 35 -25.5 54.5t-60.5 19.5q-36 0 -63 -21.5t-27 -58.5z" />
<glyph unicode="9" horiz-adv-x="495" d="M26 -117l57 73q78 0 136 24t91 66.5t48.5 95.5t15.5 117q0 104 -40 157t-102 53q-67 0 -102 -44.5t-35 -109.5q0 -54 34.5 -86t88.5 -32q50 0 106 32l7 -17q-29 -32 -72 -52.5t-80 -20.5q-68 0 -101.5 41t-33.5 106q0 94 70 167t165 73q74 0 114 -55.5t40 -155.5 q0 -58 -14.5 -117t-47 -116t-78.5 -101t-115 -71t-152 -27z" />
<glyph unicode=":" horiz-adv-x="305" d="M60 65l72 69q31 -24 67 -81l-70 -64q-1 1 -26.5 31t-42.5 45zM98 440l72 69q31 -24 67 -81l-70 -64q-1 1 -26.5 31t-42.5 45z" />
<glyph unicode=";" horiz-adv-x="312" d="M60 66q8 10 23.5 29t24 28t12.5 10q21 -17 41 -44t26 -39q-2 -15 -29 -62t-72 -104l-12 12q53 71 53 87q-6 10 -33.5 38.5t-33.5 44.5zM91 440l72 69q31 -24 67 -81l-70 -64q-1 1 -26.5 31t-42.5 45z" />
<glyph unicode="&#x3c;" horiz-adv-x="668" d="M101 251v10q213 140 431 220l39 -40q-184 -70 -369 -180v-18q189 -115 381 -202l-35 -30q-286 125 -447 240z" />
<glyph unicode="=" horiz-adv-x="632" d="M29 121l54 54h481l-54 -54h-481zM66 309l54 54h481l-54 -54h-481z" />
<glyph unicode="&#x3e;" horiz-adv-x="627" d="M55 41q192 87 381 202v18q-185 110 -369 180l39 40q218 -80 431 -220v-10q-161 -115 -447 -240z" />
<glyph unicode="?" horiz-adv-x="433" d="M70 49l72 69q31 -24 67 -81l-70 -64q-1 1 -26.5 31t-42.5 45zM71 260q2 40 32 79.5t70 73t80 69.5t68 83.5t28 100.5q0 46 -20 75.5t-54 29.5q-61 0 -113 -44l-3 15q72 72 140 72q59 0 91 -30t28 -92q-3 -47 -32 -94.5t-69 -86.5t-79.5 -76t-66.5 -74t-27 -68 q0 -58 17 -86q-55 -34 -69 -58l-4 1q-19 50 -17 110z" />
<glyph unicode="@" horiz-adv-x="892" d="M75 249q0 80 31.5 159.5t88.5 144.5t144.5 105t190.5 40q138 0 209 -74.5t71 -183.5q0 -77 -33.5 -147.5t-99 -117.5t-148.5 -47q-26 0 -49 4q2 20 14.5 90.5t12.5 110.5q-103 -157 -211 -201q-12 25 -12 102v5q0 44 15.5 92t48.5 90t77 59q43 14 157 14q20 0 20 -16 q-10 -48 -40.5 -152t-43.5 -155q119 18 178.5 81t59.5 146q0 127 -69.5 196.5t-207.5 69.5q-103 0 -182 -55.5t-118 -139.5t-39 -178q0 -157 80 -245.5t248 -88.5q136 0 276 129l9 -12q-136 -149 -309 -149q-94 0 -167 27.5t-116 74.5t-64.5 103.5t-21.5 118.5zM343 229 q41 1 80.5 38.5t65 89t32.5 100.5q-75 0 -113 -9q-34 -29 -49.5 -93t-15.5 -126z" />
<glyph unicode="A" horiz-adv-x="673" d="M-95 -8l47 64q36 -9 71 -9q48 0 71.5 19t68.5 95q23 38 134 249t159 286q-12 0 -48 1.5t-58 1.5q-30 0 -47.5 -1t-44 -6t-42.5 -14t-34.5 -27t-28.5 -44t-17 -65t-7 -90q-31 -21 -69 -54q0 193 127 297q74 60 205 60q3 0 165 -9q-29 -58 -29 -322q0 -118 2.5 -188 t9.5 -111.5t17.5 -55.5t28.5 -14q32 0 79 28l4 -8q-54 -48 -117 -86q-21 0 -36.5 7t-25.5 27t-16 38t-9.5 58t-4.5 69t-2 87h-182q-7 -13 -22.5 -44.5t-26 -51t-22.5 -35.5q-111 -152 -238 -152h-62zM307 324h150q-1 37 -1 103q0 56 1 118.5t1 65.5q-30 -54 -81.5 -154 t-69.5 -133z" />
<glyph unicode="B" horiz-adv-x="671" d="M-9 348q0 86 26 158.5t77.5 128.5t135 87.5t190.5 31.5q103 0 153 -35t50 -92q0 -45 -36 -102.5t-89 -93.5q71 -12 105 -47.5t34 -85.5q0 -68 -49 -137.5t-128 -115t-158 -45.5h-218l-4 8q87 18 115 169q18 94 35 203t25.5 159t21 95t28.5 67l1 1q-110 -2 -180 -77 t-70 -221zM193 65l4 -8h148q103 0 162.5 55.5t59.5 130.5q0 62 -45.5 106.5t-130.5 46.5h-22l29 37l11 13q17 -7 37 -7q41 0 70 42t29 95q0 54 -35.5 91.5t-108.5 37.5l-41 -2q-8 -16 -13 -43q-67 -406 -80 -474q-11 -60 -74 -121z" />
<glyph unicode="C" horiz-adv-x="522" d="M36 226q0 115 52.5 237t141.5 205t182 83q69 0 136 -20l-58 -75q-55 39 -113 52q-68 -1 -132 -61t-102.5 -154t-38.5 -190q0 -87 39.5 -158.5t113.5 -89.5q68 12 176 93l9 -8q-36 -45 -95 -90t-108 -58q-69 0 -116.5 36t-67 87t-19.5 111z" />
<glyph unicode="D" horiz-adv-x="732" d="M11 348q0 68 14.5 128t46 111.5t78.5 88t115.5 57.5t153.5 21q72 0 126.5 -21t85.5 -57.5t46 -82t15 -99.5q0 -79 -32 -165.5t-86 -160t-135.5 -121t-170.5 -47.5h-180l-4 8q87 18 115 169q18 95 35 203.5t25.5 159t21 95.5t28.5 67q-40 0 -79.5 -18t-74.5 -52t-57 -93.5 t-22 -134.5zM197 65l4 -8h138q81 0 148 59t102 145.5t35 174.5q0 57 -13.5 104t-42 85t-80 59t-122.5 21q-12 -25 -15 -45q-7 -41 -21.5 -133.5t-29 -179t-27.5 -161.5q-10 -58 -76 -121z" />
<glyph unicode="E" horiz-adv-x="625" d="M-8 398q0 114 41 195t140 138q35 20 149 20h157q119 0 152 1l-56 -59q-20 0 -106.5 0.5t-125.5 0.5q-7 -19 -10 -34l-34 -215h14q24 0 61.5 -2t56.5 -2q52 0 97 10l5 -4q-18 -26 -47.5 -46t-63.5 -20q-9 0 -50 1t-84 1q-19 -123 -34 -197q-13 -61 -75 -121l4 -8l237 -2 q83 -5 146 39l4 -8q-81 -62 -117 -87l-383 1l-4 8q87 18 115 169q18 94 34 197.5t24 154.5t19 96.5t25 68.5h-41q-100 0 -140.5 -54.5t-40.5 -187.5z" />
<glyph unicode="F" horiz-adv-x="606" d="M-9 -8l47 64q36 -9 76 -9q26 0 42 16.5t26 65.5q21 111 42 253t34.5 212.5t31.5 99.5h-41q-100 0 -140.5 -54.5t-40.5 -187.5l-69 -54q0 114 41 195t140 138q35 20 149 20h157q119 0 152 1l-56 -59q-20 0 -106.5 0.5t-125.5 0.5q-7 -19 -10 -34l-34 -215q29 1 71.5 -1.5 t60.5 -2.5q52 0 97 10l5 -4q-18 -26 -47.5 -46t-63.5 -20q-9 0 -50 1t-84 1q-6 -37 -16.5 -94t-12.5 -70q-20 -115 -77.5 -172.5t-143.5 -55.5z" />
<glyph unicode="G" horiz-adv-x="601" d="M35 260q0 80 32.5 167t87.5 161q58 77 130.5 124.5t141.5 47.5q101 0 167 -15l-51 -62q-69 28 -141 28q-83 0 -153.5 -68.5t-108 -168.5t-37.5 -200q0 -85 38.5 -144t115.5 -77q74 13 140 86q6 30 15.5 86.5t17 96t12.5 53.5q-112 0 -148 -17l-11 8l83 62q30 3 172 3 l1 -4q-14 -8 -28.5 -31t-19.5 -56q-42 -247 -65.5 -325.5t-90.5 -151.5l4 -8q47 -6 92 -6q49 0 88 5l4 -8q-46 -32 -67 -46l-230 -2l-4 8q63 40 102.5 105t68.5 196q-60 -90 -155 -117q-46 0 -82 15t-58.5 40t-37 60.5t-20 73t-5.5 81.5z" />
<glyph unicode="H" horiz-adv-x="801" d="M-9 398q0 114 41 195t140 138q33 19 148 19h94l1 -3q-10 -7 -24 -29.5t-22 -51.5q-18 -60 -39 -224l302 -1q21 132 30.5 179t26.5 74q-82 3 -146 -6l-1 2q31 37 70 49t122 12h54l1 -3q-38 -24 -49 -88q-5 -31 -33.5 -203.5t-44.5 -270.5q-10 -58 -76 -121l4 -8h61 q72 0 127 37l4 -8q-11 -9 -26 -21.5t-23 -19.5t-19 -16t-17 -13t-13 -8.5t-11.5 -6.5t-7.5 -2q-122 0 -188 1l-4 8q87 18 115 169q12 64 37 214l-303 2q-17 -112 -28 -174q-21 -115 -78.5 -172.5t-142.5 -55.5l-54 1l47 64q36 -9 76 -9q25 0 40 16t25 66q23 122 45 265 t34.5 209t27.5 91l-75 1q-97 1 -138 -55t-41 -188z" />
<glyph unicode="I" horiz-adv-x="441" d="M-5 398q0 114 41 195t140 138q35 20 145 20h90l1 -3q-38 -24 -49 -88q-7 -41 -21.5 -133.5t-29 -179t-27.5 -161.5q-14 -62 -76 -121l4 -8q76 -3 123 3.5t86 33.5l4 -8q-94 -79 -111 -86q-3 -1 -6 -1q-29 0 -101.5 0.5t-107.5 0.5l-4 8q87 18 115 169q18 98 35 203.5 t25 156.5t18.5 94t22.5 63h-67q-100 0 -140.5 -54.5t-40.5 -187.5z" />
<glyph unicode="J" horiz-adv-x="503" d="M-54 -120l58 39q21 -20 34 -30.5t39.5 -23.5t51.5 -13q52 0 90.5 44t50.5 130q17 120 34.5 231t38 231.5t26.5 154.5q6 33 21 51h-69q-100 0 -140.5 -54.5t-40.5 -187.5l-69 -54q0 114 41 195t140 138q35 20 144 20h90l1 -3q-15 -9 -29 -32t-19 -56q-45 -304 -111 -649 q-13 -66 -73 -129.5t-142 -83.5q-16 0 -33.5 4.5t-29 9t-31 16.5t-25.5 16t-26.5 19.5t-21.5 16.5z" />
<glyph unicode="K" horiz-adv-x="724" d="M-6 398q0 114 41 195t140 138q33 19 148 19h94l1 -3q-10 -7 -24 -29.5t-22 -51.5q-14 -46 -29 -135t-28 -186.5t-18 -125.5q-21 -113 -76 -170t-138 -57h-61l47 64q36 -9 76 -9q25 0 40 16t25 66q23 122 45 265t34.5 209.5t27.5 91.5h-80q-95 0 -134.5 -56.5 t-39.5 -186.5zM360 339q0 93 27.5 168.5t66 119.5t84 74t78.5 40.5t52 10.5q48 0 75 -36l-75 -50q-37 19 -71 19q-44 0 -78.5 -29.5t-53 -73.5t-27.5 -86.5t-9 -76.5q60 -126 142.5 -264t153.5 -233l-35 -35q-166 180 -330 452z" />
<glyph unicode="L" horiz-adv-x="419" d="M-50 8q87 18 115 169q17 90 28.5 164.5t19.5 133t12 85.5q12 74 85.5 133t154.5 59q55 0 100 -35l-59 -50q-61 46 -107 46q-75 0 -96 -124q-16 -91 -37 -232t-27 -171q-12 -60 -76 -121l4 -8q40 0 85.5 -21t86.5 -51t81.5 -60.5t84 -51.5t80.5 -21q52 0 96 45l9 -8 q-20 -38 -63 -61t-91 -23q-38 0 -83 21t-87 50.5t-83.5 59.5t-86 51t-81.5 21q-29 0 -61 -8z" />
<glyph unicode="M" horiz-adv-x="992" d="M-29 -7l47 64q36 -9 71 -9q34 0 57.5 8t39 27t23 33.5t18.5 44.5l191 513q6 16 14 23q-15 0 -50.5 1.5t-54.5 1.5q-30 0 -47.5 -1t-44 -6t-42.5 -14t-34.5 -27t-28.5 -44t-17 -65t-7 -90q-31 -21 -69 -54q0 193 127 297q74 60 205 60q31 0 164 -10q18 -190 18 -452v-112 q36 122 95.5 249.5t128 222t119.5 105.5q-37 -330 -37 -512q0 -103 12 -181q40 0 87 28l4 -8q-72 -63 -156 -102q-19 94 -19 238q0 218 36 389q-26 -22 -52.5 -58t-47 -69t-52.5 -100.5t-51 -109.5t-62.5 -140.5t-67.5 -152.5l-4 1q0 7 0.5 24.5t0.5 27.5q0 102 -10 330 t-10 264v12l-179 -467q-30 -78 -97 -129t-157 -51h-61z" />
<glyph unicode="N" horiz-adv-x="809" d="M-29 398q0 114 41 195t140 138q33 19 148 19h88q120 -327 193 -637q10 59 32 209.5t40 242t38 129.5q-82 3 -146 -6l-1 2q31 37 70 49t122 12h54l1 -3q-38 -24 -49 -88l-76 -442q-17 -99 -45.5 -150.5t-86.5 -77.5l-4 8l27 15q-41 125 -108 316t-111 326 q-16 -77 -33 -218.5t-29 -208.5q-21 -115 -78.5 -172.5t-142.5 -55.5l-54 1l47 64q36 -9 76 -9q25 0 40 16t25 66q24 125 44.5 265t32 204.5t25.5 86.5l-72 1q-97 1 -138 -55t-41 -188z" />
<glyph unicode="O" horiz-adv-x="582" d="M35 237q0 166 105.5 321.5t253.5 194.5q76 -22 113 -93t37 -171q0 -103 -45 -207.5t-125.5 -183t-175.5 -103.5q-81 21 -122 86t-41 156zM103 297q0 -87 36.5 -153t110.5 -93q97 29 161.5 141.5t64.5 236.5q0 94 -33 166t-101 102q-102 -31 -170.5 -150.5t-68.5 -249.5z " />
<glyph unicode="P" horiz-adv-x="653" d="M-9 348q0 86 26 158.5t77.5 128.5t135 87.5t190.5 31.5q111 0 169.5 -39t58.5 -104q0 -49 -30 -107.5t-89 -103.5t-128 -45q-15 0 -22 1l40 50q17 -7 37 -7q57 0 87 45.5t30 107.5q0 65 -48.5 109t-136.5 44h-19q-11 -23 -15 -45q-7 -41 -21.5 -133.5t-29 -179 t-27.5 -161.5q-10 -58 -76 -121l4 -8h61q72 0 127 37l4 -8q-11 -9 -26 -21.5t-23 -19.5t-19 -16t-17 -13t-13 -8.5t-11.5 -6.5t-7.5 -2q-122 0 -188 1l-4 8q87 18 115 169q17 94 35 203t26 159t20.5 95.5t29.5 67.5q-112 0 -184.5 -74.5t-72.5 -223.5z" />
<glyph unicode="Q" horiz-adv-x="649" d="M5 29l81 50q38 -15 75 -15q65 0 132.5 38.5t118 96t82.5 126.5t32 128q0 78 -33 146.5t-100 97.5q-256 0 -256 -269q0 -111 94 -150l-61 -55q-46 16 -73.5 59t-27.5 104q0 151 106 259t270 108q75 -22 111.5 -90.5t36.5 -157.5q0 -131 -102.5 -261t-239.5 -197 q20 -8 76.5 -37t98.5 -43t82 -14q45 0 115 34l10 -11q-105 -80 -192 -80q-38 0 -83 21t-81.5 45.5t-92.5 45.5t-114 21q-29 0 -61 -8z" />
<glyph unicode="R" horiz-adv-x="721" d="M-6 348q0 86 26 158.5t77.5 128.5t135 87.5t190.5 31.5q111 0 169.5 -39t58.5 -104q0 -74 -57.5 -135.5t-155.5 -84.5q155 -302 290 -470l-30 -34q-198 215 -355 496l33 35h39q76 0 118.5 40.5t42.5 93.5q0 65 -48.5 109t-136.5 44h-19q-11 -23 -15 -45 q-7 -41 -21.5 -133.5t-29 -179t-27.5 -161.5q-10 -58 -76 -121l4 -8h61q72 0 127 37l4 -8q-11 -9 -26 -21.5t-23 -19.5t-19 -16t-17 -13t-13 -8.5t-11.5 -6.5t-7.5 -2q-122 0 -188 1l-4 8q87 18 115 169q17 94 35 203t26 159t20.5 95.5t29.5 67.5q-112 0 -184.5 -74.5 t-72.5 -223.5z" />
<glyph unicode="S" horiz-adv-x="493" d="M-25 38l57 64q84 -53 151 -53q48 0 88.5 43t40.5 90q0 44 -31.5 99.5t-69.5 100t-69.5 98.5t-31.5 96q0 78 68 131t161 53q74 0 144 -26l-57 -66q-66 30 -134 30q-127 0 -127 -57q0 -37 32.5 -88.5t71.5 -96t71.5 -98t32.5 -92.5q0 -111 -72 -192.5t-174 -81.5 q-93 0 -152 46z" />
<glyph unicode="T" horiz-adv-x="574" d="M-6 398q0 114 41 195t140 138q10 6 26 10t30.5 6t40 3t39 1h43.5h40h157q103 0 132 1l-56 -59q-18 0 -97 0.5t-115 0.5q-7 -19 -10 -34q-66 -408 -78 -474q-14 -62 -76 -121l4 -8l54 -3q91 0 146 40l4 -8q-81 -62 -117 -87l-200 1l-4 8q87 18 115 169q18 94 34 197.5 t24 154.5t19 96.5t25 68.5h-111q-100 0 -140.5 -54.5t-40.5 -187.5z" />
<glyph unicode="U" horiz-adv-x="803" d="M-9 398q0 114 41 195t140 138q33 19 148 19h94l1 -3q-10 -7 -24 -29.5t-22 -51.5q-72 -392 -72 -479q0 -122 80 -122q34 0 71.5 35.5t66.5 86t50 100.5t28 84l64 323q7 18 27 31t34.5 17t39.5 9l1 -3q-38 -24 -49 -88q-6 -35 -23 -132.5t-31 -183t-24 -161.5 q-2 -20 -2 -27q0 -46 20.5 -68t49.5 -22q40 0 87 28l4 -8q-54 -48 -117 -86q-103 1 -103 141q0 43 12 115h-5q-35 -96 -116 -176.5t-143 -80.5q-95 0 -95 160q0 53 9 105q9 61 19.5 134.5l16 112t13 79.5t15 64.5t17.5 40.5h-80q-95 0 -134.5 -56.5t-39.5 -186.5z" />
<glyph unicode="V" horiz-adv-x="690" d="M-15 399q0 144 87 251t206 107q25 0 45.5 -11.5t35.5 -37t26 -55.5t18 -77t11.5 -90.5t7 -107t3 -116.5t0.5 -128q9 31 46 104q3 6 65 122.5t102 198.5t40 102q0 23 -36 23h-57l-1 4l73 45h39q57 0 57 -40q0 -13 -18 -54t-48 -98.5t-57 -107t-56.5 -102.5t-34.5 -62 q-81 -146 -125 -241l-67 -37q11 83 11 215q0 89 -6.5 170t-20.5 157t-41.5 121.5t-64.5 45.5q-27 0 -53.5 -11t-54.5 -36t-45.5 -77t-17.5 -123q-31 -21 -69 -54z" />
<glyph unicode="W" horiz-adv-x="978" d="M-15 399q0 144 87 251t206 107q143 0 143 -396q0 -102 -9 -208q35 62 69.5 139.5t85.5 202.5t77 186l117 72l6 -7q-73 -86 -73 -254q0 -94 26 -356q51 68 127.5 243.5t76.5 257.5q0 47 -32 47h-47l-1 4l76 45h39q57 0 57 -28v-4q-17 -86 -61.5 -198.5t-82 -187 t-91.5 -176t-61 -114.5l-36 -35q-30 154 -41.5 251t-11.5 241v55q-80 -195 -118 -275t-120 -234l-69 -37l7 57q15 118 15 270q0 382 -121 382q-27 0 -53.5 -11t-54.5 -36t-45.5 -77t-17.5 -123q-31 -21 -69 -54z" />
<glyph unicode="X" horiz-adv-x="748" d="M-20 0l47 65q36 -9 71 -9q53 0 85 23.5t87 99.5q26 37 135 208l-6 26q-12 54 -19 83.5t-23 83t-36 88t-44 50.5q-72 0 -106.5 -50.5t-34.5 -159.5l-69 -54q0 127 64 215t190 88q19 0 35.5 -10.5t29.5 -33t23 -43.5t19.5 -56.5t14.5 -56.5t13 -59l5 -23q3 4 10.5 19 t12.5 22q30 53 44.5 77.5t42 63t48.5 55.5t50.5 31t62.5 14q52 0 89 -20l-49 -61q-54 38 -83 38q-39 0 -74 -59q-26 -44 -137 -248l6 -28q21 -105 66 -215t80 -110q52 0 137 70l9 -8q-33 -39 -80.5 -75t-95.5 -49q-90 0 -177 317q-38 -56 -66 -93t-68.5 -82.5t-84 -75.5 t-89.5 -45q-39 -13 -74 -13h-61z" />
<glyph unicode="Y" horiz-adv-x="674" d="M-15 -101l58 42q65 -60 127 -60q48 0 94.5 59.5t127.5 213.5q-7 25 -30 117t-36.5 142.5t-34.5 122.5t-39.5 116.5t-35.5 65.5q-67 0 -99 -50.5t-32 -159.5l-69 -54q0 118 63 210.5t151 92.5q23 0 43.5 -18.5t38.5 -55.5t32.5 -76.5t29.5 -98.5t25 -102.5t23 -106.5 q4 -15 5.5 -22.5t4 -19.5t4.5 -21q8 14 73 128t105.5 193t40.5 99q0 15 -18.5 21.5t-73.5 6.5l-1 4l75 45h39q55 0 55 -40q0 -25 -43.5 -111.5t-108.5 -201t-67 -118.5q-121 -227 -190 -313t-170 -132q-75 10 -167 82z" />
<glyph unicode="Z" horiz-adv-x="537" d="M-25 51q133 141 207 221.5t166.5 192t153.5 201.5q-26 -3 -46 -3q-55 0 -125 25.5t-118 25.5q-22 0 -43 -6q-50 -46 -50 -169l-69 -54q0 52 11.5 98t36.5 87t71 65t108 24q50 0 117 -20.5t104 -20.5q63 0 145 37l7 -7q-56 -51 -135 -152t-144 -192.5t-141.5 -180.5 t-132.5 -125l4 -8q54 0 113 -27.5t102 -60t101 -60t110 -27.5q51 0 85 54l12 -3q-13 -47 -60.5 -77.5t-103.5 -30.5q-44 0 -102.5 30t-106.5 66.5t-107.5 66.5t-104.5 30q-29 0 -61 -8z" />
<glyph unicode="[" horiz-adv-x="420" d="M113 -88q43 372 122 908h207l-18 -23h-128q-82 -549 -120 -861h147l-19 -24h-191z" />
<glyph unicode="\" horiz-adv-x="489" d="M65 788l49 50q137 -496 277 -867l-41 -54q-121 331 -285 871z" />
<glyph unicode="]" horiz-adv-x="414" d="M-6 -88l19 24h133q60 422 115 861h-144l18 23h192q-50 -395 -126 -908h-207z" />
<glyph unicode="^" horiz-adv-x="672" d="M54 318q136 188 293 379q13 -18 47.5 -66t54 -76t48 -69.5t51.5 -78t43 -71.5l-45 -44q-16 23 -226 322q-85 -120 -254 -310z" />
<glyph unicode="_" horiz-adv-x="636" d="M61 -55l54 54h489l-54 -54h-489z" />
<glyph unicode="`" d="M85 758q49 2 86 -20q32 -19 58.5 -50t71.5 -94l-15 -18q-75 87 -123 116q-10 6 -25 12.5t-25.5 10.5t-12.5 4z" />
<glyph unicode="a" d="M3 98q0 104 25 194q28 102 80 155t146 53q72 0 97 -5l-6 -29q-4 -21 -13 -71t-12 -67q-25 -168 -60 -274l3 -2q87 63 210 234l10 -7q-72 -105 -145 -186.5t-122 -102.5q-1 12 -1 38q0 45 5 82.5t16.5 90.5t17.5 87l-3 2q-62 -105 -114 -174.5t-121 -130.5q-13 45 -13 113 zM65 125q0 -40 6 -58q5 0 15.5 12t24.5 33.5t15 22.5q38 47 95.5 155.5t57.5 152.5q-21 6 -62 6q-80 0 -104 -31t-37 -136q-11 -91 -11 -157z" />
<glyph unicode="b" horiz-adv-x="384" d="M17 51q5 44 73 555q12 91 82 168t151 77q29 0 49 -5l-41 -54q-28 6 -63 6q-23 0 -41.5 -10t-31 -29.5t-21.5 -39t-15 -50t-9.5 -49.5t-7 -49.5t-4.5 -40.5q-5 -32 -18.5 -157.5t-16.5 -143.5q135 248 221 288q9 -7 16 -33t7 -50q0 -60 -10 -119t-33.5 -118.5t-59 -104.5 t-91.5 -73t-125 -28q-11 20 -11 60zM68 57q0 -15 49 -15q75 0 122.5 85t47.5 204q0 51 -15 89q-69 -70 -131.5 -167t-72.5 -196z" />
<glyph unicode="c" horiz-adv-x="311" d="M6 184q0 72 27 137t65.5 105.5t76 64t61.5 23.5q49 0 78 -27l-44 -52q-23 39 -60 39q-55 0 -95.5 -86t-40.5 -191q0 -118 66 -154q103 74 237 268l10 -6q-75 -112 -153.5 -202.5t-131.5 -112.5q-12 0 -26 7t-31 25.5t-28 60.5t-11 101z" />
<glyph unicode="d" horiz-adv-x="420" d="M3 94q0 86 24 184q34 112 86 167.5t138 55.5q21 0 34 -5l19 110q16 92 84.5 168.5t148.5 76.5q29 0 49 -5l-41 -54q-28 6 -63 6q-27 0 -48 -15t-33 -35t-21.5 -54t-13 -56.5t-8 -60t-6.5 -47.5q-7 -42 -20.5 -154.5t-27.5 -191.5t-35 -130l3 -2q84 61 210 234l10 -7 q-72 -105 -145 -186.5t-122 -102.5q-2 24 -2 38q0 47 14.5 127t17.5 106q2 18 7 27l-3 2q-4 -6 -42 -68t-59 -93t-60.5 -74.5t-74.5 -62.5q-20 43 -20 102zM70 137q0 -45 10 -75q134 142 198 378q-22 10 -64 10q-68 0 -94.5 -35.5t-38.5 -144.5q-11 -99 -11 -133z" />
<glyph unicode="e" horiz-adv-x="298" d="M5 180q0 79 38.5 158t94 127.5t105.5 48.5q51 0 51 -40q0 -97 -221 -244q-1 -11 -1 -28q0 -113 68 -163q99 76 222 247l10 -7q-72 -105 -145 -186.5t-122 -102.5q-50 12 -75 66.5t-25 123.5zM78 254q62 40 110 97t48 93q0 30 -27 30q-50 0 -83 -62t-48 -158z" />
<glyph unicode="f" horiz-adv-x="224" d="M-190 -209l38 55q30 -8 61 -8q95 0 115 154q3 24 62 458l-92 -4q27 46 28 46q31 1 71 3q6 50 10 75q17 126 83 203.5t151 77.5q42 0 69 -15l-41 -54q-36 16 -83 16q-27 0 -48 -15t-33 -35t-21.5 -54t-13 -56.5t-8 -60t-6.5 -47.5q-4 -19 -5 -32l132 7q-11 -29 -12 -29 q-31 -15 -126 -22q-29 -244 -48 -379q-21 -144 -82.5 -217t-156.5 -73q-22 0 -44 6z" />
<glyph unicode="g" horiz-adv-x="417" d="M-26 -206l39 61q43 -13 81 -13q71 0 101 28.5t42 121.5q16 126 36 269q2 18 7 27l-3 2q-3 -5 -23 -39t-29 -48.5t-29.5 -46.5t-35.5 -51t-36 -43.5t-41.5 -41.5t-41.5 -28q-20 43 -20 102q0 84 24 184q54 223 224 223h91q-7 -51 -24 -192t-30 -234q-19 -139 -82.5 -214.5 t-172.5 -75.5q-41 0 -77 9zM88 137q0 -45 10 -75q134 142 198 378q-22 10 -64 10q-68 0 -94.5 -35.5t-38.5 -144.5q-11 -99 -11 -133z" />
<glyph unicode="h" horiz-adv-x="445" d="M23 54q0 7 2 19l73 533q12 86 82.5 165.5t150.5 79.5q29 0 49 -5l-41 -54q-28 6 -63 6q-23 0 -41.5 -9.5t-31.5 -30t-21.5 -39t-15 -50t-9.5 -49t-6.5 -50.5t-4.5 -40l-45 -342q157 282 250 326q17 -13 17 -81q0 -74 -34 -214t-38 -165l2 -2q87 63 210 234l10 -7 q-72 -105 -145 -186.5t-122 -102.5q-2 24 -2 38q0 63 23 193.5t23 201.5q-63 -56 -133.5 -173.5t-115.5 -259.5q-23 26 -23 64z" />
<glyph unicode="i" horiz-adv-x="221" d="M19 402l2 11q7 10 19.5 25.5t47.5 43.5t66 33q-6 -39 -21 -151.5t-28.5 -186.5t-30.5 -122l2 -3q86 61 210 234l11 -7q-72 -105 -145 -186.5t-123 -102.5q-2 24 -2 38q0 52 8 109.5t26 155t28 160.5zM111 598q10 27 12 89l53 48q1 -8 1 -25q0 -41 -14.5 -67t-51.5 -45z " />
<glyph unicode="j" horiz-adv-x="199" d="M-203 -211l41 64q28 -6 63 -6q21 0 38 6.5t29 15.5t22 28t15.5 33.5t11 43.5t8 47t7.5 55t8 57l47 320l-70 -51l2 11q7 10 19.5 25.5t47.5 43.5t66 33l-47 -349q-25 -186 -95.5 -284t-163.5 -98q-29 0 -49 5zM115 595q10 27 12 89l53 48q1 -8 1 -25q0 -41 -14.5 -67 t-51.5 -45z" />
<glyph unicode="k" horiz-adv-x="455" d="M20 58q0 10 1 15l73 533q12 86 82.5 165.5t150.5 79.5q29 0 49 -5l-41 -54q-28 6 -63 6q-23 0 -42 -10t-32 -31t-21.5 -40.5t-15 -51.5t-9 -50.5t-6.5 -49.5v-3t-0.5 -3t-0.5 -3l-27 -219q38 77 95 127t117 50q48 0 48 -50q0 -109 -148 -185q14 -34 38 -115.5t30 -111.5 q38 21 106.5 92.5t118.5 141.5l10 -7q-72 -105 -145 -186.5t-122 -102.5q-24 41 -66.5 144t-54.5 129q78 32 127.5 77.5t49.5 96.5q0 37 -30 37q-35 0 -63 -26t-66 -92q-21 -36 -38 -85t-26 -87t-22.5 -100.5t-21.5 -92.5q-35 23 -35 67z" />
<glyph unicode="l" horiz-adv-x="226" d="M18 28q0 50 13.5 149t36 237t30.5 192q12 85 82 165t151 80q29 0 49 -5l-41 -54q-28 6 -63 6q-27 0 -48 -15t-33 -35t-21.5 -54t-13 -56.5t-8 -60t-6.5 -47.5q-7 -43 -20 -154.5t-27 -191t-35 -130.5l3 -2q96 69 228 259l10 -6q-75 -112 -153.5 -202.5t-131.5 -112.5 q-2 24 -2 38z" />
<glyph unicode="m" horiz-adv-x="651" d="M19 402l2 11q7 10 19.5 25.5t47.5 43.5t66 33q-7 -42 -21 -155.5t-24 -167.5l3 -2q52 110 117 203.5t118 120.5q18 -14 18 -65q0 -48 -22 -140.5t-25 -116.5l3 -2q52 110 117 203.5t118 120.5q17 -14 17 -70q0 -73 -33.5 -215.5t-38.5 -174.5l3 -2q89 64 210 234l10 -7 q-69 -102 -142.5 -185t-124.5 -104q-2 24 -2 38q0 64 22.5 193t22.5 197l-4 2q-58 -57 -125 -174t-107 -256q-22 20 -22 50q0 9 1 14q3 27 25.5 156.5t22.5 207.5l-4 2q-58 -57 -125 -174t-107 -256q-23 26 -23 64q0 28 8 90t16.5 113.5t19.5 119t12 71.5l-3 2z" />
<glyph unicode="n" horiz-adv-x="456" d="M20 402l2 11q7 10 19.5 25.5t47.5 43.5t66 33q-7 -42 -21 -155.5t-24 -167.5l3 -2q59 115 125.5 206.5t122.5 117.5q17 -14 17 -69q0 -75 -35 -228.5t-37 -162.5l3 -2q89 64 210 234l10 -7q-69 -102 -142.5 -185t-124.5 -104q-2 24 -2 38q0 64 22.5 193t22.5 197l-4 2 q-60 -54 -130 -171.5t-115 -258.5q-23 26 -23 64q0 16 14 114.5t28 189.5l14 90l-3 2z" />
<glyph unicode="o" horiz-adv-x="367" d="M5 178q0 108 71.5 207.5t166.5 126.5q36 -17 59 -76t23 -111q0 -103 -72 -205t-166 -129q-38 17 -60 74t-22 113zM71 227q0 -39 2 -63.5t12 -61t29 -71.5q145 62 145 245q0 39 -2 63.5t-12 61t-29 71.5q-77 -35 -111 -95.5t-34 -149.5z" />
<glyph unicode="p" horiz-adv-x="386" d="M-120 -249q72 39 91 74t38 148q9 55 31.5 221t39.5 258l-73 -47l2 11q7 10 19.5 25.5t47.5 43.5t66 33q-12 -57 -22 -126t-15 -98l3 -1q85 156 197 225q18 -29 24.5 -63t6.5 -96q0 -69 -26 -152t-72.5 -145t-96.5 -62q-34 0 -64 29q-12 -42 -23 -91.5t-18 -71t-20 -38.5 l3 -5q2 1 77 48l6 -15q-36 -21 -105 -57.5t-108 -58.5zM80 70q8 -6 30 -11t33 -5q69 0 95 59t26 219q0 74 -9 97q-32 -13 -85.5 -81t-72.5 -152q-14 -63 -17 -126z" />
<glyph unicode="q" horiz-adv-x="388" d="M3 94q0 84 24 184q54 223 224 223q10 0 30 -3.5t30 -3.5q31 0 55 24l6 -13q-28 -23 -32 -59q-4 -29 -18 -123.5t-21 -141.5q-2 -13 -9.5 -52t-14.5 -79.5t-11 -73.5q-2 -9 -6.5 -37.5t-7.5 -39t-13 -31t-26 -39.5l5 -5q15 8 79 48l8 -17l-212 -123l-11 21q31 13 52.5 28 t33 27t19 34t9.5 35t5.5 45t5.5 49q14 94 29 179t19 111q2 18 7 27l-3 2q-3 -5 -23 -39t-29 -48.5t-29.5 -46.5t-35.5 -51t-36 -43.5t-41.5 -41.5t-41.5 -28q-20 43 -20 102zM70 137q0 -45 10 -75q134 142 198 378q-22 10 -64 10q-68 0 -94.5 -35.5t-38.5 -144.5 q-11 -99 -11 -133z" />
<glyph unicode="r" horiz-adv-x="295" d="M17 402l2 11q7 10 19.5 25.5t47.5 43.5t66 33q-7 -43 -19.5 -137.5t-19.5 -139.5h7q51 136 100.5 206.5t107.5 70.5q21 0 35 -10l-32 -55q-14 9 -36 9q-48 0 -105 -109.5t-108 -312.5l-55 -47q-2 24 -2 38q0 52 8 109.5t26 155t28 160.5z" />
<glyph unicode="s" horiz-adv-x="303" d="M-34 19l50 46q35 -31 84 -31q30 0 59.5 25.5t29.5 54.5q0 51 -77 135q-23 25 -35 39t-25.5 39t-13.5 44q0 50 74 108q44 35 101 35q49 0 78 -27l-47 -55q-12 42 -70 42q-32 0 -52 -18.5t-20 -43.5q0 -11 1.5 -20.5t6 -19t7.5 -15.5t10.5 -16.5t11 -14t13.5 -15t13 -14.5 q38 -44 55.5 -76.5t17.5 -67.5q0 -52 -66.5 -106.5t-128.5 -54.5q-53 0 -77 27z" />
<glyph unicode="t" horiz-adv-x="227" d="M0 456l27 42q27 5 58 8l7 47l63 36l-11 -80q50 2 73 2q39 0 74 -4l-53 -48q-40 2 -66 2h-36l-5 -39q-35 -288 -68 -368l3 -2q96 69 228 259l10 -6q-75 -112 -153.5 -202.5t-131.5 -112.5q-2 24 -2 38q0 19 2 40t7.5 59t11 73.5t18 112.5t23.5 147q-29 0 -79 -4z" />
<glyph unicode="u" horiz-adv-x="459" d="M19 402l2 11q7 10 19.5 25.5t47.5 43.5t66 33q-54 -276 -54 -408q0 -16 5 -41q49 48 107 140.5t102 207.5q11 30 18.5 45.5t21 32t29.5 22.5l-71 -406q-5 -27 -15 -54l3 -2q96 69 228 259l10 -6q-75 -112 -153.5 -202.5t-131.5 -112.5q-2 24 -2 38q0 31 5.5 74t11 73.5 t14.5 77t12 60.5l-3 2q-57 -115 -120.5 -206.5t-117.5 -117.5q-11 37 -11 89q0 58 15 165l27 204z" />
<glyph unicode="v" horiz-adv-x="341" d="M-21 401l2 11q7 10 19.5 25.5t47.5 43.5t66 33q19 -17 19 -55q0 -43 -1 -130t-1 -132q0 -89 2 -135q37 37 80 133t63 182q0 11 -6 58t-6 58q0 9 7.5 17t17.5 9q27 -7 38 -31q-31 -170 -94.5 -304.5t-137.5 -189.5q-13 45 -19.5 100.5t-7.5 93t-1 109.5q0 95 -3 165z" />
<glyph unicode="w" horiz-adv-x="550" d="M-21 401l2 11q7 10 19.5 25.5t47.5 43.5t66 33q19 -17 19 -55q0 -43 -1 -130t-1 -132q0 -89 2 -135q36 36 79 132t68 187q0 6 -10 82l52 55q23 -2 23 -74v-53q0 -32 -1 -96.5t-1 -97.5q0 -89 2 -135q37 37 80 133t63 182q0 11 -6 58t-6 58q0 9 7.5 17t17.5 9 q27 -7 38 -31q-31 -170 -94.5 -304.5t-137.5 -189.5q-10 33 -15.5 74.5t-7 69.5t-3 81.5t-2.5 77.5l-1 20q-31 -111 -80 -196.5t-103 -126.5q-30 106 -30 333q0 117 -1 135z" />
<glyph unicode="x" horiz-adv-x="364" d="M-69 -1l1 1v-1l4 5l12 15t15 19q38 0 60 13t39 39q49 75 82 131q-35 98 -81 240q-25 -12 -82 -56l-5 3q25 38 64.5 71t70.5 37q42 -100 75 -221q12 22 33 64t32 60t31.5 41.5t47 32.5t62.5 9h1l-25 -39q-20 2 -31 2q-18 0 -25.5 -4t-19.5 -21q-7 -10 -25 -43.5t-41 -76.5 t-30 -57q48 -156 70 -222q31 14 88 59l5 -3q-25 -38 -64.5 -71t-70.5 -37q-39 93 -70 206q-46 -74 -69 -107t-33 -46t-35.5 -30t-54.5 -17q-16 0 -31 4z" />
<glyph unicode="y" horiz-adv-x="422" d="M-15 -206l39 61q43 -13 81 -13q71 0 101 28.5t42 121.5q19 156 46 321l-3 2q-57 -115 -120.5 -206.5t-117.5 -117.5q-10 34 -10 86t3 81.5t13 102.5l25 188l-65 -47l2 11q7 10 19.5 25.5t47.5 43.5t66 33q-58 -299 -53 -439l4 -10q49 47 106.5 140t101.5 208q1 2 8 19 t9 21.5t9 17.5t12.5 19t14 13t17.5 10q-2 -15 -6.5 -35.5t-5.5 -27.5q-10 -51 -18.5 -106.5t-19 -141.5t-16.5 -128q-19 -139 -82.5 -214.5t-172.5 -75.5q-41 0 -77 9z" />
<glyph unicode="z" horiz-adv-x="336" d="M-58 0q153 213 300 430q3 4 3 8q0 2 -10.5 5.5t-29.5 6t-38 2.5q-79 0 -159 -51l-6 10q24 34 62.5 64.5t74.5 30.5q12 0 53 -4.5t66 -4.5q61 0 72 17l6 -3q-130 -176 -307 -438q-6 -10 -18 -22l3 -3q18 8 75 8q25 0 76 -8t81 -8q23 0 62 25l5 -6q-25 -19 -42 -35 t-21.5 -22t-11.5 -9t-20 -3q-28 0 -89 9t-83 9q-53 0 -94 -17z" />
<glyph unicode="{" horiz-adv-x="373" d="M95 352l16 27q11 0 19 3q28 10 43.5 39.5t20 68.5t7 84.5t10 88.5t23.5 78t53 56.5t93 21.5l7 -13q-52 -7 -79.5 -49t-35 -100t-14.5 -117t-31.5 -107.5t-73.5 -63.5q-8 -3 -31 -3l-2 -3q21 0 33 -4q64 -23 72 -88q5 -44 -21 -157.5t-22 -154.5q5 -58 62 -61l-10 -14 q-101 15 -111 98q-5 45 25 154.5t26 147.5q-7 63 -66 67z" />
<glyph unicode="|" horiz-adv-x="257" d="M115 854l58 42l-12 -1065l-44 -44z" />
<glyph unicode="}" horiz-adv-x="362" d="M37 -117l4 15q35 2 55 28t26.5 66.5t9 89.5t8 97.5t18.5 89t45.5 66.5t84.5 28l3 3h-7q-81 0 -90 92q-4 41 9 137t9 133q-8 70 -66 78l8 13q110 0 120 -97q2 -22 -16 -126.5t-13 -150.5q3 -36 18 -51.5t51 -17.5l-11 -24q-43 -1 -67 -26t-30.5 -64t-8 -86.5t-5 -96.5 t-16 -90.5t-47.5 -70.5t-92 -35z" />
<glyph unicode="~" horiz-adv-x="750" d="M80 255q115 91 194 91q31 0 125.5 -30.5t163.5 -30.5q42 0 100 28l13 -12q-54 -67 -138 -67q-62 0 -148 29t-126 29q-100 0 -175 -55z" />
<glyph unicode="&#xa1;" horiz-adv-x="347" d="M35 -319q24 178 37.5 259.5t46.5 203t84 237.5l25 -10q-93 -379 -111 -637zM168 511l72 69q31 -24 67 -81l-70 -64q-1 1 -26.5 31t-42.5 45z" />
<glyph unicode="&#xa2;" horiz-adv-x="343" d="M15 198q0 89 51 177t133 122l22 142l39 -12l-19 -117q17 4 40 4q18 0 35 -4t25 -8l8 -3q-4 -6 -20 -25t-23 -31q-36 19 -72 21l-60 -387q64 11 126 37l6 -13q-62 -35 -137 -53l-21 -134l-38 18l18 113q-56 6 -84.5 48t-28.5 105zM72 270q0 -56 17.5 -106t45.5 -72l58 368 q-62 -13 -91.5 -66.5t-29.5 -123.5z" />
<glyph unicode="&#xa3;" horiz-adv-x="528" d="M-50 -24q0 25 65 67q44 28 77.5 71t40.5 94l20 152h-4q-20 0 -60.5 0.5t-59.5 0.5l40 49h91l19 137q9 68 75 128.5t139 60.5q61 0 108 -46l-54 -38q-64 48 -110 48q-75 0 -93 -126l-23 -162h170l-41 -32q-59 -16 -136 -19l-14 -96q-12 -84 -35.5 -124t-80.5 -87 q135 -33 245 -33q64 0 92 20.5t28 62.5q0 34 -17 57l65 32q19 -19 19 -54q0 -57 -82 -116.5t-155 -59.5q-45 0 -126.5 18t-118.5 18q-47 0 -78 -31q-6 2 -6 8z" />
<glyph unicode="&#xa4;" horiz-adv-x="824" d="M185 89q50 50 75 73q-45 62 -45 130q0 76 45 129q-8 8 -34.5 33.5t-40.5 40.5q7 6 20 19.5t19 20.5l75 -75q60 45 131 45q76 0 130 -45q11 12 23.5 24.5t28 27.5t23.5 23q7 -7 20 -20.5t19 -19.5q-14 -15 -41.5 -41.5t-33.5 -32.5q45 -59 45 -129q0 -23 -10 -54.5 t-20.5 -52.5t-14.5 -23q42 -39 75 -73q-26 -26 -39 -40l-75 75q-54 -46 -130 -46q-77 0 -131 46l-75 -75q-13 14 -39 40zM271 293q0 -65 46.5 -112t112.5 -47q65 0 111.5 47t46.5 112q0 67 -48 111.5t-109 44.5q-68 0 -114 -46.5t-46 -109.5z" />
<glyph unicode="&#xa5;" horiz-adv-x="587" d="M-15 454q3 81 27.5 147.5t78.5 111t129 44.5q39 0 70.5 -87t36.5 -199h8q50 124 123.5 194.5t164.5 70.5q32 0 59 -13l-53 -42q-38 19 -63 19q-43 0 -88 -51.5t-74 -116t-41 -121.5h151l-31 -36q-68 -10 -127 -13l-17 -85h160l-21 -31q-86 -21 -147 -21 q-11 -58 -29 -90.5t-58 -69.5l3 -8h61q73 0 129 37l4 -8q-12 -9 -27 -21.5t-24 -19.5t-20 -15.5t-17.5 -13.5t-13 -9t-11.5 -6t-8 -2q-122 0 -188 1l-4 8q56 12 83.5 65.5t47.5 153.5q-23 0 -66 0.5t-57 0.5l42 50h88l16 82q-30 0 -72 0.5t-60 0.5l42 49h93q-1 133 -37 221 t-75 88q-55 0 -84 -51t-33 -160z" />
<glyph unicode="&#xa6;" horiz-adv-x="248" d="M90 814l58 42l-8 -384h-47zM92 -163v399h46l-4 -355z" />
<glyph unicode="&#xa7;" horiz-adv-x="540" d="M-6 -94q63 37 72 41q41 -30 96 -30q42 0 70 31.5t28 74.5q0 39 -28 80.5t-61 72.5t-61 75.5t-28 87.5q0 44 32 102t76 78q-3 13 -3 28q0 73 80.5 139.5t153.5 66.5q82 0 107 -39l-68 -40q-35 28 -93 28q-44 0 -74 -30t-30 -74q0 -32 18 -63.5t44.5 -58.5t52.5 -55.5 t44 -65.5t18 -76q0 -41 -32.5 -98.5t-71.5 -75.5q2 -16 2 -25q0 -71 -80.5 -142t-155.5 -71q-31 0 -62.5 9.5t-45.5 29.5zM161 379q0 -42 19 -79.5t42.5 -61t55 -55.5t47.5 -56q37 62 37 112q0 36 -11.5 65.5t-31 52.5t-40.5 43t-44 44.5t-37 48.5q-37 -58 -37 -114z" />
<glyph unicode="&#xa8;" horiz-adv-x="498" d="M138 728l54 50q33 -26 48 -52l-51 -55q-37 45 -51 57zM327 728l54 50q28 -18 47 -52l-45 -55q-30 38 -56 57z" />
<glyph unicode="&#xa9;" horiz-adv-x="845" d="M120 288q0 167 93 272.5t266 105.5q129 0 207.5 -87t78.5 -201q0 -169 -98 -273t-266 -104q-120 0 -200.5 89t-80.5 198zM261 342q0 68 54.5 126.5t151.5 58.5q36 0 70 -11t44 -25v-63h-16q-3 26 -27 48.5t-74 22.5q-61 0 -97 -44.5t-36 -108.5q0 -75 36.5 -125.5 t103.5 -50.5t109 67h15l-14 -64q-10 -11 -49 -21t-70 -10q-88 0 -144.5 49.5t-56.5 150.5zM428 47q116 0 191.5 59t90.5 143.5t-3.5 168.5t-88.5 143t-166 59q-115 0 -189.5 -59t-89.5 -143.5t3.5 -168.5t87.5 -143t164 -59z" />
<glyph unicode="&#xaa;" horiz-adv-x="303" d="M44 459q0 66 17 122q19 66 53.5 98.5t97.5 32.5q48 0 65 -3l-20 -105q-22 -117 -42 -175l2 -4q36 31 48 42l5 -8q-51 -53 -80 -69l-4 8q8 78 21 164q1 7 6 16l-3 2l-7 -11q-77 -120 -150 -180q-9 29 -9 70zM90 457q31 28 71.5 96.5t51.5 111.5q-9 4 -35 4q-41 0 -55 -17 t-25 -72q-5 -22 -8 -63.5t0 -59.5z" />
<glyph unicode="&#xab;" horiz-adv-x="719" d="M78 278q137 96 211 205l42 -49q-27 -32 -82 -80t-101 -76q45 -26 98 -68.5t81 -71.5l-38 -58q-31 43 -86 97t-125 101zM337 278q137 96 211 205l42 -49q-27 -32 -82 -80t-101 -76q45 -26 98 -68.5t81 -71.5l-38 -58q-31 43 -86 97t-125 101z" />
<glyph unicode="&#xac;" horiz-adv-x="596" d="M62 273l23 40h410q15 0 25 -11t10 -29v-190l-42 -28l-1 180q0 27 -5.5 32.5t-26.5 5.5h-393z" />
<glyph unicode="&#xad;" horiz-adv-x="400" d="M45 293l28 53q141 -1 301 32l-31 -54q-142 -32 -298 -31z" />
<glyph unicode="&#xae;" horiz-adv-x="770" d="M65 288q0 167 93 272.5t266 105.5q129 0 207.5 -87t78.5 -201q0 -169 -98 -273t-266 -104q-120 0 -200.5 89t-80.5 198zM109 340q0 -75 30 -140.5t91.5 -109t142.5 -43.5q73 0 130 23.5t91.5 63.5t52 89.5t17.5 103.5q0 74 -30 140t-92.5 109.5t-144.5 43.5 q-140 0 -214 -82t-74 -198zM235 147v16q14 2 33 8v323q-15 6 -33 9v16h42q31 0 74.5 4.5t58.5 4.5q52 0 89 -25.5t37 -83.5q0 -87 -95 -104l-5 -7q4 -5 18.5 -26t19 -28t17 -24t19.5 -25l17.5 -20t20 -20.5t19.5 -15.5l-18 -26q-95 61 -195 205l4 4q9 -3 19 -3q50 0 74 28.5 t24 66.5q0 73 -79 73q-31 0 -63 -9v-318q8 -3 26 -7v-16h-124z" />
<glyph unicode="&#xaf;" horiz-adv-x="352" d="M57 813l46 52q42 10 107.5 10.5t105.5 -2.5l-53 -54q-137 5 -206 -6z" />
<glyph unicode="&#xb0;" horiz-adv-x="366" d="M35 603q0 71 45.5 116.5t109.5 45.5q58 0 98 -38t40 -106q0 -70 -46.5 -115t-111.5 -45q-57 0 -96 38t-39 104zM74 619q0 -63 31.5 -98t83.5 -35q41 0 70 33.5t29 86.5q0 61 -29.5 96t-79.5 35q-45 0 -75 -32t-30 -86z" />
<glyph unicode="&#xb1;" horiz-adv-x="621" d="M48 -2l54 54h481l-54 -54h-481zM48 377l54 54h184v183l54 54v-237h243l-54 -54h-189v-190l-54 -54v244h-238z" />
<glyph unicode="&#xb2;" horiz-adv-x="354" d="M62 451q73 57 129 121.5t56 113.5q0 54 -49 54q-29 0 -94 -26l-5 13q62 48 125 48q74 0 74 -65q0 -55 -49 -115t-114 -109l2 -6h117q47 0 85 29l6 -9l-69 -55l-211 1z" />
<glyph unicode="&#xb3;" horiz-adv-x="407" d="M71 447l19 40q39 -25 90 -25q41 0 57 16.5t16 51.5q0 26 -16 45.5t-45 23.5l-6 11q67 35 67 89q0 51 -42 51q-28 0 -72 -23l-10 14q69 41 99 41q65 0 65 -68q0 -25 -21 -53t-50 -46l2 -4q10 2 15 2q27 0 43 -18.5t16 -41.5q0 -57 -46 -92.5t-99 -35.5q-51 0 -82 22z" />
<glyph unicode="&#xb4;" d="M41 594q45 63 71.5 94t58.5 50q37 22 86 20l-15 -39q-29 -6 -63 -27q-56 -36 -124 -115z" />
<glyph unicode="&#xb6;" horiz-adv-x="557" d="M48 370q0 108 80 186t186 78q28 0 56 -6q9 81 75 152t154 71q29 0 49 -5l-41 -54q-28 6 -63 6q-27 0 -48 -15.5t-33 -36.5t-21.5 -55.5t-13 -58.5t-8.5 -60.5t-7 -48.5q-13 -80 -32.5 -220.5t-32.5 -226.5q-23 -151 -82.5 -220.5t-155.5 -69.5q-22 0 -44 6l38 55 q30 -8 61 -8q37 0 68 37t42 118l22 158q-30 -5 -51 -5q-81 0 -139.5 56.5t-58.5 166.5zM209 338q0 -66 28 -112t72 -46q9 0 14 6q53 273 53 364q0 55 -22 55q-76 0 -110.5 -73.5t-34.5 -193.5z" />
<glyph unicode="&#xb7;" horiz-adv-x="343" d="M94 298l84 92q19 -13 44 -39.5t36 -44.5l-90 -89q-5 5 -18.5 21t-28 32t-27.5 28z" />
<glyph unicode="&#xb8;" horiz-adv-x="391" d="M94 -184l45 39q21 -39 66 -39q41 0 41 15q0 26 -32 52.5t-78 42.5l113 95l17 -15q-12 -11 -65 -56q30 -8 60 -33.5t30 -46.5q0 -36 -37.5 -65t-86.5 -29q-52 0 -73 40z" />
<glyph unicode="&#xb9;" horiz-adv-x="308" d="M69 675q24 25 64.5 53t71.5 43q8 -3 8 -26q0 -28 -6 -72.5t-18 -115.5t-16 -96l-51 -55l-2 4q36 227 47 310q-55 -29 -91 -56z" />
<glyph unicode="&#xba;" horiz-adv-x="331" d="M39 510q0 66 50 127.5t116 78.5q25 -10 41 -47t16 -69q0 -64 -50.5 -127t-116.5 -79q-26 10 -41 45.5t-15 70.5zM94 541q0 -65 26 -107q90 34 90 133q0 66 -28 107q-88 -38 -88 -133z" />
<glyph unicode="&#xbb;" horiz-adv-x="669" d="M87 434l42 49q73 -107 211 -205q-70 -47 -125 -101t-86 -97l-38 58q28 28 81 70.5t100 68.5h-1q-46 28 -101.5 76.5t-82.5 80.5zM346 434l42 49q73 -107 211 -205q-70 -47 -125 -101t-86 -97l-38 58q28 28 81 70.5t100 68.5h-1q-46 28 -101.5 76.5t-82.5 80.5z" />
<glyph unicode="&#xbc;" horiz-adv-x="1029" d="M103 1q15 20 159 204t237.5 315t180.5 272l49 -50q-78 -129 -267.5 -365.5t-339.5 -396.5zM189 692q40 42 136 96q13 0 13 -26q0 -56 -29 -198t-31 -156l-51 -55q-5 2 -5 13v4q6 61 28 173.5t30 188.5q-36 -15 -84 -51zM462 138q31 17 108 124.5t101 174.5q31 31 88 52 q12 0 12 -21q-4 -67 -17.5 -155t-18.5 -137q82 0 134 21l9 -21q-60 -41 -146 -41q-3 -18 -6.5 -50.5t-7.5 -53.5l-48 -45q-3 1 -3 14q0 7 16 135q-11 0 -43.5 0.5t-50.5 0.5t-49 -2t-59 -6zM549 180l3 -4h135q15 123 25 248h-2q-57 -135 -161 -244z" />
<glyph unicode="&#xbd;" horiz-adv-x="1052" d="M149 1q15 20 159 204t237.5 315t180.5 272l49 -50q-78 -129 -267.5 -365.5t-339.5 -396.5zM235 692q40 42 136 96q13 0 13 -26q0 -56 -29 -198t-31 -156l-51 -55q-5 2 -5 13v4q6 61 28 173.5t30 188.5q-36 -15 -84 -51zM613 113q189 154 189 243q0 53 -46 53 q-25 0 -90 -25l-5 13q62 48 125 48q74 0 74 -65q0 -61 -52 -126t-121 -118l2 -6h95q67 0 107 29l7 -15l-70 -48h-211z" />
<glyph unicode="&#xbe;" horiz-adv-x="1020" d="M103 1q15 20 159 204t237.5 315t180.5 272l49 -50q-78 -129 -267.5 -365.5t-339.5 -396.5zM114 432l21 42q43 -26 101 -26q46 0 64 17t18 54q0 26 -18 47t-50 25l-7 21q66 31 66 84q0 52 -42 52q-27 0 -77 -23l-12 21q70 36 112 36q73 0 73 -71q0 -26 -23.5 -55.5 t-56.5 -48.5l2 -4q12 2 17 2q31 0 48.5 -19.5t17.5 -42.5q0 -56 -53.5 -100.5t-108.5 -44.5q-22 0 -49 9.5t-43 24.5zM462 138q31 17 108 124.5t101 174.5q31 31 88 52q12 0 12 -21q-4 -67 -17.5 -155t-18.5 -137q82 0 134 21l9 -21q-60 -41 -146 -41q-3 -18 -6.5 -50.5 t-7.5 -53.5l-48 -45q-3 1 -3 14q0 7 16 135q-12 0 -37.5 0.5t-39.5 0.5q-62 0 -125 -8zM549 180l3 -4h135q15 123 25 248h-2q-57 -135 -161 -244z" />
<glyph unicode="&#xbf;" d="M-20 -155q0 46 28 94t68.5 87t81 76t68.5 74t28 68q0 58 -17 86q55 34 69 58l4 -1q17 -44 17 -90q0 -49 -28.5 -93.5t-69.5 -79.5t-82 -70.5t-69.5 -82.5t-28.5 -100q0 -46 20 -75.5t54 -29.5q61 0 113 44l3 -15q-72 -72 -140 -72q-119 0 -119 122zM169 494l72 69 q31 -24 67 -81l-70 -64q-1 1 -26.5 31t-42.5 45z" />
<glyph unicode="&#xc0;" horiz-adv-x="673" d="M-95 -8l47 64q36 -9 71 -9q48 0 71.5 19t68.5 95q23 38 134 249t159 286q-12 0 -48 1.5t-58 1.5q-30 0 -47.5 -1t-44 -6t-42.5 -14t-34.5 -27t-28.5 -44t-17 -65t-7 -90q-31 -21 -69 -54q0 193 127 297q74 60 205 60q3 0 165 -9q-29 -58 -29 -322q0 -118 2.5 -188 t9.5 -111.5t17.5 -55.5t28.5 -14q32 0 79 28l4 -8q-54 -48 -117 -86q-21 0 -36.5 7t-25.5 27t-16 38t-9.5 58t-4.5 69t-2 87h-182q-7 -13 -22.5 -44.5t-26 -51t-22.5 -35.5q-111 -152 -238 -152h-62zM307 324h150q-1 37 -1 103q0 56 1 118.5t1 65.5q-30 -54 -81.5 -154 t-69.5 -133zM332 961q49 2 86 -20q32 -19 58.5 -50t71.5 -94l-15 -18q-75 87 -123 116q-10 6 -25 12.5t-25.5 10.5t-12.5 4z" />
<glyph unicode="&#xc1;" horiz-adv-x="685" d="M-95 -8l47 64q36 -9 71 -9q48 0 71.5 19t68.5 95q23 38 134 249t159 286q-12 0 -48 1.5t-58 1.5q-30 0 -47.5 -1t-44 -6t-42.5 -14t-34.5 -27t-28.5 -44t-17 -65t-7 -90q-31 -21 -69 -54q0 193 127 297q74 60 205 60q3 0 165 -9q-29 -58 -29 -322q0 -118 2.5 -188 t9.5 -111.5t17.5 -55.5t28.5 -14q32 0 79 28l4 -8q-54 -48 -117 -86q-21 0 -36.5 7t-25.5 27t-16 38t-9.5 58t-4.5 69t-2 87h-182q-7 -13 -22.5 -44.5t-26 -51t-22.5 -35.5q-111 -152 -238 -152h-62zM307 324h150q-1 37 -1 103q0 56 1 118.5t1 65.5q-30 -54 -81.5 -154 t-69.5 -133zM397 794q45 63 71.5 94t58.5 50q37 22 86 20l-15 -39q-29 -6 -63 -27q-56 -36 -124 -115z" />
<glyph unicode="&#xc2;" horiz-adv-x="673" d="M-95 -8l47 64q36 -9 71 -9q48 0 71.5 19t68.5 95q23 38 134 249t159 286q-12 0 -48 1.5t-58 1.5q-30 0 -47.5 -1t-44 -6t-42.5 -14t-34.5 -27t-28.5 -44t-17 -65t-7 -90q-31 -21 -69 -54q0 193 127 297q74 60 205 60q3 0 165 -9q-29 -58 -29 -322q0 -118 2.5 -188 t9.5 -111.5t17.5 -55.5t28.5 -14q32 0 79 28l4 -8q-54 -48 -117 -86q-21 0 -36.5 7t-25.5 27t-16 38t-9.5 58t-4.5 69t-2 87h-182q-7 -13 -22.5 -44.5t-26 -51t-22.5 -35.5q-111 -152 -238 -152h-62zM307 324h150q-1 37 -1 103q0 56 1 118.5t1 65.5q-30 -54 -81.5 -154 t-69.5 -133zM392 808q40 44 72.5 69.5t71.5 34.5q23 -9 60.5 -36t55.5 -46l-35 -33q-64 62 -109 76q-46 -23 -106 -74z" />
<glyph unicode="&#xc3;" horiz-adv-x="680" d="M-95 -8l47 64q36 -9 71 -9q48 0 71.5 19t68.5 95q23 38 134 249t159 286q-12 0 -48 1.5t-58 1.5q-30 0 -47.5 -1t-44 -6t-42.5 -14t-34.5 -27t-28.5 -44t-17 -65t-7 -90q-31 -21 -69 -54q0 193 127 297q74 60 205 60q3 0 165 -9q-29 -58 -29 -322q0 -118 2.5 -188 t9.5 -111.5t17.5 -55.5t28.5 -14q32 0 79 28l4 -8q-54 -48 -117 -86q-21 0 -36.5 7t-25.5 27t-16 38t-9.5 58t-4.5 69t-2 87h-182q-7 -13 -22.5 -44.5t-26 -51t-22.5 -35.5q-111 -152 -238 -152h-62zM307 324h150q-1 37 -1 103q0 56 1 118.5t1 65.5q-30 -54 -81.5 -154 t-69.5 -133zM324 837q49 50 115 76q22 0 60.5 -17.5t62.5 -17.5q21 0 52.5 10.5t46.5 21.5l8 -11q-56 -57 -119 -72q-22 0 -60.5 18.5t-62.5 18.5q-20 0 -50.5 -13.5t-47.5 -28.5z" />
<glyph unicode="&#xc4;" horiz-adv-x="673" d="M-95 -8l47 64q36 -9 71 -9q48 0 71.5 19t68.5 95q23 38 134 249t159 286q-12 0 -48 1.5t-58 1.5q-30 0 -47.5 -1t-44 -6t-42.5 -14t-34.5 -27t-28.5 -44t-17 -65t-7 -90q-31 -21 -69 -54q0 193 127 297q74 60 205 60q3 0 165 -9q-29 -58 -29 -322q0 -118 2.5 -188 t9.5 -111.5t17.5 -55.5t28.5 -14q32 0 79 28l4 -8q-54 -48 -117 -86q-21 0 -36.5 7t-25.5 27t-16 38t-9.5 58t-4.5 69t-2 87h-182q-7 -13 -22.5 -44.5t-26 -51t-22.5 -35.5q-111 -152 -238 -152h-62zM307 324h150q-1 37 -1 103q0 56 1 118.5t1 65.5q-30 -54 -81.5 -154 t-69.5 -133zM360 861l54 50q33 -26 48 -52l-51 -55q-37 45 -51 57zM549 861l54 50q28 -18 47 -52l-45 -55q-30 38 -56 57z" />
<glyph unicode="&#xc5;" horiz-adv-x="673" d="M-95 -8l47 64q36 -9 71 -9q48 0 71.5 19t68.5 95q23 38 134 249t159 286q-12 0 -48 1.5t-58 1.5q-30 0 -47.5 -1t-44 -6t-42.5 -14t-34.5 -27t-28.5 -44t-17 -65t-7 -90q-31 -21 -69 -54q0 193 127 297q74 60 205 60q3 0 165 -9q-29 -58 -29 -322q0 -118 2.5 -188 t9.5 -111.5t17.5 -55.5t28.5 -14q32 0 79 28l4 -8q-54 -48 -117 -86q-21 0 -36.5 7t-25.5 27t-16 38t-9.5 58t-4.5 69t-2 87h-182q-7 -13 -22.5 -44.5t-26 -51t-22.5 -35.5q-111 -152 -238 -152h-62zM307 324h150q-1 37 -1 103q0 56 1 118.5t1 65.5q-30 -54 -81.5 -154 t-69.5 -133zM464 860q0 27 18.5 50.5t45.5 35.5q38 0 57.5 -16t19.5 -39q0 -33 -22 -60t-55 -27q-27 0 -45.5 16t-18.5 40zM491 873q0 -12 18 -24.5t39 -12.5q35 11 35 35q0 22 -17.5 35t-42.5 13q-26 -14 -32 -46z" />
<glyph unicode="&#xc6;" horiz-adv-x="868" d="M-96 -8l47 64q36 -9 71 -9q46 0 70.5 21t69.5 93q27 42 141 251.5t162 283.5q-12 0 -48 1.5t-58 1.5q-30 0 -47.5 -1t-44 -6t-42.5 -14t-34.5 -27t-28.5 -44t-17 -65t-7 -90q-31 -21 -69 -54q0 193 127 297q43 35 103 46.5t178 11.5q14 0 93 -1t152 -1q119 0 152 1 l-56 -59q-20 0 -106.5 0.5t-125.5 0.5q-7 -19 -10 -34l-34 -215h14q24 0 61.5 -2t56.5 -2q52 0 97 10l5 -4q-18 -26 -47.5 -46t-63.5 -20q-9 0 -50 1t-84 1q-19 -123 -34 -197q-13 -61 -75 -121l4 -9h260q69 0 123 38l4 -8q-81 -62 -117 -87h-383l-4 9q87 18 115 169 q2 11 8 45.5t9 52.5h-166q-54 -104 -71 -131q-50 -80 -107.5 -116t-130.5 -36h-62zM308 324h141q7 44 17.5 111t15.5 96t12.5 67t14.5 59t17 37q-21 -20 -45 -54.5t-52.5 -85.5t-44.5 -81t-45.5 -88t-30.5 -61z" />
<glyph unicode="&#xc7;" horiz-adv-x="527" d="M35 226q0 115 52.5 237t141.5 205t182 83q69 0 136 -20l-58 -75q-55 39 -113 52q-68 -1 -132 -61t-102.5 -154t-38.5 -190q0 -87 39.5 -158.5t113.5 -89.5q68 12 176 93l9 -8q-35 -44 -92.5 -88t-106.5 -58q-11 -10 -28 -25t-22 -19q30 -8 60 -33.5t30 -46.5 q0 -36 -37.5 -65t-86.5 -29q-52 0 -73 40l45 39q21 -39 66 -39q41 0 41 15q0 26 -32 52.5t-78 42.5l81 68q-86 11 -129.5 78t-43.5 154z" />
<glyph unicode="&#xc8;" horiz-adv-x="624" d="M-9 398q0 114 41 195t140 138q35 20 149 20h157q119 0 152 1l-56 -59q-20 0 -106.5 0.5t-125.5 0.5q-7 -19 -10 -34l-34 -215h14q24 0 61.5 -2t56.5 -2q52 0 97 10l5 -4q-18 -26 -47.5 -46t-63.5 -20q-9 0 -50 1t-84 1q-19 -123 -34 -197q-13 -61 -75 -121l4 -8l237 -2 q83 -5 146 39l4 -8q-81 -62 -117 -87l-383 1l-4 8q87 18 115 169q18 94 34 197.5t24 154.5t19 96.5t25 68.5h-41q-100 0 -140.5 -54.5t-40.5 -187.5zM219 965q49 2 86 -20q32 -19 58.5 -50t71.5 -94l-15 -18q-75 87 -123 116q-10 6 -25 12.5t-25.5 10.5t-12.5 4z" />
<glyph unicode="&#xc9;" horiz-adv-x="624" d="M-9 398q0 114 41 195t140 138q35 20 149 20h157q119 0 152 1l-56 -59q-20 0 -106.5 0.5t-125.5 0.5q-7 -19 -10 -34l-34 -215h14q24 0 61.5 -2t56.5 -2q52 0 97 10l5 -4q-18 -26 -47.5 -46t-63.5 -20q-9 0 -50 1t-84 1q-19 -123 -34 -197q-13 -61 -75 -121l4 -8l237 -2 q83 -5 146 39l4 -8q-81 -62 -117 -87l-383 1l-4 8q87 18 115 169q18 94 34 197.5t24 154.5t19 96.5t25 68.5h-41q-100 0 -140.5 -54.5t-40.5 -187.5zM322 796q45 63 71.5 94t58.5 50q37 22 86 20l-15 -39q-29 -6 -63 -27q-56 -36 -124 -115z" />
<glyph unicode="&#xca;" horiz-adv-x="624" d="M-9 398q0 114 41 195t140 138q35 20 149 20h157q119 0 152 1l-56 -59q-20 0 -106.5 0.5t-125.5 0.5q-7 -19 -10 -34l-34 -215h14q24 0 61.5 -2t56.5 -2q52 0 97 10l5 -4q-18 -26 -47.5 -46t-63.5 -20q-9 0 -50 1t-84 1q-19 -123 -34 -197q-13 -61 -75 -121l4 -8l237 -2 q83 -5 146 39l4 -8q-81 -62 -117 -87l-383 1l-4 8q87 18 115 169q18 94 34 197.5t24 154.5t19 96.5t25 68.5h-41q-100 0 -140.5 -54.5t-40.5 -187.5zM265 802q40 44 72.5 69.5t71.5 34.5q23 -9 60.5 -36t55.5 -46l-35 -33q-64 62 -109 76q-46 -23 -106 -74z" />
<glyph unicode="&#xcb;" horiz-adv-x="624" d="M-9 398q0 114 41 195t140 138q35 20 149 20h157q119 0 152 1l-56 -59q-20 0 -106.5 0.5t-125.5 0.5q-7 -19 -10 -34l-34 -215h14q24 0 61.5 -2t56.5 -2q52 0 97 10l5 -4q-18 -26 -47.5 -46t-63.5 -20q-9 0 -50 1t-84 1q-19 -123 -34 -197q-13 -61 -75 -121l4 -8l237 -2 q83 -5 146 39l4 -8q-81 -62 -117 -87l-383 1l-4 8q87 18 115 169q18 94 34 197.5t24 154.5t19 96.5t25 68.5h-41q-100 0 -140.5 -54.5t-40.5 -187.5zM188 864l54 50q33 -26 48 -52l-51 -55q-37 45 -51 57zM377 864l54 50q28 -18 47 -52l-45 -55q-30 38 -56 57z" />
<glyph unicode="&#xcc;" horiz-adv-x="440" d="M-5 398q0 114 41 195t140 138q35 20 145 20h90l1 -3q-38 -24 -49 -88q-7 -41 -21.5 -133.5t-29 -179t-27.5 -161.5q-14 -62 -76 -121l4 -8q76 -3 123 3.5t86 33.5l4 -8q-94 -79 -111 -86q-3 -1 -6 -1q-29 0 -101.5 0.5t-107.5 0.5l-4 8q87 18 115 169q18 98 35 203.5 t25 156.5t18.5 94t22.5 63h-67q-100 0 -140.5 -54.5t-40.5 -187.5zM193 959q49 2 86 -20q32 -19 58.5 -50t71.5 -94l-15 -18q-75 87 -123 116q-10 6 -25 12.5t-25.5 10.5t-12.5 4z" />
<glyph unicode="&#xcd;" horiz-adv-x="459" d="M-5 398q0 114 41 195t140 138q35 20 145 20h90l1 -3q-38 -24 -49 -88q-7 -41 -21.5 -133.5t-29 -179t-27.5 -161.5q-14 -62 -76 -121l4 -8q76 -3 123 3.5t86 33.5l4 -8q-94 -79 -111 -86q-3 -1 -6 -1q-29 0 -101.5 0.5t-107.5 0.5l-4 8q87 18 115 169q18 98 35 203.5 t25 156.5t18.5 94t22.5 63h-67q-100 0 -140.5 -54.5t-40.5 -187.5zM300 795q45 63 71.5 94t58.5 50q37 22 86 20l-15 -39q-29 -6 -63 -27q-56 -36 -124 -115z" />
<glyph unicode="&#xce;" horiz-adv-x="439" d="M-5 398q0 114 41 195t140 138q35 20 145 20h90l1 -3q-38 -24 -49 -88q-7 -41 -21.5 -133.5t-29 -179t-27.5 -161.5q-14 -62 -76 -121l4 -8q76 -3 123 3.5t86 33.5l4 -8q-94 -79 -111 -86q-3 -1 -6 -1q-29 0 -101.5 0.5t-107.5 0.5l-4 8q87 18 115 169q18 98 35 203.5 t25 156.5t18.5 94t22.5 63h-67q-100 0 -140.5 -54.5t-40.5 -187.5zM236 811q40 44 72.5 69.5t71.5 34.5q23 -9 60.5 -36t55.5 -46l-35 -33q-64 62 -109 76q-46 -23 -106 -74z" />
<glyph unicode="&#xcf;" horiz-adv-x="440" d="M-5 398q0 114 41 195t140 138q35 20 145 20h90l1 -3q-38 -24 -49 -88q-7 -41 -21.5 -133.5t-29 -179t-27.5 -161.5q-14 -62 -76 -121l4 -8q76 -3 123 3.5t86 33.5l4 -8q-94 -79 -111 -86q-3 -1 -6 -1q-29 0 -101.5 0.5t-107.5 0.5l-4 8q87 18 115 169q18 98 35 203.5 t25 156.5t18.5 94t22.5 63h-67q-100 0 -140.5 -54.5t-40.5 -187.5zM207 861l54 50q33 -26 48 -52l-51 -55q-37 45 -51 57zM396 861l54 50q28 -18 47 -52l-45 -55q-30 38 -56 57z" />
<glyph unicode="&#xd0;" horiz-adv-x="720" d="M11 388q0 177 106 271.5t306 94.5q132 0 194 -69.5t62 -181.5q0 -82 -32 -171t-86.5 -162.5t-135 -121.5t-167.5 -48h-170l-4 8q87 18 115 169q19 109 30 179q-38 1 -101 1l32 62h17q38 0 62 -1q17 103 24 143.5t19 80.5t27 60q-40 0 -79.5 -15.5t-74.5 -45t-57 -81 t-22 -116.5zM197 65l4 -8h128q79 0 145 59.5t101.5 147.5t35.5 179q0 54 -14 100t-42.5 83t-77 58t-111.5 21q-12 -25 -15 -45q-5 -29 -40 -244q40 -1 94 -1q52 0 97 10l5 -4q-18 -26 -47.5 -46t-63.5 -20q-50 0 -95 1q-2 -19 -28 -170q-10 -58 -76 -121z" />
<glyph unicode="&#xd1;" horiz-adv-x="813" d="M-29 398q0 114 41 195t140 138q33 19 148 19h94q126 -363 184 -648q14 73 36 221.5t39.5 241t37.5 129.5q-82 3 -146 -6l-1 2q31 37 70 49t122 12h54l1 -3q-38 -24 -49 -88l-76 -442q-17 -99 -45.5 -150.5t-86.5 -77.5l-4 8l27 15q-48 147 -116 337t-103 293 q-17 -72 -34 -212t-28 -203q-21 -115 -78.5 -172.5t-142.5 -55.5l-54 1l47 64q36 -9 76 -9q25 0 40 16t25 66q25 129 44 264.5t29 201.5t22 90l-65 1q-97 1 -138 -55t-41 -188zM351 838q49 50 115 76q22 0 60.5 -17.5t62.5 -17.5q21 0 52.5 10.5t46.5 21.5l8 -11 q-56 -57 -119 -72q-22 0 -60.5 18.5t-62.5 18.5q-20 0 -50.5 -13.5t-47.5 -28.5z" />
<glyph unicode="&#xd2;" horiz-adv-x="587" d="M38 237q0 166 105.5 321.5t253.5 194.5q76 -22 113 -93t37 -171q0 -103 -45 -207.5t-125.5 -183t-175.5 -103.5q-81 21 -122 86t-41 156zM106 297q0 -87 36.5 -153t110.5 -93q97 29 161.5 141.5t64.5 236.5q0 94 -33 166t-101 102q-102 -31 -170.5 -150.5t-68.5 -249.5z M284 963q49 2 86 -20q32 -19 58.5 -50t71.5 -94l-15 -18q-75 87 -123 116q-10 6 -25 12.5t-25.5 10.5t-12.5 4z" />
<glyph unicode="&#xd3;" horiz-adv-x="609" d="M38 237q0 166 105.5 321.5t253.5 194.5q76 -22 113 -93t37 -171q0 -103 -45 -207.5t-125.5 -183t-175.5 -103.5q-81 21 -122 86t-41 156zM106 297q0 -87 36.5 -153t110.5 -93q97 29 161.5 141.5t64.5 236.5q0 94 -33 166t-101 102q-102 -31 -170.5 -150.5t-68.5 -249.5z M298 796q45 63 71.5 94t58.5 50q37 22 86 20l-15 -39q-29 -6 -63 -27q-56 -36 -124 -115z" />
<glyph unicode="&#xd4;" horiz-adv-x="587" d="M38 237q0 166 105.5 321.5t253.5 194.5q76 -22 113 -93t37 -171q0 -103 -45 -207.5t-125.5 -183t-175.5 -103.5q-81 21 -122 86t-41 156zM106 297q0 -87 36.5 -153t110.5 -93q97 29 161.5 141.5t64.5 236.5q0 94 -33 166t-101 102q-102 -31 -170.5 -150.5t-68.5 -249.5z M286 814q40 44 72.5 69.5t71.5 34.5q23 -9 60.5 -36t55.5 -46l-35 -33q-64 62 -109 76q-46 -23 -106 -74z" />
<glyph unicode="&#xd5;" horiz-adv-x="579" d="M29 237q0 166 105.5 321.5t253.5 194.5q76 -22 113 -93t37 -171q0 -103 -45 -207.5t-125.5 -183t-175.5 -103.5q-81 21 -122 86t-41 156zM97 297q0 -87 36.5 -153t110.5 -93q97 29 161.5 141.5t64.5 236.5q0 94 -33 166t-101 102q-102 -31 -170.5 -150.5t-68.5 -249.5z M235 847q49 50 115 76q22 0 60.5 -17.5t62.5 -17.5q21 0 52.5 10.5t46.5 21.5l8 -11q-56 -57 -119 -72q-22 0 -60.5 18.5t-62.5 18.5q-20 0 -50.5 -13.5t-47.5 -28.5z" />
<glyph unicode="&#xd6;" horiz-adv-x="557" d="M38 237q0 166 105.5 321.5t253.5 194.5q76 -22 113 -93t37 -171q0 -103 -45 -207.5t-125.5 -183t-175.5 -103.5q-81 21 -122 86t-41 156zM106 297q0 -87 36.5 -153t110.5 -93q97 29 161.5 141.5t64.5 236.5q0 94 -33 166t-101 102q-102 -31 -170.5 -150.5t-68.5 -249.5z M265 867l54 50q33 -26 48 -52l-51 -55q-37 45 -51 57zM454 867l54 50q28 -18 47 -52l-45 -55q-30 38 -56 57z" />
<glyph unicode="&#xd7;" horiz-adv-x="551" d="M45 15l194 215q-124 115 -190 219l53 52q62 -97 185 -211l190 211l22 -14l-194 -216l40 -40l43.5 -43.5t38.5 -39.5t41.5 -45.5t35.5 -43.5v-1l-53 -52q-21 26 -48 55t-46.5 49t-52 52.5l-48.5 48.5l-194 -214z" />
<glyph unicode="&#xd8;" horiz-adv-x="587" d="M38 -24q9 15 26.5 44.5t25.5 43.5q-52 65 -52 173q0 166 105.5 321.5t253.5 194.5q36 -11 60 -30q32 62 49 94l32 -29q-8 -15 -24.5 -47t-25.5 -49q59 -72 59 -203q0 -103 -45 -207.5t-125.5 -183t-175.5 -103.5q-33 8 -65 28q-20 -36 -55 -106zM106 297q0 -84 34 -148 q143 250 275 495q-30 34 -70 53q-102 -31 -170.5 -150.5t-68.5 -249.5zM176 100q31 -33 77 -49q97 29 161.5 141.5t64.5 236.5q0 102 -38 174q-187 -355 -265 -503z" />
<glyph unicode="&#xd9;" horiz-adv-x="803" d="M-9 398q0 114 41 195t140 138q33 19 148 19h94l1 -3q-10 -7 -24 -29.5t-22 -51.5q-72 -392 -72 -479q0 -122 80 -122q34 0 71.5 35.5t66.5 86t50 100.5t28 84l64 323q7 18 27 31t34.5 17t39.5 9l1 -3q-38 -24 -49 -88q-6 -35 -23 -132.5t-31 -183t-24 -161.5 q-2 -20 -2 -27q0 -46 20.5 -68t49.5 -22q40 0 87 28l4 -8q-54 -48 -117 -86q-103 1 -103 141q0 43 12 115h-5q-35 -96 -116 -176.5t-143 -80.5q-95 0 -95 160q0 53 9 105q9 61 19.5 134.5l16 112t13 79.5t15 64.5t17.5 40.5h-80q-95 0 -134.5 -56.5t-39.5 -186.5zM389 958 q49 2 86 -20q32 -19 58.5 -50t71.5 -94l-15 -18q-75 87 -123 116q-10 6 -25 12.5t-25.5 10.5t-12.5 4z" />
<glyph unicode="&#xda;" horiz-adv-x="803" d="M-9 398q0 114 41 195t140 138q33 19 148 19h94l1 -3q-10 -7 -24 -29.5t-22 -51.5q-72 -392 -72 -479q0 -122 80 -122q34 0 71.5 35.5t66.5 86t50 100.5t28 84l64 323q7 18 27 31t34.5 17t39.5 9l1 -3q-38 -24 -49 -88q-6 -35 -23 -132.5t-31 -183t-24 -161.5 q-2 -20 -2 -27q0 -46 20.5 -68t49.5 -22q40 0 87 28l4 -8q-54 -48 -117 -86q-103 1 -103 141q0 43 12 115h-5q-35 -96 -116 -176.5t-143 -80.5q-95 0 -95 160q0 53 9 105q9 61 19.5 134.5l16 112t13 79.5t15 64.5t17.5 40.5h-80q-95 0 -134.5 -56.5t-39.5 -186.5zM479 797 q45 63 71.5 94t58.5 50q37 22 86 20l-15 -39q-29 -6 -63 -27q-56 -36 -124 -115z" />
<glyph unicode="&#xdb;" horiz-adv-x="803" d="M-9 398q0 114 41 195t140 138q33 19 148 19h94l1 -3q-10 -7 -24 -29.5t-22 -51.5q-72 -392 -72 -479q0 -122 80 -122q34 0 71.5 35.5t66.5 86t50 100.5t28 84l64 323q7 18 27 31t34.5 17t39.5 9l1 -3q-38 -24 -49 -88q-6 -35 -23 -132.5t-31 -183t-24 -161.5 q-2 -20 -2 -27q0 -46 20.5 -68t49.5 -22q40 0 87 28l4 -8q-54 -48 -117 -86q-103 1 -103 141q0 43 12 115h-5q-35 -96 -116 -176.5t-143 -80.5q-95 0 -95 160q0 53 9 105q9 61 19.5 134.5l16 112t13 79.5t15 64.5t17.5 40.5h-80q-95 0 -134.5 -56.5t-39.5 -186.5zM442 822 q40 44 72.5 69.5t71.5 34.5q23 -9 60.5 -36t55.5 -46l-35 -33q-64 62 -109 76q-46 -23 -106 -74z" />
<glyph unicode="&#xdc;" horiz-adv-x="803" d="M-9 398q0 114 41 195t140 138q33 19 148 19h94l1 -3q-10 -7 -24 -29.5t-22 -51.5q-72 -392 -72 -479q0 -122 80 -122q34 0 71.5 35.5t66.5 86t50 100.5t28 84l64 323q7 18 27 31t34.5 17t39.5 9l1 -3q-38 -24 -49 -88q-6 -35 -23 -132.5t-31 -183t-24 -161.5 q-2 -20 -2 -27q0 -46 20.5 -68t49.5 -22q40 0 87 28l4 -8q-54 -48 -117 -86q-103 1 -103 141q0 43 12 115h-5q-35 -96 -116 -176.5t-143 -80.5q-95 0 -95 160q0 53 9 105q9 61 19.5 134.5l16 112t13 79.5t15 64.5t17.5 40.5h-80q-95 0 -134.5 -56.5t-39.5 -186.5zM403 871 l54 50q33 -26 48 -52l-51 -55q-37 45 -51 57zM592 871l54 50q28 -18 47 -52l-45 -55q-30 38 -56 57z" />
<glyph unicode="&#xdd;" horiz-adv-x="678" d="M-19 -101l58 42q65 -60 127 -60q48 0 94.5 59.5t127.5 213.5q-7 25 -30 117t-36.5 142.5t-34.5 122.5t-39.5 116.5t-35.5 65.5q-67 0 -99 -50.5t-32 -159.5l-69 -54q0 118 63 210.5t151 92.5q23 0 43.5 -18.5t38.5 -55.5t32.5 -76.5t29.5 -98.5t25 -102.5t23 -106.5 q4 -15 5.5 -22.5t4 -19.5t4.5 -21q8 14 73 128t105.5 193t40.5 99q0 15 -18.5 21.5t-73.5 6.5l-1 4l75 45h39q55 0 55 -40q0 -25 -43.5 -111.5t-108.5 -201t-67 -118.5q-121 -227 -190 -313t-170 -132q-75 10 -167 82zM430 797q45 63 71.5 94t58.5 50q37 22 86 20l-15 -39 q-29 -6 -63 -27q-56 -36 -124 -115z" />
<glyph unicode="&#xde;" horiz-adv-x="626" d="M-9 -251l38 55q30 -8 61 -8q41 0 70.5 30.5t44.5 123.5q13 84 35 250.5t34 249.5q5 36 10 65q-13 -2 -37 -2q-118 0 -195 72l58 61q77 -79 182 -84q3 21 9 52q15 86 75 142.5t129 56.5q74 0 74 -67q0 -78 -69 -136t-164 -83q-25 -169 -33 -211l3 -1q43 74 100.5 130 t111.5 73q18 -29 24.5 -63t6.5 -96q0 -71 -26 -152.5t-77.5 -143.5t-111.5 -62q-35 0 -64 28q-2 -7 -7 -28q-62 -258 -238 -258q-21 0 -44 6zM283 70q8 -6 30 -11t33 -5q78 0 109.5 65.5t31.5 212.5q0 79 -9 97q-26 1 -90.5 -61.5t-78.5 -119.5q-21 -87 -26 -178zM351 566 q67 10 120.5 41t53.5 79q0 34 -18.5 56.5t-51.5 22.5q-74 0 -90 -106q-6 -37 -14 -93z" />
<glyph unicode="&#xdf;" horiz-adv-x="466" d="M-212 -202l40 51q37 -5 59 -5q63 0 86 29t43 137q15 81 37.5 274t42.5 297q21 109 86 175.5t158 66.5q100 0 100 -105q0 -33 -16.5 -68.5t-40 -66t-47.5 -60.5t-40.5 -63.5t-16.5 -63.5q0 -20 23.5 -47t51 -51t51 -59.5t23.5 -69.5q0 -67 -58.5 -120t-127.5 -53 q-62 0 -87 23l51 53q48 -38 96 -38q31 0 53.5 33.5t22.5 62.5t-25.5 63t-55.5 60.5t-55.5 61t-25.5 63.5q0 27 16.5 57t40 58t47.5 58t40.5 68.5t16.5 79.5q0 97 -57 97q-61 0 -107 -63.5t-62 -154.5q-14 -80 -37.5 -270.5t-39.5 -290.5q-18 -107 -86.5 -170t-141.5 -63 q-30 0 -58 14z" />
<glyph unicode="&#xe0;" horiz-adv-x="408" d="M1 98q0 104 25 194q28 102 80 155t146 53q72 0 97 -5l-6 -29q-4 -21 -13 -71t-12 -67q-25 -168 -60 -274l3 -2q87 63 210 234l10 -7q-72 -105 -145 -186.5t-122 -102.5q-1 12 -1 38q0 45 5 82.5t16.5 90.5t17.5 87l-3 2q-62 -105 -114 -174.5t-121 -130.5q-13 45 -13 113 zM63 125q0 -40 6 -58q5 0 15.5 12t24.5 33.5t15 22.5q38 47 95.5 155.5t57.5 152.5q-21 6 -62 6q-80 0 -104 -31t-37 -136q-11 -91 -11 -157zM104 758q49 2 86 -20q32 -19 58.5 -50t71.5 -94l-15 -18q-75 87 -123 116q-10 6 -25 12.5t-25.5 10.5t-12.5 4z" />
<glyph unicode="&#xe1;" d="M3 98q0 104 25 194q28 102 80 155t146 53q72 0 97 -5l-6 -29q-4 -21 -13 -71t-12 -67q-25 -168 -60 -274l3 -2q87 63 210 234l10 -7q-72 -105 -145 -186.5t-122 -102.5q-1 12 -1 38q0 45 5 82.5t16.5 90.5t17.5 87l-3 2q-62 -105 -114 -174.5t-121 -130.5q-13 45 -13 113 zM65 125q0 -40 6 -58q5 0 15.5 12t24.5 33.5t15 22.5q38 47 95.5 155.5t57.5 152.5q-21 6 -62 6q-80 0 -104 -31t-37 -136q-11 -91 -11 -157zM215 594q45 63 71.5 94t58.5 50q37 22 86 20l-15 -39q-29 -6 -63 -27q-56 -36 -124 -115z" />
<glyph unicode="&#xe2;" d="M3 98q0 104 25 194q28 102 80 155t146 53q72 0 97 -5l-6 -29q-4 -21 -13 -71t-12 -67q-25 -168 -60 -274l3 -2q87 63 210 234l10 -7q-72 -105 -145 -186.5t-122 -102.5q-1 12 -1 38q0 45 5 82.5t16.5 90.5t17.5 87l-3 2q-62 -105 -114 -174.5t-121 -130.5q-13 45 -13 113 zM65 125q0 -40 6 -58q5 0 15.5 12t24.5 33.5t15 22.5q38 47 95.5 155.5t57.5 152.5q-21 6 -62 6q-80 0 -104 -31t-37 -136q-11 -91 -11 -157zM128 661q40 44 72.5 69.5t71.5 34.5q23 -9 60.5 -36t55.5 -46l-35 -33q-64 62 -109 76q-46 -23 -106 -74z" />
<glyph unicode="&#xe3;" horiz-adv-x="412" d="M3 98q0 104 25 194q28 102 80 155t146 53q72 0 97 -5l-6 -29q-4 -21 -13 -71t-12 -67q-25 -168 -60 -274l3 -2q87 63 210 234l10 -7q-72 -105 -145 -186.5t-122 -102.5q-1 12 -1 38q0 45 5 82.5t16.5 90.5t17.5 87l-3 2q-62 -105 -114 -174.5t-121 -130.5q-13 45 -13 113 zM65 125q0 -40 6 -58q5 0 15.5 12t24.5 33.5t15 22.5q38 47 95.5 155.5t57.5 152.5q-21 6 -62 6q-80 0 -104 -31t-37 -136q-11 -91 -11 -157zM113 664q49 50 115 76q22 0 60.5 -17.5t62.5 -17.5q21 0 52.5 10.5t46.5 21.5l8 -11q-56 -57 -119 -72q-22 0 -60.5 18.5 t-62.5 18.5q-20 0 -50.5 -13.5t-47.5 -28.5z" />
<glyph unicode="&#xe4;" d="M3 98q0 104 25 194q28 102 80 155t146 53q72 0 97 -5l-6 -29q-4 -21 -13 -71t-12 -67q-25 -168 -60 -274l3 -2q87 63 210 234l10 -7q-72 -105 -145 -186.5t-122 -102.5q-1 12 -1 38q0 45 5 82.5t16.5 90.5t17.5 87l-3 2q-62 -105 -114 -174.5t-121 -130.5q-13 45 -13 113 zM65 125q0 -40 6 -58q5 0 15.5 12t24.5 33.5t15 22.5q38 47 95.5 155.5t57.5 152.5q-21 6 -62 6q-80 0 -104 -31t-37 -136q-11 -91 -11 -157zM140 709l54 50q33 -26 48 -52l-51 -55q-37 45 -51 57zM329 709l54 50q28 -18 47 -52l-45 -55q-30 38 -56 57z" />
<glyph unicode="&#xe5;" d="M3 98q0 104 25 194q28 102 80 155t146 53q72 0 97 -5l-6 -29q-4 -21 -13 -71t-12 -67q-25 -168 -60 -274l3 -2q87 63 210 234l10 -7q-72 -105 -145 -186.5t-122 -102.5q-1 12 -1 38q0 45 5 82.5t16.5 90.5t17.5 87l-3 2q-62 -105 -114 -174.5t-121 -130.5q-13 45 -13 113 zM65 125q0 -40 6 -58q5 0 15.5 12t24.5 33.5t15 22.5q38 47 95.5 155.5t57.5 152.5q-21 6 -62 6q-80 0 -104 -31t-37 -136q-11 -91 -11 -157zM214 688q0 27 18.5 50.5t45.5 35.5q38 0 57.5 -16t19.5 -39q0 -33 -22 -60t-55 -27q-27 0 -45.5 16t-18.5 40zM241 701 q0 -12 18 -24.5t39 -12.5q35 11 35 35q0 22 -17.5 35t-42.5 13q-26 -14 -32 -46z" />
<glyph unicode="&#xe6;" horiz-adv-x="527" d="M3 96q0 106 25 196q33 115 90 163q53 45 136 45q72 0 97 -5l-6 -29q-1 -6 -5 -22t-5 -22q77 92 139 92q51 0 51 -40q0 -97 -221 -244q-1 -11 -1 -28q0 -105 69 -162q97 74 221 247l10 -7q-72 -105 -145 -186.5t-122 -102.5q-50 12 -75 67.5t-25 121.5q0 62 18 108l-3 2 q-62 -105 -114 -174.5t-121 -130.5q-13 45 -13 111zM65 125q0 -40 6 -58q5 0 15.5 12t24.5 33.5t15 22.5q38 47 95.5 155.5t57.5 152.5q-21 6 -62 6q-56 0 -81 -13q-27 -14 -39 -47.5t-21 -106.5q-11 -91 -11 -157zM309 254q62 40 110 97t48 93q0 21 -27 21 q-51 0 -83.5 -58.5t-47.5 -152.5z" />
<glyph unicode="&#xe7;" horiz-adv-x="310" d="M-50 -184l45 39q21 -39 66 -39q41 0 41 15q0 26 -32 52.5t-78 42.5l83 70q-72 33 -72 188q0 72 27 137t65.5 105.5t76 64t61.5 23.5q49 0 78 -27l-44 -52q-23 39 -60 39q-55 0 -95.5 -86t-40.5 -191q0 -118 66 -154q103 74 237 268l10 -6q-71 -107 -146 -194.5 t-129 -115.5q-44 -37 -52 -45q30 -8 60 -33.5t30 -46.5q0 -36 -37.5 -65t-86.5 -29q-52 0 -73 40z" />
<glyph unicode="&#xe8;" horiz-adv-x="298" d="M5 180q0 79 38.5 158t94 127.5t105.5 48.5q51 0 51 -40q0 -97 -221 -244q-1 -11 -1 -28q0 -113 68 -163q99 76 222 247l10 -7q-72 -105 -145 -186.5t-122 -102.5q-50 12 -75 66.5t-25 123.5zM61 758q49 2 86 -20q32 -19 58.5 -50t71.5 -94l-15 -18q-75 87 -123 116 q-10 6 -25 12.5t-25.5 10.5t-12.5 4zM78 254q62 40 110 97t48 93q0 30 -27 30q-50 0 -83 -62t-48 -158z" />
<glyph unicode="&#xe9;" horiz-adv-x="305" d="M5 180q0 79 38.5 158t94 127.5t105.5 48.5q51 0 51 -40q0 -97 -221 -244q-1 -11 -1 -28q0 -113 68 -163q99 76 222 247l10 -7q-72 -105 -145 -186.5t-122 -102.5q-50 12 -75 66.5t-25 123.5zM78 254q62 40 110 97t48 93q0 30 -27 30q-50 0 -83 -62t-48 -158zM181 594 q45 63 71.5 94t58.5 50q37 22 86 20l-15 -39q-29 -6 -63 -27q-56 -36 -124 -115z" />
<glyph unicode="&#xea;" horiz-adv-x="298" d="M4 180q0 79 38.5 158t94 127.5t105.5 48.5q51 0 51 -40q0 -97 -221 -244q-1 -11 -1 -28q0 -113 68 -163q99 76 222 247l10 -7q-72 -105 -145 -186.5t-122 -102.5q-50 12 -75 66.5t-25 123.5zM77 254q62 40 110 97t48 93q0 30 -27 30q-50 0 -83 -62t-48 -158zM120 658 q40 44 72.5 69.5t71.5 34.5q23 -9 60.5 -36t55.5 -46l-35 -33q-64 62 -109 76q-46 -23 -106 -74z" />
<glyph unicode="&#xeb;" horiz-adv-x="300" d="M5 180q0 79 38.5 158t94 127.5t105.5 48.5q51 0 51 -40q0 -97 -221 -244q-1 -11 -1 -28q0 -113 68 -163q99 76 222 247l10 -7q-72 -105 -145 -186.5t-122 -102.5q-50 12 -75 66.5t-25 123.5zM78 254q62 40 110 97t48 93q0 30 -27 30q-50 0 -83 -62t-48 -158zM95 682 l54 50q33 -26 48 -52l-51 -55q-37 45 -51 57zM284 682l54 50q28 -18 47 -52l-45 -55q-30 38 -56 57z" />
<glyph unicode="&#xec;" horiz-adv-x="222" d="M-58 763q49 2 86 -20q32 -19 58.5 -50t71.5 -94l-15 -18q-75 87 -123 116q-10 6 -25 12.5t-25.5 10.5t-12.5 4zM17 402l2 11q7 10 19.5 25.5t47.5 43.5t66 33q-6 -39 -21 -151.5t-28.5 -186.5t-30.5 -122l2 -3q86 61 210 234l11 -7q-72 -105 -145 -186.5t-123 -102.5 q-2 24 -2 38q0 52 8 109.5t26 155t28 160.5z" />
<glyph unicode="&#xed;" horiz-adv-x="219" d="M12 402l2 11q7 10 19.5 25.5t47.5 43.5t66 33q-6 -39 -21 -151.5t-28.5 -186.5t-30.5 -122l2 -3q86 61 210 234l11 -7q-72 -105 -145 -186.5t-123 -102.5q-2 24 -2 38q0 52 8 109.5t26 155t28 160.5zM78 596q45 63 71.5 94t58.5 50q37 22 86 20l-15 -39q-29 -6 -63 -27 q-56 -36 -124 -115z" />
<glyph unicode="&#xee;" horiz-adv-x="221" d="M9 662q40 44 72.5 69.5t71.5 34.5q23 -9 60.5 -36t55.5 -46l-35 -33q-64 62 -109 76q-46 -23 -106 -74zM16 402l2 11q7 10 19.5 25.5t47.5 43.5t66 33q-6 -39 -21 -151.5t-28.5 -186.5t-30.5 -122l2 -3q86 61 210 234l11 -7q-72 -105 -145 -186.5t-123 -102.5 q-2 24 -2 38q0 52 8 109.5t26 155t28 160.5z" />
<glyph unicode="&#xef;" horiz-adv-x="224" d="M-15 708l54 50q33 -26 48 -52l-51 -55q-37 45 -51 57zM20 402l2 11q7 10 19.5 25.5t47.5 43.5t66 33q-6 -39 -21 -151.5t-28.5 -186.5t-30.5 -122l2 -3q86 61 210 234l11 -7q-72 -105 -145 -186.5t-123 -102.5q-2 24 -2 38q0 52 8 109.5t26 155t28 160.5zM174 708l54 50 q28 -18 47 -52l-45 -55q-30 38 -56 57z" />
<glyph unicode="&#xf0;" horiz-adv-x="370" d="M-44 812l48 38q119 -26 205 -143l104 61l16 -46l-95 -52q97 -160 97 -366q0 -107 -53.5 -189.5t-170.5 -123.5q-42 18 -68.5 75.5t-26.5 111.5q0 92 44 173t111 128l16 -18q-53 -46 -82 -113t-29 -138q0 -108 62 -179q143 62 143 259q0 205 -97 350l-119 -65l-15 36 l109 64q-81 102 -199 137z" />
<glyph unicode="&#xf1;" horiz-adv-x="452" d="M18 402l2 11q7 10 19.5 25.5t47.5 43.5t66 33q-7 -42 -21 -155.5t-24 -167.5l3 -2q59 115 125.5 206.5t122.5 117.5q17 -14 17 -69q0 -75 -35 -228.5t-37 -162.5l3 -2q89 64 210 234l10 -7q-69 -102 -142.5 -185t-124.5 -104q-2 24 -2 38q0 64 22.5 193t22.5 197l-4 2 q-60 -54 -130 -171.5t-115 -258.5q-23 26 -23 64q0 16 14 114.5t28 189.5l14 90l-3 2zM97 662q49 50 115 76q22 0 60.5 -17.5t62.5 -17.5q21 0 52.5 10.5t46.5 21.5l8 -11q-56 -57 -119 -72q-22 0 -60.5 18.5t-62.5 18.5q-20 0 -50.5 -13.5t-47.5 -28.5z" />
<glyph unicode="&#xf2;" horiz-adv-x="367" d="M8 178q0 108 71.5 207.5t166.5 126.5q36 -17 59 -76t23 -111q0 -103 -72 -205t-166 -129q-38 17 -60 74t-22 113zM70 758q49 2 86 -20q32 -19 58.5 -50t71.5 -94l-15 -18q-75 87 -123 116q-10 6 -25 12.5t-25.5 10.5t-12.5 4zM74 227q0 -39 2 -63.5t12 -61t29 -71.5 q145 62 145 245q0 39 -2 63.5t-12 61t-29 71.5q-77 -35 -111 -95.5t-34 -149.5z" />
<glyph unicode="&#xf3;" horiz-adv-x="365" d="M5 178q0 108 71.5 207.5t166.5 126.5q36 -17 59 -76t23 -111q0 -103 -72 -205t-166 -129q-38 17 -60 74t-22 113zM71 227q0 -39 2 -63.5t12 -61t29 -71.5q145 62 145 245q0 39 -2 63.5t-12 61t-29 71.5q-77 -35 -111 -95.5t-34 -149.5zM191 596q45 63 71.5 94t58.5 50 q37 22 86 20l-15 -39q-29 -6 -63 -27q-56 -36 -124 -115z" />
<glyph unicode="&#xf4;" horiz-adv-x="359" d="M5 178q0 108 71.5 207.5t166.5 126.5q36 -17 59 -76t23 -111q0 -103 -72 -205t-166 -129q-38 17 -60 74t-22 113zM71 227q0 -39 2 -63.5t12 -61t29 -71.5q145 62 145 245q0 39 -2 63.5t-12 61t-29 71.5q-77 -35 -111 -95.5t-34 -149.5zM129 661q40 44 72.5 69.5 t71.5 34.5q23 -9 60.5 -36t55.5 -46l-35 -33q-64 62 -109 76q-46 -23 -106 -74z" />
<glyph unicode="&#xf5;" horiz-adv-x="364" d="M5 178q0 108 71.5 207.5t166.5 126.5q36 -17 59 -76t23 -111q0 -103 -72 -205t-166 -129q-38 17 -60 74t-22 113zM64 646q49 50 115 76q22 0 60.5 -17.5t62.5 -17.5q21 0 52.5 10.5t46.5 21.5l8 -11q-56 -57 -119 -72q-22 0 -60.5 18.5t-62.5 18.5q-20 0 -50.5 -13.5 t-47.5 -28.5zM71 227q0 -39 2 -63.5t12 -61t29 -71.5q145 62 145 245q0 39 -2 63.5t-12 61t-29 71.5q-77 -35 -111 -95.5t-34 -149.5z" />
<glyph unicode="&#xf6;" horiz-adv-x="367" d="M7 178q0 108 71.5 207.5t166.5 126.5q36 -17 59 -76t23 -111q0 -103 -72 -205t-166 -129q-38 17 -60 74t-22 113zM73 227q0 -39 2 -63.5t12 -61t29 -71.5q145 62 145 245q0 39 -2 63.5t-12 61t-29 71.5q-77 -35 -111 -95.5t-34 -149.5zM107 682l54 50q33 -26 48 -52 l-51 -55q-37 45 -51 57zM296 682l54 50q28 -18 47 -52l-45 -55q-30 38 -56 57z" />
<glyph unicode="&#xf7;" horiz-adv-x="539" d="M29 291l54 54q63 3 214.5 -1.5t210.5 1.5l-54 -54q-52 -8 -212.5 -3.5t-212.5 3.5zM208 134l72 68q16 -10 31.5 -40.5t30.5 -39.5l-65 -64q-13 9 -33 37.5t-36 38.5zM208 489l72 69q29 -18 62 -81l-65 -63q-15 10 -36 36.5t-33 38.5z" />
<glyph unicode="&#xf8;" horiz-adv-x="365" d="M-12 -13l42 70q-25 56 -25 121q0 108 71.5 207.5t166.5 126.5q21 -10 37 -35l47 78l21 -15l-53 -89q30 -63 30 -126q0 -103 -72 -205t-166 -129q-23 10 -41 36l-37 -63zM71 227q0 -60 5 -92l166 278q-7 24 -26 59q-77 -35 -111 -95.5t-34 -149.5zM86 95q13 -38 28 -64 q145 62 145 245q0 60 -8 100z" />
<glyph unicode="&#xf9;" horiz-adv-x="460" d="M19 402l2 11q7 10 19.5 25.5t47.5 43.5t66 33q-54 -276 -54 -408q0 -16 5 -41q49 48 107 140.5t102 207.5q11 30 18.5 45.5t21 32t29.5 22.5l-71 -406q-5 -27 -15 -54l3 -2q96 69 228 259l10 -6q-75 -112 -153.5 -202.5t-131.5 -112.5q-2 24 -2 38q0 31 5.5 74t11 73.5 t14.5 77t12 60.5l-3 2q-57 -115 -120.5 -206.5t-117.5 -117.5q-11 37 -11 89q0 58 15 165l27 204zM75 758q49 2 86 -20q32 -19 58.5 -50t71.5 -94l-15 -18q-75 87 -123 116q-10 6 -25 12.5t-25.5 10.5t-12.5 4z" />
<glyph unicode="&#xfa;" horiz-adv-x="461" d="M19 402l2 11q7 10 19.5 25.5t47.5 43.5t66 33q-54 -276 -54 -408q0 -16 5 -41q49 48 107 140.5t102 207.5q11 30 18.5 45.5t21 32t29.5 22.5l-71 -406q-5 -27 -15 -54l3 -2q96 69 228 259l10 -6q-75 -112 -153.5 -202.5t-131.5 -112.5q-2 24 -2 38q0 31 5.5 74t11 73.5 t14.5 77t12 60.5l-3 2q-57 -115 -120.5 -206.5t-117.5 -117.5q-11 37 -11 89q0 58 15 165l27 204zM229 594q45 63 71.5 94t58.5 50q37 22 86 20l-15 -39q-29 -6 -63 -27q-56 -36 -124 -115z" />
<glyph unicode="&#xfb;" horiz-adv-x="461" d="M19 402l2 11q7 10 19.5 25.5t47.5 43.5t66 33q-54 -276 -54 -408q0 -16 5 -41q49 48 107 140.5t102 207.5q11 30 18.5 45.5t21 32t29.5 22.5l-71 -406q-5 -27 -15 -54l3 -2q96 69 228 259l10 -6q-75 -112 -153.5 -202.5t-131.5 -112.5q-2 24 -2 38q0 31 5.5 74t11 73.5 t14.5 77t12 60.5l-3 2q-57 -115 -120.5 -206.5t-117.5 -117.5q-11 37 -11 89q0 58 15 165l27 204zM154 661q40 44 72.5 69.5t71.5 34.5q23 -9 60.5 -36t55.5 -46l-35 -33q-64 62 -109 76q-46 -23 -106 -74z" />
<glyph unicode="&#xfc;" horiz-adv-x="461" d="M19 402l2 11q7 10 19.5 25.5t47.5 43.5t66 33q-54 -276 -54 -408q0 -16 5 -41q49 48 107 140.5t102 207.5q11 30 18.5 45.5t21 32t29.5 22.5l-71 -406q-5 -27 -15 -54l3 -2q96 69 228 259l10 -6q-75 -112 -153.5 -202.5t-131.5 -112.5q-2 24 -2 38q0 31 5.5 74t11 73.5 t14.5 77t12 60.5l-3 2q-57 -115 -120.5 -206.5t-117.5 -117.5q-11 37 -11 89q0 58 15 165l27 204zM142 728l54 50q33 -26 48 -52l-51 -55q-37 45 -51 57zM331 728l54 50q28 -18 47 -52l-45 -55q-30 38 -56 57z" />
<glyph unicode="&#xfd;" horiz-adv-x="421" d="M-15 -206l39 61q43 -13 81 -13q71 0 101 28.5t42 121.5q19 156 46 321l-3 2q-57 -115 -120.5 -206.5t-117.5 -117.5q-10 34 -10 86t3 81.5t13 102.5l25 188l-65 -47l2 11q7 10 19.5 25.5t47.5 43.5t66 33q-58 -299 -53 -439l4 -10q49 47 106.5 140t101.5 208q1 2 8 19 t9 21.5t9 17.5t12.5 19t14 13t17.5 10q-2 -15 -6.5 -35.5t-5.5 -27.5q-10 -51 -18.5 -106.5t-19 -141.5t-16.5 -128q-19 -139 -82.5 -214.5t-172.5 -75.5q-41 0 -77 9zM237 594q45 63 71.5 94t58.5 50q37 22 86 20l-15 -39q-29 -6 -63 -27q-56 -36 -124 -115z" />
<glyph unicode="&#xfe;" horiz-adv-x="365" d="M-130 -249q71 39 89 72.5t35 147.5q12 76 33 236t34 243l24 156q12 82 82.5 163.5t150.5 81.5q29 0 49 -5l-41 -54q-28 6 -63 6q-43 0 -71 -44q-9 -15 -17 -35t-13.5 -37.5t-10.5 -44.5t-7.5 -41t-6.5 -43t-5 -35q-8 -49 -19 -114.5t-18 -109.5l3 -1q85 156 197 225 q18 -29 24.5 -63t6.5 -96q0 -69 -26 -152t-72.5 -144.5t-96.5 -61.5q-35 0 -64 28q-12 -42 -23 -91.5t-18 -71t-20 -38.5l3 -5q2 1 77 48l6 -15q-36 -21 -105 -57.5t-108 -58.5zM70 70q8 -6 30 -11t33 -5q69 0 95 59t26 219q0 74 -9 97q-32 -13 -85.5 -81t-72.5 -152 q-14 -63 -17 -126z" />
<glyph unicode="&#xff;" horiz-adv-x="420" d="M-15 -206l39 61q43 -13 81 -13q71 0 101 28.5t42 121.5q19 156 46 321l-3 2q-57 -115 -120.5 -206.5t-117.5 -117.5q-10 34 -10 86t3 81.5t13 102.5l25 188l-65 -47l2 11q7 10 19.5 25.5t47.5 43.5t66 33q-58 -299 -53 -439l4 -10q49 47 106.5 140t101.5 208q1 2 8 19 t9 21.5t9 17.5t12.5 19t14 13t17.5 10q-2 -15 -6.5 -35.5t-5.5 -27.5q-10 -51 -18.5 -106.5t-19 -141.5t-16.5 -128q-19 -139 -82.5 -214.5t-172.5 -75.5q-41 0 -77 9zM135 690l54 50q33 -26 48 -52l-51 -55q-37 45 -51 57zM324 690l54 50q28 -18 47 -52l-45 -55 q-30 38 -56 57z" />
<glyph unicode="&#x152;" horiz-adv-x="797" d="M33 237q0 119 52 236t152 197.5t221 80.5h193q119 0 152 1l-56 -59q-20 0 -106.5 0.5t-125.5 0.5q-7 -19 -10 -34l-34 -215q29 1 71.5 -1.5t60.5 -2.5q52 0 97 10l5 -4q-18 -26 -47.5 -46t-63.5 -20q-9 0 -50 1t-84 1q-23 -146 -33 -197q-12 -60 -76 -121l5 -11h226 q91 0 146 40l4 -8q-81 -62 -117 -87h-342q-66 0 -114.5 20.5t-74.5 56t-38.5 75.5t-12.5 86zM101 297q0 -59 17.5 -111.5t61 -91.5t105.5 -39q53 37 68 122q21 112 40.5 245.5t31 188.5t29.5 84q-44 5 -114 2q-102 -31 -170.5 -150.5t-68.5 -249.5z" />
<glyph unicode="&#x153;" horiz-adv-x="533" d="M5 178q0 108 71.5 207.5t166.5 126.5q49 -25 74 -123q34 56 80.5 90.5t82.5 34.5q51 0 51 -40q0 -97 -221 -244q-2 -11 -2 -34q0 -94 69 -157q98 75 222 248l10 -7q-72 -105 -145 -186.5t-122 -102.5q-37 8 -60 42t-33 81q-73 -98 -162 -123q-38 17 -60 74t-22 113z M71 227q0 -39 2 -63.5t12 -61t29 -71.5q145 62 145 245q0 39 -2 63.5t-12 61t-29 71.5q-77 -35 -111 -95.5t-34 -149.5zM316 254q61 41 109 97.5t48 92.5q0 21 -27 21q-99 0 -130 -211z" />
<glyph unicode="&#x178;" horiz-adv-x="607" d="M-85 -101l58 42q65 -60 127 -60q48 0 94.5 59.5t127.5 213.5q-7 25 -30 117t-36.5 142.5t-34.5 122.5t-39.5 116.5t-35.5 65.5q-67 0 -99 -50.5t-32 -159.5l-69 -54q0 118 63 210.5t151 92.5q23 0 43.5 -18.5t38.5 -55.5t32.5 -76.5t29.5 -98.5t25 -102.5t23 -106.5 q4 -15 5.5 -22.5t4 -19.5t4.5 -21q8 14 73 128t105.5 193t40.5 99q0 15 -18.5 21.5t-73.5 6.5l-1 4l75 45h39q55 0 55 -40q0 -25 -43.5 -111.5t-108.5 -201t-67 -118.5q-121 -227 -190 -313t-170 -132q-75 10 -167 82zM257 862l54 50q33 -26 48 -52l-51 -55q-37 45 -51 57z M446 862l54 50q28 -18 47 -52l-45 -55q-30 38 -56 57z" />
<glyph unicode="&#x2c6;" d="M46 661q40 44 72.5 69.5t71.5 34.5q23 -9 60.5 -36t55.5 -46l-35 -33q-64 62 -109 76q-46 -23 -106 -74z" />
<glyph unicode="&#x2dc;" horiz-adv-x="414" d="M33 622q49 50 115 76q22 0 60.5 -17.5t62.5 -17.5q21 0 52.5 10.5t46.5 21.5l8 -11q-56 -57 -119 -72q-22 0 -60.5 18.5t-62.5 18.5q-20 0 -50.5 -13.5t-47.5 -28.5z" />
<glyph unicode="&#x2000;" horiz-adv-x="482" />
<glyph unicode="&#x2001;" horiz-adv-x="965" />
<glyph unicode="&#x2002;" horiz-adv-x="482" />
<glyph unicode="&#x2003;" horiz-adv-x="965" />
<glyph unicode="&#x2004;" horiz-adv-x="321" />
<glyph unicode="&#x2005;" horiz-adv-x="241" />
<glyph unicode="&#x2006;" horiz-adv-x="160" />
<glyph unicode="&#x2007;" horiz-adv-x="160" />
<glyph unicode="&#x2008;" horiz-adv-x="120" />
<glyph unicode="&#x2009;" horiz-adv-x="193" />
<glyph unicode="&#x200a;" horiz-adv-x="53" />
<glyph unicode="&#x2010;" horiz-adv-x="400" d="M45 293l28 53q141 -1 301 32l-31 -54q-142 -32 -298 -31z" />
<glyph unicode="&#x2011;" horiz-adv-x="400" d="M45 293l28 53q141 -1 301 32l-31 -54q-142 -32 -298 -31z" />
<glyph unicode="&#x2012;" horiz-adv-x="400" d="M45 293l28 53q141 -1 301 32l-31 -54q-142 -32 -298 -31z" />
<glyph unicode="&#x2013;" horiz-adv-x="524" d="M35 275l54 54h377l-33 -54h-398z" />
<glyph unicode="&#x2014;" horiz-adv-x="718" d="M49 278l54 54h589l-54 -54h-589z" />
<glyph unicode="&#x2018;" horiz-adv-x="222" d="M65 691q2 16 27.5 65.5t70.5 109.5l15 -11q-53 -79 -53 -97q6 -10 33.5 -38.5t33.5 -44.5q-8 -10 -23.5 -29t-24 -28t-12.5 -10q-21 17 -41 44t-26 39z" />
<glyph unicode="&#x2019;" horiz-adv-x="236" d="M80 799q8 10 23.5 29t24 28t12.5 10q21 -17 41 -44t26 -39q-2 -16 -27.5 -65.5t-70.5 -109.5l-15 11q53 79 53 97q-6 10 -33.5 38.5t-33.5 44.5z" />
<glyph unicode="&#x201a;" horiz-adv-x="327" d="M100 83q8 10 23.5 29t24 28t12.5 10q21 -17 41 -44t26 -39q-2 -16 -27.5 -65.5t-70.5 -109.5l-15 11q53 79 53 97q-6 10 -33.5 38.5t-33.5 44.5z" />
<glyph unicode="&#x201c;" horiz-adv-x="435" d="M65 691q2 16 27.5 65.5t70.5 109.5l15 -11q-53 -79 -53 -97q6 -10 33.5 -38.5t33.5 -44.5q-8 -10 -23.5 -29t-24 -28t-12.5 -10q-21 17 -41 44t-26 39zM286 691q2 16 27.5 65.5t70.5 109.5l15 -11q-53 -79 -53 -97q6 -10 33.5 -38.5t33.5 -44.5q-8 -10 -23.5 -29t-24 -28 t-12.5 -10q-21 17 -41 44t-26 39z" />
<glyph unicode="&#x201d;" horiz-adv-x="486" d="M67 799q8 10 23.5 29t24 28t12.5 10q21 -17 41 -44t26 -39q-2 -16 -27.5 -65.5t-70.5 -109.5l-15 11q53 79 53 97q-6 10 -33.5 38.5t-33.5 44.5zM288 799q8 10 23.5 29t24 28t12.5 10q21 -17 41 -44t26 -39q-2 -16 -27.5 -65.5t-70.5 -109.5l-15 11q53 79 53 97 q-6 10 -33.5 38.5t-33.5 44.5z" />
<glyph unicode="&#x201e;" horiz-adv-x="533" d="M95 83q8 10 23.5 29t24 28t12.5 10q21 -17 41 -44t26 -39q-2 -16 -27.5 -65.5t-70.5 -109.5l-15 11q53 79 53 97q-6 10 -33.5 38.5t-33.5 44.5zM316 83q8 10 23.5 29t24 28t12.5 10q21 -17 41 -44t26 -39q-2 -16 -27.5 -65.5t-70.5 -109.5l-15 11q53 79 53 97 q-6 10 -33.5 38.5t-33.5 44.5z" />
<glyph unicode="&#x2022;" horiz-adv-x="522" d="M129 282q0 71 45.5 115.5t106.5 45.5q51 1 85 -35t34 -90q0 -75 -47.5 -117t-105.5 -42q-51 0 -84.5 35t-33.5 88z" />
<glyph unicode="&#x2026;" horiz-adv-x="728" d="M61 65l72 69q31 -24 67 -81l-70 -64q-1 1 -26.5 31t-42.5 45zM284 65l72 69q31 -24 67 -81l-70 -64q-1 1 -26.5 31t-42.5 45zM504 65l72 69q31 -24 67 -81l-70 -64q-1 1 -26.5 31t-42.5 45z" />
<glyph unicode="&#x202f;" horiz-adv-x="193" />
<glyph unicode="&#x2039;" horiz-adv-x="491" d="M94 278q138 98 211 205l42 -49q-27 -32 -82 -80t-101 -76q45 -26 98 -68.5t81 -71.5l-38 -58q-75 105 -211 198z" />
<glyph unicode="&#x203a;" horiz-adv-x="435" d="M107 434l39 46l5 -1q74 -107 209 -201q-70 -47 -125 -101t-86 -97l-39 58q29 29 82 71t99 68h-1q-45 28 -100.5 77t-82.5 80z" />
<glyph unicode="&#x205f;" horiz-adv-x="241" />
<glyph unicode="&#x20ac;" horiz-adv-x="631" d="M43 228l34 51h59q5 47 13 81q-20 0 -54 0.5t-41 0.5l34 51h74q43 144 135 241.5t213 97.5q69 0 136 -20l-58 -75q-55 39 -113 52q-84 -1 -158 -88.5t-102 -207.5h201l-26 -36q-64 -14 -184 -16q-4 -25 -4 -57q0 -16 1 -24h202l-26 -36q-64 -14 -169 -16q14 -64 50.5 -111 t94.5 -61q68 12 176 93l9 -8q-36 -45 -95 -90t-108 -58q-69 0 -116.5 36t-67 87t-19.5 111v1q-35 1 -91 1z" />
<glyph unicode="&#x2122;" horiz-adv-x="667" d="M30 596v46q0 33 36 55.5t104 22.5h129l1 -4l-26 -27h-69q-9 -30 -15 -64.5t-10.5 -74t-6.5 -53.5q-6 -39 -19 -52l2 -6q29 0 46 14l9 -10q-33 -29 -86 -29h-14q-3 0 -10.5 0.5t-9.5 0.5l2 13q19 6 29.5 18.5t13 22t5.5 28.5l22 160q2 20 9 27l-2 5q-8 0 -26 1.5t-31 1.5 q-50 0 -50 -47v-26l-29 -25zM245 423l23 33q9 -3 20 -3q21 0 33.5 12t26.5 48q21 52 61 172q-3 0 -16 1.5t-19 1.5q-11 0 -18 -2t-17.5 -9.5t-16 -28t-5.5 -52.5l-37 -26q0 65 31 108t100 43q18 0 44 -4q0 -12 5 -72t5 -93q0 -8 -1 -18v-10l4 -1q28 64 66 128t62 71l-3 -49 q-11 -162 -11 -173q0 -27 1 -44q25 15 42 35l11 -13q-30 -31 -86 -64q-3 29 -3 84q0 69 8 141l-4 2q-11 -13 -47.5 -95t-68.5 -135l-4 1q-4 40 -4 144v85l-4 1l-54 -141q-32 -83 -109 -83q-10 0 -15 5z" />
<glyph unicode="&#xe000;" horiz-adv-x="515" d="M0 0v515h515v-515h-515z" />
<glyph unicode="&#xfb01;" horiz-adv-x="451" d="M-115 -247q31 13 51.5 27.5t32 27t18.5 34t9 35.5t5.5 44.5t6.5 49.5q9 58 66 479l-89 -7q21 43 22 43q35 5 76 9q6 50 10 75q17 126 83 203.5t151 77.5h49l-40 -53h-50q-32 0 -56.5 -15t-38 -35.5t-23.5 -53.5t-13 -57t-7 -59.5t-6 -47.5q-4 -19 -5 -32l244 17 q-6 -39 -21 -151.5t-28.5 -186.5t-30.5 -122l2 -3q86 61 210 234l11 -7q-72 -105 -145 -186.5t-123 -102.5q-2 24 -2 38q0 52 8 110t28.5 166t32.5 180q-16 -8 -80.5 -17t-110.5 -13q-10 -87 -34 -249.5t-33 -228.5q-2 -10 -5 -30.5t-5 -31t-7 -26t-13 -30t-21 -29.5l5 -5 q8 4 78 48l8 -17l-209 -123z" />
<glyph unicode="&#xfb02;" horiz-adv-x="465" d="M-115 -247q31 13 51.5 27.5t32 27t18.5 34t9 35.5t5.5 44.5t6.5 49.5q9 58 66 479l-89 -7q21 43 22 43q35 5 76 9q23 193 89.5 274.5t214.5 81.5q76 0 121 -12q24 11 61 12h1q29 0 49 -5l-41 -54q-28 6 -63 6q-19 0 -35 -8.5t-27 -21t-21 -34t-16 -39t-11.5 -45t-8 -43 t-6.5 -42.5t-5 -35q-7 -43 -20 -154.5t-27 -191t-35 -130.5l3 -2q96 69 228 259l10 -6q-75 -112 -153.5 -202.5t-131.5 -112.5q-2 24 -2 38q0 77 61 454q-49 -17 -186 -28q-10 -87 -34 -249.5t-33 -228.5q-2 -10 -5 -30.5t-5 -31t-7 -26t-13 -30t-21 -29.5l5 -5q8 4 78 48 l8 -17l-209 -123zM137 498q28 2 185 13q8 43 15 95q8 54 43.5 112.5t84.5 94.5q-112 -1 -164 -9t-87 -32q-16 -11 -26.5 -27t-18 -45t-11 -50.5t-10 -71.5t-11.5 -80z" />
<glyph unicode="&#xfb03;" horiz-adv-x="717" d="M-175 -209l38 55q30 -8 61 -8q95 0 115 154q8 62 59 437q-10 -1 -96 -13q21 43 22 43q64 9 80 11l14 100q17 126 83 203.5t151 77.5h49l-40 -53h-64q-19 0 -35 -6.5t-27.5 -20t-21 -27.5t-16 -36t-11 -38.5t-8 -42t-5.5 -39.5t-4 -37q-2 -14 -4.5 -40t-3.5 -34 q39 5 78 8.5t68.5 6t37.5 3.5q6 50 10 75q17 126 83 203.5t151 77.5q56 0 83 -15l-41 -54q-36 16 -83 16q-32 0 -56.5 -15t-38 -35.5t-23.5 -53.5t-13 -57t-7 -59.5t-6 -47.5q-4 -19 -5 -32l244 17q-6 -39 -21 -151.5t-28.5 -186.5t-30.5 -122l2 -3q86 61 210 234l11 -7 q-72 -105 -145 -186.5t-123 -102.5q-2 24 -2 38q0 52 8 110t28.5 166t32.5 180q-16 -8 -80.5 -17t-110.5 -13q-8 -69 -19.5 -147.5t-26.5 -175.5t-23 -155q-1 -8 -3.5 -30.5t-4.5 -31.5t-7 -25.5t-13 -30.5t-21 -29l5 -5q8 4 78 48l8 -17l-209 -123l-11 21q31 13 51.5 27.5 t32 27t18.5 34t9 35.5t5.5 44.5t6.5 49.5q9 58 66 479q-14 -1 -78 -5.5t-102 -8.5q-10 -89 -48 -361q-21 -144 -82.5 -217t-156.5 -73q-21 0 -44 6z" />
<glyph unicode="&#xfb04;" horiz-adv-x="729" d="M-175 -209l38 55q30 -8 61 -8q95 0 115 154q10 80 59 436q-11 -1 -44 -3.5t-53 -3.5q20 47 21 47q39 3 82 6l14 96q20 146 101 224q30 29 71 43t111 14l-40 -53q-61 0 -85 -5t-37 -17q-24 -22 -40 -68t-20.5 -77.5t-9.5 -82.5q-2 -14 -4.5 -39.5t-3.5 -30.5 q133 10 194 17q23 193 89.5 274.5t214.5 81.5q76 0 121 -12q11 5 26.5 8t25.5 3l10 1q29 0 49 -5l-41 -54q-28 6 -63 6q-19 0 -35 -8.5t-27 -21t-21 -34t-16 -39t-11.5 -45t-8 -43t-6.5 -42.5t-5 -35q-7 -43 -20 -154.5t-27 -191t-35 -130.5l3 -2q96 69 228 259l10 -6 q-75 -112 -153.5 -202.5t-131.5 -112.5q-2 24 -2 38q0 77 61 454q-49 -17 -186 -28q-8 -69 -19.5 -147.5t-26.5 -175.5t-23 -155q-1 -8 -3.5 -30.5t-4.5 -31.5t-7 -25.5t-13 -30.5t-21 -29l5 -5q8 4 78 48l8 -17l-209 -123l-11 21q31 13 51.5 27.5t32 27t18.5 34t9 35.5 t5.5 44.5t6.5 49.5q9 58 66 479q-48 -5 -190 -17q-11 -96 -48 -358q-21 -144 -82.5 -217t-156.5 -73q-21 0 -44 6zM409 498q28 2 185 13q8 43 15 95q8 54 43.5 112.5t84.5 94.5q-112 -1 -164 -9t-87 -32q-16 -11 -26.5 -27t-18 -45t-11 -50.5t-10 -71.5t-11.5 -80z" />
</font>
</defs>
</svg>
