<?xml version="1.0" standalone="no"?>
<!DOCTYPE svg PUBLIC "-//W3C//DTD SVG 1.1//EN" "http://www.w3.org/Graphics/SVG/1.1/DTD/svg11.dtd" >
<svg xmlns="http://www.w3.org/2000/svg">
<metadata></metadata>
<defs>
<font id="gandhi_sansbold_italic" horiz-adv-x="550" >
<font-face units-per-em="1000" ascent="765" descent="-235" />
<missing-glyph horiz-adv-x="220" />
<glyph horiz-adv-x="1000" />
<glyph horiz-adv-x="1000" />
<glyph unicode="&#xd;" horiz-adv-x="1000" />
<glyph unicode=" "  horiz-adv-x="220" />
<glyph unicode="&#x09;" horiz-adv-x="220" />
<glyph unicode="&#xa0;" horiz-adv-x="220" />
<glyph unicode="!" horiz-adv-x="289" d="M33 56q0 32 22 54t53 22q32 0 51.5 -20.5t19.5 -49.5q0 -32 -22 -54t-53 -22q-32 0 -51.5 20.5t-19.5 49.5zM86 209l43 461h160l-120 -461h-83z" />
<glyph unicode="&#x22;" horiz-adv-x="437" d="M98 422l5 224h144l-74 -224h-75zM288 422l5 224h144l-74 -224h-75z" />
<glyph unicode="#" d="M14 164l17 96h96l31 91h-98l17 96h114l48 139h95l-48 -139h96l48 139h95l-48 -139h80l-17 -96h-96l-31 -91h98l-17 -96h-114l-47 -139h-95l47 139h-96l-47 -139h-95l47 139h-80zM222 260h96l31 91h-96z" />
<glyph unicode="$" d="M31 35l36 107q69 -41 152 -48l34 193q-32 20 -48.5 32.5t-39.5 34.5t-33.5 48.5t-10.5 58.5q0 88 55 139.5t147 59.5l19 105h75l-19 -107q87 -10 134 -39l-37 -107q-46 27 -116 37l-31 -176q41 -26 66 -45t47.5 -54t22.5 -75q0 -80 -50.5 -138.5t-157.5 -71.5l-18 -103 h-75l17 101q-104 5 -169 48zM246 476q0 -29 35 -57l23 128q-58 -15 -58 -71zM296 103q59 23 59 75q0 34 -35 64z" />
<glyph unicode="%" horiz-adv-x="854" d="M85 475q0 80 52.5 132t135.5 52q66 0 109.5 -34.5t43.5 -98.5q0 -80 -52.5 -132t-135.5 -52q-66 0 -109.5 34.5t-43.5 98.5zM131 45l560 615l65 -59l-560 -615zM192 474q0 -21 12.5 -37.5t40.5 -16.5q35 0 54.5 32.5t19.5 75.5q0 54 -52 54q-35 0 -55 -32.5t-20 -75.5z M461 119q0 80 52.5 132t135.5 52q66 0 109.5 -34.5t43.5 -98.5q0 -80 -52.5 -132t-135.5 -52q-66 0 -109.5 34.5t-43.5 98.5zM568 118q0 -21 12.5 -37.5t40.5 -16.5q35 0 54.5 32.5t19.5 75.5q0 54 -52 54q-35 0 -55 -32.5t-20 -75.5z" />
<glyph unicode="&#x26;" horiz-adv-x="665" d="M28 151q0 138 179 221q-41 68 -41 124q0 71 54.5 114t141.5 43q72 0 120.5 -36.5t48.5 -93.5q0 -107 -158 -181l76 -121q38 59 51 144h127q-38 -149 -121 -237q14 -20 23 -25.5t24 -5.5h36v-95q-36 -9 -88 -9q-31 0 -51.5 10.5t-40.5 39.5q-92 -57 -192 -57 q-84 0 -136.5 44.5t-52.5 120.5zM151 162q0 -35 22.5 -56t59.5 -21q60 0 124 42l-99 161q-44 -22 -75.5 -55t-31.5 -71zM294 497q0 -25 32 -77q78 42 78 86q0 22 -14 33.5t-37 11.5q-25 0 -42 -15t-17 -39z" />
<glyph unicode="'" horiz-adv-x="247" d="M98 422l5 224h144l-74 -224h-75z" />
<glyph unicode="(" horiz-adv-x="437" d="M50 214q0 194 97.5 338.5t283.5 233.5l39 -81q-139 -77 -219.5 -202t-80.5 -284q0 -202 155 -296l-45 -81q-97 47 -163.5 143t-66.5 229z" />
<glyph unicode=")" horiz-adv-x="437" d="M-20 -77q139 77 219.5 202t80.5 284q0 202 -155 296l45 81q97 -47 163.5 -143t66.5 -229q0 -194 -97.5 -338.5t-283.5 -233.5z" />
<glyph unicode="*" horiz-adv-x="423" d="M57 453l168 35l-150 44l74 101l93 -122l-19 159h123l-76 -162l136 122l41 -109l-168 -35l150 -44l-74 -101l-93 122l19 -159h-123l76 162l-136 -122z" />
<glyph unicode="+" d="M65 255v96h175v175h98v-175h177v-96h-177v-174h-98v174h-175z" />
<glyph unicode="," horiz-adv-x="250" d="M-35 -97q76 74 76 157q0 9 -3 42h129q2 -12 2 -33q0 -56 -44 -112t-110 -99z" />
<glyph unicode="-" horiz-adv-x="350" d="M28 209l14 84h280l-14 -84h-280z" />
<glyph unicode="." horiz-adv-x="250" d="M23 56q0 32 22 54t53 22q32 0 51.5 -20.5t19.5 -49.5q0 -32 -22 -54t-53 -22q-32 0 -51.5 20.5t-19.5 49.5z" />
<glyph unicode="/" horiz-adv-x="546" d="M-75 -235l574 1010h102l-575 -1010h-101z" />
<glyph unicode="0" d="M49 214q0 81 17.5 157t52 142.5t95 106.5t138.5 40q89 0 135 -62t46 -166q0 -81 -17.5 -157t-52 -142.5t-95 -106.5t-138.5 -40q-89 0 -135 62t-46 166zM181 217q0 -120 68 -120q44 0 79.5 50.5t54 126t18.5 155.5q0 120 -68 120q-44 0 -79.5 -50.5t-54 -126 t-18.5 -155.5z" />
<glyph unicode="1" d="M66 0l16 91l122 8l77 438l-130 -16l17 94l195 37h66l-97 -552l128 -9l-16 -91h-378z" />
<glyph unicode="2" d="M18 0v63q144 108 255.5 225.5t111.5 193.5q0 30 -20 48t-49 18q-69 0 -151 -71l-52 95q36 32 97.5 60t125.5 28q79 0 128 -42.5t49 -114.5q0 -57 -28 -117.5t-74 -112.5t-88 -90t-88 -72h225l-25 -111h-417z" />
<glyph unicode="3" d="M30 68l72 90q59 -63 134 -63q44 0 72 24.5t28 63.5q0 45 -38 70t-103 25h-28l17 93q82 9 137 41.5t55 81.5q0 25 -19.5 41.5t-50.5 16.5q-68 0 -129 -58l-50 87q83 79 195 79q72 0 125 -42t53 -115q0 -58 -40.5 -105t-99.5 -65q45 -17 74.5 -57.5t29.5 -91.5 q0 -97 -61 -147.5t-152 -50.5q-65 0 -126.5 24t-94.5 58z" />
<glyph unicode="4" d="M23 155v70l405 427h83l-69 -392h70l-18 -105h-70l-27 -155h-124l28 155h-278zM203 260h117l28 156z" />
<glyph unicode="5" d="M33 66l75 91q24 -30 60 -47t70 -17q51 0 82.5 26.5t31.5 70.5q0 102 -147 102h-102l92 354h317l-27 -110h-208l-35 -143h11q103 0 163 -48.5t60 -140.5q0 -96 -63.5 -157t-176.5 -61q-121 0 -203 80z" />
<glyph unicode="6" d="M55 204q0 178 128.5 300.5t318.5 155.5l16 -107q-201 -46 -286 -165q47 14 89 14q85 0 131 -47.5t46 -121.5q0 -106 -64 -176.5t-173 -70.5q-94 0 -150 61.5t-56 156.5zM178 219q0 -55 23 -91.5t68 -36.5q47 0 78 34.5t31 86.5q0 41 -23 66t-68 25q-52 0 -103 -22 q-6 -30 -6 -62z" />
<glyph unicode="7" d="M51 0l353 536h-298l27 110h414v-76l-344 -570h-152z" />
<glyph unicode="8" d="M45 147q0 127 145 195q-63 60 -63 129q0 81 57 135t151 54q83 0 135 -40t52 -106q0 -116 -130 -181q85 -67 85 -147q0 -89 -64 -144.5t-161 -55.5q-93 0 -150 45.5t-57 115.5zM168 159q0 -31 24 -49t64 -18q41 0 70.5 23t29.5 59q0 25 -20 47.5t-59 51.5 q-109 -42 -109 -114zM250 477q0 -40 58 -84q88 45 88 104q0 27 -20 42.5t-50 15.5q-33 0 -54.5 -22.5t-21.5 -55.5z" />
<glyph unicode="9" d="M64 93q199 44 285 165q-40 -14 -88 -14q-85 0 -131 47.5t-46 121.5q0 106 64 176.5t173 70.5q94 0 150 -61.5t56 -156.5q0 -178 -128.5 -300.5t-318.5 -155.5zM204 434q0 -41 23 -66t68 -25q54 0 102 21q7 29 7 63q0 55 -23 91.5t-68 36.5q-47 0 -78 -34.5t-31 -86.5z " />
<glyph unicode=":" horiz-adv-x="250" d="M25 56q0 32 22 54t53 22q32 0 51.5 -20.5t19.5 -49.5q0 -32 -22 -54t-53 -22q-32 0 -51.5 20.5t-19.5 49.5zM69 342q0 32 22 54t53 22q32 0 51.5 -20.5t19.5 -49.5q0 -32 -22 -54t-53 -22q-32 0 -51.5 20.5t-19.5 49.5z" />
<glyph unicode=";" horiz-adv-x="250" d="M-35 -97q76 74 76 157q0 9 -3 42h129q2 -12 2 -33q0 -56 -44 -112t-110 -99zM69 342q0 32 22 54t53 22q32 0 51.5 -20.5t19.5 -49.5q0 -32 -22 -54t-53 -22q-32 0 -51.5 20.5t-19.5 49.5z" />
<glyph unicode="&#x3c;" d="M85 280v50l368 195l42 -85l-272 -135l272 -135l-42 -85z" />
<glyph unicode="=" d="M65 153v96h450v-96h-450zM65 359v96h450v-96h-450z" />
<glyph unicode="&#x3e;" d="M85 170l272 135l-272 135l42 85l368 -195v-50l-368 -195z" />
<glyph unicode="?" horiz-adv-x="431" d="M84 56q0 32 22 54t53 22q32 0 51.5 -20.5t19.5 -49.5q0 -32 -22 -54t-53 -22q-32 0 -51.5 20.5t-19.5 49.5zM96 635q31 20 81 34.5t103 14.5q74 0 119 -37t45 -97q0 -44 -22.5 -81.5t-55 -63.5t-65 -51t-55 -54.5t-22.5 -62.5v-28h-113v48q0 36 21 70.5t50.5 61 t59.5 50.5t51 49t21 46q0 44 -59 44q-54 0 -111 -37z" />
<glyph unicode="@" horiz-adv-x="960" d="M38 171q0 233 138.5 366t359.5 133q110 0 197.5 -35.5t143 -114.5t55.5 -192q0 -154 -92.5 -248t-244.5 -94q-80 0 -80 44q0 13 3 33q-24 -35 -61 -56t-75 -21q-62 0 -97 45.5t-35 136.5q0 62 16 119t48 104t85.5 75t121.5 28q109 0 181 -50l-48 -277q-13 -74 -13 -89 q0 -13 15 -13q83 0 140 77.5t57 186.5q0 133 -92 200.5t-235 67.5q-181 0 -294.5 -111.5t-113.5 -300.5q0 -159 88 -247.5t250 -88.5q80 0 159.5 26t138.5 65l34 -69q-59 -39 -157.5 -67t-186.5 -28q-100 0 -179.5 32.5t-128 88t-73.5 125.5t-25 149zM370 182q0 -92 50 -92 q30 0 65.5 32.5t56.5 75.5l29 175q-25 16 -64 16q-67 0 -102 -66t-35 -141z" />
<glyph unicode="A" horiz-adv-x="659" d="M-21 0l390 670h78l155 -670h-132l-34 162h-228l-92 -162h-137zM267 265h147l-40 188z" />
<glyph unicode="B" horiz-adv-x="586" d="M30 0l117 670h212q194 0 194 -149q0 -60 -35 -101t-97 -57q118 -21 118 -144q0 -106 -74 -162.5t-193 -56.5h-242zM178 116h90q134 0 134 100q0 83 -124 83h-68zM229 406h57q57 0 93 22t36 67q0 32 -19.5 45.5t-60.5 13.5h-81z" />
<glyph unicode="C" horiz-adv-x="635" d="M53 279q0 173 104 289t286 116q105 0 194 -42l-39 -111q-74 40 -150 40q-122 0 -191.5 -82t-69.5 -204q0 -93 48.5 -140.5t140.5 -47.5q43 0 93.5 12.5t83.5 28.5l15 -107q-36 -18 -100 -31.5t-123 -13.5q-143 0 -217.5 76.5t-74.5 216.5z" />
<glyph unicode="D" horiz-adv-x="694" d="M30 0l117 670h225q141 0 220 -68.5t79 -205.5q0 -84 -21.5 -153.5t-66 -125t-121 -86.5t-178.5 -31h-254zM178 116h95q127 0 194 75t67 199q0 164 -183 164h-97z" />
<glyph unicode="E" horiz-adv-x="519" d="M30 0l117 670h386l-21 -116h-257l-25 -146h212l-20 -112h-212l-31 -180h269l-20 -116h-398z" />
<glyph unicode="F" horiz-adv-x="501" d="M30 0l117 670h384l-21 -116h-255l-26 -150h209l-20 -113h-208l-51 -291h-129z" />
<glyph unicode="G" horiz-adv-x="667" d="M53 274q0 180 109.5 295t284.5 115q123 0 217 -44l-40 -110q-76 41 -172 41q-119 0 -192 -78.5t-73 -205.5q0 -190 188 -190q48 0 83 10l24 131h-115l21 112h240l-59 -327q-109 -37 -226 -37q-135 0 -212.5 74t-77.5 214z" />
<glyph unicode="H" horiz-adv-x="700" d="M30 0l117 670h128l-45 -257h297l45 257h128l-117 -670h-128l52 299h-297l-52 -299h-128z" />
<glyph unicode="I" horiz-adv-x="275" d="M30 0l117 670h128l-117 -670h-128z" />
<glyph unicode="J" horiz-adv-x="281" d="M-74 -23q62 29 92.5 65t44.5 117l90 511h125l-92 -518q-21 -118 -75.5 -178t-145.5 -90z" />
<glyph unicode="K" horiz-adv-x="615" d="M30 0l117 670h128l-117 -670h-128zM226 348l269 322h148l-281 -321l139 -237q10 -16 18.5 -22.5t26.5 -6.5h20v-83q-48 -8 -86 -8q-31 0 -50.5 15t-38.5 48z" />
<glyph unicode="L" horiz-adv-x="507" d="M30 0l117 670h128l-97 -554h274l-20 -116h-402z" />
<glyph unicode="M" horiz-adv-x="820" d="M30 0l117 670h138l117 -446l278 446h140l-117 -670h-124l71 406l-253 -406h-60l-111 415l-71 -415h-125z" />
<glyph unicode="N" horiz-adv-x="691" d="M30 0l117 670h138l208 -411l71 411h127l-117 -670h-92l-242 480l-83 -480h-127z" />
<glyph unicode="O" horiz-adv-x="714" d="M53 245q0 122 41.5 219.5t129.5 158.5t209 61q124 0 191 -71t67 -188q0 -122 -41.5 -219.5t-129.5 -158.5t-209 -61q-124 0 -191 71t-67 188zM185 253q0 -74 37 -114.5t100 -40.5q106 0 171.5 96.5t65.5 222.5q0 74 -37 114.5t-100 40.5q-106 0 -171.5 -96.5 t-65.5 -222.5z" />
<glyph unicode="P" horiz-adv-x="554" d="M30 0l117 670h201q213 0 213 -167q0 -115 -74.5 -175t-203.5 -60h-78l-46 -268h-129zM224 378h58q147 0 147 107q0 69 -86 69h-88z" />
<glyph unicode="Q" horiz-adv-x="714" d="M53 246q1 121 42.5 218.5t129 158.5t208.5 61q124 0 191 -71t67 -189q0 -162 -77 -281t-217 -148q75 -138 138 -138h25v-84q-43 -8 -89 -8q-55 0 -97 48.5t-114 176.5q-100 14 -153.5 82.5t-53.5 173.5zM185 253q0 -74 37 -114.5t100 -40.5q106 0 171.5 96.5t65.5 222.5 q0 74 -37 114.5t-100 40.5q-71 0 -126.5 -47t-83 -119t-27.5 -153z" />
<glyph unicode="R" horiz-adv-x="603" d="M30 0l117 670h209q202 0 202 -173q0 -75 -51 -126.5t-138 -65.5q40 -7 64 -67l45 -110q17 -45 45 -45h24v-83q-35 -8 -95 -8t-88 68l-69 175q-9 24 -21 32t-36 8h-32l-48 -275h-128zM225 385h64q59 0 98 25.5t39 71.5q0 72 -99 72h-72z" />
<glyph unicode="S" horiz-adv-x="500" d="M-7 37l37 110q80 -49 173 -49q48 0 81 23t33 64q0 29 -24.5 54.5t-59 47t-69 45t-59 61t-24.5 84.5q0 100 66 153.5t173 53.5q48 0 98 -12.5t79 -30.5l-37 -111q-27 17 -72 29t-83 12q-42 0 -67 -19.5t-25 -58.5q0 -21 17.5 -42t44.5 -37t57.5 -38t57.5 -43.5t44.5 -55 t17.5 -71.5q0 -43 -15 -81t-45.5 -70t-83 -50.5t-122.5 -18.5q-48 0 -102.5 14t-90.5 37z" />
<glyph unicode="T" horiz-adv-x="619" d="M90 553l21 117h549l-21 -117h-210l-96 -553h-129l96 553h-210z" />
<glyph unicode="U" horiz-adv-x="688" d="M58 198q0 26 7 66l72 406h129l-70 -396q-7 -44 -7 -65q0 -106 134 -106q143 0 170 152l73 415h129l-78 -449q-20 -114 -98.5 -174.5t-207.5 -60.5q-109 0 -181 52t-72 160z" />
<glyph unicode="V" horiz-adv-x="638" d="M85 670h130l88 -453l246 453h138l-379 -670h-78z" />
<glyph unicode="W" horiz-adv-x="930" d="M90 670h131l59 -430l173 339l-14 91h130l57 -432l215 432h138l-356 -670h-81l-61 393l-208 -393h-81z" />
<glyph unicode="X" horiz-adv-x="650" d="M-12 0l268 360l-136 310h145l87 -226l165 226h150l-246 -319l153 -351h-145l-106 264l-183 -264h-152z" />
<glyph unicode="Y" horiz-adv-x="610" d="M100 670h137l89 -283l184 283h146l-288 -417l-44 -253h-128l46 264z" />
<glyph unicode="Z" horiz-adv-x="611" d="M13 89l405 464h-307l21 117h481v-85l-426 -469h353l-20 -116h-506z" />
<glyph unicode="[" horiz-adv-x="419" d="M2 -157l167 948h310l-15 -86h-195l-136 -776h194l-15 -86h-310z" />
<glyph unicode="\" horiz-adv-x="548" d="M119 775h98l281 -1010h-98z" />
<glyph unicode="]" horiz-adv-x="420" d="M-37 -157l15 86h195l136 776h-194l15 86h310l-167 -948h-310z" />
<glyph unicode="^" d="M70 292l195 368h50l195 -368l-85 -42l-135 272l-135 -272z" />
<glyph unicode="_" d="M-70 -170l14 84h557l-14 -84h-557z" />
<glyph unicode="`" horiz-adv-x="400" d="M164 718l129 36l52 -176l-51 -18z" />
<glyph unicode="a" horiz-adv-x="532" d="M35 168q0 62 16 119t48 104t85.5 75t121.5 28q109 0 181 -50l-55 -319q-8 -46 -8 -55t10.5 -12t40.5 -5v-53q-56 -14 -111 -14q-64 0 -64 44q0 13 3 33q-24 -35 -61 -56t-75 -21q-62 0 -97 45.5t-35 136.5zM155 182q0 -92 50 -92q30 0 65.5 32.5t56.5 75.5l29 175 q-25 16 -64 16q-67 0 -102 -66t-35 -141z" />
<glyph unicode="b" horiz-adv-x="516" d="M30 36l115 670l123 20l-52 -306q58 74 137 74q65 0 97.5 -50t32.5 -132q0 -134 -69.5 -230t-196.5 -96q-105 0 -187 50zM163 109q26 -18 63 -18q48 0 80.5 36.5t44.5 82t12 94.5q0 35 -11.5 60.5t-36.5 25.5q-58 0 -122 -102z" />
<glyph unicode="c" horiz-adv-x="439" d="M33 167q0 141 72 234t200 93q33 0 67 -10.5t54 -24.5l-41 -103q-41 33 -96 33q-61 0 -98.5 -62.5t-37.5 -141.5q0 -91 67 -91q48 0 127 46l28 -103q-26 -18 -78 -34.5t-93 -16.5q-78 0 -124.5 43.5t-46.5 137.5z" />
<glyph unicode="d" horiz-adv-x="537" d="M35 168q0 62 16 119t48 104t85.5 75t121.5 28q46 0 69 -7l36 219l122 20l-101 -601q-8 -46 -8 -55t10.5 -12t40.5 -5v-53q-47 -14 -111 -14t-64 44q0 13 3 33q-24 -35 -61 -56t-75 -21q-62 0 -97 45.5t-35 136.5zM155 182q0 -92 50 -92q30 0 65.5 32.5t56.5 75.5l29 175 q-25 16 -64 16q-67 0 -102 -66t-35 -141z" />
<glyph unicode="e" horiz-adv-x="459" d="M33 171q0 81 30.5 153.5t93.5 121t147 48.5q59 0 98 -27t39 -86q0 -78 -78.5 -128.5t-209.5 -54.5v-12q0 -92 63 -92q36 0 81 18t74 37l28 -104q-32 -22 -88.5 -40.5t-106.5 -18.5q-171 0 -171 185zM167 280q68 8 109.5 30.5t41.5 56.5q0 31 -37 31q-29 0 -62.5 -31.5 t-51.5 -86.5z" />
<glyph unicode="f" horiz-adv-x="360" d="M-114 -212l34 103q32 -18 66 -18q28 0 41 20.5t22 74.5l70 413h-80l19 99h78l7 40q36 206 195 206q52 0 92 -20l-49 -98q-20 12 -45 12q-62 0 -76 -109l-5 -31h109l-17 -99h-109l-75 -438q-16 -96 -55 -137t-109 -41q-55 0 -113 23z" />
<glyph unicode="g" horiz-adv-x="518" d="M13 -196l35 104q80 -38 145 -38q41 0 63 29t33 87l14 77q-60 -77 -140 -77q-65 0 -96.5 51t-31.5 133q0 61 16 117t47 103t84 75.5t120 28.5q104 0 185 -50l-78 -453q-21 -122 -65.5 -174t-143.5 -52q-46 0 -101 12.5t-86 26.5zM155 182q0 -92 50 -92q30 0 65.5 32.5 t56.5 75.5l29 175q-25 16 -64 16q-67 0 -102 -66t-35 -141z" />
<glyph unicode="h" horiz-adv-x="546" d="M28 0l120 706l122 20l-53 -309q65 77 150 77q63 0 93.5 -38.5t30.5 -100.5q0 -37 -7 -74l-26 -158q-8 -47 -8 -54q0 -13 51 -16v-53q-44 -14 -113 -14q-64 0 -64 47q0 15 4 36l36 194q7 37 7 64q0 63 -45 63q-33 0 -70 -32.5t-61 -71.5l-48 -286h-119z" />
<glyph unicode="i" horiz-adv-x="289" d="M47 33q0 6 6 45l49 277q7 41 7 55q0 16 -50 17l11 52q52 15 101 15q63 0 63 -44q0 -16 -8 -64l-45 -263q-8 -42 -8 -52q0 -9 11 -12.5t40 -5.5v-53q-9 -3 -47.5 -8.5t-66.5 -5.5q-63 0 -63 47zM121 641q0 34 22.5 57t56.5 23t54 -21t20 -52q0 -34 -22.5 -57t-56.5 -23 t-54 21t-20 52z" />
<glyph unicode="j" horiz-adv-x="269" d="M-124 -211l32 98q34 -21 61 -21q28 0 39 21.5t22 80.5l69 387q7 41 7 55q0 16 -50 17l11 52q53 15 101 15q63 0 63 -44q0 -16 -8 -64l-74 -429q-18 -102 -54.5 -147t-106.5 -45q-64 0 -112 24zM118 646q0 36 24.5 58t56.5 22q33 0 52.5 -20.5t19.5 -50.5q0 -34 -22 -58 t-57 -24q-34 0 -54 21t-20 52z" />
<glyph unicode="k" horiz-adv-x="530" d="M28 0l120 706l122 20l-123 -726h-119zM205 262l181 218h146l-203 -219l76 -176q8 -19 20.5 -25t42.5 -7v-53q-60 -14 -95 -14q-30 0 -45.5 12t-27.5 41z" />
<glyph unicode="l" horiz-adv-x="270" d="M33 30q0 13 5 45l106 631l122 20l-101 -601q-8 -46 -8 -55t10.5 -12t40.5 -5v-53q-47 -14 -111 -14t-64 44z" />
<glyph unicode="m" horiz-adv-x="838" d="M41 0l61 354q7 43 7 55q0 7 -5 10.5t-15 5t-30 2.5l11 52q41 15 101 15q63 0 63 -44q0 -9 -4 -35q69 79 151 79q92 0 117 -85q71 85 161 85q61 0 92.5 -40t31.5 -101q0 -27 -10 -89l-23 -141q-8 -47 -8 -52q0 -6 5.5 -10t15.5 -5.5t30 -2.5v-53q-45 -14 -113 -14 q-64 0 -64 47q0 16 4 36l35 187q9 43 9 75q0 59 -46 59q-30 0 -62 -26.5t-53 -60.5l-50 -303h-123l49 263q7 37 7 64q0 63 -46 63q-38 0 -73.5 -33t-59.5 -76l-47 -281h-119z" />
<glyph unicode="n" horiz-adv-x="559" d="M41 0l61 354q7 43 7 55q0 7 -5 10.5t-15 5t-30 2.5l11 52q41 15 101 15q63 0 63 -44q0 -7 -4 -33q65 77 150 77q63 0 93.5 -38.5t30.5 -100.5q0 -37 -7 -74l-26 -158q-8 -47 -8 -54q0 -13 51 -16v-53q-44 -14 -113 -14q-64 0 -64 47q0 15 4 36l36 194q7 37 7 64 q0 63 -45 63q-33 0 -70 -32.5t-61 -71.5l-48 -286h-119z" />
<glyph unicode="o" horiz-adv-x="494" d="M33 183q0 129 66.5 220t187.5 91q83 0 128.5 -52.5t45.5 -144.5q0 -129 -66.5 -220t-187.5 -91q-83 0 -128.5 52.5t-45.5 144.5zM153 184q0 -98 69 -98q50 0 84.5 60t34.5 150q0 98 -69 98q-50 0 -84.5 -60t-34.5 -150z" />
<glyph unicode="p" horiz-adv-x="532" d="M3 -221l99 575q7 43 7 55q0 7 -5 10.5t-15 5t-30 2.5l11 52q41 15 101 15q63 0 63 -44q0 -4 -1.5 -15.5t-1.5 -15.5q59 75 138 75q65 0 97.5 -50t32.5 -132q0 -134 -69.5 -230t-196.5 -96q-33 0 -74 9l-37 -216h-119zM178 109q23 -18 64 -18q48 0 80.5 36.5t44.5 82 t12 94.5q0 35 -11.5 60.5t-36.5 25.5q-59 0 -123 -103z" />
<glyph unicode="q" horiz-adv-x="518" d="M35 168q0 62 16 119t48 104t85.5 75t121.5 28q109 0 181 -50l-115 -665h-119l50 284q-24 -35 -61 -56t-75 -21q-62 0 -97 45.5t-35 136.5zM155 182q0 -92 50 -92q30 0 65.5 32.5t56.5 75.5l29 175q-25 16 -64 16q-67 0 -102 -66t-35 -141z" />
<glyph unicode="r" horiz-adv-x="400" d="M41 0l61 354q7 43 7 55q0 7 -5 10.5t-15 5t-30 2.5l11 52q41 15 101 15q63 0 63 -44q0 -2 -6 -50q78 94 137 94q24 0 35 -17l-29 -113q-15 5 -32 5q-55 0 -130 -81l-49 -288h-119z" />
<glyph unicode="s" horiz-adv-x="407" d="M-2 36l44 94q26 -17 67.5 -32t75.5 -15q27 0 42 11.5t15 29.5q0 22 -28.5 44.5t-62 40.5t-62 53t-28.5 79q0 72 50 112.5t125 40.5q42 0 84 -12.5t64 -27.5l-43 -94q-55 34 -110 34q-23 0 -37 -11t-14 -30t18.5 -36.5t45 -33.5t53 -34.5t45 -48t18.5 -66.5 q0 -68 -50 -108t-133 -40q-50 0 -101.5 15.5t-77.5 34.5z" />
<glyph unicode="t" horiz-adv-x="364" d="M33 381l18 99h81l61 119h73l-21 -119h111l-16 -99h-113l-36 -208q-9 -54 -9 -63q0 -18 21 -18q28 0 78 28l24 -98q-24 -13 -67 -24.5t-78 -11.5q-40 0 -69 20.5t-29 56.5q0 18 9 76l42 242h-80z" />
<glyph unicode="u" horiz-adv-x="558" d="M43 427l11 52q45 15 104 15q33 0 47.5 -10t14.5 -34q0 -12 -8 -55l-31 -174q-9 -54 -9 -74q0 -56 45 -56q36 0 75 36.5t57 72.5l47 280h119l-61 -355q-8 -44 -8 -55q0 -9 10.5 -12t40.5 -5v-53q-56 -14 -111 -14q-64 0 -64 44q0 15 3 35q-67 -79 -149 -79 q-62 0 -92.5 39.5t-30.5 102.5q0 34 8 84l25 145q7 41 7 52q0 9 -10.5 12.5t-39.5 5.5z" />
<glyph unicode="v" horiz-adv-x="490" d="M28 427l13 53q42 14 95 14q30 0 39.5 -16t15.5 -59l34 -247l70 112q62 100 62 136q0 14 -8 40l106 34q22 -38 22 -75q0 -57 -57 -144l-182 -275h-101l-59 391q-3 22 -12 28.5t-38 7.5z" />
<glyph unicode="w" horiz-adv-x="739" d="M28 427l13 53q54 14 93 14q32 0 42.5 -16t16.5 -62l30 -237l63 116q47 87 47 129q0 22 -8 41l114 29l47 -316l67 114q52 87 52 129q0 19 -9 39l106 34q24 -37 24 -78q0 -53 -54 -140l-171 -276h-100l-33 231l-135 -231h-98l-55 390q-3 23 -11.5 29.5t-40.5 7.5z" />
<glyph unicode="x" horiz-adv-x="508" d="M-7 0l195 263l-52 130q-9 21 -21.5 27.5t-42.5 6.5l11 53q54 14 97 14q24 0 38.5 -14t26.5 -47l32 -88l90 135h138l-184 -242l62 -142q12 -28 23 -35t48 -8v-53q-43 -14 -105 -14q-29 0 -46 17t-35 62l-36 87l-99 -152h-140z" />
<glyph unicode="y" horiz-adv-x="496" d="M-42 -214l32 100q39 -18 61 -18q30 0 49 19.5t55 82.5l10 19l-84 399q-5 24 -14 31.5t-37 7.5l11 52q48 15 93 15q30 0 42 -13.5t20 -54.5l55 -273l67 148q38 85 38 116q0 15 -10 43l108 34q24 -33 24 -72q0 -56 -58 -169l-158 -313q-87 -175 -204 -175q-55 0 -100 21z " />
<glyph unicode="z" horiz-adv-x="480" d="M18 0v67l260 318h-211l14 95h361v-68l-265 -317h249l-15 -95h-393z" />
<glyph unicode="{" horiz-adv-x="449" d="M21 280l12 73q75 13 104 40t42 97l24 139q16 93 67.5 127.5t141.5 34.5h86l-15 -86h-61q-53 0 -74 -14t-31 -74l-22 -130q-13 -75 -47.5 -115.5t-105.5 -53.5q52 -17 75 -45t23 -75q0 -34 -17 -119.5t-17 -102.5q0 -30 19.5 -38.5t60.5 -8.5h60l-15 -86h-76 q-84 0 -125.5 23.5t-41.5 85.5q0 25 17.5 120.5t17.5 122.5q0 39 -22 56.5t-80 28.5z" />
<glyph unicode="|" horiz-adv-x="300" d="M111 -235v1010h98v-1010h-98z" />
<glyph unicode="}" horiz-adv-x="449" d="M-42 -157l15 86h61q53 0 74 14t31 74l22 130q13 75 47.5 115.5t105.5 53.5q-52 17 -75 45t-23 75q0 34 17 119.5t17 102.5q0 30 -19.5 38.5t-60.5 8.5h-60l15 86h76q84 0 125.5 -23.5t41.5 -85.5q0 -25 -17.5 -120.5t-17.5 -122.5q0 -39 22 -56.5t80 -28.5l-12 -73 q-75 -13 -104 -40t-42 -97l-24 -139q-16 -93 -67.5 -127.5t-141.5 -34.5h-86z" />
<glyph unicode="~" d="M65 245q15 55 42.5 94t70.5 39q37 0 114.5 -29t97.5 -29q22 0 34 13t20 41l71 -21q-15 -55 -42.5 -94t-70.5 -39q-37 0 -114.5 29t-97.5 29q-22 0 -34 -13t-20 -41z" />
<glyph unicode="&#xa1;" horiz-adv-x="229" d="M-35 -190l120 461h83l-43 -461h-160zM75 418q0 32 22 54t53 22q32 0 51.5 -20.5t19.5 -49.5q0 -32 -22 -54t-53 -22q-32 0 -51.5 20.5t-19.5 49.5z" />
<glyph unicode="&#xa2;" d="M75 167q0 136 68.5 222.5t177.5 101.5l18 102h75l-18 -102q71 -9 106 -32l-40 -101q-37 20 -85 28l-50 -286q52 13 96 40l28 -103q-22 -16 -62.5 -30t-81.5 -19l-18 -102h-75l18 103q-70 9 -113.5 52t-43.5 126zM195 185q0 -74 56 -88l50 283q-48 -21 -77 -78.5 t-29 -116.5z" />
<glyph unicode="&#xa3;" d="M21 0v79q35 16 59.5 30t52.5 36t42.5 51.5t14.5 64.5q0 14 -3 29h-106l12 69h81q-6 28 -6 62q0 112 69.5 175.5t181.5 63.5q61 0 100 -13l-33 -113q-39 15 -89 15q-48 0 -76.5 -29.5t-28.5 -87.5q0 -23 10 -73h154l-14 -69h-129q1 -6 1 -17q0 -55 -28.5 -92t-86.5 -65 h244l-20 -116h-402z" />
<glyph unicode="&#xa4;" d="M36 138l82 70q-8 23 -8 54q0 81 45 140l-56 71l63 54l57 -70q44 23 98 23q56 0 92 -24l80 71l51 -63l-83 -70q8 -24 8 -50q0 -78 -45 -137l60 -74l-66 -53l-58 70q-45 -25 -101 -25q-54 0 -89 22l-78 -67zM213 274q0 -59 58 -59q41 0 66 33.5t25 78.5q0 36 -18.5 50 t-42.5 14q-41 0 -64.5 -36.5t-23.5 -80.5z" />
<glyph unicode="&#xa5;" d="M58 156l12 69h139l9 50h-139l12 69h102l-115 302h134l88 -253l174 253h144l-223 -302h98l-12 -69h-135l-9 -50h135l-12 -69h-135l-27 -156h-128l27 156h-139z" />
<glyph unicode="&#xa6;" horiz-adv-x="300" d="M111 135h98v-370h-98v370zM111 405v370h98v-370h-98z" />
<glyph unicode="&#xa7;" horiz-adv-x="499" d="M23 -60l41 94q55 -31 113 -31q61 0 61 39q0 20 -28.5 44.5t-62 46t-62 58.5t-28.5 78q0 64 42.5 102.5t107.5 53.5q-66 57 -66 115q0 71 52.5 107.5t136.5 36.5q93 0 158 -37l-41 -94q-55 31 -113 31q-61 0 -61 -39q0 -20 28.5 -44.5t62 -46t62 -58.5t28.5 -78 q0 -64 -42.5 -102.5t-108.5 -53.5q67 -58 67 -115q0 -71 -52.5 -107.5t-136.5 -36.5q-93 0 -158 37zM182 293q0 -34 49 -74q39 5 68.5 24.5t29.5 50.5t-50 74q-39 -6 -68 -25.5t-29 -49.5z" />
<glyph unicode="&#xa8;" horiz-adv-x="400" d="M89 641q0 32 22 54.5t54 22.5t51.5 -20.5t19.5 -49.5q0 -32 -22 -54.5t-54 -22.5t-51.5 20.5t-19.5 49.5zM309 641q0 32 22 54.5t54 22.5t51.5 -20.5t19.5 -49.5q0 -32 -22 -54.5t-54 -22.5t-51.5 20.5t-19.5 49.5z" />
<glyph unicode="&#xa9;" horiz-adv-x="786" d="M58 336q0 148 102 248t248 100t248 -99.5t102 -248.5q0 -146 -102.5 -248t-247.5 -102t-247.5 102t-102.5 248zM134 336q0 -118 78.5 -196.5t195.5 -78.5q118 0 196 78.5t78 196.5q0 117 -78.5 196.5t-195.5 79.5q-115 0 -194.5 -79.5t-79.5 -196.5zM228 329 q0 91 53 145.5t142 54.5q59 0 106 -25l-13 -81q-43 25 -90 25q-102 0 -102 -119q0 -44 24.5 -76t83.5 -32q56 0 98 21l7 -78q-44 -25 -113 -25q-88 0 -142 49.5t-54 140.5z" />
<glyph unicode="&#xaa;" horiz-adv-x="378" d="M73 456q0 59 19 109t63 84.5t107 34.5q77 0 133 -35l-40 -221q-6 -30 -6 -40q0 -7 7.5 -9t29.5 -4v-37q-33 -9 -83 -9q-45 0 -45 31q0 9 2 23q-17 -24 -42.5 -39t-52.5 -15q-43 0 -67.5 31.5t-24.5 95.5zM164 463q0 -56 36 -56q20 0 41.5 21t35.5 49l21 124 q-16 10 -45 10q-45 0 -67 -47t-22 -101z" />
<glyph unicode="&#xab;" horiz-adv-x="584" d="M38 238l216 210l63 -62l-139 -153l88 -147l-79 -55zM277 238l216 210l63 -62l-139 -153l88 -147l-79 -55z" />
<glyph unicode="&#xac;" d="M60 335v90h450v-242h-92v152h-358z" />
<glyph unicode="&#xad;" horiz-adv-x="350" d="M28 209l14 84h280l-14 -84h-280z" />
<glyph unicode="&#xae;" horiz-adv-x="786" d="M58 336q0 148 102 248t248 100t248 -99.5t102 -248.5q0 -146 -102.5 -248t-247.5 -102t-247.5 102t-102.5 248zM134 336q0 -118 78.5 -196.5t195.5 -78.5q118 0 196 78.5t78 196.5q0 117 -78.5 196.5t-195.5 79.5q-115 0 -194.5 -79.5t-79.5 -196.5zM284 149v371h133 q125 0 125 -105q0 -82 -90 -99q30 -7 46 -35l37 -67q10 -18 25 -18h15v-51q-15 -4 -56 -4q-37 0 -57 38l-51 91q-11 21 -31 21h-9v-142h-87zM371 362h28q58 0 58 50q0 26 -13.5 35t-44.5 9h-28v-94z" />
<glyph unicode="&#xaf;" horiz-adv-x="400" d="M127 590l16 95h270l-16 -95h-270z" />
<glyph unicode="&#xb0;" d="M152 486q0 75 49 124.5t129 49.5q65 0 106.5 -40.5t41.5 -105.5q0 -75 -49 -124t-129 -49q-65 0 -106.5 40t-41.5 105zM234 486q0 -32 21 -53.5t50 -21.5q39 0 65 28.5t26 74.5q0 32 -21 54t-50 22q-39 0 -65 -29t-26 -75z" />
<glyph unicode="&#xb1;" d="M65 0v90h450v-90h-450zM65 292v96h175v159h98v-159h177v-96h-177v-142h-98v142h-175z" />
<glyph unicode="&#xb2;" horiz-adv-x="400" d="M54 327v50q95 57 175.5 124.5t80.5 111.5q0 38 -43 38q-45 0 -104 -40l-41 70q28 23 71 39t89 16q57 0 93.5 -29t36.5 -77q0 -108 -179 -222h140l-19 -81h-300z" />
<glyph unicode="&#xb3;" horiz-adv-x="400" d="M67 372l54 65q39 -39 95 -39q30 0 45.5 12t15.5 31q0 51 -99 51h-20l14 67q128 10 128 67q0 30 -44 30q-50 0 -87 -33l-40 66q60 47 138 47q54 0 93 -25.5t39 -75.5q0 -43 -31 -70.5t-74 -33.5q35 -6 56.5 -31t21.5 -60q0 -57 -41.5 -89.5t-106.5 -32.5q-91 0 -157 54z " />
<glyph unicode="&#xb4;" horiz-adv-x="400" d="M162 580l91 172l131 -37l-176 -157z" />
<glyph unicode="&#xb5;" horiz-adv-x="575" d="M27 -99q0 20 5 52l71 404q7 40 7 52q0 9 -10.5 12.5t-39.5 5.5l11 52q45 15 104 15q33 0 47.5 -10t14.5 -34q0 -12 -8 -55l-31 -174q-9 -54 -9 -74q0 -56 45 -56q36 0 75 36.5t57 72.5l47 280h119l-61 -355q-8 -44 -8 -55q0 -9 10.5 -12t40.5 -5v-53q-56 -14 -111 -14 q-64 0 -64 44q0 15 3 35q-67 -79 -149 -79q-21 0 -39 6l-8 -38q-3 -17 -3 -29q0 -44 53 -77l-50 -83q-119 30 -119 136z" />
<glyph unicode="&#xb6;" horiz-adv-x="705" d="M80 435q0 120 75.5 177.5t196.5 57.5h383l-17 -92h-84l-116 -662h-117l116 663h-75l-116 -663h-117l62 353q-89 0 -140 47t-51 119zM190 447q0 -22 8 -38t18.5 -24t25 -13t24.5 -6t21 -1l38 214q-60 0 -97.5 -35t-37.5 -97z" />
<glyph unicode="&#xb7;" horiz-adv-x="251" d="M66 312q0 32 22 54t53 22q32 0 51.5 -20.5t19.5 -49.5q0 -32 -22 -54t-53 -22q-32 0 -51.5 20.5t-19.5 49.5z" />
<glyph unicode="&#xb8;" horiz-adv-x="400" d="M12 -216l20 49q28 -15 61 -15q37 0 37 30q0 29 -73 29l-7 26l96 97h72l-60 -58q40 0 64 -18.5t24 -51.5q0 -49 -43.5 -78t-103.5 -29q-53 0 -87 19z" />
<glyph unicode="&#xb9;" horiz-adv-x="400" d="M88 327l13 68l83 7l51 242l-89 -10l14 71l140 23h54l-67 -326l87 -7l-12 -68h-274z" />
<glyph unicode="&#xba;" horiz-adv-x="378" d="M72 468q0 93 47.5 154.5t136.5 61.5q59 0 96.5 -37t37.5 -103q0 -93 -47.5 -154.5t-136.5 -61.5q-59 0 -96.5 37t-37.5 103zM163 468q0 -27 13.5 -45t40.5 -18q34 0 58 40t24 99q0 29 -14 46t-40 17q-34 0 -58 -40t-24 -99z" />
<glyph unicode="&#xbb;" horiz-adv-x="584" d="M28 93l139 153l-88 147l79 55l149 -207l-216 -210zM267 93l139 153l-88 147l79 55l149 -207l-216 -210z" />
<glyph unicode="&#xbc;" horiz-adv-x="1000" d="M50 251l13 68l83 7l51 242l-89 -10l14 71l140 23h54l-67 -326l87 -7l-12 -68h-274zM225 45l560 615l65 -59l-560 -615zM593 86v56l291 262h66l-50 -243h42l-14 -75h-43l-17 -86h-100l19 86h-194zM723 161h81l19 85z" />
<glyph unicode="&#xbd;" horiz-adv-x="1000" d="M50 251l13 68l83 7l51 242l-89 -10l14 71l140 23h54l-67 -326l87 -7l-12 -68h-274zM187 45l560 615l65 -59l-560 -615zM591 0v50q95 57 175.5 124.5t80.5 111.5q0 38 -43 38q-45 0 -104 -40l-41 70q28 23 71 39t89 16q57 0 93.5 -29.5t36.5 -76.5q0 -108 -179 -222h140 l-19 -81h-300z" />
<glyph unicode="&#xbe;" horiz-adv-x="1000" d="M50 288l54 65q39 -39 95 -39q30 0 45.5 12t15.5 31q0 51 -99 51h-20l14 67q128 10 128 67q0 30 -44 30q-50 0 -87 -33l-40 66q60 47 138 47q54 0 93 -25.5t39 -75.5q0 -43 -31 -70.5t-74 -33.5q35 -6 56.5 -31t21.5 -60q0 -57 -41.5 -89.5t-106.5 -32.5q-91 0 -157 54z M227 45l560 615l65 -59l-560 -615zM593 86v56l291 262h66l-50 -243h42l-14 -75h-43l-17 -86h-100l19 86h-194zM723 161h81l19 85z" />
<glyph unicode="&#xbf;" horiz-adv-x="381" d="M-42 -70q0 44 22.5 81.5t55 63.5t65 51t55 54.5t22.5 62.5v28h113v-48q0 -36 -21 -70.5t-50.5 -61t-59.5 -50.5t-51 -49t-21 -46q0 -44 59 -44q54 0 111 37l48 -94q-31 -20 -81 -34.5t-103 -14.5q-74 0 -119 37t-45 97zM172 418q0 32 22 54t53 22q32 0 51.5 -20.5 t19.5 -49.5q0 -32 -22 -54t-53 -22q-32 0 -51.5 20.5t-19.5 49.5z" />
<glyph unicode="&#xc0;" horiz-adv-x="659" d="M-21 0l390 670h78l155 -670h-132l-34 162h-228l-92 -162h-137zM239 807l108 91l146 -130l-40 -42zM267 265h147l-40 188z" />
<glyph unicode="&#xc1;" horiz-adv-x="659" d="M-21 0l390 670h78l155 -670h-132l-34 162h-228l-92 -162h-137zM267 265h147l-40 188zM312 768l151 130l108 -91l-219 -81z" />
<glyph unicode="&#xc2;" horiz-adv-x="659" d="M-21 0l390 670h78l155 -670h-132l-34 162h-228l-92 -162h-137zM267 265h147l-40 188zM278 742l119 142h81l60 -142l-49 -17l-62 63l-100 -63z" />
<glyph unicode="&#xc3;" horiz-adv-x="659" d="M-21 0l390 670h78l155 -670h-132l-34 162h-228l-92 -162h-137zM265 753q24 66 49.5 98.5t60.5 32.5q20 0 64.5 -20.5t59.5 -20.5q24 0 45 39l40 -13q-24 -66 -49.5 -98.5t-60.5 -32.5q-20 0 -64.5 20.5t-59.5 20.5q-24 0 -45 -39zM267 265h147l-40 188z" />
<glyph unicode="&#xc4;" horiz-adv-x="659" d="M-21 0l390 670h78l155 -670h-132l-34 162h-228l-92 -162h-137zM236 806q0 32 22 54.5t54 22.5t51.5 -20.5t19.5 -49.5q0 -32 -22 -54.5t-54 -22.5t-51.5 20.5t-19.5 49.5zM267 265h147l-40 188zM456 806q0 32 22 54.5t54 22.5t51.5 -20.5t19.5 -49.5q0 -32 -22 -54.5 t-54 -22.5t-51.5 20.5t-19.5 49.5z" />
<glyph unicode="&#xc5;" horiz-adv-x="659" d="M-21 0l390 670h78l155 -670h-132l-34 162h-228l-92 -162h-137zM267 265h147l-40 188zM303 798q0 51 36 83.5t88 32.5q44 0 74.5 -24.5t30.5 -68.5q0 -51 -36 -83.5t-88 -32.5q-44 0 -74.5 24.5t-30.5 68.5zM378 801q0 -17 10 -27t26 -10q17 0 30 16t13 38q0 17 -10 27 t-26 10q-17 0 -30 -16t-13 -38z" />
<glyph unicode="&#xc6;" horiz-adv-x="907" d="M-26 0l559 670h388l-21 -116h-257l-25 -146h212l-20 -112h-212l-31 -180h269l-20 -116h-398l28 161h-176l-129 -161h-167zM353 264h111l31 176z" />
<glyph unicode="&#xc7;" horiz-adv-x="635" d="M53 279q0 173 104 289t286 116q105 0 194 -42l-39 -111q-74 40 -150 40q-122 0 -191.5 -82t-69.5 -204q0 -93 48.5 -140.5t140.5 -47.5q43 0 93.5 12.5t83.5 28.5l15 -107q-68 -35 -184 -43l-47 -46q40 0 64 -18.5t24 -51.5q0 -49 -43.5 -78t-103.5 -29q-53 0 -87 19 l20 49q28 -15 61 -15q37 0 37 30q0 29 -73 29l-7 26l83 85q-127 9 -193 84.5t-66 206.5z" />
<glyph unicode="&#xc8;" horiz-adv-x="519" d="M30 0l117 670h386l-21 -116h-257l-25 -146h212l-20 -112h-212l-31 -180h269l-20 -116h-398zM193 807l108 91l146 -130l-40 -42z" />
<glyph unicode="&#xc9;" horiz-adv-x="519" d="M30 0l117 670h386l-21 -116h-257l-25 -146h212l-20 -112h-212l-31 -180h269l-20 -116h-398zM228 768l151 130l108 -91l-219 -81z" />
<glyph unicode="&#xca;" horiz-adv-x="519" d="M30 0l117 670h386l-21 -116h-257l-25 -146h212l-20 -112h-212l-31 -180h269l-20 -116h-398zM200 742l119 142h81l60 -142l-49 -17l-62 63l-100 -63z" />
<glyph unicode="&#xcb;" horiz-adv-x="521" d="M30 0l117 670h386l-21 -116h-257l-25 -146h212l-20 -112h-212l-31 -180h269l-20 -116h-398zM168 806q0 32 22 54.5t54 22.5t51.5 -20.5t19.5 -49.5q0 -32 -22 -54.5t-54 -22.5t-51.5 20.5t-19.5 49.5zM388 806q0 32 22 54.5t54 22.5t51.5 -20.5t19.5 -49.5 q0 -32 -22 -54.5t-54 -22.5t-51.5 20.5t-19.5 49.5z" />
<glyph unicode="&#xcc;" horiz-adv-x="275" d="M30 0l117 670h128l-117 -670h-128zM44 807l108 91l146 -130l-40 -42z" />
<glyph unicode="&#xcd;" horiz-adv-x="275" d="M30 0l117 670h128l-117 -670h-128zM154 768l151 130l108 -91l-219 -81z" />
<glyph unicode="&#xce;" horiz-adv-x="275" d="M30 0l117 670h128l-117 -670h-128zM88 742l119 142h81l60 -142l-49 -17l-62 63l-100 -63z" />
<glyph unicode="&#xcf;" horiz-adv-x="275" d="M30 0l117 670h128l-117 -670h-128zM44 806q0 32 22 54.5t54 22.5t51.5 -20.5t19.5 -49.5q0 -32 -22 -54.5t-54 -22.5t-51.5 20.5t-19.5 49.5zM264 806q0 32 22 54.5t54 22.5t51.5 -20.5t19.5 -49.5q0 -32 -22 -54.5t-54 -22.5t-51.5 20.5t-19.5 49.5z" />
<glyph unicode="&#xd0;" horiz-adv-x="706" d="M23 316l12 70h74l50 284h225q141 0 220 -68.5t79 -205.5q0 -84 -21.5 -153.5t-66 -125t-121 -86.5t-178.5 -31h-254l55 316h-74zM190 116h95q127 0 194 75t67 199q0 164 -183 164h-97l-30 -168h123l-12 -70h-123z" />
<glyph unicode="&#xd1;" horiz-adv-x="691" d="M30 0l117 670h138l208 -411l71 411h127l-117 -670h-92l-242 480l-83 -480h-127zM272 753q24 66 49.5 98.5t60.5 32.5q20 0 64.5 -20.5t59.5 -20.5q24 0 45 39l40 -13q-24 -66 -49.5 -98.5t-60.5 -32.5q-20 0 -64.5 20.5t-59.5 20.5q-24 0 -45 -39z" />
<glyph unicode="&#xd2;" horiz-adv-x="714" d="M53 245q0 122 41.5 219.5t129.5 158.5t209 61q124 0 191 -71t67 -188q0 -122 -41.5 -219.5t-129.5 -158.5t-209 -61q-124 0 -191 71t-67 188zM185 253q0 -74 37 -114.5t100 -40.5q106 0 171.5 96.5t65.5 222.5q0 74 -37 114.5t-100 40.5q-106 0 -171.5 -96.5 t-65.5 -222.5zM276 807l108 91l146 -130l-40 -42z" />
<glyph unicode="&#xd3;" horiz-adv-x="714" d="M53 245q0 122 41.5 219.5t129.5 158.5t209 61q124 0 191 -71t67 -188q0 -122 -41.5 -219.5t-129.5 -158.5t-209 -61q-124 0 -191 71t-67 188zM185 253q0 -74 37 -114.5t100 -40.5q106 0 171.5 96.5t65.5 222.5q0 74 -37 114.5t-100 40.5q-106 0 -171.5 -96.5 t-65.5 -222.5zM301 768l151 130l108 -91l-219 -81z" />
<glyph unicode="&#xd4;" horiz-adv-x="714" d="M53 245q0 122 41.5 219.5t129.5 158.5t209 61q124 0 191 -71t67 -188q0 -122 -41.5 -219.5t-129.5 -158.5t-209 -61q-124 0 -191 71t-67 188zM185 253q0 -74 37 -114.5t100 -40.5q106 0 171.5 96.5t65.5 222.5q0 74 -37 114.5t-100 40.5q-106 0 -171.5 -96.5 t-65.5 -222.5zM310 742l119 142h81l60 -142l-49 -17l-62 63l-100 -63z" />
<glyph unicode="&#xd5;" horiz-adv-x="714" d="M53 245q0 122 41.5 219.5t129.5 158.5t209 61q124 0 191 -71t67 -188q0 -122 -41.5 -219.5t-129.5 -158.5t-209 -61q-124 0 -191 71t-67 188zM185 253q0 -74 37 -114.5t100 -40.5q106 0 171.5 96.5t65.5 222.5q0 74 -37 114.5t-100 40.5q-106 0 -171.5 -96.5 t-65.5 -222.5zM288 753q24 66 49.5 98.5t60.5 32.5q20 0 64.5 -20.5t59.5 -20.5q24 0 45 39l40 -13q-24 -66 -49.5 -98.5t-60.5 -32.5q-20 0 -64.5 20.5t-59.5 20.5q-24 0 -45 -39z" />
<glyph unicode="&#xd6;" horiz-adv-x="714" d="M53 245q0 122 41.5 219.5t129.5 158.5t209 61q124 0 191 -71t67 -188q0 -122 -41.5 -219.5t-129.5 -158.5t-209 -61q-124 0 -191 71t-67 188zM185 253q0 -74 37 -114.5t100 -40.5q106 0 171.5 96.5t65.5 222.5q0 74 -37 114.5t-100 40.5q-106 0 -171.5 -96.5 t-65.5 -222.5zM261 806q0 32 22 54.5t54 22.5t51.5 -20.5t19.5 -49.5q0 -32 -22 -54.5t-54 -22.5t-51.5 20.5t-19.5 49.5zM481 806q0 32 22 54.5t54 22.5t51.5 -20.5t19.5 -49.5q0 -32 -22 -54.5t-54 -22.5t-51.5 20.5t-19.5 49.5z" />
<glyph unicode="&#xd7;" d="M90 168l129 130l-129 130l71 69l128 -129l129 129l71 -69l-130 -130l130 -130l-71 -69l-129 129l-128 -129z" />
<glyph unicode="&#xd8;" horiz-adv-x="724" d="M-7 -34l108 119q-43 64 -43 160q0 122 41.5 219.5t129.5 158.5t209 61q98 0 165 -48l62 68h96l-109 -120q44 -65 44 -159q0 -122 -41.5 -219.5t-129.5 -158.5t-209 -61q-102 0 -165 48l-62 -68h-96zM190 253q0 -38 8 -62l319 350q-36 31 -90 31q-106 0 -171.5 -96.5 t-65.5 -222.5zM237 128q35 -30 90 -30q106 0 171.5 96.5t65.5 222.5q0 34 -9 61z" />
<glyph unicode="&#xd9;" horiz-adv-x="688" d="M58 198q0 26 7 66l72 406h129l-70 -396q-7 -44 -7 -65q0 -106 134 -106q143 0 170 152l73 415h129l-78 -449q-20 -114 -98.5 -174.5t-207.5 -60.5q-109 0 -181 52t-72 160zM220 807l108 91l146 -130l-40 -42z" />
<glyph unicode="&#xda;" horiz-adv-x="688" d="M58 198q0 26 7 66l72 406h129l-70 -396q-7 -44 -7 -65q0 -106 134 -106q143 0 170 152l73 415h129l-78 -449q-20 -114 -98.5 -174.5t-207.5 -60.5q-109 0 -181 52t-72 160zM348 768l151 130l108 -91l-219 -81z" />
<glyph unicode="&#xdb;" horiz-adv-x="688" d="M58 198q0 26 7 66l72 406h129l-70 -396q-7 -44 -7 -65q0 -106 134 -106q143 0 170 152l73 415h129l-78 -449q-20 -114 -98.5 -174.5t-207.5 -60.5q-109 0 -181 52t-72 160zM288 742l119 142h81l60 -142l-49 -17l-62 63l-100 -63z" />
<glyph unicode="&#xdc;" horiz-adv-x="688" d="M58 198q0 26 7 66l72 406h129l-70 -396q-7 -44 -7 -65q0 -106 134 -106q143 0 170 152l73 415h129l-78 -449q-20 -114 -98.5 -174.5t-207.5 -60.5q-109 0 -181 52t-72 160zM243 806q0 32 22 54.5t54 22.5t51.5 -20.5t19.5 -49.5q0 -32 -22 -54.5t-54 -22.5t-51.5 20.5 t-19.5 49.5zM463 806q0 32 22 54.5t54 22.5t51.5 -20.5t19.5 -49.5q0 -32 -22 -54.5t-54 -22.5t-51.5 20.5t-19.5 49.5z" />
<glyph unicode="&#xdd;" horiz-adv-x="610" d="M100 670h137l89 -283l184 283h146l-288 -417l-44 -253h-128l46 264zM312 768l151 130l108 -91l-219 -81z" />
<glyph unicode="&#xde;" horiz-adv-x="554" d="M30 0l117 670h128l-25 -140h81q205 0 205 -169q0 -116 -73.5 -174.5t-198.5 -58.5h-84l-22 -128h-128zM199 238h58q147 0 147 104q0 72 -87 72h-87z" />
<glyph unicode="&#xdf;" horiz-adv-x="632" d="M-114 -212l34 103q32 -18 66 -18q28 0 41 20.5t22 74.5l70 413h-80l19 99h77l5 26q18 104 82.5 162t167.5 58q97 0 153 -37t56 -99q0 -38 -19 -69.5t-46 -52.5t-54 -39.5t-46 -37.5t-19 -38t18.5 -36.5t45 -33.5t53 -34.5t45 -48t18.5 -66.5q0 -68 -50 -108t-133 -40 q-50 0 -101.5 15.5t-77.5 34.5l44 94q26 -17 67.5 -32t75.5 -15q27 0 42 11.5t15 29.5q0 22 -28.5 44.5t-62 40.5t-62 53t-28.5 79q0 45 25.5 84.5t56 62t56 47.5t25.5 45q0 21 -20.5 33t-55.5 12q-103 0 -127 -139l-93 -543q-16 -96 -55 -137t-109 -41q-55 0 -113 23z" />
<glyph unicode="&#xe0;" horiz-adv-x="532" d="M35 168q0 62 16 119t48 104t85.5 75t121.5 28q109 0 181 -50l-55 -319q-8 -46 -8 -55t10.5 -12t40.5 -5v-53q-56 -14 -111 -14q-64 0 -64 44q0 13 3 33q-24 -35 -61 -56t-75 -21q-62 0 -97 45.5t-35 136.5zM155 182q0 -92 50 -92q30 0 65.5 32.5t56.5 75.5l29 175 q-25 16 -64 16q-67 0 -102 -66t-35 -141zM189 718l129 36l52 -176l-51 -18z" />
<glyph unicode="&#xe1;" horiz-adv-x="532" d="M35 168q0 62 16 119t48 104t85.5 75t121.5 28q109 0 181 -50l-55 -319q-8 -46 -8 -55t10.5 -12t40.5 -5v-53q-56 -14 -111 -14q-64 0 -64 44q0 13 3 33q-24 -35 -61 -56t-75 -21q-62 0 -97 45.5t-35 136.5zM155 182q0 -92 50 -92q30 0 65.5 32.5t56.5 75.5l29 175 q-25 16 -64 16q-67 0 -102 -66t-35 -141zM253 580l91 172l131 -37l-176 -157z" />
<glyph unicode="&#xe2;" horiz-adv-x="532" d="M35 168q0 62 16 119t48 104t85.5 75t121.5 28q109 0 181 -50l-55 -319q-8 -46 -8 -55t10.5 -12t40.5 -5v-53q-56 -14 -111 -14q-64 0 -64 44q0 13 3 33q-24 -35 -61 -56t-75 -21q-62 0 -97 45.5t-35 136.5zM155 182q0 -92 50 -92q30 0 65.5 32.5t56.5 75.5l29 175 q-25 16 -64 16q-67 0 -102 -66t-35 -141zM185 575l119 167h81l60 -167l-49 -17l-62 78l-100 -78z" />
<glyph unicode="&#xe3;" horiz-adv-x="532" d="M35 168q0 62 16 119t48 104t85.5 75t121.5 28q109 0 181 -50l-55 -319q-8 -46 -8 -55t10.5 -12t40.5 -5v-53q-56 -14 -111 -14q-64 0 -64 44q0 13 3 33q-24 -35 -61 -56t-75 -21q-62 0 -97 45.5t-35 136.5zM155 182q0 -92 50 -92q30 0 65.5 32.5t56.5 75.5l29 175 q-25 16 -64 16q-67 0 -102 -66t-35 -141zM166 591q24 66 49.5 98.5t60.5 32.5q20 0 64.5 -20.5t59.5 -20.5q24 0 45 39l40 -13q-24 -66 -49.5 -98.5t-60.5 -32.5q-20 0 -64.5 20.5t-59.5 20.5q-24 0 -45 -39z" />
<glyph unicode="&#xe4;" horiz-adv-x="532" d="M35 168q0 62 16 119t48 104t85.5 75t121.5 28q109 0 181 -50l-55 -319q-8 -46 -8 -55t10.5 -12t40.5 -5v-53q-56 -14 -111 -14q-64 0 -64 44q0 13 3 33q-24 -35 -61 -56t-75 -21q-62 0 -97 45.5t-35 136.5zM139 641q0 32 22 54.5t54 22.5t51.5 -20.5t19.5 -49.5 q0 -32 -22 -54.5t-54 -22.5t-51.5 20.5t-19.5 49.5zM155 182q0 -92 50 -92q30 0 65.5 32.5t56.5 75.5l29 175q-25 16 -64 16q-67 0 -102 -66t-35 -141zM359 641q0 32 22 54.5t54 22.5t51.5 -20.5t19.5 -49.5q0 -32 -22 -54.5t-54 -22.5t-51.5 20.5t-19.5 49.5z" />
<glyph unicode="&#xe5;" horiz-adv-x="532" d="M35 168q0 62 16 119t48 104t85.5 75t121.5 28q109 0 181 -50l-55 -319q-8 -46 -8 -55t10.5 -12t40.5 -5v-53q-56 -14 -111 -14q-64 0 -64 44q0 13 3 33q-24 -35 -61 -56t-75 -21q-62 0 -97 45.5t-35 136.5zM155 182q0 -92 50 -92q30 0 65.5 32.5t56.5 75.5l29 175 q-25 16 -64 16q-67 0 -102 -66t-35 -141zM208 640q0 51 36 83.5t88 32.5q44 0 74.5 -24.5t30.5 -68.5q0 -51 -36 -83.5t-88 -32.5q-44 0 -74.5 24.5t-30.5 68.5zM283 643q0 -17 10 -27t26 -10q17 0 30 16t13 38q0 17 -10 27t-26 10q-17 0 -30 -16t-13 -38z" />
<glyph unicode="&#xe6;" horiz-adv-x="726" d="M18 93q0 33 12.5 60.5t37 45.5t50.5 31t62.5 21.5t64 13t62.5 8.5l5 30q4 32 4 36q0 24 -14.5 34.5t-46.5 10.5q-65 0 -145 -39l-21 93q91 56 197 56q105 0 132 -57q70 57 152 57q65 0 101.5 -29t36.5 -84q0 -78 -78.5 -128.5t-209.5 -54.5v-12q0 -92 63 -92q36 0 81 18 t74 37l28 -104q-32 -22 -88.5 -40.5t-106.5 -18.5q-119 0 -155 89q-31 -42 -76.5 -65.5t-97.5 -23.5q-58 0 -91 29t-33 78zM146 107q0 -15 12.5 -24t31.5 -9q32 0 63 29.5t49 90.5q-156 -17 -156 -87zM434 280q68 8 109.5 30.5t41.5 56.5q0 31 -37 31q-29 0 -62.5 -31.5 t-51.5 -86.5z" />
<glyph unicode="&#xe7;" horiz-adv-x="439" d="M33 167q0 141 72 234t200 93q33 0 67 -10.5t54 -24.5l-41 -103q-41 33 -96 33q-61 0 -98.5 -62.5t-37.5 -141.5q0 -91 67 -91q48 0 127 46l28 -103q-50 -34 -133 -47l-49 -48q40 0 64 -18.5t24 -51.5q0 -49 -43.5 -78t-103.5 -29q-53 0 -87 19l20 49q28 -15 61 -15 q37 0 37 30q0 29 -73 29l-7 26l85 85q-137 19 -137 179z" />
<glyph unicode="&#xe8;" horiz-adv-x="459" d="M33 171q0 81 30.5 153.5t93.5 121t147 48.5q59 0 98 -27t39 -86q0 -78 -78.5 -128.5t-209.5 -54.5v-12q0 -92 63 -92q36 0 81 18t74 37l28 -104q-32 -22 -88.5 -40.5t-106.5 -18.5q-171 0 -171 185zM133 718l129 36l52 -176l-51 -18zM167 280q68 8 109.5 30.5t41.5 56.5 q0 31 -37 31q-29 0 -62.5 -31.5t-51.5 -86.5z" />
<glyph unicode="&#xe9;" horiz-adv-x="459" d="M33 171q0 81 30.5 153.5t93.5 121t147 48.5q59 0 98 -27t39 -86q0 -78 -78.5 -128.5t-209.5 -54.5v-12q0 -92 63 -92q36 0 81 18t74 37l28 -104q-32 -22 -88.5 -40.5t-106.5 -18.5q-171 0 -171 185zM167 280q68 8 109.5 30.5t41.5 56.5q0 31 -37 31q-29 0 -62.5 -31.5 t-51.5 -86.5zM202 580l91 172l131 -37l-176 -157z" />
<glyph unicode="&#xea;" horiz-adv-x="459" d="M33 171q0 81 30.5 153.5t93.5 121t147 48.5q59 0 98 -27t39 -86q0 -78 -78.5 -128.5t-209.5 -54.5v-12q0 -92 63 -92q36 0 81 18t74 37l28 -104q-32 -22 -88.5 -40.5t-106.5 -18.5q-171 0 -171 185zM151 575l119 167h81l60 -167l-49 -17l-62 78l-100 -78zM167 280 q68 8 109.5 30.5t41.5 56.5q0 31 -37 31q-29 0 -62.5 -31.5t-51.5 -86.5z" />
<glyph unicode="&#xeb;" horiz-adv-x="459" d="M33 171q0 81 30.5 153.5t93.5 121t147 48.5q59 0 98 -27t39 -86q0 -78 -78.5 -128.5t-209.5 -54.5v-12q0 -92 63 -92q36 0 81 18t74 37l28 -104q-32 -22 -88.5 -40.5t-106.5 -18.5q-171 0 -171 185zM107 641q0 32 22 54.5t54 22.5t51.5 -20.5t19.5 -49.5q0 -32 -22 -54.5 t-54 -22.5t-51.5 20.5t-19.5 49.5zM167 280q68 8 109.5 30.5t41.5 56.5q0 31 -37 31q-29 0 -62.5 -31.5t-51.5 -86.5zM327 641q0 32 22 54.5t54 22.5t51.5 -20.5t19.5 -49.5q0 -32 -22 -54.5t-54 -22.5t-51.5 20.5t-19.5 49.5z" />
<glyph unicode="&#xec;" horiz-adv-x="289" d="M47 33q0 6 6 45l49 277q7 41 7 55q0 16 -50 17l11 52q52 15 101 15q63 0 63 -44q0 -16 -8 -64l-45 -263q-8 -42 -8 -52q0 -9 11 -12.5t40 -5.5v-53q-9 -3 -47.5 -8.5t-66.5 -5.5q-63 0 -63 47zM47 718l129 36l52 -176l-51 -18z" />
<glyph unicode="&#xed;" horiz-adv-x="289" d="M47 33q0 6 6 45l49 277q7 41 7 55q0 16 -50 17l11 52q52 15 101 15q63 0 63 -44q0 -16 -8 -64l-45 -263q-8 -42 -8 -52q0 -9 11 -12.5t40 -5.5v-53q-9 -3 -47.5 -8.5t-66.5 -5.5q-63 0 -63 47zM115 580l91 172l131 -37l-176 -157z" />
<glyph unicode="&#xee;" horiz-adv-x="289" d="M39 575l119 167h81l60 -167l-49 -17l-62 78l-100 -78zM47 33q0 6 6 45l49 277q7 41 7 55q0 16 -50 17l11 52q52 15 101 15q63 0 63 -44q0 -16 -8 -64l-45 -263q-8 -42 -8 -52q0 -9 11 -12.5t40 -5.5v-53q-9 -3 -47.5 -8.5t-66.5 -5.5q-63 0 -63 47z" />
<glyph unicode="&#xef;" horiz-adv-x="289" d="M-3 641q0 32 22 54.5t54 22.5t51.5 -20.5t19.5 -49.5q0 -32 -22 -54.5t-54 -22.5t-51.5 20.5t-19.5 49.5zM47 33q0 6 6 45l49 277q7 41 7 55q0 16 -50 17l11 52q52 15 101 15q63 0 63 -44q0 -16 -8 -64l-45 -263q-8 -42 -8 -52q0 -9 11 -12.5t40 -5.5v-53 q-9 -3 -47.5 -8.5t-66.5 -5.5q-63 0 -63 47zM217 641q0 32 22 54.5t54 22.5t51.5 -20.5t19.5 -49.5q0 -32 -22 -54.5t-54 -22.5t-51.5 20.5t-19.5 49.5z" />
<glyph unicode="&#xf0;" horiz-adv-x="516" d="M33 175q0 126 70 211t189 85q29 0 54 -5q-17 44 -47 79l-130 -47l12 80l57 21q-36 23 -72 35l61 100q82 -31 143 -87l130 47l-11 -80l-69 -25q70 -101 70 -236q0 -149 -79 -258t-207 -109q-83 0 -127 49.5t-44 139.5zM157 179q0 -89 60 -89q46 0 81 45.5t51 103.5t17 114 q-37 13 -71 13q-67 0 -102.5 -55.5t-35.5 -131.5z" />
<glyph unicode="&#xf1;" horiz-adv-x="559" d="M41 0l61 354q7 43 7 55q0 7 -5 10.5t-15 5t-30 2.5l11 52q41 15 101 15q63 0 63 -44q0 -7 -4 -33q65 77 150 77q63 0 93.5 -38.5t30.5 -100.5q0 -37 -7 -74l-26 -158q-8 -47 -8 -54q0 -13 51 -16v-53q-44 -14 -113 -14q-64 0 -64 47q0 15 4 36l36 194q7 37 7 64 q0 63 -45 63q-33 0 -70 -32.5t-61 -71.5l-48 -286h-119zM159 591q24 66 49.5 98.5t60.5 32.5q20 0 64.5 -20.5t59.5 -20.5q24 0 45 39l40 -13q-24 -66 -49.5 -98.5t-60.5 -32.5q-20 0 -64.5 20.5t-59.5 20.5q-24 0 -45 -39z" />
<glyph unicode="&#xf2;" horiz-adv-x="494" d="M33 183q0 129 66.5 220t187.5 91q83 0 128.5 -52.5t45.5 -144.5q0 -129 -66.5 -220t-187.5 -91q-83 0 -128.5 52.5t-45.5 144.5zM153 184q0 -98 69 -98q50 0 84.5 60t34.5 150q0 98 -69 98q-50 0 -84.5 -60t-34.5 -150zM160 718l129 36l52 -176l-51 -18z" />
<glyph unicode="&#xf3;" horiz-adv-x="494" d="M33 183q0 129 66.5 220t187.5 91q83 0 128.5 -52.5t45.5 -144.5q0 -129 -66.5 -220t-187.5 -91q-83 0 -128.5 52.5t-45.5 144.5zM153 184q0 -98 69 -98q50 0 84.5 60t34.5 150q0 98 -69 98q-50 0 -84.5 -60t-34.5 -150zM216 580l91 172l131 -37l-176 -157z" />
<glyph unicode="&#xf4;" horiz-adv-x="494" d="M33 183q0 129 66.5 220t187.5 91q83 0 128.5 -52.5t45.5 -144.5q0 -129 -66.5 -220t-187.5 -91q-83 0 -128.5 52.5t-45.5 144.5zM153 184q0 -98 69 -98q50 0 84.5 60t34.5 150q0 98 -69 98q-50 0 -84.5 -60t-34.5 -150zM158 575l119 167h81l60 -167l-49 -17l-62 78 l-100 -78z" />
<glyph unicode="&#xf5;" horiz-adv-x="494" d="M33 183q0 129 66.5 220t187.5 91q83 0 128.5 -52.5t45.5 -144.5q0 -129 -66.5 -220t-187.5 -91q-83 0 -128.5 52.5t-45.5 144.5zM143 591q24 66 49.5 98.5t60.5 32.5q20 0 64.5 -20.5t59.5 -20.5q24 0 45 39l40 -13q-24 -66 -49.5 -98.5t-60.5 -32.5q-20 0 -64.5 20.5 t-59.5 20.5q-24 0 -45 -39zM153 184q0 -98 69 -98q50 0 84.5 60t34.5 150q0 98 -69 98q-50 0 -84.5 -60t-34.5 -150z" />
<glyph unicode="&#xf6;" horiz-adv-x="494" d="M33 183q0 129 66.5 220t187.5 91q83 0 128.5 -52.5t45.5 -144.5q0 -129 -66.5 -220t-187.5 -91q-83 0 -128.5 52.5t-45.5 144.5zM124 641q0 32 22 54.5t54 22.5t51.5 -20.5t19.5 -49.5q0 -32 -22 -54.5t-54 -22.5t-51.5 20.5t-19.5 49.5zM153 184q0 -98 69 -98 q50 0 84.5 60t34.5 150q0 98 -69 98q-50 0 -84.5 -60t-34.5 -150zM344 641q0 32 22 54.5t54 22.5t51.5 -20.5t19.5 -49.5q0 -32 -22 -54.5t-54 -22.5t-51.5 20.5t-19.5 49.5z" />
<glyph unicode="&#xf7;" d="M65 254v97h450v-97h-450zM224 138q0 28 19 47.5t46 19.5q29 0 48 -19.5t19 -47.5q0 -27 -19.5 -46t-47.5 -19q-27 0 -46 19t-19 46zM224 469q0 28 19 47t46 19q28 0 47.5 -19t19.5 -47t-19.5 -47t-47.5 -19q-27 0 -46 19t-19 47z" />
<glyph unicode="&#xf8;" horiz-adv-x="504" d="M-33 -25l92 101q-21 45 -21 107q0 129 66.5 220t187.5 91q67 0 111 -36l43 47h90l-92 -101q22 -47 22 -107q0 -129 -66.5 -220t-187.5 -91q-68 0 -113 37l-43 -48h-89zM158 186l168 186q-17 22 -49 22q-50 0 -84.5 -59.5t-34.5 -148.5zM177 109q17 -23 50 -23 q50 0 84 59.5t35 149.5z" />
<glyph unicode="&#xf9;" horiz-adv-x="558" d="M43 427l11 52q45 15 104 15q33 0 47.5 -10t14.5 -34q0 -12 -8 -55l-31 -174q-9 -54 -9 -74q0 -56 45 -56q36 0 75 36.5t57 72.5l47 280h119l-61 -355q-8 -44 -8 -55q0 -9 10.5 -12t40.5 -5v-53q-56 -14 -111 -14q-64 0 -64 44q0 15 3 35q-67 -79 -149 -79 q-62 0 -92.5 39.5t-30.5 102.5q0 34 8 84l25 145q7 41 7 52q0 9 -10.5 12.5t-39.5 5.5zM164 718l129 36l52 -176l-51 -18z" />
<glyph unicode="&#xfa;" horiz-adv-x="558" d="M43 427l11 52q45 15 104 15q33 0 47.5 -10t14.5 -34q0 -12 -8 -55l-31 -174q-9 -54 -9 -74q0 -56 45 -56q36 0 75 36.5t57 72.5l47 280h119l-61 -355q-8 -44 -8 -55q0 -9 10.5 -12t40.5 -5v-53q-56 -14 -111 -14q-64 0 -64 44q0 15 3 35q-67 -79 -149 -79 q-62 0 -92.5 39.5t-30.5 102.5q0 34 8 84l25 145q7 41 7 52q0 9 -10.5 12.5t-39.5 5.5zM239 580l91 172l131 -37l-176 -157z" />
<glyph unicode="&#xfb;" horiz-adv-x="558" d="M43 427l11 52q45 15 104 15q33 0 47.5 -10t14.5 -34q0 -12 -8 -55l-31 -174q-9 -54 -9 -74q0 -56 45 -56q36 0 75 36.5t57 72.5l47 280h119l-61 -355q-8 -44 -8 -55q0 -9 10.5 -12t40.5 -5v-53q-56 -14 -111 -14q-64 0 -64 44q0 15 3 35q-67 -79 -149 -79 q-62 0 -92.5 39.5t-30.5 102.5q0 34 8 84l25 145q7 41 7 52q0 9 -10.5 12.5t-39.5 5.5zM181 575l119 167h81l60 -167l-49 -17l-62 78l-100 -78z" />
<glyph unicode="&#xfc;" horiz-adv-x="558" d="M43 427l11 52q45 15 104 15q33 0 47.5 -10t14.5 -34q0 -12 -8 -55l-31 -174q-9 -54 -9 -74q0 -56 45 -56q36 0 75 36.5t57 72.5l47 280h119l-61 -355q-8 -44 -8 -55q0 -9 10.5 -12t40.5 -5v-53q-56 -14 -111 -14q-64 0 -64 44q0 15 3 35q-67 -79 -149 -79 q-62 0 -92.5 39.5t-30.5 102.5q0 34 8 84l25 145q7 41 7 52q0 9 -10.5 12.5t-39.5 5.5zM130 641q0 32 22 54.5t54 22.5t51.5 -20.5t19.5 -49.5q0 -32 -22 -54.5t-54 -22.5t-51.5 20.5t-19.5 49.5zM350 641q0 32 22 54.5t54 22.5t51.5 -20.5t19.5 -49.5q0 -32 -22 -54.5 t-54 -22.5t-51.5 20.5t-19.5 49.5z" />
<glyph unicode="&#xfd;" horiz-adv-x="496" d="M-42 -214l32 100q39 -18 61 -18q30 0 49 19.5t55 82.5l10 19l-84 399q-5 24 -14 31.5t-37 7.5l11 52q48 15 93 15q30 0 42 -13.5t20 -54.5l55 -273l67 148q38 85 38 116q0 15 -10 43l108 34q24 -33 24 -72q0 -56 -58 -169l-158 -313q-87 -175 -204 -175q-55 0 -100 21z M223 580l91 172l131 -37l-176 -157z" />
<glyph unicode="&#xfe;" horiz-adv-x="519" d="M-10 -221l158 927l123 20l-52 -306q58 74 137 74q65 0 97.5 -50t32.5 -132q0 -134 -69.5 -230t-196.5 -96q-32 0 -74 9l-36 -216h-120zM166 109q26 -18 63 -18q48 0 80.5 36.5t44.5 82t12 94.5q0 35 -11.5 60.5t-36.5 25.5q-58 0 -122 -102z" />
<glyph unicode="&#xff;" horiz-adv-x="496" d="M-42 -214l32 100q39 -18 61 -18q30 0 49 19.5t55 82.5l10 19l-84 399q-5 24 -14 31.5t-37 7.5l11 52q48 15 93 15q30 0 42 -13.5t20 -54.5l55 -273l67 148q38 85 38 116q0 15 -10 43l108 34q24 -33 24 -72q0 -56 -58 -169l-158 -313q-87 -175 -204 -175q-55 0 -100 21z M98 641q0 32 22 54.5t54 22.5t51.5 -20.5t19.5 -49.5q0 -32 -22 -54.5t-54 -22.5t-51.5 20.5t-19.5 49.5zM318 641q0 32 22 54.5t54 22.5t51.5 -20.5t19.5 -49.5q0 -32 -22 -54.5t-54 -22.5t-51.5 20.5t-19.5 49.5z" />
<glyph unicode="&#x152;" horiz-adv-x="876" d="M53 243q0 117 41 212t128 155t208 60h460l-21 -116h-257l-25 -146h212l-20 -112h-212l-31 -180h269l-20 -116h-473q-130 0 -194.5 63.5t-64.5 179.5zM183 256q0 -76 32 -110t106 -34h85l78 446h-63q-77 0 -132.5 -44t-80.5 -111t-25 -147z" />
<glyph unicode="&#x153;" horiz-adv-x="758" d="M33 183q0 129 66.5 220t187.5 91q96 0 142 -71q73 71 174 71q59 0 98 -27t39 -86q0 -78 -78.5 -128.5t-209.5 -54.5v-12q0 -92 63 -92q36 0 81 18t74 37l28 -104q-32 -22 -88.5 -40.5t-106.5 -18.5q-96 0 -138 58q-64 -58 -158 -58q-83 0 -128.5 52.5t-45.5 144.5z M153 184q0 -98 69 -98q50 0 84.5 60t34.5 150q0 98 -69 98q-50 0 -84.5 -60t-34.5 -150zM466 280q68 8 109.5 30.5t41.5 56.5q0 31 -37 31q-29 0 -62.5 -31.5t-51.5 -86.5z" />
<glyph unicode="&#x178;" horiz-adv-x="610" d="M100 670h137l89 -283l184 283h146l-288 -417l-44 -253h-128l46 264zM200 806q0 32 22 54.5t54 22.5t51.5 -20.5t19.5 -49.5q0 -32 -22 -54.5t-54 -22.5t-51.5 20.5t-19.5 49.5zM420 806q0 32 22 54.5t54 22.5t51.5 -20.5t19.5 -49.5q0 -32 -22 -54.5t-54 -22.5 t-51.5 20.5t-19.5 49.5z" />
<glyph unicode="&#x2c6;" horiz-adv-x="400" d="M124 575l119 167h81l60 -167l-49 -17l-62 78l-100 -78z" />
<glyph unicode="&#x2dc;" horiz-adv-x="400" d="M108 591q24 66 49.5 98.5t60.5 32.5q20 0 64.5 -20.5t59.5 -20.5q24 0 45 39l40 -13q-24 -66 -49.5 -98.5t-60.5 -32.5q-20 0 -64.5 20.5t-59.5 20.5q-24 0 -45 -39z" />
<glyph unicode="&#x2000;" horiz-adv-x="457" />
<glyph unicode="&#x2001;" horiz-adv-x="914" />
<glyph unicode="&#x2002;" horiz-adv-x="457" />
<glyph unicode="&#x2003;" horiz-adv-x="914" />
<glyph unicode="&#x2004;" horiz-adv-x="304" />
<glyph unicode="&#x2005;" horiz-adv-x="228" />
<glyph unicode="&#x2006;" horiz-adv-x="152" />
<glyph unicode="&#x2007;" horiz-adv-x="152" />
<glyph unicode="&#x2008;" horiz-adv-x="114" />
<glyph unicode="&#x2009;" horiz-adv-x="182" />
<glyph unicode="&#x200a;" horiz-adv-x="50" />
<glyph unicode="&#x2010;" horiz-adv-x="350" d="M28 209l14 84h280l-14 -84h-280z" />
<glyph unicode="&#x2011;" horiz-adv-x="350" d="M28 209l14 84h280l-14 -84h-280z" />
<glyph unicode="&#x2012;" horiz-adv-x="350" d="M28 209l14 84h280l-14 -84h-280z" />
<glyph unicode="&#x2013;" horiz-adv-x="600" d="M28 209l14 84h530l-14 -84h-530z" />
<glyph unicode="&#x2014;" horiz-adv-x="900" d="M28 209l14 84h830l-14 -84h-830z" />
<glyph unicode="&#x2018;" horiz-adv-x="254" d="M87 461q0 64 44.5 127t109.5 108l55 -45q-81 -83 -81 -174q0 -9 3 -42h-129q-2 12 -2 26z" />
<glyph unicode="&#x2019;" horiz-adv-x="254" d="M76 468q81 83 81 174q0 9 -3 42h129q2 -12 2 -26q0 -64 -44.5 -127t-109.5 -108z" />
<glyph unicode="&#x201a;" horiz-adv-x="253" d="M-46 -114q81 83 81 174q0 9 -3 42h129q2 -12 2 -26q0 -64 -44.5 -127t-109.5 -108z" />
<glyph unicode="&#x201c;" horiz-adv-x="438" d="M87 461q0 64 44.5 127t109.5 108l55 -45q-81 -83 -81 -174q0 -9 3 -42h-129q-2 12 -2 26zM271 461q0 64 44.5 127t109.5 108l55 -45q-81 -83 -81 -174q0 -9 3 -42h-129q-2 12 -2 26z" />
<glyph unicode="&#x201d;" horiz-adv-x="438" d="M76 468q81 83 81 174q0 9 -3 42h129q2 -12 2 -26q0 -64 -44.5 -127t-109.5 -108zM260 468q81 83 81 174q0 9 -3 42h129q2 -12 2 -26q0 -64 -44.5 -127t-109.5 -108z" />
<glyph unicode="&#x201e;" horiz-adv-x="428" d="M-46 -114q81 83 81 174q0 9 -3 42h129q2 -12 2 -26q0 -64 -44.5 -127t-109.5 -108zM138 -114q81 83 81 174q0 9 -3 42h129q2 -12 2 -26q0 -64 -44.5 -127t-109.5 -108z" />
<glyph unicode="&#x2022;" horiz-adv-x="403" d="M69 309q0 65 43.5 109.5t106.5 44.5t102 -40.5t39 -98.5q0 -65 -43.5 -109.5t-106.5 -44.5t-102 40.5t-39 98.5z" />
<glyph unicode="&#x2026;" horiz-adv-x="750" d="M23 56q0 32 22 54t53 22q32 0 51.5 -20.5t19.5 -49.5q0 -32 -22 -54t-53 -22q-32 0 -51.5 20.5t-19.5 49.5zM273 56q0 32 22 54t53 22q32 0 51.5 -20.5t19.5 -49.5q0 -32 -22 -54t-53 -22q-32 0 -51.5 20.5t-19.5 49.5zM523 56q0 32 22 54t53 22q32 0 51.5 -20.5 t19.5 -49.5q0 -32 -22 -54t-53 -22q-32 0 -51.5 20.5t-19.5 49.5z" />
<glyph unicode="&#x202f;" horiz-adv-x="182" />
<glyph unicode="&#x2039;" horiz-adv-x="345" d="M38 238l216 210l63 -62l-139 -153l88 -147l-79 -55z" />
<glyph unicode="&#x203a;" horiz-adv-x="345" d="M28 93l139 153l-88 147l79 55l149 -207l-216 -210z" />
<glyph unicode="&#x205f;" horiz-adv-x="228" />
<glyph unicode="&#x20ac;" d="M45 229l12 69h50q1 8 2.5 16t3.5 18t3 16h-52l12 69h59q38 110 111.5 176.5t177.5 66.5q78 0 140 -37l-42 -104q-49 32 -104 32q-102 0 -153 -134h173l-12 -69h-181q-6 -34 -8 -50h182l-12 -69h-174q1 -63 22 -96t75 -33q62 0 107 32l26 -106q-63 -40 -141 -40 q-104 0 -162 56t-58 167v20h-57z" />
<glyph unicode="&#x2122;" horiz-adv-x="888" d="M78 601l13 69h331l-13 -69h-125l-53 -302h-82l53 302h-124zM419 299l65 371h85l69 -256l165 256h87l-65 -371h-81l38 214l-139 -214h-49l-60 216l-37 -216h-78z" />
<glyph unicode="&#xe000;" horiz-adv-x="495" d="M0 0v495h495v-495h-495z" />
<glyph unicode="&#xfb01;" horiz-adv-x="649" d="M-114 -212l34 103q32 -18 66 -18q28 0 41 20.5t22 74.5l70 413h-80l19 99h78l7 40q36 206 195 206q52 0 92 -20l-49 -98q-20 12 -45 12q-62 0 -76 -109l-5 -31h109l-17 -99h-109l-75 -438q-16 -96 -55 -137t-109 -41q-55 0 -113 23zM407 33q0 6 6 45l49 277q7 41 7 55 q0 16 -50 17l11 52q52 15 101 15q63 0 63 -44q0 -16 -8 -64l-45 -263q-8 -42 -8 -52q0 -9 11 -12.5t40 -5.5v-53q-9 -3 -47.5 -8.5t-66.5 -5.5q-63 0 -63 47zM481 641q0 34 22.5 57t56.5 23t54 -21t20 -52q0 -34 -22.5 -57t-56.5 -23t-54 21t-20 52z" />
<glyph unicode="&#xfb02;" horiz-adv-x="630" d="M-114 -212l34 103q32 -18 66 -18q28 0 41 20.5t22 74.5l70 413h-80l19 99h78l7 40q36 206 195 206q52 0 92 -20l-49 -98q-20 12 -45 12q-62 0 -76 -109l-5 -31h109l-17 -99h-109l-75 -438q-16 -96 -55 -137t-109 -41q-55 0 -113 23zM393 30q0 13 5 45l106 631l122 20 l-101 -601q-8 -46 -8 -55t10.5 -12t40.5 -5v-53q-47 -14 -111 -14t-64 44z" />
</font>
</defs>
</svg>
