<?xml version="1.0" standalone="no"?>
<!DOCTYPE svg PUBLIC "-//W3C//DTD SVG 1.1//EN" "http://www.w3.org/Graphics/SVG/1.1/DTD/svg11.dtd" >
<svg xmlns="http://www.w3.org/2000/svg">
<metadata></metadata>
<defs>
<font id="texgyretermesregular" horiz-adv-x="500" >
<font-face units-per-em="1000" ascent="783" descent="-217" />
<missing-glyph horiz-adv-x="250" />
<glyph unicode="&#xfb01;" horiz-adv-x="556" d="M31 417v33h69q4 60 14 93t33 65q54 75 170 75q58 0 92.5 -19t34.5 -51q0 -17 -10 -28t-26 -11q-24 0 -49 37q-33 47 -71 47q-27 0 -51.5 -14.5t-37.5 -37.5q-20 -37 -17 -107v-49h157q50 0 113 10l4 -3l-2 -98v-262q0 -48 12.5 -63t54.5 -19v-15h-220v15q46 4 57.5 17.5 t11.5 64.5v264q0 40 -14.5 48t-86.5 8h-86v-329q0 -41 13.5 -55.5t55.5 -17.5v-15h-220v15q42 1 54.5 16t12.5 63v323h-68z" />
<glyph unicode="&#xfb02;" horiz-adv-x="556" d="M32 0v15q45 3 57 18.5t12 71.5v313h-69v32h71q3 66 12.5 102t31.5 68q21 29 53 46t66 17q40 0 83 -17q22 -8 30 -8q14 0 42 14q21 10 31 11l5 -2v-600q0 -39 11.5 -51t52.5 -15v-15h-215v15q39 3 53 17.5t14 51.5v334h-188v-339q0 -34 14 -46.5t57 -17.5v-15h-224z M185 450h188v141q-6 -7 -16 -7q-30 0 -55 37q-23 35 -52 35q-65 0 -65 -154v-52z" />
<glyph unicode="&#xfb03;" horiz-adv-x="827" d="M31 417v33h69q4 60 14 93t33 65q54 75 170 75q91 0 124 -49q53 49 147 49q58 0 92.5 -19t34.5 -51q0 -17 -10 -28t-26 -11q-24 0 -49 37q-33 47 -71 47q-27 0 -51.5 -14.5t-37.5 -37.5q-17 -31 -17 -107v-49h157q50 0 113 10l4 -3l-2 -98v-262q0 -48 12.5 -63t54.5 -19 v-15h-220v15q46 4 57.5 17.5t11.5 64.5v264q0 40 -14.5 48t-86.5 8h-86v-329q0 -41 13.5 -55.5t55.5 -17.5v-15h-220v15q42 1 54.5 16t12.5 63v323h-187v-329q0 -41 13.5 -55.5t55.5 -17.5v-15h-220v15q42 1 54.5 16t12.5 63v323h-68zM182 450h189q6 83 27 124q-17 6 -39 37 q-33 47 -71 47q-27 0 -51.5 -14.5t-37.5 -37.5q-17 -31 -17 -107v-49z" />
<glyph unicode="&#xfb04;" horiz-adv-x="827" d="M31 417v33h69q4 60 14 93t33 65q54 75 170 75q91 0 118 -41q44 41 100 41q42 0 85 -17q22 -8 30 -8q14 0 42 14q21 10 31 11l5 -2v-600q0 -39 11.5 -51t52.5 -15v-15h-215v15q39 3 53 17.5t14 51.5v333h-190v-338q0 -34 14 -46.5t57 -17.5v-15h-224v15q45 3 57 18.5 t12 71.5v312h-187v-329q0 -41 13.5 -55.5t55.5 -17.5v-15h-220v15q42 1 54.5 16t12.5 63v323h-68zM182 450h190q4 87 20 127q-15 7 -33 34q-33 47 -71 47q-27 0 -51.5 -14.5t-37.5 -37.5q-17 -31 -17 -107v-49zM454 450h190v141q-6 -7 -16 -7q-30 0 -55 37q-23 35 -54 35 q-65 0 -65 -154v-52z" />
<glyph horiz-adv-x="1000" />
<glyph horiz-adv-x="1000" />
<glyph unicode="&#xd;" horiz-adv-x="1000" />
<glyph unicode=" "  horiz-adv-x="250" />
<glyph unicode="&#x09;" horiz-adv-x="250" />
<glyph unicode="&#xa0;" horiz-adv-x="250" />
<glyph unicode="!" horiz-adv-x="333" d="M130 43q0 23 15.5 39t37.5 16t38 -16t16 -39t-15.5 -37.5t-39.5 -14.5q-22 0 -37 14.5t-15 37.5zM130 599q0 35 14 56t39 21q53 0 53 -80q0 -13 -2 -37l-45 -383h-13l-9 108q-2 20 -19.5 155t-17.5 160z" />
<glyph unicode="&#x22;" horiz-adv-x="408" d="M77 635q0 17 12.5 29t30.5 12q17 0 29.5 -12t12.5 -28q0 -46 -25 -165l-7 -40h-21q-32 169 -32 204zM246 635q0 17 12.5 29t30.5 12q17 0 29.5 -12t12.5 -28q0 -46 -25 -165l-7 -40h-21q-32 169 -32 204z" />
<glyph unicode="#" d="M5 216v55h116l21 134h-110v55h118l31 202h58l-31 -202h133l30 202h58l-30 -202h97v-55h-105l-20 -134h100v-55h-109l-31 -216h-58l31 216h-134l-33 -216h-58l33 216h-107zM179 271h134l20 134h-133z" />
<glyph unicode="$" d="M44 51v130h15q18 -79 59 -115.5t112 -37.5v282q-87 49 -122 83q-56 52 -56 119t54 110q25 19 50.5 28t73.5 14v63h34v-63q113 -13 161 -53v-111h-15q-13 64 -48 96.5t-98 40.5v-246q91 -53 122.5 -76.5t50.5 -54.5q20 -33 20 -90q0 -73 -52 -117q-27 -22 -56.5 -33 t-84.5 -20v-87h-34v87q-63 2 -102 12.5t-84 38.5zM126 534q0 -35 20.5 -60t82.5 -67v230q-103 -21 -103 -103zM264 28q114 22 114 118q0 46 -22 74.5t-92 72.5v-265z" />
<glyph unicode="%" horiz-adv-x="833" d="M61 416q0 95 67.5 170.5t153.5 75.5q23 0 37 -5.5t33 -21.5q32 -27 87 -27q47 0 81.5 15t74.5 53h39l-385 -689h-48l351 626q-52 -30 -110 -30q-39 0 -65 10q7 -25 7 -44q0 -92 -59 -176t-146 -84q-49 0 -83.5 37.5t-34.5 89.5zM137 384q0 -27 16.5 -44t42.5 -17 q61 0 112 71.5t51 156.5q0 19 -9 49q-38 11 -55 26q-7 6 -13 6q-35 0 -70 -46t-55 -103.5t-20 -98.5zM449 129q0 94 67.5 168t152.5 74q49 0 76 -28t27 -79q0 -95 -57.5 -179.5t-145.5 -84.5q-54 0 -87 35.5t-33 93.5zM525 94q0 -28 17 -46t44 -18q64 0 112 77.5t48 151.5 q0 33 -20.5 56.5t-49.5 23.5q-41 0 -77.5 -46t-55 -102t-18.5 -97z" />
<glyph unicode="&#x26;" horiz-adv-x="778" d="M42 139q0 126 157 216l38 22q-35 97 -35 145q0 64 45 109t109 45q59 0 97 -34t38 -87q0 -54 -34 -91q-36 -40 -121 -80q60 -117 132 -206q91 121 91 182q0 23 -13.5 32t-50.5 13v21h216v-21q-38 -5 -57 -16.5t-37 -42.5l-26 -46q-40 -69 -100 -150q69 -92 154 -92 q27 0 46.5 11.5t43.5 41.5l15 -11q-22 -53 -62.5 -83t-88.5 -30q-82 0 -170 91q-56 -49 -105.5 -70t-110.5 -21q-80 0 -125.5 40.5t-45.5 111.5zM134 180q0 -58 38 -99.5t91 -41.5q59 0 141 65q-74 91 -152 239q-65 -42 -91.5 -78.5t-26.5 -84.5zM281 562q0 -62 40 -146 q61 33 89 67t28 76q0 37 -22.5 61t-57.5 24q-34 0 -55.5 -23t-21.5 -59z" />
<glyph unicode="'" horiz-adv-x="180" d="M48 635q0 17 12.5 29t30.5 12q17 0 29.5 -12t12.5 -28q0 -46 -25 -165l-7 -40h-21q-32 169 -32 204z" />
<glyph unicode="(" horiz-adv-x="333" d="M48 252q0 174 106 304q28 35 57 59.5t84 60.5l9 -16q-54 -43 -81.5 -76.5t-48.5 -79.5q-40 -92 -40 -249q0 -145 35 -243q20 -56 47.5 -90.5t87.5 -82.5l-12 -16q-67 41 -119 102q-66 76 -95.5 154t-29.5 173z" />
<glyph unicode=")" horiz-adv-x="333" d="M29 -161q54 44 81.5 77t48.5 80q40 90 40 248q0 145 -35 243q-21 56 -48 91t-87 82l12 16q67 -41 119 -102q66 -76 95.5 -153.5t29.5 -173.5q0 -174 -106 -304q-28 -35 -57 -59.5t-84 -60.5z" />
<glyph unicode="*" d="M69 386q0 19 14 29t48 16q35 7 53.5 14t49.5 26l-11 7q-28 19 -86 30q-36 7 -52 18t-16 29q0 7 2.5 14t7 11.5t11 7.5t13.5 3q21 0 48 -32q25 -27 43.5 -42.5t46.5 -30.5v13q0 41 -15 91q-10 35 -10 51q0 15 10 25t25 10t25.5 -10.5t10.5 -26.5q0 -14 -10 -46 q-17 -48 -17 -83v-26q43 24 79 68q35 41 56 41q16 0 26 -11t10 -28q0 -19 -11.5 -28.5t-39.5 -13.5q-33 -5 -54 -13t-58 -29q48 -30 105 -39q17 -3 28 -6.5t18 -8.5t10 -12t3 -17q0 -17 -9.5 -27t-25.5 -10q-25 0 -60 43q-22 27 -38.5 40.5t-38.5 22.5v-7q0 -58 20 -112 q8 -21 8 -32q0 -16 -11.5 -28t-27.5 -12q-14 0 -24.5 11t-10.5 26q0 18 11 46q20 52 17 84l-1 17v7q-40 -25 -52 -36q-11 -9 -42 -45q-21 -24 -42 -24q-36 0 -36 35z" />
<glyph unicode="+" horiz-adv-x="564" d="M40 217v66h209v209h66v-209h209v-66h-209v-209h-66v209h-209z" />
<glyph unicode="," horiz-adv-x="250" d="M56 45q0 25 16.5 41t42.5 16q34 0 57 -25.5t23 -63.5q0 -45 -31 -87t-81 -67l-9 19q82 56 82 106q0 14 -14 14q-2 0 -12.5 -2t-14.5 -2q-27 0 -43 13.5t-16 37.5z" />
<glyph unicode="-" horiz-adv-x="333" d="M39 194v63h246v-63h-246z" />
<glyph unicode="." horiz-adv-x="250" d="M70 43q0 23 16.5 40t38.5 17q23 0 39.5 -17t16.5 -40q0 -22 -17 -38t-40 -16q-22 0 -38 16t-16 38z" />
<glyph unicode="/" horiz-adv-x="278" d="M-9 -14l229 690h67l-228 -690h-68z" />
<glyph unicode="0" d="M24 336q0 88 26.5 167t69.5 121q55 52 134 52q98 0 160 -96t62 -250q0 -91 -26.5 -171t-69.5 -121q-53 -52 -130 -52q-89 0 -146 68q-35 42 -57.5 121t-22.5 161zM120 327q0 -315 130 -315t130 316q0 157 -33 239.5t-96 82.5q-131 0 -131 -323z" />
<glyph unicode="1" d="M111 571v14l180 91l8 -2v-600q0 -36 18 -47t77 -12v-15h-276v15q51 1 71 13q24 14 24 65v453q0 47 -30 47q-19 0 -72 -22z" />
<glyph unicode="2" d="M30 0v12l178 189q130 138 130 260q0 63 -39 102t-102 39q-52 0 -83.5 -28.5t-61.5 -101.5l-21 5q22 93 64 137q57 62 144 62q78 0 131.5 -51t53.5 -126q0 -113 -128 -247l-168 -176h239q34 0 50.5 11.5t44.5 54.5l13 -5l-55 -137h-390z" />
<glyph unicode="3" d="M43 43q0 16 10.5 25.5t27.5 9.5q22 0 64 -25q48 -31 84 -31q55 0 93 43t38 106q0 52 -27 91.5t-74 56.5q-29 11 -106 11v13q88 31 126 69q40 40 40 97q0 47 -30.5 77t-79.5 30q-47 0 -82.5 -25.5t-66.5 -80.5l-15 4q29 79 67 113q55 49 130 49q69 0 112.5 -38t43.5 -99 q0 -41 -21 -72t-73 -66q57 -25 83 -53q45 -48 45 -129q0 -102 -73 -166q-35 -31 -90 -49t-113 -18q-52 0 -82.5 15.5t-30.5 41.5z" />
<glyph unicode="4" d="M12 167v64l314 445h44v-445h102v-64h-102v-167h-77v167h-281zM52 231h240v343z" />
<glyph unicode="5" d="M32 48q0 37 43 37q30 0 76 -33q40 -29 67 -29q59 0 99 49.5t40 121.5q0 74 -41 122t-127 76q-63 20 -113 20q-12 0 -12 8q0 3 1 5l109 237h209q16 0 25.5 5t20.5 21l9 -7l-38 -89q-4 -9 -23 -9h-196l-42 -85q88 -16 137 -35.5t82 -52.5q38 -38 53.5 -76t15.5 -92 q0 -112 -67 -178q-76 -78 -206 -78q-56 0 -89 16.5t-33 45.5z" />
<glyph unicode="6" d="M34 279q0 206 167 325q55 38 107.5 55.5t137.5 24.5l2 -16q-118 -19 -197 -95.5t-99 -189.5q47 28 71 36.5t57 8.5q86 0 137 -56.5t51 -152.5q0 -103 -58.5 -168t-151.5 -65q-108 0 -166 84t-58 209zM127 263q0 -116 38 -182.5t104 -66.5q53 0 81 44.5t28 126.5 q0 94 -35.5 145.5t-100.5 51.5q-54 0 -87 -25q-28 -21 -28 -94z" />
<glyph unicode="7" d="M20 515l59 147h370v-16l-212 -654h-65l198 596h-217q-41 0 -62.5 -15t-53.5 -66z" />
<glyph unicode="8" d="M56 151q0 51 24.5 85.5t105.5 95.5q-79 69 -101.5 103t-22.5 83q0 68 54 113t136 45q75 0 123.5 -40t48.5 -102q0 -51 -30 -87t-104 -76q90 -67 122.5 -112.5t32.5 -103.5q0 -77 -53.5 -123t-143.5 -46q-85 0 -138.5 46t-53.5 119zM132 159q0 -65 35 -105t92 -40 q49 0 79.5 30.5t30.5 79.5q0 42 -21 73.5t-76 70.5l-60 44q-44 -35 -62 -70t-18 -83zM136 549q0 -42 29 -79t96 -81q4 3 9 6q85 57 85 140q0 52 -30 82.5t-81 30.5q-47 0 -77.5 -28t-30.5 -71z" />
<glyph unicode="9" d="M30 440q0 101 59.5 168.5t148.5 67.5q97 0 159 -79t62 -203q0 -101 -43.5 -189.5t-121.5 -145.5q-51 -37 -101 -54t-134 -27l-3 20q114 20 193.5 97t110.5 199q-74 -57 -150 -57q-81 0 -130.5 56t-49.5 147zM122 474q0 -89 33.5 -141.5t90.5 -52.5q58 0 101 37 q15 12 15 38v39q0 254 -132 254q-45 0 -71 -31q-16 -20 -26.5 -60.5t-10.5 -82.5z" />
<glyph unicode=":" horiz-adv-x="278" d="M81 43q0 23 16.5 40t38.5 17q23 0 39.5 -17t16.5 -40q0 -22 -17 -38t-40 -16q-22 0 -38 16t-16 38zM81 402q0 23 16.5 40t38.5 17q23 0 39.5 -17t16.5 -40q0 -22 -17 -38t-40 -16q-22 0 -38 16t-16 38z" />
<glyph unicode=";" horiz-adv-x="278" d="M80 46q0 25 16.5 40.5t42.5 15.5q34 0 57 -25.5t23 -63.5q0 -45 -30 -87t-82 -67l-9 19q82 56 82 106q0 14 -14 14q-2 0 -12.5 -2t-14.5 -2q-28 0 -43.5 13.5t-15.5 38.5zM81 402q0 23 16.5 40t38.5 17q23 0 39.5 -17t16.5 -40q0 -22 -17 -38t-40 -16q-22 0 -38 16 t-16 38z" />
<glyph unicode="&#x3c;" horiz-adv-x="564" d="M65 220v60l419 207v-74l-330 -163l330 -163v-74z" />
<glyph unicode="=" horiz-adv-x="564" d="M40 134v66h484v-66h-484zM40 300v66h484v-66h-484z" />
<glyph unicode="&#x3e;" horiz-adv-x="564" d="M65 13v74l330 163l-330 163v74l419 -207v-60z" />
<glyph unicode="?" horiz-adv-x="444" d="M68 531q0 62 46.5 103.5t115.5 41.5q41 0 81.5 -16t66.5 -42q36 -36 36 -97q0 -57 -45 -126q-14 -21 -60 -77q-50 -64 -65 -154h-17q2 69 30 142l28 64q37 85 37 156q0 50 -31.5 85t-76.5 35q-37 0 -66 -19t-29 -43q0 -11 17 -31q21 -24 21 -43q0 -18 -11.5 -29.5 t-29.5 -11.5q-48 0 -48 62zM184 43q0 24 15 40t38 16q22 0 38 -16.5t16 -38.5q0 -23 -15.5 -37.5t-39.5 -14.5q-22 0 -37 14.5t-15 36.5z" />
<glyph unicode="@" horiz-adv-x="921" d="M116 326q0 146 106.5 248t258.5 102q139 0 233.5 -84.5t94.5 -208.5q0 -97 -55 -168.5t-129 -71.5q-36 0 -61.5 20t-29.5 53q-54 -72 -125 -72q-37 0 -62.5 32.5t-25.5 79.5q0 88 56 170t140 82q26 0 40.5 -10.5t31.5 -41.5l10 38h69l-65 -254q-2 -12 -2 -18 q0 -46 39 -46q49 0 89 61t40 136q0 112 -84.5 192t-202.5 80q-113 0 -189 -76q-43 -44 -68 -110t-25 -136q0 -130 82 -214t210 -84q89 0 196 48l12 -30q-73 -33 -118.5 -45t-98.5 -12q-155 0 -261 98t-106 242zM392 272q0 -39 16 -62t44 -23q50 0 83.5 73t36.5 139 q3 62 -41 65q-40 3 -87 -50q-52 -58 -52 -142z" />
<glyph unicode="A" horiz-adv-x="722" d="M15 0v19q36 2 56 28.5t68 135.5l208 491h20l249 -568q26 -56 41 -70.5t49 -16.5v-19h-255v19q41 0 56 9q14 7 14 24q0 24 -19 68l-41 96h-262l-46 -117q-8 -21 -8 -39q0 -41 68 -41v-19h-198zM216 257h231l-116 275z" />
<glyph unicode="B" horiz-adv-x="667" d="M17 0v19q62 2 79 18t17 72v444q0 55 -16.5 70.5t-79.5 19.5v19h280q262 0 262 -170q0 -65 -40 -100q-32 -28 -97 -44q49 -12 74.5 -23.5t47.5 -31.5q49 -46 49 -113q0 -75 -56 -125q-60 -55 -186 -55h-334zM215 78q0 -24 13 -32.5t50 -8.5q93 0 139 26q61 35 61 116 q0 92 -84 127q-48 20 -179 20v-248zM215 366h95q70 0 108.5 31.5t38.5 90.5q0 67 -45 102t-131 35h-44q-22 0 -22 -30v-229z" />
<glyph unicode="C" horiz-adv-x="667" d="M28 325q0 175 117 272q96 79 217 79q74 0 147 -24q24 -9 40 -9q32 0 41 33h21l9 -226h-23q-14 49 -28 75t-38 50q-61 61 -149 61q-109 0 -173.5 -81t-64.5 -217q0 -179 92 -255q64 -53 156 -53q118 0 223 101l18 -18q-46 -61 -117 -94t-156 -33q-149 0 -240.5 93.5 t-91.5 245.5z" />
<glyph unicode="D" horiz-adv-x="722" d="M16 0v19q57 4 72.5 20t15.5 70v444q0 55 -14.5 70t-73.5 20v19h270q211 0 314 -105q85 -85 85 -223q0 -152 -102 -245q-46 -42 -121 -65.5t-162 -23.5h-284zM206 78q0 -24 11 -32.5t41 -8.5q124 0 196 41q122 71 122 249q0 166 -119 248q-71 50 -199 50q-31 0 -41.5 -8 t-10.5 -31v-508z" />
<glyph unicode="E" horiz-adv-x="611" d="M12 0v19q55 4 71 20.5t16 69.5v444q0 53 -15.5 69t-71.5 21v19h531l3 -143h-25q-13 67 -40 86t-112 19h-135q-20 0 -26.5 -6.5t-6.5 -27.5v-222h154q61 0 80.5 17t29.5 78h23v-232h-23q-10 62 -29 79t-81 17h-154v-247q0 -27 8 -32q14 -11 97 -11h27q107 0 153 25.5 t83 106.5h28l-45 -169h-540z" />
<glyph unicode="F" horiz-adv-x="556" d="M12 0v19q57 4 72 21.5t15 79.5v433q0 53 -16 69.5t-71 20.5v19h531l3 -143h-25q-13 67 -40 86t-112 19h-136q-20 0 -26 -6.5t-6 -27.5v-222h145q60 0 80.5 17.5t29.5 77.5h23v-232h-23q-9 61 -29 78.5t-81 17.5h-145v-218q0 -54 16.5 -70.5t74.5 -19.5v-19h-280z" />
<glyph unicode="G" horiz-adv-x="722" d="M32 325q0 153 96.5 252t246.5 99q67 0 136 -23q26 -10 44 -10q16 0 28 9.5t17 23.5h22l8 -211h-23q-33 81 -71 116q-60 55 -144 55q-106 0 -174 -76q-33 -37 -52.5 -100.5t-19.5 -133.5q0 -139 70.5 -219.5t192.5 -80.5q54 0 93.5 17.5t39.5 41.5v162q0 62 -21 75 q-16 10 -67 14v18h255v-18q-44 -4 -57 -18.5t-13 -58.5v-203q-30 -26 -108.5 -48t-142.5 -22q-169 0 -273 107q-83 87 -83 232z" />
<glyph unicode="H" horiz-adv-x="722" d="M19 0v19q58 4 73 21t15 80v433q0 54 -15 69.5t-73 20.5v19h278v-19q-58 -5 -73 -20.5t-15 -69.5v-194h303v194q0 54 -15 69.5t-73 20.5v19h278v-19q-58 -5 -73 -20.5t-15 -69.5v-444q0 -53 16 -69t72 -21v-19h-278v19q58 4 73 21t15 80v195h-303v-206q0 -53 16 -69 t72 -21v-19h-278z" />
<glyph unicode="I" horiz-adv-x="333" d="M18 0v19q63 2 80 18t17 72v444q0 55 -16.5 70.5t-80.5 19.5v19h297v-19q-63 -3 -80.5 -19t-17.5 -71v-444q0 -55 18 -71.5t80 -18.5v-19h-297z" />
<glyph unicode="J" horiz-adv-x="389" d="M10 58q0 20 14.5 35t34.5 15q37 0 52 -51q5 -19 11 -26t16 -7q38 0 38 66v463q0 55 -16 70.5t-77 19.5v19h287v-19q-61 -4 -76.5 -19.5t-15.5 -70.5v-370q0 -94 -44 -145.5t-125 -51.5q-43 0 -71 20t-28 52z" />
<glyph unicode="K" horiz-adv-x="722" d="M34 0v19q59 4 74.5 21.5t15.5 79.5v433q0 53 -16 69.5t-74 20.5v19h284v-19q-61 -4 -76.5 -19.5t-15.5 -70.5v-205l177 161q78 72 78 103q0 15 -9.5 21.5t-32.5 8.5q-14 0 -26 1v19h262v-19q-51 -4 -76 -16.5t-76 -61.5l-190 -188l233 -250q68 -73 93 -90t64 -18v-19 h-305v19q12 1 28 1q42 2 42 22q0 18 -36.5 66t-93.5 104l-106 105l-26 -21v-187q0 -55 16 -70.5t74 -19.5v-19h-282z" />
<glyph unicode="L" horiz-adv-x="611" d="M12 0v19q55 4 71 20.5t16 69.5v444q0 37 -7 54t-24 25t-56 11v19h282v-19q-59 -4 -76 -20.5t-17 -69.5v-473q0 -26 15.5 -33.5t70.5 -7.5h67q66 0 108 15.5t65 42.5t46 77h25l-48 -174h-538z" />
<glyph unicode="M" horiz-adv-x="889" d="M12 0v19q62 4 79.5 27.5t17.5 100.5v406q0 55 -16.5 70.5t-78.5 19.5v19h198l231 -505l221 505h199v-19q-56 -5 -71.5 -21t-15.5 -69v-444q0 -53 16 -69.5t71 -20.5v-19h-280v19q59 4 75 21.5t16 79.5v453l-256 -573h-14l-251 550v-403q0 -76 18 -100.5t76 -27.5v-19 h-235z" />
<glyph unicode="N" horiz-adv-x="722" d="M12 0v19q62 4 79.5 27.5t17.5 100.5v441q-30 35 -47.5 45t-49.5 10v19h171l385 -484v337q0 92 -29 112q-21 12 -67 16v19h235v-19q-48 -5 -66 -18q-29 -20 -29 -110v-526h-17l-442 550v-392q0 -76 18 -100.5t76 -27.5v-19h-235z" />
<glyph unicode="O" horiz-adv-x="722" d="M34 331q0 151 92 248t235 97q147 0 243 -105q84 -92 84 -244q0 -151 -92.5 -246t-240.5 -95q-66 0 -128.5 27.5t-106.5 74.5q-40 43 -63 107.5t-23 135.5zM148 329q0 -83 23 -153.5t62 -104.5q55 -49 126 -49q80 0 133 53q36 35 49 73q33 86 33 180q0 185 -85 262 q-56 50 -128 50q-84 0 -143 -65q-32 -35 -51 -102.5t-19 -143.5z" />
<glyph unicode="P" horiz-adv-x="556" d="M16 0v19q57 5 70.5 21.5t13.5 79.5v433q0 54 -14 69t-70 21v19h264q71 0 131 -19.5t90 -52.5q41 -44 41 -109q0 -50 -25.5 -92.5t-70.5 -66.5q-61 -34 -175 -34q-30 0 -69 3v-182q0 -55 17.5 -71.5t76.5 -18.5v-19h-280zM202 331q35 -3 57 -3q174 0 174 147 q0 77 -48 113.5t-149 36.5q-20 0 -27 -7t-7 -27v-260z" />
<glyph unicode="Q" horiz-adv-x="722" d="M34 329q0 152 92 249.5t235 97.5t235 -97t92 -248q0 -168 -112 -268q-35 -30 -67 -45t-83 -25q61 -80 125.5 -116t149.5 -36v-18h-6q-11 -1 -35 -1q-243 0 -348 122l-47 55q-53 18 -82.5 36t-59.5 50q-89 97 -89 244zM148 335q0 -88 22.5 -158.5t62.5 -105.5 q55 -49 128 -49q86 0 144 64q30 35 49.5 104t19.5 143q0 85 -23 153t-63 104q-56 50 -124 50q-85 0 -146 -65q-31 -35 -50.5 -101.5t-19.5 -138.5z" />
<glyph unicode="R" horiz-adv-x="667" d="M17 0v19q56 4 70.5 21.5t14.5 79.5v433q0 53 -14.5 68.5t-70.5 21.5v19h276q70 0 128 -18t87 -49q39 -44 39 -109q0 -74 -51 -115q-43 -35 -130 -52l206 -253q21 -25 39.5 -35t47.5 -12v-19h-161l-238 308l-56 -2v-197q0 -54 16 -70t74 -20v-19h-277zM204 343 q73 2 108 8.5t69 25.5q57 30 57 111q0 70 -44.5 103.5t-138.5 33.5q-30 0 -40.5 -7.5t-10.5 -28.5v-246z" />
<glyph unicode="S" horiz-adv-x="556" d="M42 199h23q38 -92 86.5 -134.5t115.5 -42.5q55 0 89 31t34 81q0 37 -14 59q-37 56 -149 117q-84 44 -120 89t-36 105q0 82 58 130q52 42 113 42q50 0 108 -22q27 -12 44 -12q26 0 32 34h21l22 -213h-25q-20 75 -61 117q-53 55 -122 55q-47 0 -75.5 -25.5t-28.5 -66.5 t34 -77t113 -79q99 -54 143 -105.5t44 -113.5q0 -77 -58.5 -129.5t-145.5 -52.5q-60 0 -118 23q-30 11 -47 11q-11 0 -19 -9.5t-9 -23.5h-22z" />
<glyph unicode="T" horiz-adv-x="611" d="M17 492l6 170h564l6 -170h-24q-17 83 -45.5 105.5t-113.5 22.5h-54v-511q0 -55 17 -71t79 -19v-19h-292v19q62 4 78 20.5t16 80.5v500h-54q-84 0 -112.5 -23t-46.5 -105h-24z" />
<glyph unicode="U" horiz-adv-x="722" d="M14 643v19h283v-19q-60 -5 -75.5 -20.5t-15.5 -69.5v-320q0 -88 25 -132q41 -71 147 -71q56 0 101 21.5t65 57.5q23 43 23 136v270q0 75 -18 99.5t-76 28.5v19h232v-19q-62 -8 -78 -30t-16 -98v-261q0 -107 -33 -165q-59 -103 -223 -103q-128 0 -189.5 62.5t-61.5 192.5 v312q0 55 -15.5 70t-74.5 20z" />
<glyph unicode="V" horiz-adv-x="722" d="M16 643v19h266v-19q-28 -2 -29 -2q-46 -3 -46 -31q0 -20 41 -111l151 -338l147 367q19 48 19 73q0 21 -16 30.5t-57 11.5v19h205v-19q-36 -2 -51.5 -18t-40.5 -75l-222 -561h-15l-246 549q-32 67 -50.5 85.5t-55.5 19.5z" />
<glyph unicode="W" horiz-adv-x="944" d="M5 643v19h245v-19q-38 -2 -51.5 -8.5t-13.5 -23.5q0 -18 11 -46l144 -376l107 282l-33 82q-26 60 -42 74.5t-59 15.5v19h267v-19q-77 -1 -77 -35q0 -16 15 -51q28 -72 79.5 -205t64.5 -166l125 339q16 45 16 75q0 20 -15.5 29.5t-53.5 13.5v19h198v-19q-40 -8 -54.5 -20 t-28.5 -51l-204 -583h-15l-160 423l-154 -423h-15l-193 537q-28 71 -46.5 92t-56.5 25z" />
<glyph unicode="X" horiz-adv-x="722" d="M10 0v19q38 3 58 18.5t87 95.5l157 193l-109 160q-73 104 -102.5 129.5t-78.5 27.5v19h302v-19l-28 -1q-48 -1 -48 -29q0 -32 85 -150l42 -59l113 138q40 50 40 69q0 17 -14.5 23.5t-55.5 8.5v19h238v-19q-48 -3 -74 -19.5t-75 -74.5l-146 -182l192 -274q32 -43 51.5 -56 t59.5 -18v-19h-297v19q24 2 27 2q50 1 50 29q0 22 -51 98l-95 140l-119 -148q-52 -65 -52 -86q0 -17 16 -24.5t60 -10.5v-19h-233z" />
<glyph unicode="Y" horiz-adv-x="722" d="M22 643v19h280v-19q-11 -1 -25 -1q-46 -3 -46 -29q0 -19 17 -44l148 -222l143 226q14 23 14 37q0 18 -15 25t-54 8v19h219v-19q-38 -3 -65 -25.5t-73 -88.5l-148 -226v-194q0 -57 18 -72.5t85 -17.5v-19h-306v19q68 3 84.5 19.5t16.5 81.5v174l-131 192 q-75 106 -100.5 131t-61.5 26z" />
<glyph unicode="Z" horiz-adv-x="611" d="M9 0v15l437 609h-221q-100 0 -134 -43q-23 -28 -34 -90h-26l20 171h526v-15l-432 -609h257q88 0 125 39q25 28 47 99h23l-24 -176h-564z" />
<glyph unicode="[" horiz-adv-x="333" d="M88 -156v818h211v-25h-90q-24 0 -34.5 -10.5t-10.5 -33.5v-672q0 -52 49 -52h86v-25h-211z" />
<glyph unicode="\" horiz-adv-x="278" d="M-9 676h67l229 -690h-68z" />
<glyph unicode="]" horiz-adv-x="333" d="M34 -131h90q45 0 45 44v672q0 52 -49 52h-86v25h211v-818h-211v25z" />
<glyph unicode="^" horiz-adv-x="469" d="M24 297l181 365h60l181 -365h-68l-143 289l-143 -289h-68z" />
<glyph unicode="_" d="M0 -75h500v-50h-500v50z" />
<glyph unicode="`" horiz-adv-x="333" d="M16 643q0 32 35 32q19 0 42 -23l147 -148h-40l-154 97q-30 19 -30 42z" />
<glyph unicode="a" horiz-adv-x="444" d="M37 97q0 54 36 87q32 28 64.5 44.5t149.5 63.5v61q0 83 -76 83q-30 0 -51 -14.5t-21 -34.5q0 -5 2.5 -20t2.5 -20q0 -17 -13.5 -29.5t-31.5 -12.5t-30.5 13t-12.5 30q0 41 41 75q45 37 127 37q93 0 125 -58q19 -31 19 -102v-195q0 -33 6.5 -45.5t23.5 -12.5q21 0 44 19 v-26q-26 -29 -45.5 -39.5t-44.5 -10.5q-31 0 -45.5 16.5t-18.5 56.5q-86 -73 -146 -73q-46 0 -75.5 30t-29.5 77zM125 125q0 -32 18.5 -54.5t44.5 -22.5q35 0 73 22q16 10 21 20t5 33v145q-90 -33 -126 -64t-36 -75v-4z" />
<glyph unicode="b" d="M3 623v16l29 8q67 19 116 36l5 -2v-306q15 37 54 61t85 24q75 0 125.5 -62.5t50.5 -154.5q0 -107 -67.5 -180t-166.5 -73q-60 0 -112.5 20.5t-52.5 43.5v519q0 31 -9.5 41t-39.5 10q-11 0 -17 -1zM153 70q0 -19 29 -33.5t68 -14.5q62 0 96 46t34 129q0 91 -34.5 145.5 t-93.5 54.5q-39 0 -69 -23t-30 -52v-252z" />
<glyph unicode="c" horiz-adv-x="444" d="M25 212q0 127 84 197q62 51 135 51q63 0 108.5 -30.5t45.5 -72.5q0 -17 -14 -29.5t-33 -12.5q-35 0 -48 46l-6 22q-8 28 -20 38t-39 10q-61 0 -98.5 -48t-37.5 -126q0 -86 43 -140.5t112 -54.5q43 0 74 20.5t67 73.5l14 -9q-43 -84 -82 -115q-51 -42 -115 -42 q-83 0 -136.5 62.5t-53.5 159.5z" />
<glyph unicode="d" d="M27 205q0 106 61 180.5t147 74.5q54 0 105 -43v156q0 31 -9 41t-37 10q-14 0 -22 -1v16q91 24 147 44l5 -2v-567q0 -35 8.5 -46t35.5 -11q5 0 23 1v-16l-147 -52l-4 3v64q-48 -67 -128 -67q-83 0 -134 59.5t-51 155.5zM113 245q0 -92 38 -147.5t100 -55.5q45 0 72 30 q17 19 17 30v230q0 40 -31 70t-71 30q-57 0 -91 -51t-34 -136z" />
<glyph unicode="e" horiz-adv-x="444" d="M25 214q0 109 58 177.5t151 68.5q80 0 128 -57q33 -42 43 -126h-308q3 -85 30 -138q43 -80 126 -80q48 0 83.5 24t71.5 81l16 -7q-65 -167 -212 -167q-86 0 -136.5 60.5t-50.5 163.5zM99 309h204q-10 65 -31 90t-67 25q-90 0 -106 -115z" />
<glyph unicode="f" horiz-adv-x="333" d="M20 0v15q54 3 68.5 18.5t14.5 70.5v314h-82v32h82q1 60 8 93.5t27 67.5q42 72 141 72q45 0 74.5 -17.5t29.5 -44.5q0 -17 -12 -29t-30 -12q-24 0 -45 36q-24 39 -53 39q-57 0 -57 -89v-116h123v-32h-122v-314q0 -56 16 -71.5t77 -17.5v-15h-260z" />
<glyph unicode="g" d="M28 -121q0 28 22.5 55.5t75.5 66.5q-31 15 -42 26t-11 27q0 29 46 69l43 40q-50 25 -71.5 56t-21.5 78q0 68 48.5 115.5t118.5 47.5q40 0 80 -15l22 -8q29 -10 55 -10h77v-39h-83q19 -43 19 -84q0 -72 -48 -113q-48 -42 -108 -42q-10 0 -38 3q-1 0 -19 2q-20 -6 -40 -27 t-20 -36q0 -24 78 -27l129 -6q55 -2 88 -31t33 -76q0 -56 -55 -101q-84 -68 -205 -68q-71 0 -122 28.5t-51 68.5zM98 -88q0 -33 40 -53t106 -20q85 0 137 27t52 70q0 27 -28 38t-96 11q-101 0 -162 13q-31 -37 -40 -53t-9 -33zM152 335q0 -72 28.5 -116.5t73.5 -44.5 q35 0 55 24.5t20 66.5q0 62 -30 120q-25 47 -73 47q-35 0 -54.5 -25t-19.5 -69v-3z" />
<glyph unicode="h" d="M9 0v15q43 6 53.5 20t10.5 67v471q0 32 -9.5 41.5t-41.5 9.5q-8 0 -12 -1v16l27 8q68 19 115 36l5 -3v-304q35 45 69 64.5t78 19.5q123 0 123 -159v-199q0 -52 9.5 -65.5t50.5 -21.5v-15h-212v15q43 4 55.5 20t12.5 67v198q0 106 -75 106q-29 0 -54.5 -14.5t-56.5 -48.5 v-241q0 -52 12 -67t56 -20v-15h-216z" />
<glyph unicode="i" horiz-adv-x="278" d="M16 0v15q52 3 65.5 18t13.5 69v232q0 33 -7.5 46.5t-25.5 13.5q-10 0 -42 -4v15l155 55l4 -3v-355q0 -54 12.5 -68.5t61.5 -18.5v-15h-237zM86 590q0 21 15 36t36 15q22 0 36.5 -15t14.5 -36q0 -22 -14.5 -36.5t-36.5 -14.5q-21 0 -36 14.5t-15 36.5z" />
<glyph unicode="j" horiz-adv-x="278" d="M-70 -163q0 16 12 27.5t29 11.5q23 0 48 -32q23 -28 42 -28q23 0 34 18q14 25 14 121v379q0 60 -32 60q-25 0 -45 -4v16q80 25 156 54l5 -3v-457q0 -107 -43.5 -162.5t-126.5 -55.5q-41 0 -67 15.5t-26 39.5zM100 590q0 21 15 36t36 15q22 0 36.5 -15t14.5 -36 q0 -22 -14.5 -36.5t-36.5 -14.5q-21 0 -36 14.5t-15 36.5z" />
<glyph unicode="k" d="M7 0v15q54 9 64.5 18.5t10.5 48.5v482q0 36 -9 48.5t-34 12.5q-6 0 -32 -2v16q31 8 89.5 25t65.5 19l4 -2v-420l137 122q23 20 23 34q0 10 -10.5 14t-39.5 5v14h204v-15h-8q-24 0 -46 -6q-47 -13 -162 -120l-29 -27l153 -194q21 -26 39.5 -41t37 -22.5t40.5 -9.5v-15 h-218v15h19q9 0 15 4t6 11q0 6 -21 34l-140 187v-184q0 -26 12.5 -38t42.5 -13l20 -1v-15h-234z" />
<glyph unicode="l" horiz-adv-x="278" d="M19 623v16q99 24 159 44l4 -2v-597q0 -41 13.5 -53.5t61.5 -15.5v-15h-236v15q47 4 62 18t15 54v477q0 35 -9 48t-33 13q-9 0 -31 -2h-6z" />
<glyph unicode="m" horiz-adv-x="778" d="M16 0v15q42 1 56 15t14 55v253q0 36 -7.5 50t-27.5 14q-15 0 -32 -4v17q72 20 140 45l7 -2v-75q62 47 92 62t63 15q79 0 106 -84q78 84 163 84q116 0 116 -178v-206q0 -56 43 -59l26 -2v-15h-219v15q44 5 55 17t11 55v211q0 62 -16 86t-59 24q-66 0 -109 -61v-252 q0 -47 14.5 -63t57.5 -17v-15h-224v15q43 3 55.5 16t12.5 55v217q0 105 -66 105q-26 0 -55 -11.5t-48 -28.5l-15 -19v-282q0 -29 14 -39.5t54 -12.5v-15h-222z" />
<glyph unicode="n" d="M16 398v17q74 22 138 45l7 -2v-79q51 48 80.5 64.5t64.5 16.5q55 0 86.5 -39.5t31.5 -110.5v-229q0 -37 12 -49.5t49 -16.5v-15h-208v15q38 3 50.5 20t12.5 64v209q0 97 -73 97q-25 0 -46 -11.5t-57 -45.5v-281q0 -27 14 -38t52 -14v-15h-212v15q38 3 50 17.5t12 57.5 v248q0 37 -8 50.5t-29 13.5q-19 0 -27 -4z" />
<glyph unicode="o" d="M29 226q0 103 61.5 168.5t159.5 65.5q96 0 158 -64t62 -162q0 -104 -64 -174t-158 -70t-156.5 67.5t-62.5 168.5zM119 275q0 -111 44 -193q34 -64 97 -64q56 0 88 48t32 133q0 103 -40 168t-103 65q-53 0 -85.5 -43t-32.5 -114z" />
<glyph unicode="p" d="M5 -200q44 4 57 17t13 52v468q0 35 -8 46t-33 11q-16 0 -25 -1v16q63 19 144 51l6 -2v-77q64 79 144 79q73 0 120 -60t47 -153q0 -109 -60.5 -183t-149.5 -74q-32 0 -53.5 9t-47.5 34v-157q0 -47 16 -60.5t72 -14.5v-18h-242v17zM159 88q0 -22 34.5 -44t69.5 -22 q54 0 87.5 51.5t33.5 134.5q0 87 -33.5 139.5t-89.5 52.5q-35 0 -68.5 -22t-33.5 -44v-246z" />
<glyph unicode="q" d="M24 205q0 108 63.5 182t157.5 74q54 0 115 -36l54 32h11v-598q0 -32 11 -42.5t52 -19.5v-14h-236v17q53 4 71 19t18 57v188q-68 -74 -157 -74q-70 0 -115 60t-45 155zM110 241q0 -50 14.5 -94t38.5 -66q30 -30 78 -30q50 0 86 31q14 11 14 45v206q0 100 -93 100 q-64 0 -101 -51.5t-37 -140.5z" />
<glyph unicode="r" horiz-adv-x="333" d="M5 0v15q48 9 59.5 20t11.5 49v250q0 33 -7.5 46.5t-26.5 13.5q-16 0 -35 -4v16q80 26 148 54l5 -2v-92q37 53 63 73.5t57 20.5q26 0 40.5 -14t14.5 -39q0 -21 -10.5 -33t-28.5 -12q-17 0 -40 20q-16 15 -26 15q-20 0 -45 -29t-25 -53v-225q0 -43 17 -58t68 -17v-15h-240z " />
<glyph unicode="s" horiz-adv-x="389" d="M51 336q0 55 38.5 89t99.5 34q37 0 68 -12q15 -7 27 -7q6 0 16 10h11l4 -136h-15q-17 67 -42 95t-68 28q-35 0 -56 -18.5t-21 -49.5q0 -43 43 -68l108 -64q46 -27 65 -54t19 -65q0 -52 -41.5 -90t-98.5 -38q-27 0 -74 10q-32 8 -46 8q-15 0 -23 -12h-13v156h16 q17 -76 46 -108t81 -32q38 0 60.5 19.5t22.5 52.5q0 45 -52 75l-58 33q-64 37 -90.5 69.5t-26.5 74.5z" />
<glyph unicode="t" horiz-adv-x="278" d="M13 425q0 8 17 19q41 24 97 107q14 18 20 28q7 0 7 -13v-116h101v-32h-101v-286q0 -48 12 -69t40 -21q30 0 60 35l13 -11q-48 -76 -121 -76q-88 0 -88 127v301h-53q-4 3 -4 7z" />
<glyph unicode="u" d="M9 436v14h146v-326q0 -31 21 -53.5t50 -22.5q48 0 90 36q17 13 17 51v235q0 37 -13.5 49t-60.5 14v17h158v-343q0 -35 11.5 -46t45.5 -11h5v-14q-78 -21 -137 -45l-4 2v83l-43 -43q-43 -43 -103 -43q-55 0 -88 35.5t-33 94.5v252q0 35 -13 48.5t-49 15.5z" />
<glyph unicode="v" d="M19 435v15h196v-15q-26 -2 -36 -8t-10 -20q0 -16 9 -37l102 -256l99 259q6 15 6 30q0 28 -47 32v15h139v-15q-23 -2 -33 -14.5t-32 -63.5l-128 -321q-20 -50 -28 -50q-10 0 -26 47l-120 287q-35 78 -49 96t-42 19z" />
<glyph unicode="w" horiz-adv-x="722" d="M21 435v15h180v-15q-26 -3 -36 -10t-10 -23q0 -15 6 -30l99 -261l91 199l-20 56q-15 40 -28 53t-41 16v15h203v-15q-35 -5 -46.5 -12t-11.5 -24q0 -13 17 -59l84 -224l90 222q17 42 17 66q0 13 -9 19.5t-35 11.5v15h123v-15q-15 -5 -21 -13.5t-20 -40.5l-138 -346 q-20 -49 -28 -49t-24 43l-91 236l-112 -240q-18 -39 -25 -39q-8 0 -26 44l-135 342q-17 38 -26.5 50t-26.5 13z" />
<glyph unicode="x" d="M17 0v15q25 2 37.5 11t35.5 40l114 165l-94 144q-23 35 -39 47.5t-38 12.5h-9v15h207v-15q-43 -1 -43 -22q0 -20 46 -89l14 -20q24 36 30 44q37 46 37 65t-40 22v15h158v-15q-51 -2 -81 -44l-83 -120l128 -196q24 -34 41.5 -47t40.5 -13v-15h-201v15q25 2 32.5 6.5 t7.5 17.5q0 9 -6 18l-91 140l-79 -123q-20 -31 -20 -41q0 -18 40 -18v-15h-145z" />
<glyph unicode="y" d="M14 436v14h206v-15q-32 -1 -45 -7t-13 -20q0 -15 10 -38l115 -253l97 276q4 9 4 17q0 25 -48 25v15h135v-15q-18 -2 -28 -11.5t-20 -33.5l-154 -408q-40 -108 -79.5 -154t-89.5 -46q-32 0 -53 16.5t-21 41.5q0 18 13 31t30 13q23 0 53 -11q14 -7 25 -7t25.5 13t24.5 32 q13 22 26.5 59.5t13.5 48.5q0 10 -11 37l-165 348q-12 26 -51 32z" />
<glyph unicode="z" horiz-adv-x="444" d="M27 0v15l266 405h-138q-45 0 -61 -16.5t-23 -71.5h-18l3 118h347v-15l-269 -405h138q78 0 99 26q17 22 29 83l18 -4l-14 -135h-377z" />
<glyph unicode="{" horiz-adv-x="480" d="M100 250q50 15 67.5 38t17.5 75v178q0 87 44 114q38 24 121 25v-11q-52 -13 -71.5 -40t-19.5 -83v-168q0 -62 -19 -88t-75 -41q56 -14 75 -40t19 -88v-168q0 -56 19.5 -83t71.5 -40v-11q-84 1 -121 25q-44 28 -44 115v177q0 52 -17.5 75t-67.5 39z" />
<glyph unicode="|" horiz-adv-x="200" d="M67 -156v818h66v-818h-66z" />
<glyph unicode="}" horiz-adv-x="480" d="M130 -170q52 13 71.5 40t19.5 83v168q0 62 19 88t75 41q-56 14 -75 39.5t-19 88.5v168q0 56 -19.5 83t-71.5 40v11q84 -1 121 -25q44 -28 44 -115v-177q0 -52 17.5 -75t67.5 -38q-50 -16 -67.5 -39t-17.5 -75v-178q0 -87 -44 -114q-38 -24 -121 -25v11z" />
<glyph unicode="~" horiz-adv-x="541" d="M40 235q34 48 61 66.5t62 18.5q33 0 58.5 -9t93.5 -45q26 -14 59 -14q23 0 38.5 11t35.5 40l54 -32q-34 -48 -61 -66.5t-62 -18.5q-33 0 -58.5 9t-93.5 45q-26 14 -59 14q-23 0 -38.5 -11t-35.5 -40z" />
<glyph unicode="&#xa1;" horiz-adv-x="333" d="M96 407q0 23 15.5 37.5t39.5 14.5q23 0 37.5 -14.5t14.5 -37.5t-15.5 -39t-37.5 -16t-38 16t-16 39zM97 -146q0 13 2 37l45 383h13l9 -108q2 -20 19.5 -155t17.5 -160q0 -35 -14 -56t-39 -21q-53 0 -53 80z" />
<glyph unicode="&#xa2;" d="M53 219q0 101 63.5 171t156.5 70q21 0 51 -5l44 124h35l-47 -135q75 -30 75 -84q0 -20 -12 -32.5t-31 -12.5t-32 11.5t-26 40.5l-101 -291q32 -12 59 -12q44 0 76 22t71 78l13 -8q-25 -52 -43.5 -78t-44.5 -49q-44 -38 -103 -38q-25 0 -56 9l-49 -138h-34l51 150 q-47 26 -70 59q-46 63 -46 148zM130 260q0 -54 15.5 -91t52.5 -71l115 323q-23 9 -47 9q-61 0 -98.5 -46.5t-37.5 -123.5z" />
<glyph unicode="&#xa3;" d="M12 54q0 34 25 55t66 21q22 0 46 -5q4 11 4 21q0 20 -22 182h-108v45h107q-7 36 -7 69q0 107 53 170.5t142 63.5q56 0 93 -26.5t37 -66.5q0 -23 -14 -38t-36 -15t-30 13.5t-9 53.5q-1 52 -56 52q-45 0 -70 -36.5t-25 -102.5q0 -44 11 -137h125v-45h-121v-27l1 -28 q0 -35 -25 -162q84 -35 149 -35q67 0 113 49q15 16 23 16q6 0 6 -5q0 -13 -13.5 -40t-29.5 -45q-50 -58 -125 -58q-32 0 -62.5 13t-81.5 48q-30 -35 -51 -48.5t-47 -13.5q-31 0 -49.5 17t-18.5 45zM38 57q0 -16 11.5 -26.5t29.5 -10.5q27 0 46 23q17 20 17 33q0 6 -17.5 12 t-35.5 6q-51 0 -51 -37z" />
<glyph unicode="&#xa4;" d="M-22 108l98 96q-41 59 -41 126q0 69 41 126l-98 98l50 48l96 -96q61 39 127 39q69 0 125 -39l98 96l48 -48l-96 -98q39 -58 39 -125q0 -66 -39 -127l96 -96l-48 -50l-98 98q-59 -41 -125 -41q-68 0 -127 41l-96 -98zM103 331q0 -63 43.5 -107.5t104.5 -44.5 q62 0 104 44.5t42 108.5q0 62 -43 105.5t-105 43.5q-60 0 -103 -44t-43 -106z" />
<glyph unicode="&#xa5;" d="M-53 643v19h243v-19q-65 -1 -65 -29q0 -19 13 -45l118 -221l112 220q14 26 14 44q0 14 -14 22.5t-37 8.5h-14v19h195v-19q-38 -8 -64 -31.5t-54 -75.5l-92 -184h146v-40h-166l-7 -14v-76h173v-40h-173v-73q0 -53 16 -70.5t64 -19.5v-19h-244v19q50 2 64.5 20.5t14.5 80.5 v62h-174v40h174v76l-7 14h-167v40h144l-95 173q-41 74 -62 95t-56 23z" />
<glyph unicode="&#xa6;" horiz-adv-x="200" d="M67 -156v327h66v-327h-66zM67 335v327h66v-327h-66z" />
<glyph unicode="&#xa7;" d="M70 286q0 51 33 85t82 34q15 0 25 -1q-60 50 -80 80t-20 70q0 54 38.5 88t100.5 34q55 0 91.5 -28t36.5 -70q0 -25 -13.5 -39t-37.5 -14q-20 0 -33.5 12t-13.5 31q0 24 26 44q8 8 8 11q0 13 -18 22.5t-44 9.5q-38 0 -61.5 -19.5t-23.5 -51.5q0 -42 34 -71l137 -113 q89 -74 89 -155q0 -53 -32.5 -86.5t-83.5 -33.5h-18q56 -49 75 -78.5t19 -67.5q0 -57 -39.5 -92t-104.5 -35q-58 0 -98 29t-40 71q0 23 15.5 38.5t38.5 15.5q20 0 34 -12t14 -30q0 -21 -23 -41q-11 -9 -11 -15q0 -14 21.5 -24.5t49.5 -10.5q40 0 63.5 21t23.5 56 q0 29 -20.5 55.5t-68.5 59.5q-91 63 -131 114.5t-40 106.5zM123 316q0 -41 46 -87q83 -83 136 -83q28 0 48.5 20t20.5 46q0 40 -53 93q-35 35 -71 56.5t-59 21.5q-29 0 -48.5 -19t-19.5 -48z" />
<glyph unicode="&#xa8;" horiz-adv-x="333" d="M18 591q0 19 14.5 34t33.5 15q21 0 36 -15t15 -35t-15 -34.5t-36 -14.5q-20 0 -34 14.5t-14 35.5zM217 591q0 19 14.5 34t33.5 15q21 0 36 -15t15 -35t-15 -34.5t-36 -14.5q-20 0 -34 14.5t-14 35.5z" />
<glyph unicode="&#xa9;" horiz-adv-x="760" d="M30 336q0 145 102.5 247.5t247.5 102.5t247.5 -102.5t102.5 -247.5t-102.5 -247.5t-247.5 -102.5t-247.5 102.5t-102.5 247.5zM68 336q0 -129 91.5 -220.5t220.5 -91.5t220.5 91.5t91.5 220.5t-91.5 220.5t-220.5 91.5t-220.5 -91.5t-91.5 -220.5zM186 333q0 101 74 156 q62 46 140 46q45 0 93 -14q17 -5 25 -5q19 0 24 19h17l5 -133h-17q-15 49 -41 72q-38 35 -93 35q-67 0 -106.5 -46t-39.5 -123q0 -80 39 -127t113 -47q75 0 141 58l13 -12q-59 -75 -174 -75q-95 0 -154 54t-59 142z" />
<glyph unicode="&#xaa;" horiz-adv-x="276" d="M4 349v28h266v-28h-266zM4 462q0 32 22 51q21 18 42.5 28.5t88.5 34.5v30q0 42 -36 42q-16 0 -30.5 -7.5t-14.5 -15.5q0 -7 3 -22q0 -10 -9.5 -17.5t-21.5 -7.5q-13 0 -22.5 9t-9.5 22q0 29 30.5 48t77.5 19q105 0 105 -96v-115q0 -22 2.5 -28.5t10.5 -6.5q13 0 28 12 v-18q-30 -30 -59 -30q-20 0 -30 10t-15 34q-48 -44 -91 -44q-31 0 -51 19t-20 49zM67 485q0 -18 11 -31t27 -13q19 0 42 11q11 10 11 22v77q-53 -19 -72 -33t-19 -33z" />
<glyph unicode="&#xab;" d="M57 222l31 27q92 80 170 156q5 6 10 6q10 0 10 -9q0 -10 -32 -57.5t-86 -112.5l-10 -12l10 -12q118 -141 118 -166q0 -9 -10 -9q-5 0 -10 6q-66 65 -170 156zM247 222l31 27q92 80 170 156q5 6 10 6q10 0 10 -9q0 -10 -32 -57.5t-86 -112.5l-10 -12l10 -12 q118 -141 118 -166q0 -9 -10 -9q-5 0 -10 6q-66 65 -170 156z" />
<glyph unicode="&#xac;" horiz-adv-x="564" d="M40 300v66h484v-199h-66v133h-418z" />
<glyph unicode="&#xad;" horiz-adv-x="333" d="M39 194v63h246v-63h-246z" />
<glyph unicode="&#xae;" horiz-adv-x="760" d="M30 336q0 145 102.5 247.5t247.5 102.5t247.5 -102.5t102.5 -247.5t-102.5 -247.5t-247.5 -102.5t-247.5 102.5t-102.5 247.5zM68 336q0 -129 91.5 -220.5t220.5 -91.5t220.5 91.5t91.5 220.5t-91.5 220.5t-220.5 91.5t-220.5 -91.5t-91.5 -220.5zM177 145v14 q34 2 42 11.5t8 44.5v248q0 30 -8 38.5t-42 11.5v14h175q100 0 139 -39q25 -25 25 -63q0 -43 -33 -67q-26 -19 -80 -30l128 -143q24 -24 52 -26v-14h-105l-150 176l-28 -1v-111q0 -30 9.5 -39t43.5 -11v-14h-176zM300 345q72 1 104 18q35 17 35 63q0 76 -111 76 q-16 0 -22 -3.5t-6 -14.5v-139z" />
<glyph unicode="&#xaf;" horiz-adv-x="333" d="M11 563v54h311v-54h-311z" />
<glyph unicode="&#xb0;" horiz-adv-x="400" d="M57 533q0 60 41.5 101.5t101.5 41.5t101.5 -41.5t41.5 -102.5q0 -60 -42 -101t-103 -41q-58 0 -99.5 42t-41.5 101zM96 533q0 -44 30.5 -76.5t72.5 -32.5q43 0 74 32t31 77q0 44 -31 76.5t-73 32.5q-43 0 -73.5 -32.5t-30.5 -76.5z" />
<glyph unicode="&#xb1;" horiz-adv-x="564" d="M40 0v66h484v-66h-484zM40 283v66h209v209h66v-209h209v-66h-209v-158h-66v158h-209z" />
<glyph unicode="&#xb2;" horiz-adv-x="300" d="M1 557q21 61 47 84q35 35 98 35q58 0 94.5 -29.5t36.5 -76.5q0 -37 -19 -71t-65 -79l-86 -85h121q20 0 30 5t21 22l17 -7l-37 -85h-253v23l98 107q81 87 81 137q0 31 -21.5 53.5t-51.5 22.5q-54 0 -86 -70z" />
<glyph unicode="&#xb3;" horiz-adv-x="300" d="M14 312q0 16 10 26.5t25 10.5t41 -19q27 -20 52 -20q31 0 49.5 18.5t18.5 49.5q0 48 -41 71q-31 18 -53 14l-23 -3v29q52 18 73.5 36.5t21.5 45.5q0 23 -15.5 36t-42.5 13q-25 0 -43 -12.5t-41 -44.5l-25 18q26 51 57.5 73t77.5 22q45 0 76.5 -24t31.5 -59q0 -39 -60 -82 q87 -35 87 -113q0 -58 -55.5 -97t-138.5 -39t-83 50z" />
<glyph unicode="&#xb4;" horiz-adv-x="333" d="M93 504l147 148q23 23 42 23q35 0 35 -32q0 -23 -30 -42l-154 -97h-40z" />
<glyph unicode="&#xb5;" d="M36 -148q0 19 12 103.5t12 98.5v396h88v-306q0 -43 22.5 -67.5t61.5 -24.5q73 0 110 63v335h88v-358q0 -65 32 -65q19 0 50 28v-8q-25 -32 -45.5 -44.5t-48.5 -12.5q-36 0 -54 21.5t-19 68.5q-57 -90 -137 -90q-72 0 -117 74q4 -41 19 -97q18 -72 18 -108q0 -77 -46 -77 t-46 70z" />
<glyph unicode="&#xb6;" horiz-adv-x="453" d="M-22 477q0 98 49.5 141.5t159.5 43.5h263v-19q-58 -5 -73 -20.5t-15 -69.5v-595q0 -53 15.5 -69.5t72.5 -20.5v-22h-154v794h-58v-794h-154v22q58 4 73 21t15 80v304q-47 1 -73 8.5t-51 25.5q-70 48 -70 170zM54 481q0 -95 27 -137t91 -49v345q-50 -4 -75 -22 q-43 -31 -43 -137z" />
<glyph unicode="&#xb7;" horiz-adv-x="250" d="M69 250q0 23 16.5 39.5t39.5 16.5t39.5 -16.5t16.5 -39.5t-16.5 -39.5t-39.5 -16.5t-39.5 16.5t-16.5 39.5z" />
<glyph unicode="&#xb8;" horiz-adv-x="333" d="M52 -199l14 31q37 -12 65 -12q25 0 40 12t15 32q0 19 -12 27.5t-41 8.5q-17 0 -28 -4l-7 5l41 104h35l-25 -70q15 3 26 3q40 0 63 -18.5t23 -50.5q0 -39 -33.5 -61.5t-91.5 -22.5q-45 0 -84 16z" />
<glyph unicode="&#xb9;" horiz-adv-x="300" d="M57 270v24q32 2 42.5 8.5t10.5 23.5v257q0 28 -8 28q-6 0 -43 -13v23l118 55l14 -3v-343q0 -20 11.5 -27t45.5 -9v-24h-191z" />
<glyph unicode="&#xba;" horiz-adv-x="310" d="M6 349v28h298v-28h-298zM6 533q0 64 42.5 103.5t110.5 39.5q64 0 104.5 -37.5t40.5 -96.5q0 -63 -44 -105.5t-109 -42.5q-63 0 -104 39.5t-41 99.5zM79 569q0 -56 19.5 -99t61.5 -43q71 0 71 87q0 57 -22.5 93t-58.5 36q-32 0 -51.5 -20t-19.5 -54z" />
<glyph unicode="&#xbb;" d="M45 42q0 10 32 57.5t86 112.5l10 12l-10 12q-118 141 -118 166q0 9 10 9q5 0 10 -6q66 -65 170 -156l31 -27l-31 -27q-92 -80 -170 -156q-5 -6 -10 -6q-10 0 -10 9zM235 42q0 10 32 57.5t86 112.5l10 12l-10 12q-118 141 -118 166q0 9 10 9q5 0 10 -6q66 -65 170 -156 l31 -27l-31 -27q-92 -80 -170 -156q-5 -6 -10 -6q-10 0 -10 9z" />
<glyph unicode="&#xbc;" horiz-adv-x="750" d="M37 270v24q32 2 42.5 8.5t10.5 23.5v257q0 28 -8 28q-6 0 -43 -13v23l118 55l14 -3v-343q0 -20 11.5 -27t45.5 -9v-24h-191zM138 -14l453 690h46l-450 -690h-49zM413 90v49l203 266h47v-258h55v-57h-55v-90h-70v90h-180zM458 147h135v179z" />
<glyph unicode="&#xbd;" horiz-adv-x="750" d="M31 270v24q32 2 42.5 8.5t10.5 23.5v257q0 28 -8 28q-6 0 -43 -13v23l118 55l14 -3v-343q0 -20 11.5 -27t45.5 -9v-24h-191zM101 -14l453 690h46l-450 -690h-49zM451 287q21 61 47 84q35 35 98 35q58 0 94.5 -29.5t36.5 -76.5q0 -37 -19 -71t-65 -79l-86 -85h121 q20 0 30 5t21 22l17 -7l-37 -85h-253v23l98 107q81 87 81 137q0 31 -21.5 53.5t-51.5 22.5q-54 0 -86 -70z" />
<glyph unicode="&#xbe;" horiz-adv-x="750" d="M15 312q0 16 10 26.5t25 10.5q17 0 41 -19q27 -20 52 -20q31 0 49.5 18.5t18.5 49.5q0 48 -41 71q-31 18 -53 14l-23 -3v29q53 18 74.5 36.5t21.5 45.5q0 22 -15 35.5t-41 13.5q-28 0 -46 -12t-42 -45l-25 18q27 51 58.5 73t78.5 22q45 0 76.5 -24t31.5 -59 q0 -39 -61 -82q87 -35 87 -113q0 -58 -55.5 -97t-138.5 -39t-83 50zM138 -14l453 690h46l-450 -690h-49zM413 90v49l203 266h47v-258h55v-57h-55v-90h-70v90h-180zM458 147h135v179z" />
<glyph unicode="&#xbf;" horiz-adv-x="444" d="M30 -71q0 57 45 126q14 21 60 77q50 64 65 154h17q-2 -69 -30 -142l-28 -64q-37 -85 -37 -156q0 -50 31.5 -85t76.5 -35q37 0 66 19t29 43q0 11 -17 31q-21 24 -21 43q0 18 11.5 29.5t29.5 11.5q48 0 48 -62t-46.5 -103.5t-115.5 -41.5q-41 0 -81.5 16t-66.5 42 q-36 36 -36 97zM153 406q0 23 15.5 37.5t39.5 14.5q22 0 37 -14.5t15 -36.5q0 -24 -15 -40t-38 -16q-22 0 -38 16.5t-16 38.5z" />
<glyph unicode="&#xc0;" horiz-adv-x="722" d="M15 0v19q36 2 56 28.5t68 135.5l208 491h20l249 -568q26 -56 41 -70.5t49 -16.5v-19h-255v19q41 0 56 9q14 7 14 24q0 24 -19 68l-41 96h-262l-46 -117q-8 -21 -8 -39q0 -41 68 -41v-19h-198zM203 825q0 26 38 26q21 0 46 -19l158 -120h-43l-167 80q-32 13 -32 33z M216 257h231l-116 275z" />
<glyph unicode="&#xc1;" horiz-adv-x="722" d="M15 0v19q36 2 56 28.5t68 135.5l208 491h20l249 -568q26 -56 41 -70.5t49 -16.5v-19h-255v19q41 0 56 9q14 7 14 24q0 24 -19 68l-41 96h-262l-46 -117q-8 -21 -8 -39q0 -41 68 -41v-19h-198zM216 257h231l-116 275zM270 712l158 120q25 19 46 19q38 0 38 -26 q0 -20 -32 -33l-167 -80h-43z" />
<glyph unicode="&#xc2;" horiz-adv-x="722" d="M15 0v19q36 2 56 28.5t68 135.5l208 491h20l249 -568q26 -56 41 -70.5t49 -16.5v-19h-255v19q41 0 56 9q14 7 14 24q0 24 -19 68l-41 96h-262l-46 -117q-8 -21 -8 -39q0 -41 68 -41v-19h-198zM185 718l134 129h77l135 -129h-48l-125 79l-125 -79h-48zM216 257h231 l-116 275z" />
<glyph unicode="&#xc3;" horiz-adv-x="722" d="M15 0v19q36 2 56 28.5t68 135.5l208 491h20l249 -568q26 -56 41 -70.5t49 -16.5v-19h-255v19q41 0 56 9q14 7 14 24q0 24 -19 68l-41 96h-262l-46 -117q-8 -21 -8 -39q0 -41 68 -41v-19h-198zM192 729q11 49 37.5 75t63.5 26q35 0 70 -18l24 -12q32 -15 53 -15 q17 0 28.5 11t24.5 39h29q-16 -57 -40 -81.5t-65 -24.5q-32 0 -81 24l-23 11q-24 11 -41 11q-35 0 -51 -46h-29zM216 257h231l-116 275z" />
<glyph unicode="&#xc4;" horiz-adv-x="722" d="M15 0v19q36 2 56 28.5t68 135.5l208 491h20l249 -568q26 -56 41 -70.5t49 -16.5v-19h-255v19q41 0 56 9q14 7 14 24q0 24 -19 68l-41 96h-262l-46 -117q-8 -21 -8 -39q0 -41 68 -41v-19h-198zM209 783q0 19 14.5 34t33.5 15q21 0 36 -15t15 -35t-15 -34.5t-36 -14.5 q-20 0 -34 14.5t-14 35.5zM216 257h231l-116 275zM408 783q0 19 14.5 34t33.5 15q21 0 36 -15t15 -35t-15 -34.5t-36 -14.5q-20 0 -34 14.5t-14 35.5z" />
<glyph unicode="&#xc5;" horiz-adv-x="722" d="M15 0v19q36 2 56 28.5t68 135.5l208 491h20l249 -568q26 -56 41 -70.5t49 -16.5v-19h-255v19q41 0 56 9q14 7 14 24q0 24 -19 68l-41 96h-262l-46 -117q-8 -21 -8 -39q0 -41 68 -41v-19h-198zM216 257h231l-116 275zM258 797q0 41 29 70t70 29t70.5 -29.5t29.5 -70.5 t-29.5 -70t-70.5 -29q-42 0 -70.5 29t-28.5 71zM292 797q0 -27 19 -46.5t45 -19.5q28 0 47.5 19t19.5 46t-19.5 46.5t-45.5 19.5q-27 0 -46.5 -19t-19.5 -46z" />
<glyph unicode="&#xc6;" horiz-adv-x="889" d="M0 0v19q32 4 47.5 18t40.5 60l245 484q9 17 9 28q0 16 -20.5 23.5t-69.5 9.5v20h564v-141h-23q-7 48 -22 68.5t-49.5 28.5t-110.5 8h-87q-27 0 -27 -30v-230h111q91 0 114 30q13 19 18 67h21v-234h-21q-6 52 -20 72q-20 28 -78 28h-145v-238q0 -37 10 -45t59 -8h76 q81 0 117.5 24t79.5 106h24l-44 -168h-510v19l17 2q45 5 58.5 21.5t13.5 65.5v152h-176l-28 -53q-64 -125 -64 -158q0 -24 68 -30h1v-19h-199zM239 299h159v319z" />
<glyph unicode="&#xc7;" horiz-adv-x="667" d="M28 325q0 175 117 272q96 79 217 79q74 0 147 -24q24 -9 40 -9q32 0 41 33h21l9 -226h-23q-14 49 -28 75t-38 50q-61 61 -149 61q-109 0 -173.5 -81t-64.5 -217q0 -179 92 -255q64 -53 156 -53q118 0 223 101l18 -18q-46 -61 -117 -94t-156 -33q-15 0 -24 1l-20 -52 q15 3 26 3q41 0 63.5 -18t22.5 -51q0 -39 -33.5 -61.5t-91.5 -22.5q-45 0 -84 16l14 31q36 -12 65 -12q25 0 40 12t15 32q0 19 -12 27.5t-41 8.5q-17 0 -28 -4l-7 5l37 89q-126 18 -200 108.5t-74 226.5z" />
<glyph unicode="&#xc8;" horiz-adv-x="611" d="M12 0v19q55 4 71 20.5t16 69.5v444q0 53 -15.5 69t-71.5 21v19h531l3 -143h-25q-13 67 -40 86t-112 19h-135q-20 0 -26.5 -6.5t-6.5 -27.5v-222h154q61 0 80.5 17t29.5 78h23v-232h-23q-10 62 -29 79t-81 17h-154v-247q0 -27 8 -32q14 -11 97 -11h27q107 0 153 25.5 t83 106.5h28l-45 -169h-540zM128 825q0 26 38 26q21 0 46 -19l158 -120h-43l-167 80q-32 13 -32 33z" />
<glyph unicode="&#xc9;" horiz-adv-x="611" d="M12 0v19q55 4 71 20.5t16 69.5v444q0 53 -15.5 69t-71.5 21v19h531l3 -143h-25q-13 67 -40 86t-112 19h-135q-20 0 -26.5 -6.5t-6.5 -27.5v-222h154q61 0 80.5 17t29.5 78h23v-232h-23q-10 62 -29 79t-81 17h-154v-247q0 -27 8 -32q14 -11 97 -11h27q107 0 153 25.5 t83 106.5h28l-45 -169h-540zM195 712l158 120q25 19 46 19q38 0 38 -26q0 -20 -32 -33l-167 -80h-43z" />
<glyph unicode="&#xca;" horiz-adv-x="611" d="M12 0v19q55 4 71 20.5t16 69.5v444q0 53 -15.5 69t-71.5 21v19h531l3 -143h-25q-13 67 -40 86t-112 19h-135q-20 0 -26.5 -6.5t-6.5 -27.5v-222h154q61 0 80.5 17t29.5 78h23v-232h-23q-10 62 -29 79t-81 17h-154v-247q0 -27 8 -32q14 -11 97 -11h27q107 0 153 25.5 t83 106.5h28l-45 -169h-540zM110 718l134 129h77l135 -129h-48l-125 79l-125 -79h-48z" />
<glyph unicode="&#xcb;" horiz-adv-x="611" d="M12 0v19q55 4 71 20.5t16 69.5v444q0 53 -15.5 69t-71.5 21v19h531l3 -143h-25q-13 67 -40 86t-112 19h-135q-20 0 -26.5 -6.5t-6.5 -27.5v-222h154q61 0 80.5 17t29.5 78h23v-232h-23q-10 62 -29 79t-81 17h-154v-247q0 -27 8 -32q14 -11 97 -11h27q107 0 153 25.5 t83 106.5h28l-45 -169h-540zM134 783q0 19 14.5 34t33.5 15q21 0 36 -15t15 -35t-15 -34.5t-36 -14.5q-20 0 -34 14.5t-14 35.5zM333 783q0 19 14.5 34t33.5 15q21 0 36 -15t15 -35t-15 -34.5t-36 -14.5q-20 0 -34 14.5t-14 35.5z" />
<glyph unicode="&#xcc;" horiz-adv-x="333" d="M12 825q0 26 38 26q21 0 46 -19l158 -120h-43l-167 80q-32 13 -32 33zM18 0v19q63 2 80 18t17 72v444q0 55 -16.5 70.5t-80.5 19.5v19h297v-19q-63 -3 -80.5 -19t-17.5 -71v-444q0 -55 18 -71.5t80 -18.5v-19h-297z" />
<glyph unicode="&#xcd;" horiz-adv-x="333" d="M18 0v19q63 2 80 18t17 72v444q0 55 -16.5 70.5t-80.5 19.5v19h297v-19q-63 -3 -80.5 -19t-17.5 -71v-444q0 -55 18 -71.5t80 -18.5v-19h-297zM79 712l158 120q25 19 46 19q38 0 38 -26q0 -20 -32 -33l-167 -80h-43z" />
<glyph unicode="&#xce;" horiz-adv-x="333" d="M-6 718l134 129h77l135 -129h-48l-125 79l-125 -79h-48zM18 0v19q63 2 80 18t17 72v444q0 55 -16.5 70.5t-80.5 19.5v19h297v-19q-63 -3 -80.5 -19t-17.5 -71v-444q0 -55 18 -71.5t80 -18.5v-19h-297z" />
<glyph unicode="&#xcf;" horiz-adv-x="333" d="M18 0v19q63 2 80 18t17 72v444q0 55 -16.5 70.5t-80.5 19.5v19h297v-19q-63 -3 -80.5 -19t-17.5 -71v-444q0 -55 18 -71.5t80 -18.5v-19h-297zM18 783q0 19 14.5 34t33.5 15q21 0 36 -15t15 -35t-15 -34.5t-36 -14.5q-20 0 -34 14.5t-14 35.5zM217 783q0 19 14.5 34 t33.5 15q21 0 36 -15t15 -35t-15 -34.5t-36 -14.5q-20 0 -34 14.5t-14 35.5z" />
<glyph unicode="&#xd0;" horiz-adv-x="722" d="M16 0v19q57 4 72.5 20t15.5 70v206h-83v44h83v194q0 55 -14.5 70t-73.5 20v19h270q211 0 314 -105q85 -85 85 -223q0 -152 -102 -245q-46 -42 -121 -65.5t-162 -23.5h-284zM206 78q0 -24 11 -32.5t41 -8.5q124 0 196 41q122 71 122 249q0 166 -119 248q-71 50 -201 50 q-30 0 -40 -8t-10 -31v-227h146v-44h-146v-237z" />
<glyph unicode="&#xd1;" horiz-adv-x="722" d="M12 0v19q62 4 79.5 27.5t17.5 100.5v441q-30 35 -47.5 45t-49.5 10v19h171l385 -484v337q0 92 -29 112q-21 12 -67 16v19h235v-19q-48 -5 -66 -18q-29 -20 -29 -110v-526h-17l-442 550v-392q0 -76 18 -100.5t76 -27.5v-19h-235zM195 729q11 49 37 75t64 26q36 0 70 -18 l24 -12q32 -15 53 -15q17 0 28.5 11t24.5 39h29q-16 -57 -40 -81.5t-65 -24.5q-32 0 -81 24l-23 11q-24 11 -41 11q-35 0 -51 -46h-29z" />
<glyph unicode="&#xd2;" horiz-adv-x="722" d="M34 331q0 151 92 248t235 97q147 0 243 -105q84 -92 84 -244q0 -151 -92.5 -246t-240.5 -95q-66 0 -128.5 27.5t-106.5 74.5q-40 43 -63 107.5t-23 135.5zM148 329q0 -83 23 -153.5t62 -104.5q55 -49 126 -49q80 0 133 53q36 35 49 73q33 86 33 180q0 185 -85 262 q-56 50 -128 50q-84 0 -143 -65q-32 -35 -51 -102.5t-19 -143.5zM207 825q0 26 38 26q21 0 46 -19l158 -120h-43l-167 80q-32 13 -32 33z" />
<glyph unicode="&#xd3;" horiz-adv-x="722" d="M34 331q0 151 92 248t235 97q147 0 243 -105q84 -92 84 -244q0 -151 -92.5 -246t-240.5 -95q-66 0 -128.5 27.5t-106.5 74.5q-40 43 -63 107.5t-23 135.5zM148 329q0 -83 23 -153.5t62 -104.5q55 -49 126 -49q80 0 133 53q36 35 49 73q33 86 33 180q0 185 -85 262 q-56 50 -128 50q-84 0 -143 -65q-32 -35 -51 -102.5t-19 -143.5zM274 712l158 120q25 19 46 19q38 0 38 -26q0 -20 -32 -33l-167 -80h-43z" />
<glyph unicode="&#xd4;" horiz-adv-x="722" d="M34 331q0 151 92 248t235 97q147 0 243 -105q84 -92 84 -244q0 -151 -92.5 -246t-240.5 -95q-66 0 -128.5 27.5t-106.5 74.5q-40 43 -63 107.5t-23 135.5zM148 329q0 -83 23 -153.5t62 -104.5q55 -49 126 -49q80 0 133 53q36 35 49 73q33 86 33 180q0 185 -85 262 q-56 50 -128 50q-84 0 -143 -65q-32 -35 -51 -102.5t-19 -143.5zM189 718l134 129h77l135 -129h-48l-125 79l-125 -79h-48z" />
<glyph unicode="&#xd5;" horiz-adv-x="722" d="M34 331q0 151 92 248t235 97q147 0 243 -105q84 -92 84 -244q0 -151 -92.5 -246t-240.5 -95q-66 0 -128.5 27.5t-106.5 74.5q-40 43 -63 107.5t-23 135.5zM148 329q0 -83 23 -153.5t62 -104.5q55 -49 126 -49q80 0 133 53q36 35 49 73q33 86 33 180q0 185 -85 262 q-56 50 -128 50q-84 0 -143 -65q-32 -35 -51 -102.5t-19 -143.5zM196 729q11 49 37.5 75t63.5 26q35 0 70 -18l24 -12q32 -15 53 -15q17 0 28.5 11t24.5 39h29q-16 -57 -40 -81.5t-65 -24.5q-32 0 -81 24l-23 11q-24 11 -41 11q-35 0 -51 -46h-29z" />
<glyph unicode="&#xd6;" horiz-adv-x="722" d="M34 331q0 151 92 248t235 97q147 0 243 -105q84 -92 84 -244q0 -151 -92.5 -246t-240.5 -95q-66 0 -128.5 27.5t-106.5 74.5q-40 43 -63 107.5t-23 135.5zM148 329q0 -83 23 -153.5t62 -104.5q55 -49 126 -49q80 0 133 53q36 35 49 73q33 86 33 180q0 185 -85 262 q-56 50 -128 50q-84 0 -143 -65q-32 -35 -51 -102.5t-19 -143.5zM213 783q0 19 14.5 34t33.5 15q21 0 36 -15t15 -35t-15 -34.5t-36 -14.5q-20 0 -34 14.5t-14 35.5zM412 783q0 19 14.5 34t33.5 15q21 0 36 -15t15 -35t-15 -34.5t-36 -14.5q-20 0 -34 14.5t-14 35.5z" />
<glyph unicode="&#xd7;" horiz-adv-x="564" d="M88 102l147 148l-147 148l46 46l148 -147l148 147l46 -46l-147 -148l147 -148l-46 -46l-148 147l-148 -147z" />
<glyph unicode="&#xd8;" horiz-adv-x="722" d="M34 330q0 152 92 249t236 97q88 0 175 -49l72 107h49l-88 -130q54 -50 76 -93q42 -78 42 -180q0 -152 -92 -248.5t-237 -96.5q-91 0 -175 50l-79 -116h-49l95 139q-53 48 -76 93q-41 79 -41 178zM148 330q0 -120 46 -207l308 452q-62 65 -141 65q-98 0 -155.5 -83.5 t-57.5 -226.5zM219 88q60 -66 142 -66q99 0 156 82.5t57 225.5q0 120 -47 210z" />
<glyph unicode="&#xd9;" horiz-adv-x="722" d="M14 643v19h283v-19q-60 -5 -75.5 -20.5t-15.5 -69.5v-320q0 -88 25 -132q41 -71 147 -71q56 0 101 21.5t65 57.5q23 43 23 136v270q0 75 -18 99.5t-76 28.5v19h232v-19q-62 -8 -78 -30t-16 -98v-261q0 -107 -33 -165q-59 -103 -223 -103q-128 0 -189.5 62.5t-61.5 192.5 v312q0 55 -15.5 70t-74.5 20zM232 825q0 26 38 26q21 0 46 -19l158 -120h-43l-167 80q-32 13 -32 33z" />
<glyph unicode="&#xda;" horiz-adv-x="722" d="M14 643v19h283v-19q-60 -5 -75.5 -20.5t-15.5 -69.5v-320q0 -88 25 -132q41 -71 147 -71q56 0 101 21.5t65 57.5q23 43 23 136v270q0 75 -18 99.5t-76 28.5v19h232v-19q-62 -8 -78 -30t-16 -98v-261q0 -107 -33 -165q-59 -103 -223 -103q-128 0 -189.5 62.5t-61.5 192.5 v312q0 55 -15.5 70t-74.5 20zM299 712l158 120q25 19 46 19q38 0 38 -26q0 -20 -32 -33l-167 -80h-43z" />
<glyph unicode="&#xdb;" horiz-adv-x="722" d="M14 643v19h283v-19q-60 -5 -75.5 -20.5t-15.5 -69.5v-320q0 -88 25 -132q41 -71 147 -71q56 0 101 21.5t65 57.5q23 43 23 136v270q0 75 -18 99.5t-76 28.5v19h232v-19q-62 -8 -78 -30t-16 -98v-261q0 -107 -33 -165q-59 -103 -223 -103q-128 0 -189.5 62.5t-61.5 192.5 v312q0 55 -15.5 70t-74.5 20zM214 718l134 129h77l135 -129h-48l-125 79l-125 -79h-48z" />
<glyph unicode="&#xdc;" horiz-adv-x="722" d="M14 643v19h283v-19q-60 -5 -75.5 -20.5t-15.5 -69.5v-320q0 -88 25 -132q41 -71 147 -71q56 0 101 21.5t65 57.5q23 43 23 136v270q0 75 -18 99.5t-76 28.5v19h232v-19q-62 -8 -78 -30t-16 -98v-261q0 -107 -33 -165q-59 -103 -223 -103q-128 0 -189.5 62.5t-61.5 192.5 v312q0 55 -15.5 70t-74.5 20zM238 783q0 19 14.5 34t33.5 15q21 0 36 -15t15 -35t-15 -34.5t-36 -14.5q-20 0 -34 14.5t-14 35.5zM437 783q0 19 14.5 34t33.5 15q21 0 36 -15t15 -35t-15 -34.5t-36 -14.5q-20 0 -34 14.5t-14 35.5z" />
<glyph unicode="&#xdd;" horiz-adv-x="722" d="M22 643v19h280v-19q-11 -1 -25 -1q-46 -3 -46 -29q0 -19 17 -44l148 -222l143 226q14 23 14 37q0 18 -15 25t-54 8v19h219v-19q-38 -3 -65 -25.5t-73 -88.5l-148 -226v-194q0 -57 18 -72.5t85 -17.5v-19h-306v19q68 3 84.5 19.5t16.5 81.5v174l-131 192 q-75 106 -100.5 131t-61.5 26zM279 712l158 120q25 19 46 19q38 0 38 -26q0 -20 -32 -33l-167 -80h-43z" />
<glyph unicode="&#xde;" horiz-adv-x="556" d="M16 0v19q57 5 70.5 21.5t13.5 79.5v433q0 54 -14 69t-70 21v19h277v-19q-61 -5 -76.5 -24t-14.5 -87h80q120 0 190 -49t70 -132q0 -49 -26 -92t-70 -67q-61 -34 -175 -34q-29 0 -69 3v-52q0 -55 17.5 -71.5t76.5 -18.5v-19h-280zM202 201q34 -3 57 -3q174 0 174 147 q0 77 -48 113t-151 36q-19 0 -25.5 -7t-6.5 -26v-260z" />
<glyph unicode="&#xdf;" d="M12 0v15q38 3 49.5 16t11.5 53v370q0 229 178 229q78 0 124 -41.5t46 -110.5q0 -54 -28.5 -85.5t-108.5 -68.5q82 -16 122 -51q62 -53 62 -140q0 -82 -52 -138.5t-127 -56.5q-43 0 -70 20.5t-27 52.5q0 20 13 34t32 14q17 0 29 -11.5t13 -28.5l2 -22q1 -16 8 -23t21 -7 q64 0 64 130q0 202 -132 207q-32 1 -32 17q0 12 29 15q95 10 95 128q0 65 -24 102t-67 37q-39 0 -62.5 -29t-23.5 -78v-549h-145z" />
<glyph unicode="&#xe0;" horiz-adv-x="444" d="M37 97q0 54 36 87q32 28 64.5 44.5t149.5 63.5v61q0 83 -76 83q-30 0 -51 -14.5t-21 -34.5q0 -5 2.5 -20t2.5 -20q0 -17 -13.5 -29.5t-31.5 -12.5t-30.5 13t-12.5 30q0 41 41 75q45 37 127 37q93 0 125 -58q19 -31 19 -102v-195q0 -33 6.5 -45.5t23.5 -12.5q21 0 44 19 v-26q-26 -29 -45.5 -39.5t-44.5 -10.5q-31 0 -45.5 16.5t-18.5 56.5q-86 -73 -146 -73q-46 0 -75.5 30t-29.5 77zM74 643q0 32 35 32q19 0 42 -23l147 -148h-40l-154 97q-30 19 -30 42zM125 125q0 -32 18.5 -54.5t44.5 -22.5q35 0 73 22q16 10 21 20t5 33v145 q-90 -33 -126 -64t-36 -75v-4z" />
<glyph unicode="&#xe1;" horiz-adv-x="444" d="M37 97q0 54 36 87q32 28 64.5 44.5t149.5 63.5v61q0 83 -76 83q-30 0 -51 -14.5t-21 -34.5q0 -5 2.5 -20t2.5 -20q0 -17 -13.5 -29.5t-31.5 -12.5t-30.5 13t-12.5 30q0 41 41 75q45 37 127 37q93 0 125 -58q19 -31 19 -102v-195q0 -33 6.5 -45.5t23.5 -12.5q21 0 44 19 v-26q-26 -29 -45.5 -39.5t-44.5 -10.5q-31 0 -45.5 16.5t-18.5 56.5q-86 -73 -146 -73q-46 0 -75.5 30t-29.5 77zM125 125q0 -32 18.5 -54.5t44.5 -22.5q35 0 73 22q16 10 21 20t5 33v145q-90 -33 -126 -64t-36 -75v-4zM151 504l147 148q23 23 42 23q35 0 35 -32 q0 -23 -30 -42l-154 -97h-40z" />
<glyph unicode="&#xe2;" horiz-adv-x="444" d="M37 97q0 54 36 87q32 28 64.5 44.5t149.5 63.5v61q0 83 -76 83q-30 0 -51 -14.5t-21 -34.5q0 -5 2.5 -20t2.5 -20q0 -17 -13.5 -29.5t-31.5 -12.5t-30.5 13t-12.5 30q0 41 41 75q45 37 127 37q93 0 125 -58q19 -31 19 -102v-195q0 -33 6.5 -45.5t23.5 -12.5q21 0 44 19 v-26q-26 -29 -45.5 -39.5t-44.5 -10.5q-31 0 -45.5 16.5t-18.5 56.5q-86 -73 -146 -73q-46 0 -75.5 30t-29.5 77zM69 507l124 167h62l125 -167h-34l-122 103l-121 -103h-34zM125 125q0 -32 18.5 -54.5t44.5 -22.5q35 0 73 22q16 10 21 20t5 33v145q-90 -33 -126 -64t-36 -75 v-4z" />
<glyph unicode="&#xe3;" horiz-adv-x="444" d="M37 97q0 54 36 87q32 28 64.5 44.5t149.5 63.5v61q0 83 -76 83q-30 0 -51 -14.5t-21 -34.5q0 -5 2.5 -20t2.5 -20q0 -17 -13.5 -29.5t-31.5 -12.5t-30.5 13t-12.5 30q0 41 41 75q45 37 127 37q93 0 125 -58q19 -31 19 -102v-195q0 -33 6.5 -45.5t23.5 -12.5q21 0 44 19 v-26q-26 -29 -45.5 -39.5t-44.5 -10.5q-31 0 -45.5 16.5t-18.5 56.5q-86 -73 -146 -73q-46 0 -75.5 30t-29.5 77zM59 537q11 49 37 75t64 26q36 0 70 -18l24 -12q32 -15 53 -15q17 0 28.5 11t24.5 39h29q-16 -57 -40 -81.5t-65 -24.5q-32 0 -81 24l-23 11q-24 11 -41 11 q-35 0 -51 -46h-29zM125 125q0 -32 18.5 -54.5t44.5 -22.5q35 0 73 22q16 10 21 20t5 33v145q-90 -33 -126 -64t-36 -75v-4z" />
<glyph unicode="&#xe4;" horiz-adv-x="444" d="M37 97q0 54 36 87q32 28 64.5 44.5t149.5 63.5v61q0 83 -76 83q-30 0 -51 -14.5t-21 -34.5q0 -5 2.5 -20t2.5 -20q0 -17 -13.5 -29.5t-31.5 -12.5t-30.5 13t-12.5 30q0 41 41 75q45 37 127 37q93 0 125 -58q19 -31 19 -102v-195q0 -33 6.5 -45.5t23.5 -12.5q21 0 44 19 v-26q-26 -29 -45.5 -39.5t-44.5 -10.5q-31 0 -45.5 16.5t-18.5 56.5q-86 -73 -146 -73q-46 0 -75.5 30t-29.5 77zM76 591q0 19 14.5 34t33.5 15q21 0 36 -15t15 -35t-15 -34.5t-36 -14.5q-20 0 -34 14.5t-14 35.5zM125 125q0 -32 18.5 -54.5t44.5 -22.5q35 0 73 22 q16 10 21 20t5 33v145q-90 -33 -126 -64t-36 -75v-4zM275 591q0 19 14.5 34t33.5 15q21 0 36 -15t15 -35t-15 -34.5t-36 -14.5q-20 0 -34 14.5t-14 35.5z" />
<glyph unicode="&#xe5;" horiz-adv-x="444" d="M37 97q0 54 36 87q32 28 64.5 44.5t149.5 63.5v61q0 83 -76 83q-30 0 -51 -14.5t-21 -34.5q0 -5 2.5 -20t2.5 -20q0 -17 -13.5 -29.5t-31.5 -12.5t-30.5 13t-12.5 30q0 41 41 75q45 37 127 37q93 0 125 -58q19 -31 19 -102v-195q0 -33 6.5 -45.5t23.5 -12.5q21 0 44 19 v-26q-26 -29 -45.5 -39.5t-44.5 -10.5q-31 0 -45.5 16.5t-18.5 56.5q-86 -73 -146 -73q-46 0 -75.5 30t-29.5 77zM125 125q0 -32 18.5 -54.5t44.5 -22.5q35 0 73 22q16 10 21 20t5 33v145q-90 -33 -126 -64t-36 -75v-4zM125 591q0 41 29.5 70t69.5 29q41 0 70.5 -29.5 t29.5 -70.5t-29.5 -70t-70.5 -29q-42 0 -70.5 29t-28.5 71zM159 591q0 -27 19 -46.5t45 -19.5q28 0 47.5 19t19.5 46t-19.5 46.5t-45.5 19.5q-27 0 -46.5 -19t-19.5 -46z" />
<glyph unicode="&#xe6;" horiz-adv-x="667" d="M38 100q0 45 34.5 78.5t114.5 66.5l86 36l2 63q2 43 -12 69q-11 23 -50 23q-31 0 -51.5 -15t-16.5 -35l1 -6v-11l1 -17q1 -22 -10.5 -35t-32.5 -13q-20 0 -32 13t-12 35q0 46 46 77t114 31q65 0 117 -45q34 26 59.5 35.5t59.5 9.5q76 0 114 -43t46 -140h-262 q1 -74 6 -107.5t21 -62.5q13 -23 38.5 -36.5t56.5 -13.5q43 0 75.5 22t68.5 75l12 -5q-36 -78 -73 -111q-54 -48 -124 -48q-81 0 -129 73q-51 -42 -83 -57.5t-69 -15.5q-51 0 -83.5 30.5t-32.5 79.5zM125 125q0 -36 19.5 -61.5t47.5 -25.5t65 18t37 32q-20 60 -20 113v52 q-91 -33 -120 -58t-29 -70zM355 307h166q-2 65 -20.5 94.5t-58.5 29.5q-43 0 -63 -29t-24 -95z" />
<glyph unicode="&#xe7;" horiz-adv-x="444" d="M25 212q0 128 84 197q62 51 135 51q63 0 108.5 -30.5t45.5 -72.5q0 -17 -14 -29.5t-33 -12.5q-35 0 -48 46l-6 22q-8 28 -20 38t-39 10q-61 0 -98.5 -48t-37.5 -126q0 -86 43 -140.5t112 -54.5q43 0 74 20.5t67 73.5l14 -9q-39 -79 -82 -115.5t-104 -41.5l-21 -55 q15 3 26 3q41 0 63.5 -18t22.5 -51q0 -39 -33.5 -61.5t-91.5 -22.5q-45 0 -84 16l14 31q36 -12 65 -12q25 0 40 12t15 32q0 19 -12 27.5t-41 8.5q-17 0 -28 -4l-7 5l38 91q-76 10 -121.5 70.5t-45.5 149.5z" />
<glyph unicode="&#xe8;" horiz-adv-x="444" d="M25 214q0 109 58 177.5t151 68.5q80 0 128 -57q33 -42 43 -126h-308q3 -85 30 -138q43 -80 126 -80q48 0 83.5 24t71.5 81l16 -7q-65 -167 -212 -167q-86 0 -136.5 60.5t-50.5 163.5zM84 643q0 32 35 32q19 0 42 -23l147 -148h-40l-154 97q-30 19 -30 42zM99 309h204 q-10 65 -31 90t-67 25q-90 0 -106 -115z" />
<glyph unicode="&#xe9;" horiz-adv-x="444" d="M25 214q0 109 58 177.5t151 68.5q80 0 128 -57q33 -42 43 -126h-308q3 -85 30 -138q43 -80 126 -80q48 0 83.5 24t71.5 81l16 -7q-65 -167 -212 -167q-86 0 -136.5 60.5t-50.5 163.5zM99 309h204q-10 65 -31 90t-67 25q-90 0 -106 -115zM161 504l147 148q23 23 42 23 q35 0 35 -32q0 -23 -30 -42l-154 -97h-40z" />
<glyph unicode="&#xea;" horiz-adv-x="444" d="M25 214q0 109 58 177.5t151 68.5q80 0 128 -57q33 -42 43 -126h-308q3 -85 30 -138q43 -80 126 -80q48 0 83.5 24t71.5 81l16 -7q-65 -167 -212 -167q-86 0 -136.5 60.5t-50.5 163.5zM79 507l124 167h62l125 -167h-34l-122 103l-121 -103h-34zM99 309h204q-10 65 -31 90 t-67 25q-90 0 -106 -115z" />
<glyph unicode="&#xeb;" horiz-adv-x="444" d="M25 214q0 109 58 177.5t151 68.5q80 0 128 -57q33 -42 43 -126h-308q3 -85 30 -138q43 -80 126 -80q48 0 83.5 24t71.5 81l16 -7q-65 -167 -212 -167q-86 0 -136.5 60.5t-50.5 163.5zM86 591q0 19 14.5 34t33.5 15q21 0 36 -15t15 -35t-15 -34.5t-36 -14.5 q-20 0 -34 14.5t-14 35.5zM99 309h204q-10 65 -31 90t-67 25q-90 0 -106 -115zM285 591q0 19 14.5 34t33.5 15q21 0 36 -15t15 -35t-15 -34.5t-36 -14.5q-20 0 -34 14.5t-14 35.5z" />
<glyph unicode="&#xec;" horiz-adv-x="278" d="M-13 643q0 32 35 32q19 0 42 -23l147 -148h-40l-154 97q-30 19 -30 42zM16 0v15q52 3 65.5 18t13.5 69v232q0 33 -7.5 46.5t-25.5 13.5q-10 0 -42 -4v15l155 55l4 -3v-355q0 -54 12.5 -68.5t61.5 -18.5v-15h-237z" />
<glyph unicode="&#xed;" horiz-adv-x="278" d="M16 0v15q52 3 65.5 18t13.5 69v232q0 33 -7.5 46.5t-25.5 13.5q-10 0 -42 -4v15l155 55l4 -3v-355q0 -54 12.5 -68.5t61.5 -18.5v-15h-237zM64 504l147 148q23 23 42 23q35 0 35 -32q0 -23 -30 -42l-154 -97h-40z" />
<glyph unicode="&#xee;" horiz-adv-x="278" d="M-18 507l124 167h62l125 -167h-34l-122 103l-121 -103h-34zM16 0v15q52 3 65.5 18t13.5 69v232q0 33 -7.5 46.5t-25.5 13.5q-10 0 -42 -4v15l155 55l4 -3v-355q0 -54 12.5 -68.5t61.5 -18.5v-15h-237z" />
<glyph unicode="&#xef;" horiz-adv-x="278" d="M-11 591q0 19 14.5 34t33.5 15q21 0 36 -15t15 -35t-15 -34.5t-36 -14.5q-20 0 -34 14.5t-14 35.5zM16 0v15q52 3 65.5 18t13.5 69v232q0 33 -7.5 46.5t-25.5 13.5q-10 0 -42 -4v15l155 55l4 -3v-355q0 -54 12.5 -68.5t61.5 -18.5v-15h-237zM188 591q0 19 14.5 34 t33.5 15q21 0 36 -15t15 -35t-15 -34.5t-36 -14.5q-20 0 -34 14.5t-14 35.5z" />
<glyph unicode="&#xf0;" d="M29 223q0 101 61 169t151 68q36 0 62 -12.5t64 -47.5q-11 55 -32 92.5t-65 82.5l-123 -65l-33 30l121 64q-62 44 -133 56l42 23q49 -4 81.5 -14t70.5 -33l95 50l33 -30l-91 -48q63 -60 91 -118q47 -96 47 -205q0 -77 -24 -142.5t-76.5 -109t-123.5 -43.5 q-93 0 -155.5 66.5t-62.5 166.5zM119 276q0 -110 44 -193q35 -65 98 -65q57 0 88.5 48.5t31.5 134.5q0 102 -40 166.5t-104 64.5q-53 0 -85.5 -43t-32.5 -113z" />
<glyph unicode="&#xf1;" d="M16 398v17q74 22 138 45l7 -2v-79q51 48 80.5 64.5t64.5 16.5q55 0 86.5 -39.5t31.5 -110.5v-229q0 -37 12 -49.5t49 -16.5v-15h-208v15q38 3 50.5 20t12.5 64v209q0 97 -73 97q-25 0 -46 -11.5t-57 -45.5v-281q0 -27 14 -38t52 -14v-15h-212v15q38 3 50 17.5t12 57.5 v248q0 37 -8 50.5t-29 13.5q-19 0 -27 -4zM87 537q11 49 37 75t64 26q36 0 70 -18l24 -12q32 -15 53 -15q17 0 28.5 11t24.5 39h29q-16 -57 -40 -81.5t-65 -24.5q-32 0 -81 24l-23 11q-24 11 -41 11q-35 0 -51 -46h-29z" />
<glyph unicode="&#xf2;" d="M29 226q0 103 61.5 168.5t159.5 65.5q96 0 158 -64t62 -162q0 -104 -64 -174t-158 -70t-156.5 67.5t-62.5 168.5zM100 643q0 32 35 32q19 0 42 -23l147 -148h-40l-154 97q-30 19 -30 42zM119 275q0 -111 44 -193q34 -64 97 -64q56 0 88 48t32 133q0 103 -40 168t-103 65 q-53 0 -85.5 -43t-32.5 -114z" />
<glyph unicode="&#xf3;" d="M29 226q0 103 61.5 168.5t159.5 65.5q96 0 158 -64t62 -162q0 -104 -64 -174t-158 -70t-156.5 67.5t-62.5 168.5zM119 275q0 -111 44 -193q34 -64 97 -64q56 0 88 48t32 133q0 103 -40 168t-103 65q-53 0 -85.5 -43t-32.5 -114zM177 504l147 148q23 23 42 23q35 0 35 -32 q0 -23 -30 -42l-154 -97h-40z" />
<glyph unicode="&#xf4;" d="M29 226q0 103 61.5 168.5t159.5 65.5q96 0 158 -64t62 -162q0 -104 -64 -174t-158 -70t-156.5 67.5t-62.5 168.5zM95 507l124 167h62l125 -167h-34l-122 103l-121 -103h-34zM119 275q0 -111 44 -193q34 -64 97 -64q56 0 88 48t32 133q0 103 -40 168t-103 65 q-53 0 -85.5 -43t-32.5 -114z" />
<glyph unicode="&#xf5;" d="M29 226q0 103 61.5 168.5t159.5 65.5q96 0 158 -64t62 -162q0 -104 -64 -174t-158 -70t-156.5 67.5t-62.5 168.5zM85 537q11 49 37 75t64 26q36 0 70 -18l24 -12q32 -15 53 -15q17 0 28.5 11t24.5 39h29q-16 -57 -40 -81.5t-65 -24.5q-32 0 -81 24l-23 11q-24 11 -41 11 q-35 0 -51 -46h-29zM119 275q0 -111 44 -193q34 -64 97 -64q56 0 88 48t32 133q0 103 -40 168t-103 65q-53 0 -85.5 -43t-32.5 -114z" />
<glyph unicode="&#xf6;" d="M29 226q0 103 61.5 168.5t159.5 65.5q96 0 158 -64t62 -162q0 -104 -64 -174t-158 -70t-156.5 67.5t-62.5 168.5zM102 591q0 19 14.5 34t33.5 15q21 0 36 -15t15 -35t-15 -34.5t-36 -14.5q-20 0 -34 14.5t-14 35.5zM119 275q0 -111 44 -193q34 -64 97 -64q56 0 88 48 t32 133q0 103 -40 168t-103 65q-53 0 -85.5 -43t-32.5 -114zM301 591q0 19 14.5 34t33.5 15q21 0 36 -15t15 -35t-15 -34.5t-36 -14.5q-20 0 -34 14.5t-14 35.5z" />
<glyph unicode="&#xf7;" horiz-adv-x="564" d="M40 217v66h484v-66h-484zM226 85q0 23 16.5 39.5t39.5 16.5t39.5 -16.5t16.5 -39.5t-16.5 -39.5t-39.5 -16.5t-39.5 16.5t-16.5 39.5zM226 416q0 23 16.5 39.5t39.5 16.5t39.5 -16.5t16.5 -39.5t-16.5 -39.5t-39.5 -16.5t-39.5 16.5t-16.5 39.5z" />
<glyph unicode="&#xf8;" d="M29 227q0 102 61.5 167.5t158.5 65.5q44 0 92 -18l57 109h39l-65 -125q40 -29 60 -58q38 -60 38 -134q0 -104 -64 -174t-159 -70q-47 0 -93 21l-65 -123h-37l73 140q-42 33 -63 69q-33 60 -33 130zM119 276q0 -102 39 -184l159 304q-37 36 -80 36q-53 0 -85.5 -43 t-32.5 -113zM179 60q35 -42 82 -42q56 0 87.5 49t31.5 136t-40 163z" />
<glyph unicode="&#xf9;" d="M9 436v14h146v-326q0 -31 21 -53.5t50 -22.5q48 0 90 36q17 13 17 51v235q0 37 -13.5 49t-60.5 14v17h158v-343q0 -35 11.5 -46t45.5 -11h5v-14q-78 -21 -137 -45l-4 2v83l-43 -43q-43 -43 -103 -43q-55 0 -88 35.5t-33 94.5v252q0 35 -13 48.5t-49 15.5zM94 643 q0 32 35 32q19 0 42 -23l147 -148h-40l-154 97q-30 19 -30 42z" />
<glyph unicode="&#xfa;" d="M9 436v14h146v-326q0 -31 21 -53.5t50 -22.5q48 0 90 36q17 13 17 51v235q0 37 -13.5 49t-60.5 14v17h158v-343q0 -35 11.5 -46t45.5 -11h5v-14q-78 -21 -137 -45l-4 2v83l-43 -43q-43 -43 -103 -43q-55 0 -88 35.5t-33 94.5v252q0 35 -13 48.5t-49 15.5zM171 504 l147 148q23 23 42 23q35 0 35 -32q0 -23 -30 -42l-154 -97h-40z" />
<glyph unicode="&#xfb;" d="M9 436v14h146v-326q0 -31 21 -53.5t50 -22.5q48 0 90 36q17 13 17 51v235q0 37 -13.5 49t-60.5 14v17h158v-343q0 -35 11.5 -46t45.5 -11h5v-14q-78 -21 -137 -45l-4 2v83l-43 -43q-43 -43 -103 -43q-55 0 -88 35.5t-33 94.5v252q0 35 -13 48.5t-49 15.5zM89 507l124 167 h62l125 -167h-34l-122 103l-121 -103h-34z" />
<glyph unicode="&#xfc;" d="M9 436v14h146v-326q0 -31 21 -53.5t50 -22.5q48 0 90 36q17 13 17 51v235q0 37 -13.5 49t-60.5 14v17h158v-343q0 -35 11.5 -46t45.5 -11h5v-14q-78 -21 -137 -45l-4 2v83l-43 -43q-43 -43 -103 -43q-55 0 -88 35.5t-33 94.5v252q0 35 -13 48.5t-49 15.5zM96 591 q0 19 14.5 34t33.5 15q21 0 36 -15t15 -35t-15 -34.5t-36 -14.5q-20 0 -34 14.5t-14 35.5zM295 591q0 19 14.5 34t33.5 15q21 0 36 -15t15 -35t-15 -34.5t-36 -14.5q-20 0 -34 14.5t-14 35.5z" />
<glyph unicode="&#xfd;" d="M14 436v14h206v-15q-32 -1 -45 -7t-13 -20q0 -15 10 -38l115 -253l97 276q4 9 4 17q0 25 -48 25v15h135v-15q-18 -2 -28 -11.5t-20 -33.5l-154 -408q-40 -108 -79.5 -154t-89.5 -46q-32 0 -53 16.5t-21 41.5q0 18 13 31t30 13q23 0 53 -11q14 -7 25 -7t25.5 13t24.5 32 q13 22 26.5 59.5t13.5 48.5q0 10 -11 37l-165 348q-12 26 -51 32zM207 504l147 148q23 23 42 23q35 0 35 -32q0 -23 -30 -42l-154 -97h-40z" />
<glyph unicode="&#xfe;" d="M5 -199q44 4 57 16.5t13 51.5v704q0 31 -9.5 41t-39.5 10q-11 0 -17 -1v16q93 26 145 44l5 -3v-298q65 78 144 78q73 0 120 -60t47 -153q0 -109 -60.5 -183t-149.5 -74q-32 0 -53.5 9t-47.5 34v-157q0 -47 16 -60.5t72 -14.5v-18h-242v18zM159 88q0 -22 34.5 -44 t69.5 -22q54 0 87.5 51.5t33.5 134.5q0 87 -33.5 139.5t-89.5 52.5q-35 0 -68.5 -22t-33.5 -44v-246z" />
<glyph unicode="&#xff;" d="M14 436v14h206v-15q-32 -1 -45 -7t-13 -20q0 -15 10 -38l115 -253l97 276q4 9 4 17q0 25 -48 25v15h135v-15q-18 -2 -28 -11.5t-20 -33.5l-154 -408q-40 -108 -79.5 -154t-89.5 -46q-32 0 -53 16.5t-21 41.5q0 18 13 31t30 13q23 0 53 -11q14 -7 25 -7t25.5 13t24.5 32 q13 22 26.5 59.5t13.5 48.5q0 10 -11 37l-165 348q-12 26 -51 32zM132 591q0 19 14.5 34t33.5 15q21 0 36 -15t15 -35t-15 -34.5t-36 -14.5q-20 0 -34 14.5t-14 35.5zM331 591q0 19 14.5 34t33.5 15q21 0 36 -15t15 -35t-15 -34.5t-36 -14.5q-20 0 -34 14.5t-14 35.5z" />
<glyph unicode="&#x152;" horiz-adv-x="889" d="M30 322q0 157 82.5 251.5t229.5 94.5q17 0 65 -3l105 -3h326v-141h-23q-6 46 -21 67.5t-47 29.5t-100 8h-51q-42 0 -53.5 -4t-11.5 -20v-236h104q91 0 113 31q15 21 19 67h21v-234h-21q-7 59 -26.5 79t-71.5 20h-138v-245q0 -28 11.5 -37.5t44.5 -8.5l124 2q47 1 79.5 29 t70.5 99h24l-44 -168h-350q-152 -5 -179 -6q-115 0 -192 77q-90 89 -90 251zM142 325q0 -142 48.5 -218t140.5 -76q53 0 76.5 23.5t23.5 76.5v396q0 37 -10.5 60t-32 34t-56.5 11q-91 0 -140.5 -80t-49.5 -227z" />
<glyph unicode="&#x153;" horiz-adv-x="722" d="M30 218q0 100 54.5 171t147.5 71q46 0 80 -17t72 -59q31 42 60 59t70 17q81 0 126 -62q30 -40 34 -121h-254q3 -65 11 -100t28 -70q30 -50 90 -50q36 0 65.5 20t64.5 68l11 -6q-39 -81 -80 -115t-99 -34q-46 0 -75.5 22t-52.5 73q-29 -51 -62.5 -73t-84.5 -22 q-91 0 -148.5 64t-57.5 164zM120 271q0 -255 120 -255q103 0 103 183q0 112 -29.5 172t-84.5 60q-42 0 -75 -33q-15 -16 -24.5 -52t-9.5 -75zM419 307h160v27q0 42 -22.5 69.5t-56.5 27.5q-80 0 -81 -124z" />
<glyph unicode="&#x178;" horiz-adv-x="722" d="M22 643v19h280v-19q-11 -1 -25 -1q-46 -3 -46 -29q0 -19 17 -44l148 -222l143 226q14 23 14 37q0 18 -15 25t-54 8v19h219v-19q-38 -3 -65 -25.5t-73 -88.5l-148 -226v-194q0 -57 18 -72.5t85 -17.5v-19h-306v19q68 3 84.5 19.5t16.5 81.5v174l-131 192 q-75 106 -100.5 131t-61.5 26zM218 783q0 19 14.5 34t33.5 15q21 0 36 -15t15 -35t-15 -34.5t-36 -14.5q-20 0 -34 14.5t-14 35.5zM417 783q0 19 14.5 34t33.5 15q21 0 36 -15t15 -35t-15 -34.5t-36 -14.5q-20 0 -34 14.5t-14 35.5z" />
<glyph unicode="&#x2c6;" horiz-adv-x="333" d="M11 507l124 167h62l125 -167h-34l-122 103l-121 -103h-34z" />
<glyph unicode="&#x2dc;" horiz-adv-x="333" d="M1 537q11 49 37 75t64 26q36 0 70 -18l24 -12q32 -15 53 -15q17 0 28.5 11t24.5 39h29q-16 -57 -40 -81.5t-65 -24.5q-32 0 -81 24l-23 11q-24 11 -41 11q-35 0 -51 -46h-29z" />
<glyph unicode="&#x2000;" horiz-adv-x="448" />
<glyph unicode="&#x2001;" horiz-adv-x="896" />
<glyph unicode="&#x2002;" horiz-adv-x="448" />
<glyph unicode="&#x2003;" horiz-adv-x="896" />
<glyph unicode="&#x2004;" horiz-adv-x="298" />
<glyph unicode="&#x2005;" horiz-adv-x="224" />
<glyph unicode="&#x2006;" horiz-adv-x="149" />
<glyph unicode="&#x2007;" horiz-adv-x="149" />
<glyph unicode="&#x2008;" horiz-adv-x="112" />
<glyph unicode="&#x2009;" horiz-adv-x="179" />
<glyph unicode="&#x200a;" horiz-adv-x="49" />
<glyph unicode="&#x2010;" horiz-adv-x="333" d="M39 194v63h246v-63h-246z" />
<glyph unicode="&#x2011;" horiz-adv-x="333" d="M39 194v63h246v-63h-246z" />
<glyph unicode="&#x2012;" horiz-adv-x="333" d="M39 194v63h246v-63h-246z" />
<glyph unicode="&#x2013;" d="M0 201v49h500v-49h-500z" />
<glyph unicode="&#x2014;" horiz-adv-x="1000" d="M0 201v49h1000v-49h-1000z" />
<glyph unicode="&#x2018;" horiz-adv-x="333" d="M115 522q0 45 31 87t81 67l9 -19q-82 -56 -82 -106q0 -14 14 -14q2 0 12.5 2t14.5 2q27 0 43 -14t16 -37q0 -25 -16.5 -41t-42.5 -16q-34 0 -57 25.5t-23 63.5z" />
<glyph unicode="&#x2019;" horiz-adv-x="333" d="M79 619q0 25 16.5 41t42.5 16q34 0 57 -25.5t23 -63.5q0 -45 -31 -87t-81 -67l-9 19q82 56 82 106q0 14 -14 14q-2 0 -12.5 -2t-14.5 -2q-27 0 -43 13.5t-16 37.5z" />
<glyph unicode="&#x201a;" horiz-adv-x="333" d="M79 45q0 25 16.5 41t42.5 16q34 0 57 -25.5t23 -63.5q0 -45 -31 -87t-81 -67l-9 19q82 56 82 106q0 14 -14 14q-2 0 -12.5 -2t-14.5 -2q-27 0 -43 13.5t-16 37.5z" />
<glyph unicode="&#x201c;" horiz-adv-x="444" d="M43 522q0 45 31 87t81 67l9 -19q-82 -56 -82 -106q0 -14 14 -14q2 0 12.5 2t14.5 2q27 0 43 -13.5t16 -37.5q0 -25 -16.5 -41t-42.5 -16q-34 0 -57 25.5t-23 63.5zM275 522q0 45 31 87t81 67l9 -19q-82 -56 -82 -106q0 -14 14 -14q2 0 12.5 2t14.5 2q27 0 43 -13.5 t16 -37.5q0 -25 -16.5 -41t-42.5 -16q-34 0 -57 25.5t-23 63.5z" />
<glyph unicode="&#x201d;" horiz-adv-x="444" d="M30 619q0 25 16.5 41t42.5 16q34 0 57 -25.5t23 -63.5q0 -45 -31 -87t-81 -67l-9 19q82 56 82 106q0 14 -14 14q-2 0 -12.5 -2t-14.5 -2q-28 0 -43.5 13.5t-15.5 37.5zM262 619q0 25 16.5 41t42.5 16q34 0 57 -25.5t23 -63.5q0 -45 -31 -87t-81 -67l-9 19q82 56 82 106 q0 14 -14 14q-2 0 -12.5 -2t-14.5 -2q-28 0 -43.5 13.5t-15.5 37.5z" />
<glyph unicode="&#x201e;" horiz-adv-x="444" d="M45 45q0 25 16.5 41t42.5 16q34 0 57 -25.5t23 -63.5q0 -45 -31 -87t-81 -67l-9 19q82 56 82 106q0 14 -14 14q-2 0 -12.5 -2t-14.5 -2q-28 0 -43.5 13.5t-15.5 37.5zM277 45q0 25 16.5 41t42.5 16q34 0 57 -25.5t23 -63.5q0 -45 -31 -87t-81 -67l-9 19q82 56 82 106 q0 14 -14 14q-2 0 -12.5 -2t-14.5 -2q-28 0 -43.5 13.5t-15.5 37.5z" />
<glyph unicode="&#x2022;" horiz-adv-x="350" d="M40 332q0 56 39 95t95 39q58 0 97 -39.5t39 -97.5q0 -54 -40 -93.5t-95 -39.5q-56 0 -95.5 39.5t-39.5 96.5z" />
<glyph unicode="&#x2026;" horiz-adv-x="1000" d="M111 43q0 23 16.5 40t38.5 17q23 0 39.5 -17t16.5 -40q0 -22 -17 -38t-40 -16q-22 0 -38 16t-16 38zM444 43q0 23 16.5 40t38.5 17q23 0 39.5 -17t16.5 -40q0 -22 -17 -38t-40 -16q-22 0 -38 16t-16 38zM777 43q0 23 16.5 40t38.5 17q23 0 39.5 -17t16.5 -40 q0 -22 -17 -38t-40 -16q-22 0 -38 16t-16 38z" />
<glyph unicode="&#x202f;" horiz-adv-x="179" />
<glyph unicode="&#x2039;" horiz-adv-x="333" d="M57 222l31 27q92 80 170 156q5 6 10 6q10 0 10 -9q0 -10 -32 -57.5t-86 -112.5l-10 -12l10 -12q118 -141 118 -166q0 -9 -10 -9q-5 0 -10 6q-66 65 -170 156z" />
<glyph unicode="&#x203a;" horiz-adv-x="333" d="M45 42q0 10 32 57.5t86 112.5l10 12l-10 12q-118 141 -118 166q0 9 10 9q5 0 10 -6q66 -65 170 -156l31 -27l-31 -27q-92 -80 -170 -156q-5 -6 -10 -6q-10 0 -10 9z" />
<glyph unicode="&#x205f;" horiz-adv-x="224" />
<glyph unicode="&#x20ac;" d="M4 245l27 41h43q-1 13 -1 37q0 16 1 26h-70l27 41h47q17 125 83.5 204t154.5 79q52 0 105 -35q13 -8 17 -8q16 0 25 44h18l16 -193h-17q-13 43 -29 75q-21 41 -56 65.5t-72 24.5q-43 0 -77.5 -32.5t-53.5 -90.5q-15 -49 -23 -133h220l-27 -41h-195q-1 -20 -1 -33t1 -30 h155l-26 -41h-126q11 -106 56.5 -167t116.5 -61q28 0 57.5 23t50.5 63q13 26 29 75h17l-16 -193h-18q-9 44 -25 44q-4 0 -17 -8q-3 -2 -11 -7t-10 -6.5t-8.5 -5.5t-9.5 -5t-9.5 -3.5t-11.5 -3.5t-12.5 -2t-15 -1.5t-17.5 -0.5q-89 0 -153.5 70t-83.5 189h-75z" />
<glyph unicode="&#x2122;" horiz-adv-x="980" d="M40 568l4 94h345l4 -94h-18q-10 44 -27 56t-68 12h-29v-271q0 -28 10 -37t45 -10v-13h-178v13q36 2 44.5 11t8.5 42v265h-28q-51 0 -68 -12t-27 -56h-18zM423 305v13q37 2 47.5 14t10.5 53v217q0 29 -9.5 37t-46.5 10v13h124l137 -266l132 266h123v-13q-32 -2 -41 -11 t-9 -36v-237q0 -27 9 -36t41 -11v-13h-172v13q34 2 43 11.5t9 41.5v230l-150 -296h-13l-147 284v-204q0 -40 11 -53t45 -14v-13h-144z" />
<glyph unicode="&#xe000;" horiz-adv-x="450" d="M0 0v450h450v-450h-450z" />
</font>
</defs>
</svg>
