<?xml version="1.0" standalone="no"?>
<!DOCTYPE svg PUBLIC "-//W3C//DTD SVG 1.1//EN" "http://www.w3.org/Graphics/SVG/1.1/DTD/svg11.dtd" >
<svg xmlns="http://www.w3.org/2000/svg">
<metadata></metadata>
<defs>
<font id="arsenalbold" horiz-adv-x="524" >
<font-face units-per-em="1000" ascent="750" descent="-250" />
<missing-glyph horiz-adv-x="255" />
<glyph unicode="&#xfb01;" horiz-adv-x="575" d="M37 423v60l47 14v74q0 91 41 140t139 49q64 0 133 -50q21 18 51 18q31 0 51 -19q22 -23 22 -57q0 -35 -22 -58q-22 -19 -51 -19q-30 0 -53 20q-23 23 -23 57v8q-46 31 -82 31q-43 0 -58 -27t-15 -108v-56h127v-77h-127v-423h-133v423h-47zM381 0v500h133v-500h-133z" />
<glyph unicode="&#xfb02;" horiz-adv-x="584" d="M35 423v60l49 14v74q0 87 39.5 138t111.5 51q68 0 155 -34v20l133 8v-754h-133v658q-82 35 -118 35q-31 0 -43 -28t-12 -109v-56h125v-77h-125v-423h-133v423h-49z" />
<glyph horiz-adv-x="1000" />
<glyph horiz-adv-x="1000" />
<glyph unicode="&#xd;" horiz-adv-x="1000" />
<glyph unicode=" "  horiz-adv-x="255" />
<glyph unicode="&#x09;" horiz-adv-x="255" />
<glyph unicode="&#xa0;" horiz-adv-x="255" />
<glyph unicode="!" horiz-adv-x="333" d="M91 64q0 34 24 60q22 21 56 21q33 0 55 -21q24 -26 24 -60q0 -35 -24 -59q-22 -21 -55 -21q-34 0 -56 21q-24 24 -24 59zM94 689v61h152v-61l-43 -459h-67z" />
<glyph unicode="&#x22;" horiz-adv-x="398" d="M31 750l122 -4l-47 -262h-63zM222 750l122 -4l-47 -262h-63z" />
<glyph unicode="#" horiz-adv-x="518" d="M45 186v64h80l32 149h-112v64h125l29 135l54 -16l-25 -119h117l24 116l54 -16l-21 -100h70v-64h-83l-31 -149h114v-64h-128l-28 -136l-54 17l25 119h-118l-24 -117l-54 17l21 100h-67zM183 250h117l31 149h-117z" />
<glyph unicode="$" horiz-adv-x="417" d="M24 132l37 52q5 -7 14 -17t38 -27t59 -17q37 0 57 19t20 50q0 28 -21 47t-51 32t-60 29t-51 47.5t-21 76.5q0 58 32.5 96t85.5 52l13 128h65l13 -123q26 -4 54 -12t43 -15l15 -6l-18 -67q-65 37 -113 37q-31 0 -48 -15t-17 -40q0 -28 22.5 -48t54.5 -34.5t64 -31.5 t54.5 -48.5t22.5 -76.5q0 -61 -34.5 -103.5t-99.5 -54.5l-10 -112h-65l-14 108q-29 3 -54.5 12t-40.5 19.5t-26 20t-16 16.5z" />
<glyph unicode="%" horiz-adv-x="867" d="M36 466q0 91 46.5 146t127.5 55q80 0 127.5 -55.5t47.5 -145.5q0 -92 -46 -148t-129 -56q-85 0 -129.5 55.5t-44.5 148.5zM146 468q0 -75 15 -109t48 -34q67 0 67 143q0 74 -16 105.5t-50 31.5t-49 -31.5t-15 -105.5zM258 8l270 627l67 -20l-271 -627zM482 185 q0 91 46.5 146t127.5 55q80 0 127.5 -55.5t47.5 -145.5q0 -92 -46 -148t-129 -56q-85 0 -129.5 55.5t-44.5 148.5zM592 187q0 -75 15 -109t48 -34q67 0 67 143q0 74 -16 105.5t-50 31.5t-49 -31.5t-15 -105.5z" />
<glyph unicode="&#x26;" horiz-adv-x="641" d="M36 179q0 118 130 162q-87 46 -87 147q0 80 52.5 126t138.5 46q30 0 63.5 -8t52.5 -16l18 -7l-11 -65q-54 29 -96 29q-41 0 -61.5 -26t-20.5 -86q0 -106 55 -110h112l65 129h52v-129h111v-66h-111v-138q0 -67 11.5 -88t44.5 -21q14 0 28 3t21 7l7 3l4 -58 q-25 -24 -101 -24q-82 0 -114 49q-53 -49 -144 -49q-112 0 -166 51.5t-54 138.5zM178 181q0 -68 23 -96t78 -28q63 0 98 44q-4 23 -4 58v146h-112q-36 -1 -59.5 -31t-23.5 -93z" />
<glyph unicode="'" horiz-adv-x="207" d="M31 750l122 -4l-47 -262h-63z" />
<glyph unicode="(" horiz-adv-x="359" d="M77 272q0 93 19.5 174.5t47.5 131.5t56 86.5t48 51.5l19 16l57 -35q-5 -5 -13 -14.5t-28.5 -46t-36 -80.5t-28.5 -120.5t-13 -163.5q0 -88 12.5 -164t29.5 -121t34.5 -77.5t30.5 -45.5l12 -13l-53 -34q-8 5 -21 15.5t-46.5 49.5t-59 86.5t-46.5 129t-21 174.5z" />
<glyph unicode=")" horiz-adv-x="359" d="M35 -149q5 5 13 15t28 47t35.5 81.5t28.5 120.5t13 162t-12 161t-29.5 120.5t-35 78.5t-29.5 47l-12 13l53 35q8 -5 21 -15.5t46 -49.5t58.5 -86.5t46.5 -129t21 -174.5t-20 -174.5t-48.5 -131.5t-56.5 -86.5t-48 -52.5l-20 -15z" />
<glyph unicode="*" horiz-adv-x="410" d="M10 502l38 129l133 -97l-37 181h123l-41 -180l136 96l37 -129l-159 -15l123 -123l-99 -80l-59 171l-60 -171l-98 80l122 121z" />
<glyph unicode="+" horiz-adv-x="456" d="M31 238v74h163v184h71v-184h160v-74h-160v-185h-71v185h-163z" />
<glyph unicode="," horiz-adv-x="265" d="M56 87q0 30 20.5 51.5t50.5 21.5q37 0 57 -28t20 -71q0 -58 -32 -124t-79 -104l-34 37q33 30 54 69t24 76q-1 0 -5 -0.5t-6 -0.5q-30 0 -50 21.5t-20 51.5z" />
<glyph unicode="-" horiz-adv-x="333" d="M31 238v74h272v-74h-272z" />
<glyph unicode="." horiz-adv-x="297" d="M68 64q0 34 24 60q22 21 56 21q32 0 55 -21q24 -26 24 -60q0 -35 -24 -59q-23 -21 -55 -21q-34 0 -56 21q-24 24 -24 59z" />
<glyph unicode="/" horiz-adv-x="457" d="M8 -250l367 1000h90l-367 -1000h-90z" />
<glyph unicode="0" horiz-adv-x="579" d="M44 323q0 337 246 337q245 0 245 -337q0 -334 -245 -334q-246 0 -246 334zM194 323q0 -156 20 -210.5t76 -54.5t76 54.5t20 210.5q0 157 -20 212.5t-76 55.5t-76 -55.5t-20 -212.5z" />
<glyph unicode="1" horiz-adv-x="398" d="M42 565l150 85h107v-650h-131v558l-99 -53z" />
<glyph unicode="2" horiz-adv-x="484" d="M34 0v103q33 13 74.5 43.5t84 76t71.5 109t29 128.5q0 73 -22 99.5t-73 26.5q-23 0 -55 -12t-53 -24l-20 -13l-14 70q9 6 25 15t59.5 23.5t81.5 14.5q107 0 162.5 -52.5t55.5 -138.5q0 -52 -23 -103.5t-62.5 -96t-79.5 -79t-86 -65.5h260v-125h-415z" />
<glyph unicode="3" horiz-adv-x="492" d="M35 62l36 59q7 -7 19 -17t48.5 -27t70.5 -17q54 0 79 30t25 99q0 65 -17 92.5t-55 27.5q-25 0 -54 -29l-41 46l160 198h-240l7 126h351v-84l-160 -193h6q79 0 132 -49.5t53 -135.5q0 -94 -67.5 -146.5t-161.5 -52.5q-59 0 -106.5 18.5t-65.5 36.5z" />
<glyph unicode="4" horiz-adv-x="533" d="M30 218q44 80 90.5 209.5t68.5 238.5l127 -16q-39 -166 -199 -422h189l36 324h100v-324h64v-57l-64 -12v-159h-136v159h-269z" />
<glyph unicode="5" horiz-adv-x="489" d="M22 61l40 56q5 -6 15 -15.5t42.5 -25.5t67.5 -16q58 0 89.5 34t31.5 114q0 138 -102 138q-51 0 -74 -31l-5 -10l-47 7l38 338h298l-7 -130h-237l-12 -119q29 9 58 9q106 0 169 -51t63 -148q0 -74 -39 -126t-94 -74t-119 -22q-54 0 -98 18t-61 36z" />
<glyph unicode="6" horiz-adv-x="530" d="M44 266q0 60 5 95q36 299 233 299q32 0 68 -10t56 -20l21 -9l-17 -67q-63 36 -115 36q-58 0 -86.5 -46t-32.5 -164q52 41 111 41q93 0 150 -54t57 -159q0 -103 -58.5 -161t-162.5 -58q-109 0 -169 67.5t-60 209.5zM187 222q0 -95 19.5 -131t66.5 -36q43 0 60.5 35.5 t17.5 119.5q0 79 -18.5 113.5t-61.5 34.5q-47 0 -81 -47q-3 -27 -3 -89z" />
<glyph unicode="7" horiz-adv-x="451" d="M36 517v133h400v-105q-60 -106 -115 -261.5t-83 -283.5h-144q21 77 67.5 181t79.5 165.5t94 170.5h-299z" />
<glyph unicode="8" horiz-adv-x="536" d="M36 176q0 108 130 153q-117 40 -117 154q0 85 60 131t159 46t159 -46.5t60 -131.5q0 -106 -120 -151q134 -33 134 -157q0 -185 -233 -185q-232 0 -232 187zM186 178q0 -69 20.5 -98t61.5 -29t62 29.5t21 97.5q0 63 -26.5 90.5t-60.5 31.5q-78 -13 -78 -122zM192 479 q0 -108 76 -125q76 15 76 125q0 66 -18 92.5t-58 26.5t-58 -26.5t-18 -92.5z" />
<glyph unicode="9" horiz-adv-x="530" d="M36 431q0 103 61.5 166t164.5 63q223 0 223 -277q0 -42 -2 -70q-12 -163 -81.5 -243.5t-165.5 -80.5q-47 0 -83 11t-49 22l-13 11l29 65q43 -39 107 -39q118 0 126 208q-44 -44 -111 -44q-93 0 -149.5 51.5t-56.5 156.5zM178 436q0 -79 18.5 -114.5t61.5 -35.5 q67 0 83 69q2 42 2 72q0 93 -18.5 130t-62.5 37q-84 0 -84 -158z" />
<glyph unicode=":" horiz-adv-x="298" d="M68 64q0 34 24 60q22 21 56 21q32 0 55 -21q24 -26 24 -60q0 -35 -24 -59q-23 -21 -55 -21q-34 0 -56 21q-24 24 -24 59zM68 415q0 35 24 60q22 21 56 21q32 0 55 -21q24 -26 24 -60q0 -35 -24 -59q-23 -21 -55 -21q-34 0 -56 21q-24 24 -24 59z" />
<glyph unicode=";" horiz-adv-x="297" d="M68 415q0 35 24 60q22 21 56 21q32 0 55 -21q24 -26 24 -60q0 -35 -24 -59q-23 -21 -55 -21q-34 0 -56 21q-24 24 -24 59zM75 87q0 30 20.5 51.5t50.5 21.5q37 0 57 -28t20 -71q0 -58 -32 -124t-79 -104l-34 37q33 30 54 69t24 76q-1 0 -5 -0.5t-6 -0.5q-30 0 -50 21.5 t-20 51.5z" />
<glyph unicode="&#x3c;" horiz-adv-x="378" d="M47 315l239 226l39 -46l-161 -179l165 -180l-43 -46z" />
<glyph unicode="=" d="M31 141v74h463v-74h-463zM31 335v74h463v-74h-463z" />
<glyph unicode="&#x3e;" horiz-adv-x="378" d="M53 136l157 179l-157 180l39 46l239 -226l-239 -225z" />
<glyph unicode="?" horiz-adv-x="445" d="M57 717q7 5 20.5 12t55.5 19t85 12q95 0 144.5 -52.5t49.5 -125.5q0 -47 -16.5 -83.5t-40.5 -57t-53 -41.5t-53 -38t-40.5 -44t-16.5 -62q0 -8 2 -26l-47 -4q-14 43 -14 76q0 31 13 54.5t32 40.5t37.5 36t31.5 52t13 78q0 68 -18.5 98.5t-60.5 30.5q-25 0 -53.5 -10 t-44.5 -20l-16 -9zM97 64q0 34 24 60q23 21 56 21t55 -21q24 -26 24 -60q0 -35 -24 -59q-22 -21 -55 -21t-56 21q-24 24 -24 59z" />
<glyph unicode="@" horiz-adv-x="862" d="M46 184q0 211 108.5 333.5t312.5 122.5q174 0 263.5 -91.5t89.5 -259.5q0 -155 -53.5 -231t-144.5 -76q-78 0 -102 44q-34 -45 -101 -45q-77 0 -123.5 53.5t-46.5 157.5q0 95 52.5 156t131.5 61q52 0 91 -35l18 17h57v-271q0 -47 8 -65t28 -18q24 0 40 17.5t28 75.5 t12 156q0 154 -60 224t-188 70q-303 0 -303 -396q0 -365 288 -365q41 0 79 9t62.5 22t43.5 26t27 22l9 9l28 -55q-3 -4 -8.5 -11t-27.5 -24.5t-48 -30.5t-70.5 -24t-94.5 -11q-207 0 -306.5 112t-99.5 321zM363 192q0 -84 19.5 -119.5t62.5 -35.5q42 0 61 45v241 q-19 31 -60 31q-45 0 -64 -37.5t-19 -124.5z" />
<glyph unicode="A" horiz-adv-x="608" d="M19 0l216 650h153l202 -650h-146l-56 182h-226l-59 -182h-84zM182 245h187l-89 306h-2z" />
<glyph unicode="B" horiz-adv-x="569" d="M77 0v650h198q113 0 171.5 -49t58.5 -120q0 -93 -97 -142q57 -18 91 -57t34 -95q0 -85 -64.5 -136t-188.5 -51h-203zM215 65h62q54 0 85 31.5t31 95.5q0 109 -89 109h-89v-236zM215 361h82q28 0 50.5 26.5t22.5 85.5q0 58 -27 85t-72 27h-56v-224z" />
<glyph unicode="C" horiz-adv-x="576" d="M36 320q0 156 78.5 248t217.5 92q46 0 96 -13t77 -25l27 -13l-14 -73q-95 49 -169 49q-84 0 -122.5 -59t-38.5 -201q0 -141 41 -201t127 -60q30 0 58 9.5t47 23t33.5 27.5t21.5 24l6 9l44 -48q-3 -5 -8 -13t-24.5 -28.5t-43.5 -36.5t-65 -29t-88 -13q-147 0 -224 88.5 t-77 242.5z" />
<glyph unicode="D" horiz-adv-x="647" d="M77 0v650h221q151 0 232.5 -83.5t81.5 -243.5q0 -158 -80 -240.5t-233 -82.5h-222zM215 71h85q86 0 122.5 56.5t36.5 195.5q0 140 -37 198t-124 58h-83v-508z" />
<glyph unicode="E" d="M77 0v650h390v-72h-252v-214h222v-70h-222v-222h266v-72h-404z" />
<glyph unicode="F" horiz-adv-x="488" d="M77 0v650h395v-72h-257v-240h224v-70h-224v-268h-138z" />
<glyph unicode="G" horiz-adv-x="625" d="M36 323q0 158 79 247.5t221 89.5q46 0 96.5 -13t77.5 -25l27 -13l-15 -73q-94 49 -168 49q-91 0 -128.5 -60.5t-37.5 -202.5q0 -258 151 -258q29 0 51 10t33.5 26.5t16.5 28.5t8 25v121h-101v68h218v-343h-60l-35 57q-52 -68 -155 -68q-133 0 -206 88t-73 246z" />
<glyph unicode="H" horiz-adv-x="655" d="M77 0v650h138v-284h225v284h138v-650h-138v296h-225v-296h-138z" />
<glyph unicode="I" horiz-adv-x="293" d="M77 0v650h138v-650h-138z" />
<glyph unicode="J" horiz-adv-x="384" d="M4 30l30 58q23 -28 69 -28q38 0 56 32.5t18 121.5v436h138v-436q0 -124 -44.5 -174.5t-137.5 -50.5q-45 0 -77 10.5t-42 20.5z" />
<glyph unicode="K" horiz-adv-x="619" d="M77 0v650h138v-301l59 43l191 258h96l-197 -254l243 -396h-175l-174 292l-43 -30v-262h-138z" />
<glyph unicode="L" horiz-adv-x="479" d="M77 0v650h138v-578h252v-72h-390z" />
<glyph unicode="M" horiz-adv-x="856" d="M77 0l8 650h167l182 -479h4l179 479h155l7 -650h-135l-7 492h-3l-181 -492h-103l-181 492h-3l-3 -492h-86z" />
<glyph unicode="N" horiz-adv-x="651" d="M77 0v650h143l273 -441h2l-7 45v396h86v-650h-108l-309 488h-2l8 -58v-430h-86z" />
<glyph unicode="O" horiz-adv-x="663" d="M36 324q0 156 76.5 246t217.5 90q142 0 219.5 -90.5t77.5 -245.5t-77.5 -245t-219.5 -90q-141 0 -217.5 89.5t-76.5 245.5zM188 324q0 -139 33 -201.5t109 -62.5q77 0 110.5 62.5t33.5 201.5q0 138 -34 201t-110 63q-75 0 -108.5 -63t-33.5 -201z" />
<glyph unicode="P" horiz-adv-x="533" d="M77 0v650h199q111 0 172.5 -55.5t61.5 -164.5q0 -114 -70 -170.5t-161 -56.5h-64v-203h-138zM215 267h48q50 0 74 34.5t24 122.5q0 89 -24 125t-74 36h-48v-318z" />
<glyph unicode="Q" horiz-adv-x="663" d="M36 324q0 156 76.5 246t217.5 90q143 0 220 -87t77 -242q0 -131 -56 -219t-159 -113q66 -134 135 -134q13 0 28 6l6 -58q-27 -10 -59 -10q-73 0 -140 55t-100 134q-119 15 -182.5 102.5t-63.5 229.5zM188 324q0 -137 33 -200.5t109 -63.5t110 64t34 200 q0 135 -34.5 199.5t-109.5 64.5q-74 0 -108 -64t-34 -200z" />
<glyph unicode="R" horiz-adv-x="578" d="M77 0v650h200q110 0 172 -53.5t62 -150.5q0 -63 -31 -109.5t-81 -72.5l150 -264h-159l-122 236h-53v-236h-138zM215 302h51q54 0 75 30t21 108t-22.5 111.5t-76.5 33.5h-48v-283z" />
<glyph unicode="S" horiz-adv-x="492" d="M31 68l38 58q6 -7 17 -17.5t50 -28t83 -17.5q47 0 73 25t26 66q0 34 -27 60t-65 45.5t-76 42.5t-65 65t-27 99q0 89 58.5 141.5t152.5 52.5q40 0 80 -11.5t60 -22.5l20 -12l-16 -68q-65 44 -135 44q-38 0 -61 -21.5t-23 -59.5q0 -32 19.5 -57.5t48.5 -40.5t63.5 -35.5 t63.5 -41.5t48.5 -59.5t19.5 -89.5q0 -91 -65.5 -143.5t-163.5 -52.5q-42 0 -77.5 8t-56.5 19.5t-36 23.5t-21 20z" />
<glyph unicode="T" horiz-adv-x="516" d="M14 578v72h488v-72h-174v-578h-139v578h-175z" />
<glyph unicode="U" horiz-adv-x="614" d="M68 236v414h139v-383q0 -108 29.5 -155t92.5 -47q67 0 99 49t32 153v383h85v-414q0 -247 -238 -247q-118 0 -178.5 65t-60.5 182z" />
<glyph unicode="V" horiz-adv-x="576" d="M9 650h146l154 -549h3l167 549h87l-209 -650h-153z" />
<glyph unicode="W" horiz-adv-x="873" d="M9 650h147l120 -492h2l133 492h111l137 -489h3l113 489h88l-170 -650h-118l-136 480h-2l-135 -480h-120z" />
<glyph unicode="X" horiz-adv-x="581" d="M8 0l202 316l-193 334h173l120 -233h3l139 233h98l-190 -300l213 -350h-172l-139 248h-3l-147 -248h-104z" />
<glyph unicode="Y" horiz-adv-x="523" d="M-7 650h155l143 -295h2l140 295h96l-195 -384v-266h-139v251z" />
<glyph unicode="Z" horiz-adv-x="567" d="M42 0v58l313 520h-295v72h462v-60l-313 -518h312v-72h-479z" />
<glyph unicode="[" horiz-adv-x="386" d="M85 -89v800h293v-69h-177v-663h177v-68h-293z" />
<glyph unicode="\" horiz-adv-x="457" d="M-7 750h90l366 -1000h-89z" />
<glyph unicode="]" horiz-adv-x="386" d="M7 -21h177v663h-177v68h294v-799h-294v68z" />
<glyph unicode="^" horiz-adv-x="357" d="M30 531l148 167l149 -167l-39 -44l-110 106l-109 -106z" />
<glyph unicode="_" horiz-adv-x="679" d="M31 -88h617v-74h-617v74z" />
<glyph unicode="`" horiz-adv-x="242" d="M-36 703l106 35l85 -147l-62 -17z" />
<glyph unicode="a" horiz-adv-x="513" d="M27 120q0 47 26.5 81.5t72 53.5t87 28t89.5 13v29q0 68 -19 93.5t-64 25.5q-21 0 -50.5 -9t-48.5 -19l-20 -9l-13 64q77 40 155 40q94 0 143.5 -39.5t49.5 -135.5v-227q0 -53 21 -53l34 7l4 -52q-69 -22 -111 -22q-29 0 -45 14.5t-21 47.5h-5q-1 -3 -3.5 -7t-13 -14.5 t-24 -19t-37.5 -15t-53 -6.5q-70 0 -112 35t-42 96zM166 137q0 -40 16 -60.5t43 -20.5q24 0 43.5 14t26.5 28l7 13v132q-67 -7 -101.5 -31.5t-34.5 -74.5z" />
<glyph unicode="b" horiz-adv-x="545" d="M60 0v746l133 8v-287h4q3 5 10.5 13t38.5 21.5t71 13.5q89 0 144 -70.5t55 -184.5q0 -124 -55.5 -199.5t-153.5 -75.5q-40 0 -73 12t-46 25l-13 12h-2l-22 -34h-91zM193 98q2 -4 7 -10t25.5 -16.5t46.5 -10.5q55 0 78 44.5t23 151.5q0 101 -21.5 140.5t-74.5 39.5 q-26 0 -47 -13t-29 -26l-8 -13v-287z" />
<glyph unicode="c" horiz-adv-x="446" d="M29 247q0 122 64 193t177 71q31 0 67.5 -9.5t57.5 -19.5l21 -10l-13 -64q-71 36 -118 36q-58 0 -85 -40.5t-27 -154.5q0 -111 28 -152t80 -41q22 0 42 7t32.5 17t22 20.5t13.5 17.5l4 7l47 -30q-2 -4 -5 -11.5t-17 -25.5t-32 -32t-50 -25.5t-71 -11.5q-115 0 -176.5 66 t-61.5 192z" />
<glyph unicode="d" horiz-adv-x="545" d="M29 239q0 122 55.5 196.5t147.5 74.5q39 0 68 -9.5t39 -18.5l10 -10h3v274l133 8v-754h-111l-15 45h-1q-3 -6 -9.5 -15.5t-37 -25t-73.5 -15.5q-94 0 -151.5 68t-57.5 182zM172 243q0 -102 22.5 -139t73.5 -37q25 0 46 11.5t30 23.5l8 11v288q-28 33 -79 33 q-54 0 -77.5 -43t-23.5 -148z" />
<glyph unicode="e" horiz-adv-x="474" d="M29 241q0 130 60 199.5t162 69.5q93 0 144.5 -58.5t51.5 -167.5q0 -18 -2 -33.5t-4 -22.5l-2 -7h-269q1 -90 26.5 -127.5t82.5 -37.5q34 0 63 16.5t41 33.5l12 16l45 -35q-2 -4 -6 -10.5t-19 -23.5t-33.5 -30t-50.5 -23.5t-68 -10.5q-111 0 -172.5 61.5t-61.5 190.5z M170 286h153v23q0 76 -16 106.5t-56 30.5q-41 0 -59 -34t-22 -126z" />
<glyph unicode="f" horiz-adv-x="346" d="M35 423v60l49 14v74q0 189 158 189q25 0 53 -8.5t43 -17.5l16 -8l-17 -57q-43 24 -71 24q-27 0 -38 -26t-11 -111v-56h125v-77h-125v-423h-133v423h-49z" />
<glyph unicode="g" horiz-adv-x="461" d="M10 -95q0 84 63 123q-11 24 -11 54q0 60 44 98q-77 49 -77 150q0 90 58 135t148 45q40 0 76 -11l135 -1v-59l-48 -3q28 -42 28 -106q0 -89 -52.5 -136t-141.5 -47q-34 0 -69 8q-19 -15 -19 -37q0 -41 102 -41q216 0 216 -158q0 -88 -57.5 -134.5t-170.5 -46.5t-168.5 45 t-55.5 122zM103 -92q0 -102 131 -102q117 0 117 82q0 76 -126 76q-59 0 -97 16q-25 -27 -25 -72zM157 330q0 -122 72 -122q34 0 51 29t17 95t-17 90t-52 24t-53 -24.5t-18 -91.5z" />
<glyph unicode="h" horiz-adv-x="537" d="M60 0v746l133 8v-288h4q5 5 14.5 12.5t43 19.5t72.5 12q78 0 116 -41.5t38 -129.5v-339h-132v328q0 58 -15 78.5t-53 20.5q-25 0 -47 -9t-32 -18l-9 -9v-391h-133z" />
<glyph unicode="i" horiz-adv-x="253" d="M51 652q0 33 23 56q21 20 53 20q31 0 51 -19q22 -23 22 -57q0 -35 -22 -58q-22 -19 -51 -19q-30 0 -53 20q-23 23 -23 57zM60 0v500h133v-500h-133z" />
<glyph unicode="j" horiz-adv-x="280" d="M-50 -231l22 60q25 -19 53 -19q32 0 46.5 35.5t14.5 125.5v529h133v-529q0 -121 -47.5 -176.5t-128.5 -55.5q-29 0 -52 7.5t-32 15.5zM78 652q0 33 23 56q21 20 53 20q31 0 51 -19q22 -23 22 -57q0 -35 -22 -58q-22 -19 -51 -19q-30 0 -53 20q-23 23 -23 57z" />
<glyph unicode="k" horiz-adv-x="491" d="M59 0v746l133 8v-466l69 47l106 165h82l-130 -186l162 -314h-152l-112 234l-25 -16v-218h-133z" />
<glyph unicode="l" horiz-adv-x="254" d="M60 0v746l133 8v-754h-133z" />
<glyph unicode="m" horiz-adv-x="760" d="M60 0v500h107l17 -45h3q5 6 15.5 15t45 24.5t71.5 15.5q81 0 110 -53q66 53 142 53q71 0 102 -37.5t31 -123.5v-349h-133v339q0 54 -12.5 71.5t-40.5 17.5q-43 0 -71 -38q2 -24 2 -39v-351h-133v339q0 53 -12.5 71t-39.5 18q-26 0 -45 -13t-26 -23v-392h-133z" />
<glyph unicode="n" horiz-adv-x="538" d="M60 0v500h107l17 -41h4q4 6 13.5 14.5t45.5 22.5t82 14q154 0 154 -171v-339h-133v312q0 67 -14.5 91t-52.5 24q-26 0 -48.5 -9t-32.5 -18l-9 -9v-391h-133z" />
<glyph unicode="o" horiz-adv-x="525" d="M29 250q0 125 60.5 193t172.5 68q113 0 173.5 -68t60.5 -193q0 -124 -62.5 -192.5t-171.5 -68.5q-112 0 -172.5 68t-60.5 193zM172 251q0 -109 20 -152.5t70 -43.5t70 43.5t20 151.5t-20 151t-70 43t-70 -43t-20 -150z" />
<glyph unicode="p" horiz-adv-x="545" d="M60 -254v754h107l18 -45h3q5 6 14.5 15.5t44.5 25t77 15.5q89 0 140 -68t51 -183q0 -123 -53 -197t-145 -74q-39 0 -69.5 9.5t-41.5 19.5l-10 9h-3v-277zM193 98q23 -33 74 -33q56 0 80.5 42.5t24.5 149.5q0 101 -23 138.5t-72 37.5q-24 0 -44.5 -10.5t-29 -19 t-10.5 -13.5v-292z" />
<glyph unicode="q" horiz-adv-x="545" d="M30 239q0 122 58 197t151 75q37 0 68.5 -10.5t44.5 -20.5l12 -11h1l30 31h89v-750l-133 -4v290h-4q-1 -2 -3.5 -5t-12 -11t-22 -14.5t-34.5 -11.5t-47 -5q-89 0 -143.5 68t-54.5 182zM172 243q0 -105 24.5 -140.5t76.5 -35.5q25 0 44 10.5t25 18t9 13.5v294 q-24 32 -74 32q-53 0 -79 -41.5t-26 -150.5z" />
<glyph unicode="r" horiz-adv-x="355" d="M60 0v500h94l22 -84h4q1 4 2 10.5t8 22.5t16 28.5t27.5 23t41.5 10.5q14 0 34 -3.5t33 -7.5l12 -3l-12 -93q-51 14 -83 14q-23 0 -39.5 -15t-21.5 -30l-5 -15v-358h-133z" />
<glyph unicode="s" horiz-adv-x="417" d="M24 64l37 52q5 -7 14 -17t38 -27t59 -17q37 0 57 19t20 50q0 28 -21 47t-51 32t-60 29t-51 47.5t-21 76.5q0 74 51 114.5t126 40.5q32 0 68 -8.5t56 -17.5l20 -9l-18 -67q-65 37 -113 37q-31 0 -48 -15t-17 -40q0 -28 22.5 -48t54.5 -34.5t64 -31.5t54.5 -48.5 t22.5 -76.5q0 -73 -48.5 -118t-139.5 -45q-37 0 -68.5 7.5t-50.5 18.5t-32.5 22.5t-18.5 18.5z" />
<glyph unicode="t" horiz-adv-x="353" d="M30 423v60l49 14l64 169h68v-166h110v-77h-110v-247q0 -69 10 -92t37 -23q14 0 27 2.5t19 4.5l6 2l8 -57q-25 -24 -101 -24q-71 0 -105 35t-34 118v281h-48z" />
<glyph unicode="u" horiz-adv-x="538" d="M56 160v340h133v-312q0 -66 16 -91t52 -25q24 0 45.5 9.5t31.5 18.5l10 10v390h133v-500h-107l-19 44h-2q-2 -2 -5 -6t-14.5 -13.5t-26 -16.5t-39.5 -13t-54 -6q-154 0 -154 171z" />
<glyph unicode="v" horiz-adv-x="472" d="M5 500h161l98 -356h4l112 356h87l-177 -500h-110z" />
<glyph unicode="w" horiz-adv-x="700" d="M6 500h151l73 -333h3l95 333h91l105 -333h3l81 333h86l-147 -500h-106l-90 326v1h-3l-93 -327h-106z" />
<glyph unicode="x" horiz-adv-x="473" d="M9 0l154 242l-146 258h159l83 -177l94 177h91l-139 -227l159 -273h-159l-94 187l-109 -187h-93z" />
<glyph unicode="y" horiz-adv-x="481" d="M7 500h161l122 -356l103 356h83l-173 -511q-47 -129 -91 -189.5t-112 -60.5q-23 0 -42.5 4t-27.5 7l-8 4l11 78q26 -11 52 -11q45 0 73 35.5t62 123.5z" />
<glyph unicode="z" horiz-adv-x="434" d="M26 0v60l229 372h-210l-3 68h365v-60l-227 -372h218l2 -68h-374z" />
<glyph unicode="{" horiz-adv-x="406" d="M95 255v73q28 0 58 17t30 45q0 25 -14.5 96.5t-14.5 107.5q0 78 48 116t172 38v-65q-106 0 -106 -86q0 -31 14.5 -108t14.5 -109q0 -61 -69 -88q69 -29 69 -89q0 -31 -14.5 -108.5t-14.5 -107.5q0 -86 106 -86v-66q-124 0 -172 38.5t-48 116.5q0 36 14.5 107t14.5 97 q0 28 -30 44.5t-58 16.5z" />
<glyph unicode="|" horiz-adv-x="342" d="M133 -250v1000h77v-1000h-77z" />
<glyph unicode="}" horiz-adv-x="406" d="M56 -99q56 0 81 21.5t25 64.5q0 30 -14.5 107.5t-14.5 108.5q0 60 69 89q-69 27 -69 88q0 32 14.5 109t14.5 108q0 43 -25 64.5t-81 21.5v65q124 0 172.5 -38t48.5 -116q0 -36 -15 -107.5t-15 -96.5q0 -28 30.5 -45t58.5 -17v-73q-28 0 -58.5 -16.5t-30.5 -44.5 q0 -26 15 -97t15 -107q0 -78 -48.5 -116.5t-172.5 -38.5v66z" />
<glyph unicode="~" horiz-adv-x="598" d="M25 317q1 6 3 15.5t13.5 34t27 43t46.5 34t69 15.5q46 0 89 -18.5t70 -40t61 -40t65 -18.5q24 0 40.5 12t20.5 24l4 11l41 -26q-1 -6 -3 -15.5t-13 -34.5t-25.5 -44t-43 -34.5t-64.5 -15.5q-42 0 -82 18.5t-66.5 40.5t-62 40.5t-69.5 18.5q-17 0 -31 -5t-22.5 -12.5 t-14.5 -15t-8 -12.5l-2 -5z" />
<glyph unicode="&#xa1;" horiz-adv-x="333" d="M82 435q0 35 24 60q22 21 56 21q32 0 55 -21q24 -25 24 -60t-24 -59q-23 -21 -55 -21q-34 0 -56 21q-24 24 -24 59zM87 -189l43 458h67l43 -458v-61h-153v61z" />
<glyph unicode="&#xa2;" horiz-adv-x="446" d="M29 317q0 103 47 171t132 87l11 125h65l13 -121q27 -4 57 -13t46 -16l16 -8l-13 -64q-71 36 -118 36q-58 0 -85 -40.5t-27 -154.5q0 -111 28 -152t80 -41q22 0 42 7t32.5 17t22 20.5t13.5 17.5l4 7l47 -30q-1 -4 -4 -10t-14.5 -22.5t-26.5 -30t-41.5 -26t-58.5 -16.5 l-9 -110h-66l-13 113q-180 33 -180 254z" />
<glyph unicode="&#xa3;" horiz-adv-x="531" d="M40 0v122h41q47 31 47 111q0 22 -3 46l-85 7v64h76q-10 76 -10 118q0 95 52.5 143.5t147.5 48.5q32 0 68 -10t56 -20l20 -11l-20 -65q-58 34 -95 34q-44 0 -62 -25.5t-18 -102.5q0 -65 -4 -110h205v-73h-213q-17 -102 -58 -155h324v-122h-469z" />
<glyph unicode="&#xa4;" horiz-adv-x="546" d="M41 504l50 67l81 -105q44 39 102 39q56 0 98 -36l83 101l49 -66l-94 -78q30 -49 30 -111q0 -61 -29 -109l93 -81l-48 -67l-82 104q-44 -38 -100 -38t-100 36l-83 -101l-49 67l95 79q-28 48 -28 110q0 59 27 107zM182 316q0 -54 25 -85.5t66 -31.5q42 0 68 31t26 85 t-26 85t-68 31q-41 0 -66 -30.5t-25 -84.5z" />
<glyph unicode="&#xa5;" horiz-adv-x="590" d="M26 650h155l143 -295h2l140 295h96l-159 -313h82v-63h-114l-4 -8v-58h118v-64h-118v-144h-139v144h-127v64h127v43l-12 23h-115v63h83z" />
<glyph unicode="&#xa6;" horiz-adv-x="342" d="M133 150h77v-400h-77v400zM133 350v400h77v-400h-77z" />
<glyph unicode="&#xa7;" horiz-adv-x="505" d="M60 315q0 83 60 130q-18 27 -18 67q0 69 47 108.5t128 39.5q34 0 71.5 -12t57.5 -24l20 -11l-14 -60q-69 40 -116 40q-36 0 -53 -17.5t-17 -43.5q0 -30 25.5 -50t61.5 -34t72 -31t61.5 -52t25.5 -86q0 -78 -67 -133q17 -29 17 -67q0 -66 -50.5 -106.5t-138.5 -40.5 q-49 0 -88.5 14.5t-54.5 29.5l-14 14l26 58l13.5 -13.5t38.5 -22t62 -13.5q82 0 82 64q0 27 -24.5 45t-59.5 31.5t-70 31.5t-59.5 54.5t-24.5 89.5zM144 346q0 -39 35.5 -63t96.5 -47.5t90 -45.5q22 26 22 62q0 34 -36.5 56.5t-98 46t-92.5 46.5q-17 -22 -17 -55z" />
<glyph unicode="&#xa8;" horiz-adv-x="422" d="M1 652q0 31 20 52q20 17 46 17t46 -17q20 -23 20 -52q0 -30 -20 -52q-19 -18 -46 -18t-46 18q-20 20 -20 52zM187 652q0 31 20 52q19 17 46 17q26 0 46 -17q20 -23 20 -52q0 -30 -20 -52q-19 -18 -46 -18q-29 0 -47.5 20.5t-18.5 49.5z" />
<glyph unicode="&#xa9;" horiz-adv-x="729" d="M59 323q0 158 79.5 251t224.5 93t226 -93t81 -251t-80.5 -250t-226.5 -92q-147 0 -225.5 92t-78.5 250zM121 322q0 -135 63.5 -209.5t177.5 -74.5t180 74.5t66 209.5t-66 212t-180 77q-113 0 -177 -77t-64 -212zM217 319q0 82 46.5 129.5t116.5 47.5q26 0 51 -8.5 t37 -17.5l11 -8l-18 -47q-34 28 -69 28q-38 0 -57.5 -28t-19.5 -96q0 -122 78 -122q24 0 43 12.5t26 25.5l7 13l29 -29q-1 -3 -3 -8t-11 -18.5t-21.5 -23.5t-36 -18t-53.5 -8q-67 0 -111.5 47t-44.5 129z" />
<glyph unicode="&#xaa;" horiz-adv-x="413" d="M28 413q0 36 21 63.5t56.5 42t68.5 21.5t69 10v5q0 41 -14.5 59.5t-48.5 18.5q-25 0 -48.5 -10.5t-35.5 -20.5l-11 -11l-25 35q1 2 4 6t15 14t27 17.5t41 13.5t56 6q158 0 158 -137v-226h-91l-24 40q-1 -5 -5 -12t-14 -17t-31 -17t-49 -7q-58 0 -88.5 28t-30.5 78z M144 424q0 -57 49 -57q19 0 31 8t15 15t4 13v104q-51 -6 -75 -25t-24 -58z" />
<glyph unicode="&#xab;" horiz-adv-x="536" d="M79 250l178 186l34 -37l-89 -150l89 -151l-35 -39zM264 250l178 186l34 -37l-89 -150l89 -151l-35 -39z" />
<glyph unicode="&#xac;" horiz-adv-x="495" d="M50 279v73h394v-237h-68v164h-326z" />
<glyph unicode="&#xad;" horiz-adv-x="358" d="M43 238v74h272v-74h-272z" />
<glyph unicode="&#xae;" horiz-adv-x="669" d="M46 430q0 149 77.5 239t209.5 90q133 0 212 -90t79 -239q0 -150 -76.5 -240t-214.5 -90q-137 0 -212 90t-75 240zM107 429q0 -126 59 -199t166 -73t168.5 73.5t61.5 198.5q0 126 -61.5 201t-168.5 75q-106 0 -165.5 -76t-59.5 -200zM235 274v310h98q125 0 125 -96 q0 -61 -56 -88l56 -127h-78l-48 114h-27v-113h-70zM305 426h30q44 0 44 61q0 56 -45 56h-29v-117z" />
<glyph unicode="&#xaf;" horiz-adv-x="428" d="M108 624v58h214v-58h-214z" />
<glyph unicode="&#xb0;" horiz-adv-x="421" d="M36 564q0 91 46.5 146t127.5 55q80 0 127.5 -55.5t47.5 -145.5q0 -92 -46 -148t-129 -56q-85 0 -129.5 55.5t-44.5 148.5zM146 566q0 -75 15 -109t48 -34q67 0 67 143q0 74 -16 105.5t-50 31.5t-49 -31.5t-15 -105.5z" />
<glyph unicode="&#xb1;" d="M31 129v74h463v-74h-463zM67 488v74h163v184h71v-184h160v-74h-160v-185h-71v185h-163z" />
<glyph unicode="&#xb2;" horiz-adv-x="414" d="M41 230v95q65 25 130.5 102.5t65.5 164.5q0 58 -17 80.5t-55 22.5q-16 0 -40.5 -10t-40.5 -20l-16 -10l-14 58q7 5 20.5 13t51 21t72.5 13q83 0 127 -44.5t44 -114.5q0 -130 -184 -257h188v-114h-332z" />
<glyph unicode="&#xb3;" horiz-adv-x="413" d="M36 278l29 54q5 -5 14 -13t37 -21.5t56 -13.5q77 0 77 97q0 50 -10.5 70.5t-32.5 20.5q-15 0 -30 -15l-9 -11l-37 43l120 146h-178l7 115h276v-77l-120 -144q57 -2 97.5 -42.5t40.5 -108.5q0 -79 -53.5 -119t-128.5 -40q-30 0 -57 6t-44.5 14.5t-30 17.5t-17.5 15z" />
<glyph unicode="&#xb4;" horiz-adv-x="242" d="M61 578l70 152l108 -31l-121 -130z" />
<glyph unicode="&#xb5;" horiz-adv-x="542" d="M61 -250v750h133v-312q0 -66 16 -91t52 -25q24 0 45.5 9.5t31.5 18.5l10 10v390h133v-500h-107l-19 44h-2q-2 -2 -5 -6t-14.5 -13.5t-26 -16.5t-39.5 -13t-54 -6q-12 0 -30 2q12 -160 13 -241h-137z" />
<glyph unicode="&#xb6;" horiz-adv-x="640" d="M36 444q0 103 59 154.5t193 51.5h316v-88h-63v-562h-101v562h-80v-562h-98v232q-226 0 -226 212z" />
<glyph unicode="&#xb7;" horiz-adv-x="297" d="M68 364q0 34 24 60q22 21 56 21q32 0 55 -21q24 -26 24 -60q0 -35 -24 -59q-23 -21 -55 -21q-34 0 -56 21q-24 24 -24 59z" />
<glyph unicode="&#xb8;" horiz-adv-x="249" d="M25 -205l26 29q20 -29 55 -29q50 0 50 57q0 21 -15 32.5t-30 14.5l-15 3l12 97h44l-6 -57q0 -1 22 -8t44.5 -28.5t22.5 -55.5q0 -46 -29.5 -73.5t-84.5 -27.5q-33 0 -57 11.5t-32 23.5z" />
<glyph unicode="&#xb9;" horiz-adv-x="413" d="M61 669l126 81h97v-520h-120v423l-75 -52z" />
<glyph unicode="&#xba;" horiz-adv-x="439" d="M29 495q0 89 48.5 138.5t141.5 49.5q94 0 142 -49.5t48 -138.5q0 -88 -49.5 -138t-140.5 -50q-94 0 -142 49.5t-48 138.5zM155 496q0 -73 15 -106t49 -33q35 0 49.5 32.5t14.5 105.5q0 72 -14.5 104t-49.5 32q-34 0 -49 -32t-15 -103z" />
<glyph unicode="&#xbb;" horiz-adv-x="536" d="M59 95l90 150l-89 152l36 39l175 -191l-176 -186zM244 95l90 150l-89 152l36 39l175 -191l-176 -186z" />
<glyph unicode="&#xbc;" horiz-adv-x="805" d="M61 669l126 81h97v-520h-120v423l-75 -52zM220 -9l338 605l54 -30l-337 -606zM407 -68q60 121 94 352l117 -14q-32 -163 -133 -329h113v39l34 211h91v-250h42v-52l-42 -12v-127h-125v126h-185z" />
<glyph unicode="&#xbd;" horiz-adv-x="843" d="M61 669l126 81h97v-520h-120v423l-75 -52zM220 -9l338 605l54 -30l-337 -606zM476 -156q65 25 130.5 103t65.5 165q0 58 -17 80.5t-56 22.5q-16 0 -40.5 -10t-40.5 -20l-16 -10l-14 57q8 5 21 13t51 21t73 13q83 0 126.5 -44.5t43.5 -114.5q0 -130 -183 -256h187v-114 h-331v94z" />
<glyph unicode="&#xbe;" horiz-adv-x="847" d="M39 278l29 54q5 -5 14 -13t37 -21.5t56 -13.5q77 0 77 97q0 50 -10.5 70.5t-32.5 20.5q-15 0 -30 -15l-9 -11l-37 43l120 146h-178l7 115h276v-77l-120 -144q57 -2 97.5 -42.5t40.5 -108.5q0 -79 -53.5 -119t-128.5 -40q-30 0 -57 6t-44.5 14.5t-30 17.5t-18.5 15z M262 -9l338 605l54 -30l-337 -606zM449 -68q60 121 94 352l117 -14q-32 -163 -133 -329h113v39l34 211h91v-250h42v-52l-42 -12v-127h-125v126h-185z" />
<glyph unicode="&#xbf;" horiz-adv-x="445" d="M23 -84q0 56 23 95.5t55.5 62t65 42t55.5 49.5t23 71q0 7 -2 25l55 4q10 -39 10 -67q0 -33 -14 -57t-33.5 -40.5t-39 -35t-33.5 -51.5t-14 -79q0 -69 19.5 -98.5t68.5 -29.5q23 0 46 6.5t35 13.5l12 7l28 -61q-5 -4 -14.5 -9.5t-44.5 -15t-76 -9.5q-115 0 -170 52 t-55 125zM187 435q0 35 24 60q23 21 56 21t55 -21q24 -25 24 -60t-24 -59q-22 -21 -55 -21t-56 21q-24 24 -24 59z" />
<glyph unicode="&#xc0;" horiz-adv-x="608" d="M19 0l216 650h153l202 -650h-146l-56 182h-226l-59 -182h-84zM167 838l106 35l85 -147l-62 -17zM182 245h187l-89 306h-2z" />
<glyph unicode="&#xc1;" horiz-adv-x="608" d="M19 0l216 650h153l202 -650h-146l-56 182h-226l-59 -182h-84zM182 245h187l-89 306h-2zM262 713l70 152l108 -31l-121 -130z" />
<glyph unicode="&#xc2;" horiz-adv-x="608" d="M19 0l216 650h153l202 -650h-146l-56 182h-226l-59 -182h-84zM172 766l98 122h70l97 -122l-28 -45l-104 85l-104 -85zM182 245h187l-89 306h-2z" />
<glyph unicode="&#xc3;" horiz-adv-x="608" d="M19 0l216 650h153l202 -650h-146l-56 182h-226l-59 -182h-84zM129 765l5 10t14 21.5t23.5 27.5t34.5 21.5t46 9.5q39 0 84 -23.5t68 -23.5q16 0 28.5 8t17.5 16l4 8l36 -35q-1 -3 -3.5 -8.5t-11.5 -19t-20.5 -24t-32 -19t-44.5 -8.5q-34 0 -81 24t-74 24q-16 0 -30.5 -11 t-20.5 -23l-7 -11zM182 245h187l-89 306h-2z" />
<glyph unicode="&#xc4;" horiz-adv-x="608" d="M19 0l216 650h153l202 -650h-146l-56 182h-226l-59 -182h-84zM146 787q0 31 20 52q20 17 46 17t46 -17q20 -23 20 -52q0 -30 -20 -52q-19 -18 -46 -18t-46 18q-20 20 -20 52zM182 245h187l-89 306h-2zM332 787q0 31 20 52q19 17 46 17q26 0 46 -17q20 -23 20 -52 q0 -30 -20 -52q-20 -18 -46 -18q-29 0 -47.5 20.5t-18.5 49.5z" />
<glyph unicode="&#xc5;" horiz-adv-x="608" d="M19 0l216 650h153l202 -650h-146l-56 182h-226l-59 -182h-84zM182 245h187l-89 306h-2zM200 791q0 50 29.5 78.5t75.5 28.5q45 0 75 -29t30 -78q0 -50 -29 -79t-76 -29q-48 0 -76.5 28.5t-28.5 79.5zM246 792q0 -33 16 -49.5t43 -16.5t43 16.5t16 49.5q0 31 -16.5 47.5 t-42.5 16.5t-42.5 -16.5t-16.5 -47.5z" />
<glyph unicode="&#xc6;" horiz-adv-x="822" d="M-14 0l362 650h426v-72h-251v-214h222v-70h-222v-222h265v-72h-403v188h-210l-102 -188h-87zM209 252h176v326h-7z" />
<glyph unicode="&#xc7;" horiz-adv-x="576" d="M36 320q0 156 78.5 248t217.5 92q46 0 96 -13t77 -25l27 -13l-14 -73q-95 49 -169 49q-84 0 -122.5 -59t-38.5 -201q0 -141 41 -201t127 -60q30 0 58 9.5t47 23t33.5 27.5t21.5 24l6 9l44 -48q-3 -5 -8 -13t-24.5 -28.5t-43.5 -36.5t-65 -29t-87 -13l-5 -47q0 -1 22.5 -8 t44.5 -28.5t22 -55.5q0 -46 -29.5 -73.5t-84.5 -27.5q-33 0 -57 11.5t-31 23.5l-8 11l26 29q20 -29 55 -29q50 0 50 57q0 21 -15 32.5t-30 14.5l-15 3l11 89q-126 13 -192 99.5t-66 229.5z" />
<glyph unicode="&#xc8;" d="M77 0v650h390v-72h-252v-214h222v-70h-222v-222h266v-72h-404zM150 838l106 35l85 -147l-62 -17z" />
<glyph unicode="&#xc9;" d="M77 0v650h390v-72h-252v-214h222v-70h-222v-222h266v-72h-404zM244 713l70 152l108 -31l-121 -130z" />
<glyph unicode="&#xca;" d="M77 0v650h390v-72h-252v-214h222v-70h-222v-222h266v-72h-404zM156 766l98 122h70l97 -122l-28 -45l-104 85l-104 -85z" />
<glyph unicode="&#xcb;" d="M77 0v650h390v-72h-252v-214h222v-70h-222v-222h266v-72h-404zM114 787q0 31 20 52q20 17 46 17t46 -17q20 -23 20 -52q0 -30 -20 -52q-19 -18 -46 -18t-46 18q-20 20 -20 52zM300 787q0 31 20 52q19 17 46 17q26 0 46 -17q20 -23 20 -52q0 -30 -20 -52q-20 -18 -46 -18 q-29 0 -47.5 20.5t-18.5 49.5z" />
<glyph unicode="&#xcc;" horiz-adv-x="293" d="M4 838l106 35l85 -147l-62 -17zM77 0v650h138v-650h-138z" />
<glyph unicode="&#xcd;" horiz-adv-x="293" d="M77 0v650h138v-650h-138zM100 713l70 152l108 -31l-121 -130z" />
<glyph unicode="&#xce;" horiz-adv-x="293" d="M12 766l98 122h70l97 -122l-28 -45l-104 85l-104 -85zM77 0v650h138v-650h-138z" />
<glyph unicode="&#xcf;" horiz-adv-x="293" d="M-16 787q0 31 20 52q20 17 46 17t46 -17q20 -23 20 -52q0 -30 -20 -52q-19 -18 -46 -18q-26 0 -46 18q-20 20 -20 52zM77 0v650h138v-650h-138zM170 787q0 31 20 52q19 17 46 17q26 0 46 -17q20 -23 20 -52q0 -30 -20 -52q-20 -18 -46 -18q-29 0 -47.5 20.5t-18.5 49.5z " />
<glyph unicode="&#xd0;" horiz-adv-x="658" d="M21 289v66h56v295h221q151 0 232.5 -83.5t81.5 -243.5q0 -158 -80 -240.5t-233 -82.5h-222v289h-56zM215 71h85q86 0 122.5 56.5t36.5 195.5q0 140 -37 198t-124 58h-83v-224h142v-66h-142v-218z" />
<glyph unicode="&#xd1;" horiz-adv-x="651" d="M77 0v650h143l273 -441h2l-7 45v396h86v-650h-108l-309 488h-2l8 -58v-430h-86zM163 765l5 10t14 21.5t23.5 27.5t34.5 21.5t46 9.5q39 0 84 -23.5t68 -23.5q16 0 28.5 8t17.5 16l4 8l36 -35q-1 -3 -3.5 -8.5t-11.5 -19t-20.5 -24t-32 -19t-44.5 -8.5q-34 0 -81 24 t-74 24q-16 0 -30.5 -11t-20.5 -23l-7 -11z" />
<glyph unicode="&#xd2;" horiz-adv-x="663" d="M36 324q0 156 76.5 246t217.5 90q142 0 219.5 -90.5t77.5 -245.5t-77.5 -245t-219.5 -90q-141 0 -217.5 89.5t-76.5 245.5zM188 324q0 -139 33 -201.5t109 -62.5q77 0 110.5 62.5t33.5 201.5q0 138 -34 201t-110 63q-75 0 -108.5 -63t-33.5 -201zM189 838l106 35l85 -147 l-62 -17z" />
<glyph unicode="&#xd3;" horiz-adv-x="663" d="M36 324q0 156 76.5 246t217.5 90q142 0 219.5 -90.5t77.5 -245.5t-77.5 -245t-219.5 -90q-141 0 -217.5 89.5t-76.5 245.5zM188 324q0 -139 33 -201.5t109 -62.5q77 0 110.5 62.5t33.5 201.5q0 138 -34 201t-110 63q-75 0 -108.5 -63t-33.5 -201zM284 713l70 152l108 -31 l-121 -130z" />
<glyph unicode="&#xd4;" horiz-adv-x="663" d="M36 324q0 156 76.5 246t217.5 90q142 0 219.5 -90.5t77.5 -245.5t-77.5 -245t-219.5 -90q-141 0 -217.5 89.5t-76.5 245.5zM188 324q0 -139 33 -201.5t109 -62.5q77 0 110.5 62.5t33.5 201.5q0 138 -34 201t-110 63q-75 0 -108.5 -63t-33.5 -201zM197 766l98 122h70 l97 -122l-28 -45l-104 85l-104 -85z" />
<glyph unicode="&#xd5;" horiz-adv-x="663" d="M36 324q0 156 76.5 246t217.5 90q142 0 219.5 -90.5t77.5 -245.5t-77.5 -245t-219.5 -90q-141 0 -217.5 89.5t-76.5 245.5zM152 765l5 10t14 21.5t23.5 27.5t34.5 21.5t46 9.5q39 0 84 -23.5t68 -23.5q16 0 28.5 8t16.5 16l5 8l36 -35q-1 -3 -3.5 -8.5t-11.5 -19 t-20.5 -24t-32 -19t-44.5 -8.5q-34 0 -81 24t-74 24q-16 0 -30.5 -11t-21.5 -23l-6 -11zM188 324q0 -139 33 -201.5t109 -62.5q77 0 110.5 62.5t33.5 201.5q0 138 -34 201t-110 63q-75 0 -108.5 -63t-33.5 -201z" />
<glyph unicode="&#xd6;" horiz-adv-x="663" d="M36 324q0 156 76.5 246t217.5 90q142 0 219.5 -90.5t77.5 -245.5t-77.5 -245t-219.5 -90q-141 0 -217.5 89.5t-76.5 245.5zM168 787q0 31 20 52q20 17 46 17t46 -17q20 -23 20 -52q0 -30 -20 -52q-20 -18 -46 -18t-46 18q-20 20 -20 52zM188 324q0 -139 33 -201.5 t109 -62.5q77 0 110.5 62.5t33.5 201.5q0 138 -34 201t-110 63q-75 0 -108.5 -63t-33.5 -201zM354 787q0 31 20 52q19 17 46 17q26 0 46 -17q20 -23 20 -52q0 -30 -20 -52q-20 -18 -46 -18q-29 0 -47.5 20.5t-18.5 49.5z" />
<glyph unicode="&#xd7;" horiz-adv-x="423" d="M46 191l116 128l-116 129l47 58l119 -132l119 132l47 -58l-116 -129l116 -128l-48 -58l-118 130l-117 -130z" />
<glyph unicode="&#xd8;" horiz-adv-x="663" d="M36 324q0 156 76.5 246t217.5 90q65 0 122 -22l37 88l42 -11l-41 -96q137 -83 137 -295q0 -155 -77.5 -245t-219.5 -90q-54 0 -101 14l-47 -110l-41 11l48 115q-153 77 -153 305zM188 324q0 -154 40 -214l189 446q-34 32 -87 32q-75 0 -108.5 -63t-33.5 -201zM260 77 q27 -17 70 -17q77 0 110.5 62.5t33.5 201.5q0 127 -29 189z" />
<glyph unicode="&#xd9;" horiz-adv-x="614" d="M68 236v414h139v-383q0 -108 29.5 -155t92.5 -47q67 0 99 49t32 153v383h85v-414q0 -247 -238 -247q-118 0 -178.5 65t-60.5 182zM207 838l106 35l85 -147l-62 -17z" />
<glyph unicode="&#xda;" horiz-adv-x="614" d="M68 236v414h139v-383q0 -108 29.5 -155t92.5 -47q67 0 99 49t32 153v383h85v-414q0 -247 -238 -247q-118 0 -178.5 65t-60.5 182zM272 713l70 152l108 -31l-121 -130z" />
<glyph unicode="&#xdb;" horiz-adv-x="614" d="M68 236v414h139v-383q0 -108 29.5 -155t92.5 -47q67 0 99 49t32 153v383h85v-414q0 -247 -238 -247q-118 0 -178.5 65t-60.5 182zM198 766l98 122h70l97 -122l-28 -45l-104 85l-104 -85z" />
<glyph unicode="&#xdc;" horiz-adv-x="614" d="M68 236v414h139v-383q0 -108 29.5 -155t92.5 -47q67 0 99 49t32 153v383h85v-414q0 -247 -238 -247q-118 0 -178.5 65t-60.5 182zM169 787q0 31 20 52q20 17 46 17t46 -17q20 -23 20 -52q0 -30 -20 -52q-19 -18 -46 -18t-46 18q-20 20 -20 52zM355 787q0 31 20 52 q19 17 46 17q26 0 46 -17q20 -23 20 -52q0 -30 -20 -52q-19 -18 -46 -18q-29 0 -47.5 20.5t-18.5 49.5z" />
<glyph unicode="&#xdd;" horiz-adv-x="523" d="M-7 650h155l143 -295h2l140 295h96l-195 -384v-266h-139v251zM238 713l70 152l108 -31l-121 -130z" />
<glyph unicode="&#xde;" horiz-adv-x="562" d="M98 0v650h138v-90h61q111 0 172.5 -56.5t61.5 -170.5q0 -63 -21 -111t-56 -75t-74 -40.5t-80 -13.5h-64v-93h-138zM236 160h54q51 0 75 35t24 132q0 93 -24.5 128.5t-74.5 35.5h-54v-331z" />
<glyph unicode="&#xdf;" horiz-adv-x="561" d="M60 0v524q0 236 216 236q90 0 141.5 -39.5t51.5 -108.5q0 -90 -94 -135q157 -44 157 -240q0 -248 -202 -248q-35 0 -61 5.5t-35 11.5l-8 5l15 63q20 -14 58 -14q43 0 66.5 39t23.5 137q0 114 -28 153t-105 39v72q3 0 8.5 1.5t19 8t24 16t19 29.5t8.5 45q0 49 -16 71 t-51 22q-41 0 -58 -37.5t-17 -131.5v-524h-133z" />
<glyph unicode="&#xe0;" horiz-adv-x="513" d="M27 120q0 47 26.5 81.5t72 53.5t87 28t89.5 13v29q0 68 -19 93.5t-64 25.5q-21 0 -50.5 -9t-48.5 -19l-20 -9l-13 64q77 40 155 40q94 0 143.5 -39.5t49.5 -135.5v-227q0 -53 21 -53l34 7l4 -52q-69 -22 -111 -22q-29 0 -45 14.5t-21 47.5h-5q-1 -3 -3.5 -7t-13 -14.5 t-24 -19t-37.5 -15t-53 -6.5q-70 0 -112 35t-42 96zM115 703l106 35l85 -147l-62 -17zM166 137q0 -40 16 -60.5t43 -20.5q24 0 43.5 14t26.5 28l7 13v132q-67 -7 -101.5 -31.5t-34.5 -74.5z" />
<glyph unicode="&#xe1;" horiz-adv-x="513" d="M27 120q0 47 26.5 81.5t72 53.5t87 28t89.5 13v29q0 68 -19 93.5t-64 25.5q-21 0 -50.5 -9t-48.5 -19l-20 -9l-13 64q77 40 155 40q94 0 143.5 -39.5t49.5 -135.5v-227q0 -53 21 -53l34 7l4 -52q-69 -22 -111 -22q-29 0 -45 14.5t-21 47.5h-5q-1 -3 -3.5 -7t-13 -14.5 t-24 -19t-37.5 -15t-53 -6.5q-70 0 -112 35t-42 96zM166 137q0 -40 16 -60.5t43 -20.5q24 0 43.5 14t26.5 28l7 13v132q-67 -7 -101.5 -31.5t-34.5 -74.5zM210 578l70 152l108 -31l-121 -130z" />
<glyph unicode="&#xe2;" horiz-adv-x="513" d="M27 120q0 47 26.5 81.5t72 53.5t87 28t89.5 13v29q0 68 -19 93.5t-64 25.5q-21 0 -50.5 -9t-48.5 -19l-20 -9l-13 64q77 40 155 40q94 0 143.5 -39.5t49.5 -135.5v-227q0 -53 21 -53l34 7l4 -52q-69 -22 -111 -22q-29 0 -45 14.5t-21 47.5h-5q-1 -3 -3.5 -7t-13 -14.5 t-24 -19t-37.5 -15t-53 -6.5q-70 0 -112 35t-42 96zM122 631l98 122h70l97 -122l-28 -45l-104 85l-104 -85zM166 137q0 -40 16 -60.5t43 -20.5q24 0 43.5 14t26.5 28l7 13v132q-67 -7 -101.5 -31.5t-34.5 -74.5z" />
<glyph unicode="&#xe3;" horiz-adv-x="513" d="M27 120q0 47 26.5 81.5t72 53.5t87 28t89.5 13v29q0 68 -19 93.5t-64 25.5q-21 0 -50.5 -9t-48.5 -19l-20 -9l-13 64q77 40 155 40q94 0 143.5 -39.5t49.5 -135.5v-227q0 -53 21 -53l34 7l4 -52q-69 -22 -111 -22q-29 0 -45 14.5t-21 47.5h-5q-1 -3 -3.5 -7t-13 -14.5 t-24 -19t-37.5 -15t-53 -6.5q-70 0 -112 35t-42 96zM78 630l5 10t14 21.5t23.5 27.5t34.5 21.5t46 9.5q39 0 84 -23.5t68 -23.5q16 0 28.5 8t16.5 16l5 8l36 -35q-1 -3 -3.5 -8.5t-11.5 -19t-20.5 -24t-32 -19t-44.5 -8.5q-34 0 -81 24t-74 24q-16 0 -30.5 -11.5 t-21.5 -22.5l-6 -11zM166 137q0 -40 16 -60.5t43 -20.5q24 0 43.5 14t26.5 28l7 13v132q-67 -7 -101.5 -31.5t-34.5 -74.5z" />
<glyph unicode="&#xe4;" horiz-adv-x="513" d="M27 120q0 47 26.5 81.5t72 53.5t87 28t89.5 13v29q0 68 -19 93.5t-64 25.5q-21 0 -50.5 -9t-48.5 -19l-20 -9l-13 64q77 40 155 40q94 0 143.5 -39.5t49.5 -135.5v-227q0 -53 21 -53l34 7l4 -52q-69 -22 -111 -22q-29 0 -45 14.5t-21 47.5h-5q-1 -3 -3.5 -7t-13 -14.5 t-24 -19t-37.5 -15t-53 -6.5q-70 0 -112 35t-42 96zM93 652q0 31 20 52q20 17 46 17t46 -17q20 -23 20 -52q0 -30 -20 -52q-19 -18 -46 -18t-46 18q-20 20 -20 52zM166 137q0 -40 16 -60.5t43 -20.5q24 0 43.5 14t26.5 28l7 13v132q-67 -7 -101.5 -31.5t-34.5 -74.5z M279 652q0 31 20 52q19 17 46 17q26 0 46 -17q20 -23 20 -52q0 -30 -20 -52q-19 -18 -46 -18q-29 0 -47.5 20.5t-18.5 49.5z" />
<glyph unicode="&#xe5;" horiz-adv-x="513" d="M27 120q0 47 26.5 81.5t72 53.5t87 28t89.5 13v29q0 68 -19 93.5t-64 25.5q-21 0 -50.5 -9t-48.5 -19l-20 -9l-13 64q77 40 155 40q94 0 143.5 -39.5t49.5 -135.5v-227q0 -53 21 -53l34 7l4 -52q-69 -22 -111 -22q-29 0 -45 14.5t-21 47.5h-5q-1 -3 -3.5 -7t-13 -14.5 t-24 -19t-37.5 -15t-53 -6.5q-70 0 -112 35t-42 96zM150 656q0 50 29.5 78.5t75.5 28.5q45 0 75 -29t30 -78q0 -50 -29 -79t-76 -29q-48 0 -76.5 28.5t-28.5 79.5zM166 137q0 -40 16 -60.5t43 -20.5q24 0 43.5 14t26.5 28l7 13v132q-67 -7 -101.5 -31.5t-34.5 -74.5z M196 657q0 -33 16 -49.5t43 -16.5t43 16.5t16 49.5q0 31 -16.5 47.5t-42.5 16.5t-42.5 -16.5t-16.5 -47.5z" />
<glyph unicode="&#xe6;" horiz-adv-x="748" d="M28 124q0 47 26.5 82t71.5 54t86.5 28t89.5 13v19q0 75 -17 99.5t-61 24.5q-21 0 -50.5 -9t-49.5 -19l-19 -9l-13 64q76 40 155 40q96 0 130 -54q58 53 146 53q93 0 144.5 -58.5t51.5 -167.5q0 -18 -2 -33.5t-4 -22.5l-2 -7h-269q1 -90 26.5 -127.5t82.5 -37.5 q34 0 63 16.5t41 33.5l12 16l45 -35q-2 -4 -6 -10.5t-19 -23.5t-33.5 -30t-50.5 -23.5t-68 -10.5q-143 0 -199 96q-40 -96 -155 -96q-69 0 -111 37t-42 98zM166 141q0 -40 16 -62.5t43 -22.5q70 0 79 127q-3 27 -3 58v7q-66 -7 -100.5 -32t-34.5 -75zM442 286h153v23 q0 76 -16 106.5t-56 30.5q-41 0 -59 -34t-22 -126z" />
<glyph unicode="&#xe7;" horiz-adv-x="446" d="M29 247q0 122 64 193t177 71q31 0 67.5 -9.5t57.5 -19.5l21 -10l-13 -64q-71 36 -118 36q-58 0 -85 -40.5t-27 -154.5q0 -111 28 -152t80 -41q22 0 42 7t32.5 17t22 20.5t13.5 17.5l4 7l47 -30q-2 -4 -5 -11t-16.5 -25t-31 -32t-49 -25.5t-69.5 -12.5l-5 -47q0 -1 22 -8 t44.5 -28.5t22.5 -55.5q0 -46 -29.5 -73.5t-84.5 -27.5q-33 0 -57 11.5t-32 23.5l-7 11l26 29q20 -29 55 -29q50 0 50 57q0 21 -15 32.5t-30 14.5l-15 3l11 89q-96 11 -147 76t-51 180z" />
<glyph unicode="&#xe8;" horiz-adv-x="474" d="M29 241q0 130 60 199.5t162 69.5q93 0 144.5 -58.5t51.5 -167.5q0 -18 -2 -33.5t-4 -22.5l-2 -7h-269q1 -90 26.5 -127.5t82.5 -37.5q34 0 63 16.5t41 33.5l12 16l45 -35q-2 -4 -6 -10.5t-19 -23.5t-33.5 -30t-50.5 -23.5t-68 -10.5q-111 0 -172.5 61.5t-61.5 190.5z M110 703l106 35l85 -147l-62 -17zM170 286h153v23q0 76 -16 106.5t-56 30.5q-41 0 -59 -34t-22 -126z" />
<glyph unicode="&#xe9;" horiz-adv-x="474" d="M29 241q0 130 60 199.5t162 69.5q93 0 144.5 -58.5t51.5 -167.5q0 -18 -2 -33.5t-4 -22.5l-2 -7h-269q1 -90 26.5 -127.5t82.5 -37.5q34 0 63 16.5t41 33.5l12 16l45 -35q-2 -4 -6 -10.5t-19 -23.5t-33.5 -30t-50.5 -23.5t-68 -10.5q-111 0 -172.5 61.5t-61.5 190.5z M170 286h153v23q0 76 -16 106.5t-56 30.5q-41 0 -59 -34t-22 -126zM205 578l70 152l108 -31l-121 -130z" />
<glyph unicode="&#xea;" horiz-adv-x="474" d="M29 241q0 130 60 199.5t162 69.5q93 0 144.5 -58.5t51.5 -167.5q0 -18 -2 -33.5t-4 -22.5l-2 -7h-269q1 -90 26.5 -127.5t82.5 -37.5q34 0 63 16.5t41 33.5l12 16l45 -35q-2 -4 -6 -10.5t-19 -23.5t-33.5 -30t-50.5 -23.5t-68 -10.5q-111 0 -172.5 61.5t-61.5 190.5z M118 631l98 122h70l97 -122l-28 -45l-104 85l-104 -85zM170 286h153v23q0 76 -16 106.5t-56 30.5q-41 0 -59 -34t-22 -126z" />
<glyph unicode="&#xeb;" horiz-adv-x="474" d="M29 241q0 130 60 199.5t162 69.5q93 0 144.5 -58.5t51.5 -167.5q0 -18 -2 -33.5t-4 -22.5l-2 -7h-269q1 -90 26.5 -127.5t82.5 -37.5q34 0 63 16.5t41 33.5l12 16l45 -35q-2 -4 -6 -10.5t-19 -23.5t-33.5 -30t-50.5 -23.5t-68 -10.5q-111 0 -172.5 61.5t-61.5 190.5z M89 652q0 31 20 52q20 17 46 17t46 -17q20 -23 20 -52q0 -30 -20 -52q-19 -18 -46 -18t-46 18q-20 20 -20 52zM170 286h153v23q0 76 -16 106.5t-56 30.5q-41 0 -59 -34t-22 -126zM275 652q0 31 20 52q19 17 46 17q26 0 46 -17q20 -23 20 -52q0 -30 -20 -52q-19 -18 -46 -18 q-29 0 -47.5 20.5t-18.5 49.5z" />
<glyph unicode="&#xec;" horiz-adv-x="253" d="M-17 703l106 35l85 -147l-62 -17zM60 0v500h133v-500h-133z" />
<glyph unicode="&#xed;" horiz-adv-x="253" d="M60 0v500h133v-500h-133zM78 578l70 152l108 -31l-121 -130z" />
<glyph unicode="&#xee;" horiz-adv-x="253" d="M-5 631l98 122h70l97 -122l-28 -45l-104 85l-104 -85zM60 0v500h133v-500h-133z" />
<glyph unicode="&#xef;" horiz-adv-x="253" d="M-34 652q0 31 20 52q20 17 46 17t46 -17q20 -23 20 -52q0 -30 -20 -52q-20 -18 -46 -18q-27 0 -46 18q-20 20 -20 52zM60 0v500h133v-500h-133zM152 652q0 31 20 52q19 17 46 17q26 0 46 -17q20 -23 20 -52q0 -30 -20 -52q-19 -18 -46 -18q-29 0 -47.5 20.5t-18.5 49.5z " />
<glyph unicode="&#xf0;" horiz-adv-x="532" d="M30 250q0 124 57.5 192t160.5 68q58 0 108 -33q-20 87 -65 146l-91 -51l-18 42l79 45q-29 29 -61 50l60 37q42 -21 72 -47l79 45l19 -42l-64 -36q62 -70 96 -172t34 -222q0 -140 -59.5 -211.5t-173.5 -71.5q-109 0 -171 68.5t-62 192.5zM172 250q0 -109 20 -153t71 -44 q50 0 69.5 44t19.5 154q0 106 -19.5 150t-69.5 44q-51 0 -71 -43.5t-20 -151.5z" />
<glyph unicode="&#xf1;" horiz-adv-x="538" d="M60 0v500h107l17 -41h4q4 6 13.5 14.5t45.5 22.5t82 14q154 0 154 -171v-339h-133v312q0 67 -14.5 91t-52.5 24q-26 0 -48.5 -9t-32.5 -18l-9 -9v-391h-133zM80 630l5 10t14 21.5t23.5 27.5t34.5 21.5t46 9.5q39 0 84 -23.5t68 -23.5q16 0 28.5 8t16.5 16l5 8l36 -35 q-1 -3 -3.5 -8.5t-11.5 -19t-20.5 -24t-32 -19t-44.5 -8.5q-34 0 -81 24t-74 24q-16 0 -30.5 -11.5t-21.5 -22.5l-6 -11z" />
<glyph unicode="&#xf2;" horiz-adv-x="525" d="M29 250q0 125 60.5 193t172.5 68q113 0 173.5 -68t60.5 -193q0 -124 -62.5 -192.5t-171.5 -68.5q-112 0 -172.5 68t-60.5 193zM109 703l106 35l85 -147l-62 -17zM172 251q0 -109 20 -152.5t70 -43.5t70 43.5t20 151.5t-20 151t-70 43t-70 -43t-20 -150z" />
<glyph unicode="&#xf3;" horiz-adv-x="525" d="M29 250q0 125 60.5 193t172.5 68q113 0 173.5 -68t60.5 -193q0 -124 -62.5 -192.5t-171.5 -68.5q-112 0 -172.5 68t-60.5 193zM172 251q0 -109 20 -152.5t70 -43.5t70 43.5t20 151.5t-20 151t-70 43t-70 -43t-20 -150zM204 578l70 152l108 -31l-121 -130z" />
<glyph unicode="&#xf4;" horiz-adv-x="525" d="M29 250q0 125 60.5 193t172.5 68q113 0 173.5 -68t60.5 -193q0 -124 -62.5 -192.5t-171.5 -68.5q-112 0 -172.5 68t-60.5 193zM116 631l98 122h70l97 -122l-28 -45l-104 85l-104 -85zM172 251q0 -109 20 -152.5t70 -43.5t70 43.5t20 151.5t-20 151t-70 43t-70 -43 t-20 -150z" />
<glyph unicode="&#xf5;" horiz-adv-x="525" d="M29 250q0 125 60.5 193t172.5 68q113 0 173.5 -68t60.5 -193q0 -124 -62.5 -192.5t-171.5 -68.5q-112 0 -172.5 68t-60.5 193zM71 630l5 10t14 21.5t23.5 27.5t34.5 21.5t46 9.5q39 0 84 -23.5t68 -23.5q16 0 28.5 8t17.5 16l4 8l36 -35q-1 -3 -3.5 -8.5t-11.5 -19 t-20.5 -24t-32 -19t-44.5 -8.5q-34 0 -81 24t-74 24q-16 0 -30.5 -11.5t-20.5 -22.5l-7 -11zM172 251q0 -109 20 -152.5t70 -43.5t70 43.5t20 151.5t-20 151t-70 43t-70 -43t-20 -150z" />
<glyph unicode="&#xf6;" horiz-adv-x="525" d="M29 250q0 125 60.5 193t172.5 68q113 0 173.5 -68t60.5 -193q0 -124 -62.5 -192.5t-171.5 -68.5q-112 0 -172.5 68t-60.5 193zM88 652q0 31 20 52q20 17 46 17t46 -17q20 -23 20 -52q0 -30 -20 -52q-19 -18 -46 -18q-26 0 -46 18q-20 20 -20 52zM172 251 q0 -109 20 -152.5t70 -43.5t70 43.5t20 151.5t-20 151t-70 43t-70 -43t-20 -150zM274 652q0 31 20 52q19 17 46 17q26 0 46 -17q20 -23 20 -52q0 -30 -20 -52q-20 -18 -46 -18q-29 0 -47.5 20.5t-18.5 49.5z" />
<glyph unicode="&#xf7;" d="M31 228v74h463v-74h-463zM182 76q0 34 24 60q22 21 56 21q32 0 55 -21q24 -26 24 -60q0 -35 -24 -59q-23 -21 -55 -21q-34 0 -56 21q-24 24 -24 59zM183 454q0 34 24 60q23 21 56 21t55 -21q24 -26 24 -60q0 -35 -24 -59q-22 -21 -55 -21t-56 21q-24 24 -24 59z" />
<glyph unicode="&#xf8;" horiz-adv-x="529" d="M29 250q0 125 60.5 193t172.5 68q36 0 71 -8l57 147l58 -11l-62 -158q110 -61 110 -231q0 -124 -62.5 -192.5t-171.5 -68.5q-30 0 -65 7l-69 -179l-57 11l72 187q-114 60 -114 235zM172 251q0 -86 12 -131l122 313q-16 11 -44 11q-50 0 -70 -43t-20 -150zM223 63 q15 -8 39 -8q50 0 70 43.5t20 151.5q0 77 -10 118z" />
<glyph unicode="&#xf9;" horiz-adv-x="538" d="M56 160v340h133v-312q0 -66 16 -91t52 -25q24 0 45.5 9.5t31.5 18.5l10 10v390h133v-500h-107l-19 44h-2q-2 -2 -5 -6t-14.5 -13.5t-26 -16.5t-39.5 -13t-54 -6q-154 0 -154 171zM129 703l106 35l85 -147l-62 -17z" />
<glyph unicode="&#xfa;" horiz-adv-x="538" d="M56 160v340h133v-312q0 -66 16 -91t52 -25q24 0 45.5 9.5t31.5 18.5l10 10v390h133v-500h-107l-19 44h-2q-2 -2 -5 -6t-14.5 -13.5t-26 -16.5t-39.5 -13t-54 -6q-154 0 -154 171zM224 578l70 152l108 -31l-121 -130z" />
<glyph unicode="&#xfb;" horiz-adv-x="538" d="M56 160v340h133v-312q0 -66 16 -91t52 -25q24 0 45.5 9.5t31.5 18.5l10 10v390h133v-500h-107l-19 44h-2q-2 -2 -5 -6t-14.5 -13.5t-26 -16.5t-39.5 -13t-54 -6q-154 0 -154 171zM136 631l98 122h70l97 -122l-28 -45l-104 85l-104 -85z" />
<glyph unicode="&#xfc;" horiz-adv-x="538" d="M56 160v340h133v-312q0 -66 16 -91t52 -25q24 0 45.5 9.5t31.5 18.5l10 10v390h133v-500h-107l-19 44h-2q-2 -2 -5 -6t-14.5 -13.5t-26 -16.5t-39.5 -13t-54 -6q-154 0 -154 171zM108 652q0 31 20 52q20 17 46 17t46 -17q20 -23 20 -52q0 -30 -20 -52q-20 -18 -46 -18 t-46 18q-20 20 -20 52zM294 652q0 31 20 52q19 17 46 17q26 0 46 -17q20 -23 20 -52q0 -30 -20 -52q-20 -18 -46 -18q-29 0 -47.5 20.5t-18.5 49.5z" />
<glyph unicode="&#xfd;" horiz-adv-x="481" d="M7 500h161l122 -356l103 356h83l-173 -511q-47 -129 -91 -189.5t-112 -60.5q-23 0 -42.5 4t-27.5 7l-8 4l11 78q26 -11 52 -11q45 0 73 35.5t62 123.5zM206 578l70 152l108 -31l-121 -130z" />
<glyph unicode="&#xfe;" horiz-adv-x="543" d="M58 -254v1000l133 8v-287h4q3 5 10.5 13t38.5 21.5t71 13.5q89 0 144 -70.5t55 -184.5q0 -124 -55.5 -199.5t-153.5 -75.5q-70 0 -114 33v-268zM191 98q2 -4 7 -10t25.5 -16.5t46.5 -10.5q55 0 78 44.5t23 151.5q0 101 -21.5 140.5t-74.5 39.5q-25 0 -46 -13t-28.5 -23 t-9.5 -16v-287z" />
<glyph unicode="&#xff;" horiz-adv-x="481" d="M7 500h161l122 -356l103 356h83l-173 -511q-47 -129 -91 -189.5t-112 -60.5q-23 0 -42.5 4t-27.5 7l-8 4l11 78q26 -11 52 -11q45 0 73 35.5t62 123.5zM90 652q0 31 20 52q20 17 46 17t46 -17q20 -23 20 -52q0 -30 -20 -52q-20 -18 -46 -18t-46 18q-20 20 -20 52z M276 652q0 31 20 52q19 17 46 17q26 0 46 -17q20 -23 20 -52q0 -30 -20 -52q-20 -18 -46 -18q-29 0 -47.5 20.5t-18.5 49.5z" />
<glyph unicode="&#x152;" horiz-adv-x="929" d="M36 324q0 156 76.5 246t217.5 90q87 0 151 -35v25h391v-72h-252v-168q4 -30 5 -46h217v-70h-216q-2 -30 -6 -57v-165h266v-72h-405v24q-64 -35 -151 -35q-141 0 -217.5 89.5t-76.5 245.5zM188 324q0 -139 33 -201.5t109 -62.5q77 0 110.5 62.5t33.5 201.5q0 138 -34 201 t-110 63q-75 0 -108.5 -63t-33.5 -201z" />
<glyph unicode="&#x153;" horiz-adv-x="800" d="M29 250q0 125 60.5 193t172.5 68q102 0 164 -59q58 58 151 58t144.5 -58.5t51.5 -167.5q0 -18 -2 -33.5t-4 -22.5l-2 -7h-269q1 -90 26.5 -127.5t82.5 -37.5q34 0 63 16.5t41 33.5l12 16l45 -35q-2 -4 -6 -10.5t-19 -23.5t-33.5 -30t-50.5 -23.5t-68 -10.5 q-109 0 -168 56q-59 -56 -159 -56q-112 0 -172.5 68t-60.5 193zM172 251q0 -109 20 -152.5t70 -43.5t70 43.5t20 151.5t-20 151t-70 43t-70 -43t-20 -150zM496 286h153v23q0 76 -16 106.5t-56 30.5q-41 0 -59 -34t-22 -126z" />
<glyph unicode="&#x178;" horiz-adv-x="523" d="M-7 650h155l143 -295h2l140 295h96l-195 -384v-266h-139v251zM128 787q0 31 20 52q20 17 46 17t46 -17q20 -23 20 -52q0 -30 -20 -52q-20 -18 -46 -18t-46 18q-20 20 -20 52zM314 787q0 31 20 52q19 17 46 17q26 0 46 -17q20 -23 20 -52q0 -30 -20 -52q-20 -18 -46 -18 q-29 0 -47.5 20.5t-18.5 49.5z" />
<glyph unicode="&#x2c6;" horiz-adv-x="357" d="M45 631l98 122h70l97 -122l-28 -45l-104 85l-104 -85z" />
<glyph unicode="&#x2dc;" horiz-adv-x="428" d="M35 630l5 10t14 21.5t23.5 27.5t34.5 21.5t46 9.5q39 0 84 -23.5t68 -23.5q16 0 28.5 8t17.5 16l4 8l36 -35q-1 -3 -3.5 -8.5t-11.5 -19t-20.5 -24t-32 -19t-44.5 -8.5q-34 0 -81 24t-74 24q-16 0 -30.5 -11.5t-20.5 -22.5l-7 -11z" />
<glyph unicode="&#x2000;" horiz-adv-x="449" />
<glyph unicode="&#x2001;" horiz-adv-x="898" />
<glyph unicode="&#x2002;" horiz-adv-x="449" />
<glyph unicode="&#x2003;" horiz-adv-x="898" />
<glyph unicode="&#x2004;" horiz-adv-x="299" />
<glyph unicode="&#x2005;" horiz-adv-x="224" />
<glyph unicode="&#x2006;" horiz-adv-x="149" />
<glyph unicode="&#x2007;" horiz-adv-x="149" />
<glyph unicode="&#x2008;" horiz-adv-x="112" />
<glyph unicode="&#x2009;" horiz-adv-x="179" />
<glyph unicode="&#x200a;" horiz-adv-x="49" />
<glyph unicode="&#x2010;" horiz-adv-x="333" d="M31 238v74h272v-74h-272z" />
<glyph unicode="&#x2011;" horiz-adv-x="333" d="M31 238v74h272v-74h-272z" />
<glyph unicode="&#x2012;" horiz-adv-x="333" d="M31 238v74h272v-74h-272z" />
<glyph unicode="&#x2013;" d="M31 238v74h463v-74h-463z" />
<glyph unicode="&#x2014;" horiz-adv-x="678" d="M31 238v74h617v-74h-617z" />
<glyph unicode="&#x2018;" horiz-adv-x="181" d="M17 530q0 58 32.5 123.5t79.5 104.5l35 -37q-34 -30 -55.5 -71.5t-23.5 -79.5h7q28 0 48 -17q20 -23 20 -52t-20 -51q-20 -18 -48 -18q-35 0 -57 29q-18 29 -18 69z" />
<glyph unicode="&#x2019;" horiz-adv-x="180" d="M13 468q34 30 56 71t23 79h-7q-29 0 -48 18q-20 20 -20 51q0 32 20 52q20 18 48 18q27 0 48 -18l3 -4q24 -27 24 -76q0 -58 -32.5 -123.5t-79.5 -104.5z" />
<glyph unicode="&#x201a;" horiz-adv-x="180" d="M13 -133q34 30 56 71.5t23 79.5h-7q-28 0 -48 17q-20 20 -20 52q0 31 20 51q20 18 48 18q36 0 55.5 -28t19.5 -69q0 -57 -32.5 -123.5t-79.5 -105.5z" />
<glyph unicode="&#x201c;" horiz-adv-x="368" d="M17 530q0 58 32.5 123.5t79.5 104.5l35 -37q-34 -30 -55.5 -71.5t-23.5 -79.5h7q28 0 48 -17q20 -23 20 -52t-20 -51q-20 -18 -48 -18q-35 0 -57 29q-18 29 -18 69zM204 530q0 58 32.5 123.5t79.5 104.5l35 -37q-34 -30 -55.5 -71.5t-23.5 -79.5h7q28 0 48 -17 q20 -23 20 -52t-20 -51q-19 -18 -48 -18q-35 0 -57 29q-18 29 -18 69z" />
<glyph unicode="&#x201d;" horiz-adv-x="368" d="M13 468q34 30 56 71t23 79h-7q-29 0 -48 18q-20 20 -20 51q0 32 20 52q20 18 48 18q27 0 48 -18l3 -4q24 -27 24 -76q0 -58 -32.5 -123.5t-79.5 -104.5zM200 468q34 30 56 71t23 79h-7q-28 0 -48 18q-20 20 -20 51q0 32 20 52q19 18 48 18q27 0 48 -18l3 -4 q24 -27 24 -76q0 -58 -32.5 -123.5t-79.5 -104.5z" />
<glyph unicode="&#x201e;" horiz-adv-x="368" d="M13 -133q34 30 56 71.5t23 79.5h-7q-28 0 -48 17q-20 20 -20 52q0 31 20 51q20 18 48 18q36 0 55.5 -28t19.5 -69q0 -57 -32.5 -123.5t-79.5 -105.5zM200 -133q34 30 56 71.5t23 79.5h-7q-28 0 -48 17q-20 20 -20 52q0 31 20 51q20 18 48 18q36 0 55.5 -28t19.5 -69 q0 -57 -32.5 -123.5t-79.5 -105.5z" />
<glyph unicode="&#x2022;" horiz-adv-x="380" d="M60 330q0 54 36 93q35 31 86 31t85 -31q37 -40 37 -93q0 -54 -37 -93q-35 -32 -85 -32q-49 0 -86 32q-36 37 -36 93z" />
<glyph unicode="&#x2026;" horiz-adv-x="809" d="M68 64q0 34 24 60q22 21 56 21q32 0 55 -21q24 -26 24 -60q0 -35 -24 -59q-23 -21 -55 -21q-34 0 -56 21q-24 24 -24 59zM324 64q0 34 24 60q22 21 56 21q33 0 55 -21q24 -25 24 -60t-24 -59q-22 -21 -55 -21q-34 0 -56 21q-24 24 -24 59zM579 64q0 34 24 60q22 21 56 21 q33 0 55 -21q24 -25 24 -60t-24 -59q-22 -21 -55 -21q-34 0 -56 21q-24 24 -24 59z" />
<glyph unicode="&#x202f;" horiz-adv-x="179" />
<glyph unicode="&#x2039;" horiz-adv-x="352" d="M79 250l178 186l34 -37l-89 -150l89 -151l-35 -39z" />
<glyph unicode="&#x203a;" horiz-adv-x="352" d="M59 95l90 150l-89 152l36 39l175 -191l-176 -186z" />
<glyph unicode="&#x205f;" horiz-adv-x="224" />
<glyph unicode="&#x20ac;" horiz-adv-x="568" d="M40 223v59h50q-1 13 -1 40v27l-49 5v59h54q33 246 258 246q43 0 84.5 -11t61.5 -22l20 -11l-15 -69q-67 42 -135 42q-66 0 -94.5 -37t-35.5 -138h218v-69h-220v-62h220v-70h-215q9 -91 40.5 -123t96.5 -32q37 0 72.5 18t51.5 36l17 18l26 -50q-2 -4 -7 -10t-22 -21.5 t-37.5 -27.5t-54.5 -21.5t-72 -9.5q-217 0 -255 228z" />
<glyph unicode="&#x2122;" horiz-adv-x="796" d="M51 694v56h309v-55l-118 -1v-294h-82v294h-109zM376 400l22 350h83l82 -278l96 278h80l8 -350h-77l-7 223l-78 -223h-72l-77 235l-6 -235h-54z" />
<glyph unicode="&#xe000;" horiz-adv-x="500" d="M0 0v500h500v-500h-500z" />
</font>
</defs>
</svg>
