<?xml version="1.0" standalone="no"?>
<!DOCTYPE svg PUBLIC "-//W3C//DTD SVG 1.1//EN" "http://www.w3.org/Graphics/SVG/1.1/DTD/svg11.dtd" >
<svg xmlns="http://www.w3.org/2000/svg">
<metadata></metadata>
<defs>
<font id="scratchregular" horiz-adv-x="560" >
<font-face units-per-em="1000" ascent="800" descent="-200" />
<missing-glyph horiz-adv-x="250" />
<glyph horiz-adv-x="1000" />
<glyph horiz-adv-x="1000" />
<glyph unicode="&#xd;" horiz-adv-x="250" />
<glyph unicode=" "  horiz-adv-x="250" />
<glyph unicode="&#x09;" horiz-adv-x="250" />
<glyph unicode="&#xa0;" horiz-adv-x="250" />
<glyph unicode="!" horiz-adv-x="286" d="M258 595l-6 -8q-2 -3 -5 -21l-14 -85q-5 -32 -9 -99l-5 -110q0 -8 -1 -39q-1 -23 0 -32l2 -15q1 -14 -5 -14q2 0 -13 4l-17 5q-12 3 -42 13l-33 12q-32 12 -38 27q-2 5 -2 10l-1 244q-1 79 -5 112l-4 35l-6 22l-2 5l-5 8l12 8l11 -1q54 -5 124 -33q77 -30 64 -48z M218 112q3 -7 0 -20v-27l-1 -44q0 -27 -12 -27l-10 2l-41 12q-8 2 -21.5 6.5t-16.5 6.5l-23 10q-27 9 -28 27l1 13l4 47v21q-5 31 14 31q8 0 31 -8l47 -17q50 -18 56 -33z" />
<glyph unicode="&#x22;" horiz-adv-x="427" d="M434 608q3 -9 -3 -28q-13 -43 -12 -127q0 -45 -3 -48q-8 -7 -16 -7l-19 9l-18 6q-47 15 -58 43q-3 8 -3 10v9l2 25l3 79q2 49 -1 60q-2 6 -2 12q0 18 20 18l34 -9q4 -1 10 -4l9 -8l7 -2l8 -5l17 -5q7 -3 14 -10.5t11 -17.5zM254 608q3 -9 -3 -28q-13 -42 -12 -127 q0 -43 -3 -48q-7 -7 -16 -7l-19 9l-18 6q-47 15 -58 43l-3 10v9l2 25l3 79q2 49 -1 60q-2 6 -2 12q0 18 20 18l34 -9q5 -1 9 -4l10 -8l7 -2l8 -5l17 -5q4 -2 12.5 -10.5t12.5 -17.5z" />
<glyph unicode="#" d="M482 625q2 -4 -3 -10q-9 -18 -18 -97l-6 -51h13l14 1h5q19 0 25 1l13 2q14 0 19 -13l1 -6l5 -34v-28q1 -21 -11 -21l-10 1q-7 0 -30 1l-48 2l-7 -1l-8 -79l14 1h19q13 0 25 2l12 2q14 0 19 -13l1 -6l5 -34l1 -28q0 -22 -11 -22l-10 1q-9 1 -31 2l-54 1l-19 -175 q0 -3 0.5 -9.5t-0.5 -9.5q5 -16 -5 -16q-21 0 -62 20.5t-54 38.5q12 17 18 70l8 81h-90l-18 -175q0 -3 -0.5 -9.5t0.5 -9.5q3 -16 -5 -16q-21 0 -62 20.5t-54 38.5q12 20 18 70l8 81h-11l-27 -2l-19 -1q-23 -1 -30 43q-1 21 0 29q3 30 14 30l9 -1q2 0 17 -3q2 0 8 -1h9l40 1 l9 78h-12l-27 -1l-19 -2q-16 -2 -23.5 17.5t-6.5 38.5l1 26q1 20 14 20l8 -1q25 -3 34 -3h40l18 152q3 31 0 43q-5 15 6 15q15 0 63 -20.5t54 -31.5q2 -4 -2 -10q-9 -15 -18 -97l-6 -51h89l17 152q3 32 0 43q-5 15 6 15q16 0 63 -20t55 -32zM331 373h-90l-8 -80h89z" />
<glyph unicode="$" d="M487 528q2 -5 6 -21q2 -5 6 -29q5 -31 4 -50q-1 -22 -45 -22q-122 0 -135 33q-2 4 1 11q5 14 6 39q1 24 -4 37q-10 26 -31 26q-19 0 -27 -52q-4 -24 -3 -55q1 -48 33 -75q9 -8 74 -45q102 -58 125 -119q11 -28 11 -56q0 -44 -28 -88q-44 -69 -135 -69q-19 0 -68 7l1 -83 l-10 -1q-35 -4 -84 38l11 67l-14 5l-64 21q-38 12 -60 24l-15 6l-10 1q-16 2 -16 27q0 26 22 62q31 50 58 50q9 0 16 -9q18 -21 82 -41q58 -18 92 -18q30 0 30 18q0 31 -52 59l-53 28q-40 21 -78 59q-42 42 -56 80q-13 33 -7 102q3 36 21 88t20 74q4 31 20 31q11 0 43 -8 l32 -8l14 -3l4 37l-1 15q-3 15 6 15q18 0 48 -14q36 -17 33 -39l-8 -44l17 -5q94 -28 120 -44q33 -20 48 -62z" />
<glyph unicode="%" horiz-adv-x="578" d="M253 539q0 -43 -23 -104q-20 -53 -55 -53q-38 0 -86 26q-52 29 -64 62q-10 25 -1 83t30 100q4 8 6 14q1 1 3 11l9 1q9 0 39 -11q6 -3 27 -17q16 -12 28 -12l20 -7q18 -4 36 -20q31 -27 31 -73zM176 583q-9 23 -29 24q-21 1 -34 -56q-15 -64 -5 -90q8 -20 28 -20 q18 0 31 52q16 63 9 90zM433 641q0 -1 -1 -1q0 -3 -2 -7q-7 -11 -22 -61l-13 -44l-85 -324q-39 -148 -35 -182l1 -15q2 -13 -11 -13q-41 0 -96 47q26 54 63 195l43 162l40 174q17 73 14 89q-7 20 8 20q18 0 54.5 -13.5t41.5 -26.5zM575 151q0 -42 -23 -103q-20 -53 -54 -53 q-38 0 -86 27q-52 28 -64 61q-11 26 -1 84q9 58 29 100q2 5 6 13l3 12h9q14 0 40 -10t36 -19q8 -5 18 -12l21 -6q18 -5 35 -20q31 -27 31 -74zM498 195q-9 24 -29 25t-33 -56q-15 -64 -5 -89q7 -20 27 -20q17 0 31 51q16 62 9 89z" />
<glyph unicode="&#x26;" horiz-adv-x="629" d="M654 143q4 -10 3 -15q-1 -4 -6 -4l-14 1h-32q-81 -141 -220 -141q-82 0 -167 45q-92 50 -119 120q-9 23 -9 46q0 47 33 81q23 24 75 52l17 9l-22 4q-114 21 -143 98q-15 40 -1 99q12 46 54 107l10 15q13 18 27 18q43 0 120 -32q35 -15 88 -31q119 -36 141 -93 q5 -15 6 -30l1 -41q9 -29 -24 -29q-35 0 -88 9q-69 13 -76 31q-2 5 1 13q16 44 4 74q-8 21 -28 21q-21 0 -41 -60q-10 -30 -12 -54q-3 -23 3 -39q4 -9 11.5 -15t15.5 -7l12 1l10 1q24 0 76 -40q45 -35 53 -56q5 -11 -7 -13l-17 -5q-5 -1 -17 -8q-5 -3 -24 -21 q-55 -55 -55 -98q0 -18 13 -30.5t31 -12.5q33 0 68 44q30 39 37 76q3 13 10 16q11 2 44 2q57 0 61 -1q29 -4 50 -29q33 -41 47 -78z" />
<glyph unicode="'" horiz-adv-x="280" d="M254 608q3 -9 -3 -28q-13 -42 -12 -127q0 -43 -3 -48q-7 -7 -16 -7l-19 9l-18 6q-47 15 -58 43l-3 10v9l2 25l3 79q2 49 -1 60q-2 6 -2 12q0 18 20 18l34 -9q5 -1 9 -4l10 -8l7 -2l8 -5l17 -5q4 -2 12.5 -10.5t12.5 -17.5z" />
<glyph unicode="(" horiz-adv-x="308" d="M235 635q4 -8 -1 -14l-7 -11q-16 -26 -30 -107q-12 -69 -13 -114q-3 -88 11 -217q13 -124 33 -178q5 -11 16 -28q1 -3 6.5 -10.5t5.5 -13.5q0 -21 -68 -21q-28 0 -41 7t-21 29q-24 63 -41 188q-20 153 -19 236q0 87 20 177q13 65 20 78q1 14 2 27t22 13q23 0 58 -11 q41 -14 47 -30z" />
<glyph unicode=")" horiz-adv-x="309" d="M163 646q41 -109 55 -267q11 -124 4 -239q-7 -107 -34 -179q-1 -4 -1 -8l2 -11q6 -19 -24 -19q-23 0 -57 12q-40 13 -47 30q-3 8 6 20q22 31 34 139q8 75 8 147q1 112 -14 185l-32 150q-4 12 -20 32l-7 12q-1 3 -1 6q0 22 78 22q38 0 50 -32z" />
<glyph unicode="*" horiz-adv-x="466" d="M490 502q7 -19 7 -41q-1 -20 -9 -20l-6 1l-118 31l32 -56l35 -55q10 -12 12 -16q7 -20 -41 -20q-20 0 -41 9l-6 15l-5 20l-10 28l-8 20l-20 47l-40 -54q-15 -20 -16 -40v-7q-20 0 -45.5 18t-32.5 37q-3 9 3 14l90 78l-145 62q-7 18 0 39q8 23 27 23q9 0 37 -20 q15 -11 45 -29l54 -33l-2 51q-1 30 -10 70q-3 18 13 18q10 0 21 -3q8 -2 24 -10q27 -14 31 -24q1 -4 -1 -11l-1 -5l-16 -109l101 -11l22 3l10 -7q4 -5 9 -13z" />
<glyph unicode="+" d="M475 305q4 -12 4 -20q0 -13 -14 -13l-10 2q-28 5 -54 6l-61 2l2 -65l4 -35l6 -42l-21 -3q-29 0 -67.5 19.5t-45.5 36.5v5l3 7l1 12l1 21l-1 47h-48l-12 -3l-13 4q-11 6 -32 37t-31 59q-6 16 3 16q5 0 15 -3t21 -3h92l-8 73q-4 42 -10 61l24 4q19 0 66.5 -15.5t52.5 -27.5 q1 -2 -5 -30t-6 -35v-37h43q25 0 42 4q39 -33 59 -84z" />
<glyph unicode="," horiz-adv-x="230" d="M70 59q1 -4 -4 -25q-20 -87 -22 -118q-1 -14 -10 -14q-14 0 -57 18t-48 29q0 1 1 19l2 22l3 17l3 31v22q1 14 2.5 29t16.5 15q16 0 62.5 -17t50.5 -28z" />
<glyph unicode="-" horiz-adv-x="308" d="M251 314q9 -25 11 -45l3 -34q2 -30 -12 -31l-10 2q-5 1 -42 2l-103 3l-26 -1q-14 -1 -50 -3l-14 -1q-24 -2 -33 24q-8 20 -9 39l-2 35q-2 29 16 29q7 0 11 -1l14 -4h124q66 0 92 3l9 1q14 0 21 -18z" />
<glyph unicode="." horiz-adv-x="230" d="M94 92l-1 -86q0 -13 -8 -13l-11 2l-17 5q-89 26 -97 48q-1 3 -2 9l4 38l1 48q0 12 6 12q1 0 19 -5l33 -9l33 -11q41 -14 40 -38z" />
<glyph unicode="/" horiz-adv-x="445" d="M362 607q1 -4 -5 -10l-5 -5q-3 -4 -9 -17l-15 -33q-19 -43 -36 -114l-99 -424l-7 -50q-1 -7 -1 -14v-11q-1 -14 -14 -14q-24 0 -66 25q-38 23 -47 45q-3 9 4 16q4 6 5 13l14 33q12 30 35 121l73 290q13 51 20 91l10 66l5 35q3 19 15 19q23 0 70 -24t53 -38z" />
<glyph unicode="0" d="M530 355q9 -85 3 -156q-8 -90 -30 -136q-35 -72 -108 -72q-121 0 -229 66q-40 25 -65 53q-47 55 -56 153q-3 42 0 114q6 128 40 241q6 21 6 28v18q0 10 24 10q46 0 160 -42q24 -9 61 -15q68 -12 107 -42q71 -56 87 -220zM348 497q-22 58 -63 58q-26 0 -36 -47 q-1 -1 -8 -67q-9 -80 -5 -166q8 -174 81 -174q51 0 58 129q3 60 -5 145t-22 122z" />
<glyph unicode="1" d="M367 614l-3 -14q0 -2 -1 -13q0 -5 1 -17l3 -60l5 -109q4 -103 21 -242q14 -123 26 -154q6 -17 -18 -17q-30 0 -101 21q-78 23 -85 42q-1 2 1 10q0 1 1 13q-2 27 -1 32l-2 47l-4 50l-33 421q-2 15 -7 34q-1 4 -1 6q0 12 23 12q45 0 124 -25q55 -17 51 -37z" />
<glyph unicode="2" d="M537 406q0 -40 -28 -77q-21 -29 -77 -69q-49 -35 -89 -55l-76 -38l-14 -8h67q80 0 121 8l10 2q18 0 55 -53q32 -46 42 -72l12 -30l3 -12q0 -8 -11 -7l-13 1q-26 6 -50 6l-57 -1h-83l-87 -1q-12 0 -28 -1h-16l-15 -2q-35 0 -108 125q-26 44 -42 86q-6 14 -4 19q6 5 17 10 q5 1 16 8l40 25q90 55 154.5 121t64.5 93q0 25 -32 25q-26 0 -59.5 -17t-47.5 -38q-6 -9 -13 -9q-18 0 -75 56q-51 51 -68 76l-14 22l-4 7q-5 13 25 20q4 2 7.5 2.5t11.5 4.5q90 41 149 41q107 0 202 -86q114 -103 114 -182z" />
<glyph unicode="3" d="M484 406q0 -38 -38 -59q-28 -15 -45 -15h-6q-4 0 -2 -4q1 -3 4 -4l9 -1q54 -7 103 -74q52 -72 52 -128q0 -41 -30 -72q-49 -50 -155 -50q-115 0 -224 30q-25 7 -40 9q-34 0 -33 76q0 38 9 67q14 41 25 41q2 0 9 -4l16 -10q17 -11 70 -18q44 -7 74 -7q96 0 96 31 q0 12 -10 22q-23 23 -64 23q-40 0 -63 -4l-16 -3q-12 0 -24 14q-24 30 -43 81l-14 35q-5 15 -6 25q-3 11 7 11l4 -1l10 -3l13 -2q52 0 112 28q39 18 39 36q0 26 -37 26q-45 0 -124 -44q-36 22 -72 67q-42 53 -54 92l-7 23l10 -1q11 0 15 0.5t17 3.5l50 11q54 12 98 12 q60 0 115 -38q40 -27 81 -81q69 -90 69 -141z" />
<glyph unicode="4" d="M460 582q-1 -50 -1 -107l9 -131h9q7 1 15 -8t27 -41l26 -48q7 -12 9 -19l6 -15q7 -18 -3 -18l-8 1q-13 3 -46 3h-24l8 -102l8 -49l1 -25l13 -24q2 -5 -5 -8l-10 -2q-35 0 -104 22q-79 24 -87 47q-2 5 -2 12l4 19q6 32 3 70l-2 33l-50 -2l-29 -3h-16q-3 0 -6 -2l-11 -2 q-20 0 -78 59q-55 56 -65 81q-4 12 7 26q5 3 10 16l13 31l56 133l22 59q18 51 24 76l2 10h9q43 0 144 -31q112 -34 122 -61zM284 494q1 3 -3 3q-3 0 -5 -3l-2 -8q-24 -98 -47 -146l67 2z" />
<glyph unicode="5" d="M470 590q15 -39 18 -66q3 -28 -5 -30l-8 2q-18 5 -30 7q-8 1 -33 2l-75 3l-30 -2l-7 -98q23 5 31 5q63 0 126 -65q55 -56 81 -123q14 -38 14 -71q0 -51 -34 -86q-66 -69 -201 -69q-110 0 -180 32l-22 10q-19 3 -24 16q-12 33 -3 92q10 59 28 59q5 0 9 -3l9 -8 q16 -14 82 -14q76 0 124 20q39 16 39 39q0 34 -52 34q-57 0 -88 -22q-4 -4 -9 -4q-19 0 -64 47q-39 40 -55 66l4 221l-3 35l-2 30v15q1 7 11 6l304 -14l13 -5q13 -10 32 -61z" />
<glyph unicode="6" d="M543 266q19 -49 19 -96q0 -51 -22 -99q-35 -79 -116 -79q-46 0 -113 21q-59 20 -105 46q-78 44 -111.5 105t-33.5 151q0 43 8 91q21 129 90 242q9 15 8.5 27.5t10.5 12.5q32 0 115.5 -40.5t92.5 -65.5q4 -10 0 -16t-17 -4l-9 1q-51 -46 -76 -155l28 3q55 6 142 -44 q65 -37 89 -101zM307 326q-34 0 -42 -48q-10 -52 3 -98q3 -9 9 -19q22 -28 48 -28q28 0 40 52q10 43 -2 87q-14 54 -56 54z" />
<glyph unicode="7" d="M484 491q7 -19 0 -29l-10 -14q-6 -9 -16 -38l-16 -45q-11 -30 -22 -68l-61 -201l-11 -47q-1 -4 -4 -22q-1 -6 -3 -14q-1 -26 -16 -26q-10 0 -42.5 17.5t-65.5 41.5q-15 11 -40 35q-22 21 -25 29q-2 4 2 12l9 20q24 50 64 186q30 104 57 177l-170 -5q-28 -1 -62 49 q-24 36 -38 75q-10 25 -15 55q67 -11 152 -12h199q14 1 42 -33q70 -84 92 -143z" />
<glyph unicode="8" d="M483 517q10 -27 10 -53q0 -88 -84 -126q97 -49 132 -142q13 -35 13 -68q0 -38 -17 -74q-33 -66 -151 -66q-107 0 -204 52q-84 45 -115 125q-12 33 -12 63q0 98 110 126q-44 26 -65 50q-47 53 -47 123q0 47 25 126l9 27q14 7 31 7q60 0 128 -38q194 -18 237 -132zM310 524 q-12 32 -43 32q-22 0 -29 -23q-16 -48 33 -98q27 13 38.5 37t0.5 52zM304 258q-43 -25 -43 -62q0 -26 18.5 -48.5t44.5 -22.5q22 0 32 21q11 26 -9 62q-16 27 -43 50z" />
<glyph unicode="9" d="M503 548q-3 -44 8 -134q14 -108 15 -140q4 -103 -5 -151q-23 -133 -146 -133q-111 0 -235 82q-54 35 -61 54q-2 6 -2 14q0 23 26 52q34 37 47 37q16 0 22 -15l3 -9q7 -19 51 -47.5t65 -28.5q32 0 42 66q7 44 3 88q-17 -11 -37 -11q-60 0 -133 35q-82 39 -107 107 q-19 52 -11 155q5 60 11 74l6 13l4 17q3 17 34 17q50 0 92.5 -10t84.5 -32q30 0 127 -39q58 -23 96 -61zM314 535q-15 40 -48 40q-31 0 -34 -55q-7 -107 29 -136q14 -11 28 -11q35 0 38 65q0 -6 -1 22q0 3 -2.5 30t-9.5 45z" />
<glyph unicode=":" horiz-adv-x="230" d="M164 424l-1 -86q0 -12 -8 -12l-10 2l-17 5q-90 27 -98 47q-1 2 -2 10l3 18l2 67q0 12 6 12q4 0 19 -4l33 -9l33 -12q41 -15 40 -38zM157 92l-1 -86q0 -13 -8 -13l-11 2l-17 5q-89 26 -97 48q-1 3 -2 9l4 38l1 48q0 12 6 12q1 0 19 -5l33 -9l33 -11q41 -14 40 -38z" />
<glyph unicode=";" horiz-adv-x="230" d="M131 424l-1 -86q-1 -12 -9 -12l-11 2l-17 5q-90 27 -97 47q-2 5 -1 10l3 18l-1 20l2 30v17q-1 12 7 12q4 0 19 -4l33 -9l32 -12q23 -9 28 -12q13 -9 13 -26zM142 59q2 -4 -3 -25q-21 -87 -22 -118q-1 -14 -10 -14q-15 0 -58 18t-47 29q0 1 1 19l2 22l3 17l2 31l1 22 q0 14 1.5 29t16.5 15q17 0 63 -17t50 -28z" />
<glyph unicode="&#x3c;" d="M440 440l-197 -107l196 -108v-140l-346 189v119l347 188v-141z" />
<glyph unicode="=" d="M490 452q0 -22 -3 -34q0 -4 -8 -32q-12 -31 -23 -29l-16 3h-14l-18 1h-159q-54 0 -100 -7l-17 -1q-24 -1 -24 33q0 39 27 82l12 -2q43 -7 110 -6l162 2q35 0 53 6l7 1q11 0 11 -17zM454 293q0 -27 -7 -52q-10 -36 -31 -36q-3 0 -7 1h-5l-13 2h-188q-58 0 -87 -7 q-12 -3 -18 -3q-25 0 -25 38q0 36 26 71q36 -6 82 -6h184q42 0 70 7l8 2q11 0 11 -17z" />
<glyph unicode="&#x3e;" d="M480 274l-347 -189v141l198 107l-197 109v139l346 -189v-118z" />
<glyph unicode="?" horiz-adv-x="516" d="M511 435q6 -16 6 -32q0 -67 -102 -132.5t-102 -106.5q0 -17 -9 -17q-20 0 -78.5 38.5t-64.5 56.5q-8 20 33 78q33 49 58 71l27 24q46 41 46 66q0 16 -22 31q-14 10 -31 10q-27 0 -64.5 -26.5t-47.5 -52.5q-66 23 -148 119l-13 15q-5 6 -6 10q-3 7 10 11l9 6q46 32 85 46 q56 21 92 21q53 0 114 -37q37 -23 97 -75q95 -82 111 -124zM301 97v-89q0 -13 -8 -13q-9 0 -18 1.5t-29 7.5l-48 14q-40 12 -46 27q-1 3 -1 22v45l-2 18q-3 28 7 28q9 0 42 -9l43 -12q28 -8 37 -12q20 -10 23 -28z" />
<glyph unicode="@" horiz-adv-x="704" d="M660 477q25 -68 19 -134q-10 -116 -117 -170q-46 -23 -85 -23q-58 0 -73 48l-4 13q-6 -38 -14 -47q-10 -13 -46 -13q-79 0 -106 71q-14 39 -17 113q0 8 11 134l1 13q-2 12 2 15l4 3l7 4l14 1l58 2q40 1 54 -7h5l5 1q7 0 20 -6q-2 17 46 17q50 0 56 -16q3 -6 0 -21 q-1 -8 -1 -35l-1 -50v-58v-36l2 -37l1 -8q4 -10 14 -10q9 0 24 17q20 23 27 37q16 33 16 71q0 39 -17 84q-54 141 -228 141q-136 0 -178 -96q-18 -41 -15 -114q3 -71 26 -131q66 -175 274 -175q94 0 156 26l14 3q11 0 30.5 -20t27.5 -40q3 -8 -6 -13q-71 -41 -213 -41 q-295 0 -385 239q-31 80 -31 166q-1 91 26 147q65 135 263 135q116 0 201 -46q94 -52 133 -154zM353 448q-15 0 -19 -49q-6 -84 0 -143l5 -40l1 -6q2 -7 9 -7q15 0 22 69q5 45 5 85q0 42 -3 61q-4 30 -20 30z" />
<glyph unicode="A" horiz-adv-x="544" d="M484 564q1 -3 0 -7l-4 -13q-10 -30 -1 -158l12 -179q5 -86 16 -143q4 -22 5 -39l1 -9l10 -21q3 -7 -8 -9q-35 0 -99 24.5t-105 55.5v122l-104 -2l-20 -116q-3 -18 -5 -41q-1 -14 2 -37q-52 9 -132 72q-44 35 -50 51q-3 7 2 13l9 15q11 17 18 44l127 450q4 21 3 24l-4 11 q-5 13 10 13q38 0 161 -48l84 -33q67 -26 72 -40zM306 558l-74 -247h75z" />
<glyph unicode="B" horiz-adv-x="540" d="M484 438q0 -67 -104 -112q35 0 61 -17q50 -33 75 -99q11 -28 11 -51q0 -73 -119 -126q-89 -40 -157 -40q-34 0 -65 21l-65 43q-73 49 -79 65q-1 3 2 14l3 17l5 39q5 33 5 79l3 250q-20 20 -48 58l-33 46l-6 11q-4 9 4 9l12 -2q114 23 219 23q87 0 169 -68 q107 -88 107 -160zM296 524q-34 0 -60 -10l-1 -100q30 14 57 34q38 29 38 52q0 24 -34 24zM307 270q-32 0 -75 -22l-3 -90q37 8 71 26q46 25 46 54q0 32 -39 32z" />
<glyph unicode="C" horiz-adv-x="561" d="M535 479q-4 -42 -8 -86l2 -5q-27 -7 -42 -7q-35 0 -82 11q-61 15 -69 36q-2 5 1 10l3 8q9 17 15.5 54.5t1.5 52.5q-5 13 -18 13q-12 0 -19 -17l-13 -31q-39 -92 -64 -207q-16 -77 -16 -117t22 -57q13 -10 25 -10q26 0 55 42q27 39 29 67q1 19 5.5 25t21.5 6q29 0 80 -13 q61 -15 68 -33q3 -10 -10 -46q-14 -39 -31 -67q-67 -117 -161 -117q-45 0 -138 46q-132 65 -158 136q-12 31 -12 75q0 48 14 112q25 116 92 243l16 31q4 13 14 31q7 5 22 5q42 0 119 -26l51 -17l55 -17q46 -14 78.5 -34.5t41.5 -40.5q8 -16 9 -56z" />
<glyph unicode="D" horiz-adv-x="574" d="M565 357q0 -123 -130 -246q-36 -35 -86 -71q-67 -48 -95 -48q-23 0 -82 35q-48 28 -77 51l-47 37q-7 6 -8 8v7l5 16q7 23 11 92l16 268q-51 52 -79 104l-10 20l-5 6l-2 5q-1 4 6 4l29 3l43 6l58 10q34 6 92 6q65 0 112.5 -17t99.5 -57q149 -114 149 -239zM298 514 q-15 0 -24 -1.5t-22 -6.5l-1 -9q-2 -70 -11 -201l-11 -119q63 49 116 154q35 69 35 112q0 71 -82 71z" />
<glyph unicode="E" horiz-adv-x="461" d="M420 528q5 -14 -1 -15l-11 3q-6 2 -15 3h-126l-14 -128l89 -5l7 1l5 -2q14 -8 38 -49q20 -35 30 -59l4 -11l3 -16l-5 -1l-9 1q-14 4 -54 4h-64l-54 -1l-9 -110l132 -5q21 -19 47 -57.5t36 -66.5q9 -23 -8 -23l-18 3q-21 3 -119 5l-60 1l-62 -2l-26 -2q-22 -2 -76 70 q-36 47 -42 61q-2 6 1 17q1 2 7 40l5 32l2 23l25 284q-19 27 -37 65q-22 46 -22 70q0 8 5 8l9 -2l8 -2h296q18 -17 47 -63q26 -43 36 -71z" />
<glyph unicode="F" horiz-adv-x="445" d="M431 534q7 -18 -5 -19l-7 1q-24 7 -83 6l-91 -2l-1 -124l102 -3q44 -47 74 -126q3 -9 3 -15q0 -4 -1 -6l-3 -1l-12 5l-12 2l-43 1l-32 -1l-81 -1l-5 -133q-2 -71 5 -99q8 -22 -8 -22q-38 0 -109 36q-88 45 -81 71l5 17l3 34l3 45l16 364q-10 20 -21 40q-12 26 -18.5 42.5 t-1.5 24.5l2 1l11 -3h8l298 -2q22 -22 47 -62q28 -43 38 -71z" />
<glyph unicode="G" horiz-adv-x="594" d="M550 529q12 -30 5 -77q-4 -31 1 -43q-9 -12 -32 -12q-36 0 -89 17q-64 19 -74 44q-2 5 1 12q19 58 10 80q-7 19 -24 19q-27 0 -74 -119q-24 -61 -40 -141q-20 -102 -4 -143q13 -35 49 -35q29 0 64 36q29 32 41 64h-44q-15 0 -27 17l-10 14q-25 34 -39 71q-6 15 -3 18 q4 4 20 3l26 -1l147 -4q15 0 21 -2.5t19 -13.5q49 -45 78 -90l15 -24l6 -11q1 -1 -6 -15l-7 -10q-28 -39 -55 -78q-30 -42 -55 -63q-59 -50 -114 -50q-50 0 -150 57q-140 80 -168 155q-15 38 -15 85q0 67 29 151q40 117 97 194q6 7 8 16v12q-1 10 24 10q62 0 171 -43l16 -6 q161 -37 182 -94z" />
<glyph unicode="H" horiz-adv-x="579" d="M545 585q2 -5 -2 -11l-8 -11q-5 -8 -8 -62l-4 -60l-5 -391q0 -11 1 -28q6 -27 -9 -27q-31 0 -103 29q-62 25 -92 56q10 23 13 68l5 114l-81 -3l-1 -146q-1 -67 3 -85q5 -12 4 -17q1 -4 -1.5 -9.5t-14.5 -5.5q-29 0 -105 32q-81 33 -88 54q-2 3 3 24q2 5 4 39l2 39l1 463 l-5 13q-1 4 6 11l9 2q28 0 112.5 -32t91.5 -50q2 -7 -4.5 -19.5t-9.5 -85.5l-3 -89h74l1 242l-3 16q-4 16 10 16q30 0 115.5 -35t91.5 -51z" />
<glyph unicode="I" horiz-adv-x="293" d="M270 590q2 -6 -4 -15q-11 -21 -18 -154l-16 -371q0 -20 2 -29q10 -26 -5 -26q-39 0 -104.5 32t-88.5 62q16 22 20 110l16 382q3 52 -3 68q-10 24 7 24q40 0 149 -53q41 -20 45 -30z" />
<glyph unicode="J" horiz-adv-x="489" d="M460 589q1 -3 -4 -12q-13 -26 -10 -144l4 -212q2 -103 -17 -152q-29 -77 -117 -77q-113 0 -229 93q-86 69 -111 134l-5 12q31 28 87 28q53 0 58 -14q2 -4 0 -9l4 -23q10 -26 34 -51q28 -28 52 -28q33 0 45 80q6 43 8 162q1 117 -4 179l-8 89q-4 10 -4 17q0 12 15 12 q33 0 137 -45q60 -26 65 -39z" />
<glyph unicode="K" horiz-adv-x="559" d="M556 581q3 -8 -5 -16l-15 -11l-14 -16l-11 -17l-99 -145q-17 -25 -17 -45q0 -23 44 -85l68 -95q36 -40 76 -91q7 -19 -47 -42t-108 -23q-23 0 -28 13l-2 12l-2 5q-2 6 -22 37l-17 25l-115 163l5 -181q0 -18 6 -53q8 -24 -11 -24q-28 0 -105 27q-83 28 -89 46q0 -1 2 22 l3 25l5 93l-3 417q0 13 -2 21l-3 17q-3 14 17 14q27 0 128 -35q70 -24 61 -46l-6 -15q-1 -2 -1.5 -9.5t-1.5 -11.5l-2 -26l-4 -96l70 115l20 38l18 36q6 14 6 19l-1 17q-1 11 12 11q29 0 108 -38q76 -36 82 -52z" />
<glyph unicode="L" horiz-adv-x="412" d="M274 589q2 -6 -4 -28q-14 -46 -27 -190q-14 -149 -13 -223l136 -4q17 0 57 -57q28 -41 39 -71q8 -21 -8 -21q-5 0 -21 3l-38 2l-78 1l-61 -1q-8 0 -27 -2l-20 -2q-24 0 -100 64q-68 57 -75 75q-2 6 0 16q4 20 10 70l6 55l19 230l2 55q-1 16 2 48q2 17 -1 25l-6 16 q-6 17 10 17q40 0 134 -39q58 -24 64 -39z" />
<glyph unicode="M" horiz-adv-x="770" d="M724 568q2 -5 1 -12q-8 -43 -6 -220q2 -181 10 -261l6 -54l2 -12l6 -12q0 -2 -1 -5l-9 -2q-45 0 -110 23t-97 51q11 31 13 114l6 216q0 5 -5 5q-1 0 -3 -2l-45 -218q-3 -11 -7 -30q-6 -30 -8 -45l-5 -40q-4 -31 -4 -35l1 -19q0 -19 -17 -19q-28 0 -97.5 30t-95.5 51v31 l-1 62l-15 243l-5 5l-3 -3l-31 -207q-8 -61 -11 -122l-2 -33l2 -27q2 -19 -8 -19q-30 0 -94 32q-60 30 -86 53q17 43 29 112l73 444q0 9 -1 18q-4 10 -2 13q1 2 9 3q52 0 206 -63q64 -26 69 -40q-2 -21 -4 -53l7 -173q1 -3 4 -5q1 1 2 1t2 3l62 305q-2 21 10 21 q33 0 137 -41q108 -42 116 -64z" />
<glyph unicode="N" horiz-adv-x="552" d="M530 601q1 -2 -5 -22q-5 -23 -6 -26l-13 -119l-16 -268l-3 -116q-1 -23 5 -44q3 -12 -10 -12q-18 0 -69.5 12t-90.5 25q-54 19 -60 36q-1 4 -2 18l-5 36l-4 38l-30 197q-1 6 -5 6t-4 -4l-5 -206q-2 -91 14 -157q-48 7 -110 30q-65 25 -72 39v10q7 38 11 107l24 350 q2 35 1 56l-1 48l-1 14l-4 10q-2 6 0 9q1 2 12 2q42 0 112 -16q57 -13 77 -20.5t36 -21.5q-4 -31 5 -93l25 -175q1 -6 7 -6q3 0 4 4l7 269q0 29 -1 33l-2 4l-2 4q-4 13 12 13q21 0 106 -33l37 -14q23 -9 26 -17z" />
<glyph unicode="O" horiz-adv-x="596" d="M569 357q-2 -80 -24 -164q-28 -110 -68 -157q-43 -50 -108 -50q-97 0 -213 69q-91 54 -113 113q-10 27 -13 81q-2 53 5 98q21 130 86 254q9 23 17 45q15 35 22 35q21 0 102 -37q69 -31 102 -50q76 -15 125 -45q53 -32 70 -82q12 -36 10 -110zM366 516q-18 14 -37 14 q-29 0 -48 -49q-4 -9 -21 -72q-24 -92 -30 -159q-10 -101 32 -132q18 -14 35 -14q53 0 83 143q17 85 21 143q5 94 -35 126z" />
<glyph unicode="P" horiz-adv-x="511" d="M518 392q0 -56 -51 -108q-21 -22 -40 -37.5t-68 -35.5q-43 -19 -43 -18q-11 -4 -18 -4q-10 0 -33 21l-29 27l1 -142q0 -51 8 -71q11 -29 -7 -29q-36 0 -110 36q-32 16 -48 27q-33 22 -33 41q0 3 1 8q6 27 6 56l7 345q-70 77 -85 116l-5 14q45 12 118 24q79 13 119 13 q63 0 128 -38q54 -31 103 -89q79 -93 79 -156zM293 519q-30 0 -49 -9l-5 -156q38 19 73 50q45 41 45 73q0 42 -64 42z" />
<glyph unicode="Q" horiz-adv-x="596" d="M555 338q-10 -218 -87 -306q-32 -36 -82 -36q-7 0 -50 4q0 -5 1.5 -10t3.5 -12l6 -16l3 -10q-15 -3 -21 -4q-35 0 -70 29l-1 50q-86 38 -130 67q-73 49 -95 106q-14 37 -14 93q0 28 4 61q10 98 45 172l53 111q8 17 8 19l1 12q-1 11 19 11q31 0 92 -23q52 -21 87 -41h13 q36 0 112 -39.5t95 -97.5q11 -36 7 -140zM361 532q-18 15 -38 15q-36 0 -59 -61q-9 -24 -22 -90q-23 -111 -23 -175q0 -36 7 -56q5 -12 24 -32l-5 54q17 2 19 2q28 0 60 -18l-1 -6l-1 -23q-1 -17 2 -30q28 17 44 66q6 21 17 80q17 90 17 151q0 90 -41 123z" />
<glyph unicode="R" horiz-adv-x="556" d="M538 404q0 -74 -127 -135q95 -145 140 -178q21 -15 24 -23q5 -13 -18 -29q-26 -17 -59 -32q-38 -17 -51 -17q-19 0 -31 19l-5 12q-35 45 -81.5 107.5t-69.5 96.5h-14l5 -172q0 -20 2 -26l8 -19q7 -19 -13 -19h-8l-12 3l-35 9l-63 21q-64 21 -74 47q1 -1 3 62v23v37l1 318 q-76 82 -94 135l-5 18q15 0 33 3q119 19 194 19q132 0 206 -64q43 -36 83 -90q61 -83 61 -126zM293 516q-20 0 -47 -3v-118q34 11 64 30q41 26 41 53q0 38 -58 38z" />
<glyph unicode="S" horiz-adv-x="517" d="M490 477l1 -49q0 -21 -1 -24q-3 -10 -19 -10q-30 0 -87 16q-65 18 -72 37q-2 6 1.5 16t3.5 38v27q-2 13 -11.5 20t-16.5 7q-16 0 -29 -57q-18 -85 31 -128q17 -15 86 -59q91 -58 111 -110q11 -28 11 -55q0 -44 -29 -86q-45 -67 -124 -67q-102 0 -242 68q-103 50 -111 68 t24 67.5t52 49.5q12 0 21 -18q35 -29 93 -56q66 -31 103 -31q15 0 23 9.5t2 23.5q-8 22 -75 66q-45 28 -126 89q-64 59 -53 159q6 56 29 110l16 37q3 7 6 22q1 11 8 16t22 5q36 0 75 -16l78 -32q98 -26 139 -49q59 -33 60 -104z" />
<glyph unicode="T" horiz-adv-x="410" d="M419 530q8 -20 -4 -20l-10 3q-17 5 -48 6l-52 2l-1 -15l-2 -57l1 -53l3 -189q0 -12 2 -50l1 -44l3 -47q3 -38 8 -52q7 -19 -4 -19l-9 1l-32 5q-28 4 -82 24q-63 22 -70 37l-1 6l1 29l1 54q1 43 1 55l-2 317h-69l-7 -4q-9 0 -36 45q-21 36 -29 57l-12 29l-4 17q0 4 7 4 q10 0 17 -2l26 -1l71 -2h221q8 4 15 4q18 0 38 -30q3 -5 25 -44q26 -46 33 -66z" />
<glyph unicode="U" horiz-adv-x="567" d="M555 565q3 -9 -3 -17l-9 -14q-3 -4 -6 -88q-1 -17 -5 -79l-10 -142q-9 -126 -41.5 -178t-98.5 -52q-81 0 -188.5 49.5t-138.5 133.5q-12 29 -11 111q1 65 17 213q13 126 5 147q-4 11 -3 16q3 5 14 5q31 0 140 -49l4 -2q57 -26 63 -42q3 -8 -2 -18l-8 -16q-4 -5 -6 -30 l-6 -62q-5 -49 -12 -124l-5 -102q-2 -39 7 -63q4 -12 14.5 -20t22.5 -8q25 0 35 50q22 108 26 300q1 70 1 68q0 28 -1 37q-2 24 -15 56q-6 18 11 18q33 0 114 -36q86 -38 95 -62z" />
<glyph unicode="V" horiz-adv-x="527" d="M547 570q2 -5 -5 -15q-26 -36 -44 -97l-110 -387q-11 -38 -11 -53q0 -31 -18 -31q-14 0 -57 14q-48 15 -78 29l-92 41q-55 25 -63 44q-3 9 0 22q1 16 1 43q0 20 -2 66l-13 216l-9 95q-7 67 -12 79l-10 26q-3 8 4 13q3 3 10 3q38 0 116 -26q86 -29 96 -55q1 -4 0 -9 l-6 -22q-5 -21 -6 -145q0 -127 4 -179l4 -35q1 -5 3 -5q2 1 3 3l83 370q11 51 8 69t-3 21q1 5 10 5q24 0 107 -41t90 -59z" />
<glyph unicode="W" horiz-adv-x="756" d="M760 559q2 -5 -6 -17q-3 -3 -9 -20l-15 -48q-11 -38 -28 -115l-30 -141q-36 -163 -26 -208q5 -19 -9 -19q-46 0 -165 48q-74 30 -83 55q1 12 1 32q1 6 0 21l-1 66l-4 73l-5 55q-1 5 -4 5q-2 -1 -3 -3l-28 -180q-2 -18 -7 -54q-2 -14 -5 -46l-1 -34l-1 -15q3 -16 -7 -16 q-5 0 -16 3l-49 13q-37 10 -104 39q-82 35 -89 53q-3 7 0 18q10 38 2 129l-29 325q-2 20 -5 46l-8 29q-6 21 18 21q44 0 116 -23t80 -40l-1 -6l-11 -86l2 -118l4 -89l1 -3q1 -3 4 -4q3 2 2 4l40 288q5 34 4 42q-4 41 10 41l10 -2l47 -13q13 -3 55 -21l60 -25q9 -3 31 -17 q10 -7 13 -15q1 -4 -1 -26q-5 -62 1 -136l8 -109q0 -3 4 -5q2 1 3 3l37 264q1 15 3.5 33.5t1.5 30.5q-8 29 5 29q17 0 66 -26q41 -21 65 -37q51 -35 56 -49z" />
<glyph unicode="X" horiz-adv-x="471" d="M485 545q2 -4 -13 -11q-18 -10 -25 -22l-17 -28l-107 -168l64 -117q60 -112 100 -151q8 -8 10 -14q13 -33 -117 -33q-72 0 -82 29l-17 49l-9 19l-34 71l-43 -76l-19 -40q-8 -17 -8 -25q-1 -25 -13 -25q-28 0 -88.5 48.5t-70.5 76.5q-5 12 12 18l20 30l28 40l88 138 l-102 192q-14 27 -20 34l-24 30q-9 11 -9 21q0 33 119 33q71 0 79 -20v-6q2 -32 12 -55l6 -14l31 -70l63 129q4 8 3 13l1 13q1 7 10 7q22 0 93.5 -48t78.5 -68z" />
<glyph unicode="Y" horiz-adv-x="451" d="M467 579q2 -5 -11 -16q-5 -8 -10 -22l-25 -72q-28 -81 -65 -252q-36 -165 -31 -190l4 -18q3 -13 -15 -13q-32 0 -106 31q-78 32 -87 55q-2 5 4 14q22 34 31 68l16 59l-162 328q-30 62 -43 79q-4 5 -9 14q-5 14 45 21q34 5 62 5q56 0 72.5 -5t20.5 -15q1 -4 0 -4l-1 -12 q0 -10 8 -29l63 -159l26 138l5 41q3 21 2 26q-2 19 11 19q21 0 63 -19q6 -2 12 -5l68 -32q47 -22 52 -35z" />
<glyph unicode="Z" horiz-adv-x="469" d="M445 493q-38 -32 -94 -133l-118 -210l148 7q2 0 6 2l6 3q14 0 54 -64q34 -55 44 -81q8 -23 -14 -23q-8 0 -11 1q-31 4 -91 5l-171 1q-52 0 -70 -5l-9 -1q-17 0 -59.5 55t-59.5 101l-5 14q29 30 52 71l155 280l-94 -2l-26 -10q-12 1 -49.5 54.5t-53.5 96.5q-6 16 4 16 l8 -2q19 -4 33 -4l62 1l74 -1l83 2q31 0 67 3l13 1q8 1 39 -43q56 -78 77 -135z" />
<glyph unicode="[" horiz-adv-x="307" d="M246 619q7 -20 -4 -20q-2 0 -6 1h-5l-15 3h-5q-7 -44 -9 -104l-17 -469h26q20 -17 45 -47q32 -37 32 -53q0 -9 -11 -9q-3 0 -11 2q-24 6 -49 6q-37 0 -51 -2l-14 -2q-18 0 -49 44q-23 31 -36 59q6 17 7 42l2 40l2 46l15 407q1 33 -1 48q-32 36 -46 73q-9 25 7 25l6 -1 l10 -2q24 -5 49 -5q21 0 60 6q16 -14 38 -41q23 -30 30 -47z" />
<glyph unicode="\" horiz-adv-x="445" d="M320 -68q0 -17 -68 -17q-53 0 -53 24l1 10q5 53 4 150l-1 74l-10 250q-3 84 -11 148l-5 42q0 4 -4 18l-2 8q0 10 20.5 20t45.5 10q50 0 50 -17l-1 -7q-1 -9 -3 -28l-1 -39l-2 -40l1 -37l10 -349q3 -89 11 -140l7 -42q3 -18 9 -33z" />
<glyph unicode="]" horiz-adv-x="308" d="M214 602q-7 -16 -8 -42l-2 -40l-1 -46l-16 -407q0 -29 2 -47q31 -37 45 -75q9 -24 -7 -24h-3q-2 1 -3 1l-10 3q-14 4 -48 4q-19 0 -60 -6q-53 47 -69 89q-7 19 5 19q7 0 10 -1l16 -2h4q2 15 6 62l3 42l18 469h-27q-24 18 -55 59q-14 19 -19 32q-6 17 8 17q2 0 12 -2 q17 -5 47 -5h24q24 0 28 2l14 1q33 2 86 -103z" />
<glyph unicode="^" horiz-adv-x="500" d="M484 352h-129l-105 220l-105 -220h-129l153 318h162z" />
<glyph unicode="_" horiz-adv-x="500" d="M369 -154h-500v103h500v-103z" />
<glyph unicode="`" horiz-adv-x="500" d="M450 551q8 -20 -39 -20q-18 0 -35 5l-10 9l-44 40l-46 43l-21 18q-19 17 -21 22q-6 15 31 15h60l10 1h6q7 0 17 -13z" />
<glyph unicode="a" horiz-adv-x="483" d="M429 438q1 -3 -5 -10t-6 -39v-39l-2 -43l1 -244q1 -18 2 -42l5 -15q5 -16 -19 -16q-28 0 -80 16q-58 18 -67 37q-3 7 1 34l7 49l-2 3q0 3 -4 4q-1 0 -2 -2l-2 -8q-11 -44 -42 -83.5t-50 -39.5q-28 0 -85 29q-49 25 -68 58q-17 30 -17 86q0 35 6 80q16 104 56 187 q22 47 26 72l11 1q7 0 26 -4q53 -15 92 -44q29 0 59 -11l-3 26q-6 5 -7 8q-3 10 10 10q26 0 86 -20q67 -22 73 -40zM263 396l-2 6q-6 16 -27 19q-22 0 -54 -109q-5 -17 -14 -62q-5 -19 -12 -63q-11 -100 21 -100q24 0 52 94q22 75 31.5 131t4.5 84z" />
<glyph unicode="b" horiz-adv-x="467" d="M437 415q1 -2 1 -21l1 -19q1 -129 0 -144q-3 -63 -15 -125q-23 -115 -64 -115q-11 0 -46.5 10t-58.5 20q-35 15 -58 35q0 -13 4 -29.5t4 -22.5q0 -10 -12 -10q-28 0 -87 25q-63 26 -71 48q-2 5 -1 9l5 14l2 30l5 134l2 352q0 23 -3 35t-3 16q-1 6 0 11q3 4 16 4 q26 0 89 -19q69 -21 75 -37q2 -4 -4 -16.5t-7 -20.5l-16 -225q1 -5 6 -6l2 2l1 7q28 142 67 142q31 0 92 -29q65 -30 74 -55zM285 401q-5 12 -15 12q-9 0 -34 -78q-23 -69 -33 -133q-11 -68 -4 -90q2 -3 4.5 -7.5t9.5 -11t16 -6.5q23 0 42 86q10 44 15 100q3 28 2 91l-1 25z " />
<glyph unicode="c" horiz-adv-x="440" d="M400 304l-1 -19l1 -17q1 -12 -16 -12q-83 0 -144 47q8 21 11 39l4 33v15q1 15 -12 24q-7 5 -14 5q-19 0 -49 -102q-13 -46 -23 -103q-12 -77 -2 -102q5 -13 16.5 -21t23.5 -8q41 0 53 67q3 16 8.5 22t16.5 6q23 0 53 -9l48 -14q16 -5 19 -11q1 -4 -2 -9l-4 -7l-6 -18 q-20 -58 -55.5 -90t-81.5 -32q-73 0 -159 49q-51 29 -74 64t-23 90q0 80 41 186q23 59 38 78.5t15 36.5q0 12 12 12q34 0 86.5 -15.5t78.5 -34.5q43 -4 84 -25.5t52 -50.5q7 -21 5 -74z" />
<glyph unicode="d" horiz-adv-x="480" d="M463 620q3 -10 -1 -17l-6 -15q-13 -30 -12 -171v-247q0 -105 7 -143l4 -16q3 -20 -15 -20q-36 0 -105 22q-38 12 -43 25q-1 3 -2 11l5 83q-2 4 -5 4q-1 0 -2 -2l-2 -8l-10 -42q-22 -90 -70 -90q-44 0 -100.5 38.5t-72.5 79.5q-12 31 -7 104q3 48 24.5 125.5t44.5 117.5 q8 16 8 23l-1 13q-1 12 17 12q35 0 87 -19.5t82 -41.5l2 152l-1 27q-2 45 -4 43q2 4 13 4q10 0 20 -2l51 -11l56 -15q32 -8 38 -24zM284 408q-7 18 -26 19q-15 3 -25 -31l-15 -50q-26 -85 -28 -198l-1 -35q0 -5 4 -16q6 -16 18 -16q25 0 52 112q8 36 17 110q11 87 4 105z " />
<glyph unicode="e" horiz-adv-x="452" d="M406 229q-2 -23 -21 -23l-61 1l-133 -3q-12 -2 -33 -3q-3 -28 -3 -48q0 -21 4 -33q10 -27 33 -27q28 0 60 50q10 15 28 15q28 0 74.5 -17t52.5 -30q2 -6 -7 -16l-11 -16q-26 -37 -71 -63.5t-88 -26.5q-63 0 -135 41q-76 43 -97 98q-11 28 -11 70q0 32 7 73q20 129 57 191 q9 14 9 21v11q2 11 19 11q46 0 145 -33l15 -5q64 -13 102 -40q78 -55 65 -198zM222 424q-16 0 -27 -28q-7 -20 -19 -79l-1 -7h73q3 17 3 43v27q-1 44 -29 44z" />
<glyph unicode="f" horiz-adv-x="313" d="M383 535q-22 -9 -37 -9q-18 0 -49 10.5t-44 24.5q12 25 6 41q-5 14 -18 14q-12 0 -16 -27l-6 -38l-3 -46l31 -1q20 -1 34 -25l15 -28q6 -11 19 -45q9 -23 -5 -23l-16 4q-5 0 -15 1l-12 1l-58 1l1 -11q-1 -83 1 -233l4 -86q1 -36 6 -49l2 -6q1 -3 2 -7q-2 -5 -10 -5 q-43 0 -115 32q-37 16 -44 35v48l1 33v247l-21 -2h-7l-8 4q-25 32 -45 85q-4 11 -6 28h89l2 59l4 41q2 34 1 45q-5 25 34 25h23q14 -3 26 -4l32 -4l53 -6q63 -7 96 -26q53 -30 53 -98z" />
<glyph unicode="g" horiz-adv-x="480" d="M400 430q1 -2 -3 -4l-6 -3q-9 -3 -13 -71l-5 -95l-3 -100l-1 -205q-1 -100 -13 -129q-21 -50 -91 -50q-93 0 -232 73q-101 53 -101 85q0 23 46 46q33 16 45 16q14 0 20 -12l7 -11q13 -19 56 -44t65 -25q44 0 49 101l2 42l5 78q0 4 -3 4q-1 0 -3 -2l-3 -9q-17 -60 -37 -89 q-24 -35 -50 -35q-27 0 -76 22q-60 27 -82.5 65t-22.5 103q0 46 11 102q20 96 80 193l8 13q4 11 15 11q12 0 50.5 -13t60.5 -24l44 -22l11 -5l-1 25l-3 13l-2 8l-4 9q1 2 4 4l5 1q26 0 93 -23q71 -25 78 -43zM227 390q-9 22 -28 23q-27 1 -57 -115q-17 -66 -23 -124 q-10 -98 25 -98q23 0 49 97q37 136 37 191q0 16 -3 26z" />
<glyph unicode="h" horiz-adv-x="465" d="M421 427q15 -44 13 -126l-7 -254q-1 -19 0 -25q4 -30 -6 -31l-4 1l-33 7q-39 8 -82.5 28t-47.5 30q-1 2 0 10q6 44 8 62l7 85q10 134 4 167l-2 10q0 5 -3 5q-2 0 -3 -1l-3 -7q-20 -42 -46 -198q-18 -104 -18 -149q0 -19 3 -27l3 -7q3 -9 -6 -9l-7 1l-42 11q-26 7 -61 21 q-46 19 -51 32q-3 6 0 20l5 22l1 35l10 463q0 15 -2 36q-5 32 7 33l6 -1l25 -5q33 -7 74 -21q57 -20 63 -36q2 -7 0 -11l-6 -12q-7 -11 -10 -57l-7 -105l-2 -43l-3 -55l1 -3q1 -3 3 -3q2 1 3 3l1 8q6 48 25 105q12 35 15 40q12 21 32 21q41 0 87 -21.5t56 -48.5z" />
<glyph unicode="i" horiz-adv-x="235" d="M207 617l1 -9l-4 -17l-2 -33l-1 -29q2 -24 -11 -26q-25 0 -73 19.5t-64 37.5q10 52 5 85q-4 22 10 22q22 0 75 -17q57 -19 64 -33zM213 447q1 -5 -1 -10l-3 -9q-2 -6 -3 -23l-3 -50l-6 -170q-3 -95 -1 -126l2 -37l1 -15q6 -14 -4 -14q-35 0 -96.5 26t-67.5 42q-2 5 2 30 q1 10 4 34l1 38l11 192l2 112q0 10 -3 19l-3 8q-4 11 15 11q21 0 82 -24l48 -19q20 -8 23 -15z" />
<glyph unicode="j" horiz-adv-x="243" d="M162 618q1 -2 0 -11l-2 -24l-2 -43v-24q1 -18 -12 -18q-15 0 -47 15q-24 11 -49 19q-41 13 -47 29q-1 3 0 11l3 22q6 52 1 80l13 4q20 0 78.5 -23t63.5 -37zM181 427q1 -3 -1 -10l-5 -6q-1 -1 -2 -20l-4 -41q-3 -41 -3 -84v-69l3 -258q1 -78 -16 -115q-25 -53 -94 -53 q-44 0 -107 24q-59 22 -112 60l-46 33q-21 11 -21 21q0 17 31 38q39 26 73 26q14 0 17 -8l3 -8q8 -15 32.5 -32t40.5 -17q18 0 26 55.5t9 209.5l-3 254q-1 24 -9 56q-7 19 11 19q24 0 102 -31q69 -28 75 -44z" />
<glyph unicode="k" horiz-adv-x="449" d="M429 410q1 -2 -18 -29q-22 -29 -25 -34l-32 -66q-7 -15 -9 -26q-3 -19 22 -57l17 -26l24 -41l25 -36q7 -10 16 -22l16 -18q5 -6 7 -10q6 -17 -29 -35q-38 -20 -72 -20q-19 0 -21 -1l-18 -4q-16 0 -21 17l-10 27q-6 10 -8 15l-86 164l3 -120q1 -52 4 -65l6 -20 q5 -14 -13 -14q-20 0 -45 6q-31 7 -59 17q-61 22 -65 34q-2 5 0 11q2 3 3 25l1 29l8 474q1 44 0 50q-1 8 -4 21q-1 18 11 18q35 0 89 -20q51 -18 83 -39l-26 -285l74 149q-4 20 7 20q19 0 79 -36.5t66 -52.5z" />
<glyph unicode="l" horiz-adv-x="241" d="M216 598l-3 -12q-7 -35 -8 -129v-90l-1 -221q0 -113 8 -134q7 -19 -10 -19q-32 0 -93 24t-67 39q-3 8 -2 21l8 427q2 113 -7 150q-3 10 -1 14q3 2 17 2q36 0 80 -20l53 -24q29 -13 26 -28z" />
<glyph unicode="m" horiz-adv-x="674" d="M596 428q15 -39 13 -197l-2 -226q1 -11 -10 -11q-30 0 -95 24q-59 22 -64 36q-2 4 0 13l4 19q13 65 13 170l1 112q0 10 -3 35v7q-1 6 -7 6q-2 0 -3 -3l-3 -6l-6 -28l-22 -85q-12 -45 -23 -142q-12 -104 -7 -140q2 -19 -13 -19q-19 0 -95 32l-28 14q-33 17 -29 33 q6 21 11 102l7 89q0 49 3 134v9q0 6 -6 7l-3 -2l-4 -8q-31 -63 -50 -211q-14 -112 1 -178q5 -21 -7 -21q-34 0 -94.5 24t-66.5 40q-2 3 0 13q1 7 3 46l2 28v245q0 16 -2 46l-2 33q-1 10 -3 15l-3 9l-2 7q2 5 18 5q52 0 119 -27l20 -8q11 -4 13 -10q2 -5 -3 -9q-1 -20 -1 -31 q0 -7 -2 -30l-4 -69l1 -2q1 -3 3 -4q3 2 2 2l2 7q18 94 38 139q13 30 26 30q30 0 78 -18q54 -20 63 -43q6 -17 7 -35l2 -33l1 -19v-8q1 -4 5 -5q1 1 3 2l1 8q7 56 18 90l16 51q5 15 16 15q37 0 91 -23.5t62 -45.5z" />
<glyph unicode="n" horiz-adv-x="455" d="M378 422q8 -21 11 -115q4 -91 0 -179q-3 -89 3 -119q4 -16 -14 -16q-34 0 -98 23q-59 21 -64 34q-2 5 2 13q9 19 14 129l4 80v60q-1 21 -3 62v11q-1 6 -5 6l-3 -2l-3 -5l-7 -19l-12 -33q-14 -42 -30 -188q-9 -76 -9 -99q0 -27 8 -63l1 -7l-11 -3q-26 0 -83 20 q-62 22 -69 40q-1 4 -1 13l1 19l2 35l1 22l1 279q0 40 -8 70q-3 13 7 13l16 -3l41 -12l56 -19q31 -10 36 -24q2 -4 -2 -14l-1 -17l-4 -91l-2 -21l1 -19l1 -3q0 -1 2 -3q3 2 2 4l2 7l3 26q10 83 27 132.5t39 52.5q8 0 56 -15q77 -24 92 -62z" />
<glyph unicode="o" horiz-adv-x="454" d="M387 370q7 -18 11 -73q3 -53 -1 -99q-7 -78 -31 -132q-36 -77 -100 -77q-69 0 -166 49q-76 38 -96 91q-11 29 -11 74q0 49 12 110q16 85 51 150q6 12 4.5 26t15.5 14q23 0 71 -12q44 -12 70 -23q50 0 106 -32q50 -29 64 -66zM219 428q-28 0 -46 -82q-13 -58 -14 -131 q-3 -130 48 -130q38 0 53 106q10 75 11 119q1 118 -52 118z" />
<glyph unicode="p" horiz-adv-x="459" d="M357 416q18 -47 21 -124q4 -79 -8 -150.5t-20 -92.5q-21 -58 -63 -58q-52 0 -154 61l2 -76q2 -55 10 -100q3 -13 -10 -13q-37 0 -110 29q-61 24 -52 52l6 17q8 26 8 173v337l-4 21q-2 10 8 10q33 0 83 -15q45 -14 70 -31q-7 -34 -8 -84l-1 -32l1 -4q1 -3 4 -3l1 2l3 9 l5 33q10 56 29 101q6 13 25 13q61 0 117 -32q27 -15 37 -43zM217 417l-2 4q-3 3 -7 3q-5 0 -6 -4l-6 -8q-1 -1 -10 -33l-19 -68q-16 -59 -23 -121q-5 -47 -4 -62q3 -43 32 -43q31 0 42 93q12 105 12 162q0 42 -6 65l-4 11z" />
<glyph unicode="q" horiz-adv-x="483" d="M402 438q2 -6 -7 -7q-15 -78 -18 -164l-8 -306q0 -121 13 -154q7 -19 -11 -19q-27 0 -97 27q-74 29 -81 47q-2 5 7 30q4 18 5 37l13 177q-1 3 -4 3l-1 -2l-4 -7q-30 -63 -39 -77q-19 -29 -39 -29q-23 0 -73 23q-75 35 -92 79q-10 26 -10 79q0 172 84 308q4 7 3 14 q5 2 13 5q4 2 16 2q28 0 79 -19q47 -16 75 -34l2 16l-1 8l-2 9q-4 10 14 10q24 0 88 -20q70 -22 75 -36zM191 430q-18 0 -47 -117q-18 -71 -23 -130q-4 -46 -3 -58q2 -43 25 -43q31 0 61 141q19 88 16 157q-1 48 -29 50z" />
<glyph unicode="r" horiz-adv-x="352" d="M351 423q4 -9 0 -14q-3 -5 -13 -4l-29 2q-3 0 -9 -2q-33 -11 -65 -60q-26 -39 -40 -81q-16 -47 -28 -126t-8 -106l5 -28q1 -9 -9 -9q-30 0 -82 21t-75 41q5 6 6 16l2 37l3 46l3 47l4 176q2 69 -12 105q-8 20 10 20q29 0 81 -14q60 -16 70 -33q3 -7 -1 -12l-5 -6l-3 -14 l-3 -25l-2 -30l-3 -40l1 -2l2 -2t2 -1l2 1l2 6l5 21q10 42 29 80l15 28q4 8 4 15v13q0 10 14 10q24 0 71.5 -27.5t55.5 -48.5z" />
<glyph unicode="s" horiz-adv-x="414" d="M366 381q6 -15 7 -84v-11l2 -9q4 -9 -9 -9q-28 0 -98 27q-40 15 -45 27q-1 3 2 12q11 36 0 65q-7 18 -22 18t-25 -38q-14 -51 15 -88q20 -26 75 -57q61 -35 83 -64q19 -24 19 -55q0 -25 -14 -54q-32 -71 -120 -71q-81 0 -191 56q-84 43 -84 69q0 14 28 37q18 15 30 21 t27 6q8 0 13 -9q15 -22 71 -47t84 -25q20 0 20 13q0 19 -52 45q-59 29 -104 67t-57 68q-13 34 -9 87t38 108q4 13 10 18q2 3 7 3q2 1 14 1q63 0 151 -46h-1q47 -6 85.5 -29t49.5 -52z" />
<glyph unicode="t" horiz-adv-x="291" d="M291 419q6 -16 7 -20t2 -17q-30 3 -85 3h-8v-242l3 -66l3 -50l5 -20q5 -16 -13 -16q-27 0 -89 26q-67 27 -74 47q-1 2 1 13q10 32 10 160q0 53 2 74q4 49 3 70h-25l-12 -1l-9 4q-14 11 -39 76q-13 36 4 36l23 -3l63 -3l-2 49l-2 26l1 13l-8 15q-1 3 1 8q8 8 21 8 q23 0 62 -13l54 -18q33 -11 35 -18q1 -1 -6 -32q-8 -34 -8 -36h23l9 1l5 1l5 -2q16 -14 38 -73z" />
<glyph unicode="u" horiz-adv-x="454" d="M403 439q1 -3 -2 -10l-5 -11q-2 -4 -4 -18l-5 -62l-6 -206q-3 -87 8 -126q4 -16 -12 -16q-41 0 -90 21q-45 19 -53 39q-1 4 -1 13l9 124q-1 4 -5 4q-1 0 -3 -2l-2 -7l-4 -23q-9 -49 -39 -107q-26 -52 -44 -52q-15 0 -54 16q-56 23 -71 64q-11 27 -12 111q-2 88 7 165 l7 54q6 52 -0.5 69t-5.5 21q1 6 11 6q23 0 58 -14l61 -24q37 -15 41 -26q2 -3 -2 -11q-15 -28 -22 -173l-4 -85l1 -31l1 -10q0 -5 6 -7q3 2 4 3l3 9q17 43 33 107q18 76 25 139l8 73q2 19 -1 32q-3 12 8 12q24 0 86.5 -22.5t69.5 -38.5z" />
<glyph unicode="v" horiz-adv-x="387" d="M374 437q3 -6 -3.5 -10.5t-15.5 -30.5l-17 -47q-16 -42 -33 -107l-44 -168l-9 -44q-4 -20 -3 -28q4 -11 -8 -11q-37 0 -119 30q-30 11 -49 20q-34 16 -38 26q-1 2 -1 9l1 9l-4 28l-3 39l-24 164l-11 60l-7 57q-3 24 -13 49l-4 11q3 12 26 12q45 0 95.5 -14t55.5 -27 q2 -5 -3 -14q-4 -16 -1 -50l7 -66l5 -59l7 -76l1 -3q0 -1 3 -4q2 3 2 4l7 40l25 124l19 112q1 7 1 18q-4 14 7 14q21 0 81.5 -25.5t66.5 -41.5z" />
<glyph unicode="w" horiz-adv-x="609" d="M583 439q1 -4 -3 -11q-17 -27 -27 -90q-12 -76 -21 -123q-31 -160 -30 -207q1 -13 -10 -13q-37 0 -115 30l-55 21q-27 10 -25 26q1 8 0 13l-26 173q-1 6 -6 6q-2 0 -2 -4l-23 -227q-1 -17 0 -24q3 -16 -10 -16q-38 0 -123 31q-61 22 -67 38q-2 5 -1 18q4 41 -30 203 l-23 111q-16 76 -22 90l-6 14q20 7 27 7q5 0 19 -3l63 -14q67 -15 73 -32q2 -4 0 -11l-5 -12q-2 -5 4 -45l19 -129q0 -5 5 -6l3 4l23 214q2 8 1 11l-2 11q-1 8 14 8q35 0 98 -22q67 -23 71 -36l1 -10q-4 -34 10 -107l6 -31l6 -42q1 -6 5 -6l1 1l2 3l22 176l1 27l-1 22 q-5 16 -4 21q3 5 11 5q25 0 86 -25.5t66 -37.5z" />
<glyph unicode="x" horiz-adv-x="381" d="M367 388q3 -8 -15 -14q-8 -5 -25 -25l-40 -49l-51 -60l32 -68q36 -74 61 -109q19 -28 24 -39q6 -17 -35 -27q-29 -7 -52 -7q-59 0 -70 19l-2 9l-8 22l-10 28l-23 59l-19 -30q-4 -7 -26 -57q-18 -44 -22 -44q-12 -1 -73.5 40.5t-66.5 55.5q-4 9 12 18q12 7 21 17 q4 6 11.5 15.5t19.5 23.5l40 47l36 45l-52 112l-29 55q-7 15 -20 34q-7 8 -12 14q-3 9 16 14l41 10q29 7 71 7q28 0 34 -12l5 -21l10 -28l22 -68l29 46q23 37 21 48l-3 14q1 6 9 6q17 0 74.5 -42t64.5 -59z" />
<glyph unicode="y" horiz-adv-x="450" d="M367 432q3 -7 -5 -27q-12 -32 -13 -213l-1 -219q0 -99 -22 -127q-29 -38 -96 -38q-42 0 -112 23.5t-111 51.5l-45 31l-10 6q-9 8 -9 21q0 18 25 38q33 27 54 27q10 0 14 -5l3 -5q7 -18 54 -43q44 -24 68 -24q20 0 29 17q11 21 12 58l1 32l7 136q-2 4 -5 4q-1 0 -2 -2 l-3 -11l-12 -45l-21 -65q-15 -46 -39 -46q-35 0 -83.5 32t-61.5 65q-18 48 -10 146q0 6 3 96q2 36 4 73q3 55 0 66q-4 22 14 22q25 0 88 -23q67 -25 74 -41q1 -4 -4 -9l-6 -7q-4 -5 -5 -18l-5 -59l-4 -79q-4 -79 -1 -136v-9q0 -5 9 -7l2 1l5 7l5 19l18 60q12 44 22 131 q10 93 4 131l-3 18q-2 14 9 14q21 0 66 -17l46 -18q47 -18 53 -33z" />
<glyph unicode="z" horiz-adv-x="383" d="M338 367q5 -14 -1 -21l-29 -29q-17 -17 -60 -76l-40 -54l-43 -57l113 -2l21 1q21 1 29 5q12 -8 29 -34q6 -10 16 -26q7 -14 11 -24q22 -58 13 -58l-10 1h-23l-58 5q-35 3 -100 3q-81 0 -115 -6l-6 -1q-19 0 -52 55q-25 41 -37 73q-8 21 -12 44l157 210h-50q-4 0 -44 -4 l-20 -2q-14 0 -27 20q-22 34 -26 45q-8 22 -19 62q-2 7 3 7l9 -1h69l76 1l87 2q9 0 14 1q2 0 8 1h7l11 1q19 0 44 -42l35 -59q11 -18 20 -41z" />
<glyph unicode="{" horiz-adv-x="450" d="M416 678l1 -6l2 -7q2 -22 -4 -46q-7 -28 -15 -30l-4 1l-8 4q-20 11 -72 11q-31 0 -32 -21l-6 -195q-1 -36 -66 -44h-4v-2l1 -1l4 -1q45 -3 68 -64q2 -7 5 -21v-30l-6 -207q3 -8 14 -8q16 0 42 20q35 -23 55 -76l4 -12q1 -4 1 -8q-15 0 -45 -6t-46 -6q-41 0 -79 28t-53 66 q-6 16 -5 45l8 207v13q-1 3 -2 8q-7 17 -22 16l-12 -1l-21 -3q-7 0 -11 10l-6 20l-10 25q-13 34 -3 34h4l10 -2q19 0 39 8q25 10 25 26l8 218q2 62 101 62q19 0 108 -14l20 -3q9 0 12 -8z" />
<glyph unicode="|" horiz-adv-x="2355" d="M1799 738l-3 -4l-4 4l4 4zM1804 699l-1 -2h-10l-1 3l3 1q6 0 9 -2zM2352 512l-206 -430h-107l80 156l-45 274h110q7 -106 2 -166h3q10 48 56 166h107zM1746 744h-13l-4 3l5 1q5 0 12 -4zM1701 753l-5 -4l-5 1l4 4h1zM1735 713l-1 -8l-4 4l4 7zM1692 712l-3 3l2 8l1 -4v-7 zM2084 673l-77 -466h-96l10 46h-3q-37 -52 -77 -52q-35 0 -52 40q-13 30 -13 71q0 63 29 128q35 79 89 79q40 0 56 -47h3q5 73 29 201h102zM1600 706q-1 -2 -2 -7l-2 2q1 3 0 6zM1566 702v0h-1l-3 2v-2l-1 2l3 4l2 -6v0zM1426 778l-6 -2l-1 6l-1 1l3 2l5 -4q-2 0 0 -3z M1466 714l-3 -4l-4 1l-1 2l2 1q3 -1 6 0zM1753 392q0 -27 -6 -57h-149q-2 -15 -2 -25q0 -27 18 -27q17 0 24 25h100q-16 -45 -53 -76t-83 -31q-50 0 -77.5 32t-27.5 83q0 73 39 134q44 69 113 69q51 0 79 -39q25 -35 25 -88zM1903 147l-22 -40q-15 12 -31 12q-13 0 -13 -8 q18 -8 37.5 -16.5t19.5 -30.5q0 -29 -24 -46.5t-54 -17.5q-32 0 -58 14l25 44q18 -16 36 -16q16 0 16 9q-1 1 -36 16q-21 9 -21 29q0 28 26 47q23 18 52 18q27 0 47 -14zM1764 158l-26 -156h-56l26 156h56zM1916 691q-7 6 -20 6l-10 5l-17 -2q-7 0 -26 4l-4 7q-29 3 -35 2 l-8 4q-3 0 -12.5 -1t-14.5 -1q-8 0 -20 2l-3 7q-4 0 -14.5 -1t-16.5 -1q-8 0 -16 2l-3 7q-10 -2 -18 -2q-4 0 -11.5 1t-10.5 1l-3 -7l-6 -2l-11 2l-3 7l-12 -2l-5 2l-3 6q-2 -1 -18 -1l-9 1l-3 -6q-10 5 -17 6l-3 7l-11 -3q-7 1 -13 3l-3 -7q-5 2 -10 7h-10l-3 7 q-10 -4 -21 -6q-5 -7 -5 -18l-4 -4q-10 4 -17 11h7l3 7q-5 4 -10 4l-7 -1l-10 -10q0 -5 1 -16l-4 -7v10l-7 3q4 5 8 8q0 8 -17 8q-4 0 -12.5 -1.5t-11.5 -1.5l-3 -6q5 -4 13 -14h-13q0 21 -14 21l-6 -1l-4 -6l-13 13l-7 -3v-4q5 -7 14 -20h-17l-3 7q-5 -1 -14 -1l-6 1l-1 1 q4 3 8 7q-2 4 -17.5 8.5t-22.5 4.5q-4 0 -11 -4l-1 -4q3 -4 8 -13h-14l-3 -7q-5 8 -15 8q-2 0 -15 -1l-8 -10q-6 2 -12 3l-3 7q-10 2 -30 5l-7 -12q-5 2 -13 8l-4 -1l-3 -7q-37 8 -64 8q-8 0 -25 -3.5t-25 -3.5q-6 0 -12 4l-17 -11q-3 0 -10 3t-11 3q-11 0 -33 -6l-3 -7 q-7 0 -21 -3.5t-21 -3.5q-11 0 -18 7l-3 -7q-4 0 -12.5 -3t-13.5 -3q-9 0 -18 6l-13 -14q-3 1 -11.5 4.5t-11.5 3.5q-7 0 -18 -3q-14 -3 -19 -4l-3 -7l-16 -8q-22 3 -42 3q-44 0 -192.5 -66.5t-192.5 -66.5q-65 0 -65 53q0 25 16.5 47t40.5 22q6 2 13 8l4 -2q6 11 21 13 t29 4q165 48 345 79q29 7 85 14h74l3 7v1q9 3 23 1q22 -2 24 -2l3 7h20q13 1 20 1q11 0 20 -1q-5 -2 -7 -8q3 -6 8 -6q13 0 9 14q8 4 37 2q46 -2 40 -2l3 6q9 -4 13 -7l4 1q4 9 11 9q6 0 32 -3q20 -3 33 0q1 -3 5 -7l9 7l3 -6h13l4 -7l6 3v10q7 -6 24 -6l3 6h10l3 -6 q5 0 16.5 1t17.5 1q11 0 20 -2q0 -14 7 -14q3 14 23 14l3 -7h17l3 -7q5 3 16 8l4 -1q1 -6 2.5 -11t12.5 -5q5 0 13.5 1.5t11.5 1.5l4 6l-4 4l-4 1l1 2h10l3 -7q17 1 50 1q2 0 52 -13q-8 1 -28 6l-5 -5q0 -7 27 -7q6 0 18 1t16 1l4 6q26 0 36 -13q8 7 14 7t13 -4h-13l-5 -4 q6 -14 35 -5q6 -1 23 -4q14 -3 23 -3l4 -7q7 2 14 2q4 0 11.5 -1t10.5 -1l4 7l-4 4l-4 1l1 1l27 -10q-7 0 -10 -6q19 -4 56 -10l4 6l-1 2l-13 2l4 3h6l3 -5l1 -2q4 -8 10 -13h23l3 -7q12 3 10 3q18 0 37 -9v-10zM1474 392q0 -27 -7 -57h-148q-2 -15 -2 -25q0 -27 18 -27 q17 0 24 25h100q-16 -45 -53 -76t-83 -31q-51 0 -79 33q-26 30 -26 82q0 72 39 133q44 70 112 70q52 0 80 -39q25 -34 25 -88zM1695 158l-87 -156h-48l-34 156h59q10 -80 9 -94h1q4 26 41 94h59zM1507 94q0 -40 -30 -67t-71 -27q-31 0 -52.5 17.5t-21.5 47.5q0 41 30 68.5 t71 27.5q31 0 52.5 -18t21.5 -49zM1207 411q0 -62 -30 -129q-36 -81 -89 -81q-19 0 -34.5 14t-19.5 34h-3q0 -49 -23 -167h-102l71 430h97l-11 -48h3q28 55 75 55q66 0 66 -108zM1319 53l-9 -51h-104l26 156h57l-18 -105h48zM954 609l-48 -110q-27 32 -57 32q-27 0 -27 -23 q0 -13 27 -24q36 -14 49 -26q27 -24 27 -70q0 -72 -42 -127q-47 -60 -116 -60q-61 0 -108 39l53 123q32 -46 66 -46q32 0 32 34q0 9 -41 21q-61 19 -61 88t44 126q47 61 114 61q52 0 88 -38zM1210 155l-8 -60q-14 16 -31 16q-14 0 -25 -10t-11 -24q0 -27 27 -27q17 0 35 15 l-12 -59q-14 -6 -41 -6q-28 0 -47.5 18.5t-19.5 46.5q0 38 29 67t67 29q19 0 37 -6zM845 158l-7 -44h-48l-2 -16h41l-7 -41h-41l-9 -55h-58l27 156h104zM579 519l-25 -150q-16 16 -28 16q-40 0 -50 -60l-20 -118h-102l51 305h102l-9 -40h2q29 47 79 47zM709 94 q0 -40 -30 -67t-71 -27q-31 0 -52.5 17t-21.5 48q0 41 30 68.5t71 27.5q31 0 52.5 -18t21.5 -49zM362 512l-50 -305h-102l50 305h102zM228 609l-48 -110q-27 32 -57 32q-27 0 -27 -23q0 -14 27 -24q37 -14 49 -26q27 -24 27 -70q0 -72 -42 -127q-47 -60 -116 -60 q-61 0 -108 39l53 123q32 -46 66 -46q32 0 32 34q0 9 -41 21q-62 19 -62 88q0 68 46.5 127.5t112.5 59.5q51 0 88 -38zM1935 372q0 31 -21 31q-16 0 -26 -21q-8 -17 -8 -35q0 -30 20 -30q14 0 25 21q10 18 10 34zM1657 398v17q1 23 -19 23q-23 0 -29 -40h48zM1378 415 q0 23 -19 23q-23 0 -29 -40h47q1 14 1 17zM1449 86q0 24 -24 24q-15 0 -25 -11.5t-10 -26.5q0 -23 24 -23q15 0 25 11t10 26zM1103 372q0 31 -21 31q-16 0 -26 -21q-8 -17 -8 -35q0 -30 20 -30q16 0 25.5 19t9.5 36zM651 86q0 24 -25 24q-15 0 -25 -11.5t-10 -26.5 q0 -23 25 -23q15 0 25 11t10 26z" />
<glyph unicode="}" horiz-adv-x="450" d="M282 608q5 -12 4 -46l-5 -138q0 -6 1 -20q7 -17 23 -16l10 1l16 1l6 1q8 0 12 -13l17 -48q9 -28 1 -28l-4 1l-10 2q-27 0 -52 -14q-11 -7 -12 -30l-11 -284q-2 -54 -100 -54q-40 0 -108 14l-20 4q-7 0 -12 8q-5 14 0 50q5 37 16 39l6 -3q23 -14 80 -14q28 0 29 26l10 254 q1 39 66 47h3l1 2l-2 2h-4q-45 7 -67 65q-7 18 -6 56l6 115q0 9 -3.5 18t-14.5 9q-17 0 -39 -19q-36 22 -56 76l-5 12q0 6 -1 8q16 0 45 6q13 3 23.5 4t23.5 1q41 0 80 -28.5t53 -66.5z" />
<glyph unicode="~" horiz-adv-x="667" d="M576 691q-27 -65 -57 -95q-39 -38 -100 -38q-29 0 -110 36q-50 22 -74 22q-36 0 -71 -62l-71 59q54 135 151 135q30 0 110 -35q59 -26 77 -26q40 0 74 63z" />
<glyph unicode="&#xa1;" horiz-adv-x="286" d="M173 474l-6 -53q-2 -16 0 -34q1 -20 -17 -20q-11 0 -50 15l-41 16q-43 17 -41 38l2 28l3 63q1 15 15 15q9 0 22 -4l25 -8l39 -13l22 -9q29 -12 27 -34zM162 305v-12l-5 -236q-1 -76 3 -120l4 -52l6 -10l2 -4q5 -13 -12 -13q-38 0 -122 32q-79 30 -72 52l5 9l4 14l9 33 l13 81q9 59 16 184l3 52q1 17 0 27q-3 23 7 23q6 0 20 -7l39 -11q72 -20 80 -42z" />
<glyph unicode="&#xa2;" d="M444 457q20 -54 9 -94q-3 -13 -22 -13q-25 0 -73 11q-56 12 -63 26q1 4 1 5t3 10q12 44 3 67q-9 25 -29 25q-16 0 -21 -41l-5 -47l-2 -58l-3 -150l16 -2q16 0 30 13t17.5 29t8 20t19.5 4q25 0 73 -14q53 -17 60 -34q5 -14 -26 -54q-52 -68 -150 -68q-22 0 -50 7l9 -59 l-14 -4q-15 0 -39 9t-36 20l4 57q-82 35 -110 108q-11 28 -11 68q0 35 8 81q18 97 59 157q4 6 9 17l1 13q2 15 22 15q10 0 24 -2l27 -4l-3 46q-1 4 1.5 6t8.5 2l15 -1h9l18 -5l14 -2q13 -2 17 -12l1 -6l-12 -48q9 -3 25 -13h13q35 0 88 -25q40 -19 56 -60z" />
<glyph unicode="&#xa3;" d="M531 509q14 -37 17 -77t-8 -40q-39 0 -100 21q-78 27 -67 45l5 11q5 11 4 36q-1 28 -6 42q-10 27 -32 27q-37 0 -39 -126l-1 -43h23q24 0 35 -14q31 -36 55 -99q11 -30 1 -31l-11 3q-1 0 -3 1h-3q-6 0 -10 1l-50 2h-45l-2 -11q-7 -43 -15 -62q-12 -25 -41 -48l163 -1 q4 0 8 1h6l19 3q15 0 42.5 -38.5t43.5 -80.5q5 -14 5 -23q0 -14 -14 -14h-12q-3 0 -15 1t-21 1l-104 2l-165 -2l-15 -2q-17 0 -41 31q-39 50 -57 97q-3 10 -7 23q0 5 8 9q14 6 24 38q3 9 18 77l2 10l-50 -2q-27 21 -48 75q-12 33 -12 48q0 14 10 14q8 0 18 -3l18 -2h62 q2 17 2 83q1 124 36 175l-1 11q18 7 27 7q49 0 129 -35l53 -23l39 -13q94 -31 122 -105z" />
<glyph unicode="&#xa4;" d="M490 516q3 -8 -6 -17q-2 -4 -8 -11l-8 -12l-7 -12q30 -18 39 -44q17 -50 6 -120q-13 -79 -49 -125l8 -8l36 -38q18 -16 43 -46q5 -12 -39 -27q-39 -14 -56 -14q-14 0 -27 18q-8 9 -31 36l-25 29l-22 -1q-40 -2 -132 20l-9 -18l-8 -15l-20 -39l-10 -24q-9 -18 -18 -18 q-19 0 -55 37l-33 34q-12 13 -16 24q-3 8 7 20q16 19 25 37l5 9q-64 35 -64 109q0 24 9 61q15 64 56 129q-33 31 -76 80q-1 3 -1 6q0 15 33 26q37 12 57 12t32 -21q6 -10 8 -12l42 -46l11 -2q35 -6 103 -20l35 -3l23 41l16 36q13 28 19 28q12 0 57 -42.5t50 -56.5zM360 440 q-14 39 -70 39q-45 0 -84 -89q-18 -41 -26 -85q-7 -41 1 -64q13 -39 64 -39q41 0 67 36q16 22 32 72q12 34 16 74q1 13 3 34q-1 9 -3 22z" />
<glyph unicode="&#xa5;" d="M527 579q2 -5 -10 -16q-3 -3 -11 -22l-27 -72l-5 -15l-3 -8h13q7 0 17 1h13l8 1q26 0 44.5 -50.5t2.5 -53.5l-8 2q-8 3 -53 7t-65 4l-20 -71h26q15 0 28 2h9q27 0 46 -54q9 -25 9 -38q0 -11 -8 -12l-8 2q-26 11 -124 11l-10 -39q-27 -111 -24 -131l4 -18q2 -13 -16 -13 q-31 0 -104 31q-78 32 -86 55q-1 5 8 19q21 32 35 80l5 17h-7l-50 -2q-15 -1 -23 -2h-7q-21 0 -37 47q-7 21 -4 38q2 16 14 16l9 -1l16 -2l38 -2l29 -1l-32 69h-11l-49 -3h-13q-8 0 -10 -1h-7q-21 0 -37 47q-8 21 -4 38q3 17 14 17l9 -2l15 -2l52 -3l-47 102q-31 67 -40 79 q-2 3 -9 14q-5 14 46 21q35 5 63 5q54 0 71 -5t21 -15v-4l-2 -12q-1 -9 6 -29l58 -159l31 138l6 41q4 19 4 26q-1 19 11 19q21 0 62 -19q6 -2 12 -5l67 -32q45 -21 49 -35z" />
<glyph unicode="&#xa6;" horiz-adv-x="500" d="M323 316h-146v351h146v-351zM323 -167h-146v320h146v-320z" />
<glyph unicode="&#xa7;" horiz-adv-x="576" d="M470 558q6 -16 6 -38l-2 -34q-1 -30 4 -58q4 -22 -17 -22q-39 0 -92 24q-56 25 -67 47q-3 8 3 13l4 7q7 7 10 26q3 17 0 26q-8 21 -29 21q-14 0 -23 -24l-11 -28q-7 -19 -6 -30q1 -12 11 -22q10 -15 49 -42q16 -11 54 -37q57 -40 80 -60q46 -41 60 -78q8 -20 8 -40 q0 -70 -72 -125q12 -13 30 -37q23 -29 23 -66q0 -34 -19 -73q-44 -87 -139 -87q-58 0 -139 28q-70 24 -129 58q-34 20 -58 30q-24 7 -24 25q0 22 24 63q30 51 53 51q19 0 20 -21l13 -9q115 -77 192 -77q12 0 19 8t3 20t-13 19q-13 11 -63 47l-54 39q-76 55 -102 81 q-13 13 -21 27q-26 38 -26 83q0 66 71 127q-11 11 -25 29q-9 12 -13 23q-9 22 4 73q15 57 36 95q8 14 9 30q1 30 31 30q22 0 50 -11l46 -18q32 -12 51 -27q46 0 102 -23q64 -26 78 -63zM373 204q-8 22 -69 65l-103 72q-26 -15 -26 -36q0 -22 34 -48l20 -15l114 -82 q40 18 30 44z" />
<glyph unicode="&#xa8;" horiz-adv-x="500" d="M545 616l-5 -28l2 -24q1 -19 -12 -31q-33 0 -74 16q-46 18 -63 42l3 6l3 36l5 27q4 24 22 24q6 0 26 -6l25 -7l43 -16q17 -8 21 -18t4 -21zM349 630q1 -2 0 -11l-5 -55q-1 -9 -6 -12l-7 -3l-14 -8l-11 3l-34 10l-34 16q-31 14 -45 31l2 13l3 27q5 51 30 51q13 0 33 -7 l20 -7q29 -10 42 -22l12 -11l10 -9q3 -2 4 -6z" />
<glyph unicode="&#xa9;" horiz-adv-x="771" d="M744 284q0 -24 -2 -49q-23 -245 -303 -245q-50 0 -112 11q-94 17 -162 77t-99 151q-27 79 -27 154q0 37 6 72q41 222 297 222q48 0 112 -11q94 -16 163 -77q127 -111 127 -305zM360 595q-97 0 -150 -37q-58 -41 -75 -133q-4 -27 -4 -55q0 -59 21 -122q61 -176 275 -176 q150 0 201 96q21 40 23 115q4 142 -70 225q-77 87 -221 87zM527 401l-1 -12l4 -5q-17 -10 -48 -10q-63 0 -70 21q-2 4 0 7l2 4q12 31 3 59q-2 6 -8 8q-5 0 -8 -10l-5 -19q-17 -59 -24 -120q-11 -106 22 -106q15 0 29 26q12 23 12 40q0 14 6 19.5t24 5.5q17 0 40 -5 q31 -6 34 -15q6 -18 -16 -70q-34 -82 -94 -82q-18 0 -31 4q-9 1 -41 13q-87 32 -104 82q-12 33 -2 109q10 74 35 138l10 26v9q1 10 29 10t57 -7l30 -7l31 -5q65 -11 75.5 -41.5t8.5 -66.5z" />
<glyph unicode="&#xaa;" horiz-adv-x="352" d="M380 631q1 -3 -2 -6l-2 -3q-2 -5 -4 -21l-2 -49l-5 -166l3 -11q4 -13 -16 -13q-17 0 -49 10q-36 12 -40 24q-1 3 1 21l4 26l-4 -7q-12 -23 -33 -54q-12 -13 -27 -13q-24 0 -56 20t-39 42q-12 34 3 102q14 59 35 99q16 29 18 43l11 1q14 1 33 -7t37 -21q5 0 16 -2l16 -3 l-1 10l-5 6q-3 8 10 8q18 0 54 -12q40 -12 44 -24zM273 604q-2 13 -15 13q-15 0 -38 -78q-9 -35 -14 -66q-7 -48 11 -48q16 0 38 79q23 76 18 100zM390 284q7 -19 -3 -19l-6 1q-10 3 -20 3h-16l-22 1h-168l-16 -2l-13 -2q-23 0 -39 49q-4 11 4 11l9 -1q56 -6 61 -6h123 q53 0 76 6l7 -7q19 -21 23 -34z" />
<glyph unicode="&#xab;" horiz-adv-x="438" d="M314 339q14 -40 12 -70l-33 -12q-25 -9 -22 -17q4 -12 21 -22l19 -14l15 -15l17 -13q16 -12 20 -22v-8l4 -30q5 -45 -6 -45q-3 0 -9 5l-14 11l-23 17q-28 18 -67 47l-27 25l-19 15q-10 7 -14 19q-8 25 -10 82q0 24 2 31q5 12 24 15l34 5l30 6q10 4 30 10q9 0 16 -20z M125 355q16 -49 18 -79l-37 -12q-21 -7 -18 -16q4 -12 43.5 -40.5t45.5 -42.5q9 -25 9 -56q1 -29 -11 -29q-3 0 -6 4l-8 9q-3 3 -16 11q-49 29 -68 46l-29 25l-16 13q-21 14 -27 32q-16 47 -12 91q1 21 7 28.5t19 9.5l33 5l31 6q10 3 31 9q6 0 11 -14z" />
<glyph unicode="&#xac;" horiz-adv-x="500" d="M516 0h-141l-56 162h-292l-44 128h433z" />
<glyph unicode="&#xad;" horiz-adv-x="308" d="M251 314q9 -25 11 -45l3 -34q2 -30 -12 -31l-10 2q-5 1 -42 2l-103 3l-26 -1q-14 -1 -50 -3l-14 -1q-24 -2 -33 24q-8 20 -9 39l-2 35q-2 29 16 29q7 0 11 -1l14 -4h124q66 0 92 3l9 1q14 0 21 -18z" />
<glyph unicode="&#xae;" horiz-adv-x="771" d="M744 284q0 -24 -2 -49q-23 -245 -303 -245q-50 0 -112 11q-94 17 -162 77t-99 151q-27 79 -27 154q0 37 6 72q41 222 297 222q48 0 112 -11q94 -16 163 -77q127 -111 127 -305zM360 595q-97 0 -150 -37q-58 -41 -75 -133q-4 -27 -4 -55q0 -59 21 -122q61 -176 275 -176 q150 0 201 96q21 40 23 115q4 142 -70 225q-77 87 -221 87zM558 376q0 -44 -76 -77q41 -69 78 -97q12 -10 13 -14q4 -12 -30 -29.5t-49 -17.5q-13 0 -20 12l-3 7l-7 8q-25 31 -78 104h-4l-1 -79l1 -14l1 -13l3 -11q2 -5 0 -9q-2 -5 -9 -5q-11 0 -33 7l-38 12q-38 12 -44 27 l2 27l3 42l6 177q-46 48 -54 78l-3 12l23 1l42 7q24 4 73 4q79 0 122 -36q24 -20 48 -51q34 -44 34 -72zM444 422q-5 14 -30 14h-14q-12 -2 -13 -2l-1 -60q26 8 43.5 22.5t14.5 25.5z" />
<glyph unicode="&#xaf;" horiz-adv-x="1000" />
<glyph unicode="&#xb0;" horiz-adv-x="400" d="M362 475q0 -45 -29 -70t-75 -25q-65 0 -125 46t-83 108q-11 29 -11 54q0 29 14 53q27 45 90 45q62 0 123 -44q27 -20 50 -48q46 -57 46 -119zM293 532q-15 40 -52 68.5t-78 28.5q-29 0 -46.5 -17t-17.5 -44q0 -17 8 -37q14 -36 53 -65t73 -29q41 0 59 28q9 14 9 32 q0 16 -8 35z" />
<glyph unicode="&#xb1;" horiz-adv-x="549" d="M539 362h-237v-233h-55v233h-237v55h237v245h55v-245h237v-55zM535 0h-524v55h524v-55z" />
<glyph unicode="&#xb2;" horiz-adv-x="367" d="M391 508q0 -68 -154 -141h25q55 0 70 5l7 1q11 0 34 -33q18 -27 25 -44l8 -21q4 -12 -6 -12l-7 2q-21 3 -33 3l-137 -1h-11q-6 -1 -7 -1l-9 -1q-15 0 -44 41.5t-47 88.5q-5 13 6 18l10 4l23 15q37 24 78 59q61 51 54 69q-3 7 -17 7t-35.5 -9.5t-27.5 -21.5q-6 -7 -9 -7 q-8 -2 -44 34q-33 33 -41 47l-8 13l-3 6q-4 10 13 14l11 3l25 12q26 13 64 13q63 0 121 -53q66 -62 66 -110z" />
<glyph unicode="&#xb3;" horiz-adv-x="367" d="M361 509q0 -39 -44 -46q21 -3 46 -29q24 -29 36 -61q8 -19 8 -35q0 -72 -112 -72q-47 0 -130 18l-23 5q-11 2 -15 12q-11 29 -4 63q8 40 18 40q1 0 7 -4q18 -13 64 -18q9 -1 26 -1q67 0 60 20q-7 18 -41 18q-32 0 -37 -2l-12 -1q-6 0 -18.5 17t-20.5 39q-18 48 -10 48 l4 -1l6 -2l6 -1q19 0 53 11q42 14 36 28q-3 8 -17 8q-30 0 -75 -25q-20 12 -43 42t-33 54l-4 17l5 -1q1 0 17 2q61 15 88 15q62 0 118 -74q41 -54 41 -84z" />
<glyph unicode="&#xb4;" horiz-adv-x="500" d="M474 668q2 -7 -10 -30l-13 -25l-29 -30q-5 -7 -18.5 -29.5t-42.5 -22.5q-21 0 -39 6q-28 9 -21 26l40 109q4 10 13 10l18 -2l33 2q61 4 69 -14z" />
<glyph unicode="&#xb6;" horiz-adv-x="600" d="M606 605q2 -5 1 -33q-1 -21 -8 -44q-13 -43 -28 -43q-6 0 -12 3l-15 7q-7 4 -24 5l-5 -34l-6 -49l-39 -459q-1 -16 2 -24q3 -11 -6 -11q-22 0 -63 20t-55 38q12 18 16 70l39 491l-49 4q-9 -63 -15 -129l-39 -459q-1 -16 2 -24q3 -11 -6 -11q-22 0 -63 20t-55 38 q12 18 16 70l19 240q-61 0 -123 77q-65 80 -65 147q0 58 55 97q87 61 248 61q60 0 148 -16q114 -21 130 -52z" />
<glyph unicode="&#xb7;" horiz-adv-x="190" d="M150 307q2 -7 2 -15l-5 -86q0 -13 -8 -13l-10 2l-18 6q-89 30 -95 47q-1 3 -1 9l3 19l2 19l2 48q-1 12 7 12q-1 0 18 -4l34 -10l32 -11q33 -11 37 -23z" />
<glyph unicode="&#xb8;" horiz-adv-x="500" d="M228 -74q7 -21 -15 -66l-10 -19l-8 -22q-11 -28 -40 -28q-11 0 -18 3l-23 10l-20 5l-8 6q-5 4 -12 10q-2 4 9 24q20 35 20 81q0 13 -2 27q13 10 27 10q16 0 33 -6q14 -4 37 -17q24 0 30 -18z" />
<glyph unicode="&#xb9;" horiz-adv-x="367" d="M294 639q2 -6 0 -16v-7q-1 -2 0 -10l4 -100q7 -180 27 -232l2 -6q2 -4 -1 -7l-10 -2q-27 0 -67 15.5t-44 25.5q-2 4 -1 6l1 6v21l-1 27l-2 30l-22 266q-6 16 9 16h12q-4 0 16 -4l30 -6q42 -8 47 -23z" />
<glyph unicode="&#xba;" horiz-adv-x="333" d="M355 596q13 -37 4 -102q-17 -126 -90 -126q-40 0 -99 29q-46 23 -57 55q-13 37 1 102q13 60 36 97q4 7 3 16.5t12 9.5q36 0 86 -21q18 0 34.5 -5.5t31.5 -14.5q30 -18 38 -40zM252 627q-22 0 -33.5 -74.5t-1.5 -104.5q6 -18 21 -18q20 0 31 60q8 42 9 70q2 64 -26 67z M381 284q7 -19 -3 -19l-5 1q-10 3 -20 3h-15l-23 1h-169l-16 -2l-12 -2q-9 0 -21 13.5t-19 35.5q-4 11 4 11l10 -1q62 -6 60 -6h123q53 0 76 6l7 -7q19 -21 23 -34z" />
<glyph unicode="&#xbb;" horiz-adv-x="436" d="M389 271q3 -24 1 -44q-3 -24 -6 -29q-9 -8 -21 -10h-6q-5 -1 -9 -1.5t-17 -3.5l-32 -6q-15 -3 -19 -6l-11 -3q-7 0 -12 14q-14 42 -18 78l38 13q21 7 17 16q-3 11 -42.5 40.5t-45.5 42.5l-1 6l-5 20q-6 25 -3 41q3 18 10 18q4 0 7 -4l8 -9q3 -3 16 -11q52 -32 68 -46 l28 -25q10 -8 17 -13q30 -20 38 -78zM200 295q1 -2 4 -50q1 -26 -4 -34.5t-23 -11.5l-33 -5l-29 -6q-12 -1 -20 -6q-3 -2 -10 -4q-10 0 -17 20q-14 40 -12 70l34 11q24 8 21 17q-4 11 -20 23l-19 14l-15 14l-17 14q-17 13 -20 22l-2 8l-2 30l-2 25q-1 19 8 19q4 0 9 -4 l13 -12l24 -16q28 -18 67 -47l27 -25l18 -15q16 -13 20 -51z" />
<glyph unicode="&#xbc;" horiz-adv-x="867" d="M782 347q2 -4 1 -14q-3 -9 -1 -49l5 -74h4q9 0 29 -37q15 -28 22 -47q4 -11 -3 -11l-4 1l-12 1h-28l4 -56l6 -45l8 -15q1 -3 -2 -5l-9 -2q-24 0 -62 13q-44 14 -50 31q-3 6 0 18q5 25 3 41l-2 16l-27 -1l-18 -2l-12 -1l-7 -1q-13 0 -46.5 35.5t-39.5 51.5q-3 7 9 25l7 18 l10 21l24 58l13 35l17 52q30 0 88 -17q66 -20 73 -40zM679 293l-3 2l-3 -5q0 -18 -24 -82h35zM576 641q0 -1 -1 -1q0 -5 -1 -7q-6 -8 -23 -61l-14 -44l-85 -324q-38 -145 -34 -182l1 -15q2 -13 -11 -13q-41 0 -96 47q27 55 63 195l43 162l40 174q17 73 14 89q-7 20 8 20 q18 0 54.5 -13.5t41.5 -26.5zM246 639q2 -6 0 -16q-1 -1 -1 -7v-10l4 -100q7 -180 27 -232l2 -6q2 -4 -1 -7l-9 -2q-27 0 -67.5 15.5t-44.5 25.5q-1 4 0 6l1 6v21l-2 27l-2 30l-22 266q-6 16 9 16h12q-4 0 17 -4l30 -6q41 -8 47 -23z" />
<glyph unicode="&#xbd;" horiz-adv-x="867" d="M834 242q0 -68 -154 -141h25q44 0 70 4l7 1q8 0 29.5 -28.5t29.5 -48.5l8 -21q4 -11 -6 -11l-7 1q-6 2 -13 2q-13 2 -20 1h-78l-59 -1q-8 0 -18 -1l-9 -1q-19 0 -53 56q-27 44 -39 74q-4 12 20 27q19 10 37 21q125 88 114 116q-3 8 -16 8q-41 0 -64 -30q-3 -6 -7 -8 q-10 0 -44.5 34t-42.5 48l-8 12l-4 7q-3 8 15 13q4 1 10 4q57 24 90 24q62 0 120 -53q67 -61 67 -109zM576 641q0 -1 -1 -1q0 -5 -1 -7q-6 -8 -23 -61l-14 -44l-85 -324q-38 -145 -34 -182l1 -15q2 -13 -11 -13q-41 0 -96 47q27 55 63 195l43 162l40 174q17 73 14 89 q-7 20 8 20q18 0 54.5 -13.5t41.5 -26.5zM246 639q2 -6 0 -16q-1 -1 -1 -7v-10l4 -100q7 -180 27 -232l2 -6q2 -4 -1 -7l-9 -2q-27 0 -67.5 15.5t-44.5 25.5q-1 4 0 6l1 6v21l-2 27l-2 30l-22 266q-6 16 9 16h12q-4 0 17 -4l30 -6q41 -8 47 -23z" />
<glyph unicode="&#xbe;" horiz-adv-x="867" d="M781 347q2 -4 1 -14q-3 -9 -1 -49l5 -74h4q9 0 29 -37q17 -29 23 -47q4 -11 -3 -11l-4 1l-12 1h-29l4 -56l6 -45l8 -15q1 -4 -2 -5l-8 -2q-23 0 -62 13q-45 14 -51 31q2 22 3 59l-2 16l-27 -1l-18 -2l-12 -1l-7 -1q-13 0 -46.5 35.5t-39.5 51.5q-2 6 3 14.5t6 10.5l8 18 l9 21l24 58l13 35q11 31 14 44l3 8q30 0 88 -17q66 -20 73 -40zM679 290l-1 3q-1 1 -3 2q-2 -4 -2 -5q0 -20 -25 -82h35zM575 641q0 -1 -1 -1q0 -5 -1 -7q-9 -14 -23 -61l-13 -44l-85 -324q-39 -148 -35 -182l1 -15q2 -13 -11 -13q-41 0 -96 47q26 54 63 195l43 162l40 174 q17 73 14 89q-7 20 8 20q18 0 54.5 -13.5t41.5 -26.5zM312 509q0 -39 -44 -46q21 -3 46 -29q24 -29 37 -61q7 -19 7 -35q0 -72 -112 -72q-47 0 -130 18l-23 5q-11 2 -15 12q-11 29 -4 63q8 40 18 40q1 0 7 -4q18 -13 64 -18q10 -1 27 -1q67 0 59 20q-7 18 -41 18 q-32 0 -37 -2l-12 -1q-6 0 -18.5 17t-20.5 39q-18 48 -10 48l4 -1l6 -2l6 -1q19 0 54 11q41 14 36 28q-4 8 -18 8q-30 0 -75 -25q-20 12 -43 42t-32 54l-5 17l5 -1q1 0 17 2q62 15 88 15q62 0 118 -74q41 -54 41 -84z" />
<glyph unicode="&#xbf;" horiz-adv-x="516" d="M327 488q2 -6 -1 -22l-1 -19v-32l1 -15q2 -23 -9 -24l-7 1l-28 6q-9 2 -34.5 10t-39.5 14q-29 13 -32 21l-1 8l3 93q0 10 13 10q26 0 95 -24q36 -13 41 -27zM463 -49q2 -7 -7 -13l-10 -6q-24 -15 -87 -46q-58 -23 -92 -23q-79 0 -199.5 105t-120.5 168q0 61 111 130 q100 62 103 104q1 17 10 17q18 0 76 -38.5t64 -54.5q2 -5 -3 -15l-16 -39q-23 -52 -87 -108l-30 -26q-36 -31 -36 -53q0 -15 20 -28q12 -8 26 -8q36 0 69 23q30 21 48 54q49 -17 113 -83q42 -43 48 -60z" />
<glyph unicode="&#xc0;" horiz-adv-x="544" d="M429 709q8 -21 -39 -21q-13 0 -35 5l-11 10l-42 40l-44 43l-20 18q-19 17 -21 22q-4 13 32 14l32 1l28 -1l10 1l6 1q6 0 16 -13zM519 564q1 -3 0 -7l-5 -13q-10 -30 -6 -158l5 -179q3 -86 12 -143q3 -22 3 -39l1 -9l9 -21q3 -7 -9 -9q-34 0 -97.5 24.5t-102.5 55.5l4 122 l-104 -2l-25 -116q-3 -18 -5 -41q-2 -14 0 -37q-51 9 -129 72q-43 35 -49 51q-3 7 2 13l10 15q12 17 20 44l142 450q5 21 4 24l-3 11q-4 13 11 13q37 0 158 -48l84 -33q66 -26 70 -40zM340 558l-82 -247h75z" />
<glyph unicode="&#xc1;" horiz-adv-x="544" d="M467 839q2 -7 -10 -30l-14 -25l-28 -31q-7 -8 -19 -29.5t-41 -21.5q-21 0 -40 6q-28 9 -21 26l41 109q4 10 13 10l17 -2l33 2q60 4 69 -14zM521 564q1 -3 0 -7l-5 -13q-10 -30 -6 -158l5 -179q3 -86 11 -143q4 -22 4 -39l1 -9l9 -21q2 -7 -9 -9q-34 0 -97.5 24.5 t-102.5 55.5l4 122l-105 -2l-24 -116q-3 -18 -6 -41q-1 -14 1 -37q-51 9 -130 72q-43 35 -48 51q-3 7 2 13l10 15q11 17 20 44l142 450q5 21 4 24l-3 11q-4 13 11 13q37 0 158 -48l83 -33q66 -26 71 -40zM342 558l-82 -247h75z" />
<glyph unicode="&#xc2;" horiz-adv-x="544" d="M501 719q4 -11 -24 -11q-39 0 -60 6l-26 60q-5 12 -12 12q-3 0 -7 -7l-34 -58q-5 -9 -33 -9q-65 0 -70 15l5 17l5 15q4 12 9 19q0 1 9 21l17 34l9 17q8 15 60 15q38 0 75 -6q15 -3 24 -24l17 -40l21 -48q5 -14 8 -18zM523 564q1 -3 0 -7l-5 -13q-10 -30 -6 -158l5 -179 q3 -86 11 -143q4 -22 4 -39l1 -9l9 -21q3 -7 -9 -9q-34 0 -97.5 24.5t-102.5 55.5l4 122l-105 -2l-24 -116q-3 -18 -5 -41q-2 -14 0 -37q-51 9 -130 72q-42 35 -48 51q-3 7 2 13l10 15q11 17 20 44l142 450q5 21 4 24l-3 11q-4 13 11 13q37 0 158 -48l84 -33q66 -26 70 -40z M344 558l-82 -247h75z" />
<glyph unicode="&#xc3;" horiz-adv-x="544" d="M517 813q2 -3 0 -9q1 -3 -2 -15l-8 -31q-12 -53 -56 -53q-34 0 -72 23l-37 22q-15 9 -30 9q-22 0 -20 -28q0 -14 -15 -14q-11 0 -25 2q-8 2 -27 8q-25 10 -29 21q-2 6 0 17l6 29q14 70 69 70q33 0 80 -30q39 -25 55 -25q19 0 21 21q1 15 8 15q3 0 10 -2q17 -5 19 -5h14 l8 -4l8 -1l10 -7q10 -7 13 -13zM523 564q1 -3 0 -7l-5 -13q-11 -30 -7 -158l6 -179q3 -86 11 -143q4 -22 4 -39l1 -9l9 -21q2 -7 -9 -9q-35 0 -98 24.5t-102 55.5l4 122l-105 -2l-24 -116q-3 -18 -6 -41q-1 -14 1 -37q-52 9 -130 72q-43 35 -48 51q-3 7 2 13l10 15 q11 17 20 44l142 450q5 21 4 24l-3 11q-5 13 10 13q38 0 159 -48l83 -33q66 -26 71 -40zM344 558l-82 -247h75z" />
<glyph unicode="&#xc4;" horiz-adv-x="544" d="M505 792q1 -3 1 -9l-3 -29l2 -21q1 -17 -8 -31q-5 6 -8 6l-6 -2h-6q-31 0 -66 13q-39 15 -55 38l2 7l1 36l5 27q4 24 21 24q5 0 26 -6l25 -7l44 -16q28 -10 25 -30zM303 794q1 -3 0 -12l-3 -54q-1 -10 -6 -13l-7 -3l-13 -8l-12 4l-33 9l-35 16q-29 13 -46 31l2 14l1 27 q4 51 28 51q15 0 34 -7l21 -8q32 -12 42 -21l12 -11l10 -9zM517 564q1 -3 -1 -7l-4 -13q-9 -30 -1 -158l12 -179q6 -86 16 -143q4 -22 5 -39l2 -9l10 -21q2 -7 -9 -9q-35 0 -99 24.5t-104 55.5l-1 122l-104 -2l-20 -116q-3 -18 -4 -41q-1 -14 2 -37q-52 9 -133 72 q-44 35 -50 51q-3 7 2 13l9 15q11 17 19 44l126 450q4 21 3 24l-3 11q-5 13 10 13q37 0 160 -48l85 -33q67 -26 72 -40zM338 558l-73 -247h75z" />
<glyph unicode="&#xc5;" horiz-adv-x="544" d="M456 760q0 -22 -11 -40q-21 -34 -67 -34q-48 0 -88 29t-57 74q-8 19 -8 36q0 33 24 53.5t59 20.5q41 0 83 -30q65 -46 65 -109zM381 795q-5 15 -21.5 26t-32.5 11q-17 0 -25 -11t-2 -27q13 -38 54 -38q17 0 25 11.5t2 27.5zM525 564q1 -3 0 -7l-4 -13q-10 -30 -2 -158 l12 -179q6 -86 17 -143q4 -22 4 -39l2 -9l10 -21q2 -7 -9 -9q-35 0 -98.5 24.5t-104.5 55.5v122l-105 -2l-20 -116q-3 -18 -4 -41q-1 -14 2 -37q-52 9 -132 72q-45 35 -51 51q-3 7 2 13l10 15q10 17 18 44l126 450q4 21 3 24l-3 11q-5 13 10 13q37 0 160 -48l85 -33 q67 -26 72 -40zM346 558l-73 -247h75z" />
<glyph unicode="&#xc6;" horiz-adv-x="682" d="M600 548q8 -22 -4 -23l-4 1l-8 3l-136 -4l18 -140h90l7 1l4 1q14 0 35 -37q34 -57 45 -89q5 -14 -9 -14q-7 0 -11 1q1 0 -8 1q-36 4 -97 4q-15 0 -36 -3l16 -114h115l9 -2q15 -9 41 -54q23 -39 31 -63q8 -23 -4 -23h-10q-4 0 -18 3q-27 3 -36 3l-77 -2h-83l-49 -2 q-9 1 -47 41.5t-42 51.5q-1 4 0 13q1 5 1 14q-3 25 -12 75l-106 -3l-16 -107q-8 -51 -4 -73q2 -13 -6 -13q-27 0 -112 54q-50 32 -57 52q-1 3 11 47l12 46l92 375q9 39 13 72q2 19 7 24q2 4 17 4h305q19 0 27 2l16 2q13 0 38.5 -39t41.5 -86zM286 553l-45 -237l70 -2z" />
<glyph unicode="&#xc7;" horiz-adv-x="561" d="M493 533q8 -21 8 -69q0 -8 -2 -21l-6 -37l-1 -13q-1 -11 -45 -11q-38 0 -87.5 16t-55.5 31q-1 3 3 12q12 29 18 63q6 36 0 51q-4 11 -17 14q-22 3 -66 -140q-50 -161 -50 -232q0 -42 22 -59q14 -10 26 -10q28 0 53 37q3 3 26 62q18 42 34 42q28 0 79 -14q59 -16 68 -33 q1 -3 1 -7q0 -18 -22 -67q-27 -61 -71 -103q-54 -51 -111 -51q-68 0 -184 69q-92 55 -114 113q-12 31 -12 74q0 106 72 280q28 69 42 89.5t16 26.5l4 18q3 11 22 11q45 0 106 -22l73 -26l51 -15q101 -30 120 -79zM239 -62q1 -2 0 -12l-4 -31l-13 -31l-7 -22q-13 -38 -41 -38 q-13 0 -31 8l-17 6l-15 4l-6 5l-5 3q-2 2 -6 7q-2 5 4 19q18 35 18 73q0 19 -4 40q14 10 31 10q16 0 28 -5l48 -20q16 -5 20 -16z" />
<glyph unicode="&#xc8;" horiz-adv-x="461" d="M289 729q7 -21 -40 -21q-13 0 -35 5l-9 10l-44 40l-44 43l-21 18q-17 14 -19 22q-5 13 32 14l31 1l28 -1l10 1l5 1q9 0 19 -13l80 -110q5 -6 7 -10zM461 528q5 -14 -2 -15l-11 3q-5 2 -15 3h-126l-18 -128l89 -5l7 1l4 -2q15 -8 37 -49q19 -35 27 -59l4 -11l3 -16l-5 -1 l-9 1q-14 4 -54 4h-64l-54 -1l-12 -110l131 -5q21 -19 45.5 -57.5t33.5 -66.5q8 -23 -9 -23l-18 3q-20 3 -119 5l-60 1l-61 -2l-27 -2q-22 -2 -74 70q-34 47 -39 61q-2 6 1 17q1 2 8 40l6 32l4 23l35 284q-54 81 -54 134q0 9 5 9l8 -2l8 -2h296q18 -17 44 -61.5t35 -72.5z " />
<glyph unicode="&#xc9;" horiz-adv-x="461" d="M329 846q3 -7 -8 -30l-13 -25l-27 -31q-10 -17 -21 -34t-38 -17q-53 0 -61 23q-2 5 -1 9l37 109q3 10 13 9l18 -1l32 1q62 2 69 -13zM457 528q5 -14 -1 -15l-12 3q-5 2 -15 3h-126l-13 -128l89 -5l6 1l5 -2q15 -8 39 -49q20 -35 29 -59l4 -11l3 -16l-4 -1l-10 1 q-13 4 -53 4h-64l-55 -1l-8 -110l132 -5q21 -19 46.5 -57.5t36.5 -66.5q9 -23 -8 -23l-19 3q-20 3 -118 5l-61 1l-61 -2l-26 -2q-22 -2 -77 70q-36 47 -41 61q-2 6 1 17q1 2 6 40l5 32l3 23l25 284q-19 27 -37 65q-22 46 -22 70q0 8 5 8l8 -2l8 -2h296q19 -17 46 -61.5 t38 -72.5z" />
<glyph unicode="&#xca;" horiz-adv-x="461" d="M367 719q4 -11 -24 -11q-37 0 -60 6l-26 60q-5 12 -11 12q-4 0 -8 -7l-17 -31l-11 -16l-5 -11q-4 -9 -34 -9q-64 0 -69 15q-1 2 4 17l5 15q2 7 8 19q1 3 10 21l18 34l8 17q7 15 60 15q40 0 75 -6q16 -3 25 -24l37 -88q3 -7 8 -18zM462 528q4 -14 -2 -15l-11 3q-6 2 -15 3 h-126l-18 -128l88 -5l7 1l5 -2q14 -8 37 -49q19 -35 27 -59l4 -11l2 -16l-4 -1l-10 1q-13 4 -53 4h-64l-55 -1l-12 -110l132 -5q20 -19 44.5 -57.5t34.5 -66.5q7 -23 -10 -23l-18 3q-20 3 -118 5l-61 1l-61 -2l-26 -2q-22 -2 -74 70q-34 47 -39 61q-2 6 1 17q1 2 8 40l6 32 l3 23l35 284q-54 81 -54 134q0 9 5 9l9 -2l7 -2h296q19 -17 44.5 -61.5t35.5 -72.5z" />
<glyph unicode="&#xcb;" horiz-adv-x="461" d="M411 792q1 -3 0 -9l-4 -29l1 -21q1 -17 -8 -31q-5 6 -8 6l-6 -2h-5q-32 0 -66 13q-39 15 -55 38l3 7l3 36l4 27q3 24 23 24q5 0 26 -6l24 -7l44 -16q27 -10 24 -30zM215 794q1 -3 1 -12l-6 -54q-1 -10 -5 -13l-8 -3l-15 -8l-10 4l-33 9l-36 16q-28 13 -43 31l2 14l3 27 q5 51 29 51q13 0 32 -7l22 -8q31 -11 41 -21l12 -11l10 -9zM460 528q5 -14 -2 -15l-11 3q-5 2 -15 3h-126l-18 -128l89 -5l7 1l4 -2q15 -8 37 -49q19 -35 27 -59l4 -11l3 -16l-5 -1l-9 1q-14 4 -54 4h-64l-54 -1l-12 -110l131 -5q21 -19 45 -57.5t34 -66.5q8 -23 -9 -23 l-18 3q-20 3 -119 5l-60 1l-61 -2l-27 -2q-22 -2 -74 70q-34 47 -39 61q-2 6 1 17q1 2 8 40l6 32l4 23l35 284q-54 81 -54 134q0 9 4 9l9 -2l8 -2h296q18 -17 45 -63q24 -43 34 -71z" />
<glyph unicode="&#xcc;" horiz-adv-x="293" d="M272 712q7 -20 -41 -20q-11 0 -34 5l-9 9l-45 41l-42 42l-22 19q-17 15 -19 21q-6 15 32 15h59l10 1h6q7 2 17 -12zM308 590q3 -6 -4 -15q-11 -21 -23 -154l-30 -371q0 -20 1 -29q9 -26 -6 -26q-38 0 -102 32t-87 62q17 22 24 110l30 382q4 52 -2 68q-8 24 9 24 q40 0 146 -53q41 -20 44 -30z" />
<glyph unicode="&#xcd;" horiz-adv-x="293" d="M328 839q3 -9 -9 -30l-14 -25l-27 -31q-4 -3 -23 -32q-11 -19 -39 -19q-53 0 -61 23q-1 5 1 9l41 109q3 10 12 10l19 -2l31 2q61 4 69 -14zM310 590q2 -6 -5 -15q-11 -21 -23 -154l-29 -371q-1 -20 1 -29q9 -26 -6 -26q-38 0 -102.5 32t-87.5 62q18 22 24 110l30 382 q4 52 -1 68q-9 24 8 24q40 0 147 -53q41 -20 44 -30z" />
<glyph unicode="&#xce;" horiz-adv-x="293" d="M349 719q4 -11 -23 -11q-37 0 -60 6l-26 60q-5 12 -12 12q-3 0 -6 -7l-28 -47l-5 -11q-6 -9 -34 -9q-65 0 -70 15l5 17l5 15q4 12 8 19q0 1 10 21l16 34l9 17q5 9 16 12q8 3 43 3q43 0 77 -7q15 -3 24 -23l37 -88q3 -7 9 -18zM312 590q2 -6 -5 -15q-11 -21 -23 -154 l-29 -371q-1 -20 1 -29q9 -26 -6 -26q-38 0 -102.5 32t-87.5 62q18 22 25 110l29 382q4 52 -1 68q-9 24 8 24q40 0 147 -53q41 -20 44 -30z" />
<glyph unicode="&#xcf;" horiz-adv-x="293" d="M348 786q1 -2 0 -9l-2 -27l1 -21q1 -17 -7 -29q-4 6 -7 6l-13 -2h-3q-79 11 -103 49v6l4 34l3 26q2 22 20 22q9 0 23 -5l22 -6l40 -16q14 -6 18.5 -15t3.5 -13zM177 788q2 -5 2 -12l-5 -51q1 -9 -4 -13l-6 -3l-14 -7l-40 12l-31 15q-26 12 -42 30l3 13l2 25q5 49 25 49 q12 0 31 -7l18 -7q31 -12 39 -20l10 -11l10 -8zM309 590q2 -6 -5 -15q-11 -21 -23 -154l-29 -371q-1 -20 1 -29q9 -26 -6 -26q-38 0 -102.5 32t-87.5 62q17 22 24 110l30 382q4 52 -2 68q-8 24 9 24q40 0 146 -53q41 -20 45 -30z" />
<glyph unicode="&#xd0;" horiz-adv-x="574" d="M565 355q0 -136 -161 -272q-108 -92 -150 -92q-21 0 -75 30q-44 25 -69 45l-49 38q-10 7 -21 18q1 3 3.5 9.5t6.5 40.5l4 30l2 33l6 95l-19 -2l-11 -2q-9 0 -16 18q-10 27 -9 55q2 29 14 29l18 -3h10l18 1l4 79q-26 30 -57.5 74.5t-36.5 58.5q-3 7 5 7q27 0 71 8l71 13 q27 5 72 5q131 0 230 -81q139 -114 139 -235zM296 515q-21 0 -44 -9l-2 -71h13l11 1l13 2q12 0 20 -20q10 -27 9 -56t-13 -28l-13 1q-4 1 -11 1h-18l-19 -1l-13 -158q26 20 60 66q32 43 58 94q32 66 32 107q0 71 -83 71z" />
<glyph unicode="&#xd1;" horiz-adv-x="552" d="M497 804q0 -5 -4 -15l-6 -31q-10 -53 -54 -53q-32 0 -72 23l-39 22q-15 9 -29 9q-21 0 -20 -28q1 -14 -13 -14q-12 0 -27 2q-51 13 -57 29q-1 3 1 17l4 29q9 70 66 70q33 0 81 -30q41 -25 56 -25q20 0 21 21q0 15 7 15q5 0 11 -2q16 -5 19 -5h14l8 -4l8 -1l9 -7 q11 -6 14 -11.5t2 -10.5zM567 601q0 -2 -5 -22q-6 -23 -6 -26l-13 -119l-16 -268l-3 -116q-1 -23 4 -44q3 -12 -9 -12q-18 0 -70 12t-90 25q-54 19 -61 36q0 4 -2 18l-4 36l-5 38l-29 197q-1 6 -6 6q-3 0 -3 -4l-5 -206q-2 -91 14 -157q-48 7 -110 30q-66 25 -73 39l1 10 q6 38 11 107l23 350q3 35 2 56l-1 48l-1 14l-4 10q-3 6 -1 9q2 2 13 2q42 0 112 -16q57 -13 76.5 -20.5t36.5 -21.5q-4 -31 5 -93l25 -175q1 -6 7 -6q3 0 4 4l7 269q0 29 -2 33l-1 4l-3 4q-3 13 12 13q21 0 107 -33l36 -14q24 -9 27 -17z" />
<glyph unicode="&#xd2;" horiz-adv-x="596" d="M453 689q7 -21 -41 -21q-14 0 -34 5l-10 10l-43 40l-44 43l-21 18q-17 14 -19 22q-5 13 32 14l30 1l29 -1l9 1l6 1q8 0 18 -13zM594 357q-5 -80 -29 -164q-32 -110 -74 -157q-45 -50 -110 -50q-97 0 -211 69q-88 54 -109 113q-9 27 -10 81q0 53 9 98q25 130 94 254 q10 22 19 44q16 36 24 36q20 0 100 -37q68 -30 101 -50q75 -15 123 -45q52 -32 67 -82q11 -37 6 -110zM396 516q-17 14 -35 14q-30 0 -51 -49q-4 -9 -23 -72q-28 -92 -36 -159q-13 -101 27 -132q19 -14 35 -14q54 0 88 143q20 85 26 143q8 94 -31 126z" />
<glyph unicode="&#xd3;" horiz-adv-x="596" d="M503 812q3 -7 -9 -30l-14 -25l-29 -30l-18 -30q-14 -22 -42 -22q-20 0 -39 6q-28 9 -22 26l42 109q4 10 12 10l18 -2l32 2q61 4 69 -14zM595 357q-5 -80 -30 -164q-31 -110 -74 -157q-44 -50 -109 -50q-97 0 -211 69q-89 54 -109 113q-9 27 -10 81q-1 53 8 98 q26 130 95 254q9 22 19 44q16 36 23 36q21 0 101 -37q67 -30 100 -50q76 -15 124 -45q52 -32 67 -82q11 -37 6 -110zM397 516q-17 14 -36 14q-29 0 -50 -49q-4 -9 -23 -72q-28 -92 -36 -159q-13 -101 27 -132q18 -14 35 -14q53 0 88 143q20 85 26 143q8 94 -31 126z" />
<glyph unicode="&#xd4;" horiz-adv-x="596" d="M528 706q4 -11 -23 -11q-37 0 -60 6l-26 60q-4 11 -12 11q-4 0 -6 -6q-6 -12 -17 -32l-11 -15l-6 -11q-4 -10 -33 -10q-64 0 -69 15q-1 1 4 17l4 16q2 5 19 40l16 34l9 16q10 16 59 16q44 0 77 -7q15 -3 23 -23l17 -40l22 -49q2 -6 8 -17zM599 357q-5 -80 -29 -164 q-32 -110 -74 -157q-45 -50 -110 -50q-97 0 -211 69q-88 54 -109 113q-9 27 -9 81q-1 53 8 98q25 130 94 254l20 44q15 36 23 36q20 0 100 -37q68 -30 101 -50q75 -15 123 -45q52 -32 67 -82q11 -37 6 -110zM402 516q-18 14 -36 14q-29 0 -50 -49q-4 -9 -24 -72 q-27 -92 -36 -159q-13 -101 28 -132q18 -14 34 -14q54 0 88 143q21 85 26 143q9 94 -30 126z" />
<glyph unicode="&#xd5;" horiz-adv-x="596" d="M554 793q1 -4 0 -9q0 -5 -4 -15l-7 -31q-13 -53 -56 -53q-33 0 -72 23l-38 22q-13 8 -28 8q-21 0 -21 -27q0 -14 -14 -14q-12 0 -27 2q-49 13 -55 29q-2 6 0 17l6 28q13 70 69 70q33 0 80 -29q41 -25 55 -25q19 0 21 21q1 15 8 15q4 0 15 -3.5t14 -3.5h14l8 -4l8 -1l9 -7 q11 -6 15 -13zM598 357q-5 -80 -30 -164q-31 -110 -74 -157q-44 -50 -109 -50q-98 0 -211 69q-89 54 -109 113q-9 27 -10 81q-1 53 8 98q26 130 95 254q9 22 19 44q16 36 23 36q21 0 101 -37q67 -30 100 -50q75 -15 125.5 -46t65.5 -81q11 -37 6 -110zM400 516 q-17 14 -36 14q-29 0 -50 -49q-4 -9 -23 -72q-28 -92 -36 -159q-13 -101 27 -132q18 -14 35 -14q53 0 88 143q20 85 25 143q9 94 -30 126z" />
<glyph unicode="&#xd6;" horiz-adv-x="596" d="M540 782q1 -4 2 -8.5t2 -10.5l-3 -29l1 -21q1 -20 -8 -31q-3 6 -8 6l-5 -2h-6q-32 0 -66 13q-39 15 -56 38l3 7l1 36l4 27q3 24 22 24q3 0 25 -6l26 -7l44 -16q17 -6 22 -20zM338 769l-3 -55q0 -9 -6 -12l-7 -3l-13 -8l-11 3l-34 10l-36 16q-28 13 -44 30l3 41 q4 51 28 51q14 0 33 -7l20 -7q31 -11 43 -22l13 -11l10 -8q5 -6 4 -18zM600 357q-3 -80 -24 -164q-28 -110 -69 -157q-43 -50 -108 -50q-97 0 -213 69q-90 54 -113 113q-10 27 -12 81q-3 53 4 98q21 130 86 254q9 23 18 45q14 35 22 35q20 0 102 -37q68 -31 102 -50 q76 -15 125 -45q53 -32 70 -82q12 -36 10 -110zM396 516q-17 14 -36 14q-29 0 -49 -49q-3 -9 -20 -72q-25 -92 -31 -159q-9 -101 32 -132q19 -14 36 -14q53 0 82 143q18 85 21 143q5 94 -35 126z" />
<glyph unicode="&#xd7;" d="M468 438l-10 -7l-19 -15q-1 -1 -5 -4.5t-7 -6t-7 -6.5l-73 -73l45 -83q2 -3 6.5 -10.5t6.5 -9.5l13 -15q4 -6 4 -12q0 -20 -35 -33q-30 -11 -52 -9l-23 2q-6 21 -27 61l-17 32l-23 -22q-35 -33 -45 -60q-6 -17 -14 -17q-18 0 -49 30q-35 34 -38 68l10 8l25 19q12 9 45 42 l33 33l-23 45l-13 24l-10 20q-7 15 -13 19l-10 10l-2 4q0 12 36 22l28 8q25 7 36 7q16 0 22 -26q0 -4 14 -29l15 -27l54 57q12 13 14 19q6 14 15 14q27 0 56.5 -24.5t36.5 -54.5z" />
<glyph unicode="&#xd8;" horiz-adv-x="596" d="M613 521q3 -9 -3 -15l-66 -67q8 -22 8 -50q3 -74 -30 -212q-19 -85 -33 -114q-39 -79 -123 -79q-52 0 -125 27.5t-116 61.5l-43 -42q-12 -12 -23 -13q-6 0 -15.5 6.5t-11.5 12.5l-4 7q-3 5 -6 6q-6 6 -8.5 12.5t-8.5 15.5l60 56l-16 38q-15 35 -15 86q0 43 11 105 q22 120 84 247q9 18 9 24l2 20q2 15 26 15q10 0 17 -2l15 -5h11q11 0 62.5 -18.5t95.5 -52.5q86 -23 140 -65l45 42q1 2 8 2q16 0 29 -18l12 -15l9 -10zM349 510q-14 13 -28 13q-50 0 -74 -210l-3 -24l136 128q-3 36 -7 50q-7 27 -24 43zM375 301l-139 -128q1 -26 4 -36 q14 -40 50 -40q68 0 82 176z" />
<glyph unicode="&#xd9;" horiz-adv-x="567" d="M380 729q7 -21 -41 -21q-12 0 -34 5l-10 10l-43 40l-44 43l-21 18q-17 14 -20 22q-4 13 32 14l31 1l28 -1l10 1l6 1q8 0 17 -13zM596 565q3 -9 -3 -17l-10 -14q-3 -4 -9 -88q-1 -17 -8 -79l-15 -142q-13 -126 -47.5 -178t-100.5 -52q-81 0 -186.5 49.5t-134.5 133.5 q-10 29 -6 111q3 65 24 213q17 126 10 147q-4 11 -2 16q3 5 14 5q31 0 138 -49l4 -2q56 -26 62 -42q3 -8 -3 -18l-8 -16q-5 -5 -8 -30l-8 -62q-7 -49 -16 -124l-9 -102q-3 -39 5 -63q4 -12 14 -20t22 -8q25 0 37 50q26 108 36 300q5 90 4 105q-2 24 -13 56q-6 18 11 18 q33 0 113 -36q85 -37 93 -62z" />
<glyph unicode="&#xda;" horiz-adv-x="567" d="M432 846q2 -7 -10 -30l-13 -25l-29 -31l-18 -30q-13 -21 -42 -21q-53 0 -61 23q-2 5 0 9l41 109q4 10 13 9l18 -1l32 1q62 2 69 -13zM595 565q3 -9 -3 -17l-10 -14q-3 -4 -9 -88q-1 -17 -7 -79l-15 -142q-14 -126 -48 -178t-100 -52q-81 0 -186.5 49.5t-134.5 133.5 q-10 29 -6 111q3 65 23 213q18 126 11 147q-4 11 -3 16q3 5 14 5q31 0 138 -49l4 -2q57 -26 62 -42q3 -8 -2 -18l-9 -16q-4 -5 -8 -30l-7 -62q-7 -49 -17 -124l-8 -102q-4 -39 4 -63q4 -12 14.5 -20t22.5 -8q25 0 37 50q25 108 35 300q5 90 4 105q-1 24 -12 56q-6 18 11 18 q33 0 113 -36q84 -37 92 -62z" />
<glyph unicode="&#xdb;" horiz-adv-x="567" d="M473 719q4 -11 -23 -11q-38 0 -61 6l-25 60q-6 12 -12 12q-3 0 -7 -7l-17 -31l-10 -16l-6 -11q-5 -9 -34 -9q-64 0 -69 15l4 17l6 15q4 10 18 40l24 51q8 15 60 15q43 0 77 -7q15 -3 24 -23l37 -88q3 -7 9 -18zM597 565q2 -9 -4 -17l-10 -14q-3 -4 -9 -88q-1 -17 -7 -79 l-15 -142q-14 -126 -48 -178t-100 -52q-81 0 -186.5 49.5t-134.5 133.5q-10 29 -6 111q3 65 23 213q18 126 11 147q-4 11 -3 16q3 5 14 5q31 0 138 -49l4 -2q57 -26 62 -42q3 -8 -2 -18l-9 -16q-4 -5 -8 -30l-7 -62q-7 -49 -17 -124l-8 -102q-4 -39 4 -63q4 -12 14.5 -20 t22.5 -8q25 0 37 50q25 108 35 300q5 90 4 105q-1 24 -12 56q-6 18 11 18q33 0 113 -36q84 -37 93 -62z" />
<glyph unicode="&#xdc;" horiz-adv-x="567" d="M512 792q1 -3 0 -9l-3 -29l1 -21q1 -20 -7 -31q-4 6 -7 6l-6 -2h-6q-32 0 -67 13q-38 15 -55 38l3 7l1 36l4 27q3 24 22 24q5 0 26 -6l25 -7l44 -16q27 -10 25 -30zM310 793v-11l-4 -54q0 -10 -5 -13l-8 -3l-13 -8l-11 4l-34 9l-36 16q-26 12 -44 31l1 14l2 27 q3 51 28 51q10 0 33 -7l20 -8q36 -14 43 -21l13 -11l10 -9zM590 565q3 -9 -2 -17l-10 -14q-3 -4 -6 -88q0 -17 -5 -79l-10 -142q-9 -126 -41.5 -178t-98.5 -52q-81 0 -188 49.5t-139 133.5q-11 29 -10 111q1 65 16 213q13 126 5 147q-4 11 -3 16q3 5 14 5q31 0 140 -49l4 -2 q58 -26 64 -42q2 -8 -3 -18l-8 -16q-4 -5 -6 -30l-6 -62q-5 -49 -12 -124l-5 -102q-2 -39 7 -63q4 -12 16 -20q9 -8 22 -8q24 0 35 50q22 108 25 300q1 70 1 68q0 28 -1 37q-2 24 -14 56q-7 18 10 18q33 0 114 -36q86 -38 95 -62z" />
<glyph unicode="&#xdd;" horiz-adv-x="451" d="M331 846q4 -9 -7 -30l-14 -25l-26 -31q-5 -4 -19 -30q-11 -21 -41 -21q-20 0 -39 6q-29 9 -23 26l38 109q3 10 12 9l18 -1l32 1q62 2 69 -13zM503 579q2 -5 -11 -16q-5 -8 -10 -22l-25 -72q-28 -81 -65 -252q-36 -165 -31 -190l4 -18q2 -13 -15 -13q-32 0 -106 31 q-78 32 -87 55q-2 5 4 14q22 34 31 68l16 59l-162 328q-30 62 -43 79q-4 5 -9 14q-5 14 45 21q34 5 62 5q56 0 72.5 -5t20.5 -15q1 -4 0 -4l-1 -12q0 -10 8 -29l63 -159l26 138l5 41q3 21 2 26q-2 19 11 19q21 0 63 -19q6 -2 12 -5l68 -32q47 -22 52 -35z" />
<glyph unicode="&#xde;" horiz-adv-x="511" d="M507 278q0 -74 -91 -143q-50 -39 -80 -47q-15 -3 -32 -8q-9 -4 -17 -4q-11 0 -33 21l-28 27l-3 4l-1 -28v-50q0 -18 2 -29q10 -26 -5 -26q-38 0 -104 32t-88 62q17 25 20 110l8 189l-14 18l-41 47q-27 30 -35 57l-4 14q1 1 82 18l18 2l1 37q2 57 -2 68q-10 24 6 24 q11 0 64 -19q42 -15 70 -27q55 -24 60 -37q2 -6 -3 -15l-7 -22q105 -25 195 -139q62 -79 62 -136zM283 406q-33 0 -51 -10l-5 -155q56 28 90 68q28 32 28 55q0 42 -62 42z" />
<glyph unicode="&#xdf;" horiz-adv-x="436" d="M378 544q2 -16 2 -40q3 -91 -25 -108q-7 -5 -57 -12q41 -12 57 -23q24 -16 36 -49q12 -38 18 -100q5 -62 -1 -110q-16 -118 -77 -118q-35 0 -119 46l-23 12v-14l3 -13l4 -11q4 -12 -9 -12q-26 0 -87.5 21.5t-69.5 45.5q-4 10 -3 18l5 23l2 30l1 30l26 486q-1 17 5 21.5 t31 4.5q23 0 74 -7l44 -6q78 -11 109 -27q45 -24 54 -88zM257 594q-7 21 -26 21q-16 0 -20 -37l-14 -145l19 -3q24 0 34 27q4 10 7 47q8 69 0 90zM254 330q-13 39 -59 53l-8 -247q-1 -33 17 -46q9 -7 18 -7q41 0 40 135v53q-1 38 -8 59z" />
<glyph unicode="&#xe0;" horiz-adv-x="483" d="M324 565q8 -20 -39 -20q-18 0 -35 5l-11 9l-44 40l-45 43l-21 18q-19 17 -21 22q-6 15 31 15h60l10 1h6q6 0 17 -13zM464 438q1 -3 -5 -10t-6 -39v-39l-2 -43l2 -244q0 -18 1 -42l5 -15q5 -16 -19 -16q-28 0 -80 16q-58 18 -67 37q-2 7 1 34l7 49l-1 3q-1 3 -5 4 q-1 0 -2 -2l-2 -8q-11 -44 -42 -83.5t-50 -39.5q-27 0 -85 29q-49 25 -68 58q-17 30 -17 86q0 35 7 80q16 104 55 187q22 47 26 72l11 1q7 0 26 -4q53 -15 92 -44q29 0 59 -11l-3 26q-6 5 -7 8q-3 10 10 10q26 0 86 -20q67 -22 73 -40zM298 396l-2 6q-6 16 -27 19 q-22 0 -54 -109q-5 -17 -14 -62q-5 -19 -11 -63q-12 -100 20 -100q24 0 52 94q22 75 31.5 131t4.5 84z" />
<glyph unicode="&#xe1;" horiz-adv-x="483" d="M371 681q2 -7 -9 -30l-13 -25l-27 -30q-5 -7 -17.5 -29.5t-41.5 -22.5q-52 0 -61 23q-2 5 -1 9l37 109q3 10 12 10l18 -2l33 2q61 4 70 -14zM464 438q1 -3 -5 -10t-7 -39v-39l-2 -43l2 -244q0 -18 2 -42l5 -15q5 -16 -19 -16q-29 0 -80 16q-58 18 -67 37q-3 7 1 34l6 49 l-1 3q-1 3 -5 4l-2 -2l-2 -8q-10 -44 -41 -83.5t-50 -39.5q-28 0 -85 29q-50 25 -68 58q-18 30 -18 86q0 35 7 80q16 104 55 187q22 47 27 72l10 1q7 0 27 -4q52 -15 92 -44q29 0 59 -11l-3 26q-6 5 -7 8q-4 10 9 10q26 0 87 -20q66 -22 73 -40zM298 396l-3 6q-6 16 -27 19 q-21 0 -53 -109q-6 -17 -15 -62q-4 -19 -11 -63q-11 -100 21 -100q24 0 51 94q22 75 32 131t5 84z" />
<glyph unicode="&#xe2;" horiz-adv-x="483" d="M411 555q3 -10 -24 -10q-35 0 -61 5l-28 61q-5 11 -11 11q-3 0 -7 -7q-5 -13 -16 -31l-10 -15l-5 -12q-4 -9 -33 -9q-65 0 -70 15q-2 3 3 17l5 15q1 4 17 40l15 34l8 16q6 11 16 14q15 2 43 2q44 0 77 -6q16 -4 24 -23l41 -89q3 -7 10 -18zM465 438q1 -3 -5 -10t-6 -39 l-1 -39l-1 -43l1 -244q0 -18 2 -42l5 -15q5 -16 -19 -16q-28 0 -80 16q-58 18 -67 37q-3 7 1 34l6 49l-1 3q-1 3 -4 4q-1 0 -3 -2l-2 -8q-10 -44 -41 -83.5t-50 -39.5q-28 0 -85 29q-49 25 -68 58q-18 30 -18 86q0 35 7 80q16 104 55 187q22 47 27 72l10 1q7 0 27 -4 q52 -15 92 -44q29 0 59 -11l-3 26q-6 5 -7 8q-4 10 9 10q26 0 87 -20q66 -22 73 -40zM299 396l-2 6q-7 16 -28 19q-21 0 -53 -109q-5 -17 -15 -62q-4 -19 -11 -63q-11 -100 21 -100q24 0 51 94q22 75 32 131t5 84z" />
<glyph unicode="&#xe3;" horiz-adv-x="483" d="M430 647q5 -13 -2 -50q-11 -59 -56 -59q-32 0 -72 23l-39 22q-16 9 -29 9q-21 0 -20 -28q1 -13 -14 -13q-65 0 -75 27q-8 20 -2 55q11 64 65 64h1q33 0 81 -30q41 -25 56 -25q19 0 20 21q-1 15 8 15q3 0 10 -2l13 -4l15 -1l11 -3l7 -2l10 -7q8 -5 12 -12zM464 438 q1 -3 -5 -10t-6 -39v-39l-2 -43l1 -244q1 -18 2 -42l5 -15q5 -16 -19 -16q-28 0 -80 16q-58 18 -67 37q-3 7 1 34l6 49l-1 3q-1 3 -4 4q-1 0 -2 -2l-2 -8q-11 -44 -42 -83.5t-50 -39.5q-28 0 -85 29q-49 25 -68 58q-18 30 -18 86q0 35 7 80q16 104 55 187q22 47 27 72l11 1 q7 0 26 -4q53 -15 92 -44q29 0 59 -11l-3 26q-6 5 -7 8q-4 10 9 10q27 0 87 -20q67 -22 73 -40zM298 396l-2 6q-6 16 -27 19q-22 0 -54 -109q-5 -17 -15 -62q-4 -19 -11 -63q-11 -100 21 -100q24 0 52 94q22 75 31.5 131t4.5 84z" />
<glyph unicode="&#xe4;" horiz-adv-x="483" d="M440 616l-4 -28l2 -24q2 -19 -10 -31q-33 0 -75 16q-47 18 -64 42l3 6l1 36l4 27q3 24 22 24q5 0 26 -6l25 -7l44 -16q16 -8 21 -18t5 -21zM244 619l-4 -55q0 -9 -5 -12l-7 -3l-14 -8l-11 3l-34 10l-35 16q-31 14 -46 31l2 13l2 27q4 51 28 51q13 0 34 -7l20 -7 q29 -10 43 -22l12 -11l10 -9q5 -4 5 -17zM463 438q1 -3 -5 -10t-6 -39v-39l-2 -43l1 -244q1 -18 2 -42l5 -15q5 -16 -19 -16q-28 0 -80 16q-58 18 -67 37q-3 7 1 34l7 49l-2 3q-1 3 -4 4q-1 0 -2 -2l-2 -8q-11 -44 -42 -83.5t-50 -39.5q-28 0 -85 29q-49 25 -68 58 q-18 30 -18 86q0 35 7 80q16 104 55 187q22 47 27 72l11 1q7 0 26 -4q53 -15 92 -44q29 0 59 -11l-3 26q-6 5 -7 8q-4 10 9 10q27 0 87 -20q67 -22 73 -40zM297 396l-2 6q-6 16 -27 19q-22 0 -54 -109q-5 -17 -14 -62q-5 -19 -12 -63q-11 -100 21 -100q24 0 52 94 q22 75 31.5 131t4.5 84z" />
<glyph unicode="&#xe5;" horiz-adv-x="483" d="M374 611q0 -22 -12 -41q-21 -34 -66 -34q-47 0 -88 28q-64 45 -64 109q0 34 22.5 55t57.5 21q44 0 85 -30q65 -47 65 -108zM298 646q-13 35 -53 35q-20 0 -27 -11t0 -28q13 -35 53 -35q18 0 26 11t1 28zM474 438q1 -3 -5 -10t-6 -39l-1 -39l-1 -43l1 -244q1 -18 2 -42 l5 -15q5 -16 -19 -16q-28 0 -80 16q-58 18 -67 37q-3 7 1 34l6 49l-1 3q-1 3 -4 4q-1 0 -3 -2l-2 -8q-10 -44 -41 -83.5t-50 -39.5q-28 0 -85 29q-49 25 -68 58q-18 30 -18 86q0 35 7 80q16 104 55 187q22 47 27 72l11 1q7 0 26 -4q52 -15 92 -44q29 0 59 -11l-3 26 q-6 5 -7 8q-4 10 9 10q27 0 87 -20q66 -22 73 -40zM308 396l-2 6q-6 16 -28 19q-21 0 -53 -109q-5 -17 -15 -62q-4 -19 -11 -63q-11 -100 21 -100q24 0 51 94q23 75 32.5 131t4.5 84z" />
<glyph unicode="&#xe6;" horiz-adv-x="668" d="M620 211q-2 -29 -15 -28h-7l-65 2h-141l-1 -9q-5 -47 2 -67q11 -30 40 -30q17 0 33 19q13 16 17 35q3 14 26 14q20 0 59 -13q43 -14 48 -28q1 -3 -3 -13l-10 -15q-54 -83 -132 -83q-53 0 -106 21q-56 22 -88 60l-6 -10q-39 -70 -86 -70q-53 0 -117.5 38t-78.5 78 q-5 15 -5 38q0 38 15 99q22 89 74 189q9 16 7 27q-2 6 0 10q4 3 16 3q20 0 60.5 -13t68.5 -31q50 -16 72 -31l22 59q-7 18 24 18q56 0 101 -28q72 -12 115 -38q51 -31 61 -89q5 -29 0 -114zM458 392q-20 0 -35 -45q-3 -10 -14 -61l72 -1l1 7l5 28q1 6 1 12q6 60 -30 60z M253 358l-4 8t-9 11q-11 8 -21 8q-25 0 -53 -91q-21 -65 -30 -121q-5 -35 -6 -50q0 -22 3 -30q8 -23 31 -23q25 0 58 102q15 49 26 110q5 29 6 48q2 19 -1 28z" />
<glyph unicode="&#xe7;" horiz-adv-x="440" d="M355 384q13 -34 9 -80l-2 -19l1 -17q1 -12 -16 -12q-84 0 -144 47q10 27 11 39l4 33q3 27 -11 39q-9 5 -15 5q-19 0 -49 -102q-14 -45 -23 -103q-12 -77 -3 -102q11 -29 40 -29q42 0 54 67q5 28 24 28q24 0 55 -9l47 -14q16 -5 18 -11q2 -5 0 -9l-5 -7l-7 -18 q-25 -63 -53 -89q-36 -33 -83 -33q-72 0 -158 49q-52 29 -75 63.5t-23 89.5q0 75 42 187q22 58 37.5 79.5t14.5 34.5t12 13q34 0 87 -15.5t78 -34.5q37 -4 76 -21q47 -21 57 -49zM182 -74q7 -20 -14 -66l-9 -19l-7 -22q-10 -28 -38 -28q-11 0 -18 3l-24 10l-21 5l-8 6 q-5 4 -12 10q-1 4 9 24q23 43 13 108q13 10 26 10q16 0 34 -6q14 -4 37 -17q25 0 32 -18z" />
<glyph unicode="&#xe8;" horiz-adv-x="452" d="M318 545q7 -20 -40 -20q-18 0 -35 5l-10 9l-44 40l-45 43l-21 18q-20 17 -22 22q-5 15 32 15h60l9 1h6q7 0 17 -13zM439 229q-2 -23 -22 -23l-60 1l-133 -3q-12 -2 -33 -3q-3 -28 -3 -48q0 -21 4 -33q10 -27 33 -27q28 0 60 50q10 15 28 15q28 0 74.5 -17t51.5 -30 q3 -6 -7 -16l-10 -16q-26 -37 -70 -63q-47 -27 -89 -27q-63 0 -135 41q-76 43 -97 98q-11 28 -11 70q0 32 7 73q20 129 57 191q8 14 9 21v11q2 11 19 11q46 0 144 -33l15 -5q65 -13 103 -40q78 -55 65 -198zM255 424q-16 0 -27 -28q-7 -20 -19 -79l-1 -7h73q3 17 3 43l-1 27 q0 44 -28 44z" />
<glyph unicode="&#xe9;" horiz-adv-x="452" d="M357 668q3 -7 -9 -30l-12 -25l-28 -30q-4 -7 -17 -29.5t-42 -22.5q-52 0 -61 23q-2 5 0 9l36 109q4 10 13 10l17 -2l34 2q60 4 69 -14zM439 229q-2 -23 -21 -23l-60 1l-133 -3q-12 -2 -33 -3q-4 -28 -4 -48q0 -21 5 -33q10 -27 33 -27q28 0 60 50q10 15 27 15 q28 0 75 -17t52 -30q2 -6 -7 -16l-11 -16q-25 -37 -69 -63q-47 -27 -90 -27q-62 0 -134 41q-76 43 -97 98q-11 28 -11 70q0 32 6 73q21 129 58 191q8 14 9 21v11q2 11 19 11q46 0 144 -33l15 -5q65 -13 102 -40q78 -55 65 -198zM255 424q-16 0 -26 -28q-8 -20 -19 -79l-1 -7 h73q3 17 2 43v27q0 44 -29 44z" />
<glyph unicode="&#xea;" horiz-adv-x="452" d="M392 552q4 -10 -23 -10q-36 0 -61 5l-28 61q-5 11 -11 11q-3 0 -8 -7q-5 -13 -16 -31l-9 -15l-6 -12q-4 -9 -32 -9q-65 0 -71 15q-1 3 3 17l6 15q1 4 17 40l15 34l8 16q5 11 15 14q16 2 44 2q43 0 77 -6q15 -4 24 -23l40 -89q3 -7 10 -18zM442 229q-2 -23 -21 -23l-60 1 l-133 -3q-12 -2 -33 -3q-4 -28 -4 -48q0 -21 5 -33q10 -27 33 -27q28 0 60 50q10 15 27 15q28 0 75 -17t52 -30q2 -6 -7 -16l-11 -16q-25 -37 -69 -63q-47 -27 -90 -27q-62 0 -134 41q-76 43 -97 98q-11 28 -11 70q0 32 6 73q21 129 58 191q8 14 9 21v11q2 11 19 11 q46 0 144 -33l15 -5q65 -13 102 -40q78 -55 65 -198zM258 424q-15 0 -26 -28q-8 -20 -19 -79l-1 -7h73q3 17 2 43v27q0 44 -29 44z" />
<glyph unicode="&#xeb;" horiz-adv-x="452" d="M413 636q3 -9 4 -20l-4 -28l2 -24q2 -19 -10 -31q-34 0 -76 16q-46 18 -63 42l3 6l1 36l4 27q3 24 22 24q5 0 26 -6l25 -7l44 -16q16 -8 22 -19zM220 619l-3 -55q0 -9 -5 -12l-7 -3l-14 -8l-11 3l-34 10l-35 16q-31 14 -46 31l2 13l2 27q3 51 28 51q13 0 33 -7l21 -7 q29 -10 42 -22l13 -11l10 -9q5 -4 4 -17zM441 229q-2 -23 -21 -23l-60 1l-133 -3q-12 -2 -33 -3q-4 -28 -4 -48q0 -21 5 -33q10 -27 33 -27q28 0 60 50q10 15 27 15q28 0 75 -17t52 -30q2 -6 -7 -16l-11 -16q-25 -37 -69 -63q-47 -27 -90 -27q-63 0 -134 41q-76 43 -97 98 q-11 28 -11 70q0 32 6 73q21 129 58 191q8 14 9 21v11q2 11 19 11q46 0 144 -33l15 -5q65 -13 102 -40q78 -55 65 -198zM257 424q-16 0 -26 -28q-8 -20 -19 -79l-1 -7h73q2 17 2 43v27q0 44 -29 44z" />
<glyph unicode="&#xec;" horiz-adv-x="235" d="M192 554q7 -20 -40 -20q-18 0 -34 5l-11 9l-44 40l-45 43l-21 18q-20 17 -22 22q-5 15 32 15h60l9 1h6q7 0 17 -13zM216 447q2 -5 0 -10l-3 -9q-3 -6 -4 -23l-3 -50l-5 -170q-3 -95 -1 -126l2 -37l1 -15q6 -14 -4 -14q-35 0 -96.5 26t-67.5 42q-2 5 1 30q2 10 5 34l1 38 l10 192l3 112q0 10 -3 19l-3 8q-5 11 14 11q22 0 83 -24l48 -19q20 -8 22 -15z" />
<glyph unicode="&#xed;" horiz-adv-x="235" d="M248 678q3 -7 -9 -30l-12 -25l-28 -30q-4 -7 -17 -29.5t-42 -22.5q-52 0 -61 23q-2 5 0 9l36 109q4 10 12 10l18 -2l33 2q61 4 70 -14zM217 447q2 -5 0 -10l-3 -9q-3 -6 -4 -23l-3 -50l-5 -170q-3 -95 -1 -126l2 -37l1 -15q6 -14 -4 -14q-35 0 -96.5 26t-67.5 42 q-2 5 1 30q2 10 4 34l2 38l10 192l3 112q0 10 -3 19l-3 8q-5 11 14 11q22 0 82 -24l49 -19q20 -8 22 -15z" />
<glyph unicode="&#xee;" horiz-adv-x="235" d="M267 562q4 -10 -24 -10q-37 0 -60 5l-29 61q-5 11 -12 11q-3 0 -6 -7q-5 -11 -17 -31l-10 -15l-4 -12q-6 -9 -34 -9q-65 0 -70 15l4 17l5 15q3 11 16 40l24 50q6 12 14 14t45 2q43 0 77 -6q15 -4 23 -23l19 -40l23 -49q4 -11 9 -18zM220 447q2 -5 0 -10l-3 -9 q-3 -6 -4 -23l-3 -50l-5 -170q-3 -95 -1 -126l2 -37l1 -15q6 -14 -4 -14q-35 0 -96.5 26t-67.5 42q-2 5 1 30q2 10 5 34l1 38l10 192l3 112q0 10 -3 19l-3 8q-5 11 14 11q22 0 83 -24l48 -19q20 -8 22 -15z" />
<glyph unicode="&#xef;" horiz-adv-x="235" d="M259 628l-3 -20l-1 -21q0 -13 -6 -27q-8 -19 -18 -19t-30 10l-10 5l-15 7q-7 3 -21 18t-17 22q-1 4 0 10l5 57q1 3 3 6l5 3l11 6l5 -1q28 -6 43 -17l18 -12l8 -4q5 -2 10 -8l8 -11zM107 642l-1 -5l-2 -7l-1 -31l-4 -27q-3 -22 -19 -22q-2 0 -12 5l-16 6l-15 5l-20 12 l-10 5l-5 5q-2 2 -6 4l-3 5q-3 8 -1 21q0 20 1 40q1 31 7 35q2 -5 6 -5l8 2l5 -1l18 -2q16 -4 40.5 -18t29.5 -27zM218 447q1 -5 -1 -10l-3 -9q-2 -6 -4 -23l-3 -50l-5 -170q-3 -95 -1 -126l2 -37l1 -15q6 -14 -4 -14q-35 0 -96.5 26t-67.5 42q-2 5 2 30q1 10 4 34l1 38 l10 192l3 112q0 10 -3 19l-3 8q-4 11 15 11q21 0 82 -24l48 -19q20 -8 23 -15z" />
<glyph unicode="&#xf0;" horiz-adv-x="454" d="M387 623q2 -8 -1 -11q-31 -19 -75 -46l-16 -11l11 -14l20 -24q78 -94 96 -140q12 -33 16 -94q2 -57 -6 -116q-27 -178 -128 -178q-69 0 -167 49q-75 38 -95 91q-11 30 -11 75q0 36 7 83q17 105 55 176q3 5 5 27q1 13 16 13q58 0 141 -35q-26 30 -44 43l-122 88 q-12 8 -23 14q-15 10 -18 15q-5 12 31 34q63 39 83 39q13 0 29 -20q3 -4 13 -16l29 -35l69 52q4 3 7 3q13 0 27 -14l21 -21l24 -18zM258 428q-10 0 -15 -4q-15 -7 -31 -78q-14 -60 -17 -131q-2 -63 11 -96.5t39 -33.5q38 0 53 106q10 66 10 115q0 53 -11.5 87.5t-38.5 34.5z " />
<glyph unicode="&#xf1;" horiz-adv-x="455" d="M376 647q5 -13 -2 -50q-11 -59 -55 -59q-33 0 -73 23l-38 22q-16 9 -30 9q-21 0 -19 -28q0 -13 -14 -13q-65 0 -76 27q-7 20 -1 55q10 64 64 64h1q33 0 82 -30q40 -25 55 -25q19 0 20 21q-1 15 9 15q3 0 9 -2l14 -4l14 -1l11 -3l7 -2l11 -7q7 -5 11 -12zM415 422 q8 -21 11 -115q4 -91 0 -179q-4 -89 3 -119q4 -16 -15 -16q-33 0 -97 23q-59 21 -64 34q-2 5 2 13q9 19 14 129l3 80q1 10 1 60q-1 21 -3 62v11q-1 6 -5 6l-3 -2l-4 -5l-6 -19l-12 -33q-15 -42 -31 -188q-8 -76 -8 -99q0 -27 8 -63l1 -7l-11 -3q-26 0 -83 20q-62 22 -69 40 q-1 4 -1 13l1 19l2 35l1 22v279q0 40 -7 70q-3 13 7 13l16 -3l41 -12l56 -19q31 -10 36 -24q1 -4 -2 -14l-1 -17l-4 -91l-2 -21v-19l1 -3l3 -3q3 2 2 4l1 7l4 26q10 83 27 132.5t38 52.5q9 0 57 -15q77 -24 92 -62z" />
<glyph unicode="&#xf2;" horiz-adv-x="454" d="M314 541q7 -20 -40 -20q-18 0 -35 5l-10 9l-44 40l-46 43l-20 18q-20 17 -22 22q-6 15 31 15h60l10 1h6q7 0 17 -13zM419 370q7 -18 11 -73q4 -53 0 -99q-7 -78 -32 -132q-35 -77 -99 -77q-70 0 -167 49q-75 38 -95 91q-11 29 -11 74q0 51 12 114q16 82 50 146q7 12 5 26 t15 14q24 0 70 -12t71 -23q50 0 106 -32q50 -29 64 -66zM251 428q-27 0 -45 -82q-13 -58 -15 -131q-3 -130 48 -130q39 0 53 106q11 75 11 119q1 118 -52 118z" />
<glyph unicode="&#xf3;" horiz-adv-x="454" d="M359 665q3 -7 -8 -30l-13 -25l-27 -30q-5 -7 -17.5 -29.5t-42.5 -22.5q-52 0 -60 23q-2 5 -1 9l37 109q3 10 12 10l18 -2l33 2q61 4 69 -14zM420 370q7 -18 11 -73q4 -53 0 -99q-7 -78 -32 -132q-35 -77 -99 -77q-70 0 -167 49q-75 38 -95 91q-11 29 -11 74q0 51 12 114 q16 82 50 146q7 12 5 26t15 14q24 0 70 -12t71 -23q50 0 106 -32q50 -29 64 -66zM252 428q-27 0 -46 -82q-12 -58 -14 -131q-3 -130 48 -130q39 0 53 106q11 75 11 119q1 118 -52 118z" />
<glyph unicode="&#xf4;" horiz-adv-x="454" d="M387 548q3 -10 -24 -10q-35 0 -60 5l-29 61q-5 11 -11 11q-3 0 -7 -7q-5 -13 -16 -31l-10 -15l-5 -12q-4 -9 -33 -9q-65 0 -70 15q-2 3 3 17l6 15q0 4 16 40l15 34l8 16q6 11 16 14q15 2 43 2q44 0 78 -6q15 -4 23 -23l41 -89q3 -7 10 -18zM423 370q7 -18 11 -73 q4 -53 -1 -99q-7 -78 -31 -132q-36 -77 -99 -77q-70 0 -167 49q-75 38 -95 91q-11 29 -11 74q0 51 12 114q16 82 50 146q7 12 5 26t15 14q23 0 71 -12q45 -12 70 -23q50 0 106 -32q50 -29 64 -66zM255 428q-28 0 -46 -82q-13 -58 -14 -131q-3 -130 48 -130q39 0 53 106 q10 75 11 119q1 118 -52 118z" />
<glyph unicode="&#xf5;" horiz-adv-x="454" d="M403 640q5 -13 -2 -50q-11 -59 -56 -59q-32 0 -72 23l-39 22q-15 9 -29 9q-21 0 -19 -28q0 -13 -15 -13q-65 0 -75 27q-7 20 -2 55q11 64 65 64h1q33 0 81 -30q41 -25 56 -25q19 0 20 21q-1 15 8 15q3 0 10 -2l14 -4l14 -1l11 -3l7 -2l10 -7q8 -5 12 -12zM422 370 q7 -18 11 -73q4 -53 0 -99q-7 -78 -32 -132q-35 -77 -99 -77q-70 0 -167 49q-75 38 -95 91q-11 29 -11 74q0 51 12 114q16 82 50 146q7 12 5 26t15 14q24 0 70 -12t71 -23q51 0 106 -32q50 -29 64 -66zM254 428q-27 0 -45 -82q-13 -58 -15 -131q-2 -130 49 -130q38 0 52 106 q11 75 11 119q2 118 -52 118z" />
<glyph unicode="&#xf6;" horiz-adv-x="454" d="M415 636q3 -9 4 -20l-4 -28l2 -24q2 -19 -10 -31q-34 0 -76 16q-46 18 -63 42l3 6l1 36l4 27q3 24 22 24q5 0 26 -6l25 -7l44 -16q16 -8 22 -19zM222 619l-3 -55q0 -9 -5 -12l-7 -3l-14 -8l-11 3l-34 10l-35 16q-31 14 -46 31l2 13l2 27q3 51 28 51q13 0 33 -7l21 -7 q29 -10 42 -22l13 -11l10 -9q5 -4 4 -17zM423 370q7 -18 10 -73q4 -53 0 -99q-7 -78 -32 -132q-35 -77 -99 -77q-69 0 -166 49q-76 38 -96 91q-11 29 -11 74q0 51 12 114q16 82 51 146q6 12 4.5 26t14.5 14q24 0 72 -12q44 -12 70 -23q50 0 106 -32q50 -29 64 -66zM255 428 q-28 0 -46 -82q-13 -58 -14 -131q-3 -130 48 -130q38 0 53 106q10 75 11 119q1 118 -52 118z" />
<glyph unicode="&#xf7;" horiz-adv-x="549" d="M334 457q0 -26 -18 -44t-44 -18t-43.5 18t-17.5 44q0 25 18 43.5t43 18.5t43.5 -18.5t18.5 -43.5zM536 233h-526v55h526v-55zM334 58q0 -26 -18 -44t-44 -18t-43.5 18t-17.5 44q0 25 18 43t43 18q26 0 44 -17.5t18 -43.5z" />
<glyph unicode="&#xf8;" horiz-adv-x="454" d="M439 407l-49 -52q11 -45 11 -92q0 -54 -14 -110q-23 -88 -55 -124q-33 -39 -81 -39t-101.5 19.5t-91.5 50.5l-47 -45q-30 5 -42 27l-6 11l-4 6l55 52l-7 19q-18 43 -10 118q8 74 34 138q23 54 31 114q12 6 29 6q61 0 157 -46q64 0 74 -20l1 -3q15 -5 31 -18l31 31 q8 7 16 7q7 0 17 -12h5q19 -20 16 -38zM232 421q-57 0 -78 -187l119 113q-10 74 -41 74zM272 257l-113 -106q10 -57 47 -57q50 0 66 163z" />
<glyph unicode="&#xf9;" horiz-adv-x="454" d="M295 565q8 -20 -39 -20q-18 0 -35 5l-11 9l-44 40l-45 43l-21 18q-19 17 -21 22q-6 15 31 15h60l10 1h6q6 0 17 -13zM439 439q1 -3 -1 -10l-6 -11q-2 -4 -3 -18l-6 -62l-6 -206q-2 -87 8 -126q4 -16 -12 -16q-41 0 -90 21q-45 19 -52 39q-2 4 -1 13l9 124q-2 4 -6 4 q-1 0 -2 -2l-3 -7l-4 -23q-9 -49 -38 -107q-27 -52 -45 -52q-15 0 -54 16q-55 23 -71 64q-10 27 -12 111q-2 88 7 165l7 54q6 52 0 69t-5 21q1 6 11 6q23 0 58 -14l60 -24q38 -15 42 -26q1 -3 -3 -11q-15 -28 -21 -173l-4 -85l1 -31v-10q1 -5 6 -7q3 2 4 3l4 9q17 43 32 107 q18 76 25 139l9 73q2 19 -2 32q-3 12 9 12q24 0 84 -22q65 -23 71 -39z" />
<glyph unicode="&#xfa;" horiz-adv-x="454" d="M325 675q3 -7 -9 -30l-12 -25l-28 -30q-4 -7 -17 -29.5t-42 -22.5q-52 0 -61 23q-2 5 0 9l36 109q4 10 12 10l18 -2l33 2q61 4 70 -14zM437 439q2 -3 -1 -10l-6 -11q-2 -4 -3 -18l-5 -62l-6 -206q-3 -87 7 -126q5 -16 -11 -16q-41 0 -88.5 20t-54.5 40q-2 4 -1 13l9 124 q-2 4 -6 4l-2 -2l-2 -7l-5 -23q-9 -49 -38 -107q-26 -52 -44 -52q-15 0 -54 16q-56 23 -72 64q-10 27 -12 111q-2 88 8 165l6 54q7 52 0 69q-6 17 -5 21q1 6 11 6q23 0 58 -14l60 -24q38 -15 42 -26q1 -3 -3 -11q-15 -28 -21 -173l-4 -85l1 -31l1 -10q0 -5 5 -7q4 2 4 3l4 9 q17 43 32 107q18 76 26 139l8 73q2 19 -1 32q-3 12 8 12q24 0 86.5 -22.5t68.5 -38.5z" />
<glyph unicode="&#xfb;" horiz-adv-x="454" d="M371 551q6 -13 -7 -13q-52 0 -80 13l-20 55h-3l-19 -15l-8 -15l-9 -15q-14 -23 -24 -21l-7 1l-21 1h-12q-1 0 -6 1.5t-9 2.5l-14 3q-19 6 -25 14q1 2 0 4l4 6q1 1 3 6.5t3.5 8.5t6.5 15q9 25 23 48l17 30q10 17 30 17q37 0 94 -9q23 -4 29.5 -7t9.5 -15l20 -60zM439 439 q1 -3 -1 -10l-6 -11q-2 -4 -3 -18l-6 -62l-6 -206q-2 -87 8 -126q4 -16 -12 -16q-41 0 -90 21q-45 19 -52 39q-2 4 -1 13l9 124q-2 4 -6 4q-1 0 -2 -2l-3 -7l-4 -23q-9 -49 -38 -107q-27 -52 -45 -52q-15 0 -54 16q-55 23 -71 64q-10 27 -12 111q-2 88 7 165l7 54q6 52 0 69 t-5 21q1 6 11 6q23 0 58 -14l60 -24q38 -15 42 -26q1 -3 -3 -11q-15 -28 -21 -173l-4 -85l1 -31v-10q1 -5 6 -7q3 2 4 3l4 9q17 43 32 107q18 76 25 139l9 73q2 19 -2 32q-3 12 9 12q24 0 84 -22q65 -23 71 -39z" />
<glyph unicode="&#xfc;" horiz-adv-x="454" d="M418 616l-4 -28l2 -24q2 -19 -10 -31q-33 0 -75 16q-47 18 -64 42l3 6l1 36l4 27q3 24 22 24q5 0 26 -6l25 -7l44 -16q16 -8 21 -18t5 -21zM222 619l-4 -55q0 -9 -5 -12l-7 -3l-14 -8l-11 3l-34 10l-35 16q-31 14 -46 31l2 13l2 27q4 51 28 51q13 0 34 -7l20 -7 q29 -10 43 -22l12 -11l10 -9q5 -4 5 -17zM438 439q1 -3 -1 -10l-6 -11q-2 -4 -3 -18l-6 -62l-6 -206q-2 -87 8 -126q4 -16 -12 -16q-41 0 -90 21q-45 19 -53 39q-1 4 -1 13l9 124q-1 4 -5 4q-1 0 -2 -2l-3 -7l-4 -23q-9 -49 -38 -107q-27 -52 -45 -52q-15 0 -54 16 q-55 23 -71 64q-10 27 -12 111q-2 88 7 165l7 54q6 52 0 69q-7 17 -5 21q0 6 10 6q24 0 59 -14l60 -24q38 -15 42 -26q1 -3 -3 -11q-15 -28 -22 -173l-3 -85v-31l1 -10q1 -5 6 -7q3 2 4 3l3 9q18 43 33 107q18 76 25 139l8 73q3 19 -1 32q-3 12 9 12q24 0 84 -22 q65 -23 71 -39z" />
<glyph unicode="&#xfd;" horiz-adv-x="450" d="M293 681q3 -7 -9 -30l-12 -25l-28 -30q-4 -7 -16.5 -29.5t-42.5 -22.5q-52 0 -61 23q-1 5 0 9l37 109q3 10 12 10l18 -2l33 2q60 4 69 -14zM403 432q2 -7 -5 -27q-13 -32 -13 -213l-1 -219q-1 -99 -22 -127q-30 -38 -97 -38q-42 0 -111.5 23.5t-110.5 51.5l-45 31l-10 6 q-9 8 -9 21q0 18 24 38q33 27 55 27q10 0 14 -5l3 -5q7 -18 52 -42.5t69 -24.5q21 0 30 17q11 21 12 58l1 32l6 136q-1 4 -4 4q-2 0 -3 -2l-2 -11l-12 -45l-22 -65q-15 -46 -38 -46q-36 0 -84.5 32t-60.5 65q-18 48 -10 146q0 6 2 96q2 36 5 73q3 55 -1 66q-4 22 15 22 q25 0 88 -23q67 -25 73 -41q2 -4 -3 -9l-7 -7q-4 -5 -5 -18l-4 -59l-4 -79q-4 -79 -2 -136l1 -9q0 -5 8 -7l3 1l4 7l6 19l17 60q13 44 22 131q11 93 5 131l-3 18q-2 14 9 14q21 0 65 -17l47 -18q47 -18 53 -33z" />
<glyph unicode="&#xfe;" horiz-adv-x="459" d="M390 416q17 -47 21 -124q3 -79 -9 -150.5t-20 -92.5q-21 -58 -63 -58q-51 0 -153 61l2 -76q1 -55 9 -100q3 -13 -10 -13q-37 0 -110 29q-60 24 -51 52l5 17q8 25 9 173l1 472q0 26 -3 35t-4 16q-1 8 0.5 11.5t15.5 3.5q26 0 89 -19q69 -20 75 -37q2 -4 -2 -12 q-7 -9 -8 -25l-16 -243q1 -3 4 -3l1 2l3 9l5 33q10 56 29 101q6 13 25 13q61 0 117 -32q27 -15 38 -43zM249 417l-2 4q-3 3 -6 3q-6 0 -7 -4l-6 -8q0 -1 -9 -33l-19 -68q-17 -59 -24 -121q-5 -47 -3 -62q3 -43 31 -43q31 0 42 93q12 105 12 162q0 42 -6 65l-3 11v1z" />
<glyph unicode="&#xff;" horiz-adv-x="450" d="M388 616l-4 -28l1 -24q1 -19 -11 -31q-34 0 -75 16q-46 18 -62 42l3 6l2 36l5 27q4 24 23 24q5 0 26 -6l24 -7l44 -16q16 -8 20 -18t4 -21zM192 630q1 -2 0 -11l-5 -55q-1 -9 -6 -12l-7 -3l-14 -8l-11 3l-34 10l-34 16q-31 14 -45 31l3 13l2 27q5 51 30 51q13 0 33 -7 l21 -7q28 -10 41 -22l12 -11l10 -9q3 -2 4 -6zM408 432q3 -7 -5 -27q-14 -32 -21 -213l-9 -219q-4 -99 -26 -127q-31 -38 -98 -38q-42 0 -111 23.5t-109 51.5l-43 31l-10 6q-8 8 -8 20q0 18 25 39q34 27 56 27q10 0 14 -5l2 -5q7 -18 51.5 -42.5t68.5 -24.5q20 0 30 17 q11 21 14 58l2 32l11 136q-2 4 -5 4q-1 0 -2 -2l-3 -11l-14 -45l-23 -65q-17 -46 -40 -46q-35 0 -82.5 32t-59.5 65q-16 48 -5 146q1 6 6 96q3 36 7 72q5 56 2 67q-3 22 16 22q24 0 86 -23q67 -24 73 -41q1 -4 -4 -9l-7 -7q-4 -5 -6 -18l-6 -59l-7 -79q-7 -79 -6 -136v-9 q0 -5 8 -7l3 1l4 7l7 19l19 60q14 43 27 131q14 93 9 131l-2 18q-2 14 9 14q21 0 65 -17l46 -18q46 -18 51 -33z" />
<glyph unicode="&#x152;" horiz-adv-x="806" d="M746 545q7 -21 -10 -21q-12 0 -22 3q-4 1 -23 1l-108 -2l-6 -142l84 -3q5 0 13 2l7 2q15 0 42 -38q14 -19 23.5 -37.5t16.5 -40.5q10 -28 -3 -28l-7 1q-26 8 -119 8q-27 0 -60 -4l1 -110l129 -4l16 2l12 4q9 0 24 -24l20 -33q25 -40 34 -68q7 -19 -10 -19q-10 0 -16 1 q-12 4 -51 4l-226 -1q-17 -1 -31 22l-12 19l-5 8q-17 -23 -49.5 -39.5t-63.5 -16.5q-81 0 -181 59q-107 63 -132 136q-9 25 -9 60q0 55 22 138q33 131 100 243q5 9 8 19v19q0 11 8 11l9 -2l34 -8q71 -17 132 -64q6 -1 51 -15l12 -4l-2 7l-15 35l-12 30q-3 8 1 12.5t14 3.5 l14 -1l70 -3l155 -2l26 2l10 1q25 -16 51 -55q23 -35 34 -68zM381 507q-18 25 -47 29q-24 0 -37 -25q-12 -13 -41 -97q-26 -78 -37 -160q-9 -77 4 -114q6 -20 27 -36.5t40 -16.5q29 0 50 42q32 63 42 152l12 103q6 60 -1 95q1 10 -12 28z" />
<glyph unicode="&#x153;" horiz-adv-x="674" d="M614 357q8 -25 12 -75q6 -91 -16 -91l-201 2l-1 -10v-41q0 -23 4 -35q9 -26 35 -26q19 0 37 14.5t19 33t14 18.5q25 0 66 -15q48 -18 54 -36q3 -9 -12 -23q-3 -1 -5.5 -5t-6.5 -9q-20 -30 -58 -47t-76 -17q-52 0 -94 19t-74 54q-33 -75 -98 -75q-60 0 -124 34 q-70 37 -88 90q-9 24 -9 58q0 76 38 190q0 1 24 56q19 44 17 52q-2 9 0 13q4 2 12 2q49 0 112 -37l10 -6q45 -9 96 -39l20 61q-4 13 9 13q50 0 106 -27h13q132 0 165 -96zM461 390q-24 0 -33 -49l-6 -34q1 -3 0 -4q1 -1 -1 -7l68 -2q4 22 3 41q0 55 -31 55zM223 392 q-30 0 -55 -85q-14 -48 -19 -118q-5 -69 2 -91q5 -13 18 -24t25 -11q29 0 47 59q4 15 16 82t12 110q0 78 -46 78z" />
<glyph unicode="&#x178;" horiz-adv-x="451" d="M401 792q0 -2 -1 -9l-3 -29v-21q1 -20 -8 -31q-5 6 -8 6l-6 -2h-5q-33 0 -66 13q-38 15 -54 38l2 7l3 36l4 27q3 24 24 24q3 0 25 -6l25 -7l21 -8l22 -8q17 -6 22 -20zM197 794q2 -5 0 -12l-5 -54q1 -9 -6 -13l-6 -3l-15 -8l-11 4l-33 9l-35 16q-28 13 -44 31l2 14l2 27 q6 51 30 51q15 0 33 -7l21 -8q32 -12 42 -21l11 -11l10 -9zM507 579q2 -5 -11 -16q-5 -8 -11 -22l-27 -72q-31 -81 -74 -252q-42 -165 -38 -190l4 -18q2 -13 -16 -13q-31 0 -104 31q-78 32 -86 55q-1 5 5 14q23 34 33 68l18 59l-150 328q-29 62 -40 79q-4 5 -9 14 q-5 14 46 21q34 5 62 5q56 0 72 -5t20 -15q1 -4 0 -4l-2 -12q0 -10 7 -29l58 -159l31 138l6 41q4 21 4 26q-3 19 11 19q21 0 62 -19q6 -2 12 -5l67 -32q46 -22 50 -35z" />
<glyph unicode="&#x2c6;" horiz-adv-x="1000" />
<glyph unicode="&#x2dc;" horiz-adv-x="1000" />
<glyph unicode="&#x2000;" horiz-adv-x="449" />
<glyph unicode="&#x2001;" horiz-adv-x="899" />
<glyph unicode="&#x2002;" horiz-adv-x="449" />
<glyph unicode="&#x2003;" horiz-adv-x="899" />
<glyph unicode="&#x2004;" horiz-adv-x="299" />
<glyph unicode="&#x2005;" horiz-adv-x="224" />
<glyph unicode="&#x2006;" horiz-adv-x="149" />
<glyph unicode="&#x2007;" horiz-adv-x="149" />
<glyph unicode="&#x2008;" horiz-adv-x="112" />
<glyph unicode="&#x2009;" horiz-adv-x="179" />
<glyph unicode="&#x200a;" horiz-adv-x="49" />
<glyph unicode="&#x2010;" horiz-adv-x="308" d="M251 314q9 -25 11 -45l3 -34q2 -30 -12 -31l-10 2q-5 1 -42 2l-103 3l-26 -1q-14 -1 -50 -3l-14 -1q-24 -2 -33 24q-8 20 -9 39l-2 35q-2 29 16 29q7 0 11 -1l14 -4h124q66 0 92 3l9 1q14 0 21 -18z" />
<glyph unicode="&#x2011;" horiz-adv-x="308" d="M251 314q9 -25 11 -45l3 -34q2 -30 -12 -31l-10 2q-5 1 -42 2l-103 3l-26 -1q-14 -1 -50 -3l-14 -1q-24 -2 -33 24q-8 20 -9 39l-2 35q-2 29 16 29q7 0 11 -1l14 -4h124q66 0 92 3l9 1q14 0 21 -18z" />
<glyph unicode="&#x2012;" horiz-adv-x="308" d="M251 314q9 -25 11 -45l3 -34q2 -30 -12 -31l-10 2q-5 1 -42 2l-103 3l-26 -1q-14 -1 -50 -3l-14 -1q-24 -2 -33 24q-8 20 -9 39l-2 35q-2 29 16 29q7 0 11 -1l14 -4h124q66 0 92 3l9 1q14 0 21 -18z" />
<glyph unicode="&#x2013;" d="M417 317q12 -35 13 -77q1 -19 -2 -28.5t-10 -8.5l-12 1q-71 6 -115 5l-65 -1h-42l-49 -2q-7 0 -30 -2l-14 -1q-28 -2 -35 42q-2 9 -3 21l-2 38q-1 27 17 27l11 -1q46 -4 48 -4h18l178 1q13 0 33.5 2t28.5 2h10q16 2 22 -14z" />
<glyph unicode="&#x2014;" horiz-adv-x="601" d="M546 317q9 -25 10 -50l2 -35q1 -13 -2.5 -20t-11.5 -6l-12 1q-11 0 -39 1l-59 2h-358q-17 0 -49 -2l-22 -1q-21 -3 -32 25q-9 22 -8 45l1 32q0 25 15 25l10 -1q42 -4 44 -4h42l36 1h380q7 0 13 2l17 2q17 0 23 -17z" />
<glyph unicode="&#x2018;" horiz-adv-x="263" d="M292 626q2 -4 2 -10l-3 -19l-4 -60q-3 -35 0 -47q1 -13 -2.5 -17t-17.5 -4q-8 0 -23 4q-18 5 -21 6l-10 5l-8 2l-8 4l-17 3q-6 1 -15.5 9t-11.5 14t5 21q13 27 15 95q1 15 2 34q3 6 17 8q2 0 6.5 -1.5t13.5 -5.5l18 -4q53 -12 62 -37z" />
<glyph unicode="&#x2019;" horiz-adv-x="263" d="M294 622q2 -7 -4 -19q-13 -29 -14 -87q0 -21 -1 -24q-3 -13 -16 -13l-19 6l-17 4q-56 14 -56 42l2 17l4 55q2 29 0 42q-3 11 2 15t17 4l31 -7q2 0 9 -3l8 -4l7 -2l7 -3l15 -3q5 -2 14 -9.5t11 -10.5z" />
<glyph unicode="&#x201a;" horiz-adv-x="263" d="M53 35q3 -8 -3 -19q-14 -30 -14 -86q0 -26 -3 -31.5t-15 -5.5l-18 5l-17 5q-25 8 -36 13q-20 12 -20 29l2 17l3 54q0 27 3 57q2 4 16 4l31 -6q4 0 9 -3l8 -5l7 -1l8 -4l15 -3q5 0 14 -9q8 -5 10 -11z" />
<glyph unicode="&#x201c;" horiz-adv-x="424" d="M462 617q3 -7 2 -11l-2 -19l-5 -60q-2 -35 1 -47q1 -21 -20 -21q-4 0 -12 2t-12 2q-18 4 -21 7l-10 5l-7 2l-9 4l-17 3q-9 2 -22 15q-3 4 -5 8q-2 7 4 20q15 31 16 96q1 29 2 35q6 6 17 7q3 -1 8 -3q1 0 12 -4l19 -5q54 -14 61 -36zM305 627q2 -7 -1 -22l-4 -47 q-1 -26 -2 -53q-2 -39 -11 -38l-13 3l-10 -1l-8 4l-9 2q-6 2 -20 6l-20 8l-20 5q-21 5 -27 22q-3 8 4 18q2 5 9 51q3 14 2 15q7 19 3 29l-1 8l5 5v7q2 24 16 24q11 0 20 -4l33 -14l34 -10l9 -5l7 -3q1 -1 4 -10z" />
<glyph unicode="&#x201d;" horiz-adv-x="424" d="M461 618q2 -5 -3 -22q-6 -21 -6 -23l-6 -39q-5 -19 -2 -29l1 -8l-4 -5l-1 -8q-4 -24 -16 -24q-9 0 -19 4l-35 15l-32 10l-16 8q-3 2 -5 9q-3 9 1 22q2 9 5 45l1 49q1 44 12 45l13 -3l8 1l9 -4l9 -2q3 0 21 -7l19 -7l21 -5q19 -5 25 -22zM299 626q2 -7 -4 -20 q-16 -32 -15 -96q0 -22 -1 -27q-3 -14 -18 -14q-5 0 -22 7l-18 4q-52 11 -61 37q-2 6 -1 10l2 19l4 60q2 36 -1 47q-4 21 20 21l36 -7l10 -3l10 -6l7 -1l9 -5l16 -3q4 0 16 -9q8 -8 11 -14z" />
<glyph unicode="&#x201e;" horiz-adv-x="424" d="M263 54q4 -9 -2 -18.5t-8 -26.5l-5 -39q-5 -19 -2 -29l1 -8l-5 -5v-8q-1 -24 -16 -24q-10 0 -20 4l-34 15l-33 10l-9 5l-6 3q-3 2 -5 9q-3 8 0.5 22t4.5 45l2 49q1 25 3 34.5t8 10.5l14 -3l8 1l9 -4l8 -2q6 -1 22 -7l19 -7l21 -5q19 -5 25 -22zM100 63q3 -8 -3 -21 q-16 -32 -15 -96q0 -23 -1 -27q-4 -14 -19 -14q-4 0 -21 7l-18 5q-54 14 -62 36q0 2 -1 10l3 19l4 60q2 36 -1 47q-4 21 20 21l36 -7q5 0 9 -3l11 -6l7 -1l8 -5l17 -3q4 0 16 -9q8 -8 10 -13z" />
<glyph unicode="&#x2022;" horiz-adv-x="667" d="M473 339q10 -28 10 -51q0 -40 -27 -64t-68 -24q-57 0 -113.5 40.5t-78.5 98.5q-10 27 -10 49q0 41 27.5 65.5t68.5 24.5q59 0 114.5 -41.5t76.5 -97.5z" />
<glyph unicode="&#x2026;" horiz-adv-x="690" d="M555 92l-5 -86q0 -13 -8 -13l-11 2l-17 5q-104 31 -96 57l5 38l2 48q1 12 6 12q2 0 20 -5l32 -9l33 -11q40 -14 39 -38zM325 92l-5 -86q0 -13 -8 -13l-11 2l-17 5q-88 26 -95 48q-1 3 -1 9l5 38l2 48q1 12 6 12q2 0 20 -5l32 -9l33 -11q40 -14 39 -38zM95 92l-5 -86 q0 -13 -8 -13l-11 2l-17 5q-88 26 -95 48q-1 3 -1 9l5 38l2 48q1 12 7 12q1 0 19 -5l32 -9l33 -11q40 -14 39 -38z" />
<glyph unicode="&#x202f;" horiz-adv-x="179" />
<glyph unicode="&#x2039;" horiz-adv-x="258" d="M133 339q14 -40 12 -70l-33 -12q-25 -9 -22 -17q4 -10 20 -22l19 -14l15 -15l17 -13q17 -12 20 -22l2 -8l2 -30q4 -45 -4 -45q-4 0 -11 5l-13 11l-24 17q-28 18 -67 47l-27 25l-18 15q-10 7 -14 19q-7 18 -10 82q-1 29 3 36t23 10l34 5l29 6q10 4 30 10q10 0 17 -20z" />
<glyph unicode="&#x203a;" horiz-adv-x="256" d="M202 295q0 -2 3 -50q2 -26 -3 -34.5t-23 -11.5l-33 -5l-29 -6q-12 -1 -20 -6q-3 -2 -11 -4q-10 0 -16 20q-14 40 -13 70l35 11q24 8 21 17q-4 11 -20 23l-19 14l-15 14l-18 14q-16 13 -19 22l-2 8l-2 30l-2 25q-1 19 8 19q4 0 9 -4l13 -12l24 -16q27 -18 67 -47l26 -25 l19 -15q16 -13 20 -51z" />
<glyph unicode="&#x205f;" horiz-adv-x="224" />
<glyph unicode="&#x2122;" horiz-adv-x="763" d="M772 608l-1 -8q-1 -9 -2 -30l-4 -62q-2 -38 -2 -99q0 -27 2 -77l4 -36l1 -3l2 -4q3 -8 -9 -8q-29 0 -66.5 13t-57.5 30q8 22 11 65l7 121l-44 -185l-2 -19l-1 -11q0 -14 -12 -14q-18 0 -58.5 17t-56.5 30v19l1 15v19l-4 138l-22 -117q-12 -67 -10 -101q1 -13 -8 -13 q-19 0 -54 16.5t-53 32.5q12 28 20 64l50 257q-3 13 8 13q14 0 56 -13q39 -12 77 -28q27 -12 30 -20q1 -2 -2 -9l-2 -10v-10l1 -95l42 168q1 15 9 15q20 0 82.5 -24t67.5 -37zM350 586q4 -12 -5 -14l-9 2q-10 2 -27 3l-28 1v-5l-3 -62l-1 -184q1 -20 4 -28t1 -12 q-1 -4 -6 -3h-6l-19 4q-85 18 -91 35q-2 5 2 51l3 30l4 176h-37q-3 -3 -6 -3q-6 0 -21 23q-11 19 -16 30l-2 6l-6 16l-2 12q1 3 6 4l11 -1l19 -1l42 -1h126l9 2q9 0 18 -9q5 -5 20.5 -33t19.5 -39z" />
<glyph unicode="&#xe000;" horiz-adv-x="505" d="M0 505h505v-505h-505v505z" />
</font>
</defs>
</svg>
