<?xml version="1.0" standalone="no"?>
<!DOCTYPE svg PUBLIC "-//W3C//DTD SVG 1.1//EN" "http://www.w3.org/Graphics/SVG/1.1/DTD/svg11.dtd" >
<svg xmlns="http://www.w3.org/2000/svg">
<metadata></metadata>
<defs>
<font id="madisonsquareincised" horiz-adv-x="568" >
<font-face units-per-em="1000" ascent="800" descent="-200" />
<missing-glyph horiz-adv-x="275" />
<glyph horiz-adv-x="1000" />
<glyph horiz-adv-x="1000" />
<glyph unicode="&#xd;" horiz-adv-x="275" />
<glyph unicode=" "  horiz-adv-x="275" />
<glyph unicode="&#x09;" horiz-adv-x="275" />
<glyph unicode="&#xa0;" horiz-adv-x="275" />
<glyph unicode="!" horiz-adv-x="216" d="M190 193h-64v562h64v-562zM89 193h-65v562h65v-562zM190 -2h-64v150h64v-150zM89 -2h-65v150h65v-150z" />
<glyph unicode="&#x22;" horiz-adv-x="216" d="M190 579h-64v176h64v-176zM89 579h-65v176h65v-176z" />
<glyph unicode="#" horiz-adv-x="461" d="M440 637l-13 -64h-176l37 171h65l-23 -107h110zM252 744l-37 -171h-172l14 64h107l23 107h65zM419 536l-14 -65h-111l-39 -181h-64l53 246h175zM207 536l-53 -246h-65l39 181h-107l14 65h172z" />
<glyph unicode="$" horiz-adv-x="571" d="M513 667h-90q-70 0 -132 -28v181h64v-94q33 6 68 6h90v-65zM424 378q-22 -94 -100.5 -154.5t-175.5 -60.5h-90v64h90q108 0 175 87h-297l16 96q23 139 132 230q1 1 16 13v167h64v-201q-122 -75 -148 -219l-4 -22h322zM545 479l-17 -96q-25 -141 -131 -230 q-17 -15 -42 -31v-152h-64v190q67 32 113.5 95t60.5 138l4 22h-322q20 86 93 148q80 68 183 68h90v-65h-90q-108 0 -175 -87h297zM254 -30h-64v94q-14 -2 -42 -2h-90v64h90q57 0 106 18v-174z" />
<glyph unicode="&#x26;" horiz-adv-x="692" d="M668 436h-172v112h64v-48h108v-64zM559 589h-260q2 -7 6 -19q14 -42 43 -80q28 6 46 8v50h65v-112h-17q-57 0 -114 -19q-98 98 -104 237h335v-65zM668 335h-108v-335h-536v83q0 98 46.5 189t125.5 147q-74 117 -74 253v83h437v-65h-373v-18q0 -155 105 -270 q-92 -46 -147 -130q-55 -87 -55 -189v-19h407v335h172v-64zM459 101h-333q8 125 99.5 211.5t216.5 86.5h17v-298zM395 166l-1 164q-66 -13 -116.5 -56.5t-73.5 -107.5h191z" />
<glyph unicode="'" horiz-adv-x="112" d="M89 577h-65v178h65v-178z" />
<glyph unicode="(" horiz-adv-x="368" d="M358 41l-37 -56q-92 61 -144.5 158t-52.5 206q0 110 52.5 207t144.5 158l37 -56q-79 -51 -124 -133.5t-45 -175.5t45.5 -175t123.5 -133zM301 -46l-33 -51q-113 72 -178.5 192t-65.5 254q0 135 65.5 254.5t178.5 192.5l33 -51q-99 -66 -156.5 -171.5t-57.5 -224.5 q0 -118 57.5 -223.5t156.5 -171.5z" />
<glyph unicode=")" horiz-adv-x="368" d="M24 41l37 -56q92 61 144.5 158t52.5 206q0 110 -52.5 207t-144.5 158l-37 -56q79 -51 124 -133.5t45 -175.5t-45.5 -175t-123.5 -133zM81 -46l33 -51q113 72 178.5 192t65.5 254q0 135 -65.5 254.5t-178.5 192.5l-33 -51q99 -66 156.5 -171.5t57.5 -224.5 q0 -118 -57.5 -223.5t-156.5 -171.5z" />
<glyph unicode="*" horiz-adv-x="502" d="M427 535q-16 -22 -43 -28q-26 -6 -50 10l-71 47l68 53q28 22 32 57q4 34 -18 62l35 28q33 -43 27 -96q-7 -55 -48 -87l-18 -14l18 -12q7 -5 15 -3q10 4 13 9zM344 676q-3 -26 -25 -44l-66 -53l-30 81q-12 32 -44.5 47t-64.5 3l-16 41q23 9 47 9q40 0 73.5 -23.5 t47.5 -61.5l8 -21l16 13q6 4 8 13q0 10 -4 15l37 30q16 -21 13 -49zM479 500q-39 -59 -110 -59q-39 0 -71 22l-19 13l-5 -20q-2 -9 1.5 -16t12.5 -9l-13 -46q-26 8 -39.5 32t-6.5 50l23 82l72 -48q29 -19 64 -12q35 8 54 35zM235 573l-86 -3q-35 -1 -59 -28t-23 -60l-44 -2 q-3 54 34 94t91 42l22 1l-7 19q-3 7 -11 12q-4 2 -7 2q-4 0 -8 -2l-17 45q26 9 50.5 -2.5t34.5 -37.5zM270 367l-12 -43q-42 12 -68.5 47.5t-26.5 78.5q0 17 5 35l6 21l-22 -1q-9 0 -14 -6t-5 -15l-47 -2q-1 28 17 48t47 21l85 4l-23 -83q-10 -34 7 -65t51 -40z" />
<glyph unicode="," horiz-adv-x="214" d="M190 -82h-41v174h-125v55h166v-229zM131 -82h-43v82h-64v55h107v-137z" />
<glyph unicode="-" horiz-adv-x="238" d="M214 394h-190v64h190v-64zM214 292h-190v65h190v-65z" />
<glyph unicode="." horiz-adv-x="214" d="M190 0h-64v150h64v-150zM89 0h-65v150h65v-150z" />
<glyph unicode="0" d="M542 -4h-520v318q0 181 128 309t309 128h83v-755zM478 61v626h-19q-153 0 -263 -110t-110 -263v-253h392zM441 97h-318v217q0 133 93 231t225 104v-552zM377 162v411q-84 -28 -136.5 -99t-52.5 -160v-152h189z" />
<glyph unicode="1" horiz-adv-x="268" d="M243 1h-65v690h-154v65h219v-755zM141 1h-64v589h-53v65h117v-654z" />
<glyph unicode="2" horiz-adv-x="533" d="M508 672q0 -105 -55 -203q-51 -91 -139 -159q-81 -62 -108 -144h256v-65h-336q5 73 47 145q41 68 102 115q169 130 169 311v18h-373v65h437v-83zM462 0h-438v83q0 100 54 200q52 94 135 158q79 61 115 148h-257v65h336q-9 -152 -155 -264q-73 -56 -117 -135 q-46 -85 -46 -172v-19h373v-64z" />
<glyph unicode="3" horiz-adv-x="478" d="M352 654q-6 -131 -101.5 -222.5t-226.5 -94.5v65q86 2 155.5 53.5t95.5 133.5h-251v65h328zM454 0h-430v64h366v19q0 86 -39 164t-107 130q68 52 107 130.5t39 164.5v18h-366v65h430v-83q0 -169 -115 -295q115 -124 115 -294v-83zM352 101h-328v65h252q-22 65 -71 112 q-85 -40 -181 -42v64q101 1 188 55q62 -44 99.5 -111.5t40.5 -142.5z" />
<glyph unicode="4" horiz-adv-x="576" d="M550 292l-130 -1v360q21 3 42 3h75v-65h-52v-233h65v-64zM384 291h-256v27q0 115 72 207.5t184 118.5v-353zM537 690h-75q-153 0 -262 -109.5t-109 -262.5v-63h293v-255h-65v190h-293v128q0 180 128.5 308.5t307.5 128.5h75v-65zM550 190h-65v-190h-65v255h130v-65z M319 356v192q-107 -69 -124 -192h124z" />
<glyph unicode="5" horiz-adv-x="499" d="M401 690h-314l1 -272h287q-8 -131 -105.5 -224t-229.5 -93v65q88 0 158.5 51.5t99.5 135.5h-275v402h378v-65zM476 436q0 -180 -128 -308t-308 -128v64q152 0 262 110t110 262v19h-288v199h277v-65h-212v-70h287v-83z" />
<glyph unicode="6" horiz-adv-x="606" d="M581 0h-557v318q0 181 128 309t309 128h37v-65h-37q-154 0 -263.5 -109.5t-109.5 -262.5v-254h429v19q0 150 -106 259t-256 114q41 89 124.5 143.5t181.5 54.5h37v-65h-38q-111 0 -191 -80l-5 -5q140 -41 228.5 -158t88.5 -263v-83zM479 101h-354v217q0 50 16 101h3 q133 0 231 -93t104 -225zM403 166q-25 72 -81 121.5t-130 63.5q-2 -11 -2 -33v-152h213z" />
<glyph unicode="7" horiz-adv-x="412" d="M384 525q-15 -82 -59 -150l-89 -139q-27 -42 -37 -93q-11 -57 -1 -101l10 -42h-67l-6 30q-12 59 0.5 124t46.5 117l89 139q37 58 50 127q14 74 0 139l-3 14h-294v65h347l13 -67q16 -80 0 -163zM287 654q19 -119 -48 -224l-88 -139q-39 -62 -52 -129q-6 -30 -4 -70 q4 -67 4 -69l5 -23h-66q-6 28 -7 87q-1 58 5 87q17 85 60 152l89 138q34 53 41 125h-202v65h263zM135 31v-1v1z" />
<glyph unicode="8" horiz-adv-x="596" d="M580 755l-29 -105q-17 -62 -48.5 -115t-76.5 -98l-11 -11l8 -7q62 -55 105 -153q38 -87 41 -180l3 -86h-548l3 86q3 92 42 180q45 101 104 153l8 7l-11 11q-91 91 -125 213l-29 105h564zM505 64v19q0 75 -36 157q-34 77 -91 133l-54 53l57 57q75 75 108 184l7 23h-395 l6 -23q27 -103 108 -184l57 -57l-53 -53q-60 -60 -92 -133q-30 -69 -35 -157l-1 -19h414zM446 654q-27 -81 -91 -145l-57 -57l-57 57q-64 64 -91 145h296zM467 101h-337q10 142 114 246l54 54l54 -54q102 -102 115 -246zM340 589h-84q20 -24 31 -34l11 -12l12 12 q18 18 30 34zM389 166q-4 11 -13 34q-24 56 -69 101l-9 9l-8 -9q-50 -56 -70 -101q-3 -7 -13 -34h182z" />
<glyph unicode="9" horiz-adv-x="608" d="M480 438q0 -51 -16 -102h-3q-133 0 -231 93t-104 226h354v-217zM581 438q0 -181 -128 -309t-309 -128h-37v64h37q153 0 263 110t110 263v253h-429v-18q0 -151 105.5 -259.5t256.5 -113.5q-41 -90 -124 -144t-182 -54h-37v65h38q112 0 191 79q1 1 2.5 3t2.5 3 q-140 41 -228.5 158t-88.5 263v83h557v-318zM416 438v152h-213q22 -71 79.5 -121.5t131.5 -63.5q2 22 2 33z" />
<glyph unicode=":" horiz-adv-x="214" d="M190 276h-64v150h64v-150zM89 276h-65v150h65v-150zM190 -1h-64v150h64v-150zM89 -1h-65v150h65v-150z" />
<glyph unicode=";" horiz-adv-x="214" d="M190 276h-64v150h64v-150zM89 276h-65v150h65v-150zM190 -82h-41v174h-125v55h166v-229zM131 -82h-43v82h-64v55h107v-137z" />
<glyph unicode="?" horiz-adv-x="530" d="M506 755l-3 -85q-5 -133 -97 -225l-83 -83q-21 -21 -35 -52t-14 -61v-56h-64l-1 58q-1 37 20 85q18 41 49 72l83 83q37 37 56 82q22 52 22 99v18h-350v-165h-65v230h482zM401 654q-10 -81 -66 -137l-83 -83q-79 -79 -79 -182v-59h-65v59q0 61 28 124q25 57 71 103l83 83 q10 10 22 27h-122v-64h-65v129h276zM275 -2h-64v150h64v-150zM174 -2h-65v150h65v-150z" />
<glyph unicode="@" horiz-adv-x="808" d="M547 562v-242h121q1 2 1.5 5t0.5 4q4 32 4 48q0 111 -79.5 190t-190.5 79t-190 -79t-79 -190q0 -112 79 -191t190 -79q92 0 164 56l28 -37q-84 -65 -192 -65q-130 0 -223 93t-93 223t92.5 222.5t223.5 92.5q130 0 223 -92.5t93 -222.5q0 -49 -17 -103h-202v242h-9 q-92 0 -157 -65t-65 -157v-38h446l2 6q20 60 20 115q0 138 -98 236t-236 98t-236 -98t-98 -236t98 -236t236 -98q113 0 203 68l28 -36q-103 -78 -231 -78q-157 0 -268.5 111.5t-111.5 268.5t111.5 268.5t268.5 111.5t268.5 -111.5t111.5 -268.5q0 -67 -23 -131l-13 -36h-524 v84q0 111 78.5 189.5t189.5 78.5h55zM483 274h-195v20q0 82 57 141t138 62v-223zM437 320v122q-30 -11 -56 -37q-37 -37 -44 -85h100z" />
<glyph unicode="A" horiz-adv-x="631" d="M505 396h-308q27 108 111.5 179t196.5 78v-257zM607 0h-65v690h-18q-132 0 -235 -83t-130 -211h-135v64h86q46 132 160 213.5t254 81.5h83v-755zM505 0h-64v295h-189v-295h-64v318q0 15 2 41h315v-359zM153 359q-2 -26 -2 -41v-318h-65v295h-62v64h129zM441 460v116 q-95 -29 -148 -116h148z" />
<glyph unicode="B" horiz-adv-x="565" d="M543 0h-520v755h520v-83q0 -110 -51 -204q-27 -49 -64 -91q115 -126 115 -294v-83zM479 64v19q0 85 -39 163.5t-107 130.5q69 54 107.5 131.5t38.5 163.5v18h-392v-626h392zM441 654q-6 -156 -140 -255q-82 51 -177 55v200h317zM441 101h-317v316q127 -6 219 -98t98 -218 zM365 589h-176v-78q52 -10 105 -34q30 29 52 69q12 23 19 43zM364 166q-42 132 -175 174v-174h175z" />
<glyph unicode="C" horiz-adv-x="522" d="M498 101h-37q-139 0 -237.5 99.5t-98.5 236.5v217h373v-65h-308v-152q0 -113 79 -192t192 -79h37v-65zM498 0h-37q-181 0 -309 128t-128 309v318h474v-65h-410v-253q0 -153 110 -263t263 -110h37v-64z" />
<glyph unicode="D" d="M544 437q0 -181 -128 -309t-309 -128h-83v755h520v-318zM480 437v253h-392v-626h19q153 0 263 110t110 263zM443 437q0 -133 -93 -231t-225 -104v552h318v-217zM379 437v152h-189v-410q84 27 136.5 98.5t52.5 159.5z" />
<glyph unicode="E" horiz-adv-x="519" d="M498 589h-308v-111h189v-64h-253q-1 7 -1 23v217h373v-65zM498 0h-37q-181 0 -309 128t-128 309v318h474v-65h-410v-253q0 -153 110 -263t263 -110h37v-64zM498 101h-37q-138 0 -237 99q-75 75 -94 177h249v-65h-159q21 -38 49 -67q78 -79 192 -79h37v-65z" />
<glyph unicode="F" horiz-adv-x="524" d="M500 589h-38q-75 0 -141 -40t-101 -107h160v-64h-249q21 119 115.5 197.5t215.5 78.5h38v-65zM500 690h-38q-156 0 -264.5 -109.5t-108.5 -262.5v-318h-65v318q0 180 129 308.5t309 128.5h38v-65zM380 277h-190v-277h-65v318q0 4 1 12v11h254v-64z" />
<glyph unicode="G" horiz-adv-x="606" d="M582 588h-392v-152q0 -99 64.5 -175t161.5 -93v126h-104v64h168v-258h-19q-139 0 -237 98.5t-98 237.5v217h456v-65zM582 -1h-121q-180 0 -308.5 128.5t-128.5 308.5v318h558v-64h-493v-254q0 -153 109.5 -263t262.5 -110h56v332h-205v64h270v-460z" />
<glyph unicode="H" horiz-adv-x="634" d="M612 0h-65v755h65v-755zM510 396h-275v359h64v-295h147v295h64v-359zM198 396h-174v64h109v295h65v-359zM510 0h-64v295h-147v-295h-64v359h275v-359zM198 0h-65v295h-109v64h174v-359z" />
<glyph unicode="I" horiz-adv-x="211" d="M190 0h-64v755h64v-755zM89 0h-65v755h65v-755z" />
<glyph unicode="J" horiz-adv-x="522" d="M498 437q0 -181 -128 -309t-309 -128h-37v64h37q153 0 263 110t110 263v253h-410v65h474v-318zM397 437q0 -137 -98.5 -236.5t-237.5 -99.5h-37v65h37q113 0 192 79t79 192v152h-308v65h373v-217z" />
<glyph unicode="K" d="M442 672q0 -170 -140 -273q-82 51 -177 55v301h65v-244q52 -10 105 -34q33 33 52 68q31 57 31 127v83h64v-83zM544 0h-65v83q0 153 -109 263q-6 6 -36 31q145 114 145 295v83h65v-83q0 -161 -115 -295q115 -125 115 -294v-83zM442 0h-64v83q0 87 -52.5 159t-135.5 98 v-340h-65v417q132 -6 224.5 -103.5t92.5 -230.5v-83zM88 0h-64v755h64v-755z" />
<glyph unicode="L" horiz-adv-x="456" d="M432 101h-306v654h64v-589h242v-65zM432 0h-408v755h65v-691h343v-64z" />
<glyph unicode="M" horiz-adv-x="753" d="M730 0h-64v690h-19q-161 0 -270 -116q-109 116 -270 116h-18v-690h-65v755h83q149 0 270 -94q121 94 270 94h83v-755zM629 0h-65v576q-15 -4 -31 -12q-54 -25 -93 -71l-63 -74l-63 74q-39 46 -93 71q-18 9 -31 12v-576h-64v653q64 -3 122 -30q69 -32 115 -88l14 -17 l14 17q92 111 238 118v-653z" />
<glyph unicode="N" d="M544 0h-64v755h64v-755zM443 479q-45 96 -137 153.5t-199 57.5h-19v-690h-64v755h83q151 0 272 -95v95h64v-276zM443 0h-64v319q0 87 -53 159t-136 98v-576h-65v653q133 -8 225.5 -104.5t92.5 -229.5v-319z" />
<glyph unicode="O" d="M544 -1h-83q-181 0 -309 128t-128 309v318h520v-755zM480 63v626h-392v-253q0 -153 110 -263t263 -110h19zM443 101q-132 6 -225 104t-93 231v217h318v-552zM379 177v411h-189v-152q0 -89 52.5 -160t136.5 -99z" />
<glyph unicode="P" d="M442 654q-6 -127 -97.5 -218t-219.5 -99v317h317zM544 672q0 -156 -100.5 -278t-253.5 -150v-244h-65v301q148 6 251.5 114.5t103.5 256.5v18h-392v-690h-64v755h520v-83zM365 589h-175v-175q134 46 175 175z" />
<glyph unicode="Q" d="M544 0h-64v75q0 94 -52 174q52 87 52 188v253h-392v-626h19q154 0 263 110q23 23 36 41q37 -68 37 -140v-75h-64v75v10q-1 6 -1 9q-119 -94 -271 -94h-83v755h520v-318q0 -98 -42 -187q42 -82 42 -175v-75zM443 437q0 -83 -39 -156q-87 101 -214 113v-37 q116 -12 194 -110q-45 -64 -113.5 -102.5t-145.5 -42.5v552h318v-217zM379 437v152h-189v-130q98 -7 185 -65q4 28 4 43zM298 244q-47 39 -108 48v-113q61 19 108 65z" />
<glyph unicode="R" d="M442 655q-6 -156 -140 -255q-82 51 -177 55v200h317zM544 1h-65v83q0 153 -109 263q-19 19 -36 31q69 54 107.5 131.5t38.5 163.5v18h-392v-690h-64v755h520v-83q0 -110 -51 -204q-27 -49 -64 -91q115 -125 115 -294v-83zM442 1h-64v83q0 87 -52.5 159t-135.5 98v-340 h-65v417q132 -6 224.5 -103.5t92.5 -230.5v-83zM366 590h-176v-78q52 -10 105 -34q30 29 52 69q12 23 19 43z" />
<glyph unicode="S" horiz-adv-x="621" d="M557 690h-86q-136 0 -238.5 -85.5t-128.5 -224.5l-4 -21h377q-27 -113 -119 -185.5t-208 -72.5h-86v65h86q70 0 132 34.5t99 93.5h-357l16 97q26 156 149 260t282 104h86v-65zM597 460l-16 -97q-26 -156 -149.5 -259.5t-281.5 -103.5h-86v64h86q136 0 239 87.5t128 222.5 l4 22h-377q27 112 119.5 185t207.5 73h86v-65h-86q-70 0 -132.5 -35t-98.5 -94h357z" />
<glyph unicode="T" horiz-adv-x="454" d="M430 691h-406v64h406v-64zM430 589h-120v-589h-65v654h185v-65zM209 0h-65v589h-120v65h185v-654z" />
<glyph unicode="U" d="M443 102q-132 6 -225 104t-93 231v318h65v-318q0 -90 52 -161t137 -97v576h64v-653zM544 0h-83q-180 0 -308.5 128.5t-128.5 308.5v318h64v-318q0 -153 110 -263t263 -110h19v691h64v-755z" />
<glyph unicode="V" horiz-adv-x="570" d="M380 421v334h65v-334q0 -153 -107 -260v0v-1l-53 -52l-53 52v1v0q-107 107 -107 260v334h65v-334q0 -128 87 -215l8 -8l8 8q87 87 87 215zM285 57l79 77q118 118 118 287v334h64v-334q0 -198 -137 -332v-1l-124 -121l-124 121v1q-137 134 -137 332v334h65v-334 q0 -170 117 -287z" />
<glyph unicode="W" horiz-adv-x="798" d="M331 251l68 102l69 -102q17 -25 45 -53l8 8q87 87 87 215v334h65v-334q0 -153 -107 -260v0v-1l-53 -52q-25 23 -77 79q-17 21 -37 51q-11 -17 -36 -51q-11 -14 -78 -79l-53 52v1v0q-106 106 -106 260v334h64v-334q0 -128 87 -215l8 -8q32 32 46 53zM399 174 q16 -22 35 -40l79 -77l79 77q117 117 117 287v334h65v-334q0 -198 -137 -332v-1l-124 -121l-114 111l-114 -111l-124 121v1q-65 63 -101 151.5t-36 180.5v334h65v-334q0 -167 117 -287h1l78 -77l79 77q29 29 35 40z" />
<glyph unicode="X" horiz-adv-x="537" d="M411 683q0 -138 -96 -234l-47 -47l-46 47q-96 98 -96 234v72h64v-72q0 -114 77 -188l1 -2l2 2q76 76 76 188v72h65v-72zM512 0h-64v70q0 153 -110 263l-44 44l47 46q107 105 107 260v72h64v-72q0 -183 -126 -306h-1q127 -127 127 -307v-70zM242 377l-44 -44 q-109 -109 -109 -263v-70h-65v70q0 180 127 307h-1q-126 126 -126 306v72h65v-72q0 -153 107 -260zM411 0h-65v70q0 112 -78 190q-78 -81 -78 -190v-70h-64v70q0 139 98 237l44 44l44 -44q99 -99 99 -237v-70z" />
<glyph unicode="Y" horiz-adv-x="536" d="M327 580q19 46 19 103v72h65v-72q0 -65 -25.5 -128t-42.5 -85q-15 -18 -75 -67l-8 8q-47 46 -62 65q-30 36 -48 80q-24 57 -24 127v72h64v-72q0 -55 20 -103q22 -54 58 -88q39 39 59 88zM351 343v-343h-64v370q67 56 83 76q21 26 49.5 95t28.5 142v72h64v-72 q0 -89 -32 -166q-28 -68 -50 -98q-25 -35 -79 -76zM250 370v-370h-65v343q-55 55 -73 78q-33 41 -55 96q-33 82 -33 166v72h65v-72q0 -77 27 -141q30 -72 50 -96q14 -18 84 -76z" />
<glyph unicode="Z" horiz-adv-x="541" d="M517 755l-3 -85q-6 -173 -126 -293l-116 -116q-37 -37 -57 -83q-2 -4 -5 -12h259v-65h-340q14 123 97 206l117 116q50 49 77 113q30 70 30 135v19h-352v65h419zM469 0h-445l3 86q6 170 128 292l117 117q34 34 55 81q2 5 5 13h-234v65h314q-10 -120 -95 -205l-117 -116 q-49 -48 -78 -115q-31 -70 -31 -135v-19h378v-64z" />
<glyph unicode="_" horiz-adv-x="333" d="M333 -85h-333v65h333v-65z" />
<glyph unicode="`" horiz-adv-x="302" d="M38 865l220 -98l25 58l-219 97z" />
<glyph unicode="a" horiz-adv-x="631" d="M24 0zM505 396h-308q27 108 111.5 179t196.5 78v-257zM607 0h-65v690h-18q-132 0 -235 -83t-130 -211h-135v64h86q46 132 160 213.5t254 81.5h83v-755zM505 0h-64v295h-189v-295h-64v318q0 15 2 41h315v-359zM153 359q-2 -26 -2 -41v-318h-65v295h-62v64h129zM441 460 v116q-95 -29 -148 -116h148z" />
<glyph unicode="b" d="M24 0zM544 0h-520v755h520v-83q0 -110 -51 -204q-27 -49 -64 -91q115 -126 115 -294v-83zM480 64v19q0 85 -39 163.5t-107 130.5q69 54 107.5 131.5t38.5 163.5v18h-392v-626h392zM442 654q-6 -156 -140 -255q-82 51 -177 55v200h317zM442 101h-317v316q127 -6 219 -98 t98 -218zM366 589h-176v-78q52 -10 105 -34q30 29 52 69q12 23 19 43zM365 166q-42 132 -175 174v-174h175z" />
<glyph unicode="c" horiz-adv-x="522" d="M24 0zM498 101h-37q-139 0 -237.5 99.5t-98.5 236.5v217h373v-65h-308v-152q0 -113 79 -192t192 -79h37v-65zM498 0h-37q-181 0 -309 128t-128 309v318h474v-65h-410v-253q0 -153 110 -263t263 -110h37v-64z" />
<glyph unicode="d" d="M24 0zM544 437q0 -181 -128 -309t-309 -128h-83v755h520v-318zM480 437v253h-392v-626h19q153 0 263 110t110 263zM443 437q0 -133 -93 -231t-225 -104v552h318v-217zM379 437v152h-189v-410q84 27 136.5 98.5t52.5 159.5z" />
<glyph unicode="e" horiz-adv-x="522" d="M24 0zM498 589h-308v-111h189v-64h-253q-1 7 -1 23v217h373v-65zM498 0h-37q-181 0 -309 128t-128 309v318h474v-65h-410v-253q0 -153 110 -263t263 -110h37v-64zM498 101h-37q-138 0 -237 99q-75 75 -94 177h249v-65h-159q21 -38 49 -67q78 -79 192 -79h37v-65z" />
<glyph unicode="f" horiz-adv-x="524" d="M24 0zM500 589h-38q-75 0 -141 -40t-101 -107h160v-64h-249q21 119 115.5 197.5t215.5 78.5h38v-65zM500 690h-38q-156 0 -264.5 -109.5t-108.5 -262.5v-318h-65v318q0 180 129 308.5t309 128.5h38v-65zM380 277h-190v-277h-65v318q0 4 1 12v11h254v-64z" />
<glyph unicode="g" horiz-adv-x="606" d="M24 0zM582 588h-392v-152q0 -99 64.5 -175t161.5 -93v126h-104v64h168v-258h-19q-139 0 -237 98.5t-98 237.5v217h456v-65zM582 -1h-121q-180 0 -308.5 128.5t-128.5 308.5v318h558v-64h-493v-254q0 -153 109.5 -263t262.5 -110h56v332h-205v64h270v-460z" />
<glyph unicode="h" horiz-adv-x="636" d="M24 0zM612 0h-65v755h65v-755zM510 396h-275v359h64v-295h147v295h64v-359zM198 396h-174v64h109v295h65v-359zM510 0h-64v295h-147v-295h-64v359h275v-359zM198 0h-65v295h-109v64h174v-359z" />
<glyph unicode="i" horiz-adv-x="214" d="M24 0zM190 0h-64v755h64v-755zM89 0h-65v755h65v-755z" />
<glyph unicode="j" horiz-adv-x="522" d="M24 0zM498 437q0 -181 -128 -309t-309 -128h-37v64h37q153 0 263 110t110 263v253h-410v65h474v-318zM397 437q0 -137 -98.5 -236.5t-237.5 -99.5h-37v65h37q113 0 192 79t79 192v152h-308v65h373v-217z" />
<glyph unicode="k" d="M24 0zM442 672q0 -170 -140 -273q-82 51 -177 55v301h65v-244q52 -10 105 -34q33 33 52 68q31 57 31 127v83h64v-83zM544 0h-65v83q0 153 -109 263q-6 6 -36 31q145 114 145 295v83h65v-83q0 -161 -115 -295q115 -125 115 -294v-83zM442 0h-64v83q0 87 -52.5 159 t-135.5 98v-340h-65v417q132 -6 224.5 -103.5t92.5 -230.5v-83zM88 0h-64v755h64v-755z" />
<glyph unicode="l" horiz-adv-x="456" d="M24 0zM432 101h-306v654h64v-589h242v-65zM432 0h-408v755h65v-691h343v-64z" />
<glyph unicode="m" horiz-adv-x="754" d="M24 0zM730 0h-64v690h-19q-161 0 -270 -116q-109 116 -270 116h-18v-690h-65v755h83q149 0 270 -94q121 94 270 94h83v-755zM629 0h-65v576q-15 -4 -31 -12q-54 -25 -93 -71l-63 -74l-63 74q-39 46 -93 71q-18 9 -31 12v-576h-64v653q64 -3 122 -30q69 -32 115 -88 l14 -17l14 17q92 111 238 118v-653z" />
<glyph unicode="n" d="M24 0zM544 0h-64v755h64v-755zM443 479q-45 96 -137 153.5t-199 57.5h-19v-690h-64v755h83q151 0 272 -95v95h64v-276zM443 0h-64v319q0 87 -53 159t-136 98v-576h-65v653q133 -8 225.5 -104.5t92.5 -229.5v-319z" />
<glyph unicode="o" d="M24 0zM544 -1h-83q-181 0 -309 128t-128 309v318h520v-755zM480 63v626h-392v-253q0 -153 110 -263t263 -110h19zM443 101q-132 6 -225 104t-93 231v217h318v-552zM379 177v411h-189v-152q0 -89 52.5 -160t136.5 -99z" />
<glyph unicode="p" d="M24 0zM442 654q-6 -127 -97.5 -218t-219.5 -99v317h317zM544 672q0 -156 -100.5 -278t-253.5 -150v-244h-65v301q148 6 251.5 114.5t103.5 256.5v18h-392v-690h-64v755h520v-83zM365 589h-175v-175q134 46 175 175z" />
<glyph unicode="q" horiz-adv-x="567" d="M24 0zM544 0h-64v75q0 94 -52 174q52 87 52 188v253h-392v-626h19q154 0 263 110q23 23 36 41q37 -68 37 -140v-75h-64v75v10q-1 6 -1 9q-119 -94 -271 -94h-83v755h520v-318q0 -98 -42 -187q42 -82 42 -175v-75zM443 437q0 -83 -39 -156q-87 101 -214 113v-37 q116 -12 194 -110q-45 -64 -113.5 -102.5t-145.5 -42.5v552h318v-217zM379 437v152h-189v-130q98 -7 185 -65q4 28 4 43zM298 244q-47 39 -108 48v-113q61 19 108 65z" />
<glyph unicode="r" d="M24 1zM442 655q-6 -156 -140 -255q-82 51 -177 55v200h317zM544 1h-65v83q0 153 -109 263q-19 19 -36 31q69 54 107.5 131.5t38.5 163.5v18h-392v-690h-64v755h520v-83q0 -110 -51 -204q-27 -49 -64 -91q115 -125 115 -294v-83zM442 1h-64v83q0 87 -52.5 159t-135.5 98 v-340h-65v417q132 -6 224.5 -103.5t92.5 -230.5v-83zM366 590h-176v-78q52 -10 105 -34q30 29 52 69q12 23 19 43z" />
<glyph unicode="s" horiz-adv-x="621" d="M24 0zM557 690h-86q-136 0 -238.5 -85.5t-128.5 -224.5l-4 -21h377q-27 -113 -119 -185.5t-208 -72.5h-86v65h86q70 0 132 34.5t99 93.5h-357l16 97q26 156 149 260t282 104h86v-65zM597 460l-16 -97q-26 -156 -149.5 -259.5t-281.5 -103.5h-86v64h86q136 0 239 87.5 t128 222.5l4 22h-377q27 112 119.5 185t207.5 73h86v-65h-86q-70 0 -132.5 -35t-98.5 -94h357z" />
<glyph unicode="t" horiz-adv-x="455" d="M24 0zM430 691h-406v64h406v-64zM430 589h-120v-589h-65v654h185v-65zM209 0h-65v589h-120v65h185v-654z" />
<glyph unicode="u" d="M24 0zM443 102q-132 6 -225 104t-93 231v318h65v-318q0 -90 52 -161t137 -97v576h64v-653zM544 0h-83q-180 0 -308.5 128.5t-128.5 308.5v318h64v-318q0 -153 110 -263t263 -110h19v691h64v-755z" />
<glyph unicode="v" horiz-adv-x="570" d="M24 0zM380 421v334h65v-334q0 -153 -107 -260v0v-1l-53 -52l-53 52v1v0q-107 107 -107 260v334h65v-334q0 -128 87 -215l8 -8l8 8q87 87 87 215zM285 57l79 77q118 118 118 287v334h64v-334q0 -198 -137 -332v-1l-124 -121l-124 121v1q-137 134 -137 332v334h65v-334 q0 -170 117 -287z" />
<glyph unicode="w" horiz-adv-x="798" d="M24 0zM331 251l68 102l69 -102q17 -25 45 -53l8 8q87 87 87 215v334h65v-334q0 -153 -107 -260v0v-1l-53 -52q-25 23 -77 79q-17 21 -37 51q-11 -17 -36 -51q-11 -14 -78 -79l-53 52v1v0q-106 106 -106 260v334h64v-334q0 -128 87 -215l8 -8q32 32 46 53zM399 174 q16 -22 35 -40l79 -77l79 77q117 117 117 287v334h65v-334q0 -198 -137 -332v-1l-124 -121l-114 111l-114 -111l-124 121v1q-65 63 -101 151.5t-36 180.5v334h65v-334q0 -167 117 -287h1l78 -77l79 77q29 29 35 40z" />
<glyph unicode="x" horiz-adv-x="536" d="M24 0zM411 683q0 -138 -96 -234l-47 -47l-46 47q-96 98 -96 234v72h64v-72q0 -114 77 -188l1 -2l2 2q76 76 76 188v72h65v-72zM512 0h-64v70q0 153 -110 263l-44 44l47 46q107 105 107 260v72h64v-72q0 -183 -126 -306h-1q127 -127 127 -307v-70zM242 377l-44 -44 q-109 -109 -109 -263v-70h-65v70q0 180 127 307h-1q-126 126 -126 306v72h65v-72q0 -153 107 -260zM411 0h-65v70q0 112 -78 190q-78 -81 -78 -190v-70h-64v70q0 139 98 237l44 44l44 -44q99 -99 99 -237v-70z" />
<glyph unicode="y" horiz-adv-x="536" d="M24 0zM327 580q19 46 19 103v72h65v-72q0 -65 -25.5 -128t-42.5 -85q-15 -18 -75 -67l-8 8q-47 46 -62 65q-30 36 -48 80q-24 57 -24 127v72h64v-72q0 -55 20 -103q22 -54 58 -88q39 39 59 88zM351 343v-343h-64v370q67 56 83 76q21 26 49.5 95t28.5 142v72h64v-72 q0 -89 -32 -166q-28 -68 -50 -98q-25 -35 -79 -76zM250 370v-370h-65v343q-55 55 -73 78q-33 41 -55 96q-33 82 -33 166v72h65v-72q0 -77 27 -141q30 -72 50 -96q14 -18 84 -76z" />
<glyph unicode="z" horiz-adv-x="541" d="M24 0zM517 755l-3 -85q-6 -173 -126 -293l-116 -116q-37 -37 -57 -83q-2 -4 -5 -12h259v-65h-340q14 123 97 206l117 116q50 49 77 113q30 70 30 135v19h-352v65h419zM469 0h-445l3 86q6 170 128 292l117 117q34 34 55 81q2 5 5 13h-234v65h314q-10 -120 -95 -205 l-117 -116q-49 -48 -78 -115q-31 -70 -31 -135v-19h378v-64z" />
<glyph unicode="&#xa2;" horiz-adv-x="408" d="M383 575h-157v180h65v-115h92v-65zM383 216h-60q-81 0 -139 58t-58 139v125h257v-64h-193v-61q0 -54 39 -93t94 -39h60v-65zM189 -3h-64v193l-13 13q-88 88 -88 210v227h101v115h64v-180h-100v-162q0 -118 100 -191v-225zM383 115h-60q-12 0 -32 2v-120h-65v204 q45 -21 97 -21h60v-65z" />
<glyph unicode="&#xa3;" horiz-adv-x="583" d="M556 589h-38q-105 0 -182.5 -72t-87.5 -177h94v-46h-159v24q0 138 98.5 237t236.5 99h38v-65zM556 690h-38q-154 0 -263 -109t-109 -263v-24h-120v46h56q9 174 135.5 294.5t300.5 120.5h38v-65zM556 101h-373v174h159v-46h-95v-63h309v-65zM556 0h-474v229h-56v46h120 v-211h410v-64z" />
<glyph unicode="&#xa4;" horiz-adv-x="631" d="M598 589h-142q-50 0 -97 -23.5t-74 -63.5h271v-46h-365q19 65 70 116q82 82 195 82h142v-65zM598 690h-142q-108 0 -192.5 -65t-110.5 -169h-129v46h75q40 113 138.5 183t218.5 70h142v-65zM556 392h-312v-29h256v-46h-314q-7 33 -7 60q0 26 7 61h370v-46zM598 101h-142 q-91 0 -165.5 55.5t-99.5 142.5h309v-47h-215q9 -12 21 -24q62 -62 150 -62h142v-65zM148 317h-124v46h54v29h-54v46h124q-5 -33 -5 -61q0 -27 5 -60zM598 0h-142q-120 0 -218.5 70t-138.5 182h-75v47h129q26 -104 111 -169.5t192 -65.5h142v-64z" />
<glyph unicode="&#xa5;" horiz-adv-x="586" d="M556 456h-164q77 95 77 227v72h65v-72q0 -84 -33 -166l-6 -15h61v-46zM432 683q0 -68 -24 -127q-25 -62 -118 -153q-54 53 -68 70q-31 37 -50 83q-25 62 -25 127v72h65v-72q0 -55 19 -103q12 -30 59 -87q22 28 58 87q20 48 20 103v72h64v-72zM556 317h-248v53l69 68h179 v-46h-134l-29 -29h163v-46zM188 456h-164v46h61q-2 5 -7 15q-32 79 -32 166v72h64v-72q0 -130 78 -227zM556 252h-183v-252h-65v299h248v-47zM271 317h-247v46h163l-29 29h-134v46h179l68 -68v-53zM271 0h-64v252h-183v47h247v-299z" />
<glyph unicode="&#xa8;" horiz-adv-x="222" d="M195 776h-64v64h64v-64zM87 776h-63v64h63v-64z" />
<glyph unicode="&#xaa;" horiz-adv-x="316" d="M242 596h-138q12 49 50 81t88 35v-116zM288 418h-29v310h-8q-60 0 -106 -37t-59 -95h-60v29h38q21 59 72.5 96t114.5 37h37v-340zM242 418h-29v133h-85v-133h-28v143v18h142v-161zM84 579q-1 -11 -1 -18v-143h-29v133h-28v28h58zM213 625v52q-42 -13 -66 -52h66z" />
<glyph unicode="&#xab;" horiz-adv-x="334" d="M323 223h-81l-119 155l118 153h81l-118 -153zM213 223h-81l-119 155l118 153h81l-118 -153z" />
<glyph unicode="&#xad;" horiz-adv-x="238" d="M214 394h-190v64h190v-64zM214 292h-190v65h190v-65z" />
<glyph unicode="&#xb4;" horiz-adv-x="302" d="M283 865l-219 -98l-26 58l220 97z" />
<glyph unicode="&#xb7;" horiz-adv-x="214" d="M190 276h-64v150h64v-150zM89 276h-65v150h65v-150z" />
<glyph unicode="&#xb8;" horiz-adv-x="238" d="M205 -123q0 -34 -24.5 -58.5t-58.5 -24.5h-56v58h56q24 0 24 25q0 24 -24 24h-89l77 140h66l-48 -82q32 -3 54.5 -26.5t22.5 -55.5z" />
<glyph unicode="&#xba;" horiz-adv-x="293" d="M262 414h-37q-81 0 -139 58t-58 139v143h234v-340zM233 443v282h-176v-114q0 -69 49.5 -118.5t118.5 -49.5h8zM217 460q-60 3 -101.5 47t-41.5 104v98h143v-249zM188 494v185h-85v-68q0 -40 23.5 -72t61.5 -45z" />
<glyph unicode="&#xbb;" horiz-adv-x="334" d="M13 223h81l119 155l-118 153h-81l118 -153zM123 223h81l119 155l-118 153h-81l118 -153z" />
<glyph unicode="&#xc0;" horiz-adv-x="630" d="M24 0zM505 396h-308q27 108 111.5 179t196.5 78v-257zM607 0h-65v690h-18q-132 0 -235 -83t-130 -211h-135v64h86q46 132 160 213.5t254 81.5h83v-755zM505 0h-64v295h-189v-295h-64v318q0 15 2 41h315v-359zM153 359q-2 -26 -2 -41v-318h-65v295h-62v64h129zM441 460 v116q-95 -29 -148 -116h148zM213 865l220 -98l25 58l-219 97z" />
<glyph unicode="&#xc1;" horiz-adv-x="630" d="M24 0zM505 396h-308q27 108 111.5 179t196.5 78v-257zM607 0h-65v690h-18q-132 0 -235 -83t-130 -211h-135v64h86q46 132 160 213.5t254 81.5h83v-755zM505 0h-64v295h-189v-295h-64v318q0 15 2 41h315v-359zM153 359q-2 -26 -2 -41v-318h-65v295h-62v64h129zM441 460 v116q-95 -29 -148 -116h148zM660 862l-219 -98l-26 58l220 97z" />
<glyph unicode="&#xc2;" horiz-adv-x="630" d="M24 0zM505 396h-308q27 108 111.5 179t196.5 78v-257zM607 0h-65v690h-18q-132 0 -235 -83t-130 -211h-135v64h86q46 132 160 213.5t254 81.5h83v-755zM505 0h-64v295h-189v-295h-64v318q0 15 2 41h315v-359zM153 359q-2 -26 -2 -41v-318h-65v295h-62v64h129zM441 460 v116q-95 -29 -148 -116h148zM604 773h-90l-49 49l-48 -49h-91l139 140z" />
<glyph unicode="&#xc3;" horiz-adv-x="630" d="M24 0zM505 396h-308q27 108 111.5 179t196.5 78v-257zM607 0h-65v690h-18q-132 0 -235 -83t-130 -211h-135v64h86q46 132 160 213.5t254 81.5h83v-755zM505 0h-64v295h-189v-295h-64v318q0 15 2 41h315v-359zM153 359q-2 -26 -2 -41v-318h-65v295h-62v64h129zM441 460 v116q-95 -29 -148 -116h148zM607 870q-5 -56 -43 -80q-23 -15 -50 -15q-16 0 -30 6l-72 29q-12 3 -23 -3.5t-11 -27.5h-65q5 58 43 82q23 15 50 15q16 0 30 -6l72 -29q12 -5 23 3t11 26h65z" />
<glyph unicode="&#xc4;" horiz-adv-x="630" d="M24 0zM505 396h-308q27 108 111.5 179t196.5 78v-257zM607 0h-65v690h-18q-132 0 -235 -83t-130 -211h-135v64h86q46 132 160 213.5t254 81.5h83v-755zM505 0h-64v295h-189v-295h-64v318q0 15 2 41h315v-359zM153 359q-2 -26 -2 -41v-318h-65v295h-62v64h129zM441 460 v116q-95 -29 -148 -116h148zM573 785h-64v64h64v-64zM465 785h-63v64h63v-64z" />
<glyph unicode="&#xc5;" horiz-adv-x="630" d="M24 0zM505 396h-308q27 108 111.5 179t196.5 78v-257zM607 0h-65v690h-18q-132 0 -235 -83t-130 -211h-135v64h86q46 132 160 213.5t254 81.5h83v-755zM505 0h-64v295h-189v-295h-64v318q0 15 2 41h315v-359zM153 359q-2 -26 -2 -41v-318h-65v295h-62v64h129zM441 460 v116q-95 -29 -148 -116h148zM632 881q0 -52 -37 -89t-89 -37t-89 37t-37 89t37 89t89 37t89 -37t37 -89zM567 881q0 25 -18 43t-43 18t-43 -17.5t-18 -43.5q0 -25 18 -43t43 -18t43 18t18 43z" />
<glyph unicode="&#xc6;" horiz-adv-x="926" d="M906 589h-38q-75 0 -140.5 -40.5t-100.5 -106.5h159v-64h-248q21 118 115 197t215 79h38v-65zM906 690h-38q-154 0 -263 -109q-45 -45 -72 -102v211h-19q-136 0 -241 -89t-127 -223h-122v64h71q41 139 157.5 226t261.5 87h83v-95q121 95 271 95h38v-65zM906 101h-373v240 h253v-64h-189v-111h309v-65zM496 378h-313q22 114 109.5 191t203.5 84v-275zM906 0h-475v277h-189v-277h-64v341h318v-277h410v-64zM142 341q-1 -8 -1 -341h-64v277h-53v64h118zM431 442v134q-106 -34 -158 -134h158z" />
<glyph unicode="&#xc7;" horiz-adv-x="517" d="M24 0zM498 101h-37q-139 0 -237.5 99.5t-98.5 236.5v217h373v-65h-308v-152q0 -113 79 -192t192 -79h37v-65zM498 0h-37q-181 0 -309 128t-128 309v318h474v-65h-410v-253q0 -153 110 -263t263 -110h37v-64zM398 -118q0 -34 -24.5 -58.5t-58.5 -24.5h-56v58h56 q24 0 24 25q0 24 -24 24h-89l77 140h66l-48 -82q32 -3 54.5 -26.5t22.5 -55.5z" />
<glyph unicode="&#xc8;" horiz-adv-x="519" d="M24 0zM498 589h-308v-111h189v-64h-253q-1 7 -1 23v217h373v-65zM498 0h-37q-181 0 -309 128t-128 309v318h474v-65h-410v-253q0 -153 110 -263t263 -110h37v-64zM498 101h-37q-138 0 -237 99q-75 75 -94 177h249v-65h-159q21 -38 49 -67q78 -79 192 -79h37v-65zM78 865 l220 -98l25 58l-219 97z" />
<glyph unicode="&#xc9;" horiz-adv-x="519" d="M24 0zM498 589h-308v-111h189v-64h-253q-1 7 -1 23v217h373v-65zM498 0h-37q-181 0 -309 128t-128 309v318h474v-65h-410v-253q0 -153 110 -263t263 -110h37v-64zM498 101h-37q-138 0 -237 99q-75 75 -94 177h249v-65h-159q21 -38 49 -67q78 -79 192 -79h37v-65zM475 868 l-219 -98l-26 58l220 97z" />
<glyph unicode="&#xca;" horiz-adv-x="519" d="M24 0zM498 589h-308v-111h189v-64h-253q-1 7 -1 23v217h373v-65zM498 0h-37q-181 0 -309 128t-128 309v318h474v-65h-410v-253q0 -153 110 -263t263 -110h37v-64zM498 101h-37q-138 0 -237 99q-75 75 -94 177h249v-65h-159q21 -38 49 -67q78 -79 192 -79h37v-65zM415 773 h-90l-49 49l-48 -49h-91l139 140z" />
<glyph unicode="&#xcb;" horiz-adv-x="519" d="M24 0zM498 589h-308v-111h189v-64h-253q-1 7 -1 23v217h373v-65zM498 0h-37q-181 0 -309 128t-128 309v318h474v-65h-410v-253q0 -153 110 -263t263 -110h37v-64zM498 101h-37q-138 0 -237 99q-75 75 -94 177h249v-65h-159q21 -38 49 -67q78 -79 192 -79h37v-65zM360 779 h-64v64h64v-64zM252 779h-63v64h63v-64z" />
<glyph unicode="&#xcc;" horiz-adv-x="211" d="M0 0zM190 0h-64v755h64v-755zM89 0h-65v755h65v-755zM-67 870l220 -98l25 58l-219 97z" />
<glyph unicode="&#xcd;" horiz-adv-x="211" d="M24 0zM190 0h-64v755h64v-755zM89 0h-65v755h65v-755zM283 865l-219 -98l-26 58l220 97z" />
<glyph unicode="&#xce;" horiz-adv-x="211" d="M0 0zM190 0h-64v755h64v-755zM89 0h-65v755h65v-755zM248 776h-90l-49 49l-48 -49h-91l139 140z" />
<glyph unicode="&#xcf;" horiz-adv-x="211" d="M24 0zM190 0h-64v755h64v-755zM89 0h-65v755h65v-755zM195 789h-64v64h64v-64zM87 789h-63v64h63v-64z" />
<glyph unicode="&#xd0;" horiz-adv-x="638" d="M509 437q0 -133 -93 -231t-225 -104v249h142v-46h-77v-126q85 27 136.5 98t51.5 160v152h-188v-174h77v-46h-142v285h318v-217zM610 437q0 -180 -128.5 -308.5t-308.5 -128.5h-83v305h-67v46h131v-287h19q153 0 263 110t110 263v253h-392v-321h-131v46h67v340h520v-318z " />
<glyph unicode="&#xd1;" d="M24 0zM544 0h-64v755h64v-755zM443 479q-45 96 -137 153.5t-199 57.5h-19v-690h-64v755h83q151 0 272 -95v95h64v-276zM443 0h-64v319q0 87 -53 159t-136 98v-576h-65v653q133 -8 225.5 -104.5t92.5 -229.5v-319zM447 871q-5 -56 -43 -80q-23 -15 -50 -15q-16 0 -30 6 l-72 29q-12 3 -23 -3.5t-11 -27.5h-65q5 58 43 82q23 15 50 15q16 0 30 -6l72 -29q12 -5 23 3t11 26h65z" />
<glyph unicode="&#xd2;" d="M24 0zM544 -1h-83q-181 0 -309 128t-128 309v318h520v-755zM480 63v626h-392v-253q0 -153 110 -263t263 -110h19zM443 101q-132 6 -225 104t-93 231v217h318v-552zM379 177v411h-189v-152q0 -89 52.5 -160t136.5 -99zM93 867l220 -98l25 58l-219 97z" />
<glyph unicode="&#xd3;" d="M24 0zM544 -1h-83q-181 0 -309 128t-128 309v318h520v-755zM480 63v626h-392v-253q0 -153 110 -263t263 -110h19zM443 101q-132 6 -225 104t-93 231v217h318v-552zM379 177v411h-189v-152q0 -89 52.5 -160t136.5 -99zM501 866l-219 -98l-26 58l220 97z" />
<glyph unicode="&#xd4;" d="M24 0zM544 -1h-83q-181 0 -309 128t-128 309v318h520v-755zM480 63v626h-392v-253q0 -153 110 -263t263 -110h19zM443 101q-132 6 -225 104t-93 231v217h318v-552zM379 177v411h-189v-152q0 -89 52.5 -160t136.5 -99zM418 780h-90l-49 49l-48 -49h-91l139 140z" />
<glyph unicode="&#xd5;" d="M24 0zM544 -1h-83q-181 0 -309 128t-128 309v318h520v-755zM480 63v626h-392v-253q0 -153 110 -263t263 -110h19zM443 101q-132 6 -225 104t-93 231v217h318v-552zM379 177v411h-189v-152q0 -89 52.5 -160t136.5 -99zM440 870q-5 -56 -43 -80q-23 -15 -50 -15 q-16 0 -30 6l-72 29q-12 3 -23 -3.5t-11 -27.5h-65q5 58 43 82q23 15 50 15q16 0 30 -6l72 -29q12 -5 23 3t11 26h65z" />
<glyph unicode="&#xd6;" d="M24 0zM544 -1h-83q-181 0 -309 128t-128 309v318h520v-755zM480 63v626h-392v-253q0 -153 110 -263t263 -110h19zM443 101q-132 6 -225 104t-93 231v217h318v-552zM379 177v411h-189v-152q0 -89 52.5 -160t136.5 -99zM372 785h-64v64h64v-64zM264 785h-63v64h63v-64z" />
<glyph unicode="&#xd8;" horiz-adv-x="572" d="M443 654l-235 -435q-81 96 -81 218v217h316zM445 102q-127 6 -219 98l-5 5l224 414v-517zM546 0h-83q-140 0 -255 83l-45 -83h-52l92 171q109 -107 260 -107h19v626h-392v-253q0 -145 99 -252l-99 -185h-53l88 161q-99 121 -99 276v318h520v-755zM356 589h-164v-152 q0 -58 23 -109zM381 179v224l-94 -172q42 -36 94 -52z" />
<glyph unicode="&#xd9;" horiz-adv-x="570" d="M24 0zM443 102q-132 6 -225 104t-93 231v318h65v-318q0 -90 52 -161t137 -97v576h64v-653zM544 0h-83q-180 0 -308.5 128.5t-128.5 308.5v318h64v-318q0 -153 110 -263t263 -110h19v691h64v-755zM63 865l220 -98l25 58l-219 97z" />
<glyph unicode="&#xda;" horiz-adv-x="570" d="M24 0zM443 102q-132 6 -225 104t-93 231v318h65v-318q0 -90 52 -161t137 -97v576h64v-653zM544 0h-83q-180 0 -308.5 128.5t-128.5 308.5v318h64v-318q0 -153 110 -263t263 -110h19v691h64v-755zM500 867l-219 -98l-26 58l220 97z" />
<glyph unicode="&#xdb;" horiz-adv-x="570" d="M24 0zM443 102q-132 6 -225 104t-93 231v318h65v-318q0 -90 52 -161t137 -97v576h64v-653zM544 0h-83q-180 0 -308.5 128.5t-128.5 308.5v318h64v-318q0 -153 110 -263t263 -110h19v691h64v-755zM424 773h-90l-49 49l-48 -49h-91l139 140z" />
<glyph unicode="&#xdc;" horiz-adv-x="570" d="M24 0zM443 102q-132 6 -225 104t-93 231v318h65v-318q0 -90 52 -161t137 -97v576h64v-653zM544 0h-83q-180 0 -308.5 128.5t-128.5 308.5v318h64v-318q0 -153 110 -263t263 -110h19v691h64v-755zM371 785h-64v64h64v-64zM263 785h-63v64h63v-64z" />
<glyph unicode="&#xdd;" horiz-adv-x="537" d="M24 0zM327 580q19 46 19 103v72h65v-72q0 -65 -25.5 -128t-42.5 -85q-15 -18 -75 -67l-8 8q-47 46 -62 65q-30 36 -48 80q-24 57 -24 127v72h64v-72q0 -55 20 -103q22 -54 58 -88q39 39 59 88zM351 343v-343h-64v370q67 56 83 76q21 26 49.5 95t28.5 142v72h64v-72 q0 -89 -32 -166q-28 -68 -50 -98q-25 -35 -79 -76zM250 370v-370h-65v343q-55 55 -73 78q-33 41 -55 96q-33 82 -33 166v72h65v-72q0 -77 27 -141q30 -72 50 -96q14 -18 84 -76zM488 863l-219 -98l-26 58l220 97z" />
<glyph unicode="&#xde;" d="M544 554q0 -156 -100.5 -278t-253.5 -150v-126h-65v183q148 6 251.5 114.5t103.5 256.5v18h-355v183h65v-118h354v-83zM442 536q-6 -127 -97.5 -218t-219.5 -99v317h317zM88 0h-64v755h64v-755zM365 471h-175v-175q134 46 175 175z" />
<glyph unicode="&#xdf;" horiz-adv-x="996" d="M904 690h-56q-137 0 -240 -87q-96 -81 -124 -207h-340q27 112 119.5 185t207.5 73h56v-41q16 19 40 39q122 103 281 103h56v-65zM974 460l-16 -97q-26 -157 -149 -260t-282 -103h-56v64h56q136 0 240 88q110 94 128 222l3 22h-376q27 112 119 185t207 73h56v-65h-56 q-70 0 -131.5 -34.5t-99.5 -94.5h357zM527 690h-56q-136 0 -238.5 -85.5t-128.5 -224.5l-4 -21h376q-27 -113 -118 -185.5t-208 -72.5h-56v65h56q99 0 174 63q31 26 57 65h-357l16 97q26 157 148.5 260.5t282.5 103.5h56v-65zM854 359q-27 -113 -119 -185.5t-208 -72.5h-56 v40q-18 -19 -40 -38q-122 -103 -281 -103h-56v64h56q131 0 234 83.5t130 211.5h340zM506 589h-35q-70 0 -132.5 -35t-98.5 -94h195q26 72 71 129zM758 294h-195q-25 -70 -71 -128h35q151 0 231 128z" />
<glyph unicode="&#xe0;" horiz-adv-x="630" d="M24 0zM505 396h-308q27 108 111.5 179t196.5 78v-257zM607 0h-65v690h-18q-132 0 -235 -83t-130 -211h-135v64h86q46 132 160 213.5t254 81.5h83v-755zM505 0h-64v295h-189v-295h-64v318q0 15 2 41h315v-359zM153 359q-2 -26 -2 -41v-318h-65v295h-62v64h129zM441 460 v116q-95 -29 -148 -116h148zM163 865l220 -98l25 58l-219 97z" />
<glyph unicode="&#xe1;" horiz-adv-x="630" d="M24 0zM505 396h-308q27 108 111.5 179t196.5 78v-257zM607 0h-65v690h-18q-132 0 -235 -83t-130 -211h-135v64h86q46 132 160 213.5t254 81.5h83v-755zM505 0h-64v295h-189v-295h-64v318q0 15 2 41h315v-359zM153 359q-2 -26 -2 -41v-318h-65v295h-62v64h129zM441 460 v116q-95 -29 -148 -116h148zM633 865l-219 -98l-26 58l220 97z" />
<glyph unicode="&#xe2;" horiz-adv-x="630" d="M24 0zM505 396h-308q27 108 111.5 179t196.5 78v-257zM607 0h-65v690h-18q-132 0 -235 -83t-130 -211h-135v64h86q46 132 160 213.5t254 81.5h83v-755zM505 0h-64v295h-189v-295h-64v318q0 15 2 41h315v-359zM153 359q-2 -26 -2 -41v-318h-65v295h-62v64h129zM441 460 v116q-95 -29 -148 -116h148zM606 774h-90l-49 49l-48 -49h-91l139 140z" />
<glyph unicode="&#xe3;" horiz-adv-x="630" d="M24 0zM505 396h-308q27 108 111.5 179t196.5 78v-257zM607 0h-65v690h-18q-132 0 -235 -83t-130 -211h-135v64h86q46 132 160 213.5t254 81.5h83v-755zM505 0h-64v295h-189v-295h-64v318q0 15 2 41h315v-359zM153 359q-2 -26 -2 -41v-318h-65v295h-62v64h129zM441 460 v116q-95 -29 -148 -116h148zM606 871q-5 -56 -43 -80q-23 -15 -50 -15q-16 0 -30 6l-72 29q-12 3 -23 -3.5t-11 -27.5h-65q5 58 43 82q23 15 50 15q16 0 30 -6l72 -29q12 -5 23 3t11 26h65z" />
<glyph unicode="&#xe4;" horiz-adv-x="630" d="M24 0zM505 396h-308q27 108 111.5 179t196.5 78v-257zM607 0h-65v690h-18q-132 0 -235 -83t-130 -211h-135v64h86q46 132 160 213.5t254 81.5h83v-755zM505 0h-64v295h-189v-295h-64v318q0 15 2 41h315v-359zM153 359q-2 -26 -2 -41v-318h-65v295h-62v64h129zM441 460 v116q-95 -29 -148 -116h148zM575 783h-64v64h64v-64zM467 783h-63v64h63v-64z" />
<glyph unicode="&#xe5;" horiz-adv-x="630" d="M24 0zM505 396h-308q27 108 111.5 179t196.5 78v-257zM607 0h-65v690h-18q-132 0 -235 -83t-130 -211h-135v64h86q46 132 160 213.5t254 81.5h83v-755zM505 0h-64v295h-189v-295h-64v318q0 15 2 41h315v-359zM153 359q-2 -26 -2 -41v-318h-65v295h-62v64h129zM441 460 v116q-95 -29 -148 -116h148zM626 883q0 -52 -37 -89t-89 -37t-89 37t-37 89t37 89t89 37t89 -37t37 -89zM561 883q0 25 -18 43t-43 18t-43 -17.5t-18 -43.5q0 -25 18 -43t43 -18t43 18t18 43z" />
<glyph unicode="&#xe6;" horiz-adv-x="926" d="M24 0zM906 589h-38q-75 0 -140.5 -40.5t-100.5 -106.5h159v-64h-248q21 118 115 197t215 79h38v-65zM906 690h-38q-154 0 -263 -109q-45 -45 -72 -102v211h-19q-136 0 -241 -89t-127 -223h-122v64h71q41 139 157.5 226t261.5 87h83v-95q121 95 271 95h38v-65zM906 101 h-373v240h253v-64h-189v-111h309v-65zM496 378h-313q22 114 109.5 191t203.5 84v-275zM906 0h-475v277h-189v-277h-64v341h318v-277h410v-64zM142 341q-1 -8 -1 -341h-64v277h-53v64h118zM431 442v134q-106 -34 -158 -134h158z" />
<glyph unicode="&#xe7;" horiz-adv-x="517" d="M24 0zM498 101h-37q-139 0 -237.5 99.5t-98.5 236.5v217h373v-65h-308v-152q0 -113 79 -192t192 -79h37v-65zM498 0h-37q-181 0 -309 128t-128 309v318h474v-65h-410v-253q0 -153 110 -263t263 -110h37v-64zM425 -121q0 -34 -24.5 -58.5t-58.5 -24.5h-56v58h56 q24 0 24 25q0 24 -24 24h-89l77 140h66l-48 -82q32 -3 54.5 -26.5t22.5 -55.5z" />
<glyph unicode="&#xe8;" horiz-adv-x="519" d="M24 0zM498 589h-308v-111h189v-64h-253q-1 7 -1 23v217h373v-65zM498 0h-37q-181 0 -309 128t-128 309v318h474v-65h-410v-253q0 -153 110 -263t263 -110h37v-64zM498 101h-37q-138 0 -237 99q-75 75 -94 177h249v-65h-159q21 -38 49 -67q78 -79 192 -79h37v-65zM78 865 l220 -98l25 58l-219 97z" />
<glyph unicode="&#xe9;" horiz-adv-x="519" d="M24 0zM498 589h-308v-111h189v-64h-253q-1 7 -1 23v217h373v-65zM498 0h-37q-181 0 -309 128t-128 309v318h474v-65h-410v-253q0 -153 110 -263t263 -110h37v-64zM498 101h-37q-138 0 -237 99q-75 75 -94 177h249v-65h-159q21 -38 49 -67q78 -79 192 -79h37v-65zM493 863 l-219 -98l-26 58l220 97z" />
<glyph unicode="&#xea;" horiz-adv-x="519" d="M24 0zM498 589h-308v-111h189v-64h-253q-1 7 -1 23v217h373v-65zM498 0h-37q-181 0 -309 128t-128 309v318h474v-65h-410v-253q0 -153 110 -263t263 -110h37v-64zM498 101h-37q-138 0 -237 99q-75 75 -94 177h249v-65h-159q21 -38 49 -67q78 -79 192 -79h37v-65zM403 775 h-90l-49 49l-48 -49h-91l139 140z" />
<glyph unicode="&#xeb;" horiz-adv-x="519" d="M24 0zM498 589h-308v-111h189v-64h-253q-1 7 -1 23v217h373v-65zM498 0h-37q-181 0 -309 128t-128 309v318h474v-65h-410v-253q0 -153 110 -263t263 -110h37v-64zM498 101h-37q-138 0 -237 99q-75 75 -94 177h249v-65h-159q21 -38 49 -67q78 -79 192 -79h37v-65zM358 779 h-64v64h64v-64zM250 779h-63v64h63v-64z" />
<glyph unicode="&#xec;" horiz-adv-x="211" d="M0 0zM190 0h-64v755h64v-755zM89 0h-65v755h65v-755zM-42 865l220 -98l25 58l-219 97z" />
<glyph unicode="&#xed;" horiz-adv-x="211" d="M24 0zM190 0h-64v755h64v-755zM89 0h-65v755h65v-755zM283 865l-219 -98l-26 58l220 97z" />
<glyph unicode="&#xee;" horiz-adv-x="211" d="M0 0zM190 0h-64v755h64v-755zM89 0h-65v755h65v-755zM248 776h-90l-49 49l-48 -49h-91l139 140z" />
<glyph unicode="&#xef;" horiz-adv-x="211" d="M24 0zM190 0h-64v755h64v-755zM89 0h-65v755h65v-755zM195 791h-64v64h64v-64zM87 791h-63v64h63v-64z" />
<glyph unicode="&#xf0;" horiz-adv-x="638" d="M23 0zM509 437q0 -133 -93 -231t-225 -104v249h142v-46h-77v-126q85 27 136.5 98t51.5 160v152h-188v-174h77v-46h-142v285h318v-217zM610 437q0 -180 -128.5 -308.5t-308.5 -128.5h-83v305h-67v46h131v-287h19q153 0 263 110t110 263v253h-392v-321h-131v46h67v340h520 v-318z" />
<glyph unicode="&#xf1;" d="M24 0zM544 0h-64v755h64v-755zM443 479q-45 96 -137 153.5t-199 57.5h-19v-690h-64v755h83q151 0 272 -95v95h64v-276zM443 0h-64v319q0 87 -53 159t-136 98v-576h-65v653q133 -8 225.5 -104.5t92.5 -229.5v-319zM446 870q-5 -56 -43 -80q-23 -15 -50 -15q-16 0 -30 6 l-72 29q-12 3 -23 -3.5t-11 -27.5h-65q5 58 43 82q23 15 50 15q16 0 30 -6l72 -29q12 -5 23 3t11 26h65z" />
<glyph unicode="&#xf2;" d="M24 0zM544 -1h-83q-181 0 -309 128t-128 309v318h520v-755zM480 63v626h-392v-253q0 -153 110 -263t263 -110h19zM443 101q-132 6 -225 104t-93 231v217h318v-552zM379 177v411h-189v-152q0 -89 52.5 -160t136.5 -99zM88 865l220 -98l25 58l-219 97z" />
<glyph unicode="&#xf3;" d="M24 0zM544 -1h-83q-181 0 -309 128t-128 309v318h520v-755zM480 63v626h-392v-253q0 -153 110 -263t263 -110h19zM443 101q-132 6 -225 104t-93 231v217h318v-552zM379 177v411h-189v-152q0 -89 52.5 -160t136.5 -99zM514 864l-219 -98l-26 58l220 97z" />
<glyph unicode="&#xf4;" d="M24 0zM544 -1h-83q-181 0 -309 128t-128 309v318h520v-755zM480 63v626h-392v-253q0 -153 110 -263t263 -110h19zM443 101q-132 6 -225 104t-93 231v217h318v-552zM379 177v411h-189v-152q0 -89 52.5 -160t136.5 -99zM422 780h-90l-49 49l-48 -49h-91l139 140z" />
<glyph unicode="&#xf5;" d="M24 0zM544 -1h-83q-181 0 -309 128t-128 309v318h520v-755zM480 63v626h-392v-253q0 -153 110 -263t263 -110h19zM443 101q-132 6 -225 104t-93 231v217h318v-552zM379 177v411h-189v-152q0 -89 52.5 -160t136.5 -99zM450 871q-5 -56 -43 -80q-23 -15 -50 -15 q-16 0 -30 6l-72 29q-12 3 -23 -3.5t-11 -27.5h-65q5 58 43 82q23 15 50 15q16 0 30 -6l72 -29q12 -5 23 3t11 26h65z" />
<glyph unicode="&#xf6;" d="M24 0zM544 -1h-83q-181 0 -309 128t-128 309v318h520v-755zM480 63v626h-392v-253q0 -153 110 -263t263 -110h19zM443 101q-132 6 -225 104t-93 231v217h318v-552zM379 177v411h-189v-152q0 -89 52.5 -160t136.5 -99zM370 783h-64v64h64v-64zM262 783h-63v64h63v-64z" />
<glyph unicode="&#xf8;" horiz-adv-x="572" d="M26 0zM443 654l-235 -435q-81 96 -81 218v217h316zM445 102q-127 6 -219 98l-5 5l224 414v-517zM546 0h-83q-140 0 -255 83l-45 -83h-52l92 171q109 -107 260 -107h19v626h-392v-253q0 -145 99 -252l-99 -185h-53l88 161q-99 121 -99 276v318h520v-755zM356 589h-164 v-152q0 -58 23 -109zM381 179v224l-94 -172q42 -36 94 -52z" />
<glyph unicode="&#xf9;" horiz-adv-x="570" d="M24 0zM443 102q-132 6 -225 104t-93 231v318h65v-318q0 -90 52 -161t137 -97v576h64v-653zM544 0h-83q-180 0 -308.5 128.5t-128.5 308.5v318h64v-318q0 -153 110 -263t263 -110h19v691h64v-755zM78 865l220 -98l25 58l-219 97z" />
<glyph unicode="&#xfa;" horiz-adv-x="570" d="M24 0zM443 102q-132 6 -225 104t-93 231v318h65v-318q0 -90 52 -161t137 -97v576h64v-653zM544 0h-83q-180 0 -308.5 128.5t-128.5 308.5v318h64v-318q0 -153 110 -263t263 -110h19v691h64v-755zM507 863l-219 -98l-26 58l220 97z" />
<glyph unicode="&#xfb;" horiz-adv-x="570" d="M24 0zM443 102q-132 6 -225 104t-93 231v318h65v-318q0 -90 52 -161t137 -97v576h64v-653zM544 0h-83q-180 0 -308.5 128.5t-128.5 308.5v318h64v-318q0 -153 110 -263t263 -110h19v691h64v-755zM424 775h-90l-49 49l-48 -49h-91l139 140z" />
<glyph unicode="&#xfc;" horiz-adv-x="570" d="M24 0zM443 102q-132 6 -225 104t-93 231v318h65v-318q0 -90 52 -161t137 -97v576h64v-653zM544 0h-83q-180 0 -308.5 128.5t-128.5 308.5v318h64v-318q0 -153 110 -263t263 -110h19v691h64v-755zM371 788h-64v64h64v-64zM263 788h-63v64h63v-64z" />
<glyph unicode="&#xfd;" horiz-adv-x="537" d="M24 0zM327 580q19 46 19 103v72h65v-72q0 -65 -25.5 -128t-42.5 -85q-15 -18 -75 -67l-8 8q-47 46 -62 65q-30 36 -48 80q-24 57 -24 127v72h64v-72q0 -55 20 -103q22 -54 58 -88q39 39 59 88zM351 343v-343h-64v370q67 56 83 76q21 26 49.5 95t28.5 142v72h64v-72 q0 -89 -32 -166q-28 -68 -50 -98q-25 -35 -79 -76zM250 370v-370h-65v343q-55 55 -73 78q-33 41 -55 96q-33 82 -33 166v72h65v-72q0 -77 27 -141q30 -72 50 -96q14 -18 84 -76zM492 864l-219 -98l-26 58l220 97z" />
<glyph unicode="&#xfe;" d="M24 0zM544 554q0 -156 -100.5 -278t-253.5 -150v-126h-65v183q148 6 251.5 114.5t103.5 256.5v18h-355v183h65v-118h354v-83zM442 536q-6 -127 -97.5 -218t-219.5 -99v317h317zM88 0h-64v755h64v-755zM365 471h-175v-175q134 46 175 175z" />
<glyph unicode="&#xff;" horiz-adv-x="537" d="M24 0zM327 580q19 46 19 103v72h65v-72q0 -65 -25.5 -128t-42.5 -85q-15 -18 -75 -67l-8 8q-47 46 -62 65q-30 36 -48 80q-24 57 -24 127v72h64v-72q0 -55 20 -103q22 -54 58 -88q39 39 59 88zM351 343v-343h-64v370q67 56 83 76q21 26 49.5 95t28.5 142v72h64v-72 q0 -89 -32 -166q-28 -68 -50 -98q-25 -35 -79 -76zM250 370v-370h-65v343q-55 55 -73 78q-33 41 -55 96q-33 82 -33 166v72h65v-72q0 -77 27 -141q30 -72 50 -96q14 -18 84 -76zM354 787h-64v64h64v-64zM246 787h-63v64h63v-64z" />
<glyph unicode="&#x152;" horiz-adv-x="868" d="M843 589h-37q-76 0 -141 -40t-100 -107h159v-64h-249q23 119 116.5 197.5t214.5 78.5h37v-65zM843 101h-373v217q0 15 1 23h253v-64h-190v-111h309v-65zM843 0h-474v87q-117 -87 -262 -87h-83v755h520v-87q118 87 262 87h37v-65h-37q-155 0 -263 -109q-39 -40 -63 -83 v192h-392v-626h19q100 0 189 52.5t137 140.5v-193h410v-64zM443 437q0 -133 -93 -231t-225 -104v552h318v-217zM378 437v152h-188v-410q84 27 136 98t52 160z" />
<glyph unicode="&#x153;" horiz-adv-x="868" d="M24 0zM843 589h-37q-76 0 -141 -40t-100 -107h159v-64h-249q23 119 116.5 197.5t214.5 78.5h37v-65zM843 101h-373v217q0 15 1 23h253v-64h-190v-111h309v-65zM843 0h-474v87q-117 -87 -262 -87h-83v755h520v-87q118 87 262 87h37v-65h-37q-155 0 -263 -109 q-39 -40 -63 -83v192h-392v-626h19q100 0 189 52.5t137 140.5v-193h410v-64zM443 437q0 -133 -93 -231t-225 -104v552h318v-217zM378 437v152h-188v-410q84 27 136 98t52 160z" />
<glyph unicode="&#x178;" horiz-adv-x="537" d="M24 0zM327 580q19 46 19 103v72h65v-72q0 -65 -25.5 -128t-42.5 -85q-15 -18 -75 -67l-8 8q-47 46 -62 65q-30 36 -48 80q-24 57 -24 127v72h64v-72q0 -55 20 -103q22 -54 58 -88q39 39 59 88zM351 343v-343h-64v370q67 56 83 76q21 26 49.5 95t28.5 142v72h64v-72 q0 -89 -32 -166q-28 -68 -50 -98q-25 -35 -79 -76zM250 370v-370h-65v343q-55 55 -73 78q-33 41 -55 96q-33 82 -33 166v72h65v-72q0 -77 27 -141q30 -72 50 -96q14 -18 84 -76zM360 782h-64v64h64v-64zM252 782h-63v64h63v-64z" />
<glyph unicode="&#x2c6;" horiz-adv-x="333" d="M303 776h-90l-49 49l-48 -49h-91l139 140z" />
<glyph unicode="&#x2da;" horiz-adv-x="308" d="M283 886q0 -52 -37 -89t-89 -37t-89 37t-37 89t37 89t89 37t89 -37t37 -89zM218 886q0 25 -18 43t-43 18t-43 -17.5t-18 -43.5q0 -25 18 -43t43 -18t43 18t18 43z" />
<glyph unicode="&#x2dc;" horiz-adv-x="348" d="M325 867q-5 -56 -43 -80q-23 -15 -50 -15q-16 0 -30 6l-72 29q-12 3 -23 -3.5t-11 -27.5h-65q5 58 43 82q23 15 50 15q16 0 30 -6l72 -29q12 -5 23 3t11 26h65z" />
<glyph unicode="&#x2000;" horiz-adv-x="506" />
<glyph unicode="&#x2001;" horiz-adv-x="1012" />
<glyph unicode="&#x2002;" horiz-adv-x="506" />
<glyph unicode="&#x2003;" horiz-adv-x="1012" />
<glyph unicode="&#x2004;" horiz-adv-x="337" />
<glyph unicode="&#x2005;" horiz-adv-x="253" />
<glyph unicode="&#x2006;" horiz-adv-x="168" />
<glyph unicode="&#x2007;" horiz-adv-x="168" />
<glyph unicode="&#x2008;" horiz-adv-x="126" />
<glyph unicode="&#x2009;" horiz-adv-x="202" />
<glyph unicode="&#x200a;" horiz-adv-x="56" />
<glyph unicode="&#x2010;" horiz-adv-x="238" d="M214 394h-190v64h190v-64zM214 292h-190v65h190v-65z" />
<glyph unicode="&#x2011;" horiz-adv-x="238" d="M214 394h-190v64h190v-64zM214 292h-190v65h190v-65z" />
<glyph unicode="&#x2012;" horiz-adv-x="238" d="M214 394h-190v64h190v-64zM214 292h-190v65h190v-65z" />
<glyph unicode="&#x2013;" horiz-adv-x="500" d="M484 394h-460v64h460v-64zM484 292h-460v65h460v-65z" />
<glyph unicode="&#x2014;" horiz-adv-x="1000" d="M974 394h-950v64h950v-64zM974 292h-950v65h950v-65z" />
<glyph unicode="&#x2018;" horiz-adv-x="159" d="M23 584l46 201h65v-201h-111z" />
<glyph unicode="&#x2019;" horiz-adv-x="159" d="M135 776l-46 -201h-65v201h111z" />
<glyph unicode="&#x201a;" horiz-adv-x="159" d="M135 126l-46 -201h-65v201h111z" />
<glyph unicode="&#x201c;" horiz-adv-x="288" d="M153 584l46 201h65v-201h-111zM23 584l46 201h65v-201h-111z" />
<glyph unicode="&#x201d;" horiz-adv-x="289" d="M135 776l-46 -201h-65v201h111zM265 776l-46 -201h-65v201h111z" />
<glyph unicode="&#x201e;" horiz-adv-x="288" d="M265 126l-46 -201h-65v201h111zM135 126l-46 -201h-65v201h111z" />
<glyph unicode="&#x2022;" horiz-adv-x="336" d="M312 377q0 -54 -36 -94.5t-90 -47.5v285q53 -7 89.5 -47.5t36.5 -95.5zM150 235q-54 7 -90 47.5t-36 94.5q0 55 36.5 95.5t89.5 47.5v-285z" />
<glyph unicode="&#x2026;" horiz-adv-x="698" d="M670 0h-64v130h64v-130zM569 0h-65v130h65v-130zM430 0h-64v130h64v-130zM329 0h-65v130h65v-130zM190 0h-64v130h64v-130zM89 0h-65v130h65v-130z" />
<glyph unicode="&#x202f;" horiz-adv-x="202" />
<glyph unicode="&#x2039;" horiz-adv-x="224" d="M213 223h-81l-119 155l118 153h81l-118 -153z" />
<glyph unicode="&#x203a;" horiz-adv-x="224" d="M13 223h81l119 155l-118 153h-81l118 -153z" />
<glyph unicode="&#x205f;" horiz-adv-x="253" />
<glyph unicode="&#xe000;" horiz-adv-x="755" d="M0 755h755v-755h-755v755z" />
<glyph horiz-adv-x="755" d="M0 0z" />
</font>
</defs>
</svg>
