<?xml version="1.0" standalone="no"?>
<!DOCTYPE svg PUBLIC "-//W3C//DTD SVG 1.1//EN" "http://www.w3.org/Graphics/SVG/1.1/DTD/svg11.dtd" >
<svg xmlns="http://www.w3.org/2000/svg">
<metadata></metadata>
<defs>
<font id="italiannoregular" horiz-adv-x="294" >
<font-face units-per-em="1000" ascent="800" descent="-200" />
<missing-glyph horiz-adv-x="169" />
<glyph horiz-adv-x="1000" />
<glyph horiz-adv-x="1000" />
<glyph unicode="&#xd;" horiz-adv-x="1000" />
<glyph unicode="&#x9;" horiz-adv-x="0" />
<glyph unicode=" "  horiz-adv-x="169" />
<glyph unicode="&#x09;" horiz-adv-x="169" />
<glyph unicode="&#xa0;" horiz-adv-x="169" />
<glyph unicode="!" horiz-adv-x="295" d="M101 16q-1 1 7.5 8t19 13t11.5 5q23 -14 33 -12q9 2 9 -3q0 -3 -7 -10q-29 -24 -37 -23q-19 1 -36 22zM168 127q4 10 29.5 77t58.5 152t51 131q18 50 19 53q52 12 79 34q2 1 5 -3t4 -8.5t-1 -6.5q-6 -4 -40 -64q-150 -292 -178 -354q-5 -10 -21 -13q-6 -2 -6 2z" />
<glyph unicode="&#x22;" horiz-adv-x="168" d="M107 439q16 42 37 134q-1 12 39 30q29 13 28 5q-11 -33 -80 -163q-10 -18 -21 -17q-7 1 -3 11zM212 439q16 42 37 134q-1 12 40 31q29 12 27 4q-13 -41 -80 -163q-9 -18 -21 -17q-7 1 -3 11z" />
<glyph unicode="#" horiz-adv-x="579" d="M13 190q-7 0 14 22q14 15 21 14q12 -2 109 -4q23 39 58 92q-98 0 -137 -3q-7 -1 13 21q14 16 21 15q28 -4 122 -4q78 118 120 157q4 4 36 -8l3 -2q-40 -37 -116 -148h43q56 0 95 1q75 114 120 157q6 4 37 -8l3 -2q-42 -39 -116 -147q106 2 116 2q6 0 -14 -21 q-14 -16 -21 -15q-29 2 -102 4l-59 -90q99 0 131 2q6 0 -14 -21q-14 -16 -21 -15q-12 1 -115 3q-61 -96 -91 -147q-4 -8 -20 -4q-7 1 -5 5q14 39 77 147q-29 1 -68 1h-74q-26 -42 -92 -149q-2 -3 -8.5 -4.5t-12 0.5t-4.5 5q15 40 78 148q-103 -2 -127 -4zM197 222h142 q31 52 57 92q-20 0 -47 0.5t-31 0.5h-60q-21 -31 -61 -93z" />
<glyph unicode="$" horiz-adv-x="313" d="M50 147q0 54 39 78q7 4 10 -2q1 -2 -1 -4q-13 -16 -15.5 -40t8.5 -46q16 -32 48 -45q27 73 65 168q-21 24 -32 50t-6 58t32 59q38 38 85 38h2q12 27 21 50q4 8 18 10q5 -1 5 -3l-23 -58q53 -5 53 -51q0 -28 -18 -66q-7 -13 -17 -13q-4 1 -3 7q9 42 1 65q-9 22 -27 29 l-47 -129q3 -3 15 -17t17 -20q27 -36 27 -73q0 -54 -44.5 -91.5t-100.5 -38.5q-21 -59 -32 -96l-33 -15q-6 -1 -6 0q11 35 39 113q-36 6 -58 26.5t-22 56.5zM168 81q18 0 27 2q25 5 44.5 27.5t19.5 53.5q0 36 -36 72zM206 361q4 -16 24 -39q10 25 27.5 69t17.5 45 q-29 2 -52 -20.5t-17 -54.5z" />
<glyph unicode="%" horiz-adv-x="632" d="M72 -25q118 149 280.5 322.5t275.5 252.5q-152 -23 -259 0q49 -16 -6 -106q-17 -29 -51 -67.5t-69 -62.5q-33 -23 -61 -23q-23 0 -34 13t-10.5 32t5 37t11.5 32q9 19 25 44q13 21 46 60.5t47 39.5q17 0 16 -11q0 -4 -14 -22t-37.5 -48.5t-38.5 -52.5q-66 -113 -14 -113 q16 0 40 19q41 31 77 86.5t41 98.5q5 48 -32 61q14 14 27 10q71 -21 205 -13q84 5 180 31q21 -2 4 -29q-17 -25 -36 -28q-112 -77 -290 -254.5t-296 -311.5q-8 -9 -26 -5q-11 2 -6 8zM392 104q9 19 25 44q13 21 46 60.5t47 39.5q18 0 17 -11q0 -4 -14 -22.5t-37.5 -48.5 t-38.5 -52q-6 -9 -13.5 -23.5t-17 -37t-6.5 -37.5t22 -15q16 0 40 19q41 30 77 86t41 99q5 47 -31 61q-5 1 -5.5 3.5t1.5 4.5t4 2q30 0 56.5 -17.5t23.5 -46.5q-4 -29 -28 -70q-17 -28 -51 -66.5t-68 -62.5q-34 -23 -62 -23q-22 0 -33.5 13t-11 32t5 37t11.5 32z" />
<glyph unicode="&#x26;" horiz-adv-x="608" d="M112 90q8 56 64 105q25 22 54 40t73 42t58 32l1 1q-17 55 -7 104q12 54 60 66q40 11 63 -14q16 -18 10 -46q-12 -46 -92 -102q12 -30 53 -112h134q41 0 50 7q2 2 4 0.5t0 -4.5l-18 -27q-4 -6 -8.5 -7t-20.5 1l-53 6q-9 -41 -33 -77q41 -71 69 -108t55.5 -53.5t48 -17.5 t42.5 13t36 29t33 39q8 10 10 1q2 -6 -3 -13q-45 -62 -84.5 -88.5t-86.5 -12t-95 81.5q-20 28 -56 92q-33 -34 -74 -60q-88 -51 -156 -49t-105 44q-34 37 -26 87zM190 38q29 -29 93 -30t105 18q39 15 76 59q-39 76 -53 104q-25 -1 -47.5 -6.5t-42 -21t-17.5 -39.5 q0 -15 8 -31l-8 -6q-30 51 -31 60q-3 31 14 45q25 22 115 17q-28 66 -37 91l-9 -6q-38 -23 -57 -35.5t-48.5 -36.5t-47.5 -46q-25 -31 -31 -67.5t18 -68.5zM384 417q-8 -34 8 -88q71 50 83 97q7 32 -20 42q-29 12 -53 -15q-13 -14 -18 -36zM458 189l35 -65q16 24 30 60 q-41 4 -65 5z" />
<glyph unicode="'" horiz-adv-x="106" d="M107 439q16 42 37 134q-1 12 39 30q29 13 28 5q-11 -33 -80 -163q-10 -18 -21 -17q-7 1 -3 11z" />
<glyph unicode="(" horiz-adv-x="268" d="M49 78q-1 128 69 254q52 92 154.5 173t211.5 119q59 21 111 25q6 1 9 -9q2 -6 -2 -7q-87 -15 -175.5 -65t-159 -121.5t-114 -166t-41.5 -188.5q1 -49 25 -87.5t73 -33.5l18 4q6 1 6 -4q-1 -10 -16 -16q-73 -24 -120.5 10t-48.5 113z" />
<glyph unicode=")" horiz-adv-x="507" d="M-42 -29q87 14 175.5 64t159 121.5t114.5 166t42 189.5q-1 49 -25 87t-73 34l-19 -4q-6 -1 -6 4q-1 9 13 15q2 0 4 1q72 23 119.5 -10.5t48.5 -112.5q3 -129 -69 -254q-52 -93 -154 -173.5t-212 -118.5q-57 -21 -111 -25q-5 -1 -8 7t1 9z" />
<glyph unicode="*" horiz-adv-x="507" d="M70 354l184 66v2l-143 67l47 51l113 -99l4 2l31 166h62l-71 -166l3 -2l174 100l16 -51l-184 -68l-1 -2l144 -66l-48 -51l-113 98l-4 -2l-30 -165h-62l70 165l-3 2l-173 -98z" />
<glyph unicode="+" horiz-adv-x="326" d="M86 193q-7 0 14 22q14 15 21 14q23 -4 131 -4q33 83 42 114q2 5 16.5 11t27.5 9t12 0q-38 -79 -62 -134q88 0 160 3q6 0 -14 -21q-14 -16 -21 -15q-78 4 -137 5l-1 -4q-45 -107 -50 -131q-3 -11 -44 -21q-11 -2 -11 0q17 32 71 156q-111 0 -155 -4z" />
<glyph unicode="," horiz-adv-x="129" d="M44 -69q16 13 25.5 31t10.5 30t-6 22t-19 13l4 11q13 2 27 13q2 1 4.5 3.5l4 4t3.5 3t3 1.5q28 -4 19 -42q-7 -35 -24 -57.5t-47 -43.5q-14 -9 -13 -1q0 5 8 12z" />
<glyph unicode="-" horiz-adv-x="249" d="M76 145q-5 -1 10 17q8 11 12 10q9 -2 65 -4q25 0 79 3q2 0 -2 -7t-10.5 -13.5t-9.5 -6.5q-5 0 -15.5 1.5t-21 2t-22.5 0.5q-55 0 -85 -3z" />
<glyph unicode="." horiz-adv-x="149" d="M33 16q-2 3 26 20q11 7 13 6q23 -14 33 -12q8 2 8 -3q1 -3 -6 -10q-29 -24 -38 -23q-20 1 -36 22z" />
<glyph unicode="/" horiz-adv-x="377" d="M0 -25q111 155 270 355.5t232 279.5q5 6 58 2l11 -2q-68 -72 -266 -310t-262 -326q-6 -9 -32 -6q-11 3 -11 7z" />
<glyph unicode="0" horiz-adv-x="368" d="M152 282q-23 -53 -32.5 -102.5t0 -90t40.5 -55.5q42 -21 83 9t73 103q38 78 38 154.5t-50 97.5q-45 18 -84.5 -15.5t-67.5 -100.5zM153 -8q-81 0 -88 91q-8 85 45 190q29 57 63 88q12 11 37.5 32t34.5 28q25 21 74 21q66 0 80 -72t-17 -160t-82 -135q-10 -9 -32.5 -26 t-34.5 -29q-29 -28 -80 -28z" />
<glyph unicode="1" horiz-adv-x="243" d="M8 -2l9 13q17 -4 47.5 4t42.5 29q14 26 55 154l34 105q10 32 12.5 48t0.5 20t-8 7t-22 -7.5t-34 -25t-22 -16.5l8 27q8 5 34 20t43 26q17 12 75 47q10 6 12 2t-3 -13q-30 -60 -71 -192l-15 -49q-37 -110 -43 -153q-3 -21 22.5 -28t44.5 -6l-11 -12q-20 6 -94 8 q-26 -1 -117 -8z" />
<glyph unicode="2" horiz-adv-x="331" d="M21 -5q78 67 160 146q2 2 16 15.5t19.5 18.5t20 18.5t21.5 21t20 21t20.5 22.5t17.5 22t16 22.5t11.5 20.5t8.5 20q11 34 -7.5 56t-59.5 21q-36 0 -62 -16q-27 -18 -37 -52q-10 -33 -8 -40l-21 -11q20 66 23 105q0 12 18 20q26 10 76 12l22 1q47 2 73 -10q55 -24 31 -97 q-10 -33 -46 -73q-20 -22 -55.5 -52t-60 -49.5t-72 -56t-55.5 -42.5q-27 -20 -12 -22q1 -1 5 -1q134 -10 172 12q14 8 34 30t26 34l9 -3q-24 -32 -40 -67q-11 -23 -24 -33t-36 -9q-79 5 -118 2q-34 -2 -106 -7z" />
<glyph unicode="3" horiz-adv-x="314" d="M35 26q10 20 26 81l22 9q-2 -3 -13 -39q-2 -9 -1 -19t4.5 -19t8.5 -13q18 -18 60 -16q57 2 94 37.5t52 85.5q5 17 6 30.5t-3 23t-10.5 17t-17.5 12.5t-22 8t-25.5 4.5t-26.5 2t-27 0.5l13 16l18 3q121 25 142 93q11 34 -7 56t-60 21q-37 0 -61 -16q-11 -7 -22.5 -22.5 t-15.5 -29.5q-10 -33 -8 -40l-21 -11q5 17 13.5 56t9.5 49q0 12 18 20q26 10 76 12l22 1q47 2 73 -10q25 -11 32 -34.5t-1 -44.5q-21 -67 -116 -99q-23 -8 -6 -10q2 -1 6 -1l4 -1q54 -5 68 -40q11 -25 -4.5 -69.5t-35.5 -68.5q-51 -62 -143 -69q-10 -2 -32 -0.5t-44.5 3.5 t-36.5 10.5t-8 20.5z" />
<glyph unicode="4" horiz-adv-x="403" d="M57 135q10 6 23.5 19t35.5 37t27 29l117 123q15 15 31.5 35.5t25.5 30t16 11.5q10 3 33 13q41 19 40 10q0 -2 -1 -5q-27 -52 -72 -192l-15 -49l-11 -33q40 3 51 11q16 8 37.5 29.5t27.5 33.5l10 -3q-30 -40 -42 -66q-23 -46 -65 -42q-4 0 -14 0.5t-15 0.5 q-18 -64 -22 -84q-1 -11 7 -19t20.5 -10.5t23 -3.5t17.5 -1l-12 -12q-18 5 -94 8q-26 -1 -116 -8l9 13q16 -4 46.5 4t42.5 29q10 17 33 85h-57q-62 -2 -134 -6q-12 -1 -14 1t0.5 4t9.5 7zM128 181q-15 -16 5 -18q70 -5 129 -2q11 34 12 37l34 105q24 73 14 80 q-19 -12 -194 -202z" />
<glyph unicode="5" horiz-adv-x="331" d="M35 26q10 20 26 81l22 9q-2 -3 -13 -39q-7 -34 12 -51q18 -18 60 -16q52 2 91 37t54 83q18 59 -5 86q-20 24 -62 24q-50 0 -94 -15q-10 -3 -10 -1q-1 1 9 19q15 31 51 118l25 64q3 8 6.5 9.5t11.5 0t12 -1.5q136 2 188 2q11 -1 -12 -41q-7 -13 -10 -19q-14 -36 -23 -53 l-14 3l23 45q17 29 -28 29q-94 0 -115 -2q-19 -2 -26 -14q-36 -70 -66 -136q36 19 91 19q143 0 102 -128q-21 -66 -69.5 -103.5t-115.5 -42.5q-9 -2 -31 -0.5t-45 3.5t-37 10.5t-8 20.5z" />
<glyph unicode="6" horiz-adv-x="336" d="M86 213q35 97 101.5 165t156.5 68q52 0 69 -15q7 -6 2 -13q-11 -20 -24 -72l-18 -8q2 4 12 34q7 28 -9 44q-13 12 -40 12q-49 0 -96.5 -41.5t-72.5 -94.5q-20 -40 -27 -69q12 9 33.5 20.5t27.5 15.5q22 13 67 13q47 0 70.5 -27t21.5 -64t-21.5 -75t-50.5 -59 q-8 -5 -27.5 -15.5t-30.5 -18.5q-24 -17 -71 -17q-43 0 -67 20t-28 53.5t2 68.5t20 75zM132 172q-25 -44 -18.5 -88.5t50.5 -57.5q39 -12 75 7q42 23 58 68.5t7 84.5q-7 35 -37 50t-72 -1q-43 -19 -63 -63z" />
<glyph unicode="7" horiz-adv-x="310" d="M50 2q1 9 152.5 185.5t153.5 195.5q1 6 -3.5 9.5t-13.5 4.5q-20 2 -116 2q-43 0 -56 -25q-17 -27 -22 -45l-18 -3l27 49q3 5 10.5 23t14 27.5t14.5 9.5q72 0 208 -2q5 0 19 3q19 4 19 0q0 -1 -3 -5q-82 -92 -202 -242.5t-125 -188.5q-12 3 -27.5 2.5t-21.5 -1.5t-10 1z " />
<glyph unicode="8" horiz-adv-x="351" d="M44 80q23 72 138 136q-21 14 -31.5 27.5t-15 35t5.5 48.5q15 51 63.5 86.5t97.5 35.5q45 0 66.5 -23.5t7.5 -68.5q-19 -57 -120 -118q37 -28 52 -53.5t1 -68.5q-18 -57 -69.5 -91.5t-109.5 -34.5q-45 0 -72 23t-14 66zM87 88q-11 -35 0.5 -56.5t45.5 -21.5 q39 0 70.5 22.5t44.5 60.5q12 40 -2 64t-49 49q-91 -58 -110 -118zM194 352q-7 -14 -4.5 -28.5t5.5 -23.5t12 -19.5t16.5 -17t18.5 -14.5q33 21 64 52.5t40 59.5q10 32 -4.5 52t-45.5 20q-35 0 -63 -22.5t-39 -58.5z" />
<glyph unicode="9" horiz-adv-x="336" d="M45 25q14 31 24 71l18 8q-3 -3 -12 -34q-7 -27 9 -43q13 -12 40 -12q49 0 96 41.5t73 94.5q23 50 27 68q-12 -9 -34 -20.5t-27 -14.5q-22 -13 -68 -13q-62 0 -82 44t0 97.5t63 82.5q10 7 29 17.5t28 16.5q25 17 72 17q43 0 67 -19.5t27.5 -53t-2.5 -68.5t-20 -75 q-34 -97 -100.5 -165.5t-157.5 -68.5q-10 0 -22 1.5t-25.5 4t-20.5 9t-2 14.5zM167 350q-26 -46 -18.5 -90.5t54.5 -56.5q37 -10 71.5 9.5t53.5 57.5q25 45 18.5 89t-50.5 57q-39 12 -73 -5.5t-56 -60.5z" />
<glyph unicode=":" horiz-adv-x="154" d="M59 17q-1 1 7.5 8t19 13t11.5 6q23 -14 33 -12q8 1 9 -2.5t-7 -10.5q-26 -24 -37 -24q-17 1 -36 22zM131 267q-1 1 7.5 8t19 13t11.5 6q23 -14 33 -12q9 2 9 -3q-1 -4 -7 -10q-29 -24 -38 -23q-16 0 -35 21z" />
<glyph unicode=";" horiz-adv-x="154" d="M37 -116q3 13 10 19q38 32 46 73q2 12 -5 22t-20 13l4 11q10 1 27 13l15 12q28 -4 19 -42q-17 -76 -96 -121zM144 267q-1 1 8 8t19 13t12 6q23 -14 33 -12q8 2 8 -3q-1 -4 -6 -10q-29 -24 -38 -23q-17 0 -36 21z" />
<glyph unicode="&#x3c;" horiz-adv-x="293" d="M88 200l5 17q108 59 233 152q0 -13 -6 -23q-15 -19 -74 -60.5t-91 -60.5q-6 -4 -2 -8q51 -35 82 -67q52 -52 37 -68l-14 -13q-13 -13 -15 -17h-6q1 11 -13 30q-24 34 -62.5 67t-73.5 51z" />
<glyph unicode="=" horiz-adv-x="344" d="M61 125q-7 0 14 22q14 15 21 14q31 -4 112 -4q62 0 149 3q6 0 -14 -21q-14 -16 -21 -15q-63 5 -116 5q-98 0 -145 -4zM86 246q-6 -1 12 20q16 17 23 16q14 -2 112 -5q33 0 149 4q6 0 -14 -21q-14 -16 -21 -15q-63 5 -116 5q-98 0 -145 -4z" />
<glyph unicode="&#x3e;" horiz-adv-x="293" d="M63 82q-2 4 0 9t7.5 11t11 11t14 12t13.5 10.5t13 8.5l8 6q42 31 110 67q6 4 1 8q-24 19 -65 60.5t-48 60.5q-1 10 4 23q80 -89 168 -152l-2 -17q-102 -44 -186 -118q-22 -18 -26 -30h-6q0 4 -17 30z" />
<glyph unicode="?" horiz-adv-x="434" d="M101 16q-1 1 7.5 8t19 13t11.5 5q23 -14 33 -12q9 2 9 -3q0 -3 -7 -10q-29 -24 -37 -23q-19 1 -36 22zM155 176q-1 26 15 51.5t40 44.5l166 132q40 32 40 75.5t-38 59.5q-23 11 -59 6t-60 -22q-14 -10 -31.5 -39.5t-23.5 -54.5q0 -10 -12 -14q-8 -3 -8 3v2q19 83 18 104 q0 15 22 26q28 14 93 18l28 2q154 13 133 -105q-7 -37 -30.5 -65t-56 -45t-65.5 -32.5t-65.5 -37.5t-50.5 -49q-48 -73 -19 -106l-11 -15q-22 23 -25 61z" />
<glyph unicode="@" horiz-adv-x="694" d="M18 186q1 78 35 144.5t90 110t127 67t147 22.5q73 -1 132 -19.5t97.5 -62t34.5 -105.5q-8 -113 -99.5 -168.5t-229.5 -55.5q-24 0 -24 20q0 32 39 96q-37 -40 -74 -70q-50 -44 -90 -44q-18 0 -18 21v8q7 56 46.5 119.5t87.5 100.5q36 26 75 26l115 -1q5 0 5 -4 q0 -8 -9 -8q-14 0 -36 -32q-26 -42 -57 -102.5t-32 -86.5q-1 -23 44 -19q66 5 126 55q74 61 74 153q0 80 -60.5 118.5t-148.5 37.5q-86 0 -164.5 -41t-128.5 -116t-51 -164q0 -81 56 -132.5t140 -51.5q166 0 265 106q20 21 27 6q8 -15 -12 -35l-3 -3q-58 -52 -121.5 -70.5 t-155.5 -18.5q-49 0 -91.5 11t-79 33.5t-57.5 62t-21 92.5zM235 166q0 -12 9 -12q29 0 103.5 89t74.5 121q0 19 -24 19q-26 0 -63 -35q-26 -24 -63 -88.5t-37 -93.5z" />
<glyph unicode="A" horiz-adv-x="768" d="M21 47q1 18 19 56q7 14 12 14q2 1 2.5 -2t-1.5 -6q-21 -47 -8 -69.5t51 -22.5q119 0 351 216l-66.5 3.5t-66.5 2.5q-76 0 -101 -25q-10 -10 -15.5 -29t-0.5 -34l-7 1q-8 2 -13.5 5t-7.5 10q1 8 -1 12.5t2.5 10.5t6 9.5t8 8t10 7t11 6.5t11.5 5.5t12 5t11 4.5 q74 32 139 32q41 0 102 -3q66 64 152 155q76 80 155 101h-55q-159 0 -213 -46q-24 -21 -29.5 -49t10.5 -37q5 -3 -7 -8q-6 -3 -9 -1q-10 7 -17.5 28t-5.5 35q4 25 19.5 43.5t44.5 29t53 17t63 9t56 3t49 0.5h109q2 0 1 -1q73 33 100 33q12 0 16 -7q2 -4 -5 -6q-5 -1 -14 -1 t-14 -1t-14.5 -6.5t-20.5 -17.5q-33 -33 -104 -157.5t-115 -222.5q0 -1 -1 -3q-64 -148 -13 -144q6 1 15 4q24 10 54 38q34 32 66 77q5 8 9.5 4t-1.5 -12l-7 -10q-7 -9 -11 -14t-13 -16.5t-16 -19t-17.5 -18t-19.5 -18t-20 -14.5t-21 -12q-25 -14 -54.5 -6.5t-35.5 39.5 q-9 49 31 135q42 89 105.5 205t94.5 157q-25 -1 -72.5 -28t-84.5 -65q-23 -24 -79 -86t-80 -88q60 -2 92 -2q41 0 72 15q-2 -5 -5.5 -11.5t-18.5 -19t-33 -13.5q-65 -4 -138 -1q-248 -256 -397 -256q-32 0 -51 18.5t-15 53.5z" />
<glyph unicode="B" horiz-adv-x="562" d="M0 -10q41 7 64 48q48 81 80 142l96 177q18 31 41 78.5t27 55.5q13 24 59 40q-72 4 -156.5 -11.5t-102.5 -49.5q-11 -19 -9.5 -39.5t15.5 -29.5q5 -2 -2 -6q-4 -3 -7 -1q-9 5 -22 24.5t-16 32.5q-9 33 5 53.5t47.5 28t55.5 9.5t56 2h3q20 0 72.5 0.5t76.5 0.5q31 -1 66 0 t71 -10.5t52 -35.5q18 -37 10.5 -73.5t-31.5 -67.5q-47 -59 -122 -75q-2 0 -2 -3t2 -3t9.5 -1t16 -2.5t14.5 -2.5q37 -8 59.5 -31t22.5 -59q0 -61 -45 -109t-108 -71q-48 -18 -110 -18q-91 0 -150 31q-30 16 -59 1q-4 -2 -25.5 -15t-36.5 -18q-15 -3 -18 4q-2 2 1 4zM152 83 q-17 -35 19 -62q43 -25 90.5 -23.5t93.5 18.5q59 23 98.5 70.5t39.5 109.5q0 36 -24.5 54t-63 18t-70 -5t-60.5 -13q-8 3 26 29l2 2q11 11 19 11q43 0 69 3t53.5 13.5t46 33t31.5 59.5q18 43 5 82t-55 45q-24 3 -52.5 -2t-41.5 -21q-18 -23 -37.5 -56.5t-32.5 -58t-33.5 -66 t-28.5 -57.5q-62 -120 -94 -184z" />
<glyph unicode="C" horiz-adv-x="527" d="M38 135q0 94 52 183.5t134 151.5q105 79 227 79q55 0 92 -18q51 -24 43 -63q-3 -11 -19.5 -38t-21.5 -41q-2 -7 -15 -8q-4 1 -4 3q14 23 16.5 58.5t-10.5 59.5q-19 32 -74.5 32t-87.5 -16q-58 -21 -111 -66q-71 -63 -116.5 -150.5t-45.5 -164.5q0 -60 31.5 -94.5 t80.5 -41.5t99 -1t96 24q109 42 175 124q8 10 10 3t-8 -21q-63 -84 -169 -128q-39 -16 -86.5 -24.5t-98.5 -5.5t-93 18.5t-69 52.5t-27 92z" />
<glyph unicode="D" horiz-adv-x="626" d="M-2 -13l2 3q6 2 6 1.5t7 1.5q32 11 51 45q29 48 176 319l45 87q14 32 23 47q15 25 59 40h-24q-66 0 -141.5 -13.5t-93.5 -47.5q-10 -18 -10 -35q0 -12 4.5 -20t9 -11.5t4.5 -4.5q0 -6 -8 -6t-23 23.5t-18 34.5t-3 22q0 71 164 71q34 0 100 2.5t99 2.5q41 0 74.5 -4 t69 -15.5t59.5 -30t39 -51.5t15 -77q0 -102 -68 -204q-122 -183 -342 -183q-77 0 -136 30q-18 9 -30 9q-18 0 -51 -21t-47 -21q-12 0 -12 6zM146 60q0 -18 25 -39q30 -23 91 -23q111 0 199.5 63.5t131.5 167.5q30 76 30 136q0 77 -47 120t-125 43q-53 0 -73 -23 q-16 -18 -47 -72q-14 -24 -28 -51.5t-31 -62.5t-26 -52l-65 -127q-20 -38 -29 -57q-6 -14 -6 -23z" />
<glyph unicode="E" horiz-adv-x="478" d="M49 89q29 52 83 146t74 129q43 78 69 118q24 38 61 47q-129 -7 -175 -26q-31 -13 -42 -33q-11 -19 -9.5 -39.5t15.5 -29.5q4 -2 -2 -6q-4 -3 -7 -1q-9 5 -22 24.5t-16 32.5q-23 82 111 92q19 1 53 1h1h2q12 0 146 3t146 -2q25 -1 36 -10.5t8.5 -24t-9 -30t-15.5 -31.5 q-4 -7 -6 -10q-7 -13 -17 -12q-4 0 -3 6q19 79 -26 93q-22 7 -107 3q-40 -3 -54 -21q-31 -44 -122 -201q-4 -11 8 -11q15 0 69.5 -1t77.5 0q59 5 75 13q9 6 8 -2q-1 -16 -22 -31q-13 -10 -26 -10q-32 0 -93.5 2.5t-108.5 0.5q-10 -1 -14 -8q-5 -10 -16.5 -31.5t-19.5 -36.5 q-49 -95 -49 -129q0 -53 100 -55q209 0 307 125q4 6 7 -3q1 -6 -1 -9q-4 -5 -23 -29.5t-26 -32t-21.5 -23t-25.5 -23t-22 -10.5q-36 -11 -123.5 -14t-178.5 6q-51 5 -65 26t10 68z" />
<glyph unicode="F" horiz-adv-x="582" d="M32 90v7v9t0.5 7.5t3 6.5t5.5 2q2 0 2 -2q0 -4 -0.5 -12t-0.5 -12q0 -46 22.5 -71t59.5 -25q62 0 129 72q24 26 59 89.5t87.5 172t60.5 124.5q25 48 89 74q-42 0 -117 -5q-156 -10 -189 -59q-14 -22 -7 -45.5t28 -33.5q6 -3 -4 -8q-5 -3 -9 -1q-13 7 -30.5 28t-22.5 35 q-13 36 8 59.5t70.5 32.5t82 11t78.5 2q254 0 302 -3q21 -1 31.5 -8.5t13 -16t-2.5 -24t-10 -25t-14 -25.5q-3 -5 -4 -7q-5 -11 -16 -12q-6 -1 -4 6q21 78 -25 93q-28 11 -82 6t-79 -24q-9 -7 -18 -17.5t-19 -26.5t-17.5 -28.5t-18 -34t-15.5 -32.5t-16 -34t-13 -28 q-4 -11 8 -11t65.5 -0.5t75.5 -0.5q32 0 42.5 -6t0.5 -26q-5 -10 -15.5 -26.5t-13.5 -24.5q-2 -7 -13 -8q-2 1 -2 2q27 62 -1 62h-156q-9 0 -14 -8q-4 -8 -23 -46.5t-27.5 -54.5t-25 -46t-32 -51t-32.5 -39q-58 -61 -126 -61q-33 0 -60.5 18.5t-40.5 52.5q-8 19 -8 57z" />
<glyph unicode="G" horiz-adv-x="576" d="M32 -223v4.5v6v6t1 6l2 5t3.5 3.5t5.5 1q2 0 2 -2q0 -4 -1 -12t-1 -13q0 -45 28.5 -69.5t74.5 -24.5q120 0 212 116q20 25 38 52t30 48t26 52.5t20.5 48t21 54.5t20.5 52q-40 -59 -119 -101t-153 -42q-86 -1 -145.5 42.5t-59.5 124.5q0 94 52 183.5t134 151.5 q105 79 227 79q55 0 92 -18q51 -24 43 -63q-3 -11 -19.5 -38t-21.5 -41q-2 -7 -15 -8q-4 1 -4 3q14 23 16.5 58.5t-10.5 59.5q-19 32 -74.5 32t-87.5 -16q-58 -21 -111 -66q-71 -63 -116.5 -150.5t-45.5 -164.5q0 -75 41.5 -112.5t104.5 -37.5q115 -1 195.5 75t119.5 192 h-103q-133 0 -128 -63q0 -12 5 -22l-9 -6q-27 45 -27 51q-3 30 14 44q11 9 33.5 13.5t41.5 4.5t46.5 -1.5t33.5 -1.5h190l-11 -12q-41 0 -59 -23q-6 -8 -11 -16.5t-10 -19t-8.5 -17.5t-8 -21t-6 -19.5t-7 -22t-6.5 -21.5q-6 -21 -19 -69.5t-20 -71.5t-22 -63.5t-29.5 -66.5 t-38 -56.5t-52.5 -55.5q-33 -28 -81 -47t-88 -19q-42 0 -81 17.5t-55 51.5q-10 19 -10 56z" />
<glyph unicode="H" horiz-adv-x="770" d="M5 108v7v9t0.5 7.5t3 6.5t5.5 2q2 0 2 -2q0 -4 -0.5 -12t-0.5 -12q0 -46 22.5 -70.5t59.5 -24.5q63 0 129 71q33 36 92 151q-87 -2 -131 -9q-9 -2 -4 6q13 19 44 33l14 5l93 -3q17 32 81 159q16 33 45.5 62t60.5 35q-17 -1 -53 -1.5t-58 -1.5t-52 -4.5t-54 -10.5 q-53 -14 -67 -41q-10 -20 -8 -40t14 -29q4 -3 -2 -6q-4 -3 -7 -1q-9 5 -22 24.5t-16 32.5q-9 33 4.5 53.5t47.5 28t56 9.5t56 2h3q188 0 213 4q9 2 10.5 -1.5t-2 -8t-6.5 -4.5q-60 -6 -107 -89q-35 -63 -92 -174q10 0 21.5 -0.5t17.5 -1t7 -0.5h147q44 0 71 12 q106 202 146 253q6 2 35 16t49 20.5t36 6.5q12 0 16 -7q2 -4 -5 -6q-5 -1 -14 -1t-14 -1t-15 -6.5t-21 -17.5q-43 -43 -137.5 -218.5t-109.5 -237.5q-16 -72 34 -72q26 0 62 19q47 27 112 113q7 9 7 -2q0 -7 -3 -12q-61 -88 -122 -121q-28 -15 -70 -17q-41 -2 -64.5 32 t-8.5 77q18 47 76 161q-25 -23 -48 -22q-41 4 -172 4h-48q-78 -156 -120 -201q-58 -61 -130 -61q-32 0 -60 18.5t-41 52.5q-8 19 -8 57z" />
<glyph unicode="I" horiz-adv-x="365" d="M10 117q0 13 5 14q4 1 5 -5q1 -1 1 -3q0 -46 22.5 -70.5t59.5 -24.5q63 0 129 71q17 18 32.5 38.5t26.5 35t26.5 41.5t21.5 37t22.5 43.5t19 38.5t21 45t19.5 42q32 67 80 99h-30q-22 0 -43 -2t-51 -8.5t-47 -24t-15 -42.5q2 -17 12 -38l-10 -8q-39 68 -40 75 q-3 36 17 54q13 11 40.5 16t51 4.5t56.5 -2t41 -1.5l160 1l-13 -15q-31 0 -67 -7q-26 -4 -56.5 -27.5t-51.5 -58.5l-9 -15q-7 -16 -33 -79t-44 -104t-50 -95t-63 -87q-25 -28 -63.5 -46.5t-72.5 -18.5q-33 0 -60.5 18.5t-40.5 52.5q-9 22 -9 56z" />
<glyph unicode="J" horiz-adv-x="203" d="M-222 -39q0 15 5 14.5t5 -8.5q0 -46 23 -70.5t60 -24.5q62 0 128 71q85 93 155 252q4 9 37.5 92t53.5 125q27 61 41 76q19 21 67 40q-11 -1 -29 -2.5t-23 -1.5q-156 -4 -187 -49q-14 -22 -6 -49t29 -37q7 -3 -2 -8q-6 -2 -10 -1q-13 7 -31.5 28.5t-22.5 34.5 q-12 36 7 58.5t66.5 31t78.5 10.5t79 2h4h108q8 1 -4 -9l-9 -6q-58 -3 -112 -113q-26 -51 -100 -222q-4 -10 -18 -43t-18.5 -43t-17 -37t-19 -39t-18.5 -34t-22 -35.5t-23.5 -31t-28.5 -33.5q-26 -28 -64.5 -47t-72.5 -19q-32 0 -59.5 18.5t-41.5 53.5q-8 19 -8 56z" />
<glyph unicode="K" horiz-adv-x="560" d="M-1 -16q39 32 70 82l14 24q30 50 77.5 133.5t79.5 142.5l33 59q25 44 57 69.5t60 33.5q-87 -2 -138 -13.5t-69 -44.5q-9 -20 -7 -40.5t14 -28.5q4 -3 -2 -6q-4 -3 -7 -1q-9 5 -22 24.5t-16 32.5q0 14 -3 25.5t4.5 20t11.5 15.5t17 12t20.5 8.5t23 5.5t24 3.5t24 2 t22.5 0.5h20h3q98 0 123 4q13 3 16 -10q0 -10 -9 -10q-16 4 -33 -3.5t-35 -26.5t-35 -49q-64 -108 -99 -173q-72 -134 -120 -230q-2 -4 -7.5 -18t-10.5 -20t-11 -5q-42 9 -79 -23q-4 -4 -10 0q-1 3 -1 4zM228 254q86 79 234 171q9 6 50.5 32t71 42.5t57.5 28.5q33 14 64 14 t55 -10q12 -4 23.5 -13.5t10.5 -20.5q0 -4 -4 -4t-8.5 6t-14 12t-23.5 6q-31 0 -95 -26q-107 -46 -167 -79q-84 -46 -215 -141q12 -33 41 -86t70 -102q26 -32 53 -44t48 -9t45.5 21.5t40.5 36.5t37 46q8 11 11 3q0 -6 -5 -14q-38 -54 -70 -85t-65.5 -44.5t-67 2t-67.5 60.5 q-29 38 -52 79.5t-40 78.5t-18 39z" />
<glyph unicode="L" horiz-adv-x="547" d="M8 -7q-3 -3 -5 4q-3 16 10 22l7 2q39 2 74 35t50 69l92 230q17 43 32 71t39 58.5t57 46t76 15.5q45 0 77 -17t24 -52q-2 -10 -18 -33t-22 -39q-3 -10 -11 -6q-5 2 -1 8q14 21 17 50.5t-10.5 53.5t-42.5 24q-64 0 -100 -67l-185 -341q-43 -78 -83 -94h187h26.5h28h27 t26.5 0.5t23.5 1.5t22.5 2t17.5 3t14 5t7.5 6q14 21 9 39t-26 28q-7 3 -1 8q3 2 7 0q12 -6 33 -31.5t26 -39.5q10 -28 -8 -43.5t-60 -15.5q-66 0 -202 9.5t-162 10.5q-45 3 -73 -23z" />
<glyph unicode="M" horiz-adv-x="830" d="M6 117q0 13 5 14q4 1 5 -5q1 -1 1 -3q0 -46 22.5 -70.5t59.5 -24.5q64 0 128 71q15 16 28.5 32.5t26.5 35.5t22 32.5t22 36.5t19 33.5t19 37.5t17 35.5t18.5 39.5t17.5 38q37 80 104 100l1 1h-55q-159 0 -190 -46q-14 -22 -6 -49t29 -37q7 -3 -2 -8q-6 -3 -10 -1 q-13 7 -31.5 28.5t-22.5 34.5q-12 36 7 58.5t66.5 31t78.5 10.5t79 2h4h108q8 1 -4 -9q-7 -6 -9 -6q-51 -11 -48 -95q5 -210 8 -293v-6l347 366q40 42 70.5 63t62.5 18q6 0 -3 -8q-4 -4 -8 -5q-42 1 -86 -70q-59 -97 -130 -253q-110 -244 -46 -236q6 1 13 4q31 13 58 38 q12 11 25 26t21 25t15.5 20t8.5 11q6 9 8 1q2 -7 -3 -14q-2 -2 -11 -14t-16.5 -21t-20 -23.5t-24 -25.5t-26 -21.5t-28.5 -16.5q-25 -14 -56 -6.5t-38 39.5q-3 17 0 39t15 52.5t18.5 46.5t24 52t18.5 38q50 106 79 154l-288 -304q-3 -19 -26 -28q-10 -4 -35 -34q-1 -1 -4 -1 t-5.5 2t-1.5 3q26 33 27 91l1 24l5 267q0 44 24 73q-40 -30 -60 -71q-8 -16 -43.5 -104.5t-73 -160t-80.5 -117.5q-25 -27 -64 -46t-72 -19t-60.5 18.5t-40.5 52.5q-9 22 -9 56z" />
<glyph unicode="N" horiz-adv-x="721" d="M6 117q0 15 5 14.5t5 -8.5q0 -47 25.5 -78t62.5 -31q72 0 133 64q26 28 47.5 59t41.5 72t30.5 64.5t32.5 77.5t28 69q16 39 43 67t62 34h-55q-159 0 -191 -46q-14 -22 -5.5 -49t29.5 -37q6 -3 -3 -8q-5 -2 -9 -1q-13 7 -31.5 28.5t-22.5 34.5q-12 36 7 58.5t66.5 31 t78 10.5t78.5 2h4h121q9 1 -8 -20q-9 -11 -13 -10q-11 1 -31 -3.5t-28 -10.5q6 -73 40.5 -192.5t75.5 -222.5q12 30 59 159t88 220t76 124q15 14 38 20.5t40 0.5t16 -24l-1 -36l-9 -2q1 11 -9 17.5t-19 6.5q-23 1 -52.5 -34.5t-62 -102t-54.5 -117t-51.5 -126t-33.5 -84.5 q-13 -30 -9 -53q0 -5 2 -13.5t1.5 -14t-6.5 -10.5q-10 -7 -22 -12q-7 -3 -19 -15t-16 -18q-4 -5 -10 1l-1 2q11 15 20 41q-9 49 -26 112t-30 107t-37.5 120t-33.5 105q-10 -7 -25 -52q-1 -3 -13.5 -36.5t-17 -44.5l-18 -44t-21 -49.5t-22 -46t-26.5 -49t-27.5 -42.5 t-30.5 -41q-22 -27 -66.5 -46t-79.5 -19q-32 0 -60 18t-42 53q-8 23 -8 56z" />
<glyph unicode="O" horiz-adv-x="594" d="M7 146q0 43 16 95t50.5 107.5t81.5 101t116 75t147 29.5q119 0 174.5 -38.5t55.5 -119.5q0 -104 -56 -198.5t-152.5 -152t-207.5 -57.5q-225 0 -225 158zM60 137q0 -134 164 -134q98 0 184.5 62t134.5 154.5t48 185.5q0 134 -171 134q-85 0 -170.5 -68t-137.5 -162 t-52 -172z" />
<glyph unicode="P" horiz-adv-x="541" d="M3 -10q41 7 64 48q33 56 176 319q14 24 28 52t25 51.5t15 30.5q13 24 59 40q-72 4 -156.5 -11.5t-102.5 -49.5q-11 -19 -9.5 -39.5t15.5 -29.5q5 -2 -2 -7q-4 -2 -6 0q-9 5 -22 24.5t-17 32.5q-23 83 113 92q19 1 55 1q20 0 72 0.5t76 0.5q31 -1 66 0t71 -10.5t52 -35.5 q33 -51 15.5 -100t-57 -85.5t-86.5 -54.5q-40 -15 -94.5 -20t-87.5 -1q-8 1 7 14q7 7 12 6q27 -5 64.5 0t72 15.5t65.5 40.5t47 75q18 48 1 90.5t-59 48.5q-24 3 -52.5 -2t-41.5 -21q-18 -23 -37.5 -56.5t-32.5 -58t-33.5 -66t-28.5 -57.5q-2 -4 -12 -22.5t-20 -36.5 t-23 -43t-23 -47t-19 -42.5t-12.5 -36t-0.5 -21.5q4 -9 -12 -3q-2 0 -6 1.5t-6.5 2t-7 1t-8 0.5t-8 -1.5t-9.5 -3.5q-4 -2 -25 -15t-37 -18q-15 -3 -18 4q-2 2 1 4z" />
<glyph unicode="Q" horiz-adv-x="599" d="M7 146q0 43 16 95t50.5 107.5t81.5 101t116 75t147 29.5q119 0 174.5 -38.5t55.5 -119.5q0 -135 -91.5 -248.5t-228.5 -147.5q28 -58 130 -199q23 -31 55.5 -37t63 8t52 29t32.5 27q6 7 10 -1q1 -3 -2 -7q-17 -20 -48.5 -41.5t-70 -37.5t-77 -9t-60.5 43 q-83 134 -128 216q-25 -3 -53 -3q-225 0 -225 158zM60 137q0 -134 164 -134q98 0 184.5 62t134.5 154.5t48 185.5q0 134 -171 134q-85 0 -170.5 -68t-137.5 -162t-52 -172z" />
<glyph unicode="R" horiz-adv-x="602" d="M3 -10q41 7 64 48q33 56 176 319q14 24 28 52t25 51.5t15 30.5q13 24 59 40q-72 4 -156.5 -11.5t-102.5 -49.5q-11 -19 -9.5 -39.5t15.5 -29.5q5 -2 -2 -7q-4 -2 -6 0q-9 5 -22 24.5t-17 32.5q-23 83 113 92q19 1 55 1q20 0 72 0.5t76 0.5q31 -1 66 0t71 -10.5t52 -35.5 q20 -34 15.5 -80t-27.5 -76q-21 -27 -50 -48q-36 -26 -94 -40t-113 -17q41 -91 104 -169q96 -116 232 63q7 11 8 0q0 -9 -6 -17q-39 -54 -71.5 -85.5t-66.5 -46.5t-68 0t-68 59q-29 39 -52 80t-40 78t-18 39q19 26 30 26h13q45 0 66 1t52 7t47.5 18.5t34.5 37t30 60.5 q18 48 1 90.5t-59 48.5q-24 3 -52.5 -2t-41.5 -21q-18 -23 -37.5 -56.5t-32.5 -58t-33.5 -66t-28.5 -57.5q-2 -4 -12 -22.5t-20 -36.5t-23 -43t-23 -47t-19 -42.5t-12.5 -36t-0.5 -21.5q4 -9 -12 -3q-2 0 -6 1.5t-6.5 2t-7 1t-8 0.5t-8 -1.5t-9.5 -3.5q-4 -2 -25 -15 t-37 -18q-15 -3 -18 4q-2 2 1 4z" />
<glyph unicode="S" horiz-adv-x="451" d="M40 75q-7 34 7 71t39 56q1 1 4 -1.5t3.5 -5t-1.5 -4.5q-22 -26 -18.5 -59.5t22.5 -61.5q23 -32 64 -53t83 -23q79 -4 114.5 52t7.5 131q-12 34 -49.5 96.5t-41.5 69.5q-42 81 5 148q41 56 115.5 69t129.5 -41q6 -10 5 -27t-7 -27q-26 -38 -33 -63q-14 -9 -19 -3 q18 36 18 67v6.5v7v7t-1 7.5t-2.5 7t-4 7t-6.5 6q-29 27 -77 27q-66 0 -96 -46t-9 -94q14 -34 67.5 -100t69.5 -106q18 -49 4.5 -91t-46.5 -72.5t-77.5 -48t-88.5 -17.5q-62 0 -115 27t-66 82z" />
<glyph unicode="T" horiz-adv-x="432" d="M18 442q-14 38 4.5 63t55 33.5t77.5 12.5t72 -1q14 -1 62.5 -4t75.5 -5l159 -13q198 -18 224 15q1 2 3.5 2t4 -1.5t0.5 -3.5q-3 -12 -8 -18q-5 -10 -8.5 -15.5t-11.5 -13t-19 -9.5q-27 -6 -145 9q-21 -4 -39.5 -17t-34 -37.5t-23.5 -38.5t-21 -43q-15 -32 -37 -84.5 t-35 -80.5q-57 -124 -100 -171q-57 -60 -126 -60q-33 0 -60.5 18.5t-40.5 52.5q-9 22 -9 56q0 33 10 33q2 0 2 -2q0 -4 -0.5 -12.5t-0.5 -12.5q0 -46 22.5 -70.5t59.5 -24.5q63 0 129 71q26 29 54 80t45.5 92t43 105.5t35.5 87.5q18 41 90 62q-32 4 -94.5 10t-72.5 7 q-41 2 -98 4.5t-119 -10.5t-82 -43q-13 -21 -5.5 -45t29.5 -35q6 -4 -3 -8q-5 -2 -9 0q-13 7 -32 29t-24 36z" />
<glyph unicode="U" horiz-adv-x="611" d="M8 471q-5 35 17 54q13 11 40.5 16t50.5 4.5t56 -2t42 -1.5q141 1 230 1l-13 -15q-49 0 -71 -28q-56 -73 -127.5 -225t-80.5 -227q-3 -28 23 -33.5t52 10.5q54 27 112.5 88t104.5 125q81 116 142 250q2 3 7.5 17.5t10.5 20.5t12 5q42 -11 78 23q6 4 12 -1v-3 q-35 -28 -70 -82q-149 -226 -184 -335q-45 -142 51 -125q33 5 90 62q31 28 71 79q2 -4 2 -8q-1 -12 -13 -26q-20 -26 -52 -60q-29 -29 -70 -56t-73 -25q-36 2 -50.5 23.5t-9.5 57t14.5 66.5t24.5 69q1 1 1.5 2t0.5 2q-28 -33 -90 -93q-69 -67 -99 -89q-56 -39 -107 -38 q-31 0 -43.5 13.5t-11 30t11.5 41.5q22 55 58 124q3 6 20 38.5t25 49l24 49.5t24.5 55t19 50.5t15 51.5t4.5 42h-88q-22 0 -43 -2t-51 -8.5t-47.5 -24t-15.5 -42.5q2 -24 13 -38l-11 -8q-1 2 -14 23t-19 33t-6 19z" />
<glyph unicode="V" horiz-adv-x="538" d="M14 471q-3 37 17 54q13 11 40.5 16t50.5 4.5t56 -2t42 -1.5q141 1 230 1l-21 -26h-70q30 -56 23 -240q-5 -109 -41 -238q45 64 75 104.5t86.5 111t119 134.5t128.5 119q38 32 93 60t97 25q16 -1 26.5 -6t13.5 -13.5t3.5 -17t-3.5 -21t-7.5 -21t-9.5 -20.5t-8 -17 q-3 -6 -13 -4l-3 3q23 80 -22 87q-53 8 -152 -73q-148 -118 -304 -316q-90 -113 -133 -187q-1 -2 -3 -9t-4 -9q-4 -4 -21.5 -11t-22.5 -7q-9 0 -13.5 2.5t-3.5 10.5q0 4 7 18l17 56q34 131 45 219q24 203 10 261q-22 0 -66 0.5t-65 0.5q-22 0 -43 -2t-51 -8.5t-47.5 -24 t-15.5 -42.5q2 -24 13 -38l-11 -8q-1 2 -14 23t-19 33t-6 19z" />
<glyph unicode="W" horiz-adv-x="892" d="M14 471q-3 37 17 54q13 11 40.5 16t50.5 4.5t56 -2t42 -1.5q141 1 230 1l-21 -26q-20 0 -59.5 0.5t-59.5 0.5q37 -25 55.5 -74.5t17 -91.5t-0.5 -75q-5 -109 -41 -238q11 16 67.5 100t108 152.5t107.5 127.5q37 39 57 58t59 40t76 18q26 -2 39 -10l-6 -11 q-28 7 -64.5 -9.5t-59.5 -39.5q-35 -35 -55 -95.5t-24.5 -115t-10 -119t-14.5 -96.5q217 307 411 469q39 33 92.5 60.5t95.5 24.5q16 -1 26.5 -6t13.5 -13.5t3.5 -17t-3.5 -21t-7.5 -21t-9.5 -20.5t-8 -17q-3 -6 -13 -4l-3 3q23 80 -22 87q-30 4 -64 -13.5t-85 -59.5 q-156 -124 -307 -316q-90 -113 -133 -187q-1 -2 -3 -9t-4 -9q-4 -4 -21.5 -11t-22.5 -7q-9 0 -13.5 2.5t-3.5 10.5q0 4 7 18l17 56q12 43 19.5 120.5t21 141.5t42.5 108q-6 -3 -13 -9.5t-16 -16.5t-17.5 -20t-22 -26.5t-23 -28.5t-27 -34t-28.5 -36q-68 -87 -162 -250 q-1 -2 -3 -9t-4 -9q-3 -3 -26 -10.5t-28 -7.5q-9 0 -13.5 2.5t-3.5 10.5q0 4 7 18l17 56q34 131 45 219q2 36 4 80.5t-10.5 98t-38.5 83.5h-76q-22 0 -43 -2t-51 -8.5t-47.5 -24t-15.5 -42.5q2 -24 13 -38l-11 -8q-1 2 -14 23t-19 33t-6 19z" />
<glyph unicode="X" horiz-adv-x="542" d="M-111 0q1 21 18 60q7 17 12 16q4 0 1 -8q-19 -50 -5 -69.5t52 -11.5q63 13 143.5 81t182.5 178q-9 44 -15 94.5t-4.5 104t15.5 73.5q-27 1 -81 1q-22 0 -43 -2t-51 -8.5t-47.5 -24t-15.5 -42.5q2 -24 13 -38l-11 -8q-1 2 -14 23t-19 33t-6 19q-3 37 17 54q13 11 40.5 16 t50.5 4.5t56 -2t42 -1.5q141 1 230 1l-21 -26q-21 0 -63.5 0.5t-63.5 0.5q-6 -82 28 -231q202 205 293 255q55 29 98 23q19 -3 29 -11t13 -16.5t0 -22.5t-6.5 -23t-11 -23.5t-9.5 -19.5q-3 -5 -11 -4q-4 0 -3 3q20 80 -24 87q-31 4 -67 -15q-78 -38 -294 -248l-3 -6 q11 -42 38 -114.5t50 -104.5q11 -15 24.5 -19.5t29 3.5t28 16.5t30.5 28.5t26.5 30.5t24.5 30.5q9 11 10 2q0 -12 -11 -26q-26 -33 -52.5 -58t-57 -44t-58 -16t-47.5 30q-40 55 -71 200q-13 -14 -48.5 -52.5t-51 -55t-46.5 -47.5t-50.5 -46.5t-45.5 -35t-49.5 -30 t-46.5 -15.5q-33 -6 -52.5 8t-18.5 49z" />
<glyph unicode="Y" horiz-adv-x="452" d="M8 89q0 15 5 14t5 -9q0 -45 23 -70t60 -25q102 0 210 155q-12 -7 -20 -7q-5 0 -8 1.5t-2 6.5q0 1 1 3t2 4.5t1 3.5l11 34q13 49 20 103.5t1 119t-34 96.5h-24q-22 0 -43 -2t-51 -8.5t-47 -24t-15 -42.5q2 -17 12 -38l-10 -8q-39 68 -40 75q-3 36 17 54q13 11 40.5 16 t51 4.5t56.5 -2t41 -1.5q71 1 160 1l-21 -26q-35 0 -109 2q41 -27 54 -90t7 -119t-21 -108q7 10 75.5 113t110.5 151q26 30 42.5 47t49.5 38.5t60 20.5q27 -2 39 -27q4 -8 5 -17t-1.5 -18t-4 -14t-5.5 -14l-4 -8q-2 -5 -6 -4q-3 1 -2 4q6 25 -3.5 45.5t-31.5 21.5 q-48 1 -126 -89q-49 -57 -92.5 -120t-64.5 -98t-74 -127q-38 -67 -83.5 -106.5t-107.5 -39.5q-32 0 -59.5 18t-41.5 53q-8 19 -8 57z" />
<glyph unicode="Z" horiz-adv-x="453" d="M-21 -2q91 146 554 519q-126 2 -189 2q-22 0 -43 -2t-51 -8.5t-47 -24t-15 -42.5q2 -17 12 -38l-10 -8q-1 2 -14 23t-19 33t-6 19q-5 35 17 54q13 11 41 16.5t52.5 5.5t57.5 -1t42 -1h233q1 -1 1 -4.5t-2 -9t-4 -6.5q-258 -186 -483 -429q43 22 81.5 27t67.5 -2t62.5 -33 t58 -52t62.5 -73q66 -79 127 -130t100 -50q50 1 60 39t-18 79q-10 17 -27 34q-1 2 5 6.5t8 3.5q25 -16 39 -34q39 -54 5 -109t-97 -56q-26 0 -54 12t-50 27.5t-51 43.5t-44.5 45.5t-42 49t-34.5 40.5q-6 7 -22 26t-22.5 26t-20.5 22t-21.5 21.5t-21 16t-23.5 13.5t-23.5 7 t-27.5 3q-48 0 -90 -28t-55 -72q-8 -33 -16 -43q-13 -18 -34 -7q-24 13 -12 41q1 4 4 8z" />
<glyph unicode="[" horiz-adv-x="362" d="M9 -104q10 21 127 279t176 378l57 37q26 5 54 5.5t70 -1.5t68 -2l-47 -36q-51 12 -99 8q-13 -1 -27.5 -9.5t-20.5 -20.5q-38 -68 -106.5 -205t-131 -264.5t-66.5 -136.5q180 -3 240 3l-54 -31q-41 -4 -240 -4z" />
<glyph unicode="\" horiz-adv-x="498" d="M1 596q-3 3 30 10q29 7 32 4q31 -37 76.5 -99t106.5 -149.5t96 -139.5t101 -149t66 -98q3 -5 -7 -7q-19 -4 -26 4q-26 33 -213 284.5t-262 339.5z" />
<glyph unicode="]" horiz-adv-x="397" d="M-55 -104l48 36q51 -11 99 -8q12 1 26.5 9.5t21.5 20.5q49 87 303 606q-206 0 -239 -3l53 31q41 4 240 4q-9 -20 -126.5 -279t-176.5 -378l-57 -37q-26 -5 -54 -5.5t-70 1.5t-68 2z" />
<glyph unicode="^" horiz-adv-x="313" d="M85 260q1 7 57 46t67 41l5 -2q28 -31 96 -83l4 -7l-5 -6q-17 1 -59 27t-56 41q-94 -65 -104 -65q-2 0 -4 3t-1 5z" />
<glyph unicode="_" horiz-adv-x="846" />
<glyph unicode="`" horiz-adv-x="223" d="M52 444q9 0 54 -39q41 -36 77 -63l1 -7q-12 2 -69 35.5t-62 42.5q-3 3 -3.5 17t2.5 14z" />
<glyph unicode="a" d="M3 20q0 5 1 7q7 57 46 120t87 100q34 26 75 26h115q5 0 5 -4q0 -8 -9 -8q-14 0 -35 -33q-21 -32 -55.5 -99.5t-34.5 -88.5q0 -14 14 -14q6 0 13.5 3t16.5 9t16 12t17.5 16.5l16.5 16.5t17 19t14.5 17t13.5 17l10 12q7 -7 -12 -33q-89 -118 -165 -118q-24 0 -24 19 q0 35 39 96q-35 -37 -73 -70q-52 -44 -91 -44q-18 0 -18 22zM54 44q0 -12 8 -12q29 0 103.5 88.5t74.5 120.5q0 19 -23 19q-28 0 -64 -34q-26 -24 -62.5 -88.5t-36.5 -93.5z" />
<glyph unicode="b" horiz-adv-x="269" d="M27 18q0 12 9 32q16 44 44 108q-9 -10 -23.5 -26t-17.5 -20q-6 -9 -7 0.5t5 15.5q10 13 33 40t34 40q98 206 211 317q89 87 155 87q16 0 28 -8.5t13 -24.5v-29q0 -4 -6 -4q-3 0 -3 2q0 27 -42 27q-38 0 -72.5 -14.5t-63 -42.5t-51 -58t-44.5 -73.5t-36 -74.5t-32.5 -75.5 t-27.5 -64.5q-1 -4 1 -4l10 10q11 11 28 26.5t36.5 31t41 26t37.5 10.5q17 0 17 -24v-9q-12 -83 -80.5 -165.5t-147.5 -82.5q-49 0 -49 27zM70 28q0 -20 22 -20q28 0 63 35q26 24 63 88t37 94q0 13 -9 13q-15 0 -49 -32t-55 -57q-72 -82 -72 -121z" />
<glyph unicode="c" horiz-adv-x="238" d="M64 166q35 50 85 79q53 33 90 33q20 0 30.5 -8.5t10.5 -22t-3 -27t-10 -26.5q-5 -11 -13 -10q-3 1 -2 5q5 22 -4 47t-28 25q-16 0 -37 -11.5t-31 -22.5q-61 -63 -86 -143q-7 -28 -6.5 -43.5t13.5 -20t27.5 -2.5t35.5 9q40 13 85.5 50.5t68.5 69.5q6 -6 -8 -28 q-34 -47 -92.5 -86.5t-110.5 -40.5q-43 -1 -59.5 17.5t-8.5 48.5t21.5 56t31.5 52z" />
<glyph unicode="d" d="M3 20q0 5 1 7q7 56 46.5 120t86.5 100q10 8 20.5 13t17.5 7.5t21 4t18.5 1.5h23h22.5q13 22 36 65.5t40 76t43.5 72t52 65t59.5 43t71 17.5q14 0 24.5 -8t9.5 -22l-2 -36q0 -4 -5 -4q-1 0 -3 2q-4 24 -30 33.5t-57 -1.5q-48 -17 -107 -121q-57 -102 -119 -239 q-1 -1 -24 -49t-37 -81.5t-14 -45.5q0 -14 12 -14q22 0 68.5 45.5t68.5 76.5q8 -8 -12 -33q-89 -118 -165 -118q-24 0 -24 19q0 35 39 96q-35 -37 -73 -70q-54 -44 -91 -44q-18 0 -18 22zM54 44q0 -12 8 -12q19 0 62.5 43.5t79.5 94.5t36 71q0 19 -23 19q-28 0 -64 -34 q-26 -24 -62.5 -88.5t-36.5 -93.5z" />
<glyph unicode="e" horiz-adv-x="249" d="M63 165q26 41 74 76.5t90 35.5q53 0 45 -55q-5 -35 -36.5 -55.5t-78.5 -35.5q-40 -12 -73 -12q-8 -21 -11.5 -38t-3.5 -33.5t8.5 -24t25.5 -10t46 8.5q39 13 81 50t69 72q7 -7 -4 -23q-37 -51 -92 -90t-112 -39q-133 0 -28 173zM92 139q34 -2 62 7q57 17 74 64 q12 34 -6 47q-5 3 -11 3q-65 -1 -119 -121z" />
<glyph unicode="f" horiz-adv-x="182" d="M-299 -176q-1 4 -1.5 9t0.5 11.5t2 11t4 13.5t4 12.5t5.5 14.5t5.5 14q2 5 5.5 6t5.5 -2t0 -8q-13 -30 -2 -56t35.5 -38.5t56.5 -15t61 13.5q68 35 130 151q21 39 40 87t40.5 107t34.5 92h-23q-1 0 -22 -3l-2 1q2 10 19 19t28 9h12q105 244 192 302q51 36 113 36 q13 0 24 -8t10 -22l-3 -36q0 -2 -3 -3t-4 1q-4 24 -30 33.5t-59 2.5q-52 -11 -106 -110q-14 -25 -88 -196h72q20 0 29 2q0 -7 -15 -13q-31 -17 -97 -15q-59 -148 -84 -201q-17 -38 -36 -72t-47.5 -72t-58 -65t-68.5 -45t-79 -18q-83 0 -101 50z" />
<glyph unicode="g" horiz-adv-x="265" d="M-282 -223v4.5v6v6t1 6t2.5 5t4 3.5t5.5 1q2 0 2 -2q0 -4 -1 -12t-1 -13q0 -45 28.5 -69.5t74.5 -24.5q35 0 72 15q28 12 53 28t48 41t40 43.5t37.5 54.5t31 53t29.5 61t24.5 56.5t24.5 60.5t21 54q-33 -54 -102 -113q-52 -44 -90 -44q-18 0 -18 22v7q7 56 47 120.5 t87 99.5q34 26 75 26h115q5 0 5 -4q0 -8 -9 -8q-22 0 -36 -26q-27 -43 -134 -292q-28 -66 -55 -113.5t-71.5 -94.5t-98.5 -70q-34 -15 -75 -15q-40 0 -74.5 18t-51.5 53q-11 21 -11 56zM55 44q0 -12 9 -12q29 0 103 88.5t74 120.5q0 19 -23 19q-27 0 -63 -34 q-26 -24 -63 -88.5t-37 -93.5z" />
<glyph unicode="h" d="M-5 8q8 19 43.5 106t59.5 138q90 200 192 290q83 73 178 73q55 0 59 -43q2 -18 -3 -37q-1 -4 -8 -4h-2t0 1q4 25 -12.5 36.5t-45.5 11.5q-90 0 -166 -66q-92 -81 -163 -269q-10 -27 -28 -76t-25 -67q95 126 159 164q36 20 55 12.5t-5 -50.5q-22 -35 -55.5 -101t-33.5 -87 q0 -10 6 -13.5t14 -1.5t15.5 5.5t12.5 7.5q42 32 97 100l1 -5q-1 -14 -8 -22q-20 -27 -45 -55q-54 -62 -105 -62q-52 0 -34 48q2 7 81 172q16 32 -10 18q-14 -8 -34 -25q-45 -42 -85.5 -94.5t-57.5 -100.5q-4 -11 -30 -14q-19 -2 -18 7q0 2 1 3z" />
<glyph unicode="i" horiz-adv-x="192" d="M37 128q71 88 109 143q50 7 62 17q8 8 9 0q0 -4 -3 -8q-6 -7 -83 -152q-34 -64 -34 -88q0 -14 14 -14q31 0 112 96l22 25q2 -2 2 -7q-2 -9 -13 -25q-28 -35 -47.5 -56t-53 -41.5t-65.5 -20.5q-23 0 -23 19q0 9 5 24.5t10 26.5t13.5 29.5t10.5 21.5l51 108 q-53 -57 -96 -114q-6 -9 -7 0.5t5 15.5zM222 391q-6 9 -2.5 20.5t13.5 18.5q26 17 41 -3q6 -9 2.5 -20.5t-14.5 -18.5t-22.5 -6t-17.5 9z" />
<glyph unicode="j" horiz-adv-x="135" d="M-419 -223v4.5v6v6t1 6l2 5t3.5 3.5t5.5 1t3 -2q0 -4 -1.5 -12t-1.5 -13q0 -45 28.5 -69.5t74.5 -24.5q35 0 73 15q85 37 144.5 117.5t109.5 196.5q20 48 38.5 102.5t28 85.5t11.5 33q13 14 37 25t39.5 12t18.5 -6q0 -8 -9 -8q-21 0 -34 -19q-24 -34 -135 -299 q-28 -65 -55 -113t-72 -95t-99 -70q-35 -15 -75 -15t-74.5 18t-51.5 53q-10 21 -10 56zM175 391q-6 9 -2.5 20.5t14.5 18.5t22.5 6t17.5 -9q6 -9 2.5 -20.5t-14.5 -18.5t-22.5 -6t-17.5 9z" />
<glyph unicode="k" horiz-adv-x="324" d="M9 8q8 18 25 57t26 58.5t24 53.5t26.5 57t26.5 53.5t30 59.5t32 58q47 85 113 146t130 61q16 0 28.5 -8.5t12.5 -24.5v-29q0 -4 -6 -4q-3 0 -3 2q0 14 -12.5 20.5t-28.5 6.5q-36 0 -65 -10.5t-52 -32t-37.5 -39.5t-33.5 -48q-66 -102 -156 -343q23 31 43 54q-2 17 10 32 q5 7 14 16.5t12 13.5l3 -17q44 45 77 65q35 20 56 12.5t-3 -50.5q-3 -5 -5.5 -9.5t-4.5 -6.5q-1 -2 -4 -0.5t-3 3.5q0 19 -26 19q-36 0 -84 -50q21 -115 41 -146q8 -13 29 -13q38 1 132 122q7 -11 -12 -34q-49 -62 -92 -96q-22 -18 -50 -21.5t-47 16.5q-17 23 -40 128 q-61 -77 -78 -128q-5 -12 -32 -14q-18 -1 -17 7q0 1 1 3z" />
<glyph unicode="l" horiz-adv-x="214" d="M37 128q8 10 19.5 23.5t25 29t22.5 27.5q14 26 57 113t77.5 149.5t58.5 94.5q11 4 43.5 26t52.5 22q19 0 24 -20q12 -50 -86 -183q-37 -51 -87 -105t-66.5 -69.5t-52.5 -47.5q-12 -22 -22 -47.5t-17 -55.5t4.5 -47t42.5 -12q38 7 113 96l21 26q8 -8 -13 -35 q-1 -2 -12 -15t-16 -19t-17.5 -19t-20.5 -20t-21 -17t-23.5 -14.5t-23.5 -8t-25 -2.5q-84 5 -14 160l-42 -46q-6 -9 -7 0.5t5 15.5zM142 228q99 82 172 192q57 93 68 137q7 28 -1 36t-34 -17q-19 -21 -49.5 -69.5t-51 -85.5t-59.5 -109t-45 -84z" />
<glyph unicode="m" horiz-adv-x="470" d="M37 128q71 88 109 143q50 7 62 17q8 8 9 0q0 -4 -3 -8q-10 -11 -82 -145q6 7 53 60q23 24 58.5 50.5t58.5 29.5q29 5 31.5 -9.5t-10.5 -33.5l-45 -84l47 47q23 24 58.5 50.5t58.5 29.5q30 5 34 -9.5t-12 -37.5q-21 -32 -55.5 -99.5t-34.5 -88.5q0 -14 14 -14 q18 0 50.5 29.5t62.5 65.5q18 20 21 26q7 -9 -11 -32q-84 -113 -159 -119q-12 -1 -21 4.5t-9 15.5q0 9 5 24.5t10 26.5t13.5 29.5t10.5 21.5q34 66 54 110q10 21 -14 8q-33 -21 -66 -54q-33 -34 -67.5 -81.5t-44.5 -83.5q-14 -12 -24.5 -8t-10.5 16q0 21 33 93q34 66 54 110 q10 21 -14 8q-33 -21 -66 -54q-58 -59 -79 -107q-9 -21 -32 -77q-6 0 -38 -11q-9 -3 -8 1q0 2 2 6q17 34 54.5 129.5t40.5 102.5q-53 -57 -96 -114q-6 -9 -7 0.5t5 15.5z" />
<glyph unicode="n" horiz-adv-x="330" d="M37 128q71 88 109 143q50 7 62 17q8 8 9 0q0 -4 -3 -8q-10 -11 -82 -145q16 21 53 60q23 24 58.5 50.5t58.5 29.5q30 5 34 -9.5t-12 -37.5q-20 -30 -53 -96.5t-33 -87.5q0 -14 14 -14q15 0 38.5 18.5t42 39.5t49.5 59q7 -9 -11 -32q-51 -69 -91 -100q-30 -23 -58 -23 q-64 0 -1 126q34 66 54 110q10 21 -14 8q-33 -21 -66 -54q-69 -72 -111 -184q-6 0 -38 -11q-9 -3 -8 1q0 2 2 6q17 34 54.5 129.5t40.5 102.5q-53 -57 -96 -114q-6 -9 -7 0.5t5 15.5z" />
<glyph unicode="o" horiz-adv-x="265" d="M9 33q0 57 55 133q35 50 85 79q53 33 90 33q40 0 40 -39q0 -54 -54 -132q-21 -28 -38 -44q66 0 122 74q5 5 5 -4q0 -8 -4 -13q-58 -81 -134 -70q-56 -52 -126 -52q-41 0 -41 35zM58 29q4 -16 19 -14t30 10.5t25 18.5q31 33 57 76q47 78 42 128q-7 20 -32.5 10.5 t-42.5 -27.5q-34 -35 -57 -76q-51 -85 -41 -126z" />
<glyph unicode="p" horiz-adv-x="255" d="M-419 -223v4.5v6v6t1 6l2 5t3.5 3.5t5.5 1t3 -2q0 -4 -1.5 -12t-1.5 -13q0 -45 28.5 -69.5t74.5 -24.5q35 0 73 15q151 65 254 314q12 29 35 88t41.5 104t38.5 85q61 124 136 124q10 0 18 -5.5t7 -15.5l-2 -28q0 -3 -4 -3q-1 0 -1 1q0 21 -25 21q-99 0 -164 -236 q1 1 18 18.5t33 31.5t37.5 32t42.5 28t37 10q21 0 16 -33q-11 -82 -79.5 -165t-147.5 -83q-21 0 -24 3q-89 -263 -244 -329q-35 -15 -75 -15t-74.5 18t-51.5 53q-10 21 -10 56zM54 28q0 -20 21 -20q29 0 64 35q26 24 63 88.5t37 93.5q0 13 -9 13q-15 0 -50.5 -32.5 t-55.5 -56.5q-70 -83 -70 -121z" />
<glyph unicode="q" horiz-adv-x="279" d="M-8 -335q2 18 92.5 223t102.5 224q-30 -31 -74 -70q-50 -44 -90 -44q-18 0 -18 22v7q7 57 47 120t87 100q32 26 75 26h115q5 0 5 -4q0 -8 -9 -8q-15 0 -36 -33q-50 -78 -112 -203.5t-93 -212.5q62 103 247 335q7 -8 -8 -29q-74 -97 -108 -143t-89 -135.5t-74 -150.5 q-4 -11 -34 -25q-27 -14 -26 1zM55 44q0 -12 9 -12q29 0 103 88.5t74 120.5q0 19 -23 19q-27 0 -63 -34q-26 -24 -63 -88.5t-37 -93.5z" />
<glyph unicode="r" horiz-adv-x="272" d="M37 128q71 88 109 143q50 7 62 17q8 8 9 0q0 -4 -3 -8q-9 -10 -70 -122q27 41 68.5 81t73.5 40q27 0 36 -25q6 -7 3 -21.5t-5.5 -20.5t-8.5 -17.5t-7 -12.5q-3 -5 -10 -6l-2 2q4 25 -1.5 45.5t-26.5 20.5q-27 0 -85 -66q-47 -55 -74 -124l-21 -56q-6 0 -38 -11 q-7 -2 -8 0q-1 1 2 7q17 34 54.5 129.5t40.5 102.5q-53 -57 -96 -114q-6 -9 -7 0.5t5 15.5z" />
<glyph unicode="s" horiz-adv-x="232" d="M0 37q-2 9 0.5 22t8.5 24.5t13 17.5q6 3 7 -2v-2q-16 -32 5 -63q10 -14 31 -27q16 -10 47 -7t43 17q35 44 -20 104q-36 38 -36 68q-12 -17 -50 -64q-8 -11 -9 -3q-1 10 8 20q10 11 34 44l44 66q26 29 62 29q56 0 57 -39q0 -20 -14 -48q-5 -10 -12 -10q-4 0 -2 5 q5 24 -4 46q-9 24 -31 26.5t-38.5 -14t-11.5 -40.5q2 -9 12 -22t24 -27.5t19 -21.5q37 -53 3 -102.5t-96 -49.5q-32 0 -60 13t-34 40z" />
<glyph unicode="t" horiz-adv-x="198" d="M37 128q68 85 94 119q-4 0 -11.5 -0.5t-14.5 -1.5t-13 -1.5t-10 -1.5h-5q-10 0 11 19q14 13 21 13h7q8 0 17.5 -0.5t13.5 -0.5q39 53 78 139q9 1 28 11.5t30 21.5q9 9 10 4q1 -3 -2 -7q-13 -14 -44.5 -64.5t-57.5 -104.5h81q10 0 11 -3t-13 -7q-1 -1 -2 -1 q-12 -4 -34 -5.5t-37 -5t-21 -12.5q-14 -19 -42 -87t-31 -104q-1 -10 3.5 -16t11.5 -6q31 0 114 96l19 24q7 -10 -9 -31q-92 -118 -166 -118q-24 0 -24 19q0 24 39 102l54 121q-102 -124 -104 -127q-6 -9 -7 0.5t5 15.5z" />
<glyph unicode="u" horiz-adv-x="393" d="M37 128q39 53 72 90q1 1 10.5 11.5t12 13.5t11 10.5t13.5 10.5t13.5 6.5t16.5 4.5q30 5 34 -9.5t-12 -37.5q-21 -32 -55.5 -99.5t-34.5 -88.5q0 -14 14 -14q19 0 60 39q63 60 130 188q9 16 13 16h13.5t26 2t23.5 7q4 2 5 -3q0 -8 -13 -12q-30 -9 -72 -100t-34 -123 q4 -14 14 -14q18 0 59 32t67 64q5 6 12.5 15.5t8.5 10.5q3 -6 3 -8q-2 -11 -14 -25q-88 -118 -165 -118q-35 0 -35 27q0 18 13 55.5t24 58.5q-98 -141 -181 -141q-24 0 -24 19q0 24 39 102q9 18 24 49t18 36q16 30 -1 22q-9 -5 -24 -18q-41 -38 -83 -95q-6 -9 -7 0.5t5 15.5 z" />
<glyph unicode="v" d="M37 128q56 75 93 133q36 5 49 17q9 8 9 0q0 -4 -3 -8q-18 -27 -40.5 -100.5t-23.5 -115.5q-1 -50 43 -22q14 10 28 25q22 23 49.5 67t38.5 77q9 24 9.5 40.5t-2 21.5t-5.5 7q-8 3 -5 7t11 1q9 -3 13.5 -5t12 -7t10 -11t3 -17.5t-4.5 -25.5q-13 -35 -68 -107.5t-89 -93.5 q-20 -13 -38.5 -16.5t-32 7.5t-12.5 40q0 86 30 166q-14 -20 -43 -57.5t-30 -38.5q-6 -9 -7 0.5t5 15.5z" />
<glyph unicode="w" horiz-adv-x="500" d="M37 128q56 75 93 133q36 5 49 17q9 8 9 0q0 -4 -3 -8q-18 -27 -40.5 -100.5t-23.5 -115.5q-1 -32 18 -32q37 0 106 110q15 24 39 71t31 58q35 5 50 17q8 8 8 0q1 -4 -2 -8q-18 -26 -38.5 -99.5t-21.5 -116.5q-1 -46 45 -26q22 10 41 29q67 68 96 147q9 24 10 42.5 t-3.5 27t-10.5 10.5q-9 3 -2 8q5 4 13 3q57 -14 32 -79q-22 -57 -69.5 -116t-99.5 -89q-22 -13 -42.5 -17t-35.5 7.5t-15 40.5q2 62 20 129q-5 -8 -14 -24.5t-14 -24.5q-62 -90 -97 -111q-20 -13 -38.5 -16.5t-32 7.5t-12.5 40q0 86 30 166q-14 -20 -43 -57.5t-30 -38.5 q-6 -9 -7 0.5t5 15.5z" />
<glyph unicode="x" horiz-adv-x="299" d="M-6 12q76 60 121 97q-3 15 -11 61.5t-7 51.5q2 16 24 29t40 13q13 0 14 -6q-3 -4 -8 -5q-17 0 -20 -29q-5 -32 5 -83q28 24 146 116q6 4 14.5 6t14.5 2t17 -0.5t14 -0.5q2 0 2.5 -4t-0.5 -7.5t-3 -3.5q-21 -1 -51 -16q-50 -22 -150 -107q6 -38 25 -73q28 -56 66 5 q17 27 25 56q3 10 8 4q3 -3 2 -9q-9 -42 -33 -78.5t-55 -36.5q-20 0 -37.5 19.5t-25.5 40t-13 40.5q-22 -19 -53.5 -53t-40.5 -43q-6 -6 -26 -2q-19 4 -4 16z" />
<glyph unicode="y" horiz-adv-x="344" d="M-205 -223v4.5v6v6t1 6l2 5t3.5 3.5t5.5 1q2 0 2 -2q0 -4 -1 -12t-1 -13q0 -45 28.5 -69.5t74.5 -24.5q35 0 73 15q85 37 144.5 117.5t109.5 196.5q24 59 51 139q-47 -64 -86 -102q-59 -57 -112 -57q-24 0 -24 19q0 24 39 102q9 18 24 49t18 36q16 30 -1 22 q-9 -5 -24 -18q-41 -38 -83 -95q-6 -9 -7 0.5t5 15.5q39 53 72 90q1 1 10.5 11.5t12 13.5t11 10.5t13.5 10.5t13.5 6.5t16.5 4.5q30 5 34 -9.5t-12 -37.5q-21 -32 -55.5 -99.5t-34.5 -88.5q0 -14 14 -14q19 0 60 39q51 49 96 127q32 53 40 57q43 22 50 23q32 8 32 -3 q0 -8 -9 -8q-21 0 -34 -19q-24 -34 -135 -299q-28 -66 -55 -113.5t-72 -94.5t-99 -70q-34 -15 -75 -15q-40 0 -74.5 18t-51.5 53q-10 21 -10 56z" />
<glyph unicode="z" horiz-adv-x="234" d="M-12 -2q10 16 48 56.5t58 57.5q21 18 71.5 63t82.5 71q-138 0 -153 -21q-9 -11 -16 -9q-6 2 3 11q5 5 24 38q5 -3 82 -1t83 2q8 0 14 -11.5t7 -20.5q-130 -93 -158 -116q-4 -3 -85 -73q21 11 40.5 12.5t32.5 -0.5t32 -16t27.5 -22t32.5 -31q74 -74 111 -74q18 2 26 9 q11 8 7.5 19.5t-10.5 20.5t-14 14q-4 4 4 7q4 2 7 0q20 -10 26.5 -33.5t-7.5 -45.5q-12 -18 -34 -27t-44 -2q-17 5 -39.5 27t-71.5 78q-3 3 -11 12.5t-10.5 12.5t-9.5 11t-11 10.5t-10.5 7.5t-11.5 7t-11.5 3.5t-13.5 1.5q-23 0 -43.5 -14t-26.5 -35q-4 -14 -8 -21 q-8 -11 -19 -1q-10 8 -1 22z" />
<glyph unicode="{" horiz-adv-x="354" d="M78 228l13 13q61 1 98.5 24.5t63.5 76.5q3 5 24 59q55 138 197 159q50 4 56 -3q7 -9 7 -13q-19 4 -46 2q-40 -3 -65.5 -17t-44.5 -45q-12 -21 -31 -67t-38.5 -80.5t-46.5 -54.5q-44 -36 -103 -50q71 -16 64 -70q-4 -36 -36 -101.5t-36 -101.5q-2 -18 4.5 -27.5t15 -12 t26.5 -4.5q23 -2 43 1q-8 -17 -18 -17q-25 0 -43.5 1.5t-43.5 6.5t-37.5 18.5t-10.5 34.5q4 37 38.5 105t38.5 105q4 29 -19.5 41.5t-69.5 16.5z" />
<glyph unicode="|" horiz-adv-x="364" d="M64 0q14 38 118.5 294t115.5 283h47q-9 -12 -63 -143t-114.5 -280.5t-61.5 -153.5h-42z" />
<glyph unicode="}" horiz-adv-x="411" d="M-35 -86q19 -4 47 -2q77 6 109 62q12 21 31 67t39 80.5t46 55.5q47 35 103 49q-71 16 -64 70q4 36 36 101.5t36 101.5q2 18 -4 27.5t-15 12t-27 4.5q-22 2 -43 -1q10 18 18 18q24 0 43 -1.5t44 -7t37.5 -19t10.5 -34.5q-5 -38 -39 -105.5t-38 -103.5q-3 -30 20.5 -42.5 t69.5 -16.5l-13 -13q-62 -1 -99.5 -24.5t-62.5 -76.5q-9 -19 -25 -59q-55 -139 -197 -158q-48 -7 -56 2q-5 6 -7 13z" />
<glyph unicode="~" horiz-adv-x="277" d="M75 335q37 31 55 31q16 0 53 -14t62 -14q7 0 14 2t10.5 4t10.5 7.5t11 7.5l6 -7q-8 -9 -26 -21t-27 -12q-23 0 -61 13.5t-57 13.5q-18 0 -43 -21z" />
<glyph horiz-adv-x="846" />
<glyph unicode="&#xa1;" horiz-adv-x="245" d="M-38 -100q6 4 21 29.5t19 34.5q64 124 179 354q5 10 21 14q5 -1 5 -3l-138 -360q-4 -9 -11 -29t-9 -24q-52 -12 -79 -34q-2 -1 -4.5 3t-3.5 8.5t0 6.5zM201 439q29 24 38 23q18 0 36 -22q1 -1 -2.5 -4t-9.5 -6.5t-11.5 -7.5t-10 -6t-5.5 -2q-23 14 -33 12q-8 -2 -8 3 q1 4 6 10z" />
<glyph unicode="&#xa2;" horiz-adv-x="375" d="M112 -49q10 31 42 120q-1 0 -16 3q-44 11 -66 47t-18.5 81.5t33 97t80.5 89.5q55 42 131 50l29 72q3 8 19 10q4 -1 4 -3l-30 -78q33 0 61 -13t23 -38q-1 -6 -12 -23t-14 -26q-1 -5 -10 -5q-1 2 -2 2q8 14 9 35.5t-7 35.5q-13 21 -53 19q-77 -208 -120 -332 q50 -2 100.5 29t81.5 77q5 7 8 -3q2 -6 0 -9q-34 -54 -87 -87t-113 -34q-25 -72 -33 -102l-34 -15q-6 -1 -6 0zM162 101l3 -1q58 156 127 324l-21 -6q-36 -14 -67 -40q-76 -67 -93 -160.5t51 -116.5z" />
<glyph unicode="&#xa3;" horiz-adv-x="621" d="M5 -22q-3 -3 -5 4q-3 16 11 23q4 2 9 2q41 1 81.5 34.5t59.5 71.5l63 127q-55 0 -94 -3q-6 -1 12 18q13 13 19 13q20 -3 75 -3l44 86q22 45 40.5 74t46.5 61t64.5 47t81.5 14q47 -2 80 -21t21 -56q-3 -10 -22.5 -33.5t-26.5 -40.5q-5 -11 -12 -7q-5 2 0 9q16 22 22 53 t-6 57t-43 27q-67 2 -112 -67l-131 -204q72 0 147 3q2 0 -3.5 -8t-14 -16t-13.5 -8q-55 5 -123 5h-8l-82 -126q-53 -83 -97 -96q134 -4 199 -6q60 -4 126.5 -3t78.5 15q17 22 13.5 40.5t-24.5 30.5q-7 3 0 8q3 2 6 0q13 -6 32.5 -33.5t23.5 -42.5q8 -30 -12.5 -46t-64.5 -15 q-70 2 -211.5 17t-171.5 17q-48 3 -79 -22z" />
<glyph unicode="&#xa4;" horiz-adv-x="426" d="M91 97q-1 -2 -2 2q-6 25 2 62q2 13 6 16q13 8 84 66q-28 44 -28 96q0 53 27 94q-49 39 -83 67q-12 6 -8 66q1 16 3 15q12 -12 122 -108q51 44 117 44q67 0 118 -46q71 63 121 110q2 1 3 -6q6 -34 -2 -64q-2 -9 -6 -11q-2 -2 -32 -25.5t-52 -40.5q28 -44 28 -95 q0 -54 -28 -96q73 -60 84 -66q12 -9 11 -64q-1 -17 -4 -16l-123 109q-50 -45 -118 -45t-119 45zM204 337q0 -53 38 -91t91 -38t91 38t38 91t-38 91t-91 38t-91 -38t-38 -91z" />
<glyph unicode="&#xa5;" horiz-adv-x="452" d="M8 89q0 15 5 14t5 -9q0 -45 23 -70t60 -25q98 0 202 143q-84 0 -117 -3q-6 -1 10 16q11 12 16 11q18 -3 72 -3q0 2 1 3l11 34q13 49 20 103.5t1 119t-34 96.5h-24q-22 0 -43 -2t-51 -8.5t-47 -24t-15 -42.5q2 -17 12 -38l-10 -8q-39 68 -40 75q-3 36 17 54q13 11 40.5 16 t51 4.5t56.5 -2t41 -1.5q71 1 160 1l-21 -26q-35 0 -109 2q41 -27 54 -90t7 -119t-21 -108q7 10 75.5 113t110.5 151q26 30 42.5 47t49.5 38.5t60 20.5q27 -2 39 -27q4 -8 5 -17t-1.5 -18t-4 -14t-5.5 -14l-4 -8q-2 -5 -6 -4q-3 1 -2 4q6 25 -3.5 45.5t-31.5 21.5 q-48 1 -126 -89q-100 -117 -200 -290q49 0 103 3q2 0 -3 -7t-12 -13.5t-11 -6.5l-88 4l-20 -35q-38 -67 -83.5 -106.5t-107.5 -39.5q-32 0 -59.5 18t-41.5 53q-8 19 -8 57z" />
<glyph unicode="&#xa6;" horiz-adv-x="373" d="M64 0q10 29 97 242l43 2l-98 -244h-42zM205 349q82 198 93 228h47q-12 -19 -98 -228h-42z" />
<glyph unicode="&#xa7;" horiz-adv-x="542" d="M10 -55q-7 33 7 70.5t39 56.5q1 1 4 -1.5t3.5 -5.5t-1.5 -5q-15 -14 -18 -37.5t3.5 -45t18.5 -38.5q23 -32 64 -53t83 -23q79 -4 114.5 52.5t7.5 131.5q-12 33 -49 94.5t-42 70.5q-19 35 -18.5 75t23.5 73q26 35 68 54q0 42 24 76t60 52t76 20q67 3 108 -43q7 -10 6 -27 t-8 -27q-26 -42 -32 -63q-3 -2 -10 -3.5t-9 0.5q17 34 17 67q0 37 -13 48q-29 27 -77 27q-66 0 -96 -46t-9 -94q15 -37 75 -92.5t78 -91.5q24 -45 15.5 -87.5t-36 -76t-68.5 -56.5q-2 -1 -10 -4q-9 -67 -76 -112t-141 -45q-62 0 -115 26.5t-66 82.5zM262 270 q14 -34 67.5 -99.5t69.5 -105.5q9 -24 11 -51q1 2 6 5q38 26 46.5 74t-17.5 99q-14 28 -54.5 76.5t-54.5 74.5q-15 29 -18 58q-41 -17 -57 -56t1 -75z" />
<glyph unicode="&#xa8;" horiz-adv-x="249" d="M76 391q-2 3 26 20q11 7 13 6q23 -14 33 -12q8 2 8 -3q-1 -4 -6 -10q-29 -24 -38 -23q-20 1 -36 22zM192 391q-2 3 26 20l13 6q23 -14 33 -12q8 2 8 -3q-1 -4 -6 -10q-29 -24 -38 -23q-20 1 -36 22z" />
<glyph unicode="&#xa9;" horiz-adv-x="715" d="M40 172q-2 42 11 93t45 103t77.5 93.5t114 65t148.5 17.5q122 -9 180.5 -51t63.5 -123q5 -77 -24.5 -148.5t-83 -123t-130.5 -80t-162 -21.5q-230 17 -240 175zM95 158q8 -133 176 -145q76 -6 144 25t114 84.5t71 122.5t21 138q-8 132 -183 146q-65 5 -131 -30.5 t-113 -92t-75 -124t-24 -124.5zM255 84q-35 8 -57 33t-25.5 60t6 73.5t37.5 78t69 70.5q29 22 71.5 36.5t79.5 14.5q34 0 62.5 -13t22.5 -38q-1 -6 -11.5 -23t-13.5 -26q-4 -3 -12 -3q8 14 9 35.5t-7 35.5q-11 19 -45 19.5t-53 -9.5q-38 -15 -66 -40q-77 -67 -93.5 -160.5 t51.5 -116.5q56 -18 116.5 13.5t98.5 86.5q4 7 8 -3q2 -6 0 -9q-41 -66 -108.5 -99t-139.5 -16z" />
<glyph unicode="&#xaa;" d="M3 323q0 5 1 7q7 57 46 120t87 100q34 26 75 26h115q5 0 5 -4q0 -8 -9 -8q-14 0 -35 -33q-21 -32 -55.5 -99.5t-34.5 -88.5q0 -14 14 -14q6 0 13.5 3t16.5 9t16 12t17.5 16.5l16.5 16.5t17 19t14.5 17t13.5 16l10 13q7 -7 -12 -33q-89 -118 -165 -118q-24 0 -24 19 q0 35 39 96q-35 -37 -73 -70q-52 -44 -91 -44q-18 0 -18 22zM54 347q0 -12 8 -12q29 0 103.5 88.5t74.5 120.5q0 19 -23 19q-28 0 -64 -34q-26 -24 -62.5 -88.5t-36.5 -93.5z" />
<glyph unicode="&#xab;" horiz-adv-x="355" d="M106 197q1 8 51 61t72 74q10 8 18 8q5 0 5 -4q-1 -6 -44.5 -54t-59.5 -64q2 -3 11 -15.5t17.5 -24.5t17.5 -25.5t14 -23.5t4 -14q-2 -11 -11 -11l-6 3q-6 11 -13.5 20t-18 19t-16.5 14.5t-21 16.5t-19 15q-1 2 -1 5zM225 197q1 8 51 61t72 74q8 8 18 8q5 0 5 -4 q-2 -8 -104 -118q2 -2 11 -15t17 -25l17 -25.5t14.5 -23.5t4.5 -14q-2 -11 -11 -11l-6 3q-7 11 -14 20t-18.5 19t-15.5 14t-21 17t-19 15q-2 4 -1 5z" />
<glyph unicode="&#xac;" horiz-adv-x="414" d="M61 223l12 23h140t155 2l7 -3q-28 -45 -43 -95l-42 1q2 5 41 75q-22 1 -125 0.5t-145 -3.5z" />
<glyph unicode="&#xad;" horiz-adv-x="249" d="M76 145q-5 -1 10 17q8 11 12 10q9 -2 65 -4q25 0 79 3q2 0 -2 -7t-10.5 -13.5t-9.5 -6.5q-5 0 -15.5 1.5t-21 2t-22.5 0.5q-55 0 -85 -3z" />
<glyph unicode="&#xae;" horiz-adv-x="707" d="M40 172q-2 42 11 93t45 103t77.5 93.5t114 65t148.5 17.5q122 -9 180.5 -51t63.5 -123q10 -159 -109 -272.5t-291 -100.5q-230 17 -240 175zM95 158q3 -44 22 -75h1q29 6 44 34q30 48 57 99l66 123q34 60 45 88q9 20 0 28q-16 0 -23 8q-4 5 15 7h10q20 1 62 1 q21 0 45.5 0.5t50 -8t36.5 -25.5q14 -23 10.5 -55t-19.5 -53q-25 -33 -70.5 -51.5t-91.5 -20.5q28 -63 73 -118q18 -22 39 -26.5t40 5.5t34 24.5t26 32.5q61 90 54 207q-8 132 -183 146q-65 5 -131 -30.5t-113 -92t-75 -124t-24 -124.5zM121 78q40 -56 150 -65 q143 -11 250 101q-85 -65 -138 6q-16 21 -30.5 45t-22 39t-15.5 33t-9 20q13 18 20 18q42 -1 88.5 24t64.5 76q10 28 0.5 53t-34.5 28q-41 6 -55 -13q-12 -16 -26 -39.5t-22.5 -40t-23.5 -47t-20 -39.5q-84 -156 -77 -174q1 -5 -9 -3q-18 7 -31 1q-36 -18 -52 -23 q-5 -2 -8 0z" />
<glyph unicode="&#xaf;" horiz-adv-x="250" d="M112 399q19 5 83 5q91 0 91 -11q-2 -5 -7 -5q-25 0 -76.5 -4.5t-77.5 -4.5q-5 0 -10 8t-3 12z" />
<glyph unicode="&#xb0;" horiz-adv-x="212" d="M92 345q4 28 30 48.5t58 20.5q31 0 50.5 -20t14.5 -49t-31.5 -49.5t-57.5 -20.5t-50 20.5t-14 49.5zM123 345q-3 -16 8.5 -28.5t29.5 -12.5t33.5 12t18.5 29q3 16 -8.5 28.5t-29.5 12.5t-33.5 -12t-18.5 -29z" />
<glyph unicode="&#xb1;" horiz-adv-x="371" d="M27 9q-7 -1 14 19q14 15 20 14q10 -2 132 -5q56 0 172 4q3 0 -4 -8.5t-16 -16.5t-14 -8q-125 5 -140 5q-118 0 -164 -4zM92 264q-7 0 14 22q14 15 21 14q23 -4 131 -4q33 82 42 114q2 5 16.5 11t27.5 9t12 0q-38 -79 -62 -134q88 0 160 3q6 0 -14 -21q-14 -16 -21 -15 q-78 4 -137 5l-1 -4q-45 -107 -50 -131q-3 -11 -44 -21q-11 -2 -11 0q17 32 71 156q-111 0 -155 -4z" />
<glyph unicode="&#xb2;" horiz-adv-x="220" d="M-6 286q104 94 118 107l8 8q96 90 107 129q8 21 -4 35t-38 13q-50 0 -65 -44l-4 -28l-24 -12q16 56 18 78q0 11 14 17q24 8 54 8l14 1q35 2 52 -7q28 -11 28 -44q0 -38 -37 -78q-31 -34 -139 -116q-17 -12 -28 -22q-14 -10 -7 -10t23 -1t25 -1q49 0 68 10q9 5 23 21 t18 25l14 -5q-11 -11 -30 -49q-15 -32 -45 -31q-30 2 -59 2q-6 0 -104 -6z" />
<glyph unicode="&#xb3;" horiz-adv-x="220" d="M22 312q5 9 19 58l17 7q0 -3 -2.5 -14t-3.5 -18.5t0.5 -16.5t6.5 -14q13 -12 40 -10q38 1 62.5 24.5t34.5 56.5q3 14 3 23q0 13 -8 21.5t-23 12.5t-29 5t-34 1l15 18l13 2q82 20 95 61q7 22 -4.5 36t-38.5 13q-49 0 -64 -44q-6 -22 -5 -28l-24 -12q16 56 18 78 q0 12 15 17q21 8 53 8l15 1q34 2 51 -7q24 -10 25 -39t-17 -48q-22 -27 -66 -42l2 -1q30 -3 43 -24t8.5 -48t-21.5 -52q-7 -10 -18.5 -19.5t-25.5 -16t-31 -11.5t-35 -6q-9 0 -23 0.5t-31.5 2.5t-27 8.5t-4.5 16.5z" />
<glyph unicode="&#xb4;" horiz-adv-x="129" d="M27 335q-1 0 1 7q36 27 77 63q45 39 54 39q3 0 2.5 -14t-3.5 -17q-5 -9 -62 -42.5t-69 -35.5z" />
<glyph unicode="&#xb5;" horiz-adv-x="251" d="M-163 -291l1 2q5 28 28.5 71t45 75t57.5 82t45 63q31 46 45.5 69t33.5 63t25 74q-7 -15 -42 -58t-53 -61q-1 0 -3 -1q-3 0 -3 4q0 1 1 1q2 4 9 12.5t15.5 18t10.5 12.5q47 60 67 103q9 21 24 21q16 0 9 -37q-5 -28 -20 -61.5t-39.5 -76.5t-32.5 -60q68 43 133 114l7 7 q17 56 34 71q6 5 17 5q17 0 16 -8q-4 -22 -24 -42q-29 -64 -37 -113q-7 -37 19 -37q10 0 21.5 6.5t19.5 13t9 6.5q2 0 2 -4v-1l-1 -1q-35 -37 -70 -37q-37 0 -27 57q4 22 16 66q-45 -60 -151 -125q-98 -149 -128 -215q-26 -55 -33 -97q-12 -69 37 -69q34 0 82 26 q-9 -14 -34.5 -24.5t-43.5 -10.5q-42 0 -69 29t-19 67z" />
<glyph unicode="&#xb6;" horiz-adv-x="494" d="M-192 -261q-1 8 22 8q48 0 99.5 32t92 77t81 105.5t65.5 106t46 90.5q-63 5 -108.5 36t-48.5 87q-3 49 30 97q51 76 151.5 111t212.5 35q50 0 73 6q60 70 124 70q27 0 27 -13q1 -9 -4 -12.5t-14 -3.5q-60 0 -122 -95q-17 -26 -36 -65.5t-46 -102t-30 -68.5 q-19 -42 -34 -74t-43 -84t-53.5 -90.5t-61.5 -82.5t-70.5 -71.5t-77.5 -45.5t-86 -17h-8q-68 -49 -147 -49q-34 0 -34 13zM8 -211q46 4 93.5 39t86.5 88t66.5 98.5t48.5 91.5q146 298 192 386l-28 -1q-40 -28 -81 -93t-79.5 -145.5t-80.5 -164t-99 -166t-119 -133.5z" />
<glyph unicode="&#xb7;" horiz-adv-x="590" d="M182 307q10 55 59 93.5t109 38.5t96 -38.5t27 -93.5q-10 -55 -59 -93.5t-110 -38.5q-60 0 -96 38.5t-26 93.5z" />
<glyph unicode="&#xb8;" horiz-adv-x="190" d="M-23 -207q0 6 9 6q1 0 14 0.5t24.5 2.5t25 6.5t23.5 15.5t13 28q2 12 -15.5 40t-17.5 43q0 26 19.5 46t47.5 20h20q-22 -5 -37 -20t-15 -33q0 -14 19 -40t16 -47q-7 -37 -51 -56.5t-89 -19.5q-8 0 -6 8z" />
<glyph unicode="&#xb9;" horiz-adv-x="170" d="M-1 288l12 17q12 -2 32.5 2.5t27.5 17.5q15 29 37 105l24 72q14 44 6 48q-4 2 -28 -16l-12 -10l-16 -11l1 12q1 2 2 5t2 5.5t1 4.5q21 12 105 64q11 7 14 3t-3 -15q-20 -42 -48 -131l-10 -34q-25 -72 -30 -104q-1 -8 10 -12.5t22.5 -5.5t18.5 0l-14 -17q-10 3 -66 6 q-25 -1 -88 -6z" />
<glyph unicode="&#xba;" horiz-adv-x="265" d="M9 340q0 57 55 133q35 50 85 79q53 33 90 33q40 0 40 -39q0 -54 -54 -132q-21 -28 -38 -44q66 0 122 74q5 5 5 -4q0 -8 -4 -13q-58 -81 -134 -70q-56 -52 -126 -52q-41 0 -41 35zM58 336q4 -16 19 -14t30 10.5t25 18.5q31 33 57 76q47 78 42 128q-7 20 -32.5 10.5 t-42.5 -27.5q-34 -35 -57 -76q-51 -85 -41 -126z" />
<glyph unicode="&#xbb;" horiz-adv-x="355" d="M90 104q1 8 104 118q-67 91 -65 103q2 10 11 10l6 -3q7 -11 14.5 -20t17.5 -18.5t17 -15t20 -16t19 -15.5q2 -2 2 -5q-2 -8 -52 -61t-72 -74q-10 -8 -17 -8t-5 5zM222 104q1 8 104 118q-67 91 -65 103q2 10 11 10l6 -3q7 -11 14.5 -20t17.5 -18.5t17 -15t20 -16t19 -15.5 q2 -2 2 -5q-2 -8 -52 -61t-72 -74q-10 -8 -17 -8t-5 5z" />
<glyph unicode="&#xbc;" horiz-adv-x="985" d="M243 -25q111 155 270 355.5t232 279.5q5 6 58 2l11 -2q-68 -72 -266 -310t-262 -326q-6 -9 -32 -6q-11 3 -11 7z" />
<glyph unicode="&#xbd;" horiz-adv-x="657" d="M-31 -25q142 154 342 355t289 280q6 6 40 2l7 -2q-76 -66 -313.5 -302.5t-328.5 -333.5q-8 -9 -30 -6q-7 1 -7 4zM38 288l12 17q12 -2 32.5 2.5t27.5 17.5q15 29 37 105l24 72q14 44 6 48q-4 2 -28 -16l-12 -10l-16 -11l1 12q1 2 2 5t2 5.5t1 4.5q21 12 105 64q11 7 14 3 t-3 -15q-20 -42 -48 -131l-10 -34q-25 -72 -30 -104q-1 -8 10 -12.5t22.5 -5.5t18.5 0l-14 -17q-10 3 -66 6q-25 -1 -88 -6zM327 -4q104 94 118 107l8 8q96 90 107 129q8 21 -4 35t-38 13q-50 0 -65 -44q0 -2 -1.5 -9t-2 -12t-0.5 -7l-24 -12q16 56 18 78q0 11 14 17 q24 8 54 8l14 1q35 2 52 -7q28 -11 28 -44q0 -38 -37 -78q-31 -34 -139 -116q-17 -12 -28 -22q-14 -10 -7 -10t23 -1t25 -1q49 0 68 10q9 5 23 21t18 25l14 -5q-2 -2 -13 -19.5t-17 -29.5q-8 -17 -17.5 -24.5t-27.5 -6.5q-30 2 -59 2q-6 0 -104 -6z" />
<glyph unicode="&#xbe;" horiz-adv-x="698" d="M17 -25q142 154 342 355t289 280q6 6 40 2l7 -2q-76 -66 -313.5 -302.5t-328.5 -333.5q-8 -9 -30 -6q-7 1 -7 4zM22 312q5 9 19 58l17 7q0 -3 -2.5 -14t-3.5 -18.5t0.5 -16.5t6.5 -14q13 -12 40 -10q38 1 62.5 24.5t34.5 56.5q3 14 3 23q0 13 -8 21.5t-23 12.5t-29 5 t-34 1l15 18l13 2q82 20 95 61q7 22 -4.5 36t-38.5 13q-49 0 -64 -44q-6 -22 -5 -28l-24 -12q16 56 18 78q0 12 15 17q21 8 53 8l15 1q34 2 51 -7q24 -10 25 -39t-17 -48q-22 -27 -66 -42l2 -1q30 -3 43 -24t8.5 -48t-21.5 -52q-7 -10 -18.5 -19.5t-25.5 -16t-31 -11.5 t-35 -6q-9 0 -23 0.5t-31.5 2.5t-27 8.5t-4.5 16.5zM367 99q12 7 44 41q19 22 60.5 65t61.5 65q18 23 25 25q13 4 22 9q32 14 34 9q1 -3 -3 -11q-20 -41 -48 -131l-17 -51q23 2 26 5q6 3 13.5 9t14 13t12 13.5t7.5 10.5l10 -3l2 -6q-3 -3 -14 -19t-15 -25 q-6 -12 -11.5 -18.5t-14.5 -10t-22 -2.5h-18q-10 -40 -13 -54q-1 -12 18.5 -15.5t33.5 -2.5l-16 -17q-8 3 -66 6q-25 -1 -87 -6l13 17q11 -2 31 2.5t28 17.5q7 10 21 53h-34q-43 -1 -93 -3q-22 0 -5 14zM421 125q-5 -5 1 -6q30 -2 60 -2q18 0 25 1q2 1 3.5 6.5t3 10.5l1.5 5 l23 72q14 40 13 50q-18 -15 -114 -119z" />
<glyph unicode="&#xbf;" horiz-adv-x="446" d="M11 -8q7 37 30.5 64.5t56 45t65.5 32.5t65.5 37t50.5 49q47 74 19 106l11 16q22 -25 25 -62q3 -49 -55 -96l-166 -132q-40 -32 -40 -75.5t38 -59.5q23 -10 59 -5.5t60 21.5q14 10 31.5 39.5t23.5 54.5q0 11 12 15q8 3 8 -4v-2q-19 -83 -18 -104q0 -15 -22 -26 q-32 -14 -93 -18l-28 -2q-154 -11 -133 106zM315 439q29 24 37 23q18 0 36 -22q1 -1 -7.5 -7.5t-19 -12.5t-11.5 -6q-23 14 -33 12q-9 -2 -9 3q1 4 7 10z" />
<glyph unicode="&#xc0;" horiz-adv-x="768" d="M21 47q1 18 19 56q7 14 12 14q2 1 2.5 -2t-1.5 -6q-21 -47 -8 -69.5t51 -22.5q119 0 351 216l-66.5 3.5t-66.5 2.5q-76 0 -101 -25q-10 -10 -15.5 -29t-0.5 -34l-7 1q-8 2 -13.5 5t-7.5 10q1 8 -1 12.5t2.5 10.5t6 9.5t8 8t10 7t11 6.5t11.5 5.5t12 5t11 4.5 q74 32 139 32q41 0 102 -3q66 64 152 155q76 80 155 101h-55q-159 0 -213 -46q-24 -21 -29.5 -49t10.5 -37q5 -3 -7 -8q-6 -3 -9 -1q-10 7 -17.5 28t-5.5 35q4 25 19.5 43.5t44.5 29t53 17t63 9t56 3t49 0.5h109q2 0 1 -1q73 33 100 33q12 0 16 -7q2 -4 -5 -6q-5 -1 -14 -1 t-14 -1t-14.5 -6.5t-20.5 -17.5q-33 -33 -104 -157.5t-115 -222.5q0 -1 -1 -3q-64 -148 -13 -144q6 1 15 4q24 10 54 38q34 32 66 77q5 8 9.5 4t-1.5 -12l-7 -10q-7 -9 -11 -14t-13 -16.5t-16 -19t-17.5 -18t-19.5 -18t-20 -14.5t-21 -12q-25 -14 -54.5 -6.5t-35.5 39.5 q-9 49 31 135q42 89 105.5 205t94.5 157q-25 -1 -72.5 -28t-84.5 -65q-23 -24 -79 -86t-80 -88q60 -2 92 -2q41 0 72 15q-2 -5 -5.5 -11.5t-18.5 -19t-33 -13.5q-65 -4 -138 -1q-248 -256 -397 -256q-32 0 -51 18.5t-15 53.5zM758 725q9 0 54 -39q41 -36 77 -63l1 -7 q-12 2 -69 35.5t-62 42.5q-3 3 -3.5 17t2.5 14z" />
<glyph unicode="&#xc1;" horiz-adv-x="768" d="M21 47q1 18 19 56q7 14 12 14q2 1 2.5 -2t-1.5 -6q-21 -47 -8 -69.5t51 -22.5q119 0 351 216l-66.5 3.5t-66.5 2.5q-76 0 -101 -25q-10 -10 -15.5 -29t-0.5 -34l-7 1q-8 2 -13.5 5t-7.5 10q1 8 -1 12.5t2.5 10.5t6 9.5t8 8t10 7t11 6.5t11.5 5.5t12 5t11 4.5 q74 32 139 32q41 0 102 -3q66 64 152 155q76 80 155 101h-55q-159 0 -213 -46q-24 -21 -29.5 -49t10.5 -37q5 -3 -7 -8q-6 -3 -9 -1q-10 7 -17.5 28t-5.5 35q4 25 19.5 43.5t44.5 29t53 17t63 9t56 3t49 0.5h109q2 0 1 -1q73 33 100 33q12 0 16 -7q2 -4 -5 -6q-5 -1 -14 -1 t-14 -1t-14.5 -6.5t-20.5 -17.5q-33 -33 -104 -157.5t-115 -222.5q0 -1 -1 -3q-64 -148 -13 -144q6 1 15 4q24 10 54 38q34 32 66 77q5 8 9.5 4t-1.5 -12l-7 -10q-7 -9 -11 -14t-13 -16.5t-16 -19t-17.5 -18t-19.5 -18t-20 -14.5t-21 -12q-25 -14 -54.5 -6.5t-35.5 39.5 q-9 49 31 135q42 89 105.5 205t94.5 157q-25 -1 -72.5 -28t-84.5 -65q-23 -24 -79 -86t-80 -88q60 -2 92 -2q41 0 72 15q-2 -5 -5.5 -11.5t-18.5 -19t-33 -13.5q-65 -4 -138 -1q-248 -256 -397 -256q-32 0 -51 18.5t-15 53.5zM834 616q-1 0 1 7q36 27 77 63q45 39 54 39 q3 0 2.5 -14t-3.5 -17q-5 -9 -62 -42.5t-69 -35.5z" />
<glyph unicode="&#xc2;" horiz-adv-x="768" d="M21 47q1 18 19 56q7 14 12 14q2 1 2.5 -2t-1.5 -6q-21 -47 -8 -69.5t51 -22.5q119 0 351 216l-66.5 3.5t-66.5 2.5q-76 0 -101 -25q-10 -10 -15.5 -29t-0.5 -34l-7 1q-8 2 -13.5 5t-7.5 10q1 8 -1 12.5t2.5 10.5t6 9.5t8 8t10 7t11 6.5t11.5 5.5t12 5t11 4.5 q74 32 139 32q41 0 102 -3q66 64 152 155q76 80 155 101h-55q-159 0 -213 -46q-24 -21 -29.5 -49t10.5 -37q5 -3 -7 -8q-6 -3 -9 -1q-10 7 -17.5 28t-5.5 35q4 25 19.5 43.5t44.5 29t53 17t63 9t56 3t49 0.5h109q2 0 1 -1q73 33 100 33q12 0 16 -7q2 -4 -5 -6q-5 -1 -14 -1 t-14 -1t-14.5 -6.5t-20.5 -17.5q-33 -33 -104 -157.5t-115 -222.5q0 -1 -1 -3q-64 -148 -13 -144q6 1 15 4q24 10 54 38q34 32 66 77q5 8 9.5 4t-1.5 -12l-7 -10q-7 -9 -11 -14t-13 -16.5t-16 -19t-17.5 -18t-19.5 -18t-20 -14.5t-21 -12q-25 -14 -54.5 -6.5t-35.5 39.5 q-9 49 31 135q42 89 105.5 205t94.5 157q-25 -1 -72.5 -28t-84.5 -65q-23 -24 -79 -86t-80 -88q60 -2 92 -2q41 0 72 15q-2 -5 -5.5 -11.5t-18.5 -19t-33 -13.5q-65 -4 -138 -1q-248 -256 -397 -256q-32 0 -51 18.5t-15 53.5zM775 623q73 49 113 84h12q24 -40 68 -70 q13 -8 18 -8v-3q-6 -2 -21 -9q-10 -5 -42 22q-14 12 -39 42q0 3 -6 0q-11 -10 -43 -31.5t-46 -26.5q-5 -2 -14 0z" />
<glyph unicode="&#xc3;" horiz-adv-x="768" d="M21 47q1 18 19 56q7 14 12 14q2 1 2.5 -2t-1.5 -6q-21 -47 -8 -69.5t51 -22.5q119 0 351 216l-66.5 3.5t-66.5 2.5q-76 0 -101 -25q-10 -10 -15.5 -29t-0.5 -34l-7 1q-8 2 -13.5 5t-7.5 10q1 8 -1 12.5t2.5 10.5t6 9.5t8 8t10 7t11 6.5t11.5 5.5t12 5t11 4.5 q74 32 139 32q41 0 102 -3q66 64 152 155q76 80 155 101h-55q-159 0 -213 -46q-24 -21 -29.5 -49t10.5 -37q5 -3 -7 -8q-6 -3 -9 -1q-10 7 -17.5 28t-5.5 35q4 25 19.5 43.5t44.5 29t53 17t63 9t56 3t49 0.5h109q2 0 1 -1q73 33 100 33q12 0 16 -7q2 -4 -5 -6q-5 -1 -14 -1 t-14 -1t-14.5 -6.5t-20.5 -17.5q-33 -33 -104 -157.5t-115 -222.5q0 -1 -1 -3q-64 -148 -13 -144q6 1 15 4q24 10 54 38q34 32 66 77q5 8 9.5 4t-1.5 -12l-7 -10q-7 -9 -11 -14t-13 -16.5t-16 -19t-17.5 -18t-19.5 -18t-20 -14.5t-21 -12q-25 -14 -54.5 -6.5t-35.5 39.5 q-9 49 31 135q42 89 105.5 205t94.5 157q-25 -1 -72.5 -28t-84.5 -65q-23 -24 -79 -86t-80 -88q60 -2 92 -2q41 0 72 15q-2 -5 -5.5 -11.5t-18.5 -19t-33 -13.5q-65 -4 -138 -1q-248 -256 -397 -256q-32 0 -51 18.5t-15 53.5zM789 639q5 16 20 29.5t31 13.5t41 -10t46 -12 q23 -3 41 22h10q-6 -21 -19.5 -35.5t-26.5 -14.5q-21 0 -52.5 12.5t-48.5 12.5q-22 0 -30 -18h-12z" />
<glyph unicode="&#xc4;" horiz-adv-x="768" d="M21 47q1 18 19 56q7 14 12 14q2 1 2.5 -2t-1.5 -6q-21 -47 -8 -69.5t51 -22.5q119 0 351 216l-66.5 3.5t-66.5 2.5q-76 0 -101 -25q-10 -10 -15.5 -29t-0.5 -34l-7 1q-8 2 -13.5 5t-7.5 10q1 8 -1 12.5t2.5 10.5t6 9.5t8 8t10 7t11 6.5t11.5 5.5t12 5t11 4.5 q74 32 139 32q41 0 102 -3q66 64 152 155q76 80 155 101h-55q-159 0 -213 -46q-24 -21 -29.5 -49t10.5 -37q5 -3 -7 -8q-6 -3 -9 -1q-10 7 -17.5 28t-5.5 35q4 25 19.5 43.5t44.5 29t53 17t63 9t56 3t49 0.5h109q2 0 1 -1q73 33 100 33q12 0 16 -7q2 -4 -5 -6q-5 -1 -14 -1 t-14 -1t-14.5 -6.5t-20.5 -17.5q-33 -33 -104 -157.5t-115 -222.5q0 -1 -1 -3q-64 -148 -13 -144q6 1 15 4q24 10 54 38q34 32 66 77q5 8 9.5 4t-1.5 -12l-7 -10q-7 -9 -11 -14t-13 -16.5t-16 -19t-17.5 -18t-19.5 -18t-20 -14.5t-21 -12q-25 -14 -54.5 -6.5t-35.5 39.5 q-9 49 31 135q42 89 105.5 205t94.5 157q-25 -1 -72.5 -28t-84.5 -65q-23 -24 -79 -86t-80 -88q60 -2 92 -2q41 0 72 15q-2 -5 -5.5 -11.5t-18.5 -19t-33 -13.5q-65 -4 -138 -1q-248 -256 -397 -256q-32 0 -51 18.5t-15 53.5zM767 672q-1 1 2.5 4t9.5 7t11.5 7.5t10 6 t5.5 1.5q23 -14 33 -12q8 2 8 -3q-1 -4 -6 -10q-29 -24 -38 -23q-20 1 -36 22zM883 672q0 1 1.5 2.5t5 4t7.5 5.5t8 5.5t7.5 4.5t6 3t3.5 1q23 -14 33 -12q8 2 8 -3q-1 -4 -6 -10q-29 -24 -38 -23q-20 1 -36 22z" />
<glyph unicode="&#xc5;" horiz-adv-x="768" d="M21 47q1 18 19 56q7 14 12 14q2 1 2.5 -2t-1.5 -6q-21 -47 -8 -69.5t51 -22.5q119 0 351 216l-66.5 3.5t-66.5 2.5q-76 0 -101 -25q-10 -10 -15.5 -29t-0.5 -34l-7 1q-8 2 -13.5 5t-7.5 10q1 8 -1 12.5t2.5 10.5t6 9.5t8 8t10 7t11 6.5t11.5 5.5t12 5t11 4.5 q74 32 139 32q41 0 102 -3q66 64 152 155q76 80 155 101h-55q-159 0 -213 -46q-24 -21 -29.5 -49t10.5 -37q5 -3 -7 -8q-6 -3 -9 -1q-10 7 -17.5 28t-5.5 35q4 25 19.5 43.5t44.5 29t53 17t63 9t56 3t49 0.5h109q2 0 1 -1q73 33 100 33q12 0 16 -7q2 -4 -5 -6q-5 -1 -14 -1 t-14 -1t-14.5 -6.5t-20.5 -17.5q-33 -33 -104 -157.5t-115 -222.5q0 -1 -1 -3q-64 -148 -13 -144q6 1 15 4q24 10 54 38q34 32 66 77q5 8 9.5 4t-1.5 -12l-7 -10q-7 -9 -11 -14t-13 -16.5t-16 -19t-17.5 -18t-19.5 -18t-20 -14.5t-21 -12q-25 -14 -54.5 -6.5t-35.5 39.5 q-9 49 31 135q42 89 105.5 205t94.5 157q-25 -1 -72.5 -28t-84.5 -65q-23 -24 -79 -86t-80 -88q60 -2 92 -2q41 0 72 15q-2 -5 -5.5 -11.5t-18.5 -19t-33 -13.5q-65 -4 -138 -1q-248 -256 -397 -256q-32 0 -51 18.5t-15 53.5zM892 614q-36 0 -29 34q6 31 31 48q6 4 11 5 q17 26 47 26q17 0 25 -12.5t5 -27.5q-5 -28 -32.5 -50.5t-57.5 -22.5zM893 644q-2 -15 11 -15q20 0 37.5 18.5t20.5 37.5q5 27 -14 27q-10 0 -26 -10l8 -4q-4 -6 -19 -22.5t-18 -31.5z" />
<glyph unicode="&#xc6;" horiz-adv-x="1079" d="M21 47q1 18 19 56q7 14 12 14q2 1 2.5 -2t-1.5 -6q-21 -47 -8 -69.5t51 -22.5q119 0 351 216l-66.5 3.5t-66.5 2.5q-76 0 -101 -25q-10 -10 -15.5 -29t-0.5 -34l-7 1q-8 2 -13.5 5t-7.5 10q1 8 -1 12.5t2.5 10.5t6 9.5t8 8t10 7t11 6.5t11.5 5.5t12 5t11 4.5 q74 32 139 32q41 0 102 -3q66 64 152 155q76 80 155 101h-55q-159 0 -213 -46q-24 -21 -29.5 -49t10.5 -37q5 -3 -7 -8q-6 -3 -9 -1q-10 7 -17.5 28t-5.5 35q4 25 19.5 43.5t44.5 29t53 17t63 9t56 3t49 0.5h113q68 32 97 32q12 0 16 -7q2 -4 -5 -6q-5 -1 -12.5 -1 t-12.5 -0.5t-13 -4.5t-17 -12q19 0 47 1t53 0.5t61 -2.5q25 -1 36 -10.5t8.5 -24t-9 -30t-15.5 -31.5q-4 -7 -6 -10q-7 -13 -17 -12q-4 0 -3 6q19 79 -26 93q-22 7 -107 3q-40 -3 -54 -21q-31 -44 -122 -201q-4 -11 8 -11q15 0 69.5 -1t77.5 0q59 5 75 13q9 6 8 -2 q-1 -16 -22 -31q-13 -10 -26 -10q-32 0 -93.5 2.5t-108.5 0.5q-10 -1 -14 -8q-5 -10 -16.5 -31.5t-19.5 -36.5q-49 -95 -49 -129q0 -53 100 -55q209 0 307 125q4 6 7 -3q1 -6 -1 -9q-4 -5 -23 -29.5t-26 -32t-21.5 -23t-25.5 -23t-22 -10.5q-36 -11 -123.5 -14t-178.5 6 q-51 5 -65 26t10 68l48 86q42 89 104.5 201.5t92.5 153.5q-25 -1 -72.5 -28t-84.5 -65q-23 -24 -79 -86t-80 -88q60 -2 92 -2q41 0 72 15q-2 -5 -5.5 -11.5t-18.5 -19t-33 -13.5q-65 -4 -138 -1q-248 -256 -397 -256q-32 0 -51 18.5t-15 53.5z" />
<glyph unicode="&#xc7;" horiz-adv-x="527" d="M38 135q0 94 52 183.5t134 151.5q105 79 227 79q55 0 92 -18q51 -24 43 -63q-3 -11 -19.5 -38t-21.5 -41q-2 -7 -15 -8q-4 1 -4 3q14 23 16.5 58.5t-10.5 59.5q-19 32 -74.5 32t-87.5 -16q-58 -21 -111 -66q-71 -63 -116.5 -150.5t-45.5 -164.5q0 -60 31.5 -94.5 t80.5 -41.5t99 -1t96 24q109 42 175 124q8 10 10 3t-8 -21q-63 -84 -169 -128q-76 -31 -164 -31q-25 -17 -25 -41q0 -14 19 -40t16 -47q-7 -37 -51 -56.5t-89 -19.5q-8 0 -6 8q0 6 9 6q1 0 14 0.5t24.5 2.5t25 6.5t23.5 15.5t13 28q2 12 -15.5 40t-17.5 43q0 35 31 56 q-80 6 -130.5 45t-50.5 117z" />
<glyph unicode="&#xc8;" horiz-adv-x="478" d="M49 89q29 52 83 146t74 129q43 78 69 118q24 38 61 47q-129 -7 -175 -26q-31 -13 -42 -33q-11 -19 -9.5 -39.5t15.5 -29.5q4 -2 -2 -6q-4 -3 -7 -1q-9 5 -22 24.5t-16 32.5q-23 82 111 92q19 1 53 1h1h2q12 0 146 3t146 -2q25 -1 36 -10.5t8.5 -24t-9 -30t-15.5 -31.5 q-4 -7 -6 -10q-7 -13 -17 -12q-4 0 -3 6q19 79 -26 93q-22 7 -107 3q-40 -3 -54 -21q-31 -44 -122 -201q-4 -11 8 -11q15 0 69.5 -1t77.5 0q59 5 75 13q9 6 8 -2q-1 -16 -22 -31q-13 -10 -26 -10q-32 0 -93.5 2.5t-108.5 0.5q-10 -1 -14 -8q-5 -10 -16.5 -31.5t-19.5 -36.5 q-49 -95 -49 -129q0 -53 100 -55q209 0 307 125q4 6 7 -3q1 -6 -1 -9q-4 -5 -23 -29.5t-26 -32t-21.5 -23t-25.5 -23t-22 -10.5q-36 -11 -123.5 -14t-178.5 6q-51 5 -65 26t10 68zM361 725q9 0 54 -39q41 -36 77 -63l1 -7q-12 2 -69 35.5t-62 42.5q-3 3 -3.5 17t2.5 14z" />
<glyph unicode="&#xc9;" horiz-adv-x="478" d="M49 89q29 52 83 146t74 129q43 78 69 118q24 38 61 47q-129 -7 -175 -26q-31 -13 -42 -33q-11 -19 -9.5 -39.5t15.5 -29.5q4 -2 -2 -6q-4 -3 -7 -1q-9 5 -22 24.5t-16 32.5q-23 82 111 92q19 1 53 1h1h2q12 0 146 3t146 -2q25 -1 36 -10.5t8.5 -24t-9 -30t-15.5 -31.5 q-4 -7 -6 -10q-7 -13 -17 -12q-4 0 -3 6q19 79 -26 93q-22 7 -107 3q-40 -3 -54 -21q-31 -44 -122 -201q-4 -11 8 -11q15 0 69.5 -1t77.5 0q59 5 75 13q9 6 8 -2q-1 -16 -22 -31q-13 -10 -26 -10q-32 0 -93.5 2.5t-108.5 0.5q-10 -1 -14 -8q-5 -10 -16.5 -31.5t-19.5 -36.5 q-49 -95 -49 -129q0 -53 100 -55q209 0 307 125q4 6 7 -3q1 -6 -1 -9q-4 -5 -23 -29.5t-26 -32t-21.5 -23t-25.5 -23t-22 -10.5q-36 -11 -123.5 -14t-178.5 6q-51 5 -65 26t10 68zM441 616q-1 0 1 7q36 27 77 63q45 39 54 39q3 0 2.5 -14t-3.5 -17q-5 -9 -62 -42.5 t-69 -35.5z" />
<glyph unicode="&#xca;" horiz-adv-x="478" d="M49 89q29 52 83 146t74 129q43 78 69 118q24 38 61 47q-129 -7 -175 -26q-31 -13 -42 -33q-11 -19 -9.5 -39.5t15.5 -29.5q4 -2 -2 -6q-4 -3 -7 -1q-9 5 -22 24.5t-16 32.5q-23 82 111 92q19 1 53 1h1h2q12 0 146 3t146 -2q25 -1 36 -10.5t8.5 -24t-9 -30t-15.5 -31.5 q-4 -7 -6 -10q-7 -13 -17 -12q-4 0 -3 6q19 79 -26 93q-22 7 -107 3q-40 -3 -54 -21q-31 -44 -122 -201q-4 -11 8 -11q15 0 69.5 -1t77.5 0q59 5 75 13q9 6 8 -2q-1 -16 -22 -31q-13 -10 -26 -10q-32 0 -93.5 2.5t-108.5 0.5q-10 -1 -14 -8q-5 -10 -16.5 -31.5t-19.5 -36.5 q-49 -95 -49 -129q0 -53 100 -55q209 0 307 125q4 6 7 -3q1 -6 -1 -9q-4 -5 -23 -29.5t-26 -32t-21.5 -23t-25.5 -23t-22 -10.5q-36 -11 -123.5 -14t-178.5 6q-51 5 -65 26t10 68zM348 623q73 49 113 84h12q24 -40 68 -70q13 -8 18 -8v-3q-6 -2 -21 -9q-10 -5 -42 22 q-14 12 -39 42q0 3 -6 0q-11 -10 -43 -31.5t-46 -26.5q-5 -2 -14 0z" />
<glyph unicode="&#xcb;" horiz-adv-x="478" d="M49 89q29 52 83 146t74 129q43 78 69 118q24 38 61 47q-129 -7 -175 -26q-31 -13 -42 -33q-11 -19 -9.5 -39.5t15.5 -29.5q4 -2 -2 -6q-4 -3 -7 -1q-9 5 -22 24.5t-16 32.5q-23 82 111 92q19 1 53 1h1h2q12 0 146 3t146 -2q25 -1 36 -10.5t8.5 -24t-9 -30t-15.5 -31.5 q-4 -7 -6 -10q-7 -13 -17 -12q-4 0 -3 6q19 79 -26 93q-22 7 -107 3q-40 -3 -54 -21q-31 -44 -122 -201q-4 -11 8 -11q15 0 69.5 -1t77.5 0q59 5 75 13q9 6 8 -2q-1 -16 -22 -31q-13 -10 -26 -10q-32 0 -93.5 2.5t-108.5 0.5q-10 -1 -14 -8q-5 -10 -16.5 -31.5t-19.5 -36.5 q-49 -95 -49 -129q0 -53 100 -55q209 0 307 125q4 6 7 -3q1 -6 -1 -9q-4 -5 -23 -29.5t-26 -32t-21.5 -23t-25.5 -23t-22 -10.5q-36 -11 -123.5 -14t-178.5 6q-51 5 -65 26t10 68zM359 672q0 1 1.5 2.5t5 4t7.5 5.5t8 5.5t7.5 4.5t6 3t3.5 1q23 -14 33 -12q8 2 8 -3 q-1 -4 -6 -10q-29 -24 -38 -23q-20 1 -36 22zM475 672q0 1 1.5 2.5t5 4t7.5 5.5t8 5.5t7.5 4.5t6 3t3.5 1q23 -14 33 -12q8 2 8 -3q-1 -4 -6 -10q-29 -24 -38 -23q-20 1 -36 22z" />
<glyph unicode="&#xcc;" horiz-adv-x="365" d="M10 117q0 13 5 14q4 1 5 -5q1 -1 1 -3q0 -46 22.5 -70.5t59.5 -24.5q63 0 129 71q17 18 32.5 38.5t26.5 35t26.5 41.5t21.5 37t22.5 43.5t19 38.5t21 45t19.5 42q32 67 80 99h-30q-22 0 -43 -2t-51 -8.5t-47 -24t-15 -42.5q2 -17 12 -38l-10 -8q-39 68 -40 75 q-3 36 17 54q13 11 40.5 16t51 4.5t56.5 -2t41 -1.5l160 1l-13 -15q-31 0 -67 -7q-26 -4 -56.5 -27.5t-51.5 -58.5l-9 -15q-7 -16 -33 -79t-44 -104t-50 -95t-63 -87q-25 -28 -63.5 -46.5t-72.5 -18.5q-33 0 -60.5 18.5t-40.5 52.5q-9 22 -9 56zM380 725q9 0 54 -39 q41 -36 77 -63l1 -7q-12 2 -69 35.5t-62 42.5q-3 3 -3.5 17t2.5 14z" />
<glyph unicode="&#xcd;" horiz-adv-x="365" d="M10 117q0 13 5 14q4 1 5 -5q1 -1 1 -3q0 -46 22.5 -70.5t59.5 -24.5q63 0 129 71q17 18 32.5 38.5t26.5 35t26.5 41.5t21.5 37t22.5 43.5t19 38.5t21 45t19.5 42q32 67 80 99h-30q-22 0 -43 -2t-51 -8.5t-47 -24t-15 -42.5q2 -17 12 -38l-10 -8q-39 68 -40 75 q-3 36 17 54q13 11 40.5 16t51 4.5t56.5 -2t41 -1.5l160 1l-13 -15q-31 0 -67 -7q-26 -4 -56.5 -27.5t-51.5 -58.5l-9 -15q-7 -16 -33 -79t-44 -104t-50 -95t-63 -87q-25 -28 -63.5 -46.5t-72.5 -18.5q-33 0 -60.5 18.5t-40.5 52.5q-9 22 -9 56zM481 616q-1 0 1 7 q36 27 77 63q45 39 54 39q3 0 2.5 -14t-3.5 -17q-5 -9 -62 -42.5t-69 -35.5z" />
<glyph unicode="&#xce;" horiz-adv-x="365" d="M10 117q0 13 5 14q4 1 5 -5q1 -1 1 -3q0 -46 22.5 -70.5t59.5 -24.5q63 0 129 71q17 18 32.5 38.5t26.5 35t26.5 41.5t21.5 37t22.5 43.5t19 38.5t21 45t19.5 42q32 67 80 99h-30q-22 0 -43 -2t-51 -8.5t-47 -24t-15 -42.5q2 -17 12 -38l-10 -8q-39 68 -40 75 q-3 36 17 54q13 11 40.5 16t51 4.5t56.5 -2t41 -1.5l160 1l-13 -15q-31 0 -67 -7q-26 -4 -56.5 -27.5t-51.5 -58.5l-9 -15q-7 -16 -33 -79t-44 -104t-50 -95t-63 -87q-25 -28 -63.5 -46.5t-72.5 -18.5q-33 0 -60.5 18.5t-40.5 52.5q-9 22 -9 56zM398 623q73 49 113 84h12 q24 -40 68 -70q13 -8 18 -8v-3q-6 -2 -21 -9q-10 -5 -42 22q-14 12 -39 42q0 3 -6 0q-11 -10 -43 -31.5t-46 -26.5q-5 -2 -14 0z" />
<glyph unicode="&#xcf;" horiz-adv-x="365" d="M10 117q0 13 5 14q4 1 5 -5q1 -1 1 -3q0 -46 22.5 -70.5t59.5 -24.5q63 0 129 71q17 18 32.5 38.5t26.5 35t26.5 41.5t21.5 37t22.5 43.5t19 38.5t21 45t19.5 42q32 67 80 99h-30q-22 0 -43 -2t-51 -8.5t-47 -24t-15 -42.5q2 -17 12 -38l-10 -8q-39 68 -40 75 q-3 36 17 54q13 11 40.5 16t51 4.5t56.5 -2t41 -1.5l160 1l-13 -15q-31 0 -67 -7q-26 -4 -56.5 -27.5t-51.5 -58.5l-9 -15q-7 -16 -33 -79t-44 -104t-50 -95t-63 -87q-25 -28 -63.5 -46.5t-72.5 -18.5q-33 0 -60.5 18.5t-40.5 52.5q-9 22 -9 56zM403 672q-1 1 2.5 4t9.5 7 t11.5 7.5t10 6t5.5 1.5q23 -14 33 -12q8 2 8 -3q-1 -4 -6 -10q-29 -24 -38 -23q-20 1 -36 22zM519 672q-1 1 2.5 4t9.5 7t11.5 7.5t10 6t5.5 1.5q23 -14 33 -12q8 2 8 -3q-1 -4 -6 -10q-29 -24 -38 -23q-20 1 -36 22z" />
<glyph unicode="&#xd0;" horiz-adv-x="626" d="M-2 -13l2 3q6 2 6 1.5t7 1.5q32 11 51 45q52 87 112 200q-46 -2 -75 -4q-6 -1 11 19q13 15 19 14q13 -3 58 -5l51 95l45 87q14 32 23 47q15 25 59 40h-24q-66 0 -141.5 -13.5t-93.5 -47.5q-10 -18 -10 -35q0 -12 4.5 -20t9 -11.5t4.5 -4.5q0 -6 -8 -6t-23 23.5t-18 34.5 t-3 22q0 71 164 71q34 0 100 2.5t99 2.5q41 0 74.5 -4t69 -15.5t59.5 -30t39 -51.5t15 -77q0 -102 -68 -204q-122 -183 -342 -183q-77 0 -136 30q-18 9 -30 9q-18 0 -51 -21t-47 -21q-12 0 -12 6zM146 60q0 -18 25 -39q30 -23 91 -23q111 0 199.5 63.5t131.5 167.5 q30 76 30 136q0 77 -47 120t-125 43q-53 0 -73 -23q-16 -18 -47 -72q-14 -24 -28 -51.5t-31 -62.5t-26 -52l-3 -5q40 0 78 4q6 0 -12 -21q-12 -13 -17 -12q-7 0 -27.5 2t-34.5 3l-49 -98q-20 -38 -29 -57q-6 -14 -6 -23z" />
<glyph unicode="&#xd1;" horiz-adv-x="721" d="M6 117q0 15 5 14.5t5 -8.5q0 -47 25.5 -78t62.5 -31q72 0 133 64q26 28 47.5 59t41.5 72t30.5 64.5t32.5 77.5t28 69q16 39 43 67t62 34h-55q-159 0 -191 -46q-14 -22 -5.5 -49t29.5 -37q6 -3 -3 -8q-5 -2 -9 -1q-13 7 -31.5 28.5t-22.5 34.5q-12 36 7 58.5t66.5 31 t78 10.5t78.5 2h4h121q9 1 -8 -20q-9 -11 -13 -10q-11 1 -31 -3.5t-28 -10.5q6 -73 40.5 -192.5t75.5 -222.5q12 30 59 159t88 220t76 124q15 14 38 20.5t40 0.5t16 -24l-1 -36l-9 -2q1 11 -9 17.5t-19 6.5q-23 1 -52.5 -34.5t-62 -102t-54.5 -117t-51.5 -126t-33.5 -84.5 q-13 -30 -9 -53q0 -5 2 -13.5t1.5 -14t-6.5 -10.5q-10 -7 -22 -12q-7 -3 -19 -15t-16 -18q-4 -5 -10 1l-1 2q11 15 20 41q-9 49 -26 112t-30 107t-37.5 120t-33.5 105q-10 -7 -25 -52q-1 -3 -13.5 -36.5t-17 -44.5l-18 -44t-21 -49.5t-22 -46t-26.5 -49t-27.5 -42.5 t-30.5 -41q-22 -27 -66.5 -46t-79.5 -19q-32 0 -60 18t-42 53q-8 23 -8 56zM610 639q5 16 20 29.5t31 13.5t41 -10t46 -12q23 -3 41 22h10q-6 -21 -19.5 -35.5t-26.5 -14.5q-21 0 -52.5 12.5t-48.5 12.5q-22 0 -30 -18h-12z" />
<glyph unicode="&#xd2;" horiz-adv-x="594" d="M7 146q0 43 16 95t50.5 107.5t81.5 101t116 75t147 29.5q119 0 174.5 -38.5t55.5 -119.5q0 -104 -56 -198.5t-152.5 -152t-207.5 -57.5q-225 0 -225 158zM60 137q0 -134 164 -134q98 0 184.5 62t134.5 154.5t48 185.5q0 134 -171 134q-85 0 -170.5 -68t-137.5 -162 t-52 -172zM389 725q9 0 54 -39q41 -36 77 -63l1 -7q-12 2 -69 35.5t-62 42.5q-3 3 -3.5 17t2.5 14z" />
<glyph unicode="&#xd3;" horiz-adv-x="594" d="M7 146q0 43 16 95t50.5 107.5t81.5 101t116 75t147 29.5q119 0 174.5 -38.5t55.5 -119.5q0 -104 -56 -198.5t-152.5 -152t-207.5 -57.5q-225 0 -225 158zM60 137q0 -134 164 -134q98 0 184.5 62t134.5 154.5t48 185.5q0 134 -171 134q-85 0 -170.5 -68t-137.5 -162 t-52 -172zM459 616q-1 0 1 7q36 27 77 63q45 39 54 39q3 0 2.5 -14t-3.5 -17q-5 -9 -62 -42.5t-69 -35.5z" />
<glyph unicode="&#xd4;" horiz-adv-x="594" d="M7 146q0 43 16 95t50.5 107.5t81.5 101t116 75t147 29.5q119 0 174.5 -38.5t55.5 -119.5q0 -104 -56 -198.5t-152.5 -152t-207.5 -57.5q-225 0 -225 158zM60 137q0 -134 164 -134q98 0 184.5 62t134.5 154.5t48 185.5q0 134 -171 134q-85 0 -170.5 -68t-137.5 -162 t-52 -172zM384 623q73 49 113 84h12q24 -40 68 -70q13 -8 18 -8v-3q-6 -2 -21 -9q-10 -5 -42 22q-14 12 -39 42q0 3 -6 0q-11 -10 -43 -31.5t-46 -26.5q-5 -2 -14 0z" />
<glyph unicode="&#xd5;" horiz-adv-x="594" d="M7 146q0 43 16 95t50.5 107.5t81.5 101t116 75t147 29.5q119 0 174.5 -38.5t55.5 -119.5q0 -104 -56 -198.5t-152.5 -152t-207.5 -57.5q-225 0 -225 158zM60 137q0 -134 164 -134q98 0 184.5 62t134.5 154.5t48 185.5q0 134 -171 134q-85 0 -170.5 -68t-137.5 -162 t-52 -172zM406 639q5 16 20 29.5t31 13.5t41 -10t46 -12q23 -3 41 22h10q-6 -21 -19.5 -35.5t-26.5 -14.5q-21 0 -52.5 12.5t-48.5 12.5q-22 0 -30 -18h-12z" />
<glyph unicode="&#xd6;" horiz-adv-x="594" d="M7 146q0 43 16 95t50.5 107.5t81.5 101t116 75t147 29.5q119 0 174.5 -38.5t55.5 -119.5q0 -104 -56 -198.5t-152.5 -152t-207.5 -57.5q-225 0 -225 158zM60 137q0 -134 164 -134q98 0 184.5 62t134.5 154.5t48 185.5q0 134 -171 134q-85 0 -170.5 -68t-137.5 -162 t-52 -172zM409 672q0 1 1.5 2.5t5 4t7.5 5.5t8 5.5t7.5 4.5t6 3t3.5 1q23 -14 33 -12q8 2 8 -3q-1 -4 -6 -10q-29 -24 -38 -23q-20 1 -36 22zM525 672q-1 1 2.5 4t9.5 7t11.5 7.5t10 6t5.5 1.5q23 -14 33 -12q8 2 8 -3q-1 -4 -6 -10q-29 -24 -38 -23q-20 1 -36 22z" />
<glyph unicode="&#xd7;" horiz-adv-x="426" d="M57 97l-2 9q-2 38 6 44q15 9 132 106q-20 17 -73.5 59.5t-58.5 46.5q-9 4 -5 45l2 8q23 -21 76.5 -67.5t80.5 -72.5q86 73 157 140l3 -8q3 -39 -6 -45q-88 -68 -132 -106q117 -97 132 -106q9 -7 6 -45q-1 -9 -2 -8q-25 23 -158 140q-19 -16 -158 -140z" />
<glyph unicode="&#xd8;" horiz-adv-x="594" d="M5 -28q18 20 54 58q-52 39 -52 116q0 43 16 95t50.5 107.5t81.5 101t116 75t147 29.5q88 0 140 -21l40 36q5 6 38 2l6 -2q-26 -22 -55 -50q61 -39 61 -123q0 -104 -56 -198.5t-152.5 -152t-207.5 -57.5q-94 0 -151 29q-9 -9 -42 -45q-9 -10 -29 -6q-9 2 -5 6zM60 137 q0 -51 22 -82q267 281 455 458q-41 26 -117 26q-85 0 -170.5 -68t-137.5 -162t-52 -172zM100 36q39 -33 124 -33q98 0 184.5 62t134.5 154.5t48 185.5q0 58 -30 89q-203 -193 -461 -458z" />
<glyph unicode="&#xd9;" horiz-adv-x="611" d="M8 471q-5 35 17 54q13 11 40.5 16t50.5 4.5t56 -2t42 -1.5q141 1 230 1l-13 -15q-49 0 -71 -28q-56 -73 -127.5 -225t-80.5 -227q-3 -28 23 -33.5t52 10.5q54 27 112.5 88t104.5 125q81 116 142 250q2 3 7.5 17.5t10.5 20.5t12 5q42 -11 78 23q6 4 12 -1v-3 q-35 -28 -70 -82q-149 -226 -184 -335q-45 -142 51 -125q33 5 90 62q31 28 71 79q2 -4 2 -8q-1 -12 -13 -26q-20 -26 -52 -60q-29 -29 -70 -56t-73 -25q-36 2 -50.5 23.5t-9.5 57t14.5 66.5t24.5 69q1 1 1.5 2t0.5 2q-28 -33 -90 -93q-69 -67 -99 -89q-56 -39 -107 -38 q-31 0 -43.5 13.5t-11 30t11.5 41.5q22 55 58 124q3 6 20 38.5t25 49l24 49.5t24.5 55t19 50.5t15 51.5t4.5 42h-88q-22 0 -43 -2t-51 -8.5t-47.5 -24t-15.5 -42.5q2 -24 13 -38l-11 -8q-1 2 -14 23t-19 33t-6 19zM433 725q9 0 54 -39q41 -36 77 -63l1 -7q-12 2 -69 35.5 t-62 42.5q-3 3 -3.5 17t2.5 14z" />
<glyph unicode="&#xda;" horiz-adv-x="611" d="M8 471q-5 35 17 54q13 11 40.5 16t50.5 4.5t56 -2t42 -1.5q141 1 230 1l-13 -15q-49 0 -71 -28q-56 -73 -127.5 -225t-80.5 -227q-3 -28 23 -33.5t52 10.5q54 27 112.5 88t104.5 125q81 116 142 250q2 3 7.5 17.5t10.5 20.5t12 5q42 -11 78 23q6 4 12 -1v-3 q-35 -28 -70 -82q-149 -226 -184 -335q-45 -142 51 -125q33 5 90 62q31 28 71 79q2 -4 2 -8q-1 -12 -13 -26q-20 -26 -52 -60q-29 -29 -70 -56t-73 -25q-36 2 -50.5 23.5t-9.5 57t14.5 66.5t24.5 69q1 1 1.5 2t0.5 2q-28 -33 -90 -93q-69 -67 -99 -89q-56 -39 -107 -38 q-31 0 -43.5 13.5t-11 30t11.5 41.5q22 55 58 124q3 6 20 38.5t25 49l24 49.5t24.5 55t19 50.5t15 51.5t4.5 42h-88q-22 0 -43 -2t-51 -8.5t-47.5 -24t-15.5 -42.5q2 -24 13 -38l-11 -8q-1 2 -14 23t-19 33t-6 19zM485 616q-1 0 1 7q36 27 77 63q45 39 54 39q3 0 2.5 -14 t-3.5 -17q-5 -9 -62 -42.5t-69 -35.5z" />
<glyph unicode="&#xdb;" horiz-adv-x="611" d="M8 471q-5 35 17 54q13 11 40.5 16t50.5 4.5t56 -2t42 -1.5q141 1 230 1l-13 -15q-49 0 -71 -28q-56 -73 -127.5 -225t-80.5 -227q-3 -28 23 -33.5t52 10.5q54 27 112.5 88t104.5 125q81 116 142 250q2 3 7.5 17.5t10.5 20.5t12 5q42 -11 78 23q6 4 12 -1v-3 q-35 -28 -70 -82q-149 -226 -184 -335q-45 -142 51 -125q33 5 90 62q31 28 71 79q2 -4 2 -8q-1 -12 -13 -26q-20 -26 -52 -60q-29 -29 -70 -56t-73 -25q-36 2 -50.5 23.5t-9.5 57t14.5 66.5t24.5 69q1 1 1.5 2t0.5 2q-28 -33 -90 -93q-69 -67 -99 -89q-56 -39 -107 -38 q-31 0 -43.5 13.5t-11 30t11.5 41.5q22 55 58 124q3 6 20 38.5t25 49l24 49.5t24.5 55t19 50.5t15 51.5t4.5 42h-88q-22 0 -43 -2t-51 -8.5t-47.5 -24t-15.5 -42.5q2 -24 13 -38l-11 -8q-1 2 -14 23t-19 33t-6 19zM436 623q73 49 113 84h12q24 -40 68 -70q13 -8 18 -8v-3 q-6 -2 -21 -9q-10 -5 -42 22q-14 12 -39 42q0 3 -6 0q-11 -10 -43 -31.5t-46 -26.5q-5 -2 -14 0z" />
<glyph unicode="&#xdc;" horiz-adv-x="611" d="M8 471q-5 35 17 54q13 11 40.5 16t50.5 4.5t56 -2t42 -1.5q141 1 230 1l-13 -15q-49 0 -71 -28q-56 -73 -127.5 -225t-80.5 -227q-3 -28 23 -33.5t52 10.5q54 27 112.5 88t104.5 125q81 116 142 250q2 3 7.5 17.5t10.5 20.5t12 5q42 -11 78 23q6 4 12 -1v-3 q-35 -28 -70 -82q-149 -226 -184 -335q-45 -142 51 -125q33 5 90 62q31 28 71 79q2 -4 2 -8q-1 -12 -13 -26q-20 -26 -52 -60q-29 -29 -70 -56t-73 -25q-36 2 -50.5 23.5t-9.5 57t14.5 66.5t24.5 69q1 1 1.5 2t0.5 2q-28 -33 -90 -93q-69 -67 -99 -89q-56 -39 -107 -38 q-31 0 -43.5 13.5t-11 30t11.5 41.5q22 55 58 124q3 6 20 38.5t25 49l24 49.5t24.5 55t19 50.5t15 51.5t4.5 42h-88q-22 0 -43 -2t-51 -8.5t-47.5 -24t-15.5 -42.5q2 -24 13 -38l-11 -8q-1 2 -14 23t-19 33t-6 19zM443 672q-1 1 2.5 4t9.5 7t11.5 7.5t10 6t5.5 1.5 q23 -14 33 -12q8 2 8 -3q-1 -4 -6 -10q-29 -24 -38 -23q-20 1 -36 22zM559 672q-1 1 2.5 4t9.5 7t11.5 7.5t10 6t5.5 1.5q23 -14 33 -12q8 2 8 -3q-1 -4 -6 -10q-29 -24 -38 -23q-20 1 -36 22z" />
<glyph unicode="&#xdd;" horiz-adv-x="452" d="M8 89q0 15 5 14t5 -9q0 -45 23 -70t60 -25q102 0 210 155q-12 -7 -20 -7q-5 0 -8 1.5t-2 6.5q0 1 1 3t2 4.5t1 3.5l11 34q13 49 20 103.5t1 119t-34 96.5h-24q-22 0 -43 -2t-51 -8.5t-47 -24t-15 -42.5q2 -17 12 -38l-10 -8q-39 68 -40 75q-3 36 17 54q13 11 40.5 16 t51 4.5t56.5 -2t41 -1.5q71 1 160 1l-21 -26q-35 0 -109 2q41 -27 54 -90t7 -119t-21 -108q7 10 75.5 113t110.5 151q26 30 42.5 47t49.5 38.5t60 20.5q27 -2 39 -27q4 -8 5 -17t-1.5 -18t-4 -14t-5.5 -14l-4 -8q-2 -5 -6 -4q-3 1 -2 4q6 25 -3.5 45.5t-31.5 21.5 q-48 1 -126 -89q-49 -57 -92.5 -120t-64.5 -98t-74 -127q-38 -67 -83.5 -106.5t-107.5 -39.5q-32 0 -59.5 18t-41.5 53q-8 19 -8 57zM468 616q-1 0 1 7q36 27 77 63q45 39 54 39q3 0 2.5 -14t-3.5 -17q-5 -9 -62 -42.5t-69 -35.5z" />
<glyph unicode="&#xde;" horiz-adv-x="541" d="M-54 -131q41 7 64 48q33 56 176 319q9 15 43 79q142 261 152 261q6 2 37 15.5t51 20t36 6.5q12 0 15 -7q2 -4 -5 -6q-5 -1 -14 -1t-14 -1t-15.5 -6.5t-22.5 -17.5q-34 -31 -112 -155q98 0 133 -12q33 -12 48 -34q33 -51 15.5 -100t-56.5 -85t-87 -55q-46 -19 -119 -23.5 t-102 0.5q-100 -187 -87 -218q4 -9 -12 -3q-30 8 -45 0q-4 -2 -25 -15t-37 -18q-15 -3 -18 4q-2 2 1 4zM181 136q26 -6 70 -0.5t88 16.5t83 41.5t54 74.5q18 48 1 90.5t-59 48.5q-25 3 -53.5 -1.5t-40.5 -21.5q-11 -15 -127 -219z" />
<glyph unicode="&#xdf;" horiz-adv-x="461" d="M-299 -176q-1 4 -1.5 9t0.5 11.5t2 11t4 13.5t4 12.5t5.5 14.5t5.5 14q2 5 5.5 6t5.5 -2t0 -8q-13 -30 -2 -55.5t35.5 -37t56.5 -13.5t61 14q71 37 130 147q21 39 40 87t40.5 107t34.5 92h-23q-1 0 -22 -3l-2 1q2 10 19 19t28 9h12q82 204 170 283q59 52 134 55 q60 0 98.5 -33.5t38.5 -81t-39 -98.5q-50 -57 -143 -67q-30 -5 -40.5 -17t-2 -29t20 -31.5t30 -34t24.5 -27.5q56 -74 3 -143q-41 -54 -116 -69q-84 -17 -127 35q-14 16 -21 39q-6 19 4 47.5t26 42.5q3 1 6 0t4 -3t0 -4q-5 -8 -8 -23q-6 -54 28.5 -84t82.5 -30q41 0 66 21 t28 60q4 37 -11.5 68.5t-41.5 63t-34 48.5q-25 49 50 77q104 23 146 78q27 35 29.5 77t-23.5 72.5t-75 30.5q-62 0 -117 -53q-44 -42 -86.5 -129t-88.5 -208t-64 -160q-17 -38 -36 -72t-47.5 -72t-58 -65t-68.5 -45t-79 -18q-83 0 -101 50z" />
<glyph unicode="&#xe0;" d="M3 20q0 5 1 7q7 57 46 120t87 100q34 26 75 26h115q5 0 5 -4q0 -8 -9 -8q-14 0 -35 -33q-21 -32 -55.5 -99.5t-34.5 -88.5q0 -14 14 -14q6 0 13.5 3t16.5 9t16 12t17.5 16.5l16.5 16.5t17 19t14.5 17t13.5 17l10 12q7 -7 -12 -33q-89 -118 -165 -118q-24 0 -24 19 q0 35 39 96q-35 -37 -73 -70q-52 -44 -91 -44q-18 0 -18 22zM54 44q0 -12 8 -12q29 0 103.5 88.5t74.5 120.5q0 19 -23 19q-28 0 -64 -34q-26 -24 -62.5 -88.5t-36.5 -93.5zM166 444q9 0 54 -39q41 -36 77 -63l1 -7q-12 2 -69 35.5t-62 42.5q-3 3 -3.5 17t2.5 14z" />
<glyph unicode="&#xe1;" d="M3 20q0 5 1 7q7 57 46 120t87 100q34 26 75 26h115q5 0 5 -4q0 -8 -9 -8q-14 0 -35 -33q-21 -32 -55.5 -99.5t-34.5 -88.5q0 -14 14 -14q6 0 13.5 3t16.5 9t16 12t17.5 16.5l16.5 16.5t17 19t14.5 17t13.5 17l10 12q7 -7 -12 -33q-89 -118 -165 -118q-24 0 -24 19 q0 35 39 96q-35 -37 -73 -70q-52 -44 -91 -44q-18 0 -18 22zM54 44q0 -12 8 -12q29 0 103.5 88.5t74.5 120.5q0 19 -23 19q-28 0 -64 -34q-26 -24 -62.5 -88.5t-36.5 -93.5zM242 335q-1 0 1 7q36 27 77 63q45 39 54 39q3 0 2.5 -14t-3.5 -17q-5 -9 -62 -42.5t-69 -35.5z" />
<glyph unicode="&#xe2;" d="M3 20q0 5 1 7q7 57 46 120t87 100q34 26 75 26h115q5 0 5 -4q0 -8 -9 -8q-14 0 -35 -33q-21 -32 -55.5 -99.5t-34.5 -88.5q0 -14 14 -14q6 0 13.5 3t16.5 9t16 12t17.5 16.5l16.5 16.5t17 19t14.5 17t13.5 17l10 12q7 -7 -12 -33q-89 -118 -165 -118q-24 0 -24 19 q0 35 39 96q-35 -37 -73 -70q-52 -44 -91 -44q-18 0 -18 22zM54 44q0 -12 8 -12q29 0 103.5 88.5t74.5 120.5q0 19 -23 19q-28 0 -64 -34q-26 -24 -62.5 -88.5t-36.5 -93.5zM158 342q73 49 113 84h12q24 -40 68 -70q13 -8 18 -8v-3q-6 -1 -21 -9q-10 -5 -42 22 q-14 12 -39 42q0 3 -6 0q-11 -10 -43 -31.5t-46 -26.5q-5 -2 -14 0z" />
<glyph unicode="&#xe3;" d="M3 20q0 5 1 7q7 57 46 120t87 100q34 26 75 26h115q5 0 5 -4q0 -8 -9 -8q-14 0 -35 -33q-21 -32 -55.5 -99.5t-34.5 -88.5q0 -14 14 -14q6 0 13.5 3t16.5 9t16 12t17.5 16.5l16.5 16.5t17 19t14.5 17t13.5 17l10 12q7 -7 -12 -33q-89 -118 -165 -118q-24 0 -24 19 q0 35 39 96q-35 -37 -73 -70q-52 -44 -91 -44q-18 0 -18 22zM54 44q0 -12 8 -12q29 0 103.5 88.5t74.5 120.5q0 19 -23 19q-28 0 -64 -34q-26 -24 -62.5 -88.5t-36.5 -93.5zM185 358q5 16 20 29.5t31 13.5t41 -10t46 -12q23 -3 41 22h10q-6 -21 -19.5 -35.5t-26.5 -14.5 q-21 0 -52.5 12.5t-48.5 12.5q-22 0 -30 -18h-12z" />
<glyph unicode="&#xe4;" d="M3 20q0 5 1 7q7 57 46 120t87 100q34 26 75 26h115q5 0 5 -4q0 -8 -9 -8q-14 0 -35 -33q-21 -32 -55.5 -99.5t-34.5 -88.5q0 -14 14 -14q6 0 13.5 3t16.5 9t16 12t17.5 16.5l16.5 16.5t17 19t14.5 17t13.5 17l10 12q7 -7 -12 -33q-89 -118 -165 -118q-24 0 -24 19 q0 35 39 96q-35 -37 -73 -70q-52 -44 -91 -44q-18 0 -18 22zM54 44q0 -12 8 -12q29 0 103.5 88.5t74.5 120.5q0 19 -23 19q-28 0 -64 -34q-26 -24 -62.5 -88.5t-36.5 -93.5zM176 391q-2 3 26 20l13 6q23 -14 33 -12q8 2 8 -3q-1 -4 -6 -10q-29 -24 -38 -23q-20 1 -36 22z M292 391q-2 3 26 20l13 6q23 -14 33 -12q8 2 8 -3q-1 -4 -6 -10q-29 -24 -38 -23q-20 1 -36 22z" />
<glyph unicode="&#xe5;" d="M3 20q0 5 1 7q7 57 46 120t87 100q34 26 75 26h115q5 0 5 -4q0 -8 -9 -8q-14 0 -35 -33q-21 -32 -55.5 -99.5t-34.5 -88.5q0 -14 14 -14q6 0 13.5 3t16.5 9t16 12t17.5 16.5l16.5 16.5t17 19t14.5 17t13.5 17l10 12q7 -7 -12 -33q-89 -118 -165 -118q-24 0 -24 19 q0 35 39 96q-35 -37 -73 -70q-52 -44 -91 -44q-18 0 -18 22zM54 44q0 -12 8 -12q29 0 103.5 88.5t74.5 120.5q0 19 -23 19q-28 0 -64 -34q-26 -24 -62.5 -88.5t-36.5 -93.5zM268 333q-36 0 -29 34q6 31 31 48q6 4 11 5q17 26 47 26q17 0 25 -12.5t5 -27.5 q-5 -28 -32.5 -50.5t-57.5 -22.5zM269 363q-2 -15 11 -15q20 0 37.5 18.5t20.5 37.5q5 27 -14 27q-10 0 -26 -10l8 -4q-4 -6 -19 -22.5t-18 -31.5z" />
<glyph unicode="&#xe6;" horiz-adv-x="397" d="M3 20q0 5 1 7q7 57 46 120t87 100q32 24 75 26l105 5q9 1 14 -1.5t1 -8.5q25 9 43 9q53 0 45 -55q-5 -35 -36.5 -55.5t-78.5 -35.5q-40 -12 -73 -12q-8 -21 -11.5 -38t-3.5 -33.5t8.5 -24t25.5 -10t46 8.5q39 13 81 50t69 72q7 -7 -4 -23q-37 -51 -92 -90t-112 -39 q-107 0 -59 115q-26 -28 -68 -65q-52 -44 -91 -44q-18 0 -18 22zM54 44q0 -12 8 -12q29 0 103.5 88.5t74.5 120.5q0 19 -23 19q-28 0 -64 -34q-26 -24 -62.5 -88.5t-36.5 -93.5zM240 139q34 -2 62 7q57 17 74 64q12 34 -6 47q-5 3 -11 3q-65 -1 -119 -121z" />
<glyph unicode="&#xe7;" horiz-adv-x="238" d="M-55 -207q0 6 9 6q1 0 14 0.5t24.5 2.5t25 6.5t23.5 15.5t13 28q2 12 -15.5 40t-17.5 43q0 38 36 58q-32 4 -43 24t-2 48t22 52.5t30 48.5q35 50 85 79q53 33 90 33q20 0 30.5 -8.5t10.5 -22t-3 -27t-10 -26.5q-5 -11 -13 -10q-3 1 -2 5q5 22 -4 47t-28 25 q-16 0 -37 -11.5t-31 -22.5q-61 -63 -86 -143q-7 -28 -6.5 -43.5t13.5 -20t27.5 -2.5t35.5 9q40 13 85.5 50.5t68.5 69.5q6 -6 -8 -28q-33 -45 -89 -83.5t-106 -42.5q-31 -19 -31 -45q0 -14 19 -40t16 -47q-7 -37 -51 -56.5t-89 -19.5q-8 0 -6 8z" />
<glyph unicode="&#xe8;" horiz-adv-x="249" d="M63 165q26 41 74 76.5t90 35.5q53 0 45 -55q-5 -35 -36.5 -55.5t-78.5 -35.5q-40 -12 -73 -12q-8 -21 -11.5 -38t-3.5 -33.5t8.5 -24t25.5 -10t46 8.5q39 13 81 50t69 72q7 -7 -4 -23q-37 -51 -92 -90t-112 -39q-133 0 -28 173zM92 139q34 -2 62 7q57 17 74 64 q12 34 -6 47q-5 3 -11 3q-65 -1 -119 -121zM149 444q9 0 54 -39q41 -36 77 -63l1 -7q-12 2 -69 35.5t-62 42.5q-3 3 -3.5 17t2.5 14z" />
<glyph unicode="&#xe9;" horiz-adv-x="249" d="M63 165q26 41 74 76.5t90 35.5q53 0 45 -55q-5 -35 -36.5 -55.5t-78.5 -35.5q-40 -12 -73 -12q-8 -21 -11.5 -38t-3.5 -33.5t8.5 -24t25.5 -10t46 8.5q39 13 81 50t69 72q7 -7 -4 -23q-37 -51 -92 -90t-112 -39q-133 0 -28 173zM92 139q34 -2 62 7q57 17 74 64 q12 34 -6 47q-5 3 -11 3q-65 -1 -119 -121zM240 335q-1 0 1 7q36 27 77 63q45 39 54 39q3 0 2.5 -14t-3.5 -17q-5 -9 -62 -42.5t-69 -35.5z" />
<glyph unicode="&#xea;" horiz-adv-x="249" d="M63 165q26 41 74 76.5t90 35.5q53 0 45 -55q-5 -35 -36.5 -55.5t-78.5 -35.5q-40 -12 -73 -12q-8 -21 -11.5 -38t-3.5 -33.5t8.5 -24t25.5 -10t46 8.5q39 13 81 50t69 72q7 -7 -4 -23q-37 -51 -92 -90t-112 -39q-133 0 -28 173zM92 139q34 -2 62 7q57 17 74 64 q12 34 -6 47q-5 3 -11 3q-65 -1 -119 -121zM141 342q73 49 113 84h12q24 -40 68 -70q13 -8 18 -8v-3q-6 -1 -21 -9q-10 -5 -42 22q-14 12 -39 42q0 3 -6 0q-11 -10 -43 -31.5t-46 -26.5q-5 -2 -14 0z" />
<glyph unicode="&#xeb;" horiz-adv-x="249" d="M63 165q26 41 74 76.5t90 35.5q53 0 45 -55q-5 -35 -36.5 -55.5t-78.5 -35.5q-40 -12 -73 -12q-8 -21 -11.5 -38t-3.5 -33.5t8.5 -24t25.5 -10t46 8.5q39 13 81 50t69 72q7 -7 -4 -23q-37 -51 -92 -90t-112 -39q-133 0 -28 173zM92 139q34 -2 62 7q57 17 74 64 q12 34 -6 47q-5 3 -11 3q-65 -1 -119 -121zM156 391q-2 3 26 20l13 6q23 -14 33 -12q8 2 8 -3q-1 -4 -6 -10q-29 -24 -38 -23q-20 1 -36 22zM272 391q-2 3 26 20l13 6q23 -14 33 -12q8 2 8 -3q-1 -4 -6 -10q-29 -24 -38 -23q-20 1 -36 22z" />
<glyph unicode="&#xec;" horiz-adv-x="192" d="M37 128q71 88 109 143q50 7 62 17q8 8 9 0q0 -4 -3 -8q-6 -7 -83 -152q-34 -64 -34 -88q0 -14 14 -14q31 0 112 96l22 25q2 -2 2 -7q-2 -9 -13 -25q-28 -35 -47.5 -56t-53 -41.5t-65.5 -20.5q-23 0 -23 19q0 9 5 24.5t10 26.5t13.5 29.5t10.5 21.5l51 108 q-53 -57 -96 -114q-6 -9 -7 0.5t5 15.5zM107 444q9 0 54 -39q41 -36 77 -63l1 -7q-12 2 -69 35.5t-62 42.5q-3 3 -3.5 17t2.5 14z" />
<glyph unicode="&#xed;" horiz-adv-x="192" d="M37 128q71 88 109 143q50 7 62 17q8 8 9 0q0 -4 -3 -8q-6 -7 -83 -152q-34 -64 -34 -88q0 -14 14 -14q31 0 112 96l22 25q2 -2 2 -7q-2 -9 -13 -25q-28 -35 -47.5 -56t-53 -41.5t-65.5 -20.5q-23 0 -23 19q0 9 5 24.5t10 26.5t13.5 29.5t10.5 21.5l51 108 q-53 -57 -96 -114q-6 -9 -7 0.5t5 15.5zM190 335q-1 0 1 7q36 27 77 63q45 39 54 39q3 0 2.5 -14t-3.5 -17q-5 -9 -62 -42.5t-69 -35.5z" />
<glyph unicode="&#xee;" horiz-adv-x="192" d="M37 128q71 88 109 143q50 7 62 17q8 8 9 0q0 -4 -3 -8q-6 -7 -83 -152q-34 -64 -34 -88q0 -14 14 -14q31 0 112 96l22 25q2 -2 2 -7q-2 -9 -13 -25q-28 -35 -47.5 -56t-53 -41.5t-65.5 -20.5q-23 0 -23 19q0 9 5 24.5t10 26.5t13.5 29.5t10.5 21.5l51 108 q-53 -57 -96 -114q-6 -9 -7 0.5t5 15.5zM103 342q73 49 113 84h12q24 -40 68 -70q13 -8 18 -8v-3q-6 -1 -21 -9q-10 -5 -42 22q-14 12 -39 42q0 3 -6 0q-11 -10 -43 -31.5t-46 -26.5q-5 -2 -14 0z" />
<glyph unicode="&#xef;" horiz-adv-x="192" d="M37 128q71 88 109 143q50 7 62 17q8 8 9 0q0 -4 -3 -8q-6 -7 -83 -152q-34 -64 -34 -88q0 -14 14 -14q31 0 112 96l22 25q2 -2 2 -7q-2 -9 -13 -25q-28 -35 -47.5 -56t-53 -41.5t-65.5 -20.5q-23 0 -23 19q0 9 5 24.5t10 26.5t13.5 29.5t10.5 21.5l51 108 q-53 -57 -96 -114q-6 -9 -7 0.5t5 15.5zM112 391q-2 3 26 20l13 6q23 -14 33 -12q8 2 8 -3q-1 -4 -6 -10q-29 -24 -38 -23q-20 1 -36 22zM228 391q-2 3 26 20q11 7 13 6q23 -14 33 -12q8 2 8 -3q-1 -4 -6 -10q-29 -24 -38 -23q-20 1 -36 22z" />
<glyph unicode="&#xf0;" horiz-adv-x="330" d="M3 20q0 5 1 7q7 56 46.5 120t86.5 100q10 8 20.5 13t17.5 7.5t21 4t18.5 1.5h23h22.5q36 81 23 183q-50 -27 -75 -45l-1 8q3 31 12 36q15 4 59 26q-15 67 -59 84q-13 5 -9.5 11t18.5 10q21 5 48 -14.5t41 -71.5q17 10 40.5 24t30.5 18q2 1 2 -3q0 -23 -10 -36 q-1 -2 -3 -3q-9 -4 -27.5 -12t-27.5 -12q5 -32 5 -66q0 -102 -47 -196t-140 -168q-63 -48 -105 -48q-11 0 -21.5 6.5t-10.5 15.5zM54 44q0 -12 8 -12q34 0 111.5 77t77.5 130q0 19 -23 19q-36 0 -78 -38t-69 -88.5t-27 -87.5z" />
<glyph unicode="&#xf1;" horiz-adv-x="330" d="M37 128q71 88 109 143q50 7 62 17q8 8 9 0q0 -4 -3 -8q-10 -11 -82 -145q16 21 53 60q23 24 58.5 50.5t58.5 29.5q30 5 34 -9.5t-12 -37.5q-20 -30 -53 -96.5t-33 -87.5q0 -14 14 -14q15 0 38.5 18.5t42 39.5t49.5 59q7 -9 -11 -32q-51 -69 -91 -100q-30 -23 -58 -23 q-64 0 -1 126q34 66 54 110q10 21 -14 8q-33 -21 -66 -54q-69 -72 -111 -184q-6 0 -38 -11q-9 -3 -8 1q0 2 2 6q17 34 54.5 129.5t40.5 102.5q-53 -57 -96 -114q-6 -9 -7 0.5t5 15.5zM195 358q5 16 20 29.5t31 13.5t41 -10t46 -12q23 -3 41 22h10q-6 -21 -19.5 -35.5 t-26.5 -14.5q-21 0 -52.5 12.5t-48.5 12.5q-22 0 -30 -18h-12z" />
<glyph unicode="&#xf2;" horiz-adv-x="265" d="M9 33q0 57 55 133q35 50 85 79q53 33 90 33q40 0 40 -39q0 -54 -54 -132q-21 -28 -38 -44q66 0 122 74q5 5 5 -4q0 -8 -4 -13q-58 -81 -134 -70q-56 -52 -126 -52q-41 0 -41 35zM58 29q4 -16 19 -14t30 10.5t25 18.5q31 33 57 76q47 78 42 128q-7 20 -32.5 10.5 t-42.5 -27.5q-34 -35 -57 -76q-51 -85 -41 -126zM171 444q9 0 54 -39q41 -36 77 -63l1 -7q-12 2 -69 35.5t-62 42.5q-3 3 -3.5 17t2.5 14z" />
<glyph unicode="&#xf3;" horiz-adv-x="265" d="M9 33q0 57 55 133q35 50 85 79q53 33 90 33q40 0 40 -39q0 -54 -54 -132q-21 -28 -38 -44q66 0 122 74q5 5 5 -4q0 -8 -4 -13q-58 -81 -134 -70q-56 -52 -126 -52q-41 0 -41 35zM58 29q4 -16 19 -14t30 10.5t25 18.5q31 33 57 76q47 78 42 128q-7 20 -32.5 10.5 t-42.5 -27.5q-34 -35 -57 -76q-51 -85 -41 -126zM245 335q-1 0 1 7q36 27 77 63q45 39 54 39q3 0 2.5 -14t-3.5 -17q-5 -9 -62 -42.5t-69 -35.5z" />
<glyph unicode="&#xf4;" horiz-adv-x="265" d="M9 33q0 57 55 133q35 50 85 79q53 33 90 33q40 0 40 -39q0 -54 -54 -132q-21 -28 -38 -44q66 0 122 74q5 5 5 -4q0 -8 -4 -13q-58 -81 -134 -70q-56 -52 -126 -52q-41 0 -41 35zM58 29q4 -16 19 -14t30 10.5t25 18.5q31 33 57 76q47 78 42 128q-7 20 -32.5 10.5 t-42.5 -27.5q-34 -35 -57 -76q-51 -85 -41 -126zM158 342q73 49 113 84h12q24 -40 68 -70q13 -8 18 -8v-3q-6 -1 -21 -9q-10 -5 -42 22q-14 12 -39 42q0 3 -6 0q-11 -10 -43 -31.5t-46 -26.5q-5 -2 -14 0z" />
<glyph unicode="&#xf5;" horiz-adv-x="265" d="M9 33q0 57 55 133q35 50 85 79q53 33 90 33q40 0 40 -39q0 -54 -54 -132q-21 -28 -38 -44q66 0 122 74q5 5 5 -4q0 -8 -4 -13q-58 -81 -134 -70q-56 -52 -126 -52q-41 0 -41 35zM58 29q4 -16 19 -14t30 10.5t25 18.5q31 33 57 76q47 78 42 128q-7 20 -32.5 10.5 t-42.5 -27.5q-34 -35 -57 -76q-51 -85 -41 -126zM178 358q5 16 20 29.5t31 13.5t41 -10t46 -12q23 -3 41 22h10q-6 -21 -19.5 -35.5t-26.5 -14.5q-21 0 -52.5 12.5t-48.5 12.5q-22 0 -30 -18h-12z" />
<glyph unicode="&#xf6;" horiz-adv-x="265" d="M9 33q0 57 55 133q35 50 85 79q53 33 90 33q40 0 40 -39q0 -54 -54 -132q-21 -28 -38 -44q66 0 122 74q5 5 5 -4q0 -8 -4 -13q-58 -81 -134 -70q-56 -52 -126 -52q-41 0 -41 35zM58 29q4 -16 19 -14t30 10.5t25 18.5q31 33 57 76q47 78 42 128q-7 20 -32.5 10.5 t-42.5 -27.5q-34 -35 -57 -76q-51 -85 -41 -126zM186 391q-2 3 26 20l13 6q23 -14 33 -12q8 2 8 -3q-1 -4 -6 -10q-29 -24 -38 -23q-20 1 -36 22zM302 391q0 1 1.5 2.5t5 4t7.5 5.5t8 5.5t7.5 4.5t6 3t3.5 1q23 -14 33 -12q8 2 8 -3q-1 -4 -6 -10q-29 -24 -38 -23 q-20 1 -36 22z" />
<glyph unicode="&#xf7;" horiz-adv-x="280" d="M13 140q-7 -1 13 19q13 14 19 13q10 -2 126 -5q82 0 163 3q6 0 -13 -19q-13 -13 -19 -12q-120 5 -134 5q-111 0 -155 -4zM105 37q-1 1 7.5 8t19 13t11.5 6q23 -14 33 -12q8 1 9 -2.5t-7 -10.5q-26 -24 -37 -24q-17 1 -36 22zM177 287q-1 1 7.5 8t19 13t11.5 6 q23 -14 33 -12q9 2 9 -3q-1 -4 -7 -10q-29 -24 -38 -23q-16 0 -35 21z" />
<glyph unicode="&#xf8;" horiz-adv-x="265" d="M9 33q0 57 55 133q35 50 85 79q34 21 69 30l20 29q3 4 25 1l3 -1q-8 -9 -19 -27q32 -4 32 -38q0 -54 -54 -132q-21 -28 -38 -44q66 0 122 74q5 5 5 -4q0 -8 -4 -13q-58 -81 -134 -70q-51 -46 -111 -51l-13 -22q-2 -6 -14 -3l-3 3l12 21q-38 2 -38 35zM58 29q0 -4 3 -7 q85 145 148 240q-31 -7 -53 -31q-34 -35 -57 -76q-51 -85 -41 -126zM75 15q27 -1 57 29q31 33 57 76q47 78 42 128l-1 2v2q-77 -112 -155 -237z" />
<glyph unicode="&#xf9;" horiz-adv-x="393" d="M37 128q39 53 72 90q1 1 10.5 11.5t12 13.5t11 10.5t13.5 10.5t13.5 6.5t16.5 4.5q30 5 34 -9.5t-12 -37.5q-21 -32 -55.5 -99.5t-34.5 -88.5q0 -14 14 -14q19 0 60 39q63 60 130 188q9 16 13 16h13.5t26 2t23.5 7q4 2 5 -3q0 -8 -13 -12q-30 -9 -72 -100t-34 -123 q4 -14 14 -14q18 0 59 32t67 64q5 6 12.5 15.5t8.5 10.5q3 -6 3 -8q-2 -11 -14 -25q-88 -118 -165 -118q-35 0 -35 27q0 18 13 55.5t24 58.5q-98 -141 -181 -141q-24 0 -24 19q0 24 39 102q9 18 24 49t18 36q16 30 -1 22q-9 -5 -24 -18q-41 -38 -83 -95q-6 -9 -7 0.5t5 15.5 zM208 444q9 0 54 -39q41 -36 77 -63l1 -7q-12 2 -69 35.5t-62 42.5q-3 3 -3.5 17t2.5 14z" />
<glyph unicode="&#xfa;" horiz-adv-x="393" d="M37 128q39 53 72 90q1 1 10.5 11.5t12 13.5t11 10.5t13.5 10.5t13.5 6.5t16.5 4.5q30 5 34 -9.5t-12 -37.5q-21 -32 -55.5 -99.5t-34.5 -88.5q0 -14 14 -14q19 0 60 39q63 60 130 188q9 16 13 16h13.5t26 2t23.5 7q4 2 5 -3q0 -8 -13 -12q-30 -9 -72 -100t-34 -123 q4 -14 14 -14q18 0 59 32t67 64q5 6 12.5 15.5t8.5 10.5q3 -6 3 -8q-2 -11 -14 -25q-88 -118 -165 -118q-35 0 -35 27q0 18 13 55.5t24 58.5q-98 -141 -181 -141q-24 0 -24 19q0 24 39 102q9 18 24 49t18 36q16 30 -1 22q-9 -5 -24 -18q-41 -38 -83 -95q-6 -9 -7 0.5t5 15.5 zM290 335q-1 0 1 7q36 27 77 63q45 39 54 39q3 0 2.5 -14t-3.5 -17q-5 -9 -62 -42.5t-69 -35.5z" />
<glyph unicode="&#xfb;" horiz-adv-x="393" d="M37 128q39 53 72 90q1 1 10.5 11.5t12 13.5t11 10.5t13.5 10.5t13.5 6.5t16.5 4.5q30 5 34 -9.5t-12 -37.5q-21 -32 -55.5 -99.5t-34.5 -88.5q0 -14 14 -14q19 0 60 39q63 60 130 188q9 16 13 16h13.5t26 2t23.5 7q4 2 5 -3q0 -8 -13 -12q-30 -9 -72 -100t-34 -123 q4 -14 14 -14q18 0 59 32t67 64q5 6 12.5 15.5t8.5 10.5q3 -6 3 -8q-2 -11 -14 -25q-88 -118 -165 -118q-35 0 -35 27q0 18 13 55.5t24 58.5q-98 -141 -181 -141q-24 0 -24 19q0 24 39 102q9 18 24 49t18 36q16 30 -1 22q-9 -5 -24 -18q-41 -38 -83 -95q-6 -9 -7 0.5t5 15.5 zM212 342q73 49 113 84h12q24 -40 68 -70q13 -8 18 -8v-3q-6 -1 -21 -9q-10 -5 -42 22q-14 12 -39 42q0 3 -6 0q-11 -10 -43 -31.5t-46 -26.5q-5 -2 -14 0z" />
<glyph unicode="&#xfc;" horiz-adv-x="393" d="M37 128q39 53 72 90q1 1 10.5 11.5t12 13.5t11 10.5t13.5 10.5t13.5 6.5t16.5 4.5q30 5 34 -9.5t-12 -37.5q-21 -32 -55.5 -99.5t-34.5 -88.5q0 -14 14 -14q19 0 60 39q63 60 130 188q9 16 13 16h13.5t26 2t23.5 7q4 2 5 -3q0 -8 -13 -12q-30 -9 -72 -100t-34 -123 q4 -14 14 -14q18 0 59 32t67 64q5 6 12.5 15.5t8.5 10.5q3 -6 3 -8q-2 -11 -14 -25q-88 -118 -165 -118q-35 0 -35 27q0 18 13 55.5t24 58.5q-98 -141 -181 -141q-24 0 -24 19q0 24 39 102q9 18 24 49t18 36q16 30 -1 22q-9 -5 -24 -18q-41 -38 -83 -95q-6 -9 -7 0.5t5 15.5 zM216 391q-2 3 26 20l13 6q23 -14 33 -12q8 2 8 -3q-1 -4 -6 -10q-29 -24 -38 -23q-20 1 -36 22zM332 391q-1 1 2.5 4t9.5 7t11.5 7.5t10 6t5.5 1.5q23 -14 33 -12q8 2 8 -3q-1 -4 -6 -10q-29 -24 -38 -23q-20 1 -36 22z" />
<glyph unicode="&#xfd;" horiz-adv-x="344" d="M-205 -223v4.5v6v6t1 6l2 5t3.5 3.5t5.5 1q2 0 2 -2q0 -4 -1 -12t-1 -13q0 -45 28.5 -69.5t74.5 -24.5q35 0 73 15q85 37 144.5 117.5t109.5 196.5q24 59 51 139q-47 -64 -86 -102q-59 -57 -112 -57q-24 0 -24 19q0 24 39 102q9 18 24 49t18 36q16 30 -1 22 q-9 -5 -24 -18q-41 -38 -83 -95q-6 -9 -7 0.5t5 15.5q39 53 72 90q1 1 10.5 11.5t12 13.5t11 10.5t13.5 10.5t13.5 6.5t16.5 4.5q30 5 34 -9.5t-12 -37.5q-21 -32 -55.5 -99.5t-34.5 -88.5q0 -14 14 -14q19 0 60 39q51 49 96 127q32 53 40 57q43 22 50 23q32 8 32 -3 q0 -8 -9 -8q-21 0 -34 -19q-24 -34 -135 -299q-28 -66 -55 -113.5t-72 -94.5t-99 -70q-34 -15 -75 -15q-40 0 -74.5 18t-51.5 53q-10 21 -10 56zM295 335q-1 0 1 7q36 27 77 63q45 39 54 39q3 0 2.5 -14t-3.5 -17q-5 -9 -62 -42.5t-69 -35.5z" />
<glyph unicode="&#xfe;" horiz-adv-x="364" d="M-204 -315q31 36 97.5 159.5t106.5 210.5q94 203 158 311q92 157 177 216q20 16 74 16q23 0 23 -4q-1 -6 -33 -14q-47 -12 -108 -87t-107.5 -157t-82.5 -164q-1 -4 1 -4l10 10q11 11 28 26.5t36.5 31t41 26t37.5 10.5q17 0 17 -24v-9q-12 -83 -80.5 -165.5t-147.5 -82.5 q-12 0 -26 3q-3 -7 -19 -41.5t-25 -52.5l-26.5 -53t-30.5 -58.5t-30 -52t-32 -49.5q-12 -17 -44 -18q-21 -1 -19 8q0 4 4 8zM38 28q0 -20 22 -20q28 0 63 35q26 24 63 88t37 94q0 13 -9 13q-15 0 -49 -32t-55 -57q-72 -82 -72 -121z" />
<glyph unicode="&#xff;" horiz-adv-x="344" d="M-205 -223v4.5v6v6t1 6l2 5t3.5 3.5t5.5 1q2 0 2 -2q0 -4 -1 -12t-1 -13q0 -45 28.5 -69.5t74.5 -24.5q35 0 73 15q85 37 144.5 117.5t109.5 196.5q24 59 51 139q-47 -64 -86 -102q-59 -57 -112 -57q-24 0 -24 19q0 24 39 102q9 18 24 49t18 36q16 30 -1 22 q-9 -5 -24 -18q-41 -38 -83 -95q-6 -9 -7 0.5t5 15.5q39 53 72 90q1 1 10.5 11.5t12 13.5t11 10.5t13.5 10.5t13.5 6.5t16.5 4.5q30 5 34 -9.5t-12 -37.5q-21 -32 -55.5 -99.5t-34.5 -88.5q0 -14 14 -14q19 0 60 39q51 49 96 127q32 53 40 57q43 22 50 23q32 8 32 -3 q0 -8 -9 -8q-21 0 -34 -19q-24 -34 -135 -299q-28 -66 -55 -113.5t-72 -94.5t-99 -70q-34 -15 -75 -15q-40 0 -74.5 18t-51.5 53q-10 21 -10 56zM220 391q-2 3 26 20q11 7 13 6q23 -14 33 -12q8 2 8 -3q-1 -4 -6 -10q-29 -24 -38 -23q-20 1 -36 22zM336 391q-2 3 26 20l13 6 q23 -14 33 -12q8 2 8 -3q-1 -4 -6 -10q-29 -24 -38 -23q-20 1 -36 22z" />
<glyph unicode="&#x152;" horiz-adv-x="910" d="M7 146q0 43 16 95t50.5 107.5t81.5 101t116 75t147 29.5q200 0 226 -117q17 30 53 90q-1 0 -23 -0.5t-35 -2.5q-16 -2 -21 8q-5 9 11 11q4 1 11 1q42 -1 146 2t146 -1q25 -1 36 -10.5t8.5 -24t-9 -30t-15.5 -31.5q-4 -7 -6 -10q-7 -13 -17 -12q-4 0 -3 6q19 79 -26 93 q-22 7 -107 3q-40 -3 -54 -21q-31 -44 -122 -201q-4 -11 8 -11q15 0 69.5 -1t77.5 0q59 5 75 13q9 6 8 -2q-1 -16 -22 -31q-13 -10 -26 -10q-32 0 -93.5 2.5t-108.5 0.5q-10 -1 -14 -8q-5 -10 -16.5 -31.5t-19.5 -36.5q-49 -95 -49 -129q0 -53 100 -55q209 0 307 125 q4 6 7 -3q1 -6 -1 -9q-4 -5 -23 -29.5t-26 -32t-21.5 -23t-25.5 -23t-22 -10.5q-36 -11 -123.5 -14t-178.5 6q-39 4 -57 13t-17 29q-92 -49 -193 -49q-225 0 -225 158zM60 137q0 -134 164 -134q123 0 225 94q93 165 135 237q7 32 7 71q0 134 -171 134q-85 0 -170.5 -68 t-137.5 -162t-52 -172z" />
<glyph unicode="&#x153;" horiz-adv-x="416" d="M9 33q0 57 55 133q35 50 85 79q53 33 90 33q40 0 40 -39q0 -6 -2 -20q62 58 117 58q53 0 45 -55q-5 -35 -36.5 -55.5t-78.5 -35.5q-40 -12 -73 -12q-8 -21 -11.5 -38t-3.5 -33.5t8.5 -24t25.5 -10t46 8.5q39 13 81 50t69 72q7 -7 -4 -23q-37 -51 -92 -90t-112 -39 q-43 0 -59.5 17.5t-13.5 47.5q-61 -59 -135 -59q-41 0 -41 35zM58 29q4 -16 19 -14t30 10.5t25 18.5q31 33 57 76q47 78 42 128q-7 20 -32.5 10.5t-42.5 -27.5q-34 -35 -57 -76q-51 -85 -41 -126zM259 139q34 -2 62 7q57 17 74 64q12 34 -6 47q-5 3 -11 3q-65 -1 -119 -121z " />
<glyph unicode="&#x178;" horiz-adv-x="452" d="M8 89q0 15 5 14t5 -9q0 -45 23 -70t60 -25q102 0 210 155q-12 -7 -20 -7q-5 0 -8 1.5t-2 6.5q0 1 1 3t2 4.5t1 3.5l11 34q13 49 20 103.5t1 119t-34 96.5h-24q-22 0 -43 -2t-51 -8.5t-47 -24t-15 -42.5q2 -17 12 -38l-10 -8q-39 68 -40 75q-3 36 17 54q13 11 40.5 16 t51 4.5t56.5 -2t41 -1.5q71 1 160 1l-21 -26q-35 0 -109 2q41 -27 54 -90t7 -119t-21 -108q7 10 75.5 113t110.5 151q26 30 42.5 47t49.5 38.5t60 20.5q27 -2 39 -27q4 -8 5 -17t-1.5 -18t-4 -14t-5.5 -14l-4 -8q-2 -5 -6 -4q-3 1 -2 4q6 25 -3.5 45.5t-31.5 21.5 q-48 1 -126 -89q-49 -57 -92.5 -120t-64.5 -98t-74 -127q-38 -67 -83.5 -106.5t-107.5 -39.5q-32 0 -59.5 18t-41.5 53q-8 19 -8 57zM387 672q0 1 1.5 2.5t5 4t7.5 5.5t8 5.5t7.5 4.5t6 3t3.5 1q23 -14 33 -12q8 2 8 -3q-1 -4 -6 -10q-29 -24 -38 -23q-20 1 -36 22zM503 672 q-1 1 2.5 4t9.5 7t11.5 7.5t10 6t5.5 1.5q23 -14 33 -12q8 2 8 -3q-1 -4 -6 -10q-29 -24 -38 -23q-20 1 -36 22z" />
<glyph unicode="&#x2c6;" horiz-adv-x="282" d="M61 342q73 49 113 84h12q24 -40 68 -70q13 -8 18 -8v-3q-6 -1 -21 -9q-10 -5 -42 22q-14 12 -39 42q0 3 -6 0q-11 -10 -43 -31.5t-46 -26.5q-5 -2 -14 0z" />
<glyph unicode="&#x2dc;" horiz-adv-x="277" d="M77 358q5 16 20 29.5t31 13.5t41 -10t46 -12q23 -3 41 22h10q-6 -21 -19.5 -35.5t-26.5 -14.5q-21 0 -52.5 12.5t-48.5 12.5q-22 0 -30 -18h-12z" />
<glyph unicode="&#x2000;" horiz-adv-x="363" />
<glyph unicode="&#x2001;" horiz-adv-x="727" />
<glyph unicode="&#x2002;" horiz-adv-x="363" />
<glyph unicode="&#x2003;" horiz-adv-x="727" />
<glyph unicode="&#x2004;" horiz-adv-x="242" />
<glyph unicode="&#x2005;" horiz-adv-x="181" />
<glyph unicode="&#x2006;" horiz-adv-x="121" />
<glyph unicode="&#x2007;" horiz-adv-x="121" />
<glyph unicode="&#x2008;" horiz-adv-x="90" />
<glyph unicode="&#x2009;" horiz-adv-x="145" />
<glyph unicode="&#x200a;" horiz-adv-x="40" />
<glyph unicode="&#x2010;" horiz-adv-x="249" d="M76 145q-5 -1 10 17q8 11 12 10q9 -2 65 -4q25 0 79 3q2 0 -2 -7t-10.5 -13.5t-9.5 -6.5q-5 0 -15.5 1.5t-21 2t-22.5 0.5q-55 0 -85 -3z" />
<glyph unicode="&#x2011;" horiz-adv-x="249" d="M76 145q-5 -1 10 17q8 11 12 10q9 -2 65 -4q25 0 79 3q2 0 -2 -7t-10.5 -13.5t-9.5 -6.5q-5 0 -15.5 1.5t-21 2t-22.5 0.5q-55 0 -85 -3z" />
<glyph unicode="&#x2012;" horiz-adv-x="249" d="M76 145q-5 -1 10 17q8 11 12 10q9 -2 65 -4q25 0 79 3q2 0 -2 -7t-10.5 -13.5t-9.5 -6.5q-5 0 -15.5 1.5t-21 2t-22.5 0.5q-55 0 -85 -3z" />
<glyph unicode="&#x2013;" horiz-adv-x="335" d="M80 145q-6 -1 10 16q11 12 16 11q4 -1 100 -4q64 0 130 3q2 0 -3 -7t-12 -13.5t-11 -6.5q-76 4 -106 4q-89 0 -124 -3z" />
<glyph unicode="&#x2014;" horiz-adv-x="512" d="M75 143q-6 -1 10 16q11 12 16 11q23 -4 195 -4q157 0 223 3q5 0 -10 -16q-11 -12 -16 -11q-10 1 -97.5 2.5t-101.5 1.5q-166 0 -219 -3z" />
<glyph unicode="&#x2018;" horiz-adv-x="168" d="M74 492q17 76 96 121q-1 -2 -1 -5t-0.5 -4l-1.5 -3t-2.5 -3.5t-4.5 -3.5q-37 -32 -46 -73q-2 -12 5 -22.5t20 -12.5l-4 -11q-8 -1 -27 -14q-14 -11 -15 -11q-28 4 -19 42z" />
<glyph unicode="&#x2019;" horiz-adv-x="168" d="M170 450q1 2 1.5 5.5t1 5t2 3.5t5.5 5q37 32 46 73q1 8 -1.5 15.5t-9 13t-14.5 6.5l4 11q10 3 27 14l4.5 4.5t6 5t4.5 1.5q28 -4 19 -42t-35 -70t-61 -51z" />
<glyph unicode="&#x201a;" horiz-adv-x="195" d="M88 -54q16 42 37 134q-1 12 39 30q29 13 28 5q-11 -33 -80 -163q-10 -18 -21 -17q-7 1 -3 11z" />
<glyph unicode="&#x201c;" horiz-adv-x="295" d="M98 491q16 78 96 121q-3 -13 -10 -19q-38 -32 -46 -73q-2 -12 5 -22.5t20 -12.5l-4 -11q-13 -2 -27 -13q-2 -2 -5.5 -5t-5.5 -5t-4 -2q-28 4 -19 42zM201 491q17 76 96 121q-3 -13 -10 -19q-38 -32 -46 -73q-2 -12 5 -22.5t20 -12.5l-4 -11q-10 -1 -27 -13l-15 -12 q-28 4 -19 42z" />
<glyph unicode="&#x201d;" horiz-adv-x="168" d="M170 450q1 2 1.5 5.5t1 5t2 3.5t5.5 5q37 32 46 73q1 8 -1.5 15.5t-9 13t-14.5 6.5l4 11q10 3 27 14l4.5 4.5t6 5t4.5 1.5q28 -4 19 -42t-35 -70t-61 -51zM273 450q1 2 1.5 5.5t1 5t2 3.5t5.5 5q37 32 46 73q3 13 -4.5 23t-20.5 12l4 11q15 4 27 14q2 2 5.5 5t6 4.5 t3.5 1.5q28 -4 19 -42q-8 -38 -34.5 -70t-61.5 -51z" />
<glyph unicode="&#x201e;" horiz-adv-x="316" d="M88 -54q16 42 37 134q-1 12 39 30q29 13 28 5q-11 -33 -80 -163q-10 -18 -21 -17q-7 1 -3 11zM189 -54q16 42 37 134q-1 12 39 30q29 13 28 5q-11 -33 -80 -163q-10 -18 -21 -17q-7 1 -3 11z" />
<glyph unicode="&#x2022;" horiz-adv-x="475" d="M49 284q13 78 83 133t156 55q85 0 135.5 -55t37.5 -133q-14 -77 -83.5 -132t-154.5 -55t-136.5 55t-37.5 132z" />
<glyph unicode="&#x2026;" horiz-adv-x="460" d="M33 16q-2 3 26 20q11 7 13 6q23 -14 33 -12q8 2 8 -3q1 -3 -6 -10q-29 -24 -38 -23q-20 1 -36 22zM196 16q-1 1 2.5 4t9.5 7t11.5 7.5t10 6t5.5 1.5q23 -14 33 -12q8 2 9 -3q0 -3 -7 -10q-29 -24 -38 -23q-20 1 -36 22zM371 16q-1 1 8 8t19 13t12 5q23 -14 32 -12t9 -3 q0 -3 -7 -10q-26 -24 -37 -23q-19 1 -36 22z" />
<glyph unicode="&#x202f;" horiz-adv-x="145" />
<glyph unicode="&#x2039;" horiz-adv-x="293" d="M73 156l4 19q67 65 150 171q0 -10 -4 -26q-11 -22 -50 -70.5t-57 -65.5q-4 -5 0 -9q33 -39 52 -76q33 -60 24 -76q-17 -25 -19 -34h-4q1 14 -8 34q-36 84 -88 133z" />
<glyph unicode="&#x203a;" horiz-adv-x="293" d="M62 23q-2 7 4 19.5t12.5 21.5t16.5 22l10 13q28 38 71 76q4 4 0 9q-16 22 -41.5 68.5t-30.5 67.5q-2 12 2 26q57 -109 109 -171l-2 -19q-68 -53 -119 -133q-15 -19 -17 -34h-4q0 17 -11 34z" />
<glyph unicode="&#x205f;" horiz-adv-x="181" />
<glyph unicode="&#x20ac;" horiz-adv-x="494" d="M21 161q-6 0 12 19q11 11 16 10q9 -1 57 -3q6 26 18 55l-46 -3q-5 0 11 18q12 12 17 11q1 0 31 -2q34 61 96 108q34 26 84 43t93 17q38 0 68 -13q38 -19 31 -47q-1 -7 -13.5 -27t-15.5 -31q-4 -4 -14 -4q10 17 11 42.5t-9 41.5q-13 22 -52.5 22.5t-61.5 -11.5 q-44 -16 -78 -46q-51 -45 -82 -96h63q25 0 79.5 1t63.5 1q6 0 -12 -18q-11 -11 -16 -11q-20 2 -118 5q-43 0 -72 -1q-14 -27 -22 -55l40 -1q72 0 144 3q6 0 -12 -19q-11 -11 -16 -10q-42 4 -118 4h-43q-8 -50 10.5 -87t59.5 -50q66 -20 138.5 19t115.5 103q5 8 9 0 q2 -5 0 -9q-48 -77 -127 -116t-163 -19q-53 13 -78 56.5t-18 102.5z" />
<glyph unicode="&#x2122;" horiz-adv-x="848" d="M252 530q-9 0 -9 10q-1 15 23 15h256q10 0 4.5 -9t-21.5 -11q-12 -2 -42 -3t-49.5 -3.5t-22.5 -8.5q-17 -35 -47.5 -127.5t-31.5 -96.5q-1 -3 -13 -5.5t-21.5 -2.5t-10.5 3q22 51 78 194q13 26 13 46h-10.5h-10h-5.5q-4 1 -40 0t-40 -1zM461 288q4 6 37 91t38 104 q6 17 1 65q-1 7 17 7t19 -3q0 -2 10.5 -64.5t23 -105t29.5 -50.5q11 4 24.5 18.5t32 41.5t28.5 42t30 49l15 29q16 30 21 38q3 3 9.5 1.5t12.5 -6t5 -7.5q-12 -26 -21 -102.5t-11 -127.5q-1 -7 -12 -11t-20 -4q-10 0 -10 8q0 5 1 7q7 28 16 79t13 71q-2 -3 -19.5 -26.5 t-30.5 -39.5t-31.5 -36.5t-34 -31.5t-27.5 -11q-14 0 -25 10.5t-20 31.5t-13.5 35t-10.5 40t-7 28q-10 -21 -19.5 -51t-17.5 -63t-12 -45q-2 -7 -27 -14q-15 -3 -14 3z" />
<glyph unicode="&#xe000;" horiz-adv-x="265" d="M0 0v265h265v-265h-265z" />
<glyph unicode="&#xfb01;" horiz-adv-x="373" d="M-299 -176q-1 4 -1.5 9t0.5 11.5t2 11t4 13.5t4 12.5t5.5 14.5t5.5 14q2 5 5.5 6t5.5 -2t0 -8q-13 -30 -2 -55.5t35.5 -37t56.5 -13.5t61 14q71 37 130 147q21 39 40 87t40.5 107t34.5 92h-23q-1 0 -22 -3l-2 1q2 10 19 19t28 9h12q37 90 102 199q85 139 203 139 q13 0 24 -8t10 -22l-3 -36q0 -3 -5 -3q-2 0 -2 1q-4 24 -30 33.5t-57 -1.5q-58 -19 -108 -106q-12 -21 -88 -196q15 0 55.5 -0.5t56.5 0t39 3t38 7.5l14 5q7 3 8 0t-4 -8q-11 -13 -82 -152q-35 -63 -35 -88q0 -14 14 -14q32 0 115 96l21 25q9 -9 -13 -34q-31 -37 -48.5 -56 t-51 -39.5t-65.5 -20.5q-24 0 -24 19q0 9 5 24.5t10 26.5t13.5 29.5t10.5 21.5l51 108q7 15 9 30q-52 -12 -148 -9q-59 -148 -84 -201q-17 -38 -36 -72t-47.5 -72t-58 -65t-68.5 -45t-79 -18q-83 0 -101 50zM401 391q-6 9 -2.5 20.5t14.5 18.5q26 17 41 -3q6 -9 2.5 -20.5 t-14.5 -18.5q-26 -17 -41 3z" />
<glyph unicode="&#xfb02;" horiz-adv-x="394" d="M-299 -176q-1 4 -1.5 9t0.5 11.5t2 11t4 13.5t4 12.5t5.5 14.5t5.5 14q2 5 5.5 6t5.5 -2t0 -8q-13 -30 -2 -55.5t35.5 -37t56.5 -13.5t61 14q71 37 130 147q21 39 40 87t40.5 107t34.5 92h-23q-1 0 -22 -3l-2 1q2 10 19 19t28 9h12q37 90 102 199q85 139 203 139 q13 0 24 -8t10 -22l-1 -16q9 4 41.5 26t52.5 22q20 -1 24.5 -22t-2.5 -35q-9 -27 -24 -56.5t-27 -50t-35 -52.5t-32.5 -44.5t-36 -45.5t-29.5 -37q-84 -107 -136 -155q-10 -31 -11 -39q-2 -27 9.5 -41t40.5 -9q34 6 112 96l21 26q9 -9 -11 -33q-92 -122 -160 -117 q-75 5 -31 121q17 46 56 121q11 22 39 77t45.5 89.5t41.5 77t41 67.5q-7 20 -32 27t-53 -3q-58 -19 -108 -106q-12 -21 -88 -196h72q20 0 29 2q0 -7 -15 -13q-31 -17 -97 -15q-59 -148 -84 -201q-17 -38 -36 -72t-47.5 -72t-58 -65t-68.5 -45t-79 -18q-83 0 -101 50z M285 145q49 46 116 138l24 32t28 37.5t25.5 36t27.5 42t22 39t21.5 44.5t14.5 42q7 25 -0.5 30.5t-32.5 -17.5q-22 -23 -59 -82.5t-66.5 -114t-69.5 -131t-51 -96.5z" />
<glyph unicode="&#xfb03;" horiz-adv-x="556" d="M-299 -176q-1 4 -1.5 9t0.5 11.5t2 11t4 13.5t4 12.5t5.5 14.5t5.5 14q2 5 5.5 6t5.5 -2t0 -8q-13 -30 -2 -55.5t35.5 -37t56.5 -13.5t61 14q71 37 130 147q21 39 40 87t40.5 107t34.5 92q-24 0 -45 -3l-2 1q2 10 19 19t28 9h12q37 90 102 199q80 132 213 132q13 0 24 -8 t10 -22l-2 -22q62 59 140 59q13 0 24 -8t10 -22l-3 -36q0 -3 -5 -3q-2 0 -2 1q-4 24 -30 33.5t-57 -1.5q-58 -19 -108 -106q-17 -30 -90 -198q62 -1 130 4.5t76 12.5q8 8 9 0q0 -4 -3 -8q-6 -7 -83 -152q-34 -64 -34 -88q0 -14 14 -14q31 0 112 96l22 25q2 -2 2 -7 q-2 -9 -13 -25q-28 -35 -47.5 -56t-53 -41.5t-65.5 -20.5q-23 0 -23 19q0 9 5 24.5t10 26.5t13.5 29.5t10.5 21.5q6 13 30 65.5t28 60.5q1 2 -1.5 3t-11.5 2t-25 1t-44.5 -1t-67.5 -3q-57 -144 -83 -200q-17 -38 -36 -72t-47.5 -72t-58 -65t-68.5 -45t-79 -18q-59 0 -86 27 q-46 -27 -96 -27q-83 0 -101 50zM-67 -177q25 -20 61 -23t71 14q71 37 130 147q21 39 40 87t40.5 107t34.5 92h-134q-51 -130 -85 -201q-72 -156 -158 -223zM186 273h136q37 90 102 199q26 42 54 72q-4 25 -36.5 35.5t-64.5 -3.5q-28 -12 -52 -35.5t-51 -71.5 q-18 -33 -88 -196zM586 391q-6 9 -2.5 20.5t13.5 18.5q26 17 41 -3q6 -9 2.5 -20.5t-14.5 -18.5t-22.5 -6t-17.5 9z" />
<glyph unicode="&#xfb04;" horiz-adv-x="578" d="M-299 -176q-1 4 -1.5 9t0.5 11.5t2 11t4 13.5t4 12.5t5.5 14.5t5.5 14q2 5 5.5 6t5.5 -2t0 -8q-13 -30 -2 -55.5t35.5 -37t56.5 -13.5t61 14q42 22 72 58.5t58 88.5q21 39 40 87t40.5 107t34.5 92h-23q-1 0 -22 -3l-2 1q2 10 19 19t28 9h12q37 90 102 199q85 139 203 139 q13 0 24 -8t10 -22l-3 -36q0 -3 -5 -3q-2 0 -2 1q-4 24 -30 33.5t-57 -1.5q-58 -19 -108 -106q-13 -23 -27 -54t-35 -80t-26 -62h135l22 48q37 77 81 151q85 139 203 139q13 0 24 -8t10 -22l-2 -18l2 2q11 4 43.5 26t52.5 22q20 -1 24 -22t-3 -35q-8 -23 -18.5 -46.5 t-25 -47.5t-26.5 -42.5t-30.5 -43t-28.5 -37.5t-29.5 -37t-25.5 -32q-84 -107 -135 -155q-10 -25 -12 -39q-2 -27 9.5 -41t40.5 -9q38 7 113 96l21 26q8 -8 -13 -35q-1 -2 -12 -15t-16 -19t-17.5 -19t-20.5 -20t-21 -17t-23.5 -14.5t-23.5 -8t-25 -2.5q-78 4 -26 131 q31 72 54 115q8 16 30 59.5t35.5 70t32.5 63t35 64.5t29 48q-7 21 -32 28.5t-53 -2.5q-58 -19 -108 -106q-12 -21 -88 -196h72q20 0 29 2q0 -7 -15 -13q-31 -17 -97 -15q-59 -148 -84 -201q-17 -38 -36 -72t-47.5 -72t-58 -65t-68.5 -45t-79 -18q-60 0 -86 27 q-48 -27 -96 -27q-83 0 -101 50zM-67 -177q24 -19 61 -22t71 13q29 15 54.5 40t41.5 49t34 58q19 36 35.5 75.5t37.5 98.5t29 80l12 31q-25 0 -78.5 0.5t-55.5 0.5q-2 -6 -13.5 -34.5t-15 -37t-12.5 -31.5t-14.5 -35.5t-13.5 -30t-15 -32.5q-72 -156 -158 -223zM469 145 q55 52 116 138l24 32t28 38t25.5 36t27.5 41.5t22 39t22 44.5t15 42q7 25 -1 30.5t-33 -17.5q-22 -23 -59 -82.5t-66.5 -114t-69.5 -131t-51 -96.5z" />
</font>
</defs>
</svg>
