<?xml version="1.0" standalone="no"?>
<!DOCTYPE svg PUBLIC "-//W3C//DTD SVG 1.1//EN" "http://www.w3.org/Graphics/SVG/1.1/DTD/svg11.dtd" >
<svg xmlns="http://www.w3.org/2000/svg">
<metadata></metadata>
<defs>
<font id="juice_regularregular" horiz-adv-x="1014" >
<font-face units-per-em="2048" ascent="1638" descent="-410" />
<missing-glyph horiz-adv-x="508" />
<glyph horiz-adv-x="2048" />
<glyph horiz-adv-x="2048" />
<glyph unicode="&#xd;" horiz-adv-x="508" />
<glyph unicode=" "  horiz-adv-x="508" />
<glyph unicode="&#x09;" horiz-adv-x="508" />
<glyph unicode="&#xa0;" horiz-adv-x="508" />
<glyph unicode="!" horiz-adv-x="591" d="M214 1797h20q116 0 154 -109l4 -45v-1214l-8 -8h-36q-120 0 -142 150v1218zM214 300h28q150 -16 150 -142v-150l-8 -8h-28q-132 0 -150 154v137z" />
<glyph unicode="&#x22;" horiz-adv-x="873" d="M210 1799q176 0 176 -152v-440l-8 -8h-32q-106 0 -144 116v476zM498 1799h4q176 0 176 -168v-424l-8 -8h-28q-152 0 -152 180v412z" />
<glyph unicode="#" horiz-adv-x="1999" d="M752 1801q101 0 115 -142v-8q0 -43 -84 -412h337l123 562h49q66 0 102 -97l4 -49v-9l-79 -407h243q239 0 239 -186l-9 -9h-518l-57 -283h376q208 0 208 -186l-9 -9h-619l-120 -562l-4 -4h-9q-146 0 -146 159l84 407h-336q-107 -512 -124 -566h-9q-146 0 -146 159 q9 75 84 407h-257q-137 0 -186 111l-4 40v35l9 9h478l57 283h-363q-181 22 -181 146v40l9 9h580l119 558l4 4h40zM743 1044l-57 -283h336v5l53 278h-332z" />
<glyph unicode="$" horiz-adv-x="1214" d="M524 1801h28q116 0 128 -131v-103h328l8 -7v-10q0 -145 -149 -145h-276q-175 0 -219 -202l-3 -35q0 -126 106 -163q16 -5 159 -10q77 -14 152 -50q134 -68 205 -268q21 -82 21 -135v-152q0 -281 -237 -374q-58 -22 -95 -22v-233l-7 -7h-32q-93 0 -120 103l-4 35v102h-304 l-7 7v32q0 88 110 120h265q272 0 272 301v35q0 246 -152 308q-71 42 -226 42q-137 32 -198 106q-71 92 -71 223v25q0 264 244 353l67 14v234z" />
<glyph unicode="%" horiz-adv-x="1610" d="M1004 1797q107 -53 107 -146q0 -58 -119 -274q-661 -1350 -681 -1377q-106 49 -106 158q0 43 94 226l697 1409l4 4h4zM210 1801h12q195 0 261 -150l8 -60v-328l-8 -8q-188 0 -269 138l-12 72v328zM826 544q209 0 273 -159l8 -71v-309l-8 -8h-8q-209 0 -269 163 q-8 33 -8 87v289q0 8 12 8z" />
<glyph unicode="&#x26;" horiz-adv-x="1302" d="M621 1797h501l8 -8v-12q0 -125 -97 -154q-16 -8 -45 -8h-282q-256 0 -307 -214l-8 -60v-291q0 -75 72 -85h178v182l4 4v4q132 0 174 -105l4 -36v-457l-8 -8h-16q-136 0 -158 133v97h-174q-76 -9 -76 -68v-230q0 -195 149 -267q56 -28 113 -28h469l8 -8v-8 q0 -170 -178 -170h-262q-356 0 -453 258q-32 76 -32 150v355q0 57 52 105q-52 51 -52 125v348q0 313 242 420q93 36 174 36z" />
<glyph unicode="'" horiz-adv-x="583" d="M209 1796h8q125 0 160 -92l8 -48v-452l-8 -8h-32q-125 0 -144 148v444z" />
<glyph unicode="(" horiz-adv-x="972" d="M611 1797h154l12 -12v-12q0 -135 -154 -162q-69 0 -170 -89q-61 -74 -61 -182v-891q0 -214 239 -267q67 0 125 -77q21 -36 21 -81v-16l-8 -8h-183q-242 0 -344 247q-36 92 -36 182v935q0 220 162 360q96 73 243 73z" />
<glyph unicode=")" horiz-adv-x="983" d="M213 1797h158q282 0 376 -275q29 -97 29 -194v-863q0 -321 -239 -437q-73 -28 -146 -28h-178l-8 8v41q0 79 109 125q132 24 191 77q84 69 84 251v801q0 224 -161 288l-158 48q-65 52 -65 118v32z" />
<glyph unicode="*" horiz-adv-x="1324" d="M581 1793h4q100 0 136 -68q28 -52 28 -104v-76l176 172q60 -50 60 -96v-32q0 -65 -108 -168l4 -4l4 4h44q145 0 188 -104l4 -28v-36l-8 -8h-236q108 -107 108 -168v-32q0 -49 -60 -96h-4l-172 168v-236l-8 -8h-28q-99 0 -132 120l-8 68v44l4 4v4l-4 4h-4l-168 -168h-4 q-60 45 -60 108v4q0 82 112 184h-76q-118 0 -164 96l-8 68v4l8 8h236q-108 107 -108 168v16q0 65 64 112l172 -168v236z" />
<glyph unicode="+" horiz-adv-x="1321" d="M582 1243h4q100 0 136 -68q28 -52 28 -104v-200h180q145 0 188 -104l4 -28v-36l-8 -8h-364v-364l-8 -8h-28q-99 0 -132 120l-8 68v184h-200q-118 0 -164 96l-8 68v4l8 8h364v364z" />
<glyph unicode="," horiz-adv-x="499" d="M179 153q144 -18 144 -116v-24q0 -151 -140 -188l-72 -8q-60 5 -60 24v24q6 16 60 32q28 39 28 112v100q0 44 40 44z" />
<glyph unicode="-" horiz-adv-x="1317" d="M210 870h756q113 0 148 -112v-60l-8 -8h-752q-105 0 -144 92l-8 56v24z" />
<glyph unicode="." horiz-adv-x="580" d="M249 184h92q48 -4 48 -40v-104q-5 -40 -40 -40h-104q-36 0 -40 48v92q7 44 44 44z" />
<glyph unicode="/" horiz-adv-x="1130" d="M838 1652q100 -53 100 -136v-8q0 -43 -140 -356q-484 -1147 -492 -1152q-104 52 -104 144q0 52 132 336l496 1172h8z" />
<glyph unicode="0" horiz-adv-x="1324" d="M637 1792h64q323 0 412 -308q12 -79 12 -132v-928q0 -286 -248 -396q-66 -28 -116 -28h-188q-150 0 -284 152q-84 116 -84 312v804q0 274 80 364q119 160 352 160zM393 1368v-920q0 -268 236 -268h68q190 0 232 168q12 57 12 156v808q0 203 -84 252q-71 44 -172 44h-40 q-252 0 -252 -240z" />
<glyph unicode="1" horiz-adv-x="1001" d="M213 1796h188q217 0 352 -212q44 -107 44 -232v-1344l-8 -8q-126 0 -168 92l-8 40v1232q0 181 -140 236q-44 12 -160 16q-108 36 -108 160v12z" />
<glyph unicode="2" horiz-adv-x="1317" d="M209 1796h500q241 0 364 -216q44 -104 44 -208q0 -372 -688 -1188h524q160 -18 160 -136v-36l-8 -8h-728l-36 -4q-140 20 -140 140v4q0 81 204 316q312 389 436 620q92 183 92 296q0 171 -140 224q-43 12 -72 12h-352q-168 0 -168 144v32z" />
<glyph unicode="3" horiz-adv-x="1324" d="M214 1792h488q280 0 388 -248q32 -79 32 -252v-268q0 -104 -52 -152v-8q40 0 52 -124v-300q0 -310 -268 -420q-84 -20 -136 -20h-372q-140 20 -140 136v36l8 8h488q161 0 220 160q16 54 16 132v224q0 88 -92 88h-184q-144 18 -144 144v28l8 8h304q108 0 108 104v276 q0 177 -128 240q-50 28 -176 28h-304q-82 0 -120 100l-4 32v40z" />
<glyph unicode="4" horiz-adv-x="1328" d="M214 1796h8q168 0 168 -156v-332l-4 -84q0 -123 100 -196q58 -40 196 -40h248l8 8v792l8 8h28q101 0 140 -96l8 -72v-1620l-8 -8q-127 0 -156 80q-20 30 -20 80v648h-288q-295 0 -404 228q-40 86 -40 176v576z" />
<glyph unicode="5" horiz-adv-x="1324" d="M370 1792h744l8 -8v-32q0 -98 -104 -136l-56 -8h-568v-624h264q270 0 364 -132q104 -134 104 -292v-116q0 -307 -256 -416q-92 -28 -156 -28h-500q-8 0 -8 12q0 112 76 148q39 20 84 20h312q180 0 240 136q24 59 24 132v84q0 197 -132 244q-57 24 -104 24h-332 q-168 0 -168 192v624q0 176 164 176z" />
<glyph unicode="6" horiz-adv-x="1321" d="M614 1792h500l8 -8v-4q0 -172 -168 -172h-344q-155 0 -208 -152q-12 -50 -12 -88v-380h312q186 0 304 -120q116 -124 116 -320v-52q0 -348 -204 -440q-103 -56 -236 -56h-68q-235 0 -356 212q-52 107 -52 212v984q0 295 324 376zM390 804v-396q0 -147 136 -212 q46 -16 140 -16q272 0 272 276v88q0 172 -124 236q-54 24 -124 24h-300z" />
<glyph unicode="7" horiz-adv-x="1298" d="M978 1796q148 -20 148 -148q0 -94 -592 -1332q-115 -258 -164 -268q-53 -48 -160 -48h-8l-8 8l728 1604h-532q-184 0 -184 180l4 4h768z" />
<glyph unicode="8" horiz-adv-x="1328" d="M613 1800l36 -4h32q294 0 404 -228q40 -97 40 -176v-192q0 -184 -144 -304v-4q144 -120 144 -316v-184q0 -283 -300 -376q-64 -16 -128 -16h-80q-277 0 -380 256q-32 99 -32 184v68q0 271 144 392q-144 134 -144 356v68q0 337 240 440q72 28 168 36zM397 1392v-88l-4 -80 q0 -139 128 -212q66 -24 124 -24h40q207 0 252 216l8 180q0 145 -144 208q-58 24 -164 24q-190 0 -236 -172zM397 592v-104l-4 -72q0 -109 88 -188q75 -48 152 -48h52q177 0 240 164q20 52 20 236q0 115 -108 188q-72 40 -196 40q-177 0 -232 -144q-12 -43 -12 -72z" />
<glyph unicode="9" horiz-adv-x="1321" d="M673 1792h4q309 0 412 -264q32 -85 32 -212v-888q0 -293 -220 -388q-93 -40 -176 -40h-512l-8 8v36q17 136 136 136h340q186 0 232 132q20 49 20 92v396h-276q-314 0 -420 248q-32 92 -32 156v148q0 305 248 404q91 36 220 36zM389 1364v-68l-4 -60q0 -185 172 -244 l132 -8h244l4 260v100q0 180 -120 244q-55 20 -108 20h-76q-107 0 -176 -64q-68 -66 -68 -180z" />
<glyph unicode=":" horiz-adv-x="583" d="M210 997h8q125 0 160 -96l8 -48v-148l-8 -8h-8q-137 0 -164 120l-4 40v132zM210 461h32q106 0 144 -112v-176l-8 -8h-24q-152 15 -152 152v136z" />
<glyph unicode=";" horiz-adv-x="602" d="M211 993h36q140 -18 140 -140v-148l-8 -8h-32q-98 0 -136 104l-8 56v128zM215 225h32q120 0 140 -108l4 -20q0 -143 -112 -188q-47 -16 -96 -16h-32l-4 4h-4q0 68 20 68q39 0 44 148v104z" />
<glyph unicode="&#x3c;" d="M656 1247q89 -49 89 -128v-4q0 -58 -85 -152q-269 -335 -269 -345q350 -429 350 -455l4 -35v-11q0 -66 -89 -117h-4l-447 548v151z" />
<glyph unicode="=" d="M213 977h744q136 0 164 -132v-36l-8 -8h-692q-184 0 -212 104l-4 20v44zM213 613h736q172 -16 172 -144v-24l-8 -8h-720q-125 0 -176 80l-12 44v44z" />
<glyph unicode="&#x3e;" horiz-adv-x="939" d="M295 1247h4l445 -546v-155q-413 -510 -449 -546q-89 58 -89 136q0 54 136 209l220 282q-343 422 -348 450l-8 42q0 72 89 128z" />
<glyph unicode="?" horiz-adv-x="1291" d="M677 1797q192 0 334 -159q82 -116 82 -327v-70q0 -336 -331 -436q-39 0 -39 -12v-385l-8 -7h-7q-119 0 -160 112l-4 43v245l-4 62q0 86 94 121q189 0 256 167q24 62 24 144v27q0 296 -327 296h-253q-97 0 -132 105v62l8 8h385zM556 288h39q113 0 132 -136v-144l-8 -8h-19 q-100 0 -136 82q-16 28 -16 62v136z" />
<glyph unicode="@" horiz-adv-x="1867" d="M602 1524h792q167 0 240 -180q20 -50 20 -180v-988q0 -176 -164 -176h-136q-90 0 -128 76l-4 12h-4q-118 -84 -232 -84h-504l-8 8v776q0 320 216 408q101 52 208 52h476l8 -8v-964q0 -92 64 -92h32l8 8v1008q0 140 -144 140h-700q-176 0 -244 -148q-16 -55 -16 -124 v-1056l-8 -8h-20q-121 0 -152 120v972q0 283 248 400q83 28 152 28zM662 808v-624h260q196 0 272 172q16 48 16 164v540l-8 8h-232q-225 0 -288 -152q-20 -53 -20 -108z" />
<glyph unicode="A" horiz-adv-x="1298" d="M214 1797h525q282 0 376 -299q16 -69 16 -178v-1312l-8 -8h-25q-120 0 -149 113q-8 16 -8 44v509h-545l-8 -8v-650q0 -8 -12 -8q-117 0 -158 85q-12 38 -12 68v1636zM388 1615v-759l8 -8h545v541q0 143 -109 198q-54 28 -133 28h-311z" />
<glyph unicode="B" horiz-adv-x="1317" d="M210 1801h495q260 0 385 -237q33 -87 33 -157v-245q0 -152 -141 -261q141 -88 141 -270v-189q0 -203 -109 -309q-123 -133 -297 -133h-507l-8 8v1785zM391 1620v-639h233q234 0 306 133l8 52v217q0 237 -282 237h-265zM387 800v-611l8 -8h277q197 0 258 153l8 52v197 q0 217 -294 217h-257z" />
<glyph unicode="C" horiz-adv-x="1298" d="M630 1797h340q100 0 141 -100q8 -18 8 -52v-20l-8 -8h-449q-276 0 -276 -236v-973q0 -150 124 -204q46 -20 116 -20h340q123 0 149 -120v-56l-8 -8h-493q-289 0 -392 272q-20 51 -20 136v993q0 222 196 344q98 52 232 52z" />
<glyph unicode="D" horiz-adv-x="1321" d="M213 1797h481q288 0 393 -237q37 -92 37 -192v-911q0 -329 -245 -425q-87 -32 -165 -32h-501l-8 8v1781zM390 1612v-1431h292q184 0 237 144q20 68 20 188v755q0 267 -104 312q-57 32 -157 32h-288z" />
<glyph unicode="E" horiz-adv-x="1269" d="M615 1801h342q114 0 157 -96l8 -69v-8l-8 -8h-427q-251 0 -281 -141q-16 -11 -20 -108v-378h474q141 -19 141 -141v-32l-8 -8h-607v-394q0 -203 201 -233l84 -4h302q145 -20 145 -137v-36l-8 -8h-503q-215 0 -342 181q-64 112 -64 233v977q0 264 249 382q77 28 165 28z " />
<glyph unicode="F" horiz-adv-x="1276" d="M601 1797h509l8 -8v-8q0 -168 -177 -168h-324q-154 0 -212 -124q-20 -46 -20 -116v-525h604l8 -8v-16q0 -108 -92 -148l-48 -8h-472v-660q0 -8 -12 -8q-123 0 -160 88q-12 37 -12 68v1241q0 288 308 392z" />
<glyph unicode="G" horiz-adv-x="1298" d="M630 1797h481l8 -8v-48q0 -81 -109 -120l-32 -4h-288q-214 0 -264 -100q-36 -61 -36 -168v-917q0 -163 124 -224q60 -24 120 -24h48q180 0 236 136q20 46 20 108v188q0 52 -32 52h-236q-144 17 -144 144v28l8 8h444q129 0 145 -160v-680l-8 -8q-121 0 -165 76 q-94 -72 -212 -72h-120q-306 0 -396 296q-16 65 -16 140v925q0 305 264 408q86 24 160 24z" />
<glyph unicode="H" horiz-adv-x="1317" d="M210 1796h24q152 -21 152 -144v-512l8 -8h536v656l8 8h24q156 -18 156 -156v-1632l-8 -8q-180 0 -180 172v780h-544v-944l-8 -8q-132 0 -168 100l-8 32v1656z" />
<glyph unicode="I" horiz-adv-x="583" d="M210 1796h24q111 0 152 -116v-1672l-8 -8q-123 0 -168 96l-8 60v1632z" />
<glyph unicode="J" horiz-adv-x="1119" d="M373 1792h143l334 -1q66 -26 66 -99v-1204q0 -299 -152 -400q-108 -88 -248 -88h-508l-8 8v32q0 91 92 128q26 12 64 12h332q244 0 244 272v1128q0 32 -52 32h-172q-98 0 -132 112l-4 36v24z" />
<glyph unicode="K" horiz-adv-x="1321" d="M210 1792h32q94 0 132 -88q12 -29 12 -80v-496h224q177 0 236 64q88 89 88 220v372l8 8h32q129 0 144 -160v-220q0 -231 -116 -352q116 -97 116 -312v-740l-8 -8h-36q-123 0 -140 144v644q0 110 -96 148q-43 12 -72 12h-380v-928l-8 -8h-36q-109 0 -140 128v1644z" />
<glyph unicode="L" horiz-adv-x="1199" d="M213 1792h32q92 0 132 -88q12 -26 12 -64v-1184q0 -219 140 -264l100 -12h352q102 0 132 -108q8 -18 8 -52v-12l-8 -8h-512q-271 0 -376 276q-20 79 -20 132v1376z" />
<glyph unicode="M" horiz-adv-x="2039" d="M209 1796h4q106 0 152 -68q108 68 292 68h32q210 0 336 -144q130 144 292 144h128q166 0 288 -116q112 -115 112 -300v-1368l-8 -8h-24q-152 18 -152 152v1196q0 213 -148 248q-66 16 -156 16q-178 0 -228 -156q-16 -56 -16 -148v-1300l-8 -8h-20q-156 17 -156 144v1252 q0 155 -164 204l-76 8h-72q-198 0 -228 -192l-4 -52v-1360q0 -8 -12 -8q-135 0 -172 112v1676z" />
<glyph unicode="N" horiz-adv-x="1324" d="M237 1792h12q89 0 128 -68q91 68 268 68h56q304 0 400 -276q20 -73 20 -200v-1308l-8 -8h-32q-144 21 -144 136v1168q0 214 -92 268q-78 40 -208 40q-248 0 -248 -268v-1336l-8 -8h-32q-110 0 -144 120v1660q3 12 32 12z" />
<glyph unicode="O" horiz-adv-x="1324" d="M633 1792h68q323 0 412 -308q12 -79 12 -132v-920q0 -333 -308 -424l-56 -8h-180q-190 0 -320 196q-56 107 -56 268v800q0 292 92 384q123 144 336 144zM393 1364v-924q0 -260 240 -260h64q166 0 216 124q28 55 28 188v828q0 204 -100 256q-78 32 -156 32h-40 q-252 0 -252 -244z" />
<glyph unicode="P" horiz-adv-x="1321" d="M213 1792h32q82 0 132 -76q93 76 208 76h116q314 0 404 -296q16 -72 16 -132v-360q0 -332 -248 -428q-94 -32 -192 -32h-292v-536l-8 -8h-48q-128 27 -128 152v1632zM389 724h288q185 0 240 144q16 61 16 92v436q0 142 -144 204q-40 12 -108 12q-292 0 -292 -236v-652z " />
<glyph unicode="Q" horiz-adv-x="1401" d="M626 1798h76q308 0 404 -284q20 -85 20 -209v-845q0 -261 -160 -377v-4q56 -20 168 -20q105 -44 105 -120v-52l-8 -8h-117q-242 0 -352 124h-188q-135 0 -265 128q-104 123 -104 301v921q0 316 252 417q89 28 169 28zM389 1301v-781q0 -250 96 -296q55 -41 145 -41h32 q-12 72 -12 121v160q0 12 44 12h24q120 -20 120 -156l4 -96h4q92 69 92 216v933q0 241 -244 241h-52q-184 0 -237 -137q-16 -68 -16 -176z" />
<glyph unicode="R" horiz-adv-x="1321" d="M213 1792h32q82 0 132 -76q94 76 204 76h120q285 0 388 -248q32 -89 32 -188v-340q0 -278 -144 -376v-4q144 -119 144 -376v-252l-8 -8h-24q-121 0 -152 120v180q0 173 -144 228q-54 16 -108 16h-296v-536l-8 -8h-48q-79 0 -120 100q-8 16 -8 44v1640zM389 1340v-612h328 q167 0 212 192l4 52v424q0 141 -144 204q-48 12 -104 12q-237 0 -280 -140q-16 -53 -16 -132z" />
<glyph unicode="S" horiz-adv-x="1298" d="M617 1796h492l8 -8v-12q0 -164 -168 -164h-324q-240 0 -240 -252q0 -167 124 -212q37 -10 212 -24q190 -49 288 -176q104 -164 104 -316v-212q0 -222 -172 -344q-127 -76 -240 -76l-144 4h-348l-8 8v32q0 102 112 136l40 4h304q209 0 260 144q16 73 16 120v136 q0 264 -172 332q-40 29 -264 44q-170 49 -236 156q-60 108 -60 216v44q0 333 328 412q34 8 88 8z" />
<glyph unicode="T" horiz-adv-x="1298" d="M1113 1792l8 -8v-16q0 -118 -104 -152q-34 -8 -88 -8h-168v-1600l-8 -8h-32q-111 0 -140 104l-4 36v1468h-372v28q0 126 132 156h776z" />
<glyph unicode="U" horiz-adv-x="1317" d="M214 1796q124 0 160 -88q12 -26 12 -64v-1204q0 -192 140 -240q52 -16 100 -16h40q225 0 264 188l4 48v1368l8 8h32q129 0 144 -160v-1164q0 -472 -472 -472q-306 0 -412 244q-24 54 -36 168l4 60v1316q0 8 12 8z" />
<glyph unicode="V" horiz-adv-x="1324" d="M245 1792q146 0 180 -196l240 -1152h4q248 1218 260 1244q54 104 152 104h44l4 -4h4l-380 -1784l-4 -4h-28q-115 0 -164 112l-356 1676l4 4h40z" />
<glyph unicode="W" horiz-adv-x="2043" d="M214 1792h8q172 0 172 -148v-1228q0 -236 264 -236h4q205 0 260 136q16 52 16 84v1268l8 8h24q112 0 152 -116l4 -68v-1096q0 -161 176 -208l80 -8h8q284 0 284 256v1220q0 119 160 136h12l8 -8v-1352q0 -295 -244 -400q-87 -32 -176 -32h-108q-151 0 -296 144 q-148 -144 -292 -144h-108q-290 0 -392 252q-32 81 -32 188v1344z" />
<glyph unicode="X" horiz-adv-x="1471" d="M213 1796h16q122 0 164 -80q16 -36 16 -64v-380q0 -194 132 -248q77 -24 128 -24h124q192 0 256 144l20 88l-4 80v476l8 8h44q110 0 152 -116l4 -44v-372q0 -240 -168 -352v-4q168 -141 168 -316v-584l-8 -8h-8q-192 0 -192 164v412q0 173 -188 228l-96 12h-108 q-202 0 -260 -188l-4 -60v-560l-8 -8h-8q-137 0 -176 92q-12 20 -12 52v488q0 140 168 276q-168 123 -168 296v584z" />
<glyph unicode="Y" horiz-adv-x="1321" d="M213 1792q113 0 148 -64q28 -37 28 -128v-624q0 -201 188 -248l48 -4q312 0 312 236v824l8 8h24q111 0 144 -108q8 -18 8 -52v-1184q0 -348 -308 -440l-68 -8h-404q-117 0 -136 144v28l8 8h456q268 0 268 260v168q-110 -64 -256 -64h-36q-313 0 -416 264q-24 77 -24 140 v836z" />
<glyph unicode="Z" horiz-adv-x="1298" d="M214 1792h748q131 0 156 -128v-28q0 -99 -704 -1456h700l8 -8v-12q-16 -160 -140 -160h-624q-98 0 -144 104q-8 18 -8 52v4q0 115 708 1452h-532l-36 -4q-140 21 -140 136v40z" />
<glyph unicode="[" horiz-adv-x="800" d="M338 1794h254l8 -8v-32q0 -123 -145 -141h-56l-9 -8v-1420h41q125 0 161 -84l8 -41v-52l-8 -8h-230q-157 0 -157 173v1456q0 110 81 153z" />
<glyph unicode="\" horiz-adv-x="1133" d="M314 1652q580 -1351 628 -1480v-32q0 -91 -104 -140q-608 1418 -628 1484l-4 28q0 94 108 140z" />
<glyph unicode="]" horiz-adv-x="800" d="M213 1797h246q98 0 138 -105l4 -40v-1499q0 -128 -134 -153h-250q-12 0 -12 40q0 107 109 142l57 4h44v1429h-61q-121 0 -149 134v40z" />
<glyph unicode="^" horiz-adv-x="1346" d="M602 1792h144q31 -31 336 -488l68 -100q-45 -16 -88 -16q-152 0 -228 164l-160 232h-4q-163 -260 -240 -352q-64 -44 -144 -44l-84 12q0 15 168 256q188 282 232 336z" />
<glyph unicode="_" horiz-adv-x="910" d="M7 -92h772q132 -25 132 -101v-39l-8 -7h-760q-105 0 -140 88l-4 33v19z" />
<glyph unicode="`" horiz-adv-x="1024" d="M673 1079h-69l-330 202q-31 20 -46.5 40t-15.5 42q0 31 20.5 51t53.5 20q20 0 40.5 -12t55.5 -47z" />
<glyph unicode="a" horiz-adv-x="1298" d="M620 1248h488l8 -8v-1232l-8 -8h-32q-83 0 -132 76q-102 -76 -248 -76h-488l-8 8v840q0 282 264 376q70 24 156 24zM384 824v-636l8 -8h232q243 0 288 144q20 65 20 128v612h-292q-256 0 -256 -240z" />
<glyph unicode="b" horiz-adv-x="1298" d="M214 1792h32q114 0 144 -116v-28l-4 -400l4 -4h336q231 0 360 -236q32 -97 32 -156v-472q0 -193 -208 -332q-77 -48 -184 -48h-92q-166 0 -260 72q-55 -72 -148 -72h-12l-8 8v1776zM382 1064l4 -40v-512q0 -256 108 -300q66 -32 176 -32h44q141 0 200 140q24 55 24 164 l-4 4l4 20v284q0 201 -140 252q-60 20 -136 20h-280z" />
<glyph unicode="c" horiz-adv-x="1254" d="M685 1248h244q188 0 188 -156v-20l-8 -8h-488q-156 0 -212 -124q-24 -52 -24 -104v-400q0 -185 136 -236q48 -20 200 -20h252q140 -20 140 -136v-36l-8 -8h-496q-291 0 -388 280q-20 83 -20 152v404q0 238 208 364q91 48 276 48z" />
<glyph unicode="d" horiz-adv-x="1247" d="M1081 1796h32l8 -8v-1776l-8 -8h-28q-86 0 -128 68h-4q-112 -72 -296 -72q-303 0 -416 248q-32 86 -32 192v404q0 204 164 332q107 72 232 72h328l8 8v424q21 116 140 116zM393 836v-364q0 -187 76 -236q73 -52 192 -52q186 0 248 112q32 59 32 236v536h-284 q-264 0 -264 -232z" />
<glyph unicode="e" horiz-adv-x="1298" d="M661 1248q279 0 376 -164q80 -111 80 -244v-172q0 -77 -100 -116q-16 -8 -44 -8h-584v-152q0 -139 152 -200q55 -12 132 -12h320q124 -27 124 -136v-36l-8 -8h-456q-326 0 -420 248q-28 68 -28 160v392q0 313 260 420q80 28 196 28zM389 776v-52h524q24 0 24 24v72 q0 168 -140 228q-40 16 -100 16h-40q-207 0 -256 -140q-12 -70 -12 -148z" />
<glyph unicode="f" horiz-adv-x="899" d="M590 1796h200l8 -8v-44q0 -90 -144 -128q-186 0 -240 -124q-24 -63 -24 -144v-208l8 -8h320l8 -8v-20q0 -120 -120 -152h-216l4 -260v-684l-8 -8q-135 0 -168 96q-12 26 -12 64v1200q0 340 312 428z" />
<glyph unicode="g" horiz-adv-x="1262" d="M606 1240h27q169 0 275 -64q42 64 117 64h34l8 -8v-1246q0 -335 -314 -408l-83 -11l-408 4h-52l-8 7v42q0 85 121 121l366 3q113 0 174 102q30 56 30 152v128q-113 -64 -242 -64q-321 0 -411 223q-38 92 -38 200v362q0 284 261 370q60 23 143 23zM376 817v-321 q0 -203 132 -245q60 -16 121 -16h34q230 0 230 276v348q0 145 -143 196q-67 15 -140 15q-234 0 -234 -253z" />
<glyph unicode="h" horiz-adv-x="1317" d="M213 1796h32q96 0 136 -100l8 -60v-448h4q97 60 240 60h40q309 0 412 -232q36 -93 36 -200v-808q0 -8 -12 -8q-123 0 -160 88q-12 37 -12 68v644q0 192 -124 244q-33 16 -112 24q-211 0 -248 -68q-64 -61 -64 -176v-816q0 -8 -12 -8q-127 0 -164 96l-8 52v1640z" />
<glyph unicode="i" horiz-adv-x="587" d="M210 1778h52q66 0 112 -84q12 -26 12 -56v-148l-8 -8h-12q-114 0 -148 84q-16 37 -16 68v136zM210 1248h36q98 0 132 -100q8 -18 8 -52v-1088l-8 -8h-12q-114 0 -148 84q-16 33 -16 68v1088z" />
<glyph unicode="j" horiz-adv-x="800" d="M560 1783h40l8 -8v-128q0 -119 -104 -152q-16 -8 -44 -8h-28l-8 8v160q0 83 104 124zM604 1280l4 -4v-1335q0 -255 -276 -361q-66 -19 -104 -19h-220l-8 8v27q0 95 104 132l164 19q160 43 160 252v1145q0 119 160 136h16z" />
<glyph unicode="k" horiz-adv-x="1321" d="M210 1784q176 0 176 -168v-888h228q251 0 284 124q36 56 36 212v44q0 97 112 136l60 4h4l8 -8v-236q0 -256 -148 -364v-4q148 -124 148 -376v-252l-8 -8h-20q-105 0 -148 92l-8 48v112q0 233 -140 272q-51 20 -136 20h-272v-536l-8 -8h-8q-109 0 -148 72q-20 35 -20 72 v1632z" />
<glyph unicode="l" horiz-adv-x="899" d="M238 1792q110 0 144 -104l8 -56v-1208q0 -165 132 -228q49 -16 176 -20q96 -42 96 -144v-24l-8 -8h-176q-300 0 -392 308q-16 84 -16 140l4 1340l4 4h28z" />
<glyph unicode="m" horiz-adv-x="2050" d="M209 1248h12q114 0 148 -72h4q100 72 244 72h56q242 0 356 -144q106 144 352 144q220 0 292 -68q111 -66 160 -232l20 -116l-4 -80v-744l-8 -8h-8q-113 0 -152 88q-12 37 -12 68v608q0 300 -240 300h-76q-166 0 -216 -128q-20 -57 -20 -144v-784l-8 -8h-32 q-124 0 -144 152v652q0 260 -236 260h-76q-161 0 -216 -128q-20 -61 -20 -100v-828l-8 -8h-12q-111 0 -148 84q-16 37 -16 68v1088z" />
<glyph unicode="n" horiz-adv-x="1313" d="M250 1248q86 0 120 -68h8q79 68 304 68q316 0 412 -264q24 -81 24 -208v-768l-8 -8h-20q-156 18 -156 136v608q0 239 -92 280q-63 40 -172 40h-60q-169 0 -216 -172l-8 -84v-800l-8 -8h-20q-111 0 -148 96q-8 16 -8 44v1096q0 10 48 12z" />
<glyph unicode="o" horiz-adv-x="1324" d="M658 1248h4q460 0 460 -460v-360q0 -301 -272 -408q-60 -20 -112 -20h-160q-164 0 -300 164q-76 139 -76 244l4 68v364q0 178 124 300q113 108 328 108zM390 808v-376q0 -252 260 -252h36q174 0 232 132q20 67 20 184v256q0 242 -104 276q-58 36 -172 36 q-219 0 -260 -148q-12 -47 -12 -108z" />
<glyph unicode="p" horiz-adv-x="1273" d="M213 1251h22q88 0 134 -72q93 72 198 72h95q219 0 305 -114q110 -111 110 -301v-328q0 -322 -228 -411q-87 -35 -179 -35h-290v-487l-7 -8h-35q-113 0 -133 141v1535zM380 817v-572l8 -7l286 -4q176 0 221 179l3 53v408q0 129 -129 190q-21 12 -114 16q-192 0 -248 -107 q-27 -57 -27 -156z" />
<glyph unicode="q" horiz-adv-x="1265" d="M628 1248q168 0 277 -65h4q42 61 122 61h27l7 -7v-1662l-7 -8h-39q-125 18 -125 110v377l-8 7h-292q-308 0 -388 305l-8 91v365q0 301 243 396q82 30 187 30zM373 811v-358q0 -174 167 -213l118 -7h228l8 7v514q0 249 -99 281q-52 38 -163 38q-211 0 -248 -144 q-11 -59 -11 -118z" />
<glyph unicode="r" horiz-adv-x="851" d="M213 1248h20q89 0 136 -72h8q102 68 216 68h108l8 -8v-28q0 -66 -56 -116q-14 -14 -136 -44q-124 -62 -124 -240v-800l-8 -8h-32q-136 0 -148 160v1080z" />
<glyph unicode="s" horiz-adv-x="1298" d="M587 1248l44 -4l392 4h76l8 -8v-12q0 -136 -116 -160l-36 -4h-360q-135 0 -216 -136l-4 -32q0 -78 136 -152q68 -20 248 -20q160 -37 240 -124q104 -120 104 -240q0 -196 -232 -324q-75 -36 -152 -36h-520l-8 8v32q0 119 148 140h308q209 0 264 148l4 20v24 q0 80 -124 152q-102 28 -264 28q-120 27 -216 104q-108 121 -108 228v28q0 157 192 284q111 52 192 52z" />
<glyph unicode="t" horiz-adv-x="869" d="M210 1792h28q97 0 136 -84q12 -26 12 -64v-400h204q100 0 140 -96q8 -16 8 -44v-32l-8 -8h-344v-616q0 -185 120 -244q73 -28 168 -28q104 -42 104 -144v-24l-8 -8h-148q-299 0 -404 288q-16 86 -16 140v1356z" />
<glyph unicode="u" horiz-adv-x="1328" d="M214 1248q124 0 164 -92l8 -52v-664q0 -177 116 -232q75 -28 132 -28q300 0 300 236v824q0 8 12 8q172 0 172 -184v-1056l-8 -8h-28q-95 0 -128 76h-8q-94 -76 -244 -76h-76q-341 0 -420 336l-4 80v824q0 8 12 8z" />
<glyph unicode="v" horiz-adv-x="1343" d="M206 1244h60q162 0 228 -300l176 -540h4q228 713 256 752q70 88 160 88h44l4 -4h4l-400 -1240h-24q-111 0 -160 136z" />
<glyph unicode="w" horiz-adv-x="2036" d="M213 1248q176 0 176 -148v-696q0 -158 160 -212q51 -12 108 -12q207 0 256 136q20 39 20 84v724l8 8h20q114 0 152 -108l8 -68v-560q0 -161 180 -208l72 -8q296 0 296 256v676q0 86 96 124q34 12 80 12l4 -4v-820q0 -292 -264 -400q-89 -24 -160 -24h-92q-169 0 -304 144 h-4q-148 -144 -308 -144h-80q-299 0 -404 248q-32 90 -32 204v788q0 8 12 8z" />
<glyph unicode="x" horiz-adv-x="1321" d="M943 1248h20q122 0 152 -120l4 -56v-60q0 -260 -148 -380q148 -123 148 -328v-296l-8 -8h-40q-93 0 -132 104l-4 32v108q0 210 -104 264q-78 36 -132 36h-84q-143 0 -200 -116q-28 -54 -28 -124v-296l-8 -8h-36q-102 0 -140 116v236q0 148 144 284v4q-144 115 -144 292 v304l8 8h40q117 0 136 -144v-116q0 -198 140 -244q43 -12 72 -12h104q153 0 208 124q24 67 24 136v252z" />
<glyph unicode="y" horiz-adv-x="1258" d="M216 1243q163 0 163 -174v-598q0 -171 148 -227l79 -11q201 0 265 110q26 52 26 102v790l8 8h19q99 0 136 -87q11 -35 11 -64v-1105q0 -201 -94 -295q-126 -121 -276 -121h-367q-109 0 -129 136v27l8 7h412q272 0 272 212v167h-7q-97 -57 -223 -57h-50q-280 0 -382 231 q-30 78 -30 151v790q0 8 11 8z" />
<glyph unicode="z" horiz-adv-x="1306" d="M210 1248h728q142 0 176 -112l4 -40q0 -109 -688 -912v-4h540q144 -21 144 -136v-36l-8 -8h-760q-115 0 -144 116v44l696 904h-524q-135 0 -172 112v64z" />
<glyph unicode="{" horiz-adv-x="1053" d="M717 1660h136l8 -8q0 -123 -124 -172q-184 0 -252 -180q-12 -65 -12 -116v-216q0 -70 -32 -140q32 -53 32 -140v-204q0 -222 156 -280q127 -27 156 -44q76 -60 76 -156l-4 -4h-76q-368 0 -460 228q-32 75 -32 152v304q0 56 -84 56l-4 4v172q0 9 56 12q32 17 32 44v316 q0 227 236 340q104 32 192 32z" />
<glyph unicode="|" horiz-adv-x="587" d="M213 1780h48q78 0 116 -92q12 -19 12 -60v-1620l-8 -8h-20q-156 0 -156 176v1596z" />
<glyph unicode="}" horiz-adv-x="1056" d="M350 1660q255 0 372 -200q48 -77 48 -224v-272q0 -37 84 -44v-172q0 -7 -68 -20q-16 -17 -16 -32v-288q0 -288 -264 -380q-83 -28 -212 -28h-92l-4 4h-4q0 121 112 172q147 24 196 72q80 76 80 208v188q0 140 36 188q-36 40 -36 200v176q0 198 -172 256q-164 29 -164 64 q-52 53 -52 128l4 4h152z" />
<glyph unicode="~" d="M923 878v-156q-63 -72 -122 -97.5t-116 -25.5q-60 0 -177.5 48.5t-176.5 48.5q-51 0 -107.5 -28t-129.5 -112v156q64 73 123 99t114 26q64 0 181.5 -49.5t172.5 -49.5q52 0 108.5 28t129.5 112z" />
<glyph unicode="&#xa1;" horiz-adv-x="672" />
<glyph unicode="&#xa2;" horiz-adv-x="1139" />
<glyph unicode="&#xa3;" d="M748 1347q-72 31 -160 31h-2q-100 0 -190 -101q-84 -93 -84 -241q0 -15 1 -30q0 -135 53 -273h360v-60h-334q14 -30 31 -60q35 -63 35 -138q0 -161 -162 -375h402q130 0 189 132l49 -1l-103 -231h-719l1 50q187 238 187 418q0 77 -34 143q-17 32 -31 62h-161v60h135 q-58 143 -58 253q0 226 123.5 347t306.5 121h4q75 0 185.5 -14t110.5 -34v-161h-58q-5 61 -77 102z" />
<glyph unicode="&#xa4;" d="M350 560q41 -40 99 -57q29 -8 58 -8t58 8q58 17 99 57q40 41 57 99q9 29 9 58t-9 58q-17 58 -57 99q-41 40 -100 57q-29 8 -58 8t-58 -9q-58 -17 -98 -56q-39 -40 -56 -98q-10 -30 -10 -60q0 -28 9 -56q16 -59 57 -100zM240 903l-118 118l80 81l118 -118q44 30 99 46 q44 14 89 14q41 0 83 -12q57 -17 102 -48l118 118l80 -81l-117 -117q31 -46 48 -102q12 -42 12 -85q0 -42 -12 -85q-17 -56 -48 -102l117 -117l-80 -81l-118 118q-45 -32 -101 -48q-42 -12 -85 -12q-42 0 -85 12q-57 16 -102 48l-118 -118l-80 81l118 117q-32 46 -48 103 q-12 42 -12 84q0 44 13 87q16 55 47 99z" />
<glyph unicode="&#xa5;" horiz-adv-x="1262" d="M547 225l-2 242q0 19 -1.5 35t-4.5 32l-484 1q-14 0 -21 6.5t-7 19.5t6.5 19t21.5 6h467l-121 172h-344q-17 0 -23.5 5.5t-6.5 18.5q0 14 6 19.5t22 5.5h307q-43 57 -108 155q-131 197 -227 197q-7 0 -13 5.5t-6 11.5q0 19 10.5 27.5t32.5 8.5q27 0 123 -8t164 -8h57h31 q33 0 41 -6.5t8 -26.5q0 -8 -15 -14t-38 -6q-6 0 -18.5 2t-18.5 2q-24 0 -37.5 -9.5t-13.5 -25.5q0 -18 16.5 -52t46.5 -77l158 -221q13 -19 33 -53q41 -70 71 -70q9 0 16.5 5t14.5 15l277 396q8 12 13 26.5t5 24.5q0 18 -10 27t-37 14q-15 2 -41 4q-47 3 -47 25 q0 15 8 22.5t25 7.5q3 0 15 -1q56 -7 108 -7h139q30 0 65 1t37 1q11 0 18.5 -4.5t8.5 -11.5q0 -28 -38 -34q-18 -3 -27 -5q-63 -15 -147 -117q-7 -9 -12 -15l-169 -206h323q15 0 24 -6t9 -17q0 -15 -6 -20.5t-23 -5.5h-366q-46 -57 -96.5 -112.5t-52.5 -59.5h511 q18 0 25.5 -5.5t7.5 -17.5q0 -14 -7 -21t-22 -7h-530q0 -11 -1 -30.5t-1 -29.5l2 -215q0 -114 5.5 -150t20.5 -44q30 -17 107.5 -19t77.5 -31q0 -12 -10 -20t-25 -8q-2 0 -35.5 4t-64.5 4q-91 0 -208.5 -4t-142.5 -4q-31 0 -40 4t-9 16t8 18.5t37 12.5q9 2 25 5q74 16 92 32 q17 13 24 47t7 102z" />
<glyph unicode="&#xa6;" d="M427 371h160v-789h-160v789zM427 1578h160v-789h-160v789z" />
<glyph unicode="&#xa7;" d="M545 321q56 16 97 53q73 65 73 166q0 5 -1 10h-2q-1 14 -4 27q-22 61 -113 127q-59 29 -126 29q-78 0 -125 -44.5t-47 -117.5q0 -123 248 -250zM466 -346q113 6 185 69q72 64 72 165q0 125 -316 276q-123 64 -175.5 137t-52.5 177q0 148 89 237q67 65 170 82l-40 19 q-123 64 -175.5 137t-52.5 177q0 148 89 237q82 79 216 86q8 1 17 1h3q66 0 163 -16.5t97 -41.5v-194h-51q-5 81 -80 132q-70 47 -149 51h-15q-78 0 -125 -44.5t-47 -117.5q0 -132 287 -269q149 -67 204.5 -143.5t55.5 -187.5q0 -171 -101 -282q-47 -39 -99 -64 q108 -56 154 -118q55 -77 55 -187q0 -171 -101 -283q-124 -102 -277 -105v1q-6 -1 -13 -1h-3q-66 0 -163 16.5t-97 41.5v194h51q5 -81 80 -132q68 -45 145 -50z" />
<glyph unicode="&#xa8;" horiz-adv-x="1024" d="M223 1289l71 72q13 12 25 12q11 0 27 -14l69 -73q10 -14 10 -25q0 -13 -12 -27l-69 -75q-17 -17 -25 -17q-14 0 -25 12l-76 86q-9 12 -9 23q0 13 14 26zM588 1289l71 72q13 12 25 12q11 0 27 -13l69 -74q10 -14 10 -25q0 -13 -12 -26l-69 -76q-17 -17 -25 -17 q-14 0 -25 12l-76 87q-9 11 -9 22q0 13 14 26z" />
<glyph unicode="&#xa9;" horiz-adv-x="1674" d="M840 1456q145 0 280 -56.5t239 -160.5q102 -101 158.5 -238t56.5 -283q0 -147 -56.5 -282t-162.5 -240q-105 -105 -239 -159.5t-283 -54.5q-146 0 -278 55.5t-238 160.5q-106 104 -161.5 237.5t-55.5 282.5q0 148 55.5 283t159.5 238q102 104 238.5 160.5t286.5 56.5z M357 1197q-95 -96 -146 -219.5t-51 -259.5q0 -137 51 -259t148 -219q98 -96 219 -147t256 -51q137 0 259.5 50.5t219.5 145.5q97 98 149 221.5t52 258.5q0 134 -52 259.5t-145 219.5q-96 96 -220 147.5t-258 51.5q-137 0 -262 -51.5t-220 -147.5zM865 223q-142 0 -264 68 t-186 185t-64 243t65.5 244t187.5 184.5t254 66.5q38 0 75 -6.5t76 -20.5q5 -1 9 -1q19 0 26 30h42l72 -198h-44q-52 94 -131 124q-72 26 -147 26h-15q-86 -8 -166.5 -71t-121.5 -177q-33 -90 -33 -184q0 -25 2 -50q11 -121 69.5 -224t149.5 -152q72 -40 166 -42 q124 0 194 56t70 126h53v-100q0 -46 -96.5 -86.5t-242.5 -40.5z" />
<glyph unicode="&#xaa;" horiz-adv-x="648" />
<glyph unicode="&#xab;" horiz-adv-x="944" d="M174 479l342 303h14v-37l-205 -266l205 -266v-37h-14zM487 479l342 303h14v-37l-205 -266l205 -266v-37h-14z" />
<glyph unicode="&#xac;" d="M87 767h840v-491l-1 -1h-98v392h-741v100z" />
<glyph unicode="&#xad;" horiz-adv-x="1317" d="M210 870h756q113 0 148 -112v-60l-8 -8h-752q-105 0 -144 92l-8 56v24z" />
<glyph unicode="&#xae;" horiz-adv-x="1674" d="M751 1099v-374l3 -8q23 -56 56 -81q29 -22 56 -22h6q31 4 61.5 38.5t46.5 97.5q13 50 13 103q0 13 -1 27q-4 67 -28 124.5t-56.5 76t-63.5 18.5h-93zM984 576l82 -116q100 -141 150 -141h34v-50h-346v50h45q30 0 30 22q0 29 -69 114l-75 102q-42 0 -84 42v-159 q0 -121 36 -121h53v-50h-316v50h43q37 0 37 121v538q0 121 -37 121h-43v70h356q64 -1 125 -42q60 -41 92.5 -114t32.5 -152q0 -78 -32 -150.5t-114 -134.5zM840 1456q145 0 280 -56.5t239 -160.5q102 -101 158.5 -238t56.5 -283q0 -147 -56.5 -282t-162.5 -240 q-105 -105 -239 -159.5t-283 -54.5q-146 0 -278 55.5t-238 160.5q-106 104 -161.5 237.5t-55.5 282.5q0 148 55.5 283t159.5 238q102 104 238.5 160.5t286.5 56.5zM357 1197q-95 -96 -146 -219.5t-51 -259.5q0 -137 51 -259t148 -219q98 -96 219 -147t256 -51 q137 0 259.5 50.5t219.5 145.5q97 98 149 221.5t52 258.5q0 134 -52 259.5t-145 219.5q-96 96 -220 147.5t-258 51.5q-137 0 -262 -51.5t-220 -147.5z" />
<glyph unicode="&#xaf;" horiz-adv-x="670" />
<glyph unicode="&#xb0;" horiz-adv-x="674" d="M339 1372q-86 0 -147.5 -61t-61.5 -148t61 -147t148 -60t147 60t60 147t-60.5 148t-146.5 61zM339 1442q115 0 196 -81.5t81 -196.5q0 -114 -82 -196t-197 -82q-117 0 -197 81t-80 197t81.5 197t197.5 81z" />
<glyph unicode="&#xb1;" />
<glyph unicode="&#xb2;" />
<glyph unicode="&#xb3;" />
<glyph unicode="&#xb4;" horiz-adv-x="1024" d="M607 1375q35 35 55.5 47t40.5 12q33 0 53.5 -20t20.5 -51q0 -22 -15.5 -42t-46.5 -40l-330 -203h-69z" />
<glyph unicode="&#xb5;" horiz-adv-x="1180" />
<glyph unicode="&#xb6;" horiz-adv-x="1024" d="M929 1435v-70h-127v-1365h-82v1365h-166v-1365h-84v738q-174 8 -275.5 102.5t-101.5 245.5q0 157 107.5 253t285.5 96h443z" />
<glyph unicode="&#xb7;" horiz-adv-x="508" d="M145 740l82 84q15 14 29 14q13 0 31 -16l80 -86q12 -16 12 -29q0 -15 -14 -31l-80 -88q-20 -20 -29 -20q-16 0 -29 14l-88 101q-10 13 -10 26q0 15 16 31z" />
<glyph unicode="&#xb8;" horiz-adv-x="1024" d="M360 -290q85 -52 152 -52q66 0 94.5 21.5t28.5 66.5t-49 64q-40 16 -102 16q-16 0 -34 -2l48 176h63l-37 -104q32 4 62 5q86 0 134 -40.5t48 -113.5q0 -76 -58.5 -120.5t-160.5 -44.5q-109 0 -189 32v96z" />
<glyph unicode="&#xb9;" />
<glyph unicode="&#xba;" horiz-adv-x="718" />
<glyph unicode="&#xbb;" horiz-adv-x="944" d="M115 176h-14v37l205 266l-205 266v37h14l342 -303zM428 176h-14v37l205 266l-205 266v37h14l342 -303z" />
<glyph unicode="&#xbc;" horiz-adv-x="1708" />
<glyph unicode="&#xbd;" horiz-adv-x="1964" />
<glyph unicode="&#xbe;" horiz-adv-x="1708" />
<glyph unicode="&#xbf;" horiz-adv-x="748" />
<glyph unicode="&#xc0;" horiz-adv-x="1540" />
<glyph unicode="&#xc1;" horiz-adv-x="1540" />
<glyph unicode="&#xc2;" horiz-adv-x="1540" />
<glyph unicode="&#xc3;" horiz-adv-x="1540" />
<glyph unicode="&#xc4;" horiz-adv-x="1540" />
<glyph unicode="&#xc5;" horiz-adv-x="1540" />
<glyph unicode="&#xc6;" horiz-adv-x="2118" />
<glyph unicode="&#xc7;" horiz-adv-x="1399" />
<glyph unicode="&#xc8;" horiz-adv-x="1151" />
<glyph unicode="&#xc9;" horiz-adv-x="1151" />
<glyph unicode="&#xca;" horiz-adv-x="1151" />
<glyph unicode="&#xcb;" horiz-adv-x="1151" />
<glyph unicode="&#xcc;" horiz-adv-x="657" />
<glyph unicode="&#xcd;" horiz-adv-x="657" />
<glyph unicode="&#xce;" horiz-adv-x="657" />
<glyph unicode="&#xcf;" horiz-adv-x="657" />
<glyph unicode="&#xd0;" horiz-adv-x="1518" />
<glyph unicode="&#xd1;" horiz-adv-x="1554" />
<glyph unicode="&#xd2;" horiz-adv-x="1614" />
<glyph unicode="&#xd3;" horiz-adv-x="1614" />
<glyph unicode="&#xd4;" horiz-adv-x="1614" />
<glyph unicode="&#xd5;" horiz-adv-x="1614" />
<glyph unicode="&#xd6;" horiz-adv-x="1614" />
<glyph unicode="&#xd7;" d="M507 618l-247 -247l-99 99l247 247l-247 248l99 98l247 -247l248 247l98 -99l-247 -247l247 -247l-99 -99z" />
<glyph unicode="&#xd8;" horiz-adv-x="1614" />
<glyph unicode="&#xd9;" horiz-adv-x="1501" />
<glyph unicode="&#xda;" horiz-adv-x="1501" />
<glyph unicode="&#xdb;" horiz-adv-x="1501" />
<glyph unicode="&#xdc;" horiz-adv-x="1501" />
<glyph unicode="&#xdd;" horiz-adv-x="1233" />
<glyph unicode="&#xde;" horiz-adv-x="1120" />
<glyph unicode="&#xdf;" horiz-adv-x="1251" />
<glyph unicode="&#xe0;" horiz-adv-x="922" />
<glyph unicode="&#xe1;" horiz-adv-x="922" />
<glyph unicode="&#xe2;" horiz-adv-x="922" />
<glyph unicode="&#xe3;" horiz-adv-x="922" />
<glyph unicode="&#xe4;" horiz-adv-x="922" />
<glyph unicode="&#xe5;" horiz-adv-x="922" />
<glyph unicode="&#xe6;" horiz-adv-x="1454" />
<glyph unicode="&#xe7;" horiz-adv-x="905" />
<glyph unicode="&#xe8;" horiz-adv-x="909" />
<glyph unicode="&#xe9;" horiz-adv-x="909" />
<glyph unicode="&#xea;" horiz-adv-x="909" />
<glyph unicode="&#xeb;" horiz-adv-x="909" />
<glyph unicode="&#xec;" horiz-adv-x="514" />
<glyph unicode="&#xed;" horiz-adv-x="514" />
<glyph unicode="&#xee;" horiz-adv-x="514" />
<glyph unicode="&#xef;" horiz-adv-x="514" />
<glyph unicode="&#xf0;" horiz-adv-x="1139" />
<glyph unicode="&#xf1;" horiz-adv-x="1108" />
<glyph unicode="&#xf2;" horiz-adv-x="1010" />
<glyph unicode="&#xf3;" horiz-adv-x="1010" />
<glyph unicode="&#xf4;" horiz-adv-x="1010" />
<glyph unicode="&#xf5;" horiz-adv-x="1010" />
<glyph unicode="&#xf6;" horiz-adv-x="1010" />
<glyph unicode="&#xf7;" d="M87 647v140h839l1 -1v-139h-840zM398 408l82 84q15 14 29 14q13 0 31 -16l80 -86q12 -16 12 -29q0 -15 -14 -31l-80 -88q-20 -20 -29 -20q-16 0 -29 14l-88 101q-10 13 -10 26q0 15 16 31zM398 1101l82 84q15 14 29 14q13 0 31 -16l80 -86q12 -16 12 -29q0 -15 -14 -31 l-80 -88q-20 -20 -29 -20q-16 0 -29 14l-88 101q-10 13 -10 26q0 15 16 31z" />
<glyph unicode="&#xf8;" horiz-adv-x="1010" />
<glyph unicode="&#xf9;" horiz-adv-x="1059" />
<glyph unicode="&#xfa;" horiz-adv-x="1059" />
<glyph unicode="&#xfb;" horiz-adv-x="1059" />
<glyph unicode="&#xfc;" horiz-adv-x="1059" />
<glyph unicode="&#xfd;" horiz-adv-x="868" />
<glyph unicode="&#xfe;" horiz-adv-x="1010" />
<glyph unicode="&#xff;" horiz-adv-x="868" />
<glyph unicode="&#x2c6;" horiz-adv-x="1024" d="M221 1079l232 355h118l232 -355h-58l-233 216l-233 -216h-58z" />
<glyph unicode="&#x2dc;" horiz-adv-x="1024" d="M808 1382q-20 -103 -68.5 -154t-126.5 -51h-4q-50 0 -113 23q-66 24 -114 24q-39 0 -60.5 -20.5t-33.5 -71.5h-54q19 106 68 158.5t129 52.5q46 -1 113 -24q64 -23 112 -23h4q36 0 58 20t36 66h54z" />
<glyph unicode="&#x2000;" horiz-adv-x="900" />
<glyph unicode="&#x2001;" horiz-adv-x="1801" />
<glyph unicode="&#x2002;" horiz-adv-x="900" />
<glyph unicode="&#x2003;" horiz-adv-x="1801" />
<glyph unicode="&#x2004;" horiz-adv-x="600" />
<glyph unicode="&#x2005;" horiz-adv-x="450" />
<glyph unicode="&#x2006;" horiz-adv-x="300" />
<glyph unicode="&#x2007;" horiz-adv-x="300" />
<glyph unicode="&#x2008;" horiz-adv-x="225" />
<glyph unicode="&#x2009;" horiz-adv-x="360" />
<glyph unicode="&#x200a;" horiz-adv-x="100" />
<glyph unicode="&#x2010;" horiz-adv-x="1317" d="M210 870h756q113 0 148 -112v-60l-8 -8h-752q-105 0 -144 92l-8 56v24z" />
<glyph unicode="&#x2011;" horiz-adv-x="1317" d="M210 870h756q113 0 148 -112v-60l-8 -8h-752q-105 0 -144 92l-8 56v24z" />
<glyph unicode="&#x2012;" horiz-adv-x="1317" d="M210 870h756q113 0 148 -112v-60l-8 -8h-752q-105 0 -144 92l-8 56v24z" />
<glyph unicode="&#x2013;" horiz-adv-x="1108" d="M56 419v120h996v-120h-996z" />
<glyph unicode="&#x2014;" horiz-adv-x="2048" d="M0 419v120h2048v-120h-2048z" />
<glyph unicode="&#x2018;" horiz-adv-x="557" d="M319 1016q-44 0 -88.5 65.5t-44.5 151.5q0 109 71 226.5t139 117.5v-43q-73 -43 -87 -190q0 -119 129 -161v-42z" />
<glyph unicode="&#x2019;" horiz-adv-x="557" d="M238 1577q44 0 88.5 -65.5t44.5 -151.5q0 -109 -71 -226.5t-139 -117.5v43q73 43 87 190q0 119 -129 161v42z" />
<glyph unicode="&#x201a;" horiz-adv-x="557" d="M238 281q44 0 88.5 -65.5t44.5 -151.5q0 -109 -71 -226.5t-139 -117.5v43q73 43 87 190q0 119 -129 161v42z" />
<glyph unicode="&#x201c;" horiz-adv-x="910" d="M319 1016q-44 0 -88.5 65.5t-44.5 151.5q0 109 71 226.5t139 117.5v-43q-73 -43 -87 -190q0 -119 129 -161v-42zM672 1016q-44 0 -88.5 65.5t-44.5 151.5q0 109 71 226.5t139 117.5v-43q-73 -43 -87 -190q0 -119 129 -161v-42z" />
<glyph unicode="&#x201d;" horiz-adv-x="910" d="M238 1577q44 0 88.5 -65.5t44.5 -151.5q0 -109 -71 -226.5t-139 -117.5v43q73 43 87 190q0 119 -129 161v42zM591 1577q44 0 88.5 -65.5t44.5 -151.5q0 -109 -71 -226.5t-139 -117.5v43q73 43 87 190q0 119 -129 161v42z" />
<glyph unicode="&#x201e;" horiz-adv-x="910" d="M238 281q44 0 88.5 -65.5t44.5 -151.5q0 -109 -71 -226.5t-139 -117.5v43q73 43 87 190q0 119 -129 161v42zM591 281q44 0 88.5 -65.5t44.5 -151.5q0 -109 -71 -226.5t-139 -117.5v43q73 43 87 190q0 119 -129 161v42z" />
<glyph unicode="&#x2022;" horiz-adv-x="1024" d="M216 718q0 123 87 209t210 86q122 0 208.5 -86.5t86.5 -208.5t-87.5 -209.5t-209.5 -87.5q-123 0 -209 87t-86 210z" />
<glyph unicode="&#x2026;" horiz-adv-x="2048" d="M145 167l82 84q15 14 29 14q13 0 31 -16l80 -86q12 -16 12 -29q0 -15 -14 -31l-80 -88q-20 -20 -29 -20q-16 0 -29 14l-88 101q-10 13 -10 26q0 15 16 31zM828 167l82 84q15 14 29 14q13 0 31 -16l80 -86q12 -16 12 -29q0 -15 -14 -31l-80 -88q-20 -20 -29 -20 q-16 0 -29 14l-88 101q-10 13 -10 26q0 15 16 31zM1511 167l82 84q15 14 29 14q13 0 31 -16l80 -86q12 -16 12 -29q0 -15 -14 -31l-80 -88q-20 -20 -29 -20q-16 0 -29 14l-88 101q-10 13 -10 26q0 15 16 31z" />
<glyph unicode="&#x202f;" horiz-adv-x="360" />
<glyph unicode="&#x2039;" horiz-adv-x="631" d="M174 479l342 303h14v-37l-205 -266l205 -266v-37h-14z" />
<glyph unicode="&#x203a;" horiz-adv-x="631" d="M115 176h-14v37l205 266l-205 266v37h14l342 -303z" />
<glyph unicode="&#x205f;" horiz-adv-x="450" />
<glyph unicode="&#x20ac;" d="M140 372q-62 135 -76 281h-108l17 60h87v29q0 16 1 31h-71l17 60h58q14 145 76 281q81 178 226 274t298 96q43 0 87 -8q40 -10 82 -29q8 -6 16 -6q20 0 34 45h41l84 -281l-40 -1q-49 134 -138 178q-43 22 -81 32v3q-50 16 -101 16q-17 0 -34 -2q-120 -12 -226 -113.5 t-157 -273.5q-32 -104 -39 -211h706l-17 -60h-692q0 -30 2 -60h674l-17 -60h-652q17 -158 83 -298q74 -157 193 -236q102 -68 216 -69q186 3 256 91q74 91 74 185h48v-143q0 -70 -111 -127q-105 -54 -267 -56q-181 0 -325.5 98t-223.5 274z" />
<glyph unicode="&#x2122;" horiz-adv-x="1497" />
<glyph unicode="&#xe000;" horiz-adv-x="1250" d="M0 1250h1250v-1250h-1250v1250z" />
</font>
</defs>
</svg>
