<?xml version="1.0" standalone="no"?>
<!DOCTYPE svg PUBLIC "-//W3C//DTD SVG 1.1//EN" "http://www.w3.org/Graphics/SVG/1.1/DTD/svg11.dtd" >
<svg xmlns="http://www.w3.org/2000/svg">
<metadata></metadata>
<defs>
<font id="luxi_monobold_oblique" horiz-adv-x="1229" vert-adv-y="2048" >
<font-face units-per-em="2048" ascent="1638" descent="-410" />
<missing-glyph horiz-adv-x="500" />
<glyph vert-adv-y="0" />
<glyph vert-adv-y="0" />
<glyph unicode="&#xd;" vert-adv-y="0" />
<glyph unicode=" " vert-adv-y="2505" />
<glyph unicode="!" vert-adv-y="2505" d="M466 0l49 247h296l-49 -247h-296zM612 419l91 765l59 296h296l-59 -296l-217 -765h-170z" />
<glyph unicode="&#x22;" vert-adv-y="2505" d="M452 1036l59 543h296l-158 -543h-197zM995 1036l59 543h296l-158 -543h-197z" />
<glyph unicode="#" vert-adv-y="2505" d="M142 0l196 432h-202l68 173h213l121 271h-226l71 173h233l197 431h178l-194 -431h207l193 431h179l-196 -431h210l-68 -173h-218l-123 -271h233l-70 -173h-241l-196 -432h-180l197 432h-207l-197 -432h-178zM596 605h206l122 271h-206z" />
<glyph unicode="$" vert-adv-y="2505" d="M688 180l23 4q47 8 94 51q64 60 64 161q0 85 -103 173zM120 56l65 326h173l-5 -149q78 -38 162 -55l102 509q-33 27 -47 40q-104 91 -146 153q-60 88 -60 177q0 189 184 321q123 87 304 102l39 198h173l-39 -198q137 -17 253 -50l-59 -295h-172l5 152q-28 13 -63 16 l-93 -468q115 -91 173 -162q84 -101 84 -198q0 -210 -173 -346q-122 -96 -328 -129l-39 -196h-173l39 196q-205 20 -359 56zM816 1302q-74 -12 -119 -55q-59 -56 -59 -138q0 -70 108 -155z" />
<glyph unicode="%" vert-adv-y="2505" d="M38 -37l1292 1554h157l-1293 -1554h-156zM1054 740q108 0 175 -60q85 -76 85 -217q0 -185 -122 -324q-123 -139 -286 -139q-117 0 -186 74q-70 73 -70 200q0 188 120 327q121 139 284 139zM1020 568q-54 0 -96 -92q-43 -93 -43 -204q0 -99 60 -99q55 0 97 90 q43 90 43 202q0 103 -61 103zM615 1480q108 0 175 -60q84 -76 84 -217q0 -185 -122 -324q-121 -139 -285 -139q-117 0 -186 74q-70 73 -70 200q0 188 120 327q121 139 284 139zM581 1308q-54 0 -97 -91q-42 -92 -42 -204q0 -100 60 -100q55 0 97 90q43 91 43 201 q0 104 -61 104z" />
<glyph unicode="&#x26;" vert-adv-y="2505" d="M877 0l-43 87q-157 -124 -353 -124q-169 0 -264 91q-95 90 -95 251q0 215 153 394q105 122 278 200q-47 151 -47 235q0 161 112 272t275 111q115 0 181 -66t66 -179q0 -152 -124 -281q-75 -79 -217 -162q57 -226 156 -448q89 125 119 298h-102l34 172h379l-34 -172h-108 q-60 -251 -222 -435l42 -71h125l-35 -173h-276zM763 218q-121 295 -176 527q-94 -52 -142 -114q-69 -90 -69 -219q0 -236 231 -236q87 0 156 42zM766 981q151 151 151 283q0 81 -67 81q-113 0 -113 -161q0 -69 25 -183z" />
<glyph unicode="'" vert-adv-y="2505" d="M708 962l50 617h345l-197 -617h-198z" />
<glyph unicode="(" vert-adv-y="2505" d="M979 -296q-270 6 -444 163q-230 209 -230 557q0 288 142 554q151 283 424 454q142 89 290 124q82 20 193 23l-35 -173q-164 -31 -283 -108q-199 -129 -322 -376q-116 -233 -116 -506q0 -251 156 -410q103 -104 259 -129z" />
<glyph unicode=")" vert-adv-y="2505" d="M513 1579q270 -6 444 -163q230 -209 230 -557q0 -288 -142 -554q-150 -283 -424 -454q-142 -89 -290 -124q-82 -20 -193 -23l34 173q164 30 284 108q199 128 322 376q116 233 116 506q0 251 -157 410q-103 104 -259 129z" />
<glyph unicode="*" vert-adv-y="2505" d="M600 595l-197 143l298 229q20 -43 70 -56zM361 1038l125 254l257 -173q-44 -44 -50 -97zM794 1150l-15 330h267l-153 -331q-27 12 -48 12q-19 0 -51 -11zM933 1115l331 179l18 -256l-338 -12q4 16 4 28q0 34 -15 61zM873 592l-53 320q50 9 93 55l209 -224z" />
<glyph unicode="+" vert-adv-y="2505" d="M535 101l84 417h-417l39 198h417l84 417h197l-83 -417h417l-40 -198h-417l-83 -417h-198z" />
<glyph unicode="," vert-adv-y="2505" d="M442 0l69 345h346l-57 -283q-46 -230 -135 -319q-88 -88 -272 -88h-20l25 123h14q85 0 117 64q26 49 49 158h-136z" />
<glyph unicode="-" vert-adv-y="2505" d="M252 518l39 198h933l-40 -198h-932z" />
<glyph unicode="." vert-adv-y="2505" d="M442 0l69 345h346l-70 -345h-345z" />
<glyph unicode="/" vert-adv-y="2505" d="M-59 -296l1384 1875h220l-1385 -1875h-219z" />
<glyph unicode="0" vert-adv-y="2505" d="M918 1518q195 0 300 -126t105 -365q0 -205 -66 -432q-65 -224 -168 -364q-197 -268 -490 -268q-168 0 -268 104q-125 129 -125 383q0 210 65 436q64 221 169 363q199 269 478 269zM884 1345q-167 0 -276 -391q-40 -140 -70 -318q-27 -160 -27 -261q0 -239 138 -239 q151 0 256 334q46 145 82 353q31 174 31 283q0 239 -134 239z" />
<glyph unicode="1" vert-adv-y="2505" d="M148 0l34 173h341l205 1028l-360 -100l34 173l683 231l-266 -1332h345l-34 -173h-982z" />
<glyph unicode="2" vert-adv-y="2505" d="M189 0l42 210q95 133 255 287l264 252q254 242 254 427q0 169 -180 169q-92 0 -193 -43l-61 -200h-155l68 341q217 75 403 75q389 0 389 -315q0 -118 -52 -222q-57 -113 -156 -194l-128 -104l-133 -108q-206 -167 -286 -328h568l-49 -247h-850z" />
<glyph unicode="3" vert-adv-y="2505" d="M176 15l62 312h185l-7 -158q94 -32 157 -32q121 0 202 89q82 89 82 220q0 245 -311 245h-100l35 173h98q173 0 276 89q104 90 104 234q0 158 -160 158q-56 0 -141 -28l-56 -158h-185l59 296q231 62 404 62q189 0 296 -78t107 -212q0 -168 -149 -294q-104 -89 -277 -138 q133 -26 215 -99q107 -96 107 -234q0 -210 -189 -354q-189 -145 -462 -145q-133 0 -352 52z" />
<glyph unicode="4" vert-adv-y="2505" d="M153 407l38 191l809 901h272l-177 -882h173l-42 -210h-173l-46 -234h148l-35 -173h-691l35 173h271l47 234h-629zM824 617l114 568l-509 -568h395z" />
<glyph unicode="5" vert-adv-y="2505" d="M238 19l61 308h185l-6 -155q59 -36 113 -36q115 0 192 98q77 97 77 243q0 262 -340 262q-46 0 -107 -7l149 748h806l-50 -246h-632l-64 -320q254 -4 392 -82q175 -100 175 -307q0 -230 -189 -396t-450 -166q-130 0 -312 56z" />
<glyph unicode="6" vert-adv-y="2505" d="M1366 1473l-62 -313h-185l7 158q-61 27 -119 27q-175 0 -296 -189q-85 -132 -127 -356q161 169 347 169q152 0 240 -97q88 -96 88 -266q0 -261 -180 -452t-430 -191q-204 0 -315 128q-111 129 -111 372q0 433 265 764q232 290 555 290q135 0 323 -44zM803 759 q-110 0 -188 -130t-78 -305q0 -189 142 -189q92 0 163 107q93 140 93 339q0 178 -132 178z" />
<glyph unicode="7" vert-adv-y="2505" d="M193 0q35 165 151 344t401 509l330 381h-699l49 246h970l-40 -197l-210 -229q-506 -552 -634 -1054h-318z" />
<glyph unicode="8" vert-adv-y="2505" d="M560 798q-69 57 -105 106q-50 71 -50 147q0 191 156 328q155 138 385 138q207 0 296 -96q63 -69 63 -179q0 -129 -112 -254q-66 -75 -195 -166q108 -73 160 -137q77 -94 77 -201q0 -202 -187 -361q-188 -160 -438 -160q-201 0 -322 88q-121 87 -121 237q0 173 142 323 q87 90 251 187zM862 903q168 166 168 309q0 133 -138 133q-87 0 -144 -61q-57 -62 -57 -148q0 -73 91 -158zM667 697q-197 -174 -197 -361q0 -92 57 -146t149 -54q106 0 183 75t77 170q0 80 -140 203z" />
<glyph unicode="9" vert-adv-y="2505" d="M161 8l63 313h185l-7 -158q61 -27 119 -27q176 0 297 189q84 131 126 356q-161 -169 -348 -169q-151 0 -239 96t-88 266q0 261 180 452t429 191q205 0 316 -128q111 -127 111 -372q0 -431 -265 -763q-233 -291 -554 -291q-137 0 -325 45zM849 1345q-92 0 -163 -107 q-93 -140 -93 -339q0 -177 132 -177q110 0 188 130q78 129 78 304q0 189 -142 189z" />
<glyph unicode=":" vert-adv-y="2505" d="M442 0l69 345h346l-70 -345h-345zM590 740l69 346h346l-70 -346h-345z" />
<glyph unicode=";" vert-adv-y="2505" d="M590 740l69 346h346l-70 -346h-345zM442 0l69 345h346l-57 -283q-46 -230 -135 -319q-88 -88 -272 -88h-20l25 123h14q85 0 117 64q26 49 49 158h-136z" />
<glyph unicode="&#x3c;" vert-adv-y="2505" d="M1377 1234l-44 -222l-733 -389l575 -397l-45 -226l-907 623z" />
<glyph unicode="=" vert-adv-y="2505" d="M164 308l39 198h1024l-39 -198h-1024zM248 728l39 197h1024l-39 -197h-1024z" />
<glyph unicode="&#x3e;" vert-adv-y="2505" d="M99 0l44 222l733 389l-576 397l45 226l907 -623z" />
<glyph unicode="?" vert-adv-y="2505" d="M375 0l49 247h297l-50 -247h-296zM459 419l8 39q27 134 87 216q60 84 221 208l70 54q180 138 180 257q0 152 -219 152q-101 0 -220 -45l-60 -177h-173l66 329q283 65 457 65q477 0 477 -272q0 -171 -186 -296l-82 -55l-69 -49q-126 -91 -172 -158q-49 -68 -73 -187 l-16 -81h-296z" />
<glyph unicode="@" vert-adv-y="2505" d="M964 6q-146 -43 -263 -43q-247 0 -387 147q-141 146 -141 416q0 401 246 697q246 295 592 295q359 0 359 -267q0 -77 -21 -182l-120 -600h86l-34 -173h-260l62 309h-12l-26 -43q-96 -160 -171 -223q-71 -60 -165 -60q-199 0 -199 256q0 246 166 442q165 197 371 197 q52 0 140 -20v17q0 186 -230 186q-243 0 -424 -244t-181 -559q0 -201 101 -316t273 -115q115 0 273 63zM1140 887l24 124q-72 24 -130 24q-136 0 -228 -136q-93 -137 -93 -330q0 -114 68 -114q62 0 151 108q84 103 208 324z" />
<glyph unicode="A" vert-adv-y="2505" d="M25 0l35 173h61l637 1307h306l113 -1307h62l-35 -173h-491l34 173h136l-20 234h-449l-114 -234h136l-34 -173h-377zM498 580h350l-53 609h-2z" />
<glyph unicode="B" vert-adv-y="2505" d="M37 0l34 173h99l227 1135h-99l35 172h555q254 0 352 -57q99 -57 99 -201q0 -180 -146 -305q-89 -76 -258 -142q100 -26 152 -55q155 -89 155 -268q0 -207 -164 -330q-163 -122 -446 -122h-595zM466 173h80q196 0 284 67q89 67 89 209q0 230 -302 230h-50zM602 851h44 q151 0 258 92q108 93 108 222q0 100 -76 124q-60 19 -191 19h-52z" />
<glyph unicode="C" vert-adv-y="2505" d="M1243 261l-44 -216q-217 -82 -427 -82q-279 0 -433 151q-155 150 -155 426q0 391 260 692q247 285 625 285q178 0 381 -66l-85 -427h-173l26 257q-74 64 -178 64q-217 0 -375 -240q-158 -241 -158 -561q0 -180 98 -283q97 -103 258 -103q153 0 380 103z" />
<glyph unicode="D" vert-adv-y="2505" d="M37 0l35 173h99l227 1135h-99l34 172h440q581 0 581 -520q0 -344 -206 -621q-252 -339 -706 -339h-405zM467 173h45q214 0 353 201q74 108 123 285q49 181 49 339q0 165 -84 241q-71 65 -216 68l-43 1z" />
<glyph unicode="E" vert-adv-y="2505" d="M37 0l35 173h148l227 1135h-148l34 172h1073l-74 -370h-184l39 198h-444l-96 -481h234l25 123h172l-84 -420h-172l24 124h-234l-94 -469h506l45 222h185l-82 -407h-1135z" />
<glyph unicode="F" vert-adv-y="2505" d="M37 0l35 173h148l227 1135h-148l34 172h1123l-74 -370h-185l39 198h-493l-106 -531h283l25 124h173l-84 -420h-173l25 124h-284l-84 -420h198l-37 -185h-642z" />
<glyph unicode="G" vert-adv-y="2505" d="M1315 685l-127 -635q-217 -87 -438 -87q-265 0 -415 154q-151 154 -151 426q0 396 258 685q259 289 621 289q172 0 374 -66l-85 -427h-173l27 257q-75 64 -173 64q-210 0 -369 -242q-158 -241 -158 -555q0 -172 89 -281q89 -108 221 -108q39 0 100 10l68 343h-185l35 173 h481z" />
<glyph unicode="H" vert-adv-y="2505" d="M37 0l35 173h98l227 1135h-98l34 172h494l-35 -172h-99l-91 -457h365l92 457h-99l35 172h493l-35 -172h-98l-227 -1135h98l-34 -173h-494l35 173h99l98 493h-365l-99 -493h99l-34 -173h-494z" />
<glyph unicode="I" vert-adv-y="2505" d="M123 0l35 173h343l227 1135h-343l34 172h982l-34 -172h-343l-227 -1135h343l-35 -173h-982z" />
<glyph unicode="J" vert-adv-y="2505" d="M117 31l97 487h173l-39 -319q85 -61 158 -61q92 0 139 57q47 56 77 208l181 905h-321l35 172h863l-34 -172h-247l-185 -925q-84 -420 -522 -420q-126 0 -302 48z" />
<glyph unicode="K" vert-adv-y="2505" d="M37 0l34 173h99l227 1135h-99l35 172h493l-34 -172h-99l-106 -531h25l542 531h-111l35 172h443l-35 -172h-116l-501 -489l354 -646h40l-34 -173h-490l34 173h124l-298 543h-24l-109 -543h99l-35 -173h-493z" />
<glyph unicode="L" vert-adv-y="2505" d="M49 0l35 173h197l227 1135h-197l34 172h691l-34 -172h-198l-224 -1123h476l62 308h160l-99 -493h-1130z" />
<glyph unicode="M" vert-adv-y="2505" d="M12 0l35 173h74l227 1135h-74l34 172h369l38 -961l435 961h362l-34 -172h-68l-227 -1135h68l-35 -173h-438l35 173h136l184 924h-6l-411 -912h-200l-34 839h-6l-170 -851h111l-35 -173h-370z" />
<glyph unicode="N" vert-adv-y="2505" d="M37 0l35 173h99l227 1135h-99l34 172h297l387 -999l165 827h-148l35 172h444l-35 -172h-98l-262 -1308h-197l-389 993l-164 -820h148l-35 -173h-444z" />
<glyph unicode="O" vert-adv-y="2505" d="M919 1517q440 0 440 -491q0 -205 -65 -428q-64 -219 -165 -358q-201 -277 -534 -277q-427 0 -427 491q0 207 64 427t166 360q202 276 521 276zM882 1345q-230 0 -342 -451q-77 -313 -77 -480q0 -278 189 -278q199 0 312 370q38 126 71 315q28 159 28 246q0 278 -181 278z " />
<glyph unicode="P" vert-adv-y="2505" d="M37 0l35 173h197l227 1135h-197l34 172h634q243 0 350 -68t107 -230q0 -263 -203 -438q-204 -176 -516 -176h-61l-79 -395h296l-34 -173h-790zM679 740h38q183 0 284 104q101 105 101 287q0 101 -56 139q-55 38 -192 38h-62z" />
<glyph unicode="Q" vert-adv-y="2505" d="M858 9q179 -79 351 -90q-102 -158 -241 -285q-191 87 -308 328h-17q-475 0 -475 495q0 204 64 424q64 219 166 360q201 276 521 276q219 0 331 -125q109 -122 109 -377q0 -300 -108 -556q-86 -202 -216 -324q-71 -66 -177 -126zM882 1345q-225 0 -337 -432 q-31 -120 -57 -272q-25 -146 -25 -227q0 -278 189 -278q199 0 312 370q38 126 71 315q28 159 28 246q0 278 -181 278z" />
<glyph unicode="R" vert-adv-y="2505" d="M37 0l35 173h98l227 1135h-98l34 172h542q242 0 336 -58t94 -208q0 -193 -140 -341q-84 -90 -246 -177l257 -523h75l-34 -173h-312l-308 617h-42l-89 -444h173l-34 -173h-568zM590 790h49q139 0 236 110q98 111 98 266q0 102 -62 124q-49 18 -160 18h-58z" />
<glyph unicode="S" vert-adv-y="2505" d="M123 56l77 384h173l-18 -211q146 -93 262 -93q121 0 199 70q79 69 79 174q0 74 -110 148l-17 12q-24 16 -42 29l-119 84q-147 104 -202 179q-56 76 -56 179q0 217 164 362t417 145q173 0 396 -73l-75 -376h-173l19 217q-100 59 -199 59q-95 0 -162 -68q-67 -67 -67 -155 q0 -82 174 -203l127 -88q153 -106 198 -165t45 -153q0 -195 -147 -354q-181 -196 -514 -196q-170 0 -429 93z" />
<glyph unicode="T" vert-adv-y="2505" d="M244 0l35 173h222l227 1135h-234l-45 -222h-185l79 394h1135l-79 -394h-185l45 222h-235l-227 -1135h222l-34 -173h-741z" />
<glyph unicode="U" vert-adv-y="2505" d="M283 1308l34 172h494l-35 -172h-98l-149 -742q-34 -169 -34 -240q0 -84 60 -136q60 -53 157 -53q131 0 195 79q64 78 107 292l160 800h-99l35 172h394l-34 -172h-99l-153 -765q-42 -210 -91 -306q-50 -99 -147 -170q-143 -104 -358 -104q-196 0 -312 87t-116 237 q0 83 25 208l163 813h-99z" />
<glyph unicode="V" vert-adv-y="2505" d="M446 0l-114 1308h-58l34 172h487l-35 -172h-128l89 -1007l513 1007h-126l35 172h370l-35 -172h-76l-664 -1308h-292z" />
<glyph unicode="W" vert-adv-y="2505" d="M213 0l122 1308h-60l34 172h388l-35 -172h-90l-73 -787h6l269 750h228l-15 -759h6l247 796h-57l35 172h296l-35 -172h-61l-408 -1308h-244l13 867v0l-318 -867h-248z" />
<glyph unicode="X" vert-adv-y="2505" d="M12 0l34 173h83l487 563l-207 572h-111l35 172h555l-35 -172h-115l118 -323l260 323h-95l35 172h419l-35 -172h-104l-419 -490l236 -645h97l-34 -173h-543l35 173h114l-144 396l-332 -396h95l-34 -173h-395z" />
<glyph unicode="Y" vert-adv-y="2505" d="M238 0l34 173h247l96 477l-247 658h-93l34 172h543l-34 -172h-96l158 -423l304 423h-102l34 172h395l-35 -172h-86l-479 -658l-96 -477h247l-35 -173h-789z" />
<glyph unicode="Z" vert-adv-y="2505" d="M111 0l37 185l893 1123h-446l-45 -222h-185l79 394h958l-37 -185l-886 -1110h491l49 247h185l-86 -432h-1007z" />
<glyph unicode="[" vert-adv-y="2505" d="M286 -296l375 1875h691l-35 -173h-419l-306 -1529h419l-34 -173h-691z" />
<glyph unicode="\" vert-adv-y="2505" d="M1170 -296h-220l-634 1875h219z" />
<glyph unicode="]" vert-adv-y="2505" d="M1199 1579l-375 -1875h-691l34 173h420l306 1529h-420l35 173h691z" />
<glyph unicode="^" vert-adv-y="2505" d="M254 543l656 937l281 -937h-219l-147 518l-352 -518h-219z" />
<glyph unicode="_" vert-adv-y="2505" d="M-39 -197l39 197h1229l-40 -197h-1228z" />
<glyph unicode="`" vert-adv-y="2505" d="M945 1283l-257 321h285l144 -321h-172z" />
<glyph unicode="a" vert-adv-y="2505" d="M321 773l50 253q271 84 486 84q207 0 298 -50q89 -49 89 -173q0 -39 -7 -74l-128 -640h111l-35 -173h-367l-19 105q-181 -130 -371 -130q-286 0 -286 246q0 170 146 296q173 149 533 149h90l23 113q9 44 9 68q0 93 -166 93q-126 0 -240 -52l-44 -115h-172zM836 292 l46 226h-46q-165 0 -274 -70q-110 -70 -110 -176q0 -102 116 -102q130 0 268 122z" />
<glyph unicode="b" vert-adv-y="2505" d="M136 0l282 1406h-99l35 173h394l-130 -654q185 185 378 185q305 0 305 -367q0 -267 -149 -494q-181 -274 -519 -274q-92 0 -200 25h-297zM473 203l27 -7q82 -21 147 -21q160 0 256 149q97 150 97 384q0 175 -148 175q-127 0 -277 -171z" />
<glyph unicode="c" vert-adv-y="2505" d="M1244 266l-43 -214q-250 -77 -464 -77q-568 0 -568 447q0 299 229 493q229 195 588 195q203 0 403 -54l-73 -365h-172l16 203q-102 47 -222 47q-204 0 -326 -135q-123 -135 -123 -350q0 -284 341 -284q147 0 414 94z" />
<glyph unicode="d" vert-adv-y="2505" d="M800 0l32 160q-186 -185 -379 -185q-304 0 -304 368q0 266 149 493q181 275 518 275q92 0 201 -25l64 320h-123l34 173h420l-281 -1406h98l-34 -173h-395zM977 883l-27 7q-79 21 -148 21q-160 0 -256 -150q-96 -149 -96 -383q0 -175 147 -175q127 0 278 171z" />
<glyph unicode="e" vert-adv-y="2505" d="M1230 254l-40 -203q-256 -76 -485 -76q-255 0 -397 112q-141 111 -141 317q0 292 206 500q205 207 501 207q202 0 312 -104q111 -104 111 -292q0 -75 -19 -176l-11 -58h-787q-3 -29 -3 -50q0 -262 320 -262q169 0 433 85zM520 654h481q9 45 9 78q0 202 -183 202 q-115 0 -192 -67q-74 -65 -115 -213z" />
<glyph unicode="f" vert-adv-y="2505" d="M120 0l34 173h272l140 703h-271l37 185h271l19 92q93 451 585 451q163 0 327 -77l-52 -256h-172l-1 121q-69 38 -140 38q-198 0 -249 -266l-20 -103h413l-37 -185h-413l-141 -703h315l-34 -173h-883z" />
<glyph unicode="g" vert-adv-y="2505" d="M306 24q-78 63 -78 117q0 113 213 247q-151 94 -151 246q0 195 149 336t357 141q70 0 163 -25l475 24l-104 -211l-188 31q35 -77 35 -150q0 -188 -149 -324q-149 -135 -360 -135q-40 0 -86 9q-92 -57 -92 -103q0 -42 158 -42h150q317 0 317 -199q0 -172 -179 -289 t-454 -117q-193 0 -312 53q-118 53 -118 144q0 142 254 247zM487 0q-113 -82 -113 -154q0 -93 184 -93q110 0 186 48q75 48 75 116q0 56 -55 71q-42 12 -127 12h-150zM782 938q-86 0 -146 -90q-61 -89 -61 -211q0 -144 119 -144q87 0 146 87q60 88 60 210q0 148 -118 148z " />
<glyph unicode="h" vert-adv-y="2505" d="M37 0l35 173h104l247 1233h-105l35 173h395l-131 -654q193 185 405 185q240 0 240 -205q0 -60 -20 -160l-114 -572h105l-35 -173h-518l34 173h130l94 472q19 95 19 137q0 101 -107 101q-112 0 -282 -172l-108 -538h130l-35 -173h-518z" />
<glyph unicode="i" vert-adv-y="2505" d="M140 0l34 173h370l148 740h-370l35 173h666l-183 -913h371l-35 -173h-1036zM766 1283l60 296h296l-59 -296h-297z" />
<glyph unicode="j" vert-adv-y="2505" d="M8 -356l81 405h173l-22 -232q94 -68 184 -68q126 0 179 100q42 78 74 239l164 825h-431l34 173h728l-196 -981q-54 -272 -201 -399q-146 -126 -402 -126q-148 0 -365 64zM916 1283l59 296h296l-59 -296h-296z" />
<glyph unicode="k" vert-adv-y="2505" d="M37 0l34 173h99l247 1233h-99l35 173h394l-192 -962h49l343 296h-123l35 173h515l-34 -173h-148l-319 -277l254 -463h99l-34 -173h-471l34 173l-175 320h-50l-64 -320h99l-35 -173h-493z" />
<glyph unicode="l" vert-adv-y="2505" d="M140 0l34 173h370l247 1233h-370l35 173h666l-282 -1406h371l-35 -173h-1036z" />
<glyph unicode="m" vert-adv-y="2505" d="M25 0l35 173h80l148 740h-80l34 173h302l-37 -185q163 209 288 209q114 0 114 -144q0 -9 -2 -40q0 -17 -1 -25q149 210 280 210q123 0 123 -131q0 -55 -25 -180l-125 -627h86l-34 -173h-309l127 636l22 115q13 68 13 101q0 41 -27 41q-52 0 -176 -216l-135 -677h-222 l127 636l21 115q14 75 14 102q0 39 -27 39q-53 0 -176 -215l-136 -677h-302z" />
<glyph unicode="n" vert-adv-y="2505" d="M37 0l35 173h104l148 740h-104l34 173h389l-32 -161q112 102 188 140q90 45 224 45q239 0 239 -205q0 -60 -20 -160l-114 -572h105l-35 -173h-518l34 173h130l94 472q19 95 19 137q0 101 -107 101q-112 0 -282 -172l-108 -538h130l-35 -173h-518z" />
<glyph unicode="o" vert-adv-y="2505" d="M843 1110q209 0 331 -118q121 -117 121 -321q0 -287 -201 -491q-201 -205 -485 -205q-183 0 -300 96q-146 121 -146 344q0 286 200 490q201 205 480 205zM810 938q-138 0 -238 -160q-101 -161 -101 -377q0 -253 179 -253q121 0 215 128q123 168 123 409q0 253 -178 253z " />
<glyph unicode="p" vert-adv-y="2505" d="M219 913l35 173h395l-32 -161q185 185 378 185q305 0 305 -367q0 -267 -149 -494q-180 -274 -519 -274q-92 0 -200 25l-45 -222h124l-35 -173h-518l34 173h99l227 1135h-99zM472 203l27 -7q81 -21 147 -21q160 0 256 149q97 150 97 383q0 176 -148 176q-127 0 -277 -171z " />
<glyph unicode="q" vert-adv-y="2505" d="M1313 1086l-261 -1308h123l-35 -173h-518l35 173h98l77 382q-186 -185 -379 -185q-304 0 -304 368q0 267 149 493q181 275 518 275q92 0 201 -25h296zM977 883l-27 7q-79 21 -148 21q-160 0 -256 -150q-96 -149 -96 -383q0 -175 147 -175q127 0 278 171z" />
<glyph unicode="r" vert-adv-y="2505" d="M56 0l35 173h247l148 740h-247l35 173h542l-32 -161q184 185 369 185q117 0 232 -54l-70 -353h-173l6 152q-49 30 -103 30q-120 0 -306 -185l-105 -527h321l-35 -173h-864z" />
<glyph unicode="s" vert-adv-y="2505" d="M198 52l63 318h173l-5 -149q130 -73 246 -73q188 0 188 142q0 81 -146 125l-136 41q-267 80 -267 256t150 287q149 111 401 111q197 0 375 -59l-62 -311h-172l6 156q-92 42 -201 42q-201 0 -201 -144q0 -61 152 -111l158 -52q242 -80 242 -245q0 -178 -147 -294 q-146 -117 -383 -117q-194 0 -434 77z" />
<glyph unicode="t" vert-adv-y="2505" d="M252 888l34 173h272l54 271h296l-54 -271h432l-35 -173h-432l-95 -475q-16 -80 -16 -130q0 -99 118 -99q111 0 314 86l-41 -202q-231 -93 -392 -93q-139 0 -221 65q-83 64 -83 176q0 75 23 189l97 483h-271z" />
<glyph unicode="u" vert-adv-y="2505" d="M213 913l34 173h389l-129 -646q-19 -95 -19 -136q0 -102 106 -102q114 0 283 172l108 539h-130l35 173h413l-182 -913h105l-35 -173h-389l33 160q-112 -101 -189 -140q-89 -45 -225 -45q-237 0 -237 205q0 66 19 161l114 572h-104z" />
<glyph unicode="v" vert-adv-y="2505" d="M448 0l-152 913h-101l34 173h556l-35 -173h-142l107 -653l395 653h-130l34 173h420l-35 -173h-104l-551 -913h-296z" />
<glyph unicode="w" vert-adv-y="2505" d="M220 0l49 913h-74l35 173h394l-34 -173h-82l-28 -510h4l213 473h246l14 -503h4l188 540h-78l34 173h329l-35 -173h-74l-319 -913h-246l-17 602h-4l-272 -602h-247z" />
<glyph unicode="x" vert-adv-y="2505" d="M25 0l34 173h126l376 361l-208 379h-98l35 173h514l-34 -173h-79l112 -203l214 203h-74l35 173h409l-34 -173h-95l-374 -349l218 -391h137l-35 -173h-588l35 173h110l-118 211l-217 -211h100l-35 -173h-466z" />
<glyph unicode="y" vert-adv-y="2505" d="M510 33l-215 880h-100l34 173h585l-35 -173h-149l127 -517l342 517h-147l34 173h448l-35 -173h-102l-754 -1135h201l-35 -173h-683l34 173h198z" />
<glyph unicode="z" vert-adv-y="2505" d="M148 0l39 197l700 716h-384l-39 -197h-173l74 370h907l-34 -173l-710 -728h417l40 197h172l-76 -382h-933z" />
<glyph unicode="{" vert-adv-y="2505" d="M292 728h83q156 0 219 52q62 52 62 182v21l-5 156v27q0 224 134 319q133 94 454 94h124l-35 -173h-87q-202 0 -245 -50q-41 -43 -41 -153l1 -107q1 -192 -67 -289q-67 -99 -243 -167q186 -72 186 -227q0 -91 -57 -226l-45 -107q-33 -78 -33 -111q0 -92 238 -92h87 l-34 -173h-124q-250 0 -359 53q-108 53 -108 175q0 84 55 212l67 156q40 93 40 139q0 116 -219 116h-83z" />
<glyph unicode="|" vert-adv-y="2505" d="M456 -296l375 1875h197l-375 -1875h-197z" />
<glyph unicode="}" vert-adv-y="2505" d="M1194 555h-83q-156 0 -218 -52q-63 -52 -63 -182v-21l5 -156v-27q0 -224 -134 -319q-133 -95 -454 -94h-124l35 173h87q202 0 245 50q41 44 41 153l-1 108q-1 190 67 289q67 98 243 166q-186 73 -186 226q0 91 57 227l45 107q33 79 33 111q0 92 -238 92h-87l34 173h124 q249 0 358 -53q109 -52 109 -175q0 -84 -55 -212l-67 -156q-40 -93 -40 -139q0 -116 219 -116h83z" />
<glyph unicode="~" vert-adv-y="2505" d="M363 432h-172q34 160 88 245q98 154 271 154q110 0 222 -97l61 -53q82 -71 130 -71q101 0 151 204h172q-34 -160 -88 -245q-98 -154 -271 -154q-111 0 -222 97l-61 53q-82 71 -130 71q-101 0 -151 -204z" />
<glyph vert-adv-y="2505" d="M123 493l91 149h71q14 105 46 222h-134l91 148h101q74 138 136 213q243 293 644 293q143 0 306 -41l-41 -204q-185 72 -298 72q-188 0 -317 -123q-76 -73 -139 -210h602l-91 -148h-563q-33 -117 -52 -222h479l-91 -149h-393q9 -139 82 -223q96 -110 254 -110 q122 0 321 85l-43 -216q-202 -66 -369 -66q-278 0 -418 178q-99 126 -118 352h-157z" />
<glyph unicode="&#xa0;" vert-adv-y="2505" />
<glyph unicode="&#xa1;" vert-adv-y="2505" d="M979 1086l-49 -247h-296l49 247h296zM834 666l-92 -765l-59 -296h-296l59 296l217 765h171z" />
<glyph unicode="&#xa2;" vert-adv-y="2505" d="M867 1138q-108 -35 -179 -145q-96 -149 -96 -341q0 -123 48 -193q26 -38 78 -65zM632 -37l42 212q-127 16 -192 46q-218 99 -218 381q0 342 226 545q156 140 413 173l40 197h173l-39 -191q135 -9 288 -39l-67 -337h-173l6 150q-45 25 -92 34l-154 -768q165 11 308 57 l-43 -215q-132 -26 -304 -36l-41 -209h-173z" />
<glyph unicode="&#xa3;" vert-adv-y="2505" d="M119 0l49 247q99 1 164 72q78 87 121 303l16 81h-172l34 173h173l24 118q107 523 542 523q145 0 315 -58l-59 -299h-173l8 163q-62 22 -109 22q-158 0 -196 -191l-56 -278h247l-35 -173h-247l-7 -39q-56 -290 -322 -417h719l-49 -247h-987z" />
<glyph unicode="&#xa4;" vert-adv-y="2505" d="M428 1006l-157 197l146 122l158 -197q140 82 281 82q142 0 250 -82l236 197l97 -122l-235 -197q38 -95 38 -176q0 -183 -145 -355l158 -197l-147 -122l-158 197q-146 -83 -283 -83q-126 0 -248 83l-236 -197l-98 122l237 197q-39 96 -39 177q0 181 145 354zM818 1013 q-130 0 -232 -100q-101 -99 -101 -226q0 -86 51 -145q65 -74 173 -74q128 0 229 100q102 100 102 224q0 96 -63 158q-62 63 -159 63z" />
<glyph unicode="&#xa5;" vert-adv-y="2505" d="M259 0l35 173h222l33 166h-296l27 136h297l40 203h-296l27 136h202l-245 494h-24l34 172h503l-35 -172h-123l213 -454l368 454h-124l35 172h354l-35 -172h-24l-419 -494h209l-28 -136h-296l-40 -203h296l-27 -136h-297l-33 -166h222l-34 -173h-741z" />
<glyph unicode="&#xa6;" vert-adv-y="2505" d="M456 -296l148 740h197l-148 -740h-197zM683 839l148 740h197l-148 -740h-197z" />
<glyph unicode="&#xa7;" vert-adv-y="2505" d="M102 -256l64 318h172l-5 -153q130 -57 237 -57q100 0 169 44q68 44 68 107q0 75 -170 160l-146 73q-235 118 -235 291q0 166 232 372q-129 80 -129 208q0 174 164 292t414 118q157 0 374 -45l-60 -300h-172l3 142q-102 31 -190 31q-102 0 -167 -43q-65 -42 -65 -106 q0 -63 159 -141l122 -60q141 -69 196 -137q56 -70 56 -172q0 -179 -203 -375q120 -98 120 -224q0 -176 -165 -292q-166 -116 -420 -116q-169 0 -423 65zM860 383q100 118 100 187q0 88 -158 167l-167 84l-22 10q-108 -116 -108 -189q0 -57 47 -96q37 -30 112 -67l173 -85z " />
<glyph unicode="&#xa8;" vert-adv-y="2505" d="M538 1283l44 222h222l-44 -222h-222zM982 1283l44 222h222l-44 -222h-222z" />
<glyph unicode="&#xa9;" vert-adv-y="2505" d="M915 1518q201 0 314 -139q114 -138 114 -395q0 -412 -219 -716q-219 -305 -524 -305q-171 0 -279 114q-136 143 -136 418q0 407 217 715t513 308zM895 1394q-227 0 -398 -263q-172 -264 -172 -609q0 -436 305 -436q204 0 363 209q210 275 210 663q0 436 -308 436z M942 344l-22 -8q-126 -46 -212 -46q-132 0 -210 87q-77 87 -77 241q0 226 138 393q137 167 327 167q94 0 197 -27l15 -4l-39 -197h-85l19 93q-60 24 -119 24q-117 0 -199 -135q-82 -136 -82 -316q0 -203 170 -203q95 0 203 51z" />
<glyph unicode="&#xaa;" vert-adv-y="2505" d="M915 823q-199 -107 -333 -107q-240 0 -240 185q0 191 207 266q120 44 315 44h128l7 32q1 3 2 18l1 8v8q0 92 -185 92q-64 0 -174 -22l-16 -80h-173l38 189q194 62 385 62q368 0 368 -173q0 -44 -13 -108l-75 -373h136l-30 -148h-335zM944 972l19 92h-118 q-250 0 -250 -112q0 -62 89 -62q104 0 260 82z" />
<glyph unicode="&#xab;" vert-adv-y="2505" d="M1203 242l-172 -143l-355 444l533 444l115 -143l-299 -301zM710 242l-172 -143l-355 444l533 444l114 -143l-298 -301z" />
<glyph unicode="&#xac;" vert-adv-y="2505" d="M190 518l39 198h1032l-104 -519h-198l65 321h-834z" />
<glyph unicode="&#xad;" vert-adv-y="2505" d="M252 518l39 198h933l-40 -198h-932z" />
<glyph unicode="&#xae;" vert-adv-y="2505" d="M915 1518q201 0 314 -139q114 -138 114 -395q0 -412 -219 -716q-219 -305 -524 -305q-171 0 -279 114q-136 143 -136 418q0 407 217 715t513 308zM895 1394q-227 0 -398 -263q-172 -264 -172 -609q0 -436 305 -436q204 0 363 209q210 275 210 663q0 436 -308 436z M429 317l19 99h25l130 649h-25l20 98h272q179 0 179 -163q0 -162 -173 -264l96 -320h26l-19 -99h-143l-110 367h-51l-54 -268h37l-20 -99h-209zM690 758h7q84 0 139 63t55 154q0 90 -103 90h-37z" />
<glyph unicode="&#xaf;" vert-adv-y="2505" d="M336 1678h1228l-39 -198h-1229z" />
<glyph unicode="&#xb0;" vert-adv-y="2505" d="M942 1604q105 0 173 -68q69 -68 69 -171q0 -137 -112 -245t-251 -108q-94 0 -159 55q-82 70 -82 184q0 137 111 245q112 108 251 108zM915 1456q-73 0 -128 -54q-56 -54 -56 -125q0 -117 119 -117q64 0 115 43q68 58 68 135q0 118 -118 118z" />
<glyph unicode="&#xb1;" vert-adv-y="2505" d="M121 0l39 197h987l-39 -197h-987zM575 296l72 358h-395l39 197h395l72 358h197l-72 -358h395l-39 -197h-395l-72 -358h-197z" />
<glyph unicode="&#xb2;" vert-adv-y="2505" d="M381 728l34 173q105 125 373 229l33 13q114 45 142 68q33 27 33 73q0 85 -166 85q-85 0 -163 -26l-29 -85h-148l40 202q175 58 347 58q357 0 357 -209q0 -156 -197 -231l-107 -41l-36 -13q-148 -55 -213 -123h493l-35 -173h-758z" />
<glyph unicode="&#xb3;" vert-adv-y="2505" d="M396 751l35 174h148l3 -47q76 -14 157 -14q204 0 204 97q0 61 -84 78q-65 13 -205 13h-96l30 148h99q325 0 325 103q0 67 -151 67q-75 0 -189 -26l-25 -64h-148l36 180q189 58 392 58q325 0 325 -177q0 -146 -245 -216q169 -51 169 -164q0 -111 -119 -178t-323 -67 q-170 0 -338 35z" />
<glyph unicode="&#xb4;" vert-adv-y="2505" d="M624 1283l272 321h285l-385 -321h-172z" />
<glyph unicode="&#xb5;" vert-adv-y="2505" d="M220 913l34 173h389l-129 -646q-19 -95 -19 -136q0 -102 107 -102q113 0 282 172l108 539h-105l35 173h388l-182 -913h105l-35 -173h-389l33 160q-179 -172 -299 -172q-64 0 -113 36l-83 -419h-284l261 1308h-104z" />
<glyph unicode="&#xb6;" vert-adv-y="2505" d="M436 -296l207 1036q-145 34 -218 92q-109 87 -109 240q0 189 118 305t317 116q36 0 94 -5l69 -6q19 -2 55 -2h340l-355 -1776h-173l326 1629h-173l-326 -1629h-172z" />
<glyph unicode="&#xb7;" vert-adv-y="2505" d="M548 469l64 320h321l-64 -320h-321z" />
<glyph unicode="&#xb8;" vert-adv-y="2505" d="M541 0h136l-98 -113q202 -26 202 -136q0 -73 -85 -128t-197 -55q-83 0 -183 30l18 91q68 -15 116 -15q133 0 133 69q0 75 -179 75h-21z" />
<glyph unicode="&#xb9;" vert-adv-y="2505" d="M466 728l30 148h231l89 443l-241 -48l29 148l486 98l-128 -641h231l-30 -148h-697z" />
<glyph unicode="&#xba;" vert-adv-y="2505" d="M930 1517q380 0 380 -323q0 -207 -157 -342q-157 -136 -398 -136q-375 0 -375 317q0 207 157 345q157 139 393 139zM896 1369q-110 0 -189 -97t-79 -228q0 -80 47 -130q48 -50 121 -50q97 0 172 78q96 101 96 247q0 80 -47 130t-121 50z" />
<glyph unicode="&#xbb;" vert-adv-y="2505" d="M122 242l299 301l-178 301l172 143l355 -444l-533 -444zM616 242l299 301l-179 301l172 143l356 -444l-533 -444z" />
<glyph unicode="&#xbc;" vert-adv-y="2505" d="M70 -37l1208 1554h143l-1209 -1554h-142zM904 0l36 179h-339l27 136l434 475h185l-95 -475h99l-28 -136h-98l-36 -179h-185zM766 315h201l56 282zM322 728l118 592l-155 -37l29 148l363 86l-158 -789h-197z" />
<glyph unicode="&#xbd;" vert-adv-y="2505" d="M704 0l34 173q79 121 216 211l29 19q128 85 128 175q0 76 -75 76q-32 0 -76 -25l-27 -86h-118l38 189q148 58 237 58q221 0 221 -189q0 -169 -192 -270l-16 -8q-23 -12 -34 -19l-32 -20q-87 -55 -128 -124h320l-32 -160h-493zM313 728l118 592l-155 -37l29 148l363 86 l-158 -789h-197zM30 -37l1209 1554h142l-1209 -1554h-142z" />
<glyph unicode="&#xbe;" vert-adv-y="2505" d="M183 751l32 162h115l-9 -43q49 -19 89 -19q124 0 124 123q0 84 -152 84h-42l27 136h46q191 0 191 126q0 62 -76 62q-43 0 -110 -27l-9 -44h-117l31 152q145 55 252 55q219 0 219 -164q0 -154 -206 -229q128 -47 128 -156q0 -107 -90 -180t-224 -73q-86 0 -219 35zM84 -37 l1209 1554h142l-1209 -1554h-142zM906 0l36 179h-339l27 136l434 475h185l-95 -475h99l-28 -136h-98l-36 -179h-185zM768 315h201l56 282z" />
<glyph unicode="&#xbf;" vert-adv-y="2505" d="M1068 1086l-49 -247h-296l49 247h296zM984 666l-7 -38q-30 -151 -104 -238q-64 -77 -204 -186l-70 -54q-181 -139 -181 -258q0 -151 221 -151q99 0 219 45l60 177h173l-66 -329q-283 -66 -457 -66q-478 0 -478 273q0 170 186 295l82 55l69 50q124 89 173 158 q48 67 72 187l16 80h296z" />
<glyph unicode="&#xc0;" vert-adv-y="2505" d="M25 0l35 173h61l637 1307h306l113 -1307h62l-35 -173h-491l34 173h136l-20 234h-449l-114 -234h136l-34 -173h-377zM498 580h350l-53 609h-2zM935 1604l-256 321h285l144 -321h-173z" />
<glyph unicode="&#xc1;" vert-adv-y="2505" d="M25 0l35 173h61l637 1307h306l113 -1307h62l-35 -173h-491l34 173h136l-20 234h-449l-114 -234h136l-34 -173h-377zM498 580h350l-53 609h-2zM763 1604l272 321h285l-385 -321h-172z" />
<glyph unicode="&#xc2;" vert-adv-y="2505" d="M25 0l35 173h61l637 1307h306l113 -1307h62l-35 -173h-491l34 173h136l-20 234h-449l-114 -234h136l-34 -173h-377zM498 580h350l-53 609h-2zM584 1604l273 321h285l144 -321h-160l-152 189h-2l-227 -189h-161z" />
<glyph unicode="&#xc3;" vert-adv-y="2505" d="M25 0l35 173h61l637 1307h306l113 -1307h62l-35 -173h-491l34 173h136l-20 234h-449l-114 -234h136l-34 -173h-377zM498 580h350l-53 609h-2zM732 1604h-148q33 140 79 212q72 109 185 109q64 0 119 -43l33 -26l10 -8q11 -9 16 -13q51 -46 84 -46q65 0 93 136h148 q-32 -141 -79 -212q-71 -109 -185 -109q-67 0 -119 42l-33 27l-10 8l-7 6l-5 4l-3 3l-2 1q-54 45 -83 45q-64 0 -93 -136z" />
<glyph unicode="&#xc4;" vert-adv-y="2505" d="M25 0l35 173h61l637 1307h306l113 -1307h62l-35 -173h-491l34 173h136l-20 234h-449l-114 -234h136l-34 -173h-377zM498 580h350l-53 609h-2zM602 1604l45 222h222l-44 -222h-223zM1047 1604l44 222h222l-44 -222h-222z" />
<glyph unicode="&#xc5;" vert-adv-y="2505" d="M25 0l35 173h61l637 1307h306l113 -1307h62l-35 -173h-491l34 173h136l-20 234h-449l-114 -234h136l-34 -173h-377zM498 580h350l-53 609h-2zM1005 1950q84 0 138 -53t54 -135q0 -110 -88 -195q-87 -86 -200 -86q-74 0 -125 43q-65 55 -65 146q0 109 87 194q88 86 199 86 zM984 1839q-60 0 -106 -45t-46 -103q0 -98 99 -98q54 0 97 36q56 47 56 112q0 98 -100 98z" />
<glyph unicode="&#xc6;" vert-adv-y="2505" d="M12 0l35 173h61l654 1307h700l-64 -320h-185l30 148h-148l-97 -481h222l-34 -173h-222l-94 -469h173l32 160h185l-69 -345h-629l81 407h-224l-114 -234h87l-35 -173h-345zM678 580l121 609h-2l-295 -609h176z" />
<glyph unicode="&#xc7;" vert-adv-y="2505" d="M1243 261l-44 -216q-220 -82 -427 -82q-279 0 -433 151q-155 150 -155 426q0 392 260 692q247 285 625 285q179 0 381 -66l-85 -427h-173l26 257q-74 64 -178 64q-217 0 -375 -240q-158 -241 -158 -561q0 -180 98 -283q97 -103 258 -103q153 0 380 103zM667 0h136 l-98 -113q202 -25 202 -135q0 -74 -85 -129t-197 -55q-81 0 -183 30l18 91q69 -15 116 -15q133 0 133 69q0 75 -179 75h-20z" />
<glyph unicode="&#xc8;" vert-adv-y="2505" d="M37 0l35 173h148l227 1135h-148l34 172h1073l-74 -370h-184l39 198h-444l-96 -481h234l25 123h172l-84 -420h-172l24 124h-234l-94 -469h506l45 222h185l-82 -407h-1135zM901 1604l-257 321h285l144 -321h-172z" />
<glyph unicode="&#xc9;" vert-adv-y="2505" d="M37 0l35 173h148l227 1135h-148l34 172h1073l-74 -370h-184l39 198h-444l-96 -481h234l25 123h172l-84 -420h-172l24 124h-234l-94 -469h506l45 222h185l-82 -407h-1135zM827 1604l272 321h285l-385 -321h-172z" />
<glyph unicode="&#xca;" vert-adv-y="2505" d="M37 0l35 173h148l227 1135h-148l34 172h1073l-74 -370h-184l39 198h-444l-96 -481h234l25 123h172l-84 -420h-172l24 124h-234l-94 -469h506l45 222h185l-82 -407h-1135zM617 1604l272 321h286l144 -321h-160l-152 189h-2l-228 -189h-160z" />
<glyph unicode="&#xcb;" vert-adv-y="2505" d="M37 0l35 173h148l227 1135h-148l34 172h1073l-74 -370h-184l39 198h-444l-96 -481h234l25 123h172l-84 -420h-172l24 124h-234l-94 -469h506l45 222h185l-82 -407h-1135zM580 1604l44 222h222l-44 -222h-222zM1024 1604l44 222h223l-45 -222h-222z" />
<glyph unicode="&#xcc;" vert-adv-y="2505" d="M123 0l35 173h343l227 1135h-343l34 172h982l-34 -172h-343l-227 -1135h343l-35 -173h-982zM935 1604l-257 321h285l145 -321h-173z" />
<glyph unicode="&#xcd;" vert-adv-y="2505" d="M123 0l35 173h343l227 1135h-343l34 172h982l-34 -172h-343l-227 -1135h343l-35 -173h-982zM762 1604l273 321h285l-385 -321h-173z" />
<glyph unicode="&#xce;" vert-adv-y="2505" d="M123 0l35 173h343l227 1135h-343l34 172h982l-34 -172h-343l-227 -1135h343l-35 -173h-982zM584 1604l272 321h285l145 -321h-161l-151 189h-2l-228 -189h-160z" />
<glyph unicode="&#xcf;" vert-adv-y="2505" d="M123 0l35 173h343l227 1135h-343l34 172h982l-34 -172h-343l-227 -1135h343l-35 -173h-982zM602 1604l44 222h222l-44 -222h-222zM1046 1604l44 222h222l-44 -222h-222z" />
<glyph unicode="&#xd0;" vert-adv-y="2505" d="M37 0l35 173h99l99 496h-136l35 173h135l94 466h-99l34 172h440q581 0 581 -520q0 -344 -206 -621q-252 -339 -706 -339h-405zM467 173h45q214 0 353 201q74 108 123 285q49 181 49 339q0 165 -84 241q-71 65 -216 68l-43 1l-93 -466h197l-35 -173h-197z" />
<glyph unicode="&#xd1;" vert-adv-y="2505" d="M37 0l35 173h99l227 1135h-99l34 172h297l387 -999l165 827h-148l35 172h444l-35 -172h-98l-262 -1308h-197l-389 993l-164 -820h148l-35 -173h-444zM728 1604h-148q33 140 79 212q72 109 186 109q62 0 118 -43l34 -26l10 -8q9 -8 15 -13q51 -46 84 -46q65 0 93 136h149 q-33 -141 -81 -214q-70 -107 -184 -107q-67 0 -119 42l-33 27l-10 8q-11 9 -15 13l-2 1q-54 45 -83 45q-64 0 -93 -136z" />
<glyph unicode="&#xd2;" vert-adv-y="2505" d="M919 1517q440 0 440 -491q0 -205 -65 -428q-64 -219 -165 -358q-201 -277 -534 -277q-427 0 -427 491q0 207 64 427t166 360q202 276 521 276zM882 1345q-230 0 -342 -451q-77 -313 -77 -480q0 -278 189 -278q199 0 312 370q38 126 71 315q28 159 28 246q0 278 -181 278z M936 1604l-257 321h285l145 -321h-173z" />
<glyph unicode="&#xd3;" vert-adv-y="2505" d="M919 1517q440 0 440 -491q0 -205 -65 -428q-64 -219 -165 -358q-201 -277 -534 -277q-427 0 -427 491q0 207 64 427t166 360q202 276 521 276zM882 1345q-230 0 -342 -451q-77 -313 -77 -480q0 -278 189 -278q199 0 312 370q38 126 71 315q28 159 28 246q0 278 -181 278z M763 1604l273 321h285l-385 -321h-173z" />
<glyph unicode="&#xd4;" vert-adv-y="2505" d="M919 1517q440 0 440 -491q0 -205 -65 -428q-64 -219 -165 -358q-201 -277 -534 -277q-427 0 -427 491q0 207 64 427t166 360q202 276 521 276zM882 1345q-230 0 -342 -451q-77 -313 -77 -480q0 -278 189 -278q199 0 312 370q38 126 71 315q28 159 28 246q0 278 -181 278z M585 1604l273 321h285l144 -321h-160l-152 189h-2l-228 -189h-160z" />
<glyph unicode="&#xd5;" vert-adv-y="2505" d="M919 1517q440 0 440 -491q0 -205 -65 -428q-64 -219 -165 -358q-201 -277 -534 -277q-427 0 -427 491q0 207 64 427t166 360q202 276 521 276zM882 1345q-230 0 -342 -451q-77 -313 -77 -480q0 -278 189 -278q199 0 312 370q38 126 71 315q28 159 28 246q0 278 -181 278z M733 1604h-149q34 142 81 214q71 107 184 107q64 0 119 -43l33 -26l10 -8q11 -9 16 -13q51 -46 84 -46q64 0 93 136h148q-33 -141 -81 -214q-70 -107 -184 -107q-65 0 -118 42l-34 27q-19 16 -25 21q-49 46 -85 46q-63 0 -92 -136z" />
<glyph unicode="&#xd6;" vert-adv-y="2505" d="M919 1517q440 0 440 -491q0 -205 -65 -428q-64 -219 -165 -358q-201 -277 -534 -277q-427 0 -427 491q0 207 64 427t166 360q202 276 521 276zM882 1345q-230 0 -342 -451q-77 -313 -77 -480q0 -278 189 -278q199 0 312 370q38 126 71 315q28 159 28 246q0 278 -181 278z M603 1604l44 222h222l-44 -222h-222zM1047 1604l44 222h223l-45 -222h-222z" />
<glyph unicode="&#xd7;" vert-adv-y="2505" d="M485 1098l279 -349l419 349l111 -140l-418 -349l279 -348l-168 -140l-279 349l-419 -349l-111 140l418 348l-279 349z" />
<glyph unicode="&#xd8;" vert-adv-y="2505" d="M1048 1196q-45 149 -165 149q-153 0 -269 -238q-59 -123 -94 -273q-16 -64 -29 -142q-25 -145 -25 -203v-7zM477 284q44 -148 164 -148q153 0 267 235q57 116 95 272q22 91 29 143l26 205l1 7zM42 -37l178 219q-53 120 -53 275q0 204 64 424q63 219 166 360 q201 276 521 276q185 0 307 -105l85 105h173l-179 -218q54 -122 54 -275q0 -204 -65 -425q-64 -219 -165 -359q-202 -277 -518 -277q-186 0 -310 105l-86 -105h-172z" />
<glyph unicode="&#xd9;" vert-adv-y="2505" d="M283 1308l34 172h494l-35 -172h-98l-149 -742q-34 -169 -34 -240q0 -84 60 -136q60 -53 157 -53q131 0 195 79q64 78 107 292l160 800h-99l35 172h394l-34 -172h-99l-153 -765q-42 -210 -91 -306q-50 -99 -147 -170q-143 -104 -358 -104q-196 0 -312 87t-116 237 q0 83 25 208l163 813h-99zM986 1604l-256 321h285l144 -321h-173z" />
<glyph unicode="&#xda;" vert-adv-y="2505" d="M283 1308l34 172h494l-35 -172h-98l-149 -742q-34 -169 -34 -240q0 -84 60 -136q60 -53 157 -53q131 0 195 79q64 78 107 292l160 800h-99l35 172h394l-34 -172h-99l-153 -765q-42 -210 -91 -306q-50 -99 -147 -170q-143 -104 -358 -104q-196 0 -312 87t-116 237 q0 83 25 208l163 813h-99zM814 1604l272 321h285l-385 -321h-172z" />
<glyph unicode="&#xdb;" vert-adv-y="2505" d="M283 1308l34 172h494l-35 -172h-98l-149 -742q-34 -169 -34 -240q0 -84 60 -136q60 -53 157 -53q131 0 195 79q64 78 107 292l160 800h-99l35 172h394l-34 -172h-99l-153 -765q-42 -210 -91 -306q-50 -99 -147 -170q-143 -104 -358 -104q-196 0 -312 87t-116 237 q0 83 25 208l163 813h-99zM634 1604l272 321h286l144 -321h-160l-152 189h-2l-228 -189h-160z" />
<glyph unicode="&#xdc;" vert-adv-y="2505" d="M283 1308l34 172h494l-35 -172h-98l-149 -742q-34 -169 -34 -240q0 -84 60 -136q60 -53 157 -53q131 0 195 79q64 78 107 292l160 800h-99l35 172h394l-34 -172h-99l-153 -765q-42 -210 -91 -306q-50 -99 -147 -170q-143 -104 -358 -104q-196 0 -312 87t-116 237 q0 83 25 208l163 813h-99zM652 1604l44 222h222l-44 -222h-222zM1096 1604l44 222h223l-45 -222h-222z" />
<glyph unicode="&#xdd;" vert-adv-y="2505" d="M238 0l34 173h247l96 477l-247 658h-93l34 172h543l-34 -172h-96l158 -423l304 423h-102l34 172h395l-35 -172h-86l-479 -658l-96 -477h247l-35 -173h-789zM827 1604l272 321h285l-385 -321h-172z" />
<glyph unicode="&#xde;" vert-adv-y="2505" d="M37 0l35 173h197l227 1135h-197l34 172h691l-34 -172h-198l-19 -99h140q242 0 349 -69q108 -68 108 -229q0 -263 -204 -439q-203 -176 -515 -176h-61l-25 -123h198l-35 -173h-691zM625 469h37q184 0 284 104q101 104 101 287q0 101 -55 138q-55 38 -192 38h-62z" />
<glyph unicode="&#xdf;" vert-adv-y="2505" d="M44 0l35 173h86l179 894q56 280 199 408q143 129 393 129q309 0 309 -221q0 -154 -142 -293l-50 -49q-88 -86 -88 -135q0 -21 33 -61l35 -43l99 -107q151 -163 151 -309q0 -170 -132 -290q-132 -121 -328 -121q-93 0 -188 25l56 284h159l-4 -130q23 -7 37 -7q47 0 86 49 q40 50 40 109q0 56 -47 108l-31 34l-121 137q-108 122 -108 207q0 91 118 244l54 70q103 133 103 222q0 103 -106 103q-93 0 -146 -72t-88 -247l-188 -938h111l-34 -173h-482z" />
<glyph unicode="&#xe0;" vert-adv-y="2505" d="M142 0zM321 773l50 253q271 84 486 84q207 0 298 -50q89 -49 89 -173q0 -39 -7 -74l-128 -640h111l-35 -173h-367l-19 105q-181 -130 -371 -130q-286 0 -286 246q0 170 146 296q173 149 533 149h90l23 113q9 44 9 68q0 93 -166 93q-126 0 -240 -52l-44 -115h-172z M836 292l46 226h-46q-165 0 -274 -70q-110 -70 -110 -176q0 -102 116 -102q130 0 268 122zM895 1283l-257 321h285l144 -321h-172z" />
<glyph unicode="&#xe1;" vert-adv-y="2505" d="M142 0zM321 773l50 253q271 84 486 84q207 0 298 -50q89 -49 89 -173q0 -39 -7 -74l-128 -640h111l-35 -173h-367l-19 105q-181 -130 -371 -130q-286 0 -286 246q0 170 146 296q173 149 533 149h90l23 113q9 44 9 68q0 93 -166 93q-126 0 -240 -52l-44 -115h-172z M836 292l46 226h-46q-165 0 -274 -70q-110 -70 -110 -176q0 -102 116 -102q130 0 268 122zM722 1283l272 321h285l-385 -321h-172z" />
<glyph unicode="&#xe2;" vert-adv-y="2505" d="M142 0zM321 773l50 253q271 84 486 84q207 0 298 -50q89 -49 89 -173q0 -39 -7 -74l-128 -640h111l-35 -173h-367l-19 105q-181 -130 -371 -130q-286 0 -286 246q0 170 146 296q173 149 533 149h90l23 113q9 44 9 68q0 93 -166 93q-126 0 -240 -52l-44 -115h-172z M836 292l46 226h-46q-165 0 -274 -70q-110 -70 -110 -176q0 -102 116 -102q130 0 268 122zM544 1283l272 321h285l145 -321h-161l-152 190h-1l-228 -190h-160z" />
<glyph unicode="&#xe3;" vert-adv-y="2505" d="M142 0zM321 773l50 253q271 84 486 84q207 0 298 -50q89 -49 89 -173q0 -39 -7 -74l-128 -640h111l-35 -173h-367l-19 105q-181 -130 -371 -130q-286 0 -286 246q0 170 146 296q173 149 533 149h90l23 113q9 44 9 68q0 93 -166 93q-126 0 -240 -52l-44 -115h-172z M836 292l46 226h-46q-165 0 -274 -70q-110 -70 -110 -176q0 -102 116 -102q130 0 268 122zM664 1283h-148q32 140 79 211q72 110 185 110q64 0 119 -43l33 -26l10 -8q11 -9 16 -13q51 -46 84 -46q64 0 93 136h148q-33 -141 -79 -212q-71 -109 -185 -109q-64 0 -119 43 l-33 26l-10 8q-11 9 -15 13l-2 1q-54 45 -84 45q-63 0 -92 -136z" />
<glyph unicode="&#xe4;" vert-adv-y="2505" d="M142 0zM321 773l50 253q271 84 486 84q207 0 298 -50q89 -49 89 -173q0 -39 -7 -74l-128 -640h111l-35 -173h-367l-19 105q-181 -130 -371 -130q-286 0 -286 246q0 170 146 296q173 149 533 149h90l23 113q9 44 9 68q0 93 -166 93q-126 0 -240 -52l-44 -115h-172z M836 292l46 226h-46q-165 0 -274 -70q-110 -70 -110 -176q0 -102 116 -102q130 0 268 122zM553 1283l44 222h222l-44 -222h-222zM997 1283l44 222h222l-44 -222h-222z" />
<glyph unicode="&#xe5;" vert-adv-y="2505" d="M142 0zM321 773l50 253q271 84 486 84q207 0 298 -50q89 -49 89 -173q0 -39 -7 -74l-128 -640h111l-35 -173h-367l-19 105q-181 -130 -371 -130q-286 0 -286 246q0 170 146 296q173 149 533 149h90l23 113q9 44 9 68q0 93 -166 93q-126 0 -240 -52l-44 -115h-172z M836 292l46 226h-46q-165 0 -274 -70q-110 -70 -110 -176q0 -102 116 -102q130 0 268 122zM989 1752q84 0 138 -53t54 -135q0 -110 -88 -195q-87 -86 -200 -86q-75 0 -125 43q-65 55 -65 145q0 110 87 195q88 86 199 86zM968 1641q-60 0 -106 -45t-46 -105q0 -97 99 -97 q54 0 97 36q56 48 56 113q0 98 -100 98z" />
<glyph unicode="&#xe6;" vert-adv-y="2505" d="M589 151q-119 -176 -264 -176q-96 0 -159 70q-62 69 -62 182q0 180 117 298q117 117 301 117h86l27 131q13 63 13 88q0 73 -72 73q-41 0 -103 -36l-40 -96h-144l47 234q185 74 317 74q130 0 196 -114q116 114 237 114q238 0 238 -291q0 -98 -32 -263l-17 -87h-456 q-12 -60 -12 -107q0 -179 169 -179q111 0 253 55l-41 -202q-196 -61 -319 -61q-121 0 -198 65q-45 38 -82 111zM538 291l36 178h-29q-82 0 -134 -49q-52 -50 -52 -128q0 -77 63 -77q54 0 116 76zM855 642h208l5 25q24 118 24 185q0 87 -57 87q-101 0 -170 -259z" />
<glyph unicode="&#xe7;" vert-adv-y="2505" d="M169 0zM1244 266l-43 -214q-250 -77 -464 -77q-568 0 -568 447q0 299 229 493q229 195 588 195q203 0 403 -54l-73 -365h-172l16 203q-102 47 -222 47q-204 0 -326 -135q-123 -135 -123 -350q0 -284 341 -284q147 0 414 94zM624 0h136l-98 -113q202 -26 202 -136 q0 -73 -85 -128t-197 -55q-83 0 -183 30l18 91q68 -15 116 -15q133 0 133 69q0 75 -179 75h-21z" />
<glyph unicode="&#xe8;" vert-adv-y="2505" d="M167 0zM1230 254l-40 -203q-256 -76 -485 -76q-255 0 -397 112q-141 111 -141 317q0 292 206 500q205 207 501 207q202 0 312 -104q111 -104 111 -292q0 -75 -19 -176l-11 -58h-787q-3 -29 -3 -50q0 -262 320 -262q169 0 433 85zM520 654h481q9 45 9 78q0 202 -183 202 q-115 0 -192 -67q-74 -65 -115 -213zM933 1283l-257 321h285l144 -321h-172z" />
<glyph unicode="&#xe9;" vert-adv-y="2505" d="M167 0zM1230 254l-40 -203q-256 -76 -485 -76q-255 0 -397 112q-141 111 -141 317q0 292 206 500q205 207 501 207q202 0 312 -104q111 -104 111 -292q0 -75 -19 -176l-11 -58h-787q-3 -29 -3 -50q0 -262 320 -262q169 0 433 85zM520 654h481q9 45 9 78q0 202 -183 202 q-115 0 -192 -67q-74 -65 -115 -213zM760 1283l272 321h285l-385 -321h-172z" />
<glyph unicode="&#xea;" vert-adv-y="2505" d="M167 0zM1230 254l-40 -203q-256 -76 -485 -76q-255 0 -397 112q-141 111 -141 317q0 292 206 500q205 207 501 207q202 0 312 -104q111 -104 111 -292q0 -75 -19 -176l-11 -58h-787q-3 -29 -3 -50q0 -262 320 -262q169 0 433 85zM520 654h481q9 45 9 78q0 202 -183 202 q-115 0 -192 -67q-74 -65 -115 -213zM581 1283l272 321h285l145 -321h-161l-152 190h-1l-228 -190h-160z" />
<glyph unicode="&#xeb;" vert-adv-y="2505" d="M1230 254l-40 -203q-256 -76 -485 -76q-255 0 -397 112q-141 111 -141 317q0 292 206 500q205 207 501 207q202 0 312 -104q111 -104 111 -292q0 -75 -19 -176l-11 -58h-787q-3 -29 -3 -50q0 -262 320 -262q169 0 433 85zM520 654h481q9 45 9 78q0 202 -183 202 q-115 0 -192 -67q-74 -65 -115 -213zM599 1283l45 222h222l-45 -222h-222zM1043 1283l45 222h222l-45 -222h-222z" />
<glyph unicode="&#xec;" vert-adv-y="2505" d="M140 0zM140 0l34 173h370l148 740h-370l35 173h666l-183 -913h371l-35 -173h-1036zM890 1283l-257 321h285l144 -321h-172z" />
<glyph unicode="&#xed;" vert-adv-y="2505" d="M140 0zM140 0l34 173h370l148 740h-370l35 173h666l-183 -913h371l-35 -173h-1036zM766 1283l272 321h285l-385 -321h-172z" />
<glyph unicode="&#xee;" vert-adv-y="2505" d="M140 0zM140 0l34 173h370l148 740h-370l35 173h666l-183 -913h371l-35 -173h-1036zM563 1283l272 321h285l145 -321h-161l-152 190h-1l-228 -190h-160z" />
<glyph unicode="&#xef;" vert-adv-y="2505" d="M140 0l34 173h370l148 740h-370l35 173h666l-183 -913h371l-35 -173h-1036zM581 1283l45 222h222l-44 -222h-223zM1026 1283l44 222h222l-44 -222h-222z" />
<glyph unicode="&#xf0;" vert-adv-y="2505" d="M489 1065l-80 131l217 158q-121 38 -239 39l-32 1l37 185q243 0 440 -75l253 188l82 -133l-186 -138q146 -98 220 -217q109 -176 109 -427q0 -338 -201 -570q-200 -232 -494 -232q-210 0 -328 113t-118 318q0 267 190 467q189 200 441 200q62 0 138 -18q-42 129 -164 214 zM813 889q-141 0 -241 -144q-101 -145 -101 -341q0 -244 191 -244q120 0 211 124q121 163 121 390q0 215 -181 215z" />
<glyph unicode="&#xf1;" vert-adv-y="2505" d="M37 0zM37 0l35 173h104l148 740h-104l34 173h389l-32 -161q112 102 188 140q90 45 224 45q239 0 239 -205q0 -60 -20 -160l-114 -572h105l-35 -173h-518l34 173h130l94 472q19 95 19 137q0 101 -107 101q-112 0 -282 -172l-108 -538h130l-35 -173h-518zM633 1283h-148 q32 140 79 211q72 110 185 110q64 0 119 -43l33 -26l10 -8q11 -9 16 -13q51 -46 84 -46q64 0 93 136h148q-33 -141 -79 -212q-71 -109 -185 -109q-64 0 -119 43l-33 26l-10 8q-11 9 -15 13l-2 1q-54 45 -84 45q-63 0 -92 -136z" />
<glyph unicode="&#xf2;" vert-adv-y="2505" d="M163 0zM843 1110q209 0 331 -118q121 -117 121 -321q0 -287 -201 -491q-201 -205 -485 -205q-183 0 -300 96q-146 121 -146 344q0 286 200 490q201 205 480 205zM810 938q-138 0 -238 -160q-101 -161 -101 -377q0 -253 179 -253q121 0 215 128q123 168 123 409 q0 253 -178 253zM878 1283l-257 321h285l144 -321h-172z" />
<glyph unicode="&#xf3;" vert-adv-y="2505" d="M163 0zM843 1110q209 0 331 -118q121 -117 121 -321q0 -287 -201 -491q-201 -205 -485 -205q-183 0 -300 96q-146 121 -146 344q0 286 200 490q201 205 480 205zM810 938q-138 0 -238 -160q-101 -161 -101 -377q0 -253 179 -253q121 0 215 128q123 168 123 409 q0 253 -178 253zM705 1283l272 321h285l-385 -321h-172z" />
<glyph unicode="&#xf4;" vert-adv-y="2505" d="M163 0zM843 1110q209 0 331 -118q121 -117 121 -321q0 -287 -201 -491q-201 -205 -485 -205q-183 0 -300 96q-146 121 -146 344q0 286 200 490q201 205 480 205zM810 938q-138 0 -238 -160q-101 -161 -101 -377q0 -253 179 -253q121 0 215 128q123 168 123 409 q0 253 -178 253zM526 1283l272 321h285l145 -321h-161l-152 190h-1l-228 -190h-160z" />
<glyph unicode="&#xf5;" vert-adv-y="2505" d="M163 0zM843 1110q209 0 331 -118q121 -117 121 -321q0 -287 -201 -491q-201 -205 -485 -205q-183 0 -300 96q-146 121 -146 344q0 286 200 490q201 205 480 205zM810 938q-138 0 -238 -160q-101 -161 -101 -377q0 -253 179 -253q121 0 215 128q123 168 123 409 q0 253 -178 253zM674 1283h-148q32 140 79 211q72 110 185 110q64 0 119 -43l33 -26l10 -8q11 -9 16 -13q51 -46 84 -46q64 0 93 136h148q-33 -141 -79 -212q-71 -109 -185 -109q-64 0 -119 43l-33 26l-10 8q-11 9 -15 13l-2 1q-54 45 -84 45q-63 0 -92 -136z" />
<glyph unicode="&#xf6;" vert-adv-y="2505" d="M163 0zM843 1110q209 0 331 -118q121 -117 121 -321q0 -287 -201 -491q-201 -205 -485 -205q-183 0 -300 96q-146 121 -146 344q0 286 200 490q201 205 480 205zM810 938q-138 0 -238 -160q-101 -161 -101 -377q0 -253 179 -253q121 0 215 128q123 168 123 409 q0 253 -178 253zM544 1283l44 222h222l-44 -222h-222zM988 1283l44 222h222l-44 -222h-222z" />
<glyph unicode="&#xf7;" vert-adv-y="2505" d="M466 0l59 296h296l-59 -296h-296zM206 518l39 198h1024l-39 -198h-1024zM654 938l59 296h296l-59 -296h-296z" />
<glyph unicode="&#xf8;" vert-adv-y="2505" d="M231 147q-74 119 -74 268q0 284 200 489q200 206 477 206q163 0 289 -81l95 94h174l-181 -179q78 -118 78 -273q0 -285 -200 -490q-200 -206 -478 -206q-160 0 -293 86l-87 -86h-174zM495 236q53 -88 148 -88q158 0 265 209q79 153 74 327l-1 33zM946 854q-60 84 -143 84 q-135 0 -236 -159q-102 -160 -102 -375v-25z" />
<glyph unicode="&#xf9;" vert-adv-y="2505" d="M184 0zM213 913l34 173h389l-129 -646q-19 -95 -19 -136q0 -102 106 -102q114 0 283 172l108 539h-130l35 173h413l-182 -913h105l-35 -173h-389l33 160q-112 -101 -189 -140q-89 -45 -225 -45q-237 0 -237 205q0 66 19 161l114 572h-104zM867 1283l-257 321h285 l144 -321h-172z" />
<glyph unicode="&#xfa;" vert-adv-y="2505" d="M184 0zM213 913l34 173h389l-129 -646q-19 -95 -19 -136q0 -102 106 -102q114 0 283 172l108 539h-130l35 173h413l-182 -913h105l-35 -173h-389l33 160q-112 -101 -189 -140q-89 -45 -225 -45q-237 0 -237 205q0 66 19 161l114 572h-104zM694 1283l272 321h285 l-385 -321h-172z" />
<glyph unicode="&#xfb;" vert-adv-y="2505" d="M184 0zM213 913l34 173h389l-129 -646q-19 -95 -19 -136q0 -102 106 -102q114 0 283 172l108 539h-130l35 173h413l-182 -913h105l-35 -173h-389l33 160q-112 -101 -189 -140q-89 -45 -225 -45q-237 0 -237 205q0 66 19 161l114 572h-104zM516 1283l272 321h285l145 -321 h-161l-152 190h-1l-228 -190h-160z" />
<glyph unicode="&#xfc;" vert-adv-y="2505" d="M184 0zM213 913l34 173h389l-129 -646q-19 -95 -19 -136q0 -102 106 -102q114 0 283 172l108 539h-130l35 173h413l-182 -913h105l-35 -173h-389l33 160q-112 -101 -189 -140q-89 -45 -225 -45q-237 0 -237 205q0 66 19 161l114 572h-104zM534 1283l44 222h222l-44 -222 h-222zM978 1283l44 222h222l-44 -222h-222z" />
<glyph unicode="&#xfd;" vert-adv-y="2505" d="M26 0zM510 33l-215 880h-100l34 173h585l-35 -173h-149l127 -517l342 517h-147l34 173h448l-35 -173h-102l-754 -1135h201l-35 -173h-683l34 173h198zM762 1283l272 321h285l-385 -321h-172z" />
<glyph unicode="&#xfe;" vert-adv-y="2505" d="M318 1406l35 173h394l-130 -654q185 185 378 185q305 0 305 -367q0 -267 -149 -494q-180 -274 -519 -274q-92 0 -200 25l-45 -222h124l-35 -173h-518l34 173h99l326 1628h-99zM472 203l27 -7q81 -21 147 -21q160 0 256 149q97 150 97 383q0 176 -148 176 q-127 0 -277 -171z" />
<glyph unicode="&#xff;" vert-adv-y="2505" d="M510 33l-215 880h-100l34 173h585l-35 -173h-149l127 -517l342 517h-147l34 173h448l-35 -173h-102l-754 -1135h201l-35 -173h-683l34 173h198zM602 1283l44 222h222l-44 -222h-222zM1046 1283l44 222h222l-44 -222h-222z" />
<glyph unicode="&#x131;" vert-adv-y="2505" d="M140 0l34 173h370l148 740h-370l35 173h666l-183 -913h371l-35 -173h-1036z" />
<glyph unicode="&#x152;" vert-adv-y="2505" d="M574 0l7 34q-98 -71 -187 -71q-267 0 -267 387q0 184 59 450q160 717 519 717q99 0 158 -70l7 33h589l-69 -345h-144l35 173h-210l-96 -481h112l25 123h144l-84 -420h-144l25 124h-113l-94 -469h246l35 173h143l-71 -358h-625zM672 490l105 524q30 149 30 210 q0 121 -94 121q-115 0 -183 -214q-48 -152 -106 -471q-53 -289 -53 -389q0 -135 98 -135q89 0 135 106q34 80 68 248z" />
<glyph unicode="&#x153;" vert-adv-y="2505" d="M662 85q-115 -110 -258 -110q-284 0 -284 363q0 317 148 544q148 228 359 228q137 0 233 -125q112 125 243 125q218 0 218 -283q0 -123 -34 -293l-13 -65h-416q-6 -48 -6 -82q0 -195 175 -195q89 0 203 59l-41 -207q-136 -69 -266 -69q-159 0 -261 110zM600 428l46 229 q21 104 21 168q0 113 -63 113t-126 -146q-103 -239 -103 -500q0 -144 69 -144q100 0 156 280zM893 642h175l8 47q21 123 21 166q0 86 -49 86q-94 0 -155 -299z" />
<glyph unicode="&#x178;" vert-adv-y="2505" d="M238 0l34 173h247l96 477l-247 658h-93l34 172h543l-34 -172h-96l158 -423l304 423h-102l34 172h395l-35 -172h-86l-479 -658l-96 -477h247l-35 -173h-789zM666 1604l45 222h222l-45 -222h-222zM1110 1604l45 222h222l-44 -222h-223z" />
<glyph unicode="&#x2c6;" vert-adv-y="2505" d="M520 1283l272 321h285l145 -321h-161l-152 190h-1l-228 -190h-160z" />
<glyph unicode="&#x2da;" vert-adv-y="2505" d="M969 1752q84 0 138 -53t54 -135q0 -110 -88 -195q-87 -86 -200 -86q-75 0 -125 43q-65 55 -65 145q0 110 87 195q88 86 199 86zM948 1641q-60 0 -106 -45t-46 -105q0 -97 99 -97q54 0 97 36q56 48 56 113q0 98 -100 98z" />
<glyph unicode="&#x2dc;" vert-adv-y="2505" d="M667 1283h-148q32 140 79 211q72 110 185 110q64 0 119 -43l33 -26l10 -8q11 -9 16 -13q51 -46 84 -46q64 0 93 136h148q-33 -141 -79 -212q-71 -109 -185 -109q-64 0 -119 43l-33 26l-10 8q-11 9 -15 13l-2 1q-54 45 -84 45q-63 0 -92 -136z" />
<glyph unicode="&#x2000;" horiz-adv-x="975" vert-adv-y="0" />
<glyph unicode="&#x2001;" horiz-adv-x="1950" vert-adv-y="0" />
<glyph unicode="&#x2002;" horiz-adv-x="975" vert-adv-y="0" />
<glyph unicode="&#x2003;" horiz-adv-x="1950" vert-adv-y="0" />
<glyph unicode="&#x2004;" horiz-adv-x="650" vert-adv-y="0" />
<glyph unicode="&#x2005;" horiz-adv-x="487" vert-adv-y="0" />
<glyph unicode="&#x2006;" horiz-adv-x="325" vert-adv-y="0" />
<glyph unicode="&#x2007;" horiz-adv-x="325" vert-adv-y="0" />
<glyph unicode="&#x2008;" horiz-adv-x="243" vert-adv-y="0" />
<glyph unicode="&#x2009;" horiz-adv-x="390" vert-adv-y="0" />
<glyph unicode="&#x200a;" horiz-adv-x="108" vert-adv-y="0" />
<glyph unicode="&#x2010;" vert-adv-y="2505" d="M252 518l39 198h933l-40 -198h-932z" />
<glyph unicode="&#x2011;" vert-adv-y="2505" d="M252 518l39 198h933l-40 -198h-932z" />
<glyph unicode="&#x2012;" vert-adv-y="2505" d="M252 518l39 198h933l-40 -198h-932z" />
<glyph unicode="&#x2013;" vert-adv-y="2505" d="M227 531l30 148h987l-30 -148h-987z" />
<glyph unicode="&#x2014;" vert-adv-y="2505" d="M106 531l30 148h1229l-30 -148h-1229z" />
<glyph unicode="&#x2018;" vert-adv-y="2505" d="M1043 1283l-69 -345h-345l53 266q41 205 132 290t268 85h20l-24 -123h-14q-114 0 -157 -173h136z" />
<glyph unicode="&#x2019;" vert-adv-y="2505" d="M688 1234l69 345h345l-53 -266q-47 -234 -160 -313q-87 -64 -241 -63l-19 1l24 123h14q113 0 156 173h-135z" />
<glyph unicode="&#x201a;" horiz-adv-x="1338" vert-adv-y="2505" d="M513 0l69 345h346l-54 -266q-41 -204 -132 -290q-91 -85 -268 -85h-20l24 123h14q113 1 157 173h-136z" />
<glyph unicode="&#x201c;" vert-adv-y="2505" d="M748 1283l-60 -296h-296l54 269q66 322 340 323h21l-22 -111l-19 1q-110 0 -135 -147l-7 -39h124zM1291 1283l-60 -296h-296l54 269q66 322 340 323h21l-22 -111l-20 1q-108 -1 -134 -147l-7 -39h124z" />
<glyph unicode="&#x201d;" vert-adv-y="2505" d="M452 1283l59 296h296l-54 -269q-65 -322 -340 -323h-21l23 111h19q109 1 134 146l7 39h-123zM994 1283l60 296h296l-54 -269q-66 -322 -340 -323h-21l22 111h20q109 1 134 146l7 39h-124z" />
<glyph unicode="&#x201e;" horiz-adv-x="1338" vert-adv-y="2505" d="M312 0l59 296h296l-53 -269q-65 -323 -340 -323h-21l22 111l19 -1q111 0 135 147l6 39h-123zM855 0l59 296h296l-54 -269q-65 -322 -340 -323h-20l22 111l19 -1q110 0 135 147l6 39h-123z" />
<glyph unicode="&#x2022;" vert-adv-y="2505" d="M847 1123q98 0 162 -64q63 -63 63 -161q0 -129 -104 -229q-104 -101 -236 -101q-88 0 -149 52q-77 65 -77 172q0 129 105 230q104 101 236 101z" />
<glyph unicode="&#x2026;" vert-adv-y="2505" d="M81 0l49 247h247l-49 -247h-247zM491 0l49 247h247l-50 -247h-246zM900 0l50 247h246l-49 -247h-247z" />
<glyph unicode="&#x202f;" horiz-adv-x="390" vert-adv-y="0" />
<glyph unicode="&#x2039;" vert-adv-y="2505" d="M1108 841l-356 -297l235 -294l-139 -137l-468 430l644 432z" />
<glyph unicode="&#x203a;" vert-adv-y="2505" d="M339 247l356 297l-235 294l139 137l468 -430l-644 -432z" />
<glyph unicode="&#x205f;" horiz-adv-x="487" vert-adv-y="0" />
<glyph unicode="&#x20ac;" vert-adv-y="2505" d="M123 493l91 149h71q14 105 46 222h-134l91 148h101q74 138 136 213q243 293 644 293q143 0 306 -41l-41 -204q-185 72 -298 72q-188 0 -317 -123q-76 -73 -139 -210h602l-91 -148h-563q-33 -117 -52 -222h479l-91 -149h-393q9 -139 82 -223q96 -110 254 -110 q122 0 321 85l-43 -216q-202 -66 -369 -66q-278 0 -418 178q-99 126 -118 352h-157z" />
<glyph unicode="&#x2122;" vert-adv-y="2505" d="M284 740l20 99h74l109 543h-74l-20 -99h-86l39 197h457l-40 -197h-86l19 99h-74l-108 -543h74l-20 -99h-284zM692 740l19 99h53l109 543h-53l20 98h241l1 -418l165 418h243l-20 -98h-56l-108 -543h55l-19 -99h-185l123 616l-220 -566h-93l-2 559l-122 -609h-151z" />
<glyph unicode="&#xe000;" horiz-adv-x="1085" vert-adv-y="2170" d="M0 1085h1085v-1085h-1085v1085z" />
<glyph unicode="&#xfb01;" vert-adv-y="2505" d="M37 0l35 173h105l143 715h-105l34 173h105l26 131q38 192 171 302q131 110 323 110q97 0 188 -36l-57 -285h-173l2 136q-13 10 -27 10q-96 0 -136 -201l-33 -167h668l-178 -888h105l-35 -173h-493l34 173h105l143 715h-384l-143 -715h105l-34 -173h-494zM1103 1283 l59 296h247l-59 -296h-247z" />
<glyph unicode="&#xfb02;" vert-adv-y="2505" d="M37 0l35 173h105l143 715h-105l34 173h105l24 119q86 424 485 424l273 -25h273l-281 -1406h105l-35 -173h-493l34 173h105l235 1174q-136 80 -214 80q-153 0 -196 -212l-31 -154h271l-34 -173h-272l-143 -715h105l-34 -173h-494z" />
<glyph vert-adv-y="2505" d="M0 0z" />
</font>
</defs>
</svg>
