<?xml version="1.0" standalone="no"?>
<!DOCTYPE svg PUBLIC "-//W3C//DTD SVG 1.1//EN" "http://www.w3.org/Graphics/SVG/1.1/DTD/svg11.dtd" >
<svg xmlns="http://www.w3.org/2000/svg">
<metadata></metadata>
<defs>
<font id="kingthings_spikelessregular" horiz-adv-x="990" >
<font-face units-per-em="2048" ascent="1638" descent="-410" />
<missing-glyph horiz-adv-x="487" />
<glyph horiz-adv-x="2048" />
<glyph horiz-adv-x="2048" />
<glyph unicode="&#xd;" horiz-adv-x="390" />
<glyph unicode=" "  horiz-adv-x="487" />
<glyph unicode="&#x09;" horiz-adv-x="487" />
<glyph unicode="&#xa0;" horiz-adv-x="487" />
<glyph unicode="!" horiz-adv-x="657" d="M3 1321l137 96q69 -67 102 -65l145 -1154l130 1158q45 14 214 235q-175 -114 -320 -102.5t-201 133.5zM437 140q94 -160 51 -284t-227 -234q86 117 81.5 217t-90.5 141z" />
<glyph unicode="&#x22;" horiz-adv-x="488" d="M30 1567v-257l67 40l41 -483l33 523l47 27v263zM250 1567v-257l67 40l41 -483l33 523l47 27v263z" />
<glyph unicode="$" horiz-adv-x="1061" d="M530 1593v-1043q-116 -4 -159 -91q79 40 159 -11v-772l61 47v1231q69 46 128 -5q-34 88 -128 101v546q189 156 265 136q-162 52 -326 -139zM150 689q-60 -28 -150 2q68 -84 152 -84v-330q-44 -4 -135 -62q94 16 144 -2l412 -153l413 340l1 274l96 105q-93 -46 -225 -9 l-423 170v358q173 -122 289 -158v-201l210 168v136l119 106q-165 -79 -286.5 -19.5t-127.5 135.5l-429 -261q-60 -27 -150 3q101 -72 151 -58v-258q-43 -4 -134 -63q74 24 255 -44l422 -177v-334l-57 -53l-322 107l-1 272z" />
<glyph unicode="%" horiz-adv-x="1257" d="M873 1700l95 -1l-698 -1958l-93 1zM82 1500q-37 -18 -85 2q54 -47 86 -38l1 -535q-58 -20 -117 -115q84 73 122 62l212 -145l216 191l3 54l-158 -141l-160 115l-1 610l28 21q90 -100 180 -123v-555l111 91v530l63 69q-87 -51 -165.5 -12.5t-81.5 87.5zM752 740 q-37 -18 -85 2q54 -47 86 -38l1 -535q-58 -20 -117 -115q84 73 122 62l212 -145l216 191l3 54l-158 -141l-160 115l-1 610l28 21q90 -100 180 -123v-555l111 91v530l63 69q-87 -51 -165.5 -12.5t-81.5 87.5z" />
<glyph unicode="&#x26;" horiz-adv-x="1197" d="M391 1561v-1264l56 50v1218q129 118 231 92q-145 82 -287 -96zM88 692q-55 -33 -138 3q93 -86 140 -69v-427q-41 -5 -124 -75q86 19 132 -2l318 -162l186 199q152 -166 301 -172t299 229q-192 -125 -454 198l-246 -262l-208 106v547l261 -190v-368l193 200v248l109 127 q-85 -55 -161 -20t-75 34l120 151q108 -98 232 -77t196 209q-85 -54 -184.5 -21.5t-113.5 140.5l-309 -372l-218 149v428q104 -146 211 -188v-252l193 211v163l109 127q-152 -94 -263.5 -22.5t-116.5 162.5l-339 -313q-55 -33 -138 4q93 -87 139 -70v-310q-40 -4 -123 -74 q68 28 234 -54z" />
<glyph unicode="'" horiz-adv-x="262" d="M30 1567v-257l67 40l41 -483l33 523l47 27v263z" />
<glyph unicode="(" horiz-adv-x="493" d="M322 -164l-31 14l17 33q-130 131 -200.5 309.5t-70.5 376.5q0 280 121.5 552.5t321.5 436.5v-43q-158 -169 -245 -374.5t-87 -409.5q0 -175 64 -337t200 -331l21 33l26 -17z" />
<glyph unicode=")" horiz-adv-x="505" d="M166 1558l31 -14l-17 -33q130 -131 200.5 -309.5t70.5 -376.5q0 -280 -121.5 -552.5t-321.5 -436.5v43q158 169 245 374.5t87 409.5q0 175 -64 337t-200 331l-21 -33l-26 17z" />
<glyph unicode="*" horiz-adv-x="585" d="M237 1409h-126l31 -58l-212 -17l231 -17l26 -41h131zM358 1447v126l-59 -31l-17 212l-17 -231l-40 -26v-131zM356 1323h126l-31 58l212 17l-231 17l-26 41h-131zM225 1285v-126l58 31l17 -212l17 231l41 26v131z" />
<glyph unicode="+" horiz-adv-x="992" d="M173 792l-83 -182h760l75 181zM416 367l182 -83v760l-181 75z" />
<glyph unicode="," horiz-adv-x="221" d="M18 254v-247l102 54q57 -183 -76 -387q170 160 160 440v253z" />
<glyph unicode="-" d="M173 792l-83 -182h760l75 181z" />
<glyph unicode="." horiz-adv-x="242" d="M30 257v-257l67 40l41 -483l33 523l47 27v263z" />
<glyph unicode="/" horiz-adv-x="601" d="M457 1731l111 18l-455 -2039l-108 -18z" />
<glyph unicode="0" horiz-adv-x="936" d="M158 1347q-55 -31 -138 3q93 -81 140 -65v-1081q-41 -4 -124 -70q86 18 132 -2l268 -152l377 352l5 94l-296 -266l-158 100v569q-130 6 -130 110.5t130 108.5v404q104 -137 261 -177v-228q130 1 130 -106.5t-130 -112.5v-529l193 158v933l109 119q-152 -88 -288.5 -21 t-141.5 152zM506 417l-1 688q27 10 34 30t0.5 39.5t-27.5 29.5t-43.5 0.5t-28.5 -31.5t3 -42t37 -26l1 -688q-28 -6 -37 -26t-3 -42t28.5 -31.5t43.5 0.5t27.5 29.5t-0.5 39.5t-34 30zM593 955h-208q-10 27 -30 34t-39.5 0.5t-29.5 -27.5t-0.5 -43.5t31.5 -28.5t42 3t26 37 h208q6 -28 26 -37t42 -3t31.5 28.5t-0.5 43.5t-29.5 27.5t-39.5 -0.5t-30 -34z" />
<glyph unicode="1" horiz-adv-x="735" d="M-27 1341l167 56q29 -37 82 -45l-1 -1198q-50 -102 -174 -157q165 7 211 73l239 -84q156 215 248 259q-95 4 -159 -64l-170 69l1 1106l95 117q-210 12 -212 169zM465 1348v-1047l56 47v1073z" />
<glyph unicode="2" horiz-adv-x="1020" d="M676 1368v-484l-512 -427v-307q-50 -102 -244 -97q109 -66 281 -57l639 -2q79 349 268 457q-185 -66 -279 -274l-459 -1v328l500 414v724q-98 -214 -194 -274zM129 1396l118 57q143 -172 292.5 -139t308.5 333q-225 -184 -350 -147.5t-181 158.5zM652 904l1 451l-57 -37 v-116q-196 3 -219 -115q104 77 219 28v-113q-188 22 -238 -90q144 63 294 -8z" />
<glyph unicode="3" horiz-adv-x="984" d="M848 1387q65 -31 168 3q-113 -81 -170 -85v-281l-381 -123l380 -123v-586q141 -4 263 -170q-57 69 -272 68l-196 168v518l-310 114l310 135v529zM-57 60l149 50q129 -135 281.5 -114t277.5 245q-133 -71 -237 -46t-137 147zM49 1371l108 60q86 -135 233 -124t247 255 q-90 -71 -212 -46t-144 147zM609 309l1 451l-57 -37v-116q-196 3 -219 -115q104 77 219 28v-113q-188 22 -238 -90q144 63 294 -8z" />
<glyph unicode="4" horiz-adv-x="1025" d="M603 1323v-851l-479 1v-76h479v-210q-65 -118 -196 -195q158 24 254 113l169 -117q158 269 233 304q-109 3 -154 -63l-79 57v128l190 -2v65l-190 1v851q-113 -44 -227 -6zM363 1367l118 50q101 -85 264.5 -79t281.5 210q-105 -71 -239.5 -46t-160.5 147zM-73 503 q210 -72 395 83q130 685 268 733q-146 5 -328 -422t-335 -394z" />
<glyph unicode="5" horiz-adv-x="1024" d="M541 450q-116 -4 -159 -91q79 40 159 -11v-152l61 47v604l-60 -64zM-23 104q144 78 234 38l272 -162l383 382l1 591l126 169q-113 -102 -255 -100l-353 1v402l399 1l139 186l-434 1l-329 -293q-60 -31 -150 3q101 -111 151 -95v-261q-43 -4 -144 -110q144 27 265 20h352 v-658l-57 -49l-272 170q-117 30 -328 -236zM420 1374v-377l61 138q69 96 178 65q-84 68 -178 31v96q149 46 315 -14q-152 132 -376 61z" />
<glyph unicode="6" horiz-adv-x="1022" d="M566 952v-697l56 47v603zM136 1227q-65 -31 -168 3q113 -81 170 -85v-811q-59 6 -172 -80q116 38 182 -2l398 -252l307 382l1 534q84 30 191 234q-96 -71 -218 -46t-145 147l-326 -394l-1 -93l194 255q41 -75 114 -89v-657l-41 -53l-278 160v988l69 70q88 -101 209 -95.5 t248 241.5q-100 -71 -200 -46t-114 123z" />
<glyph unicode="7" horiz-adv-x="817" d="M-89 1361l150 63q118 -115 326.5 -86.5t422.5 310.5q-222 -127 -406 -114.5t-255 108.5zM712 1502q-226 -244 -491 -1348q-98 -162 -314 -157q211 -46 351 73l259 -84q156 215 248 259q-95 4 -159 -64l-170 69q90 793 361 1366zM140 755l115 37q92 -72 253.5 -61.5 t327.5 171.5q-172 -72 -314.5 -65t-197.5 85zM184 157l161 526l-41 -40l-63 -184q-195 -10 -263 -133q134 86 230 44l-43 -116q-179 9 -267 -179q163 144 286 82z" />
<glyph unicode="8" horiz-adv-x="937" d="M406 1563v-1317l61 47v1273q189 156 265 136q-162 52 -326 -139zM110 767q-60 -31 -150 3q101 -81 152 -65v-521q-44 -4 -135 -70q94 18 144 -2l342 -152l356 332l5 94l-267 -246l-222 90l1 609l278 -124v-486l210 188v303l119 119q-93 -52 -160.5 -39t-161.5 52l198 190 l5 94l-267 -246l-202 100v492q143 -137 279 -157v-326l190 178v243l119 119q-165 -88 -286.5 -21t-127.5 152l-369 -293q-60 -31 -150 3q101 -81 151 -65v-381q-43 -4 -134 -70q74 27 225 20z" />
<glyph unicode="9" horiz-adv-x="1016" d="M486 708v667l-56 -47v-573zM916 433q65 31 168 -3q-113 81 -170 85v781q59 -6 172 80q-116 -38 -182 2l-328 252l-377 -322q-90 -67 -210 -54q90 -94 209 -78v-502q-134 -10 -191 -164q96 71 243 46t220 -147l226 324l1 113l-174 -235q-61 105 -134 119v637l91 63 l228 -180v-958l-69 -90q-88 101 -209 95.5t-248 -241.5q100 71 200 46t174 -123z" />
<glyph unicode=":" horiz-adv-x="254" d="M30 257v-257l84 44l24 -487l23 513l57 37v263zM30 737v-257l84 44l24 -357l23 383l57 37v263z" />
<glyph unicode=";" horiz-adv-x="256" d="M50 737v-257l84 44l24 -357l23 383l57 37v263zM38 254v-247l102 54q57 -183 -116 -357q210 130 200 410v253z" />
<glyph unicode="&#x3c;" horiz-adv-x="735" d="M700 310v-48l-495 276v116h171v-158zM205 717v130l495 308v-54l-324 -205v-178zM372 704h-213q-12 32 -37 40.5t-48.5 1t-36 -33t-1 -52t38.5 -34t51.5 3.5t32.5 44h213v30z" />
<glyph unicode="=" horiz-adv-x="989" d="M173 892l-83 -182h760l75 181zM173 632l-83 -182h760l75 181z" />
<glyph unicode="&#x3e;" horiz-adv-x="710" d="M30 310v-48l495 276v116h-171v-158zM525 717v130l-495 308v-54l324 -205v-178zM358 704h213q12 32 37 40.5t48.5 1t36 -33t1 -52t-38.5 -34t-51.5 3.5t-32.5 44h-213v30z" />
<glyph unicode="?" horiz-adv-x="923" d="M78 1331q-55 -30 -138 3q93 -79 139 -73l1 -301q-41 -4 -124 -68q86 17 132 -2l218 -148l202 216q-75 3 -108 -25l-116 81v419q139 -163 341 -172v-492q-289 -213 -198 -593q7 300 391 541v656l109 115q-152 -85 -268.5 -20t-121.5 147zM507 140q94 -160 51 -284 t-227 -234q86 117 81.5 217t-90.5 141zM536 1249v-508l56 45v452z" />
<glyph unicode="@" horiz-adv-x="1424" d="M767 821v-300l-35 17v248zM483 975l74 36q59 -70 168.5 -63t203.5 173q-110 -72 -201.5 -65t-126.5 84zM784 934v-441l-132 60l-1 196l117 94v75l-172 -141q-60 -53 -173 -37q48 -62 103 -61l-1 -152q-37 11 -99 -57q57 18 115 -9l199 -94l76 80l135 -86l288 174v749 l150 111q-209 -82 -396.5 -19.5t-194.5 141.5l-607 -273q-89 -29 -203 3q128 -75 206 -60l2 -885q-83 -4 -197 -66q118 17 209 -1l556 -235l477 309l-2 87l-379 -228l-455 186v921l137 61q166 -151 502 -159l-1 -683l-17 -15l-112 75l1 383q55 76 43 241q-20 -142 -174 -244 z" />
<glyph unicode="A" horiz-adv-x="1263" d="M280 397l1 857l-57 -47v-356q-156 3 -239 -145q144 46 239 10v-118q-148 28 -258 -114q174 29 258 -4v-86l192 -594zM-41 1354l134 63q65 -93 211 -77.5t286 202.5q-106 -63 -221 -35.5t-156 141.5zM637 804l-2 548l-63 -75l4 -881l-148 -615l207 611l3 102zM592 680 l124 50q107 -105 244 -84t291 245q-354 -151 -441 71zM331 1277v-886l92 -644l103 649l1 945l75 74q96 -124 220 -108v-264q95 -242 235 -155v463q60 4 169 142q-128 -72 -249 -41t-280 195q-101 -195 -366 -370zM822 610v-616q-11 -362 293 -439q-101 145 130 335 q-337 -176 -372 99l184 157v522q-52 -89 -235 -58zM496 381q-51 -37 -64 -209q-12 172 -66 213q51 36 68 323q9 -285 62 -327z" />
<glyph unicode="B" horiz-adv-x="1124" d="M230 197l1 1127l-57 -47v-426q-156 3 -239 -145q144 46 239 10v-118q-148 28 -258 -114q174 29 258 -4v-236q-90 -229 -258 -274q182 -12 314 227zM52 1365l118 56q69 -66 112 -84l-1 -1166q5 -158 -338 -354q223 49 445 262l199 -93l181 156l-271 154v1045q61 18 95 64 q68 -86 140 -108l1 -341l-153 -120v-93l241 181l1 -710q-7 -531 363 -579q-84 118 100 315q-353 -168 -412 259l203 157v492l-207 113l98 79v251q33 17 139 122q-160 -43 -250 -16.5t-189 260.5q-101 -195 -236 -179.5t-191 135.5zM573 764v-400l193 117v188zM724 566 q-51 -37 -64 -119q-12 82 -66 123q51 36 68 123q9 -85 62 -127zM389 114q-17 177 -58 213q44 41 56 773q13 -732 54 -769q-43 -42 -52 -217z" />
<glyph unicode="C" horiz-adv-x="1168" d="M306 1197q-105 -51 -268 33q163 -141 270 -155l1 -841l517 -254l377 332l1 94l-282 -246l-408 200v1004zM532 1379l124 50q107 -85 279 -79t296 210q-111 -71 -252.5 -46t-168.5 147zM573 1317v-930l193 117v728zM281 225l1 827l-57 -47v-106q-156 3 -239 -145 q144 46 239 10v-138q-148 28 -258 -114q174 29 258 -4v-236q-97 -198 -218 -224q136 -30 274 177zM417 367q-17 417 -68 453q54 41 66 293q13 -252 64 -289q-53 -42 -62 -457zM792 1235l-1 -1017l57 47v963q99 101 232 36q-146 138 -288 -29z" />
<glyph unicode="D" horiz-adv-x="1183" d="M296 1367q-85 -51 -278 -17q173 -131 280 -115l2 -1136q-200 -61 -274 -230q148 138 332 130l388 1l162 215h-404l-2 1257l49 36q159 -295 374 -353v-916l194 208l-1 763l109 119q-184 -100 -334.5 73t-155.5 258zM553 1528v-717l56 47v663q249 191 352 166 q-146 78 -408 -159zM248 156l1 1037l-57 -47v-306q-156 3 -239 -145q144 46 239 10v-148q-148 28 -258 -114q174 29 258 -4v-236q-70 -145 -268 -254q188 32 324 207zM556 891v-500l193 117v288zM714 636q-51 -37 -64 -119q-12 82 -66 123q51 36 68 123q9 -85 62 -127z M464 1142q-41 -37 -54 -549q-12 512 -56 553q41 36 52 133q15 -95 58 -137z" />
<glyph unicode="E" horiz-adv-x="1245" d="M640 1349v-1070l93 87v908zM138 1230q133 -121 230 -125l1 -1003q-141 -4 -263 -170q57 69 272 68h638l237 302l1 144l-162 -228h-518v1166q-203 -208 -436 -154zM679 813l124 50q107 -105 209 -99t206 230q-111 -71 -172.5 -46t-88.5 147zM582 1389l134 60 q107 -135 254 -124t271 255q-111 -71 -227.5 -46t-143.5 147zM321 207l1 887l-57 -47v-96q-156 3 -239 -145q144 46 239 10v-208q-148 28 -258 -114q174 29 258 -4v-236q-97 -198 -218 -224q156 -20 274 177zM529 1075q-41 -37 -54 -549q-12 512 -56 553q41 36 52 133 q15 -95 58 -137z" />
<glyph unicode="F" horiz-adv-x="1225" d="M346 1217q-65 -31 -168 3q113 -81 170 -85l1 -1393q-141 -4 -263 -150q67 49 272 48q38 179 196 218v1526zM679 963l104 50q90 -85 201.5 -79t215.5 210q-93 -71 -178.5 -46t-108.5 147zM572 1399l124 50q257 -155 424 -114t291 245q-111 -71 -322.5 -46t-238.5 147z M299 -131l1 1237l-57 -47v-406q-156 3 -239 -145q144 46 239 10v-208q-148 28 -258 -114q174 29 258 -4v-276q-97 -198 -348 -224q266 -30 404 177zM-92 1318l106 30q62 -81 194.5 -92t275.5 147q-102 -49 -204 -15t-94 139zM977 -402q-44 306 -264 338v1338l-93 75v-1490 q211 34 357 -261zM459 -116q-17 177 -68 213q54 41 66 1103q13 -1062 64 -1099q-53 -42 -62 -217z" />
<glyph unicode="G" horiz-adv-x="1367" d="M552 1379l84 30q87 -85 282 -89t333 220q-121 -51 -272.5 -16t-198.5 137zM356 1217q-95 -51 -258 -17q113 -111 230 -105v-761q-79 6 -212 -110q156 38 222 -2l428 -252l378 342v494q209 27 291 224q-116 -81 -278 -46t-235 157l-260 -282l127 50q44 -75 134 -99v-567 l-71 -63l-318 170v1014zM1186 775l-1 -437l57 47v413zM296 478l2 474q-214 3 -297 -145q144 46 239 10v-188q-148 28 -258 -114q174 29 314 -37zM588 1191l-1 -747l194 169v138l-133 105l-4 288q156 4 154 191q-49 -165 -210 -144zM1040 208q-17 417 -68 453q54 41 66 293 q13 -252 64 -289q-53 -42 -62 -457zM486 1066q-41 -37 -54 -309q-12 272 -56 313q41 36 52 133q15 -95 58 -137zM744 666q-51 -37 -64 -119q-12 82 -66 123q51 36 68 123q9 -85 62 -127z" />
<glyph unicode="H" horiz-adv-x="1309" d="M567 1305v-983l61 -47v1087zM316 1334v-1139q-79 -176 -313 -233q230 -3 387 152l153 -116q138 246 232 296q-134 -25 -160 -74l-90 67v1045q-105 -39 -209 2zM933 1333v-419l-419 -1v-197l419 -1v-528q-65 -118 -196 -195q158 24 254 113l169 -117q158 269 233 304 q-109 3 -154 -63l-79 57v1053q-113 -44 -227 -6zM693 1377l118 50q101 -85 264.5 -79t281.5 210q-105 -71 -239.5 -46t-160.5 147zM73 1377l118 50q101 -85 264.5 -79t281.5 210q-105 -71 -239.5 -46t-160.5 147zM276 237l1 897l-57 -47v-146q-156 3 -239 -145 q144 46 239 10v-118q-148 28 -258 -114q174 29 258 -4v-286q-97 -198 -218 -224q136 -30 274 177zM1049 283q-17 497 -68 533q54 41 66 403q13 -362 64 -399q-53 -42 -62 -537z" />
<glyph unicode="I" horiz-adv-x="904" d="M340 197l1 1127l-57 -47v-426q-156 3 -239 -145q144 46 239 10v-118q-148 28 -258 -114q174 29 258 -4v-236q-90 -229 -258 -274q192 -12 314 227zM82 1395l118 56q79 -78 192 -94l-1 -1186q-69 -229 -378 -384q285 52 465 312l229 -123l151 186l-271 154v1055 q160 60 240 266q-171 -135 -306 -119.5t-241 135.5zM553 1216q-51 -37 -64 -549q-12 512 -66 553q51 36 68 123q9 -85 62 -127zM627 1341l-1 -997l57 47v943q99 101 232 36q-146 138 -288 -29z" />
<glyph unicode="J" horiz-adv-x="926" d="M740 1334v-1147l56 67v1053q77 138 198 164q-136 30 -254 -137zM38 1406l88 28q110 -111 389 -109v-1228q292 -148 -10 -518l94 61q332 500 109 514v1216q106 96 177 202q-220 -131 -421.5 -64t-206.5 152zM59.5 -9q178.5 14 495.5 -321l-64 -85q-158 146 -384.5 141 t-415.5 -137q190 388 368.5 402zM476 143l1 807l-57 -47v-106q-156 3 -239 -145q144 46 239 10v-118q-148 28 -258 -114q174 29 258 -4v-236q-97 -198 -218 -224q136 -30 274 177zM677 1216q-51 -37 -64 -549q-12 512 -66 553q51 36 68 123q9 -85 62 -127z" />
<glyph unicode="K" horiz-adv-x="1245" d="M281 1343v-1159q-79 -176 -313 -233q230 -3 387 152l153 -116q138 246 232 296q-134 -25 -160 -74l-90 67v1105q-105 -79 -209 -38zM658 1386l118 50q101 -85 264.5 -79t281.5 210q-105 -71 -239.5 -46t-160.5 147zM-42 1386l118 50q101 -85 264.5 -79t281.5 210 q-105 -71 -239.5 -46t-160.5 147zM241 226l1 917l-57 -47v-146q-156 3 -239 -145q144 46 239 10v-118q-148 28 -258 -114q174 29 258 -4v-306q-97 -198 -218 -224q136 -30 274 177zM816 1398v-449l-310 -135l320 -154l55 82l-210 83l351 123v311q87 4 170 95 q-263 -74 -376 44zM791 775l249 -1005q-49 -140 -188 -194q159 7 255 122l219 -123q156 212 248 255q-95 4 -159 -63l-170 88l-170 806zM391 167q-17 87 -68 123q54 41 66 553q13 -512 64 -549q-53 -42 -62 -127zM564 1286l-1 -1017l57 47v963q59 81 152 76 q-116 48 -208 -69z" />
<glyph unicode="L" horiz-adv-x="1196" d="M600 1314v-963l61 -47v1067zM1208 1608l-82 -34q-70 58 -183 59t-195 -100q73 49 166 6.5t111 -126.5zM296 277l1 897l-57 -47v-146q-156 3 -239 -145q144 46 239 10v-168q-148 28 -258 -114q174 29 258 -4v-236q-97 -198 -218 -224q116 -30 274 177zM93 1357l118 50 q101 -85 264.5 -79t281.5 210q-105 -71 -239.5 -46t-160.5 147zM336 1314v-1109q-259 -116 -373 -423q200 227 447 215l653 1q68 246 232 376q-164 -45 -230 -154l-520 -1v1093q-105 -39 -209 2zM509 582q-51 -37 -64 -259q-12 222 -66 263q51 36 68 123q9 -85 62 -127z" />
<glyph unicode="M" horiz-adv-x="1654" d="M48 1490q3 -217 139 -264v-953l61 -47l-2 1037q-160 62 -198 227zM618 1382v-1107l-61 47v1003zM1093 1382v-1107l-61 47v1003zM306 1264v-410q-223 4 -365 -245q157 106 365 88v-502q-93 -124 -213 -203q120 23 287 122l153 -116q138 246 232 296q-134 -25 -160 -74 l-90 67v1050l118 101q-37 -69 130 -145v-429h-129v-169h129v-508q-65 -118 -196 -195q158 24 254 113l169 -117q158 269 233 304q-109 3 -154 -63l-79 57v242l1 809l117 101q-37 -69 130 -145v-429h-129v-162h129v-515q-64 -118 -195 -195q157 24 253 113l169 -117 q159 269 234 304q-110 3 -154 -63l-80 57v242v911q-168 -20 -198.5 69t-16.5 138l-259 -204l-1 -3q-168 -20 -198.5 69t-17.5 148l-259 -214zM344 1689q-65 -87 -17 -175.5t146 -118.5q-353 -19 -323 253l-149 75zM877 106q-17 637 -68 673q54 41 66 583q13 -542 64 -579 q-53 -42 -62 -677z" />
<glyph unicode="N" horiz-adv-x="1421" d="M1167 1271v-997l58 47v943q120 112 232 96q-148 76 -290 -89zM-22 1299q166 -5 224 57l100 -132v-1029q-88 -124 -202 -203q114 23 272 122l145 -116q160 246 249 296q-127 -25 -151 -74l-85 67v910l48 56l356 -630v-436q-61 -118 -185 -195q149 24 240 113l160 -117 q150 269 221 304q-104 3 -146 -63l-75 57v241l-443 784q-56 86 104 324l-310 -333l-120 192q94 164 258 138q-113 66 -241 -33q-211 -243 -419 -300zM626 1034v-777l-58 47v893zM759 1323l89 38q58 -33 110 -62l-1 -366l196 -340v710q143 47 221 284q-132 -145 -269.5 -139 t-157.5 133zM270 238l1 977l-57 -47v-276q-156 3 -239 -145q144 46 239 10v-118q-148 28 -258 -114q174 29 258 -4v-236q-97 -198 -218 -224q136 -30 274 177zM475 363q-51 -37 -64 -159q-12 122 -66 163q51 36 68 453q9 -415 62 -457z" />
<glyph unicode="O" horiz-adv-x="1167" d="M286 1337q-65 -31 -148 3q93 -81 150 -65l2 -931q-101 -34 -204 -200q146 128 212 108l368 -252l377 332l5 94l-276 -246l-278 200l-2 1062l49 36q157 -173 314 -213v-966l193 158v923l109 119q-152 -88 -288.5 -21t-141.5 154zM547 1505l-1 -1087l57 47v1033 q177 167 242 129q-53 50 -116 5zM248 386l1 837l-57 -47v-226q-156 3 -239 -145q144 46 239 10v-148q-148 28 -258 -114q174 29 258 -4q0 -211 -268 -370q188 32 324 207zM457 1223q-51 -37 -64 -179q-12 142 -66 183q51 36 68 123q9 -85 62 -127z" />
<glyph unicode="P" horiz-adv-x="1045" d="M250 197l1 1107l-57 -47v-406q-156 3 -239 -145q144 46 239 10v-118q-148 28 -258 -114q174 29 258 -4v-236q-90 -229 -258 -274q192 -12 314 227zM52 1345l118 56q69 -66 132 -84l-1 -1146q-15 -168 -358 -354q223 49 445 262l199 -93q250 -154 195 -392l229 166 q23 217 -383 274l80 148l-211 114v985q71 18 105 74q118 -113 190 -78l1 -481l-257 -180v-103l491 347v421q33 17 139 122q-160 -43 -280 13.5t-199 220.5q-61 -185 -226 -169.5t-221 135.5zM403 167q-17 87 -68 123q54 41 66 553q13 -512 64 -549q-53 -42 -62 -127z M539 1167l-1 -857l57 47v803q79 71 161 57q-101 82 -217 -50z" />
<glyph unicode="Q" horiz-adv-x="1143" d="M770 123q118 27 264.5 -241.5t371.5 -326.5q-87 145 364 205l21 32q-345 -56 -553.5 122t-417.5 249zM276 1337q-65 -31 -148 3q93 -81 151 -65l1 -931q-101 -34 -204 -200q146 128 212 108l368 -252l377 332l5 94l-276 -246l-279 200l-1 1062l49 36q157 -173 314 -213 v-966l193 158v923l109 119q-152 -88 -288.5 -21t-141.5 152zM537 1494l-1 -1087l57 47v1033q319 241 422 216q-146 78 -478 -209zM238 396l1 837l-57 -47v-246q-156 3 -239 -145q144 46 239 10v-148q-148 28 -258 -114q174 29 258 -4q0 -191 -268 -350q188 32 324 207z M451 1230q-51 -37 -64 -379q-12 342 -66 383q51 36 68 123q9 -85 62 -127z" />
<glyph unicode="R" horiz-adv-x="1120" d="M279 198l1 1117l-57 -47v-416q-156 3 -239 -145q144 46 239 10v-118q-148 28 -258 -114q174 29 258 -4v-236q-90 -229 -258 -274q192 -12 314 227zM81 1356l118 56q69 -66 132 -84v-1156q-16 -168 -359 -354q223 49 465 262l199 -93l121 196l-211 114v995q71 18 105 74 q118 -86 190 -78l1 -331l-233 -160v-103l467 327v271q33 17 139 122q-160 -43 -280 13.5t-199 220.5q-61 -185 -236 -169.5t-231 135.5zM701 771l259 -1016q-49 -140 -188 -194q159 7 255 122l219 -123q156 212 248 255q-95 4 -159 -63l-170 88l-180 775zM503 1216 q-51 -37 -64 -549q-12 512 -66 553q51 36 68 123q9 -85 62 -127zM592 1183l-1 -917l57 47v863q99 101 202 56q-116 118 -258 -49z" />
<glyph unicode="S" horiz-adv-x="1066" d="M530 1472v-808q-118 -4 -162 -93q81 41 162 -11v-370l62 -19v803q71 47 141 -16q-45 100 -141 114v403zM143 681q-61 -32 -153 3q69 -97 155 -97v-378q-45 -4 -138 -72q96 19 147 -2l420 -175l422 390v314l98 121q-95 -53 -229 -11l-432 196v410q177 -140 295 -181v-230 l214 191v156l121 122q-168 -90 -291.5 -21.5t-165.5 137.5l-402 -281q-61 -32 -153 3q103 -83 154 -67v-296q-44 -5 -137 -72q76 28 260 -51l431 -203v-383l-58 -60l-329 122l-1 312zM380 1146q-52 -38 -65 -274q-12 236 -67 278q52 37 69 126q9 -87 63 -130z" />
<glyph unicode="T" horiz-adv-x="1173" d="M910 1446v-1237l57 47v1183q-1 141 112 186q-166 8 -169 -179zM580 1179v-740l193 117v708zM296 1127q-65 -31 -168 3q113 -81 170 -85l1 -781l517 -264l377 332l-1 100l-280 -252l-408 200v914zM123 1278q201 122 864 -51q161 91 401 333q-348 -159 -576.5 -96.5 t-314.5 77.5l-409 -235zM257 242l1 767l-57 -47v-106q-156 3 -239 -145q144 46 239 10v-118q-148 28 -258 -114q174 29 258 -4v-196q-97 -198 -218 -224q136 -30 274 177zM465 623q-51 -37 -64 -289q-12 252 -66 293q51 36 68 453q9 -415 62 -457z" />
<glyph unicode="U" horiz-adv-x="1278" d="M122 1390l118 57q69 -67 102 -85l-1 -1208q-29 -102 -168 -157q159 7 205 73l239 -84q135 233 367 221q-196 128 -321 6l-126 37v1116q95 49 171 235q-138 -111 -255 -91t-143 142zM1120 1334v-1037l56 67v943q77 138 198 164q-136 30 -254 -137zM580 1224l-1 -937l57 47 v843q-1 130 120 180q-122 -12 -176 -133zM678 1406l88 28q60 -91 129 -109v-1188l267 -150q140 209 239 257q-120 39 -181 -46l-132 76v1096q106 96 177 202q-220 -131 -291.5 -64t-76.5 152zM310 187l1 1177l-57 -47v-536q-156 3 -239 -145q144 46 239 10v-118 q-148 28 -258 -114q174 29 258 -4v-176q-97 -198 -218 -224q136 -30 274 177zM505 1245q-51 -37 -64 -519q-12 482 -66 523q51 36 68 123q9 -85 62 -127z" />
<glyph unicode="V" horiz-adv-x="982" d="M592 103v1257l-56 -47v-1213q-16 -193 175 -377q-125 178 -119 380zM60.5 1525q-42.5 -198 101.5 -303v-649q-72 37 -211 -49q132 22 210 -48l353 -475v330l-158 232l-1 607l123 130q-232 30 -235 226t154 319q-294 -122 -336.5 -320zM422 1410l89 31q64 -59 111 -69 v-1268q-1 -117 88 -336q-45 145 107 512l-1 953l1 143q66 26 214 255q-148 -119 -256.5 -105t-164.5 136zM785 874q-51 -37 -64 -549q-12 512 -66 553q51 36 68 123q9 -85 62 -127z" />
<glyph unicode="W" horiz-adv-x="1454" d="M1072 83v1267l-51 -47v-1223q-15 -154 114 -296q-72 138 -63 299zM464 1390l92 49q44 -48 88 -77v-819q-55 67 -202 -60q147 49 212 -37l341 -442v357l-144 172l-1 833q47 23 176 255q-128 -114 -234.5 -102.5t-157.5 133.5zM927 1390l81 41q58 -59 101 -69v-1288 q-4 -140 70 -277q-22 172 127 623v803v143q40 26 175 255q-135 -119 -233.5 -105t-149.5 136zM2 1390l92 49q44 -48 89 -77v-819q-56 37 -185 -65q129 54 194 -32l356 -442q-1 -98 106 -232q-58 150 -56 311v1267l-53 -48l2 -952l-158 183v833q46 23 175 255 q-128 -114 -234.5 -102.5t-156.5 133.5zM1270 1220q-51 -37 -64 -419q-12 382 -66 423q51 36 68 123q9 -85 62 -127z" />
<glyph unicode="X" horiz-adv-x="1311" d="M161 1400l95 46q44 -45 100 -72v-203l-1 -90l153 -177l-173 -178v-536q-7 -142 -192 -194q204 7 247 69l166 -79q146 201 197 232q-54 14 -114 -31l-102 46v654l255 -295v202l-256 288v296q69 21 201 238q-131 -107 -240 -96t-161 125zM292 187l-1 1147l-57 -47v-506 q-156 3 -239 -145q144 46 239 10v-88q-148 28 -258 -114q174 29 258 -4v-206q-97 -198 -218 -224q136 -30 276 177zM797 159v1181l-52 -44v-1249q-11 -89 -242 -163q319 -25 379 397l251 -295q145 201 231 242q-88 4 -148 -60l-344 411v361l130 91l1 347q62 24 199 238 q-137 -111 -238 -98t-154 127l-175 -245l83 38q60 -55 104 -64v-1163zM439 102q-17 87 -68 123q54 41 66 413q13 -372 64 -409q-53 -42 -62 -127z" />
<glyph unicode="Y" horiz-adv-x="1131" d="M62 1390l118 57q49 -67 132 -95l-1 -1048l-238 -397l275 313l239 -84q135 233 227 241q-46 68 -181 -14l-126 37v976q95 49 171 235q-138 -111 -255 -91t-143 142zM1040 1334v-1147l56 67v1053q77 138 198 164q-136 30 -254 -137zM545 1230l-1 -777l57 -13v743 q-1 130 120 180q-122 -12 -176 -133zM598 1406l88 28q60 -91 129 -109v-1228q292 -148 -10 -518l94 61q332 500 109 514v1216q106 96 177 202q-220 -131 -291.5 -64t-76.5 152zM289.5 -29q178.5 14 565.5 -301l-64 -85q-228 126 -454.5 121t-454.5 -116q229 367 407.5 381z M261 310l1 1037l-57 -47v-526q-156 3 -239 -145q144 46 239 10v-118q-148 28 -258 -114q174 29 258 -4v-46l-218 -414zM978 1238q-51 -37 -64 -549q-12 512 -66 553q51 36 68 123q9 -85 62 -127z" />
<glyph unicode="Z" horiz-adv-x="980" d="M907 1540l-34 35q-472 -160 -604 -4q-19 84 61 147q-89 -16 -122 -139l-104 -308q291 -50 720 219l-54 -126q-172 -174 -550 -219q266 -25 472 81l-164 -298h-246l-23 -70l-188 -25l171 -25l-29 -79l216 2l-384 -706l25 -27q700 125 772 -17l179 294q-523 119 -873 -161 l331 611h272l39 71l185 29l-161 23l35 83l-264 -1zM961 1549l-742 -1354l115 66l56 127q145 139 469 56q-231 126 -407 58l550 1011q59 115 -20 278q17 -181 -21 -242z" />
<glyph unicode="[" horiz-adv-x="603" d="M576 -283v-41l-403 140v840h139v-839zM173 706v830l403 130v-45l-264 -90v-824zM340 695h-205q-10 27 -30 34t-39.5 0.5t-29.5 -27.5t-0.5 -43.5t31.5 -28.5t42 3t26 37h205q6 -28 26 -37t42 -3t31.5 28.5t-0.5 43.5t-29.5 27.5t-39.5 -0.5t-30 -34z" />
<glyph unicode="\" horiz-adv-x="601" d="M115 1731l-111 18l455 -2039l108 -18z" />
<glyph unicode="]" horiz-adv-x="582" d="M30 -283v-41l403 140v840h-139v-839zM433 706v830l-403 130v-45l264 -90v-824zM266 695h205q10 27 30 34t39.5 0.5t29.5 -27.5t0.5 -43.5t-31.5 -28.5t-42 3t-26 37h-205q-6 -28 -26 -37t-42 -3t-31.5 28.5t0.5 43.5t29.5 27.5t39.5 -0.5t30 -34z" />
<glyph unicode="_" horiz-adv-x="728" d="M-77 -218l-83 -112h930l75 111z" />
<glyph unicode="a" horiz-adv-x="934" d="M556 900v-700l-210 96l-1 311l186 149v119l-274 -223q-94 -84 -274 -60q92 -98 163 -96l-2 -242q-57 18 -156 -90q90 28 183 -14l315 -150l121 127l214 -136q142 296 234 312q-125 -8 -190 -96l-101 59v640q87 120 78 412q-42 -255 -286 -418zM530 722v-477l-56 27v393z M78 966l118 57q63 -112 210.5 -126.5t259.5 106.5t151 274q-145 -244 -335 -207.5t-226 188.5z" />
<glyph unicode="b" horiz-adv-x="871" d="M594 863l1 -666l-14 -13l-201 133v616l124 125q-48 -119 90 -195zM-53 1339q135 -29 235 -3v-1021q-88 16 -202 -63q114 23 202 -48l265 -206l362 352v589q-134 31 -179 129.5t93 281.5l-343 -338v482l43 54l-3 -1208l58 47v1213q129 121 232 96q-146 78 -376 -140.5 t-387 -216.5z" />
<glyph unicode="c" horiz-adv-x="730" d="M155 960q-95 -42 -190 -6q130 -109 194 -89l1 -641q-41 -4 -137 -65q99 13 145 -7l348 -152q152 284 287 342q-133 0 -278 -126l-161 64v762q104 -137 201.5 -127.5t224.5 179.5q-115 -83 -201.5 -16t-91.5 152zM391 1126v-837l56 47v793q129 111 231 107 q-145 67 -287 -110z" />
<glyph unicode="d" horiz-adv-x="847" d="M149 1430l251 -246l-278 -197q-48 -45 -182 -34q161 -71 195 -63l-2 -580q-69 2 -174 -87q105 44 189 -15l311 -208l297 288v715q8 69 142 84q-85 28 -152 11l-463 458l-99 -101q-174 175 42 278q-187 -41 -255 96q-74 -211 178 -399zM572 1006q-16 -29 -17 -72l1 -744 l-224 151v725l120 78zM456 1211l-1 -907l57 -43v943z" />
<glyph unicode="e" horiz-adv-x="788" d="M98 937q-75 -30 -159 -21q100 -47 160 -51l1 -641q-41 -4 -138 -69q100 17 146 -3l328 -152q142 234 337 361q-173 -20 -314 -143l-155 62v752q104 -137 216 -162l-191 -201l2 -95h308v-56l170 219q-97 -95 -223 -90h-193q260 267 394 422q-122 -68 -233.5 -1t-116.5 152 zM331 1126v-827l56 27v803q129 111 -56 -3z" />
<glyph unicode="f" horiz-adv-x="661" d="M164 1428v-244h-100l-121 -115l227 -1v-830q-20 -180 -328 -241q327 -19 395 104l215 -101q147 184 240 226q-113 0 -176 -56l-158 66v842l57 -2q-52 -190 157 -303l165 215q-444 -79 -162 208h-218l1 274q129 -166 274 -147.5t188 144.5q-84 -60 -188.5 4t-153.5 147z M-170 1502q103 25 232 -96v-1183l57 -37l-1 1227q-142 167 -288 89z" />
<glyph unicode="g" horiz-adv-x="862" d="M497 1230q5 -85 121.5 -152t268.5 21l-109 -119v-826q223 -244 -109 -514l-94 -61q302 370 10 518v768q-117 40 -221 177v-762l116 -83q33 28 108 25l-202 -222l-218 152q-46 20 -132 2q83 66 124 70l-1 641q-46 -6 -139 75q83 -34 138 -3zM689 1637q124 -146 106 -280 t-177 -281q62 135 37.5 235.5t-116.5 126.5zM648 1236q-52 24 -181 -87v-793l-56 -47v837q142 167 237 90zM153 -84q80 29 219 -19t237 -267l-38 -45q-136 146 -313.5 151t-322.5 -57q138 208 218 237z" />
<glyph unicode="h" horiz-adv-x="955" d="M374 1424l-2 -1087l58 47v1033q101 103 222 86q-118 107 -278 -79zM-102 1269q148 -11 234 37v-1111q-88 -124 -202 -203q114 23 272 122l145 -116q130 246 219 296q-127 -25 -151 -74l-85 67v620l151 151q-75 -119 83 -195v-676q-120 -92 -71 -269l3 -4 q38 -104 14.5 -152.5t-119.5 -163.5q171 119 232 28q128 174 2 300.5t-50 222.5l204 -161q150 269 221 304q-104 3 -146 -63l-75 57v242v481q-159 -20 -188 69t74 258l-335 -324v422q181 183 378 138q-92 194 -347 -26t-463 -277z" />
<glyph unicode="i" horiz-adv-x="674" d="M2 1320l118 57q93 -112 257.5 -95.5t333.5 269.5q-175 -114 -320 -102.5t-201 133.5zM220 187l1 727l-57 -47v-633q-97 -198 -218 -224q136 -30 274 177zM2 945l118 56q69 -66 132 -84l-1 -736q-49 -140 -188 -194q159 7 255 122l209 -123q156 212 248 255 q-95 4 -159 -63l-170 88l1 655q143 47 221 284q-132 -145 -277 -133.5t-201 131.5z" />
<glyph unicode="j" horiz-adv-x="757" d="M12 960l118 57q69 -67 132 -85l-1 -1158q-124 156 -286 155l-131 -179q228 56 364 -190l249 366v1010q95 34 264 255q-175 -114 -320 -102.5t-201 133.5zM12 1320l118 57q93 -112 257.5 -95.5t333.5 269.5q-175 -114 -320 -102.5t-201 133.5zM497 883l-1 -917l57 47v321 v53v13q83 106 185 53q-102 106 -185 52v53q78 102 176 44q-98 110 -176 61v193q152 146 196 310q-60 -116 -252 -283z" />
<glyph unicode="k" horiz-adv-x="953" d="M389 1032v-75l101 94q12 -41 101 -95q-74 -36 -75 -118l1 -144l-196 -182v-84l155 128l120 -86l-1 -316q-60 -128 -181 -166q142 1 230 86l173 -75q125 195 259 276q-128 -12 -182 -67l-97 35l1 320l-185 100l127 99l-1 204q45 -5 178 201q-126 -89 -218 -34t-135 85z M-128 1360l118 57q69 -67 132 -85l-1 -1178q-50 -102 -174 -157q165 7 211 73l189 -84q146 235 238 279q-95 4 -159 -64l-110 49l1 1086q95 34 264 255q-175 -114 -320 -102.5t-201 133.5zM363 1299l-1 -1027l57 47v973q129 121 232 96q-146 78 -288 -89z" />
<glyph unicode="l" horiz-adv-x="562" d="M-97 1311l137 96q69 -67 132 -85l-1 -1078q-70 -192 -244 -247q185 -13 251 83l269 -94q156 215 248 259q-95 4 -159 -64l-170 69l1 1076q115 24 264 255q-175 -114 -320 -102.5t-201 133.5zM403 1285l-1 -1017l57 47v963q99 101 232 36q-146 138 -288 -29z" />
<glyph unicode="m" horiz-adv-x="1519" d="M235 882l2 -677l-58 47v623q-129 121 -232 96q127 82 288 -89zM-52 1009q148 -11 244 67l80 -142v-739q-88 -124 -202 -203q114 23 272 122l145 -116q130 246 219 296q-127 -25 -151 -74l-85 67v620l151 151q-75 -119 83 -195v-676q-61 -118 -185 -195q149 24 240 113 l160 -117q150 269 221 304q-104 3 -146 -63l-75 57v242v481q-159 -20 -188 69t74 258l-335 -324l-120 192q7 100 181 79q-98 75 -194 -14q-181 -203 -389 -260zM920 907l151 151q-75 -119 83 -195v-676q-61 -118 -185 -195q149 24 240 113l160 -117q150 269 221 304 q-104 3 -146 -63l-75 57v242v481q-159 -20 -188 69t74 258l-335 -324v-105zM567 952v-677l-58 47v573zM1017 952v-677l-58 47v573z" />
<glyph unicode="n" horiz-adv-x="1058" d="M217 882v-677l-58 47v623q-120 112 -232 96q148 76 290 -89zM-72 1009q166 -5 244 67l80 -142v-739q-88 -124 -202 -203q114 23 272 122l145 -116q140 256 229 236q-107 65 -161 -14l-85 67v620l151 151q-15 -149 133 -195v-676q-61 -118 -185 -195q149 24 240 113 l160 -117q150 269 231 424q-114 -117 -156 -183l-75 57v242v481q-189 0 -228 79t64 248l-335 -324l-126 209q12 60 101 65q-49 20 -80 8t-120 -120t-297 -165zM557 952v-677l-58 47v573z" />
<glyph unicode="o" horiz-adv-x="832" d="M138 937q-55 -31 -138 3q93 -81 139 -65l1 -671q-41 -4 -124 -70q86 18 132 -2l268 -152l327 332l5 94l-246 -246l-158 100v782q104 -137 211 -177v-616l193 188v543l109 119q-152 -88 -263.5 -21t-116.5 152zM371 1136v-857l56 47v813q129 111 231 87q-145 77 -287 -90z " />
<glyph unicode="p" horiz-adv-x="800" d="M318 -197l-2 1137l58 -47v-1073q347 -138 614 -114q-107 -140 -670 97zM68 887q-104 -35 -179 -9q85 -77 180 -73l1 -911q-134 -3 -241 -105q118 64 249 23l487 -193q276 -98 555 10q-364 -67 -846 161v1242q104 -137 241 -177v-669l-114 -104l-1 -92l212 193l96 94v693 l109 119q-152 -88 -278.5 -21t-131.5 152zM18 1635q168 -91 224.5 -182.5t12.5 -392.5q-55 206 -120.5 252t-185.5 84z" />
<glyph unicode="q" horiz-adv-x="824" d="M108 927q-55 -31 -138 3q93 -81 139 -65l1 -641q-41 -4 -124 -70q86 18 132 -2l238 -152l181 145l1 101l-76 -66l-148 100v752q104 -137 241 -177v-1296l193 188q130 146 378 147q-190 103 -378 4v1072l109 119q-152 -88 -278.5 -21t-131.5 152zM376 1151v-827l56 47v783 q129 111 231 87q-145 77 -287 -90z" />
<glyph unicode="r" horiz-adv-x="758" d="M-28 945l108 46q38 -62 122 -84l-1 -756q-29 -100 -168 -154q159 7 205 72l239 -83q106 232 198 275q-95 4 -159 -63l-120 48l1 775q-181 62 -237 182zM170 154l1 746l-57 -47v-652q-77 -156 -198 -182q136 -29 254 135zM413 979v-67l51 74q53 -107 155.5 -107t237.5 258 q-70 -78 -172.5 -62.5t-137.5 136.5z" />
<glyph unicode="s" horiz-adv-x="704" d="M89 995q-68 -52 -159 -36q78 -62 132 -49v-249v-243l35 -24l355 292v-644q-83 131 -193 178v252l-197 -165l-1 -180q-100 -66 -156 -255q79 126 196 156.5t382 -44.5l164 171v755l-390 -322l2 441q86 -110 230 -144.5t291 189.5l-17 17q-85 -76 -203.5 -23.5 t-172.5 145.5q24 53 89 46q-56 47 -125 -23zM353 -79v995l-56 44v-971q-209 15 -256 -118q103 93 312 50z" />
<glyph unicode="t" horiz-adv-x="845" d="M52 1320l118 57q69 -67 102 -85v-169l-74 -1v82l-187 -246q105 -157 1 -334q201 141 195 307l64 -1v-656q-42 -170 -258 -287q286 39 325 163l279 -164q219 275 311 319q-95 4 -222 -114l-240 129v604h56l2 -572l56 47v521h118q-115 -185 28 -326q-44 98 206 161 q-302 -36 -194 184l102 191l-260 -1v93q77 138 198 164q-136 30 -263 -147l2 -113l-50 -1v171q95 34 264 255q-175 -114 -305 -102.5t-186 133.5z" />
<glyph unicode="u" horiz-adv-x="1101" d="M-58 960l118 57q69 -67 102 -85l-1 -718q-29 -162 -168 -217q159 7 225 123l199 -134l242 270l2 108l-158 -181l-146 87v666q95 49 171 235q-138 -111 -255 -91t-143 142zM910 904v-637l56 67v523q77 158 198 184q-136 30 -254 -137zM400 794l-1 -507l57 47v413 q-1 130 120 180q-122 -12 -176 -133zM448 976l88 28q60 -91 129 -109v-758l264 -156q185 213 267 243q-78 41 -187 -41l-141 71v686q96 96 167 202q-220 -131 -291.5 -64t-76.5 152z" />
<glyph unicode="v" horiz-adv-x="956" d="M592 133v777l-56 -47v-733q-16 -193 175 -377q-125 178 -119 380zM60.5 1285q-42.5 -198 101.5 -303v-479q-72 37 -211 -49q132 22 210 -48l353 -375l1 290l-159 172l-1 437l123 130q-232 30 -235 226t154 319q-294 -122 -336.5 -320zM422 960l89 31q64 -59 111 -69v-788 q-1 -117 88 -336q-45 145 107 512l-1 473l1 143q66 26 214 255q-148 -119 -256.5 -105t-164.5 136z" />
<glyph unicode="w" horiz-adv-x="1477" d="M1062 163v747l-51 -47v-703q-15 -154 114 -296q-72 138 -63 299zM454 950l92 49q44 -48 88 -77v-389q-55 67 -202 -60q147 49 212 -37l341 -352v307l-145 132v403q47 23 176 255q-128 -114 -234.5 -102.5t-157.5 133.5zM917 950l81 41q58 -59 101 -69v-768 q-4 -140 70 -277q-22 172 127 533v373v143q40 26 175 255q-135 -119 -233.5 -105t-149.5 136zM-8 950l92 49q44 -48 89 -77v-389q-56 37 -185 -65q129 54 194 -32l356 -352q-1 -98 106 -232q-58 150 -56 311v747l-57 -47l-1 -472l-152 132v403q47 23 176 255 q-128 -114 -234.5 -102.5t-156.5 133.5z" />
<glyph unicode="x" horiz-adv-x="1026" d="M617 139v811l-52 -44v-769q-70 -89 -146 -114q156 2 198 116zM-19 990l95 46q44 -45 100 -72v-93l-1 -90l153 -127l-153 -158v-306q-27 -142 -212 -194q204 7 247 69l166 -79q146 201 197 232q-54 14 -114 -31l-102 46v404l255 -215l-1 242l-254 198l-1 106 q69 21 201 238q-131 -107 -240 -96t-161 125zM455 990l83 38q60 -55 104 -64v-821q-28 -103 -158 -147q148 7 191 158l228 -168q155 201 241 242q-88 4 -158 -48l-316 255v194l152 102l1 237q62 24 199 238q-137 -111 -238 -98t-154 127z" />
<glyph unicode="y" horiz-adv-x="1052" d="M-28 960l118 57q69 -67 102 -85l-1 -778q-29 -102 -168 -157q159 7 205 73l239 -84q135 233 227 241q-46 68 -181 -14l-126 37v686q95 49 171 235q-138 -111 -255 -91t-143 142zM920 904v-737l56 67v623q77 158 198 184q-136 30 -254 -137zM430 794l-1 -507l57 47v413 q-1 130 120 180q-122 -12 -176 -133zM478 976l88 28q60 -91 129 -109v-798q292 -148 -10 -518l94 61q332 270 109 514v786q106 96 177 202q-220 -131 -291.5 -64t-76.5 152zM184.5 -64q93.5 9 255 -39t275.5 -267l-44 -45q-158 146 -364.5 171t-375.5 -37q160 208 253.5 217 z" />
<glyph unicode="z" horiz-adv-x="777" d="M677 1140l-34 35q-352 -160 -484 -4q-19 84 61 147q-89 -16 -122 -139l-104 -308q261 -50 600 219l-206 -372h-266l-23 -70l-268 -25l251 -25l-29 -79l216 2l-284 -496l25 -27q490 125 562 -17l179 294q-283 119 -663 -161l231 401h272l39 71l315 26l-291 26l35 83 l-244 -1zM731 1149l-552 -954l105 66l488 852q59 115 -20 278q17 -181 -21 -242z" />
<glyph unicode="{" horiz-adv-x="612" d="M576 -370v-44l-403 151q210 455 0 909h139q210 -454 0 -907zM173 700q230 449 0 898l403 141v-49l-264 -97q230 -446 0 -892zM340 688h-205q-10 30 -30 37.5t-39.5 0.5t-29.5 -30t-0.5 -47t31.5 -30.5t42 3t26 39.5h205q6 -30 26 -39.5t42 -3t31.5 30.5t-0.5 47t-29.5 30 t-39.5 -0.5t-30 -37.5z" />
<glyph unicode="}" horiz-adv-x="550" d="M30 -370v-44l403 151q-210 455 0 909h-139q-210 -454 0 -907zM433 700q-230 449 0 898l-403 141v-49l264 -97q-230 -446 0 -892zM266 688h205q10 30 30 37.5t39.5 0.5t29.5 -30t0.5 -47t-31.5 -30.5t-42 3t-26 39.5h-205q-6 -30 -26 -39.5t-42 -3t-31.5 30.5t0.5 47 t29.5 30t39.5 -0.5t30 -37.5z" />
<glyph unicode="&#xa3;" horiz-adv-x="1390" d="M308 747l-1 -563q-85 -65 -299 -77q179 -90 370 -15l258 -132l186 187q152 -156 301 -161.5t299 214.5q-192 -117 -454 186l-246 -246l-208 100v456l310 1l60 96l-370 2v58l311 -1l55 99l-316 -1v502q104 -137 211 -177v-236l193 198v153l109 119q-152 -88 -263.5 -21 t-116.5 152l-339 -293q-55 -31 -188 3q103 -111 189 -115v-281l111 -80zM278 198l1 531l-57 -37v-196q-196 3 -219 -115q104 77 219 28v-113q-188 22 -238 -90q144 63 294 -8z" />
<glyph unicode="&#xad;" d="M173 792l-83 -182h760l75 181z" />
<glyph unicode="&#xbc;" horiz-adv-x="1160" d="M71 1463l95 30q16 -20 46 -25l-1 -646q-28 -55 -98 -85q93 4 119 39l136 -45q88 116 140 140q-54 2 -90 -35l-96 38v597l54 63q-119 6 -120 91zM350 1466v-565l31 25v580zM823 1696h95l-698 -1955l-93 1zM963 726v-258l-273 -227v-164q-27 -54 -130 -52q58 -35 150 -30 l340 -1q42 186 143 243q-99 -35 -149 -146h-244v175l266 220v385q-52 -113 -103 -145zM671 740l63 31q76 -92 156 -74.5t164 177.5q-119 -98 -186 -78.5t-96 84.5z" />
<glyph unicode="&#xbd;" horiz-adv-x="1028" d="M21 1463l95 30q16 -20 46 -25l-1 -646q-28 -55 -98 -85q93 4 119 39l136 -45q88 116 140 140q-54 2 -90 -35l-96 38v597l54 63q-119 6 -120 91zM300 1466v-565l31 25v580zM780 717v-460h-259v-41h259v-113q-35 -64 -106 -106q86 13 138 61l91 -63q85 145 126 164 q-59 2 -83 -34l-43 31v69l103 -1v35l-103 1v460q-61 -24 -123 -3zM651 741l63 27q55 -46 143.5 -43t152.5 113q-57 -38 -130 -24.5t-87 79.5zM415 273q114 -38 213 45q71 371 145 397q-79 3 -177 -228t-181 -214zM77 -258l93 -1l698 1958l-95 1z" />
<glyph unicode="&#xbe;" horiz-adv-x="1319" d="M1040 717v-460h-259v-41h259v-113q-35 -64 -106 -106q86 13 138 61l91 -63q85 145 126 164q-59 2 -83 -34l-43 31v69l103 -1v35l-103 1v460q-61 -24 -123 -3zM911 741l63 27q55 -46 143.5 -43t152.5 113q-57 -38 -130 -24.5t-87 79.5zM675 273q114 -38 213 45 q71 371 145 397q-79 3 -177 -228t-181 -214zM1033 1696h95l-698 -1955l-93 1zM553 1515q36 -17 94 1q-63 -43 -95 -46v-151l-212 -66l211 -66v-315q79 -2 147 -91q-32 37 -152 36l-109 90v279l-172 61l172 73v284zM49 801l83 27q72 -73 157 -61.5t154 131.5 q-74 -38 -132 -24.5t-76 79.5zM108 1506l60 32q48 -72 130 -66.5t138 137.5q-51 -38 -118.5 -25t-80.5 79z" />
<glyph unicode="&#xd7;" horiz-adv-x="806" d="M739 863v257l-658 -607l-1 -255zM735 258l-1 255l-657 607v-257z" />
<glyph unicode="&#xf7;" horiz-adv-x="1008" d="M173 792l-83 -182h840l75 181zM443 824v202l82 1l24 297l23 -302l85 1v-199h-214zM435 577v-202l82 -1l24 -297l23 302l85 -1v199h-214z" />
<glyph unicode="&#x2000;" horiz-adv-x="925" />
<glyph unicode="&#x2001;" horiz-adv-x="1851" />
<glyph unicode="&#x2002;" horiz-adv-x="925" />
<glyph unicode="&#x2003;" horiz-adv-x="1851" />
<glyph unicode="&#x2004;" horiz-adv-x="617" />
<glyph unicode="&#x2005;" horiz-adv-x="462" />
<glyph unicode="&#x2006;" horiz-adv-x="308" />
<glyph unicode="&#x2007;" horiz-adv-x="308" />
<glyph unicode="&#x2008;" horiz-adv-x="231" />
<glyph unicode="&#x2009;" horiz-adv-x="370" />
<glyph unicode="&#x200a;" horiz-adv-x="102" />
<glyph unicode="&#x2010;" d="M173 792l-83 -182h760l75 181z" />
<glyph unicode="&#x2011;" d="M173 792l-83 -182h760l75 181z" />
<glyph unicode="&#x2012;" d="M173 792l-83 -182h760l75 181z" />
<glyph unicode="&#x2013;" horiz-adv-x="1179" d="M192 792l-102 -182h932l92 181z" />
<glyph unicode="&#x2014;" horiz-adv-x="2203" d="M294 792l-204 -182h1864l184 181z" />
<glyph unicode="&#x2018;" horiz-adv-x="237" d="M214 1301v247l-102 -54q-57 183 116 357q-210 -130 -200 -410v-253z" />
<glyph unicode="&#x2019;" horiz-adv-x="276" d="M52 1689v-247l102 54q57 -183 -116 -357q210 130 200 410v253z" />
<glyph unicode="&#x201c;" horiz-adv-x="478" d="M444 1291v247l-102 -54q-57 183 116 357q-210 -130 -200 -410v-253zM224 1291v247l-102 -54q-57 183 116 357q-210 -130 -200 -410v-253z" />
<glyph unicode="&#x201d;" horiz-adv-x="477" d="M42 1689v-247l102 54q57 -183 -116 -357q210 130 200 410v253zM262 1689v-247l102 54q57 -183 -116 -357q210 130 200 410v253z" />
<glyph unicode="&#x2022;" horiz-adv-x="614" d="M384 496v177l-82 -44l-24 297l-23 -323l-57 -37v-183zM109 300l356 229q-5 28 8.5 44.5t33.5 21t39.5 -8.5t23 -37t-12.5 -40.5t-38 -19.5t-41 18l-356 -228q9 -27 -3.5 -45t-34 -24.5t-41.5 8t-22 37.5t11 39t34 20t43 -14zM198 302v-177l82 44l24 -297l23 323l57 37 v183z" />
<glyph unicode="&#x202f;" horiz-adv-x="370" />
<glyph unicode="&#x205f;" horiz-adv-x="462" />
<glyph unicode="&#xe000;" horiz-adv-x="1235" d="M0 1235h1235v-1235h-1235v1235z" />
</font>
</defs>
</svg>
