<?xml version="1.0" standalone="no"?>
<!DOCTYPE svg PUBLIC "-//W3C//DTD SVG 1.1//EN" "http://www.w3.org/Graphics/SVG/1.1/DTD/svg11.dtd" >
<svg xmlns="http://www.w3.org/2000/svg">
<metadata></metadata>
<defs>
<font id="overlockbold" horiz-adv-x="535" >
<font-face units-per-em="1000" ascent="800" descent="-200" />
<missing-glyph horiz-adv-x="215" />
<glyph horiz-adv-x="1000" />
<glyph horiz-adv-x="1000" />
<glyph unicode="&#xd;" horiz-adv-x="333" />
<glyph unicode=" "  horiz-adv-x="215" />
<glyph unicode="&#x09;" horiz-adv-x="215" />
<glyph unicode="&#xa0;" horiz-adv-x="215" />
<glyph unicode="!" horiz-adv-x="308" d="M85 686q44 8 69 8q62 0 62 -55q-1 -38 -9 -118.5t-8 -135.5q0 -112 15 -152q-29 -13 -52 -13q-56 0 -57 50q-1 31 -1.5 107t-1.5 122.5t-5 101.5t-12 85zM87 61q0 30 22 50.5t51 20.5q30 0 51 -20t21 -51q0 -30 -22 -50.5t-52 -20.5q-29 0 -50 20.5t-21 50.5z" />
<glyph unicode="&#x22;" horiz-adv-x="395" d="M42 695q0 19 18.5 30t45.5 11q24 0 40.5 -11.5t16.5 -36.5q0 -44 -19 -172q-10 -45 -54 -45q-16 0 -37 6q3 18 3 42q0 62 -7 114t-7 62zM240 695q0 19 18.5 30t45.5 11q24 0 40.5 -11.5t16.5 -36.5q0 -44 -19 -172q-10 -45 -54 -45q-16 0 -37 6q3 18 3 42q0 62 -7 114 t-7 62z" />
<glyph unicode="#" d="M-3 225q0 47 79 47h65l16 117q-66 -4 -126 -22q-8 28 -8 45q0 46 78 46l64 -1q15 160 15 162q15 4 31 4q39 0 39 -38q0 -27 -21 -128h115q0 4 7.5 72t8.5 90q13 4 29 4q41 0 41 -38q0 -17 -21 -126q59 1 130 6q3 -13 3 -31q0 -51 -50 -51q-31 0 -96 5l-17 -117 q74 3 133 8q2 -18 2 -35q0 -47 -51 -47q-39 0 -94 5q-8 -96 -8 -102q0 -36 3 -61q-21 -11 -38 -11q-35 0 -35 39q0 32 18 138h-119q-9 -99 -9 -101q0 -34 3 -65q-20 -11 -38 -11q-35 0 -35 39q0 20 18 136q-61 -3 -125 -22q-7 25 -7 44zM199 270h121l16 121h-118z" />
<glyph unicode="$" d="M35 91q0 41 58 68q17 -34 57 -58.5t85 -30.5v208q-40 12 -67.5 24.5t-56.5 35.5t-44 60t-15 88q0 77 50.5 124t131.5 59q-2 55 -4 67q15 3 23 3q37 0 37 -27v-39q67 -2 125 -28.5t58 -70.5q0 -52 -68 -66q-13 32 -45 55.5t-70 30.5v-205q37 -10 57.5 -17t51.5 -22 t47.5 -32.5t29 -46t12.5 -65.5q0 -101 -55 -152.5t-142 -60.5q2 -53 4 -69l-20 -2q-40 0 -40 27v41q-80 2 -140 31.5t-60 69.5zM144 497q0 -35 23.5 -56t67.5 -35v188q-41 -6 -66 -30.5t-25 -66.5zM290 71q47 6 76.5 32t29.5 73q0 35 -27 53.5t-79 32.5v-191z" />
<glyph unicode="%" horiz-adv-x="819" d="M42 496q0 78 42 123.5t114 45.5q71 0 113 -45.5t42 -123.5t-42 -124t-113 -46q-72 0 -114 46t-42 124zM137 506q0 -45 15.5 -80.5t44.5 -35.5q27 0 43 28t16 71q0 44 -15.5 78.5t-42.5 34.5t-44 -27.5t-17 -68.5zM165 7q0 12 8 24l294 466q66 104 119 199q70 -5 70 -42 q0 -11 -7 -22l-293 -466q-67 -106 -119 -199q-72 11 -72 40zM466 160q0 78 42 123.5t114 45.5q71 0 113 -45.5t42 -123.5t-42 -124t-113 -46q-72 0 -114 46t-42 124zM561 170q0 -45 15.5 -80.5t44.5 -35.5q27 0 43 28t16 71q0 44 -15.5 78.5t-42.5 34.5t-44 -27.5t-17 -68.5 z" />
<glyph unicode="&#x26;" horiz-adv-x="631" d="M42 169q0 60 29 101t80 77q-23 34 -48 76q-24 40 -24 95q0 71 51.5 113t131.5 42q73 0 114 -37.5t41 -89.5q0 -37 -13 -68.5t-40.5 -58.5t-46 -41t-52.5 -37q67 -97 152 -173q7 30 7 56q0 43 -9 62q24 12 47 12q61 0 61 -59q0 -72 -32 -128q62 -40 112 -40q2 -12 2 -25 q0 -24 -21.5 -40t-67.5 -16q-40 0 -99 43q-67 -43 -151 -43q-91 0 -157.5 47.5t-66.5 131.5zM148 183q0 -55 36.5 -88t95.5 -33q44 0 79 23q-76 77 -165 200q-46 -48 -46 -102zM175 527q0 -43 53 -130q45 30 68.5 59t23.5 68q0 34 -17 58.5t-52 24.5q-76 0 -76 -80z" />
<glyph unicode="'" horiz-adv-x="261" d="M50 695q0 19 18.5 30t45.5 11q24 0 40.5 -11.5t16.5 -36.5q0 -44 -19 -172q-10 -45 -54 -45q-16 0 -37 6q3 18 3 42q0 62 -7 114t-7 62z" />
<glyph unicode="(" horiz-adv-x="352" d="M76 269q0 83 22 170t52.5 149.5t62.5 102.5t53 40q28 0 49 -30q-61 -68 -98 -190t-37 -242q0 -132 38.5 -250t96.5 -186q-21 -30 -49 -30q-21 0 -52.5 39t-62.5 100.5t-53 150.5t-22 176z" />
<glyph unicode=")" horiz-adv-x="341" d="M25 -173q61 68 98 192.5t37 245.5q0 132 -38.5 250t-96.5 186q21 30 49 30q21 0 52.5 -39t62.5 -100.5t53 -150.5t22 -176q0 -83 -22 -171t-52.5 -151.5t-62.5 -104.5t-53 -41q-28 0 -49 30z" />
<glyph unicode="*" horiz-adv-x="421" d="M30 593q4 27 21 49t42 22q16 0 40 -13t41 -31q-13 81 -20 114q31 9 49 9q62 0 62 -46q0 -24 -14 -80q65 46 88 69q44 -38 44 -66q0 -43 -123 -74q41 -38 109 -89q-11 -20 -30 -34t-41 -14q-24 0 -43 23.5t-46 74.5q-5 -9 -29 -52.5t-36 -62.5q-29 10 -51.5 27.5 t-22.5 36.5q0 28 89 93q-98 35 -129 44z" />
<glyph unicode="+" d="M37 248q0 19 12.5 34t39.5 15q22 0 63.5 -3.5t70.5 -3.5q0 106 -9 184q21 7 47 7q25 0 41.5 -12t16.5 -31q0 -20 -3.5 -76t-3.5 -73q104 0 180 10q6 -17 6 -39q0 -20 -14.5 -34.5t-37.5 -14.5q-19 0 -70 3.5t-65 3.5q0 -102 9 -190q-29 -6 -47 -6q-23 0 -40.5 11 t-17.5 33q0 24 3.5 73t3.5 80q-93 -1 -181 -9q-4 20 -4 38z" />
<glyph unicode="," horiz-adv-x="243" d="M23 -116q0 10 1 15h5q32 0 53 22t21 50q0 45 -49 54q-10 19 -10 38q0 24 21 40.5t51 16.5q32 0 55 -24t23 -74q0 -66 -41.5 -121t-98.5 -55q-31 0 -31 38z" />
<glyph unicode="-" horiz-adv-x="260" d="M25 257q0 19 12.5 32.5t39.5 13.5q7 0 35 -2t48 -2q48 0 88 10q7 -21 7 -40q0 -21 -14 -33.5t-38 -12.5q-11 0 -36 2.5t-42 2.5q-44 0 -95 -11q-5 24 -5 40z" />
<glyph unicode="." horiz-adv-x="238" d="M42 61q0 30 22 50.5t52 20.5q29 0 50 -20.5t21 -50.5t-22 -50.5t-51 -20.5q-30 0 -51 20t-21 51z" />
<glyph unicode="/" horiz-adv-x="263" d="M36 -90q0 2 2 13.5t8.5 52t15.5 97.5t28 174.5t41 258.5q19 115 31 231q15 5 31 5q41 0 41 -28q0 -4 -16 -103q-37 -231 -78 -495q-26 -161 -31 -231q-17 -3 -33 -3q-40 0 -40 28z" />
<glyph unicode="0" d="M25 331q0 157 67 249.5t180 92.5t180.5 -92.5t67.5 -249.5q0 -155 -67.5 -248t-180.5 -93t-180 92.5t-67 248.5zM133 360q0 -74 14.5 -139.5t47 -111t77.5 -45.5q63 0 101.5 72t38.5 179q0 69 -14.5 131.5t-47.5 107.5t-77 45q-61 0 -100.5 -69.5t-39.5 -169.5z" />
<glyph unicode="1" d="M114 602q0 47 39 54q108 17 148 17q17 0 30.5 -11t13.5 -36q0 -2 -4 -121t-4 -210q0 -166 7 -227q71 0 100 4q4 -14 4 -27q0 -47 -39 -47q-7 0 -66.5 1t-103.5 1q-86 0 -117 -1q-5 18 -5 30q0 42 58 42h64q0 18 1 106t1 161q0 141 -3 252q-106 -12 -121 -15q-3 15 -3 27z " />
<glyph unicode="2" d="M39 47q0 10 1 14q188 168 254 251.5t66 158.5q0 58 -33.5 92t-81.5 34q-39 0 -77.5 -23.5t-63.5 -61.5q-23 3 -36 16.5t-13 32.5q0 39 66 75.5t142 36.5q82 0 141.5 -48t59.5 -135q0 -55 -19 -104.5t-64 -102t-91.5 -95.5t-129.5 -111q19 -1 78 -1q102 0 149.5 5t94.5 23 q14 -30 14 -51q0 -31 -25 -41q-39 -14 -166 -14q-155 0 -218 2q-48 0 -48 47z" />
<glyph unicode="3" d="M55 55q0 20 13 33t34 16q31 -40 109 -40q68 0 105.5 38.5t37.5 88.5q0 53 -45.5 91t-126.5 38q-11 0 -16.5 1t-11 5t-7.5 13t-2 24q0 10 1 17q93 0 140 36t47 85q0 39 -26 68t-69 29q-33 0 -65.5 -20t-51.5 -58q-23 0 -37.5 14.5t-14.5 34.5q0 34 58 69t130 35 q87 0 135.5 -45.5t48.5 -108.5q0 -48 -28 -90t-86 -65q79 -30 107 -72t28 -102q0 -81 -66 -140.5t-182 -59.5q-71 0 -115 17.5t-44 47.5z" />
<glyph unicode="4" d="M37 253q0 15 2 31q43 74 142 206t143 171q19 12 70 12q14 0 38 -2q0 -3 -2 -43t-4.5 -110.5t-2.5 -146.5v-87q74 6 98 17q8 -22 8 -46q0 -35 -20 -43q-24 -10 -87 -11q0 -142 21 -203q-22 -8 -54 -8q-37 0 -50.5 13t-13.5 44q0 39 2 153q-211 0 -267 7q-23 3 -23 46z M139 281q44 -3 91 -3q50 0 97 3q0 107 2 265q-96 -117 -190 -265z" />
<glyph unicode="5" d="M57 55q0 40 47 49q31 -40 105 -40q71 0 110.5 45t39.5 105q0 62 -46 106.5t-126 44.5q-41 0 -79 -5q-10 10 -10 48q0 15 13 256q31 -2 211 -2q75 0 118 8q10 -18 10 -42q0 -54 -76 -54q-78 0 -183 6l-14 -150q37 6 70 6q108 0 164 -57.5t56 -150.5q0 -102 -66.5 -170 t-182.5 -68q-77 0 -119 18.5t-42 46.5z" />
<glyph unicode="6" d="M54 275q0 101 37.5 190t116.5 148.5t183 59.5q44 0 44 -44q0 -9 -5 -36q-20 4 -43 4q-97 0 -157 -77.5t-67 -187.5q61 69 150 69q74 0 126.5 -52.5t52.5 -138.5t-60 -153t-160 -67q-61 0 -105.5 24t-68 66t-34 90t-10.5 105zM162 267q1 -42 6.5 -74.5t17.5 -63.5 t36 -47.5t58 -16.5q49 0 76.5 38t27.5 91q0 60 -30.5 96t-77.5 36q-59 0 -114 -59z" />
<glyph unicode="7" d="M45 628q0 17 10 42q50 -8 115 -8q259 0 312 2q8 -16 8 -37q0 -20 -6 -38q-18 -53 -107 -227.5t-160 -302.5q-38 -69 -81 -69q-40 0 -77 42q81 85 176.5 254t143.5 292q-144 -4 -258 -4q-76 0 -76 54z" />
<glyph unicode="8" d="M47 177q0 117 134 182q-108 68 -108 166q0 66 57.5 107.5t138.5 41.5t139 -41.5t58 -107.5q0 -99 -110 -150q137 -71 137 -198q0 -77 -58 -132.5t-165 -55.5t-165 55.5t-58 132.5zM152 176q0 -45 32 -78.5t85 -33.5t84.5 33.5t31.5 78.5q0 53 -32 85t-107 66 q-51 -31 -72.5 -63.5t-21.5 -87.5zM175 525q0 -43 27 -72.5t80 -54.5q82 39 82 127q0 32 -28 53t-67 21t-66.5 -21t-27.5 -53z" />
<glyph unicode="9" d="M46 453q0 86 60 153t160 67q61 0 105.5 -24t68 -66t34 -90t10.5 -105q0 -101 -37.5 -190t-116.5 -148.5t-183 -59.5q-44 0 -44 44q0 9 5 36q20 -4 43 -4q97 0 157 77.5t67 187.5q-61 -69 -150 -69q-74 0 -126.5 52.5t-52.5 138.5zM154 469q0 -60 30.5 -96t77.5 -36 q59 0 114 59q-1 42 -6.5 74.5t-17.5 63.5t-36 47.5t-58 16.5q-49 0 -76.5 -38t-27.5 -91z" />
<glyph unicode=":" horiz-adv-x="238" d="M42 66q0 32 21.5 54.5t51.5 22.5t51 -22.5t21 -54.5q0 -33 -21 -54.5t-51 -21.5q-31 0 -52 21.5t-21 54.5zM42 408q0 32 21.5 54.5t51.5 22.5t51 -22.5t21 -54.5q0 -33 -21 -54.5t-51 -21.5q-31 0 -52 21.5t-21 54.5z" />
<glyph unicode=";" horiz-adv-x="259" d="M23 -116q0 10 1 15h5q32 0 53 22t21 50q0 45 -49 54q-10 19 -10 38q0 24 21 40.5t51 16.5q32 0 55 -24t23 -74q0 -66 -41.5 -121t-98.5 -55q-31 0 -31 38zM48 408q0 32 21.5 54.5t51.5 22.5t51 -22.5t21 -54.5q0 -33 -21 -54.5t-51 -21.5q-31 0 -52 21.5t-21 54.5z" />
<glyph unicode="&#x3c;" d="M95 253l221 211q13 13 35 13q21 0 39 -12.5t25 -28.5l-211 -183l211 -194q-8 -17 -26.5 -29t-37.5 -12q-23 0 -36 12z" />
<glyph unicode="=" d="M59 150q0 19 12.5 34t39.5 15q11 0 66 -3.5t92 -3.5q128 0 201 9q6 -18 6 -39t-14.5 -35t-37.5 -14q-30 0 -80.5 4t-72.5 4q-99 0 -207 -10q-5 24 -5 39zM59 346q0 19 12.5 34t39.5 15q11 0 66 -3.5t92 -3.5q128 0 201 9q6 -18 6 -39t-14.5 -35t-37.5 -14q-30 0 -80.5 4 t-72.5 4q-99 0 -207 -10q-5 24 -5 39z" />
<glyph unicode="&#x3e;" d="M110 59l211 194l-211 183q8 16 26 28.5t39 12.5t36 -13l220 -211l-220 -223q-13 -12 -36 -12q-20 0 -38 11.5t-27 29.5z" />
<glyph unicode="?" horiz-adv-x="399" d="M34 591q0 42 48 67.5t114 25.5q80 0 133 -35.5t53 -101.5q0 -38 -15.5 -71.5t-31 -51t-43.5 -42.5q-20 -18 -30 -29t-20.5 -31.5t-10.5 -40.5q0 -22 11 -55q-28 -17 -54 -17q-61 0 -61 66q0 27 13 54t25.5 41.5t38.5 42.5q24 25 36 40t24 41t12 54q0 33 -18 49.5 t-48 16.5q-33 0 -62.5 -21t-38.5 -55q-75 12 -75 53zM120 61q0 30 22 50.5t52 20.5q29 0 50 -20.5t21 -50.5t-22 -50.5t-51 -20.5q-30 0 -51 20t-21 51z" />
<glyph unicode="@" horiz-adv-x="855" d="M76 180q0 73 28.5 145t80 131.5t131 96.5t173.5 37q132 0 210.5 -71.5t78.5 -181.5q0 -109 -68 -188.5t-140 -79.5q-67 0 -87 77q-53 -92 -129 -92q-50 0 -82.5 37t-32.5 105q0 102 56 174.5t138 72.5q93 0 160 -46q-37 -139 -37 -213q0 -52 32 -52q33 0 63 49t30 131 q0 99 -52 153.5t-160 54.5q-88 0 -158 -52t-105 -127.5t-35 -154.5q0 -94 57.5 -156.5t169.5 -62.5q103 0 133 63q58 -19 58 -51q0 -39 -57 -63.5t-142 -24.5q-154 0 -234 83t-80 206zM336 221q0 -40 12 -65.5t33 -25.5q38 0 80 70q4 23 10 76.5t8 67.5q-26 25 -56 25 q-38 0 -62.5 -40.5t-24.5 -107.5z" />
<glyph unicode="A" horiz-adv-x="573" d="M4 20q0 14 42.5 113.5t103.5 253.5t96 273q20 3 52 3q26 0 40.5 -10.5t25.5 -42.5q77 -240 112 -330q75 -195 113 -270q-38 -20 -64 -20q-42 0 -58 27q-12 31 -33.5 91.5t-33.5 92.5q-98 -2 -119 -2q-26 0 -108 2q-65 -167 -80 -222q-89 10 -89 41zM204 275q64 -2 98 -2 q52 0 72 1q-15 41 -29.5 85.5t-30.5 95.5t-22 70q-48 -151 -88 -250z" />
<glyph unicode="B" horiz-adv-x="550" d="M59 53q16 114 16 334q0 186 -13 274q77 12 167 12q114 0 186.5 -40t72.5 -132q0 -100 -87 -139q111 -47 111 -171q0 -95 -64.5 -148t-157.5 -53q-151 0 -231 63zM165 103q16 -15 46.5 -25.5t58.5 -10.5q54 0 91 33.5t37 91.5q0 65 -40.5 99t-100.5 34q-54 0 -79 -5 q0 -43 -4.5 -118t-8.5 -99zM175 592q4 -76 4 -203q26 -2 45 -2q150 0 150 103q0 106 -144 106q-19 0 -55 -4z" />
<glyph unicode="C" horiz-adv-x="609" d="M42 332q0 160 88.5 250.5t239.5 90.5q81 0 136 -31.5t55 -77.5q0 -24 -19.5 -42t-59.5 -24q-15 47 -53.5 71.5t-80.5 24.5q-85 0 -138.5 -69t-53.5 -174q0 -121 54.5 -201.5t153.5 -80.5q45 0 87 21.5t66 64.5q22 -11 38 -28.5t16 -36.5q0 -41 -58.5 -70.5t-147.5 -29.5 q-146 0 -234.5 94.5t-88.5 247.5z" />
<glyph unicode="D" horiz-adv-x="638" d="M56 53q14 91 16 336q0 175 -13 272q63 12 161 12q81 0 145.5 -17t118 -54.5t83 -105.5t29.5 -163q0 -150 -83 -246.5t-237 -96.5q-142 0 -220 63zM162 105q48 -35 119 -35q56 0 97 22.5t62.5 60t31.5 78t10 84.5q0 140 -65.5 210.5t-187.5 70.5q-19 0 -57 -4 q4 -65 4 -153q0 -207 -14 -334z" />
<glyph unicode="E" horiz-adv-x="491" d="M56 657q109 9 223 9q148 0 167 -15q9 -9 9 -32q0 -30 -8 -54q-55 21 -174 21q-48 0 -102 -3q4 -39 4 -187h75q80 0 114 4q4 -9 4 -32q0 -28 -10 -38.5t-32 -11.5q-25 -1 -67 -1h-84q0 -199 7 -239q42 -2 69 -2q160 0 207 22q8 -23 8 -53q0 -23 -9 -32q-19 -15 -171 -15 q-136 0 -166 2q-31 1 -41.5 13.5t-10.5 43.5q0 19 1 82t1 97v194q0 140 -14 227z" />
<glyph unicode="F" horiz-adv-x="455" d="M56 657q109 9 223 9q148 0 167 -15q9 -9 9 -32q0 -30 -8 -54q-55 21 -174 21q-48 0 -102 -3q4 -31 4 -134v-64h75q80 0 114 4q4 -9 4 -32q0 -28 -10 -38.5t-32 -11.5q-25 -1 -67 -1h-84v-110q0 -133 19 -196q-28 -10 -62 -10q-37 0 -50.5 13t-13.5 44q0 16 1 79t1 98v208 q0 138 -14 225z" />
<glyph unicode="G" horiz-adv-x="621" d="M42 332q0 160 88.5 250.5t239.5 90.5q81 0 136 -31.5t55 -77.5q0 -53 -79 -66q-17 48 -54 72t-79 24q-85 0 -139 -69.5t-54 -173.5q0 -121 53 -201.5t147 -80.5q69 0 113 32q-2 128 -7 210q23 3 49 3q67 0 67 -37l-4 -68q-3 -68 -3 -124q0 -36 -59.5 -65.5t-146.5 -29.5 q-146 0 -234.5 94.5t-88.5 247.5z" />
<glyph unicode="H" horiz-adv-x="628" d="M56 661q30 5 53 5q67 0 67 -38q0 -6 -2 -42.5t-4 -89.5t-2 -99q54 -1 142 -1t138 1v34q0 139 -7 230q30 5 53 5q67 0 67 -38q0 -6 -2 -40.5t-4 -86t-2 -97.5v-201q0 -133 19 -196q-28 -10 -62 -10q-37 0 -50.5 13t-13.5 44q0 16 1 79t1 98v92q-51 -1 -141 -1 q-88 0 -139 1v-120q0 -133 19 -196q-28 -10 -62 -10q-37 0 -50.5 13t-13.5 44q0 16 1 79t1 98v200q0 139 -7 230z" />
<glyph unicode="I" horiz-adv-x="243" d="M56 661q30 5 53 5q67 0 67 -38q0 -6 -2 -40.5t-4 -86t-2 -97.5v-201q0 -133 19 -196q-28 -10 -62 -10q-37 0 -50.5 13t-13.5 44q0 16 1 79t1 98v200q0 139 -7 230z" />
<glyph unicode="J" horiz-adv-x="243" d="M-32 -41q31 7 50.5 16.5t31 20t17 31t6.5 38.5t1 53v313q0 139 -7 230q30 5 55 5q65 0 65 -38q0 -5 -2 -37t-4 -79.5t-2 -90.5v-310q0 -64 -18 -112t-46 -72t-54 -35t-49 -11q-44 0 -44 78z" />
<glyph unicode="K" horiz-adv-x="525" d="M56 661q30 5 53 5q67 0 67 -38q0 -5 -2 -35.5t-4 -83.5t-2 -112q69 53 145 132t105 136q29 -9 44 -20t15 -32q0 -15 -15.5 -38.5t-54 -61.5t-66 -63.5t-87.5 -79.5q13 -23 37 -65.5t36.5 -64.5t33 -55t34 -49.5t30.5 -35t32.5 -26t31.5 -7.5q15 0 27 3q9 -18 9 -32 q0 -23 -20.5 -35.5t-55.5 -12.5q-47 0 -90 40.5t-72 87.5t-97 174q-2 4 -3.5 6t-3 5.5t-3.5 6.5l-12 -9v-98q0 -133 19 -196q-28 -10 -62 -10q-37 0 -50.5 13t-13.5 44q0 16 1 79t1 98v200q0 139 -7 230z" />
<glyph unicode="L" horiz-adv-x="440" d="M56 663q23 3 55 3q65 0 65 -38q0 -6 -2 -40.5t-4 -86t-2 -97.5v-86q0 -198 7 -240q40 -2 64 -2q147 0 190 23q11 -22 11 -49q0 -33 -25.5 -42.5t-84.5 -9.5h-87q-89 0 -133 2q-28 1 -38.5 14t-10.5 43q0 16 1 74t1 93v207q0 141 -7 232z" />
<glyph unicode="M" horiz-adv-x="792" d="M56 659q40 8 71 8q57 0 87 -48q38 -61 74.5 -152.5t56 -154.5t54.5 -181q84 316 186 490q26 46 85 46q39 0 65 -8q-18 -60 -18 -223v-233q0 -135 19 -198q-14 -8 -54 -8q-41 0 -55 13t-14 44v450q-66 -164 -168 -502q-16 -4 -37 -4q-52 0 -64 26q-30 66 -89 236.5 t-89 245.5v-303q0 -135 19 -198q-27 -8 -52 -8q-35 0 -47.5 13t-12.5 44q0 16 1 79t1 98v252q0 112 -19 176z" />
<glyph unicode="N" horiz-adv-x="618" d="M56 659q25 8 61 8q46 0 72 -29q46 -51 138 -202.5t143 -257.5q-8 114 -8 242q0 149 -7 243q23 3 41 3q66 0 66 -38q0 -6 -2 -40.5t-4.5 -86t-2.5 -97.5v-171q0 -141 7 -232q-20 -4 -44 -4q-50 0 -67 27q-47 76 -143.5 245t-145.5 248l5 -261q3 -202 20 -251 q-22 -8 -48 -8q-37 0 -50.5 13t-13.5 44q0 16 1 79t1 98v200q0 167 -19 228z" />
<glyph unicode="O" horiz-adv-x="716" d="M42 331q0 157 85.5 249.5t229.5 92.5q146 0 232 -92.5t86 -249.5q0 -155 -86.5 -248t-231.5 -93q-144 0 -229.5 93t-85.5 248zM156 360q0 -75 18.5 -138t66 -108t117.5 -45q97 0 150 68t53 177q0 72 -18.5 132.5t-66 104t-117.5 43.5q-93 0 -148 -65.5t-55 -168.5z" />
<glyph unicode="P" horiz-adv-x="510" d="M56 661q77 12 156 12q281 0 281 -221q0 -107 -60.5 -163t-142.5 -56q-67 0 -116 32v-69q0 -130 19 -191q-24 -8 -61 -8q-39 0 -52 13t-13 44q0 16 1 79t1 98v200q0 138 -13 230zM170 592q4 -54 4 -186v-77q33 -17 84 -17q57 0 89 36.5t32 98.5q0 85 -36 117t-112 32 q-21 0 -61 -4z" />
<glyph unicode="Q" horiz-adv-x="712" d="M42 331q0 158 84 250t230 92t230.5 -92t84.5 -250q0 -146 -74.5 -237t-201.5 -102q11 -40 41.5 -64t68.5 -24q30 0 59.5 17t48.5 39q37 -30 37 -71q0 -36 -37 -54.5t-98 -18.5q-33 0 -63.5 9t-59.5 28t-50.5 54.5t-30.5 83.5q-125 14 -197 104t-72 236zM154 360 q0 -75 18.5 -138t66 -108t117.5 -45q97 0 150 68t53 177q0 72 -18.5 132.5t-66 104t-117.5 43.5q-93 0 -148 -65.5t-55 -168.5z" />
<glyph unicode="R" horiz-adv-x="539" d="M56 661q77 12 157 12q281 0 281 -203q0 -77 -41.5 -127.5t-109.5 -68.5q65 -139 107 -179q23 -28 53 -28q11 0 23 3q9 -21 9 -35q0 -23 -24.5 -34t-59.5 -11q-58 0 -103 57q-31 39 -65 107.5t-53 119.5q-23 9 -23 32q0 19 8 39q16 -4 37 -4q54 0 90.5 32.5t36.5 96.5 q0 71 -35 98.5t-109 27.5q-27 0 -65 -4q4 -56 4 -199v-195q0 -132 19 -193q-22 -8 -62 -8q-37 0 -50.5 13t-13.5 44q0 16 1 79t1 98v200q0 138 -13 230z" />
<glyph unicode="S" horiz-adv-x="529" d="M38 91q0 41 58 68q20 -38 69 -64t99 -26q58 0 96.5 26.5t38.5 80.5q0 32 -25.5 54t-63.5 33t-83 27.5t-83 36t-63.5 60.5t-25.5 99q0 89 67 138t166 49q42 0 84 -10.5t73 -34t31 -54.5q0 -52 -68 -66q-15 38 -56 63t-85 25q-51 0 -85.5 -25t-34.5 -74q0 -30 19 -50.5 t49.5 -32t67 -21.5t73 -23t67 -31t49.5 -52t19 -81q0 -59 -20 -102.5t-55.5 -67.5t-76.5 -35t-89 -11q-83 0 -147.5 30t-64.5 71z" />
<glyph unicode="T" horiz-adv-x="485" d="M0 613q0 27 10.5 36.5t33.5 10.5q25 1 117 1h118q168 0 203 3q3 -12 3 -35q0 -27 -10.5 -36.5t-33.5 -10.5q-28 -1 -139 -1q-5 -108 -5 -177v-201q0 -133 19 -196q-28 -10 -62 -10q-37 0 -50.5 13t-13.5 44q0 16 1 79t1 98v200q0 56 -2 150q-142 0 -187 -4q-3 12 -3 36z " />
<glyph unicode="U" horiz-adv-x="643" d="M61 658q26 8 59 8q38 0 55.5 -11.5t17.5 -39.5q0 -41 -7.5 -183.5t-7.5 -221.5q0 -68 35 -100.5t82 -32.5q43 0 90.5 22t76.5 53v31.5t0.5 87t0.5 160.5q0 140 -7 231q31 4 55 4q65 0 65 -38q0 -2 -2 -37t-4 -109.5t-2 -172.5q0 -155 3 -207.5t16 -96.5q-22 -8 -62 -8 q-36 0 -50 12.5t-14 46.5v19q-39 -38 -93.5 -61.5t-100.5 -23.5q-91 0 -144.5 44.5t-53.5 157.5q0 59 4.5 160t4.5 149q0 95 -17 157z" />
<glyph unicode="V" horiz-adv-x="578" d="M-17 628q53 39 89 39t55 -37q40 -82 90.5 -233t82.5 -277q66 96 113.5 243t47.5 254q0 35 -4 49q27 7 55 7q32 0 45 -11t13 -38q0 -110 -70 -294.5t-143 -277.5q-26 -33 -46.5 -44t-49.5 -11q-26 0 -39 3q-32 161 -108.5 368t-130.5 260z" />
<glyph unicode="W" horiz-adv-x="948" d="M-17 628q53 39 89 39q39 0 55 -37q37 -86 82 -235t74 -275q60 96 102.5 243t42.5 254q0 35 -4 49q27 7 55 7q32 0 45 -11t13 -38q0 -9 -2 -29q78 -199 142 -475q60 96 102.5 243t42.5 254q0 35 -4 49q27 7 55 7q32 0 45 -11t13 -38q0 -110 -66 -294.5t-135 -277.5 q-24 -33 -44 -44t-47 -11q-24 0 -36 3q-34 177 -112 391q-31 -99 -73 -192.5t-82 -146.5q-24 -33 -44 -44t-47 -11q-24 0 -36 3q-30 161 -102.5 368t-123.5 260z" />
<glyph unicode="X" horiz-adv-x="605" d="M21 44q0 68 229 299q-12 17 -52 74.5t-60.5 85.5t-51.5 65t-53 56q35 32 52.5 40.5t36.5 8.5q34 0 63 -36q20 -25 61.5 -92t70.5 -122q41 55 78.5 124.5t50.5 124.5q106 -6 106 -55q0 -39 -60 -118t-133 -149q56 -83 89 -131t78.5 -105t72.5 -76q-43 -48 -86 -48 q-42 0 -69 39q-85 114 -152 241q-136 -174 -166 -280q-105 4 -105 54z" />
<glyph unicode="Y" horiz-adv-x="507" d="M-9 614q16 21 41 37t48 16q35 0 59 -34q74 -109 138 -247q46 71 86 161t45 125q95 -4 95 -56q0 -35 -64.5 -133t-128.5 -176v-104q0 -133 19 -196q-28 -10 -62 -10q-37 0 -50.5 13t-13.5 44q0 16 1 79t1 98v72q-141 262 -214 311z" />
<glyph unicode="Z" horiz-adv-x="564" d="M22 56q0 32 25 63l367 469q-39 3 -96 3q-145 0 -257 -27q-10 28 -10 50q0 33 29 43q43 10 130 10q181 0 321 -19q16 -18 16 -40q0 -24 -17 -46l-395 -494q15 -1 57 -1q195 0 322 39q12 -36 12 -56q0 -19 -10.5 -29.5t-24 -14t-39.5 -6.5q-63 -6 -167 -6q-149 0 -245 12 q-18 24 -18 50z" />
<glyph unicode="[" horiz-adv-x="380" d="M127 -190v910h211q8 -16 8 -31q0 -24 -14.5 -33t-45.5 -9q-39 0 -61 1v-766q29 1 61 1q33 0 46.5 -10.5t13.5 -31.5q0 -11 -7 -31h-212z" />
<glyph unicode="\" horiz-adv-x="263" d="M30 714q0 28 41 28q16 0 31 -5q12 -116 31 -231q22 -141 41 -258.5t28 -174.5t15.5 -97.5t8.5 -52t2 -13.5q0 -28 -40 -28q-16 0 -33 3q-5 70 -31 231q-41 264 -78 495q-16 99 -16 103z" />
<glyph unicode="]" horiz-adv-x="354" d="M25 -159q0 21 13.5 31.5t46.5 10.5q32 0 61 -1v766q-22 -1 -61 -1q-31 0 -45.5 9t-14.5 33q0 15 8 31h211v-910h-212q-7 20 -7 31z" />
<glyph unicode="^" horiz-adv-x="488" d="M21 431q23 39 98.5 122.5t124.5 131.5q47 -46 123 -130.5t100 -123.5q-25 -23 -43 -23q-38 0 -180 150q-51 -54 -104.5 -102t-74.5 -48t-44 23z" />
<glyph unicode="_" d="M0 -122q0 16 9 29t27 13q3 0 63 -3.5t104 -3.5h142q127 0 187 7q3 -9 3 -30q0 -18 -10 -30t-26 -12q-15 0 -69 4t-82 4h-143q-114 0 -202 -8q-3 15 -3 30z" />
<glyph unicode="`" horiz-adv-x="228" d="M-43 661q0 35 52 61q40 -43 84 -76t63.5 -48t19.5 -31q0 -23 -32 -44q-31 23 -82.5 50.5t-78 47t-26.5 40.5z" />
<glyph unicode="a" horiz-adv-x="478" d="M38 132q0 56 24 83t64 40q60 19 181 20q0 34 -1.5 52t-8 41t-22 33.5t-41.5 10.5q-33 0 -62.5 -21.5t-42.5 -59.5q-89 1 -89 53q0 43 60.5 72t137.5 29q92 0 134.5 -38t42.5 -136q0 -3 -1 -47t-1 -86q0 -114 19 -171q-29 -11 -57 -11q-56 0 -67 46q-60 -52 -135 -52 q-58 0 -96.5 36t-38.5 106zM147 139q0 -40 20 -59t51 -19q51 0 87 38q-2 13 -2 44q0 46 2 71q-30 -4 -43.5 -6t-36.5 -6t-33.5 -9t-22.5 -12t-17 -17.5t-5 -24.5z" />
<glyph unicode="b" horiz-adv-x="522" d="M51 739q19 4 53 4q70 0 70 -54q0 -12 -3 -87t-3 -169q64 52 145 52q78 0 127 -58.5t49 -175.5q0 -110 -58 -185.5t-167 -75.5q-119 0 -204 70q7 59 7 213q0 89 -5 258.5t-11 207.5zM167 112q48 -48 106 -48q54 0 80.5 54t26.5 130q0 83 -29.5 123.5t-73.5 40.5 q-58 0 -108 -50q1 -60 1 -133q0 -68 -3 -117z" />
<glyph unicode="c" horiz-adv-x="464" d="M38 233q0 124 72 188t164 64q56 0 106.5 -26.5t50.5 -73.5q0 -21 -21 -34t-57 -17q-8 36 -36 56t-57 20q-48 0 -80 -46t-32 -120q0 -95 37.5 -138.5t97.5 -43.5q27 0 56 14t43 40q49 -26 49 -56q0 -34 -47 -52t-105 -18q-43 0 -84.5 14.5t-77.5 42.5t-57.5 76t-21.5 110z " />
<glyph unicode="d" horiz-adv-x="529" d="M38 238q0 111 61.5 179t149.5 68q58 0 108 -28q0 179 -12 282q28 4 54 4q33 0 51 -14t18 -40q0 -25 -4.5 -182.5t-4.5 -282.5q0 -166 19 -217q-25 -10 -55 -10q-56 0 -62 42q-58 -49 -123 -49q-81 0 -140.5 70t-59.5 178zM147 253q0 -84 34.5 -136.5t84.5 -52.5 q47 0 91 44q-2 184 -2 283q-42 21 -84 21q-57 0 -90.5 -44t-33.5 -115z" />
<glyph unicode="e" horiz-adv-x="485" d="M38 231q0 123 70.5 188.5t166.5 65.5q77 0 124.5 -42t47.5 -100q0 -47 -17.5 -77.5t-51.5 -44.5t-69 -19t-86 -5q-27 0 -73 2q10 -71 45.5 -104t87.5 -33q27 0 56 14t43 40q49 -26 49 -56q0 -34 -47 -52t-105 -18q-94 0 -167.5 62t-73.5 179zM147 262q64 0 94 3 q97 12 97 76q0 29 -20.5 50t-51.5 21q-47 0 -80 -36t-39 -114z" />
<glyph unicode="f" horiz-adv-x="338" d="M4 431q0 21 11 29t31 12q18 2 39 2q2 125 43 183.5t145 58.5q40 0 67 -13.5t27 -37.5q0 -27 -37 -57q-36 33 -75 33q-28 0 -46 -22q-21 -29 -21 -111v-34q84 0 128 5q5 -11 5 -32q0 -25 -12 -34.5t-38 -10.5q-29 -1 -83 -1v-198q0 -132 19 -196q-22 -10 -51 -10 q-42 0 -57.5 12.5t-15.5 41.5q0 54 1 166.5t1 182.5q-14 0 -77 -6q-4 16 -4 37z" />
<glyph unicode="g" horiz-adv-x="542" d="M30 -131q0 57 72 106q-36 21 -36 49q0 19 19 52t51 61q-47 20 -72 63t-25 101q0 79 58 132t147 53q78 0 130 -36q42 53 93 53q58 0 58 -52q0 -15 -6 -34q-22 5 -37 5q-31 0 -64 -14q30 -49 30 -107q0 -84 -57 -134t-137 -50q-26 0 -53 5q-34 -36 -34 -61q0 -20 60 -20 h114q153 0 153 -114q0 -79 -77 -128t-186 -49q-100 0 -150.5 34.5t-50.5 84.5zM129 -113q0 -52 109 -52q81 0 123 23t42 56q0 25 -17 34.5t-51 9.5h-98q-52 0 -76 4q-32 -44 -32 -75zM147 309q0 -51 25.5 -84.5t70.5 -33.5q52 0 74 25t22 77q0 51 -26 85.5t-70 34.5 q-96 0 -96 -104z" />
<glyph unicode="h" horiz-adv-x="529" d="M51 738q28 5 52 5q71 0 71 -55q0 -4 -2.5 -35t-5.5 -90.5t-3 -130.5q69 53 155 53q61 0 99 -36t38 -116q0 -6 -0.5 -30t-1.5 -63.5t-1 -82.5q0 -82 26 -148q-31 -13 -56 -13q-41 0 -58 17t-17 64q0 38 2 129.5t2 97.5q0 55 -22 82t-57 27q-55 0 -110 -53 q1 -37 1.5 -161.5t6.5 -196.5q-27 -4 -50 -4q-65 0 -65 40q0 6 1.5 48t2.5 128.5t1 199.5q0 236 -9 324z" />
<glyph unicode="i" horiz-adv-x="249" d="M49 591q0 30 22 50.5t52 20.5q29 0 50 -20.5t21 -50.5t-22 -50.5t-51 -20.5q-30 0 -51 20t-21 51zM64 474q24 4 52 4q72 0 72 -53q0 -6 -3 -40.5t-5.5 -85.5t-2.5 -97q0 -134 26 -195q-25 -11 -57 -11q-44 0 -59.5 18t-15.5 61q0 16 1 77.5t1 94.5q0 145 -9 227z" />
<glyph unicode="j" horiz-adv-x="255" d="M-125 -195q0 30 42 62q39 -45 93 -45q76 0 76 114q0 36 -1.5 134t-1.5 162q0 170 -9 242q26 5 52 5q71 0 71 -53q0 -25 -5.5 -97.5t-5.5 -137.5q0 -11 2 -108.5t2 -152.5q0 -90 -49.5 -136t-141.5 -46q-50 0 -87 16t-37 41zM59 591q0 30 22 50.5t52 20.5q29 0 50 -20.5 t21 -50.5t-22 -50.5t-51 -20.5q-30 0 -51 20t-21 51z" />
<glyph unicode="k" horiz-adv-x="493" d="M51 738q28 5 52 5q71 0 71 -55q0 -9 -2.5 -42.5t-5.5 -89t-3 -117.5q66 46 134 46q70 0 106.5 -37.5t36.5 -92.5q0 -57 -37.5 -103t-103.5 -57q37 -64 72 -99q29 -28 49 -28t39 6q11 -25 11 -38q0 -23 -24.5 -34.5t-60.5 -11.5q-41 0 -78 42q-53 61 -103 174 q-17 7 -17 27q0 13 7 32q21 -6 45 -6q44 0 69.5 26t25.5 60q0 28 -17.5 47.5t-49.5 19.5q-46 0 -105 -45q1 -38 1.5 -165t6.5 -200q-27 -4 -50 -4q-65 0 -65 40q0 7 1.5 49t2.5 128t1 199q0 236 -9 324z" />
<glyph unicode="l" horiz-adv-x="241" d="M51 738q28 5 52 5q71 0 71 -55q0 -6 -3 -46.5t-5.5 -116.5t-2.5 -169q0 -192 4 -247t23 -100q-29 -13 -59 -13q-43 0 -58 18.5t-15 62.5q2 188 2 276q0 303 -9 385z" />
<glyph unicode="m" horiz-adv-x="828" d="M51 467l4 3q27 8 48 8q29 0 45 -9t20 -40q71 56 160 56q87 0 120 -64q70 64 168 64q61 0 99.5 -36t38.5 -116q0 -3 -1.5 -73.5t-1.5 -102.5q0 -82 26 -148q-31 -13 -57 -13q-41 0 -58 17t-17 64q0 35 2 119t2 108q0 55 -21.5 82t-56.5 27q-54 0 -111 -52q2 -134 2 -204 q0 -90 6 -155q-27 -4 -49 -4q-66 0 -66 40q0 17 4 99.5t4 166.5q0 55 -22 82t-57 27q-55 0 -110 -52q2 -134 2 -195q0 -96 6 -164q-27 -4 -50 -4q-65 0 -65 40q0 23 2.5 89.5t2.5 120.5q0 167 -19 219z" />
<glyph unicode="n" horiz-adv-x="532" d="M51 467q24 11 52 11q29 0 45 -9t20 -40q71 56 160 56q61 0 99 -36t38 -116q0 -11 -1.5 -78t-1.5 -98q0 -82 26 -148q-31 -13 -56 -13q-41 0 -58 17t-17 64q0 52 2 125.5t2 101.5q0 55 -22 82t-57 27q-53 0 -110 -52q2 -134 2 -195q0 -96 6 -164q-27 -4 -50 -4 q-65 0 -65 40q0 29 2.5 94t2.5 117q0 166 -19 218z" />
<glyph unicode="o" horiz-adv-x="540" d="M38 238q0 113 63.5 180t167.5 67q105 0 169 -67t64 -180t-64 -180.5t-169 -67.5q-104 0 -167.5 67.5t-63.5 180.5zM147 251q0 -81 32.5 -134t89.5 -53q59 0 91.5 44t32.5 117q0 80 -33.5 133.5t-90.5 53.5q-58 0 -90 -44t-32 -117z" />
<glyph unicode="p" horiz-adv-x="530" d="M51 467q25 11 56 11q58 0 62 -52q73 59 149 59q77 0 125.5 -54t48.5 -166q0 -115 -56 -195t-161 -80q-53 0 -103 28q0 -202 20 -260q-30 -10 -57 -10q-40 0 -54 13.5t-14 45.5q0 75 1.5 233t1.5 210q0 163 -19 217zM172 368q2 -246 2 -277q39 -27 98 -27q38 0 64 29 t36.5 69.5t10.5 88.5q0 83 -28.5 122t-73.5 39q-56 0 -109 -44z" />
<glyph unicode="q" horiz-adv-x="537" d="M38 237q0 115 66 181.5t165 66.5q120 0 210 -69q-13 -134 -13 -393q0 -217 20 -266q-27 -9 -56 -9q-41 0 -55 14t-14 39q0 147 2 230q-52 -41 -121 -41q-84 0 -144 70.5t-60 176.5zM147 256q0 -88 34 -140t85 -52q56 0 97 45q1 97 8 258q-44 45 -107 45q-49 0 -83 -44 t-34 -112z" />
<glyph unicode="r" horiz-adv-x="358" d="M51 473q29 5 52 5q36 0 51.5 -13t15.5 -41v-12q58 73 113 73q58 0 58 -42q0 -28 -36 -73q-21 18 -47 18q-51 0 -92 -55q-3 -64 -3 -130q0 -131 27 -194q-27 -13 -59 -13q-43 0 -58 19t-15 61q0 12 1 68t1 88q0 167 -9 241z" />
<glyph unicode="s" horiz-adv-x="437" d="M34 70q0 43 62 69q30 -70 130 -70q76 0 76 51q0 30 -26.5 45.5t-64.5 23t-76 19.5t-64.5 44t-26.5 86q0 72 57.5 109.5t135.5 37.5q30 0 62.5 -6.5t63 -27t30.5 -51.5q0 -20 -20 -35.5t-54 -23.5q-20 65 -111 65q-26 0 -45 -14.5t-19 -39.5q0 -30 26.5 -47t64.5 -25 t76 -19t64.5 -41t26.5 -80q0 -73 -57.5 -111.5t-135.5 -38.5q-69 0 -122 23t-53 57z" />
<glyph unicode="t" horiz-adv-x="372" d="M0 427q0 26 11.5 35t37.5 12q9 1 45 1q-2 59 -6 101q21 4 49 4q69 0 69 -37q0 -24 -3 -69q108 0 150 6q6 -11 6 -31q0 -27 -12 -36.5t-38 -10.5q-30 -1 -108 -1q-2 -94 -2 -203q0 -32 2 -53t9 -42t21 -31.5t36 -10.5q31 0 64 35q26 -29 26 -49q0 -29 -29.5 -43t-66.5 -14 q-167 0 -167 182q0 47 0.5 130.5t0.5 99.5q-64 -4 -91 -8q-4 11 -4 33z" />
<glyph unicode="u" horiz-adv-x="529" d="M51 470q27 9 55 9q37 0 53 -12t16 -40q0 -52 -3 -142t-3 -116q0 -51 21.5 -78t55.5 -27q58 0 111 51q-1 41 -1 127q0 150 -7 233q28 4 50 4q64 0 64 -39q0 -18 -2 -100t-2 -136q0 -125 19 -196q-21 -11 -50 -11q-19 0 -30 2.5t-21 14t-13 33.5q-66 -57 -152 -57 q-147 0 -147 142q0 7 1.5 76.5t1.5 100.5q0 103 -17 161z" />
<glyph unicode="v" horiz-adv-x="462" d="M-3 447q44 34 79 34q34 0 51 -35t54 -141.5t61 -190.5q31 50 60.5 154t29.5 178q0 18 -3 33q22 6 48 6q56 0 56 -40q0 -68 -50.5 -206t-101.5 -202q-32 -40 -74 -40q-30 0 -47 4q-23 117 -75 263.5t-88 182.5z" />
<glyph unicode="w" horiz-adv-x="734" d="M-3 447q44 34 79 34q34 0 51 -35q18 -35 54.5 -141t60.5 -190q30 53 60 154.5t30 176.5q0 18 -3 33q22 6 48 6q56 0 56 -40q0 -27 -9 -64q61 -162 90 -266q33 56 62 154.5t29 176.5q0 18 -3 33q20 6 47 6q56 0 56 -40q0 -68 -50 -206t-101 -202q-33 -40 -75 -40 q-30 0 -46 4q-21 106 -57 218q-48 -123 -95 -182q-32 -40 -74 -40q-30 0 -47 4q-23 117 -75 263.5t-88 182.5z" />
<glyph unicode="x" horiz-adv-x="456" d="M21 30q0 29 52 96t104 117q-112 165 -156 194q46 48 76 48q36 0 57 -28q24 -31 83 -131q63 110 70 160q95 -2 95 -40q0 -24 -41.5 -83.5t-89.5 -108.5q51 -79 99.5 -142.5t72.5 -80.5q-40 -41 -81 -41q-29 0 -53 30q-34 42 -100 152q-85 -126 -95 -182q-93 0 -93 40z" />
<glyph unicode="y" horiz-adv-x="466" d="M0 446q49 34 79 34q38 0 54 -34q22 -46 61 -142.5t65 -181.5q34 84 56 177t22 150q0 18 -2 30q23 6 51 6q54 0 54 -42q0 -46 -36 -159t-85 -219q-90 -195 -165 -288q-22 -27 -51 -27q-20 0 -38.5 15t-30.5 38q28 19 73 71t86 120q-37 123 -95.5 268t-97.5 184z" />
<glyph unicode="z" horiz-adv-x="489" d="M21 59q0 27 24 52q32 33 131 134t151 156q-28 2 -86 2q-108 0 -181 -26q-10 28 -10 56q2 30 32 40q25 8 101 8q54 0 126.5 -8t111.5 -18q17 -20 17 -51q0 -28 -19 -47q-102 -107 -278 -287q164 0 264 33q10 -26 10 -51q0 -18 -9.5 -29.5t-21 -15t-30.5 -6.5 q-42 -7 -132 -7q-110 0 -185 13q-16 24 -16 52z" />
<glyph unicode="{" horiz-adv-x="433" d="M59 254v65q55 0 83.5 24t28.5 50v205q0 61 34.5 89t129.5 28q23 0 47 -2q8 -16 8 -30q0 -24 -15 -33t-48 -9q-40 0 -49.5 -11t-9.5 -43v-196q0 -28 -19.5 -59t-44.5 -46q26 -16 45.5 -45.5t19.5 -57.5v-197q0 -33 9 -44t49 -11q33 0 48 -9t15 -33q0 -13 -8 -29 q-24 -2 -47 -2q-95 0 -130 28t-35 89v206q0 26 -28 49.5t-83 23.5z" />
<glyph unicode="|" d="M221 734q16 3 46 3q46 0 46 -38q0 -5 -3.5 -72t-3.5 -99v-582q0 -120 8 -192q-16 -3 -46 -3q-46 0 -46 38q0 5 3.5 87t3.5 115v573q0 117 -8 170z" />
<glyph unicode="}" horiz-adv-x="414" d="M25 -111q0 24 15 33t48 9q40 0 49 11t9 44v197q0 28 19.5 57.5t45.5 45.5q-25 15 -44.5 46t-19.5 59v196q0 32 -9.5 43t-49.5 11q-33 0 -48 9t-15 33q0 14 8 30q24 2 47 2q95 0 129.5 -28t34.5 -89v-205q0 -26 28.5 -50t83.5 -24v-65q-55 0 -83 -23.5t-28 -49.5v-206 q0 -61 -35 -89t-130 -28q-23 0 -47 2q-8 16 -8 29z" />
<glyph unicode="~" horiz-adv-x="557" d="M34 269q0 68 123 68q57 0 130 -19.5t111 -19.5q46 0 93 46q32 -40 32 -67q0 -36 -36 -52.5t-89 -16.5q-36 0 -110.5 19.5t-114.5 19.5q-60 0 -106 -46q-33 43 -33 68z" />
<glyph unicode="&#xa1;" horiz-adv-x="308" d="M76 414q0 30 22 50.5t52 20.5q29 0 50 -20.5t21 -50.5t-22 -50.5t-51 -20.5q-30 0 -51 20t-21 51zM92 -164q1 38 9 118.5t8 135.5q0 112 -15 152q29 13 52 13q56 0 57 -50q1 -31 1.5 -107t1.5 -122.5t5 -101.5t12 -85q-44 -8 -69 -8q-62 0 -62 55z" />
<glyph unicode="&#xa2;" d="M65 328q0 109 59 172t150 80q0 18 -5 101q15 3 23 3q37 0 37 -27v-72q57 -1 113.5 -25t56.5 -63q0 -42 -68 -55q-45 70 -102 72v-375q30 1 52.5 16.5t49.5 53.5q32 -7 50 -22t18 -32q0 -38 -53.5 -62.5t-116.5 -24.5q1 -53 5 -82l-20 -2q-40 0 -40 27v61 q-90 15 -149.5 78.5t-59.5 177.5zM173 326q0 -137 101 -179v355q-45 -12 -73 -59t-28 -117z" />
<glyph unicode="&#xa3;" d="M63 59q69 41 107.5 100t38.5 110q0 30 -8 59q-69 0 -106 -4q-6 16 -6 24t2.5 14t9 9.5t12 6t15.5 3.5t16 1.5t18 1t17 0.5q-2 5 -9 19.5t-10 21.5t-8 20t-7.5 22t-4.5 20t-2 21q0 61 47.5 113.5t119.5 52.5q35 0 64 -16.5t29 -47.5q0 -36 -59 -56q-22 40 -56 40 q-20 0 -33.5 -14.5t-13.5 -42.5q0 -29 29 -86t32 -64q67 4 129 13q6 -13 6 -32q0 -27 -16 -35t-51 -8q-25 0 -48 1q3 -17 3 -35q0 -103 -142 -224q21 -1 61 -1q128 0 223 36q23 -25 23 -49q0 -29 -37 -42q-36 -14 -149 -14q-147 0 -223 14q-13 16 -13 48z" />
<glyph unicode="&#xa5;" d="M11 621q31 48 73 48q30 0 57 -38q71 -101 148 -241q45 65 88.5 154.5t45.5 124.5q15 4 31 4q62 0 62 -46q0 -22 -51 -111.5t-105 -162.5q72 0 133 7l5 -25q0 -36 -43 -36h-132v-54q104 0 170 6l5 -23q0 -36 -43 -36h-132q0 -122 18 -181q-30 -14 -54 -14q-36 0 -50.5 14 t-14.5 42q1 66 1 139q-103 0 -163 -6q-6 11 -6 25q0 34 43 34h127v54q-103 0 -164 -6q-6 13 -6 26q0 34 43 34h104q-13 21 -39.5 67.5t-39 66t-33 49.5t-39 49.5t-39.5 35.5z" />
<glyph unicode="&#xa6;" d="M221 192q16 3 46 3q46 0 46 -38q0 -5 -3.5 -71.5t-3.5 -99.5v-40q0 -120 8 -192q-16 -3 -46 -3q-46 0 -46 38q0 4 3.5 80.5t3.5 112.5v39q0 118 -8 171zM221 734q16 3 46 3q46 0 46 -38q0 -5 -3.5 -72t-3.5 -99v-40q0 -120 8 -192q-16 -3 -46 -3q-46 0 -46 38 q0 5 3.5 103t3.5 131q0 116 -8 169z" />
<glyph unicode="&#xa7;" horiz-adv-x="456" d="M38 8q0 20 18.5 31.5t54.5 22.5q23 -69 118 -69q71 0 71 69q0 39 -26 65t-63 41.5t-74 32.5t-63 50t-26 82q0 68 53 99q-31 37 -31 96q0 65 49.5 105t130.5 40q51 0 100.5 -22.5t49.5 -62.5q0 -35 -73 -53q-12 30 -41 48.5t-60 18.5q-27 0 -46 -15t-19 -45q0 -39 26 -66 t63.5 -44t74.5 -35.5t63 -52t26 -81.5q0 -57 -52 -99q32 -39 32 -92q0 -62 -49 -106t-137 -44q-67 0 -118.5 25t-51.5 61zM140 351q0 -35 31 -60t81 -46.5t66 -33.5q4 12 4 34q0 31 -20.5 53t-46.5 33t-60 25.5t-51 28.5q-4 -12 -4 -34z" />
<glyph unicode="&#xa8;" horiz-adv-x="273" d="M-26 591q0 30 22 50.5t52 20.5q29 0 50 -20.5t21 -50.5t-22 -50.5t-51 -20.5q-30 0 -51 20t-21 51zM164 591q0 30 22 50.5t52 20.5q29 0 50 -20.5t21 -50.5t-22 -50.5t-51 -20.5q-30 0 -51 20t-21 51z" />
<glyph unicode="&#xa9;" horiz-adv-x="858" d="M130 320q0 152 100 253t247 101q145 0 245 -101t100 -253q0 -150 -100.5 -252t-244.5 -102q-147 0 -247 101.5t-100 252.5zM202 320q0 -133 79.5 -215t195.5 -82q114 0 193.5 82t79.5 215q0 132 -79.5 214.5t-193.5 82.5q-116 0 -195.5 -82t-79.5 -215zM267 319 q0 114 66 173t150 59q30 0 61.5 -8.5t57.5 -29t26 -49.5q0 -39 -73 -49q-8 31 -31 47t-48 16q-40 0 -67 -41t-27 -107q0 -84 34.5 -122.5t81.5 -38.5q54 0 88 46q41 -25 41 -54q0 -26 -41 -45.5t-97 -19.5q-41 0 -78 11.5t-70.5 36t-53.5 70t-20 105.5z" />
<glyph unicode="&#xaa;" horiz-adv-x="308" d="M21 270q0 35 52 35q8 0 41 -2t54 -2h18q50 0 93 10q7 -16 7 -31q0 -16 -14 -25.5t-38 -9.5q-13 0 -46.5 2.5t-51.5 2.5h-9q-46 0 -101 -11q-5 18 -5 31zM25 451q0 51 64 68q32 8 95 8q0 39 -9 53t-37 14q-13 0 -27.5 -10.5t-17.5 -26.5q-59 4 -59 32q0 24 34 39t78 15 q59 0 86.5 -21.5t27.5 -74.5q0 -23 -0.5 -45.5t-0.5 -26.5q0 -65 11 -97q-24 -8 -41 -8t-25 4t-12 18q-30 -26 -74 -26q-39 0 -66 19.5t-27 65.5zM105 453q0 -19 9 -29t23 -10q25 0 44 18v61q-39 -8 -57.5 -16t-18.5 -24z" />
<glyph unicode="&#xab;" horiz-adv-x="521" d="M34 238q102 138 178 201q38 -24 38 -41q0 -14 -34.5 -66t-69.5 -94q35 -41 69.5 -92.5t34.5 -66.5q0 -17 -38 -41q-72 60 -178 200zM254 238q102 138 178 201q38 -24 38 -41q0 -14 -34.5 -66t-69.5 -94q35 -41 69.5 -92.5t34.5 -66.5q0 -17 -38 -41q-72 60 -178 200z" />
<glyph unicode="&#xac;" d="M17 288q0 44 58 44h359l2 -224q0 -32 -12 -45t-47 -13q-24 0 -50 14q16 54 16 175v27h-205q-50 0 -109 -21q-12 29 -12 43z" />
<glyph unicode="&#xad;" horiz-adv-x="260" d="M25 257q0 19 12.5 32.5t39.5 13.5q7 0 35 -2t48 -2q48 0 88 10q7 -21 7 -40q0 -21 -14 -33.5t-38 -12.5q-11 0 -36 2.5t-42 2.5q-44 0 -95 -11q-5 24 -5 40z" />
<glyph unicode="&#xae;" horiz-adv-x="585" d="M85 440q0 100 66 166.5t163 66.5q95 0 161.5 -67t66.5 -166t-66.5 -166t-161.5 -67q-97 0 -163 67t-66 166zM144 440q0 -82 49 -132.5t121 -50.5q71 0 120 50.5t49 132.5t-49 132.5t-120 50.5q-72 0 -121 -50.5t-49 -132.5zM212 560q75 6 97 6q112 0 112 -78 q0 -51 -60 -70q7 -14 46 -58q4 -4 18 -4q4 -8 4 -16q0 -11 -10 -17.5t-24 -6.5q-25 0 -40 18q-43 45 -65 85v-23q0 -42 9 -68q-19 -10 -37 -10q-47 0 -47 30q0 9 1 30t1 29v67q0 52 -5 86zM290 452q4 -1 20 -1q39 0 39 37q0 18 -13.5 29.5t-32.5 11.5h-13v-77z" />
<glyph unicode="&#xaf;" horiz-adv-x="300" d="M0 585q0 44 46 44q5 0 45 -3t55 -3q82 0 151 8q3 -20 3 -36q0 -44 -46 -44q-15 0 -52.5 3t-60.5 3h-20q-61 0 -117 -8q-4 19 -4 36z" />
<glyph unicode="&#xb0;" horiz-adv-x="420" d="M48 547q0 67 43.5 111.5t112.5 44.5q65 0 107 -43.5t42 -107.5q0 -69 -43 -113t-111 -44q-66 0 -108.5 43t-42.5 109zM120 547q0 -42 20.5 -69t58.5 -27t59.5 28.5t21.5 71.5q0 42 -20 69t-57 27q-40 0 -61.5 -28.5t-21.5 -71.5z" />
<glyph unicode="&#xb1;" d="M47 43q0 19 12.5 34t39.5 15q6 0 63 -3.5t101 -3.5q127 0 200 9q6 -18 6 -39t-14.5 -35t-37.5 -14q-19 0 -75 4t-77 4q-105 0 -213 -10q-5 24 -5 39zM47 287q0 19 12.5 34t39.5 15q21 0 57 -3.5t67 -3.5q0 88 -8 150q20 7 47 7q24 0 40.5 -12t16.5 -31t-3.5 -57t-3.5 -58 q95 0 171 10q5 -17 5 -39q0 -20 -14 -34.5t-37 -14.5q-20 0 -64.5 3.5t-61.5 3.5q0 -68 9 -131q-29 -6 -47 -6q-23 0 -40 11t-17 32q0 10 3 35t3 60q-81 -1 -171 -9q-4 20 -4 38z" />
<glyph unicode="&#xb2;" horiz-adv-x="455" d="M51 271q0 18 1 22q111 62 168.5 129t57.5 121q0 30 -22 48t-59 18q-22 0 -46.5 -18t-38.5 -46q-44 3 -44 32q0 31 48.5 63.5t107.5 32.5q65 0 105 -34t40 -88q0 -61 -54 -132.5t-161 -130.5h51q126 0 174 24q21 -25 21 -47q0 -25 -23 -33q-35 -12 -148 -12q-81 0 -135 2 q-43 0 -43 49z" />
<glyph unicode="&#xb3;" horiz-adv-x="424" d="M51 270q0 24 31 40q38 -38 96 -38q42 0 69 19.5t27 52.5q0 86 -118 86q-12 0 -18 5t-6 22q0 11 1 17q67 3 100 19.5t33 59.5q0 56 -73 56q-55 0 -94 -48q-33 15 -33 40q0 28 48.5 50t95.5 22q74 0 110.5 -29t36.5 -78q0 -80 -86 -108q48 -15 71 -45.5t23 -68.5 q0 -54 -47 -95t-135 -41q-52 0 -92 17t-40 45z" />
<glyph unicode="&#xb4;" horiz-adv-x="226" d="M51 572q0 13 10 22.5t27 19.5t52 40.5t74 73.5q54 -28 54 -59q0 -24 -27 -43q-18 -14 -75.5 -46t-84.5 -57q-30 27 -30 49z" />
<glyph unicode="&#xb5;" horiz-adv-x="525" d="M47 460q27 9 55 9q37 0 53 -12t16 -40q0 -52 -3 -137t-3 -111q0 -51 21.5 -78t55.5 -27q58 0 111 51q-1 41 -1 127q0 140 -7 223q28 4 50 4q64 0 64 -39q0 -18 -2 -95t-2 -131q0 -125 19 -196q-21 -11 -50 -11q-19 0 -30 2.5t-21 14t-13 33.5q-26 -24 -65 -40.5 t-76 -16.5q-30 0 -65 16q-4 -23 -4 -53q0 -54 11 -111.5t23 -83.5q-30 -10 -57 -10q-40 0 -54 13.5t-14 45.5q0 121 2 327q0 8 1.5 76.5t1.5 98.5q0 93 -17 151z" />
<glyph unicode="&#xb6;" horiz-adv-x="517" d="M38 388q0 86 55 136.5t138 50.5q27 0 86 -2t77 -2q69 0 99 1q7 -18 7 -31q0 -41 -79 -41q-12 -142 -12 -333q0 -13 2 -101t2 -134q0 -28 -13 -43t-51 -15q-34 0 -57 9q19 52 19 229q0 91 10 389q-27 0 -53 3q-9 -97 -9 -269q0 -25 -50 -25q-70 0 -120.5 49.5t-50.5 128.5 z" />
<glyph unicode="&#xb7;" horiz-adv-x="213" d="M34 261q0 32 21.5 54.5t51.5 22.5t51 -22.5t21 -54.5q0 -33 -21 -54.5t-51 -21.5q-31 0 -52 21.5t-21 54.5z" />
<glyph unicode="&#xb8;" horiz-adv-x="184" d="M25 -212q0 19 25 42q16 -14 39 -14q37 0 37 31q0 21 -34.5 45t-34.5 46q0 33 33 94l56 -8q-19 -57 -19 -63t23 -19q59 -31 59 -81q0 -41 -38 -73t-95 -32q-51 0 -51 32z" />
<glyph unicode="&#xb9;" horiz-adv-x="382" d="M59 615q0 37 38 44q75 14 106 14q41 0 41 -33q0 -5 -1.5 -35t-3 -75t-1.5 -85v-46q0 -78 6 -118q36 0 74 4q4 -14 4 -25q0 -42 -35 -42q-7 0 -50.5 1t-85.5 1q-55 0 -86 -1q-5 17 -5 26q0 39 53 39h41q0 10 1 72t1 105q0 81 -3 144q-68 -12 -88 -19q-6 15 -6 29z" />
<glyph unicode="&#xba;" horiz-adv-x="342" d="M30 504q0 63 38.5 101t101.5 38q65 0 103.5 -37.5t38.5 -101.5q0 -63 -38.5 -100.5t-103.5 -37.5q-63 0 -101.5 37.5t-38.5 100.5zM38 270q0 35 52 35q8 0 41 -2t54 -2h18q50 0 93 10q7 -16 7 -31q0 -16 -14 -25.5t-38 -9.5q-13 0 -46.5 2.5t-51.5 2.5h-9q-46 0 -101 -11 q-5 18 -5 31zM109 512q0 -42 16 -69t45 -27q31 0 47.5 22t16.5 58q0 42 -17 69.5t-47 27.5q-29 0 -45 -22t-16 -59z" />
<glyph unicode="&#xbb;" horiz-adv-x="521" d="M34 78q0 14 34.5 66t69.5 94q-35 41 -69.5 92.5t-34.5 66.5q0 17 38 41q72 -60 178 -200q-102 -138 -178 -201q-38 24 -38 41zM254 78q0 14 34.5 66t69.5 94q-35 41 -69.5 92.5t-34.5 66.5q0 17 38 41q72 -60 178 -200q-102 -138 -178 -201q-38 24 -38 41z" />
<glyph unicode="&#xbc;" horiz-adv-x="945" d="M59 615q0 37 38 44q75 14 106 14q41 0 41 -33q0 -5 -1.5 -35t-3 -75t-1.5 -85v-46q0 -78 6 -118q36 0 74 4q4 -14 4 -25q0 -42 -35 -42q-7 0 -50.5 1t-85.5 1q-55 0 -86 -1q-5 17 -5 26q0 39 53 39h41q0 10 1 72t1 105q0 81 -3 144q-68 -12 -88 -19q-6 15 -6 29zM230 -75 q0 8 11.5 32t98.5 197q104 207 188 375q66 133 99 211q63 -2 63 -33q0 -8 -12.5 -34.5t-89.5 -179.5q-106 -211 -195 -389q-69 -139 -99 -211q-64 0 -64 32zM529 169q0 18 1 25q35 60 96.5 134.5t104.5 112.5q13 11 59 11q11 0 27 -2q0 -3 -2 -37t-4 -95t-2 -127q49 3 68 13 q8 -16 8 -35q0 -31 -18 -37q-16 -8 -58 -9q0 -74 16 -125q-21 -8 -41 -8q-34 0 -45.5 12t-11.5 40q0 16 1 34.5t1 45.5q-132 0 -181 7q-19 1 -19 40zM604 188q22 -1 80 -1h45q0 42 1 95t1 67q-67 -67 -127 -161z" />
<glyph unicode="&#xbd;" horiz-adv-x="987" d="M59 615q0 37 38 44q75 14 106 14q41 0 41 -33q0 -5 -1.5 -35t-3 -75t-1.5 -85v-46q0 -78 6 -118q36 0 74 4q4 -14 4 -25q0 -42 -35 -42q-7 0 -50.5 1t-85.5 1q-55 0 -86 -1q-5 17 -5 26q0 39 53 39h41q0 10 1 72t1 105q0 81 -3 144q-68 -12 -88 -19q-6 15 -6 29zM230 -75 q0 8 11.5 32t98.5 197q104 207 188 375q66 133 99 211q63 -2 63 -33q0 -8 -12.5 -34.5t-89.5 -179.5q-106 -211 -195 -389q-69 -139 -99 -211q-64 0 -64 32zM583 50q0 18 1 22q111 62 168.5 129t57.5 121q0 30 -22 48t-59 18q-22 0 -46.5 -18t-38.5 -46q-44 3 -44 32 q0 31 48.5 63.5t107.5 32.5q65 0 105 -34t40 -88q0 -61 -54 -132.5t-161 -130.5h51q126 0 174 24q21 -25 21 -47q0 -25 -23 -33q-35 -12 -148 -12q-81 0 -135 2q-43 0 -43 49z" />
<glyph unicode="&#xbe;" horiz-adv-x="963" d="M51 270q0 24 31 40q38 -38 96 -38q42 0 69 19.5t27 52.5q0 86 -118 86q-12 0 -18 5t-6 22q0 11 1 17q67 3 100 19.5t33 59.5q0 56 -73 56q-55 0 -94 -48q-33 15 -33 40q0 28 48.5 50t95.5 22q74 0 110.5 -29t36.5 -78q0 -80 -86 -108q48 -15 71 -45.5t23 -68.5 q0 -54 -47 -95t-135 -41q-52 0 -92 17t-40 45zM251 -75q0 8 11.5 32t98.5 197q104 207 188 375q67 133 99 211q63 -2 63 -33q0 -8 -12.5 -34.5t-89.5 -179.5q-106 -211 -195 -389q-69 -139 -99 -211q-64 0 -64 32zM548 169q0 18 1 25q35 60 96.5 134.5t104.5 112.5 q13 11 59 11q11 0 27 -2q0 -3 -2 -37t-4 -95t-2 -127q49 3 68 13q8 -16 8 -35q0 -31 -18 -37q-16 -8 -58 -9q0 -74 16 -125q-21 -8 -41 -8q-34 0 -45.5 12t-11.5 40q0 16 1 34.5t1 45.5q-132 0 -181 7q-19 1 -19 40zM623 188q22 -1 80 -1h45q0 42 1 95t1 67 q-68 -67 -127 -161z" />
<glyph unicode="&#xbf;" horiz-adv-x="377" d="M17 -83q0 38 15.5 71.5t31 51t43.5 42.5q20 18 30 29t20.5 31.5t10.5 40.5q0 22 -11 55q28 17 54 17q61 0 61 -66q0 -27 -13 -54t-25.5 -41.5t-38.5 -42.5q-24 -25 -36 -40t-24 -41t-12 -54q0 -33 18 -49.5t48 -16.5q33 0 62.5 21t38.5 55q75 -12 75 -53q0 -42 -48 -67.5 t-114 -25.5q-80 0 -133 35.5t-53 101.5zM134 414q0 30 22 50.5t52 20.5q29 0 50 -20.5t21 -50.5t-22 -50.5t-51 -20.5q-30 0 -51 20t-21 51z" />
<glyph unicode="&#xc0;" horiz-adv-x="573" d="M4 20q0 14 42.5 113.5t103.5 253.5t96 273q20 3 52 3q26 0 40.5 -10.5t25.5 -42.5q77 -240 112 -330q75 -195 113 -270q-38 -20 -64 -20q-42 0 -58 27q-12 31 -33.5 91.5t-33.5 92.5q-98 -2 -119 -2q-26 0 -108 2q-65 -167 -80 -222q-89 10 -89 41zM147 854q0 35 52 61 q40 -43 84 -76t63.5 -48t19.5 -31q0 -23 -32 -44q-31 23 -82.5 50.5t-78 47t-26.5 40.5zM204 275q64 -2 98 -2q52 0 72 1q-15 41 -29.5 85.5t-30.5 95.5t-22 70q-48 -151 -88 -250z" />
<glyph unicode="&#xc1;" horiz-adv-x="573" d="M4 20q0 14 42.5 113.5t103.5 253.5t96 273q20 3 52 3q26 0 40.5 -10.5t25.5 -42.5q77 -240 112 -330q75 -195 113 -270q-38 -20 -64 -20q-42 0 -58 27q-12 31 -33.5 91.5t-33.5 92.5q-98 -2 -119 -2q-26 0 -108 2q-65 -167 -80 -222q-89 10 -89 41zM204 275q64 -2 98 -2 q52 0 72 1q-15 41 -29.5 85.5t-30.5 95.5t-22 70q-48 -151 -88 -250zM232 765q0 13 10 22.5t27 19.5t52 40.5t74 73.5q54 -28 54 -59q0 -24 -27 -43q-18 -14 -75.5 -46t-84.5 -57q-30 27 -30 49z" />
<glyph unicode="&#xc2;" horiz-adv-x="573" d="M4 20q0 14 42.5 113.5t103.5 253.5t96 273q20 3 52 3q26 0 40.5 -10.5t25.5 -42.5q77 -240 112 -330q75 -195 113 -270q-38 -20 -64 -20q-42 0 -58 27q-12 31 -33.5 91.5t-33.5 92.5q-98 -2 -119 -2q-26 0 -108 2q-65 -167 -80 -222q-89 10 -89 41zM150 750 q74 87 156 145q137 -95 137 -138q0 -21 -37 -45q-17 21 -42 42.5t-42 33.5l-17 11q-87 -75 -114 -75q-21 0 -41 26zM204 275q64 -2 98 -2q52 0 72 1q-15 41 -29.5 85.5t-30.5 95.5t-22 70q-48 -151 -88 -250z" />
<glyph unicode="&#xc3;" horiz-adv-x="573" d="M4 20q0 14 42.5 113.5t103.5 253.5t96 273q20 3 52 3q26 0 40.5 -10.5t25.5 -42.5q77 -240 112 -330q75 -195 113 -270q-38 -20 -64 -20q-42 0 -58 27q-12 31 -33.5 91.5t-33.5 92.5q-98 -2 -119 -2q-26 0 -108 2q-65 -167 -80 -222q-89 10 -89 41zM142 754q0 29 33.5 55 t74.5 26q24 0 61.5 -22t48.5 -22q19 0 51 45q35 -10 35 -32q0 -30 -33.5 -58t-73.5 -28q-29 0 -67 22t-45 22q-14 0 -51 -46q-34 15 -34 38zM204 275q64 -2 98 -2q52 0 72 1q-15 41 -29.5 85.5t-30.5 95.5t-22 70q-48 -151 -88 -250z" />
<glyph unicode="&#xc4;" horiz-adv-x="573" d="M4 20q0 14 42.5 113.5t103.5 253.5t96 273q20 3 52 3q26 0 40.5 -10.5t25.5 -42.5q77 -240 112 -330q75 -195 113 -270q-38 -20 -64 -20q-42 0 -58 27q-12 31 -33.5 91.5t-33.5 92.5q-98 -2 -119 -2q-26 0 -108 2q-65 -167 -80 -222q-89 10 -89 41zM125 783q0 30 22 50.5 t52 20.5q29 0 50 -20.5t21 -50.5t-22 -50.5t-51 -20.5q-30 0 -51 20t-21 51zM204 275q64 -2 98 -2q52 0 72 1q-15 41 -29.5 85.5t-30.5 95.5t-22 70q-48 -151 -88 -250zM315 783q0 30 22 50.5t52 20.5q29 0 50 -20.5t21 -50.5t-22 -50.5t-51 -20.5q-30 0 -51 20t-21 51z" />
<glyph unicode="&#xc5;" horiz-adv-x="573" d="M4 20q0 14 42.5 113.5t103.5 253.5t96 273q20 3 52 3q26 0 40.5 -10.5t25.5 -42.5q77 -240 112 -330q75 -195 113 -270q-38 -20 -64 -20q-42 0 -58 27q-12 31 -33.5 91.5t-33.5 92.5q-98 -2 -119 -2q-26 0 -108 2q-65 -167 -80 -222q-89 10 -89 41zM202 808q0 43 26.5 69 t68.5 26t67.5 -26t25.5 -69t-25.5 -69t-67.5 -26t-68.5 26t-26.5 69zM204 275q64 -2 98 -2q52 0 72 1q-15 41 -29.5 85.5t-30.5 95.5t-22 70q-48 -151 -88 -250zM259 812q0 -22 10.5 -36.5t27.5 -14.5q36 0 36 42q0 23 -9.5 37.5t-26.5 14.5q-38 0 -38 -43z" />
<glyph unicode="&#xc6;" horiz-adv-x="793" d="M0 45q0 6 9 25t27 51t34.5 61t42 72.5t39.5 67.5q98 174 162 324q73 20 273 20q152 0 171 -15q9 -9 9 -32q0 -30 -8 -54q-56 21 -180 21q-51 0 -106 -3q4 -39 4 -187h75q80 0 114 4q4 -9 4 -32q0 -28 -10 -38.5t-32 -11.5q-25 -1 -67 -1h-84q0 -199 7 -239q42 -2 69 -2 q160 0 207 22q8 -23 8 -53q0 -23 -9 -32q-19 -15 -171 -15q-136 0 -166 2q-31 1 -41.5 13.5t-10.5 43.5q0 36 2 142h-68q-64 0 -114 2q-8 -15 -34.5 -63.5t-41.5 -80.5t-28 -65q-48 7 -67 19.5t-19 33.5zM230 274q34 -1 102 -1h40v68q0 156 -4 222q-94 -205 -138 -289z" />
<glyph unicode="&#xc7;" horiz-adv-x="609" d="M42 332q0 160 88.5 250.5t239.5 90.5q81 0 136 -31.5t55 -77.5q0 -24 -19.5 -42t-59.5 -24q-15 47 -53.5 71.5t-80.5 24.5q-85 0 -138.5 -69t-53.5 -174q0 -121 54.5 -201.5t153.5 -80.5q45 0 87 21.5t66 64.5q22 -11 38 -28.5t16 -36.5q0 -40 -56 -69.5t-143 -30.5 q-6 -22 -6 -29q0 -6 23 -19q59 -31 59 -81q0 -41 -38 -73t-95 -32q-51 0 -51 32q0 19 25 42q16 -14 39 -14q37 0 37 31q0 21 -34.5 45t-34.5 46q0 19 15 56q-124 17 -196.5 108.5t-72.5 229.5z" />
<glyph unicode="&#xc8;" horiz-adv-x="491" d="M56 657q109 9 223 9q148 0 167 -15q9 -9 9 -32q0 -30 -8 -54q-55 21 -174 21q-48 0 -102 -3q4 -39 4 -187h75q80 0 114 4q4 -9 4 -32q0 -28 -10 -38.5t-32 -11.5q-25 -1 -67 -1h-84q0 -199 7 -239q42 -2 69 -2q160 0 207 22q8 -23 8 -53q0 -23 -9 -32q-19 -15 -171 -15 q-136 0 -166 2q-31 1 -41.5 13.5t-10.5 43.5q0 19 1 82t1 97v194q0 140 -14 227zM89 854q0 35 52 61q40 -43 84 -76t63.5 -48t19.5 -31q0 -23 -32 -44q-31 23 -82.5 50.5t-78 47t-26.5 40.5z" />
<glyph unicode="&#xc9;" horiz-adv-x="491" d="M56 657q109 9 223 9q148 0 167 -15q9 -9 9 -32q0 -30 -8 -54q-55 21 -174 21q-48 0 -102 -3q4 -39 4 -187h75q80 0 114 4q4 -9 4 -32q0 -28 -10 -38.5t-32 -11.5q-25 -1 -67 -1h-84q0 -199 7 -239q42 -2 69 -2q160 0 207 22q8 -23 8 -53q0 -23 -9 -32q-19 -15 -171 -15 q-136 0 -166 2q-31 1 -41.5 13.5t-10.5 43.5q0 19 1 82t1 97v194q0 140 -14 227zM193 765q0 13 10 22.5t27 19.5t52 40.5t74 73.5q54 -28 54 -59q0 -24 -27 -43q-18 -14 -75.5 -46t-84.5 -57q-30 27 -30 49z" />
<glyph unicode="&#xca;" horiz-adv-x="491" d="M56 657q109 9 223 9q148 0 167 -15q9 -9 9 -32q0 -30 -8 -54q-55 21 -174 21q-48 0 -102 -3q4 -39 4 -187h75q80 0 114 4q4 -9 4 -32q0 -28 -10 -38.5t-32 -11.5q-25 -1 -67 -1h-84q0 -199 7 -239q42 -2 69 -2q160 0 207 22q8 -23 8 -53q0 -23 -9 -32q-19 -15 -171 -15 q-136 0 -166 2q-31 1 -41.5 13.5t-10.5 43.5q0 19 1 82t1 97v194q0 140 -14 227zM99 750q74 87 156 145q137 -95 137 -138q0 -21 -37 -45q-17 21 -42 42.5t-42 33.5l-17 11q-87 -75 -114 -75q-22 0 -41 26z" />
<glyph unicode="&#xcb;" horiz-adv-x="491" d="M56 657q109 9 223 9q148 0 167 -15q9 -9 9 -32q0 -30 -8 -54q-55 21 -174 21q-48 0 -102 -3q4 -39 4 -187h75q80 0 114 4q4 -9 4 -32q0 -28 -10 -38.5t-32 -11.5q-25 -1 -67 -1h-84q0 -199 7 -239q42 -2 69 -2q160 0 207 22q8 -23 8 -53q0 -23 -9 -32q-19 -15 -171 -15 q-136 0 -166 2q-31 1 -41.5 13.5t-10.5 43.5q0 19 1 82t1 97v194q0 140 -14 227zM91 783q0 30 22 50.5t52 20.5q29 0 50 -20.5t21 -50.5t-22 -50.5t-51 -20.5q-30 0 -51 20t-21 51zM281 783q0 30 22 50.5t52 20.5q29 0 50 -20.5t21 -50.5t-22 -50.5t-51 -20.5q-30 0 -51 20 t-21 51z" />
<glyph unicode="&#xcc;" horiz-adv-x="247" d="M-29 854q0 35 52 61q40 -43 84 -76t63.5 -48t19.5 -31q0 -23 -32 -44q-31 23 -82.5 50.5t-78 47t-26.5 40.5zM60 661q30 5 53 5q67 0 67 -38q0 -6 -2 -40.5t-4 -86t-2 -97.5v-201q0 -133 19 -196q-28 -10 -62 -10q-37 0 -50.5 13t-13.5 44q0 16 1 79t1 98v200 q0 139 -7 230z" />
<glyph unicode="&#xcd;" horiz-adv-x="244" d="M56 765q0 13 10 22.5t27 19.5t52 40.5t74 73.5q54 -28 54 -59q0 -24 -27 -43q-18 -14 -75.5 -46t-84.5 -57q-30 27 -30 49zM69 661q30 5 53 5q67 0 67 -38q0 -6 -2 -40.5t-4 -86t-2 -97.5v-201q0 -133 19 -196q-28 -10 -62 -10q-37 0 -50.5 13t-13.5 44q0 16 1 79t1 98 v200q0 139 -7 230z" />
<glyph unicode="&#xce;" horiz-adv-x="261" d="M-20 750q74 87 156 145q137 -95 137 -138q0 -21 -37 -45q-17 21 -42 42.5t-42 33.5l-17 11q-87 -75 -114 -75q-21 0 -41 26zM71 661q30 5 53 5q67 0 67 -38q0 -6 -2 -40.5t-4 -86t-2 -97.5v-201q0 -133 19 -196q-28 -10 -62 -10q-37 0 -50.5 13t-13.5 44q0 16 1 79t1 98 v200q0 139 -7 230z" />
<glyph unicode="&#xcf;" horiz-adv-x="253" d="M-51 783q0 30 22 50.5t52 20.5q29 0 50 -20.5t21 -50.5t-22 -50.5t-51 -20.5q-30 0 -51 20t-21 51zM62 661q30 5 53 5q67 0 67 -38q0 -6 -2 -40.5t-4 -86t-2 -97.5v-201q0 -133 19 -196q-28 -10 -62 -10q-37 0 -50.5 13t-13.5 44q0 16 1 79t1 98v200q0 139 -7 230z M139 783q0 30 22 50.5t52 20.5q29 0 50 -20.5t21 -50.5t-22 -50.5t-51 -20.5q-30 0 -51 20t-21 51z" />
<glyph unicode="&#xd0;" horiz-adv-x="651" d="M-14 348q0 44 45 46q13 1 54 1q0 162 -13 266q63 12 161 12q81 0 145.5 -17t118 -54.5t83 -105.5t29.5 -163q0 -150 -83 -246.5t-237 -96.5q-142 0 -220 63q13 92 15 263q-62 0 -93 -4q-5 13 -5 36zM175 105q48 -35 119 -35q56 0 97 22.5t62.5 60t31.5 78t10 84.5 q0 140 -65.5 210.5t-187.5 70.5q-19 0 -57 -4q4 -65 4 -153v-44h45q83 0 114 4q4 -16 4 -34q0 -47 -44 -48q-29 -1 -121 -1q-4 -135 -12 -211z" />
<glyph unicode="&#xd1;" horiz-adv-x="618" d="M56 659q25 8 61 8q46 0 72 -29q47 -52 139.5 -200t141.5 -250q-8 114 -8 232q0 149 -7 243q23 3 41 3q66 0 66 -38q0 -6 -2 -40.5t-4.5 -86t-2.5 -97.5v-171q0 -141 7 -232q-20 -4 -44 -4q-50 0 -67 27q-47 77 -144 241t-145 242l5 -251q3 -202 20 -251q-22 -8 -48 -8 q-37 0 -50.5 13t-13.5 44q0 16 1 79t1 98v200q0 167 -19 228zM158 754q0 29 33.5 55t74.5 26q24 0 61.5 -22t48.5 -22q19 0 51 45q35 -10 35 -32q0 -30 -33.5 -58t-73.5 -28q-29 0 -67 22t-45 22q-14 0 -51 -46q-34 15 -34 38z" />
<glyph unicode="&#xd2;" horiz-adv-x="716" d="M42 331q0 157 85.5 249.5t229.5 92.5q146 0 232 -92.5t86 -249.5q0 -155 -86.5 -248t-231.5 -93q-144 0 -229.5 93t-85.5 248zM156 360q0 -75 18.5 -138t66 -108t117.5 -45q97 0 150 68t53 177q0 72 -18.5 132.5t-66 104t-117.5 43.5q-93 0 -148 -65.5t-55 -168.5z M199 854q0 35 52 61q40 -43 84 -76t63.5 -48t19.5 -31q0 -23 -32 -44q-31 23 -82.5 50.5t-78 47t-26.5 40.5z" />
<glyph unicode="&#xd3;" horiz-adv-x="716" d="M42 331q0 157 85.5 249.5t229.5 92.5q146 0 232 -92.5t86 -249.5q0 -155 -86.5 -248t-231.5 -93q-144 0 -229.5 93t-85.5 248zM156 360q0 -75 18.5 -138t66 -108t117.5 -45q97 0 150 68t53 177q0 72 -18.5 132.5t-66 104t-117.5 43.5q-93 0 -148 -65.5t-55 -168.5z M300 765q0 13 10 22.5t27 19.5t52 40.5t74 73.5q54 -28 54 -59q0 -24 -27 -43q-18 -14 -75.5 -46t-84.5 -57q-30 27 -30 49z" />
<glyph unicode="&#xd4;" horiz-adv-x="716" d="M42 331q0 157 85.5 249.5t229.5 92.5q146 0 232 -92.5t86 -249.5q0 -155 -86.5 -248t-231.5 -93q-144 0 -229.5 93t-85.5 248zM156 360q0 -75 18.5 -138t66 -108t117.5 -45q97 0 150 68t53 177q0 72 -18.5 132.5t-66 104t-117.5 43.5q-93 0 -148 -65.5t-55 -168.5z M207 750q74 87 156 145q137 -95 137 -138q0 -21 -37 -45q-17 21 -42 42.5t-42 33.5l-17 11q-87 -75 -114 -75q-22 0 -41 26z" />
<glyph unicode="&#xd5;" horiz-adv-x="716" d="M42 331q0 157 85.5 249.5t229.5 92.5q146 0 232 -92.5t86 -249.5q0 -155 -86.5 -248t-231.5 -93q-144 0 -229.5 93t-85.5 248zM156 360q0 -75 18.5 -138t66 -108t117.5 -45q97 0 150 68t53 177q0 72 -18.5 132.5t-66 104t-117.5 43.5q-93 0 -148 -65.5t-55 -168.5z M206 754q0 29 33.5 55t74.5 26q24 0 61.5 -22t48.5 -22q19 0 51 45q35 -10 35 -32q0 -30 -33.5 -58t-73.5 -28q-29 0 -67 22t-45 22q-14 0 -51 -46q-34 15 -34 38z" />
<glyph unicode="&#xd6;" horiz-adv-x="716" d="M42 331q0 157 85.5 249.5t229.5 92.5q146 0 232 -92.5t86 -249.5q0 -155 -86.5 -248t-231.5 -93q-144 0 -229.5 93t-85.5 248zM156 360q0 -75 18.5 -138t66 -108t117.5 -45q97 0 150 68t53 177q0 72 -18.5 132.5t-66 104t-117.5 43.5q-93 0 -148 -65.5t-55 -168.5z M190 783q0 30 22 50.5t52 20.5q29 0 50 -20.5t21 -50.5t-22 -50.5t-51 -20.5q-30 0 -51 20t-21 51zM380 783q0 30 22 50.5t52 20.5q29 0 50 -20.5t21 -50.5t-22 -50.5t-51 -20.5q-30 0 -51 20t-21 51z" />
<glyph unicode="&#xd7;" d="M49 406q29 46 66 46q22 0 35 -13q16 -16 117 -127q98 98 146 158q22 -12 40.5 -30t18.5 -33q0 -14 -15 -29q-14 -13 -66 -62t-67 -62q102 -102 162 -150q-24 -45 -67 -45q-23 0 -34 11q-10 10 -57.5 61.5t-61.5 65.5q-79 -78 -147 -160q-19 13 -29 20.5t-19.5 20 t-9.5 25.5t15 28q12 13 134 124q-108 103 -161 151z" />
<glyph unicode="&#xd8;" horiz-adv-x="716" d="M42 331q0 157 85.5 249.5t229.5 92.5q78 0 144 -30l24 44q10 18 28 57q46 -5 46 -31q0 -11 -22 -50l-27 -49q125 -92 125 -283q0 -155 -86.5 -248t-231.5 -93q-75 0 -136 26l-24 -43q-22 -40 -28 -57q-46 5 -46 31q0 10 25 55l23 42q-129 91 -129 287zM156 360 q0 -147 64 -226l238 431q-44 29 -99 29q-93 0 -148 -65.5t-55 -168.5zM264 95q40 -26 94 -26q97 0 150 68t53 177q0 132 -60 211z" />
<glyph unicode="&#xd9;" horiz-adv-x="643" d="M61 658q26 8 59 8q38 0 55.5 -11.5t17.5 -39.5q0 -41 -7.5 -183.5t-7.5 -221.5q0 -68 35 -100.5t82 -32.5q43 0 90.5 22t76.5 53v31.5t0.5 87t0.5 160.5q0 140 -7 231q31 4 55 4q65 0 65 -38q0 -2 -2 -37t-4 -109.5t-2 -172.5q0 -155 3 -207.5t16 -96.5q-22 -8 -62 -8 q-36 0 -50 12.5t-14 46.5v19q-39 -38 -93.5 -61.5t-100.5 -23.5q-91 0 -144.5 44.5t-53.5 157.5q0 59 4.5 160t4.5 149q0 95 -17 157zM165 854q0 35 52 61q40 -43 84 -76t63.5 -48t19.5 -31q0 -23 -32 -44q-31 23 -82.5 50.5t-78 47t-26.5 40.5z" />
<glyph unicode="&#xda;" horiz-adv-x="643" d="M61 658q26 8 59 8q38 0 55.5 -11.5t17.5 -39.5q0 -41 -7.5 -183.5t-7.5 -221.5q0 -68 35 -100.5t82 -32.5q43 0 90.5 22t76.5 53v31.5t0.5 87t0.5 160.5q0 140 -7 231q31 4 55 4q65 0 65 -38q0 -2 -2 -37t-4 -109.5t-2 -172.5q0 -155 3 -207.5t16 -96.5q-22 -8 -62 -8 q-36 0 -50 12.5t-14 46.5v19q-39 -38 -93.5 -61.5t-100.5 -23.5q-91 0 -144.5 44.5t-53.5 157.5q0 59 4.5 160t4.5 149q0 95 -17 157zM273 765q0 13 10 22.5t27 19.5t52 40.5t74 73.5q54 -28 54 -59q0 -24 -27 -43q-18 -14 -75.5 -46t-84.5 -57q-30 27 -30 49z" />
<glyph unicode="&#xdb;" horiz-adv-x="643" d="M61 658q26 8 59 8q38 0 55.5 -11.5t17.5 -39.5q0 -41 -7.5 -183.5t-7.5 -221.5q0 -68 35 -100.5t82 -32.5q43 0 90.5 22t76.5 53v31.5t0.5 87t0.5 160.5q0 140 -7 231q31 4 55 4q65 0 65 -38q0 -2 -2 -37t-4 -109.5t-2 -172.5q0 -155 3 -207.5t16 -96.5q-22 -8 -62 -8 q-36 0 -50 12.5t-14 46.5v19q-39 -38 -93.5 -61.5t-100.5 -23.5q-91 0 -144.5 44.5t-53.5 157.5q0 59 4.5 160t4.5 149q0 95 -17 157zM174 750q74 87 156 145q137 -95 137 -138q0 -21 -37 -45q-17 21 -42 42.5t-42 33.5l-17 11q-87 -75 -114 -75q-21 0 -41 26z" />
<glyph unicode="&#xdc;" horiz-adv-x="643" d="M61 658q26 8 59 8q38 0 55.5 -11.5t17.5 -39.5q0 -41 -7.5 -183.5t-7.5 -221.5q0 -68 35 -100.5t82 -32.5q43 0 90.5 22t76.5 53v31.5t0.5 87t0.5 160.5q0 140 -7 231q31 4 55 4q65 0 65 -38q0 -2 -2 -37t-4 -109.5t-2 -172.5q0 -155 3 -207.5t16 -96.5q-22 -8 -62 -8 q-36 0 -50 12.5t-14 46.5v19q-39 -38 -93.5 -61.5t-100.5 -23.5q-91 0 -144.5 44.5t-53.5 157.5q0 59 4.5 160t4.5 149q0 95 -17 157zM168 783q0 30 22 50.5t52 20.5q29 0 50 -20.5t21 -50.5t-22 -50.5t-51 -20.5q-30 0 -51 20t-21 51zM358 783q0 30 22 50.5t52 20.5 q29 0 50 -20.5t21 -50.5t-22 -50.5t-51 -20.5q-30 0 -51 20t-21 51z" />
<glyph unicode="&#xdd;" horiz-adv-x="507" d="M-9 614q16 21 41 37t48 16q35 0 59 -34q74 -109 138 -247q46 71 86 161t45 125q95 -4 95 -56q0 -35 -64.5 -133t-128.5 -176v-104q0 -133 19 -196q-28 -10 -62 -10q-37 0 -50.5 13t-13.5 44q0 16 1 79t1 98v72q-141 262 -214 311zM209 765q0 13 10 22.5t27 19.5t52 40.5 t74 73.5q54 -28 54 -59q0 -24 -27 -43q-18 -14 -75.5 -46t-84.5 -57q-30 27 -30 49z" />
<glyph unicode="&#xde;" horiz-adv-x="517" d="M56 661q30 5 53 5q67 0 67 -38l-4 -66q11 1 34 1q281 0 281 -221q0 -107 -60.5 -163t-142.5 -56q-67 0 -116 32q2 -94 19 -148q-28 -10 -62 -10q-37 0 -50.5 13t-13.5 44q0 16 1 79t1 98v200q0 139 -7 230zM168 219q33 -17 84 -17q57 0 89 36.5t32 98.5q0 85 -36 117 t-112 32q-18 0 -56 -4q-1 -25 -1 -263z" />
<glyph unicode="&#xdf;" horiz-adv-x="537" d="M55 11q19 62 19 194v256q0 105 55.5 159t131.5 54q63 0 107.5 -31t44.5 -85q0 -48 -18 -80.5t-39 -45.5t-39 -29.5t-18 -34.5q0 -24 31.5 -49t68.5 -45t68.5 -57.5t31.5 -84.5q0 -56 -45 -99t-109 -43q-52 0 -91.5 25t-39.5 61q0 20 19 32t56 23q7 -34 25 -52t38 -18 q18 0 31.5 17.5t13.5 41.5q0 29 -19.5 54t-47.5 43.5t-56 37.5t-47.5 47t-19.5 62q0 25 16.5 46t35.5 34t35.5 38t16.5 57q0 31 -15.5 47.5t-40.5 16.5q-34 0 -58.5 -28.5t-24.5 -86.5v-289q0 -17 0.5 -61t0.5 -82q0 -32 -14 -45.5t-50 -13.5q-24 0 -54 14z" />
<glyph unicode="&#xe0;" horiz-adv-x="478" d="M38 132q0 56 24 83t64 40q60 19 181 20q0 34 -1.5 52t-8 41t-22 33.5t-41.5 10.5q-33 0 -62.5 -21.5t-42.5 -59.5q-89 1 -89 53q0 43 60.5 72t137.5 29q92 0 134.5 -38t42.5 -136q0 -3 -1 -47t-1 -86q0 -114 19 -171q-29 -11 -57 -11q-56 0 -67 46q-60 -52 -135 -52 q-58 0 -96.5 36t-38.5 106zM76 661q0 35 52 61q40 -43 84 -76t63.5 -48t19.5 -31q0 -23 -32 -44q-31 23 -82.5 50.5t-78 47t-26.5 40.5zM147 139q0 -40 20 -59t51 -19q51 0 87 38q-2 13 -2 44q0 46 2 71q-30 -4 -43.5 -6t-36.5 -6t-33.5 -9t-22.5 -12t-17 -17.5t-5 -24.5z " />
<glyph unicode="&#xe1;" horiz-adv-x="478" d="M38 132q0 56 24 83t64 40q60 19 181 20q0 34 -1.5 52t-8 41t-22 33.5t-41.5 10.5q-33 0 -62.5 -21.5t-42.5 -59.5q-89 1 -89 53q0 43 60.5 72t137.5 29q92 0 134.5 -38t42.5 -136q0 -3 -1 -47t-1 -86q0 -114 19 -171q-29 -11 -57 -11q-56 0 -67 46q-60 -52 -135 -52 q-58 0 -96.5 36t-38.5 106zM147 139q0 -40 20 -59t51 -19q51 0 87 38q-2 13 -2 44q0 46 2 71q-30 -4 -43.5 -6t-36.5 -6t-33.5 -9t-22.5 -12t-17 -17.5t-5 -24.5zM177 572q0 13 10 22.5t27 19.5t52 40.5t74 73.5q54 -28 54 -59q0 -24 -27 -43q-18 -14 -75.5 -46t-84.5 -57 q-30 27 -30 49z" />
<glyph unicode="&#xe2;" horiz-adv-x="478" d="M38 132q0 56 24 83t64 40q60 19 181 20q0 34 -1.5 52t-8 41t-22 33.5t-41.5 10.5q-33 0 -62.5 -21.5t-42.5 -59.5q-89 1 -89 53q0 43 60.5 72t137.5 29q92 0 134.5 -38t42.5 -136q0 -3 -1 -47t-1 -86q0 -114 19 -171q-29 -11 -57 -11q-56 0 -67 46q-60 -52 -135 -52 q-58 0 -96.5 36t-38.5 106zM79 557q74 87 156 145q137 -95 137 -138q0 -21 -37 -45q-17 21 -42 42.5t-42 32.5l-17 12q-87 -75 -114 -75q-22 0 -41 26zM147 139q0 -40 20 -59t51 -19q51 0 87 38q-2 13 -2 44q0 46 2 71q-30 -4 -43.5 -6t-36.5 -6t-33.5 -9t-22.5 -12 t-17 -17.5t-5 -24.5z" />
<glyph unicode="&#xe3;" horiz-adv-x="478" d="M38 132q0 56 24 83t64 40q60 19 181 20q0 34 -1.5 52t-8 41t-22 33.5t-41.5 10.5q-33 0 -62.5 -21.5t-42.5 -59.5q-89 1 -89 53q0 43 60.5 72t137.5 29q92 0 134.5 -38t42.5 -136q0 -3 -1 -47t-1 -86q0 -114 19 -171q-29 -11 -57 -11q-56 0 -67 46q-60 -52 -135 -52 q-58 0 -96.5 36t-38.5 106zM84 567q0 29 33.5 55t74.5 26q24 0 61.5 -22t48.5 -22q19 0 51 45q35 -10 35 -32q0 -30 -33.5 -58t-73.5 -28q-29 0 -67 22t-45 22q-14 0 -51 -46q-34 15 -34 38zM147 139q0 -40 20 -59t51 -19q51 0 87 38q-2 13 -2 44q0 46 2 71q-30 -4 -43.5 -6 t-36.5 -6t-33.5 -9t-22.5 -12t-17 -17.5t-5 -24.5z" />
<glyph unicode="&#xe4;" horiz-adv-x="478" d="M38 132q0 56 24 83t64 40q60 19 181 20q0 34 -1.5 52t-8 41t-22 33.5t-41.5 10.5q-33 0 -62.5 -21.5t-42.5 -59.5q-89 1 -89 53q0 43 60.5 72t137.5 29q92 0 134.5 -38t42.5 -136q0 -3 -1 -47t-1 -86q0 -114 19 -171q-29 -11 -57 -11q-56 0 -67 46q-60 -52 -135 -52 q-58 0 -96.5 36t-38.5 106zM73 591q0 30 22 50.5t52 20.5q29 0 50 -20.5t21 -50.5t-22 -50.5t-51 -20.5q-30 0 -51 20t-21 51zM147 139q0 -40 20 -59t51 -19q51 0 87 38q-2 13 -2 44q0 46 2 71q-30 -4 -43.5 -6t-36.5 -6t-33.5 -9t-22.5 -12t-17 -17.5t-5 -24.5zM263 591 q0 30 22 50.5t52 20.5q29 0 50 -20.5t21 -50.5t-22 -50.5t-51 -20.5q-30 0 -51 20t-21 51z" />
<glyph unicode="&#xe5;" horiz-adv-x="478" d="M38 132q0 56 24 83t64 40q60 19 181 20q0 34 -1.5 52t-8 41t-22 33.5t-41.5 10.5q-33 0 -62.5 -21.5t-42.5 -59.5q-89 1 -89 53q0 43 60.5 72t137.5 29q92 0 134.5 -38t42.5 -136q0 -3 -1 -47t-1 -86q0 -114 19 -171q-29 -11 -57 -11q-56 0 -67 46q-60 -52 -135 -52 q-58 0 -96.5 36t-38.5 106zM131 615q0 43 26.5 69t68.5 26t67.5 -26t25.5 -69t-25.5 -69t-67.5 -26t-68.5 26t-26.5 69zM147 139q0 -40 20 -59t51 -19q51 0 87 38q-2 13 -2 44q0 46 2 71q-30 -4 -43.5 -6t-36.5 -6t-33.5 -9t-22.5 -12t-17 -17.5t-5 -24.5zM188 619 q0 -22 10.5 -36.5t27.5 -14.5q36 0 36 42q0 23 -9.5 37.5t-26.5 14.5q-38 0 -38 -43z" />
<glyph unicode="&#xe6;" horiz-adv-x="753" d="M38 132q0 56 24 83t64 40q60 19 181 20q0 34 -1.5 52t-8 41t-22 33.5t-41.5 10.5q-33 0 -62.5 -21.5t-42.5 -59.5q-89 1 -89 53q0 43 60.5 72t137.5 29q56 0 92 -14.5t57 -50.5q61 65 155 65q77 0 124.5 -42t47.5 -100q0 -47 -17.5 -77.5t-51.5 -44.5t-69 -19t-86 -5 q-27 0 -73 2q10 -71 45.5 -104t87.5 -33q27 0 56 14t43 40q49 -26 49 -56q0 -34 -47 -52t-105 -18q-55 0 -106.5 22t-85.5 66q-86 -88 -181 -88q-58 0 -96.5 36t-38.5 106zM147 139q0 -40 20 -59t51 -19q57 0 110 59q-17 35 -23 95q-40 -5 -62 -9t-47.5 -12.5t-37 -22 t-11.5 -32.5zM414 262q64 0 94 3q97 12 97 76q0 29 -20.5 50t-51.5 21q-47 0 -80 -36t-39 -114z" />
<glyph unicode="&#xe7;" horiz-adv-x="464" d="M38 233q0 124 72 188t164 64q56 0 106.5 -26.5t50.5 -73.5q0 -21 -21 -34t-57 -17q-8 36 -36 56t-57 20q-48 0 -80 -46t-32 -120q0 -95 37.5 -138.5t97.5 -43.5q27 0 56 14t43 40q49 -26 49 -56q0 -34 -47 -52t-105 -18q-10 0 -28 2q-7 -21 -7 -31q0 -6 23 -19 q59 -31 59 -81q0 -41 -38 -73t-95 -32q-51 0 -51 32q0 19 25 42q16 -14 39 -14q37 0 37 31q0 21 -34.5 45t-34.5 46t19 66q-68 23 -111.5 80.5t-43.5 148.5z" />
<glyph unicode="&#xe8;" horiz-adv-x="485" d="M38 231q0 123 70.5 188.5t166.5 65.5q77 0 124.5 -42t47.5 -100q0 -47 -17.5 -77.5t-51.5 -44.5t-69 -19t-86 -5q-27 0 -73 2q10 -71 45.5 -104t87.5 -33q27 0 56 14t43 40q49 -26 49 -56q0 -34 -47 -52t-105 -18q-94 0 -167.5 62t-73.5 179zM113 661q0 35 52 61 q40 -43 84 -76t63.5 -48t19.5 -31q0 -23 -32 -44q-31 23 -82.5 50.5t-78 47t-26.5 40.5zM147 262q64 0 94 3q97 12 97 76q0 29 -20.5 50t-51.5 21q-47 0 -80 -36t-39 -114z" />
<glyph unicode="&#xe9;" horiz-adv-x="485" d="M38 231q0 123 70.5 188.5t166.5 65.5q77 0 124.5 -42t47.5 -100q0 -47 -17.5 -77.5t-51.5 -44.5t-69 -19t-86 -5q-27 0 -73 2q10 -71 45.5 -104t87.5 -33q27 0 56 14t43 40q49 -26 49 -56q0 -34 -47 -52t-105 -18q-94 0 -167.5 62t-73.5 179zM147 262q64 0 94 3 q97 12 97 76q0 29 -20.5 50t-51.5 21q-47 0 -80 -36t-39 -114zM194 572q0 13 10 22.5t27 19.5t52 40.5t74 73.5q54 -28 54 -59q0 -24 -27 -43q-18 -14 -75.5 -46t-84.5 -57q-30 27 -30 49z" />
<glyph unicode="&#xea;" horiz-adv-x="485" d="M38 231q0 123 70.5 188.5t166.5 65.5q77 0 124.5 -42t47.5 -100q0 -47 -17.5 -77.5t-51.5 -44.5t-69 -19t-86 -5q-27 0 -73 2q10 -71 45.5 -104t87.5 -33q27 0 56 14t43 40q49 -26 49 -56q0 -34 -47 -52t-105 -18q-94 0 -167.5 62t-73.5 179zM115 557q74 87 156 145 q137 -95 137 -138q0 -21 -37 -45q-17 21 -42 42.5t-42 32.5l-17 12q-87 -75 -114 -75q-22 0 -41 26zM147 262q64 0 94 3q97 12 97 76q0 29 -20.5 50t-51.5 21q-47 0 -80 -36t-39 -114z" />
<glyph unicode="&#xeb;" horiz-adv-x="485" d="M38 231q0 123 70.5 188.5t166.5 65.5q77 0 124.5 -42t47.5 -100q0 -47 -17.5 -77.5t-51.5 -44.5t-69 -19t-86 -5q-27 0 -73 2q10 -71 45.5 -104t87.5 -33q27 0 56 14t43 40q49 -26 49 -56q0 -34 -47 -52t-105 -18q-94 0 -167.5 62t-73.5 179zM110 591q0 30 22 50.5 t52 20.5q29 0 50 -20.5t21 -50.5t-22 -50.5t-51 -20.5q-30 0 -51 20t-21 51zM147 262q64 0 94 3q97 12 97 76q0 29 -20.5 50t-51.5 21q-47 0 -80 -36t-39 -114zM300 591q0 30 22 50.5t52 20.5q29 0 50 -20.5t21 -50.5t-22 -50.5t-51 -20.5q-30 0 -51 20t-21 51z" />
<glyph unicode="&#xec;" horiz-adv-x="249" d="M-6 661q0 35 52 61q40 -43 84 -76t63.5 -48t19.5 -31q0 -23 -32 -44q-31 23 -82.5 50.5t-78 47t-26.5 40.5zM64 474q24 4 52 4q72 0 72 -53q0 -6 -3 -40.5t-5.5 -85.5t-2.5 -97q0 -134 26 -195q-25 -11 -57 -11q-44 0 -59.5 18t-15.5 61q0 16 1 77.5t1 94.5q0 145 -9 227 z" />
<glyph unicode="&#xed;" horiz-adv-x="249" d="M45 572q0 13 10 22.5t27 19.5t52 40.5t74 73.5q54 -28 54 -59q0 -24 -27 -43q-18 -14 -75.5 -46t-84.5 -57q-30 27 -30 49zM64 474q24 4 52 4q72 0 72 -53q0 -6 -3 -40.5t-5.5 -85.5t-2.5 -97q0 -134 26 -195q-25 -11 -57 -11q-44 0 -59.5 18t-15.5 61q0 16 1 77.5 t1 94.5q0 145 -9 227z" />
<glyph unicode="&#xee;" horiz-adv-x="249" d="M-25 557q74 87 156 145q137 -95 137 -138q0 -21 -37 -45q-17 21 -42 42.5t-42 32.5l-17 12q-87 -75 -114 -75q-21 0 -41 26zM64 474q24 4 52 4q72 0 72 -53q0 -6 -3 -40.5t-5.5 -85.5t-2.5 -97q0 -134 26 -195q-25 -11 -57 -11q-44 0 -59.5 18t-15.5 61q0 16 1 77.5 t1 94.5q0 145 -9 227z" />
<glyph unicode="&#xef;" horiz-adv-x="249" d="M-39 591q0 30 22 50.5t52 20.5q29 0 50 -20.5t21 -50.5t-22 -50.5t-51 -20.5q-30 0 -51 20t-21 51zM64 474q24 4 52 4q72 0 72 -53q0 -6 -3 -40.5t-5.5 -85.5t-2.5 -97q0 -134 26 -195q-25 -11 -57 -11q-44 0 -59.5 18t-15.5 61q0 16 1 77.5t1 94.5q0 145 -9 227z M151 591q0 30 22 50.5t52 20.5q29 0 50 -20.5t21 -50.5t-22 -50.5t-51 -20.5q-30 0 -51 20t-21 51z" />
<glyph unicode="&#xf0;" d="M38 237q0 113 60 180.5t157 67.5q78 0 123 -49q-31 89 -103 140q-26 -18 -59.5 -43t-41.5 -31q-34 16 -34 42q0 14 16 27q25 16 59 39q-57 25 -122 34q-2 12 -2 19q0 35 26 35q25 0 73 -12.5t87 -31.5q72 51 104 78q29 -19 29 -46q0 -18 -17 -29q-12 -9 -32 -22t-24 -16 q86 -66 121 -157.5t35 -225.5q0 -112 -62.5 -179t-165.5 -67q-102 0 -164.5 67t-62.5 180zM135 245q0 -84 34.5 -139.5t95.5 -55.5q62 0 96 46.5t34 122.5q0 83 -35 139.5t-95 56.5q-62 0 -96 -46.5t-34 -123.5z" />
<glyph unicode="&#xf1;" horiz-adv-x="539" d="M51 467q24 11 52 11q29 0 45 -9t20 -40q71 56 160 56q61 0 99 -36t38 -116q0 -11 -1.5 -78t-1.5 -98q0 -82 26 -148q-31 -13 -56 -13q-41 0 -58 17t-17 64q0 52 2 125.5t2 101.5q0 55 -22 82t-57 27q-53 0 -110 -52q2 -134 2 -195q0 -96 6 -164q-27 -4 -50 -4 q-65 0 -65 40q0 29 2.5 94t2.5 117q0 166 -19 218zM117 567q0 29 33.5 55t74.5 26q24 0 61.5 -22t48.5 -22q19 0 51 45q35 -10 35 -32q0 -30 -33.5 -58t-73.5 -28q-29 0 -67 22t-45 22q-14 0 -51 -46q-34 15 -34 38z" />
<glyph unicode="&#xf2;" horiz-adv-x="540" d="M38 238q0 113 63.5 180t167.5 67q105 0 169 -67t64 -180t-64 -180.5t-169 -67.5q-104 0 -167.5 67.5t-63.5 180.5zM111 661q0 35 52 61q40 -43 84 -76t63.5 -48t19.5 -31q0 -23 -32 -44q-31 23 -82.5 50.5t-78 47t-26.5 40.5zM147 251q0 -81 32.5 -134t89.5 -53 q59 0 91.5 44t32.5 117q0 80 -33.5 133.5t-90.5 53.5q-58 0 -90 -44t-32 -117z" />
<glyph unicode="&#xf3;" horiz-adv-x="540" d="M38 238q0 113 63.5 180t167.5 67q105 0 169 -67t64 -180t-64 -180.5t-169 -67.5q-104 0 -167.5 67.5t-63.5 180.5zM147 251q0 -81 32.5 -134t89.5 -53q59 0 91.5 44t32.5 117q0 80 -33.5 133.5t-90.5 53.5q-58 0 -90 -44t-32 -117zM212 572q0 13 10 22.5t27 19.5t52 40.5 t74 73.5q54 -28 54 -59q0 -24 -27 -43q-18 -14 -75.5 -46t-84.5 -57q-30 27 -30 49z" />
<glyph unicode="&#xf4;" horiz-adv-x="540" d="M38 238q0 113 63.5 180t167.5 67q105 0 169 -67t64 -180t-64 -180.5t-169 -67.5q-104 0 -167.5 67.5t-63.5 180.5zM122 557q74 87 156 145q137 -95 137 -138q0 -21 -37 -45q-17 21 -42 42.5t-42 32.5l-17 12q-87 -75 -114 -75q-21 0 -41 26zM147 251q0 -81 32.5 -134 t89.5 -53q59 0 91.5 44t32.5 117q0 80 -33.5 133.5t-90.5 53.5q-58 0 -90 -44t-32 -117z" />
<glyph unicode="&#xf5;" horiz-adv-x="540" d="M38 238q0 113 63.5 180t167.5 67q105 0 169 -67t64 -180t-64 -180.5t-169 -67.5q-104 0 -167.5 67.5t-63.5 180.5zM117 567q0 29 33.5 55t74.5 26q24 0 61.5 -22t48.5 -22q19 0 51 45q35 -10 35 -32q0 -30 -33.5 -58t-73.5 -28q-29 0 -67 22t-45 22q-14 0 -51 -46 q-34 15 -34 38zM147 251q0 -81 32.5 -134t89.5 -53q59 0 91.5 44t32.5 117q0 80 -33.5 133.5t-90.5 53.5q-58 0 -90 -44t-32 -117z" />
<glyph unicode="&#xf6;" horiz-adv-x="540" d="M38 238q0 113 63.5 180t167.5 67q105 0 169 -67t64 -180t-64 -180.5t-169 -67.5q-104 0 -167.5 67.5t-63.5 180.5zM108 591q0 30 22 50.5t52 20.5q29 0 50 -20.5t21 -50.5t-22 -50.5t-51 -20.5q-30 0 -51 20t-21 51zM147 251q0 -81 32.5 -134t89.5 -53q59 0 91.5 44 t32.5 117q0 80 -33.5 133.5t-90.5 53.5q-58 0 -90 -44t-32 -117zM298 591q0 30 22 50.5t52 20.5q29 0 50 -20.5t21 -50.5t-22 -50.5t-51 -20.5q-30 0 -51 20t-21 51z" />
<glyph unicode="&#xf7;" d="M34 248q0 19 12.5 34t39.5 15q3 0 60 -3.5t104 -3.5q127 0 200 9q6 -17 6 -39q0 -20 -14.5 -34.5t-37.5 -14.5q-16 0 -72 4t-80 4q-105 0 -213 -10q-5 25 -5 39zM193 86q0 26 18.5 45t43.5 19t42.5 -19t17.5 -45q0 -28 -17.5 -46t-42.5 -18q-26 0 -44 18t-18 46zM193 422 q0 27 18 45.5t44 18.5q25 0 42.5 -18.5t17.5 -45.5q0 -28 -17.5 -45.5t-42.5 -17.5q-26 0 -44 17.5t-18 45.5z" />
<glyph unicode="&#xf8;" horiz-adv-x="540" d="M38 238q0 113 63.5 180t167.5 67q52 0 98 -19l22 40q10 18 28 57q46 -5 46 -31q0 -11 -22 -50l-25 -45q86 -67 86 -199q0 -113 -64 -180.5t-169 -67.5q-48 0 -91 16l-19 -36q-22 -40 -28 -57q-46 5 -46 31q0 10 25 55l19 34q-91 69 -91 205zM147 251q0 -81 30 -130 l150 272q-27 19 -58 19q-58 0 -90 -44t-32 -117zM218 78q23 -14 51 -14q59 0 91.5 44t32.5 117t-27 122z" />
<glyph unicode="&#xf9;" horiz-adv-x="529" d="M51 470q27 9 55 9q37 0 53 -12t16 -40q0 -52 -3 -142t-3 -116q0 -51 21.5 -78t55.5 -27q58 0 111 51q-1 41 -1 127q0 150 -7 233q28 4 50 4q64 0 64 -39q0 -18 -2 -100t-2 -136q0 -125 19 -196q-21 -11 -50 -11q-19 0 -30 2.5t-21 14t-13 33.5q-66 -57 -152 -57 q-147 0 -147 142q0 7 1.5 76.5t1.5 100.5q0 103 -17 161zM105 661q0 35 52 61q40 -43 84 -76t63.5 -48t19.5 -31q0 -23 -32 -44q-31 23 -82.5 50.5t-78 47t-26.5 40.5z" />
<glyph unicode="&#xfa;" horiz-adv-x="529" d="M51 470q27 9 55 9q37 0 53 -12t16 -40q0 -52 -3 -142t-3 -116q0 -51 21.5 -78t55.5 -27q58 0 111 51q-1 41 -1 127q0 150 -7 233q28 4 50 4q64 0 64 -39q0 -18 -2 -100t-2 -136q0 -125 19 -196q-21 -11 -50 -11q-19 0 -30 2.5t-21 14t-13 33.5q-66 -57 -152 -57 q-147 0 -147 142q0 7 1.5 76.5t1.5 100.5q0 103 -17 161zM206 572q0 13 10 22.5t27 19.5t52 40.5t74 73.5q54 -28 54 -59q0 -24 -27 -43q-18 -14 -75.5 -46t-84.5 -57q-30 27 -30 49z" />
<glyph unicode="&#xfb;" horiz-adv-x="529" d="M51 470q27 9 55 9q37 0 53 -12t16 -40q0 -52 -3 -142t-3 -116q0 -51 21.5 -78t55.5 -27q58 0 111 51q-1 41 -1 127q0 150 -7 233q28 4 50 4q64 0 64 -39q0 -18 -2 -100t-2 -136q0 -125 19 -196q-21 -11 -50 -11q-19 0 -30 2.5t-21 14t-13 33.5q-66 -57 -152 -57 q-147 0 -147 142q0 7 1.5 76.5t1.5 100.5q0 103 -17 161zM109 557q74 87 156 145q137 -95 137 -138q0 -21 -37 -45q-17 21 -42 42.5t-42 32.5l-17 12q-87 -75 -114 -75q-22 0 -41 26z" />
<glyph unicode="&#xfc;" horiz-adv-x="529" d="M51 470q27 9 55 9q37 0 53 -12t16 -40q0 -52 -3 -142t-3 -116q0 -51 21.5 -78t55.5 -27q58 0 111 51q-1 41 -1 127q0 150 -7 233q28 4 50 4q64 0 64 -39q0 -18 -2 -100t-2 -136q0 -125 19 -196q-21 -11 -50 -11q-19 0 -30 2.5t-21 14t-13 33.5q-66 -57 -152 -57 q-147 0 -147 142q0 7 1.5 76.5t1.5 100.5q0 103 -17 161zM102 591q0 30 22 50.5t52 20.5q29 0 50 -20.5t21 -50.5t-22 -50.5t-51 -20.5q-30 0 -51 20t-21 51zM292 591q0 30 22 50.5t52 20.5q29 0 50 -20.5t21 -50.5t-22 -50.5t-51 -20.5q-30 0 -51 20t-21 51z" />
<glyph unicode="&#xfd;" horiz-adv-x="466" d="M0 446q49 34 79 34q38 0 54 -34q22 -46 61 -142.5t65 -181.5q34 84 56 177t22 150q0 18 -2 30q23 6 51 6q54 0 54 -42q0 -46 -36 -159t-85 -219q-90 -195 -165 -288q-22 -27 -51 -27q-20 0 -38.5 15t-30.5 38q28 19 73 71t86 120q-37 123 -95.5 268t-97.5 184zM183 572 q0 13 10 22.5t27 19.5t52 40.5t74 73.5q54 -28 54 -59q0 -24 -27 -43q-18 -14 -75.5 -46t-84.5 -57q-30 27 -30 49z" />
<glyph unicode="&#xfe;" horiz-adv-x="520" d="M51 738q28 5 52 5q71 0 71 -55q0 -7 -2.5 -39t-5 -91t-3.5 -129q72 56 145 56q77 0 125.5 -54t48.5 -166q0 -115 -56 -195t-161 -80q-53 0 -103 28q0 -202 20 -260q-30 -10 -57 -10q-40 0 -54 13.5t-14 45.5q0 166 1 249q2 188 2 229v189q0 184 -9 264zM163 369 q0 -202 1 -278q39 -27 98 -27q38 0 64 29t36.5 69.5t10.5 88.5q0 83 -28.5 122t-73.5 39q-54 0 -108 -43z" />
<glyph unicode="&#xff;" horiz-adv-x="466" d="M0 446q49 34 79 34q38 0 54 -34q22 -46 61 -142.5t65 -181.5q34 84 56 177t22 150q0 18 -2 30q23 6 51 6q54 0 54 -42q0 -46 -36 -159t-85 -219q-90 -195 -165 -288q-22 -27 -51 -27q-20 0 -38.5 15t-30.5 38q28 19 73 71t86 120q-37 123 -95.5 268t-97.5 184zM72 591 q0 30 22 50.5t52 20.5q29 0 50 -20.5t21 -50.5t-22 -50.5t-51 -20.5q-30 0 -51 20t-21 51zM262 591q0 30 22 50.5t52 20.5q29 0 50 -20.5t21 -50.5t-22 -50.5t-51 -20.5q-30 0 -51 20t-21 51z" />
<glyph unicode="&#x152;" horiz-adv-x="889" d="M42 331q0 157 85.5 249.5t229.5 92.5q48 0 96 -16q112 9 229 9q152 0 171 -15q9 -9 9 -32q0 -30 -8 -54q-56 21 -180 21q-50 0 -106 -3q4 -39 4 -187h75q80 0 114 4q4 -9 4 -32q0 -28 -10 -38.5t-32 -11.5q-25 -1 -67 -1h-84q0 -199 7 -239q42 -2 69 -2q160 0 207 22 q8 -23 8 -53q0 -23 -9 -32q-19 -15 -171 -15q-136 0 -166 2q-33 1 -43 16q-61 -26 -117 -26q-144 0 -229.5 93t-85.5 248zM156 360q0 -75 18.5 -138t66 -108t117.5 -45q61 0 107 29q0 20 1 67t1 71v194q0 76 -4 132q-43 32 -104 32q-93 0 -148 -65.5t-55 -168.5z" />
<glyph unicode="&#x153;" horiz-adv-x="839" d="M38 238q0 113 63.5 180t167.5 67q120 0 180 -90q65 90 180 90q77 0 124.5 -42t47.5 -100q0 -47 -17.5 -77.5t-51.5 -44.5t-69 -19t-86 -5q-27 0 -73 2q10 -71 45.5 -104t87.5 -33q27 0 56 14t43 40q49 -26 49 -56q0 -34 -47 -52t-105 -18q-119 0 -185 89 q-61 -89 -179 -89q-104 0 -167.5 67.5t-63.5 180.5zM147 251q0 -81 32.5 -134t89.5 -53t90 43.5t33 123.5q0 81 -34 131t-89 50q-58 0 -90 -44t-32 -117zM501 262q64 0 94 3q97 12 97 76q0 29 -20.5 50t-51.5 21q-47 0 -80 -36t-39 -114z" />
<glyph unicode="&#x178;" horiz-adv-x="507" d="M-9 614q16 21 41 37t48 16q35 0 59 -34q74 -109 138 -247q46 71 86 161t45 125q95 -4 95 -56q0 -35 -64.5 -133t-128.5 -176v-104q0 -133 19 -196q-28 -10 -62 -10q-37 0 -50.5 13t-13.5 44q0 16 1 79t1 98v72q-141 262 -214 311zM99 783q0 30 22 50.5t52 20.5 q29 0 50 -20.5t21 -50.5t-22 -50.5t-51 -20.5q-30 0 -51 20t-21 51zM289 783q0 30 22 50.5t52 20.5q29 0 50 -20.5t21 -50.5t-22 -50.5t-51 -20.5q-30 0 -51 20t-21 51z" />
<glyph unicode="&#x2c6;" horiz-adv-x="297" d="M-2 557q74 87 156 145q137 -95 137 -138q0 -21 -37 -45q-17 21 -42 42.5t-42 32.5l-17 12q-87 -75 -114 -75q-21 0 -41 26z" />
<glyph unicode="&#x2dc;" horiz-adv-x="304" d="M0 580q0 29 33.5 55t74.5 26q24 0 61.5 -22t48.5 -22q19 0 51 45q35 -10 35 -32q0 -30 -33.5 -58t-73.5 -28q-29 0 -67 22t-45 22q-14 0 -51 -46q-34 15 -34 38z" />
<glyph unicode="&#x2000;" horiz-adv-x="460" />
<glyph unicode="&#x2001;" horiz-adv-x="921" />
<glyph unicode="&#x2002;" horiz-adv-x="460" />
<glyph unicode="&#x2003;" horiz-adv-x="921" />
<glyph unicode="&#x2004;" horiz-adv-x="307" />
<glyph unicode="&#x2005;" horiz-adv-x="230" />
<glyph unicode="&#x2006;" horiz-adv-x="153" />
<glyph unicode="&#x2007;" horiz-adv-x="153" />
<glyph unicode="&#x2008;" horiz-adv-x="115" />
<glyph unicode="&#x2009;" horiz-adv-x="184" />
<glyph unicode="&#x200a;" horiz-adv-x="51" />
<glyph unicode="&#x2010;" horiz-adv-x="260" d="M25 257q0 19 12.5 32.5t39.5 13.5q7 0 35 -2t48 -2q48 0 88 10q7 -21 7 -40q0 -21 -14 -33.5t-38 -12.5q-11 0 -36 2.5t-42 2.5q-44 0 -95 -11q-5 24 -5 40z" />
<glyph unicode="&#x2011;" horiz-adv-x="260" d="M25 257q0 19 12.5 32.5t39.5 13.5q7 0 35 -2t48 -2q48 0 88 10q7 -21 7 -40q0 -21 -14 -33.5t-38 -12.5q-11 0 -36 2.5t-42 2.5q-44 0 -95 -11q-5 24 -5 40z" />
<glyph unicode="&#x2012;" horiz-adv-x="260" d="M25 257q0 19 12.5 32.5t39.5 13.5q7 0 35 -2t48 -2q48 0 88 10q7 -21 7 -40q0 -21 -14 -33.5t-38 -12.5q-11 0 -36 2.5t-42 2.5q-44 0 -95 -11q-5 24 -5 40z" />
<glyph unicode="&#x2013;" horiz-adv-x="595" d="M30 257q0 19 12.5 32.5t39.5 13.5q9 0 50 -2t66 -2h246q63 0 114 10q7 -21 7 -40q0 -21 -14 -33.5t-38 -12.5q-15 0 -56.5 2.5t-63.5 2.5h-235q-56 0 -123 -11q-5 24 -5 40z" />
<glyph unicode="&#x2014;" horiz-adv-x="857" d="M30 257q0 19 12.5 32.5t39.5 13.5q9 0 50 -2t66 -2h508q63 0 114 10q7 -21 7 -40q0 -21 -14 -33.5t-38 -12.5q-15 0 -56.5 2.5t-63.5 2.5h-497q-56 0 -123 -11q-5 24 -5 40z" />
<glyph unicode="&#x2018;" horiz-adv-x="206" d="M17 562q0 66 41.5 121t98.5 55q31 0 31 -38q0 -10 -1 -15h-5q-32 0 -53 -22t-21 -50q0 -45 49 -54q10 -19 10 -38q0 -24 -21 -40.5t-51 -16.5q-32 0 -55 24t-23 74z" />
<glyph unicode="&#x2019;" horiz-adv-x="273" d="M42 504q0 10 1 15h5q32 0 53 22t21 50q0 45 -49 54q-10 19 -10 38q0 24 21 40.5t51 16.5q32 0 55 -24t23 -74q0 -66 -41.5 -121t-98.5 -55q-31 0 -31 38z" />
<glyph unicode="&#x201a;" horiz-adv-x="235" d="M22 -116q0 10 1 15h5q32 0 53 22t21 50q0 45 -49 54q-10 19 -10 38q0 24 21 40.5t51 16.5q32 0 55 -24t23 -74q0 -66 -41.5 -121t-98.5 -55q-31 0 -31 38z" />
<glyph unicode="&#x201c;" horiz-adv-x="452" d="M25 562q0 66 41.5 121t98.5 55q31 0 31 -38q0 -10 -1 -15h-5q-32 0 -53 -22t-21 -50q0 -45 49 -54q10 -19 10 -38q0 -24 -21 -40.5t-51 -16.5q-32 0 -55 24t-23 74zM247 562q0 66 41.5 121t98.5 55q31 0 31 -38q0 -10 -1 -15h-5q-32 0 -53 -22t-21 -50q0 -45 49 -54 q10 -19 10 -38q0 -24 -21 -40.5t-51 -16.5q-32 0 -55 24t-23 74z" />
<glyph unicode="&#x201d;" horiz-adv-x="495" d="M42 504q0 10 1 15h5q32 0 53 22t21 50q0 45 -49 54q-10 19 -10 38q0 24 21 40.5t51 16.5q32 0 55 -24t23 -74q0 -66 -41.5 -121t-98.5 -55q-31 0 -31 38zM264 504q0 10 1 15h5q32 0 53 22t21 50q0 45 -49 54q-10 19 -10 38q0 24 21 40.5t51 16.5q32 0 55 -24t23 -74 q0 -66 -41.5 -121t-98.5 -55q-31 0 -31 38z" />
<glyph unicode="&#x201e;" horiz-adv-x="455" d="M22 -116q0 10 1 15h5q32 0 53 22t21 50q0 45 -49 54q-10 19 -10 38q0 24 21 40.5t51 16.5q32 0 55 -24t23 -74q0 -66 -41.5 -121t-98.5 -55q-31 0 -31 38zM242 -116q0 10 1 15h5q32 0 53 22t21 50q0 45 -49 54q-10 19 -10 38q0 24 21 40.5t51 16.5q32 0 55 -24t23 -74 q0 -66 -41.5 -121t-98.5 -55q-31 0 -31 38z" />
<glyph unicode="&#x2022;" horiz-adv-x="288" d="M21 270q0 50 36.5 85t87.5 35q50 0 86 -35t36 -85q0 -52 -35.5 -85t-86.5 -33q-52 0 -88 33t-36 85z" />
<glyph unicode="&#x2026;" horiz-adv-x="822" d="M36 66q0 32 21.5 54.5t51.5 22.5t51 -22.5t21 -54.5q0 -33 -21 -54.5t-51 -21.5q-31 0 -52 21.5t-21 54.5zM340 66q0 32 21.5 54.5t51.5 22.5t51 -22.5t21 -54.5q0 -33 -21 -54.5t-51 -21.5q-31 0 -52 21.5t-21 54.5zM643 66q0 32 21.5 54.5t51.5 22.5t51 -22.5t21 -54.5 q0 -33 -21 -54.5t-51 -21.5q-31 0 -52 21.5t-21 54.5z" />
<glyph unicode="&#x202f;" horiz-adv-x="184" />
<glyph unicode="&#x2039;" horiz-adv-x="301" d="M34 238q102 138 178 201q38 -24 38 -41q0 -14 -34.5 -66t-69.5 -94q35 -41 69.5 -92.5t34.5 -66.5q0 -17 -38 -41q-72 60 -178 200z" />
<glyph unicode="&#x203a;" horiz-adv-x="301" d="M34 78q0 14 34.5 66t69.5 94q-35 41 -69.5 92.5t-34.5 66.5q0 17 38 41q72 -60 178 -200q-102 -138 -178 -201q-38 24 -38 41z" />
<glyph unicode="&#x205f;" horiz-adv-x="230" />
<glyph unicode="&#x20ac;" d="M17 267q0 34 43 34h21q-1 16 -1 34q0 13 1 20q-30 -2 -58 -7q-6 10 -6 26q0 35 43 35h26q20 135 104.5 200t194.5 65q146 0 146 -54q0 -33 -39 -57q-53 40 -113 40t-115 -50t-73 -144h105q107 0 172 6l5 -24q0 -36 -43 -36h-246v-23q0 -19 1 -31h111q107 0 172 6l5 -23 q0 -37 -43 -37h-237q22 -86 77 -135t109 -49q60 0 113 40q39 -24 39 -57q0 -55 -146 -55q-69 0 -128 23.5t-107 83t-62 149.5q-12 -1 -35.5 -3t-29.5 -3q-6 10 -6 26z" />
<glyph unicode="&#x2122;" horiz-adv-x="889" d="M85 618q0 19 11.5 26t35.5 9h122q80 0 126 5q4 -15 4 -31q0 -36 -45 -36h-60v-180q0 -74 14 -117q-36 -10 -53 -10q-30 0 -40 11t-10 35v261q-63 0 -98 -4q-7 17 -7 31zM424 647q37 10 56 10q40 0 59 -34q49 -86 87 -210q36 115 88 210q19 34 61 34q22 0 55 -14 q-10 -41 -10 -96v-146q0 -63 13 -107q-30 -10 -52 -10q-30 0 -40.5 11t-10.5 35q0 61 0.5 95.5t0.5 64.5q-44 -131 -62 -197q-19 -8 -37 -8q-38 0 -49 24q-13 27 -38 104t-27 81v-93q0 -63 13 -107q-30 -10 -47 -10q-30 0 -40.5 11t-10.5 35q0 23 0.5 91.5t0.5 129.5 q0 49 -10 96z" />
<glyph unicode="&#xe000;" horiz-adv-x="485" d="M0 0v485h485v-485h-485z" />
<glyph unicode="&#xfb01;" horiz-adv-x="568" d="M4 431q0 21 11 29t31 12q18 2 38 2v8q0 67 19 115t51.5 72.5t69 35.5t79.5 11q182 0 182 -84q0 -53 -92 -53q-12 27 -41.5 45t-66.5 18q-45 0 -71 -29t-26 -106v-33h195q24 4 52 4q72 0 72 -53q0 -6 -2.5 -40.5t-5.5 -85.5t-3 -97q0 -134 26 -195q-25 -11 -57 -11 q-44 0 -59.5 18t-15.5 61q0 16 1 77.5t1 94.5q0 83 -3 153l-201 1v-197q0 -132 19 -196q-22 -10 -51 -10q-42 0 -57.5 12.5t-15.5 41.5q0 24 0.5 144t0.5 204q-13 0 -76 -6q-4 16 -4 37z" />
<glyph unicode="&#xfb02;" horiz-adv-x="598" d="M4 431q0 21 11 29t31 12q18 2 39 2q2 125 43 183.5t145 58.5q40 0 67 -13.5t27 -37.5q0 -27 -37 -57q-36 33 -75 33q-28 0 -46 -22q-21 -29 -21 -111v-34q84 0 128 5q5 -11 5 -32q0 -25 -12 -34.5t-38 -10.5q-29 -1 -83 -1v-198q0 -132 19 -196q-22 -10 -51 -10 q-42 0 -57.5 12.5t-15.5 41.5q0 54 1 166.5t1 182.5q-14 0 -77 -6q-4 16 -4 37zM408 738q28 5 52 5q71 0 71 -55q0 -6 -2.5 -46.5t-5.5 -116.5t-3 -169q0 -192 4 -247t23 -100q-29 -13 -59 -13q-43 0 -58 18.5t-15 62.5q2 188 2 276q0 303 -9 385z" />
<glyph unicode="&#xfb03;" horiz-adv-x="878" d="M4 431q0 21 11 29t31 12q18 2 39 2q2 125 43 183.5t145 58.5q40 0 67 -13.5t27 -37.5q0 -27 -37 -57q-36 33 -75 33q-28 0 -46 -22q-21 -29 -21 -111v-34h205q1 133 63 187.5t156 54.5q182 0 182 -84q0 -53 -92 -53q-12 27 -41.5 45t-66.5 18q-45 0 -71 -29t-26 -106v-33 h195q24 4 52 4q72 0 72 -53q0 -6 -3 -40.5t-5.5 -85.5t-2.5 -97q0 -134 26 -195q-25 -11 -57 -11q-44 0 -59.5 18t-15.5 61q0 16 1 77.5t1 94.5q0 83 -3 153l-201 1v-197q0 -132 19 -196q-22 -10 -51 -10q-42 0 -57.5 12.5t-15.5 41.5q0 24 0.5 144t0.5 204l-205 1v-198 q0 -132 19 -196q-22 -10 -51 -10q-42 0 -57.5 12.5t-15.5 41.5q0 54 1 166.5t1 182.5q-14 0 -77 -6q-4 16 -4 37z" />
<glyph unicode="&#xfb04;" horiz-adv-x="906" d="M4 431q0 21 11 29t31 12q18 2 39 2q2 125 43 183.5t145 58.5q40 0 67 -13.5t27 -37.5q0 -27 -37 -57q-36 33 -75 33q-28 0 -46 -22q-21 -29 -21 -111v-34h205q2 125 43 183.5t145 58.5q40 0 67 -13.5t27 -37.5q0 -27 -37 -57q-36 33 -75 33q-28 0 -46 -22 q-21 -29 -21 -111v-34q84 0 128 5q5 -11 5 -32q0 -25 -12 -34.5t-38 -10.5q-29 -1 -83 -1v-198q0 -132 19 -196q-22 -10 -51 -10q-42 0 -57.5 12.5t-15.5 41.5q0 54 1 166.5t1 182.5l-205 1v-198q0 -132 19 -196q-22 -10 -51 -10q-42 0 -57.5 12.5t-15.5 41.5q0 54 1 166.5 t1 182.5q-14 0 -77 -6q-4 16 -4 37zM716 738q28 5 52 5q71 0 71 -55q0 -6 -2.5 -46.5t-5.5 -116.5t-3 -169q0 -192 4 -247t23 -100q-29 -13 -59 -13q-43 0 -58 18.5t-15 62.5q2 188 2 276q0 303 -9 385z" />
</font>
</defs>
</svg>
