<?xml version="1.0" standalone="no"?>
<!DOCTYPE svg PUBLIC "-//W3C//DTD SVG 1.1//EN" "http://www.w3.org/Graphics/SVG/1.1/DTD/svg11.dtd" >
<svg xmlns="http://www.w3.org/2000/svg">
<metadata></metadata>
<defs>
<font id="bpreplayregular" horiz-adv-x="625" >
<font-face units-per-em="1000" ascent="800" descent="-200" />
<missing-glyph horiz-adv-x="312" />
<glyph horiz-adv-x="1000" />
<glyph horiz-adv-x="1000" />
<glyph unicode="&#xd;" horiz-adv-x="1000" />
<glyph unicode=" "  horiz-adv-x="312" />
<glyph unicode="&#x09;" horiz-adv-x="312" />
<glyph unicode="&#xa0;" horiz-adv-x="312" />
<glyph unicode="!" horiz-adv-x="228" d="M0 50q0 21 14.5 35.5t35.5 14.5t35.5 -14.5t14.5 -35.5t-14.5 -35.5t-35.5 -14.5t-35.5 14.5t-14.5 35.5zM12 181v544q0 43 37 43q36 0 36 -43v-544q0 -37 -37 -37q-36 0 -36 37z" />
<glyph unicode="&#x22;" horiz-adv-x="339" d="M0 579v147q0 43 37 43q36 0 36 -43v-147q0 -39 -37 -39q-36 0 -36 39zM139 579v147q0 43 38 43t38 -43v-147q0 -39 -39 -39q-37 0 -37 39z" />
<glyph unicode="#" horiz-adv-x="661" d="M0 257q0 17 13.5 25.5t29.5 8.5h80l25 162h-74q-38 0 -38 34q0 31 38 31h82l28 212q4 37 32 37q14 0 24.5 -10t10.5 -23v-4l-30 -212h140l30 212q5 38 32 38q14 0 23.5 -9.5t9.5 -23.5v-5l-28 -212h70q16 0 27.5 -8t11.5 -24q0 -33 -44 -33h-73l-25 -162h72q36 0 36 -34 q0 -16 -12.5 -25t-27.5 -9h-76l-27 -174q-7 -49 -43 -49q-24 0 -24 27q0 1 0.5 4.5t0.5 5.5l27 186h-141l-25 -174q-7 -49 -43 -49q-25 0 -25 27q0 1 0.5 5t0.5 5l27 186h-69q-46 0 -46 34zM188 291h141l24 162h-140z" />
<glyph unicode="$" horiz-adv-x="563" d="M0 568q0 78 56 134.5t133 67.5v38q0 32 21 32t21 -30v-40q46 -1 104 -26t58 -63q0 -35 -34 -35q-11 0 -55 24.5t-73 26.5v-252q91 -30 149.5 -87.5t58.5 -140.5q0 -87 -62 -152t-146 -65q0 -24 1 -49q0 -27 -21 -27q-23 0 -24 30l2 46q-53 4 -111 25t-58 53q0 18 10 29.5 t26 11.5t61.5 -22t71.5 -24v299q-81 21 -135 71.5t-54 124.5zM82 581q0 -44 31.5 -75.5t75.5 -44.5v236q-48 -9 -77.5 -41.5t-29.5 -74.5zM231 69q53 10 89 50t36 93q0 102 -125 144v-287z" />
<glyph unicode="%" horiz-adv-x="826" d="M0 588q0 78 45.5 128.5t121.5 50.5q75 0 120.5 -54t45.5 -131q0 -78 -45 -131t-121 -53q-75 0 -121 56t-46 134zM68 584q0 -51 26 -90t73 -39q48 0 75 37t27 89q0 54 -28 91.5t-74 37.5q-47 0 -73 -37.5t-26 -88.5zM180 19q0 9 3 16l272 698q12 30 39 30q13 0 21.5 -9.5 t8.5 -22.5t-6 -26l-279 -705q-5 -15 -32 -15q-11 0 -19 9.5t-8 24.5zM370 188q0 78 46 129.5t123 51.5q74 0 118.5 -55.5t44.5 -132.5q0 -78 -43.5 -129.5t-119.5 -51.5q-77 0 -123 54.5t-46 133.5zM438 185q0 -53 26 -91t75 -38q48 0 74 36.5t26 87.5t-27 91.5t-73 40.5 q-47 0 -74 -38t-27 -89z" />
<glyph unicode="&#x26;" horiz-adv-x="754" d="M0 208q0 140 176 253q-73 76 -73 151q0 72 46 113.5t107 41.5q59 0 100.5 -39.5t41.5 -113.5q0 -83 -106 -169l188 -214l60 100q22 39 50 39q15 0 24.5 -9t9.5 -23q0 -23 -15 -47l-81 -122l93 -102q9 -11 9 -24q0 -17 -11.5 -30t-26.5 -13q-17 0 -28 10l-92 98 q-86 -129 -222 -129q-115 0 -182.5 64.5t-67.5 164.5zM73 207q0 -66 54.5 -111.5t123.5 -45.5q111 0 181 115l-215 239q-144 -95 -144 -197zM179 626q0 -68 67 -129q81 62 81 126q0 38 -21.5 57.5t-51.5 19.5t-52.5 -19.5t-22.5 -54.5z" />
<glyph unicode="'" horiz-adv-x="273" d="M0 567q0 8 2 14l61 151q15 37 45 37q16 0 28.5 -12t12.5 -29q0 -9 -5 -21l-65 -147q-12 -27 -39 -27q-15 0 -27.5 10t-12.5 24z" />
<glyph unicode="(" horiz-adv-x="305" d="M0 352q0 238 142 393q14 11 28 11t23.5 -9.5t9.5 -22.5q0 -14 -12 -28q-121 -143 -121 -349q0 -103 30 -200.5t94 -163.5q9 -14 9 -27q0 -14 -9 -23t-23 -9q-17 0 -31 14q-71 71 -105.5 183.5t-34.5 230.5z" />
<glyph unicode=")" horiz-adv-x="305" d="M-1 -44q0 14 9 27q64 66 94 163.5t30 200.5q0 206 -121 349q-12 14 -12 28q0 13 9.5 22.5t23.5 9.5t28 -11q142 -155 142 -393q0 -118 -34.5 -230.5t-105.5 -183.5q-14 -14 -31 -14q-14 0 -23 9t-9 23z" />
<glyph unicode="*" d="M135 487q0 13 11 24l103 54l-101 54q-13 12 -13 26q0 11 9 20t21 9q3 0 11 -2l100 -65l-6 117q6 28 30 28q23 0 30 -25l-7 -120l95 61q7 5 18 5t20 -8.5t9 -20.5q0 -15 -15 -27l-104 -52l102 -50q17 -9 17 -27q0 -12 -8.5 -20.5t-21.5 -8.5q-7 0 -15 3l-97 58l7 -107 q0 -16 -9 -24.5t-21 -8.5q-11 0 -20 8t-10 22l5 110l-97 -60q-8 -2 -13 -2q-12 0 -21 8.5t-9 20.5z" />
<glyph unicode="+" d="M25 274q0 41 45 41h182v183q0 20 11 31.5t30 11.5q17 0 29 -12.5t12 -30.5v-183h182q23 0 36 -11t13 -29q0 -44 -49 -44h-182v-189q0 -17 -11.5 -29.5t-28.5 -12.5q-19 0 -30.5 11.5t-11.5 30.5v189h-182q-45 0 -45 43z" />
<glyph unicode="," horiz-adv-x="272" d="M0 -100q0 6 3 13l67 163q14 32 41 32q15 0 26 -10t11 -24q0 -4 -2 -10l-76 -176q-10 -25 -33 -25q-14 0 -25.5 11t-11.5 26z" />
<glyph unicode="-" horiz-adv-x="402" d="M3 276q0 16 12 27.5t32 11.5h206q43 0 43 -39q0 -37 -43 -37h-206q-44 0 -44 37z" />
<glyph unicode="." horiz-adv-x="229" d="M0 50q0 21 14.5 35.5t35.5 14.5t35.5 -14.5t14.5 -35.5t-14.5 -35.5t-35.5 -14.5t-35.5 14.5t-14.5 35.5z" />
<glyph unicode="/" d="M130 19q0 9 3 16l272 698q12 30 39 30q13 0 21.5 -9.5t8.5 -22.5t-6 -26l-279 -705q-5 -15 -32 -15q-11 0 -19 9.5t-8 24.5z" />
<glyph unicode="0" horiz-adv-x="593" d="M1 375q0 65 13.5 130t40.5 126t77 98.5t115 37.5h4q65 0 114.5 -37t76 -97.5t39.5 -125t13 -130.5q0 -64 -13.5 -128.5t-41 -125t-77 -98t-113.5 -37.5q-67 0 -117.5 36t-77.5 95.5t-40 124t-13 131.5zM84 373q0 -49 9.5 -100t28 -99t51.5 -78.5t76 -30.5t76 32t51 81 t26.5 98.5t8.5 94.5q0 52 -8.5 104.5t-26.5 101.5t-50.5 80t-75.5 31q-46 0 -80.5 -32.5t-52 -83.5t-25.5 -101t-8 -98z" />
<glyph unicode="1" horiz-adv-x="370" d="M-2 658q0 32 37 42q149 42 153 42q24 0 32 -20q5 -10 5 -51v-628q0 -19 -11 -31t-29 -12q-19 0 -30 12t-11 31v612l-98 -28q-10 -2 -13 -2q-15 0 -25 9t-10 24z" />
<glyph unicode="2" horiz-adv-x="526" d="M-2 558q0 92 65 149t150 57q82 0 145 -53t63 -135q0 -96 -71 -190l-236 -310h281q37 0 37 -37q0 -39 -38 -39h-331q-55 0 -55 36q0 18 15 37l272 370q44 60 44 126q0 53 -39 85.5t-91 32.5q-53 0 -91 -35.5t-38 -98.5q0 -17 -10.5 -32.5t-29.5 -15.5t-30.5 16.5 t-11.5 36.5z" />
<glyph unicode="3" horiz-adv-x="523" d="M-12 149q0 19 10 29.5t24 10.5q26 0 37 -26q41 -95 131 -95q60 0 102.5 37.5t42.5 104.5q0 53 -30.5 95t-86.5 51q-12 2 -58 2q-46 1 -46 37t45 36q47 0 57 2q42 8 65.5 48t23.5 87q0 56 -32 90t-89 34q-43 0 -74 -29t-31 -71q0 -50 -38 -50q-43 0 -43 53q0 66 55.5 119 t135.5 53q89 0 143.5 -57t54.5 -140q0 -95 -83 -166q56 -35 84.5 -87t28.5 -109q0 -89 -62 -154.5t-164 -65.5q-57 0 -104 25.5t-74 64.5q-25 36 -25 71z" />
<glyph unicode="4" horiz-adv-x="603" d="M-2 236q0 21 13 38l261 421q29 47 77 47q28 0 46 -19.5t18 -52.5v-405h48q37 0 37 -40q0 -35 -33 -35h-52v-143q0 -47 -38 -47q-39 0 -39 47v142h-285q-25 0 -39 13.5t-14 33.5zM92 265h244v393z" />
<glyph unicode="5" horiz-adv-x="545" d="M-7 114q0 17 9.5 26.5t22.5 9.5q19 0 31 -17q24 -31 66 -50.5t83 -19.5q70 0 116 51t46 117q0 68 -43.5 118.5t-121.5 50.5q-28 0 -56.5 -8.5t-42.5 -8.5q-41 0 -41 37q0 9 51 280q7 40 57 40h214q17 0 27 -12.5t10 -30.5q0 -38 -37 -38h-206l-33 -193q33 8 76 8 q107 0 166.5 -69t59.5 -165q0 -101 -65 -176.5t-182 -75.5q-83 0 -145 41.5t-62 84.5z" />
<glyph unicode="6" horiz-adv-x="542" d="M1 255q0 131 71 252t182 221q16 15 34 15t30 -10.5t12 -29.5q0 -13 -11 -24q-62 -58 -118.5 -130.5t-81.5 -123.5q45 53 137 53q83 0 142 -67t59 -169q0 -104 -64 -179t-166 -75q-106 0 -166 78.5t-60 188.5zM79 240q0 -71 41.5 -124.5t110.5 -53.5q69 5 109.5 57 t40.5 120q0 67 -40.5 116t-115.5 49q-71 0 -108.5 -48.5t-37.5 -115.5z" />
<glyph unicode="7" horiz-adv-x="542" d="M-2 701q0 40 46 40h354q19 0 32.5 -13t13.5 -33q0 -12 -6 -27l-265 -627q-18 -41 -48 -41q-35 0 -35 39q0 14 5 24l254 597h-305q-46 0 -46 41z" />
<glyph unicode="8" horiz-adv-x="539" d="M-2 217q0 61 35.5 113.5t89.5 77.5q-97 60 -97 170q0 78 57.5 131t138.5 53q82 0 136.5 -51.5t54.5 -132.5q0 -97 -97 -164q59 -28 93.5 -82t34.5 -118q0 -93 -64 -159.5t-157 -66.5q-100 0 -162.5 64.5t-62.5 164.5zM82 220q0 -65 39 -109t102 -44q61 0 99 44t38 107 q0 64 -39.5 108t-97.5 44q-61 0 -101 -44.5t-40 -105.5zM106 573q0 -53 32.5 -90.5t84.5 -37.5q49 0 77.5 38t28.5 90q0 53 -32 84t-77 31t-79.5 -31t-34.5 -84z" />
<glyph unicode="9" horiz-adv-x="549" d="M-3 517q0 102 62 175.5t174 73.5q106 0 169.5 -77.5t63.5 -196.5q0 -75 -21 -151t-83.5 -172t-161.5 -176q-13 -11 -31 -11q-15 0 -25 9t-10 23q0 22 19 39q68 59 126 133t75 121q-49 -44 -128 -44q-105 0 -167 76t-62 178zM76 512q0 -80 45.5 -127t109.5 -47 q69 0 114 44t45 128q0 71 -41 125t-119 54q-74 0 -114 -54.5t-40 -122.5z" />
<glyph unicode=":" horiz-adv-x="227" d="M0 50q0 21 14.5 35.5t35.5 14.5t35.5 -14.5t14.5 -35.5t-14.5 -35.5t-35.5 -14.5t-35.5 14.5t-14.5 35.5zM0 400q0 21 14.5 35.5t35.5 14.5t35.5 -14.5t14.5 -35.5t-14.5 -35.5t-35.5 -14.5t-35.5 14.5t-14.5 35.5z" />
<glyph unicode=";" horiz-adv-x="272" d="M0 -100q0 6 3 13l67 163q14 32 41 32q15 0 26 -10t11 -24q0 -4 -2 -10l-76 -176q-10 -25 -33 -25q-14 0 -25.5 11t-11.5 26zM50 400q0 21 14.5 35.5t35.5 14.5t35.5 -14.5t14.5 -35.5t-14.5 -35.5t-35.5 -14.5t-35.5 14.5t-14.5 35.5z" />
<glyph unicode="&#x3c;" horiz-adv-x="650" d="M19 279q0 28 35 45l455 212q20 8 34 8q13 0 22 -9t9 -23q0 -25 -33 -41l-412 -198l404 -196q38 -18 38 -43q0 -15 -9 -24t-25 -9q-15 0 -39 11l-444 221q-35 17 -35 46z" />
<glyph unicode="=" d="M26 184q0 37 36 37h470q37 0 37 -36q0 -37 -37 -37h-470q-36 0 -36 36zM26 393q0 35 36 35h470q37 0 37 -38q0 -35 -37 -35h-470q-36 0 -36 38z" />
<glyph unicode="&#x3e;" horiz-adv-x="650" d="M19 512q0 14 9 23t22 9q14 0 34 -8l455 -212q35 -17 35 -45q0 -29 -35 -46l-444 -221q-24 -11 -39 -11q-16 0 -25 9t-9 24q0 25 38 43l404 196l-412 198q-33 16 -33 41z" />
<glyph unicode="?" horiz-adv-x="497" d="M27 580q0 75 54 119t123 44q73 0 124 -47.5t51 -131.5q0 -47 -19.5 -97.5t-55.5 -99.5t-66 -83.5t-71 -75.5q-15 -13 -29 -13q-16 0 -26 10t-10 27q0 15 22 37q54 55 86.5 92.5t62 94.5t29.5 107q0 51 -30.5 78t-72.5 27q-38 0 -66.5 -26t-32.5 -65q-2 -20 -12.5 -31.5 t-24.5 -11.5q-15 0 -25.5 12t-10.5 34zM100 50q0 21 14.5 35.5t35.5 14.5t35.5 -14.5t14.5 -35.5t-14.5 -35.5t-35.5 -14.5t-35.5 14.5t-14.5 35.5z" />
<glyph unicode="@" horiz-adv-x="878" d="M17 361q0 180 101 295t276 115q150 0 243 -87.5t93 -241.5q0 -114 -41.5 -189.5t-106.5 -75.5q-54 0 -100 57q-51 -56 -116 -56q-81 0 -124.5 57t-43.5 137q0 84 46.5 146t128.5 62q53 0 97 -44q5 43 33 43q34 0 34 -48v-207q0 -80 42 -80q38 0 61 49t23 144 q0 122 -76 195t-194 73q-143 0 -224.5 -95.5t-81.5 -246.5q0 -139 84.5 -224.5t209.5 -85.5q166 0 243 86q19 20 37 20q12 0 20 -7t8 -19q0 -21 -13 -35q-52 -58 -134 -84.5t-166 -26.5q-152 0 -255.5 102.5t-103.5 271.5zM269 372q0 -51 27 -88t78 -37q59 0 90 51v174 q-37 40 -79 40q-53 0 -84.5 -42t-31.5 -98z" />
<glyph unicode="A" horiz-adv-x="678" d="M0 35q0 8 4 20l226 640q16 45 58 45t58 -45l234 -640q4 -9 4 -21q0 -34 -34 -34q-27 0 -36 24l-52 128h-344l-41 -114q-14 -38 -45 -38q-32 0 -32 35zM139 228h296l-146 410z" />
<glyph unicode="B" horiz-adv-x="606" d="M0 49v643q0 48 41 48h193q34 0 69 -10t68.5 -29.5t54.5 -55.5t21 -81q0 -54 -32 -98.5t-81 -59.5q69 -11 120 -68t51 -130q0 -90 -62.5 -149t-149.5 -59h-235q-34 0 -46 9t-12 40zM74 73h189q68 0 113.5 35.5t45.5 98.5q0 72 -57.5 113.5t-136.5 41.5h-154v-289zM74 430 h130q65 0 115 30t50 89q0 53 -42.5 85.5t-98.5 32.5h-154v-237z" />
<glyph unicode="C" horiz-adv-x="708" d="M-1 373q0 75 22.5 144.5t64.5 125.5t109.5 90t150.5 34q123 0 211 -82q19 -16 19 -36q0 -18 -10.5 -29t-25.5 -11q-19 0 -31 12q-65 65 -166 65q-84 0 -145.5 -45.5t-89.5 -113.5t-28 -147q0 -126 70.5 -220t193.5 -94q95 0 164 69q11 11 25 11q36 0 36 -37 q0 -23 -15 -37q-95 -83 -214 -83q-82 0 -148.5 32.5t-108 87.5t-63 122.5t-21.5 141.5z" />
<glyph unicode="D" horiz-adv-x="659" d="M0 41v651q0 48 58 48h198q94 0 163.5 -56t102 -139t32.5 -178q0 -147 -88.5 -257t-229.5 -110h-194q-25 0 -33.5 8t-8.5 33zM74 73h157q113 0 178.5 87.5t65.5 206.5q0 79 -25 145.5t-78.5 110.5t-126.5 44h-171v-594z" />
<glyph unicode="E" horiz-adv-x="492" d="M0 45v650q0 45 41 45h304q37 0 37 -37q0 -36 -37 -36h-272v-246h224q37 0 37 -38q0 -35 -37 -35h-224v-275h280q43 0 43 -37q0 -36 -43 -36h-312q-26 0 -33.5 8.5t-7.5 36.5z" />
<glyph unicode="F" horiz-adv-x="453" d="M0 30v662q0 48 41 48h295q37 0 37 -37q0 -36 -37 -36h-262v-264h198q37 0 37 -38q0 -36 -37 -36h-198v-299q0 -30 -38 -30q-36 0 -36 30z" />
<glyph unicode="G" horiz-adv-x="718" d="M0 382q0 80 21.5 150t63 124t107 85t148.5 31q57 0 118.5 -23.5t104.5 -68.5q17 -17 17 -33t-10.5 -29t-28.5 -13q-17 0 -35 16q-78 71 -170 71q-123 0 -188.5 -85t-65.5 -224q0 -79 26.5 -149.5t84.5 -119t137 -48.5q102 0 161 77t59 192q0 14 -4 15h-205q-44 0 -44 36 q0 37 47 37h217q39 0 51.5 -23.5t12.5 -65.5q0 -146 -82.5 -245.5t-216.5 -99.5q-79 0 -143 34.5t-103 91.5t-59.5 125.5t-20.5 141.5z" />
<glyph unicode="H" horiz-adv-x="677" d="M0 36v669q0 37 36 37q37 0 37 -37v-292h413v292q0 37 36 37q38 0 38 -37v-669q0 -36 -38 -36q-36 0 -36 36v303h-413v-303q0 -36 -36 -36q-37 0 -37 36z" />
<glyph unicode="I" horiz-adv-x="191" d="M0 37v668q0 37 36 37q37 0 37 -37v-668q0 -37 -37 -37q-36 0 -36 37z" />
<glyph unicode="J" horiz-adv-x="431" d="M0 65q0 38 34 38q8 0 42 -23t73 -23q43 0 67 24.5t24 67.5v556q0 37 37 37q38 0 38 -37v-556q0 -74 -46.5 -118t-120.5 -44q-80 0 -136 50q-12 11 -12 28z" />
<glyph unicode="K" horiz-adv-x="593" d="M0 32v679q0 31 36 31q38 0 38 -31v-365l349 385q8 9 23 9q16 0 28.5 -12.5t12.5 -27.5q0 -14 -10 -23l-215 -235l232 -377q12 -11 12 -29q0 -16 -13.5 -26.5t-23.5 -10.5q-19 0 -34 17l-227 371l-134 -141v-214q0 -32 -36 -32q-38 0 -38 32z" />
<glyph unicode="L" horiz-adv-x="514" d="M0 57v648q0 37 36 37q37 0 37 -37v-632h321q37 0 37 -36q0 -37 -37 -37h-345q-49 0 -49 57z" />
<glyph unicode="M" horiz-adv-x="908" d="M0 35q0 8 1 12l99 622q12 75 64 75q51 0 70 -67l164 -545l168 545q20 65 72 65t62 -73l93 -624q0 -1 0.5 -4t0.5 -4q0 -16 -10.5 -26t-26.5 -10q-34 0 -40 40l-85 607l-195 -605q-13 -43 -41 -43t-41 43l-188 606l-92 -607q-6 -41 -40 -41q-35 0 -35 34z" />
<glyph unicode="N" horiz-adv-x="668" d="M0 38v660q0 44 36 44q28 0 52 -36l390 -574v571q0 38 36 38q37 0 37 -38v-659q0 -44 -36 -44q-29 0 -50 30l-392 572v-564q0 -38 -36 -38q-37 0 -37 38z" />
<glyph unicode="O" horiz-adv-x="747" d="M0 379q0 74 20.5 142t58.5 123t100 88t139 33q103 0 178 -57.5t110 -144t35 -187.5q0 -100 -35 -186t-110 -143t-178 -57q-101 0 -175 57.5t-108.5 144.5t-34.5 187zM77 381q0 -83 26.5 -154t83 -118t133.5 -47q78 0 135 46t82.5 114.5t25.5 150.5q0 129 -64.5 223 t-180.5 94q-77 0 -133.5 -45.5t-82 -114t-25.5 -149.5z" />
<glyph unicode="P" horiz-adv-x="606" d="M0 37v664q0 40 41 40h212q104 0 174.5 -63.5t70.5 -163.5q0 -94 -70 -158.5t-169 -64.5h-186v-254q0 -37 -36 -37q-37 0 -37 37zM73 364h182q71 0 119 41.5t48 109.5q0 71 -50.5 112t-132.5 41h-166v-304z" />
<glyph unicode="Q" horiz-adv-x="758" d="M0 379q0 74 20.5 142t58.5 123t100 88t139 33q103 0 178 -57.5t110 -144t35 -187.5q0 -135 -63 -238q8 -9 68 -75q11 -13 11 -27t-9 -24.5t-25 -10.5q-14 0 -23 9l-69 70q-94 -90 -213 -90q-101 0 -175 57.5t-108.5 144.5t-34.5 187zM78 381q0 -83 26.5 -154t83 -118 t133.5 -47q97 0 166 69l-56 52q-14 14 -14 29q0 18 12 30.5t28 12.5q15 0 26 -11l48 -48q33 71 33 177q0 129 -64.5 223t-180.5 94q-77 0 -133.5 -45.5t-82 -114t-25.5 -149.5z" />
<glyph unicode="R" horiz-adv-x="615" d="M0 45v656q0 40 57 40h230q106 0 167 -62t61 -146q0 -65 -39.5 -118.5t-114.5 -73.5l140 -274q9 -18 9 -35q0 -33 -32 -33q-24 0 -34 20l-161 306h-210v-280q0 -45 -36 -45q-37 0 -37 45zM73 398h222q69 0 106.5 38.5t37.5 93.5t-38.5 96.5t-105.5 41.5h-222v-270z" />
<glyph unicode="S" horiz-adv-x="548" d="M0 82q0 34 34 34q17 0 35 -12q62 -38 133 -38t116 33t45 101q0 21 -11 40t-36.5 37.5t-45 30t-57.5 31.5q-51 27 -76 41.5t-62 42.5t-53.5 59t-16.5 68q0 95 64 151t161 56q85 0 170 -46q28 -16 28 -46q0 -16 -10 -27.5t-25 -11.5q-10 0 -38 18q-56 35 -141 35 q-51 0 -89 -36.5t-38 -88.5q0 -13 4 -25t15.5 -24.5t20 -20.5t29.5 -20.5t30.5 -18t36 -19.5t35.5 -19q34 -19 46 -25.5t41 -24.5t41 -31t28.5 -32.5t23 -41.5t6.5 -47q0 -104 -68.5 -160.5t-176.5 -56.5q-95 0 -172 50q-27 18 -27 44z" />
<glyph unicode="T" horiz-adv-x="531" d="M0 704q0 37 40 37h369q38 0 38 -37q0 -36 -38 -36h-148v-626q0 -42 -36 -42q-38 0 -38 42v626h-147q-40 0 -40 36z" />
<glyph unicode="U" horiz-adv-x="682" d="M0 285v413q0 43 41 43q40 0 40 -43v-405q0 -223 208 -223q93 0 145 50t52 173v405q0 43 41 43t41 -43v-413q0 -80 -23 -139t-64 -92.5t-91 -49t-110 -15.5q-126 0 -203 70.5t-77 225.5z" />
<glyph unicode="V" horiz-adv-x="660" d="M0 707q0 36 38 36q28 0 39 -30l206 -589l204 589q11 29 35 29q16 0 30 -12.5t14 -28.5q0 -6 -3 -12l-223 -627q-23 -62 -57 -62q-31 0 -51 53l-229 636q-3 9 -3 18z" />
<glyph unicode="W" horiz-adv-x="905" d="M0 705q0 17 11 27t27 10q33 0 39 -37l103 -605l170 604q11 38 53 38q41 0 52 -38l165 -603l100 602q6 41 41 41q16 0 27.5 -11t11.5 -28q0 -6 -1 -9l-116 -645q-4 -23 -22 -37t-41 -14q-48 0 -61 46l-158 579l-157 -563q-9 -32 -27 -48t-39 -16q-22 0 -40 16t-23 43 l-114 639q-1 3 -1 9z" />
<glyph unicode="X" horiz-adv-x="662" d="M0 28q0 16 12 34l222 345l-196 276q-9 13 -9 25q0 15 10 24.5t25 9.5q20 0 33 -18l183 -251l161 250q12 18 31 18q14 0 25 -10.5t11 -25.5q0 -12 -8 -23l-180 -266l234 -352q14 -22 14 -37q0 -28 -29 -28q-22 0 -38 22l-225 327l-209 -326q-15 -23 -38 -23q-29 0 -29 29z " />
<glyph unicode="Y" horiz-adv-x="568" d="M0 707q0 35 33 35q19 0 31 -21l175 -292l171 290q14 23 36 23q33 0 33 -32q0 -10 -6 -21l-201 -341v-305q0 -43 -37 -43q-38 0 -38 43v305l-190 333q-7 13 -7 26z" />
<glyph unicode="Z" horiz-adv-x="600" d="M0 42q0 22 11 39l389 587h-348q-38 0 -38 36q0 37 38 37h402q50 0 50 -32q0 -18 -20 -49l-389 -587h383q39 0 39 -35q0 -38 -39 -38h-443q-35 0 -35 42z" />
<glyph unicode="[" horiz-adv-x="270" d="M0 -13v722q0 49 41 49h73q32 0 32 -36q0 -30 -31 -30h-42v-690h42q31 0 31 -30q0 -34 -32 -34h-73q-41 0 -41 49z" />
<glyph unicode="\" horiz-adv-x="474" d="M0 724q0 15 11 23.5t28 8.5q14 0 21 -9t16 -30l272 -682q2 -6 2 -11q0 -13 -9.5 -22t-23.5 -9q-29 0 -43 34l-271 682q-3 7 -3 15z" />
<glyph unicode="]" horiz-adv-x="270" d="M0 -25q0 27 26 27h47v683q-3 0 -17 -0.5t-25 -0.5q-31 0 -31 32q0 34 31 34h75q40 0 40 -49v-714q0 -49 -40 -49h-75q-31 0 -31 37z" />
<glyph unicode="^" d="M29 300q0 14 9 31l223 394q13 25 41 25t41 -25l215 -394q8 -16 8 -30q0 -34 -37 -34q-25 0 -47 40l-180 337l-190 -337q-13 -23 -21 -31.5t-23 -8.5q-16 0 -27.5 8.5t-11.5 24.5z" />
<glyph unicode="_" horiz-adv-x="533" d="M-37 -95q0 33 37 33h499q39 0 39 -34q0 -32 -39 -32h-499q-37 0 -37 33z" />
<glyph unicode="`" horiz-adv-x="273" d="M-1 552q0 9 4 17l67 156q13 28 38 28q18 0 29.5 -9.5t11.5 -26.5q0 -4 -2 -10l-68 -154q-15 -35 -36 -35q-19 0 -31.5 10t-12.5 24z" />
<glyph unicode="a" horiz-adv-x="557" d="M5 159q0 83 63.5 130t148.5 47q101 0 151 -50v95q0 52 -40 83.5t-110 31.5q-37 0 -82 -12t-56 -12q-34 0 -34 31q0 24 28 36q73 30 166 30q96 0 149.5 -51t53.5 -130v-359q0 -15 -10 -26t-27 -11q-18 0 -27 12t-10 23.5t-1 34.5q-65 -70 -171 -70q-79 0 -135.5 43.5 t-56.5 123.5zM80 165q0 -51 37.5 -77t92.5 -26q61 0 109 30t48 79q0 43 -45.5 69.5t-104.5 26.5q-57 0 -97 -26.5t-40 -75.5z" />
<glyph unicode="b" horiz-adv-x="576" d="M0 30v711q0 39 37 39t37 -39v-283q16 47 65 81t100 34q109 0 171 -89t62 -207q0 -75 -25 -139.5t-79.5 -107t-128.5 -42.5q-54 0 -99 26t-66 73v-58q0 -18 -11 -29t-27 -11q-36 0 -36 41zM78 279q0 -89 42.5 -155t123.5 -66q40 0 70 19.5t47 51.5t25.5 69t8.5 77 q0 54 -14 103t-49.5 86t-87.5 37q-81 0 -123.5 -67t-42.5 -155z" />
<glyph unicode="c" horiz-adv-x="520" d="M0 278q0 124 77 203t187 79q71 0 119 -22q34 -15 34 -36q0 -17 -9 -27.5t-24 -10.5q-4 0 -10 2q-54 23 -109 23q-81 0 -135 -60t-54 -156q0 -88 56.5 -150.5t135.5 -62.5q62 0 112 34q5 4 13 4q11 0 20.5 -9.5t9.5 -22.5q0 -18 -24 -37q-61 -40 -133 -40 q-113 0 -189.5 83t-76.5 206z" />
<glyph unicode="d" horiz-adv-x="582" d="M0 273q0 75 25 141.5t79 112.5t128 46q49 0 95.5 -24.5t67.5 -68.5v262q0 39 38 39q36 0 36 -39v-723q0 -33 -36 -33q-38 0 -38 34v67q-64 -100 -163 -100q-111 0 -171.5 84t-60.5 202zM77 272q0 -89 40.5 -153.5t113.5 -64.5q66 0 116 61.5t50 161.5q0 101 -48.5 162 t-113.5 61q-74 0 -116 -68t-42 -160z" />
<glyph unicode="e" horiz-adv-x="604" d="M0 280q0 118 65.5 206t176.5 88q109 0 170 -69t61 -181q0 -44 -11.5 -62.5t-44.5 -18.5h-338q0 -67 56 -124t123 -57q43 0 73 11t63 40q20 18 43 18q33 0 33 -34q0 -13 -7 -20q-71 -89 -205 -89q-119 0 -188.5 84t-69.5 208zM80 315h319q0 79 -42 132t-112 53 q-71 0 -118 -54.5t-47 -130.5z" />
<glyph unicode="f" horiz-adv-x="344" d="M0 515q0 39 41 39h47q0 92 34 140t112 48q44 0 44 -35q0 -33 -44 -33q-41 0 -57 -29t-16 -91q32 0 64 1q41 0 41 -38q0 -39 -43 -39h-62v-442q0 -36 -37 -36q-36 0 -36 36v443h-47q-41 0 -41 36z" />
<glyph unicode="g" horiz-adv-x="585" d="M0 282q0 119 65 205t179 86q46 0 92.5 -28t62.5 -66v64q0 33 36 33q38 0 38 -35v-503q0 -125 -70.5 -194.5t-169.5 -69.5q-105 0 -176 45q-20 13 -20 37q0 16 10 27.5t26 11.5q12 0 38 -15q56 -31 119 -31q73 0 121 46t48 134v51q-18 -46 -61.5 -68.5t-93.5 -22.5 q-114 0 -179 86.5t-65 206.5zM77 283q0 -105 49.5 -165t115.5 -60t113 58.5t47 163.5q0 103 -48.5 161.5t-114.5 58.5q-65 0 -113.5 -57.5t-48.5 -159.5z" />
<glyph unicode="h" horiz-adv-x="526" d="M0 36v706q0 39 36 39q37 0 37 -39v-256q49 86 147 86q77 0 137.5 -54t60.5 -136v-346q0 -36 -37 -36q-36 0 -36 36v314q0 71 -39.5 110.5t-94.5 39.5q-56 0 -97 -40t-41 -110v-314q0 -36 -37 -36q-36 0 -36 36z" />
<glyph unicode="i" horiz-adv-x="230" d="M0 735q0 21 14.5 35.5t35.5 14.5t35.5 -14.5t14.5 -35.5t-14.5 -35.5t-35.5 -14.5t-35.5 14.5t-14.5 35.5zM15 37v494q0 37 37 37q39 0 39 -37v-494q0 -37 -38 -37t-38 37z" />
<glyph unicode="j" horiz-adv-x="210" d="M-104 -205q0 33 44 33q46 0 59.5 27t13.5 93v583q0 36 38 36q37 0 37 -36v-583q0 -95 -32 -141.5t-116 -46.5q-44 0 -44 35zM0 735q0 21 14.5 35.5t35.5 14.5t35.5 -14.5t14.5 -35.5t-14.5 -35.5t-35.5 -14.5t-35.5 14.5t-14.5 35.5z" />
<glyph unicode="k" horiz-adv-x="512" d="M-1 36v707q0 37 38 37q37 0 37 -37v-465l285 269q11 9 25 9q16 0 27 -9.5t11 -24.5t-21 -36l-160 -150q21 -30 85.5 -120.5t98.5 -138.5q16 -27 16 -42q0 -18 -10 -27.5t-24 -9.5q-25 0 -38 22l-186 265l-109 -99v-150q0 -36 -38 -36q-37 0 -37 36z" />
<glyph unicode="l" horiz-adv-x="205" d="M0 37v707q0 38 36 38q38 0 38 -38v-707q0 -37 -37 -37t-37 37z" />
<glyph unicode="m" horiz-adv-x="841" d="M0 38v482q0 44 37 44t37 -41v-39q20 40 60.5 64.5t84.5 24.5q49 0 90.5 -29t60.5 -76q24 47 72 76t104 29q78 0 132.5 -50t54.5 -127v-358q0 -36 -37 -36q-38 0 -38 36v326q0 56 -31.5 94t-84.5 38q-62 0 -101 -46t-39 -111v-301q0 -37 -36 -37q-37 0 -37 37v326 q0 56 -32 93t-85 37q-62 0 -100.5 -45t-38.5 -110v-301q0 -37 -36 -37q-37 0 -37 37z" />
<glyph unicode="n" horiz-adv-x="527" d="M0 36v488q0 39 36 39q37 0 37 -39v-38q48 87 150 87q77 0 136 -53t59 -138v-346q0 -36 -37 -36q-36 0 -36 36v314q0 71 -39.5 110.5t-94.5 39.5q-56 0 -97 -40t-41 -110v-314q0 -36 -37 -36q-36 0 -36 36z" />
<glyph unicode="o" horiz-adv-x="590" d="M0 281q0 120 64.5 206t177.5 86q76 0 132.5 -44.5t83 -111t26.5 -143.5q0 -119 -64.5 -202t-177.5 -83t-177.5 86t-64.5 206zM78 288q0 -88 42.5 -159t121.5 -71q80 0 122.5 62t42.5 148q0 54 -17 105.5t-56 89.5t-92 38q-81 0 -122.5 -63t-41.5 -150z" />
<glyph unicode="p" horiz-adv-x="576" d="M0 -189v723q0 39 37 39t37 -39v-76q16 47 65 81t100 34q109 0 171 -89t62 -207q0 -75 -25 -139.5t-79.5 -107t-128.5 -42.5q-54 0 -99 26t-66 73v-277q0 -18 -11 -29t-27 -11q-36 0 -36 41zM80 277q0 -89 42.5 -155t123.5 -66q40 0 70 19.5t47 51.5t25.5 69t8.5 77 q0 54 -14 103t-49.5 86t-87.5 37q-81 0 -123.5 -67t-42.5 -155z" />
<glyph unicode="q" horiz-adv-x="581" d="M0 273q0 75 25 141.5t79 112.5t128 46q49 0 95.5 -24.5t67.5 -68.5v54q0 39 38 39q36 0 36 -39v-731q0 -33 -36 -33q-38 0 -38 34v283q-64 -100 -163 -100q-111 0 -171.5 84t-60.5 202zM76 273q0 -89 40.5 -153.5t113.5 -64.5q66 0 116 61.5t50 161.5q0 101 -48.5 162 t-113.5 61q-74 0 -116 -68t-42 -160z" />
<glyph unicode="r" horiz-adv-x="419" d="M0 36v488q0 39 36 39q37 0 37 -39v-48q27 48 74 72.5t101 24.5q37 0 55 -13.5t18 -32.5q0 -16 -11 -27.5t-28 -11.5q-13 0 -31.5 3.5t-36.5 3.5q-50 0 -95.5 -44.5t-45.5 -100.5v-314q0 -36 -37 -36q-36 0 -36 36z" />
<glyph unicode="s" horiz-adv-x="504" d="M8 78q0 41 33 41q13 0 29 -11q68 -45 138 -45q48 0 85.5 21.5t37.5 65.5q0 55 -115 96q-43 16 -71 28.5t-62 32.5t-51 45.5t-17 55.5q0 80 57.5 121.5t143.5 41.5q89 0 155 -36q19 -10 19 -35q0 -17 -9.5 -26t-24.5 -9q-12 0 -22 6q-45 26 -120 26q-50 0 -85 -19.5 t-35 -60.5q0 -10 4 -18.5t13.5 -16.5t18.5 -14t26 -14t27.5 -12.5t32 -13t31.5 -12.5q33 -14 50 -21.5t43 -23t39 -30t23.5 -36.5t10.5 -48q0 -85 -61 -126.5t-146 -41.5q-92 0 -185 59q-13 9 -13 30z" />
<glyph unicode="t" horiz-adv-x="388" d="M0 520q0 33 31 33h37v82q0 36 36 36q37 0 37 -36v-82h88q39 0 39 -34t-37 -34h-90v-306q0 -67 13.5 -93.5t59.5 -26.5q44 0 44 -33q0 -35 -44 -35q-84 0 -115 46.5t-31 141.5v307h-32q-36 0 -36 34z" />
<glyph unicode="u" horiz-adv-x="529" d="M1 210v313q0 37 36 37q37 0 37 -37l1 -281q0 -55 10 -93t29 -56.5t40 -25.5t48 -7q62 0 109.5 59t47.5 158v250q0 39 34 39q36 0 36 -39v-508q0 -33 -36 -33q-38 0 -38 34v67q-63 -104 -162 -104q-82 0 -137 55.5t-55 171.5z" />
<glyph unicode="v" horiz-adv-x="509" d="M0 521q0 16 10.5 25.5t26.5 9.5q29 0 43 -44l125 -382l127 383q15 43 45 43q35 0 35 -35q0 -9 -3 -16l-163 -475q-10 -30 -44 -30q-30 0 -40 30l-159 474q-3 9 -3 17z" />
<glyph unicode="w" horiz-adv-x="869" d="M0 515q0 40 37 40q30 0 42 -31l125 -399l135 394q12 35 45 35q16 0 31.5 -9.5t19.5 -25.5l128 -390l122 396q10 31 42 31q33 0 33 -38q0 -10 -5 -25q0 -11 -150 -455q-13 -37 -45 -37q-30 0 -43 40l-134 393l-129 -396q-12 -38 -48 -38t-50 41q-156 463 -156 474z" />
<glyph unicode="x" horiz-adv-x="551" d="M0 33q0 20 17 43l164 223l-142 190q-11 16 -11 29q0 15 11.5 25.5t26.5 10.5q24 0 39 -22l122 -175l124 176q15 22 38 22q16 0 27.5 -10t11.5 -25t-12 -30l-147 -185l166 -225q19 -25 19 -47q0 -33 -32 -33q-28 0 -50 31l-150 208l-150 -209q-19 -28 -43 -28 q-29 0 -29 31z" />
<glyph unicode="y" horiz-adv-x="522" d="M0 517q0 37 35 37q32 0 43 -35l132 -408l137 413q10 31 42 31q36 0 36 -36q0 -15 -3 -23l-247 -690q-11 -33 -45 -33t-34 36q0 11 4 22l68 176l-163 486q-5 15 -5 24z" />
<glyph unicode="z" horiz-adv-x="528" d="M0 35q0 19 18 44l280 402h-248q-37 0 -37 37q0 36 37 36h305q45 0 45 -30q0 -21 -21 -51l-282 -402h282q37 0 37 -35q0 -36 -37 -36h-321q-58 0 -58 35z" />
<glyph unicode="{" horiz-adv-x="391" d="M0 351q0 5 1.5 9t5 7t6 5.5t8.5 5t9 3.5l10.5 3.5t9.5 3.5q54 22 54 156q0 39 -4 84q0 71 35 96.5t100 25.5q13 0 22.5 -10t9.5 -21q0 -26 -43 -26q-56 0 -56 -76q0 -14 2 -41.5t2 -38.5q0 -143 -84 -189q83 -30 83 -181q0 -16 -1 -44t-1 -39q0 -38 13.5 -60t51.5 -23 q33 -1 33 -26q0 -29 -32 -29q-81 0 -109.5 30.5t-28.5 81.5q0 15 2 50t2 54q0 132 -51 156q-3 1 -11.5 2.5t-12 2.5t-10 3.5t-9 5t-5 7.5t-2.5 12z" />
<glyph unicode="|" horiz-adv-x="197" d="M0 19v755q0 43 37 43q36 0 36 -43v-755q0 -37 -37 -37q-36 0 -36 37z" />
<glyph unicode="}" horiz-adv-x="391" d="M0 -25q0 25 33 26q38 1 51.5 23t13.5 60q0 11 -1 39t-1 44q0 151 83 181q-84 46 -84 189q0 11 2 38.5t2 41.5q0 76 -56 76q-43 0 -43 26q0 11 10 21t22 10q65 0 100 -25.5t35 -96.5q-4 -45 -4 -84q0 -134 54 -156q2 -1 9.5 -3.5l10.5 -3.5t9 -3.5t8.5 -5t6 -5.5t5 -7 t1.5 -9q0 -7 -2.5 -12t-5 -7.5t-9 -5t-10 -3.5t-12 -2.5t-11.5 -2.5q-51 -24 -51 -156q0 -19 2 -54t2 -50q0 -51 -28.5 -81.5t-109.5 -30.5q-32 0 -32 29z" />
<glyph unicode="~" horiz-adv-x="613" d="M0 227q0 35 46 76t90 41q45 0 115.5 -38t95.5 -38q23 0 39 19t31.5 37.5t36.5 18.5q35 0 35 -44q0 -33 -50.5 -73t-96.5 -40q-40 0 -105.5 37.5t-98.5 37.5q-30 0 -57 -36q-29 -39 -48 -39q-33 0 -33 41z" />
<glyph unicode="&#xa3;" horiz-adv-x="676" d="M0 383q0 38 37 38h90q-54 77 -54 154q0 87 63 132.5t153 45.5q92 0 165 -50.5t79 -135.5q0 -17 -10.5 -29t-25.5 -12q-26 0 -39 31q-8 57 -57 90t-109 33q-55 0 -93 -29t-38 -82q0 -69 47 -148h134q36 0 36 -37q0 -36 -36 -36h-115q16 -45 16 -87q0 -97 -100 -185h372 q37 0 37 -38q0 -36 -37 -36h-437q-41 0 -41 35q0 21 33 55q46 49 69.5 89.5t23.5 90.5q0 36 -12 76h-114q-37 0 -37 35z" />
<glyph unicode="&#xa4;" horiz-adv-x="801" d="M35 39q0 23 30 49l98 79q-15 37 -15 87q0 55 21 99l-104 84q-30 25 -30 49q0 13 10 20t23 7q16 0 38 -17l104 -87q56 51 134 51q75 0 132 -48l101 84q20 17 38 17q13 0 23 -7t10 -20q0 -25 -30 -49l-97 -78q26 -47 26 -105q0 -51 -18 -95l89 -71q30 -24 30 -49 q0 -13 -10 -20t-23 -7q-20 0 -38 17l-86 71q-58 -61 -144 -61q-90 0 -148 67l-93 -77q-18 -17 -38 -17q-13 0 -23 7t-10 20zM213 253q0 -72 39.5 -112t94.5 -40t95 39.5t40 112.5q0 68 -41 107t-96 39t-93.5 -37.5t-38.5 -108.5z" />
<glyph unicode="&#xa5;" horiz-adv-x="616" d="M0 719q0 15 10 25t23 10q19 0 31 -21l181 -304l181 304q12 21 34 21q32 0 32 -31q0 -13 -9 -30l-125 -211h81q43 0 43 -38q0 -37 -43 -37h-126l-35 -59v-41h130q44 0 44 -38q0 -37 -44 -37h-130v-197q0 -42 -37 -42q-38 0 -38 42v197h-130q-43 0 -43 36q0 16 11.5 27.5 t31.5 11.5h130v41l-34 59h-119q-44 0 -44 36q0 16 12 27.5t32 11.5h76l-119 211q-7 13 -7 26z" />
<glyph unicode="&#xa6;" horiz-adv-x="197" d="M0 36v324q0 21 10 33.5t26 12.5q37 0 37 -37v-333q0 -36 -37 -36q-36 0 -36 36zM0 480v301q0 21 10 33.5t26 12.5t26.5 -10t10.5 -28v-309q0 -37 -37 -37q-36 0 -36 37z" />
<glyph unicode="&#xa7;" horiz-adv-x="537" d="M5 359q0 27 12.5 41t29.5 14q18 0 31.5 -14t13.5 -34q0 -36 32 -61t77.5 -40t91.5 -31.5t78 -48t32 -77.5q0 -80 -58 -123t-143 -43q-83 0 -155 39q-19 10 -19 35q0 17 10.5 27t25.5 10q12 0 22 -6q45 -26 120 -26q50 0 82.5 18.5t32.5 59.5q0 10 -4 18.5t-13 16 t-17.5 13.5t-25 13t-27 11.5t-32 12.5t-31.5 12q-166 65 -166 163zM5 598q0 80 58 123t143 43q83 0 155 -39q19 -10 19 -35q0 -17 -10.5 -27t-25.5 -10q-12 0 -22 6q-45 26 -120 26q-50 0 -82.5 -18.5t-32.5 -59.5q0 -10 4 -18.5t13 -16t17.5 -13.5t25 -13t27 -11.5 t32 -12.5t31.5 -12q166 -65 166 -163q0 -27 -12.5 -41t-29.5 -14q-18 0 -31.5 14t-13.5 34q0 36 -32 61t-77.5 40t-91.5 31.5t-78 48t-32 77.5z" />
<glyph unicode="&#xa8;" horiz-adv-x="410" d="M0 650q0 21 14.5 35.5t35.5 14.5t35.5 -14.5t14.5 -35.5t-14.5 -35.5t-35.5 -14.5t-35.5 14.5t-14.5 35.5zM200 650q0 21 14.5 35.5t35.5 14.5t35.5 -14.5t14.5 -35.5t-14.5 -35.5t-35.5 -14.5t-35.5 14.5t-14.5 35.5z" />
<glyph unicode="&#xa9;" horiz-adv-x="882" d="M0 364q0 165 105.5 271t272.5 106q166 0 271 -107t105 -272q0 -164 -106 -269.5t-272 -105.5t-271 106t-105 271zM77 366q0 -134 84.5 -222.5t218.5 -88.5t217.5 87t83.5 221q0 135 -84.5 224t-218.5 89t-217.5 -88t-83.5 -222zM169 367q0 101 64.5 168.5t153.5 67.5 q45 0 95 -22q28 -14 28 -32q0 -14 -8.5 -24t-20.5 -10q-4 0 -8 2q-44 19 -89 19q-67 0 -108 -47.5t-41 -126.5q0 -65 41 -116t101 -51q37 0 59 9q33 11 36 11q30 0 30 -29q0 -17 -16 -30q-32 -26 -101 -26q-96 0 -156 69.5t-60 167.5z" />
<glyph unicode="&#xab;" horiz-adv-x="456" d="M0 273q0 14 13 34l97 163q8 12 23 12t27 -11t12 -25q0 -9 -5 -17l-97 -155q33 -55 103 -176q2 -6 2 -7q0 -10 -13.5 -18.5t-27.5 -8.5q-16 0 -24 12l-97 163q-13 22 -13 34zM156 273q0 14 11 34l100 163q8 11 25 11q40 0 40 -31q0 -11 -7 -21l-99 -155q8 -11 104 -176 q2 -4 2 -7q0 -10 -13.5 -18.5t-27.5 -8.5q-17 0 -24 12l-100 163q-11 20 -11 34z" />
<glyph unicode="&#xac;" horiz-adv-x="672" d="M0 276q0 16 12 27.5t31 11.5h463q42 0 42 -47v-148q0 -43 -36 -43q-16 0 -28 11.5t-12 31.5v119h-429q-43 0 -43 37z" />
<glyph unicode="&#xad;" horiz-adv-x="32767" />
<glyph unicode="&#xae;" horiz-adv-x="881" d="M0 374q0 164 106 270t271 106t270.5 -107.5t105.5 -271.5q0 -165 -105 -270.5t-271 -105.5q-165 0 -271 107.5t-106 271.5zM73 373q0 -133 87 -222.5t221 -89.5q135 0 217 85.5t82 223.5q0 135 -84 223.5t-219 88.5q-134 0 -219 -88t-85 -221zM225 179v380q0 24 8.5 32.5 t31.5 8.5h147q58 0 100.5 -37t42.5 -91q0 -89 -111 -119q32 -47 59 -89q47 -74 47 -86q0 -30 -40 -30q-25 0 -40 31l-99 174h-81v-174q0 -31 -34 -31q-31 0 -31 31zM290 410h114q36 0 57 18.5t21 46.5t-21.5 48t-56.5 20h-114v-133z" />
<glyph unicode="&#xb0;" horiz-adv-x="320" d="M0 701q0 41 26.5 70.5t72.5 29.5q44 0 72 -29t28 -72q0 -42 -28.5 -71t-71.5 -29t-71 29t-28 72zM50 700q0 -21 13 -35.5t37 -14.5q20 0 34.5 15t14.5 34q0 21 -13.5 36t-35.5 15q-23 0 -36.5 -14.5t-13.5 -35.5z" />
<glyph unicode="&#xb1;" d="M29 362q0 38 41 38h182v159q0 39 38 39q18 0 30.5 -11t12.5 -28v-159h182q23 0 36.5 -11.5t13.5 -29.5q0 -38 -50 -38h-182v-169q0 -17 -12 -27.5t-30 -10.5q-39 0 -39 38v169h-182q-41 0 -41 41zM31 37q0 16 12 27.5t32 11.5h447q43 0 43 -38q0 -37 -43 -37h-447 q-44 0 -44 36z" />
<glyph unicode="&#xb2;" horiz-adv-x="337" d="M-1 639q0 46 32.5 74.5t74.5 28.5q41 0 72.5 -26.5t31.5 -67.5q0 -49 -35 -95l-118 -155h140q19 0 19 -19t-19 -19h-166q-27 0 -27 18q0 10 7 18l136 185q22 30 22 63q0 27 -19.5 43t-45.5 16t-45 -17.5t-19 -49.5q0 -8 -5.5 -16t-14.5 -8q-10 0 -15.5 8.5t-5.5 18.5z " />
<glyph unicode="&#xb3;" horiz-adv-x="312" d="M-6 434q0 20 17 20q14 0 18 -13q21 -47 66 -47q30 0 51 19t21 52q0 26 -15 47t-43 26q-1 0 -14 0.5t-15 0.5q-23 0 -23 18t22 18q1 0 14.5 0.5t14.5 0.5q21 4 32.5 24t11.5 44q0 28 -16 45t-44 17q-22 0 -37.5 -14.5t-15.5 -35.5q0 -25 -19 -25q-21 0 -21 26 q0 33 27.5 59.5t67.5 26.5q45 0 72 -28t27 -70q0 -47 -41 -83q56 -36 56 -98q0 -44 -31 -77t-82 -33q-57 0 -89 45q-12 17 -12 35z" />
<glyph unicode="&#xb5;" horiz-adv-x="528" d="M-1 -199v717q0 37 38 37q37 0 37 -37v-329q0 -53 35 -86.5t87 -33.5q66 0 107 46.5t41 115.5v287q0 37 38 37q37 0 37 -37v-475q0 -43 -37 -43q-18 0 -27 12t-10 24t-1 37q-57 -81 -157 -81q-32 0 -63.5 14.5t-49.5 39.5v-245q0 -37 -38 -37q-37 0 -37 37z" />
<glyph unicode="&#xb6;" horiz-adv-x="575" d="M0 560q0 94 61.5 144t183.5 50h205q14 -1 23.5 -10.5t9.5 -22.5t-9.5 -23t-23.5 -10h-48v-654q0 -14 -10 -24t-24 -10t-23.5 10t-9.5 24v654h-75v-654q0 -14 -10 -24t-24 -10t-23 10t-9 24v364q-89 0 -141.5 45t-52.5 117z" />
<glyph unicode="&#xb7;" horiz-adv-x="229" d="M0 350q0 21 14.5 35.5t35.5 14.5t35.5 -14.5t14.5 -35.5t-14.5 -35.5t-35.5 -14.5t-35.5 14.5t-14.5 35.5z" />
<glyph unicode="&#xbb;" horiz-adv-x="458" d="M0 87q0 5 3 9l104 178l-104 175q-3 5 -3 9q0 10 12 18.5t27 8.5q19 0 28 -15l97 -163q13 -20 13 -34q0 -12 -13 -34l-97 -163q-6 -11 -27 -11q-40 0 -40 22zM155 86q0 6 4 10l105 178l-100 155q-9 15 -9 27q0 29 35 29q22 0 31 -15l101 -163q12 -20 12 -34q0 -15 -12 -34 l-101 -163q-6 -11 -29 -11q-37 0 -37 21z" />
<glyph unicode="&#xbd;" horiz-adv-x="948" d="M-2 683q0 25 28 32q109 31 115 31q18 0 24 -15q4 -8 4 -38v-471q0 -14 -8.5 -23t-21.5 -9q-14 0 -22.5 9t-8.5 23v459l-74 -21q-3 -1 -9 -1q-12 0 -19.5 6.5t-7.5 17.5zM191 23q0 8 2 12l273 705q9 23 34 23q28 0 28 -28q0 -8 -3 -17l-276 -704q-7 -20 -27 -20 q-13 0 -22 8t-9 21zM523 418q0 69 49 112t113 43q61 0 108.5 -40t47.5 -101q0 -72 -54 -143l-177 -232h211q28 0 28 -28q0 -29 -29 -29h-248q-41 0 -41 27q0 12 11 28l204 277q33 46 33 95q0 39 -29.5 63.5t-67.5 24.5q-40 0 -68.5 -26.5t-28.5 -73.5q0 -13 -8 -24.5 t-22 -11.5q-15 0 -23.5 12.5t-8.5 26.5z" />
<glyph unicode="&#x2000;" horiz-adv-x="420" />
<glyph unicode="&#x2001;" horiz-adv-x="840" />
<glyph unicode="&#x2002;" horiz-adv-x="420" />
<glyph unicode="&#x2003;" horiz-adv-x="840" />
<glyph unicode="&#x2004;" horiz-adv-x="280" />
<glyph unicode="&#x2005;" horiz-adv-x="210" />
<glyph unicode="&#x2006;" horiz-adv-x="140" />
<glyph unicode="&#x2007;" horiz-adv-x="140" />
<glyph unicode="&#x2008;" horiz-adv-x="105" />
<glyph unicode="&#x2009;" horiz-adv-x="168" />
<glyph unicode="&#x200a;" horiz-adv-x="46" />
<glyph unicode="&#x2010;" horiz-adv-x="402" d="M3 276q0 16 12 27.5t32 11.5h206q43 0 43 -39q0 -37 -43 -37h-206q-44 0 -44 37z" />
<glyph unicode="&#x2011;" horiz-adv-x="402" d="M3 276q0 16 12 27.5t32 11.5h206q43 0 43 -39q0 -37 -43 -37h-206q-44 0 -44 37z" />
<glyph unicode="&#x2012;" horiz-adv-x="402" d="M3 276q0 16 12 27.5t32 11.5h206q43 0 43 -39q0 -37 -43 -37h-206q-44 0 -44 37z" />
<glyph unicode="&#x2013;" horiz-adv-x="716" d="M0 276q0 16 12 27.5t31 11.5h506q43 0 43 -39q0 -37 -43 -37h-506q-43 0 -43 37z" />
<glyph unicode="&#x2014;" horiz-adv-x="914" d="M0 276q0 16 12 27.5t31 11.5h704q43 0 43 -39q0 -37 -43 -37h-704q-43 0 -43 37z" />
<glyph unicode="&#x2018;" horiz-adv-x="272" d="M0 722q0 14 12 23.5t27 9.5q22 0 31 -20l75 -176q4 -5 4 -12q0 -13 -12.5 -24t-25.5 -11q-27 0 -41 35l-67 163q-3 6 -3 12z" />
<glyph unicode="&#x2019;" horiz-adv-x="272" d="M0 547q0 7 4 12l75 176q9 20 31 20q15 0 27 -9.5t12 -23.5q0 -6 -3 -12l-67 -163q-14 -35 -41 -35q-13 0 -25.5 11t-12.5 24z" />
<glyph unicode="&#x201a;" horiz-adv-x="272" d="M0 -99q0 6 3 12l67 163q13 32 43 32q13 0 24.5 -9.5t11.5 -22.5q0 -7 -4 -12l-75 -176q-9 -20 -31 -20q-15 0 -27 9.5t-12 23.5z" />
<glyph unicode="&#x201c;" horiz-adv-x="435" d="M0 722q0 14 12 23.5t27 9.5q22 0 31 -20l75 -176q4 -5 4 -12q0 -13 -12.5 -24t-25.5 -11q-27 0 -41 35l-67 163q-3 6 -3 12zM170 722q0 14 12 23.5t27 9.5q22 0 31 -20l75 -176q4 -5 4 -12q0 -13 -12.5 -24t-25.5 -11q-27 0 -41 35l-67 163q-3 6 -3 12z" />
<glyph unicode="&#x201d;" horiz-adv-x="435" d="M0 547q0 7 4 12l75 176q9 20 31 20q15 0 27 -9.5t12 -23.5q0 -6 -3 -12l-67 -163q-14 -35 -41 -35q-13 0 -25.5 11t-12.5 24zM170 547q0 7 4 12l75 176q9 20 31 20q15 0 27 -9.5t12 -23.5q0 -6 -3 -12l-67 -163q-14 -35 -41 -35q-13 0 -25.5 11t-12.5 24z" />
<glyph unicode="&#x201e;" horiz-adv-x="434" d="M0 -99q0 6 3 12l67 163q6 13 18 23t26 10q13 0 24 -10t11 -23q0 -7 -4 -12l-75 -176q-9 -20 -31 -20q-15 0 -27 9.5t-12 23.5zM160 -99q0 6 3 12l67 163q5 13 17.5 22.5t26.5 9.5q13 0 24 -9.5t11 -22.5q0 -7 -4 -12l-75 -176q-9 -20 -31 -20q-15 0 -27 9.5t-12 23.5z " />
<glyph unicode="&#x2022;" horiz-adv-x="582" d="M57 345q0 75 48.5 124t123.5 49t123.5 -49t48.5 -124t-48.5 -124.5t-123.5 -49.5t-123.5 49.5t-48.5 124.5z" />
<glyph unicode="&#x2026;" horiz-adv-x="554" d="M0 50q0 21 14.5 35.5t35.5 14.5t35.5 -14.5t14.5 -35.5t-14.5 -35.5t-35.5 -14.5t-35.5 14.5t-14.5 35.5zM170 50q0 21 14.5 35.5t35.5 14.5t35.5 -14.5t14.5 -35.5t-14.5 -35.5t-35.5 -14.5t-35.5 14.5t-14.5 35.5zM330 50q0 21 14.5 35.5t35.5 14.5t35.5 -14.5 t14.5 -35.5t-14.5 -35.5t-35.5 -14.5t-35.5 14.5t-14.5 35.5z" />
<glyph unicode="&#x202f;" horiz-adv-x="168" />
<glyph unicode="&#x2039;" horiz-adv-x="680" d="M0 277q0 28 35 45l455 212q19 8 31 8q35 0 35 -30q0 -27 -34 -43l-412 -198l404 -196q36 -18 36 -46q0 -29 -34 -29q-16 0 -37 9l-444 221q-35 18 -35 47z" />
<glyph unicode="&#x203a;" horiz-adv-x="680" d="M0 515q0 31 35 31q11 0 24 -5l453 -222q44 -23 44 -47q0 -28 -52 -53l-445 -213q-12 -5 -22 -5q-36 0 -36 35q0 28 32 43l404 188l-404 206q-33 17 -33 42z" />
<glyph unicode="&#x205f;" horiz-adv-x="210" />
<glyph unicode="&#x20ac;" horiz-adv-x="780" d="M3 295q0 35 37 35h47q-2 28 -2 43q0 23 1 35h-46q-37 0 -37 35t37 35h56q27 125 114 207t222 82q123 0 211 -82q19 -16 19 -36q0 -18 -10.5 -29t-25.5 -11q-19 0 -31 12q-63 63 -166 63q-98 0 -161.5 -57.5t-86.5 -148.5h348q39 0 39 -36q0 -34 -39 -34h-359 q-1 -10 -1 -28q0 -26 3 -50h256q39 0 39 -36q0 -34 -39 -34h-241q26 -86 88.5 -139.5t154.5 -53.5q96 0 164 68q11 11 25 11q36 0 36 -37q0 -23 -15 -37q-95 -83 -214 -83q-130 0 -214.5 76t-113.5 195h-58q-37 0 -37 35z" />
<glyph unicode="&#x2122;" horiz-adv-x="706" d="M0 737q0 17 18 17h185q19 0 19 -18t-19 -18h-74v-317q0 -25 -18 -25q-19 0 -19 25v317h-74q-18 0 -18 19zM182 397v6l50 327q4 31 31 31t35 -27l82 -288l86 288q9 27 35 27q27 0 31 -31l50 -327v-5q0 -17 -17 -17q-18 0 -21 20l-45 309l-99 -309q-7 -22 -20 -22 q-14 0 -21 22l-95 309l-45 -309q-3 -21 -21 -21q-16 0 -16 17z" />
<glyph unicode="&#xe000;" horiz-adv-x="555" d="M0 0v555h555v-555h-555z" />
</font>
</defs>
</svg>
