<?xml version="1.0" standalone="no"?>
<!DOCTYPE svg PUBLIC "-//W3C//DTD SVG 1.1//EN" "http://www.w3.org/Graphics/SVG/1.1/DTD/svg11.dtd" >
<svg xmlns="http://www.w3.org/2000/svg">
<metadata></metadata>
<defs>
<font id="gladifiltheftegladifilthefte" horiz-adv-x="840" >
<font-face units-per-em="2048" ascent="1638" descent="-410" />
<missing-glyph horiz-adv-x="508" />
<glyph horiz-adv-x="2048" />
<glyph horiz-adv-x="2048" />
<glyph unicode="&#xd;" horiz-adv-x="508" />
<glyph unicode=" "  horiz-adv-x="508" />
<glyph unicode="&#x09;" horiz-adv-x="508" />
<glyph unicode="&#xa0;" horiz-adv-x="508" />
<glyph unicode="!" horiz-adv-x="454" d="M101 223q33 0 53 -23t15 -56l-8 -65q-4 -33 -30 -56t-59 -23h-54q-32 0 -52 23t-16 56l9 65q4 33 30 56t58 23h54zM238 1273q32 0 52 -23t16 -56l-9 -65q-12 -96 -73 -390q-74 -357 -102 -357h-54q-27 0 -9 357q15 294 28 390l8 65q4 33 30 56t59 23h54z" />
<glyph unicode="&#x22;" horiz-adv-x="672" d="M304 1427q-30 -67 -84 -116l-124 -112l5 7l63 87q25 38 28 75h-28q-32 0 -52 23t-16 55l9 66q4 33 30 55q26 23 58 23h54q33 0 53 -23q20 -22 15 -55zM574 1427q-30 -67 -84 -116l-124 -112l5 7l63 87q25 38 28 75h-28q-32 0 -52 23t-16 55l9 66q4 33 30 55q26 23 58 23 h54q33 0 53 -23q20 -22 15 -55z" />
<glyph unicode="&#x26;" horiz-adv-x="1235" d="M1057 0h-156q-99 0 -161 68q-61 68 -49 164l32 245h-341v0h-106q-84 0 -103 -150l-19 -145q-20 -150 64 -150h55q84 0 103 150l18 137h203q1 -21 -1 -42l-6 -45q-13 -96 -92 -164t-178 -68h-157q-99 0 -161 68q-61 68 -49 164l6 45q21 159 182 216q-146 58 -125 216 l43 332q12 96 91 164t179 68h156q99 0 161 -68q61 -68 49 -164l-11 -80h-206l16 129q20 151 -64 151h-55q-84 0 -103 -151l-56 -430q-20 -150 64 -151h447l49 375l211 32l-53 -407h152l-4 -32h-152l-38 -295q-17 -130 63 -156l95 -24z" />
<glyph unicode="'" horiz-adv-x="399" d="M304 1427q-30 -67 -84 -116l-124 -112l5 7l63 87q25 38 28 75h-28q-32 0 -52 23t-16 55l9 66q4 33 30 55q26 23 58 23h54q33 0 53 -23q20 -22 15 -55z" />
<glyph unicode="+" horiz-adv-x="1014" d="M437 647h-350l18 140h350l48 369l1 1h139l-48 -370h349l1 -1l-18 -139h-350l-48 -370h-140z" />
<glyph unicode="," horiz-adv-x="424" d="M162 59q-30 -67 -84 -116l-124 -112l5 8l63 86q25 39 28 75h-28q-32 0 -52 23t-16 56l9 65q4 33 30 56t58 23h54q33 0 53 -23t15 -56z" />
<glyph unicode="-" horiz-adv-x="822" d="M589 429q-4 -33 -30 -56t-59 -23h-454q-32 0 -52 23t-16 56l9 65q4 33 30 56t58 23h454q33 0 53 -23t15 -56z" />
<glyph unicode="." horiz-adv-x="464" d="M154 79q-4 -33 -30 -56t-59 -23h-54q-32 0 -52 23t-16 56l9 65q4 33 30 56t58 23h54q33 0 53 -23t15 -56z" />
<glyph unicode="0" horiz-adv-x="826" d="M446 772q20 151 -64 151h-55q-84 0 -104 -151l-76 -590q-20 -150 64 -150h55q84 0 103 150zM437 955q99 0 161 -68q61 -68 48 -164l-63 -491q-13 -96 -92 -164t-178 -68h-157q-99 0 -161 68q-61 68 -49 164l64 491q13 96 92 164t178 68h157z" />
<glyph unicode="1" horiz-adv-x="544" d="M380 32l-4 -32h-477l4 32h135l103 791l-171 -74l-9 28l404 176l-5 -35v-1l-32 -243v-1l-83 -641h135z" />
<glyph unicode="2" horiz-adv-x="827" d="M269 446q-84 0 -104 -151l-34 -263h136q84 0 104 151l13 104h207l-37 -287h-634l32 246q12 96 91 164q80 67 179 67h105q84 0 104 151l19 144q19 151 -65 151h-37q-84 0 -103 -151l-14 -104h-207l31 232q40 36 101 46q60 10 112 9h172q100 0 161 -68q62 -68 49 -164 l-6 -46q-12 -96 -91 -163q-79 -68 -179 -68h-105z" />
<glyph unicode="3" horiz-adv-x="855" d="M606 391q-21 -158 -181 -216q145 -57 125 -216l-6 -45q-13 -96 -92 -164t-178 -68h-157q-99 0 -161 68q-61 68 -49 164l6 45q3 20 9 41h203l-17 -136q-20 -150 64 -150h55q84 0 103 150l19 145q20 150 -64 150h-140l4 32h140q84 1 104 151l56 430q19 151 -65 151h-55 q-84 0 -103 -151l-18 -136h-207l12 87q12 96 91 164t179 68h156q99 0 161 -68q61 -68 49 -164z" />
<glyph unicode="4" horiz-adv-x="780" d="M322 350l46 350l-395 -350h349zM623 32l-4 -32h-477l4 32h135l37 286h-426l716 635l-6 -45v-1l-31 -233v-1l-42 -323h135l-4 -32h-135l-37 -286h135z" />
<glyph unicode="5" horiz-adv-x="799" d="M338 191q99 0 161 -68q61 -68 49 -164l-6 -45q-13 -96 -92 -164t-178 -68h-157q-99 0 -161 68q-61 68 -49 164l6 45q3 20 10 41h202l-17 -136q-20 -150 64 -150h55q84 0 103 150l19 145q20 150 -64 150h-55h-7v0h-77v0h-207l88 668q4 32 1 56q-3 32 -17 72h664l-36 -284 h-207l17 136q15 114 -51 115v1h-168q5 -19 6 -33q1 -24 -3 -63l-83 -636h190z" />
<glyph unicode="6" horiz-adv-x="846" d="M310 764q-84 0 -103 -151l-56 -430q-20 -151 64 -151h55q84 0 103 151l56 430q20 151 -64 151h-55zM474 955l18 135q19 151 -65 151h-55q-84 0 -103 -151l-39 -297q19 3 34 3h156q99 0 161 -68q61 -68 49 -164l-43 -332q-13 -96 -92 -164t-178 -68h-157q-99 0 -161 68 q-61 68 -49 164l106 809q12 96 91 164t179 68h156q99 0 161 -68q61 -68 49 -164l-11 -86h-207z" />
<glyph unicode="7" horiz-adv-x="777" d="M189 -102q-42 -93 -129 -153q-89 -61 -187 -61h-156l8 3l101 23q57 17 90 61l511 1152h-122v-1q-67 -1 -82 -115l-18 -136h-207l37 284h623z" />
<glyph unicode="8" horiz-adv-x="843" d="M382 327q20 150 -64 150h-55q-84 0 -103 -150l-19 -144q-20 -151 64 -151h55q84 0 103 151zM203 660q-20 -151 64 -151h55q84 0 104 151l56 430q19 151 -65 151h-55q-84 0 -103 -151zM639 709q-21 -158 -181 -216q145 -57 125 -216l-6 -45q-13 -96 -92 -164t-178 -68 h-157q-99 0 -161 68q-61 68 -49 164l6 45q21 159 182 216q-146 58 -125 216l43 332q12 96 91 164t179 68h156q99 0 161 -68q61 -68 49 -164z" />
<glyph unicode="9" horiz-adv-x="861" d="M292 191q83 0 103 149l57 432q19 151 -65 151h-55q-84 0 -103 -151l-56 -430q-20 -151 64 -151h55zM547 -86q-13 -96 -92 -164t-178 -68h-157q-99 0 -161 68q-61 68 -49 164l12 86h206l-17 -136q-20 -150 64 -150h55q84 0 103 150l39 298q-19 -3 -33 -3h-157 q-99 0 -160 68q-62 68 -49 164l43 332q12 96 91 164t179 68h156q99 0 161 -68q61 -68 49 -164z" />
<glyph unicode=":" horiz-adv-x="383" d="M134 79q-4 -33 -30 -56t-59 -23h-54q-32 0 -52 23t-16 56l9 65q4 33 30 56t58 23h54q33 0 53 -23t15 -56zM229 811q-4 -33 -30 -56t-58 -23h-54q-33 0 -53 23t-16 56l9 65q4 33 30 56t58 23h54q33 0 53 -23t16 -56z" />
<glyph unicode=";" horiz-adv-x="383" d="M228 811q-4 -33 -30 -56t-58 -23h-54q-33 0 -53 23t-15 56l8 65q4 33 30 56t59 23h54q32 0 52 -23t16 -56zM143 144q5 33 -15 56t-53 23h-54q-32 0 -58 -23t-30 -56l-9 -65q-4 -33 16 -56t52 -23h28q-3 -36 -28 -75l-63 -86l-5 -8l124 112q54 49 84 116z" />
<glyph unicode="?" horiz-adv-x="817" d="M474 1273q99 0 160 -68q62 -68 49 -164l-26 -204q-11 -79 -68 -142q-57 -61 -136 -82v0q-66 -20 -85 -159l-9 -72h-207l3 23q11 84 76 149q64 64 151 79q45 30 59 138l42 319q20 151 -64 151h-55q-84 0 -104 -151l-38 -294h-203q-1 21 2 41l26 204q13 96 92 164t178 68 h157zM264 223q32 0 52 -23t16 -56l-9 -65q-4 -33 -30 -56t-58 -23h-54q-33 0 -52 23q-20 23 -16 56l8 65q5 33 30 56q26 23 59 23h54z" />
<glyph unicode="A" d="M414 514l75 576q19 151 -65 151h-54q-84 0 -104 -151l-75 -576h223zM677 32l-4 -32h-456l5 32h129l59 450h-223l-63 -482v0l-3 -22q-12 -97 -91 -164q-79 -68 -179 -68h-156l8 2l101 23q87 27 104 157l72 554h-113l4 32h113l9 67q2 17 3 34h2l55 426q12 96 92 164 q79 68 178 68h156q100 0 161 -68q62 -68 49 -164l-131 -1009h119z" />
<glyph unicode="B" horiz-adv-x="846" d="M493 1090q19 143 -55 150v1h-146l-13 -106q-5 -21 -8 -45l-56 -430q-3 -24 -4 -45l-14 -106h146v1q76 7 94 150zM394 327q19 143 -55 150v0h-146l-14 -106q-5 -21 -8 -44l-18 -145q-20 -150 64 -150h55q84 0 103 150zM651 709q-21 -158 -182 -216q146 -57 125 -216 l-5 -45q-13 -96 -92 -164t-179 -68h-531l4 32h135l87 668h1q1 13 0 9l56 426q6 34 3 66q-2 17 -8 40h-117l4 32h359v-1q13 1 17 1h156q99 0 161 -68q61 -68 49 -164z" />
<glyph unicode="C" d="M597 318l-11 -86q-13 -96 -92 -164t-178 -68h-157q-99 0 -161 68q-61 68 -49 164l106 809q12 96 91 164t179 68h156q99 0 161 -68q61 -68 49 -164l-32 -246h-207l39 295q19 151 -65 151h-55q-84 0 -103 -151l-118 -908q-20 -150 64 -150h55q84 0 103 150l18 136h207z" />
<glyph unicode="D" d="M149 182q-20 -150 64 -150h55q23 0 41 11q48 29 62 139l118 908q4 30 4 54q0 6 0 2v12q0 -2 0 3q-1 4 -1 10q-1 3 -1 4q0 4 -1 9l-1 3l-2 8q-1 2 -1 3q-1 3 -3 6q0 2 -1 3q-2 3 -3 6l-2 2q-1 3 -3 5l-2 2q-2 2 -3 4q-1 0 -2 1q-3 3 -5 4l-1 1q-3 2 -5 2l-2 1q-3 2 -5 2 q-7 3 -15 3q-5 1 -9 1h-137l-13 -106q-5 -21 -8 -45zM549 133q-6 -9 -12 -17v0q-25 -34 -59 -60h-1q0 -1 -1 -1q-3 -3 -12 -8l-7 -5q-4 -2 -11 -6l-9 -6q-4 -2 -11 -5q-5 -2 -11 -4l-10 -4t-12 -4l-9 -3q-5 -2 -14 -4q-8 -1 -9 -1q-6 -2 -17 -3q-9 -1 -6 -1q-12 -1 -24 -1 h-531l4 32h135l144 1103q6 34 3 66q-2 17 -8 40h-117l4 32h359v-1q13 1 17 1h156q99 0 161 -68q61 -68 49 -164l-105 -809q-6 -40 -26 -80v0l-10 -18v-1z" />
<glyph unicode="E" d="M477 989l17 136q15 114 -52 115v1h-150l-13 -106q-5 -21 -8 -45l-75 -576h221l-5 -32h-220l-39 -300q-20 -150 64 -150h68v0q68 2 82 116l18 136h207l-37 -284h-768l4 32h135l144 1103q6 34 3 66q-2 17 -8 40h-117l4 32h768l-37 -284h-206z" />
<glyph unicode="F" horiz-adv-x="734" d="M474 989l17 136q15 114 -52 115v1h-150l-13 -106q-5 -21 -8 -45l-75 -576h221l-5 -32h-220l-59 -450h135l-4 -32h-477l4 32h135l144 1103q6 34 3 66q-2 17 -8 40h-117l4 32h768l-37 -284h-206z" />
<glyph unicode="G" horiz-adv-x="849" d="M65 -454q-10 -73 5 -111q15 -39 59 -39h55q84 0 103 150l52 393q4 4 -117 -41q-108 -40 -119 -72q-2 -4 -3 -9zM471 954l17 136q20 151 -64 151h-55q-84 0 -103 -151l-119 -908q-19 -150 65 -150h55q77 0 99 126q1 8 1 12h1l41 307h206l-114 -881q-13 -96 -92 -164 t-178 -68h-157q-99 0 -161 68q-61 68 -49 164l9 64q14 108 82 167q54 46 244 110q94 31 127 43q15 6 20 20h-189q-99 0 -161 68q-61 68 -49 164l105 809q13 96 92 164t178 68h157q14 0 33 -3v3q52 1 110 -9t90 -46l-35 -264h-206z" />
<glyph unicode="H" horiz-adv-x="849" d="M689 32l-4 -32h-413l4 32h71l59 450h-221l-9 -69v0l-50 -381h103l-4 -32h-445l4 32h135l59 450h-126l4 32h126l15 119h-2q3 17 5 34l85 653q17 131 -63 157l-95 23l-7 3h156q99 0 161 -68q61 -68 49 -164l-23 -177h1l-75 -580h221l81 621q6 34 3 66q-2 17 -8 40h-53l4 32 h295v-1q13 1 17 1h83l-4 -32h-115l-13 -106q-5 -21 -8 -45l-138 -1058h135z" />
<glyph unicode="I" horiz-adv-x="426" d="M263 32l-4 -32h-477l4 32h135l87 668v0l57 435q6 34 3 66q-2 17 -8 40h-117l4 32h359v-1q13 1 17 1h83l-4 -32h-115l-13 -106q-5 -21 -8 -45l-138 -1058h135z" />
<glyph unicode="J" horiz-adv-x="414" d="M402 1273l-4 -32h-114l-14 -106q-5 -21 -8 -45l-69 -533q0 -14 -2 -25l-122 -936q-12 -96 -91 -164t-179 -68h-156l8 2l101 23q87 27 104 157l66 510h-1l140 1079q7 34 3 66q-1 17 -7 40h-117l4 32h359v-1q12 1 16 1h83z" />
<glyph unicode="K" horiz-adv-x="821" d="M709 0h-64v0h-240l-217 475l-58 -443h135l-4 -32h-477l4 32h135l157 1209h-135l4 32h478l-5 -32h-135l-94 -723l427 723h-132l5 32h318l-4 -32h-152l-325 -552l300 -657h83z" />
<glyph unicode="L" horiz-adv-x="774" d="M592 284l-37 -284h-768l4 32h135l144 1103q6 34 3 66q-2 17 -8 40h-117l4 32h359v-1q13 1 17 1h83l-4 -32h-115l-13 -106q-5 -21 -8 -45l-118 -908q-20 -150 64 -150h68v0q68 2 82 116l18 136h207z" />
<glyph unicode="M" horiz-adv-x="1287" d="M1105 32l-4 -32h-456l4 32h130l137 1058q20 151 -64 151h-55q-84 0 -103 -151l-142 -1090h-207l142 1090q19 151 -65 151h-54q-84 0 -104 -151l-141 -1090h-1l-3 -22q-12 -97 -91 -164q-79 -68 -179 -68h-156l8 2l101 23q87 27 104 157l145 1113q13 96 92 164t178 68h156 q75 0 132 -42q67 42 142 42h156q99 0 161 -68q61 -68 49 -164l-131 -1009h119z" />
<glyph unicode="N" horiz-adv-x="861" d="M699 32l-4 -32h-342l4 32v0l49 382v0l89 679q19 151 -65 151h-54q-84 0 -104 -151l-138 -1061h135l-4 -32h-477l4 32h135l144 1102q6 34 3 66q-2 17 -8 41h-117l4 32h286v-2h26q8 -17 13 -37l1 -1q2 1 11 10q11 12 23 19q18 12 42 13h130q100 0 161 -68q62 -67 49 -163 l-131 -1012h135z" />
<glyph unicode="O" horiz-adv-x="846" d="M490 1090q19 151 -65 151h-55q-84 0 -103 -151l-85 -656v0l-33 -252q-20 -150 64 -150h55q84 0 103 150zM480 1273q99 0 161 -68q61 -68 49 -164l-105 -809q-13 -96 -92 -164t-178 -68h-157q-99 0 -161 68q-61 68 -49 164l106 809q12 96 91 164t179 68h156z" />
<glyph unicode="P" horiz-adv-x="792" d="M494 1090q19 143 -55 150v1h-146l-13 -106q-5 -21 -8 -45l-56 -430q-20 -151 64 -151h55q84 0 103 151zM485 1273q99 0 161 -68q61 -68 49 -164l-43 -332q-13 -96 -92 -164t-179 -68h-156q-14 0 -33 3l-58 -448h135l-4 -32h-477l4 32h135l87 668h1q1 12 0 9l56 426 q6 34 3 66q-2 17 -8 40h-117l4 32h359v-1q13 1 17 1h156z" />
<glyph unicode="Q" horiz-adv-x="849" d="M200 33q11 111 -52 137q-13 -126 52 -137zM152 201h37q109 0 171 -81q8 28 12 62l119 908q19 151 -65 151h-55q-84 0 -103 -151zM560 -252h-156q-99 0 -161 68q-61 68 -49 164l3 20h-38q-99 0 -161 68q-61 68 -49 164l106 809q12 96 91 164t179 68h156q99 0 161 -68 q61 -68 49 -164l-105 -809q-21 -158 -180 -216l-12 -86q-17 -130 64 -157l94 -23z" />
<glyph unicode="R" horiz-adv-x="846" d="M491 1090q19 143 -55 150v1h-146l-13 -106q-5 -21 -8 -45l-56 -430q-3 -24 -4 -45l-14 -106h146v1q76 7 94 150zM720 -252h-156q-97 0 -158 65t-53 159v-1l1 15q56 425 -22 475q-25 16 -65 16q-70 2 -78 3l-58 -448h135l-4 -32h-477l4 32h135l87 668h1q1 12 0 9l56 426 q6 34 3 66q-2 17 -8 40h-117l4 32h359v-1q13 1 17 1h156q99 0 161 -68q61 -68 49 -164l-43 -332q-11 -82 -73 -146q-62 -63 -146 -80q82 -16 129 -79q48 -65 37 -149l-28 -214h1l-15 -111q-17 -130 64 -157l94 -23z" />
<glyph unicode="S" horiz-adv-x="784" d="M247 1205q-55 -38 -62 -98q-16 -116 210 -366q226 -249 204 -421q-18 -139 -101 -225q-92 -95 -240 -95h-7v0h-122q-53 -1 -111 9q-58 9 -89 45l30 232h207l-14 -104q-19 -150 65 -150h36v0v0q177 5 199 171q7 57 -59 147q0 -1 -151 177q-219 259 -194 461q15 126 99 204 q85 81 213 81h137q52 1 110 -9t90 -46l-30 -232h-207l13 104q20 151 -64 151h-48q-64 0 -114 -36z" />
<glyph unicode="T" horiz-adv-x="818" d="M713 989h-48l14 104q8 59 -38 106q-39 40 -74 41l1 1h-101l-13 -106q-5 -21 -8 -45l-138 -1058h135l-4 -32h-477l4 32h135l87 668v0l57 435q6 34 3 66q-2 17 -8 40h-84v-1q-35 -1 -84 -41q-58 -47 -66 -106l-13 -104h-48l37 284h768z" />
<glyph unicode="U" horiz-adv-x="1025" d="M114 1244l4 31h342l-5 -31h1l-138 -1062q-20 -150 64 -150h55q84 0 103 150l138 1062h-135l4 31h478l-5 -31h-135l-143 -1102q-7 -35 -3 -67q2 -17 8 -40h116l-4 -32h-286v1h-26q-7 17 -12 38h-1q-2 0 -11 -10q-12 -11 -23 -19q-18 -11 -42 -13h-131q-99 0 -161 68 q-61 68 -49 164l132 1012h-135z" />
<glyph unicode="V" horiz-adv-x="855" d="M886 1241h-139l-437 -1241h-33v0l-183 1241h-122l4 32h477l-4 -32h-138l104 -826l299 826h-146l4 32h318z" />
<glyph unicode="W" horiz-adv-x="1284" d="M1370 1527l-8 -2l-101 -23q-87 -27 -104 -157l-85 -654q-2 -16 -3 -33h-2l-55 -426q-12 -96 -91 -164q-80 -68 -179 -68h-156q-75 0 -131 41q-67 -41 -142 -41h-157q-99 0 -161 68q-61 68 -49 164l132 1009h-120l5 32h455l-4 -32h-130l-137 -1059q-20 -150 64 -150h55 q84 0 103 150l142 1091h207l-142 -1091q-19 -150 65 -150h54q84 0 104 150l145 1113q12 96 91 164t179 68h156z" />
<glyph unicode="X" horiz-adv-x="812" d="M380 818l135 -786h64l-4 -32h-271l-82 481l-211 -449h135l-4 -32h-299l4 32h131l235 501l-121 708h-88l4 32h294l69 -403l174 371h-106l4 32h297l-4 -32h-157z" />
<glyph unicode="Y" horiz-adv-x="849" d="M72 -454q-10 -73 5 -111q15 -39 59 -39h55q84 0 103 150l52 393q4 4 -117 -41q-108 -40 -119 -72q-2 -4 -3 -9zM861 1275l-4 -31h-135l-214 -1648q-13 -96 -92 -164t-178 -68h-157q-99 0 -161 68q-61 68 -49 164l9 64q14 108 82 167q54 46 244 110q95 31 127 43 q15 6 20 20h-189q-99 0 -161 68q-61 68 -49 164l132 1012h-135l4 31h341l-4 -31v0l-138 -1062q-19 -150 65 -150h55q77 0 99 126q1 9 1 12h1q2 9 2 12l138 1062h-135l4 31h477z" />
<glyph unicode="Z" horiz-adv-x="796" d="M394 284h207l-34 -264v0l-3 -20h-650l578 1241h-134v-1q-67 -1 -82 -115l-17 -136h-207l37 284h644l-578 -1241h139h1q67 2 82 116z" />
<glyph unicode="^" horiz-adv-x="653" d="M638 1189q22 -19 21 -50q-1 -30 -24 -54l-2 -1q-23 -24 -56 -27q-32 -3 -54 17l-143 124l-157 -111q-30 -22 -60 -25q-31 -3 -43 15l-1 1q-13 17 -1 45q13 27 43 48l198 141q22 16 46 22t41 0q27 -1 45 -17z" />
<glyph unicode="`" horiz-adv-x="644" d="M227 1350q18 29 50 40q32 10 59 -4l46 -23q45 -23 128 -93q98 -83 83 -108l-36 -60q-16 -25 -144 9q-108 28 -154 52l-45 23q-28 14 -34 45q-7 31 11 60z" />
<glyph unicode="a" horiz-adv-x="790" d="M238 32q84 0 103 150l52 394q4 4 -117 -41q-108 -41 -119 -73q-2 -4 -3 -9l-35 -271q-20 -150 64 -150h55zM348 1q-7 17 -12 37q-19 -19 -28 -25q-19 -11 -42 -13h-138q-99 0 -161 68q-61 68 -49 164l9 64q14 108 82 167q54 46 244 110q94 32 127 44q16 6 21 22l17 133 q20 151 -64 151h-55q-84 0 -104 -151l-17 -136h-207l11 87q13 96 92 164t178 68h157q99 0 161 -68q61 -68 48 -164l-44 -342v0l-31 -243q-7 -34 -4 -66q4 -32 17 -72z" />
<glyph unicode="b" horiz-adv-x="844" d="M445 772q19 151 -65 151h-54q-84 0 -104 -151l-77 -590q-19 -150 65 -150h55q84 0 103 150zM435 955q100 0 161 -68q62 -68 49 -164l-64 -491q-12 -96 -91 -164t-179 -68h-189q-53 -1 -111 9q-58 9 -89 45l196 1505h-136l5 32h342l-84 -639q19 3 34 3h156z" />
<glyph unicode="c" horiz-adv-x="841" d="M592 318l-34 -264q-41 -36 -102 -45q-60 -10 -112 -9h-190q-99 0 -161 68q-61 68 -49 164l64 491q13 96 92 164t178 68h190q52 1 110 -9t90 -46l-35 -264h-207l18 136q20 151 -64 151h-55q-84 0 -104 -151l-76 -590q-20 -150 64 -150h55q84 0 103 150l18 136h207z" />
<glyph unicode="d" horiz-adv-x="844" d="M444 769q20 151 -64 151h-55q-84 0 -104 -151l-76 -589q-20 -151 64 -151h55q84 0 103 151zM690 32l-4 -32h-286v2h-26q-7 17 -12 37h-1q-2 0 -11 -9q-12 -12 -23 -20q-19 -11 -42 -13h-131q-99 0 -161 68q-61 68 -49 164l64 491q13 96 92 164t178 68h157q14 0 33 -3 l79 610h-135l4 32h342l-189 -1452q-7 -34 -3 -67q2 -17 8 -40h116z" />
<glyph unicode="e" horiz-adv-x="802" d="M324 923q-84 0 -104 -151l-33 -258h223l33 258q20 151 -64 151h-55zM183 482l-39 -300q-20 -150 64 -150h55q84 0 103 150l18 136h207l-11 -86q-13 -96 -92 -164t-178 -68h-157q-99 0 -161 68q-61 68 -49 164l64 491q13 96 92 164t178 68h157q99 0 161 -68 q61 -68 48 -164l-31 -241h-429z" />
<glyph unicode="f" horiz-adv-x="424" d="M412 1565q-88 -26 -105 -156l-59 -454h144l-5 -32h-143l-71 -550q-2 -16 -3 -33h-3l-97 -744q-12 -96 -91 -164t-179 -68h-156l8 2l101 24q87 26 104 156l135 1035q2 17 3 34h3l40 308h-128l4 32h128l52 404q13 96 92 164t178 68h157l-9 -2z" />
<glyph unicode="g" horiz-adv-x="844" d="M262 32q77 0 99 127q1 8 1 11h1q2 10 2 12l77 590q19 151 -65 151h-54q-84 0 -104 -151l-77 -590q-19 -150 65 -150h55zM496 -404q-13 -96 -92 -164t-178 -68h-157q-99 0 -161 68q-61 68 -49 164l12 86h206l-17 -136q-20 -150 64 -150h55q84 0 103 150l59 454h-189 q-99 0 -161 68q-61 68 -49 164l64 491q12 96 92 164q79 68 178 68h190q52 1 110 -9t89 -46z" />
<glyph unicode="h" horiz-adv-x="841" d="M693 32l-4 -32h-342l4 32v0l96 743q20 151 -64 151h-55q-84 0 -103 -151l-97 -743h135l-4 -32h-477l4 32h135l199 1527h-136l5 32h341l-86 -664q11 10 21 17q19 12 42 13h131q99 0 161 -68q61 -67 49 -163l-90 -694h135z" />
<glyph unicode="i" horiz-adv-x="427" d="M142 1117q-33 0 -53 23t-16 55l9 66q4 32 30 55t58 23h54q33 0 53 -23t16 -55l-9 -66q-4 -32 -30 -55t-58 -23h-54zM268 32l-4 -32h-477l4 32h135l116 891h-135l4 32h342l-120 -923h135z" />
<glyph unicode="j" horiz-adv-x="419" d="M66 -404q-12 -96 -91 -164t-179 -68h-156l8 2l101 24q87 26 104 156l135 1035q2 17 3 34h1l40 308h-135l4 32h342zM132 1117q-33 0 -53 23t-15 55l8 66q4 32 30 55t59 23h54q32 0 52 -23t16 -55l-9 -66q-4 -32 -30 -55t-58 -23h-54z" />
<glyph unicode="k" horiz-adv-x="792" d="M338 624q5 7 9 15l-23 -26q6 6 10 11h4zM627 32h83l-4 -32h-64v0h-240l-212 464l-8 -8l-55 -424h135l-4 -32h-477l4 32h135l199 1527h-136l5 32h341l-140 -1083l374 415h-119l4 32h318l-4 -32h-159l-254 -282z" />
<glyph unicode="l" horiz-adv-x="417" d="M258 32l-4 -32h-477l4 32h135l199 1527h-136l5 32h341l-119 -921v-1l-83 -637h135z" />
<glyph unicode="m" horiz-adv-x="1278" d="M1117 32l-4 -32h-342l4 32v0l97 743q19 151 -65 151h-54q-5 0 -9 -1q1 0 -1 0q-4 0 -7 -1q1 0 -2 0q-4 -1 -6 -2l-2 -1q-4 -1 -6 -2l-2 -1q-3 -1 -6 -3q-1 0 -2 -1q-3 -2 -5 -4q-1 0 -3 -2l-4 -4q-2 -1 -3 -2q-2 -2 -4 -5q-2 -2 -2 -3q-2 -3 -5 -6l-2 -3q-2 -3 -4 -8 q-2 -3 -2 -2q-2 -5 -5 -11v-1q-15 -34 -22 -88l-96 -743h135l-4 -32h-342l4 32l97 745q18 149 -65 149h-55q-84 0 -103 -151l-97 -743h135l-4 -32h-477l4 32h135l102 784q7 34 3 66q-1 18 -7 41h-117l4 32h286v-2h26q7 -17 12 -37l1 -1q3 1 12 10q11 12 22 19q19 12 42 13 h131q75 0 131 -41q67 41 142 41h156q100 0 161 -68q62 -67 49 -163l-90 -694h135z" />
<glyph unicode="n" horiz-adv-x="843" d="M689 32l-4 -32h-342l100 775q20 151 -64 151h-55q-84 0 -103 -151l-97 -743h135l-4 -32h-477l4 32h135l102 784q7 34 4 66q-2 17 -8 41h-117l4 32h286v-2h26q7 -17 12 -37l1 -1q3 1 12 10q11 12 22 19q19 12 42 13h131q99 0 161 -68q61 -67 49 -163l-90 -694h135z" />
<glyph unicode="o" horiz-adv-x="804" d="M445 772q20 151 -64 151h-55q-84 0 -104 -151l-76 -590q-20 -150 64 -150h55q84 0 103 150zM436 955q99 0 161 -68q61 -68 48 -164l-63 -491q-13 -96 -92 -164t-178 -68h-157q-99 0 -161 68q-61 68 -49 164l64 491q13 96 92 164t178 68h157z" />
<glyph unicode="p" horiz-adv-x="844" d="M450 775q20 151 -64 151h-55q-84 0 -104 -151l-76 -590q-20 -150 64 -150h55q84 0 103 150zM441 957q99 0 160 -68q62 -67 49 -163l-63 -491q-13 -96 -92 -164t-178 -68h-157q-14 0 -33 3l-79 -610h135l-4 -32h-477l4 32h135l185 1420q7 34 3 66q-2 18 -8 41h-116l4 32 h286l-1 -2h26q8 -17 13 -37l1 -1q2 1 11 10q12 12 23 19q18 12 42 13h131z" />
<glyph unicode="q" horiz-adv-x="847" d="M449 772q20 151 -64 151h-55q-84 0 -104 -151l-76 -590q-20 -150 64 -150h55q84 0 103 150zM694 923q-12 -23 -18 -40q-12 -32 -14 -66l-185 -1421h135l-4 -32h-477l4 32h135l79 607q-19 -3 -33 -3h-157q-99 0 -161 68q-61 68 -49 164l64 491q13 96 92 164t178 68h148 q13 -4 22 -11t18 -19q6 -9 8 -10l1 1q11 20 23 38h35v1h277l-4 -32h-117z" />
<glyph unicode="r" horiz-adv-x="650" d="M407 955q52 1 110 -9t90 -46l-34 -264h-207l17 136q19 146 -90 109q-33 -10 -59 -32l-23 -175v-1l-83 -641h135l-4 -32h-477l4 32h135l116 891h-135l4 32h342l-6 -45q83 45 132 45h33v0z" />
<glyph unicode="s" horiz-adv-x="784" d="M175 887q-54 -38 -62 -98q-11 -83 64 -134q36 -25 168 -73q118 -43 166 -87q72 -66 58 -175q-18 -139 -101 -225q-92 -95 -240 -95h-3h-4h-122q-53 -1 -111 9q-58 9 -89 45l30 233h207l-14 -105q-19 -150 65 -150h36v0q177 5 199 171q7 57 -66 97q2 -1 -164 68 q-240 100 -215 302q15 126 98 204q86 81 213 81h138q52 1 110 -9t89 -46l-30 -232h-207l14 104q19 151 -65 151h-47q-64 0 -115 -36z" />
<glyph unicode="t" horiz-adv-x="499" d="M348 0h-157q-99 0 -161 68q-61 68 -49 164l90 691h-101l4 32h101l45 343l211 32l-49 -375h169l-4 -32h-169l-96 -741q-17 -130 63 -156l95 -24z" />
<glyph unicode="u" horiz-adv-x="844" d="M-101 926l4 31h342l-4 -31v0l-97 -744q-19 -150 65 -150h54q84 0 104 150l97 744h-136l5 31h341l-105 -815q-7 -35 -4 -67q2 -17 8 -40h117l-4 -32h-286v1h-26q-8 18 -12 38h-2q-2 0 -11 -9q-11 -12 -22 -20q-19 -11 -43 -13h-130q-100 0 -161 68t-49 164l90 694h-135z " />
<glyph unicode="v" horiz-adv-x="802" d="M810 923h-155l-411 -923h-33v1l-174 922h-141l4 32h477l-4 -32h-119l109 -580l258 580h-129l4 32h318z" />
<glyph unicode="w" horiz-adv-x="1241" d="M1299 950l-9 -3l-100 -23q-88 -26 -105 -157l-43 -335q-2 -17 -3 -34h-2l-22 -171q-12 -96 -92 -164q-79 -68 -178 -68h-156q-75 0 -132 42q-67 -42 -141 -42h-157q-99 0 -161 68q-61 68 -49 164l90 691h-119l4 32h456l-4 -32h-130l-96 -740q-20 -151 64 -151h55 q84 0 103 151l101 772h207l-101 -772q-19 -151 65 -151h54q84 0 104 151l67 517v0l3 23q13 96 92 164t178 68h157z" />
<glyph unicode="x" horiz-adv-x="793" d="M662 955l-4 -32h-151l-188 -327l154 -564h69l-4 -32h-279l-91 333l-173 -301h114l-4 -32h-299l4 32h150l197 342l-151 549h-80l4 32h291l87 -318l164 286h-111l4 32h297z" />
<glyph unicode="y" horiz-adv-x="847" d="M495 -404q-13 -96 -92 -164t-178 -68h-157q-99 0 -161 68q-61 68 -49 164l12 86h206l-17 -136q-20 -150 64 -150h55q84 0 103 150l59 454h-189q-99 0 -161 68q-61 68 -49 164l41 316v0l49 378h-135l4 31h342l-4 -31v0l-97 -744q-19 -150 65 -150h55q77 0 99 127q1 8 1 11 h1q2 10 2 12l97 744h-135l4 31h341z" />
<glyph unicode="z" horiz-adv-x="829" d="M392 284h207l-37 -284h-650l533 923h-130v-1q-67 -1 -82 -115l-18 -136h-207l37 284h645l-533 -923h135l1 1q67 1 82 115z" />
<glyph unicode="~" horiz-adv-x="727" d="M759 1326l-111 -124q-71 -78 -170 -92q-98 -15 -167 44l6 -5v0l-11 9q-120 103 -198 30l-79 -47l-7 -5l112 124q53 59 148 76q84 14 149 -11q32 -12 63 -38q93 -79 172 -29l86 63z" />
<glyph unicode="&#xa1;" horiz-adv-x="403" d="M132 1050q-33 0 -53 23t-16 55l8 66q4 32 30 55t58 24h54q33 0 53 -23t16 -55l-8 -66q-4 -32 -30 -55t-58 -23zM2 0q-33 0 -53 23t-16 55l8 66q12 96 71 389q73 357 100 357l54 1q28 0 11 -357q-13 -293 -25 -389l-8 -66q-4 -32 -30 -55t-58 -24h-54z" />
<glyph unicode="&#xa8;" horiz-adv-x="693" d="M651 1195q-4 -32 -30 -55t-58 -23h-54q-33 0 -53 23t-15 55l8 66q4 32 30 55t59 23h54q32 0 52 -23t16 -55zM365 1195q-4 -32 -30 -55t-59 -23h-54q-32 0 -52 23t-16 55l9 66q4 32 30 55t58 23h54q33 0 53 -23t15 -55z" />
<glyph unicode="&#xa9;" horiz-adv-x="4030" d="M2312 -35q210 -241 550 -241q341 0 612 241q273 240 317 581q44 340 -166 581q-208 241 -549 241q-340 0 -613 -241q-272 -241 -316 -581q-44 -341 165 -581zM2388 1214q313 277 704 277q392 0 633 -277t190 -668q-51 -392 -364 -669t-705 -277q-391 0 -632 277t-190 669 q51 391 364 668zM273 -35q210 -241 550 -241q341 0 613 241q272 240 316 581q44 340 -165 581t-550 241q-340 0 -613 -241q-271 -241 -315 -581q-44 -341 164 -581zM349 1214q313 277 704 277q392 0 633 -277t190 -668q-51 -392 -364 -669t-705 -277q-391 0 -632 277 t-190 669q51 391 364 668zM3471 236q1 -14 -1 -28l-4 -32q-2 -16 -8 -32q-1 -5 -4 -10q-20 -49 -64 -80q-46 -32 -98 -32h-177q-61 0 -100 42q-38 41 -35 101q3 21 20 36t38 15h61q41 0 45 -40q4 -41 45 -41h59q37 0 53 35l10 76h-170q-64 0 -103 45q-38 45 -30 108l47 363 q3 22 19 37q17 15 39 15h59q21 0 34 -15t10 -37l-46 -352v-3v0q-2 -20 11 -34q14 -14 34 -14h111l51 401q3 21 19 36q17 15 39 15h59q21 0 34 -15q14 -15 11 -36zM2816 649q3 22 -10 37t-34 15h-59q-42 0 -55 -41v0l-2 -4l-38 -295h110q21 0 38 15t20 37zM2846 814 q60 0 98 -41q39 -41 36 -100q1 -5 1 -7l-35 -264q-8 -64 -59 -109t-115 -45h-280q-21 0 -34 15t-10 37l90 689q2 21 19 36t38 15h59q22 0 35 -15t11 -36l-23 -175h169zM1078 412q-2 -21 11 -36q12 -15 34 -15h59q41 0 55 41v0q14 40 55 40h61q21 0 34 -15q14 -15 11 -36v0 q-12 -60 -61 -101q-50 -42 -111 -42h-177q-64 0 -103 45t-31 109l35 264q0 3 1 6q12 60 61 101q50 41 111 41h177q61 0 99 -42q39 -41 35 -101v0q-3 -21 -19 -36q-17 -15 -38 -15h-61q-41 0 -45 40v0q-4 41 -45 41h-59q-21 0 -38 -15t-21 -36zM804 442q21 0 34 -15 q14 -15 11 -36v0q-12 -60 -61 -101q-50 -42 -111 -42h-178q-63 0 -102 45t-31 109l35 264v6q13 60 62 101q50 41 110 41h178q61 0 99 -42q39 -41 35 -101v0q-3 -21 -19 -36q-17 -15 -38 -15h-61q-41 0 -45 40q-4 41 -45 41h-59q-22 0 -39 -15q-16 -15 -20 -36l-30 -238 q-3 -21 10 -36t35 -15h59q41 0 55 41q14 40 55 40h61z" />
<glyph unicode="&#xad;" horiz-adv-x="822" d="M589 429q-4 -33 -30 -56t-59 -23h-454q-32 0 -52 23t-16 56l9 65q4 33 30 56t58 23h454q33 0 53 -23t15 -56z" />
<glyph unicode="&#xb4;" horiz-adv-x="752" d="M643 1293q10 -30 -5 -60q-15 -31 -46 -45l-51 -23q-52 -24 -167 -52q-137 -34 -146 -9l-21 59q-9 26 111 109q101 69 152 93l52 23q31 14 60 4q29 -11 40 -40z" />
<glyph unicode="&#xb7;" horiz-adv-x="514" d="M174 79q-4 -33 -30 -56t-59 -23h-54q-32 0 -52 23t-16 56l9 65q4 33 30 56t58 23h54q33 0 53 -23t15 -56z" />
<glyph unicode="&#xbf;" horiz-adv-x="817" d="M150 1q-100 0 -161 68t-48 165l27 204q11 79 69 141q57 61 136 81v0q67 20 85 159l10 72l206 -1l-3 -22q-11 -85 -76 -149q-64 -64 -151 -78q-46 -30 -60 -138l-43 -320q-20 -150 64 -151h54q84 0 104 150l40 295l203 -1q1 -21 -2 -41l-27 -204q-13 -96 -93 -164 q-79 -68 -178 -67zM364 1050q-33 1 -52 24q-20 23 -16 55l9 66q4 32 30 55t59 23l54 -1q32 0 52 -23t15 -55l-8 -66q-5 -32 -31 -55t-58 -23h-54z" />
<glyph unicode="&#xc0;" d="M414 514l75 576q19 151 -65 151h-54q-84 0 -104 -151l-75 -576h223zM677 32l-4 -32h-456l5 32h129l59 450h-223l-63 -482v0l-3 -22q-12 -97 -91 -164q-79 -68 -179 -68h-156l8 2l101 23q87 27 104 157l72 554h-113l4 32h113l9 67q2 17 3 34h2l55 426q12 96 92 164 q79 68 178 68h156q100 0 161 -68q62 -68 49 -164l-131 -1009h119zM260 1600q18 29 50 40q32 10 59 -4l46 -23q45 -23 128 -93q98 -83 83 -108l-36 -60q-16 -25 -144 9q-108 28 -154 52l-45 23q-28 14 -34 45q-7 31 11 60z" />
<glyph unicode="&#xc1;" d="M191 514l75 576q20 151 104 151h54q84 0 65 -151l-75 -576h-223zM558 32l131 1009q13 96 -49 164q-61 68 -161 68h-156q-99 0 -178 -68q-80 -68 -92 -164l-55 -426h-2q-1 -17 -3 -34l-9 -67h-113l-4 -32h113l-72 -554q-17 -130 -104 -157l-101 -23l-8 -2h156 q100 0 179 68q79 67 91 164l3 22v0l63 482h223l-59 -450h-129l-5 -32h456l4 32h-119zM645 1533q10 -30 -4 -60q-15 -31 -46 -45l-52 -23q-51 -24 -167 -52q-137 -34 -146 -9l-21 59q-8 26 111 109q101 69 153 93l51 23q31 14 61 4q29 -11 39 -40z" />
<glyph unicode="&#xc2;" d="M414 514l75 576q19 151 -65 151h-54q-84 0 -104 -151l-75 -576h223zM677 32l-4 -32h-456l5 32h129l59 450h-223l-63 -482v0l-3 -22q-12 -97 -91 -164q-79 -68 -179 -68h-156l8 2l101 23q87 27 104 157l72 554h-113l4 32h113l9 67q2 17 3 34h2l55 426q12 96 92 164 q79 68 178 68h156q100 0 161 -68q62 -68 49 -164l-131 -1009h119zM677 1489q22 -19 21 -50q0 -30 -24 -54l-1 -1q-24 -24 -56 -27q-33 -3 -55 17l-143 124l-156 -111q-31 -22 -61 -25t-43 15l-1 1q-12 17 0 45q12 27 42 48l198 141q23 16 47 22q23 6 40 0q27 -1 46 -17z" />
<glyph unicode="&#xc3;" d="M414 514l75 576q19 151 -65 151h-54q-84 0 -104 -151l-75 -576h223zM677 32l-4 -32h-456l5 32h129l59 450h-223l-63 -482v0l-3 -22q-12 -97 -91 -164q-79 -68 -179 -68h-156l8 2l101 23q87 27 104 157l72 554h-113l4 32h113l9 67q2 17 3 34h2l55 426q12 96 92 164 q79 68 178 68h156q100 0 161 -68q62 -68 49 -164l-131 -1009h119zM829 1616l-112 -124q-71 -78 -169 -92q-99 -15 -167 44l6 -5h-1l-10 9q-120 103 -198 30l-79 -47l-7 -5l111 124q54 59 148 76q85 14 150 -11q31 -12 63 -38q93 -79 171 -29l87 63z" />
<glyph unicode="&#xc4;" d="M191 514l75 576q20 151 104 151h54q84 0 65 -151l-75 -576h-223zM558 32l131 1009q13 96 -49 164q-61 68 -161 68h-156q-99 0 -178 -68q-80 -68 -92 -164l-55 -426h-2q-1 -17 -3 -34l-9 -67h-113l-4 -32h113l-72 -554q-17 -130 -104 -157l-101 -23l-8 -2h156 q100 0 179 68q79 67 91 164l3 22v0l63 482h223l-59 -450h-129l-5 -32h456l4 32h-119zM670 1485q-5 -32 -31 -55q-25 -23 -58 -23h-54q-32 0 -52 23t-16 55l8 66q5 32 31 55t58 23h54q32 0 52 -23t16 -55zM383 1485q-4 -32 -30 -55t-58 -23h-54q-33 0 -53 23t-15 55l8 66 q4 32 30 55t59 23h54q32 0 52 -23t16 -55z" />
<glyph unicode="&#xc5;" d="M414 514l75 576q19 151 -65 151h-54q-84 0 -104 -151l-75 -576h223zM677 32l-4 -32h-456l5 32h129l59 450h-223l-63 -482v0l-3 -22q-12 -97 -91 -164q-79 -68 -179 -68h-156l8 2l101 23q87 27 104 157l72 554h-113l4 32h113l9 67q2 17 3 34h2l55 426q12 96 92 164 q79 68 178 68h156q100 0 161 -68q62 -68 49 -164l-131 -1009h119zM540 1513q4 32 -16 55t-52 23h-54q-33 0 -58 -23q-26 -23 -31 -55l-8 -66q-4 -32 16 -55t52 -23h54q32 0 58 23t31 55zM484 1623q42 0 68 -29q27 -30 21 -72l-11 -84q-5 -42 -39 -71q-34 -30 -76 -30h-70 q-42 0 -69 30q-26 29 -20 71l11 84q5 42 39 72q34 29 76 29h70z" />
<glyph unicode="&#xc8;" d="M477 989l17 136q15 114 -52 115v1h-150l-13 -106q-5 -21 -8 -45l-75 -576h221l-5 -32h-220l-39 -300q-20 -150 64 -150h68v0q68 2 82 116l18 136h207l-37 -284h-768l4 32h135l144 1103q6 34 3 66q-2 17 -8 40h-117l4 32h768l-37 -284h-206zM260 1600q17 29 49 40 q32 10 60 -4l45 -23q46 -23 129 -93q98 -83 82 -108l-36 -60q-15 -25 -144 9q-108 28 -153 52l-46 23q-27 14 -34 45t11 60z" />
<glyph unicode="&#xc9;" d="M683 989l37 284h-768l-4 -32h117q6 -23 8 -40q3 -32 -3 -66l-144 -1103h-135l-4 -32h768l37 284h-207l-18 -136q-14 -114 -82 -116v0h-68q-84 0 -64 150l39 300h220l5 32h-221l75 576q3 24 8 45l13 106h150v-1q67 -1 52 -115l-17 -136h206zM644 1533q11 -30 -4 -60 q-15 -31 -46 -45l-51 -23q-52 -24 -167 -52q-137 -34 -146 -9l-21 59q-9 26 111 109q101 69 152 93l52 23q31 14 60 4q29 -11 40 -40z" />
<glyph unicode="&#xca;" d="M477 989l17 136q15 114 -52 115v1h-150l-13 -106q-5 -21 -8 -45l-75 -576h221l-5 -32h-220l-39 -300q-20 -150 64 -150h68v0q68 2 82 116l18 136h207l-37 -284h-768l4 32h135l144 1103q6 34 3 66q-2 17 -8 40h-117l4 32h768l-37 -284h-206zM656 1489q23 -19 22 -50 q-1 -30 -24 -54l-2 -1q-23 -24 -56 -27q-32 -3 -54 17l-143 124l-157 -111q-30 -22 -61 -25q-30 -3 -43 15v1q-13 17 -1 45q13 27 43 48l197 141q23 16 47 22t41 0q27 -1 45 -17z" />
<glyph unicode="&#xcb;" d="M683 989l37 284h-768l-4 -32h117q6 -23 8 -40q3 -32 -3 -66l-144 -1103h-135l-4 -32h768l37 284h-207l-18 -136q-14 -114 -82 -116v0h-68q-84 0 -64 150l39 300h220l5 32h-221l75 576q3 24 8 45l13 106h150v-1q67 -1 52 -115l-17 -136h206zM659 1485q-4 -32 -30 -55 t-58 -23h-54q-33 0 -53 23t-16 55l9 66q4 32 30 55t58 23h54q33 0 53 -23t16 -55zM373 1485q-4 -32 -30 -55t-59 -23h-54q-32 0 -52 23t-16 55l9 66q4 32 30 55t58 23h54q33 0 53 -23q19 -23 15 -55z" />
<glyph unicode="&#xcc;" horiz-adv-x="426" d="M263 32l-4 -32h-477l4 32h135l87 668v0l57 435q6 34 3 66q-2 17 -8 40h-117l4 32h359v-1q13 1 17 1h83l-4 -32h-115l-13 -106q-5 -21 -8 -45l-138 -1058h135zM39 1600q18 29 50 40q32 10 60 -4l45 -23q45 -23 128 -93q99 -83 83 -108l-36 -60q-16 -25 -144 9 q-108 28 -153 52l-46 23q-27 14 -34 45t11 60z" />
<glyph unicode="&#xcd;" horiz-adv-x="426" d="M128 32l138 1058q3 24 8 45l13 106h115l4 32h-83q-4 0 -17 -1v1h-359l-4 -32h117q6 -23 8 -40q3 -32 -3 -66l-57 -435v0l-87 -668h-135l-4 -32h477l4 32h-135zM454 1533q10 -30 -4 -60q-15 -31 -46 -45l-52 -23q-51 -24 -167 -52q-137 -34 -146 -9l-20 59q-9 26 111 109 q100 69 152 93l51 23q32 14 61 4q29 -11 39 -40z" />
<glyph unicode="&#xce;" horiz-adv-x="426" d="M263 32l-4 -32h-477l4 32h135l87 668v0l57 435q6 34 3 66q-2 17 -8 40h-117l4 32h359v-1q13 1 17 1h83l-4 -32h-115l-13 -106q-5 -21 -8 -45l-138 -1058h135zM476 1489q22 -19 22 -50q-1 -30 -25 -54l-1 -1q-24 -24 -56 -27t-55 17l-142 124l-157 -111q-31 -22 -61 -25 t-43 15l-1 1q-12 17 0 45q12 27 42 48l198 141q23 16 47 22q23 6 40 0q27 -1 46 -17z" />
<glyph unicode="&#xcf;" horiz-adv-x="426" d="M128 32l138 1058q3 24 8 45l13 106h115l4 32h-83q-4 0 -17 -1v1h-359l-4 -32h117q6 -23 8 -40q3 -32 -3 -66l-57 -435v0l-87 -668h-135l-4 -32h477l4 32h-135zM469 1485q-5 -32 -30 -55q-26 -23 -59 -23h-54q-32 0 -52 23t-16 55l9 66q4 32 30 55t58 23h54q33 0 52 -23 q20 -23 16 -55zM182 1485q-4 -32 -30 -55t-58 -23h-54q-33 0 -52 23q-20 23 -16 55l8 66q5 32 30 55q26 23 59 23h54q32 0 52 -23t16 -55z" />
<glyph unicode="&#xd1;" horiz-adv-x="861" d="M699 32l-4 -32h-342l4 32v0l49 382v0l89 679q19 151 -65 151h-54q-84 0 -104 -151l-138 -1061h135l-4 -32h-477l4 32h135l144 1102q6 34 3 66q-2 17 -8 41h-117l4 32h286v-2h26q8 -17 13 -37l1 -1q2 1 11 10q11 12 23 19q18 12 42 13h130q100 0 161 -68q62 -67 49 -163 l-131 -1012h135zM809 1616l-112 -124q-71 -78 -170 -92q-98 -15 -167 44l6 -5v0l-11 9q-120 103 -198 30l-79 -47l-7 -5l112 124q53 59 148 76q84 14 149 -11q32 -12 63 -38q93 -79 172 -29l86 63z" />
<glyph unicode="&#xd2;" horiz-adv-x="846" d="M490 1090q19 151 -65 151h-55q-84 0 -103 -151l-85 -656v0l-33 -252q-20 -150 64 -150h55q84 0 103 150zM480 1273q99 0 161 -68q61 -68 49 -164l-105 -809q-13 -96 -92 -164t-178 -68h-157q-99 0 -161 68q-61 68 -49 164l106 809q12 96 91 164t179 68h156zM262 1600 q18 29 50 40q32 10 59 -4l46 -23q45 -23 128 -93q98 -83 83 -108l-36 -60q-16 -25 -144 9q-108 28 -154 52l-45 23q-28 14 -34 45q-7 31 11 60z" />
<glyph unicode="&#xd3;" horiz-adv-x="846" d="M371 182q-19 -150 -103 -150h-55q-84 0 -64 150l33 252v0l85 656q19 151 103 151h55q84 0 65 -151zM324 1273q-100 0 -179 -68t-91 -164l-106 -809q-12 -96 49 -164q62 -68 161 -68h157q99 0 178 68t92 164l105 809q12 96 -49 164q-62 68 -161 68h-156zM647 1533 q10 -30 -4 -60q-15 -31 -46 -45l-52 -23q-51 -24 -167 -52q-137 -34 -146 -9l-21 59q-8 26 111 109q101 69 153 93l51 23q31 14 61 4q29 -11 39 -40z" />
<glyph unicode="&#xd4;" horiz-adv-x="846" d="M490 1090q19 151 -65 151h-55q-84 0 -103 -151l-85 -656v0l-33 -252q-20 -150 64 -150h55q84 0 103 150zM480 1273q99 0 161 -68q61 -68 49 -164l-105 -809q-13 -96 -92 -164t-178 -68h-157q-99 0 -161 68q-61 68 -49 164l106 809q12 96 91 164t179 68h156zM679 1489 q22 -19 21 -50q0 -30 -24 -54l-1 -1q-24 -24 -56 -27q-33 -3 -55 17l-143 124l-157 -111q-30 -22 -60 -25t-43 15l-1 1q-12 17 0 45q12 27 42 48l198 141q23 16 47 22q23 6 40 0q27 -1 46 -17z" />
<glyph unicode="&#xd5;" horiz-adv-x="846" d="M491 1090q19 151 -65 151h-55q-84 0 -103 -151l-85 -656v0l-33 -252q-20 -150 64 -150h55q84 0 103 150zM481 1273q99 0 161 -68q61 -68 49 -164l-105 -809q-13 -96 -92 -164t-178 -68h-157q-99 0 -161 68q-61 68 -49 164l106 809q12 96 91 164t179 68h156zM832 1616 l-112 -124q-71 -78 -169 -92q-99 -15 -167 44l6 -5h-1l-10 9q-120 103 -198 30l-79 -47l-7 -5l111 124q54 59 148 76q85 14 150 -11q31 -12 63 -38q93 -79 171 -29l87 63z" />
<glyph unicode="&#xd6;" horiz-adv-x="846" d="M371 182q-19 -150 -103 -150h-55q-84 0 -64 150l33 252v0l85 656q19 151 103 151h55q84 0 65 -151zM324 1273q-100 0 -179 -68t-91 -164l-106 -809q-12 -96 49 -164q62 -68 161 -68h157q99 0 178 68t92 164l105 809q12 96 -49 164q-62 68 -161 68h-156zM682 1485 q-5 -32 -31 -55q-25 -23 -58 -23h-54q-32 0 -52 23t-16 55l8 66q5 32 31 55t58 23h54q32 0 52 -23t16 -55zM395 1485q-4 -32 -30 -55t-58 -23h-54q-33 0 -53 23t-15 55l8 66q4 32 30 55t59 23h54q32 0 52 -23t16 -55z" />
<glyph unicode="&#xd9;" horiz-adv-x="1025" d="M114 1244l4 31h342l-5 -31h1l-138 -1062q-20 -150 64 -150h55q84 0 103 150l138 1062h-135l4 31h478l-5 -31h-135l-143 -1102q-7 -35 -3 -67q2 -17 8 -40h116l-4 -32h-286v1h-26q-7 17 -12 38h-1q-2 0 -11 -10q-12 -11 -23 -19q-18 -11 -42 -13h-131q-99 0 -161 68 q-61 68 -49 164l132 1012h-135zM424 1600q18 29 50 40q32 10 59 -4l46 -23q45 -23 128 -93q98 -83 83 -108l-36 -60q-16 -25 -144 9q-108 28 -154 52l-45 23q-28 14 -34 45q-7 31 11 60z" />
<glyph unicode="&#xda;" horiz-adv-x="1025" d="M249 1244l-132 -1012q-12 -96 49 -164q62 -68 161 -68h131q24 2 42 13q11 8 23 19q9 10 11 10h1q5 -21 12 -38h26v-1h286l4 32h-116q-6 23 -8 40q-4 32 3 67l143 1102h135l5 31h-478l-4 -31h135l-138 -1062q-19 -150 -103 -150h-55q-84 0 -64 150l138 1062h-1l5 31h-342 l-4 -31h135zM809 1533q10 -30 -4 -60q-15 -31 -46 -45l-52 -23q-51 -24 -167 -52q-137 -34 -146 -9l-21 59q-8 26 111 109q101 69 153 93l51 23q31 14 61 4q29 -11 39 -40z" />
<glyph unicode="&#xdb;" horiz-adv-x="1025" d="M114 1244l4 31h342l-5 -31h1l-138 -1062q-20 -150 64 -150h55q84 0 103 150l138 1062h-135l4 31h478l-5 -31h-135l-143 -1102q-7 -35 -3 -67q2 -17 8 -40h116l-4 -32h-286v1h-26q-7 17 -12 38h-1q-2 0 -11 -10q-12 -11 -23 -19q-18 -11 -42 -13h-131q-99 0 -161 68 q-61 68 -49 164l132 1012h-135zM841 1489q22 -19 21 -50q0 -30 -24 -54l-1 -1q-24 -24 -56 -27q-33 -3 -55 17l-143 124l-157 -111q-30 -22 -60 -25t-43 15l-1 1q-12 17 0 45q12 27 42 48l198 141q23 16 47 22q23 6 40 0q27 -1 46 -17z" />
<glyph unicode="&#xdc;" horiz-adv-x="1025" d="M249 1244l-132 -1012q-12 -96 49 -164q62 -68 161 -68h131q24 2 42 13q11 8 23 19q9 10 11 10h1q5 -21 12 -38h26v-1h286l4 32h-116q-6 23 -8 40q-4 32 3 67l143 1102h135l5 31h-478l-4 -31h135l-138 -1062q-19 -150 -103 -150h-55q-84 0 -64 150l138 1062h-1l5 31h-342 l-4 -31h135zM844 1485q-5 -32 -31 -55q-25 -23 -58 -23h-54q-32 0 -52 23t-16 55l8 66q5 32 31 55t58 23h54q32 0 52 -23t16 -55zM557 1485q-4 -32 -30 -55t-58 -23h-54q-33 0 -53 23t-15 55l8 66q4 32 30 55t59 23h54q32 0 52 -23t16 -55z" />
<glyph unicode="&#xdd;" horiz-adv-x="849" d="M107 -183q1 5 3 9q11 32 119 72q121 45 117 41l-52 -393q-19 -150 -103 -150h-55q-44 0 -59 39q-15 38 -5 111zM384 1275l-4 -31h135l-138 -1062q0 -3 -2 -12h-1q0 -3 -1 -12q-22 -126 -99 -126h-55q-84 0 -65 150l138 1062v0l4 31h-341l-4 -31h135l-132 -1012 q-12 -96 49 -164q62 -68 161 -68h189q-5 -14 -20 -20q-32 -12 -127 -43q-190 -64 -244 -110q-68 -59 -82 -167l-9 -64q-12 -96 49 -164q62 -68 161 -68h157q99 0 178 68t92 164l214 1648h135l4 31h-477zM648 1533q10 -30 -5 -60q-14 -31 -46 -45l-51 -23q-52 -24 -167 -52 q-137 -34 -146 -9l-21 59q-9 26 111 109q101 69 152 93l52 23q31 14 60 4q29 -11 40 -40z" />
<glyph unicode="&#xe0;" horiz-adv-x="838" d="M268 32q84 0 103 150l52 394q4 4 -117 -41q-108 -41 -119 -73q-2 -4 -3 -9l-35 -271q-20 -150 64 -150h55zM378 1q-7 17 -12 37q-19 -19 -28 -25q-19 -11 -42 -13h-138q-99 0 -161 68q-61 68 -49 164l9 64q14 108 82 167q54 46 244 110q94 32 127 44q16 6 21 22l17 133 q20 151 -64 151h-55q-84 0 -104 -151l-17 -136h-207l11 87q13 96 92 164t178 68h157q99 0 161 -68q61 -68 48 -164l-44 -342v0l-31 -243q-7 -34 -4 -66q4 -32 17 -72zM227 1350q18 29 50 40q32 10 59 -4l46 -23q45 -23 128 -93q98 -83 82 -108l-36 -60q-15 -25 -144 9 q-108 28 -153 52l-46 23q-27 14 -34 45q-6 31 11 60z" />
<glyph unicode="&#xe1;" horiz-adv-x="838" d="M213 32q-84 0 -64 150l35 271q1 5 3 9q11 32 119 73q121 45 117 41l-52 -394q-19 -150 -103 -150h-55zM586 0q-13 40 -17 72q-3 32 4 66l31 243v0l44 342q13 96 -48 164q-62 68 -161 68h-157q-99 0 -178 -68t-92 -164l-11 -87h207l17 136q20 151 104 151h55q84 0 64 -151 l-17 -133q-5 -16 -21 -22q-33 -12 -127 -44q-190 -64 -244 -110q-68 -59 -82 -167l-9 -64q-12 -96 49 -164q62 -68 161 -68h138q23 2 42 13q9 6 28 25q5 -20 12 -37zM643 1293q10 -30 -5 -60q-14 -31 -45 -45l-52 -23q-51 -24 -167 -52q-137 -34 -146 -9l-21 59 q-9 26 111 109q101 69 153 93l51 23q31 14 60 4q30 -11 40 -40z" />
<glyph unicode="&#xe2;" horiz-adv-x="838" d="M267 32q84 0 104 150l51 394q5 4 -116 -41q-107 -41 -120 -73q-1 -4 -2 -9l-35 -271q-20 -150 64 -150h54zM377 1q-6 17 -12 37q-18 -19 -27 -25q-18 -11 -43 -13h-137q-100 0 -161 68t-49 164l9 64q14 108 83 167q52 46 243 110q94 32 128 44q15 6 19 22l18 133 q19 151 -65 151h-54q-84 0 -103 -151l-18 -136h-207l11 87q13 96 92 164q78 68 178 68h156q99 0 162 -68q61 -68 48 -164l-76 -585q-6 -34 -3 -66q4 -32 17 -72zM637 1189q22 -19 21 -50q-1 -30 -24 -54l-1 -1q-24 -24 -56 -27q-33 -3 -55 17l-143 124l-157 -111 q-30 -22 -60 -25t-43 15l-1 1q-13 17 0 45q12 27 42 48l198 141q23 16 47 22q23 6 40 0q27 -1 46 -17z" />
<glyph unicode="&#xe3;" horiz-adv-x="838" d="M268 32q84 0 103 150l52 394q4 4 -117 -41q-108 -41 -119 -73q-2 -4 -3 -9l-35 -271q-20 -150 64 -150h55zM378 1q-7 17 -12 37q-19 -19 -28 -25q-19 -11 -42 -13h-138q-99 0 -161 68q-61 68 -49 164l9 64q14 108 82 167q54 46 244 110q94 32 127 44q16 6 21 22l17 133 q20 151 -64 151h-55q-84 0 -104 -151l-17 -136h-207l11 87q13 96 92 164t178 68h157q99 0 161 -68q61 -68 48 -164l-44 -342v0l-31 -243q-7 -34 -4 -66q4 -32 17 -72zM790 1326l-111 -124q-71 -78 -170 -92q-98 -15 -167 44l6 -5v0l-11 9q-120 103 -198 30l-79 -47l-7 -5 l112 124q53 59 148 76q84 14 149 -11q32 -12 63 -38q93 -79 172 -29l86 63z" />
<glyph unicode="&#xe4;" horiz-adv-x="838" d="M213 32q-84 0 -64 150l35 271q1 5 3 9q11 32 119 73q121 45 117 41l-52 -394q-19 -150 -103 -150h-55zM586 0q-13 40 -17 72q-3 32 4 66l31 243v0l44 342q13 96 -48 164q-62 68 -161 68h-157q-99 0 -178 -68t-92 -164l-11 -87h207l17 136q20 151 104 151h55q84 0 64 -151 l-17 -133q-5 -16 -21 -22q-33 -12 -127 -44q-190 -64 -244 -110q-68 -59 -82 -167l-9 -64q-12 -96 49 -164q62 -68 161 -68h138q23 2 42 13q9 6 28 25q5 -20 12 -37zM651 1195q-4 -32 -30 -55t-59 -23h-54q-32 0 -52 23t-16 55l9 66q4 32 30 55t58 23h54q33 0 53 -23t15 -55 zM365 1195q-5 -32 -31 -55q-25 -23 -58 -23h-54q-32 0 -52 23t-16 55l8 66q5 32 31 55t58 23h54q32 0 52 -23t16 -55z" />
<glyph unicode="&#xe5;" horiz-adv-x="838" d="M268 32q84 0 103 150l52 394q4 4 -117 -41q-108 -41 -119 -73q-2 -4 -3 -9l-35 -271q-20 -150 64 -150h55zM378 1q-7 17 -12 37q-19 -19 -28 -25q-19 -11 -42 -13h-138q-99 0 -161 68q-61 68 -49 164l9 64q14 108 82 167q54 46 244 110q94 32 127 44q16 6 21 22l17 133 q20 151 -64 151h-55q-84 0 -104 -151l-17 -136h-207l11 87q13 96 92 164t178 68h157q99 0 161 -68q61 -68 48 -164l-44 -342v0l-31 -243q-7 -34 -4 -66q4 -32 17 -72zM527 1263q4 32 -16 55t-53 23h-54q-32 0 -58 -23t-30 -55l-9 -66q-4 -32 16 -55t53 -23h54q32 0 58 23 t30 55zM471 1373q42 0 68 -29q26 -30 21 -72l-11 -84q-6 -42 -40 -71q-33 -30 -75 -30h-71q-42 0 -68 30q-26 29 -21 71l11 84q6 42 39 72q34 29 76 29h71z" />
<glyph unicode="&#xe7;" horiz-adv-x="841" d="M161 -82q80 36 82 82h-89q-100 0 -161 68t-49 164l64 491q13 96 92 164q78 68 178 68h189q54 1 111 -9q58 -10 89 -46l-34 -264h-207l18 136q19 151 -65 151h-54q-84 0 -103 -151l-77 -590q-20 -150 64 -150h54q84 0 104 150l18 136h207l-35 -264q-40 -36 -101 -45 q-60 -10 -113 -9h-53q51 -61 37 -128q-14 -68 -91 -102l8 3v-1l-12 -5q-133 -60 -85 -126l22 -62l3 -6l-87 99q-42 48 -30 114q10 59 52 97q21 19 54 35z" />
<glyph unicode="&#xe8;" horiz-adv-x="844" d="M324 923q-84 0 -104 -151l-33 -258h223l33 258q20 151 -64 151h-55zM183 482l-39 -300q-20 -150 64 -150h55q84 0 103 150l18 136h207l-11 -86q-13 -96 -92 -164t-178 -68h-157q-99 0 -161 68q-61 68 -49 164l64 491q13 96 92 164t178 68h157q99 0 161 -68 q61 -68 48 -164l-31 -241h-429zM177 1350q18 29 50 40q32 10 59 -4l46 -23q45 -23 128 -93q98 -83 83 -108l-37 -60q-15 -25 -144 9q-108 28 -153 52l-46 23q-27 14 -34 45q-6 31 12 60z" />
<glyph unicode="&#xe9;" horiz-adv-x="844" d="M379 923q84 0 64 -151l-33 -258h-223l33 258q20 151 104 151h55zM612 482l31 241q13 96 -48 164q-62 68 -161 68h-157q-99 0 -178 -68t-92 -164l-64 -491q-12 -96 49 -164q62 -68 161 -68h157q99 0 178 68t92 164l11 86h-207l-18 -136q-19 -150 -103 -150h-55 q-84 0 -64 150l39 300h429zM603 1293q10 -30 -4 -60q-15 -31 -46 -45l-52 -23q-51 -24 -167 -52q-137 -34 -146 -9l-21 59q-9 26 111 109q101 69 153 93l51 23q31 14 61 4q29 -11 39 -40z" />
<glyph unicode="&#xea;" horiz-adv-x="844" d="M324 923q-84 0 -104 -151l-33 -258h223l33 258q20 151 -64 151h-55zM183 482l-39 -300q-20 -150 64 -150h55q84 0 103 150l18 136h207l-11 -86q-13 -96 -92 -164t-178 -68h-157q-99 0 -161 68q-61 68 -49 164l64 491q13 96 92 164t178 68h157q99 0 161 -68 q61 -68 48 -164l-31 -241h-429zM637 1189q22 -19 22 -50q-1 -30 -25 -54l-1 -1q-24 -24 -56 -27t-55 17l-142 124l-157 -111q-31 -22 -61 -25t-43 15l-1 1q-12 17 0 45q12 27 42 48l198 141q23 16 47 22q23 6 40 0q27 -1 46 -17z" />
<glyph unicode="&#xeb;" horiz-adv-x="844" d="M379 923q84 0 64 -151l-33 -258h-223l33 258q20 151 104 151h55zM612 482l31 241q13 96 -48 164q-62 68 -161 68h-157q-99 0 -178 -68t-92 -164l-64 -491q-12 -96 49 -164q62 -68 161 -68h157q99 0 178 68t92 164l11 86h-207l-18 -136q-19 -150 -103 -150h-55 q-84 0 -64 150l39 300h429zM631 1195q-4 -32 -30 -55t-59 -23h-54q-32 0 -52 23t-16 55l9 66q4 32 30 55t58 23h54q33 0 53 -23t16 -55zM345 1195q-5 -32 -30 -55q-26 -23 -59 -23h-54q-32 0 -52 23t-16 55l9 66q4 32 30 55t58 23h54q33 0 52 -23q20 -23 16 -55z" />
<glyph unicode="&#xec;" horiz-adv-x="427" d="M268 32l-4 -32h-477l4 32h135l116 891h-135l4 32h342l-120 -923h135zM7 1350q18 29 50 40q32 10 59 -4l46 -23q45 -23 128 -93q98 -83 83 -108l-37 -60q-15 -25 -144 9q-108 28 -153 52l-46 23q-27 14 -34 45q-6 31 12 60z" />
<glyph unicode="&#xed;" horiz-adv-x="427" d="M133 32l120 923h-342l-4 -32h135l-116 -891h-135l-4 -32h477l4 32h-135zM433 1293q10 -30 -4 -60q-15 -31 -46 -45l-52 -23q-51 -24 -167 -52q-137 -34 -146 -9l-21 59q-9 26 111 109q101 69 153 93l51 23q31 14 61 4q29 -11 39 -40z" />
<glyph unicode="&#xee;" horiz-adv-x="427" d="M268 32l-4 -32h-477l4 32h135l116 891h-135l4 32h342l-120 -923h135zM427 1189q22 -19 22 -50q-1 -30 -25 -54l-1 -1q-24 -24 -56 -27t-55 17l-142 124l-157 -111q-31 -22 -61 -25t-43 15l-1 1q-12 17 0 45q12 27 42 48l198 141q23 16 47 22q23 6 40 0q27 -1 46 -17z" />
<glyph unicode="&#xef;" horiz-adv-x="427" d="M133 32l120 923h-342l-4 -32h135l-116 -891h-135l-4 -32h477l4 32h-135zM431 1195q-4 -32 -30 -55t-59 -23h-54q-32 0 -52 23t-16 55l9 66q4 32 30 55t58 23h54q33 0 53 -23t15 -55zM145 1195q-5 -32 -30 -55q-26 -23 -59 -23h-54q-32 0 -52 23t-16 55l9 66q4 32 30 55 t58 23h54q33 0 52 -23q20 -23 16 -55z" />
<glyph unicode="&#xf1;" horiz-adv-x="843" d="M689 32l-4 -32h-342l100 775q20 151 -64 151h-55q-84 0 -103 -151l-97 -743h135l-4 -32h-477l4 32h135l102 784q7 34 4 66q-2 17 -8 41h-117l4 32h286v-2h26q7 -17 12 -37l1 -1q3 1 12 10q11 12 22 19q19 12 42 13h131q99 0 161 -68q61 -67 49 -163l-90 -694h135z M760 1326l-112 -124q-70 -78 -169 -92q-99 -15 -167 44l6 -5v0l-11 9q-120 103 -198 30l-79 -47l-7 -5l111 124q54 59 149 76q84 14 149 -11q32 -12 63 -38q93 -79 171 -29l87 63z" />
<glyph unicode="&#xf2;" horiz-adv-x="850" d="M445 772q20 151 -64 151h-55q-84 0 -104 -151l-76 -590q-20 -150 64 -150h55q84 0 103 150zM436 955q99 0 161 -68q61 -68 48 -164l-63 -491q-13 -96 -92 -164t-178 -68h-157q-99 0 -161 68q-61 68 -49 164l64 491q13 96 92 164t178 68h157zM225 1350q18 29 50 40 q32 10 60 -4l45 -23q45 -23 128 -93q99 -83 83 -108l-36 -60q-16 -25 -144 9q-108 28 -153 52l-46 23q-27 14 -34 45t11 60z" />
<glyph unicode="&#xf3;" horiz-adv-x="850" d="M368 182q-19 -150 -103 -150h-55q-84 0 -64 150l76 590q20 151 104 151h55q84 0 64 -151zM279 955q-99 0 -178 -68t-92 -164l-64 -491q-12 -96 49 -164q62 -68 161 -68h157q99 0 178 68t92 164l63 491q13 96 -48 164q-62 68 -161 68h-157zM621 1293q11 -30 -4 -60 q-15 -31 -46 -45l-51 -23q-52 -24 -167 -52q-137 -34 -146 -9l-21 59q-9 26 111 109q101 69 152 93l52 23q31 14 60 4q29 -11 40 -40z" />
<glyph unicode="&#xf4;" horiz-adv-x="1010" d="M637 1189q22 -19 21 -50q-1 -30 -24 -54l-2 -1q-23 -24 -56 -27q-32 -3 -54 17l-143 124l-157 -111q-30 -22 -60 -25q-31 -3 -43 15l-1 1q-13 17 -1 45q13 27 43 48l198 141q22 16 47 22q23 6 40 0q27 -1 45 -17zM446 772q20 151 -64 151h-55q-84 0 -104 -151l-76 -590 q-20 -150 64 -150h55q84 0 103 150zM437 955q99 0 161 -68q61 -68 48 -164l-63 -491q-13 -96 -92 -164t-178 -68h-157q-99 0 -161 68q-61 68 -49 164l64 491q13 96 92 164t178 68h157z" />
<glyph unicode="&#xf5;" horiz-adv-x="850" d="M446 772q20 151 -64 151h-55q-84 0 -104 -151l-76 -590q-20 -150 64 -150h55q84 0 103 150zM437 955q99 0 161 -68q61 -68 48 -164l-63 -491q-13 -96 -92 -164t-178 -68h-157q-99 0 -161 68q-61 68 -49 164l64 491q13 96 92 164t178 68h157zM780 1326l-112 -124 q-71 -78 -169 -92q-99 -15 -167 44l6 -5h-1l-10 9q-120 103 -198 30l-79 -47l-7 -5l111 124q54 59 148 76q85 14 150 -11q31 -12 63 -38q93 -79 171 -29l87 63z" />
<glyph unicode="&#xf6;" horiz-adv-x="850" d="M368 182q-19 -150 -103 -150h-55q-84 0 -64 150l76 590q20 151 104 151h55q84 0 64 -151zM279 955q-99 0 -178 -68t-92 -164l-64 -491q-12 -96 49 -164q62 -68 161 -68h157q99 0 178 68t92 164l63 491q13 96 -48 164q-62 68 -161 68h-157zM630 1195q-5 -32 -31 -55 t-58 -23h-54q-32 0 -52 23t-16 55l8 66q5 32 31 55q25 23 58 23h54q32 0 52 -23t16 -55zM343 1195q-4 -32 -30 -55t-58 -23h-54q-33 0 -53 23t-15 55l8 66q4 32 30 55t59 23h54q32 0 52 -23t16 -55z" />
<glyph unicode="&#xf9;" horiz-adv-x="844" d="M-101 926l4 31h342l-4 -31v0l-97 -744q-19 -150 65 -150h54q84 0 104 150l97 744h-136l5 31h341l-105 -815q-7 -35 -4 -67q2 -17 8 -40h117l-4 -32h-286v1h-26q-8 18 -12 38h-2q-2 0 -11 -9q-11 -12 -22 -20q-19 -11 -43 -13h-130q-100 0 -161 68t-49 164l90 694h-135z M226 1350q18 29 50 40q32 10 60 -4l45 -23q46 -23 128 -93q99 -83 83 -108l-36 -60q-15 -25 -144 9q-108 28 -153 52l-46 23q-27 14 -34 45t11 60z" />
<glyph unicode="&#xfa;" horiz-adv-x="844" d="M34 926l-90 -694q-12 -96 49 -164t161 -68h130q24 2 43 13q11 8 22 20q9 9 11 9h2q4 -20 12 -38h26v-1h286l4 32h-117q-6 23 -8 40q-3 32 4 67l105 815h-341l-5 -31h136l-97 -744q-20 -150 -104 -150h-54q-84 0 -65 150l97 744v0l4 31h-342l-4 -31h135zM613 1293 q10 -30 -5 -60q-14 -31 -45 -45l-52 -23q-51 -24 -167 -52q-137 -34 -146 -9l-21 59q-9 26 111 109q101 69 152 93l52 23q31 14 60 4q30 -11 40 -40z" />
<glyph unicode="&#xfb;" horiz-adv-x="844" d="M-101 926l4 31h342l-4 -31v0l-97 -744q-19 -150 65 -150h54q84 0 104 150l97 744h-136l5 31h341l-105 -815q-7 -35 -4 -67q2 -17 8 -40h117l-4 -32h-286v1h-26q-8 18 -12 38h-2q-2 0 -11 -9q-11 -12 -22 -20q-19 -11 -43 -13h-130q-100 0 -161 68t-49 164l90 694h-135z M627 1189q22 -19 21 -50q-1 -30 -24 -54l-1 -1q-24 -24 -56 -27q-33 -3 -55 17l-143 124l-157 -111q-30 -22 -60 -25t-43 15l-1 1q-13 17 0 45q12 27 42 48l198 141q23 16 47 22q23 6 40 0q27 -1 46 -17z" />
<glyph unicode="&#xfc;" horiz-adv-x="844" d="M34 926l-90 -694q-12 -96 49 -164t161 -68h130q24 2 43 13q11 8 22 20q9 9 11 9h2q4 -20 12 -38h26v-1h286l4 32h-117q-6 23 -8 40q-3 32 4 67l105 815h-341l-5 -31h136l-97 -744q-20 -150 -104 -150h-54q-84 0 -65 150l97 744v0l4 31h-342l-4 -31h135zM611 1195 q-4 -32 -30 -55t-59 -23h-54q-32 0 -52 23t-16 55l9 66q4 32 30 55t58 23h54q33 0 53 -23t15 -55zM324 1195q-4 -32 -30 -55t-58 -23h-54q-32 0 -52 23t-16 55l8 66q5 32 30 55q26 23 59 23h54q32 0 52 -23t16 -55z" />
<glyph unicode="&#xfd;" horiz-adv-x="847" d="M671 957h-341l-4 -31h135l-97 -744q0 -2 -2 -12h-1q0 -3 -1 -11q-22 -127 -99 -127h-55q-84 0 -65 150l97 744v0l4 31h-342l-4 -31h135l-49 -378v0l-41 -316q-12 -96 49 -164q62 -68 161 -68h189l-59 -454q-19 -150 -103 -150h-55q-84 0 -64 150l17 136h-206l-12 -86 q-12 -96 49 -164q62 -68 161 -68h157q99 0 178 68t92 164zM613 1293q11 -30 -4 -60q-15 -31 -46 -45l-51 -23q-52 -24 -167 -52q-138 -34 -146 -9l-21 59q-9 26 111 109q101 69 152 93l52 23q31 14 60 4q29 -11 39 -40z" />
<glyph unicode="&#xff;" horiz-adv-x="847" d="M671 957h-341l-4 -31h135l-97 -744q0 -2 -2 -12h-1q0 -3 -1 -11q-22 -127 -99 -127h-55q-84 0 -65 150l97 744v0l4 31h-342l-4 -31h135l-49 -378v0l-41 -316q-12 -96 49 -164q62 -68 161 -68h189l-59 -454q-19 -150 -103 -150h-55q-84 0 -64 150l17 136h-206l-12 -86 q-12 -96 49 -164q62 -68 161 -68h157q99 0 178 68t92 164zM621 1195q-4 -32 -30 -55t-58 -23h-54q-33 0 -53 23t-15 55l8 66q4 32 30 55t59 23h54q32 0 52 -23t16 -55zM335 1195q-4 -32 -30 -55t-58 -23h-54q-33 0 -53 23t-16 55l9 66q4 32 30 55t58 23h54q33 0 53 -23 t16 -55z" />
<glyph unicode="&#x2c6;" horiz-adv-x="678" d="M638 1189q22 -19 21 -50q-1 -30 -24 -54l-2 -1q-23 -24 -56 -27q-32 -3 -54 17l-143 124l-157 -111q-30 -22 -60 -25q-31 -3 -43 15l-1 1q-13 17 -1 45q13 27 43 48l198 141q22 16 46 22t41 0q27 -1 45 -17z" />
<glyph unicode="&#x2dc;" horiz-adv-x="771" d="M790 1326l-111 -124q-71 -78 -170 -92q-98 -15 -167 44l6 -5v0l-11 9q-120 103 -198 30l-79 -47l-7 -5l112 124q53 59 148 76q84 14 149 -11q32 -12 63 -38q93 -79 172 -29l86 63z" />
<glyph unicode="&#x2000;" horiz-adv-x="880" />
<glyph unicode="&#x2001;" horiz-adv-x="1760" />
<glyph unicode="&#x2002;" horiz-adv-x="880" />
<glyph unicode="&#x2003;" horiz-adv-x="1760" />
<glyph unicode="&#x2004;" horiz-adv-x="586" />
<glyph unicode="&#x2005;" horiz-adv-x="440" />
<glyph unicode="&#x2006;" horiz-adv-x="293" />
<glyph unicode="&#x2007;" horiz-adv-x="293" />
<glyph unicode="&#x2008;" horiz-adv-x="220" />
<glyph unicode="&#x2009;" horiz-adv-x="352" />
<glyph unicode="&#x200a;" horiz-adv-x="97" />
<glyph unicode="&#x2010;" horiz-adv-x="822" d="M589 429q-4 -33 -30 -56t-59 -23h-454q-32 0 -52 23t-16 56l9 65q4 33 30 56t58 23h454q33 0 53 -23t15 -56z" />
<glyph unicode="&#x2011;" horiz-adv-x="822" d="M589 429q-4 -33 -30 -56t-59 -23h-454q-32 0 -52 23t-16 56l9 65q4 33 30 56t58 23h454q33 0 53 -23t15 -56z" />
<glyph unicode="&#x2012;" horiz-adv-x="822" d="M589 429q-4 -33 -30 -56t-59 -23h-454q-32 0 -52 23t-16 56l9 65q4 33 30 56t58 23h454q33 0 53 -23t15 -56z" />
<glyph unicode="&#x2013;" horiz-adv-x="1225" d="M987 429q-6 -33 -49 -56t-98 -23h-749q-53 0 -86 23t-26 56l15 65q7 33 49 56q43 23 96 23h749q55 0 88 -23t24 -56z" />
<glyph unicode="&#x2014;" horiz-adv-x="2249" d="M1996 429q-13 -33 -99 -56q-85 -23 -194 -23h-1498q-106 0 -172 23t-53 56l30 65q13 33 99 56t191 23h1498q109 0 175 -23t50 -56z" />
<glyph unicode="&#x2018;" horiz-adv-x="399" d="M108 1533q31 67 85 116l125 111l-5 -7l-64 -86q-25 -39 -28 -76h27q33 0 53 -23q19 -23 15 -56l-9 -65q-5 -33 -31 -55q-26 -23 -58 -23h-54q-32 1 -52 24t-16 55z" />
<glyph unicode="&#x2019;" horiz-adv-x="399" d="M304 1427q-30 -67 -84 -116l-124 -112l5 7l63 87q25 38 28 75h-28q-32 0 -52 23t-16 55l9 66q4 33 30 55q26 23 58 23h54q33 0 53 -23q20 -22 15 -55z" />
<glyph unicode="&#x201a;" horiz-adv-x="424" d="M162 59q-30 -67 -84 -116l-124 -112l5 8l63 86q25 39 28 75h-28q-32 0 -52 23t-16 56l9 65q4 33 30 56t58 23h54q33 0 53 -23t15 -56z" />
<glyph unicode="&#x201c;" horiz-adv-x="672" d="M377 1522q31 67 86 115l126 109l-5 -7l-65 -85q-25 -39 -28 -75l27 -1q32 0 51 -24q20 -23 15 -56l-10 -65q-5 -33 -31 -55q-26 -23 -59 -22l-54 1q-32 1 -51 24q-20 23 -15 56zM108 1527q31 67 86 115l126 110l-5 -8l-65 -85q-25 -38 -29 -75h27q33 -1 52 -25 q20 -23 15 -55l-10 -66q-5 -32 -31 -55q-27 -22 -59 -22l-54 1q-32 1 -52 24q-19 24 -14 56z" />
<glyph unicode="&#x201d;" horiz-adv-x="672" d="M304 1427q-30 -67 -84 -116l-124 -112l5 7l63 87q25 38 28 75h-28q-32 0 -52 23t-16 55l9 66q4 33 30 55q26 23 58 23h54q33 0 53 -23q20 -22 15 -55zM574 1427q-30 -67 -84 -116l-124 -112l5 7l63 87q25 38 28 75h-28q-32 0 -52 23t-16 55l9 66q4 33 30 55q26 23 58 23 h54q33 0 53 -23q20 -22 15 -55z" />
<glyph unicode="&#x201e;" horiz-adv-x="594" d="M162 59q-30 -67 -84 -116l-124 -112l5 8l63 86q25 39 28 75h-28q-32 0 -52 23t-16 56l9 65q4 33 30 56t58 23h54q33 0 53 -23t15 -56zM452 59q-30 -67 -84 -116l-124 -112l5 8l63 86q25 39 28 75h-28q-32 0 -52 23t-16 56l9 65q4 33 30 56t58 23h54q33 0 53 -23t15 -56z " />
<glyph unicode="&#x202f;" horiz-adv-x="352" />
<glyph unicode="&#x205f;" horiz-adv-x="440" />
<glyph unicode="&#xe000;" horiz-adv-x="955" d="M0 955h955v-955h-955v955z" />
</font>
</defs>
</svg>
