<?xml version="1.0" standalone="no"?>
<!DOCTYPE svg PUBLIC "-//W3C//DTD SVG 1.1//EN" "http://www.w3.org/Graphics/SVG/1.1/DTD/svg11.dtd" >
<svg xmlns="http://www.w3.org/2000/svg">
<metadata></metadata>
<defs>
<font id="synthetique_otregular" horiz-adv-x="649" >
<font-face units-per-em="1000" ascent="800" descent="-200" />
<missing-glyph horiz-adv-x="295" />
<glyph unicode="&#xfb01;" horiz-adv-x="413" d="M-4 -89q0 13 9.5 22.5t23.5 9.5q13 0 22.5 -9.5t9.5 -22.5q0 -14 -9.5 -23.5t-22.5 -9.5t-23 10t-10 23zM55 29q0 13 9.5 22.5t23.5 9.5t23 -9.5t9 -22.5q0 -14 -9.5 -23.5t-22.5 -9.5q-14 0 -23.5 10t-9.5 23zM55 147q0 13 9.5 22.5t23.5 9.5t23 -9.5t9 -22.5 q0 -14 -9.5 -23.5t-22.5 -9.5q-14 0 -23.5 10t-9.5 23zM55 265q0 13 9.5 22.5t23.5 9.5t23 -9.5t9 -22.5q0 -14 -9.5 -23.5t-22.5 -9.5q-14 0 -23.5 10t-9.5 23zM55 383q0 13 9.5 22.5t23.5 9.5t23 -9.5t9 -22.5q0 -14 -9.5 -23.5t-22.5 -9.5q-14 0 -23.5 10t-9.5 23z M55 501q0 13 9.5 22.5t23.5 9.5t23 -9.5t9 -22.5q0 -14 -9.5 -23.5t-22.5 -9.5q-14 0 -23.5 10t-9.5 23zM55 619q0 13 9.5 22.5t23.5 9.5t23 -9.5t9 -22.5q0 -14 -9.5 -23.5t-22.5 -9.5q-14 0 -23.5 10t-9.5 23zM173 501q0 13 9.5 22.5t23.5 9.5t23 -9.5t9 -22.5 q0 -14 -9.5 -23.5t-22.5 -9.5q-14 0 -23.5 10t-9.5 23zM173 678q0 13 9.5 22.5t23.5 9.5t23 -9t9 -23t-9.5 -23.5t-22.5 -9.5q-14 0 -23.5 9.5t-9.5 23.5zM291 29q0 13 9.5 22.5t23.5 9.5t23 -9.5t9 -22.5q0 -14 -9.5 -23.5t-22.5 -9.5q-14 0 -23.5 10t-9.5 23zM291 147 q0 13 9.5 22.5t23.5 9.5t23 -9.5t9 -22.5q0 -14 -9.5 -23.5t-22.5 -9.5q-14 0 -23.5 10t-9.5 23zM291 265q0 13 9.5 22.5t23.5 9.5t23 -9.5t9 -22.5q0 -14 -9.5 -23.5t-22.5 -9.5q-14 0 -23.5 10t-9.5 23zM291 383q0 13 9.5 22.5t23.5 9.5t23 -9.5t9 -22.5q0 -14 -9.5 -23.5 t-22.5 -9.5q-14 0 -23.5 10t-9.5 23zM291 501q0 13 9.5 22.5t23.5 9.5t23 -9.5t9 -22.5q0 -14 -9.5 -23.5t-22.5 -9.5q-14 0 -23.5 10t-9.5 23zM291 678q0 13 9.5 22.5t23.5 9.5t23 -9t9 -23t-9.5 -23.5t-22.5 -9.5q-14 0 -23.5 9.5t-9.5 23.5z" />
<glyph unicode="&#xfb02;" horiz-adv-x="413" d="M-4 -89q0 13 9.5 22.5t23.5 9.5q13 0 22.5 -9.5t9.5 -22.5q0 -14 -9.5 -23.5t-22.5 -9.5t-23 10t-10 23zM55 29q0 13 9.5 22.5t23.5 9.5t23 -9.5t9 -22.5q0 -14 -9.5 -23.5t-22.5 -9.5q-14 0 -23.5 10t-9.5 23zM55 147q0 13 9.5 22.5t23.5 9.5t23 -9.5t9 -22.5 q0 -14 -9.5 -23.5t-22.5 -9.5q-14 0 -23.5 10t-9.5 23zM55 265q0 13 9.5 22.5t23.5 9.5t23 -9.5t9 -22.5q0 -14 -9.5 -23.5t-22.5 -9.5q-14 0 -23.5 10t-9.5 23zM55 383q0 13 9.5 22.5t23.5 9.5t23 -9.5t9 -22.5q0 -14 -9.5 -23.5t-22.5 -9.5q-14 0 -23.5 10t-9.5 23z M55 501q0 13 9.5 22.5t23.5 9.5t23 -9.5t9 -22.5q0 -14 -9.5 -23.5t-22.5 -9.5q-14 0 -23.5 10t-9.5 23zM55 619q0 13 9.5 22.5t23.5 9.5t23 -9.5t9 -22.5q0 -14 -9.5 -23.5t-22.5 -9.5q-14 0 -23.5 10t-9.5 23zM173 442q0 13 9.5 22.5t23.5 9.5t23 -9t9 -23t-9.5 -23.5 t-22.5 -9.5q-14 0 -23.5 9.5t-9.5 23.5zM173 678q0 13 9.5 22.5t23.5 9.5t23 -9t9 -23t-9.5 -23.5t-22.5 -9.5q-14 0 -23.5 9.5t-9.5 23.5zM291 -30q0 13 9.5 22.5t23.5 9.5t23 -9t9 -23t-9.5 -23.5t-22.5 -9.5q-14 0 -23.5 9.5t-9.5 23.5zM291 88q0 13 9.5 22.5t23.5 9.5 t23 -9t9 -23t-9.5 -23.5t-22.5 -9.5q-14 0 -23.5 9.5t-9.5 23.5zM291 206q0 13 9.5 22.5t23.5 9.5t23 -9t9 -23t-9.5 -23.5t-22.5 -9.5q-14 0 -23.5 9.5t-9.5 23.5zM291 324q0 13 9.5 22.5t23.5 9.5t23 -9t9 -23t-9.5 -23.5t-22.5 -9.5q-14 0 -23.5 9.5t-9.5 23.5zM291 442 q0 13 9.5 22.5t23.5 9.5t23 -9t9 -23t-9.5 -23.5t-22.5 -9.5q-14 0 -23.5 9.5t-9.5 23.5zM291 560q0 13 9.5 22.5t23.5 9.5t23 -9t9 -23t-9.5 -23.5t-22.5 -9.5q-14 0 -23.5 9.5t-9.5 23.5zM291 678q0 13 9.5 22.5t23.5 9.5t23 -9t9 -23t-9.5 -23.5t-22.5 -9.5 q-14 0 -23.5 9.5t-9.5 23.5z" />
<glyph horiz-adv-x="1000" />
<glyph horiz-adv-x="1000" />
<glyph unicode="&#xd;" horiz-adv-x="1000" />
<glyph unicode=" "  horiz-adv-x="295" />
<glyph unicode="&#x09;" horiz-adv-x="295" />
<glyph unicode="&#xa0;" horiz-adv-x="295" />
<glyph unicode="!" horiz-adv-x="177" d="M55 29q0 13 9.5 22.5t23.5 9.5t23 -9.5t9 -22.5q0 -14 -9.5 -23.5t-22.5 -9.5q-14 0 -23.5 10t-9.5 23zM55 265q0 13 9.5 22.5t23.5 9.5t23 -9.5t9 -22.5q0 -14 -9.5 -23.5t-22.5 -9.5q-14 0 -23.5 10t-9.5 23zM55 383q0 13 9.5 22.5t23.5 9.5t23 -9.5t9 -22.5 q0 -14 -9.5 -23.5t-22.5 -9.5q-14 0 -23.5 10t-9.5 23zM55 501q0 13 9.5 22.5t23.5 9.5t23 -9.5t9 -22.5q0 -14 -9.5 -23.5t-22.5 -9.5q-14 0 -23.5 10t-9.5 23z" />
<glyph unicode="&#x22;" horiz-adv-x="295" d="M55 560q0 13 9.5 22.5t23.5 9.5t23 -9t9 -23t-9.5 -23.5t-22.5 -9.5q-14 0 -23.5 9.5t-9.5 23.5zM55 678q0 13 9.5 22.5t23.5 9.5t23 -9t9 -23t-9.5 -23.5t-22.5 -9.5q-14 0 -23.5 9.5t-9.5 23.5zM173 560q0 13 9.5 22.5t23.5 9.5t23 -9t9 -23t-9.5 -23.5t-22.5 -9.5 q-14 0 -23.5 9.5t-9.5 23.5zM173 678q0 13 9.5 22.5t23.5 9.5t23 -9t9 -23t-9.5 -23.5t-22.5 -9.5q-14 0 -23.5 9.5t-9.5 23.5z" />
<glyph unicode="#" horiz-adv-x="708" d="M55 265q0 13 9.5 22.5t23.5 9.5t23 -9.5t9 -22.5q0 -14 -9.5 -23.5t-22.5 -9.5q-14 0 -23.5 10t-9.5 23zM114 147q0 13 9.5 22.5t23.5 9.5q13 0 22.5 -9.5t9.5 -22.5q0 -14 -9.5 -23.5t-22.5 -9.5t-23 10t-10 23zM114 383q0 13 9.5 22.5t23.5 9.5q13 0 22.5 -9.5 t9.5 -22.5q0 -14 -9.5 -23.5t-22.5 -9.5t-23 10t-10 23zM173 265q0 13 9.5 22.5t23.5 9.5t23 -9.5t9 -22.5q0 -14 -9.5 -23.5t-22.5 -9.5q-14 0 -23.5 10t-9.5 23zM232 383q0 13 9.5 22.5t23.5 9.5q13 0 22.5 -9.5t9.5 -22.5q0 -14 -9.5 -23.5t-22.5 -9.5t-23 10t-10 23z M291 265q0 13 9.5 22.5t23.5 9.5t23 -9.5t9 -22.5q0 -14 -9.5 -23.5t-22.5 -9.5q-14 0 -23.5 10t-9.5 23zM291 501q0 13 9.5 22.5t23.5 9.5t23 -9.5t9 -22.5q0 -14 -9.5 -23.5t-22.5 -9.5q-14 0 -23.5 10t-9.5 23zM350 147q0 13 9.5 22.5t23.5 9.5q13 0 22.5 -9.5t9.5 -22.5 q0 -14 -9.5 -23.5t-22.5 -9.5t-23 10t-10 23zM350 383q0 13 9.5 22.5t23.5 9.5q13 0 22.5 -9.5t9.5 -22.5q0 -14 -9.5 -23.5t-22.5 -9.5t-23 10t-10 23zM409 265q0 13 9.5 22.5t23.5 9.5t23 -9.5t9 -22.5q0 -14 -9.5 -23.5t-22.5 -9.5q-14 0 -23.5 10t-9.5 23zM468 383 q0 13 9.5 22.5t23.5 9.5q13 0 22.5 -9.5t9.5 -22.5q0 -14 -9.5 -23.5t-22.5 -9.5t-23 10t-10 23zM527 265q0 13 9.5 22.5t23.5 9.5t23 -9.5t9 -22.5q0 -14 -9.5 -23.5t-22.5 -9.5q-14 0 -23.5 10t-9.5 23zM527 501q0 13 9.5 22.5t23.5 9.5t23 -9.5t9 -22.5q0 -14 -9.5 -23.5 t-22.5 -9.5q-14 0 -23.5 10t-9.5 23zM586 383q0 13 9.5 22.5t23.5 9.5q13 0 22.5 -9.5t9.5 -22.5q0 -14 -9.5 -23.5t-22.5 -9.5t-23 10t-10 23z" />
<glyph unicode="$" horiz-adv-x="531" d="M55 29q0 13 9.5 22.5t23.5 9.5t23 -9.5t9 -22.5q0 -14 -9.5 -23.5t-22.5 -9.5q-14 0 -23.5 10t-9.5 23zM55 442q0 13 9.5 22.5t23.5 9.5t23 -9t9 -23t-9.5 -23.5t-22.5 -9.5q-14 0 -23.5 9.5t-9.5 23.5zM114 324q0 13 9.5 22.5t23.5 9.5q13 0 22.5 -9t9.5 -23t-9.5 -23.5 t-22.5 -9.5t-23 9.5t-10 23.5zM173 29q0 13 9.5 22.5t23.5 9.5t23 -9.5t9 -22.5q0 -14 -9.5 -23.5t-22.5 -9.5q-14 0 -23.5 10t-9.5 23zM173 501q0 13 9.5 22.5t23.5 9.5t23 -9.5t9 -22.5q0 -14 -9.5 -23.5t-22.5 -9.5q-14 0 -23.5 10t-9.5 23zM232 -89q0 13 9.5 22.5 t23.5 9.5q13 0 22.5 -9.5t9.5 -22.5q0 -14 -9.5 -23.5t-22.5 -9.5t-23 10t-10 23zM232 147q0 13 9.5 22.5t23.5 9.5q13 0 22.5 -9.5t9.5 -22.5q0 -14 -9.5 -23.5t-22.5 -9.5t-23 10t-10 23zM232 265q0 13 9.5 22.5t23.5 9.5q13 0 22.5 -9.5t9.5 -22.5q0 -14 -9.5 -23.5 t-22.5 -9.5t-23 10t-10 23zM232 383q0 13 9.5 22.5t23.5 9.5q13 0 22.5 -9.5t9.5 -22.5q0 -14 -9.5 -23.5t-22.5 -9.5t-23 10t-10 23zM232 619q0 13 9.5 22.5t23.5 9.5q13 0 22.5 -9.5t9.5 -22.5q0 -14 -9.5 -23.5t-22.5 -9.5t-23 10t-10 23zM291 29q0 13 9.5 22.5t23.5 9.5 t23 -9.5t9 -22.5q0 -14 -9.5 -23.5t-22.5 -9.5q-14 0 -23.5 10t-9.5 23zM291 501q0 13 9.5 22.5t23.5 9.5t23 -9.5t9 -22.5q0 -14 -9.5 -23.5t-22.5 -9.5q-14 0 -23.5 10t-9.5 23zM350 206q0 13 9.5 22.5t23.5 9.5q13 0 22.5 -9t9.5 -23t-9.5 -23.5t-22.5 -9.5t-23 9.5 t-10 23.5zM409 88q0 13 9.5 22.5t23.5 9.5t23 -9t9 -23t-9.5 -23.5t-22.5 -9.5q-14 0 -23.5 9.5t-9.5 23.5zM409 501q0 13 9.5 22.5t23.5 9.5t23 -9.5t9 -22.5q0 -14 -9.5 -23.5t-22.5 -9.5q-14 0 -23.5 10t-9.5 23z" />
<glyph unicode="%" d="M55 442q0 13 9.5 22.5t23.5 9.5t23 -9t9 -23t-9.5 -23.5t-22.5 -9.5q-14 0 -23.5 9.5t-9.5 23.5zM114 324q0 13 9.5 22.5t23.5 9.5q13 0 22.5 -9t9.5 -23t-9.5 -23.5t-22.5 -9.5t-23 9.5t-10 23.5zM173 29q0 13 9.5 22.5t23.5 9.5t23 -9.5t9 -22.5q0 -14 -9.5 -23.5 t-22.5 -9.5q-14 0 -23.5 10t-9.5 23zM173 501q0 13 9.5 22.5t23.5 9.5t23 -9.5t9 -22.5q0 -14 -9.5 -23.5t-22.5 -9.5q-14 0 -23.5 10t-9.5 23zM232 147q0 13 9.5 22.5t23.5 9.5q13 0 22.5 -9.5t9.5 -22.5q0 -14 -9.5 -23.5t-22.5 -9.5t-23 10t-10 23zM232 383 q0 13 9.5 22.5t23.5 9.5q13 0 22.5 -9.5t9.5 -22.5q0 -14 -9.5 -23.5t-22.5 -9.5t-23 10t-10 23zM291 265q0 13 9.5 22.5t23.5 9.5t23 -9.5t9 -22.5q0 -14 -9.5 -23.5t-22.5 -9.5q-14 0 -23.5 10t-9.5 23zM350 147q0 13 9.5 22.5t23.5 9.5q13 0 22.5 -9.5t9.5 -22.5 q0 -14 -9.5 -23.5t-22.5 -9.5t-23 10t-10 23zM350 383q0 13 9.5 22.5t23.5 9.5q13 0 22.5 -9.5t9.5 -22.5q0 -14 -9.5 -23.5t-22.5 -9.5t-23 10t-10 23zM409 29q0 13 9.5 22.5t23.5 9.5t23 -9.5t9 -22.5q0 -14 -9.5 -23.5t-22.5 -9.5q-14 0 -23.5 10t-9.5 23zM409 501 q0 13 9.5 22.5t23.5 9.5t23 -9.5t9 -22.5q0 -14 -9.5 -23.5t-22.5 -9.5q-14 0 -23.5 10t-9.5 23zM468 206q0 13 9.5 22.5t23.5 9.5q13 0 22.5 -9t9.5 -23t-9.5 -23.5t-22.5 -9.5t-23 9.5t-10 23.5zM527 88q0 13 9.5 22.5t23.5 9.5t23 -9t9 -23t-9.5 -23.5t-22.5 -9.5 q-14 0 -23.5 9.5t-9.5 23.5z" />
<glyph unicode="&#x26;" horiz-adv-x="767" d="M55 147q0 13 9.5 22.5t23.5 9.5t23 -9.5t9 -22.5q0 -14 -9.5 -23.5t-22.5 -9.5q-14 0 -23.5 10t-9.5 23zM173 29q0 13 9.5 22.5t23.5 9.5t23 -9.5t9 -22.5q0 -14 -9.5 -23.5t-22.5 -9.5q-14 0 -23.5 10t-9.5 23zM173 206q0 13 9.5 22.5t23.5 9.5t23 -9t9 -23t-9.5 -23.5 t-22.5 -9.5q-14 0 -23.5 9.5t-9.5 23.5zM173 324q0 13 9.5 22.5t23.5 9.5t23 -9t9 -23t-9.5 -23.5t-22.5 -9.5q-14 0 -23.5 9.5t-9.5 23.5zM173 442q0 13 9.5 22.5t23.5 9.5t23 -9t9 -23t-9.5 -23.5t-22.5 -9.5q-14 0 -23.5 9.5t-9.5 23.5zM291 29q0 13 9.5 22.5t23.5 9.5 t23 -9.5t9 -22.5q0 -14 -9.5 -23.5t-22.5 -9.5q-14 0 -23.5 10t-9.5 23zM291 265q0 13 9.5 22.5t23.5 9.5t23 -9.5t9 -22.5q0 -14 -9.5 -23.5t-22.5 -9.5q-14 0 -23.5 10t-9.5 23zM291 501q0 13 9.5 22.5t23.5 9.5t23 -9.5t9 -22.5q0 -14 -9.5 -23.5t-22.5 -9.5 q-14 0 -23.5 10t-9.5 23zM409 29q0 13 9.5 22.5t23.5 9.5t23 -9.5t9 -22.5q0 -14 -9.5 -23.5t-22.5 -9.5q-14 0 -23.5 10t-9.5 23zM409 206q0 13 9.5 22.5t23.5 9.5t23 -9t9 -23t-9.5 -23.5t-22.5 -9.5q-14 0 -23.5 9.5t-9.5 23.5zM409 324q0 13 9.5 22.5t23.5 9.5t23 -9 t9 -23t-9.5 -23.5t-22.5 -9.5q-14 0 -23.5 9.5t-9.5 23.5zM409 501q0 13 9.5 22.5t23.5 9.5t23 -9.5t9 -22.5q0 -14 -9.5 -23.5t-22.5 -9.5q-14 0 -23.5 10t-9.5 23zM527 88q0 13 9.5 22.5t23.5 9.5t23 -9t9 -23t-9.5 -23.5t-22.5 -9.5q-14 0 -23.5 9.5t-9.5 23.5zM527 383 q0 13 9.5 22.5t23.5 9.5t23 -9.5t9 -22.5q0 -14 -9.5 -23.5t-22.5 -9.5q-14 0 -23.5 10t-9.5 23zM645 29q0 13 9.5 22.5t23.5 9.5t23 -9.5t9 -22.5q0 -14 -9.5 -23.5t-22.5 -9.5q-14 0 -23.5 10t-9.5 23zM645 206q0 13 9.5 22.5t23.5 9.5t23 -9t9 -23t-9.5 -23.5t-22.5 -9.5 q-14 0 -23.5 9.5t-9.5 23.5z" />
<glyph unicode="'" horiz-adv-x="177" d="M55 560q0 13 9.5 22.5t23.5 9.5t23 -9t9 -23t-9.5 -23.5t-22.5 -9.5q-14 0 -23.5 9.5t-9.5 23.5zM55 678q0 13 9.5 22.5t23.5 9.5t23 -9t9 -23t-9.5 -23.5t-22.5 -9.5q-14 0 -23.5 9.5t-9.5 23.5z" />
<glyph unicode="(" horiz-adv-x="354" d="M55 206q0 13 9.5 22.5t23.5 9.5t23 -9t9 -23t-9.5 -23.5t-22.5 -9.5q-14 0 -23.5 9.5t-9.5 23.5zM55 324q0 13 9.5 22.5t23.5 9.5t23 -9t9 -23t-9.5 -23.5t-22.5 -9.5q-14 0 -23.5 9.5t-9.5 23.5zM114 88q0 13 9.5 22.5t23.5 9.5q13 0 22.5 -9t9.5 -23t-9.5 -23.5 t-22.5 -9.5t-23 9.5t-10 23.5zM114 442q0 13 9.5 22.5t23.5 9.5q13 0 22.5 -9t9.5 -23t-9.5 -23.5t-22.5 -9.5t-23 9.5t-10 23.5zM232 29q0 13 9.5 22.5t23.5 9.5q13 0 22.5 -9.5t9.5 -22.5q0 -14 -9.5 -23.5t-22.5 -9.5t-23 10t-10 23zM232 501q0 13 9.5 22.5t23.5 9.5 q13 0 22.5 -9.5t9.5 -22.5q0 -14 -9.5 -23.5t-22.5 -9.5t-23 10t-10 23z" />
<glyph unicode=")" horiz-adv-x="354" d="M55 29q0 13 9.5 22.5t23.5 9.5t23 -9.5t9 -22.5q0 -14 -9.5 -23.5t-22.5 -9.5q-14 0 -23.5 10t-9.5 23zM55 501q0 13 9.5 22.5t23.5 9.5t23 -9.5t9 -22.5q0 -14 -9.5 -23.5t-22.5 -9.5q-14 0 -23.5 10t-9.5 23zM173 88q0 13 9.5 22.5t23.5 9.5t23 -9t9 -23t-9.5 -23.5 t-22.5 -9.5q-14 0 -23.5 9.5t-9.5 23.5zM173 442q0 13 9.5 22.5t23.5 9.5t23 -9t9 -23t-9.5 -23.5t-22.5 -9.5q-14 0 -23.5 9.5t-9.5 23.5zM232 206q0 13 9.5 22.5t23.5 9.5q13 0 22.5 -9t9.5 -23t-9.5 -23.5t-22.5 -9.5t-23 9.5t-10 23.5zM232 324q0 13 9.5 22.5t23.5 9.5 q13 0 22.5 -9t9.5 -23t-9.5 -23.5t-22.5 -9.5t-23 9.5t-10 23.5z" />
<glyph unicode="*" d="M55 29q0 13 9.5 22.5t23.5 9.5t23 -9.5t9 -22.5q0 -14 -9.5 -23.5t-22.5 -9.5q-14 0 -23.5 10t-9.5 23zM55 265q0 13 9.5 22.5t23.5 9.5t23 -9.5t9 -22.5q0 -14 -9.5 -23.5t-22.5 -9.5q-14 0 -23.5 10t-9.5 23zM55 501q0 13 9.5 22.5t23.5 9.5t23 -9.5t9 -22.5 q0 -14 -9.5 -23.5t-22.5 -9.5q-14 0 -23.5 10t-9.5 23zM173 147q0 13 9.5 22.5t23.5 9.5t23 -9.5t9 -22.5q0 -14 -9.5 -23.5t-22.5 -9.5q-14 0 -23.5 10t-9.5 23zM173 265q0 13 9.5 22.5t23.5 9.5t23 -9.5t9 -22.5q0 -14 -9.5 -23.5t-22.5 -9.5q-14 0 -23.5 10t-9.5 23z M173 383q0 13 9.5 22.5t23.5 9.5t23 -9.5t9 -22.5q0 -14 -9.5 -23.5t-22.5 -9.5q-14 0 -23.5 10t-9.5 23zM291 29q0 13 9.5 22.5t23.5 9.5t23 -9.5t9 -22.5q0 -14 -9.5 -23.5t-22.5 -9.5q-14 0 -23.5 10t-9.5 23zM291 147q0 13 9.5 22.5t23.5 9.5t23 -9.5t9 -22.5 q0 -14 -9.5 -23.5t-22.5 -9.5q-14 0 -23.5 10t-9.5 23zM291 265q0 13 9.5 22.5t23.5 9.5t23 -9.5t9 -22.5q0 -14 -9.5 -23.5t-22.5 -9.5q-14 0 -23.5 10t-9.5 23zM291 383q0 13 9.5 22.5t23.5 9.5t23 -9.5t9 -22.5q0 -14 -9.5 -23.5t-22.5 -9.5q-14 0 -23.5 10t-9.5 23z M291 501q0 13 9.5 22.5t23.5 9.5t23 -9.5t9 -22.5q0 -14 -9.5 -23.5t-22.5 -9.5q-14 0 -23.5 10t-9.5 23zM409 147q0 13 9.5 22.5t23.5 9.5t23 -9.5t9 -22.5q0 -14 -9.5 -23.5t-22.5 -9.5q-14 0 -23.5 10t-9.5 23zM409 265q0 13 9.5 22.5t23.5 9.5t23 -9.5t9 -22.5 q0 -14 -9.5 -23.5t-22.5 -9.5q-14 0 -23.5 10t-9.5 23zM409 383q0 13 9.5 22.5t23.5 9.5t23 -9.5t9 -22.5q0 -14 -9.5 -23.5t-22.5 -9.5q-14 0 -23.5 10t-9.5 23zM527 29q0 13 9.5 22.5t23.5 9.5t23 -9.5t9 -22.5q0 -14 -9.5 -23.5t-22.5 -9.5q-14 0 -23.5 10t-9.5 23z M527 265q0 13 9.5 22.5t23.5 9.5t23 -9.5t9 -22.5q0 -14 -9.5 -23.5t-22.5 -9.5q-14 0 -23.5 10t-9.5 23zM527 501q0 13 9.5 22.5t23.5 9.5t23 -9.5t9 -22.5q0 -14 -9.5 -23.5t-22.5 -9.5q-14 0 -23.5 10t-9.5 23z" />
<glyph unicode="+" d="M55 265q0 13 9.5 22.5t23.5 9.5t23 -9.5t9 -22.5q0 -14 -9.5 -23.5t-22.5 -9.5q-14 0 -23.5 10t-9.5 23zM173 265q0 13 9.5 22.5t23.5 9.5t23 -9.5t9 -22.5q0 -14 -9.5 -23.5t-22.5 -9.5q-14 0 -23.5 10t-9.5 23zM291 29q0 13 9.5 22.5t23.5 9.5t23 -9.5t9 -22.5 q0 -14 -9.5 -23.5t-22.5 -9.5q-14 0 -23.5 10t-9.5 23zM291 147q0 13 9.5 22.5t23.5 9.5t23 -9.5t9 -22.5q0 -14 -9.5 -23.5t-22.5 -9.5q-14 0 -23.5 10t-9.5 23zM291 265q0 13 9.5 22.5t23.5 9.5t23 -9.5t9 -22.5q0 -14 -9.5 -23.5t-22.5 -9.5q-14 0 -23.5 10t-9.5 23z M291 383q0 13 9.5 22.5t23.5 9.5t23 -9.5t9 -22.5q0 -14 -9.5 -23.5t-22.5 -9.5q-14 0 -23.5 10t-9.5 23zM291 501q0 13 9.5 22.5t23.5 9.5t23 -9.5t9 -22.5q0 -14 -9.5 -23.5t-22.5 -9.5q-14 0 -23.5 10t-9.5 23zM409 265q0 13 9.5 22.5t23.5 9.5t23 -9.5t9 -22.5 q0 -14 -9.5 -23.5t-22.5 -9.5q-14 0 -23.5 10t-9.5 23zM527 265q0 13 9.5 22.5t23.5 9.5t23 -9.5t9 -22.5q0 -14 -9.5 -23.5t-22.5 -9.5q-14 0 -23.5 10t-9.5 23z" />
<glyph unicode="," horiz-adv-x="177" d="M-4 -89q0 13 9.5 22.5t23.5 9.5q13 0 22.5 -9.5t9.5 -22.5q0 -14 -9.5 -23.5t-22.5 -9.5t-23 10t-10 23zM55 29q0 13 9.5 22.5t23.5 9.5t23 -9.5t9 -22.5q0 -14 -9.5 -23.5t-22.5 -9.5q-14 0 -23.5 10t-9.5 23z" />
<glyph unicode="-" horiz-adv-x="531" d="M55 265q0 13 9.5 22.5t23.5 9.5t23 -9.5t9 -22.5q0 -14 -9.5 -23.5t-22.5 -9.5q-14 0 -23.5 10t-9.5 23zM173 265q0 13 9.5 22.5t23.5 9.5t23 -9.5t9 -22.5q0 -14 -9.5 -23.5t-22.5 -9.5q-14 0 -23.5 10t-9.5 23zM291 265q0 13 9.5 22.5t23.5 9.5t23 -9.5t9 -22.5 q0 -14 -9.5 -23.5t-22.5 -9.5q-14 0 -23.5 10t-9.5 23zM409 265q0 13 9.5 22.5t23.5 9.5t23 -9.5t9 -22.5q0 -14 -9.5 -23.5t-22.5 -9.5q-14 0 -23.5 10t-9.5 23z" />
<glyph unicode="." horiz-adv-x="177" d="M55 29q0 13 9.5 22.5t23.5 9.5t23 -9.5t9 -22.5q0 -14 -9.5 -23.5t-22.5 -9.5q-14 0 -23.5 10t-9.5 23z" />
<glyph unicode="/" horiz-adv-x="413" d="M55 29q0 13 9.5 22.5t23.5 9.5t23 -9.5t9 -22.5q0 -14 -9.5 -23.5t-22.5 -9.5q-14 0 -23.5 10t-9.5 23zM114 147q0 13 9.5 22.5t23.5 9.5q13 0 22.5 -9.5t9.5 -22.5q0 -14 -9.5 -23.5t-22.5 -9.5t-23 10t-10 23zM173 265q0 13 9.5 22.5t23.5 9.5t23 -9.5t9 -22.5 q0 -14 -9.5 -23.5t-22.5 -9.5q-14 0 -23.5 10t-9.5 23zM232 383q0 13 9.5 22.5t23.5 9.5q13 0 22.5 -9.5t9.5 -22.5q0 -14 -9.5 -23.5t-22.5 -9.5t-23 10t-10 23zM291 501q0 13 9.5 22.5t23.5 9.5t23 -9.5t9 -22.5q0 -14 -9.5 -23.5t-22.5 -9.5q-14 0 -23.5 10t-9.5 23z" />
<glyph unicode="0" d="M55 206q0 13 9.5 22.5t23.5 9.5t23 -9t9 -23t-9.5 -23.5t-22.5 -9.5q-14 0 -23.5 9.5t-9.5 23.5zM55 324q0 13 9.5 22.5t23.5 9.5t23 -9t9 -23t-9.5 -23.5t-22.5 -9.5q-14 0 -23.5 9.5t-9.5 23.5zM114 88q0 13 9.5 22.5t23.5 9.5q13 0 22.5 -9t9.5 -23t-9.5 -23.5 t-22.5 -9.5t-23 9.5t-10 23.5zM114 442q0 13 9.5 22.5t23.5 9.5q13 0 22.5 -9t9.5 -23t-9.5 -23.5t-22.5 -9.5t-23 9.5t-10 23.5zM232 29q0 13 9.5 22.5t23.5 9.5q13 0 22.5 -9.5t9.5 -22.5q0 -14 -9.5 -23.5t-22.5 -9.5t-23 10t-10 23zM232 501q0 13 9.5 22.5t23.5 9.5 q13 0 22.5 -9.5t9.5 -22.5q0 -14 -9.5 -23.5t-22.5 -9.5t-23 10t-10 23zM350 29q0 13 9.5 22.5t23.5 9.5q13 0 22.5 -9.5t9.5 -22.5q0 -14 -9.5 -23.5t-22.5 -9.5t-23 10t-10 23zM350 501q0 13 9.5 22.5t23.5 9.5q13 0 22.5 -9.5t9.5 -22.5q0 -14 -9.5 -23.5t-22.5 -9.5 t-23 10t-10 23zM468 88q0 13 9.5 22.5t23.5 9.5q13 0 22.5 -9t9.5 -23t-9.5 -23.5t-22.5 -9.5t-23 9.5t-10 23.5zM468 442q0 13 9.5 22.5t23.5 9.5q13 0 22.5 -9t9.5 -23t-9.5 -23.5t-22.5 -9.5t-23 9.5t-10 23.5zM527 206q0 13 9.5 22.5t23.5 9.5t23 -9t9 -23t-9.5 -23.5 t-22.5 -9.5q-14 0 -23.5 9.5t-9.5 23.5zM527 324q0 13 9.5 22.5t23.5 9.5t23 -9t9 -23t-9.5 -23.5t-22.5 -9.5q-14 0 -23.5 9.5t-9.5 23.5z" />
<glyph unicode="1" horiz-adv-x="413" d="M55 29q0 13 9.5 22.5t23.5 9.5t23 -9.5t9 -22.5q0 -14 -9.5 -23.5t-22.5 -9.5q-14 0 -23.5 10t-9.5 23zM55 442q0 13 9.5 22.5t23.5 9.5t23 -9t9 -23t-9.5 -23.5t-22.5 -9.5q-14 0 -23.5 9.5t-9.5 23.5zM173 29q0 13 9.5 22.5t23.5 9.5t23 -9.5t9 -22.5q0 -14 -9.5 -23.5 t-22.5 -9.5q-14 0 -23.5 10t-9.5 23zM173 147q0 13 9.5 22.5t23.5 9.5t23 -9.5t9 -22.5q0 -14 -9.5 -23.5t-22.5 -9.5q-14 0 -23.5 10t-9.5 23zM173 265q0 13 9.5 22.5t23.5 9.5t23 -9.5t9 -22.5q0 -14 -9.5 -23.5t-22.5 -9.5q-14 0 -23.5 10t-9.5 23zM173 383 q0 13 9.5 22.5t23.5 9.5t23 -9.5t9 -22.5q0 -14 -9.5 -23.5t-22.5 -9.5q-14 0 -23.5 10t-9.5 23zM173 501q0 13 9.5 22.5t23.5 9.5t23 -9.5t9 -22.5q0 -14 -9.5 -23.5t-22.5 -9.5q-14 0 -23.5 10t-9.5 23zM291 29q0 13 9.5 22.5t23.5 9.5t23 -9.5t9 -22.5q0 -14 -9.5 -23.5 t-22.5 -9.5q-14 0 -23.5 10t-9.5 23z" />
<glyph unicode="2" horiz-adv-x="531" d="M55 29q0 13 9.5 22.5t23.5 9.5t23 -9.5t9 -22.5q0 -14 -9.5 -23.5t-22.5 -9.5q-14 0 -23.5 10t-9.5 23zM55 147q0 13 9.5 22.5t23.5 9.5t23 -9.5t9 -22.5q0 -14 -9.5 -23.5t-22.5 -9.5q-14 0 -23.5 10t-9.5 23zM55 501q0 13 9.5 22.5t23.5 9.5t23 -9.5t9 -22.5 q0 -14 -9.5 -23.5t-22.5 -9.5q-14 0 -23.5 10t-9.5 23zM173 29q0 13 9.5 22.5t23.5 9.5t23 -9.5t9 -22.5q0 -14 -9.5 -23.5t-22.5 -9.5q-14 0 -23.5 10t-9.5 23zM173 206q0 13 9.5 22.5t23.5 9.5t23 -9t9 -23t-9.5 -23.5t-22.5 -9.5q-14 0 -23.5 9.5t-9.5 23.5zM173 501 q0 13 9.5 22.5t23.5 9.5t23 -9.5t9 -22.5q0 -14 -9.5 -23.5t-22.5 -9.5q-14 0 -23.5 10t-9.5 23zM291 29q0 13 9.5 22.5t23.5 9.5t23 -9.5t9 -22.5q0 -14 -9.5 -23.5t-22.5 -9.5q-14 0 -23.5 10t-9.5 23zM291 265q0 13 9.5 22.5t23.5 9.5t23 -9.5t9 -22.5q0 -14 -9.5 -23.5 t-22.5 -9.5q-14 0 -23.5 10t-9.5 23zM291 501q0 13 9.5 22.5t23.5 9.5t23 -9.5t9 -22.5q0 -14 -9.5 -23.5t-22.5 -9.5q-14 0 -23.5 10t-9.5 23zM409 29q0 13 9.5 22.5t23.5 9.5t23 -9.5t9 -22.5q0 -14 -9.5 -23.5t-22.5 -9.5q-14 0 -23.5 10t-9.5 23zM409 383q0 13 9.5 22.5 t23.5 9.5t23 -9.5t9 -22.5q0 -14 -9.5 -23.5t-22.5 -9.5q-14 0 -23.5 10t-9.5 23z" />
<glyph unicode="3" d="M55 29q0 13 9.5 22.5t23.5 9.5t23 -9.5t9 -22.5q0 -14 -9.5 -23.5t-22.5 -9.5q-14 0 -23.5 10t-9.5 23zM55 501q0 13 9.5 22.5t23.5 9.5t23 -9.5t9 -22.5q0 -14 -9.5 -23.5t-22.5 -9.5q-14 0 -23.5 10t-9.5 23zM173 29q0 13 9.5 22.5t23.5 9.5t23 -9.5t9 -22.5 q0 -14 -9.5 -23.5t-22.5 -9.5q-14 0 -23.5 10t-9.5 23zM173 265q0 13 9.5 22.5t23.5 9.5t23 -9.5t9 -22.5q0 -14 -9.5 -23.5t-22.5 -9.5q-14 0 -23.5 10t-9.5 23zM173 501q0 13 9.5 22.5t23.5 9.5t23 -9.5t9 -22.5q0 -14 -9.5 -23.5t-22.5 -9.5q-14 0 -23.5 10t-9.5 23z M291 29q0 13 9.5 22.5t23.5 9.5t23 -9.5t9 -22.5q0 -14 -9.5 -23.5t-22.5 -9.5q-14 0 -23.5 10t-9.5 23zM291 265q0 13 9.5 22.5t23.5 9.5t23 -9.5t9 -22.5q0 -14 -9.5 -23.5t-22.5 -9.5q-14 0 -23.5 10t-9.5 23zM291 501q0 13 9.5 22.5t23.5 9.5t23 -9.5t9 -22.5 q0 -14 -9.5 -23.5t-22.5 -9.5q-14 0 -23.5 10t-9.5 23zM409 29q0 13 9.5 22.5t23.5 9.5t23 -9.5t9 -22.5q0 -14 -9.5 -23.5t-22.5 -9.5q-14 0 -23.5 10t-9.5 23zM409 265q0 13 9.5 22.5t23.5 9.5t23 -9.5t9 -22.5q0 -14 -9.5 -23.5t-22.5 -9.5q-14 0 -23.5 10t-9.5 23z M409 501q0 13 9.5 22.5t23.5 9.5t23 -9.5t9 -22.5q0 -14 -9.5 -23.5t-22.5 -9.5q-14 0 -23.5 10t-9.5 23zM468 383q0 13 9.5 22.5t23.5 9.5q13 0 22.5 -9.5t9.5 -22.5q0 -14 -9.5 -23.5t-22.5 -9.5t-23 10t-10 23zM527 147q0 13 9.5 22.5t23.5 9.5t23 -9.5t9 -22.5 q0 -14 -9.5 -23.5t-22.5 -9.5q-14 0 -23.5 10t-9.5 23zM527 265q0 13 9.5 22.5t23.5 9.5t23 -9.5t9 -22.5q0 -14 -9.5 -23.5t-22.5 -9.5q-14 0 -23.5 10t-9.5 23z" />
<glyph unicode="4" d="M55 147q0 13 9.5 22.5t23.5 9.5t23 -9.5t9 -22.5q0 -14 -9.5 -23.5t-22.5 -9.5q-14 0 -23.5 10t-9.5 23zM55 265q0 13 9.5 22.5t23.5 9.5t23 -9.5t9 -22.5q0 -14 -9.5 -23.5t-22.5 -9.5q-14 0 -23.5 10t-9.5 23zM173 147q0 13 9.5 22.5t23.5 9.5t23 -9.5t9 -22.5 q0 -14 -9.5 -23.5t-22.5 -9.5q-14 0 -23.5 10t-9.5 23zM173 383q0 13 9.5 22.5t23.5 9.5t23 -9.5t9 -22.5q0 -14 -9.5 -23.5t-22.5 -9.5q-14 0 -23.5 10t-9.5 23zM291 147q0 13 9.5 22.5t23.5 9.5t23 -9.5t9 -22.5q0 -14 -9.5 -23.5t-22.5 -9.5q-14 0 -23.5 10t-9.5 23z M291 442q0 13 9.5 22.5t23.5 9.5t23 -9t9 -23t-9.5 -23.5t-22.5 -9.5q-14 0 -23.5 9.5t-9.5 23.5zM409 -30q0 13 9.5 22.5t23.5 9.5t23 -9t9 -23t-9.5 -23.5t-22.5 -9.5q-14 0 -23.5 9.5t-9.5 23.5zM409 88q0 13 9.5 22.5t23.5 9.5t23 -9t9 -23t-9.5 -23.5t-22.5 -9.5 q-14 0 -23.5 9.5t-9.5 23.5zM409 206q0 13 9.5 22.5t23.5 9.5t23 -9t9 -23t-9.5 -23.5t-22.5 -9.5q-14 0 -23.5 9.5t-9.5 23.5zM409 324q0 13 9.5 22.5t23.5 9.5t23 -9t9 -23t-9.5 -23.5t-22.5 -9.5q-14 0 -23.5 9.5t-9.5 23.5zM409 442q0 13 9.5 22.5t23.5 9.5t23 -9t9 -23 t-9.5 -23.5t-22.5 -9.5q-14 0 -23.5 9.5t-9.5 23.5zM409 560q0 13 9.5 22.5t23.5 9.5t23 -9t9 -23t-9.5 -23.5t-22.5 -9.5q-14 0 -23.5 9.5t-9.5 23.5zM527 147q0 13 9.5 22.5t23.5 9.5t23 -9.5t9 -22.5q0 -14 -9.5 -23.5t-22.5 -9.5q-14 0 -23.5 10t-9.5 23z" />
<glyph unicode="5" horiz-adv-x="531" d="M55 88q0 13 9.5 22.5t23.5 9.5t23 -9t9 -23t-9.5 -23.5t-22.5 -9.5q-14 0 -23.5 9.5t-9.5 23.5zM55 265q0 13 9.5 22.5t23.5 9.5t23 -9.5t9 -22.5q0 -14 -9.5 -23.5t-22.5 -9.5q-14 0 -23.5 10t-9.5 23zM55 383q0 13 9.5 22.5t23.5 9.5t23 -9.5t9 -22.5q0 -14 -9.5 -23.5 t-22.5 -9.5q-14 0 -23.5 10t-9.5 23zM55 501q0 13 9.5 22.5t23.5 9.5t23 -9.5t9 -22.5q0 -14 -9.5 -23.5t-22.5 -9.5q-14 0 -23.5 10t-9.5 23zM173 29q0 13 9.5 22.5t23.5 9.5t23 -9.5t9 -22.5q0 -14 -9.5 -23.5t-22.5 -9.5q-14 0 -23.5 10t-9.5 23zM173 324q0 13 9.5 22.5 t23.5 9.5t23 -9t9 -23t-9.5 -23.5t-22.5 -9.5q-14 0 -23.5 9.5t-9.5 23.5zM173 501q0 13 9.5 22.5t23.5 9.5t23 -9.5t9 -22.5q0 -14 -9.5 -23.5t-22.5 -9.5q-14 0 -23.5 10t-9.5 23zM291 29q0 13 9.5 22.5t23.5 9.5t23 -9.5t9 -22.5q0 -14 -9.5 -23.5t-22.5 -9.5 q-14 0 -23.5 10t-9.5 23zM291 324q0 13 9.5 22.5t23.5 9.5t23 -9t9 -23t-9.5 -23.5t-22.5 -9.5q-14 0 -23.5 9.5t-9.5 23.5zM291 501q0 13 9.5 22.5t23.5 9.5t23 -9.5t9 -22.5q0 -14 -9.5 -23.5t-22.5 -9.5q-14 0 -23.5 10t-9.5 23zM409 88q0 13 9.5 22.5t23.5 9.5t23 -9 t9 -23t-9.5 -23.5t-22.5 -9.5q-14 0 -23.5 9.5t-9.5 23.5zM409 265q0 13 9.5 22.5t23.5 9.5t23 -9.5t9 -22.5q0 -14 -9.5 -23.5t-22.5 -9.5q-14 0 -23.5 10t-9.5 23zM409 501q0 13 9.5 22.5t23.5 9.5t23 -9.5t9 -22.5q0 -14 -9.5 -23.5t-22.5 -9.5q-14 0 -23.5 10t-9.5 23z " />
<glyph unicode="6" d="M55 147q0 13 9.5 22.5t23.5 9.5t23 -9.5t9 -22.5q0 -14 -9.5 -23.5t-22.5 -9.5q-14 0 -23.5 10t-9.5 23zM55 265q0 13 9.5 22.5t23.5 9.5t23 -9.5t9 -22.5q0 -14 -9.5 -23.5t-22.5 -9.5q-14 0 -23.5 10t-9.5 23zM114 383q0 13 9.5 22.5t23.5 9.5q13 0 22.5 -9.5 t9.5 -22.5q0 -14 -9.5 -23.5t-22.5 -9.5t-23 10t-10 23zM173 29q0 13 9.5 22.5t23.5 9.5t23 -9.5t9 -22.5q0 -14 -9.5 -23.5t-22.5 -9.5q-14 0 -23.5 10t-9.5 23zM173 265q0 13 9.5 22.5t23.5 9.5t23 -9.5t9 -22.5q0 -14 -9.5 -23.5t-22.5 -9.5q-14 0 -23.5 10t-9.5 23z M232 501q0 13 9.5 22.5t23.5 9.5q13 0 22.5 -9.5t9.5 -22.5q0 -14 -9.5 -23.5t-22.5 -9.5t-23 10t-10 23zM291 29q0 13 9.5 22.5t23.5 9.5t23 -9.5t9 -22.5q0 -14 -9.5 -23.5t-22.5 -9.5q-14 0 -23.5 10t-9.5 23zM291 265q0 13 9.5 22.5t23.5 9.5t23 -9.5t9 -22.5 q0 -14 -9.5 -23.5t-22.5 -9.5q-14 0 -23.5 10t-9.5 23zM350 501q0 13 9.5 22.5t23.5 9.5q13 0 22.5 -9.5t9.5 -22.5q0 -14 -9.5 -23.5t-22.5 -9.5t-23 10t-10 23zM409 29q0 13 9.5 22.5t23.5 9.5t23 -9.5t9 -22.5q0 -14 -9.5 -23.5t-22.5 -9.5q-14 0 -23.5 10t-9.5 23z M409 265q0 13 9.5 22.5t23.5 9.5t23 -9.5t9 -22.5q0 -14 -9.5 -23.5t-22.5 -9.5q-14 0 -23.5 10t-9.5 23zM527 147q0 13 9.5 22.5t23.5 9.5t23 -9.5t9 -22.5q0 -14 -9.5 -23.5t-22.5 -9.5q-14 0 -23.5 10t-9.5 23z" />
<glyph unicode="7" d="M55 501q0 13 9.5 22.5t23.5 9.5t23 -9.5t9 -22.5q0 -14 -9.5 -23.5t-22.5 -9.5q-14 0 -23.5 10t-9.5 23zM173 29q0 13 9.5 22.5t23.5 9.5t23 -9.5t9 -22.5q0 -14 -9.5 -23.5t-22.5 -9.5q-14 0 -23.5 10t-9.5 23zM173 501q0 13 9.5 22.5t23.5 9.5t23 -9.5t9 -22.5 q0 -14 -9.5 -23.5t-22.5 -9.5q-14 0 -23.5 10t-9.5 23zM232 147q0 13 9.5 22.5t23.5 9.5q13 0 22.5 -9.5t9.5 -22.5q0 -14 -9.5 -23.5t-22.5 -9.5t-23 10t-10 23zM291 501q0 13 9.5 22.5t23.5 9.5t23 -9.5t9 -22.5q0 -14 -9.5 -23.5t-22.5 -9.5q-14 0 -23.5 10t-9.5 23z M350 265q0 13 9.5 22.5t23.5 9.5q13 0 22.5 -9.5t9.5 -22.5q0 -14 -9.5 -23.5t-22.5 -9.5t-23 10t-10 23zM409 501q0 13 9.5 22.5t23.5 9.5t23 -9.5t9 -22.5q0 -14 -9.5 -23.5t-22.5 -9.5q-14 0 -23.5 10t-9.5 23zM468 383q0 13 9.5 22.5t23.5 9.5q13 0 22.5 -9.5t9.5 -22.5 q0 -14 -9.5 -23.5t-22.5 -9.5t-23 10t-10 23z" />
<glyph unicode="8" d="M55 147q0 13 9.5 22.5t23.5 9.5t23 -9.5t9 -22.5q0 -14 -9.5 -23.5t-22.5 -9.5q-14 0 -23.5 10t-9.5 23zM114 383q0 13 9.5 22.5t23.5 9.5q13 0 22.5 -9.5t9.5 -22.5q0 -14 -9.5 -23.5t-22.5 -9.5t-23 10t-10 23zM173 29q0 13 9.5 22.5t23.5 9.5t23 -9.5t9 -22.5 q0 -14 -9.5 -23.5t-22.5 -9.5q-14 0 -23.5 10t-9.5 23zM173 265q0 13 9.5 22.5t23.5 9.5t23 -9.5t9 -22.5q0 -14 -9.5 -23.5t-22.5 -9.5q-14 0 -23.5 10t-9.5 23zM173 501q0 13 9.5 22.5t23.5 9.5t23 -9.5t9 -22.5q0 -14 -9.5 -23.5t-22.5 -9.5q-14 0 -23.5 10t-9.5 23z M291 29q0 13 9.5 22.5t23.5 9.5t23 -9.5t9 -22.5q0 -14 -9.5 -23.5t-22.5 -9.5q-14 0 -23.5 10t-9.5 23zM291 265q0 13 9.5 22.5t23.5 9.5t23 -9.5t9 -22.5q0 -14 -9.5 -23.5t-22.5 -9.5q-14 0 -23.5 10t-9.5 23zM291 501q0 13 9.5 22.5t23.5 9.5t23 -9.5t9 -22.5 q0 -14 -9.5 -23.5t-22.5 -9.5q-14 0 -23.5 10t-9.5 23zM409 29q0 13 9.5 22.5t23.5 9.5t23 -9.5t9 -22.5q0 -14 -9.5 -23.5t-22.5 -9.5q-14 0 -23.5 10t-9.5 23zM409 265q0 13 9.5 22.5t23.5 9.5t23 -9.5t9 -22.5q0 -14 -9.5 -23.5t-22.5 -9.5q-14 0 -23.5 10t-9.5 23z M409 501q0 13 9.5 22.5t23.5 9.5t23 -9.5t9 -22.5q0 -14 -9.5 -23.5t-22.5 -9.5q-14 0 -23.5 10t-9.5 23zM468 383q0 13 9.5 22.5t23.5 9.5q13 0 22.5 -9.5t9.5 -22.5q0 -14 -9.5 -23.5t-22.5 -9.5t-23 10t-10 23zM527 147q0 13 9.5 22.5t23.5 9.5t23 -9.5t9 -22.5 q0 -14 -9.5 -23.5t-22.5 -9.5q-14 0 -23.5 10t-9.5 23z" />
<glyph unicode="9" d="M55 383q0 13 9.5 22.5t23.5 9.5t23 -9.5t9 -22.5q0 -14 -9.5 -23.5t-22.5 -9.5q-14 0 -23.5 10t-9.5 23zM173 265q0 13 9.5 22.5t23.5 9.5t23 -9.5t9 -22.5q0 -14 -9.5 -23.5t-22.5 -9.5q-14 0 -23.5 10t-9.5 23zM173 501q0 13 9.5 22.5t23.5 9.5t23 -9.5t9 -22.5 q0 -14 -9.5 -23.5t-22.5 -9.5q-14 0 -23.5 10t-9.5 23zM232 29q0 13 9.5 22.5t23.5 9.5q13 0 22.5 -9.5t9.5 -22.5q0 -14 -9.5 -23.5t-22.5 -9.5t-23 10t-10 23zM291 265q0 13 9.5 22.5t23.5 9.5t23 -9.5t9 -22.5q0 -14 -9.5 -23.5t-22.5 -9.5q-14 0 -23.5 10t-9.5 23z M291 501q0 13 9.5 22.5t23.5 9.5t23 -9.5t9 -22.5q0 -14 -9.5 -23.5t-22.5 -9.5q-14 0 -23.5 10t-9.5 23zM350 29q0 13 9.5 22.5t23.5 9.5q13 0 22.5 -9.5t9.5 -22.5q0 -14 -9.5 -23.5t-22.5 -9.5t-23 10t-10 23zM409 265q0 13 9.5 22.5t23.5 9.5t23 -9.5t9 -22.5 q0 -14 -9.5 -23.5t-22.5 -9.5q-14 0 -23.5 10t-9.5 23zM409 501q0 13 9.5 22.5t23.5 9.5t23 -9.5t9 -22.5q0 -14 -9.5 -23.5t-22.5 -9.5q-14 0 -23.5 10t-9.5 23zM468 147q0 13 9.5 22.5t23.5 9.5q13 0 22.5 -9.5t9.5 -22.5q0 -14 -9.5 -23.5t-22.5 -9.5t-23 10t-10 23z M527 265q0 13 9.5 22.5t23.5 9.5t23 -9.5t9 -22.5q0 -14 -9.5 -23.5t-22.5 -9.5q-14 0 -23.5 10t-9.5 23zM527 383q0 13 9.5 22.5t23.5 9.5t23 -9.5t9 -22.5q0 -14 -9.5 -23.5t-22.5 -9.5q-14 0 -23.5 10t-9.5 23z" />
<glyph unicode=":" horiz-adv-x="177" d="M55 29q0 13 9.5 22.5t23.5 9.5t23 -9.5t9 -22.5q0 -14 -9.5 -23.5t-22.5 -9.5q-14 0 -23.5 10t-9.5 23zM55 383q0 13 9.5 22.5t23.5 9.5t23 -9.5t9 -22.5q0 -14 -9.5 -23.5t-22.5 -9.5q-14 0 -23.5 10t-9.5 23z" />
<glyph unicode=";" horiz-adv-x="236" d="M55 -89q0 13 9.5 22.5t23.5 9.5t23 -9.5t9 -22.5q0 -14 -9.5 -23.5t-22.5 -9.5q-14 0 -23.5 10t-9.5 23zM114 29q0 13 9.5 22.5t23.5 9.5q13 0 22.5 -9.5t9.5 -22.5q0 -14 -9.5 -23.5t-22.5 -9.5t-23 10t-10 23zM114 383q0 13 9.5 22.5t23.5 9.5q13 0 22.5 -9.5 t9.5 -22.5q0 -14 -9.5 -23.5t-22.5 -9.5t-23 10t-10 23z" />
<glyph unicode="&#x3c;" horiz-adv-x="413" d="M55 265q0 13 9.5 22.5t23.5 9.5t23 -9.5t9 -22.5q0 -14 -9.5 -23.5t-22.5 -9.5q-14 0 -23.5 10t-9.5 23zM173 147q0 13 9.5 22.5t23.5 9.5t23 -9.5t9 -22.5q0 -14 -9.5 -23.5t-22.5 -9.5q-14 0 -23.5 10t-9.5 23zM173 383q0 13 9.5 22.5t23.5 9.5t23 -9.5t9 -22.5 q0 -14 -9.5 -23.5t-22.5 -9.5q-14 0 -23.5 10t-9.5 23zM291 29q0 13 9.5 22.5t23.5 9.5t23 -9.5t9 -22.5q0 -14 -9.5 -23.5t-22.5 -9.5q-14 0 -23.5 10t-9.5 23zM291 501q0 13 9.5 22.5t23.5 9.5t23 -9.5t9 -22.5q0 -14 -9.5 -23.5t-22.5 -9.5q-14 0 -23.5 10t-9.5 23z" />
<glyph unicode="=" horiz-adv-x="531" d="M55 206q0 13 9.5 22.5t23.5 9.5t23 -9t9 -23t-9.5 -23.5t-22.5 -9.5q-14 0 -23.5 9.5t-9.5 23.5zM55 383q0 13 9.5 22.5t23.5 9.5t23 -9.5t9 -22.5q0 -14 -9.5 -23.5t-22.5 -9.5q-14 0 -23.5 10t-9.5 23zM173 206q0 13 9.5 22.5t23.5 9.5t23 -9t9 -23t-9.5 -23.5 t-22.5 -9.5q-14 0 -23.5 9.5t-9.5 23.5zM173 383q0 13 9.5 22.5t23.5 9.5t23 -9.5t9 -22.5q0 -14 -9.5 -23.5t-22.5 -9.5q-14 0 -23.5 10t-9.5 23zM291 206q0 13 9.5 22.5t23.5 9.5t23 -9t9 -23t-9.5 -23.5t-22.5 -9.5q-14 0 -23.5 9.5t-9.5 23.5zM291 383q0 13 9.5 22.5 t23.5 9.5t23 -9.5t9 -22.5q0 -14 -9.5 -23.5t-22.5 -9.5q-14 0 -23.5 10t-9.5 23zM409 206q0 13 9.5 22.5t23.5 9.5t23 -9t9 -23t-9.5 -23.5t-22.5 -9.5q-14 0 -23.5 9.5t-9.5 23.5zM409 383q0 13 9.5 22.5t23.5 9.5t23 -9.5t9 -22.5q0 -14 -9.5 -23.5t-22.5 -9.5 q-14 0 -23.5 10t-9.5 23z" />
<glyph unicode="&#x3e;" horiz-adv-x="413" d="M55 29q0 13 9.5 22.5t23.5 9.5t23 -9.5t9 -22.5q0 -14 -9.5 -23.5t-22.5 -9.5q-14 0 -23.5 10t-9.5 23zM55 501q0 13 9.5 22.5t23.5 9.5t23 -9.5t9 -22.5q0 -14 -9.5 -23.5t-22.5 -9.5q-14 0 -23.5 10t-9.5 23zM173 147q0 13 9.5 22.5t23.5 9.5t23 -9.5t9 -22.5 q0 -14 -9.5 -23.5t-22.5 -9.5q-14 0 -23.5 10t-9.5 23zM173 383q0 13 9.5 22.5t23.5 9.5t23 -9.5t9 -22.5q0 -14 -9.5 -23.5t-22.5 -9.5q-14 0 -23.5 10t-9.5 23zM291 265q0 13 9.5 22.5t23.5 9.5t23 -9.5t9 -22.5q0 -14 -9.5 -23.5t-22.5 -9.5q-14 0 -23.5 10t-9.5 23z" />
<glyph unicode="?" horiz-adv-x="413" d="M55 442q0 13 9.5 22.5t23.5 9.5t23 -9t9 -23t-9.5 -23.5t-22.5 -9.5q-14 0 -23.5 9.5t-9.5 23.5zM173 29q0 13 9.5 22.5t23.5 9.5t23 -9.5t9 -22.5q0 -14 -9.5 -23.5t-22.5 -9.5q-14 0 -23.5 10t-9.5 23zM173 206q0 13 9.5 22.5t23.5 9.5t23 -9t9 -23t-9.5 -23.5 t-22.5 -9.5q-14 0 -23.5 9.5t-9.5 23.5zM173 501q0 13 9.5 22.5t23.5 9.5t23 -9.5t9 -22.5q0 -14 -9.5 -23.5t-22.5 -9.5q-14 0 -23.5 10t-9.5 23zM291 324q0 13 9.5 22.5t23.5 9.5t23 -9t9 -23t-9.5 -23.5t-22.5 -9.5q-14 0 -23.5 9.5t-9.5 23.5zM291 442q0 13 9.5 22.5 t23.5 9.5t23 -9t9 -23t-9.5 -23.5t-22.5 -9.5q-14 0 -23.5 9.5t-9.5 23.5z" />
<glyph unicode="@" d="M55 206q0 13 9.5 22.5t23.5 9.5t23 -9t9 -23t-9.5 -23.5t-22.5 -9.5q-14 0 -23.5 9.5t-9.5 23.5zM55 324q0 13 9.5 22.5t23.5 9.5t23 -9t9 -23t-9.5 -23.5t-22.5 -9.5q-14 0 -23.5 9.5t-9.5 23.5zM114 88q0 13 9.5 22.5t23.5 9.5q13 0 22.5 -9t9.5 -23t-9.5 -23.5 t-22.5 -9.5t-23 9.5t-10 23.5zM114 442q0 13 9.5 22.5t23.5 9.5q13 0 22.5 -9t9.5 -23t-9.5 -23.5t-22.5 -9.5t-23 9.5t-10 23.5zM173 -30q0 13 9.5 22.5t23.5 9.5t23 -9t9 -23t-9.5 -23.5t-22.5 -9.5q-14 0 -23.5 9.5t-9.5 23.5zM232 147q0 13 9.5 22.5t23.5 9.5 q13 0 22.5 -9.5t9.5 -22.5q0 -14 -9.5 -23.5t-22.5 -9.5t-23 10t-10 23zM232 265q0 13 9.5 22.5t23.5 9.5q13 0 22.5 -9.5t9.5 -22.5q0 -14 -9.5 -23.5t-22.5 -9.5t-23 10t-10 23zM232 501q0 13 9.5 22.5t23.5 9.5q13 0 22.5 -9.5t9.5 -22.5q0 -14 -9.5 -23.5t-22.5 -9.5 t-23 10t-10 23zM291 -89q0 13 9.5 22.5t23.5 9.5t23 -9.5t9 -22.5q0 -14 -9.5 -23.5t-22.5 -9.5q-14 0 -23.5 10t-9.5 23zM350 29q0 13 9.5 22.5t23.5 9.5q13 0 22.5 -9.5t9.5 -22.5q0 -14 -9.5 -23.5t-22.5 -9.5t-23 10t-10 23zM350 147q0 13 9.5 22.5t23.5 9.5 q13 0 22.5 -9.5t9.5 -22.5q0 -14 -9.5 -23.5t-22.5 -9.5t-23 10t-10 23zM350 265q0 13 9.5 22.5t23.5 9.5q13 0 22.5 -9.5t9.5 -22.5q0 -14 -9.5 -23.5t-22.5 -9.5t-23 10t-10 23zM350 501q0 13 9.5 22.5t23.5 9.5q13 0 22.5 -9.5t9.5 -22.5q0 -14 -9.5 -23.5t-22.5 -9.5 t-23 10t-10 23zM468 88q0 13 9.5 22.5t23.5 9.5q13 0 22.5 -9t9.5 -23t-9.5 -23.5t-22.5 -9.5t-23 9.5t-10 23.5zM468 442q0 13 9.5 22.5t23.5 9.5q13 0 22.5 -9t9.5 -23t-9.5 -23.5t-22.5 -9.5t-23 9.5t-10 23.5zM527 206q0 13 9.5 22.5t23.5 9.5t23 -9t9 -23t-9.5 -23.5 t-22.5 -9.5q-14 0 -23.5 9.5t-9.5 23.5zM527 324q0 13 9.5 22.5t23.5 9.5t23 -9t9 -23t-9.5 -23.5t-22.5 -9.5q-14 0 -23.5 9.5t-9.5 23.5z" />
<glyph unicode="A" d="M55 29q0 13 9.5 22.5t23.5 9.5t23 -9.5t9 -22.5q0 -14 -9.5 -23.5t-22.5 -9.5q-14 0 -23.5 10t-9.5 23zM55 147q0 13 9.5 22.5t23.5 9.5t23 -9.5t9 -22.5q0 -14 -9.5 -23.5t-22.5 -9.5q-14 0 -23.5 10t-9.5 23zM55 265q0 13 9.5 22.5t23.5 9.5t23 -9.5t9 -22.5 q0 -14 -9.5 -23.5t-22.5 -9.5q-14 0 -23.5 10t-9.5 23zM55 383q0 13 9.5 22.5t23.5 9.5t23 -9.5t9 -22.5q0 -14 -9.5 -23.5t-22.5 -9.5q-14 0 -23.5 10t-9.5 23zM173 206q0 13 9.5 22.5t23.5 9.5t23 -9t9 -23t-9.5 -23.5t-22.5 -9.5q-14 0 -23.5 9.5t-9.5 23.5zM173 501 q0 13 9.5 22.5t23.5 9.5t23 -9.5t9 -22.5q0 -14 -9.5 -23.5t-22.5 -9.5q-14 0 -23.5 10t-9.5 23zM291 206q0 13 9.5 22.5t23.5 9.5t23 -9t9 -23t-9.5 -23.5t-22.5 -9.5q-14 0 -23.5 9.5t-9.5 23.5zM291 501q0 13 9.5 22.5t23.5 9.5t23 -9.5t9 -22.5q0 -14 -9.5 -23.5 t-22.5 -9.5q-14 0 -23.5 10t-9.5 23zM409 206q0 13 9.5 22.5t23.5 9.5t23 -9t9 -23t-9.5 -23.5t-22.5 -9.5q-14 0 -23.5 9.5t-9.5 23.5zM409 501q0 13 9.5 22.5t23.5 9.5t23 -9.5t9 -22.5q0 -14 -9.5 -23.5t-22.5 -9.5q-14 0 -23.5 10t-9.5 23zM527 29q0 13 9.5 22.5 t23.5 9.5t23 -9.5t9 -22.5q0 -14 -9.5 -23.5t-22.5 -9.5q-14 0 -23.5 10t-9.5 23zM527 147q0 13 9.5 22.5t23.5 9.5t23 -9.5t9 -22.5q0 -14 -9.5 -23.5t-22.5 -9.5q-14 0 -23.5 10t-9.5 23zM527 265q0 13 9.5 22.5t23.5 9.5t23 -9.5t9 -22.5q0 -14 -9.5 -23.5t-22.5 -9.5 q-14 0 -23.5 10t-9.5 23zM527 383q0 13 9.5 22.5t23.5 9.5t23 -9.5t9 -22.5q0 -14 -9.5 -23.5t-22.5 -9.5q-14 0 -23.5 10t-9.5 23z" />
<glyph unicode="B" d="M55 29q0 13 9.5 22.5t23.5 9.5t23 -9.5t9 -22.5q0 -14 -9.5 -23.5t-22.5 -9.5q-14 0 -23.5 10t-9.5 23zM55 147q0 13 9.5 22.5t23.5 9.5t23 -9.5t9 -22.5q0 -14 -9.5 -23.5t-22.5 -9.5q-14 0 -23.5 10t-9.5 23zM55 265q0 13 9.5 22.5t23.5 9.5t23 -9.5t9 -22.5 q0 -14 -9.5 -23.5t-22.5 -9.5q-14 0 -23.5 10t-9.5 23zM55 383q0 13 9.5 22.5t23.5 9.5t23 -9.5t9 -22.5q0 -14 -9.5 -23.5t-22.5 -9.5q-14 0 -23.5 10t-9.5 23zM173 29q0 13 9.5 22.5t23.5 9.5t23 -9.5t9 -22.5q0 -14 -9.5 -23.5t-22.5 -9.5q-14 0 -23.5 10t-9.5 23z M173 265q0 13 9.5 22.5t23.5 9.5t23 -9.5t9 -22.5q0 -14 -9.5 -23.5t-22.5 -9.5q-14 0 -23.5 10t-9.5 23zM173 501q0 13 9.5 22.5t23.5 9.5t23 -9.5t9 -22.5q0 -14 -9.5 -23.5t-22.5 -9.5q-14 0 -23.5 10t-9.5 23zM291 29q0 13 9.5 22.5t23.5 9.5t23 -9.5t9 -22.5 q0 -14 -9.5 -23.5t-22.5 -9.5q-14 0 -23.5 10t-9.5 23zM291 265q0 13 9.5 22.5t23.5 9.5t23 -9.5t9 -22.5q0 -14 -9.5 -23.5t-22.5 -9.5q-14 0 -23.5 10t-9.5 23zM291 501q0 13 9.5 22.5t23.5 9.5t23 -9.5t9 -22.5q0 -14 -9.5 -23.5t-22.5 -9.5q-14 0 -23.5 10t-9.5 23z M409 29q0 13 9.5 22.5t23.5 9.5t23 -9.5t9 -22.5q0 -14 -9.5 -23.5t-22.5 -9.5q-14 0 -23.5 10t-9.5 23zM409 265q0 13 9.5 22.5t23.5 9.5t23 -9.5t9 -22.5q0 -14 -9.5 -23.5t-22.5 -9.5q-14 0 -23.5 10t-9.5 23zM409 501q0 13 9.5 22.5t23.5 9.5t23 -9.5t9 -22.5 q0 -14 -9.5 -23.5t-22.5 -9.5q-14 0 -23.5 10t-9.5 23zM468 383q0 13 9.5 22.5t23.5 9.5q13 0 22.5 -9.5t9.5 -22.5q0 -14 -9.5 -23.5t-22.5 -9.5t-23 10t-10 23zM527 147q0 13 9.5 22.5t23.5 9.5t23 -9.5t9 -22.5q0 -14 -9.5 -23.5t-22.5 -9.5q-14 0 -23.5 10t-9.5 23z M527 265q0 13 9.5 22.5t23.5 9.5t23 -9.5t9 -22.5q0 -14 -9.5 -23.5t-22.5 -9.5q-14 0 -23.5 10t-9.5 23z" />
<glyph unicode="C" horiz-adv-x="590" d="M55 206q0 13 9.5 22.5t23.5 9.5t23 -9t9 -23t-9.5 -23.5t-22.5 -9.5q-14 0 -23.5 9.5t-9.5 23.5zM55 324q0 13 9.5 22.5t23.5 9.5t23 -9t9 -23t-9.5 -23.5t-22.5 -9.5q-14 0 -23.5 9.5t-9.5 23.5zM114 88q0 13 9.5 22.5t23.5 9.5q13 0 22.5 -9t9.5 -23t-9.5 -23.5 t-22.5 -9.5t-23 9.5t-10 23.5zM114 442q0 13 9.5 22.5t23.5 9.5q13 0 22.5 -9t9.5 -23t-9.5 -23.5t-22.5 -9.5t-23 9.5t-10 23.5zM232 29q0 13 9.5 22.5t23.5 9.5q13 0 22.5 -9.5t9.5 -22.5q0 -14 -9.5 -23.5t-22.5 -9.5t-23 10t-10 23zM232 501q0 13 9.5 22.5t23.5 9.5 q13 0 22.5 -9.5t9.5 -22.5q0 -14 -9.5 -23.5t-22.5 -9.5t-23 10t-10 23zM350 29q0 13 9.5 22.5t23.5 9.5q13 0 22.5 -9.5t9.5 -22.5q0 -14 -9.5 -23.5t-22.5 -9.5t-23 10t-10 23zM350 501q0 13 9.5 22.5t23.5 9.5q13 0 22.5 -9.5t9.5 -22.5q0 -14 -9.5 -23.5t-22.5 -9.5 t-23 10t-10 23zM468 88q0 13 9.5 22.5t23.5 9.5q13 0 22.5 -9t9.5 -23t-9.5 -23.5t-22.5 -9.5t-23 9.5t-10 23.5zM468 442q0 13 9.5 22.5t23.5 9.5q13 0 22.5 -9t9.5 -23t-9.5 -23.5t-22.5 -9.5t-23 9.5t-10 23.5z" />
<glyph unicode="D" horiz-adv-x="590" d="M55 29q0 13 9.5 22.5t23.5 9.5t23 -9.5t9 -22.5q0 -14 -9.5 -23.5t-22.5 -9.5q-14 0 -23.5 10t-9.5 23zM55 147q0 13 9.5 22.5t23.5 9.5t23 -9.5t9 -22.5q0 -14 -9.5 -23.5t-22.5 -9.5q-14 0 -23.5 10t-9.5 23zM55 265q0 13 9.5 22.5t23.5 9.5t23 -9.5t9 -22.5 q0 -14 -9.5 -23.5t-22.5 -9.5q-14 0 -23.5 10t-9.5 23zM55 383q0 13 9.5 22.5t23.5 9.5t23 -9.5t9 -22.5q0 -14 -9.5 -23.5t-22.5 -9.5q-14 0 -23.5 10t-9.5 23zM173 29q0 13 9.5 22.5t23.5 9.5t23 -9.5t9 -22.5q0 -14 -9.5 -23.5t-22.5 -9.5q-14 0 -23.5 10t-9.5 23z M173 501q0 13 9.5 22.5t23.5 9.5t23 -9.5t9 -22.5q0 -14 -9.5 -23.5t-22.5 -9.5q-14 0 -23.5 10t-9.5 23zM291 29q0 13 9.5 22.5t23.5 9.5t23 -9.5t9 -22.5q0 -14 -9.5 -23.5t-22.5 -9.5q-14 0 -23.5 10t-9.5 23zM291 501q0 13 9.5 22.5t23.5 9.5t23 -9.5t9 -22.5 q0 -14 -9.5 -23.5t-22.5 -9.5q-14 0 -23.5 10t-9.5 23zM409 88q0 13 9.5 22.5t23.5 9.5t23 -9t9 -23t-9.5 -23.5t-22.5 -9.5q-14 0 -23.5 9.5t-9.5 23.5zM409 442q0 13 9.5 22.5t23.5 9.5t23 -9t9 -23t-9.5 -23.5t-22.5 -9.5q-14 0 -23.5 9.5t-9.5 23.5zM468 206 q0 13 9.5 22.5t23.5 9.5q13 0 22.5 -9t9.5 -23t-9.5 -23.5t-22.5 -9.5t-23 9.5t-10 23.5zM468 324q0 13 9.5 22.5t23.5 9.5q13 0 22.5 -9t9.5 -23t-9.5 -23.5t-22.5 -9.5t-23 9.5t-10 23.5z" />
<glyph unicode="E" d="M55 147q0 13 9.5 22.5t23.5 9.5t23 -9.5t9 -22.5q0 -14 -9.5 -23.5t-22.5 -9.5q-14 0 -23.5 10t-9.5 23zM55 265q0 13 9.5 22.5t23.5 9.5t23 -9.5t9 -22.5q0 -14 -9.5 -23.5t-22.5 -9.5q-14 0 -23.5 10t-9.5 23zM55 383q0 13 9.5 22.5t23.5 9.5t23 -9.5t9 -22.5 q0 -14 -9.5 -23.5t-22.5 -9.5q-14 0 -23.5 10t-9.5 23zM173 29q0 13 9.5 22.5t23.5 9.5t23 -9.5t9 -22.5q0 -14 -9.5 -23.5t-22.5 -9.5q-14 0 -23.5 10t-9.5 23zM173 265q0 13 9.5 22.5t23.5 9.5t23 -9.5t9 -22.5q0 -14 -9.5 -23.5t-22.5 -9.5q-14 0 -23.5 10t-9.5 23z M173 501q0 13 9.5 22.5t23.5 9.5t23 -9.5t9 -22.5q0 -14 -9.5 -23.5t-22.5 -9.5q-14 0 -23.5 10t-9.5 23zM291 29q0 13 9.5 22.5t23.5 9.5t23 -9.5t9 -22.5q0 -14 -9.5 -23.5t-22.5 -9.5q-14 0 -23.5 10t-9.5 23zM291 265q0 13 9.5 22.5t23.5 9.5t23 -9.5t9 -22.5 q0 -14 -9.5 -23.5t-22.5 -9.5q-14 0 -23.5 10t-9.5 23zM291 501q0 13 9.5 22.5t23.5 9.5t23 -9.5t9 -22.5q0 -14 -9.5 -23.5t-22.5 -9.5q-14 0 -23.5 10t-9.5 23zM409 29q0 13 9.5 22.5t23.5 9.5t23 -9.5t9 -22.5q0 -14 -9.5 -23.5t-22.5 -9.5q-14 0 -23.5 10t-9.5 23z M409 265q0 13 9.5 22.5t23.5 9.5t23 -9.5t9 -22.5q0 -14 -9.5 -23.5t-22.5 -9.5q-14 0 -23.5 10t-9.5 23zM409 501q0 13 9.5 22.5t23.5 9.5t23 -9.5t9 -22.5q0 -14 -9.5 -23.5t-22.5 -9.5q-14 0 -23.5 10t-9.5 23zM527 29q0 13 9.5 22.5t23.5 9.5t23 -9.5t9 -22.5 q0 -14 -9.5 -23.5t-22.5 -9.5q-14 0 -23.5 10t-9.5 23zM527 501q0 13 9.5 22.5t23.5 9.5t23 -9.5t9 -22.5q0 -14 -9.5 -23.5t-22.5 -9.5q-14 0 -23.5 10t-9.5 23z" />
<glyph unicode="F" horiz-adv-x="531" d="M55 29q0 13 9.5 22.5t23.5 9.5t23 -9.5t9 -22.5q0 -14 -9.5 -23.5t-22.5 -9.5q-14 0 -23.5 10t-9.5 23zM55 147q0 13 9.5 22.5t23.5 9.5t23 -9.5t9 -22.5q0 -14 -9.5 -23.5t-22.5 -9.5q-14 0 -23.5 10t-9.5 23zM55 265q0 13 9.5 22.5t23.5 9.5t23 -9.5t9 -22.5 q0 -14 -9.5 -23.5t-22.5 -9.5q-14 0 -23.5 10t-9.5 23zM55 383q0 13 9.5 22.5t23.5 9.5t23 -9.5t9 -22.5q0 -14 -9.5 -23.5t-22.5 -9.5q-14 0 -23.5 10t-9.5 23zM173 206q0 13 9.5 22.5t23.5 9.5t23 -9t9 -23t-9.5 -23.5t-22.5 -9.5q-14 0 -23.5 9.5t-9.5 23.5zM173 501 q0 13 9.5 22.5t23.5 9.5t23 -9.5t9 -22.5q0 -14 -9.5 -23.5t-22.5 -9.5q-14 0 -23.5 10t-9.5 23zM291 206q0 13 9.5 22.5t23.5 9.5t23 -9t9 -23t-9.5 -23.5t-22.5 -9.5q-14 0 -23.5 9.5t-9.5 23.5zM291 501q0 13 9.5 22.5t23.5 9.5t23 -9.5t9 -22.5q0 -14 -9.5 -23.5 t-22.5 -9.5q-14 0 -23.5 10t-9.5 23zM409 501q0 13 9.5 22.5t23.5 9.5t23 -9.5t9 -22.5q0 -14 -9.5 -23.5t-22.5 -9.5q-14 0 -23.5 10t-9.5 23z" />
<glyph unicode="G" d="M55 206q0 13 9.5 22.5t23.5 9.5t23 -9t9 -23t-9.5 -23.5t-22.5 -9.5q-14 0 -23.5 9.5t-9.5 23.5zM55 324q0 13 9.5 22.5t23.5 9.5t23 -9t9 -23t-9.5 -23.5t-22.5 -9.5q-14 0 -23.5 9.5t-9.5 23.5zM114 88q0 13 9.5 22.5t23.5 9.5q13 0 22.5 -9t9.5 -23t-9.5 -23.5 t-22.5 -9.5t-23 9.5t-10 23.5zM114 442q0 13 9.5 22.5t23.5 9.5q13 0 22.5 -9t9.5 -23t-9.5 -23.5t-22.5 -9.5t-23 9.5t-10 23.5zM232 29q0 13 9.5 22.5t23.5 9.5q13 0 22.5 -9.5t9.5 -22.5q0 -14 -9.5 -23.5t-22.5 -9.5t-23 10t-10 23zM232 501q0 13 9.5 22.5t23.5 9.5 q13 0 22.5 -9.5t9.5 -22.5q0 -14 -9.5 -23.5t-22.5 -9.5t-23 10t-10 23zM291 265q0 13 9.5 22.5t23.5 9.5t23 -9.5t9 -22.5q0 -14 -9.5 -23.5t-22.5 -9.5q-14 0 -23.5 10t-9.5 23zM350 29q0 13 9.5 22.5t23.5 9.5q13 0 22.5 -9.5t9.5 -22.5q0 -14 -9.5 -23.5t-22.5 -9.5 t-23 10t-10 23zM350 501q0 13 9.5 22.5t23.5 9.5q13 0 22.5 -9.5t9.5 -22.5q0 -14 -9.5 -23.5t-22.5 -9.5t-23 10t-10 23zM409 265q0 13 9.5 22.5t23.5 9.5t23 -9.5t9 -22.5q0 -14 -9.5 -23.5t-22.5 -9.5q-14 0 -23.5 10t-9.5 23zM468 29q0 13 9.5 22.5t23.5 9.5 q13 0 22.5 -9.5t9.5 -22.5q0 -14 -9.5 -23.5t-22.5 -9.5t-23 10t-10 23zM468 501q0 13 9.5 22.5t23.5 9.5q13 0 22.5 -9.5t9.5 -22.5q0 -14 -9.5 -23.5t-22.5 -9.5t-23 10t-10 23zM527 147q0 13 9.5 22.5t23.5 9.5t23 -9.5t9 -22.5q0 -14 -9.5 -23.5t-22.5 -9.5 q-14 0 -23.5 10t-9.5 23zM527 265q0 13 9.5 22.5t23.5 9.5t23 -9.5t9 -22.5q0 -14 -9.5 -23.5t-22.5 -9.5q-14 0 -23.5 10t-9.5 23z" />
<glyph unicode="H" d="M55 29q0 13 9.5 22.5t23.5 9.5t23 -9.5t9 -22.5q0 -14 -9.5 -23.5t-22.5 -9.5q-14 0 -23.5 10t-9.5 23zM55 147q0 13 9.5 22.5t23.5 9.5t23 -9.5t9 -22.5q0 -14 -9.5 -23.5t-22.5 -9.5q-14 0 -23.5 10t-9.5 23zM55 265q0 13 9.5 22.5t23.5 9.5t23 -9.5t9 -22.5 q0 -14 -9.5 -23.5t-22.5 -9.5q-14 0 -23.5 10t-9.5 23zM55 383q0 13 9.5 22.5t23.5 9.5t23 -9.5t9 -22.5q0 -14 -9.5 -23.5t-22.5 -9.5q-14 0 -23.5 10t-9.5 23zM55 501q0 13 9.5 22.5t23.5 9.5t23 -9.5t9 -22.5q0 -14 -9.5 -23.5t-22.5 -9.5q-14 0 -23.5 10t-9.5 23z M173 265q0 13 9.5 22.5t23.5 9.5t23 -9.5t9 -22.5q0 -14 -9.5 -23.5t-22.5 -9.5q-14 0 -23.5 10t-9.5 23zM291 265q0 13 9.5 22.5t23.5 9.5t23 -9.5t9 -22.5q0 -14 -9.5 -23.5t-22.5 -9.5q-14 0 -23.5 10t-9.5 23zM409 265q0 13 9.5 22.5t23.5 9.5t23 -9.5t9 -22.5 q0 -14 -9.5 -23.5t-22.5 -9.5q-14 0 -23.5 10t-9.5 23zM527 29q0 13 9.5 22.5t23.5 9.5t23 -9.5t9 -22.5q0 -14 -9.5 -23.5t-22.5 -9.5q-14 0 -23.5 10t-9.5 23zM527 147q0 13 9.5 22.5t23.5 9.5t23 -9.5t9 -22.5q0 -14 -9.5 -23.5t-22.5 -9.5q-14 0 -23.5 10t-9.5 23z M527 265q0 13 9.5 22.5t23.5 9.5t23 -9.5t9 -22.5q0 -14 -9.5 -23.5t-22.5 -9.5q-14 0 -23.5 10t-9.5 23zM527 383q0 13 9.5 22.5t23.5 9.5t23 -9.5t9 -22.5q0 -14 -9.5 -23.5t-22.5 -9.5q-14 0 -23.5 10t-9.5 23zM527 501q0 13 9.5 22.5t23.5 9.5t23 -9.5t9 -22.5 q0 -14 -9.5 -23.5t-22.5 -9.5q-14 0 -23.5 10t-9.5 23z" />
<glyph unicode="I" horiz-adv-x="177" d="M55 29q0 13 9.5 22.5t23.5 9.5t23 -9.5t9 -22.5q0 -14 -9.5 -23.5t-22.5 -9.5q-14 0 -23.5 10t-9.5 23zM55 147q0 13 9.5 22.5t23.5 9.5t23 -9.5t9 -22.5q0 -14 -9.5 -23.5t-22.5 -9.5q-14 0 -23.5 10t-9.5 23zM55 265q0 13 9.5 22.5t23.5 9.5t23 -9.5t9 -22.5 q0 -14 -9.5 -23.5t-22.5 -9.5q-14 0 -23.5 10t-9.5 23zM55 383q0 13 9.5 22.5t23.5 9.5t23 -9.5t9 -22.5q0 -14 -9.5 -23.5t-22.5 -9.5q-14 0 -23.5 10t-9.5 23zM55 501q0 13 9.5 22.5t23.5 9.5t23 -9.5t9 -22.5q0 -14 -9.5 -23.5t-22.5 -9.5q-14 0 -23.5 10t-9.5 23z" />
<glyph unicode="J" horiz-adv-x="177" d="M-4 -89q0 13 9.5 22.5t23.5 9.5q13 0 22.5 -9.5t9.5 -22.5q0 -14 -9.5 -23.5t-22.5 -9.5t-23 10t-10 23zM55 29q0 13 9.5 22.5t23.5 9.5t23 -9.5t9 -22.5q0 -14 -9.5 -23.5t-22.5 -9.5q-14 0 -23.5 10t-9.5 23zM55 147q0 13 9.5 22.5t23.5 9.5t23 -9.5t9 -22.5 q0 -14 -9.5 -23.5t-22.5 -9.5q-14 0 -23.5 10t-9.5 23zM55 265q0 13 9.5 22.5t23.5 9.5t23 -9.5t9 -22.5q0 -14 -9.5 -23.5t-22.5 -9.5q-14 0 -23.5 10t-9.5 23zM55 383q0 13 9.5 22.5t23.5 9.5t23 -9.5t9 -22.5q0 -14 -9.5 -23.5t-22.5 -9.5q-14 0 -23.5 10t-9.5 23z M55 501q0 13 9.5 22.5t23.5 9.5t23 -9.5t9 -22.5q0 -14 -9.5 -23.5t-22.5 -9.5q-14 0 -23.5 10t-9.5 23z" />
<glyph unicode="K" d="M55 29q0 13 9.5 22.5t23.5 9.5t23 -9.5t9 -22.5q0 -14 -9.5 -23.5t-22.5 -9.5q-14 0 -23.5 10t-9.5 23zM55 147q0 13 9.5 22.5t23.5 9.5t23 -9.5t9 -22.5q0 -14 -9.5 -23.5t-22.5 -9.5q-14 0 -23.5 10t-9.5 23zM55 265q0 13 9.5 22.5t23.5 9.5t23 -9.5t9 -22.5 q0 -14 -9.5 -23.5t-22.5 -9.5q-14 0 -23.5 10t-9.5 23zM55 383q0 13 9.5 22.5t23.5 9.5t23 -9.5t9 -22.5q0 -14 -9.5 -23.5t-22.5 -9.5q-14 0 -23.5 10t-9.5 23zM55 501q0 13 9.5 22.5t23.5 9.5t23 -9.5t9 -22.5q0 -14 -9.5 -23.5t-22.5 -9.5q-14 0 -23.5 10t-9.5 23z M173 265q0 13 9.5 22.5t23.5 9.5t23 -9.5t9 -22.5q0 -14 -9.5 -23.5t-22.5 -9.5q-14 0 -23.5 10t-9.5 23zM291 265q0 13 9.5 22.5t23.5 9.5t23 -9.5t9 -22.5q0 -14 -9.5 -23.5t-22.5 -9.5q-14 0 -23.5 10t-9.5 23zM409 147q0 13 9.5 22.5t23.5 9.5t23 -9.5t9 -22.5 q0 -14 -9.5 -23.5t-22.5 -9.5q-14 0 -23.5 10t-9.5 23zM409 383q0 13 9.5 22.5t23.5 9.5t23 -9.5t9 -22.5q0 -14 -9.5 -23.5t-22.5 -9.5q-14 0 -23.5 10t-9.5 23zM527 29q0 13 9.5 22.5t23.5 9.5t23 -9.5t9 -22.5q0 -14 -9.5 -23.5t-22.5 -9.5q-14 0 -23.5 10t-9.5 23z M527 501q0 13 9.5 22.5t23.5 9.5t23 -9.5t9 -22.5q0 -14 -9.5 -23.5t-22.5 -9.5q-14 0 -23.5 10t-9.5 23z" />
<glyph unicode="L" horiz-adv-x="590" d="M55 147q0 13 9.5 22.5t23.5 9.5t23 -9.5t9 -22.5q0 -14 -9.5 -23.5t-22.5 -9.5q-14 0 -23.5 10t-9.5 23zM55 265q0 13 9.5 22.5t23.5 9.5t23 -9.5t9 -22.5q0 -14 -9.5 -23.5t-22.5 -9.5q-14 0 -23.5 10t-9.5 23zM55 383q0 13 9.5 22.5t23.5 9.5t23 -9.5t9 -22.5 q0 -14 -9.5 -23.5t-22.5 -9.5q-14 0 -23.5 10t-9.5 23zM55 501q0 13 9.5 22.5t23.5 9.5t23 -9.5t9 -22.5q0 -14 -9.5 -23.5t-22.5 -9.5q-14 0 -23.5 10t-9.5 23zM114 29q0 13 9.5 22.5t23.5 9.5q13 0 22.5 -9.5t9.5 -22.5q0 -14 -9.5 -23.5t-22.5 -9.5t-23 10t-10 23z M232 29q0 13 9.5 22.5t23.5 9.5q13 0 22.5 -9.5t9.5 -22.5q0 -14 -9.5 -23.5t-22.5 -9.5t-23 10t-10 23zM350 29q0 13 9.5 22.5t23.5 9.5q13 0 22.5 -9.5t9.5 -22.5q0 -14 -9.5 -23.5t-22.5 -9.5t-23 10t-10 23zM468 29q0 13 9.5 22.5t23.5 9.5q13 0 22.5 -9.5t9.5 -22.5 q0 -14 -9.5 -23.5t-22.5 -9.5t-23 10t-10 23z" />
<glyph unicode="M" horiz-adv-x="885" d="M55 29q0 13 9.5 22.5t23.5 9.5t23 -9.5t9 -22.5q0 -14 -9.5 -23.5t-22.5 -9.5q-14 0 -23.5 10t-9.5 23zM55 147q0 13 9.5 22.5t23.5 9.5t23 -9.5t9 -22.5q0 -14 -9.5 -23.5t-22.5 -9.5q-14 0 -23.5 10t-9.5 23zM55 265q0 13 9.5 22.5t23.5 9.5t23 -9.5t9 -22.5 q0 -14 -9.5 -23.5t-22.5 -9.5q-14 0 -23.5 10t-9.5 23zM55 383q0 13 9.5 22.5t23.5 9.5t23 -9.5t9 -22.5q0 -14 -9.5 -23.5t-22.5 -9.5q-14 0 -23.5 10t-9.5 23zM173 501q0 13 9.5 22.5t23.5 9.5t23 -9.5t9 -22.5q0 -14 -9.5 -23.5t-22.5 -9.5q-14 0 -23.5 10t-9.5 23z M291 501q0 13 9.5 22.5t23.5 9.5t23 -9.5t9 -22.5q0 -14 -9.5 -23.5t-22.5 -9.5q-14 0 -23.5 10t-9.5 23zM409 29q0 13 9.5 22.5t23.5 9.5t23 -9.5t9 -22.5q0 -14 -9.5 -23.5t-22.5 -9.5q-14 0 -23.5 10t-9.5 23zM409 147q0 13 9.5 22.5t23.5 9.5t23 -9.5t9 -22.5 q0 -14 -9.5 -23.5t-22.5 -9.5q-14 0 -23.5 10t-9.5 23zM409 265q0 13 9.5 22.5t23.5 9.5t23 -9.5t9 -22.5q0 -14 -9.5 -23.5t-22.5 -9.5q-14 0 -23.5 10t-9.5 23zM409 383q0 13 9.5 22.5t23.5 9.5t23 -9.5t9 -22.5q0 -14 -9.5 -23.5t-22.5 -9.5q-14 0 -23.5 10t-9.5 23z M527 501q0 13 9.5 22.5t23.5 9.5t23 -9.5t9 -22.5q0 -14 -9.5 -23.5t-22.5 -9.5q-14 0 -23.5 10t-9.5 23zM645 501q0 13 9.5 22.5t23.5 9.5t23 -9.5t9 -22.5q0 -14 -9.5 -23.5t-22.5 -9.5q-14 0 -23.5 10t-9.5 23zM763 29q0 13 9.5 22.5t23.5 9.5t23 -9.5t9 -22.5 q0 -14 -9.5 -23.5t-22.5 -9.5q-14 0 -23.5 10t-9.5 23zM763 147q0 13 9.5 22.5t23.5 9.5t23 -9.5t9 -22.5q0 -14 -9.5 -23.5t-22.5 -9.5q-14 0 -23.5 10t-9.5 23zM763 265q0 13 9.5 22.5t23.5 9.5t23 -9.5t9 -22.5q0 -14 -9.5 -23.5t-22.5 -9.5q-14 0 -23.5 10t-9.5 23z M763 383q0 13 9.5 22.5t23.5 9.5t23 -9.5t9 -22.5q0 -14 -9.5 -23.5t-22.5 -9.5q-14 0 -23.5 10t-9.5 23z" />
<glyph unicode="N" d="M55 29q0 13 9.5 22.5t23.5 9.5t23 -9.5t9 -22.5q0 -14 -9.5 -23.5t-22.5 -9.5q-14 0 -23.5 10t-9.5 23zM55 147q0 13 9.5 22.5t23.5 9.5t23 -9.5t9 -22.5q0 -14 -9.5 -23.5t-22.5 -9.5q-14 0 -23.5 10t-9.5 23zM55 265q0 13 9.5 22.5t23.5 9.5t23 -9.5t9 -22.5 q0 -14 -9.5 -23.5t-22.5 -9.5q-14 0 -23.5 10t-9.5 23zM55 383q0 13 9.5 22.5t23.5 9.5t23 -9.5t9 -22.5q0 -14 -9.5 -23.5t-22.5 -9.5q-14 0 -23.5 10t-9.5 23zM173 501q0 13 9.5 22.5t23.5 9.5t23 -9.5t9 -22.5q0 -14 -9.5 -23.5t-22.5 -9.5q-14 0 -23.5 10t-9.5 23z M291 501q0 13 9.5 22.5t23.5 9.5t23 -9.5t9 -22.5q0 -14 -9.5 -23.5t-22.5 -9.5q-14 0 -23.5 10t-9.5 23zM409 501q0 13 9.5 22.5t23.5 9.5t23 -9.5t9 -22.5q0 -14 -9.5 -23.5t-22.5 -9.5q-14 0 -23.5 10t-9.5 23zM527 29q0 13 9.5 22.5t23.5 9.5t23 -9.5t9 -22.5 q0 -14 -9.5 -23.5t-22.5 -9.5q-14 0 -23.5 10t-9.5 23zM527 147q0 13 9.5 22.5t23.5 9.5t23 -9.5t9 -22.5q0 -14 -9.5 -23.5t-22.5 -9.5q-14 0 -23.5 10t-9.5 23zM527 265q0 13 9.5 22.5t23.5 9.5t23 -9.5t9 -22.5q0 -14 -9.5 -23.5t-22.5 -9.5q-14 0 -23.5 10t-9.5 23z M527 383q0 13 9.5 22.5t23.5 9.5t23 -9.5t9 -22.5q0 -14 -9.5 -23.5t-22.5 -9.5q-14 0 -23.5 10t-9.5 23z" />
<glyph unicode="O" d="M55 206q0 13 9.5 22.5t23.5 9.5t23 -9t9 -23t-9.5 -23.5t-22.5 -9.5q-14 0 -23.5 9.5t-9.5 23.5zM55 324q0 13 9.5 22.5t23.5 9.5t23 -9t9 -23t-9.5 -23.5t-22.5 -9.5q-14 0 -23.5 9.5t-9.5 23.5zM114 88q0 13 9.5 22.5t23.5 9.5q13 0 22.5 -9t9.5 -23t-9.5 -23.5 t-22.5 -9.5t-23 9.5t-10 23.5zM114 442q0 13 9.5 22.5t23.5 9.5q13 0 22.5 -9t9.5 -23t-9.5 -23.5t-22.5 -9.5t-23 9.5t-10 23.5zM232 29q0 13 9.5 22.5t23.5 9.5q13 0 22.5 -9.5t9.5 -22.5q0 -14 -9.5 -23.5t-22.5 -9.5t-23 10t-10 23zM232 501q0 13 9.5 22.5t23.5 9.5 q13 0 22.5 -9.5t9.5 -22.5q0 -14 -9.5 -23.5t-22.5 -9.5t-23 10t-10 23zM350 29q0 13 9.5 22.5t23.5 9.5q13 0 22.5 -9.5t9.5 -22.5q0 -14 -9.5 -23.5t-22.5 -9.5t-23 10t-10 23zM350 501q0 13 9.5 22.5t23.5 9.5q13 0 22.5 -9.5t9.5 -22.5q0 -14 -9.5 -23.5t-22.5 -9.5 t-23 10t-10 23zM468 88q0 13 9.5 22.5t23.5 9.5q13 0 22.5 -9t9.5 -23t-9.5 -23.5t-22.5 -9.5t-23 9.5t-10 23.5zM468 442q0 13 9.5 22.5t23.5 9.5q13 0 22.5 -9t9.5 -23t-9.5 -23.5t-22.5 -9.5t-23 9.5t-10 23.5zM527 206q0 13 9.5 22.5t23.5 9.5t23 -9t9 -23t-9.5 -23.5 t-22.5 -9.5q-14 0 -23.5 9.5t-9.5 23.5zM527 324q0 13 9.5 22.5t23.5 9.5t23 -9t9 -23t-9.5 -23.5t-22.5 -9.5q-14 0 -23.5 9.5t-9.5 23.5z" />
<glyph unicode="P" d="M55 29q0 13 9.5 22.5t23.5 9.5t23 -9.5t9 -22.5q0 -14 -9.5 -23.5t-22.5 -9.5q-14 0 -23.5 10t-9.5 23zM55 147q0 13 9.5 22.5t23.5 9.5t23 -9.5t9 -22.5q0 -14 -9.5 -23.5t-22.5 -9.5q-14 0 -23.5 10t-9.5 23zM55 265q0 13 9.5 22.5t23.5 9.5t23 -9.5t9 -22.5 q0 -14 -9.5 -23.5t-22.5 -9.5q-14 0 -23.5 10t-9.5 23zM55 383q0 13 9.5 22.5t23.5 9.5t23 -9.5t9 -22.5q0 -14 -9.5 -23.5t-22.5 -9.5q-14 0 -23.5 10t-9.5 23zM173 147q0 13 9.5 22.5t23.5 9.5t23 -9.5t9 -22.5q0 -14 -9.5 -23.5t-22.5 -9.5q-14 0 -23.5 10t-9.5 23z M173 501q0 13 9.5 22.5t23.5 9.5t23 -9.5t9 -22.5q0 -14 -9.5 -23.5t-22.5 -9.5q-14 0 -23.5 10t-9.5 23zM291 147q0 13 9.5 22.5t23.5 9.5t23 -9.5t9 -22.5q0 -14 -9.5 -23.5t-22.5 -9.5q-14 0 -23.5 10t-9.5 23zM291 501q0 13 9.5 22.5t23.5 9.5t23 -9.5t9 -22.5 q0 -14 -9.5 -23.5t-22.5 -9.5q-14 0 -23.5 10t-9.5 23zM409 147q0 13 9.5 22.5t23.5 9.5t23 -9.5t9 -22.5q0 -14 -9.5 -23.5t-22.5 -9.5q-14 0 -23.5 10t-9.5 23zM409 501q0 13 9.5 22.5t23.5 9.5t23 -9.5t9 -22.5q0 -14 -9.5 -23.5t-22.5 -9.5q-14 0 -23.5 10t-9.5 23z M527 265q0 13 9.5 22.5t23.5 9.5t23 -9.5t9 -22.5q0 -14 -9.5 -23.5t-22.5 -9.5q-14 0 -23.5 10t-9.5 23zM527 383q0 13 9.5 22.5t23.5 9.5t23 -9.5t9 -22.5q0 -14 -9.5 -23.5t-22.5 -9.5q-14 0 -23.5 10t-9.5 23z" />
<glyph unicode="Q" d="M55 206q0 13 9.5 22.5t23.5 9.5t23 -9t9 -23t-9.5 -23.5t-22.5 -9.5q-14 0 -23.5 9.5t-9.5 23.5zM55 324q0 13 9.5 22.5t23.5 9.5t23 -9t9 -23t-9.5 -23.5t-22.5 -9.5q-14 0 -23.5 9.5t-9.5 23.5zM114 88q0 13 9.5 22.5t23.5 9.5q13 0 22.5 -9t9.5 -23t-9.5 -23.5 t-22.5 -9.5t-23 9.5t-10 23.5zM114 442q0 13 9.5 22.5t23.5 9.5q13 0 22.5 -9t9.5 -23t-9.5 -23.5t-22.5 -9.5t-23 9.5t-10 23.5zM232 29q0 13 9.5 22.5t23.5 9.5q13 0 22.5 -9.5t9.5 -22.5q0 -14 -9.5 -23.5t-22.5 -9.5t-23 10t-10 23zM232 501q0 13 9.5 22.5t23.5 9.5 q13 0 22.5 -9.5t9.5 -22.5q0 -14 -9.5 -23.5t-22.5 -9.5t-23 10t-10 23zM350 29q0 13 9.5 22.5t23.5 9.5q13 0 22.5 -9.5t9.5 -22.5q0 -14 -9.5 -23.5t-22.5 -9.5t-23 10t-10 23zM350 501q0 13 9.5 22.5t23.5 9.5q13 0 22.5 -9.5t9.5 -22.5q0 -14 -9.5 -23.5t-22.5 -9.5 t-23 10t-10 23zM468 -30q0 13 9.5 22.5t23.5 9.5q13 0 22.5 -9t9.5 -23t-9.5 -23.5t-22.5 -9.5t-23 9.5t-10 23.5zM468 88q0 13 9.5 22.5t23.5 9.5q13 0 22.5 -9t9.5 -23t-9.5 -23.5t-22.5 -9.5t-23 9.5t-10 23.5zM468 442q0 13 9.5 22.5t23.5 9.5q13 0 22.5 -9t9.5 -23 t-9.5 -23.5t-22.5 -9.5t-23 9.5t-10 23.5zM527 206q0 13 9.5 22.5t23.5 9.5t23 -9t9 -23t-9.5 -23.5t-22.5 -9.5q-14 0 -23.5 9.5t-9.5 23.5zM527 324q0 13 9.5 22.5t23.5 9.5t23 -9t9 -23t-9.5 -23.5t-22.5 -9.5q-14 0 -23.5 9.5t-9.5 23.5zM586 -148q0 13 9.5 22.5 t23.5 9.5q13 0 22.5 -9t9.5 -23t-9.5 -23.5t-22.5 -9.5t-23 9.5t-10 23.5z" />
<glyph unicode="R" d="M55 29q0 13 9.5 22.5t23.5 9.5t23 -9.5t9 -22.5q0 -14 -9.5 -23.5t-22.5 -9.5q-14 0 -23.5 10t-9.5 23zM55 147q0 13 9.5 22.5t23.5 9.5t23 -9.5t9 -22.5q0 -14 -9.5 -23.5t-22.5 -9.5q-14 0 -23.5 10t-9.5 23zM55 265q0 13 9.5 22.5t23.5 9.5t23 -9.5t9 -22.5 q0 -14 -9.5 -23.5t-22.5 -9.5q-14 0 -23.5 10t-9.5 23zM55 383q0 13 9.5 22.5t23.5 9.5t23 -9.5t9 -22.5q0 -14 -9.5 -23.5t-22.5 -9.5q-14 0 -23.5 10t-9.5 23zM173 147q0 13 9.5 22.5t23.5 9.5t23 -9.5t9 -22.5q0 -14 -9.5 -23.5t-22.5 -9.5q-14 0 -23.5 10t-9.5 23z M173 501q0 13 9.5 22.5t23.5 9.5t23 -9.5t9 -22.5q0 -14 -9.5 -23.5t-22.5 -9.5q-14 0 -23.5 10t-9.5 23zM291 147q0 13 9.5 22.5t23.5 9.5t23 -9.5t9 -22.5q0 -14 -9.5 -23.5t-22.5 -9.5q-14 0 -23.5 10t-9.5 23zM291 501q0 13 9.5 22.5t23.5 9.5t23 -9.5t9 -22.5 q0 -14 -9.5 -23.5t-22.5 -9.5q-14 0 -23.5 10t-9.5 23zM409 147q0 13 9.5 22.5t23.5 9.5t23 -9.5t9 -22.5q0 -14 -9.5 -23.5t-22.5 -9.5q-14 0 -23.5 10t-9.5 23zM409 501q0 13 9.5 22.5t23.5 9.5t23 -9.5t9 -22.5q0 -14 -9.5 -23.5t-22.5 -9.5q-14 0 -23.5 10t-9.5 23z M527 29q0 13 9.5 22.5t23.5 9.5t23 -9.5t9 -22.5q0 -14 -9.5 -23.5t-22.5 -9.5q-14 0 -23.5 10t-9.5 23zM527 265q0 13 9.5 22.5t23.5 9.5t23 -9.5t9 -22.5q0 -14 -9.5 -23.5t-22.5 -9.5q-14 0 -23.5 10t-9.5 23zM527 383q0 13 9.5 22.5t23.5 9.5t23 -9.5t9 -22.5 q0 -14 -9.5 -23.5t-22.5 -9.5q-14 0 -23.5 10t-9.5 23z" />
<glyph unicode="S" horiz-adv-x="531" d="M55 29q0 13 9.5 22.5t23.5 9.5t23 -9.5t9 -22.5q0 -14 -9.5 -23.5t-22.5 -9.5q-14 0 -23.5 10t-9.5 23zM173 29q0 13 9.5 22.5t23.5 9.5t23 -9.5t9 -22.5q0 -14 -9.5 -23.5t-22.5 -9.5q-14 0 -23.5 10t-9.5 23zM232 147q0 13 9.5 22.5t23.5 9.5q13 0 22.5 -9.5t9.5 -22.5 q0 -14 -9.5 -23.5t-22.5 -9.5t-23 10t-10 23zM232 265q0 13 9.5 22.5t23.5 9.5q13 0 22.5 -9.5t9.5 -22.5q0 -14 -9.5 -23.5t-22.5 -9.5t-23 10t-10 23zM232 383q0 13 9.5 22.5t23.5 9.5q13 0 22.5 -9.5t9.5 -22.5q0 -14 -9.5 -23.5t-22.5 -9.5t-23 10t-10 23zM291 501 q0 13 9.5 22.5t23.5 9.5t23 -9.5t9 -22.5q0 -14 -9.5 -23.5t-22.5 -9.5q-14 0 -23.5 10t-9.5 23zM409 501q0 13 9.5 22.5t23.5 9.5t23 -9.5t9 -22.5q0 -14 -9.5 -23.5t-22.5 -9.5q-14 0 -23.5 10t-9.5 23z" />
<glyph unicode="T" horiz-adv-x="531" d="M55 501q0 13 9.5 22.5t23.5 9.5t23 -9.5t9 -22.5q0 -14 -9.5 -23.5t-22.5 -9.5q-14 0 -23.5 10t-9.5 23zM173 501q0 13 9.5 22.5t23.5 9.5t23 -9.5t9 -22.5q0 -14 -9.5 -23.5t-22.5 -9.5q-14 0 -23.5 10t-9.5 23zM232 29q0 13 9.5 22.5t23.5 9.5q13 0 22.5 -9.5 t9.5 -22.5q0 -14 -9.5 -23.5t-22.5 -9.5t-23 10t-10 23zM232 147q0 13 9.5 22.5t23.5 9.5q13 0 22.5 -9.5t9.5 -22.5q0 -14 -9.5 -23.5t-22.5 -9.5t-23 10t-10 23zM232 265q0 13 9.5 22.5t23.5 9.5q13 0 22.5 -9.5t9.5 -22.5q0 -14 -9.5 -23.5t-22.5 -9.5t-23 10t-10 23z M232 383q0 13 9.5 22.5t23.5 9.5q13 0 22.5 -9.5t9.5 -22.5q0 -14 -9.5 -23.5t-22.5 -9.5t-23 10t-10 23zM291 501q0 13 9.5 22.5t23.5 9.5t23 -9.5t9 -22.5q0 -14 -9.5 -23.5t-22.5 -9.5q-14 0 -23.5 10t-9.5 23zM409 501q0 13 9.5 22.5t23.5 9.5t23 -9.5t9 -22.5 q0 -14 -9.5 -23.5t-22.5 -9.5q-14 0 -23.5 10t-9.5 23z" />
<glyph unicode="U" d="M55 147q0 13 9.5 22.5t23.5 9.5t23 -9.5t9 -22.5q0 -14 -9.5 -23.5t-22.5 -9.5q-14 0 -23.5 10t-9.5 23zM55 265q0 13 9.5 22.5t23.5 9.5t23 -9.5t9 -22.5q0 -14 -9.5 -23.5t-22.5 -9.5q-14 0 -23.5 10t-9.5 23zM55 383q0 13 9.5 22.5t23.5 9.5t23 -9.5t9 -22.5 q0 -14 -9.5 -23.5t-22.5 -9.5q-14 0 -23.5 10t-9.5 23zM55 501q0 13 9.5 22.5t23.5 9.5t23 -9.5t9 -22.5q0 -14 -9.5 -23.5t-22.5 -9.5q-14 0 -23.5 10t-9.5 23zM173 29q0 13 9.5 22.5t23.5 9.5t23 -9.5t9 -22.5q0 -14 -9.5 -23.5t-22.5 -9.5q-14 0 -23.5 10t-9.5 23z M291 29q0 13 9.5 22.5t23.5 9.5t23 -9.5t9 -22.5q0 -14 -9.5 -23.5t-22.5 -9.5q-14 0 -23.5 10t-9.5 23zM409 29q0 13 9.5 22.5t23.5 9.5t23 -9.5t9 -22.5q0 -14 -9.5 -23.5t-22.5 -9.5q-14 0 -23.5 10t-9.5 23zM527 147q0 13 9.5 22.5t23.5 9.5t23 -9.5t9 -22.5 q0 -14 -9.5 -23.5t-22.5 -9.5q-14 0 -23.5 10t-9.5 23zM527 265q0 13 9.5 22.5t23.5 9.5t23 -9.5t9 -22.5q0 -14 -9.5 -23.5t-22.5 -9.5q-14 0 -23.5 10t-9.5 23zM527 383q0 13 9.5 22.5t23.5 9.5t23 -9.5t9 -22.5q0 -14 -9.5 -23.5t-22.5 -9.5q-14 0 -23.5 10t-9.5 23z M527 501q0 13 9.5 22.5t23.5 9.5t23 -9.5t9 -22.5q0 -14 -9.5 -23.5t-22.5 -9.5q-14 0 -23.5 10t-9.5 23z" />
<glyph unicode="V" d="M55 265q0 13 9.5 22.5t23.5 9.5t23 -9.5t9 -22.5q0 -14 -9.5 -23.5t-22.5 -9.5q-14 0 -23.5 10t-9.5 23zM55 383q0 13 9.5 22.5t23.5 9.5t23 -9.5t9 -22.5q0 -14 -9.5 -23.5t-22.5 -9.5q-14 0 -23.5 10t-9.5 23zM55 501q0 13 9.5 22.5t23.5 9.5t23 -9.5t9 -22.5 q0 -14 -9.5 -23.5t-22.5 -9.5q-14 0 -23.5 10t-9.5 23zM114 147q0 13 9.5 22.5t23.5 9.5q13 0 22.5 -9.5t9.5 -22.5q0 -14 -9.5 -23.5t-22.5 -9.5t-23 10t-10 23zM291 29q0 13 9.5 22.5t23.5 9.5t23 -9.5t9 -22.5q0 -14 -9.5 -23.5t-22.5 -9.5q-14 0 -23.5 10t-9.5 23z M468 147q0 13 9.5 22.5t23.5 9.5q13 0 22.5 -9.5t9.5 -22.5q0 -14 -9.5 -23.5t-22.5 -9.5t-23 10t-10 23zM527 265q0 13 9.5 22.5t23.5 9.5t23 -9.5t9 -22.5q0 -14 -9.5 -23.5t-22.5 -9.5q-14 0 -23.5 10t-9.5 23zM527 383q0 13 9.5 22.5t23.5 9.5t23 -9.5t9 -22.5 q0 -14 -9.5 -23.5t-22.5 -9.5q-14 0 -23.5 10t-9.5 23zM527 501q0 13 9.5 22.5t23.5 9.5t23 -9.5t9 -22.5q0 -14 -9.5 -23.5t-22.5 -9.5q-14 0 -23.5 10t-9.5 23z" />
<glyph unicode="W" horiz-adv-x="885" d="M55 147q0 13 9.5 22.5t23.5 9.5t23 -9.5t9 -22.5q0 -14 -9.5 -23.5t-22.5 -9.5q-14 0 -23.5 10t-9.5 23zM55 265q0 13 9.5 22.5t23.5 9.5t23 -9.5t9 -22.5q0 -14 -9.5 -23.5t-22.5 -9.5q-14 0 -23.5 10t-9.5 23zM55 383q0 13 9.5 22.5t23.5 9.5t23 -9.5t9 -22.5 q0 -14 -9.5 -23.5t-22.5 -9.5q-14 0 -23.5 10t-9.5 23zM55 501q0 13 9.5 22.5t23.5 9.5t23 -9.5t9 -22.5q0 -14 -9.5 -23.5t-22.5 -9.5q-14 0 -23.5 10t-9.5 23zM173 29q0 13 9.5 22.5t23.5 9.5t23 -9.5t9 -22.5q0 -14 -9.5 -23.5t-22.5 -9.5q-14 0 -23.5 10t-9.5 23z M291 29q0 13 9.5 22.5t23.5 9.5t23 -9.5t9 -22.5q0 -14 -9.5 -23.5t-22.5 -9.5q-14 0 -23.5 10t-9.5 23zM409 147q0 13 9.5 22.5t23.5 9.5t23 -9.5t9 -22.5q0 -14 -9.5 -23.5t-22.5 -9.5q-14 0 -23.5 10t-9.5 23zM409 265q0 13 9.5 22.5t23.5 9.5t23 -9.5t9 -22.5 q0 -14 -9.5 -23.5t-22.5 -9.5q-14 0 -23.5 10t-9.5 23zM409 383q0 13 9.5 22.5t23.5 9.5t23 -9.5t9 -22.5q0 -14 -9.5 -23.5t-22.5 -9.5q-14 0 -23.5 10t-9.5 23zM409 501q0 13 9.5 22.5t23.5 9.5t23 -9.5t9 -22.5q0 -14 -9.5 -23.5t-22.5 -9.5q-14 0 -23.5 10t-9.5 23z M527 29q0 13 9.5 22.5t23.5 9.5t23 -9.5t9 -22.5q0 -14 -9.5 -23.5t-22.5 -9.5q-14 0 -23.5 10t-9.5 23zM645 29q0 13 9.5 22.5t23.5 9.5t23 -9.5t9 -22.5q0 -14 -9.5 -23.5t-22.5 -9.5q-14 0 -23.5 10t-9.5 23zM763 147q0 13 9.5 22.5t23.5 9.5t23 -9.5t9 -22.5 q0 -14 -9.5 -23.5t-22.5 -9.5q-14 0 -23.5 10t-9.5 23zM763 265q0 13 9.5 22.5t23.5 9.5t23 -9.5t9 -22.5q0 -14 -9.5 -23.5t-22.5 -9.5q-14 0 -23.5 10t-9.5 23zM763 383q0 13 9.5 22.5t23.5 9.5t23 -9.5t9 -22.5q0 -14 -9.5 -23.5t-22.5 -9.5q-14 0 -23.5 10t-9.5 23z M763 501q0 13 9.5 22.5t23.5 9.5t23 -9.5t9 -22.5q0 -14 -9.5 -23.5t-22.5 -9.5q-14 0 -23.5 10t-9.5 23z" />
<glyph unicode="X" d="M55 29q0 13 9.5 22.5t23.5 9.5t23 -9.5t9 -22.5q0 -14 -9.5 -23.5t-22.5 -9.5q-14 0 -23.5 10t-9.5 23zM55 501q0 13 9.5 22.5t23.5 9.5t23 -9.5t9 -22.5q0 -14 -9.5 -23.5t-22.5 -9.5q-14 0 -23.5 10t-9.5 23zM173 147q0 13 9.5 22.5t23.5 9.5t23 -9.5t9 -22.5 q0 -14 -9.5 -23.5t-22.5 -9.5q-14 0 -23.5 10t-9.5 23zM173 383q0 13 9.5 22.5t23.5 9.5t23 -9.5t9 -22.5q0 -14 -9.5 -23.5t-22.5 -9.5q-14 0 -23.5 10t-9.5 23zM291 265q0 13 9.5 22.5t23.5 9.5t23 -9.5t9 -22.5q0 -14 -9.5 -23.5t-22.5 -9.5q-14 0 -23.5 10t-9.5 23z M409 147q0 13 9.5 22.5t23.5 9.5t23 -9.5t9 -22.5q0 -14 -9.5 -23.5t-22.5 -9.5q-14 0 -23.5 10t-9.5 23zM409 383q0 13 9.5 22.5t23.5 9.5t23 -9.5t9 -22.5q0 -14 -9.5 -23.5t-22.5 -9.5q-14 0 -23.5 10t-9.5 23zM527 29q0 13 9.5 22.5t23.5 9.5t23 -9.5t9 -22.5 q0 -14 -9.5 -23.5t-22.5 -9.5q-14 0 -23.5 10t-9.5 23zM527 501q0 13 9.5 22.5t23.5 9.5t23 -9.5t9 -22.5q0 -14 -9.5 -23.5t-22.5 -9.5q-14 0 -23.5 10t-9.5 23z" />
<glyph unicode="Y" d="M55 501q0 13 9.5 22.5t23.5 9.5t23 -9.5t9 -22.5q0 -14 -9.5 -23.5t-22.5 -9.5q-14 0 -23.5 10t-9.5 23zM173 383q0 13 9.5 22.5t23.5 9.5t23 -9.5t9 -22.5q0 -14 -9.5 -23.5t-22.5 -9.5q-14 0 -23.5 10t-9.5 23zM291 29q0 13 9.5 22.5t23.5 9.5t23 -9.5t9 -22.5 q0 -14 -9.5 -23.5t-22.5 -9.5q-14 0 -23.5 10t-9.5 23zM291 147q0 13 9.5 22.5t23.5 9.5t23 -9.5t9 -22.5q0 -14 -9.5 -23.5t-22.5 -9.5q-14 0 -23.5 10t-9.5 23zM291 265q0 13 9.5 22.5t23.5 9.5t23 -9.5t9 -22.5q0 -14 -9.5 -23.5t-22.5 -9.5q-14 0 -23.5 10t-9.5 23z M409 383q0 13 9.5 22.5t23.5 9.5t23 -9.5t9 -22.5q0 -14 -9.5 -23.5t-22.5 -9.5q-14 0 -23.5 10t-9.5 23zM527 501q0 13 9.5 22.5t23.5 9.5t23 -9.5t9 -22.5q0 -14 -9.5 -23.5t-22.5 -9.5q-14 0 -23.5 10t-9.5 23z" />
<glyph unicode="Z" horiz-adv-x="531" d="M55 29q0 13 9.5 22.5t23.5 9.5t23 -9.5t9 -22.5q0 -14 -9.5 -23.5t-22.5 -9.5q-14 0 -23.5 10t-9.5 23zM55 501q0 13 9.5 22.5t23.5 9.5t23 -9.5t9 -22.5q0 -14 -9.5 -23.5t-22.5 -9.5q-14 0 -23.5 10t-9.5 23zM173 29q0 13 9.5 22.5t23.5 9.5t23 -9.5t9 -22.5 q0 -14 -9.5 -23.5t-22.5 -9.5q-14 0 -23.5 10t-9.5 23zM173 206q0 13 9.5 22.5t23.5 9.5t23 -9t9 -23t-9.5 -23.5t-22.5 -9.5q-14 0 -23.5 9.5t-9.5 23.5zM173 501q0 13 9.5 22.5t23.5 9.5t23 -9.5t9 -22.5q0 -14 -9.5 -23.5t-22.5 -9.5q-14 0 -23.5 10t-9.5 23zM291 29 q0 13 9.5 22.5t23.5 9.5t23 -9.5t9 -22.5q0 -14 -9.5 -23.5t-22.5 -9.5q-14 0 -23.5 10t-9.5 23zM291 324q0 13 9.5 22.5t23.5 9.5t23 -9t9 -23t-9.5 -23.5t-22.5 -9.5q-14 0 -23.5 9.5t-9.5 23.5zM291 501q0 13 9.5 22.5t23.5 9.5t23 -9.5t9 -22.5q0 -14 -9.5 -23.5 t-22.5 -9.5q-14 0 -23.5 10t-9.5 23zM409 29q0 13 9.5 22.5t23.5 9.5t23 -9.5t9 -22.5q0 -14 -9.5 -23.5t-22.5 -9.5q-14 0 -23.5 10t-9.5 23zM409 501q0 13 9.5 22.5t23.5 9.5t23 -9.5t9 -22.5q0 -14 -9.5 -23.5t-22.5 -9.5q-14 0 -23.5 10t-9.5 23z" />
<glyph unicode="[" horiz-adv-x="295" d="M55 29q0 13 9.5 22.5t23.5 9.5t23 -9.5t9 -22.5q0 -14 -9.5 -23.5t-22.5 -9.5q-14 0 -23.5 10t-9.5 23zM55 147q0 13 9.5 22.5t23.5 9.5t23 -9.5t9 -22.5q0 -14 -9.5 -23.5t-22.5 -9.5q-14 0 -23.5 10t-9.5 23zM55 265q0 13 9.5 22.5t23.5 9.5t23 -9.5t9 -22.5 q0 -14 -9.5 -23.5t-22.5 -9.5q-14 0 -23.5 10t-9.5 23zM55 383q0 13 9.5 22.5t23.5 9.5t23 -9.5t9 -22.5q0 -14 -9.5 -23.5t-22.5 -9.5q-14 0 -23.5 10t-9.5 23zM55 501q0 13 9.5 22.5t23.5 9.5t23 -9.5t9 -22.5q0 -14 -9.5 -23.5t-22.5 -9.5q-14 0 -23.5 10t-9.5 23z M173 29q0 13 9.5 22.5t23.5 9.5t23 -9.5t9 -22.5q0 -14 -9.5 -23.5t-22.5 -9.5q-14 0 -23.5 10t-9.5 23zM173 501q0 13 9.5 22.5t23.5 9.5t23 -9.5t9 -22.5q0 -14 -9.5 -23.5t-22.5 -9.5q-14 0 -23.5 10t-9.5 23z" />
<glyph unicode="\" horiz-adv-x="413" d="M55 501q0 13 9.5 22.5t23.5 9.5t23 -9.5t9 -22.5q0 -14 -9.5 -23.5t-22.5 -9.5q-14 0 -23.5 10t-9.5 23zM114 383q0 13 9.5 22.5t23.5 9.5q13 0 22.5 -9.5t9.5 -22.5q0 -14 -9.5 -23.5t-22.5 -9.5t-23 10t-10 23zM173 265q0 13 9.5 22.5t23.5 9.5t23 -9.5t9 -22.5 q0 -14 -9.5 -23.5t-22.5 -9.5q-14 0 -23.5 10t-9.5 23zM232 147q0 13 9.5 22.5t23.5 9.5q13 0 22.5 -9.5t9.5 -22.5q0 -14 -9.5 -23.5t-22.5 -9.5t-23 10t-10 23zM291 29q0 13 9.5 22.5t23.5 9.5t23 -9.5t9 -22.5q0 -14 -9.5 -23.5t-22.5 -9.5q-14 0 -23.5 10t-9.5 23z" />
<glyph unicode="]" horiz-adv-x="295" d="M55 29q0 13 9.5 22.5t23.5 9.5t23 -9.5t9 -22.5q0 -14 -9.5 -23.5t-22.5 -9.5q-14 0 -23.5 10t-9.5 23zM55 501q0 13 9.5 22.5t23.5 9.5t23 -9.5t9 -22.5q0 -14 -9.5 -23.5t-22.5 -9.5q-14 0 -23.5 10t-9.5 23zM173 29q0 13 9.5 22.5t23.5 9.5t23 -9.5t9 -22.5 q0 -14 -9.5 -23.5t-22.5 -9.5q-14 0 -23.5 10t-9.5 23zM173 147q0 13 9.5 22.5t23.5 9.5t23 -9.5t9 -22.5q0 -14 -9.5 -23.5t-22.5 -9.5q-14 0 -23.5 10t-9.5 23zM173 265q0 13 9.5 22.5t23.5 9.5t23 -9.5t9 -22.5q0 -14 -9.5 -23.5t-22.5 -9.5q-14 0 -23.5 10t-9.5 23z M173 383q0 13 9.5 22.5t23.5 9.5t23 -9.5t9 -22.5q0 -14 -9.5 -23.5t-22.5 -9.5q-14 0 -23.5 10t-9.5 23zM173 501q0 13 9.5 22.5t23.5 9.5t23 -9.5t9 -22.5q0 -14 -9.5 -23.5t-22.5 -9.5q-14 0 -23.5 10t-9.5 23z" />
<glyph unicode="^" d="M55 265q0 13 9.5 22.5t23.5 9.5t23 -9.5t9 -22.5q0 -14 -9.5 -23.5t-22.5 -9.5q-14 0 -23.5 10t-9.5 23zM173 383q0 13 9.5 22.5t23.5 9.5t23 -9.5t9 -22.5q0 -14 -9.5 -23.5t-22.5 -9.5q-14 0 -23.5 10t-9.5 23zM291 501q0 13 9.5 22.5t23.5 9.5t23 -9.5t9 -22.5 q0 -14 -9.5 -23.5t-22.5 -9.5q-14 0 -23.5 10t-9.5 23zM409 383q0 13 9.5 22.5t23.5 9.5t23 -9.5t9 -22.5q0 -14 -9.5 -23.5t-22.5 -9.5q-14 0 -23.5 10t-9.5 23zM527 265q0 13 9.5 22.5t23.5 9.5t23 -9.5t9 -22.5q0 -14 -9.5 -23.5t-22.5 -9.5q-14 0 -23.5 10t-9.5 23z" />
<glyph unicode="_" horiz-adv-x="472" d="M-4 -89q0 13 9.5 22.5t23.5 9.5q13 0 22.5 -9.5t9.5 -22.5q0 -14 -9.5 -23.5t-22.5 -9.5t-23 10t-10 23zM114 -89q0 13 9.5 22.5t23.5 9.5q13 0 22.5 -9.5t9.5 -22.5q0 -14 -9.5 -23.5t-22.5 -9.5t-23 10t-10 23zM232 -89q0 13 9.5 22.5t23.5 9.5q13 0 22.5 -9.5 t9.5 -22.5q0 -14 -9.5 -23.5t-22.5 -9.5t-23 10t-10 23zM350 -89q0 13 9.5 22.5t23.5 9.5q13 0 22.5 -9.5t9.5 -22.5q0 -14 -9.5 -23.5t-22.5 -9.5t-23 10t-10 23z" />
<glyph unicode="`" horiz-adv-x="295" d="M55 501q0 13 9.5 22.5t23.5 9.5t23 -9.5t9 -22.5q0 -14 -9.5 -23.5t-22.5 -9.5q-14 0 -23.5 10t-9.5 23zM173 442q0 13 9.5 22.5t23.5 9.5t23 -9t9 -23t-9.5 -23.5t-22.5 -9.5q-14 0 -23.5 9.5t-9.5 23.5z" />
<glyph unicode="a" horiz-adv-x="708" d="M55 206q0 13 9.5 22.5t23.5 9.5t23 -9t9 -23t-9.5 -23.5t-22.5 -9.5q-14 0 -23.5 9.5t-9.5 23.5zM55 324q0 13 9.5 22.5t23.5 9.5t23 -9t9 -23t-9.5 -23.5t-22.5 -9.5q-14 0 -23.5 9.5t-9.5 23.5zM114 88q0 13 9.5 22.5t23.5 9.5q13 0 22.5 -9t9.5 -23t-9.5 -23.5 t-22.5 -9.5t-23 9.5t-10 23.5zM114 442q0 13 9.5 22.5t23.5 9.5q13 0 22.5 -9t9.5 -23t-9.5 -23.5t-22.5 -9.5t-23 9.5t-10 23.5zM232 29q0 13 9.5 22.5t23.5 9.5q13 0 22.5 -9.5t9.5 -22.5q0 -14 -9.5 -23.5t-22.5 -9.5t-23 10t-10 23zM232 501q0 13 9.5 22.5t23.5 9.5 q13 0 22.5 -9.5t9.5 -22.5q0 -14 -9.5 -23.5t-22.5 -9.5t-23 10t-10 23zM350 29q0 13 9.5 22.5t23.5 9.5q13 0 22.5 -9.5t9.5 -22.5q0 -14 -9.5 -23.5t-22.5 -9.5t-23 10t-10 23zM350 501q0 13 9.5 22.5t23.5 9.5q13 0 22.5 -9.5t9.5 -22.5q0 -14 -9.5 -23.5t-22.5 -9.5 t-23 10t-10 23zM468 501q0 13 9.5 22.5t23.5 9.5q13 0 22.5 -9.5t9.5 -22.5q0 -14 -9.5 -23.5t-22.5 -9.5t-23 10t-10 23zM527 147q0 13 9.5 22.5t23.5 9.5t23 -9.5t9 -22.5q0 -14 -9.5 -23.5t-22.5 -9.5q-14 0 -23.5 10t-9.5 23zM527 265q0 13 9.5 22.5t23.5 9.5t23 -9.5 t9 -22.5q0 -14 -9.5 -23.5t-22.5 -9.5q-14 0 -23.5 10t-9.5 23zM527 383q0 13 9.5 22.5t23.5 9.5t23 -9.5t9 -22.5q0 -14 -9.5 -23.5t-22.5 -9.5q-14 0 -23.5 10t-9.5 23zM586 29q0 13 9.5 22.5t23.5 9.5q13 0 22.5 -9.5t9.5 -22.5q0 -14 -9.5 -23.5t-22.5 -9.5t-23 10 t-10 23z" />
<glyph unicode="b" horiz-adv-x="674" d="M21 29q0 13 9.5 22.5t23.5 9.5t23 -9.5t9 -22.5q0 -14 -9.5 -23.5t-22.5 -9.5q-14 0 -23.5 10t-9.5 23zM80 206q0 13 9.5 22.5t23.5 9.5q13 0 22.5 -9t9.5 -23t-9.5 -23.5t-22.5 -9.5t-23 9.5t-10 23.5zM80 324q0 13 9.5 22.5t23.5 9.5q13 0 22.5 -9t9.5 -23t-9.5 -23.5 t-22.5 -9.5t-23 9.5t-10 23.5zM80 560q0 13 9.5 22.5t23.5 9.5q13 0 22.5 -9t9.5 -23t-9.5 -23.5t-22.5 -9.5t-23 9.5t-10 23.5zM80 678q0 13 9.5 22.5t23.5 9.5q13 0 22.5 -9t9.5 -23t-9.5 -23.5t-22.5 -9.5t-23 9.5t-10 23.5zM139 88q0 13 9.5 22.5t23.5 9.5t23 -9t9 -23 t-9.5 -23.5t-22.5 -9.5q-14 0 -23.5 9.5t-9.5 23.5zM139 442q0 13 9.5 22.5t23.5 9.5t23 -9t9 -23t-9.5 -23.5t-22.5 -9.5q-14 0 -23.5 9.5t-9.5 23.5zM257 29q0 13 9.5 22.5t23.5 9.5t23 -9.5t9 -22.5q0 -14 -9.5 -23.5t-22.5 -9.5q-14 0 -23.5 10t-9.5 23zM257 501 q0 13 9.5 22.5t23.5 9.5t23 -9.5t9 -22.5q0 -14 -9.5 -23.5t-22.5 -9.5q-14 0 -23.5 10t-9.5 23zM375 29q0 13 9.5 22.5t23.5 9.5t23 -9.5t9 -22.5q0 -14 -9.5 -23.5t-22.5 -9.5q-14 0 -23.5 10t-9.5 23zM375 501q0 13 9.5 22.5t23.5 9.5t23 -9.5t9 -22.5q0 -14 -9.5 -23.5 t-22.5 -9.5q-14 0 -23.5 10t-9.5 23zM493 88q0 13 9.5 22.5t23.5 9.5t23 -9t9 -23t-9.5 -23.5t-22.5 -9.5q-14 0 -23.5 9.5t-9.5 23.5zM493 442q0 13 9.5 22.5t23.5 9.5t23 -9t9 -23t-9.5 -23.5t-22.5 -9.5q-14 0 -23.5 9.5t-9.5 23.5zM552 206q0 13 9.5 22.5t23.5 9.5 q13 0 22.5 -9t9.5 -23t-9.5 -23.5t-22.5 -9.5t-23 9.5t-10 23.5zM552 324q0 13 9.5 22.5t23.5 9.5q13 0 22.5 -9t9.5 -23t-9.5 -23.5t-22.5 -9.5t-23 9.5t-10 23.5z" />
<glyph unicode="c" horiz-adv-x="590" d="M55 206q0 13 9.5 22.5t23.5 9.5t23 -9t9 -23t-9.5 -23.5t-22.5 -9.5q-14 0 -23.5 9.5t-9.5 23.5zM55 324q0 13 9.5 22.5t23.5 9.5t23 -9t9 -23t-9.5 -23.5t-22.5 -9.5q-14 0 -23.5 9.5t-9.5 23.5zM114 88q0 13 9.5 22.5t23.5 9.5q13 0 22.5 -9t9.5 -23t-9.5 -23.5 t-22.5 -9.5t-23 9.5t-10 23.5zM114 442q0 13 9.5 22.5t23.5 9.5q13 0 22.5 -9t9.5 -23t-9.5 -23.5t-22.5 -9.5t-23 9.5t-10 23.5zM232 29q0 13 9.5 22.5t23.5 9.5q13 0 22.5 -9.5t9.5 -22.5q0 -14 -9.5 -23.5t-22.5 -9.5t-23 10t-10 23zM232 501q0 13 9.5 22.5t23.5 9.5 q13 0 22.5 -9.5t9.5 -22.5q0 -14 -9.5 -23.5t-22.5 -9.5t-23 10t-10 23zM350 29q0 13 9.5 22.5t23.5 9.5q13 0 22.5 -9.5t9.5 -22.5q0 -14 -9.5 -23.5t-22.5 -9.5t-23 10t-10 23zM350 501q0 13 9.5 22.5t23.5 9.5q13 0 22.5 -9.5t9.5 -22.5q0 -14 -9.5 -23.5t-22.5 -9.5 t-23 10t-10 23zM468 88q0 13 9.5 22.5t23.5 9.5q13 0 22.5 -9t9.5 -23t-9.5 -23.5t-22.5 -9.5t-23 9.5t-10 23.5zM468 442q0 13 9.5 22.5t23.5 9.5q13 0 22.5 -9t9.5 -23t-9.5 -23.5t-22.5 -9.5t-23 9.5t-10 23.5z" />
<glyph unicode="d" horiz-adv-x="708" d="M55 206q0 13 9.5 22.5t23.5 9.5t23 -9t9 -23t-9.5 -23.5t-22.5 -9.5q-14 0 -23.5 9.5t-9.5 23.5zM55 324q0 13 9.5 22.5t23.5 9.5t23 -9t9 -23t-9.5 -23.5t-22.5 -9.5q-14 0 -23.5 9.5t-9.5 23.5zM114 88q0 13 9.5 22.5t23.5 9.5q13 0 22.5 -9t9.5 -23t-9.5 -23.5 t-22.5 -9.5t-23 9.5t-10 23.5zM114 442q0 13 9.5 22.5t23.5 9.5q13 0 22.5 -9t9.5 -23t-9.5 -23.5t-22.5 -9.5t-23 9.5t-10 23.5zM232 29q0 13 9.5 22.5t23.5 9.5q13 0 22.5 -9.5t9.5 -22.5q0 -14 -9.5 -23.5t-22.5 -9.5t-23 10t-10 23zM232 501q0 13 9.5 22.5t23.5 9.5 q13 0 22.5 -9.5t9.5 -22.5q0 -14 -9.5 -23.5t-22.5 -9.5t-23 10t-10 23zM350 29q0 13 9.5 22.5t23.5 9.5q13 0 22.5 -9.5t9.5 -22.5q0 -14 -9.5 -23.5t-22.5 -9.5t-23 10t-10 23zM350 501q0 13 9.5 22.5t23.5 9.5q13 0 22.5 -9.5t9.5 -22.5q0 -14 -9.5 -23.5t-22.5 -9.5 t-23 10t-10 23zM468 88q0 13 9.5 22.5t23.5 9.5q13 0 22.5 -9t9.5 -23t-9.5 -23.5t-22.5 -9.5t-23 9.5t-10 23.5zM468 442q0 13 9.5 22.5t23.5 9.5q13 0 22.5 -9t9.5 -23t-9.5 -23.5t-22.5 -9.5t-23 9.5t-10 23.5zM527 206q0 13 9.5 22.5t23.5 9.5t23 -9t9 -23t-9.5 -23.5 t-22.5 -9.5q-14 0 -23.5 9.5t-9.5 23.5zM527 324q0 13 9.5 22.5t23.5 9.5t23 -9t9 -23t-9.5 -23.5t-22.5 -9.5q-14 0 -23.5 9.5t-9.5 23.5zM527 560q0 13 9.5 22.5t23.5 9.5t23 -9t9 -23t-9.5 -23.5t-22.5 -9.5q-14 0 -23.5 9.5t-9.5 23.5zM527 678q0 13 9.5 22.5t23.5 9.5 t23 -9t9 -23t-9.5 -23.5t-22.5 -9.5q-14 0 -23.5 9.5t-9.5 23.5zM586 29q0 13 9.5 22.5t23.5 9.5q13 0 22.5 -9.5t9.5 -22.5q0 -14 -9.5 -23.5t-22.5 -9.5t-23 10t-10 23z" />
<glyph unicode="e" d="M55 206q0 13 9.5 22.5t23.5 9.5t23 -9t9 -23t-9.5 -23.5t-22.5 -9.5q-14 0 -23.5 9.5t-9.5 23.5zM55 324q0 13 9.5 22.5t23.5 9.5t23 -9t9 -23t-9.5 -23.5t-22.5 -9.5q-14 0 -23.5 9.5t-9.5 23.5zM114 88q0 13 9.5 22.5t23.5 9.5q13 0 22.5 -9t9.5 -23t-9.5 -23.5 t-22.5 -9.5t-23 9.5t-10 23.5zM114 442q0 13 9.5 22.5t23.5 9.5q13 0 22.5 -9t9.5 -23t-9.5 -23.5t-22.5 -9.5t-23 9.5t-10 23.5zM173 265q0 13 9.5 22.5t23.5 9.5t23 -9.5t9 -22.5q0 -14 -9.5 -23.5t-22.5 -9.5q-14 0 -23.5 10t-9.5 23zM232 29q0 13 9.5 22.5t23.5 9.5 q13 0 22.5 -9.5t9.5 -22.5q0 -14 -9.5 -23.5t-22.5 -9.5t-23 10t-10 23zM232 501q0 13 9.5 22.5t23.5 9.5q13 0 22.5 -9.5t9.5 -22.5q0 -14 -9.5 -23.5t-22.5 -9.5t-23 10t-10 23zM291 265q0 13 9.5 22.5t23.5 9.5t23 -9.5t9 -22.5q0 -14 -9.5 -23.5t-22.5 -9.5 q-14 0 -23.5 10t-9.5 23zM350 29q0 13 9.5 22.5t23.5 9.5q13 0 22.5 -9.5t9.5 -22.5q0 -14 -9.5 -23.5t-22.5 -9.5t-23 10t-10 23zM350 501q0 13 9.5 22.5t23.5 9.5q13 0 22.5 -9.5t9.5 -22.5q0 -14 -9.5 -23.5t-22.5 -9.5t-23 10t-10 23zM409 265q0 13 9.5 22.5t23.5 9.5 t23 -9.5t9 -22.5q0 -14 -9.5 -23.5t-22.5 -9.5q-14 0 -23.5 10t-9.5 23zM468 88q0 13 9.5 22.5t23.5 9.5q13 0 22.5 -9t9.5 -23t-9.5 -23.5t-22.5 -9.5t-23 9.5t-10 23.5zM468 442q0 13 9.5 22.5t23.5 9.5q13 0 22.5 -9t9.5 -23t-9.5 -23.5t-22.5 -9.5t-23 9.5t-10 23.5z M527 324q0 13 9.5 22.5t23.5 9.5t23 -9t9 -23t-9.5 -23.5t-22.5 -9.5q-14 0 -23.5 9.5t-9.5 23.5z" />
<glyph unicode="f" horiz-adv-x="354" d="M55 -89q0 13 9.5 22.5t23.5 9.5t23 -9.5t9 -22.5q0 -14 -9.5 -23.5t-22.5 -9.5q-14 0 -23.5 10t-9.5 23zM114 29q0 13 9.5 22.5t23.5 9.5q13 0 22.5 -9.5t9.5 -22.5q0 -14 -9.5 -23.5t-22.5 -9.5t-23 10t-10 23zM114 147q0 13 9.5 22.5t23.5 9.5q13 0 22.5 -9.5 t9.5 -22.5q0 -14 -9.5 -23.5t-22.5 -9.5t-23 10t-10 23zM114 265q0 13 9.5 22.5t23.5 9.5q13 0 22.5 -9.5t9.5 -22.5q0 -14 -9.5 -23.5t-22.5 -9.5t-23 10t-10 23zM114 383q0 13 9.5 22.5t23.5 9.5q13 0 22.5 -9.5t9.5 -22.5q0 -14 -9.5 -23.5t-22.5 -9.5t-23 10t-10 23z M114 501q0 13 9.5 22.5t23.5 9.5q13 0 22.5 -9.5t9.5 -22.5q0 -14 -9.5 -23.5t-22.5 -9.5t-23 10t-10 23zM114 619q0 13 9.5 22.5t23.5 9.5q13 0 22.5 -9.5t9.5 -22.5q0 -14 -9.5 -23.5t-22.5 -9.5t-23 10t-10 23zM232 501q0 13 9.5 22.5t23.5 9.5q13 0 22.5 -9.5t9.5 -22.5 q0 -14 -9.5 -23.5t-22.5 -9.5t-23 10t-10 23zM232 678q0 13 9.5 22.5t23.5 9.5q13 0 22.5 -9t9.5 -23t-9.5 -23.5t-22.5 -9.5t-23 9.5t-10 23.5z" />
<glyph unicode="g" d="M55 206q0 13 9.5 22.5t23.5 9.5t23 -9t9 -23t-9.5 -23.5t-22.5 -9.5q-14 0 -23.5 9.5t-9.5 23.5zM55 324q0 13 9.5 22.5t23.5 9.5t23 -9t9 -23t-9.5 -23.5t-22.5 -9.5q-14 0 -23.5 9.5t-9.5 23.5zM114 88q0 13 9.5 22.5t23.5 9.5q13 0 22.5 -9t9.5 -23t-9.5 -23.5 t-22.5 -9.5t-23 9.5t-10 23.5zM114 442q0 13 9.5 22.5t23.5 9.5q13 0 22.5 -9t9.5 -23t-9.5 -23.5t-22.5 -9.5t-23 9.5t-10 23.5zM173 -148q0 13 9.5 22.5t23.5 9.5t23 -9t9 -23t-9.5 -23.5t-22.5 -9.5q-14 0 -23.5 9.5t-9.5 23.5zM232 29q0 13 9.5 22.5t23.5 9.5 q13 0 22.5 -9.5t9.5 -22.5q0 -14 -9.5 -23.5t-22.5 -9.5t-23 10t-10 23zM232 501q0 13 9.5 22.5t23.5 9.5q13 0 22.5 -9.5t9.5 -22.5q0 -14 -9.5 -23.5t-22.5 -9.5t-23 10t-10 23zM291 -148q0 13 9.5 22.5t23.5 9.5t23 -9t9 -23t-9.5 -23.5t-22.5 -9.5q-14 0 -23.5 9.5 t-9.5 23.5zM350 29q0 13 9.5 22.5t23.5 9.5q13 0 22.5 -9.5t9.5 -22.5q0 -14 -9.5 -23.5t-22.5 -9.5t-23 10t-10 23zM350 501q0 13 9.5 22.5t23.5 9.5q13 0 22.5 -9.5t9.5 -22.5q0 -14 -9.5 -23.5t-22.5 -9.5t-23 10t-10 23zM409 -148q0 13 9.5 22.5t23.5 9.5t23 -9t9 -23 t-9.5 -23.5t-22.5 -9.5q-14 0 -23.5 9.5t-9.5 23.5zM468 442q0 13 9.5 22.5t23.5 9.5q13 0 22.5 -9t9.5 -23t-9.5 -23.5t-22.5 -9.5t-23 9.5t-10 23.5zM527 -30q0 13 9.5 22.5t23.5 9.5t23 -9t9 -23t-9.5 -23.5t-22.5 -9.5q-14 0 -23.5 9.5t-9.5 23.5zM527 88q0 13 9.5 22.5 t23.5 9.5t23 -9t9 -23t-9.5 -23.5t-22.5 -9.5q-14 0 -23.5 9.5t-9.5 23.5zM527 206q0 13 9.5 22.5t23.5 9.5t23 -9t9 -23t-9.5 -23.5t-22.5 -9.5q-14 0 -23.5 9.5t-9.5 23.5zM527 324q0 13 9.5 22.5t23.5 9.5t23 -9t9 -23t-9.5 -23.5t-22.5 -9.5q-14 0 -23.5 9.5t-9.5 23.5z M527 560q0 13 9.5 22.5t23.5 9.5t23 -9t9 -23t-9.5 -23.5t-22.5 -9.5q-14 0 -23.5 9.5t-9.5 23.5z" />
<glyph unicode="h" d="M55 29q0 13 9.5 22.5t23.5 9.5t23 -9.5t9 -22.5q0 -14 -9.5 -23.5t-22.5 -9.5q-14 0 -23.5 10t-9.5 23zM55 147q0 13 9.5 22.5t23.5 9.5t23 -9.5t9 -22.5q0 -14 -9.5 -23.5t-22.5 -9.5q-14 0 -23.5 10t-9.5 23zM55 265q0 13 9.5 22.5t23.5 9.5t23 -9.5t9 -22.5 q0 -14 -9.5 -23.5t-22.5 -9.5q-14 0 -23.5 10t-9.5 23zM55 383q0 13 9.5 22.5t23.5 9.5t23 -9.5t9 -22.5q0 -14 -9.5 -23.5t-22.5 -9.5q-14 0 -23.5 10t-9.5 23zM55 560q0 13 9.5 22.5t23.5 9.5t23 -9t9 -23t-9.5 -23.5t-22.5 -9.5q-14 0 -23.5 9.5t-9.5 23.5zM55 678 q0 13 9.5 22.5t23.5 9.5t23 -9t9 -23t-9.5 -23.5t-22.5 -9.5q-14 0 -23.5 9.5t-9.5 23.5zM173 501q0 13 9.5 22.5t23.5 9.5t23 -9.5t9 -22.5q0 -14 -9.5 -23.5t-22.5 -9.5q-14 0 -23.5 10t-9.5 23zM291 501q0 13 9.5 22.5t23.5 9.5t23 -9.5t9 -22.5q0 -14 -9.5 -23.5 t-22.5 -9.5q-14 0 -23.5 10t-9.5 23zM409 501q0 13 9.5 22.5t23.5 9.5t23 -9.5t9 -22.5q0 -14 -9.5 -23.5t-22.5 -9.5q-14 0 -23.5 10t-9.5 23zM527 29q0 13 9.5 22.5t23.5 9.5t23 -9.5t9 -22.5q0 -14 -9.5 -23.5t-22.5 -9.5q-14 0 -23.5 10t-9.5 23zM527 147q0 13 9.5 22.5 t23.5 9.5t23 -9.5t9 -22.5q0 -14 -9.5 -23.5t-22.5 -9.5q-14 0 -23.5 10t-9.5 23zM527 265q0 13 9.5 22.5t23.5 9.5t23 -9.5t9 -22.5q0 -14 -9.5 -23.5t-22.5 -9.5q-14 0 -23.5 10t-9.5 23zM527 383q0 13 9.5 22.5t23.5 9.5t23 -9.5t9 -22.5q0 -14 -9.5 -23.5t-22.5 -9.5 q-14 0 -23.5 10t-9.5 23z" />
<glyph unicode="i" horiz-adv-x="177" d="M55 29q0 13 9.5 22.5t23.5 9.5t23 -9.5t9 -22.5q0 -14 -9.5 -23.5t-22.5 -9.5q-14 0 -23.5 10t-9.5 23zM55 147q0 13 9.5 22.5t23.5 9.5t23 -9.5t9 -22.5q0 -14 -9.5 -23.5t-22.5 -9.5q-14 0 -23.5 10t-9.5 23zM55 265q0 13 9.5 22.5t23.5 9.5t23 -9.5t9 -22.5 q0 -14 -9.5 -23.5t-22.5 -9.5q-14 0 -23.5 10t-9.5 23zM55 383q0 13 9.5 22.5t23.5 9.5t23 -9.5t9 -22.5q0 -14 -9.5 -23.5t-22.5 -9.5q-14 0 -23.5 10t-9.5 23zM55 501q0 13 9.5 22.5t23.5 9.5t23 -9.5t9 -22.5q0 -14 -9.5 -23.5t-22.5 -9.5q-14 0 -23.5 10t-9.5 23z M55 678q0 13 9.5 22.5t23.5 9.5t23 -9t9 -23t-9.5 -23.5t-22.5 -9.5q-14 0 -23.5 9.5t-9.5 23.5z" />
<glyph unicode="j" horiz-adv-x="177" d="M-4 -89q0 13 9.5 22.5t23.5 9.5q13 0 22.5 -9.5t9.5 -22.5q0 -14 -9.5 -23.5t-22.5 -9.5t-23 10t-10 23zM55 29q0 13 9.5 22.5t23.5 9.5t23 -9.5t9 -22.5q0 -14 -9.5 -23.5t-22.5 -9.5q-14 0 -23.5 10t-9.5 23zM55 147q0 13 9.5 22.5t23.5 9.5t23 -9.5t9 -22.5 q0 -14 -9.5 -23.5t-22.5 -9.5q-14 0 -23.5 10t-9.5 23zM55 265q0 13 9.5 22.5t23.5 9.5t23 -9.5t9 -22.5q0 -14 -9.5 -23.5t-22.5 -9.5q-14 0 -23.5 10t-9.5 23zM55 383q0 13 9.5 22.5t23.5 9.5t23 -9.5t9 -22.5q0 -14 -9.5 -23.5t-22.5 -9.5q-14 0 -23.5 10t-9.5 23z M55 501q0 13 9.5 22.5t23.5 9.5t23 -9.5t9 -22.5q0 -14 -9.5 -23.5t-22.5 -9.5q-14 0 -23.5 10t-9.5 23zM55 678q0 13 9.5 22.5t23.5 9.5t23 -9t9 -23t-9.5 -23.5t-22.5 -9.5q-14 0 -23.5 9.5t-9.5 23.5z" />
<glyph unicode="k" d="M55 29q0 13 9.5 22.5t23.5 9.5t23 -9.5t9 -22.5q0 -14 -9.5 -23.5t-22.5 -9.5q-14 0 -23.5 10t-9.5 23zM55 147q0 13 9.5 22.5t23.5 9.5t23 -9.5t9 -22.5q0 -14 -9.5 -23.5t-22.5 -9.5q-14 0 -23.5 10t-9.5 23zM55 265q0 13 9.5 22.5t23.5 9.5t23 -9.5t9 -22.5 q0 -14 -9.5 -23.5t-22.5 -9.5q-14 0 -23.5 10t-9.5 23zM55 383q0 13 9.5 22.5t23.5 9.5t23 -9.5t9 -22.5q0 -14 -9.5 -23.5t-22.5 -9.5q-14 0 -23.5 10t-9.5 23zM55 501q0 13 9.5 22.5t23.5 9.5t23 -9.5t9 -22.5q0 -14 -9.5 -23.5t-22.5 -9.5q-14 0 -23.5 10t-9.5 23z M173 265q0 13 9.5 22.5t23.5 9.5t23 -9.5t9 -22.5q0 -14 -9.5 -23.5t-22.5 -9.5q-14 0 -23.5 10t-9.5 23zM291 265q0 13 9.5 22.5t23.5 9.5t23 -9.5t9 -22.5q0 -14 -9.5 -23.5t-22.5 -9.5q-14 0 -23.5 10t-9.5 23zM409 147q0 13 9.5 22.5t23.5 9.5t23 -9.5t9 -22.5 q0 -14 -9.5 -23.5t-22.5 -9.5q-14 0 -23.5 10t-9.5 23zM409 383q0 13 9.5 22.5t23.5 9.5t23 -9.5t9 -22.5q0 -14 -9.5 -23.5t-22.5 -9.5q-14 0 -23.5 10t-9.5 23zM527 29q0 13 9.5 22.5t23.5 9.5t23 -9.5t9 -22.5q0 -14 -9.5 -23.5t-22.5 -9.5q-14 0 -23.5 10t-9.5 23z M527 501q0 13 9.5 22.5t23.5 9.5t23 -9.5t9 -22.5q0 -14 -9.5 -23.5t-22.5 -9.5q-14 0 -23.5 10t-9.5 23z" />
<glyph unicode="l" horiz-adv-x="295" d="M55 88q0 13 9.5 22.5t23.5 9.5t23 -9t9 -23t-9.5 -23.5t-22.5 -9.5q-14 0 -23.5 9.5t-9.5 23.5zM55 206q0 13 9.5 22.5t23.5 9.5t23 -9t9 -23t-9.5 -23.5t-22.5 -9.5q-14 0 -23.5 9.5t-9.5 23.5zM55 324q0 13 9.5 22.5t23.5 9.5t23 -9t9 -23t-9.5 -23.5t-22.5 -9.5 q-14 0 -23.5 9.5t-9.5 23.5zM55 442q0 13 9.5 22.5t23.5 9.5t23 -9t9 -23t-9.5 -23.5t-22.5 -9.5q-14 0 -23.5 9.5t-9.5 23.5zM55 560q0 13 9.5 22.5t23.5 9.5t23 -9t9 -23t-9.5 -23.5t-22.5 -9.5q-14 0 -23.5 9.5t-9.5 23.5zM55 678q0 13 9.5 22.5t23.5 9.5t23 -9t9 -23 t-9.5 -23.5t-22.5 -9.5q-14 0 -23.5 9.5t-9.5 23.5zM173 29q0 13 9.5 22.5t23.5 9.5t23 -9.5t9 -22.5q0 -14 -9.5 -23.5t-22.5 -9.5q-14 0 -23.5 10t-9.5 23z" />
<glyph unicode="m" horiz-adv-x="885" d="M55 29q0 13 9.5 22.5t23.5 9.5t23 -9.5t9 -22.5q0 -14 -9.5 -23.5t-22.5 -9.5q-14 0 -23.5 10t-9.5 23zM55 147q0 13 9.5 22.5t23.5 9.5t23 -9.5t9 -22.5q0 -14 -9.5 -23.5t-22.5 -9.5q-14 0 -23.5 10t-9.5 23zM55 265q0 13 9.5 22.5t23.5 9.5t23 -9.5t9 -22.5 q0 -14 -9.5 -23.5t-22.5 -9.5q-14 0 -23.5 10t-9.5 23zM55 383q0 13 9.5 22.5t23.5 9.5t23 -9.5t9 -22.5q0 -14 -9.5 -23.5t-22.5 -9.5q-14 0 -23.5 10t-9.5 23zM173 501q0 13 9.5 22.5t23.5 9.5t23 -9.5t9 -22.5q0 -14 -9.5 -23.5t-22.5 -9.5q-14 0 -23.5 10t-9.5 23z M291 501q0 13 9.5 22.5t23.5 9.5t23 -9.5t9 -22.5q0 -14 -9.5 -23.5t-22.5 -9.5q-14 0 -23.5 10t-9.5 23zM409 29q0 13 9.5 22.5t23.5 9.5t23 -9.5t9 -22.5q0 -14 -9.5 -23.5t-22.5 -9.5q-14 0 -23.5 10t-9.5 23zM409 147q0 13 9.5 22.5t23.5 9.5t23 -9.5t9 -22.5 q0 -14 -9.5 -23.5t-22.5 -9.5q-14 0 -23.5 10t-9.5 23zM409 265q0 13 9.5 22.5t23.5 9.5t23 -9.5t9 -22.5q0 -14 -9.5 -23.5t-22.5 -9.5q-14 0 -23.5 10t-9.5 23zM409 383q0 13 9.5 22.5t23.5 9.5t23 -9.5t9 -22.5q0 -14 -9.5 -23.5t-22.5 -9.5q-14 0 -23.5 10t-9.5 23z M527 501q0 13 9.5 22.5t23.5 9.5t23 -9.5t9 -22.5q0 -14 -9.5 -23.5t-22.5 -9.5q-14 0 -23.5 10t-9.5 23zM645 501q0 13 9.5 22.5t23.5 9.5t23 -9.5t9 -22.5q0 -14 -9.5 -23.5t-22.5 -9.5q-14 0 -23.5 10t-9.5 23zM763 29q0 13 9.5 22.5t23.5 9.5t23 -9.5t9 -22.5 q0 -14 -9.5 -23.5t-22.5 -9.5q-14 0 -23.5 10t-9.5 23zM763 147q0 13 9.5 22.5t23.5 9.5t23 -9.5t9 -22.5q0 -14 -9.5 -23.5t-22.5 -9.5q-14 0 -23.5 10t-9.5 23zM763 265q0 13 9.5 22.5t23.5 9.5t23 -9.5t9 -22.5q0 -14 -9.5 -23.5t-22.5 -9.5q-14 0 -23.5 10t-9.5 23z M763 383q0 13 9.5 22.5t23.5 9.5t23 -9.5t9 -22.5q0 -14 -9.5 -23.5t-22.5 -9.5q-14 0 -23.5 10t-9.5 23z" />
<glyph unicode="n" d="M55 29q0 13 9.5 22.5t23.5 9.5t23 -9.5t9 -22.5q0 -14 -9.5 -23.5t-22.5 -9.5q-14 0 -23.5 10t-9.5 23zM55 147q0 13 9.5 22.5t23.5 9.5t23 -9.5t9 -22.5q0 -14 -9.5 -23.5t-22.5 -9.5q-14 0 -23.5 10t-9.5 23zM55 265q0 13 9.5 22.5t23.5 9.5t23 -9.5t9 -22.5 q0 -14 -9.5 -23.5t-22.5 -9.5q-14 0 -23.5 10t-9.5 23zM55 383q0 13 9.5 22.5t23.5 9.5t23 -9.5t9 -22.5q0 -14 -9.5 -23.5t-22.5 -9.5q-14 0 -23.5 10t-9.5 23zM173 501q0 13 9.5 22.5t23.5 9.5t23 -9.5t9 -22.5q0 -14 -9.5 -23.5t-22.5 -9.5q-14 0 -23.5 10t-9.5 23z M291 501q0 13 9.5 22.5t23.5 9.5t23 -9.5t9 -22.5q0 -14 -9.5 -23.5t-22.5 -9.5q-14 0 -23.5 10t-9.5 23zM409 501q0 13 9.5 22.5t23.5 9.5t23 -9.5t9 -22.5q0 -14 -9.5 -23.5t-22.5 -9.5q-14 0 -23.5 10t-9.5 23zM527 29q0 13 9.5 22.5t23.5 9.5t23 -9.5t9 -22.5 q0 -14 -9.5 -23.5t-22.5 -9.5q-14 0 -23.5 10t-9.5 23zM527 147q0 13 9.5 22.5t23.5 9.5t23 -9.5t9 -22.5q0 -14 -9.5 -23.5t-22.5 -9.5q-14 0 -23.5 10t-9.5 23zM527 265q0 13 9.5 22.5t23.5 9.5t23 -9.5t9 -22.5q0 -14 -9.5 -23.5t-22.5 -9.5q-14 0 -23.5 10t-9.5 23z M527 383q0 13 9.5 22.5t23.5 9.5t23 -9.5t9 -22.5q0 -14 -9.5 -23.5t-22.5 -9.5q-14 0 -23.5 10t-9.5 23z" />
<glyph unicode="o" d="M55 206q0 13 9.5 22.5t23.5 9.5t23 -9t9 -23t-9.5 -23.5t-22.5 -9.5q-14 0 -23.5 9.5t-9.5 23.5zM55 324q0 13 9.5 22.5t23.5 9.5t23 -9t9 -23t-9.5 -23.5t-22.5 -9.5q-14 0 -23.5 9.5t-9.5 23.5zM114 88q0 13 9.5 22.5t23.5 9.5q13 0 22.5 -9t9.5 -23t-9.5 -23.5 t-22.5 -9.5t-23 9.5t-10 23.5zM114 442q0 13 9.5 22.5t23.5 9.5q13 0 22.5 -9t9.5 -23t-9.5 -23.5t-22.5 -9.5t-23 9.5t-10 23.5zM232 29q0 13 9.5 22.5t23.5 9.5q13 0 22.5 -9.5t9.5 -22.5q0 -14 -9.5 -23.5t-22.5 -9.5t-23 10t-10 23zM232 501q0 13 9.5 22.5t23.5 9.5 q13 0 22.5 -9.5t9.5 -22.5q0 -14 -9.5 -23.5t-22.5 -9.5t-23 10t-10 23zM350 29q0 13 9.5 22.5t23.5 9.5q13 0 22.5 -9.5t9.5 -22.5q0 -14 -9.5 -23.5t-22.5 -9.5t-23 10t-10 23zM350 501q0 13 9.5 22.5t23.5 9.5q13 0 22.5 -9.5t9.5 -22.5q0 -14 -9.5 -23.5t-22.5 -9.5 t-23 10t-10 23zM468 88q0 13 9.5 22.5t23.5 9.5q13 0 22.5 -9t9.5 -23t-9.5 -23.5t-22.5 -9.5t-23 9.5t-10 23.5zM468 442q0 13 9.5 22.5t23.5 9.5q13 0 22.5 -9t9.5 -23t-9.5 -23.5t-22.5 -9.5t-23 9.5t-10 23.5zM527 206q0 13 9.5 22.5t23.5 9.5t23 -9t9 -23t-9.5 -23.5 t-22.5 -9.5q-14 0 -23.5 9.5t-9.5 23.5zM527 324q0 13 9.5 22.5t23.5 9.5t23 -9t9 -23t-9.5 -23.5t-22.5 -9.5q-14 0 -23.5 9.5t-9.5 23.5z" />
<glyph unicode="p" d="M55 29q0 13 9.5 22.5t23.5 9.5t23 -9.5t9 -22.5q0 -14 -9.5 -23.5t-22.5 -9.5q-14 0 -23.5 10t-9.5 23zM55 147q0 13 9.5 22.5t23.5 9.5t23 -9.5t9 -22.5q0 -14 -9.5 -23.5t-22.5 -9.5q-14 0 -23.5 10t-9.5 23zM55 265q0 13 9.5 22.5t23.5 9.5t23 -9.5t9 -22.5 q0 -14 -9.5 -23.5t-22.5 -9.5q-14 0 -23.5 10t-9.5 23zM55 383q0 13 9.5 22.5t23.5 9.5t23 -9.5t9 -22.5q0 -14 -9.5 -23.5t-22.5 -9.5q-14 0 -23.5 10t-9.5 23zM173 147q0 13 9.5 22.5t23.5 9.5t23 -9.5t9 -22.5q0 -14 -9.5 -23.5t-22.5 -9.5q-14 0 -23.5 10t-9.5 23z M173 501q0 13 9.5 22.5t23.5 9.5t23 -9.5t9 -22.5q0 -14 -9.5 -23.5t-22.5 -9.5q-14 0 -23.5 10t-9.5 23zM291 147q0 13 9.5 22.5t23.5 9.5t23 -9.5t9 -22.5q0 -14 -9.5 -23.5t-22.5 -9.5q-14 0 -23.5 10t-9.5 23zM291 501q0 13 9.5 22.5t23.5 9.5t23 -9.5t9 -22.5 q0 -14 -9.5 -23.5t-22.5 -9.5q-14 0 -23.5 10t-9.5 23zM409 147q0 13 9.5 22.5t23.5 9.5t23 -9.5t9 -22.5q0 -14 -9.5 -23.5t-22.5 -9.5q-14 0 -23.5 10t-9.5 23zM409 501q0 13 9.5 22.5t23.5 9.5t23 -9.5t9 -22.5q0 -14 -9.5 -23.5t-22.5 -9.5q-14 0 -23.5 10t-9.5 23z M527 265q0 13 9.5 22.5t23.5 9.5t23 -9.5t9 -22.5q0 -14 -9.5 -23.5t-22.5 -9.5q-14 0 -23.5 10t-9.5 23zM527 383q0 13 9.5 22.5t23.5 9.5t23 -9.5t9 -22.5q0 -14 -9.5 -23.5t-22.5 -9.5q-14 0 -23.5 10t-9.5 23z" />
<glyph unicode="q" horiz-adv-x="708" d="M55 206q0 13 9.5 22.5t23.5 9.5t23 -9t9 -23t-9.5 -23.5t-22.5 -9.5q-14 0 -23.5 9.5t-9.5 23.5zM55 324q0 13 9.5 22.5t23.5 9.5t23 -9t9 -23t-9.5 -23.5t-22.5 -9.5q-14 0 -23.5 9.5t-9.5 23.5zM114 88q0 13 9.5 22.5t23.5 9.5q13 0 22.5 -9t9.5 -23t-9.5 -23.5 t-22.5 -9.5t-23 9.5t-10 23.5zM114 442q0 13 9.5 22.5t23.5 9.5q13 0 22.5 -9t9.5 -23t-9.5 -23.5t-22.5 -9.5t-23 9.5t-10 23.5zM232 29q0 13 9.5 22.5t23.5 9.5q13 0 22.5 -9.5t9.5 -22.5q0 -14 -9.5 -23.5t-22.5 -9.5t-23 10t-10 23zM232 501q0 13 9.5 22.5t23.5 9.5 q13 0 22.5 -9.5t9.5 -22.5q0 -14 -9.5 -23.5t-22.5 -9.5t-23 10t-10 23zM350 29q0 13 9.5 22.5t23.5 9.5q13 0 22.5 -9.5t9.5 -22.5q0 -14 -9.5 -23.5t-22.5 -9.5t-23 10t-10 23zM350 501q0 13 9.5 22.5t23.5 9.5q13 0 22.5 -9.5t9.5 -22.5q0 -14 -9.5 -23.5t-22.5 -9.5 t-23 10t-10 23zM468 88q0 13 9.5 22.5t23.5 9.5q13 0 22.5 -9t9.5 -23t-9.5 -23.5t-22.5 -9.5t-23 9.5t-10 23.5zM468 442q0 13 9.5 22.5t23.5 9.5q13 0 22.5 -9t9.5 -23t-9.5 -23.5t-22.5 -9.5t-23 9.5t-10 23.5zM527 -30q0 13 9.5 22.5t23.5 9.5t23 -9t9 -23t-9.5 -23.5 t-22.5 -9.5q-14 0 -23.5 9.5t-9.5 23.5zM527 -148q0 13 9.5 22.5t23.5 9.5t23 -9t9 -23t-9.5 -23.5t-22.5 -9.5q-14 0 -23.5 9.5t-9.5 23.5zM527 206q0 13 9.5 22.5t23.5 9.5t23 -9t9 -23t-9.5 -23.5t-22.5 -9.5q-14 0 -23.5 9.5t-9.5 23.5zM527 324q0 13 9.5 22.5t23.5 9.5 t23 -9t9 -23t-9.5 -23.5t-22.5 -9.5q-14 0 -23.5 9.5t-9.5 23.5zM586 501q0 13 9.5 22.5t23.5 9.5q13 0 22.5 -9.5t9.5 -22.5q0 -14 -9.5 -23.5t-22.5 -9.5t-23 10t-10 23z" />
<glyph unicode="r" horiz-adv-x="413" d="M55 29q0 13 9.5 22.5t23.5 9.5t23 -9.5t9 -22.5q0 -14 -9.5 -23.5t-22.5 -9.5q-14 0 -23.5 10t-9.5 23zM55 147q0 13 9.5 22.5t23.5 9.5t23 -9.5t9 -22.5q0 -14 -9.5 -23.5t-22.5 -9.5q-14 0 -23.5 10t-9.5 23zM55 265q0 13 9.5 22.5t23.5 9.5t23 -9.5t9 -22.5 q0 -14 -9.5 -23.5t-22.5 -9.5q-14 0 -23.5 10t-9.5 23zM55 383q0 13 9.5 22.5t23.5 9.5t23 -9.5t9 -22.5q0 -14 -9.5 -23.5t-22.5 -9.5q-14 0 -23.5 10t-9.5 23zM173 501q0 13 9.5 22.5t23.5 9.5t23 -9.5t9 -22.5q0 -14 -9.5 -23.5t-22.5 -9.5q-14 0 -23.5 10t-9.5 23z M291 501q0 13 9.5 22.5t23.5 9.5t23 -9.5t9 -22.5q0 -14 -9.5 -23.5t-22.5 -9.5q-14 0 -23.5 10t-9.5 23z" />
<glyph unicode="s" horiz-adv-x="531" d="M55 29q0 13 9.5 22.5t23.5 9.5t23 -9.5t9 -22.5q0 -14 -9.5 -23.5t-22.5 -9.5q-14 0 -23.5 10t-9.5 23zM173 29q0 13 9.5 22.5t23.5 9.5t23 -9.5t9 -22.5q0 -14 -9.5 -23.5t-22.5 -9.5q-14 0 -23.5 10t-9.5 23zM232 147q0 13 9.5 22.5t23.5 9.5q13 0 22.5 -9.5t9.5 -22.5 q0 -14 -9.5 -23.5t-22.5 -9.5t-23 10t-10 23zM232 265q0 13 9.5 22.5t23.5 9.5q13 0 22.5 -9.5t9.5 -22.5q0 -14 -9.5 -23.5t-22.5 -9.5t-23 10t-10 23zM232 383q0 13 9.5 22.5t23.5 9.5q13 0 22.5 -9.5t9.5 -22.5q0 -14 -9.5 -23.5t-22.5 -9.5t-23 10t-10 23zM291 501 q0 13 9.5 22.5t23.5 9.5t23 -9.5t9 -22.5q0 -14 -9.5 -23.5t-22.5 -9.5q-14 0 -23.5 10t-9.5 23zM409 501q0 13 9.5 22.5t23.5 9.5t23 -9.5t9 -22.5q0 -14 -9.5 -23.5t-22.5 -9.5q-14 0 -23.5 10t-9.5 23z" />
<glyph unicode="t" horiz-adv-x="295" d="M55 88q0 13 9.5 22.5t23.5 9.5t23 -9t9 -23t-9.5 -23.5t-22.5 -9.5q-14 0 -23.5 9.5t-9.5 23.5zM55 206q0 13 9.5 22.5t23.5 9.5t23 -9t9 -23t-9.5 -23.5t-22.5 -9.5q-14 0 -23.5 9.5t-9.5 23.5zM55 324q0 13 9.5 22.5t23.5 9.5t23 -9t9 -23t-9.5 -23.5t-22.5 -9.5 q-14 0 -23.5 9.5t-9.5 23.5zM55 442q0 13 9.5 22.5t23.5 9.5t23 -9t9 -23t-9.5 -23.5t-22.5 -9.5q-14 0 -23.5 9.5t-9.5 23.5zM55 560q0 13 9.5 22.5t23.5 9.5t23 -9t9 -23t-9.5 -23.5t-22.5 -9.5q-14 0 -23.5 9.5t-9.5 23.5zM55 678q0 13 9.5 22.5t23.5 9.5t23 -9t9 -23 t-9.5 -23.5t-22.5 -9.5q-14 0 -23.5 9.5t-9.5 23.5zM173 29q0 13 9.5 22.5t23.5 9.5t23 -9.5t9 -22.5q0 -14 -9.5 -23.5t-22.5 -9.5q-14 0 -23.5 10t-9.5 23zM173 501q0 13 9.5 22.5t23.5 9.5t23 -9.5t9 -22.5q0 -14 -9.5 -23.5t-22.5 -9.5q-14 0 -23.5 10t-9.5 23z" />
<glyph unicode="u" d="M55 147q0 13 9.5 22.5t23.5 9.5t23 -9.5t9 -22.5q0 -14 -9.5 -23.5t-22.5 -9.5q-14 0 -23.5 10t-9.5 23zM55 265q0 13 9.5 22.5t23.5 9.5t23 -9.5t9 -22.5q0 -14 -9.5 -23.5t-22.5 -9.5q-14 0 -23.5 10t-9.5 23zM55 383q0 13 9.5 22.5t23.5 9.5t23 -9.5t9 -22.5 q0 -14 -9.5 -23.5t-22.5 -9.5q-14 0 -23.5 10t-9.5 23zM55 501q0 13 9.5 22.5t23.5 9.5t23 -9.5t9 -22.5q0 -14 -9.5 -23.5t-22.5 -9.5q-14 0 -23.5 10t-9.5 23zM173 29q0 13 9.5 22.5t23.5 9.5t23 -9.5t9 -22.5q0 -14 -9.5 -23.5t-22.5 -9.5q-14 0 -23.5 10t-9.5 23z M291 29q0 13 9.5 22.5t23.5 9.5t23 -9.5t9 -22.5q0 -14 -9.5 -23.5t-22.5 -9.5q-14 0 -23.5 10t-9.5 23zM409 29q0 13 9.5 22.5t23.5 9.5t23 -9.5t9 -22.5q0 -14 -9.5 -23.5t-22.5 -9.5q-14 0 -23.5 10t-9.5 23zM527 147q0 13 9.5 22.5t23.5 9.5t23 -9.5t9 -22.5 q0 -14 -9.5 -23.5t-22.5 -9.5q-14 0 -23.5 10t-9.5 23zM527 265q0 13 9.5 22.5t23.5 9.5t23 -9.5t9 -22.5q0 -14 -9.5 -23.5t-22.5 -9.5q-14 0 -23.5 10t-9.5 23zM527 383q0 13 9.5 22.5t23.5 9.5t23 -9.5t9 -22.5q0 -14 -9.5 -23.5t-22.5 -9.5q-14 0 -23.5 10t-9.5 23z M527 501q0 13 9.5 22.5t23.5 9.5t23 -9.5t9 -22.5q0 -14 -9.5 -23.5t-22.5 -9.5q-14 0 -23.5 10t-9.5 23z" />
<glyph unicode="v" d="M55 265q0 13 9.5 22.5t23.5 9.5t23 -9.5t9 -22.5q0 -14 -9.5 -23.5t-22.5 -9.5q-14 0 -23.5 10t-9.5 23zM55 383q0 13 9.5 22.5t23.5 9.5t23 -9.5t9 -22.5q0 -14 -9.5 -23.5t-22.5 -9.5q-14 0 -23.5 10t-9.5 23zM55 501q0 13 9.5 22.5t23.5 9.5t23 -9.5t9 -22.5 q0 -14 -9.5 -23.5t-22.5 -9.5q-14 0 -23.5 10t-9.5 23zM173 147q0 13 9.5 22.5t23.5 9.5t23 -9.5t9 -22.5q0 -14 -9.5 -23.5t-22.5 -9.5q-14 0 -23.5 10t-9.5 23zM291 29q0 13 9.5 22.5t23.5 9.5t23 -9.5t9 -22.5q0 -14 -9.5 -23.5t-22.5 -9.5q-14 0 -23.5 10t-9.5 23z M409 147q0 13 9.5 22.5t23.5 9.5t23 -9.5t9 -22.5q0 -14 -9.5 -23.5t-22.5 -9.5q-14 0 -23.5 10t-9.5 23zM527 265q0 13 9.5 22.5t23.5 9.5t23 -9.5t9 -22.5q0 -14 -9.5 -23.5t-22.5 -9.5q-14 0 -23.5 10t-9.5 23zM527 383q0 13 9.5 22.5t23.5 9.5t23 -9.5t9 -22.5 q0 -14 -9.5 -23.5t-22.5 -9.5q-14 0 -23.5 10t-9.5 23zM527 501q0 13 9.5 22.5t23.5 9.5t23 -9.5t9 -22.5q0 -14 -9.5 -23.5t-22.5 -9.5q-14 0 -23.5 10t-9.5 23z" />
<glyph unicode="w" horiz-adv-x="885" d="M55 147q0 13 9.5 22.5t23.5 9.5t23 -9.5t9 -22.5q0 -14 -9.5 -23.5t-22.5 -9.5q-14 0 -23.5 10t-9.5 23zM55 265q0 13 9.5 22.5t23.5 9.5t23 -9.5t9 -22.5q0 -14 -9.5 -23.5t-22.5 -9.5q-14 0 -23.5 10t-9.5 23zM55 383q0 13 9.5 22.5t23.5 9.5t23 -9.5t9 -22.5 q0 -14 -9.5 -23.5t-22.5 -9.5q-14 0 -23.5 10t-9.5 23zM55 501q0 13 9.5 22.5t23.5 9.5t23 -9.5t9 -22.5q0 -14 -9.5 -23.5t-22.5 -9.5q-14 0 -23.5 10t-9.5 23zM173 29q0 13 9.5 22.5t23.5 9.5t23 -9.5t9 -22.5q0 -14 -9.5 -23.5t-22.5 -9.5q-14 0 -23.5 10t-9.5 23z M291 29q0 13 9.5 22.5t23.5 9.5t23 -9.5t9 -22.5q0 -14 -9.5 -23.5t-22.5 -9.5q-14 0 -23.5 10t-9.5 23zM409 147q0 13 9.5 22.5t23.5 9.5t23 -9.5t9 -22.5q0 -14 -9.5 -23.5t-22.5 -9.5q-14 0 -23.5 10t-9.5 23zM409 265q0 13 9.5 22.5t23.5 9.5t23 -9.5t9 -22.5 q0 -14 -9.5 -23.5t-22.5 -9.5q-14 0 -23.5 10t-9.5 23zM409 383q0 13 9.5 22.5t23.5 9.5t23 -9.5t9 -22.5q0 -14 -9.5 -23.5t-22.5 -9.5q-14 0 -23.5 10t-9.5 23zM409 501q0 13 9.5 22.5t23.5 9.5t23 -9.5t9 -22.5q0 -14 -9.5 -23.5t-22.5 -9.5q-14 0 -23.5 10t-9.5 23z M527 29q0 13 9.5 22.5t23.5 9.5t23 -9.5t9 -22.5q0 -14 -9.5 -23.5t-22.5 -9.5q-14 0 -23.5 10t-9.5 23zM645 29q0 13 9.5 22.5t23.5 9.5t23 -9.5t9 -22.5q0 -14 -9.5 -23.5t-22.5 -9.5q-14 0 -23.5 10t-9.5 23zM763 147q0 13 9.5 22.5t23.5 9.5t23 -9.5t9 -22.5 q0 -14 -9.5 -23.5t-22.5 -9.5q-14 0 -23.5 10t-9.5 23zM763 265q0 13 9.5 22.5t23.5 9.5t23 -9.5t9 -22.5q0 -14 -9.5 -23.5t-22.5 -9.5q-14 0 -23.5 10t-9.5 23zM763 383q0 13 9.5 22.5t23.5 9.5t23 -9.5t9 -22.5q0 -14 -9.5 -23.5t-22.5 -9.5q-14 0 -23.5 10t-9.5 23z M763 501q0 13 9.5 22.5t23.5 9.5t23 -9.5t9 -22.5q0 -14 -9.5 -23.5t-22.5 -9.5q-14 0 -23.5 10t-9.5 23z" />
<glyph unicode="x" d="M55 29q0 13 9.5 22.5t23.5 9.5t23 -9.5t9 -22.5q0 -14 -9.5 -23.5t-22.5 -9.5q-14 0 -23.5 10t-9.5 23zM55 501q0 13 9.5 22.5t23.5 9.5t23 -9.5t9 -22.5q0 -14 -9.5 -23.5t-22.5 -9.5q-14 0 -23.5 10t-9.5 23zM173 147q0 13 9.5 22.5t23.5 9.5t23 -9.5t9 -22.5 q0 -14 -9.5 -23.5t-22.5 -9.5q-14 0 -23.5 10t-9.5 23zM173 383q0 13 9.5 22.5t23.5 9.5t23 -9.5t9 -22.5q0 -14 -9.5 -23.5t-22.5 -9.5q-14 0 -23.5 10t-9.5 23zM291 265q0 13 9.5 22.5t23.5 9.5t23 -9.5t9 -22.5q0 -14 -9.5 -23.5t-22.5 -9.5q-14 0 -23.5 10t-9.5 23z M409 147q0 13 9.5 22.5t23.5 9.5t23 -9.5t9 -22.5q0 -14 -9.5 -23.5t-22.5 -9.5q-14 0 -23.5 10t-9.5 23zM409 383q0 13 9.5 22.5t23.5 9.5t23 -9.5t9 -22.5q0 -14 -9.5 -23.5t-22.5 -9.5q-14 0 -23.5 10t-9.5 23zM527 29q0 13 9.5 22.5t23.5 9.5t23 -9.5t9 -22.5 q0 -14 -9.5 -23.5t-22.5 -9.5q-14 0 -23.5 10t-9.5 23zM527 501q0 13 9.5 22.5t23.5 9.5t23 -9.5t9 -22.5q0 -14 -9.5 -23.5t-22.5 -9.5q-14 0 -23.5 10t-9.5 23z" />
<glyph unicode="y" d="M55 265q0 13 9.5 22.5t23.5 9.5t23 -9.5t9 -22.5q0 -14 -9.5 -23.5t-22.5 -9.5q-14 0 -23.5 10t-9.5 23zM55 383q0 13 9.5 22.5t23.5 9.5t23 -9.5t9 -22.5q0 -14 -9.5 -23.5t-22.5 -9.5q-14 0 -23.5 10t-9.5 23zM55 501q0 13 9.5 22.5t23.5 9.5t23 -9.5t9 -22.5 q0 -14 -9.5 -23.5t-22.5 -9.5q-14 0 -23.5 10t-9.5 23zM173 147q0 13 9.5 22.5t23.5 9.5t23 -9.5t9 -22.5q0 -14 -9.5 -23.5t-22.5 -9.5q-14 0 -23.5 10t-9.5 23zM291 29q0 13 9.5 22.5t23.5 9.5t23 -9.5t9 -22.5q0 -14 -9.5 -23.5t-22.5 -9.5q-14 0 -23.5 10t-9.5 23z M291 -89q0 13 9.5 22.5t23.5 9.5t23 -9.5t9 -22.5q0 -14 -9.5 -23.5t-22.5 -9.5q-14 0 -23.5 10t-9.5 23zM409 147q0 13 9.5 22.5t23.5 9.5t23 -9.5t9 -22.5q0 -14 -9.5 -23.5t-22.5 -9.5q-14 0 -23.5 10t-9.5 23zM527 265q0 13 9.5 22.5t23.5 9.5t23 -9.5t9 -22.5 q0 -14 -9.5 -23.5t-22.5 -9.5q-14 0 -23.5 10t-9.5 23zM527 383q0 13 9.5 22.5t23.5 9.5t23 -9.5t9 -22.5q0 -14 -9.5 -23.5t-22.5 -9.5q-14 0 -23.5 10t-9.5 23zM527 501q0 13 9.5 22.5t23.5 9.5t23 -9.5t9 -22.5q0 -14 -9.5 -23.5t-22.5 -9.5q-14 0 -23.5 10t-9.5 23z" />
<glyph unicode="z" horiz-adv-x="531" d="M55 29q0 13 9.5 22.5t23.5 9.5t23 -9.5t9 -22.5q0 -14 -9.5 -23.5t-22.5 -9.5q-14 0 -23.5 10t-9.5 23zM55 501q0 13 9.5 22.5t23.5 9.5t23 -9.5t9 -22.5q0 -14 -9.5 -23.5t-22.5 -9.5q-14 0 -23.5 10t-9.5 23zM173 29q0 13 9.5 22.5t23.5 9.5t23 -9.5t9 -22.5 q0 -14 -9.5 -23.5t-22.5 -9.5q-14 0 -23.5 10t-9.5 23zM173 206q0 13 9.5 22.5t23.5 9.5t23 -9t9 -23t-9.5 -23.5t-22.5 -9.5q-14 0 -23.5 9.5t-9.5 23.5zM173 501q0 13 9.5 22.5t23.5 9.5t23 -9.5t9 -22.5q0 -14 -9.5 -23.5t-22.5 -9.5q-14 0 -23.5 10t-9.5 23zM291 29 q0 13 9.5 22.5t23.5 9.5t23 -9.5t9 -22.5q0 -14 -9.5 -23.5t-22.5 -9.5q-14 0 -23.5 10t-9.5 23zM291 324q0 13 9.5 22.5t23.5 9.5t23 -9t9 -23t-9.5 -23.5t-22.5 -9.5q-14 0 -23.5 9.5t-9.5 23.5zM291 501q0 13 9.5 22.5t23.5 9.5t23 -9.5t9 -22.5q0 -14 -9.5 -23.5 t-22.5 -9.5q-14 0 -23.5 10t-9.5 23zM409 29q0 13 9.5 22.5t23.5 9.5t23 -9.5t9 -22.5q0 -14 -9.5 -23.5t-22.5 -9.5q-14 0 -23.5 10t-9.5 23zM409 501q0 13 9.5 22.5t23.5 9.5t23 -9.5t9 -22.5q0 -14 -9.5 -23.5t-22.5 -9.5q-14 0 -23.5 10t-9.5 23z" />
<glyph unicode="{" horiz-adv-x="354" d="M-4 265q0 13 9.5 22.5t23.5 9.5q13 0 22.5 -9.5t9.5 -22.5q0 -14 -9.5 -23.5t-22.5 -9.5t-23 10t-10 23zM114 147q0 13 9.5 22.5t23.5 9.5q13 0 22.5 -9.5t9.5 -22.5q0 -14 -9.5 -23.5t-22.5 -9.5t-23 10t-10 23zM114 265q0 13 9.5 22.5t23.5 9.5q13 0 22.5 -9.5 t9.5 -22.5q0 -14 -9.5 -23.5t-22.5 -9.5t-23 10t-10 23zM114 383q0 13 9.5 22.5t23.5 9.5q13 0 22.5 -9.5t9.5 -22.5q0 -14 -9.5 -23.5t-22.5 -9.5t-23 10t-10 23zM173 29q0 13 9.5 22.5t23.5 9.5t23 -9.5t9 -22.5q0 -14 -9.5 -23.5t-22.5 -9.5q-14 0 -23.5 10t-9.5 23z M173 -89q0 13 9.5 22.5t23.5 9.5t23 -9.5t9 -22.5q0 -14 -9.5 -23.5t-22.5 -9.5q-14 0 -23.5 10t-9.5 23zM173 501q0 13 9.5 22.5t23.5 9.5t23 -9.5t9 -22.5q0 -14 -9.5 -23.5t-22.5 -9.5q-14 0 -23.5 10t-9.5 23zM173 619q0 13 9.5 22.5t23.5 9.5t23 -9.5t9 -22.5 q0 -14 -9.5 -23.5t-22.5 -9.5q-14 0 -23.5 10t-9.5 23z" />
<glyph unicode="|" horiz-adv-x="177" d="M55 -30q0 13 9.5 22.5t23.5 9.5t23 -9t9 -23t-9.5 -23.5t-22.5 -9.5q-14 0 -23.5 9.5t-9.5 23.5zM55 88q0 13 9.5 22.5t23.5 9.5t23 -9t9 -23t-9.5 -23.5t-22.5 -9.5q-14 0 -23.5 9.5t-9.5 23.5zM55 -148q0 13 9.5 22.5t23.5 9.5t23 -9t9 -23t-9.5 -23.5t-22.5 -9.5 q-14 0 -23.5 9.5t-9.5 23.5zM55 206q0 13 9.5 22.5t23.5 9.5t23 -9t9 -23t-9.5 -23.5t-22.5 -9.5q-14 0 -23.5 9.5t-9.5 23.5zM55 324q0 13 9.5 22.5t23.5 9.5t23 -9t9 -23t-9.5 -23.5t-22.5 -9.5q-14 0 -23.5 9.5t-9.5 23.5zM55 442q0 13 9.5 22.5t23.5 9.5t23 -9t9 -23 t-9.5 -23.5t-22.5 -9.5q-14 0 -23.5 9.5t-9.5 23.5zM55 560q0 13 9.5 22.5t23.5 9.5t23 -9t9 -23t-9.5 -23.5t-22.5 -9.5q-14 0 -23.5 9.5t-9.5 23.5zM55 678q0 13 9.5 22.5t23.5 9.5t23 -9t9 -23t-9.5 -23.5t-22.5 -9.5q-14 0 -23.5 9.5t-9.5 23.5z" />
<glyph unicode="}" horiz-adv-x="354" d="M114 29q0 13 9.5 22.5t23.5 9.5q13 0 22.5 -9.5t9.5 -22.5q0 -14 -9.5 -23.5t-22.5 -9.5t-23 10t-10 23zM114 -89q0 13 9.5 22.5t23.5 9.5q13 0 22.5 -9.5t9.5 -22.5q0 -14 -9.5 -23.5t-22.5 -9.5t-23 10t-10 23zM114 501q0 13 9.5 22.5t23.5 9.5q13 0 22.5 -9.5 t9.5 -22.5q0 -14 -9.5 -23.5t-22.5 -9.5t-23 10t-10 23zM114 619q0 13 9.5 22.5t23.5 9.5q13 0 22.5 -9.5t9.5 -22.5q0 -14 -9.5 -23.5t-22.5 -9.5t-23 10t-10 23zM173 147q0 13 9.5 22.5t23.5 9.5t23 -9.5t9 -22.5q0 -14 -9.5 -23.5t-22.5 -9.5q-14 0 -23.5 10t-9.5 23z M173 265q0 13 9.5 22.5t23.5 9.5t23 -9.5t9 -22.5q0 -14 -9.5 -23.5t-22.5 -9.5q-14 0 -23.5 10t-9.5 23zM173 383q0 13 9.5 22.5t23.5 9.5t23 -9.5t9 -22.5q0 -14 -9.5 -23.5t-22.5 -9.5q-14 0 -23.5 10t-9.5 23zM291 265q0 13 9.5 22.5t23.5 9.5t23 -9.5t9 -22.5 q0 -14 -9.5 -23.5t-22.5 -9.5q-14 0 -23.5 10t-9.5 23z" />
<glyph unicode="~" horiz-adv-x="531" d="M55 265q0 13 9.5 22.5t23.5 9.5t23 -9.5t9 -22.5q0 -14 -9.5 -23.5t-22.5 -9.5q-14 0 -23.5 10t-9.5 23zM173 383q0 13 9.5 22.5t23.5 9.5t23 -9.5t9 -22.5q0 -14 -9.5 -23.5t-22.5 -9.5q-14 0 -23.5 10t-9.5 23zM291 265q0 13 9.5 22.5t23.5 9.5t23 -9.5t9 -22.5 q0 -14 -9.5 -23.5t-22.5 -9.5q-14 0 -23.5 10t-9.5 23zM409 383q0 13 9.5 22.5t23.5 9.5t23 -9.5t9 -22.5q0 -14 -9.5 -23.5t-22.5 -9.5q-14 0 -23.5 10t-9.5 23z" />
<glyph unicode="&#xa1;" horiz-adv-x="177" d="M55 29q0 13 9.5 22.5t23.5 9.5t23 -9.5t9 -22.5q0 -14 -9.5 -23.5t-22.5 -9.5q-14 0 -23.5 10t-9.5 23zM55 -89q0 13 9.5 22.5t23.5 9.5t23 -9.5t9 -22.5q0 -14 -9.5 -23.5t-22.5 -9.5q-14 0 -23.5 10t-9.5 23zM55 147q0 13 9.5 22.5t23.5 9.5t23 -9.5t9 -22.5 q0 -14 -9.5 -23.5t-22.5 -9.5q-14 0 -23.5 10t-9.5 23zM55 265q0 13 9.5 22.5t23.5 9.5t23 -9.5t9 -22.5q0 -14 -9.5 -23.5t-22.5 -9.5q-14 0 -23.5 10t-9.5 23zM55 442q0 13 9.5 22.5t23.5 9.5t23 -9t9 -23t-9.5 -23.5t-22.5 -9.5q-14 0 -23.5 9.5t-9.5 23.5z" />
<glyph unicode="&#xa2;" horiz-adv-x="590" d="M55 206q0 13 9.5 22.5t23.5 9.5t23 -9t9 -23t-9.5 -23.5t-22.5 -9.5q-14 0 -23.5 9.5t-9.5 23.5zM55 324q0 13 9.5 22.5t23.5 9.5t23 -9t9 -23t-9.5 -23.5t-22.5 -9.5q-14 0 -23.5 9.5t-9.5 23.5zM114 88q0 13 9.5 22.5t23.5 9.5q13 0 22.5 -9t9.5 -23t-9.5 -23.5 t-22.5 -9.5t-23 9.5t-10 23.5zM114 442q0 13 9.5 22.5t23.5 9.5q13 0 22.5 -9t9.5 -23t-9.5 -23.5t-22.5 -9.5t-23 9.5t-10 23.5zM232 29q0 13 9.5 22.5t23.5 9.5q13 0 22.5 -9.5t9.5 -22.5q0 -14 -9.5 -23.5t-22.5 -9.5t-23 10t-10 23zM232 501q0 13 9.5 22.5t23.5 9.5 q13 0 22.5 -9.5t9.5 -22.5q0 -14 -9.5 -23.5t-22.5 -9.5t-23 10t-10 23zM291 -89q0 13 9.5 22.5t23.5 9.5t23 -9.5t9 -22.5q0 -14 -9.5 -23.5t-22.5 -9.5q-14 0 -23.5 10t-9.5 23zM291 147q0 13 9.5 22.5t23.5 9.5t23 -9.5t9 -22.5q0 -14 -9.5 -23.5t-22.5 -9.5 q-14 0 -23.5 10t-9.5 23zM291 265q0 13 9.5 22.5t23.5 9.5t23 -9.5t9 -22.5q0 -14 -9.5 -23.5t-22.5 -9.5q-14 0 -23.5 10t-9.5 23zM291 383q0 13 9.5 22.5t23.5 9.5t23 -9.5t9 -22.5q0 -14 -9.5 -23.5t-22.5 -9.5q-14 0 -23.5 10t-9.5 23zM291 619q0 13 9.5 22.5t23.5 9.5 t23 -9.5t9 -22.5q0 -14 -9.5 -23.5t-22.5 -9.5q-14 0 -23.5 10t-9.5 23zM350 29q0 13 9.5 22.5t23.5 9.5q13 0 22.5 -9.5t9.5 -22.5q0 -14 -9.5 -23.5t-22.5 -9.5t-23 10t-10 23zM350 501q0 13 9.5 22.5t23.5 9.5q13 0 22.5 -9.5t9.5 -22.5q0 -14 -9.5 -23.5t-22.5 -9.5 t-23 10t-10 23zM468 88q0 13 9.5 22.5t23.5 9.5q13 0 22.5 -9t9.5 -23t-9.5 -23.5t-22.5 -9.5t-23 9.5t-10 23.5zM468 442q0 13 9.5 22.5t23.5 9.5q13 0 22.5 -9t9.5 -23t-9.5 -23.5t-22.5 -9.5t-23 9.5t-10 23.5z" />
<glyph unicode="&#xa3;" d="M55 265q0 13 9.5 22.5t23.5 9.5t23 -9.5t9 -22.5q0 -14 -9.5 -23.5t-22.5 -9.5q-14 0 -23.5 10t-9.5 23zM173 29q0 13 9.5 22.5t23.5 9.5t23 -9.5t9 -22.5q0 -14 -9.5 -23.5t-22.5 -9.5q-14 0 -23.5 10t-9.5 23zM173 147q0 13 9.5 22.5t23.5 9.5t23 -9.5t9 -22.5 q0 -14 -9.5 -23.5t-22.5 -9.5q-14 0 -23.5 10t-9.5 23zM173 265q0 13 9.5 22.5t23.5 9.5t23 -9.5t9 -22.5q0 -14 -9.5 -23.5t-22.5 -9.5q-14 0 -23.5 10t-9.5 23zM173 383q0 13 9.5 22.5t23.5 9.5t23 -9.5t9 -22.5q0 -14 -9.5 -23.5t-22.5 -9.5q-14 0 -23.5 10t-9.5 23z M232 501q0 13 9.5 22.5t23.5 9.5q13 0 22.5 -9.5t9.5 -22.5q0 -14 -9.5 -23.5t-22.5 -9.5t-23 10t-10 23zM291 88q0 13 9.5 22.5t23.5 9.5t23 -9t9 -23t-9.5 -23.5t-22.5 -9.5q-14 0 -23.5 9.5t-9.5 23.5zM291 265q0 13 9.5 22.5t23.5 9.5t23 -9.5t9 -22.5q0 -14 -9.5 -23.5 t-22.5 -9.5q-14 0 -23.5 10t-9.5 23zM350 501q0 13 9.5 22.5t23.5 9.5q13 0 22.5 -9.5t9.5 -22.5q0 -14 -9.5 -23.5t-22.5 -9.5t-23 10t-10 23zM409 29q0 13 9.5 22.5t23.5 9.5t23 -9.5t9 -22.5q0 -14 -9.5 -23.5t-22.5 -9.5q-14 0 -23.5 10t-9.5 23zM468 383q0 13 9.5 22.5 t23.5 9.5q13 0 22.5 -9.5t9.5 -22.5q0 -14 -9.5 -23.5t-22.5 -9.5t-23 10t-10 23zM527 88q0 13 9.5 22.5t23.5 9.5t23 -9t9 -23t-9.5 -23.5t-22.5 -9.5q-14 0 -23.5 9.5t-9.5 23.5z" />
<glyph unicode="&#xa4;" horiz-adv-x="531" d="M55 29q0 13 9.5 22.5t23.5 9.5t23 -9.5t9 -22.5q0 -14 -9.5 -23.5t-22.5 -9.5q-14 0 -23.5 10t-9.5 23zM55 265q0 13 9.5 22.5t23.5 9.5t23 -9.5t9 -22.5q0 -14 -9.5 -23.5t-22.5 -9.5q-14 0 -23.5 10t-9.5 23zM55 501q0 13 9.5 22.5t23.5 9.5t23 -9.5t9 -22.5 q0 -14 -9.5 -23.5t-22.5 -9.5q-14 0 -23.5 10t-9.5 23zM114 147q0 13 9.5 22.5t23.5 9.5q13 0 22.5 -9.5t9.5 -22.5q0 -14 -9.5 -23.5t-22.5 -9.5t-23 10t-10 23zM114 383q0 13 9.5 22.5t23.5 9.5q13 0 22.5 -9.5t9.5 -22.5q0 -14 -9.5 -23.5t-22.5 -9.5t-23 10t-10 23z M232 88q0 13 9.5 22.5t23.5 9.5q13 0 22.5 -9t9.5 -23t-9.5 -23.5t-22.5 -9.5t-23 9.5t-10 23.5zM232 442q0 13 9.5 22.5t23.5 9.5q13 0 22.5 -9t9.5 -23t-9.5 -23.5t-22.5 -9.5t-23 9.5t-10 23.5zM350 147q0 13 9.5 22.5t23.5 9.5q13 0 22.5 -9.5t9.5 -22.5 q0 -14 -9.5 -23.5t-22.5 -9.5t-23 10t-10 23zM350 383q0 13 9.5 22.5t23.5 9.5q13 0 22.5 -9.5t9.5 -22.5q0 -14 -9.5 -23.5t-22.5 -9.5t-23 10t-10 23zM409 29q0 13 9.5 22.5t23.5 9.5t23 -9.5t9 -22.5q0 -14 -9.5 -23.5t-22.5 -9.5q-14 0 -23.5 10t-9.5 23zM409 265 q0 13 9.5 22.5t23.5 9.5t23 -9.5t9 -22.5q0 -14 -9.5 -23.5t-22.5 -9.5q-14 0 -23.5 10t-9.5 23zM409 501q0 13 9.5 22.5t23.5 9.5t23 -9.5t9 -22.5q0 -14 -9.5 -23.5t-22.5 -9.5q-14 0 -23.5 10t-9.5 23z" />
<glyph unicode="&#xa5;" d="M55 501q0 13 9.5 22.5t23.5 9.5t23 -9.5t9 -22.5q0 -14 -9.5 -23.5t-22.5 -9.5q-14 0 -23.5 10t-9.5 23zM173 147q0 13 9.5 22.5t23.5 9.5t23 -9.5t9 -22.5q0 -14 -9.5 -23.5t-22.5 -9.5q-14 0 -23.5 10t-9.5 23zM173 265q0 13 9.5 22.5t23.5 9.5t23 -9.5t9 -22.5 q0 -14 -9.5 -23.5t-22.5 -9.5q-14 0 -23.5 10t-9.5 23zM173 383q0 13 9.5 22.5t23.5 9.5t23 -9.5t9 -22.5q0 -14 -9.5 -23.5t-22.5 -9.5q-14 0 -23.5 10t-9.5 23zM291 29q0 13 9.5 22.5t23.5 9.5t23 -9.5t9 -22.5q0 -14 -9.5 -23.5t-22.5 -9.5q-14 0 -23.5 10t-9.5 23z M291 147q0 13 9.5 22.5t23.5 9.5t23 -9.5t9 -22.5q0 -14 -9.5 -23.5t-22.5 -9.5q-14 0 -23.5 10t-9.5 23zM291 265q0 13 9.5 22.5t23.5 9.5t23 -9.5t9 -22.5q0 -14 -9.5 -23.5t-22.5 -9.5q-14 0 -23.5 10t-9.5 23zM409 147q0 13 9.5 22.5t23.5 9.5t23 -9.5t9 -22.5 q0 -14 -9.5 -23.5t-22.5 -9.5q-14 0 -23.5 10t-9.5 23zM409 265q0 13 9.5 22.5t23.5 9.5t23 -9.5t9 -22.5q0 -14 -9.5 -23.5t-22.5 -9.5q-14 0 -23.5 10t-9.5 23zM409 383q0 13 9.5 22.5t23.5 9.5t23 -9.5t9 -22.5q0 -14 -9.5 -23.5t-22.5 -9.5q-14 0 -23.5 10t-9.5 23z M527 501q0 13 9.5 22.5t23.5 9.5t23 -9.5t9 -22.5q0 -14 -9.5 -23.5t-22.5 -9.5q-14 0 -23.5 10t-9.5 23z" />
<glyph unicode="&#xa6;" horiz-adv-x="177" d="M55 -30q0 13 9.5 22.5t23.5 9.5t23 -9t9 -23t-9.5 -23.5t-22.5 -9.5q-14 0 -23.5 9.5t-9.5 23.5zM55 88q0 13 9.5 22.5t23.5 9.5t23 -9t9 -23t-9.5 -23.5t-22.5 -9.5q-14 0 -23.5 9.5t-9.5 23.5zM55 -148q0 13 9.5 22.5t23.5 9.5t23 -9t9 -23t-9.5 -23.5t-22.5 -9.5 q-14 0 -23.5 9.5t-9.5 23.5zM55 442q0 13 9.5 22.5t23.5 9.5t23 -9t9 -23t-9.5 -23.5t-22.5 -9.5q-14 0 -23.5 9.5t-9.5 23.5zM55 560q0 13 9.5 22.5t23.5 9.5t23 -9t9 -23t-9.5 -23.5t-22.5 -9.5q-14 0 -23.5 9.5t-9.5 23.5zM55 678q0 13 9.5 22.5t23.5 9.5t23 -9t9 -23 t-9.5 -23.5t-22.5 -9.5q-14 0 -23.5 9.5t-9.5 23.5z" />
<glyph unicode="&#xa7;" horiz-adv-x="531" d="M55 442q0 13 9.5 22.5t23.5 9.5t23 -9t9 -23t-9.5 -23.5t-22.5 -9.5q-14 0 -23.5 9.5t-9.5 23.5zM114 -148q0 13 9.5 22.5t23.5 9.5q13 0 22.5 -9t9.5 -23t-9.5 -23.5t-22.5 -9.5t-23 9.5t-10 23.5zM114 206q0 13 9.5 22.5t23.5 9.5q13 0 22.5 -9t9.5 -23t-9.5 -23.5 t-22.5 -9.5t-23 9.5t-10 23.5zM173 88q0 13 9.5 22.5t23.5 9.5t23 -9t9 -23t-9.5 -23.5t-22.5 -9.5q-14 0 -23.5 9.5t-9.5 23.5zM173 324q0 13 9.5 22.5t23.5 9.5t23 -9t9 -23t-9.5 -23.5t-22.5 -9.5q-14 0 -23.5 9.5t-9.5 23.5zM173 501q0 13 9.5 22.5t23.5 9.5t23 -9.5 t9 -22.5q0 -14 -9.5 -23.5t-22.5 -9.5q-14 0 -23.5 10t-9.5 23zM291 29q0 13 9.5 22.5t23.5 9.5t23 -9.5t9 -22.5q0 -14 -9.5 -23.5t-22.5 -9.5q-14 0 -23.5 10t-9.5 23zM291 -148q0 13 9.5 22.5t23.5 9.5t23 -9t9 -23t-9.5 -23.5t-22.5 -9.5q-14 0 -23.5 9.5t-9.5 23.5z M291 206q0 13 9.5 22.5t23.5 9.5t23 -9t9 -23t-9.5 -23.5t-22.5 -9.5q-14 0 -23.5 9.5t-9.5 23.5zM291 501q0 13 9.5 22.5t23.5 9.5t23 -9.5t9 -22.5q0 -14 -9.5 -23.5t-22.5 -9.5q-14 0 -23.5 10t-9.5 23zM409 88q0 13 9.5 22.5t23.5 9.5t23 -9t9 -23t-9.5 -23.5 t-22.5 -9.5q-14 0 -23.5 9.5t-9.5 23.5zM409 -89q0 13 9.5 22.5t23.5 9.5t23 -9.5t9 -22.5q0 -14 -9.5 -23.5t-22.5 -9.5q-14 0 -23.5 10t-9.5 23zM409 501q0 13 9.5 22.5t23.5 9.5t23 -9.5t9 -22.5q0 -14 -9.5 -23.5t-22.5 -9.5q-14 0 -23.5 10t-9.5 23z" />
<glyph unicode="&#xa8;" horiz-adv-x="295" d="M55 501q0 13 9.5 22.5t23.5 9.5t23 -9.5t9 -22.5q0 -14 -9.5 -23.5t-22.5 -9.5q-14 0 -23.5 10t-9.5 23zM173 501q0 13 9.5 22.5t23.5 9.5t23 -9.5t9 -22.5q0 -14 -9.5 -23.5t-22.5 -9.5q-14 0 -23.5 10t-9.5 23z" />
<glyph unicode="&#xa9;" d="M55 206q0 13 9.5 22.5t23.5 9.5t23 -9t9 -23t-9.5 -23.5t-22.5 -9.5q-14 0 -23.5 9.5t-9.5 23.5zM55 324q0 13 9.5 22.5t23.5 9.5t23 -9t9 -23t-9.5 -23.5t-22.5 -9.5q-14 0 -23.5 9.5t-9.5 23.5zM114 88q0 13 9.5 22.5t23.5 9.5q13 0 22.5 -9t9.5 -23t-9.5 -23.5 t-22.5 -9.5t-23 9.5t-10 23.5zM114 442q0 13 9.5 22.5t23.5 9.5q13 0 22.5 -9t9.5 -23t-9.5 -23.5t-22.5 -9.5t-23 9.5t-10 23.5zM173 206q0 13 9.5 22.5t23.5 9.5t23 -9t9 -23t-9.5 -23.5t-22.5 -9.5q-14 0 -23.5 9.5t-9.5 23.5zM173 324q0 13 9.5 22.5t23.5 9.5t23 -9 t9 -23t-9.5 -23.5t-22.5 -9.5q-14 0 -23.5 9.5t-9.5 23.5zM232 29q0 13 9.5 22.5t23.5 9.5q13 0 22.5 -9.5t9.5 -22.5q0 -14 -9.5 -23.5t-22.5 -9.5t-23 10t-10 23zM232 501q0 13 9.5 22.5t23.5 9.5q13 0 22.5 -9.5t9.5 -22.5q0 -14 -9.5 -23.5t-22.5 -9.5t-23 10t-10 23z M291 147q0 13 9.5 22.5t23.5 9.5t23 -9.5t9 -22.5q0 -14 -9.5 -23.5t-22.5 -9.5q-14 0 -23.5 10t-9.5 23zM291 383q0 13 9.5 22.5t23.5 9.5t23 -9.5t9 -22.5q0 -14 -9.5 -23.5t-22.5 -9.5q-14 0 -23.5 10t-9.5 23zM350 29q0 13 9.5 22.5t23.5 9.5q13 0 22.5 -9.5t9.5 -22.5 q0 -14 -9.5 -23.5t-22.5 -9.5t-23 10t-10 23zM350 501q0 13 9.5 22.5t23.5 9.5q13 0 22.5 -9.5t9.5 -22.5q0 -14 -9.5 -23.5t-22.5 -9.5t-23 10t-10 23zM409 206q0 13 9.5 22.5t23.5 9.5t23 -9t9 -23t-9.5 -23.5t-22.5 -9.5q-14 0 -23.5 9.5t-9.5 23.5zM409 324 q0 13 9.5 22.5t23.5 9.5t23 -9t9 -23t-9.5 -23.5t-22.5 -9.5q-14 0 -23.5 9.5t-9.5 23.5zM468 88q0 13 9.5 22.5t23.5 9.5q13 0 22.5 -9t9.5 -23t-9.5 -23.5t-22.5 -9.5t-23 9.5t-10 23.5zM468 442q0 13 9.5 22.5t23.5 9.5q13 0 22.5 -9t9.5 -23t-9.5 -23.5t-22.5 -9.5 t-23 9.5t-10 23.5zM527 206q0 13 9.5 22.5t23.5 9.5t23 -9t9 -23t-9.5 -23.5t-22.5 -9.5q-14 0 -23.5 9.5t-9.5 23.5zM527 324q0 13 9.5 22.5t23.5 9.5t23 -9t9 -23t-9.5 -23.5t-22.5 -9.5q-14 0 -23.5 9.5t-9.5 23.5z" />
<glyph unicode="&#xaa;" horiz-adv-x="472" d="M55 383q0 13 9.5 22.5t23.5 9.5t23 -9.5t9 -22.5q0 -14 -9.5 -23.5t-22.5 -9.5q-14 0 -23.5 10t-9.5 23zM114 265q0 13 9.5 22.5t23.5 9.5q13 0 22.5 -9.5t9.5 -22.5q0 -14 -9.5 -23.5t-22.5 -9.5t-23 10t-10 23zM114 501q0 13 9.5 22.5t23.5 9.5q13 0 22.5 -9.5 t9.5 -22.5q0 -14 -9.5 -23.5t-22.5 -9.5t-23 10t-10 23zM232 265q0 13 9.5 22.5t23.5 9.5q13 0 22.5 -9.5t9.5 -22.5q0 -14 -9.5 -23.5t-22.5 -9.5t-23 10t-10 23zM232 501q0 13 9.5 22.5t23.5 9.5q13 0 22.5 -9.5t9.5 -22.5q0 -14 -9.5 -23.5t-22.5 -9.5t-23 10t-10 23z M291 383q0 13 9.5 22.5t23.5 9.5t23 -9.5t9 -22.5q0 -14 -9.5 -23.5t-22.5 -9.5q-14 0 -23.5 10t-9.5 23zM350 265q0 13 9.5 22.5t23.5 9.5q13 0 22.5 -9.5t9.5 -22.5q0 -14 -9.5 -23.5t-22.5 -9.5t-23 10t-10 23z" />
<glyph unicode="&#xab;" horiz-adv-x="708" d="M55 265q0 13 9.5 22.5t23.5 9.5t23 -9.5t9 -22.5q0 -14 -9.5 -23.5t-22.5 -9.5q-14 0 -23.5 10t-9.5 23zM173 147q0 13 9.5 22.5t23.5 9.5t23 -9.5t9 -22.5q0 -14 -9.5 -23.5t-22.5 -9.5q-14 0 -23.5 10t-9.5 23zM173 383q0 13 9.5 22.5t23.5 9.5t23 -9.5t9 -22.5 q0 -14 -9.5 -23.5t-22.5 -9.5q-14 0 -23.5 10t-9.5 23zM291 29q0 13 9.5 22.5t23.5 9.5t23 -9.5t9 -22.5q0 -14 -9.5 -23.5t-22.5 -9.5q-14 0 -23.5 10t-9.5 23zM291 501q0 13 9.5 22.5t23.5 9.5t23 -9.5t9 -22.5q0 -14 -9.5 -23.5t-22.5 -9.5q-14 0 -23.5 10t-9.5 23z M350 265q0 13 9.5 22.5t23.5 9.5q13 0 22.5 -9.5t9.5 -22.5q0 -14 -9.5 -23.5t-22.5 -9.5t-23 10t-10 23zM468 147q0 13 9.5 22.5t23.5 9.5q13 0 22.5 -9.5t9.5 -22.5q0 -14 -9.5 -23.5t-22.5 -9.5t-23 10t-10 23zM468 383q0 13 9.5 22.5t23.5 9.5q13 0 22.5 -9.5t9.5 -22.5 q0 -14 -9.5 -23.5t-22.5 -9.5t-23 10t-10 23zM586 29q0 13 9.5 22.5t23.5 9.5q13 0 22.5 -9.5t9.5 -22.5q0 -14 -9.5 -23.5t-22.5 -9.5t-23 10t-10 23zM586 501q0 13 9.5 22.5t23.5 9.5q13 0 22.5 -9.5t9.5 -22.5q0 -14 -9.5 -23.5t-22.5 -9.5t-23 10t-10 23z" />
<glyph unicode="&#xac;" horiz-adv-x="472" d="M55 324q0 13 9.5 22.5t23.5 9.5t23 -9t9 -23t-9.5 -23.5t-22.5 -9.5q-14 0 -23.5 9.5t-9.5 23.5zM173 324q0 13 9.5 22.5t23.5 9.5t23 -9t9 -23t-9.5 -23.5t-22.5 -9.5q-14 0 -23.5 9.5t-9.5 23.5zM291 324q0 13 9.5 22.5t23.5 9.5t23 -9t9 -23t-9.5 -23.5t-22.5 -9.5 q-14 0 -23.5 9.5t-9.5 23.5zM350 206q0 13 9.5 22.5t23.5 9.5q13 0 22.5 -9t9.5 -23t-9.5 -23.5t-22.5 -9.5t-23 9.5t-10 23.5z" />
<glyph unicode="&#xad;" horiz-adv-x="531" d="M55 265q0 13 9.5 22.5t23.5 9.5t23 -9.5t9 -22.5q0 -14 -9.5 -23.5t-22.5 -9.5q-14 0 -23.5 10t-9.5 23zM173 265q0 13 9.5 22.5t23.5 9.5t23 -9.5t9 -22.5q0 -14 -9.5 -23.5t-22.5 -9.5q-14 0 -23.5 10t-9.5 23zM291 265q0 13 9.5 22.5t23.5 9.5t23 -9.5t9 -22.5 q0 -14 -9.5 -23.5t-22.5 -9.5q-14 0 -23.5 10t-9.5 23zM409 265q0 13 9.5 22.5t23.5 9.5t23 -9.5t9 -22.5q0 -14 -9.5 -23.5t-22.5 -9.5q-14 0 -23.5 10t-9.5 23z" />
<glyph unicode="&#xae;" d="M55 206q0 13 9.5 22.5t23.5 9.5t23 -9t9 -23t-9.5 -23.5t-22.5 -9.5q-14 0 -23.5 9.5t-9.5 23.5zM55 324q0 13 9.5 22.5t23.5 9.5t23 -9t9 -23t-9.5 -23.5t-22.5 -9.5q-14 0 -23.5 9.5t-9.5 23.5zM114 88q0 13 9.5 22.5t23.5 9.5q13 0 22.5 -9t9.5 -23t-9.5 -23.5 t-22.5 -9.5t-23 9.5t-10 23.5zM114 442q0 13 9.5 22.5t23.5 9.5q13 0 22.5 -9t9.5 -23t-9.5 -23.5t-22.5 -9.5t-23 9.5t-10 23.5zM232 29q0 13 9.5 22.5t23.5 9.5q13 0 22.5 -9.5t9.5 -22.5q0 -14 -9.5 -23.5t-22.5 -9.5t-23 10t-10 23zM232 147q0 13 9.5 22.5t23.5 9.5 q13 0 22.5 -9.5t9.5 -22.5q0 -14 -9.5 -23.5t-22.5 -9.5t-23 10t-10 23zM232 265q0 13 9.5 22.5t23.5 9.5q13 0 22.5 -9.5t9.5 -22.5q0 -14 -9.5 -23.5t-22.5 -9.5t-23 10t-10 23zM232 383q0 13 9.5 22.5t23.5 9.5q13 0 22.5 -9.5t9.5 -22.5q0 -14 -9.5 -23.5t-22.5 -9.5 t-23 10t-10 23zM232 501q0 13 9.5 22.5t23.5 9.5q13 0 22.5 -9.5t9.5 -22.5q0 -14 -9.5 -23.5t-22.5 -9.5t-23 10t-10 23zM350 29q0 13 9.5 22.5t23.5 9.5q13 0 22.5 -9.5t9.5 -22.5q0 -14 -9.5 -23.5t-22.5 -9.5t-23 10t-10 23zM350 265q0 13 9.5 22.5t23.5 9.5 q13 0 22.5 -9.5t9.5 -22.5q0 -14 -9.5 -23.5t-22.5 -9.5t-23 10t-10 23zM350 383q0 13 9.5 22.5t23.5 9.5q13 0 22.5 -9.5t9.5 -22.5q0 -14 -9.5 -23.5t-22.5 -9.5t-23 10t-10 23zM350 501q0 13 9.5 22.5t23.5 9.5q13 0 22.5 -9.5t9.5 -22.5q0 -14 -9.5 -23.5t-22.5 -9.5 t-23 10t-10 23zM409 206q0 13 9.5 22.5t23.5 9.5t23 -9t9 -23t-9.5 -23.5t-22.5 -9.5q-14 0 -23.5 9.5t-9.5 23.5zM468 88q0 13 9.5 22.5t23.5 9.5q13 0 22.5 -9t9.5 -23t-9.5 -23.5t-22.5 -9.5t-23 9.5t-10 23.5zM468 442q0 13 9.5 22.5t23.5 9.5q13 0 22.5 -9t9.5 -23 t-9.5 -23.5t-22.5 -9.5t-23 9.5t-10 23.5zM527 206q0 13 9.5 22.5t23.5 9.5t23 -9t9 -23t-9.5 -23.5t-22.5 -9.5q-14 0 -23.5 9.5t-9.5 23.5zM527 324q0 13 9.5 22.5t23.5 9.5t23 -9t9 -23t-9.5 -23.5t-22.5 -9.5q-14 0 -23.5 9.5t-9.5 23.5z" />
<glyph unicode="&#xaf;" horiz-adv-x="413" d="M55 501q0 13 9.5 22.5t23.5 9.5t23 -9.5t9 -22.5q0 -14 -9.5 -23.5t-22.5 -9.5q-14 0 -23.5 10t-9.5 23zM173 501q0 13 9.5 22.5t23.5 9.5t23 -9.5t9 -22.5q0 -14 -9.5 -23.5t-22.5 -9.5q-14 0 -23.5 10t-9.5 23zM291 501q0 13 9.5 22.5t23.5 9.5t23 -9.5t9 -22.5 q0 -14 -9.5 -23.5t-22.5 -9.5q-14 0 -23.5 10t-9.5 23z" />
<glyph unicode="&#xb0;" horiz-adv-x="472" d="M55 383q0 13 9.5 22.5t23.5 9.5t23 -9.5t9 -22.5q0 -14 -9.5 -23.5t-22.5 -9.5q-14 0 -23.5 10t-9.5 23zM114 265q0 13 9.5 22.5t23.5 9.5q13 0 22.5 -9.5t9.5 -22.5q0 -14 -9.5 -23.5t-22.5 -9.5t-23 10t-10 23zM114 501q0 13 9.5 22.5t23.5 9.5q13 0 22.5 -9.5 t9.5 -22.5q0 -14 -9.5 -23.5t-22.5 -9.5t-23 10t-10 23zM232 265q0 13 9.5 22.5t23.5 9.5q13 0 22.5 -9.5t9.5 -22.5q0 -14 -9.5 -23.5t-22.5 -9.5t-23 10t-10 23zM232 501q0 13 9.5 22.5t23.5 9.5q13 0 22.5 -9.5t9.5 -22.5q0 -14 -9.5 -23.5t-22.5 -9.5t-23 10t-10 23z M291 383q0 13 9.5 22.5t23.5 9.5t23 -9.5t9 -22.5q0 -14 -9.5 -23.5t-22.5 -9.5q-14 0 -23.5 10t-9.5 23z" />
<glyph unicode="&#xb1;" horiz-adv-x="413" d="M55 88q0 13 9.5 22.5t23.5 9.5t23 -9t9 -23t-9.5 -23.5t-22.5 -9.5q-14 0 -23.5 9.5t-9.5 23.5zM55 324q0 13 9.5 22.5t23.5 9.5t23 -9t9 -23t-9.5 -23.5t-22.5 -9.5q-14 0 -23.5 9.5t-9.5 23.5zM173 88q0 13 9.5 22.5t23.5 9.5t23 -9t9 -23t-9.5 -23.5t-22.5 -9.5 q-14 0 -23.5 9.5t-9.5 23.5zM173 206q0 13 9.5 22.5t23.5 9.5t23 -9t9 -23t-9.5 -23.5t-22.5 -9.5q-14 0 -23.5 9.5t-9.5 23.5zM173 324q0 13 9.5 22.5t23.5 9.5t23 -9t9 -23t-9.5 -23.5t-22.5 -9.5q-14 0 -23.5 9.5t-9.5 23.5zM173 442q0 13 9.5 22.5t23.5 9.5t23 -9t9 -23 t-9.5 -23.5t-22.5 -9.5q-14 0 -23.5 9.5t-9.5 23.5zM291 88q0 13 9.5 22.5t23.5 9.5t23 -9t9 -23t-9.5 -23.5t-22.5 -9.5q-14 0 -23.5 9.5t-9.5 23.5zM291 324q0 13 9.5 22.5t23.5 9.5t23 -9t9 -23t-9.5 -23.5t-22.5 -9.5q-14 0 -23.5 9.5t-9.5 23.5z" />
<glyph unicode="&#xb2;" horiz-adv-x="472" d="M55 265q0 13 9.5 22.5t23.5 9.5t23 -9.5t9 -22.5q0 -14 -9.5 -23.5t-22.5 -9.5q-14 0 -23.5 10t-9.5 23zM55 442q0 13 9.5 22.5t23.5 9.5t23 -9t9 -23t-9.5 -23.5t-22.5 -9.5q-14 0 -23.5 9.5t-9.5 23.5zM173 265q0 13 9.5 22.5t23.5 9.5t23 -9.5t9 -22.5 q0 -14 -9.5 -23.5t-22.5 -9.5q-14 0 -23.5 10t-9.5 23zM173 383q0 13 9.5 22.5t23.5 9.5t23 -9.5t9 -22.5q0 -14 -9.5 -23.5t-22.5 -9.5q-14 0 -23.5 10t-9.5 23zM173 501q0 13 9.5 22.5t23.5 9.5t23 -9.5t9 -22.5q0 -14 -9.5 -23.5t-22.5 -9.5q-14 0 -23.5 10t-9.5 23z M291 265q0 13 9.5 22.5t23.5 9.5t23 -9.5t9 -22.5q0 -14 -9.5 -23.5t-22.5 -9.5q-14 0 -23.5 10t-9.5 23zM291 442q0 13 9.5 22.5t23.5 9.5t23 -9t9 -23t-9.5 -23.5t-22.5 -9.5q-14 0 -23.5 9.5t-9.5 23.5z" />
<glyph unicode="&#xb3;" horiz-adv-x="413" d="M55 265q0 13 9.5 22.5t23.5 9.5t23 -9.5t9 -22.5q0 -14 -9.5 -23.5t-22.5 -9.5q-14 0 -23.5 10t-9.5 23zM55 501q0 13 9.5 22.5t23.5 9.5t23 -9.5t9 -22.5q0 -14 -9.5 -23.5t-22.5 -9.5q-14 0 -23.5 10t-9.5 23zM173 265q0 13 9.5 22.5t23.5 9.5t23 -9.5t9 -22.5 q0 -14 -9.5 -23.5t-22.5 -9.5q-14 0 -23.5 10t-9.5 23zM173 383q0 13 9.5 22.5t23.5 9.5t23 -9.5t9 -22.5q0 -14 -9.5 -23.5t-22.5 -9.5q-14 0 -23.5 10t-9.5 23zM173 501q0 13 9.5 22.5t23.5 9.5t23 -9.5t9 -22.5q0 -14 -9.5 -23.5t-22.5 -9.5q-14 0 -23.5 10t-9.5 23z M291 324q0 13 9.5 22.5t23.5 9.5t23 -9t9 -23t-9.5 -23.5t-22.5 -9.5q-14 0 -23.5 9.5t-9.5 23.5zM291 442q0 13 9.5 22.5t23.5 9.5t23 -9t9 -23t-9.5 -23.5t-22.5 -9.5q-14 0 -23.5 9.5t-9.5 23.5z" />
<glyph unicode="&#xb4;" horiz-adv-x="295" d="M55 442q0 13 9.5 22.5t23.5 9.5t23 -9t9 -23t-9.5 -23.5t-22.5 -9.5q-14 0 -23.5 9.5t-9.5 23.5zM173 501q0 13 9.5 22.5t23.5 9.5t23 -9.5t9 -22.5q0 -14 -9.5 -23.5t-22.5 -9.5q-14 0 -23.5 10t-9.5 23z" />
<glyph unicode="&#xb6;" d="M55 324q0 13 9.5 22.5t23.5 9.5t23 -9t9 -23t-9.5 -23.5t-22.5 -9.5q-14 0 -23.5 9.5t-9.5 23.5zM55 442q0 13 9.5 22.5t23.5 9.5t23 -9t9 -23t-9.5 -23.5t-22.5 -9.5q-14 0 -23.5 9.5t-9.5 23.5zM173 265q0 13 9.5 22.5t23.5 9.5t23 -9.5t9 -22.5q0 -14 -9.5 -23.5 t-22.5 -9.5q-14 0 -23.5 10t-9.5 23zM173 501q0 13 9.5 22.5t23.5 9.5t23 -9.5t9 -22.5q0 -14 -9.5 -23.5t-22.5 -9.5q-14 0 -23.5 10t-9.5 23zM291 29q0 13 9.5 22.5t23.5 9.5t23 -9.5t9 -22.5q0 -14 -9.5 -23.5t-22.5 -9.5q-14 0 -23.5 10t-9.5 23zM291 -89q0 13 9.5 22.5 t23.5 9.5t23 -9.5t9 -22.5q0 -14 -9.5 -23.5t-22.5 -9.5q-14 0 -23.5 10t-9.5 23zM291 147q0 13 9.5 22.5t23.5 9.5t23 -9.5t9 -22.5q0 -14 -9.5 -23.5t-22.5 -9.5q-14 0 -23.5 10t-9.5 23zM291 265q0 13 9.5 22.5t23.5 9.5t23 -9.5t9 -22.5q0 -14 -9.5 -23.5t-22.5 -9.5 q-14 0 -23.5 10t-9.5 23zM291 383q0 13 9.5 22.5t23.5 9.5t23 -9.5t9 -22.5q0 -14 -9.5 -23.5t-22.5 -9.5q-14 0 -23.5 10t-9.5 23zM291 501q0 13 9.5 22.5t23.5 9.5t23 -9.5t9 -22.5q0 -14 -9.5 -23.5t-22.5 -9.5q-14 0 -23.5 10t-9.5 23zM409 29q0 13 9.5 22.5t23.5 9.5 t23 -9.5t9 -22.5q0 -14 -9.5 -23.5t-22.5 -9.5q-14 0 -23.5 10t-9.5 23zM409 -89q0 13 9.5 22.5t23.5 9.5t23 -9.5t9 -22.5q0 -14 -9.5 -23.5t-22.5 -9.5q-14 0 -23.5 10t-9.5 23zM409 147q0 13 9.5 22.5t23.5 9.5t23 -9.5t9 -22.5q0 -14 -9.5 -23.5t-22.5 -9.5 q-14 0 -23.5 10t-9.5 23zM409 265q0 13 9.5 22.5t23.5 9.5t23 -9.5t9 -22.5q0 -14 -9.5 -23.5t-22.5 -9.5q-14 0 -23.5 10t-9.5 23zM409 383q0 13 9.5 22.5t23.5 9.5t23 -9.5t9 -22.5q0 -14 -9.5 -23.5t-22.5 -9.5q-14 0 -23.5 10t-9.5 23zM409 501q0 13 9.5 22.5t23.5 9.5 t23 -9.5t9 -22.5q0 -14 -9.5 -23.5t-22.5 -9.5q-14 0 -23.5 10t-9.5 23zM527 501q0 13 9.5 22.5t23.5 9.5t23 -9.5t9 -22.5q0 -14 -9.5 -23.5t-22.5 -9.5q-14 0 -23.5 10t-9.5 23z" />
<glyph unicode="&#xb7;" horiz-adv-x="177" d="M55 265q0 13 9.5 22.5t23.5 9.5t23 -9.5t9 -22.5q0 -14 -9.5 -23.5t-22.5 -9.5q-14 0 -23.5 10t-9.5 23z" />
<glyph unicode="&#xb8;" horiz-adv-x="295" d="M55 -148q0 13 9.5 22.5t23.5 9.5t23 -9t9 -23t-9.5 -23.5t-22.5 -9.5q-14 0 -23.5 9.5t-9.5 23.5zM173 -89q0 13 9.5 22.5t23.5 9.5t23 -9.5t9 -22.5q0 -14 -9.5 -23.5t-22.5 -9.5q-14 0 -23.5 10t-9.5 23z" />
<glyph unicode="&#xb9;" horiz-adv-x="413" d="M55 265q0 13 9.5 22.5t23.5 9.5t23 -9.5t9 -22.5q0 -14 -9.5 -23.5t-22.5 -9.5q-14 0 -23.5 10t-9.5 23zM55 442q0 13 9.5 22.5t23.5 9.5t23 -9t9 -23t-9.5 -23.5t-22.5 -9.5q-14 0 -23.5 9.5t-9.5 23.5zM173 265q0 13 9.5 22.5t23.5 9.5t23 -9.5t9 -22.5 q0 -14 -9.5 -23.5t-22.5 -9.5q-14 0 -23.5 10t-9.5 23zM173 383q0 13 9.5 22.5t23.5 9.5t23 -9.5t9 -22.5q0 -14 -9.5 -23.5t-22.5 -9.5q-14 0 -23.5 10t-9.5 23zM173 501q0 13 9.5 22.5t23.5 9.5t23 -9.5t9 -22.5q0 -14 -9.5 -23.5t-22.5 -9.5q-14 0 -23.5 10t-9.5 23z M291 265q0 13 9.5 22.5t23.5 9.5t23 -9.5t9 -22.5q0 -14 -9.5 -23.5t-22.5 -9.5q-14 0 -23.5 10t-9.5 23z" />
<glyph unicode="&#xba;" horiz-adv-x="413" d="M55 383q0 13 9.5 22.5t23.5 9.5t23 -9.5t9 -22.5q0 -14 -9.5 -23.5t-22.5 -9.5q-14 0 -23.5 10t-9.5 23zM114 265q0 13 9.5 22.5t23.5 9.5q13 0 22.5 -9.5t9.5 -22.5q0 -14 -9.5 -23.5t-22.5 -9.5t-23 10t-10 23zM114 501q0 13 9.5 22.5t23.5 9.5q13 0 22.5 -9.5 t9.5 -22.5q0 -14 -9.5 -23.5t-22.5 -9.5t-23 10t-10 23zM232 265q0 13 9.5 22.5t23.5 9.5q13 0 22.5 -9.5t9.5 -22.5q0 -14 -9.5 -23.5t-22.5 -9.5t-23 10t-10 23zM232 501q0 13 9.5 22.5t23.5 9.5q13 0 22.5 -9.5t9.5 -22.5q0 -14 -9.5 -23.5t-22.5 -9.5t-23 10t-10 23z M291 383q0 13 9.5 22.5t23.5 9.5t23 -9.5t9 -22.5q0 -14 -9.5 -23.5t-22.5 -9.5q-14 0 -23.5 10t-9.5 23z" />
<glyph unicode="&#xbb;" horiz-adv-x="708" d="M55 29q0 13 9.5 22.5t23.5 9.5t23 -9.5t9 -22.5q0 -14 -9.5 -23.5t-22.5 -9.5q-14 0 -23.5 10t-9.5 23zM55 501q0 13 9.5 22.5t23.5 9.5t23 -9.5t9 -22.5q0 -14 -9.5 -23.5t-22.5 -9.5q-14 0 -23.5 10t-9.5 23zM173 147q0 13 9.5 22.5t23.5 9.5t23 -9.5t9 -22.5 q0 -14 -9.5 -23.5t-22.5 -9.5q-14 0 -23.5 10t-9.5 23zM173 383q0 13 9.5 22.5t23.5 9.5t23 -9.5t9 -22.5q0 -14 -9.5 -23.5t-22.5 -9.5q-14 0 -23.5 10t-9.5 23zM291 265q0 13 9.5 22.5t23.5 9.5t23 -9.5t9 -22.5q0 -14 -9.5 -23.5t-22.5 -9.5q-14 0 -23.5 10t-9.5 23z M350 29q0 13 9.5 22.5t23.5 9.5q13 0 22.5 -9.5t9.5 -22.5q0 -14 -9.5 -23.5t-22.5 -9.5t-23 10t-10 23zM350 501q0 13 9.5 22.5t23.5 9.5q13 0 22.5 -9.5t9.5 -22.5q0 -14 -9.5 -23.5t-22.5 -9.5t-23 10t-10 23zM468 147q0 13 9.5 22.5t23.5 9.5q13 0 22.5 -9.5t9.5 -22.5 q0 -14 -9.5 -23.5t-22.5 -9.5t-23 10t-10 23zM468 383q0 13 9.5 22.5t23.5 9.5q13 0 22.5 -9.5t9.5 -22.5q0 -14 -9.5 -23.5t-22.5 -9.5t-23 10t-10 23zM586 265q0 13 9.5 22.5t23.5 9.5q13 0 22.5 -9.5t9.5 -22.5q0 -14 -9.5 -23.5t-22.5 -9.5t-23 10t-10 23z" />
<glyph unicode="&#xbc;" horiz-adv-x="944" d="M55 265q0 13 9.5 22.5t23.5 9.5t23 -9.5t9 -22.5q0 -14 -9.5 -23.5t-22.5 -9.5q-14 0 -23.5 10t-9.5 23zM55 442q0 13 9.5 22.5t23.5 9.5t23 -9t9 -23t-9.5 -23.5t-22.5 -9.5q-14 0 -23.5 9.5t-9.5 23.5zM173 29q0 13 9.5 22.5t23.5 9.5t23 -9.5t9 -22.5 q0 -14 -9.5 -23.5t-22.5 -9.5q-14 0 -23.5 10t-9.5 23zM173 265q0 13 9.5 22.5t23.5 9.5t23 -9.5t9 -22.5q0 -14 -9.5 -23.5t-22.5 -9.5q-14 0 -23.5 10t-9.5 23zM173 383q0 13 9.5 22.5t23.5 9.5t23 -9.5t9 -22.5q0 -14 -9.5 -23.5t-22.5 -9.5q-14 0 -23.5 10t-9.5 23z M173 501q0 13 9.5 22.5t23.5 9.5t23 -9.5t9 -22.5q0 -14 -9.5 -23.5t-22.5 -9.5q-14 0 -23.5 10t-9.5 23zM291 147q0 13 9.5 22.5t23.5 9.5t23 -9.5t9 -22.5q0 -14 -9.5 -23.5t-22.5 -9.5q-14 0 -23.5 10t-9.5 23zM291 265q0 13 9.5 22.5t23.5 9.5t23 -9.5t9 -22.5 q0 -14 -9.5 -23.5t-22.5 -9.5q-14 0 -23.5 10t-9.5 23zM409 265q0 13 9.5 22.5t23.5 9.5t23 -9.5t9 -22.5q0 -14 -9.5 -23.5t-22.5 -9.5q-14 0 -23.5 10t-9.5 23zM527 29q0 13 9.5 22.5t23.5 9.5t23 -9.5t9 -22.5q0 -14 -9.5 -23.5t-22.5 -9.5q-14 0 -23.5 10t-9.5 23z M527 383q0 13 9.5 22.5t23.5 9.5t23 -9.5t9 -22.5q0 -14 -9.5 -23.5t-22.5 -9.5q-14 0 -23.5 10t-9.5 23zM586 147q0 13 9.5 22.5t23.5 9.5q13 0 22.5 -9.5t9.5 -22.5q0 -14 -9.5 -23.5t-22.5 -9.5t-23 10t-10 23zM645 501q0 13 9.5 22.5t23.5 9.5t23 -9.5t9 -22.5 q0 -14 -9.5 -23.5t-22.5 -9.5q-14 0 -23.5 10t-9.5 23zM704 29q0 13 9.5 22.5t23.5 9.5q13 0 22.5 -9.5t9.5 -22.5q0 -14 -9.5 -23.5t-22.5 -9.5t-23 10t-10 23zM704 -89q0 13 9.5 22.5t23.5 9.5q13 0 22.5 -9.5t9.5 -22.5q0 -14 -9.5 -23.5t-22.5 -9.5t-23 10t-10 23z M704 147q0 13 9.5 22.5t23.5 9.5q13 0 22.5 -9.5t9.5 -22.5q0 -14 -9.5 -23.5t-22.5 -9.5t-23 10t-10 23zM704 265q0 13 9.5 22.5t23.5 9.5q13 0 22.5 -9.5t9.5 -22.5q0 -14 -9.5 -23.5t-22.5 -9.5t-23 10t-10 23zM822 29q0 13 9.5 22.5t23.5 9.5q13 0 22.5 -9.5t9.5 -22.5 q0 -14 -9.5 -23.5t-22.5 -9.5t-23 10t-10 23z" />
<glyph unicode="&#xbd;" horiz-adv-x="885" d="M55 265q0 13 9.5 22.5t23.5 9.5t23 -9.5t9 -22.5q0 -14 -9.5 -23.5t-22.5 -9.5q-14 0 -23.5 10t-9.5 23zM55 442q0 13 9.5 22.5t23.5 9.5t23 -9t9 -23t-9.5 -23.5t-22.5 -9.5q-14 0 -23.5 9.5t-9.5 23.5zM173 29q0 13 9.5 22.5t23.5 9.5t23 -9.5t9 -22.5 q0 -14 -9.5 -23.5t-22.5 -9.5q-14 0 -23.5 10t-9.5 23zM173 265q0 13 9.5 22.5t23.5 9.5t23 -9.5t9 -22.5q0 -14 -9.5 -23.5t-22.5 -9.5q-14 0 -23.5 10t-9.5 23zM173 383q0 13 9.5 22.5t23.5 9.5t23 -9.5t9 -22.5q0 -14 -9.5 -23.5t-22.5 -9.5q-14 0 -23.5 10t-9.5 23z M173 501q0 13 9.5 22.5t23.5 9.5t23 -9.5t9 -22.5q0 -14 -9.5 -23.5t-22.5 -9.5q-14 0 -23.5 10t-9.5 23zM291 147q0 13 9.5 22.5t23.5 9.5t23 -9.5t9 -22.5q0 -14 -9.5 -23.5t-22.5 -9.5q-14 0 -23.5 10t-9.5 23zM291 265q0 13 9.5 22.5t23.5 9.5t23 -9.5t9 -22.5 q0 -14 -9.5 -23.5t-22.5 -9.5q-14 0 -23.5 10t-9.5 23zM409 265q0 13 9.5 22.5t23.5 9.5t23 -9.5t9 -22.5q0 -14 -9.5 -23.5t-22.5 -9.5q-14 0 -23.5 10t-9.5 23zM527 29q0 13 9.5 22.5t23.5 9.5t23 -9.5t9 -22.5q0 -14 -9.5 -23.5t-22.5 -9.5q-14 0 -23.5 10t-9.5 23z M527 206q0 13 9.5 22.5t23.5 9.5t23 -9t9 -23t-9.5 -23.5t-22.5 -9.5q-14 0 -23.5 9.5t-9.5 23.5zM527 383q0 13 9.5 22.5t23.5 9.5t23 -9.5t9 -22.5q0 -14 -9.5 -23.5t-22.5 -9.5q-14 0 -23.5 10t-9.5 23zM645 29q0 13 9.5 22.5t23.5 9.5t23 -9.5t9 -22.5q0 -14 -9.5 -23.5 t-22.5 -9.5q-14 0 -23.5 10t-9.5 23zM645 147q0 13 9.5 22.5t23.5 9.5t23 -9.5t9 -22.5q0 -14 -9.5 -23.5t-22.5 -9.5q-14 0 -23.5 10t-9.5 23zM645 265q0 13 9.5 22.5t23.5 9.5t23 -9.5t9 -22.5q0 -14 -9.5 -23.5t-22.5 -9.5q-14 0 -23.5 10t-9.5 23zM645 501 q0 13 9.5 22.5t23.5 9.5t23 -9.5t9 -22.5q0 -14 -9.5 -23.5t-22.5 -9.5q-14 0 -23.5 10t-9.5 23zM763 29q0 13 9.5 22.5t23.5 9.5t23 -9.5t9 -22.5q0 -14 -9.5 -23.5t-22.5 -9.5q-14 0 -23.5 10t-9.5 23zM763 206q0 13 9.5 22.5t23.5 9.5t23 -9t9 -23t-9.5 -23.5t-22.5 -9.5 q-14 0 -23.5 9.5t-9.5 23.5z" />
<glyph unicode="&#xbe;" horiz-adv-x="1003" d="M114 265q0 13 9.5 22.5t23.5 9.5q13 0 22.5 -9.5t9.5 -22.5q0 -14 -9.5 -23.5t-22.5 -9.5t-23 10t-10 23zM114 501q0 13 9.5 22.5t23.5 9.5q13 0 22.5 -9.5t9.5 -22.5q0 -14 -9.5 -23.5t-22.5 -9.5t-23 10t-10 23zM232 29q0 13 9.5 22.5t23.5 9.5q13 0 22.5 -9.5 t9.5 -22.5q0 -14 -9.5 -23.5t-22.5 -9.5t-23 10t-10 23zM232 265q0 13 9.5 22.5t23.5 9.5q13 0 22.5 -9.5t9.5 -22.5q0 -14 -9.5 -23.5t-22.5 -9.5t-23 10t-10 23zM232 383q0 13 9.5 22.5t23.5 9.5q13 0 22.5 -9.5t9.5 -22.5q0 -14 -9.5 -23.5t-22.5 -9.5t-23 10t-10 23z M232 501q0 13 9.5 22.5t23.5 9.5q13 0 22.5 -9.5t9.5 -22.5q0 -14 -9.5 -23.5t-22.5 -9.5t-23 10t-10 23zM350 147q0 13 9.5 22.5t23.5 9.5q13 0 22.5 -9.5t9.5 -22.5q0 -14 -9.5 -23.5t-22.5 -9.5t-23 10t-10 23zM350 324q0 13 9.5 22.5t23.5 9.5q13 0 22.5 -9t9.5 -23 t-9.5 -23.5t-22.5 -9.5t-23 9.5t-10 23.5zM350 442q0 13 9.5 22.5t23.5 9.5q13 0 22.5 -9t9.5 -23t-9.5 -23.5t-22.5 -9.5t-23 9.5t-10 23.5zM468 265q0 13 9.5 22.5t23.5 9.5q13 0 22.5 -9.5t9.5 -22.5q0 -14 -9.5 -23.5t-22.5 -9.5t-23 10t-10 23zM586 29q0 13 9.5 22.5 t23.5 9.5q13 0 22.5 -9.5t9.5 -22.5q0 -14 -9.5 -23.5t-22.5 -9.5t-23 10t-10 23zM586 383q0 13 9.5 22.5t23.5 9.5q13 0 22.5 -9.5t9.5 -22.5q0 -14 -9.5 -23.5t-22.5 -9.5t-23 10t-10 23zM645 147q0 13 9.5 22.5t23.5 9.5t23 -9.5t9 -22.5q0 -14 -9.5 -23.5t-22.5 -9.5 q-14 0 -23.5 10t-9.5 23zM704 501q0 13 9.5 22.5t23.5 9.5q13 0 22.5 -9.5t9.5 -22.5q0 -14 -9.5 -23.5t-22.5 -9.5t-23 10t-10 23zM763 29q0 13 9.5 22.5t23.5 9.5t23 -9.5t9 -22.5q0 -14 -9.5 -23.5t-22.5 -9.5q-14 0 -23.5 10t-9.5 23zM763 -89q0 13 9.5 22.5t23.5 9.5 t23 -9.5t9 -22.5q0 -14 -9.5 -23.5t-22.5 -9.5q-14 0 -23.5 10t-9.5 23zM763 147q0 13 9.5 22.5t23.5 9.5t23 -9.5t9 -22.5q0 -14 -9.5 -23.5t-22.5 -9.5q-14 0 -23.5 10t-9.5 23zM763 265q0 13 9.5 22.5t23.5 9.5t23 -9.5t9 -22.5q0 -14 -9.5 -23.5t-22.5 -9.5 q-14 0 -23.5 10t-9.5 23zM881 29q0 13 9.5 22.5t23.5 9.5t23 -9.5t9 -22.5q0 -14 -9.5 -23.5t-22.5 -9.5q-14 0 -23.5 10t-9.5 23z" />
<glyph unicode="&#xbf;" horiz-adv-x="413" d="M55 -30q0 13 9.5 22.5t23.5 9.5t23 -9t9 -23t-9.5 -23.5t-22.5 -9.5q-14 0 -23.5 9.5t-9.5 23.5zM55 88q0 13 9.5 22.5t23.5 9.5t23 -9t9 -23t-9.5 -23.5t-22.5 -9.5q-14 0 -23.5 9.5t-9.5 23.5zM173 -89q0 13 9.5 22.5t23.5 9.5t23 -9.5t9 -22.5q0 -14 -9.5 -23.5 t-22.5 -9.5q-14 0 -23.5 10t-9.5 23zM173 206q0 13 9.5 22.5t23.5 9.5t23 -9t9 -23t-9.5 -23.5t-22.5 -9.5q-14 0 -23.5 9.5t-9.5 23.5zM173 383q0 13 9.5 22.5t23.5 9.5t23 -9.5t9 -22.5q0 -14 -9.5 -23.5t-22.5 -9.5q-14 0 -23.5 10t-9.5 23zM291 -30q0 13 9.5 22.5 t23.5 9.5t23 -9t9 -23t-9.5 -23.5t-22.5 -9.5q-14 0 -23.5 9.5t-9.5 23.5z" />
<glyph unicode="&#xc0;" d="M55 29q0 13 9.5 22.5t23.5 9.5t23 -9.5t9 -22.5q0 -14 -9.5 -23.5t-22.5 -9.5q-14 0 -23.5 10t-9.5 23zM55 147q0 13 9.5 22.5t23.5 9.5t23 -9.5t9 -22.5q0 -14 -9.5 -23.5t-22.5 -9.5q-14 0 -23.5 10t-9.5 23zM55 265q0 13 9.5 22.5t23.5 9.5t23 -9.5t9 -22.5 q0 -14 -9.5 -23.5t-22.5 -9.5q-14 0 -23.5 10t-9.5 23zM55 383q0 13 9.5 22.5t23.5 9.5t23 -9.5t9 -22.5q0 -14 -9.5 -23.5t-22.5 -9.5q-14 0 -23.5 10t-9.5 23zM173 206q0 13 9.5 22.5t23.5 9.5t23 -9t9 -23t-9.5 -23.5t-22.5 -9.5q-14 0 -23.5 9.5t-9.5 23.5zM173 501 q0 13 9.5 22.5t23.5 9.5t23 -9.5t9 -22.5q0 -14 -9.5 -23.5t-22.5 -9.5q-14 0 -23.5 10t-9.5 23zM232 678q0 13 9.5 22.5t23.5 9.5q13 0 22.5 -9t9.5 -23t-9.5 -23.5t-22.5 -9.5t-23 9.5t-10 23.5zM291 206q0 13 9.5 22.5t23.5 9.5t23 -9t9 -23t-9.5 -23.5t-22.5 -9.5 q-14 0 -23.5 9.5t-9.5 23.5zM291 501q0 13 9.5 22.5t23.5 9.5t23 -9.5t9 -22.5q0 -14 -9.5 -23.5t-22.5 -9.5q-14 0 -23.5 10t-9.5 23zM350 619q0 13 9.5 22.5t23.5 9.5q13 0 22.5 -9.5t9.5 -22.5q0 -14 -9.5 -23.5t-22.5 -9.5t-23 10t-10 23zM409 206q0 13 9.5 22.5 t23.5 9.5t23 -9t9 -23t-9.5 -23.5t-22.5 -9.5q-14 0 -23.5 9.5t-9.5 23.5zM409 501q0 13 9.5 22.5t23.5 9.5t23 -9.5t9 -22.5q0 -14 -9.5 -23.5t-22.5 -9.5q-14 0 -23.5 10t-9.5 23zM527 29q0 13 9.5 22.5t23.5 9.5t23 -9.5t9 -22.5q0 -14 -9.5 -23.5t-22.5 -9.5 q-14 0 -23.5 10t-9.5 23zM527 147q0 13 9.5 22.5t23.5 9.5t23 -9.5t9 -22.5q0 -14 -9.5 -23.5t-22.5 -9.5q-14 0 -23.5 10t-9.5 23zM527 265q0 13 9.5 22.5t23.5 9.5t23 -9.5t9 -22.5q0 -14 -9.5 -23.5t-22.5 -9.5q-14 0 -23.5 10t-9.5 23zM527 383q0 13 9.5 22.5t23.5 9.5 t23 -9.5t9 -22.5q0 -14 -9.5 -23.5t-22.5 -9.5q-14 0 -23.5 10t-9.5 23z" />
<glyph unicode="&#xc1;" d="M55 29q0 13 9.5 22.5t23.5 9.5t23 -9.5t9 -22.5q0 -14 -9.5 -23.5t-22.5 -9.5q-14 0 -23.5 10t-9.5 23zM55 147q0 13 9.5 22.5t23.5 9.5t23 -9.5t9 -22.5q0 -14 -9.5 -23.5t-22.5 -9.5q-14 0 -23.5 10t-9.5 23zM55 265q0 13 9.5 22.5t23.5 9.5t23 -9.5t9 -22.5 q0 -14 -9.5 -23.5t-22.5 -9.5q-14 0 -23.5 10t-9.5 23zM55 383q0 13 9.5 22.5t23.5 9.5t23 -9.5t9 -22.5q0 -14 -9.5 -23.5t-22.5 -9.5q-14 0 -23.5 10t-9.5 23zM173 206q0 13 9.5 22.5t23.5 9.5t23 -9t9 -23t-9.5 -23.5t-22.5 -9.5q-14 0 -23.5 9.5t-9.5 23.5zM173 501 q0 13 9.5 22.5t23.5 9.5t23 -9.5t9 -22.5q0 -14 -9.5 -23.5t-22.5 -9.5q-14 0 -23.5 10t-9.5 23zM232 619q0 13 9.5 22.5t23.5 9.5q13 0 22.5 -9.5t9.5 -22.5q0 -14 -9.5 -23.5t-22.5 -9.5t-23 10t-10 23zM291 206q0 13 9.5 22.5t23.5 9.5t23 -9t9 -23t-9.5 -23.5 t-22.5 -9.5q-14 0 -23.5 9.5t-9.5 23.5zM291 501q0 13 9.5 22.5t23.5 9.5t23 -9.5t9 -22.5q0 -14 -9.5 -23.5t-22.5 -9.5q-14 0 -23.5 10t-9.5 23zM350 678q0 13 9.5 22.5t23.5 9.5q13 0 22.5 -9t9.5 -23t-9.5 -23.5t-22.5 -9.5t-23 9.5t-10 23.5zM409 206q0 13 9.5 22.5 t23.5 9.5t23 -9t9 -23t-9.5 -23.5t-22.5 -9.5q-14 0 -23.5 9.5t-9.5 23.5zM409 501q0 13 9.5 22.5t23.5 9.5t23 -9.5t9 -22.5q0 -14 -9.5 -23.5t-22.5 -9.5q-14 0 -23.5 10t-9.5 23zM527 29q0 13 9.5 22.5t23.5 9.5t23 -9.5t9 -22.5q0 -14 -9.5 -23.5t-22.5 -9.5 q-14 0 -23.5 10t-9.5 23zM527 147q0 13 9.5 22.5t23.5 9.5t23 -9.5t9 -22.5q0 -14 -9.5 -23.5t-22.5 -9.5q-14 0 -23.5 10t-9.5 23zM527 265q0 13 9.5 22.5t23.5 9.5t23 -9.5t9 -22.5q0 -14 -9.5 -23.5t-22.5 -9.5q-14 0 -23.5 10t-9.5 23zM527 383q0 13 9.5 22.5t23.5 9.5 t23 -9.5t9 -22.5q0 -14 -9.5 -23.5t-22.5 -9.5q-14 0 -23.5 10t-9.5 23z" />
<glyph unicode="&#xc2;" d="M55 29q0 13 9.5 22.5t23.5 9.5t23 -9.5t9 -22.5q0 -14 -9.5 -23.5t-22.5 -9.5q-14 0 -23.5 10t-9.5 23zM55 147q0 13 9.5 22.5t23.5 9.5t23 -9.5t9 -22.5q0 -14 -9.5 -23.5t-22.5 -9.5q-14 0 -23.5 10t-9.5 23zM55 265q0 13 9.5 22.5t23.5 9.5t23 -9.5t9 -22.5 q0 -14 -9.5 -23.5t-22.5 -9.5q-14 0 -23.5 10t-9.5 23zM55 383q0 13 9.5 22.5t23.5 9.5t23 -9.5t9 -22.5q0 -14 -9.5 -23.5t-22.5 -9.5q-14 0 -23.5 10t-9.5 23zM173 206q0 13 9.5 22.5t23.5 9.5t23 -9t9 -23t-9.5 -23.5t-22.5 -9.5q-14 0 -23.5 9.5t-9.5 23.5zM173 501 q0 13 9.5 22.5t23.5 9.5t23 -9.5t9 -22.5q0 -14 -9.5 -23.5t-22.5 -9.5q-14 0 -23.5 10t-9.5 23zM173 619q0 13 9.5 22.5t23.5 9.5t23 -9.5t9 -22.5q0 -14 -9.5 -23.5t-22.5 -9.5q-14 0 -23.5 10t-9.5 23zM291 206q0 13 9.5 22.5t23.5 9.5t23 -9t9 -23t-9.5 -23.5 t-22.5 -9.5q-14 0 -23.5 9.5t-9.5 23.5zM291 501q0 13 9.5 22.5t23.5 9.5t23 -9.5t9 -22.5q0 -14 -9.5 -23.5t-22.5 -9.5q-14 0 -23.5 10t-9.5 23zM291 678q0 13 9.5 22.5t23.5 9.5t23 -9t9 -23t-9.5 -23.5t-22.5 -9.5q-14 0 -23.5 9.5t-9.5 23.5zM409 206q0 13 9.5 22.5 t23.5 9.5t23 -9t9 -23t-9.5 -23.5t-22.5 -9.5q-14 0 -23.5 9.5t-9.5 23.5zM409 501q0 13 9.5 22.5t23.5 9.5t23 -9.5t9 -22.5q0 -14 -9.5 -23.5t-22.5 -9.5q-14 0 -23.5 10t-9.5 23zM409 619q0 13 9.5 22.5t23.5 9.5t23 -9.5t9 -22.5q0 -14 -9.5 -23.5t-22.5 -9.5 q-14 0 -23.5 10t-9.5 23zM527 29q0 13 9.5 22.5t23.5 9.5t23 -9.5t9 -22.5q0 -14 -9.5 -23.5t-22.5 -9.5q-14 0 -23.5 10t-9.5 23zM527 147q0 13 9.5 22.5t23.5 9.5t23 -9.5t9 -22.5q0 -14 -9.5 -23.5t-22.5 -9.5q-14 0 -23.5 10t-9.5 23zM527 265q0 13 9.5 22.5t23.5 9.5 t23 -9.5t9 -22.5q0 -14 -9.5 -23.5t-22.5 -9.5q-14 0 -23.5 10t-9.5 23zM527 383q0 13 9.5 22.5t23.5 9.5t23 -9.5t9 -22.5q0 -14 -9.5 -23.5t-22.5 -9.5q-14 0 -23.5 10t-9.5 23z" />
<glyph unicode="&#xc3;" d="M55 29q0 13 9.5 22.5t23.5 9.5t23 -9.5t9 -22.5q0 -14 -9.5 -23.5t-22.5 -9.5q-14 0 -23.5 10t-9.5 23zM55 147q0 13 9.5 22.5t23.5 9.5t23 -9.5t9 -22.5q0 -14 -9.5 -23.5t-22.5 -9.5q-14 0 -23.5 10t-9.5 23zM55 265q0 13 9.5 22.5t23.5 9.5t23 -9.5t9 -22.5 q0 -14 -9.5 -23.5t-22.5 -9.5q-14 0 -23.5 10t-9.5 23zM55 383q0 13 9.5 22.5t23.5 9.5t23 -9.5t9 -22.5q0 -14 -9.5 -23.5t-22.5 -9.5q-14 0 -23.5 10t-9.5 23zM173 206q0 13 9.5 22.5t23.5 9.5t23 -9t9 -23t-9.5 -23.5t-22.5 -9.5q-14 0 -23.5 9.5t-9.5 23.5zM173 501 q0 13 9.5 22.5t23.5 9.5t23 -9.5t9 -22.5q0 -14 -9.5 -23.5t-22.5 -9.5q-14 0 -23.5 10t-9.5 23zM173 619q0 13 9.5 22.5t23.5 9.5t23 -9.5t9 -22.5q0 -14 -9.5 -23.5t-22.5 -9.5q-14 0 -23.5 10t-9.5 23zM232 678q0 13 9.5 22.5t23.5 9.5q13 0 22.5 -9t9.5 -23t-9.5 -23.5 t-22.5 -9.5t-23 9.5t-10 23.5zM291 206q0 13 9.5 22.5t23.5 9.5t23 -9t9 -23t-9.5 -23.5t-22.5 -9.5q-14 0 -23.5 9.5t-9.5 23.5zM291 501q0 13 9.5 22.5t23.5 9.5t23 -9.5t9 -22.5q0 -14 -9.5 -23.5t-22.5 -9.5q-14 0 -23.5 10t-9.5 23zM291 619q0 13 9.5 22.5t23.5 9.5 t23 -9.5t9 -22.5q0 -14 -9.5 -23.5t-22.5 -9.5q-14 0 -23.5 10t-9.5 23zM350 678q0 13 9.5 22.5t23.5 9.5q13 0 22.5 -9t9.5 -23t-9.5 -23.5t-22.5 -9.5t-23 9.5t-10 23.5zM409 206q0 13 9.5 22.5t23.5 9.5t23 -9t9 -23t-9.5 -23.5t-22.5 -9.5q-14 0 -23.5 9.5t-9.5 23.5z M409 501q0 13 9.5 22.5t23.5 9.5t23 -9.5t9 -22.5q0 -14 -9.5 -23.5t-22.5 -9.5q-14 0 -23.5 10t-9.5 23zM527 29q0 13 9.5 22.5t23.5 9.5t23 -9.5t9 -22.5q0 -14 -9.5 -23.5t-22.5 -9.5q-14 0 -23.5 10t-9.5 23zM527 147q0 13 9.5 22.5t23.5 9.5t23 -9.5t9 -22.5 q0 -14 -9.5 -23.5t-22.5 -9.5q-14 0 -23.5 10t-9.5 23zM527 265q0 13 9.5 22.5t23.5 9.5t23 -9.5t9 -22.5q0 -14 -9.5 -23.5t-22.5 -9.5q-14 0 -23.5 10t-9.5 23zM527 383q0 13 9.5 22.5t23.5 9.5t23 -9.5t9 -22.5q0 -14 -9.5 -23.5t-22.5 -9.5q-14 0 -23.5 10t-9.5 23z" />
<glyph unicode="&#xc4;" d="M55 29q0 13 9.5 22.5t23.5 9.5t23 -9.5t9 -22.5q0 -14 -9.5 -23.5t-22.5 -9.5q-14 0 -23.5 10t-9.5 23zM55 147q0 13 9.5 22.5t23.5 9.5t23 -9.5t9 -22.5q0 -14 -9.5 -23.5t-22.5 -9.5q-14 0 -23.5 10t-9.5 23zM55 265q0 13 9.5 22.5t23.5 9.5t23 -9.5t9 -22.5 q0 -14 -9.5 -23.5t-22.5 -9.5q-14 0 -23.5 10t-9.5 23zM55 383q0 13 9.5 22.5t23.5 9.5t23 -9.5t9 -22.5q0 -14 -9.5 -23.5t-22.5 -9.5q-14 0 -23.5 10t-9.5 23zM173 206q0 13 9.5 22.5t23.5 9.5t23 -9t9 -23t-9.5 -23.5t-22.5 -9.5q-14 0 -23.5 9.5t-9.5 23.5zM173 501 q0 13 9.5 22.5t23.5 9.5t23 -9.5t9 -22.5q0 -14 -9.5 -23.5t-22.5 -9.5q-14 0 -23.5 10t-9.5 23zM232 678q0 13 9.5 22.5t23.5 9.5q13 0 22.5 -9t9.5 -23t-9.5 -23.5t-22.5 -9.5t-23 9.5t-10 23.5zM291 206q0 13 9.5 22.5t23.5 9.5t23 -9t9 -23t-9.5 -23.5t-22.5 -9.5 q-14 0 -23.5 9.5t-9.5 23.5zM291 501q0 13 9.5 22.5t23.5 9.5t23 -9.5t9 -22.5q0 -14 -9.5 -23.5t-22.5 -9.5q-14 0 -23.5 10t-9.5 23zM350 678q0 13 9.5 22.5t23.5 9.5q13 0 22.5 -9t9.5 -23t-9.5 -23.5t-22.5 -9.5t-23 9.5t-10 23.5zM409 206q0 13 9.5 22.5t23.5 9.5 t23 -9t9 -23t-9.5 -23.5t-22.5 -9.5q-14 0 -23.5 9.5t-9.5 23.5zM409 501q0 13 9.5 22.5t23.5 9.5t23 -9.5t9 -22.5q0 -14 -9.5 -23.5t-22.5 -9.5q-14 0 -23.5 10t-9.5 23zM527 29q0 13 9.5 22.5t23.5 9.5t23 -9.5t9 -22.5q0 -14 -9.5 -23.5t-22.5 -9.5q-14 0 -23.5 10 t-9.5 23zM527 147q0 13 9.5 22.5t23.5 9.5t23 -9.5t9 -22.5q0 -14 -9.5 -23.5t-22.5 -9.5q-14 0 -23.5 10t-9.5 23zM527 265q0 13 9.5 22.5t23.5 9.5t23 -9.5t9 -22.5q0 -14 -9.5 -23.5t-22.5 -9.5q-14 0 -23.5 10t-9.5 23zM527 383q0 13 9.5 22.5t23.5 9.5t23 -9.5t9 -22.5 q0 -14 -9.5 -23.5t-22.5 -9.5q-14 0 -23.5 10t-9.5 23z" />
<glyph unicode="&#xc5;" d="M55 29q0 13 9.5 22.5t23.5 9.5t23 -9.5t9 -22.5q0 -14 -9.5 -23.5t-22.5 -9.5q-14 0 -23.5 10t-9.5 23zM55 147q0 13 9.5 22.5t23.5 9.5t23 -9.5t9 -22.5q0 -14 -9.5 -23.5t-22.5 -9.5q-14 0 -23.5 10t-9.5 23zM55 265q0 13 9.5 22.5t23.5 9.5t23 -9.5t9 -22.5 q0 -14 -9.5 -23.5t-22.5 -9.5q-14 0 -23.5 10t-9.5 23zM55 383q0 13 9.5 22.5t23.5 9.5t23 -9.5t9 -22.5q0 -14 -9.5 -23.5t-22.5 -9.5q-14 0 -23.5 10t-9.5 23zM173 206q0 13 9.5 22.5t23.5 9.5t23 -9t9 -23t-9.5 -23.5t-22.5 -9.5q-14 0 -23.5 9.5t-9.5 23.5zM173 501 q0 13 9.5 22.5t23.5 9.5t23 -9.5t9 -22.5q0 -14 -9.5 -23.5t-22.5 -9.5q-14 0 -23.5 10t-9.5 23zM232 619q0 13 9.5 22.5t23.5 9.5q13 0 22.5 -9.5t9.5 -22.5q0 -14 -9.5 -23.5t-22.5 -9.5t-23 10t-10 23zM291 206q0 13 9.5 22.5t23.5 9.5t23 -9t9 -23t-9.5 -23.5 t-22.5 -9.5q-14 0 -23.5 9.5t-9.5 23.5zM291 560q0 13 9.5 22.5t23.5 9.5t23 -9t9 -23t-9.5 -23.5t-22.5 -9.5q-14 0 -23.5 9.5t-9.5 23.5zM291 678q0 13 9.5 22.5t23.5 9.5t23 -9t9 -23t-9.5 -23.5t-22.5 -9.5q-14 0 -23.5 9.5t-9.5 23.5zM350 619q0 13 9.5 22.5t23.5 9.5 q13 0 22.5 -9.5t9.5 -22.5q0 -14 -9.5 -23.5t-22.5 -9.5t-23 10t-10 23zM409 206q0 13 9.5 22.5t23.5 9.5t23 -9t9 -23t-9.5 -23.5t-22.5 -9.5q-14 0 -23.5 9.5t-9.5 23.5zM409 501q0 13 9.5 22.5t23.5 9.5t23 -9.5t9 -22.5q0 -14 -9.5 -23.5t-22.5 -9.5q-14 0 -23.5 10 t-9.5 23zM527 29q0 13 9.5 22.5t23.5 9.5t23 -9.5t9 -22.5q0 -14 -9.5 -23.5t-22.5 -9.5q-14 0 -23.5 10t-9.5 23zM527 147q0 13 9.5 22.5t23.5 9.5t23 -9.5t9 -22.5q0 -14 -9.5 -23.5t-22.5 -9.5q-14 0 -23.5 10t-9.5 23zM527 265q0 13 9.5 22.5t23.5 9.5t23 -9.5t9 -22.5 q0 -14 -9.5 -23.5t-22.5 -9.5q-14 0 -23.5 10t-9.5 23zM527 383q0 13 9.5 22.5t23.5 9.5t23 -9.5t9 -22.5q0 -14 -9.5 -23.5t-22.5 -9.5q-14 0 -23.5 10t-9.5 23z" />
<glyph unicode="&#xc6;" horiz-adv-x="1121" d="M55 29q0 13 9.5 22.5t23.5 9.5t23 -9.5t9 -22.5q0 -14 -9.5 -23.5t-22.5 -9.5q-14 0 -23.5 10t-9.5 23zM55 147q0 13 9.5 22.5t23.5 9.5t23 -9.5t9 -22.5q0 -14 -9.5 -23.5t-22.5 -9.5q-14 0 -23.5 10t-9.5 23zM55 265q0 13 9.5 22.5t23.5 9.5t23 -9.5t9 -22.5 q0 -14 -9.5 -23.5t-22.5 -9.5q-14 0 -23.5 10t-9.5 23zM55 383q0 13 9.5 22.5t23.5 9.5t23 -9.5t9 -22.5q0 -14 -9.5 -23.5t-22.5 -9.5q-14 0 -23.5 10t-9.5 23zM173 206q0 13 9.5 22.5t23.5 9.5t23 -9t9 -23t-9.5 -23.5t-22.5 -9.5q-14 0 -23.5 9.5t-9.5 23.5zM173 501 q0 13 9.5 22.5t23.5 9.5t23 -9.5t9 -22.5q0 -14 -9.5 -23.5t-22.5 -9.5q-14 0 -23.5 10t-9.5 23zM291 206q0 13 9.5 22.5t23.5 9.5t23 -9t9 -23t-9.5 -23.5t-22.5 -9.5q-14 0 -23.5 9.5t-9.5 23.5zM291 501q0 13 9.5 22.5t23.5 9.5t23 -9.5t9 -22.5q0 -14 -9.5 -23.5 t-22.5 -9.5q-14 0 -23.5 10t-9.5 23zM409 206q0 13 9.5 22.5t23.5 9.5t23 -9t9 -23t-9.5 -23.5t-22.5 -9.5q-14 0 -23.5 9.5t-9.5 23.5zM409 501q0 13 9.5 22.5t23.5 9.5t23 -9.5t9 -22.5q0 -14 -9.5 -23.5t-22.5 -9.5q-14 0 -23.5 10t-9.5 23zM527 147q0 13 9.5 22.5 t23.5 9.5t23 -9.5t9 -22.5q0 -14 -9.5 -23.5t-22.5 -9.5q-14 0 -23.5 10t-9.5 23zM527 265q0 13 9.5 22.5t23.5 9.5t23 -9.5t9 -22.5q0 -14 -9.5 -23.5t-22.5 -9.5q-14 0 -23.5 10t-9.5 23zM527 383q0 13 9.5 22.5t23.5 9.5t23 -9.5t9 -22.5q0 -14 -9.5 -23.5t-22.5 -9.5 q-14 0 -23.5 10t-9.5 23zM645 29q0 13 9.5 22.5t23.5 9.5t23 -9.5t9 -22.5q0 -14 -9.5 -23.5t-22.5 -9.5q-14 0 -23.5 10t-9.5 23zM645 265q0 13 9.5 22.5t23.5 9.5t23 -9.5t9 -22.5q0 -14 -9.5 -23.5t-22.5 -9.5q-14 0 -23.5 10t-9.5 23zM645 501q0 13 9.5 22.5t23.5 9.5 t23 -9.5t9 -22.5q0 -14 -9.5 -23.5t-22.5 -9.5q-14 0 -23.5 10t-9.5 23zM763 29q0 13 9.5 22.5t23.5 9.5t23 -9.5t9 -22.5q0 -14 -9.5 -23.5t-22.5 -9.5q-14 0 -23.5 10t-9.5 23zM763 265q0 13 9.5 22.5t23.5 9.5t23 -9.5t9 -22.5q0 -14 -9.5 -23.5t-22.5 -9.5 q-14 0 -23.5 10t-9.5 23zM763 501q0 13 9.5 22.5t23.5 9.5t23 -9.5t9 -22.5q0 -14 -9.5 -23.5t-22.5 -9.5q-14 0 -23.5 10t-9.5 23zM881 29q0 13 9.5 22.5t23.5 9.5t23 -9.5t9 -22.5q0 -14 -9.5 -23.5t-22.5 -9.5q-14 0 -23.5 10t-9.5 23zM881 265q0 13 9.5 22.5t23.5 9.5 t23 -9.5t9 -22.5q0 -14 -9.5 -23.5t-22.5 -9.5q-14 0 -23.5 10t-9.5 23zM881 501q0 13 9.5 22.5t23.5 9.5t23 -9.5t9 -22.5q0 -14 -9.5 -23.5t-22.5 -9.5q-14 0 -23.5 10t-9.5 23zM999 29q0 13 9.5 22.5t23.5 9.5t23 -9.5t9 -22.5q0 -14 -9.5 -23.5t-22.5 -9.5 q-14 0 -23.5 10t-9.5 23zM999 501q0 13 9.5 22.5t23.5 9.5t23 -9.5t9 -22.5q0 -14 -9.5 -23.5t-22.5 -9.5q-14 0 -23.5 10t-9.5 23z" />
<glyph unicode="&#xc7;" horiz-adv-x="590" d="M55 206q0 13 9.5 22.5t23.5 9.5t23 -9t9 -23t-9.5 -23.5t-22.5 -9.5q-14 0 -23.5 9.5t-9.5 23.5zM55 324q0 13 9.5 22.5t23.5 9.5t23 -9t9 -23t-9.5 -23.5t-22.5 -9.5q-14 0 -23.5 9.5t-9.5 23.5zM114 88q0 13 9.5 22.5t23.5 9.5q13 0 22.5 -9t9.5 -23t-9.5 -23.5 t-22.5 -9.5t-23 9.5t-10 23.5zM114 442q0 13 9.5 22.5t23.5 9.5q13 0 22.5 -9t9.5 -23t-9.5 -23.5t-22.5 -9.5t-23 9.5t-10 23.5zM173 -148q0 13 9.5 22.5t23.5 9.5t23 -9t9 -23t-9.5 -23.5t-22.5 -9.5q-14 0 -23.5 9.5t-9.5 23.5zM232 29q0 13 9.5 22.5t23.5 9.5 q13 0 22.5 -9.5t9.5 -22.5q0 -14 -9.5 -23.5t-22.5 -9.5t-23 10t-10 23zM232 501q0 13 9.5 22.5t23.5 9.5q13 0 22.5 -9.5t9.5 -22.5q0 -14 -9.5 -23.5t-22.5 -9.5t-23 10t-10 23zM291 -89q0 13 9.5 22.5t23.5 9.5t23 -9.5t9 -22.5q0 -14 -9.5 -23.5t-22.5 -9.5 q-14 0 -23.5 10t-9.5 23zM350 29q0 13 9.5 22.5t23.5 9.5q13 0 22.5 -9.5t9.5 -22.5q0 -14 -9.5 -23.5t-22.5 -9.5t-23 10t-10 23zM350 501q0 13 9.5 22.5t23.5 9.5q13 0 22.5 -9.5t9.5 -22.5q0 -14 -9.5 -23.5t-22.5 -9.5t-23 10t-10 23zM468 88q0 13 9.5 22.5t23.5 9.5 q13 0 22.5 -9t9.5 -23t-9.5 -23.5t-22.5 -9.5t-23 9.5t-10 23.5zM468 442q0 13 9.5 22.5t23.5 9.5q13 0 22.5 -9t9.5 -23t-9.5 -23.5t-22.5 -9.5t-23 9.5t-10 23.5z" />
<glyph unicode="&#xc8;" d="M55 147q0 13 9.5 22.5t23.5 9.5t23 -9.5t9 -22.5q0 -14 -9.5 -23.5t-22.5 -9.5q-14 0 -23.5 10t-9.5 23zM55 265q0 13 9.5 22.5t23.5 9.5t23 -9.5t9 -22.5q0 -14 -9.5 -23.5t-22.5 -9.5q-14 0 -23.5 10t-9.5 23zM55 383q0 13 9.5 22.5t23.5 9.5t23 -9.5t9 -22.5 q0 -14 -9.5 -23.5t-22.5 -9.5q-14 0 -23.5 10t-9.5 23zM173 29q0 13 9.5 22.5t23.5 9.5t23 -9.5t9 -22.5q0 -14 -9.5 -23.5t-22.5 -9.5q-14 0 -23.5 10t-9.5 23zM173 265q0 13 9.5 22.5t23.5 9.5t23 -9.5t9 -22.5q0 -14 -9.5 -23.5t-22.5 -9.5q-14 0 -23.5 10t-9.5 23z M173 501q0 13 9.5 22.5t23.5 9.5t23 -9.5t9 -22.5q0 -14 -9.5 -23.5t-22.5 -9.5q-14 0 -23.5 10t-9.5 23zM232 678q0 13 9.5 22.5t23.5 9.5q13 0 22.5 -9t9.5 -23t-9.5 -23.5t-22.5 -9.5t-23 9.5t-10 23.5zM291 29q0 13 9.5 22.5t23.5 9.5t23 -9.5t9 -22.5q0 -14 -9.5 -23.5 t-22.5 -9.5q-14 0 -23.5 10t-9.5 23zM291 265q0 13 9.5 22.5t23.5 9.5t23 -9.5t9 -22.5q0 -14 -9.5 -23.5t-22.5 -9.5q-14 0 -23.5 10t-9.5 23zM291 501q0 13 9.5 22.5t23.5 9.5t23 -9.5t9 -22.5q0 -14 -9.5 -23.5t-22.5 -9.5q-14 0 -23.5 10t-9.5 23zM350 619 q0 13 9.5 22.5t23.5 9.5q13 0 22.5 -9.5t9.5 -22.5q0 -14 -9.5 -23.5t-22.5 -9.5t-23 10t-10 23zM409 29q0 13 9.5 22.5t23.5 9.5t23 -9.5t9 -22.5q0 -14 -9.5 -23.5t-22.5 -9.5q-14 0 -23.5 10t-9.5 23zM409 265q0 13 9.5 22.5t23.5 9.5t23 -9.5t9 -22.5q0 -14 -9.5 -23.5 t-22.5 -9.5q-14 0 -23.5 10t-9.5 23zM409 501q0 13 9.5 22.5t23.5 9.5t23 -9.5t9 -22.5q0 -14 -9.5 -23.5t-22.5 -9.5q-14 0 -23.5 10t-9.5 23zM527 29q0 13 9.5 22.5t23.5 9.5t23 -9.5t9 -22.5q0 -14 -9.5 -23.5t-22.5 -9.5q-14 0 -23.5 10t-9.5 23zM527 501q0 13 9.5 22.5 t23.5 9.5t23 -9.5t9 -22.5q0 -14 -9.5 -23.5t-22.5 -9.5q-14 0 -23.5 10t-9.5 23z" />
<glyph unicode="&#xc9;" d="M55 147q0 13 9.5 22.5t23.5 9.5t23 -9.5t9 -22.5q0 -14 -9.5 -23.5t-22.5 -9.5q-14 0 -23.5 10t-9.5 23zM55 265q0 13 9.5 22.5t23.5 9.5t23 -9.5t9 -22.5q0 -14 -9.5 -23.5t-22.5 -9.5q-14 0 -23.5 10t-9.5 23zM55 383q0 13 9.5 22.5t23.5 9.5t23 -9.5t9 -22.5 q0 -14 -9.5 -23.5t-22.5 -9.5q-14 0 -23.5 10t-9.5 23zM173 29q0 13 9.5 22.5t23.5 9.5t23 -9.5t9 -22.5q0 -14 -9.5 -23.5t-22.5 -9.5q-14 0 -23.5 10t-9.5 23zM173 265q0 13 9.5 22.5t23.5 9.5t23 -9.5t9 -22.5q0 -14 -9.5 -23.5t-22.5 -9.5q-14 0 -23.5 10t-9.5 23z M173 501q0 13 9.5 22.5t23.5 9.5t23 -9.5t9 -22.5q0 -14 -9.5 -23.5t-22.5 -9.5q-14 0 -23.5 10t-9.5 23zM291 29q0 13 9.5 22.5t23.5 9.5t23 -9.5t9 -22.5q0 -14 -9.5 -23.5t-22.5 -9.5q-14 0 -23.5 10t-9.5 23zM291 265q0 13 9.5 22.5t23.5 9.5t23 -9.5t9 -22.5 q0 -14 -9.5 -23.5t-22.5 -9.5q-14 0 -23.5 10t-9.5 23zM291 501q0 13 9.5 22.5t23.5 9.5t23 -9.5t9 -22.5q0 -14 -9.5 -23.5t-22.5 -9.5q-14 0 -23.5 10t-9.5 23zM291 619q0 13 9.5 22.5t23.5 9.5t23 -9.5t9 -22.5q0 -14 -9.5 -23.5t-22.5 -9.5q-14 0 -23.5 10t-9.5 23z M409 29q0 13 9.5 22.5t23.5 9.5t23 -9.5t9 -22.5q0 -14 -9.5 -23.5t-22.5 -9.5q-14 0 -23.5 10t-9.5 23zM409 265q0 13 9.5 22.5t23.5 9.5t23 -9.5t9 -22.5q0 -14 -9.5 -23.5t-22.5 -9.5q-14 0 -23.5 10t-9.5 23zM409 501q0 13 9.5 22.5t23.5 9.5t23 -9.5t9 -22.5 q0 -14 -9.5 -23.5t-22.5 -9.5q-14 0 -23.5 10t-9.5 23zM409 678q0 13 9.5 22.5t23.5 9.5t23 -9t9 -23t-9.5 -23.5t-22.5 -9.5q-14 0 -23.5 9.5t-9.5 23.5zM527 29q0 13 9.5 22.5t23.5 9.5t23 -9.5t9 -22.5q0 -14 -9.5 -23.5t-22.5 -9.5q-14 0 -23.5 10t-9.5 23zM527 501 q0 13 9.5 22.5t23.5 9.5t23 -9.5t9 -22.5q0 -14 -9.5 -23.5t-22.5 -9.5q-14 0 -23.5 10t-9.5 23z" />
<glyph unicode="&#xca;" d="M55 147q0 13 9.5 22.5t23.5 9.5t23 -9.5t9 -22.5q0 -14 -9.5 -23.5t-22.5 -9.5q-14 0 -23.5 10t-9.5 23zM55 265q0 13 9.5 22.5t23.5 9.5t23 -9.5t9 -22.5q0 -14 -9.5 -23.5t-22.5 -9.5q-14 0 -23.5 10t-9.5 23zM55 383q0 13 9.5 22.5t23.5 9.5t23 -9.5t9 -22.5 q0 -14 -9.5 -23.5t-22.5 -9.5q-14 0 -23.5 10t-9.5 23zM173 29q0 13 9.5 22.5t23.5 9.5t23 -9.5t9 -22.5q0 -14 -9.5 -23.5t-22.5 -9.5q-14 0 -23.5 10t-9.5 23zM173 265q0 13 9.5 22.5t23.5 9.5t23 -9.5t9 -22.5q0 -14 -9.5 -23.5t-22.5 -9.5q-14 0 -23.5 10t-9.5 23z M173 501q0 13 9.5 22.5t23.5 9.5t23 -9.5t9 -22.5q0 -14 -9.5 -23.5t-22.5 -9.5q-14 0 -23.5 10t-9.5 23zM232 619q0 13 9.5 22.5t23.5 9.5q13 0 22.5 -9.5t9.5 -22.5q0 -14 -9.5 -23.5t-22.5 -9.5t-23 10t-10 23zM291 29q0 13 9.5 22.5t23.5 9.5t23 -9.5t9 -22.5 q0 -14 -9.5 -23.5t-22.5 -9.5q-14 0 -23.5 10t-9.5 23zM291 265q0 13 9.5 22.5t23.5 9.5t23 -9.5t9 -22.5q0 -14 -9.5 -23.5t-22.5 -9.5q-14 0 -23.5 10t-9.5 23zM291 501q0 13 9.5 22.5t23.5 9.5t23 -9.5t9 -22.5q0 -14 -9.5 -23.5t-22.5 -9.5q-14 0 -23.5 10t-9.5 23z M350 678q0 13 9.5 22.5t23.5 9.5q13 0 22.5 -9t9.5 -23t-9.5 -23.5t-22.5 -9.5t-23 9.5t-10 23.5zM409 29q0 13 9.5 22.5t23.5 9.5t23 -9.5t9 -22.5q0 -14 -9.5 -23.5t-22.5 -9.5q-14 0 -23.5 10t-9.5 23zM409 265q0 13 9.5 22.5t23.5 9.5t23 -9.5t9 -22.5q0 -14 -9.5 -23.5 t-22.5 -9.5q-14 0 -23.5 10t-9.5 23zM409 501q0 13 9.5 22.5t23.5 9.5t23 -9.5t9 -22.5q0 -14 -9.5 -23.5t-22.5 -9.5q-14 0 -23.5 10t-9.5 23zM468 619q0 13 9.5 22.5t23.5 9.5q13 0 22.5 -9.5t9.5 -22.5q0 -14 -9.5 -23.5t-22.5 -9.5t-23 10t-10 23zM527 29q0 13 9.5 22.5 t23.5 9.5t23 -9.5t9 -22.5q0 -14 -9.5 -23.5t-22.5 -9.5q-14 0 -23.5 10t-9.5 23zM527 501q0 13 9.5 22.5t23.5 9.5t23 -9.5t9 -22.5q0 -14 -9.5 -23.5t-22.5 -9.5q-14 0 -23.5 10t-9.5 23z" />
<glyph unicode="&#xcb;" d="M55 147q0 13 9.5 22.5t23.5 9.5t23 -9.5t9 -22.5q0 -14 -9.5 -23.5t-22.5 -9.5q-14 0 -23.5 10t-9.5 23zM55 265q0 13 9.5 22.5t23.5 9.5t23 -9.5t9 -22.5q0 -14 -9.5 -23.5t-22.5 -9.5q-14 0 -23.5 10t-9.5 23zM55 383q0 13 9.5 22.5t23.5 9.5t23 -9.5t9 -22.5 q0 -14 -9.5 -23.5t-22.5 -9.5q-14 0 -23.5 10t-9.5 23zM173 29q0 13 9.5 22.5t23.5 9.5t23 -9.5t9 -22.5q0 -14 -9.5 -23.5t-22.5 -9.5q-14 0 -23.5 10t-9.5 23zM173 265q0 13 9.5 22.5t23.5 9.5t23 -9.5t9 -22.5q0 -14 -9.5 -23.5t-22.5 -9.5q-14 0 -23.5 10t-9.5 23z M173 501q0 13 9.5 22.5t23.5 9.5t23 -9.5t9 -22.5q0 -14 -9.5 -23.5t-22.5 -9.5q-14 0 -23.5 10t-9.5 23zM232 678q0 13 9.5 22.5t23.5 9.5q13 0 22.5 -9t9.5 -23t-9.5 -23.5t-22.5 -9.5t-23 9.5t-10 23.5zM291 29q0 13 9.5 22.5t23.5 9.5t23 -9.5t9 -22.5q0 -14 -9.5 -23.5 t-22.5 -9.5q-14 0 -23.5 10t-9.5 23zM291 265q0 13 9.5 22.5t23.5 9.5t23 -9.5t9 -22.5q0 -14 -9.5 -23.5t-22.5 -9.5q-14 0 -23.5 10t-9.5 23zM291 501q0 13 9.5 22.5t23.5 9.5t23 -9.5t9 -22.5q0 -14 -9.5 -23.5t-22.5 -9.5q-14 0 -23.5 10t-9.5 23zM350 678 q0 13 9.5 22.5t23.5 9.5q13 0 22.5 -9t9.5 -23t-9.5 -23.5t-22.5 -9.5t-23 9.5t-10 23.5zM409 29q0 13 9.5 22.5t23.5 9.5t23 -9.5t9 -22.5q0 -14 -9.5 -23.5t-22.5 -9.5q-14 0 -23.5 10t-9.5 23zM409 265q0 13 9.5 22.5t23.5 9.5t23 -9.5t9 -22.5q0 -14 -9.5 -23.5 t-22.5 -9.5q-14 0 -23.5 10t-9.5 23zM409 501q0 13 9.5 22.5t23.5 9.5t23 -9.5t9 -22.5q0 -14 -9.5 -23.5t-22.5 -9.5q-14 0 -23.5 10t-9.5 23zM527 29q0 13 9.5 22.5t23.5 9.5t23 -9.5t9 -22.5q0 -14 -9.5 -23.5t-22.5 -9.5q-14 0 -23.5 10t-9.5 23zM527 501q0 13 9.5 22.5 t23.5 9.5t23 -9.5t9 -22.5q0 -14 -9.5 -23.5t-22.5 -9.5q-14 0 -23.5 10t-9.5 23z" />
<glyph unicode="&#xcc;" horiz-adv-x="236" d="M55 678q0 13 9.5 22.5t23.5 9.5t23 -9t9 -23t-9.5 -23.5t-22.5 -9.5q-14 0 -23.5 9.5t-9.5 23.5zM114 29q0 13 9.5 22.5t23.5 9.5q13 0 22.5 -9.5t9.5 -22.5q0 -14 -9.5 -23.5t-22.5 -9.5t-23 10t-10 23zM114 147q0 13 9.5 22.5t23.5 9.5q13 0 22.5 -9.5t9.5 -22.5 q0 -14 -9.5 -23.5t-22.5 -9.5t-23 10t-10 23zM114 265q0 13 9.5 22.5t23.5 9.5q13 0 22.5 -9.5t9.5 -22.5q0 -14 -9.5 -23.5t-22.5 -9.5t-23 10t-10 23zM114 383q0 13 9.5 22.5t23.5 9.5q13 0 22.5 -9.5t9.5 -22.5q0 -14 -9.5 -23.5t-22.5 -9.5t-23 10t-10 23zM114 501 q0 13 9.5 22.5t23.5 9.5q13 0 22.5 -9.5t9.5 -22.5q0 -14 -9.5 -23.5t-22.5 -9.5t-23 10t-10 23zM114 619q0 13 9.5 22.5t23.5 9.5q13 0 22.5 -9.5t9.5 -22.5q0 -14 -9.5 -23.5t-22.5 -9.5t-23 10t-10 23z" />
<glyph unicode="&#xcd;" horiz-adv-x="236" d="M55 29q0 13 9.5 22.5t23.5 9.5t23 -9.5t9 -22.5q0 -14 -9.5 -23.5t-22.5 -9.5q-14 0 -23.5 10t-9.5 23zM55 147q0 13 9.5 22.5t23.5 9.5t23 -9.5t9 -22.5q0 -14 -9.5 -23.5t-22.5 -9.5q-14 0 -23.5 10t-9.5 23zM55 265q0 13 9.5 22.5t23.5 9.5t23 -9.5t9 -22.5 q0 -14 -9.5 -23.5t-22.5 -9.5q-14 0 -23.5 10t-9.5 23zM55 383q0 13 9.5 22.5t23.5 9.5t23 -9.5t9 -22.5q0 -14 -9.5 -23.5t-22.5 -9.5q-14 0 -23.5 10t-9.5 23zM55 501q0 13 9.5 22.5t23.5 9.5t23 -9.5t9 -22.5q0 -14 -9.5 -23.5t-22.5 -9.5q-14 0 -23.5 10t-9.5 23z M55 619q0 13 9.5 22.5t23.5 9.5t23 -9.5t9 -22.5q0 -14 -9.5 -23.5t-22.5 -9.5q-14 0 -23.5 10t-9.5 23zM114 678q0 13 9.5 22.5t23.5 9.5q13 0 22.5 -9t9.5 -23t-9.5 -23.5t-22.5 -9.5t-23 9.5t-10 23.5z" />
<glyph unicode="&#xce;" horiz-adv-x="295" d="M55 619q0 13 9.5 22.5t23.5 9.5t23 -9.5t9 -22.5q0 -14 -9.5 -23.5t-22.5 -9.5q-14 0 -23.5 10t-9.5 23zM114 29q0 13 9.5 22.5t23.5 9.5q13 0 22.5 -9.5t9.5 -22.5q0 -14 -9.5 -23.5t-22.5 -9.5t-23 10t-10 23zM114 147q0 13 9.5 22.5t23.5 9.5q13 0 22.5 -9.5 t9.5 -22.5q0 -14 -9.5 -23.5t-22.5 -9.5t-23 10t-10 23zM114 265q0 13 9.5 22.5t23.5 9.5q13 0 22.5 -9.5t9.5 -22.5q0 -14 -9.5 -23.5t-22.5 -9.5t-23 10t-10 23zM114 383q0 13 9.5 22.5t23.5 9.5q13 0 22.5 -9.5t9.5 -22.5q0 -14 -9.5 -23.5t-22.5 -9.5t-23 10t-10 23z M114 501q0 13 9.5 22.5t23.5 9.5q13 0 22.5 -9.5t9.5 -22.5q0 -14 -9.5 -23.5t-22.5 -9.5t-23 10t-10 23zM114 678q0 13 9.5 22.5t23.5 9.5q13 0 22.5 -9t9.5 -23t-9.5 -23.5t-22.5 -9.5t-23 9.5t-10 23.5zM173 619q0 13 9.5 22.5t23.5 9.5t23 -9.5t9 -22.5 q0 -14 -9.5 -23.5t-22.5 -9.5q-14 0 -23.5 10t-9.5 23z" />
<glyph unicode="&#xcf;" horiz-adv-x="177" d="M-4 678q0 13 9.5 22.5t23.5 9.5q13 0 22.5 -9t9.5 -23t-9.5 -23.5t-22.5 -9.5t-23 9.5t-10 23.5zM55 29q0 13 9.5 22.5t23.5 9.5t23 -9.5t9 -22.5q0 -14 -9.5 -23.5t-22.5 -9.5q-14 0 -23.5 10t-9.5 23zM55 147q0 13 9.5 22.5t23.5 9.5t23 -9.5t9 -22.5q0 -14 -9.5 -23.5 t-22.5 -9.5q-14 0 -23.5 10t-9.5 23zM55 265q0 13 9.5 22.5t23.5 9.5t23 -9.5t9 -22.5q0 -14 -9.5 -23.5t-22.5 -9.5q-14 0 -23.5 10t-9.5 23zM55 383q0 13 9.5 22.5t23.5 9.5t23 -9.5t9 -22.5q0 -14 -9.5 -23.5t-22.5 -9.5q-14 0 -23.5 10t-9.5 23zM55 501q0 13 9.5 22.5 t23.5 9.5t23 -9.5t9 -22.5q0 -14 -9.5 -23.5t-22.5 -9.5q-14 0 -23.5 10t-9.5 23zM114 678q0 13 9.5 22.5t23.5 9.5q13 0 22.5 -9t9.5 -23t-9.5 -23.5t-22.5 -9.5t-23 9.5t-10 23.5z" />
<glyph unicode="&#xd0;" d="M-4 265q0 13 9.5 22.5t23.5 9.5q13 0 22.5 -9.5t9.5 -22.5q0 -14 -9.5 -23.5t-22.5 -9.5t-23 10t-10 23zM114 29q0 13 9.5 22.5t23.5 9.5q13 0 22.5 -9.5t9.5 -22.5q0 -14 -9.5 -23.5t-22.5 -9.5t-23 10t-10 23zM114 147q0 13 9.5 22.5t23.5 9.5q13 0 22.5 -9.5 t9.5 -22.5q0 -14 -9.5 -23.5t-22.5 -9.5t-23 10t-10 23zM114 265q0 13 9.5 22.5t23.5 9.5q13 0 22.5 -9.5t9.5 -22.5q0 -14 -9.5 -23.5t-22.5 -9.5t-23 10t-10 23zM114 383q0 13 9.5 22.5t23.5 9.5q13 0 22.5 -9.5t9.5 -22.5q0 -14 -9.5 -23.5t-22.5 -9.5t-23 10t-10 23z M114 501q0 13 9.5 22.5t23.5 9.5q13 0 22.5 -9.5t9.5 -22.5q0 -14 -9.5 -23.5t-22.5 -9.5t-23 10t-10 23zM232 29q0 13 9.5 22.5t23.5 9.5q13 0 22.5 -9.5t9.5 -22.5q0 -14 -9.5 -23.5t-22.5 -9.5t-23 10t-10 23zM232 265q0 13 9.5 22.5t23.5 9.5q13 0 22.5 -9.5t9.5 -22.5 q0 -14 -9.5 -23.5t-22.5 -9.5t-23 10t-10 23zM232 501q0 13 9.5 22.5t23.5 9.5q13 0 22.5 -9.5t9.5 -22.5q0 -14 -9.5 -23.5t-22.5 -9.5t-23 10t-10 23zM350 29q0 13 9.5 22.5t23.5 9.5q13 0 22.5 -9.5t9.5 -22.5q0 -14 -9.5 -23.5t-22.5 -9.5t-23 10t-10 23zM350 501 q0 13 9.5 22.5t23.5 9.5q13 0 22.5 -9.5t9.5 -22.5q0 -14 -9.5 -23.5t-22.5 -9.5t-23 10t-10 23zM468 88q0 13 9.5 22.5t23.5 9.5q13 0 22.5 -9t9.5 -23t-9.5 -23.5t-22.5 -9.5t-23 9.5t-10 23.5zM468 442q0 13 9.5 22.5t23.5 9.5q13 0 22.5 -9t9.5 -23t-9.5 -23.5 t-22.5 -9.5t-23 9.5t-10 23.5zM527 206q0 13 9.5 22.5t23.5 9.5t23 -9t9 -23t-9.5 -23.5t-22.5 -9.5q-14 0 -23.5 9.5t-9.5 23.5zM527 324q0 13 9.5 22.5t23.5 9.5t23 -9t9 -23t-9.5 -23.5t-22.5 -9.5q-14 0 -23.5 9.5t-9.5 23.5z" />
<glyph unicode="&#xd1;" d="M55 29q0 13 9.5 22.5t23.5 9.5t23 -9.5t9 -22.5q0 -14 -9.5 -23.5t-22.5 -9.5q-14 0 -23.5 10t-9.5 23zM55 147q0 13 9.5 22.5t23.5 9.5t23 -9.5t9 -22.5q0 -14 -9.5 -23.5t-22.5 -9.5q-14 0 -23.5 10t-9.5 23zM55 265q0 13 9.5 22.5t23.5 9.5t23 -9.5t9 -22.5 q0 -14 -9.5 -23.5t-22.5 -9.5q-14 0 -23.5 10t-9.5 23zM55 383q0 13 9.5 22.5t23.5 9.5t23 -9.5t9 -22.5q0 -14 -9.5 -23.5t-22.5 -9.5q-14 0 -23.5 10t-9.5 23zM173 501q0 13 9.5 22.5t23.5 9.5t23 -9.5t9 -22.5q0 -14 -9.5 -23.5t-22.5 -9.5q-14 0 -23.5 10t-9.5 23z M173 619q0 13 9.5 22.5t23.5 9.5t23 -9.5t9 -22.5q0 -14 -9.5 -23.5t-22.5 -9.5q-14 0 -23.5 10t-9.5 23zM232 678q0 13 9.5 22.5t23.5 9.5q13 0 22.5 -9t9.5 -23t-9.5 -23.5t-22.5 -9.5t-23 9.5t-10 23.5zM291 501q0 13 9.5 22.5t23.5 9.5t23 -9.5t9 -22.5 q0 -14 -9.5 -23.5t-22.5 -9.5q-14 0 -23.5 10t-9.5 23zM291 619q0 13 9.5 22.5t23.5 9.5t23 -9.5t9 -22.5q0 -14 -9.5 -23.5t-22.5 -9.5q-14 0 -23.5 10t-9.5 23zM350 678q0 13 9.5 22.5t23.5 9.5q13 0 22.5 -9t9.5 -23t-9.5 -23.5t-22.5 -9.5t-23 9.5t-10 23.5zM409 501 q0 13 9.5 22.5t23.5 9.5t23 -9.5t9 -22.5q0 -14 -9.5 -23.5t-22.5 -9.5q-14 0 -23.5 10t-9.5 23zM527 29q0 13 9.5 22.5t23.5 9.5t23 -9.5t9 -22.5q0 -14 -9.5 -23.5t-22.5 -9.5q-14 0 -23.5 10t-9.5 23zM527 147q0 13 9.5 22.5t23.5 9.5t23 -9.5t9 -22.5q0 -14 -9.5 -23.5 t-22.5 -9.5q-14 0 -23.5 10t-9.5 23zM527 265q0 13 9.5 22.5t23.5 9.5t23 -9.5t9 -22.5q0 -14 -9.5 -23.5t-22.5 -9.5q-14 0 -23.5 10t-9.5 23zM527 383q0 13 9.5 22.5t23.5 9.5t23 -9.5t9 -22.5q0 -14 -9.5 -23.5t-22.5 -9.5q-14 0 -23.5 10t-9.5 23z" />
<glyph unicode="&#xd2;" d="M55 206q0 13 9.5 22.5t23.5 9.5t23 -9t9 -23t-9.5 -23.5t-22.5 -9.5q-14 0 -23.5 9.5t-9.5 23.5zM55 324q0 13 9.5 22.5t23.5 9.5t23 -9t9 -23t-9.5 -23.5t-22.5 -9.5q-14 0 -23.5 9.5t-9.5 23.5zM114 88q0 13 9.5 22.5t23.5 9.5q13 0 22.5 -9t9.5 -23t-9.5 -23.5 t-22.5 -9.5t-23 9.5t-10 23.5zM114 442q0 13 9.5 22.5t23.5 9.5q13 0 22.5 -9t9.5 -23t-9.5 -23.5t-22.5 -9.5t-23 9.5t-10 23.5zM232 29q0 13 9.5 22.5t23.5 9.5q13 0 22.5 -9.5t9.5 -22.5q0 -14 -9.5 -23.5t-22.5 -9.5t-23 10t-10 23zM232 501q0 13 9.5 22.5t23.5 9.5 q13 0 22.5 -9.5t9.5 -22.5q0 -14 -9.5 -23.5t-22.5 -9.5t-23 10t-10 23zM232 678q0 13 9.5 22.5t23.5 9.5q13 0 22.5 -9t9.5 -23t-9.5 -23.5t-22.5 -9.5t-23 9.5t-10 23.5zM350 29q0 13 9.5 22.5t23.5 9.5q13 0 22.5 -9.5t9.5 -22.5q0 -14 -9.5 -23.5t-22.5 -9.5t-23 10 t-10 23zM350 501q0 13 9.5 22.5t23.5 9.5q13 0 22.5 -9.5t9.5 -22.5q0 -14 -9.5 -23.5t-22.5 -9.5t-23 10t-10 23zM350 619q0 13 9.5 22.5t23.5 9.5q13 0 22.5 -9.5t9.5 -22.5q0 -14 -9.5 -23.5t-22.5 -9.5t-23 10t-10 23zM468 88q0 13 9.5 22.5t23.5 9.5q13 0 22.5 -9 t9.5 -23t-9.5 -23.5t-22.5 -9.5t-23 9.5t-10 23.5zM468 442q0 13 9.5 22.5t23.5 9.5q13 0 22.5 -9t9.5 -23t-9.5 -23.5t-22.5 -9.5t-23 9.5t-10 23.5zM527 206q0 13 9.5 22.5t23.5 9.5t23 -9t9 -23t-9.5 -23.5t-22.5 -9.5q-14 0 -23.5 9.5t-9.5 23.5zM527 324q0 13 9.5 22.5 t23.5 9.5t23 -9t9 -23t-9.5 -23.5t-22.5 -9.5q-14 0 -23.5 9.5t-9.5 23.5z" />
<glyph unicode="&#xd3;" d="M55 206q0 13 9.5 22.5t23.5 9.5t23 -9t9 -23t-9.5 -23.5t-22.5 -9.5q-14 0 -23.5 9.5t-9.5 23.5zM55 324q0 13 9.5 22.5t23.5 9.5t23 -9t9 -23t-9.5 -23.5t-22.5 -9.5q-14 0 -23.5 9.5t-9.5 23.5zM114 88q0 13 9.5 22.5t23.5 9.5q13 0 22.5 -9t9.5 -23t-9.5 -23.5 t-22.5 -9.5t-23 9.5t-10 23.5zM114 442q0 13 9.5 22.5t23.5 9.5q13 0 22.5 -9t9.5 -23t-9.5 -23.5t-22.5 -9.5t-23 9.5t-10 23.5zM232 29q0 13 9.5 22.5t23.5 9.5q13 0 22.5 -9.5t9.5 -22.5q0 -14 -9.5 -23.5t-22.5 -9.5t-23 10t-10 23zM232 501q0 13 9.5 22.5t23.5 9.5 q13 0 22.5 -9.5t9.5 -22.5q0 -14 -9.5 -23.5t-22.5 -9.5t-23 10t-10 23zM232 619q0 13 9.5 22.5t23.5 9.5q13 0 22.5 -9.5t9.5 -22.5q0 -14 -9.5 -23.5t-22.5 -9.5t-23 10t-10 23zM350 29q0 13 9.5 22.5t23.5 9.5q13 0 22.5 -9.5t9.5 -22.5q0 -14 -9.5 -23.5t-22.5 -9.5 t-23 10t-10 23zM350 501q0 13 9.5 22.5t23.5 9.5q13 0 22.5 -9.5t9.5 -22.5q0 -14 -9.5 -23.5t-22.5 -9.5t-23 10t-10 23zM350 678q0 13 9.5 22.5t23.5 9.5q13 0 22.5 -9t9.5 -23t-9.5 -23.5t-22.5 -9.5t-23 9.5t-10 23.5zM468 88q0 13 9.5 22.5t23.5 9.5q13 0 22.5 -9 t9.5 -23t-9.5 -23.5t-22.5 -9.5t-23 9.5t-10 23.5zM468 442q0 13 9.5 22.5t23.5 9.5q13 0 22.5 -9t9.5 -23t-9.5 -23.5t-22.5 -9.5t-23 9.5t-10 23.5zM527 206q0 13 9.5 22.5t23.5 9.5t23 -9t9 -23t-9.5 -23.5t-22.5 -9.5q-14 0 -23.5 9.5t-9.5 23.5zM527 324q0 13 9.5 22.5 t23.5 9.5t23 -9t9 -23t-9.5 -23.5t-22.5 -9.5q-14 0 -23.5 9.5t-9.5 23.5z" />
<glyph unicode="&#xd4;" d="M55 206q0 13 9.5 22.5t23.5 9.5t23 -9t9 -23t-9.5 -23.5t-22.5 -9.5q-14 0 -23.5 9.5t-9.5 23.5zM55 324q0 13 9.5 22.5t23.5 9.5t23 -9t9 -23t-9.5 -23.5t-22.5 -9.5q-14 0 -23.5 9.5t-9.5 23.5zM114 88q0 13 9.5 22.5t23.5 9.5q13 0 22.5 -9t9.5 -23t-9.5 -23.5 t-22.5 -9.5t-23 9.5t-10 23.5zM114 442q0 13 9.5 22.5t23.5 9.5q13 0 22.5 -9t9.5 -23t-9.5 -23.5t-22.5 -9.5t-23 9.5t-10 23.5zM173 619q0 13 9.5 22.5t23.5 9.5t23 -9.5t9 -22.5q0 -14 -9.5 -23.5t-22.5 -9.5q-14 0 -23.5 10t-9.5 23zM232 29q0 13 9.5 22.5t23.5 9.5 q13 0 22.5 -9.5t9.5 -22.5q0 -14 -9.5 -23.5t-22.5 -9.5t-23 10t-10 23zM232 501q0 13 9.5 22.5t23.5 9.5q13 0 22.5 -9.5t9.5 -22.5q0 -14 -9.5 -23.5t-22.5 -9.5t-23 10t-10 23zM291 678q0 13 9.5 22.5t23.5 9.5t23 -9t9 -23t-9.5 -23.5t-22.5 -9.5q-14 0 -23.5 9.5 t-9.5 23.5zM350 29q0 13 9.5 22.5t23.5 9.5q13 0 22.5 -9.5t9.5 -22.5q0 -14 -9.5 -23.5t-22.5 -9.5t-23 10t-10 23zM350 501q0 13 9.5 22.5t23.5 9.5q13 0 22.5 -9.5t9.5 -22.5q0 -14 -9.5 -23.5t-22.5 -9.5t-23 10t-10 23zM409 619q0 13 9.5 22.5t23.5 9.5t23 -9.5 t9 -22.5q0 -14 -9.5 -23.5t-22.5 -9.5q-14 0 -23.5 10t-9.5 23zM468 88q0 13 9.5 22.5t23.5 9.5q13 0 22.5 -9t9.5 -23t-9.5 -23.5t-22.5 -9.5t-23 9.5t-10 23.5zM468 442q0 13 9.5 22.5t23.5 9.5q13 0 22.5 -9t9.5 -23t-9.5 -23.5t-22.5 -9.5t-23 9.5t-10 23.5zM527 206 q0 13 9.5 22.5t23.5 9.5t23 -9t9 -23t-9.5 -23.5t-22.5 -9.5q-14 0 -23.5 9.5t-9.5 23.5zM527 324q0 13 9.5 22.5t23.5 9.5t23 -9t9 -23t-9.5 -23.5t-22.5 -9.5q-14 0 -23.5 9.5t-9.5 23.5z" />
<glyph unicode="&#xd5;" d="M55 206q0 13 9.5 22.5t23.5 9.5t23 -9t9 -23t-9.5 -23.5t-22.5 -9.5q-14 0 -23.5 9.5t-9.5 23.5zM55 324q0 13 9.5 22.5t23.5 9.5t23 -9t9 -23t-9.5 -23.5t-22.5 -9.5q-14 0 -23.5 9.5t-9.5 23.5zM114 88q0 13 9.5 22.5t23.5 9.5q13 0 22.5 -9t9.5 -23t-9.5 -23.5 t-22.5 -9.5t-23 9.5t-10 23.5zM114 442q0 13 9.5 22.5t23.5 9.5q13 0 22.5 -9t9.5 -23t-9.5 -23.5t-22.5 -9.5t-23 9.5t-10 23.5zM173 619q0 13 9.5 22.5t23.5 9.5t23 -9.5t9 -22.5q0 -14 -9.5 -23.5t-22.5 -9.5q-14 0 -23.5 10t-9.5 23zM232 29q0 13 9.5 22.5t23.5 9.5 q13 0 22.5 -9.5t9.5 -22.5q0 -14 -9.5 -23.5t-22.5 -9.5t-23 10t-10 23zM232 501q0 13 9.5 22.5t23.5 9.5q13 0 22.5 -9.5t9.5 -22.5q0 -14 -9.5 -23.5t-22.5 -9.5t-23 10t-10 23zM232 678q0 13 9.5 22.5t23.5 9.5q13 0 22.5 -9t9.5 -23t-9.5 -23.5t-22.5 -9.5t-23 9.5 t-10 23.5zM291 619q0 13 9.5 22.5t23.5 9.5t23 -9.5t9 -22.5q0 -14 -9.5 -23.5t-22.5 -9.5q-14 0 -23.5 10t-9.5 23zM350 29q0 13 9.5 22.5t23.5 9.5q13 0 22.5 -9.5t9.5 -22.5q0 -14 -9.5 -23.5t-22.5 -9.5t-23 10t-10 23zM350 501q0 13 9.5 22.5t23.5 9.5q13 0 22.5 -9.5 t9.5 -22.5q0 -14 -9.5 -23.5t-22.5 -9.5t-23 10t-10 23zM350 678q0 13 9.5 22.5t23.5 9.5q13 0 22.5 -9t9.5 -23t-9.5 -23.5t-22.5 -9.5t-23 9.5t-10 23.5zM468 88q0 13 9.5 22.5t23.5 9.5q13 0 22.5 -9t9.5 -23t-9.5 -23.5t-22.5 -9.5t-23 9.5t-10 23.5zM468 442 q0 13 9.5 22.5t23.5 9.5q13 0 22.5 -9t9.5 -23t-9.5 -23.5t-22.5 -9.5t-23 9.5t-10 23.5zM527 206q0 13 9.5 22.5t23.5 9.5t23 -9t9 -23t-9.5 -23.5t-22.5 -9.5q-14 0 -23.5 9.5t-9.5 23.5zM527 324q0 13 9.5 22.5t23.5 9.5t23 -9t9 -23t-9.5 -23.5t-22.5 -9.5 q-14 0 -23.5 9.5t-9.5 23.5z" />
<glyph unicode="&#xd6;" d="M55 206q0 13 9.5 22.5t23.5 9.5t23 -9t9 -23t-9.5 -23.5t-22.5 -9.5q-14 0 -23.5 9.5t-9.5 23.5zM55 324q0 13 9.5 22.5t23.5 9.5t23 -9t9 -23t-9.5 -23.5t-22.5 -9.5q-14 0 -23.5 9.5t-9.5 23.5zM114 88q0 13 9.5 22.5t23.5 9.5q13 0 22.5 -9t9.5 -23t-9.5 -23.5 t-22.5 -9.5t-23 9.5t-10 23.5zM114 442q0 13 9.5 22.5t23.5 9.5q13 0 22.5 -9t9.5 -23t-9.5 -23.5t-22.5 -9.5t-23 9.5t-10 23.5zM232 29q0 13 9.5 22.5t23.5 9.5q13 0 22.5 -9.5t9.5 -22.5q0 -14 -9.5 -23.5t-22.5 -9.5t-23 10t-10 23zM232 501q0 13 9.5 22.5t23.5 9.5 q13 0 22.5 -9.5t9.5 -22.5q0 -14 -9.5 -23.5t-22.5 -9.5t-23 10t-10 23zM232 678q0 13 9.5 22.5t23.5 9.5q13 0 22.5 -9t9.5 -23t-9.5 -23.5t-22.5 -9.5t-23 9.5t-10 23.5zM350 29q0 13 9.5 22.5t23.5 9.5q13 0 22.5 -9.5t9.5 -22.5q0 -14 -9.5 -23.5t-22.5 -9.5t-23 10 t-10 23zM350 501q0 13 9.5 22.5t23.5 9.5q13 0 22.5 -9.5t9.5 -22.5q0 -14 -9.5 -23.5t-22.5 -9.5t-23 10t-10 23zM350 678q0 13 9.5 22.5t23.5 9.5q13 0 22.5 -9t9.5 -23t-9.5 -23.5t-22.5 -9.5t-23 9.5t-10 23.5zM468 88q0 13 9.5 22.5t23.5 9.5q13 0 22.5 -9t9.5 -23 t-9.5 -23.5t-22.5 -9.5t-23 9.5t-10 23.5zM468 442q0 13 9.5 22.5t23.5 9.5q13 0 22.5 -9t9.5 -23t-9.5 -23.5t-22.5 -9.5t-23 9.5t-10 23.5zM527 206q0 13 9.5 22.5t23.5 9.5t23 -9t9 -23t-9.5 -23.5t-22.5 -9.5q-14 0 -23.5 9.5t-9.5 23.5zM527 324q0 13 9.5 22.5 t23.5 9.5t23 -9t9 -23t-9.5 -23.5t-22.5 -9.5q-14 0 -23.5 9.5t-9.5 23.5z" />
<glyph unicode="&#xd7;" horiz-adv-x="531" d="M55 88q0 13 9.5 22.5t23.5 9.5t23 -9t9 -23t-9.5 -23.5t-22.5 -9.5q-14 0 -23.5 9.5t-9.5 23.5zM55 442q0 13 9.5 22.5t23.5 9.5t23 -9t9 -23t-9.5 -23.5t-22.5 -9.5q-14 0 -23.5 9.5t-9.5 23.5zM173 206q0 13 9.5 22.5t23.5 9.5t23 -9t9 -23t-9.5 -23.5t-22.5 -9.5 q-14 0 -23.5 9.5t-9.5 23.5zM173 324q0 13 9.5 22.5t23.5 9.5t23 -9t9 -23t-9.5 -23.5t-22.5 -9.5q-14 0 -23.5 9.5t-9.5 23.5zM291 206q0 13 9.5 22.5t23.5 9.5t23 -9t9 -23t-9.5 -23.5t-22.5 -9.5q-14 0 -23.5 9.5t-9.5 23.5zM291 324q0 13 9.5 22.5t23.5 9.5t23 -9t9 -23 t-9.5 -23.5t-22.5 -9.5q-14 0 -23.5 9.5t-9.5 23.5zM409 88q0 13 9.5 22.5t23.5 9.5t23 -9t9 -23t-9.5 -23.5t-22.5 -9.5q-14 0 -23.5 9.5t-9.5 23.5zM409 442q0 13 9.5 22.5t23.5 9.5t23 -9t9 -23t-9.5 -23.5t-22.5 -9.5q-14 0 -23.5 9.5t-9.5 23.5z" />
<glyph unicode="&#xd8;" d="M-4 -30q0 13 9.5 22.5t23.5 9.5q13 0 22.5 -9t9.5 -23t-9.5 -23.5t-22.5 -9.5t-23 9.5t-10 23.5zM55 206q0 13 9.5 22.5t23.5 9.5t23 -9t9 -23t-9.5 -23.5t-22.5 -9.5q-14 0 -23.5 9.5t-9.5 23.5zM55 324q0 13 9.5 22.5t23.5 9.5t23 -9t9 -23t-9.5 -23.5t-22.5 -9.5 q-14 0 -23.5 9.5t-9.5 23.5zM114 88q0 13 9.5 22.5t23.5 9.5q13 0 22.5 -9t9.5 -23t-9.5 -23.5t-22.5 -9.5t-23 9.5t-10 23.5zM114 442q0 13 9.5 22.5t23.5 9.5q13 0 22.5 -9t9.5 -23t-9.5 -23.5t-22.5 -9.5t-23 9.5t-10 23.5zM232 29q0 13 9.5 22.5t23.5 9.5 q13 0 22.5 -9.5t9.5 -22.5q0 -14 -9.5 -23.5t-22.5 -9.5t-23 10t-10 23zM232 206q0 13 9.5 22.5t23.5 9.5q13 0 22.5 -9t9.5 -23t-9.5 -23.5t-22.5 -9.5t-23 9.5t-10 23.5zM232 501q0 13 9.5 22.5t23.5 9.5q13 0 22.5 -9.5t9.5 -22.5q0 -14 -9.5 -23.5t-22.5 -9.5t-23 10 t-10 23zM350 29q0 13 9.5 22.5t23.5 9.5q13 0 22.5 -9.5t9.5 -22.5q0 -14 -9.5 -23.5t-22.5 -9.5t-23 10t-10 23zM350 324q0 13 9.5 22.5t23.5 9.5q13 0 22.5 -9t9.5 -23t-9.5 -23.5t-22.5 -9.5t-23 9.5t-10 23.5zM350 501q0 13 9.5 22.5t23.5 9.5q13 0 22.5 -9.5t9.5 -22.5 q0 -14 -9.5 -23.5t-22.5 -9.5t-23 10t-10 23zM468 88q0 13 9.5 22.5t23.5 9.5q13 0 22.5 -9t9.5 -23t-9.5 -23.5t-22.5 -9.5t-23 9.5t-10 23.5zM468 442q0 13 9.5 22.5t23.5 9.5q13 0 22.5 -9t9.5 -23t-9.5 -23.5t-22.5 -9.5t-23 9.5t-10 23.5zM527 206q0 13 9.5 22.5 t23.5 9.5t23 -9t9 -23t-9.5 -23.5t-22.5 -9.5q-14 0 -23.5 9.5t-9.5 23.5zM527 324q0 13 9.5 22.5t23.5 9.5t23 -9t9 -23t-9.5 -23.5t-22.5 -9.5q-14 0 -23.5 9.5t-9.5 23.5zM586 560q0 13 9.5 22.5t23.5 9.5q13 0 22.5 -9t9.5 -23t-9.5 -23.5t-22.5 -9.5t-23 9.5t-10 23.5z " />
<glyph unicode="&#xd9;" d="M55 147q0 13 9.5 22.5t23.5 9.5t23 -9.5t9 -22.5q0 -14 -9.5 -23.5t-22.5 -9.5q-14 0 -23.5 10t-9.5 23zM55 265q0 13 9.5 22.5t23.5 9.5t23 -9.5t9 -22.5q0 -14 -9.5 -23.5t-22.5 -9.5q-14 0 -23.5 10t-9.5 23zM55 383q0 13 9.5 22.5t23.5 9.5t23 -9.5t9 -22.5 q0 -14 -9.5 -23.5t-22.5 -9.5q-14 0 -23.5 10t-9.5 23zM55 501q0 13 9.5 22.5t23.5 9.5t23 -9.5t9 -22.5q0 -14 -9.5 -23.5t-22.5 -9.5q-14 0 -23.5 10t-9.5 23zM173 29q0 13 9.5 22.5t23.5 9.5t23 -9.5t9 -22.5q0 -14 -9.5 -23.5t-22.5 -9.5q-14 0 -23.5 10t-9.5 23z M232 678q0 13 9.5 22.5t23.5 9.5q13 0 22.5 -9t9.5 -23t-9.5 -23.5t-22.5 -9.5t-23 9.5t-10 23.5zM291 29q0 13 9.5 22.5t23.5 9.5t23 -9.5t9 -22.5q0 -14 -9.5 -23.5t-22.5 -9.5q-14 0 -23.5 10t-9.5 23zM350 619q0 13 9.5 22.5t23.5 9.5q13 0 22.5 -9.5t9.5 -22.5 q0 -14 -9.5 -23.5t-22.5 -9.5t-23 10t-10 23zM409 29q0 13 9.5 22.5t23.5 9.5t23 -9.5t9 -22.5q0 -14 -9.5 -23.5t-22.5 -9.5q-14 0 -23.5 10t-9.5 23zM527 147q0 13 9.5 22.5t23.5 9.5t23 -9.5t9 -22.5q0 -14 -9.5 -23.5t-22.5 -9.5q-14 0 -23.5 10t-9.5 23zM527 265 q0 13 9.5 22.5t23.5 9.5t23 -9.5t9 -22.5q0 -14 -9.5 -23.5t-22.5 -9.5q-14 0 -23.5 10t-9.5 23zM527 383q0 13 9.5 22.5t23.5 9.5t23 -9.5t9 -22.5q0 -14 -9.5 -23.5t-22.5 -9.5q-14 0 -23.5 10t-9.5 23zM527 501q0 13 9.5 22.5t23.5 9.5t23 -9.5t9 -22.5q0 -14 -9.5 -23.5 t-22.5 -9.5q-14 0 -23.5 10t-9.5 23z" />
<glyph unicode="&#xda;" d="M55 147q0 13 9.5 22.5t23.5 9.5t23 -9.5t9 -22.5q0 -14 -9.5 -23.5t-22.5 -9.5q-14 0 -23.5 10t-9.5 23zM55 265q0 13 9.5 22.5t23.5 9.5t23 -9.5t9 -22.5q0 -14 -9.5 -23.5t-22.5 -9.5q-14 0 -23.5 10t-9.5 23zM55 383q0 13 9.5 22.5t23.5 9.5t23 -9.5t9 -22.5 q0 -14 -9.5 -23.5t-22.5 -9.5q-14 0 -23.5 10t-9.5 23zM55 501q0 13 9.5 22.5t23.5 9.5t23 -9.5t9 -22.5q0 -14 -9.5 -23.5t-22.5 -9.5q-14 0 -23.5 10t-9.5 23zM173 29q0 13 9.5 22.5t23.5 9.5t23 -9.5t9 -22.5q0 -14 -9.5 -23.5t-22.5 -9.5q-14 0 -23.5 10t-9.5 23z M232 619q0 13 9.5 22.5t23.5 9.5q13 0 22.5 -9.5t9.5 -22.5q0 -14 -9.5 -23.5t-22.5 -9.5t-23 10t-10 23zM291 29q0 13 9.5 22.5t23.5 9.5t23 -9.5t9 -22.5q0 -14 -9.5 -23.5t-22.5 -9.5q-14 0 -23.5 10t-9.5 23zM350 678q0 13 9.5 22.5t23.5 9.5q13 0 22.5 -9t9.5 -23 t-9.5 -23.5t-22.5 -9.5t-23 9.5t-10 23.5zM409 29q0 13 9.5 22.5t23.5 9.5t23 -9.5t9 -22.5q0 -14 -9.5 -23.5t-22.5 -9.5q-14 0 -23.5 10t-9.5 23zM527 147q0 13 9.5 22.5t23.5 9.5t23 -9.5t9 -22.5q0 -14 -9.5 -23.5t-22.5 -9.5q-14 0 -23.5 10t-9.5 23zM527 265 q0 13 9.5 22.5t23.5 9.5t23 -9.5t9 -22.5q0 -14 -9.5 -23.5t-22.5 -9.5q-14 0 -23.5 10t-9.5 23zM527 383q0 13 9.5 22.5t23.5 9.5t23 -9.5t9 -22.5q0 -14 -9.5 -23.5t-22.5 -9.5q-14 0 -23.5 10t-9.5 23zM527 501q0 13 9.5 22.5t23.5 9.5t23 -9.5t9 -22.5q0 -14 -9.5 -23.5 t-22.5 -9.5q-14 0 -23.5 10t-9.5 23z" />
<glyph unicode="&#xdb;" d="M55 147q0 13 9.5 22.5t23.5 9.5t23 -9.5t9 -22.5q0 -14 -9.5 -23.5t-22.5 -9.5q-14 0 -23.5 10t-9.5 23zM55 265q0 13 9.5 22.5t23.5 9.5t23 -9.5t9 -22.5q0 -14 -9.5 -23.5t-22.5 -9.5q-14 0 -23.5 10t-9.5 23zM55 383q0 13 9.5 22.5t23.5 9.5t23 -9.5t9 -22.5 q0 -14 -9.5 -23.5t-22.5 -9.5q-14 0 -23.5 10t-9.5 23zM55 501q0 13 9.5 22.5t23.5 9.5t23 -9.5t9 -22.5q0 -14 -9.5 -23.5t-22.5 -9.5q-14 0 -23.5 10t-9.5 23zM173 29q0 13 9.5 22.5t23.5 9.5t23 -9.5t9 -22.5q0 -14 -9.5 -23.5t-22.5 -9.5q-14 0 -23.5 10t-9.5 23z M232 619q0 13 9.5 22.5t23.5 9.5q13 0 22.5 -9.5t9.5 -22.5q0 -14 -9.5 -23.5t-22.5 -9.5t-23 10t-10 23zM291 29q0 13 9.5 22.5t23.5 9.5t23 -9.5t9 -22.5q0 -14 -9.5 -23.5t-22.5 -9.5q-14 0 -23.5 10t-9.5 23zM291 678q0 13 9.5 22.5t23.5 9.5t23 -9t9 -23t-9.5 -23.5 t-22.5 -9.5q-14 0 -23.5 9.5t-9.5 23.5zM350 619q0 13 9.5 22.5t23.5 9.5q13 0 22.5 -9.5t9.5 -22.5q0 -14 -9.5 -23.5t-22.5 -9.5t-23 10t-10 23zM409 29q0 13 9.5 22.5t23.5 9.5t23 -9.5t9 -22.5q0 -14 -9.5 -23.5t-22.5 -9.5q-14 0 -23.5 10t-9.5 23zM527 147 q0 13 9.5 22.5t23.5 9.5t23 -9.5t9 -22.5q0 -14 -9.5 -23.5t-22.5 -9.5q-14 0 -23.5 10t-9.5 23zM527 265q0 13 9.5 22.5t23.5 9.5t23 -9.5t9 -22.5q0 -14 -9.5 -23.5t-22.5 -9.5q-14 0 -23.5 10t-9.5 23zM527 383q0 13 9.5 22.5t23.5 9.5t23 -9.5t9 -22.5q0 -14 -9.5 -23.5 t-22.5 -9.5q-14 0 -23.5 10t-9.5 23zM527 501q0 13 9.5 22.5t23.5 9.5t23 -9.5t9 -22.5q0 -14 -9.5 -23.5t-22.5 -9.5q-14 0 -23.5 10t-9.5 23z" />
<glyph unicode="&#xdc;" d="M55 147q0 13 9.5 22.5t23.5 9.5t23 -9.5t9 -22.5q0 -14 -9.5 -23.5t-22.5 -9.5q-14 0 -23.5 10t-9.5 23zM55 265q0 13 9.5 22.5t23.5 9.5t23 -9.5t9 -22.5q0 -14 -9.5 -23.5t-22.5 -9.5q-14 0 -23.5 10t-9.5 23zM55 383q0 13 9.5 22.5t23.5 9.5t23 -9.5t9 -22.5 q0 -14 -9.5 -23.5t-22.5 -9.5q-14 0 -23.5 10t-9.5 23zM55 501q0 13 9.5 22.5t23.5 9.5t23 -9.5t9 -22.5q0 -14 -9.5 -23.5t-22.5 -9.5q-14 0 -23.5 10t-9.5 23zM173 29q0 13 9.5 22.5t23.5 9.5t23 -9.5t9 -22.5q0 -14 -9.5 -23.5t-22.5 -9.5q-14 0 -23.5 10t-9.5 23z M232 678q0 13 9.5 22.5t23.5 9.5q13 0 22.5 -9t9.5 -23t-9.5 -23.5t-22.5 -9.5t-23 9.5t-10 23.5zM291 29q0 13 9.5 22.5t23.5 9.5t23 -9.5t9 -22.5q0 -14 -9.5 -23.5t-22.5 -9.5q-14 0 -23.5 10t-9.5 23zM350 678q0 13 9.5 22.5t23.5 9.5q13 0 22.5 -9t9.5 -23t-9.5 -23.5 t-22.5 -9.5t-23 9.5t-10 23.5zM409 29q0 13 9.5 22.5t23.5 9.5t23 -9.5t9 -22.5q0 -14 -9.5 -23.5t-22.5 -9.5q-14 0 -23.5 10t-9.5 23zM527 147q0 13 9.5 22.5t23.5 9.5t23 -9.5t9 -22.5q0 -14 -9.5 -23.5t-22.5 -9.5q-14 0 -23.5 10t-9.5 23zM527 265q0 13 9.5 22.5 t23.5 9.5t23 -9.5t9 -22.5q0 -14 -9.5 -23.5t-22.5 -9.5q-14 0 -23.5 10t-9.5 23zM527 383q0 13 9.5 22.5t23.5 9.5t23 -9.5t9 -22.5q0 -14 -9.5 -23.5t-22.5 -9.5q-14 0 -23.5 10t-9.5 23zM527 501q0 13 9.5 22.5t23.5 9.5t23 -9.5t9 -22.5q0 -14 -9.5 -23.5t-22.5 -9.5 q-14 0 -23.5 10t-9.5 23z" />
<glyph unicode="&#xdd;" d="M55 501q0 13 9.5 22.5t23.5 9.5t23 -9.5t9 -22.5q0 -14 -9.5 -23.5t-22.5 -9.5q-14 0 -23.5 10t-9.5 23zM173 383q0 13 9.5 22.5t23.5 9.5t23 -9.5t9 -22.5q0 -14 -9.5 -23.5t-22.5 -9.5q-14 0 -23.5 10t-9.5 23zM232 619q0 13 9.5 22.5t23.5 9.5q13 0 22.5 -9.5 t9.5 -22.5q0 -14 -9.5 -23.5t-22.5 -9.5t-23 10t-10 23zM291 29q0 13 9.5 22.5t23.5 9.5t23 -9.5t9 -22.5q0 -14 -9.5 -23.5t-22.5 -9.5q-14 0 -23.5 10t-9.5 23zM291 147q0 13 9.5 22.5t23.5 9.5t23 -9.5t9 -22.5q0 -14 -9.5 -23.5t-22.5 -9.5q-14 0 -23.5 10t-9.5 23z M291 265q0 13 9.5 22.5t23.5 9.5t23 -9.5t9 -22.5q0 -14 -9.5 -23.5t-22.5 -9.5q-14 0 -23.5 10t-9.5 23zM350 678q0 13 9.5 22.5t23.5 9.5q13 0 22.5 -9t9.5 -23t-9.5 -23.5t-22.5 -9.5t-23 9.5t-10 23.5zM409 383q0 13 9.5 22.5t23.5 9.5t23 -9.5t9 -22.5 q0 -14 -9.5 -23.5t-22.5 -9.5q-14 0 -23.5 10t-9.5 23zM527 501q0 13 9.5 22.5t23.5 9.5t23 -9.5t9 -22.5q0 -14 -9.5 -23.5t-22.5 -9.5q-14 0 -23.5 10t-9.5 23z" />
<glyph unicode="&#xde;" d="M55 29q0 13 9.5 22.5t23.5 9.5t23 -9.5t9 -22.5q0 -14 -9.5 -23.5t-22.5 -9.5q-14 0 -23.5 10t-9.5 23zM55 147q0 13 9.5 22.5t23.5 9.5t23 -9.5t9 -22.5q0 -14 -9.5 -23.5t-22.5 -9.5q-14 0 -23.5 10t-9.5 23zM55 265q0 13 9.5 22.5t23.5 9.5t23 -9.5t9 -22.5 q0 -14 -9.5 -23.5t-22.5 -9.5q-14 0 -23.5 10t-9.5 23zM55 383q0 13 9.5 22.5t23.5 9.5t23 -9.5t9 -22.5q0 -14 -9.5 -23.5t-22.5 -9.5q-14 0 -23.5 10t-9.5 23zM55 501q0 13 9.5 22.5t23.5 9.5t23 -9.5t9 -22.5q0 -14 -9.5 -23.5t-22.5 -9.5q-14 0 -23.5 10t-9.5 23z M173 88q0 13 9.5 22.5t23.5 9.5t23 -9t9 -23t-9.5 -23.5t-22.5 -9.5q-14 0 -23.5 9.5t-9.5 23.5zM173 442q0 13 9.5 22.5t23.5 9.5t23 -9t9 -23t-9.5 -23.5t-22.5 -9.5q-14 0 -23.5 9.5t-9.5 23.5zM291 88q0 13 9.5 22.5t23.5 9.5t23 -9t9 -23t-9.5 -23.5t-22.5 -9.5 q-14 0 -23.5 9.5t-9.5 23.5zM291 442q0 13 9.5 22.5t23.5 9.5t23 -9t9 -23t-9.5 -23.5t-22.5 -9.5q-14 0 -23.5 9.5t-9.5 23.5zM409 88q0 13 9.5 22.5t23.5 9.5t23 -9t9 -23t-9.5 -23.5t-22.5 -9.5q-14 0 -23.5 9.5t-9.5 23.5zM409 442q0 13 9.5 22.5t23.5 9.5t23 -9t9 -23 t-9.5 -23.5t-22.5 -9.5q-14 0 -23.5 9.5t-9.5 23.5zM527 206q0 13 9.5 22.5t23.5 9.5t23 -9t9 -23t-9.5 -23.5t-22.5 -9.5q-14 0 -23.5 9.5t-9.5 23.5zM527 324q0 13 9.5 22.5t23.5 9.5t23 -9t9 -23t-9.5 -23.5t-22.5 -9.5q-14 0 -23.5 9.5t-9.5 23.5z" />
<glyph unicode="&#xdf;" d="M55 29q0 13 9.5 22.5t23.5 9.5t23 -9.5t9 -22.5q0 -14 -9.5 -23.5t-22.5 -9.5q-14 0 -23.5 10t-9.5 23zM55 147q0 13 9.5 22.5t23.5 9.5t23 -9.5t9 -22.5q0 -14 -9.5 -23.5t-22.5 -9.5q-14 0 -23.5 10t-9.5 23zM55 265q0 13 9.5 22.5t23.5 9.5t23 -9.5t9 -22.5 q0 -14 -9.5 -23.5t-22.5 -9.5q-14 0 -23.5 10t-9.5 23zM55 383q0 13 9.5 22.5t23.5 9.5t23 -9.5t9 -22.5q0 -14 -9.5 -23.5t-22.5 -9.5q-14 0 -23.5 10t-9.5 23zM173 88q0 13 9.5 22.5t23.5 9.5t23 -9t9 -23t-9.5 -23.5t-22.5 -9.5q-14 0 -23.5 9.5t-9.5 23.5zM173 501 q0 13 9.5 22.5t23.5 9.5t23 -9.5t9 -22.5q0 -14 -9.5 -23.5t-22.5 -9.5q-14 0 -23.5 10t-9.5 23zM291 29q0 13 9.5 22.5t23.5 9.5t23 -9.5t9 -22.5q0 -14 -9.5 -23.5t-22.5 -9.5q-14 0 -23.5 10t-9.5 23zM291 265q0 13 9.5 22.5t23.5 9.5t23 -9.5t9 -22.5q0 -14 -9.5 -23.5 t-22.5 -9.5q-14 0 -23.5 10t-9.5 23zM291 501q0 13 9.5 22.5t23.5 9.5t23 -9.5t9 -22.5q0 -14 -9.5 -23.5t-22.5 -9.5q-14 0 -23.5 10t-9.5 23zM409 29q0 13 9.5 22.5t23.5 9.5t23 -9.5t9 -22.5q0 -14 -9.5 -23.5t-22.5 -9.5q-14 0 -23.5 10t-9.5 23zM409 265q0 13 9.5 22.5 t23.5 9.5t23 -9.5t9 -22.5q0 -14 -9.5 -23.5t-22.5 -9.5q-14 0 -23.5 10t-9.5 23zM409 501q0 13 9.5 22.5t23.5 9.5t23 -9.5t9 -22.5q0 -14 -9.5 -23.5t-22.5 -9.5q-14 0 -23.5 10t-9.5 23zM468 383q0 13 9.5 22.5t23.5 9.5q13 0 22.5 -9.5t9.5 -22.5q0 -14 -9.5 -23.5 t-22.5 -9.5t-23 10t-10 23zM527 147q0 13 9.5 22.5t23.5 9.5t23 -9.5t9 -22.5q0 -14 -9.5 -23.5t-22.5 -9.5q-14 0 -23.5 10t-9.5 23zM527 265q0 13 9.5 22.5t23.5 9.5t23 -9.5t9 -22.5q0 -14 -9.5 -23.5t-22.5 -9.5q-14 0 -23.5 10t-9.5 23z" />
<glyph unicode="&#xe0;" horiz-adv-x="708" d="M55 206q0 13 9.5 22.5t23.5 9.5t23 -9t9 -23t-9.5 -23.5t-22.5 -9.5q-14 0 -23.5 9.5t-9.5 23.5zM55 324q0 13 9.5 22.5t23.5 9.5t23 -9t9 -23t-9.5 -23.5t-22.5 -9.5q-14 0 -23.5 9.5t-9.5 23.5zM114 88q0 13 9.5 22.5t23.5 9.5q13 0 22.5 -9t9.5 -23t-9.5 -23.5 t-22.5 -9.5t-23 9.5t-10 23.5zM114 442q0 13 9.5 22.5t23.5 9.5q13 0 22.5 -9t9.5 -23t-9.5 -23.5t-22.5 -9.5t-23 9.5t-10 23.5zM232 29q0 13 9.5 22.5t23.5 9.5q13 0 22.5 -9.5t9.5 -22.5q0 -14 -9.5 -23.5t-22.5 -9.5t-23 10t-10 23zM232 501q0 13 9.5 22.5t23.5 9.5 q13 0 22.5 -9.5t9.5 -22.5q0 -14 -9.5 -23.5t-22.5 -9.5t-23 10t-10 23zM232 678q0 13 9.5 22.5t23.5 9.5q13 0 22.5 -9t9.5 -23t-9.5 -23.5t-22.5 -9.5t-23 9.5t-10 23.5zM350 29q0 13 9.5 22.5t23.5 9.5q13 0 22.5 -9.5t9.5 -22.5q0 -14 -9.5 -23.5t-22.5 -9.5t-23 10 t-10 23zM350 501q0 13 9.5 22.5t23.5 9.5q13 0 22.5 -9.5t9.5 -22.5q0 -14 -9.5 -23.5t-22.5 -9.5t-23 10t-10 23zM350 619q0 13 9.5 22.5t23.5 9.5q13 0 22.5 -9.5t9.5 -22.5q0 -14 -9.5 -23.5t-22.5 -9.5t-23 10t-10 23zM468 501q0 13 9.5 22.5t23.5 9.5q13 0 22.5 -9.5 t9.5 -22.5q0 -14 -9.5 -23.5t-22.5 -9.5t-23 10t-10 23zM527 147q0 13 9.5 22.5t23.5 9.5t23 -9.5t9 -22.5q0 -14 -9.5 -23.5t-22.5 -9.5q-14 0 -23.5 10t-9.5 23zM527 265q0 13 9.5 22.5t23.5 9.5t23 -9.5t9 -22.5q0 -14 -9.5 -23.5t-22.5 -9.5q-14 0 -23.5 10t-9.5 23z M527 383q0 13 9.5 22.5t23.5 9.5t23 -9.5t9 -22.5q0 -14 -9.5 -23.5t-22.5 -9.5q-14 0 -23.5 10t-9.5 23zM586 29q0 13 9.5 22.5t23.5 9.5q13 0 22.5 -9.5t9.5 -22.5q0 -14 -9.5 -23.5t-22.5 -9.5t-23 10t-10 23z" />
<glyph unicode="&#xe1;" horiz-adv-x="708" d="M55 206q0 13 9.5 22.5t23.5 9.5t23 -9t9 -23t-9.5 -23.5t-22.5 -9.5q-14 0 -23.5 9.5t-9.5 23.5zM55 324q0 13 9.5 22.5t23.5 9.5t23 -9t9 -23t-9.5 -23.5t-22.5 -9.5q-14 0 -23.5 9.5t-9.5 23.5zM114 88q0 13 9.5 22.5t23.5 9.5q13 0 22.5 -9t9.5 -23t-9.5 -23.5 t-22.5 -9.5t-23 9.5t-10 23.5zM114 442q0 13 9.5 22.5t23.5 9.5q13 0 22.5 -9t9.5 -23t-9.5 -23.5t-22.5 -9.5t-23 9.5t-10 23.5zM232 29q0 13 9.5 22.5t23.5 9.5q13 0 22.5 -9.5t9.5 -22.5q0 -14 -9.5 -23.5t-22.5 -9.5t-23 10t-10 23zM232 501q0 13 9.5 22.5t23.5 9.5 q13 0 22.5 -9.5t9.5 -22.5q0 -14 -9.5 -23.5t-22.5 -9.5t-23 10t-10 23zM291 619q0 13 9.5 22.5t23.5 9.5t23 -9.5t9 -22.5q0 -14 -9.5 -23.5t-22.5 -9.5q-14 0 -23.5 10t-9.5 23zM350 29q0 13 9.5 22.5t23.5 9.5q13 0 22.5 -9.5t9.5 -22.5q0 -14 -9.5 -23.5t-22.5 -9.5 t-23 10t-10 23zM350 501q0 13 9.5 22.5t23.5 9.5q13 0 22.5 -9.5t9.5 -22.5q0 -14 -9.5 -23.5t-22.5 -9.5t-23 10t-10 23zM409 678q0 13 9.5 22.5t23.5 9.5t23 -9t9 -23t-9.5 -23.5t-22.5 -9.5q-14 0 -23.5 9.5t-9.5 23.5zM468 501q0 13 9.5 22.5t23.5 9.5q13 0 22.5 -9.5 t9.5 -22.5q0 -14 -9.5 -23.5t-22.5 -9.5t-23 10t-10 23zM527 147q0 13 9.5 22.5t23.5 9.5t23 -9.5t9 -22.5q0 -14 -9.5 -23.5t-22.5 -9.5q-14 0 -23.5 10t-9.5 23zM527 265q0 13 9.5 22.5t23.5 9.5t23 -9.5t9 -22.5q0 -14 -9.5 -23.5t-22.5 -9.5q-14 0 -23.5 10t-9.5 23z M527 383q0 13 9.5 22.5t23.5 9.5t23 -9.5t9 -22.5q0 -14 -9.5 -23.5t-22.5 -9.5q-14 0 -23.5 10t-9.5 23zM586 29q0 13 9.5 22.5t23.5 9.5q13 0 22.5 -9.5t9.5 -22.5q0 -14 -9.5 -23.5t-22.5 -9.5t-23 10t-10 23z" />
<glyph unicode="&#xe2;" horiz-adv-x="708" d="M55 206q0 13 9.5 22.5t23.5 9.5t23 -9t9 -23t-9.5 -23.5t-22.5 -9.5q-14 0 -23.5 9.5t-9.5 23.5zM55 324q0 13 9.5 22.5t23.5 9.5t23 -9t9 -23t-9.5 -23.5t-22.5 -9.5q-14 0 -23.5 9.5t-9.5 23.5zM114 88q0 13 9.5 22.5t23.5 9.5q13 0 22.5 -9t9.5 -23t-9.5 -23.5 t-22.5 -9.5t-23 9.5t-10 23.5zM114 442q0 13 9.5 22.5t23.5 9.5q13 0 22.5 -9t9.5 -23t-9.5 -23.5t-22.5 -9.5t-23 9.5t-10 23.5zM173 619q0 13 9.5 22.5t23.5 9.5t23 -9.5t9 -22.5q0 -14 -9.5 -23.5t-22.5 -9.5q-14 0 -23.5 10t-9.5 23zM232 29q0 13 9.5 22.5t23.5 9.5 q13 0 22.5 -9.5t9.5 -22.5q0 -14 -9.5 -23.5t-22.5 -9.5t-23 10t-10 23zM232 501q0 13 9.5 22.5t23.5 9.5q13 0 22.5 -9.5t9.5 -22.5q0 -14 -9.5 -23.5t-22.5 -9.5t-23 10t-10 23zM291 678q0 13 9.5 22.5t23.5 9.5t23 -9t9 -23t-9.5 -23.5t-22.5 -9.5q-14 0 -23.5 9.5 t-9.5 23.5zM350 29q0 13 9.5 22.5t23.5 9.5q13 0 22.5 -9.5t9.5 -22.5q0 -14 -9.5 -23.5t-22.5 -9.5t-23 10t-10 23zM350 501q0 13 9.5 22.5t23.5 9.5q13 0 22.5 -9.5t9.5 -22.5q0 -14 -9.5 -23.5t-22.5 -9.5t-23 10t-10 23zM409 619q0 13 9.5 22.5t23.5 9.5t23 -9.5 t9 -22.5q0 -14 -9.5 -23.5t-22.5 -9.5q-14 0 -23.5 10t-9.5 23zM468 501q0 13 9.5 22.5t23.5 9.5q13 0 22.5 -9.5t9.5 -22.5q0 -14 -9.5 -23.5t-22.5 -9.5t-23 10t-10 23zM527 147q0 13 9.5 22.5t23.5 9.5t23 -9.5t9 -22.5q0 -14 -9.5 -23.5t-22.5 -9.5q-14 0 -23.5 10 t-9.5 23zM527 265q0 13 9.5 22.5t23.5 9.5t23 -9.5t9 -22.5q0 -14 -9.5 -23.5t-22.5 -9.5q-14 0 -23.5 10t-9.5 23zM527 383q0 13 9.5 22.5t23.5 9.5t23 -9.5t9 -22.5q0 -14 -9.5 -23.5t-22.5 -9.5q-14 0 -23.5 10t-9.5 23zM586 29q0 13 9.5 22.5t23.5 9.5q13 0 22.5 -9.5 t9.5 -22.5q0 -14 -9.5 -23.5t-22.5 -9.5t-23 10t-10 23z" />
<glyph unicode="&#xe3;" horiz-adv-x="708" d="M55 206q0 13 9.5 22.5t23.5 9.5t23 -9t9 -23t-9.5 -23.5t-22.5 -9.5q-14 0 -23.5 9.5t-9.5 23.5zM55 324q0 13 9.5 22.5t23.5 9.5t23 -9t9 -23t-9.5 -23.5t-22.5 -9.5q-14 0 -23.5 9.5t-9.5 23.5zM114 88q0 13 9.5 22.5t23.5 9.5q13 0 22.5 -9t9.5 -23t-9.5 -23.5 t-22.5 -9.5t-23 9.5t-10 23.5zM114 442q0 13 9.5 22.5t23.5 9.5q13 0 22.5 -9t9.5 -23t-9.5 -23.5t-22.5 -9.5t-23 9.5t-10 23.5zM232 29q0 13 9.5 22.5t23.5 9.5q13 0 22.5 -9.5t9.5 -22.5q0 -14 -9.5 -23.5t-22.5 -9.5t-23 10t-10 23zM232 501q0 13 9.5 22.5t23.5 9.5 q13 0 22.5 -9.5t9.5 -22.5q0 -14 -9.5 -23.5t-22.5 -9.5t-23 10t-10 23zM232 619q0 13 9.5 22.5t23.5 9.5q13 0 22.5 -9.5t9.5 -22.5q0 -14 -9.5 -23.5t-22.5 -9.5t-23 10t-10 23zM291 678q0 13 9.5 22.5t23.5 9.5t23 -9t9 -23t-9.5 -23.5t-22.5 -9.5q-14 0 -23.5 9.5 t-9.5 23.5zM350 29q0 13 9.5 22.5t23.5 9.5q13 0 22.5 -9.5t9.5 -22.5q0 -14 -9.5 -23.5t-22.5 -9.5t-23 10t-10 23zM350 501q0 13 9.5 22.5t23.5 9.5q13 0 22.5 -9.5t9.5 -22.5q0 -14 -9.5 -23.5t-22.5 -9.5t-23 10t-10 23zM350 619q0 13 9.5 22.5t23.5 9.5q13 0 22.5 -9.5 t9.5 -22.5q0 -14 -9.5 -23.5t-22.5 -9.5t-23 10t-10 23zM409 678q0 13 9.5 22.5t23.5 9.5t23 -9t9 -23t-9.5 -23.5t-22.5 -9.5q-14 0 -23.5 9.5t-9.5 23.5zM468 501q0 13 9.5 22.5t23.5 9.5q13 0 22.5 -9.5t9.5 -22.5q0 -14 -9.5 -23.5t-22.5 -9.5t-23 10t-10 23zM527 147 q0 13 9.5 22.5t23.5 9.5t23 -9.5t9 -22.5q0 -14 -9.5 -23.5t-22.5 -9.5q-14 0 -23.5 10t-9.5 23zM527 265q0 13 9.5 22.5t23.5 9.5t23 -9.5t9 -22.5q0 -14 -9.5 -23.5t-22.5 -9.5q-14 0 -23.5 10t-9.5 23zM527 383q0 13 9.5 22.5t23.5 9.5t23 -9.5t9 -22.5q0 -14 -9.5 -23.5 t-22.5 -9.5q-14 0 -23.5 10t-9.5 23zM586 29q0 13 9.5 22.5t23.5 9.5q13 0 22.5 -9.5t9.5 -22.5q0 -14 -9.5 -23.5t-22.5 -9.5t-23 10t-10 23z" />
<glyph unicode="&#xe4;" horiz-adv-x="708" d="M55 206q0 13 9.5 22.5t23.5 9.5t23 -9t9 -23t-9.5 -23.5t-22.5 -9.5q-14 0 -23.5 9.5t-9.5 23.5zM55 324q0 13 9.5 22.5t23.5 9.5t23 -9t9 -23t-9.5 -23.5t-22.5 -9.5q-14 0 -23.5 9.5t-9.5 23.5zM114 88q0 13 9.5 22.5t23.5 9.5q13 0 22.5 -9t9.5 -23t-9.5 -23.5 t-22.5 -9.5t-23 9.5t-10 23.5zM114 442q0 13 9.5 22.5t23.5 9.5q13 0 22.5 -9t9.5 -23t-9.5 -23.5t-22.5 -9.5t-23 9.5t-10 23.5zM232 29q0 13 9.5 22.5t23.5 9.5q13 0 22.5 -9.5t9.5 -22.5q0 -14 -9.5 -23.5t-22.5 -9.5t-23 10t-10 23zM232 501q0 13 9.5 22.5t23.5 9.5 q13 0 22.5 -9.5t9.5 -22.5q0 -14 -9.5 -23.5t-22.5 -9.5t-23 10t-10 23zM232 678q0 13 9.5 22.5t23.5 9.5q13 0 22.5 -9t9.5 -23t-9.5 -23.5t-22.5 -9.5t-23 9.5t-10 23.5zM350 29q0 13 9.5 22.5t23.5 9.5q13 0 22.5 -9.5t9.5 -22.5q0 -14 -9.5 -23.5t-22.5 -9.5t-23 10 t-10 23zM350 501q0 13 9.5 22.5t23.5 9.5q13 0 22.5 -9.5t9.5 -22.5q0 -14 -9.5 -23.5t-22.5 -9.5t-23 10t-10 23zM350 678q0 13 9.5 22.5t23.5 9.5q13 0 22.5 -9t9.5 -23t-9.5 -23.5t-22.5 -9.5t-23 9.5t-10 23.5zM468 501q0 13 9.5 22.5t23.5 9.5q13 0 22.5 -9.5 t9.5 -22.5q0 -14 -9.5 -23.5t-22.5 -9.5t-23 10t-10 23zM527 147q0 13 9.5 22.5t23.5 9.5t23 -9.5t9 -22.5q0 -14 -9.5 -23.5t-22.5 -9.5q-14 0 -23.5 10t-9.5 23zM527 265q0 13 9.5 22.5t23.5 9.5t23 -9.5t9 -22.5q0 -14 -9.5 -23.5t-22.5 -9.5q-14 0 -23.5 10t-9.5 23z M527 383q0 13 9.5 22.5t23.5 9.5t23 -9.5t9 -22.5q0 -14 -9.5 -23.5t-22.5 -9.5q-14 0 -23.5 10t-9.5 23zM586 29q0 13 9.5 22.5t23.5 9.5q13 0 22.5 -9.5t9.5 -22.5q0 -14 -9.5 -23.5t-22.5 -9.5t-23 10t-10 23z" />
<glyph unicode="&#xe5;" horiz-adv-x="708" d="M55 206q0 13 9.5 22.5t23.5 9.5t23 -9t9 -23t-9.5 -23.5t-22.5 -9.5q-14 0 -23.5 9.5t-9.5 23.5zM55 324q0 13 9.5 22.5t23.5 9.5t23 -9t9 -23t-9.5 -23.5t-22.5 -9.5q-14 0 -23.5 9.5t-9.5 23.5zM114 88q0 13 9.5 22.5t23.5 9.5q13 0 22.5 -9t9.5 -23t-9.5 -23.5 t-22.5 -9.5t-23 9.5t-10 23.5zM114 442q0 13 9.5 22.5t23.5 9.5q13 0 22.5 -9t9.5 -23t-9.5 -23.5t-22.5 -9.5t-23 9.5t-10 23.5zM232 29q0 13 9.5 22.5t23.5 9.5q13 0 22.5 -9.5t9.5 -22.5q0 -14 -9.5 -23.5t-22.5 -9.5t-23 10t-10 23zM232 501q0 13 9.5 22.5t23.5 9.5 q13 0 22.5 -9.5t9.5 -22.5q0 -14 -9.5 -23.5t-22.5 -9.5t-23 10t-10 23zM232 619q0 13 9.5 22.5t23.5 9.5q13 0 22.5 -9.5t9.5 -22.5q0 -14 -9.5 -23.5t-22.5 -9.5t-23 10t-10 23zM291 560q0 13 9.5 22.5t23.5 9.5t23 -9t9 -23t-9.5 -23.5t-22.5 -9.5q-14 0 -23.5 9.5 t-9.5 23.5zM291 678q0 13 9.5 22.5t23.5 9.5t23 -9t9 -23t-9.5 -23.5t-22.5 -9.5q-14 0 -23.5 9.5t-9.5 23.5zM350 29q0 13 9.5 22.5t23.5 9.5q13 0 22.5 -9.5t9.5 -22.5q0 -14 -9.5 -23.5t-22.5 -9.5t-23 10t-10 23zM350 501q0 13 9.5 22.5t23.5 9.5q13 0 22.5 -9.5 t9.5 -22.5q0 -14 -9.5 -23.5t-22.5 -9.5t-23 10t-10 23zM350 619q0 13 9.5 22.5t23.5 9.5q13 0 22.5 -9.5t9.5 -22.5q0 -14 -9.5 -23.5t-22.5 -9.5t-23 10t-10 23zM468 501q0 13 9.5 22.5t23.5 9.5q13 0 22.5 -9.5t9.5 -22.5q0 -14 -9.5 -23.5t-22.5 -9.5t-23 10t-10 23z M527 147q0 13 9.5 22.5t23.5 9.5t23 -9.5t9 -22.5q0 -14 -9.5 -23.5t-22.5 -9.5q-14 0 -23.5 10t-9.5 23zM527 265q0 13 9.5 22.5t23.5 9.5t23 -9.5t9 -22.5q0 -14 -9.5 -23.5t-22.5 -9.5q-14 0 -23.5 10t-9.5 23zM527 383q0 13 9.5 22.5t23.5 9.5t23 -9.5t9 -22.5 q0 -14 -9.5 -23.5t-22.5 -9.5q-14 0 -23.5 10t-9.5 23zM586 29q0 13 9.5 22.5t23.5 9.5q13 0 22.5 -9.5t9.5 -22.5q0 -14 -9.5 -23.5t-22.5 -9.5t-23 10t-10 23z" />
<glyph unicode="&#xe6;" horiz-adv-x="1121" d="M55 206q0 13 9.5 22.5t23.5 9.5t23 -9t9 -23t-9.5 -23.5t-22.5 -9.5q-14 0 -23.5 9.5t-9.5 23.5zM55 324q0 13 9.5 22.5t23.5 9.5t23 -9t9 -23t-9.5 -23.5t-22.5 -9.5q-14 0 -23.5 9.5t-9.5 23.5zM114 88q0 13 9.5 22.5t23.5 9.5q13 0 22.5 -9t9.5 -23t-9.5 -23.5 t-22.5 -9.5t-23 9.5t-10 23.5zM114 442q0 13 9.5 22.5t23.5 9.5q13 0 22.5 -9t9.5 -23t-9.5 -23.5t-22.5 -9.5t-23 9.5t-10 23.5zM232 29q0 13 9.5 22.5t23.5 9.5q13 0 22.5 -9.5t9.5 -22.5q0 -14 -9.5 -23.5t-22.5 -9.5t-23 10t-10 23zM232 501q0 13 9.5 22.5t23.5 9.5 q13 0 22.5 -9.5t9.5 -22.5q0 -14 -9.5 -23.5t-22.5 -9.5t-23 10t-10 23zM350 29q0 13 9.5 22.5t23.5 9.5q13 0 22.5 -9.5t9.5 -22.5q0 -14 -9.5 -23.5t-22.5 -9.5t-23 10t-10 23zM350 501q0 13 9.5 22.5t23.5 9.5q13 0 22.5 -9.5t9.5 -22.5q0 -14 -9.5 -23.5t-22.5 -9.5 t-23 10t-10 23zM468 147q0 13 9.5 22.5t23.5 9.5q13 0 22.5 -9.5t9.5 -22.5q0 -14 -9.5 -23.5t-22.5 -9.5t-23 10t-10 23zM468 501q0 13 9.5 22.5t23.5 9.5q13 0 22.5 -9.5t9.5 -22.5q0 -14 -9.5 -23.5t-22.5 -9.5t-23 10t-10 23zM527 324q0 13 9.5 22.5t23.5 9.5t23 -9 t9 -23t-9.5 -23.5t-22.5 -9.5q-14 0 -23.5 9.5t-9.5 23.5zM586 88q0 13 9.5 22.5t23.5 9.5q13 0 22.5 -9t9.5 -23t-9.5 -23.5t-22.5 -9.5t-23 9.5t-10 23.5zM586 442q0 13 9.5 22.5t23.5 9.5q13 0 22.5 -9t9.5 -23t-9.5 -23.5t-22.5 -9.5t-23 9.5t-10 23.5zM645 265 q0 13 9.5 22.5t23.5 9.5t23 -9.5t9 -22.5q0 -14 -9.5 -23.5t-22.5 -9.5q-14 0 -23.5 10t-9.5 23zM704 29q0 13 9.5 22.5t23.5 9.5q13 0 22.5 -9.5t9.5 -22.5q0 -14 -9.5 -23.5t-22.5 -9.5t-23 10t-10 23zM704 501q0 13 9.5 22.5t23.5 9.5q13 0 22.5 -9.5t9.5 -22.5 q0 -14 -9.5 -23.5t-22.5 -9.5t-23 10t-10 23zM763 265q0 13 9.5 22.5t23.5 9.5t23 -9.5t9 -22.5q0 -14 -9.5 -23.5t-22.5 -9.5q-14 0 -23.5 10t-9.5 23zM822 29q0 13 9.5 22.5t23.5 9.5q13 0 22.5 -9.5t9.5 -22.5q0 -14 -9.5 -23.5t-22.5 -9.5t-23 10t-10 23zM822 501 q0 13 9.5 22.5t23.5 9.5q13 0 22.5 -9.5t9.5 -22.5q0 -14 -9.5 -23.5t-22.5 -9.5t-23 10t-10 23zM881 265q0 13 9.5 22.5t23.5 9.5t23 -9.5t9 -22.5q0 -14 -9.5 -23.5t-22.5 -9.5q-14 0 -23.5 10t-9.5 23zM940 88q0 13 9.5 22.5t23.5 9.5q13 0 22.5 -9t9.5 -23t-9.5 -23.5 t-22.5 -9.5t-23 9.5t-10 23.5zM940 442q0 13 9.5 22.5t23.5 9.5q13 0 22.5 -9t9.5 -23t-9.5 -23.5t-22.5 -9.5t-23 9.5t-10 23.5zM999 324q0 13 9.5 22.5t23.5 9.5t23 -9t9 -23t-9.5 -23.5t-22.5 -9.5q-14 0 -23.5 9.5t-9.5 23.5z" />
<glyph unicode="&#xe7;" horiz-adv-x="590" d="M55 206q0 13 9.5 22.5t23.5 9.5t23 -9t9 -23t-9.5 -23.5t-22.5 -9.5q-14 0 -23.5 9.5t-9.5 23.5zM55 324q0 13 9.5 22.5t23.5 9.5t23 -9t9 -23t-9.5 -23.5t-22.5 -9.5q-14 0 -23.5 9.5t-9.5 23.5zM114 88q0 13 9.5 22.5t23.5 9.5q13 0 22.5 -9t9.5 -23t-9.5 -23.5 t-22.5 -9.5t-23 9.5t-10 23.5zM114 442q0 13 9.5 22.5t23.5 9.5q13 0 22.5 -9t9.5 -23t-9.5 -23.5t-22.5 -9.5t-23 9.5t-10 23.5zM173 -148q0 13 9.5 22.5t23.5 9.5t23 -9t9 -23t-9.5 -23.5t-22.5 -9.5q-14 0 -23.5 9.5t-9.5 23.5zM232 29q0 13 9.5 22.5t23.5 9.5 q13 0 22.5 -9.5t9.5 -22.5q0 -14 -9.5 -23.5t-22.5 -9.5t-23 10t-10 23zM232 501q0 13 9.5 22.5t23.5 9.5q13 0 22.5 -9.5t9.5 -22.5q0 -14 -9.5 -23.5t-22.5 -9.5t-23 10t-10 23zM291 -89q0 13 9.5 22.5t23.5 9.5t23 -9.5t9 -22.5q0 -14 -9.5 -23.5t-22.5 -9.5 q-14 0 -23.5 10t-9.5 23zM350 29q0 13 9.5 22.5t23.5 9.5q13 0 22.5 -9.5t9.5 -22.5q0 -14 -9.5 -23.5t-22.5 -9.5t-23 10t-10 23zM350 501q0 13 9.5 22.5t23.5 9.5q13 0 22.5 -9.5t9.5 -22.5q0 -14 -9.5 -23.5t-22.5 -9.5t-23 10t-10 23zM468 88q0 13 9.5 22.5t23.5 9.5 q13 0 22.5 -9t9.5 -23t-9.5 -23.5t-22.5 -9.5t-23 9.5t-10 23.5zM468 442q0 13 9.5 22.5t23.5 9.5q13 0 22.5 -9t9.5 -23t-9.5 -23.5t-22.5 -9.5t-23 9.5t-10 23.5z" />
<glyph unicode="&#xe8;" d="M55 206q0 13 9.5 22.5t23.5 9.5t23 -9t9 -23t-9.5 -23.5t-22.5 -9.5q-14 0 -23.5 9.5t-9.5 23.5zM55 324q0 13 9.5 22.5t23.5 9.5t23 -9t9 -23t-9.5 -23.5t-22.5 -9.5q-14 0 -23.5 9.5t-9.5 23.5zM114 88q0 13 9.5 22.5t23.5 9.5q13 0 22.5 -9t9.5 -23t-9.5 -23.5 t-22.5 -9.5t-23 9.5t-10 23.5zM114 442q0 13 9.5 22.5t23.5 9.5q13 0 22.5 -9t9.5 -23t-9.5 -23.5t-22.5 -9.5t-23 9.5t-10 23.5zM173 265q0 13 9.5 22.5t23.5 9.5t23 -9.5t9 -22.5q0 -14 -9.5 -23.5t-22.5 -9.5q-14 0 -23.5 10t-9.5 23zM232 29q0 13 9.5 22.5t23.5 9.5 q13 0 22.5 -9.5t9.5 -22.5q0 -14 -9.5 -23.5t-22.5 -9.5t-23 10t-10 23zM232 501q0 13 9.5 22.5t23.5 9.5q13 0 22.5 -9.5t9.5 -22.5q0 -14 -9.5 -23.5t-22.5 -9.5t-23 10t-10 23zM232 678q0 13 9.5 22.5t23.5 9.5q13 0 22.5 -9t9.5 -23t-9.5 -23.5t-22.5 -9.5t-23 9.5 t-10 23.5zM291 265q0 13 9.5 22.5t23.5 9.5t23 -9.5t9 -22.5q0 -14 -9.5 -23.5t-22.5 -9.5q-14 0 -23.5 10t-9.5 23zM350 29q0 13 9.5 22.5t23.5 9.5q13 0 22.5 -9.5t9.5 -22.5q0 -14 -9.5 -23.5t-22.5 -9.5t-23 10t-10 23zM350 501q0 13 9.5 22.5t23.5 9.5q13 0 22.5 -9.5 t9.5 -22.5q0 -14 -9.5 -23.5t-22.5 -9.5t-23 10t-10 23zM350 619q0 13 9.5 22.5t23.5 9.5q13 0 22.5 -9.5t9.5 -22.5q0 -14 -9.5 -23.5t-22.5 -9.5t-23 10t-10 23zM409 265q0 13 9.5 22.5t23.5 9.5t23 -9.5t9 -22.5q0 -14 -9.5 -23.5t-22.5 -9.5q-14 0 -23.5 10t-9.5 23z M468 88q0 13 9.5 22.5t23.5 9.5q13 0 22.5 -9t9.5 -23t-9.5 -23.5t-22.5 -9.5t-23 9.5t-10 23.5zM468 442q0 13 9.5 22.5t23.5 9.5q13 0 22.5 -9t9.5 -23t-9.5 -23.5t-22.5 -9.5t-23 9.5t-10 23.5zM527 324q0 13 9.5 22.5t23.5 9.5t23 -9t9 -23t-9.5 -23.5t-22.5 -9.5 q-14 0 -23.5 9.5t-9.5 23.5z" />
<glyph unicode="&#xe9;" d="M55 206q0 13 9.5 22.5t23.5 9.5t23 -9t9 -23t-9.5 -23.5t-22.5 -9.5q-14 0 -23.5 9.5t-9.5 23.5zM55 324q0 13 9.5 22.5t23.5 9.5t23 -9t9 -23t-9.5 -23.5t-22.5 -9.5q-14 0 -23.5 9.5t-9.5 23.5zM114 88q0 13 9.5 22.5t23.5 9.5q13 0 22.5 -9t9.5 -23t-9.5 -23.5 t-22.5 -9.5t-23 9.5t-10 23.5zM114 442q0 13 9.5 22.5t23.5 9.5q13 0 22.5 -9t9.5 -23t-9.5 -23.5t-22.5 -9.5t-23 9.5t-10 23.5zM173 265q0 13 9.5 22.5t23.5 9.5t23 -9.5t9 -22.5q0 -14 -9.5 -23.5t-22.5 -9.5q-14 0 -23.5 10t-9.5 23zM232 29q0 13 9.5 22.5t23.5 9.5 q13 0 22.5 -9.5t9.5 -22.5q0 -14 -9.5 -23.5t-22.5 -9.5t-23 10t-10 23zM232 501q0 13 9.5 22.5t23.5 9.5q13 0 22.5 -9.5t9.5 -22.5q0 -14 -9.5 -23.5t-22.5 -9.5t-23 10t-10 23zM232 619q0 13 9.5 22.5t23.5 9.5q13 0 22.5 -9.5t9.5 -22.5q0 -14 -9.5 -23.5t-22.5 -9.5 t-23 10t-10 23zM291 265q0 13 9.5 22.5t23.5 9.5t23 -9.5t9 -22.5q0 -14 -9.5 -23.5t-22.5 -9.5q-14 0 -23.5 10t-9.5 23zM350 29q0 13 9.5 22.5t23.5 9.5q13 0 22.5 -9.5t9.5 -22.5q0 -14 -9.5 -23.5t-22.5 -9.5t-23 10t-10 23zM350 501q0 13 9.5 22.5t23.5 9.5 q13 0 22.5 -9.5t9.5 -22.5q0 -14 -9.5 -23.5t-22.5 -9.5t-23 10t-10 23zM350 678q0 13 9.5 22.5t23.5 9.5q13 0 22.5 -9t9.5 -23t-9.5 -23.5t-22.5 -9.5t-23 9.5t-10 23.5zM409 265q0 13 9.5 22.5t23.5 9.5t23 -9.5t9 -22.5q0 -14 -9.5 -23.5t-22.5 -9.5q-14 0 -23.5 10 t-9.5 23zM468 88q0 13 9.5 22.5t23.5 9.5q13 0 22.5 -9t9.5 -23t-9.5 -23.5t-22.5 -9.5t-23 9.5t-10 23.5zM468 442q0 13 9.5 22.5t23.5 9.5q13 0 22.5 -9t9.5 -23t-9.5 -23.5t-22.5 -9.5t-23 9.5t-10 23.5zM527 324q0 13 9.5 22.5t23.5 9.5t23 -9t9 -23t-9.5 -23.5 t-22.5 -9.5q-14 0 -23.5 9.5t-9.5 23.5z" />
<glyph unicode="&#xea;" d="M55 206q0 13 9.5 22.5t23.5 9.5t23 -9t9 -23t-9.5 -23.5t-22.5 -9.5q-14 0 -23.5 9.5t-9.5 23.5zM55 324q0 13 9.5 22.5t23.5 9.5t23 -9t9 -23t-9.5 -23.5t-22.5 -9.5q-14 0 -23.5 9.5t-9.5 23.5zM114 88q0 13 9.5 22.5t23.5 9.5q13 0 22.5 -9t9.5 -23t-9.5 -23.5 t-22.5 -9.5t-23 9.5t-10 23.5zM114 442q0 13 9.5 22.5t23.5 9.5q13 0 22.5 -9t9.5 -23t-9.5 -23.5t-22.5 -9.5t-23 9.5t-10 23.5zM173 265q0 13 9.5 22.5t23.5 9.5t23 -9.5t9 -22.5q0 -14 -9.5 -23.5t-22.5 -9.5q-14 0 -23.5 10t-9.5 23zM173 619q0 13 9.5 22.5t23.5 9.5 t23 -9.5t9 -22.5q0 -14 -9.5 -23.5t-22.5 -9.5q-14 0 -23.5 10t-9.5 23zM232 29q0 13 9.5 22.5t23.5 9.5q13 0 22.5 -9.5t9.5 -22.5q0 -14 -9.5 -23.5t-22.5 -9.5t-23 10t-10 23zM232 501q0 13 9.5 22.5t23.5 9.5q13 0 22.5 -9.5t9.5 -22.5q0 -14 -9.5 -23.5t-22.5 -9.5 t-23 10t-10 23zM291 265q0 13 9.5 22.5t23.5 9.5t23 -9.5t9 -22.5q0 -14 -9.5 -23.5t-22.5 -9.5q-14 0 -23.5 10t-9.5 23zM291 678q0 13 9.5 22.5t23.5 9.5t23 -9t9 -23t-9.5 -23.5t-22.5 -9.5q-14 0 -23.5 9.5t-9.5 23.5zM350 29q0 13 9.5 22.5t23.5 9.5q13 0 22.5 -9.5 t9.5 -22.5q0 -14 -9.5 -23.5t-22.5 -9.5t-23 10t-10 23zM350 501q0 13 9.5 22.5t23.5 9.5q13 0 22.5 -9.5t9.5 -22.5q0 -14 -9.5 -23.5t-22.5 -9.5t-23 10t-10 23zM409 265q0 13 9.5 22.5t23.5 9.5t23 -9.5t9 -22.5q0 -14 -9.5 -23.5t-22.5 -9.5q-14 0 -23.5 10t-9.5 23z M409 619q0 13 9.5 22.5t23.5 9.5t23 -9.5t9 -22.5q0 -14 -9.5 -23.5t-22.5 -9.5q-14 0 -23.5 10t-9.5 23zM468 88q0 13 9.5 22.5t23.5 9.5q13 0 22.5 -9t9.5 -23t-9.5 -23.5t-22.5 -9.5t-23 9.5t-10 23.5zM468 442q0 13 9.5 22.5t23.5 9.5q13 0 22.5 -9t9.5 -23t-9.5 -23.5 t-22.5 -9.5t-23 9.5t-10 23.5zM527 324q0 13 9.5 22.5t23.5 9.5t23 -9t9 -23t-9.5 -23.5t-22.5 -9.5q-14 0 -23.5 9.5t-9.5 23.5z" />
<glyph unicode="&#xeb;" d="M55 206q0 13 9.5 22.5t23.5 9.5t23 -9t9 -23t-9.5 -23.5t-22.5 -9.5q-14 0 -23.5 9.5t-9.5 23.5zM55 324q0 13 9.5 22.5t23.5 9.5t23 -9t9 -23t-9.5 -23.5t-22.5 -9.5q-14 0 -23.5 9.5t-9.5 23.5zM114 88q0 13 9.5 22.5t23.5 9.5q13 0 22.5 -9t9.5 -23t-9.5 -23.5 t-22.5 -9.5t-23 9.5t-10 23.5zM114 442q0 13 9.5 22.5t23.5 9.5q13 0 22.5 -9t9.5 -23t-9.5 -23.5t-22.5 -9.5t-23 9.5t-10 23.5zM173 265q0 13 9.5 22.5t23.5 9.5t23 -9.5t9 -22.5q0 -14 -9.5 -23.5t-22.5 -9.5q-14 0 -23.5 10t-9.5 23zM232 29q0 13 9.5 22.5t23.5 9.5 q13 0 22.5 -9.5t9.5 -22.5q0 -14 -9.5 -23.5t-22.5 -9.5t-23 10t-10 23zM232 501q0 13 9.5 22.5t23.5 9.5q13 0 22.5 -9.5t9.5 -22.5q0 -14 -9.5 -23.5t-22.5 -9.5t-23 10t-10 23zM232 678q0 13 9.5 22.5t23.5 9.5q13 0 22.5 -9t9.5 -23t-9.5 -23.5t-22.5 -9.5t-23 9.5 t-10 23.5zM291 265q0 13 9.5 22.5t23.5 9.5t23 -9.5t9 -22.5q0 -14 -9.5 -23.5t-22.5 -9.5q-14 0 -23.5 10t-9.5 23zM350 29q0 13 9.5 22.5t23.5 9.5q13 0 22.5 -9.5t9.5 -22.5q0 -14 -9.5 -23.5t-22.5 -9.5t-23 10t-10 23zM350 501q0 13 9.5 22.5t23.5 9.5q13 0 22.5 -9.5 t9.5 -22.5q0 -14 -9.5 -23.5t-22.5 -9.5t-23 10t-10 23zM350 678q0 13 9.5 22.5t23.5 9.5q13 0 22.5 -9t9.5 -23t-9.5 -23.5t-22.5 -9.5t-23 9.5t-10 23.5zM409 265q0 13 9.5 22.5t23.5 9.5t23 -9.5t9 -22.5q0 -14 -9.5 -23.5t-22.5 -9.5q-14 0 -23.5 10t-9.5 23zM468 88 q0 13 9.5 22.5t23.5 9.5q13 0 22.5 -9t9.5 -23t-9.5 -23.5t-22.5 -9.5t-23 9.5t-10 23.5zM468 442q0 13 9.5 22.5t23.5 9.5q13 0 22.5 -9t9.5 -23t-9.5 -23.5t-22.5 -9.5t-23 9.5t-10 23.5zM527 324q0 13 9.5 22.5t23.5 9.5t23 -9t9 -23t-9.5 -23.5t-22.5 -9.5 q-14 0 -23.5 9.5t-9.5 23.5z" />
<glyph unicode="&#xec;" horiz-adv-x="236" d="M55 678q0 13 9.5 22.5t23.5 9.5t23 -9t9 -23t-9.5 -23.5t-22.5 -9.5q-14 0 -23.5 9.5t-9.5 23.5zM114 29q0 13 9.5 22.5t23.5 9.5q13 0 22.5 -9.5t9.5 -22.5q0 -14 -9.5 -23.5t-22.5 -9.5t-23 10t-10 23zM114 147q0 13 9.5 22.5t23.5 9.5q13 0 22.5 -9.5t9.5 -22.5 q0 -14 -9.5 -23.5t-22.5 -9.5t-23 10t-10 23zM114 265q0 13 9.5 22.5t23.5 9.5q13 0 22.5 -9.5t9.5 -22.5q0 -14 -9.5 -23.5t-22.5 -9.5t-23 10t-10 23zM114 383q0 13 9.5 22.5t23.5 9.5q13 0 22.5 -9.5t9.5 -22.5q0 -14 -9.5 -23.5t-22.5 -9.5t-23 10t-10 23zM114 501 q0 13 9.5 22.5t23.5 9.5q13 0 22.5 -9.5t9.5 -22.5q0 -14 -9.5 -23.5t-22.5 -9.5t-23 10t-10 23zM114 619q0 13 9.5 22.5t23.5 9.5q13 0 22.5 -9.5t9.5 -22.5q0 -14 -9.5 -23.5t-22.5 -9.5t-23 10t-10 23z" />
<glyph unicode="&#xed;" horiz-adv-x="236" d="M55 29q0 13 9.5 22.5t23.5 9.5t23 -9.5t9 -22.5q0 -14 -9.5 -23.5t-22.5 -9.5q-14 0 -23.5 10t-9.5 23zM55 147q0 13 9.5 22.5t23.5 9.5t23 -9.5t9 -22.5q0 -14 -9.5 -23.5t-22.5 -9.5q-14 0 -23.5 10t-9.5 23zM55 265q0 13 9.5 22.5t23.5 9.5t23 -9.5t9 -22.5 q0 -14 -9.5 -23.5t-22.5 -9.5q-14 0 -23.5 10t-9.5 23zM55 383q0 13 9.5 22.5t23.5 9.5t23 -9.5t9 -22.5q0 -14 -9.5 -23.5t-22.5 -9.5q-14 0 -23.5 10t-9.5 23zM55 501q0 13 9.5 22.5t23.5 9.5t23 -9.5t9 -22.5q0 -14 -9.5 -23.5t-22.5 -9.5q-14 0 -23.5 10t-9.5 23z M55 619q0 13 9.5 22.5t23.5 9.5t23 -9.5t9 -22.5q0 -14 -9.5 -23.5t-22.5 -9.5q-14 0 -23.5 10t-9.5 23zM114 678q0 13 9.5 22.5t23.5 9.5q13 0 22.5 -9t9.5 -23t-9.5 -23.5t-22.5 -9.5t-23 9.5t-10 23.5z" />
<glyph unicode="&#xee;" horiz-adv-x="295" d="M55 619q0 13 9.5 22.5t23.5 9.5t23 -9.5t9 -22.5q0 -14 -9.5 -23.5t-22.5 -9.5q-14 0 -23.5 10t-9.5 23zM114 29q0 13 9.5 22.5t23.5 9.5q13 0 22.5 -9.5t9.5 -22.5q0 -14 -9.5 -23.5t-22.5 -9.5t-23 10t-10 23zM114 147q0 13 9.5 22.5t23.5 9.5q13 0 22.5 -9.5 t9.5 -22.5q0 -14 -9.5 -23.5t-22.5 -9.5t-23 10t-10 23zM114 265q0 13 9.5 22.5t23.5 9.5q13 0 22.5 -9.5t9.5 -22.5q0 -14 -9.5 -23.5t-22.5 -9.5t-23 10t-10 23zM114 383q0 13 9.5 22.5t23.5 9.5q13 0 22.5 -9.5t9.5 -22.5q0 -14 -9.5 -23.5t-22.5 -9.5t-23 10t-10 23z M114 501q0 13 9.5 22.5t23.5 9.5q13 0 22.5 -9.5t9.5 -22.5q0 -14 -9.5 -23.5t-22.5 -9.5t-23 10t-10 23zM114 678q0 13 9.5 22.5t23.5 9.5q13 0 22.5 -9t9.5 -23t-9.5 -23.5t-22.5 -9.5t-23 9.5t-10 23.5zM173 619q0 13 9.5 22.5t23.5 9.5t23 -9.5t9 -22.5 q0 -14 -9.5 -23.5t-22.5 -9.5q-14 0 -23.5 10t-9.5 23z" />
<glyph unicode="&#xef;" horiz-adv-x="177" d="M-4 678q0 13 9.5 22.5t23.5 9.5q13 0 22.5 -9t9.5 -23t-9.5 -23.5t-22.5 -9.5t-23 9.5t-10 23.5zM55 29q0 13 9.5 22.5t23.5 9.5t23 -9.5t9 -22.5q0 -14 -9.5 -23.5t-22.5 -9.5q-14 0 -23.5 10t-9.5 23zM55 147q0 13 9.5 22.5t23.5 9.5t23 -9.5t9 -22.5q0 -14 -9.5 -23.5 t-22.5 -9.5q-14 0 -23.5 10t-9.5 23zM55 265q0 13 9.5 22.5t23.5 9.5t23 -9.5t9 -22.5q0 -14 -9.5 -23.5t-22.5 -9.5q-14 0 -23.5 10t-9.5 23zM55 383q0 13 9.5 22.5t23.5 9.5t23 -9.5t9 -22.5q0 -14 -9.5 -23.5t-22.5 -9.5q-14 0 -23.5 10t-9.5 23zM55 501q0 13 9.5 22.5 t23.5 9.5t23 -9.5t9 -22.5q0 -14 -9.5 -23.5t-22.5 -9.5q-14 0 -23.5 10t-9.5 23zM114 678q0 13 9.5 22.5t23.5 9.5q13 0 22.5 -9t9.5 -23t-9.5 -23.5t-22.5 -9.5t-23 9.5t-10 23.5z" />
<glyph unicode="&#xf0;" d="M55 147q0 13 9.5 22.5t23.5 9.5t23 -9.5t9 -22.5q0 -14 -9.5 -23.5t-22.5 -9.5q-14 0 -23.5 10t-9.5 23zM173 29q0 13 9.5 22.5t23.5 9.5t23 -9.5t9 -22.5q0 -14 -9.5 -23.5t-22.5 -9.5q-14 0 -23.5 10t-9.5 23zM173 265q0 13 9.5 22.5t23.5 9.5t23 -9.5t9 -22.5 q0 -14 -9.5 -23.5t-22.5 -9.5q-14 0 -23.5 10t-9.5 23zM232 501q0 13 9.5 22.5t23.5 9.5q13 0 22.5 -9.5t9.5 -22.5q0 -14 -9.5 -23.5t-22.5 -9.5t-23 10t-10 23zM291 29q0 13 9.5 22.5t23.5 9.5t23 -9.5t9 -22.5q0 -14 -9.5 -23.5t-22.5 -9.5q-14 0 -23.5 10t-9.5 23z M291 265q0 13 9.5 22.5t23.5 9.5t23 -9.5t9 -22.5q0 -14 -9.5 -23.5t-22.5 -9.5q-14 0 -23.5 10t-9.5 23zM350 383q0 13 9.5 22.5t23.5 9.5q13 0 22.5 -9.5t9.5 -22.5q0 -14 -9.5 -23.5t-22.5 -9.5t-23 10t-10 23zM350 501q0 13 9.5 22.5t23.5 9.5q13 0 22.5 -9.5t9.5 -22.5 q0 -14 -9.5 -23.5t-22.5 -9.5t-23 10t-10 23zM409 29q0 13 9.5 22.5t23.5 9.5t23 -9.5t9 -22.5q0 -14 -9.5 -23.5t-22.5 -9.5q-14 0 -23.5 10t-9.5 23zM409 265q0 13 9.5 22.5t23.5 9.5t23 -9.5t9 -22.5q0 -14 -9.5 -23.5t-22.5 -9.5q-14 0 -23.5 10t-9.5 23zM468 383 q0 13 9.5 22.5t23.5 9.5q13 0 22.5 -9.5t9.5 -22.5q0 -14 -9.5 -23.5t-22.5 -9.5t-23 10t-10 23zM468 501q0 13 9.5 22.5t23.5 9.5q13 0 22.5 -9.5t9.5 -22.5q0 -14 -9.5 -23.5t-22.5 -9.5t-23 10t-10 23zM527 147q0 13 9.5 22.5t23.5 9.5t23 -9.5t9 -22.5q0 -14 -9.5 -23.5 t-22.5 -9.5q-14 0 -23.5 10t-9.5 23zM527 265q0 13 9.5 22.5t23.5 9.5t23 -9.5t9 -22.5q0 -14 -9.5 -23.5t-22.5 -9.5q-14 0 -23.5 10t-9.5 23zM586 619q0 13 9.5 22.5t23.5 9.5q13 0 22.5 -9.5t9.5 -22.5q0 -14 -9.5 -23.5t-22.5 -9.5t-23 10t-10 23z" />
<glyph unicode="&#xf1;" d="M55 29q0 13 9.5 22.5t23.5 9.5t23 -9.5t9 -22.5q0 -14 -9.5 -23.5t-22.5 -9.5q-14 0 -23.5 10t-9.5 23zM55 147q0 13 9.5 22.5t23.5 9.5t23 -9.5t9 -22.5q0 -14 -9.5 -23.5t-22.5 -9.5q-14 0 -23.5 10t-9.5 23zM55 265q0 13 9.5 22.5t23.5 9.5t23 -9.5t9 -22.5 q0 -14 -9.5 -23.5t-22.5 -9.5q-14 0 -23.5 10t-9.5 23zM55 383q0 13 9.5 22.5t23.5 9.5t23 -9.5t9 -22.5q0 -14 -9.5 -23.5t-22.5 -9.5q-14 0 -23.5 10t-9.5 23zM173 501q0 13 9.5 22.5t23.5 9.5t23 -9.5t9 -22.5q0 -14 -9.5 -23.5t-22.5 -9.5q-14 0 -23.5 10t-9.5 23z M232 619q0 13 9.5 22.5t23.5 9.5q13 0 22.5 -9.5t9.5 -22.5q0 -14 -9.5 -23.5t-22.5 -9.5t-23 10t-10 23zM291 501q0 13 9.5 22.5t23.5 9.5t23 -9.5t9 -22.5q0 -14 -9.5 -23.5t-22.5 -9.5q-14 0 -23.5 10t-9.5 23zM291 678q0 13 9.5 22.5t23.5 9.5t23 -9t9 -23t-9.5 -23.5 t-22.5 -9.5q-14 0 -23.5 9.5t-9.5 23.5zM350 619q0 13 9.5 22.5t23.5 9.5q13 0 22.5 -9.5t9.5 -22.5q0 -14 -9.5 -23.5t-22.5 -9.5t-23 10t-10 23zM409 501q0 13 9.5 22.5t23.5 9.5t23 -9.5t9 -22.5q0 -14 -9.5 -23.5t-22.5 -9.5q-14 0 -23.5 10t-9.5 23zM409 678 q0 13 9.5 22.5t23.5 9.5t23 -9t9 -23t-9.5 -23.5t-22.5 -9.5q-14 0 -23.5 9.5t-9.5 23.5zM527 29q0 13 9.5 22.5t23.5 9.5t23 -9.5t9 -22.5q0 -14 -9.5 -23.5t-22.5 -9.5q-14 0 -23.5 10t-9.5 23zM527 147q0 13 9.5 22.5t23.5 9.5t23 -9.5t9 -22.5q0 -14 -9.5 -23.5 t-22.5 -9.5q-14 0 -23.5 10t-9.5 23zM527 265q0 13 9.5 22.5t23.5 9.5t23 -9.5t9 -22.5q0 -14 -9.5 -23.5t-22.5 -9.5q-14 0 -23.5 10t-9.5 23zM527 383q0 13 9.5 22.5t23.5 9.5t23 -9.5t9 -22.5q0 -14 -9.5 -23.5t-22.5 -9.5q-14 0 -23.5 10t-9.5 23z" />
<glyph unicode="&#xf2;" d="M55 206q0 13 9.5 22.5t23.5 9.5t23 -9t9 -23t-9.5 -23.5t-22.5 -9.5q-14 0 -23.5 9.5t-9.5 23.5zM55 324q0 13 9.5 22.5t23.5 9.5t23 -9t9 -23t-9.5 -23.5t-22.5 -9.5q-14 0 -23.5 9.5t-9.5 23.5zM114 88q0 13 9.5 22.5t23.5 9.5q13 0 22.5 -9t9.5 -23t-9.5 -23.5 t-22.5 -9.5t-23 9.5t-10 23.5zM114 442q0 13 9.5 22.5t23.5 9.5q13 0 22.5 -9t9.5 -23t-9.5 -23.5t-22.5 -9.5t-23 9.5t-10 23.5zM232 29q0 13 9.5 22.5t23.5 9.5q13 0 22.5 -9.5t9.5 -22.5q0 -14 -9.5 -23.5t-22.5 -9.5t-23 10t-10 23zM232 501q0 13 9.5 22.5t23.5 9.5 q13 0 22.5 -9.5t9.5 -22.5q0 -14 -9.5 -23.5t-22.5 -9.5t-23 10t-10 23zM232 678q0 13 9.5 22.5t23.5 9.5q13 0 22.5 -9t9.5 -23t-9.5 -23.5t-22.5 -9.5t-23 9.5t-10 23.5zM350 29q0 13 9.5 22.5t23.5 9.5q13 0 22.5 -9.5t9.5 -22.5q0 -14 -9.5 -23.5t-22.5 -9.5t-23 10 t-10 23zM350 501q0 13 9.5 22.5t23.5 9.5q13 0 22.5 -9.5t9.5 -22.5q0 -14 -9.5 -23.5t-22.5 -9.5t-23 10t-10 23zM350 619q0 13 9.5 22.5t23.5 9.5q13 0 22.5 -9.5t9.5 -22.5q0 -14 -9.5 -23.5t-22.5 -9.5t-23 10t-10 23zM468 88q0 13 9.5 22.5t23.5 9.5q13 0 22.5 -9 t9.5 -23t-9.5 -23.5t-22.5 -9.5t-23 9.5t-10 23.5zM468 442q0 13 9.5 22.5t23.5 9.5q13 0 22.5 -9t9.5 -23t-9.5 -23.5t-22.5 -9.5t-23 9.5t-10 23.5zM527 206q0 13 9.5 22.5t23.5 9.5t23 -9t9 -23t-9.5 -23.5t-22.5 -9.5q-14 0 -23.5 9.5t-9.5 23.5zM527 324q0 13 9.5 22.5 t23.5 9.5t23 -9t9 -23t-9.5 -23.5t-22.5 -9.5q-14 0 -23.5 9.5t-9.5 23.5z" />
<glyph unicode="&#xf3;" d="M55 206q0 13 9.5 22.5t23.5 9.5t23 -9t9 -23t-9.5 -23.5t-22.5 -9.5q-14 0 -23.5 9.5t-9.5 23.5zM55 324q0 13 9.5 22.5t23.5 9.5t23 -9t9 -23t-9.5 -23.5t-22.5 -9.5q-14 0 -23.5 9.5t-9.5 23.5zM114 88q0 13 9.5 22.5t23.5 9.5q13 0 22.5 -9t9.5 -23t-9.5 -23.5 t-22.5 -9.5t-23 9.5t-10 23.5zM114 442q0 13 9.5 22.5t23.5 9.5q13 0 22.5 -9t9.5 -23t-9.5 -23.5t-22.5 -9.5t-23 9.5t-10 23.5zM232 29q0 13 9.5 22.5t23.5 9.5q13 0 22.5 -9.5t9.5 -22.5q0 -14 -9.5 -23.5t-22.5 -9.5t-23 10t-10 23zM232 501q0 13 9.5 22.5t23.5 9.5 q13 0 22.5 -9.5t9.5 -22.5q0 -14 -9.5 -23.5t-22.5 -9.5t-23 10t-10 23zM232 619q0 13 9.5 22.5t23.5 9.5q13 0 22.5 -9.5t9.5 -22.5q0 -14 -9.5 -23.5t-22.5 -9.5t-23 10t-10 23zM350 29q0 13 9.5 22.5t23.5 9.5q13 0 22.5 -9.5t9.5 -22.5q0 -14 -9.5 -23.5t-22.5 -9.5 t-23 10t-10 23zM350 501q0 13 9.5 22.5t23.5 9.5q13 0 22.5 -9.5t9.5 -22.5q0 -14 -9.5 -23.5t-22.5 -9.5t-23 10t-10 23zM350 678q0 13 9.5 22.5t23.5 9.5q13 0 22.5 -9t9.5 -23t-9.5 -23.5t-22.5 -9.5t-23 9.5t-10 23.5zM468 88q0 13 9.5 22.5t23.5 9.5q13 0 22.5 -9 t9.5 -23t-9.5 -23.5t-22.5 -9.5t-23 9.5t-10 23.5zM468 442q0 13 9.5 22.5t23.5 9.5q13 0 22.5 -9t9.5 -23t-9.5 -23.5t-22.5 -9.5t-23 9.5t-10 23.5zM527 206q0 13 9.5 22.5t23.5 9.5t23 -9t9 -23t-9.5 -23.5t-22.5 -9.5q-14 0 -23.5 9.5t-9.5 23.5zM527 324q0 13 9.5 22.5 t23.5 9.5t23 -9t9 -23t-9.5 -23.5t-22.5 -9.5q-14 0 -23.5 9.5t-9.5 23.5z" />
<glyph unicode="&#xf4;" d="M55 206q0 13 9.5 22.5t23.5 9.5t23 -9t9 -23t-9.5 -23.5t-22.5 -9.5q-14 0 -23.5 9.5t-9.5 23.5zM55 324q0 13 9.5 22.5t23.5 9.5t23 -9t9 -23t-9.5 -23.5t-22.5 -9.5q-14 0 -23.5 9.5t-9.5 23.5zM114 88q0 13 9.5 22.5t23.5 9.5q13 0 22.5 -9t9.5 -23t-9.5 -23.5 t-22.5 -9.5t-23 9.5t-10 23.5zM114 442q0 13 9.5 22.5t23.5 9.5q13 0 22.5 -9t9.5 -23t-9.5 -23.5t-22.5 -9.5t-23 9.5t-10 23.5zM173 619q0 13 9.5 22.5t23.5 9.5t23 -9.5t9 -22.5q0 -14 -9.5 -23.5t-22.5 -9.5q-14 0 -23.5 10t-9.5 23zM232 29q0 13 9.5 22.5t23.5 9.5 q13 0 22.5 -9.5t9.5 -22.5q0 -14 -9.5 -23.5t-22.5 -9.5t-23 10t-10 23zM232 501q0 13 9.5 22.5t23.5 9.5q13 0 22.5 -9.5t9.5 -22.5q0 -14 -9.5 -23.5t-22.5 -9.5t-23 10t-10 23zM291 678q0 13 9.5 22.5t23.5 9.5t23 -9t9 -23t-9.5 -23.5t-22.5 -9.5q-14 0 -23.5 9.5 t-9.5 23.5zM350 29q0 13 9.5 22.5t23.5 9.5q13 0 22.5 -9.5t9.5 -22.5q0 -14 -9.5 -23.5t-22.5 -9.5t-23 10t-10 23zM350 501q0 13 9.5 22.5t23.5 9.5q13 0 22.5 -9.5t9.5 -22.5q0 -14 -9.5 -23.5t-22.5 -9.5t-23 10t-10 23zM409 619q0 13 9.5 22.5t23.5 9.5t23 -9.5 t9 -22.5q0 -14 -9.5 -23.5t-22.5 -9.5q-14 0 -23.5 10t-9.5 23zM468 88q0 13 9.5 22.5t23.5 9.5q13 0 22.5 -9t9.5 -23t-9.5 -23.5t-22.5 -9.5t-23 9.5t-10 23.5zM468 442q0 13 9.5 22.5t23.5 9.5q13 0 22.5 -9t9.5 -23t-9.5 -23.5t-22.5 -9.5t-23 9.5t-10 23.5zM527 206 q0 13 9.5 22.5t23.5 9.5t23 -9t9 -23t-9.5 -23.5t-22.5 -9.5q-14 0 -23.5 9.5t-9.5 23.5zM527 324q0 13 9.5 22.5t23.5 9.5t23 -9t9 -23t-9.5 -23.5t-22.5 -9.5q-14 0 -23.5 9.5t-9.5 23.5z" />
<glyph unicode="&#xf5;" d="M55 206q0 13 9.5 22.5t23.5 9.5t23 -9t9 -23t-9.5 -23.5t-22.5 -9.5q-14 0 -23.5 9.5t-9.5 23.5zM55 324q0 13 9.5 22.5t23.5 9.5t23 -9t9 -23t-9.5 -23.5t-22.5 -9.5q-14 0 -23.5 9.5t-9.5 23.5zM114 88q0 13 9.5 22.5t23.5 9.5q13 0 22.5 -9t9.5 -23t-9.5 -23.5 t-22.5 -9.5t-23 9.5t-10 23.5zM114 442q0 13 9.5 22.5t23.5 9.5q13 0 22.5 -9t9.5 -23t-9.5 -23.5t-22.5 -9.5t-23 9.5t-10 23.5zM173 619q0 13 9.5 22.5t23.5 9.5t23 -9.5t9 -22.5q0 -14 -9.5 -23.5t-22.5 -9.5q-14 0 -23.5 10t-9.5 23zM232 29q0 13 9.5 22.5t23.5 9.5 q13 0 22.5 -9.5t9.5 -22.5q0 -14 -9.5 -23.5t-22.5 -9.5t-23 10t-10 23zM232 501q0 13 9.5 22.5t23.5 9.5q13 0 22.5 -9.5t9.5 -22.5q0 -14 -9.5 -23.5t-22.5 -9.5t-23 10t-10 23zM232 678q0 13 9.5 22.5t23.5 9.5q13 0 22.5 -9t9.5 -23t-9.5 -23.5t-22.5 -9.5t-23 9.5 t-10 23.5zM291 619q0 13 9.5 22.5t23.5 9.5t23 -9.5t9 -22.5q0 -14 -9.5 -23.5t-22.5 -9.5q-14 0 -23.5 10t-9.5 23zM350 29q0 13 9.5 22.5t23.5 9.5q13 0 22.5 -9.5t9.5 -22.5q0 -14 -9.5 -23.5t-22.5 -9.5t-23 10t-10 23zM350 501q0 13 9.5 22.5t23.5 9.5q13 0 22.5 -9.5 t9.5 -22.5q0 -14 -9.5 -23.5t-22.5 -9.5t-23 10t-10 23zM350 678q0 13 9.5 22.5t23.5 9.5q13 0 22.5 -9t9.5 -23t-9.5 -23.5t-22.5 -9.5t-23 9.5t-10 23.5zM468 88q0 13 9.5 22.5t23.5 9.5q13 0 22.5 -9t9.5 -23t-9.5 -23.5t-22.5 -9.5t-23 9.5t-10 23.5zM468 442 q0 13 9.5 22.5t23.5 9.5q13 0 22.5 -9t9.5 -23t-9.5 -23.5t-22.5 -9.5t-23 9.5t-10 23.5zM527 206q0 13 9.5 22.5t23.5 9.5t23 -9t9 -23t-9.5 -23.5t-22.5 -9.5q-14 0 -23.5 9.5t-9.5 23.5zM527 324q0 13 9.5 22.5t23.5 9.5t23 -9t9 -23t-9.5 -23.5t-22.5 -9.5 q-14 0 -23.5 9.5t-9.5 23.5z" />
</font>
</defs>
</svg>
