<?xml version="1.0" standalone="no"?>
<!DOCTYPE svg PUBLIC "-//W3C//DTD SVG 1.1//EN" "http://www.w3.org/Graphics/SVG/1.1/DTD/svg11.dtd" >
<svg xmlns="http://www.w3.org/2000/svg">
<metadata></metadata>
<defs>
<font id="laconicregular" horiz-adv-x="540" >
<font-face units-per-em="1000" ascent="750" descent="-250" />
<missing-glyph horiz-adv-x="280" />
<glyph unicode="&#xfb01;" horiz-adv-x="620" d="M30 400v80h80v160q0 33 23 56.5t57 23.5h360v-80h-350v-160h170v-80h-170v-400h-90v400h-80zM460 0v480h90v-480h-90z" />
<glyph unicode="&#xfb02;" horiz-adv-x="650" d="M30 400v80h80v160q0 33 23 56.5t57 23.5h180v-80h-170v-160h170v-80h-170v-400h-90v400h-80zM490 0v720h90v-720h-90z" />
<glyph unicode="&#xfb03;" horiz-adv-x="961" d="M30 400v80h80v160q0 33 23 56.5t57 23.5h180v-80h-170v-160h251v160q0 33 23 56.5t57 23.5h360v-80h-350v-160h170v-80h-170v-400h-90v400h-251v-400h-90v400h-80zM801 0v480h90v-480h-90z" />
<glyph unicode="&#xfb04;" horiz-adv-x="991" d="M30 400v80h80v160q0 33 23 56.5t57 23.5h180v-80h-170v-160h251v160q0 33 23 56.5t57 23.5h180v-80h-170v-160h170v-80h-170v-400h-90v400h-251v-400h-90v400h-80zM831 0v721h90v-721h-90z" />
<glyph horiz-adv-x="1000" />
<glyph horiz-adv-x="1000" />
<glyph unicode="&#xd;" horiz-adv-x="1000" />
<glyph unicode=" "  horiz-adv-x="280" />
<glyph unicode="&#x09;" horiz-adv-x="280" />
<glyph unicode="&#xa0;" horiz-adv-x="280" />
<glyph unicode="!" horiz-adv-x="266" d="M100 0v120h96v-120h-96zM100 200v440h96v-440h-96z" />
<glyph unicode="&#x22;" horiz-adv-x="400" d="M70 480v240h80v-240h-80zM250 480v240h80v-240h-80z" />
<glyph unicode="#" horiz-adv-x="500" d="M50 240v80h80v80h-80v80h80v160h80v-160h80v160h80v-160h80v-80h-80v-80h80v-80h-80v-160h-80v160h-80v-160h-80v160h-80zM210 320h80v80h-80v-80z" />
<glyph unicode="$" horiz-adv-x="420" d="M50 450v110q0 33 23.5 56.5t56.5 23.5h40v80h80v-80h114v-80h-223v-110h149q33 0 56.5 -23.5t23.5 -56.5v-130q0 -33 -23.5 -56.5t-56.5 -23.5h-40v-80h-80v80h-104v80h214v130h-150q-33 0 -56.5 23.5t-23.5 56.5z" />
<glyph unicode="%" horiz-adv-x="740" d="M50 440v120q0 33 23.5 56.5t56.5 23.5h120q34 0 57 -23.5t23 -56.5v-120q0 -33 -23 -56.5t-57 -23.5h-120q-33 0 -56.5 23.5t-23.5 56.5zM130 440h120v120h-120v-120zM160 0l332 640h89l-331 -640h-90zM410 80v119q0 34 23.5 57t56.5 23h120q34 0 57 -23t23 -57v-119 q0 -33 -23 -56.5t-57 -23.5h-120q-33 0 -56.5 23.5t-23.5 56.5zM490 80h120v119h-120v-119z" />
<glyph unicode="&#x26;" horiz-adv-x="700" d="M50 160v80q0 66 46.5 113t113.5 47h84v160q0 33 23 56.5t57 23.5h176q33 0 56.5 -23.5t23.5 -56.5v-160q0 -34 -23.5 -57t-56.5 -23h-160v-240h64q26 0 44.5 21t18.5 52v48h97v-41q0 -67 -47 -113.5t-113 -46.5h-64v-120h-96v120h-84q-67 0 -113.5 46.5t-46.5 113.5z M146 153q0 -31 18.5 -52t45.5 -21h84v240h-84q-26 0 -45 -21.5t-19 -52.5v-93zM390 400h144v160h-144v-160z" />
<glyph unicode="'" horiz-adv-x="220" d="M70 480v240h80v-240h-80z" />
<glyph unicode="(" horiz-adv-x="320" d="M70 -40v600q0 66 47 113t113 47h50v-80h-50q-26 0 -44.5 -21.5t-18.5 -52.5v-613q0 -31 18.5 -52t44.5 -21h50v-80h-50q-66 0 -113 46.5t-47 113.5z" />
<glyph unicode=")" horiz-adv-x="320" d="M40 -120h50q26 0 44.5 21.5t18.5 52.5v613q0 31 -18.5 52t-44.5 21h-50v80h50q66 0 113 -46.5t47 -113.5v-600q0 -66 -47 -113t-113 -47h-50v80z" />
<glyph unicode="*" horiz-adv-x="369" d="M30 508l91 52l-91 53l32 55l91 -53v105h63v-105l91 53l32 -55l-91 -53l91 -52l-32 -55l-91 52v-105h-63v105l-91 -52z" />
<glyph unicode="+" d="M70 240v80h160v160h80v-160h160v-80h-160v-160h-80v160h-160z" />
<glyph unicode="," horiz-adv-x="270" d="M16 -200l101 320h96l-100 -320h-97z" />
<glyph unicode="-" horiz-adv-x="340" d="M50 240v80h240v-80h-240z" />
<glyph unicode="." horiz-adv-x="250" d="M77 0v120h96v-120h-96z" />
<glyph unicode="/" horiz-adv-x="480" d="M30 0l331 640h89l-330 -640h-90z" />
<glyph unicode="0" horiz-adv-x="600" d="M70 160v320q0 66 47 113t113 47h140q67 0 113.5 -47t46.5 -113v-320q0 -67 -46.5 -113.5t-113.5 -46.5h-140q-66 0 -113 46.5t-47 113.5zM167 153q0 -31 18.5 -52t44.5 -21h140q27 0 45.5 21t18.5 52v333q0 31 -19 52.5t-45 21.5h-140q-26 0 -44.5 -21.5t-18.5 -52.5 v-333z" />
<glyph unicode="1" horiz-adv-x="280" d="M34 560v80h176v-640h-96v560h-80z" />
<glyph unicode="2" d="M70 0v194q0 72 51 123t123 51h51q33 0 55.5 21t22.5 53v49q0 31 -18 50t-45 19h-229v80h229q66 0 113 -44.5t47 -110.5v-43q0 -72 -50.5 -117t-124.5 -45h-51q-32 0 -55 -25t-23 -60v-115h288v-80h-384z" />
<glyph unicode="3" horiz-adv-x="500" d="M60 0v80h220q26 0 44.5 21.5t18.5 52.5v93q0 31 -18.5 52t-44.5 21h-220v80h230v160h-230v80h247q33 0 56.5 -23.5t23.5 -56.5v-200q53 -50 53 -120v-80q0 -66 -47 -113t-113 -47h-220z" />
<glyph unicode="4" horiz-adv-x="560" d="M10 160l248 480h107l-207 -400h196v160h96v-160h80v-80h-80v-160h-96v160h-344z" />
<glyph unicode="5" d="M70 0v80h240q26 0 45 21.5t19 52.5v92q0 31 -19 52.5t-45 21.5h-240v320h360v-80h-263v-160h143q67 0 113.5 -47t46.5 -113v-80q0 -66 -46.5 -113t-113.5 -47h-240z" />
<glyph unicode="6" horiz-adv-x="600" d="M70 160v320q0 67 47 113.5t113 46.5h264v-80h-264q-26 0 -44.5 -21t-18.5 -52v-87h203q66 0 113 -46.5t47 -113.5v-80q0 -66 -47 -113t-113 -47h-140q-66 0 -113 47t-47 113zM167 154q0 -31 18.5 -52.5t44.5 -21.5h140q26 0 44.5 21.5t18.5 52.5v93q0 31 -18.5 52 t-44.5 21h-203v-166z" />
<glyph unicode="7" d="M50 560v80h480l-330 -640h-109l289 560h-330z" />
<glyph unicode="8" horiz-adv-x="600" d="M50 160v80q0 70 53 120v200q0 33 23.5 56.5t56.5 23.5h234q33 0 56.5 -23.5t23.5 -56.5v-200q53 -50 53 -120v-80q0 -66 -47 -113t-113 -47h-180q-66 0 -113 47t-47 113zM147 154q0 -31 18.5 -52.5t44.5 -21.5h180q26 0 44.5 21.5t18.5 52.5v93q0 31 -18.5 52t-44.5 21 h-180q-26 0 -44.5 -21t-18.5 -52v-93zM200 400h200v160h-200v-160z" />
<glyph unicode="9" horiz-adv-x="600" d="M70 400v80q0 67 47 113.5t113 46.5h140q66 0 113 -46.5t47 -113.5v-320q0 -66 -47 -113t-113 -47h-264v80h264q26 0 44.5 21.5t18.5 52.5v86h-203q-66 0 -113 47t-47 113zM167 394q0 -31 18.5 -52.5t44.5 -21.5h203v167q0 31 -18.5 52t-44.5 21h-140q-26 0 -44.5 -21 t-18.5 -52v-93z" />
<glyph unicode=":" horiz-adv-x="316" d="M110 80v120h96v-120h-96zM110 321v120h96v-120h-96z" />
<glyph unicode=";" horiz-adv-x="316" d="M30 -120l82 280h99l-87 -280h-94zM112 321v120h96v-120h-96z" />
<glyph unicode="&#x3c;" horiz-adv-x="440" d="M0 319l325 325l57 -57l-268 -268l268 -269l-57 -56z" />
<glyph unicode="=" d="M70 160v80h400v-80h-400zM70 320v80h400v-80h-400z" />
<glyph unicode="&#x3e;" horiz-adv-x="440" d="M58 50l268 269l-268 268l57 57l325 -325l-325 -325z" />
<glyph unicode="?" horiz-adv-x="440" d="M70 560v80h240q33 0 56.5 -23t23.5 -57v-160q0 -33 -23.5 -56.5t-56.5 -23.5h-104v-120h-96v120q0 34 23 57t57 23h103v160h-223zM110 0v120h96v-120h-96z" />
<glyph unicode="@" horiz-adv-x="800" d="M70 160v160q0 100 70 170t170 70h260q66 0 113 -46.5t47 -113.5v-230q0 -33 -23.5 -56.5t-56.5 -23.5h-330q-33 0 -56.5 23.5t-23.5 56.5v140q0 33 23.5 56.5t56.5 23.5h240v-220h90v230q0 34 -23.5 57t-56.5 23h-260q-67 0 -113.5 -46.5t-46.5 -113.5v-159 q0 -67 46.5 -114t113.5 -47h419v-80h-419q-100 0 -170 70.5t-70 169.5zM320 170h160v140h-160v-140z" />
<glyph unicode="A" horiz-adv-x="560" d="M70 0v480q0 67 47 113.5t113 46.5h100q66 0 113 -46.5t47 -113.5v-480h-97v240h-226v-240h-97zM167 320h226v166q0 31 -18.5 52.5t-44.5 21.5h-100q-26 0 -44.5 -21.5t-18.5 -52.5v-166z" />
<glyph unicode="B" horiz-adv-x="560" d="M70 2v640h279q33 0 56.5 -23.5t23.5 -56.5v-190q37 -21 59 -58.5t22 -80.5v-71q0 -66 -47 -113t-113 -47h-280zM167 82h183q26 0 44.5 21.5t18.5 52.5v83q0 31 -18.5 52.5t-44.5 21.5h-183v-231zM167 393h165v169h-165v-169z" />
<glyph unicode="C" horiz-adv-x="570" d="M60 240v240q0 67 47 113.5t113 46.5h174q48 0 82 -34t34 -82v-84h-97v95q0 11 -7 18t-17 7h-169q-26 0 -44.5 -21.5t-18.5 -52.5v-256q0 -63 42 -106.5t101 -43.5h210v-80h-210q-99 0 -169.5 70.5t-70.5 169.5z" />
<glyph unicode="D" horiz-adv-x="590" d="M70 0v640h220q99 0 169.5 -70.5t70.5 -169.5v-160q0 -100 -70.5 -170t-169.5 -70h-220zM167 80h123q59 0 101 43.5t42 106.5v180q0 63 -42 106.5t-101 43.5h-123v-480z" />
<glyph unicode="E" horiz-adv-x="490" d="M70 80v560h358v-80h-261v-180h263v-80h-263v-220h261v-80h-278q-33 0 -56.5 23.5t-23.5 56.5z" />
<glyph unicode="F" horiz-adv-x="480" d="M70 0v640h358v-80h-261v-180h263v-80h-263v-300h-97z" />
<glyph unicode="G" horiz-adv-x="580" d="M60 160v240q0 99 70.5 169.5t169.5 70.5h210v-80h-210q-59 0 -101 -43.5t-42 -106.5v-256q0 -31 18.5 -52.5t44.5 -21.5h193v240h97v-320h-290q-66 0 -113 46.5t-47 113.5z" />
<glyph unicode="H" horiz-adv-x="560" d="M70 0v640h97v-260h226v260h97v-640h-97v300h-226v-300h-97z" />
<glyph unicode="I" horiz-adv-x="237" d="M70 0v640h97v-640h-97z" />
<glyph unicode="J" horiz-adv-x="360" d="M30 0v80h100q26 0 44.5 18.5t18.5 45.5v496h97v-480q0 -66 -47 -113t-113 -47h-100z" />
<glyph unicode="K" horiz-adv-x="560" d="M70 0v640h97v-259h80l164 259h107l-165 -261q58 -8 97.5 -53t39.5 -105v-221h-97v227q0 31 -18.5 52.5t-44.5 21.5h-163v-301h-97z" />
<glyph unicode="L" horiz-adv-x="420" d="M70 0v640h97v-560h223v-80h-320z" />
<glyph unicode="M" horiz-adv-x="880" d="M70 0v640h580q66 0 113 -47t47 -113v-480h-97v486q0 31 -18.5 52.5t-44.5 21.5h-162v-560h-97v560h-224v-560h-97z" />
<glyph unicode="N" horiz-adv-x="580" d="M70 0v640h55q49 0 69 -38l219 -420v458h97v-640h-55q-49 0 -69 38l-219 421v-459h-97z" />
<glyph unicode="O" horiz-adv-x="580" d="M60 160v320q0 66 47 113t113 47h140q67 0 113.5 -47t46.5 -113v-320q0 -67 -46.5 -113.5t-113.5 -46.5h-140q-66 0 -113 46.5t-47 113.5zM157 153q0 -31 18.5 -52t44.5 -21h140q27 0 45.5 21t18.5 52v333q0 31 -19 52.5t-45 21.5h-140q-26 0 -44.5 -21.5t-18.5 -52.5 v-333z" />
<glyph unicode="P" horiz-adv-x="530" d="M70 0v640h260q67 0 113.5 -46.5t46.5 -113.5v-80q0 -66 -46.5 -113t-113.5 -47h-164v-240h-96zM166 320h164q26 0 45 21.5t19 52.5v93q0 31 -18.5 52t-45.5 21h-164v-240z" />
<glyph unicode="Q" horiz-adv-x="580" d="M60 160v320q0 66 47 113t113 47h140q67 0 113.5 -47t46.5 -113v-320q0 -67 -46.5 -113.5t-113.5 -46.5h-23v-200h-94v200h-23q-66 0 -113 46.5t-47 113.5zM157 153q0 -31 18.5 -52t44.5 -21h140q27 0 45.5 21t18.5 52v333q0 31 -19 52.5t-45 21.5h-140q-26 0 -44.5 -21.5 t-18.5 -52.5v-333z" />
<glyph unicode="R" horiz-adv-x="560" d="M70 0v640h279q33 0 56.5 -23.5t23.5 -56.5v-190q37 -21 59 -58.5t22 -80.5v-231h-97v237q0 31 -18.5 52.5t-44.5 21.5h-183v-311h-97zM167 391h165v169h-165v-169z" />
<glyph unicode="S" horiz-adv-x="520" d="M60 399v125q0 48 34 82t82 34h274v-80h-269q-10 0 -17.5 -7t-7.5 -17v-140q0 -10 7 -17.5t18 -7.5h163q48 0 82 -33.5t34 -81.5v-140q0 -48 -34 -82t-82 -34h-264v81h259q10 0 17 7t7 17v153q0 11 -7 18t-17 7h-163q-48 0 -82 34t-34 82z" />
<glyph unicode="T" horiz-adv-x="480" d="M30 560v80h420v-80h-161v-560h-97v560h-162z" />
<glyph unicode="U" horiz-adv-x="560" d="M70 160v480h97v-487q0 -31 18.5 -52t44.5 -21h100q26 0 44.5 21t18.5 52v487h97v-480q0 -67 -47 -113.5t-113 -46.5h-100q-66 0 -113 46.5t-47 113.5z" />
<glyph unicode="V" horiz-adv-x="560" d="M70 0v640h97v-560h83q59 0 101 45t42 109v406h97v-400q0 -100 -70.5 -170t-169.5 -70h-180z" />
<glyph unicode="W" horiz-adv-x="880" d="M70 160v480h97v-486q0 -31 18.5 -52.5t44.5 -21.5h161v560h97v-560h162q26 0 44.5 21.5t18.5 52.5v486h97v-480q0 -66 -47 -113t-113 -47h-420q-66 0 -113 47t-47 113z" />
<glyph unicode="X" horiz-adv-x="560" d="M70 0v226q0 35 17.5 65.5t46.5 48.5q-29 18 -46.5 48.5t-17.5 65.5v186h97v-199q0 -25 17.5 -43t43.5 -18h104q26 0 43.5 18t17.5 43v199h97v-186q0 -35 -17.5 -65.5t-46.5 -48.5q29 -18 46.5 -48.5t17.5 -65.5v-226h-97v239q0 25 -17.5 43t-43.5 18h-104 q-26 0 -43.5 -18t-17.5 -43v-239h-97z" />
<glyph unicode="Y" horiz-adv-x="520" d="M50 420v220h97v-226q0 -31 18.5 -52.5t44.5 -21.5h100q26 0 44.5 21.5t18.5 52.5v226h97v-220q0 -67 -46.5 -113.5t-115.5 -46.5v-260h-97v260q-70 0 -115.5 46t-45.5 114z" />
<glyph unicode="Z" horiz-adv-x="620" d="M40 0l371 560h-310v80h479l-371 -560h311v-80h-480z" />
<glyph unicode="[" horiz-adv-x="320" d="M70 -200v920h200v-80h-103v-760h103v-80h-200z" />
<glyph unicode="\" horiz-adv-x="480" d="M30 640h89l331 -640h-90z" />
<glyph unicode="]" horiz-adv-x="320" d="M50 -120h104v760h-104v80h200v-920h-200v80z" />
<glyph unicode="^" horiz-adv-x="476" d="M30 400l159 240h98l159 -240h-97l-111 168l-111 -168h-97z" />
<glyph unicode="_" d="M-10 -80h560v-80h-560v80z" />
<glyph unicode="`" horiz-adv-x="380" d="M90 720h85l101 -160h-85z" />
<glyph unicode="a" horiz-adv-x="550" d="M60 80v130q0 33 23.5 56.5t56.5 23.5h249v110h-307v80h318q33 0 56.5 -23.5t23.5 -56.5v-400h-340q-33 0 -56.5 23.5t-23.5 56.5zM151 80h238v130h-238v-130z" />
<glyph unicode="b" horiz-adv-x="550" d="M70 0v720h90v-240h170q67 0 113.5 -46.5t46.5 -113.5v-160q0 -66 -46.5 -113t-113.5 -47h-260zM160 80h170q27 0 48.5 21.5t21.5 52.5v173q0 31 -21.5 52t-48.5 21h-170v-320z" />
<glyph unicode="c" horiz-adv-x="510" d="M60 160v160q0 67 47 113.5t113 46.5h150q33 0 56.5 -23t23.5 -57v-80h-91v80h-139q-27 0 -48 -21t-21 -52v-173q0 -31 21 -52.5t48 -21.5h224v-80h-224q-66 0 -113 47t-47 113z" />
<glyph unicode="d" horiz-adv-x="550" d="M60 160v160q0 67 47 113.5t113 46.5h169v240h91v-720h-260q-66 0 -113 47t-47 113zM151 154q0 -31 21 -52.5t48 -21.5h169v320h-169q-27 0 -48 -21.5t-21 -52.5v-172z" />
<glyph unicode="e" d="M60 160v160q0 67 47 113.5t113 46.5h100q66 0 113 -46.5t47 -113.5v-110h-329v-56q0 -31 21 -52.5t48 -21.5h233v-80h-233q-66 0 -113 47t-47 113zM151 290h238v37q0 31 -21 52t-48 21h-100q-27 0 -48 -21t-21 -52v-37z" />
<glyph unicode="f" horiz-adv-x="410" d="M30 400v80h80v160q0 33 23 56.5t57 23.5h180v-80h-170v-160h170v-80h-170v-400h-90v400h-80z" />
<glyph unicode="g" horiz-adv-x="550" d="M60 160v160q0 67 46.5 113.5t113.5 46.5h260v-600q0 -33 -23.5 -56.5t-56.5 -23.5h-281v80h271v120h-170q-67 0 -113.5 47t-46.5 113zM150 154q0 -31 21.5 -52.5t48.5 -21.5h170v320h-170q-27 0 -48.5 -21.5t-21.5 -52.5v-172z" />
<glyph unicode="h" d="M70 0v720h90v-240h150q66 0 113 -46.5t47 -113.5v-320h-91v326q0 31 -21 52.5t-48 21.5h-150v-400h-90z" />
<glyph unicode="i" horiz-adv-x="230" d="M70 0v480h90v-480h-90zM70 600v120h90v-120h-90z" />
<glyph unicode="j" horiz-adv-x="230" d="M6 -120h63v600h91v-600q0 -33 -23.5 -56.5t-56.5 -23.5h-74v80zM70 600v120h90v-120h-90z" />
<glyph unicode="k" d="M70 0v720h90v-430h112l119 190h99l-125 -198q48 -17 78.5 -58.5t30.5 -93.5v-130h-91v137q0 30 -21 51.5t-48 21.5h-154v-210h-90z" />
<glyph unicode="l" horiz-adv-x="230" d="M70 0v720h90v-720h-90z" />
<glyph unicode="m" horiz-adv-x="800" d="M70 0v480h500q66 0 113 -47t47 -113v-320h-91v326q0 31 -21 52.5t-48 21.5h-125v-400h-91v400h-194v-400h-90z" />
<glyph unicode="n" d="M70 0v480h240q66 0 113 -46.5t47 -113.5v-320h-91v326q0 31 -21 52.5t-48 21.5h-150v-400h-90z" />
<glyph unicode="o" d="M60 160v160q0 67 47 113.5t113 46.5h100q66 0 113 -46.5t47 -113.5v-160q0 -66 -47 -113t-113 -47h-100q-66 0 -113 47t-47 113zM151 154q0 -31 21 -52.5t48 -21.5h100q27 0 48 21.5t21 52.5v172q0 31 -21 52.5t-48 21.5h-100q-27 0 -48 -21.5t-21 -52.5v-172z" />
<glyph unicode="p" horiz-adv-x="550" d="M70 -200v680h260q67 0 113.5 -46.5t46.5 -113.5v-160q0 -66 -46.5 -113t-113.5 -47h-170v-200h-90zM160 80h170q27 0 48.5 21.5t21.5 52.5v172q0 31 -21.5 52.5t-48.5 21.5h-170v-320z" />
<glyph unicode="q" horiz-adv-x="550" d="M60 160v160q0 67 47 113.5t113 46.5h100q66 0 113 -46.5t47 -113.5v-520h-91v200h-169q-66 0 -113 47t-47 113zM150 154q0 -31 21.5 -52.5t48.5 -21.5h169v246q0 31 -21 52.5t-48 21.5h-100q-27 0 -48.5 -21.5t-21.5 -52.5v-172z" />
<glyph unicode="r" horiz-adv-x="460" d="M70 0v480h270q34 0 57 -23.5t23 -56.5v-120h-91v120h-168v-400h-91z" />
<glyph unicode="s" horiz-adv-x="490" d="M60 290v110q0 33 23.5 56.5t56.5 23.5h283v-80h-272v-110h199q33 0 56.5 -23.5t23.5 -56.5v-130q0 -33 -23.5 -56.5t-56.5 -23.5h-274v80h263v130h-199q-33 0 -56.5 23.5t-23.5 56.5z" />
<glyph unicode="t" horiz-adv-x="410" d="M30 400v80h80v160h90v-160h170v-80h-170v-320h170v-80h-180q-34 0 -57 23.5t-23 56.5v320h-80z" />
<glyph unicode="u" d="M70 160v320h91v-326q0 -31 21 -52.5t48 -21.5h80q27 0 48 21.5t21 52.5v326h91v-320q0 -67 -47 -113.5t-113 -46.5h-80q-66 0 -113 46.5t-47 113.5z" />
<glyph unicode="v" d="M70 0v480h90v-400h150q27 0 48 21.5t21 52.5v326h91v-320q0 -67 -47 -113.5t-113 -46.5h-240z" />
<glyph unicode="w" horiz-adv-x="800" d="M70 160v320h96v-326q0 -31 19 -52.5t45 -21.5h122v400h96v-400h122q26 0 45 21.5t19 52.5v326h96v-320q0 -66 -46.5 -113t-113.5 -47h-340q-67 0 -113.5 47t-46.5 113z" />
<glyph unicode="x" d="M70 0v139q0 35 17.5 65.5t46.5 48.5q-29 18 -46.5 48.5t-17.5 65.5v113h97v-126q0 -26 17.5 -43.5t43.5 -17.5h84q26 0 43.5 17.5t17.5 43.5v126h97v-113q0 -35 -17.5 -65.5t-46.5 -48.5q29 -18 46.5 -48.5t17.5 -65.5v-139h-97v152q0 26 -17.5 43.5t-43.5 17.5h-84 q-26 0 -43.5 -17.5t-17.5 -43.5v-152h-97z" />
<glyph unicode="y" d="M70 160v320h90v-326q0 -31 21.5 -52.5t48.5 -21.5h149v400h91v-600q0 -33 -23.5 -56.5t-56.5 -23.5h-74v80h63v120h-149q-67 0 -113.5 47t-46.5 113z" />
<glyph unicode="z" horiz-adv-x="510" d="M40 0l265 400h-233v80h398l-265 -400h234v-80h-399z" />
<glyph unicode="{" horiz-adv-x="290" d="M0 260l79 79v221q0 66 47.5 113t113.5 47v-80q-27 0 -46 -21.5t-19 -52.5v-233l-73 -73l73 -74v-233q0 -30 19 -51.5t46 -21.5v-80q-66 0 -113.5 47t-47.5 113v221z" />
<glyph unicode="|" horiz-adv-x="300" d="M110 -200v920h80v-920h-80z" />
<glyph unicode="}" horiz-adv-x="290" d="M50 -120q27 0 46 21.5t19 51.5v233l73 74l-73 73v233q0 31 -19 52.5t-46 21.5v80q66 0 113.5 -47t47.5 -113v-221l79 -79l-79 -79v-221q0 -66 -47.5 -113t-113.5 -47v80z" />
<glyph unicode="~" horiz-adv-x="500" d="M50 240v80h160q0 33 23.5 56.5t56.5 23.5h160v-80h-160q0 -34 -23.5 -57t-56.5 -23h-160z" />
<glyph unicode="&#xa1;" horiz-adv-x="266" d="M70 -160v440h96v-440h-96zM70 360v120h96v-120h-96z" />
<glyph unicode="&#xa2;" horiz-adv-x="420" d="M50 240v80q0 66 46.5 112.5t112.5 47.5v80h80v-80h81v-80h-160q-27 0 -48.5 -21.5t-21.5 -52.5v-93q0 -31 21.5 -52t48.5 -21h160v-80h-81v-80h-80v80q-66 0 -112.5 46.5t-46.5 113.5z" />
<glyph unicode="&#xa3;" horiz-adv-x="460" d="M50 160v80h17q26 0 44.5 21t18.5 52v47h-80v80h81v40q0 66 46.5 113t113.5 47h80v-80h-80q-27 0 -48.5 -21.5t-21.5 -52.5v-46h149v-80h-150v-40q0 -46 -21 -80h211v-80h-360z" />
<glyph unicode="&#xa4;" horiz-adv-x="550" d="M50 165l72 72v188l-72 72l57 56l72 -73h192l73 73l56 -56l-72 -73v-187l72 -72l-56 -57l-72 73h-194l-71 -73zM196 255h158v151h-158v-151z" />
<glyph unicode="&#xa5;" horiz-adv-x="560" d="M30 640h99l151 -228l151 228h99l-159 -240h95v-80h-136v-80h136v-80h-136v-160h-94v160h-135v80h135v80h-135v80h88z" />
<glyph unicode="&#xa6;" horiz-adv-x="220" d="M70 160h80v-360h-80v360zM70 280v360h80v-360h-80z" />
<glyph unicode="&#xa7;" horiz-adv-x="460" d="M70 0h223v160h-143q-33 0 -56.5 23.5t-23.5 56.5v400q0 33 23.5 56.5t56.5 23.5h240v-80h-224v-160h144q33 0 56.5 -23.5t23.5 -56.5v-400q0 -33 -23.5 -56.5t-56.5 -23.5h-240v80zM166 240h127v160h-127v-160z" />
<glyph unicode="&#xa8;" horiz-adv-x="380" d="M74 568v72h72v-72h-72zM234 568v72h72v-72h-72z" />
<glyph unicode="&#xa9;" horiz-adv-x="760" d="M70 240v160q0 100 70 170t170 70h140q100 0 170 -70t70 -170v-160q0 -99 -70 -169.5t-170 -70.5h-140q-100 0 -170 70.5t-70 169.5zM150 230q0 -63 46.5 -106.5t112.5 -43.5h142q66 0 112.5 43.5t46.5 106.5v181q0 63 -46.5 106t-112.5 43h-142q-66 0 -112.5 -43 t-46.5 -106v-181zM240 240v160q0 33 23 56.5t57 23.5h190v-77h-187v-166h187v-77h-190q-33 0 -56.5 23.5t-23.5 56.5z" />
<glyph unicode="&#xaa;" horiz-adv-x="380" d="M40 453v89q0 22 15.5 37.5t37.5 15.5h183v68h-221v57h228q23 0 40 -17t17 -40v-263h-247q-22 0 -37.5 15.5t-15.5 37.5zM105 457h171v81h-171v-81z" />
<glyph unicode="&#xab;" horiz-adv-x="610" d="M0 296l240 240l57 -56l-183 -184l183 -183l-57 -57zM263 296l240 240l57 -56l-183 -184l183 -183l-57 -57z" />
<glyph unicode="&#xac;" d="M70 240v80h400v-200h-80v120h-320z" />
<glyph unicode="&#xad;" horiz-adv-x="340" d="M50 240v80h240v-80h-240z" />
<glyph unicode="&#xae;" horiz-adv-x="550" d="M56 532q0 91 64 155t155 64t155.5 -64t64.5 -155t-64.5 -155.5t-155.5 -64.5t-155 64.5t-64 155.5zM157 403h53v88h145v-88h54v88q0 19 -12.5 33.5t-30.5 18.5v71q0 22 -15.5 37.5t-37.5 15.5h-156v-264zM210 544v70h101v-70h-101z" />
<glyph unicode="&#xaf;" horiz-adv-x="380" d="M70 568v72h240v-72h-240z" />
<glyph unicode="&#xb0;" horiz-adv-x="340" d="M30 440v120q0 33 23.5 56.5t56.5 23.5h120q34 0 57 -23.5t23 -56.5v-120q0 -33 -23 -56.5t-57 -23.5h-120q-33 0 -56.5 23.5t-23.5 56.5zM110 440h120v120h-120v-120z" />
<glyph unicode="&#xb1;" d="M70 0v80h400v-80h-400zM70 320v80h160v160h80v-160h160v-80h-160v-160h-80v160h-160z" />
<glyph unicode="&#xb2;" horiz-adv-x="440" d="M50 240v160q0 33 23.5 56.5t56.5 23.5h175v86h-239v74h244q33 0 56.5 -23.5t23.5 -56.5v-74q0 -33 -23.5 -56.5t-56.5 -23.5h-175v-92h240v-74h-325z" />
<glyph unicode="&#xb3;" horiz-adv-x="440" d="M50 240v74h254v89h-254v74h212v89h-212v74h297v-169q43 -22 43 -71v-80q0 -33 -23.5 -56.5t-56.5 -23.5h-260z" />
<glyph unicode="&#xb4;" horiz-adv-x="380" d="M104 560l101 160h85l-101 -160h-85z" />
<glyph unicode="&#xb6;" horiz-adv-x="500" d="M50 481v80q0 33 23.5 56.5t56.5 23.5h300v-480h-74v400h-92v-400h-74v240h-60q-33 0 -56.5 23.5t-23.5 56.5z" />
<glyph unicode="&#xb7;" horiz-adv-x="280" d="M90 250v120h100v-120h-100z" />
<glyph unicode="&#xb8;" horiz-adv-x="380" d="M90 -128h88v138h72v-130q0 -33 -23.5 -56.5t-56.5 -23.5h-80v72z" />
<glyph unicode="&#xb9;" horiz-adv-x="240" d="M20 566v74h170v-400h-85v326h-85z" />
<glyph unicode="&#xba;" horiz-adv-x="390" d="M50 507v106q0 45 31.5 76t75.5 31h76q44 0 75.5 -31t31.5 -76v-106q0 -44 -31.5 -75.5t-75.5 -31.5h-76q-44 0 -75.5 31.5t-31.5 75.5zM114 507q0 -21 14.5 -35.5t32.5 -14.5h68q18 0 32 14.5t14 35.5v106q0 21 -14 35.5t-32 14.5h-68q-19 0 -33 -14.5t-14 -35.5v-106z " />
<glyph unicode="&#xbb;" horiz-adv-x="610" d="M50 113l183 183l-183 184l57 56l240 -240l-240 -240zM313 113l183 183l-183 184l57 56l240 -240l-240 -240z" />
<glyph unicode="&#xbc;" horiz-adv-x="830" d="M20 566v74h172v-400h-86v326h-86zM147 0l332 640h89l-331 -640h-90zM399 80l165 320h93l-128 -246h111v106h86v-106h74v-74h-74v-80h-86v80h-241z" />
<glyph unicode="&#xbd;" horiz-adv-x="890" d="M20 566v74h171v-400h-85v326h-86zM147 0l331 640h90l-332 -640h-89zM499 0v160q0 33 23.5 56.5t56.5 23.5h176v86h-240v74h245q33 0 56.5 -23.5t23.5 -56.5v-74q0 -33 -23.5 -56.5t-56.5 -23.5h-176v-92h241v-74h-326z" />
<glyph unicode="&#xbe;" horiz-adv-x="990" d="M50 240v74h254v89h-254v74h212v89h-212v74h297v-169q43 -22 43 -71v-80q0 -33 -23.5 -56.5t-56.5 -23.5h-260zM308 0l332 640h89l-331 -640h-90zM560 80l165 320h93l-128 -246h110v106h86v-106h74v-74h-74v-80h-86v80h-240z" />
<glyph unicode="&#xbf;" horiz-adv-x="440" d="M50 80q0 33 23.5 56.5t56.5 23.5h104v120h96v-120q0 -34 -23 -57t-57 -23h-103v-160h223v-80h-240q-33 0 -56.5 23t-23.5 57v160zM234 360v120h96v-120h-96z" />
<glyph unicode="&#xc0;" horiz-adv-x="560" d="M70 0v480q0 67 47 113.5t113 46.5h100q66 0 113 -46.5t47 -113.5v-480h-97v240h-226v-240h-97zM141 880h85l101 -160h-85zM167 320h226v166q0 31 -18.5 52.5t-44.5 21.5h-100q-26 0 -44.5 -21.5t-18.5 -52.5v-166z" />
<glyph unicode="&#xc1;" horiz-adv-x="560" d="M70 0v480q0 67 47 113.5t113 46.5h100q66 0 113 -46.5t47 -113.5v-480h-97v240h-226v-240h-97zM167 320h226v166q0 31 -18.5 52.5t-44.5 21.5h-100q-26 0 -44.5 -21.5t-18.5 -52.5v-166zM231 720l101 160h85l-101 -160h-85z" />
<glyph unicode="&#xc2;" horiz-adv-x="560" d="M70 0v480q0 67 47 113.5t113 46.5h100q66 0 113 -46.5t47 -113.5v-480h-97v240h-226v-240h-97zM142 720l101 160h75l101 -160h-81l-58 92l-58 -92h-80zM167 320h226v166q0 31 -18.5 52.5t-44.5 21.5h-100q-26 0 -44.5 -21.5t-18.5 -52.5v-166z" />
<glyph unicode="&#xc3;" horiz-adv-x="560" d="M70 0v480q0 67 47 113.5t113 46.5h100q66 0 113 -46.5t47 -113.5v-480h-97v240h-226v-240h-97zM110 800v72h123q30 0 51 -21t21 -51v-8h125v-72h-125q-29 0 -50.5 21t-21.5 51v8h-123zM167 320h226v166q0 31 -18.5 52.5t-44.5 21.5h-100q-26 0 -44.5 -21.5t-18.5 -52.5 v-166z" />
<glyph unicode="&#xc4;" horiz-adv-x="560" d="M70 0v480q0 67 47 113.5t113 46.5h100q66 0 113 -46.5t47 -113.5v-480h-97v240h-226v-240h-97zM164 728v72h72v-72h-72zM167 320h226v166q0 31 -18.5 52.5t-44.5 21.5h-100q-26 0 -44.5 -21.5t-18.5 -52.5v-166zM324 728v72h72v-72h-72z" />
<glyph unicode="&#xc5;" horiz-adv-x="560" d="M70 0v480q0 46 24.5 84.5t65.5 58.5v97q0 33 23.5 56.5t56.5 23.5h80q33 0 56.5 -23.5t23.5 -56.5v-96q41 -20 65.5 -58.5t24.5 -85.5v-480h-97v240h-226v-240h-97zM167 320h226v166q0 31 -18.5 52.5t-44.5 21.5h-100q-26 0 -44.5 -21.5t-18.5 -52.5v-166zM227 640h106 v93h-106v-93z" />
<glyph unicode="&#xc6;" horiz-adv-x="800" d="M70 0v480q0 66 46.5 113t113.5 47h518v-80h-261v-180h263v-80h-263v-156q0 -27 18.5 -45.5t45.5 -18.5h197v-80h-197q-67 0 -113.5 46.5t-46.5 113.5v80h-225v-240h-96zM166 320h225v240h-161q-26 0 -45 -21.5t-19 -52.5v-166z" />
<glyph unicode="&#xc7;" horiz-adv-x="570" d="M60 240v240q0 67 47 113.5t113 46.5h174q48 0 82 -34t34 -82v-84h-97v95q0 11 -7 18t-17 7h-169q-26 0 -44.5 -21.5t-18.5 -52.5v-256q0 -63 42 -106.5t101 -43.5h210v-80h-124v-120q0 -33 -23.5 -56.5t-56.5 -23.5h-80v72h88v128h-14q-99 0 -169.5 70.5t-70.5 169.5z " />
<glyph unicode="&#xc8;" horiz-adv-x="490" d="M70 80v560h358v-80h-261v-180h263v-80h-263v-220h261v-80h-278q-33 0 -56.5 23.5t-23.5 56.5zM141 880h85l101 -160h-85z" />
<glyph unicode="&#xc9;" horiz-adv-x="490" d="M70 80v560h358v-80h-261v-180h263v-80h-263v-220h261v-80h-278q-33 0 -56.5 23.5t-23.5 56.5zM211 720l101 160h85l-101 -160h-85z" />
<glyph unicode="&#xca;" horiz-adv-x="490" d="M70 80v560h358v-80h-261v-180h263v-80h-263v-220h261v-80h-278q-33 0 -56.5 23.5t-23.5 56.5zM122 720l101 160h75l101 -160h-81l-58 92l-58 -92h-80z" />
<glyph unicode="&#xcb;" horiz-adv-x="490" d="M70 80v560h358v-80h-261v-180h263v-80h-263v-220h261v-80h-278q-33 0 -56.5 23.5t-23.5 56.5zM150 728v72h72v-72h-72zM310 728v72h72v-72h-72z" />
<glyph unicode="&#xcc;" horiz-adv-x="237" d="M-10 880h80l106 -160h-85zM70 0v640h97v-640h-97z" />
<glyph unicode="&#xcd;" horiz-adv-x="237" d="M61 720l101 160h85l-101 -160h-85zM70 0v640h97v-640h-97z" />
<glyph unicode="&#xce;" horiz-adv-x="237" d="M-20 720l101 160h75l101 -160h-81l-58 92l-58 -92h-80zM70 0v640h97v-640h-97z" />
<glyph unicode="&#xcf;" horiz-adv-x="237" d="M2 728v72h72v-72h-72zM70 0v640h97v-640h-97zM162 728v72h72v-72h-72z" />
<glyph unicode="&#xd0;" horiz-adv-x="607" d="M10 290v80h80v270h217q100 0 170 -70t70 -170v-160q0 -99 -70 -169.5t-170 -70.5h-217v290h-80zM187 80h120q60 0 102 43.5t42 106.5v181q0 63 -42 106t-102 43h-120v-190h118v-80h-118v-210z" />
<glyph unicode="&#xd1;" horiz-adv-x="580" d="M70 0v640h55q49 0 69 -38l219 -420v458h97v-640h-55q-49 0 -69 38l-219 421v-459h-97zM130 800v72h123q30 0 51 -21t21 -51v-8h125v-72h-125q-29 0 -50.5 21t-21.5 51v8h-123z" />
<glyph unicode="&#xd2;" horiz-adv-x="580" d="M60 160v320q0 66 47 113t113 47h140q67 0 113.5 -47t46.5 -113v-320q0 -67 -46.5 -113.5t-113.5 -46.5h-140q-66 0 -113 46.5t-47 113.5zM153 880h85l101 -160h-85zM157 153q0 -31 18.5 -52t44.5 -21h140q27 0 45.5 21t18.5 52v333q0 31 -19 52.5t-45 21.5h-140 q-26 0 -44.5 -21.5t-18.5 -52.5v-333z" />
<glyph unicode="&#xd3;" horiz-adv-x="580" d="M60 160v320q0 66 47 113t113 47h140q67 0 113.5 -47t46.5 -113v-320q0 -67 -46.5 -113.5t-113.5 -46.5h-140q-66 0 -113 46.5t-47 113.5zM157 153q0 -31 18.5 -52t44.5 -21h140q27 0 45.5 21t18.5 52v333q0 31 -19 52.5t-45 21.5h-140q-26 0 -44.5 -21.5t-18.5 -52.5 v-333zM241 720l101 160h85l-101 -160h-85z" />
<glyph unicode="&#xd4;" horiz-adv-x="580" d="M60 160v320q0 66 47 113t113 47h140q67 0 113.5 -47t46.5 -113v-320q0 -67 -46.5 -113.5t-113.5 -46.5h-140q-66 0 -113 46.5t-47 113.5zM152 720l101 160h75l101 -160h-81l-58 92l-58 -92h-80zM157 153q0 -31 18.5 -52t44.5 -21h140q27 0 45.5 21t18.5 52v333 q1 31 -18.5 52.5t-45.5 21.5h-140q-26 0 -44.5 -21.5t-18.5 -52.5v-333z" />
<glyph unicode="&#xd5;" horiz-adv-x="580" d="M60 160v320q0 66 47 113t113 47h140q67 0 113.5 -47t46.5 -113v-320q0 -67 -46.5 -113.5t-113.5 -46.5h-140q-66 0 -113 46.5t-47 113.5zM130 800v72h123q30 0 51 -21t21 -51v-8h125v-72h-125q-29 0 -50.5 21t-21.5 51v8h-123zM157 153q0 -31 18.5 -52t44.5 -21h140 q27 0 45.5 21t18.5 52v333q0 31 -19 52.5t-45 21.5h-140q-26 0 -44.5 -21.5t-18.5 -52.5v-333z" />
<glyph unicode="&#xd6;" horiz-adv-x="580" d="M60 160v320q0 66 47 113t113 47h140q67 0 113.5 -47t46.5 -113v-320q0 -67 -46.5 -113.5t-113.5 -46.5h-140q-66 0 -113 46.5t-47 113.5zM157 153q0 -31 18.5 -52t44.5 -21h140q27 0 45.5 21t18.5 52v333q0 31 -19 52.5t-45 21.5h-140q-26 0 -44.5 -21.5t-18.5 -52.5 v-333zM174 728v72h72v-72h-72zM334 728v72h72v-72h-72z" />
<glyph unicode="&#xd7;" horiz-adv-x="510" d="M50 130l149 148l-149 149l57 56l148 -148l149 148l56 -56l-148 -149l148 -148l-56 -57l-149 149l-148 -149z" />
<glyph unicode="&#xd8;" horiz-adv-x="580" d="M50 25l34 51q-24 38 -24 84v320q0 66 47 113t113 47h140q46 0 84 -25l26 39l60 -40l-34 -51q24 -38 24 -83v-320q0 -67 -47 -113.5t-113 -46.5h-140q-45 0 -85 24l-25 -39zM157 186l241 359q-18 15 -38 15h-140q-26 0 -44.5 -21.5t-18.5 -52.5v-300zM182 94 q17 -14 38 -14h140q26 0 44.5 21t18.5 52v301z" />
<glyph unicode="&#xd9;" horiz-adv-x="557" d="M70 160v480h97v-487q0 -31 18.5 -52t44.5 -21h97q26 0 44.5 21t18.5 52v487h97v-480q0 -67 -47 -113.5t-113 -46.5h-97q-66 0 -113 46.5t-47 113.5zM141 880h85l101 -160h-85z" />
<glyph unicode="&#xda;" horiz-adv-x="557" d="M70 160v480h97v-487q0 -31 18.5 -52t44.5 -21h97q26 0 44.5 21t18.5 52v487h97v-480q0 -67 -47 -113.5t-113 -46.5h-97q-66 0 -113 46.5t-47 113.5zM221 720l101 160h85l-101 -160h-85z" />
<glyph unicode="&#xdb;" horiz-adv-x="557" d="M70 160v480h97v-487q0 -31 18.5 -52t44.5 -21h97q26 0 44.5 21t18.5 52v487h97v-480q0 -67 -47 -113.5t-113 -46.5h-97q-66 0 -113 46.5t-47 113.5zM140 720l101 160h75l101 -160h-81l-58 92l-58 -92h-80z" />
<glyph unicode="&#xdc;" horiz-adv-x="557" d="M70 160v480h97v-487q0 -31 18.5 -52t44.5 -21h97q26 0 44.5 21t18.5 52v487h97v-480q0 -67 -47 -113.5t-113 -46.5h-97q-66 0 -113 46.5t-47 113.5zM162 728v72h72v-72h-72zM322 728v72h72v-72h-72z" />
<glyph unicode="&#xdd;" horiz-adv-x="520" d="M50 420v220h97v-226q0 -31 18.5 -52.5t44.5 -21.5h100q26 0 44.5 21.5t18.5 52.5v226h97v-220q0 -67 -46.5 -113.5t-115.5 -46.5v-260h-97v260q-70 0 -115.5 46t-45.5 114zM201 720l101 160h85l-101 -160h-85z" />
<glyph unicode="&#xde;" d="M70 0v640h96v-120h164q67 0 113.5 -46.5t46.5 -113.5v-80q0 -66 -46.5 -113t-113.5 -47h-164v-120h-96zM166 200h164q26 0 45 21.5t19 52.5v93q0 31 -18.5 52t-45.5 21h-164v-240z" />
<glyph unicode="&#xdf;" horiz-adv-x="570" d="M20 320v80h80v125q0 48 34 81.5t82 33.5h108q48 0 82 -33.5t34 -81.5v-105q37 -21 58.5 -58t21.5 -81v-121q0 -66 -46.5 -113t-113.5 -47h-80v80h80q27 0 48.5 21.5t21.5 52.5v133q0 31 -21.5 52.5t-48.5 21.5h-11v164q0 14 -10.5 24.5t-25.5 10.5h-86q-15 0 -25.5 -10.5 t-10.5 -24.5v-525h-91v320h-80z" />
<glyph unicode="&#xe0;" horiz-adv-x="550" d="M60 80v130q0 33 23.5 56.5t56.5 23.5h249v110h-307v80h318q33 0 56.5 -23.5t23.5 -56.5v-400h-340q-33 0 -56.5 23.5t-23.5 56.5zM140 720h85l101 -160h-85zM151 80h238v130h-238v-130z" />
<glyph unicode="&#xe1;" horiz-adv-x="550" d="M60 80v130q0 33 23.5 56.5t56.5 23.5h249v110h-307v80h318q33 0 56.5 -23.5t23.5 -56.5v-400h-340q-33 0 -56.5 23.5t-23.5 56.5zM151 80h238v130h-238v-130zM194 560l101 160h85l-101 -160h-85z" />
<glyph unicode="&#xe2;" horiz-adv-x="550" d="M60 80v130q0 33 23.5 56.5t56.5 23.5h249v110h-307v80h318q33 0 56.5 -23.5t23.5 -56.5v-400h-340q-33 0 -56.5 23.5t-23.5 56.5zM128 560l101 160h75l101 -160h-81l-58 92l-58 -92h-80zM151 80h238v130h-238v-130z" />
<glyph unicode="&#xe3;" horiz-adv-x="550" d="M60 80v130q0 33 23.5 56.5t56.5 23.5h249v110h-307v80h318q33 0 56.5 -23.5t23.5 -56.5v-400h-340q-33 0 -56.5 23.5t-23.5 56.5zM107 648v72h123q30 0 51 -21t21 -51v-8h125v-72h-125q-29 0 -50.5 21t-21.5 51v8h-123zM151 80h238v130h-238v-130z" />
<glyph unicode="&#xe4;" horiz-adv-x="550" d="M60 80v130q0 33 23.5 56.5t56.5 23.5h249v110h-307v80h318q33 0 56.5 -23.5t23.5 -56.5v-400h-340q-33 0 -56.5 23.5t-23.5 56.5zM148 568v72h72v-72h-72zM151 80h238v130h-238v-130zM308 568v72h72v-72h-72z" />
<glyph unicode="&#xe5;" horiz-adv-x="550" d="M60 80v130q0 33 23.5 56.5t56.5 23.5h249v110h-307v80h318q33 0 56.5 -23.5t23.5 -56.5v-400h-340q-33 0 -56.5 23.5t-23.5 56.5zM144 640v80q0 33 23.5 56.5t56.5 23.5h80q33 0 57 -23.5t28 -56.5l-5 -80q0 -33 -23.5 -56.5t-56.5 -23.5h-80q-33 0 -56.5 23.5 t-23.5 56.5zM151 80h238v130h-238v-130zM211 627h106v106h-106v-106z" />
<glyph unicode="&#xe6;" horiz-adv-x="870" d="M60 80v130q0 34 23 57t57 23h250v37q0 31 -18.5 52t-44.5 21h-246v80h246q66 0 111 -45q47 45 112 45h100q66 0 113 -46.5t47 -113.5v-110h-329v-56q0 -31 21 -52.5t48 -21.5h233v-80h-233q-64 0 -112 46q-46 -46 -111 -46h-187q-34 0 -57 23.5t-23 56.5zM150 80h177 q26 0 44.5 21.5t18.5 52.5v56h-240v-130zM481 290h238v37q0 31 -18.5 52t-44.5 21h-106q-27 0 -48 -21t-21 -52v-37z" />
<glyph unicode="&#xe7;" horiz-adv-x="510" d="M60 160v160q0 66 50 113t117 47h143q33 0 56.5 -23t23.5 -57v-80h-91v80h-132q-28 0 -52 -21.5t-24 -51.5v-173q0 -30 24 -52t52 -22h217v-80h-118v-120q0 -33 -23.5 -56.5t-56.5 -23.5h-80v72h88v128h-27q-67 0 -117 47.5t-50 112.5z" />
<glyph unicode="&#xe8;" d="M60 160v160q0 67 47 113.5t113 46.5h100q66 0 113 -46.5t47 -113.5v-110h-329v-56q0 -31 21 -52.5t48 -21.5h233v-80h-233q-66 0 -113 47t-47 113zM150 720h85l101 -160h-85zM151 290h238v37q0 31 -21 52t-48 21h-100q-27 0 -48 -21t-21 -52v-37z" />
<glyph unicode="&#xe9;" d="M60 160v160q0 67 47 113.5t113 46.5h100q66 0 113 -46.5t47 -113.5v-110h-329v-56q0 -31 21 -52.5t48 -21.5h233v-80h-233q-66 0 -113 47t-47 113zM151 290h238v37q0 31 -21 52t-48 21h-100q-27 0 -48 -21t-21 -52v-37zM207 560l101 160h85l-101 -160h-85z" />
<glyph unicode="&#xea;" d="M60 160v160q0 67 47 113.5t113 46.5h100q66 0 113 -46.5t47 -113.5v-110h-329v-56q0 -31 21 -52.5t48 -21.5h233v-80h-233q-66 0 -113 47t-47 113zM138 560l101 160h75l101 -160h-81l-58 92l-58 -92h-80zM151 290h238v37q0 31 -21 52t-48 21h-100q-27 0 -48 -21t-21 -52 v-37z" />
<glyph unicode="&#xeb;" d="M60 160v160q0 67 47 113.5t113 46.5h100q66 0 113 -46.5t47 -113.5v-110h-329v-56q0 -31 21 -52.5t48 -21.5h233v-80h-233q-66 0 -113 47t-47 113zM151 290h238v37q0 31 -21 52t-48 21h-100q-27 0 -48 -21t-21 -52v-37zM156 568v72h72v-72h-72zM316 568v72h72v-72h-72z " />
<glyph unicode="&#xec;" horiz-adv-x="230" d="M-10 720h80l106 -160h-85zM70 0v480h90v-480h-90z" />
<glyph unicode="&#xed;" horiz-adv-x="230" d="M54 560l101 160h85l-101 -160h-85zM70 0v480h90v-480h-90z" />
<glyph unicode="&#xee;" horiz-adv-x="230" d="M-24 560l101 160h75l101 -160h-81l-58 92l-58 -92h-80zM70 0v480h90v-480h-90z" />
<glyph unicode="&#xef;" horiz-adv-x="230" d="M-1 568v72h72v-72h-72zM70 0v480h90v-480h-90zM159 568v72h72v-72h-72z" />
<glyph unicode="&#xf0;" horiz-adv-x="567" d="M60 160v160q0 66 47 113t113 47h166v80h-78v80h78v80h91v-80h80v-80h-80v-400q0 -66 -47 -113t-113 -47h-97q-66 0 -113 47t-47 113zM151 154q0 -31 21 -52.5t48 -21.5h97q27 0 48 21.5t21 52.5v246h-166q-27 0 -48 -21.5t-21 -52.5v-172z" />
<glyph unicode="&#xf1;" d="M70 0v480h240q66 0 113 -46.5t47 -113.5v-320h-91v326q0 31 -21 52.5t-48 21.5h-150v-400h-90zM91 648v72h123q30 0 51 -21t21 -51v-8h125v-72h-125q-29 0 -50.5 21t-21.5 51v8h-123z" />
<glyph unicode="&#xf2;" d="M60 160v160q0 67 47 113.5t113 46.5h100q66 0 113 -46.5t47 -113.5v-160q0 -66 -47 -113t-113 -47h-100q-66 0 -113 47t-47 113zM141 720h85l101 -160h-85zM151 154q0 -31 21 -52.5t48 -21.5h100q27 0 48 21.5t21 52.5v172q0 31 -21 52.5t-48 21.5h-100q-27 0 -48 -21.5 t-21 -52.5v-172z" />
<glyph unicode="&#xf3;" d="M60 160v160q0 67 47 113.5t113 46.5h100q66 0 113 -46.5t47 -113.5v-160q0 -66 -47 -113t-113 -47h-100q-66 0 -113 47t-47 113zM151 154q0 -31 21 -52.5t48 -21.5h100q27 0 48 21.5t21 52.5v172q0 31 -21 52.5t-48 21.5h-100q-27 0 -48 -21.5t-21 -52.5v-172zM224 560 l101 160h85l-101 -160h-85z" />
<glyph unicode="&#xf4;" d="M60 160v160q0 67 47 113.5t113 46.5h100q66 0 113 -46.5t47 -113.5v-160q0 -66 -47 -113t-113 -47h-100q-66 0 -113 47t-47 113zM131 560l101 160h75l101 -160h-81l-58 92l-58 -92h-80zM151 154q0 -31 21 -52.5t48 -21.5h100q27 0 48 21.5t21 52.5v172q0 31 -21 52.5 t-48 21.5h-100q-27 0 -48 -21.5t-21 -52.5v-172z" />
<glyph unicode="&#xf5;" d="M60 160v160q0 67 47 113.5t113 46.5h100q66 0 113 -46.5t47 -113.5v-160q0 -66 -47 -113t-113 -47h-100q-66 0 -113 47t-47 113zM109 648v72h123q30 0 51 -21t21 -51v-8h125v-72h-125q-29 0 -50.5 21t-21.5 51v8h-123zM151 154q0 -31 21 -52.5t48 -21.5h100q27 0 48 21.5 t21 52.5v172q0 31 -21 52.5t-48 21.5h-100q-27 0 -48 -21.5t-21 -52.5v-172z" />
<glyph unicode="&#xf6;" d="M60 160v160q0 67 47 113.5t113 46.5h100q66 0 113 -46.5t47 -113.5v-160q0 -66 -47 -113t-113 -47h-100q-66 0 -113 47t-47 113zM151 154q0 -31 21 -52.5t48 -21.5h100q27 0 48 21.5t21 52.5v172q-1 31 -21.5 52.5t-47.5 21.5h-100q-27 0 -48 -21.5t-21 -52.5v-172z M154 568v72h72v-72h-72zM314 568v72h72v-72h-72z" />
<glyph unicode="&#xf7;" d="M70 240v80h400v-80h-400zM222 80v80h96v-80h-96zM222 400v80h96v-80h-96z" />
<glyph unicode="&#xf8;" d="M60 160v160q0 67 47 113.5t113 46.5h100q40 0 75 -18l25 33l57 -44l-28 -36q31 -44 31 -95v-160q0 -66 -47 -113t-113 -47h-100q-40 0 -75 19l-25 -33l-58 44l28 37q-30 41 -30 93zM151 146l193 249q-10 5 -24 5h-100q-27 0 -48 -21.5t-21 -52.5v-180zM196 86 q10 -6 24 -6h100q27 0 48 21.5t21 52.5v172q0 6 -1 9z" />
<glyph unicode="&#xf9;" d="M70 160v320h91v-326q0 -31 21 -52.5t48 -21.5h80q27 0 48 21.5t21 52.5v326h91v-320q0 -67 -47 -113.5t-113 -46.5h-80q-66 0 -113 46.5t-47 113.5zM140 720h85l101 -160h-85z" />
<glyph unicode="&#xfa;" d="M70 160v320h91v-326q0 -31 21 -52.5t48 -21.5h80q27 0 48 21.5t21 52.5v326h91v-320q0 -67 -47 -113.5t-113 -46.5h-80q-66 0 -113 46.5t-47 113.5zM226 560l101 160h85l-101 -160h-85z" />
<glyph unicode="&#xfb;" d="M70 160v320h91v-326q0 -31 21 -52.5t48 -21.5h80q27 0 48 21.5t21 52.5v326h91v-320q0 -67 -47 -113.5t-113 -46.5h-80q-66 0 -113 46.5t-47 113.5zM132 560l101 160h75l101 -160h-81l-58 92l-58 -92h-80z" />
<glyph unicode="&#xfc;" d="M70 160v320h91v-326q0 -31 21 -52.5t48 -21.5h80q27 0 48 21.5t21 52.5v326h91v-320q0 -67 -47 -113.5t-113 -46.5h-80q-66 0 -113 46.5t-47 113.5zM154 568v72h72v-72h-72zM314 568v72h72v-72h-72z" />
<glyph unicode="&#xfd;" d="M70 160v320h90v-326q0 -31 21.5 -52.5t48.5 -21.5h149v400h91v-600q0 -33 -23.5 -56.5t-56.5 -23.5h-74v80h63v120h-149q-67 0 -113.5 47t-46.5 113zM225 560l101 160h85l-101 -160h-85z" />
<glyph unicode="&#xfe;" horiz-adv-x="550" d="M70 -200v920h91v-240h169q66 0 113 -46.5t47 -113.5v-160q0 -66 -47 -113t-113 -47h-169v-200h-91zM161 80h169q27 0 48 21.5t21 52.5v173q0 31 -21 52t-48 21h-169v-320z" />
<glyph unicode="&#xff;" d="M70 160v320h90v-326q0 -31 21.5 -52.5t48.5 -21.5h149v400h91v-600q0 -33 -23.5 -56.5t-56.5 -23.5h-74v80h63v120h-149q-67 0 -113.5 47t-46.5 113zM154 568v72h72v-72h-72zM314 568v72h72v-72h-72z" />
<glyph unicode="&#x152;" horiz-adv-x="840" d="M60 160v320q0 67 47 113.5t113 46.5h568v-80h-265v-180h267v-80h-267v-156q0 -27 19 -45.5t45 -18.5h201v-80h-201q-66 0 -112 46q-46 -46 -112 -46h-143q-66 0 -113 47t-47 113zM157 154q0 -31 18.5 -52.5t44.5 -21.5h143q27 0 45.5 21.5t18.5 52.5v406h-207 q-26 0 -44.5 -21.5t-18.5 -52.5v-332z" />
<glyph unicode="&#x153;" horiz-adv-x="870" d="M60 160v160q0 67 47 113.5t113 46.5h103q65 0 112 -45q45 45 111 45h104q66 0 113 -46.5t47 -113.5v-110h-327v-56q0 -31 18.5 -52.5t44.5 -21.5h237v-80h-237q-65 0 -111 46q-48 -46 -112 -46h-103q-66 0 -113 47t-47 113zM151 154q0 -31 21 -52.5t48 -21.5h103 q27 0 48 21.5t21 52.5v173q0 31 -21 52t-48 21h-103q-27 0 -48 -21t-21 -52v-173zM483 290h236v37q0 31 -21 52t-48 21h-104q-26 0 -44.5 -21t-18.5 -52v-37z" />
<glyph unicode="&#x178;" horiz-adv-x="520" d="M50 420v220h97v-226q0 -31 18.5 -52.5t44.5 -21.5h100q26 0 44.5 21.5t18.5 52.5v226h97v-220q0 -67 -46.5 -113.5t-115.5 -46.5v-260h-97v260q-70 0 -115.5 46t-45.5 114zM144 728v72h72v-72h-72zM304 728v72h72v-72h-72z" />
<glyph unicode="&#x2c6;" horiz-adv-x="380" d="M51 560l101 160h75l101 -160h-81l-58 92l-58 -92h-80z" />
<glyph unicode="&#x2dc;" horiz-adv-x="380" d="M30 648v72h123q30 0 51 -21t21 -51v-8h125v-72h-125q-29 0 -50.5 21t-21.5 51v8h-123z" />
<glyph unicode="&#x2000;" horiz-adv-x="440" />
<glyph unicode="&#x2001;" horiz-adv-x="880" />
<glyph unicode="&#x2002;" horiz-adv-x="440" />
<glyph unicode="&#x2003;" horiz-adv-x="880" />
<glyph unicode="&#x2004;" horiz-adv-x="293" />
<glyph unicode="&#x2005;" horiz-adv-x="220" />
<glyph unicode="&#x2006;" horiz-adv-x="146" />
<glyph unicode="&#x2007;" horiz-adv-x="146" />
<glyph unicode="&#x2008;" horiz-adv-x="110" />
<glyph unicode="&#x2009;" horiz-adv-x="176" />
<glyph unicode="&#x200a;" horiz-adv-x="48" />
<glyph unicode="&#x2010;" horiz-adv-x="340" d="M50 240v80h240v-80h-240z" />
<glyph unicode="&#x2011;" horiz-adv-x="340" d="M50 240v80h240v-80h-240z" />
<glyph unicode="&#x2012;" horiz-adv-x="340" d="M50 240v80h240v-80h-240z" />
<glyph unicode="&#x2013;" d="M50 240v80h440v-80h-440z" />
<glyph unicode="&#x2014;" horiz-adv-x="800" d="M50 240v80h700v-80h-700z" />
<glyph unicode="&#x2018;" horiz-adv-x="260" d="M30 720h94l76 -240h-95z" />
<glyph unicode="&#x2019;" horiz-adv-x="260" d="M60 480l76 240h94l-75 -240h-95z" />
<glyph unicode="&#x201a;" horiz-adv-x="270" d="M16 -200l101 320h96l-100 -320h-97z" />
<glyph unicode="&#x201c;" horiz-adv-x="460" d="M30 720h94l76 -240h-95zM230 720h94l76 -240h-95z" />
<glyph unicode="&#x201d;" horiz-adv-x="460" d="M60 480l76 240h93l-75 -240h-94zM261 480l76 240h93l-75 -240h-94z" />
<glyph unicode="&#x201e;" horiz-adv-x="470" d="M16 -200l101 320h96l-100 -320h-97zM216 -200l101 320h96l-100 -320h-97z" />
<glyph unicode="&#x2022;" horiz-adv-x="300" d="M70 240v160h160v-160h-160z" />
<glyph unicode="&#x2026;" horiz-adv-x="680" d="M77 0v120h96v-120h-96zM292 0v120h96v-120h-96zM507 0v120h96v-120h-96z" />
<glyph unicode="&#x202f;" horiz-adv-x="176" />
<glyph unicode="&#x2039;" horiz-adv-x="350" d="M3 296l240 240l57 -56l-183 -184l183 -183l-57 -57z" />
<glyph unicode="&#x203a;" horiz-adv-x="350" d="M50 113l183 183l-183 184l57 56l240 -240l-240 -240z" />
<glyph unicode="&#x205f;" horiz-adv-x="220" />
<glyph unicode="&#x20ac;" horiz-adv-x="560" d="M50 280v80h119v80h-119v80h124q14 52 56.5 86t98.5 34h161v-80h-161q-27 0 -48.5 -21.5t-21.5 -52.5v-46h231v-80h-231v-47q0 -31 21.5 -52t48.5 -21h161v-80h-161q-56 0 -98.5 34t-56.5 86h-124z" />
<glyph unicode="&#x2122;" horiz-adv-x="788" d="M50 587v53h224v-53h-80v-227h-64v227h-80zM354 360v280h278q44 0 75 -31t31 -75v-174h-64v178q0 21 -12.5 35t-29.5 14h-54v-227h-64v227h-96v-227h-64z" />
<glyph unicode="&#xe000;" horiz-adv-x="480" d="M0 0v480h480v-480h-480z" />
</font>
</defs>
</svg>
