<?xml version="1.0" standalone="no"?>
<!DOCTYPE svg PUBLIC "-//W3C//DTD SVG 1.1//EN" "http://www.w3.org/Graphics/SVG/1.1/DTD/svg11.dtd" >
<svg xmlns="http://www.w3.org/2000/svg">
<metadata></metadata>
<defs>
<font id="rawengulkbold" horiz-adv-x="571" >
<font-face units-per-em="1000" ascent="786" descent="-214" />
<missing-glyph horiz-adv-x="357" />
<glyph unicode="&#xfb01;" d="M36 393v71h71v81q0 63 44.5 107t107.5 44q38 0 71 -17l27 -14v-58h-71v14q-11 4 -27 4q-34 0 -57 -23t-23 -57v-81h142v-71h-142v-393h-72v393h-71zM402 393v71h98v-464h-72v393h-26zM415 612q0 20 14.5 34.5t34.5 14.5t34.5 -14.5t14.5 -34.5t-14.5 -35t-34.5 -15 t-34.5 15t-14.5 35z" />
<glyph unicode="&#xfb02;" d="M36 393v71h71v81q0 63 44.5 107t107.5 44q38 0 71 -17l27 -14v-58h-71v14q-11 4 -27 4q-34 0 -57 -23t-23 -57v-81h142v-71h-142v-393h-72v393h-71zM402 607v72h98v-679h-72v607h-26z" />
<glyph unicode="&#xfb03;" horiz-adv-x="892" d="M36 393v71h71v81q0 63 45 107t108 44q54 0 88 -18l27 -13v-58h-71v13q-13 5 -44 5q-34 0 -57.5 -23t-23.5 -57v-81h116v-71h-116v-393h-72v393h-71zM357 393v71h72v81q0 63 44 107t107 44q39 0 72 -17l27 -14v-58h-72v14q-11 4 -27 4q-34 0 -57 -23t-23 -57v-81h161v-71 h-161v-393h-71v393h-72zM723 393v71h98v-464h-71v393h-27zM737 612q0 20 14.5 34.5t34.5 14.5t34.5 -14.5t14.5 -34.5t-14.5 -35t-34.5 -15t-34.5 15t-14.5 35z" />
<glyph unicode="&#xfb04;" horiz-adv-x="892" d="M36 393v71h71v81q0 63 45 107t108 44q54 0 88 -18l27 -14v-57h-71v13q-13 5 -44 5q-34 0 -57.5 -23t-23.5 -57v-81h116v-71h-116v-393h-72v393h-71zM357 393v71h72v81q0 63 44 107t107 44q39 0 72 -17l27 -15v-57h-72v14q-11 4 -27 4q-34 0 -57 -23t-23 -57v-81h143v-71 h-143v-393h-71v393h-72zM723 607v72h98v-679h-71v607h-27z" />
<glyph horiz-adv-x="1000" />
<glyph horiz-adv-x="1000" />
<glyph unicode="&#xd;" horiz-adv-x="324" />
<glyph unicode=" "  horiz-adv-x="357" />
<glyph unicode="&#x09;" horiz-adv-x="357" />
<glyph unicode="&#xa0;" horiz-adv-x="357" />
<glyph unicode="!" horiz-adv-x="214" d="M54 27q0 19 12.5 31.5t31.5 12.5t32 -12.5t13 -31.5t-13 -32t-32 -13t-31.5 13t-12.5 32zM71 179v500h90v-72h-18v-428h-72z" />
<glyph unicode="&#x22;" horiz-adv-x="285" d="M46 539l8 28q8 30 8 78q0 23 -2 31l69 16q5 -19 5 -47q0 -53 -13 -98l-8 -27zM162 539l8 28q9 34 9 78q0 19 -3 31l70 16q4 -15 4 -47q0 -57 -12 -98l-9 -27z" />
<glyph unicode="#" horiz-adv-x="428" d="M25 179l7 71h70l10 107h-72l7 72h71l9 107h72l-10 -107h71l10 107h72l-10 -107h72l-7 -72h-71l-9 -107h71l-7 -71h-70l-10 -108h-71l9 108h-71l-10 -108h-71l10 108h-72zM174 250h71l10 107h-72z" />
<glyph unicode="$" horiz-adv-x="642" d="M36 108v53h71v-20q30 -21 80 -41t99 -26v245q-39 10 -65.5 17.5t-57 21.5t-49 30t-31 40t-12.5 54q0 64 62 107t153 52v55h71v-55q54 -5 110.5 -25t93.5 -54l11 -10l-1 -52l-71 1v19q-56 40 -143 50v-195q43 -11 73 -20.5t66.5 -26.5t58.5 -37t37 -51.5t15 -69.5 q0 -66 -69.5 -114t-180.5 -55v-72h-71v73q-69 8 -138.5 37t-100.5 58zM143 482q0 -33 35.5 -52t107.5 -37v177q-59 -7 -101 -31.5t-42 -56.5zM357 72q88 6 133.5 37.5t45.5 60.5q0 54 -46 82t-133 50v-230z" />
<glyph unicode="%" horiz-adv-x="678" d="M36 518q0 52 34 88.5t91 36.5q59 0 92 -37t33 -88t-33.5 -88t-91.5 -37t-91.5 37t-33.5 88zM67 71l500 571l54 -46l-500 -572zM107 518q0 -22 13 -38t41 -16q53 0 53 54q0 53 -53 53q-29 0 -41.5 -16t-12.5 -37zM393 125q0 52 34 88.5t91 36.5q59 0 92 -37t33 -88 t-33.5 -88t-91.5 -37t-91.5 37t-33.5 88zM464 125q0 -22 13 -38t41 -16q53 0 53 54t-53 54q-28 0 -41 -16.5t-13 -37.5z" />
<glyph unicode="&#x26;" horiz-adv-x="678" d="M54 179q0 53 32 101.5t89 80.5q-32 49 -32 103q0 74 52.5 126.5t125.5 52.5q80 -4 124 -46.5t44 -92.5v-40h-96v72h11q-24 31 -83 35q-44 0 -75.5 -31.5t-31.5 -75.5q0 -32 21 -65.5t100 -118.5l155 -166q64 56 64 140q0 27 -12 44.5t-24 21.5v-15h-72v88h58 q48 0 84.5 -39t36.5 -100q0 -109 -76 -183h94v-71h-103q-1 0 -10 1t-14.5 2.5t-16 6t-19.5 11.5q-72 -39 -156 -39q-131 0 -200.5 59t-69.5 138zM125 183q0 -54 50 -91.5t149 -37.5q52 0 105 22l-146 155q-48 53 -74 84q-38 -23 -61 -59t-23 -73z" />
<glyph unicode="'" horiz-adv-x="178" d="M46 539l8 28q8 30 8 78q0 23 -2 31l69 16q5 -19 5 -47q0 -53 -13 -98l-8 -27z" />
<glyph unicode="(" horiz-adv-x="250" d="M36 258v1q0 157 43 299t125 192l38 -61q-54 -33 -94.5 -152.5t-40.5 -277.5v-1q0 -153 39.5 -266t95.5 -146l-38 -60q-83 50 -125.5 183.5t-42.5 288.5z" />
<glyph unicode=")" horiz-adv-x="250" d="M8 -154q56 33 95.5 146.5t39.5 266.5q0 158 -40.5 277.5t-94.5 152.5l38 61q82 -50 125 -192t43 -299q0 -155 -43 -289t-125 -184z" />
<glyph unicode="*" horiz-adv-x="357" d="M30 533l25 66l88 -31v93h71v-93l88 31l25 -66l-91 -33l56 -77l-57 -43l-56 77l-57 -77l-57 43l56 77z" />
<glyph unicode="+" horiz-adv-x="500" d="M36 286v71h178v179h72v-179h178v-71h-178v-179h-72v179h-178z" />
<glyph unicode="," horiz-adv-x="214" d="M48 -86q14 14 24 35.5t10 35.5q-28 10 -28 42q0 19 12.5 31.5t31.5 12.5t32 -12.5t13 -31.5q0 -74 -69 -139z" />
<glyph unicode="-" horiz-adv-x="357" d="M36 214v72h285v-72h-285z" />
<glyph unicode="." horiz-adv-x="214" d="M54 27q0 19 12.5 31.5t31.5 12.5t32 -12.5t13 -31.5t-13 -32t-32 -13t-31.5 13t-12.5 32z" />
<glyph unicode="/" d="M23 -18l470 734l61 -39l-470 -734z" />
<glyph unicode="0" d="M36 321q0 153 74.5 246.5t175.5 93.5t175.5 -93.5t74.5 -246.5q0 -159 -74 -249t-176 -90q-103 0 -176.5 90t-73.5 249zM107 321q0 -132 55 -199.5t124 -67.5t123.5 67.5t54.5 199.5q0 125 -55 196.5t-123 71.5q-67 0 -123 -70.5t-56 -197.5z" />
<glyph unicode="1" horiz-adv-x="250" d="M18 533l100 110h61v-643h-72v525l-36 -40z" />
<glyph unicode="2" horiz-adv-x="464" d="M18 0v65l220 217q68 68 93.5 108.5t25.5 72.5v1q0 52 -36.5 88.5t-88.5 36.5t-88.5 -36.5t-36.5 -88.5h-71q0 81 57.5 139t138.5 58t139 -58t58 -139v-1q0 -52 -33.5 -106t-107.5 -127l-162 -159h231v27h72v-98h-411z" />
<glyph unicode="3" horiz-adv-x="464" d="M36 192l71 4q0 -59 42 -100.5t101 -41.5t101 41.5t42 100.5t-42 101t-101 42v72q37 0 63 26t26 63t-26 63t-63 26t-63 -26t-26 -63l-72 5q0 62 43.5 109t117.5 47t117.5 -47t43.5 -109q0 -39 -18.5 -73t-54.5 -54q61 -22 93.5 -73.5t32.5 -112.5q0 -84 -58 -147t-156 -63 t-156 63t-58 147z" />
<glyph unicode="4" horiz-adv-x="464" d="M36 107v56l6 9q105 158 137.5 257t32.5 214h72q0 -116 -30 -215.5t-124 -248.5h191v250h72v-250h36v-72h-36v-107h-72v107h-285z" />
<glyph unicode="5" horiz-adv-x="464" d="M33 280l24 363h336v-98h-72v26h-198l-10 -148q59 41 119 41q75 0 136 -64t61 -177q0 -117 -62.5 -179t-141.5 -62q-51 0 -104 27t-80 74l-5 8v34h71v-13q18 -25 51.5 -41.5t66.5 -16.5q51 0 91.5 41.5t40.5 127.5q0 84 -40 127t-85 43q-5 0 -15 -1.5t-28.5 -8.5t-35 -18 t-32 -33.5t-22.5 -51.5h-66z" />
<glyph unicode="6" horiz-adv-x="464" d="M36 223v67q0 63 4 112t16.5 99.5t33 84t57 54.5t85.5 21q95 0 153 -73l8 -9v-51h-72v25q-34 36 -89 36q-124 0 -139 -223q28 47 72 72.5t89 25.5q66 0 120.5 -66t54.5 -175q0 -113 -56.5 -177t-131.5 -64q-35 0 -70 15.5t-66 44t-50 76t-19 105.5zM107 223 q0 -83 43.5 -126t90.5 -43q43 0 79.5 42t36.5 127t-36.5 127.5t-79.5 42.5q-47 0 -90.5 -43.5t-43.5 -126.5z" />
<glyph unicode="7" horiz-adv-x="428" d="M18 545v98h393v-49l-73 -99q-124 -168 -124 -495h-71q0 73 4.5 132.5t17 134t42 144t73.5 127.5l25 33h-216v-26h-71z" />
<glyph unicode="8" horiz-adv-x="500" d="M36 192q0 62 32.5 113t93.5 73q-36 20 -54.5 54t-18.5 73q0 62 43.5 109t117.5 47t117.5 -47t43.5 -109q0 -39 -18.5 -73t-54.5 -54q61 -22 93.5 -73.5t32.5 -112.5q0 -84 -58 -147t-156 -63t-156 63t-58 147zM107 196q0 -59 42 -100.5t101 -41.5t101 41.5t42 100.5 t-42 101t-101 42t-101 -42t-42 -101zM161 500q0 -37 26 -63t63 -26t63 26t26 63t-26 63t-63 26t-63 -26t-26 -63z" />
<glyph unicode="9" horiz-adv-x="464" d="M36 420q0 113 56 177t131 64q77 0 141.5 -64.5t64.5 -176.5v-67q0 -80 -7.5 -139.5t-27 -115.5t-60.5 -86t-102 -30q-95 0 -153 72l-8 10v51h72v-25q34 -36 89 -36q124 0 139 223q-28 -47 -72 -72.5t-89 -25.5q-66 0 -120 66t-54 175zM107 420q0 -85 36.5 -127.5 t79.5 -42.5q47 0 90.5 43.5t43.5 126.5t-43.5 126t-90.5 43q-43 0 -79.5 -42t-36.5 -127z" />
<glyph unicode=":" horiz-adv-x="214" d="M54 27q0 19 12.5 31.5t31.5 12.5t32 -12.5t13 -31.5t-13 -32t-32 -13t-31.5 13t-12.5 32zM54 384q0 19 12.5 32t31.5 13t32 -13t13 -32t-13 -32t-32 -13t-31.5 13t-12.5 32z" />
<glyph unicode=";" horiz-adv-x="214" d="M48 -86q14 14 24 35.5t10 35.5q-28 10 -28 42q0 19 12.5 31.5t31.5 12.5t32 -12.5t13 -31.5q0 -74 -69 -139zM54 384q0 19 12.5 32t31.5 13t32 -13t13 -32t-13 -32t-32 -13t-31.5 13t-12.5 32z" />
<glyph unicode="&#x3c;" horiz-adv-x="357" d="M36 301v41l248 168l39 -59l-192 -130l193 -136l-41 -59z" />
<glyph unicode="=" horiz-adv-x="464" d="M36 179v71h393v-71h-393zM36 393v71h393v-71h-393z" />
<glyph unicode="&#x3e;" horiz-adv-x="357" d="M33 185l193 136l-192 130l39 59l248 -168v-41l-247 -175z" />
<glyph unicode="?" horiz-adv-x="428" d="M36 500q0 74 52.5 126.5t125.5 52.5q74 0 126.5 -52.5t52.5 -126.5q0 -45 -14.5 -78.5t-35.5 -52.5t-42.5 -35.5t-36 -37.5t-14.5 -48v-69h-71v69q0 40 14.5 69.5t35.5 47t42 34t35.5 42t14.5 59.5q0 44 -31.5 75.5t-75.5 31.5t-75.5 -31.5t-31.5 -75.5h-71zM170 27 q0 19 12.5 31.5t31.5 12.5t32 -12.5t13 -31.5t-13 -32t-32 -13t-31.5 13t-12.5 32z" />
<glyph unicode="@" horiz-adv-x="892" d="M36 196q0 85 34 164.5t93 139.5t144 96t180 36q85 0 153.5 -28.5t111 -76t65 -106t22.5 -120.5q0 -71 -23.5 -131t-60.5 -96t-78.5 -56t-81.5 -20q-32 0 -59 18.5t-34 40.5q-20 -25 -53 -44.5t-61 -19.5q-62 0 -111.5 48.5t-49.5 135.5q0 126 78.5 209.5t163.5 83.5h160 l-68 -347q-2 -14 -2 -19q0 -30 14 -43.5t31 -13.5q21 0 46.5 13t53 40.5t46 80t18.5 120.5q0 104 -73.5 182t-207.5 78q-107 0 -195.5 -52t-136.5 -135.5t-48 -177.5q0 -55 17.5 -106t51.5 -94t90 -68.5t126 -25.5q99 0 187 44l16 8l31 -46l-16 -8q-104 -52 -218 -52 q-166 0 -261 101t-95 247zM298 177q0 -56 28.5 -84.5t61.5 -28.5q25 0 54.5 18t45.5 52l3 6l51 258h-73q-56 0 -113.5 -63t-57.5 -158z" />
<glyph unicode="A" horiz-adv-x="607" d="M36 0v71h19l233 625h50l257 -684l-66 -24l-66 173h-298l-60 -161h-69zM191 232h246l-124 328z" />
<glyph unicode="B" horiz-adv-x="607" d="M45 606v73h227q110 0 169 -51.5t59 -128.5q0 -88 -89 -132q75 -18 117.5 -67t42.5 -112q0 -79 -59.5 -133.5t-167.5 -54.5h-273v606h-26zM143 71h201q78 0 117 34t39 83q0 50 -43.5 91.5t-121.5 41.5h-192v-250zM143 393h129q79 0 118 33t39 73q0 46 -38.5 77t-118.5 31 h-129v-214z" />
<glyph unicode="C" horiz-adv-x="642" d="M36 339q0 148 104.5 252.5t252.5 104.5q110 0 198 -60l16 -11v-63h-71v25q-67 38 -143 38q-119 0 -202.5 -83.5t-83.5 -202.5q0 -118 83.5 -201.5t202.5 -83.5q91 0 165 52l41 -59q-90 -65 -206 -65q-148 0 -252.5 104.5t-104.5 252.5z" />
<glyph unicode="D" horiz-adv-x="678" d="M45 607v72h259q141 0 240 -99.5t99 -240.5t-99 -240t-240 -99h-233v607h-26zM143 71h161q111 0 189 78.5t78 189.5t-78 189.5t-189 78.5h-161v-536z" />
<glyph unicode="E" d="M45 607v72h455v-99h-71v27h-286v-250h178v-71h-178v-215h321v27h72v-98h-465v607h-26z" />
<glyph unicode="F" d="M45 607v72h491v-99h-72v27h-321v-250h214v-71h-214v-286h-72v607h-26z" />
<glyph unicode="G" horiz-adv-x="678" d="M36 339q0 148 104.5 252.5t252.5 104.5q115 0 214 -71v-63h-71v25q-67 38 -143 38q-119 0 -202.5 -83.5t-83.5 -202.5q0 -118 83.5 -201.5t202.5 -83.5q47 0 95.5 20t82.5 54v122h-107v71h179v-321h-72v52q-94 -70 -187 -70q-137 0 -242.5 104t-105.5 253z" />
<glyph unicode="H" horiz-adv-x="642" d="M71 0v679h72v-322h357v322h71v-679h-71v286h-357v-286h-72z" />
<glyph unicode="I" horiz-adv-x="214" d="M71 0v679h72v-679h-72z" />
<glyph unicode="J" horiz-adv-x="392" d="M18 51v43h71v-18q24 -22 68 -22q38 0 65.5 23t27.5 66v464h-179v72h250v-536q0 -73 -48.5 -117t-115.5 -44q-38 0 -75 15.5t-58 44.5z" />
<glyph unicode="K" horiz-adv-x="607" d="M71 0v679h72v-397l337 397h74v-72h-41l-216 -253l224 -263l3 -3q12 -14 28 -16q8 -1 19 -1v-71q-29 0 -50 6.5t-31 14.5t-24 24l-215 253l-108 -127v-171h-72z" />
<glyph unicode="L" d="M71 0v679h72v-608h321v27h72v-98h-465z" />
<glyph unicode="M" horiz-adv-x="964" d="M36 0v71h18l83 625h64l281 -635l282 635h65l91 -692l-72 -8l-72 551l-250 -565h-87l-250 565l-72 -547h-81z" />
<glyph unicode="N" horiz-adv-x="678" d="M45 607v72h89l402 -547v547h71v-679h-62l-402 546v-546h-72v607h-26z" />
<glyph unicode="O" horiz-adv-x="785" d="M36 339q0 148 104.5 252.5t252.5 104.5t252.5 -104.5t104.5 -252.5t-104.5 -252.5t-252.5 -104.5t-252.5 104.5t-104.5 252.5zM107 339q0 -118 83.5 -201.5t202.5 -83.5t202.5 83.5t83.5 201.5q0 119 -83.5 202.5t-202.5 83.5t-202.5 -83.5t-83.5 -202.5z" />
<glyph unicode="P" horiz-adv-x="607" d="M45 607v72h294q97 0 164.5 -68t67.5 -165t-67.5 -164.5t-164.5 -67.5h-196v-214h-72v607h-26zM143 286h196q66 0 113.5 47t47.5 113t-47.5 113.5t-113.5 47.5h-196v-321z" />
<glyph unicode="Q" horiz-adv-x="785" d="M36 339q0 148 104.5 252.5t252.5 104.5t252.5 -104.5t104.5 -252.5t-104.5 -252.5t-252.5 -104.5q-147 0 -208 -73l11 -11q35 38 92 38q50 0 146.5 -30t120.5 -30q14 0 26.5 10.5t12.5 15.5h71q0 -34 -27 -61q-30 -31 -83 -37q-38 0 -132.5 30t-134.5 30q-53 0 -77 -29 l-27 -33l-83 93q23 35 47 54q48 40 118 56q-103 39 -166.5 130t-63.5 204zM107 339q0 -118 83.5 -201.5t202.5 -83.5t202.5 83.5t83.5 201.5q0 119 -83.5 202.5t-202.5 83.5t-202.5 -83.5t-83.5 -202.5z" />
<glyph unicode="R" horiz-adv-x="607" d="M45 607v72h263q107 0 167.5 -58.5t60.5 -138.5q0 -70 -47.5 -124.5t-132.5 -68.5q35 -23 75 -84l74 -115q9 -14 12.5 -16.5t12.5 -2.5h41v-71h-41q-51 0 -85 52l-104 161q-33 51 -54.5 62t-90.5 11h-53v-286h-72v607h-26zM143 357h165q77 0 116.5 37t39.5 88t-39.5 88 t-116.5 37h-165v-250z" />
<glyph unicode="S" horiz-adv-x="607" d="M36 90v57h71v-25q35 -26 90 -47t107 -21q95 0 145.5 30t50.5 68q0 44 -32 78.5t-79.5 55t-103 44.5t-103 47t-79.5 64t-32 95q0 71 67 115.5t166 44.5q57 0 117.5 -19t102.5 -61l12 -11v-56h-72v25q-67 51 -160 51q-67 0 -114 -25t-47 -64q0 -44 44 -76.5t107 -56.5 t126 -52.5t107 -79t44 -119.5q0 -74 -73 -122t-194 -48q-74 0 -146 31t-111 66z" />
<glyph unicode="T" horiz-adv-x="642" d="M36 580v99h571v-99h-71v27h-179v-607h-71v607h-179v-27h-71z" />
<glyph unicode="U" horiz-adv-x="642" d="M45 607v72h98v-447q0 -74 52.5 -126t125.5 -52q74 0 126.5 52.5t52.5 125.5v447h71v-447q0 -104 -73.5 -177t-176.5 -73t-176.5 73t-73.5 177v375h-26z" />
<glyph unicode="V" horiz-adv-x="607" d="M18 608v71h70l216 -563l225 576l66 -25l-266 -684h-50l-241 625h-20z" />
<glyph unicode="W" horiz-adv-x="1000" d="M18 607v72h72l214 -564l160 402v90h72v-90l160 -402l219 576l67 -25l-260 -683h-51l-171 430l-171 -430h-51l-238 624h-22z" />
<glyph unicode="X" horiz-adv-x="607" d="M16 33l243 318l-196 256h-27v72h62l206 -269l212 278l57 -42l-225 -295l243 -318l-57 -43l-230 302l-231 -302z" />
<glyph unicode="Y" horiz-adv-x="642" d="M18 607v72h67l236 -365l233 360v5h71v-25l-268 -416v-238h-71v238l-240 369h-28z" />
<glyph unicode="Z" d="M36 0v71l393 536h-304v-27h-71v99h464v-72l-394 -536h340v27h72v-98h-500z" />
<glyph unicode="[" horiz-adv-x="214" d="M71 -214v964h108v-71h-36v-822h36v-71h-108z" />
<glyph unicode="\" d="M21 668l60 38l470 -734l-61 -38z" />
<glyph unicode="]" horiz-adv-x="214" d="M36 -143h35v822h-35v71h107v-964h-107v71z" />
<glyph unicode="^" horiz-adv-x="511" d="M29 442l203 254h30l195 -254l-57 -43l-154 200l-162 -202z" />
<glyph unicode="_" horiz-adv-x="714" d="M36 -143h616v-71h-616v71z" />
<glyph unicode="`" horiz-adv-x="214" d="M36 645l43 43l100 -100l-43 -43z" />
<glyph unicode="a" horiz-adv-x="535" d="M36 139q0 61 52 104t144 43h161v35q0 90 -121 90q-51 0 -93 -15v-25h-72v70l21 11q62 30 144 30q35 0 66.5 -7.5t61 -25t47 -50.5t17.5 -78v-250h27v-71h-98v54q-74 -72 -179 -72q-40 0 -79.5 16.5t-69 54t-29.5 86.5zM107 139q0 -39 34.5 -62t90.5 -23q51 0 96.5 19.5 t64.5 47.5v93h-161q-65 0 -95 -23.5t-30 -51.5z" />
<glyph unicode="b" d="M45 607v72h98v-296q28 49 73 74t96 25q85 0 154.5 -68t69.5 -182t-69.5 -182t-154.5 -68q-51 0 -96 25t-73 74v-81h-72v607h-26zM143 232q0 -77 45 -127.5t116 -50.5t115.5 51t44.5 127q0 77 -44.5 128t-115.5 51t-116 -51.5t-45 -127.5z" />
<glyph unicode="c" horiz-adv-x="500" d="M36 232q0 104 73 177t177 73q93 0 166 -63l12 -11v-51h-71v18q-49 36 -107 36q-74 0 -126.5 -52.5t-52.5 -126.5q0 -73 52.5 -125.5t126.5 -52.5q78 0 131 56l52 -48q-75 -80 -183 -80q-104 0 -177 73t-73 177z" />
<glyph unicode="d" d="M36 232q0 114 69 182t154 68q52 0 97 -25t73 -74v224h-27v72h98v-608h27v-71h-98v81q-28 -49 -73 -74t-97 -25q-85 0 -154 68t-69 182zM107 232q0 -76 45 -127t116 -51t116 50.5t45 127.5q0 76 -45 127.5t-116 51.5t-116 -51t-45 -128z" />
<glyph unicode="e" horiz-adv-x="535" d="M36 232q0 104 73 177t177 73q121 0 196 -94l21 -28l-26 -22q-1 -1 -20 -17.5t-24.5 -21t-24.5 -19.5t-29 -21t-28.5 -17t-32 -15.5t-31 -8.5t-33.5 -4h-146q7 -68 58 -114t120 -46q76 0 130 57l53 -49q-75 -80 -183 -80q-104 0 -177 73t-73 177zM115 286h139q58 0 149 81 q-51 44 -117 44q-59 0 -106.5 -35t-64.5 -90z" />
<glyph unicode="f" horiz-adv-x="357" d="M36 393v71h71v81q0 63 44.5 107t107.5 44q84 0 129 -71l5 -9v-45h-72v24q-22 30 -62 30q-34 0 -57 -23t-23 -57v-81h107v-71h-107v-393h-72v393h-71z" />
<glyph unicode="g" horiz-adv-x="500" d="M18 -68q0 73 51 130q-8 16 -8 31q0 42 50 109q-40 46 -40 110q0 79 53.5 124.5t125.5 45.5q45 0 84 -18h148v-71h-72q19 -35 19 -81q0 -79 -53.5 -124t-125.5 -45q-63 0 -109 32q-20 -30 -20 -50q0 -26 30 -35l212 -51q58 -14 93 -52.5t35 -85.5q0 -49 -37 -82t-99 -33 h-182q-73 0 -114 41.5t-41 104.5zM79 -38q0 -44 23.5 -74.5t70.5 -30.5h182q29 0 47 12t18 32t-18 40.5t-55 28.5l-212 51q-21 6 -37 14q-19 -33 -19 -73zM143 312q0 -48 31.5 -73t75.5 -25t75.5 25t31.5 73q0 49 -31.5 74t-75.5 25t-75.5 -25.5t-31.5 -73.5z" />
<glyph unicode="h" d="M45 607v72h98v-309q31 56 81 84t106 28q71 0 120.5 -43.5t49.5 -117.5v-250h27v-71h-98v321q0 49 -31 69.5t-77 20.5q-72 0 -125 -56t-53 -141v-214h-72v607h-26z" />
<glyph unicode="i" horiz-adv-x="214" d="M45 393v71h98v-464h-72v393h-26zM58 612q0 20 14.5 34.5t34.5 14.5t34.5 -14.5t14.5 -34.5t-14.5 -35t-34.5 -15t-34.5 15t-14.5 35z" />
<glyph unicode="j" horiz-adv-x="196" d="M-107 -107h71v-17q19 -19 45 -19t44 18.5t18 44.5v473h-26v71h98v-544q0 -56 -39.5 -95t-94.5 -39q-70 0 -110 57l-6 9v41zM58 612q0 20 14.5 34.5t34.5 14.5t34.5 -14.5t14.5 -34.5t-14.5 -35t-34.5 -15t-34.5 15t-14.5 35z" />
<glyph unicode="k" horiz-adv-x="535" d="M45 607v72h98v-497l267 282h54v-71h-24l-129 -138l146 -163q19 -21 43 -21v-71q-56 0 -96 45l-142 159l-119 -125v-79h-72v607h-26z" />
<glyph unicode="l" horiz-adv-x="214" d="M45 607v72h98v-679h-72v607h-26z" />
<glyph unicode="m" horiz-adv-x="857" d="M45 393v71h98v-97q30 56 78.5 85.5t99.5 29.5t90.5 -29.5t49.5 -90.5q30 58 79.5 89t102.5 31q60 0 101.5 -40t41.5 -121v-250h26v-71h-98v321q0 50 -21.5 70t-67.5 20q-71 0 -116 -56t-45 -141v-214h-71v321q0 50 -21.5 70t-67.5 20q-71 0 -116 -56t-45 -141v-214h-72 v393h-26z" />
<glyph unicode="n" d="M45 393v71h98v-102q33 57 86 88.5t110 31.5q61 0 111 -42t50 -119v-250h27v-71h-98v321q0 49 -31 69.5t-77 20.5q-72 0 -125 -56t-53 -141v-214h-72v393h-26z" />
<glyph unicode="o" d="M36 232q0 104 73 177t177 73t177 -73t73 -177t-73 -177t-177 -73t-177 73t-73 177zM107 232q0 -73 52.5 -125.5t126.5 -52.5t126 52t52 126t-52.5 126.5t-125.5 52.5q-74 0 -126.5 -52.5t-52.5 -126.5z" />
<glyph unicode="p" d="M45 393v71h98v-81q28 49 73 74t96 25q85 0 154.5 -68t69.5 -182t-69.5 -182t-154.5 -68q-51 0 -96 25t-73 74v-295h-72v607h-26zM143 232q0 -77 45 -127.5t116 -50.5t115.5 51t44.5 127q0 77 -44.5 128t-115.5 51t-116 -51.5t-45 -127.5z" />
<glyph unicode="q" d="M36 232q0 114 69 182t154 68q52 0 97 -25t73 -74v81h71v-607h27v-71h-98v295q-28 -49 -73 -74t-97 -25q-85 0 -154 68t-69 182zM107 232q0 -76 45 -127t116 -51t116 50.5t45 127.5q0 76 -45 127.5t-116 51.5t-116 -51t-45 -128z" />
<glyph unicode="r" horiz-adv-x="357" d="M45 393v71h98v-111q27 58 69 93.5t93 35.5h16v-107h-71v16q-43 -29 -75 -82t-32 -121v-188h-72v393h-26z" />
<glyph unicode="s" horiz-adv-x="464" d="M36 64v48h71v-20q42 -38 125 -38q54 0 89.5 17t35.5 45t-29.5 48.5t-71.5 35t-84 31.5t-71.5 49t-29.5 77q0 51 47 88t114 37q92 0 149 -53l12 -10v-56h-72v23q-35 25 -89 25q-32 -2 -54 -13t-28.5 -21.5t-6.5 -19.5q0 -24 29.5 -42.5t71.5 -34t84 -34.5t71.5 -52 t29.5 -78q0 -60 -54.5 -97t-142.5 -37q-127 0 -187 72z" />
<glyph unicode="t" horiz-adv-x="428" d="M36 393v71h71v107h72v-107h178v-71h-178v-259q0 -34 23 -57t57 -23q40 0 62 30v14h72v-36l-5 -8q-21 -33 -55 -52.5t-74 -19.5q-63 0 -107.5 44.5t-44.5 107.5v259h-71z" />
<glyph unicode="u" d="M45 393v71h98v-321q0 -89 107 -89q73 0 126 55.5t53 140.5v214h71v-393h27v-71h-98v102q-33 -57 -86.5 -88.5t-110.5 -31.5q-61 0 -111 42t-50 119v250h-26z" />
<glyph unicode="v" horiz-adv-x="535" d="M13 393v71h62l188 -369l183 359v10h72v-27l-232 -454h-45l-209 410h-19z" />
<glyph unicode="w" horiz-adv-x="821" d="M13 393v71h63l166 -362l129 271v73h71v-73l129 -271l161 352v10h72v-26l-208 -455h-49l-141 299l-141 -299h-48l-188 410h-16z" />
<glyph unicode="x" horiz-adv-x="500" d="M18 33l185 209l-133 151h-25v71h57l148 -168l161 182l53 -47l-167 -189l185 -209l-53 -46l-179 201l-179 -201z" />
<glyph unicode="y" horiz-adv-x="535" d="M18 -108h71v-13q20 -22 40 -22q27 0 55 55l34 72l-181 409h-19v71h65l176 -395l187 389v6h72v-22l-270 -560q-35 -64 -72 -84q-22 -12 -47 -12q-64 0 -105 60l-6 8v38z" />
<glyph unicode="z" horiz-adv-x="500" d="M36 0v69l310 324h-221v-27h-71v98h392v-68l-309 -325h256v27h71v-98h-428z" />
<glyph unicode="{" horiz-adv-x="214" d="M0 245v46l38 19q33 16 33 74v241q0 20 3 38q4 25 14.5 42.5t20 26t27.5 13t23 4.5t20 1v-71q-14 -1 -18.5 -1.5t-9 -6.5t-6.5 -19q-2 -10 -2 -27v-241q0 -68 -54 -108v-16q25 -19 39.5 -42.5t14.5 -65.5v-241q0 -3 0.5 -12t1.5 -15q3 -17 8.5 -22t25.5 -5v-71 q-91 0 -105 86q-1 6 -3 39v241q0 27 -10 47t-23 27z" />
<glyph unicode="|" horiz-adv-x="214" d="M71 -179v822h72v-822h-72z" />
<glyph unicode="}" horiz-adv-x="214" d="M36 -143q20 0 25.5 5t8.5 22q1 6 1 13.5v13.5v241q0 42 14.5 65.5t39.5 42.5v16q-54 40 -54 108v241q0 22 -1 27q-2 13 -6.5 19t-9 6.5t-18.5 1.5v71q15 -1 19.5 -1t22.5 -4.5t27.5 -13t20 -26t14.5 -42.5q3 -18 3 -38v-241q0 -57 34 -74l37 -19v-46l-37 -19 q-13 -7 -23.5 -27t-10.5 -47v-241q-2 -33 -3 -39q-8 -51 -35.5 -68.5t-68.5 -17.5v71z" />
<glyph unicode="~" horiz-adv-x="357" d="M20 314q4 39 27 60t55 21q24 0 46 -12l84 -39q15 -6 24 -6q7 0 12 2t7.5 7l4 8t3 10t1.5 8l54 -9l-2 -9q-6 -31 -26.5 -51t-53.5 -20q-24 0 -47 12l-84 39q-12 6 -23 6q-10 0 -16 -5.5t-8 -11.5t-5 -18z" />
<glyph unicode="&#xa1;" horiz-adv-x="214" d="M54 -143h17v429h72v-500h-89v71zM71 438q0 19 13 31.5t32 12.5t32 -12.5t13 -31.5t-13 -32t-32 -13t-32 13t-13 32z" />
<glyph unicode="&#xa2;" horiz-adv-x="500" d="M36 268q0 88 55.5 156.5t140.5 87.5v77h72v-72q85 -6 148 -63l12 -10v-51h-71v18q-40 29 -89 35v-356q64 6 113 56l52 -49q-67 -72 -165 -78v-90h-72v95q-85 19 -140.5 87.5t-55.5 156.5zM107 268q0 -59 35 -106.5t90 -64.5v341q-55 -17 -90 -64t-35 -106z" />
<glyph unicode="&#xa3;" horiz-adv-x="535" d="M36 0v71h48q21 0 40 26.5t19 54.5v134h-73v71h73v152q0 63 44.5 107.5t107.5 44.5q40 0 73.5 -19.5t54.5 -52.5l6 -9v-35h-72v14q-22 30 -62 30q-34 0 -57.5 -23t-23.5 -57v-152h107v-71h-107v-134q0 -45 -18 -81h233v18h71v-89h-464z" />
<glyph unicode="&#xa4;" horiz-adv-x="392" d="M28 429l53 47l44 -42q31 18 71 18q41 0 76 -22l46 47l48 -54l-44 -44q20 -35 20 -73q0 -40 -18 -71l42 -44l-54 -46l-38 38q-35 -22 -78 -22q-41 0 -74 19l-43 -42l-46 54l39 38q-21 34 -21 76q0 43 22 78zM122 306q0 -30 22 -52t52 -22q31 0 53 22t22 52q0 31 -22 53 q-21 21 -53 21q-31 0 -52 -21q-22 -22 -22 -53z" />
<glyph unicode="&#xa5;" horiz-adv-x="642" d="M18 607v72h67l232 -358h9l228 353v5h71v-25l-214 -333h89v-71h-135l-8 -12v-59h143v-72h-143v-107h-71v107h-143v72h143v59l-8 12h-135v71h88l-185 286h-28z" />
<glyph unicode="&#xa6;" horiz-adv-x="214" d="M71 143h72v-357h-72v357zM71 321v358h72v-358h-72z" />
<glyph unicode="&#xa7;" d="M18 296q0 89 89 142q-18 34 -18 76q0 70 50 117.5t147 47.5q81 0 138.5 -58t57.5 -139h-71q0 52 -36.5 88.5t-88.5 36.5q-53 0 -89 -21t-36 -72q0 -29 17 -51.5t44.5 -36t63 -27t72 -24.5t72 -29t63 -40t44.5 -57.5t17 -80.5q0 -88 -90 -142q18 -34 18 -76 q0 -70 -49.5 -117t-146.5 -47q-81 0 -139 57.5t-58 138.5h72q0 -52 36.5 -88.5t88.5 -36.5q53 0 89 21t36 72q0 29 -17 51.5t-44.5 36t-63 27t-72 24.5t-72 29t-63 40t-44.5 57.5t-17 80.5zM89 296q0 -48 36.5 -81t83.5 -48t109 -38.5t97 -48.5q67 32 67 88q0 48 -36.5 81 t-83.5 48t-109 38.5t-97 48.5q-67 -32 -67 -88z" />
<glyph unicode="&#xa8;" horiz-adv-x="357" d="M36 612q0 20 14.5 34.5t34.5 14.5t34.5 -14.5t14.5 -34.5t-14.5 -35t-34.5 -15t-34.5 15t-14.5 35zM223 612q0 20 14.5 34.5t34.5 14.5t34.5 -14.5t14.5 -34.5t-14.5 -35t-34.5 -15t-34.5 15t-14.5 35z" />
<glyph unicode="&#xa9;" horiz-adv-x="857" d="M31 341q0 101 53 182q53 84 144.5 134t200.5 50t200.5 -50t143.5 -134q53 -81 53 -182t-53 -182q-53 -84 -143.5 -133t-200.5 -49t-200 48q-93 51 -145 134q-53 81 -53 182zM103 341q0 -86 47 -152t112 -101q75 -40 167 -40q91 0 165.5 40t117.5 109q42 66 42 144 q0 86 -47 152t-112 101q-79 42 -166 42q-89 0 -165 -41t-119 -110q-42 -66 -42 -144zM205 339q0 92 66 157.5t158 65.5q76 0 138 -48l13 -10v-49h-71v13q-35 23 -80 23q-63 0 -107.5 -44.5t-44.5 -107.5t44.5 -107t107.5 -44q66 0 111 48l52 -49q-68 -71 -163 -71 q-92 0 -158 65.5t-66 157.5z" />
<glyph unicode="&#xaa;" horiz-adv-x="392" d="M36 424q0 42 36.5 77t116.5 35h97v35q0 17 -6 29q-3 5 -10 12q-18 13 -56 13q-34 0 -71 -13v-23h-72v65l17 11q51 31 126 31q63 0 98 -27q22 -16 32 -36q9 -18 13 -62v-178h18v-72h-89v37q-53 -54 -122 -54q-53 0 -90.5 33.5t-37.5 86.5zM107 424q0 -21 21.5 -35 t60.5 -14q68 0 97 40v49h-97q-45 0 -63.5 -12t-18.5 -28z" />
<glyph unicode="&#xab;" horiz-adv-x="392" d="M27 218v28l124 151l55 -44l-98 -121l98 -119l-55 -46zM188 218v28l124 151l55 -44l-98 -121l98 -119l-55 -46z" />
<glyph unicode="&#xac;" d="M36 286v71h464v-250h-71v179h-393z" />
<glyph unicode="&#xad;" horiz-adv-x="357" d="M36 214v72h285v-72h-285z" />
<glyph unicode="&#xae;" horiz-adv-x="857" d="M31 341q0 101 53 182q53 84 144.5 134t200.5 50t200.5 -50t143.5 -134q53 -81 53 -182t-53 -182q-53 -84 -143.5 -133t-200.5 -49t-200 48q-93 51 -145 134q-53 81 -53 182zM103 341q0 -86 47 -152t112 -101q75 -40 167 -40q91 0 165.5 40t117.5 109q42 66 42 144 q0 86 -47 152t-112 101q-79 42 -166 42q-89 0 -165 -41t-119 -110q-42 -66 -42 -144zM286 143v419h153q69 0 109 -39.5t40 -93.5q0 -41 -23.5 -74.5t-67.5 -48.5l55 -85q5 -7 8 -7h22v-71h-22q-42 0 -68 40l-55 87q-13 20 -20.5 23.5t-30.5 3.5h-29v-154h-71zM357 379h82 q38 0 58 18t20 42t-20 42.5t-58 18.5h-82v-121z" />
<glyph unicode="&#xaf;" horiz-adv-x="357" d="M36 607v54h285v-54h-285z" />
<glyph unicode="&#xb0;" horiz-adv-x="250" d="M36 589q0 36 27.5 63t61.5 27t61.5 -27t27.5 -63q0 -35 -27.5 -62t-61.5 -27t-61.5 27t-27.5 62zM89 589q0 -13 12 -24t24 -11t24 11t12 24t-12 24.5t-24 11.5t-24 -11.5t-12 -24.5z" />
<glyph unicode="&#xb1;" horiz-adv-x="500" d="M36 0v71h428v-71h-428zM36 321v72h178v178h72v-178h178v-72h-178v-178h-72v178h-178z" />
<glyph unicode="&#xb2;" horiz-adv-x="321" d="M27 429v40l136 145q37 39 48.5 59t11.5 41q0 26 -18.5 44.5t-43.5 18.5t-44 -18.5t-19 -44.5h-53q0 48 34 82.5t82 34.5t82 -34.5t34 -82.5q0 -32 -15 -61.5t-59 -76.5l-90 -94h119v18h54v-71h-259z" />
<glyph unicode="&#xb3;" horiz-adv-x="339" d="M36 547h53q0 -28 24.5 -51t56.5 -23q31 0 55.5 23t24.5 51q0 30 -25 51.5t-55 21.5v53q20 0 35 15.5t15 36.5t-15 36.5t-35 15.5t-35 -15.5t-15 -36.5h-54q0 43 30.5 74.5t73.5 31.5t73 -31.5t30 -74.5q0 -46 -39 -75q32 -15 51 -42.5t19 -60.5q0 -51 -41 -89t-93 -38 t-93 38t-41 89z" />
<glyph unicode="&#xb4;" horiz-adv-x="214" d="M36 588l99 100l44 -43l-100 -100z" />
<glyph unicode="&#xb5;" d="M54 393v71h89v-321q0 -89 107 -89q73 0 126 55.5t53 140.5v214h71v-393h18v-71h-89v102q-33 -57 -86.5 -88.5t-110.5 -31.5q-60 0 -107 39q1 -22 14 -57t13 -51q0 -45 -20 -75l-60 38q9 14 9 37q0 9 -5 48t-5 65v367h-17z" />
<glyph unicode="&#xb6;" horiz-adv-x="464" d="M36 500q0 59 42 101t101 42h214v-822h-72v750h-71v-750h-71v536q-59 0 -101 42t-42 101zM107 500q0 -29 21.5 -50t50.5 -21v142q-29 0 -50.5 -21t-21.5 -50z" />
<glyph unicode="&#xb7;" horiz-adv-x="178" d="M54 232q0 19 12.5 32t31.5 13t32 -13t13 -32t-13 -31.5t-32 -12.5t-31.5 12.5t-12.5 31.5z" />
<glyph unicode="&#xb8;" horiz-adv-x="401" d="M89 -149l40 22q17 -34 50 -34q18 0 31 12.5t13 34.5q0 23 -12 34.5t-29 11.5q-20 0 -30 -13l-43 10l27 94l43 -11l-10 -36q5 1 15 1q42 0 67.5 -28.5t25.5 -66.5q0 -39 -29 -63t-67 -24q-58 0 -87 48z" />
<glyph unicode="&#xb9;" horiz-adv-x="196" d="M18 748l63 74h44v-393h-54v302l-14 -18z" />
<glyph unicode="&#xba;" horiz-adv-x="464" d="M36 500q0 81 57.5 138.5t138.5 57.5t139 -57.5t58 -138.5t-58 -138.5t-139 -57.5t-138.5 57.5t-57.5 138.5zM107 500q0 -52 36.5 -88.5t88.5 -36.5t88.5 36.5t36.5 88.5t-36.5 88.5t-88.5 36.5t-88.5 -36.5t-36.5 -88.5z" />
<glyph unicode="&#xbb;" horiz-adv-x="392" d="M27 113l98 119l-98 121l55 44l124 -151v-28l-124 -151zM187 113l98 119l-98 121l55 44l124 -151v-28l-124 -151z" />
<glyph unicode="&#xbc;" horiz-adv-x="678" d="M9 59l500 571l53 -47l-500 -571zM36 614l63 74h44v-393h-54v302l-14 -18zM357 36v41q68 101 95 162.5t27 118.5h54q0 -62 -24 -121t-80 -147h124v125h54v-125h36v-54h-36v-71h-54v71h-196z" />
<glyph unicode="&#xbd;" horiz-adv-x="714" d="M9 59l500 571l53 -47l-500 -571zM36 614l63 74h44v-393h-54v302l-14 -18zM393 5l136 145q37 39 48.5 59t11.5 41q0 26 -18.5 44.5t-43.5 18.5t-44 -18.5t-19 -44.5h-53q0 48 34 82.5t82 34.5t82 -34.5t34 -82.5q0 -32 -15 -61.5t-59 -76.5l-90 -94h119v18h54v-71h-259v40 z" />
<glyph unicode="&#xbe;" horiz-adv-x="785" d="M36 413h53q0 -28 24.5 -51t56.5 -23q31 0 55.5 23t24.5 51q0 30 -25 51.5t-55 21.5v53q20 0 35 15.5t15 36.5t-15 36.5t-35 15.5t-35 -15.5t-15 -36.5h-54q0 43 30.5 74.5t73.5 31.5t73 -31.5t30 -74.5q0 -46 -39 -75q32 -15 51 -42.5t19 -60.5q0 -51 -41 -89t-93 -38 t-93 38t-41 89zM116 59l500 571l54 -47l-500 -571zM464 36v41q68 101 95 162.5t27 118.5h54q0 -62 -24 -121t-80 -147h124v125h54v-125h36v-54h-36v-71h-54v71h-196z" />
<glyph unicode="&#xbf;" horiz-adv-x="428" d="M36 -36q0 45 14.5 78.5t35.5 52.5t42.5 35.5t36 37.5t14.5 48v70h71v-70q0 -40 -14.5 -69.5t-35.5 -47t-42.5 -34t-36 -42t-14.5 -59.5q0 -44 31.5 -75.5t75.5 -31.5t75.5 31.5t31.5 75.5h72q0 -73 -52.5 -125.5t-126.5 -52.5t-126 52t-52 126zM170 438q0 19 12.5 31.5 t31.5 12.5t32 -12.5t13 -31.5t-13 -32t-32 -13t-31.5 13t-12.5 32z" />
<glyph unicode="&#xc0;" horiz-adv-x="607" d="M36 0v71h19l233 625h50l257 -684l-66 -24l-66 173h-298l-60 -161h-69zM191 232h246l-124 328zM234 850l44 43l99 -100l-43 -43z" />
<glyph unicode="&#xc1;" horiz-adv-x="607" d="M36 0v71h19l233 625h50l257 -684l-66 -24l-66 173h-298l-60 -161h-69zM191 232h246l-124 328zM248 793l99 100l44 -43l-100 -100z" />
<glyph unicode="&#xc2;" horiz-adv-x="607" d="M36 0v71h19l233 625h50l257 -684l-66 -24l-66 173h-298l-60 -161h-69zM156 780l142 113h29l142 -113l-31 -37l-124 88h-3l-123 -88zM191 232h246l-124 328z" />
<glyph unicode="&#xc3;" horiz-adv-x="607" d="M36 0v71h19l233 625h50l257 -684l-66 -24l-66 173h-298l-60 -161h-69zM167 785l6 33q13 67 75 67q26 0 47 -11l56 -30q16 -8 25 -8q17 0 22 24l7 33l53 -10l-6 -33q-13 -67 -76 -67q-26 0 -47 11l-55 30q-16 8 -26 8q-17 0 -22 -24l-7 -33zM191 232h246l-124 328z" />
<glyph unicode="&#xc4;" horiz-adv-x="607" d="M36 0v71h19l233 625h50l257 -684l-66 -24l-66 173h-298l-60 -161h-69zM170 826q0 20 14.5 34.5t34.5 14.5t34.5 -14.5t14.5 -34.5t-14.5 -35t-34.5 -15t-34.5 15t-14.5 35zM191 232h246l-124 328zM362 826q0 20 14.5 34.5t34.5 14.5t34.5 -14.5t14.5 -34.5t-14.5 -35 t-34.5 -15t-34.5 15t-14.5 35z" />
<glyph unicode="&#xc5;" horiz-adv-x="607" d="M36 0v71h19l233 625q-25 8 -45 33t-20 51q0 22 13 43t34 34t42 13q33 0 61.5 -28t28.5 -62q0 -27 -19.5 -51.5t-44.5 -32.5l257 -684l-66 -24l-66 173h-298l-60 -161h-69zM191 232h246l-124 328zM277 780q0 -13 11 -24t24 -11t25 12q11 9 11 23q0 15 -11 24 q-12 12 -25 12q-10 0 -22.5 -11t-12.5 -25z" />
<glyph unicode="&#xc6;" horiz-adv-x="857" d="M9 0v71h13l306 608h458v-99h-72v27h-250v-250h143v-71h-143v-215h286v27h71v-98h-428v179h-237l-89 -179h-58zM192 250h201v357h-22z" />
<glyph unicode="&#xc7;" horiz-adv-x="642" d="M36 339q0 97 48 179t130 130t179 48q110 0 198 -60l16 -11v-54h-71v16q-67 38 -143 38q-119 0 -202.5 -83.5t-83.5 -202t83.5 -202t202.5 -83.5q91 0 165 52l41 -59q-90 -65 -206 -65q-17 0 -49 4l-8 -30q5 1 14 1q42 0 67.5 -28t25.5 -65q0 -39 -29 -63t-67 -24 q-26 0 -49 12.5t-37 35.5l-5 7l39 22q19 -33 51 -33q18 0 30.5 12.5t12.5 34.5t-12 33t-29 11q-20 0 -30 -13l-43 10l25 86q-115 31 -189.5 126.5t-74.5 217.5z" />
<glyph unicode="&#xc8;" d="M45 607v72h455v-99h-71v27h-286v-250h178v-71h-178v-215h321v27h72v-98h-465v607h-26zM208 850l44 43l99 -100l-43 -43z" />
<glyph unicode="&#xc9;" d="M45 607v72h455v-99h-71v27h-286v-250h178v-71h-178v-215h321v27h72v-98h-465v607h-26zM222 793l99 100l44 -43l-100 -100z" />
<glyph unicode="&#xca;" d="M45 607v72h455v-99h-71v27h-286v-250h178v-71h-178v-215h321v27h72v-98h-465v607h-26zM129 780l142 113h29l142 -113l-31 -37l-124 88h-3l-123 -88z" />
<glyph unicode="&#xcb;" d="M45 607v72h455v-99h-71v27h-286v-250h178v-71h-178v-215h321v27h72v-98h-465v607h-26zM143 826q0 20 14.5 34.5t34.5 14.5t34.5 -14.5t14.5 -34.5t-14.5 -35t-34.5 -15t-34.5 15t-14.5 35zM335 826q0 20 14.5 34.5t34.5 14.5t34.5 -14.5t14.5 -34.5t-14.5 -35t-34.5 -15 t-34.5 15t-14.5 35z" />
<glyph unicode="&#xcc;" horiz-adv-x="214" d="M29 850l44 43l99 -100l-43 -43zM71 0v679h72v-679h-72z" />
<glyph unicode="&#xcd;" horiz-adv-x="214" d="M43 793l99 100l44 -43l-100 -100zM71 0v679h72v-679h-72z" />
<glyph unicode="&#xce;" horiz-adv-x="214" d="M-27 797l120 96h28l120 -96l-31 -36l-101 69h-4l-101 -69zM71 0v679h72v-679h-72z" />
<glyph unicode="&#xcf;" horiz-adv-x="214" d="M-36 826q0 20 14.5 34.5t34.5 14.5t34.5 -14.5t14.5 -34.5t-14.5 -34.5t-34.5 -14.5t-34.5 14.5t-14.5 34.5zM71 0v679h72v-679h-72zM156 826q0 20 14.5 34.5t34.5 14.5t34.5 -14.5t14.5 -34.5t-14.5 -34.5t-34.5 -14.5t-34.5 14.5t-14.5 34.5z" />
<glyph unicode="&#xd0;" horiz-adv-x="678" d="M36 286v71h35v250h-26v72h259q141 0 240 -99.5t99 -240.5t-99 -240t-240 -99h-233v286h-35zM143 71h161q111 0 189 78.5t78 189.5t-78 189.5t-189 78.5h-161v-250h178v-71h-178v-215z" />
<glyph unicode="&#xd1;" horiz-adv-x="678" d="M45 607v72h89l402 -547v547h71v-679h-62l-402 546v-546h-72v607h-26zM194 781l6 33q13 67 75 67q26 0 47 -11l56 -30q16 -8 25 -8q17 0 22 24l7 33l53 -10l-6 -33q-13 -67 -76 -67q-26 0 -47 11l-55 30q-16 8 -26 8q-17 0 -22 -24l-7 -33z" />
<glyph unicode="&#xd2;" horiz-adv-x="785" d="M36 339q0 148 104.5 252.5t252.5 104.5t252.5 -104.5t104.5 -252.5t-104.5 -252.5t-252.5 -104.5t-252.5 104.5t-104.5 252.5zM107 339q0 -118 83.5 -201.5t202.5 -83.5t202.5 83.5t83.5 201.5q0 119 -83.5 202.5t-202.5 83.5t-202.5 -83.5t-83.5 -202.5zM315 850l44 43 l99 -100l-43 -43z" />
<glyph unicode="&#xd3;" horiz-adv-x="785" d="M36 339q0 148 104.5 252.5t252.5 104.5t252.5 -104.5t104.5 -252.5t-104.5 -252.5t-252.5 -104.5t-252.5 104.5t-104.5 252.5zM107 339q0 -118 83.5 -201.5t202.5 -83.5t202.5 83.5t83.5 201.5q0 119 -83.5 202.5t-202.5 83.5t-202.5 -83.5t-83.5 -202.5zM329 793l99 100 l44 -43l-100 -100z" />
<glyph unicode="&#xd4;" horiz-adv-x="785" d="M36 339q0 148 104.5 252.5t252.5 104.5t252.5 -104.5t104.5 -252.5t-104.5 -252.5t-252.5 -104.5t-252.5 104.5t-104.5 252.5zM107 339q0 -118 83.5 -201.5t202.5 -83.5t202.5 83.5t83.5 201.5q0 119 -83.5 202.5t-202.5 83.5t-202.5 -83.5t-83.5 -202.5zM236 780 l142 113h29l142 -113l-31 -37l-124 88h-3l-123 -88z" />
<glyph unicode="&#xd5;" horiz-adv-x="785" d="M36 339q0 148 104.5 252.5t252.5 104.5t252.5 -104.5t104.5 -252.5t-104.5 -252.5t-252.5 -104.5t-252.5 104.5t-104.5 252.5zM107 339q0 -118 83.5 -201.5t202.5 -83.5t202.5 83.5t83.5 201.5q0 119 -83.5 202.5t-202.5 83.5t-202.5 -83.5t-83.5 -202.5zM248 781l6 33 q13 67 75 67q26 0 47 -11l56 -30q16 -8 25 -8q17 0 22 24l7 33l53 -10l-6 -33q-13 -67 -76 -67q-26 0 -47 11l-55 30q-16 8 -26 8q-17 0 -22 -24l-7 -33z" />
<glyph unicode="&#xd6;" horiz-adv-x="785" d="M36 339q0 148 104.5 252.5t252.5 104.5t252.5 -104.5t104.5 -252.5t-104.5 -252.5t-252.5 -104.5t-252.5 104.5t-104.5 252.5zM107 339q0 -118 83.5 -201.5t202.5 -83.5t202.5 83.5t83.5 201.5q0 119 -83.5 202.5t-202.5 83.5t-202.5 -83.5t-83.5 -202.5zM250 826 q0 20 14.5 34.5t34.5 14.5t34.5 -14.5t14.5 -34.5t-14.5 -34.5t-34.5 -14.5t-34.5 14.5t-14.5 34.5zM442 826q0 20 14.5 34.5t34.5 14.5t34.5 -14.5t14.5 -34.5t-14.5 -34.5t-34.5 -14.5t-34.5 14.5t-14.5 34.5z" />
<glyph unicode="&#xd7;" horiz-adv-x="357" d="M27 221l102 100l-102 101l51 51l101 -102l100 103l50 -52l-100 -101l101 -100l-51 -51l-100 101l-101 -101z" />
<glyph unicode="&#xd8;" horiz-adv-x="785" d="M36 339q0 148 104.5 252.5t252.5 104.5q129 0 227 -81l69 70l50 -50l-69 -70q80 -99 80 -226q0 -148 -104.5 -252.5t-252.5 -104.5q-127 0 -226 80l-71 -69l-50 50l70 70q-80 99 -80 226zM107 339q0 -99 60 -175l402 401q-76 60 -176 60q-119 0 -202.5 -83.5 t-83.5 -202.5zM218 113q75 -59 175 -59q119 0 202.5 83.5t83.5 201.5q0 99 -60 175z" />
<glyph unicode="&#xd9;" horiz-adv-x="642" d="M45 607v72h98v-447q0 -74 52.5 -126t125.5 -52q74 0 126.5 52.5t52.5 125.5v447h71v-447q0 -104 -73.5 -177t-176.5 -73t-176.5 73t-73.5 177v375h-26zM243 850l44 43l99 -100l-43 -43z" />
<glyph unicode="&#xda;" horiz-adv-x="642" d="M45 607v72h98v-447q0 -74 52.5 -126t125.5 -52q74 0 126.5 52.5t52.5 125.5v447h71v-447q0 -104 -73.5 -177t-176.5 -73t-176.5 73t-73.5 177v375h-26zM257 793l99 100l44 -43l-100 -100z" />
<glyph unicode="&#xdb;" horiz-adv-x="642" d="M45 607v72h98v-447q0 -74 52.5 -126t125.5 -52q74 0 126.5 52.5t52.5 125.5v447h71v-447q0 -104 -73.5 -177t-176.5 -73t-176.5 73t-73.5 177v375h-26zM165 780l142 113h29l142 -113l-31 -37l-124 88h-3l-123 -88z" />
<glyph unicode="&#xdc;" horiz-adv-x="642" d="M45 607v72h98v-447q0 -74 52.5 -126t125.5 -52q74 0 126.5 52.5t52.5 125.5v447h71v-447q0 -104 -73.5 -177t-176.5 -73t-176.5 73t-73.5 177v375h-26zM179 826q0 20 14.5 34.5t34.5 14.5t34.5 -14.5t14.5 -34.5t-14.5 -35t-34.5 -15t-34.5 15t-14.5 35zM371 826 q0 20 14.5 34.5t34.5 14.5t34.5 -14.5t14.5 -34.5t-14.5 -35t-34.5 -15t-34.5 15t-14.5 35z" />
<glyph unicode="&#xdd;" horiz-adv-x="642" d="M18 607v72h67l236 -365l233 360v5h71v-25l-268 -416v-238h-71v238l-240 369h-28zM257 793l99 100l44 -43l-100 -100z" />
<glyph unicode="&#xde;" horiz-adv-x="607" d="M71 0v679h72v-72h196q97 0 164.5 -67.5t67.5 -164.5t-67.5 -164.5t-164.5 -67.5h-196v-143h-72zM143 214h196q66 0 113.5 47.5t47.5 113.5t-47.5 113.5t-113.5 47.5h-196v-322z" />
<glyph unicode="&#xdf;" horiz-adv-x="535" d="M45 393v71h26v81q0 63 44.5 107t107.5 44q69 0 110.5 -48.5t41.5 -111.5q0 -56 -34.5 -97t-102.5 -48v-1q128 -38 195 -118.5t67 -155.5q0 -59 -43 -96.5t-118 -37.5q-91 0 -152 73l-8 10v56h71v-30q36 -37 89 -37q90 0 90 64q0 65 -62.5 129.5t-154.5 102.5l-16 6v73h18 q41 0 65.5 31t24.5 73q0 38 -21 65t-60 27q-33 0 -56.5 -23t-23.5 -57v-545h-72v393h-26z" />
<glyph unicode="&#xe0;" horiz-adv-x="535" d="M36 139q0 61 52 104t144 43h161v35q0 90 -121 90q-51 0 -93 -15v-25h-72v70l21 11q62 30 144 30q35 0 66.5 -7.5t61 -25t47 -50.5t17.5 -78v-250h27v-71h-98v54q-74 -72 -179 -72q-40 0 -79.5 16.5t-69 54t-29.5 86.5zM107 139q0 -39 34.5 -62t90.5 -23q51 0 96.5 19.5 t64.5 47.5v93h-161q-65 0 -95 -23.5t-30 -51.5zM194 645l44 43l99 -100l-43 -43z" />
<glyph unicode="&#xe1;" horiz-adv-x="535" d="M36 139q0 61 52 104t144 43h161v35q0 90 -121 90q-51 0 -93 -15v-25h-72v70l21 11q62 30 144 30q35 0 66.5 -7.5t61 -25t47 -50.5t17.5 -78v-250h27v-71h-98v54q-74 -72 -179 -72q-40 0 -79.5 16.5t-69 54t-29.5 86.5zM107 139q0 -39 34.5 -62t90.5 -23q51 0 96.5 19.5 t64.5 47.5v93h-161q-65 0 -95 -23.5t-30 -51.5zM208 588l99 100l44 -43l-100 -100z" />
<glyph unicode="&#xe2;" horiz-adv-x="535" d="M36 139q0 61 52 104t144 43h161v35q0 90 -121 90q-51 0 -93 -15v-25h-72v70l21 11q62 30 144 30q35 0 66.5 -7.5t61 -25t47 -50.5t17.5 -78v-250h27v-71h-98v54q-74 -72 -179 -72q-40 0 -79.5 16.5t-69 54t-29.5 86.5zM107 139q0 -39 34.5 -62t90.5 -23q51 0 96.5 19.5 t64.5 47.5v93h-161q-65 0 -95 -23.5t-30 -51.5zM116 592l142 113h29l142 -113l-31 -37l-124 88h-3l-123 -88z" />
<glyph unicode="&#xe3;" horiz-adv-x="535" d="M36 139q0 61 52 104t144 43h161v35q0 90 -121 90q-51 0 -93 -15v-25h-72v70l21 11q62 30 144 30q35 0 66.5 -7.5t61 -25t47 -50.5t17.5 -78v-250h27v-71h-98v54q-74 -72 -179 -72q-40 0 -79.5 16.5t-69 54t-29.5 86.5zM107 139q0 -39 34.5 -62t90.5 -23q51 0 96.5 19.5 t64.5 47.5v93h-161q-65 0 -95 -23.5t-30 -51.5zM127 576l6 33q13 67 75 67q26 0 47 -11l56 -30q16 -8 25 -8q17 0 22 24l7 33l53 -10l-6 -33q-13 -67 -76 -67q-26 0 -47 11l-55 30q-16 8 -26 8q-17 0 -22 -24l-7 -33z" />
<glyph unicode="&#xe4;" horiz-adv-x="535" d="M36 139q0 61 52 104t144 43h161v35q0 90 -121 90q-51 0 -93 -15v-25h-72v70l21 11q62 30 144 30q35 0 66.5 -7.5t61 -25t47 -50.5t17.5 -78v-250h27v-71h-98v54q-74 -72 -179 -72q-40 0 -79.5 16.5t-69 54t-29.5 86.5zM107 139q0 -39 34.5 -62t90.5 -23q51 0 96.5 19.5 t64.5 47.5v93h-161q-65 0 -95 -23.5t-30 -51.5zM130 612q0 20 14.5 34.5t34.5 14.5t34.5 -14.5t14.5 -34.5t-14.5 -35t-34.5 -15t-34.5 15t-14.5 35zM322 612q0 20 14.5 34.5t34.5 14.5t34.5 -14.5t14.5 -34.5t-14.5 -35t-34.5 -15t-34.5 15t-14.5 35z" />
<glyph unicode="&#xe5;" horiz-adv-x="535" d="M36 139q0 61 52 104t144 43h161v35q0 90 -121 90q-51 0 -93 -15v-25h-72v70l21 11q62 30 144 30q35 0 66.5 -7.5t61 -25t47 -50.5t17.5 -78v-250h27v-71h-98v54q-74 -72 -179 -72q-40 0 -79.5 16.5t-69 54t-29.5 86.5zM107 139q0 -39 34.5 -62t90.5 -23q51 0 96.5 19.5 t64.5 47.5v93h-161q-65 0 -95 -23.5t-30 -51.5zM183 589q0 36 28 63q29 27 61 27t61 -27q28 -27 28 -63q0 -35 -28 -62q-29 -27 -61 -27q-31 0 -61 28q-28 27 -28 61zM236 589q0 -12 12 -24q11 -11 24 -11q12 0 24 12q12 10 12 23q0 12 -13.5 24t-22.5 12t-22.5 -12 t-13.5 -24z" />
<glyph unicode="&#xe6;" horiz-adv-x="892" d="M36 139q0 61 52 104t144 43h161v35q0 90 -121 90q-51 0 -93 -15v-25h-72v72l21 9q62 30 144 30q138 0 178 -90q75 90 193 90q121 0 196 -94l21 -28l-26 -22q-3 -3 -20 -18t-24 -20.5t-24.5 -19.5t-28.5 -21t-28.5 -17t-31.5 -15t-31.5 -9t-33.5 -4h-147q7 -68 58 -114 t120 -46q76 0 130 57l53 -49q-75 -80 -183 -80q-104 0 -179 75v-57h-71v54q-74 -72 -179 -72q-40 0 -79.5 16.5t-69 54t-29.5 86.5zM107 139q0 -39 34.5 -62t90.5 -23q51 0 96.5 19.5t64.5 47.5v93h-161q-65 0 -95 -23.5t-30 -51.5zM472 286h140q57 0 148 81q-51 44 -117 44 q-59 0 -106.5 -35t-64.5 -90z" />
<glyph unicode="&#xe7;" horiz-adv-x="500" d="M36 232q0 104 73 177t177 73q93 0 166 -63l12 -11v-51h-71v18q-49 36 -107 36q-74 0 -126.5 -52.5t-52.5 -126.5q0 -73 52.5 -125.5t126.5 -52.5q78 0 131 56l52 -48q-71 -77 -177 -80l-7 -23h15q42 0 67.5 -28t25.5 -66q0 -39 -28.5 -63.5t-66.5 -24.5q-29 0 -54.5 15.5 t-37.5 41.5l39 22l5 -8q16 -26 45 -26q18 0 31.5 12t13.5 34q0 23 -12 35t-29 12q-20 0 -31 -14l-43 10l21 74q-90 14 -150 84.5t-60 162.5z" />
<glyph unicode="&#xe8;" horiz-adv-x="535" d="M36 232q0 104 73 177t177 73q121 0 196 -94l21 -28l-26 -22q-1 -1 -20 -17.5t-24.5 -21t-24.5 -19.5t-29 -21t-28.5 -17t-32 -15.5t-31 -8.5t-33.5 -4h-146q7 -68 58 -114t120 -46q76 0 130 57l53 -49q-75 -80 -183 -80q-104 0 -177 73t-73 177zM115 286h139q58 0 149 81 q-51 44 -117 44q-59 0 -106.5 -35t-64.5 -90zM208 645l44 43l99 -100l-43 -43z" />
<glyph unicode="&#xe9;" horiz-adv-x="535" d="M36 232q0 104 73 177t177 73q121 0 196 -94l21 -28l-26 -22q-1 -1 -20 -17.5t-24.5 -21t-24.5 -19.5t-29 -21t-28.5 -17t-32 -15.5t-31 -8.5t-33.5 -4h-146q7 -68 58 -114t120 -46q76 0 130 57l53 -49q-75 -80 -183 -80q-104 0 -177 73t-73 177zM115 286h139q58 0 149 81 q-51 44 -117 44q-59 0 -106.5 -35t-64.5 -90zM222 588l99 100l44 -43l-100 -100z" />
<glyph unicode="&#xea;" horiz-adv-x="535" d="M36 232q0 104 73 177t177 73q121 0 196 -94l21 -28l-26 -22q-1 -1 -20 -17.5t-24.5 -21t-24.5 -19.5t-29 -21t-28.5 -17t-32 -15.5t-31 -8.5t-33.5 -4h-146q7 -68 58 -114t120 -46q76 0 130 57l53 -49q-75 -80 -183 -80q-104 0 -177 73t-73 177zM115 286h139q58 0 149 81 q-51 44 -117 44q-59 0 -106.5 -35t-64.5 -90zM129 592l142 113h29l142 -113l-31 -37l-124 88h-3l-123 -88z" />
<glyph unicode="&#xeb;" horiz-adv-x="535" d="M36 232q0 104 73 177t177 73q121 0 196 -94l21 -28l-26 -22q-1 -1 -20 -17.5t-24.5 -21t-24.5 -19.5t-29 -21t-28.5 -17t-32 -15.5t-31 -8.5t-33.5 -4h-146q7 -68 58 -114t120 -46q76 0 130 57l53 -49q-75 -80 -183 -80q-104 0 -177 73t-73 177zM115 286h139q58 0 149 81 q-51 44 -117 44q-59 0 -106.5 -35t-64.5 -90zM143 612q0 20 14.5 34.5t34.5 14.5t34.5 -14.5t14.5 -34.5t-14.5 -35t-34.5 -15t-34.5 15t-14.5 35zM335 612q0 20 14.5 34.5t34.5 14.5t34.5 -14.5t14.5 -34.5t-14.5 -35t-34.5 -15t-34.5 15t-14.5 35z" />
<glyph unicode="&#xec;" horiz-adv-x="214" d="M29 645l44 43l99 -100l-43 -43zM45 393v71h98v-464h-72v393h-26z" />
<glyph unicode="&#xed;" horiz-adv-x="214" d="M43 588l99 100l44 -43l-100 -100zM45 393v71h98v-464h-72v393h-26z" />
<glyph unicode="&#xee;" horiz-adv-x="214" d="M-27 610l120 95h28l120 -95l-31 -37l-101 70h-4l-101 -70zM45 393v71h98v-464h-72v393h-26z" />
<glyph unicode="&#xef;" horiz-adv-x="214" d="M-18 612q0 20 14.5 34.5t34.5 14.5t34.5 -14.5t14.5 -34.5t-14.5 -35t-34.5 -15t-34.5 15t-14.5 35zM45 393v71h98v-464h-72v393h-26zM138 612q0 20 15 34.5t35 14.5t34.5 -14.5t14.5 -34.5t-14.5 -35t-34.5 -15t-35 15t-15 35z" />
<glyph unicode="&#xf0;" horiz-adv-x="464" d="M36 232q0 114 56.5 182t130.5 68q33 0 72.5 -17t65.5 -50h1q-25 84 -76 129l-82 -23l-19 33l57 20q-22 11 -46 19l25 67q60 -20 100 -58l87 32l18 -51l-72 -20q75 -107 75 -341q0 -5 -1 -13.5t-6.5 -33.5t-13 -47.5t-23.5 -50.5t-37 -48t-53.5 -33.5t-71.5 -13.5 q-74 0 -130.5 68t-56.5 182zM107 232q0 -87 37.5 -132.5t78.5 -45.5q35 0 61.5 17.5t39.5 42.5t21 50t10 42l2 18q0 55 -16.5 95t-40.5 58.5t-43.5 26t-33.5 7.5q-40 0 -78 -45.5t-38 -133.5z" />
<glyph unicode="&#xf1;" d="M45 393v71h98v-102q33 57 86 88.5t110 31.5q61 0 111 -42t50 -119v-250h27v-71h-98v321q0 49 -31 69.5t-77 20.5q-72 0 -125 -56t-53 -141v-214h-72v393h-26zM141 576l6 33q13 67 75 67q26 0 47 -11l56 -30q16 -8 25 -8q17 0 22 24l7 33l53 -10l-6 -33q-13 -67 -76 -67 q-26 0 -47 11l-55 30q-16 8 -26 8q-17 0 -22 -24l-7 -33z" />
<glyph unicode="&#xf2;" d="M36 232q0 104 73 177t177 73t177 -73t73 -177t-73 -177t-177 -73t-177 73t-73 177zM107 232q0 -73 52.5 -125.5t126.5 -52.5t126 52t52 126t-52.5 126.5t-125.5 52.5q-74 0 -126.5 -52.5t-52.5 -126.5zM208 645l44 43l99 -100l-43 -43z" />
<glyph unicode="&#xf3;" d="M36 232q0 104 73 177t177 73t177 -73t73 -177t-73 -177t-177 -73t-177 73t-73 177zM107 232q0 -73 52.5 -125.5t126.5 -52.5t126 52t52 126t-52.5 126.5t-125.5 52.5q-74 0 -126.5 -52.5t-52.5 -126.5zM221 588l100 100l43 -43l-100 -100z" />
<glyph unicode="&#xf4;" d="M36 232q0 104 73 177t177 73t177 -73t73 -177t-73 -177t-177 -73t-177 73t-73 177zM107 232q0 -73 52.5 -125.5t126.5 -52.5t126 52t52 126t-52.5 126.5t-125.5 52.5q-74 0 -126.5 -52.5t-52.5 -126.5zM129 592l142 113h29l142 -113l-31 -37l-123 88h-4l-123 -88z" />
<glyph unicode="&#xf5;" d="M36 232q0 104 73 177t177 73t177 -73t73 -177t-73 -177t-177 -73t-177 73t-73 177zM107 232q0 -73 52.5 -125.5t126.5 -52.5t126 52t52 126t-52.5 126.5t-125.5 52.5q-74 0 -126.5 -52.5t-52.5 -126.5zM141 576l6 33q13 67 75 67q26 0 47 -11l56 -30q16 -8 25 -8 q17 0 22 24l7 33l53 -10l-6 -33q-13 -67 -76 -67q-26 0 -47 11l-55 30q-16 8 -26 8q-17 0 -22 -24l-7 -33z" />
<glyph unicode="&#xf6;" d="M36 232q0 104 73 177t177 73t177 -73t73 -177t-73 -177t-177 -73t-177 73t-73 177zM107 232q0 -73 52.5 -125.5t126.5 -52.5t126 52t52 126t-52.5 126.5t-125.5 52.5q-74 0 -126.5 -52.5t-52.5 -126.5zM143 612q0 20 14.5 34.5t34.5 14.5t34.5 -14.5t14.5 -34.5 t-14.5 -35t-34.5 -15t-34.5 15t-14.5 35zM335 612q0 20 14.5 34.5t34.5 14.5t34.5 -14.5t14.5 -34.5t-14.5 -35t-34.5 -15t-34.5 15t-14.5 35z" />
<glyph unicode="&#xf7;" horiz-adv-x="392" d="M36 286v71h321v-71h-321zM152 170q0 19 12.5 31.5t31.5 12.5t32 -12.5t13 -31.5t-13 -32t-32 -13t-31.5 13t-12.5 32zM152 473q0 19 12.5 32t31.5 13t32 -13t13 -32t-13 -31.5t-32 -12.5t-31.5 12.5t-12.5 31.5z" />
<glyph unicode="&#xf8;" d="M29 25l57 57q-50 68 -50 150q0 104 73 177t177 73q82 0 150 -50l57 57l50 -50l-57 -57q50 -68 50 -150q0 -104 -73 -177t-177 -73q-82 0 -150 50l-57 -57zM107 232q0 -51 31 -98l246 246q-47 31 -98 31q-74 0 -126.5 -52.5t-52.5 -126.5zM188 84q46 -30 98 -30 q74 0 126 52t52 126q0 52 -30 98z" />
<glyph unicode="&#xf9;" d="M45 393v71h98v-321q0 -89 107 -89q73 0 126 55.5t53 140.5v214h71v-393h27v-71h-98v102q-33 -57 -86.5 -88.5t-110.5 -31.5q-61 0 -111 42t-50 119v250h-26zM208 645l44 43l99 -100l-43 -43z" />
<glyph unicode="&#xfa;" d="M45 393v71h98v-321q0 -89 107 -89q73 0 126 55.5t53 140.5v214h71v-393h27v-71h-98v102q-33 -57 -86.5 -88.5t-110.5 -31.5q-61 0 -111 42t-50 119v250h-26zM222 588l99 100l44 -43l-100 -100z" />
<glyph unicode="&#xfb;" d="M45 393v71h98v-321q0 -89 107 -89q73 0 126 55.5t53 140.5v214h71v-393h27v-71h-98v102q-33 -57 -86.5 -88.5t-110.5 -31.5q-61 0 -111 42t-50 119v250h-26zM129 592l142 113h29l142 -113l-31 -37l-124 88h-3l-123 -88z" />
<glyph unicode="&#xfc;" d="M45 393v71h98v-321q0 -89 107 -89q73 0 126 55.5t53 140.5v214h71v-393h27v-71h-98v102q-33 -57 -86.5 -88.5t-110.5 -31.5q-61 0 -111 42t-50 119v250h-26zM143 612q0 20 14.5 34.5t34.5 14.5t34.5 -14.5t14.5 -34.5t-14.5 -35t-34.5 -15t-34.5 15t-14.5 35zM335 612 q0 20 14.5 34.5t34.5 14.5t34.5 -14.5t14.5 -34.5t-14.5 -35t-34.5 -15t-34.5 15t-14.5 35z" />
<glyph unicode="&#xfd;" horiz-adv-x="535" d="M18 -108h71v-13q20 -22 40 -22q27 0 55 55l34 72l-181 409h-19v71h65l176 -395l187 389v6h72v-22l-270 -560q-35 -64 -72 -84q-22 -12 -47 -12q-64 0 -105 60l-6 8v38zM204 588l99 100l43 -43l-100 -100z" />
<glyph unicode="&#xfe;" d="M45 607v72h98v-296q28 49 73 74t96 25q85 0 154.5 -68t69.5 -182t-69.5 -182t-154.5 -68q-51 0 -96 25t-73 74v-295h-72v821h-26zM143 232q0 -77 45 -127.5t116 -50.5t115.5 51t44.5 127q0 77 -44.5 128t-115.5 51t-116 -51.5t-45 -127.5z" />
<glyph unicode="&#xff;" horiz-adv-x="535" d="M18 -108h71v-13q20 -22 40 -22q27 0 55 55l34 72l-181 409h-19v71h65l176 -395l187 389v6h72v-22l-270 -560q-35 -64 -72 -84q-22 -12 -47 -12q-64 0 -105 60l-6 8v38zM125 612q0 20 14.5 34.5t34.5 14.5t34.5 -14.5t14.5 -34.5t-14.5 -35t-34.5 -15t-34.5 15t-14.5 35z M317 612q0 20 14.5 34.5t34.5 14.5t34.5 -14.5t14.5 -34.5t-14.5 -35t-34.5 -15t-34.5 15t-14.5 35z" />
<glyph unicode="&#x152;" horiz-adv-x="857" d="M36 339q0 145 103 242.5t254 97.5h393v-99h-72v27h-250v-250h179v-71h-179v-215h286v27h71v-98h-428q-149 0 -253 96t-104 243zM107 339q0 -115 82.5 -191.5t203.5 -76.5v536q-121 0 -203.5 -76.5t-82.5 -191.5z" />
<glyph unicode="&#x153;" horiz-adv-x="964" d="M36 232q0 104 73 177t177 73q67 0 123.5 -33t90.5 -88q34 55 91 88t123 33q122 0 197 -94l20 -28l-26 -22q-3 -3 -20 -18t-24 -20.5t-24.5 -19.5t-28.5 -21t-28.5 -17t-31.5 -15t-31.5 -9t-33.5 -4h-146q7 -68 57.5 -114t119.5 -46q77 0 131 57l52 -49q-75 -80 -183 -80 q-67 0 -123.5 33t-90.5 88q-34 -55 -90.5 -88t-123.5 -33q-104 0 -177 73t-73 177zM107 232q0 -73 52.5 -125.5t126.5 -52.5t126 52t52 126t-52.5 126.5t-125.5 52.5q-74 0 -126.5 -52.5t-52.5 -126.5zM544 286h139q57 0 148 81q-51 44 -117 44q-59 0 -106 -35t-64 -90z" />
<glyph unicode="&#x178;" horiz-adv-x="642" d="M18 607v72h67l236 -365l233 360v5h71v-25l-268 -416v-238h-71v238l-240 369h-28zM179 826q0 20 14.5 34.5t34.5 14.5t34.5 -14.5t14.5 -34.5t-14.5 -35t-34.5 -15t-34.5 15t-14.5 35zM371 826q0 20 14.5 34.5t34.5 14.5t34.5 -14.5t14.5 -34.5t-14.5 -35t-34.5 -15 t-34.5 15t-14.5 35z" />
<glyph unicode="&#x2c6;" horiz-adv-x="392" d="M40 565l142 114h29l142 -114l-32 -36l-123 87h-3l-124 -87z" />
<glyph unicode="&#x2dc;" horiz-adv-x="321" d="M15 576l6 33q13 67 75 67q27 0 48 -11l55 -30q16 -8 26 -8q16 0 21 24l8 33l52 -10l-6 -33q-13 -67 -75 -67q-26 0 -47 11l-56 30q-16 8 -26 8q-16 0 -21 -24l-7 -33z" />
<glyph unicode="&#x2000;" horiz-adv-x="446" />
<glyph unicode="&#x2001;" horiz-adv-x="893" />
<glyph unicode="&#x2002;" horiz-adv-x="446" />
<glyph unicode="&#x2003;" horiz-adv-x="893" />
<glyph unicode="&#x2004;" horiz-adv-x="297" />
<glyph unicode="&#x2005;" horiz-adv-x="223" />
<glyph unicode="&#x2006;" horiz-adv-x="148" />
<glyph unicode="&#x2007;" horiz-adv-x="148" />
<glyph unicode="&#x2008;" horiz-adv-x="111" />
<glyph unicode="&#x2009;" horiz-adv-x="178" />
<glyph unicode="&#x200a;" horiz-adv-x="49" />
<glyph unicode="&#x2010;" horiz-adv-x="357" d="M36 214v72h285v-72h-285z" />
<glyph unicode="&#x2011;" horiz-adv-x="357" d="M36 214v72h285v-72h-285z" />
<glyph unicode="&#x2012;" horiz-adv-x="357" d="M36 214v72h285v-72h-285z" />
<glyph unicode="&#x2013;" horiz-adv-x="464" d="M36 250v71h393v-71h-393z" />
<glyph unicode="&#x2014;" horiz-adv-x="892" d="M36 250v71h821v-71h-821z" />
<glyph unicode="&#x2018;" horiz-adv-x="214" d="M36 591q0 74 69 139l26 -26q-14 -14 -24 -35.5t-10 -35.5q28 -10 28 -42q0 -19 -12.5 -31.5t-31.5 -12.5t-32 12.5t-13 31.5z" />
<glyph unicode="&#x2019;" horiz-adv-x="214" d="M48 572q14 14 24 35.5t10 35.5q-28 10 -28 42q0 19 12.5 31.5t31.5 12.5t32 -12.5t13 -31.5q0 -74 -69 -139z" />
<glyph unicode="&#x201a;" horiz-adv-x="214" d="M48 -86q14 14 24 35.5t10 35.5q-28 10 -28 42q0 19 12.5 31.5t31.5 12.5t32 -12.5t13 -31.5q0 -74 -69 -139z" />
<glyph unicode="&#x201c;" horiz-adv-x="357" d="M35 591q0 74 69 139l26 -26q-14 -14 -24 -35.5t-10 -35.5q28 -10 28 -42q0 -19 -12.5 -31.5t-31.5 -12.5t-32 12.5t-13 31.5zM178 591q0 74 69 139l26 -26q-14 -14 -24 -35.5t-10 -35.5q28 -10 28 -42q0 -19 -12.5 -31.5t-31.5 -12.5t-32 12.5t-13 31.5z" />
<glyph unicode="&#x201d;" horiz-adv-x="357" d="M48 572q14 14 24 35.5t10 35.5q-28 10 -28 42q0 19 12.5 31.5t31.5 12.5t32 -12.5t13 -31.5q0 -74 -69 -139zM191 572q14 14 24 35.5t10 35.5q-28 10 -28 42q0 19 12.5 31.5t31.5 12.5t32 -12.5t13 -31.5q0 -74 -69 -139z" />
<glyph unicode="&#x201e;" horiz-adv-x="357" d="M48 -86q14 14 24 35.5t10 35.5q-28 10 -28 42q0 19 12.5 31.5t31.5 12.5t32 -12.5t13 -31.5q0 -74 -69 -139zM191 -86q14 14 24 35.5t10 35.5q-28 10 -28 42q0 19 12.5 31.5t31.5 12.5t32 -12.5t13 -31.5q0 -74 -69 -139z" />
<glyph unicode="&#x2022;" horiz-adv-x="250" d="M36 232q0 37 26 63t63 26t63 -26t26 -63t-26 -63t-63 -26t-63 26t-26 63z" />
<glyph unicode="&#x2026;" horiz-adv-x="464" d="M45 27q0 19 12.5 31.5t31.5 12.5t32 -12.5t13 -31.5t-13 -32t-32 -13t-31.5 13t-12.5 32zM188 27q0 19 12.5 31.5t31.5 12.5t32 -12.5t13 -31.5t-13 -32t-32 -13t-31.5 13t-12.5 32zM330 27q0 19 13 31.5t32 12.5t32 -12.5t13 -31.5t-13 -32t-32 -13t-32 13t-13 32z" />
<glyph unicode="&#x202f;" horiz-adv-x="178" />
<glyph unicode="&#x2039;" horiz-adv-x="250" d="M27 218v28l124 151l55 -44l-98 -121l98 -119l-55 -46z" />
<glyph unicode="&#x203a;" horiz-adv-x="250" d="M44 113l98 119l-98 121l55 44l124 -151v-28l-124 -151z" />
<glyph unicode="&#x205f;" horiz-adv-x="223" />
<glyph unicode="&#x20ac;" horiz-adv-x="714" d="M18 214l4 72h53q-4 24 -4 53v18h-35l4 72h43q29 116 125.5 191.5t220.5 75.5q110 0 198 -60l16 -11v-54h-72v16q-67 38 -142 38q-94 0 -168.5 -54.5t-103.5 -141.5h321l-5 -72h-329q0 -3 -0.5 -9t-0.5 -9q0 -32 5 -53h312l-5 -72h-284q35 -73 104.5 -116.5t153.5 -43.5 q91 0 165 52l41 -59q-90 -65 -206 -65q-114 0 -205 64.5t-130 167.5h-76z" />
<glyph unicode="&#x2122;" horiz-adv-x="964" d="M54 625v54h339v-54h-143v-393h-54v393h-142zM394 232v54h2l47 395h41l176 -380l176 380h41l57 -439l-53 -6l-42 325l-157 -340h-44l-156 339l-39 -328h-49z" />
<glyph unicode="&#xe000;" horiz-adv-x="480" d="M0 0v480h480v-480h-480z" />
</font>
</defs>
</svg>
