<?xml version="1.0" standalone="no"?>
<!DOCTYPE svg PUBLIC "-//W3C//DTD SVG 1.1//EN" "http://www.w3.org/Graphics/SVG/1.1/DTD/svg11.dtd" >
<svg xmlns="http://www.w3.org/2000/svg">
<metadata></metadata>
<defs>
<font id="gessoregular" horiz-adv-x="80" >
<font-face units-per-em="1024" ascent="819" descent="-205" />
<missing-glyph horiz-adv-x="212" />
<glyph horiz-adv-x="1024" />
<glyph horiz-adv-x="1024" />
<glyph unicode="&#xd;" horiz-adv-x="212" />
<glyph unicode=" "  horiz-adv-x="212" />
<glyph unicode="&#x09;" horiz-adv-x="212" />
<glyph unicode="&#xa0;" horiz-adv-x="212" />
<glyph unicode="!" horiz-adv-x="212" d="M48 864h56q9 0 8 -12l-4 -60q5 -84 24 -84l12 36l-4 4q0 36 24 36l8 -12v-108q0 -12 -36 -12v-4q36 0 36 -8v-12l-64 -8v-4l48 -4l12 4v-4l-8 -20l12 -12q-20 -2 -20 -12h-24l-20 -4l-8 40l4 12h-56l-8 8v172l40 -12h12v16q-9 17 -52 40v16zM168 864v-4l-8 -12 q12 0 12 -8v-40h-4q-24 0 -24 32l-4 28l4 4h24zM48 608h12l-4 -32l4 -12h12l-4 20l8 24h12l8 -8v-32q0 -12 -36 -16l-4 -16h8l20 4q24 -22 24 -48q8 0 12 32q23 16 36 16l-4 4v4l4 4h8l8 -8v-8l-4 -4v-4l-4 4h-16v-8q20 0 20 -8l-108 -112l-16 -4l-4 4v84h4l12 -8 q21 0 24 12v12l-20 4l-12 -8h-8v100zM168 484l4 -4v-104q0 -12 -44 -12l-8 8q0 -9 -20 -24q-6 -24 -12 -24q13 -44 24 -44l-4 -4l8 -56l-4 -4h-56q-7 0 -8 12l-4 76l4 4h8l4 -4l4 4h4l12 -4l-4 28h-4v-16h-20l-8 8v20q31 44 44 44q28 0 28 -8l20 8l4 -12l8 8v4q0 6 -36 16 q0 32 56 80zM144 244h8q12 0 12 -16l-4 -12h-8l-8 8v20zM48 136h24l4 -4l4 4h16l4 -4l4 4h8l8 -8q-10 -40 -16 -40h-36l-4 4l-12 -4l-12 4v36zM148 136h16l8 -8v-4l-8 -8l-4 4h-4q0 -9 -20 -12l-4 4v4q8 18 16 20zM128 104v-12h-8v4zM48 84h4l8 -8v-24l4 -48l-4 -4h-16v4 l4 4v4l-8 8v56zM84 84l4 -4l4 4h12q8 0 8 -32h4v24h8v-8l-4 -4q13 -35 32 -60l-4 -4h-72l-8 8v12q24 16 24 32l-24 28l4 4h12z" />
<glyph unicode="&#x22;" horiz-adv-x="352" d="M40 1000h72v-4q0 -10 -40 -12l4 -4l-4 -20v-32l-8 -8h-20zM128 1000h28v-8h-28v8zM264 1000v-4q0 -8 -24 -12l-8 8q-4 -35 -12 -44q8 0 8 -36h4v16h4l16 -16v-8h-20l-16 -4q-24 0 -24 96l4 4h68zM280 1000h32v-8h-32v8zM160 984v-4q0 -52 -20 -52l-32 -4l-4 16l-4 -4h-12 l-8 8v16l4 4l-4 4v4q0 7 12 8zM312 984v-24l-8 -24q-68 9 -68 20v16q0 12 76 12zM96 932v-4l-8 -8l-8 8l4 4h12zM148 920l4 -4v-12q0 -12 -44 -12v-8h4l12 4v-4l4 4h12l8 -8q0 -80 -12 -80h-72q-9 0 -16 92l4 4h16q64 0 64 12h-4l-68 -8v8zM264 900l4 -4v-12l-56 -60h-4 l-4 68l4 4h36zM232 884v-4h16v4h-16zM284 868q16 -8 16 -20q0 -48 -28 -48h-44v4q0 8 36 8v4h-24v4z" />
<glyph unicode="#" horiz-adv-x="780" d="M520 864h120l4 -4h4l-20 -112l-44 8l-4 -4l-16 4l-48 -4v-4q0 -12 64 -12h16l28 4v-4q0 -80 -28 -80h-12q0 -12 24 -12v-12h132q-5 -66 -16 -100l-4 4h-8l-44 -36l-4 4v12l12 16l-8 16l8 44q-16 0 -16 16q-24 16 -72 20l-12 -4l-12 4l-8 -8l-12 12l4 4v4l-4 4h-12 q-4 -24 -12 -24q-40 6 -40 20v4h4l16 -12v4l-20 20q22 152 36 152l12 12l-16 4v4h20v4q-20 0 -20 8v8zM312 852l8 -8v8h12l8 -8l-16 -12h-4l-16 16l4 4h4zM292 848q28 -13 28 -60h-4q-48 48 -48 56l4 4h20zM264 772q16 -18 16 -28l-16 -12h-4l-8 8q3 32 12 32zM304 700h4 l8 -40l-24 -8v-28h4l24 16l4 -12l-4 -12h4l12 -12v-4q-23 -28 -44 -28l-4 4v4l4 36q-15 -12 -28 -12l-28 36zM268 652v-8h8q0 8 12 8v8h-4zM276 640v-8h4l8 8h-12zM128 632l4 -4v-12l-24 -4l-4 4v4q4 12 24 12zM472 632h4l8 -8l-4 -4h-16v4zM208 612q31 0 36 -16l-40 -8 q0 8 16 8v4h-12v12zM496 608l20 -20v-16l-8 -8l-36 40l4 4h20zM516 604h24v-8l-20 -4l-4 4v8zM168 576h4l24 -28v-8h-16v-4q48 -3 48 -32l-12 -8h-68l-16 12l-24 -8q0 11 -20 12v4q12 0 28 16h4q24 -17 24 -28h4l4 28v8l-4 20zM352 576l20 -32v-36l-8 -8v24h-4v-8h-4 q-23 17 -32 36q0 7 28 24zM440 564q68 -70 68 -92h-4l-52 12v12h-40q-22 0 -36 32v4l12 4l4 -4v12h4q8 0 8 -12l8 8q0 12 16 12zM376 556h4l8 -8v-8h-12v16zM404 516v-4h28v4h-28zM244 484h4l16 -16v-4h-4l-28 4v4zM452 472q52 0 52 -20h4q0 12 8 12h8q10 -5 32 -44h4 q0 12 8 12h4v-12l-76 -68q-38 34 -56 64q4 44 16 44l-4 4v8zM216 460h12l4 -4l4 4h4q44 -4 44 -16v-4h-8v-4q23 0 36 -24v-4l-12 -4l-40 4h-12v-4l80 -16l-8 -48h24l8 -8q-7 0 -12 -20l-64 -12v-8q0 -12 44 -12h24l4 -4l12 4l-8 32l4 4l20 -4h20l-20 24l4 4h44l8 8 q44 -7 44 -16l-36 -28l-4 4l-4 -4h-4l-28 8q0 -36 -24 -36h-16l8 -24q-16 -46 -84 -52v-4l8 -12v-4l-24 -24l-24 16l-12 -12q0 -12 20 -12v-4q-8 -16 -20 -16l-4 -4l-4 4v20h-4l-4 -24l4 -4v-4l-72 -64h-8l24 152h-124v4q0 62 9 99q8 33 19 33h48q8 0 8 -12h8q0 12 8 12h48 q2 52 12 52h4q0 -12 8 -12v8l-4 4v4l4 16l-12 20q7 28 16 28zM432 376h8l24 -24l-4 -4h-4q-24 4 -24 12v16zM136 324l8 -28l-4 -4l24 -4v4l4 4v4q-5 32 -16 32h-8zM652 336h4l-20 -20h-4zM624 312h4l-20 -20h-4zM684 296l4 -4q-13 -88 -20 -88h-84v4l12 12h32l20 4v4l-8 8 h-20v4zM592 284h4l-12 -12h-4zM396 280h12l-8 -8h-4v8zM572 268h4l-12 -12h-4zM392 260h4v-20h-4l-4 4h-4v-8h-8l-4 12zM536 236h4l-16 -16h-4zM512 216h4l-12 -12h-4zM232 204v-4l8 -8v4zM480 188h4l-12 -12h-4zM528 164l4 -4q-24 -152 -32 -160h-120l-4 4h-4q0 44 44 44 h12v4h-24v4l36 32h56v8l-4 -4l-20 4h-16v4zM432 52v-8l8 -8h16l4 20l-4 4h-16zM132 16h8v-12h-8v12z" />
<glyph unicode="$" horiz-adv-x="512" d="M208 932h16l4 -4l4 4h8l4 -4l4 4h8l4 -4l4 4h8l8 -8l-48 -48h12q48 30 48 36l-8 16l4 4h4l20 -4v-48q0 -9 28 -12l32 -20l-4 -4v-4q45 0 72 -72h-24l-4 -4l-4 4h-24q-56 -31 -56 -44h-4q-27 36 -60 36h-16q-14 0 -32 -16l-12 4l-24 -4l-32 4q0 -9 -44 -12l8 -12v-4h-20 v-4h16v-12h-8v-4l8 -20l-12 -8h-36l-4 4h-4q0 46 40 124l20 -4h12q0 8 -20 8l-4 4v4q51 52 100 64v8h12v-24l16 16v4l-28 12l8 8v-4q16 6 16 12v4l-12 4l-8 -8h-4v16zM248 856v-12l4 4h4l4 -4h4v8l-4 4v4zM332 848v-4l40 -16h4v4l-36 16h-8zM172 844v-4l40 -4h16v4l-44 4 h-12zM336 804l4 -12h28l8 8v8l-24 8zM240 808v-8l36 -4v8h-28l-4 4h-4zM412 764h4l4 -4l4 4h16q15 0 28 -80l-4 -4h-12q-8 0 -8 16l-56 20l-32 -32l28 -8h28v-8h-4l-72 -8v8q0 10 16 12v4q-24 3 -24 24q84 27 84 44v12zM76 752v-4h16v4h-16zM188 676l12 -64q-47 -40 -64 -40 h-60q-9 0 -16 32l4 4h8l4 -4h4l4 4v4l4 -4h4l36 4q0 29 -72 36v8l68 4l8 -8v-4l-4 -4v-4l24 -16l28 20l-4 20zM92 552v-4l4 4h16l8 -8l-24 -16q-9 0 -12 20l4 4h4zM208 552h28l92 -88q3 -28 16 -28h8l4 4h4q112 -117 112 -220q0 -84 -20 -84q-36 9 -36 20v4h20v4 q-48 0 -48 28q-9 9 -44 12q-12 55 -40 112v4q14 20 32 20l-16 20v4q0 6 16 12l-8 40l8 8l-20 20v4l4 4v4l-36 24q-72 -11 -72 -32h-4q-7 0 -12 36l-16 8l-20 -16q0 -34 36 -52v-4l-4 -4h-4q-64 63 -64 76q70 60 84 60zM72 248h16q9 0 12 -20h-4l-20 8h-4v-4q12 0 12 -8 l-16 -4v-8q16 -2 16 -12l-8 -8q-32 0 -32 20l-4 20zM96 156q22 0 40 -24l-4 -20l4 -16h12l12 8h20q0 -14 60 -32q52 -48 96 -48l8 -12l-32 -8v-60h-8l-4 4l-24 -8h-68l-8 8v52l-56 28q0 10 -60 64l-20 44zM96 128v-4h8l4 -4l8 8v4l-4 4h-8zM444 128h4l8 -8l-4 -4h-4l-4 4v8z " />
<glyph unicode="%" horiz-adv-x="680" d="M144 904q112 -16 112 -112v-32l-8 -8l-28 8l-36 -4v28l-8 44q16 8 16 24q-20 -11 -20 -24q-44 0 -44 32q0 14 -16 32q0 8 32 12zM524 900h60q8 0 8 -12l-32 -64q-20 0 -20 36v12h-4v-36h-24l-12 12v4q0 23 24 48zM88 884l28 -40q-28 -14 -28 -36l20 -12v-116 q0 -8 -24 -12v4l-4 -4h-32l-8 8v4l16 16l-16 24h8l4 -4l36 12v8l-12 4l-36 -8v20q0 12 36 12v4q-36 0 -36 12v16q0 56 48 88zM476 800l20 -32v-8h-8l-28 4v8q0 22 16 28zM232 752l12 -4v-8h-60v8h12zM252 728l4 -4v-12l-28 -4v4l-4 -4q-40 4 -40 12l4 4h36zM508 720 q0 -21 -12 -24h-28v-8h24q0 -25 -60 -124q-16 8 -16 20l-20 -4l-4 12l-12 -8q-8 0 -8 12q9 32 32 32h4v4l-16 4q24 72 52 72zM212 700l8 -8h4l28 4l4 -4v-144l-8 -48h-4l-24 20h-12v-4l16 -48q-18 -16 -28 -16l-24 8h-12q-16 -8 -16 -20q-68 13 -68 32q-25 0 -36 60v88 q0 8 12 8v8q-12 0 -12 8v8l8 8h28l28 4l4 -4v-112q0 -24 24 -36h16q29 0 40 44l16 8q0 8 -16 8l-4 4v80q0 8 24 8v4q-24 0 -24 12v16h12l4 -4h4zM440 672v-4h20v4h-20zM64 572v-4l4 -4v-4l-8 -8l20 -4h8q-4 24 -12 24h-12zM360 564h4v-24l-12 4v12zM380 528h12l20 -16 q-9 -24 -16 -24l-36 12l-12 -4q0 -17 36 -28v-4q0 -20 -60 -128h-4l4 -4v-4l-12 -12q-48 48 -48 56l68 144l32 -8q8 18 16 20zM520 460l4 -4l4 4l4 -4v-4l-4 -4v-4h8l4 16q27 -3 56 -24l-4 -4v-8l4 4h8q36 -27 36 -92v-72l-8 -8q0 7 -28 24h-4v-4l24 -32v-4h-28l-28 -4 l-4 100v28q-20 21 -20 36h-4q0 -16 -36 -16q-12 -13 -12 -36l-40 -8v4l-4 -4h-28v16q25 104 100 104zM564 440l-4 -24h12v24h-8zM588 368l-8 -8v-16q12 0 12 -12h8l16 12l-4 24h-4l-4 -4l-4 4h-12zM452 328h32l8 -8v-4l-4 -4l4 -4v-16l-4 -4l4 -4v-4l-4 -16l4 -16v-4 q0 -8 -28 -8v-4q28 -3 28 -12l-4 -4h-4l4 -4v-4l-8 -8h-20l-4 4l-4 -4h-24l-8 8v108q3 12 32 12zM228 240h8l28 -28q-59 -144 -76 -144l-12 -4l-4 4h-4q-28 -10 -28 -28q9 -22 28 -32q-8 -24 -16 -24h-64l-8 8q76 168 92.5 168t19.5 24l-4 20l8 8l-4 16l12 8h8v-8h28v4h-12 v8zM600 232v-4l12 4l4 -4h4l4 4h4l12 -4l-4 -12l4 -20v-84q0 -44 -12 -44l-44 84l-4 4h-4l-4 -28h-8v92q0 8 36 12zM428 188h56l8 -8v-16l-4 -44l4 -16h-4l4 -4v-4l-8 -8l-4 24h-4q0 -32 -20 -32q0 -12 -24 -24q-12 22 -12 44l4 4h4l4 -12h4v4l-16 32l4 4l-4 20v28zM440 148 l8 -8h8l28 4v8h-16zM488 84h8q0 -12 12 -12l4 -4v-4l-12 -60h-4q-26 0 -60 44v8q36 13 52 28zM544 72l4 -4v-4h-8l4 -12q-3 -56 -12 -56l-4 4h-4q10 72 20 72z" />
<glyph unicode="&#x26;" horiz-adv-x="592" d="M228 904l72 -4l24 -24l-20 -52v-4l44 40q92 -46 92 -136v-4q0 -92 -108 -208l-28 4h-116l-24 4l-4 -4h-4l-16 4l-4 -4h-4q-27 0 -52 96l4 12q-12 0 -12 8h4q-12 22 -12 64q0 170 164 208zM244 880l-28 -4v-4h20l40 4v8l-4 -4h-28zM148 848v-8q3 -10 64 -56 q-24 -39 -24 -76v-8q0 -31 36 -128q92 100 92 156q-11 76 -64 76l-32 -12q-14 0 -56 56l-4 -4h-4l-4 4h-4zM324 792l4 -4v-4l28 4v4h-32zM332 756v-8h16l52 16v8h-12zM84 752v-4h20v4h-20zM72 740v-4l28 -4l20 4v4h-48zM372 736v-4l24 -4l4 4v4h-28zM416 704v-4h16l-4 4v4z M300 656l4 -16h12l20 -4q-7 20 -36 20zM264 612q-5 -28 -16 -28q8 -40 16 -40h16l8 8v12q0 34 -24 48zM124 508h36l36 -4l4 4l28 -4h96v-4q-29 -47 -40 -52l48 -100h-20l-4 4l-116 -16v-4q85 -3 92 -16l-4 -4h-4l-4 4l-20 -4h-32q-8 0 -8 12h-4q-8 0 -8 -12l-4 -4h-4l-4 4 l-4 -4h-12q-17 15 -64 32q0 13 12 28l-12 32l32 52v4l-16 48v4zM432 436q116 -26 116 -32v-4q-35 -152 -64 -152l-4 -4h-20l-40 4l-8 -8h-8l-12 8h-36v-4h8v-4l-4 -4v-4l100 -8l20 4l8 -8q-8 -18 -16 -20l-68 4l-4 4l-4 -4h-16l-48 -4l4 28q-28 -26 -28 -44h-8 q-72 94 -72 116l12 -8h4l12 8h16q8 0 8 -12h4l24 16l-4 4v4q0 7 24 12l12 -4l12 4l28 -40h4q0 14 20 28h-8v8l8 8h28l28 4v-4l48 8q0 12 -96 12l-4 4zM164 384v-16h16l12 12v8l-12 12zM100 328v-8h-8l4 -4v-4l-8 -8h-24v-8l4 4h4l32 -8l64 4v4l-44 4l8 16l56 -24 q-24 -50 -24 -96v-28l-28 -8l-12 4q-4 -12 -24 -12v8q0 72 -12 72l-16 -84v-36l8 -8l20 36l4 -4h4q0 8 60 24h4q0 -30 52 -48v-16h8q0 24 40 24l40 44q0 13 20 24q40 -20 92 -20l16 4q36 0 52 -24l-16 -4v-4h8v-4q-31 -23 -88 -36q4 -16 24 -16l64 8l4 -4h4l56 20l4 -4v-92 q0 -8 -12 -8q-58 0 -148 68l-28 -28q-29 104 -56 104v-4l-4 -4q4 -50 28 -120q-52 -28 -92 -28h-16q-135 0 -180 156l-4 52v12q0 8 12 8v4h-12q10 88 40 88q0 7 20 12zM400 288q0 -8 -12 -8v-4h8l8 12h-4zM280 272l56 -36v-4h8v8zM356 272v-4h20v4h-20zM92 100h16l8 8h-16z M444 56v-4h12v8z" />
<glyph unicode="'" horiz-adv-x="196" d="M40 1000h72l20 -20l-4 -12l4 -4v-4l-4 -4l4 -44h4l4 20l-4 4v8q12 0 12 8t-12 8v8l8 8l12 -28l-12 -140l-16 -8l-20 4l-36 -4h-8q-11 0 -20 148l80 -4v4q-84 9 -84 16v36zM60 896v-4l68 -8l-12 12l-4 -4l-20 4h-32zM120 808l4 -4h4l4 28v20q-9 0 -12 -44z" />
<glyph unicode="(" horiz-adv-x="340" d="M220 980q76 -33 76 -40q-132 -293 -132 -468l12 -100h-4l28 -120h-4q-140 55 -140 72l-12 76h4q8 0 8 -12h4v12l-20 48v44q0 218 172 488h8zM132 804v-4h24v4h-24zM64 300h4l32 -12v-8h-28l-8 8v12zM76 276h36l92 -36v-8l-12 4h-8v-4q22 0 28 -16l-112 -36q-12 15 -12 36 q13 8 40 8v4h-12v8h12v4l-16 4l-36 -8v16l4 4v4q-12 0 -12 8zM160 248v-4l12 -4h4v4l-12 4h-4zM216 196l16 -48q0 -16 -44 -24l-4 4l-12 -4q0 -12 -16 -12v-8l40 4l4 -4q0 20 36 20q11 -4 56 -128l8 -12q-61 -36 -76 -36h-12q-16 8 -16 24l32 16l16 -20v8h4l-4 4v12l12 16 q-25 0 -36 24l-8 8v-4l12 -32q-21 -16 -36 -16q-64 108 -64 132h28v4l-28 4q-15 11 -20 32zM168 36v-4h8q22 0 32 16v4q-40 -7 -40 -16z" />
<glyph unicode=")" horiz-adv-x="340" d="M124 980q176 -279 176 -508l-4 -16v-4q0 -127 -36 -128q-52 -2 -80 -24l-32 -4v4l24 140l-4 4v4l4 4l-4 4v4l4 12l-4 24l4 4q-36 254 -132 436v4q70 40 84 40zM204 504v-4l28 -4l24 4l-8 8h-24zM204 388v-4h4l16 4v4h-8zM264 392l-8 -20v-4h4l8 20v4h-4zM264 308h12 q-14 -99 -100 -272l-72 36h-4v-4q62 -25 72 -44q-43 -84 -52 -84q-80 36 -80 48l20 40q28 -14 28 -20q-12 -24 -24 -24q0 -11 44 -28l-28 24v4q9 24 16 24l12 -4l-48 32q40 95 84 240zM196 248v-4h8l20 8v4h-8zM152 140h4q15 12 52 12v4h-8v4l-4 -4h-4l-4 4q-36 -12 -36 -20 z" />
<glyph unicode="*" horiz-adv-x="416" d="M64 772q20 -12 20 -28h-4l-20 4l-4 -12h-8q8 36 16 36zM228 740q64 -7 64 -28l-4 -12l12 8l4 -4h4q0 20 8 20h8l4 -4l40 8l8 -12l-12 -4l-12 4v-4q0 -22 -88 -32l-4 -4l-4 -12h-4l4 -4l-4 -20q32 -45 32 -56h-4q-55 0 -72 44l-4 4q-11 -27 -24 -36l-4 4l-8 -8l-4 4h-4 q0 -8 -12 -8l-4 4h-4l-24 -8h-8v24l4 4v4l44 -12v4l-48 44l16 12v-8h4q64 0 64 20q-7 7 -48 12l-12 -4v4q0 21 12 36l20 -8q46 24 64 24zM52 728h4l16 -8v-16l-8 -8q-24 4 -24 12v4l12 12v4zM268 652q53 0 76 -40l-28 -24h-8q-1 19 -40 64z" />
<glyph unicode="+" horiz-adv-x="528" d="M216 648h36l4 -4l4 4h12l28 -28l-72 -72h-4q-12 4 -12 24v56zM308 484h4v-8h84l28 -8v8h20l44 -44v-24l-4 -4l4 -4v-12l-12 -12h-8l-4 4l-4 -4h-20l-4 4l-4 -4h-4l-4 4h-4l-24 -4v16h-12q0 -16 -12 -16v4l-4 -4h-8l-4 4h-4l8 56l-8 32l-12 -12v-56q0 -21 -12 -24v4 l-16 -4v-148l-56 16l-36 -4v-8l-8 8v136h-8v4l60 64l28 -4h24l4 -4h4v4l-28 32zM48 476l4 -4v-8h-12v4zM92 476h44l8 -8v-4q0 -13 -16 -12q-36 1 -36 12v12zM76 424l4 -4h4l12 4l4 -4v-4l-36 -36l-4 4l-8 -8h-4l-8 8v28q0 8 36 12zM380 404v-4l28 -4l4 4v4h-32zM148 392 l44 -8v-8h-8l-4 4l-4 -4h-12l-4 4l-4 -4h-8l-4 4l-4 -4h-4l-4 4l-4 -4h-4l-8 8l4 4h4l20 -4l4 4v4zM284 220v-8l-28 -8h-40v8h4zM304 216l4 -4v-8h-20v8z" />
<glyph unicode="," horiz-adv-x="212" d="M128 126h36l8 -8v-124l-8 -8q-5 11 -36 28v48l-4 28h-4q0 -20 -8 -20h-32l-8 8v20l-16 4q-5 -20 -12 -20h-4v8l4 4l-4 4v8h36l8 -8l4 4l52 -8l12 4v4l-20 4v8h12v4h-16v8zM84 66l4 -4l20 4h8v-8q0 -9 -20 -12l-4 4q0 -12 -16 -20h-8v24q0 6 16 12zM132 38v-4h28v4h-28z M120 10q0 -20 8 -20v8h8q15 -12 28 -12q-18 -60 -44 -92h-44l-8 8l32 104z" />
<glyph unicode="-" horiz-adv-x="468" d="M48 494h68v-8h-8v-12l4 -4l12 -4v-4q44 4 76 20v-56l4 -20l4 4l4 12h4l-4 4v4l4 4l-4 4v28q0 20 8 20l12 -4v4l8 8h180l8 -8v-120l-8 -8h-60l-4 4h-4l4 20v12l-8 68h-4l-4 -40l4 -60l-4 -4h-248q-8 0 -12 28l4 4q-44 0 -44 16v48q8 16 24 16v4h-4l-16 -8l-4 4v16z M340 474v-8h4q28 0 44 -8l32 4v4l-44 12zM164 422v-4h16v4h-16zM360 378q6 -16 12 -16l8 36l-4 12q-12 -2 -12 -32h-4z" />
<glyph unicode="." horiz-adv-x="212" d="M48 126h12l12 -8l8 8h32l8 -8v-8l-8 -8v4l-4 -4h-12l-4 4l-4 -4h-8l-4 4l-4 -4h-24l-8 8v8zM136 126h28l8 -8v-24l-4 -4l4 -4v-28q0 -8 -12 -8q-36 1 -36 12l4 4l-4 20v4l8 12l-8 8q6 16 12 16zM48 98l4 -4l4 4h56l8 -8v-12l-8 -12l-4 4h-60l-8 8v12zM44 66l4 -4h68v-8 l-68 -4l-8 8l4 4v4zM48 46h60v-8h24l8 -8h-4l4 -4v-4q-2 -12 -28 -12v-4q28 -1 28 -8l4 4h24v-8h-120l-8 8v36zM164 26l8 -8l-4 -4h-16l-8 8l4 4h16z" />
<glyph unicode="/" horiz-adv-x="544" d="M412 914l4 -4l4 4h24l4 -4l4 4h28l4 -4l4 4h8l8 -8l-296 -772h-4q-72 72 -72 80q252 672 268 700h12zM96 130h8l16 -16h-24v16zM92 110q44 -5 44 -12l4 4h48l4 -4h4q-28 -80 -40 -80l-16 4l-16 -4l-8 8h-44l-4 4h-4zM56 -2h76v-4l-24 -24h-68q0 22 16 28z" />
<glyph unicode="0" horiz-adv-x="492" d="M272 874l20 -20l16 12q20 -5 20 -12l-4 -4v-4q40 0 40 -12v-24l4 -28l4 4h4l12 -8q16 0 16 16h8q40 -64 40 -112l-12 -16q-34 0 -84 64l-28 28q24 28 24 48h-8l-32 -28h-4l-80 80l-40 -4l104 -108v-8l-8 -8q-20 12 -40 12h-4q-68 -10 -68 -68l-4 -4h-48v-12l8 -8h20l20 4 v-268l-8 -8l-4 4l-32 -12q0 -10 40 -12l4 -4v-4l-4 -4v-4l-40 12h-40l-40 -4l-4 4v108q0 8 12 8v4q-12 0 -12 8v40l8 8l8 -8q30 15 32 24v8l-8 8h-8q-13 0 -28 -12h-4v132q13 100 44 100q0 31 72 72l4 4h4l4 -4v-8l-8 -8l-8 8v-4q0 -20 40 -68h8q0 43 -24 68q8 32 60 32h36z M72 670l4 -4v-12l-4 -4l4 -24q13 10 28 76l-4 4v24h-4q-17 -3 -24 -60zM304 734q72 -56 72 -104q12 -39 32 -60v-4h-12l-20 -4l-4 4q0 -12 -16 -12v-4q26 -16 56 -16l40 8v-36h-4l-12 12l-4 -4h-4l-32 12v-36l-20 4l8 -36l-4 -4h-32l-28 -4l-4 4v216q0 26 -20 48v8zM88 618 l8 -8h28l8 8l-4 4h-20zM424 598h4l20 -20l-12 -12h-20zM332 474v-4h20v4h-20zM416 478l36 -24v-192l-4 -4v-4q-20 8 -60 8l-40 -8v-4l28 -8h76v-60l-12 -12q-110 60 -124 76v36l4 4l-4 4v36l8 12l-8 24v32q0 8 12 8v4q-12 0 -12 8v8q0 12 40 16v-4l4 4l20 -4l12 4l4 -4 q0 8 12 8l-4 4q4 32 12 32zM376 358v-12l36 4q0 10 -16 12zM48 326l8 -8h28l72 8l12 -16v-24h-8l-4 4l-36 -12v-12h20l28 8v-28l-8 -12q9 -9 12 -60l-4 -4q38 -44 64 -44h32q0 -52 40 -76h12l4 20q0 37 -48 44l-8 16l32 16l4 -4h4l-4 4v8q16 18 16 56v16h4l88 -48v-4 q0 -9 -36 -12q-27 -12 -36 -24v-8h8l16 4l12 -4q0 9 60 28h4l12 -8q-58 -160 -192 -160h-20q-124 0 -188 144l-8 48v16l64 32q0 9 40 16q0 12 -60 12l-20 8l-16 -4l-8 8v48zM164 106v-20h4v20h-4zM184 82v-24h4v24h-4z" />
<glyph unicode="1" horiz-adv-x="324" d="M236 862h32v-8l-4 4h-4l-12 -12q0 8 -12 8v8zM244 822h8v-28h8v-4l-4 -4l4 -12l-4 -16q5 -16 28 -40v-4l-4 -4l4 -20v-16q0 -8 -32 -12l-4 4h-4l-12 -4l-4 4v4l12 36l-8 8v8l4 4v4q-8 0 -8 20l-4 4h-4l4 20v4q-17 0 -24 16q28 28 44 28zM268 822l8 -8l-12 -8l-4 4v4z M144 802l8 -8l-8 -8h-12v4zM116 782l4 -4v-16q0 -9 -20 -12v4l-4 -4h-24v-8q16 0 16 -8l-36 -36l-12 4v44q3 9 56 24zM156 626h4l12 -4l16 4q60 -2 60 -8l4 4h24l8 -8v-48l-4 -24l4 -20v-16q-3 -9 -64 -44l-28 -24v-16q21 20 56 20l-8 12l40 24l4 -4v-8l-4 -4l4 -4v-20 l-4 -4l4 -4v-36l-4 -16l4 -4v-4l-4 -4l4 -28v-40l-8 -8l-32 36v4q12 0 12 8v4h-28q-64 53 -64 80q-16 0 -16 12v48q0 8 16 8v4q-16 0 -16 8v60l8 8q72 0 72 12q-13 8 -52 8v4l-4 -4h-16l-8 8v20zM156 370q128 -127 128 -140l-4 -4l4 -20v-8l-8 -8l-72 16q-31 -28 -40 -28v-4 l60 -52q0 -36 8 -36v8h4l-4 4v12l4 4v4l48 -32v-80l-8 -8h-4l-124 124v240zM276 278l4 -4h4l-4 -24h-4v28zM156 102l96 -100l-4 -4h-24l-52 24v8l8 8l-4 4v24h-4l-20 -16h-4v44zM160 18l24 -12v-8h-28l-8 8z" />
<glyph unicode="2" horiz-adv-x="500" d="M168 842q17 0 108 -100v-4h-32q-42 0 -64 -64h-8q0 16 -12 16q-24 -8 -24 -16q6 -16 32 -16v-8q-55 -36 -72 -36q0 -14 -16 -20h-8l-28 16v4l4 4v4l12 -4l32 4v4q-16 0 -16 8t16 8v4q-12 0 -12 8h-24l-12 8q0 93 104 176zM128 734l4 -4v-4q-16 -5 -24 -20l8 -8h20l-4 4v4 l12 20l-12 8h-4zM340 682l48 -52l-48 -16l-4 4v4l4 20l-8 36l4 4h4zM140 606h24l8 -8l-4 -4h-48v8zM432 598h16q12 0 12 -16q0 -39 -28 -68l4 -4q0 -38 -44 -64v-4h8q-18 -68 -64 -68h-4v-4l16 -4l4 4l4 -4q-23 -42 -44 -60h-20l-52 52v4h16v4q-36 0 -36 12v4l24 32h4l4 -4 h4l4 12l4 -4h4l16 4l4 -12q48 10 48 40q-14 16 -28 16l-32 -8l24 60h28v12h36l16 -4q52 8 52 16v8h-20v8h20l-12 20v4h8l-4 4v4zM188 330l48 -52v-8h-4l-76 20q16 31 32 40zM188 254h20l8 -8l-4 -4l24 -4l20 12h4l12 -8q-28 -49 -36 -52h-4l-4 4h-4l-4 -28h-4q-26 29 -60 44 l-24 -8q-8 16 -8 44l4 4h8l4 -4l4 4h28l4 -4h4zM208 234l-4 -16h8l4 16h-8zM100 210h8v-4l-4 -4l8 -44h12l4 28h8q0 -21 28 -44v-28l-8 -8l-12 24h-4v-4l4 -24v-4l-8 -8l-64 60l-4 -4h-8v8zM272 130h88v-8q-12 0 -12 -8q23 -36 40 -36l32 20l36 -40v-52l-8 -8h-16 q-27 31 -32 52q-12 0 -20 12q-36 0 -76 40l-32 20v8zM40 18h8l16 -16v-4h-16l-8 8v12z" />
<glyph unicode="3" horiz-adv-x="496" d="M240 874l4 -4v-4l-20 -8l-20 4v8zM232 854h4l8 -8v-12l-4 -4v-4l60 -20v-8q-17 0 -32 -12l-36 32l4 20zM132 830l48 -40v-4q-56 -7 -56 -20v-8q0 -7 24 -12q20 0 56 28l28 -24q-18 -20 -28 -20l-20 8l-4 -4v-4q0 -8 20 -8v-12l-8 -12l-20 8h-4v-4q16 0 24 -16v-12 l-24 -24h-44l-4 -4h-4l-4 4l-4 108v48zM396 818q60 -62 60 -144l-4 -4v-4l4 -24l-4 -4h-4q0 8 -12 8l-4 4v4l12 4v4l-4 4v4l4 4l-36 12q0 -9 28 -12v-8h-8q-36 4 -36 36l-20 -4l-44 40h4l56 -16h4q-17 24 -32 28l-20 -4l-36 8v8h20l4 -4h4l8 16l-12 20v4l20 -4q26 0 48 24z M144 742l8 -8h20v8h-28zM344 666l24 -24v-4l-20 -4l8 -24v-4h-12l-12 12l8 12l-4 4v24zM308 546q8 0 8 -12q0 -13 -16 -36v-16l8 -12v-4l-16 -20v-4l12 8l8 -8l-4 -4l12 -20l-8 -8h4l4 4h4l4 -4v-4q0 -16 -32 -48l-20 16v92l-4 28h-4l-4 -24l4 -4v-4l-4 -4l4 -4v-56l-4 -4 l4 -4v-4l-4 -4v-4q-72 10 -72 20v56q0 8 24 8v4q-24 0 -24 8v20q0 24 46 32q58 10 70 20zM232 430l8 -8h16v8h-24zM164 230l16 -76l-52 -48l-4 4v64q14 11 20 44h-8l-4 -4h-4l-4 4v4zM48 222h24l8 -8v-108h-8q0 37 -28 56l-4 16v36zM352 222l12 -4v-4l-8 -8l-8 12zM332 218 h8l8 -20l-16 -16l-4 4l4 4v28zM192 142q24 -16 72 -20v-4l-4 -4v-4l-64 12q-16 -5 -24 -20v-4l12 -16v-4h-12l-12 4v-4l-8 -16l4 -4v-16h-8v-8l8 -12l-4 -4v-4q-42 20 -48 36l4 4h4l16 -8v4l-4 28l64 64h4zM448 130v-4q-16 -52 -32 -52l-8 12v4zM212 82h16v-4l-20 -20v4z M396 78l12 -12v-4q-41 -45 -76 -56l-4 4v4zM196 50v-4l-28 -28q0 8 -12 8v8q0 8 40 16zM240 50q0 -8 20 -8l4 -4v-40l-8 -8h-8v4l4 4q0 19 -32 32l-12 -4v-4l24 -28v-4h-4q-29 0 -36 24v8q0 28 48 28zM280 38l20 -12l4 4l16 -24q0 -12 -40 -12l-4 4v32l4 4v4z" />
<glyph unicode="4" horiz-adv-x="460" d="M372 862v-4l-68 -68h-4l-28 24l-4 -16h-8l-12 12q0 24 32 24l4 4v4q0 8 -12 8l-4 4v4l4 4h100zM400 858h4v-92h-8q-3 24 -24 24v-4q0 -16 -12 -16q0 8 -12 8t-12 -20h-4l-16 16q76 84 84 84zM248 794h16l4 -20v-20l-12 -12h-4v8h-12l-4 -16l4 -12l-28 -24h-4v4 q28 92 40 92zM268 726h4q0 -8 44 -52q0 -8 -20 -8q0 -22 -96 -108l-12 8h-4q0 -37 -52 -76q-10 0 -12 16q61 157 88 160q0 7 60 60zM324 726h8l4 -24h-8l-4 20v4zM400 590l4 -4v-60l-8 -8l-8 8l-16 -4q-18 8 -20 16q6 19 48 52zM320 510h8l8 -8v-68l-8 -8h-44l-12 12v24z M400 502l4 -4v-176q-16 -24 -32 -24l-20 20v52l8 12l-8 8v16l4 12l-4 20v48h28zM276 422l28 -4h32v-24l4 -20h-4l4 -12l-4 -4v-4l4 -16l-8 -8l-60 52v32l4 4v4zM184 374h4l-20 -56h36l4 -4h4q-9 -24 -16 -24l-56 36v4zM148 298l52 -16q0 -24 -20 -24v-4h8v-12l-16 -8h-4v4 l4 4v4q-23 13 -32 28h8l-12 16zM308 286h4l12 -4v-8h-8l-8 8v4zM96 274q30 -5 32 -16v-16h-4l-28 28v4zM80 262l24 -28q-18 -8 -20 -16v-20l28 -4h12v-8h-76l-8 8v16l4 4l-4 4v8q28 36 40 36zM320 258h12l8 -8l-8 -8l-12 12v4zM312 250h4l24 -16v-20q0 -40 -56 -40l-8 12h4 l4 -4h4q6 68 24 68zM416 210l4 -4v-4l-12 -12h-4l-8 8q0 9 20 12zM140 198l4 -4v-4l-4 -4h-8v4zM400 134l4 -4v-124l-8 -8h-28l-16 16v8q8 16 20 16v12q-20 3 -20 12v20l12 12l12 -8q0 39 24 48zM304 30q18 -7 32 -28l-4 -4h-44l-8 8z" />
<glyph unicode="5" horiz-adv-x="488" d="M264 862h128v-4l-48 -64h4q41 59 56 68h24l8 -8q-32 -57 -32 -84h4l28 8v-40l-8 -8h-124l-4 4l-4 -4h-100v8q32 4 32 32h4l28 -4l-20 28v4l16 24l-4 4h-4q9 36 16 36zM64 858h4l8 -8q-3 -52 -12 -52q40 -80 56 -80l24 -4h20l20 4l4 -4v-116l-8 -8l-20 4h-8v-4q20 0 20 -8 q-8 -24 -40 -24v-4l4 -12l-68 -64l-12 12v4l4 4v4l4 -4h4q20 11 20 32l-32 24v296zM332 782l-28 -40h4l28 40h-4zM108 642q0 -8 40 -16h4v4l-36 12h-8zM260 598h28q80 0 120 -56q0 -21 -20 -32h-16l-4 4l-44 -12v-4q72 0 72 -12v-52l-8 -8h-20l-16 4l-16 -4q-28 17 -40 44 q-20 20 -52 20q-45 0 -56 -68v-24l-8 -8h-24l-64 64v8q77 83 104 100l28 -4h24l40 4v4h-80v4q7 12 52 28zM348 474v-4h36v4h-36zM440 454h4v-40l-44 -120h-56v-4h56l4 -4v-4l-8 -36l-20 4h-52l-12 12v8l4 4l-4 4v36l8 8h28q0 12 12 12l-8 8h-24v-8h-8l-8 8v4q0 12 92 12v4 h-88l-4 4v16l4 4l-4 4v16q0 7 12 8l68 4v-4l-8 -24l4 -4l4 4h8v-20h4q29 83 36 84zM444 246h4v-32q0 -104 -28 -104l4 -4v-4q-22 -48 -84 -88q-25 -16 -48 -16q-8 0 -8 12h-4q0 -20 -8 -20h-24q-8 0 -8 12h-4q0 -12 -12 -12q-60 0 -116 52q16 6 16 12q-8 8 -36 8l-12 16 q0 8 12 8l4 4v4q-48 0 -48 84l-4 32l16 12l4 -4l4 4h8v-8q-16 0 -16 -8l88 -4h20q9 0 20 -48q25 -28 48 -28h4l48 8l12 -4l36 4h4l20 -4q0 15 44 24l-8 8l4 4v8q-56 16 -56 32v8h4l4 -4l24 4v4q-60 0 -60 16l8 8h72l8 -8h-4l4 -4v-4l-4 -4l4 -12h12zM136 178v-20l8 -8h8v20 l-8 8h-8zM168 106v-4h36v8h-4l-12 -4v4zM328 106v-4h20v4h-20zM396 106v-4h16v4h-16zM128 66l8 -8l56 8v8h-40zM140 30h8q26 10 28 20h-8q-28 -14 -28 -20zM180 50l8 -8h24v8h-32z" />
<glyph unicode="6" horiz-adv-x="476" d="M236 874h28q7 0 12 -36l-4 -16l4 -20q8 0 20 60h4q60 0 120 -116q0 -22 16 -72h-4l-16 12l-4 -4l-20 4h-4l-20 -8v-12l36 -4l20 4v-8l-12 -12h-80l-16 4l-16 -4q0 96 -68 96q-48 0 -64 -64l4 -4v-172q29 24 44 24h4v-4q-53 -36 -72 -36l-4 4v4l8 8l-48 24l-4 -4v-8 q0 -19 28 -48l-16 -8v-12h36q20 0 20 -8l4 4h44v-8h-20l-40 -4v-4q44 0 44 -8l-12 -8h-76l8 -8h60l-8 -24l-20 4h-60l-20 -4v4l-4 -4h-20l-8 8v4q0 8 40 8v4q-40 0 -40 8v260q0 143 144 196l20 4l-4 -28l4 4h4l12 -4v4q6 28 16 28zM400 770l-4 -16v-4h4l4 16v4h-4zM76 742 l4 -4v-4l-8 -44h4l12 -8l32 64l-4 20h-12q-18 -24 -28 -24zM324 758v-4l16 -4l12 4v12h-20zM92 662l-16 4h-4v-12l12 -12h12q16 7 16 28zM256 534l-12 -12h-4l-8 8l4 4h20zM396 466h4l8 -8q-9 0 -20 -36l24 24h4l4 -20q0 -18 -40 -52q0 -12 -8 -12l-4 4l-4 -4h-60 q-9 0 -12 28l-20 28v8l12 12h8l8 -8q36 4 80 24v-4q16 0 16 16zM424 406h4l4 -40l-12 -4l-28 4v4zM48 370l48 -4l72 4l4 -4v-4l-4 -4l4 -4v-20q0 -12 -52 -12l-4 4l-4 -4h-4l-4 4l-20 -4v-4l20 -4h44l20 4l4 -4v-100q0 -8 -24 -8q0 -7 24 -16l8 -36q-24 -8 -24 -16v-16 q60 0 60 -40l-4 -12q28 5 28 12v28h8l12 -20v-4h4l4 12l-4 4v4l8 20h-8l-12 -8h-8v8q52 11 52 76l8 8q33 -15 104 -24l24 -20v-4q0 -8 -16 -8l-4 -4v-4q12 0 12 -16q-53 -140 -184 -140h-36v28h-4v-12l-40 12q0 -9 20 -12v-8q-96 41 -96 72l4 12h-4l-4 -4h-4q-36 50 -36 112 v172zM296 354h100v-8q-40 0 -80 -28l-20 -4v40zM408 354h20v-8h-20v8zM312 122l-12 -24q7 -68 24 -68h8q12 4 12 24v8q0 60 -32 60zM96 66h4l24 20h-4zM120 70v-4q24 -4 24 -12v-4l-4 -4v-4h4l12 12l4 -4h8v4q-8 0 -8 16h-4v-8h-4l-28 8h-4z" />
<glyph unicode="7" horiz-adv-x="472" d="M48 862h60q0 -8 12 -8q0 -35 72 -120l-4 -4h-52l-12 8h-20l-12 -8h-44l-8 8v116zM336 862v-8h-8v-4q17 0 28 -24v-4q-24 0 -24 -8v-8h4l4 4h4l4 -4v-4l-16 -4l8 -8l20 20h4l4 -4q20 -9 20 -28l4 4q24 -3 24 -8l4 4h4l8 -8v-28q0 -23 -32 -144h-8q-54 82 -88 112l-4 16 l4 4q-20 1 -68 72v8h8v4l-40 28l-12 16l4 4h140zM44 834q10 -24 36 -24q16 4 16 24q-15 12 -28 12q-12 0 -24 -12zM248 830v-8h28l8 8v4h-8zM284 622l8 -24h-12l-8 8v4zM308 590l68 -96l-4 -4q-24 16 -40 16v-4q0 -11 -36 -24l-44 48q8 60 28 60zM284 574v-4l20 -4h8l-8 8 h-20zM256 510l32 -44q-12 -9 -12 -28q-20 -12 -20 -28l4 -4l-4 -4h-4v4l-28 -8l-4 4l24 72l-4 4v4q7 28 16 28zM224 390q44 0 44 -60q12 -9 12 -20h4q0 12 8 12q12 0 12 -16l4 4h4l12 -20q-13 -64 -28 -64q-36 16 -44 28l12 12l24 -4h16v4q-36 0 -36 12v4q0 8 16 8v4 q-11 0 -28 20l-24 4h-4l-28 -4q0 48 32 48v12q-16 0 -16 12l4 4h4zM152 122h4q5 0 16 -40q40 0 40 -24l4 -20h24l12 12v4l-20 20q8 18 16 20l20 -8q-11 -88 -24 -88l-4 4l-28 -4h-88v4q4 44 16 44q26 -12 76 -20h4v4q-84 20 -84 32z" />
<glyph unicode="8" horiz-adv-x="504" d="M260 874q85 0 128 -52v-4l-4 -4l4 -16h24q36 -49 36 -84l-4 -4l8 -8v-24h-4q-8 0 -96 80q24 17 24 36l-4 4l-36 -24h-4l-112 96l4 4h36zM192 866q32 -20 128 -108l-20 -24q-21 16 -36 16h-24q-29 0 -56 -28l-4 4h-4l-12 -4v-12l8 -8l-4 -48v-12q0 -120 80 -120l52 12 v-104q0 -8 -12 -8l-4 -4v-4q16 0 16 -8v-4l-24 -24l-12 24h-8l-8 -8l4 -20q-69 0 -80 -88v-4h-8l-88 112q5 13 64 64l4 20l-24 24h-8v-4l12 -28h-4q-43 36 -44 56h4l16 -4q0 16 24 16q40 21 40 32l-16 -4l-36 4q-36 -6 -36 -36q-12 0 -24 68h4l-4 4v56q0 133 104 192h12 q0 -26 36 -76h8v12q0 39 -20 56l-4 -4h-4l-12 12q4 12 24 12zM296 854l8 -8h24v8l-12 4zM276 830v-4h32v8l-20 4h-4zM336 746l116 -100l-8 -8h-12q0 11 -24 16l-16 -4v-8q60 -10 60 -16q0 -49 -16 -92h-8l-4 4l-4 -4h-4l-68 28h-4v-4q6 -18 52 -52v-16h-8l-4 4l-20 -8 l-52 56v8q26 40 24 84t-24 96zM80 698v-4l28 -4l20 4v4h-48zM120 682v-8h44l-8 8h-36zM92 658q0 -12 36 -12h4v4l-36 8h-4zM204 522v-4l4 -28q-36 -43 -36 -92l4 -4h4q17 40 40 40l16 -4l4 4v4q0 9 -32 20v4l8 44l-4 16h-8zM308 518h8l52 -52l-52 -52h-8v104zM276 478 q0 -12 -8 -12l-4 4h-4v-4l8 -8h16v12zM360 450h8q28 -15 28 -36v-32h16l12 8q12 0 28 -52v-4h-8l8 -12q-69 -80 -92 -80l-4 -4q0 -12 -8 -12h-4q-18 0 -20 92l-20 32q4 68 24 68l4 -4v-4l-4 -4v-4q12 0 12 -8q28 4 28 12v16q-16 0 -16 12l-4 -4h-8zM216 394v-12h4l20 4v8 h-24zM296 390l4 -4v-16l-8 -8l-12 12zM372 322v-4h20v4h-20zM40 306h4q15 -9 28 -32v-4h-24l-8 8v28zM440 278h4l20 -24v-44q-12 -132 -48 -132q0 -25 -48 -56q-17 13 -80 100v12l8 8h8l4 -4l4 4h4q51 -40 64 -40h4v8q-8 0 -52 40l40 8l28 -36h4q21 0 24 12v12q0 6 -32 20 v-8h-8q4 36 12 36h52q-6 48 -20 48l-8 -8l8 -28h-36l-8 8v8l44 44l4 -4h4v16zM48 210l4 -4v-4h-4q6 -16 20 -24l60 24l24 -32q-49 -27 -52 -40h4q21 0 56 28q52 -54 52 -68q-14 -32 -20 -32l-36 4h-8v-4l40 -8l-4 -28v-8h-12l-60 80l4 4l12 -4l20 4l28 -4v8q-32 0 -44 12 l-4 -4h-4l-16 8l-4 -4h-4q-60 63 -60 84v4zM52 154l108 -140v-4h-4q-53 24 -84 80q-13 0 -28 60l4 4h4zM216 62h8v-12h-8v12zM220 42q6 0 20 -40l-12 -12l-32 4q13 48 24 48z" />
<glyph unicode="9" horiz-adv-x="476" d="M236 874h24l8 -8l-20 -20v-4h4l24 28q52 0 116 -76l-8 -12q28 0 28 -24q12 0 24 -92h-4l4 -4v-8l-4 -16l4 -12l-4 -4h-12q-55 16 -80 16h-24q-10 0 -12 16l4 4v4l-16 52q-24 24 -52 24h-8q-56 0 -56 -88v-20q-10 -16 -84 -32l-12 -16l36 -4q32 7 32 16q28 -4 28 -12v-36 h-8l4 4v4h-4l-52 -4l-36 4l-16 -4l-24 28v12q3 12 32 12h16q0 9 28 32v8q-36 6 -36 12l-4 -4h-4l-4 4l-4 -4h-12v4q43 56 80 56h8v8l-4 20l40 40h-4l-60 -60l-56 -52l-12 -8l-4 4v28l20 28v4q-12 0 -12 8l4 4h4l-4 4v4q57 132 184 132zM180 846v-8l8 -8h28l8 8l-12 8h-32z M184 790v-8l60 52v8zM312 782l-4 -4v-8h4l4 12h-4zM392 642l24 -8q0 8 12 8v8l-12 4q-24 -5 -24 -12zM136 634v-4l20 -4l4 4v4h-24zM424 598h12v-4l-4 -4l4 -20v-4l-8 -8h-4q0 12 -12 12l-4 4v4l16 16v4zM44 582q0 -12 40 -12q-2 12 -32 12h-8zM340 574q25 -8 28 -20l-48 -8 v4l-4 -4h-4l-8 8v8q0 9 36 12zM336 542l16 -4h12v-8l40 4l8 -8l-4 -4v-4q18 0 28 -16v-24l-4 -4l4 -4v-8l-4 -4l4 -4v-52l-4 -4l4 -4v-52l-4 -24l4 -20q0 -31 -20 -40q-18 7 -32 28q0 8 12 8l-4 4v12l8 12l-4 4l12 4l-8 16q0 16 24 16q0 6 -32 20v4l4 4v4q0 20 -16 20 q-9 37 -56 84l-20 32q0 8 32 12zM80 514l104 -88v-4l-20 -40v-52h-4q-64 0 -108 108l-4 20v8l44 -8l16 4q-4 12 -24 12h-40l-4 24q17 16 40 16zM172 498q20 -56 56 -68v-12h-4l-84 72v4h24l4 4h4zM124 438v-4l4 -12l-4 -4h-4v8h-4v-8l4 -4h12v16zM112 402l8 -8h20v8h-28z M200 406q21 0 48 -36v-4l-4 -16l8 -16l-24 -8l-40 44zM360 274h4l20 -16v-4h-32v12zM376 238h20v-4q-80 -91 -80 -116l-4 -16l-44 8v-8h-12l-8 16v4q24 0 52 36h8l-8 12q0 24 32 24q16 0 16 8v4l-20 24v4zM420 222h4l12 -12q-4 -88 -24 -96h-4l-4 4l-4 -4h-32l-12 12v16 q0 21 64 80zM48 218h36l48 -32q-10 0 -20 -12q-20 0 -20 -24h-20v-4q14 0 16 -28l-8 -8l12 -12l-4 -4v-4l4 -24v-8q-7 0 -24 28l8 8q-28 0 -36 84l4 4h4l4 -4h4q32 4 32 12q0 9 -48 16v4zM360 106h52q0 -22 -40 -60h-4v4zM92 58l20 -16l4 4h8l8 -8v-16h-4l-36 32v4zM252 58 q4 -20 36 -20l20 -28v-8l-60 -12h-16l-60 8v24h8v-12h4l4 24l28 -8q0 32 36 32zM312 54l8 -40l-4 -4h-4l-20 28zM148 38h4l8 -8q-8 -16 -24 -16v4q3 20 12 20z" />
<glyph unicode=":" horiz-adv-x="216" d="M48 490h68l8 -8v-4l-8 -8h-12l-60 -4l-4 4v12zM140 490h28l8 -8v-12q0 -21 -40 -52l-8 8v20l4 4l-4 4v4l4 4l-4 4v12zM48 462h68l8 -8h-4l4 -4v-24l-8 -8l-8 24h-8l-12 -24l4 -4v-16q0 -8 -44 -8v-4h44l4 -4v-4l-20 -20h-28l-8 8l4 4v4l-4 4v4l4 4l-4 20v48zM120 410 l4 -4v-4l-4 -4h-4l-4 4v4l4 4h4zM172 410l4 -12l-4 -4v-4l4 -12h-4l4 -4v-4l-8 -8h-20v24zM136 374h4l4 -12l-4 -4h-16v4zM64 126l8 -8l-8 -8l-8 8zM88 126h28l8 -8v-4l-20 4h-16v-8l-8 8zM136 126h8l8 -16v-4h-4l-4 4l-4 -4h-4l-8 8v4zM140 102h24q9 0 12 -28h-4l4 -4v-4 l-4 -24l4 -12l-20 4v-4l20 -28l-8 -8h-100l-8 8v20q12 0 12 16v4h-4v-8h-8v40l8 8l4 -16h4q0 16 8 16l-4 4v4l8 8h28l4 -4h4l-4 -4v-4l4 -24q0 -8 -36 -8v-4q36 0 36 -8l4 4h8l4 -4h4l-4 -20v-20q8 0 12 44h8v4q-32 4 -32 12v28zM68 98l4 -4v-4l-4 -4h-4l-4 4v4l4 4h4z" />
<glyph unicode=";" horiz-adv-x="212" d="M48 490h20l8 -8v-4l-12 -12h-16l-8 8v8zM88 490h32v-20h-32l-8 8v4zM136 490h24v-4l-32 -32l-4 4q4 32 12 32zM168 474l4 -4v-104l-8 -8h-80l-12 8l-8 -8h-4v4l44 44h12l4 -4h4l8 8h4v-4l-4 -4v-4l4 -4h4l-4 -4v-16l8 -8q0 32 12 32h12v4h-20v4l4 4v4q-24 4 -24 12v4z M48 462h64l8 -8v-8l-76 -76h-4v84zM144 126l8 -8v-8l-4 -20h-4q-7 1 -24 32l4 4h20zM168 126l4 -4v-4l-8 -8l-4 4v4zM64 122l4 -4v-8l-8 -8l-4 4v8zM168 106l4 -4v-16l-8 -8l-8 16zM116 90q8 -3 36 -48l-4 -4h-8v8q-40 0 -40 8q11 36 16 36zM168 74l4 -4v-12h-4l-8 8z M132 42v-8h24l16 -16l-4 -4h-4l-16 4l-12 -4v-4h8v-4l-4 -4v-4q32 0 32 -8l-12 -12h-4l4 -4v-4l-12 -28h-4l-4 4h-4v-8h-8v44h4l12 -4v4q0 15 -60 32q0 -6 32 -24l4 -4v-28l-4 -4l4 -4q-3 -56 -12 -56h-4l-4 4h-4l4 20v28h-4l-8 -32h-4q-8 0 -8 12l20 68h-32l-8 8 q25 40 76 40zM76 -90l12 -12l-4 -4h-8l-8 8z" />
<glyph unicode="&#x3c;" horiz-adv-x="516" d="M472 660l4 -4v-4l-8 -24l8 -8v-4l-64 -92h-4l-4 4h-4q-5 -13 -36 -24l-4 4v4q48 58 48 72q47 76 64 76zM440 644v-4q-94 -156 -124 -156l-12 -4q0 46 -44 88q0 7 176 76h4zM472 600l4 -4v-4q0 -44 -8 -44l-40 -16v4zM416 572v-4l4 -4v-4l-8 -8v-4h4l8 8v8zM244 564l4 -4 v-4l-20 -64q12 0 12 16h8v-48q0 -6 -64 -28q0 -7 36 -20v-4l-4 -4l4 -4h-8l-4 4h-4v-4l8 -12l-32 -32v-4h4l28 20l28 -68v-8h-4q-191 82 -196 92v84q25 24 56 24l8 -12l24 4l-8 20q31 20 124 56zM216 520v-16h4v16h-4zM260 516h8l12 -32q-5 -20 -12 -20l-8 8v44zM168 456 l-4 -4v-8h32v8zM252 400q12 0 12 -16h16q108 -36 108 -48l-72 -68l-8 8v4q20 0 20 28v8h-4q-22 0 -36 -24v-4l4 -4v-4l-4 -4h-4l-8 8l12 68h-4l-12 -8h-4l-8 8v32h-8l-4 -4h-4l-4 4q6 16 12 16zM420 328h4l12 -12q-15 -16 -32 -16l4 -20q-21 -44 -32 -44q-32 14 -32 20z M472 304h4v-72l-4 -4l4 -4v-4l-4 -4l4 -4v-12h-8q-21 0 -28 16q14 59 32 88zM428 248h4l12 -12l-12 -12l-4 4v20z" />
<glyph unicode="=" horiz-adv-x="524" d="M48 588h60v-4l-64 -64h-4v60zM152 588h8l4 -4h4l-4 -48v-20l-4 -4l4 -4v-12l-8 -8h-28q-8 0 -8 12l4 4v4l-4 4v4l4 16l-4 12h4l-4 4v8zM188 588h108v-4q0 -10 -52 -12v-4l28 -4v-8q-12 0 -12 -12l-52 -48h-4v32h-4q0 -40 -8 -40q-12 4 -12 24h4l-4 12l4 24l-4 32z M336 588h32v-8q-10 -20 -40 -20v-4q12 0 12 -8v-4q-12 -15 -12 -28l28 24h4v-12l-8 -12v-4q12 0 12 -12h8l4 12l40 -12v-4l-8 -8h-128l-8 8v28q34 44 56 44l-4 4v4zM388 588h88l8 -8v-44l-4 -4v-4l-36 8l-12 -4l-4 12l36 12v4q-35 4 -44 12l-8 -8q-16 4 -16 16h-4 q0 -12 -8 -12h-8v4q6 16 12 16zM400 552q20 -2 20 -24l-12 -8h-24l-8 8v8q0 8 24 16zM104 544l8 -52l-4 -4h-60l-8 8l4 4h4l8 -8zM252 504l4 -4v-4l-8 -8l-8 8zM424 496h56v-8h-48zM48 400h52q0 -22 -56 -68h-4v60zM148 400h68l8 -8l-4 -4v-4l4 -20h4l4 28l-4 4l4 4h244 l8 -8v-12l-8 -12l8 -8v-12l-4 -4v-4l-32 8h-8q-8 0 -8 -12q-8 0 -8 12h-4q0 -16 -8 -16h-28l-8 8q3 24 12 24h68l8 8q-88 7 -88 16v8h-4q0 -24 -44 -24v-4q32 -4 32 -12v-16l-8 -12q12 0 12 -16h8l4 12q36 -16 104 -16v-8h-200q-8 0 -16 68h-4l-4 -28v-32l-8 -8h-200l-8 8 l4 4h4l8 -8q0 11 48 52l8 -44l12 8l-4 4l4 20l-4 4v4l4 4v4l-4 4v4q7 18 28 32zM244 384v-4l20 -4h36l28 4v4l-36 4zM208 348v-32h4l4 20v12h-8z" />
<glyph unicode="&#x3e;" horiz-adv-x="512" d="M48 660q63 -25 96 -48q-40 -40 -52 -40q-24 39 -24 60l-4 -4h-4l-20 4v20zM176 604q110 -44 136 -64q-36 -34 -36 -72l4 -12q19 6 44 68l12 8q80 -27 80 -36q-24 0 -40 -52l-36 -52h4l48 8h8q23 0 44 -16q12 15 12 28q-40 50 -40 80v4h4q52 -14 52 -24v-24l-4 -44l4 -24 l-232 -100q-36 16 -36 44h8l12 -8v16l-8 8q-12 0 -12 -12l-16 20q7 0 36 36l104 40v8q-68 22 -68 33t-8 11l-8 -8l-68 28q-12 0 -12 8v88zM156 584l4 -4v-68q0 -8 -12 -8q-23 8 -32 28v12zM40 576h8l4 -28h-4l-8 8v20zM272 392l-4 -4v-8l4 -28h-4l20 -44h4q0 15 12 32 q0 32 -32 52zM144 352h16v-4l-8 -8h-8v12zM168 352l28 -36v-4h-4l-24 12v28zM136 344q12 -12 12 -28h12v-64q0 -12 -60 -28h-8l-36 8l-12 -4l-4 4v68q24 22 96 44zM172 320q41 -36 56 -36v-4q-39 -28 -60 -28h-4v60zM80 304l-8 -24l8 -8h16l4 28zM40 212h4l8 -8l-8 -8l-4 4 v12z" />
<glyph unicode="?" horiz-adv-x="492" d="M232 880l4 -4l16 4q90 -9 100 -28v-4q-38 0 -48 -52v-24l8 -12q88 18 88 48h4q48 -58 48 -148q0 -131 -128 -256l-44 116h4q25 -18 80 -32l12 16l-4 4v4l4 12q-49 72 -68 72v20q9 24 48 24v4q-44 4 -44 16v28q-11 72 -68 72q-62 0 -80 -104h-4q-72 11 -72 20l-8 16 q5 44 12 44l-4 4v4l4 4v4l-12 12q-15 0 -24 -40v-40l-8 -8q-8 0 -8 12q0 92 96 164q33 19 96 28zM176 816l4 -24h16v20l4 4q-5 24 -12 24q-8 0 -8 -24h-4zM416 640v-12l16 -4v16h-16zM284 552h8l4 -20h-16zM252 496h4v-56l-4 -4l4 -4v-4l-4 -24l4 -16h-4l4 -4v-4l-4 -4 l4 -12l-4 -4q8 -36 8 -96v-36l-8 -8h-4l-12 8l-8 -8h-36v4l12 16v4q-8 8 -8 32h-4q0 -24 -16 -24l-16 -4v-8q12 0 20 -16v-4h-20l-8 8v52q0 113 48 152q0 14 52 64zM236 468v-40h4v40h-4zM208 368v-28h4v28h-4zM268 264h8v-40h-8v40zM160 132h12l12 -8l8 8h36l8 -8v-4 l-12 -12l-4 4l-4 -4h-12l-4 4l-4 -4h-36l-8 8v8zM248 132h28l8 -8v-116l-8 -8h-116l-8 8v88l8 8h64l8 -8v-28q0 -8 -20 -8l-4 -4v-4l24 -4l36 4v4q-28 3 -28 12v32l4 4l-4 4v16zM252 44v-12l-4 -16l4 -12h4l4 16l-4 12l4 12h-8z" />
<glyph unicode="@" horiz-adv-x="956" d="M452 906h96q31 0 80 -60l-8 -12v-16l12 -40q-62 20 -112 20h-12l-4 4l-4 -4h-16q-228 0 -324 -256q-6 -44 -16 -44l4 -4l-4 -128l4 -28l-24 -8v-4q30 0 44 -80q-32 -8 -84 -8v-4l40 -4h44l52 -80q106 -128 280 -128q126 0 256 92l36 -48l-12 -4l-112 -8v-4l64 -8l12 4 l12 -4l4 4h4l12 -4l4 4v-4q-10 -20 -28 -20l4 -4v-4l-12 -8h-12l-40 4v-8h20l48 -4q12 20 36 20l-8 12l16 12h4l8 -8v-8q-78 -62 -120 -64q-23 40 -76 40l-4 -4v-4l44 -44v-8l-92 -20v4q-18 -8 -52 -8q-218 0 -336 124v4h16v4q-32 0 -32 8h48v4l-28 8l-32 -4l-32 48l12 4v4 q-34 0 -48 52q-44 94 -44 188l12 8l-4 4v4l16 16l-4 4v24h-8l4 40q-12 0 -12 24q0 43 32 68l12 -12l4 4h4l12 -4q60 48 60 88l-12 8l-32 -8v4l36 52v8l-4 -4h-8v4l8 20q-52 -44 -52 -56h-8v4q1 9 24 28q18 64 52 64l8 -8q30 42 152 136l28 4h4l-4 -12l12 -16h16v8l-4 28 l20 4h4l12 -8h8q0 16 24 16zM664 882q140 -61 208 -196q32 -94 32 -128l-100 -28q-23 127 -72 176l-24 24l4 4v4q-10 0 -12 16l4 12h4l120 -116v4l-4 16l12 4q0 23 -104 116l-8 16v4h8q-28 23 -28 40h-28l-20 20v4zM420 730l-12 -48q28 -10 28 -20v-4q-37 -31 -56 -108 l-12 -12q0 20 -44 20v-4q0 -10 32 -16h12v-4q-28 -124 -40 -124l-44 -8v-4l44 -4v-8l-4 4h-4q-4 -12 -24 -12q-44 0 -44 12v4q23 3 44 28l-8 8h-4l-88 -28v4q0 126 116 272q56 46 108 52zM428 730h28q59 0 88 -44l8 -8l20 -4v4l8 8h16l12 -16l36 8l12 -4l40 32h4l4 -4h4 q-24 -168 -32 -168l-16 -4l-8 8l-28 -4v-4l12 -16l-24 -20v-8h4l56 12l4 -4q0 -32 -28 -32v-4l12 -4l4 4l4 -4v-4q0 -48 -24 -48l8 -20h-4q-20 7 -20 20l4 28l-16 16q0 8 20 8l4 4v4q-28 3 -28 20l-32 -8l-12 4l-12 -4v4l-20 -4v-8l32 -4l-4 4v8q48 -6 48 -20v-4l-72 -16 l-12 4q1 20 8 20l-4 4v60q0 8 24 8q12 15 12 28v4q0 12 -40 12q-22 48 -72 48v12l32 36v20l-20 20l-20 -4q-8 16 -20 16v8zM904 522v-4l-104 -92l-4 4q0 40 32 40q16 0 16 8q-40 0 -40 8v4q0 13 100 32zM108 514v-4h36v4h-36zM292 502v-4h32v4h-32zM892 418l8 -12 q-17 -96 -44 -96h-4v-4q12 0 12 -8q-22 -56 -48 -56h-16v-4l20 -4v-8q-17 -36 -64 -36v-4q16 -2 16 -12q0 -9 -20 -12v4q0 13 -28 36q-28 33 -28 48q9 0 60 60h84v8h-60l-8 8q18 16 36 16v-4l12 4v4h-16v4q68 68 88 68zM528 410l32 -36v-4h-4l-4 4l-12 -4v-8h28v-8h-56v4 q6 52 16 52zM332 378l4 -4v-8l-4 -4l4 -4v-4l-4 -4q0 -136 92 -136q20 -28 20 -48l-28 -8l-20 4l-32 -8q0 -9 56 -12l16 4l28 -4l20 4v-8l-44 -20l-4 4h-4l-24 -8h-32q-82 0 -140 84q15 8 20 24h-8l-20 -4l-16 28l108 28l-8 12q0 8 12 8v4q-24 0 -24 8l-4 -4h-4l-4 4l-4 -4 h-76q-12 4 -12 24v20zM616 378v-20l-28 8v8zM512 346q28 -3 28 -8l4 4h8l8 -8l-4 -20l24 -8l28 8l20 -24v-8q-17 -23 -36 -32h-4l-4 4l-4 -4l-24 4l-84 -4v8q16 20 36 88h4zM632 334h16v-12l-8 -8zM84 290v-4l8 -8q28 9 28 20h-4zM276 290v-8l-68 -16l-4 4v8l8 8h24z M316 238v-4l48 -16v8q-28 6 -28 16zM460 242l68 -4l4 -4l4 4q64 0 64 -32v-4l-12 -32l80 64l16 -20v-8h-8v-4q47 -32 52 -48v-8q-41 -32 -104 -32h-28q-40 0 -64 32l4 4h4q4 -12 24 -12v20l-4 16l4 16l-84 16l-16 -16l-24 28v4zM648 186v-4l20 -4h4v4l-16 4h-8zM784 130 l40 -12h4v4h-12v8h48v-4l-36 -36h-20l-28 36zM892 130h16l8 -8q-13 -12 -24 -12l4 -4v-4q-28 -39 -40 -44h-20l-8 8q25 36 52 36v4h-8v4zM224 110v-4l12 -4v8h-12zM240 70l8 -8l8 8v8h-8zM600 30v-4h52v4h-52zM320 26v-4h36v4h-36zM332 6v-4h20v4h-20z" />
<glyph unicode="A" horiz-adv-x="548" d="M192 862h168q10 0 28 -124l-108 -104l-8 8l-4 -4v4l-24 -4v-4h28v-8q-33 -48 -76 -48v-8q12 0 12 -8l-8 -8h-4l-20 4v-8q12 0 12 -8l-64 -64h-4v4q0 36 32 36v4l-24 4q0 32 20 52l-8 12q40 272 52 272zM384 730h4l16 -100l-4 -4q7 0 16 -56l-20 -4v-4q28 0 28 -52l4 -28 l-92 12v8h16v8l-24 -8v-4h-8l-24 24v4h4l48 -4l12 4v4q-72 5 -72 28l-8 72zM364 646l-4 -4v-4h28v4h-8v4l-4 -4h-4l-4 4h-4zM264 610h4v-4q0 -48 -12 -48l-20 28zM352 574v-4h16v4h-16zM196 546q37 0 60 -24q-7 -74 -24 -112l8 -8q-3 -44 -12 -44h-8q-18 16 -56 16h-20v-4 q64 -11 64 -20l-4 -4v-4l24 -8v-8h76l8 -8v-40h8q0 26 24 36l8 16q-32 0 -32 12l-20 128h4q156 -147 156 -164l48 -304l-4 -4h-124q-12 0 -40 200h-132q-29 -195 -36 -200h-44l-8 8l24 16v4l-12 12h-8l-24 -8l-48 52l64 368l96 -12v4q-35 12 -80 12h-8l-8 8q42 52 64 52v-4 l20 4v4l-12 4l-4 -4h-8v4zM368 530l20 -20l4 12l-12 16h-4zM228 490v-44l8 -8v52h-8zM344 482q72 -8 72 -16h-4q6 -16 12 -16h4v8h8v-4l-4 -4q8 -9 16 -76h-4l-84 84v4h8v4q-28 0 -28 12zM244 274l4 -4v-4l16 4v4h-20zM260 206h12l28 4l-8 8h-8q-24 0 -24 -12zM48 54h4 l48 -52l-4 -4h-48l-8 8z" />
<glyph unicode="B" horiz-adv-x="520" d="M48 862h120l4 -4h4l-4 -4v-76h8v72l12 12h76q24 0 24 -12l-16 -44h-8v16h-4q0 -31 -20 -80l4 -12h-48q-8 0 -8 24h-4l-4 -60v-80q0 -8 -20 -8l-4 -4v-4l16 -4l4 4l4 -4v-32q-32 -24 -32 -48l4 4h4q24 -16 48 -16l72 20q34 -76 52 -76v12l-36 60h40l8 8q-3 13 -36 16v4 q16 50 20 92h12v4q-24 0 -24 36l-20 32v12q0 34 36 88l4 12h-4l-28 -44v8q0 36 16 64q63 -25 80 -48l-68 -76h8v-4q12 0 56 28q28 6 28 16h-20l12 12h8q40 -71 40 -144v-24l-4 -4l4 -4v-8l-4 -4v-4l-48 16l-52 -4v-8l64 -12l4 4h4l4 -4l4 4h12l8 -8q0 -59 -80 -120h-4v-4 q34 0 44 -52l4 4h4q34 0 52 -148v-20q0 -158 -124 -216q-32 -20 -108 -20q-11 0 -44 40v4l4 16l-4 16h4q-8 16 -8 44v8l8 8q12 0 12 -52h4q0 44 16 50l52 14q27 -51 52 -68h4l4 16q-32 24 -32 44q10 0 12 16l-12 32q16 60 24 60l4 -4v8q-20 0 -20 72q-19 64 -120 64h-24 q0 -17 -16 -24l-8 12l4 24v4h-4q-3 -20 -12 -20h-12v8h-4q-22 -16 -40 -16l-4 4v48q0 8 12 8v4q-16 0 -16 12v96l-4 -4l-4 -12h-4l4 -4l-12 -152h-24v172q0 8 20 8l-4 4v4l-4 -4h-4l-8 8v104q0 8 16 8v4q-16 0 -16 8v8q0 8 20 8v4q-20 0 -20 8v136zM228 854v-36h4v36h-4z M112 698l-8 -36l8 -8q-13 0 -16 -44q7 -32 12 -32l-4 -20v-72l-4 -4l4 -4v-40h8v96l4 4l-4 4v20q15 10 24 84h4v8q-20 0 -20 36l4 4l-4 4h-8zM336 674l8 -8h4q56 0 56 16v4l-4 -4h-4l-4 4zM396 646l8 -8l16 4v8zM172 482v-4h16v4h-16zM116 398q40 38 40 60v8 q-40 -44 -40 -68zM256 434l-8 -36v-8h8l8 44h-8zM312 422v-4h20l28 4v4h-20zM176 410v-4h28v8zM432 374v-12h8l4 12h-12zM60 354l4 -4v-8l-12 -12h-4l-8 8v4q0 7 20 12zM348 338v-20h-8v-4l20 -4q56 9 56 20h-8l-28 -4l-4 4v4l4 12h-4l-12 4zM364 238v-4q35 -12 80 -12h24 l8 8l-36 8h-76zM352 206v-4l8 -8h24v12l-12 4zM120 210h12l48 -16v-8l-4 -4l4 -4v-4l-8 -24l4 -24l-4 -20l8 -8l-4 -20h8v-16h-4l-80 80q1 20 8 20l-4 4zM88 102h8l88 -88v-8l-8 -8h-36q-9 0 -12 52h-4q-2 -52 -12 -52h-60l-12 12v68h4l20 -20q24 31 24 44z" />
<glyph unicode="C" horiz-adv-x="492" d="M252 874q55 0 88 -28l-112 -108l-12 8q0 -12 -44 -40l4 -4q-2 -36 -8 -36l4 -4v-8l-4 -4l4 -4v-32l-16 -16h-4l-4 20l16 12v4l-36 8l-24 -16l-4 4h-4q0 -11 -20 -20q9 -24 28 -24v-8h-12l-16 12h-4l16 -20q0 -8 -16 -8l4 -4v-4l-4 -4l-20 4h-4q0 -6 28 -20v-4l-12 -4v-4 l8 -8l-8 -16l4 -12l-8 -8h8v-8h-4q-24 4 -24 12l8 8v4l-8 12v80q4 12 24 12l4 -4v8h-20l-8 8v68q0 109 116 172l12 -4v-28l8 -8h12l16 16v8l-16 20q0 20 64 20zM364 834q10 0 36 -32q0 -8 -12 -8v-8l44 -24q20 -50 20 -80v-76h-8q0 12 -8 12l-24 -8h-16l-4 4l-44 -8l-12 4 v-8h-12l-8 8v24l8 8l4 -4l8 8h8l4 -4h4q0 12 16 12l4 4v8l-20 4h-16v-12h8v-8l-20 4l-4 -4l-8 48l20 24l-20 16l-32 -8l-12 4v8q85 92 96 92zM336 734h4l4 4h4l8 -8l4 4v4l-8 8zM380 642l4 -4v-4l-4 -4h16l-4 12h-12zM364 626v-4h16v4h-16zM44 462l28 -12v-8h-24l-8 8v4l4 4 v4zM44 394l28 -4h24l20 4q42 -35 56 -60l-4 -4l4 -20v-20l-16 -16h-4q-49 42 -72 48q-13 -2 -36 -28l-4 4v88l4 4v4zM368 318h20q8 0 8 -12q13 0 28 12h20l8 -8v-12q0 -13 -72 -20h-4l-8 36v4zM316 306h4q9 0 12 -28l-4 -28q0 -15 24 -28l8 8l92 -20v-24q0 -8 -12 -8l-20 4 q0 -8 -32 -20l-20 -28l8 -8q-12 -12 -12 -28l-8 -8l8 -16l-4 -12q8 0 8 -20h8v-4q-47 -48 -112 -48h-28q-81 0 -128 60l12 4v4h-16v12l8 12q-64 15 -64 56l104 100h12l8 -8l-4 -4v-4l4 -16l-4 -4l4 -20v-12l-4 -4v-4q12 0 40 -32l20 -4h28q42 0 60 64v116zM44 262l32 -12h40 l8 -8l-56 -56l-28 28v4q0 8 32 8v4q-32 4 -32 12v12l4 4v4zM48 182h4l8 -8l-16 -12l-4 4v8zM176 86v-16h4v16h-4z" />
<glyph unicode="D" horiz-adv-x="492" d="M48 862h20l-4 -44q11 -36 24 -44l12 16l4 4h4q0 -7 24 -12l24 -84l12 8h4v-44q0 -8 -20 -8v-8q16 0 16 -8v-4h-8l-16 4l-16 -4v-4q44 0 44 -8v-52q0 -8 -20 -8q0 -23 -24 -36h-16q-15 0 -32 20h-4q-14 0 -32 -16h-4v28q0 8 12 8v8q-12 0 -12 8v52q0 8 40 8l-4 4v4l-4 -4 h-12l-8 8l72 76h-24l-56 -52l-4 4v172zM76 862h24q6 0 20 -52l-12 -8l-16 44l-4 -4h-4l-8 8v12zM256 862q84 0 140 -68l-88 -88h-4q-28 17 -28 24l36 72q-5 20 -12 20q-32 -61 -32 -92l-4 -4h-84l-8 8v8l8 8q-4 19 -24 36v8l12 12l-32 52l4 4h116zM200 738l4 -4h12l8 28v8 l-8 8q-11 0 -16 -40zM412 770h8q32 -57 32 -128v-28l-20 -16h-60l-40 -12v-4l36 -16h28l4 -4l48 12l4 -4v-116l-8 -8h-4l-12 4l-76 -12q0 -12 44 -12h24l28 4l4 -4v-204q0 -163 -156 -216q-34 -8 -88 -8h-84l-8 8l136 128q54 0 60 40q8 0 8 36q21 20 36 20h8l4 -4 q44 7 44 16l-8 8l-4 -4l-20 4h-12v4l56 60h-12l-48 -44v4q39 48 52 48l-16 12q-24 -4 -24 -12v-4h12v-8h-8v-4l-40 8l-16 -16h-4v8l4 4l-4 4v32q0 7 28 12v4q-26 0 -28 12v168l4 4v4l20 -4h8l12 12l-36 8l-4 -4l-4 4v60l8 8l4 -4h4v4q0 8 -12 8l-4 4v28q0 10 92 96zM384 718 l16 -12l4 4h4l4 -4h4q0 12 12 12v4l-20 4h-16zM84 654v-8h48l-12 12l-4 -4h-8l-4 4zM140 606v-4h16v4h-16zM168 526h4v-132l-8 -12l8 -24v-20l-12 -12l-4 4l8 28l-12 32h-16q0 -16 -12 -16h-4l4 4v4h-28q0 -12 -32 -12v4l-4 -4h-12l-8 8v56h8v-24zM332 502v-4h20v4h-20z M52 490l32 -4v-4l-16 -16h-4q-21 0 -24 12v4q0 8 12 8zM48 458l4 -4v-4l-8 -8h-4v8zM40 338h44l24 -4l16 4l4 -4v-4l-4 -16l16 -12l12 8q20 -5 20 -12v-84l-12 -16l12 -16v-36l-128 -128h-4v8l4 4l-4 4v96l16 16l-4 4v4q0 12 32 12l-8 20q9 28 28 28v4q-16 0 -16 8v4 q12 20 24 20l44 -8l8 12v4q-46 16 -88 20q-4 28 -24 28l-12 24v8zM352 262h4l-12 -12v4zM92 202q0 -8 12 -8h8v4zM416 170l8 -8h12v8h-20zM216 126h4l-24 -24v4zM172 82h4v-4l-76 -76h-8z" />
<glyph unicode="E" horiz-adv-x="452" d="M48 862h40q6 0 20 -32h20l12 8l-4 4v12l8 8h172l96 -96v-28l-8 -8h-228v-52l-4 -4v-4l4 -4l-4 -4l-4 4l-32 -4v-4q40 0 40 -24l-4 -16l4 -20h-4l4 -4v-16l-4 -4l4 -4v-72h164l8 -8v-116l-8 -8h-168l4 -4v-4l-4 -4l4 -4v-40q0 -8 -40 -8v-4q40 0 40 -12v-12l-132 -132h-4 v124l4 4l-4 4v36l8 8l20 -4q0 8 12 8l12 -4q0 16 -20 16l-32 8v352q0 6 52 24q0 10 16 28v16q0 14 -44 20l-24 -8v80zM388 862h16l8 -8v-4l-8 -8l-16 16v4zM252 790v-4h48v4h-48zM148 734v-32h12l4 20l-12 12h-4zM92 482v-16l20 -8q32 7 32 16q-2 12 -32 12zM312 458v-4 l20 -4l4 4v4h-24zM124 282v-4h40v4l-12 4zM168 150h8v-16h228l8 -8v-120l-8 -8h-356l-8 8v16zM184 86v-16h4v16h-4z" />
<glyph unicode="F" horiz-adv-x="452" d="M48 862h280v-12l20 4h28v-8l-40 -40h-4v40h-4v-52l-60 -60l-16 -4h-60l-4 4l-16 -4v-108h-8l-124 124v108zM408 854h4v-116l-8 -8h-12l-8 8v48q0 8 24 8v4q-24 0 -24 16v4h-4q0 -20 -12 -20v-4q12 0 12 -8v-48l-8 -8h-84v4zM92 810l-8 -20l12 -16q16 4 16 24v4 q0 9 -20 12v-4zM204 762v-20h4l4 16l-4 4h-4zM40 674h4l128 -128v-48h36q8 0 8 -12h4v8h4l16 -12l8 8l28 -28l-12 -4q12 -15 12 -28v-4q0 -8 -12 -8l-4 -4v-12q0 -20 16 -20v-4l-12 -12h-64v4l4 4v4q-8 24 -16 24l-4 -4v8l16 8h12l36 -16v4l-36 32v4l8 12q-16 0 -16 8v4l4 4 v4h-4l-16 -4l-8 16l-4 -4h-12l-4 4h-4l-12 -12h-4l-4 4h-4l-4 -28l4 -12l-4 -4h-4q-4 12 -24 12l-20 -8q-40 4 -40 12v228zM84 574l4 -4v-4l12 4v4h-16zM308 498h8q7 0 16 -24l4 4h4l8 -8v-16l-8 -8l-40 36v8zM292 430l56 -60l-4 -4h-52l-8 8v4l4 36l-4 12l4 4h4zM132 422h8 q28 0 28 -20l-4 -28l8 -8v-292l-60 -76h-64l-8 8v388l8 8h12v-8l-4 -4v-4h8l12 4l8 -16l40 20v20zM124 326v-4h20v4h-20zM108 258v-8l4 -4v-4q36 10 36 36q0 6 -16 12q-24 -8 -24 -32zM48 258v-4q12 -24 24 -24l-8 -12q12 -14 16 -76q27 -61 52 -76l20 16l-4 20v8l4 4l-4 4 l8 96l-36 24l-4 -4h-8z" />
<glyph unicode="G" horiz-adv-x="496" d="M252 874q116 0 180 -116l-4 -4q16 0 24 -56l-132 -132l-4 4v52h8q3 -20 12 -20l32 36v12q0 13 -12 28l4 4v4h-4l-32 -32h-4q-5 67 -36 72v12l4 4v4h-4l-12 -8l-20 4l-28 -4l-12 4l-32 -40l-8 -36v-44l-28 -28h-12q-15 12 -28 12q0 -40 -32 -40l-20 12h-4l16 -20v-4 q-12 -9 -12 -28h-8l-4 20h4l-4 4v8l4 28l-4 36v28q0 164 156 216zM296 762q0 -8 12 -8l28 8v8l-24 4zM388 718l-4 -4v-8h4l4 12h-4zM452 686l4 -4v-60l-8 -8h-64v4zM84 646l8 -8q28 4 28 12l-4 4h-24zM372 606h72v-4l-36 -36h-20l4 20h-4l-12 -4v4l4 4v4l-12 -8l4 -20h-36v4 zM48 522l4 -4v-4l-4 -4h-4l-4 4v4l4 4h4zM352 498h60q0 -12 12 -12l4 -4v-8q0 -8 -24 -12l-4 4h-8v-4q11 0 20 -20q12 0 12 -12h4q0 52 24 52l4 -4v-68l-4 -4l4 -4v-96l-40 4q-24 -4 -24 -12l8 -8h36l12 8h8v-36l-8 -8q-21 16 -44 16h-12q-31 0 -44 -24v-8q30 -32 72 -32 l36 16v-16q0 -99 -56 -148q-92 85 -92 96l12 52h4q55 -40 72 -40l-4 4v12h20q0 8 -40 16l-56 48v16l4 4l-4 4v92h-64l-8 8v108l8 8q30 -36 60 -36l4 -4l4 4l4 16q-32 4 -32 12l4 4h4l4 -4q34 5 48 20zM48 462q8 0 8 -12l-4 -12l8 -8l-4 -4v-4h4l12 4l8 -12v-4l-16 -16 q-24 14 -24 36v24zM80 402h4q12 0 12 -16q12 0 12 -12h12v-8l-12 -12h-4l-36 36zM336 362v-8h8v-4l12 4v8h-20zM128 362h4q12 -4 12 -24h-4l-4 4h-4l-16 -4l-4 4v4zM160 318h12v-20l-8 -8l-12 16v4zM40 238h4q141 -133 244 -244l-4 -4h-52q-128 0 -184 156q-8 17 -8 64l4 16 zM332 174v-32l8 -8h8l4 20v12l-8 8h-12zM136 102h8l8 8v4z" />
<glyph unicode="H" horiz-adv-x="500" d="M48 862h28l8 -8v-8q-8 0 -40 -32h-4v40zM116 862h48l8 -8v-48h-4l-52 52v4zM332 862h12l12 -8h12l32 8h52l8 -8v-20l-8 -8l-40 12v4l-20 -4h-8l-24 4l-24 -8h-4l-8 8v12zM88 846h4l80 -80v-12q-7 -16 -36 -16v-4q36 -1 36 -12v-8l-8 -8h-4l-16 4l-16 -4h-8l-12 8 q0 -9 -20 -12v-4l20 -4h56l8 -8v-124l-56 -60q24 0 24 -8l-12 -12h4l36 36h4v-20h104v-12l-4 -4l8 -32h8v8l-4 40h40v20l4 4l-4 4v20l4 4l-4 4v16h8l4 -40v-40l-4 -48l20 16h4q0 -26 -20 -64q16 0 16 -8v-36l4 -16l-4 -4v-4l12 -92h4q8 72 16 72q0 -12 12 -12l4 -4v-24 q11 0 40 -20l12 4l4 -4v-4l-4 -4l4 -4v-12h-8v-4q12 0 12 -8v-204l-8 -8h-120l-8 8v184l4 4l-4 4v72q0 8 12 8v4l-12 16v44l4 4l-4 4v4l4 4v4h-48l-16 16v8l4 4v4q-56 22 -100 20q-68 -3 -68 -24q9 -13 72 -28v-356l-8 -8h-116l-8 8v144h16v4q-16 0 -16 8v28l8 8h72 q0 12 -44 12v4l-24 -8h-12v288q0 8 12 8v4q-12 0 -12 8v16l8 12l-8 8l4 4l28 -4h44l24 8q0 24 -60 24v4l-36 -8l-4 4v108q0 8 12 8v4q-12 0 -12 8v88zM60 806l4 -28l-4 -4h8l-8 -32l4 -12h8l8 8v20l-4 4v4l32 32v16q0 8 -24 12q-24 -8 -24 -20zM456 782l4 -4v-12l-24 -16v-4 l24 -20v-12h-20l-4 4l-20 -8l12 -32v-4h-4l-68 -4v-4q56 -3 56 -12l-28 -8l8 -12l-28 -24q-40 29 -40 56h4l-4 4v4l4 16l-4 12l4 4v4l-4 24l4 4l-4 4v8l4 4l-4 4v8q3 12 32 12h60zM332 610l12 -16v-4l-16 -12l-4 28l4 4h4zM404 510h12q44 0 44 -12v-144l-56 -20l-16 -24h-12 v8l4 24l-4 16l16 8q0 12 -12 12v4l8 24q-12 4 -12 24v52zM436 426l4 -4v-4l12 4v4h-16zM424 362v-8h20l-8 8h-12zM360 198v-4h28v4h-28zM332 178v-8h16v8h-16zM344 166v-4l12 -4h4v4l-12 4h-4zM380 126v-4h24v4h-24z" />
<glyph unicode="I" horiz-adv-x="212" d="M116 862h52v-8h-52v8zM48 850h20v-4l-24 -24l-4 4v16zM168 806h4v-108l-4 -24l4 -20v-20l-8 -8h-60l-28 -4l-4 12h-8q0 -16 -12 -16h-4l4 -4v-4l4 4l68 -4h16l28 4l4 -4v-80q0 -8 -32 -8v-4q32 -4 32 -12v-152l-8 -8l-4 4q-40 -7 -40 -20q0 -8 52 -20v-44l-4 -4v-4 q-32 0 -32 32q-8 0 -8 -20l-4 -4h-4l-4 4h-4l-4 -4q-28 3 -28 8l-4 -4h-20l-16 16v156l4 4v4l44 -4l40 4v4l-8 8h-20l-36 4l-4 -4h-4l-16 8l4 4l-4 20v24l16 28q-16 0 -16 12v12q0 8 20 8v4q-20 0 -20 8v40l8 8l4 -4q28 10 28 16h-4l-4 -4q-32 4 -32 12v20q37 52 80 52h8v8 l-20 4v4zM104 566v-4h20v4h-20zM136 414l4 -20h8l8 20q-8 0 -8 20q-8 0 -8 -20h-4zM168 214l4 -4v-204l-8 -8h-116l-8 8v32q0 8 12 8v12l-12 60v76l8 8l4 -4l4 4h16l4 -4z" />
<glyph unicode="J" horiz-adv-x="368" d="M320 862l8 -8v-132l-8 -8l-40 52q40 10 40 16l-40 8l8 12q-14 12 -48 12l-16 -4l-4 4v8h48l28 8v12l-48 12h-16l-20 -4v4l-4 -4h-4l-8 8l4 4h120zM204 826l16 -16v-8h-8l4 -4v-8h-12l-8 8v20zM208 778l44 -8v-4q-4 -12 -24 -12v-4q66 0 84 -28v-12h-20v-8q36 -3 36 -12 v-4h-4l-112 4l-12 -4l-4 4v16q0 8 40 8v4q-40 0 -40 8v40zM204 670l84 -4l36 4l4 -4v-44l-4 -4v-4l-48 4h-20v4l4 16l-4 12h-20l-4 4l-28 -12l-8 8v12zM296 490h4v-8l-56 -56q-8 0 -36 -36l-4 -4h-8v88h4l4 -4h4l-4 -28v-4l8 -8q21 0 36 24v4q0 8 -32 8l8 8h8l4 -4l4 4h4 l4 -4l4 4h28q0 9 16 16zM324 434h4v-124l-16 -4l-8 8q0 -8 -40 -12l-4 4l-20 -4h-44v4q24 32 48 32v4l-8 8l28 24h4v-8h4v4l-4 12zM196 378h8v-28h-8v28zM280 354v-8q9 0 12 -20h4v4l-12 24h-4zM200 274l92 -8l4 4h4l12 -4l12 4v-8l-12 -16v-8l16 -20v-40l-108 -156h-4l-4 4 l-48 -32l-52 -4l-8 8h-4l-8 -8q-52 7 -52 16q9 92 20 92l4 -4l12 12h12q68 0 96 44q12 19 12 40v76l4 4v4zM264 190l8 -16q28 3 28 28v4l-16 4q-16 0 -16 -20h-4zM200 110v-12l8 -12q24 8 24 32l-4 4h-16z" />
<glyph unicode="K" horiz-adv-x="532" d="M72 862h92l8 -8v-68l-8 -8h-12l-48 48q0 8 44 8l4 4v4q-80 6 -80 16v4zM332 862h12v-4l-20 -20l-4 4h-4q8 18 16 20zM352 862h28q0 -22 -20 -32v4l-12 -4v-16q0 -19 -52 -84h-8q-7 0 -16 24l32 4v4l-24 8q26 68 72 68l4 4h4zM444 862h8l12 -12q-14 -28 -20 -28h-12 l-12 12q17 28 24 28zM48 834h12l-4 -20v-8q4 -12 24 -12l16 12l12 -16v-4l-4 -4v-4l16 -8h8v-8h-12v-4q40 0 40 -16l-68 -68h-40l-8 8v20q0 8 16 8v8q-16 0 -16 8v100zM436 806l-80 -172h-8l-28 40v12q47 56 96 120h20zM264 702l4 -4l4 4l4 -4v-4l-12 -16l-4 -4h-4l-16 16 q4 12 24 12zM168 678h4v-36l-8 -8h-20q0 -16 -8 -16h-24v4zM224 666h8q12 0 12 -16q-9 -23 -36 -48h-4l-4 16zM304 658h8l28 -56l-4 -4h-4q-40 32 -40 44q6 16 12 16zM276 618h4l16 -16v-4h-28v12zM48 486h16l16 -4l4 4q44 -4 44 -12l-80 -120h-8v80q0 6 48 16v8 q-48 4 -48 16v4zM192 470h8v8h40l4 -4l4 4q68 0 68 -28l8 -16q0 -8 -28 -8v-4q36 0 36 -8q-15 -30 -24 -32h-36l-12 8h-16l-20 -4v-4l12 -20h20l4 -4l4 4l28 -8q-44 -73 -52 -76q-10 0 -28 68q-8 0 -40 -76h-8l-4 4l-4 -4h-4l-4 4q-16 -6 -16 -12l4 -4l4 4h8l4 -4l4 4h8 l8 -8v-72q0 -11 -88 -144h-12v8h-4v-8l8 -8l-24 -32h-8v4l8 12v8q-12 0 -12 8v48h8v4l-8 12v104h8l16 -4l12 4v8h-8v4l-4 -4h-24v52q0 23 68 104h4l-4 4v4q67 108 84 108v-8zM176 418q4 -24 48 -24q39 0 64 44q0 18 -48 24q-16 -12 -36 -12zM372 310h4l88 -220l-20 -36 l-92 60l-4 -20l84 -56l16 4l4 -16h4q12 0 12 16l4 4h12l8 -24l-16 -24h-4l-20 20q0 -12 -16 -20h-84q-13 0 -72 172v8q82 127 92 132zM84 142v-8l16 -4l8 24l-4 4h-4zM92 110l8 -8h12v8h-8v4z" />
<glyph unicode="L" horiz-adv-x="436" d="M48 862h116l8 -8v-132l-8 -8h-48l-16 4l-24 -8v-4h88l8 -8v-64l-4 -48l4 -4l-4 -4l-20 4l-12 -4l-28 4h-60l-8 8v8l4 4v4l28 -4h36l20 4v4h-48l-8 8l4 4v4q0 12 -36 24v16l4 4l-4 4v124l4 16l-4 16l8 8h24v8h-24l-8 8zM76 826l4 -12h4l4 28v16q-8 0 -12 -32zM60 790v-8 l44 -12h12l12 12zM148 502h8q0 -12 12 -12l4 -4v-288l-4 -108l4 -4h4q8 0 24 48h188l8 -8v-120l-8 -8h-268l-12 8l-8 -8h-52l-8 8v216l8 12l-8 32v40l56 40l4 16q-4 24 -40 24l-16 -4l-4 4v80l4 4v4l4 -4q49 9 76 24l12 -4l8 8l4 -4v8zM104 434v-44l32 -12l4 4v12 q-32 0 -32 24v16h-4zM96 286v-36l8 8v28h-8z" />
<glyph unicode="M" horiz-adv-x="684" d="M48 862h108v-4l-4 -4v-4l20 -4l4 16h12q0 -22 15 -25q25 -7 26 -8q15 -11 15 -51l12 -68l-4 -4h-44l-16 -8v-4l48 -4h16q10 0 20 -76l-4 -4l-168 16l4 -4v-4q0 -8 -16 -8q0 -12 84 -12v-4l4 4h16l4 -4l36 8q48 0 48 -28l8 -44l-24 -8v-12l20 -16l8 8q20 -71 48 -244h4 q58 325 68 324q148 -10 148 -20h-64l-88 -4v-8l96 -4l16 4l8 -8q0 9 40 12l-4 4v8q76 0 76 -16v-544l-8 -8h-116l-8 8v236q12 0 12 12l20 4l4 -4h4l12 4v-12q-12 0 -12 -8q0 -11 36 -20l40 16l-8 12l20 8q0 5 -36 16q-10 24 -44 24q-22 0 -44 -12l-4 4v236h-4 q-41 -231 -52 -232q-48 -3 -48 -20q0 -6 40 -32v-4q0 -39 -20 -84l-32 4q-55 0 -76 -28v-4q0 -12 28 -12l8 -8l4 4h4l4 -4l4 4h24q24 0 24 -12q0 -32 -24 -32q-16 0 -16 -8q28 -9 28 -16q-3 -40 -12 -40h-96q-8 0 -80 320l12 24q-23 0 -40 96q10 0 20 28l-4 4l4 4 q-16 0 -16 8h4l-4 4v8h12q8 0 12 -24l4 4h4l4 -4h4q0 8 12 8v8q-17 12 -60 28l-108 40q0 8 -16 8l-4 4v4l-4 -4h-4l-12 12v140q0 8 32 12v16q-32 4 -32 12v28q0 6 28 20h24v8h-24l-4 4l-4 -4h-4l-16 4v20h28q0 7 -28 12v4zM636 862l8 -8v-164h-8q0 12 -20 12v4l4 20l-8 8v28 q-20 0 -20 12l4 12q-48 -36 -48 -76h-4l4 -4l-8 -48l4 -28l-8 -8v-8q16 0 28 -24q21 22 76 24l4 -4v-28l-8 -8l-112 8v12l-4 20h-12v-20l-8 -8q-88 7 -88 16l40 220l8 24h20v4q-20 0 -20 8l4 4h172zM576 826q0 -14 28 -20q24 8 24 16q-20 12 -40 12zM192 794v-4h16v4h-16z M180 774q0 -8 -12 -8q4 -16 24 -16q21 0 24 12q0 9 -36 12zM68 766v-4h84v8h-24zM100 718l40 -4l24 4v4l-28 4h-28zM84 698v-8h36v4l-28 4h-8zM84 670l48 -12v8l4 4l-4 4l-36 4h-4zM636 674h8v-48l-8 -8l-32 4v8l8 12l-4 4v4q28 10 28 24zM216 666v-4h44v4h-44zM476 638v-4 h16v4h-16zM588 530v-32l4 -4v-4l12 4v24zM412 518v-16h4v16h-4zM48 482l16 -4l12 4l4 -4v-4l-32 -32v-12q0 -28 52 -28v-4l68 20l4 -4v-48q0 -8 -24 -8l-4 -20q0 -10 28 -20v-128l-4 -4v-4l-36 12h-32l-20 -12q6 -28 68 -28l24 8v-156l-8 -8h-116l-8 8v468zM404 462v-4h4 l4 16q-8 0 -8 -12zM268 470l-8 -12l4 -4l-4 -4l4 -4h28l8 8l-16 16l-12 -4zM456 462v-16h4v16h-4zM608 370v-4h24v4l-12 4zM252 326v-4h20v8zM576 158l-12 -20l12 -8h4l4 24l-4 4h-4zM592 74q5 -44 28 -44q16 44 16 64l-12 48h-8q-20 -8 -24 -68z" />
<glyph unicode="N" horiz-adv-x="528" d="M48 864h136q6 0 32 -88l-172 -32l-4 4v108zM364 864h28l52 -52v-4l-84 -12l-4 4v24h12v4l-12 16v12zM412 864h68l8 -8v-12h-8v-8h8v-12l-12 -12h-16l-48 48v4zM480 808l8 -8v-12h-4l-16 16l4 4h8zM456 804l32 -36v-220q0 -10 -56 -16q0 -8 -24 -12v-8q0 -10 44 -16l32 4 l4 -4v-24q0 -12 -16 -12v-8q16 -2 16 -12v-88l-12 -12q-117 84 -120 92v76l8 12l-8 12v56l8 8h4l4 -4l12 4v4q-28 0 -28 8v176q0 10 100 20zM216 768q40 -119 40 -140l-8 -24h4l4 4h4l20 -52l-4 -4l8 -8q0 -8 -12 -8l-4 4l-20 -4h-8l-4 4h-4l-8 -8l-24 4h-4v-4q12 0 12 -16 q18 -13 92 -24l8 -32q-43 -9 -68 -36h-8q-32 0 -40 64q-6 1 -16 48h-4v-104q0 -15 -48 -20l-16 4l-12 -4l-4 4q0 -12 -16 -12q0 -14 44 -20l48 8l4 -4v-176q0 -21 -12 -24h-8l-8 8v4l-4 -4h-24v-8l32 -4q-28 -24 -28 -52v-8q9 -24 52 -32v-20q-2 -8 -20 -16v-4q0 -8 16 -8 l4 -4v-32l-8 -8h-116l-8 8v48q0 7 24 16v4q-24 4 -24 12v644q0 10 176 36zM212 636v-4l20 -4l4 4v4l-12 4zM392 544v-8l20 -4l20 4v8h-8v4l-4 -4h-4l-12 4zM52 492v-4h12q40 8 40 20h-8q-44 -6 -44 -16zM448 440v-4h36l-8 8zM316 424q12 -18 32 -100q-28 -5 -28 -16v-4 l24 -4l28 8q0 8 -12 8l-4 4v68l4 4v4l4 -4h4l28 4l76 -60l-64 -56l-8 8q-4 -20 -36 -48h-12l-4 4q-48 -9 -48 -28l4 -4l-4 -4q-30 0 -44 80l-32 96q52 9 52 20l-8 8v4zM360 420l20 -16l-4 -4h-4q-9 0 -12 20zM240 372q0 -8 12 -8l12 4v4h-24zM56 328l-4 -4v-4h20v4zM256 324 l8 -8h20l20 4v4l-28 4zM108 312q0 -8 20 -8v-4l4 4h24v8l-20 4zM336 200v-4q-9 -28 -32 -52q-16 25 -16 52l4 -4zM484 132h4v-80q-16 0 -16 -8v-4l4 4h12v-36l-8 -8h-8q-43 0 -68 28l-12 -12l4 -12l-4 -4h-32v4zM464 28v-4l16 -8v4l-12 8h-4z" />
<glyph unicode="O" horiz-adv-x="492" d="M232 876l8 -8l-4 -4h-8l-8 8l4 4h8zM256 876h16v-8h-24zM196 868l4 -4v-4l-36 -8v8zM304 868q148 -63 148 -184v-8q0 -8 -36 -8v-4q36 0 36 -8v-16q0 -12 -32 -16l4 -4v-8h-8v-4q33 -3 36 -16l-60 -16h-28v-8q16 -1 16 -16l40 -8l28 4l4 -4v-28q0 -9 -60 -20v12l4 4v4 q-8 0 -80 80v24q0 8 32 12q0 10 32 16l-4 4v4q0 11 20 12v4q-25 0 -32 24l-4 -4h-4l-28 8v8l20 -4l-4 12l16 20l-4 12h4l12 -4h4v4q-20 2 -20 44q-12 7 -12 28q-11 0 -24 24q-12 0 -20 12h-4v4zM280 864v-8h-28l-4 -60v-44l-8 -8h-12l-8 8l4 32l-4 16l4 36v16q0 12 56 12z M196 852l4 -4v-116l-32 -40l-12 4q-16 -6 -16 -12v-8h4l28 4v-36l-4 -4l4 -4v-52l-4 -4l4 -4v-20l-8 -8q-28 21 -44 48q-12 0 -24 20v4l20 4l4 -4l8 24l-28 8h-40l-20 20q21 180 156 180zM164 824v-8h20v4zM76 624l20 -24v-4h-20v-4q43 0 80 -52l16 -16v-20l-4 -4l4 -4v-4 l-12 -12v4l-56 -24v4l-56 -32h-8v8q12 14 12 60l-4 12l4 4l-12 56v16q0 8 12 8l4 4v4l-4 16zM328 592v-4h16v4h-16zM316 564h8q24 -36 24 -48h-20l-4 -4h-4l-4 4v48zM436 496h8l8 -8v-8l-8 -8l-8 12v12zM424 464l24 -8v-8l-28 -28l-16 16v12q2 8 20 16zM448 384h4v-20l-8 -8 l-8 12zM416 348h4v-20q13 0 28 12h4v-76h-4l-56 56v4q0 8 20 8l-4 4v4zM372 320q10 0 56 -52v-4h-8l-12 8h-12q-8 -8 -48 -12v-8l56 -8h48v-64q0 -73 -52 -112q0 -12 -8 -12t-12 24h-4q0 -20 -8 -20t-8 12l-12 -8l-20 4v-8q0 -22 20 -28l8 28q16 -6 16 -12q-35 -48 -72 -48 l-172 176v4l64 -44l4 4h4q21 -12 40 -12h4q72 0 72 92v20q8 0 8 20q28 12 28 20h8l-4 4v4q0 17 16 32zM108 284q2 -20 32 -20v-8q12 0 12 -8l4 4h8l8 -8v-16l-8 -8h-52l-28 -4l-24 28zM48 236l28 -28l-8 -8v-4h20l8 -8l-24 -8q4 -16 24 -16h16v-8l-36 -28l4 -12l-4 -4h-12v4 l4 4l-8 56h-8q0 -12 -8 -12h-4v64zM156 196q16 0 16 -20l20 -28v-4h-4l-60 44v4h8l4 -4zM136 144h4l144 -144v-8h-44q-95 0 -148 76q0 13 -24 32q35 12 68 44zM268 124v-20q0 -24 40 -52h8l4 20q0 23 -32 48l-4 -4h-4z" />
<glyph unicode="P" horiz-adv-x="488" d="M48 864h16q8 0 20 -52h-4l-40 40v4zM232 864h28q112 -14 112 -44l-4 -4v-8h4v8h4q8 0 8 -16l12 8l4 -12l-4 -12h4l12 4q24 -30 24 -48l-12 -8l-28 4h-4l-20 -4v-8q0 -22 32 -40l40 16l4 -4v-16l-104 -12v4q16 21 16 36v28l4 4l-4 4v8l4 4v4h-4l-16 -4q-5 20 -12 20 q-20 -36 -36 -36v-12l4 -4v-4l-4 -4l-32 12h-84l-12 -8l-48 52v4h4l12 -12l4 4h4l4 -4h4l12 4l20 -4q9 24 16 24h8l4 -4h4v8l-4 20l12 4l4 -4h8v4l-16 4v8l4 4v4q-12 0 -12 8v4zM40 804h4q92 -83 92 -100q0 -12 24 -12v-8q-9 -17 -32 -24l-20 4q-41 0 -64 -8l-4 4v4l20 12 h64l8 16q0 9 -36 20l-52 -12l-4 12l4 4l-4 20v68zM444 644v-4l-24 -28h-12l4 4v4l-8 8v4zM168 624l8 -24l-8 -8h-4l-4 4l-4 -4h-4l-16 4l-24 -4l-4 4v4q9 9 60 24zM328 620h36v-8h-8l-4 4l-4 -4h-20v8zM52 600h4l8 -8v-4l-12 -12h-4l-8 8v4zM88 576h4l-16 -72h-12v-4 q12 0 20 -16v-4l-4 -4l12 -32v-4h-4q-48 0 -48 12v76zM116 572l24 -4l32 4l4 -4v-20q0 -8 -20 -8v-4q16 0 16 -12h4l-4 -20l4 -28q-44 -4 -44 -12v-4l28 -4h12l-8 -40l4 -12q0 -17 -40 -20l-12 4l-12 -4l-4 4v4l56 12v4h-16l-4 40h-4v-20l-28 4v4q12 18 12 36h4l-4 4v4l4 4 v4l-4 20l4 12l-12 48l4 4h4zM340 560l20 -4h12v-4l-16 -16l-20 20zM372 524l12 -28q0 -34 -92 -40l-8 -12l8 -8l4 4h4l56 -12l4 -4h12l12 8h32v-4l-80 -84l-20 4l-16 -4q-18 13 -36 84h-4q0 -24 -8 -24l4 -4v-12l-8 -8l-8 8l4 4l-4 20v32l-4 4v4l4 4h24v-8h4q0 10 32 28 q0 8 44 8v4l-28 8l4 24h8l32 -28q3 32 12 32zM444 508h4q0 -48 -16 -48l-24 8q0 11 36 40zM144 500v-4h16v4h-16zM296 400v-4l20 -4l16 4v4h-36zM48 388h40v-4q0 -8 -16 -8v-8l24 -20l12 4q0 -10 60 -32l8 -40h-4l4 -4v-40l-4 -4l4 -12l-4 -4v-4l4 -4v-4q0 -32 -48 -60 l-28 12l-4 -4h-12l-12 8q0 -12 -16 -12l8 -16l-4 -4h-4l-16 20v68q32 23 32 44l-20 16l-4 -4h-4l-4 4v104zM44 312q0 -8 24 -8v-4l4 4h24v8l-20 4zM124 308l8 -8h16l8 8v4l-20 4h-4zM96 240q0 -8 12 -8h8v4zM68 196v-4h20v16q-20 -5 -20 -12zM48 192v-4l4 -20h4v16zM40 124 q15 0 40 -32l-36 -40q12 0 20 -48l-4 -4h-8l-12 12v112zM104 124h4v-4l-20 -20l-8 8v4z" />
<glyph unicode="Q" horiz-adv-x="516" d="M184 864v-4q-61 -68 -72 -68v-4l-20 4h-4l12 -16l-44 -44h-4q0 50 100 120zM320 864l20 -8v-8l-24 -24h-4v4zM428 764q28 -37 28 -92l-8 -8l8 -8v-4l-4 -4v-4l-64 12l8 44h-4l-12 -8l-8 8v8zM180 740h12l8 -8l-16 -16h-8l-12 12zM400 688v-4h20v4h-20zM132 668h8l4 -4 l4 4h8v-4l-48 -48h-44v8q16 32 68 32v12zM452 640l4 -4v-16q0 -11 -48 -20l-16 4l-12 -4l-4 4l-12 -16q0 -19 44 -20q21 -1 44 12l4 -4v-4l-20 -16l4 -16h-24q-85 0 -96 -12l-4 4v12l4 4l-4 12l4 4v4l-4 12l4 24l-4 4v4q0 20 68 20l16 -16h16q13 24 36 24zM72 612h20v-8h-20 v8zM80 596l4 -4v-4l-4 -4h-8l-8 8zM56 592h4l-8 -8h-4zM48 572l4 -4v-8l-8 -8l-4 4v8zM352 564v-4h16v4h-16zM328 560l-4 -4v-4l20 -4l4 4v4zM324 508h4v-12h-12v4zM168 504l4 -4v-64l-8 -12l-20 4h-16l8 -8l-4 -4v-12l20 -20q0 -11 -84 -16v4l-24 -8l-4 4v8l96 96l16 -4 l12 4l-4 28l4 4h4zM324 476l40 -8v-4q0 -9 -44 -12v16l4 4v4zM436 456q16 -6 16 -12q0 -8 -36 -12l-4 4v4q0 8 24 16zM116 436h12v8h-4zM348 440h4l4 -4l4 4h8l8 -8l-40 -44h4l32 32h4v-8q-4 -14 -44 -36q0 -20 -12 -20l-4 4v4l8 8l-4 4v8h8l-8 12v4q12 0 12 8q-16 0 -16 8 t24 8zM104 420v-16h4v16h-4zM376 404l36 -40q36 5 36 16h8v-112l-4 -4v-4l-60 4h-16q0 12 -16 28l-4 -4h-4l-4 4h-4q0 -8 -12 -8l-4 -12q16 -2 16 -12l-4 -12l4 -4h4l12 4l44 -4h24v-8h-4l-4 4h-4l-4 -4v-8l12 -4l16 8l-4 12h4l12 4l4 -4v-24q0 -8 -16 -8v-4q16 0 16 -12 q0 -64 -40 -64l-40 -20q-5 20 -12 20v-4l4 -20l-48 -20l-28 32l20 28q-12 0 -12 8q12 0 20 56l-4 4v28l4 4l-4 4v12l4 4l-4 4v16q0 8 12 8l-12 16v32l16 20l20 -4h4l4 12l-4 16zM172 348v-32q-20 -3 -20 -12v-4q20 0 20 -8v-8h-4l-12 8q-36 -10 -36 -24h-20q-7 0 -20 40 q-24 8 -24 16l12 8h40q29 0 64 16zM172 276v-80l4 -28l-12 -4v-4q44 -10 44 -32l4 4h8q40 -12 40 -24l-4 -20l24 -8v-8q-100 -40 -100 -52v-8h32l8 -8l-4 -4l4 -4l-4 -4q-58 6 -128 72q-40 63 -40 84h4l12 -4v4q0 28 24 28l12 -4v4l8 8v4l-8 12v4l4 4l-4 4v4q0 8 12 8l-4 4 v4q0 15 36 20q0 24 28 24zM136 228v-28l8 -8l4 32l-4 12zM344 228l-12 -32l20 -4h20v4l-4 12h4l44 8l-12 12h-4q-13 0 -28 -12h-4l-16 12h-8zM128 52l36 -20h8l12 28q-6 40 -28 40q-13 0 -28 -48zM432 92q12 -12 40 -12l4 -4v-76h-20l-4 -4l-12 12h-4q-24 0 -24 -32l-16 -8 q-8 0 -60 44q-40 -20 -68 -20l-4 4v4q0 36 40 36l64 28l4 -24h8l8 8v8q-12 0 -12 8q0 11 56 28zM448 40l-8 -28l16 -8q12 18 12 36h-20z" />
<glyph unicode="R" horiz-adv-x="516" d="M48 862h8l4 -4l4 4h132l4 -28h4q0 28 8 28h60v-8q-26 0 -28 -12v-24q8 -16 20 -16v-8l-36 -36h-4q-61 28 -76 28h-24q-9 -36 -20 -36l-4 28h-4q0 -36 -8 -36l-4 4l4 4v4q0 33 -48 36v64zM56 718h4l8 -8l-12 -12l-8 8v4zM40 702h8v-12h-8v12zM444 566l8 -8l-8 -8l8 -8v-4 q0 -60 -28 -60l-4 -4q0 -12 12 -12v-8q-60 5 -60 20q32 0 32 12l-4 4h-36q0 -16 -12 -16q-8 0 -8 -12h-16l-20 -4l-8 12v4q0 8 40 12v4h-20v4l24 16l20 -4h12q0 12 28 12l8 12q-12 0 -12 8l40 24zM40 470h4l16 -12l12 12h4v-4l-8 -20h-8v8h-4l-12 -12q24 0 24 -20 q20 0 20 -24l4 4h8l28 -24h4v8h8v-16l-8 -12l8 -8l-4 -4v-4l8 -8v-8l-4 -4v-4q6 0 20 -52l4 -4q0 -12 8 -12v-8h-4l4 -40v-32l-8 -8l-48 12q-48 -7 -48 -32q50 -20 76 -20l24 8l4 -4v-76h-4l-40 8l-44 -24v-8h-4q3 -11 20 -20h24l32 8l8 -12l-4 -4h-4v4l-4 -4h-4l-4 4l-4 -4 h-4l-16 4l-4 -4h-4l-20 4l-16 -4v4l-4 -4h-8l-4 4l-4 -4h-4l-12 4v468zM424 434v-4q-6 -21 -60 -68q3 -16 32 -40l4 -36l-40 -8q0 -8 12 -8l4 -4v-4l-8 -8l8 -16l16 12h-4l-12 -4v4l8 8h8q32 0 32 -48l-108 -132l-20 76l48 28l-24 24l8 24v8q0 6 -16 12q-24 -7 -24 -36h-8 l-16 72q40 4 40 12h-32l-4 -4h-4l-4 4v12h4l4 -4h4q0 12 28 28h4q8 0 8 -20q10 -12 24 -12l24 32q-12 40 -20 40h-8l-12 -8l-4 4v16l16 32l-8 8l4 4h4l12 -4zM64 374v-12h20l4 -4l28 8v4l-12 12h-32zM52 342h36v8h-28zM72 238v-4l12 -4h8v4l-16 4h-4zM92 218v-20l16 4v12 l-4 4v4zM116 194l8 -8h20v16h-20zM352 82h16q8 0 8 -12l4 4h8v-8l20 4h8l4 -4l20 8v-4l4 4h8q12 0 24 -72l-12 -4l-32 12l-20 -12h-12l-4 4l-4 -4h-8l-4 4l-4 -4h-8l-4 4l-4 -4h-8l-4 4l-4 -4h-4q-8 0 -12 24l16 16l-16 16q7 18 24 28z" />
<glyph unicode="S" horiz-adv-x="512" d="M256 874q145 0 200 -136v-12l-4 -4l-48 4h-64q-8 0 -8 12l-20 -8q-21 24 -52 24q-54 0 -68 -76q-12 0 -12 -12l-20 -4l-4 4h-4l-4 -4h-4l-16 8q-28 -7 -28 -16l8 -8l-8 -12l12 -20l-52 -12v4l-4 24v48q0 134 136 188zM432 710h24l8 -8l-8 -8h-24v16zM336 706h16v-8 l-12 -4l-4 4v8zM436 686h24l8 -8q0 -12 -128 -24v4l-4 12l4 4h48zM184 622h8l8 -8l-4 -4h-20v4zM208 578h4q16 -8 16 -24h-12l-8 8v4h8zM88 538l68 -12l4 4h28l4 -4l4 4h4q50 -49 132 -72q0 -10 16 -12q124 -128 124 -224v-16q0 -156 -136 -208l-60 -8h-8l-12 12l4 12 q-14 20 -24 20q-28 -10 -28 -36h-8q-61 0 -128 108l-4 16q50 48 80 48q48 -16 64 -36l-4 -28v-28l8 -8q16 23 20 44h32q48 10 48 28q20 14 20 52l4 4q0 8 12 8v8q-17 0 -24 52l-92 108q-4 32 -16 32h-4l-12 -8l-44 44l20 -4h8v44l-12 12h-12q-12 0 -12 -44q-15 8 -48 56l4 4 v4l-20 20v4zM224 534h20l40 -36h-8l-52 32v4zM208 454v-12h8l-4 -20h4q52 0 52 -8q52 8 52 16v4l-32 4v8h12v8h-4q-20 0 -20 -16h-24v4l4 4q0 12 -16 12v4zM336 418v-4h16v4h-16zM352 410v-4l8 -8h8v16zM300 410l-8 -24q3 -12 32 -12q0 12 16 12l4 4v4zM356 354v-4 q32 0 32 -8v-32q0 -8 -28 -12l-8 -12q4 -16 24 -16h4q18 16 28 16q0 12 -12 12l-4 4v40l8 12h-44zM152 246l4 -4v-12q-20 -17 -32 -44l-12 -12q-72 0 -72 60l4 4h36l20 4v-4l4 4h40l4 4h4zM412 210v-4h32v4h-32zM372 114l8 -8h4l-8 8h-4z" />
<glyph unicode="T" horiz-adv-x="488" d="M48 862h352q8 0 8 -20l24 -16q16 0 16 -8v-80l-8 -8h-24l-4 4l-4 -4h-100v-52l-4 -4l4 -4v-4l-8 -12l8 -12h-4l4 -4v-8h-24l-100 4l-4 -4l-4 4v48l4 16l-4 16v16h-128l-8 8v116zM72 826v-4l12 -16q32 14 32 40l-4 4h-8q-22 0 -32 -24zM296 774v-4l12 -12h32l4 20l-32 8 q-16 -6 -16 -12zM68 770l-4 -16h20v4l-4 12h-12zM80 746v-8h16v8h-16zM236 674v-4h48l-8 8zM184 626l116 -4l4 -4h4l-4 -4l4 -20v-84q-10 -24 -28 -28l-4 4h-4l-24 -8v4q7 56 24 56l-8 8q8 40 36 64h-8l-4 4l-4 -4l-4 -16h-20v12l-4 -4h-4l4 -4v-8h-16q-64 0 -64 12v16z M248 578l4 -4q-5 -32 -16 -32h-60v20l12 12h32zM184 534l12 -12h8l16 12h12l4 -4h4l-56 -192h-8v188zM248 470v-8l-12 -40h-8q10 48 20 48zM224 386l8 -8l-4 -20q16 0 16 -20q12 0 12 -32h4q0 12 8 12l8 -8l-4 -20v-8h4q0 24 28 32h4v-308l-8 -8h-8l-4 4l-4 -4h-8l-4 4 l-4 -4h-20l-4 4l-4 -4h-8l-4 4l-4 -4h-16l-4 4l-4 -4h-8l-4 4h-4l-4 -4l-4 4v120l8 12l-8 8v92q20 17 20 32v8h-8v8q22 104 36 104zM260 214v-8l12 8l4 -4v-4l-4 -4h8l8 8l-4 16h-12z" />
<glyph unicode="U" horiz-adv-x="492" d="M48 862h112v-4l-112 -116l16 -4l100 100h4v-208q0 -22 -20 -32h-12q-15 12 -28 12q0 -11 -20 -20v-4l4 -4v-4l-4 -4h-12l-16 12h-4l16 -20v-4q0 -8 -16 -8l4 -4v-8q0 -8 -12 -8v-4q12 0 12 -8l-12 -4l4 -20v-4l-4 -4l4 -4v-8l-4 -4v-4l16 -12l-8 -12q8 0 8 -16 q26 0 32 -36q14 0 32 -24q9 0 40 -40v-8l-8 -8l-8 8q-28 -20 -28 -36h-12q-19 16 -32 16l-12 -4l-8 8l-12 -20h-8v384q0 8 16 8v4q-16 0 -16 8v20q24 0 24 8v16h-4l-16 -12h-4v76l12 12l-12 20v24zM320 862h124l8 -8l-20 -20l20 8v-324q-20 -16 -40 -16q-30 0 -48 36 q-32 3 -32 8l-4 -4h-16v4l4 4l-4 4v12l4 4l-4 4v16q0 23 16 36v12h-16v20l4 4l-4 4v4l4 4v4l-4 24v8l4 4l-4 4v136zM340 854l-16 -20q20 -27 20 -40v-16l-8 -36l84 84q-36 0 -80 28zM360 674l16 -16q32 0 36 32l-12 32zM336 506v-8l-4 -4l4 -4v-8q0 -12 -16 -12v-12l36 -8 l16 8l24 -8h16l32 8l8 -8v-76q0 -9 -60 -16l-4 -4l-20 -8l-16 -16v-4q72 -18 72 -24l-36 -36v-4q15 0 20 -16v-8l-236 -236q-128 67 -128 160l-4 4v4h4l-4 4v8q0 52 8 72l52 -24v-4l-8 -12l8 -8l-4 -4h12l-4 4v8h4l4 -4h4v8l-4 4v4l4 4h4l16 -8l4 4h20l8 -8v-4l-4 -4l8 -32 l-12 -4v-4q20 -1 20 -12v-4h-28v-4q26 0 76 -24h16q1 -36 12 -36q8 33 52 72q3 32 8 32l-4 4v68l4 24l-4 20h4l-4 4v180q4 12 24 12zM336 350l-4 -4v-4l12 -4l12 4v4zM368 298v-4h16v4h-16zM320 222v-16h4q60 54 60 64l-4 4q-23 -16 -40 -16q0 -13 -20 -36zM164 274l4 -4 v-24h-4l-12 12zM448 246h4v-64q0 -12 -20 -12v-4q16 0 16 -16q0 -55 -92 -128q-50 -32 -112 -32l-40 4v4l112 112q0 -12 24 -12v-20q64 32 64 72q12 22 12 44v16l-80 -76h-12v4l88 88l8 -8zM328 130v-4l-8 -8l-4 4v4l4 4h8zM76 122v-4h24v4h-24zM136 106v-8h4l8 8v4z" />
<glyph unicode="V" horiz-adv-x="568" d="M172 862l8 -8v-8l-4 -4v-4q15 0 32 -156l4 -16q-48 -13 -48 -24v-4l20 -8l20 4v-4l4 4h4l8 -8v-8q-40 -48 -56 -48q-36 -14 -36 -32q0 -23 -20 -32q-8 15 -28 140q11 0 48 32v4q0 28 -60 36l-8 44l4 28q-13 0 -24 68l4 4h128zM404 862h84v-8h-20l-4 4h-4l-52 -52l-20 20 q6 36 16 36zM500 862h12v-8h-12v8zM148 838l-8 -8l-12 4l-40 -44l12 -4l-4 -4v-8l32 -4l40 60v4zM524 834h4q-52 -308 -60 -316h-4l4 -12q0 -44 -12 -44l4 -4v-12l-100 12q0 -9 28 -12v-4q-19 -28 -40 -28v-16l32 16l-4 4v4l20 20h4l8 -8q-16 0 -16 -8h4l48 8h4l4 -4h4 q-6 -68 -32 -68l-20 -8v-16h24l8 -8v-12l-8 -8l-4 4v4l-12 -4v-8q0 -7 20 -12l-56 -292l-4 -4h-20l-4 4l-4 -4h-8l-4 4l-4 -4h-28l-4 4l-4 -4h-8l-4 4l-4 -4h-24l-4 4l-4 -4h-8l-4 4l-4 -4h-8l-8 8l20 20h16l4 -4l12 4q0 12 -24 24q-16 -2 -16 -28h-20l-4 -4h-4 q-12 27 -20 104l16 24v8q-13 0 -20 48l4 16v8l-16 -12l-8 40l4 4q-12 0 -12 40q-6 0 -8 52h4l64 -12l16 4q0 -14 12 -16t12 -16l12 8h4l8 -8l-4 -4v-4q12 0 20 -92q8 0 24 112l4 4h48v4h-48l-4 4l12 32q18 -8 52 -8h32v4q-16 0 -16 12h4l4 -4h8v4l-16 4l-8 -8h-28l-28 -4v4 l12 16h-4l-12 -12h-4q25 196 48 196l4 4l64 -8h8q0 16 -64 16h-16l-8 8q9 104 32 104l24 24l4 -4h4q0 12 80 92zM144 762v-8l8 -8l4 4v12h-12zM104 730v-4h8v-4q40 4 40 12v8h-24q-24 0 -24 -12zM420 662v-8h32l8 8v4h-20zM232 526l20 -96l-28 -8v-16q7 -16 16 -16l-36 -40 l-64 8l-4 -4q-10 10 -16 80q89 92 108 92h4zM440 494l-20 -24h4l20 24h-4zM252 306l-12 -16h4l12 16h-4zM372 294v-4l28 -4l16 4v4l-16 4l-4 -4h-8l-4 4zM320 270l4 -4h16v4l-8 8h-4zM216 270l-28 -32h4l28 32h-4zM244 258v-8h20v4l-4 4v4zM296 222l20 -4h8l20 4v4l-20 4 h-20zM228 194l4 -4v-4l12 4v16z" />
<glyph unicode="W" horiz-adv-x="748" d="M44 864h128q10 0 12 -48l-8 -8h12v-16q-20 -28 -32 -28v-28l20 -4h8l4 4h4l16 -68l-20 -12h-4q-15 0 -32 20l-16 4q-29 -5 -44 -20l4 -4v-4l-12 -12h-8l-4 20v12l8 12v4l-8 12l40 44h-4l-40 -40h-4v4q18 64 28 64l-20 60h-8q-8 0 -8 -16l-4 -4h-4l-8 40zM308 864h128 q13 0 32 -180l-20 -8v-4h12l4 4h4q8 -13 16 -92l-84 -36v-4h8q39 8 76 28l20 -120l-4 -12q8 0 8 -24h4q0 28 16 28v8l-12 4q0 49 24 64l-16 4q11 96 24 96l4 -4h4q24 13 24 32v4q-36 4 -36 12q11 112 24 112l20 4l12 -4l24 8q0 23 -44 28h-4l-4 -4h-4l-4 4q3 52 16 52h128 v-4q0 -92 -32 -108l-16 -8v-4q12 0 12 -12q16 0 16 -8q-28 -196 -36 -204l-40 4h-28q7 -10 68 -28v-4l-76 -32v4l-12 -4v-12q76 -16 76 -24q0 -39 -12 -56l-64 8l-60 -8h-40v4l4 4v4q-24 0 -36 20q-52 29 -52 44v24h-4q0 -29 -12 -32l4 -4v-16q0 -28 -16 -28h-8v-4 q0 -8 12 -8l4 -4v-4l-4 -4h-56l-4 4l-4 -4h-164q-8 0 -28 136l20 4v4q-24 0 -24 16l-4 20q32 -3 32 -8q28 7 28 16v12l-8 8h-32l-20 -16h-4v4l-8 56l4 4q75 -16 120 -16v8l-28 4v8l32 8h4l28 -200l-4 -4l-40 12v-4q43 -40 84 -40h8q-4 11 -44 32q8 76 16 76l128 -28l4 4h4 l32 -4v12q-85 24 -168 24h-4q10 108 28 108q34 -8 88 -8h12l4 -4l24 4v4l-8 8h-8l-92 20v4l8 12q-2 9 -32 20v4q8 70 25 81q37 15 75 31v16l-40 8l-40 -8l-4 4zM612 752l-16 -20h4l28 8v8zM676 744h16v-4l-4 -4v-4l-12 4v8zM392 652v-4h16v4h-16zM80 632h36v-8h-16l-20 4v4z M608 564h20v8h-12zM448 524v-8l12 -12q24 2 24 24h-8zM528 488l4 -4h8q0 8 12 8v4h-16zM396 408q0 -8 36 -32h-4q-40 0 -40 12v12zM288 384v-12h8v4zM624 348l4 -4v-4l-12 -72l-28 4v48l-8 -8v-32h-4q-56 48 -88 48h-8l-8 -8q0 -27 108 -84v-4l28 20h8q-27 -180 -36 -184 h-12q0 -8 12 -8l4 -4v-4q0 -52 -28 -52h-12l-4 4l-4 -4h-20l-4 4l-4 -4h-20q-8 0 -8 12h-4q0 -12 -8 -12h-12q-1 0 -12 77q-14 110 -40 227l-8 36l4 4h76l24 -4l20 4l4 -4l4 4h40q0 -16 16 -16zM356 344q-18 -180 -28 -180l4 -4l-8 -48l-48 8q0 -6 16 -12l-8 -44l4 -4 q0 -35 -44 -60h-56q-9 0 -16 72l24 4v8q0 7 -28 12l-4 20q0 8 12 8v4q-24 0 -32 116l-4 4v4h4l12 -12l28 20h4l16 -12l16 8l-4 20v24h-8q0 -18 -16 -28l-8 20q-25 -2 -40 -16q-12 0 -16 64l4 4h224zM208 320v-4l76 -16l4 4v8l-68 12zM428 324v-100h4v44h4l-4 4v52h-4z M456 284q0 -8 -16 -8v-12l8 -8h20l8 8v4zM244 240v-4l44 -8l4 4v4l-4 4h-44zM260 172l-8 -24q4 -28 12 -28l12 16v8q0 22 -16 28zM504 108v-4q36 3 36 12v4h-24zM316 108l8 -8l-8 -60h-8l-4 16l4 4h4l-8 44l4 4h8zM508 64v-32h4v32h-4zM280 24h8v-20l-20 -4l-8 8zM308 24h4 v-16h-8v4z" />
<glyph unicode="X" horiz-adv-x="560" d="M96 864l-8 -32l4 -20q9 0 16 36l-4 16h76q14 0 52 -136h-132q-16 8 -16 24l16 12l8 -8q25 0 60 28h-8q-20 0 -76 -20q-11 11 -44 96l4 4h52zM380 864h132l8 -8q-38 -100 -48 -104q-20 0 -20 -24h-116l-8 8q41 117 52 128zM228 716v-4q-1 -8 -76 -44v-4h8q22 0 84 32 q16 -26 28 -72q-28 -13 -28 -36v-16h4l4 4h4l4 -16h4l40 40l-12 28q26 88 36 88h32v-8q-16 0 -16 -8v-4l4 4h4l4 -4h4q0 6 16 12v8h28v-8q-12 0 -12 -8h8q24 0 24 16h36v-4q0 -25 -32 -60l4 -16q-15 -44 -24 -44l-8 8v-40q0 -20 -92 -112l-72 -72h-4l4 24v12h-4 q-3 -56 -16 -56h-4l-24 8v-8h-8l28 76l-28 80l80 24v16h-4l-76 -24h-4q-7 0 -76 184l4 4h124zM308 496v-4l24 -4q24 18 24 36v4h-20q-9 0 -20 -32h-8zM244 484v-16h4v16h-4zM236 436v-16h4v16h-4zM368 392v-4q0 -11 -20 -20v4zM372 372h8l16 -60v-4h-8v8h-4q0 -26 -72 -100 v-4h-4q-11 0 -20 52l40 48h12v-28h4v40q8 16 20 16v8l-12 -8l-8 8zM332 336h4v-4l-12 -12h-4v4zM400 288h12l40 -104q-14 -12 -60 -12l-4 4l4 4v88zM380 252v-20l4 -60q-15 -9 -60 -12l-8 24v4l44 48h4v-32h4v44l4 4h8zM252 200v-4q-5 -28 -16 -28h-4v4q14 28 20 28z M236 156v-4q0 -35 -64 -92v8q41 65 64 88zM344 140q136 0 136 -24l40 -112l-4 -4h-28l-4 4l-4 -4h-32l-4 4l-4 -4h-28l-4 4l-4 -4h-16q-13 0 -56 136zM376 68v-4l12 -4l12 4v4h-24zM196 48v-4q-10 -44 -20 -44h-12l-8 8z" />
<glyph unicode="Y" horiz-adv-x="548" d="M64 864h40v-4l-4 -4v-4h4l28 4v-4l-72 -72q-9 0 -20 52q27 11 32 24h-8v8zM368 864h132l4 -4h4q-20 -76 -56 -76l-72 -36q-25 12 -44 36l8 8h4l4 -12q44 13 44 24v12q0 8 -36 12l-8 -20h-8q15 56 24 56zM188 796h8l8 -32l-68 -20zM332 760l80 -60v-44l-8 -8l-12 12 l-32 -8v4q-24 -5 -24 -12v-4q0 -17 40 -28h4q21 0 24 12l-4 4l4 4h4l4 -4v-20q0 -34 -80 -248l4 -4v-4l-8 -8h-24q0 50 -72 68h-4q-32 0 -32 -16h-8l-68 208l20 4v8l-24 4l4 4v28h-4l-12 -4q-16 32 -16 52q23 0 120 44l48 -144l-8 -8v-4q12 0 12 -40q17 -48 24 -48l16 -8 l24 36l-4 4v4l12 40l-8 24h4l-24 72q0 21 28 88zM408 744l4 -4v-4l-8 -8l-4 4v4zM216 508v-4h16v8h-4zM208 340l48 -8l60 8h16l4 -28v-52l-4 -4l4 -4v-12l-4 -4l4 -4v-4l-4 -4l4 -4v-32l-4 -16l4 -16l-4 -16l4 -4l-4 -12l4 -64v-24l-4 -4l4 -4v-20l-8 -8q-16 18 -20 72l4 12 h-4q-12 0 -12 12q-24 -11 -24 -44l12 -48l-4 -4h-4v4l-4 -4h-40l-4 4l-4 -4h-16l-8 8v36l4 4l-4 4v280z" />
<glyph unicode="Z" horiz-adv-x="464" d="M84 864q8 0 8 -24h4q0 24 8 24h60q29 -23 76 -104h8l-12 20q26 10 28 20l-4 4v4l-20 -8l-12 4v-8q-48 51 -48 68h236l8 -8v-116l-60 -156l-36 8l-8 -20h4l28 -16q-55 -152 -64 -152q-93 64 -104 80v8l20 -4h4v4q0 8 -16 8q0 18 88 232h-136q0 8 -20 16v-16h-76l-8 8v8h4 l-4 28v60l4 20l-4 4l4 4h40zM176 464l52 -40v-4h-20l-12 -8q0 -19 80 -44v-8q-6 -16 -12 -16h-20q-29 0 -32 12l-4 -4l-20 4h-36l-8 8l-4 -4h-8zM244 284l-60 -152l44 -32v4q-18 20 -28 20v8h36q7 0 12 -28l32 -8l48 16l-4 12h4q13 -24 96 -56v-60l-8 -8h-24l-4 4l-4 -4h-52 l-4 4l-4 -4h-48l-4 4l-4 -4h-44l-4 4l-4 -4h-4l-32 8l-12 -4l-124 132q0 16 32 52l-4 24q19 52 28 52l12 4l4 -4h4l16 4h4l8 -8l32 12l4 -4h4zM40 88h8l84 -84l-4 -4h-12l-4 4l-4 -4h-8l-16 4l-16 -4v4l-4 -4h-20l-4 28h4l-4 4v16l4 4l-4 4v8l4 4l-4 4v16z" />
<glyph unicode="[" horiz-adv-x="300" d="M48 910h204l8 -8v-20l-8 -12v-20l8 -12v-52l-8 -8h-36v4l4 4v4l-4 4q-22 -16 -44 -16v-340l-8 -8h-20v-8h-36v-4q64 0 64 -12v-8q-84 -93 -128 -128h-4v188q0 12 56 12v8h-48l-8 8v36l32 32v4l-28 -8l-4 4v20q0 8 24 16l12 -4v4l4 4v4l-4 32l-32 -24h-4v296zM192 838h4 l48 28v4h-8q-36 -17 -44 -32zM96 810v-8q0 -56 48 -56v32q0 33 -36 40h-4zM88 562h4l76 16l-8 12v32h-4zM168 370l4 -4v-112l-8 -8l-40 4l-40 -4v-4h8v-4l4 4l20 -4l16 4v-4l4 4q36 -4 36 -12v-8l-8 -8h-12l-4 4l-4 -4h-4l-4 4h-4l-12 -4l-12 4l-36 -4h-20l-12 12v16z M100 202h64l8 -8v-4q0 -7 -28 -24h-4v4l4 4v4q-44 8 -44 20v4zM168 162h4v-44q12 0 44 -40l-4 -4h-32v-8h-36v-16h48v4h-16v8h8l4 -4l4 4h20l8 -8l-8 -8l4 -12h-16v-8l20 4h12l20 -4l4 4l4 -4v-24l-8 -8q0 12 -8 12h-24l4 -4v-4l-40 -4h-136l-8 8v92l4 4v4l4 -4h4 q48 10 48 16h-52l-8 8v8l4 4v4l40 -8v8h24l4 4h4l4 -4v-4l-4 -4l16 -4zM72 158h12l4 -4l4 4h8v-8h-28v8zM116 154h16l-8 -8h-8v8zM184 126h12q8 0 8 -12h8l-4 4v4l4 4h40l8 -8v-40l-8 -8h-16l-8 8v40h-4l-4 -28h-4l-32 32v4zM104 86v-4l24 -8h4v4l-24 8h-4zM80 74l-4 -4v-4 l24 -4h4v4zM232 62l12 -12h-12l-8 8l4 4h4zM108 30v-4h28v4h-28zM172 14v-4h36v4h-36zM44 10v-4h16v4h-16zM232 2h4v-8h-12z" />
<glyph unicode="\" horiz-adv-x="544" d="M40 910h100q12 -4 12 -24l-24 -52l40 8q52 -115 52 -140q-19 -19 -72 -44l-4 -16l20 -4l16 4v-4l-12 -52h-4q-2 0 -36 88l-64 168l40 20v8h-4l-20 -4l-4 4l-8 -8h-8q-10 0 -20 44v4zM252 634l68 -188q-14 0 -32 -32h-8q-112 113 -112 160l4 4h12v-36h4q18 14 32 44h4 l4 -4h4q8 9 8 48l4 4h8zM196 494h4q78 -82 88 -104v-4l-44 -8q-7 0 -48 116zM332 418l8 -20l-12 -8q0 -12 16 -12l32 -68l-4 -4h-4q-61 84 -72 88zM312 366l44 -52v-4h-16l-12 12l-4 -4h-4q-8 0 -8 16l-20 -8l-12 16v4q10 20 32 20zM400 242l104 -268l-4 -4h-68l-4 4l-4 -4 h-24l-8 8v4l16 -4h4v4q-16 0 -16 12l4 16q-8 0 -8 -16h-8l-4 28l4 4q-10 0 -12 16q4 16 16 16v4q-12 0 -12 8l4 4h4l-4 20l8 20l-8 8l8 12v4l-8 12l40 20v8l-44 20q6 17 20 24l-4 4v8zM404 10v-4l32 -20h4v8q0 12 -32 16h-4z" />
<glyph unicode="]" horiz-adv-x="300" d="M48 914h36l8 -8l-32 -64h4q10 2 48 64l32 8h12l4 -4l4 4h12l4 -4l4 4h16l4 -4l4 4h12q16 -4 16 -44q-12 0 -12 -16l-12 -16h-8l4 -4v-4l-8 -12l4 -4v-12q0 -12 -20 -12l8 -12l-8 -12q12 0 12 -8l-12 -16q12 0 12 -8l-4 -4v-4l8 -8v-8l-4 -4v-4q16 0 16 -32l4 4h4l4 -4 l-4 -4v-12l12 8q20 -6 20 -24l-4 -4h12l-4 -476l-20 4h-36l-28 -4v-4h8v-4l4 4h52q24 0 24 -12v-20l-8 -12l8 -12v-36h-8v20h-4q0 -46 -16 -48h-36l-12 8h-20l4 -4v-8l-20 -24h4l20 20l20 -4v8l20 -8l8 8q24 0 24 -28h4l4 20h8v-20l-8 -8l-56 8l-24 -4h-32l-4 4h-4l8 24 l-8 20h-32v-4l32 -4l-8 -32l4 -4l-32 -8h-48l-8 8v16l4 4l-4 4v4l4 4l-4 4v28l8 8h4l4 -4l12 4v4q-16 0 -16 8h16q0 8 -16 8v8l44 4l-8 8h-40l-8 8l4 4h84v188q37 44 48 44v4h-32l-12 -8l-4 4v68h76v8l-4 -4h-4l-16 4l-4 -4h-4l-20 4l-20 -4l-4 4v236l4 44l-4 32v32h-84v4 q88 96 104 96l-4 4v4l-4 -4h-8l-4 4h-4l-8 -8l-4 16h-4q0 -39 -36 -60l-28 -28l-4 4v96zM76 802v-8h12q21 0 40 20v4h-8zM176 506l12 -44q13 0 20 48l-4 4v4l4 4l-12 52q-20 0 -20 -68zM220 490l-4 -40l4 -36h8l8 8v28l-12 40h-4zM152 378v-4h8l4 4v4zM188 378v-32h4v32h-4z M120 90v-4l20 -8h4v4l-20 8h-4zM180 74v-8h-4l-56 -8v-4l44 -4l64 4v8q-12 0 -12 12h-36zM56 30l-4 -4v-4h68v4h-60zM164 10v-4h48v4l-20 4zM88 6v-4h16v4h-16z" />
<glyph unicode="^" horiz-adv-x="356" d="M208 994q8 0 60 -132h-4l-112 128l4 4h52zM148 986l116 -136v-8q-17 0 -60 -24q-7 0 -24 44h-4q-3 -28 -20 -28l8 -8l-20 -36q-23 20 -40 20l-36 -8l-4 4v4q9 28 28 28l-4 4v4q23 86 60 140zM268 814v-12h-8l-4 -12l4 -4v-8h-36q-16 8 -16 24l12 8l20 -4zM284 814h4 q12 -2 12 -32v-4h-24v4h12l-4 4v28zM108 802l8 -16h20l8 -8q-10 -26 -20 -28h-76l-4 4h-4q0 33 68 48zM256 766l8 -8l-8 -8h-16v8zM304 758h12v-8h-12v8z" />
<glyph unicode="_" horiz-adv-x="748" d="M44 -40h132l8 -8l-92 -92h-40q-12 4 -12 24v48zM212 -40h108l8 -8l-96 -92h-124v4l68 68l4 -4l-4 -20q5 -40 16 -40l8 8l-4 4l4 20v8h-4q5 52 16 52zM544 -40l8 -8l-48 -40h-4l-4 4q-24 -8 -72 -8v4l32 36l-28 -4h-44q-52 0 -52 12l4 4h208zM600 -40h100l8 -8v-84l-8 -8 h-12v4q0 10 16 12v4q-80 28 -144 36v4zM416 -124l40 -8v-8h-40l-8 8zM656 -124l16 -8v-8h-96v8zM384 -128l4 -4v-4l-4 -4h-8v4zM540 -132h16v-8h-16v8z" />
<glyph unicode="`" horiz-adv-x="272" d="M132 980l4 -4h4l-4 -48v-28l-20 -4h-4l-4 4h-4q0 -12 -8 -12h-4q-20 23 -52 88l4 4h88zM156 980q9 0 48 -124h-4q-21 15 -68 28v8q20 0 20 12l-8 8v44q3 24 12 24zM196 828h8v-28l-4 -4l4 -12h4l4 20v16h8l12 -36l-4 -4h-76l-12 16q45 32 56 32z" />
<glyph unicode="a" horiz-adv-x="548" d="M192 862h168q10 0 28 -124l-108 -104l-8 8l-4 -4v4l-24 -4v-4h28v-8q-33 -48 -76 -48v-8q12 0 12 -8l-8 -8h-4l-20 4v-8q12 0 12 -8l-64 -64h-4v4q0 36 32 36v4l-24 4q0 32 20 52l-8 12q40 272 52 272zM384 730h4l16 -100l-4 -4q7 0 16 -56l-20 -4v-4q28 0 28 -52l4 -28 l-92 12v8h16v8l-24 -8v-4h-8l-24 24v4h4l48 -4l12 4v4q-72 5 -72 28l-8 72zM364 646l-4 -4v-4h28v4h-8v4l-4 -4h-4l-4 4h-4zM264 610h4v-4q0 -48 -12 -48l-20 28zM352 574v-4h16v4h-16zM196 546q37 0 60 -24q-7 -74 -24 -112l8 -8q-3 -44 -12 -44h-8q-18 16 -56 16h-20v-4 q64 -11 64 -20l-4 -4v-4l24 -8v-8h76l8 -8v-40h8q0 26 24 36l8 16q-32 0 -32 12l-20 128h4q156 -147 156 -164l48 -304l-4 -4h-124q-12 0 -40 200h-132q-29 -195 -36 -200h-44l-8 8l24 16v4l-12 12h-8l-24 -8l-48 52l64 368l96 -12v4q-35 12 -80 12h-8l-8 8q42 52 64 52v-4 l20 4v4l-12 4l-4 -4h-8v4zM368 530l20 -20l4 12l-12 16h-4zM228 490v-44l8 -8v52h-8zM344 482q72 -8 72 -16h-4q6 -16 12 -16h4v8h8v-4l-4 -4q8 -9 16 -76h-4l-84 84v4h8v4q-28 0 -28 12zM244 274l4 -4v-4l16 4v4h-20zM260 206h12l28 4l-8 8h-8q-24 0 -24 -12zM48 54h4 l48 -52l-4 -4h-48l-8 8z" />
<glyph unicode="b" horiz-adv-x="520" d="M48 862h120l4 -4h4l-4 -4v-76h8v72l12 12h76q24 0 24 -12l-16 -44h-8v16h-4q0 -31 -20 -80l4 -12h-48q-8 0 -8 24h-4l-4 -60v-80q0 -8 -20 -8l-4 -4v-4l16 -4l4 4l4 -4v-32q-32 -24 -32 -48l4 4h4q24 -16 48 -16l72 20q34 -76 52 -76v12l-36 60h40l8 8q-3 13 -36 16v4 q16 50 20 92h12v4q-24 0 -24 36l-20 32v12q0 34 36 88l4 12h-4l-28 -44v8q0 36 16 64q63 -25 80 -48l-68 -76h8v-4q12 0 56 28q28 6 28 16h-20l12 12h8q40 -71 40 -144v-24l-4 -4l4 -4v-8l-4 -4v-4l-48 16l-52 -4v-8l64 -12l4 4h4l4 -4l4 4h12l8 -8q0 -59 -80 -120h-4v-4 q34 0 44 -52l4 4h4q34 0 52 -148v-20q0 -158 -124 -216q-32 -20 -108 -20q-11 0 -44 40v4l4 16l-4 16h4q-8 16 -8 44v8l8 8q12 0 12 -52h4q0 44 16 50l52 14q27 -51 52 -68h4l4 16q-32 24 -32 44q10 0 12 16l-12 32q16 60 24 60l4 -4v8q-20 0 -20 72q-19 64 -120 64h-24 q0 -17 -16 -24l-8 12l4 24v4h-4q-3 -20 -12 -20h-12v8h-4q-22 -16 -40 -16l-4 4v48q0 8 12 8v4q-16 0 -16 12v96l-4 -4l-4 -12h-4l4 -4l-12 -152h-24v172q0 8 20 8l-4 4v4l-4 -4h-4l-8 8v104q0 8 16 8v4q-16 0 -16 8v8q0 8 20 8v4q-20 0 -20 8v136zM228 854v-36h4v36h-4z M112 698l-8 -36l8 -8q-13 0 -16 -44q7 -32 12 -32l-4 -20v-72l-4 -4l4 -4v-40h8v96l4 4l-4 4v20q15 10 24 84h4v8q-20 0 -20 36l4 4l-4 4h-8zM336 674l8 -8h4q56 0 56 16v4l-4 -4h-4l-4 4zM396 646l8 -8l16 4v8zM172 482v-4h16v4h-16zM116 398q40 38 40 60v8 q-40 -44 -40 -68zM256 434l-8 -36v-8h8l8 44h-8zM312 422v-4h20l28 4v4h-20zM176 410v-4h28v8zM432 374v-12h8l4 12h-12zM60 354l4 -4v-8l-12 -12h-4l-8 8v4q0 7 20 12zM348 338v-20h-8v-4l20 -4q56 9 56 20h-8l-28 -4l-4 4v4l4 12h-4l-12 4zM364 238v-4q35 -12 80 -12h24 l8 8l-36 8h-76zM352 206v-4l8 -8h24v12l-12 4zM120 210h12l48 -16v-8l-4 -4l4 -4v-4l-8 -24l4 -24l-4 -20l8 -8l-4 -20h8v-16h-4l-80 80q1 20 8 20l-4 4zM88 102h8l88 -88v-8l-8 -8h-36q-9 0 -12 52h-4q-2 -52 -12 -52h-60l-12 12v68h4l20 -20q24 31 24 44z" />
<glyph unicode="c" horiz-adv-x="492" d="M252 874q55 0 88 -28l-112 -108l-12 8q0 -12 -44 -40l4 -4q-2 -36 -8 -36l4 -4v-8l-4 -4l4 -4v-32l-16 -16h-4l-4 20l16 12v4l-36 8l-24 -16l-4 4h-4q0 -11 -20 -20q9 -24 28 -24v-8h-12l-16 12h-4l16 -20q0 -8 -16 -8l4 -4v-4l-4 -4l-20 4h-4q0 -6 28 -20v-4l-12 -4v-4 l8 -8l-8 -16l4 -12l-8 -8h8v-8h-4q-24 4 -24 12l8 8v4l-8 12v80q4 12 24 12l4 -4v8h-20l-8 8v68q0 109 116 172l12 -4v-28l8 -8h12l16 16v8l-16 20q0 20 64 20zM364 834q10 0 36 -32q0 -8 -12 -8v-8l44 -24q20 -50 20 -80v-76h-8q0 12 -8 12l-24 -8h-16l-4 4l-44 -8l-12 4 v-8h-12l-8 8v24l8 8l4 -4l8 8h8l4 -4h4q0 12 16 12l4 4v8l-20 4h-16v-12h8v-8l-20 4l-4 -4l-8 48l20 24l-20 16l-32 -8l-12 4v8q85 92 96 92zM336 734h4l4 4h4l8 -8l4 4v4l-8 8zM380 642l4 -4v-4l-4 -4h16l-4 12h-12zM364 626v-4h16v4h-16zM44 462l28 -12v-8h-24l-8 8v4l4 4 v4zM44 394l28 -4h24l20 4q42 -35 56 -60l-4 -4l4 -20v-20l-16 -16h-4q-49 42 -72 48q-13 -2 -36 -28l-4 4v88l4 4v4zM368 318h20q8 0 8 -12q13 0 28 12h20l8 -8v-12q0 -13 -72 -20h-4l-8 36v4zM316 306h4q9 0 12 -28l-4 -28q0 -15 24 -28l8 8l92 -20v-24q0 -8 -12 -8l-20 4 q0 -8 -32 -20l-20 -28l8 -8q-12 -12 -12 -28l-8 -8l8 -16l-4 -12q8 0 8 -20h8v-4q-47 -48 -112 -48h-28q-81 0 -128 60l12 4v4h-16v12l8 12q-64 15 -64 56l104 100h12l8 -8l-4 -4v-4l4 -16l-4 -4l4 -20v-12l-4 -4v-4q12 0 40 -32l20 -4h28q42 0 60 64v116zM44 262l32 -12h40 l8 -8l-56 -56l-28 28v4q0 8 32 8v4q-32 4 -32 12v12l4 4v4zM48 182h4l8 -8l-16 -12l-4 4v8zM176 86v-16h4v16h-4z" />
<glyph unicode="d" horiz-adv-x="492" d="M48 862h20l-4 -44q11 -36 24 -44l12 16l4 4h4q0 -7 24 -12l24 -84l12 8h4v-44q0 -8 -20 -8v-8q16 0 16 -8v-4h-8l-16 4l-16 -4v-4q44 0 44 -8v-52q0 -8 -20 -8q0 -23 -24 -36h-16q-15 0 -32 20h-4q-14 0 -32 -16h-4v28q0 8 12 8v8q-12 0 -12 8v52q0 8 40 8l-4 4v4l-4 -4 h-12l-8 8l72 76h-24l-56 -52l-4 4v172zM76 862h24q6 0 20 -52l-12 -8l-16 44l-4 -4h-4l-8 8v12zM256 862q84 0 140 -68l-88 -88h-4q-28 17 -28 24l36 72q-5 20 -12 20q-32 -61 -32 -92l-4 -4h-84l-8 8v8l8 8q-4 19 -24 36v8l12 12l-32 52l4 4h116zM200 738l4 -4h12l8 28v8 l-8 8q-11 0 -16 -40zM412 770h8q32 -57 32 -128v-28l-20 -16h-60l-40 -12v-4l36 -16h28l4 -4l48 12l4 -4v-116l-8 -8h-4l-12 4l-76 -12q0 -12 44 -12h24l28 4l4 -4v-204q0 -163 -156 -216q-34 -8 -88 -8h-84l-8 8l136 128q54 0 60 40q8 0 8 36q21 20 36 20h8l4 -4 q44 7 44 16l-8 8l-4 -4l-20 4h-12v4l56 60h-12l-48 -44v4q39 48 52 48l-16 12q-24 -4 -24 -12v-4h12v-8h-8v-4l-40 8l-16 -16h-4v8l4 4l-4 4v32q0 7 28 12v4q-26 0 -28 12v168l4 4v4l20 -4h8l12 12l-36 8l-4 -4l-4 4v60l8 8l4 -4h4v4q0 8 -12 8l-4 4v28q0 10 92 96zM384 718 l16 -12l4 4h4l4 -4h4q0 12 12 12v4l-20 4h-16zM84 654v-8h48l-12 12l-4 -4h-8l-4 4zM140 606v-4h16v4h-16zM168 526h4v-132l-8 -12l8 -24v-20l-12 -12l-4 4l8 28l-12 32h-16q0 -16 -12 -16h-4l4 4v4h-28q0 -12 -32 -12v4l-4 -4h-12l-8 8v56h8v-24zM332 502v-4h20v4h-20z M52 490l32 -4v-4l-16 -16h-4q-21 0 -24 12v4q0 8 12 8zM48 458l4 -4v-4l-8 -8h-4v8zM40 338h44l24 -4l16 4l4 -4v-4l-4 -16l16 -12l12 8q20 -5 20 -12v-84l-12 -16l12 -16v-36l-128 -128h-4v8l4 4l-4 4v96l16 16l-4 4v4q0 12 32 12l-8 20q9 28 28 28v4q-16 0 -16 8v4 q12 20 24 20l44 -8l8 12v4q-46 16 -88 20q-4 28 -24 28l-12 24v8zM352 262h4l-12 -12v4zM92 202q0 -8 12 -8h8v4zM416 170l8 -8h12v8h-20zM216 126h4l-24 -24v4zM172 82h4v-4l-76 -76h-8z" />
<glyph unicode="e" horiz-adv-x="452" d="M48 862h40q6 0 20 -32h20l12 8l-4 4v12l8 8h172l96 -96v-28l-8 -8h-228v-52l-4 -4v-4l4 -4l-4 -4l-4 4l-32 -4v-4q40 0 40 -24l-4 -16l4 -20h-4l4 -4v-16l-4 -4l4 -4v-72h164l8 -8v-116l-8 -8h-168l4 -4v-4l-4 -4l4 -4v-40q0 -8 -40 -8v-4q40 0 40 -12v-12l-132 -132h-4 v124l4 4l-4 4v36l8 8l20 -4q0 8 12 8l12 -4q0 16 -20 16l-32 8v352q0 6 52 24q0 10 16 28v16q0 14 -44 20l-24 -8v80zM388 862h16l8 -8v-4l-8 -8l-16 16v4zM252 790v-4h48v4h-48zM148 734v-32h12l4 20l-12 12h-4zM92 482v-16l20 -8q32 7 32 16q-2 12 -32 12zM312 458v-4 l20 -4l4 4v4h-24zM124 282v-4h40v4l-12 4zM168 150h8v-16h228l8 -8v-120l-8 -8h-356l-8 8v16zM184 86v-16h4v16h-4z" />
<glyph unicode="f" horiz-adv-x="452" d="M48 862h280v-12l20 4h28v-8l-40 -40h-4v40h-4v-52l-60 -60l-16 -4h-60l-4 4l-16 -4v-108h-8l-124 124v108zM408 854h4v-116l-8 -8h-12l-8 8v48q0 8 24 8v4q-24 0 -24 16v4h-4q0 -20 -12 -20v-4q12 0 12 -8v-48l-8 -8h-84v4zM92 810l-8 -20l12 -16q16 4 16 24v4 q0 9 -20 12v-4zM204 762v-20h4l4 16l-4 4h-4zM40 674h4l128 -128v-48h36q8 0 8 -12h4v8h4l16 -12l8 8l28 -28l-12 -4q12 -15 12 -28v-4q0 -8 -12 -8l-4 -4v-12q0 -20 16 -20v-4l-12 -12h-64v4l4 4v4q-8 24 -16 24l-4 -4v8l16 8h12l36 -16v4l-36 32v4l8 12q-16 0 -16 8v4l4 4 v4h-4l-16 -4l-8 16l-4 -4h-12l-4 4h-4l-12 -12h-4l-4 4h-4l-4 -28l4 -12l-4 -4h-4q-4 12 -24 12l-20 -8q-40 4 -40 12v228zM84 574l4 -4v-4l12 4v4h-16zM308 498h8q7 0 16 -24l4 4h4l8 -8v-16l-8 -8l-40 36v8zM292 430l56 -60l-4 -4h-52l-8 8v4l4 36l-4 12l4 4h4zM132 422h8 q28 0 28 -20l-4 -28l8 -8v-292l-60 -76h-64l-8 8v388l8 8h12v-8l-4 -4v-4h8l12 4l8 -16l40 20v20zM124 326v-4h20v4h-20zM108 258v-8l4 -4v-4q36 10 36 36q0 6 -16 12q-24 -8 -24 -32zM48 258v-4q12 -24 24 -24l-8 -12q12 -14 16 -76q27 -61 52 -76l20 16l-4 20v8l4 4l-4 4 l8 96l-36 24l-4 -4h-8z" />
<glyph unicode="g" horiz-adv-x="496" d="M252 874q116 0 180 -116l-4 -4q16 0 24 -56l-132 -132l-4 4v52h8q3 -20 12 -20l32 36v12q0 13 -12 28l4 4v4h-4l-32 -32h-4q-5 67 -36 72v12l4 4v4h-4l-12 -8l-20 4l-28 -4l-12 4l-32 -40l-8 -36v-44l-28 -28h-12q-15 12 -28 12q0 -40 -32 -40l-20 12h-4l16 -20v-4 q-12 -9 -12 -28h-8l-4 20h4l-4 4v8l4 28l-4 36v28q0 164 156 216zM296 762q0 -8 12 -8l28 8v8l-24 4zM388 718l-4 -4v-8h4l4 12h-4zM452 686l4 -4v-60l-8 -8h-64v4zM84 646l8 -8q28 4 28 12l-4 4h-24zM372 606h72v-4l-36 -36h-20l4 20h-4l-12 -4v4l4 4v4l-12 -8l4 -20h-36v4 zM48 522l4 -4v-4l-4 -4h-4l-4 4v4l4 4h4zM352 498h60q0 -12 12 -12l4 -4v-8q0 -8 -24 -12l-4 4h-8v-4q11 0 20 -20q12 0 12 -12h4q0 52 24 52l4 -4v-68l-4 -4l4 -4v-96l-40 4q-24 -4 -24 -12l8 -8h36l12 8h8v-36l-8 -8q-21 16 -44 16h-12q-31 0 -44 -24v-8q30 -32 72 -32 l36 16v-16q0 -99 -56 -148q-92 85 -92 96l12 52h4q55 -40 72 -40l-4 4v12h20q0 8 -40 16l-56 48v16l4 4l-4 4v92h-64l-8 8v108l8 8q30 -36 60 -36l4 -4l4 4l4 16q-32 4 -32 12l4 4h4l4 -4q34 5 48 20zM48 462q8 0 8 -12l-4 -12l8 -8l-4 -4v-4h4l12 4l8 -12v-4l-16 -16 q-24 14 -24 36v24zM80 402h4q12 0 12 -16q12 0 12 -12h12v-8l-12 -12h-4l-36 36zM336 362v-8h8v-4l12 4v8h-20zM128 362h4q12 -4 12 -24h-4l-4 4h-4l-16 -4l-4 4v4zM160 318h12v-20l-8 -8l-12 16v4zM40 238h4q141 -133 244 -244l-4 -4h-52q-128 0 -184 156q-8 17 -8 64l4 16 zM332 174v-32l8 -8h8l4 20v12l-8 8h-12zM136 102h8l8 8v4z" />
<glyph unicode="h" horiz-adv-x="500" d="M48 862h28l8 -8v-8q-8 0 -40 -32h-4v40zM116 862h48l8 -8v-48h-4l-52 52v4zM332 862h12l12 -8h12l32 8h52l8 -8v-20l-8 -8l-40 12v4l-20 -4h-8l-24 4l-24 -8h-4l-8 8v12zM88 846h4l80 -80v-12q-7 -16 -36 -16v-4q36 -1 36 -12v-8l-8 -8h-4l-16 4l-16 -4h-8l-12 8 q0 -9 -20 -12v-4l20 -4h56l8 -8v-124l-56 -60q24 0 24 -8l-12 -12h4l36 36h4v-20h104v-12l-4 -4l8 -32h8v8l-4 40h40v20l4 4l-4 4v20l4 4l-4 4v16h8l4 -40v-40l-4 -48l20 16h4q0 -26 -20 -64q16 0 16 -8v-36l4 -16l-4 -4v-4l12 -92h4q8 72 16 72q0 -12 12 -12l4 -4v-24 q11 0 40 -20l12 4l4 -4v-4l-4 -4l4 -4v-12h-8v-4q12 0 12 -8v-204l-8 -8h-120l-8 8v184l4 4l-4 4v72q0 8 12 8v4l-12 16v44l4 4l-4 4v4l4 4v4h-48l-16 16v8l4 4v4q-56 22 -100 20q-68 -3 -68 -24q9 -13 72 -28v-356l-8 -8h-116l-8 8v144h16v4q-16 0 -16 8v28l8 8h72 q0 12 -44 12v4l-24 -8h-12v288q0 8 12 8v4q-12 0 -12 8v16l8 12l-8 8l4 4l28 -4h44l24 8q0 24 -60 24v4l-36 -8l-4 4v108q0 8 12 8v4q-12 0 -12 8v88zM60 806l4 -28l-4 -4h8l-8 -32l4 -12h8l8 8v20l-4 4v4l32 32v16q0 8 -24 12q-24 -8 -24 -20zM456 782l4 -4v-12l-24 -16v-4 l24 -20v-12h-20l-4 4l-20 -8l12 -32v-4h-4l-68 -4v-4q56 -3 56 -12l-28 -8l8 -12l-28 -24q-40 29 -40 56h4l-4 4v4l4 16l-4 12l4 4v4l-4 24l4 4l-4 4v8l4 4l-4 4v8q3 12 32 12h60zM332 610l12 -16v-4l-16 -12l-4 28l4 4h4zM404 510h12q44 0 44 -12v-144l-56 -20l-16 -24h-12 v8l4 24l-4 16l16 8q0 12 -12 12v4l8 24q-12 4 -12 24v52zM436 426l4 -4v-4l12 4v4h-16zM424 362v-8h20l-8 8h-12zM360 198v-4h28v4h-28zM332 178v-8h16v8h-16zM344 166v-4l12 -4h4v4l-12 4h-4zM380 126v-4h24v4h-24z" />
<glyph unicode="i" horiz-adv-x="212" d="M116 862h52v-8h-52v8zM48 850h20v-4l-24 -24l-4 4v16zM168 806h4v-108l-4 -24l4 -20v-20l-8 -8h-60l-28 -4l-4 12h-8q0 -16 -12 -16h-4l4 -4v-4l4 4l68 -4h16l28 4l4 -4v-80q0 -8 -32 -8v-4q32 -4 32 -12v-152l-8 -8l-4 4q-40 -7 -40 -20q0 -8 52 -20v-44l-4 -4v-4 q-32 0 -32 32q-8 0 -8 -20l-4 -4h-4l-4 4h-4l-4 -4q-28 3 -28 8l-4 -4h-20l-16 16v156l4 4v4l44 -4l40 4v4l-8 8h-20l-36 4l-4 -4h-4l-16 8l4 4l-4 20v24l16 28q-16 0 -16 12v12q0 8 20 8v4q-20 0 -20 8v40l8 8l4 -4q28 10 28 16h-4l-4 -4q-32 4 -32 12v20q37 52 80 52h8v8 l-20 4v4zM104 566v-4h20v4h-20zM136 414l4 -20h8l8 20q-8 0 -8 20q-8 0 -8 -20h-4zM168 214l4 -4v-204l-8 -8h-116l-8 8v32q0 8 12 8v12l-12 60v76l8 8l4 -4l4 4h16l4 -4z" />
<glyph unicode="j" horiz-adv-x="368" d="M320 862l8 -8v-132l-8 -8l-40 52q40 10 40 16l-40 8l8 12q-14 12 -48 12l-16 -4l-4 4v8h48l28 8v12l-48 12h-16l-20 -4v4l-4 -4h-4l-8 8l4 4h120zM204 826l16 -16v-8h-8l4 -4v-8h-12l-8 8v20zM208 778l44 -8v-4q-4 -12 -24 -12v-4q66 0 84 -28v-12h-20v-8q36 -3 36 -12 v-4h-4l-112 4l-12 -4l-4 4v16q0 8 40 8v4q-40 0 -40 8v40zM204 670l84 -4l36 4l4 -4v-44l-4 -4v-4l-48 4h-20v4l4 16l-4 12h-20l-4 4l-28 -12l-8 8v12zM296 490h4v-8l-56 -56q-8 0 -36 -36l-4 -4h-8v88h4l4 -4h4l-4 -28v-4l8 -8q21 0 36 24v4q0 8 -32 8l8 8h8l4 -4l4 4h4 l4 -4l4 4h28q0 9 16 16zM324 434h4v-124l-16 -4l-8 8q0 -8 -40 -12l-4 4l-20 -4h-44v4q24 32 48 32v4l-8 8l28 24h4v-8h4v4l-4 12zM196 378h8v-28h-8v28zM280 354v-8q9 0 12 -20h4v4l-12 24h-4zM200 274l92 -8l4 4h4l12 -4l12 4v-8l-12 -16v-8l16 -20v-40l-108 -156h-4l-4 4 l-48 -32l-52 -4l-8 8h-4l-8 -8q-52 7 -52 16q9 92 20 92l4 -4l12 12h12q68 0 96 44q12 19 12 40v76l4 4v4zM264 190l8 -16q28 3 28 28v4l-16 4q-16 0 -16 -20h-4zM200 110v-12l8 -12q24 8 24 32l-4 4h-16z" />
<glyph unicode="k" horiz-adv-x="532" d="M72 862h92l8 -8v-68l-8 -8h-12l-48 48q0 8 44 8l4 4v4q-80 6 -80 16v4zM332 862h12v-4l-20 -20l-4 4h-4q8 18 16 20zM352 862h28q0 -22 -20 -32v4l-12 -4v-16q0 -19 -52 -84h-8q-7 0 -16 24l32 4v4l-24 8q26 68 72 68l4 4h4zM444 862h8l12 -12q-14 -28 -20 -28h-12 l-12 12q17 28 24 28zM48 834h12l-4 -20v-8q4 -12 24 -12l16 12l12 -16v-4l-4 -4v-4l16 -8h8v-8h-12v-4q40 0 40 -16l-68 -68h-40l-8 8v20q0 8 16 8v8q-16 0 -16 8v100zM436 806l-80 -172h-8l-28 40v12q47 56 96 120h20zM264 702l4 -4l4 4l4 -4v-4l-12 -16l-4 -4h-4l-16 16 q4 12 24 12zM168 678h4v-36l-8 -8h-20q0 -16 -8 -16h-24v4zM224 666h8q12 0 12 -16q-9 -23 -36 -48h-4l-4 16zM304 658h8l28 -56l-4 -4h-4q-40 32 -40 44q6 16 12 16zM276 618h4l16 -16v-4h-28v12zM48 486h16l16 -4l4 4q44 -4 44 -12l-80 -120h-8v80q0 6 48 16v8 q-48 4 -48 16v4zM192 470h8v8h40l4 -4l4 4q68 0 68 -28l8 -16q0 -8 -28 -8v-4q36 0 36 -8q-15 -30 -24 -32h-36l-12 8h-16l-20 -4v-4l12 -20h20l4 -4l4 4l28 -8q-44 -73 -52 -76q-10 0 -28 68q-8 0 -40 -76h-8l-4 4l-4 -4h-4l-4 4q-16 -6 -16 -12l4 -4l4 4h8l4 -4l4 4h8 l8 -8v-72q0 -11 -88 -144h-12v8h-4v-8l8 -8l-24 -32h-8v4l8 12v8q-12 0 -12 8v48h8v4l-8 12v104h8l16 -4l12 4v8h-8v4l-4 -4h-24v52q0 23 68 104h4l-4 4v4q67 108 84 108v-8zM176 418q4 -24 48 -24q39 0 64 44q0 18 -48 24q-16 -12 -36 -12zM372 310h4l88 -220l-20 -36 l-92 60l-4 -20l84 -56l16 4l4 -16h4q12 0 12 16l4 4h12l8 -24l-16 -24h-4l-20 20q0 -12 -16 -20h-84q-13 0 -72 172v8q82 127 92 132zM84 142v-8l16 -4l8 24l-4 4h-4zM92 110l8 -8h12v8h-8v4z" />
<glyph unicode="l" horiz-adv-x="436" d="M48 862h116l8 -8v-132l-8 -8h-48l-16 4l-24 -8v-4h88l8 -8v-64l-4 -48l4 -4l-4 -4l-20 4l-12 -4l-28 4h-60l-8 8v8l4 4v4l28 -4h36l20 4v4h-48l-8 8l4 4v4q0 12 -36 24v16l4 4l-4 4v124l4 16l-4 16l8 8h24v8h-24l-8 8zM76 826l4 -12h4l4 28v16q-8 0 -12 -32zM60 790v-8 l44 -12h12l12 12zM148 502h8q0 -12 12 -12l4 -4v-288l-4 -108l4 -4h4q8 0 24 48h188l8 -8v-120l-8 -8h-268l-12 8l-8 -8h-52l-8 8v216l8 12l-8 32v40l56 40l4 16q-4 24 -40 24l-16 -4l-4 4v80l4 4v4l4 -4q49 9 76 24l12 -4l8 8l4 -4v8zM104 434v-44l32 -12l4 4v12 q-32 0 -32 24v16h-4zM96 286v-36l8 8v28h-8z" />
<glyph unicode="m" horiz-adv-x="684" d="M48 862h108v-4l-4 -4v-4l20 -4l4 16h12q0 -22 15 -25q25 -7 26 -8q15 -11 15 -51l12 -68l-4 -4h-44l-16 -8v-4l48 -4h16q10 0 20 -76l-4 -4l-168 16l4 -4v-4q0 -8 -16 -8q0 -12 84 -12v-4l4 4h16l4 -4l36 8q48 0 48 -28l8 -44l-24 -8v-12l20 -16l8 8q20 -71 48 -244h4 q58 325 68 324q148 -10 148 -20h-64l-88 -4v-8l96 -4l16 4l8 -8q0 9 40 12l-4 4v8q76 0 76 -16v-544l-8 -8h-116l-8 8v236q12 0 12 12l20 4l4 -4h4l12 4v-12q-12 0 -12 -8q0 -11 36 -20l40 16l-8 12l20 8q0 5 -36 16q-10 24 -44 24q-22 0 -44 -12l-4 4v236h-4 q-41 -231 -52 -232q-48 -3 -48 -20q0 -6 40 -32v-4q0 -39 -20 -84l-32 4q-55 0 -76 -28v-4q0 -12 28 -12l8 -8l4 4h4l4 -4l4 4h24q24 0 24 -12q0 -32 -24 -32q-16 0 -16 -8q28 -9 28 -16q-3 -40 -12 -40h-96q-8 0 -80 320l12 24q-23 0 -40 96q10 0 20 28l-4 4l4 4 q-16 0 -16 8h4l-4 4v8h12q8 0 12 -24l4 4h4l4 -4h4q0 8 12 8v8q-17 12 -60 28l-108 40q0 8 -16 8l-4 4v4l-4 -4h-4l-12 12v140q0 8 32 12v16q-32 4 -32 12v28q0 6 28 20h24v8h-24l-4 4l-4 -4h-4l-16 4v20h28q0 7 -28 12v4zM636 862l8 -8v-164h-8q0 12 -20 12v4l4 20l-8 8v28 q-20 0 -20 12l4 12q-48 -36 -48 -76h-4l4 -4l-8 -48l4 -28l-8 -8v-8q16 0 28 -24q21 22 76 24l4 -4v-28l-8 -8l-112 8v12l-4 20h-12v-20l-8 -8q-88 7 -88 16l40 220l8 24h20v4q-20 0 -20 8l4 4h172zM576 826q0 -14 28 -20q24 8 24 16q-20 12 -40 12zM192 794v-4h16v4h-16z M180 774q0 -8 -12 -8q4 -16 24 -16q21 0 24 12q0 9 -36 12zM68 766v-4h84v8h-24zM100 718l40 -4l24 4v4l-28 4h-28zM84 698v-8h36v4l-28 4h-8zM84 670l48 -12v8l4 4l-4 4l-36 4h-4zM636 674h8v-48l-8 -8l-32 4v8l8 12l-4 4v4q28 10 28 24zM216 666v-4h44v4h-44zM476 638v-4 h16v4h-16zM588 530v-32l4 -4v-4l12 4v24zM412 518v-16h4v16h-4zM48 482l16 -4l12 4l4 -4v-4l-32 -32v-12q0 -28 52 -28v-4l68 20l4 -4v-48q0 -8 -24 -8l-4 -20q0 -10 28 -20v-128l-4 -4v-4l-36 12h-32l-20 -12q6 -28 68 -28l24 8v-156l-8 -8h-116l-8 8v468zM404 462v-4h4 l4 16q-8 0 -8 -12zM268 470l-8 -12l4 -4l-4 -4l4 -4h28l8 8l-16 16l-12 -4zM456 462v-16h4v16h-4zM608 370v-4h24v4l-12 4zM252 326v-4h20v8zM576 158l-12 -20l12 -8h4l4 24l-4 4h-4zM592 74q5 -44 28 -44q16 44 16 64l-12 48h-8q-20 -8 -24 -68z" />
<glyph unicode="n" horiz-adv-x="528" d="M48 864h136q6 0 32 -88l-172 -32l-4 4v108zM364 864h28l52 -52v-4l-84 -12l-4 4v24h12v4l-12 16v12zM412 864h68l8 -8v-12h-8v-8h8v-12l-12 -12h-16l-48 48v4zM480 808l8 -8v-12h-4l-16 16l4 4h8zM456 804l32 -36v-220q0 -10 -56 -16q0 -8 -24 -12v-8q0 -10 44 -16l32 4 l4 -4v-24q0 -12 -16 -12v-8q16 -2 16 -12v-88l-12 -12q-117 84 -120 92v76l8 12l-8 12v56l8 8h4l4 -4l12 4v4q-28 0 -28 8v176q0 10 100 20zM216 768q40 -119 40 -140l-8 -24h4l4 4h4l20 -52l-4 -4l8 -8q0 -8 -12 -8l-4 4l-20 -4h-8l-4 4h-4l-8 -8l-24 4h-4v-4q12 0 12 -16 q18 -13 92 -24l8 -32q-43 -9 -68 -36h-8q-32 0 -40 64q-6 1 -16 48h-4v-104q0 -15 -48 -20l-16 4l-12 -4l-4 4q0 -12 -16 -12q0 -14 44 -20l48 8l4 -4v-176q0 -21 -12 -24h-8l-8 8v4l-4 -4h-24v-8l32 -4q-28 -24 -28 -52v-8q9 -24 52 -32v-20q-2 -8 -20 -16v-4q0 -8 16 -8 l4 -4v-32l-8 -8h-116l-8 8v48q0 7 24 16v4q-24 4 -24 12v644q0 10 176 36zM212 636v-4l20 -4l4 4v4l-12 4zM392 544v-8l20 -4l20 4v8h-8v4l-4 -4h-4l-12 4zM52 492v-4h12q40 8 40 20h-8q-44 -6 -44 -16zM448 440v-4h36l-8 8zM316 424q12 -18 32 -100q-28 -5 -28 -16v-4 l24 -4l28 8q0 8 -12 8l-4 4v68l4 4v4l4 -4h4l28 4l76 -60l-64 -56l-8 8q-4 -20 -36 -48h-12l-4 4q-48 -9 -48 -28l4 -4l-4 -4q-30 0 -44 80l-32 96q52 9 52 20l-8 8v4zM360 420l20 -16l-4 -4h-4q-9 0 -12 20zM240 372q0 -8 12 -8l12 4v4h-24zM56 328l-4 -4v-4h20v4zM256 324 l8 -8h20l20 4v4l-28 4zM108 312q0 -8 20 -8v-4l4 4h24v8l-20 4zM336 200v-4q-9 -28 -32 -52q-16 25 -16 52l4 -4zM484 132h4v-80q-16 0 -16 -8v-4l4 4h12v-36l-8 -8h-8q-43 0 -68 28l-12 -12l4 -12l-4 -4h-32v4zM464 28v-4l16 -8v4l-12 8h-4z" />
<glyph unicode="o" horiz-adv-x="492" d="M232 876l8 -8l-4 -4h-8l-8 8l4 4h8zM256 876h16v-8h-24zM196 868l4 -4v-4l-36 -8v8zM304 868q148 -63 148 -184v-8q0 -8 -36 -8v-4q36 0 36 -8v-16q0 -12 -32 -16l4 -4v-8h-8v-4q33 -3 36 -16l-60 -16h-28v-8q16 -1 16 -16l40 -8l28 4l4 -4v-28q0 -9 -60 -20v12l4 4v4 q-8 0 -80 80v24q0 8 32 12q0 10 32 16l-4 4v4q0 11 20 12v4q-25 0 -32 24l-4 -4h-4l-28 8v8l20 -4l-4 12l16 20l-4 12h4l12 -4h4v4q-20 2 -20 44q-12 7 -12 28q-11 0 -24 24q-12 0 -20 12h-4v4zM280 864v-8h-28l-4 -60v-44l-8 -8h-12l-8 8l4 32l-4 16l4 36v16q0 12 56 12z M196 852l4 -4v-116l-32 -40l-12 4q-16 -6 -16 -12v-8h4l28 4v-36l-4 -4l4 -4v-52l-4 -4l4 -4v-20l-8 -8q-28 21 -44 48q-12 0 -24 20v4l20 4l4 -4l8 24l-28 8h-40l-20 20q21 180 156 180zM164 824v-8h20v4zM76 624l20 -24v-4h-20v-4q43 0 80 -52l16 -16v-20l-4 -4l4 -4v-4 l-12 -12v4l-56 -24v4l-56 -32h-8v8q12 14 12 60l-4 12l4 4l-12 56v16q0 8 12 8l4 4v4l-4 16zM328 592v-4h16v4h-16zM316 564h8q24 -36 24 -48h-20l-4 -4h-4l-4 4v48zM436 496h8l8 -8v-8l-8 -8l-8 12v12zM424 464l24 -8v-8l-28 -28l-16 16v12q2 8 20 16zM448 384h4v-20l-8 -8 l-8 12zM416 348h4v-20q13 0 28 12h4v-76h-4l-56 56v4q0 8 20 8l-4 4v4zM372 320q10 0 56 -52v-4h-8l-12 8h-12q-8 -8 -48 -12v-8l56 -8h48v-64q0 -73 -52 -112q0 -12 -8 -12t-12 24h-4q0 -20 -8 -20t-8 12l-12 -8l-20 4v-8q0 -22 20 -28l8 28q16 -6 16 -12q-35 -48 -72 -48 l-172 176v4l64 -44l4 4h4q21 -12 40 -12h4q72 0 72 92v20q8 0 8 20q28 12 28 20h8l-4 4v4q0 17 16 32zM108 284q2 -20 32 -20v-8q12 0 12 -8l4 4h8l8 -8v-16l-8 -8h-52l-28 -4l-24 28zM48 236l28 -28l-8 -8v-4h20l8 -8l-24 -8q4 -16 24 -16h16v-8l-36 -28l4 -12l-4 -4h-12v4 l4 4l-8 56h-8q0 -12 -8 -12h-4v64zM156 196q16 0 16 -20l20 -28v-4h-4l-60 44v4h8l4 -4zM136 144h4l144 -144v-8h-44q-95 0 -148 76q0 13 -24 32q35 12 68 44zM268 124v-20q0 -24 40 -52h8l4 20q0 23 -32 48l-4 -4h-4z" />
<glyph unicode="p" horiz-adv-x="488" d="M48 864h16q8 0 20 -52h-4l-40 40v4zM232 864h28q112 -14 112 -44l-4 -4v-8h4v8h4q8 0 8 -16l12 8l4 -12l-4 -12h4l12 4q24 -30 24 -48l-12 -8l-28 4h-4l-20 -4v-8q0 -22 32 -40l40 16l4 -4v-16l-104 -12v4q16 21 16 36v28l4 4l-4 4v8l4 4v4h-4l-16 -4q-5 20 -12 20 q-20 -36 -36 -36v-12l4 -4v-4l-4 -4l-32 12h-84l-12 -8l-48 52v4h4l12 -12l4 4h4l4 -4h4l12 4l20 -4q9 24 16 24h8l4 -4h4v8l-4 20l12 4l4 -4h8v4l-16 4v8l4 4v4q-12 0 -12 8v4zM40 804h4q92 -83 92 -100q0 -12 24 -12v-8q-9 -17 -32 -24l-20 4q-41 0 -64 -8l-4 4v4l20 12 h64l8 16q0 9 -36 20l-52 -12l-4 12l4 4l-4 20v68zM444 644v-4l-24 -28h-12l4 4v4l-8 8v4zM168 624l8 -24l-8 -8h-4l-4 4l-4 -4h-4l-16 4l-24 -4l-4 4v4q9 9 60 24zM328 620h36v-8h-8l-4 4l-4 -4h-20v8zM52 600h4l8 -8v-4l-12 -12h-4l-8 8v4zM88 576h4l-16 -72h-12v-4 q12 0 20 -16v-4l-4 -4l12 -32v-4h-4q-48 0 -48 12v76zM116 572l24 -4l32 4l4 -4v-20q0 -8 -20 -8v-4q16 0 16 -12h4l-4 -20l4 -28q-44 -4 -44 -12v-4l28 -4h12l-8 -40l4 -12q0 -17 -40 -20l-12 4l-12 -4l-4 4v4l56 12v4h-16l-4 40h-4v-20l-28 4v4q12 18 12 36h4l-4 4v4l4 4 v4l-4 20l4 12l-12 48l4 4h4zM340 560l20 -4h12v-4l-16 -16l-20 20zM372 524l12 -28q0 -34 -92 -40l-8 -12l8 -8l4 4h4l56 -12l4 -4h12l12 8h32v-4l-80 -84l-20 4l-16 -4q-18 13 -36 84h-4q0 -24 -8 -24l4 -4v-12l-8 -8l-8 8l4 4l-4 20v32l-4 4v4l4 4h24v-8h4q0 10 32 28 q0 8 44 8v4l-28 8l4 24h8l32 -28q3 32 12 32zM444 508h4q0 -48 -16 -48l-24 8q0 11 36 40zM144 500v-4h16v4h-16zM296 400v-4l20 -4l16 4v4h-36zM48 388h40v-4q0 -8 -16 -8v-8l24 -20l12 4q0 -10 60 -32l8 -40h-4l4 -4v-40l-4 -4l4 -12l-4 -4v-4l4 -4v-4q0 -32 -48 -60 l-28 12l-4 -4h-12l-12 8q0 -12 -16 -12l8 -16l-4 -4h-4l-16 20v68q32 23 32 44l-20 16l-4 -4h-4l-4 4v104zM44 312q0 -8 24 -8v-4l4 4h24v8l-20 4zM124 308l8 -8h16l8 8v4l-20 4h-4zM96 240q0 -8 12 -8h8v4zM68 196v-4h20v16q-20 -5 -20 -12zM48 192v-4l4 -20h4v16zM40 124 q15 0 40 -32l-36 -40q12 0 20 -48l-4 -4h-8l-12 12v112zM104 124h4v-4l-20 -20l-8 8v4z" />
<glyph unicode="q" horiz-adv-x="516" d="M184 864v-4q-61 -68 -72 -68v-4l-20 4h-4l12 -16l-44 -44h-4q0 50 100 120zM320 864l20 -8v-8l-24 -24h-4v4zM428 764q28 -37 28 -92l-8 -8l8 -8v-4l-4 -4v-4l-64 12l8 44h-4l-12 -8l-8 8v8zM180 740h12l8 -8l-16 -16h-8l-12 12zM400 688v-4h20v4h-20zM132 668h8l4 -4 l4 4h8v-4l-48 -48h-44v8q16 32 68 32v12zM452 640l4 -4v-16q0 -11 -48 -20l-16 4l-12 -4l-4 4l-12 -16q0 -19 44 -20q21 -1 44 12l4 -4v-4l-20 -16l4 -16h-24q-85 0 -96 -12l-4 4v12l4 4l-4 12l4 4v4l-4 12l4 24l-4 4v4q0 20 68 20l16 -16h16q13 24 36 24zM72 612h20v-8h-20 v8zM80 596l4 -4v-4l-4 -4h-8l-8 8zM56 592h4l-8 -8h-4zM48 572l4 -4v-8l-8 -8l-4 4v8zM352 564v-4h16v4h-16zM328 560l-4 -4v-4l20 -4l4 4v4zM324 508h4v-12h-12v4zM168 504l4 -4v-64l-8 -12l-20 4h-16l8 -8l-4 -4v-12l20 -20q0 -11 -84 -16v4l-24 -8l-4 4v8l96 96l16 -4 l12 4l-4 28l4 4h4zM324 476l40 -8v-4q0 -9 -44 -12v16l4 4v4zM436 456q16 -6 16 -12q0 -8 -36 -12l-4 4v4q0 8 24 16zM116 436h12v8h-4zM348 440h4l4 -4l4 4h8l8 -8l-40 -44h4l32 32h4v-8q-4 -14 -44 -36q0 -20 -12 -20l-4 4v4l8 8l-4 4v8h8l-8 12v4q12 0 12 8q-16 0 -16 8 t24 8zM104 420v-16h4v16h-4zM376 404l36 -40q36 5 36 16h8v-112l-4 -4v-4l-60 4h-16q0 12 -16 28l-4 -4h-4l-4 4h-4q0 -8 -12 -8l-4 -12q16 -2 16 -12l-4 -12l4 -4h4l12 4l44 -4h24v-8h-4l-4 4h-4l-4 -4v-8l12 -4l16 8l-4 12h4l12 4l4 -4v-24q0 -8 -16 -8v-4q16 0 16 -12 q0 -64 -40 -64l-40 -20q-5 20 -12 20v-4l4 -20l-48 -20l-28 32l20 28q-12 0 -12 8q12 0 20 56l-4 4v28l4 4l-4 4v12l4 4l-4 4v16q0 8 12 8l-12 16v32l16 20l20 -4h4l4 12l-4 16zM172 348v-32q-20 -3 -20 -12v-4q20 0 20 -8v-8h-4l-12 8q-36 -10 -36 -24h-20q-7 0 -20 40 q-24 8 -24 16l12 8h40q29 0 64 16zM172 276v-80l4 -28l-12 -4v-4q44 -10 44 -32l4 4h8q40 -12 40 -24l-4 -20l24 -8v-8q-100 -40 -100 -52v-8h32l8 -8l-4 -4l4 -4l-4 -4q-58 6 -128 72q-40 63 -40 84h4l12 -4v4q0 28 24 28l12 -4v4l8 8v4l-8 12v4l4 4l-4 4v4q0 8 12 8l-4 4 v4q0 15 36 20q0 24 28 24zM136 228v-28l8 -8l4 32l-4 12zM344 228l-12 -32l20 -4h20v4l-4 12h4l44 8l-12 12h-4q-13 0 -28 -12h-4l-16 12h-8zM128 52l36 -20h8l12 28q-6 40 -28 40q-13 0 -28 -48zM432 92q12 -12 40 -12l4 -4v-76h-20l-4 -4l-12 12h-4q-24 0 -24 -32l-16 -8 q-8 0 -60 44q-40 -20 -68 -20l-4 4v4q0 36 40 36l64 28l4 -24h8l8 8v8q-12 0 -12 8q0 11 56 28zM448 40l-8 -28l16 -8q12 18 12 36h-20z" />
<glyph unicode="r" horiz-adv-x="516" d="M48 862h8l4 -4l4 4h132l4 -28h4q0 28 8 28h60v-8q-26 0 -28 -12v-24q8 -16 20 -16v-8l-36 -36h-4q-61 28 -76 28h-24q-9 -36 -20 -36l-4 28h-4q0 -36 -8 -36l-4 4l4 4v4q0 33 -48 36v64zM56 718h4l8 -8l-12 -12l-8 8v4zM40 702h8v-12h-8v12zM444 566l8 -8l-8 -8l8 -8v-4 q0 -60 -28 -60l-4 -4q0 -12 12 -12v-8q-60 5 -60 20q32 0 32 12l-4 4h-36q0 -16 -12 -16q-8 0 -8 -12h-16l-20 -4l-8 12v4q0 8 40 12v4h-20v4l24 16l20 -4h12q0 12 28 12l8 12q-12 0 -12 8l40 24zM40 470h4l16 -12l12 12h4v-4l-8 -20h-8v8h-4l-12 -12q24 0 24 -20 q20 0 20 -24l4 4h8l28 -24h4v8h8v-16l-8 -12l8 -8l-4 -4v-4l8 -8v-8l-4 -4v-4q6 0 20 -52l4 -4q0 -12 8 -12v-8h-4l4 -40v-32l-8 -8l-48 12q-48 -7 -48 -32q50 -20 76 -20l24 8l4 -4v-76h-4l-40 8l-44 -24v-8h-4q3 -11 20 -20h24l32 8l8 -12l-4 -4h-4v4l-4 -4h-4l-4 4l-4 -4 h-4l-16 4l-4 -4h-4l-20 4l-16 -4v4l-4 -4h-8l-4 4l-4 -4h-4l-12 4v468zM424 434v-4q-6 -21 -60 -68q3 -16 32 -40l4 -36l-40 -8q0 -8 12 -8l4 -4v-4l-8 -8l8 -16l16 12h-4l-12 -4v4l8 8h8q32 0 32 -48l-108 -132l-20 76l48 28l-24 24l8 24v8q0 6 -16 12q-24 -7 -24 -36h-8 l-16 72q40 4 40 12h-32l-4 -4h-4l-4 4v12h4l4 -4h4q0 12 28 28h4q8 0 8 -20q10 -12 24 -12l24 32q-12 40 -20 40h-8l-12 -8l-4 4v16l16 32l-8 8l4 4h4l12 -4zM64 374v-12h20l4 -4l28 8v4l-12 12h-32zM52 342h36v8h-28zM72 238v-4l12 -4h8v4l-16 4h-4zM92 218v-20l16 4v12 l-4 4v4zM116 194l8 -8h20v16h-20zM352 82h16q8 0 8 -12l4 4h8v-8l20 4h8l4 -4l20 8v-4l4 4h8q12 0 24 -72l-12 -4l-32 12l-20 -12h-12l-4 4l-4 -4h-8l-4 4l-4 -4h-8l-4 4l-4 -4h-8l-4 4l-4 -4h-4q-8 0 -12 24l16 16l-16 16q7 18 24 28z" />
<glyph unicode="s" horiz-adv-x="512" d="M256 874q145 0 200 -136v-12l-4 -4l-48 4h-64q-8 0 -8 12l-20 -8q-21 24 -52 24q-54 0 -68 -76q-12 0 -12 -12l-20 -4l-4 4h-4l-4 -4h-4l-16 8q-28 -7 -28 -16l8 -8l-8 -12l12 -20l-52 -12v4l-4 24v48q0 134 136 188zM432 710h24l8 -8l-8 -8h-24v16zM336 706h16v-8 l-12 -4l-4 4v8zM436 686h24l8 -8q0 -12 -128 -24v4l-4 12l4 4h48zM184 622h8l8 -8l-4 -4h-20v4zM208 578h4q16 -8 16 -24h-12l-8 8v4h8zM88 538l68 -12l4 4h28l4 -4l4 4h4q50 -49 132 -72q0 -10 16 -12q124 -128 124 -224v-16q0 -156 -136 -208l-60 -8h-8l-12 12l4 12 q-14 20 -24 20q-28 -10 -28 -36h-8q-61 0 -128 108l-4 16q50 48 80 48q48 -16 64 -36l-4 -28v-28l8 -8q16 23 20 44h32q48 10 48 28q20 14 20 52l4 4q0 8 12 8v8q-17 0 -24 52l-92 108q-4 32 -16 32h-4l-12 -8l-44 44l20 -4h8v44l-12 12h-12q-12 0 -12 -44q-15 8 -48 56l4 4 v4l-20 20v4zM224 534h20l40 -36h-8l-52 32v4zM208 454v-12h8l-4 -20h4q52 0 52 -8q52 8 52 16v4l-32 4v8h12v8h-4q-20 0 -20 -16h-24v4l4 4q0 12 -16 12v4zM336 418v-4h16v4h-16zM352 410v-4l8 -8h8v16zM300 410l-8 -24q3 -12 32 -12q0 12 16 12l4 4v4zM356 354v-4 q32 0 32 -8v-32q0 -8 -28 -12l-8 -12q4 -16 24 -16h4q18 16 28 16q0 12 -12 12l-4 4v40l8 12h-44zM152 246l4 -4v-12q-20 -17 -32 -44l-12 -12q-72 0 -72 60l4 4h36l20 4v-4l4 4h40l4 4h4zM412 210v-4h32v4h-32zM372 114l8 -8h4l-8 8h-4z" />
<glyph unicode="t" horiz-adv-x="488" d="M48 862h352q8 0 8 -20l24 -16q16 0 16 -8v-80l-8 -8h-24l-4 4l-4 -4h-100v-52l-4 -4l4 -4v-4l-8 -12l8 -12h-4l4 -4v-8h-24l-100 4l-4 -4l-4 4v48l4 16l-4 16v16h-128l-8 8v116zM72 826v-4l12 -16q32 14 32 40l-4 4h-8q-22 0 -32 -24zM296 774v-4l12 -12h32l4 20l-32 8 q-16 -6 -16 -12zM68 770l-4 -16h20v4l-4 12h-12zM80 746v-8h16v8h-16zM236 674v-4h48l-8 8zM184 626l116 -4l4 -4h4l-4 -4l4 -20v-84q-10 -24 -28 -28l-4 4h-4l-24 -8v4q7 56 24 56l-8 8q8 40 36 64h-8l-4 4l-4 -4l-4 -16h-20v12l-4 -4h-4l4 -4v-8h-16q-64 0 -64 12v16z M248 578l4 -4q-5 -32 -16 -32h-60v20l12 12h32zM184 534l12 -12h8l16 12h12l4 -4h4l-56 -192h-8v188zM248 470v-8l-12 -40h-8q10 48 20 48zM224 386l8 -8l-4 -20q16 0 16 -20q12 0 12 -32h4q0 12 8 12l8 -8l-4 -20v-8h4q0 24 28 32h4v-308l-8 -8h-8l-4 4l-4 -4h-8l-4 4 l-4 -4h-20l-4 4l-4 -4h-8l-4 4l-4 -4h-16l-4 4l-4 -4h-8l-4 4h-4l-4 -4l-4 4v120l8 12l-8 8v92q20 17 20 32v8h-8v8q22 104 36 104zM260 214v-8l12 8l4 -4v-4l-4 -4h8l8 8l-4 16h-12z" />
<glyph unicode="u" horiz-adv-x="492" d="M48 862h112v-4l-112 -116l16 -4l100 100h4v-208q0 -22 -20 -32h-12q-15 12 -28 12q0 -11 -20 -20v-4l4 -4v-4l-4 -4h-12l-16 12h-4l16 -20v-4q0 -8 -16 -8l4 -4v-8q0 -8 -12 -8v-4q12 0 12 -8l-12 -4l4 -20v-4l-4 -4l4 -4v-8l-4 -4v-4l16 -12l-8 -12q8 0 8 -16 q26 0 32 -36q14 0 32 -24q9 0 40 -40v-8l-8 -8l-8 8q-28 -20 -28 -36h-12q-19 16 -32 16l-12 -4l-8 8l-12 -20h-8v384q0 8 16 8v4q-16 0 -16 8v20q24 0 24 8v16h-4l-16 -12h-4v76l12 12l-12 20v24zM320 862h124l8 -8l-20 -20l20 8v-324q-20 -16 -40 -16q-30 0 -48 36 q-32 3 -32 8l-4 -4h-16v4l4 4l-4 4v12l4 4l-4 4v16q0 23 16 36v12h-16v20l4 4l-4 4v4l4 4v4l-4 24v8l4 4l-4 4v136zM340 854l-16 -20q20 -27 20 -40v-16l-8 -36l84 84q-36 0 -80 28zM360 674l16 -16q32 0 36 32l-12 32zM336 506v-8l-4 -4l4 -4v-8q0 -12 -16 -12v-12l36 -8 l16 8l24 -8h16l32 8l8 -8v-76q0 -9 -60 -16l-4 -4l-20 -8l-16 -16v-4q72 -18 72 -24l-36 -36v-4q15 0 20 -16v-8l-236 -236q-128 67 -128 160l-4 4v4h4l-4 4v8q0 52 8 72l52 -24v-4l-8 -12l8 -8l-4 -4h12l-4 4v8h4l4 -4h4v8l-4 4v4l4 4h4l16 -8l4 4h20l8 -8v-4l-4 -4l8 -32 l-12 -4v-4q20 -1 20 -12v-4h-28v-4q26 0 76 -24h16q1 -36 12 -36q8 33 52 72q3 32 8 32l-4 4v68l4 24l-4 20h4l-4 4v180q4 12 24 12zM336 350l-4 -4v-4l12 -4l12 4v4zM368 298v-4h16v4h-16zM320 222v-16h4q60 54 60 64l-4 4q-23 -16 -40 -16q0 -13 -20 -36zM164 274l4 -4 v-24h-4l-12 12zM448 246h4v-64q0 -12 -20 -12v-4q16 0 16 -16q0 -55 -92 -128q-50 -32 -112 -32l-40 4v4l112 112q0 -12 24 -12v-20q64 32 64 72q12 22 12 44v16l-80 -76h-12v4l88 88l8 -8zM328 130v-4l-8 -8l-4 4v4l4 4h8zM76 122v-4h24v4h-24zM136 106v-8h4l8 8v4z" />
<glyph unicode="v" horiz-adv-x="568" d="M172 862l8 -8v-8l-4 -4v-4q15 0 32 -156l4 -16q-48 -13 -48 -24v-4l20 -8l20 4v-4l4 4h4l8 -8v-8q-40 -48 -56 -48q-36 -14 -36 -32q0 -23 -20 -32q-8 15 -28 140q11 0 48 32v4q0 28 -60 36l-8 44l4 28q-13 0 -24 68l4 4h128zM404 862h84v-8h-20l-4 4h-4l-52 -52l-20 20 q6 36 16 36zM500 862h12v-8h-12v8zM148 838l-8 -8l-12 4l-40 -44l12 -4l-4 -4v-8l32 -4l40 60v4zM524 834h4q-52 -308 -60 -316h-4l4 -12q0 -44 -12 -44l4 -4v-12l-100 12q0 -9 28 -12v-4q-19 -28 -40 -28v-16l32 16l-4 4v4l20 20h4l8 -8q-16 0 -16 -8h4l48 8h4l4 -4h4 q-6 -68 -32 -68l-20 -8v-16h24l8 -8v-12l-8 -8l-4 4v4l-12 -4v-8q0 -7 20 -12l-56 -292l-4 -4h-20l-4 4l-4 -4h-8l-4 4l-4 -4h-28l-4 4l-4 -4h-8l-4 4l-4 -4h-24l-4 4l-4 -4h-8l-4 4l-4 -4h-8l-8 8l20 20h16l4 -4l12 4q0 12 -24 24q-16 -2 -16 -28h-20l-4 -4h-4 q-12 27 -20 104l16 24v8q-13 0 -20 48l4 16v8l-16 -12l-8 40l4 4q-12 0 -12 40q-6 0 -8 52h4l64 -12l16 4q0 -14 12 -16t12 -16l12 8h4l8 -8l-4 -4v-4q12 0 20 -92q8 0 24 112l4 4h48v4h-48l-4 4l12 32q18 -8 52 -8h32v4q-16 0 -16 12h4l4 -4h8v4l-16 4l-8 -8h-28l-28 -4v4 l12 16h-4l-12 -12h-4q25 196 48 196l4 4l64 -8h8q0 16 -64 16h-16l-8 8q9 104 32 104l24 24l4 -4h4q0 12 80 92zM144 762v-8l8 -8l4 4v12h-12zM104 730v-4h8v-4q40 4 40 12v8h-24q-24 0 -24 -12zM420 662v-8h32l8 8v4h-20zM232 526l20 -96l-28 -8v-16q7 -16 16 -16l-36 -40 l-64 8l-4 -4q-10 10 -16 80q89 92 108 92h4zM440 494l-20 -24h4l20 24h-4zM252 306l-12 -16h4l12 16h-4zM372 294v-4l28 -4l16 4v4l-16 4l-4 -4h-8l-4 4zM320 270l4 -4h16v4l-8 8h-4zM216 270l-28 -32h4l28 32h-4zM244 258v-8h20v4l-4 4v4zM296 222l20 -4h8l20 4v4l-20 4 h-20zM228 194l4 -4v-4l12 4v16z" />
<glyph unicode="w" horiz-adv-x="748" d="M44 864h128q10 0 12 -48l-8 -8h12v-16q-20 -28 -32 -28v-28l20 -4h8l4 4h4l16 -68l-20 -12h-4q-15 0 -32 20l-16 4q-29 -5 -44 -20l4 -4v-4l-12 -12h-8l-4 20v12l8 12v4l-8 12l40 44h-4l-40 -40h-4v4q18 64 28 64l-20 60h-8q-8 0 -8 -16l-4 -4h-4l-8 40zM308 864h128 q13 0 32 -180l-20 -8v-4h12l4 4h4q8 -13 16 -92l-84 -36v-4h8q39 8 76 28l20 -120l-4 -12q8 0 8 -24h4q0 28 16 28v8l-12 4q0 49 24 64l-16 4q11 96 24 96l4 -4h4q24 13 24 32v4q-36 4 -36 12q11 112 24 112l20 4l12 -4l24 8q0 23 -44 28h-4l-4 -4h-4l-4 4q3 52 16 52h128 v-4q0 -92 -32 -108l-16 -8v-4q12 0 12 -12q16 0 16 -8q-28 -196 -36 -204l-40 4h-28q7 -10 68 -28v-4l-76 -32v4l-12 -4v-12q76 -16 76 -24q0 -39 -12 -56l-64 8l-60 -8h-40v4l4 4v4q-24 0 -36 20q-52 29 -52 44v24h-4q0 -29 -12 -32l4 -4v-16q0 -28 -16 -28h-8v-4 q0 -8 12 -8l4 -4v-4l-4 -4h-56l-4 4l-4 -4h-164q-8 0 -28 136l20 4v4q-24 0 -24 16l-4 20q32 -3 32 -8q28 7 28 16v12l-8 8h-32l-20 -16h-4v4l-8 56l4 4q75 -16 120 -16v8l-28 4v8l32 8h4l28 -200l-4 -4l-40 12v-4q43 -40 84 -40h8q-4 11 -44 32q8 76 16 76l128 -28l4 4h4 l32 -4v12q-85 24 -168 24h-4q10 108 28 108q34 -8 88 -8h12l4 -4l24 4v4l-8 8h-8l-92 20v4l8 12q-2 9 -32 20v4q8 70 25 81q37 15 75 31v16l-40 8l-40 -8l-4 4zM612 752l-16 -20h4l28 8v8zM676 744h16v-4l-4 -4v-4l-12 4v8zM392 652v-4h16v4h-16zM80 632h36v-8h-16l-20 4v4z M608 564h20v8h-12zM448 524v-8l12 -12q24 2 24 24h-8zM528 488l4 -4h8q0 8 12 8v4h-16zM396 408q0 -8 36 -32h-4q-40 0 -40 12v12zM288 384v-12h8v4zM624 348l4 -4v-4l-12 -72l-28 4v48l-8 -8v-32h-4q-56 48 -88 48h-8l-8 -8q0 -27 108 -84v-4l28 20h8q-27 -180 -36 -184 h-12q0 -8 12 -8l4 -4v-4q0 -52 -28 -52h-12l-4 4l-4 -4h-20l-4 4l-4 -4h-20q-8 0 -8 12h-4q0 -12 -8 -12h-12q-1 0 -12 77q-14 110 -40 227l-8 36l4 4h76l24 -4l20 4l4 -4l4 4h40q0 -16 16 -16zM356 344q-18 -180 -28 -180l4 -4l-8 -48l-48 8q0 -6 16 -12l-8 -44l4 -4 q0 -35 -44 -60h-56q-9 0 -16 72l24 4v8q0 7 -28 12l-4 20q0 8 12 8v4q-24 0 -32 116l-4 4v4h4l12 -12l28 20h4l16 -12l16 8l-4 20v24h-8q0 -18 -16 -28l-8 20q-25 -2 -40 -16q-12 0 -16 64l4 4h224zM208 320v-4l76 -16l4 4v8l-68 12zM428 324v-100h4v44h4l-4 4v52h-4z M456 284q0 -8 -16 -8v-12l8 -8h20l8 8v4zM244 240v-4l44 -8l4 4v4l-4 4h-44zM260 172l-8 -24q4 -28 12 -28l12 16v8q0 22 -16 28zM504 108v-4q36 3 36 12v4h-24zM316 108l8 -8l-8 -60h-8l-4 16l4 4h4l-8 44l4 4h8zM508 64v-32h4v32h-4zM280 24h8v-20l-20 -4l-8 8zM308 24h4 v-16h-8v4z" />
<glyph unicode="x" horiz-adv-x="560" d="M96 864l-8 -32l4 -20q9 0 16 36l-4 16h76q14 0 52 -136h-132q-16 8 -16 24l16 12l8 -8q25 0 60 28h-8q-20 0 -76 -20q-11 11 -44 96l4 4h52zM380 864h132l8 -8q-38 -100 -48 -104q-20 0 -20 -24h-116l-8 8q41 117 52 128zM228 716v-4q-1 -8 -76 -44v-4h8q22 0 84 32 q16 -26 28 -72q-28 -13 -28 -36v-16h4l4 4h4l4 -16h4l40 40l-12 28q26 88 36 88h32v-8q-16 0 -16 -8v-4l4 4h4l4 -4h4q0 6 16 12v8h28v-8q-12 0 -12 -8h8q24 0 24 16h36v-4q0 -25 -32 -60l4 -16q-15 -44 -24 -44l-8 8v-40q0 -20 -92 -112l-72 -72h-4l4 24v12h-4 q-3 -56 -16 -56h-4l-24 8v-8h-8l28 76l-28 80l80 24v16h-4l-76 -24h-4q-7 0 -76 184l4 4h124zM308 496v-4l24 -4q24 18 24 36v4h-20q-9 0 -20 -32h-8zM244 484v-16h4v16h-4zM236 436v-16h4v16h-4zM368 392v-4q0 -11 -20 -20v4zM372 372h8l16 -60v-4h-8v8h-4q0 -26 -72 -100 v-4h-4q-11 0 -20 52l40 48h12v-28h4v40q8 16 20 16v8l-12 -8l-8 8zM332 336h4v-4l-12 -12h-4v4zM400 288h12l40 -104q-14 -12 -60 -12l-4 4l4 4v88zM380 252v-20l4 -60q-15 -9 -60 -12l-8 24v4l44 48h4v-32h4v44l4 4h8zM252 200v-4q-5 -28 -16 -28h-4v4q14 28 20 28z M236 156v-4q0 -35 -64 -92v8q41 65 64 88zM344 140q136 0 136 -24l40 -112l-4 -4h-28l-4 4l-4 -4h-32l-4 4l-4 -4h-28l-4 4l-4 -4h-16q-13 0 -56 136zM376 68v-4l12 -4l12 4v4h-24zM196 48v-4q-10 -44 -20 -44h-12l-8 8z" />
<glyph unicode="y" horiz-adv-x="548" d="M64 864h40v-4l-4 -4v-4h4l28 4v-4l-72 -72q-9 0 -20 52q27 11 32 24h-8v8zM368 864h132l4 -4h4q-20 -76 -56 -76l-72 -36q-25 12 -44 36l8 8h4l4 -12q44 13 44 24v12q0 8 -36 12l-8 -20h-8q15 56 24 56zM188 796h8l8 -32l-68 -20zM332 760l80 -60v-44l-8 -8l-12 12 l-32 -8v4q-24 -5 -24 -12v-4q0 -17 40 -28h4q21 0 24 12l-4 4l4 4h4l4 -4v-20q0 -34 -80 -248l4 -4v-4l-8 -8h-24q0 50 -72 68h-4q-32 0 -32 -16h-8l-68 208l20 4v8l-24 4l4 4v28h-4l-12 -4q-16 32 -16 52q23 0 120 44l48 -144l-8 -8v-4q12 0 12 -40q17 -48 24 -48l16 -8 l24 36l-4 4v4l12 40l-8 24h4l-24 72q0 21 28 88zM408 744l4 -4v-4l-8 -8l-4 4v4zM216 508v-4h16v8h-4zM208 340l48 -8l60 8h16l4 -28v-52l-4 -4l4 -4v-12l-4 -4l4 -4v-4l-4 -4l4 -4v-32l-4 -16l4 -16l-4 -16l4 -4l-4 -12l4 -64v-24l-4 -4l4 -4v-20l-8 -8q-16 18 -20 72l4 12 h-4q-12 0 -12 12q-24 -11 -24 -44l12 -48l-4 -4h-4v4l-4 -4h-40l-4 4l-4 -4h-16l-8 8v36l4 4l-4 4v280z" />
<glyph unicode="z" horiz-adv-x="464" d="M84 864q8 0 8 -24h4q0 24 8 24h60q29 -23 76 -104h8l-12 20q26 10 28 20l-4 4v4l-20 -8l-12 4v-8q-48 51 -48 68h236l8 -8v-116l-60 -156l-36 8l-8 -20h4l28 -16q-55 -152 -64 -152q-93 64 -104 80v8l20 -4h4v4q0 8 -16 8q0 18 88 232h-136q0 8 -20 16v-16h-76l-8 8v8h4 l-4 28v60l4 20l-4 4l4 4h40zM176 464l52 -40v-4h-20l-12 -8q0 -19 80 -44v-8q-6 -16 -12 -16h-20q-29 0 -32 12l-4 -4l-20 4h-36l-8 8l-4 -4h-8zM244 284l-60 -152l44 -32v4q-18 20 -28 20v8h36q7 0 12 -28l32 -8l48 16l-4 12h4q13 -24 96 -56v-60l-8 -8h-24l-4 4l-4 -4h-52 l-4 4l-4 -4h-48l-4 4l-4 -4h-44l-4 4l-4 -4h-4l-32 8l-12 -4l-124 132q0 16 32 52l-4 24q19 52 28 52l12 4l4 -4h4l16 4h4l8 -8l32 12l4 -4h4zM40 88h8l84 -84l-4 -4h-12l-4 4l-4 -4h-8l-16 4l-16 -4v4l-4 -4h-20l-4 28h4l-4 4v16l4 4l-4 4v8l4 4l-4 4v16z" />
<glyph unicode="{" horiz-adv-x="364" d="M244 924l32 -40q-84 6 -88 24q0 12 56 16zM316 876l8 -8v-12h-4l-12 12zM148 860l76 -80l-4 -28v-56l-20 4q-20 -41 -20 -76v-16q0 -13 40 -24v-24q0 -50 -56 -96v-4q56 -38 56 -88v-72h-8l-4 12q-36 -12 -36 -36l8 -8h8q14 0 28 16h4v-112l4 -20l-80 -20v-12h36l44 8h4 q9 -36 64 -36v-8l-20 -40l-4 4h-4q-24 -4 -24 -12q0 -20 16 -24l24 12q28 -2 28 -24h4l4 32h8v-28l-8 -8h-24l-4 4l-4 -4q-128 0 -164 100l-12 64l4 4l-4 20v132l4 16q0 52 -24 84l12 16l-16 4l-4 -4h-4l-28 24v-4l4 -20l-4 -4h-4l-4 4v64h4l48 -48l-4 -4l16 -8h4q0 8 48 56 v4h-16l-44 -44h-4v4l20 40q-12 0 -24 16v4q20 19 20 60v112l4 4l-4 4v48l4 16l-4 4q0 96 40 96zM212 656h8v-56h-16l8 52v4zM168 556l-8 -8l-16 4h-4v-4q20 -16 40 -16h20q6 0 12 16q-28 0 -44 8zM312 92l12 -12v-36h-8l-12 44l4 4h4z" />
<glyph unicode="|" horiz-adv-x="208" d="M48 1136h112l8 -8v-1016h-88v-4l20 -4l4 4h20q44 0 44 -12v-128h-4l-16 20q-11 0 -48 44l40 4v4l-32 4l-16 -4q-24 11 -24 44h-4v-12h-4l-12 8v-20l4 -20h-4l-8 8v104l4 4l-4 4v16l4 4l-4 4v4l4 4l-4 4v32l4 4l-4 4v92l4 4l-4 4v124l4 4l-4 4v4l4 4v4q50 -36 88 -36h12 q-22 40 -36 44q0 16 -20 16q0 9 -44 36l-4 16v340l4 4l-4 4v16l4 4l-4 4v4l4 12l-4 20v164zM124 828v-24h4v24h-4zM104 420v-20h4v20h-4zM76 168v-16l20 -4h8l16 16v16l-12 4q-32 -5 -32 -16zM48 36l4 -4l4 4h4l40 -40l-8 -12q44 0 44 -48h4v12h8l12 -12v-4h-112l-8 8v4l4 4 l-4 4v20l4 16l-4 16v24z" />
<glyph unicode="}" horiz-adv-x="364" d="M52 928h4l8 -8l-16 -12h-4v12zM76 924h32l4 -4h4l-4 -20v-16l4 -20q-26 -32 -40 -32q-30 15 -32 24v36zM140 852h4l-24 -24h-4zM244 828q12 -18 12 -80v-40h-4l-12 4q0 -8 12 -8l4 -4v-48q0 -8 -40 -12l4 -4v-4l-4 -4v-4l8 -8h-12l-16 4l-4 -4h-4l-20 4q-4 -16 -24 -16 v116l8 8h12l28 -20q0 16 28 16v4q-9 0 -40 28v4zM228 612h16l12 -12v-4q0 -73 32 -100q-19 -45 -28 -104l4 -4l-8 -56v-176h-8l-56 96l4 20q-36 0 -52 56v20q0 76 60 108q-60 48 -60 112v12h4q64 0 64 -12l16 4v4q-12 0 -12 8t16 8l4 12zM180 512l12 -12v-4q13 0 32 32l-4 4 h-16q-24 0 -24 -20zM316 496l8 -8v-56l-8 -8h-4l-8 8l12 12v4h-8v40zM244 444v-4h20v4h-20zM144 244h4q22 0 64 -80q12 -6 40 -56q-26 -88 -68 -88l-72 72q32 13 32 72v80zM48 84h20l76 -76v-8l-96 -8l-8 8v76z" />
<glyph unicode="~" horiz-adv-x="496" d="M148 1012l8 -32v-20l-16 -20l24 -4v68l8 8q26 0 156 -64h8q14 2 52 40l68 -52v-8q-57 -72 -124 -72q-43 0 -88 32q20 2 20 44h-4q-10 0 -16 -32v-12l-88 32l-36 -20v4q0 13 12 28v4h-20q-12 0 -12 60zM80 980h4l4 -28v-20l-20 -4h-20l-8 8v4zM68 916h8l16 -16v-4z M368 896l4 -12h4v12h-8z" />
<glyph unicode="&#xa0;" />
<glyph unicode="&#xa1;" />
<glyph unicode="&#xa2;" />
<glyph unicode="&#xa3;" />
<glyph unicode="&#xa4;" />
<glyph unicode="&#xa5;" />
<glyph unicode="&#xa6;" />
<glyph unicode="&#xa7;" />
<glyph unicode="&#xa8;" />
<glyph unicode="&#xa9;" />
<glyph unicode="&#xaa;" />
<glyph unicode="&#xab;" />
<glyph unicode="&#xac;" />
<glyph unicode="&#xad;" horiz-adv-x="468" d="M48 494h68v-8h-8v-12l4 -4l12 -4v-4q44 4 76 20v-56l4 -20l4 4l4 12h4l-4 4v4l4 4l-4 4v28q0 20 8 20l12 -4v4l8 8h180l8 -8v-120l-8 -8h-60l-4 4h-4l4 20v12l-8 68h-4l-4 -40l4 -60l-4 -4h-248q-8 0 -12 28l4 4q-44 0 -44 16v48q8 16 24 16v4h-4l-16 -8l-4 4v16z M340 474v-8h4q28 0 44 -8l32 4v4l-44 12zM164 422v-4h16v4h-16zM360 378q6 -16 12 -16l8 36l-4 12q-12 -2 -12 -32h-4z" />
<glyph unicode="&#xae;" />
<glyph unicode="&#xaf;" />
<glyph unicode="&#xb0;" />
<glyph unicode="&#xb1;" />
<glyph unicode="&#xb2;" />
<glyph unicode="&#xb3;" />
<glyph unicode="&#xb4;" />
<glyph unicode="&#xb6;" />
<glyph unicode="&#xb7;" />
<glyph unicode="&#xb8;" />
<glyph unicode="&#xb9;" />
<glyph unicode="&#xba;" />
<glyph unicode="&#xbb;" />
<glyph unicode="&#xbc;" />
<glyph unicode="&#xbd;" />
<glyph unicode="&#xbe;" />
<glyph unicode="&#xbf;" />
<glyph unicode="&#xc0;" />
<glyph unicode="&#xc1;" />
<glyph unicode="&#xc2;" />
<glyph unicode="&#xc3;" />
<glyph unicode="&#xc4;" />
<glyph unicode="&#xc5;" />
<glyph unicode="&#xc6;" />
<glyph unicode="&#xc7;" />
<glyph unicode="&#xc8;" />
<glyph unicode="&#xc9;" />
<glyph unicode="&#xca;" />
<glyph unicode="&#xcb;" />
<glyph unicode="&#xcc;" />
<glyph unicode="&#xcd;" />
<glyph unicode="&#xce;" />
<glyph unicode="&#xcf;" />
<glyph unicode="&#xd0;" />
<glyph unicode="&#xd1;" />
<glyph unicode="&#xd2;" />
<glyph unicode="&#xd3;" />
<glyph unicode="&#xd4;" />
<glyph unicode="&#xd5;" />
<glyph unicode="&#xd6;" />
<glyph unicode="&#xd7;" />
<glyph unicode="&#xd8;" />
<glyph unicode="&#xd9;" />
<glyph unicode="&#xda;" />
<glyph unicode="&#xdb;" />
<glyph unicode="&#xdc;" />
<glyph unicode="&#xdd;" />
<glyph unicode="&#xde;" />
<glyph unicode="&#xdf;" />
<glyph unicode="&#xe0;" />
<glyph unicode="&#xe1;" />
<glyph unicode="&#xe2;" />
<glyph unicode="&#xe3;" />
<glyph unicode="&#xe4;" />
<glyph unicode="&#xe5;" />
<glyph unicode="&#xe6;" />
<glyph unicode="&#xe7;" />
<glyph unicode="&#xe8;" />
<glyph unicode="&#xe9;" />
<glyph unicode="&#xea;" />
<glyph unicode="&#xeb;" />
<glyph unicode="&#xec;" />
<glyph unicode="&#xed;" />
<glyph unicode="&#xee;" />
<glyph unicode="&#xef;" />
<glyph unicode="&#xf0;" />
<glyph unicode="&#xf1;" />
<glyph unicode="&#xf2;" />
<glyph unicode="&#xf3;" />
<glyph unicode="&#xf4;" />
<glyph unicode="&#xf5;" />
<glyph unicode="&#xf6;" />
<glyph unicode="&#xf7;" />
<glyph unicode="&#xf8;" />
<glyph unicode="&#xf9;" />
<glyph unicode="&#xfa;" />
<glyph unicode="&#xfb;" />
<glyph unicode="&#xfc;" />
<glyph unicode="&#xfd;" />
<glyph unicode="&#xfe;" />
<glyph unicode="&#xff;" />
<glyph unicode="&#x152;" />
<glyph unicode="&#x153;" />
<glyph unicode="&#x178;" />
<glyph unicode="&#x2c6;" />
<glyph unicode="&#x2dc;" />
<glyph unicode="&#x2000;" horiz-adv-x="568" />
<glyph unicode="&#x2001;" horiz-adv-x="1136" />
<glyph unicode="&#x2002;" horiz-adv-x="568" />
<glyph unicode="&#x2003;" horiz-adv-x="1136" />
<glyph unicode="&#x2004;" horiz-adv-x="378" />
<glyph unicode="&#x2005;" horiz-adv-x="284" />
<glyph unicode="&#x2006;" horiz-adv-x="189" />
<glyph unicode="&#x2007;" horiz-adv-x="189" />
<glyph unicode="&#x2008;" horiz-adv-x="142" />
<glyph unicode="&#x2009;" horiz-adv-x="227" />
<glyph unicode="&#x200a;" horiz-adv-x="63" />
<glyph unicode="&#x2010;" horiz-adv-x="468" d="M48 494h68v-8h-8v-12l4 -4l12 -4v-4q44 4 76 20v-56l4 -20l4 4l4 12h4l-4 4v4l4 4l-4 4v28q0 20 8 20l12 -4v4l8 8h180l8 -8v-120l-8 -8h-60l-4 4h-4l4 20v12l-8 68h-4l-4 -40l4 -60l-4 -4h-248q-8 0 -12 28l4 4q-44 0 -44 16v48q8 16 24 16v4h-4l-16 -8l-4 4v16z M340 474v-8h4q28 0 44 -8l32 4v4l-44 12zM164 422v-4h16v4h-16zM360 378q6 -16 12 -16l8 36l-4 12q-12 -2 -12 -32h-4z" />
<glyph unicode="&#x2011;" horiz-adv-x="468" d="M48 494h68v-8h-8v-12l4 -4l12 -4v-4q44 4 76 20v-56l4 -20l4 4l4 12h4l-4 4v4l4 4l-4 4v28q0 20 8 20l12 -4v4l8 8h180l8 -8v-120l-8 -8h-60l-4 4h-4l4 20v12l-8 68h-4l-4 -40l4 -60l-4 -4h-248q-8 0 -12 28l4 4q-44 0 -44 16v48q8 16 24 16v4h-4l-16 -8l-4 4v16z M340 474v-8h4q28 0 44 -8l32 4v4l-44 12zM164 422v-4h16v4h-16zM360 378q6 -16 12 -16l8 36l-4 12q-12 -2 -12 -32h-4z" />
<glyph unicode="&#x2012;" horiz-adv-x="468" d="M48 494h68v-8h-8v-12l4 -4l12 -4v-4q44 4 76 20v-56l4 -20l4 4l4 12h4l-4 4v4l4 4l-4 4v28q0 20 8 20l12 -4v4l8 8h180l8 -8v-120l-8 -8h-60l-4 4h-4l4 20v12l-8 68h-4l-4 -40l4 -60l-4 -4h-248q-8 0 -12 28l4 4q-44 0 -44 16v48q8 16 24 16v4h-4l-16 -8l-4 4v16z M340 474v-8h4q28 0 44 -8l32 4v4l-44 12zM164 422v-4h16v4h-16zM360 378q6 -16 12 -16l8 36l-4 12q-12 -2 -12 -32h-4z" />
<glyph unicode="&#x2013;" />
<glyph unicode="&#x2014;" />
<glyph unicode="&#x2018;" />
<glyph unicode="&#x2019;" />
<glyph unicode="&#x201a;" />
<glyph unicode="&#x201c;" />
<glyph unicode="&#x201d;" />
<glyph unicode="&#x201e;" />
<glyph unicode="&#x2022;" />
<glyph unicode="&#x2026;" />
<glyph unicode="&#x202f;" horiz-adv-x="227" />
<glyph unicode="&#x2039;" />
<glyph unicode="&#x203a;" />
<glyph unicode="&#x205f;" horiz-adv-x="284" />
<glyph unicode="&#x20ac;" />
<glyph unicode="&#x2122;" />
<glyph unicode="&#xe000;" horiz-adv-x="865" d="M0 865h865v-865h-865v865z" />
</font>
</defs>
</svg>
