<?xml version="1.0" standalone="no"?>
<!DOCTYPE svg PUBLIC "-//W3C//DTD SVG 1.1//EN" "http://www.w3.org/Graphics/SVG/1.1/DTD/svg11.dtd" >
<svg xmlns="http://www.w3.org/2000/svg">
<metadata></metadata>
<defs>
<font id="enigmaticbold" horiz-adv-x="1400" >
<font-face units-per-em="2400" ascent="1920" descent="-480" />
<missing-glyph horiz-adv-x="600" />
<glyph horiz-adv-x="2400" />
<glyph horiz-adv-x="2400" />
<glyph unicode="&#xd;" horiz-adv-x="390" />
<glyph unicode=" "  horiz-adv-x="600" />
<glyph unicode="&#x09;" horiz-adv-x="600" />
<glyph unicode="&#xa0;" horiz-adv-x="600" />
<glyph unicode="!" horiz-adv-x="575" d="M275 450l100 1350h-375l100 -1350h175zM187 0q188 0 188 140t-188 140q-187 0 -187 -140t187 -140z" />
<glyph unicode="&#x22;" horiz-adv-x="1050" d="M625 1400h100q105 250 125 350q0 150 -175 150t-175 -150q20 -100 125 -350zM125 1400h100q105 250 125 350q0 150 -175 150t-175 -150q20 -100 125 -350z" />
<glyph unicode="#" horiz-adv-x="1650" d="M100 0h250l90 400h350l-90 -400h250l90 400h210v150h-180l160 700h220v150h-190l90 400h-250l-90 -400h-350l90 400h-250l-90 -400h-210v-150h175l-150 -700h-225v-150h190zM475 550l150 700h350l-155 -700h-345z" />
<glyph unicode="$" horiz-adv-x="1450" d="M750 1475q100 0 100 -125v-100h375v150q0 325 -475 325v125h-225v-125q-500 0 -500 -325v-225q0 -250 480 -350l20 -5v-420q-150 0 -150 125v100h-375v-150q0 -325 525 -325v-175h225v175q500 0 500 325v200q0 300 -500 400v400zM400 1275v75q0 125 125 125v-370l-20 7 q-105 13 -105 163zM750 785q110 -10 110 -160v-100q0 -125 -110 -125v385z" />
<glyph unicode="%" horiz-adv-x="1800" d="M1600 650q0 225 -375 225t-375 -225v-450q0 -225 375 -225t375 225v450zM1350 250q0 -100 -125 -100t-125 100v350q0 100 125 100t125 -100v-350zM1250 1800l-1250 -1800h350l1250 1800h-350zM750 1600q0 225 -375 225t-375 -225v-450q0 -225 375 -225t375 225v450z M500 1200q0 -100 -125 -100t-125 100v350q0 100 125 100t125 -100v-350z" />
<glyph unicode="&#x26;" horiz-adv-x="1795" d="M710 1600q-235 0 -235 -145v-30q0 -74 59 -179l646 -701l-5 205h375v-350q0 -85 -74 -150l197 -250h-424l-28 32q-171 -72 -496 -57q-725 0 -725 475v400q0 225 250 275q-150 122 -150 275v100q0 325 598 325q652 0 652 -325v-250h-375v200q0 150 -265 150zM375 500 q0 -300 350 -300q205 0 320 45l-550 605q-120 150 -120 -50v-300z" />
<glyph unicode="'" horiz-adv-x="525" d="M162 1520q0 -125 -162 -125v-75q325 0 325 340q0 140 -163 140q-162 0 -162 -140t162 -140z" />
<glyph unicode="(" horiz-adv-x="825" d="M650 2000q-650 -100 -650 -1100t650 -1100v200q-275 150 -275 900t275 900v200z" />
<glyph unicode=")" horiz-adv-x="825" d="M0 -200q650 100 650 1100t-650 1100v-200q275 -150 275 -900t-275 -900v-200z" />
<glyph unicode="*" horiz-adv-x="1064" d="M337 1431l-187 130l34 104l228 -5l66 218h109l66 -219l228 5l34 -104l-188 -130l75 -216l-88 -64l-182 139l-181 -138l-89 64z" />
<glyph unicode="+" horiz-adv-x="1200" d="M375 400v375h-375v250h375v375h250v-375h375v-250h-375v-375h-250z" />
<glyph unicode="," horiz-adv-x="575" d="M187 0q0 -175 -187 -175v-75q375 0 375 415q0 165 -188 165q-187 0 -187 -165t187 -165z" />
<glyph unicode="-" horiz-adv-x="1200" d="M1000 775v250h-1000v-250h1000z" />
<glyph unicode="." horiz-adv-x="644" d="M185 0q185 0 185 163q0 167 -185 167t-185 -167q0 -163 185 -163z" />
<glyph unicode="/" horiz-adv-x="1099" d="M1200 1850l-980 -1900h-320l980 1900h320z" />
<glyph unicode="0" d="M790 350q0 -125 -190 -125t-190 125v1100q0 125 190 125t190 -125v-1100zM1165 1500q0 325 -565 325t-565 -325v-1200q0 -325 565 -325t565 325v1200z" />
<glyph unicode="1" d="M330 1650v-250h240v-1400h375v1800h-375q0 -150 -240 -150z" />
<glyph unicode="2" horiz-adv-x="1450" d="M875 1250v200q0 125 -252 125q-248 0 -248 -125v-200h-375v250q0 325 625 325t625 -325v-300q0 -250 -505 -350l-240 -50q-130 -25 -130 -150v-400h875v-250h-1250v700q0 250 505 350l240 50q130 25 130 150z" />
<glyph unicode="3" horiz-adv-x="1450" d="M625 1575q250 0 250 -125v-250q0 -125 -125 -125h-325v-250h325q125 0 125 -125v-350q0 -125 -250 -125t-250 125v200h-375v-250q0 -325 625 -325t625 325v350q0 300 -275 300q275 0 275 300v250q0 325 -625 325t-625 -325v-250h375v200q0 125 250 125z" />
<glyph unicode="4" d="M1200 575h-110v1225h-250l-840 -1225v-250h715v-325h375v325h110v250zM300 575l415 625v-625h-415z" />
<glyph unicode="5" horiz-adv-x="1450" d="M-25 1800v-950h375v100q0 125 250 125t250 -125v-600q0 -125 -250 -125t-250 125v200h-375v-250q0 -325 625 -325t625 325v700q0 325 -437.5 325t-437.5 -200v425h875v250h-1250z" />
<glyph unicode="6" horiz-adv-x="1450" d="M-25 300v1200q0 325 625 325t625 -325v-250h-375v200q0 125 -250 125t-250 -125v-525q0 200 437.5 200t437.5 -325v-500q0 -325 -625 -325t-625 325zM350 750v-400q0 -125 250 -125t250 125v400q0 125 -250 125t-250 -125z" />
<glyph unicode="7" d="M0 1800v-250h915q-395 -242 -539 -616t-213 -934h377q5 291 114 767.5t546 742.5v290h-1200z" />
<glyph unicode="8" horiz-adv-x="1450" d="M250 950q-275 0 -275 -300v-350q0 -325 625 -325t625 325v350q0 300 -275 300q250 0 250 300v250q0 325 -600 325t-600 -325v-250q0 -300 250 -300zM375 1200v250q0 175 225 175t225 -175v-250q0 -150 -225 -150t-225 150zM850 700v-350q0 -175 -250 -175t-250 175v350 q0 150 250 150t250 -150z" />
<glyph unicode="9" horiz-adv-x="1450" d="M1225 1500v-1200q0 -325 -625 -325t-625 325v250h375v-200q0 -125 250 -125t250 125v525q0 -200 -437.5 -200t-437.5 325v500q0 325 625 325t625 -325zM850 1050v400q0 125 -250 125t-250 -125v-400q0 -125 250 -125t250 125z" />
<glyph unicode=":" horiz-adv-x="575" d="M162 720q188 0 188 165t-188 165q-187 0 -187 -165t187 -165zM162 0q188 0 188 165t-188 165q-187 0 -187 -165t187 -165z" />
<glyph unicode=";" horiz-adv-x="575" d="M162 720q188 0 188 165t-188 165q-187 0 -187 -165t187 -165zM162 0q0 -175 -187 -175v-75q375 0 375 415q0 165 -188 165q-187 0 -187 -165t187 -165z" />
<glyph unicode="&#x3c;" horiz-adv-x="1200" d="M800 250l200 200l-600 450l600 450l-200 200l-800 -650z" />
<glyph unicode="=" horiz-adv-x="1350" d="M1200 550v250h-1050v-250h1050zM1200 1000v250h-1050v-250h1050z" />
<glyph unicode="&#x3e;" horiz-adv-x="1200" d="M200 1550l-200 -200l600 -450l-600 -450l200 -200l800 650z" />
<glyph unicode="?" horiz-adv-x="1450" d="M850 1175v275q0 125 -259 125q-241 0 -241 -125v-200h-375v250q0 325 618 325q632 0 632 -325v-350q0 -270 -268 -315l-216 -70q-16 -25 -16 -65v-150h-375v187q0 213 242 263l218 90q40 25 40 85zM537 0q188 0 188 165t-188 165q-187 0 -187 -165t187 -165z" />
<glyph unicode="@" horiz-adv-x="1900" d="M740 425q-315 0 -315 275v40q0 310 375 310q125 0 125 120q0 80 -125 80t-125 -125h-250v50q0 275 375 275t375 -275v-500q0 -75 50 -75t50 75v575q0 325 -475 325t-475 -325v-700q0 -300 475 -300h550v-250h-550q-850 0 -850 500v800q0 525 850 525t850 -525v-600 q0 -275 -350 -275q-375 -25 -375 200q0 -200 -185 -200zM800 850q-125 0 -125 -125q0 -100 125 -100t125 186v129q0 -90 -125 -90z" />
<glyph unicode="A" horiz-adv-x="1650" d="M610 1800h280l625 -1800h-390l-160 450h-505l-160 -450h-315zM885 700l-170 530l-160 -530h330z" />
<glyph unicode="B" horiz-adv-x="1450" d="M-25 0h875q375 0 375 300v350q0 300 -350 300q325 0 325 250v300q0 300 -375 300h-850v-1800zM350 1075v475h350q125 0 125 -125v-225q0 -125 -125 -125h-350zM850 700v-325q0 -125 -125 -125h-375v575h375q125 0 125 -125z" />
<glyph unicode="C" horiz-adv-x="1450" d="M1225 550h-375v-200q0 -125 -250 -125t-250 125v1100q0 150 250 150t250 -150v-200h375v250q0 325 -625 325t-625 -325v-1200q0 -325 625 -325t625 325v250z" />
<glyph unicode="D" horiz-adv-x="1450" d="M-25 0h875q375 0 375 300v1200q0 300 -375 300h-875v-1800zM350 250v1325h375q125 0 125 -150v-1050q0 -125 -125 -125h-375z" />
<glyph unicode="E" horiz-adv-x="1225" d="M350 1550v-500h525v-250h-525v-550h650v-250h-1025v1800h1025v-250h-650z" />
<glyph unicode="F" horiz-adv-x="1225" d="M1000 1550v250h-1025v-1800h375v800h525v250h-525v500h650z" />
<glyph unicode="G" horiz-adv-x="1450" d="M1225 1025h-740v-250h365v-425q0 -125 -250 -125t-250 125v1100q0 125 250 125t250 -125v-200h375v250q0 325 -625 325t-625 -325v-1200q0 -325 625 -325q350 0 409 200l78 -175h138v1025z" />
<glyph unicode="H" horiz-adv-x="1350" d="M-25 1800v-1800h375v775h400v-775h375v1800h-375v-775h-400v775h-375z" />
<glyph unicode="I" horiz-adv-x="750" d="M-25 0v200h100v1400h-100v200h575v-200h-100v-1400h100v-200h-575z" />
<glyph unicode="J" horiz-adv-x="1300" d="M1075 1800h-375v-1450q0 -125 -175 -125t-175 125v200h-375v-250q0 -325 550 -325t550 325v1500z" />
<glyph unicode="K" horiz-adv-x="1350" d="M350 0v670l75 135l350 -805h405l-497 1122l423 678h-289l-467 -754v754h-375v-1800h375z" />
<glyph unicode="L" horiz-adv-x="1225" d="M1000 0v250h-650v1550h-375v-1800h1025z" />
<glyph unicode="M" horiz-adv-x="1875" d="M1675 1800h-400l-405 -1324l-420 1324h-450v-1800h275v1205l325 -1205h375l325 1135v-1135h375v1800z" />
<glyph unicode="N" horiz-adv-x="1300" d="M300 1800l525 -975v975h275v-1800h-300l-525 975v-975h-275v1800h300z" />
<glyph unicode="O" horiz-adv-x="1450" d="M850 1450q0 125 -250 125t-250 -125v-1100q0 -125 250 -125t250 125v1100zM1225 300q0 -325 -625 -325t-625 325v1200q0 325 625 325t625 -325v-1200z" />
<glyph unicode="P" horiz-adv-x="1448" d="M-25 1800h775q475 0 475 -350v-400q0 -375 -475 -375h-400v-675h-375v1800zM650 925q200 0 200 175v275q0 175 -200 175h-300v-625h300z" />
<glyph unicode="Q" horiz-adv-x="1450" d="M850 350l-188 196l-294 -99l232 -222q-250 0 -250 125v1100q0 125 250 125t250 -125v-1100zM1225 1500q0 325 -625 325t-625 -325v-1200q0 -325 625 -325q170 0 225 3l105 -103l325 115l-126 114q101 88 96 196v1200z" />
<glyph unicode="R" horiz-adv-x="1450" d="M-25 0h375v775h375q125 0 125 -125v-550q0 -100 100 -100h375q-100 0 -100 100v500q0 300 -275 300q275 0 275 300v300q0 300 -425 300h-825v-1800zM350 1025v525h375q125 0 125 -125v-275q0 -125 -125 -125h-375z" />
<glyph unicode="S" horiz-adv-x="1450" d="M350 1350v100q0 125 250 125t250 -125v-200h375v250q0 325 -625 325t-625 -325v-300q0 -250 505 -350l240 -62q130 -38 130 -188v-250q0 -125 -250 -125t-250 125v200h-375v-250q0 -325 625 -325t625 325v400q0 300 -505 400l-240 62q-130 38 -130 188z" />
<glyph unicode="T" horiz-adv-x="1355" d="M810 0v1550h445v250h-1255v-250h445v-1550h365z" />
<glyph unicode="U" horiz-adv-x="1450" d="M1225 300q0 -325 -625 -325t-625 325v1500h375v-1450q0 -125 250 -125q300 0 300 125v1450h325v-1500z" />
<glyph unicode="V" horiz-adv-x="1645" d="M1500 1800h-300l-400 -1310l-400 1310h-425l620 -1800h310z" />
<glyph unicode="W" horiz-adv-x="2180" d="M830 0l170 950l160 -950h400l500 1800h-280l-335 -1275l-240 1275h-345l-170 -1210l-265 1210h-425l475 -1800h355z" />
<glyph unicode="X" horiz-adv-x="1609" d="M-15 0h335l370 675l400 -675h405l-565 935l550 865h-320l-365 -665l-405 665h-390l540 -890z" />
<glyph unicode="Y" horiz-adv-x="1585" d="M1450 1800h-300l-385 -855l-375 855h-405l555 -1150v-650h365v650z" />
<glyph unicode="Z" horiz-adv-x="1250" d="M1050 1550v250h-1050v-250h650l-650 -1300v-250h1050v250h-650z" />
<glyph unicode="[" horiz-adv-x="825" d="M575 1750v250h-600v-2200h600v250h-225v1700h225z" />
<glyph unicode="\" horiz-adv-x="1275" d="M0 1850l900 -1900h375l-900 1900h-375z" />
<glyph unicode="]" horiz-adv-x="825" d="M0 50v-250h600v2200h-600v-250h225v-1700h-225z" />
<glyph unicode="^" horiz-adv-x="900" d="M375 1800l325 -600h-125l-225 200l-225 -200h-123l323 600h50z" />
<glyph unicode="_" d="M1400 -300v150h-1400v-150h1400z" />
<glyph unicode="`" horiz-adv-x="525" d="M350 1635q0 165 -188 165q-187 0 -187 -165q0 -365 375 -365v75q-188 0 -188 125q188 0 188 165z" />
<glyph unicode="a" horiz-adv-x="1250" d="M440 -25q-465 0 -465 325v170q0 335 525 335q150 0 150 95v50q0 125 -150 125q-115 0 -115 -125v-50h-375v100q0 325 490 325q525 0 525 -325v-825q0 -175 100 -175h-375q-100 0 -100 135q0 -160 -210 -160zM500 555q-150 0 -150 -135v-70q0 -125 150 -125t150 186v219 q0 -75 -150 -75z" />
<glyph unicode="b" horiz-adv-x="1350" d="M-25 0v1850h375v-725q0 200 387.5 200t387.5 -325v-700q0 -325 -387.5 -325t-387.5 200v-175h-375zM350 950v-600q0 -125 200 -125t200 125v600q0 125 -200 125t-200 -125z" />
<glyph unicode="c" horiz-adv-x="1350" d="M1125 500h-400v-150q0 -125 -175 -125q-200 0 -200 125v600q0 125 200 125q175 0 175 -125v-150h400v200q0 325 -575 325t-575 -325v-700q0 -325 575 -325t575 325v200z" />
<glyph unicode="d" horiz-adv-x="1350" d="M1125 0v1850h-375v-725q0 200 -387.5 200t-387.5 -325v-700q0 -325 387.5 -325t387.5 200v-175h375zM750 950v-600q0 -125 -200 -125t-200 125v600q0 125 200 125t200 -125z" />
<glyph unicode="e" horiz-adv-x="1350" d="M-25 1000v-700q0 -325 575 -325t575 325v100h-375v-50q0 -125 -200 -125t-200 125v175h775v475q0 325 -575 325t-575 -325zM350 775v175q0 125 200 125t200 -125v-175h-400z" />
<glyph unicode="f" horiz-adv-x="840" d="M490 0v1050h150v250h-150v175q0 125 150 125v250h-236q-289 0 -289 -300v-250h-115v-250h115v-1050h375z" />
<glyph unicode="g" horiz-adv-x="1350" d="M1125 1300v-1500q0 -275 -575 -275t-575 275v75h375v-25q0 -75 200 -75t200 75v325q0 -200 -387.5 -200t-387.5 325v700q0 325 387.5 325t387.5 -200v175h375zM750 350v600q0 125 -200 125t-200 -125v-600q0 -125 200 -125t200 125z" />
<glyph unicode="h" horiz-adv-x="1350" d="M-25 0h375v950q0 125 200 125q175 0 175 -125v-950h400v1000q0 325 -387.5 325t-387.5 -200v725h-375v-1850z" />
<glyph unicode="i" horiz-adv-x="575" d="M-25 1300v-1300h375v1300h-375zM162.5 1870q-207.5 0 -207.5 -172.5t207.5 -172.5t207.5 172.5t-207.5 172.5z" />
<glyph unicode="j" horiz-adv-x="525" d="M-25 1300v-1375q0 -150 -154 -150l-1 -250h179q351 0 351 260v1515h-375zM162.5 1905q-207.5 0 -207.5 -177.5t207.5 -177.5t207.5 177.5t-207.5 177.5z" />
<glyph unicode="k" horiz-adv-x="1250" d="M350 0v319l88 165l197 -484h415l-350 825l301 475h-289l-362 -654v1204h-375v-1850h375z" />
<glyph unicode="l" horiz-adv-x="575" d="M375 0v1850h-375v-1850h375z" />
<glyph unicode="m" horiz-adv-x="1960" d="M-25 0h375v925q0 150 162.5 150t162.5 -150v-925h365v925q0 150 160 150t160 -150v-925h375v1000q0 325 -337 325t-408 -160q-55 160 -347.5 160t-292.5 -200v175h-375v-1300z" />
<glyph unicode="n" horiz-adv-x="1350" d="M-25 0h375v925q0 150 200 150t200 -150v-925h375v1000q0 325 -387.5 325t-387.5 -200v175h-375v-1300z" />
<glyph unicode="o" horiz-adv-x="1350" d="M750 350q0 -125 -200 -125t-200 125v600q0 125 200 125t200 -125v-600zM1125 1000q0 325 -575 325t-575 -325v-700q0 -325 575 -325t575 325v700z" />
<glyph unicode="p" horiz-adv-x="1350" d="M-25 1300v-1775h375v650q0 -200 387.5 -200t387.5 325v700q0 325 -387.5 325t-387.5 -200v175h-375zM350 375v550q0 150 200 150t200 -150v-550q0 -150 -200 -150t-200 150z" />
<glyph unicode="q" horiz-adv-x="1350" d="M1125 1300v-1775h-375v650q0 -200 -387.5 -200t-387.5 325v700q0 325 387.5 325t387.5 -200v175h375zM750 375v550q0 150 -200 150t-200 -150v-550q0 -150 200 -150t200 150z" />
<glyph unicode="r" horiz-adv-x="1190" d="M-25 0h375v950q0 125 132.5 125t132.5 -125v-100h375v150q0 325 -320 325t-320 -200v175h-375v-1300z" />
<glyph unicode="s" horiz-adv-x="1350" d="M375 925v25q0 125 175 125t175 -125v-100h375v150q0 325 -550 325t-550 -325v-125q0 -304 550 -360q200 -28 200 -140v-25q0 -125 -200 -125t-200 125v100h-375v-150q0 -325 575 -325t575 325v175q0 277 -575 325q-175 27 -175 125z" />
<glyph unicode="t" horiz-adv-x="865" d="M490 1700v-400h150v-250h-150v-650q0 -150 150 -150v-250h-175q-350 0 -350 300v750h-140v250h140v400h375z" />
<glyph unicode="u" horiz-adv-x="1350" d="M1125 1300h-375v-925q0 -150 -200 -150t-200 150v925h-375v-1000q0 -325 387.5 -325t387.5 200v-175h375v1300z" />
<glyph unicode="v" horiz-adv-x="1390" d="M1260 1300h-315l-270 -925l-270 925h-415l490 -1300h330z" />
<glyph unicode="w" horiz-adv-x="1670" d="M615 0l160 730l160 -730h325l290 1300h-250l-180 -840l-145 840h-325l-155 -840l-170 840h-325l290 -1300h325z" />
<glyph unicode="x" horiz-adv-x="1315" d="M290 0l255 415l245 -415h405l-420 695l395 605h-290l-245 -405l-245 405h-390l410 -685l-435 -615h315z" />
<glyph unicode="y" d="M691 -216q-83 -259 -285 -259h-186v250h130q61 0 95 74l57 131l-512 1320h400l315 -853l295 853h280z" />
<glyph unicode="z" horiz-adv-x="1200" d="M1000 1050v250h-1000v-250h585l-585 -800v-250h1000v250h-585z" />
<glyph unicode="{" horiz-adv-x="850" d="M550 2000q-425 0 -425 -350v-500q0 -150 -125 -150v-200q125 0 125 -150v-500q0 -350 425 -350h100v250h-75q-75 0 -75 100v550q0 200 -200 200q200 0 200 200v550q0 100 75 100h75v250h-100z" />
<glyph unicode="|" horiz-adv-x="401" d="M175 2200v-2650h-203v2650h203z" />
<glyph unicode="}" horiz-adv-x="850" d="M100 -200q425 0 425 350v500q0 150 125 150v200q-125 0 -125 150v500q0 350 -425 350h-100v-250h75q75 0 75 -100v-550q0 -200 200 -200q-200 0 -200 -200v-550q0 -100 -75 -100h-75v-250h100z" />
<glyph unicode="~" horiz-adv-x="1350" d="M350 900q-125 0 -125 -100v-50h-225v50q0 300 400 300q200 0 237.5 -100t162.5 -100t125 100v50h225v-50q0 -300 -400 -300q-200 0 -237.5 100t-162.5 100z" />
<glyph unicode="&#xa1;" horiz-adv-x="450" d="M0 0zM-25 850l-100 -1350h375l-100 1350h-175zM63 1300q-188 0 -188 -140t188 -140q187 0 187 140t-187 140z" />
<glyph unicode="&#xa2;" horiz-adv-x="1350" d="M1125 550q0 -325 -400 -325v-225h-350v225q-400 0 -400 325v700q0 325 400 325v225h350v-225q400 0 400 -325v-200h-375v150q0 125 -200 125t-200 -125v-600q0 -125 200 -125t200 125v150h375v-200z" />
<glyph unicode="&#xa3;" horiz-adv-x="1625" d="M1400 0h-1400v250q200 0 200 186v339h-200v250h200v489q0 311 585 311q590 0 590 -311v-264h-375v196q0 129 -213 129q-212 0 -212 -135v-415h375v-250h-375v-264q0 -211 -150 -261h975v-250z" />
<glyph unicode="&#xa4;" horiz-adv-x="1550" d="M1225 300q0 -325 -625 -325t-625 325v325h-100v200h100v150h-100v200h100v325q0 325 625 325t625 -325v-250h-375v175q0 150 -250 150t-250 -150v-250h450l-50 -200h-400v-150h350l-50 -200h-300v-250q0 -150 250 -150t250 150v175h375v-250z" />
<glyph unicode="&#xa5;" horiz-adv-x="1578" d="M905 650v-50h145v-100h-145v-100h145v-100h-145v-300h-365v300h-140v100h140v100h-140v100h140v50l-550 1150h415l360 -855l385 855h300z" />
<glyph unicode="&#xa6;" horiz-adv-x="432" d="M282 699v-1136h-132v1136h132zM282 2234v-1125h-132v1125h132z" />
<glyph unicode="&#xa7;" d="M600 -375q-600 0 -600 250v150h325v-50q0 -150 275 -150t275 150v100q0 130 -275 200q-600 120 -600 350v200q0 215 185 280q-185 105 -185 270v200q0 250 600 250t600 -250v-150h-325v50q0 150 -275 150t-275 -150v-100q0 -95 275 -200q600 -165 600 -375v-175 q0 -215 -185 -280q190 -95 185 -270v-200q0 -250 -600 -250zM725 455q150 20 150 170v100q0 145 -275 250l-115 30q-160 -30 -160 -180v-100q0 -180 275 -250z" />
<glyph unicode="&#xa8;" horiz-adv-x="950" d="M0 1775q0 125 125 125t125 -125t-125 -125t-125 125zM500 1775q0 125 125 125t125 -125t-125 -125t-125 125z" />
<glyph unicode="&#xa9;" horiz-adv-x="1790" d="M1200 782h-250v-127q0 -155 -200 -155t-200 194v417q0 189 200 189t200 -189v-122l250 1v189q0 321 -450 321t-450 -315v-598q0 -287 450 -287t450 297v185zM1250 470q0 -295 -500 -295t-500 301v856q0 293 500 293t500 -291v-864zM1500 1398q0 427 -750 427t-750 -479 v-866q0 -505 750 -505t750 479v944z" />
<glyph unicode="&#xaa;" horiz-adv-x="740" d="M0 537zM220 537.5q-232.5 0 -232.5 162.5v85q0 167.5 262.5 167.5q75 0 75 47.5v25q0 62.5 -75 62.5q-57.5 0 -57.5 -62.5v-25h-187.5v50q0 162.5 245 162.5q262.5 0 262.5 -162.5v-412.5q0 -87.5 50 -87.5h-187.5q-50 0 -50 67.5q0 -80 -105 -80zM250 827.5 q-75 0 -75 -67.5v-35q0 -62.5 75 -62.5t75 93v109.5q0 -37.5 -75 -37.5zM637.012 752.51v175.003h-700.012v-175.003h700.012z" />
<glyph unicode="&#xab;" horiz-adv-x="1200" d="M422 582v196l-203 120l203 114v208l-422 -264v-100zM902 582v196l-203 120l203 114v208l-422 -264v-100z" />
<glyph unicode="&#xac;" horiz-adv-x="1505" d="M1353 1345v-630h-240v400h-960v230h1200v0z" />
<glyph unicode="&#xad;" horiz-adv-x="889" d="M744 785v220h-600v-220h600z" />
<glyph unicode="&#xae;" horiz-adv-x="1790" d="M1250 470q0 -295 -515 -295q-485 0 -485 301v856q0 293 491 293q509 0 509 -291v-864zM1500 1398q0 427 -759 427q-741 0 -741 -479v-866q0 -505 739 -505q761 0 761 479v944zM300 400h250v350h273q127 0 127 -101v-139q0 -110 90 -110h229q-69 0 -69 109v184 q0 157 -169 157q169 0 169 179v143q0 228 -309 228h-591v-1000zM550 950v250h275q125 0 125 -56v-102q0 -92 -131 -92h-269z" />
<glyph unicode="&#xaf;" horiz-adv-x="1380" d="M1380 1892v104h-1378v-104h1378z" />
<glyph unicode="&#xb0;" horiz-adv-x="1000" d="M800 1550q0 250 -400 250t-400 -250v-300q0 -250 400 -250t400 250v300zM600 1300q0 -150 -200 -150t-200 150v200q0 150 200 150t200 -150v-200z" />
<glyph unicode="&#xb1;" horiz-adv-x="1100" d="M0 175zM375 600v375h-375v250h375v375h250v-375h375v-250h-375v-375h-250zM1000 175v250h-1000v-250h1000z" />
<glyph unicode="&#xb2;" horiz-adv-x="1000" d="M550 1575q0 100 -150 100t-150 -125v-50h-250v100q0 225 400 225t400 -225v-100q0 -200 -400 -250q-150 -25 -150 -150h550v-200h-800v293q0 205 400 257q150 25 150 125z" />
<glyph unicode="&#xb3;" horiz-adv-x="1050" d="M425 1625q175 0 175 -100t-125 -100h-150v-150h150q125 0 125 -100t-175 -100t-175 112l-250 -1v-92q0 -219 425 -219t425 275q0 200 -174 200q174 0 174 200q0 275 -425 275t-425 -254v-80l250 -1q0 135 175 135z" />
<glyph unicode="&#xb4;" horiz-adv-x="600" d="M0 1600l125 300h275l-250 -300h-150z" />
<glyph unicode="&#xb6;" d="M1201 0h-251v1600h-100v-1600h-250v700h-150q-450 0 -450 350v400q0 350 450 350h752z" />
<glyph unicode="&#xb7;" horiz-adv-x="599" d="M275 650q175 0 175 153q0 152 -175 152t-175 -152q0 -153 175 -153z" />
<glyph unicode="&#xb8;" horiz-adv-x="650" d="M175 50v-300h100v35q0 40 37.5 40t37.5 -50v-85q0 -65 -125 -65t-125 63v33l-100 -1v-58q0 -112 225 -112t225 112v127q0 111 -87.5 111t-87.5 -47v197h-100z" />
<glyph unicode="&#xb9;" horiz-adv-x="650" d="M0 1650v-200h200v-550h250v900h-250q0 -150 -200 -150z" />
<glyph unicode="&#xba;" horiz-adv-x="760" d="M0 537zM375 725q0 -62.5 -100 -62.5t-100 62.5v300q0 62.5 100 62.5t100 -62.5v-300zM562.5 1050q0 162.5 -287.5 162.5t-287.5 -162.5v-350q0 -162.5 287.5 -162.5t287.5 162.5v350zM651.012 752.51v175.003h-700.012v-175.003h700.012z" />
<glyph unicode="&#xbb;" horiz-adv-x="1200" d="M628 582v196l203 120l-203 114v208l422 -264v-100zM148 582v196l203 120l-203 114v208l422 -264v-100z" />
<glyph unicode="&#xbc;" horiz-adv-x="1756" d="M152 0zM1606 1780l-1256 -1844l-198 64l1273 1846zM265 1300v-125h120v-700h187.5v900h-187.5q0 -75 -120 -75zM1050 262.5h-55v612.5h-125l-420 -612.5v-125h357.5v-162.5h187.5v162.5h55v125zM600 262.5l207.5 312.5v-312.5h-207.5z" />
<glyph unicode="&#xbd;" horiz-adv-x="1756" d="M152 0zM1606 1780l-1256 -1844l-198 64l1273 1846zM265 1300v-125h120v-700h187.5v900h-187.5q0 -75 -120 -75zM937.5 585v100q0 62.5 -126 62.5q-124 0 -124 -62.5v-100h-187.5v125q0 162.5 312.5 162.5t312.5 -162.5v-150q0 -125 -252.5 -175l-120 -25 q-65 -12.5 -65 -75v-200h437.5v-125h-625v350q0 125 252.5 175l120 25q65 12.5 65 75z" />
<glyph unicode="&#xbe;" horiz-adv-x="1756" d="M75 0zM1606 1780l-1256 -1844l-198 64l1273 1846zM387.5 1262.5q125 0 125 -62.5v-125q0 -62.5 -62.5 -62.5h-162.5v-125h162.5q62.5 0 62.5 -62.5v-175q0 -62.5 -125 -62.5t-125 62.5v100h-187.5v-125q0 -162.5 312.5 -162.5t312.5 162.5v175q0 150 -137.5 150 q137.5 0 137.5 150v125q0 162.5 -312.5 162.5t-312.5 -162.5v-125h187.5v100q0 62.5 125 62.5zM1050 262.5h-55v612.5h-125l-420 -612.5v-125h357.5v-162.5h187.5v162.5h55v125zM600 262.5l207.5 312.5v-312.5h-207.5z" />
<glyph unicode="&#xbf;" d="M0 0zM350 125v-275q0 -125 259 -125q241 0 241 125v200h375v-250q0 -325 -618 -325q-632 0 -632 325v350q0 270 268 315l216 70q16 25 16 65v150h375v-187q0 -213 -242 -263l-218 -90q-40 -25 -40 -85zM663 1300q-188 0 -188 -165t188 -165q187 0 187 165t-187 165z" />
<glyph unicode="&#xc0;" horiz-adv-x="1620" d="M0 0zM610 1800h280l625 -1800h-390l-160 450h-505l-160 -450h-315zM885 700l-170 530l-160 -530h330zM675 1900l-250 300h300l100 -300h-150z" />
<glyph unicode="&#xc1;" horiz-adv-x="1620" d="M0 0zM610 1800h280l625 -1800h-390l-160 450h-505l-160 -450h-315zM885 700l-170 530l-160 -530h330zM675 1900l125 300h275l-250 -300h-150z" />
<glyph unicode="&#xc2;" horiz-adv-x="1620" d="M0 0zM610 1800h280l625 -1800h-390l-160 450h-505l-160 -450h-315zM885 700l-170 530l-160 -530h330zM775 2256l375 -256l-125 -150l-275 200l-275 -200l-123 150l373 256h50z" />
<glyph unicode="&#xc3;" horiz-adv-x="1620" d="M0 0zM610 1800h280l625 -1800h-390l-160 450h-505l-160 -450h-315zM885 700l-170 530l-160 -530h330zM987.5 2000q112.5 0 112.5 100v50h150v-50q0 -250 -300 -250q-125 0 -200 75t-187.5 75t-112.5 -100v-50h-150v50q0 250 300 250q125 0 200 -75t187.5 -75z" />
<glyph unicode="&#xc4;" horiz-adv-x="1620" d="M0 0zM610 1800h280l625 -1800h-390l-160 450h-505l-160 -450h-315zM885 700l-170 530l-160 -530h330zM400 2075q0 125 125 125t125 -125t-125 -125t-125 125zM900 2075q0 125 125 125t125 -125t-125 -125t-125 125z" />
<glyph unicode="&#xc5;" horiz-adv-x="1620" d="M0 0zM610 1800h280l625 -1800h-390l-160 450h-505l-160 -450h-315zM885 700l-170 530l-160 -530h330zM950 1975q0 -150 -200 -150t-200 150v100q0 150 200 150t200 -150v-100zM850 2050q0 75 -100 75t-100 -75v-50q0 -75 100 -75t100 75v50z" />
<glyph unicode="&#xc6;" horiz-adv-x="2160" d="M1255 1550v-500h570v-250h-570v-550h695v-250h-1060v300h-410l-155 -300h-355l955 1800h1025v-250h-695zM580 550h310v605z" />
<glyph unicode="&#xc7;" d="M0 0zM1225 550h-375v-200q0 -125 -250 -125t-250 125v1100q0 150 250 150t250 -150v-200h375v250q0 325 -625 325t-625 -325v-1200q0 -325 625 -325t625 325v250zM525 50v-300h100v35q0 40 37.5 40t37.5 -50v-85q0 -65 -125 -65t-125 63v33l-100 -1v-58q0 -112 225 -112 t225 112v127q0 111 -87.5 111t-87.5 -47v197h-100z" />
<glyph unicode="&#xc8;" horiz-adv-x="1200" d="M0 0zM350 1550v-500h525v-250h-525v-550h650v-250h-1025v1800h1025v-250h-650zM450 1900l-250 300h300l100 -300h-150z" />
<glyph unicode="&#xc9;" horiz-adv-x="1200" d="M0 0zM350 1550v-500h525v-250h-525v-550h650v-250h-1025v1800h1025v-250h-650zM400 1900l125 300h275l-250 -300h-150z" />
<glyph unicode="&#xca;" horiz-adv-x="1200" d="M0 0zM350 1550v-500h525v-250h-525v-550h650v-250h-1025v1800h1025v-250h-650zM525 2206l375 -256l-125 -150l-275 200l-275 -200l-123 150l373 256h50z" />
<glyph unicode="&#xcb;" horiz-adv-x="1200" d="M0 0zM350 1550v-500h525v-250h-525v-550h650v-250h-1025v1800h1025v-250h-650zM150 2075q0 125 125 125t125 -125t-125 -125t-125 125zM650 2075q0 125 125 125t125 -125t-125 -125t-125 125z" />
<glyph unicode="&#xcc;" horiz-adv-x="725" d="M0 0zM-25 0v200h100v1400h-100v200h575v-200h-100v-1400h100v-200h-575zM150 1900l-250 300h300l100 -300h-150z" />
<glyph unicode="&#xcd;" horiz-adv-x="725" d="M0 0zM-25 0v200h100v1400h-100v200h575v-200h-100v-1400h100v-200h-575zM150 1900l125 300h275l-250 -300h-150z" />
<glyph unicode="&#xce;" horiz-adv-x="725" d="M0 0zM-25 0v200h100v1400h-100v200h575v-200h-100v-1400h100v-200h-575zM250 2206l375 -256l-125 -150l-275 200l-275 -200l-123 150l373 256h50z" />
<glyph unicode="&#xcf;" horiz-adv-x="725" d="M0 0zM-25 0v200h100v1400h-100v200h575v-200h-100v-1400h100v-200h-575zM-150 2075q0 125 125 125t125 -125t-125 -125t-125 125zM350 2075q0 125 125 125t125 -125t-125 -125t-125 125z" />
<glyph unicode="&#xd0;" horiz-adv-x="1600" d="M-25 1800h875q375 0 375 -300v-1200q0 -300 -375 -300h-875v775h-175v250h175v775zM700 250q150 0 150 125v1050q0 125 -150 125h-350v-525h175v-250h-175v-525h350z" />
<glyph unicode="&#xd1;" horiz-adv-x="1300" d="M0 0zM300 1800l525 -975v975h275v-1800h-300l-525 975v-975h-275v1800h300zM787.5 2000q112.5 0 112.5 100v50h150v-50q0 -250 -300 -250q-125 0 -200 75t-187.5 75t-112.5 -100v-50h-150v50q0 250 300 250q125 0 200 -75t187.5 -75z" />
<glyph unicode="&#xd2;" d="M0 0zM850 1450q0 125 -250 125t-250 -125v-1100q0 -125 250 -125t250 125v1100zM1225 300q0 -325 -625 -325t-625 325v1200q0 325 625 325t625 -325v-1200zM550 1900l-250 300h300l100 -300h-150z" />
<glyph unicode="&#xd3;" d="M0 0zM850 1450q0 125 -250 125t-250 -125v-1100q0 -125 250 -125t250 125v1100zM1225 300q0 -325 -625 -325t-625 325v1200q0 325 625 325t625 -325v-1200zM500 1900l125 300h275l-250 -300h-150z" />
<glyph unicode="&#xd4;" d="M0 0zM850 1450q0 125 -250 125t-250 -125v-1100q0 -125 250 -125t250 125v1100zM1225 300q0 -325 -625 -325t-625 325v1200q0 325 625 325t625 -325v-1200zM625 2206l375 -256l-125 -150l-275 200l-275 -200l-123 150l373 256h50z" />
<glyph unicode="&#xd5;" d="M0 0zM850 1450q0 125 -250 125t-250 -125v-1100q0 -125 250 -125t250 125v1100zM1225 300q0 -325 -625 -325t-625 325v1200q0 325 625 325t625 -325v-1200zM837.5 2000q112.5 0 112.5 100v50h150v-50q0 -250 -300 -250q-125 0 -200 75t-187.5 75t-112.5 -100v-50h-150v50 q0 250 300 250q125 0 200 -75t187.5 -75z" />
<glyph unicode="&#xd6;" d="M0 0zM850 1450q0 125 -250 125t-250 -125v-1100q0 -125 250 -125t250 125v1100zM1225 300q0 -325 -625 -325t-625 325v1200q0 325 625 325t625 -325v-1200zM225 2075q0 125 125 125t125 -125t-125 -125t-125 125zM725 2075q0 125 125 125t125 -125t-125 -125t-125 125z " />
<glyph unicode="&#xd7;" horiz-adv-x="1200" d="M111 1430l389 -389l389 389l141 -141l-389 -389l389 -389l-141 -141l-389 389l-389 -389l-141 141l389 389l-389 389z" />
<glyph unicode="&#xd8;" horiz-adv-x="1450" d="M350 375q0 -150 250 -150t250 150v525l-500 -330v-195zM1225 300q0 -325 -625 -325t-625 325v120l-40 -30l-110 190l150 105v815q0 325 625 325t625 -325v-120l40 25l125 -180l-165 -125v-800zM850 1425q0 150 -245 150q-255 0 -255 -150v-525l500 315v210z" />
<glyph unicode="&#xd9;" d="M0 0zM1225 300q0 -325 -625 -325t-625 325v1500h375v-1450q0 -125 250 -125q300 0 300 125v1450h325v-1500zM550 1900l-250 300h300l100 -300h-150z" />
<glyph unicode="&#xda;" d="M0 0zM1225 300q0 -325 -625 -325t-625 325v1500h375v-1450q0 -125 250 -125q300 0 300 125v1450h325v-1500zM500 1900l125 300h275l-250 -300h-150z" />
<glyph unicode="&#xdb;" d="M0 0zM1225 300q0 -325 -625 -325t-625 325v1500h375v-1450q0 -125 250 -125q300 0 300 125v1450h325v-1500zM625 2206l375 -256l-125 -150l-275 200l-275 -200l-123 150l373 256h50z" />
<glyph unicode="&#xdc;" d="M0 0zM1225 300q0 -325 -625 -325t-625 325v1500h375v-1450q0 -125 250 -125q300 0 300 125v1450h325v-1500zM250 2075q0 125 125 125t125 -125t-125 -125t-125 125zM750 2075q0 125 125 125t125 -125t-125 -125t-125 125z" />
<glyph unicode="&#xdd;" horiz-adv-x="1570" d="M0 0zM1450 1800h-300l-385 -855l-375 855h-405l555 -1150v-650h365v650zM650 1900l125 300h275l-250 -300h-150z" />
<glyph unicode="&#xde;" horiz-adv-x="1450" d="M-25 1800h375v-275h400q475 0 475 -375v-400q0 -375 -475 -375h-400v-375h-375v1800zM650 625q200 0 200 175v300q0 175 -200 175h-300v-650h300z" />
<glyph unicode="&#xdf;" d="M623 1625q227 0 227 -225v-100q0 -200 -200 -200h-175v-200h175q225 0 225 -200v-350q0 -175 -75 -175q-100 0 -100 175h-250v-50q0 -325 350 -325q425 0 425 325v450q0 250 -375 250q350 0 350 250v200q0 375 -565 375q-610 0 -610 -375v-1021h-100v-189l100 1v-241h375 v1400q0 225 223 225z" />
<glyph unicode="&#xe0;" horiz-adv-x="1200" d="M0 0zM440 -25q-465 0 -465 325v170q0 335 525 335q150 0 150 95v50q0 125 -150 125q-115 0 -115 -125v-50h-375v100q0 325 490 325q525 0 525 -325v-825q0 -175 100 -175h-375q-100 0 -100 135q0 -160 -210 -160zM500 555q-150 0 -150 -135v-70q0 -125 150 -125t150 186 v219q0 -75 -150 -75zM450 1400l-250 300h300l100 -300h-150z" />
<glyph unicode="&#xe1;" horiz-adv-x="1200" d="M0 0zM440 -25q-465 0 -465 325v170q0 335 525 335q150 0 150 95v50q0 125 -150 125q-115 0 -115 -125v-50h-375v100q0 325 490 325q525 0 525 -325v-825q0 -175 100 -175h-375q-100 0 -100 135q0 -160 -210 -160zM500 555q-150 0 -150 -135v-70q0 -125 150 -125t150 186 v219q0 -75 -150 -75zM400 1400l125 300h275l-250 -300h-150z" />
<glyph unicode="&#xe2;" horiz-adv-x="1200" d="M0 0zM440 -25q-465 0 -465 325v170q0 335 525 335q150 0 150 95v50q0 125 -150 125q-115 0 -115 -125v-50h-375v100q0 325 490 325q525 0 525 -325v-825q0 -175 100 -175h-375q-100 0 -100 135q0 -160 -210 -160zM500 555q-150 0 -150 -135v-70q0 -125 150 -125t150 186 v219q0 -75 -150 -75zM525 1856l375 -256l-125 -150l-275 200l-275 -200l-123 150l373 256h50z" />
<glyph unicode="&#xe3;" horiz-adv-x="1200" d="M0 0zM440 -25q-465 0 -465 325v170q0 335 525 335q150 0 150 95v50q0 125 -150 125q-115 0 -115 -125v-50h-375v100q0 325 490 325q525 0 525 -325v-825q0 -175 100 -175h-375q-100 0 -100 135q0 -160 -210 -160zM500 555q-150 0 -150 -135v-70q0 -125 150 -125t150 186 v219q0 -75 -150 -75zM737.5 1600q112.5 0 112.5 100v50h150v-50q0 -250 -300 -250q-125 0 -200 75t-187.5 75t-112.5 -100v-50h-150v50q0 250 300 250q125 0 200 -75t187.5 -75z" />
<glyph unicode="&#xe4;" horiz-adv-x="1200" d="M0 0zM440 -25q-465 0 -465 325v170q0 335 525 335q150 0 150 95v50q0 125 -150 125q-115 0 -115 -125v-50h-375v100q0 325 490 325q525 0 525 -325v-825q0 -175 100 -175h-375q-100 0 -100 135q0 -160 -210 -160zM500 555q-150 0 -150 -135v-70q0 -125 150 -125t150 186 v219q0 -75 -150 -75zM150 1575q0 125 125 125t125 -125t-125 -125t-125 125zM650 1575q0 125 125 125t125 -125t-125 -125t-125 125z" />
<glyph unicode="&#xe5;" horiz-adv-x="1200" d="M0 0zM440 -25q-465 0 -465 325v170q0 335 525 335q150 0 150 95v50q0 125 -150 125q-115 0 -115 -125v-50h-375v100q0 325 490 325q525 0 525 -325v-825q0 -175 100 -175h-375q-100 0 -100 135q0 -160 -210 -160zM500 555q-150 0 -150 -135v-70q0 -125 150 -125t150 186 v219q0 -75 -150 -75zM700 1525q0 -150 -200 -150t-200 150v100q0 150 200 150t200 -150v-100zM600 1600q0 75 -100 75t-100 -75v-50q0 -75 100 -75t100 75v50z" />
<glyph unicode="&#xe6;" horiz-adv-x="2030" d="M1425 775v175q0 125 -200 125t-200 -125v-175h400zM435 -25q-460 0 -460 325v170q0 335 520 335q165 0 165 95v50q0 125 -137.5 125t-137.5 -125v-50h-375v100q0 325 485 325q245 0 345 -150q100 150 385 150q575 0 575 -325v-475h-775v-125q0 -175 200 -175t200 125v50 h375v-100q0 -325 -575 -325q-335 0 -385 200q-50 -200 -405 -200zM500 555q-150 0 -150 -135v-70q0 -125 150 -125q160 0 160 186v234q0 -90 -160 -90z" />
<glyph unicode="&#xe7;" horiz-adv-x="1300" d="M0 0zM1125 500h-400v-150q0 -125 -175 -125q-200 0 -200 125v600q0 125 200 125q175 0 175 -125v-150h400v200q0 325 -575 325t-575 -325v-700q0 -325 575 -325t575 325v200zM475 50v-300h100v35q0 40 37.5 40t37.5 -50v-85q0 -65 -125 -65t-125 63v33l-100 -1v-58 q0 -112 225 -112t225 112v127q0 111 -87.5 111t-87.5 -47v197h-100z" />
<glyph unicode="&#xe8;" horiz-adv-x="1300" d="M0 0zM-25 1000v-700q0 -325 575 -325t575 325v100h-375v-50q0 -125 -200 -125t-200 125v175h775v475q0 325 -575 325t-575 -325zM350 775v175q0 125 200 125t200 -125v-175h-400zM500 1400l-250 300h300l100 -300h-150z" />
<glyph unicode="&#xe9;" horiz-adv-x="1300" d="M0 0zM-25 1000v-700q0 -325 575 -325t575 325v100h-375v-50q0 -125 -200 -125t-200 125v175h775v475q0 325 -575 325t-575 -325zM350 775v175q0 125 200 125t200 -125v-175h-400zM400 1400l125 300h275l-250 -300h-150z" />
<glyph unicode="&#xea;" horiz-adv-x="1300" d="M0 0zM-25 1000v-700q0 -325 575 -325t575 325v100h-375v-50q0 -125 -200 -125t-200 125v175h775v475q0 325 -575 325t-575 -325zM350 775v175q0 125 200 125t200 -125v-175h-400zM575 1856l375 -256l-125 -150l-275 200l-275 -200l-123 150l373 256h50z" />
<glyph unicode="&#xeb;" horiz-adv-x="1300" d="M0 0zM-25 1000v-700q0 -325 575 -325t575 325v100h-375v-50q0 -125 -200 -125t-200 125v175h775v475q0 325 -575 325t-575 -325zM350 775v175q0 125 200 125t200 -125v-175h-400zM175 1575q0 125 125 125t125 -125t-125 -125t-125 125zM675 1575q0 125 125 125t125 -125 t-125 -125t-125 125z" />
<glyph unicode="&#xec;" horiz-adv-x="525" d="M0 0zM0 1300v-1300h375v1300h-375zM50 1400l-250 300h300l100 -300h-150z" />
<glyph unicode="&#xed;" horiz-adv-x="525" d="M0 0zM0 1300v-1300h375v1300h-375zM50 1400l125 300h275l-250 -300h-150z" />
<glyph unicode="&#xee;" horiz-adv-x="525" d="M0 0zM0 1300v-1300h375v1300h-375zM150 1806l375 -256l-125 -150l-275 200l-275 -200l-123 150l373 256h50z" />
<glyph unicode="&#xef;" horiz-adv-x="525" d="M0 0zM0 1300v-1300h375v1300h-375zM-250 1625q0 125 125 125t125 -125t-125 -125t-125 125zM250 1625q0 125 125 125t125 -125t-125 -125t-125 125z" />
<glyph unicode="&#xf0;" horiz-adv-x="1500" d="M606 1025q-256 0 -256 -175v-450q0 -175 265 -175q285 0 285 175v450q0 175 -294 175zM602 -25q-627 0 -627 325v650q0 325 629 325q287 0 296 -150v125q0 75 -15 100l-135 -75l-70 115l140 73q-120 87 -418 87h-224v250h235q537 0 713 -155l129 85l70 -105l-127 -87 q77 -98 77 -211v-1027q0 -325 -673 -325z" />
<glyph unicode="&#xf1;" horiz-adv-x="1300" d="M0 0zM-25 0h375v925q0 150 200 150t200 -150v-925h375v1000q0 325 -387.5 325t-387.5 -200v175h-375v-1300zM762.5 1650q112.5 0 112.5 100v50h150v-50q0 -250 -300 -250q-125 0 -200 75t-187.5 75t-112.5 -100v-50h-150v50q0 250 300 250q125 0 200 -75t187.5 -75z" />
<glyph unicode="&#xf2;" horiz-adv-x="1300" d="M0 0zM750 350q0 -125 -200 -125t-200 125v600q0 125 200 125t200 -125v-600zM1125 1000q0 325 -575 325t-575 -325v-700q0 -325 575 -325t575 325v700zM500 1400l-250 300h300l100 -300h-150z" />
<glyph unicode="&#xf3;" horiz-adv-x="1300" d="M0 0zM750 350q0 -125 -200 -125t-200 125v600q0 125 200 125t200 -125v-600zM1125 1000q0 325 -575 325t-575 -325v-700q0 -325 575 -325t575 325v700zM500 1400l125 300h275l-250 -300h-150z" />
<glyph unicode="&#xf4;" horiz-adv-x="1300" d="M0 0zM750 350q0 -125 -200 -125t-200 125v600q0 125 200 125t200 -125v-600zM1125 1000q0 325 -575 325t-575 -325v-700q0 -325 575 -325t575 325v700zM575 1856l375 -256l-125 -150l-275 200l-275 -200l-123 150l373 256h50z" />
<glyph unicode="&#xf5;" horiz-adv-x="1300" d="M0 0zM750 350q0 -125 -200 -125t-200 125v600q0 125 200 125t200 -125v-600zM1125 1000q0 325 -575 325t-575 -325v-700q0 -325 575 -325t575 325v700zM762.5 1650q112.5 0 112.5 100v50h150v-50q0 -250 -300 -250q-125 0 -200 75t-187.5 75t-112.5 -100v-50h-150v50 q0 250 300 250q125 0 200 -75t187.5 -75z" />
<glyph unicode="&#xf6;" horiz-adv-x="1300" d="M0 0zM750 350q0 -125 -200 -125t-200 125v600q0 125 200 125t200 -125v-600zM1125 1000q0 325 -575 325t-575 -325v-700q0 -325 575 -325t575 325v700zM175 1575q0 125 125 125t125 -125t-125 -125t-125 125zM675 1575q0 125 125 125t125 -125t-125 -125t-125 125z" />
<glyph unicode="&#xf7;" horiz-adv-x="1200" d="M1000 800v200h-1000v-200h1000zM500 350q150 0 150 150t-150 150t-150 -150t150 -150zM500 1150q150 0 150 150t-150 150t-150 -150t150 -150z" />
<glyph unicode="&#xf8;" horiz-adv-x="1350" d="M1125 300q0 -325 -575 -325q-300 0 -450 98l-60 -53l-175 140l110 100v740q0 325 575 325q365 -5 445 -108l65 63l170 -120l-105 -125v-735zM550 225q200 0 200 125v310l-380 -380q15 -55 180 -55zM550 1075q-200 0 -200 -125v-355l390 395q-30 90 -190 85z" />
<glyph unicode="&#xf9;" horiz-adv-x="1300" d="M0 0zM1125 1300h-375v-925q0 -150 -200 -150t-200 150v925h-375v-1000q0 -325 387.5 -325t387.5 200v-175h375v1300zM500 1400l-250 300h300l100 -300h-150z" />
<glyph unicode="&#xfa;" horiz-adv-x="1300" d="M0 0zM1125 1300h-375v-925q0 -150 -200 -150t-200 150v925h-375v-1000q0 -325 387.5 -325t387.5 200v-175h375v1300zM400 1400l125 300h275l-250 -300h-150z" />
<glyph unicode="&#xfb;" horiz-adv-x="1300" d="M0 0zM1125 1300h-375v-925q0 -150 -200 -150t-200 150v925h-375v-1000q0 -325 387.5 -325t387.5 200v-175h375v1300zM575 1906l375 -256l-125 -150l-275 200l-275 -200l-123 150l373 256h50z" />
<glyph unicode="&#xfc;" horiz-adv-x="1300" d="M0 0zM1125 1300h-375v-925q0 -150 -200 -150t-200 150v925h-375v-1000q0 -325 387.5 -325t387.5 200v-175h375v1300zM175 1575q0 125 125 125t125 -125t-125 -125t-125 125zM675 1575q0 125 125 125t125 -125t-125 -125t-125 125z" />
<glyph unicode="&#xfd;" d="M0 0zM691 -216q-83 -259 -285 -259h-186v250h130q61 0 95 74l57 131l-512 1320h400l315 -853l295 853h280zM550 1400l125 300h275l-250 -300h-150z" />
<glyph unicode="&#xfe;" horiz-adv-x="1350" d="M-25 1800v-2275h375v650q0 -200 387.5 -200t387.5 325v700q0 325 -387.5 325t-387.5 -200v675h-375zM350 375v550q0 150 200 150t200 -150v-550q0 -150 -200 -150t-200 150z" />
<glyph unicode="&#xff;" d="M0 0zM691 -216q-83 -259 -285 -259h-186v250h130q61 0 95 74l57 131l-512 1320h400l315 -853l295 853h280zM260 1575q0 125 125 125t125 -125t-125 -125t-125 125zM760 1575q0 125 125 125t125 -125t-125 -125t-125 125z" />
<glyph unicode="&#x131;" horiz-adv-x="575" d="M0 1300v-1300h375v1300h-375z" />
<glyph unicode="&#x152;" horiz-adv-x="2125" d="M1250 1550v-500h525v-250h-525v-575h650v-225h-1025v50q-75 -75 -250 -75q-625 0 -625 325v1200q0 325 625 325q175 0 250 -75v50h1025v-250h-650zM875 1425q0 150 -250 150t-250 -150v-1050q0 -150 250 -150t250 150v1050z" />
<glyph unicode="&#x153;" horiz-adv-x="2125" d="M1325 1325q575 0 575 -325v-475h-775v-175q0 -125 200 -125t200 125v100h375v-150q0 -325 -575 -325q-325 0 -425 90q-100 -90 -350 -90q-575 0 -575 325v700q0 325 575 325q250 0 350 -90q100 90 425 90zM1525 775v175q0 125 -200 125t-200 -125v-175h400zM350 350 q0 -125 200 -125t200 125v600q0 125 -200 125t-200 -125v-600z" />
<glyph unicode="&#x178;" horiz-adv-x="1570" d="M0 0zM1450 1800h-300l-385 -855l-375 855h-405l555 -1150v-650h365v650zM350 2075q0 125 125 125t125 -125t-125 -125t-125 125zM850 2075q0 125 125 125t125 -125t-125 -125t-125 125z" />
<glyph unicode="&#x2c6;" horiz-adv-x="1000" d="M425 1956l375 -256l-125 -150l-275 200l-275 -200l-123 150l373 256h50z" />
<glyph unicode="&#x2da;" horiz-adv-x="600" d="M400 1525q0 -150 -200 -150t-200 150v100q0 150 200 150t200 -150v-100zM300 1600q0 75 -100 75t-100 -75v-50q0 -75 100 -75t100 75v50z" />
<glyph unicode="&#x2dc;" horiz-adv-x="1150" d="M687.5 1700q112.5 0 112.5 100v50h150v-50q0 -250 -300 -250q-125 0 -200 75t-187.5 75t-112.5 -100v-50h-150v50q0 250 300 250q125 0 200 -75t187.5 -75z" />
<glyph unicode="&#x2000;" horiz-adv-x="1128" />
<glyph unicode="&#x2001;" horiz-adv-x="2256" />
<glyph unicode="&#x2002;" horiz-adv-x="1128" />
<glyph unicode="&#x2003;" horiz-adv-x="2256" />
<glyph unicode="&#x2004;" horiz-adv-x="752" />
<glyph unicode="&#x2005;" horiz-adv-x="564" />
<glyph unicode="&#x2006;" horiz-adv-x="376" />
<glyph unicode="&#x2007;" horiz-adv-x="376" />
<glyph unicode="&#x2008;" horiz-adv-x="282" />
<glyph unicode="&#x2009;" horiz-adv-x="451" />
<glyph unicode="&#x200a;" horiz-adv-x="125" />
<glyph unicode="&#x2010;" horiz-adv-x="1200" d="M1000 775v250h-1000v-250h1000z" />
<glyph unicode="&#x2011;" horiz-adv-x="1200" d="M1000 775v250h-1000v-250h1000z" />
<glyph unicode="&#x2012;" horiz-adv-x="1200" d="M1000 775v250h-1000v-250h1000z" />
<glyph unicode="&#x2013;" horiz-adv-x="1850" d="M1700 775v250h-1550v-250h1550z" />
<glyph unicode="&#x2014;" horiz-adv-x="2300" d="M2150 775v250h-2000v-250h2000z" />
<glyph unicode="&#x2018;" horiz-adv-x="500" d="M125 1650q0 125 150 125v75q-300 0 -300 -350q0 -150 150 -150t150 150t-150 150z" />
<glyph unicode="&#x2019;" horiz-adv-x="500" d="M100 1550q0 -125 -150 -125v-75q300 0 300 350q0 150 -150 150t-150 -150t150 -150z" />
<glyph unicode="&#x201a;" horiz-adv-x="500" d="M100 150q0 125 150 125v75q-300 0 -300 -325q0 -175 150 -175t150 175q0 125 -150 125z" />
<glyph unicode="&#x201c;" horiz-adv-x="900" d="M100 1650q0 125 150 125v75q-300 0 -300 -350q0 -150 150 -150t150 150t-150 150zM500 1650q0 125 150 125v75q-300 0 -300 -350q0 -150 150 -150t150 150t-150 150z" />
<glyph unicode="&#x201d;" horiz-adv-x="900" d="M500 1550q0 -125 -150 -125v-75q300 0 300 350q0 150 -150 150t-150 -150t150 -150zM100 1550q0 -125 -150 -125v-75q300 0 300 350q0 150 -150 150t-150 -150t150 -150z" />
<glyph unicode="&#x201e;" horiz-adv-x="900" d="M100 150q0 125 150 125v75q-300 0 -300 -325q0 -175 150 -175t150 175q0 125 -150 125zM500 150q0 125 150 125v75q-300 0 -300 -325q0 -175 150 -175t150 175q0 125 -150 125z" />
<glyph unicode="&#x2022;" horiz-adv-x="720" d="M208 675q208 0 208 215q0 217 -208 217t-208 -217q0 -215 208 -215z" />
<glyph unicode="&#x2026;" horiz-adv-x="792" d="M0 0zM185 0q185 0 185 163q0 167 -185 167t-185 -167q0 -163 185 -163zM685 0q185 0 185 163q0 167 -185 167t-185 -167q0 -163 185 -163zM1185 0q185 0 185 163q0 167 -185 167t-185 -167q0 -163 185 -163z" />
<glyph unicode="&#x202f;" horiz-adv-x="451" />
<glyph unicode="&#x2039;" horiz-adv-x="620" d="M422 582v196l-203 120l203 114v208l-422 -264v-100z" />
<glyph unicode="&#x203a;" horiz-adv-x="620" d="M-2 582v196l203 120l-203 114v208l422 -264v-100z" />
<glyph unicode="&#x2044;" horiz-adv-x="1756" d="M1606 1780l-1256 -1844l-198 64l1273 1846z" />
<glyph unicode="&#x205f;" horiz-adv-x="564" />
<glyph unicode="&#x2122;" horiz-adv-x="1650" d="M0 450zM405 450v775h222.5v125h-627.5v-125h222.5v-775h182.5zM1187.5 1350h-200l-202.5 -662l-210 662h-225v-900h137.5v602.5l162.5 -602.5h187.5l162.5 567.5v-567.5h187.5v900z" />
<glyph unicode="&#xe000;" horiz-adv-x="1300" d="M0 1300h1300v-1300h-1300v1300z" />
<glyph horiz-adv-x="600" d="M250 1600l-250 300h300l100 -300h-150z" />
<glyph horiz-adv-x="600" d="M0 0z" />
</font>
</defs>
</svg>
