<?xml version="1.0" standalone="no"?>
<!DOCTYPE svg PUBLIC "-//W3C//DTD SVG 1.1//EN" "http://www.w3.org/Graphics/SVG/1.1/DTD/svg11.dtd" >
<svg xmlns="http://www.w3.org/2000/svg">
<metadata></metadata>
<defs>
<font id="exothin" horiz-adv-x="552" >
<font-face units-per-em="1000" ascent="800" descent="-200" />
<missing-glyph horiz-adv-x="280" />
<glyph unicode="&#xfb01;" horiz-adv-x="594" d="M27 502v14l98 10v58q0 92 45 147t132 55q95 0 179 -19v-14l-172 8q-73 3 -116.5 -41t-43.5 -136v-58l371 -7v-519h-24v502h-347v-502h-24v502h-98z" />
<glyph unicode="&#xfb02;" horiz-adv-x="721" d="M27 507v14l98 10v53q0 89 40 145.5t124 56.5h239v-594q0 -45 7.5 -77t15.5 -48t24 -25.5t23 -11t22 -3.5q67 -11 74 -11v-13h-67q-63 0 -93 45.5t-30 143.5v570h-210q-68 0 -106.5 -43.5t-38.5 -134.5v-53h147v-24h-147v-507h-24v507h-98z" />
<glyph horiz-adv-x="0" />
<glyph unicode="&#xd;" horiz-adv-x="909" />
<glyph unicode=" "  horiz-adv-x="280" />
<glyph unicode="&#x09;" horiz-adv-x="280" />
<glyph unicode="&#xa0;" horiz-adv-x="280" />
<glyph unicode="!" horiz-adv-x="260" d="M111 12v62q0 12 12 12h11q12 0 12 -12v-62q0 -12 -12 -12h-11q-12 0 -12 12zM117 731h22l-5 -535h-12z" />
<glyph unicode="&#x22;" horiz-adv-x="262" d="M69 665v67h25v-67l-6 -134h-12zM169 665v67h25v-67l-6 -134h-12z" />
<glyph unicode="#" horiz-adv-x="654" d="M27 250l2 12h179l32 205h-179l3 12h178l41 253h12l-41 -253h186l40 253h12l-40 -253h177l-2 -12h-178l-32 -206h177l-2 -12h-177l-39 -249h-12l39 249l-186 1l-39 -250h-12l39 250h-178zM220 262l185 -1l32 206h-185z" />
<glyph unicode="$" horiz-adv-x="585" d="M74 494v66q0 106 53.5 143.5t155.5 34.5v86h18v-87q89 -5 178 -18v-13l-212 8q-84 3 -126.5 -30.5t-42.5 -123.5v-66q0 -71 36.5 -97t110.5 -26h104q92 0 127 -38.5t35 -108.5v-68q0 -43 -12 -74t-30.5 -48.5t-47.5 -27t-56.5 -12.5t-63.5 -2v-80h-18v81q-140 5 -191 14 v15q66 -6 225 -6q82 0 126 29.5t44 110.5v68q0 65 -32 94t-106 29h-102q-45 0 -77.5 9t-50.5 22t-28.5 34t-13.5 39.5t-3 42.5z" />
<glyph unicode="%" horiz-adv-x="954" d="M57 474v133q0 66 28 95.5t101 29.5h101q71 0 99 -29.5t28 -95.5v-133q0 -66 -28 -95.5t-101 -29.5h-101q-71 0 -99 29.5t-28 95.5zM72 474q0 -63 26 -86.5t86 -23.5h101q61 0 87.5 23t26.5 87v133q0 60 -24.5 85t-87.5 25h-101q-62 0 -88 -23t-26 -87v-133zM242 0 l438 732h21l-438 -732h-21zM541 128v133q0 66 28 95.5t101 29.5h101q71 0 99 -29.5t28 -95.5v-133q0 -66 -28 -95.5t-101 -29.5h-101q-71 0 -99 29.5t-28 95.5zM556 128q0 -63 26 -86.5t86 -23.5h101q61 0 87.5 23t26.5 87v133q0 60 -24.5 85t-87.5 25h-101q-62 0 -88 -23 t-26 -87v-133z" />
<glyph unicode="&#x26;" horiz-adv-x="653" d="M91 82q-56 77 -44 151.5t80 132.5l86 73l-63 85q-40 53 -34 95.5t34.5 69t68.5 36.5q65 16 267 -1v-14h-203q-50 0 -89 -20t-52 -58t28 -94l289 -392l154 149l9 -8l-69 -86l-78 -74l94 -127h-31l-82 111l-72 -67q-59 -58 -146 -48.5t-147 86.5zM110 97 q48 -64 122.5 -76.5t132.5 39.5l75 70l-213 288l-78 -65q-68 -56 -78 -123t39 -133z" />
<glyph unicode="'" horiz-adv-x="113" d="M44 665v67h25v-67l-6 -134h-12z" />
<glyph unicode="(" horiz-adv-x="315" d="M101 326q0 77 16.5 160t39.5 147t46.5 117t40.5 82l16 28h27q-7 -11 -17.5 -30t-38.5 -79t-49.5 -120t-39 -144.5t-17.5 -160.5q0 -84 17 -170t40.5 -149t47.5 -114t41 -77l17 -26h-28l-17 25.5t-38.5 71.5t-48.5 114t-38 148t-17 177z" />
<glyph unicode=")" horiz-adv-x="314" d="M27 -210q7 10 17.5 27.5t38.5 74.5t49.5 116t39 146.5t17.5 171.5q0 76 -16.5 159t-40.5 147t-48 117.5t-40 82.5l-17 28h27q6 -11 17 -30t38.5 -78.5t48.5 -119.5t38 -144.5t17 -161.5q0 -88 -16.5 -176t-39.5 -150t-46.5 -111.5t-40.5 -74.5l-16 -24h-27z" />
<glyph unicode="*" horiz-adv-x="469" d="M68 592v14l142 4v-24zM148 409l33 134l26 -4l-46 -134zM206 723l13 4l67 -123l-24 -11zM239 495l12 23l118 -83l-8 -11zM283 552l112 83l8 -12l-102 -90z" />
<glyph unicode="+" horiz-adv-x="521" d="M68 344v24h180v181h24v-181h182v-24h-182v-181h-24v181h-180z" />
<glyph unicode="," horiz-adv-x="171" d="M69 13v62q0 13 12 13h10q12 0 12 -13v-112q0 -18 -8 -25.5t-16 -6.5l-8 1v6q16 0 16 15v47h-6q-12 0 -12 13z" />
<glyph unicode="-" horiz-adv-x="338" d="M27 278v24h284v-24h-284z" />
<glyph unicode="." horiz-adv-x="172" d="M69 12v62q0 12 12 12h11q12 0 12 -12v-62q0 -12 -12 -12h-11q-12 0 -12 12z" />
<glyph unicode="/" horiz-adv-x="354" d="M27 -72l281 842h19l-281 -842h-19z" />
<glyph unicode="0" horiz-adv-x="662" d="M94 162v408q0 78 48.5 120t123.5 42h134q87 0 127.5 -44.5t40.5 -117.5v-408q0 -162 -168 -162h-134q-75 0 -123.5 39t-48.5 123zM118 162q0 -68 39.5 -103t108.5 -35h134q144 0 144 138v408q0 138 -144 138h-134q-68 0 -108 -36.5t-40 -101.5v-408z" />
<glyph unicode="1" horiz-adv-x="354" d="M54 634v13l168 85h24v-732h-24v705z" />
<glyph unicode="2" horiz-adv-x="598" d="M54 717v15q79 10 274 10q203 0 203 -210q0 -51 -42 -120t-92.5 -124.5t-125 -121.5t-105 -90t-66.5 -52h431v-24h-470v23q1 1 35.5 28.5t49 39.5t54 45t61.5 53.5t58.5 55.5t58.5 60t49.5 59t42.5 60.5t25.5 55.5t10.5 53q0 99 -46.5 141.5t-133.5 42.5h-272z" />
<glyph unicode="3" horiz-adv-x="600" d="M40 710v14q74 14 288 10q86 -1 129 -46.5t43 -118.5v-69q0 -30 -9.5 -54t-23.5 -38.5t-31.5 -24.5t-31 -13.5t-24.5 -4.5q15 -2 33 -10.5t38.5 -24.5t34.5 -45t14 -65v-59q0 -168 -178 -168q-222 0 -276 11l2 14h272q154 0 154 143v59q0 35 -15.5 62t-39.5 41t-48.5 21 t-48.5 8l-214 7v14l214 6q65 1 109.5 31t44.5 90v69q0 70 -42 105.5t-108 35.5h-286z" />
<glyph unicode="4" horiz-adv-x="575" d="M27 237l307 495h27l-305 -496h378v236l10 75h14v-311h90v-14l-90 -10v-210h-24v210h-395z" />
<glyph unicode="5" horiz-adv-x="649" d="M103 6v14h304q57 0 98 38.5t41 109.5v95q0 18 -2.5 34.5t-11 37.5t-22.5 36t-41 25.5t-63 10.5h-153q-46 0 -85.5 -38t-39.5 -87h-24l22 450h423v-24h-400l-17 -343q10 19 43.5 42.5t80.5 23.5h151q163 0 163 -166v-99q0 -48 -16 -83.5t-42.5 -53t-52.5 -25.5t-52 -8 q-232 0 -304 10z" />
<glyph unicode="6" horiz-adv-x="636" d="M88 384q0 182 48 268t124 86q194 0 272 -9v-15h-269q-45 0 -77 -33t-47 -86.5t-21 -102t-6 -98.5q94 11 283 11q93 0 127 -38t34 -108v-111q0 -149 -161 -149h-119q-43 0 -75.5 18t-59 60.5t-40 119.5t-13.5 187zM112 380q0 -357 164 -357h119q138 0 138 123v113 q0 72 -35.5 96.5t-102.5 24.5h-283z" />
<glyph unicode="7" horiz-adv-x="535" d="M40 708v24h438l16 -23l-238 -709h-28l238 708h-426z" />
<glyph unicode="8" horiz-adv-x="655" d="M101 154v99q0 52 32.5 82.5t67.5 30.5q-100 17 -100 133v65q0 95 46 134t130 39h116q82 0 122 -41t40 -132v-65q0 -43 -26 -79.5t-66 -39.5q92 -26 92 -128v-98q0 -46 -16 -78.5t-42.5 -48t-51.5 -21.5t-53 -6h-115q-49 0 -84 12.5t-52.5 29t-27 41t-11 39t-1.5 32.5z M125 151q0 -66 41.5 -96.5t110.5 -30.5h115q55 0 97 30.5t42 96.5v105q0 37 -13 60.5t-38 32.5t-41.5 11t-43.5 2h-129q-47 0 -94 -26t-47 -80v-105zM125 494q0 -36 12 -59.5t35 -33.5t43.5 -13t50.5 -3h129q66 0 101 34t35 75v68q0 81 -33.5 116t-104.5 35h-116 q-81 0 -116.5 -36t-35.5 -115v-68z" />
<glyph unicode="9" horiz-adv-x="636" d="M81 473v111q0 149 161 149h119q43 0 75.5 -18t59 -60.5t40 -119.5t13.5 -187q0 -182 -48 -268t-124 -86q-194 0 -272 9v15h269q45 0 77 33t47 86.5t21 102t6 98.5q-94 -11 -283 -11q-93 0 -127 38t-34 108zM104 473q0 -72 35.5 -96.5t102.5 -24.5h283q0 357 -164 357 h-119q-138 0 -138 -123v-113z" />
<glyph unicode=":" horiz-adv-x="177" d="M69 12v62q0 12 12 12h11q12 0 12 -12v-62q0 -12 -12 -12h-11q-12 0 -12 12zM69 455v63q0 12 12 12h11q12 0 12 -12v-63q0 -11 -12 -11h-11q-12 0 -12 11z" />
<glyph unicode=";" horiz-adv-x="172" d="M69 13v62q0 13 12 13h10q12 0 12 -13v-112q0 -18 -8 -25.5t-16 -6.5l-8 1v6q16 0 16 15v47h-6q-12 0 -12 13zM69 455v63q0 12 12 12h11q12 0 12 -12v-63q0 -11 -12 -11h-11q-12 0 -12 11z" />
<glyph unicode="&#x3c;" horiz-adv-x="480" d="M68 345v20l344 192v-27l-314 -175l314 -186v-28z" />
<glyph unicode="=" horiz-adv-x="481" d="M27 212v24h427v-24h-427zM27 471v24h427v-24h-427z" />
<glyph unicode="&#x3e;" horiz-adv-x="480" d="M68 141v28l314 186l-314 175v27l344 -192v-20z" />
<glyph unicode="?" horiz-adv-x="532" d="M27 715v14q87 10 252 10q112 2 155.5 -44t43.5 -141v-101q0 -100 -62 -135t-205 -21v-102h-26v122h106q81 0 122 31.5t41 104.5v101q0 89 -40.5 125t-135.5 36h-251zM180 12v62q0 12 12 12h12q11 0 11 -12v-62q0 -12 -11 -12h-12q-12 0 -12 12z" />
<glyph unicode="@" horiz-adv-x="866" d="M88 0v348q0 17 1.5 31.5t10.5 41t25 44.5t50 32.5t81 14.5h200q63 0 108 -32.5t45 -107.5v-372h-16l-7 64l-15 -8q-15 -7 -39 -17.5t-52.5 -21.5t-61 -18.5t-57.5 -7.5q-55 -1 -92 32.5t-36 84.5v53q0 61 34 97t95 36h223q1 75 0 76q0 60 -35 89t-97 29h-197 q-144 0 -144 -140v-348q0 -81 42 -117t102 -36h319q153 0 153 153v512q0 74 -39 119t-114 45h-389v14q57 12 288 10h101q82 -2 129.5 -49.5t47.5 -138.5v-512q0 -178 -177 -178h-319q-78 0 -123 46t-45 132zM257 114q0 -45 30 -72t81 -27q40 -1 105.5 20t111.5 43v202 l-218 -10q-19 -1 -34.5 -5t-34.5 -14.5t-30 -33.5t-11 -58q-1 -1 -1 -22.5t1 -22.5z" />
<glyph unicode="A" horiz-adv-x="659" d="M61 0l274 732h34l262 -732h-26l-91 253h-333l-94 -253h-26zM190 277h315l-153 431z" />
<glyph unicode="B" horiz-adv-x="599" d="M108 0v732h253q104 0 147 -47.5t43 -135.5q0 -68 -39 -113.5t-90 -51.5q44 -10 88 -57t44 -123q0 -204 -193 -204h-253zM132 25h229q169 0 169 181q0 69 -50 118t-119 47h-229v-346zM132 395h229q72 0 118 41t48 113q3 85 -39.5 122t-126.5 37h-229v-313z" />
<glyph unicode="C" horiz-adv-x="570" d="M74 368q0 93 9.5 156.5t35.5 115t75 76t123 24.5q85 0 214 -24v-14l-7 1q-7 1 -19.5 2t-29 2.5t-36 3t-39.5 2.5t-42 2t-41 1q-78 0 -123.5 -28.5t-70.5 -106t-25 -215.5q0 -348 220 -348q47 0 100 3t83 6l30 3v-14q-118 -22 -214 -22q-243 0 -243 374z" />
<glyph unicode="D" horiz-adv-x="671" d="M108 0v732h253q65 0 113.5 -24.5t75.5 -61.5t43.5 -89t21.5 -97t5 -97q0 -65 -15 -127t-44.5 -116t-81.5 -87t-118 -33h-253zM132 24h229q60 0 107 32t74 83t40.5 109t13.5 116q0 173 -60.5 258.5t-174.5 85.5h-229v-684z" />
<glyph unicode="E" horiz-adv-x="582" d="M108 123v479q0 69 36 100.5t90 29.5l297 -10v-14h-297q-102 0 -102 -106v-227l359 -5v-14l-359 -5v-228q0 -62 30 -82t82 -20h287v-14l-286 -10q-28 -1 -49.5 3t-43 16.5t-33 39.5t-11.5 67z" />
<glyph unicode="F" horiz-adv-x="582" d="M108 0v602q0 69 36 100.5t90 29.5l297 -10v-14h-297q-102 0 -102 -106v-227l359 -5v-14l-359 -5v-351h-24z" />
<glyph unicode="G" horiz-adv-x="620" d="M74 370q0 48 1.5 84t7 76.5t14.5 69.5t25.5 57t39 45t55.5 27.5t75 10.5q104 0 249 -27v-19l-43 6q-44 5 -104 10.5t-102 5.5q-49 0 -84 -16t-56 -43.5t-33.5 -73t-16.5 -95.5t-4 -120q0 -192 41.5 -270.5t157.5 -78.5q35 0 94 12.5t101 24.5l42 13v295h-214v14 q40 11 170 11q32 0 68 -3v-386h-14l-8 54q-32 -17 -105.5 -38t-133.5 -21q-50 0 -88 12t-62 39t-39 57.5t-22 77.5t-9.5 88t-2.5 101z" />
<glyph unicode="H" horiz-adv-x="664" d="M108 0v732h24v-366h440v366h24v-732h-24v342h-440v-342h-24z" />
<glyph unicode="I" horiz-adv-x="200" d="M108 0v732h24v-732h-24z" />
<glyph unicode="J" horiz-adv-x="349" d="M47 21l4 14q31 -9 56 -13.5t54.5 -2t49 16.5t33 46.5t13.5 82.5v567h24v-567q0 -109 -52 -147q-32 -24 -87.5 -23t-94.5 26z" />
<glyph unicode="K" horiz-adv-x="593" d="M108 0v732h24v-353h152l241 353h29l-248 -365l248 -367h-30l-241 355h-150v-355h-25z" />
<glyph unicode="L" horiz-adv-x="559" d="M108 126v606h24v-606q0 -62 30.5 -82t81.5 -20h276v-24h-276q-29 0 -50 4t-42 16t-32.5 39t-11.5 67z" />
<glyph unicode="M" horiz-adv-x="797" d="M74 0l81 732h36l213 -691l209 691h38l84 -732h-24l-81 703l-212 -703h-27l-216 703l-77 -703h-24z" />
<glyph unicode="N" horiz-adv-x="665" d="M108 0v732h25l440 -686v686h24v-732h-24l-441 686v-686h-24z" />
<glyph unicode="O" horiz-adv-x="675" d="M88 361q0 101 12 170.5t32 110t56.5 62t73 27.5t94.5 6q48 0 80.5 -4t65.5 -17t53.5 -38.5t37 -66.5t24 -103t7.5 -147q0 -96 -11 -162t-30.5 -106t-55 -61.5t-74 -28.5t-97.5 -7q-61 0 -98 6t-73 26.5t-55 60t-30.5 106.5t-11.5 166zM112 361q0 -90 9 -150t25 -98.5 t47.5 -58.5t68 -27t94.5 -7q70 0 111.5 12t74 47.5t45.5 103.5t13 178q0 80 -6.5 138.5t-21.5 97t-33.5 62t-49 35.5t-59.5 15.5t-74 3.5q-33 0 -53.5 -1.5t-46.5 -6t-42.5 -15t-34.5 -27t-29 -43t-20.5 -62.5t-13.5 -85.5t-4 -111.5z" />
<glyph unicode="P" horiz-adv-x="584" d="M81 0v732h276q35 0 61.5 -6.5t55 -25.5t44 -61.5t15.5 -106.5q0 -58 -12 -99.5t-28 -62.5t-43 -32t-45.5 -13t-47.5 -2q-35 0 -142 4t-110 6v-333h-24zM105 347h252q71 0 111.5 38t39.5 147q0 45 -8.5 77.5t-22 51t-34.5 29t-40.5 14t-45.5 3.5h-252v-360z" />
<glyph unicode="Q" horiz-adv-x="675" d="M88 361q0 101 12 170.5t32 110t56.5 62t73 27.5t94.5 6q48 0 80.5 -4t65.5 -17t53.5 -38.5t37 -66.5t24 -103t7.5 -147q0 -96 -11 -162t-30.5 -106t-55 -61.5t-74 -28.5t-97.5 -7q-61 0 -98 6t-73 26.5t-55 60t-30.5 106.5t-11.5 166zM112 361q0 -90 9 -150t25 -98.5 t47.5 -58.5t68 -27t94.5 -7q70 0 111.5 12t74 47.5t45.5 103.5t13 178q0 80 -6.5 138.5t-21.5 97t-33.5 62t-49 35.5t-59.5 15.5t-74 3.5q-33 0 -53.5 -1.5t-46.5 -6t-42.5 -15t-34.5 -27t-29 -43t-20.5 -62.5t-13.5 -85.5t-4 -111.5zM348 -33h14q14 -38 46 -57t65 -17 t65 11v-24q-38 -12 -76.5 -10.5t-71.5 27t-42 70.5z" />
<glyph unicode="R" horiz-adv-x="574" d="M81 0v732h276q35 0 61.5 -6.5t55 -25.5t44 -61.5t15.5 -106.5q0 -67 -14 -111t-39.5 -64t-49 -26.5t-56.5 -7.5l161 -323h-25l-162 323q-234 4 -243 10v-333h-24zM105 347h252q34 0 58 6.5t46.5 25t34.5 57t12 96.5q0 45 -8.5 77.5t-22 51t-34.5 29t-40.5 14t-45.5 3.5 h-252v-360z" />
<glyph unicode="S" horiz-adv-x="586" d="M88 494v66q0 101 49.5 139.5t143.5 38.5q106 0 222 -19v-13l-222 8q-83 3 -126 -32t-43 -122v-66q0 -73 35.5 -98t111.5 -25h114q92 0 127 -38.5t35 -108.5v-68q0 -51 -15.5 -85t-45 -50.5t-60.5 -22.5t-73 -6t-122.5 4.5t-112.5 10.5v15q66 -6 235 -6q79 0 124.5 30 t45.5 110v68q0 65 -32 94t-106 29h-112q-56 0 -92 11.5t-53 33.5t-22.5 45t-5.5 57z" />
<glyph unicode="T" horiz-adv-x="604" d="M47 708v24h518v-24h-250v-708h-24v708h-244z" />
<glyph unicode="U" horiz-adv-x="683" d="M108 320v412h24v-412q0 -44 2.5 -81t9 -65.5t12.5 -50.5t18.5 -38t22 -27.5t27.5 -18.5t30 -11.5t34 -6t36 -2t40 -0.5q37 0 61 2.5t53 12t47 29.5t34.5 52t24 83.5t7.5 121.5v412h24v-412q0 -48 -3.5 -88t-11.5 -70t-16 -54.5t-22.5 -41.5t-26 -29.5t-31 -20t-32.5 -12 t-35.5 -6.5t-35.5 -2.5t-37 -0.5q-98 0 -137 15q-86 32 -109 171q-10 58 -10 139z" />
<glyph unicode="V" horiz-adv-x="659" d="M61 732h26l253 -708l265 708h26l-274 -732h-34z" />
<glyph unicode="W" horiz-adv-x="971" d="M61 732h26l253 -708l245 708h26l-103 -301l163 -407l248 708h24l-254 -732h-34l-160 396l-138 -396h-34z" />
<glyph unicode="X" horiz-adv-x="565" d="M61 732h31l206 -344l208 344h31l-223 -369l218 -363h-31l-203 337l-203 -337h-31l219 363z" />
<glyph unicode="Y" horiz-adv-x="619" d="M61 732h27l228 -441l248 441h27l-263 -472v-260h-24v260z" />
<glyph unicode="Z" horiz-adv-x="549" d="M47 0v24l433 684h-433v24h463v-24l-433 -684h433v-24h-463z" />
<glyph unicode="[" horiz-adv-x="327" d="M115 -38v708q0 28 4.5 53t17.5 54.5t42 47t72 17.5h50v-24h-50q-52 0 -82 -36t-30 -112v-708q0 -66 27 -107t85 -41h50v-24h-50q-43 0 -72 17.5t-42 47t-17.5 54.5t-4.5 53z" />
<glyph unicode="\" horiz-adv-x="354" d="M27 770h19l281 -842h-19z" />
<glyph unicode="]" horiz-adv-x="327" d="M27 -186h50q58 0 85 41t27 107v708q0 76 -30 112t-82 36h-50v24h50q43 0 72 -17.5t42 -47t17.5 -54.5t4.5 -53v-708q0 -28 -4.5 -53t-17.5 -54.5t-42 -47t-72 -17.5h-50v24z" />
<glyph unicode="^" horiz-adv-x="407" d="M68 531l132 130h20l120 -130h-18l-112 115l-124 -115h-18z" />
<glyph unicode="_" horiz-adv-x="658" d="M27 -1v24h604v-24h-604z" />
<glyph unicode="`" horiz-adv-x="201" d="M27 664h26l121 -133h-14z" />
<glyph unicode="a" horiz-adv-x="520" d="M54 126v61q0 63 35.5 98t97.5 35q242 -1 242 0q1 66 0 67q0 131 -130 132q-72 1 -228 -23v14q122 30 229 31q67 1 110 -37.5t43 -116.5v-387h-15l-9 64l-16 -7q-16 -7 -42 -17.5t-56.5 -21t-65.5 -17.5t-62 -7q-57 0 -95 35t-38 97zM78 131q0 -58 32.5 -85t76.5 -28 q36 -1 96.5 14t102.5 30l43 16v228l-242 -10q-109 -4 -109 -109v-56z" />
<glyph unicode="b" d="M81 0v785h22v-286q45 18 102.5 29t94.5 11q185 0 185 -276q0 -50 -9 -94.5t-29 -85.5t-57.5 -65t-89.5 -24q-48 0 -111 22.5t-85 42.5l-10 -59h-13zM104 73q108 -55 196 -55q69 0 115 61t46 184q0 141 -44 196.5t-117 55.5q-81 0 -196 -30v-412z" />
<glyph unicode="c" horiz-adv-x="501" d="M68 266q0 84 12 139.5t37 83t54 37.5t71 10q83 0 198 -26v-14q-109 16 -198 16q-38 0 -62.5 -9t-46 -34.5t-31.5 -76.5t-10 -130q0 -75 11 -124.5t32.5 -74.5t46.5 -34.5t60 -9.5q41 0 92.5 5.5t82.5 10.5l31 5v-16q-98 -28 -206 -29q-41 0 -69.5 10t-54 37.5t-38 83.5 t-12.5 140z" />
<glyph unicode="d" d="M68 263q0 276 184 276q37 0 95 -11t103 -29v286h21v-785h-13l-10 59q-22 -20 -85 -42.5t-111 -22.5q-52 0 -89.5 24t-57 65t-28.5 85.5t-9 94.5zM92 263q0 -127 45 -186t115 -59q88 0 196 55v412q-115 30 -196 30q-35 0 -61 -10.5t-50 -36.5t-36.5 -78t-12.5 -127z" />
<glyph unicode="e" horiz-adv-x="526" d="M68 268q0 71 7.5 118t20.5 77t39 45.5t56.5 21t78.5 5.5q42 0 68 -2.5t54.5 -13t44 -30t25.5 -55t10 -87.5q0 -56 -33 -76.5t-103 -20.5h-244q0 -73 10.5 -120.5t32.5 -71t46.5 -31.5t60.5 -8q84 0 220 20v-16q-104 -29 -220 -28q-100 1 -137 62t-37 211zM92 273h244 q26 0 42 2t34 8.5t27 22.5t9 41q0 55 -10.5 88.5t-35.5 50t-53.5 21t-78.5 4.5q-74 0 -109.5 -16.5t-52 -66.5t-16.5 -155z" />
<glyph unicode="f" horiz-adv-x="384" d="M27 507v14l87 10v99q0 22 1 37.5t6 40t14 40t27.5 27t44.5 11.5q110 0 150 -11v-13h-142q-47 0 -62 -32.5t-15 -99.5v-99h178v-24h-178v-507h-24v507h-87z" />
<glyph unicode="g" horiz-adv-x="572" d="M61 -22l12 105q-9 12 -9 37t22 46t63 22q-87 35 -87 156q0 99 40.5 144t131.5 45h312v-14l-111 -10q61 -44 61 -165q0 -27 -6.5 -53t-22.5 -54.5t-51 -46t-85 -17.5h-156q-9 0 -21 -2t-29 -7t-28 -17.5t-11 -30.5q0 -27 26.5 -41.5t53.5 -14.5h206q69 0 107 -36t38 -97 v-53q0 -144 -150 -144h-150q-72 0 -114 40.5t-42 113.5v94zM86 66v-182q0 -39 14.5 -67t37 -40.5t41.5 -17.5t38 -5h150q126 0 126 120v53q0 49 -28.5 79.5t-92.5 30.5h-204q-24 0 -44.5 7.5t-29.5 14.5zM86 344q0 -146 141 -146h102q75 0 109 41.5t34 104.5 q0 80 -29.5 122.5t-70.5 42.5h-148q-78 0 -108 -42.5t-30 -122.5z" />
<glyph unicode="h" d="M81 0v784h24v-315q108 71 216 71q76 0 120 -50t44 -120v-370h-24v370q0 65 -37.5 105.5t-102.5 40.5q-62 0 -109 -14t-107 -47v-455h-24z" />
<glyph unicode="i" horiz-adv-x="170" d="M68 622v62q0 12 12 12h11q11 0 11 -12v-62q0 -12 -11 -12h-11q-12 0 -12 12zM72 0v531h24v-531h-24z" />
<glyph unicode="j" horiz-adv-x="197" d="M81 622v62q0 12 12 12h11q12 0 12 -12v-62q0 -12 -12 -12h-11q-12 0 -12 12zM87 -270v801h24v-535q2 -171 -11 -266h-13z" />
<glyph unicode="k" horiz-adv-x="498" d="M81 0v782h24v-465h60l268 214h38l-282 -227l281 -304h-35l-270 293h-60v-293h-24z" />
<glyph unicode="l" horiz-adv-x="298" d="M81 189v594h24v-594q0 -45 7.5 -77t15.5 -48t24 -25.5t23 -11t22 -3.5q67 -11 74 -11v-13h-67q-63 0 -93 45.5t-30 143.5z" />
<glyph unicode="m" horiz-adv-x="931" d="M81 0v531h14l10 -62q108 71 216 71q99 0 143 -82q42 32 110.5 57t125.5 25q76 0 120 -50t44 -120v-370h-24v370q0 62 -38 104t-102 42q-100 0 -231 -70q16 -38 16 -76v-370h-24v370q0 62 -38 104t-102 42q-62 0 -109 -14t-107 -47v-455h-24z" />
<glyph unicode="n" d="M81 0v531h14l10 -62q108 71 216 71q76 0 120 -50t44 -120v-370h-24v370q0 62 -38 104t-102 42q-62 0 -109 -14t-107 -47v-455h-24z" />
<glyph unicode="o" horiz-adv-x="573" d="M68 258q0 160 48 219t170 59q125 0 172.5 -65.5t47.5 -212.5t-47.5 -205t-172.5 -58q-128 0 -173 58t-45 205zM92 258q0 -78 11.5 -126.5t38.5 -72.5t59 -32t85 -8q52 0 85.5 9t60 34.5t38.5 73t12 122.5q0 79 -13 130.5t-40.5 78t-60 36t-82.5 9.5q-51 0 -82 -7.5 t-59 -32t-40.5 -77t-12.5 -137.5z" />
<glyph unicode="p" d="M81 -268v799h13l11 -59q22 20 84.5 42.5t110.5 22.5q52 0 89.5 -24t57.5 -65t29 -85.5t9 -94.5q0 -276 -185 -276q-37 0 -94 11t-102 29v-300h-23zM105 46q115 -30 195 -30q73 0 117 55.5t44 196.5q0 123 -46 184t-115 61q-87 0 -195 -55v-412z" />
<glyph unicode="q" horiz-adv-x="558" d="M68 268q0 129 46 199t138 70q152 0 226 -12v-795h-24v299q-44 -18 -103.5 -28.5t-98.5 -10.5q-56 0 -93 20.5t-56.5 60t-27 86.5t-7.5 111zM92 268q0 -128 35.5 -191t124.5 -63q79 0 202 31v468h-202q-160 0 -160 -245z" />
<glyph unicode="r" horiz-adv-x="424" d="M81 0v531h12l12 -67q41 23 65.5 35.5t67.5 25t85 12.5q51 0 74 -8v-23q-34 7 -74 7q-22 0 -43 -3t-34.5 -6t-37 -12.5t-31.5 -13t-36.5 -17.5t-35.5 -17v-444h-24z" />
<glyph unicode="s" horiz-adv-x="504" d="M54 363v46q0 64 31.5 95.5t106.5 31.5q137 0 231 -9v-14h-231q-62 0 -88 -24.5t-26 -79.5v-46q0 -25 5.5 -42t12.5 -26t24 -13t30.5 -5t41.5 -1h128q59 0 94.5 -29.5t35.5 -84.5v-49q0 -39 -10.5 -64t-31.5 -36t-40 -14.5t-48 -3.5q-149 0 -244 10v14h244q24 0 37.5 2 t32 10t27.5 28.5t9 53.5v49q0 39 -27.5 64.5t-78.5 25.5h-128q-78 0 -108 19.5t-30 91.5z" />
<glyph unicode="t" horiz-adv-x="350" d="M27 508v16l84 8l8 148h16v-148h175v-24h-175v-320q0 -45 7.5 -77t15.5 -48t24 -25.5t23 -11t22 -3.5q67 -11 74 -11v-13h-67q-63 0 -93 45.5t-30 143.5v320h-84z" />
<glyph unicode="u" d="M68 162v370h24v-370q0 -62 38 -104t102 -42q62 0 109 14t107 47v455h24v-531h-14l-10 62q-108 -71 -216 -71q-76 0 -120 50t-44 120z" />
<glyph unicode="v" horiz-adv-x="520" d="M27 531h24l207 -498l211 498h24l-222 -531h-26z" />
<glyph unicode="w" horiz-adv-x="777" d="M27 531h25l196 -501l191 501h24l-74 -199l136 -302l202 501h23l-212 -531h-26l-135 304l-116 -304h-26z" />
<glyph unicode="x" horiz-adv-x="480" d="M32 0l192 266l-192 265h32l176 -243l176 243h32l-192 -265l192 -266h-32l-176 243l-176 -243h-32z" />
<glyph unicode="y" horiz-adv-x="529" d="M28 531h26l148 -415q16 -46 41.5 -68.5t42.5 -22.5h17l171 506h25l-233 -699l-46 -102h-12l87 270q-84 4 -117 110z" />
<glyph unicode="z" horiz-adv-x="475" d="M40 507v24h396v-24l-350 -482h350v-24h-380v24l348 482h-364z" />
<glyph unicode="{" horiz-adv-x="304" d="M27 320v27q90 8 90 73v236q0 40 6.5 70.5t23 58t49.5 42.5t81 15v-24q-69 0 -102.5 -37t-33.5 -125v-236q0 -35 -23 -58t-57 -28q33 -5 56 -28.5t23 -54.5v-289q0 -83 33 -115.5t104 -32.5v-24q-53 0 -87.5 15t-49.5 43t-19.5 53t-4.5 61v285q0 34 -28.5 54.5t-60.5 18.5 z" />
<glyph unicode="|" horiz-adv-x="254" d="M116 -72v842h24v-842h-24z" />
<glyph unicode="}" horiz-adv-x="304" d="M27 -186q71 0 104 32.5t33 115.5v289q0 31 23 54.5t56 28.5q-34 5 -57 28t-23 58v236q0 88 -33.5 125t-102.5 37v24q48 0 81 -15t49.5 -42.5t23 -58t6.5 -70.5v-236q0 -65 90 -73v-27q-32 2 -60.5 -18.5t-28.5 -54.5v-285q0 -36 -4.5 -61t-19.5 -53t-49.5 -43t-87.5 -15 v24z" />
<glyph unicode="~" horiz-adv-x="473" d="M68 572q22 19 35 29t33 19.5t38 9.5q20 0 65.5 -36.5t60.5 -36.5q36 0 100 53l6 -7q-20 -20 -33.5 -31.5t-33 -21t-39.5 -9.5q-22 0 -66.5 36.5t-59.5 36.5q-8 0 -15.5 -1t-15.5 -4.5t-13 -5.5t-15 -8.5t-13.5 -9t-15 -11t-14.5 -10.5z" />
<glyph unicode="&#xa1;" horiz-adv-x="267" d="M112 387v63q0 10 12 10h11q12 0 12 -10v-63q0 -13 -12 -13h-11q-12 0 -12 13zM119 -270l5 536h12l5 -536h-22z" />
<glyph unicode="&#xa2;" horiz-adv-x="488" d="M54 266q0 70 9.5 120t24.5 79t41 45t52.5 21t64.5 5v82h18v-83q81 -5 163 -25v-14q-109 16 -198 16q-38 0 -63 -9t-46.5 -34.5t-31.5 -76.5t-10 -130q0 -75 11 -124.5t33 -74.5t47 -34.5t60 -9.5q41 0 92 5.5t82 10.5l31 5v-16q-87 -25 -170 -28v-78h-18v77 q-49 0 -79.5 8.5t-58.5 35t-41 82.5t-13 145z" />
<glyph unicode="&#xa3;" horiz-adv-x="601" d="M68 0v14l72 10v326h-72v14l72 8v133q0 45 6 80t16 58.5t27 40.5t34 26t43 14t47.5 6.5t54.5 1.5l166 -9v-14h-164q-56 0 -89.5 -6t-62.5 -26.5t-41.5 -62t-12.5 -109.5v-133l290 -8v-14h-290v-326h368v-24h-464z" />
<glyph unicode="&#xa4;" horiz-adv-x="466" d="M69 472l9 9l46 -47q46 43 110 43q63 0 108 -39l45 44l9 -10l-44 -43q46 -46 46 -114q0 -65 -41 -114l38 -38l-10 -9l-36 38q-47 -49 -115 -49q-70 0 -117 52l-39 -39l-8 8l39 40q-38 48 -38 111q0 64 45 111zM86 314q0 -64 43 -110t105 -46t105.5 46t43.5 110 q0 62 -43.5 105t-105.5 43q-61 0 -104.5 -43.5t-43.5 -104.5z" />
<glyph unicode="&#xa5;" horiz-adv-x="584" d="M27 732h29l226 -386l245 386h30l-262 -411h206v-14h-207v-95h207v-14h-207v-198h-24v198h-196v14h196v95h-196v14h195z" />
<glyph unicode="&#xa6;" horiz-adv-x="256" d="M116 -72v328h24v-328h-24zM116 429v341h24v-341h-24z" />
<glyph unicode="&#xa7;" horiz-adv-x="559" d="M74 353v62q0 83 55 93q-55 10 -55 82v70q0 67 37 95.5t93 28.5q149 0 244 -10v-14h-244q-106 0 -106 -100v-70q0 -44 24 -58t82 -14h149q82 0 108 -22t25 -80v-62q0 -25 -2.5 -41t-15 -31t-34.5 -17q33 -7 42 -28t9 -54v-73q0 -39 -11.5 -64t-34 -36t-43 -14.5 t-49.5 -3.5q-141 0 -236 10v14h236q58 0 86 20.5t28 73.5v73q0 45 -18.5 58.5t-89.5 13.5h-149q-72 0 -93 10q-37 17 -37 88zM98 353q0 -16 2.5 -28t4.5 -20t10.5 -13t13 -8t20.5 -4t23.5 -1h31.5h149q74 0 91 11.5t17 63.5v62q0 49 -20.5 64t-87.5 15h-149q-28 0 -40 -0.5 t-28.5 -4.5t-22.5 -12.5t-10.5 -24t-4.5 -39.5v-61z" />
<glyph unicode="&#xa8;" horiz-adv-x="424" d="M68 582q0 17 17 17t17 -17q0 -18 -17 -18t-17 18zM322 582q0 17 18 17q17 0 17 -17q0 -18 -17 -18q-8 0 -13 5t-5 13z" />
<glyph unicode="&#xa9;" horiz-adv-x="864" d="M74 368q0 53 6.5 101t23.5 97t43 85t69.5 58.5t98.5 22.5h256q56 0 98 -26.5t64 -65t36 -91.5t17.5 -94.5t3.5 -86.5q0 -100 -22.5 -181t-73.5 -134t-123 -53h-256q-65 0 -114.5 38t-75.5 97t-38.5 118t-12.5 115zM88 368q-1 -61 13 -122t41 -113.5t72 -85.5t101 -33h256 q89 0 147 93.5t58 260.5q0 101 -19 176.5t-66.5 124.5t-119.5 49h-256q-35 0 -66 -10t-61 -35.5t-51 -64t-34.5 -100t-14.5 -140.5zM250 365q0 114 39 166t105 52q83 0 178 -17v-9q-84 12 -178 12q-130 0 -130 -207q0 -99 30.5 -150t99.5 -51q116 0 184 16v-9 q-75 -21 -184 -21q-67 0 -105.5 47.5t-38.5 170.5z" />
<glyph unicode="&#xaa;" horiz-adv-x="360" d="M40 291v13h280v-13h-280zM40 463v46q0 41 27 65.5t73 24.5q162 -1 162 0q1 31 0 32q0 92 -108 92q-66 0 -142 -16v10q66 21 150 22q51 1 83.5 -25t32.5 -78v-258h-10l-6 49l-11 -5q-11 -6 -28.5 -14t-37.5 -15.5t-43.5 -13t-41.5 -5.5q-41 0 -70.5 23.5t-29.5 65.5z M57 466q0 -76 89 -76q27 0 66 12t64 24l26 12v151l-156 -4q-89 0 -89 -82v-37z" />
<glyph unicode="&#xab;" horiz-adv-x="548" d="M68 354l204 204l18 -17l-188 -187l194 -191l-18 -18zM252 354l206 204l16 -17l-188 -187l194 -191l-18 -18z" />
<glyph unicode="&#xac;" horiz-adv-x="532" d="M68 281v24h396v-146h-24v122h-372z" />
<glyph unicode="&#xad;" horiz-adv-x="368" d="M27 278v24h314v-24h-314z" />
<glyph unicode="&#xae;" horiz-adv-x="864" d="M74 368q0 53 6.5 101t23.5 97t43 85t69.5 58.5t98.5 22.5h256q56 0 98 -26.5t64 -65t36 -91.5t17.5 -94.5t3.5 -86.5q0 -100 -22.5 -181t-73.5 -134t-123 -53h-256q-65 0 -114.5 38t-75.5 97t-38.5 118t-12.5 115zM88 368q-1 -61 13 -122t41 -113.5t72 -85.5t101 -33h256 q89 0 147 93.5t58 260.5q0 101 -19 176.5t-66.5 124.5t-119.5 49h-256q-35 0 -66 -10t-61 -35.5t-51 -64t-34.5 -100t-14.5 -140.5zM285 153v427h177q58 0 91 -26.5t33 -99.5q0 -24 -4 -42t-12.5 -29t-16 -18.5t-21 -11t-20.5 -5t-21 -2t-16 -0.5l111 -193h-17l-111 192 l-159 5v-197h-14zM299 359h169q55 0 79.5 18.5t24.5 75.5q0 62 -26.5 87.5t-77.5 25.5h-169v-207z" />
<glyph unicode="&#xaf;" horiz-adv-x="387" d="M68 531v15h252v-15h-252z" />
<glyph unicode="&#xb0;" horiz-adv-x="338" d="M68 632q0 43 30 73t72 30t71 -30t29 -73t-29 -72.5t-71 -29.5t-72 29.5t-30 72.5zM82 632q0 -36 26 -61.5t62 -25.5t61 25.5t25 61.5t-25 62t-61 26t-62 -26t-26 -62z" />
<glyph unicode="&#xb1;" horiz-adv-x="535" d="M76 137v24h386v-24h-386zM76 411v24h181v181h24v-181h181v-24h-181v-181h-24v181h-181z" />
<glyph unicode="&#xb2;" horiz-adv-x="411" d="M42 820l-1 10l1 1q58 7 183 7q130 0 130 -136q0 -18 -7 -38.5t-17.5 -39.5t-28 -41t-33.5 -40t-38 -39.5t-38 -36t-38 -33t-32.5 -26.5t-26.5 -21l-17 -13h275v-18h-309v14q3 2 27.5 21.5t37 30t40 33.5t45 40t42 40.5t39.5 43.5t30.5 41.5t22.5 41.5t7 37q0 58 -25 89.5 t-92 31.5h-177z" />
<glyph unicode="&#xb3;" horiz-adv-x="437" d="M40 815v10q41 8 196 8q62 0 91.5 -30.5t29.5 -79.5v-35q0 -38 -29.5 -63.5t-53.5 -27.5q24 -5 53.5 -31t29.5 -67v-28q0 -58 -28.5 -88.5t-98.5 -30.5q-135 0 -186 11v7h178q63 0 89.5 22.5t26.5 82.5v23q0 42 -34 65.5t-78 24.5l-142 4v10l142 4q48 2 81 24.5t33 58.5 v35q0 91 -106 91h-194z" />
<glyph unicode="&#xb4;" horiz-adv-x="201" d="M27 531l121 133h26l-133 -133h-14z" />
<glyph unicode="&#xb5;" horiz-adv-x="620" d="M122 -270v802h24v-370q0 -62 38 -104t102 -42q62 0 109 14t107 47v455h24v-531h-14l-10 62q-108 -71 -216 -71q-96 0 -140 77v-339h-24z" />
<glyph unicode="&#xb6;" horiz-adv-x="572" d="M54 499v93q0 67 46.5 103.5t109.5 36.5h335v-26h-69v-706h-24v708h-164v-978h-24v635q-16 -11 -54 -10q-74 0 -115 41t-41 103zM78 501q0 -38 16 -64.5t40.5 -38t42.5 -15.5t33 -4h54v329h-54q-62 0 -97 -33.5t-35 -84.5v-89z" />
<glyph unicode="&#xb7;" horiz-adv-x="264" d="M115 376v12q0 12 12 12h11q12 0 12 -12v-12q0 -12 -12 -12h-11q-12 0 -12 12z" />
<glyph unicode="&#xb8;" horiz-adv-x="267" d="M68 -166l32 5q24 4 36 8t25 16t17.5 36.5t3.5 63.5h17q0 -77 -20 -106.5t-81 -29.5h-30v7z" />
<glyph unicode="&#xb9;" horiz-adv-x="255" d="M22 768v9l128 55h18v-476h-18v458z" />
<glyph unicode="&#xba;" horiz-adv-x="381" d="M40 550q0 110 29.5 148.5t122.5 38.5q92 0 120 -38t28 -149q0 -101 -28.5 -139t-119.5 -38q-92 0 -122 38.5t-30 138.5zM52 291v13h280v-13h-280zM56 550q0 -96 27.5 -128.5t108.5 -32.5q79 0 105.5 30.5t26.5 130.5q0 104 -24.5 137.5t-107.5 33.5q-56 0 -83 -12.5 t-40 -48.5t-13 -110z" />
<glyph unicode="&#xbb;" horiz-adv-x="548" d="M68 163l194 191l-188 187l16 17l206 -204l-210 -209zM252 163l194 191l-188 187l18 17l204 -204l-210 -209z" />
<glyph unicode="&#xbc;" horiz-adv-x="876" d="M22 668v9l128 55h18v-476h-18v458zM212 0l386 770h18l-386 -770h-18zM481 177l190 298h20l-184 -289h265v121l9 48h9v-169h59v-8l-59 -11v-166h-18v166h-287z" />
<glyph unicode="&#xbd;" horiz-adv-x="944" d="M22 668v9l128 55h18v-476h-18v458zM199 0l386 770h18l-386 -770h-18zM577 465l-1 10l1 1q58 7 183 7q130 0 130 -136q0 -18 -7 -38.5t-17.5 -39.5t-28 -41t-33.5 -40t-38 -39.5t-38 -36t-38 -33t-32.5 -26.5t-27.5 -21l-16 -13h275v-18h-309v14q3 2 27.5 21.5t37 30 t40 33.5t45 40t42 40.5t39.5 43.5t30.5 41.5t22.5 41.5t7 37q0 58 -25 89.5t-92 31.5h-177z" />
<glyph unicode="&#xbe;" horiz-adv-x="1001" d="M40 715v10q41 8 196 8q62 0 91.5 -30.5t29.5 -79.5v-35q0 -38 -29.5 -63.5t-53.5 -27.5q24 -5 53.5 -31t29.5 -67v-28q0 -58 -28.5 -88.5t-98.5 -30.5q-135 0 -186 11v7h178q63 0 89.5 22.5t26.5 82.5v23q0 42 -34 65.5t-78 24.5l-142 4v10l142 4q48 2 81 24.5t33 58.5 v35q0 91 -106 91h-194zM330 0l386 770h18l-386 -770h-18zM564 177l190 298h20l-184 -289h264v121l10 48h8v-169h60v-8l-60 -11v-166h-18v166h-286z" />
<glyph unicode="&#xbf;" horiz-adv-x="530" d="M53 18q0 100 62 135t205 21v102h26v-122h-106q-81 0 -122 -31.5t-41 -104.5v-102q0 -89 40.5 -124.5t135.5 -35.5h251v-14q-87 -10 -252 -10q-112 -2 -155.5 43.5t-43.5 140.5v102zM316 396v62q0 12 11 12h12q12 0 12 -12v-62q0 -12 -12 -12h-12q-11 0 -11 12z" />
<glyph unicode="&#xc0;" horiz-adv-x="659" d="M61 0l274 732h34l262 -732h-26l-91 253h-333l-94 -253h-26zM190 277h315l-153 431zM212 930h26l121 -133h-14z" />
<glyph unicode="&#xc1;" horiz-adv-x="659" d="M61 0l274 732h34l262 -732h-26l-91 253h-333l-94 -253h-26zM190 277h315l-153 431zM345 797l121 133h26l-133 -133h-14z" />
<glyph unicode="&#xc2;" horiz-adv-x="659" d="M61 0l274 732h34l262 -732h-26l-91 253h-333l-94 -253h-26zM190 277h315l-153 431zM216 797l132 130h20l120 -130h-18l-112 115l-124 -115h-18z" />
<glyph unicode="&#xc3;" horiz-adv-x="659" d="M61 0l274 732h34l262 -732h-26l-91 253h-333l-94 -253h-26zM183 828q22 19 35 29t33 19.5t38 9.5q20 0 65.5 -36.5t60.5 -36.5q36 0 100 53l6 -7q-20 -20 -33.5 -31.5t-33 -21t-39.5 -9.5q-22 0 -66.5 36.5t-59.5 36.5q-8 0 -15.5 -1t-15.5 -4.5t-13 -5.5t-15 -8.5 t-13.5 -9t-15 -11t-14.5 -10.5zM190 277h315l-153 431z" />
<glyph unicode="&#xc4;" horiz-adv-x="659" d="M61 0l274 732h34l262 -732h-26l-91 253h-333l-94 -253h-26zM190 277h315l-153 431zM208 814.5q0 7.5 4.5 12.5t12 5t12.5 -5t5 -12q0 -5 -2.5 -9t-6.5 -6.5t-9 -2.5q-7 0 -11.5 5t-4.5 12.5zM462 815q0 7 5 12t12.5 5t12 -5t4.5 -12q0 -4 -1 -7t-3 -5.5t-5.5 -4 t-6.5 -1.5q-8 0 -13 5.5t-5 12.5z" />
<glyph unicode="&#xc5;" horiz-adv-x="659" d="M61 0l274 732q-36 6 -60 34.5t-24 65.5q0 43 30 73t72 30t71 -30t29 -73q0 -25 -11 -47t-30 -36t-43 -18l262 -731h-26l-91 253h-333l-94 -253h-26zM190 277h315l-153 431zM265 832q0 -36 26 -61.5t62 -25.5t61 25.5t25 61.5t-25 62t-61 26t-62 -26t-26 -62z" />
<glyph unicode="&#xc6;" horiz-adv-x="933" d="M40 0l376 590q52 82 74 103q44 43 124 39l268 -10v-14h-268q-19 0 -34 -1t-25.5 -5t-18.5 -7t-12.5 -11t-7 -12.5t-3.5 -16.5l-1.5 -18t0 -21.5t0.5 -23.5v-217l330 -5v-14l-330 -5v-228q0 -62 30 -82t82 -20h258v-14l-258 -10q-60 -2 -98 23t-38 101v131h-258l-160 -252 h-30zM246 276h242v381z" />
<glyph unicode="&#xc7;" horiz-adv-x="570" d="M74 368q0 93 9.5 156.5t35.5 115t75 76t123 24.5q85 0 214 -24v-14l-7 1q-7 1 -19.5 2t-29 2.5t-36 3t-39.5 2.5t-42 2t-41 1q-78 0 -123.5 -28.5t-70.5 -106t-25 -215.5q0 -348 220 -348q47 0 100 3t83 6l30 3v-14q-118 -22 -214 -22q-243 0 -243 374zM213 -165l32 5 q24 4 36 8t25 16t17.5 36.5t3.5 63.5h17q0 -77 -20 -106.5t-81 -29.5h-30v7z" />
<glyph unicode="&#xc8;" horiz-adv-x="582" d="M108 123v479q0 69 36 100.5t90 29.5l297 -10v-14h-297q-102 0 -102 -106v-227l359 -5v-14l-359 -5v-228q0 -62 30 -82t82 -20h287v-14l-286 -10q-28 -1 -49.5 3t-43 16.5t-33 39.5t-11.5 67zM200 925h26l121 -133h-14z" />
<glyph unicode="&#xc9;" horiz-adv-x="582" d="M108 123v479q0 69 36 100.5t90 29.5l297 -10v-14h-297q-102 0 -102 -106v-227l359 -5v-14l-359 -5v-228q0 -62 30 -82t82 -20h287v-14l-286 -10q-28 -1 -49.5 3t-43 16.5t-33 39.5t-11.5 67zM332 792l121 133h26l-133 -133h-14z" />
<glyph unicode="&#xca;" horiz-adv-x="582" d="M108 123v479q0 69 36 100.5t90 29.5l297 -10v-14h-297q-102 0 -102 -106v-227l359 -5v-14l-359 -5v-228q0 -62 30 -82t82 -20h287v-14l-286 -10q-28 -1 -49.5 3t-43 16.5t-33 39.5t-11.5 67zM200 797l132 130h20l120 -130h-18l-112 115l-124 -115h-18z" />
<glyph unicode="&#xcb;" horiz-adv-x="582" d="M108 123v479q0 69 36 100.5t90 29.5l297 -10v-14h-297q-102 0 -102 -106v-227l359 -5v-14l-359 -5v-228q0 -62 30 -82t82 -20h287v-14l-286 -10q-28 -1 -49.5 3t-43 16.5t-33 39.5t-11.5 67zM179 843q0 17 17 17t17 -17q0 -18 -17 -18t-17 18zM433 843q0 17 18 17 q17 0 17 -17q0 -18 -17 -18q-7 0 -12.5 5.5t-5.5 12.5z" />
<glyph unicode="&#xcc;" horiz-adv-x="200" d="M-20 930h26l121 -133h-14zM108 0v732h24v-732h-24z" />
<glyph unicode="&#xcd;" horiz-adv-x="200" d="M108 0v732h24v-732h-24zM113 797l121 133h26l-133 -133h-14z" />
<glyph unicode="&#xce;" horiz-adv-x="200" d="M-16 797l132 130h20l120 -130h-18l-112 115l-124 -115h-18zM108 0v732h24v-732h-24z" />
<glyph unicode="&#xcf;" horiz-adv-x="200" d="M-24 815q0 7 4.5 12t12 5t12.5 -5t5 -12q0 -4 -1.5 -7t-3.5 -5.5t-5.5 -4t-7 -1.5t-7 1.5t-5.5 4t-3 5.5t-1 7zM108 0v732h24v-732h-24zM230 815q0 7 5 12t12.5 5t12 -5t4.5 -12q0 -4 -1 -7t-3 -5.5t-5.5 -4t-6.5 -1.5q-8 0 -13 5.5t-5 12.5z" />
<glyph unicode="&#xd0;" horiz-adv-x="671" d="M43 366v14h65v352h243q65 0 113.5 -24.5t75.5 -61.5t43.5 -89t21.5 -97t5 -97q0 -65 -15 -127t-44.5 -116t-81.5 -87t-118 -33h-243v366h-65zM132 24h219q60 0 107 32t74 83t40.5 109t13.5 116q0 173 -60.5 258.5t-174.5 85.5h-219v-328h159v-14h-159v-342z" />
<glyph unicode="&#xd1;" horiz-adv-x="665" d="M108 0v732h25l440 -686v686h24v-732h-24l-441 686v-686h-24zM184 828q16 14 26 22t24 17.5t28 14t28 4.5q20 0 65 -36.5t61 -36.5q17 0 39.5 11t31 18t29.5 24l6 -7q-16 -15 -26 -24t-23.5 -19t-27.5 -14.5t-29 -4.5q-23 0 -67 36.5t-59 36.5q-8 0 -15.5 -1t-16 -4.5 t-13.5 -5.5t-14.5 -8.5t-13 -9t-15.5 -11t-14 -10.5z" />
<glyph unicode="&#xd2;" horiz-adv-x="675" d="M88 361q0 101 12 170.5t32 110t56.5 62t73 27.5t94.5 6q48 0 80.5 -4t65.5 -17t53.5 -38.5t37 -66.5t24 -103t7.5 -147q0 -96 -11 -162t-30.5 -106t-55 -61.5t-74 -28.5t-97.5 -7q-61 0 -98 6t-73 26.5t-55 60t-30.5 106.5t-11.5 166zM112 361q0 -90 9 -150t25 -98.5 t47.5 -58.5t68 -27t94.5 -7q70 0 111.5 12t74 47.5t45.5 103.5t13 178q0 80 -6.5 138.5t-21.5 97t-33.5 62t-49 35.5t-59.5 15.5t-74 3.5q-33 0 -53.5 -1.5t-46.5 -6t-42.5 -15t-34.5 -27t-29 -43t-20.5 -62.5t-13.5 -85.5t-4 -111.5zM216 930h26l121 -133h-14z" />
<glyph unicode="&#xd3;" horiz-adv-x="675" d="M88 361q0 101 12 170.5t32 110t56.5 62t73 27.5t94.5 6q48 0 80.5 -4t65.5 -17t53.5 -38.5t37 -66.5t24 -103t7.5 -147q0 -96 -11 -162t-30.5 -106t-55 -61.5t-74 -28.5t-97.5 -7q-61 0 -98 6t-73 26.5t-55 60t-30.5 106.5t-11.5 166zM112 361q0 -90 9 -150t25 -98.5 t47.5 -58.5t68 -27t94.5 -7q70 0 111.5 12t74 47.5t45.5 103.5t13 178q0 80 -6.5 138.5t-21.5 97t-33.5 62t-49 35.5t-59.5 15.5t-74 3.5q-33 0 -53.5 -1.5t-46.5 -6t-42.5 -15t-34.5 -27t-29 -43t-20.5 -62.5t-13.5 -85.5t-4 -111.5zM349 797l121 133h26l-133 -133h-14z " />
<glyph unicode="&#xd4;" horiz-adv-x="675" d="M88 361q0 101 12 170.5t32 110t56.5 62t73 27.5t94.5 6q48 0 80.5 -4t65.5 -17t53.5 -38.5t37 -66.5t24 -103t7.5 -147q0 -96 -11 -162t-30.5 -106t-55 -61.5t-74 -28.5t-97.5 -7q-61 0 -98 6t-73 26.5t-55 60t-30.5 106.5t-11.5 166zM112 361q0 -90 9 -150t25 -98.5 t47.5 -58.5t68 -27t94.5 -7q70 0 111.5 12t74 47.5t45.5 103.5t13 178q0 80 -6.5 138.5t-21.5 97t-33.5 62t-49 35.5t-59.5 15.5t-74 3.5q-33 0 -53.5 -1.5t-46.5 -6t-42.5 -15t-34.5 -27t-29 -43t-20.5 -62.5t-13.5 -85.5t-4 -111.5zM220 797l132 130h20l120 -130h-18 l-112 115l-124 -115h-18z" />
<glyph unicode="&#xd5;" horiz-adv-x="675" d="M88 361q0 101 12 170.5t32 110t56.5 62t73 27.5t94.5 6q48 0 80.5 -4t65.5 -17t53.5 -38.5t37 -66.5t24 -103t7.5 -147q0 -96 -11 -162t-30.5 -106t-55 -61.5t-74 -28.5t-97.5 -7q-61 0 -98 6t-73 26.5t-55 60t-30.5 106.5t-11.5 166zM112 361q0 -90 9 -150t25 -98.5 t47.5 -58.5t68 -27t94.5 -7q70 0 111.5 12t74 47.5t45.5 103.5t13 178q0 80 -6.5 138.5t-21.5 97t-33.5 62t-49 35.5t-59.5 15.5t-74 3.5q-33 0 -53.5 -1.5t-46.5 -6t-42.5 -15t-34.5 -27t-29 -43t-20.5 -62.5t-13.5 -85.5t-4 -111.5zM187 828q22 19 35 29t33 19.5t38 9.5 q20 0 65.5 -36.5t60.5 -36.5q36 0 100 53l6 -7q-20 -20 -33.5 -31.5t-33 -21t-39.5 -9.5q-22 0 -66.5 36.5t-59.5 36.5q-8 0 -15.5 -1t-15.5 -4.5t-13 -5.5t-15 -8.5t-13.5 -9t-15 -11t-14.5 -10.5z" />
<glyph unicode="&#xd6;" horiz-adv-x="675" d="M88 361q0 101 12 170.5t32 110t56.5 62t73 27.5t94.5 6q48 0 80.5 -4t65.5 -17t53.5 -38.5t37 -66.5t24 -103t7.5 -147q0 -96 -11 -162t-30.5 -106t-55 -61.5t-74 -28.5t-97.5 -7q-61 0 -98 6t-73 26.5t-55 60t-30.5 106.5t-11.5 166zM112 361q0 -90 9 -150t25 -98.5 t47.5 -58.5t68 -27t94.5 -7q70 0 111.5 12t74 47.5t45.5 103.5t13 178q0 80 -6.5 138.5t-21.5 97t-33.5 62t-49 35.5t-59.5 15.5t-74 3.5q-33 0 -53.5 -1.5t-46.5 -6t-42.5 -15t-34.5 -27t-29 -43t-20.5 -62.5t-13.5 -85.5t-4 -111.5zM212 814.5q0 7.5 4.5 12.5t12 5 t12.5 -5t5 -12q0 -5 -2.5 -9t-6.5 -6.5t-9 -2.5q-7 0 -11.5 5t-4.5 12.5zM466 815q0 7 5 12t12.5 5t12 -5t4.5 -12q0 -4 -1 -7t-3 -5.5t-5.5 -4t-6.5 -1.5q-8 0 -13 5.5t-5 12.5z" />
<glyph unicode="&#xd7;" horiz-adv-x="438" d="M76 228l128 128l-128 128l17 17l128 -128l128 128l17 -17l-128 -128l128 -128l-17 -17l-128 128l-128 -128z" />
<glyph unicode="&#xd8;" horiz-adv-x="675" d="M88 361q0 101 12 170.5t32 110t56.5 62t73 27.5t94.5 6q71 0 117.5 -11t77.5 -44l32 50h18l-40 -62q63 -81 63 -309q0 -96 -11 -162t-30.5 -106t-55 -61.5t-74 -28.5t-97.5 -7q-73 0 -118.5 10t-76.5 41l-31 -47h-18l38 59q-62 77 -62 302zM112 361q0 -209 53 -279 l372 578q-28 32 -71 42.5t-110 10.5q-33 0 -53.5 -1.5t-46.5 -6t-42.5 -15t-34.5 -27t-29 -43t-20.5 -62.5t-13.5 -85.5t-4 -111.5zM175 70q28 -28 70.5 -39t110.5 -11q70 0 111.5 12t74 47.5t45.5 103.5t13 178q0 210 -53 286z" />
<glyph unicode="&#xd9;" horiz-adv-x="683" d="M108 320v412h24v-412q0 -44 2.5 -81t9 -65.5t12.5 -50.5t18.5 -38t22 -27.5t27.5 -18.5t30 -11.5t34 -6t36 -2t40 -0.5q37 0 61 2.5t53 12t47 29.5t34.5 52t24 83.5t7.5 121.5v412h24v-412q0 -48 -3.5 -88t-11.5 -70t-16 -54.5t-22.5 -41.5t-26 -29.5t-31 -20t-32.5 -12 t-35.5 -6.5t-35.5 -2.5t-37 -0.5q-98 0 -137 15q-86 32 -109 171q-10 58 -10 139zM222 930h26l120 -133h-14z" />
<glyph unicode="&#xda;" horiz-adv-x="683" d="M108 320v412h24v-412q0 -44 2.5 -81t9 -65.5t12.5 -50.5t18.5 -38t22 -27.5t27.5 -18.5t30 -11.5t34 -6t36 -2t40 -0.5q37 0 61 2.5t53 12t47 29.5t34.5 52t24 83.5t7.5 121.5v412h24v-412q0 -48 -3.5 -88t-11.5 -70t-16 -54.5t-22.5 -41.5t-26 -29.5t-31 -20t-32.5 -12 t-35.5 -6.5t-35.5 -2.5t-37 -0.5q-98 0 -137 15q-86 32 -109 171q-10 58 -10 139zM354 797l122 133h26l-134 -133h-14z" />
<glyph unicode="&#xdb;" horiz-adv-x="683" d="M108 320v412h24v-412q0 -44 2.5 -81t9 -65.5t12.5 -50.5t18.5 -38t22 -27.5t27.5 -18.5t30 -11.5t34 -6t36 -2t40 -0.5q37 0 61 2.5t53 12t47 29.5t34.5 52t24 83.5t7.5 121.5v412h24v-412q0 -48 -3.5 -88t-11.5 -70t-16 -54.5t-22.5 -41.5t-26 -29.5t-31 -20t-32.5 -12 t-35.5 -6.5t-35.5 -2.5t-37 -0.5q-98 0 -137 15q-86 32 -109 171q-10 58 -10 139zM226 797l132 130h20l120 -130h-18l-112 115l-124 -115h-18z" />
<glyph unicode="&#xdc;" horiz-adv-x="683" d="M108 320v412h24v-412q0 -44 2.5 -81t9 -65.5t12.5 -50.5t18.5 -38t22 -27.5t27.5 -18.5t30 -11.5t34 -6t36 -2t40 -0.5q37 0 61 2.5t53 12t47 29.5t34.5 52t24 83.5t7.5 121.5v412h24v-412q0 -48 -3.5 -88t-11.5 -70t-16 -54.5t-22.5 -41.5t-26 -29.5t-31 -20t-32.5 -12 t-35.5 -6.5t-35.5 -2.5t-37 -0.5q-98 0 -137 15q-86 32 -109 171q-10 58 -10 139zM217 815q0 17 17 17t17 -17q0 -18 -17 -18t-17 18zM471 815q0 17 18 17q17 0 17 -17q0 -18 -17 -18q-7 0 -12.5 5.5t-5.5 12.5z" />
<glyph unicode="&#xdd;" horiz-adv-x="619" d="M61 732h27l228 -441l248 441h27l-263 -472v-260h-24v260zM319 797l121 133h26l-133 -133h-14z" />
<glyph unicode="&#xde;" horiz-adv-x="554" d="M81 0v729h24v-141h217q176 0 176 -213q0 -59 -11.5 -102t-28.5 -66t-42.5 -37t-46.5 -17.5t-47 -3.5q-178 4 -217 10v-159h-24zM105 173h217q75 0 113.5 46t38.5 158q0 47 -10 82t-24.5 54.5t-36 31t-40 15.5t-41.5 4h-217v-391z" />
<glyph unicode="&#xdf;" horiz-adv-x="566" d="M81 0v566q0 92 53 151.5t155 59.5q71 0 118.5 -17.5t67 -45t23 -62t-9 -68.5t-35 -64t-49.5 -49q-19 -15 -48.5 -35t-41.5 -29t-22 -24.5t-10 -34.5q0 -31 26.5 -46.5t64.5 -20t76 -11t65 -28.5t27 -63v-47q0 -67 -42.5 -103.5t-115.5 -36.5q-98 0 -173 15v14 q95 -5 173 -5q40 0 68.5 11.5t41.5 30.5t18.5 37t5.5 37v47q1 34 -25.5 51t-65 21.5t-76.5 10t-65 26t-27 60.5q0 35 19.5 56t86.5 67q17 12 27 19q26 18 49.5 51t30.5 65q17 71 -30.5 109t-151.5 38q-87 0 -135.5 -49t-48.5 -138v-566h-24z" />
<glyph unicode="&#xe0;" horiz-adv-x="520" d="M54 126v61q0 63 35.5 98t97.5 35q242 -1 242 0q1 66 0 67q0 131 -130 132q-72 1 -228 -23v14q122 30 229 31q67 1 110 -37.5t43 -116.5v-387h-15l-9 64l-16 -7q-16 -7 -42 -17.5t-56.5 -21t-65.5 -17.5t-62 -7q-57 0 -95 35t-38 97zM78 131q0 -58 32.5 -85t76.5 -28 q36 -1 96.5 14t102.5 30l43 16v228l-242 -10q-109 -4 -109 -109v-56zM131 734h26l121 -133h-14z" />
<glyph unicode="&#xe1;" horiz-adv-x="520" d="M54 126v61q0 63 35.5 98t97.5 35q242 -1 242 0q1 66 0 67q0 131 -130 132q-72 1 -228 -23v14q122 30 229 31q67 1 110 -37.5t43 -116.5v-387h-15l-9 64l-16 -7q-16 -7 -42 -17.5t-56.5 -21t-65.5 -17.5t-62 -7q-57 0 -95 35t-38 97zM78 131q0 -58 32.5 -85t76.5 -28 q36 -1 96.5 14t102.5 30l43 16v228l-242 -10q-109 -4 -109 -109v-56zM258 601l121 133h26l-133 -133h-14z" />
<glyph unicode="&#xe2;" horiz-adv-x="520" d="M54 126v61q0 63 35.5 98t97.5 35q242 -1 242 0q1 66 0 67q0 131 -130 132q-72 1 -228 -23v14q122 30 229 31q67 1 110 -37.5t43 -116.5v-387h-15l-9 64l-16 -7q-16 -7 -42 -17.5t-56.5 -21t-65.5 -17.5t-62 -7q-57 0 -95 35t-38 97zM78 131q0 -58 32.5 -85t76.5 -28 q36 -1 96.5 14t102.5 30l43 16v228l-242 -10q-109 -4 -109 -109v-56zM133 601l132 130h20l120 -130h-18l-112 115l-124 -115h-18z" />
<glyph unicode="&#xe3;" horiz-adv-x="520" d="M54 126v61q0 63 35.5 98t97.5 35q242 -1 242 0q1 66 0 67q0 131 -130 132q-72 1 -228 -23v14q122 30 229 31q67 1 110 -37.5t43 -116.5v-387h-15l-9 64l-16 -7q-16 -7 -42 -17.5t-56.5 -21t-65.5 -17.5t-62 -7q-57 0 -95 35t-38 97zM78 131q0 -58 32.5 -85t76.5 -28 q36 -1 96.5 14t102.5 30l43 16v228l-242 -10q-109 -4 -109 -109v-56zM95 642q22 19 35 29t33 19.5t38 9.5q20 0 65.5 -36.5t60.5 -36.5q36 0 100 53l6 -7q-20 -20 -33.5 -31.5t-33 -21t-39.5 -9.5q-22 0 -66.5 36.5t-59.5 36.5q-8 0 -15.5 -1t-15.5 -4.5t-13 -5.5t-15 -8.5 t-13.5 -9t-15 -11t-14.5 -10.5z" />
<glyph unicode="&#xe4;" horiz-adv-x="520" d="M54 126v61q0 63 35.5 98t97.5 35q242 -1 242 0q1 66 0 67q0 131 -130 132q-72 1 -228 -23v14q122 30 229 31q67 1 110 -37.5t43 -116.5v-387h-15l-9 64l-16 -7q-16 -7 -42 -17.5t-56.5 -21t-65.5 -17.5t-62 -7q-57 0 -95 35t-38 97zM78 131q0 -58 32.5 -85t76.5 -28 q36 -1 96.5 14t102.5 30l43 16v228l-242 -10q-109 -4 -109 -109v-56zM124 652q0 17 17 17t17 -17q0 -18 -17 -18t-17 18zM378 652q0 17 18 17q17 0 17 -17q0 -18 -17 -18q-8 0 -13 5t-5 13z" />
<glyph unicode="&#xe5;" horiz-adv-x="520" d="M54 126v61q0 63 35.5 98t97.5 35q242 -1 242 0q1 66 0 67q0 131 -130 132q-72 1 -228 -23v14q122 30 229 31q67 1 110 -37.5t43 -116.5v-387h-15l-9 64l-16 -7q-16 -7 -42 -17.5t-56.5 -21t-65.5 -17.5t-62 -7q-57 0 -95 35t-38 97zM78 131q0 -58 32.5 -85t76.5 -28 q36 -1 96.5 14t102.5 30l43 16v228l-242 -10q-109 -4 -109 -109v-56zM163 673q0 43 30 73t72 30t71 -30t29 -73t-29 -72.5t-71 -29.5t-72 29.5t-30 72.5zM177 673q0 -36 26 -61.5t62 -25.5t61 25.5t25 61.5t-25 62t-61 26t-62 -26t-26 -62z" />
<glyph unicode="&#xe6;" horiz-adv-x="889" d="M54 126v29q0 63 35.5 98t97.5 35q242 -1 242 0q1 98 0 99q0 131 -130 132q-72 1 -228 -23v14q122 30 229 31q55 1 95 -25.5t53 -80.5q14 57 58 78t126 21q34 0 50 -0.5t42.5 -3.5t39 -9.5t29 -19t24 -31t13 -46.5t5.5 -65q0 -56 -33.5 -76.5t-103.5 -20.5h-244 q-2 -57 0 -98.5t7 -69t22 -44.5t45.5 -24t76.5 -8q78 -1 220 20v-16q-99 -28 -220 -28q-45 0 -77.5 7t-49 21t-22.5 21t-12 20l-18 -7q-17 -7 -45.5 -17t-61 -20.5t-69 -17.5t-63.5 -7q-57 0 -95 35t-38 97zM78 131q0 -58 32.5 -85t76.5 -28q36 -1 96.5 16t102.5 34l43 17 v185l-242 -6q-109 -3 -109 -109v-24zM454 285h244q28 0 45 2t34.5 8.5t25.5 22.5t8 41q0 37 -4 63t-15.5 43t-22 26t-36 13t-43.5 5t-57 1q-111 0 -144 -42t-35 -183z" />
<glyph unicode="&#xe7;" horiz-adv-x="501" d="M68 266q0 84 12 139.5t37 83t54 37.5t71 10q83 0 198 -26v-14q-109 16 -198 16q-38 0 -62.5 -9t-46 -34.5t-31.5 -76.5t-10 -130q0 -75 11 -124.5t32.5 -74.5t46.5 -34.5t60 -9.5q41 0 92.5 5.5t82.5 10.5l31 5v-16q-98 -28 -206 -29q-41 0 -69.5 10t-54 37.5t-38 83.5 t-12.5 140zM159 -164l33 5q24 4 36 8t25 16t17.5 36.5t3.5 63.5h17q0 -77 -20 -106.5t-81 -29.5h-31v7z" />
<glyph unicode="&#xe8;" horiz-adv-x="526" d="M68 268q0 71 7.5 118t20.5 77t39 45.5t56.5 21t78.5 5.5q42 0 68 -2.5t54.5 -13t44 -30t25.5 -55t10 -87.5q0 -56 -33 -76.5t-103 -20.5h-244q0 -73 10.5 -120.5t32.5 -71t46.5 -31.5t60.5 -8q84 0 220 20v-16q-104 -29 -220 -28q-100 1 -137 62t-37 211zM92 273h244 q26 0 42 2t34 8.5t27 22.5t9 41q0 55 -10.5 88.5t-35.5 50t-53.5 21t-78.5 4.5q-74 0 -109.5 -16.5t-52 -66.5t-16.5 -155zM145 724h26l121 -133h-14z" />
<glyph unicode="&#xe9;" horiz-adv-x="526" d="M68 268q0 71 7.5 118t20.5 77t39 45.5t56.5 21t78.5 5.5q42 0 68 -2.5t54.5 -13t44 -30t25.5 -55t10 -87.5q0 -56 -33 -76.5t-103 -20.5h-244q0 -73 10.5 -120.5t32.5 -71t46.5 -31.5t60.5 -8q84 0 220 20v-16q-104 -29 -220 -28q-100 1 -137 62t-37 211zM92 273h244 q26 0 42 2t34 8.5t27 22.5t9 41q0 55 -10.5 88.5t-35.5 50t-53.5 21t-78.5 4.5q-74 0 -109.5 -16.5t-52 -66.5t-16.5 -155zM272 591l121 133h26l-133 -133h-14z" />
<glyph unicode="&#xea;" horiz-adv-x="526" d="M68 268q0 71 7.5 118t20.5 77t39 45.5t56.5 21t78.5 5.5q42 0 68 -2.5t54.5 -13t44 -30t25.5 -55t10 -87.5q0 -56 -33 -76.5t-103 -20.5h-244q0 -73 10.5 -120.5t32.5 -71t46.5 -31.5t60.5 -8q84 0 220 20v-16q-104 -29 -220 -28q-100 1 -137 62t-37 211zM92 273h244 q26 0 42 2t34 8.5t27 22.5t9 41q0 55 -10.5 88.5t-35.5 50t-53.5 21t-78.5 4.5q-74 0 -109.5 -16.5t-52 -66.5t-16.5 -155zM135 591l132 130h20l120 -130h-18l-112 115l-124 -115h-18z" />
<glyph unicode="&#xeb;" horiz-adv-x="526" d="M68 268q0 71 7.5 118t20.5 77t39 45.5t56.5 21t78.5 5.5q42 0 68 -2.5t54.5 -13t44 -30t25.5 -55t10 -87.5q0 -56 -33 -76.5t-103 -20.5h-244q0 -73 10.5 -120.5t32.5 -71t46.5 -31.5t60.5 -8q84 0 220 20v-16q-104 -29 -220 -28q-100 1 -137 62t-37 211zM92 273h244 q26 0 42 2t34 8.5t27 22.5t9 41q0 55 -10.5 88.5t-35.5 50t-53.5 21t-78.5 4.5q-74 0 -109.5 -16.5t-52 -66.5t-16.5 -155zM133 642q0 17 17 17t17 -17q0 -18 -17 -18t-17 18zM387 642q0 17 18 17q17 0 17 -17q0 -18 -17 -18q-7 0 -12.5 5t-5.5 13z" />
<glyph unicode="&#xec;" horiz-adv-x="186" d="M-47 729h26l121 -133h-14zM81 0v531h24v-531h-24z" />
<glyph unicode="&#xed;" horiz-adv-x="186" d="M81 0v531h24v-531h-24zM86 596l121 133h26l-133 -133h-14z" />
<glyph unicode="&#xee;" horiz-adv-x="186" d="M-43 596l132 130h20l120 -130h-18l-112 115l-124 -115h-18zM81 0v531h24v-531h-24z" />
<glyph unicode="&#xef;" horiz-adv-x="186" d="M-52 614q0 8 5 12.5t12.5 4.5t12 -4.5t4.5 -12.5q0 -5 -2 -9t-6 -6.5t-8 -2.5q-8 0 -13 5t-5 13zM81 0v531h24v-531h-24zM202 613.5q0 7.5 5.5 12.5t13 5t12.5 -4.5t5 -12.5q0 -5 -2.5 -9t-6.5 -6.5t-9 -2.5q-7 0 -12.5 5t-5.5 12.5z" />
<glyph unicode="&#xf0;" horiz-adv-x="540" d="M54 264q0 134 40.5 200.5t137.5 66.5h70q57 0 93.5 -22.5t46.5 -43.5q-27 144 -102 219l-161 -64l-5 14l154 61q-78 66 -190 67v21q127 0 214 -79l128 51l6 -14l-122 -48q118 -125 118 -429q0 -142 -47 -203t-133 -61h-70q-100 0 -139 62.5t-39 201.5zM78 264 q0 -74 10 -122t31 -73t47.5 -34t65.5 -9h70q46 0 77.5 18t48 52.5t23.5 74.5t7 93q0 39 -2.5 68t-11.5 64t-25 57.5t-46 38t-71 15.5h-70q-36 0 -62 -10t-48 -35.5t-33 -75t-11 -122.5z" />
<glyph unicode="&#xf1;" d="M81 0v531h14l10 -62q108 71 216 71q76 0 120 -50t44 -120v-370h-24v370q0 62 -38 104t-102 42q-62 0 -109 -14t-107 -47v-455h-24zM114 631q22 19 35 29t33 19.5t38 9.5q20 0 65.5 -36.5t60.5 -36.5q36 0 100 53l6 -7q-20 -20 -33.5 -31.5t-33 -21t-39.5 -9.5 q-22 0 -66.5 36.5t-59.5 36.5q-8 0 -15.5 -1t-15.5 -4.5t-13 -5.5t-15 -8.5t-13.5 -9t-15 -11t-14.5 -10.5z" />
<glyph unicode="&#xf2;" horiz-adv-x="573" d="M68 258q0 160 48 219t170 59q125 0 172.5 -65.5t47.5 -212.5t-47.5 -205t-172.5 -58q-128 0 -173 58t-45 205zM92 258q0 -78 11.5 -126.5t38.5 -72.5t59 -32t85 -8q52 0 85.5 9t60 34.5t38.5 73t12 122.5q0 79 -13 130.5t-40.5 78t-60 36t-82.5 9.5q-51 0 -82 -7.5 t-59 -32t-40.5 -77t-12.5 -137.5zM146 729h26l121 -133h-14z" />
<glyph unicode="&#xf3;" horiz-adv-x="573" d="M68 258q0 160 48 219t170 59q125 0 172.5 -65.5t47.5 -212.5t-47.5 -205t-172.5 -58q-128 0 -173 58t-45 205zM92 258q0 -78 11.5 -126.5t38.5 -72.5t59 -32t85 -8q52 0 85.5 9t60 34.5t38.5 73t12 122.5q0 79 -13 130.5t-40.5 78t-60 36t-82.5 9.5q-51 0 -82 -7.5 t-59 -32t-40.5 -77t-12.5 -137.5zM279 596l121 133h26l-133 -133h-14z" />
<glyph unicode="&#xf4;" horiz-adv-x="573" d="M68 258q0 160 48 219t170 59q125 0 172.5 -65.5t47.5 -212.5t-47.5 -205t-172.5 -58q-128 0 -173 58t-45 205zM92 258q0 -78 11.5 -126.5t38.5 -72.5t59 -32t85 -8q52 0 85.5 9t60 34.5t38.5 73t12 122.5q0 79 -13 130.5t-40.5 78t-60 36t-82.5 9.5q-51 0 -82 -7.5 t-59 -32t-40.5 -77t-12.5 -137.5zM150 596l132 130h20l120 -130h-18l-112 115l-124 -115h-18z" />
<glyph unicode="&#xf5;" horiz-adv-x="573" d="M68 258q0 160 48 219t170 59q125 0 172.5 -65.5t47.5 -212.5t-47.5 -205t-172.5 -58q-128 0 -173 58t-45 205zM92 258q0 -78 11.5 -126.5t38.5 -72.5t59 -32t85 -8q52 0 85.5 9t60 34.5t38.5 73t12 122.5q0 79 -13 130.5t-40.5 78t-60 36t-82.5 9.5q-51 0 -82 -7.5 t-59 -32t-40.5 -77t-12.5 -137.5zM117 627q22 19 35 29t33 19.5t38 9.5q20 0 65.5 -36.5t60.5 -36.5q36 0 100 53l6 -7q-20 -20 -33.5 -31.5t-33 -21t-39.5 -9.5q-22 0 -66.5 36.5t-59.5 36.5q-8 0 -15.5 -1t-15.5 -4.5t-13 -5.5t-15 -8.5t-13.5 -9t-15 -11t-14.5 -10.5z " />
<glyph unicode="&#xf6;" horiz-adv-x="573" d="M68 258q0 160 48 219t170 59q125 0 172.5 -65.5t47.5 -212.5t-47.5 -205t-172.5 -58q-128 0 -173 58t-45 205zM92 258q0 -78 11.5 -126.5t38.5 -72.5t59 -32t85 -8q52 0 85.5 9t60 34.5t38.5 73t12 122.5q0 79 -13 130.5t-40.5 78t-60 36t-82.5 9.5q-51 0 -82 -7.5 t-59 -32t-40.5 -77t-12.5 -137.5zM142 614q0 8 4.5 12.5t12 4.5t12.5 -4.5t5 -12.5q0 -5 -2.5 -9t-6.5 -6.5t-8.5 -2.5t-8.5 2.5t-6 6.5t-2 9zM396 614q0 5 2 9t6.5 6t9.5 2q7 0 11.5 -4.5t4.5 -12.5q0 -5 -2 -9t-6 -6.5t-8 -2.5q-8 0 -13 5t-5 13z" />
<glyph unicode="&#xf7;" horiz-adv-x="551" d="M68 341v24h416v-24h-416zM262 159v42q0 12 12 12h11q12 0 12 -12v-42q0 -12 -12 -12h-11q-12 0 -12 12zM262 494v43q0 12 12 12h11q12 0 12 -12v-43q0 -11 -12 -11h-11q-12 0 -12 11z" />
<glyph unicode="&#xf8;" horiz-adv-x="573" d="M68 258q0 160 48 219t170 59q105 0 155 -46l31 41h18l-39 -52q55 -62 55 -221q0 -147 -47.5 -205t-172.5 -58q-112 0 -161 45l-29 -40h-18l37 50q-47 55 -47 208zM92 258q0 -133 39 -186l296 399q-41 41 -141 41q-51 0 -82 -7.5t-59 -32.5t-40.5 -77.5t-12.5 -136.5z M140 60q40 -41 146 -41q52 0 85 8.5t60 33.5t39 73t12 124q0 143 -46 202z" />
<glyph unicode="&#xf9;" d="M68 162v370h24v-370q0 -62 38 -104t102 -42q62 0 109 14t107 47v455h24v-531h-14l-10 62q-108 -71 -216 -71q-76 0 -120 50t-44 120zM130 729h26l121 -133h-14z" />
<glyph unicode="&#xfa;" d="M68 162v370h24v-370q0 -62 38 -104t102 -42q62 0 109 14t107 47v455h24v-531h-14l-10 62q-108 -71 -216 -71q-76 0 -120 50t-44 120zM263 596l121 133h26l-133 -133h-14z" />
<glyph unicode="&#xfb;" d="M68 162v370h24v-370q0 -62 38 -104t102 -42q62 0 109 14t107 47v455h24v-531h-14l-10 62q-108 -71 -216 -71q-76 0 -120 50t-44 120zM134 596l132 130h20l120 -130h-18l-112 115l-124 -115h-18z" />
<glyph unicode="&#xfc;" d="M68 162v370h24v-370q0 -62 38 -104t102 -42q62 0 109 14t107 47v455h24v-531h-14l-10 62q-108 -71 -216 -71q-76 0 -120 50t-44 120zM126 614q0 8 4.5 12.5t12 4.5t12.5 -4.5t5 -12.5q0 -5 -2.5 -9t-6.5 -6.5t-9 -2.5q-7 0 -11.5 5t-4.5 13zM380 614q0 5 2 9t6.5 6t9.5 2 q7 0 11.5 -4.5t4.5 -12.5q0 -5 -2 -9t-6 -6.5t-8 -2.5q-8 0 -13 5t-5 13z" />
<glyph unicode="&#xfd;" horiz-adv-x="529" d="M28 531h26l148 -415q16 -46 41.5 -68.5t42.5 -22.5h17l171 506h25l-233 -699l-46 -102h-12l87 270q-84 4 -117 110zM256 596l122 133h26l-134 -133h-14z" />
<glyph unicode="&#xfe;" horiz-adv-x="562" d="M94 -270v1052h24v-311q24 18 97 43.5t119 25.5q49 0 84.5 -23t54 -63t27 -86t8.5 -101q0 -46 -3 -81t-14 -73.5t-29 -64t-51 -42t-77 -16.5q-40 0 -106 10.5t-110 28.5v-299h-24zM118 43q103 -29 216 -29q80 0 115 61t35 194q0 125 -40.5 186t-109.5 61q-13 0 -28 -2 t-26.5 -3.5t-29.5 -7t-26.5 -8t-29.5 -10t-25.5 -9t-27 -10.5t-23.5 -9v-414z" />
<glyph unicode="&#xff;" horiz-adv-x="529" d="M28 531h26l148 -415q16 -46 41.5 -68.5t42.5 -22.5h17l171 506h25l-233 -699l-46 -102h-12l87 270q-84 4 -117 110zM119 614q0 17 17 17t17 -17q0 -18 -17 -18t-17 18zM373 614q0 17 18 17q17 0 17 -17q0 -18 -17 -18q-7 0 -12.5 5t-5.5 13z" />
<glyph unicode="&#x152;" horiz-adv-x="1054" d="M88 361q0 101 12 170.5t32 110t56.5 62t73 27.5t94.5 6q51 0 84.5 -4.5t66.5 -19t55.5 -44t36.5 -76.5q0 73 35 107t91 32l267 -10v-14h-267q-102 0 -102 -106q0 -153 1 -227l328 -5v-14l-328 -5l-1 -228q0 -62 30 -82t82 -20h257v-14l-257 -10q-64 -3 -100 26.5 t-36 112.5q-27 -84 -83 -112t-160 -28q-61 0 -98 6t-73 26.5t-55 60t-30.5 106.5t-11.5 166zM112 361q0 -90 9 -150t25 -98.5t47.5 -58.5t68 -27t94.5 -7q99 0 149 27.5t72 101.5t22 221q0 91 -10 152.5t-27 99.5t-49 58t-67 26.5t-90 6.5q-33 0 -53.5 -1.5t-46.5 -6 t-42.5 -15t-34.5 -27t-29 -43t-20.5 -62.5t-13.5 -85.5t-4 -111.5z" />
<glyph unicode="&#x153;" horiz-adv-x="940" d="M68 258q0 160 48 219t170 59q89 0 138 -33t67 -102q15 82 58 108t135 26q42 0 68 -2.5t54.5 -13t44 -30t25.5 -55t10 -87.5q0 -56 -33 -76.5t-103 -20.5h-244q0 -73 10.5 -120.5t32.5 -71t46.5 -31.5t60.5 -8q84 0 220 20v-16q-104 -29 -220 -28q-72 1 -110 31.5 t-53 99.5q-18 -71 -66 -101t-141 -30q-128 0 -173 58t-45 205zM92 258q0 -78 11.5 -126.5t38.5 -72.5t59 -32t85 -8q52 0 85.5 9t60 34.5t38.5 73t12 122.5q0 79 -13 130.5t-40.5 78t-60 36t-82.5 9.5q-51 0 -82 -7.5t-59 -32t-40.5 -77t-12.5 -137.5zM506 273h244 q26 0 42 2t34 8.5t27 22.5t9 41q0 55 -10.5 88.5t-35.5 50t-53.5 21t-78.5 4.5q-74 0 -109.5 -16.5t-52 -66.5t-16.5 -155z" />
<glyph unicode="&#x178;" horiz-adv-x="619" d="M61 732h27l228 -441l248 441h27l-263 -472v-260h-24v260zM182 814.5q0 7.5 4.5 12.5t12 5t12.5 -5t5 -12q0 -5 -2.5 -9t-6.5 -6.5t-9 -2.5q-7 0 -11.5 5t-4.5 12.5zM436 815q0 7 5 12t12.5 5t12 -5t4.5 -12q0 -4 -1 -7t-3 -5.5t-5.5 -4t-6.5 -1.5q-8 0 -13 5.5t-5 12.5z " />
<glyph unicode="&#x2c6;" horiz-adv-x="407" d="M68 531l132 130h20l120 -130h-18l-112 115l-124 -115h-18z" />
<glyph unicode="&#x2dc;" horiz-adv-x="473" d="M68 572q22 19 35 29t33 19.5t38 9.5q20 0 65.5 -36.5t60.5 -36.5q36 0 100 53l6 -7q-20 -20 -33.5 -31.5t-33 -21t-39.5 -9.5q-22 0 -66.5 36.5t-59.5 36.5q-8 0 -15.5 -1t-15.5 -4.5t-13 -5.5t-15 -8.5t-13.5 -9t-15 -11t-14.5 -10.5z" />
<glyph unicode="&#x2000;" horiz-adv-x="467" />
<glyph unicode="&#x2001;" horiz-adv-x="935" />
<glyph unicode="&#x2002;" horiz-adv-x="467" />
<glyph unicode="&#x2003;" horiz-adv-x="935" />
<glyph unicode="&#x2004;" horiz-adv-x="311" />
<glyph unicode="&#x2005;" horiz-adv-x="233" />
<glyph unicode="&#x2006;" horiz-adv-x="155" />
<glyph unicode="&#x2007;" horiz-adv-x="155" />
<glyph unicode="&#x2008;" horiz-adv-x="116" />
<glyph unicode="&#x2009;" horiz-adv-x="187" />
<glyph unicode="&#x200a;" horiz-adv-x="51" />
<glyph unicode="&#x2010;" horiz-adv-x="338" d="M27 278v24h284v-24h-284z" />
<glyph unicode="&#x2011;" horiz-adv-x="338" d="M27 278v24h284v-24h-284z" />
<glyph unicode="&#x2012;" horiz-adv-x="338" d="M27 278v24h284v-24h-284z" />
<glyph unicode="&#x2013;" horiz-adv-x="527" d="M27 275v25h473v-25h-473z" />
<glyph unicode="&#x2014;" horiz-adv-x="750" d="M27 277v25h696v-25h-696z" />
<glyph unicode="&#x2018;" horiz-adv-x="169" d="M65 589v104q0 22 9.5 31.5t18.5 7.5l10 -1v-7q-19 1 -19 -19v-37h7q6 0 10.5 -4.5t4.5 -11.5v-63q0 -16 -15 -16h-12q-14 0 -14 16z" />
<glyph unicode="&#x2019;" horiz-adv-x="169" d="M64 652l1 64q0 16 15 16h11q15 0 15 -16l-1 -105q0 -22 -9.5 -31t-18.5 -8l-10 2v7q19 -1 19 18v38h-7q-15 0 -15 15z" />
<glyph unicode="&#x201a;" horiz-adv-x="169" d="M65 15v63q0 17 15 17h11q15 0 15 -17v-104q0 -22 -9.5 -31.5t-19.5 -7.5l-9 1v7q19 -1 19 19v38h-7q-15 0 -15 15z" />
<glyph unicode="&#x201c;" horiz-adv-x="255" d="M59 589v104q0 22 9.5 31.5t18.5 7.5l9 -1v-7q-18 1 -18 -19v-37h6q7 0 11.5 -4.5t4.5 -11.5v-63q0 -16 -16 -16h-11q-14 0 -14 16zM155 589v104q0 22 9.5 31.5t19.5 7.5l9 -1v-7q-19 1 -19 -19v-37h7q7 0 11 -4.5t4 -11.5v-63q0 -16 -15 -16h-11q-15 0 -15 16z" />
<glyph unicode="&#x201d;" horiz-adv-x="254" d="M59 652v64q0 16 15 16h11q15 0 15 -16v-105q0 -22 -9.5 -31t-18.5 -8l-10 2v7q18 -1 18 18v38h-6q-15 0 -15 15zM155 652v64q0 16 15 16h12q14 0 14 -16v-105q0 -22 -9.5 -31t-18.5 -8l-10 2v7q19 -1 19 18v38h-7q-15 0 -15 15z" />
<glyph unicode="&#x201e;" horiz-adv-x="254" d="M59 17v63q0 17 15 17h11q15 0 15 -17v-104q0 -22 -9.5 -31.5t-18.5 -7.5l-10 1v7q18 -1 18 19v38h-6q-15 0 -15 15zM155 17v63q0 17 15 17h12q14 0 14 -17v-104q0 -22 -9.5 -31.5t-18.5 -7.5l-10 1v7q19 -1 19 19v38h-7q-15 0 -15 15z" />
<glyph unicode="&#x2022;" horiz-adv-x="321" d="M115 366v30q0 35 33 35h24q35 0 35 -35v-30q0 -32 -35 -32h-24q-33 0 -33 32z" />
<glyph unicode="&#x2026;" horiz-adv-x="808" d="M109 12v62q0 12 12 12h11q12 0 12 -12v-62q0 -12 -12 -12h-11q-12 0 -12 12zM381 12v62q0 12 12 12h11q12 0 12 -12v-62q0 -12 -12 -12h-11q-12 0 -12 12zM653 12v62q0 12 12 12h11q12 0 12 -12v-62q0 -12 -12 -12h-11q-12 0 -12 12z" />
<glyph unicode="&#x202f;" horiz-adv-x="187" />
<glyph unicode="&#x2039;" horiz-adv-x="354" d="M68 354l206 203l16 -16l-190 -187l196 -191l-18 -17z" />
<glyph unicode="&#x203a;" horiz-adv-x="354" d="M68 163l194 191l-190 187l18 16l206 -203l-212 -208z" />
<glyph unicode="&#x205f;" horiz-adv-x="233" />
<glyph unicode="&#x20ac;" horiz-adv-x="595" d="M27 272v14l88 3v141l-88 3v13l88 4v8q0 25 0.5 41t5 49t12.5 55t25 50t41.5 45.5t63 29.5t86.5 12q107 0 215 -20v-14q-15 1 -39 3t-81.5 4.5t-94.5 2.5q-54 0 -93.5 -15.5t-61.5 -38.5t-35 -60t-16.5 -71.5t-3.5 -80.5l284 -3v-14l-284 -3v-141l284 -4v-14h-47.5 t-92.5 -0.5t-104 -1t-40 -1.5q-2 -105 55 -176.5t155 -73.5q48 -1 103 2t86 6l30 4v-15q-90 -21 -219 -21q-26 0 -54 6.5t-61.5 25.5t-59 48t-42.5 79.5t-17 114.5z" />
<glyph unicode="&#x2122;" horiz-adv-x="704" d="M27 718v14h259v-14h-122v-335h-14v335h-123zM325 383l27 349h11l145 -327l133 327h12l31 -349h-12l-29 317l-129 -317h-11l-141 318l-24 -318h-13z" />
<glyph unicode="&#xe000;" horiz-adv-x="530" d="M0 0v530h530v-530h-530z" />
<glyph unicode="&#xfb03;" horiz-adv-x="961" d="M27 507v12l97 12v89q0 28 3 49t14 48.5t38.5 43t69.5 15.5q25 0 110 -17v-14l-107 7q-50 3 -77 -29t-27 -103v-89h337v53q0 92 45 147t132 55q95 0 179 -19v-14l-172 8q-73 3 -116.5 -41t-43.5 -136v-53l371 -7v-524h-24v507h-347v-507h-24v507h-337v-507h-24v507h-97z " />
<glyph unicode="&#xfb04;" horiz-adv-x="1076" d="M27 507v12l97 12v89q0 28 3 49t14 48.5t38.5 43t69.5 15.5q25 0 110 -17v-14l-107 7q-50 3 -77 -29t-27 -103v-89h333v53q0 89 40 145.5t124 56.5h239v-594q0 -45 7.5 -77t15.5 -48t24 -25.5t23 -11t22 -3.5q67 -11 74 -11v-13h-67q-63 0 -93 45.5t-30 143.5v572h-208 q-68 0 -107.5 -44.5t-39.5 -135.5v-53h147v-24h-147v-507h-24v507h-333v-507h-24v507h-97z" />
</font>
</defs>
</svg>
