<?xml version="1.0" standalone="no"?>
<!DOCTYPE svg PUBLIC "-//W3C//DTD SVG 1.1//EN" "http://www.w3.org/Graphics/SVG/1.1/DTD/svg11.dtd" >
<svg xmlns="http://www.w3.org/2000/svg">
<metadata></metadata>
<defs>
<font id="yew_basturditalic" horiz-adv-x="721" >
<font-face units-per-em="1000" ascent="800" descent="-200" />
<missing-glyph horiz-adv-x="676" />
<glyph horiz-adv-x="1000" />
<glyph horiz-adv-x="1000" />
<glyph unicode="&#xd;" horiz-adv-x="676" />
<glyph unicode=" "  horiz-adv-x="676" />
<glyph unicode="&#x09;" horiz-adv-x="676" />
<glyph unicode="&#xa0;" horiz-adv-x="676" />
<glyph unicode="!" horiz-adv-x="401" d="M411 329q-6 -17 -49.5 -56.5t-64.5 -46.5q-48 -17 -54 -17q-21 0 -21 16q0 32 18 80q3 7 130 350q11 30 26 55q19 32 75 67.5t85 35.5q9 0 17.5 -7.5t5.5 -16.5zM354 141q-14 -37 -52 -78t-79 -62q-45 -23 -64 -23t-19 16q0 6 3 16q20 54 80 110q64 58 114 58 q22 0 22 -15q0 -7 -5 -22z" />
<glyph unicode="&#x22;" horiz-adv-x="583" d="M716 621q-8 -20 -50 -57q-45 -39 -79 -51q-23 -8 -33 -8q-14 0 -20 10q-4 6 -1 16q1 0 28 75q17 48 46 111q15 33 69 72t87 39q22 0 22 -15q0 -2 -2 -5zM559 768q-20 -44 -61 -139q0 -6 -3 -20q-12 -37 -67.5 -79t-91.5 -42q-24 0 -24 19q0 7 13 42q4 12 68 158 q14 33 68 72t88 39q20 0 20 -15q0 -5 -10 -35z" />
<glyph unicode="#" horiz-adv-x="836" d="M829 461q-3 -8 -10.5 -32t-12.5 -39h46q33 0 33 -19q0 -32 -62 -84q-23 -12 -55 -40q-13 -51 -44 -139q-17 -35 -76 -76.5t-93 -41.5h-19q-8 3 -5 17q7 37 26 101q24 81 29 104q-1 2 -4 2q-21 0 -113 -31q-9 -19 -11 -31q1 -5 1 -14q-7 -41 -76 -94.5t-112 -53.5 q-24 0 -21 25l37 108q-53 -29 -85 -29q-27 0 -27 20q0 32 65 84q51 41 93 61l26 71l-1 2q-12 -9 -37 -19q-28 -11 -43 -11q-25 0 -25 26q0 33 63 83q55 44 93 57l70 191q7 20 59.5 63.5t78.5 49.5t32 6q23 0 23 -16q0 -4 -1 -9l-75 -210q42 12 104 26q9 50 21 108 q14 40 76 88t104 48q22 0 22 -20q0 -4 -1 -8q-9 -48 -45 -178q69 8 67 8q29 0 29 -17q0 -35 -56 -82q-48 -40 -88 -55zM630 354q8 26 20 71q-69 -16 -103 -21q-13 -39 -26 -80q18 5 54.5 14.5t54.5 15.5z" />
<glyph unicode="$" horiz-adv-x="680" d="M717 344q-22 -61 -67 -113q-11 -11 -33 -35q-33 -38 -125 -92q-19 -8 -61 -31q-4 -7 -14 -22q-14 -21 -51 -50t-66 -40q-16 -6 -30 -6q-21 0 -21 15q0 7 4.5 20t25.5 41q-35 6 -70 13q-58 14 -58 47q0 41 74 101t117 60q20 0 20 -14q0 -10 -12 -33q25 -20 69 -20 q20 0 55 12t43.5 20t17.5 33q6 14 6 31q0 26 -11.5 45t-30.5 19q-3 0 -99.5 -41.5t-122.5 -41.5q-36 0 -36 45q0 19 6 34q9 25 27.5 53.5t36.5 51.5q38 52 71 85q38 40 79 73q23 13 61 42q9 21 29 62q16 34 70.5 74t88.5 40q19 0 19 -17q0 -11 -10 -32q-7 -14 -13 -27 l-14 -37q21 4 64 -12q51 -19 51 -51q0 -37 -63.5 -86.5t-102.5 -49.5q-10 0 -28.5 22t-57.5 22q-25 0 -37 -8q-19 -13 -49.5 -52.5t-37.5 -57.5q-3 -9 -2 -16q64 27 128 55q52 22 88 22q37 0 63.5 -30t22.5 -76q-2 -13 -14 -47z" />
<glyph unicode="%" horiz-adv-x="962" d="M738 624q-35 -98 -167 -167q-112 -58 -197 -58q-33 0 -62 15q-36 18 -36 49q0 73 124 186q116 105 195 126q4 3 15 9q34 14 52 14q16 0 43 -18t31 -32q10 -40 10 -75q0 -29 -8 -49zM1027 748q-8 -21 -46 -64q-28 -31 -56 -61q-87 -102 -251 -263l-274 -264 q-108 -104 -168 -104q-30 0 -19 31q11 29 69 85q18 14 49 41q103 94 181 169q161 154 345 368q30 34 74 63q48 31 78 31q22 0 22 -15q0 -6 -4 -17zM873 117q-58 -55 -122 -83q-36 -15 -93 -28.5t-89 -13.5q-62 0 -62 60q0 16 6 32.5t36 64.5q38 63 112 129q79 71 149 99 q28 11 58 11q93 0 93 -90q0 -39 -16.5 -83.5t-71.5 -97.5zM549 560q-4 75 -35 75q-7 0 -24 -22q-14 -18 -16 -25q-2 -5 7.5 -15.5t16.5 -12.5q12 -3 28 -3t23 3zM762 156l3 8q4 54 -30 64q-27 -35 -30 -44q-5 -13 0 -23q5 -11 19 -11q16 0 38 6z" />
<glyph unicode="&#x26;" horiz-adv-x="639" d="M605 195q-18 -32 -26 -62.5t-16 -44.5q-14 -25 -58 -56q-47 -32 -72 -32q-19 0 -19 20q0 14 15 56q6 16 31 61q-43 -5 -125 -18q-60 -10 -88 -10q-27 0 -49 8q-29 11 -29 32q0 7 3 14q8 23 43 59.5t72 57.5q-28 3 -47.5 19.5t-19.5 40.5q0 47 77 116q60 54 119 84 q90 48 174 68q7 1 40 12l29 80q6 16 47.5 50t62 39.5t25.5 5.5q19 0 19 -15q0 -10 -8 -29q-10 -23 -11 -28q-11 -33 -33 -100q0 -6 -2 -17q-9 -23 -42.5 -52.5t-65.5 -43.5q-20 -9 -41 -9q-30 0 -38 -2q-122 -22 -189 -59q2 -29 50 -29q3 0 80 7.5t80 7.5q34 0 34 -15 q0 -26 -50 -67q-46 -38 -76 -45q-66 -17 -145 -57q4 -3 16 -3l164 22q19 2 40 10q31 12 44 12q19 0 19 -12q0 -5 -5.5 -20t-28.5 -56z" />
<glyph unicode="'" horiz-adv-x="450" d="M591 768q-20 -44 -61 -139q0 -6 -3 -20q-12 -37 -67.5 -79t-91.5 -42q-24 0 -24 19q0 7 13 42q4 12 68 158q14 33 68 72t88 39q20 0 20 -15q0 -5 -10 -35z" />
<glyph unicode="(" horiz-adv-x="486" d="M667 785q-7 -19 -25 -36.5t-52 -51.5q-108 -132 -169 -298q-12 -35 -39 -143q-5 -24 -4 -45q3 -34 8 -55q7 -7 17 -19q5 -8 1 -21q-15 -39 -78 -83.5t-97 -44.5q-27 0 -34 54q-10 72 -2 100q14 58 49 170q51 142 169 313q38 54 103 112q82 74 133 74q23 0 23 -15v0 q-1 -5 -3 -11z" />
<glyph unicode=")" horiz-adv-x="476" d="M522 354q-30 -83 -114 -205q-64 -92 -136 -139q-52 -33 -81 -33q-21 0 -21 16q0 18 33 54q23 26 47 51q17 29 51 83q25 36 42 82q36 101 44 194q6 78 6 96q0 12 -9.5 64t-9.5 69q0 7 2 11q13 37 70.5 79.5t93.5 42.5q18 0 19 -11q9 -50 20 -149q1 -53 -16 -145 q-17 -96 -41 -160z" />
<glyph unicode="*" horiz-adv-x="668" d="M762 660q-20 -8 -49 -23q-25 -15 -82 -59q11 -17 30.5 -30.5t60.5 -49.5q2 -3 -2 -15q-11 -29 -54.5 -59.5t-67.5 -30.5q2 0 -53 37q-6 -17 -22 -71q-8 -27 -52.5 -61t-72.5 -34q-16 0 -16 13q0 10 9 27l46 128q-16 -11 -47 -37q-29 -29 -64.5 -50.5t-55.5 -21.5 q-22 0 -14 22q10 29 91 91q53 40 107 81q-19 25 -38 51q-36 49 -30 66q11 29 55 59.5t68 30.5q11 0 18 -15q10 -23 12 -26q10 35 54 70t73 35q15 0 15 -11q0 -5 -6 -21q-20 -44 -43 -93l-5 -15l74 52q50 35 77 43q20 7 29 7q19 0 19 -16q0 -15 -26 -41q-22 -24 -38 -33z" />
<glyph unicode="+" horiz-adv-x="785" d="M694 324q-21 -6 -49 -6q-53 0 -51 0l-51 -141q-1 -2 -33 -40q-13 -15 -46.5 -38t-51 -28.5t-30.5 -5.5q-8 0 -16.5 5.5t-5.5 13.5l80 219q-37 -3 -105 -9q-58 -6 -60 -6q-35 0 -35 18q0 33 64 83q60 48 96 52q31 2 88 7q1 0 6 3l41 113q7 20 56.5 60.5t74 46.5t30.5 6 q29 0 22 -18l-69 -192h18q3 0 46.5 2.5t47.5 2.5h47q29 -3 29 -19q0 -29 -58 -77q-52 -43 -85 -52z" />
<glyph unicode="," horiz-adv-x="504" d="M412 121q-4 -12 -34 -67q-27 -42 -88 -98q-76 -69 -121 -69q-26 0 -17 24q6 17 33 43q37 38 46 48.5t18 36.5q8 22 6 50q-3 37 -1 43q12 31 62 69t82 38q13 0 15 -3q14 -21 9 -77q0 -11 -10 -38z" />
<glyph unicode="-" d="M707 424q-10 -26 -55 -63.5t-77 -45.5q-22 -5 -35 -5q-3 0 -62.5 4.5t-62.5 4.5h-104q-10 0 -13 10q-3 9 0 17q11 30 62.5 70.5t87.5 44.5h56q34 0 109 -4q83 -4 87.5 -7.5t6 -13t0.5 -12.5z" />
<glyph unicode="." horiz-adv-x="610" d="M291 -8q-12 0 -16 5q-2 10 -9 29q-11 21 -3 42q11 30 59 67.5t80 37.5q11 0 15 -6q0 -8 1 -23q1 -8 8.5 -22t7.5 -21q0 -28 -55.5 -68.5t-87.5 -40.5z" />
<glyph unicode="/" horiz-adv-x="684" d="M851 721q-196 -258 -518 -594q-146 -153 -216 -153q-21 0 -21 18q0 7 2 14q10 26 36 53q24 21 75 69q143 150 181 191q46 50 119 135q61 72 141 174q26 36 95 118q25 27 70 52.5t71 25.5q24 0 24 -22q0 -14 -24 -42q-18 -20 -35 -39z" />
<glyph unicode="0" d="M808 500q-47 -127 -122 -240q-103 -152 -227 -221q-97 -53 -153 -53q-108 0 -108 144q0 84 30 168q37 100 112 213t163 201t145 88q3 0 10.5 -4.5t10.5 -5.5t23 -2q27 -1 57 -10q90 -24 90 -130q0 -63 -31 -148zM627 406q26 70 25 100q-1 24 -1 49q-2 33 -15 51 q-10 12 -23 16.5t-27 9.5q-12 2 -35 6q-34 -40 -79 -117q-47 -80 -67 -135q-23 -63 -23 -140q0 -108 68 -108q25 0 36 12q80 89 141 256z" />
<glyph unicode="1" horiz-adv-x="513" d="M641 737q-1 -4 -16 -37.5t-16 -37.5l-149 -409q-1 -2 -8 -13.5t-8 -15.5l-40 -109q-5 -13 -37 -47q-29 -30 -72 -56q-46 -26 -71 -26q-24 0 -24 20q0 5 2 11q6 7 13 19l41 114q5 14 21 41l126 353q-26 -14 -47 -14q-23 0 -23 17q0 7 4 18q13 36 104 114q68 58 96 75 q62 40 94 40q23 0 23 -18q0 -5 -13 -39z" />
<glyph unicode="2" horiz-adv-x="676" d="M867 661q-23 -63 -152 -181l-146 -126q-65 -59 -198 -183q20 0 67 3l47 3q71 0 122 -11q7 -7 26.5 -20.5t11.5 -38.5q-15 -39 -74 -84.5t-97 -45.5q-15 0 -22.5 13t-23.5 18q-28 9 -99 9q-35 0 -112.5 -9.5t-71.5 -9.5q-24 0 -24 16q0 7 4 16q11 31 92 110q41 42 153 150 q19 17 182 160q118 104 122 115q2 4 2 10q0 33 -30 53q-17 11 -46 9q-1 -1 -6 -5q-21 -40 -79 -80.5t-92 -40.5q-26 0 -26 25q0 9 3 19q12 32 50 73q68 75 159 123.5t155 48.5q45 0 77.5 -28.5t32.5 -71.5q0 -20 -7 -39z" />
<glyph unicode="3" horiz-adv-x="748" d="M902 443q-15 -42 -78 -115q-52 -60 -104 -107q-78 -71 -160 -118q-103 -59 -191 -105q-31 -16 -115 -55q-47 -23 -95 -46q-51 -24 -75 -24q-23 0 -23 17q0 26 44 68q35 33 66 51q5 3 77 36q49 22 149 71q72 38 143 76q79 46 131 104q34 39 39 51q3 9 3 17q0 21 -24 39 q-8 7 -16 13.5t-34 16.5q-45 17 -109 17q-20 0 -84 -7q-8 0 -31.5 -4.5t-26.5 -4.5q-13 0 -18 10.5t-2 20.5q31 84 237 167q-65 5 -153 2q-5 0 -22.5 -2.5t-20.5 -2.5q-25 0 -25 19q0 36 66 87q61 47 101.5 53l40.5 6h266q3 0 31.5 3t32.5 3q41 0 41 -20q0 -5 -3 -12 q-7 -20 -43 -55.5t-67 -51.5q-16 -7 -42 -20q-18 -12 -54 -34q157 -37 157 -120q0 -20 -9 -44z" />
<glyph unicode="4" horiz-adv-x="818" d="M945 647q-14 -43 -46 -126q-125 -292 -205 -476q-15 -33 -72 -74q-59 -44 -93 -44q-21 0 -21 18q0 8 9 32q35 82 115 273q-50 4 -141 18q-166 40 -219 104q-12 14 -3 38q14 37 56 73l144 108q132 99 168 136q24 23 65.5 45.5t65.5 22.5t24 -18q0 -33 -46 -73 q-78 -67 -260 -204q20 -15 66 -40q29 -12 84 -27q49 -15 56 -15h16q6 24 94 256q14 36 71.5 79.5t96.5 43.5q22 0 22 -15q0 -6 -11 -35z" />
<glyph unicode="5" horiz-adv-x="683" d="M737 629q10 0 -36 2q-40 1 -77 0q-8 0 -35.5 -2t-44.5 -2q-11 -27 -30 -82q12 8 59 22.5t65 14.5q44 0 88 -54q25 -31 25 -86q0 -54 -20 -110q-39 -107 -105 -184q-106 -122 -220 -195q-120 -78 -216 -78q-42 0 -85 18q-52 22 -52 54q0 38 70 91q67 51 107 51 q13 0 20 -11q9 -15 18 -20q37 -22 75 -22q69 0 132 85q40 54 61 111q15 43 15 81q0 58 -38 87q-24 18 -33 18q-23 0 -83.5 -34.5t-87.5 -34.5q-22 0 -22 15q0 7 6 25q2 3 10 17.5t9 18.5l45 123q7 19 64 131q21 42 84.5 86t101.5 44q10 0 19 -6q4 -3 6 -15l201 6q53 0 50 0 q30 -3 30 -22q0 -37 -69 -90t-107 -53z" />
<glyph unicode="6" horiz-adv-x="720" d="M789 428q-51 -141 -227 -293q-179 -154 -301 -154q-99 0 -99 96q0 50 29 130q54 146 174 298q118 148 243 231q113 75 171 75q45 0 45 -24q0 -30 -58 -79q-52 -44 -87 -55q-18 -2 -55 -10q-14 -5 -49 -44q-50 -58 -76 -92q-53 -70 -90 -147l-7 -23q111 90 175 131 q98 63 158 63q67 0 67 -47q0 -20 -13 -56zM591 327q7 21 7 26q0 13 -16 13q-14 0 -79 -56t-69 -66q-2 -4 1 -14.5t2 -14.5q-5 -13 -23 -35q-12 -14 -24 -29q22 -6 28 -6q40 0 100 69q54 62 73 113z" />
<glyph unicode="7" horiz-adv-x="676" d="M952 768q-6 -16 -39 -54q-25 -28 -117 -85q-57 -36 -101 -77q-2 -1 -78 -77q-90 -90 -152 -187q-42 -67 -95 -178q-16 -35 -76.5 -78.5t-95.5 -43.5q-25 0 -25 16q0 6 7 24q11 18 30 55q53 122 147 239l-54 6q-45 8 -45 29q0 29 59 77q50 41 85 55q24 10 61 10 q40 0 43 -8q61 61 148 137q-67 7 -245 2q-6 0 -18 -2.5t-15 -2.5q-23 0 -23 20q0 42 79 97q76 52 123 52h330q2 0 18.5 3t21.5 3q30 0 30 -20q0 -5 -3 -12z" />
<glyph unicode="8" horiz-adv-x="705" d="M734 295q-13 -37 -79 -99q-88 -82 -226 -151q-132 -66 -201 -66q-33 0 -64 21q-35 23 -34 57q0 18 17 65q23 62 58 105q38 47 123 114q-16 20 -16 51q0 25 9 52q12 33 53 92q73 104 189 184t200 80q9 0 21.5 -5t14.5 -7q6 -9 0 -25q62 -23 62 -80q0 -24 -11 -55 q-34 -94 -187 -204q78 -25 78 -92q0 -18 -7 -37zM662 535q4 12 4 23q0 25 -19.5 40.5t-49.5 15.5q-3 0 -17.5 -2t-20.5 -2q-33 -30 -48 -71q-5 -14 -5 -27q0 -38 43 -38q13 0 18 1q15 3 45 18t43 26q1 1 7 16zM547 214q3 6 -8.5 22.5t-17.5 20.5q-20 9 -37.5 14.5t-34.5 7.5 q-6 1 -10.5 9t-3.5 16h-9q-70 -28 -91 -86q-10 -27 -10 -37q-1 -18 18.5 -30t38.5 -12q26 0 67 19q5 2 73 37q23 12 25 19z" />
<glyph unicode="9" horiz-adv-x="701" d="M702 302q-8 -25 -28 -74q-36 -74 -104 -143q-82 -83 -163 -100q-30 -7 -156 -7q-105 0 -118.5 1t-17.5 15q-3 12 0 22q16 44 88 95t113 51q17 0 25 -14h135q8 8 21 44q9 29 19 59q20 63 34 102q1 4 0 13q-46 -19 -91 -38q-52 -21 -83 -21q-56 0 -85 32q-26 29 -26 77 q0 33 12 68q32 87 119 167q92 84 219 132q40 15 107 15q64 0 91 -11q36 -15 36 -55q0 -24 -12 -59l-22 -44t-21 -43t-7.5 -28t-7.5 -29l-40 -109q-1 -4 -18.5 -59.5t-18.5 -58.5zM598 507q0 4 36 106q-14 15 -74 15q-38 0 -48 -3q-22 -8 -33 -37q-6 -18 -6 -37q0 -47 40 -66 q15 -8 22 -8q17 5 30 10q30 12 33 20z" />
<glyph unicode=":" horiz-adv-x="454" d="M259 122q-13 0 -17 5q-2 10 -9 29q-11 21 -3 42q11 30 59 67.5t80 37.5q11 0 15 -6q0 -8 1 -23q1 -8 8.5 -22t7.5 -21q0 -28 -55.5 -68.5t-86.5 -40.5zM388 478q-12 0 -16 5q-3 10 -9 29q-11 21 -3 42q11 30 59 67.5t80 37.5q10 0 15 -6q0 -8 1 -23q1 -8 8.5 -22t7.5 -21 q0 -28 -55.5 -68.5t-87.5 -40.5z" />
<glyph unicode=";" horiz-adv-x="441" d="M481 554q-13 -34 -66.5 -70.5t-80.5 -36.5q-17 0 -18 9q-5 37 8 71q11 31 60.5 68.5t82.5 37.5q18 0 18 -9q5 -45 -4 -70zM364 137q-13 -35 -35 -69q-26 -42 -84 -93q-71 -62 -113 -62q-25 0 -16 24q6 19 30 42q33 33 38 39q14 17 21 37q2 5 4 24q2 30 6 66 q12 30 60.5 69t83.5 39q14 0 15.5 -3t2.5 -37q1 -37 -13 -76z" />
<glyph unicode="&#x3c;" horiz-adv-x="726" d="M947 789q-11 -32 -40 -56q-130 -104 -305 -229q-40 -26 -123 -79q33 -37 96 -117q16 -31 47 -90q20 -32 51 -98q1 -6 -3 -19q-15 -40 -76.5 -87t-102.5 -47q-16 0 -19 4q-34 64 -67 128q-51 94 -97 141l-38 36q-32 35 -32 55q0 35 73 92q50 39 105 68q77 42 209 138 q181 134 215 157q47 32 85 32q25 0 25 -18q0 -5 -3 -11z" />
<glyph unicode="=" horiz-adv-x="763" d="M639 426q-3 0 -80 4.5t-80 4.5h-135q-15 0 -19 13q-4 10 1 23q15 40 82.5 91t109.5 52q34 1 75 1q48 0 210 -6q31 -1 31 -26q0 -41 -75.5 -99t-119.5 -58zM751 307q-18 -47 -86.5 -95.5t-115.5 -48.5q-2 0 -79 6t-82 6q-3 0 -72.5 -6t-74.5 -6q-53 0 -53 21q0 40 77 99 q73 57 116 59q32 2 107 8q68 5 71 5q1 0 54.5 -3.5t79.5 -4.5q20 0 54 -8q13 -7 4 -32z" />
<glyph unicode="&#x3e;" horiz-adv-x="683" d="M729 436q-15 -39 -76.5 -90t-188.5 -158q-66 -62 -133 -124q-77 -69 -124 -69q-14 0 -19 11q-4 9 0 19q11 30 113 122q22 21 67 62q83 69 168 144q1 1 -23 56q-9 23 -27 63t-37 80q-36 84 -36 113q0 6 1 9q13 35 68 79t95 44q10 0 14 -1.5t11 -23.5q11 -35 12 -37 q32 -73 65 -145q57 -133 50 -154z" />
<glyph unicode="?" horiz-adv-x="683" d="M814 698q-26 -73 -262 -285q20 3 50 16q27 12 43 12q23 0 23 -17q0 -5 -2 -11q-6 -15 -36 -48q-43 -46 -132 -81q-79 -31 -128 -31q-31 0 -31 27q0 11 5 25q11 30 49 69q36 33 72 67q41 38 83 76q75 71 80 85q1 3 1 6q0 16 -24 29q-20 12 -31 12q-37 0 -61 -31 q-1 -2 -2 -17q-1 -4 -10 -20q-21 -36 -73 -70.5t-83 -34.5q-27 0 -27 25q0 9 3 19q13 34 75 99q83 86 168 133.5t155 47.5q32 0 64 -21q35 -24 35 -58q0 -11 -4 -23zM284 -4q-13 0 -18 10t-1 20q15 41 103 100q84 55 118 55q23 0 23 -16q0 -39 -92.5 -104t-132.5 -65z" />
<glyph unicode="@" horiz-adv-x="926" d="M937 395q-21 -31 -56 -90q-54 -95 -186 -185q-121 -82 -200 -92q-1 0 -31 -8q-69 -17 -88 -17q-33 0 -66 16.5t-49 42.5q-38 59 -39 153q-1 30 27 108q43 117 134 224q15 21 49 63q61 71 198 154q59 36 102 48q30 8 79 8q101 0 133 -59q7 -13 7 -33q0 -24 -10 -51 q-14 -39 -41 -81q-30 -48 -68 -85q-29 -29 -44 -42q-21 -15 -43 -33q-1 -3 0 -40t0 -40q-9 -26 -50.5 -56t-63.5 -30q-16 0 -18 11q-1 24 -3 71q-32 -17 -102 -51q-8 -4 -36 -26q-8 -6 -30.5 -16t-30.5 -10q-9 0 -28 18q6 21 14 31q13 11 35 34q21 34 63 98q32 49 103 143 q17 20 46 35l36 16q40 25 60 25q4 0 8 -1q6 -9 3 -20q-16 -65 -4 -118q12 12 29 34q30 50 36 68q5 15 5 28q0 37 -42 57q-32 14 -68 14q-59 0 -105 -28q-36 -21 -91 -80q-5 -8 -16 -23q-79 -82 -120 -195q-21 -59 -20 -92q4 -73 32 -121q34 -58 94 -58q42 0 130 29 q14 5 37 16q39 19 65 44q33 32 57 68q18 29 36 59q4 12 15 35.5t50.5 50t58.5 26.5q15 0 15 -15q0 -10 -8 -32zM610 421q0 14 -2 42q-6 -10 -19 -31t-19 -30q15 8 40 19z" />
<glyph unicode="A" horiz-adv-x="751" d="M742 119q-14 -38 -70 -84q-60 -49 -101 -49q-21 0 -21 20q0 3 1 7q13 35 13 83q0 14 -2 55q-2 33 -1 52q-159 -78 -261 -137q-21 -16 -66 -49q-51 -34 -93 -34q-29 0 -29 22q0 8 5 23q10 28 29 56q57 86 193 280q84 120 161 218q75 95 105 125q89 93 152 93q23 0 23 -15 q0 -6 -3.5 -19t-3.5 -15q-1 -18 -2 -53q-17 -271 -17 -501q0 -44 -12 -78zM567 305q4 88 7 212q-156 -219 -231 -329q11 6 224 117z" />
<glyph unicode="B" horiz-adv-x="761" d="M598 90q-48 -24 -115 -48q-75 -25 -122 -31q-36 -1 -118 -7q-9 -5 -28 -14q-24 -8 -36 -8q-28 0 -24 19q2 7 5 18q-25 10 -30 13q-11 6 -11 18q0 7 4 18q7 17 19 31q31 30 64 66q0 2 34 101q21 58 41 116q22 65 48 167q2 7 -5 11q-10 6 -11 8q-7 10 -1 25q14 17 39 54 q26 46 82.5 86.5t93.5 40.5q17 0 21 -13.5t5 -13.5q3 0 59 20q92 33 184 33q48 0 98 -18q72 -26 72 -73q0 -12 -5 -26q-15 -40 -66.5 -96t-104.5 -92q99 -48 99 -108q0 -76 -113 -175q-83 -72 -178 -122zM767 584q5 14 -30 33q-28 14 -42 17q-19 3 -56 3q-53 0 -124 -18 q-13 -45 -39 -131q34 11 119 26q71 12 118.5 32t53.5 38zM691 263q0 23 -22 39q-42 32 -74.5 42t-85.5 10q-55 0 -86 -11q-37 -115 -52 -172q38 -6 59 -6q20 0 93 9q36 4 96 31q72 32 72 58z" />
<glyph unicode="C" horiz-adv-x="661" d="M728 252q-8 -12 -22 -36q-48 -90 -144 -137t-201 -78q-43 -13 -83 -13q-119 0 -119 120q0 59 28 137q46 126 155 268q125 162 265 248q59 36 96 36q54 0 90 -79l12 -20q7 -13 7 -22q0 -33 -62 -80.5t-98 -47.5q-15 0 -24 12q-1 2 -18 34.5t-38 48.5q-144 -139 -205 -307 q-26 -69 -26 -115q0 -82 79 -82q21 0 25 1q17 2 65 20q18 5 50 20q9 12 32 37q22 20 55 41q42 25 65 25q27 0 16 -31z" />
<glyph unicode="D" horiz-adv-x="782" d="M984 579l-46 -62q-82 -116 -284 -258q-168 -118 -335 -199q-25 -9 -73 -28q-20 -11 -39 -21t-37 -10q-21 0 -23 9q-3 17 8 58q31 111 66 218l124 342q3 12 11 39l-5 10q0 6 3 19q15 39 76.5 84.5t102.5 45.5q25 0 25 -19q0 -2 -2 -15q-1 -10 0 -16q20 9 85 19t100 10 q80 0 165 -19q113 -25 122 -68q4 -18 4 -19q-1 -28 -11 -55t-37 -65zM828 548q8 21 3 33q-12 33 -105 49q-66 12 -138 12q-62 0 -87 -11l-70 -195q-11 -28 -76 -245q18 5 49 16q101 50 201 118q130 88 179 158q18 22 44 65z" />
<glyph unicode="E" horiz-adv-x="750" d="M817 653q-3 0 -27.5 1.5t-27.5 1.5q-83 0 -252 -15l-42 -114q18 -5 32 -5q-15 0 99 21t200 21q57 0 57 -21q0 -27 -54 -73q-47 -40 -81 -55q-23 -10 -51.5 -10.5t-55.5 -1.5q-45 -4 -134 -16q-7 -1 -60 -14q-11 -37 -15 -52q-7 -27 -9 -57q-1 -3 -6 -36q-4 -27 -4 -44 q0 -11 1 -19q3 -16 23 -16q29 0 125 30q47 15 82 31q2 2 66 46q12 9 37 18t35 9q13 0 17 -11q4 -10 0 -21q-12 -34 -61 -77q-57 -50 -152 -97q-47 -23 -148 -54q-112 -34 -156 -34q-57 0 -64 33q-9 41 5 113q2 24 10 73q18 73 40 132l125 343q9 25 59 66t76 47.5t33 6.5 q17 0 19.5 -8t10.5 -8q2 0 43 7q45 7 63 8q167 14 240 14q47 0 46 0q31 -3 31 -22q0 -38 -68 -89.5t-107 -51.5z" />
<glyph unicode="F" horiz-adv-x="649" d="M727 657h-142q-2 0 -26 -2.5t-37 -3.5l-6 -3q-35 -95 -57 -176q148 61 279 61q33 0 37 -1q21 -3 21 -19q0 -31 -58 -80.5t-91 -55.5q-5 -1 -106 -9q-75 -5 -126 -25l-88 -243q-2 -5 -9 -11q-15 -25 -52 -55q-40 -33 -67.5 -42.5t-40.5 -9.5q-9 0 -17.5 5.5t-5.5 14.5 l105 288q1 3 21 71.5t21 72.5l99 272q9 25 59.5 66t78.5 48q24 7 32 7q21 0 21 -10q0 -2 -1 -6t-1 -5q0 -6 11 -6q3 0 74.5 9.5t75.5 9.5h145q2 0 19 2.5t20 2.5q29 0 29 -19q0 -37 -67 -88q-62 -48 -102.5 -54t-47.5 -6z" />
<glyph unicode="G" horiz-adv-x="805" d="M836 169q-13 -36 -71 -80t-95 -44q-21 0 -26 23q-34 -23 -135 -59q-111 -38 -158 -38q2 0 -56 12q-18 2 -47 11q-64 42 -64 135q0 59 24 125q17 46 67 128q111 185 311 306q183 110 333 110q62 0 83 -36q4 -7 -5 -32q-14 -37 -73 -83t-98 -46q-20 0 -21 20.5t-35 20.5 q-81 0 -166 -44.5t-131 -113.5q-20 -30 -40 -59q-21 -35 -36 -77q-20 -53 -20 -100q0 -74 50 -103q5 -2 40.5 -9l35.5 -7q29 0 92 22q58 20 90 39l38 104h-91q-32 0 -61.5 -9.5t-43.5 -9.5q-37 0 -37 23q0 35 66 88q63 50 102 52q26 2 78 8q31 4 98 4q6 0 27 1q16 2 28 1 q16 -2 33 -9q8 -3 4 -18q-14 -32 -31 -71l-45 -124q-1 -3 -7 -30t-7 -31z" />
<glyph unicode="H" horiz-adv-x="871" d="M820 109q-14 -39 -74 -85t-100 -46q-24 0 -24 23q0 -2 6 45q8 61 35 148q40 129 44 145l-295 -8q-12 -44 -26 -95l-50 -137q-13 -37 -77 -85.5t-102 -48.5q-25 0 -25 15q0 11 14 40q17 35 31 80q64 220 130 447q4 10 47 121q15 39 78.5 85.5t101.5 46.5q20 0 20 -14 q0 -11 -13 -38q-11 -22 -52 -147q-18 -53 -18 -54q-9 -30 -11 -56q4 0 15 -1.5t15 -1.5q3 0 66 5t66 5h140q20 53 26 70q18 51 18 69q0 12 2 32q14 38 75.5 86t101.5 48q18 0 21 -11q7 -24 -4 -62q-16 -62 -43 -136l-48 -132q-7 -20 -38 -126q-37 -123 -43 -159 q-4 -31 -10 -68z" />
<glyph unicode="I" horiz-adv-x="678" d="M502 0q-20 -7 -46 -6h-40q-168 -16 -221 -16q-74 0 -74 27q0 36 71 87q67 50 105 50q-7 0 45 -5q3 10 7 28l51 139q25 82 75 245q12 36 37 103q-21 0 -63 -4l-42 -4q-25 0 -25 19q0 35 65 85q60 46 99 53q66 12 186 12q-4 0 22 1q22 1 39 0q24 -1 36.5 -5t3.5 -29 q-14 -39 -72.5 -81.5t-91.5 -41.5l-60 -201l-63 -173q-1 -8 -5 -25q-9 -33 -35 -111q98 6 90 6q29 0 35 -2q17 -3 17 -17q0 -34 -57 -81q-50 -40 -89 -53z" />
<glyph unicode="J" horiz-adv-x="748" d="M989 779q-9 -25 -46.5 -59t-77.5 -53q-22 -86 -53 -232q-19 -87 -41 -148q-44 -121 -139 -207q-110 -100 -236 -100q-78 0 -151 40q-84 45 -84 109q0 17 6 34q25 69 130 160t162 91q20 0 20 -17q0 -6 -3 -14q-6 -18 -34 -49q-14 -14 -50 -40q-29 -21 -33 -33 q-2 -6 -2 -13q0 -33 56 -68q41 -26 60 -30q49 -12 83 -12q14 19 25 49q7 19 56 227t64 250h-43q-3 0 -85.5 -13.5t-87.5 -13.5q-27 0 -27 19q0 39 76 94q73 54 115 54q2 0 10.5 -1.5t11.5 -1.5q2 0 53 8q57 9 79 12q8 1 65 1t79 -5q15 -2 40 -12q9 -6 2 -26z" />
<glyph unicode="K" horiz-adv-x="795" d="M806 94q-14 -37 -74.5 -82t-95.5 -45q-21 0 -26.5 20.5t-8.5 41t-37 112.5q-20 42 -61 101q-48 70 -84 97q-10 -31 -35 -102q-18 -38 -44 -98q0 -7 -2 -18q-16 -37 -77 -82.5t-97 -45.5q-19 0 -22 8q-3 11 23 76l9 15q23 57 50 142q49 157 100 319q0 4 52 136 q15 36 72.5 79.5t95.5 43.5q23 0 23 -16q0 -2 -1 -6l-68 -186q-17 -48 -37 -128q68 56 209 162l136 110q73 59 113 59q22 0 22 -16q0 -32 -58 -85q-52 -46 -279 -221q65 -51 122.5 -151.5t69.5 -181.5q2 -12 7.5 -23.5t5.5 -17.5q0 -7 -3 -17z" />
<glyph unicode="L" horiz-adv-x="704" d="M563 1q-3 0 -44.5 4t-44.5 4q-51 0 -96 -8q-70 -14 -139.5 -28t-73.5 -14q-21 0 -26.5 7t-0.5 34q6 27 15 58q15 57 48 170q58 191 119 360q13 38 42 113q15 37 77 81.5t100 44.5q25 0 25 -17q0 -3 -1 -6l-56 -154q-42 -113 -93 -286q-11 -43 -34 -128q-12 -36 -28 -102 q26 5 74 15q111 30 210 30q111 0 111 -32q0 -38 -71.5 -92t-112.5 -54z" />
<glyph unicode="M" horiz-adv-x="1046" d="M1009 105q-15 -41 -73 -88q-62 -50 -107 -50q-26 0 -23 20q13 43 35 129q3 25 14 82q9 37 29 117q21 60 49 162q-60 -66 -128 -171q-61 -97 -121 -193q-22 -35 -76.5 -70t-84.5 -35q-21 0 -19 0q-8 2 -8 17q-2 91 8 224q10 113 19 225q-131 -193 -178 -304q-3 -4 -9 -13 q-22 -56 -87.5 -108t-106.5 -52q-22 0 -22 17q0 8 4 19q2 7 31 65q33 65 49 92q37 64 156 248q64 98 91 136q56 80 110 140q23 25 69 56q13 9 75 32q42 16 52 16q23 0 23 -19q0 -11 -9.5 -35t-10.5 -29q-11 -36 -27 -101q-13 -69 -19 -266q11 15 35 46q45 49 127 144 q55 70 135 139q107 94 166 94q25 0 25 -17q0 -3 -1 -6l-60 -164q-4 -17 -13 -49q-14 -38 -37 -114q-10 -45 -39 -161q-2 -14 -6 -41q-20 -87 -37 -134z" />
<glyph unicode="N" horiz-adv-x="830" d="M774 118q-15 -41 -73 -90q-62 -53 -107 -53q-16 0 -21 9.5t-4 9.5q-3 0 -8 -1.5t-8 -1.5q-23 0 -29.5 23.5t-11.5 47.5q-26 57 -54 142q-23 73 -47 145q-31 -86 -64 -196q-5 -28 -11 -63q-15 -40 -72 -82.5t-94 -42.5q-29 0 -29 24q0 9 11 50q38 141 103 321 q1 2 42.5 105t42.5 106l50 137q5 7 13 19q25 34 76 68t83 34q14 0 17.5 -4t3.5 -10q0 -15 -15 -39q-7 -10 -6 -31q5 -169 108 -453q18 38 33 80l122 334q0 1 14 21q26 37 76.5 69.5t81.5 32.5q19 0 19 -13q0 -9 -13 -40q-131 -330 -228 -628q2 -9 -1 -30z" />
<glyph unicode="O" horiz-adv-x="862" d="M1015 531q-50 -136 -170 -259q-132 -135 -322 -227q-141 -67 -237 -67q-120 0 -120 112q0 48 22 108q72 198 255 384q193 197 363 223q99 15 93 15q65 0 105 -41.5t40 -110.5q0 -27 -6 -57q-10 -44 -23 -80zM824 433q22 59 22 108q0 63 -37 96q-27 23 -62 23 q-18 0 -32 -4q-18 -4 -50 -16q-18 -8 -44 -19q-11 -3 -28 -12q-69 -61 -130 -154q-54 -83 -82 -160q-17 -45 -17 -81q0 -76 75 -76q46 0 133 36q100 41 153 98q67 71 99 161z" />
<glyph unicode="P" horiz-adv-x="705" d="M968 687q-33 -91 -174 -194q-127 -93 -252 -134q-36 -12 -137 -35q-29 -97 -60 -201q-15 -42 -74 -90t-101 -48q-18 0 -21 6q-7 11 0 38q41 159 79 261l52 143q1 3 8.5 31t8.5 31l48 133q1 2 -1 12q-2 9 0 13q8 12 22 34q23 44 79.5 85t93.5 41q18 0 20.5 -8t5.5 -8 l38 10q100 25 165 25q149 0 197 -79q10 -17 10 -35q0 -13 -7 -31zM773 588q5 16 -24 41q-24 21 -38 26q-25 8 -45 10q-68 4 -57 4q-15 0 -96 -13q-18 -57 -56 -167q14 -1 20 -6t9 -5q8 0 56 8q54 10 85 19q18 5 83 36q55 26 63 47z" />
<glyph unicode="Q" horiz-adv-x="881" d="M1017 469q-19 -53 -57 -123q-47 -88 -89 -131q-15 -14 -32 -33q-3 -9 28 -37q9 -7 2 -25q-15 -41 -77.5 -84.5t-99.5 -43.5q-20 0 -34.5 22t-13.5 22q3 0 -35 -17q-103 -48 -186 -48q-116 0 -181.5 58t-65.5 151q0 49 19 101q14 37 59 113q13 20 35 55q70 116 229 233 q154 113 257 132q67 13 73 13q4 0 25 -13q6 -1 17 -2q31 -3 50 -13q110 -57 110 -176q0 -64 -33 -154zM827 379q36 96 28 136q-29 141 -162 141q-3 0 -28.5 -6.5t-28.5 -6.5t-7.5 3t-7.5 3q-6 0 -44 -26q-33 -22 -39 -27q-29 -26 -55 -58q-35 -43 -70 -105q-16 -30 -26 -55 q-13 -38 -13 -76q0 -73 50 -120q55 -49 151 -49q16 0 32 1q-11 29 -27 64q-9 17 -18.5 35t-9.5 29q0 38 73 92q70 51 111 51q13 0 17.5 -3.5t3.5 -15.5l-2 -14q4 -15 19 -39.5t18 -34.5q26 55 35 81z" />
<glyph unicode="R" horiz-adv-x="797" d="M802 114q-14 -39 -73.5 -84t-98.5 -45q-21 0 -30 27q-4 10 -9 44q-2 25 -12 69q-13 34 -38 70q-31 46 -58.5 57t-91.5 27q-3 -1 -56 -148q-1 -16 -3 -24q-15 -39 -75 -87q-63 -51 -105 -51q-9 0 -18 5.5t-6 14.5l140 383q13 43 28 93l39 107q-28 0 -28 18q0 6 2 13 q6 16 30 44q11 9 27 26q23 42 42 61q29 29 68 51.5t65 22.5q23 0 26 -24q81 32 173 32q78 0 143 -19q85 -24 111 -74q8 -16 -6 -56q-25 -69 -112 -146q-83 -74 -189 -125q22 -27 44 -55q30 -39 40 -65q11 -31 19 -80.5t15 -64.5q2 -4 -3 -17zM796 577q0 25 -56 49 q-35 15 -63 21q-43 9 -93 9q-3 0 -27 -2t-33 -2l-3 3l-12 -32q-10 -35 -23 -77l-35 -98q37 17 70 20l58 4q48 9 129 43l54 22q34 18 34 40z" />
<glyph unicode="S" horiz-adv-x="714" d="M817 296q-25 -64 -101 -140q-30 -29 -80 -64.5t-82 -48.5q-61 -26 -147 -46q-90 -21 -144 -21q-93 0 -93 48q0 11 5 24q16 43 91 110q82 72 132 72q20 0 20 -16q0 -7 -3 -17q-8 -20 -37 -50q9 -10 42 -10q41 0 112 17q64 16 84 27q11 22 11 44q0 44 -39 79q-36 32 -74 32 q-2 0 -70 -19q-76 -21 -111 -28q-40 -9 -68 -9q-48 0 -48 39q0 18 10 48q37 99 177 232q146 138 278 191q21 9 62 25q26 9 94 9q100 0 100 -55q0 -15 -7 -35q-4 -11 -11 -28q-20 -39 -77 -78.5t-91 -39.5q-26 0 -23 19q5 11 10 32q2 18 -22 22q-5 1 -36 1q-38 0 -51 -4 q-52 -13 -125 -82q-69 -66 -86 -111q-1 -3 -2 -9.5t-3 -11.5q1 0 3 -1t6 -1t122.5 28t121.5 28q60 0 107 -37q52 -41 56 -105q1 -21 -13 -60z" />
<glyph unicode="T" horiz-adv-x="854" d="M940 650q-3 0 -16 3t-18 4q-10 1 -37 1q-18 0 -95 -4q-15 -1 -46 -6q-31 -100 -64 -206l-40 -110q-2 -4 -24.5 -74t-24.5 -73q-13 -37 -30 -81q-15 -38 -79 -86.5t-100 -48.5q-24 0 -24 15q0 17 11 35.5t26 60.5q2 4 15.5 49t14.5 48l40 109q29 94 60 194l58 159h-31 q-3 0 -124 -17.5t-125 -17.5q-23 0 -23 22q0 35 68 88q65 49 104 55q64 10 192 27q84 8 245 17q136 8 151 8q45 0 60 -2q38 -6 38 -26q0 -38 -73 -91q-69 -52 -109 -52z" />
<glyph unicode="U" horiz-adv-x="805" d="M789 136q-16 -43 -69 -89q-57 -49 -102 -49q-23 0 -23 13q0 7 5 20t5 14q4 16 11 50q-75 -53 -173 -89t-166 -36q-67 0 -91 24q-21 19 -21 64q0 64 47 191q35 86 87 215q45 113 50 125q32 78 53 110.5t72.5 68t82.5 35.5q22 0 22 -16q0 -7 -6 -22q-1 -3 -87 -211 t-87 -211q-41 -112 -41 -163q0 -29 11 -40.5t60 -11.5q66 0 129 31q9 9 30 27q30 26 65 41q106 324 126 381q11 32 35 94q14 32 68 73q58 43 95 43q23 0 23 -16q0 -2 -2 -6l-45 -125q-10 -31 -25 -79q-26 -77 -67 -202q-35 -124 -72 -254z" />
<glyph unicode="V" horiz-adv-x="672" d="M895 708l-46 -64q-48 -70 -137 -213q-48 -81 -95 -163q-55 -96 -87 -163q-19 -40 -77 -84t-94 -44q-15 0 -17 4q-4 8 -10 55q-12 99 -12 167q0 50 -1 125q-2 81 -2 118q0 110 11 203q-2 11 -1 28q14 40 76 84t99 44q15 0 19 -4q5 -5 -2 -35q-4 -19 -6 -45q-7 -77 -2 -402 q84 134 149 232q22 31 68 99q28 41 43 59q33 39 73 66q45 30 74 30q22 0 22 -15q0 -6 -4.5 -18.5t-40.5 -63.5z" />
<glyph unicode="W" horiz-adv-x="924" d="M1210 818q-14 -21 -37 -62q-29 -63 -91 -187q-7 -13 -104 -165q-36 -54 -186 -280q-27 -40 -84 -81t-92 -41q-23 0 -29 18q-4 22 -8 45q-1 4 2.5 20t3.5 22.5t6 65.5q7 55 19 166q-63 -93 -126 -187q-76 -108 -137 -143q-49 -27 -71 -27q-17 0 -21 6q1 12 2 36 q-3 111 9 172l30 208q26 171 59 261q4 10 11 27q18 37 75 76t88 39q22 0 22 -21q0 -11 -7 -31q-6 -15 -11 -29q-28 -97 -46 -220q-14 -98 -28 -195q1 -1 3 2q46 61 108 166l104 178q19 32 72 67.5t84 35.5q20 0 21 -8q1 -14 -6 -54q-17 -96 -33 -192q-19 -111 -24 -193 q80 116 116 182q36 76 113 228q14 28 57 66q47 43 82 55q25 9 36 9q23 0 23 -15q0 -7 -5 -20z" />
<glyph unicode="X" horiz-adv-x="841" d="M846 131q-15 -43 -81 -91t-107 -48q-18 0 -20 4q-19 25 -44 105q-8 27 -88 232q-43 -36 -127 -113q-44 -43 -106 -127q-31 -42 -82 -78q-55 -39 -91 -39q-22 0 -22 19t27 56q21 26 41 51q60 77 91 108q42 42 146 133q91 79 92 82q3 9 -25 77q-26 54 -74 157q-5 12 0 26 q14 39 80.5 88t109.5 49q17 0 34.5 -6.5t19.5 -10t2 -8.5q0 -6 -16 -37q38 -81 69 -162q67 56 155 115q119 79 163 79q25 0 25 -16q0 -7 -4 -18q-23 -62 -167 -139q-35 -18 -90 -63q-50 -41 -53 -48q0 -1 55 -143q16 -43 54 -160q1 -3 35 -58q3 -4 -2 -16z" />
<glyph unicode="Y" horiz-adv-x="691" d="M944 682q-94 -259 -357 -374q-17 -56 -48 -161q-3 -20 -9 -45q-13 -38 -74.5 -84.5t-98.5 -46.5q-19 0 -22 8q-1 3 -1 8q0 3 18 67q11 30 29 87q7 32 15 64q10 38 25 66q-7 3 -24 4q-128 8 -128 137q0 62 29 142q1 3 61 139q17 38 76.5 82.5t96.5 44.5q24 0 24 -22 q0 -5 -2 -10q-10 -15 -27 -42q-18 -34 -40 -96q-25 -67 -25 -115q0 -105 116 -105q79 0 111 33q14 14 33 50q25 49 35 78q9 25 9 78q0 2 5 16q14 38 70.5 84t97.5 46q20 0 21 -9q4 -36 -3 -80q-3 -18 -13 -44z" />
<glyph unicode="Z" horiz-adv-x="903" d="M908 116q-15 -40 -76 -84t-97 -44q-17 0 -33 12q-3 5 -12 11q-20 8 -51 11q-11 1 -107 1h-104q-31 -2 -194 -22q-21 -3 -76 -12q-50 -8 -52 -8q-27 0 -27 20q0 29 86 125q27 23 79 69q161 149 548 462q-69 1 -125 -4q-35 -4 -120 -13q-74 -8 -77 -8q-44 0 -44 18 q0 39 73 95q70 54 110 54q3 0 13 -2.5t13 -2.5q-4 0 40 4q69 8 138.5 15t150.5 7t139 -11q9 -2 12 -14q2 -9 -1 -17q-8 -22 -43.5 -55.5t-63.5 -49.5q-7 -4 -90 -34q-10 -3 -31 -15q-370 -286 -557 -467q36 3 125 13q121 15 234 15q102 0 113 -1q24 -5 70 -14q4 0 16 -14 q7 -2 18 -10q10 -11 3 -30z" />
<glyph unicode="[" horiz-adv-x="595" d="M458 15q-19 -8 -31 -8q-34 -1 -102 -4l-80 -10q-51 -7 -53 -7q-10 0 -22 8t-8 19l41 113q9 46 27 127q19 68 58 175q50 139 92 239q10 22 54 60t78 49q40 14 56 14h144q3 0 16.5 3.5t16.5 3.5q22 0 22 -16q0 -36 -64 -87q-58 -46 -98 -53q-32 -6 -90 -6q-13 -29 -41 -105 q-51 -142 -81 -294l-32 -93q84 16 181 18q4 0 18 3.5t17 3.5q21 0 21 -16q0 -34 -54 -82q-47 -41 -86 -55z" />
<glyph unicode="\" horiz-adv-x="757" d="M735 105q-14 -37 -71.5 -81t-94.5 -44q-17 0 -20 6q-36 74 -53 145q-18 55 -51 166q-34 131 -74 302q-15 61 -11 73q14 36 71.5 80t95.5 44q19 0 22 -7q9 -22 17 -61q11 -60 12 -63q8 -31 25 -98q45 -180 45 -181q29 -112 61 -200q7 -21 20 -41q10 -15 10 -23 q0 -7 -4 -17z" />
<glyph unicode="]" horiz-adv-x="621" d="M582 187q-4 -5 -10 -15q-7 -21 -24 -61q-20 -40 -77 -78.5t-95 -38.5q-3 0 -69 5t-69 5t-37.5 -2.5t-37.5 -2.5q-22 0 -22 19q0 36 70.5 88t108.5 52h102l38 104q9 31 20 67l115 317q-6 -5 -14 -5q-5 0 -14.5 2.5t-14.5 2.5h-103q-12 0 -16 11q-3 9 1 19q12 35 70.5 78.5 t93.5 44.5q31 1 56 1q151 0 138 -34z" />
<glyph unicode="^" horiz-adv-x="642" d="M606 489q-5 0 -25 20.5t-36 57.5q-13 30 -25 60q-46 -36 -92 -71q-59 -44 -92 -44q-20 0 -20 15q0 28 72 88l98 76q18 19 53 50q71 57 114 57q15 0 17 -4q8 -23 25 -69q11 -28 42 -80q20 -25 20 -33q0 -34 -58 -78.5t-93 -44.5z" />
<glyph unicode="_" horiz-adv-x="651" d="M695 93q-11 -31 -67 -73t-88 -42q-2 0 -5.5 2.5t-6.5 2.5h-208q-3 0 -20.5 2t-20.5 2h-242q-10 0 -13 10q-3 9 1 19q12 33 67 73.5t88 40.5h247q3 0 20.5 -2.5t20.5 -2.5h212q9 0 13.5 -12t1.5 -20z" />
<glyph unicode="`" horiz-adv-x="531" d="M611 640q-12 -33 -65.5 -72.5t-86.5 -39.5q-12 0 -18 10q-1 1 -11 23q-8 17 -17 51q-2 71 5 90q12 33 64 72.5t86 39.5q13 0 15 -4q6 -9 5 -27q-3 -44 -2 -55q2 -12 28 -71q2 -5 -3 -17z" />
<glyph unicode="a" horiz-adv-x="751" d="M742 119q-14 -38 -70 -84q-60 -49 -101 -49q-21 0 -21 20q0 3 1 7q13 35 13 83q0 14 -2 55q-2 33 -1 52q-159 -78 -261 -137q-21 -16 -66 -49q-51 -34 -93 -34q-29 0 -29 22q0 8 5 23q10 28 29 56q57 86 193 280q84 120 161 218q75 95 105 125q89 93 152 93q23 0 23 -15 q0 -6 -3.5 -19t-3.5 -15q-1 -18 -2 -53q-17 -271 -17 -501q0 -44 -12 -78zM567 305q4 88 7 212q-156 -219 -231 -329q11 6 224 117z" />
<glyph unicode="b" horiz-adv-x="761" d="M598 90q-48 -24 -115 -48q-75 -25 -122 -31q-36 -1 -118 -7q-9 -5 -28 -14q-24 -8 -36 -8q-28 0 -24 19q2 7 5 18q-25 10 -30 13q-11 6 -11 18q0 7 4 18q7 17 19 31q31 30 64 66q0 2 34 101q21 58 41 116q22 65 48 167q2 7 -5 11q-10 6 -11 8q-7 10 -1 25q14 17 39 54 q26 46 82.5 86.5t93.5 40.5q17 0 21 -13.5t5 -13.5q3 0 59 20q92 33 184 33q48 0 98 -18q72 -26 72 -73q0 -12 -5 -26q-15 -40 -66.5 -96t-104.5 -92q99 -48 99 -108q0 -76 -113 -175q-83 -72 -178 -122zM767 584q5 14 -30 33q-28 14 -42 17q-19 3 -56 3q-53 0 -124 -18 q-13 -45 -39 -131q34 11 119 26q71 12 118.5 32t53.5 38zM691 263q0 23 -22 39q-42 32 -74.5 42t-85.5 10q-55 0 -86 -11q-37 -115 -52 -172q38 -6 59 -6q20 0 93 9q36 4 96 31q72 32 72 58z" />
<glyph unicode="c" horiz-adv-x="661" d="M728 252q-8 -12 -22 -36q-48 -90 -144 -137t-201 -78q-43 -13 -83 -13q-119 0 -119 120q0 59 28 137q46 126 155 268q125 162 265 248q59 36 96 36q54 0 90 -79l12 -20q7 -13 7 -22q0 -33 -62 -80.5t-98 -47.5q-15 0 -24 12q-1 2 -18 34.5t-38 48.5q-144 -139 -205 -307 q-26 -69 -26 -115q0 -82 79 -82q21 0 25 1q17 2 65 20q18 5 50 20q9 12 32 37q22 20 55 41q42 25 65 25q27 0 16 -31z" />
<glyph unicode="d" horiz-adv-x="782" d="M984 579l-46 -62q-82 -116 -284 -258q-168 -118 -335 -199q-25 -9 -73 -28q-20 -11 -39 -21t-37 -10q-21 0 -23 9q-3 17 8 58q31 111 66 218l124 342q3 12 11 39l-5 10q0 6 3 19q15 39 76.5 84.5t102.5 45.5q25 0 25 -19q0 -2 -2 -15q-1 -10 0 -16q20 9 85 19t100 10 q80 0 165 -19q113 -25 122 -68q4 -18 4 -19q-1 -28 -11 -55t-37 -65zM828 548q8 21 3 33q-12 33 -105 49q-66 12 -138 12q-62 0 -87 -11l-70 -195q-11 -28 -76 -245q18 5 49 16q101 50 201 118q130 88 179 158q18 22 44 65z" />
<glyph unicode="e" horiz-adv-x="750" d="M817 653q-3 0 -27.5 1.5t-27.5 1.5q-83 0 -252 -15l-42 -114q18 -5 32 -5q-15 0 99 21t200 21q57 0 57 -21q0 -27 -54 -73q-47 -40 -81 -55q-23 -10 -51.5 -10.5t-55.5 -1.5q-45 -4 -134 -16q-7 -1 -60 -14q-11 -37 -15 -52q-7 -27 -9 -57q-1 -3 -6 -36q-4 -27 -4 -44 q0 -11 1 -19q3 -16 23 -16q29 0 125 30q47 15 82 31q2 2 66 46q12 9 37 18t35 9q13 0 17 -11q4 -10 0 -21q-12 -34 -61 -77q-57 -50 -152 -97q-47 -23 -148 -54q-112 -34 -156 -34q-57 0 -64 33q-9 41 5 113q2 24 10 73q18 73 40 132l125 343q9 25 59 66t76 47.5t33 6.5 q17 0 19.5 -8t10.5 -8q2 0 43 7q45 7 63 8q167 14 240 14q47 0 46 0q31 -3 31 -22q0 -38 -68 -89.5t-107 -51.5z" />
<glyph unicode="f" horiz-adv-x="649" d="M727 657h-142q-2 0 -26 -2.5t-37 -3.5l-6 -3q-35 -95 -57 -176q148 61 279 61q33 0 37 -1q21 -3 21 -19q0 -31 -58 -80.5t-91 -55.5q-5 -1 -106 -9q-75 -5 -126 -25l-88 -243q-2 -5 -9 -11q-15 -25 -52 -55q-40 -33 -67.5 -42.5t-40.5 -9.5q-9 0 -17.5 5.5t-5.5 14.5 l105 288q1 3 21 71.5t21 72.5l99 272q9 25 59.5 66t78.5 48q24 7 32 7q21 0 21 -10q0 -2 -1 -6t-1 -5q0 -6 11 -6q3 0 74.5 9.5t75.5 9.5h145q2 0 19 2.5t20 2.5q29 0 29 -19q0 -37 -67 -88q-62 -48 -102.5 -54t-47.5 -6z" />
<glyph unicode="g" horiz-adv-x="805" d="M836 169q-13 -36 -71 -80t-95 -44q-21 0 -26 23q-34 -23 -135 -59q-111 -38 -158 -38q2 0 -56 12q-18 2 -47 11q-64 42 -64 135q0 59 24 125q17 46 67 128q111 185 311 306q183 110 333 110q62 0 83 -36q4 -7 -5 -32q-14 -37 -73 -83t-98 -46q-20 0 -21 20.5t-35 20.5 q-81 0 -166 -44.5t-131 -113.5q-20 -30 -40 -59q-21 -35 -36 -77q-20 -53 -20 -100q0 -74 50 -103q5 -2 40.5 -9l35.5 -7q29 0 92 22q58 20 90 39l38 104h-91q-32 0 -61.5 -9.5t-43.5 -9.5q-37 0 -37 23q0 35 66 88q63 50 102 52q26 2 78 8q31 4 98 4q6 0 27 1q16 2 28 1 q16 -2 33 -9q8 -3 4 -18q-14 -32 -31 -71l-45 -124q-1 -3 -7 -30t-7 -31z" />
<glyph unicode="h" horiz-adv-x="871" d="M820 109q-14 -39 -74 -85t-100 -46q-24 0 -24 23q0 -2 6 45q8 61 35 148q40 129 44 145l-295 -8q-12 -44 -26 -95l-50 -137q-13 -37 -77 -85.5t-102 -48.5q-25 0 -25 15q0 11 14 40q17 35 31 80q64 220 130 447q4 10 47 121q15 39 78.5 85.5t101.5 46.5q20 0 20 -14 q0 -11 -13 -38q-11 -22 -52 -147q-18 -53 -18 -54q-9 -30 -11 -56q4 0 15 -1.5t15 -1.5q3 0 66 5t66 5h140q20 53 26 70q18 51 18 69q0 12 2 32q14 38 75.5 86t101.5 48q18 0 21 -11q7 -24 -4 -62q-16 -62 -43 -136l-48 -132q-7 -20 -38 -126q-37 -123 -43 -159 q-4 -31 -10 -68z" />
<glyph unicode="i" horiz-adv-x="500" d="M409 124q-14 -38 -76 -89q-65 -53 -106 -53q-15 0 -21 6t-3 16q8 27 24 80l77 255l46 127q17 57 50 170q-4 2 -11 8q-8 10 -2 27q15 42 91 94q73 51 113 51q20 0 22 -12q2 -16 -9 -43q-14 -36 -15 -45q-4 -12 -11 -37t-83 -252q-22 -77 -66 -221q-9 -38 -20 -82z" />
<glyph unicode="j" horiz-adv-x="770" d="M769 286q-44 -120 -138 -206q-109 -99 -235 -99q-77 0 -150 40q-83 44 -83 108q0 17 6 34q25 68 129.5 158.5t160.5 90.5q20 0 20 -16q0 -6 -3 -15q-6 -17 -34 -48q-13 -14 -49 -40q-29 -21 -33 -33q-3 -6 -3 -12q0 -33 57 -68q40 -26 59 -30q49 -11 83 -11 q14 18 24.5 47.5t31.5 121.5q20 88 40 175q35 153 52 198q14 40 72.5 88.5t102.5 48.5q18 0 18 -14q0 -10 -19 -80q-14 -54 -40 -158l-30 -142q-18 -81 -39 -138z" />
<glyph unicode="k" horiz-adv-x="795" d="M806 94q-14 -37 -74.5 -82t-95.5 -45q-21 0 -26.5 20.5t-8.5 41t-37 112.5q-20 42 -61 101q-48 70 -84 97q-10 -31 -35 -102q-18 -38 -44 -98q0 -7 -2 -18q-16 -37 -77 -82.5t-97 -45.5q-19 0 -22 8q-3 11 23 76l9 15q23 57 50 142q49 157 100 319q0 4 52 136 q15 36 72.5 79.5t95.5 43.5q23 0 23 -16q0 -2 -1 -6l-68 -186q-17 -48 -37 -128q68 56 209 162l136 110q73 59 113 59q22 0 22 -16q0 -32 -58 -85q-52 -46 -279 -221q65 -51 122.5 -151.5t69.5 -181.5q2 -12 7.5 -23.5t5.5 -17.5q0 -7 -3 -17z" />
<glyph unicode="l" horiz-adv-x="704" d="M563 1q-3 0 -44.5 4t-44.5 4q-51 0 -96 -8q-70 -14 -139.5 -28t-73.5 -14q-21 0 -26.5 7t-0.5 34q6 27 15 58q15 57 48 170q58 191 119 360q13 38 42 113q15 37 77 81.5t100 44.5q25 0 25 -17q0 -3 -1 -6l-56 -154q-42 -113 -93 -286q-11 -43 -34 -128q-12 -36 -28 -102 q26 5 74 15q111 30 210 30q111 0 111 -32q0 -38 -71.5 -92t-112.5 -54z" />
<glyph unicode="m" horiz-adv-x="1046" d="M1009 105q-15 -41 -73 -88q-62 -50 -107 -50q-26 0 -23 20q13 43 35 129q3 25 14 82q9 37 29 117q21 60 49 162q-60 -66 -128 -171q-61 -97 -121 -193q-22 -35 -76.5 -70t-84.5 -35q-21 0 -19 0q-8 2 -8 17q-2 91 8 224q10 113 19 225q-131 -193 -178 -304q-3 -4 -9 -13 q-22 -56 -87.5 -108t-106.5 -52q-22 0 -22 17q0 8 4 19q2 7 31 65q33 65 49 92q37 64 156 248q64 98 91 136q56 80 110 140q23 25 69 56q13 9 75 32q42 16 52 16q23 0 23 -19q0 -11 -9.5 -35t-10.5 -29q-11 -36 -27 -101q-13 -69 -19 -266q11 15 35 46q45 49 127 144 q55 70 135 139q107 94 166 94q25 0 25 -17q0 -3 -1 -6l-60 -164q-4 -17 -13 -49q-14 -38 -37 -114q-10 -45 -39 -161q-2 -14 -6 -41q-20 -87 -37 -134z" />
<glyph unicode="n" horiz-adv-x="830" d="M774 118q-15 -41 -73 -90q-62 -53 -107 -53q-16 0 -21 9.5t-4 9.5q-3 0 -8 -1.5t-8 -1.5q-23 0 -29.5 23.5t-11.5 47.5q-26 57 -54 142q-23 73 -47 145q-31 -86 -64 -196q-5 -28 -11 -63q-15 -40 -72 -82.5t-94 -42.5q-29 0 -29 24q0 9 11 50q38 141 103 321 q1 2 42.5 105t42.5 106l50 137q5 7 13 19q25 34 76 68t83 34q14 0 17.5 -4t3.5 -10q0 -15 -15 -39q-7 -10 -6 -31q5 -169 108 -453q18 38 33 80l122 334q0 1 14 21q26 37 76.5 69.5t81.5 32.5q19 0 19 -12q0 -10 -13 -41q-131 -330 -228 -628q2 -9 -1 -30z" />
<glyph unicode="o" horiz-adv-x="862" d="M1015 531q-50 -136 -170 -259q-132 -135 -322 -227q-141 -67 -237 -67q-120 0 -120 112q0 48 22 108q72 198 255 384q193 197 363 223q99 15 93 15q65 0 105 -41.5t40 -110.5q0 -27 -6 -57q-10 -44 -23 -80zM824 433q22 59 22 108q0 63 -37 96q-27 23 -62 23 q-18 0 -32 -4q-18 -4 -50 -16q-18 -8 -44 -19q-11 -3 -28 -12q-69 -61 -130 -154q-54 -83 -82 -160q-17 -45 -17 -81q0 -76 75 -76q46 0 133 36q100 41 153 98q67 71 99 161z" />
<glyph unicode="p" horiz-adv-x="705" d="M968 687q-33 -91 -174 -194q-127 -93 -252 -134q-36 -12 -137 -35q-29 -97 -60 -201q-15 -42 -74 -90t-101 -48q-18 0 -21 6q-7 11 0 38q41 159 79 261l52 143q1 3 8.5 31t8.5 31l48 133q1 2 -1 12q-2 9 0 13q8 12 22 34q23 44 79.5 85t93.5 41q18 0 20.5 -8t5.5 -8 l38 10q100 25 165 25q149 0 197 -79q10 -17 10 -35q0 -13 -7 -31zM773 588q5 16 -24 41q-24 21 -38 26q-25 8 -45 10q-68 4 -57 4q-15 0 -96 -13q-18 -57 -56 -167q14 -1 20 -6t9 -5q8 0 56 8q54 10 85 19q18 5 83 36q55 26 63 47z" />
<glyph unicode="q" horiz-adv-x="881" d="M1017 469q-19 -53 -57 -123q-47 -88 -89 -131q-15 -14 -32 -33q-3 -9 28 -37q9 -7 2 -25q-15 -41 -77.5 -84.5t-99.5 -43.5q-20 0 -34.5 22t-13.5 22q3 0 -35 -17q-103 -48 -186 -48q-116 0 -181.5 58t-65.5 151q0 49 19 101q14 37 59 113q13 20 35 55q70 116 229 233 q154 113 257 132q67 13 73 13q4 0 25 -13q6 -1 17 -2q31 -3 50 -13q110 -57 110 -176q0 -64 -33 -154zM827 379q36 96 28 136q-29 141 -162 141q-3 0 -28.5 -6.5t-28.5 -6.5t-7.5 3t-7.5 3q-6 0 -44 -26q-33 -22 -39 -27q-29 -26 -55 -58q-35 -43 -70 -105q-16 -30 -26 -55 q-13 -38 -13 -76q0 -73 50 -120q55 -49 151 -49q16 0 32 1q-11 29 -27 64q-9 17 -18.5 35t-9.5 29q0 38 73 92q70 51 111 51q13 0 17.5 -3.5t3.5 -15.5l-2 -14q4 -15 19 -39.5t18 -34.5q26 55 35 81z" />
<glyph unicode="r" horiz-adv-x="797" d="M802 114q-14 -39 -73.5 -84t-98.5 -45q-21 0 -30 27q-4 10 -9 44q-2 25 -12 69q-13 34 -38 70q-31 46 -58.5 57t-91.5 27q-3 -1 -56 -148q-1 -16 -3 -24q-15 -39 -75 -87q-63 -51 -105 -51q-9 0 -18 5.5t-6 14.5l140 383q13 43 28 93l39 107q-28 0 -28 18q0 6 2 13 q6 16 30 44q11 9 27 26q23 42 42 61q29 29 68 51.5t65 22.5q23 0 26 -24q81 32 173 32q78 0 143 -19q85 -24 111 -74q8 -16 -6 -56q-25 -69 -112 -146q-83 -74 -189 -125q22 -27 44 -55q30 -39 40 -65q11 -31 19 -80.5t15 -64.5q2 -4 -3 -17zM796 577q0 25 -56 49 q-35 15 -63 21q-43 9 -93 9q-3 0 -27 -2t-33 -2l-3 3l-12 -32q-10 -35 -23 -77l-35 -98q37 17 70 20l58 4q48 9 129 43l54 22q34 18 34 40z" />
<glyph unicode="s" horiz-adv-x="714" d="M817 296q-25 -64 -101 -140q-30 -29 -80 -64.5t-82 -48.5q-61 -26 -147 -46q-90 -21 -144 -21q-93 0 -93 48q0 11 5 24q16 43 91 110q82 72 132 72q20 0 20 -16q0 -7 -3 -17q-8 -20 -37 -50q9 -10 42 -10q41 0 112 17q64 16 84 27q11 22 11 44q0 44 -39 79q-36 32 -74 32 q-2 0 -70 -19q-76 -21 -111 -28q-40 -9 -68 -9q-48 0 -48 39q0 18 10 48q37 99 177 232q146 138 278 191q21 9 62 25q26 9 94 9q100 0 100 -55q0 -15 -7 -35q-4 -11 -11 -28q-20 -39 -77 -78.5t-91 -39.5q-26 0 -23 19q5 11 10 32q2 18 -22 22q-5 1 -36 1q-38 0 -51 -4 q-52 -13 -125 -82q-69 -66 -86 -111q-1 -3 -2 -9.5t-3 -11.5q1 0 3 -1t6 -1t122.5 28t121.5 28q60 0 107 -37q52 -41 56 -105q1 -21 -13 -60z" />
<glyph unicode="t" horiz-adv-x="854" d="M940 650q-3 0 -16 3t-18 4q-10 1 -37 1q-18 0 -95 -4q-15 -1 -46 -6q-31 -100 -64 -206l-40 -110q-2 -4 -24.5 -74t-24.5 -73q-13 -37 -30 -81q-15 -38 -79 -86.5t-100 -48.5q-24 0 -24 15q0 17 11 35.5t26 60.5q2 4 15.5 49t14.5 48l40 109q29 94 60 194l58 159h-31 q-3 0 -124 -17.5t-125 -17.5q-23 0 -23 22q0 35 68 88q65 49 104 55q64 10 192 27q84 8 245 17q136 8 151 8q45 0 60 -2q38 -6 38 -26q0 -38 -73 -91q-69 -52 -109 -52z" />
<glyph unicode="u" horiz-adv-x="805" d="M789 136q-16 -43 -69 -89q-57 -49 -102 -49q-23 0 -23 13q0 7 5 20t5 14q4 16 11 50q-75 -53 -173 -89t-166 -36q-67 0 -91 24q-21 19 -21 64q0 64 47 191q35 86 87 215q45 113 50 125q32 78 53 110.5t72.5 68t82.5 35.5q22 0 22 -16q0 -7 -6 -22q-1 -3 -87 -211 t-87 -211q-41 -112 -41 -163q0 -29 11 -40.5t60 -11.5q66 0 129 31q9 9 30 27q30 26 65 41q106 324 126 381q11 32 35 94q14 32 68 73q58 43 95 43q23 0 23 -16q0 -2 -2 -6l-45 -125q-10 -31 -25 -79q-26 -77 -67 -202q-35 -124 -72 -254z" />
<glyph unicode="v" horiz-adv-x="672" d="M895 708l-46 -64q-48 -70 -137 -213q-48 -81 -95 -163q-55 -96 -87 -163q-19 -40 -77 -84t-94 -44q-15 0 -17 4q-4 8 -10 55q-12 99 -12 167q0 50 -1 125q-2 81 -2 118q0 110 11 203q-2 11 -1 28q14 40 76 84t99 44q15 0 19 -4q5 -5 -2 -35q-4 -19 -6 -45q-7 -77 -2 -402 q84 134 149 232q22 31 68 99q28 41 43 59q33 39 73 66q45 30 74 30q22 0 22 -15q0 -6 -4.5 -18.5t-40.5 -63.5z" />
<glyph unicode="w" horiz-adv-x="924" d="M1210 818q-14 -21 -37 -62q-29 -63 -91 -187q-7 -13 -104 -165q-36 -54 -186 -280q-27 -40 -84 -81t-92 -41q-23 0 -29 18q-4 22 -8 45q-1 4 2.5 20t3.5 22.5t6 65.5q7 55 19 166q-63 -93 -126 -187q-76 -108 -137 -143q-49 -27 -71 -27q-17 0 -21 6q1 12 2 36 q-3 111 9 172l30 208q26 171 59 261q4 10 11 27q18 37 75 76t88 39q22 0 22 -21q0 -11 -7 -31q-6 -15 -11 -29q-28 -97 -46 -220q-14 -98 -28 -195q1 -1 3 2q46 61 108 166l104 178q19 32 72 67.5t84 35.5q20 0 21 -8q1 -14 -6 -54q-17 -96 -33 -192q-19 -111 -24 -193 q80 116 116 182q36 76 113 228q14 28 57 66q47 43 82 55q25 9 36 9q23 0 23 -15q0 -7 -5 -20z" />
<glyph unicode="x" horiz-adv-x="841" d="M846 131q-15 -43 -81 -91t-107 -48q-18 0 -20 4q-19 25 -44 105q-8 27 -88 232q-43 -36 -127 -113q-44 -43 -106 -127q-31 -42 -82 -78q-55 -39 -91 -39q-22 0 -22 19t27 56q21 26 41 51q60 77 91 108q42 42 146 133q91 79 92 82q3 9 -25 77q-26 54 -74 157q-5 12 0 26 q14 39 80.5 88t109.5 49q17 0 34.5 -6.5t19.5 -10t2 -8.5q0 -6 -16 -37q38 -81 69 -162q67 56 155 115q119 79 163 79q25 0 25 -16q0 -7 -4 -18q-23 -62 -167 -139q-35 -18 -90 -63q-50 -41 -53 -48q0 -1 55 -143q16 -43 54 -160q1 -3 35 -58q3 -4 -2 -16z" />
<glyph unicode="y" horiz-adv-x="691" d="M944 682q-94 -259 -357 -374q-17 -56 -48 -161q-3 -20 -9 -45q-13 -38 -74.5 -84.5t-98.5 -46.5q-19 0 -22 8q-1 3 -1 8q0 3 18 67q11 30 29 87q7 32 15 64q10 38 25 66q-7 3 -24 4q-128 8 -128 137q0 62 29 142q1 3 61 139q17 38 76.5 82.5t96.5 44.5q24 0 24 -22 q0 -5 -2 -10q-10 -15 -27 -42q-18 -34 -40 -96q-25 -67 -25 -115q0 -105 116 -105q79 0 111 33q14 14 33 50q25 49 35 78q9 25 9 78q0 2 5 16q14 38 70.5 84t97.5 46q20 0 21 -9q4 -36 -3 -80q-3 -18 -13 -44z" />
<glyph unicode="z" horiz-adv-x="903" d="M908 116q-15 -40 -76 -84t-97 -44q-17 0 -33 12q-3 5 -12 11q-20 8 -51 11q-11 1 -107 1h-104q-31 -2 -194 -22q-21 -3 -76 -12q-50 -8 -52 -8q-27 0 -27 20q0 29 86 125q27 23 79 69q161 149 548 462q-69 1 -125 -4q-35 -4 -120 -13q-74 -8 -77 -8q-44 0 -44 18 q0 39 73 95q70 54 110 54q3 0 13 -2.5t13 -2.5q-4 0 40 4q69 8 138.5 15t150.5 7t139 -11q9 -2 12 -14q2 -9 -1 -17q-8 -22 -43.5 -55.5t-63.5 -49.5q-7 -4 -90 -34q-10 -3 -31 -15q-370 -286 -557 -467q36 3 125 13q121 15 234 15q102 0 113 -1q24 -5 70 -14q4 0 16 -14 q7 -2 18 -10q10 -11 3 -30z" />
<glyph unicode="{" horiz-adv-x="628" d="M763 664q-14 -39 -76.5 -86t-102.5 -47q-10 0 -64 45q-30 26 -61 52q-7 5 -10 18q-2 11 1 18q14 39 76 86t103 47q12 0 14 -1q77 -60 117 -102q10 -11 3 -30zM521 303q-29 -14 -73 -22q-33 -5 -65 -10q-72 -13 -82 -13q-33 0 -33 21q0 40 70 95t113 55q3 0 8.5 -1.5 t8.5 -1.5t77.5 14t77.5 14q26 0 26 -22q0 -27 -51 -73q-43 -39 -77 -56zM614 194q-21 -59 -119 -112q-75 -41 -141 -56q-2 0 -36 -12q-25 -9 -46 -9q-30 0 -30 21q0 39 65 91q60 48 103 58q10 0 28 2q11 2 46 13q30 11 59 22q37 13 51 13q23 0 23 -17q0 -6 -3 -14z" />
<glyph unicode="|" horiz-adv-x="481" d="M644 774q-1 -4 -59 -141t-59 -141l-72 -196q-24 -50 -64 -151q-3 -14 -13 -45q-19 -36 -77 -78t-93 -42q-18 0 -18 24q0 20 14 59q1 4 34 80t35 79l81 225q1 2 12 24.5t12 25.5l35 98q21 57 55 111q21 34 75 70.5t86 36.5q22 0 22 -16q0 -6 -6 -23z" />
<glyph unicode="}" horiz-adv-x="585" d="M762 770q-10 -26 -39 -54q-37 -33 -72 -54q-22 -10 -61 -31q-50 -35 -99 -70q-52 -34 -83 -34q-23 0 -23 18q0 30 56 78q68 58 153 111q103 63 146 63q24 0 24 -17q0 -4 -2 -10zM461 306q-19 -3 -98 -3q-74 0 -82 1q-12 1 -15 5q-7 11 -1 28q14 39 73.5 84t98.5 45 q-4 0 28 -1q43 -1 131 -2q24 0 24 -20q0 -34 -63 -84q-59 -46 -96 -53zM480 118q-13 -35 -73 -81.5t-98 -46.5q-25 0 -79 41q-44 34 -54 47.5t-3 35.5q14 36 73.5 81t97.5 45q13 0 21 -10q15 -20 32 -34q30 -18 84 -56q5 -5 -1 -22z" />
<glyph unicode="~" horiz-adv-x="829" d="M984 756q-6 -18 -42 -53q-11 -11 -36 -32q-125 -85 -215 -85q-43 0 -85 39t-80 39q-9 0 -19 -1q-21 -24 -56 -45t-56 -21q-18 0 -18 13q0 5 3 13q12 34 86 91.5t117 66.5q7 3 21 6.5t40 3.5q42 0 31 1q14 -1 37 -13q3 -1 45 -36q35 -28 56 -28q37 0 82.5 32.5t73.5 32.5 q24 0 15 -24z" />
<glyph unicode="&#xa3;" horiz-adv-x="1023" d="M951 119q-10 -29 -52 -66t-82 -51q-24 -9 -52 -9q-14 0 -51.5 7t-57 18.5t-45.5 44.5q-22 18 -68 57q-28 -33 -80 -68q-55 -37 -91 -43q-95 -16 -129 -16q-70 0 -70 51q0 21 11 52q0 2 35 73q31 64 108 131q86 75 150 75q7 0 61 -13l49 134q36 98 158 203 q134 115 243 115q47 0 104 -42q5 -4 14 -36q3 -3 7 -11t-1 -20q-14 -40 -78 -85q-60 -42 -95 -42q-20 0 -24 15q-8 25 -15 33q-11 12 -42 26q-8 4 -22 4q-17 0 -36 -23q-14 -17 -20 -33l-28 -77q57 15 79 18h49h39q23 -4 23 -19q0 -36 -66 -86q-61 -47 -100 -52 q-25 -1 -76 -2q-1 0 -5 -4q-10 -19 -28 -69q40 -26 86 -67l78 -72q7 -6 51 -12q51 -7 67 -13q11 -3 2 -26zM452 169q-33 18 -74 32l-9 -24q-2 -6 -2 -10q0 -15 29 -15q49 0 56 17z" />
<glyph unicode="&#xa5;" horiz-adv-x="1135" d="M1129 467q-9 -1 -46 2q-28 2 -48 -6q-36 -27 -107 -75q-48 -29 -128 -64q-117 -52 -190 -52h-105q-9 -22 -25 -70q-7 -30 -17 -66q-15 -44 -74 -92q-61 -52 -106 -52q-17 0 -21 7q-3 4 -3 11q0 8 7 25q7 21 9 28q4 16 11 48l108 303q-25 0 -74 -3q-7 -1 -24.5 -6 t-21.5 -5q-25 0 -25 20q0 42 80 97q76 52 122 53q2 6 3.5 18t2.5 15q10 16 28 49q12 26 40 75q20 32 74 67t83 35q22 0 22 -16q0 -7 -3 -24q59 16 102 16q137 0 265 -67q26 -14 44.5 -47.5t21.5 -66.5q18 3 73 3h50q34 -4 34 -22q0 -31 -64 -82.5t-98 -55.5zM929 491 q6 59 -58 95q-39 23 -127 45q-37 9 -54 9h-51l-68 -186q89 -19 138 -19q64 0 101 8q52 12 119 48z" />
<glyph unicode="&#xa9;" horiz-adv-x="1014" d="M1072 447q-72 -197 -244 -328q-175 -132 -371 -132q-75 0 -149 31q-104 44 -104 140q0 43 22 102q33 91 93 173q37 50 143 151.5t214.5 158.5t193.5 57q28 0 34 -2q17 -4 28 -22q25 0 68 -7q106 -36 106 -159q0 -70 -34 -163zM941 382q28 77 28 141q0 106 -82 136 q-18 6 -74 6q-3 0 -18.5 -1.5t-18.5 -1.5q-21 0 -21 17q0 5 4 10h-15q-2 0 -44 -10q-61 -14 -153 -96q-66 -59 -119 -123q-40 -49 -70 -133q-18 -48 -18 -84q0 -84 102 -123q62 -23 120 -23q138 0 228 65q96 70 151 220zM696 276q-9 -5 -59 -16q-81 -18 -85 -18 q-75 0 -75 60q0 27 16 72q44 119 172 181q60 29 101 29q23 0 45 -14q26 -16 26 -38q0 -28 -45 -63t-74 -35q-10 0 -24 20t-34 20q-18 0 -25 -10q-2 -3 -10 -24q-12 -34 -12 -52q0 -35 45 -35q3 0 56 12t56 12q18 0 18 -11q0 -20 -36 -52q-32 -28 -56 -38z" />
<glyph unicode="&#xad;" d="M707 424q-10 -26 -55 -63.5t-77 -45.5q-22 -5 -35 -5q-3 0 -62.5 4.5t-62.5 4.5h-104q-10 0 -13 10q-3 9 0 17q11 30 62.5 70.5t87.5 44.5h56q34 0 109 -4q83 -4 87.5 -7.5t6 -13t0.5 -12.5z" />
<glyph unicode="&#xae;" horiz-adv-x="1031" d="M1076 469q-7 -20 -31 -62q-32 -57 -38 -70q-47 -93 -174 -185q-116 -86 -194 -101q-24 -9 -73 -26q-68 -23 -119 -23t-122 30q-98 41 -98 164q0 61 24 128q19 54 42.5 92t85.5 118q89 115 219 190q26 15 102 43q87 33 160 33q40 0 61 -5q15 -7 46 -17q18 -1 52 -10 q1 -8 9 -20q86 -48 81 -109q-7 -100 -33 -170zM688 440q-28 16 -48 20q-3 -18 -11 -46q41 17 59 26zM942 402q13 38 21.5 89t5.5 73q-4 35 -33 56q-25 15 -51 30q-10 6 -30 8q-25 3 -29 4.5t-5.5 8l-1.5 6.5q-15 10 -68 10q-38 0 -54 -4q-63 -15 -117 -42q-32 -15 -53 -38 q-65 -72 -92.5 -113t-48 -97t-20.5 -110q0 -107 85 -141q66 -26 106 -26q44 0 156 42q125 48 133 84q-37 1 -109 4q-55 4 -146 32q-15 -24 -54 -52q-42 -30 -64 -30q-6 0 -9 2q-6 9 -5 13q2 27 16 73q10 29 19 59q11 51 24 108q4 13 16 35q23 29 58 52.5t60 23.5q4 0 4.5 -1 t4.5 -1q65 16 73 16q27 0 57 -12q41 -17 41 -46q0 -52 -114 -131q120 -29 140 -28h64q3 8 11 24.5t9 18.5z" />
<glyph unicode="&#x2000;" horiz-adv-x="426" />
<glyph unicode="&#x2001;" horiz-adv-x="853" />
<glyph unicode="&#x2002;" horiz-adv-x="426" />
<glyph unicode="&#x2003;" horiz-adv-x="853" />
<glyph unicode="&#x2004;" horiz-adv-x="284" />
<glyph unicode="&#x2005;" horiz-adv-x="213" />
<glyph unicode="&#x2006;" horiz-adv-x="142" />
<glyph unicode="&#x2007;" horiz-adv-x="142" />
<glyph unicode="&#x2008;" horiz-adv-x="106" />
<glyph unicode="&#x2009;" horiz-adv-x="170" />
<glyph unicode="&#x200a;" horiz-adv-x="47" />
<glyph unicode="&#x2010;" d="M707 424q-10 -26 -55 -63.5t-77 -45.5q-22 -5 -35 -5q-3 0 -62.5 4.5t-62.5 4.5h-104q-10 0 -13 10q-3 9 0 17q11 30 62.5 70.5t87.5 44.5h56q34 0 109 -4q83 -4 87.5 -7.5t6 -13t0.5 -12.5z" />
<glyph unicode="&#x2011;" d="M707 424q-10 -26 -55 -63.5t-77 -45.5q-22 -5 -35 -5q-3 0 -62.5 4.5t-62.5 4.5h-104q-10 0 -13 10q-3 9 0 17q11 30 62.5 70.5t87.5 44.5h56q34 0 109 -4q83 -4 87.5 -7.5t6 -13t0.5 -12.5z" />
<glyph unicode="&#x2012;" d="M707 424q-10 -26 -55 -63.5t-77 -45.5q-22 -5 -35 -5q-3 0 -62.5 4.5t-62.5 4.5h-104q-10 0 -13 10q-3 9 0 17q11 30 62.5 70.5t87.5 44.5h56q34 0 109 -4q83 -4 87.5 -7.5t6 -13t0.5 -12.5z" />
<glyph unicode="&#x2013;" horiz-adv-x="808" d="M796 424q-13 -26 -67.5 -63.5t-93.5 -45.5q-27 -5 -43 -5q-3 0 -75.5 4.5t-76.5 4.5h-126q-13 0 -16 10q-4 9 0 17q13 30 76 70.5t106 44.5h68q42 0 133 -4q101 -4 106.5 -7.5t7.5 -13t1 -12.5z" />
<glyph unicode="&#x2014;" horiz-adv-x="1308" d="M1295 424q-24 -26 -133.5 -63.5t-187.5 -45.5q-54 -5 -85 -5q-8 0 -152.5 4.5t-152.5 4.5h-253q-24 0 -31 10q-8 9 0 17q26 30 151.5 70.5t213.5 44.5h136q83 0 265 -4q202 -4 213 -7.5t14.5 -13t1.5 -12.5z" />
<glyph unicode="&#x202f;" horiz-adv-x="170" />
<glyph unicode="&#x205f;" horiz-adv-x="213" />
<glyph unicode="&#x2122;" horiz-adv-x="1008" d="M1052 512q-8 -22 -41 -46.5t-52 -24.5q-9 0 -11 3.5t-4 16.5q-1 13 1 56q2 35 6 104q-29 -41 -70 -96q-7 -10 -24 -32q-13 -15 -40 -31.5t-41 -16.5q-18 0 -21 5q-6 10 -7 39q-1 55 1 79.5t7 72.5q-41 -53 -83 -106q-63 -75 -104 -75q-5 0 -12 9q2 7 7 19q31 36 88 109 q67 89 76 100q81 94 126 94q18 0 18 -28q0 2 -3 -28q-3 -22 -8 -65q-3 -30 -5 -79q52 64 82 113q18 30 62.5 59t67.5 24q4 -7 4 -12q-6 -41 -14 -111q-2 -38 -7 -108q4 -13 1 -44zM730 750q-6 -19 -34.5 -41.5t-53.5 -28.5q-26 0 -74 -9l-53 -148q-1 -5 -5 -17 q-10 -17 -42 -40t-50 -23q-5 0 -9 5.5t-2 10.5l76 202q-2 5 -11 3q-18 -3 -20 -3q-10 -1 -30 -2t-22 -1q-35 0 -35 11q0 19 31 45t51 29q57 9 167 17q90 8 103 8q20 0 13 -18z" />
<glyph unicode="&#xe000;" horiz-adv-x="820" d="M0 820h820v-820h-820v820z" />
</font>
</defs>
</svg>
