<?xml version="1.0" standalone="no"?>
<!DOCTYPE svg PUBLIC "-//W3C//DTD SVG 1.1//EN" "http://www.w3.org/Graphics/SVG/1.1/DTD/svg11.dtd" >
<svg xmlns="http://www.w3.org/2000/svg">
<metadata></metadata>
<defs>
<font id="slukonimedium" horiz-adv-x="601" >
<font-face units-per-em="1000" ascent="750" descent="-250" />
<missing-glyph horiz-adv-x="405" />
<glyph horiz-adv-x="1000" />
<glyph horiz-adv-x="1000" />
<glyph unicode="&#xd;" horiz-adv-x="1000" />
<glyph unicode=" "  horiz-adv-x="405" />
<glyph unicode="&#x09;" horiz-adv-x="405" />
<glyph unicode="&#xa0;" horiz-adv-x="405" />
<glyph unicode="!" horiz-adv-x="341" d="M0 48v102q0 20 14 34t34 14h155q21 0 37.5 -14t16.5 -34v-102q0 -19 -16.5 -33.5t-37.5 -14.5h-155q-20 0 -34 14t-14 34zM0 309v338q0 21 14 37.5t34 16.5h203q19 0 33.5 -16.5t14.5 -37.5v-204q0 -68 -32 -117q-41 -54 -76 -54h-154q-16 0 -26.5 10.5t-10.5 26.5z" />
<glyph unicode="&#x22;" horiz-adv-x="544" d="M0 392v261q0 19 14 33t33 14h118q23 0 38 -13.5t15 -33.5v-133q0 -56 -38 -110q-35 -54 -73 -54h-69q-17 0 -27.5 10t-10.5 26zM270 392v261q0 19 14.5 33t33.5 14h116q21 0 37.5 -14t16.5 -33v-133q0 -56 -36 -110q-42 -54 -75 -54h-69q-16 0 -27 10t-11 26z" />
<glyph unicode="'" horiz-adv-x="270" d="M0 392v261q0 19 14 33t33 14h118q23 0 38 -13.5t15 -33.5v-133q0 -56 -38 -110q-35 -54 -73 -54h-69q-17 0 -27.5 10t-10.5 26z" />
<glyph unicode="(" horiz-adv-x="327" d="M35 54q-70 334 0 589q8 32 43.5 53.5t82.5 21.5q52 0 90 -25.5t38 -60.5q-31 -131 -31 -284t31 -284q0 -36 -37.5 -60.5t-90.5 -24.5q-47 0 -82.5 21.5t-43.5 53.5z" />
<glyph unicode=")" horiz-adv-x="334" d="M0 64q32 131 32 284t-32 284q0 35 37.5 60.5t88.5 25.5q48 0 84 -21.5t44 -53.5q32 -131 32 -285t-32 -304q-8 -32 -44 -53.5t-84 -21.5q-52 0 -89 24.5t-37 60.5z" />
<glyph unicode="+" horiz-adv-x="598" d="M0 244v95q0 24 14 39t34 15h128v121q0 23 13.5 38t33.5 15h100q20 0 34 -15t14 -38v-121h127q21 0 34.5 -15t13.5 -39v-95q0 -20 -14 -34t-34 -14h-127v-127q0 -19 -14 -33t-34 -14h-100q-19 0 -33 14t-14 33v127h-128q-20 0 -34 14t-14 34z" />
<glyph unicode="," horiz-adv-x="290" d="M0 47v101q0 20 14 34t33 14h155q20 0 36 -14.5t16 -33.5v-134q0 -63 -36 -111q-40 -52 -75 -52h-69q-16 0 -26.5 10t-10.5 26v113q-37 17 -37 47z" />
<glyph unicode="." horiz-adv-x="302" d="M0 48v102q0 20 14 34t34 14h155q21 0 37.5 -14t16.5 -34v-102q0 -19 -16.5 -33.5t-37.5 -14.5h-155q-20 0 -34 14t-14 34z" />
<glyph unicode="/" horiz-adv-x="464" d="M0 27l151 656q12 33 44 33h192q20 0 34 -15t14 -38l-146 -649q-5 -15 -19.5 -25t-30.5 -10h-186q-20 0 -36.5 13.5t-16.5 34.5z" />
<glyph unicode="0" horiz-adv-x="594" d="M0 196v308q0 80 85 140q73 56 185 56q111 0 184 -56q86 -60 86 -140v-308q0 -82 -86 -142q-77 -54 -184 -54q-108 0 -185 54q-85 60 -85 142z" />
<glyph unicode="1" horiz-adv-x="490" d="M0 513v123q0 25 14 44.5t34 19.5h342q20 0 34 -16.5t14 -37.5v-598q0 -20 -14 -34t-34 -14h-246q-20 0 -34 14t-14 34v401h-48q-20 0 -34 19.5t-14 44.5z" />
<glyph unicode="2" horiz-adv-x="599" d="M21 140q0 8 1 15.5t4 15.5t5 12.5t8 14t7.5 12.5t9.5 14t9 13l97 135q-2 0 -19 -0.5t-22.5 0t-17.5 3.5t-22 8q-48 28 -59 84.5t21 105.5q26 43 64 68t92 44q125 36 217 -4q47 -17 82.5 -58t51.5 -94q25 -73 -5 -157q-3 -8 -7 -15.5t-7.5 -13t-9.5 -13.5t-9.5 -12 t-11.5 -12.5t-11 -11.5l-12.5 -12.5l-11.5 -11.5q40 -12 68.5 -49t28.5 -81q0 -56 -42 -98t-99 -42h-264q-56 0 -96 41.5t-40 98.5z" />
<glyph unicode="3" horiz-adv-x="558" d="M3 240q8 48 38 84.5t77 52.5l73 88h-105q-19 0 -33 19.5t-14 43.5v110q0 24 14 43.5t33 19.5h288q54 0 92 -40.5t38 -96.5q0 -17 -7.5 -35.5t-12 -25.5t-21.5 -32l-32 -47h6q3 -3 18.5 -21.5t20.5 -25.5t14 -21t14 -27q30 -74 6 -156q-12 -48 -47.5 -87.5t-83.5 -59.5 q-46 -17 -114.5 -18t-125.5 18q-68 25 -107.5 81t-28.5 133z" />
<glyph unicode="4" horiz-adv-x="597" d="M5 213l96 433q0 21 14.5 37.5t34.5 16.5h271q20 0 34.5 -16.5t14.5 -37.5v-117h26q21 0 35 -14t14 -34v-268q0 -20 -14 -33.5t-35 -13.5h-26v-118q0 -20 -14 -34t-35 -14h-187q-23 0 -37.5 14t-14.5 34v113h-124q-24 0 -40.5 16t-12.5 36z" />
<glyph unicode="5" horiz-adv-x="581" d="M20 113q-25 37 -22.5 87t30.5 87v350q0 24 16.5 44t36.5 20h372q20 0 34 -20t14 -44v-113q0 -24 -14 -43t-34 -19h-42q39 -16 62 -44.5t44 -78.5q30 -65 5 -177q-16 -47 -53 -88t-84 -61q-47 -17 -116.5 -18t-123.5 18q-86 35 -125 100z" />
<glyph unicode="6" horiz-adv-x="585" d="M15 346q7 15 23 43t19 34l132 198q23 40 69 57t93 1q54 -16 80.5 -66.5t7.5 -104.5q-5 -11 -16 -32q71 -52 98.5 -132.5t0.5 -165.5q-35 -102 -134 -152t-199 -16q-69 21 -118 74.5t-63 121t7 140.5z" />
<glyph unicode="7" horiz-adv-x="573" d="M0 514v123q0 25 15 44t38 19h449q20 0 34.5 -16t14.5 -37q-19 -92 -55 -243.5t-62.5 -259t-27.5 -107.5q-7 -37 -47 -37h-263q-21 0 -37 14.5t-16 34.5l96 400h-86q-23 0 -38 20t-15 45z" />
<glyph unicode="8" horiz-adv-x="589" d="M0 244q0 61 27 102q-27 52 -27 103q0 105 80.5 179t193.5 74q109 0 189 -74.5t80 -178.5q0 -49 -26 -103q26 -42 26 -102q0 -100 -80 -173.5t-189 -73.5q-112 0 -193 73t-81 174z" />
<glyph unicode="9" horiz-adv-x="559" d="M7 511q36 108 134 159t205 16q106 -32 156 -131.5t18 -207.5q-6 -14 -42 -79l-132 -206q-24 -39 -70 -54.5t-95 -3.5q-56 20 -82.5 72t-7.5 108q2 3 6 14t10 17q-72 48 -100 130.5t0 165.5z" />
<glyph unicode=":" horiz-adv-x="311" d="M0 48v101q0 20 15 33.5t38 13.5h149q24 0 38.5 -13t14.5 -34v-101q0 -20 -14.5 -34t-38.5 -14h-149q-23 0 -38 14t-15 34zM0 361v95q0 20 15.5 36.5t37.5 16.5h149q24 0 38.5 -16t14.5 -37v-95q0 -21 -14.5 -34.5t-38.5 -13.5h-149q-23 0 -38 14t-15 34z" />
<glyph unicode=";" horiz-adv-x="306" d="M0 48v101q0 20 15 33.5t38 13.5h155q20 0 33.5 -13.5t13.5 -33.5v-132q0 -65 -37 -113q-9 -18 -29.5 -35.5t-39.5 -17.5h-74q-16 0 -27 11t-11 26v112q-37 19 -37 48zM0 361v95q0 20 15.5 36.5t37.5 16.5h155q19 0 33 -16.5t14 -36.5v-95q0 -20 -13.5 -34t-33.5 -14h-155 q-23 0 -38 14t-15 34z" />
<glyph unicode="?" horiz-adv-x="483" d="M0 513v122q0 25 16.5 45t36.5 20h246q59 0 112 -69q43 -61 43 -144q0 -87 -43 -144q-14 -24 -42.5 -47t-53.5 -23h-165q-20 0 -34.5 14t-14.5 34v128h-48q-20 0 -36.5 20t-16.5 44zM101 48v102q0 20 14.5 34t34.5 14h154q21 0 37.5 -14t16.5 -34v-102q0 -20 -16.5 -34 t-37.5 -14h-154q-20 0 -34.5 14t-14.5 34z" />
<glyph unicode="A" horiz-adv-x="588" d="M0 47v457q0 45 20.5 75.5t62.5 64.5q85 56 187 56q117 0 188 -56q4 -3 18.5 -14t18.5 -14t14.5 -12.5t14 -16t9 -16.5t7 -21.5t1.5 -25.5v-477q0 -21 -13 -34t-34 -13h-438q-22 0 -39 13.5t-17 33.5z" />
<glyph unicode="B" horiz-adv-x="585" d="M0 47v597q0 21 17.5 38.5t38.5 17.5h303q51 0 91.5 -48.5t40.5 -111.5q0 -18 -4 -33.5t-13 -35.5t-11 -26q43 -30 69 -84.5t26 -123.5q0 -99 -50 -168t-121 -69h-331q-22 0 -39 13.5t-17 33.5z" />
<glyph unicode="C" horiz-adv-x="578" d="M-6 351q0 97 27.5 173.5t90.5 126t154 49.5q65 0 116 -19q34 -10 73 -35q61 -43 80 -94q0 -2 1.5 -7t1.5 -9q3 -19 -10 -37l-120 -148q60 -74 120 -149q13 -18 10 -38q0 -3 -1 -6.5t-1 -5.5q-22 -63 -92 -104.5t-157 -46.5h-1q-7 -1 -20 -1q-69 0 -122.5 28.5t-85.5 77.5 t-48 111t-16 134z" />
<glyph unicode="D" d="M0 51v598q0 22 14.5 36.5t36.5 14.5h311q83 0 144 -110q56 -104 56 -239q0 -137 -56 -241q-61 -110 -144 -110h-311q-22 0 -36.5 14.5t-14.5 36.5z" />
<glyph unicode="E" horiz-adv-x="603" d="M0 50v600q0 21 15 35.5t35 14.5h266q21 0 35.5 -14.5t14.5 -35.5v-80h46q21 0 35.5 -14.5t14.5 -35.5v-105h34q21 0 35.5 -15t14.5 -36v-314q0 -21 -14.5 -35.5t-35.5 -14.5h-446q-20 0 -35 14.5t-15 35.5z" />
<glyph unicode="F" horiz-adv-x="615" d="M0 50v602q0 20 14.5 34.5t35.5 14.5h463q21 0 35.5 -14.5t14.5 -34.5v-315q0 -20 -14.5 -34.5t-35.5 -14.5h-32v-68q0 -21 -14.5 -36t-35.5 -15h-65v-119q0 -21 -14.5 -35.5t-35.5 -14.5h-266q-21 0 -35.5 14.5t-14.5 35.5z" />
<glyph unicode="G" horiz-adv-x="651" d="M0 335q0 147 75 254t218 111h165q21 0 36 -15t15 -36v-237h34q21 0 35.5 -15t14.5 -36v-363q0 -28 -14.5 -47t-35.5 -19h-181q-20 0 -35 19t-15 47h-35q-73 0 -128 27t-86.5 74.5t-47 106.5t-15.5 129z" />
<glyph unicode="H" horiz-adv-x="712" d="M0 49v600q0 20 14.5 35t34.5 15h187q21 0 35.5 -15t14.5 -35v-11h91v11q0 20 14.5 35t35.5 15h178q21 0 35.5 -15t14.5 -35v-600q0 -20 -14.5 -34.5t-35.5 -14.5h-178q-21 0 -35.5 14.5t-14.5 34.5v12h-102v-12q0 -20 -14.5 -34.5t-35.5 -14.5h-176q-20 0 -34.5 14.5 t-14.5 34.5z" />
<glyph unicode="I" horiz-adv-x="414" d="M-1 51v600q0 20 14.5 35t35.5 15h265q21 0 35.5 -15t14.5 -35v-600q0 -21 -14.5 -35.5t-35.5 -14.5h-265q-21 0 -35.5 14.5t-14.5 35.5z" />
<glyph unicode="J" horiz-adv-x="587" d="M-5 196v161q0 20 14.5 34.5t34.5 14.5h180v245q0 20 14.5 34.5t34.5 14.5h213q20 -1 34.5 -15t14.5 -34v-455q0 -80 -85 -142q-79 -54 -185 -54q-105 0 -184 54q-86 62 -86 142z" />
<glyph unicode="K" horiz-adv-x="584" d="M-1 50v600q0 13 6.5 24.5t18 18.5t25.5 7h451v-1q30 0 43.5 -26t-2.5 -50l-170 -263l170 -281q9 -14 9 -29q0 -21 -14.5 -35.5t-35.5 -14.5h-451q-21 0 -35.5 14.5t-14.5 35.5z" />
<glyph unicode="L" horiz-adv-x="609" d="M0 42v608q0 20 14.5 34.5t35.5 14.5h217q21 0 35.5 -14.5t14.5 -34.5v-236h184q20 0 35 -14.5t15 -34.5q5 -47 5 -158q0 -113 -5 -158q0 -20 -15 -34.5t-35 -14.5h-451q-19 0 -33 12t-17 30z" />
<glyph unicode="M" horiz-adv-x="728" d="M0 49v601q0 20 14.5 34.5t34.5 14.5q1 0 4.5 -0.5t5.5 -0.5l280 -91l280 91q3 1 9 1q20 0 34 -14.5t14 -34.5v-601q0 -20 -14 -34.5t-34 -14.5h-169q-20 0 -34.5 14.5t-14.5 34.5v36l-72 -43l-74 43v-36q0 -20 -14 -34.5t-34 -14.5h-167q-20 0 -34.5 14.5t-14.5 34.5z " />
<glyph unicode="N" horiz-adv-x="731" d="M0 50v600q0 20 14.5 35t35.5 15q1 0 4 -0.5t5 -0.5q43 -9 172.5 -42t175.5 -42v35q0 20 15 35t36 15h166q21 0 36 -15t15 -35v-600q0 -21 -15 -35.5t-36 -14.5q-5 0 -9 1l-348 84v-35q0 -21 -14.5 -35.5t-35.5 -14.5h-167q-21 0 -35.5 14.5t-14.5 35.5z" />
<glyph unicode="O" horiz-adv-x="594" d="M0 196v308q0 80 85 140q73 56 185 56q111 0 184 -56q86 -60 86 -140v-308q0 -82 -86 -142q-77 -54 -184 -54q-108 0 -185 54q-85 60 -85 142z" />
<glyph unicode="P" horiz-adv-x="597" d="M0 50v599q0 21 15 36t35 15h311q82 0 144 -80q56 -72 56 -171q0 -102 -56 -172q-62 -80 -144 -80h-44v-147q0 -20 -14 -35t-34 -15h-219q-20 0 -35 15t-15 35z" />
<glyph unicode="Q" d="M0 195v314q0 86 83 141t188 55q104 0 186 -53q90 -65 90 -143v-314q0 -49 -37 -95l26 -107q0 -20 -16.5 -36.5t-36.5 -16.5h-186q-20 0 -36.5 16.5t-16.5 36.5v6q-98 8 -171 61t-73 135z" />
<glyph unicode="R" horiz-adv-x="597" d="M0 50v614q0 15 14.5 25.5t35.5 10.5h285q83 0 144 -80q56 -70 56 -171q0 -100 -56 -172q-5 -5 -7 -9l80 -210q6 -22 -10 -40t-39 -18h-453q-20 0 -35 14.5t-15 35.5z" />
<glyph unicode="S" horiz-adv-x="632" d="M2 140q0 43 19.5 77.5t50.5 49.5q-70 83 -70 167q0 96 43.5 162.5t114.5 89.5q39 23 174 23q113 0 162 -18q38 -8 63 -45.5t25 -86.5q0 -43 -19.5 -77t-51.5 -48q71 -84 71 -167q0 -97 -43.5 -163.5t-114.5 -89.5q-41 -23 -174 -23q-111 0 -162 17q-38 8 -63 45.5 t-25 86.5z" />
<glyph unicode="T" horiz-adv-x="599" d="M0 133v516q0 22 14.5 36.5t35.5 14.5h451q21 0 35 -14.5t14 -36.5v-516q0 -20 -14 -34.5t-35 -14.5h-43v-42q0 -20 -14 -31t-36 -11h-265q-22 0 -36 11t-14 31v42h-43q-21 0 -35.5 14.5t-14.5 34.5z" />
<glyph unicode="U" horiz-adv-x="592" d="M0 196v456q0 20 14 34t35 14h443q20 0 34 -14t14 -34v-456q0 -79 -85 -141q-79 -55 -185 -55q-108 0 -184 55q-86 62 -86 141z" />
<glyph unicode="V" horiz-adv-x="638" d="M0 117v537q0 21 14 34.5t34 13.5h10q23 -6 74 -20t80 -22q49 -12 76.5 -12t78.5 12l159 42h6q21 0 37 -14t16 -34v-537q0 -25 -43 -48q-22 -6 -80 -24.5t-90 -27.5q-54 -20 -79 -21t-81 15l-180 64q-32 12 -32 42z" />
<glyph unicode="W" horiz-adv-x="682" d="M0 123v530q0 20 13.5 33t33.5 13q10 0 21 -5l84 -36q31 -16 45 -16t49 16q5 2 37 16q25 11 53 1q4 -2 23.5 -10t33.5 -13q27 -12 37 -11.5t42 12.5q20 9 51.5 24t40.5 18q11 4 17 4q20 0 34 -13.5t14 -32.5v-530q0 -22 -21 -35q-1 -1 -7.5 -4.5t-40 -22t-88.5 -48.5 q-5 -2 -14.5 -7t-12 -6t-8.5 -3.5t-8.5 -2t-7.5 0t-9.5 1.5t-10 4t-13.5 6q-6 3 -43 23q-23 12 -31 12t-31 -12q-8 -4 -23 -11t-24 -11q-32 -14 -38.5 -14t-39.5 14q-18 11 -65.5 38.5t-73.5 43.5q-19 13 -19 34z" />
<glyph unicode="X" horiz-adv-x="566" d="M0 48v11q20 98 85 304q-50 176 -74 272v11q0 20 14 36.5t34 16.5h427q23 0 38 -16t15 -37v-11q-20 -87 -75 -272q9 -33 26.5 -96t31 -113t22.5 -95v-11q0 -20 -14 -34t-34 -14h-448q-20 0 -34 14t-14 34z" />
<glyph unicode="Y" horiz-adv-x="549" d="M0 637v11q0 24 13.5 38.5t34.5 14.5h430q21 0 34.5 -14.5t13.5 -38.5v-11q-2 -9 -46.5 -198t-59.5 -243v-148q0 -20 -14 -34t-34 -14h-218q-20 0 -34 16.5t-14 36.5v143q-15 54 -59.5 243t-46.5 198z" />
<glyph unicode="Z" d="M0 50l72 394h-22q-21 0 -35.5 15t-14.5 36v155q0 21 14.5 35t35.5 14h440q21 0 35.5 -14t14.5 -35l-68 -395h29q21 0 35.5 -14.5t14.5 -35.5v-155q0 -21 -14.5 -35.5t-35.5 -14.5h-451q-20 0 -35 14.5t-15 35.5z" />
<glyph unicode="a" horiz-adv-x="588" d="M0 47v457q0 45 20.5 75.5t62.5 64.5q85 56 187 56q117 0 188 -56q4 -3 18.5 -14t18.5 -14t14.5 -12.5t14 -16t9 -16.5t7 -21.5t1.5 -25.5v-477q0 -21 -13 -34t-34 -13h-438q-22 0 -39 13.5t-17 33.5z" />
<glyph unicode="b" horiz-adv-x="585" d="M0 47v597q0 21 17.5 38.5t38.5 17.5h303q51 0 91.5 -48.5t40.5 -111.5q0 -18 -4 -33.5t-13 -35.5t-11 -26q43 -30 69 -84.5t26 -123.5q0 -99 -50 -168t-121 -69h-331q-22 0 -39 13.5t-17 33.5z" />
<glyph unicode="c" horiz-adv-x="578" d="M-6 351q0 97 27.5 173.5t90.5 126t154 49.5q65 0 116 -19q34 -10 73 -35q61 -43 80 -94q0 -2 1.5 -7t1.5 -9q3 -19 -10 -37l-120 -148q60 -74 120 -149q13 -18 10 -38q0 -3 -1 -6.5t-1 -5.5q-22 -63 -92 -104.5t-157 -46.5h-1q-7 -1 -20 -1q-69 0 -122.5 28.5t-85.5 77.5 t-48 111t-16 134z" />
<glyph unicode="d" d="M0 51v598q0 22 14.5 36.5t36.5 14.5h311q83 0 144 -110q56 -104 56 -239q0 -137 -56 -241q-61 -110 -144 -110h-311q-22 0 -36.5 14.5t-14.5 36.5z" />
<glyph unicode="e" horiz-adv-x="603" d="M0 50v600q0 21 15 35.5t35 14.5h266q21 0 35.5 -14.5t14.5 -35.5v-80h46q21 0 35.5 -14.5t14.5 -35.5v-105h34q21 0 35.5 -15t14.5 -36v-314q0 -21 -14.5 -35.5t-35.5 -14.5h-446q-20 0 -35 14.5t-15 35.5z" />
<glyph unicode="f" horiz-adv-x="615" d="M0 50v602q0 20 14.5 34.5t35.5 14.5h463q21 0 35.5 -14.5t14.5 -34.5v-315q0 -20 -14.5 -34.5t-35.5 -14.5h-32v-68q0 -21 -14.5 -36t-35.5 -15h-65v-119q0 -21 -14.5 -35.5t-35.5 -14.5h-266q-21 0 -35.5 14.5t-14.5 35.5z" />
<glyph unicode="g" horiz-adv-x="651" d="M0 335q0 147 75 254t218 111h165q21 0 36 -15t15 -36v-237h34q21 0 35.5 -15t14.5 -36v-363q0 -28 -14.5 -47t-35.5 -19h-181q-20 0 -35 19t-15 47h-35q-73 0 -128 27t-86.5 74.5t-47 106.5t-15.5 129z" />
<glyph unicode="h" horiz-adv-x="712" d="M0 49v600q0 20 14.5 35t34.5 15h187q21 0 35.5 -15t14.5 -35v-11h91v11q0 20 14.5 35t35.5 15h178q21 0 35.5 -15t14.5 -35v-600q0 -20 -14.5 -34.5t-35.5 -14.5h-178q-21 0 -35.5 14.5t-14.5 34.5v12h-102v-12q0 -20 -14.5 -34.5t-35.5 -14.5h-176q-20 0 -34.5 14.5 t-14.5 34.5z" />
<glyph unicode="i" horiz-adv-x="414" d="M-1 51v600q0 20 14.5 35t35.5 15h265q21 0 35.5 -15t14.5 -35v-600q0 -21 -14.5 -35.5t-35.5 -14.5h-265q-21 0 -35.5 14.5t-14.5 35.5z" />
<glyph unicode="j" horiz-adv-x="587" d="M-5 196v161q0 20 14.5 34.5t34.5 14.5h180v245q0 20 14.5 34.5t34.5 14.5h213q20 -1 34.5 -15t14.5 -34v-455q0 -80 -85 -142q-79 -54 -185 -54q-105 0 -184 54q-86 62 -86 142z" />
<glyph unicode="k" horiz-adv-x="584" d="M-1 50v600q0 13 6.5 24.5t18 18.5t25.5 7h451v-1q30 0 43.5 -26t-2.5 -50l-170 -263l170 -281q9 -14 9 -29q0 -21 -14.5 -35.5t-35.5 -14.5h-451q-21 0 -35.5 14.5t-14.5 35.5z" />
<glyph unicode="l" horiz-adv-x="609" d="M0 42v608q0 20 14.5 34.5t35.5 14.5h217q21 0 35.5 -14.5t14.5 -34.5v-236h184q20 0 35 -14.5t15 -34.5q5 -47 5 -158q0 -113 -5 -158q0 -20 -15 -34.5t-35 -14.5h-451q-19 0 -33 12t-17 30z" />
<glyph unicode="m" horiz-adv-x="728" d="M0 49v601q0 20 14.5 34.5t34.5 14.5q1 0 4.5 -0.5t5.5 -0.5l280 -91l280 91q3 1 9 1q20 0 34 -14.5t14 -34.5v-601q0 -20 -14 -34.5t-34 -14.5h-169q-20 0 -34.5 14.5t-14.5 34.5v36l-72 -43l-74 43v-36q0 -20 -14 -34.5t-34 -14.5h-167q-20 0 -34.5 14.5t-14.5 34.5z " />
<glyph unicode="n" horiz-adv-x="731" d="M0 50v600q0 20 14.5 35t35.5 15q1 0 4 -0.5t5 -0.5q43 -9 172.5 -42t175.5 -42v35q0 20 15 35t36 15h166q21 0 36 -15t15 -35v-600q0 -21 -15 -35.5t-36 -14.5q-5 0 -9 1l-348 84v-35q0 -21 -14.5 -35.5t-35.5 -14.5h-167q-21 0 -35.5 14.5t-14.5 35.5z" />
<glyph unicode="o" horiz-adv-x="594" d="M0 196v308q0 80 85 140q73 56 185 56q111 0 184 -56q86 -60 86 -140v-308q0 -82 -86 -142q-77 -54 -184 -54q-108 0 -185 54q-85 60 -85 142z" />
<glyph unicode="p" horiz-adv-x="597" d="M0 50v599q0 21 15 36t35 15h311q82 0 144 -80q56 -72 56 -171q0 -102 -56 -172q-62 -80 -144 -80h-44v-147q0 -20 -14 -35t-34 -15h-219q-20 0 -35 15t-15 35z" />
<glyph unicode="q" d="M0 195v314q0 86 83 141t188 55q104 0 186 -53q90 -65 90 -143v-314q0 -49 -37 -95l26 -107q0 -20 -16.5 -36.5t-36.5 -16.5h-186q-20 0 -36.5 16.5t-16.5 36.5v6q-98 8 -171 61t-73 135z" />
<glyph unicode="r" horiz-adv-x="597" d="M0 50v614q0 15 14.5 25.5t35.5 10.5h285q83 0 144 -80q56 -70 56 -171q0 -100 -56 -172q-5 -5 -7 -9l80 -210q6 -22 -10 -40t-39 -18h-453q-20 0 -35 14.5t-15 35.5z" />
<glyph unicode="s" horiz-adv-x="632" d="M2 140q0 43 19.5 77.5t50.5 49.5q-70 83 -70 167q0 96 43.5 162.5t114.5 89.5q39 23 174 23q113 0 162 -18q38 -8 63 -45.5t25 -86.5q0 -43 -19.5 -77t-51.5 -48q71 -84 71 -167q0 -97 -43.5 -163.5t-114.5 -89.5q-41 -23 -174 -23q-111 0 -162 17q-38 8 -63 45.5 t-25 86.5z" />
<glyph unicode="t" horiz-adv-x="599" d="M0 133v516q0 22 14.5 36.5t35.5 14.5h451q21 0 35 -14.5t14 -36.5v-516q0 -20 -14 -34.5t-35 -14.5h-43v-42q0 -20 -14 -31t-36 -11h-265q-22 0 -36 11t-14 31v42h-43q-21 0 -35.5 14.5t-14.5 34.5z" />
<glyph unicode="u" horiz-adv-x="592" d="M0 196v456q0 20 14 34t35 14h443q20 0 34 -14t14 -34v-456q0 -79 -85 -141q-79 -55 -185 -55q-108 0 -184 55q-86 62 -86 141z" />
<glyph unicode="v" horiz-adv-x="638" d="M0 117v537q0 21 14 34.5t34 13.5h10q23 -6 74 -20t80 -22q49 -12 76.5 -12t78.5 12l159 42h6q21 0 37 -14t16 -34v-537q0 -25 -43 -48q-22 -6 -80 -24.5t-90 -27.5q-54 -20 -79 -21t-81 15l-180 64q-32 12 -32 42z" />
<glyph unicode="w" horiz-adv-x="682" d="M0 123v530q0 20 13.5 33t33.5 13q10 0 21 -5l84 -36q31 -16 45 -16t49 16q5 2 37 16q25 11 53 1q4 -2 23.5 -10t33.5 -13q27 -12 37 -11.5t42 12.5q20 9 51.5 24t40.5 18q11 4 17 4q20 0 34 -13.5t14 -32.5v-530q0 -22 -21 -35q-1 -1 -7.5 -4.5t-40 -22t-88.5 -48.5 q-5 -2 -14.5 -7t-12 -6t-8.5 -3.5t-8.5 -2t-7.5 0t-9.5 1.5t-10 4t-13.5 6q-6 3 -43 23q-23 12 -31 12t-31 -12q-8 -4 -23 -11t-24 -11q-32 -14 -38.5 -14t-39.5 14q-18 11 -65.5 38.5t-73.5 43.5q-19 13 -19 34z" />
<glyph unicode="x" horiz-adv-x="566" d="M0 48v11q20 98 85 304q-50 176 -74 272v11q0 20 14 36.5t34 16.5h427q23 0 38 -16t15 -37v-11q-20 -87 -75 -272q9 -33 26.5 -96t31 -113t22.5 -95v-11q0 -20 -14 -34t-34 -14h-448q-20 0 -34 14t-14 34z" />
<glyph unicode="y" horiz-adv-x="549" d="M0 637v11q0 24 13.5 38.5t34.5 14.5h430q21 0 34.5 -14.5t13.5 -38.5v-11q-2 -9 -46.5 -198t-59.5 -243v-148q0 -20 -14 -34t-34 -14h-218q-20 0 -34 16.5t-14 36.5v143q-15 54 -59.5 243t-46.5 198z" />
<glyph unicode="z" d="M0 50l72 394h-22q-21 0 -35.5 15t-14.5 36v155q0 21 14.5 35t35.5 14h440q21 0 35.5 -14t14.5 -35l-68 -395h29q21 0 35.5 -14.5t14.5 -35.5v-155q0 -21 -14.5 -35.5t-35.5 -14.5h-451q-20 0 -35 14.5t-15 35.5z" />
<glyph unicode="&#xd0;" horiz-adv-x="688" d="M0 217v267q0 20 14.5 34.5t35.5 14.5h32v118q0 21 14.5 35.5t35.5 14.5h312q82 0 145 -111q55 -100 55 -240q0 -139 -55 -239q-63 -111 -145 -111h-312q-21 0 -35.5 14.5t-14.5 35.5v118h-32q-21 0 -35.5 14.5t-14.5 34.5z" />
<glyph unicode="&#xf0;" horiz-adv-x="688" d="M0 217v267q0 20 14.5 34.5t35.5 14.5h32v118q0 21 14.5 35.5t35.5 14.5h312q82 0 145 -111q55 -100 55 -240q0 -139 -55 -239q-63 -111 -145 -111h-312q-21 0 -35.5 14.5t-14.5 35.5v118h-32q-21 0 -35.5 14.5t-14.5 34.5z" />
<glyph unicode="&#x2000;" horiz-adv-x="359" />
<glyph unicode="&#x2001;" horiz-adv-x="718" />
<glyph unicode="&#x2002;" horiz-adv-x="359" />
<glyph unicode="&#x2003;" horiz-adv-x="718" />
<glyph unicode="&#x2004;" horiz-adv-x="239" />
<glyph unicode="&#x2005;" horiz-adv-x="179" />
<glyph unicode="&#x2006;" horiz-adv-x="119" />
<glyph unicode="&#x2007;" horiz-adv-x="119" />
<glyph unicode="&#x2008;" horiz-adv-x="89" />
<glyph unicode="&#x2009;" horiz-adv-x="143" />
<glyph unicode="&#x200a;" horiz-adv-x="39" />
<glyph unicode="&#x2013;" horiz-adv-x="599" d="M0 245v94q0 24 13.5 38.5t33.5 14.5h446q21 0 37 -14.5t16 -38.5v-94q0 -20 -16 -34t-37 -14h-446q-20 0 -33.5 14t-13.5 34z" />
<glyph unicode="&#x2014;" horiz-adv-x="774" d="M0 245v94q0 24 13.5 38.5t33.5 14.5h621q21 0 37 -14.5t16 -38.5v-94q0 -20 -16 -34t-37 -14h-621q-20 0 -33.5 14t-13.5 34z" />
<glyph unicode="&#x2018;" horiz-adv-x="274" d="M0 403v133q0 56 36 110q42 54 75 54h69q16 0 27 -10t11 -26v-261q0 -19 -14.5 -33t-33.5 -14h-116q-21 0 -37.5 14t-16.5 33z" />
<glyph unicode="&#x2019;" horiz-adv-x="277" d="M0 392v261q0 19 14 33t33 14h118q23 0 38 -13.5t15 -33.5v-133q0 -56 -38 -110q-35 -54 -73 -54h-69q-17 0 -27.5 10t-10.5 26z" />
<glyph unicode="&#x201a;" horiz-adv-x="269" d="M0 -86v261q0 19 14 33t33 14h118q23 0 38 -13.5t15 -33.5v-133q0 -56 -38 -110q-35 -54 -73 -54h-69q-17 0 -27.5 10t-10.5 26z" />
<glyph unicode="&#x201c;" horiz-adv-x="544" d="M0 403v133q0 56 36 110q42 54 75 54h69q16 0 27 -10t11 -26v-261q0 -19 -14.5 -33t-33.5 -14h-116q-21 0 -37.5 14t-16.5 33zM270 403v133q0 56 38 110q35 54 73 54h69q17 0 27.5 -10t10.5 -26v-261q0 -19 -14 -33t-33 -14h-118q-23 0 -38 13.5t-15 33.5z" />
<glyph unicode="&#x201d;" horiz-adv-x="544" d="M0 392v261q0 19 14 33t33 14h118q23 0 38 -13.5t15 -33.5v-133q0 -56 -38 -110q-35 -54 -73 -54h-69q-17 0 -27.5 10t-10.5 26zM270 392v261q0 19 14.5 33t33.5 14h116q21 0 37.5 -14t16.5 -33v-133q0 -56 -36 -110q-42 -54 -75 -54h-69q-16 0 -27 10t-11 26z" />
<glyph unicode="&#x201e;" horiz-adv-x="544" d="M0 -86v261q0 19 14 33t33 14h118q23 0 38 -13.5t15 -33.5v-133q0 -56 -38 -110q-35 -54 -73 -54h-69q-17 0 -27.5 10t-10.5 26zM270 -86v261q0 19 14.5 33t33.5 14h116q21 0 37.5 -14t16.5 -33v-133q0 -56 -36 -110q-42 -54 -75 -54h-69q-16 0 -27 10t-11 26z" />
<glyph unicode="&#x202f;" horiz-adv-x="143" />
<glyph unicode="&#x205f;" horiz-adv-x="179" />
<glyph unicode="&#xe000;" horiz-adv-x="700" d="M0 0v700h700v-700h-700z" />
</font>
</defs>
</svg>
