<?xml version="1.0" standalone="no"?>
<!DOCTYPE svg PUBLIC "-//W3C//DTD SVG 1.1//EN" "http://www.w3.org/Graphics/SVG/1.1/DTD/svg11.dtd" >
<svg xmlns="http://www.w3.org/2000/svg">
<metadata></metadata>
<defs>
<font id="spinweradbold" horiz-adv-x="1200" >
<font-face units-per-em="2048" ascent="1568" descent="-480" />
<missing-glyph horiz-adv-x="890" />
<glyph horiz-adv-x="2048" />
<glyph horiz-adv-x="2048" />
<glyph unicode="&#xd;" horiz-adv-x="666" />
<glyph unicode=" "  horiz-adv-x="890" />
<glyph unicode="&#x09;" horiz-adv-x="890" />
<glyph unicode="&#xa0;" horiz-adv-x="890" />
<glyph unicode="!" horiz-adv-x="520" d="M100 1520h266q26 0 40 -4q43 -12 43 -90q0 -148 -89 -826h-160zM120 120q0 66 47 113t113 47t113 -47t47 -113t-47 -113t-113 -47t-113 47t-47 113z" />
<glyph unicode="&#x22;" horiz-adv-x="720" d="M462 1040v86q0 102 -20 217t-42 137l14 14l214 -56q12 -12 12 -66q0 -140 -64 -274l-28 -58h-86zM142 1040v86q0 102 -20 217t-42 137l14 14l214 -56q12 -12 12 -66q0 -140 -64 -274l-28 -58h-86z" />
<glyph unicode="#" horiz-adv-x="1280" d="M396 0h-100l38 456h-274l10 100h274l32 380h-276l10 100h274l34 400h100l-34 -400h378l34 400h100l-34 -400h268l-10 -100h-266l-32 -380h268l-10 -100h-268l-38 -456h-100l38 456h-378zM476 936l-32 -380h378l32 380h-378z" />
<glyph unicode="$" horiz-adv-x="1020" d="M454 -160h-20v150q-144 2 -248 72q-30 20 -56 20q-43 0 -64 -48q-6 -14 -6 -34h-20l6 312h20q0 -24 10 -57q25 -83 106 -158q40 -37 109 -62q65 -24 143 -25v541l-210 177q-177 149 -177 332q0 142 145 231q102 63 242 76v113h20v-112q26 2 53 2q24 0 47 -2v112h20v-114 q54 -6 98 -22q64 -25 120 -25q57 0 57 41h20l18 -308h-20q0 32 -15 76t-50 97t-111 89q-52 25 -117 32v-493l234 -197q172 -145 172 -330q0 -158 -170 -254q-100 -56 -236 -74v-158h-20v156q-48 -6 -100 -6v-150zM454 534v-524q56 1 100 17v423zM454 954l100 -84v478 q-21 2 -43 2q-31 0 -57 -3v-393zM434 971v373q-127 -24 -127 -135q0 -131 119 -231zM574 433v-397q26 11 47 29q69 57 69 139q0 131 -84 202z" />
<glyph unicode="%" horiz-adv-x="1440" d="M1360 1306l-1280 -1280v28l1280 1280v-28zM392 1364q122 0 217 -93t95 -219t-95 -219t-217 -93t-217 93t-95 219q0 128 94 220t218 92zM392 1344q-70 0 -91 -50t-21 -152v-90v-90q0 -102 21 -152t91 -50t91 50t21 152v90v90q0 102 -21 152t-91 50zM1048 624 q122 0 217 -93t95 -219t-95 -219t-217 -93t-217 93t-95 219q0 128 94 220t218 92zM1048 604q-70 0 -91 -50t-21 -152v-90v-90q0 -102 21 -152t91 -50t91 50t21 152v90v90q0 102 -21 152t-91 50z" />
<glyph unicode="&#x26;" horiz-adv-x="1340" d="M641 1366q169 0 305 -115v-187h-20q0 76 -31 134q-78 148 -254 148q-163 0 -163 -122q0 -66 112 -246l494 -794q138 112 138 276q0 56 -20 124t-82 134t-156 66v20h312v-20q-96 0 -96 -44q0 -12 31 -105t31 -175q0 -174 -144 -296q42 -68 78 -100t59 -38t65 -6v-20h-406 q-18 0 -44 17t-40 17q-124 -34 -212 -34q-272 0 -425 111t-153 309q0 172 68 275t226 131q-52 116 -52 212q0 156 115.5 242t263.5 86zM794 52q-28 38 -62 96l-366 580q-12 20 -32 60q-40 -26 -62 -120q-12 -44 -12 -248q0 -206 82 -302q84 -98 256 -98q78 0 196 32z" />
<glyph unicode="'" horiz-adv-x="400" d="M228 1040h-86v86q0 102 -20 217t-42 137l14 14l214 -56q12 -12 12 -66q0 -140 -64 -274z" />
<glyph unicode="(" horiz-adv-x="640" d="M100 640q0 334 135 588t379 336l6 -20q-171 -58 -220 -452q-20 -161 -20 -452q0 -300 20 -452q46 -353 220 -442l-6 -20q-244 82 -379 331t-135 583z" />
<glyph unicode=")" horiz-adv-x="640" d="M540 640q0 -334 -135 -583t-379 -331l-6 20q172 88 220 442q20 148 20 452q0 290 -20 452q-49 394 -220 452l6 20q244 -82 379 -336t135 -588z" />
<glyph unicode="*" horiz-adv-x="604" d="M110 782q0 6 14 6q4 0 28 -2t44 -2q34 0 72 8l-24 10q-30 10 -64 32t-57 38t-33 16h-2l-4 -2l-4 10l118 56h2q6 0 14 -17t27 -51t47 -64l-4 26q-6 34 -6 64q0 18 2 47t2 39q0 24 -8 30l8 10l108 -74q4 -4 4 -6q0 -6 -13 -22t-31 -48t-28 -70l20 18q26 22 65 41t63 31 t24 22h12l-12 -132q0 -6 -12 -6q-4 0 -28 2t-44 2q-38 0 -72 -8l22 -8q30 -10 64 -32t57 -38t33 -16q2 0 2 1t2 1l6 -12l-120 -56h-2q-6 0 -14 18t-26 51t-44 61l4 -22q6 -34 6 -62q0 -20 -2 -51t-2 -39q0 -24 6 -28l-6 -10l-110 74q-2 2 -2 6q0 6 13 23t30 48t27 65 l-20 -16q-26 -22 -65 -42t-63 -31t-24 -21h-12z" />
<glyph unicode="+" horiz-adv-x="1004" d="M544 860h400l-4 -80h-396v-394l-80 4v390h-404l4 80h400v410l80 -4v-406z" />
<glyph unicode="," horiz-adv-x="480" d="M80 120q0 66 47 113t113 47t113 -47t47 -113q0 -148 -77 -246t-157 -98v20q44 0 84 43t40 81q0 40 -50 40q-66 0 -113 47t-47 113z" />
<glyph unicode="-" horiz-adv-x="1010" d="M940 780h-880l10 80h880z" />
<glyph unicode="." horiz-adv-x="480" d="M80 120q0 66 47 113t113 47t113 -47t47 -113t-47 -113t-113 -47t-113 47t-47 113z" />
<glyph unicode="/" horiz-adv-x="1164" d="M1124 1442l-1002 -1824l-82 58l1000 1824z" />
<glyph unicode="0" horiz-adv-x="1100" d="M20 720q0 332 150 539q138 191 370 191q230 0 370 -191q150 -205 150 -539t-150 -539q-140 -191 -370 -191q-232 0 -370 191q-150 207 -150 539zM740 720q0 509 -28 574q-59 136 -172 136q-114 0 -172 -136q-28 -65 -28 -574t28 -574q58 -136 172 -136q113 0 172 136 q28 65 28 574z" />
<glyph unicode="1" horiz-adv-x="720" d="M200 1100q0 100 -120 100v20q190 52 240 220h200v-1280q0 -140 160 -140v-20h-640v20q160 0 160 140v940z" />
<glyph unicode="2" horiz-adv-x="1020" d="M710 20q232 0 250 280h20v-300h-980v20q35 0 67 20q40 25 88 116l409 784q92 176 92 269q0 221 -216 221q-231 0 -309 -148q-31 -58 -31 -134h-20v187q136 115 360 115q492 -3 492 -371q0 -129 -61 -245l-360 -686q-24 -46 -24 -66q0 -62 140 -62h83z" />
<glyph unicode="3" horiz-adv-x="975" d="M357 -10q-194 0 -327 102v208h20q6 -166 100 -230q86 -60 207 -60q166 0 220 154q38 108 38 256q-4 211 -28 276q-46 124 -196 124q-32 0 -32 22q100 8 152 70q44 52 44 208q0 204 -44 252q-53 58 -150 58q-106 0 -180.5 -61t-79.5 -201h-20v188q115 94 280 94 q210 0 332 -88t122 -236q0 -244 -312 -294q184 -24 308 -135t124 -277q0 -188 -174.5 -309t-403.5 -121z" />
<glyph unicode="4" horiz-adv-x="1080" d="M10 423l593 1017h287v-980h82v-100h-82v-200q0 -140 160 -140v-20h-640v20q160 0 160 140v200h-560v63zM54 460h516v876z" />
<glyph unicode="5" horiz-adv-x="1002" d="M30 117v183h20q6 -178 122 -242q86 -48 202 -48q259 0 259 443q-1 447 -259 447q-93 0 -182 -36q-114 -46 -172 -110l24 610q2 51 2 76h794l20 -340h-20q-10 74 -34 87t-140 13h-464q-64 0 -104 -43t-40 -125l-10 -224q146 112 326 112q222 0 400 -134t178 -326 t-178 -331t-400 -139q-189 0 -344 127z" />
<glyph unicode="6" horiz-adv-x="1120" d="M620 1450q189 0 344 -127v-183h-20q-6 178 -122 242q-86 48 -202 48q-178 0 -224 -128q-38 -106 -38 -296q98 54 202 54q204 0 362 -159t158 -376t-158 -376t-362 -159q-212 0 -366 178t-154 482q0 208 60 387t205.5 296t314.5 117zM560 1040q-122 0 -176 -158 q-24 -70 -24 -352q0 -244 24 -358q34 -162 176 -162q122 0 176 158q24 70 24 362q0 234 -24 348q-34 162 -176 162z" />
<glyph unicode="7" horiz-adv-x="1024" d="M220 0q119 540 474 1072q30 45 30 66q0 62 -132 62h-432q-95 0 -104 -36l-16 -64h-20v340h984v-20q0 -35 -213 -274q-205 -230 -229 -549q-22 -291 -22 -597h-320z" />
<glyph unicode="8" horiz-adv-x="1212" d="M564 820q-116 0 -172 -76q-46 -62 -52 -304q0 -258 76 -360q52 -70 180 -70t180 70q76 102 76 340q-4 207 -32 280q-46 120 -192 120h-64zM596 842q100 0 154 64q42 50 42 214q0 246 -100 292q-40 18 -96 18t-96 -20q-100 -48 -100 -290q0 -164 42 -214q54 -64 154 -64z M596 1450q212 0 334 -88t122 -236q0 -244 -312 -294q184 -24 308 -135t124 -277q0 -188 -174 -309t-402 -121t-402 121t-174 309q0 166 124 277t308 135q-312 50 -312 294q0 148 122 236t334 88z" />
<glyph unicode="9" horiz-adv-x="1120" d="M500 -10q-189 0 -344 127v183h20q6 -178 122 -242q86 -48 202 -48q178 0 224 128q38 106 38 296q-98 -54 -202 -54q-204 0 -362 159t-158 376t158 376t362 159q212 0 366 -178t154 -482q0 -208 -60 -387t-205.5 -296t-314.5 -117zM560 400q122 0 176 158q24 70 24 352 q0 244 -24 358q-34 162 -176 162q-122 0 -176 -158q-24 -70 -24 -362q0 -234 24 -348q34 -162 176 -162z" />
<glyph unicode=":" horiz-adv-x="480" d="M80 920q0 66 47 113t113 47t113 -47t47 -113t-47 -113t-113 -47t-113 47t-47 113zM80 120q0 66 47 113t113 47t113 -47t47 -113t-47 -113t-113 -47t-113 47t-47 113z" />
<glyph unicode=";" horiz-adv-x="480" d="M80 920q0 66 47 113t113 47t113 -47t47 -113t-47 -113t-113 -47t-113 47t-47 113zM80 120q0 66 47 113t113 47t113 -47t47 -113q0 -148 -77 -246t-157 -98v20q44 0 84 43t40 81q0 40 -50 40q-66 0 -113 47t-47 113z" />
<glyph unicode="&#x3c;" horiz-adv-x="720" d="M640 188l-600 606l600 590v-330l-260 -256q-54 -54 -54 -100q0 -44 68 -112l246 -250v-148z" />
<glyph unicode="=" horiz-adv-x="1010" d="M940 620h-880l10 80h880zM940 940h-880l10 80h880z" />
<glyph unicode="&#x3e;" horiz-adv-x="720" d="M80 1390l600 -590l-600 -606v330l260 256q54 54 54 100q0 44 -68 112l-246 250v148z" />
<glyph unicode="?" horiz-adv-x="1024" d="M240 120q0 66 47 113t113 47t113 -47t47 -113t-47 -113t-113 -47t-113 47t-47 113zM296 902q0 92 96 156l248 158q62 42 62 110q0 54 -65 113t-159 59q-84 0 -153 -25t-109 -62t-68 -81t-38 -77t-10 -57l-20 -2l18 284h20q0 -26 12 -52t28 -26q10 0 36 18t58 41t93 41 t133 18q200 0 333 -93t133 -243q0 -114 -100 -196q-34 -28 -192 -132q-157 -100 -164 -170l-8 -84h-160q-24 300 -24 302z" />
<glyph unicode="@" horiz-adv-x="2080" d="M1020 100q154 0 196 92q44 104 44 408q0 268 -32 372q-30 108 -208 108q-180 0 -212 -108q-30 -104 -30 -372q0 -274 30 -374q38 -126 212 -126zM1018 1100q560 0 560 -500v-320q0 -180 140 -180q96 0 204 128t108 326q0 250 -132 461t-360 334t-498 123t-498 -123 t-360 -334t-132 -461t132 -461t360 -334t498 -123q362 0 604 170l12 -16q-246 -174 -616 -174q-274 0 -506 125t-368 342t-136 471t136 471t368 342t506 125t506 -125t368 -342t136 -471q0 -206 -113 -340t-219 -134q-170 0 -238 52q-32 22 -98 88q-154 -140 -364 -140 q-272 0 -416 133t-144 387q0 248 144 374t416 126z" />
<glyph unicode="A" horiz-adv-x="1400" d="M743 440l-220 678l-222 -678h442zM750 420h-455l-89 -272q-12 -34 -12 -58q0 -70 146 -70v-20h-340v20q142 0 186 136l325 996l-17 52q-48 136 -186 136v20h386q86 0 134 -148l344 -1056q44 -136 188 -136v-20h-640v20q130 0 130 68q0 23 -12 60z" />
<glyph unicode="B" horiz-adv-x="1360" d="M520 20h200q148 0 220 76q60 62 60 304q-4 176 -84 278t-276 102h-120v-760zM40 0v20q154 0 160 122v1058q0 140 -160 140v20h520q600 0 600 -276q0 -242 -380 -292q236 -24 388 -126t152 -266q0 -194 -163 -297t-437 -103h-680zM520 1340v-540h40q148 0 220 62 q60 52 60 218q0 138 -52 196q-54 64 -228 64h-40z" />
<glyph unicode="C" horiz-adv-x="1040" d="M624 1350q-170 0 -240 -210q-44 -133 -44 -460q0 -284 42 -456q52 -214 236 -214q196 0 362 142v-26q-166 -136 -362 -136q-266 0 -432 200t-166 490q0 286 168 488t434 202q94 0 163 -26q64 -25 120 -25q57 0 57 41h20l18 -308h-20q0 32 -15 76q-45 131 -161 186 q-76 36 -180 36z" />
<glyph unicode="D" horiz-adv-x="1360" d="M720 0h-680v20q154 0 160 122v1058q0 140 -160 140v20h680q262 0 431 -197t169 -483t-169 -483t-431 -197zM720 20q156 0 232 162q48 102 48 498t-48 498q-76 162 -232 162h-200v-1320h200z" />
<glyph unicode="E" horiz-adv-x="1240" d="M40 1360h1120v-300h-20q-18 280 -250 280h-370v-560h178q140 0 140 160h20v-340h-20q0 160 -140 160h-178v-740h390q232 0 250 280h20v-300h-1140v20q154 0 160 122v1058q0 140 -160 140v20z" />
<glyph unicode="F" d="M40 1360h1120v-300h-20q-18 280 -250 280h-370v-560h180q140 0 140 160h20v-340h-20q0 160 -140 160h-180v-600q0 -140 160 -140v-20h-640v20q160 0 160 140v1040q0 140 -160 140v20z" />
<glyph unicode="G" horiz-adv-x="1240" d="M618 10q45 0 93.5 36t48.5 114v320q0 140 -160 140v20h600v-20q-160 0 -160 -140v-274q-108 -124 -232 -178q-86 -38 -190 -38q-266 0 -432 200t-166 490q0 286 168 488t434 202q94 0 163 -26q64 -25 120 -25q57 0 57 41h20l18 -308h-20q0 32 -15 76q-45 131 -161 186 q-76 36 -180 36q-170 0 -240 -210q-44 -133 -44 -460q0 -284 42 -456q52 -214 236 -214z" />
<glyph unicode="H" horiz-adv-x="1520" d="M1000 160v580h-480v-580q0 -140 160 -140v-20h-640v20q160 0 160 140v1040q0 140 -160 140v20h400q80 0 80 -160v-440h480v440q0 140 -160 140v20h640v-20q-160 0 -160 -140v-1040q0 -140 160 -140v-20h-640v20q160 0 160 140z" />
<glyph unicode="I" horiz-adv-x="720" d="M40 1360h640v-20q-160 0 -160 -140v-1040q0 -140 160 -140v-20h-640v20q160 0 160 140v1040q0 140 -160 140v20z" />
<glyph unicode="J" horiz-adv-x="700" d="M0 -380q200 0 200 420v1160q0 140 -160 140v20h640v-20q-160 0 -160 -140v-920q0 -298 -133 -489t-387 -191q-138 0 -190 116l18 8q46 -104 172 -104z" />
<glyph unicode="K" horiz-adv-x="1440" d="M40 1360h640v-20q-160 0 -160 -140v-704l564 716q34 46 34 72q0 56 -138 56v20h340v-20q-68 0 -105 -21t-111 -115l-244 -310l370 -738q46 -96 75 -116t95 -20v-20h-380q-76 0 -142 148l-236 468l-122 -154v-302q0 -140 160 -140v-20h-640v20q160 0 160 140v1040 q0 140 -160 140v20z" />
<glyph unicode="L" d="M871 20q231 0 249 280h20v-300h-1098v20q146 0 158 106v1074q0 140 -160 140v20h640v-20q-158 0 -158 -140v-1180h349z" />
<glyph unicode="M" horiz-adv-x="1940" d="M546 1360l390 -878l448 878h436v-20q-160 0 -160 -140l80 -1040q11 -140 160 -140v-20h-640v20q160 0 160 120v20l-82 1066l-391 -766q63 -120 63 -232q0 -66 -14 -92h-266q10 10 10 28q0 8 -2 12l-458 1024l-80 -1040v-20q0 -120 160 -120v-20h-340v20q152 0 160 140 l80 1040q0 140 -160 140v20h446z" />
<glyph unicode="N" horiz-adv-x="1360" d="M1160 232v-232h-234l-706 1200v-1040q0 -140 160 -140v-20h-340v20q160 0 160 140v1040q0 140 -160 140v20h456l644 -1094v934q0 140 -160 140v20h340v-20q-160 0 -160 -140v-968z" />
<glyph unicode="O" horiz-adv-x="1260" d="M620 1370q260 0 430 -201t170 -489t-170 -489t-430 -201t-430 201t-170 489t168 489t432 201zM620 1350q-144 0 -212 -136q-68 -138 -68 -534t68 -534q68 -136 212 -136t212 136q68 138 68 534t-68 534q-68 136 -212 136z" />
<glyph unicode="P" horiz-adv-x="1360" d="M40 1360h680q262 0 431 -139t169 -341t-169 -341t-431 -139h-200v-240q0 -140 160 -140v-20h-640v20q160 0 160 140v1058q-6 122 -160 122v20zM520 1340v-920h200q174 0 228 108q52 100 52 352t-52 352q-54 108 -228 108h-200z" />
<glyph unicode="Q" horiz-adv-x="1260" d="M620 1350q-154 0 -232 -166q-48 -102 -48 -504t48 -504q78 -166 232 -166t232 166q48 102 48 504t-48 504q-78 166 -232 166zM968 -182q2 -15 2 -30q0 -188 -196 -188q-76 0 -132 36l-134 100q-51 34 -94 34q-80 0 -80 -38h-44q4 61 28 114q61 121 197 153 q-191 33 -325 192q-170 201 -170 489t168 489t432 201q260 0 430 -201t170 -489t-170 -489t-430 -201q-160 0 -242 -91q43 21 108 21q78 0 132 -40l134 -100q49 -32 103 -32q81 0 81 70h32z" />
<glyph unicode="R" horiz-adv-x="1460" d="M520 1340v-760h200q280 0 280 380t-280 380h-200zM40 1360h680q274 0 437 -104t163 -300q0 -114 -82 -206t-222 -142l218 -452q32 -66 62 -96q40 -40 124 -40v-20h-380q-76 0 -142 148l-198 412h-180v-400q0 -140 160 -140v-20h-640v20q160 0 160 140v1058 q-6 122 -160 122v20z" />
<glyph unicode="S" horiz-adv-x="1010" d="M507 1370q96 0 165 -26q64 -25 120 -25q57 0 57 41h20l18 -308h-20q0 32 -15 76t-50 97t-111 89t-180 36q-204 0 -204 -141q0 -131 119 -231l382 -322q172 -145 172 -330q0 -159 -170 -254q-144 -82 -366 -82q-150 0 -258 72q-30 20 -56 20q-43 0 -64 -48q-6 -14 -6 -34 h-20l6 312h20q0 -24 10 -57q25 -83 106 -158q40 -37 109 -62t153 -25q110 0 177 55q69 57 69 139q0 131 -84 202l-382 322q-177 149 -177 332q0 142 145 231q128 79 315 79z" />
<glyph unicode="T" d="M310 1340q-232 0 -250 -280h-20v300h1120v-300h-20q-18 280 -249 280h-131v-1180q0 -140 160 -140v-20h-640v20q160 0 160 140v1180h-130z" />
<glyph unicode="U" horiz-adv-x="1440" d="M1220 680v520q0 140 -160 140v20h340v-20q-160 0 -160 -140v-520q0 -316 -82 -481q-104 -209 -358 -209q-314 0 -472 186q-128 151 -128 464v560q0 140 -160 140v20h640v-20q-160 0 -160 -140v-800q0 -390 280 -390q242 0 340 198q80 161 80 472z" />
<glyph unicode="V" horiz-adv-x="1400" d="M20 1360h424q32 0 48 -24q18 -24 50 -124l315 -971l317 971q12 37 12 58q0 70 -146 70v20h340v-20q-142 0 -186 -136l-325 -997l-58 -207h-125q-85 0 -124 119l-356 1085q-42 136 -186 136v20z" />
<glyph unicode="W" horiz-adv-x="2120" d="M20 1360h424q32 0 48 -24q18 -24 50 -124l315 -971l192 588l-123 375q-42 136 -186 136v20h640v-20q-131 0 -131 -67q0 -22 13 -61l315 -971l317 971q12 37 12 58q0 70 -146 70v20h340v-20q-142 0 -186 -136l-325 -997l-58 -207h-125q-85 0 -124 119l-222 675l-191 -587 l-58 -207h-125q-85 0 -124 119l-356 1085q-42 136 -186 136v20z" />
<glyph unicode="X" horiz-adv-x="1300" d="M964 1212q30 44 30 70q0 58 -134 58v20h340v-20q-100 0 -154 -58q-26 -28 -62 -78l-242 -354l350 -694q52 -98 78 -117t90 -19v-20h-640v20q132 0 132 66q0 26 -14 62l-202 400l-272 -400q-28 -48 -28 -76q0 -52 124 -52v-20h-340v20q88 0 140 40q40 32 84 96l282 414 l-320 634q-66 136 -186 136v20h398q76 0 142 -148l172 -340z" />
<glyph unicode="Y" horiz-adv-x="1338" d="M560 1212l280 -554l272 554q18 36 18 62q0 66 -152 66v20h340v-20q-84 0 -124 -40q-28 -28 -62 -96l-270 -546l2 -498q0 -140 160 -140v-20h-640v20q160 0 160 140l-2 380l-336 664q-66 136 -186 136v20h398q76 0 142 -148z" />
<glyph unicode="Z" horiz-adv-x="1340" d="M1010 20q232 0 250 280h20v-300h-1260v20q66 0 98 20t88 116l532 1056q20 40 20 66q0 62 -138 62h-210q-232 0 -250 -280h-20v300h1138v-20q-82 0 -122 -40q-27 -27 -62 -96l-534 -1056q-18 -36 -18 -64q0 -64 136 -64h332z" />
<glyph unicode="[" horiz-adv-x="680" d="M580 1550q-40 0 -60 -3t-48 -14t-40 -42t-12 -81v-1530q0 -140 160 -140h80v-20h-560v1850h560v-20h-80z" />
<glyph unicode="\" horiz-adv-x="1164" d="M40 1442l84 58l1000 -1824l-82 -58z" />
<glyph unicode="]" horiz-adv-x="680" d="M100 1550h-80v20h560v-1850h-560v20h80q160 0 160 140v1530q0 50 -12 81t-40 42t-48 14t-60 3z" />
<glyph unicode="^" d="M830 960l-220 222q-54 54 -100 54q-44 0 -112 -68l-212 -208h-146l568 562l552 -562h-330z" />
<glyph unicode="_" horiz-adv-x="1520" d="M1440 -440h-1360v100h1360v-100z" />
<glyph unicode="`" horiz-adv-x="600" d="M500 1200h-60l-239 242q-26 27 -60 43q-31 15 -41 15v20h260q10 0 22 -16q24 -30 98 -244z" />
<glyph unicode="a" horiz-adv-x="1358" d="M1320 0h-400q-20 0 -44 32t-28 32q-102 -74 -248 -74q-254 0 -407 114t-153 256t152 251t408 109q124 0 240 -50v50q0 310 -260 310q-166 0 -318 -86l-12 18q160 88 330 88q580 0 580 -530v-360q0 -140 160 -140v-20zM840 648q-114 52 -240 52q-148 0 -208 -112 q-32 -54 -32 -228q0 -212 52 -276q62 -74 188 -74q152 0 244 76q-4 124 -4 238v324z" />
<glyph unicode="b" horiz-adv-x="1220" d="M460 84q98 -72 200 -72q130 0 176 114q24 64 24 394q0 340 -24 396q-48 114 -176 114q-102 0 -200 -72v-600v-274zM460 984q100 66 200 66q236 0 378 -142q142 -140 142 -388t-140 -388q-142 -140 -380 -140q-112 0 -200 66q-66 52 -124 52q-34 0 -87 -55t-59 -55h-50 v1360q0 140 -160 140v20h400q80 0 80 -160v-376z" />
<glyph unicode="c" horiz-adv-x="1124" d="M598 -10q-270 0 -414 138t-144 392q0 252 146 392q146 138 414 138q88 0 199 -37t196 -105t85 -140q0 -70 -48 -117t-114 -47q-68 0 -113 50t-45 110q0 36 22 79t22 81q0 36 -67 71t-137 35q-172 0 -210 -132q-30 -106 -30 -378q0 -318 30 -384q56 -126 208 -126 q148 0 270 72t202 196l16 -10q-82 -128 -208 -203t-280 -75z" />
<glyph unicode="d" horiz-adv-x="1280" d="M360 522q0 -340 24 -396q48 -114 176 -114q104 0 204 74q-4 36 -4 76v796q-98 72 -200 72q-130 0 -176 -114q-24 -64 -24 -394zM1080 1360v-1200q0 -140 160 -140v-20h-400q-20 0 -45 32t-27 32q-108 -72 -208 -72q-236 0 -378 141t-142 389t141 388t379 140 q100 0 200 -66v376q0 140 -160 140v20h400q80 0 80 -160z" />
<glyph unicode="e" d="M360 540h480q0 304 -30 368q-56 122 -210 122q-152 0 -196 -102q-44 -106 -44 -388zM600 -10q-270 0 -416 138q-144 138 -144 392q0 252 146 392q146 138 414 138t414 -138q146 -140 146 -392h-800q0 -354 40 -410q74 -100 200 -100q150 0 282 74t210 194l16 -10 q-80 -126 -216 -202t-292 -76z" />
<glyph unicode="f" horiz-adv-x="880" d="M200 1040q9 480 460 480q158 0 210 -116l-18 -8q-48 104 -192 104q-140 0 -140 -204v-256h180v-20h-180v-860q0 -140 160 -140v-20h-640v20q160 0 160 140v860h-160v20h160z" />
<glyph unicode="g" horiz-adv-x="1280" d="M360 520q0 -330 24 -394q46 -114 176 -114q102 0 200 72v796q0 40 4 76q-100 74 -204 74q-128 0 -176 -114q-24 -56 -24 -396zM760 58q-100 -66 -200 -66q-238 0 -380 140q-140 140 -140 388t142 388q142 142 378 142q100 0 208 -72q4 0 28 30q26 32 44 32h400v-20 q-160 0 -160 -140v-750q0 -252 -154 -390q-154 -140 -426 -140q-170 0 -330 88l12 18q152 -86 318 -86q144 0 200 76q56 74 60 234v128z" />
<glyph unicode="h" horiz-adv-x="1440" d="M200 1360q0 140 -160 140v20h400q80 0 80 -160v-376q100 66 200 66q520 0 520 -370v-520q0 -140 160 -140v-20h-640v20q160 0 160 140v500q0 370 -200 370q-102 0 -200 -72v-798q0 -140 160 -140v-20h-640v20q160 0 160 140v1200z" />
<glyph unicode="i" horiz-adv-x="720" d="M40 1040h400q80 0 80 -160v-720q0 -140 160 -140v-20h-640v20q160 0 160 140v720q0 140 -160 140v20zM200 1360q0 66 47 113t113 47t113 -47t47 -113t-47 -113t-113 -47t-113 47t-47 113z" />
<glyph unicode="j" horiz-adv-x="610" d="M520 880v-780q0 -224 -119 -362t-361 -138q-137 0 -190 118l18 8q48 -106 172 -106q155 0 160 320v940q0 140 -160 140v20h400q80 0 80 -160zM200 1360q0 66 46 113t114 47q66 0 113 -47t47 -113t-47 -113t-113 -47q-68 0 -114 47t-46 113z" />
<glyph unicode="k" horiz-adv-x="1340" d="M180 1360q0 140 -160 140v20h400q80 0 80 -160v-1058l462 590q34 42 34 72q0 56 -136 56v20h340v-20q-66 0 -106 -22t-112 -114l-132 -168l282 -560q46 -96 74 -116t94 -20v-20h-380q-76 0 -142 148l-146 288l-132 -166v-110q0 -140 160 -140v-20h-640v20q160 0 160 140 v1200z" />
<glyph unicode="l" horiz-adv-x="700" d="M500 1360v-1200q0 -140 160 -140v-20h-640v20q160 0 160 140v1200q0 140 -160 140v20h400q80 0 80 -160z" />
<glyph unicode="m" horiz-adv-x="2160" d="M520 880v-720q0 -140 160 -140v-20h-640v20q160 0 160 140v720q0 140 -160 140v20h400q18 0 43 -31t29 -31q108 72 208 72q314 0 440 -136q36 38 72 64q108 72 208 72q520 0 520 -370v-520q0 -140 160 -140v-20h-640v20q160 0 160 140v500q0 370 -200 370 q-104 0 -204 -74q-40 -30 -62 -60q66 -84 66 -216v-520q0 -140 160 -140v-20h-640v20q160 0 160 140v500q0 370 -200 370q-104 0 -204 -74q4 -36 4 -76z" />
<glyph unicode="n" horiz-adv-x="1440" d="M520 880v-720q0 -140 160 -140v-20h-640v20q160 0 160 140v720q0 140 -160 140v20h400q18 0 43 -31t29 -31q108 72 208 72q520 0 520 -370v-520q0 -140 160 -140v-20h-640v20q160 0 160 140v500q0 370 -200 370q-104 0 -204 -74q4 -36 4 -76z" />
<glyph unicode="o" d="M600 10q152 0 196 106q44 108 44 404t-44 404q-44 106 -196 106q-172 0 -210 -132q-30 -106 -30 -378t30 -378q38 -132 210 -132zM600 -10q-270 0 -416 138q-144 138 -144 392q0 252 146 392q146 138 414 138t414 -138q146 -140 146 -392q0 -254 -144 -392 q-146 -138 -416 -138z" />
<glyph unicode="p" horiz-adv-x="1280" d="M520 -240q0 -140 160 -140v-20h-640v20q160 0 160 140v1120q0 140 -160 140v20h400q18 0 43 -31t29 -31q108 72 208 72q236 0 378 -141t142 -389t-141 -388t-379 -140q-100 0 -200 66v-298zM920 520q0 340 -24 396q-48 114 -176 114q-104 0 -204 -74q4 -36 4 -76v-796 q98 -72 200 -72q130 0 176 114q24 64 24 394z" />
<glyph unicode="q" horiz-adv-x="1280" d="M360 520q0 -330 24 -394q46 -114 176 -114q102 0 200 72v796q0 40 4 76q-100 74 -204 74q-128 0 -176 -114q-24 -56 -24 -396zM760 -240v298q-100 -66 -200 -66q-238 0 -379 140t-141 388t142 389t378 141q100 0 208 -72q4 0 29 31t43 31h400v-20q-160 0 -160 -140v-1120 q0 -140 160 -140v-20h-400q-80 0 -80 160z" />
<glyph unicode="r" horiz-adv-x="1180" d="M1160 850q0 -64 -46 -112t-114 -48q-64 0 -112 46t-48 114l8 80q0 80 -76 80q-136 0 -252 -132v-718q0 -140 160 -140v-20h-640v20q160 0 160 140v720q0 140 -160 140v20h400q18 0 36 -32q22 -34 32 -64l12 -34q78 72 140 102q80 38 224 38q108 0 192 -52t84 -148z" />
<glyph unicode="s" horiz-adv-x="984" d="M842 1030h20l18 -282h-20q-8 75 -67 162q-35 51 -111 85.5t-180 34.5q-94 0 -149 -49t-55 -103q0 -68 46 -102q42 -32 112 -68l300 -140q188 -100 188 -260q0 -318 -480 -318q-75 0 -142 20q-92 28 -164 86q-25 20 -50 20q-50 0 -50 -112h-20l8 308h20q0 -30 22 -76 q63 -131 189 -188q84 -38 187 -38q204 0 204 152q0 108 -120 170l-282 128q-104 47 -159 118q-51 67 -51 156q0 148 123 232q121 84 323 84q96 0 165 -26q64 -25 116.5 -25t58.5 31z" />
<glyph unicode="t" horiz-adv-x="790" d="M460 215q0 -205 120 -205q124 0 172 104l18 -8q-52 -116 -190 -116q-440 0 -440 500v390q0 140 -160 140v20h88q192 0 192 280h200v-280h280v-20h-280v-805z" />
<glyph unicode="u" horiz-adv-x="1380" d="M1180 880v-720q0 -140 160 -140v-20h-400q-18 0 -43 31t-29 31q-108 -72 -208 -72q-520 0 -520 370v520q0 140 -160 140v20h400q80 0 80 -160v-660q0 -210 200 -210q104 0 204 74q-4 36 -4 76v720q0 140 -160 140v20h400q80 0 80 -160z" />
<glyph unicode="v" horiz-adv-x="1140" d="M482 892l232 -570l230 570q14 34 14 64q0 64 -118 64v20h260v-20q-86 -2 -136 -136l-238 -592l-116 -292h-64q-36 0 -54 22q-2 4 -48 126l-296 736q-40 100 -72 118q-28 18 -96 18v20h380q68 0 122 -148z" />
<glyph unicode="w" horiz-adv-x="1780" d="M1250 0h-64q-36 0 -54 22q-2 4 -48 126l-208 518l-150 -374l-116 -292h-64q-36 0 -54 22q-2 4 -48 126l-296 736q-40 100 -72 118q-28 18 -96 18v20h380q68 0 122 -148l232 -570l152 374l-76 188q-28 72 -48 96q-34 40 -122 40v20h620v-20q-128 0 -128 -66q0 -32 12 -62 l230 -570l230 570q14 34 14 64q0 64 -118 64v20h260v-20q-86 -2 -136 -136l-238 -592z" />
<glyph unicode="x" horiz-adv-x="1140" d="M786 892q32 44 32 70q0 58 -138 58v20h340v-20q-68 0 -108 -22t-108 -114l-152 -208l262 -520q34 -66 64 -96q40 -40 122 -40v-20h-640v20q116 0 116 58q0 22 -16 70l-122 240l-176 -240q-30 -38 -30 -68q0 -60 128 -60v-20h-340v20q50 0 76 4q68 14 148 132l184 252 l-240 476q-48 94 -76 115t-92 21v20h380q76 0 142 -148l100 -196z" />
<glyph unicode="y" horiz-adv-x="1140" d="M482 892l232 -570l230 570q14 35 14 64q0 64 -118 64v20h260v-20q-86 -2 -136 -136l-238 -592l-112 -282l-114 -282q-70 -148 -172 -148q-66 0 -113 47t-47 113t46 113t112 47q61 0 110 -42q42 -36 64 -36q16 0 22 16l64 162h-40q-43 0 -54 22q-2 4 -48 126l-296 736 q-39 97 -72 118q-28 18 -96 18v20h380q68 0 122 -148z" />
<glyph unicode="z" horiz-adv-x="1210" d="M870 20q232 0 250 280h20v-300h-1120v20q42 0 136 136l476 736q20 31 20 66q0 62 -138 62h-184q-232 0 -250 -280h-20v300h1080v-20q-23 0 -67 -40q-5 -4 -64 -96l-476 -736q-18 -28 -18 -66q0 -62 136 -62h219z" />
<glyph unicode="{" horiz-adv-x="740" d="M478 -108q0 -80 48 -116t114 -36h80v-20h-240q-110 0 -217 106t-107 214q0 18 23 144t23 204q0 66 -27 100q-18 23 -55 60q-60 62 -60 102q0 44 60 102q62 62 70 87q12 39 12 73q0 70 -23 193t-23 145q0 108 107 214t217 106h240v-20h-80q-66 0 -114 -36t-48 -116 q0 -8 18 -197t18 -231q0 -60 -68 -107t-149 -72t-149 -62t-68 -79t68 -82t149 -68t149 -74t68 -98q0 -54 -18 -241t-18 -195z" />
<glyph unicode="|" horiz-adv-x="480" d="M80 1568h320v-2048h-320v2048z" />
<glyph unicode="}" horiz-adv-x="740" d="M262 -108q0 8 -18 195t-18 241q0 52 68 98t149 74t149 68t68 82t-68 79t-149 62t-149 72t-68 107q0 42 18 231t18 197q0 80 -48 116t-114 36h-80v20h240q110 0 217 -106t107 -214q0 -22 -23 -145t-23 -193q0 -34 12 -73q8 -25 70 -87q60 -58 60 -102q0 -40 -60 -102 q-37 -37 -55 -60q-27 -34 -27 -100q0 -78 23 -204t23 -144q0 -108 -107 -214t-217 -106h-240v20h80q66 0 114 36t48 116z" />
<glyph unicode="~" horiz-adv-x="1160" d="M740 448q-70 0 -137 38t-112 83t-108 83t-127 38q-116 0 -142 -134l-16 -78l-18 2l44 236q18 102 107 183t191 81q72 0 139 -38t112 -83t106 -83t123 -38t98 40t46 96l14 78l20 -4l-44 -236q-18 -102 -107 -183t-189 -81z" />
<glyph unicode="&#xa1;" horiz-adv-x="480" d="M306 -400h-226l80 920h160q68 -770 68 -810q0 -52 -14 -77t-28 -29t-40 -4zM80 920q0 66 47 113t113 47t113 -47t47 -113t-47 -113t-113 -47t-113 47t-47 113z" />
<glyph unicode="&#xa2;" horiz-adv-x="1124" d="M594 1320h20v-190q83 -3 185 -37q111 -37 196 -105t85 -140q0 -70 -48 -117t-114 -47q-68 0 -113 50t-45 110q0 36 22 79t22 81q0 36 -67 71q-60 31 -123 35v-1020q139 4 254 72q122 72 202 196l16 -10q-82 -128 -208 -203q-119 -71 -264 -75v-150h-20v150 q-267 1 -410 138q-144 138 -144 392q0 252 146 392q144 136 408 138v190zM594 90v1020q-167 -2 -204 -132q-30 -106 -30 -378q0 -317 30 -384q56 -124 204 -126z" />
<glyph unicode="&#xa4;" horiz-adv-x="846" d="M216 660q0 -85 60.5 -145.5t145.5 -60.5t145.5 60.5t60.5 145.5t-60.5 145.5t-145.5 60.5t-145.5 -60.5t-60.5 -145.5zM193 833l-113 113l60 54l110 -111q74 57 172 57t173 -57l117 117l54 -58l-115 -115q57 -75 57 -173t-57 -172l111 -110l-60 -54l-107 107 q-75 -57 -173 -57t-172 57l-106 -107l-54 60l103 103q-57 75 -57 173t57 173z" />
<glyph unicode="&#xa5;" horiz-adv-x="1338" d="M560 1212l280 -554l272 554q18 37 18 62q0 66 -152 66v20h340v-20q-84 0 -124 -40q-28 -28 -62 -96l-270 -546l1 -148h297l-10 -100h-287v-80h297l-10 -100h-286v-70q1 -140 160 -140v-20h-640v20q160 0 160 140v70h-1h-313l10 100h303v80h-313l10 100h302v30l-336 664 q-66 136 -186 136v20h398q76 0 142 -148z" />
<glyph unicode="&#xa6;" horiz-adv-x="480" d="M400 320v-800h-320v800h320zM80 720v800h320v-800h-320z" />
<glyph unicode="&#xa7;" horiz-adv-x="1360" d="M680 1520q138 0 279 -86t141 -196q0 -70 -48 -117t-114 -47q-68 0 -113 50t-45 110q0 36 22 79t22 81q0 106 -144 106q-170 0 -170 -114q0 -134 150 -258l428 -322q196 -148 196 -308q0 -284 -364 -352q192 -160 192 -310q0 -316 -432 -316q-138 0 -279 86t-141 196 q0 70 48 117t114 47q68 0 113 -50t45 -110q0 -36 -22 -79t-22 -81q0 -106 144 -106q170 0 170 114q0 134 -150 258l-428 322q-196 148 -196 308q0 284 364 352q-192 160 -192 310q0 316 432 316zM460 876q-120 -20 -120 -128q0 -164 134 -264l426 -320q120 20 120 128 q0 164 -134 264z" />
<glyph unicode="&#xa8;" d="M680 1320q0 66 47 113t113 47t113 -47t47 -113t-47 -113t-113 -47t-113 47t-47 113zM200 1320q0 66 47 113t113 47t113 -47t47 -113t-47 -113t-113 -47t-113 47t-47 113z" />
<glyph unicode="&#xa9;" horiz-adv-x="2060" d="M1028 30q-270 0 -414 138t-144 392q0 252 146 391t414 139q88 0 199 -37t196 -105t85 -140q0 -70 -48 -117t-114 -47q-68 0 -113 50t-45 110q0 36 22 79t22 81q0 36 -67 71t-137 35q-44 0 -79 -7t-60 -27t-42 -38t-29 -60t-18 -70t-9 -90t-3 -100v-118q0 -108 1 -158 t8 -123t21 -104t40 -66t68 -47t100 -12q148 0 270 72t202 196l16 -10q-82 -128 -208 -203t-280 -75zM1030 -364q270 0 498 123t360 334t132 461t-132 461t-360 334t-498 123t-498 -123t-360 -334t-132 -461t132 -461t360 -334t498 -123zM2040 554q0 -254 -136 -471 t-368 -342t-506 -125t-506 125t-368 342t-136 471t136 471t368 342t506 125t506 -125t368 -342t136 -471z" />
<glyph unicode="&#xab;" horiz-adv-x="1280" d="M1200 188l-600 606l600 590v-330l-260 -256q-54 -54 -54 -100q0 -44 68 -112l246 -250v-148zM640 188l-600 606l600 590v-330l-260 -256q-54 -54 -54 -100q0 -44 68 -112l246 -250v-148z" />
<glyph unicode="&#xad;" horiz-adv-x="1010" d="M940 780h-880l10 80h880z" />
<glyph unicode="&#xae;" horiz-adv-x="2060" d="M910 1080v-640h160q200 0 200 300q0 340 -200 340h-160zM2040 554q0 -254 -136 -471t-368 -342t-506 -125t-506 125t-368 342t-136 471t136 471t368 342t506 125t506 -125t368 -342t136 -471zM1030 -364q270 0 498 123t360 334t132 461t-132 461t-360 334t-498 123 t-498 -123t-360 -334t-132 -461t132 -461t360 -334t498 -123zM430 1100h640q210 0 351 -99q169 -119 169 -261t-169 -241l-26 -14l129 -269q32 -66 62 -96q40 -40 124 -40v-20h-380q-76 0 -142 148l-102 212h-16h-160v-200q0 -140 160 -140v-20h-640v20q160 0 160 140v738 q-6 122 -160 122v20z" />
<glyph unicode="&#xaf;" horiz-adv-x="1050" d="M960 1260h-880l10 100h880z" />
<glyph unicode="&#xb0;" horiz-adv-x="480" d="M240 1440q74 0 137 -61t63 -139t-63 -139t-137 -61t-137 62t-63 138q0 78 63 139t137 61zM240 1420q-100 0 -100 -180t100 -180t100 180t-100 180z" />
<glyph unicode="&#xb1;" horiz-adv-x="1050" d="M960 220h-880l10 100h880zM564 940h400l-4 -80h-396v-394l-80 4v390h-404l4 80h400v410l80 -4v-406z" />
<glyph unicode="&#xb4;" horiz-adv-x="920" d="M260 1200l20 60q74 214 98 244q12 16 22 16h260v-20q-10 0 -41 -15q-34 -16 -60 -43l-239 -242h-60z" />
<glyph unicode="&#xb5;" horiz-adv-x="1380" d="M240 -117q37 12 64 12q32 0 63 -13q98 -41 98 -146q0 -31 -13 -62q-41 -99 -148 -99q-31 0 -61 12q-94 39 -103 203v1090q0 140 -160 140v20h400q80 0 80 -160v-500q0 -370 200 -370q104 0 204 74q-4 36 -4 76v720q0 140 -160 140v20h640v-20q-160 0 -160 -140v-720 q0 -140 160 -140v-20h-400q-18 0 -43 31t-29 31q-108 -72 -208 -72q-292 0 -420 117v-224z" />
<glyph unicode="&#xb6;" horiz-adv-x="1320" d="M360 1420q-116 0 -204 -87t-88 -205t89 -205t203 -87h40v584h-40zM880 -480v1760q0 140 -120 140t-120 -140v-1760h-400v20q160 0 160 140v1136h-40q-122 0 -217 93t-95 219q0 128 94 220t218 92h920v-20q-160 0 -160 -140v-1600q0 -140 160 -140v-20h-400z" />
<glyph unicode="&#xb7;" horiz-adv-x="480" d="M80 720q0 66 47 113t113 47t113 -47t47 -113t-47 -113t-113 -47t-113 47t-47 113z" />
<glyph unicode="&#xb8;" horiz-adv-x="840" d="M366 14l-21 -91q31 14 76 14q107 0 189 -78q55 -53 55 -118q0 -88 -88 -143q-66 -41 -151 -41q-114 0 -200 96l3 22q89 -97 181 -97q133 0 133 208q0 129 -121 129q-69 0 -110 -34l30 135z" />
<glyph unicode="&#xbb;" horiz-adv-x="1280" d="M640 1390l600 -590l-600 -606v330l260 256q54 54 54 100q0 44 -68 112l-246 250v148zM80 1390l600 -590l-600 -606v330l260 256q54 54 54 100q0 44 -68 112l-246 250v148z" />
<glyph unicode="&#xbf;" horiz-adv-x="984" d="M744 920q0 -66 -47 -113t-113 -47t-113 47t-47 113t47 113t113 47t113 -47t47 -113zM688 218q0 -92 -96 -156l-152 -98q-14 -10 -48 -30t-47 -29t-32 -27t-25 -38t-6 -46q0 -54 65 -113t159 -59q84 0 153 25t109 62t68 81t38 77t10 57l20 2l-18 -284h-20q0 26 -12 52 t-28 26q-10 0 -48 -29t-108 -59t-164 -30q-200 0 -333 93t-133 243q0 64 32 116t67 80t111 78l82 54q8 4 37 22t44 29t37 30t33 41t13 48l8 84h160q24 -300 24 -302z" />
<glyph unicode="&#xc0;" horiz-adv-x="1400" d="M0 0zM752 1440h-60l-239 242q-26 27 -60 43q-31 15 -41 15v20h260q10 0 22 -16q24 -30 98 -244zM743 440l-220 678l-222 -678h442zM750 420h-455l-89 -272q-12 -34 -12 -58q0 -70 146 -70v-20h-340v20q142 0 186 136l325 996l-17 52q-48 136 -186 136v20h386 q86 0 134 -148l344 -1056q44 -136 188 -136v-20h-640v20q130 0 130 68q0 23 -12 60z" />
<glyph unicode="&#xc1;" horiz-adv-x="1400" d="M0 0zM580 1440l20 60q74 214 98 244q12 16 22 16h260v-20q-10 0 -41 -15q-34 -16 -60 -43l-239 -242h-60zM743 440l-220 678l-222 -678h442zM750 420h-455l-89 -272q-12 -34 -12 -58q0 -70 146 -70v-20h-340v20q142 0 186 136l325 996l-17 52q-48 136 -186 136v20h386 q86 0 134 -148l344 -1056q44 -136 188 -136v-20h-640v20q130 0 130 68q0 23 -12 60z" />
<glyph unicode="&#xc2;" horiz-adv-x="1400" d="M0 0zM680 1680q-28 0 -94 -52l-236 -188h-30l200 320h320l200 -320h-30l-234 188q-66 52 -96 52zM743 440l-220 678l-222 -678h442zM750 420h-455l-89 -272q-12 -34 -12 -58q0 -70 146 -70v-20h-340v20q142 0 186 136l325 996l-17 52q-48 136 -186 136v20h386 q86 0 134 -148l344 -1056q44 -136 188 -136v-20h-640v20q130 0 130 68q0 23 -12 60z" />
<glyph unicode="&#xc3;" horiz-adv-x="1400" d="M0 0zM633 1720l134 -100q49 -32 82 -32q104 0 104 96q0 20 -8 42l18 8q22 -58 22 -106q0 -188 -212 -188q-60 0 -116 36l-134 100q-51 34 -104 34q-82 0 -82 -98q0 -18 8 -42l-18 -8q-22 60 -22 108q0 190 196 190q78 0 132 -40zM743 440l-220 678l-222 -678h442z M750 420h-455l-89 -272q-12 -34 -12 -58q0 -70 146 -70v-20h-340v20q142 0 186 136l325 996l-17 52q-48 136 -186 136v20h386q86 0 134 -148l344 -1056q44 -136 188 -136v-20h-640v20q130 0 130 68q0 23 -12 60z" />
<glyph unicode="&#xc4;" horiz-adv-x="1400" d="M0 0zM700 1600q0 66 47 113t113 47t113 -47t47 -113t-47 -113t-113 -47t-113 47t-47 113zM220 1600q0 66 47 113t113 47t113 -47t47 -113t-47 -113t-113 -47t-113 47t-47 113zM743 440l-220 678l-222 -678h442zM750 420h-455l-89 -272q-12 -34 -12 -58q0 -70 146 -70v-20 h-340v20q142 0 186 136l325 996l-17 52q-48 136 -186 136v20h386q86 0 134 -148l344 -1056q44 -136 188 -136v-20h-640v20q130 0 130 68q0 23 -12 60z" />
<glyph unicode="&#xc5;" horiz-adv-x="1400" d="M0 0zM620 1761q74 0 137 -61t63 -139t-63 -139t-137 -61t-137 62t-63 138q0 78 63 139t137 61zM620 1741q-100 0 -100 -180t100 -180t100 180t-100 180zM743 440l-220 678l-222 -678h442zM750 420h-455l-89 -272q-12 -34 -12 -58q0 -70 146 -70v-20h-340v20 q142 0 186 136l325 996l-17 52q-48 136 -186 136v20h386q86 0 134 -148l344 -1056q44 -136 188 -136v-20h-640v20q130 0 130 68q0 23 -12 60z" />
<glyph unicode="&#xc6;" horiz-adv-x="1940" d="M742 1340q-56 0 -83 -39t-87 -211l-226 -650h554v760q0 140 -158 140zM1860 1360v-300h-20q-18 280 -250 280h-370v-560h178q140 0 140 160h20v-340h-20q0 160 -140 160h-178v-740h390q232 0 250 280h20v-300h-1140v20q154 0 160 122v278h-560l-94 -272q-12 -35 -12 -58 q0 -70 146 -70v-20h-340v20q139 0 186 136l334 968q18 52 18 92q0 124 -230 124v20h1512z" />
<glyph unicode="&#xc7;" horiz-adv-x="1040" d="M624 1350q-170 0 -240 -210q-44 -133 -44 -460q0 -284 42 -456q52 -214 236 -214q196 0 362 142v-26q-166 -136 -362 -136q-25 0 -48 2l-19 -81q31 14 76 14q107 0 189 -78q55 -53 55 -118q0 -88 -88 -143q-66 -41 -151 -41q-114 0 -200 96l3 22q89 -97 181 -97 q133 0 133 208q0 129 -121 129q-69 0 -110 -34l28 125q-217 24 -360 196q-166 200 -166 490q0 286 168 488t434 202q94 0 163 -26q64 -25 120 -25q57 0 57 41h20l18 -308h-20q0 32 -15 76q-45 131 -161 186q-76 36 -180 36z" />
<glyph unicode="&#xc8;" horiz-adv-x="1240" d="M40 0zM800 1440h-60l-239 242q-26 27 -60 43q-31 15 -41 15v20h260q10 0 22 -16q24 -30 98 -244zM40 1360h1120v-300h-20q-18 280 -250 280h-370v-560h178q140 0 140 160h20v-340h-20q0 160 -140 160h-178v-740h390q232 0 250 280h20v-300h-1140v20q154 0 160 122v1058 q0 140 -160 140v20z" />
<glyph unicode="&#xc9;" horiz-adv-x="1240" d="M40 0zM520 1440l20 60q74 214 98 244q12 16 22 16h260v-20q-10 0 -41 -15q-34 -16 -60 -43l-239 -242h-60zM40 1360h1120v-300h-20q-18 280 -250 280h-370v-560h178q140 0 140 160h20v-340h-20q0 160 -140 160h-178v-740h390q232 0 250 280h20v-300h-1140v20 q154 0 160 122v1058q0 140 -160 140v20z" />
<glyph unicode="&#xca;" horiz-adv-x="1240" d="M40 0zM640 1680q-28 0 -94 -52l-236 -188h-30l200 320h320l200 -320h-30l-234 188q-66 52 -96 52zM40 1360h1120v-300h-20q-18 280 -250 280h-370v-560h178q140 0 140 160h20v-340h-20q0 160 -140 160h-178v-740h390q232 0 250 280h20v-300h-1140v20q154 0 160 122v1058 q0 140 -160 140v20z" />
<glyph unicode="&#xcb;" horiz-adv-x="1240" d="M40 0zM720 1600q0 66 47 113t113 47t113 -47t47 -113t-47 -113t-113 -47t-113 47t-47 113zM240 1600q0 66 47 113t113 47t113 -47t47 -113t-47 -113t-113 -47t-113 47t-47 113zM40 1360h1120v-300h-20q-18 280 -250 280h-370v-560h178q140 0 140 160h20v-340h-20 q0 160 -140 160h-178v-740h390q232 0 250 280h20v-300h-1140v20q154 0 160 122v1058q0 140 -160 140v20z" />
<glyph unicode="&#xcc;" horiz-adv-x="720" d="M40 0zM460 1440h-60l-239 242q-26 27 -60 43q-31 15 -41 15v20h260q10 0 22 -16q24 -30 98 -244zM40 1360h640v-20q-160 0 -160 -140v-1040q0 -140 160 -140v-20h-640v20q160 0 160 140v1040q0 140 -160 140v20z" />
<glyph unicode="&#xcd;" horiz-adv-x="720" d="M40 0zM260 1440l20 60q74 214 98 244q12 16 22 16h260v-20q-10 0 -41 -15q-34 -16 -60 -43l-239 -242h-60zM40 1360h640v-20q-160 0 -160 -140v-1040q0 -140 160 -140v-20h-640v20q160 0 160 140v1040q0 140 -160 140v20z" />
<glyph unicode="&#xce;" horiz-adv-x="720" d="M0 0zM360 1680q-28 0 -94 -52l-236 -188h-30l200 320h320l200 -320h-30l-234 188q-66 52 -96 52zM40 1360h640v-20q-160 0 -160 -140v-1040q0 -140 160 -140v-20h-640v20q160 0 160 140v1040q0 140 -160 140v20z" />
<glyph unicode="&#xcf;" horiz-adv-x="720" d="M0 0zM440 1600q0 66 47 113t113 47t113 -47t47 -113t-47 -113t-113 -47t-113 47t-47 113zM-40 1600q0 66 47 113t113 47t113 -47t47 -113t-47 -113t-113 -47t-113 47t-47 113zM40 1360h640v-20q-160 0 -160 -140v-1040q0 -140 160 -140v-20h-640v20q160 0 160 140v1040 q0 140 -160 140v20z" />
<glyph unicode="&#xd0;" horiz-adv-x="1360" d="M720 20q156 0 232 162q48 102 48 498t-48 498q-76 162 -232 162h-200v-610h220l-10 -100h-210v-610h200zM720 0h-680v20q154 0 160 122v488h-150l10 100h140v470q0 140 -160 140v20h680q262 0 431 -197t169 -483t-169 -483t-431 -197z" />
<glyph unicode="&#xd1;" horiz-adv-x="1360" d="M40 0zM667 1720l134 -100q49 -32 82 -32q104 0 104 96q0 20 -8 42l18 8q22 -58 22 -106q0 -188 -212 -188q-60 0 -116 36l-134 100q-51 34 -104 34q-82 0 -82 -98q0 -18 8 -42l-18 -8q-22 60 -22 108q0 190 196 190q78 0 132 -40zM1160 232v-232h-234l-706 1200v-1040 q0 -140 160 -140v-20h-340v20q160 0 160 140v1040q0 140 -160 140v20h456l644 -1094v934q0 140 -160 140v20h340v-20q-160 0 -160 -140v-968z" />
<glyph unicode="&#xd2;" horiz-adv-x="1260" d="M20 0zM720 1440h-60l-239 242q-26 27 -60 43q-31 15 -41 15v20h260q10 0 22 -16q24 -30 98 -244zM620 1370q260 0 430 -201t170 -489t-170 -489t-430 -201t-430 201t-170 489t168 489t432 201zM620 1350q-144 0 -212 -136q-68 -138 -68 -534t68 -534q68 -136 212 -136 t212 136q68 138 68 534t-68 534q-68 136 -212 136z" />
<glyph unicode="&#xd3;" horiz-adv-x="1260" d="M20 0zM520 1440l20 60q74 214 98 244q12 16 22 16h260v-20q-10 0 -41 -15q-34 -16 -60 -43l-239 -242h-60zM620 1370q260 0 430 -201t170 -489t-170 -489t-430 -201t-430 201t-170 489t168 489t432 201zM620 1350q-144 0 -212 -136q-68 -138 -68 -534t68 -534 q68 -136 212 -136t212 136q68 138 68 534t-68 534q-68 136 -212 136z" />
<glyph unicode="&#xd4;" horiz-adv-x="1260" d="M20 0zM620 1680q-28 0 -94 -52l-236 -188h-30l200 320h320l200 -320h-30l-234 188q-66 52 -96 52zM620 1370q260 0 430 -201t170 -489t-170 -489t-430 -201t-430 201t-170 489t168 489t432 201zM620 1350q-144 0 -212 -136q-68 -138 -68 -534t68 -534q68 -136 212 -136 t212 136q68 138 68 534t-68 534q-68 136 -212 136z" />
<glyph unicode="&#xd5;" horiz-adv-x="1260" d="M20 0zM607 1726l134 -100q49 -32 82 -32q104 0 104 96q0 20 -8 42l18 8q22 -58 22 -106q0 -188 -212 -188q-60 0 -116 36l-134 100q-51 34 -104 34q-82 0 -82 -98q0 -18 8 -42l-18 -8q-22 60 -22 108q0 190 196 190q78 0 132 -40zM620 1370q260 0 430 -201t170 -489 t-170 -489t-430 -201t-430 201t-170 489t168 489t432 201zM620 1350q-144 0 -212 -136q-68 -138 -68 -534t68 -534q68 -136 212 -136t212 136q68 138 68 534t-68 534q-68 136 -212 136z" />
<glyph unicode="&#xd6;" horiz-adv-x="1260" d="M20 0zM700 1600q0 66 47 113t113 47t113 -47t47 -113t-47 -113t-113 -47t-113 47t-47 113zM220 1600q0 66 47 113t113 47t113 -47t47 -113t-47 -113t-113 -47t-113 47t-47 113zM620 1370q260 0 430 -201t170 -489t-170 -489t-430 -201t-430 201t-170 489t168 489t432 201 zM620 1350q-144 0 -212 -136q-68 -138 -68 -534t68 -534q68 -136 212 -136t212 136q68 138 68 534t-68 534q-68 136 -212 136z" />
<glyph unicode="&#xd7;" horiz-adv-x="846" d="M478 660l284 -282l-60 -54l-280 280l-278 -280l-54 60l276 276l-286 286l60 54l282 -284l290 290l54 -58z" />
<glyph unicode="&#xd8;" horiz-adv-x="1260" d="M620 1350q-76 0 -129 -39t-82 -97t-45 -154t-20 -178t-4 -202q0 -208 14 -322l528 672q-48 320 -262 320zM88 -16l-16 12l136 174q-188 204 -188 510q0 288 168 489t432 201q232 0 398 -166l134 172l16 -12l-136 -174q188 -204 188 -510q0 -288 -170 -489t-430 -201 q-232 0 -398 166zM886 1002l-528 -672q48 -320 262 -320q76 0 129 39t82 97t45 154t20 178t4 202q0 208 -14 322z" />
<glyph unicode="&#xd9;" horiz-adv-x="1440" d="M40 0zM920 1440h-60l-239 242q-26 27 -60 43q-31 15 -41 15v20h260q10 0 22 -16q24 -30 98 -244zM1220 680v520q0 140 -160 140v20h340v-20q-160 0 -160 -140v-520q0 -316 -82 -481q-104 -209 -358 -209q-314 0 -472 186q-128 151 -128 464v560q0 140 -160 140v20h640 v-20q-160 0 -160 -140v-800q0 -390 280 -390q242 0 340 198q80 161 80 472z" />
<glyph unicode="&#xda;" horiz-adv-x="1440" d="M40 0zM674 1442l20 60q74 214 98 244q12 16 22 16h260v-20q-10 0 -41 -15q-34 -16 -60 -43l-239 -242h-60zM1220 680v520q0 140 -160 140v20h340v-20q-160 0 -160 -140v-520q0 -316 -82 -481q-104 -209 -358 -209q-314 0 -472 186q-128 151 -128 464v560q0 140 -160 140 v20h640v-20q-160 0 -160 -140v-800q0 -390 280 -390q242 0 340 198q80 161 80 472z" />
<glyph unicode="&#xdb;" horiz-adv-x="1440" d="M40 0zM780 1680q-28 0 -94 -52l-236 -188h-30l200 320h320l200 -320h-30l-234 188q-66 52 -96 52zM1220 680v520q0 140 -160 140v20h340v-20q-160 0 -160 -140v-520q0 -316 -82 -481q-104 -209 -358 -209q-314 0 -472 186q-128 151 -128 464v560q0 140 -160 140v20h640 v-20q-160 0 -160 -140v-800q0 -390 280 -390q242 0 340 198q80 161 80 472z" />
<glyph unicode="&#xdc;" horiz-adv-x="1440" d="M40 0zM820 1600q0 66 47 113t113 47t113 -47t47 -113t-47 -113t-113 -47t-113 47t-47 113zM340 1600q0 66 47 113t113 47t113 -47t47 -113t-47 -113t-113 -47t-113 47t-47 113zM1220 680v520q0 140 -160 140v20h340v-20q-160 0 -160 -140v-520q0 -316 -82 -481 q-104 -209 -358 -209q-314 0 -472 186q-128 151 -128 464v560q0 140 -160 140v20h640v-20q-160 0 -160 -140v-800q0 -390 280 -390q242 0 340 198q80 161 80 472z" />
<glyph unicode="&#xdd;" horiz-adv-x="1338" d="M20 0zM589 1440l20 60q74 214 98 244q12 16 22 16h260v-20q-10 0 -41 -15q-34 -16 -60 -43l-239 -242h-60zM560 1212l280 -554l272 554q18 36 18 62q0 66 -152 66v20h340v-20q-84 0 -124 -40q-28 -28 -62 -96l-270 -546l2 -498q0 -140 160 -140v-20h-640v20 q160 0 160 140l-2 380l-336 664q-66 136 -186 136v20h398q76 0 142 -148z" />
<glyph unicode="&#xde;" horiz-adv-x="1360" d="M520 1180v-920h200q174 0 228 108q52 100 52 352t-52 352q-54 108 -228 108h-200zM40 1360h640v-20q-160 0 -160 -140h200q262 0 431 -139t169 -341t-169 -341t-431 -139h-200v-80q0 -140 160 -140v-20h-640v20q160 0 160 140v1040q0 140 -160 140v20z" />
<glyph unicode="&#xdf;" horiz-adv-x="1440" d="M780 1520q296 0 296 -242q0 -44 -20 -81t-49 -65t-59 -58t-50 -78t-20 -108q0 -69 124 -150l254 -170q144 -102 144 -260q-2 -318 -436 -318q-61 0 -114 20q-32 12 -120 86q-24 20 -42 20q-50 0 -50 -116h-20l8 312h20q0 -38 37 -107t114 -132t167 -63q174 0 174 162 q0 110 -90 160l-236 158q-124 83 -148 158q-12 38 -12 86q0 94 42 164t101 112t118 79t101 84t42 105q0 222 -276 222q-155 0 -216 -136q-60 -134 -64 -344v-1020h-480v20q160 0 160 140v840h-140v20h140q10 220 152 360t448 140z" />
<glyph unicode="&#xe0;" horiz-adv-x="1358" d="M40 0zM780 1200h-60l-239 242q-26 27 -60 43q-31 15 -41 15v20h260q10 0 22 -16q24 -30 98 -244zM1320 0h-400q-20 0 -44 32t-28 32q-102 -74 -248 -74q-254 0 -407 114t-153 256t152 251t408 109q124 0 240 -50v50q0 310 -260 310q-166 0 -318 -86l-12 18q160 88 330 88 q580 0 580 -530v-360q0 -140 160 -140v-20zM840 648q-114 52 -240 52q-148 0 -208 -112q-32 -54 -32 -228q0 -212 52 -276q62 -74 188 -74q152 0 244 76q-4 124 -4 238v324z" />
<glyph unicode="&#xe1;" horiz-adv-x="1358" d="M40 0zM500 1200l20 60q74 214 98 244q12 16 22 16h260v-20q-10 0 -41 -15q-34 -16 -60 -43l-239 -242h-60zM1320 0h-400q-20 0 -44 32t-28 32q-102 -74 -248 -74q-254 0 -407 114t-153 256t152 251t408 109q124 0 240 -50v50q0 310 -260 310q-166 0 -318 -86l-12 18 q160 88 330 88q580 0 580 -530v-360q0 -140 160 -140v-20zM840 648q-114 52 -240 52q-148 0 -208 -112q-32 -54 -32 -228q0 -212 52 -276q62 -74 188 -74q152 0 244 76q-4 124 -4 238v324z" />
<glyph unicode="&#xe2;" horiz-adv-x="1358" d="M40 0zM680 1440q-28 0 -94 -52l-236 -188h-30l200 320h320l200 -320h-30l-234 188q-66 52 -96 52zM1320 0h-400q-20 0 -44 32t-28 32q-102 -74 -248 -74q-254 0 -407 114t-153 256t152 251t408 109q124 0 240 -50v50q0 310 -260 310q-166 0 -318 -86l-12 18 q160 88 330 88q580 0 580 -530v-360q0 -140 160 -140v-20zM840 648q-114 52 -240 52q-148 0 -208 -112q-32 -54 -32 -228q0 -212 52 -276q62 -74 188 -74q152 0 244 76q-4 124 -4 238v324z" />
<glyph unicode="&#xe3;" horiz-adv-x="1358" d="M40 0zM667 1480l134 -100q49 -32 82 -32q104 0 104 96q0 20 -8 42l18 8q22 -58 22 -106q0 -188 -212 -188q-60 0 -116 36l-134 100q-51 34 -104 34q-82 0 -82 -98q0 -18 8 -42l-18 -8q-22 60 -22 108q0 190 196 190q78 0 132 -40zM1320 0h-400q-20 0 -44 32t-28 32 q-102 -74 -248 -74q-254 0 -407 114t-153 256t152 251t408 109q124 0 240 -50v50q0 310 -260 310q-166 0 -318 -86l-12 18q160 88 330 88q580 0 580 -530v-360q0 -140 160 -140v-20zM840 648q-114 52 -240 52q-148 0 -208 -112q-32 -54 -32 -228q0 -212 52 -276 q62 -74 188 -74q152 0 244 76q-4 124 -4 238v324z" />
<glyph unicode="&#xe4;" horiz-adv-x="1358" d="M40 0zM740 1360q0 66 47 113t113 47t113 -47t47 -113t-47 -113t-113 -47t-113 47t-47 113zM260 1360q0 66 47 113t113 47t113 -47t47 -113t-47 -113t-113 -47t-113 47t-47 113zM1320 0h-400q-20 0 -44 32t-28 32q-102 -74 -248 -74q-254 0 -407 114t-153 256t152 251 t408 109q124 0 240 -50v50q0 310 -260 310q-166 0 -318 -86l-12 18q160 88 330 88q580 0 580 -530v-360q0 -140 160 -140v-20zM840 648q-114 52 -240 52q-148 0 -208 -112q-32 -54 -32 -228q0 -212 52 -276q62 -74 188 -74q152 0 244 76q-4 124 -4 238v324z" />
<glyph unicode="&#xe5;" horiz-adv-x="1358" d="M40 0zM640 1580q74 0 137 -61t63 -139t-63 -139t-137 -61t-137 62t-63 138q0 78 63 139t137 61zM640 1560q-100 0 -100 -180t100 -180t100 180t-100 180zM1320 0h-400q-20 0 -44 32t-28 32q-102 -74 -248 -74q-254 0 -407 114t-153 256t152 251t408 109q124 0 240 -50v50 q0 310 -260 310q-166 0 -318 -86l-12 18q160 88 330 88q580 0 580 -530v-360q0 -140 160 -140v-20zM840 648q-114 52 -240 52q-148 0 -208 -112q-32 -54 -32 -228q0 -212 52 -276q62 -74 188 -74q152 0 244 76q-4 124 -4 238v324z" />
<glyph unicode="&#xe6;" horiz-adv-x="2000" d="M360 360q0 -212 52 -276q62 -74 188 -74q144 0 189 73t51 241v324q-114 52 -240 52q-144 0 -210 -112q-30 -50 -30 -228zM1160 574q92 -34 192 -34h288v148q-6 202 -72 284q-46 58 -168 58q-146 0 -191 -92t-49 -326v-38zM1160 552v-196q2 -186 48 -266t192 -80 q150 0 282 74t210 194l16 -10q-80 -126 -216 -202t-292 -76q-144 0 -234 40t-164 128q-136 -108 -210 -138t-192 -30q-254 0 -407 114t-153 256t152 251t408 109q124 0 240 -50v50q-4 160 -60 235t-200 75q-166 0 -318 -86l-12 18q160 88 330 88q274 0 422 -126 q144 126 398 126q268 0 414 -139t146 -391h-608q-96 0 -192 32z" />
<glyph unicode="&#xe7;" horiz-adv-x="1124" d="M512 -6q-208 19 -328 134q-144 138 -144 392q0 252 146 392q146 138 414 138q88 0 199 -37t196 -105t85 -140q0 -70 -48 -117t-114 -47q-68 0 -113 50t-45 110q0 36 22 79t22 81q0 36 -67 71t-137 35q-172 0 -210 -132q-30 -106 -30 -378q0 -317 30 -384 q57 -126 208 -126q148 0 270 72t202 196l16 -10q-82 -128 -208 -203t-280 -75q-32 0 -62 2l-17 -73q31 14 76 14q107 0 189 -78q55 -53 55 -118q0 -88 -88 -143q-66 -41 -151 -41q-114 0 -200 96l3 22q89 -97 181 -97q133 0 133 208q0 129 -121 129q-69 0 -110 -34z" />
<glyph unicode="&#xe8;" d="M40 0zM720 1200h-60l-239 242q-26 27 -60 43q-31 15 -41 15v20h260q10 0 22 -16q24 -30 98 -244zM360 540h480q0 304 -30 368q-56 122 -210 122q-152 0 -196 -102q-44 -106 -44 -388zM600 -10q-270 0 -416 138q-144 138 -144 392q0 252 146 392q146 138 414 138t414 -138 q146 -140 146 -392h-800q0 -354 40 -410q74 -100 200 -100q150 0 282 74t210 194l16 -10q-80 -126 -216 -202t-292 -76z" />
<glyph unicode="&#xe9;" d="M40 0zM500 1200l20 60q74 214 98 244q12 16 22 16h260v-20q-10 0 -41 -15q-34 -16 -60 -43l-239 -242h-60zM360 540h480q0 304 -30 368q-56 122 -210 122q-152 0 -196 -102q-44 -106 -44 -388zM600 -10q-270 0 -416 138q-144 138 -144 392q0 252 146 392q146 138 414 138 t414 -138q146 -140 146 -392h-800q0 -354 40 -410q74 -100 200 -100q150 0 282 74t210 194l16 -10q-80 -126 -216 -202t-292 -76z" />
<glyph unicode="&#xea;" d="M40 0zM620 1440q-28 0 -94 -52l-236 -188h-30l200 320h320l200 -320h-30l-234 188q-66 52 -96 52zM360 540h480q0 304 -30 368q-56 122 -210 122q-152 0 -196 -102q-44 -106 -44 -388zM600 -10q-270 0 -416 138q-144 138 -144 392q0 252 146 392q146 138 414 138 t414 -138q146 -140 146 -392h-800q0 -354 40 -410q74 -100 200 -100q150 0 282 74t210 194l16 -10q-80 -126 -216 -202t-292 -76z" />
<glyph unicode="&#xeb;" d="M40 0zM680 1360q0 66 47 113t113 47t113 -47t47 -113t-47 -113t-113 -47t-113 47t-47 113zM200 1360q0 66 47 113t113 47t113 -47t47 -113t-47 -113t-113 -47t-113 47t-47 113zM360 540h480q0 304 -30 368q-56 122 -210 122q-152 0 -196 -102q-44 -106 -44 -388zM600 -10 q-270 0 -416 138q-144 138 -144 392q0 252 146 392q146 138 414 138t414 -138q146 -140 146 -392h-800q0 -354 40 -410q74 -100 200 -100q150 0 282 74t210 194l16 -10q-80 -126 -216 -202t-292 -76z" />
<glyph unicode="&#xec;" horiz-adv-x="720" d="M40 0zM480 1200h-60l-239 242q-26 27 -60 43q-31 15 -41 15v20h260q10 0 22 -16q24 -30 98 -244zM40 1040h400q22 0 32 -3t24 -17t19 -48t5 -92v-720q0 -50 12 -81t40 -42t48 -14t60 -3v-20h-640v20q40 0 60 3t48 14t40 42t12 81v720q0 50 -12 81t-40 42t-48 14t-60 3v20 z" />
<glyph unicode="&#xed;" horiz-adv-x="720" d="M40 0zM220 1200l20 60q74 214 98 244q12 16 22 16h260v-20q-10 0 -41 -15q-34 -16 -60 -43l-239 -242h-60zM40 1040h400q22 0 32 -3t24 -17t19 -48t5 -92v-720q0 -50 12 -81t40 -42t48 -14t60 -3v-20h-640v20q40 0 60 3t48 14t40 42t12 81v720q0 50 -12 81t-40 42t-48 14 t-60 3v20z" />
<glyph unicode="&#xee;" horiz-adv-x="720" d="M0 0zM360 1440q-28 0 -94 -52l-236 -188h-30l200 320h320l200 -320h-30l-234 188q-66 52 -96 52zM40 1040h400q22 0 32 -3t24 -17t19 -48t5 -92v-720q0 -50 12 -81t40 -42t48 -14t60 -3v-20h-640v20q40 0 60 3t48 14t40 42t12 81v720q0 50 -12 81t-40 42t-48 14t-60 3v20 z" />
<glyph unicode="&#xef;" horiz-adv-x="720" d="M40 1040h400q22 0 32 -3t24 -17t19 -48t5 -92v-720q0 -50 12 -81t40 -42t48 -14t60 -3v-20h-640v20q40 0 60 3t48 14t40 42t12 81v720q0 50 -12 81t-40 42t-48 14t-60 3v20zM400 1360q0 66 47 113t113 47t113 -47t47 -113t-47 -113t-113 -47t-113 47t-47 113zM0 1360 q0 66 47 113t113 47t113 -47t47 -113t-47 -113t-113 -47t-113 47t-47 113z" />
<glyph unicode="&#xf0;" horiz-adv-x="1120" d="M560 1030q-142 0 -176 -162q-24 -122 -24 -348q0 -278 24 -352q56 -158 176 -158q142 0 176 162q24 122 24 348q0 278 -24 352q-56 158 -176 158zM514 1196l58 148q-90 32 -240 54l2 18q154 -22 244 -52l42 108l20 -6l-42 -110q234 -80 364 -316q58 -104 88 -218t30 -222 v-80q0 -212 -158 -371t-362 -159t-362 159t-158 371t158 371t362 159q104 0 202 -54q0 124 -22 200q-28 102 -150 142l-56 -150z" />
<glyph unicode="&#xf1;" horiz-adv-x="1440" d="M40 0zM707 1486l134 -100q49 -32 82 -32q104 0 104 96q0 20 -8 42l18 8q22 -58 22 -106q0 -188 -212 -188q-60 0 -116 36l-134 100q-51 34 -104 34q-82 0 -82 -98q0 -18 8 -42l-18 -8q-22 60 -22 108q0 190 196 190q78 0 132 -40zM520 880v-720q0 -140 160 -140v-20h-640 v20q160 0 160 140v720q0 140 -160 140v20h400q18 0 43 -31t29 -31q108 72 208 72q520 0 520 -370v-520q0 -140 160 -140v-20h-640v20q160 0 160 140v500q0 370 -200 370q-104 0 -204 -74q4 -36 4 -76z" />
<glyph unicode="&#xf2;" d="M40 0zM740 1200h-60l-239 242q-26 27 -60 43q-31 15 -41 15v20h260q10 0 22 -16q24 -30 98 -244zM600 10q152 0 196 106q44 108 44 404t-44 404q-44 106 -196 106q-172 0 -210 -132q-30 -106 -30 -378t30 -378q38 -132 210 -132zM600 -10q-270 0 -416 138 q-144 138 -144 392q0 252 146 392q146 138 414 138t414 -138q146 -140 146 -392q0 -254 -144 -392q-146 -138 -416 -138z" />
<glyph unicode="&#xf3;" d="M40 0zM476 1200l20 60q74 214 98 244q12 16 22 16h260v-20q-10 0 -41 -15q-34 -16 -60 -43l-239 -242h-60zM600 10q152 0 196 106q44 108 44 404t-44 404q-44 106 -196 106q-172 0 -210 -132q-30 -106 -30 -378t30 -378q38 -132 210 -132zM600 -10q-270 0 -416 138 q-144 138 -144 392q0 252 146 392q146 138 414 138t414 -138q146 -140 146 -392q0 -254 -144 -392q-146 -138 -416 -138z" />
<glyph unicode="&#xf4;" d="M40 0zM600 1440q-28 0 -94 -52l-236 -188h-30l200 320h320l200 -320h-30l-234 188q-66 52 -96 52zM600 10q152 0 196 106q44 108 44 404t-44 404q-44 106 -196 106q-172 0 -210 -132q-30 -106 -30 -378t30 -378q38 -132 210 -132zM600 -10q-270 0 -416 138 q-144 138 -144 392q0 252 146 392q146 138 414 138t414 -138q146 -140 146 -392q0 -254 -144 -392q-146 -138 -416 -138z" />
<glyph unicode="&#xf5;" d="M40 0zM586 1480l134 -100q49 -32 82 -32q104 0 104 96q0 20 -8 42l18 8q22 -58 22 -106q0 -188 -212 -188q-60 0 -116 36l-134 100q-51 34 -104 34q-82 0 -82 -98q0 -18 8 -42l-18 -8q-22 60 -22 108q0 190 196 190q78 0 132 -40zM600 10q152 0 196 106q44 108 44 404 t-44 404q-44 106 -196 106q-172 0 -210 -132q-30 -106 -30 -378t30 -378q38 -132 210 -132zM600 -10q-270 0 -416 138q-144 138 -144 392q0 252 146 392q146 138 414 138t414 -138q146 -140 146 -392q0 -254 -144 -392q-146 -138 -416 -138z" />
<glyph unicode="&#xf6;" d="M40 0zM680 1360q0 66 47 113t113 47t113 -47t47 -113t-47 -113t-113 -47t-113 47t-47 113zM200 1360q0 66 47 113t113 47t113 -47t47 -113t-47 -113t-113 -47t-113 47t-47 113zM600 10q152 0 196 106q44 108 44 404t-44 404q-44 106 -196 106q-172 0 -210 -132 q-30 -106 -30 -378t30 -378q38 -132 210 -132zM600 -10q-270 0 -416 138q-144 138 -144 392q0 252 146 392q146 138 414 138t414 -138q146 -140 146 -392q0 -254 -144 -392q-146 -138 -416 -138z" />
<glyph unicode="&#xf7;" horiz-adv-x="1050" d="M340 1040q0 66 47 113t113 47t113 -47t47 -113t-47 -113t-113 -47t-113 47t-47 113zM340 240q0 66 47 113t113 47t113 -47t47 -113t-47 -113t-113 -47t-113 47t-47 113zM960 600h-880l10 100h880z" />
<glyph unicode="&#xf8;" d="M600 1030q-184 0 -228 -202q-12 -56 -12 -308l4 -226l470 478q-24 258 -234 258zM88 -18l-16 16l122 122q-154 136 -154 400q0 252 146 391t414 139q244 0 390 -118l122 126l16 -16l-122 -122q154 -142 154 -400q0 -254 -145 -392t-415 -138q-248 0 -392 116zM836 746 l-470 -478q12 -136 62 -197t172 -61q192 0 220 158q20 124 20 352z" />
<glyph unicode="&#xf9;" horiz-adv-x="1380" d="M0 0zM780 1200h-60l-239 242q-26 27 -60 43q-31 15 -41 15v20h260q10 0 22 -16q24 -30 98 -244zM1180 880v-720q0 -140 160 -140v-20h-400q-18 0 -43 31t-29 31q-108 -72 -208 -72q-520 0 -520 370v520q0 140 -160 140v20h400q80 0 80 -160v-660q0 -210 200 -210 q104 0 204 74q-4 36 -4 76v720q0 140 -160 140v20h400q80 0 80 -160z" />
<glyph unicode="&#xfa;" horiz-adv-x="1380" d="M0 0zM540 1200l20 60q74 214 98 244q12 16 22 16h260v-20q-10 0 -41 -15q-34 -16 -60 -43l-239 -242h-60zM1180 880v-720q0 -140 160 -140v-20h-400q-18 0 -43 31t-29 31q-108 -72 -208 -72q-520 0 -520 370v520q0 140 -160 140v20h400q80 0 80 -160v-660 q0 -210 200 -210q104 0 204 74q-4 36 -4 76v720q0 140 -160 140v20h400q80 0 80 -160z" />
<glyph unicode="&#xfb;" horiz-adv-x="1380" d="M0 0zM660 1440q-28 0 -94 -52l-236 -188h-30l200 320h320l200 -320h-30l-234 188q-66 52 -96 52zM1180 880v-720q0 -140 160 -140v-20h-400q-18 0 -43 31t-29 31q-108 -72 -208 -72q-520 0 -520 370v520q0 140 -160 140v20h400q80 0 80 -160v-660q0 -210 200 -210 q104 0 204 74q-4 36 -4 76v720q0 140 -160 140v20h400q80 0 80 -160z" />
<glyph unicode="&#xfc;" horiz-adv-x="1380" d="M0 0zM720 1360q0 66 47 113t113 47t113 -47t47 -113t-47 -113t-113 -47t-113 47t-47 113zM240 1360q0 66 47 113t113 47t113 -47t47 -113t-47 -113t-113 -47t-113 47t-47 113zM1180 880v-720q0 -140 160 -140v-20h-400q-18 0 -43 31t-29 31q-108 -72 -208 -72 q-520 0 -520 370v520q0 140 -160 140v20h400q80 0 80 -160v-660q0 -210 200 -210q104 0 204 74q-4 36 -4 76v720q0 140 -160 140v20h400q80 0 80 -160z" />
<glyph unicode="&#xfd;" horiz-adv-x="1140" d="M0 0zM460 1200l20 60q74 214 98 244q12 16 22 16h260v-20q-10 0 -41 -15q-34 -16 -60 -43l-239 -242h-60zM482 892l232 -570l230 570q14 35 14 64q0 64 -118 64v20h260v-20q-86 -2 -136 -136l-238 -592l-112 -282l-114 -282q-70 -148 -172 -148q-66 0 -113 47t-47 113 t46 113t112 47q61 0 110 -42q42 -36 64 -36q16 0 22 16l64 162h-40q-43 0 -54 22q-2 4 -48 126l-296 736q-39 97 -72 118q-28 18 -96 18v20h380q68 0 122 -148z" />
<glyph unicode="&#xfe;" horiz-adv-x="1220" d="M460 983q104 67 200 67q236 0 378 -141t142 -389t-141 -388t-379 -140q-100 0 -200 66v-298q0 -140 160 -140v-20h-640v20q160 0 160 140v1600q0 140 -160 140v20h400q80 0 80 -160v-377zM460 959v-875q98 -72 200 -72q130 0 176 114q24 64 24 394q0 340 -24 396 q-48 114 -176 114q-102 0 -200 -71z" />
<glyph unicode="&#xff;" horiz-adv-x="1140" d="M0 0zM660 1360q0 66 47 113t113 47t113 -47t47 -113t-47 -113t-113 -47t-113 47t-47 113zM180 1360q0 66 47 113t113 47t113 -47t47 -113t-47 -113t-113 -47t-113 47t-47 113zM482 892l232 -570l230 570q14 35 14 64q0 64 -118 64v20h260v-20q-86 -2 -136 -136l-238 -592 l-112 -282l-114 -282q-70 -148 -172 -148q-66 0 -113 47t-47 113t46 113t112 47q61 0 110 -42q42 -36 64 -36q16 0 22 16l64 162h-40q-43 0 -54 22q-2 4 -48 126l-296 736q-39 97 -72 118q-28 18 -96 18v20h380q68 0 122 -148z" />
<glyph unicode="&#x131;" horiz-adv-x="720" d="M40 1040h400q22 0 32 -3t24 -17t19 -48t5 -92v-720q0 -50 12 -81t40 -42t48 -14t60 -3v-20h-640v20q40 0 60 3t48 14t40 42t12 81v720q0 50 -12 81t-40 42t-48 14t-60 3v20z" />
<glyph unicode="&#x152;" horiz-adv-x="1900" d="M620 1360h1200v-300h-20q-18 280 -250 280h-370v-560h178q140 0 140 160h20v-340h-20q0 160 -140 160h-178v-740h390q232 0 250 280h20v-300h-1220q-260 0 -430 201t-170 479t168 479t432 201zM620 1340q-144 0 -212 -136q-68 -138 -68 -524t68 -524q68 -136 212 -136 q154 0 212 136q28 66 28 524q0 467 -28 524q-68 136 -212 136z" />
<glyph unicode="&#x153;" horiz-adv-x="2000" d="M1160 540h480q0 304 -30 368q-56 122 -210 122q-152 0 -196 -102q-44 -106 -44 -388zM600 1030q-172 0 -210 -132q-30 -106 -30 -378q0 -354 40 -410q74 -100 200 -100t200 100q40 56 40 410q0 296 -44 404q-44 106 -196 106zM600 -10q-270 0 -416 138q-144 138 -144 392 q0 252 146 392q146 138 414 138q255 0 400 -125q145 125 400 125q268 0 414 -138q146 -140 146 -392h-800q0 -354 40 -410q74 -100 200 -100q150 0 282 74t210 194l16 -10q-80 -126 -216 -202t-292 -76q-256 0 -400 124q-144 -124 -400 -124z" />
<glyph unicode="&#x178;" horiz-adv-x="1338" d="M20 0zM789 1600q0 66 47 113t113 47t113 -47t47 -113t-47 -113t-113 -47t-113 47t-47 113zM309 1600q0 66 47 113t113 47t113 -47t47 -113t-47 -113t-113 -47t-113 47t-47 113zM560 1212l280 -554l272 554q18 36 18 62q0 66 -152 66v20h340v-20q-84 0 -124 -40 q-28 -28 -62 -96l-270 -546l2 -498q0 -140 160 -140v-20h-640v20q160 0 160 140l-2 380l-336 664q-66 136 -186 136v20h398q76 0 142 -148z" />
<glyph unicode="&#x2c6;" horiz-adv-x="1360" d="M680 1440q-28 0 -94 -52l-236 -188h-30l200 320h320l200 -320h-30l-234 188q-66 52 -96 52z" />
<glyph unicode="&#x2da;" horiz-adv-x="880" d="M440 1520q74 0 137 -61t63 -139t-63 -139t-137 -61t-137 62t-63 138q0 78 63 139t137 61zM440 1500q-100 0 -100 -180t100 -180t100 180t-100 180z" />
<glyph unicode="&#x2dc;" horiz-adv-x="984" d="M426 1480l134 -100q49 -32 82 -32q104 0 104 96q0 20 -8 42l18 8q22 -58 22 -106q0 -188 -212 -188q-60 0 -116 36l-134 100q-51 34 -104 34q-82 0 -82 -98q0 -18 8 -42l-18 -8q-22 60 -22 108q0 190 196 190q78 0 132 -40z" />
<glyph unicode="&#x2000;" horiz-adv-x="883" />
<glyph unicode="&#x2001;" horiz-adv-x="1766" />
<glyph unicode="&#x2002;" horiz-adv-x="883" />
<glyph unicode="&#x2003;" horiz-adv-x="1766" />
<glyph unicode="&#x2004;" horiz-adv-x="588" />
<glyph unicode="&#x2005;" horiz-adv-x="441" />
<glyph unicode="&#x2006;" horiz-adv-x="294" />
<glyph unicode="&#x2007;" horiz-adv-x="294" />
<glyph unicode="&#x2008;" horiz-adv-x="220" />
<glyph unicode="&#x2009;" horiz-adv-x="353" />
<glyph unicode="&#x200a;" horiz-adv-x="98" />
<glyph unicode="&#x2010;" horiz-adv-x="1010" d="M940 780h-880l10 80h880z" />
<glyph unicode="&#x2011;" horiz-adv-x="1010" d="M940 780h-880l10 80h880z" />
<glyph unicode="&#x2012;" horiz-adv-x="1010" d="M940 780h-880l10 80h880z" />
<glyph unicode="&#x2013;" horiz-adv-x="1144" d="M1072 780h-1012l12 80h1012z" />
<glyph unicode="&#x2014;" horiz-adv-x="2168" d="M2085 780h-2025l23 80h2025z" />
<glyph unicode="&#x2018;" horiz-adv-x="400" d="M40 1016zM360 1176q0 -66 -47 -113t-113 -47t-113 47t-47 113q0 148 77 246t157 98v-20q-44 0 -84 -43t-40 -81q0 -40 50 -40q66 0 113 -47t47 -113z" />
<glyph unicode="&#x2019;" horiz-adv-x="400" d="M40 1016zM40 1360q0 66 47 113t113 47t113 -47t47 -113q0 -148 -77 -246t-157 -98v20q44 0 84 43t40 81q0 40 -50 40q-66 0 -113 47t-47 113z" />
<glyph unicode="&#x201a;" horiz-adv-x="400" d="M40 0zM40 20q0 66 47 113t113 47t113 -47t47 -113q0 -148 -77 -246t-157 -98v20q44 0 84 43t40 81q0 40 -50 40q-66 0 -113 47t-47 113z" />
<glyph unicode="&#x201c;" horiz-adv-x="760" d="M40 1016zM720 1176q0 -66 -47 -113t-113 -47t-113 47t-47 113q0 148 77 246t157 98v-20q-44 0 -84 -43t-40 -81q0 -40 50 -40q66 0 113 -47t47 -113zM360 1176q0 -66 -47 -113t-113 -47t-113 47t-47 113q0 148 77 246t157 98v-20q-44 0 -84 -43t-40 -81q0 -40 50 -40 q66 0 113 -47t47 -113z" />
<glyph unicode="&#x201d;" horiz-adv-x="760" d="M40 1016zM400 1360q0 66 47 113t113 47t113 -47t47 -113q0 -148 -77 -246t-157 -98v20q44 0 84 43t40 81q0 40 -50 40q-66 0 -113 47t-47 113zM40 1360q0 66 47 113t113 47t113 -47t47 -113q0 -148 -77 -246t-157 -98v20q44 0 84 43t40 81q0 40 -50 40q-66 0 -113 47 t-47 113z" />
<glyph unicode="&#x201e;" horiz-adv-x="760" d="M40 0zM400 20q0 66 47 113t113 47t113 -47t47 -113q0 -148 -77 -246t-157 -98v20q44 0 84 43t40 81q0 40 -50 40q-66 0 -113 47t-47 113zM40 20q0 66 47 113t113 47t113 -47t47 -113q0 -148 -77 -246t-157 -98v20q44 0 84 43t40 81q0 40 -50 40q-66 0 -113 47t-47 113z " />
<glyph unicode="&#x2026;" horiz-adv-x="1280" d="M880 120q0 66 47 113t113 47t113 -47t47 -113t-47 -113t-113 -47t-113 47t-47 113zM480 120q0 66 47 113t113 47t113 -47t47 -113t-47 -113t-113 -47t-113 47t-47 113zM80 120q0 66 47 113t113 47t113 -47t47 -113t-47 -113t-113 -47t-113 47t-47 113z" />
<glyph unicode="&#x202f;" horiz-adv-x="353" />
<glyph unicode="&#x205f;" horiz-adv-x="441" />
<glyph unicode="&#x20ac;" horiz-adv-x="1180" d="M804 1350q-168 0 -240 -210q-32 -92 -40 -290h446l-30 -80h-420v-90v-70h420l-30 -80h-386q8 -182 38 -306q52 -214 236 -214q156 0 322 142v-26q-166 -136 -322 -136q-266 0 -432 200q-122 146 -154 340h-182l30 80h142q-2 34 -2 70q0 46 4 90h-144l30 80h126 q36 178 152 318q168 202 434 202q104 0 218 -78q30 -22 44 -22q16 0 27 29t11 61h20l18 -308h-20q0 32 -15 76t-50 97t-111 89t-140 36z" />
<glyph unicode="&#xe000;" horiz-adv-x="1040" d="M0 1040h1040v-1040h-1040v1040z" />
<glyph unicode="&#xfb01;" horiz-adv-x="1440" d="M720 1520l361 1l-1 -1q66 0 113 -47t47 -113t-47 -113t-113 -47t-113 47t-47 113t47 113q12 12 12 19t-17 8h-242q-200 0 -200 -230v-230h640q80 0 80 -160v-720q0 -140 160 -140v-20h-640v20q160 0 160 140v720q0 140 -160 140h-240v-860q0 -140 160 -140v-20h-640v20 q160 0 160 140v860h-160v20h160q0 479 520 480z" />
<glyph unicode="&#xfb02;" horiz-adv-x="1440" d="M520 1040h180v-20h-180v-860q0 -140 160 -140v-20h-640v20q160 0 160 140v860h-160v20h160q9 480 460 480h20v-20h-20q-140 0 -140 -204v-256zM760 1520h400q80 0 80 -160v-1200q0 -140 160 -140v-20h-640v20q160 0 160 140v1200q0 140 -160 140v20z" />
<glyph unicode="&#xfb03;" horiz-adv-x="2160" d="M1440 1520l361 1l-1 -1q66 0 113 -47t47 -113t-47 -113t-113 -47t-113 47t-47 113t47 113q12 12 12 19t-17 8h-242q-200 0 -200 -230v-230h640q80 0 80 -160v-720q0 -140 160 -140v-20h-640v20q160 0 160 140v720q0 140 -160 140h-240v-860q0 -140 160 -140v-20h-640v20 q160 0 160 140v860h-400v-860q0 -140 160 -140v-20h-640v20q160 0 160 140v860h-160v20h160q0 479 520 480l401 1l-10 -21h-391q-200 0 -200 -230v-230h400q0 479 520 480z" />
<glyph unicode="&#xfb04;" horiz-adv-x="2160" d="M1480 1520h400q80 0 80 -160v-1200q0 -140 160 -140v-20h-640v20q160 0 160 140v1200q0 140 -160 140v20zM920 1040q9 480 460 480h20v-20h-20q-140 0 -140 -204v-256h180v-20h-180v-860q0 -140 160 -140v-20h-640v20q160 0 160 140v860h-400v-860q0 -140 160 -140v-20 h-640v20q160 0 160 140v860h-160v20h160q0 479 520 480l401 1l-10 -21h-391q-200 0 -200 -230v-230h400z" />
<glyph horiz-adv-x="1794" d="M0 0z" />
</font>
</defs>
</svg>
