<?xml version="1.0" standalone="no"?>
<!DOCTYPE svg PUBLIC "-//W3C//DTD SVG 1.1//EN" "http://www.w3.org/Graphics/SVG/1.1/DTD/svg11.dtd" >
<svg xmlns="http://www.w3.org/2000/svg">
<metadata></metadata>
<defs>
<font id="college_condensedregular" horiz-adv-x="800" >
<font-face units-per-em="2048" ascent="1700" descent="-348" />
<missing-glyph horiz-adv-x="600" />
<glyph horiz-adv-x="2048" />
<glyph horiz-adv-x="2048" />
<glyph unicode="&#xd;" horiz-adv-x="600" />
<glyph unicode=" "  horiz-adv-x="600" />
<glyph unicode="&#x09;" horiz-adv-x="600" />
<glyph unicode="&#xa0;" horiz-adv-x="600" />
<glyph unicode="!" horiz-adv-x="400" d="M100 0v200h200v-200h-200zM150 400l-50 500v500h200v-500l-50 -500h-100z" />
<glyph unicode="&#x22;" horiz-adv-x="700" d="M400 1200v200h200v-200l-100 -200h-100l100 200h-100zM100 1200v200h200v-200l-100 -200h-100l100 200h-100z" />
<glyph unicode="#" horiz-adv-x="900" d="M200 200v200h-100v200l100 8v192h-100v200h100v200h200v-200h100v200h200v-200h100v-200h-100v-200h100v-200h-100v-200h-200v200h-100v-200h-200zM400 600h100v200h-100v-200z" />
<glyph unicode="$" d="M300 0v200h-40l-160 160v140h200v-100h200v200h-240l-160 160v280l160 160h40v200h200v-200h40l160 -160v-140h-200v100h-200v-200h240l160 -160v-280l-160 -156l-40 -4v-200h-200z" />
<glyph unicode="'" horiz-adv-x="400" d="M100 1200v200h200v-200l-100 -200h-100l100 200h-100z" />
<glyph unicode="+" d="M300 400v200h-200v200h200v252h200v-252h200v-200h-200v-200h-200z" />
<glyph unicode="," horiz-adv-x="400" d="M100 0v200h200v-200l-100 -200h-100l100 200h-100z" />
<glyph unicode="-" d="M100 600v200h600v-200h-600z" />
<glyph unicode="." horiz-adv-x="400" d="M100 0v200h200v-200h-200z" />
<glyph unicode="0" d="M260 0l-160 160v1080l160 160h280l160 -160v-1080l-160 -160h-280zM300 200h200v1000h-200v-1000z" />
<glyph unicode="1" d="M100 0v200h200v852h-148v148l148 200h200v-1200h200v-200h-600z" />
<glyph unicode="2" d="M100 0v640l160 160h240v400h-200v-100h-200v140l160 160h280l160 -160v-480l-160 -160h-240v-400h200v100h200v-300h-600z" />
<glyph unicode="3" d="M100 1100v140l160 160h280l160 -160v-480l-60 -60l60 -60v-480l-160 -160h-280l-160 160v140h200v-100h200v400h-100v200h100v400h-200v-100h-200z" />
<glyph unicode="4" d="M300 0v200h100v200h-300v200l300 800h196v-800h104v-200h-100v-200h100v-200h-400zM300 600h100v267z" />
<glyph unicode="5" d="M100 1400h600v-200h-400v-400h240l160 -160v-480l-160 -160h-280l-160 160v140h200v-100h200v400h-240l-160 160v640z" />
<glyph unicode="6" d="M700 1100h-200v100h-200v-400h240l160 -160v-480l-160 -160h-280l-160 160v1080l160 160h280l160 -160v-140zM300 200h200v400h-200v-400z" />
<glyph unicode="7" d="M100 0v200h100l300 1000h-200v-100h-200v300h600v-200l-300 -1000h100v-200h-400z" />
<glyph unicode="8" d="M700 760l-60 -60l60 -60v-480l-160 -160h-280l-160 160v480l60 60l-60 60v480l160 160h280l160 -160v-480zM300 800h200v400h-200v-400zM300 200h200v400h-200v-400z" />
<glyph unicode="9" d="M100 300h200v-100h200v400h-240l-160 160v480l160 160h280l160 -160v-1080l-160 -160h-280l-160 160v140zM500 1200h-200v-400h200v400z" />
<glyph unicode=":" horiz-adv-x="400" d="M100 0v200h200v-200h-200zM100 600v200h200v-200h-200z" />
<glyph unicode=";" horiz-adv-x="400" d="M100 600v200h200v-200h-200zM100 0v200h200v-200l-100 -200h-100l100 200h-100z" />
<glyph unicode="=" d="M100 800v200h600v-200h-600zM100 400v200h600v-200h-600z" />
<glyph unicode="?" d="M100 1000v240l160 160h280l160 -160v-480l-160 -160h-40v-200h-200v240l160 160h40v400h-200v-200h-200zM300 200h200v-200h-200v200z" />
<glyph unicode="A" horiz-adv-x="1000" d="M100 0v200h100l200 1200h200l200 -1200h100v-200h-380v200h80l-34 200h-133l-33 -200h80v-200h-380zM500 800l-34 -200h67z" />
<glyph unicode="B" horiz-adv-x="900" d="M100 0v200h100v1000h-100v200h540l160 -160v-480l-60 -60l60 -60v-480l-160 -160h-540zM400 800h200v400h-200v-400zM400 200h200v400h-200v-400z" />
<glyph unicode="C" d="M260 0l-160 160v1080l160 160h280l160 -160v-240h-200v200h-200v-1000h200v200h200v-240l-160 -160h-280z" />
<glyph unicode="D" horiz-adv-x="900" d="M100 0v200h100v1000h-100v200h540l160 -160v-1080l-160 -160h-540zM400 200h200v1000h-200v-1000z" />
<glyph unicode="E" horiz-adv-x="900" d="M100 0v200h100v1000h-100v200h700v-300h-200v100h-200v-400h300v-200h-300v-400h200v100h200v-300h-700z" />
<glyph unicode="F" horiz-adv-x="900" d="M100 0v200h100v1000h-100v200h700v-300h-200v100h-200v-400h250v-200h-250v-400h100v-200h-400z" />
<glyph unicode="G" d="M260 0l-160 160v1080l160 160h280l160 -160v-240h-200v200h-200v-1000h200v400h-100v200h300v-640l-160 -160h-280z" />
<glyph unicode="H" horiz-adv-x="1000" d="M100 0v200h100v1000h-100v200h380v-200h-80v-400h200v400h-80v200h380v-200h-100v-1000h100v-200h-380v200h80v400h-200v-400h80v-200h-380z" />
<glyph unicode="I" horiz-adv-x="600" d="M100 0v200h100v1000h-100v200h400v-200h-100v-1000h100v-200h-400z" />
<glyph unicode="J" horiz-adv-x="900" d="M300 400v-200h200v1000h-100v200h400v-200h-100v-1040l-160 -160h-280l-160 160v240h200z" />
<glyph unicode="K" horiz-adv-x="1080" d="M100 0v200h100v1000h-100v200h400v-200h-100v-468l280 468h-100v200h400v-200h-100l-240 -440l240 -560h100v-200h-400v200h100l-152 360l-128 -196v-164h100v-200h-400z" />
<glyph unicode="L" horiz-adv-x="900" d="M100 0v200h100v1000h-100v200h400v-200h-100v-1000h200v100h200v-300h-700z" />
<glyph unicode="M" horiz-adv-x="1300" d="M100 0v200h100v1000h-100v200h300l250 -760l250 760h300v-200h-100v-1000h100v-200h-400v200h100v560l-250 -760l-250 764v-564h100v-200h-400z" />
<glyph unicode="N" horiz-adv-x="1100" d="M100 0v200h100v1000h-100v200h300l300 -800v600h-100v200h400v-200h-100v-1200h-200l-300 800v-600h100v-200h-400z" />
<glyph unicode="O" d="M260 0l-160 160v1080l160 160h280l160 -160v-1080l-160 -160h-280zM300 200h200v1000h-200v-1000z" />
<glyph unicode="P" horiz-adv-x="900" d="M100 0v200h100v1000h-100v200h540l160 -160v-480l-160 -160h-240v-400h100v-200h-400zM400 800h200v400h-200v-400z" />
<glyph unicode="Q" d="M260 0l-160 160v1080l160 160h280l160 -160v-1080l-160 -160h-40v-100h-200v100h-40zM300 200h200v1000h-200v-1000z" />
<glyph unicode="R" horiz-adv-x="1000" d="M100 0v200h100v1000h-100v200h540l160 -160v-480l-60 -60l60 -60v-440h100v-200h-380v200h80v400h-200v-400h80v-200h-380zM400 800h200v400h-200v-400z" />
<glyph unicode="S" d="M100 300h200v-100h200v400h-240l-160 160v480l160 160h280l160 -160v-140h-200v100h-200v-400h240l160 -160v-480l-160 -160h-280l-160 160v140z" />
<glyph unicode="T" horiz-adv-x="1000" d="M300 0v200h96v1000h-96v-100h-200v300h800v-300h-200v100h-100v-1000h100v-200h-400z" />
<glyph unicode="U" horiz-adv-x="1000" d="M100 1400h380v-200h-80v-1000h200v1000h-80v200h380v-200h-100v-1040l-160 -160h-280l-160 160v1040h-100v200z" />
<glyph unicode="V" horiz-adv-x="1000" d="M100 1400h380v-200h-80l96 -596l104 596h-80v200h380v-200h-100l-200 -1200h-200l-200 1200h-100v200z" />
<glyph unicode="W" horiz-adv-x="1400" d="M100 1200v200h400v-200h-100l120 -600l180 420l180 -420l120 600h-100v200h400v-200h-100l-200 -1000h100v-200h-380v200h80l-100 300l-100 -300h80v-200h-380v200h100l-200 1000h-100z" />
<glyph unicode="X" horiz-adv-x="1000" d="M100 1200v200h380v-200h-80l100 -250l100 250h-80v200h380v-200h-100l-200 -500l200 -500h100v-200h-380v200h80l-100 250l-100 -250h80v-200h-380v200h100l200 500l-200 500h-100z" />
<glyph unicode="Y" horiz-adv-x="1000" d="M100 1200v200h380v-200h-80l100 -250l100 250h-80v200h380v-200h-100l-200 -500v-500h100v-200h-400v200h100v500l-200 500h-100z" />
<glyph unicode="Z" horiz-adv-x="1000" d="M100 1100v300h800v-200l-540 -1000h340v100h200v-300h-800v200l540 1000h-340v-100h-200z" />
<glyph unicode="a" horiz-adv-x="900" d="M100 0l250 1400h200l250 -1400h-200l-71 399l-158 1l-71 -400h-200zM450 840l-43 -240h86z" />
<glyph unicode="b" d="M100 0v1400h440l160 -160v-480l-60 -60l60 -60v-480l-160 -160h-440zM300 800h200v400h-200v-400zM300 200h200v400h-200v-400z" />
<glyph unicode="c" d="M260 0l-160 160v1080l160 160h280l160 -160v-240h-200v200h-200v-1000h200v200h200v-240l-160 -160h-280z" />
<glyph unicode="d" d="M100 0v1400h440l160 -160v-1080l-160 -160h-440zM300 200h200v1000h-200v-1000z" />
<glyph unicode="e" d="M100 0v1400h600v-200h-400v-400h250v-200h-250v-400h400v-200h-600z" />
<glyph unicode="f" d="M100 0v1400h600v-200h-400v-400h250v-200h-250v-600h-200z" />
<glyph unicode="g" d="M260 0l-160 160v1080l160 160h280l160 -160v-240h-200v200h-200v-1000h200v400h-100v200h300v-640l-160 -160h-280z" />
<glyph unicode="h" d="M100 0v1400h200v-600h200v600h200v-1400h-200v600h-200v-600h-200z" />
<glyph unicode="i" horiz-adv-x="400" d="M100 0v1400h200v-1400h-200z" />
<glyph unicode="j" d="M300 400v-200h200v1200h200v-1240l-160 -160h-280l-160 160v240h200z" />
<glyph unicode="k" horiz-adv-x="1000" d="M100 0v1400h200v-552l352 552h248l-360 -560l360 -840h-200l-288 692l-112 -160v-532h-200z" />
<glyph unicode="l" d="M100 0v1400h200v-1200h400v-200h-600z" />
<glyph unicode="m" horiz-adv-x="1100" d="M100 0v1400h200l250 -800l250 800h200v-1400h-200v800l-250 -800l-250 800v-800h-200z" />
<glyph unicode="n" horiz-adv-x="900" d="M100 0v1400h200l300 -800v800h200v-1400h-200l-300 800v-800h-200z" />
<glyph unicode="o" d="M260 0l-160 160v1080l160 160h280l160 -160v-1080l-160 -160h-280zM300 200h200v1000h-200v-1000z" />
<glyph unicode="p" d="M100 0v1400h440l160 -160v-480l-160 -160h-240v-600h-200zM300 800h200v400h-200v-400z" />
<glyph unicode="q" d="M260 0l-160 160v1080l160 160h280l160 -160v-1080l-160 -160h-40v-100h-200v100h-40zM300 200h200v1000h-200v-1000z" />
<glyph unicode="r" d="M100 0v1400h440l160 -160v-480l-60 -60l60 -60v-640h-200v600h-200v-600h-200zM300 800h200v400h-200v-400z" />
<glyph unicode="s" d="M100 300h200v-100h200v400h-240l-160 160v480l160 160h280l160 -160v-140h-200v100h-200v-400h240l160 -160v-480l-160 -160h-280l-160 160v140z" />
<glyph unicode="t" d="M300 0v1200h-200v200h600v-200h-200v-1200h-200z" />
<glyph unicode="u" d="M100 1400h200v-1200h200v1200h200v-1240l-160 -160h-280l-160 160v1240z" />
<glyph unicode="v" horiz-adv-x="900" d="M100 1400h200l150 -840l150 840h200l-250 -1400h-200z" />
<glyph unicode="w" horiz-adv-x="1300" d="M100 1400h200l140 -772l110 572h200l110 -572l140 772h200l-250 -1400h-200l-100 568l-100 -568h-200z" />
<glyph unicode="x" horiz-adv-x="1000" d="M100 1400h200l200 -467l200 467h200l-300 -700l300 -700h-200l-200 467l-200 -467h-200l300 700z" />
<glyph unicode="y" horiz-adv-x="1000" d="M100 1400h200l200 -467l200 467h200l-300 -700v-700h-200v700z" />
<glyph unicode="z" d="M100 1200v200h600v-200l-340 -1000h340v-200h-600v200l340 1000h-340z" />
<glyph unicode="&#xad;" d="M100 600v200h600v-200h-600z" />
<glyph unicode="&#x2000;" horiz-adv-x="700" />
<glyph unicode="&#x2001;" horiz-adv-x="1400" />
<glyph unicode="&#x2002;" horiz-adv-x="700" />
<glyph unicode="&#x2003;" horiz-adv-x="1400" />
<glyph unicode="&#x2004;" horiz-adv-x="466" />
<glyph unicode="&#x2005;" horiz-adv-x="350" />
<glyph unicode="&#x2006;" horiz-adv-x="233" />
<glyph unicode="&#x2007;" horiz-adv-x="233" />
<glyph unicode="&#x2008;" horiz-adv-x="175" />
<glyph unicode="&#x2009;" horiz-adv-x="280" />
<glyph unicode="&#x200a;" horiz-adv-x="77" />
<glyph unicode="&#x2010;" d="M100 600v200h600v-200h-600z" />
<glyph unicode="&#x2011;" d="M100 600v200h600v-200h-600z" />
<glyph unicode="&#x2012;" d="M100 600v200h600v-200h-600z" />
<glyph unicode="&#x2013;" horiz-adv-x="1224" d="M100 600v200h1024v-200h-1024z" />
<glyph unicode="&#x2014;" horiz-adv-x="2248" d="M100 600v200h2048v-200h-2048z" />
<glyph unicode="&#x202f;" horiz-adv-x="280" />
<glyph unicode="&#x205f;" horiz-adv-x="350" />
<glyph unicode="&#xe000;" horiz-adv-x="1400" d="M0 1400h1400v-1400h-1400v1400z" />
</font>
</defs>
</svg>
