<?xml version="1.0" standalone="no"?>
<!DOCTYPE svg PUBLIC "-//W3C//DTD SVG 1.1//EN" "http://www.w3.org/Graphics/SVG/1.1/DTD/svg11.dtd" >
<svg xmlns="http://www.w3.org/2000/svg">
<metadata></metadata>
<defs>
<font id="sf_wasabi_condensedregular" horiz-adv-x="747" >
<font-face units-per-em="2048" ascent="1638" descent="-410" />
<missing-glyph horiz-adv-x="674" />
<glyph horiz-adv-x="2048" />
<glyph horiz-adv-x="2048" />
<glyph unicode="&#xd;" horiz-adv-x="2048" />
<glyph unicode=" "  horiz-adv-x="674" />
<glyph unicode="&#x09;" horiz-adv-x="674" />
<glyph unicode="&#xa0;" horiz-adv-x="674" />
<glyph unicode="!" horiz-adv-x="449" d="M301 1492q0 -27 -3 -61.5t-10 -76.5q-9 -58 -14 -92.5t-7 -46.5q-5 -57 -8.5 -131t-4.5 -167q-1 -120 -1.5 -194.5t-2.5 -105.5q-8 -150 -59 -150q-34 0 -49 146q-12 127 -21 357q-9 240 -9 382q0 243 94 243q21 0 38 -8.5t30 -22.5t20 -32.5t7 -39.5zM337 150 q0 -54 -28 -98q-33 -52 -84 -52q-52 0 -85 51q-28 43 -28 99t28 99q33 50 85 50q51 0 83 -51q29 -44 29 -98z" />
<glyph unicode="&#x22;" horiz-adv-x="749" d="M636 1448q0 -64 -94 -252q-96 -197 -145 -197q-24 0 -24 80q0 77 27 263q12 79 12 106q0 28 8 58q30 91 103 91q52 0 85 -50q28 -43 28 -99zM337 1448q0 -63 -93 -252q-98 -197 -146 -197q-25 0 -25 77q0 34 3.5 75t10.5 92q11 79 16 121t6 47q2 32 12 95q28 91 102 91 q54 0 85 -49q29 -46 29 -100z" />
<glyph unicode="#" horiz-adv-x="1075" d="M964 865q0 -127 -223 -124q-16 -268 -79 -268q-42 0 -42 272q-36 2 -90 5.5t-127 8.5l-15 -165q-20 -125 -66 -125t-42 304q-163 21 -163 74q0 52 61 70q30 10 105 11l5 172q-176 23 -176 76q0 58 68 73q6 2 115 9q15 340 119 340q34 0 59 -31q25 -29 25 -65 q0 -22 -11 -82t-33 -160q51 0 96 3t85 8q7 138 18 195q28 136 100 136q35 0 60 -31q26 -31 26 -65q0 -33 -36 -196q42 12 70 12q43 0 67 -43q20 -38 20 -83q0 -125 -192 -125q-4 -26 -6 -52t-4 -53q79 27 127 27q37 0 60 -48q19 -37 19 -80zM627 1075q-33 2 -82.5 4.5 t-116.5 6.5q-2 -26 -5.5 -64.5t-8.5 -91.5h49q92 0 160 9z" />
<glyph unicode="$" horiz-adv-x="1043" d="M911 1481q0 -43 -19 -78q-23 -44 -60 -44q-44 0 -246 49q-11 -92 -15 -179q-9 -150 -29 -150q-36 0 -50 125q-4 38 -9 95t-11 135q-64 13 -79 20q-49 19 -49 54q0 33 122 38q-3 72 -3 177q0 185 93 185q40 0 67 -32q28 -31 28 -73q0 -28 -19 -120q-26 -116 -27 -129 q95 9 169 36q45 16 56 16q39 0 62 -45q19 -35 19 -80zM301 1492q0 -22 -16 -90q-26 -109 -42 -229.5t-23 -255.5q-6 -150 -29 -150q-35 0 -49 125q-30 274 -30 522q0 183 93 183q38 0 67 -33q29 -34 29 -72zM771 833q0 -38 -21 -68q-23 -36 -60 -36q-4 0 -12 1t-19 3 q-53 10 -131.5 25t-184.5 35q-94 19 -94 66q0 33 111 38q35 1 69 1t68 1q82 5 136 22q49 16 60 16q36 0 59 -36q19 -29 19 -68zM930 108q0 -42 -25 -73q-27 -34 -68 -34q-40 0 -67 34q-26 35 -26 75q0 16 12 73q6 32 11 73t9 92q4 53 7.5 118t5.5 144q4 147 28 147 q32 0 50 -126q20 -146 35 -265.5t25 -215.5q3 -27 3 -42zM715 172q0 -36 -62 -59q-14 -5 -93 -21q7 -114 24 -207q12 -62 12 -74q0 -45 -25 -74q-25 -34 -68 -34q-42 0 -67 33q-25 31 -25 73q0 23 7 86t21 169q-179 -42 -212 -42q-39 0 -61 45q-19 37 -19 79q0 45 19 79 q23 44 63 44q12 0 56 -15q72 -26 173 -37q5 34 9 67t8 65q19 106 48 106q22 0 31 -243q161 -8 161 -40z" />
<glyph unicode="%" horiz-adv-x="1179" d="M975 1416q0 -19 -13 -46t-42 -64q-127 -158 -234 -383q-55 -115 -74 -115q-20 0 -20 40q0 74 72 289q28 84 55.5 156.5t53.5 136.5q50 116 100 116q42 0 74 -45q28 -40 28 -85zM565 1300q0 -63 -48 -63q-12 0 -25 9q-28 63 -61 133t-71 151q-23 41 -23 54t9 13 q25 0 109 -112q37 -48 61 -84t37 -59q12 -23 12 -42zM337 1502q0 -25 -36 -56q-44 -39 -105 -144q-59 -99 -75 -99q-7 0 -7 17q0 21 48 140q83 209 128 209q10 0 18.5 -6.5t15 -16.5t10 -22t3.5 -22zM1066 501q0 -63 -47 -63q-14 0 -24 10q-5 4 -15 25q-18 45 -47.5 109 t-71.5 149q-23 41 -23 57q0 11 9 11q25 0 109 -112q33 -45 57 -80.5t40 -63.5q13 -22 13 -42zM553 1155q0 -13 -25 -63q-11 -23 -23 -54.5t-24 -72.5q-14 -47 -24 -78.5t-17 -48.5q-17 -39 -39 -39t-36 23q-13 20 -13 43q0 26 86 163q85 138 104 138q11 0 11 -11zM839 703 q0 -24 -36 -55q-20 -18 -38.5 -40.5t-35.5 -50.5q-95 -153 -108 -153q-7 0 -7 11q0 21 16 60q114 296 161 296q19 0 35 -25q13 -20 13 -43zM335 864q0 -61 -49 -61q-30 0 -85 120q-16 38 -32 77t-33 77q-24 45 -24 59q0 11 9 11q25 0 92 -97q21 -31 42 -61.5t41 -62.5 q39 -11 39 -62zM1053 356q0 -7 -7 -22.5t-17.5 -39.5t-23 -56t-24.5 -71q-15 -51 -25.5 -82.5t-15.5 -45.5q-14 -39 -38 -39q-21 0 -36 23q-14 22 -14 43q0 22 84 162q86 140 107 140q10 0 10 -12zM835 70q0 -66 -49 -66q-27 0 -67 85l-48 111q-58 131 -58 136q0 11 10 11 q24 0 92 -95q21 -32 42 -62.5t42 -61.5q36 -11 36 -58zM553 749q0 -31 -36 -128q-34 -91 -54 -145.5t-27 -74.5q-22 -64 -37.5 -120t-24.5 -107q-2 -13 -5.5 -31t-10.5 -42q-21 -50 -70 -50q-42 0 -74 41q-29 38 -29 82q0 31 28 80q40 73 101 182t143 255q48 82 75 82 q21 0 21 -24z" />
<glyph unicode="&#x26;" horiz-adv-x="1031" d="M872 1488q0 -134 -146 -134q-40 0 -80.5 4t-82.5 12q-8 -81 -15 -192q-9 -149 -28 -149q-37 0 -50 126q-17 136 -21 249q-150 58 -150 122q0 24 36 24q19 0 108 -20q-3 88 -3 144q0 184 93 184q21 0 38.5 -8.5t30 -23t20 -33.5t7.5 -40q0 -61 -40 -211q45 9 82 18.5 t67 19.5q57 17 69 17q65 0 65 -109zM789 833q0 -37 -21 -68q-24 -36 -59 -36q-12 0 -32 4q-54 10 -132 25t-184 35q-94 19 -94 66q0 30 110 38q35 1 69.5 1.5t69.5 1.5q81 3 135 21q51 16 61 16q34 0 57 -36q20 -31 20 -68zM282 1359q0 -11 -11 -75q-16 -99 -21 -347 q-3 -150 -32 -150q-26 0 -45 126q-10 52 -19.5 103.5t-18.5 104.5q-11 61 -16.5 113t-5.5 96q0 134 85 134q38 0 62 -34q22 -31 22 -71zM917 146q0 -44 -19 -79q-23 -45 -60 -45q-23 0 -87 13t-170 39q2 -31 7 -64.5t12 -68.5q12 -68 12 -76q0 -43 -24 -74q-27 -34 -69 -34 q-40 0 -67 34q-25 31 -25 72q0 39 27 240q-104 24 -104 69q0 33 117 38q5 42 10.5 82t10.5 82q22 135 51 135q24 0 29 -132l3 -161q125 7 209 38q43 15 56 15q39 0 62 -44q19 -34 19 -79zM320 110q0 -45 -25 -74q-25 -34 -68 -34q-40 0 -66 32q-26 34 -26 74q0 26 27 242 l37 293q15 114 48 114q24 0 29 -147q2 -111 18 -328q2 -15 15 -86q11 -55 11 -86z" />
<glyph unicode="'" horiz-adv-x="449" d="M337 1448q0 -63 -93 -252q-98 -197 -146 -197q-25 0 -25 77q0 34 3.5 75t10.5 92q11 79 16 121t6 47q2 32 12 95q28 91 102 91q54 0 85 -49q29 -46 29 -100z" />
<glyph unicode="(" horiz-adv-x="674" d="M562 1404q0 -40 -21 -65q-10 -13 -51 -47q-77 -64 -147 -179l-126 -210q-56 -95 -87 -95q-15 0 -15 27q0 38 98 287q37 95 61.5 155t37.5 86q87 177 154 177q40 0 69 -50q27 -44 27 -86zM557 147q0 -46 -24 -88q-28 -52 -70 -52q-15 0 -29 7q-59 27 -154 260 q-18 48 -48 118t-73 163q-47 86 -47 108q0 30 18 30q48 0 182 -192q43 -63 85 -124t84 -123q76 -36 76 -107z" />
<glyph unicode=")" horiz-adv-x="682" d="M569 1003q0 -48 -25 -86q-27 -44 -72 -44q-22 0 -44 17q-21 16 -81 162q-57 139 -103.5 240.5t-84.5 167.5q-47 83 -47 108q0 29 18 29q48 0 216 -226q134 -178 197 -287q26 -44 26 -81zM543 711q0 -25 -49 -124q-67 -135 -165 -481q-4 -11 -10 -28t-15 -40 q-20 -38 -58 -38q-47 0 -77 43q-27 37 -27 87q0 36 36 89q23 34 55.5 90.5t74.5 136.5q153 289 215 289q20 0 20 -24z" />
<glyph unicode="*" horiz-adv-x="844" d="M732 943q0 -74 -59 -74q-28 0 -121 90q-81 80 -110 120q18 -99 18 -196q0 -20 11 -66q11 -44 11 -64q0 -82 -58 -82t-58 84q0 212 28 328q-23 -32 -79 -85t-78 -81q-8 -13 -30 -40q-16 -14 -36 -14q-57 0 -57 74q0 50 49 84q126 89 211 117q-26 11 -49 23t-42 23 q-15 11 -39 24.5t-57 30.5q-7 1 -16.5 4.5t-23.5 8.5q-35 20 -35 77q0 73 57 73q28 0 121 -90q40 -39 67 -69t43 -52q-8 45 -12.5 93.5t-4.5 101.5q0 22 -12 64q-11 46 -11 66q0 81 57 81q59 0 59 -81q0 -214 -28 -327q55 52 157 166q41 53 68 53q24 0 41 -27q14 -23 14 -51 q0 -50 -51 -84q-36 -25 -61 -41t-39 -24q-59 -35 -108 -51q28 -11 50.5 -22t40.5 -22q29 -20 94 -55q15 -5 42 -15q36 -21 36 -73z" />
<glyph unicode="+" d="M635 835q0 -104 -88 -104q-29 0 -117 18q1 -11 4.5 -30t8.5 -47q9 -48 9 -77q0 -41 -19 -72q-23 -38 -59 -38q-35 0 -58 38q-20 34 -20 70q0 6 4.5 50t12.5 128q-54 11 -83.5 16.5t-34.5 7.5q-83 24 -83 64q0 28 94 37l120 3q27 283 68 283q7 0 13 -18q8 -26 12 -91 t5 -168q19 2 37.5 6t35.5 10q48 16 56 16q38 0 61 -33q21 -30 21 -69z" />
<glyph unicode="," horiz-adv-x="449" d="M337 150q0 -63 -93 -250q-97 -196 -146 -196q-25 0 -25 77q0 34 3.5 75t10.5 91q11 76 16 117.5t6 48.5q2 32 12 95q28 91 102 91q54 0 85 -49q29 -46 29 -100z" />
<glyph unicode="-" d="M635 833q0 -37 -22 -68q-24 -36 -59 -36q-11 0 -31 4q-54 10 -132 25t-184 35q-95 21 -95 66q0 30 111 38q36 0 89 3t124 8q15 1 62 17q39 12 62 12q36 0 56 -36q19 -29 19 -68z" />
<glyph unicode="." horiz-adv-x="449" d="M337 150q0 -54 -28 -98q-33 -52 -84 -52q-52 0 -85 51q-28 43 -28 99t28 99q33 50 85 50q51 0 83 -51q29 -44 29 -98z" />
<glyph unicode="/" horiz-adv-x="1016" d="M900 1416q0 -40 -55 -110q-124 -160 -234 -383q-55 -115 -74 -115q-20 0 -20 47q0 66 73 285q31 93 57.5 164.5t49.5 125.5q50 116 102 116q41 0 73 -45q28 -41 28 -85zM478 749q0 -29 -36 -128q-21 -57 -50 -141t-66 -198q-20 -66 -27 -108q-2 -13 -6 -31t-10 -42 q-20 -50 -66 -50t-77 40q-29 37 -29 83q0 30 27 80q60 114 120.5 222.5t122.5 214.5q48 82 76 82q21 0 21 -24z" />
<glyph unicode="0" horiz-adv-x="1054" d="M979 1003q0 -48 -24 -85q-29 -45 -71 -45q-25 0 -45 16t-81 163q-113 273 -189 408q-46 79 -46 108t17 29q49 0 218 -226q69 -93 118.5 -164t78.5 -123q24 -42 24 -81zM525 1404q0 -40 -22 -65q-4 -5 -16.5 -16.5t-34.5 -30.5q-77 -64 -147 -179l-126 -210 q-56 -95 -87 -95q-17 0 -17 26q0 27 101 288q70 181 99 241q87 177 153 177q40 0 70 -49q27 -44 27 -87zM955 711q0 -21 -50 -124q-35 -72 -76.5 -191t-90.5 -290q-3 -11 -9 -28t-14 -40q-21 -38 -59 -38q-46 0 -77 43q-26 38 -26 87q0 36 36 89q23 34 55.5 90.5t74.5 136.5 q153 289 214 289q22 0 22 -24zM519 146q0 -46 -24 -88q-29 -50 -70 -50q-26 0 -52 22q-45 37 -130 244q-18 48 -48.5 118t-73.5 163q-47 86 -47 108q0 30 19 30q46 0 163 -167q37 -56 73.5 -110.5t72.5 -109.5q9 -13 19.5 -25.5t21.5 -26.5q76 -37 76 -108z" />
<glyph unicode="1" horiz-adv-x="414" d="M301 1492q0 -19 -16 -90q-25 -108 -41 -228t-24 -257q-8 -150 -29 -150q-35 0 -49 125q-30 271 -30 520q0 185 93 185q38 0 67 -33q29 -34 29 -72zM302 110q0 -44 -24 -74q-27 -34 -69 -34q-40 0 -68 34q-24 31 -24 72q0 13 4.5 55.5t14.5 115.5l43 352q16 126 50 126 q23 0 28 -147q4 -100 6 -153t2 -61q4 -62 10.5 -115t15.5 -98q11 -61 11 -73z" />
<glyph unicode="2" horiz-adv-x="1043" d="M930 1498q0 -9 -7 -69.5t-21 -172.5l-35 -282q-17 -126 -50 -126q-23 0 -28 149q-1 55 -5 136.5t-12 190.5q-1 9 -5 30.5t-11 55.5q-12 52 -12 86q0 41 26 75q25 34 67 34q21 0 38 -8.5t29.5 -23.5t19 -34.5t6.5 -40.5zM715 1434q0 -33 -111 -37q-83 -3 -246 -24 q-6 -2 -22 -7t-42 -15q-42 -15 -65 -15q-37 0 -61 45q-21 37 -21 78q0 43 19 80q22 45 61 45q19 0 183 -37l210 -47q95 -23 95 -66zM771 773q0 -37 -20 -68q-23 -35 -59 -35q-24 0 -60 13q-23 7 -38 11t-23 6q-16 3 -211 9q-111 3 -111 38q0 44 94 66q87 20 316 60 q11 2 19 3t12 1q39 0 61 -34q20 -32 20 -70zM912 124q0 -41 -20 -79q-24 -45 -62 -45q-14 0 -56 16q-47 16 -123 27q-30 4 -78.5 8t-117.5 8q-111 7 -111 39q0 43 95 66q60 14 150 34t211 46q10 2 18 3t14 1q37 0 60 -45q20 -38 20 -79zM301 114q0 -38 -29 -73 q-29 -33 -67 -33q-93 0 -93 184q0 246 30 521q13 126 49 126q23 0 29 -150q7 -135 23 -255.5t42 -229.5q16 -67 16 -90z" />
<glyph unicode="3" horiz-adv-x="1060" d="M923 1346q0 -92 -21 -218q-10 -54 -19.5 -107.5t-19.5 -107.5q-21 -126 -47 -126q-28 0 -31 150q-2 69 -2.5 112.5t-1.5 61.5q-2 49 -6.5 92t-10.5 81q-5 32 -8 50.5t-3 24.5q0 38 20 70q26 35 62 35q42 0 66 -40q22 -32 22 -78zM682 1348q0 -56 -22 -94q-27 -48 -77 -48 q-14 0 -38 8q-201 72 -349 236q-58 64 -58 106q0 26 19 26q13 0 96 -56q92 -64 318 -88q8 0 19.5 -1.5t27.5 -3.5q28 -6 41 -19q23 -20 23 -66zM768 859q0 -45 -94 -66q-101 -23 -316 -60q-11 -2 -19 -3t-13 -1q-35 0 -60 36q-20 32 -20 68q0 104 83 104q-3 0 57 -17 q19 -6 60 -12q35 -2 87.5 -4.5t123.5 -6.5q111 -8 111 -38zM900 108q0 -42 -25 -73q-28 -34 -68 -34q-41 0 -66 34q-26 35 -26 75q0 16 11.5 74t19.5 161q4 48 7 113.5t6 151.5q4 147 29 147q32 0 50 -126q18 -131 33 -250.5t26 -230.5q3 -27 3 -42zM685 172q0 -43 -95 -66 q-118 -28 -208 -48t-153 -32q-10 -2 -18 -3t-14 -1q-38 0 -60 46q-19 37 -19 79q0 45 19 79q22 43 62 43q11 0 56 -15q43 -16 122 -26.5t196 -17.5q112 -7 112 -38z" />
<glyph unicode="4" horiz-adv-x="1081" d="M967 1488q0 -15 -12 -73q-5 -29 -11 -82.5t-11 -131.5q-4 -52 -6 -104.5t-4 -107.5q-6 -148 -29 -148q-32 0 -49 125q-11 81 -26 201t-34 281q-3 28 -3 42q0 21 7 40t19 34t29 23.5t38 8.5q43 0 68 -34q24 -30 24 -74zM301 1492q0 -22 -16 -90q-52 -217 -65 -485 q-8 -150 -29 -150q-35 0 -49 125q-30 271 -30 522q0 183 93 183q38 0 67 -33q29 -34 29 -72zM966 106q0 -38 -29 -73q-29 -33 -67 -33q-93 0 -93 183q0 250 30 522q13 126 49 126q21 0 29 -150q14 -273 64 -485q17 -77 17 -90zM735 526q0 -43 -22 -81q-26 -45 -65 -45 q-64 0 -357 181q-79 49 -79 88q0 26 34 26q12 0 80 -18q111 -31 325 -31q39 0 65 -42q19 -34 19 -78z" />
<glyph unicode="5" horiz-adv-x="1043" d="M912 1482q0 -41 -20 -79q-23 -44 -60 -44q-18 0 -182 37l-211 46q-95 23 -95 66q0 27 96 38q30 2 60 3t61 3q44 2 79 6t61 11q5 1 21.5 6.5t44.5 15.5q43 15 63 15q38 0 61 -45q21 -38 21 -79zM301 1492q0 -22 -16 -90q-26 -109 -42 -229.5t-23 -255.5q-6 -150 -29 -150 q-35 0 -49 125q-30 274 -30 522q0 183 93 183q38 0 67 -33q29 -34 29 -72zM771 833q0 -38 -21 -68q-23 -36 -60 -36q-4 0 -12 1t-19 3q-53 10 -131.5 25t-184.5 35q-94 19 -94 66q0 33 111 38q35 1 69 1t68 1q82 5 136 22q49 16 60 16q36 0 59 -36q19 -29 19 -68zM930 108 q0 -42 -25 -73q-27 -34 -68 -34q-40 0 -67 34q-26 35 -26 75q0 16 12 73q6 32 11 73t9 92q4 53 7.5 118t5.5 144q4 147 28 147q32 0 50 -126q20 -146 35 -265.5t25 -215.5q3 -27 3 -42zM715 172q0 -43 -95 -66q-117 -28 -206.5 -47.5t-155.5 -32.5q-10 -2 -18 -3t-13 -1 q-38 0 -60 46q-20 38 -20 79q0 40 21 78q23 44 61 44q12 0 56 -15q90 -34 319 -44q111 -6 111 -38z" />
<glyph unicode="6" horiz-adv-x="1060" d="M930 1482q0 -42 -19 -79q-24 -44 -62 -44q-17 0 -181 37l-211 46q-94 22 -94 66q0 28 94 38q61 3 120 6q43 2 78.5 6t63.5 10q6 2 22.5 7t44.5 15q46 15 63 15q36 0 62 -45q19 -37 19 -78zM948 303q0 -42 -24 -73q-29 -33 -69 -33q-39 0 -68 35q-25 31 -25 73q0 12 12 74 q7 34 12.5 75t9.5 90q4 44 6.5 108.5t4.5 152.5q4 148 29 148q32 0 49 -126q11 -81 25.5 -200.5t34.5 -281.5q3 -27 3 -42zM319 1492q0 -17 -17 -90q-25 -106 -40.5 -226.5t-23.5 -258.5q-8 -150 -28 -150q-36 0 -50 125q-30 274 -30 522q0 181 93 181q21 0 38.5 -8 t30 -22.5t20 -33t7.5 -39.5zM789 833q0 -37 -21 -68q-24 -36 -59 -36q-12 0 -32 4q-54 10 -132 25t-184 35q-94 19 -94 66q0 33 110 38q35 1 69 1q35 0 70 1q81 5 135 22q49 16 61 16q34 0 57 -36q20 -31 20 -68zM863 141q0 -44 -95 -65q-55 -12 -134 -27t-182 -33 q-11 -2 -19 -3t-13 -1q-36 0 -59 35q-21 31 -21 69q0 39 21 69q24 34 61 34q11 0 54 -13q52 -16 63 -17q13 -2 66 -4.5t147 -5.5q111 -2 111 -38zM298 110q0 -44 -24 -74q-27 -34 -69 -34q-40 0 -67 34q-26 32 -26 72q0 11 7.5 67t21.5 159q5 31 13.5 95t21.5 162 q16 126 48 126q24 0 29 -147q2 -66 4 -114.5t4 -80.5q4 -54 10.5 -101.5t14.5 -90.5q12 -63 12 -73z" />
<glyph unicode="7" horiz-adv-x="897" d="M897 1416q0 -40 -55 -110q-130 -165 -234 -383q-55 -115 -74 -115q-21 0 -21 47q0 62 74 284q31 92 57.5 164.5t49.5 126.5q50 116 101 116q42 0 74 -45q28 -40 28 -85zM680 1500q0 -44 -94 -66q-55 -14 -144.5 -33.5t-217.5 -45.5q-25 -5 -31 -5q-37 0 -61 45 q-20 38 -20 79t20 79q24 44 62 44q12 0 56 -15q47 -17 123 -27t196 -17q111 -6 111 -38zM476 729q0 -28 -36 -128q-90 -252 -129 -477q-2 -13 -6 -31t-10 -41q-22 -52 -74 -52q-43 0 -71 42q-26 40 -26 82q0 30 26 80q2 3 46.5 95.5t134.5 275.5q85 178 124 178q21 0 21 -24 z" />
<glyph unicode="8" horiz-adv-x="1327" d="M1086 1308q0 -35 -25 -66t-58 -31t-73 46q-14 17 -29 35t-29 36q-22 19 -54.5 47.5t-76.5 66.5q-56 50 -56 102q0 32 15 32q19 0 108 -34q278 -104 278 -234zM1215 1113q0 -60 -41 -101q-27 -27 -192 -109t-197 -82q-33 0 -33 29q0 33 87 93q57 40 113 111 q23 33 46.5 65.5t46.5 64.5q43 58 81 58q39 0 66 -47q23 -41 23 -82zM643 1548q0 -53 -57 -102q-23 -18 -55.5 -46.5t-75.5 -67.5q-14 -17 -28.5 -35t-28.5 -36q-40 -46 -72 -46q-33 0 -59 32t-26 66q0 104 134 181q10 5 49.5 20.5t109.5 41.5q67 24 92 24q17 0 17 -32z M1138 545q0 -54 -22 -92q-27 -49 -75 -49q-77 0 -173 115q-33 45 -66 89t-67 89q-56 71 -56 106q0 26 17 26q22 0 104 -61q26 -20 52.5 -40t53.5 -40q55 -40 110 -47q65 -9 86 -20q36 -18 36 -76zM574 855q0 -30 -32 -30q-55 0 -325 150q-57 33 -76 54q-29 35 -29 88 q0 46 25 84q27 45 70 45q29 0 91 -81q20 -27 39.5 -54t39.5 -55q25 -34 53 -61t59 -48q85 -60 85 -92zM1173 349q0 -22 -89 -90q-31 -23 -61 -52.5t-61 -67.5q-22 -27 -44 -54.5t-45 -55.5q-69 -78 -102 -78q-41 0 -68 46q-23 38 -23 83q0 62 42 97q3 2 34.5 20.5t92.5 52.5 q35 20 71 40.5t71 40.5q97 52 145 52q37 0 37 -34zM649 807q0 -37 -57 -106q-20 -28 -50 -69t-72 -97q-96 -127 -182 -127q-47 0 -76 47q-24 40 -24 92q0 57 36 78q12 7 75 14q59 8 123 52q26 20 53 40t53 40q83 62 102 62t19 -26zM648 82q0 -45 -24 -82q-27 -45 -68 -45 q-31 0 -78 53q-28 34 -55.5 67t-54.5 67q-68 79 -125 121q-89 66 -89 90q0 34 34 34q49 0 147 -52q36 -20 72 -40.5t71 -40.5q46 -22 127 -73q43 -34 43 -99z" />
<glyph unicode="9" horiz-adv-x="1060" d="M948 1490q0 -14 -7 -70t-21 -155q-9 -63 -18 -127.5t-17 -131.5q-17 -125 -49 -125q-25 0 -29 148q-2 69 -3.5 116.5t-3.5 76.5q-4 54 -10.5 102t-15.5 90q-12 61 -12 74q0 21 6.5 40.5t18.5 34.5t29 24t38 9t38.5 -8.5t29.5 -23t19 -34t7 -40.5zM721 1482q0 -37 -20 -68 q-23 -35 -59 -35q-15 0 -59 16q-69 23 -246 23q-140 0 -140 38q0 45 95 66q16 4 52 11t93 18q95 17 145 26t57 9q36 0 59 -33q23 -34 23 -71zM794 739q0 -37 -111 -38q-72 2 -212 -9q-14 -3 -58 -18q-36 -13 -60 -13q-39 0 -61 34q-21 30 -21 70q0 37 21 69q23 35 60 35 q11 0 31 -4q99 -17 177.5 -32t138.5 -28q95 -21 95 -66zM930 183q0 -181 -92 -181q-21 0 -38.5 8.5t-30.5 22.5t-20.5 33t-7.5 40q0 17 17 90q26 110 41.5 230.5t22.5 254.5q7 150 28 150q36 0 50 -126q30 -275 30 -522zM298 1292q0 -13 -12 -74q-29 -134 -33 -425 q-3 -147 -29 -147q-31 0 -48 125q-11 81 -26 200.5t-35 280.5q-3 28 -3 42q0 21 7 40.5t19 34t29 23.5t38 9q42 0 69 -34q24 -32 24 -75zM697 90q0 -33 -110 -38q-42 -1 -103 -6.5t-143 -16.5q-10 -3 -64 -21q-38 -13 -64 -13q-38 0 -62 42q-20 38 -20 78q0 42 18 80 q24 45 63 45q15 0 181 -38q35 -8 87.5 -19t123.5 -27q93 -21 93 -66z" />
<glyph unicode=":" horiz-adv-x="449" d="M337 1048q0 -54 -28 -98q-33 -51 -84 -51q-52 0 -85 51q-28 43 -28 98q0 56 28 99q33 51 85 51q51 0 84 -51q28 -44 28 -99zM337 150q0 -54 -28 -98q-33 -52 -84 -52q-52 0 -85 51q-28 43 -28 99t28 99q33 50 85 50q51 0 83 -51q29 -44 29 -98z" />
<glyph unicode=";" horiz-adv-x="449" d="M337 1048q0 -54 -28 -98q-33 -51 -84 -51q-52 0 -85 51q-28 43 -28 98q0 56 28 99q33 51 85 51q51 0 84 -51q28 -44 28 -99zM337 150q0 -63 -93 -250q-97 -196 -146 -196q-25 0 -25 77q0 34 3.5 75t10.5 91q11 76 16 117.5t6 48.5q2 32 12 95q28 91 102 91q54 0 85 -49 q29 -46 29 -100z" />
<glyph unicode="&#x3c;" horiz-adv-x="674" d="M562 1404q0 -40 -21 -65q-10 -13 -51 -47q-77 -64 -147 -179l-126 -210q-56 -95 -87 -95q-15 0 -15 27q0 38 98 287q37 95 61.5 155t37.5 86q87 177 154 177q42 0 70 -49q26 -44 26 -87zM557 147q0 -46 -24 -88q-28 -52 -70 -52q-15 0 -29 7q-59 27 -154 260 q-18 48 -48 118t-73 163q-47 86 -47 108q0 30 18 30q48 0 182 -192q43 -63 85 -124t84 -123q76 -36 76 -107z" />
<glyph unicode="=" d="M635 1033q0 -38 -22 -69q-23 -36 -59 -36q-11 0 -31 4q-102 17 -180.5 32.5t-135.5 28.5q-95 21 -95 65q0 32 111 38q35 1 69.5 2t69.5 2q81 3 135 21q49 15 59 15q37 0 59 -34q20 -31 20 -69zM635 633q0 -37 -22 -68q-24 -35 -59 -35q-9 0 -31 3q-54 9 -132 24t-184 36 q-95 21 -95 66q0 32 111 38q36 0 89 3t124 8q15 1 62 17q39 12 62 12q36 0 56 -36q19 -29 19 -68z" />
<glyph unicode="&#x3e;" horiz-adv-x="682" d="M569 1003q0 -48 -25 -86q-27 -44 -72 -44q-22 0 -44 17q-21 16 -81 162q-57 139 -103.5 240.5t-84.5 167.5q-47 83 -47 108q0 29 18 29q48 0 216 -226q134 -178 197 -287q26 -44 26 -81zM543 711q0 -25 -49 -124q-67 -135 -165 -481q-4 -11 -10 -28t-15 -40 q-20 -38 -58 -38q-47 0 -77 43q-27 37 -27 87q0 36 36 89q23 34 55.5 90.5t74.5 136.5q153 289 215 289q20 0 20 -24z" />
<glyph unicode="?" horiz-adv-x="1043" d="M930 1498q0 -13 -7 -73t-21 -169q-6 -48 -15 -118t-20 -164q-17 -126 -50 -126q-25 0 -28 149q-2 82 -3.5 135t-3.5 78q-4 60 -10 112.5t-16 99.5q-12 55 -12 74q0 41 26 75q25 34 67 34q21 0 38 -8.5t29.5 -23.5t19 -34.5t6.5 -40.5zM715 1434q0 -34 -111 -37 q-58 -2 -98.5 -5t-63.5 -5q-45 -5 -84 -13.5t-73 -21.5q-41 -16 -56 -16q-37 0 -61 45q-21 37 -21 78q0 43 19 80q22 45 61 45q17 0 183 -38q35 -8 87.5 -19.5t122.5 -26.5q95 -21 95 -66zM771 773q0 -40 -21 -70q-22 -34 -61 -34q-14 0 -56 16q-52 19 -108.5 29.5 t-119.5 14.5q-111 7 -111 38q0 44 84 65q31 5 61.5 9t60.5 8l159 24q14 2 21.5 3t9.5 1q37 0 60 -35q21 -32 21 -69zM286 955q0 -5 -4 -28t-12 -63t-16.5 -121t-18.5 -204q-12 -150 -44 -150q-79 0 -79 469q0 200 94 200q80 0 80 -103zM337 150q0 -54 -28 -98 q-33 -52 -84 -52q-52 0 -85 51q-28 43 -28 99t28 99q33 50 85 50q51 0 83 -51q29 -44 29 -98z" />
<glyph unicode="@" horiz-adv-x="1054" d="M979 1003q0 -48 -24 -85q-29 -45 -71 -45q-25 0 -45 16t-81 163q-113 273 -189 408q-46 79 -46 108t17 29q49 0 218 -226q69 -93 118.5 -164t78.5 -123q24 -42 24 -81zM643 873q0 -14 -10 -14q-8 0 -26 36q-8 20 -21.5 49.5t-30.5 68.5q-1 1 -21 32q-14 23 -14 32 q0 47 37 47q31 0 53 -91q5 -30 10.5 -60t11.5 -60q2 -10 5 -20zM525 1404q0 -40 -22 -65q-4 -5 -16.5 -16.5t-34.5 -30.5q-77 -64 -147 -179l-126 -210q-56 -95 -87 -95q-17 0 -17 26q0 27 101 288q70 181 99 241q87 177 153 177q40 0 70 -49q27 -44 27 -87zM507 1073 q0 -43 -73 -223q-15 -35 -25 -35q-9 0 -9 12q0 7 11 46q22 79 28 194q0 10 3 27q8 26 32 26q33 0 33 -47zM691 575q0 -50 -35 -50q-33 0 -33 43q0 8 1.5 24.5t1.5 24.5q0 33 -14 103q-7 34 -10 60t-3 43q0 24 7 24q5 0 12 -16q8 -16 19 -48t25 -80q29 -101 29 -128zM615 661 q0 -33 -20 -33q-19 0 -78 38q-63 40 -63 57q0 10 9 10q22 0 55 -16q35 -14 55 -16q42 -3 42 -40zM955 711q0 -21 -50 -124q-35 -72 -76.5 -191t-90.5 -290q-3 -11 -9 -28t-14 -40q-21 -38 -59 -38q-46 0 -77 43q-26 38 -26 87q0 36 36 89q23 34 55.5 90.5t74.5 136.5 q153 289 214 289q22 0 22 -24zM454 799q0 -16 -3 -47.5t-10 -79.5q-15 -101 -24 -119q-14 -27 -36 -27q-31 0 -31 44q0 1 77 223q10 30 18 30q9 0 9 -24zM519 146q0 -46 -24 -88q-29 -50 -70 -50q-26 0 -52 22q-45 37 -130 244q-18 48 -48.5 118t-73.5 163q-47 86 -47 108 q0 30 19 30q46 0 163 -167q37 -56 73.5 -110.5t72.5 -109.5q9 -13 19.5 -25.5t21.5 -26.5q76 -37 76 -108z" />
<glyph unicode="A" horiz-adv-x="836" d="M741 923q0 -37 -17 -37q-67 0 -198 362q-14 39 -27.5 67t-25.5 45q-10 12 -20.5 23.5t-19 24t-14 26.5t-5.5 32q0 45 26 86q28 45 73 45q37 0 63 -35q47 -63 121 -452q2 -14 6 -33.5t10 -45.5q28 -96 28 -108zM381 1460q0 -20 -55 -181q-23 -72 -45 -142t-45 -141 q-78 -228 -118 -228q-22 0 -22 37q0 14 27 118q20 76 38.5 205.5t34.5 315.5q1 13 3.5 31t7.5 41q20 62 75 62q45 0 72 -36t27 -82zM873 132q0 -132 -92 -132q-90 0 -90 117q0 22 3 69q2 23 3 40.5t1 29.5q0 91 -24 222l-42 219q-9 54 -9 99q0 61 22 61t61 -114l52 -152 t52 -153q63 -200 63 -306zM669 360q0 -88 -65 -88q-50 0 -291 163q-75 51 -75 93q0 25 25 25q36 0 138 -38q54 -20 93 -32t62 -14q113 -14 113 -109zM240 727q0 -81 -36 -333q-19 -132 -34.5 -211.5t-27.5 -108.5q-30 -74 -85 -74q-40 0 -67 37q-24 34 -24 76q0 29 13 71 q17 48 43 117t61 162q14 42 35 103.5t50 144.5q27 80 47 80q25 0 25 -64z" />
<glyph unicode="B" horiz-adv-x="986" d="M819 1308q0 -34 -26 -66q-26 -30 -60 -30q-41 0 -109 65q-22 20 -40 35.5t-33 26.5q-26 16 -64 42t-87 61q-57 49 -57 102q0 32 17 32q11 0 107 -34q85 -29 138.5 -50t77.5 -32q136 -69 136 -152zM948 1113q0 -64 -40 -101q-27 -24 -256 -107q-230 -84 -269 -84 q-33 0 -33 29q0 38 87 91l180 108q97 64 162 135q54 58 74 58q42 0 71 -45q24 -39 24 -84zM301 1492q0 -23 -16 -90q-26 -107 -42 -227.5t-23 -257.5q-6 -150 -29 -150q-35 0 -49 125q-30 273 -30 520q0 185 93 185q38 0 67 -33q29 -34 29 -72zM872 585q0 -53 -22 -93 q-27 -48 -77 -48q-84 0 -281 127q-215 138 -215 232q0 26 18 26q14 0 96 -56q108 -75 370 -98q14 -1 34 -5t46 -11q31 -16 31 -74zM922 349q0 -25 -89 -90q-211 -150 -310 -255q-50 -53 -78 -53q-41 0 -69 46q-24 39 -24 83q0 61 44 97q21 18 196 93q73 32 128 55t93 39 q47 19 73 19q36 0 36 -34zM302 110q0 -44 -24 -74q-27 -34 -69 -34q-40 0 -68 34q-24 31 -24 72q0 26 27 242l35 281q16 126 50 126q25 0 28 -147q1 -55 5 -137t12 -191q1 -10 5 -31t12 -55q11 -55 11 -86z" />
<glyph unicode="C" horiz-adv-x="1023" d="M841 1313q0 -44 -24 -83q-27 -46 -68 -46q-25 0 -140 97l-225 191q-68 57 -68 96q0 26 25 26q20 0 90 -35q38 -20 96 -46t137 -59q27 -6 59 -14.5t69 -19.5q49 -22 49 -107zM301 1492q0 -22 -16 -90q-26 -109 -42 -229.5t-23 -255.5q-6 -150 -29 -150q-35 0 -49 125 q-30 274 -30 522q0 183 93 183q38 0 67 -33q29 -34 29 -72zM911 286q0 -70 -51 -110q-18 -15 -214 -59q-193 -41 -232 -41q-51 0 -51 34q0 29 95 80q64 33 101.5 53t50.5 28q81 49 139 99q52 45 70 45q41 0 68 -45q24 -41 24 -84zM302 110q0 -44 -24 -74q-27 -34 -69 -34 q-40 0 -68 34q-24 31 -24 72q0 24 27 242l35 281q16 126 50 126q25 0 28 -147q2 -84 4 -137.5t4 -76.5q4 -61 10 -114t16 -99q5 -29 8 -47t3 -26z" />
<glyph unicode="D" horiz-adv-x="1023" d="M841 1313q0 -44 -24 -83q-27 -46 -68 -46q-25 0 -140 97l-225 191q-68 57 -68 96q0 26 25 26q20 0 90 -35q38 -20 96 -46t137 -59q27 -6 59 -14.5t69 -19.5q49 -22 49 -107zM899 549q0 -43 -24 -74q-28 -34 -69 -34q-40 0 -68 34q-25 31 -25 72q0 9 7 69.5t21 173.5 l35 281q16 126 49 126q23 0 28 -149q2 -84 4 -137t4 -76q4 -61 10 -113.5t15 -98.5q7 -31 10 -49.5t3 -24.5zM301 1492q0 -22 -16 -90q-26 -109 -42 -229.5t-23 -255.5q-6 -150 -29 -150q-35 0 -49 125q-30 274 -30 522q0 183 93 183q38 0 67 -33q29 -34 29 -72zM911 286 q0 -70 -51 -110q-18 -15 -214 -59q-193 -41 -232 -41q-51 0 -51 34q0 29 95 80q64 33 101.5 53t50.5 28q81 49 139 99q52 45 70 45q41 0 68 -45q24 -41 24 -84zM302 110q0 -44 -24 -74q-27 -34 -69 -34q-40 0 -68 34q-24 31 -24 72q0 24 27 242l35 281q16 126 50 126 q25 0 28 -147q2 -84 4 -137.5t4 -76.5q4 -61 10 -114t16 -99q5 -29 8 -47t3 -26z" />
<glyph unicode="E" horiz-adv-x="987" d="M912 1482q0 -41 -20 -79q-23 -44 -60 -44q-18 0 -182 37l-211 46q-95 23 -95 66q0 36 221 45q40 2 74 5.5t62 10.5q5 1 21.5 6.5t44.5 15.5q43 15 63 15q38 0 61 -45q21 -38 21 -79zM301 1492q0 -22 -16 -90q-26 -109 -42 -229.5t-23 -255.5q-8 -150 -29 -150 q-35 0 -49 125q-30 273 -30 522q0 183 93 183q38 0 67 -33q29 -34 29 -72zM771 833q0 -38 -21 -68q-23 -36 -60 -36q-4 0 -12 1t-19 3q-53 10 -131.5 25t-184.5 35q-94 21 -94 66q0 30 111 38q35 1 87.5 3.5t123.5 7.5q19 2 34.5 5.5t27.5 7.5q49 16 56 16q82 0 82 -104z M900 146q0 -42 -19 -79q-24 -45 -62 -45q-17 0 -180 37l-212 47q-94 22 -94 66q0 36 219 45q40 1 74 5t63 11q5 1 21 6.5t44 15.5q44 14 63 14q37 0 63 -44q20 -38 20 -79zM302 110q0 -44 -24 -74q-27 -34 -69 -34q-40 0 -68 34q-24 31 -24 72q0 24 27 242l35 281 q16 126 50 126q23 0 28 -147q3 -93 5 -146.5t3 -67.5q4 -61 10 -114t16 -99q5 -29 8 -47t3 -26z" />
<glyph unicode="F" horiz-adv-x="949" d="M912 1482q0 -41 -20 -79q-23 -44 -60 -44q-18 0 -182 37l-211 46q-95 23 -95 66q0 36 221 45q40 2 74 5.5t62 10.5q5 1 21.5 6.5t44.5 15.5q43 15 63 15q38 0 61 -45q21 -38 21 -79zM301 1492q0 -22 -16 -90q-26 -109 -42 -229.5t-23 -255.5q-8 -150 -29 -150 q-35 0 -49 125q-30 273 -30 522q0 183 93 183q38 0 67 -33q29 -34 29 -72zM771 833q0 -38 -21 -68q-23 -36 -60 -36q-4 0 -12 1t-19 3q-53 10 -131.5 25t-184.5 35q-94 21 -94 66q0 30 111 38q35 1 87.5 3.5t123.5 7.5q19 2 34.5 5.5t27.5 7.5q49 16 56 16q82 0 82 -104z M302 110q0 -44 -24 -74q-27 -34 -69 -34q-40 0 -68 34q-24 31 -24 72q0 24 27 242l35 281q16 126 50 126q23 0 28 -147q3 -93 5 -146.5t3 -67.5q4 -61 10 -114t16 -99q5 -29 8 -47t3 -26z" />
<glyph unicode="G" horiz-adv-x="998" d="M881 1457q0 -44 -22 -82q-24 -47 -64 -47q-57 0 -193 59q-49 23 -97.5 45t-96.5 44q-8 3 -20.5 8.5t-29.5 13.5q-38 23 -38 46q0 40 58 40q9 0 56 -6q55 -7 110.5 -10.5t112.5 -3.5q58 0 97 6t46 6q39 0 61 -43q20 -35 20 -76zM836 974q0 -45 -95 -65q-176 -36 -269 -36 q-137 0 -137 124q0 102 76 102q24 0 96 -28q123 -49 217 -59q112 -13 112 -38zM301 1492q0 -22 -16 -90q-26 -109 -42 -229.5t-23 -255.5q-6 -150 -29 -150q-35 0 -49 125q-30 274 -30 522q0 183 93 183q38 0 67 -33q29 -34 29 -72zM847 771q0 -16 -17 -65q-23 -62 -24 -69 q-8 -29 -13.5 -69t-9.5 -91q-11 -149 -28 -149q-28 0 -28 74q0 31 -4.5 76t-14.5 105t-14.5 105.5t-4.5 76.5q0 108 81 108q77 0 77 -102zM885 185q0 -71 -50 -109q-24 -18 -216 -58q-188 -39 -231 -39q-51 0 -51 31q0 30 96 80l97.5 52t53.5 29q82 48 140 98q53 47 70 47 q41 0 67 -47q24 -41 24 -84zM302 110q0 -44 -24 -74q-27 -34 -69 -34q-40 0 -68 34q-24 31 -24 72q0 26 27 242l35 281q16 126 50 126q25 0 28 -147q1 -55 5 -137t12 -191q1 -10 5 -31t12 -55q11 -55 11 -86z" />
<glyph unicode="H" horiz-adv-x="1081" d="M967 1488q0 -15 -12 -73q-5 -29 -11 -82.5t-11 -131.5q-4 -52 -6 -104.5t-4 -107.5q-6 -148 -29 -148q-32 0 -49 125q-11 81 -26 201t-34 281q-3 28 -3 42q0 21 7 40t19 34t29 23.5t38 8.5q43 0 68 -34q24 -30 24 -74zM301 1492q0 -22 -16 -90q-52 -217 -65 -485 q-8 -150 -29 -150q-35 0 -49 125q-30 271 -30 522q0 183 93 183q38 0 67 -33q29 -34 29 -72zM770 779q0 -41 -23 -81q-26 -45 -65 -45q-62 0 -357 182q-79 49 -79 88q0 26 34 26q17 0 81 -19q111 -31 325 -31q40 0 64 -42q20 -35 20 -78zM966 106q0 -38 -29 -73 q-29 -33 -67 -33q-93 0 -93 183q0 250 30 522q13 126 49 126q21 0 29 -150q14 -273 64 -485q17 -77 17 -90zM302 110q0 -44 -24 -74q-27 -34 -69 -34q-40 0 -68 34q-24 31 -24 72q0 27 18 165l44 358q16 126 50 126q23 0 28 -147q1 -36 2.5 -89t4.5 -125q7 -114 27 -213 q5 -29 8 -47t3 -26z" />
<glyph unicode="I" horiz-adv-x="414" d="M301 1492q0 -19 -16 -90q-25 -108 -41 -228t-24 -257q-8 -150 -29 -150q-35 0 -49 125q-30 271 -30 520q0 185 93 185q38 0 67 -33q29 -34 29 -72zM302 110q0 -44 -24 -74q-27 -34 -69 -34q-40 0 -68 34q-24 31 -24 72q0 13 4.5 55.5t14.5 115.5l43 352q16 126 50 126 q23 0 28 -147q4 -100 6 -153t2 -61q4 -62 10.5 -115t15.5 -98q11 -61 11 -73z" />
<glyph unicode="J" horiz-adv-x="1034" d="M922 1480q0 -14 -3.5 -52t-10.5 -100q-16 -139 -33 -457q-6 -98 -30 -98q-33 0 -51 136q-13 93 -24 184.5t-20 182.5q-15 145 -15 206q0 45 27 80q27 36 71 36q89 0 89 -118zM917 711q0 -21 -50 -124q-38 -77 -79.5 -196.5t-87.5 -284.5q-3 -11 -9 -28t-14 -40 q-21 -38 -59 -38q-48 0 -76 43q-26 38 -26 87q0 36 35 89q20 31 51.5 87t76.5 139q39 73 72.5 128t61.5 93q52 69 83 69q21 0 21 -24zM481 139q0 -46 -24 -85q-27 -46 -70 -46q-26 0 -52 22q-47 41 -129 244q-34 94 -122 281q-47 83 -47 108q0 30 19 30q50 0 165 -166 q36 -56 72 -111l72 -110q8 -12 18.5 -25t22.5 -27q75 -38 75 -115z" />
<glyph unicode="K" horiz-adv-x="1034" d="M788 1388q0 -46 -36 -92q-10 -13 -38 -45t-74 -86q-42 -46 -96.5 -107t-123.5 -139q-62 -69 -80 -69q-23 0 -23 25q0 42 52 124q34 51 81 127t108 181q14 29 25 54.5t19 48.5q4 14 12.5 33t21.5 43q24 31 53 31q43 0 73 -44q26 -41 26 -85zM301 1492q0 -23 -16 -90 q-26 -107 -42 -227.5t-23 -257.5q-6 -150 -29 -150q-35 0 -49 125q-30 273 -30 520q0 185 93 185q38 0 67 -33q29 -34 29 -72zM922 202q0 -52 -22 -92q-27 -50 -73 -50q-30 0 -84 39q-149 109 -282 376q-10 23 -26 55.5t-39 75.5q-58 86 -58 105q0 24 18 24q49 0 142 -100 q3 -4 137 -176q99 -126 144 -145q23 -8 47 -15.5t48 -15.5q48 -24 48 -81zM302 110q0 -44 -24 -74q-27 -34 -69 -34q-40 0 -68 34q-24 31 -24 72q0 24 27 242l35 281q16 126 50 126q25 0 28 -147q2 -84 4 -137.5t4 -76.5q4 -61 10 -114t16 -99q5 -29 8 -47t3 -26z" />
<glyph unicode="L" horiz-adv-x="937" d="M301 1492q0 -22 -16 -90q-26 -109 -42 -229.5t-23 -255.5q-8 -150 -29 -150q-35 0 -49 125q-30 273 -30 522q0 183 93 183q38 0 67 -33q29 -34 29 -72zM900 146q0 -42 -19 -79q-24 -45 -62 -45q-17 0 -180 37l-212 47q-94 22 -94 66q0 36 219 45q40 1 74 5t63 11 q5 1 21 6.5t44 15.5q44 14 63 14q37 0 63 -44q20 -38 20 -79zM302 110q0 -44 -24 -74q-27 -34 -69 -34q-40 0 -68 34q-24 31 -24 72q0 24 27 242l35 281q16 126 50 126q23 0 28 -147q3 -93 5 -146.5t3 -67.5q4 -61 10 -114t16 -99q5 -29 8 -47t3 -26z" />
<glyph unicode="M" horiz-adv-x="1574" d="M1403 833q0 -32 -19 -32q-47 0 -123 223q-22 72 -44 142.5t-44 142.5q-57 168 -57 179q0 43 26 80q28 40 71 40q77 0 89 -136q8 -96 14.5 -161t10.5 -102q10 -73 22 -137t27 -121q27 -104 27 -118zM1095 1472q0 -31 -31 -74q-22 -29 -33.5 -46t-13.5 -22 q-23 -62 -46.5 -123t-46.5 -124q-80 -197 -118 -197q-23 0 -23 39q0 7 25 106q0 1 12 71.5t35 211.5q33 199 76 254q31 39 67 39q44 0 73 -47q24 -41 24 -88zM764 833q0 -32 -20 -32q-56 0 -161 350q-13 45 -25.5 84t-24.5 74q-57 171 -57 179q0 42 26 80q30 40 71 40 q77 0 89 -136q28 -345 75 -521q27 -101 27 -118zM1537 114q0 -42 -23 -77q-27 -37 -69 -37q-58 0 -91 82q-23 55 -45 309q-10 114 -15 196t-5 134q0 84 30 84q19 0 42 -84q34 -121 66 -227.5t62 -199.5q48 -147 48 -180zM455 1472q0 -31 -56 -102q-19 -22 -65 -151 q-30 -81 -46 -123.5t-18 -47.5q-71 -162 -104 -162q-22 0 -22 31t17 97q11 43 16.5 67.5t6.5 31.5q10 60 19.5 119t19.5 119q31 167 69 217q28 39 66 39q44 0 73 -47q24 -41 24 -88zM879 126q0 -46 -22 -78q-26 -38 -68 -38q-100 0 -100 196q0 143 33 415q13 114 36 114 q21 0 34 -94q4 -26 19.5 -113.5t44.5 -237.5q11 -59 17 -100t6 -64zM270 807q0 -89 -30 -264q-30 -174 -30 -263q0 -14 1.5 -34t3.5 -46l3.5 -45.5t1.5 -32.5q0 -45 -22 -76q-26 -36 -68 -36q-92 0 -92 148q0 108 57 300q23 75 47 149.5t48 149.5q36 118 57 118q23 0 23 -68 z" />
<glyph unicode="N" horiz-adv-x="1081" d="M967 1488q0 -13 -11 -74q-21 -100 -33 -425q-6 -148 -29 -148q-32 0 -49 125q-11 81 -26 201t-34 281q-3 28 -3 42q0 21 7 40t19 34t29 23.5t38 8.5q43 0 68 -34q24 -30 24 -74zM727 839q0 -47 -25 -84q-28 -43 -72 -43q-25 0 -50 19q-47 37 -208 426q-32 76 -32 114 q0 29 20 29q16 0 83 -94q20 -28 50 -63t72 -78q48 -50 79 -84.5t47 -54.5q36 -44 36 -87zM301 1492q0 -22 -16 -90q-26 -109 -42 -229.5t-23 -255.5q-8 -150 -29 -150q-35 0 -49 125q-30 273 -30 522q0 183 93 183q38 0 67 -33q29 -34 29 -72zM966 106q0 -38 -29 -73 q-29 -33 -67 -33q-93 0 -93 183q0 247 30 522q13 126 49 126q21 0 29 -150q14 -273 64 -485q17 -77 17 -90zM302 110q0 -44 -24 -74q-27 -34 -69 -34q-40 0 -68 34q-24 31 -24 72q0 24 27 242l35 281q16 126 50 126q23 0 28 -147q3 -93 5 -146.5t3 -67.5q4 -61 10 -114 t16 -99q5 -29 8 -47t3 -26z" />
<glyph unicode="O" horiz-adv-x="1054" d="M979 1003q0 -48 -24 -85q-29 -45 -71 -45q-25 0 -45 16t-81 163q-113 273 -189 408q-46 79 -46 108t17 29q49 0 218 -226q69 -93 118.5 -164t78.5 -123q24 -42 24 -81zM525 1404q0 -40 -22 -65q-4 -5 -16.5 -16.5t-34.5 -30.5q-77 -64 -147 -179l-126 -210 q-56 -95 -87 -95q-17 0 -17 26q0 27 101 288q70 181 99 241q87 177 153 177q40 0 70 -49q27 -44 27 -87zM955 711q0 -21 -50 -124q-35 -72 -76.5 -191t-90.5 -290q-3 -11 -9 -28t-14 -40q-21 -38 -59 -38q-46 0 -77 43q-26 38 -26 87q0 36 36 89q23 34 55.5 90.5t74.5 136.5 q153 289 214 289q22 0 22 -24zM519 146q0 -46 -24 -88q-29 -50 -70 -50q-26 0 -52 22q-45 37 -130 244q-18 48 -48.5 118t-73.5 163q-47 86 -47 108q0 30 19 30q46 0 163 -167q37 -56 73.5 -110.5t72.5 -109.5q9 -13 19.5 -25.5t21.5 -26.5q76 -37 76 -108z" />
<glyph unicode="P" horiz-adv-x="937" d="M849 1182q0 -37 -25 -66q-24 -29 -59 -29q-67 0 -158 112q-32 42 -63 83t-63 83q-20 21 -41 42l-42 42q-55 58 -55 95q0 32 17 32q63 0 176 -75q42 -29 83.5 -57t83.5 -56q146 -83 146 -206zM900 886q0 -62 -40 -99q-26 -23 -256 -108q-230 -84 -269 -84q-33 0 -33 30 q0 37 87 90q81 48 125.5 75.5t54.5 34.5q98 65 161 134q54 57 76 57q41 0 70 -45q24 -41 24 -85zM301 1492q0 -23 -16 -90q-26 -107 -42 -227.5t-23 -257.5q-6 -150 -29 -150q-35 0 -49 125q-30 273 -30 520q0 185 93 185q38 0 67 -33q29 -34 29 -72zM302 110q0 -44 -24 -74 q-27 -34 -69 -34q-40 0 -68 34q-24 31 -24 72q0 26 27 242l35 281q16 126 50 126q25 0 28 -147q1 -55 5 -137t12 -191q1 -10 5 -31t12 -55q11 -55 11 -86z" />
<glyph unicode="Q" horiz-adv-x="1056" d="M979 1003q0 -48 -24 -85q-29 -45 -71 -45q-25 0 -45 16t-81 163q-113 273 -189 408q-46 79 -46 108t17 29q49 0 219 -225q70 -94 118.5 -165.5t77.5 -122.5q24 -44 24 -81zM525 1404q0 -39 -22 -65q-11 -12 -51 -47q-40 -34 -76.5 -78t-70.5 -101l-126 -210 q-56 -95 -87 -95q-16 0 -16 35q0 24 100 279q70 181 99 241q87 177 153 177q40 0 70 -49q27 -44 27 -87zM1056 -13q0 -45 -25 -86q-29 -50 -69 -50q-59 0 -126 132q-5 11 -24.5 57.5t-53.5 129.5q-14 -48 -22 -74t-10 -31q-29 -66 -72 -66t-75 44q-26 41 -26 87q0 36 36 89 q51 75 87 145q-65 103 -65 139q0 30 17 30q28 0 96 -78q145 280 209 280q22 0 22 -24q0 -19 -42 -110q-14 -30 -27.5 -60t-27.5 -59q-22 -55 -48 -137q20 -34 41 -67t41 -67q64 -104 87 -117q18 -10 52 -36q25 -25 25 -71zM519 146q0 -46 -24 -88q-29 -50 -70 -50 q-26 0 -52 22q-45 37 -130 244q-18 48 -48.5 118t-73.5 163q-47 86 -47 108q0 30 19 30q48 0 164 -167q37 -55 73 -110l72 -110q8 -12 18.5 -25t22.5 -27q76 -37 76 -108z" />
<glyph unicode="R" horiz-adv-x="959" d="M819 1308q0 -34 -26 -66q-26 -30 -60 -30q-41 0 -109 65q-36 35 -110 84q-87 58 -114 81q-57 46 -57 102q0 32 17 32q11 0 107 -34q85 -30 138.5 -50.5t76.5 -31.5q137 -69 137 -152zM894 1063q0 -64 -41 -100q-25 -24 -257 -108q-230 -84 -266 -84q-34 0 -34 30 q0 38 87 89q74 44 118.5 71.5t61.5 38.5q95 62 162 134q53 59 75 59q42 0 70 -46q24 -39 24 -84zM301 1492q0 -23 -16 -90q-26 -107 -42 -227.5t-23 -257.5q-6 -150 -29 -150q-35 0 -49 125q-30 273 -30 520q0 185 93 185q38 0 67 -33q29 -34 29 -72zM922 202q0 -52 -22 -92 q-27 -50 -73 -50q-30 0 -84 39q-149 109 -282 376q-10 23 -26 55.5t-39 75.5q-58 86 -58 105q0 24 18 24q49 0 142 -100q3 -4 137 -176q99 -126 144 -145q23 -8 47 -15.5t48 -15.5q48 -24 48 -81zM302 110q0 -44 -24 -74q-27 -34 -69 -34q-40 0 -68 34q-24 31 -24 72 q0 24 27 242l35 281q16 126 50 126q25 0 28 -147q2 -84 4 -137.5t4 -76.5q4 -61 10 -114t16 -99q5 -29 8 -47t3 -26z" />
<glyph unicode="S" horiz-adv-x="1043" d="M912 1482q0 -41 -20 -79q-23 -44 -60 -44q-18 0 -182 37l-211 46q-95 23 -95 66q0 27 96 38q30 2 60 3t61 3q44 2 79 6t61 11q5 1 21.5 6.5t44.5 15.5q43 15 63 15q38 0 61 -45q21 -38 21 -79zM301 1492q0 -22 -16 -90q-26 -109 -42 -229.5t-23 -255.5q-6 -150 -29 -150 q-35 0 -49 125q-30 274 -30 522q0 183 93 183q38 0 67 -33q29 -34 29 -72zM771 833q0 -38 -21 -68q-23 -36 -60 -36q-4 0 -12 1t-19 3q-53 10 -131.5 25t-184.5 35q-94 19 -94 66q0 33 111 38q35 1 69 1t68 1q82 5 136 22q49 16 60 16q36 0 59 -36q19 -29 19 -68zM930 108 q0 -42 -25 -73q-27 -34 -68 -34q-40 0 -67 34q-26 35 -26 75q0 16 12 73q6 32 11 73t9 92q4 53 7.5 118t5.5 144q4 147 28 147q32 0 50 -126q20 -146 35 -265.5t25 -215.5q3 -27 3 -42zM715 172q0 -43 -95 -66q-117 -28 -206.5 -47.5t-155.5 -32.5q-10 -2 -18 -3t-13 -1 q-38 0 -60 46q-20 38 -20 79q0 40 21 78q23 44 61 44q12 0 56 -15q90 -34 319 -44q111 -6 111 -38z" />
<glyph unicode="T" horiz-adv-x="807" d="M770 1456q0 -41 -20 -79q-24 -45 -62 -45q-11 0 -108 28q-43 13 -120.5 22t-189.5 16q-32 2 -64.5 3t-65.5 3q-103 10 -103 38q0 84 252 122q75 11 156 16.5t169 5.5q156 0 156 -130zM494 1246q0 -17 -21 -171q-20 -146 -24 -228q-7 -148 -29 -148q-42 0 -64 126 q-48 259 -48 399q0 132 92 132q21 0 38.5 -9t29.5 -24.5t19 -35.5t7 -41zM492 103q0 -38 -29 -72q-29 -32 -67 -32q-92 0 -92 182q0 57 7.5 152.5t23.5 230.5q14 125 48 125q18 0 29 -150q2 -32 7 -68.5t13 -78.5q1 -3 9.5 -39.5t25.5 -108.5q25 -101 25 -141z" />
<glyph unicode="U" horiz-adv-x="1109" d="M996 1480q0 -17 -3.5 -54.5t-10.5 -97.5q-15 -128 -33 -457q-6 -98 -29 -98q-33 0 -51 136q-12 91 -22.5 175t-18.5 162q-18 163 -18 236q0 23 7 44t20 36.5t31 25t40 9.5q88 0 88 -117zM308 1486q0 -20 -22 -89q-38 -125 -44 -394q-6 -286 -42 -286q-25 0 -39 119l-2 14 q-23 211 -35 336t-12 169q0 242 97 242q43 0 71 -34q28 -32 28 -77zM992 711q0 -22 -50 -124q-68 -139 -166 -481q-4 -11 -10 -28t-14 -40q-21 -38 -59 -38q-47 0 -77 43q-26 38 -26 87q0 35 36 89q23 35 55.5 92t74.5 135q154 289 214 289q22 0 22 -24zM557 146 q0 -46 -24 -88q-29 -51 -70 -51q-24 0 -52 23q-42 36 -115 204q-23 58 -46.5 116t-47.5 116l-25.5 51t-26.5 51q-38 76 -38 95q0 30 18 30q66 0 282 -344q15 -25 32 -48.5t37 -46.5q76 -37 76 -108z" />
<glyph unicode="V" horiz-adv-x="836" d="M873 1482q0 -43 -57 -182q-24 -59 -60.5 -162t-87.5 -252q-27 -79 -47 -79q-25 0 -25 64q0 39 9 122.5t28 212.5q37 268 60 318q34 73 87 73q42 0 68 -38q25 -32 25 -77zM213 797q0 -56 -22 -56t-61 114q-26 76 -52.5 152t-52.5 153q-60 196 -60 306q0 132 89 132 q91 0 91 -116q0 -11 -1 -26.5t-3 -36.5q-3 -41 -3 -62q0 -57 11 -142.5t33 -200.5q31 -152 31 -217zM740 793q0 -13 -27 -118q-44 -172 -74 -521q-1 -12 -3.5 -30t-6.5 -42q-20 -62 -74 -62q-45 0 -73 36q-28 35 -28 82q0 14 57 181q22 71 44 141t45 142q77 227 118 227 q22 0 22 -36zM420 132q0 -48 -25 -86q-28 -46 -73 -46q-89 0 -144 288q-7 34 -16.5 84t-23.5 117q-3 28 -15 79q-28 87 -28 107q0 36 17 36q42 0 123 -180l96 -231q5 -11 13 -26.5t19 -35.5q19 -23 38 -47t19 -59z" />
<glyph unicode="W" horiz-adv-x="1425" d="M1462 1494q0 -36 -43 -169q-14 -45 -29 -89.5t-30 -89.5q-14 -48 -32.5 -112.5t-41.5 -147.5t-42 -83q-29 0 -29 83q0 103 21 330q11 129 22 206.5t22 103.5q33 82 90 82q41 0 68 -37q24 -35 24 -77zM805 1482q0 -32 -4.5 -70.5t-14.5 -84.5q-8 -38 -16.5 -77t-16.5 -77 q-12 -63 -21 -114t-14 -93q-14 -93 -35 -93q-22 0 -35 114q-17 137 -25.5 240t-8.5 175q0 195 101 195q43 0 67 -38q23 -32 23 -77zM1329 775q0 -15 -27 -118q-47 -176 -75 -521q-1 -13 -3.5 -31.5t-7.5 -43.5q-18 -61 -78 -61q-43 0 -71 40q-26 38 -26 80q0 11 57 179 q22 72 44 142.5t44 142.5q76 223 123 223q20 0 20 -32zM194 801q0 -68 -21 -68q-24 0 -58 117l-48 152t-47 152q-55 189 -55 306q0 53 19 90q24 48 70 48q42 0 67 -37q24 -33 24 -75q0 2 -1.5 -18t-5.5 -62q-3 -32 -3 -78q0 -45 7.5 -110.5t21.5 -153.5q30 -176 30 -263z M1020 136q0 -48 -25 -88q-29 -47 -73 -47q-38 0 -66 39q-38 51 -69 220q-1 5 -10.5 64t-26.5 171q-4 26 -8 47t-8 35q-25 99 -25 111q0 33 21 33q34 0 105 -162q16 -37 41 -103q10 -28 19.5 -56t19.5 -57q11 -34 23.5 -60.5t26.5 -46.5q9 -11 18 -22.5t19 -22.5 q18 -26 18 -55zM689 775q0 -19 -27 -118q-45 -167 -75 -521q-1 -13 -3.5 -31.5t-7.5 -43.5q-18 -61 -73 -61q-46 0 -74 39q-27 34 -27 81q0 23 20 78q19 49 40 113.5t45 145.5q104 350 162 350q20 0 20 -32zM380 136q0 -48 -24 -88q-29 -48 -73 -48q-36 0 -66 40 q-43 60 -108 455q-2 14 -5.5 34.5t-8.5 47.5q-27 105 -27 111q0 33 24 33q53 0 184 -372q7 -20 19.5 -48t29.5 -65q18 -22 36.5 -45.5t18.5 -54.5z" />
<glyph unicode="X" horiz-adv-x="986" d="M900 1472q0 -32 -33 -90q-37 -79 -97 -194t-145 -267q-49 -76 -80 -76q-22 0 -22 28q0 24 43 120q37 84 74 206t75 287q2 13 7 30t13 40q22 42 64 42q46 0 75 -42q26 -38 26 -84zM484 877q0 -36 -20 -36q-51 0 -136 169q-8 16 -33 71.5t-68 151.5q-24 55 -58 101l-48 60 q-23 35 -23 72q0 43 23 84q27 47 67 47q106 0 178 -322q13 -57 24 -104.5t22 -87.5q4 -17 12 -42.5t19 -59.5q6 -13 12.5 -25.5t13.5 -25.5q15 -30 15 -53zM911 132q0 -46 -25 -86q-28 -46 -72 -46q-64 0 -113 138q-32 91 -69 280q-35 184 -48 215q-36 88 -36 108 q0 34 21 34q30 0 84 -87q19 -31 38 -70t38 -87q16 -41 31 -81t31 -82q26 -68 54 -107q11 -14 22 -29t22 -29q22 -31 22 -71zM436 737q0 -24 -40 -122q-35 -85 -68.5 -209.5t-67.5 -289.5q-2 -12 -6.5 -29.5t-12.5 -40.5q-22 -46 -67 -46q-42 0 -73 40q-27 37 -27 81 q0 33 29 94q13 22 25 44t23 45q29 65 59 129t59 129q101 203 145 203q22 0 22 -28z" />
<glyph unicode="Y" horiz-adv-x="728" d="M766 1472q0 -34 -34 -90q-37 -79 -96.5 -194t-144.5 -267q-49 -76 -80 -76q-23 0 -23 23q0 26 43 125q37 86 74 208.5t75 284.5q4 25 21 70q21 42 62 42q46 0 76 -42q27 -38 27 -84zM349 877q0 -37 -17 -37q-32 0 -89 83q-37 52 -150 310q-13 27 -27.5 52.5t-31.5 48.5 q-11 15 -23 30t-23 31q-23 35 -23 72q0 43 23 84q25 46 66 46q89 0 163 -263q23 -88 45.5 -176t45.5 -177l27 -51q14 -30 14 -53zM463 110q0 -44 -24 -74q-27 -34 -69 -34q-40 0 -68 34q-25 31 -25 72q0 7 3 42q13 174 45 519q13 126 49 126q21 0 29 -147q12 -293 48 -465 q12 -63 12 -73z" />
<glyph unicode="Z" horiz-adv-x="1016" d="M900 1416q0 -40 -55 -110q-124 -160 -234 -383q-55 -115 -74 -115q-20 0 -20 47q0 66 73 285q31 93 57.5 164.5t49.5 125.5q50 116 102 116q41 0 73 -45q28 -41 28 -85zM683 1500q0 -44 -94 -66q-55 -14 -144.5 -33.5t-217.5 -45.5q-25 -5 -31 -5q-37 0 -61 45 q-20 38 -20 79t20 79q24 44 62 44q12 0 56 -15q46 -17 121.5 -27t196.5 -17q112 -6 112 -38zM903 124q0 -42 -19 -79q-24 -45 -62 -45q-35 0 -91 14q-22 5 -44 11t-45 12l-212 47q-95 21 -95 66q0 36 218 45q77 3 138 17q10 3 66 21q42 15 63 15q37 0 63 -45q20 -38 20 -79z M478 749q0 -29 -36 -128q-21 -57 -50 -141t-66 -198q-20 -66 -27 -108q-2 -13 -6 -31t-10 -42q-20 -50 -66 -50t-77 40q-29 37 -29 83q0 30 27 80q60 114 120.5 222.5t122.5 214.5q48 82 76 82q21 0 21 -24z" />
<glyph unicode="[" horiz-adv-x="674" d="M562 1404q0 -40 -21 -65q-10 -13 -51 -47q-77 -64 -147 -179l-126 -210q-56 -95 -87 -95q-15 0 -15 27q0 38 98 287q37 95 61.5 155t37.5 86q87 177 154 177q40 0 69 -50q27 -44 27 -86zM557 147q0 -46 -24 -88q-28 -52 -70 -52q-15 0 -29 7q-59 27 -154 260 q-18 48 -48 118t-73 163q-47 86 -47 108q0 30 18 30q48 0 182 -192q43 -63 85 -124t84 -123q76 -36 76 -107z" />
<glyph unicode="\" horiz-adv-x="1016" d="M494 855q0 -47 -21 -47q-19 0 -73 115q-106 217 -234 383q-54 67 -54 115q0 42 30 83q31 42 71 42q48 0 97 -115q25 -58 52.5 -130.5t56.5 -161.5q75 -219 75 -284zM900 174q0 -46 -28 -83q-32 -41 -76 -41q-47 0 -68 51q-4 8 -16 73q-13 68 -48 178q-11 35 -34.5 102 t-60.5 167q-36 96 -36 128q0 24 21 24q27 0 75 -82q32 -56 92.5 -164.5t151.5 -272.5q27 -50 27 -80z" />
<glyph unicode="]" horiz-adv-x="682" d="M569 1003q0 -48 -25 -86q-27 -44 -72 -44q-22 0 -44 17q-21 16 -81 162q-57 139 -103.5 240.5t-84.5 167.5q-47 83 -47 108q0 29 18 29q48 0 216 -226q134 -178 197 -287q26 -44 26 -81zM543 711q0 -25 -49 -124q-67 -135 -165 -481q-4 -11 -10 -28t-15 -40 q-20 -38 -58 -38q-47 0 -77 43q-27 37 -27 87q0 36 36 89q23 34 55.5 90.5t74.5 136.5q153 289 215 289q20 0 20 -24z" />
<glyph unicode="^" horiz-adv-x="1069" d="M958 1277q0 -36 -19 -67q-21 -34 -55 -34q-18 0 -49 36q-45 42 -107.5 107t-144.5 156q-40 52 -40 82q0 21 14 21t70 -48q84 -74 270 -168q13 -6 39 -24q22 -21 22 -61zM520 1502q0 -24 -11 -48q-7 -15 -103 -90q-31 -23 -61 -45.5t-60 -45.5q-28 -23 -51.5 -43.5 t-43.5 -40.5q-49 -49 -61 -49q-17 0 -17 18q0 48 122 212q51 67 92.5 117t75.5 85q25 25 46 25q33 0 53 -32q19 -28 19 -63z" />
<glyph unicode="_" d="M635 -293q0 -38 -22 -69q-23 -35 -59 -35q-3 0 -10.5 1.5t-20.5 3.5q-54 9 -132 24t-184 35q-95 23 -95 67q0 31 111 37q72 1 213 12q17 2 65 15q43 13 55 13q37 0 59 -34q20 -32 20 -70z" />
<glyph unicode="`" horiz-adv-x="773" d="M660 1692q0 -34 -50 -34q-39 0 -232 42q-195 42 -215 57q-51 40 -51 111q0 42 24 83q27 46 68 46q20 0 70 -46q37 -34 109.5 -78t181.5 -101q95 -50 95 -80z" />
<glyph unicode="a" horiz-adv-x="752" d="M666 831q0 -32 -16 -32q-37 0 -110 163q-22 51 -43 102t-43 103q-4 10 -11 24t-18 33q-18 21 -35 43t-17 55q0 41 24 77q27 40 66 40q70 0 122 -223q14 -72 28.5 -144.5t28.5 -145.5q24 -90 24 -95zM343 1315q0 -24 -18 -73q-23 -78 -62.5 -193t-94.5 -270 q-37 -88 -62 -88q-19 0 -19 34q0 14 24 106q36 135 66 469q1 11 2.5 26.5t5.5 37.5q17 56 67 56q40 0 67 -33q24 -32 24 -72zM786 118q0 -118 -82 -118q-83 0 -83 109q0 19 3 60q2 20 3 34.5t1 24.5q0 82 -21 201q-10 50 -19.5 99t-18.5 99q-9 52 -9 91q0 53 20 53t55 -102 q24 -69 47.5 -137t46.5 -137q57 -177 57 -277zM602 324q0 -80 -59 -80q-22 0 -62 25q-34 20 -83.5 50t-115.5 72q-67 46 -67 84q0 22 22 22q39 0 126 -34q95 -38 137 -42q57 -6 76 -22q26 -23 26 -75zM216 655q0 -37 -8.5 -112t-25.5 -189q-35 -239 -55 -288 q-29 -66 -76 -66q-36 0 -60 34q-21 31 -21 69q0 41 49 164q37 97 132 372q25 72 42 72q23 0 23 -56z" />
<glyph unicode="b" horiz-adv-x="886" d="M737 1176q0 -31 -24 -59q-22 -28 -53 -28q-36 0 -97 60q-17 16 -42 35t-59 41q-38 26 -63 44t-39 29q-52 43 -52 92q0 28 15 28q11 0 97 -30q12 -4 30 -9t42 -13q245 -78 245 -190zM853 1001q0 -56 -37 -90q-22 -20 -231 -97q-209 -75 -241 -75q-28 0 -28 26q0 34 78 82 q76 47 116 71.5t45 27.5q89 59 145 121q48 52 68 52q38 0 64 -42q21 -35 21 -76zM271 1342q0 -19 -15 -80q-23 -91 -37.5 -199.5t-21.5 -237.5q-8 -134 -24 -134q-36 0 -46 112q-27 241 -27 468q0 167 83 167q36 0 61 -31q27 -30 27 -65zM785 528q0 -47 -21 -84 q-26 -44 -70 -44q-87 0 -262 117q-183 121 -183 206q0 22 15 22q9 0 88 -50q53 -33 134 -54q90 -24 199 -33q27 -1 78 -20q22 -19 22 -60zM829 314q0 -22 -175 -149q-83 -62 -123 -99q-21 -25 -50 -51.5t-66 -55.5q-8 -2 -13 -2q-38 0 -64 41q-21 34 -21 75q0 58 39 87 q19 15 184 86q32 14 80 34t112 48q45 17 65 17q32 0 32 -31zM273 98q0 -39 -23 -68t-61 -29q-36 0 -61 31q-24 28 -24 66q0 5 6.5 59t19.5 157l32 254q14 113 45 113q22 0 25 -134q1 -49 4.5 -122t11.5 -171q1 -15 15 -78q10 -46 10 -78z" />
<glyph unicode="c" horiz-adv-x="922" d="M756 1180q0 -39 -22 -73q-24 -40 -60 -40q-23 0 -132 92l-196 165q-61 52 -61 86q0 24 22 24q21 0 80 -30q34 -18 86.5 -42t124.5 -54q20 -3 48.5 -10.5t66.5 -18.5q43 -22 43 -99zM271 1342q0 -19 -15 -80q-23 -91 -37.5 -199.5t-21.5 -237.5q-8 -134 -24 -134 q-36 0 -46 112q-27 241 -27 470q0 165 83 165q36 0 61 -31q27 -30 27 -65zM819 257q0 -65 -45 -99q-21 -16 -194 -53q-167 -37 -207 -37q-47 0 -47 30q0 25 86 72q126 67 136 73q75 43 126 89q46 42 63 42q35 0 61 -41q21 -38 21 -76zM273 98q0 -39 -23 -68t-61 -29 q-36 0 -61 31q-24 28 -24 66q0 5 6.5 59t19.5 157l32 254q14 113 45 113q22 0 25 -134q1 -49 4.5 -122t11.5 -171q1 -15 15 -78q10 -46 10 -78z" />
<glyph unicode="d" horiz-adv-x="922" d="M756 1180q0 -39 -22 -73q-24 -40 -60 -40q-23 0 -132 92l-196 165q-61 52 -61 86q0 24 22 24q21 0 80 -30q34 -18 86.5 -42t124.5 -54q20 -3 48.5 -10.5t66.5 -18.5q43 -22 43 -99zM808 493q0 -38 -21 -66q-24 -30 -61 -30t-61 31q-23 29 -23 65q0 11 6 64.5t19 151.5 q5 43 12.5 106t17.5 148q15 114 46 114q23 0 25 -134q1 -49 5 -122t12 -172q1 -9 15 -78q4 -23 6 -42.5t2 -35.5zM271 1342q0 -19 -15 -80q-23 -91 -37.5 -199.5t-21.5 -237.5q-8 -134 -24 -134q-36 0 -46 112q-27 241 -27 470q0 165 83 165q36 0 61 -31q27 -30 27 -65z M819 257q0 -65 -45 -99q-21 -16 -194 -53q-167 -37 -207 -37q-47 0 -47 30q0 25 86 72q126 67 136 73q75 43 126 89q46 42 63 42q35 0 61 -41q21 -38 21 -76zM273 98q0 -39 -23 -68t-61 -29q-36 0 -61 31q-24 28 -24 66q0 5 6.5 59t19.5 157l32 254q14 113 45 113 q22 0 25 -134q1 -49 4.5 -122t11.5 -171q1 -15 15 -78q10 -46 10 -78z" />
<glyph unicode="e" horiz-adv-x="887" d="M820 1334q0 -37 -18 -71q-23 -41 -55 -41q-35 0 -81 13q-20 5 -40 10.5t-40 10.5l-190 42q-86 20 -86 59q0 30 206 41q60 3 115 14q7 2 22.5 6.5t40.5 12.5q45 14 57 14q32 0 53 -41q16 -33 16 -70zM271 1342q0 -5 -24 -116q-19 -85 -31 -184.5t-19 -216.5 q-8 -134 -24 -134q-36 0 -46 112q-27 241 -27 470q0 165 83 165q36 0 61 -31q27 -30 27 -65zM693 749q0 -94 -72 -94q-9 0 -28 4q-96 16 -285 54q-85 18 -85 60q0 28 100 34q31 1 62 1.5t63 1.5q75 3 123 19q45 14 49 14q73 0 73 -94zM810 132q0 -38 -18 -72 q-22 -40 -55 -40q-9 0 -164 35q-32 7 -79 17t-111 24q-84 19 -84 58q0 27 196 40q121 8 191 33q40 15 49 15q35 0 57 -40q18 -33 18 -70zM273 98q0 -39 -22 -67q-24 -30 -62 -30q-18 0 -33.5 8t-27 21.5t-18 31t-6.5 36.5q0 5 6.5 59t19.5 157l32 254q14 113 45 113 q20 0 25 -134q3 -90 4.5 -137.5t2.5 -53.5q3 -55 8.5 -102t13.5 -88q12 -59 12 -68z" />
<glyph unicode="f" horiz-adv-x="855" d="M820 1334q0 -37 -18 -71q-23 -41 -55 -41q-35 0 -81 13q-20 5 -40 10.5t-40 10.5l-190 42q-86 20 -86 59q0 30 206 41q60 3 115 14q7 2 22.5 6.5t40.5 12.5q45 14 57 14q32 0 53 -41q16 -33 16 -70zM271 1342q0 -6 -24 -118q-19 -87 -31 -186t-19 -213q-8 -134 -24 -134 q-36 0 -46 112q-27 241 -27 470q0 165 83 165q36 0 61 -31q27 -30 27 -65zM693 749q0 -94 -72 -94q-9 0 -28 4q-96 16 -285 54q-85 18 -85 60q0 28 100 34q31 1 62 1.5t63 1.5q75 3 123 19q45 14 49 14q73 0 73 -94zM273 98q0 -39 -22 -67q-24 -30 -62 -30q-18 0 -33.5 8 t-27 21.5t-18 31t-6.5 36.5q0 5 6.5 59t19.5 157l32 254q14 113 45 113q20 0 25 -134q3 -90 4.5 -137.5t2.5 -53.5q3 -55 8.5 -102t13.5 -88q12 -59 12 -68z" />
<glyph unicode="g" horiz-adv-x="897" d="M792 1311q0 -39 -19 -74q-23 -42 -57 -42q-49 0 -175 53q-44 20 -87 40t-87 40q-8 3 -19.5 8t-25.5 12q-33 19 -33 47q0 35 48 31h5q219 -18 249 -18h32q14 0 22 1q5 1 14.5 2t23.5 3q12 2 21.5 3t16.5 1q34 0 54 -38q17 -32 17 -69zM752 877q0 -40 -86 -60 q-151 -32 -242 -32q-122 0 -122 112q0 92 62 92q24 0 93 -26q105 -40 194 -52q101 -14 101 -34zM271 1342q0 -19 -15 -80q-23 -91 -37.5 -199.5t-21.5 -237.5q-8 -134 -24 -134q-36 0 -46 112q-27 243 -27 470q0 165 83 165q36 0 61 -31q27 -30 27 -65zM762 693 q0 -16 -16 -58q-20 -61 -21 -62q-5 -14 -8 -30.5t-5 -33.5q-1 -66 -21 -197q-5 -17 -11 -17q-27 0 -27 67q0 28 -4.5 68.5t-12.5 94.5q-8 55 -12 95.5t-4 68.5q0 96 73 96q69 0 69 -92zM797 168q0 -92 -105 -120q-243 -67 -345 -67q-45 0 -45 27t87 72q54 28 88 46.5 t49 26.5q38 22 69 44t56 45q46 42 64 42q36 0 60 -42q22 -35 22 -74zM273 98q0 -39 -23 -68t-61 -29q-36 0 -61 31q-24 28 -24 66q0 5 6.5 59t19.5 157l32 254q14 113 45 113q22 0 25 -134q1 -49 4.5 -122t11.5 -171q1 -15 15 -78q10 -46 10 -78z" />
<glyph unicode="h" horiz-adv-x="972" d="M870 1338q0 -21 -10 -65q-16 -82 -30 -385q-6 -131 -25 -131q-29 0 -44 114q-18 138 -31.5 245t-22.5 186q-3 25 -3 38q0 37 24 67q24 31 60 31q38 0 61 -32q21 -29 21 -68zM271 1342q0 -16 -15 -80q-23 -94 -37.5 -202.5t-21.5 -234.5q-8 -134 -24 -134q-36 0 -46 112 q-27 241 -27 470q0 165 83 165q36 0 61 -31q27 -30 27 -65zM693 701q0 -39 -21 -73q-24 -41 -60 -41q-54 0 -320 164q-71 44 -71 80q0 21 31 21q11 0 73 -15q111 -29 292 -29q76 0 76 -107zM869 96q0 -36 -27 -66q-26 -29 -60 -29q-83 0 -83 165q0 117 7 234t21 235 q12 112 44 112q18 0 26 -134q14 -249 58 -437q7 -29 10.5 -49t3.5 -31zM273 98q0 -39 -22 -67q-24 -30 -62 -30q-18 0 -33.5 8t-27 21.5t-18 31t-6.5 36.5q0 7 4.5 43.5t12.5 103.5l41 323q14 113 45 113q20 0 25 -134q2 -48 3.5 -95.5t3.5 -95.5q3 -55 8.5 -102.5 t13.5 -87.5q12 -59 12 -68z" />
<glyph unicode="i" horiz-adv-x="373" d="M271 1342q0 -16 -15 -80q-22 -92 -36.5 -200.5t-22.5 -236.5q-8 -134 -24 -134q-36 0 -46 112q-27 241 -27 468q0 167 83 167q36 0 61 -31q27 -30 27 -65zM273 98q0 -39 -22 -67q-24 -30 -62 -30q-18 0 -33.5 8t-27 21.5t-18 31t-6.5 36.5q0 5 4.5 42.5t14.5 109.5 l39 318q15 113 45 113q20 0 25 -134q4 -91 5.5 -138.5t1.5 -52.5q4 -55 9 -102t13 -88q12 -60 12 -68z" />
<glyph unicode="j" horiz-adv-x="930" d="M829 1332q0 -11 -3 -45t-10 -92q-5 -38 -11.5 -141t-16.5 -271q-4 -88 -27 -88q-14 0 -27 31q-18 42 -45 295q-27 235 -27 313q0 41 24 73q25 33 65 33q78 0 78 -108zM825 639q0 -21 -45 -109q-62 -126 -150 -434q-5 -20 -11 -34.5t-11 -25.5q-21 -36 -53 -36 q-41 0 -66 39q-25 34 -25 77q0 35 31 82q61 106 186 321q87 142 125 142q19 0 19 -22zM433 126q0 -42 -22 -77q-26 -41 -64 -41q-23 0 -45 18q-35 32 -102 184l-44 104l-44 104q-6 14 -15.5 34.5t-22.5 46.5q-41 74 -41 98q0 26 17 26q60 0 252 -309q11 -17 26.5 -39 t37.5 -48q15 -8 48 -35q19 -22 19 -66z" />
<glyph unicode="k" horiz-adv-x="930" d="M709 1248q0 -38 -32 -82q-11 -14 -35.5 -42.5t-63.5 -73.5q-34 -37 -83.5 -92.5t-116.5 -130.5q-56 -62 -73 -62q-19 0 -19 22q0 39 46 112q19 29 47.5 73t66.5 103q66 106 96 193q4 13 11 30t18 40q21 28 48 28q37 0 66 -41q24 -38 24 -77zM271 1342q0 -19 -15 -80 q-46 -184 -59 -437q-8 -134 -24 -134q-36 0 -46 112q-27 241 -27 468q0 167 83 167q36 0 61 -31q27 -30 27 -65zM829 181q0 -44 -20 -82q-23 -44 -64 -44q-27 0 -77 35q-138 100 -254 337q-8 20 -23 50t-35 68q-52 79 -52 97q0 19 16 19q63 0 196 -172q142 -188 184 -207 q21 -8 42 -14.5t43 -13.5q44 -21 44 -73zM273 98q0 -39 -23 -68t-61 -29q-36 0 -61 31q-24 28 -24 66q0 5 6.5 59t19.5 157l32 254q14 113 45 113q22 0 25 -134q1 -49 4.5 -122t11.5 -171q1 -15 15 -78q10 -46 10 -78z" />
<glyph unicode="l" horiz-adv-x="844" d="M271 1342q0 -6 -24 -118q-19 -87 -31 -186t-19 -213q-8 -134 -24 -134q-36 0 -46 112q-27 241 -27 470q0 165 83 165q36 0 61 -31q27 -30 27 -65zM810 132q0 -38 -18 -72q-22 -40 -55 -40q-9 0 -164 35q-32 7 -79 17t-111 24q-84 19 -84 58q0 27 196 40q121 8 191 33 q40 15 49 15q35 0 57 -40q18 -33 18 -70zM273 98q0 -39 -22 -67q-24 -30 -62 -30q-18 0 -33.5 8t-27 21.5t-18 31t-6.5 36.5q0 5 6.5 59t19.5 157l32 254q14 113 45 113q20 0 25 -134q3 -90 4.5 -137.5t2.5 -53.5q3 -55 8.5 -102t13.5 -88q12 -59 12 -68z" />
<glyph unicode="m" horiz-adv-x="1417" d="M1262 749q0 -28 -16 -28q-44 0 -113 202q-20 63 -39.5 126t-39.5 127q-50 150 -50 167q0 39 26 71q27 33 65 33q48 0 67 -55q4 -15 9 -68q21 -294 68 -469q23 -87 23 -106zM986 1324q0 -26 -17 -49q-8 -11 -16 -21l-16 -20q-14 -18 -46 -102q-120 -333 -166 -333 q-19 0 -19 34q0 11 22 93q3 14 6.5 32.5t7.5 43.5q8 53 17 105t17 106q30 154 63 197q26 35 58 35q40 0 67 -42q22 -35 22 -79zM688 749q0 -28 -19 -28q-31 0 -65 81q-37 85 -81 232q-54 175 -75 234q-20 54 -20 70q0 39 25 73q26 35 64 35q68 0 79 -122q7 -81 12.5 -140 t9.5 -96q17 -131 45 -233q25 -87 25 -106zM1382 101q0 -38 -21 -68q-23 -33 -60 -33q-53 0 -82 74q-19 49 -40 279q-18 204 -18 297q0 75 27 75q16 0 85 -236q11 -38 28 -94t40 -132q41 -126 41 -162zM411 1324q0 -27 -18 -49q-8 -11 -17 -22t-17 -22q-16 -20 -43 -99 q-117 -333 -166 -333q-21 0 -21 34q0 12 22 93q5 18 42 254q29 179 68 230q27 35 59 35q41 0 67 -42q24 -36 24 -79zM791 114q0 -106 -81 -106q-90 0 -90 177q0 113 30 374q12 102 32 102q19 0 31 -84q5 -30 19 -109t39 -209q20 -103 20 -145zM243 727q0 -40 -7 -99.5 t-21 -138.5q-27 -158 -27 -237q0 -11 1 -28t3 -39t3.5 -38t1.5 -27q0 -113 -81 -113q-83 0 -83 127q0 97 52 274q22 69 43 136.5t43 136.5q33 106 50 106q22 0 22 -60z" />
<glyph unicode="n" horiz-adv-x="972" d="M870 1338q0 -9 -2.5 -25.5t-7.5 -39.5q-20 -98 -30 -385q-5 -131 -25 -131q-29 0 -44 114q-18 137 -31.5 243.5t-22.5 187.5q-3 25 -3 38q0 37 24 67q24 31 60 31q38 0 61 -32q21 -29 21 -68zM653 755q0 -42 -22 -76q-25 -40 -65 -40q-23 0 -46 19q-23 20 -109 208 q-42 91 -66 148t-31 83q-7 24 -7 41q0 32 14 32q19 0 78 -84q18 -26 45.5 -57.5t64.5 -69.5q43 -45 71.5 -76t42.5 -48q30 -38 30 -80zM271 1342q0 -6 -24 -118q-19 -87 -31 -186t-19 -213q-8 -134 -24 -134q-36 0 -46 112q-27 241 -27 470q0 165 83 165q36 0 61 -31 q27 -30 27 -65zM869 96q0 -36 -27 -66q-26 -29 -60 -29q-83 0 -83 165q0 117 7 234t21 235q12 112 44 112q18 0 26 -134q14 -249 58 -437q7 -29 10.5 -49t3.5 -31zM273 98q0 -39 -22 -67q-24 -30 -62 -30q-18 0 -33.5 8t-27 21.5t-18 31t-6.5 36.5q0 5 6.5 59t19.5 157 l32 254q14 113 45 113q20 0 25 -134q3 -90 4.5 -137.5t2.5 -53.5q3 -55 8.5 -102t13.5 -88q12 -59 12 -68z" />
<glyph unicode="o" horiz-adv-x="949" d="M882 903q0 -40 -23 -77q-26 -41 -64 -41q-23 0 -43 16q-11 7 -81 168q-21 50 -42 98.5t-42 97.5q-17 32 -33 64l-32 64q-52 103 -52 117q0 28 17 28q45 0 196 -202q58 -78 101.5 -143t73.5 -117q24 -41 24 -73zM472 1264q0 -47 -64 -102q-35 -29 -68.5 -69t-65.5 -92 q-23 -38 -45.5 -76.5t-45.5 -77.5q-75 -120 -100 -120q-15 0 -15 24q0 35 36 128q28 64 54 129q35 91 57 145t32 73q76 160 137 160q35 0 64 -44q24 -39 24 -78zM858 639q0 -16 -44 -109q-46 -97 -149 -434q-29 -96 -78 -96q-41 0 -66 39q-24 34 -24 77q0 33 34 82 q46 69 117 204q136 259 193 259q17 0 17 -22zM466 126q0 -43 -22 -77q-26 -41 -65 -41q-22 0 -44 18q-39 33 -188 390q-10 27 -38 83q-42 75 -42 98q0 26 17 26q56 0 253 -309q12 -19 27.5 -40.5t34.5 -46.5q17 -9 46 -31q21 -23 21 -70z" />
<glyph unicode="p" horiz-adv-x="844" d="M764 1065q0 -16 -5.5 -31t-15.5 -27t-24 -19t-30 -7q-59 0 -143 99l-56 74t-57 74q-19 19 -37 38t-37 38q-51 55 -51 86q0 28 15 28q60 0 159 -66q38 -26 75 -52t75 -52q132 -74 132 -183zM810 799q0 -56 -36 -90q-24 -22 -230 -98t-242 -76q-29 0 -29 29q0 35 157 129 q158 95 227 170q48 52 68 52q39 0 64 -40q21 -35 21 -76zM271 1342q0 -19 -15 -80q-23 -91 -37.5 -199.5t-21.5 -237.5q-8 -134 -24 -134q-36 0 -46 112q-27 241 -27 468q0 167 83 167q36 0 61 -31q27 -30 27 -65zM273 98q0 -39 -23 -68t-61 -29q-36 0 -61 31q-24 28 -24 66 q0 5 6.5 59t19.5 157l32 254q14 113 45 113q22 0 25 -134q1 -49 4.5 -122t11.5 -171q1 -15 15 -78q10 -46 10 -78z" />
<glyph unicode="q" horiz-adv-x="949" d="M882 903q0 -40 -23 -77q-26 -41 -64 -41q-23 0 -42 16q-14 10 -82 168q-20 50 -41 98.5t-41 97.5q-19 41 -38 78t-39 72q-42 73 -42 95q0 28 17 28q43 0 213 -227q162 -218 177 -273q5 -20 5 -35zM472 1264q0 -47 -64 -102q-35 -29 -68.5 -69t-65.5 -92 q-23 -38 -45.5 -76.5t-45.5 -77.5q-75 -120 -100 -120q-15 0 -15 24q0 35 36 128q28 64 54 129q35 91 57 145t32 73q76 160 137 160q35 0 64 -44q24 -39 24 -78zM949 -11q0 -41 -21 -78q-24 -43 -62 -43q-56 0 -114 117q-8 16 -25.5 57.5t-44.5 109.5q-26 -83 -30 -93 q-26 -59 -66 -59t-65 39q-24 36 -24 77q0 26 46 105q16 26 32 53t33 54q-58 92 -58 125q0 27 16 27q25 0 85 -70q132 251 190 251q17 0 17 -22q0 -16 -37 -99q-24 -53 -47 -106.5t-45 -122.5q32 -53 70 -109.5t83 -117.5q8 -5 19.5 -13t25.5 -19q22 -22 22 -63zM466 126 q0 -43 -22 -77q-26 -41 -65 -41q-23 0 -44 18q-39 33 -188 390q-10 27 -38 83q-42 75 -42 98q0 26 17 26q58 0 253 -309q13 -19 28 -40.5t34 -46.5q17 -9 46 -31q21 -23 21 -70z" />
<glyph unicode="r" horiz-adv-x="863" d="M737 1176q0 -31 -24 -59q-22 -28 -53 -28q-36 0 -97 60q-17 16 -42 35t-59 41q-38 26 -63 44t-39 29q-52 43 -52 92q0 28 15 28q11 0 97 -30q12 -4 30 -9t42 -13q245 -78 245 -190zM805 957q0 -59 -37 -90q-25 -22 -231 -98q-204 -76 -241 -76q-29 0 -29 28q0 35 77 82 q75 45 115.5 69.5t46.5 28.5q90 60 147 120q49 52 68 52q39 0 63 -40q21 -35 21 -76zM271 1342q0 -19 -15 -80q-46 -184 -59 -437q-8 -134 -24 -134q-36 0 -46 112q-27 241 -27 468q0 167 83 167q36 0 61 -31q27 -30 27 -65zM829 181q0 -44 -20 -82q-23 -44 -64 -44 q-27 0 -77 35q-138 100 -254 337q-8 20 -23 50t-35 68q-52 79 -52 97q0 19 16 19q63 0 196 -172q142 -188 184 -207q21 -8 42 -14.5t43 -13.5q44 -21 44 -73zM273 98q0 -39 -23 -68t-61 -29q-36 0 -61 31q-24 28 -24 66q0 5 6.5 59t19.5 157l32 254q14 113 45 113 q22 0 25 -134q1 -49 4.5 -122t11.5 -171q1 -15 15 -78q10 -46 10 -78z" />
<glyph unicode="s" horiz-adv-x="937" d="M820 1334q0 -37 -18 -71q-23 -41 -55 -41q-35 0 -81 13q-20 5 -40 10.5t-40 10.5l-190 42q-86 20 -86 59q0 32 200 41q31 1 61 4.5t60 9.5q7 2 22.5 6.5t40.5 12.5q45 14 57 14q32 0 53 -41q16 -33 16 -70zM271 1342q0 -19 -15 -80q-23 -91 -37.5 -199.5t-21.5 -237.5 q-8 -134 -24 -134q-36 0 -46 112q-27 241 -27 470q0 165 83 165q36 0 61 -31q27 -30 27 -65zM693 749q0 -94 -72 -94q-9 0 -28 4q-96 16 -285 54q-85 18 -85 60q0 31 100 34q65 -2 193 9q6 1 19 5t33 11q33 11 52 11q73 0 73 -94zM838 98q0 -20 -6.5 -37.5t-17.5 -30.5 t-27 -21t-34 -8q-36 0 -61 31q-23 29 -23 66q0 8 3 25t8 43q6 29 10.5 66t8.5 82q4 48 6.5 105.5t4.5 127.5q3 134 25 134q31 0 45 -113q10 -73 24 -180.5t31 -253.5q3 -27 3 -36zM643 154q0 -39 -84 -58q-54 -12 -135.5 -30t-190.5 -42q-20 -4 -27 -4q-34 0 -56 40 q-18 36 -18 72t18 71q22 39 57 39q10 0 49 -15q39 -14 111.5 -24t175.5 -15q100 -4 100 -34z" />
<glyph unicode="t" horiz-adv-x="727" d="M693 1310q0 -37 -18 -71q-22 -40 -57 -40q-9 0 -96 25q-14 4 -30 7.5t-36 6.5q-57 8 -137 14.5t-186 11.5q-100 4 -100 34q0 77 226 110q69 10 142 15t152 5q140 0 140 -118zM445 1122q0 -26 -3.5 -60t-10.5 -76q-8 -54 -13 -88t-7 -48q0 -77 -22 -208q-4 -13 -11 -13 q-37 0 -58 114q-43 230 -43 357q0 119 84 119q37 0 60.5 -29t23.5 -68zM443 94q0 -35 -27 -65q-26 -30 -60 -30q-82 0 -82 165q0 98 27 343q13 112 43 112q17 0 26 -133q8 -118 58 -312q15 -57 15 -80z" />
<glyph unicode="u" horiz-adv-x="998" d="M896 1332q0 -22 -12 -137q-5 -38 -12 -141t-17 -271q-4 -88 -26 -88q-30 0 -47 122q-21 165 -39 330q-7 66 -10.5 112t-3.5 75q0 41 24 73q25 33 65 33q78 0 78 -108zM277 1338q0 -17 -20 -82q-34 -111 -40 -354q-4 -256 -36 -256q-25 0 -39 119q-42 385 -42 453 q0 220 87 220q19 0 35.5 -8.5t28.5 -22t19 -32t7 -37.5zM893 639q0 -20 -46 -109q-61 -122 -150 -434q-27 -96 -76 -96q-41 0 -66 39q-23 35 -23 77q0 35 31 82q30 54 76 133.5t109 187.5q87 142 125 142q20 0 20 -22zM500 126q0 -42 -22 -77q-26 -41 -64 -41q-23 0 -44 18 q-35 32 -103 184q-22 52 -43.5 104t-43.5 104q-5 14 -14.5 34.5t-23.5 46.5q-42 75 -42 98q0 26 17 26q59 0 253 -309q19 -35 63 -87q15 -8 48 -35q19 -22 19 -66z" />
<glyph unicode="v" horiz-adv-x="752" d="M786 1334q0 -41 -52 -164q-18 -44 -51 -136t-82 -235q-26 -72 -42 -72q-23 0 -23 56q0 35 8.5 110t25.5 191q34 241 54 288q28 66 78 66q38 0 63 -34q21 -32 21 -70zM191 717q0 -50 -18 -50q-21 0 -56 101q-23 69 -47 138t-47 138q-53 180 -53 276q0 119 77 119 q83 0 83 -110q0 -18 -3 -54t-3 -55q0 -78 41 -307q26 -148 26 -196zM666 713q0 -11 -24 -105q-20 -75 -37 -192t-31 -278q-1 -11 -2.5 -27t-5.5 -37q-17 -56 -72 -56q-37 0 -62 36q-23 32 -23 70q0 16 49 164q20 63 40.5 126t40.5 127q70 204 107 204q20 0 20 -32zM378 118 q0 -41 -23 -78q-25 -40 -66 -40q-32 0 -56 32q-41 57 -107 409q-2 11 -6 29t-9 41q-25 93 -25 97q0 31 15 31q40 0 120 -188q96 -227 105 -237q18 -21 35 -42t17 -54z" />
<glyph unicode="w" horiz-adv-x="1282" d="M1315 1344q0 -45 -41 -162q-23 -66 -52 -161t-64 -222q-22 -76 -37 -76q-28 0 -28 76q0 96 18 296q10 115 20 184.5t21 94.5q30 72 82 72q38 0 60 -34q21 -29 21 -68zM724 1334q0 -29 -4.5 -63.5t-12.5 -76.5q-8 -35 -15 -69.5t-14 -69.5q-10 -48 -17.5 -93.5 t-14.5 -90.5q-14 -86 -32 -86q-19 0 -31 103q-30 262 -30 374q0 176 90 176q81 0 81 -104zM1195 697q0 -21 -24 -106q-43 -157 -67 -469q-2 -23 -9 -66q-15 -56 -70 -56q-38 0 -63 33q-25 32 -25 71q0 13 50 166q37 125 126 376q34 81 66 81q16 0 16 -30zM176 721 q0 -62 -22 -62q-19 0 -94 242q-90 298 -90 411q0 126 80 126q36 0 59 -33q21 -29 21 -67q0 -12 -1.5 -30l-3.5 -42q-2 -23 -3 -41t-1 -30q0 -80 27 -237q28 -155 28 -237zM918 122q0 -42 -23 -79q-25 -43 -66 -43q-31 0 -58 36q-32 46 -61 196q-9 54 -18 107t-17 107 q-1 5 -6.5 27.5t-15.5 61.5q-15 64 -15 84q0 31 19 31q47 0 166 -336q7 -19 18 -44.5t28 -57.5q17 -20 33 -40.5t16 -49.5zM620 697q0 -16 -24 -106q-44 -163 -67 -469q-1 -11 -3 -27.5t-7 -38.5q-20 -56 -68 -56q-39 0 -66 35q-24 31 -24 73q0 18 19 69q23 79 62 196 t94 273q34 81 66 81q18 0 18 -30zM343 122q0 -42 -23 -80q-26 -42 -67 -42q-34 0 -59 36q-45 63 -85 339l-10 70q-2 12 -5 30.5t-8 43.5q-25 93 -25 100q0 31 22 31q52 0 166 -336q6 -20 16.5 -45t26.5 -57q17 -20 34 -40.5t17 -49.5z" />
<glyph unicode="x" horiz-adv-x="886" d="M810 1324q0 -26 -30 -80q-33 -72 -87.5 -175t-130.5 -241q-43 -67 -70 -67q-22 0 -22 24q0 18 39 107q65 150 134 446q2 11 7 26.5t12 35.5q21 38 60 38t65 -39q23 -35 23 -75zM436 789q0 -32 -19 -32q-44 0 -130 170q-51 112 -102 222q-8 17 -16 29.5t-16 22.5 q-11 13 -22.5 27t-21.5 28.5t-16 30.5t-6 34q0 38 21 76q26 41 61 41q60 0 110 -119q31 -77 68 -242q37 -163 52 -194q37 -78 37 -94zM819 118q0 -43 -21 -77q-26 -41 -64 -41q-74 0 -128 204q-14 69 -27.5 136t-27.5 136q-7 31 -13 54.5t-12 39.5q-34 83 -34 97q0 30 20 30 q28 0 75 -78q17 -28 38 -76t47 -117q24 -65 46.5 -112t42.5 -78q20 -26 39 -53.5t19 -64.5zM393 663q0 -18 -37 -110q-53 -131 -121 -450q-4 -19 -18 -64q-23 -39 -59 -39q-40 0 -67 38q-24 34 -24 76q0 24 28 76q31 73 82.5 179.5t124.5 248.5q44 71 70 71q21 0 21 -26z " />
<glyph unicode="y" horiz-adv-x="654" d="M689 1324q0 -28 -30 -80q-33 -72 -87.5 -175t-131.5 -241q-43 -67 -70 -67q-21 0 -21 24q0 20 38 107q67 152 135 446q5 22 18 62q21 38 61 38q38 0 64 -39q24 -35 24 -75zM314 789q0 -32 -18 -32q-46 0 -130 170q-26 56 -51.5 111t-51.5 111q-19 36 -32 52 q-11 14 -21 27t-21 26q-19 31 -19 66q0 39 19 76q22 42 59 42q60 0 110 -119q14 -38 31 -98t36 -145q36 -161 52 -193q37 -78 37 -94zM416 98q0 -39 -23 -68t-60 -29t-61 31q-23 29 -23 66q0 4 3 36q5 78 15.5 194.5t24.5 272.5q12 114 45 114q20 0 26 -132 q5 -132 16 -235.5t27 -181.5q10 -50 10 -68z" />
<glyph unicode="z" horiz-adv-x="914" d="M810 1275q0 -35 -49 -99q-120 -159 -211 -345q-50 -104 -66 -104q-20 0 -20 41q0 59 67 257q54 163 96 261q45 106 92 106q37 0 64 -40q27 -39 27 -77zM614 1350q0 -40 -83 -60q-55 -13 -135.5 -31t-189.5 -41q-19 -4 -29 -4q-34 0 -55 41q-19 34 -19 71q0 38 19 72 q22 40 56 40q7 0 49 -14q75 -26 289 -40q98 -6 98 -34zM813 112q0 -37 -18 -71q-23 -41 -55 -41q-35 0 -83 13l-81 21l-190 42q-84 19 -84 58q0 34 203 43q112 5 184 31q42 15 49 15q35 0 57 -40q18 -35 18 -71zM430 673q0 -23 -33 -114q-13 -33 -31 -82t-41 -115 q-18 -54 -31.5 -105.5t-23.5 -100.5q-4 -20 -15 -64q-20 -47 -64 -47q-38 0 -65 37q-26 35 -26 74q0 13 6 33q4 15 110 204l127 228q42 74 68 74q19 0 19 -22z" />
<glyph unicode="{" horiz-adv-x="674" d="M562 1404q0 -40 -21 -65q-10 -13 -51 -47q-77 -64 -147 -179l-126 -210q-56 -95 -87 -95q-15 0 -15 27q0 38 98 287q37 95 61.5 155t37.5 86q87 177 154 177q40 0 69 -50q27 -44 27 -86zM557 147q0 -46 -24 -88q-28 -52 -70 -52q-15 0 -29 7q-59 27 -154 260 q-18 48 -48 118t-73 163q-47 86 -47 108q0 30 18 30q48 0 182 -192q43 -63 85 -124t84 -123q76 -36 76 -107z" />
<glyph unicode="|" horiz-adv-x="414" d="M301 1492q0 -19 -16 -90q-25 -108 -41 -228t-24 -257q-8 -150 -29 -150q-35 0 -49 125q-30 271 -30 520q0 185 93 185q38 0 67 -33q29 -34 29 -72zM302 110q0 -44 -24 -74q-27 -34 -69 -34q-40 0 -68 34q-24 31 -24 72q0 13 4.5 55.5t14.5 115.5l43 352q16 126 50 126 q23 0 28 -147q4 -100 6 -153t2 -61q4 -62 10.5 -115t15.5 -98q11 -61 11 -73z" />
<glyph unicode="}" horiz-adv-x="682" d="M569 1003q0 -48 -25 -86q-27 -44 -72 -44q-22 0 -44 17q-21 16 -81 162q-57 139 -103.5 240.5t-84.5 167.5q-47 83 -47 108q0 29 18 29q48 0 216 -226q134 -178 197 -287q26 -44 26 -81zM543 711q0 -25 -49 -124q-67 -135 -165 -481q-4 -11 -10 -28t-15 -40 q-20 -38 -58 -38q-47 0 -77 43q-27 37 -27 87q0 36 36 89q23 34 55.5 90.5t74.5 136.5q153 289 215 289q20 0 20 -24z" />
<glyph unicode="~" horiz-adv-x="1022" d="M909 1458q0 -20 -18 -48q-90 -139 -238 -139q-62 0 -138 79q-75 80 -116 80q-76 0 -131 -49q-28 -25 -69 -92q-30 -48 -49 -48q-38 0 -38 39q0 108 92 211q94 106 202 106q46 0 121 -80q76 -79 141 -79q96 0 152 60q24 24 38 24q51 0 51 -64z" />
<glyph unicode="&#xa1;" horiz-adv-x="449" d="M337 1046q0 -54 -28 -98q-33 -51 -84 -51q-52 0 -85 51q-28 43 -28 98q0 56 28 99q33 51 85 51q51 0 84 -51q28 -44 28 -99zM337 -153q0 -244 -93 -244q-21 0 -38.5 8.5t-30 22.5t-20 33t-7.5 40q0 28 3.5 62.5t10.5 77.5q8 57 13 91t7 47q12 112 12 297q1 114 2 188 t3 109q7 150 58 150q36 0 50 -146q7 -61 12 -149.5t10 -206.5q4 -115 6 -209.5t2 -170.5z" />
<glyph unicode="&#xa2;" horiz-adv-x="1023" d="M841 1322q0 -45 -23 -88q-26 -50 -69 -50q-26 0 -90 52q-22 19 -43 37t-43 37q-1 -41 -6 -99.5t-16 -136.5q-6 -22 -14 -22q-35 0 -48 126q-7 58 -11.5 113t-8.5 109q-23 19 -45 37.5t-44 37.5q-64 58 -64 93q0 24 24 24q29 0 121 -48q-3 84 -3 140q0 197 93 197 q21 0 38.5 -8.5t30.5 -22.5t20.5 -32.5t7.5 -39.5q0 -15 -18 -90q-11 -48 -20 -99.5t-17 -108.5q77 -34 144 -46q56 -10 78 -32q26 -24 26 -80zM301 1492q0 -22 -16 -90q-26 -109 -42 -229.5t-23 -255.5q-6 -150 -29 -150q-35 0 -49 125q-30 274 -30 522q0 183 93 183 q38 0 67 -33q29 -34 29 -72zM911 284q0 -69 -51 -108q-23 -19 -267 -68q3 -42 8.5 -82.5t13.5 -78.5q12 -54 12 -74q0 -44 -24 -74q-27 -34 -69 -34q-41 0 -66 33q-26 32 -26 73q0 20 5.5 72.5t16.5 138.5q-35 -6 -52 -6q-49 0 -49 34q0 31 118 92q5 45 10 88.5t10 87.5 q22 139 53 139q21 0 29 -116q1 -36 1.5 -72t1.5 -73q95 52 163 114q52 45 70 45q42 0 69 -46q23 -41 23 -85zM302 110q0 -44 -24 -74q-27 -34 -69 -34q-40 0 -68 34q-24 31 -24 72q0 27 18 165l44 358q16 126 50 126q23 0 28 -147q1 -36 2.5 -89t4.5 -125q7 -114 27 -213 q5 -29 8 -47t3 -26z" />
<glyph unicode="&#xa5;" horiz-adv-x="953" d="M878 1472q0 -33 -33 -90q-38 -79 -98 -193.5t-144 -267.5q-49 -76 -80 -76q-23 0 -23 28q0 22 43 120q73 166 148 493q2 13 8 30t14 40q21 41 67 41q43 0 72 -41q26 -40 26 -84zM461 877q0 -36 -19 -36q-52 0 -137 169q-25 57 -49.5 112t-49.5 111q-28 60 -59 101l-24 30 t-25 30q-24 34 -24 72q0 43 24 84q29 47 68 47q91 0 165 -264l44 -176t45 -176q7 -13 13 -25.5t13 -25.5q15 -30 15 -53zM813 269q0 -102 -88 -102q4 0 -15 2.5t-62 7.5l-86 11q12 -65 12 -78q0 -44 -24 -74q-25 -34 -68 -34q-44 0 -69 36q-23 32 -23 77q0 7 1.5 29.5 t5.5 61.5q-256 27 -256 89q0 40 120 40h147q3 42 8 104.5t12 147.5q-67 8 -107.5 13.5t-56.5 8.5q-123 25 -123 72q0 32 137 40h167q13 75 38 75q20 0 27 -73q54 3 96.5 9t70.5 12t42 10.5t11 4.5q38 0 63 -34q20 -32 20 -72q0 -38 -21 -68q-24 -34 -60 -34q-1 0 -23.5 3 t-67.5 10q-17 2 -47 5.5t-75 7.5q7 -142 18 -238q23 2 58 6.5t81 12.5l54 16q39 0 63 -35q20 -31 20 -70z" />
<glyph unicode="&#xa6;" horiz-adv-x="380" d="M274 1342q0 -17 -16 -80q-41 -178 -56 -437q-8 -134 -25 -134q-33 0 -45 112q-14 125 -21 241t-7 227q0 167 83 167q36 0 61 -31q26 -31 26 -65zM276 98q0 -39 -23.5 -68t-60.5 -29q-83 0 -83 116q0 2 4.5 35t12.5 98q12 106 39 318q15 113 45 113q20 0 25 -134 q2 -48 3.5 -95.5t3.5 -95.5q4 -55 9 -102.5t13 -87.5q12 -60 12 -68z" />
<glyph unicode="&#xa8;" horiz-adv-x="823" d="M712 1847q0 -55 -28 -98q-35 -51 -84 -51q-54 0 -85 51q-28 43 -28 98q0 56 28 99q32 50 85 50q49 0 84 -50q28 -44 28 -99zM337 1847q0 -55 -28 -98q-33 -51 -84 -51q-52 0 -85 51q-28 43 -28 98q0 56 28 99q33 50 85 50q51 0 84 -50q28 -44 28 -99z" />
<glyph unicode="&#xa9;" horiz-adv-x="1054" d="M979 1003q0 -48 -24 -85q-29 -45 -71 -45q-25 0 -45 16t-81 163q-113 273 -189 408q-46 79 -46 108t17 29q49 0 219 -225q70 -94 118.5 -165.5t77.5 -122.5q24 -44 24 -81zM656 993q0 -48 -35 -48q-6 0 -83 62q-80 66 -80 81q0 10 11 10q6 0 32 -14q49 -16 137 -51 q18 -9 18 -40zM525 1404q0 -39 -22 -65q-11 -12 -51 -47q-40 -34 -76.5 -78t-70.5 -101l-126 -210q-56 -95 -87 -95q-16 0 -16 35q0 24 100 279q70 181 99 241q87 177 153 177q40 0 70 -49q27 -44 27 -87zM454 1060q0 -24 -9 -61q-6 -24 -9.5 -39t-4.5 -22q-6 -41 -9 -95 t-10 -54t-11 15q-20 60 -20 227q0 69 38 69q35 0 35 -40zM682 608q0 -25 -19 -40q-7 -6 -80 -23q-71 -15 -88 -15q-19 0 -19 11q0 9 37.5 29.5t107.5 68.5q22 18 27 18q34 0 34 -49zM955 711q0 -22 -50 -124q-33 -67 -74.5 -186.5t-92.5 -294.5q-3 -11 -9 -28t-14 -40 q-21 -38 -59 -38q-46 0 -77 43q-26 38 -26 87q0 36 36 89q23 33 55 89.5t75 137.5q153 289 214 289q22 0 22 -24zM454 541q0 -41 -35 -41t-35 41q0 25 24 196q6 48 19 48q7 0 9 -54.5t13 -160.5q2 -15 3.5 -22.5t1.5 -6.5zM519 146q0 -46 -24 -88q-29 -50 -70 -50 q-26 0 -52 22q-46 37 -130 244q-18 48 -48.5 118t-73.5 163q-47 83 -47 108q0 30 19 30q50 0 165 -166q36 -56 72 -111l72 -110q8 -12 18.5 -25t22.5 -27q76 -37 76 -108z" />
<glyph unicode="&#xab;" horiz-adv-x="973" d="M861 1404q0 -39 -20 -65q-5 -5 -17.5 -17t-34.5 -30q-78 -65 -146 -179l-126 -210q-57 -95 -89 -95q-15 0 -15 26q0 30 100 288q70 181 99 241q87 177 154 177q40 0 70 -49q25 -43 25 -87zM562 1404q0 -40 -21 -65q-10 -13 -51 -47q-77 -64 -147 -179l-126 -210 q-56 -95 -87 -95q-15 0 -15 27q0 38 98 287q37 95 61.5 155t37.5 86q87 177 154 177q42 0 70 -49q26 -44 26 -87zM855 139q0 -46 -23 -84q-26 -45 -70 -45q-26 0 -52 20q-46 36 -130 244q-18 48 -48.5 118t-73.5 163q-46 85 -46 108q0 30 18 30q47 0 164 -167 q37 -56 73 -110.5t72 -109.5q10 -13 20 -25.5t21 -26.5q75 -38 75 -115zM557 147q0 -46 -24 -88q-28 -52 -70 -52q-15 0 -29 7q-59 27 -154 260q-18 48 -48 118t-73 163q-47 86 -47 108q0 30 18 30q48 0 182 -192q43 -63 85 -124t84 -123q76 -36 76 -107z" />
<glyph unicode="&#xad;" d="M635 833q0 -37 -22 -68q-24 -36 -59 -36q-11 0 -31 4q-54 10 -132 25t-184 35q-95 21 -95 66q0 30 111 38q36 0 89 3t124 8q15 1 62 17q39 12 62 12q36 0 56 -36q19 -29 19 -68z" />
<glyph unicode="&#xae;" horiz-adv-x="1054" d="M979 1003q0 -48 -24 -85q-29 -45 -71 -45q-25 0 -45 16t-81 163q-113 273 -189 408q-46 79 -46 108t17 29q49 0 219 -225q70 -94 118.5 -165.5t77.5 -122.5q24 -44 24 -81zM639 981q0 -36 -32 -36q-21 0 -125 88q-22 16 -22 38q0 12 7 12q3 0 40 -14q132 -51 132 -88z M525 1404q0 -39 -22 -65q-11 -12 -51 -47q-40 -34 -76.5 -78t-70.5 -101l-126 -210q-56 -95 -87 -95q-16 0 -16 35q0 24 100 279q70 181 99 241q87 177 153 177q40 0 70 -49q27 -44 27 -87zM666 888q0 -23 -13 -33q-12 -11 -97 -42q-85 -32 -101 -32q-12 0 -12 10q0 8 20 23 q25 16 60 41.5t81 61.5q21 22 28 22q34 0 34 -51zM445 1050q0 -23 -9 -62q-6 -24 -9.5 -39.5t-4.5 -22.5q-2 -20 -4 -42.5t-4 -48.5q-2 -56 -9 -56q-31 0 -31 242q0 69 37 69q34 0 34 -40zM677 568q0 -55 -38 -55q-5 0 -28 17q-20 16 -39.5 37t-36.5 48l-54 102 q-4 6 -9.5 16t-13.5 24q-1 10 8 10q25 0 78 -69q61 -78 78 -85q9 -4 19 -7.5t18 -8.5t13 -12t5 -17zM955 711q0 -22 -50 -124q-33 -67 -74.5 -186.5t-92.5 -294.5q-3 -11 -9 -28t-14 -40q-21 -38 -59 -38q-46 0 -77 43q-26 38 -26 87q0 36 36 89q23 33 55 89.5t75 137.5 q153 289 214 289q22 0 22 -24zM445 532q0 -41 -34 -41q-36 0 -36 36q0 10 6 59.5t19 140.5q7 48 17 48q8 0 10 -54t13 -162q2 -14 3.5 -20.5zM519 146q0 -46 -24 -88q-29 -50 -70 -50q-26 0 -52 22q-46 37 -130 244q-18 48 -48.5 118t-73.5 163q-47 83 -47 108q0 30 19 30 q50 0 165 -166q36 -56 72 -111l72 -110q8 -12 18.5 -25t22.5 -27q76 -37 76 -108z" />
<glyph unicode="&#xaf;" d="M635 1494q0 -38 -22 -69q-23 -35 -59 -35q-3 0 -10.5 1.5t-20.5 3.5q-54 9 -132 24t-184 35q-95 23 -95 66q0 32 111 37q72 1 213 12q8 1 24.5 5t40.5 11q45 12 55 12q37 0 59 -34q20 -31 20 -69z" />
<glyph unicode="&#xb0;" horiz-adv-x="525" d="M412 1398q0 -73 -38 -132q-42 -67 -113 -67q-67 0 -111 68q-38 59 -38 131t38 131q44 68 111 68q71 0 113 -67q38 -59 38 -132zM322 1398q0 30 -16.5 54.5t-44.5 24.5q-26 0 -44 -27q-15 -23 -15 -52q0 -79 59 -79q27 0 45 28q16 23 16 51z" />
<glyph unicode="&#xb1;" d="M635 835q0 -104 -88 -104q-29 0 -117 18q1 -11 4.5 -30t8.5 -47q9 -48 9 -77q0 -41 -19 -72q-23 -38 -59 -38q-35 0 -58 38q-20 34 -20 70q0 6 4.5 50t12.5 128q-54 11 -83.5 16.5t-34.5 7.5q-83 24 -83 64q0 28 94 37l120 3q27 283 68 283q7 0 13 -18q8 -26 12 -91 t5 -168q19 2 37.5 6t35.5 10q48 16 56 16q38 0 61 -33q21 -30 21 -69zM635 103q0 -37 -22 -68q-24 -35 -59 -35q-11 0 -31 4q-200 34 -316 60q-95 23 -95 66q0 32 111 38q36 0 89 2.5t124 7.5q16 1 61 17q38 13 63 13q36 0 56 -36q19 -31 19 -69z" />
<glyph unicode="&#xb4;" horiz-adv-x="773" d="M660 1868q0 -70 -50 -111q-20 -14 -215 -58q-193 -41 -231 -41q-52 0 -52 34q0 29 97 80q123 64 150 81q42 25 76.5 49t62.5 49q52 46 71 46q41 0 68 -46q23 -41 23 -83z" />
<glyph unicode="&#xb6;" horiz-adv-x="1777" d="M1664 1442q0 -27 -104 -38q-65 -5 -128 -6q-56 -3 -94.5 -6t-61.5 -5q-88 -9 -154 -27q-105 -28 -109 -28q-37 0 -61 45q-21 37 -21 79q0 130 156 130q89 0 169.5 -5.5t155.5 -16.5q252 -38 252 -122zM1394 1248q0 -77 -12 -182t-37 -241q-23 -126 -65 -126 q-21 0 -28 148q-5 87 -24 228q-21 145 -21 171q0 41 26 76q25 34 67 34q21 0 38.5 -9t29.5 -24t19 -34.5t7 -40.5zM900 1412q0 -246 -30 -520q-14 -125 -50 -125q-21 0 -28 150q-7 138 -23 258.5t-41 226.5q-16 64 -16 90q0 21 7.5 40.5t20.5 33.5t31.5 22.5t39.5 8.5 q89 0 89 -185zM669 1544q0 -36 -55 -95q-20 -21 -41 -42t-41 -42q-31 -42 -62 -83t-63 -83q-93 -112 -158 -112q-36 0 -61 30q-25 29 -25 65q0 89 61 144q8 8 41.5 30.5t92.5 60.5l141 99q94 60 154 60q16 0 16 -32zM1398 181q0 -181 -93 -181q-21 0 -38.5 8t-30 22.5 t-20 33t-7.5 39.5q0 43 25 142q34 138 36 147q7 36 11.5 72.5t7.5 74.5q12 150 29 150q35 0 49 -125q16 -135 23.5 -230.5t7.5 -152.5zM710 625q0 -30 -33 -30q-40 0 -269 83q-227 84 -255 109q-41 38 -41 99q0 45 25 85q27 45 70 45q22 0 75 -57q69 -78 164 -136l175 -108 q89 -56 89 -90zM896 108q0 -42 -25 -73q-27 -34 -68 -34q-40 0 -67 34q-26 35 -26 75q0 16 12 73q13 67 21 165q8 87 12 262q4 147 28 147q32 0 50 -126q20 -146 35 -265.5t25 -215.5q3 -27 3 -42z" />
<glyph unicode="&#xb7;" horiz-adv-x="449" d="M337 799q0 -55 -28 -99q-33 -50 -84 -50q-52 0 -85 50q-28 43 -28 99q0 55 28 98q33 51 85 51q51 0 84 -51q28 -44 28 -98z" />
<glyph unicode="&#xb8;" horiz-adv-x="402" d="M289 -71q0 -35 -72 -180q-72 -146 -93 -146q-12 0 -12 40q0 47 32 143q33 93 33 143q0 71 55 71q57 0 57 -71z" />
<glyph unicode="&#xbb;" horiz-adv-x="981" d="M869 1003q0 -48 -25 -86q-29 -44 -74 -44q-23 0 -42 16q-20 17 -80 163q-57 137 -104.5 238t-85.5 170q-46 82 -46 108q0 29 18 29q49 0 218 -226q132 -179 196 -287q25 -43 25 -81zM569 1003q0 -48 -25 -86q-27 -44 -72 -44q-22 0 -44 17q-21 16 -81 162 q-57 139 -103.5 240.5t-84.5 167.5q-47 83 -47 108q0 29 18 29q48 0 216 -226q134 -178 197 -287q26 -44 26 -81zM844 711q0 -21 -50 -124q-35 -72 -76.5 -191.5t-90.5 -289.5q-3 -11 -9 -28t-14 -40q-23 -38 -59 -38q-48 0 -76 43q-27 37 -27 87q0 35 36 89q51 77 130 227 q153 289 214 289q22 0 22 -24zM543 711q0 -25 -49 -124q-67 -135 -165 -481q-4 -11 -10 -28t-15 -40q-20 -38 -58 -38q-47 0 -77 43q-27 37 -27 87q0 36 36 89q23 34 55.5 90.5t74.5 136.5q153 289 215 289q20 0 20 -24z" />
<glyph unicode="&#xbf;" horiz-adv-x="1043" d="M930 1056q0 -54 -28 -98q-33 -51 -84 -51t-84 51q-28 43 -28 98q0 56 28 99q33 50 84 50t84 -50q28 -44 28 -99zM930 356q0 -209 -92 -209q-38 0 -62 34q-20 32 -20 71q0 -1 4.5 21.5t12.5 67.5q7 35 15.5 116.5t18.5 209.5q12 150 43 150q80 0 80 -461zM749 440 q0 -25 -22 -38q-36 -24 -164 -43q-45 -7 -90 -13l-90 -12q-11 -2 -19 -3t-12 -1q-35 0 -59 35q-22 31 -22 68q0 38 22 69q24 35 60 35q12 0 56 -15q104 -38 229 -45q111 -8 111 -37zM896 -251q0 -42 -19 -79q-26 -44 -63 -44q-14 0 -180 38q-35 8 -87.5 19t-124.5 26 q-93 21 -93 67q0 35 213 43q124 4 216 39q40 15 55 15q37 0 63 -45q20 -38 20 -79zM298 -287q0 -21 -7 -41t-19 -35t-29.5 -24t-38.5 -9q-41 0 -66 33q-26 34 -26 74q0 10 7.5 70t21.5 171q6 47 15 116.5t20 163.5q15 126 48 126q26 0 29 -148q1 -55 4.5 -136t11.5 -189 q2 -19 18 -86q11 -55 11 -86z" />
<glyph unicode="&#xc0;" horiz-adv-x="836" d="M542 1692q0 -34 -51 -34q-39 0 -232 42q-196 43 -214 57q-49 40 -49 111q0 42 23 82q26 47 67 47q20 0 70 -46q38 -34 110 -78t180 -101q96 -51 96 -80zM741 923q0 -37 -17 -37q-67 0 -198 362q-14 39 -27.5 67t-25.5 45q-10 12 -20.5 23.5t-19 24t-14 26.5t-5.5 32 q0 45 26 86q28 45 73 45q37 0 63 -35q47 -63 121 -452q2 -14 6 -33.5t10 -45.5q28 -96 28 -108zM381 1460q0 -20 -55 -181q-23 -72 -45 -142t-45 -141q-78 -228 -118 -228q-22 0 -22 37q0 14 27 118q20 76 38.5 205.5t34.5 315.5q1 13 3.5 31t7.5 41q20 62 75 62 q45 0 72 -36t27 -82zM873 132q0 -132 -92 -132q-90 0 -90 117q0 22 3 69q2 23 3 40.5t1 29.5q0 91 -24 222l-42 219q-9 54 -9 99q0 61 22 61t61 -114l52 -152t52 -153q63 -200 63 -306zM669 360q0 -88 -65 -88q-50 0 -291 163q-75 51 -75 93q0 25 25 25q36 0 138 -38 q54 -20 93 -32t62 -14q113 -14 113 -109zM240 727q0 -81 -36 -333q-19 -132 -34.5 -211.5t-27.5 -108.5q-30 -74 -85 -74q-40 0 -67 37q-24 34 -24 76q0 29 13 71q17 48 43 117t61 162q14 42 35 103.5t50 144.5q27 80 47 80q25 0 25 -64z" />
<glyph unicode="&#xc1;" horiz-adv-x="836" d="M842 1868q0 -72 -51 -111q-20 -14 -215 -58q-193 -41 -231 -41q-51 0 -51 34q0 29 95 80q63 32 100 52.5t51 28.5q42 25 76.5 49t63.5 49q50 46 70 46q41 0 68 -46q24 -41 24 -83zM741 923q0 -37 -17 -37q-67 0 -198 362q-14 39 -27.5 67t-25.5 45q-10 12 -20.5 23.5 t-19 24t-14 26.5t-5.5 32q0 45 26 86q28 45 73 45q37 0 63 -35q47 -63 121 -452q2 -14 6 -33.5t10 -45.5q28 -96 28 -108zM381 1460q0 -20 -55 -181q-23 -72 -45 -142t-45 -141q-78 -228 -118 -228q-22 0 -22 37q0 14 27 118q20 76 38.5 205.5t34.5 315.5q1 13 3.5 31 t7.5 41q20 62 75 62q45 0 72 -36t27 -82zM873 132q0 -132 -92 -132q-90 0 -90 117q0 22 3 69q2 23 3 40.5t1 29.5q0 91 -24 222l-42 219q-9 54 -9 99q0 61 22 61t61 -114l52 -152t52 -153q63 -200 63 -306zM669 360q0 -88 -65 -88q-50 0 -291 163q-75 51 -75 93q0 25 25 25 q36 0 138 -38q54 -20 93 -32t62 -14q113 -14 113 -109zM240 727q0 -81 -36 -333q-19 -132 -34.5 -211.5t-27.5 -108.5q-30 -74 -85 -74q-40 0 -67 37q-24 34 -24 76q0 29 13 71q17 48 43 117t61 162q14 42 35 103.5t50 144.5q27 80 47 80q25 0 25 -64z" />
<glyph unicode="&#xc2;" horiz-adv-x="836" d="M841 1776q0 -37 -19 -65q-21 -36 -54 -36q-19 0 -50 37q-42 42 -84 83.5t-84 83.5q-123 127 -123 178q0 20 13 20q14 0 70 -48q87 -75 270 -167q7 -4 16.5 -10t22.5 -15q22 -19 22 -61zM403 2001q0 -27 -10 -48q-8 -16 -103 -89q-31 -23 -61.5 -46t-60.5 -46 q-28 -23 -51.5 -43.5t-43.5 -40.5q-49 -49 -61 -49q-14 0 -14 19q0 48 120 212q52 69 93.5 119t73.5 82q26 26 47 26q33 0 53 -32q18 -29 18 -64zM741 923q0 -37 -17 -37q-67 0 -198 362q-14 39 -27.5 67t-25.5 45q-10 12 -20.5 23.5t-19 24t-14 26.5t-5.5 32q0 45 26 86 q28 45 73 45q37 0 63 -35q47 -63 121 -452q2 -14 6 -33.5t10 -45.5q28 -96 28 -108zM381 1460q0 -20 -55 -181q-23 -72 -45 -142t-45 -141q-78 -228 -118 -228q-22 0 -22 37q0 14 27 118q20 76 38.5 205.5t34.5 315.5q1 13 3.5 31t7.5 41q20 62 75 62q45 0 72 -36t27 -82z M873 132q0 -132 -92 -132q-90 0 -90 117q0 22 3 69q2 23 3 40.5t1 29.5q0 91 -24 222l-42 219q-9 54 -9 99q0 61 22 61t61 -114l52 -152t52 -153q63 -200 63 -306zM669 360q0 -88 -65 -88q-50 0 -291 163q-75 51 -75 93q0 25 25 25q36 0 138 -38q54 -20 93 -32t62 -14 q113 -14 113 -109zM240 727q0 -81 -36 -333q-19 -132 -34.5 -211.5t-27.5 -108.5q-30 -74 -85 -74q-40 0 -67 37q-24 34 -24 76q0 29 13 71q17 48 43 117t61 162q14 42 35 103.5t50 144.5q27 80 47 80q25 0 25 -64z" />
<glyph unicode="&#xc3;" horiz-adv-x="836" d="M816 1898q0 -21 -17 -49q-88 -139 -239 -139q-61 0 -138 80t-117 80q-73 0 -129 -50q-15 -14 -33 -36.5t-38 -54.5q-32 -50 -48 -50q-37 0 -37 40q0 109 93 213q93 105 200 105q46 0 121 -80q77 -80 140 -80q80 0 154 61q13 25 40 25q48 0 48 -65zM741 923q0 -37 -17 -37 q-67 0 -198 362q-14 39 -27.5 67t-25.5 45q-10 12 -20.5 23.5t-19 24t-14 26.5t-5.5 32q0 45 26 86q28 45 73 45q37 0 63 -35q47 -63 121 -452q2 -14 6 -33.5t10 -45.5q28 -96 28 -108zM381 1460q0 -20 -55 -181q-23 -72 -45 -142t-45 -141q-78 -228 -118 -228q-22 0 -22 37 q0 14 27 118q20 76 38.5 205.5t34.5 315.5q1 13 3.5 31t7.5 41q20 62 75 62q45 0 72 -36t27 -82zM873 132q0 -132 -92 -132q-90 0 -90 117q0 22 3 69q2 23 3 40.5t1 29.5q0 91 -24 222l-42 219q-9 54 -9 99q0 61 22 61t61 -114l52 -152t52 -153q63 -200 63 -306zM669 360 q0 -88 -65 -88q-50 0 -291 163q-75 51 -75 93q0 25 25 25q36 0 138 -38q54 -20 93 -32t62 -14q113 -14 113 -109zM240 727q0 -81 -36 -333q-19 -132 -34.5 -211.5t-27.5 -108.5q-30 -74 -85 -74q-40 0 -67 37q-24 34 -24 76q0 29 13 71q17 48 43 117t61 162q14 42 35 103.5 t50 144.5q27 80 47 80q25 0 25 -64z" />
<glyph unicode="&#xc4;" horiz-adv-x="836" d="M718 1847q0 -54 -29 -98q-33 -51 -83 -51q-54 0 -85 51q-29 44 -29 98q0 55 29 99q32 50 85 50q50 0 83 -50q29 -46 29 -99zM343 1847q0 -55 -28 -98q-33 -51 -84 -51q-54 0 -85 51q-28 43 -28 98q0 56 28 99q32 50 85 50q51 0 84 -50q28 -44 28 -99zM741 923 q0 -37 -17 -37q-67 0 -198 362q-14 39 -27.5 67t-25.5 45q-10 12 -20.5 23.5t-19 24t-14 26.5t-5.5 32q0 45 26 86q28 45 73 45q37 0 63 -35q47 -63 121 -452q2 -14 6 -33.5t10 -45.5q28 -96 28 -108zM381 1460q0 -20 -55 -181q-23 -72 -45 -142t-45 -141 q-78 -228 -118 -228q-22 0 -22 37q0 14 27 118q20 76 38.5 205.5t34.5 315.5q1 13 3.5 31t7.5 41q20 62 75 62q45 0 72 -36t27 -82zM873 132q0 -132 -92 -132q-90 0 -90 117q0 22 3 69q2 23 3 40.5t1 29.5q0 91 -24 222l-42 219q-9 54 -9 99q0 61 22 61t61 -114l52 -152 t52 -153q63 -200 63 -306zM669 360q0 -88 -65 -88q-50 0 -291 163q-75 51 -75 93q0 25 25 25q36 0 138 -38q54 -20 93 -32t62 -14q113 -14 113 -109zM240 727q0 -81 -36 -333q-19 -132 -34.5 -211.5t-27.5 -108.5q-30 -74 -85 -74q-40 0 -67 37q-24 34 -24 76q0 29 13 71 q17 48 43 117t61 162q14 42 35 103.5t50 144.5q27 80 47 80q25 0 25 -64z" />
<glyph unicode="&#xc5;" horiz-adv-x="836" d="M568 1898q0 -72 -38 -133q-43 -67 -114 -67q-67 0 -111 68q-37 59 -37 132q0 72 37 130q43 69 111 69q70 0 114 -68q38 -59 38 -131zM741 923q0 -37 -17 -37q-67 0 -198 362q-14 39 -27.5 67t-25.5 45q-10 12 -20.5 23.5t-19 24t-14 26.5t-5.5 32q0 45 26 86q28 45 73 45 q37 0 63 -35q47 -63 121 -452q2 -14 6 -33.5t10 -45.5q28 -96 28 -108zM381 1460q0 -20 -55 -181q-23 -72 -45 -142t-45 -141q-78 -228 -118 -228q-22 0 -22 37q0 14 27 118q20 76 38.5 205.5t34.5 315.5q1 13 3.5 31t7.5 41q20 62 75 62q45 0 72 -36t27 -82zM873 132 q0 -132 -92 -132q-90 0 -90 117q0 22 3 69q2 23 3 40.5t1 29.5q0 91 -24 222l-42 219q-9 54 -9 99q0 61 22 61t61 -114l52 -152t52 -153q63 -200 63 -306zM669 360q0 -88 -65 -88q-50 0 -291 163q-75 51 -75 93q0 25 25 25q36 0 138 -38q54 -20 93 -32t62 -14 q113 -14 113 -109zM240 727q0 -81 -36 -333q-19 -132 -34.5 -211.5t-27.5 -108.5q-30 -74 -85 -74q-40 0 -67 37q-24 34 -24 76q0 29 13 71q17 48 43 117t61 162q14 42 35 103.5t50 144.5q27 80 47 80q25 0 25 -64zM478 1898q0 15 -4.5 29t-12.5 25t-19 18t-25 7 q-27 0 -43 -27q-16 -23 -16 -52q0 -79 59 -79q27 0 45 27q16 25 16 52z" />
<glyph unicode="&#xc6;" horiz-adv-x="1556" d="M1481 1482q0 -42 -19 -79q-24 -44 -62 -44q-17 0 -181 37l-212 46q-93 22 -93 66q0 36 217 45q42 2 76.5 5.5t63.5 10.5q5 1 21 6.5t44 15.5q45 15 63 15q39 0 62 -45q20 -38 20 -79zM870 1492q0 -16 -17 -90q-50 -218 -64 -485q-8 -150 -28 -150q-35 0 -49 125 q-30 274 -30 522q0 183 91 183q38 0 67 -33q30 -33 30 -72zM1341 833q0 -39 -22 -68q-24 -36 -60 -36q-11 0 -31 4q-54 10 -132 25t-184 35q-95 21 -95 66q0 30 111 38q35 1 69.5 1.5t69.5 1.5q82 3 136 21q51 16 60 16q35 0 58 -36q20 -32 20 -68zM663 1496q0 -40 -45 -110 q-92 -164 -288 -480q-59 -83 -89 -83q-15 0 -15 18q0 26 56 133q42 78 89.5 204t104.5 302q7 24 27 70q29 47 74 47q40 0 63 -29.5t23 -71.5zM1470 146q0 -41 -20 -79q-24 -45 -62 -45q-18 0 -181 37l-211 47q-94 22 -94 66q0 36 217 45q42 1 77 5t63 11q5 1 21 6.5t43 15.5 q45 14 64 14q38 0 62 -44q21 -38 21 -79zM872 110q0 -43 -25 -74q-27 -34 -69 -34q-40 0 -67 34q-25 31 -25 72q0 9 7 69.5t21 172.5l35 281q16 126 50 126q22 0 27 -147q1 -55 6 -137t13 -191q1 -8 5 -29.5t11 -56.5q11 -55 11 -86zM669 360q0 -88 -65 -88q-47 0 -291 163 q-75 51 -75 93q0 25 29 25q23 0 86 -25q66 -26 117 -40.5t86 -18.5q21 -2 56 -10q57 -21 57 -99zM240 727q0 -39 -9 -122t-28 -212q-19 -134 -34.5 -213t-26.5 -106q-32 -74 -84 -74q-42 0 -69 38q-24 34 -24 78q0 47 55 181q20 51 57 153.5t91 260.5q27 80 47 80 q25 0 25 -64z" />
<glyph unicode="&#xc7;" horiz-adv-x="1023" d="M841 1313q0 -44 -24 -83q-27 -46 -68 -46q-25 0 -140 97l-225 191q-68 57 -68 96q0 26 25 26q20 0 90 -35q38 -20 96 -46t137 -59q27 -6 59 -14.5t69 -19.5q49 -22 49 -107zM301 1492q0 -22 -16 -90q-26 -109 -42 -229.5t-23 -255.5q-6 -150 -29 -150q-35 0 -49 125 q-30 274 -30 522q0 183 93 183q38 0 67 -33q29 -34 29 -72zM911 286q0 -70 -51 -110q-18 -15 -214 -59q-193 -41 -232 -41q-51 0 -51 34q0 29 95 80q64 33 101.5 53t50.5 28q81 49 139 99q52 45 70 45q41 0 68 -45q24 -41 24 -84zM302 110q0 -44 -24 -74q-27 -34 -69 -34 q-40 0 -68 34q-24 31 -24 72q0 24 27 242l35 281q16 126 50 126q25 0 28 -147q2 -84 4 -137.5t4 -76.5q4 -61 10 -114t16 -99q5 -29 8 -47t3 -26zM601 -71q0 -35 -72 -180q-72 -146 -93 -146q-12 0 -12 40q0 47 32 143q33 93 33 143q0 32 16 51.5t38 19.5q58 0 58 -71z" />
<glyph unicode="&#xc8;" horiz-adv-x="987" d="M636 1692q0 -34 -51 -34q-41 0 -231 42q-197 42 -216 57q-49 39 -49 111q0 42 23 83q25 46 67 46q19 0 71 -46q74 -67 290 -179q96 -50 96 -80zM912 1482q0 -41 -20 -79q-23 -44 -60 -44q-18 0 -182 37l-211 46q-95 23 -95 66q0 36 221 45q40 2 74 5.5t62 10.5 q5 1 21.5 6.5t44.5 15.5q43 15 63 15q38 0 61 -45q21 -38 21 -79zM301 1492q0 -22 -16 -90q-26 -109 -42 -229.5t-23 -255.5q-8 -150 -29 -150q-35 0 -49 125q-30 273 -30 522q0 183 93 183q38 0 67 -33q29 -34 29 -72zM771 833q0 -38 -21 -68q-23 -36 -60 -36q-4 0 -12 1 t-19 3q-53 10 -131.5 25t-184.5 35q-94 21 -94 66q0 30 111 38q35 1 87.5 3.5t123.5 7.5q19 2 34.5 5.5t27.5 7.5q49 16 56 16q82 0 82 -104zM900 146q0 -42 -19 -79q-24 -45 -62 -45q-17 0 -180 37l-212 47q-94 22 -94 66q0 36 219 45q40 1 74 5t63 11q5 1 21 6.5t44 15.5 q44 14 63 14q37 0 63 -44q20 -38 20 -79zM302 110q0 -44 -24 -74q-27 -34 -69 -34q-40 0 -68 34q-24 31 -24 72q0 24 27 242l35 281q16 126 50 126q23 0 28 -147q3 -93 5 -146.5t3 -67.5q4 -61 10 -114t16 -99q5 -29 8 -47t3 -26z" />
<glyph unicode="&#xc9;" horiz-adv-x="1010" d="M936 1868q0 -71 -51 -111q-20 -14 -215 -58q-191 -41 -230 -41q-53 0 -53 34q0 29 97 80q62 32 99.5 52.5t51.5 28.5q42 25 76.5 49t62.5 49q52 46 71 46q41 0 68 -46q23 -41 23 -83zM912 1482q0 -41 -20 -79q-23 -44 -60 -44q-18 0 -182 37l-211 46q-95 23 -95 66 q0 36 221 45q40 2 74 5.5t62 10.5q5 1 21.5 6.5t44.5 15.5q43 15 63 15q38 0 61 -45q21 -38 21 -79zM301 1492q0 -22 -16 -90q-26 -109 -42 -229.5t-23 -255.5q-8 -150 -29 -150q-35 0 -49 125q-30 273 -30 522q0 183 93 183q38 0 67 -33q29 -34 29 -72zM771 833 q0 -38 -21 -68q-23 -36 -60 -36q-4 0 -12 1t-19 3q-53 10 -131.5 25t-184.5 35q-94 21 -94 66q0 30 111 38q35 1 87.5 3.5t123.5 7.5q19 2 34.5 5.5t27.5 7.5q49 16 56 16q82 0 82 -104zM900 146q0 -42 -19 -79q-24 -45 -62 -45q-17 0 -180 37l-212 47q-94 22 -94 66 q0 36 219 45q40 1 74 5t63 11q5 1 21 6.5t44 15.5q44 14 63 14q37 0 63 -44q20 -38 20 -79zM302 110q0 -44 -24 -74q-27 -34 -69 -34q-40 0 -68 34q-24 31 -24 72q0 24 27 242l35 281q16 126 50 126q23 0 28 -147q3 -93 5 -146.5t3 -67.5q4 -61 10 -114t16 -99q5 -29 8 -47 t3 -26z" />
<glyph unicode="&#xca;" horiz-adv-x="1009" d="M934 1776q0 -37 -18 -65q-23 -36 -55 -36q-17 0 -50 37l-167 167q-122 128 -122 178q0 20 12 20q15 0 71 -48q85 -75 270 -167q18 -8 49 -38q10 -19 10 -48zM497 2001q0 -25 -10 -48q-8 -15 -104 -89q-31 -23 -61 -46t-61 -46q-50 -41 -93 -84q-49 -49 -62 -49 q-16 0 -16 18q0 50 121 213q101 135 167 201q26 26 47 26q33 0 54 -32q18 -29 18 -64zM912 1482q0 -41 -20 -79q-23 -44 -60 -44q-18 0 -182 37l-211 46q-95 23 -95 66q0 36 221 45q40 2 74 5.5t62 10.5q5 1 21.5 6.5t44.5 15.5q43 15 63 15q38 0 61 -45q21 -38 21 -79z M301 1492q0 -22 -16 -90q-26 -109 -42 -229.5t-23 -255.5q-8 -150 -29 -150q-35 0 -49 125q-30 273 -30 522q0 183 93 183q38 0 67 -33q29 -34 29 -72zM771 833q0 -38 -21 -68q-23 -36 -60 -36q-4 0 -12 1t-19 3q-53 10 -131.5 25t-184.5 35q-94 21 -94 66q0 30 111 38 q35 1 87.5 3.5t123.5 7.5q19 2 34.5 5.5t27.5 7.5q49 16 56 16q82 0 82 -104zM900 146q0 -42 -19 -79q-24 -45 -62 -45q-17 0 -180 37l-212 47q-94 22 -94 66q0 36 219 45q40 1 74 5t63 11q5 1 21 6.5t44 15.5q44 14 63 14q37 0 63 -44q20 -38 20 -79zM302 110 q0 -44 -24 -74q-27 -34 -69 -34q-40 0 -68 34q-24 31 -24 72q0 24 27 242l35 281q16 126 50 126q23 0 28 -147q3 -93 5 -146.5t3 -67.5q4 -61 10 -114t16 -99q5 -29 8 -47t3 -26z" />
<glyph unicode="&#xcb;" horiz-adv-x="987" d="M811 1847q0 -55 -28 -98q-32 -51 -83 -51q-52 0 -85 51q-28 43 -28 98q0 56 28 99q33 50 85 50q51 0 83 -50q28 -44 28 -99zM437 1847q0 -55 -28 -98q-33 -51 -83 -51q-54 0 -85 51q-28 43 -28 98q0 56 28 99q32 50 85 50q50 0 83 -50q28 -44 28 -99zM912 1482 q0 -41 -20 -79q-23 -44 -60 -44q-18 0 -182 37l-211 46q-95 23 -95 66q0 36 221 45q40 2 74 5.5t62 10.5q5 1 21.5 6.5t44.5 15.5q43 15 63 15q38 0 61 -45q21 -38 21 -79zM301 1492q0 -22 -16 -90q-26 -109 -42 -229.5t-23 -255.5q-8 -150 -29 -150q-35 0 -49 125 q-30 273 -30 522q0 183 93 183q38 0 67 -33q29 -34 29 -72zM771 833q0 -38 -21 -68q-23 -36 -60 -36q-4 0 -12 1t-19 3q-53 10 -131.5 25t-184.5 35q-94 21 -94 66q0 30 111 38q35 1 87.5 3.5t123.5 7.5q19 2 34.5 5.5t27.5 7.5q49 16 56 16q82 0 82 -104zM900 146 q0 -42 -19 -79q-24 -45 -62 -45q-17 0 -180 37l-212 47q-94 22 -94 66q0 36 219 45q40 1 74 5t63 11q5 1 21 6.5t44 15.5q44 14 63 14q37 0 63 -44q20 -38 20 -79zM302 110q0 -44 -24 -74q-27 -34 -69 -34q-40 0 -68 34q-24 31 -24 72q0 24 27 242l35 281q16 126 50 126 q23 0 28 -147q3 -93 5 -146.5t3 -67.5q4 -61 10 -114t16 -99q5 -29 8 -47t3 -26z" />
<glyph unicode="&#xcc;" horiz-adv-x="414" d="M333 1692q0 -34 -52 -34q-20 0 -77 10.5t-153 30.5q-193 44 -213 58q-52 40 -52 109q0 43 24 84q27 47 68 47q21 0 70 -46q73 -66 289 -179q96 -50 96 -80zM301 1492q0 -19 -16 -90q-25 -108 -41 -228t-24 -257q-8 -150 -29 -150q-35 0 -49 125q-30 271 -30 520 q0 185 93 185q38 0 67 -33q29 -34 29 -72zM302 110q0 -44 -24 -74q-27 -34 -69 -34q-40 0 -68 34q-24 31 -24 72q0 13 4.5 55.5t14.5 115.5l43 352q16 126 50 126q23 0 28 -147q4 -100 6 -153t2 -61q4 -62 10.5 -115t15.5 -98q11 -61 11 -73z" />
<glyph unicode="&#xcd;" horiz-adv-x="414" d="M632 1868q0 -71 -51 -111q-18 -14 -214 -58q-193 -41 -231 -41q-52 0 -52 34q0 29 95 80q63 32 100.5 52.5t51.5 28.5q42 25 76.5 49t62.5 49q52 46 70 46q41 0 69 -46q23 -41 23 -83zM301 1492q0 -19 -16 -90q-25 -108 -41 -228t-24 -257q-8 -150 -29 -150 q-35 0 -49 125q-30 271 -30 520q0 185 93 185q38 0 67 -33q29 -34 29 -72zM302 110q0 -44 -24 -74q-27 -34 -69 -34q-40 0 -68 34q-24 31 -24 72q0 13 4.5 55.5t14.5 115.5l43 352q16 126 50 126q23 0 28 -147q4 -100 6 -153t2 -61q4 -62 10.5 -115t15.5 -98q11 -61 11 -73z " />
<glyph unicode="&#xce;" horiz-adv-x="414" d="M630 1776q0 -33 -18 -64q-19 -37 -51 -37q-23 0 -57 37l-48 54q-35 35 -70 69t-70 69q-99 103 -99 153q0 20 13 20q15 0 69 -48q76 -67 272 -167q11 -6 20.5 -12t16.5 -13q22 -19 22 -61zM193 2001q0 -22 -12 -46q-9 -20 -103 -90l-120 -93q-48 -39 -93 -84 q-48 -49 -60 -49q-17 0 -17 18q0 49 121 212q51 69 91.5 119.5t72.5 82.5q26 26 47 26q32 0 55 -32q18 -29 18 -64zM301 1492q0 -19 -16 -90q-25 -108 -41 -228t-24 -257q-8 -150 -29 -150q-35 0 -49 125q-30 271 -30 520q0 185 93 185q38 0 67 -33q29 -34 29 -72zM302 110 q0 -44 -24 -74q-27 -34 -69 -34q-40 0 -68 34q-24 31 -24 72q0 13 4.5 55.5t14.5 115.5l43 352q16 126 50 126q23 0 28 -147q4 -100 6 -153t2 -61q4 -62 10.5 -115t15.5 -98q11 -61 11 -73z" />
<glyph unicode="&#xcf;" horiz-adv-x="414" d="M507 1847q0 -55 -28 -98q-32 -51 -85 -51q-52 0 -83 51q-28 43 -28 98t28 99q33 51 84 51q52 0 84 -50q28 -43 28 -100zM133 1847q0 -54 -29 -98q-32 -51 -84 -51q-50 0 -81 52q-28 43 -28 97q0 53 29 99q32 50 81 50q52 0 84 -50q28 -43 28 -99zM301 1492q0 -19 -16 -90 q-25 -108 -41 -228t-24 -257q-8 -150 -29 -150q-35 0 -49 125q-30 271 -30 520q0 185 93 185q38 0 67 -33q29 -34 29 -72zM302 110q0 -44 -24 -74q-27 -34 -69 -34q-40 0 -68 34q-24 31 -24 72q0 13 4.5 55.5t14.5 115.5l43 352q16 126 50 126q23 0 28 -147q4 -100 6 -153 t2 -61q4 -62 10.5 -115t15.5 -98q11 -61 11 -73z" />
<glyph unicode="&#xd1;" horiz-adv-x="1081" d="M939 1898q0 -21 -17 -49q-88 -139 -239 -139q-62 0 -139 80t-116 80q-74 0 -130 -50q-14 -14 -32 -36.5t-38 -54.5q-32 -50 -49 -50q-37 0 -37 40q0 109 93 213q94 105 201 105q46 0 121 -80q77 -80 140 -80q80 0 153 61q15 25 40 25q49 0 49 -65zM967 1488 q0 -13 -11 -74q-21 -100 -33 -425q-6 -148 -29 -148q-32 0 -49 125q-11 81 -26 201t-34 281q-3 28 -3 42q0 21 7 40t19 34t29 23.5t38 8.5q43 0 68 -34q24 -30 24 -74zM727 839q0 -47 -25 -84q-28 -43 -72 -43q-25 0 -50 19q-47 37 -208 426q-32 76 -32 114q0 29 20 29 q16 0 83 -94q20 -28 50 -63t72 -78q48 -50 79 -84.5t47 -54.5q36 -44 36 -87zM301 1492q0 -22 -16 -90q-26 -109 -42 -229.5t-23 -255.5q-8 -150 -29 -150q-35 0 -49 125q-30 273 -30 522q0 183 93 183q38 0 67 -33q29 -34 29 -72zM966 106q0 -38 -29 -73q-29 -33 -67 -33 q-93 0 -93 183q0 247 30 522q13 126 49 126q21 0 29 -150q14 -273 64 -485q17 -77 17 -90zM302 110q0 -44 -24 -74q-27 -34 -69 -34q-40 0 -68 34q-24 31 -24 72q0 24 27 242l35 281q16 126 50 126q23 0 28 -147q3 -93 5 -146.5t3 -67.5q4 -61 10 -114t16 -99q5 -29 8 -47 t3 -26z" />
<glyph unicode="&#xd2;" horiz-adv-x="1054" d="M651 1692q0 -34 -51 -34q-39 0 -231 42q-196 44 -215 57q-52 40 -52 109q0 43 24 84q27 47 68 47q21 0 70 -46q37 -32 109.5 -77t182.5 -102q95 -50 95 -80zM979 1003q0 -48 -24 -85q-29 -45 -71 -45q-25 0 -45 16t-81 163q-113 273 -189 408q-46 79 -46 108t17 29 q49 0 218 -226q69 -93 118.5 -164t78.5 -123q24 -42 24 -81zM525 1404q0 -40 -22 -65q-4 -5 -16.5 -16.5t-34.5 -30.5q-77 -64 -147 -179l-126 -210q-56 -95 -87 -95q-17 0 -17 26q0 27 101 288q70 181 99 241q87 177 153 177q40 0 70 -50q27 -44 27 -86zM955 711 q0 -21 -50 -124q-35 -72 -76.5 -191t-90.5 -290q-3 -11 -9 -28t-14 -40q-21 -38 -59 -38q-46 0 -77 43q-26 38 -26 87q0 36 36 89q23 34 55.5 90.5t74.5 136.5q153 289 214 289q22 0 22 -24zM519 146q0 -46 -24 -88q-29 -50 -70 -50q-26 0 -52 22q-45 37 -130 244 q-18 48 -48.5 118t-73.5 163q-47 86 -47 108q0 30 19 30q46 0 163 -167q37 -56 73.5 -110.5t72.5 -109.5q9 -13 19.5 -25.5t21.5 -26.5q76 -37 76 -108z" />
<glyph unicode="&#xd3;" horiz-adv-x="1054" d="M951 1868q0 -71 -51 -111q-18 -14 -214 -58q-193 -41 -232 -41q-51 0 -51 34q0 29 95 80q63 32 100.5 52.5t51.5 28.5q42 25 76 49t63 49q52 46 71 46q40 0 67 -47q24 -41 24 -82zM979 1003q0 -48 -24 -85q-29 -45 -71 -45q-25 0 -45 16t-81 163q-113 273 -189 408 q-46 79 -46 108t17 29q49 0 218 -226q69 -93 118.5 -164t78.5 -123q24 -42 24 -81zM525 1404q0 -40 -22 -65q-4 -5 -16.5 -16.5t-34.5 -30.5q-77 -64 -147 -179l-126 -210q-56 -95 -87 -95q-17 0 -17 26q0 27 101 288q70 181 99 241q87 177 153 177q40 0 70 -50 q27 -44 27 -86zM955 711q0 -21 -50 -124q-35 -72 -76.5 -191t-90.5 -290q-3 -11 -9 -28t-14 -40q-21 -38 -59 -38q-46 0 -77 43q-26 38 -26 87q0 36 36 89q23 34 55.5 90.5t74.5 136.5q153 289 214 289q22 0 22 -24zM519 146q0 -46 -24 -88q-29 -50 -70 -50q-26 0 -52 22 q-45 37 -130 244q-18 48 -48.5 118t-73.5 163q-47 86 -47 108q0 30 19 30q46 0 163 -167q37 -56 73.5 -110.5t72.5 -109.5q9 -13 19.5 -25.5t21.5 -26.5q76 -37 76 -108z" />
<glyph unicode="&#xd4;" horiz-adv-x="1054" d="M949 1776q0 -37 -19 -65q-21 -36 -54 -36q-19 0 -50 37q-42 42 -84 83.5t-84 83.5q-122 128 -122 178q0 20 14 20q16 0 70 -48q43 -37 110 -78t160 -89q21 -11 48 -37q11 -20 11 -49zM512 2001q0 -21 -11 -48q-8 -16 -103 -89q-31 -23 -61 -46l-60 -46 q-28 -23 -51.5 -43.5t-43.5 -40.5q-48 -49 -61 -49q-17 0 -17 19q0 48 122 212q103 136 168 201q26 26 46 26q33 0 53 -32q19 -28 19 -64zM979 1003q0 -48 -24 -85q-29 -45 -71 -45q-25 0 -45 16t-81 163q-113 273 -189 408q-46 79 -46 108t17 29q49 0 218 -226 q69 -93 118.5 -164t78.5 -123q24 -42 24 -81zM525 1404q0 -40 -22 -65q-4 -5 -16.5 -16.5t-34.5 -30.5q-77 -64 -147 -179l-126 -210q-56 -95 -87 -95q-17 0 -17 26q0 27 101 288q70 181 99 241q87 177 153 177q40 0 70 -50q27 -44 27 -86zM955 711q0 -21 -50 -124 q-35 -72 -76.5 -191t-90.5 -290q-3 -11 -9 -28t-14 -40q-21 -38 -59 -38q-46 0 -77 43q-26 38 -26 87q0 36 36 89q23 34 55.5 90.5t74.5 136.5q153 289 214 289q22 0 22 -24zM519 146q0 -46 -24 -88q-29 -50 -70 -50q-26 0 -52 22q-45 37 -130 244q-18 48 -48.5 118 t-73.5 163q-47 86 -47 108q0 30 19 30q46 0 163 -167q37 -56 73.5 -110.5t72.5 -109.5q9 -13 19.5 -25.5t21.5 -26.5q76 -37 76 -108z" />
<glyph unicode="&#xd5;" horiz-adv-x="1054" d="M926 1898q0 -22 -18 -49q-90 -139 -239 -139q-61 0 -138 80t-117 80q-73 0 -128 -50q-15 -14 -33 -36.5t-38 -54.5q-32 -50 -49 -50q-37 0 -37 40q0 111 91 212q94 106 202 106q44 0 121 -80t142 -80q79 0 153 61q13 25 38 25q50 0 50 -65zM979 1003q0 -48 -24 -85 q-29 -45 -71 -45q-25 0 -45 16t-81 163q-113 273 -189 408q-46 79 -46 108t17 29q49 0 218 -226q69 -93 118.5 -164t78.5 -123q24 -42 24 -81zM525 1404q0 -40 -22 -65q-4 -5 -16.5 -16.5t-34.5 -30.5q-77 -64 -147 -179l-126 -210q-56 -95 -87 -95q-17 0 -17 26 q0 27 101 288q70 181 99 241q87 177 153 177q40 0 70 -50q27 -44 27 -86zM955 711q0 -21 -50 -124q-35 -72 -76.5 -191t-90.5 -290q-3 -11 -9 -28t-14 -40q-21 -38 -59 -38q-46 0 -77 43q-26 38 -26 87q0 36 36 89q23 34 55.5 90.5t74.5 136.5q153 289 214 289q22 0 22 -24z M519 146q0 -46 -24 -88q-29 -50 -70 -50q-26 0 -52 22q-45 37 -130 244q-18 48 -48.5 118t-73.5 163q-47 86 -47 108q0 30 19 30q46 0 163 -167q37 -56 73.5 -110.5t72.5 -109.5q9 -13 19.5 -25.5t21.5 -26.5q76 -37 76 -108z" />
<glyph unicode="&#xd6;" horiz-adv-x="1054" d="M826 1847q0 -55 -28 -98q-32 -51 -85 -51q-52 0 -83 51q-28 43 -28 98t28 99q33 51 84 51q52 0 84 -50q28 -43 28 -100zM452 1847q0 -54 -29 -98q-32 -51 -85 -51q-51 0 -82 51q-29 44 -29 98q0 53 29 99q33 51 83 51q52 0 84 -50q29 -44 29 -100zM979 1003 q0 -48 -24 -85q-29 -45 -71 -45q-25 0 -45 16t-81 163q-113 273 -189 408q-46 79 -46 108t17 29q49 0 218 -226q69 -93 118.5 -164t78.5 -123q24 -42 24 -81zM525 1404q0 -40 -22 -65q-4 -5 -16.5 -16.5t-34.5 -30.5q-77 -64 -147 -179l-126 -210q-56 -95 -87 -95 q-17 0 -17 26q0 27 101 288q70 181 99 241q87 177 153 177q40 0 70 -50q27 -44 27 -86zM955 711q0 -21 -50 -124q-35 -72 -76.5 -191t-90.5 -290q-3 -11 -9 -28t-14 -40q-21 -38 -59 -38q-46 0 -77 43q-26 38 -26 87q0 36 36 89q23 34 55.5 90.5t74.5 136.5q153 289 214 289 q22 0 22 -24zM519 146q0 -46 -24 -88q-29 -50 -70 -50q-26 0 -52 22q-45 37 -130 244q-18 48 -48.5 118t-73.5 163q-47 86 -47 108q0 30 19 30q46 0 163 -167q37 -56 73.5 -110.5t72.5 -109.5q9 -13 19.5 -25.5t21.5 -26.5q76 -37 76 -108z" />
<glyph unicode="&#xd7;" horiz-adv-x="633" d="M522 660q0 -39 -19 -67q-22 -34 -58 -34q-38 0 -83 70q-5 7 -19.5 33t-38.5 71q-138 -138 -168 -138q-24 0 -24 22q0 33 134 218q-111 201 -111 236q0 34 16 34q27 0 160 -175q8 14 19 34.5t25 47.5q46 97 91 97q36 0 57 -34q19 -31 19 -69q0 -51 -43 -100 q-20 -20 -40 -39.5t-40 -39.5q20 -17 40.5 -35t40.5 -36q42 -42 42 -96z" />
<glyph unicode="&#xd8;" horiz-adv-x="1054" d="M979 1003q0 -48 -24 -85q-29 -45 -71 -45q-23 0 -46 17q-21 15 -104 223q-50 -86 -101 -190q-55 -115 -73 -115q-21 0 -21 47q0 86 123 424q-20 38 -39.5 75t-39.5 75q-60 118 -60 139q0 29 17 29q43 0 178 -173q50 122 105 122q41 0 72 -46q28 -40 28 -84 q0 -43 -88 -152q22 -32 44 -63t44 -63q56 -89 56 -135zM525 1404q0 -39 -22 -65q-11 -12 -51 -47q-40 -34 -76.5 -78t-70.5 -101l-126 -210q-56 -95 -87 -95q-16 0 -16 35q0 24 100 279q70 181 99 241q87 177 153 177q40 0 70 -49q27 -44 27 -87zM955 711q0 -22 -50 -124 q-33 -67 -74.5 -186.5t-92.5 -294.5q-3 -11 -9 -28t-14 -40q-21 -38 -59 -38q-46 0 -77 43q-26 38 -26 87q0 36 36 89q23 33 55 89.5t75 137.5q153 289 214 289q22 0 22 -24zM519 139q0 -44 -25 -84q-29 -47 -70 -47q-55 0 -113 114q-17 -72 -74 -72q-43 0 -75 41 q-29 38 -29 83q0 33 80 175q-23 59 -46 109.5t-46 95.5q-47 89 -47 109q0 30 19 30q49 0 195 -209q157 289 191 289q21 0 21 -24q0 -19 -131 -391q21 -37 74 -104q14 -11 27.5 -21.5t27.5 -21.5q21 -20 21 -72z" />
<glyph unicode="&#xd9;" horiz-adv-x="1109" d="M679 1692q0 -34 -52 -34q-39 0 -231 42q-196 44 -215 57q-51 40 -51 109q0 43 23 84q27 47 68 47q21 0 71 -46q75 -66 291 -179q96 -50 96 -80zM996 1480q0 -17 -3.5 -54.5t-10.5 -97.5q-15 -128 -33 -457q-6 -98 -29 -98q-35 0 -51 136q-13 100 -24 191.5t-20 175.5 q-15 141 -15 206q0 45 26 79q28 37 72 37q88 0 88 -118zM308 1486q0 -20 -22 -89q-38 -125 -44 -394q-6 -286 -42 -286q-25 0 -39 119l-2 14q-23 211 -35 336t-12 169q0 242 97 242q43 0 71 -34q28 -32 28 -77zM992 711q0 -22 -50 -124q-68 -139 -166 -481q-4 -11 -10 -28 t-14 -40q-21 -38 -59 -38q-47 0 -77 43q-26 38 -26 87q0 35 36 89q23 35 55.5 92t74.5 135q154 289 214 289q22 0 22 -24zM557 146q0 -46 -24 -88q-29 -51 -70 -51q-24 0 -52 23q-42 36 -115 204q-23 58 -46.5 116t-47.5 116l-25.5 51t-26.5 51q-38 76 -38 95q0 30 18 30 q66 0 282 -344q15 -25 32 -48.5t37 -46.5q76 -37 76 -108z" />
<glyph unicode="&#xda;" horiz-adv-x="1109" d="M978 1868q0 -71 -51 -111q-18 -14 -214 -58q-193 -41 -231 -41q-52 0 -52 34q0 29 96 80q63 32 100 52.5t51 28.5q42 25 76.5 49t62.5 49q52 46 70 46q41 0 69 -46q23 -41 23 -83zM996 1480q0 -17 -3.5 -54.5t-10.5 -97.5q-15 -128 -33 -457q-6 -98 -29 -98 q-35 0 -51 136q-13 100 -24 191.5t-20 175.5q-15 141 -15 206q0 45 26 79q28 37 72 37q88 0 88 -118zM308 1486q0 -20 -22 -89q-38 -125 -44 -394q-6 -286 -42 -286q-25 0 -39 119l-2 14q-23 211 -35 336t-12 169q0 242 97 242q43 0 71 -34q28 -32 28 -77zM992 711 q0 -22 -50 -124q-68 -139 -166 -481q-4 -11 -10 -28t-14 -40q-21 -38 -59 -38q-47 0 -77 43q-26 38 -26 87q0 35 36 89q23 35 55.5 92t74.5 135q154 289 214 289q22 0 22 -24zM557 146q0 -46 -24 -88q-29 -51 -70 -51q-24 0 -52 23q-42 36 -115 204q-23 58 -46.5 116 t-47.5 116l-25.5 51t-26.5 51q-38 76 -38 95q0 30 18 30q66 0 282 -344q15 -25 32 -48.5t37 -46.5q76 -37 76 -108z" />
<glyph unicode="&#xdb;" horiz-adv-x="1109" d="M976 1776q0 -37 -18 -65q-23 -36 -55 -36q-19 0 -50 37q-84 83 -167 167q-123 127 -123 178q0 20 13 20q16 0 72 -48q45 -40 112 -81t157 -86q19 -9 48 -38q11 -20 11 -48zM539 2001q0 -25 -10 -48q-4 -8 -29.5 -30t-74.5 -59l-60 -46t-61 -46q-28 -23 -51 -43.5 t-43 -40.5q-49 -49 -62 -49q-16 0 -16 18q0 48 122 212q100 136 166 202q26 26 47 26q33 0 54 -32q18 -29 18 -64zM996 1480q0 -17 -3.5 -54.5t-10.5 -97.5q-15 -128 -33 -457q-6 -98 -29 -98q-35 0 -51 136q-13 100 -24 191.5t-20 175.5q-15 141 -15 206q0 45 26 79 q28 37 72 37q88 0 88 -118zM308 1486q0 -20 -22 -89q-38 -125 -44 -394q-6 -286 -42 -286q-25 0 -39 119l-2 14q-23 211 -35 336t-12 169q0 242 97 242q43 0 71 -34q28 -32 28 -77zM992 711q0 -22 -50 -124q-68 -139 -166 -481q-4 -11 -10 -28t-14 -40q-21 -38 -59 -38 q-47 0 -77 43q-26 38 -26 87q0 35 36 89q23 35 55.5 92t74.5 135q154 289 214 289q22 0 22 -24zM557 146q0 -46 -24 -88q-29 -51 -70 -51q-24 0 -52 23q-42 36 -115 204q-23 58 -46.5 116t-47.5 116l-25.5 51t-26.5 51q-38 76 -38 95q0 30 18 30q66 0 282 -344 q15 -25 32 -48.5t37 -46.5q76 -37 76 -108z" />
<glyph unicode="&#xdc;" horiz-adv-x="1109" d="M853 1847q0 -55 -28 -98q-32 -51 -85 -51q-52 0 -83 51q-28 43 -28 98t28 99q33 51 84 51q52 0 84 -50q28 -43 28 -100zM479 1847q0 -55 -28 -98q-33 -51 -85 -51t-83 51q-28 43 -28 98t28 99q33 51 84 51q52 0 84 -50q28 -43 28 -100zM996 1480q0 -17 -3.5 -54.5 t-10.5 -97.5q-15 -128 -33 -457q-6 -98 -29 -98q-35 0 -51 136q-13 100 -24 191.5t-20 175.5q-15 141 -15 206q0 45 26 79q28 37 72 37q88 0 88 -118zM308 1486q0 -20 -22 -89q-38 -125 -44 -394q-6 -286 -42 -286q-25 0 -39 119l-2 14q-23 211 -35 336t-12 169 q0 242 97 242q43 0 71 -34q28 -32 28 -77zM992 711q0 -22 -50 -124q-68 -139 -166 -481q-4 -11 -10 -28t-14 -40q-21 -38 -59 -38q-47 0 -77 43q-26 38 -26 87q0 35 36 89q23 35 55.5 92t74.5 135q154 289 214 289q22 0 22 -24zM557 146q0 -46 -24 -88q-29 -51 -70 -51 q-24 0 -52 23q-42 36 -115 204q-23 58 -46.5 116t-47.5 116l-25.5 51t-26.5 51q-38 76 -38 95q0 30 18 30q66 0 282 -344q15 -25 32 -48.5t37 -46.5q76 -37 76 -108z" />
<glyph unicode="&#xdd;" horiz-adv-x="750" d="M788 1868q0 -71 -51 -111q-18 -14 -214 -58q-193 -41 -231 -41q-52 0 -52 34q0 29 95 80q63 32 100.5 52.5t51.5 28.5q42 25 76.5 49t62.5 49q52 46 70 46q41 0 69 -46q23 -41 23 -83zM766 1472q0 -34 -34 -90q-37 -79 -96.5 -194t-144.5 -267q-49 -76 -80 -76 q-23 0 -23 23q0 26 43 125q37 86 74 208.5t75 284.5q4 25 21 70q21 42 62 42q46 0 76 -42q27 -38 27 -84zM349 877q0 -37 -17 -37q-32 0 -89 83q-37 52 -150 310q-13 27 -27.5 52.5t-31.5 48.5q-11 15 -23 30t-23 31q-23 35 -23 72q0 43 23 84q25 46 66 46q89 0 163 -263 q23 -88 45.5 -176t45.5 -177l27 -51q14 -30 14 -53zM463 110q0 -44 -24 -74q-27 -34 -69 -34q-40 0 -68 34q-25 31 -25 72q0 7 3 42q13 174 45 519q13 126 49 126q21 0 29 -147q12 -293 48 -465q12 -63 12 -73z" />
<glyph unicode="&#xe0;" horiz-adv-x="752" d="M489 1522q0 -30 -47 -30q-39 0 -208 37q-173 37 -194 53q-44 35 -44 96q0 39 20 76q22 43 60 43q18 0 65 -42q36 -32 101 -72t160 -89q87 -45 87 -72zM666 831q0 -32 -16 -32q-37 0 -110 163q-22 51 -43 102t-43 103q-4 10 -11 24t-18 33q-18 21 -35 43t-17 55 q0 41 24 77q27 40 66 40q70 0 122 -223q14 -72 28.5 -144.5t28.5 -145.5q24 -90 24 -95zM343 1315q0 -24 -18 -73q-23 -78 -62.5 -193t-94.5 -270q-37 -88 -62 -88q-19 0 -19 34q0 14 24 106q36 135 66 469q1 11 2.5 26.5t5.5 37.5q17 56 67 56q40 0 67 -33q24 -32 24 -72z M786 118q0 -118 -82 -118q-83 0 -83 109q0 19 3 60q2 20 3 34.5t1 24.5q0 82 -21 201q-10 50 -19.5 99t-18.5 99q-9 52 -9 91q0 53 20 53t55 -102q24 -69 47.5 -137t46.5 -137q57 -177 57 -277zM602 324q0 -80 -59 -80q-22 0 -62 25q-34 20 -83.5 50t-115.5 72 q-67 46 -67 84q0 22 22 22q39 0 126 -34q95 -38 137 -42q57 -6 76 -22q26 -23 26 -75zM216 655q0 -37 -8.5 -112t-25.5 -189q-35 -239 -55 -288q-29 -66 -76 -66q-36 0 -60 34q-21 31 -21 69q0 41 49 164q37 97 132 372q25 72 42 72q23 0 23 -56z" />
<glyph unicode="&#xe1;" horiz-adv-x="752" d="M758 1679q0 -63 -46 -97q-20 -16 -192 -53q-170 -37 -209 -37q-48 0 -48 30q0 27 87 72q52 26 86 44t51 28q75 43 125 89q46 42 64 42q37 0 61 -42q21 -36 21 -76zM666 831q0 -32 -16 -32q-37 0 -110 163q-22 51 -43 102t-43 103q-4 10 -11 24t-18 33q-18 21 -35 43 t-17 55q0 41 24 77q27 40 66 40q70 0 122 -223q14 -72 28.5 -144.5t28.5 -145.5q24 -90 24 -95zM343 1315q0 -24 -18 -73q-23 -78 -62.5 -193t-94.5 -270q-37 -88 -62 -88q-19 0 -19 34q0 14 24 106q36 135 66 469q1 11 2.5 26.5t5.5 37.5q17 56 67 56q40 0 67 -33 q24 -32 24 -72zM786 118q0 -118 -82 -118q-83 0 -83 109q0 19 3 60q2 20 3 34.5t1 24.5q0 82 -21 201q-10 50 -19.5 99t-18.5 99q-9 52 -9 91q0 53 20 53t55 -102q24 -69 47.5 -137t46.5 -137q57 -177 57 -277zM602 324q0 -80 -59 -80q-22 0 -62 25q-34 20 -83.5 50 t-115.5 72q-67 46 -67 84q0 22 22 22q39 0 126 -34q95 -38 137 -42q57 -6 76 -22q26 -23 26 -75zM216 655q0 -37 -8.5 -112t-25.5 -189q-35 -239 -55 -288q-29 -66 -76 -66q-36 0 -60 34q-21 31 -21 69q0 41 49 164q37 97 132 372q25 72 42 72q23 0 23 -56z" />
<glyph unicode="&#xe2;" horiz-adv-x="752" d="M756 1597q0 -32 -17 -58q-18 -31 -49 -31q-18 0 -44 32q-17 20 -45 49t-69 69q-78 73 -113.5 120.5t-35.5 72.5q0 19 14 19q7 0 21.5 -10.5t41.5 -33.5q17 -16 41.5 -33t55.5 -36q40 -20 84 -46.5t94 -58.5q21 -24 21 -55zM363 1801q0 -23 -10 -44q-5 -12 -93 -80 q-27 -20 -54 -41t-55 -41q-18 -17 -36 -33.5t-36 -33.5q-58 -52 -69 -52q-12 0 -12 16q0 43 108 190q46 63 83.5 108t66.5 74q23 23 42 23q65 0 65 -86zM666 831q0 -32 -16 -32q-37 0 -110 163q-22 51 -43 102t-43 103q-4 10 -11 24t-18 33q-18 21 -35 43t-17 55q0 41 24 77 q27 40 66 40q70 0 122 -223q14 -72 28.5 -144.5t28.5 -145.5q24 -90 24 -95zM343 1315q0 -24 -18 -73q-23 -78 -62.5 -193t-94.5 -270q-37 -88 -62 -88q-19 0 -19 34q0 14 24 106q36 135 66 469q1 11 2.5 26.5t5.5 37.5q17 56 67 56q40 0 67 -33q24 -32 24 -72zM786 118 q0 -118 -82 -118q-83 0 -83 109q0 19 3 60q2 20 3 34.5t1 24.5q0 82 -21 201q-10 50 -19.5 99t-18.5 99q-9 52 -9 91q0 53 20 53t55 -102q24 -69 47.5 -137t46.5 -137q57 -177 57 -277zM602 324q0 -80 -59 -80q-22 0 -62 25q-34 20 -83.5 50t-115.5 72q-67 46 -67 84 q0 22 22 22q39 0 126 -34q95 -38 137 -42q57 -6 76 -22q26 -23 26 -75zM216 655q0 -37 -8.5 -112t-25.5 -189q-35 -239 -55 -288q-29 -66 -76 -66q-36 0 -60 34q-21 31 -21 69q0 41 49 164q37 97 132 372q25 72 42 72q23 0 23 -56z" />
<glyph unicode="&#xe3;" horiz-adv-x="752" d="M734 1708q0 -20 -15 -44q-80 -126 -215 -126q-55 0 -123 71q-68 72 -105 72q-67 0 -117 -44q-13 -11 -28.5 -32t-35.5 -50q-30 -44 -47 -44q-29 0 -29 37q0 96 83 191q84 94 180 94q40 0 109 -72q69 -71 128 -71q70 0 135 54q14 23 35 23q45 0 45 -59zM666 831 q0 -32 -16 -32q-37 0 -110 163q-22 51 -43 102t-43 103q-4 10 -11 24t-18 33q-18 21 -35 43t-17 55q0 41 24 77q27 40 66 40q70 0 122 -223q14 -72 28.5 -144.5t28.5 -145.5q24 -90 24 -95zM343 1315q0 -24 -18 -73q-23 -78 -62.5 -193t-94.5 -270q-37 -88 -62 -88 q-19 0 -19 34q0 14 24 106q36 135 66 469q1 11 2.5 26.5t5.5 37.5q17 56 67 56q40 0 67 -33q24 -32 24 -72zM786 118q0 -118 -80 -118q-85 0 -85 105q0 10 0.5 23.5t1.5 31.5q3 36 3 55q0 43 -5 94.5t-15 112.5q-10 52 -19 103l-18 102q-9 52 -9 91q0 53 20 53t55 -102 q24 -69 47.5 -137t46.5 -137q57 -177 57 -277zM602 324q0 -80 -59 -80q-22 0 -62 25q-34 20 -83.5 50t-115.5 72q-67 46 -67 84q0 22 22 22q39 0 126 -34q95 -38 137 -42q57 -6 76 -22q26 -23 26 -75zM216 655q0 -37 -8.5 -112t-25.5 -189q-35 -239 -55 -288 q-29 -66 -76 -66q-36 0 -60 34q-21 31 -21 69q0 41 49 164q37 97 132 372q25 72 42 72q23 0 23 -56z" />
<glyph unicode="&#xe4;" horiz-adv-x="752" d="M646 1662q0 -50 -25 -88q-28 -46 -74 -46q-48 0 -78 45q-26 40 -26 89q0 52 25 90q28 45 77 45q47 0 75 -46q26 -41 26 -89zM308 1662q0 -49 -24 -88q-28 -46 -74 -46q-47 0 -77 45q-27 39 -27 89q0 49 26 90q30 45 77 45q46 0 74 -46q25 -40 25 -89zM666 831 q0 -32 -16 -32q-37 0 -110 163q-22 51 -43 102t-43 103q-4 10 -11 24t-18 33q-18 21 -35 43t-17 55q0 41 24 77q27 40 66 40q70 0 122 -223q14 -72 28.5 -144.5t28.5 -145.5q24 -90 24 -95zM343 1315q0 -24 -18 -73q-23 -78 -62.5 -193t-94.5 -270q-37 -88 -62 -88 q-19 0 -19 34q0 14 24 106q36 135 66 469q1 11 2.5 26.5t5.5 37.5q17 56 67 56q40 0 67 -33q24 -32 24 -72zM786 118q0 -118 -82 -118q-83 0 -83 109q0 19 3 60q2 20 3 34.5t1 24.5q0 82 -21 201q-10 50 -19.5 99t-18.5 99q-9 52 -9 91q0 53 20 53t55 -102q24 -69 47.5 -137 t46.5 -137q57 -177 57 -277zM602 324q0 -80 -59 -80q-22 0 -62 25q-34 20 -83.5 50t-115.5 72q-67 46 -67 84q0 22 22 22q39 0 126 -34q95 -38 137 -42q57 -6 76 -22q26 -23 26 -75zM216 655q0 -37 -8.5 -112t-25.5 -189q-35 -239 -55 -288q-29 -66 -76 -66q-36 0 -60 34 q-21 31 -21 69q0 41 49 164q37 97 132 372q25 72 42 72q23 0 23 -56z" />
<glyph unicode="&#xe5;" horiz-adv-x="752" d="M510 1708q0 -67 -33 -118q-39 -61 -102 -61q-59 0 -100 62q-34 52 -34 117q0 63 34 118q40 61 100 61q63 0 102 -60q33 -53 33 -119zM666 831q0 -32 -16 -32q-37 0 -110 163q-22 51 -43 102t-43 103q-4 10 -11 24t-18 33q-18 21 -35 43t-17 55q0 41 24 77q27 40 66 40 q70 0 122 -223q14 -72 28.5 -144.5t28.5 -145.5q24 -90 24 -95zM343 1315q0 -24 -18 -73q-23 -78 -62.5 -193t-94.5 -270q-37 -88 -62 -88q-19 0 -19 34q0 14 24 106q36 135 66 469q1 11 2.5 26.5t5.5 37.5q17 56 67 56q40 0 67 -33q24 -32 24 -72zM786 118q0 -118 -82 -118 q-83 0 -83 109q0 19 3 60q2 20 3 34.5t1 24.5q0 82 -21 201q-10 50 -19.5 99t-18.5 99q-9 52 -9 91q0 53 20 53t55 -102q24 -69 47.5 -137t46.5 -137q57 -177 57 -277zM602 324q0 -80 -59 -80q-22 0 -62 25q-34 20 -83.5 50t-115.5 72q-67 46 -67 84q0 22 22 22 q39 0 126 -34q95 -38 137 -42q57 -6 76 -22q26 -23 26 -75zM216 655q0 -37 -8.5 -112t-25.5 -189q-35 -239 -55 -288q-29 -66 -76 -66q-36 0 -60 34q-21 31 -21 69q0 41 49 164q37 97 132 372q25 72 42 72q23 0 23 -56zM430 1708q0 71 -55 71q-53 0 -53 -71q0 -72 53 -72 q55 0 55 72z" />
<glyph unicode="&#xe6;" horiz-adv-x="1400" d="M1333 1334q0 -37 -18 -71q-23 -41 -56 -41q-35 0 -81 13q-20 5 -40 10.5t-40 10.5l-190 42q-86 20 -86 59q0 30 203 41q33 2 62.5 5.5t55.5 8.5q7 2 22.5 6.5t41.5 12.5q47 14 57 14q32 0 53 -41q16 -33 16 -70zM783 1342q0 -20 -15 -80q-44 -185 -58 -437 q-8 -134 -25 -134q-34 0 -46 112q-27 229 -27 470q0 165 84 165q36 0 61 -31q26 -31 26 -65zM1206 749q0 -94 -73 -94q-8 0 -28 4q-96 16 -285 54q-85 18 -85 60q0 31 101 34h62t63 1q73 5 122 21q42 14 52 14q33 0 54 -32q17 -29 17 -62zM598 1346q0 -32 -41 -100 q-42 -73 -106.5 -180t-154.5 -250q-51 -75 -79 -75q-13 0 -13 16q0 26 49 120q79 151 175 455q6 22 24 63q24 43 69 43q77 0 77 -92zM1322 132q0 -36 -18 -72q-22 -40 -55 -40t-82 12q-20 6 -40.5 12t-40.5 11q-32 7 -79 17t-111 24q-85 19 -85 58q0 24 86 33q28 2 55 3.5 t54 3.5q35 2 67 6.5t60 9.5q12 1 62 18q45 14 52 14q35 0 57 -40q18 -33 18 -70zM785 98q0 -39 -23 -68t-61 -29q-36 0 -60 31q-24 28 -24 66q0 5 6.5 59t19.5 157l31 254q14 113 45 113q20 0 25 -134q2 -79 4 -126.5t3 -64.5q4 -54 9.5 -101t13.5 -89q5 -26 8 -43t3 -25z M602 324q0 -80 -59 -80q-22 0 -62 25q-34 20 -83.5 50t-115.5 72q-67 46 -67 84q0 22 22 22q39 0 126 -34q95 -38 137 -42q57 -6 76 -22q26 -23 26 -75zM216 655q0 -78 -33 -301q-33 -234 -56 -288q-29 -66 -76 -66q-38 0 -60 34q-21 30 -21 69q0 41 49 164q33 82 132 372 q25 72 42 72q23 0 23 -56z" />
<glyph unicode="&#xe7;" horiz-adv-x="922" d="M756 1180q0 -39 -22 -73q-24 -40 -60 -40q-23 0 -132 92l-196 165q-61 52 -61 86q0 24 22 24q21 0 80 -30q34 -18 86.5 -42t124.5 -54q20 -3 48.5 -10.5t66.5 -18.5q43 -22 43 -99zM271 1342q0 -19 -15 -80q-23 -91 -37.5 -199.5t-21.5 -237.5q-8 -134 -24 -134 q-36 0 -46 112q-27 241 -27 470q0 165 83 165q36 0 61 -31q27 -30 27 -65zM819 257q0 -65 -45 -99q-21 -16 -194 -53q-167 -37 -207 -37q-47 0 -47 30q0 25 86 72q126 67 136 73q75 43 126 89q46 42 63 42q35 0 61 -41q21 -38 21 -76zM273 98q0 -39 -23 -68t-61 -29 q-36 0 -61 31q-24 28 -24 66q0 5 6.5 59t19.5 157l32 254q14 113 45 113q22 0 25 -134q1 -49 4.5 -122t11.5 -171q1 -15 15 -78q10 -46 10 -78zM540 -63q0 -34 -64 -163q-65 -131 -83 -131q-12 0 -12 36q0 42 29 129q29 85 29 129q0 64 51 64q50 0 50 -64z" />
<glyph unicode="&#xe8;" horiz-adv-x="887" d="M571 1522q0 -30 -45 -30q-38 0 -207 37q-174 39 -193 53q-47 35 -47 96q0 40 21 76q25 43 62 43q15 0 62 -42q70 -61 263 -161q84 -44 84 -72zM820 1334q0 -37 -18 -71q-23 -41 -55 -41q-35 0 -81 13q-20 5 -40 10.5t-40 10.5l-190 42q-86 20 -86 59q0 30 206 41 q60 3 115 14q7 2 22.5 6.5t40.5 12.5q45 14 57 14q32 0 53 -41q16 -33 16 -70zM271 1342q0 -6 -24 -118q-19 -87 -31 -186t-19 -213q-8 -134 -24 -134q-36 0 -46 112q-27 241 -27 470q0 165 83 165q36 0 61 -31q27 -30 27 -65zM693 749q0 -94 -72 -94q-9 0 -28 4 q-96 16 -285 54q-85 18 -85 60q0 28 100 34q31 1 62 1.5t63 1.5q75 3 123 19q45 14 49 14q73 0 73 -94zM810 132q0 -38 -18 -72q-22 -40 -55 -40q-9 0 -164 35q-32 7 -79 17t-111 24q-84 19 -84 58q0 27 196 40q121 8 191 33q40 15 49 15q35 0 57 -40q18 -33 18 -70zM273 98 q0 -39 -22 -67q-24 -30 -62 -30q-18 0 -33.5 8t-27 21.5t-18 31t-6.5 36.5q0 5 6.5 59t19.5 157l32 254q14 113 45 113q20 0 25 -134q3 -90 4.5 -137.5t2.5 -53.5q3 -55 8.5 -102t13.5 -88q12 -59 12 -68z" />
<glyph unicode="&#xe9;" horiz-adv-x="909" d="M842 1679q0 -63 -45 -97q-21 -16 -193 -53q-169 -37 -208 -37q-47 0 -47 30q0 27 87 72q100 51 135 72q75 43 125 89q46 42 65 42q37 0 60 -42q21 -36 21 -76zM820 1334q0 -37 -18 -71q-23 -41 -55 -41q-35 0 -81 13q-20 5 -40 10.5t-40 10.5l-190 42q-86 20 -86 59 q0 30 206 41q60 3 115 14q7 2 22.5 6.5t40.5 12.5q45 14 57 14q32 0 53 -41q16 -33 16 -70zM271 1342q0 -6 -24 -118q-19 -87 -31 -186t-19 -213q-8 -134 -24 -134q-36 0 -46 112q-27 241 -27 470q0 165 83 165q36 0 61 -31q27 -30 27 -65zM693 749q0 -94 -72 -94 q-9 0 -28 4q-96 16 -285 54q-85 18 -85 60q0 28 100 34q31 1 62 1.5t63 1.5q75 3 123 19q45 14 49 14q73 0 73 -94zM810 132q0 -38 -18 -72q-22 -40 -55 -40q-9 0 -164 35q-32 7 -79 17t-111 24q-84 19 -84 58q0 27 196 40q121 8 191 33q40 15 49 15q35 0 57 -40 q18 -33 18 -70zM273 98q0 -39 -22 -67q-24 -30 -62 -30q-18 0 -33.5 8t-27 21.5t-18 31t-6.5 36.5q0 5 6.5 59t19.5 157l32 254q14 113 45 113q20 0 25 -134q3 -90 4.5 -137.5t2.5 -53.5q3 -55 8.5 -102t13.5 -88q12 -59 12 -68z" />
<glyph unicode="&#xea;" horiz-adv-x="909" d="M842 1597q0 -31 -18 -58q-19 -31 -50 -31q-15 0 -44 32l-150 153q-111 115 -111 158q0 19 12 19t64 -44q69 -60 243 -151q22 -10 33 -23q21 -23 21 -55zM448 1801q0 -20 -11 -44q-8 -14 -92 -79q-26 -20 -53 -41t-54 -41q-18 -17 -36 -33.5t-37 -33.5q-61 -53 -69 -53 q-15 0 -15 16q0 46 112 191q143 185 170 198q12 6 22 6q63 0 63 -86zM820 1334q0 -37 -18 -71q-23 -41 -55 -41q-35 0 -81 13q-20 5 -40 10.5t-40 10.5l-190 42q-86 20 -86 59q0 30 206 41q60 3 115 14q7 2 22.5 6.5t40.5 12.5q45 14 57 14q32 0 53 -41q16 -33 16 -70z M271 1342q0 -6 -24 -118q-19 -87 -31 -186t-19 -213q-8 -134 -24 -134q-36 0 -46 112q-27 241 -27 470q0 165 83 165q36 0 61 -31q27 -30 27 -65zM693 749q0 -94 -72 -94q-9 0 -28 4q-96 16 -285 54q-85 18 -85 60q0 28 100 34q31 1 62 1.5t63 1.5q75 3 123 19q45 14 49 14 q73 0 73 -94zM810 132q0 -38 -18 -72q-22 -40 -55 -40q-9 0 -164 35q-32 7 -79 17t-111 24q-84 19 -84 58q0 27 196 40q121 8 191 33q40 15 49 15q35 0 57 -40q18 -33 18 -70zM273 98q0 -39 -22 -67q-24 -30 -62 -30q-18 0 -33.5 8t-27 21.5t-18 31t-6.5 36.5q0 5 6.5 59 t19.5 157l32 254q14 113 45 113q20 0 25 -134q3 -90 4.5 -137.5t2.5 -53.5q3 -55 8.5 -102t13.5 -88q12 -59 12 -68z" />
<glyph unicode="&#xeb;" horiz-adv-x="887" d="M730 1662q0 -52 -24 -89q-28 -43 -77 -43t-77 43q-23 38 -23 89q0 50 25 90q28 45 76 45q47 0 75 -46q25 -40 25 -89zM394 1662q0 -49 -26 -89q-32 -45 -77 -45q-46 0 -74 46q-26 41 -26 88q0 48 26 89q28 46 74 46q45 0 77 -45q26 -41 26 -90zM820 1334q0 -37 -18 -71 q-23 -41 -55 -41q-35 0 -81 13q-20 5 -40 10.5t-40 10.5l-190 42q-86 20 -86 59q0 30 206 41q60 3 115 14q7 2 22.5 6.5t40.5 12.5q45 14 57 14q32 0 53 -41q16 -33 16 -70zM271 1342q0 -6 -24 -118q-19 -87 -31 -186t-19 -213q-8 -134 -24 -134q-36 0 -46 112 q-27 241 -27 470q0 165 83 165q36 0 61 -31q27 -30 27 -65zM693 749q0 -94 -72 -94q-9 0 -28 4q-96 16 -285 54q-85 18 -85 60q0 28 100 34q31 1 62 1.5t63 1.5q75 3 123 19q45 14 49 14q73 0 73 -94zM810 132q0 -38 -18 -72q-22 -40 -55 -40q-9 0 -164 35q-32 7 -79 17 t-111 24q-84 19 -84 58q0 27 196 40q121 8 191 33q40 15 49 15q35 0 57 -40q18 -33 18 -70zM273 98q0 -39 -22 -67q-24 -30 -62 -30q-18 0 -33.5 8t-27 21.5t-18 31t-6.5 36.5q0 5 6.5 59t19.5 157l32 254q14 113 45 113q20 0 25 -134q3 -90 4.5 -137.5t2.5 -53.5 q3 -55 8.5 -102t13.5 -88q12 -59 12 -68z" />
<glyph unicode="&#xec;" horiz-adv-x="373" d="M299 1522q0 -30 -46 -30q-40 0 -207 37q-172 37 -192 53q-47 36 -47 96q0 40 21 76q25 43 62 43q18 0 65 -42q72 -66 258 -161q86 -45 86 -72zM271 1342q0 -16 -15 -80q-22 -92 -36.5 -200.5t-22.5 -236.5q-8 -134 -24 -134q-36 0 -46 112q-27 241 -27 468q0 167 83 167 q36 0 61 -31q27 -30 27 -65zM273 98q0 -39 -22 -67q-24 -30 -62 -30q-18 0 -33.5 8t-27 21.5t-18 31t-6.5 36.5q0 5 4.5 42.5t14.5 109.5l39 318q15 113 45 113q20 0 25 -134q4 -91 5.5 -138.5t1.5 -52.5q4 -55 9 -102t13 -88q12 -60 12 -68z" />
<glyph unicode="&#xed;" horiz-adv-x="373" d="M569 1679q0 -63 -46 -97q-20 -15 -193 -53q-85 -19 -137 -28t-71 -9q-48 0 -48 30q0 27 88 72q51 26 85 43.5t51 28.5q75 43 126 89q46 42 63 42q37 0 61 -42q21 -36 21 -76zM271 1342q0 -16 -15 -80q-22 -92 -36.5 -200.5t-22.5 -236.5q-8 -134 -24 -134q-36 0 -46 112 q-27 241 -27 468q0 167 83 167q36 0 61 -31q27 -30 27 -65zM273 98q0 -39 -22 -67q-24 -30 -62 -30q-18 0 -33.5 8t-27 21.5t-18 31t-6.5 36.5q0 5 4.5 42.5t14.5 109.5l39 318q15 113 45 113q20 0 25 -134q4 -91 5.5 -138.5t1.5 -52.5q4 -55 9 -102t13 -88q12 -60 12 -68z " />
<glyph unicode="&#xee;" horiz-adv-x="373" d="M568 1597q0 -29 -17 -57q-20 -32 -47 -32q-19 0 -51 32q-11 13 -21 25t-21 25q-32 31 -63.5 62t-63.5 62q-90 93 -90 137q0 19 15 19q11 0 61 -44q69 -62 243 -151q13 -4 34 -21q21 -20 21 -57zM174 1801q0 -20 -11 -44q-7 -13 -92 -80q-27 -20 -54 -41t-53 -41 q-36 -35 -72 -66q-61 -53 -68 -53q-14 0 -14 16q0 42 108 189q93 127 147 183q25 23 42 23q67 0 67 -86zM271 1342q0 -16 -15 -80q-22 -92 -36.5 -200.5t-22.5 -236.5q-8 -134 -24 -134q-36 0 -46 112q-27 241 -27 468q0 167 83 167q36 0 61 -31q27 -30 27 -65zM273 98 q0 -39 -22 -67q-24 -30 -62 -30q-18 0 -33.5 8t-27 21.5t-18 31t-6.5 36.5q0 5 4.5 42.5t14.5 109.5l39 318q15 113 45 113q20 0 25 -134q4 -91 5.5 -138.5t1.5 -52.5q4 -55 9 -102t13 -88q12 -60 12 -68z" />
<glyph unicode="&#xef;" horiz-adv-x="373" d="M457 1662q0 -48 -25 -88q-28 -46 -74 -46q-47 0 -77 45q-26 40 -26 89q0 52 25 90q28 45 77 45q47 0 75 -46q25 -40 25 -89zM120 1662q0 -48 -24 -88q-30 -46 -75 -46t-75 45q-26 40 -26 89q0 50 25 90q31 45 76 45q47 0 75 -46q24 -41 24 -89zM271 1342q0 -16 -15 -80 q-22 -92 -36.5 -200.5t-22.5 -236.5q-8 -134 -24 -134q-36 0 -46 112q-27 241 -27 468q0 167 83 167q36 0 61 -31q27 -30 27 -65zM273 98q0 -39 -22 -67q-24 -30 -62 -30q-18 0 -33.5 8t-27 21.5t-18 31t-6.5 36.5q0 5 4.5 42.5t14.5 109.5l39 318q15 113 45 113 q20 0 25 -134q4 -91 5.5 -138.5t1.5 -52.5q4 -55 9 -102t13 -88q12 -60 12 -68z" />
<glyph unicode="&#xf1;" horiz-adv-x="972" d="M845 1708q0 -21 -16 -44q-80 -126 -215 -126q-56 0 -124 71q-68 72 -106 72q-67 0 -116 -44q-26 -24 -62 -82q-29 -44 -47 -44q-32 0 -32 37q0 96 85 190q86 95 181 95q40 0 108 -72q68 -71 126 -71q73 0 139 54q12 23 35 23q44 0 44 -59zM870 1338q0 -9 -2.5 -25.5 t-7.5 -39.5q-20 -98 -30 -385q-5 -131 -25 -131q-29 0 -44 114q-18 137 -31.5 243.5t-22.5 187.5q-3 25 -3 38q0 37 24 67q24 31 60 31q38 0 61 -32q21 -29 21 -68zM653 755q0 -42 -22 -76q-25 -40 -65 -40q-23 0 -46 19q-23 20 -109 208q-42 91 -66 148t-31 83q-7 24 -7 41 q0 32 14 32q19 0 78 -84q18 -26 45.5 -57.5t64.5 -69.5q43 -45 71.5 -76t42.5 -48q30 -38 30 -80zM271 1342q0 -8 -24 -120q-19 -88 -31.5 -186.5t-18.5 -210.5q-8 -134 -24 -134q-36 0 -46 112q-27 241 -27 470q0 165 83 165q36 0 61 -31q27 -30 27 -65zM869 96 q0 -36 -27 -66q-26 -29 -60 -29q-83 0 -83 165q0 117 7 234t21 235q12 112 44 112q18 0 26 -134q14 -249 58 -437q7 -29 10.5 -49t3.5 -31zM273 98q0 -39 -22 -67q-24 -30 -62 -30q-18 0 -33.5 8t-27 21.5t-18 31t-6.5 36.5q0 5 6.5 59t19.5 157l32 254q14 113 45 113 q20 0 25 -134q3 -90 4.5 -137.5t2.5 -53.5q3 -55 8.5 -102t13.5 -88q12 -59 12 -68z" />
<glyph unicode="&#xf2;" horiz-adv-x="949" d="M586 1522q0 -30 -47 -30q-38 0 -207 37q-173 37 -194 53q-45 34 -45 97q0 40 21 76q24 42 62 42q15 0 62 -42q68 -60 262 -161q86 -45 86 -72zM882 903q0 -40 -23 -77q-26 -41 -64 -41q-23 0 -43 16q-11 7 -81 168q-21 50 -42 98.5t-42 97.5q-17 32 -33 64l-32 64 q-52 103 -52 117q0 28 17 28q45 0 196 -202q58 -78 101.5 -143t73.5 -117q24 -41 24 -73zM472 1264q0 -47 -64 -102q-35 -29 -68.5 -69t-65.5 -92q-23 -38 -45.5 -76.5t-45.5 -77.5q-75 -120 -100 -120q-15 0 -15 24q0 35 36 128q28 64 54 129q35 91 57 145t32 73 q76 160 137 160q35 0 64 -44q24 -39 24 -78zM858 639q0 -16 -44 -109q-46 -97 -149 -434q-29 -96 -78 -96q-41 0 -66 39q-24 34 -24 77q0 33 34 82q46 69 117 204q136 259 193 259q17 0 17 -22zM466 126q0 -43 -22 -77q-26 -41 -65 -41q-22 0 -44 18q-39 33 -188 390 q-10 27 -38 83q-42 75 -42 98q0 26 17 26q56 0 253 -309q12 -19 27.5 -40.5t34.5 -46.5q17 -9 46 -31q21 -23 21 -70z" />
<glyph unicode="&#xf3;" horiz-adv-x="949" d="M855 1679q0 -63 -45 -97q-20 -15 -191 -52q-175 -38 -209 -38q-47 0 -47 30q0 28 86 72q52 26 85.5 44t50.5 28q73 43 125 89q46 42 64 42q37 0 61 -42q20 -37 20 -76zM882 903q0 -40 -23 -77q-26 -41 -64 -41q-23 0 -43 16q-11 7 -81 168q-21 50 -42 98.5t-42 97.5 q-17 32 -33 64l-32 64q-52 103 -52 117q0 28 17 28q45 0 196 -202q58 -78 101.5 -143t73.5 -117q24 -41 24 -73zM472 1264q0 -47 -64 -102q-35 -29 -68.5 -69t-65.5 -92q-23 -38 -45.5 -76.5t-45.5 -77.5q-75 -120 -100 -120q-15 0 -15 24q0 35 36 128q28 64 54 129 q35 91 57 145t32 73q76 160 137 160q35 0 64 -44q24 -39 24 -78zM858 639q0 -16 -44 -109q-46 -97 -149 -434q-29 -96 -78 -96q-41 0 -66 39q-24 34 -24 77q0 33 34 82q46 69 117 204q136 259 193 259q17 0 17 -22zM466 126q0 -43 -22 -77q-26 -41 -65 -41q-22 0 -44 18 q-39 33 -188 390q-10 27 -38 83q-42 75 -42 98q0 26 17 26q56 0 253 -309q12 -19 27.5 -40.5t34.5 -46.5q17 -9 46 -31q21 -23 21 -70z" />
<glyph unicode="&#xf4;" horiz-adv-x="949" d="M855 1597q0 -29 -16 -57q-20 -32 -48 -32q-20 0 -50 33l-20 24t-21 25l-64 62l-64 62q-90 94 -90 137q0 19 12 19q13 0 65 -44q62 -54 243 -151q22 -10 33 -23q20 -23 20 -55zM461 1801q0 -23 -10 -44q-4 -7 -26.5 -27t-64.5 -52q-27 -20 -54 -41t-53 -41 q-19 -17 -37.5 -33.5t-37.5 -33.5q-61 -53 -69 -53q-14 0 -14 16q0 40 110 189q93 126 150 183q23 23 42 23q64 0 64 -86zM882 903q0 -40 -23 -77q-26 -41 -64 -41q-23 0 -43 16q-11 7 -81 168q-21 50 -42 98.5t-42 97.5q-17 32 -33 64l-32 64q-52 103 -52 117q0 28 17 28 q45 0 196 -202q58 -78 101.5 -143t73.5 -117q24 -41 24 -73zM472 1264q0 -47 -64 -102q-35 -29 -68.5 -69t-65.5 -92q-23 -38 -45.5 -76.5t-45.5 -77.5q-75 -120 -100 -120q-15 0 -15 24q0 35 36 128q28 64 54 129q35 91 57 145t32 73q76 160 137 160q35 0 64 -44 q24 -39 24 -78zM858 639q0 -16 -44 -109q-46 -97 -149 -434q-29 -96 -78 -96q-41 0 -66 39q-24 34 -24 77q0 33 34 82q46 69 117 204q136 259 193 259q17 0 17 -22zM466 126q0 -43 -22 -77q-26 -41 -65 -41q-22 0 -44 18q-39 33 -188 390q-10 27 -38 83q-42 75 -42 98 q0 26 17 26q56 0 253 -309q12 -19 27.5 -40.5t34.5 -46.5q17 -9 46 -31q21 -23 21 -70z" />
<glyph unicode="&#xf5;" horiz-adv-x="949" d="M833 1708q0 -18 -17 -44q-81 -126 -214 -126q-56 0 -124 71q-68 72 -105 72q-67 0 -117 -44q-26 -24 -62 -82q-29 -44 -47 -44q-32 0 -32 37q0 96 85 190q86 95 180 95q41 0 109 -72q69 -71 126 -71q73 0 138 54q14 23 35 23q45 0 45 -59zM882 903q0 -40 -23 -77 q-26 -41 -64 -41q-23 0 -43 16q-11 7 -81 168q-21 50 -42 98.5t-42 97.5q-17 32 -33 64l-32 64q-52 103 -52 117q0 28 17 28q45 0 196 -202q58 -78 101.5 -143t73.5 -117q24 -41 24 -73zM472 1264q0 -47 -64 -102q-35 -29 -68.5 -69t-65.5 -92q-23 -38 -45.5 -76.5 t-45.5 -77.5q-75 -120 -100 -120q-15 0 -15 24q0 35 36 128q28 64 54 129q35 91 57 145t32 73q76 160 137 160q35 0 64 -44q24 -39 24 -78zM858 639q0 -16 -44 -109q-46 -97 -149 -434q-29 -96 -78 -96q-41 0 -66 39q-24 34 -24 77q0 33 34 82q46 69 117 204 q136 259 193 259q17 0 17 -22zM466 126q0 -43 -22 -77q-26 -41 -65 -41q-22 0 -44 18q-39 33 -188 390q-10 27 -38 83q-42 75 -42 98q0 26 17 26q56 0 253 -309q12 -19 27.5 -40.5t34.5 -46.5q17 -9 46 -31q21 -23 21 -70z" />
<glyph unicode="&#xf6;" horiz-adv-x="949" d="M744 1662q0 -51 -25 -89q-30 -45 -77 -45q-46 0 -74 46q-26 41 -26 88q0 48 26 89q28 46 74 46q47 0 77 -45q25 -40 25 -90zM408 1662q0 -52 -25 -89q-28 -43 -78 -43q-49 0 -76 43q-23 38 -23 89q0 49 24 90q28 45 76 45q47 0 75 -46q27 -41 27 -89zM882 903 q0 -40 -23 -77q-26 -41 -64 -41q-23 0 -43 16q-11 7 -81 168q-21 50 -42 98.5t-42 97.5q-17 32 -33 64l-32 64q-52 103 -52 117q0 28 17 28q45 0 196 -202q58 -78 101.5 -143t73.5 -117q24 -41 24 -73zM472 1264q0 -47 -64 -102q-35 -29 -68.5 -69t-65.5 -92 q-23 -38 -45.5 -76.5t-45.5 -77.5q-75 -120 -100 -120q-15 0 -15 24q0 35 36 128q28 64 54 129q35 91 57 145t32 73q76 160 137 160q35 0 64 -44q24 -39 24 -78zM858 639q0 -16 -44 -109q-46 -97 -149 -434q-29 -96 -78 -96q-41 0 -66 39q-24 34 -24 77q0 33 34 82 q46 69 117 204q136 259 193 259q17 0 17 -22zM466 126q0 -43 -22 -77q-26 -41 -65 -41q-22 0 -44 18q-39 33 -188 390q-10 27 -38 83q-42 75 -42 98q0 26 17 26q56 0 253 -309q12 -19 27.5 -40.5t34.5 -46.5q17 -9 46 -31q21 -23 21 -70z" />
<glyph unicode="&#xf7;" d="M458 1083q0 -41 -21 -75q-24 -38 -63 -38q-38 0 -64 38q-21 34 -21 75q0 43 20 75q25 37 65 37q84 0 84 -112zM635 833q0 -37 -22 -68q-24 -36 -59 -36q-11 0 -31 4q-54 10 -132 25t-184 35q-95 21 -95 66q0 30 111 38q36 0 89 3t124 8q15 1 62 17q39 12 62 12 q36 0 56 -36q19 -29 19 -68zM458 577q0 -112 -84 -112q-40 0 -65 37q-20 32 -20 75q0 39 21 74q26 38 64 38q39 0 63 -38q21 -33 21 -74z" />
<glyph unicode="&#xf8;" horiz-adv-x="949" d="M882 903q0 -40 -23 -77q-26 -42 -65 -42q-21 0 -41 17q-14 11 -93 200q-20 -33 -42.5 -75.5t-47.5 -94.5q-50 -104 -66 -104q-18 0 -18 37q0 81 110 387q-17 34 -35 67.5t-36 67.5q-55 106 -55 124q0 28 17 28q37 0 159 -156q44 110 92 110q37 0 64 -40q28 -38 28 -77 q0 -36 -80 -137q132 -185 132 -235zM472 1264q0 -47 -64 -102q-35 -29 -68.5 -69t-65.5 -92q-23 -38 -45.5 -76.5t-45.5 -77.5q-75 -120 -100 -120q-15 0 -15 24q0 35 36 128q28 64 54 129q35 91 57 145t32 73q76 160 137 160q35 0 64 -44q24 -39 24 -78zM858 639 q0 -18 -44 -109q-23 -49 -60 -157t-89 -277q-29 -96 -78 -96q-41 0 -66 39q-24 34 -24 77q0 33 34 82q46 69 117 204q136 259 193 259q17 0 17 -22zM466 126q0 -43 -22 -77q-26 -41 -66 -41q-47 0 -98 102q-17 -66 -67 -66q-40 0 -68 37q-25 32 -25 75q0 30 71 158 q-20 49 -40 95t-42 89q-42 87 -42 99q0 26 17 26q48 0 174 -188q11 20 37.5 66.5t68.5 119.5q44 74 67 74q20 0 20 -22q0 -14 -119 -351q35 -66 67 -95q13 -9 25 -18t25 -19q17 -17 17 -64z" />
<glyph unicode="&#xf9;" horiz-adv-x="998" d="M611 1522q0 -30 -46 -30q-39 0 -208 37q-173 37 -194 53q-46 34 -46 97q0 40 21 76q24 42 61 42q15 0 62 -42q71 -60 264 -161q86 -45 86 -72zM896 1332q0 -22 -12 -137q-5 -38 -12 -141t-17 -271q-4 -88 -26 -88q-30 0 -47 122q-21 165 -39 330q-7 66 -10.5 112t-3.5 75 q0 41 24 73q25 33 65 33q78 0 78 -108zM277 1338q0 -17 -20 -82q-34 -111 -40 -354q-4 -256 -36 -256q-25 0 -39 119q-42 385 -42 453q0 220 87 220q19 0 35.5 -8.5t28.5 -22t19 -32t7 -37.5zM893 639q0 -20 -46 -109q-61 -122 -150 -434q-27 -96 -76 -96q-41 0 -66 39 q-23 35 -23 77q0 35 31 82q30 54 76 133.5t109 187.5q87 142 125 142q20 0 20 -22zM500 126q0 -42 -22 -77q-26 -41 -64 -41q-23 0 -44 18q-35 32 -103 184q-22 52 -43.5 104t-43.5 104q-5 14 -14.5 34.5t-23.5 46.5q-42 75 -42 98q0 26 17 26q59 0 253 -309q19 -35 63 -87 q15 -8 48 -35q19 -22 19 -66z" />
<glyph unicode="&#xfa;" horiz-adv-x="998" d="M881 1679q0 -63 -46 -97q-20 -15 -193 -53q-85 -19 -137 -28t-71 -9q-48 0 -48 30q0 27 87 72q51 26 85.5 44t51.5 28q75 44 124 89q46 42 65 42q37 0 61 -42q21 -36 21 -76zM896 1332q0 -22 -12 -137q-5 -38 -12 -141t-17 -271q-4 -88 -26 -88q-30 0 -47 122 q-21 165 -39 330q-7 66 -10.5 112t-3.5 75q0 41 24 73q25 33 65 33q78 0 78 -108zM277 1338q0 -17 -20 -82q-34 -111 -40 -354q-4 -256 -36 -256q-25 0 -39 119q-42 385 -42 453q0 220 87 220q19 0 35.5 -8.5t28.5 -22t19 -32t7 -37.5zM893 639q0 -20 -46 -109 q-61 -122 -150 -434q-27 -96 -76 -96q-41 0 -66 39q-23 35 -23 77q0 35 31 82q30 54 76 133.5t109 187.5q87 142 125 142q20 0 20 -22zM500 126q0 -42 -22 -77q-26 -41 -64 -41q-23 0 -44 18q-35 32 -103 184q-22 52 -43.5 104t-43.5 104q-5 14 -14.5 34.5t-23.5 46.5 q-42 75 -42 98q0 26 17 26q59 0 253 -309q19 -35 63 -87q15 -8 48 -35q19 -22 19 -66z" />
<glyph unicode="&#xfb;" horiz-adv-x="998" d="M879 1597q0 -32 -17 -58q-18 -31 -49 -31q-18 0 -45 32q-30 37 -114 118q-78 73 -113 120.5t-35 72.5q0 19 13 19q7 0 23 -11q7 -5 17 -13t24 -20q17 -16 41.5 -33t55.5 -36q40 -20 84.5 -46.5t93.5 -58.5q21 -24 21 -55zM486 1801q0 -23 -10 -44q-5 -12 -93 -80 q-27 -20 -54 -41t-55 -41q-18 -17 -36 -33.5t-36 -33.5q-59 -52 -69 -52q-15 0 -15 16q0 41 110 189q93 124 150 183q25 23 42 23q66 0 66 -86zM896 1332q0 -22 -12 -137q-5 -38 -12 -141t-17 -271q-4 -88 -26 -88q-30 0 -47 122q-21 165 -39 330q-7 66 -10.5 112t-3.5 75 q0 41 24 73q25 33 65 33q78 0 78 -108zM277 1338q0 -17 -20 -82q-34 -111 -40 -354q-4 -256 -36 -256q-25 0 -39 119q-42 385 -42 453q0 220 87 220q19 0 35.5 -8.5t28.5 -22t19 -32t7 -37.5zM893 639q0 -20 -46 -109q-61 -122 -150 -434q-27 -96 -76 -96q-41 0 -66 39 q-23 35 -23 77q0 35 31 82q30 54 76 133.5t109 187.5q87 142 125 142q20 0 20 -22zM500 126q0 -42 -22 -77q-26 -41 -64 -41q-23 0 -44 18q-35 32 -103 184q-22 52 -43.5 104t-43.5 104q-5 14 -14.5 34.5t-23.5 46.5q-42 75 -42 98q0 26 17 26q59 0 253 -309q19 -35 63 -87 q15 -8 48 -35q19 -22 19 -66z" />
<glyph unicode="&#xfc;" horiz-adv-x="998" d="M768 1662q0 -49 -26 -89q-30 -45 -77 -45q-46 0 -74 46q-25 40 -25 88q0 49 25 89q28 46 74 46q47 0 77 -45q26 -41 26 -90zM431 1662q0 -51 -25 -89q-32 -45 -77 -45q-46 0 -74 46q-26 41 -26 88q0 48 26 89q28 46 74 46q45 0 77 -45q25 -40 25 -90zM896 1332 q0 -22 -12 -137q-5 -38 -12 -141t-17 -271q-4 -88 -26 -88q-30 0 -47 122q-21 165 -39 330q-7 66 -10.5 112t-3.5 75q0 41 24 73q25 33 65 33q78 0 78 -108zM277 1338q0 -17 -20 -82q-34 -111 -40 -354q-4 -256 -36 -256q-25 0 -39 119q-42 385 -42 453q0 220 87 220 q19 0 35.5 -8.5t28.5 -22t19 -32t7 -37.5zM893 639q0 -20 -46 -109q-61 -122 -150 -434q-27 -96 -76 -96q-41 0 -66 39q-23 35 -23 77q0 35 31 82q30 54 76 133.5t109 187.5q87 142 125 142q20 0 20 -22zM500 126q0 -42 -22 -77q-26 -41 -64 -41q-23 0 -44 18 q-35 32 -103 184q-22 52 -43.5 104t-43.5 104q-5 14 -14.5 34.5t-23.5 46.5q-42 75 -42 98q0 26 17 26q59 0 253 -309q19 -35 63 -87q15 -8 48 -35q19 -22 19 -66z" />
<glyph unicode="&#xfd;" horiz-adv-x="676" d="M709 1679q0 -63 -46 -97q-19 -16 -192 -53q-87 -19 -139 -28t-70 -9q-46 0 -46 30q0 27 86 72q51 26 85 43.5t51 28.5q73 43 125 89q46 42 63 42q36 0 62 -42q21 -36 21 -76zM689 1324q0 -28 -30 -80q-33 -72 -87.5 -175t-131.5 -241q-43 -67 -70 -67q-21 0 -21 24 q0 20 38 107q67 152 135 446q5 22 18 62q21 38 61 38q38 0 64 -39q24 -35 24 -75zM314 789q0 -32 -18 -32q-46 0 -130 170q-26 56 -51.5 111t-51.5 111q-19 36 -32 52q-11 14 -21 27t-21 26q-19 31 -19 66q0 39 19 76q22 42 59 42q60 0 110 -119q14 -38 31 -98t36 -145 q36 -161 52 -193q37 -78 37 -94zM416 98q0 -39 -23 -68t-60 -29t-61 31q-23 29 -23 66q0 4 3 36q5 78 15.5 194.5t24.5 272.5q12 114 45 114q20 0 26 -132q5 -132 16 -235.5t27 -181.5q10 -50 10 -68z" />
<glyph unicode="&#xff;" horiz-adv-x="654" d="M598 1662q0 -52 -25 -89q-28 -43 -78 -43q-48 0 -76 43q-23 38 -23 89q0 49 24 90q30 45 76 45q47 0 75 -46q27 -41 27 -89zM260 1662q0 -52 -24 -89q-28 -43 -77 -43t-77 43q-23 38 -23 89q0 49 24 90q28 45 76 45q47 0 75 -46q26 -41 26 -89zM689 1324q0 -28 -30 -80 q-33 -72 -87.5 -175t-131.5 -241q-43 -67 -70 -67q-21 0 -21 24q0 20 38 107q67 152 135 446q5 22 18 62q21 38 61 38q38 0 64 -39q24 -35 24 -75zM314 789q0 -32 -18 -32q-46 0 -130 170q-26 56 -51.5 111t-51.5 111q-19 36 -32 52q-11 14 -21 27t-21 26q-19 31 -19 66 q0 39 19 76q22 42 59 42q60 0 110 -119q14 -38 31 -98t36 -145q36 -161 52 -193q37 -78 37 -94zM416 98q0 -39 -23 -68t-60 -29t-61 31q-23 29 -23 66q0 4 3 36q5 78 15.5 194.5t24.5 272.5q12 114 45 114q20 0 26 -132q5 -132 16 -235.5t27 -181.5q10 -50 10 -68z" />
<glyph unicode="&#x152;" horiz-adv-x="1736" d="M1624 1482q0 -41 -20 -79q-23 -44 -61 -44q-19 0 -182 37l-210 46q-95 23 -95 66q0 36 218 45q42 2 76.5 5.5t62.5 10.5q5 1 21 6.5t44 15.5q45 15 63 15q38 0 62 -45q21 -38 21 -79zM1483 833q0 -37 -21 -68q-24 -36 -60 -36q-5 0 -13 1t-19 3q-53 10 -131.5 25 t-184.5 35q-93 19 -93 66q0 30 110 38l138 3q80 3 136 21q51 16 60 16q35 0 58 -36q20 -32 20 -68zM1012 1492q0 -20 -16 -90q-31 -133 -51 -304q34 -52 34 -106q0 -65 -49 -102q-5 -123 -27 -123q-36 0 -48 112q-36 17 -97 173q-102 256 -189 408q-46 79 -46 108t17 29 q62 0 286 -320q-3 87 -3 120q0 198 94 198q42 0 68.5 -30t26.5 -73zM525 1404q0 -39 -22 -65q-11 -12 -51 -47q-40 -34 -76.5 -78t-70.5 -101l-126 -210q-56 -95 -87 -95q-16 0 -16 35q0 24 100 279q70 181 99 241q87 177 153 177q40 0 70 -49q27 -44 27 -87zM1612 146 q0 -42 -19 -79q-24 -45 -62 -45q-18 0 -181 37l-212 47q-94 22 -94 66q0 36 218 45q42 1 76 5t62 11q5 1 21.5 6.5t44.5 15.5q44 14 63 14q37 0 63 -45q20 -38 20 -78zM1013 110q0 -42 -24 -73q-27 -36 -66 -36q-21 0 -38 9t-29.5 23.5t-19.5 34t-7 40.5q0 36 18 174l32 250 q-51 -111 -141 -426q-3 -11 -9 -28t-14 -40q-23 -38 -60 -38q-45 0 -76 43q-26 38 -26 87q0 36 36 89q45 66 129 226q40 74 73 129t61 93q33 43 59 60q10 30 29 30q9 0 16 -25q14 -58 17 -165l3 -171q4 -61 10 -114t16 -99q11 -61 11 -73zM519 146q0 -46 -24 -88 q-29 -50 -70 -50q-26 0 -52 22q-46 37 -130 244q-18 48 -48.5 118t-73.5 163q-47 83 -47 108q0 30 19 30q50 0 165 -166q36 -56 72 -111l72 -110q8 -12 18.5 -25t22.5 -27q76 -37 76 -108z" />
<glyph unicode="&#x153;" horiz-adv-x="1562" d="M1462 1334q0 -37 -19 -71q-21 -41 -55 -41q-36 0 -82 13l-81 21l-190 42q-86 20 -86 59q0 31 205 41q112 6 184 32q45 16 49 16q33 0 56 -41q19 -34 19 -71zM1335 749q0 -35 -18 -62q-23 -32 -56 -32q-9 0 -28 4q-48 8 -118.5 21.5t-165.5 32.5q-85 18 -85 60 q0 31 100 34q64 -2 192 9q5 1 18.5 5t34.5 11q35 11 55 11q32 0 53 -33q18 -27 18 -61zM911 1342q0 -17 -4.5 -42t-12.5 -59q-23 -92 -24 -105q-5 -32 -10 -68.5t-10 -78.5q32 -50 32 -98q0 -55 -44 -90q-5 -110 -25 -110q-33 0 -43 100q-11 6 -18 12q-15 12 -81 168 q-20 49 -41 97t-41 97q-17 32 -33 64t-33 64q-53 101 -53 117q0 28 17 28q55 0 257 -289q-3 88 -3 109q0 179 84 179q18 0 34 -8t27.5 -21t18 -30.5t6.5 -35.5zM472 1264q0 -47 -64 -102q-35 -29 -68.5 -69t-65.5 -92q-23 -38 -45.5 -76.5t-45.5 -77.5q-75 -120 -100 -120 q-15 0 -15 24q0 35 36 128q28 64 54 129q35 91 57 145t32 73q76 160 137 160q35 0 64 -44q24 -39 24 -78zM1449 132q0 -36 -17 -72q-21 -40 -54 -40t-82 12q-20 6 -40.5 12t-40.5 11q-32 7 -79 17t-111 24q-86 18 -86 58q0 23 87 34q28 2 55 3t54 3q35 2 66.5 6.5t60.5 9.5 q11 1 61 18q47 14 53 14q34 0 56 -40q17 -34 17 -70zM912 98q0 -18 -6 -35.5t-17.5 -31t-26.5 -22t-33 -8.5q-83 0 -83 116q0 4 4 36.5t12 94.5l29 229q-27 -65 -126 -381q-30 -96 -78 -96q-41 0 -66 39q-24 34 -24 77q0 33 34 82q43 67 117 204q110 210 171 253q9 26 28 26 q6 0 14 -27q7 -29 11 -65.5t5 -82.5q1 -72 1.5 -109t0.5 -41q4 -56 9.5 -103t13.5 -87q10 -46 10 -68zM466 126q0 -43 -22 -77q-26 -41 -65 -41q-22 0 -44 18q-38 33 -102 184q-22 52 -43 103.5t-43 103.5q-11 29 -38 82q-42 75 -42 98q0 26 17 26q58 0 253 -309 q13 -19 28 -40.5t34 -46.5q17 -9 46 -31q21 -23 21 -70z" />
<glyph unicode="&#x178;" horiz-adv-x="728" d="M663 1847q0 -55 -28 -98q-32 -51 -85 -51q-52 0 -83 51q-28 43 -28 98t28 99q33 51 84 51q52 0 84 -50q28 -43 28 -100zM289 1847q0 -54 -29 -98q-32 -51 -84 -51t-83 51q-29 44 -29 98q0 53 29 99q33 51 84 51t83 -50q29 -44 29 -100zM766 1472q0 -34 -34 -90 q-37 -79 -96.5 -194t-144.5 -267q-49 -76 -80 -76q-23 0 -23 23q0 26 43 125q37 86 74 208.5t75 284.5q4 25 21 70q21 42 62 42q46 0 76 -42q27 -38 27 -84zM349 877q0 -37 -17 -37q-32 0 -89 83q-37 52 -150 310q-13 27 -27.5 52.5t-31.5 48.5q-11 15 -23 30t-23 31 q-23 35 -23 72q0 43 23 84q25 46 66 46q89 0 163 -263q23 -88 45.5 -176t45.5 -177l27 -51q14 -30 14 -53zM463 110q0 -44 -24 -74q-27 -34 -69 -34q-40 0 -68 34q-25 31 -25 72q0 7 3 42q13 174 45 519q13 126 49 126q21 0 29 -147q12 -293 48 -465q12 -63 12 -73z" />
<glyph unicode="&#x2c6;" horiz-adv-x="1069" d="M958 1776q0 -37 -19 -66q-21 -35 -55 -35q-18 0 -49 37q-45 42 -107.5 106.5t-144.5 155.5q-40 52 -40 83q0 20 14 20t70 -48q42 -37 109 -78t161 -89q7 -4 16.5 -10t22.5 -15q22 -21 22 -61zM520 2001q0 -24 -11 -48q-7 -15 -103 -89q-31 -23 -61 -46l-60 -46 q-28 -23 -51.5 -43.5t-43.5 -40.5q-49 -49 -61 -49q-17 0 -17 18q0 49 122 213q100 132 168 201q26 26 46 26q33 0 53 -32q19 -28 19 -64z" />
<glyph unicode="&#x2dc;" horiz-adv-x="1022" d="M909 1898q0 -22 -18 -49q-88 -139 -238 -139q-60 0 -137 80t-117 80q-74 0 -130 -50q-14 -14 -32 -36.5t-38 -54.5q-32 -50 -49 -50q-38 0 -38 40q0 109 93 213q93 105 201 105q45 0 122 -80t140 -80q79 0 152 61q15 25 40 25q49 0 49 -65z" />
<glyph unicode="&#x2000;" horiz-adv-x="1048" />
<glyph unicode="&#x2001;" horiz-adv-x="2097" />
<glyph unicode="&#x2002;" horiz-adv-x="1048" />
<glyph unicode="&#x2003;" horiz-adv-x="2097" />
<glyph unicode="&#x2004;" horiz-adv-x="699" />
<glyph unicode="&#x2005;" horiz-adv-x="524" />
<glyph unicode="&#x2006;" horiz-adv-x="349" />
<glyph unicode="&#x2007;" horiz-adv-x="349" />
<glyph unicode="&#x2008;" horiz-adv-x="262" />
<glyph unicode="&#x2009;" horiz-adv-x="419" />
<glyph unicode="&#x200a;" horiz-adv-x="116" />
<glyph unicode="&#x2010;" d="M635 833q0 -37 -22 -68q-24 -36 -59 -36q-11 0 -31 4q-54 10 -132 25t-184 35q-95 21 -95 66q0 30 111 38q36 0 89 3t124 8q15 1 62 17q39 12 62 12q36 0 56 -36q19 -29 19 -68z" />
<glyph unicode="&#x2011;" d="M635 833q0 -37 -22 -68q-24 -36 -59 -36q-11 0 -31 4q-54 10 -132 25t-184 35q-95 21 -95 66q0 30 111 38q36 0 89 3t124 8q15 1 62 17q39 12 62 12q36 0 56 -36q19 -29 19 -68z" />
<glyph unicode="&#x2012;" d="M635 833q0 -37 -22 -68q-24 -36 -59 -36q-11 0 -31 4q-54 10 -132 25t-184 35q-95 21 -95 66q0 30 111 38q36 0 89 3t124 8q15 1 62 17q39 12 62 12q36 0 56 -36q19 -29 19 -68z" />
<glyph unicode="&#x2013;" d="M635 833q0 -37 -22 -68q-24 -36 -59 -36q-11 0 -31 4q-54 10 -132 25t-184 35q-95 21 -95 66q0 30 111 38q36 0 89 3t124 8q15 1 62 17q39 12 62 12q36 0 56 -36q19 -29 19 -68z" />
<glyph unicode="&#x2014;" horiz-adv-x="897" d="M785 833q0 -37 -21 -68q-26 -36 -60 -36q-2 0 -9.5 1t-21.5 3q-69 7 -207 24q-44 5 -108 14t-151 22q-95 17 -95 66q0 32 111 38q13 1 29 1t35 1h139q157 2 220 22q51 16 62 16q36 0 59 -35q18 -30 18 -69z" />
<glyph unicode="&#x2018;" horiz-adv-x="449" d="M337 1520q0 -33 -3 -74.5t-10 -92.5q-11 -72 -16.5 -113t-6.5 -54q-1 -16 -3.5 -40t-7.5 -56q-31 -91 -105 -91q-51 0 -84 51q-28 43 -28 99q0 64 94 251q98 197 146 197q24 0 24 -77z" />
<glyph unicode="&#x2019;" horiz-adv-x="449" d="M337 1448q0 -63 -93 -252q-98 -197 -146 -197q-25 0 -25 77q0 34 3.5 75t10.5 92q11 79 16 121t6 47q2 32 12 95q28 91 102 91q54 0 85 -49q29 -46 29 -100z" />
<glyph unicode="&#x201a;" horiz-adv-x="449" d="M337 150q0 -63 -93 -250q-97 -196 -146 -196q-25 0 -25 77q0 34 3.5 75t10.5 91q11 76 16 117.5t6 48.5q2 32 12 95q28 91 102 91q54 0 85 -49q29 -46 29 -100z" />
<glyph unicode="&#x201c;" horiz-adv-x="749" d="M636 1520q0 -32 -6.5 -98t-19.5 -168q-2 -56 -21 -164q-30 -91 -103 -91q-52 0 -85 50q-28 44 -28 100q0 63 93 251q98 197 146 197q24 0 24 -77zM337 1520q0 -33 -3 -74.5t-10 -92.5q-11 -72 -16.5 -113t-6.5 -54q-1 -16 -3.5 -40t-7.5 -56q-31 -91 -105 -91 q-51 0 -84 51q-28 43 -28 99q0 64 94 251q98 197 146 197q24 0 24 -77z" />
<glyph unicode="&#x201d;" horiz-adv-x="749" d="M636 1448q0 -64 -94 -252q-96 -197 -145 -197q-24 0 -24 80q0 77 27 263q12 79 12 106q0 28 8 58q30 91 103 91q52 0 85 -50q28 -43 28 -99zM337 1448q0 -63 -93 -252q-98 -197 -146 -197q-25 0 -25 77q0 34 3.5 75t10.5 92q11 79 16 121t6 47q2 32 12 95q28 91 102 91 q54 0 85 -49q29 -46 29 -100z" />
<glyph unicode="&#x201e;" horiz-adv-x="749" d="M636 150q0 -62 -94 -249q-98 -197 -143 -197q-26 0 -26 78q0 56 27 262q1 28 6 69t14 95q31 90 103 90q53 0 86 -48q27 -44 27 -100zM337 150q0 -63 -93 -250q-97 -196 -146 -196q-25 0 -25 77q0 34 3.5 75t10.5 91q11 76 16 117.5t6 48.5q2 32 12 95q28 91 102 91 q54 0 85 -49q29 -46 29 -100z" />
<glyph unicode="&#x2022;" horiz-adv-x="973" d="M861 799q0 -182 -93 -330q-106 -172 -278 -172q-176 0 -284 170q-94 146 -94 332t94 331q108 170 284 170q172 0 278 -172q93 -149 93 -329z" />
<glyph unicode="&#x2026;" horiz-adv-x="1048" d="M936 150q0 -54 -28 -98q-33 -52 -84 -52q-54 0 -85 51q-27 43 -27 99t28 99q32 50 84 50q51 0 83 -51q29 -44 29 -98zM636 150q0 -56 -28 -99q-33 -51 -85 -51t-83 52q-28 43 -28 98t28 99q32 50 83 50q52 0 85 -50q28 -43 28 -99zM337 150q0 -54 -28 -98 q-33 -52 -84 -52q-52 0 -85 51q-28 43 -28 99t28 99q33 50 85 50q51 0 83 -51q29 -44 29 -98z" />
<glyph unicode="&#x202f;" horiz-adv-x="419" />
<glyph unicode="&#x2039;" horiz-adv-x="674" d="M562 1404q0 -40 -21 -65q-10 -13 -51 -47q-77 -64 -147 -179l-126 -210q-56 -95 -87 -95q-15 0 -15 27q0 38 98 287q37 95 61.5 155t37.5 86q87 177 154 177q40 0 69 -50q27 -44 27 -86zM557 147q0 -46 -24 -88q-28 -52 -70 -52q-15 0 -29 7q-59 27 -154 260 q-18 48 -48 118t-73 163q-47 86 -47 108q0 30 18 30q48 0 182 -192q43 -63 85 -124t84 -123q76 -36 76 -107z" />
<glyph unicode="&#x203a;" horiz-adv-x="682" d="M569 1003q0 -48 -25 -86q-27 -44 -72 -44q-22 0 -44 17q-21 16 -81 162q-57 139 -103.5 240.5t-84.5 167.5q-47 83 -47 108q0 29 18 29q48 0 216 -226q134 -178 197 -287q26 -44 26 -81zM543 711q0 -25 -49 -124q-67 -135 -165 -481q-4 -11 -10 -28t-15 -40 q-20 -38 -58 -38q-47 0 -77 43q-27 37 -27 87q0 36 36 89q23 34 55.5 90.5t74.5 136.5q153 289 215 289q20 0 20 -24z" />
<glyph unicode="&#x205f;" horiz-adv-x="524" />
<glyph unicode="&#x2122;" horiz-adv-x="1007" d="M847 1286q0 -11 -8 -11q-23 0 -72 165q-29 93 -29 115q0 24 35 24q25 0 32 -25q2 -6 3 -28q2 -32 9.5 -80.5t18.5 -113.5q11 -41 11 -46zM730 1526q0 5 -28 -51q-8 -23 -17 -47t-18 -47q-28 -73 -46 -73q-7 0 -7 12q0 4 9 42q5 31 10.5 61t10.5 61q19 94 49 94 q37 0 37 -52zM607 1286q0 -11 -8 -11q-17 0 -60 121q-41 115 -41 136q0 47 35 47q25 0 32 -25q1 -4 3 -28q8 -120 28 -194q11 -42 11 -46zM896 1016q0 -43 -31 -43q-23 0 -36 31q-24 55 -24 240q0 33 9 33q7 0 35 -100q47 -168 47 -161zM492 1526q0 6 -31 -52 q-8 -23 -17 -46.5t-18 -46.5q-28 -73 -45 -73q-7 0 -7 12q0 4 9 42q5 31 10.5 61.5t10.5 60.5q19 94 50 94q38 0 38 -52zM386 1520q0 -46 -31 -46q-7 0 -41 10q-32 9 -161 18q-41 3 -41 14q0 54 203 54q71 0 71 -50zM650 1023q0 -46 -33 -46q-39 0 -39 75q0 51 6 110 q9 88 20 88q8 0 13 -36q1 -15 21 -95q12 -59 12 -96zM283 1442q0 -7 -4 -44t-12 -106q-7 -55 -11 -55q-21 0 -34 91q-9 69 -9 114q0 43 35 43t35 -43zM420 1279q0 -29 -11 -93q-5 -30 -7.5 -52.5t-2.5 -38.5q0 -6 0.5 -16t1.5 -20.5t1.5 -21t0.5 -16.5q0 -43 -33 -43 q-35 0 -35 53q0 44 20 116q7 25 19.5 60t30.5 82q6 13 9 13q6 0 6 -23zM283 1014q0 -42 -33 -42q-38 0 -38 71q0 190 29 190q3 -2 5 -8q2 -14 4 -35t6 -50q1 -7 5 -22.5t11 -39.5q11 -41 11 -64z" />
<glyph unicode="&#xe000;" horiz-adv-x="1440" d="M0 1440h1440v-1440h-1440v1440z" />
</font>
</defs>
</svg>
