<?xml version="1.0" standalone="no"?>
<!DOCTYPE svg PUBLIC "-//W3C//DTD SVG 1.1//EN" "http://www.w3.org/Graphics/SVG/1.1/DTD/svg11.dtd" >
<svg xmlns="http://www.w3.org/2000/svg">
<metadata></metadata>
<defs>
<font id="chantelli_antiquaregular" horiz-adv-x="1964" >
<font-face units-per-em="2048" ascent="1638" descent="-410" />
<missing-glyph horiz-adv-x="625" />
<glyph horiz-adv-x="2048" />
<glyph horiz-adv-x="2048" />
<glyph unicode="&#xd;" horiz-adv-x="1024" />
<glyph unicode=" "  horiz-adv-x="625" />
<glyph unicode="&#x09;" horiz-adv-x="625" />
<glyph unicode="&#xa0;" horiz-adv-x="625" />
<glyph unicode="!" horiz-adv-x="526" d="M231 143q73 16 110.5 -7t27 -77t-75 -75.5t-115 0.5t-35.5 82.5t88 76.5zM173 1755h175l-49 -1185h-85z" />
<glyph unicode="&#x22;" horiz-adv-x="774" d="M491 1755h175l-49 -517h-85zM93 1755h175l-49 -517h-85z" />
<glyph unicode="#" horiz-adv-x="1785" d="M491 -5l115 488h-468l23 98h469l104 440h-468l23 98h469l128 541h117l-128 -541h440l130 547h117l-130 -547h469l-23 -98h-469l-104 -440h468l-23 -98h-469l-116 -488h-117l116 488h-440l-116 -488h-117zM852 1021l-105 -440h440l104 440h-439z" />
<glyph unicode="$" horiz-adv-x="1180" d="M807 1381l-80 28l90 61q-66 88 -191 112v-647q384 -209 423.5 -423t-101.5 -360.5t-322 -161.5v-147l-126 -97v245q-224 2 -393 130l72 146q188 -171 321 -175v711q-456 247 -396.5 517t396.5 336v115l126 83v-198q200 -1 328 -61zM258.5 1357.5 q-22.5 -198.5 241.5 -358.5v584q-219 -27 -241.5 -225.5zM626 737v-662q222 -5 253.5 241.5t-253.5 420.5z" />
<glyph unicode="%" horiz-adv-x="1789" d="M283 -6l1184 1677h117l-1180 -1677h-121zM1433 867q114 5 199.5 -64t107.5 -217t-22 -282.5t-134.5 -190.5t-201 -57t-195.5 65.5t-106 219.5t24.5 282t129.5 184t198 60zM1529 171.5q56 59.5 75.5 206t-27 282.5t-136 149t-149 -52t-78 -216t27 -270t138.5 -139 t149 39.5zM491 1612q114 5 199.5 -64t107.5 -217t-22 -282.5t-134.5 -190.5t-201 -57t-195.5 65.5t-106 219.5t24.5 282t129.5 184t198 60zM587 916.5q56 59.5 75.5 206t-27 282.5t-136 149t-149 -52t-78 -216t27 -270t138.5 -139t149 39.5z" />
<glyph unicode="&#x26;" horiz-adv-x="1744" d="M955.5 1610q114.5 -126 44 -323.5t-390.5 -366.5q142 -275 445 -592q142 139 122.5 371t-158.5 239l-19 65q343 -50 654 44l23 -22l-108 -131q-187 46 -314 29q100 -53 89.5 -237.5t-217.5 -424.5q293 -291 553 -28l68 -49q-395 -329 -726 -43q-330 -238 -617.5 -169 t-328 388.5t365.5 558.5q-130 277 -99 465.5t265 270t348.5 -44.5zM221.5 438q21.5 -253 238 -343.5t478.5 111.5q-290 298 -463 643q-275 -158 -253.5 -411zM879 1357q6 232 -165.5 253.5t-221 -142t83.5 -481.5q297 138 303 370z" />
<glyph unicode="'" horiz-adv-x="317" d="M363 1755h175l-49 -517h-85z" />
<glyph unicode="(" horiz-adv-x="759" d="M702 1747q-398 -223 -402 -1012t403 -1093l-48 -43q-511 338 -534 1076t538 1120z" />
<glyph unicode=")" horiz-adv-x="742" d="M49 1747q398 -223 402 -1012t-403 -1093l48 -43q511 338 534 1076t-538 1120z" />
<glyph unicode="*" horiz-adv-x="716" d="M302 1638h112l-20 -236l219 89l35 -106l-232 -51l152 -179l-87 -68l-120 202l-127 -202l-89 67l159 180l-233 57l36 106l214 -95z" />
<glyph unicode="+" horiz-adv-x="1445" d="M-94 123v599h-599v99h599v599h96v-599h600v-99h-600v-599h-96z" />
<glyph unicode="," horiz-adv-x="555" d="M344 196q104 -262 -159 -490l-25 37q152 118 47 362l-72 -39l-21 49z" />
<glyph unicode="-" horiz-adv-x="788" d="M674 530h-556v154h556v-154z" />
<glyph unicode="." horiz-adv-x="526" d="M231 143q73 16 110.5 -7t27 -77t-75 -75.5t-115 0.5t-35.5 82.5t88 76.5z" />
<glyph unicode="/" horiz-adv-x="860" d="M45 -101l657 1899h107l-653 -1899h-111z" />
<glyph unicode="0" horiz-adv-x="1693" d="M959.5 1673.5q305.5 -43.5 474.5 -279t157 -551.5t-151 -530.5t-403.5 -298.5t-519.5 38.5t-359.5 414t-34 597t300.5 479.5t535.5 130.5zM290.5 1054.5q-50.5 -299.5 46 -545.5t271.5 -358t389.5 -59.5t315 263.5t92 499t-154 497.5t-363 245.5t-382 -103.5t-215 -439z " />
<glyph unicode="1" horiz-adv-x="717" d="M78 1385q220 92 392 277l34 -25l-39 -69q-66 -527 -28 -1544l-204 -59l-26 21q104 169 85 1459l-209 -157z" />
<glyph unicode="2" horiz-adv-x="1233" d="M451 1707l-136 -166q219 103 390.5 65.5t259.5 -168t45 -328.5t-232 -436t-410 -583q624 -12 752 148l41 -12l-259 -317l-101 11l115 78q-578 37 -822 -13l-15 29q329 359 534.5 626t226.5 465.5t-78.5 309t-264.5 106t-372 -137.5l-29 29q194 153 285 302z" />
<glyph unicode="3" horiz-adv-x="1198" d="M486 1710l-118 -130q265 65 390 7t120.5 -210.5t-240.5 -306.5q183 -23 297.5 -132t126 -310.5t-62.5 -339t-199 -220t-353 -87.5t-399 115l121 108q172 -189 362.5 -167.5t289 213t52.5 416.5t-230 285t-373 13l6 61q261 22 365.5 128t63 231.5t-188 144.5t-336.5 -90 l-32 36q131 54 236 223z" />
<glyph unicode="4" horiz-adv-x="1204" d="M849 701q166 4 322 32l-91 -148q-80 42 -227 42q-13 -298 -2 -595l-210 -64l-19 26q96 33 95 629q-416 11 -617 -45l-7 40q695 837 660 1018l166 31q-84 -258 -70 -966zM716 702q2 339 7 573q-319 -396 -418 -572z" />
<glyph unicode="5" horiz-adv-x="1150" d="M191 1642q497 -33 775 22l-47 -151q-357 87 -550 42l-23 -348q373 52 555 -140t132 -524.5t-319 -478t-573 -12.5l66 118q208 -155 378.5 -98.5t242.5 255.5t12 448.5t-233.5 326.5t-432.5 -9l-13 26q97 247 30 523z" />
<glyph unicode="6" horiz-adv-x="1330" d="M962 1542q-207 38 -352 -35.5t-212.5 -227t-91.5 -402.5q163 204 381 196t353 -153.5t136.5 -372.5t-150 -388.5t-378.5 -158t-358.5 162.5t-149 427.5t58.5 500t246 381t454 212.5zM325.5 735q-29.5 -135 5 -285.5t133.5 -262t232 -118t214 106t85 290.5t-66 323.5 t-196.5 186.5t-252 -32.5t-155 -208.5z" />
<glyph unicode="7" horiz-adv-x="1095" d="M43 1474l37 164q696 -58 954 20l32 -22q-434 -418 -671 -1635l-196 -44l-8 17q365 1138 617 1562q-560 28 -765 -62z" />
<glyph unicode="8" horiz-adv-x="1247" d="M875 1574.5q117 -87.5 105 -261t-233 -364.5q353 -162 390.5 -397.5t-112 -405.5t-403.5 -169t-407.5 164.5t-117 381t341.5 421.5q-213 148 -208 334.5t122 284.5t261 98.5t261 -87zM848 1281.5q-1 160.5 -109.5 251.5t-218.5 56t-137 -169.5t50.5 -253.5t251.5 -185 q164 140 163 300.5zM331.5 743.5q-72.5 -107.5 -74 -244t96.5 -271t250 -163.5t261.5 48.5t123.5 233.5t-105 310t-353 239q-127 -45 -199.5 -152.5z" />
<glyph unicode="9" horiz-adv-x="1268" d="M315 132q207 -38 352 35.5t212.5 227t91.5 402.5q-163 -204 -381 -196t-353 153.5t-136.5 372.5t150 388.5t378.5 158t358.5 -162.5t149 -427.5t-58.5 -500t-246 -381t-454 -212.5zM951.5 939q29.5 135 -5 285.5t-133.5 262t-232 118t-219 -111t-90 -295.5t71 -318.5 t201.5 -181.5t252 32.5t155 208.5z" />
<glyph unicode=":" horiz-adv-x="519" d="M231 284q73 16 110.5 -7t27 -77t-75 -75.5t-115 0.5t-35.5 82.5t88 76.5zM231 1075q73 16 110.5 -7t27 -77t-75 -75.5t-115 0.5t-35.5 82.5t88 76.5z" />
<glyph unicode=";" horiz-adv-x="554" d="M344 196q104 -262 -159 -490l-25 37q152 118 47 362l-72 -39l-21 49zM245 1075q73 16 110.5 -7t27 -77t-75 -75.5t-115 0.5t-35.5 82.5t88 76.5z" />
<glyph unicode="&#x3c;" horiz-adv-x="1074" d="M73 796l913 511v-120l-748 -415l748 -408v-123l-913 508v47z" />
<glyph unicode="=" horiz-adv-x="1189" d="M82 497v109h1019v-109h-1019zM82 910v109h1019v-109h-1019z" />
<glyph unicode="&#x3e;" horiz-adv-x="1064" d="M1005 796l-913 511v-120l748 -415l-748 -408v-123l913 508v47z" />
<glyph unicode="?" horiz-adv-x="999" d="M403 1825l-111 -123q323 91 506 -16.5t112 -343.5t-483 -396q47 -102 21 -347l-174 -47q44 381 -76 378l5 42q308 28 443.5 180.5t81.5 315t-240.5 192.5t-389.5 -94l-41 47q120 42 275 241zM322 143q73 16 110.5 -7t27 -77t-75 -75.5t-115 0.5t-35.5 82.5t88 76.5z" />
<glyph unicode="@" horiz-adv-x="1973" d="M632 1007q217 72 329 258l79 -29l-138 -112q317 93 367 62t61 -200t-7.5 -438.5t3.5 -472.5q318 109 366 520t-185 632.5t-555 199t-527.5 -285t-149.5 -679.5t390 -610.5t713 -10.5l12 -63q-559 -199 -885.5 3.5t-392 586t98.5 698t657 412t760 -149t214 -684.5 t-323 -535t-345 -162l-23 212q-238 -178 -364 -170t-167.5 244t72 397.5t475.5 -10.5q49 300 -14.5 426.5t-483.5 -84.5zM821.5 573.5q-80.5 -133.5 -36.5 -313.5t141 -172.5t226 145.5l4 307q-254 167 -334.5 33.5z" />
<glyph unicode="A" d="M933 1763l61 10q367 -986 865 -1725l112 26l15 -46q-231 -31 -358 -72q-182 479 -405 921q-392 87 -560 16q-391 -703 -385 -840l93 -14v-41l-357 -1q386 544 618.5 1014t300.5 752zM1162 984q-132 381 -244 519l-193 -509z" />
<glyph unicode="B" horiz-adv-x="1428" d="M79 1735q637 34 794.5 -42.5t155.5 -246.5t-215 -295q190 -38 316.5 -166t140.5 -355.5t-93 -378t-270 -210.5t-383.5 -51.5t-448.5 5.5l24 58l143 -17q65 976 -7 1661l-153 -21zM850.5 84.5q157.5 89.5 211 254.5t23.5 323t-119 259.5t-212.5 126t-224.5 -34.5l-19 64 q178 24 272.5 109t81 229t-129 218.5t-327.5 47.5l4 -1568q282 -118 439.5 -28.5z" />
<glyph unicode="C" horiz-adv-x="1774" d="M1499 1478l-76 15l123 73q-272 109 -543.5 100t-463 -170t-236 -450t70.5 -535t349 -367t500 -66t415 210l29 -87q-117 -35 -340 -320l-77 30l160 138q-255 -94 -518 -77.5t-487.5 195t-277 490t84 574t356 380.5t486 145t652.5 -72z" />
<glyph unicode="D" horiz-adv-x="1924" d="M241 1675l-179 -30l-12 84q371 -2 694.5 5.5t601 -84t389 -387.5t34 -581.5t-290 -457t-513 -213t-928.5 -8.5l-12 69l208 -27q108 554 8 1630zM1092 110q248 80 379.5 271.5t140.5 441.5t-88 448t-280 286t-379.5 102.5t-430.5 -18.5l6 -1519q404 -92 652 -12z" />
<glyph unicode="E" horiz-adv-x="1240" d="M64 1735q511 -30 913 16l-55 -138q-363 66 -511 47v-617q476 0 642 62l-78 -174q-452 89 -564 20l-20 -887q526 5 659 155l43 -16l-265 -332l-92 9l111 105q-335 33 -681 -13l-7 33q79 39 95.5 597t-42.5 1087l-174 -16z" />
<glyph unicode="F" horiz-adv-x="1186" d="M68 1735q501 -30 943 16l-55 -148q-403 76 -551 47v-667q416 -10 602 42l-78 -164q-436 83 -524 20v-837l-245 -82l-7 33q103 39 107.5 602t-24.5 1092l-194 -16z" />
<glyph unicode="G" horiz-adv-x="1869" d="M1547 1389l-54 82l89 92q-284 131 -576 114t-488.5 -191t-226 -505.5t141 -578.5t455.5 -328t440.5 58t263.5 537l213 51l20 -33q-184 -66 -424 -1081l-256 -21q166 191 233 452q-232 -88 -577 -49t-543 334.5t-145 643.5t271 535.5t548 247.5t778 -38z" />
<glyph unicode="H" horiz-adv-x="2039" d="M181 1678l224 85v-732l1146 -20l-25 668l203 86l19 -28q-35 -40 -51.5 -375t52.5 -1239l130 80l18 -71q-153 -37 -322 -198l-42 5q66 272 14 939q-720 121 -1151 39l10 -885l-220 -104l-39 22q97 67 112 752.5t-78 975.5z" />
<glyph unicode="I" horiz-adv-x="680" d="M201 1668l214 91q-61 -1218 20 -1723l-251 -85l-19 34q88 62 91.5 821.5t-55.5 861.5z" />
<glyph unicode="J" horiz-adv-x="673" d="M208 1678l214 91q-31 -1238 -5.5 -1681t-390.5 -495l1 64q239 -74 234.5 922.5t-53.5 1098.5z" />
<glyph unicode="K" horiz-adv-x="1615" d="M214 1696l199 65v-763q55 -76 812 759l125 -85q-501 -372 -687 -622q790 -1130 983 -999l17 -46q-346 -41 -479 92.5t-680 869.5l-99 -64v-874l-241 -67l-12 29q79 14 99 665.5t-37 1039.5z" />
<glyph unicode="L" horiz-adv-x="1146" d="M418 1757l-20 -1693q526 5 659 155l43 -16l-265 -332l-92 9l111 105q-335 33 -681 -13l-7 33q79 39 95.5 597t-42.5 1087z" />
<glyph unicode="M" horiz-adv-x="2434" d="M87 -7q377 1434 325 1741l71 11l695 -1412q640 1185 624 1392l64 22q179 -1243 368 -1692l181 44l16 -63q-276 -23 -415 -81l-265 1383l-598 -1335l-52 5q-46 238 -621 1391q-237 -1174 -165 -1374l160 21l-7 -53h-381z" />
<glyph unicode="N" horiz-adv-x="1945" d="M219 -8q100 1508 -16 1716l55 40l1292 -1346v633q0 538 -92 654l230 72q-88 -1491 -1 -1749l-84 -25q-182 362 -1242 1394v-628q0 -601 65 -711l172 22v-58z" />
<glyph unicode="O" horiz-adv-x="2045" d="M1159.5 1765q372.5 -46 579 -294t191.5 -581t-184.5 -559.5t-492 -315t-634 41t-439 436.5t-41.5 629t367 505.5t653.5 137.5zM325.5 1116q-63.5 -318 57.5 -579.5t341 -380.5t489 -63.5t395.5 280t116 530.5t-193.5 528.5t-456 261t-479.5 -110t-270 -466.5z" />
<glyph unicode="P" horiz-adv-x="1251" d="M250.5 583.5q15.5 566.5 -28.5 1117.5l-135 -21v65q637 20 822 -71t172 -328t-214 -362.5t-402 -131.5l-1 73q225 -12 338.5 110t103 307t-137.5 275t-358 64v-1648l-224 -85l-12 42q61 27 76.5 593.5z" />
<glyph unicode="Q" horiz-adv-x="2047" d="M1154.5 1765q372.5 -46 584 -304t192 -653.5t-420.5 -685.5q315 -342 519 -286l25 -49q-415 -19 -684 253q-396 -130 -731.5 8t-463 445t-41.5 629t367 505.5t653.5 137.5zM320.5 1116q-63.5 -318 57.5 -579.5t389 -401t536 -35.5l-213 211l193 39l160 -164 q282 200 284.5 591t-191 634t-466.5 281.5t-479.5 -110t-270 -466.5z" />
<glyph unicode="R" horiz-adv-x="1652" d="M225 1701l-135 -21v65q637 20 797 -51t157 -268t-364 -374q815 -1175 1038 -997l25 -56q-376 -39 -549 116t-717 950q215 28 313.5 120t78 237t-132.5 215t-323 44v-1658l-201 -65q80 876 13 1743z" />
<glyph unicode="S" horiz-adv-x="1176" d="M855 1490l-84 28l94 63q-170 133 -344 106.5t-226.5 -179.5t76 -297t384.5 -307.5t284 -385.5t-133 -377t-398.5 -141t-403.5 148l95 148q227 -238 431.5 -216.5t249 236t-173 389.5t-412.5 325.5t-150.5 377.5t285.5 314t558 -22z" />
<glyph unicode="T" horiz-adv-x="1505" d="M141 1745q615 -47 1281 -4l-55 -148q-333 86 -551 57q-46 -1109 0 -1606l-265 -82l-7 33q103 39 117.5 664t-4.5 990q-262 27 -594 -47z" />
<glyph unicode="U" horiz-adv-x="1975" d="M119 1701l335 79q-19 -347 -29 -818.5t117 -680.5t412.5 -207t419.5 158t141 597.5t-28 882.5l217 52q-39 -355 -47 -928.5t23 -761.5l121 61l32 -42l-333 -131l-5 260q-243 -231 -611.5 -241t-502.5 227.5t-114 563.5t-5 914l-133 -50z" />
<glyph unicode="V" horiz-adv-x="2061" d="M1031 -35l-61 -10q-367 986 -865 1725l-112 -26l-15 46q231 31 358 72q254 -598 696 -1475q660 1241 654 1368l-93 14v41l410 46q-439 -579 -671.5 -1049t-300.5 -752z" />
<glyph unicode="W" horiz-adv-x="2402" d="M2324 1719q-397 -1444 -375 -1721l-71 -11l-665 1382q-640 -1185 -654 -1362l-64 -22q-129 1213 -318 1672l-181 -44l-16 63q276 23 405 81l232 -1341l621 1283l52 -5q21 -216 591 -1358q287 1151 215 1351l-160 -21l7 53h381z" />
<glyph unicode="X" horiz-adv-x="1704" d="M-7 1675q269 58 321 92q137 -254 537 -781q494 614 481 782l205 -90q-277 -279 -640 -750q495 -689 654 -898l117 44l19 -61l-351 -56q-191 345 -551 857q-436 -561 -473 -785l150 31l-9 -65l-403 -3q249 313 682 880q-427 620 -587 802l-143 -64z" />
<glyph unicode="Y" horiz-adv-x="1620" d="M-16 1691q204 8 351 60l550 -906q559 848 430 892l236 -31q-602 -836 -601 -1027q-22 -317 8 -646l-250 -77l-9 31q118 32 64 669q-51 272 -598 1018l-168 -51z" />
<glyph unicode="Z" horiz-adv-x="1519" d="M171 1578l46 164q749 -63 1105 1l26 -22q-892 -1251 -1045 -1641q867 -25 1040 146l44 -13l-262 -347l-100 9l126 112q-378 41 -1080 6l-21 27q937 1414 1040 1614q-723 38 -919 -56z" />
<glyph unicode="[" horiz-adv-x="694" d="M549 -359q-304 58 -424 2l-31 27q117 146 46 2008l32 27q122 -31 483 8l33 -31l-143 -106q-131 57 -247 33v-1855q247 0 315 26l34 -8z" />
<glyph unicode="\" horiz-adv-x="859" d="M809 -101l-657 1899h-107l653 -1899h111z" />
<glyph unicode="]" horiz-adv-x="734" d="M161 1713q304 -58 424 -2l31 -27q-117 -146 -46 -2008l-32 -27q-122 31 -483 -8l-33 31l143 106q131 -57 247 -33v1855q-247 0 -315 -26l-34 8z" />
<glyph unicode="^" horiz-adv-x="1181" d="M613 1727l545 -920h-148l-419 732l-439 -732h-130l552 920h39z" />
<glyph unicode="_" horiz-adv-x="1155" d="M1123 -98h-1092v98h1092v-98z" />
<glyph unicode="`" horiz-adv-x="460" d="M105 1750l-62 -148l342 -142l33 36z" />
<glyph unicode="a" horiz-adv-x="1048" d="M137 1008q217 72 329 258l79 -29l-138 -112q317 93 367 62t61 -200t-7.5 -438.5t3.5 -472.5l158 62l1 -58q-236 -67 -311 -132l-23 212q-238 -178 -364 -170t-167.5 244t72 397.5t475.5 -10.5q49 300 -14.5 426.5t-483.5 -84.5zM326.5 574.5q-80.5 -133.5 -36.5 -313.5 t141 -172.5t226 145.5l4 307q-254 167 -334.5 33.5z" />
<glyph unicode="b" horiz-adv-x="1173" d="M672 83.5q108 49.5 162 208.5t40.5 418t-88.5 359.5t-186.5 81t-171.5 -158.5t-43 -892q179 -66 287 -16.5zM65 1763q332 31 388 76l18 -20q-80 -33 -86 -724q158 136 379.5 130.5t274 -353.5t-36.5 -563.5t-262.5 -273.5t-564.5 -42l-5 31q66 11 66 713t-2 1006 l-177 -43z" />
<glyph unicode="c" horiz-adv-x="943" d="M274 640.5q-13 -282.5 89 -421t224.5 -127.5t275.5 178l49 -83q-209 -195 -421 -192t-307 164t-88 427.5t133 448t353.5 191t260.5 -220.5l-148 -83q-12 148 -105.5 213.5t-198 -73.5t-117.5 -421.5z" />
<glyph unicode="d" horiz-adv-x="1171" d="M649 1767q252 7 398 76l11 -29q-142 -223 -86 -1741l158 48l10 -52q-219 -35 -328 -125l-13 199q-249 -205 -431 -124.5t-225 345t16.5 477.5t217 296t431.5 86l28 527l-192 -43zM526.5 1132q-139.5 -53 -189 -254t-29 -420.5t123.5 -313.5t211.5 -39t145 183t15.5 787 q-138 110 -277.5 57z" />
<glyph unicode="e" horiz-adv-x="998" d="M275 715q-16 -357 86 -505.5t234.5 -137.5t265.5 198l49 -83q-209 -195 -421 -192t-307 164t-88 427.5t133 448t380 191.5t258 -437zM697 823q14 164 -71 277t-197 3t-140 -332z" />
<glyph unicode="f" horiz-adv-x="742" d="M690 1757q-105 44 -188.5 -19t-90.5 -540l274 -1l-41 -61l-237 14q-23 -1152 -8 -1411l-183 -152l-27 20q79 199 64 1538l-211 -14l43 65l177 -3q0 237 5.5 383.5t137 209t336.5 30.5z" />
<glyph unicode="g" horiz-adv-x="1139" d="M1019 1243l21 -39q-130 -53 -139.5 -175t-24 -351.5t50 -509.5t-114 -444.5t-400 -151t-286 126t159.5 283.5l21 -26q-77 -94 -7.5 -196t213.5 -112t226 126t-19 523q-252 -179 -422.5 -103.5t-203.5 295t37.5 387.5t255 251t457.5 70zM443.5 1100 q-117.5 -54 -161 -198.5t-25 -319t116.5 -274t203.5 -34t132 203.5t25.5 592q-174 84 -291.5 30z" />
<glyph unicode="h" horiz-adv-x="1201" d="M89 1759q253 12 350 72l20 -23q-75 -53 -63 -806q229 188 396.5 213.5t186.5 -175t-0.5 -485.5t3.5 -480l124 60l7 -47l-301 -122q16 281 22.5 663t-73 444.5t-210 -29t-166.5 -373.5l-25 -619l123 65l8 -51l-306 -110q90 982 59 1789l-161 -24z" />
<glyph unicode="i" horiz-adv-x="635" d="M93 1132q192 3 300 102l30 -3q-75 -216 -39 -1159l123 65l8 -51l-306 -130q48 1042 -11 1152l-101 -34zM285 1708q73 16 110.5 -7t27 -77t-75 -75.5t-115 0.5t-35.5 82.5t88 76.5z" />
<glyph unicode="j" horiz-adv-x="632" d="M102 1132q192 3 280 102l30 -3q-31 -628 -25 -1014.5t-353 -641.5l-38 37q222 92 246 739t-35 757l-101 -34zM275.5 1702q65.5 26 116 1t40 -79t-65 -75.5t-115 0.5t-51 74.5t75 78.5z" />
<glyph unicode="k" horiz-adv-x="1229" d="M734 300.5q-215 374.5 -293 459.5l-59 -26l12 -676l150 38l17 -45q-187 -27 -353 -115q42 1065 35 1801l-183 -31l21 51q230 -1 345 75q-56 -541 -46 -1018q142 -32 535 400l167 -94q-184 -41 -481 -285q512 -930 674 -773l7 -57q-333 -79 -548 295.5z" />
<glyph unicode="l" horiz-adv-x="633" d="M73 1757q240 -1 355 75q-80 -960 -32 -1774l160 58l17 -55q-197 -37 -363 -125q42 1065 35 1801l-183 -31z" />
<glyph unicode="m" horiz-adv-x="1762" d="M109 1122q212 13 290 122l30 -3l-13 -239q199 188 356.5 213.5t200.5 -233.5q190 202 370 237t210 -239t-22 -946l147 59l15 -46l-331 -83q42 317 35 692.5t-90.5 433t-206 -58.5t-132.5 -360q-29 -381 -16 -616l124 50l7 -47l-301 -92q16 281 27.5 663t-58 444.5 t-195 -29t-161.5 -373.5l-25 -629l133 45l8 -51l-316 -60q98 1022 39 1132l-111 -34z" />
<glyph unicode="n" horiz-adv-x="1184" d="M103 1122q202 23 289 120l24 -18l-34 -236q237 202 404.5 227.5t186.5 -175t-0.5 -485.5t3.5 -490l124 70l7 -57l-301 -122q16 291 22.5 673t-73 444.5t-210 -29t-166.5 -373.5l-25 -639l123 65l8 -51l-306 -90q98 1042 39 1152l-101 -34z" />
<glyph unicode="o" horiz-adv-x="1179" d="M614.5 1212q162.5 7 284.5 -97.5t153.5 -329t-31.5 -428.5t-192 -288.5t-286 -86.5t-278.5 99t-151 333.5t35.5 427.5t184 279t281.5 91zM757 139.5q83 93.5 116.5 322t-35.5 441t-206 233t-225 -81t-120.5 -337.5t35 -422t210 -217.5t225.5 62z" />
<glyph unicode="p" horiz-adv-x="1190" d="M104 1124q142 3 248 111l26 -17v-197q244 198 393 190t215 -181.5t53 -444t-146.5 -440.5t-520.5 -140q-34 -291 19 -419l-187 -17q59 1053 9 1535l-112 -29zM627.5 72.5q120.5 1.5 181.5 188t54.5 414.5t-77.5 355t-196.5 67.5t-173.5 -208t-34 -738.5 q125 -80 245.5 -78.5z" />
<glyph unicode="q" horiz-adv-x="1172" d="M1051 1230l17 -57q-121 -13 -142.5 -145.5t-28.5 -1335.5l391 97l6 -85q-276 5 -573 -140l-23 25q60 85 55 547q-282 -200 -459 -101.5t-193 381.5t97 483.5t278 260.5t374 -17zM737 253q33 377 22 619t-175 235.5t-245.5 -195t-57 -471.5t188.5 -321.5t267 133.5z" />
<glyph unicode="r" horiz-adv-x="787" d="M104 1122q202 23 289 120l24 -18l-16 -164q167 214 381 145l-79 -156q-182 116 -247 2.5t-76 -400.5l-5 -619l123 65l8 -51l-306 -90q78 1042 19 1152l-101 -34z" />
<glyph unicode="s" horiz-adv-x="883" d="M632 991l-59 19l47 55q-110 84 -209.5 78t-150 -97t45.5 -197t270 -221t200 -279.5t-102.5 -271.5t-296 -97t-274.5 84l67 144q150 -147 283 -152t167.5 129.5t-111 254.5t-283 226.5t-111 286.5t201.5 241.5t409 -15.5z" />
<glyph unicode="t" horiz-adv-x="814" d="M313 1570l183 87l-67 -464q203 7 334 60l-15 -85l-322 -27q-68 -685 -48.5 -866t89 -213t204.5 96l75 -33q-221 -155 -330 -170t-170.5 129.5t35.5 1049.5l-217 -19l3 70l226 4q32 280 20 381z" />
<glyph unicode="u" horiz-adv-x="1221" d="M108 1139q234 23 320 96q-105 -515 -78.5 -825.5t134.5 -322t213.5 93.5t124.5 426l10 520l-140 -46l-7 68q230 -4 309 95q-52 -637 -20 -1172l144 87l11 -74l-306 -123l-13 247q-199 -187 -360.5 -215.5t-221.5 122.5t-41.5 488.5t54.5 511.5l-120 -49z" />
<glyph unicode="v" horiz-adv-x="1085" d="M-21 1119q161 16 301 106l16 -30q-73 -71 274 -857q344 744 242 873l221 -52q-454 -964 -479 -1178l-47 -3q-305 883 -429 1127l-100 -41z" />
<glyph unicode="w" horiz-adv-x="1541" d="M-19 1103q218 51 312 122l29 -19q23 -493 108 -851q356 670 319 809l46 4q102 -362 363 -856q192 813 76 908l245 -74q-265 -860 -299 -1144h-60l-363 791q-233 -393 -384 -795l-61 4q-84 787 -195 1105l-122 -61z" />
<glyph unicode="x" horiz-adv-x="1095" d="M-8 1133q209 14 300 92q63 -201 263 -540q275 414 234 528l209 -61q-165 -189 -399 -526l375 -573l86 35l16 -49l-261 -73q-134 235 -322 554q-195 -352 -244 -529h-213q177 212 421 598q-252 420 -359 524l-83 -34z" />
<glyph unicode="y" horiz-adv-x="1101" d="M-14 1137q175 23 271 92l339 -787q351 686 236 775l248 -43q-265 -359 -699 -1538l-306 -66l-8 41q245 52 419 650q-1 167 -371 856l-117 -26z" />
<glyph unicode="z" horiz-adv-x="996" d="M173 1201q563 -40 748 13l33 -26q-171 -88 -596 -1080q442 -4 542 118l43 -16l-231 -307l-62 10l89 85q-260 37 -662 -13l-27 26q233 168 596 1083q-351 47 -516 -75z" />
<glyph unicode="{" horiz-adv-x="701" d="M592 1744q-181 -30 -161 -271t0 -512t-232 -271q217 0 237 -249t0 -510.5t157 -291.5v-38q-338 30 -318 308.5t0 520.5t-242 242v42q232 0 247 256.5t0 521.5t317 295z" />
<glyph unicode="|" horiz-adv-x="400" d="M249 1827v-2241h-99v2241h99z" />
<glyph unicode="}" horiz-adv-x="704" d="M113 1744q181 -30 161 -271t0 -512t232 -271q-217 0 -237 -249t0 -510.5t-157 -291.5v-38q338 30 318 308.5t0 520.5t242 242v42q-232 0 -247 256.5t0 521.5t-317 295z" />
<glyph unicode="~" horiz-adv-x="1299" d="M1219 893h52q-4 -153 -86.5 -238.5t-199.5 -85.5q-53 0 -114.5 18t-319.5 123q-181 76 -256 76q-81 0 -138 -51t-78 -164h-52q6 159 85.5 242.5t186.5 83.5q51 0 105 -18q121 -34 319.5 -119.5t277.5 -85.5q87 0 147 57t71 162z" />
<glyph unicode="&#xa1;" horiz-adv-x="309" />
<glyph unicode="&#xa2;" horiz-adv-x="636" />
<glyph unicode="&#xa3;" horiz-adv-x="636" />
<glyph unicode="&#xa4;" horiz-adv-x="420" />
<glyph unicode="&#xa5;" horiz-adv-x="636" />
<glyph unicode="&#xa6;" horiz-adv-x="201" />
<glyph unicode="&#xa7;" horiz-adv-x="977" d="M678 1423l54 57q-119 116 -253.5 127t-178.5 -111.5t57 -236t304 -260t233 -285t-26 -258.5t-168 -154q120 -112 132.5 -266t-121 -257.5t-302 -91t-289.5 129.5l71 139q158 -185 309 -190.5t174.5 140.5t-125 272.5t-309.5 259.5t-145 331.5t218 286.5 q-185 148 -149.5 346t216 256t461.5 -73l-99 -185zM229 836.5q-11 -153.5 154 -307t274.5 -156t111.5 137.5t-147 295.5t-265.5 169.5t-127.5 -139.5z" />
<glyph unicode="&#xa8;" horiz-adv-x="708" d="M531 1708q73 16 110.5 -7t27 -77t-75 -75.5t-115 0.5t-35.5 82.5t88 76.5zM126 1708q73 16 110.5 -7t27 -77t-75 -75.5t-115 0.5t-35.5 82.5t88 76.5z" />
<glyph unicode="&#xa9;" horiz-adv-x="1200" d="M601 1729q126 0 245.5 -64.5t187 -184.5t67.5 -250t-66 -248.5t-185 -184.5t-249 -66q-129 0 -248 66t-185 184.5t-66 248.5t67 250t186.5 184.5t245.5 64.5zM601 1656q-107 0 -209 -55t-159.5 -157.5t-57.5 -213.5t56.5 -212t158 -157.5t211.5 -56.5q111 0 212.5 56.5 t158 157.5t56.5 212t-57.5 213.5t-159.5 157.5t-210 55zM755 1403l-41 8l42 25q-76 40 -161.5 47t-146 -43t-75 -148t24.5 -177t106 -113.5t148.5 -29.5t164.5 69l17 -39q-34 -14 -105 -113l-51 9l59 44q-84 -21 -180 -15.5t-177.5 66.5t-99.5 167t24 190t133 133.5 t181.5 54t215.5 -32.5z" />
<glyph unicode="&#xaa;" horiz-adv-x="402" />
<glyph unicode="&#xab;" horiz-adv-x="540" />
<glyph unicode="&#xac;" horiz-adv-x="1395" />
<glyph unicode="&#xad;" horiz-adv-x="788" d="M674 530h-556v154h556v-154z" />
<glyph unicode="&#xae;" horiz-adv-x="1200" d="M421 1511l-46 -7v32q268 7 323 -17t54 -91.5t-125 -134.5q278 -394 353 -318l10 -34q-156 -13 -215 39.5t-244 317.5q73 9 106.5 44t26.5 82.5t-45 68t-110 11.5v-555l-92 -22q27 299 4 584zM600 1729q126 0 245.5 -64.5t187 -184.5t67.5 -250t-66 -248.5t-185 -184.5 t-249 -66q-129 0 -248 66t-185 184.5t-66 248.5t67 250t186.5 184.5t245.5 64.5zM600 1656q-107 0 -209 -55t-159.5 -157.5t-57.5 -213.5t56.5 -212t158 -157.5t211.5 -56.5q111 0 212.5 56.5t158 157.5t56.5 212t-57.5 213.5t-159.5 157.5t-210 55z" />
<glyph unicode="&#xaf;" horiz-adv-x="360" />
<glyph unicode="&#xb0;" horiz-adv-x="488" d="M329 1721q120 0 202.5 -83t82.5 -202q0 -117 -83 -200t-202 -83q-117 0 -200 83t-83 200q0 119 82.5 202t200.5 83zM329 1625q-78 0 -132.5 -54.5t-54.5 -132.5t54.5 -133.5t132.5 -55.5t132.5 55.5t54.5 133.5t-54.5 132.5t-132.5 54.5z" />
<glyph unicode="&#xb1;" horiz-adv-x="636" />
<glyph unicode="&#xb2;" horiz-adv-x="300" />
<glyph unicode="&#xb3;" horiz-adv-x="300" />
<glyph unicode="&#xb4;" horiz-adv-x="460" d="M356 1750l62 -148l-342 -142l-33 36z" />
<glyph unicode="&#xb6;" horiz-adv-x="945" d="M416 -450v1178q-415 0 -415 508q0 490 415 490h529v-74h-106v-2102h-100v2102h-223v-2102h-100z" />
<glyph unicode="&#xb7;" horiz-adv-x="207" />
<glyph unicode="&#xb8;" horiz-adv-x="410" d="M351 19l-62 -106q106 -10 134.5 -90t-20.5 -145t-137 -86.5t-198 -4.5l29 48q103 -22 148 9t53 78t-35 85t-121 18l124 194h85z" />
<glyph unicode="&#xb9;" horiz-adv-x="300" />
<glyph unicode="&#xba;" horiz-adv-x="402" />
<glyph unicode="&#xbb;" horiz-adv-x="540" />
<glyph unicode="&#xbc;" horiz-adv-x="786" />
<glyph unicode="&#xbd;" horiz-adv-x="786" />
<glyph unicode="&#xbe;" horiz-adv-x="786" />
<glyph unicode="&#xbf;" horiz-adv-x="567" />
<glyph unicode="&#xc0;" d="M933 1763l61 10q367 -986 865 -1725l112 26l15 -46q-231 -31 -358 -72q-182 479 -405 921q-392 87 -560 16q-391 -703 -385 -840l93 -14v-41l-357 -1q386 544 618.5 1014t300.5 752zM1162 984q-132 381 -244 519l-193 -509zM859 2180l-62 -148l342 -142l33 36z" />
<glyph unicode="&#xc1;" d="M933 1763l61 10q367 -986 865 -1725l112 26l15 -46q-231 -31 -358 -72q-182 479 -405 921q-392 87 -560 16q-391 -703 -385 -840l93 -14v-41l-357 -1q386 544 618.5 1014t300.5 752zM1162 984q-132 381 -244 519l-193 -509zM1111 2180l62 -148l-342 -142l-33 36z" />
<glyph unicode="&#xc2;" d="M933 1763l61 10q367 -986 865 -1725l112 26l15 -46q-231 -31 -358 -72q-182 479 -405 921q-392 87 -560 16q-391 -703 -385 -840l93 -14v-41l-357 -1q386 544 618.5 1014t300.5 752zM1162 984q-132 381 -244 519l-193 -509zM974 2177l230 -262l-54 -40l-206 165 l-212 -164l-49 39l233 262h58z" />
<glyph unicode="&#xc3;" d="M933 1763l61 10q367 -986 865 -1725l112 26l15 -46q-231 -31 -358 -72q-182 479 -405 921q-392 87 -560 16q-391 -703 -385 -840l93 -14v-41l-357 -1q386 544 618.5 1014t300.5 752zM1162 984q-132 381 -244 519l-193 -509zM714 1937q0 314 235 175.5t235 40.5h51 q0 -314 -235.5 -176.5t-235.5 -39.5h-50z" />
<glyph unicode="&#xc4;" d="M933 1763l61 10q367 -986 865 -1725l112 26l15 -46q-231 -31 -358 -72q-182 479 -405 921q-392 87 -560 16q-391 -703 -385 -840l93 -14v-41l-357 -1q386 544 618.5 1014t300.5 752zM1162 984q-132 381 -244 519l-193 -509zM1153 2141q73 16 110.5 -7t27 -77t-75 -75.5 t-115 0.5t-35.5 82.5t88 76.5zM748 2141q73 16 110.5 -7t27 -77t-75 -75.5t-115 0.5t-35.5 82.5t88 76.5z" />
<glyph unicode="&#xc5;" d="M933 1763l61 10q367 -986 865 -1725l112 26l15 -46q-231 -31 -358 -72q-182 479 -405 921q-392 87 -560 16q-391 -703 -385 -840l93 -14v-41l-357 -1q386 544 618.5 1014t300.5 752zM1162 984q-132 381 -244 519l-193 -509zM962 2114q83 0 140 -57.5t57 -139.5 q0 -81 -57.5 -138.5t-139.5 -57.5q-81 0 -138.5 57.5t-57.5 138.5q0 82 57 139.5t139 57.5zM962 2033q-48 0 -81.5 -33.5t-33.5 -81.5t33.5 -82t81.5 -34t81.5 34t33.5 82t-33.5 81.5t-81.5 33.5z" />
<glyph unicode="&#xc6;" horiz-adv-x="2208" d="M986 1735q561 -30 963 16l-55 -138q-363 66 -511 47v-617q476 0 642 62l-78 -174q-452 57 -564 20l-20 -887q526 5 659 155l43 -16l-265 -332l-92 9l111 105q-335 33 -681 -13l-7 33q79 39 93 410t6 534l-410 -3q-400 -602 -507 -891l91 -32l-4 -29h-404 q728 830 1139 1677l-185 -8zM1243 1041q5 398 -52 568l-305 -572z" />
<glyph unicode="&#xc7;" horiz-adv-x="1774" d="M1066 19l-62 -106q106 -10 134.5 -90t-20.5 -145t-137 -86.5t-198 -4.5l29 48q103 -22 148 9t53 78t-35 85t-121 18l124 194h85zM1499 1478l-76 15l123 73q-272 109 -543.5 100t-463 -170t-236 -450t70.5 -535t349 -367t500 -66t415 210l29 -87q-117 -35 -340 -320 l-77 30l160 138q-255 -94 -518 -77.5t-487.5 195t-277 490t84 574t356 380.5t486 145t652.5 -72z" />
<glyph unicode="&#xc8;" horiz-adv-x="1240" d="M64 1735q511 -30 913 16l-55 -138q-363 66 -511 47v-617q476 0 642 62l-78 -174q-452 89 -564 20l-20 -887q526 5 659 155l43 -16l-265 -332l-92 9l111 105q-335 33 -681 -13l-7 33q79 39 95.5 597t-42.5 1087l-174 -16zM415 2180l-62 -148l342 -142l33 36z" />
<glyph unicode="&#xc9;" horiz-adv-x="1240" d="M64 1735q511 -30 913 16l-55 -138q-363 66 -511 47v-617q476 0 642 62l-78 -174q-452 89 -564 20l-20 -887q526 5 659 155l43 -16l-265 -332l-92 9l111 105q-335 33 -681 -13l-7 33q79 39 95.5 597t-42.5 1087l-174 -16zM646 2180l62 -148l-342 -142l-33 36z" />
<glyph unicode="&#xca;" horiz-adv-x="1240" d="M64 1735q511 -30 913 16l-55 -138q-363 66 -511 47v-617q476 0 642 62l-78 -174q-452 89 -564 20l-20 -887q526 5 659 155l43 -16l-265 -332l-92 9l111 105q-335 33 -681 -13l-7 33q79 39 95.5 597t-42.5 1087l-174 -16zM608 2177l230 -262l-54 -40l-206 165l-212 -164 l-49 39l233 262h58z" />
<glyph unicode="&#xcb;" horiz-adv-x="1240" d="M64 1735q511 -30 913 16l-55 -138q-363 66 -511 47v-617q476 0 642 62l-78 -174q-452 89 -564 20l-20 -887q526 5 659 155l43 -16l-265 -332l-92 9l111 105q-335 33 -681 -13l-7 33q79 39 95.5 597t-42.5 1087l-174 -16zM731 2141q73 16 110.5 -7t27 -77t-75 -75.5 t-115 0.5t-35.5 82.5t88 76.5zM326 2141q73 16 110.5 -7t27 -77t-75 -75.5t-115 0.5t-35.5 82.5t88 76.5z" />
<glyph unicode="&#xcc;" horiz-adv-x="680" d="M201 1668l214 91q-61 -1218 20 -1723l-251 -85l-19 34q88 62 91.5 821.5t-55.5 861.5zM176 2183l-62 -148l342 -142l33 36z" />
<glyph unicode="&#xcd;" horiz-adv-x="680" d="M201 1668l214 91q-61 -1218 20 -1723l-251 -85l-19 34q88 62 91.5 821.5t-55.5 861.5zM487 2183l62 -148l-342 -142l-33 36z" />
<glyph unicode="&#xce;" horiz-adv-x="680" d="M201 1668l214 91q-61 -1218 20 -1723l-251 -85l-19 34q88 62 91.5 821.5t-55.5 861.5zM356 2177l230 -262l-54 -40l-206 165l-212 -164l-49 39l233 262h58z" />
<glyph unicode="&#xcf;" horiz-adv-x="680" d="M201 1668l214 91q-61 -1218 20 -1723l-251 -85l-19 34q88 62 91.5 821.5t-55.5 861.5zM502 2141q73 16 110.5 -7t27 -77t-75 -75.5t-115 0.5t-35.5 82.5t88 76.5zM97 2141q73 16 110.5 -7t27 -77t-75 -75.5t-115 0.5t-35.5 82.5t88 76.5z" />
<glyph unicode="&#xd0;" horiz-adv-x="663" />
<glyph unicode="&#xd1;" horiz-adv-x="1945" d="M219 -8q100 1508 -16 1716l55 40l1292 -1346v633q0 538 -92 654l230 72q-88 -1491 -1 -1749l-84 -25q-182 362 -1242 1394v-628q0 -601 65 -711l172 22v-58zM705 1937q0 314 235 175.5t235 40.5h51q0 -314 -235.5 -176.5t-235.5 -39.5h-50z" />
<glyph unicode="&#xd2;" horiz-adv-x="2045" d="M1159.5 1765q372.5 -46 579 -294t191.5 -581t-184.5 -559.5t-492 -315t-634 41t-439 436.5t-41.5 629t367 505.5t653.5 137.5zM325.5 1116q-63.5 -318 57.5 -579.5t341 -380.5t489 -63.5t395.5 280t116 530.5t-193.5 528.5t-456 261t-479.5 -110t-270 -466.5zM875 2183 l-62 -148l342 -142l33 36z" />
<glyph unicode="&#xd3;" horiz-adv-x="2045" d="M1159.5 1765q372.5 -46 579 -294t191.5 -581t-184.5 -559.5t-492 -315t-634 41t-439 436.5t-41.5 629t367 505.5t653.5 137.5zM325.5 1116q-63.5 -318 57.5 -579.5t341 -380.5t489 -63.5t395.5 280t116 530.5t-193.5 528.5t-456 261t-479.5 -110t-270 -466.5zM1127 2183 l62 -148l-342 -142l-33 36z" />
<glyph unicode="&#xd4;" horiz-adv-x="2045" d="M1159.5 1765q372.5 -46 579 -294t191.5 -581t-184.5 -559.5t-492 -315t-634 41t-439 436.5t-41.5 629t367 505.5t653.5 137.5zM325.5 1116q-63.5 -318 57.5 -579.5t341 -380.5t489 -63.5t395.5 280t116 530.5t-193.5 528.5t-456 261t-479.5 -110t-270 -466.5zM1048 2177 l230 -262l-54 -40l-206 165l-212 -164l-49 39l233 262h58z" />
<glyph unicode="&#xd5;" horiz-adv-x="2045" d="M1159.5 1765q372.5 -46 579 -294t191.5 -581t-184.5 -559.5t-492 -315t-634 41t-439 436.5t-41.5 629t367 505.5t653.5 137.5zM325.5 1116q-63.5 -318 57.5 -579.5t341 -380.5t489 -63.5t395.5 280t116 530.5t-193.5 528.5t-456 261t-479.5 -110t-270 -466.5zM773 1937 q0 314 235 175.5t235 40.5h51q0 -314 -235.5 -176.5t-235.5 -39.5h-50z" />
<glyph unicode="&#xd6;" horiz-adv-x="2045" d="M1159.5 1765q372.5 -46 579 -294t191.5 -581t-184.5 -559.5t-492 -315t-634 41t-439 436.5t-41.5 629t367 505.5t653.5 137.5zM325.5 1116q-63.5 -318 57.5 -579.5t341 -380.5t489 -63.5t395.5 280t116 530.5t-193.5 528.5t-456 261t-479.5 -110t-270 -466.5zM1186 2141 q73 16 110.5 -7t27 -77t-75 -75.5t-115 0.5t-35.5 82.5t88 76.5zM781 2141q73 16 110.5 -7t27 -77t-75 -75.5t-115 0.5t-35.5 82.5t88 76.5z" />
<glyph unicode="&#xd7;" horiz-adv-x="636" />
<glyph unicode="&#xd8;" horiz-adv-x="696" />
<glyph unicode="&#xd9;" horiz-adv-x="1975" d="M119 1701l335 79q-19 -347 -29 -818.5t117 -680.5t412.5 -207t419.5 158t141 597.5t-28 882.5l217 52q-39 -355 -47 -928.5t23 -761.5l121 61l32 -42l-333 -131l-5 260q-243 -231 -611.5 -241t-502.5 227.5t-114 563.5t-5 914l-133 -50zM840 2183l-62 -148l342 -142 l33 36z" />
<glyph unicode="&#xda;" horiz-adv-x="1975" d="M119 1701l335 79q-19 -347 -29 -818.5t117 -680.5t412.5 -207t419.5 158t141 597.5t-28 882.5l217 52q-39 -355 -47 -928.5t23 -761.5l121 61l32 -42l-333 -131l-5 260q-243 -231 -611.5 -241t-502.5 227.5t-114 563.5t-5 914l-133 -50zM1092 2183l62 -148l-342 -142 l-33 36z" />
<glyph unicode="&#xdb;" horiz-adv-x="1975" d="M119 1701l335 79q-19 -347 -29 -818.5t117 -680.5t412.5 -207t419.5 158t141 597.5t-28 882.5l217 52q-39 -355 -47 -928.5t23 -761.5l121 61l32 -42l-333 -131l-5 260q-243 -231 -611.5 -241t-502.5 227.5t-114 563.5t-5 914l-133 -50zM1020 2177l230 -262l-54 -40 l-206 165l-212 -164l-49 39l233 262h58z" />
<glyph unicode="&#xdc;" horiz-adv-x="1975" d="M119 1701l335 79q-19 -347 -29 -818.5t117 -680.5t412.5 -207t419.5 158t141 597.5t-28 882.5l217 52q-39 -355 -47 -928.5t23 -761.5l121 61l32 -42l-333 -131l-5 260q-243 -231 -611.5 -241t-502.5 227.5t-114 563.5t-5 914l-133 -50zM1156 2141q73 16 110.5 -7t27 -77 t-75 -75.5t-115 0.5t-35.5 82.5t88 76.5zM751 2141q73 16 110.5 -7t27 -77t-75 -75.5t-115 0.5t-35.5 82.5t88 76.5z" />
<glyph unicode="&#xdd;" horiz-adv-x="526" />
<glyph unicode="&#xde;" horiz-adv-x="576" />
<glyph unicode="&#xdf;" horiz-adv-x="1266" d="M129 -425l-21 21q77 232 70 984.5t10.5 1002.5t347.5 237.5t395 -163.5t-9 -284t-215 -184q195 -8 322.5 -193.5t87 -538.5t-271 -429t-433.5 22l68 88q110 -81 235.5 -82.5t188.5 242t12 474.5t-161.5 310.5t-312.5 46.5l-1 64q244 -5 304 109.5t28 281.5t-203.5 188.5 t-205 -162.5t-33.5 -1878z" />
<glyph unicode="&#xe0;" horiz-adv-x="1048" d="M137 1008q217 72 329 258l79 -29l-138 -112q317 93 367 62t61 -200t-7.5 -438.5t3.5 -472.5l158 62l1 -58q-236 -67 -311 -132l-23 212q-238 -178 -364 -170t-167.5 244t72 397.5t475.5 -10.5q49 300 -14.5 426.5t-483.5 -84.5zM326.5 574.5q-80.5 -133.5 -36.5 -313.5 t141 -172.5t226 145.5l4 307q-254 167 -334.5 33.5zM394 1750l-62 -148l342 -142l33 36z" />
<glyph unicode="&#xe1;" horiz-adv-x="1048" d="M137 1008q217 72 329 258l79 -29l-138 -112q317 93 367 62t61 -200t-7.5 -438.5t3.5 -472.5l158 62l1 -58q-236 -67 -311 -132l-23 212q-238 -178 -364 -170t-167.5 244t72 397.5t475.5 -10.5q49 300 -14.5 426.5t-483.5 -84.5zM326.5 574.5q-80.5 -133.5 -36.5 -313.5 t141 -172.5t226 145.5l4 307q-254 167 -334.5 33.5zM646 1750l62 -148l-342 -142l-33 36z" />
<glyph unicode="&#xe2;" horiz-adv-x="1048" d="M137 1008q217 72 329 258l79 -29l-138 -112q317 93 367 62t61 -200t-7.5 -438.5t3.5 -472.5l158 62l1 -58q-236 -67 -311 -132l-23 212q-238 -178 -364 -170t-167.5 244t72 397.5t475.5 -10.5q49 300 -14.5 426.5t-483.5 -84.5zM326.5 574.5q-80.5 -133.5 -36.5 -313.5 t141 -172.5t226 145.5l4 307q-254 167 -334.5 33.5zM551 1733l230 -262l-54 -40l-206 165l-212 -164l-49 39l233 262h58z" />
<glyph unicode="&#xe3;" horiz-adv-x="1048" d="M137 1008q217 72 329 258l79 -29l-138 -112q317 93 367 62t61 -200t-7.5 -438.5t3.5 -472.5l158 62l1 -58q-236 -67 -311 -132l-23 212q-238 -178 -364 -170t-167.5 244t72 397.5t475.5 -10.5q49 300 -14.5 426.5t-483.5 -84.5zM326.5 574.5q-80.5 -133.5 -36.5 -313.5 t141 -172.5t226 145.5l4 307q-254 167 -334.5 33.5zM260 1508q0 314 235 175.5t235 40.5h51q0 -314 -235.5 -176.5t-235.5 -39.5h-50z" />
<glyph unicode="&#xe4;" horiz-adv-x="1048" d="M137 1008q217 72 329 258l79 -29l-138 -112q317 93 367 62t61 -200t-7.5 -438.5t3.5 -472.5l158 62l1 -58q-236 -67 -311 -132l-23 212q-238 -178 -364 -170t-167.5 244t72 397.5t475.5 -10.5q49 300 -14.5 426.5t-483.5 -84.5zM326.5 574.5q-80.5 -133.5 -36.5 -313.5 t141 -172.5t226 145.5l4 307q-254 167 -334.5 33.5zM691 1708q73 16 110.5 -7t27 -77t-75 -75.5t-115 0.5t-35.5 82.5t88 76.5zM286 1708q73 16 110.5 -7t27 -77t-75 -75.5t-115 0.5t-35.5 82.5t88 76.5z" />
<glyph unicode="&#xe5;" horiz-adv-x="1048" d="M137 1008q217 72 329 258l79 -29l-138 -112q317 93 367 62t61 -200t-7.5 -438.5t3.5 -472.5l158 62l1 -58q-236 -67 -311 -132l-23 212q-238 -178 -364 -170t-167.5 244t72 397.5t475.5 -10.5q49 300 -14.5 426.5t-483.5 -84.5zM326.5 574.5q-80.5 -133.5 -36.5 -313.5 t141 -172.5t226 145.5l4 307q-254 167 -334.5 33.5zM520 1781q83 0 140 -57.5t57 -139.5q0 -81 -57.5 -138.5t-139.5 -57.5q-81 0 -138.5 57.5t-57.5 138.5q0 82 57 139.5t139 57.5zM520 1700q-48 0 -81.5 -33.5t-33.5 -81.5t33.5 -82t81.5 -34t81.5 34t33.5 82t-33.5 81.5 t-81.5 33.5z" />
<glyph unicode="&#xe6;" horiz-adv-x="1576" d="M1270 823q14 164 -71 277t-197 3t-140 -332zM757 162q-103 -77 -223 -129.5t-244 -44.5t-163.5 245t74 398.5t487.5 -10.5q20 352 -56.5 443.5t-455.5 -99.5l-41 49q225 67 330 255l79 -35l-134 -108q212 78 291.5 48t107.5 -125q125 168 377.5 175t252.5 -428l-589 -84 q-12 -361 86 -507t231 -135.5t272 202.5l55 -96q-221 -189 -432.5 -183t-304.5 169zM327.5 574.5q-80.5 -133.5 -36.5 -313.5t165 -178.5t176 102.5t50 356q-274 167 -354.5 33.5z" />
<glyph unicode="&#xe7;" horiz-adv-x="943" d="M271 640.5q-13 -282.5 89 -421t224.5 -127.5t275.5 178l49 -83q-209 -195 -421 -192t-307 164t-88 427.5t133 448t353.5 191t260.5 -220.5l-148 -83q-12 148 -105.5 213.5t-198 -73.5t-117.5 -421.5zM577 19l-62 -106q106 -10 134.5 -90t-20.5 -145t-137 -86.5t-198 -4.5 l29 48q103 -22 148 9t53 78t-35 85t-121 18l124 194h85z" />
<glyph unicode="&#xe8;" horiz-adv-x="998" d="M275 715q-16 -357 86 -505.5t234.5 -137.5t265.5 198l49 -83q-209 -195 -421 -192t-307 164t-88 427.5t133 448t380 191.5t258 -437zM697 823q14 164 -71 277t-197 3t-140 -332zM371 1750l-62 -148l342 -142l33 36z" />
<glyph unicode="&#xe9;" horiz-adv-x="998" d="M275 715q-16 -357 86 -505.5t234.5 -137.5t265.5 198l49 -83q-209 -195 -421 -192t-307 164t-88 427.5t133 448t380 191.5t258 -437zM697 823q14 164 -71 277t-197 3t-140 -332zM623 1750l62 -148l-342 -142l-33 36z" />
<glyph unicode="&#xea;" horiz-adv-x="998" d="M275 715q-16 -357 86 -505.5t234.5 -137.5t265.5 198l49 -83q-209 -195 -421 -192t-307 164t-88 427.5t133 448t380 191.5t258 -437zM697 823q14 164 -71 277t-197 3t-140 -332zM541 1733l230 -262l-54 -40l-206 165l-212 -164l-49 39l233 262h58z" />
<glyph unicode="&#xeb;" horiz-adv-x="998" d="M275 715q-16 -357 86 -505.5t234.5 -137.5t265.5 198l49 -83q-209 -195 -421 -192t-307 164t-88 427.5t133 448t380 191.5t258 -437zM697 823q14 164 -71 277t-197 3t-140 -332zM705 1708q73 16 110.5 -7t27 -77t-75 -75.5t-115 0.5t-35.5 82.5t88 76.5zM300 1708 q73 16 110.5 -7t27 -77t-75 -75.5t-115 0.5t-35.5 82.5t88 76.5z" />
<glyph unicode="&#xec;" horiz-adv-x="635" d="M93 1132q192 3 300 102l30 -3q-75 -216 -39 -1159l123 65l8 -51l-306 -130q48 1042 -11 1152l-101 -34zM155 1750l-62 -148l342 -142l33 36z" />
<glyph unicode="&#xed;" horiz-adv-x="635" d="M93 1132q192 3 300 102l30 -3q-75 -216 -39 -1159l123 65l8 -51l-306 -130q48 1042 -11 1152l-101 -34zM407 1750l62 -148l-342 -142l-33 36z" />
<glyph unicode="&#xee;" horiz-adv-x="635" d="M93 1132q192 3 300 102l30 -3q-75 -216 -39 -1159l123 65l8 -51l-306 -130q48 1042 -11 1152l-101 -34zM320 1733l230 -262l-54 -40l-206 165l-212 -164l-49 39l233 262h58z" />
<glyph unicode="&#xef;" horiz-adv-x="635" d="M93 1132q192 3 300 102l30 -3q-75 -216 -39 -1159l123 65l8 -51l-306 -130q48 1042 -11 1152l-101 -34zM488 1708q73 16 110.5 -7t27 -77t-75 -75.5t-115 0.5t-35.5 82.5t88 76.5zM83 1708q73 16 110.5 -7t27 -77t-75 -75.5t-115 0.5t-35.5 82.5t88 76.5z" />
<glyph unicode="&#xf0;" horiz-adv-x="483" />
<glyph unicode="&#xf1;" horiz-adv-x="1184" d="M103 1122q202 23 289 120l24 -18l-34 -236q237 202 404.5 227.5t186.5 -175t-0.5 -485.5t3.5 -490l124 70l7 -57l-301 -122q16 291 22.5 673t-73 444.5t-210 -29t-166.5 -373.5l-25 -639l123 65l8 -51l-306 -90q98 1042 39 1152l-101 -34zM321 1508q0 314 235 175.5 t235 40.5h51q0 -314 -235.5 -176.5t-235.5 -39.5h-50z" />
<glyph unicode="&#xf2;" horiz-adv-x="1179" d="M614.5 1212q162.5 7 284.5 -97.5t153.5 -329t-31.5 -428.5t-192 -288.5t-286 -86.5t-278.5 99t-151 333.5t35.5 427.5t184 279t281.5 91zM757 139.5q83 93.5 116.5 322t-35.5 441t-206 233t-225 -81t-120.5 -337.5t35 -422t210 -217.5t225.5 62zM436 1750l-62 -148 l342 -142l33 36z" />
<glyph unicode="&#xf3;" horiz-adv-x="1179" d="M614.5 1212q162.5 7 284.5 -97.5t153.5 -329t-31.5 -428.5t-192 -288.5t-286 -86.5t-278.5 99t-151 333.5t35.5 427.5t184 279t281.5 91zM757 139.5q83 93.5 116.5 322t-35.5 441t-206 233t-225 -81t-120.5 -337.5t35 -422t210 -217.5t225.5 62zM712 1750l62 -148 l-342 -142l-33 36z" />
<glyph unicode="&#xf4;" horiz-adv-x="1179" d="M614.5 1212q162.5 7 284.5 -97.5t153.5 -329t-31.5 -428.5t-192 -288.5t-286 -86.5t-278.5 99t-151 333.5t35.5 427.5t184 279t281.5 91zM757 139.5q83 93.5 116.5 322t-35.5 441t-206 233t-225 -81t-120.5 -337.5t35 -422t210 -217.5t225.5 62zM605 1733l230 -262 l-54 -40l-206 165l-212 -164l-49 39l233 262h58z" />
<glyph unicode="&#xf5;" horiz-adv-x="1179" d="M614.5 1212q162.5 7 284.5 -97.5t153.5 -329t-31.5 -428.5t-192 -288.5t-286 -86.5t-278.5 99t-151 333.5t35.5 427.5t184 279t281.5 91zM757 139.5q83 93.5 116.5 322t-35.5 441t-206 233t-225 -81t-120.5 -337.5t35 -422t210 -217.5t225.5 62zM306 1508 q0 314 235 175.5t235 40.5h51q0 -314 -235.5 -176.5t-235.5 -39.5h-50z" />
<glyph unicode="&#xf6;" horiz-adv-x="1179" d="M614.5 1212q162.5 7 284.5 -97.5t153.5 -329t-31.5 -428.5t-192 -288.5t-286 -86.5t-278.5 99t-151 333.5t35.5 427.5t184 279t281.5 91zM757 139.5q83 93.5 116.5 322t-35.5 441t-206 233t-225 -81t-120.5 -337.5t35 -422t210 -217.5t225.5 62zM774 1708q73 16 110.5 -7 t27 -77t-75 -75.5t-115 0.5t-35.5 82.5t88 76.5zM369 1708q73 16 110.5 -7t27 -77t-75 -75.5t-115 0.5t-35.5 82.5t88 76.5z" />
<glyph unicode="&#xf7;" horiz-adv-x="1155" d="M105 722v99h945v-99h-945zM544 1148q73 16 110.5 -7t27 -77t-75 -75.5t-115 0.5t-35.5 82.5t88 76.5zM544 547q73 16 110.5 -7t27 -77t-75 -75.5t-115 0.5t-35.5 82.5t88 76.5z" />
<glyph unicode="&#xf8;" horiz-adv-x="366" />
<glyph unicode="&#xf9;" horiz-adv-x="1221" d="M108 1139q234 23 320 96q-105 -515 -78.5 -825.5t134.5 -322t213.5 93.5t124.5 426l10 520l-140 -46l-7 68q230 -4 309 95q-52 -637 -20 -1172l144 87l11 -74l-306 -123l-13 247q-199 -187 -360.5 -215.5t-221.5 122.5t-41.5 488.5t54.5 511.5l-120 -49zM458 1750 l-62 -148l342 -142l33 36z" />
<glyph unicode="&#xfa;" horiz-adv-x="1221" d="M108 1139q234 23 320 96q-105 -515 -78.5 -825.5t134.5 -322t213.5 93.5t124.5 426l10 520l-140 -46l-7 68q230 -4 309 95q-52 -637 -20 -1172l144 87l11 -74l-306 -123l-13 247q-199 -187 -360.5 -215.5t-221.5 122.5t-41.5 488.5t54.5 511.5l-120 -49zM710 1750 l62 -148l-342 -142l-33 36z" />
<glyph unicode="&#xfb;" horiz-adv-x="1221" d="M108 1139q234 23 320 96q-105 -515 -78.5 -825.5t134.5 -322t213.5 93.5t124.5 426l10 520l-140 -46l-7 68q230 -4 309 95q-52 -637 -20 -1172l144 87l11 -74l-306 -123l-13 247q-199 -187 -360.5 -215.5t-221.5 122.5t-41.5 488.5t54.5 511.5l-120 -49zM609 1733 l230 -262l-54 -40l-206 165l-212 -164l-49 39l233 262h58z" />
<glyph unicode="&#xfc;" horiz-adv-x="1221" d="M108 1139q234 23 320 96q-105 -515 -78.5 -825.5t134.5 -322t213.5 93.5t124.5 426l10 520l-140 -46l-7 68q230 -4 309 95q-52 -637 -20 -1172l144 87l11 -74l-306 -123l-13 247q-199 -187 -360.5 -215.5t-221.5 122.5t-41.5 488.5t54.5 511.5l-120 -49zM774 1708 q73 16 110.5 -7t27 -77t-75 -75.5t-115 0.5t-35.5 82.5t88 76.5zM369 1708q73 16 110.5 -7t27 -77t-75 -75.5t-115 0.5t-35.5 82.5t88 76.5z" />
<glyph unicode="&#xfd;" horiz-adv-x="393" />
<glyph unicode="&#xfe;" horiz-adv-x="348" />
<glyph unicode="&#xff;" horiz-adv-x="393" />
<glyph unicode="&#x152;" horiz-adv-x="2729" d="M349.5 1106q-63.5 -318 57.5 -579.5t341 -380.5t489 -63.5t395.5 280t116 530.5t-193.5 528.5t-456 261t-479.5 -110t-270 -466.5zM1724 1683l-182 -13l36 68q517 -35 917 10l-62 -137q-364 69 -517 49v-621q481 0 651 59l-82 -166q-455 84 -569 16l-19 -881 q530 0 670 156l35 -23l-266 -335l-98 20l127 97q-338 36 -683 -10l-10 36q82 33 82 306q-153 -225 -475 -312.5t-636 42.5t-439 437.5t-39 631t369 504t653.5 133.5t556.5 -272z" />
<glyph unicode="&#x153;" horiz-adv-x="1790" d="M1486 823q14 164 -71 277t-197 3t-140 -332zM752 139.5q83 93.5 111.5 322t-40.5 441t-201 233t-220 -81t-115.5 -337.5t40 -422t205 -217.5t220.5 62zM985 985q159 233 412.5 241t255.5 -435l-592 -74q-12 -361 89.5 -510.5t236 -138.5t264.5 202l48 -83 q-210 -196 -423 -193t-333 209q-154 -216 -358.5 -219t-327 97t-151.5 332t36 428.5t186.5 279.5t283 90t254.5 -73t119 -153z" />
<glyph unicode="&#x178;" horiz-adv-x="526" />
<glyph unicode="&#x2c6;" horiz-adv-x="580" d="M321 1733l230 -262l-54 -40l-206 165l-212 -164l-49 39l233 262h58z" />
<glyph unicode="&#x2dc;" horiz-adv-x="584" d="M30 1508q0 314 235 175.5t235 40.5h51q0 -314 -235.5 -176.5t-235.5 -39.5h-50z" />
<glyph unicode="&#x2000;" horiz-adv-x="1091" />
<glyph unicode="&#x2001;" horiz-adv-x="2183" />
<glyph unicode="&#x2002;" horiz-adv-x="1091" />
<glyph unicode="&#x2003;" horiz-adv-x="2183" />
<glyph unicode="&#x2004;" horiz-adv-x="727" />
<glyph unicode="&#x2005;" horiz-adv-x="545" />
<glyph unicode="&#x2006;" horiz-adv-x="363" />
<glyph unicode="&#x2007;" horiz-adv-x="363" />
<glyph unicode="&#x2008;" horiz-adv-x="272" />
<glyph unicode="&#x2009;" horiz-adv-x="436" />
<glyph unicode="&#x200a;" horiz-adv-x="121" />
<glyph unicode="&#x2010;" horiz-adv-x="788" d="M674 530h-556v154h556v-154z" />
<glyph unicode="&#x2011;" horiz-adv-x="788" d="M674 530h-556v154h556v-154z" />
<glyph unicode="&#x2012;" horiz-adv-x="788" d="M674 530h-556v154h556v-154z" />
<glyph unicode="&#x2013;" horiz-adv-x="684" />
<glyph unicode="&#x2014;" horiz-adv-x="894" />
<glyph unicode="&#x2018;" horiz-adv-x="502" d="M179 1494q-104 262 159 490l25 -37q-152 -118 -47 -362l72 39l21 -49z" />
<glyph unicode="&#x2019;" horiz-adv-x="497" d="M355 1494q104 262 -159 490l-25 -37q152 -118 47 -362l-72 39l-21 -49z" />
<glyph unicode="&#x201a;" horiz-adv-x="555" d="M344 196q104 -262 -159 -490l-25 37q152 118 47 362l-72 -39l-21 49z" />
<glyph unicode="&#x201c;" horiz-adv-x="864" d="M175 1494q-104 262 159 490l25 -37q-152 -118 -47 -362l72 39l21 -49zM529 1494q-104 262 159 490l25 -37q-152 -118 -47 -362l72 39l21 -49z" />
<glyph unicode="&#x201d;" horiz-adv-x="868" d="M709 1494q104 262 -159 490l-25 -37q152 -118 47 -362l-72 39l-21 -49zM355 1494q104 262 -159 490l-25 -37q152 -118 47 -362l-72 39l-21 -49z" />
<glyph unicode="&#x201e;" horiz-adv-x="886" d="M698 196q104 -262 -159 -490l-25 37q152 118 47 362l-72 -39l-21 49zM344 196q104 -262 -159 -490l-25 37q152 118 47 362l-72 -39l-21 49z" />
<glyph unicode="&#x2022;" horiz-adv-x="387" />
<glyph unicode="&#x2026;" horiz-adv-x="792" />
<glyph unicode="&#x202f;" horiz-adv-x="436" />
<glyph unicode="&#x2039;" horiz-adv-x="321" />
<glyph unicode="&#x203a;" horiz-adv-x="321" />
<glyph unicode="&#x205f;" horiz-adv-x="545" />
<glyph unicode="&#x2122;" horiz-adv-x="1318" d="M464 1127q121 500 110 606l28 4l239 -443q216 364 196 436l40 8q62 -433 121 -575l63 8l6 -39q-96 -2 -172 -20l-77 397l-182 -382l-32 2q-1 62 -192 396q-76 -317 -44 -369l52 7l-6 -36h-150zM91 1734q214 -17 446 -2l-19 -72q-116 30 -174 20q-16 -362 0 -535l-127 -29 l-3 29q40 14 45 221t-2 313q-77 10 -193 -16z" />
<glyph unicode="&#xe000;" horiz-adv-x="1225" d="M0 1225h1225v-1225h-1225v1225z" />
</font>
</defs>
</svg>
