<?xml version="1.0" standalone="no"?>
<!DOCTYPE svg PUBLIC "-//W3C//DTD SVG 1.1//EN" "http://www.w3.org/Graphics/SVG/1.1/DTD/svg11.dtd" >
<svg xmlns="http://www.w3.org/2000/svg">
<metadata></metadata>
<defs>
<font id="dejavu_serifcondensed" horiz-adv-x="1544" >
<font-face units-per-em="2048" ascent="1556" descent="-492" />
<missing-glyph horiz-adv-x="585" />
<glyph unicode="&#xfb00;" horiz-adv-x="1305" d="M904 956h-450l-178 -1022q-31 -178 -130 -269t-260 -91l10 98q95 0 141 56q48 60 74 206l178 1022h-159l19 107h159l23 133q32 179 131 269q99 91 260 91q60 0 118 -12t114 -37l-36 -202h-87q3 21 3 40q0 46 -21 74q-31 39 -102 39q-93 0 -140.5 -56.5t-72.5 -201.5 l-25 -137h450l24 133q31 179 130 269q99 91 260 91q61 0 119 -12t113 -37l-35 -202h-88q4 21 4 40q0 46 -22 74q-30 39 -101 39q-93 0 -141 -56.5t-73 -201.5l-24 -137h267l-19 -107h-267l-178 -1022q-32 -178 -131 -269t-260 -91l11 98q95 0 140 56q48 60 74 206z" />
<glyph unicode="fi" horiz-adv-x="1229" d="M289 956h-159l19 107h159l17 96q34 197 157 297t329 100q78 0 157.5 -13t155.5 -40l-38 -217l-84 1q2 18 2 34q0 61 -37 95q-48 42 -159 42q-138 0 -214 -71t-103 -224l-18 -100h640l-167 -957h156l-18 -106h-322l167 956h-475l-178 -1022q-31 -178 -130 -269t-260 -91 l10 98q95 0 141 56q48 60 74 206z" />
<glyph unicode="fl" horiz-adv-x="1229" d="M289 956h-159l19 107h159l17 96q35 201 159.5 299t344.5 98h357l-254 -1450h158l-18 -106h-323l253 1450h-194q-146 0 -218 -65t-99 -222l-18 -100h266l-19 -107h-266l-178 -1022q-31 -178 -130 -269t-260 -91l10 98q95 0 141 56q48 60 74 206z" />
<glyph unicode="&#xfb03;" horiz-adv-x="1735" d="M895 956h-441l-178 -1022q-31 -178 -130 -269t-260 -91l10 98q95 0 141 56q48 60 74 206l178 1022h-159l19 107h159l23 133q32 179 131 269q99 91 260 91q60 0 118 -12t114 -37l-36 -202h-87q3 21 3 40q0 46 -21 74q-31 39 -102 39q-93 0 -140.5 -56.5t-72.5 -201.5 l-25 -137h441l17 96q34 197 156.5 297t329.5 100q78 0 157.5 -13t155.5 -40l-39 -217l-84 1q2 18 2 34q0 61 -37 95q-47 42 -158 42q-138 0 -214.5 -71t-103.5 -224l-17 -100h640l-167 -957h156l-19 -106h-322l167 956h-474l-179 -1022q-31 -178 -130 -269t-261 -91l11 98 q95 0 141 56q48 60 74 206z" />
<glyph unicode="&#xfb04;" horiz-adv-x="1817" d="M917 956l-178 -1022q-26 -146 -74 -206q-46 -56 -140 -56l-11 -98q161 0 260 91t130 269l179 1022h265l19 107h-265l18 100q27 157 98.5 222t217.5 65h194l-253 -1450h323l18 106h-157l253 1450h-357q-219 0 -344 -98t-160 -299l-17 -96h-463l25 137q25 145 72.5 201.5 t140.5 56.5q71 0 102 -39q21 -28 21 -74q0 -19 -3 -40h87l36 202q-56 25 -114 37t-118 12q-161 0 -260 -91q-99 -90 -131 -269l-23 -133h-159l-19 -107h159l-178 -1022q-26 -146 -74 -206q-46 -56 -141 -56l-10 -98q161 0 260 91t130 269l178 1022h463z" />
<glyph unicode="&#x192;&#x192;" horiz-adv-x="1305" d="M-104 -328q95 0 141 56q48 60 73 206l179 1022h-158l19 107h158l23 133q32 179 131 269q99 91 260 91q60 0 118.5 -12t113.5 -37l-36 -202h-87q3 21 3 40q0 46 -21 74q-31 39 -102 39q-93 0 -140.5 -56.5t-72.5 -201.5l-24 -137h449l24 133q31 179 130 269q99 91 260 91 q61 0 119 -12t113 -37l-35 -202h-88q4 21 4 40q0 46 -22 74q-30 39 -102 39q-92 0 -140 -56.5t-73 -201.5l-24 -137h267l-18 -107h-268l-179 -1022q-31 -178 -130 -269t-260 -91q-60 0 -118.5 12t-113.5 37l36 202h87q-4 -21 -4 -40q0 -46 22 -74q31 -39 102 -39 q94 0 140 56q48 60 74 206l179 1022h-450l-179 -1022q-31 -178 -130 -269t-260 -91q-61 0 -119 12t-113 37l35 202h87q-3 -21 -3 -40q0 -46 22 -74q30 -39 101 -39z" />
<glyph unicode="&#x192;i" horiz-adv-x="1229" d="M1086 1286l-85 1q3 18 3 34q0 61 -38 95q-47 42 -158 42q-137 0 -213.5 -71t-103.5 -224l-17 -100h640l-168 -957h157l-19 -106h-322l167 956h-474l-171 -975q-31 -178 -130 -269t-260 -91q-61 0 -119 12t-113 37l35 202h88q-4 -21 -4 -40q0 -46 22 -74q30 -39 102 -39 q92 0 140 56.5t74 205.5l170 975h-158l19 107h158l17 96q34 197 157 297t329 100q78 0 158 -13t155 -40z" />
<glyph unicode="&#x192;l" horiz-adv-x="1229" d="M829 1556h357l-253 -1450h157l-18 -106h-324l254 1450h-193q-147 0 -218.5 -65t-99.5 -222l-17 -100h265l-19 -107h-265l-171 -975q-31 -178 -130 -269t-260 -91q-61 0 -119 12t-113 37l35 202h88q-4 -21 -4 -40q0 -46 22 -74q30 -39 102 -39q92 0 140 56.5t74 205.5 l170 975h-158l19 107h158l17 96q35 201 159.5 299t344.5 98z" />
<glyph unicode="&#x192;&#x192;i" horiz-adv-x="1735" d="M895 956h-440l-179 -975q-33 -180 -130 -269q-99 -91 -260 -91q-61 0 -119 12t-113 37l35 202h87q-3 -21 -3 -40q0 -46 22 -74q30 -39 101 -39q95 0 141 57t73 205l179 975h-158l19 107h158l23 133q32 179 131 269q99 91 260 91q60 0 118.5 -12t113.5 -37l-36 -202h-87 q3 21 3 40q0 46 -21 74q-31 39 -102 39q-93 0 -140.5 -56.5t-72.5 -201.5l-24 -137h440l16 96q35 197 157.5 297t328.5 100q79 0 158.5 -13t154.5 -40l-38 -217l-84 1q3 18 3 34q0 61 -38 95q-48 42 -158 42q-138 0 -214.5 -71t-102.5 -224l-18 -100h640l-167 -957h156 l-18 -106h-323l168 956h-475l-170 -975q-31 -178 -130.5 -269t-260.5 -91q-60 0 -118 12t-113 37l35 202h87q-3 -21 -3 -40q0 -46 21 -74q31 -39 102 -39q93 0 140.5 56.5t73.5 205.5z" />
<glyph unicode="&#x192;&#x192;l" horiz-adv-x="1817" d="M276 -19q-33 -180 -130 -269q-99 -91 -260 -91q-61 0 -119 12t-113 37l35 202h87q-3 -21 -3 -40q0 -46 22 -74q30 -39 101 -39q93 0 141 57q46 54 73 205l179 975h-158l19 107h158l23 133q32 179 131 269q99 91 260 91q60 0 118.5 -12t113.5 -37l-36 -202h-87q3 21 3 40 q0 46 -21 74q-31 39 -102 39q-93 0 -140.5 -56.5t-72.5 -201.5l-24 -137h462l17 96q35 201 160 299t344 98h357l-253 -1450h157l-18 -106h-323l253 1450h-193q-147 0 -218.5 -65t-99.5 -222l-17 -100h265l-18 -107h-266l-171 -975q-31 -178 -130 -269t-260 -91 q-60 0 -118.5 12t-113.5 37l35 202h88q-4 -21 -4 -40q0 -46 22 -74q31 -39 102 -39q92 0 140 56.5t74 205.5l170 975h-462z" />
<glyph unicode="&#xd;" horiz-adv-x="682" />
<glyph unicode=" "  horiz-adv-x="585" />
<glyph unicode="&#x09;" horiz-adv-x="585" />
<glyph unicode="&#xa0;" horiz-adv-x="585" />
<glyph unicode="!" horiz-adv-x="740" d="M141 104q10 56 51 95t92 39q50 0 78 -39t19 -95q-10 -55 -52 -94t-91 -39q-52 0 -79.5 38.5t-17.5 94.5zM388 1493h232l-205 -821l-44 -252h-111l45 252z" />
<glyph unicode="&#x22;" horiz-adv-x="847" d="M324 1493v-555h-143v555h143zM667 1493v-555h-143v555h143z" />
<glyph unicode="#" d="M938 901h-254l-76 -334h257zM811 1470l-92 -415h254l93 415h154l-94 -415h277v-154h-312l-74 -334h283v-153h-317l-93 -414h-155l95 414h-255l-93 -414h-154l92 414h-278v153h313l74 334h-284v154h319l94 415h153z" />
<glyph unicode="$" horiz-adv-x="1172" d="M523 68q104 10 167 65t80 150q15 86 -28 146t-140 91zM629 1187q-94 -7 -154.5 -59.5t-75.5 -140.5q-14 -80 24 -133t133 -86zM61 72l49 276h97q-21 -137 35.5 -207t190.5 -73l85 485q-196 64 -265 147.5t-45 221.5q28 160 144 257t295 109l46 268h90l-46 -268 q89 -8 169 -32.5t153 -65.5l-46 -262h-98q9 116 -41 183t-155 76l-79 -452q209 -67 283 -153.5t48 -231.5q-29 -166 -151 -266t-314 -115l-47 -270h-90l47 270q-86 2 -174.5 27.5t-180.5 75.5z" />
<glyph unicode="%" horiz-adv-x="1751" d="M532 1427q-79 0 -138 -83t-85 -232q-26 -147 5 -231t108 -84t136 83.5t85 231.5t-4 231.5t-107 83.5zM1331 694q-78 0 -137.5 -84t-85.5 -233q-25 -147 5 -230.5t107.5 -83.5t136.5 83.5t84 230.5q26 148 -3.5 232.5t-106.5 84.5zM1347 784q142 0 206.5 -110t32 -297 t-136 -296.5t-244.5 -109.5q-144 0 -208.5 109.5t-32.5 296.5q33 188 136.5 297.5t246.5 109.5zM1363 1520h137l-1112 -1549h-136zM547 1520q142 0 207.5 -109.5t32.5 -296.5q-33 -189 -136 -298t-246.5 -109t-207.5 109.5t-31 297.5q33 186 136 296t245 110z" />
<glyph unicode="&#x26;" horiz-adv-x="1640" d="M905 231l-416 613q-92 -78 -147 -168.5t-73 -192.5q-7 -43 -7 -82q0 -113 62 -197q84 -112 238 -112q92 0 180 35.5t163 103.5zM1423 0h-361l-98 145q-110 -88 -224.5 -131t-238.5 -43q-232 0 -345 132q-84 98 -84 247q0 52 11 111q23 133 112 248.5t246 216.5 q-35 61 -46 122q-6 29 -6 60q0 32 6 66q28 159 147.5 252.5t296.5 93.5q61 0 138.5 -17t174.5 -51l-45 -258h-102q1 12 1 24q0 89 -42 139q-48 56 -147 56q-93 0 -160.5 -56.5t-82.5 -146.5q-4 -21 -4 -42q0 -40 13 -80q19 -58 97 -173l370 -544q76 80 127.5 172.5 t79.5 197.5l18 107h264l-19 -107h-155q-38 -130 -102 -243t-156 -209l123 -183h212z" />
<glyph unicode="'" horiz-adv-x="506" d="M324 1493v-555h-143v555h143z" />
<glyph unicode="(" horiz-adv-x="719" d="M424 -319q-200 109 -270 345.5t-8 591.5q62 356 215 592.5t391 345.5l-17 -98q-158 -106 -252 -298.5t-155 -541.5q-60 -348 -33.5 -540.5t146.5 -298.5z" />
<glyph unicode=")" horiz-adv-x="719" d="M-34 -319l18 98q157 106 251.5 298.5t155.5 540.5q61 349 33.5 541.5t-147.5 298.5l18 98q200 -109 270 -345.5t8 -592.5q-62 -355 -215 -591.5t-392 -345.5z" />
<glyph unicode="*" horiz-adv-x="921" d="M892 1237l-352 -182l352 -185l-68 -118l-314 217l12 -381h-122l11 381l-313 -217l-68 118l352 183l-352 184l68 119l313 -217l-11 381h122l-12 -381l314 217z" />
<glyph unicode="+" d="M844 1284v-561h505v-162h-505v-561h-144v561h-505v162h505v561h144z" />
<glyph unicode="," horiz-adv-x="585" d="M36 -199q97 69 153 162.5t79 226.5l7 37h177q-37 -171 -124 -293.5t-234 -212.5z" />
<glyph unicode="-" horiz-adv-x="622" d="M95 627h460l-27 -156h-461z" />
<glyph unicode="." horiz-adv-x="585" d="M173.5 104q9.5 56 50.5 95t93 39q49 0 77.5 -39t18.5 -95q-10 -55 -51.5 -94t-91.5 -39q-51 0 -78.5 38.5t-18 94.5z" />
<glyph unicode="/" horiz-adv-x="621" d="M624 1493h144l-771 -1683h-144z" />
<glyph unicode="0" horiz-adv-x="1172" d="M467.5 70q137.5 0 235.5 168t157 507q60 340 21 508t-177 168t-235.5 -168t-157.5 -508q-59 -339 -20 -507t176.5 -168zM450 -29q-218 0 -305.5 204t-23.5 570q65 367 223.5 571t376.5 204q220 0 306.5 -204t22.5 -571q-64 -366 -222 -570t-378 -204z" />
<glyph unicode="1" horiz-adv-x="1172" d="M129 0l18 106h234l218 1242l-305 -195l23 131l369 236h124l-248 -1414h234l-18 -106h-649z" />
<glyph unicode="2" horiz-adv-x="1172" d="M302 1137h-101l46 266q107 57 210 87t196 30q210 0 311.5 -113t67.5 -307q-38 -219 -367 -524q-25 -23 -38 -35l-405 -377h560l32 184h106l-61 -348h-867l19 109l487 452q161 150 240.5 275.5t103.5 263.5q27 151 -29 236t-180 85q-129 0 -211.5 -71t-119.5 -213z" />
<glyph unicode="3" horiz-adv-x="1172" d="M299 1430q113 44 213.5 67t185.5 23q197 0 291 -94.5t65 -262.5q-24 -135 -116 -225.5t-238 -122.5q161 -26 233.5 -133.5t42.5 -278.5q-37 -209 -182.5 -320.5t-383.5 -111.5q-105 0 -201 25t-186 76l50 290h101q-16 -144 49.5 -218t207.5 -74q138 0 233 88.5t122 242.5 q31 176 -35.5 266.5t-224.5 90.5h-86l18 102h45q158 0 249.5 72.5t116.5 218.5q23 131 -29.5 200.5t-174 69.5t-200 -64t-111.5 -190h-101z" />
<glyph unicode="4" horiz-adv-x="1172" d="M599 506l139 794l-598 -794h459zM907 0h-612l18 106h216l51 293h-586l19 109l765 1012h178l-177 -1014h257l-19 -107h-257l-51 -293h216z" />
<glyph unicode="5" horiz-adv-x="1172" d="M1060 1493l-29 -164h-615l-75 -428q53 36 118.5 54t143.5 18q218 0 320.5 -134t61.5 -366q-41 -237 -191.5 -369.5t-381.5 -132.5q-92 0 -185 25t-186 76l51 290h102q-17 -142 43 -217t193 -75q142 0 236.5 104t128.5 299q34 194 -24 297.5t-201 103.5q-81 0 -148 -32 t-127 -99h-77l131 750h711z" />
<glyph unicode="6" horiz-adv-x="1172" d="M485 70q127 0 213.5 103.5t120.5 297.5t-16.5 297.5t-177.5 103.5q-129 0 -214 -100t-118 -289q-34 -199 15.5 -306t176.5 -107zM323 822q74 75 158 112t181 37q201 0 294 -134t53 -366q-40 -227 -189.5 -363.5t-359.5 -136.5q-227 0 -316.5 188.5t-28.5 538.5 q69 392 251.5 607t445.5 215q71 0 147 -15t152 -45l-43 -246h-101q7 101 -42.5 154t-148.5 53q-175 0 -286 -147t-167 -452z" />
<glyph unicode="7" horiz-adv-x="1172" d="M1152 1391l-769 -1391h-134l734 1329h-621l-32 -184h-105l60 348h885z" />
<glyph unicode="8" horiz-adv-x="1172" d="M800 408q28 160 -28.5 248.5t-186 88.5t-216.5 -88.5t-115 -248.5q-28 -161 28 -249.5t185.5 -88.5t216.5 88.5t116 249.5zM889 1133q24 136 -24.5 212t-160.5 76q-111 0 -186.5 -76t-99.5 -212q-24 -137 25 -213t160 -76q112 0 187.5 76t98.5 213zM733 795 q149 -23 216.5 -125.5t39.5 -261.5q-36 -210 -175.5 -323.5t-363.5 -113.5q-222 0 -322 113.5t-64 323.5q28 159 131.5 261.5t261.5 125.5q-131 27 -188.5 114.5t-33.5 223.5q32 180 161.5 283.5t325 103.5t289 -103.5t61.5 -283.5q-24 -136 -111.5 -223.5t-227.5 -114.5z " />
<glyph unicode="9" horiz-adv-x="1172" d="M849 669q-74 -75 -158.5 -112t-182.5 -37q-200 0 -292 134t-52 366q40 227 189.5 363.5t358.5 136.5q228 0 317 -188.5t28 -538.5q-69 -392 -251.5 -607t-445.5 -215q-71 0 -146.5 15t-152.5 45l44 248h100q-5 -101 44 -155t147 -54q174 0 285.5 146.5t167.5 452.5z M688 1421q-128 0 -214 -103.5t-120 -297.5t16 -298t177.5 -104t213 100.5t118.5 289.5q35 199 -14.5 306t-176.5 107z" />
<glyph unicode=":" horiz-adv-x="621" d="M134.5 104q9.5 56 51 95t92 39t78.5 -39t18 -95t-51 -94.5t-92 -38.5t-78.5 38.5t-18 94.5zM249 756q10 56 51 94.5t92 38.5t78.5 -38t17.5 -95t-51 -95t-92 -38q-50 0 -78 38.5t-18 94.5z" />
<glyph unicode=";" horiz-adv-x="621" d="M-22 -199q97 69 153 162.5t79 226.5l7 37h177q-37 -171 -123.5 -293.5t-234.5 -212.5zM274 756q10 56 51.5 94.5t92 38.5t78 -39t18.5 -94q-10 -56 -51.5 -94.5t-92 -38.5t-78.5 38.5t-18 94.5z" />
<glyph unicode="&#x3c;" d="M1349 1020l-934 -379l934 -377v-170l-1154 465v166l1154 465v-170z" />
<glyph unicode="=" d="M195 926h1154v-160h-1154v160zM195 518h1154v-160h-1154v160z" />
<glyph unicode="&#x3e;" d="M195 1020v170l1154 -465v-166l-1154 -465v170l935 377z" />
<glyph unicode="?" horiz-adv-x="988" d="M212 104q10 56 51.5 95t92.5 39q49 0 77.5 -39t18.5 -95q-10 -55 -51.5 -94t-91.5 -39q-51 0 -79 38.5t-18 94.5zM244 1427q104 47 194 70t165 23q200 0 297 -107t65 -289q-32 -186 -152 -304t-330 -169l-44 -254h-111l57 328q167 43 265 144t126 257q24 137 -28 216 t-165 79q-103 0 -179.5 -65.5t-117.5 -188.5h-87z" />
<glyph unicode="@" horiz-adv-x="1843" d="M1113 248q-67 -82 -140.5 -122t-156.5 -40q-158 0 -234 125t-41 326t155 325.5t277 124.5q84 0 143 -40t98 -122l25 142h140l-135 -772q160 37 266.5 162t138.5 313q20 111 6.5 210t-58.5 183q-72 133 -197 203.5t-286 70.5q-81 0 -163.5 -19t-167.5 -58 q-198 -93 -331.5 -281.5t-177.5 -435.5q-29 -167 -8.5 -307.5t88.5 -243.5q77 -119 200.5 -181.5t279.5 -62.5q116 0 223.5 38t207.5 114l35 -70q-114 -93 -245 -139.5t-278 -46.5q-165 0 -303 66.5t-229 189.5q-94 127 -125.5 290.5t2.5 352.5q32 184 120.5 347t226.5 290 q136 126 303 194t342 68q193 0 337 -83t224 -239q51 -98 66 -213t-6 -239q-47 -268 -221 -423.5t-428 -158.5zM1154 485l19 105q22 125 -29 202.5t-154 77.5q-109 0 -185 -87.5t-104 -245.5q-28 -159 18 -246.5t156 -87.5q102 0 180 78.5t99 203.5z" />
<glyph unicode="A" horiz-adv-x="1331" d="M333 541h493l-122 710zM-141 0l18 106h118l721 1387h152l237 -1387h132l-18 -106h-489l18 106h150l-55 328h-566l-169 -328h147l-18 -106h-378z" />
<glyph unicode="B" horiz-adv-x="1354" d="M343 106h269q162 0 250.5 78t118.5 248q29 169 -31.5 246.5t-223.5 77.5h-269zM476 862h228q148 0 227 63t103 199q24 137 -33.5 199.5t-204.5 62.5h-229zM-29 0l19 106h171l224 1280h-171l18 107h664q203 0 290 -92.5t55 -276.5q-24 -133 -109 -212t-226 -97 q166 -24 238 -121.5t43 -261.5q-39 -222 -183.5 -327t-411.5 -105h-621z" />
<glyph unicode="C" horiz-adv-x="1410" d="M1238 395q-96 -209 -254.5 -316.5t-372.5 -107.5q-132 0 -235.5 50t-174.5 147q-81 112 -105 254.5t7 322.5q61 348 279.5 561.5t514.5 213.5q110 0 228.5 -32t250.5 -97l-61 -344h-101q-1 188 -85.5 277t-265.5 89q-215 0 -355.5 -169.5t-197.5 -498.5 q-58 -328 23 -497.5t296 -169.5q151 0 262 79.5t182 237.5h165z" />
<glyph unicode="D" horiz-adv-x="1477" d="M343 106h168q262 0 431 166t223 476t-57 474t-373 164h-168zM-29 0l19 106h171l224 1280h-171l18 107h535q347 0 506.5 -197t98.5 -548q-62 -352 -291 -550t-575 -198h-535z" />
<glyph unicode="E" horiz-adv-x="1345" d="M-29 0l19 106h171l224 1280h-171l18 107h1082l-58 -332h-111l37 209h-618l-87 -500h440l33 187h111l-87 -496h-111l33 187h-440l-110 -625h632l37 209h110l-58 -332h-1096z" />
<glyph unicode="F" horiz-adv-x="1278" d="M-29 0l19 106h171l224 1280h-171l18 107h1100l-58 -332h-111l37 209h-636l-87 -500h459l33 187h110l-86 -496h-111l33 187h-459l-113 -642h215l-18 -106h-569z" />
<glyph unicode="G" horiz-adv-x="1472" d="M1233 1047q1 187 -83.5 276.5t-262.5 89.5q-232 0 -375.5 -166t-201.5 -502q-58 -329 30.5 -498t316.5 -169q102 0 199.5 28t191.5 84l67 385h-253l19 107h435l-97 -557q-133 -77 -278 -115.5t-302 -38.5q-305 0 -451 211.5t-85 562.5q62 354 282.5 564.5t531.5 210.5 q115 0 232.5 -29.5t245.5 -89.5l-62 -354h-100z" />
<glyph unicode="H" horiz-adv-x="1607" d="M-29 0l19 106h171l224 1280h-171l18 107h525l-19 -107h-171l-90 -516h697l90 516h-171l19 107h524l-18 -107h-171l-224 -1280h171l-19 -106h-525l19 106h171l112 642h-696l-113 -642h171l-18 -106h-525z" />
<glyph unicode="I" horiz-adv-x="728" d="M343 106h171l-18 -106h-525l19 106h171l224 1280h-171l18 107h525l-19 -107h-171z" />
<glyph unicode="J" horiz-adv-x="738" d="M-311 -358l41 235h103q-15 -99 16.5 -147.5t110.5 -48.5q107 0 162.5 75t93.5 293l234 1337h-209l19 107h562l-19 -107h-171l-235 -1345q-43 -247 -151.5 -357t-306.5 -110q-64 0 -127 17t-123 51z" />
<glyph unicode="K" horiz-adv-x="1377" d="M-29 0l19 106h171l224 1280h-171l18 107h525l-19 -107h-171l-99 -565l678 565h-146l19 107h446l-18 -107h-152l-675 -563l520 -717h153l-19 -106h-312l-513 709l-106 -603h171l-18 -106h-525z" />
<glyph unicode="L" horiz-adv-x="1224" d="M-29 0l19 106h171l224 1280h-171l18 107h525l-19 -107h-171l-221 -1263h614l44 250h111l-66 -373h-1078z" />
<glyph unicode="M" horiz-adv-x="1887" d="M-29 0l19 106h171l224 1280h-181l18 107h392l286 -1063l657 1063h367l-18 -107h-180l-223 -1280h171l-18 -106h-526l19 106h171l202 1154l-643 -1041h-127l-279 1041l-202 -1154h171l-18 -106h-453z" />
<glyph unicode="N" horiz-adv-x="1612" d="M-38 0l18 106h181l224 1280h-181l19 107h345l599 -1178l188 1071h-180l18 107h472l-19 -107h-181l-247 -1415h-109l-640 1258l-197 -1123h181l-19 -106h-472z" />
<glyph unicode="O" horiz-adv-x="1511" d="M639 78q221 0 363 168.5t199 498.5q58 331 -25 499.5t-303 168.5q-222 0 -364 -168.5t-199 -499.5q-58 -330 25 -498.5t304 -168.5zM621 -29q-137 0 -243 50t-177 147q-81 112 -105 254t7.5 323t105.5 323.5t194 254.5q106 98 228 147.5t260 49.5q293 0 435.5 -213 t81.5 -562q-31 -179 -105.5 -322.5t-194.5 -254.5q-106 -98 -228 -147.5t-259 -49.5z" />
<glyph unicode="P" horiz-adv-x="1240" d="M458 760h237q134 0 218.5 80.5t111.5 232.5q26 153 -30 233t-190 80h-238zM-29 0l19 106h171l224 1280h-171l18 107h636q201 0 299 -113.5t65 -306.5q-34 -192 -172 -306t-339 -114h-282l-96 -547h208l-18 -106h-562z" />
<glyph unicode="Q" horiz-adv-x="1511" d="M668 -29q-308 0 -454 211q-103 147 -103 366q0 92 19 197q31 181 105 323.5t195 254.5q105 98 227 147.5t261 49.5q292 0 435 -213q100 -149 100 -365q0 -92 -18 -197q-52 -296 -222.5 -497.5t-417.5 -259.5q36 -67 100.5 -99t162.5 -32h225l-33 -185h-105 q-239 0 -338 82q-97 82 -139 217zM665 78q221 0 363 168.5t200 498.5q23 136 23 245q0 155 -49 254q-83 169 -303 169q-221 0 -363 -168.5t-200 -499.5q-24 -135 -24 -244q0 -155 49 -255q83 -168 304 -168z" />
<glyph unicode="R" horiz-adv-x="1387" d="M882 741q60 -19 97.5 -64.5t58.5 -127.5l118 -443h164l-19 -106h-316l-127 475q-36 138 -79.5 178.5t-131.5 40.5h-201l-103 -588h190l-18 -106h-544l19 106h171l224 1280h-171l18 107h682q196 0 284.5 -104t54.5 -295q-27 -154 -120 -242.5t-251 -110.5zM465 801h265 q136 0 213.5 71.5t103.5 221.5t-26 221t-188 71h-266z" />
<glyph unicode="S" horiz-adv-x="1262" d="M53 72l60 340l103 -1q-25 -170 45 -251.5t241 -81.5q161 0 257.5 70.5t119.5 205.5q19 108 -21.5 166t-194.5 113l-167 59q-182 65 -243.5 162t-32.5 266q34 190 173.5 295t359.5 105q93 0 201 -22.5t226 -65.5l-55 -318h-102q12 158 -55 228.5t-230 70.5 q-142 0 -227.5 -64.5t-107.5 -187.5q-19 -107 26.5 -168t215.5 -121l157 -55q172 -61 233 -155.5t34 -253.5q-38 -217 -182.5 -327t-391.5 -110q-111 0 -221.5 25t-220.5 76z" />
<glyph unicode="T" horiz-adv-x="1229" d="M221 0l19 106h172l222 1268h-396l-40 -233h-111l62 352h1193l-62 -352h-110l40 233h-395l-221 -1268h171l-18 -106h-526z" />
<glyph unicode="U" horiz-adv-x="1553" d="M373 1386h-172l19 107h525l-19 -107h-171l-136 -772q-50 -286 14.5 -399t270.5 -113t310 113t154 399l135 772h-172l19 107h454l-19 -107h-171l-139 -792q-59 -341 -201.5 -482t-425.5 -141t-378 142t-36 481z" />
<glyph unicode="V" horiz-adv-x="1331" d="M434 1386l196 -1146l597 1146h-151l18 107h395l-19 -107h-131l-722 -1386h-154l-235 1386h-134l19 107h489l-19 -107h-149z" />
<glyph unicode="W" horiz-adv-x="1894" d="M1274 0h-147l-96 1214l-520 -1214h-147l-110 1386h-133l19 107h490l-19 -107h-167l87 -1103l518 1210h145l98 -1223l477 1116h-155l19 107h387l-19 -107h-132z" />
<glyph unicode="X" horiz-adv-x="1312" d="M591 639l-421 -533h173l-18 -106h-445l19 106h155l496 627l-278 653h-144l19 107h533l-19 -107h-159l204 -481l381 481h-173l18 107h441l-19 -107h-151l-456 -575l300 -705h144l-18 -106h-533l18 106h161z" />
<glyph unicode="Y" horiz-adv-x="1216" d="M218 0l18 106h172l94 537l-285 743h-126l19 107h499l-18 -107h-157l230 -604l441 604h-151l19 107h391l-19 -107h-127l-531 -724l-97 -556h172l-19 -106h-525z" />
<glyph unicode="Z" horiz-adv-x="1280" d="M-48 0l13 72l1064 1298h-695l-39 -223h-111l61 346h1062l-13 -72l-1064 -1298h760l36 209h110l-58 -332h-1126z" />
<glyph unicode="[" horiz-adv-x="719" d="M318 1556h419l-19 -106h-247l-282 -1614h247l-19 -106h-418z" />
<glyph unicode="\" horiz-adv-x="621" d="M291 1493l183 -1683h-144l-183 1683h144z" />
<glyph unicode="]" horiz-adv-x="719" d="M720 1556l-319 -1826h-419l19 106h247l282 1614h-247l19 106h418z" />
<glyph unicode="^" d="M860 1493l489 -557h-138l-439 381l-438 -381h-139l489 557h176z" />
<glyph unicode="_" horiz-adv-x="921" d="M922 -403v-80h-922v80h922z" />
<glyph unicode="`" horiz-adv-x="921" d="M508 1636l167 -376h-105l-240 376h178z" />
<glyph unicode="a" horiz-adv-x="1098" d="M670 166q-121 -195 -313 -195q-159 0 -239 119q-56 84 -56 204q0 51 10 108q62 353 282 535q189 155 416 155q153 0 206 -29l-168 -957h143l-19 -106h-291zM237 300q0 -214 186 -214q113 0 190.5 100.5t110.5 292.5l85 482v0q0 29 -73 29q-172 0 -307 -150 q-133 -151 -181 -425q-11 -64 -11 -115z" />
<glyph unicode="b" horiz-adv-x="1179" d="M332 1450h-159l19 106h325l-116 -659q66 100 149.5 147.5t194.5 47.5q176 0 261 -155q56 -102 56 -245q0 -75 -15 -160q-44 -250 -183 -405.5t-315 -155.5q-111 0 -177.5 47.5t-98.5 147.5l-29 -166h-165zM328 479q-14 -79 -14 -142q0 -91 29 -151q49 -100 175 -100 q127 0 212 113t123 333q18 101 18 180q0 92 -25 153q-45 112 -172 112q-126 0 -210 -101t-117 -292z" />
<glyph unicode="c" horiz-adv-x="1032" d="M911 319q-65 -170 -180.5 -259t-274.5 -89q-208 0 -308 153q-70 107 -70 261q0 69 14 147q44 255 198 407.5t362 152.5q91 0 177 -23.5t169 -71.5l-48 -272h-96v26q0 120 -47 178q-52 64 -170 64q-134 0 -222.5 -115.5t-129.5 -345.5q-18 -105 -18 -187q0 -96 26 -159 q47 -116 182 -116q108 0 182.5 62t119.5 187h134z" />
<glyph unicode="d" horiz-adv-x="1179" d="M1106 1556l-272 -1556h-166l29 166q-66 -100 -149.5 -147.5t-193.5 -47.5q-177 0 -262 155q-56 103 -56 247q0 74 15 159q44 250 182.5 405t316.5 155q110 0 177 -47.5t98 -147.5l97 553h-157l19 106h322zM752 479l18 105q14 78 14 141q0 91 -29 151q-48 101 -174 101 q-128 0 -213 -112t-123 -333q-18 -101 -18 -179q0 -93 25 -154q45 -113 173 -113q126 0 210 100.5t117 292.5z" />
<glyph unicode="e" horiz-adv-x="1090" d="M270 408q-4 -38 -4 -72q0 -94 31 -156q53 -110 195 -110q105 0 156 35q92 63 113 144h122q-36 -127 -170 -216q-94 -62 -279.5 -62t-285.5 153q-70 107 -70 262q0 68 14 145q44 253 196 407t368 154q352 0 352 -277q0 -203 -184 -302q-189 -101 -554 -105zM732 632 q100 66 100 190q0 171 -204 171q-120 0 -204 -102t-135 -377q289 15 443 118z" />
<glyph unicode="f" horiz-adv-x="682" d="M918 1305h-87q3 21 3 40q0 46 -21 74q-31 39 -102 39q-93 0 -140.5 -56.5t-72.5 -201.5l-24 -137h267l-19 -107h-267l-179 -1022q-31 -178 -130 -269t-260 -91l10 98q95 0 141 56q48 60 73 206l179 1022h-158l19 107h158l23 133q32 179 131 269q99 91 260 91 q60 0 118.5 -12t113.5 -37z" />
<glyph unicode="g" horiz-adv-x="1179" d="M1100 1063l-182 -1040q-41 -238 -175 -353q-144 -125 -345 -125q-94 0 -177 19t-156 57l39 223h86q-2 -104 50 -152t165 -48q146 0 229 92q84 90 119 287l25 143q-66 -100 -149.5 -147.5t-189.5 -47.5q-159 0 -239 119q-50 75 -55 179q-3 61 9 133q62 353 283 535 q188 154 408 155q201 1 255 -29zM917 956q0 34 -98 34q-175 0 -307 -150q-134 -151 -181 -425q-15 -81 -11 -142q4 -62 26 -104q44 -83 159 -83q126 0 210 100.5t118 292.5l18 105z" />
<glyph unicode="h" horiz-adv-x="1187" d="M89 0l254 1450h-159l19 106h324l-120 -682q65 108 148 163t180 55q159 0 216 -101q34 -61 34 -163q0 -67 -15 -152l-99 -570h147l-18 -106h-314l108 618q18 103 18 172q0 61 -14 94q-31 72 -140 72q-116 0 -192.5 -93t-107.5 -271l-104 -592h-165z" />
<glyph unicode="i" horiz-adv-x="589" d="M291 1393q8 46 44 80t79 34q41 0 65 -34q18 -26 18 -58q0 -11 -2 -22q-8 -47 -43.5 -80t-77.5 -33t-67 33q-18 25 -18 57q0 11 2 23zM277 106h157l-19 -106h-322l167 956h-158l19 107h324z" />
<glyph unicode="j" horiz-adv-x="571" d="M336 1393q8 46 44 80t79 34q41 0 65 -34q18 -26 18 -58q0 -11 -2 -22q-8 -47 -43 -80t-78 -33q-42 0 -67 33q-18 25 -18 57q0 11 2 23zM300 956h-156l18 107h323l-205 -1167q-28 -164 -132.5 -257.5t-257.5 -93.5q-65 0 -121 16.5t-106 49.5l38 219h85q-2 -25 -2 -46 q0 -62 22 -95q31 -45 105 -45q81 0 131 61.5t73 190.5z" />
<glyph unicode="k" horiz-adv-x="1116" d="M608 664l266 -558h138l-19 -106h-265l-261 543l-154 -135l-71 -408h-166l254 1450h-159l18 106h325l-177 -1013l475 413h-137l18 107h269l-18 -107z" />
<glyph unicode="l" horiz-adv-x="589" d="M260 106h157l-19 -106h-322l254 1450h-159l18 106h325z" />
<glyph unicode="m" horiz-adv-x="1747" d="M1009 856q68 117 153 176.5t184 59.5q150 0 206 -104q33 -62 33 -163q0 -66 -14 -149l-100 -570h149l-18 -106h-315l114 655q14 78 14 134q0 62 -16 98q-31 69 -131 69q-111 0 -185.5 -93t-105.5 -271l-103 -592h-166l116 662q13 75 13 129q0 62 -17 97q-31 68 -131 68 q-111 0 -185 -93t-105 -271l-104 -592h-166l168 958h-158l18 105h324l-33 -189q64 106 145 162t171 56q112 0 176 -61.5t69 -174.5z" />
<glyph unicode="n" horiz-adv-x="1187" d="M129 0l168 956h-159l19 107h324l-33 -189q65 108 148 163t180 55q158 0 215 -101q35 -61 35 -163q0 -67 -15 -152l-100 -570h148l-19 -106h-314l108 618q18 103 18 172q0 61 -14 96q-31 72 -140 72q-115 0 -191.5 -93.5t-107.5 -272.5l-104 -592h-166z" />
<glyph unicode="o" horiz-adv-x="1109" d="M474 70q133 0 221.5 117t128.5 345q18 104 18 185q0 96 -26 159q-48 117 -181 117t-221.5 -116.5t-128.5 -344.5q-18 -104 -18 -184q0 -97 26 -161q48 -117 181 -117zM456 -29q-208 0 -308 153q-70 107 -70 261q0 69 14 147q44 254 197.5 407t363 153t309.5 -153 q69 -106 69 -260q0 -69 -14 -147q-44 -254 -197.5 -407.5t-363.5 -153.5z" />
<glyph unicode="p" horiz-adv-x="1179" d="M422 584l-18 -105q-14 -79 -14 -142q0 -91 29 -151q48 -100 174 -100q127 0 212 113t124 333q17 101 17 180q0 92 -24 153q-46 112 -173 112q-126 0 -210 -101t-117 -292zM321 956h-159l19 107h325l-29 -166q66 100 149.5 147.5t193.5 47.5q177 0 261 -155 q56 -102 56 -245q0 -75 -15 -160q-44 -250 -182.5 -405.5t-315.5 -155.5q-110 0 -177 47.5t-98 147.5l-104 -592h-165z" />
<glyph unicode="q" horiz-adv-x="1179" d="M773 166q-62 -100 -138 -148q-75 -47 -175 -47q-158 0 -239 119q-50 75 -55 179q-4 61 9 133q62 353 282 535q188 154 409 155q174 1 229 -29l-242 -1383h159l-18 -106h-325zM840 990q-173 0 -307 -150q-133 -151 -182 -425q-13 -81 -10 -142q4 -62 26 -104 q44 -83 159 -83q114 0 191 100.5t110 292.5l85 482q1 29 -72 29z" />
<glyph unicode="r" horiz-adv-x="881" d="M972 1065l-47 -266h-95q2 20 2 37q0 52 -21 81q-28 39 -96 39q-122 0 -204 -94t-112 -270l-104 -592h-166l168 958h-158l18 105h324l-33 -189q68 111 154 164.5t196 53.5q40 0 83.5 -7t90.5 -20z" />
<glyph unicode="s" horiz-adv-x="945" d="M64 307h95q-3 -29 -3 -55q0 -182 222 -182q223 0 256 182q2 18 2 50q0 31 -30.5 68.5t-159.5 86.5l-112 45q-115 44 -152.5 100.5t-37.5 121.5q0 26 4 56q27 146 137.5 229t270.5 83t327 -86l-41 -232h-95q4 23 4 43q0 73 -45.5 124.5t-151.5 51.5q-211 0 -240 -164 q-4 -17 -4 -47q0 -31 29.5 -66t143.5 -77l124 -45q127 -47 175 -118q33 -50 33 -99q0 -210 -151 -319q-119 -87 -300.5 -87t-342.5 88z" />
<glyph unicode="t" horiz-adv-x="740" d="M247 956h-146l19 107h146l57 330h167l-58 -330h311l-18 -107h-312l-118 -675q-14 -79 -14 -125q0 -32 7 -48q17 -38 80 -38q65 0 102 42.5t56 137.5h125q-33 -145 -108.5 -212t-206.5 -67q-143 0 -190 71q-29 43 -29 123q0 51 12 116z" />
<glyph unicode="u" horiz-adv-x="1187" d="M892 1063h166l-168 -957h157l-19 -106h-322l33 188q-65 -106 -147.5 -161.5t-178.5 -55.5q-159 0 -217 101q-35 60 -35 163q0 67 15 152l100 569h-150l19 107h316l-108 -619q-18 -103 -18 -171q0 -61 14 -95q30 -72 140 -72q115 0 191.5 94t108.5 273z" />
<glyph unicode="v" horiz-adv-x="1041" d="M484 0h-121l-185 956h-109l18 107h248l162 -838q103 100 173 227q144 264 195 504h-110l19 107h248q-99 -412 -223 -643q-108 -200 -315 -420z" />
<glyph unicode="w" horiz-adv-x="1577" d="M1077 233q120 144 147 197q99 200 196 526l-139 -1l19 108h240l-19 -108h-1q-91 -371 -179 -550q-129 -255 -270 -405h-138l-98 795l-375 -795h-133l-116 956l-107 -2l19 109h246l101 -830l392 830h116z" />
<glyph unicode="x" horiz-adv-x="1039" d="M118 0h-113l422 510l-212 446h-118l18 107h243l199 -414l343 414h113l-414 -500l218 -457h126l-19 -106h-251l-203 424z" />
<glyph unicode="y" horiz-adv-x="1041" d="M1060 1054q-89 -572 -246 -874q-229 -443 -414 -576q-81 -59 -297 -59q-43 0 -85.5 8t-85.5 23l36 203h84q-2 -16 -2 -31q0 -42 17 -66q22 -34 81 -34q158 0 296 153l-226 1155h-109l19 107h247l213 -1055q145 241 180 340q113 311 136 599h-109l19 107h246z" />
<glyph unicode="z" horiz-adv-x="971" d="M733 975q98 0 192 88h54l-15 -86l-654 -758l36 -12q30 -11 61 -33l44 -30q85 -57 145 -57q118 0 257 150l-21 -121q-155 -168 -271 -168q-71 2 -171 71t-163 69q-98 0 -192 -88h-54l15 86l654 757q-9 4 -35 13q-31 11 -62 33l-43 30q-86 57 -146 57q-118 0 -257 -150 l21 121q155 168 272 168q70 -2 170.5 -71t162.5 -69z" />
<glyph unicode="{" horiz-adv-x="1172" d="M795 -229l-18 -105h-56q-224 0 -287 74t-24 295l45 258q26 150 -12.5 208t-166.5 58h-55l19 105h55q127 0 186 58t85 208l45 258q39 221 128 294.5t313 73.5h56l-19 -104h-61q-127 0 -173 -44t-71 -185l-50 -287q-28 -158 -85 -226t-179 -98q113 -34 145.5 -101t4.5 -224 l-50 -287q-25 -141 6 -185t158 -44h61z" />
<glyph unicode="|" horiz-adv-x="621" d="M383 1565v-2048h-145v2048h145z" />
<glyph unicode="}" horiz-adv-x="1172" d="M83 -229h63q126 0 172 43.5t71 185.5l50 287q28 157 83.5 224t179.5 101q-112 30 -144.5 98t-4.5 226l50 287q25 142 -5.5 185.5t-156.5 43.5h-63l18 104h56q225 0 287 -73.5t23 -294.5l-45 -258q-26 -150 12.5 -208t166.5 -58h56l-19 -105h-56q-127 0 -186 -58t-85 -208 l-45 -258q-39 -221 -127 -295t-312 -74h-57z" />
<glyph unicode="~" d="M1349 807v-148q-90 -88 -171 -130t-165 -42q-86 0 -243 66l-9 4q-9 4 -29 13q-133 57 -218 57q-83 0 -161 -36.5t-158 -113.5v152q90 87 170.5 127.5t165.5 40.5q86 0 243 -66l9 -4q10 -4 28 -12q130 -58 218 -58q83 0 162 37t158 113z" />
<glyph unicode="&#xa1;" horiz-adv-x="740" d="M361 1389q10 56 51 94.5t92 38.5q49 0 77.5 -39t18.5 -94q-9 -56 -51 -95t-92 -39q-51 0 -78.5 39t-17.5 95zM122 0l203 821l45 252h110l-44 -252l-82 -821h-232z" />
<glyph unicode="&#xa2;" horiz-adv-x="1172" d="M647 991q-119 -15 -197 -130t-116 -329q-37 -215 1 -330t151 -130zM957 319q-59 -154 -158.5 -240.5t-239.5 -105.5l-47 -270h-90l47 270q-195 19 -283.5 169t-46.5 390q42 242 183 391.5t342 166.5l47 266h90l-47 -266q82 -8 153.5 -31t136.5 -62l-48 -272h-95 q4 123 -36 188.5t-128 77.5l-161 -919q83 12 146.5 75.5t101.5 171.5h133z" />
<glyph unicode="&#xa3;" horiz-adv-x="1172" d="M1073 1225h-94q7 95 -35 145.5t-128 50.5q-114 0 -182 -77.5t-97 -241.5l-52 -295h371l-19 -107h-370l-102 -579h430l40 227h105l-61 -348h-889l19 106h174l104 594h-174l19 107h173l52 295q36 205 157.5 311.5t320.5 106.5q76 0 147 -12.5t134 -37.5z" />
<glyph unicode="&#xa4;" horiz-adv-x="1172" d="M811 985l188 207l85 -94l-188 -209q38 -60 56.5 -121t18.5 -127q0 -69 -18.5 -128t-58.5 -116l186 -207l-86 -94l-187 205q-50 -44 -103.5 -65t-115.5 -21q-58 0 -114 20.5t-111 61.5l-184 -205l-85 94l184 207q-37 62 -55.5 123t-18.5 125q0 70 19 129.5t59 116.5 l-187 207l86 94l186 -207q51 44 105 65t116 21q59 0 114 -20t109 -62zM830 643q0 112 -70 189t-172 77q-101 0 -171.5 -77t-70.5 -189q0 -114 70 -192t171.5 -78t172 78.5t70.5 191.5z" />
<glyph unicode="&#xa5;" horiz-adv-x="1172" d="M193 0l19 106h172l64 367h-364l19 105h363l12 65l-49 141h-290l18 105h237l-171 497h-126l19 107h498l-19 -107h-157l203 -604l410 604h-150l19 107h389l-19 -107h-128l-342 -497h244l-18 -105h-299l-85 -122l-15 -84h363l-18 -105h-363l-64 -367h171l-19 -106h-524z" />
<glyph unicode="&#xa6;" horiz-adv-x="621" d="M383 408v-758h-145v758h145zM383 1432v-758h-145v758h145z" />
<glyph unicode="&#xa7;" horiz-adv-x="921" d="M389 936q-69 -46 -101 -87.5t-42 -94.5q-23 -132 269 -335l25 -18q59 38 94 86t45 105q13 75 -38 142t-252 202zM886 1464l-35 -202h-83q11 72 -28.5 113.5t-118.5 41.5q-90 0 -150.5 -48.5t-74.5 -131.5q-17 -97 180 -234q21 -15 31 -22q156 -109 199 -184t26 -174 q-17 -95 -75 -158t-169 -107q62 -47 84 -110t6 -154q-23 -131 -128.5 -210t-261.5 -79q-81 0 -150.5 13.5t-133.5 42.5l36 209l83 -1q-12 -80 29.5 -120.5t137.5 -40.5q94 0 157 49t77 133q20 113 -163 240q-17 12 -25 18q-173 122 -217 197t-26 174q16 94 81 160.5 t168 97.5q-65 49 -89.5 112t-10.5 142q22 130 126 209.5t254 79.5q70 0 136 -14t128 -42z" />
<glyph unicode="&#xa8;" horiz-adv-x="921" d="M481 1569q43 0 68 -35q24 -34 16 -82q-9 -51 -44 -84q-36 -33 -82 -33q-45 0 -68 33q-25 33 -15 84q8 48 45 82q37 35 80 35zM832 1569q42 0 67 -35q24 -34 16 -82q-9 -51 -44 -84q-36 -33 -81 -33q-46 0 -69 33q-24 33 -15 84q8 48 46 82q36 35 80 35z" />
<glyph unicode="&#xa9;" horiz-adv-x="1843" d="M1238 573q-24 -131 -105.5 -201.5t-209.5 -70.5q-168 0 -268.5 120t-100.5 320q0 201 101.5 322t267.5 121q72 0 142 -18.5t148 -57.5v-213h-75q-16 109 -67 160t-146 51q-107 0 -161.5 -91.5t-54.5 -273.5q0 -181 54 -271.5t160 -90.5q88 0 138.5 47.5t69.5 146.5h107z M921.5 1485q136.5 0 255 -55t216.5 -164t146.5 -240t48.5 -285q0 -152 -48.5 -282.5t-146.5 -239.5t-216.5 -164t-255 -55t-255 55t-216.5 164t-146.5 239.5t-48.5 282.5q0 154 48.5 285t146.5 240t216.5 164t255 55zM922 1382q-118 0 -220 -47t-186 -141 q-84 -93 -127 -207.5t-43 -245.5q0 -130 43 -243t127 -207t186 -141.5t220 -47.5t220.5 47.5t186.5 141.5q84 93 126 206t42 244q0 133 -42.5 246.5t-125.5 206.5q-84 94 -186.5 141t-220.5 47z" />
<glyph unicode="&#xaa;" horiz-adv-x="875" d="M552 756l31 178q-54 -77 -113 -121q-59 -43 -125 -57q-29 -6 -54 -6q-85 0 -131 67q-41 58 -41 152q0 46 10 100q29 166 125 285q96 118 221 145q26 5 49 5q36 0 65 -13q48 -22 78 -81l14 84h113l-114 -650h116l-16 -88h-228zM617 1130l15 86q5 32 5 59q0 61 -27 97 q-30 41 -85 41q-17 0 -37 -4q-87 -18 -148 -100q-61 -83 -84 -213q-9 -51 -9 -92q0 -64 22 -102q28 -48 87 -48q17 0 36 4q82 17 145 93q62 76 80 179zM83 639h628l-18 -104h-628z" />
<glyph unicode="&#xab;" horiz-adv-x="1127" d="M1035 1059l-20 -115l-327 -344l207 -344l-20 -115l-349 418l14 82zM645 1059l-21 -115l-327 -344l207 -344l-20 -115l-349 418l14 82z" />
<glyph unicode="&#xac;" d="M195 862h1154v-575h-144v413h-1010v162z" />
<glyph unicode="&#xad;" horiz-adv-x="622" d="M95 627h460l-27 -156h-461z" />
<glyph unicode="&#xae;" horiz-adv-x="1843" d="M806 791h112q75 0 112 38t37 113q0 74 -37.5 112t-111.5 38h-112v-301zM1027 754q38 -14 64.5 -39.5t44.5 -65.5l104 -229h69v-68h-171l-118 254q-32 70 -60 93.5t-72 23.5h-82v-303h75v-68h-285v68h74v672h-74v67h373q115 0 174 -56t59 -165q0 -83 -43.5 -128.5 t-131.5 -55.5zM922 1382q-118 0 -220 -47t-186 -141q-84 -93 -127 -207.5t-43 -245.5q0 -130 43 -243t127 -207t186 -141.5t220 -47.5t220.5 47.5t186.5 141.5q84 93 126 206t42 244q0 133 -42.5 246.5t-125.5 206.5q-84 94 -186.5 141t-220.5 47zM921.5 1485 q136.5 0 255 -55t216.5 -164t146.5 -240t48.5 -285q0 -152 -48.5 -282.5t-146.5 -239.5t-216.5 -164t-255 -55t-255 55t-216.5 164t-146.5 239.5t-48.5 282.5q0 154 48.5 285t146.5 240t216.5 164t255 55z" />
<glyph unicode="&#xaf;" horiz-adv-x="921" d="M356 1526h539l-26 -148h-538z" />
<glyph unicode="&#xb0;" horiz-adv-x="921" d="M461 1382q-69 0 -115.5 -52.5t-46.5 -129.5q0 -76 46.5 -127t115.5 -51q68 0 115 51.5t47 126.5t-48 128.5t-114 53.5zM461 1520q57 0 110.5 -24.5t91.5 -70.5q42 -45 62.5 -102t20.5 -123q0 -132 -83 -223.5t-204 -91.5t-202 90t-81 225q0 134 82.5 227t202.5 93z" />
<glyph unicode="&#xb1;" d="M844 1284v-391h505v-162h-505v-391h-144v391h-505v162h505v391h144zM195 160h1154v-160h-1154v160z" />
<glyph unicode="&#xb2;" horiz-adv-x="738" d="M188 1296h-63l28 158q65 32 131 49t128 17q124 0 189.5 -66t47.5 -170q-22 -122 -227 -296l-20 -17l-251 -215h346l19 108h67l-35 -196h-542l14 75l301 254q90 77 134 138t56 127q15 85 -20 134.5t-111 49.5q-70 0 -119 -38t-73 -112z" />
<glyph unicode="&#xb3;" horiz-adv-x="738" d="M179 1468q70 26 133 39t116 13q124 0 181.5 -54t40.5 -153q-13 -72 -69.5 -122t-144.5 -67q104 -16 148 -75.5t27 -159.5q-20 -114 -109.5 -175t-236.5 -61q-65 0 -125 14t-116 42l30 170l63 -1q-9 -74 28.5 -112.5t120.5 -38.5q84 0 137.5 44t68.5 126 q16 93 -21.5 140.5t-128.5 47.5h-48l13 74h24q88 0 139 37t64 111q11 67 -19 103t-98 36q-74 0 -119 -32t-62 -97h-63z" />
<glyph unicode="&#xb4;" horiz-adv-x="921" d="M772 1638h179l-372 -376h-106z" />
<glyph unicode="&#xb5;" horiz-adv-x="1197" d="M939 1063h166l-168 -959h157l-18 -104h-323l33 188q-65 -106 -141 -161.5t-157 -55.5q-51 0 -90 18t-68 54l-82 -469h-166l242 1382h-149l18 107h315l-108 -619q-18 -102 -18 -170q0 -62 15 -96q30 -72 139 -72q115 0 192 94t108 273z" />
<glyph unicode="&#xb6;" horiz-adv-x="1172" d="M718 1493h484l-19 -107h-106l-277 -1583h-96l277 1583h-208l-277 -1583h-97l148 846q-190 17 -276.5 127.5t-54.5 294.5q33 190 170.5 306t331.5 116z" />
<glyph unicode="&#xb7;" horiz-adv-x="585" d="M171 711q10 56 51.5 94.5t92.5 38.5q49 0 77.5 -39t18.5 -94q-9 -56 -51 -94.5t-92 -38.5q-51 0 -79 38t-18 95z" />
<glyph unicode="&#xb8;" horiz-adv-x="921" d="M555 0q46 -64 64.5 -120t10.5 -105q-14 -81 -78.5 -125.5t-165.5 -44.5q-38 0 -76.5 6t-77.5 18l22 131q34 -17 68.5 -25.5t65.5 -8.5q51 0 85.5 26.5t42.5 71.5q5 28 -7 72t-42 104h88z" />
<glyph unicode="&#xb9;" horiz-adv-x="738" d="M85 668l15 84h155l111 634l-200 -106l17 94l238 129h92l-131 -751h155l-14 -84h-438z" />
<glyph unicode="&#xba;" horiz-adv-x="866" d="M395 813q96 0 158 79.5t89 235.5t-7.5 236t-128.5 80t-157 -81t-90 -235q-27 -155 7.5 -235t128.5 -80zM382 737q-157 0 -234 107.5t-46 283.5q31 177 145.5 284.5t272 107.5t234 -107.5t45.5 -284.5t-145 -284t-272 -107zM55 639h620l-19 -104h-619z" />
<glyph unicode="&#xbb;" horiz-adv-x="1127" d="M645 1059l349 -418l-15 -82l-495 -418l20 115l328 344l-208 344zM254 1059l349 -418l-14 -82l-496 -418l21 115l326 344l-206 344z" />
<glyph unicode="&#xbc;" horiz-adv-x="1786" d="M85 0zM1316 303l71 407l-348 -407h277zM1522 0h-391l15 84h132l24 137h-359l15 84l453 530h127l-93 -532h147l-14 -82h-148l-24 -137h131zM85 668l15 84h155l111 634l-200 -106l17 94l238 129h92l-131 -751h155l-14 -84h-438zM1385 1520h135l-1119 -1549h-135z" />
<glyph unicode="&#xbd;" horiz-adv-x="1786" d="M85 0zM85 668l15 84h155l111 634l-200 -106l17 94l238 129h92l-131 -751h155l-14 -84h-438zM1385 1520h135l-1119 -1549h-135zM1118 628h-63l28 158q65 32 131 49t128 17q124 0 189.5 -66t47.5 -170q-22 -122 -227 -296l-20 -17l-251 -215h346l19 108h67l-35 -196h-542 l14 75l301 254q90 77 134 138t56 127q15 85 -20 134.5t-111 49.5q-70 0 -119 -38t-73 -112z" />
<glyph unicode="&#xbe;" horiz-adv-x="1786" d="M24 0zM1316 303l71 407l-348 -407h277zM1522 0h-391l15 84h132l24 137h-359l15 84l453 530h127l-93 -532h147l-14 -82h-148l-24 -137h131zM179 1468q70 26 133 39t116 13q124 0 181.5 -54t40.5 -153q-13 -72 -69.5 -122t-144.5 -67q104 -16 148 -75.5t27 -159.5 q-20 -114 -109.5 -175t-236.5 -61q-65 0 -125 14t-116 42l30 170l63 -1q-9 -74 28.5 -112.5t120.5 -38.5q84 0 137.5 44t68.5 126q16 93 -21.5 140.5t-128.5 47.5h-48l13 74h24q88 0 139 37t64 111q11 67 -19 103t-98 36q-74 0 -119 -32t-62 -97h-63zM1385 1520h135 l-1119 -1549h-135z" />
<glyph unicode="&#xbf;" horiz-adv-x="988" d="M812.5 1389q-9.5 -56 -51 -95t-92.5 -39q-49 0 -77.5 39t-18.5 95q10 55 51.5 94t91.5 39q51 0 78.5 -38.5t18 -94.5zM780 66q-104 -47 -193.5 -70t-165.5 -23q-199 0 -296.5 107t-65.5 289q32 186 153 304t330 169l45 254h110l-57 -328q-167 -43 -265.5 -144 t-126.5 -257q-24 -137 28.5 -216t166.5 -79q101 0 178.5 65.5t117.5 188.5h86z" />
<glyph unicode="&#xc0;" horiz-adv-x="1331" d="M0 0zM333 541h493l-122 710zM-141 0l18 106h118l721 1387h152l237 -1387h132l-18 -106h-489l18 106h150l-55 328h-566l-169 -328h147l-18 -106h-378zM779 1899l117 -264h-105l-189 264h177z" />
<glyph unicode="&#xc1;" horiz-adv-x="1331" d="M0 0zM333 541h493l-122 710zM-141 0l18 106h118l721 1387h152l237 -1387h132l-18 -106h-489l18 106h150l-55 328h-566l-169 -328h147l-18 -106h-378zM945 1899h178l-283 -264h-105z" />
<glyph unicode="&#xc2;" horiz-adv-x="1331" d="M0 0zM333 541h493l-122 710zM-141 0l18 106h118l721 1387h152l237 -1387h132l-18 -106h-489l18 106h150l-55 328h-566l-169 -328h147l-18 -106h-378zM766 1899h159l161 -264h-104l-154 161l-212 -161h-104z" />
<glyph unicode="&#xc3;" horiz-adv-x="1331" d="M0 0zM333 541h493l-122 710zM-141 0l18 106h118l721 1387h152l237 -1387h132l-18 -106h-489l18 106h150l-55 328h-566l-169 -328h147l-18 -106h-378zM821 1715l-38 28q-16 13 -33 20t-32 7q-35 0 -64 -29q-28 -28 -39 -74l-87 1q19 100 76 159q55 59 132 59q32 0 59 -9 q26 -9 71 -40l39 -26q18 -13 37 -20q18 -7 33 -7q37 0 63 27q27 28 35 75h87q-20 -105 -77 -162q-55 -57 -140 -57q-60 0 -118 45z" />
<glyph unicode="&#xc4;" horiz-adv-x="1331" d="M0 0zM333 541h493l-122 710zM-141 0l18 106h118l721 1387h152l237 -1387h132l-18 -106h-489l18 106h150l-55 328h-566l-169 -328h147l-18 -106h-378zM675 1884q43 0 68 -35t17 -81q-9 -50 -45 -83q-36 -34 -81 -34t-69 34q-24 33 -15 83q8 46 45 81q38 35 80 35z M1026 1884q42 0 67 -35t17 -81q-9 -50 -45 -83q-36 -34 -80 -34q-45 0 -70 34q-24 33 -15 83q8 46 45 81q38 35 81 35z" />
<glyph unicode="&#xc5;" horiz-adv-x="1331" d="M916 1626q11 63 -21 107.5t-89 44.5t-104 -43.5t-58 -108.5q-11 -63 20.5 -107t88.5 -44t104.5 44t58.5 107zM297 541h492l-121 710zM-177 0l18 106h118l664 1278q-58 37 -81 98t-9 144q20 114 106 194.5t188.5 80.5t161 -80.5t38.5 -194.5q-14 -80 -60 -143.5 t-117 -98.5l219 -1278h132l-18 -106h-489l19 106h149l-55 328h-565l-170 -328h147l-18 -106h-378z" />
<glyph unicode="&#xc6;" horiz-adv-x="1845" d="M347 541h441l147 845h-90zM522 0l18 106h171l58 328h-484l-195 -328h148l-18 -106h-382l18 106h118l755 1280h-193l18 107h1311l-58 -332h-111l37 209h-620l-87 -500h443l33 187h110l-87 -496h-110l32 187h-442l-110 -625h635l36 209h111l-58 -332h-1097z" />
<glyph unicode="&#xc7;" horiz-adv-x="1410" d="M96 0zM1238 395q-96 -209 -254.5 -316.5t-372.5 -107.5q-132 0 -235.5 50t-174.5 147q-81 112 -105 254.5t7 322.5q61 348 279.5 561.5t514.5 213.5q110 0 228.5 -32t250.5 -97l-61 -344h-101q-1 188 -85.5 277t-265.5 89q-215 0 -355.5 -169.5t-197.5 -498.5 q-58 -328 23 -497.5t296 -169.5q151 0 262 79.5t182 237.5h165zM665 0q46 -64 64.5 -120t10.5 -105q-14 -81 -78.5 -125.5t-165.5 -44.5q-38 0 -76.5 6t-77.5 18l22 131q34 -17 68.5 -25.5t65.5 -8.5q51 0 85.5 26.5t42.5 71.5q5 28 -7 72t-42 104h88z" />
<glyph unicode="&#xc8;" horiz-adv-x="1345" d="M0 0zM-29 0l19 106h171l224 1280h-171l18 107h1082l-58 -332h-111l37 209h-618l-87 -500h440l33 187h111l-87 -496h-111l33 187h-440l-110 -625h632l37 209h110l-58 -332h-1096zM852 1899l117 -264h-105l-189 264h177z" />
<glyph unicode="&#xc9;" horiz-adv-x="1345" d="M0 0zM-29 0l19 106h171l224 1280h-171l18 107h1082l-58 -332h-111l37 209h-618l-87 -500h440l33 187h111l-87 -496h-111l33 187h-440l-110 -625h632l37 209h110l-58 -332h-1096zM953 1899h178l-283 -264h-105z" />
<glyph unicode="&#xca;" horiz-adv-x="1345" d="M0 0zM-29 0l19 106h171l224 1280h-171l18 107h1082l-58 -332h-111l37 209h-618l-87 -500h440l33 187h111l-87 -496h-111l33 187h-440l-110 -625h632l37 209h110l-58 -332h-1096zM817 1899h159l161 -264h-104l-154 161l-212 -161h-104z" />
<glyph unicode="&#xcb;" horiz-adv-x="1345" d="M0 0zM-29 0l19 106h171l224 1280h-171l18 107h1082l-58 -332h-111l37 209h-618l-87 -500h440l33 187h111l-87 -496h-111l33 187h-440l-110 -625h632l37 209h110l-58 -332h-1096zM731 1884q43 0 68 -35t17 -81q-9 -50 -45 -83q-36 -34 -81 -34t-69 34q-24 33 -15 83 q8 46 45 81q38 35 80 35zM1082 1884q42 0 67 -35t17 -81q-9 -50 -45 -83q-36 -34 -80 -34q-45 0 -70 34q-24 33 -15 83q8 46 45 81q38 35 81 35z" />
<glyph unicode="&#xcc;" horiz-adv-x="728" d="M0 0zM343 106h171l-18 -106h-525l19 106h171l224 1280h-171l18 107h525l-19 -107h-171zM512 1899l117 -264h-105l-189 264h177z" />
<glyph unicode="&#xcd;" horiz-adv-x="728" d="M0 0zM343 106h171l-18 -106h-525l19 106h171l224 1280h-171l18 107h525l-19 -107h-171zM645 1899h178l-283 -264h-105z" />
<glyph unicode="&#xce;" horiz-adv-x="728" d="M0 0zM343 106h171l-18 -106h-525l19 106h171l224 1280h-171l18 107h525l-19 -107h-171zM509 1899h159l161 -264h-104l-154 161l-212 -161h-104z" />
<glyph unicode="&#xcf;" horiz-adv-x="728" d="M0 0zM343 106h171l-18 -106h-525l19 106h171l224 1280h-171l18 107h525l-19 -107h-171zM391 1884q43 0 68 -35t17 -81q-9 -50 -45 -83q-36 -34 -81 -34t-69 34q-24 33 -15 83q8 46 45 81q38 35 80 35zM742 1884q42 0 67 -35t17 -81q-9 -50 -45 -83q-36 -34 -80 -34 q-45 0 -70 34q-24 33 -15 83q8 46 45 81q38 35 81 35z" />
<glyph unicode="&#xd0;" horiz-adv-x="1487" d="M351 106h169q262 0 431.5 166t223.5 476t-57.5 474t-373.5 164h-170l-94 -542h302l-22 -125h-302zM-20 0l19 106h171l107 613h-180l22 125h180l95 542h-171l18 107h535q347 0 506.5 -197t98.5 -548q-62 -352 -291 -550t-575 -198h-535z" />
<glyph unicode="&#xd1;" horiz-adv-x="1612" d="M0 0zM-38 0l18 106h181l224 1280h-181l19 107h345l599 -1178l188 1071h-180l18 107h472l-19 -107h-181l-247 -1415h-109l-640 1258l-197 -1123h181l-19 -106h-472zM995 1715l-38 28q-16 13 -33 20t-32 7q-35 0 -64 -29q-28 -28 -39 -74l-87 1q19 100 76 159q55 59 132 59 q32 0 59 -9q26 -9 71 -40l39 -26q18 -13 37 -20q18 -7 33 -7q37 0 63 27q27 28 35 75h87q-20 -105 -77 -162q-55 -57 -140 -57q-60 0 -118 45z" />
<glyph unicode="&#xd2;" horiz-adv-x="1511" d="M96 0zM639 78q221 0 363 168.5t199 498.5q58 331 -25 499.5t-303 168.5q-222 0 -364 -168.5t-199 -499.5q-58 -330 25 -498.5t304 -168.5zM621 -29q-137 0 -243 50t-177 147q-81 112 -105 254t7.5 323t105.5 323.5t194 254.5q106 98 228 147.5t260 49.5q293 0 435.5 -213 t81.5 -562q-31 -179 -105.5 -322.5t-194.5 -254.5q-106 -98 -228 -147.5t-259 -49.5zM935 1899l117 -264h-105l-189 264h177z" />
<glyph unicode="&#xd3;" horiz-adv-x="1511" d="M96 0zM639 78q221 0 363 168.5t199 498.5q58 331 -25 499.5t-303 168.5q-222 0 -364 -168.5t-199 -499.5q-58 -330 25 -498.5t304 -168.5zM621 -29q-137 0 -243 50t-177 147q-81 112 -105 254t7.5 323t105.5 323.5t194 254.5q106 98 228 147.5t260 49.5q293 0 435.5 -213 t81.5 -562q-31 -179 -105.5 -322.5t-194.5 -254.5q-106 -98 -228 -147.5t-259 -49.5zM1036 1899h178l-283 -264h-105z" />
<glyph unicode="&#xd4;" horiz-adv-x="1511" d="M96 0zM639 78q221 0 363 168.5t199 498.5q58 331 -25 499.5t-303 168.5q-222 0 -364 -168.5t-199 -499.5q-58 -330 25 -498.5t304 -168.5zM621 -29q-137 0 -243 50t-177 147q-81 112 -105 254t7.5 323t105.5 323.5t194 254.5q106 98 228 147.5t260 49.5q293 0 435.5 -213 t81.5 -562q-31 -179 -105.5 -322.5t-194.5 -254.5q-106 -98 -228 -147.5t-259 -49.5zM900 1899h159l161 -264h-104l-154 161l-212 -161h-104z" />
<glyph unicode="&#xd5;" horiz-adv-x="1511" d="M96 0zM639 78q221 0 363 168.5t199 498.5q58 331 -25 499.5t-303 168.5q-222 0 -364 -168.5t-199 -499.5q-58 -330 25 -498.5t304 -168.5zM621 -29q-137 0 -243 50t-177 147q-81 112 -105 254t7.5 323t105.5 323.5t194 254.5q106 98 228 147.5t260 49.5q293 0 435.5 -213 t81.5 -562q-31 -179 -105.5 -322.5t-194.5 -254.5q-106 -98 -228 -147.5t-259 -49.5zM944 1715l-38 28q-16 13 -33 20t-32 7q-35 0 -64 -29q-28 -28 -39 -74l-87 1q19 100 76 159q55 59 132 59q32 0 59 -9q26 -9 71 -40l39 -26q18 -13 37 -20q18 -7 33 -7q37 0 63 27 q27 28 35 75h87q-20 -105 -77 -162q-55 -57 -140 -57q-60 0 -118 45z" />
<glyph unicode="&#xd6;" horiz-adv-x="1511" d="M96 0zM639 78q221 0 363 168.5t199 498.5q58 331 -25 499.5t-303 168.5q-222 0 -364 -168.5t-199 -499.5q-58 -330 25 -498.5t304 -168.5zM621 -29q-137 0 -243 50t-177 147q-81 112 -105 254t7.5 323t105.5 323.5t194 254.5q106 98 228 147.5t260 49.5q293 0 435.5 -213 t81.5 -562q-31 -179 -105.5 -322.5t-194.5 -254.5q-106 -98 -228 -147.5t-259 -49.5zM814 1884q43 0 68 -35t17 -81q-9 -50 -45 -83q-36 -34 -81 -34t-69 34q-24 33 -15 83q8 46 45 81q38 35 80 35zM1165 1884q42 0 67 -35t17 -81q-9 -50 -45 -83q-36 -34 -80 -34 q-45 0 -70 34q-24 33 -15 83q8 46 45 81q38 35 81 35z" />
<glyph unicode="&#xd7;" d="M1291 1104l-417 -463l417 -461l-104 -112l-415 460l-415 -460l-102 112l414 461l-414 463l102 113l415 -461l415 461z" />
<glyph unicode="&#xd8;" horiz-adv-x="1511" d="M1179 1239q-43 88 -119 131t-187 43q-222 0 -364 -168.5t-200 -499.5q-20 -119 -22.5 -215.5t13.5 -177.5zM331 256q42 -89 119 -133.5t189 -44.5q221 0 363 168.5t199 498.5q21 117 23 215.5t-14 180.5zM1345 1276q59 -108 75 -239.5t-12 -291.5q-60 -345 -278 -559.5 t-510 -214.5q-127 0 -226.5 43t-175.5 129l-198 -200l-58 69l204 207q-60 105 -75.5 235.5t12.5 290.5q61 346 279.5 560.5t508.5 214.5q127 0 227.5 -42.5t172.5 -125.5l195 198l60 -71z" />
<glyph unicode="&#xd9;" horiz-adv-x="1553" d="M201 0zM373 1386h-172l19 107h525l-19 -107h-171l-136 -772q-50 -286 14.5 -399t270.5 -113t310 113t154 399l135 772h-172l19 107h454l-19 -107h-171l-139 -792q-59 -341 -201.5 -482t-425.5 -141t-378 142t-36 481zM992 1899l117 -264h-105l-189 264h177z" />
<glyph unicode="&#xda;" horiz-adv-x="1553" d="M201 0zM373 1386h-172l19 107h525l-19 -107h-171l-136 -772q-50 -286 14.5 -399t270.5 -113t310 113t154 399l135 772h-172l19 107h454l-19 -107h-171l-139 -792q-59 -341 -201.5 -482t-425.5 -141t-378 142t-36 481zM1093 1899h178l-283 -264h-105z" />
<glyph unicode="&#xdb;" horiz-adv-x="1553" d="M201 0zM373 1386h-172l19 107h525l-19 -107h-171l-136 -772q-50 -286 14.5 -399t270.5 -113t310 113t154 399l135 772h-172l19 107h454l-19 -107h-171l-139 -792q-59 -341 -201.5 -482t-425.5 -141t-378 142t-36 481zM957 1899h159l161 -264h-104l-154 161l-212 -161 h-104z" />
<glyph unicode="&#xdc;" horiz-adv-x="1553" d="M201 0zM373 1386h-172l19 107h525l-19 -107h-171l-136 -772q-50 -286 14.5 -399t270.5 -113t310 113t154 399l135 772h-172l19 107h454l-19 -107h-171l-139 -792q-59 -341 -201.5 -482t-425.5 -141t-378 142t-36 481zM871 1884q43 0 68 -35t17 -81q-9 -50 -45 -83 q-36 -34 -81 -34t-69 34q-24 33 -15 83q8 46 45 81q38 35 80 35zM1222 1884q42 0 67 -35t17 -81q-9 -50 -45 -83q-36 -34 -80 -34q-45 0 -70 34q-24 33 -15 83q8 46 45 81q38 35 81 35z" />
<glyph unicode="&#xdd;" horiz-adv-x="1216" d="M91 0zM218 0l18 106h172l94 537l-285 743h-126l19 107h499l-18 -107h-157l230 -604l441 604h-151l19 107h391l-19 -107h-127l-531 -724l-97 -556h172l-19 -106h-525zM888 1899h178l-283 -264h-105z" />
<glyph unicode="&#xde;" horiz-adv-x="1245" d="M401 434h237q134 0 218.5 80.5t111.5 233.5q26 152 -30 232.5t-190 80.5h-238zM-29 0l19 106h171l224 1280h-171l18 107h562l-19 -107h-208l-38 -219h282q201 0 299 -113.5t65 -305.5q-34 -194 -172.5 -308t-338.5 -114h-282l-39 -220h208l-18 -106h-562z" />
<glyph unicode="&#xdf;" horiz-adv-x="1231" d="M924 1210q14 119 -37.5 183.5t-158.5 64.5q-119 0 -185 -64.5t-90 -203.5l-220 -1256q-31 -178 -130 -269t-261 -91l11 98q95 0 141 56q47 60 74 206l218 1252q31 176 151 273t308 97q192 0 274.5 -104t56.5 -315h-20q-131 0 -215.5 -54t-100.5 -147q-10 -52 7.5 -90.5 t75.5 -85.5l71 -55q121 -99 160 -184t19 -199q-27 -155 -148 -253t-288 -98q-76 0 -148.5 18.5t-137.5 53.5l41 233h98q-14 -101 26.5 -153.5t132.5 -52.5q100 0 168 60.5t86 164.5q14 84 -11 143q-26 57 -119 131l-67 54q-83 66 -112 129q-29 65 -14 147q21 122 111.5 204 t232.5 107z" />
<glyph unicode="&#xe0;" horiz-adv-x="1098" d="M62 0zM670 166q-121 -195 -313 -195q-159 0 -239 119q-56 84 -56 204q0 51 10 108q62 353 282 535q189 155 416 155q153 0 206 -29l-168 -957h143l-19 -106h-291zM237 300q0 -214 186 -214q113 0 190.5 100.5t110.5 292.5l85 482v0q0 29 -73 29q-172 0 -307 -150 q-133 -151 -181 -425q-11 -64 -11 -115zM559 1636l167 -376h-105l-240 376h178z" />
<glyph unicode="&#xe1;" horiz-adv-x="1098" d="M62 0zM670 166q-121 -195 -313 -195q-159 0 -239 119q-56 84 -56 204q0 51 10 108q62 353 282 535q189 155 416 155q153 0 206 -29l-168 -957h143l-19 -106h-291zM237 300q0 -214 186 -214q113 0 190.5 100.5t110.5 292.5l85 482v0q0 29 -73 29q-172 0 -307 -150 q-133 -151 -181 -425q-11 -64 -11 -115zM823 1638h179l-372 -376h-106z" />
<glyph unicode="&#xe2;" horiz-adv-x="1098" d="M62 0zM670 166q-121 -195 -313 -195q-159 0 -239 119q-56 84 -56 204q0 51 10 108q62 353 282 535q189 155 416 155q153 0 206 -29l-168 -957h143l-19 -106h-291zM237 300q0 -214 186 -214q113 0 190.5 100.5t110.5 292.5l85 482v0q0 29 -73 29q-172 0 -307 -150 q-133 -151 -181 -425q-11 -64 -11 -115zM642 1638h151l145 -376h-104l-137 260l-228 -260h-105z" />
<glyph unicode="&#xe3;" horiz-adv-x="1098" d="M62 0zM670 166q-121 -195 -313 -195q-159 0 -239 119q-56 84 -56 204q0 51 10 108q62 353 282 535q189 155 416 155q153 0 206 -29l-168 -957h143l-19 -106h-291zM237 300q0 -214 186 -214q113 0 190.5 100.5t110.5 292.5l85 482v0q0 29 -73 29q-172 0 -307 -150 q-133 -151 -181 -425q-11 -64 -11 -115zM684 1370l-42 55q-19 24 -32 31q-14 8 -31 8q-38 0 -66 -40q-29 -39 -46 -115h-87q26 135 84 209q59 73 141 73q34 0 61 -14q26 -14 54 -47l41 -55q16 -23 31 -31q13 -8 32 -8q39 0 67.5 40t45.5 115h86q-25 -135 -84 -209 q-58 -73 -140 -73q-34 0 -61 14q-26 14 -54 47z" />
<glyph unicode="&#xe4;" horiz-adv-x="1098" d="M62 0zM670 166q-121 -195 -313 -195q-159 0 -239 119q-56 84 -56 204q0 51 10 108q62 353 282 535q189 155 416 155q153 0 206 -29l-168 -957h143l-19 -106h-291zM237 300q0 -214 186 -214q113 0 190.5 100.5t110.5 292.5l85 482v0q0 29 -73 29q-172 0 -307 -150 q-133 -151 -181 -425q-11 -64 -11 -115zM532 1569q43 0 68 -35q24 -34 16 -82q-9 -51 -44 -84q-36 -33 -82 -33q-45 0 -68 33q-25 33 -15 84q8 48 45 82q37 35 80 35zM883 1569q42 0 67 -35q24 -34 16 -82q-9 -51 -44 -84q-36 -33 -81 -33q-46 0 -69 33q-24 33 -15 84 q8 48 46 82q36 35 80 35z" />
<glyph unicode="&#xe5;" horiz-adv-x="1098" d="M62 0zM670 166q-121 -195 -313 -195q-159 0 -239 119q-56 84 -56 204q0 51 10 108q62 353 282 535q189 155 416 155q153 0 206 -29l-168 -957h143l-19 -106h-291zM237 300q0 -214 186 -214q113 0 190.5 100.5t110.5 292.5l85 482v0q0 29 -73 29q-172 0 -307 -150 q-133 -151 -181 -425q-11 -64 -11 -115zM929.5 1524q-19.5 -115 -105 -195t-189 -80t-161.5 80t-38 195t105 194q86 80 189.5 80t161.5 -80q57 -79 37.5 -194zM820 1524q10 63 -21 107q-32 44 -90 44q-59 0 -105 -43q-46 -44 -58 -108q-12 -65 21 -108q31 -44 90 -44 q57 0 104 44q48 44 59 108z" />
<glyph unicode="&#xe6;" horiz-adv-x="1732" d="M1373 632q101 66 101 190q0 171 -204 171q-121 0 -204.5 -102t-134.5 -377q285 14 442 118zM1076 -29q-215 0 -310 196q-130 -196 -397 -196h-13q-158 0 -238 119q-56 84 -56 204q0 51 10 108q61 353 283 535q188 155 415 155q153 0 206 -29l-18 -97q144 126 340 126 q352 0 352 -277q0 -399 -738 -407q-4 -38 -4 -72q0 -94 31 -156q53 -110 195 -110q104 0 156 35q92 63 113 144h122q-36 -127 -171 -216q-93 -62 -278 -62zM248 415q-11 -65 -11 -118q0 -211 186 -211q113 0 190 100.5t111 292.5l84 482q0 29 -72 29q-173 0 -307 -150 q-133 -151 -181 -425z" />
<glyph unicode="&#xe7;" horiz-adv-x="1032" d="M78 0zM911 319q-65 -170 -180.5 -259t-274.5 -89q-208 0 -308 153q-70 107 -70 261q0 69 14 147q44 255 198 407.5t362 152.5q91 0 177 -23.5t169 -71.5l-48 -272h-96v26q0 120 -47 178q-52 64 -170 64q-134 0 -222.5 -115.5t-129.5 -345.5q-18 -105 -18 -187 q0 -96 26 -159q47 -116 182 -116q108 0 182.5 62t119.5 187h134zM501 0q46 -64 64.5 -120t10.5 -105q-14 -81 -78.5 -125.5t-165.5 -44.5q-38 0 -76.5 6t-77.5 18l22 131q34 -17 68.5 -25.5t65.5 -8.5q51 0 85.5 26.5t42.5 71.5q5 28 -7 72t-42 104h88z" />
<glyph unicode="&#xe8;" horiz-adv-x="1090" d="M78 0zM270 408q-4 -38 -4 -72q0 -94 31 -156q53 -110 195 -110q105 0 156 35q92 63 113 144h122q-36 -127 -170 -216q-94 -62 -279.5 -62t-285.5 153q-70 107 -70 262q0 68 14 145q44 253 196 407t368 154q352 0 352 -277q0 -203 -184 -302q-189 -101 -554 -105zM732 632 q100 66 100 190q0 171 -204 171q-120 0 -204 -102t-135 -377q289 15 443 118zM593 1636l167 -376h-105l-240 376h178z" />
<glyph unicode="&#xe9;" horiz-adv-x="1090" d="M78 0zM270 408q-4 -38 -4 -72q0 -94 31 -156q53 -110 195 -110q105 0 156 35q92 63 113 144h122q-36 -127 -170 -216q-94 -62 -279.5 -62t-285.5 153q-70 107 -70 262q0 68 14 145q44 253 196 407t368 154q352 0 352 -277q0 -203 -184 -302q-189 -101 -554 -105zM732 632 q100 66 100 190q0 171 -204 171q-120 0 -204 -102t-135 -377q289 15 443 118zM857 1638h179l-372 -376h-106z" />
<glyph unicode="&#xea;" horiz-adv-x="1090" d="M78 0zM270 408q-4 -38 -4 -72q0 -94 31 -156q53 -110 195 -110q105 0 156 35q92 63 113 144h122q-36 -127 -170 -216q-94 -62 -279.5 -62t-285.5 153q-70 107 -70 262q0 68 14 145q44 253 196 407t368 154q352 0 352 -277q0 -203 -184 -302q-189 -101 -554 -105zM732 632 q100 66 100 190q0 171 -204 171q-120 0 -204 -102t-135 -377q289 15 443 118zM676 1638h151l145 -376h-104l-137 260l-228 -260h-105z" />
<glyph unicode="&#xeb;" horiz-adv-x="1090" d="M78 0zM270 408q-4 -38 -4 -72q0 -94 31 -156q53 -110 195 -110q105 0 156 35q92 63 113 144h122q-36 -127 -170 -216q-94 -62 -279.5 -62t-285.5 153q-70 107 -70 262q0 68 14 145q44 253 196 407t368 154q352 0 352 -277q0 -203 -184 -302q-189 -101 -554 -105zM732 632 q100 66 100 190q0 171 -204 171q-120 0 -204 -102t-135 -377q289 15 443 118zM566 1569q43 0 68 -35q24 -34 16 -82q-9 -51 -44 -84q-36 -33 -82 -33q-45 0 -68 33q-25 33 -15 84q8 48 45 82q37 35 80 35zM917 1569q42 0 67 -35q24 -34 16 -82q-9 -51 -44 -84 q-36 -33 -81 -33q-46 0 -69 33q-24 33 -15 84q8 48 46 82q36 35 80 35z" />
<glyph unicode="&#xec;" horiz-adv-x="589" d="M132 0zM316 106h156l-18 -106h-322l168 956h-159l18 107h324zM342 1636l167 -376h-105l-240 376h178z" />
<glyph unicode="&#xed;" horiz-adv-x="589" d="M132 0zM316 106h156l-18 -106h-322l168 956h-159l18 107h324zM606 1638h179l-372 -376h-106z" />
<glyph unicode="&#xee;" horiz-adv-x="589" d="M132 0zM316 106h156l-18 -106h-322l168 956h-159l18 107h324zM425 1638h151l145 -376h-104l-137 260l-228 -260h-105z" />
<glyph unicode="&#xef;" horiz-adv-x="589" d="M132 0zM316 106h156l-18 -106h-322l168 956h-159l18 107h324zM315 1569q43 0 68 -35q24 -34 16 -82q-9 -51 -44 -84q-36 -33 -82 -33q-45 0 -68 33q-25 33 -15 84q8 48 45 82q37 35 80 35zM666 1569q42 0 67 -35q24 -34 16 -82q-9 -51 -44 -84q-36 -33 -81 -33 q-46 0 -69 33q-24 33 -15 84q8 48 46 82q36 35 80 35z" />
<glyph unicode="&#xf0;" horiz-adv-x="1109" d="M768 928q-39 9 -75 13.5t-72 4.5q-155 0 -248 -107t-132 -331q-37 -210 13.5 -324t178.5 -114q130 0 219.5 114.5t127.5 327.5q19 112 16.5 217.5t-28.5 198.5zM779 1307q136 -167 185.5 -362.5t11.5 -412.5q-44 -254 -197.5 -407.5t-362.5 -153.5q-206 0 -308 151.5 t-59 395.5q41 236 193.5 381t357.5 145q31 0 64.5 -3t78.5 -11q-10 53 -33.5 106.5t-59.5 108.5l-316 -149l-19 78l287 135q-45 58 -108.5 98.5t-144.5 62.5l31 86q102 -26 188 -73t157 -115l316 150l20 -78z" />
<glyph unicode="&#xf1;" horiz-adv-x="1187" d="M129 0zM129 0l168 956h-159l19 107h324l-33 -189q65 108 148 163t180 55q158 0 215 -101q35 -61 35 -163q0 -67 -15 -152l-100 -570h148l-19 -106h-314l108 618q18 103 18 172q0 61 -14 96q-31 72 -140 72q-115 0 -191.5 -93.5t-107.5 -272.5l-104 -592h-166zM711 1370 l-42 55q-19 24 -32 31q-14 8 -31 8q-38 0 -66 -40q-29 -39 -46 -115h-87q26 135 84 209q59 73 141 73q34 0 61 -14q26 -14 54 -47l41 -55q16 -23 31 -31q13 -8 32 -8q39 0 67.5 40t45.5 115h86q-25 -135 -84 -209q-58 -73 -140 -73q-34 0 -61 14q-26 14 -54 47z" />
<glyph unicode="&#xf2;" horiz-adv-x="1109" d="M78 0zM474 70q133 0 221.5 117t128.5 345q18 104 18 185q0 96 -26 159q-48 117 -181 117t-221.5 -116.5t-128.5 -344.5q-18 -104 -18 -184q0 -97 26 -161q48 -117 181 -117zM456 -29q-208 0 -308 153q-70 107 -70 261q0 69 14 147q44 254 197.5 407t363 153t309.5 -153 q69 -106 69 -260q0 -69 -14 -147q-44 -254 -197.5 -407.5t-363.5 -153.5zM602 1636l167 -376h-105l-240 376h178z" />
<glyph unicode="&#xf3;" horiz-adv-x="1109" d="M78 0zM474 70q133 0 221.5 117t128.5 345q18 104 18 185q0 96 -26 159q-48 117 -181 117t-221.5 -116.5t-128.5 -344.5q-18 -104 -18 -184q0 -97 26 -161q48 -117 181 -117zM456 -29q-208 0 -308 153q-70 107 -70 261q0 69 14 147q44 254 197.5 407t363 153t309.5 -153 q69 -106 69 -260q0 -69 -14 -147q-44 -254 -197.5 -407.5t-363.5 -153.5zM866 1638h179l-372 -376h-106z" />
<glyph unicode="&#xf4;" horiz-adv-x="1109" d="M78 0zM474 70q133 0 221.5 117t128.5 345q18 104 18 185q0 96 -26 159q-48 117 -181 117t-221.5 -116.5t-128.5 -344.5q-18 -104 -18 -184q0 -97 26 -161q48 -117 181 -117zM456 -29q-208 0 -308 153q-70 107 -70 261q0 69 14 147q44 254 197.5 407t363 153t309.5 -153 q69 -106 69 -260q0 -69 -14 -147q-44 -254 -197.5 -407.5t-363.5 -153.5zM685 1638h151l145 -376h-104l-137 260l-228 -260h-105z" />
<glyph unicode="&#xf5;" horiz-adv-x="1109" d="M78 0zM474 70q133 0 221.5 117t128.5 345q18 104 18 185q0 96 -26 159q-48 117 -181 117t-221.5 -116.5t-128.5 -344.5q-18 -104 -18 -184q0 -97 26 -161q48 -117 181 -117zM456 -29q-208 0 -308 153q-70 107 -70 261q0 69 14 147q44 254 197.5 407t363 153t309.5 -153 q69 -106 69 -260q0 -69 -14 -147q-44 -254 -197.5 -407.5t-363.5 -153.5zM727 1370l-42 55q-19 24 -32 31q-14 8 -31 8q-38 0 -66 -40q-29 -39 -46 -115h-87q26 135 84 209q59 73 141 73q34 0 61 -14q26 -14 54 -47l41 -55q16 -23 31 -31q13 -8 32 -8q39 0 67.5 40t45.5 115 h86q-25 -135 -84 -209q-58 -73 -140 -73q-34 0 -61 14q-26 14 -54 47z" />
<glyph unicode="&#xf6;" horiz-adv-x="1109" d="M78 0zM474 70q133 0 221.5 117t128.5 345q18 104 18 185q0 96 -26 159q-48 117 -181 117t-221.5 -116.5t-128.5 -344.5q-18 -104 -18 -184q0 -97 26 -161q48 -117 181 -117zM456 -29q-208 0 -308 153q-70 107 -70 261q0 69 14 147q44 254 197.5 407t363 153t309.5 -153 q69 -106 69 -260q0 -69 -14 -147q-44 -254 -197.5 -407.5t-363.5 -153.5zM575 1569q43 0 68 -35q24 -34 16 -82q-9 -51 -44 -84q-36 -33 -82 -33q-45 0 -68 33q-25 33 -15 84q8 48 45 82q37 35 80 35zM926 1569q42 0 67 -35q24 -34 16 -82q-9 -51 -44 -84q-36 -33 -81 -33 q-46 0 -69 33q-24 33 -15 84q8 48 46 82q36 35 80 35z" />
<glyph unicode="&#xf7;" d="M652 1012q0 56 35 94.5t85 38.5t85 -39t35 -94q0 -56 -35 -94.5t-85 -38.5q-51 0 -85.5 38t-34.5 95zM652 272q0 56 35 95t85 39t85 -39t35 -95q0 -55 -35 -94t-85 -39q-51 0 -85.5 38.5t-34.5 94.5zM195 723h1154v-162h-1154v162z" />
<glyph unicode="&#xf8;" horiz-adv-x="1109" d="M817 879q-24 57 -69.5 85.5t-112.5 28.5q-132 0 -221 -117t-129 -344q-12 -72 -15.5 -131t0.5 -108zM292 190q25 -61 70 -90.5t112 -29.5q132 0 221 117.5t129 344.5q13 76 17 136.5t-1 111.5zM972 922q43 -74 54.5 -173t-9.5 -217q-44 -254 -197.5 -407.5t-363.5 -153.5 q-84 0 -151.5 26.5t-118.5 80.5l-159 -172l-57 63l165 178q-41 77 -52 173.5t9 211.5q44 254 197.5 407t362.5 153q85 0 152.5 -25.5t116.5 -75.5l154 166l58 -63z" />
<glyph unicode="&#xf9;" horiz-adv-x="1187" d="M126 0zM892 1063h166l-168 -957h157l-19 -106h-322l33 188q-65 -106 -147.5 -161.5t-178.5 -55.5q-159 0 -217 101q-35 60 -35 163q0 67 15 152l100 569h-150l19 107h316l-108 -619q-18 -103 -18 -171q0 -61 14 -95q30 -72 140 -72q115 0 191.5 94t108.5 273zM573 1636 l167 -376h-105l-240 376h178z" />
<glyph unicode="&#xfa;" horiz-adv-x="1187" d="M126 0zM892 1063h166l-168 -957h157l-19 -106h-322l33 188q-65 -106 -147.5 -161.5t-178.5 -55.5q-159 0 -217 101q-35 60 -35 163q0 67 15 152l100 569h-150l19 107h316l-108 -619q-18 -103 -18 -171q0 -61 14 -95q30 -72 140 -72q115 0 191.5 94t108.5 273zM837 1638 h179l-372 -376h-106z" />
<glyph unicode="&#xfb;" horiz-adv-x="1187" d="M126 0zM892 1063h166l-168 -957h157l-19 -106h-322l33 188q-65 -106 -147.5 -161.5t-178.5 -55.5q-159 0 -217 101q-35 60 -35 163q0 67 15 152l100 569h-150l19 107h316l-108 -619q-18 -103 -18 -171q0 -61 14 -95q30 -72 140 -72q115 0 191.5 94t108.5 273zM656 1638 h151l145 -376h-104l-137 260l-228 -260h-105z" />
<glyph unicode="&#xfc;" horiz-adv-x="1187" d="M126 0zM892 1063h166l-168 -957h157l-19 -106h-322l33 188q-65 -106 -147.5 -161.5t-178.5 -55.5q-159 0 -217 101q-35 60 -35 163q0 67 15 152l100 569h-150l19 107h316l-108 -619q-18 -103 -18 -171q0 -61 14 -95q30 -72 140 -72q115 0 191.5 94t108.5 273zM546 1569 q43 0 68 -35q24 -34 16 -82q-9 -51 -44 -84q-36 -33 -82 -33q-45 0 -68 33q-25 33 -15 84q8 48 45 82q37 35 80 35zM897 1569q42 0 67 -35q24 -34 16 -82q-9 -51 -44 -84q-36 -33 -81 -33q-46 0 -69 33q-24 33 -15 84q8 48 46 82q36 35 80 35z" />
<glyph unicode="&#xfd;" horiz-adv-x="1041" d="M0 0zM1060 1054q-89 -572 -246 -874q-229 -443 -414 -576q-81 -59 -297 -59q-43 0 -85.5 8t-85.5 23l36 203h84q-2 -16 -2 -31q0 -42 17 -66q22 -34 81 -34q158 0 296 153l-226 1155h-109l19 107h247l213 -1055q145 241 180 340q113 311 136 599h-109l19 107h246z M833 1638h179l-372 -376h-106z" />
<glyph unicode="&#xfe;" horiz-adv-x="1179" d="M381 584l-18 -105q-14 -79 -14 -142q0 -91 29 -151q49 -100 175 -100t211 113t124 333q18 101 18 180q0 92 -25 153q-46 112 -173 112q-126 0 -209.5 -101t-117.5 -292zM367 1450h-159l18 106h325l-115 -659q66 100 149.5 147.5t194.5 47.5q176 0 261 -155 q55 -102 55 -245q0 -75 -15 -160q-43 -250 -182 -405.5t-315 -155.5q-111 0 -178 47.5t-98 147.5l-103 -592h-166z" />
<glyph unicode="&#xff;" horiz-adv-x="1041" d="M0 0zM1060 1054q-89 -572 -246 -874q-229 -443 -414 -576q-81 -59 -297 -59q-43 0 -85.5 8t-85.5 23l36 203h84q-2 -16 -2 -31q0 -42 17 -66q22 -34 81 -34q158 0 296 153l-226 1155h-109l19 107h247l213 -1055q145 241 180 340q113 311 136 599h-109l19 107h246z M542 1569q43 0 68 -35q24 -34 16 -82q-9 -51 -44 -84q-36 -33 -82 -33q-45 0 -68 33q-25 33 -15 84q8 48 45 82q37 35 80 35zM893 1569q42 0 67 -35q24 -34 16 -82q-9 -51 -44 -84q-36 -33 -81 -33q-46 0 -69 33q-24 33 -15 84q8 48 46 82q36 35 80 35z" />
<glyph unicode="&#x100;" horiz-adv-x="1331" d="M0 0zM558 1841h539l-26 -148h-538zM333 541h493l-122 710zM-141 0l18 106h118l721 1387h152l237 -1387h132l-18 -106h-489l18 106h150l-55 328h-566l-169 -328h147l-18 -106h-378z" />
<glyph unicode="&#x101;" horiz-adv-x="1098" d="M62 0zM388 1526h539l-26 -148h-538zM670 166q-121 -195 -313 -195q-159 0 -239 119q-56 84 -56 204q0 51 10 108q62 353 282 535q189 155 416 155q153 0 206 -29l-168 -957h143l-19 -106h-291zM237 300q0 -214 186 -214q113 0 190.5 100.5t110.5 292.5l85 482v0 q0 29 -73 29q-172 0 -307 -150q-133 -151 -181 -425q-11 -64 -11 -115z" />
<glyph unicode="&#x102;" horiz-adv-x="1331" d="M0 0zM561 1897h86q-1 -79 39 -114q41 -36 131 -36t143 36q53 35 78 114h87q-35 -143 -118.5 -215t-214 -72t-189 72t-42.5 215zM333 541h493l-122 710zM-141 0l18 106h118l721 1387h152l237 -1387h132l-18 -106h-489l18 106h150l-55 328h-566l-169 -328h147l-18 -106 h-378z" />
<glyph unicode="&#x103;" horiz-adv-x="1098" d="M62 0zM402 1581h86q-1 -79 39 -114q41 -36 131 -36t143 36q53 35 78 114h87q-35 -143 -118.5 -215t-214 -72t-189 72t-42.5 215zM670 166q-121 -195 -313 -195q-159 0 -239 119q-56 84 -56 204q0 51 10 108q62 353 282 535q189 155 416 155q153 0 206 -29l-168 -957h143 l-19 -106h-291zM237 300q0 -214 186 -214q113 0 190.5 100.5t110.5 292.5l85 482v0q0 29 -73 29q-172 0 -307 -150q-133 -151 -181 -425q-11 -64 -11 -115z" />
<glyph unicode="&#x104;" horiz-adv-x="1331" d="M0 0zM733 0h85l-1 -2q-100 -123 -108 -170q-8 -46 17 -74t75 -28q25 0 52 6.5t56 19.5l-23 -127q-34 -9 -64.5 -13.5t-59.5 -4.5q-102 0 -150 44.5t-34 125.5q9 49 45 101.5t110 121.5zM333 541h493l-122 710zM-141 0l18 106h118l721 1387h152l237 -1387h132l-18 -106 h-489l18 106h150l-55 328h-566l-169 -328h147l-18 -106h-378z" />
<glyph unicode="&#x105;" horiz-adv-x="1098" d="M62 0zM638 0h85l-1 -2q-100 -123 -108 -170q-8 -46 17 -74t75 -28q25 0 52 6.5t56 19.5l-23 -127q-34 -9 -64.5 -13.5t-59.5 -4.5q-102 0 -150 44.5t-34 125.5q9 49 45 101.5t110 121.5zM670 166q-121 -195 -313 -195q-159 0 -239 119q-56 84 -56 204q0 51 10 108 q62 353 282 535q189 155 416 155q153 0 206 -29l-168 -957h143l-19 -106h-291zM237 300q0 -214 186 -214q113 0 190.5 100.5t110.5 292.5l85 482v0q0 29 -73 29q-172 0 -307 -150q-133 -151 -181 -425q-11 -64 -11 -115z" />
<glyph unicode="&#x106;" horiz-adv-x="1410" d="M96 0zM1238 395q-96 -209 -254.5 -316.5t-372.5 -107.5q-132 0 -235.5 50t-174.5 147q-81 112 -105 254.5t7 322.5q61 348 279.5 561.5t514.5 213.5q110 0 228.5 -32t250.5 -97l-61 -344h-101q-1 188 -85.5 277t-265.5 89q-215 0 -355.5 -169.5t-197.5 -498.5 q-58 -328 23 -497.5t296 -169.5q151 0 262 79.5t182 237.5h165zM1019 1899h178l-283 -264h-105z" />
<glyph unicode="&#x107;" horiz-adv-x="1032" d="M78 0zM911 319q-65 -170 -180.5 -259t-274.5 -89q-208 0 -308 153q-70 107 -70 261q0 69 14 147q44 255 198 407.5t362 152.5q91 0 177 -23.5t169 -71.5l-48 -272h-96v26q0 120 -47 178q-52 64 -170 64q-134 0 -222.5 -115.5t-129.5 -345.5q-18 -105 -18 -187 q0 -96 26 -159q47 -116 182 -116q108 0 182.5 62t119.5 187h134zM857 1638h179l-372 -376h-106z" />
<glyph unicode="&#x108;" horiz-adv-x="1410" d="M96 0zM890 1899h159l161 -264h-104l-154 161l-212 -161h-104zM1238 395q-96 -209 -254.5 -316.5t-372.5 -107.5q-132 0 -235.5 50t-174.5 147q-81 112 -105 254.5t7 322.5q61 348 279.5 561.5t514.5 213.5q110 0 228.5 -32t250.5 -97l-61 -344h-101q-1 188 -85.5 277 t-265.5 89q-215 0 -355.5 -169.5t-197.5 -498.5q-58 -328 23 -497.5t296 -169.5q151 0 262 79.5t182 237.5h165z" />
<glyph unicode="&#x109;" horiz-adv-x="1032" d="M78 0zM685 1638h151l145 -376h-104l-137 260l-228 -260h-105zM911 319q-65 -170 -180.5 -259t-274.5 -89q-208 0 -308 153q-70 107 -70 261q0 69 14 147q44 255 198 407.5t362 152.5q91 0 177 -23.5t169 -71.5l-48 -272h-96v26q0 120 -47 178q-52 64 -170 64 q-134 0 -222.5 -115.5t-129.5 -345.5q-18 -105 -18 -187q0 -96 26 -159q47 -116 182 -116q108 0 182.5 62t119.5 187h134z" />
<glyph unicode="&#x10a;" horiz-adv-x="1410" d="M96 0zM998.5 1886q42.5 0 67.5 -35t17 -81q-9 -50 -45 -83q-36 -34 -81 -34t-69 34q-25 33 -16 83q8 46 46 81t80.5 35zM1238 395q-96 -209 -254.5 -316.5t-372.5 -107.5q-132 0 -235.5 50t-174.5 147q-81 112 -105 254.5t7 322.5q61 348 279.5 561.5t514.5 213.5 q110 0 228.5 -32t250.5 -97l-61 -344h-101q-1 188 -85.5 277t-265.5 89q-215 0 -355.5 -169.5t-197.5 -498.5q-58 -328 23 -497.5t296 -169.5q151 0 262 79.5t182 237.5h165z" />
<glyph unicode="&#x10b;" horiz-adv-x="1032" d="M78 0zM746.5 1569q43.5 0 68.5 -35q24 -34 16 -82q-9 -51 -44 -84q-36 -33 -82 -33t-69 33q-24 33 -16 84q9 48 46 82q37 35 80.5 35zM911 319q-65 -170 -180.5 -259t-274.5 -89q-208 0 -308 153q-70 107 -70 261q0 69 14 147q44 255 198 407.5t362 152.5q91 0 177 -23.5 t169 -71.5l-48 -272h-96v26q0 120 -47 178q-52 64 -170 64q-134 0 -222.5 -115.5t-129.5 -345.5q-18 -105 -18 -187q0 -96 26 -159q47 -116 182 -116q108 0 182.5 62t119.5 187h134z" />
<glyph unicode="&#x10c;" horiz-adv-x="1410" d="M96 0zM1238 395q-96 -209 -254.5 -316.5t-372.5 -107.5q-132 0 -235.5 50t-174.5 147q-81 112 -105 254.5t7 322.5q61 348 279.5 561.5t514.5 213.5q110 0 228.5 -32t250.5 -97l-61 -344h-101q-1 188 -85.5 277t-265.5 89q-215 0 -355.5 -169.5t-197.5 -498.5 q-58 -328 23 -497.5t296 -169.5q151 0 262 79.5t182 237.5h165zM845 1635l-161 264h104l154 -162l211 162h105l-255 -264h-158z" />
<glyph unicode="&#x10d;" horiz-adv-x="1032" d="M78 0zM911 319q-65 -170 -180.5 -259t-274.5 -89q-208 0 -308 153q-70 107 -70 261q0 69 14 147q44 255 198 407.5t362 152.5q91 0 177 -23.5t169 -71.5l-48 -272h-96v26q0 120 -47 178q-52 64 -170 64q-134 0 -222.5 -115.5t-129.5 -345.5q-18 -105 -18 -187 q0 -96 26 -159q47 -116 182 -116q108 0 182.5 62t119.5 187h134zM608 1262l-145 376h104l137 -260l229 260h104l-278 -376h-151z" />
<glyph unicode="&#x10e;" horiz-adv-x="1477" d="M0 0zM343 106h168q262 0 431 166t223 476t-57 474t-373 164h-168zM-29 0l19 106h171l224 1280h-171l18 107h535q347 0 506.5 -197t98.5 -548q-62 -352 -291 -550t-575 -198h-535zM775 1635l-161 264h104l154 -162l211 162h105l-255 -264h-158z" />
<glyph unicode="&#x10f;" horiz-adv-x="1179" d="M36 0zM1106 1556l-272 -1556h-166l29 166q-66 -100 -149.5 -147.5t-193.5 -47.5q-177 0 -262 155q-56 103 -56 247q0 74 15 159q44 250 182.5 405t316.5 155q110 0 177 -47.5t98 -147.5l97 553h-157l19 106h322zM752 479l18 105q14 78 14 141q0 91 -29 151 q-48 101 -174 101q-128 0 -213 -112t-123 -333q-18 -101 -18 -179q0 -93 25 -154q45 -113 173 -113q126 0 210 100.5t117 292.5zM1321 1554h179l-195 -376h-106z" />
<glyph unicode="&#x110;" horiz-adv-x="1487" d="M0 0zM351 106h169q262 0 431.5 166t223.5 476t-57.5 474t-373.5 164h-170l-94 -542h302l-22 -125h-302zM-20 0l19 106h171l107 613h-180l22 125h180l95 542h-171l18 107h535q347 0 506.5 -197t98.5 -548q-62 -352 -291 -550t-575 -198h-535z" />
<glyph unicode="&#x111;" horiz-adv-x="1179" d="M1049 1227l-215 -1227h-166l29 166q-66 -100 -149.5 -147.5t-193.5 -47.5q-177 0 -262 155q-56 103 -56 247q0 74 15 159q44 250 182.5 405t316.5 155q110 0 177 -47.5t98 -147.5l58 330h-293l18 106h294l20 117h-157l19 106h322l-39 -223h159l-19 -106h-158zM752 479 l18 105q14 78 14 141q0 91 -29 151q-48 101 -174 101q-128 0 -213 -112t-123 -333q-18 -101 -18 -179q0 -93 25 -154q45 -113 173 -113q126 0 210 100.5t117 292.5z" />
<glyph unicode="&#x112;" horiz-adv-x="1345" d="M0 0zM593 1842h539l-26 -148h-538zM-29 0l19 106h171l224 1280h-171l18 107h1082l-58 -332h-111l37 209h-618l-87 -500h440l33 187h111l-87 -496h-111l33 187h-440l-110 -625h632l37 209h110l-58 -332h-1096z" />
<glyph unicode="&#x113;" horiz-adv-x="1090" d="M78 0zM441 1527h539l-26 -148h-538zM270 408q-4 -38 -4 -72q0 -94 31 -156q53 -110 195 -110q105 0 156 35q92 63 113 144h122q-36 -127 -170 -216q-94 -62 -279.5 -62t-285.5 153q-70 107 -70 262q0 68 14 145q44 253 196 407t368 154q352 0 352 -277q0 -203 -184 -302 q-189 -101 -554 -105zM732 632q100 66 100 190q0 171 -204 171q-120 0 -204 -102t-135 -377q289 15 443 118z" />
<glyph unicode="&#x114;" horiz-adv-x="1345" d="M0 0zM614 1901h85q6 -55 49 -82t126 -27t136 27t79 82h85q-39 -117 -122 -180q-83 -62 -201 -62q-119 0 -179.5 62t-57.5 180zM-29 0l19 106h171l224 1280h-171l18 107h1082l-58 -332h-111l37 209h-618l-87 -500h440l33 187h111l-87 -496h-111l33 187h-440l-110 -625h632 l37 209h110l-58 -332h-1096z" />
<glyph unicode="&#x115;" horiz-adv-x="1090" d="M78 0zM453 1608h86q-1 -79 39 -114q41 -36 131 -36t143 36q53 35 78 114h87q-35 -143 -118.5 -215t-214 -72t-189 72t-42.5 215zM270 408q-4 -38 -4 -72q0 -94 31 -156q53 -110 195 -110q105 0 156 35q92 63 113 144h122q-36 -127 -170 -216q-94 -62 -279.5 -62 t-285.5 153q-70 107 -70 262q0 68 14 145q44 253 196 407t368 154q352 0 352 -277q0 -203 -184 -302q-189 -101 -554 -105zM732 632q100 66 100 190q0 171 -204 171q-120 0 -204 -102t-135 -377q289 15 443 118z" />
<glyph unicode="&#x116;" horiz-adv-x="1345" d="M0 0zM925.5 1886q42.5 0 67.5 -35t17 -81q-9 -50 -45 -83q-36 -34 -81 -34t-69 34q-25 33 -16 83q8 46 46 81t80.5 35zM-29 0l19 106h171l224 1280h-171l18 107h1082l-58 -332h-111l37 209h-618l-87 -500h440l33 187h111l-87 -496h-111l33 187h-440l-110 -625h632l37 209 h110l-58 -332h-1096z" />
<glyph unicode="&#x117;" horiz-adv-x="1090" d="M78 0zM737.5 1569q43.5 0 68.5 -35q24 -34 16 -82q-9 -51 -44 -84q-36 -33 -82 -33t-69 33q-24 33 -16 84q9 48 46 82q37 35 80.5 35zM270 408q-4 -38 -4 -72q0 -94 31 -156q53 -110 195 -110q105 0 156 35q92 63 113 144h122q-36 -127 -170 -216q-94 -62 -279.5 -62 t-285.5 153q-70 107 -70 262q0 68 14 145q44 253 196 407t368 154q352 0 352 -277q0 -203 -184 -302q-189 -101 -554 -105zM732 632q100 66 100 190q0 171 -204 171q-120 0 -204 -102t-135 -377q289 15 443 118z" />
<glyph unicode="&#x118;" horiz-adv-x="1345" d="M0 0zM849 0h85l-1 -2q-100 -123 -108 -170q-8 -46 17 -74t75 -28q25 0 52 6.5t56 19.5l-23 -127q-34 -9 -64.5 -13.5t-59.5 -4.5q-102 0 -150 44.5t-34 125.5q9 49 45 101.5t110 121.5zM-29 0l19 106h171l224 1280h-171l18 107h1082l-58 -332h-111l37 209h-618l-87 -500 h440l33 187h111l-87 -496h-111l33 187h-440l-110 -625h632l37 209h110l-58 -332h-1096z" />
<glyph unicode="&#x119;" horiz-adv-x="1090" d="M78 0zM554 0h85l-1 -2q-100 -123 -108 -170q-8 -46 17 -74t75 -28q25 0 52 6.5t56 19.5l-23 -127q-34 -9 -64.5 -13.5t-59.5 -4.5q-102 0 -150 44.5t-34 125.5q9 49 45 101.5t110 121.5zM270 408q-4 -38 -4 -72q0 -94 31 -156q53 -110 195 -110q105 0 156 35 q92 63 113 144h122q-36 -127 -170 -216q-94 -62 -279.5 -62t-285.5 153q-70 107 -70 262q0 68 14 145q44 253 196 407t368 154q352 0 352 -277q0 -203 -184 -302q-189 -101 -554 -105zM732 632q100 66 100 190q0 171 -204 171q-120 0 -204 -102t-135 -377q289 15 443 118z " />
<glyph unicode="&#x11a;" horiz-adv-x="1345" d="M0 0zM-29 0l19 106h171l224 1280h-171l18 107h1082l-58 -332h-111l37 209h-618l-87 -500h440l33 187h111l-87 -496h-111l33 187h-440l-110 -625h632l37 209h110l-58 -332h-1096zM845 1635l-161 264h104l154 -162l211 162h105l-255 -264h-158z" />
<glyph unicode="&#x11b;" horiz-adv-x="1090" d="M78 0zM270 408q-4 -38 -4 -72q0 -94 31 -156q53 -110 195 -110q105 0 156 35q92 63 113 144h122q-36 -127 -170 -216q-94 -62 -279.5 -62t-285.5 153q-70 107 -70 262q0 68 14 145q44 253 196 407t368 154q352 0 352 -277q0 -203 -184 -302q-189 -101 -554 -105zM732 632 q100 66 100 190q0 171 -204 171q-120 0 -204 -102t-135 -377q289 15 443 118zM608 1262l-145 376h104l137 -260l229 260h104l-278 -376h-151z" />
<glyph unicode="&#x11c;" horiz-adv-x="1472" d="M103 0zM914 1899h159l161 -264h-104l-154 161l-212 -161h-104zM1233 1047q1 187 -83.5 276.5t-262.5 89.5q-232 0 -375.5 -166t-201.5 -502q-58 -329 30.5 -498t316.5 -169q102 0 199.5 28t191.5 84l67 385h-253l19 107h435l-97 -557q-133 -77 -278 -115.5t-302 -38.5 q-305 0 -451 211.5t-85 562.5q62 354 282.5 564.5t531.5 210.5q115 0 232.5 -29.5t245.5 -89.5l-62 -354h-100z" />
<glyph unicode="&#x11d;" horiz-adv-x="1179" d="M65 0zM674 1638h151l145 -376h-104l-137 260l-228 -260h-105zM1100 1063l-182 -1040q-41 -238 -175 -353q-144 -125 -345 -125q-94 0 -177 19t-156 57l39 223h86q-2 -104 50 -152t165 -48q146 0 229 92q84 90 119 287l25 143q-66 -100 -149.5 -147.5t-189.5 -47.5 q-159 0 -239 119q-50 75 -55 179q-3 61 9 133q62 353 283 535q188 154 408 155q201 1 255 -29zM917 956q0 34 -98 34q-175 0 -307 -150q-134 -151 -181 -425q-15 -81 -11 -142q4 -62 26 -104q44 -83 159 -83q126 0 210 100.5t118 292.5l18 105z" />
<glyph unicode="&#x11e;" horiz-adv-x="1472" d="M103 0zM1233 1047q1 187 -83.5 276.5t-262.5 89.5q-232 0 -375.5 -166t-201.5 -502q-58 -329 30.5 -498t316.5 -169q102 0 199.5 28t191.5 84l67 385h-253l19 107h435l-97 -557q-133 -77 -278 -115.5t-302 -38.5q-305 0 -451 211.5t-85 562.5q62 354 282.5 564.5 t531.5 210.5q115 0 232.5 -29.5t245.5 -89.5l-62 -354h-100zM706 1901h85q6 -55 49 -82t126 -27t136 27t79 82h85q-39 -117 -122 -180q-83 -62 -201 -62q-119 0 -179.5 62t-57.5 180z" />
<glyph unicode="&#x11f;" horiz-adv-x="1179" d="M65 0zM1100 1063l-182 -1040q-41 -238 -175 -353q-144 -125 -345 -125q-94 0 -177 19t-156 57l39 223h86q-2 -104 50 -152t165 -48q146 0 229 92q84 90 119 287l25 143q-66 -100 -149.5 -147.5t-189.5 -47.5q-159 0 -239 119q-50 75 -55 179q-3 61 9 133q62 353 283 535 q188 154 408 155q201 1 255 -29zM917 956q0 34 -98 34q-175 0 -307 -150q-134 -151 -181 -425q-15 -81 -11 -142q4 -62 26 -104q44 -83 159 -83q126 0 210 100.5t118 292.5l18 105zM497 1608h86q-1 -79 39 -114q41 -36 131 -36t143 36q53 35 78 114h87q-35 -143 -118.5 -215 t-214 -72t-189 72t-42.5 215z" />
<glyph unicode="&#x120;" horiz-adv-x="1472" d="M103 0zM1022.5 1886q42.5 0 67.5 -35t17 -81q-9 -50 -45 -83q-36 -34 -81 -34t-69 34q-25 33 -16 83q8 46 46 81t80.5 35zM1233 1047q1 187 -83.5 276.5t-262.5 89.5q-232 0 -375.5 -166t-201.5 -502q-58 -329 30.5 -498t316.5 -169q102 0 199.5 28t191.5 84l67 385h-253 l19 107h435l-97 -557q-133 -77 -278 -115.5t-302 -38.5q-305 0 -451 211.5t-85 562.5q62 354 282.5 564.5t531.5 210.5q115 0 232.5 -29.5t245.5 -89.5l-62 -354h-100z" />
<glyph unicode="&#x121;" horiz-adv-x="1179" d="M65 0zM735.5 1569q43.5 0 68.5 -35q24 -34 16 -82q-9 -51 -44 -84q-36 -33 -82 -33t-69 33q-24 33 -16 84q9 48 46 82q37 35 80.5 35zM1100 1063l-182 -1040q-41 -238 -175 -353q-144 -125 -345 -125q-94 0 -177 19t-156 57l39 223h86q-2 -104 50 -152t165 -48 q146 0 229 92q84 90 119 287l25 143q-66 -100 -149.5 -147.5t-189.5 -47.5q-159 0 -239 119q-50 75 -55 179q-3 61 9 133q62 353 283 535q188 154 408 155q201 1 255 -29zM917 956q0 34 -98 34q-175 0 -307 -150q-134 -151 -181 -425q-15 -81 -11 -142q4 -62 26 -104 q44 -83 159 -83q126 0 210 100.5t118 292.5l18 105z" />
<glyph unicode="&#x122;" horiz-adv-x="1472" d="M103 0zM606 -410q69 42 100.5 98t31.5 136v22h142q-6 -103 -59 -176q-52 -74 -157 -128zM1233 1047q1 187 -83.5 276.5t-262.5 89.5q-232 0 -375.5 -166t-201.5 -502q-58 -329 30.5 -498t316.5 -169q102 0 199.5 28t191.5 84l67 385h-253l19 107h435l-97 -557 q-133 -77 -278 -115.5t-302 -38.5q-305 0 -451 211.5t-85 562.5q62 354 282.5 564.5t531.5 210.5q115 0 232.5 -29.5t245.5 -89.5l-62 -354h-100z" />
<glyph unicode="&#x123;" horiz-adv-x="1179" d="M65 0zM946 1470q-76 -42 -117.5 -98t-54.5 -136l-5 -22h-142q24 103 90 176q65 74 180 128zM1100 1063l-182 -1040q-41 -238 -175 -353q-144 -125 -345 -125q-94 0 -177 19t-156 57l39 223h86q-2 -104 50 -152t165 -48q146 0 229 92q84 90 119 287l25 143 q-66 -100 -149.5 -147.5t-189.5 -47.5q-159 0 -239 119q-50 75 -55 179q-3 61 9 133q62 353 283 535q188 154 408 155q201 1 255 -29zM917 956q0 34 -98 34q-175 0 -307 -150q-134 -151 -181 -425q-15 -81 -11 -142q4 -62 26 -104q44 -83 159 -83q126 0 210 100.5t118 292.5 l18 105z" />
<glyph unicode="&#x124;" horiz-adv-x="1607" d="M0 0zM948 1899h159l161 -264h-104l-154 161l-212 -161h-104zM-29 0l19 106h171l224 1280h-171l18 107h525l-19 -107h-171l-90 -516h697l90 516h-171l19 107h524l-18 -107h-171l-224 -1280h171l-19 -106h-525l19 106h171l112 642h-696l-113 -642h171l-18 -106h-525z" />
<glyph unicode="&#x125;" horiz-adv-x="1187" d="M89 0zM355 1899h159l161 -264h-104l-154 161l-212 -161h-104zM89 0l254 1450h-159l19 106h324l-120 -682q65 108 148 163t180 55q159 0 216 -101q34 -61 34 -163q0 -67 -15 -152l-99 -570h147l-18 -106h-314l108 618q18 103 18 172q0 61 -14 94q-31 72 -140 72 q-116 0 -192.5 -93t-107.5 -271l-104 -592h-165z" />
<glyph unicode="&#x126;" horiz-adv-x="1607" d="M477 870h697l34 197h-697zM-29 0l18 106h171l168 961h-170l21 122h171l34 197h-171l19 107h525l-19 -107h-171l-34 -197h696l35 197h-171l19 107h524l-19 -107h-171l-34 -197h171l-21 -122h-172l-168 -961h171l-18 -106h-525l18 106h172l112 642h-697l-112 -642h171 l-18 -106h-525z" />
<glyph unicode="&#x127;" horiz-adv-x="1187" d="M89 0l212 1210h-159l22 122h158l21 118h-159l19 106h324l-39 -224h284l-21 -122h-285l-59 -336q65 108 148 163t180 55q159 0 216 -101q34 -61 34 -163q0 -67 -15 -152l-99 -570h147l-18 -106h-314l108 618q18 103 18 172q0 61 -14 94q-31 72 -140 72q-116 0 -192.5 -93 t-107.5 -271l-104 -592h-165z" />
<glyph unicode="&#x128;" horiz-adv-x="728" d="M0 0zM514 1715l-38 28q-16 13 -33 20t-32 7q-35 0 -64 -29q-28 -28 -39 -74l-87 1q19 100 76 159q55 59 132 59q32 0 59 -9q26 -9 71 -40l39 -26q18 -13 37 -20q18 -7 33 -7q37 0 63 27q27 28 35 75h87q-20 -105 -77 -162q-55 -57 -140 -57q-60 0 -118 45zM343 106h171 l-18 -106h-525l19 106h171l224 1280h-171l18 107h525l-19 -107h-171z" />
<glyph unicode="&#x129;" horiz-adv-x="589" d="M98 0zM402 1370l-42 55q-19 24 -32 31q-14 8 -31 8q-38 0 -66 -40q-29 -39 -46 -115h-87q26 135 84 209q59 73 141 73q34 0 61 -14q26 -14 54 -47l41 -55q16 -23 31 -31q13 -8 32 -8q39 0 67.5 40t45.5 115h86q-25 -135 -84 -209q-58 -73 -140 -73q-34 0 -61 14 q-26 14 -54 47zM316 106h156l-18 -106h-322l168 956h-159l18 107h324z" />
<glyph unicode="&#x12a;" horiz-adv-x="728" d="M0 0zM293 1842h539l-26 -148h-538zM343 106h171l-18 -106h-525l19 106h171l224 1280h-171l18 107h525l-19 -107h-171z" />
<glyph unicode="&#x12b;" horiz-adv-x="589" d="M99 0zM124 1526h539l-26 -148h-538zM316 106h156l-18 -106h-322l168 956h-159l18 107h324z" />
<glyph unicode="&#x12c;" horiz-adv-x="728" d="M0 0zM289 1901h85q6 -55 49 -82t126 -27t136 27t79 82h85q-39 -117 -122 -180q-83 -62 -201 -62q-119 0 -179.5 62t-57.5 180zM343 106h171l-18 -106h-525l19 106h171l224 1280h-171l18 107h525l-19 -107h-171z" />
<glyph unicode="&#x12d;" horiz-adv-x="589" d="M132 0zM185 1608h86q-1 -79 39 -114q41 -36 131 -36t143 36q53 35 78 114h87q-35 -143 -118.5 -215t-214 -72t-189 72t-42.5 215zM316 106h156l-18 -106h-322l168 956h-159l18 107h324z" />
<glyph unicode="&#x12e;" horiz-adv-x="728" d="M5 0zM377 106h171l-18 -106h-525l19 106h171l224 1280h-171l18 107h525l-19 -107h-171zM274 0h85l-1 -2q-100 -123 -108 -170q-8 -46 17 -74t75 -28q25 0 52 6.5t56 19.5l-23 -127q-34 -9 -64.5 -13.5t-59.5 -4.5q-102 0 -150 44.5t-34 125.5q9 49 45 101.5t110 121.5z " />
<glyph unicode="&#x12f;" horiz-adv-x="589" d="M54 0zM325 1393q8 46 44 80t79 34q41 0 65 -34q18 -26 18 -58q0 -11 -2 -22q-8 -47 -43.5 -80t-77.5 -33t-67 33q-18 25 -18 57q0 11 2 23zM311 106h157l-19 -106h-322l167 956h-158l19 107h324zM209 0h85l-1 -2q-100 -123 -108 -170q-8 -46 17 -74t75 -28q25 0 52 6.5 t56 19.5l-23 -127q-34 -9 -64.5 -13.5t-59.5 -4.5q-102 0 -150 44.5t-34 125.5q9 49 45 101.5t110 121.5z" />
<glyph unicode="&#x130;" horiz-adv-x="728" d="M0 0zM343 106h171l-18 -106h-525l19 106h171l224 1280h-171l18 107h525l-19 -107h-171zM563.5 1886q42.5 0 67.5 -35t17 -81q-9 -50 -45 -83q-36 -34 -81 -34t-69 34q-25 33 -16 83q8 46 46 81t80.5 35z" />
<glyph unicode="&#x131;" horiz-adv-x="589" d="M316 106h156l-18 -106h-322l168 956h-159l18 107h324z" />
<glyph unicode="&#x132;" horiz-adv-x="1476" d="M0 0zM427 -358l41 235h103q-15 -99 16.5 -147.5t110.5 -48.5q107 0 162.5 75t93.5 293l234 1337h-209l19 107h562l-19 -107h-171l-235 -1345q-43 -247 -151.5 -357t-306.5 -110q-64 0 -127 17t-123 51zM343 106h171l-18 -106h-525l19 106h171l224 1280h-171l18 107h525 l-19 -107h-171z" />
<glyph unicode="&#x133;" horiz-adv-x="982" d="M93 0zM862 1393q8 46 44 80t79 34q41 0 65 -34q18 -26 18 -58q0 -11 -2 -22q-8 -47 -43 -80t-78 -33q-42 0 -67 33q-18 25 -18 57q0 11 2 23zM826 956h-156l18 107h323l-205 -1167q-28 -164 -132.5 -257.5t-257.5 -93.5q-65 0 -121 16.5t-106 49.5l38 219h85 q-2 -25 -2 -46q0 -62 22 -95q31 -45 105 -45q81 0 131 61.5t73 190.5zM291 1393q8 46 44 80t79 34q41 0 65 -34q18 -26 18 -58q0 -11 -2 -22q-8 -47 -43.5 -80t-77.5 -33t-67 33q-18 25 -18 57q0 11 2 23zM277 106h157l-19 -106h-322l167 956h-158l19 107h324z" />
<glyph unicode="&#x134;" horiz-adv-x="738" d="M0 0zM517 1899h159l161 -264h-104l-154 161l-212 -161h-104zM-311 -358l41 235h103q-15 -99 16.5 -147.5t110.5 -48.5q107 0 162.5 75t93.5 293l234 1337h-209l19 107h562l-19 -107h-171l-235 -1345q-43 -247 -151.5 -357t-306.5 -110q-64 0 -127 17t-123 51z" />
<glyph unicode="&#x135;" horiz-adv-x="571" d="M0 0zM366 1638h151l145 -376h-104l-137 260l-228 -260h-105zM339 956h-157l19 107h322l-204 -1167q-28 -164 -132.5 -257.5t-258.5 -93.5q-64 0 -120.5 16.5t-106.5 49.5l39 219h85q-10 -96 20.5 -141t103.5 -45q82 0 132 61.5t73 190.5z" />
<glyph unicode="&#x136;" horiz-adv-x="1377" d="M0 0zM591 -381q69 42 100.5 98t31.5 136v22h142q-6 -103 -59 -176q-52 -74 -157 -128zM-29 0l19 106h171l224 1280h-171l18 107h525l-19 -107h-171l-99 -565l678 565h-146l19 107h446l-18 -107h-152l-675 -563l520 -717h153l-19 -106h-312l-513 709l-106 -603h171 l-18 -106h-525z" />
<glyph unicode="&#x137;" horiz-adv-x="1116" d="M76 0zM428 -381q69 42 100.5 98t31.5 136v22h142q-6 -103 -59 -176q-52 -74 -157 -128zM608 664l266 -558h138l-19 -106h-265l-261 543l-154 -135l-71 -408h-166l254 1450h-159l18 106h325l-177 -1013l475 413h-137l18 107h269l-18 -107z" />
<glyph unicode="&#x138;" horiz-adv-x="1116" d="M285 0h-165l166 953h-159l19 107h325l-91 -519l475 412h-138l19 107h269l-18 -107l-336 -291l267 -556h137l-18 -106h-266l-261 541l-154 -135z" />
<glyph unicode="&#x139;" horiz-adv-x="1224" d="M0 0zM603 1901h178l-283 -264h-105zM-29 0l19 106h171l224 1280h-171l18 107h525l-19 -107h-171l-221 -1263h614l44 250h111l-66 -373h-1078z" />
<glyph unicode="&#x13a;" horiz-adv-x="589" d="M76 0zM513 1900h178l-283 -264h-105zM260 106h157l-19 -106h-322l254 1450h-159l18 106h325z" />
<glyph unicode="&#x13b;" horiz-adv-x="1224" d="M0 0zM478 -381q69 42 100.5 98t31.5 136v22h142q-6 -103 -59 -176q-52 -74 -157 -128zM-29 0l19 106h171l224 1280h-171l18 107h525l-19 -107h-171l-221 -1263h614l44 250h111l-66 -373h-1078z" />
<glyph unicode="&#x13c;" horiz-adv-x="589" d="M76 0zM126 -381q69 42 100.5 98t31.5 136v22h142q-6 -103 -59 -176q-52 -74 -157 -128zM260 106h157l-19 -106h-322l254 1450h-159l18 106h325z" />
<glyph unicode="&#x13d;" horiz-adv-x="1224" d="M0 0zM837 1492h179l-195 -376h-106zM-29 0l19 106h171l224 1280h-171l18 107h525l-19 -107h-171l-221 -1263h614l44 250h111l-66 -373h-1078z" />
<glyph unicode="&#x13e;" horiz-adv-x="738" d="M76 0zM728 1556h179l-195 -376h-106zM260 106h157l-19 -106h-322l254 1450h-159l18 106h325z" />
<glyph unicode="&#x13f;" horiz-adv-x="1237" d="M0 0zM922 845q10 56 51.5 94.5t92.5 38.5q49 0 77.5 -39t18.5 -94q-9 -56 -51 -94.5t-92 -38.5q-51 0 -79 38t-18 95zM-29 0l19 106h171l224 1280h-171l18 107h525l-19 -107h-171l-221 -1263h614l44 250h111l-66 -373h-1078z" />
<glyph unicode="&#x140;" horiz-adv-x="856" d="M76 0zM535 836q10 56 51.5 94.5t92.5 38.5q49 0 77.5 -39t18.5 -94q-9 -56 -51 -94.5t-92 -38.5q-51 0 -79 38t-18 95zM260 106h157l-19 -106h-322l254 1450h-159l18 106h325z" />
<glyph unicode="&#x141;" horiz-adv-x="1233" d="M-20 0l19 106h171l84 480l-161 -113l-47 92l232 162l116 659h-171l18 107h524l-19 -107h-172l-90 -516l316 226l47 -92l-387 -275l-106 -606h615l44 250h111l-66 -373h-1078z" />
<glyph unicode="&#x142;" horiz-adv-x="597" d="M268 106h158l-19 -106h-324l119 680l-141 -96l-39 86l203 141l112 639h-156l18 106h322l-107 -616l149 98l39 -86l-211 -141z" />
<glyph unicode="&#x143;" horiz-adv-x="1612" d="M0 0zM1067 1900h178l-283 -264h-105zM-38 0l18 106h181l224 1280h-181l19 107h345l599 -1178l188 1071h-180l18 107h472l-19 -107h-181l-247 -1415h-109l-640 1258l-197 -1123h181l-19 -106h-472z" />
<glyph unicode="&#x144;" horiz-adv-x="1187" d="M129 0zM831 1590h179l-372 -376h-106zM129 0l168 956h-159l19 107h324l-33 -189q65 108 148 163t180 55q158 0 215 -101q35 -61 35 -163q0 -67 -15 -152l-100 -570h148l-19 -106h-314l108 618q18 103 18 172q0 61 -14 96q-31 72 -140 72q-115 0 -191.5 -93.5 t-107.5 -272.5l-104 -592h-166z" />
<glyph unicode="&#x145;" horiz-adv-x="1612" d="M0 0zM645 -410q69 42 100.5 98t31.5 136v22h142q-6 -103 -59 -176q-52 -74 -157 -128zM-38 0l18 106h181l224 1280h-181l19 107h345l599 -1178l188 1071h-180l18 107h472l-19 -107h-181l-247 -1415h-109l-640 1258l-197 -1123h181l-19 -106h-472z" />
<glyph unicode="&#x146;" horiz-adv-x="1187" d="M129 0zM478 -381q69 42 100.5 98t31.5 136v22h142q-6 -103 -59 -176q-52 -74 -157 -128zM129 0l168 956h-159l19 107h324l-33 -189q65 108 148 163t180 55q158 0 215 -101q35 -61 35 -163q0 -67 -15 -152l-100 -570h148l-19 -106h-314l108 618q18 103 18 172q0 61 -14 96 q-31 72 -140 72q-115 0 -191.5 -93.5t-107.5 -272.5l-104 -592h-166z" />
<glyph unicode="&#x147;" horiz-adv-x="1612" d="M0 0zM-38 0l18 106h181l224 1280h-181l19 107h345l599 -1178l188 1071h-180l18 107h472l-19 -107h-181l-247 -1415h-109l-640 1258l-197 -1123h181l-19 -106h-472zM892 1645l-161 264h104l154 -162l211 162h105l-255 -264h-158z" />
<glyph unicode="&#x148;" horiz-adv-x="1187" d="M129 0zM129 0l168 956h-159l19 107h324l-33 -189q65 108 148 163t180 55q158 0 215 -101q35 -61 35 -163q0 -67 -15 -152l-100 -570h148l-19 -106h-314l108 618q18 103 18 172q0 61 -14 96q-31 72 -140 72q-115 0 -191.5 -93.5t-107.5 -272.5l-104 -592h-166zM608 1262 l-145 376h104l137 -260l229 260h104l-278 -376h-151z" />
<glyph unicode="&#x149;" horiz-adv-x="1596" d="M72 0zM488 0l168 956h-159l19 107h324l-33 -189q65 108 148 163t180 55q158 0 215 -101q35 -61 35 -163q0 -67 -15 -152l-100 -570h148l-19 -106h-314l108 618q18 103 18 172q0 61 -14 96q-31 72 -140 72q-115 0 -191.5 -93.5t-107.5 -272.5l-104 -592h-166zM72 1094 q80 64 126 149t69 214l11 63h174q-31 -174 -109 -294q-76 -121 -215 -212z" />
<glyph unicode="&#x14a;" horiz-adv-x="1553" d="M736 -181q0 -138 132 -138q107 0 162 74t94 294l145 832q27 150 27 249t-23 152q-49 109 -224.5 109t-292.5 -128.5t-160 -375.5l-136 -780h171l-19 -107h-526l19 107h172l223 1279h-158l19 107h341l-35 -201q175 230 457 230q228 0 310 -146q48 -87 48 -209t-21 -245 l-154 -881q-43 -247 -151.5 -357t-306.5 -110q-131 0 -251 68l42 235h101q-5 -32 -5 -58z" />
<glyph unicode="&#x14b;" horiz-adv-x="1187" d="M748 -104l126 722q18 103 18 172q0 61 -14 96q-31 72 -140 72q-115 0 -191.5 -93.5t-108.5 -272.5l-103 -592h-166l168 956h-159l19 107h324l-33 -189q65 108 148 163t180 55q156 0 215 -101q35 -59 35 -162q0 -67 -15 -153l-137 -780q-28 -164 -132.5 -257.5 t-258.5 -93.5q-64 0 -120 16.5t-106 49.5l38 219h85q-2 -25 -2 -46q0 -62 22 -95q31 -45 104 -45q82 0 132 62q49 60 72 190z" />
<glyph unicode="&#x14c;" horiz-adv-x="1511" d="M96 0zM706 1842h539l-26 -148h-538zM639 78q221 0 363 168.5t199 498.5q58 331 -25 499.5t-303 168.5q-222 0 -364 -168.5t-199 -499.5q-58 -330 25 -498.5t304 -168.5zM621 -29q-137 0 -243 50t-177 147q-81 112 -105 254t7.5 323t105.5 323.5t194 254.5 q106 98 228 147.5t260 49.5q293 0 435.5 -213t81.5 -562q-31 -179 -105.5 -322.5t-194.5 -254.5q-106 -98 -228 -147.5t-259 -49.5z" />
<glyph unicode="&#x14d;" horiz-adv-x="1109" d="M78 0zM450 1526h539l-26 -148h-538zM474 70q133 0 221.5 117t128.5 345q18 104 18 185q0 96 -26 159q-48 117 -181 117t-221.5 -116.5t-128.5 -344.5q-18 -104 -18 -184q0 -97 26 -161q48 -117 181 -117zM456 -29q-208 0 -308 153q-70 107 -70 261q0 69 14 147 q44 254 197.5 407t363 153t309.5 -153q69 -106 69 -260q0 -69 -14 -147q-44 -254 -197.5 -407.5t-363.5 -153.5z" />
<glyph unicode="&#x14e;" horiz-adv-x="1511" d="M96 0zM725 1901h85q6 -55 49 -82t126 -27t136 27t79 82h85q-39 -117 -122 -180q-83 -62 -201 -62q-119 0 -179.5 62t-57.5 180zM639 78q221 0 363 168.5t199 498.5q58 331 -25 499.5t-303 168.5q-222 0 -364 -168.5t-199 -499.5q-58 -330 25 -498.5t304 -168.5zM621 -29 q-137 0 -243 50t-177 147q-81 112 -105 254t7.5 323t105.5 323.5t194 254.5q106 98 228 147.5t260 49.5q293 0 435.5 -213t81.5 -562q-31 -179 -105.5 -322.5t-194.5 -254.5q-106 -98 -228 -147.5t-259 -49.5z" />
<glyph unicode="&#x14f;" horiz-adv-x="1109" d="M78 0zM462 1608h86q-1 -79 39 -114q41 -36 131 -36t143 36q53 35 78 114h87q-35 -143 -118.5 -215t-214 -72t-189 72t-42.5 215zM474 70q133 0 221.5 117t128.5 345q18 104 18 185q0 96 -26 159q-48 117 -181 117t-221.5 -116.5t-128.5 -344.5q-18 -104 -18 -184 q0 -97 26 -161q48 -117 181 -117zM456 -29q-208 0 -308 153q-70 107 -70 261q0 69 14 147q44 254 197.5 407t363 153t309.5 -153q69 -106 69 -260q0 -69 -14 -147q-44 -254 -197.5 -407.5t-363.5 -153.5z" />
<glyph unicode="&#x150;" horiz-adv-x="1511" d="M96 0zM1273 1899h177l-282 -264h-106zM988 1899h177l-283 -264h-105zM639 78q221 0 363 168.5t199 498.5q58 331 -25 499.5t-303 168.5q-222 0 -364 -168.5t-199 -499.5q-58 -330 25 -498.5t304 -168.5zM621 -29q-137 0 -243 50t-177 147q-81 112 -105 254t7.5 323 t105.5 323.5t194 254.5q106 98 228 147.5t260 49.5q293 0 435.5 -213t81.5 -562q-31 -179 -105.5 -322.5t-194.5 -254.5q-106 -98 -228 -147.5t-259 -49.5z" />
<glyph unicode="&#x151;" horiz-adv-x="1109" d="M78 0zM735 1638h153l-286 -376h-103zM1032 1638h160l-325 -376h-104zM474 70q133 0 221.5 117t128.5 345q18 104 18 185q0 96 -26 159q-48 117 -181 117t-221.5 -116.5t-128.5 -344.5q-18 -104 -18 -184q0 -97 26 -161q48 -117 181 -117zM456 -29q-208 0 -308 153 q-70 107 -70 261q0 69 14 147q44 254 197.5 407t363 153t309.5 -153q69 -106 69 -260q0 -69 -14 -147q-44 -254 -197.5 -407.5t-363.5 -153.5z" />
<glyph unicode="&#x152;" horiz-adv-x="2096" d="M911 106l224 1280h-168q-263 0 -431 -164t-222 -472q-55 -311 56 -477.5t373 -166.5h168zM1818 0h-1106q-347 0 -506.5 198t-97.5 552q61 351 289.5 547t575.5 196h1091l-58 -332h-111l37 209h-618l-87 -500h443l32 187h109l-87 -496h-109l33 187h-443l-109 -625h633 l36 209h111z" />
<glyph unicode="&#x153;" horiz-adv-x="1822" d="M474 70q133 0 221.5 117t128 345t-8 344.5t-180.5 116.5t-221.5 -116.5t-128 -344.5t8 -345t180.5 -117zM1463 632q101 66 101 190q0 171 -204 171q-121 0 -204.5 -102t-135.5 -377q288 15 443 118zM1002 408q-4 -38 -4 -72q0 -94 30 -156q54 -110 196 -110q105 0 156 35 q92 63 113 144h122q-36 -127 -171 -216q-93 -62 -278.5 -62t-285.5 153q-13 20 -24 41q-17 -21 -37 -41q-153 -153 -363 -153q-208 0 -308 153q-70 107 -70 261q0 69 14 147q44 254 197.5 407t363 153t309.5 -153q12 -19 22 -40q17 20 36 39q152 154 368 154q352 0 352 -277 q0 -203 -185 -302q-188 -101 -553 -105z" />
<glyph unicode="&#x154;" horiz-adv-x="1387" d="M0 0zM972 1900h178l-283 -264h-105zM882 741q60 -19 97.5 -64.5t58.5 -127.5l118 -443h164l-19 -106h-316l-127 475q-36 138 -79.5 178.5t-131.5 40.5h-201l-103 -588h190l-18 -106h-544l19 106h171l224 1280h-171l18 107h682q196 0 284.5 -104t54.5 -295 q-27 -154 -120 -242.5t-251 -110.5zM465 801h265q136 0 213.5 71.5t103.5 221.5t-26 221t-188 71h-266z" />
<glyph unicode="&#x155;" horiz-adv-x="881" d="M129 0zM831 1590h179l-372 -376h-106zM972 1065l-47 -266h-95q2 20 2 37q0 52 -21 81q-28 39 -96 39q-122 0 -204 -94t-112 -270l-104 -592h-166l168 958h-158l18 105h324l-33 -189q68 111 154 164.5t196 53.5q40 0 83.5 -7t90.5 -20z" />
<glyph unicode="&#x156;" horiz-adv-x="1387" d="M0 0zM604 -381q69 42 100.5 98t31.5 136v22h142q-6 -103 -59 -176q-52 -74 -157 -128zM882 741q60 -19 97.5 -64.5t58.5 -127.5l118 -443h164l-19 -106h-316l-127 475q-36 138 -79.5 178.5t-131.5 40.5h-201l-103 -588h190l-18 -106h-544l19 106h171l224 1280h-171 l18 107h682q196 0 284.5 -104t54.5 -295q-27 -154 -120 -242.5t-251 -110.5zM465 801h265q136 0 213.5 71.5t103.5 221.5t-26 221t-188 71h-266z" />
<glyph unicode="&#x157;" horiz-adv-x="881" d="M129 0zM201 -381q69 42 100.5 98t31.5 136v22h142q-6 -103 -59 -176q-52 -74 -157 -128zM972 1065l-47 -266h-95q2 20 2 37q0 52 -21 81q-28 39 -96 39q-122 0 -204 -94t-112 -270l-104 -592h-166l168 958h-158l18 105h324l-33 -189q68 111 154 164.5t196 53.5 q40 0 83.5 -7t90.5 -20z" />
<glyph unicode="&#x158;" horiz-adv-x="1387" d="M0 0zM882 741q60 -19 97.5 -64.5t58.5 -127.5l118 -443h164l-19 -106h-316l-127 475q-36 138 -79.5 178.5t-131.5 40.5h-201l-103 -588h190l-18 -106h-544l19 106h171l224 1280h-171l18 107h682q196 0 284.5 -104t54.5 -295q-27 -154 -120 -242.5t-251 -110.5zM465 801 h265q136 0 213.5 71.5t103.5 221.5t-26 221t-188 71h-266zM764 1635l-161 264h104l154 -162l211 162h105l-255 -264h-158z" />
<glyph unicode="&#x159;" horiz-adv-x="881" d="M129 0zM972 1065l-47 -266h-95q2 20 2 37q0 52 -21 81q-28 39 -96 39q-122 0 -204 -94t-112 -270l-104 -592h-166l168 958h-158l18 105h324l-33 -189q68 111 154 164.5t196 53.5q40 0 83.5 -7t90.5 -20zM570 1262l-145 376h104l137 -260l229 260h104l-278 -376h-151z" />
<glyph unicode="&#x15a;" horiz-adv-x="1262" d="M53 0zM972 1900h178l-283 -264h-105zM53 72l60 340l103 -1q-25 -170 45 -251.5t241 -81.5q161 0 257.5 70.5t119.5 205.5q19 108 -21.5 166t-194.5 113l-167 59q-182 65 -243.5 162t-32.5 266q34 190 173.5 295t359.5 105q93 0 201 -22.5t226 -65.5l-55 -318h-102 q12 158 -55 228.5t-230 70.5q-142 0 -227.5 -64.5t-107.5 -187.5q-19 -107 26.5 -168t215.5 -121l157 -55q172 -61 233 -155.5t34 -253.5q-38 -217 -182.5 -327t-391.5 -110q-111 0 -221.5 25t-220.5 76z" />
<glyph unicode="&#x15b;" horiz-adv-x="945" d="M21 0zM831 1590h179l-372 -376h-106zM64 307h95q-3 -29 -3 -55q0 -182 222 -182q223 0 256 182q2 18 2 50q0 31 -30.5 68.5t-159.5 86.5l-112 45q-115 44 -152.5 100.5t-37.5 121.5q0 26 4 56q27 146 137.5 229t270.5 83t327 -86l-41 -232h-95q4 23 4 43 q0 73 -45.5 124.5t-151.5 51.5q-211 0 -240 -164q-4 -17 -4 -47q0 -31 29.5 -66t143.5 -77l124 -45q127 -47 175 -118q33 -50 33 -99q0 -210 -151 -319q-119 -87 -300.5 -87t-342.5 88z" />
<glyph unicode="&#x15c;" horiz-adv-x="1262" d="M53 0zM776 1899h159l161 -264h-104l-154 161l-212 -161h-104zM53 72l60 340l103 -1q-25 -170 45 -251.5t241 -81.5q161 0 257.5 70.5t119.5 205.5q19 108 -21.5 166t-194.5 113l-167 59q-182 65 -243.5 162t-32.5 266q34 190 173.5 295t359.5 105q93 0 201 -22.5 t226 -65.5l-55 -318h-102q12 158 -55 228.5t-230 70.5q-142 0 -227.5 -64.5t-107.5 -187.5q-19 -107 26.5 -168t215.5 -121l157 -55q172 -61 233 -155.5t34 -253.5q-38 -217 -182.5 -327t-391.5 -110q-111 0 -221.5 25t-220.5 76z" />
<glyph unicode="&#x15d;" horiz-adv-x="945" d="M21 0zM604 1638h151l145 -376h-104l-137 260l-228 -260h-105zM64 307h95q-3 -29 -3 -55q0 -182 222 -182q223 0 256 182q2 18 2 50q0 31 -30.5 68.5t-159.5 86.5l-112 45q-115 44 -152.5 100.5t-37.5 121.5q0 26 4 56q27 146 137.5 229t270.5 83t327 -86l-41 -232h-95 q4 23 4 43q0 73 -45.5 124.5t-151.5 51.5q-211 0 -240 -164q-4 -17 -4 -47q0 -31 29.5 -66t143.5 -77l124 -45q127 -47 175 -118q33 -50 33 -99q0 -210 -151 -319q-119 -87 -300.5 -87t-342.5 88z" />
<glyph unicode="&#x15e;" horiz-adv-x="1262" d="M53 0zM53 72l60 340l103 -1q-25 -170 45 -251.5t241 -81.5q161 0 257.5 70.5t119.5 205.5q19 108 -21.5 166t-194.5 113l-167 59q-182 65 -243.5 162t-32.5 266q34 190 173.5 295t359.5 105q93 0 201 -22.5t226 -65.5l-55 -318h-102q12 158 -55 228.5t-230 70.5 q-142 0 -227.5 -64.5t-107.5 -187.5q-19 -107 26.5 -168t215.5 -121l157 -55q172 -61 233 -155.5t34 -253.5q-38 -217 -182.5 -327t-391.5 -110q-111 0 -221.5 25t-220.5 76zM537 0q46 -64 64.5 -120t10.5 -105q-14 -81 -78.5 -125.5t-165.5 -44.5q-38 0 -76.5 6t-77.5 18 l22 131q34 -17 68.5 -25.5t65.5 -8.5q51 0 85.5 26.5t42.5 71.5q5 28 -7 72t-42 104h88z" />
<glyph unicode="&#x15f;" horiz-adv-x="945" d="M21 0zM64 307h95q-3 -29 -3 -55q0 -182 222 -182q223 0 256 182q2 18 2 50q0 31 -30.5 68.5t-159.5 86.5l-112 45q-115 44 -152.5 100.5t-37.5 121.5q0 26 4 56q27 146 137.5 229t270.5 83t327 -86l-41 -232h-95q4 23 4 43q0 73 -45.5 124.5t-151.5 51.5 q-211 0 -240 -164q-4 -17 -4 -47q0 -31 29.5 -66t143.5 -77l124 -45q127 -47 175 -118q33 -50 33 -99q0 -210 -151 -319q-119 -87 -300.5 -87t-342.5 88zM413 0q46 -64 64.5 -120t10.5 -105q-14 -81 -78.5 -125.5t-165.5 -44.5q-38 0 -76.5 6t-77.5 18l22 131 q34 -17 68.5 -25.5t65.5 -8.5q51 0 85.5 26.5t42.5 71.5q5 28 -7 72t-42 104h88z" />
<glyph unicode="&#x160;" horiz-adv-x="1262" d="M53 0zM53 72l60 340l103 -1q-25 -170 45 -251.5t241 -81.5q161 0 257.5 70.5t119.5 205.5q19 108 -21.5 166t-194.5 113l-167 59q-182 65 -243.5 162t-32.5 266q34 190 173.5 295t359.5 105q93 0 201 -22.5t226 -65.5l-55 -318h-102q12 158 -55 228.5t-230 70.5 q-142 0 -227.5 -64.5t-107.5 -187.5q-19 -107 26.5 -168t215.5 -121l157 -55q172 -61 233 -155.5t34 -253.5q-38 -217 -182.5 -327t-391.5 -110q-111 0 -221.5 25t-220.5 76zM738 1635l-161 264h104l154 -162l211 162h105l-255 -264h-158z" />
<glyph unicode="&#x161;" horiz-adv-x="945" d="M21 0zM64 307h95q-3 -29 -3 -55q0 -182 222 -182q223 0 256 182q2 18 2 50q0 31 -30.5 68.5t-159.5 86.5l-112 45q-115 44 -152.5 100.5t-37.5 121.5q0 26 4 56q27 146 137.5 229t270.5 83t327 -86l-41 -232h-95q4 23 4 43q0 73 -45.5 124.5t-151.5 51.5 q-211 0 -240 -164q-4 -17 -4 -47q0 -31 29.5 -66t143.5 -77l124 -45q127 -47 175 -118q33 -50 33 -99q0 -210 -151 -319q-119 -87 -300.5 -87t-342.5 88zM536 1262l-145 376h104l137 -260l229 260h104l-278 -376h-151z" />
<glyph unicode="&#x162;" horiz-adv-x="1229" d="M87 0zM521 0q46 -64 64.5 -120t10.5 -105q-14 -81 -78.5 -125.5t-165.5 -44.5q-38 0 -76.5 6t-77.5 18l22 131q34 -17 68.5 -25.5t65.5 -8.5q51 0 85.5 26.5t42.5 71.5q5 28 -7 72t-42 104h88zM221 0l19 106h172l222 1268h-396l-40 -233h-111l62 352h1193l-62 -352h-110 l40 233h-395l-221 -1268h171l-18 -106h-526z" />
<glyph unicode="&#x163;" horiz-adv-x="740" d="M70 0zM393 0q46 -64 64.5 -120t10.5 -105q-14 -81 -78.5 -125.5t-165.5 -44.5q-38 0 -76.5 6t-77.5 18l22 131q34 -17 68.5 -25.5t65.5 -8.5q51 0 85.5 26.5t42.5 71.5q5 28 -7 72t-42 104h88zM247 956h-146l19 107h146l57 330h167l-58 -330h311l-18 -107h-312l-118 -675 q-14 -79 -14 -125q0 -32 7 -48q17 -38 80 -38q65 0 102 42.5t56 137.5h125q-33 -145 -108.5 -212t-206.5 -67q-143 0 -190 71q-29 43 -29 123q0 51 12 116z" />
<glyph unicode="&#x164;" horiz-adv-x="1229" d="M87 0zM221 0l19 106h172l222 1268h-396l-40 -233h-111l62 352h1193l-62 -352h-110l40 233h-395l-221 -1268h171l-18 -106h-526zM715 1635l-161 264h104l154 -162l211 162h105l-255 -264h-158z" />
<glyph unicode="&#x165;" horiz-adv-x="740" d="M101 0zM247 956h-146l19 107h146l57 330h167l-58 -330h311l-18 -107h-312l-118 -675q-14 -79 -14 -125q0 -32 7 -48q17 -38 80 -38q65 0 102 42.5t56 137.5h125q-33 -145 -108.5 -212t-206.5 -67q-143 0 -190 71q-29 43 -29 123q0 51 12 116zM697 1613h179l-195 -376 h-106z" />
<glyph unicode="&#x166;" horiz-adv-x="1229" d="M221 0l19 106h172l100 573h-239l20 119h240l101 576h-396l-40 -233h-111l62 352h1193l-62 -352h-110l40 233h-395l-100 -576h239l-21 -119h-239l-100 -573h171l-18 -106h-526z" />
<glyph unicode="&#x167;" horiz-adv-x="740" d="M247 956h-146l19 107h146l57 330h167l-58 -330h311l-19 -107h-311l-40 -233h171l-26 -142h-171l-52 -300q-13 -79 -13 -125q0 -32 6 -48q17 -38 80 -38q65 0 102 42q38 43 56 138h125q-33 -145 -108.5 -212t-205.5 -67q-143 0 -190 71q-30 43 -30 123q0 51 12 116l52 300 h-122l26 142h121z" />
<glyph unicode="&#x168;" horiz-adv-x="1553" d="M201 0zM1001 1715l-38 28q-16 13 -33 20t-32 7q-35 0 -64 -29q-28 -28 -39 -74l-87 1q19 100 76 159q55 59 132 59q32 0 59 -9q26 -9 71 -40l39 -26q18 -13 37 -20q18 -7 33 -7q37 0 63 27q27 28 35 75h87q-20 -105 -77 -162q-55 -57 -140 -57q-60 0 -118 45zM373 1386 h-172l19 107h525l-19 -107h-171l-136 -772q-50 -286 14.5 -399t270.5 -113t310 113t154 399l135 772h-172l19 107h454l-19 -107h-171l-139 -792q-59 -341 -201.5 -482t-425.5 -141t-378 142t-36 481z" />
<glyph unicode="&#x169;" horiz-adv-x="1187" d="M126 0zM698 1370l-42 55q-19 24 -32 31q-14 8 -31 8q-38 0 -66 -40q-29 -39 -46 -115h-87q26 135 84 209q59 73 141 73q34 0 61 -14q26 -14 54 -47l41 -55q16 -23 31 -31q13 -8 32 -8q39 0 67.5 40t45.5 115h86q-25 -135 -84 -209q-58 -73 -140 -73q-34 0 -61 14 q-26 14 -54 47zM892 1063h166l-168 -957h157l-19 -106h-322l33 188q-65 -106 -147.5 -161.5t-178.5 -55.5q-159 0 -217 101q-35 60 -35 163q0 67 15 152l100 569h-150l19 107h316l-108 -619q-18 -103 -18 -171q0 -61 14 -95q30 -72 140 -72q115 0 191.5 94t108.5 273z" />
<glyph unicode="&#x16a;" horiz-adv-x="1553" d="M201 0zM729 1842h539l-26 -148h-538zM373 1386h-172l19 107h525l-19 -107h-171l-136 -772q-50 -286 14.5 -399t270.5 -113t310 113t154 399l135 772h-172l19 107h454l-19 -107h-171l-139 -792q-59 -341 -201.5 -482t-425.5 -141t-378 142t-36 481z" />
<glyph unicode="&#x16b;" horiz-adv-x="1187" d="M126 0zM464 1526h539l-26 -148h-538zM892 1063h166l-168 -957h157l-19 -106h-322l33 188q-65 -106 -147.5 -161.5t-178.5 -55.5q-159 0 -217 101q-35 60 -35 163q0 67 15 152l100 569h-150l19 107h316l-108 -619q-18 -103 -18 -171q0 -61 14 -95q30 -72 140 -72 q115 0 191.5 94t108.5 273z" />
<glyph unicode="&#x16c;" horiz-adv-x="1553" d="M201 0zM782 1901h85q6 -55 49 -82t126 -27t136 27t79 82h85q-39 -117 -122 -180q-83 -62 -201 -62q-119 0 -179.5 62t-57.5 180zM373 1386h-172l19 107h525l-19 -107h-171l-136 -772q-50 -286 14.5 -399t270.5 -113t310 113t154 399l135 772h-172l19 107h454l-19 -107 h-171l-139 -792q-59 -341 -201.5 -482t-425.5 -141t-378 142t-36 481z" />
<glyph unicode="&#x16d;" horiz-adv-x="1187" d="M126 0zM433 1608h86q-1 -79 39 -114q41 -36 131 -36t143 36q53 35 78 114h87q-35 -143 -118.5 -215t-214 -72t-189 72t-42.5 215zM892 1063h166l-168 -957h157l-19 -106h-322l33 188q-65 -106 -147.5 -161.5t-178.5 -55.5q-159 0 -217 101q-35 60 -35 163q0 67 15 152 l100 569h-150l19 107h316l-108 -619q-18 -103 -18 -171q0 -61 14 -95q30 -72 140 -72q115 0 191.5 94t108.5 273z" />
<glyph unicode="&#x16e;" horiz-adv-x="1553" d="M201 0zM373 1386h-172l19 107h525l-19 -107h-171l-136 -772q-50 -286 14.5 -399t270.5 -113t310 113t154 399l135 772h-172l19 107h454l-19 -107h-171l-139 -792q-59 -341 -201.5 -482t-425.5 -141t-378 142t-36 481zM1269.5 1879q-19.5 -115 -105 -195t-189 -80 t-161.5 80t-38 195t105 194q86 80 189.5 80t161.5 -80q57 -79 37.5 -194zM1160 1879q10 63 -21 107q-32 44 -90 44q-59 0 -105 -43q-46 -44 -58 -108q-12 -65 21 -108q31 -44 90 -44q57 0 104 44q48 44 59 108z" />
<glyph unicode="&#x16f;" horiz-adv-x="1187" d="M126 0zM892 1063h166l-168 -957h157l-19 -106h-322l33 188q-65 -106 -147.5 -161.5t-178.5 -55.5q-159 0 -217 101q-35 60 -35 163q0 67 15 152l100 569h-150l19 107h316l-108 -619q-18 -103 -18 -171q0 -61 14 -95q30 -72 140 -72q115 0 191.5 94t108.5 273zM951.5 1504 q-19.5 -115 -105 -195t-189 -80t-161.5 80t-38 195t105 194q86 80 189.5 80t161.5 -80q57 -79 37.5 -194zM842 1504q10 63 -21 107q-32 44 -90 44q-59 0 -105 -43q-46 -44 -58 -108q-12 -65 21 -108q31 -44 90 -44q57 0 104 44q48 44 59 108z" />
<glyph unicode="&#x170;" horiz-adv-x="1553" d="M201 0zM1330 1899h177l-282 -264h-106zM1045 1899h177l-283 -264h-105zM373 1386h-172l19 107h525l-19 -107h-171l-136 -772q-50 -286 14.5 -399t270.5 -113t310 113t154 399l135 772h-172l19 107h454l-19 -107h-171l-139 -792q-59 -341 -201.5 -482t-425.5 -141 t-378 142t-36 481z" />
<glyph unicode="&#x171;" horiz-adv-x="1187" d="M126 0zM687 1638h153l-286 -376h-103zM984 1638h160l-325 -376h-104zM892 1063h166l-168 -957h157l-19 -106h-322l33 188q-65 -106 -147.5 -161.5t-178.5 -55.5q-159 0 -217 101q-35 60 -35 163q0 67 15 152l100 569h-150l19 107h316l-108 -619q-18 -103 -18 -171 q0 -61 14 -95q30 -72 140 -72q115 0 191.5 94t108.5 273z" />
<glyph unicode="&#x172;" horiz-adv-x="1553" d="M201 0zM608 -16h85l-1 -2q-100 -123 -108 -170q-8 -46 17 -74t75 -28q25 0 52 6.5t56 19.5l-23 -127q-34 -9 -64.5 -13.5t-59.5 -4.5q-102 0 -150 44.5t-34 125.5q9 49 45 101.5t110 121.5zM373 1386h-172l19 107h525l-19 -107h-171l-136 -772q-50 -286 14.5 -399 t270.5 -113t310 113t154 399l135 772h-172l19 107h454l-19 -107h-171l-139 -792q-59 -341 -201.5 -482t-425.5 -141t-378 142t-36 481z" />
<glyph unicode="&#x173;" horiz-adv-x="1187" d="M126 0zM879 0h85l-1 -2q-100 -123 -108 -170q-8 -46 17 -74t75 -28q25 0 52 6.5t56 19.5l-23 -127q-34 -9 -64.5 -13.5t-59.5 -4.5q-102 0 -150 44.5t-34 125.5q9 49 45 101.5t110 121.5zM892 1063h166l-168 -957h157l-19 -106h-322l33 188q-65 -106 -147.5 -161.5 t-178.5 -55.5q-159 0 -217 101q-35 60 -35 163q0 67 15 152l100 569h-150l19 107h316l-108 -619q-18 -103 -18 -171q0 -61 14 -95q30 -72 140 -72q115 0 191.5 94t108.5 273z" />
<glyph unicode="&#x174;" horiz-adv-x="1894" d="M121 0zM1274 0h-147l-96 1214l-520 -1214h-147l-110 1386h-133l19 107h490l-19 -107h-167l87 -1103l518 1210h145l98 -1223l477 1116h-155l19 107h387l-19 -107h-132zM1072 1906h159l161 -264h-104l-154 161l-212 -161h-104z" />
<glyph unicode="&#x175;" horiz-adv-x="1577" d="M104 0zM913 1638h151l145 -376h-104l-137 260l-228 -260h-105zM1077 233q120 144 147 197q99 200 196 526l-139 -1l19 108h240l-19 -108h-1q-91 -371 -179 -550q-129 -255 -270 -405h-138l-98 795l-375 -795h-133l-116 956l-107 -2l19 109h246l101 -830l392 830h116z" />
<glyph unicode="&#x176;" horiz-adv-x="1216" d="M91 0zM218 0l18 106h172l94 537l-285 743h-126l19 107h499l-18 -107h-157l230 -604l441 604h-151l19 107h391l-19 -107h-127l-531 -724l-97 -556h172l-19 -106h-525zM728 1906h159l161 -264h-104l-154 161l-212 -161h-104z" />
<glyph unicode="&#x177;" horiz-adv-x="1041" d="M0 0zM637 1638h151l145 -376h-104l-137 260l-228 -260h-105zM1060 1054q-89 -572 -246 -874q-229 -443 -414 -576q-81 -59 -297 -59q-43 0 -85.5 8t-85.5 23l36 203h84q-2 -16 -2 -31q0 -42 17 -66q22 -34 81 -34q158 0 296 153l-226 1155h-109l19 107h247l213 -1055 q145 241 180 340q113 311 136 599h-109l19 107h246z" />
<glyph unicode="&#x178;" horiz-adv-x="1216" d="M91 0zM218 0l18 106h172l94 537l-285 743h-126l19 107h499l-18 -107h-157l230 -604l441 604h-151l19 107h391l-19 -107h-127l-531 -724l-97 -556h172l-19 -106h-525zM666 1884q43 0 68 -35t17 -81q-9 -50 -45 -83q-36 -34 -81 -34t-69 34q-24 33 -15 83q8 46 45 81 q38 35 80 35zM1017 1884q42 0 67 -35t17 -81q-9 -50 -45 -83q-36 -34 -80 -34q-45 0 -70 34q-24 33 -15 83q8 46 45 81q38 35 81 35z" />
<glyph unicode="&#x179;" horiz-adv-x="1280" d="M0 0zM972 1900h178l-283 -264h-105zM-48 0l13 72l1064 1298h-695l-39 -223h-111l61 346h1062l-13 -72l-1064 -1298h760l36 209h110l-58 -332h-1126z" />
<glyph unicode="&#x17a;" horiz-adv-x="971" d="M0 0zM831 1590h179l-372 -376h-106zM733 975q98 0 192 88h54l-15 -86l-654 -758l36 -12q30 -11 61 -33l44 -30q85 -57 145 -57q118 0 257 150l-21 -121q-155 -168 -271 -168q-71 2 -171 71t-163 69q-98 0 -192 -88h-54l15 86l654 757q-9 4 -35 13q-31 11 -62 33l-43 30 q-86 57 -146 57q-118 0 -257 -150l21 121q155 168 272 168q70 -2 170.5 -71t162.5 -69z" />
<glyph unicode="&#x17b;" horiz-adv-x="1280" d="M0 0zM-48 0l13 72l1064 1298h-695l-39 -223h-111l61 346h1062l-13 -72l-1064 -1298h760l36 209h110l-58 -332h-1126zM851.5 1904q42.5 0 67.5 -35t17 -81q-9 -50 -45 -83q-36 -34 -81 -34t-69 34q-25 33 -16 83q8 46 46 81t80.5 35z" />
<glyph unicode="&#x17c;" horiz-adv-x="971" d="M0 0zM694.5 1503q43.5 0 68.5 -35q24 -34 16 -82q-9 -51 -44 -84q-36 -33 -82 -33t-69 33q-24 33 -16 84q9 48 46 82q37 35 80.5 35zM733 975q98 0 192 88h54l-15 -86l-654 -758l36 -12q30 -11 61 -33l44 -30q85 -57 145 -57q118 0 257 150l-21 -121q-155 -168 -271 -168 q-71 2 -171 71t-163 69q-98 0 -192 -88h-54l15 86l654 757q-9 4 -35 13q-31 11 -62 33l-43 30q-86 57 -146 57q-118 0 -257 -150l21 121q155 168 272 168q70 -2 170.5 -71t162.5 -69z" />
<glyph unicode="&#x17d;" horiz-adv-x="1280" d="M0 0zM-48 0l13 72l1064 1298h-695l-39 -223h-111l61 346h1062l-13 -72l-1064 -1298h760l36 209h110l-58 -332h-1126zM748 1635l-161 264h104l154 -162l211 162h105l-255 -264h-158z" />
<glyph unicode="&#x17e;" horiz-adv-x="971" d="M0 0zM733 975q98 0 192 88h54l-15 -86l-654 -758l36 -12q30 -11 61 -33l44 -30q85 -57 145 -57q118 0 257 150l-21 -121q-155 -168 -271 -168q-71 2 -171 71t-163 69q-98 0 -192 -88h-54l15 86l654 757q-9 4 -35 13q-31 11 -62 33l-43 30q-86 57 -146 57 q-118 0 -257 -150l21 121q155 168 272 168q70 -2 170.5 -71t162.5 -69zM549 1262l-145 376h104l137 -260l229 260h104l-278 -376h-151z" />
<glyph unicode="&#x17f;" horiz-adv-x="682" d="M918 1305h-87q3 21 3 40q0 46 -21 74q-31 39 -102 39q-93 0 -140.5 -56.5t-72.5 -201.5l-222 -1266q-31 -178 -130 -269t-260 -91l10 98q95 0 141 56q48 60 74 206l178 1022h-159l19 107h159l23 133q32 178 131 269t260 91q60 0 118 -12t114 -37z" />
<glyph unicode="&#x180;" horiz-adv-x="1179" d="M332 1450h-158l19 106h324l-40 -224h285l-21 -122h-285l-55 -313q66 100 149.5 147.5t194.5 47.5q176 0 261 -155q56 -102 56 -245q0 -75 -15 -160q-44 -250 -183 -405.5t-315 -155.5q-111 0 -177.5 47.5t-98.5 147.5l-29 -166h-165l212 1210h-159l21 122h159zM328 479 q-14 -79 -14 -142q0 -91 29 -151q49 -100 175 -100q127 0 212 113t123 333q18 101 18 180q0 92 -25 153q-45 112 -172 112q-126 0 -210 -101t-117 -292z" />
<glyph unicode="&#x181;" horiz-adv-x="1354" d="M385 1386q-205 0 -281 -89q-80 -91 -113 -277h-116l60 344q105 76 274 112q106 17 194 17h493q201 0 289 -93q88 -92 56 -276q-24 -133 -109 -212t-226 -97q168 -24 239 -121q71 -98 42 -262q-39 -222 -183.5 -327t-411.5 -105h-621l19 106h171zM476 862h228 q148 0 227 63t103 199q27 157 -33 200q-85 62 -205 62h-229zM343 106h269q162 0 250.5 78t118.5 248q29 167 -32 246q-60 78 -223 78h-269z" />
<glyph unicode="&#x182;" horiz-adv-x="1354" d="M0 0zM343 106h269q162 0 250.5 78t118.5 248q10 55 10 101q0 93 -41 145q-61 78 -224 78h-269zM232 1493h1081l-58 -333h-111l37 210h-617l-89 -508h229q342 0 441 -168q49 -86 49 -186q0 -37 -7 -76q-39 -222 -183 -327t-412 -105h-621l18 106h171l224 1280h-171z" />
<glyph unicode="&#x183;" horiz-adv-x="1179" d="M328 479q-33 -192 16 -293q48 -100 174 -100q127 0 211 113q86 113 124 333q39 221 -7 333q-45 112 -172 112q-126 0 -210 -101t-117 -292zM1049 1556l-46 -267h-95l25 144h-438l-94 -536q66 100 150 147q83 48 194 48q176 0 260.5 -155t41 -405t-182.5 -406 q-139 -155 -315 -155q-111 0 -177 47q-67 48 -99 148l-29 -166h-324l18 106h159l235 1344h-159l19 106h857z" />
<glyph unicode="&#x184;" horiz-adv-x="1354" d="M343 106h269q162 0 250.5 78t118.5 248q29 169 -31.5 246.5t-223.5 77.5h-269zM163 1098l423 395l-110 -631h228q342 0 441 -168q67 -118 42 -262q-39 -222 -183.5 -327t-411.5 -105h-621l19 106h171l155 886h-171z" />
<glyph unicode="&#x185;" horiz-adv-x="1179" d="M328 479q-33 -192 15.5 -292.5t174.5 -100.5q127 0 212 113t123 333q39 221 -6.5 333t-172.5 112q-126 0 -210 -101t-117 -292zM517 1556l-116 -659q66 100 149.5 147.5t194.5 47.5q176 0 260.5 -155t41 -405t-182.5 -405.5t-315 -155.5q-111 0 -177.5 47.5t-98.5 147.5 l-29 -166h-324l18 106h159l179 1019h-160l22 126z" />
<glyph unicode="&#x186;" horiz-adv-x="1410" d="M165 1096q96 209 254.5 316.5t372.5 107.5q132 0 235.5 -50t174.5 -147q81 -112 105 -254.5t-7 -322.5q-61 -348 -279.5 -561.5t-514.5 -213.5q-110 0 -228.5 32t-250.5 97l61 344h101q1 -188 85.5 -277t265.5 -89q215 0 355.5 169.5t198.5 498.5q57 328 -24 497.5 t-296 169.5q-151 0 -262 -79.5t-182 -237.5h-165z" />
<glyph unicode="&#x187;" horiz-adv-x="1410" d="M1229 395q-96 -209 -256 -317q-158 -107 -372 -107q-131 0 -235 50t-174 147q-81 112 -105 254q-25 143 7 323q61 348 279 561q218 214 514 214q110 0 229 -32q85 -23 176 -63q15 87 98 145q78 60 181 60q65 0 121 -16q56 -17 106 -50l-39 -219h-85q17 96 -20 141 q-30 45 -104 45q-82 0 -131.5 -61t-72.5 -191l-40 -232h-102q0 188 -85 277t-266 89q-215 0 -355 -169q-141 -170 -198 -499q-57 -328 24 -497q81 -170 296 -170q150 0 261 80q111 79 182 237h166z" />
<glyph unicode="&#x188;" horiz-adv-x="1032" d="M892 319q-65 -170 -180.5 -259t-274.5 -89q-208 0 -308 153q-100 154 -56 408q45 255 198 408q154 152 363 152q90 0 176 -24q42 -11 84 -29q41 144 127 216q63 53 175 53q65 0 121 -16q56 -17 106 -50l-38 -219h-86q17 96 -19 141q-31 45 -105 45q-82 0 -132 -61 q-49 -61 -71 -191l-41 -232h-96q5 140 -46 204q-53 64 -171 64q-134 0 -223 -115q-88 -116 -128.5 -346t6.5 -346q49 -116 184 -116q107 0 181.5 62t119.5 187h134z" />
<glyph unicode="&#x189;" horiz-adv-x="1487" d="M0 0zM351 106h169q262 0 431.5 166t223.5 476t-57.5 474t-373.5 164h-170l-94 -542h302l-22 -125h-302zM-20 0l19 106h171l107 613h-180l22 125h180l95 542h-171l18 107h535q347 0 506.5 -197t98.5 -548q-62 -352 -291 -550t-575 -198h-535z" />
<glyph unicode="&#x18a;" horiz-adv-x="1477" d="M385 1386q-205 0 -281 -89q-80 -91 -113 -277h-116l60 344q142 103 274 112q87 17 194 17h364q347 0 506 -197q160 -197 99 -548q-62 -352 -291 -550t-575 -198h-535l19 106h171zM343 106h168q262 0 430 166q170 166 224 476t-57 474t-373 164h-168z" />
<glyph unicode="&#x18b;" horiz-adv-x="1354" d="M776 106l114 650h-269q-163 0 -251 -78q-88 -77 -117 -246q-30 -170 31 -248t223 -78h269zM1373 1493l-19 -107h-171l-224 -1280h171l-19 -106h-621q-267 0 -374.5 105t-68.5 327q25 144 134 262q157 168 499 168h229l88 508h-616l-37 -209h-110l58 332h1081z" />
<glyph unicode="&#x18c;" horiz-adv-x="1179" d="M713 479l18 105q33 191 -15 292q-49 101 -175 101q-127 0 -212 -112q-84 -112 -123 -333q-38 -220 7 -333q46 -113 172 -113t211 100q83 101 117 293zM368 1556h858l-19 -106h-159l-235 -1344h159l-18 -106h-325l29 166q-66 -100 -149 -148q-84 -47 -195 -47 q-176 0 -261 155q-84 156 -40.5 406t182.5 405t315 155q111 0 178 -48q67 -47 98 -147l93 536h-438l-25 -144h-95z" />
<glyph unicode="&#x18d;" horiz-adv-x="1109" d="M733 27q55 -25 76 -74q24 -56 0 -193q-22 -129 -122 -197q-100 -67 -277 -67q-48 0 -139 16q-91 17 -186 48l34 197l102 25q-5 -89 52 -135q57 -45 141.5 -45t155.5 49q75 52 83 118q17 95 -11 127q-56 75 -144 75q-210 0 -310 153q-99 153 -54.5 407t196.5 407 q154 154 364 154q209 0 309 -154q100 -153 55.5 -407t-197.5 -407q-68 -67 -128 -97zM677 993q-134 0 -222 -117t-128 -345t7 -345q48 -116 181 -116t222 116q88 117 128 345t-8 345t-180 117z" />
<glyph unicode="&#x18e;" horiz-adv-x="1345" d="M1067 0h-1096l58 332h111l-37 -209h632l109 625h-440l-32 -187h-111l87 496h110l-32 -187h440l87 500h-617l-37 -209h-110l58 332h1081l-18 -107h-171l-224 -1280h171z" />
<glyph unicode="&#x18f;" horiz-adv-x="1511" d="M883 1413q-161 0 -272 -79q-111 -80 -182 -238h-165q96 209 254 316q159 108 373 108q293 0 435.5 -213t81.5 -562q-31 -179 -106 -323q-74 -142 -194 -254q-107 -98 -228 -148q-122 -49 -259 -49t-244 50q-105 50 -176 147q-81 112 -105 254t7 323l13 71h1096 q49 279 -36 428q-83 169 -293 169zM1192 694h-891q-51 -292 34 -448q83 -168 304 -168t363 168q139 156 190 448z" />
<glyph unicode="&#x190;" horiz-adv-x="1148" d="M1282 1430l-46 -263h-100q1 20 1 38q0 98 -51.5 157t-204.5 59t-230 -69.5t-101 -207.5q-6 -38 -6 -71q0 -87 47 -139q65 -72 262 -72h45l-19 -106h-85q-197 0 -294 -89.5t-126 -254.5q-8 -51 -8 -95q0 -97 44 -159q64 -88 187 -88t219.5 69t112.5 126h166 q-52 -105 -177 -199.5t-341.5 -94.5t-323.5 111q-79 84 -79 221q0 47 9 100q30 171 140 278.5t280 133.5q-134 32 -195 123q-44 65 -44 153q0 34 7 72q29 168 156.5 262.5t341.5 94.5t413 -90z" />
<glyph unicode="&#x191;" horiz-adv-x="1278" d="M-89 -426q-130 0 -250 68l41 235h103q-34 -196 127 -196q107 0 162 75q57 77 94 293l234 1337h-171l19 107h1099l-58 -332h-110l36 209h-635l-88 -500h459l33 187h111l-87 -496h-111l33 187h-459l-124 -707q-55 -313 -221 -412q-94 -55 -237 -55z" />
<glyph unicode="&#x192;" horiz-adv-x="682" d="M918 1305h-87q3 21 3 40q0 46 -21 74q-31 39 -102 39q-93 0 -140.5 -56.5t-72.5 -201.5l-24 -137h267l-19 -107h-267l-171 -975q-31 -178 -130 -269t-260 -91q-61 0 -119 12t-113 37l35 202h88q-4 -21 -4 -40q0 -46 22 -74q30 -39 102 -39q92 0 140 56.5t74 205.5 l170 975h-158l19 107h158l23 133q31 178 130.5 269t260.5 91q60 0 118.5 -12t113.5 -37z" />
<glyph unicode="&#x193;" horiz-adv-x="1472" d="M1568 1531q-113 0 -166 -118q-24 -54 -38 -134l-40 -232h-102l1 5q0 267 -182 335q-68 26 -163 26q-233 0 -376 -166t-202 -502q-93 -530 187 -640q70 -27 161 -27q203 0 390 112l67 385h-253l19 107h436l-98 -557q-266 -154 -580 -154q-304 0 -451 211q-146 212 -84 563 q62 354 282 565q221 210 531 210q191 0 400 -84q36 77 101 134q68 60 181 60q127 0 227 -66l-39 -219h-85q26 147 -68 177q-24 9 -56 9z" />
<glyph unicode="&#x194;" horiz-adv-x="1312" d="M567 733l-278 653h-144l18 107h533l-19 -107h-158l204 -481l380 481h-173l19 107h440l-19 -107h-151l-456 -575q380 -685 184 -855q-165 -144 -482 -144q-320 0 -339 200q-19 181 441 721zM609 636q-325 -378 -361 -580q-24 -138 236 -138q244 0 268 138q38 212 -143 580 z" />
<glyph unicode="&#x195;" horiz-adv-x="1718" d="M89 0l254 1450h-159l19 106h324l-119 -682q64 108 147 163q84 55 181 55q160 0 215 -101q57 -103 20 -315l-57 -325q-23 -131 5 -191t111 -61q112 0 235 130q101 107 135 297q26 154 -10 257q-38 102 -136 148l10 59h101q127 -64 185 -193q58 -130 31 -287 q-19 -111 -74 -207q-56 -98 -142 -172q-76 -67 -167 -102q-92 -36 -187 -36q-144 0 -224 101q-69 86 -39 257l47 267q33 195 3 266q-30 72 -140 72q-115 0 -191.5 -93t-107.5 -271l-104 -592h-166z" />
<glyph unicode="&#x196;" horiz-adv-x="728" d="M386 351q-23 -131 5 -191q29 -61 110 -61h12l-17 -99h-12q-181 0 -227 54q-88 101 -53 297l181 1035h-171l18 107h525l-19 -107h-171z" />
<glyph unicode="&#x197;" horiz-adv-x="728" d="M343 106h171l-18 -106h-525l19 106h171l91 522h-239l30 170h239l103 588h-171l18 107h525l-19 -107h-171l-103 -588h239l-30 -170h-238z" />
<glyph unicode="&#x198;" horiz-adv-x="1377" d="M1144 1386q157 131 268 131q61 0 116 -17q61 -18 107 -49l-38 -219h-86q17 96 -19 141q-27 38 -81 43q-78 0 -156 -60l-637 -533l520 -717h153l-19 -106h-312l-513 709l-106 -603h171l-18 -106h-525l19 106h171l223 1280h-171l19 107h525l-19 -107h-171l-99 -565z" />
<glyph unicode="&#x199;" horiz-adv-x="1116" d="M337 543l476 413h-138l18 107h269l-18 -107l-336 -292l266 -558h138l-18 -106h-266l-261 543l-154 -135l-71 -408h-166l211 1205q28 162 133 257q104 94 258 94q69 0 121 -16q56 -17 105 -50l-37 -219h-86q16 92 -21 141q-33 45 -103 45q-82 0 -131 -61q-49 -59 -72 -191 z" />
<glyph unicode="&#x19a;" horiz-adv-x="589" d="M-1 464l19 106h158l154 880h-159l18 106h325l-172 -986h157l-19 -106h-157l-63 -358h157l-18 -106h-323l82 464h-159z" />
<glyph unicode="&#x19b;" horiz-adv-x="1168" d="M570 1307q-17 92 -42 122q-26 31 -74 31q-54 0 -84 -29q-32 -30 -49 -98h-84l35 203q48 15 93 23q47 8 89 8q100 0 147 -46q47 -45 70 -169l149 98l39 -86l-170 -115l202 -1142h108l-19 -107h-359l18 107h144l-127 734l-412 -734h153l-18 -107h-440l18 107h109l543 977 l-17 99l-273 -187l-40 86l295 203z" />
<glyph unicode="&#x19c;" horiz-adv-x="1747" d="M717 207q-68 -117 -152.5 -176.5t-183.5 -59.5q-150 0 -206 103t-20 313l176 1002h-150l19 106h459l-19 -106h-144l-171 -981q-29 -163 2 -232t131 -69q111 0 185 93q75 94 106 271l160 918h-144l19 106h454l-19 -106h-144l-173 -988q-28 -159 3.5 -226.5t131.5 -67.5 q111 0 185 93q75 94 106 271l160 918h-144l19 106h459l-19 -106h-149l-225 -1284h159l-19 -105h-324l33 189q-64 -106 -145 -162t-171 -56q-112 0 -175.5 61.5t-69.5 174.5z" />
<glyph unicode="&#x19d;" horiz-adv-x="1612" d="M-340 -358l41 235h102q-17 -99 17 -147q31 -49 110 -49q107 0 162.5 75t93.5 293l234 1337h-181l19 107h345l599 -1178l187 1071h-180l19 107h472l-19 -107h-181l-248 -1415h-108l-640 1257l-208 -1187q-43 -247 -151.5 -357t-280.5 -110q-18 0 -81 17q-64 17 -123 51z " />
<glyph unicode="&#x19e;" horiz-adv-x="1187" d="M166 0l168 956h-158l18 107h324l-33 -189q65 108 148 163t181 55q158 0 214.5 -101t19.5 -315l-174 -995h148l-19 -107h-315l183 1044q34 195 4 268q-31 72 -140 72q-115 0 -191 -94q-77 -93 -108 -272l-104 -592h-166z" />
<glyph unicode="&#x19f;" horiz-adv-x="1511" d="M621 -29q-137 0 -243 50t-177 147q-81 112 -105 254t7.5 323t105.5 323.5t194 254.5q106 98 228 147.5t260 49.5q293 0 435.5 -213t81.5 -562q-31 -179 -106 -323q-74 -142 -194 -254q-106 -98 -228 -148q-122 -49 -259 -49zM639 78q221 0 363 168q130 156 190 448h-891 q-43 -292 34 -448q83 -168 304 -168zM1212 816q38 279 -36 428q-83 169 -303 169q-222 0 -364 -169q-126 -149 -186 -428h889z" />
<glyph unicode="&#x1a0;" horiz-adv-x="1511" d="M92 0zM1205 1313l16 94l2 -1q95 -87 138 -87q41 0 72 33.5t41 89.5q5 27 4 56t-7 59l114 -1q2 -36 0 -69.5t-8 -65.5q-19 -113 -70 -175t-124 -62q-44 0 -86 30t-92 99zM635 78q221 0 363 168.5t199 498.5q58 331 -25 499.5t-303 168.5q-222 0 -364 -168.5t-199 -499.5 q-58 -330 25 -498.5t304 -168.5zM617 -29q-137 0 -243 50t-177 147q-81 112 -105 254t7.5 323t105.5 323.5t194 254.5q106 98 228 147.5t260 49.5q293 0 435.5 -213t81.5 -562q-31 -179 -105.5 -322.5t-194.5 -254.5q-106 -98 -228 -147.5t-259 -49.5z" />
<glyph unicode="&#x1a1;" horiz-adv-x="1109" d="M75 0zM881 845l16 94l2 -1q95 -87 138 -87q41 0 72 33.5t41 89.5q5 27 4 56t-7 59l114 -1q2 -36 0 -69.5t-8 -65.5q-19 -113 -70 -175t-124 -62q-44 0 -86 30t-92 99zM471 70q133 0 221.5 117t128.5 345q18 104 18 185q0 96 -26 159q-48 117 -181 117t-221.5 -116.5 t-128.5 -344.5q-18 -104 -18 -184q0 -97 26 -161q48 -117 181 -117zM453 -29q-208 0 -308 153q-70 107 -70 261q0 69 14 147q44 254 197.5 407t363 153t309.5 -153q69 -106 69 -260q0 -69 -14 -147q-44 -254 -197.5 -407.5t-363.5 -153.5z" />
<glyph unicode="&#x1a2;" horiz-adv-x="1916" d="M646 -29q-137 0 -243 50t-176 147q-81 112 -105.5 254t7.5 323t106 323.5t194 254.5q105 98 227 147.5t261 49.5q183 0 308 -84q59 26 116 40q69 17 133 17q198 0 268 -110t26 -357l-217 -1240h171l-18 -107h-563l19 107h209l215 1232q38 218 9 293t-136 75 q-79 0 -127 -48q12 -15 22 -31q143 -213 82 -562q-31 -179 -106 -323q-74 -142 -195 -254q-106 -98 -227 -148q-122 -49 -260 -49zM665 78q220 0 362 168.5t200 498.5q58 331 -25 499.5t-304 168.5t-363 -168.5t-200 -499.5q-58 -330 25 -498.5t305 -168.5z" />
<glyph unicode="&#x1a3;" horiz-adv-x="1487" d="M904 1033q1 2 43 13q62 17 127 17q154 0 225.5 -93.5t42.5 -257.5l-181 -1031h158l-19 -107h-324l200 1138q23 129 -5.5 190.5t-110.5 61.5q-58 0 -72 -13l8 -12q100 -153 55.5 -407t-197.5 -407.5t-363 -153.5q-208 0 -308.5 153.5t-56 407.5t198 407t363.5 153 q129 0 216 -59zM508 70q134 0 222 117t128 345t-7.5 344.5t-181 116.5t-221.5 -116.5t-128 -344.5t8 -345t180 -117z" />
<glyph unicode="&#x1a4;" horiz-adv-x="1240" d="M403 1493h465q201 0 299 -113q98 -114 65 -307q-34 -192 -172 -306t-339 -114h-282l-96 -547h208l-18 -106h-562l19 106h171l224 1280q-205 0 -281 -89q-80 -91 -113 -277h-116l60 344q101 73 274 112q106 17 194 17zM458 760h237q134 0 219 80q84 81 111 233 q26 153 -30 233t-190 80h-238z" />
<glyph unicode="&#x1a5;" horiz-adv-x="1179" d="M389 584l-18 -105q-33 -192 15 -293q49 -100 175 -100q127 0 211 113q86 113 124 333q38 221 -8 333q-45 112 -172 112q-126 0 -209.5 -101t-117.5 -292zM316 1115q29 166 132 258q105 93 258 93q61 0 121 -17q56 -16 106 -49l-38 -219h-86q17 93 -19 141q-33 45 -104 45 q-82 0 -132 -62q-49 -60 -72 -190l-38 -218q64 98 150 147q83 48 194 48q176 0 260.5 -155t41 -405t-183.5 -406q-138 -155 -315 -155q-110 0 -177 47q-67 48 -98 148l-104 -592h-166z" />
<glyph unicode="&#x1a6;" horiz-adv-x="1387" d="M413 1386h-171l19 107h543l-18 -107h-190l-38 -218h327q196 0 285 -104q64 -75 64 -197q0 -46 -9 -98q-54 -309 -371 -353q59 -19 96.5 -64.5t59.5 -127.5l118 -443h163l-18 -106h-317l-127 475q-37 139 -79.5 179t-131.5 40h-200l-46 -263h190l-19 -106h-543l18 106h171 zM437 476h265q136 0 213.5 71.5t103.5 221.5q9 50 9 112t-35 109q-53 71 -189 71h-265z" />
<glyph unicode="&#x1a7;" horiz-adv-x="1262" d="M994 72q-128 -51 -247 -76t-230 -25q-247 0 -353 110t-68 327q28 159 122 254q94 94 288 155l176 55q191 60 257.5 121t85.5 168q21 123 -41 187q-64 65 -206 65q-163 0 -254 -71q-93 -70 -136 -228h-101l55 318q134 43 250 66q115 22 209 22q219 0 322 -105t70 -295 q-29 -169 -125 -266t-300 -162l-187 -59q-174 -55 -235 -113t-80 -166q-23 -135 49 -206q71 -70 232 -70q171 0 270 82q98 81 133 252h103z" />
<glyph unicode="&#x1a8;" horiz-adv-x="945" d="M769 59q-96 -44 -188 -66t-185 -22q-183 0 -272 87q-88 86 -62 237q20 111 92 181q72 71 216 118l139 45q129 42 177 83q47 40 59 107q14 82 -32 123t-151 41t-176.5 -58t-92.5 -161h-96l41 232q96 42 183.5 64t163.5 22q170 0 252 -83t56 -229q-18 -102 -85 -168 t-198 -110l-127 -45q-146 -49 -197 -92q-50 -43 -62 -113q-16 -89 35 -136q50 -46 162 -46q124 0 198 59q73 59 98 178h95z" />
<glyph unicode="&#x1a9;" horiz-adv-x="1303" d="M0 0zM876 814l-607 -626h702l25 144h110l-58 -332h-1104l729 748l-468 745h1105l-58 -332h-111l36 209h-625z" />
<glyph unicode="&#x1aa;" horiz-adv-x="597" d="M321 1459q-143 0 -162 -107q-22 -123 258 -123q13 0 26 1q24 95 -12 167q-30 62 -110 62zM616 1333q39 61 56 156l11 64h90l-12 -64q-41 -220 -166 -306q-175 -540 -403 -1288q-33 -109 6 -190q27 -62 109 -62q74 0 121 46q45 44 68 140h86l-38 -218q-62 -34 -123 -50 q-62 -16 -127 -16q-154 0 -225 93q-88 115 -43 257q-2 14 386 1234h-9q-484 0 -439 230q38 199 376 199q145 0 220 -93q48 -61 56 -132z" />
<glyph unicode="&#x1ab;" horiz-adv-x="740" d="M366 956h-146l19 107h146l58 330h166l-58 -330h312l-19 -107h-311l-118 -675q-24 -135 -7.5 -173t79.5 -38q65 0 102.5 42.5t55.5 137.5h125l-62 -354q-29 -164 -133 -257.5t-258 -93.5q-64 0 -120.5 16.5t-106.5 49.5l39 219h85q-10 -96 20 -141t104 -45q82 0 132 62 q49 60 72 190l15 87q-46 -12 -101 -12q-143 0 -190.5 70.5t-17.5 239.5z" />
<glyph unicode="&#x1ac;" horiz-adv-x="1229" d="M654 1493h688l-62 -352h-110l40 233h-395l-221 -1268h171l-18 -106h-526l19 106h172l222 1268q-205 0 -282 -89q-79 -91 -112 -277h-116l62 356q105 76 274 112q111 17 194 17z" />
<glyph unicode="&#x1ad;" horiz-adv-x="740" d="M418 1063h311l-19 -107h-311l-118 -675q-24 -135 -7 -173t80 -38q65 0 102 42q37 43 55 138h125q-25 -145 -108 -212q-75 -67 -206 -67q-143 0 -190 71q-47 70 -18 239l119 675h-146l18 107h146l25 142q28 162 133 257q104 94 258 94q69 0 121 -16q56 -17 106 -50 l-38 -219h-86q17 96 -20 141q-30 45 -104 45q-82 0 -131 -61q-49 -59 -72 -191z" />
<glyph unicode="&#x1ae;" horiz-adv-x="1229" d="M1005 -358q-72 -34 -140 -51q-70 -17 -134 -17q-198 0 -267.5 110t-25.5 357l233 1333h-395l-41 -233h-111l62 352h1193l-61 -352h-111l41 233h-395l-232 -1325q-38 -215 -9 -293q27 -75 136 -75q79 0 128 49q48 48 68 147h102z" />
<glyph unicode="&#x1af;" horiz-adv-x="1553" d="M196 0zM1385 1313l16 94l2 -1q95 -87 138 -87q41 0 72 33.5t41 89.5q5 27 4 56t-7 59l114 -1q2 -36 0 -69.5t-8 -65.5q-19 -113 -70 -175t-124 -62q-44 0 -86 30t-92 99zM368 1386h-172l19 107h525l-19 -107h-171l-136 -772q-50 -286 14.5 -399t270.5 -113t310 113 t154 399l135 772h-172l19 107h454l-19 -107h-171l-139 -792q-59 -341 -201.5 -482t-425.5 -141t-378 142t-36 481z" />
<glyph unicode="&#x1b0;" horiz-adv-x="1187" d="M116 0zM958 845l16 94l2 -1q95 -87 138 -87q41 0 72 33.5t41 89.5q5 27 4 56t-7 59l114 -1q2 -36 0 -69.5t-8 -65.5q-19 -113 -70 -175t-124 -62q-44 0 -86 30t-92 99zM882 1063h166l-168 -957h157l-19 -106h-322l33 188q-65 -106 -147.5 -161.5t-178.5 -55.5 q-159 0 -217 101q-35 60 -35 163q0 67 15 152l100 569h-150l19 107h316l-108 -619q-18 -103 -18 -171q0 -61 14 -95q30 -72 140 -72q115 0 191.5 94t108.5 273z" />
<glyph unicode="&#x1b1;" horiz-adv-x="1528" d="M626 1356h-302l-24 -137h-105l52 301h533l-32 -182q-174 -70 -285 -226q-110 -155 -151 -387q-48 -279 45 -449q94 -169 294 -169t352 169q153 170 202 449q41 233 -14.5 388t-204.5 225l32 182h531l-53 -301h-105l24 137h-301q173 -87 252 -263t42 -390 q-27 -151 -101 -282q-75 -131 -192 -234q-105 -91 -228.5 -139t-254 -48t-236.5 48q-106 47 -179 139q-82 103 -111 235q-30 131 -3 281q37 213 178 389q141 177 345 264z" />
<glyph unicode="&#x1b2;" horiz-adv-x="1400" d="M507 0q-194 -11 -250 54q-88 101 -53 297l181 1035h-171l18 107h525l-19 -107h-171l-181 -1035q-21 -125 5 -191q18 -47 134 -53q192 -9 353 169q153 170 202 449q44 249 -15 388q-56 131 -188 159l20 114h97v0q185 -83 250 -258q76 -208 38 -425q-26 -151 -101 -282 q-76 -134 -192 -234q-105 -91 -228 -139q-101 -39 -254 -48z" />
<glyph unicode="&#x1b3;" horiz-adv-x="1360" d="M590 106h172l-19 -106h-525l18 106h172l94 537l-285 743h-126l19 107h499l-18 -107h-157l230 -604l441 604q136 107 259 107q60 0 120 -17q57 -16 107 -49l-39 -219h-85q10 96 -20 141q-31 45 -104 45q-114 0 -172 -72l-484 -660z" />
<glyph unicode="&#x1b4;" horiz-adv-x="1372" d="M393 -240q-66 -124 -129 -169.5t-163 -45.5q-42 0 -85.5 8t-85.5 23l36 203h84q-6 -68 14.5 -97.5t74.5 -29.5q49 0 84.5 30.5t85.5 122.5l94 177l-187 974h-109l18 107h441l-19 -107h-153l141 -731l349 639q122 222 342 221q84 0 121 -17q102 -46 106 -49l-38 -219h-85 q10 96 -20 141q-31 45 -105 45q-149 0 -228 -146z" />
<glyph unicode="&#x1b5;" horiz-adv-x="1280" d="M1072 798l-30 -170h-398l-414 -505h760l36 209h110l-58 -332h-1126l13 72l455 556h-223l30 170h333l469 572h-695l-39 -223h-111l61 346h1062l-13 -72l-510 -623h288z" />
<glyph unicode="&#x1b6;" horiz-adv-x="971" d="M143 464l18 106h253l237 273q-10 4 -36 13q-27 10 -61 33l-45 30q-83 57 -145 57q-118 0 -257 -150l22 121q155 169 271 168q69 -1 171 -71q99 -69 163 -69q97 0 191 88h54l-14 -86l-352 -407h209l-18 -106h-282l-212 -245q10 -3 36 -12q27 -10 61 -33l44 -30 q84 -57 146 -57q118 0 256 150l-21 -121q-155 -169 -271 -168q-70 1 -171 71q-100 69 -163 69q-97 0 -192 -88h-54l15 86l326 378h-179z" />
<glyph unicode="&#x1b7;" horiz-adv-x="1040" d="M496 852h-85l18 102l382 416h-474l-39 -223h-111l60 346h786l-22 -125l-410 -445l70 -7q161 -29 231 -150q70 -120 37 -312q-41 -234 -190 -359q-148 -124 -385 -124q-106 0 -201 28q-96 28 -185 85l57 324h101q-19 -161 44.5 -244t206.5 -83q137 0 235 100 q96 99 126 271q35 197 -29 299q-64 101 -223 101z" />
<glyph unicode="&#x1b8;" horiz-adv-x="1040" d="M625 852q-159 0 -258 -101q-100 -102 -134 -299q-30 -172 32 -271q62 -100 200 -100q142 0 235 83t130 244h101l-57 -324q-109 -57 -215 -85q-105 -28 -210 -28q-237 0 -342 124q-105 125 -64 359q34 192 146 312q113 121 283 150l73 7l-255 445l22 125h786l-61 -346 h-110l39 223h-475l237 -416l-18 -102h-85z" />
<glyph unicode="&#x1b9;" horiz-adv-x="1040" d="M625 423q-158 0 -258 -101q-100 -102 -134 -299q-30 -172 32 -271q62 -100 200 -100q142 0 235 83t130 244h101l-57 -324q-109 -57 -215 -85q-104 -28 -210 -28q-237 0 -342 124q-105 125 -64 359q34 192 146 312q113 121 283 150l73 7l-248 483l15 86h783l-51 -291h-95 l32 184h-474l221 -431l-18 -102h-85z" />
<glyph unicode="&#x1bb;" horiz-adv-x="1172" d="M302 1137h-101l46 266q107 57 210 87t196 30q210 0 311.5 -113t67.5 -307q-23 -135 -157 -302h141l-30 -170h-266l-498 -464h560l32 184h106l-61 -348h-867l19 109l487 452q37 34 69 67h-426l29 170h543q14 20 26 38q79 126 103 264q27 151 -28 236q-57 85 -181 85 q-129 0 -211 -71q-95 -71 -120 -213z" />
<glyph unicode="&#x1bc;" horiz-adv-x="1265" d="M799 840q161 -26 233.5 -133.5t38.5 -303.5q-37 -209 -182.5 -320.5t-383.5 -111.5q-105 0 -201 25t-186 76l50 290h101q-16 -144 49.5 -218t207.5 -74q138 0 233 88.5t122 242.5q31 176 -35.5 266.5t-224.5 90.5h-344l110 628h-171l19 107h976l-58 -332h-110l36 209 h-512l-89 -510h120q77 0 201 -20z" />
<glyph unicode="&#x1bd;" horiz-adv-x="1040" d="M514 525l160 -21q161 -29 231 -150q70 -120 34 -329q-41 -234 -190 -359q-148 -124 -385 -124q-105 0 -201 28t-184 85l56 324h101q-19 -161 44.5 -244t206.5 -83q137 0 235 100q96 99 127 271q34 197 -30 299q-64 101 -223 101h-281l94 535h-159l18 105h858l-47 -267 h-94l25 144h-438l-73 -415h115z" />
<glyph unicode="&#x1be;" horiz-adv-x="988" d="M483 1393h165l-57 -329h156l-18 -106h-157l-30 -171q101 -8 162 -85q72 -94 32 -322q-40 -224 -144 -317t-257 -93q-65 0 -122 16q-56 16 -105 50l38 218h85q-10 -96 21 -140q29 -46 103 -46q82 0 132 62q49 60 82 250q34 194 6 254q-28 62 -110 62h-104l46 262h-159 l19 106h158z" />
<glyph unicode="&#x1c0;" horiz-adv-x="543" d="M475 1493l-261 -1493h-146l261 1493h146z" />
<glyph unicode="&#x1c1;" horiz-adv-x="907" d="M68 0zM475 1493l-261 -1493h-146l261 1493h146zM839 1493l-261 -1493h-146l261 1493h146z" />
<glyph unicode="&#x1c2;" horiz-adv-x="846" d="M368 851h-334l29 162h334l84 480h145l-83 -480h333l-28 -162h-334l-36 -209h334l-29 -162h-334l-84 -480h-145l83 480h-333l28 162h334z" />
<glyph unicode="&#x1c3;" horiz-adv-x="543" d="M241 156l-27 -156h-146l28 156h145zM475 1493l-206 -1181h-146l206 1181h146z" />
<glyph unicode="&#x1c4;" horiz-adv-x="2758" d="M0 0zM343 106h168q262 0 431 166t223 476t-57 474t-373 164h-168zM-29 0l19 106h171l224 1280h-171l18 107h535q347 0 506.5 -197t98.5 -548q-62 -352 -291 -550t-575 -198h-535zM1478 0zM1430 0l13 72l1064 1298h-695l-39 -223h-111l61 346h1062l-13 -72l-1064 -1298 h760l36 209h110l-58 -332h-1126zM2226 1635l-161 264h104l154 -162l211 162h105l-255 -264h-158z" />
<glyph unicode="&#x1c5;" horiz-adv-x="2448" d="M0 0zM343 106h168q262 0 431 166t223 476t-57 474t-373 164h-168zM-29 0l19 106h171l224 1280h-171l18 107h535q347 0 506.5 -197t98.5 -548q-62 -352 -291 -550t-575 -198h-535zM1478 0zM2211 975q98 0 192 88h54l-15 -86l-654 -758l36 -12q30 -11 61 -33l44 -30 q85 -57 145 -57q118 0 257 150l-21 -121q-155 -168 -271 -168q-71 2 -171 71t-163 69q-98 0 -192 -88h-54l15 86l654 757q-9 4 -35 13q-31 11 -62 33l-43 30q-86 57 -146 57q-118 0 -257 -150l21 121q155 168 272 168q70 -2 170.5 -71t162.5 -69zM2027 1262l-145 376h104 l137 -260l229 260h104l-278 -376h-151z" />
<glyph unicode="&#x1c6;" horiz-adv-x="2151" d="M36 0zM1106 1556l-272 -1556h-166l29 166q-66 -100 -149.5 -147.5t-193.5 -47.5q-177 0 -262 155q-56 103 -56 247q0 74 15 159q44 250 182.5 405t316.5 155q110 0 177 -47.5t98 -147.5l97 553h-157l19 106h322zM752 479l18 105q14 78 14 141q0 91 -29 151 q-48 101 -174 101q-128 0 -213 -112t-123 -333q-18 -101 -18 -179q0 -93 25 -154q45 -113 173 -113q126 0 210 100.5t117 292.5zM1180 0zM1913 975q98 0 192 88h54l-15 -86l-654 -758l36 -12q30 -11 61 -33l44 -30q85 -57 145 -57q118 0 257 150l-21 -121 q-155 -168 -271 -168q-71 2 -171 71t-163 69q-98 0 -192 -88h-54l15 86l654 757q-9 4 -35 13q-31 11 -62 33l-43 30q-86 57 -146 57q-118 0 -257 -150l21 121q155 168 272 168q70 -2 170.5 -71t162.5 -69zM1729 1262l-145 376h104l137 -260l229 260h104l-278 -376h-151z" />
<glyph unicode="&#x1c7;" horiz-adv-x="1962" d="M0 0zM-29 0l19 106h171l224 1280h-171l18 107h525l-19 -107h-171l-221 -1263h614l44 250h111l-66 -373h-1078zM913 -358l41 235h103q-15 -99 16.5 -147.5t110.5 -48.5q107 0 162.5 75t93.5 293l234 1337h-209l19 107h562l-19 -107h-171l-235 -1345q-43 -247 -151.5 -357 t-306.5 -110q-64 0 -127 17t-123 51z" />
<glyph unicode="&#x1c8;" horiz-adv-x="1795" d="M0 0zM-29 0l19 106h171l224 1280h-171l18 107h525l-19 -107h-171l-221 -1263h614l44 250h111l-66 -373h-1078zM1560 1393q8 46 44 80t79 34q41 0 65 -34q18 -26 18 -58q0 -11 -2 -22q-8 -47 -43 -80t-78 -33q-42 0 -67 33q-18 25 -18 57q0 11 2 23zM1524 956h-156l18 107 h323l-205 -1167q-28 -164 -132.5 -257.5t-257.5 -93.5q-65 0 -121 16.5t-106 49.5l38 219h85q-2 -25 -2 -46q0 -62 22 -95q31 -45 105 -45q81 0 131 61.5t73 190.5z" />
<glyph unicode="&#x1c9;" horiz-adv-x="1161" d="M76 0zM260 106h157l-19 -106h-322l254 1450h-159l18 106h325zM926 1393q8 46 44 80t79 34q41 0 65 -34q18 -26 18 -58q0 -11 -2 -22q-8 -47 -43 -80t-78 -33q-42 0 -67 33q-18 25 -18 57q0 11 2 23zM890 956h-156l18 107h323l-205 -1167q-28 -164 -132.5 -257.5 t-257.5 -93.5q-65 0 -121 16.5t-106 49.5l38 219h85q-2 -25 -2 -46q0 -62 22 -95q31 -45 105 -45q81 0 131 61.5t73 190.5z" />
<glyph unicode="&#x1ca;" horiz-adv-x="2351" d="M0 0zM-38 0l18 106h181l224 1280h-181l19 107h345l599 -1178l188 1071h-180l18 107h472l-19 -107h-181l-247 -1415h-109l-640 1258l-197 -1123h181l-19 -106h-472zM1302 -358l41 235h103q-15 -99 16.5 -147.5t110.5 -48.5q107 0 162.5 75t93.5 293l234 1337h-209l19 107 h562l-19 -107h-171l-235 -1345q-43 -247 -151.5 -357t-306.5 -110q-64 0 -127 17t-123 51z" />
<glyph unicode="&#x1cb;" horiz-adv-x="2184" d="M0 0zM-38 0l18 106h181l224 1280h-181l19 107h345l599 -1178l188 1071h-180l18 107h472l-19 -107h-181l-247 -1415h-109l-640 1258l-197 -1123h181l-19 -106h-472zM1949 1393q8 46 44 80t79 34q41 0 65 -34q18 -26 18 -58q0 -11 -2 -22q-8 -47 -43 -80t-78 -33 q-42 0 -67 33q-18 25 -18 57q0 11 2 23zM1913 956h-156l18 107h323l-205 -1167q-28 -164 -132.5 -257.5t-257.5 -93.5q-65 0 -121 16.5t-106 49.5l38 219h85q-2 -25 -2 -46q0 -62 22 -95q31 -45 105 -45q81 0 131 61.5t73 190.5z" />
<glyph unicode="&#x1cc;" horiz-adv-x="1758" d="M129 0zM129 0l168 956h-159l19 107h324l-33 -189q65 108 148 163t180 55q158 0 215 -101q35 -61 35 -163q0 -67 -15 -152l-100 -570h148l-19 -106h-314l108 618q18 103 18 172q0 61 -14 96q-31 72 -140 72q-115 0 -191.5 -93.5t-107.5 -272.5l-104 -592h-166zM1523 1393 q8 46 44 80t79 34q41 0 65 -34q18 -26 18 -58q0 -11 -2 -22q-8 -47 -43 -80t-78 -33q-42 0 -67 33q-18 25 -18 57q0 11 2 23zM1487 956h-156l18 107h323l-205 -1167q-28 -164 -132.5 -257.5t-257.5 -93.5q-65 0 -121 16.5t-106 49.5l38 219h85q-2 -25 -2 -46q0 -62 22 -95 q31 -45 105 -45q81 0 131 61.5t73 190.5z" />
<glyph unicode="&#x1cd;" horiz-adv-x="1331" d="M0 0zM333 541h493l-122 710zM-141 0l18 106h118l721 1387h152l237 -1387h132l-18 -106h-489l18 106h150l-55 328h-566l-169 -328h147l-18 -106h-378zM691 1635l-161 264h104l154 -162l211 162h105l-255 -264h-158z" />
<glyph unicode="&#x1ce;" horiz-adv-x="1098" d="M62 0zM670 166q-121 -195 -313 -195q-159 0 -239 119q-56 84 -56 204q0 51 10 108q62 353 282 535q189 155 416 155q153 0 206 -29l-168 -957h143l-19 -106h-291zM237 300q0 -214 186 -214q113 0 190.5 100.5t110.5 292.5l85 482v0q0 29 -73 29q-172 0 -307 -150 q-133 -151 -181 -425q-11 -64 -11 -115zM549 1262l-145 376h104l137 -260l229 260h104l-278 -376h-151z" />
<glyph unicode="&#x1cf;" horiz-adv-x="728" d="M0 0zM343 106h171l-18 -106h-525l19 106h171l224 1280h-171l18 107h525l-19 -107h-171zM445 1635l-161 264h104l154 -162l211 162h105l-255 -264h-158z" />
<glyph unicode="&#x1d0;" horiz-adv-x="589" d="M132 0zM316 106h156l-18 -106h-322l168 956h-159l18 107h324zM347 1262l-145 376h104l137 -260l229 260h104l-278 -376h-151z" />
<glyph unicode="&#x1d1;" horiz-adv-x="1511" d="M96 0zM639 78q221 0 363 168.5t199 498.5q58 331 -25 499.5t-303 168.5q-222 0 -364 -168.5t-199 -499.5q-58 -330 25 -498.5t304 -168.5zM621 -29q-137 0 -243 50t-177 147q-81 112 -105 254t7.5 323t105.5 323.5t194 254.5q106 98 228 147.5t260 49.5q293 0 435.5 -213 t81.5 -562q-31 -179 -105.5 -322.5t-194.5 -254.5q-106 -98 -228 -147.5t-259 -49.5zM849 1635l-161 264h104l154 -162l211 162h105l-255 -264h-158z" />
<glyph unicode="&#x1d2;" horiz-adv-x="1109" d="M78 0zM474 70q133 0 221.5 117t128.5 345q18 104 18 185q0 96 -26 159q-48 117 -181 117t-221.5 -116.5t-128.5 -344.5q-18 -104 -18 -184q0 -97 26 -161q48 -117 181 -117zM456 -29q-208 0 -308 153q-70 107 -70 261q0 69 14 147q44 254 197.5 407t363 153t309.5 -153 q69 -106 69 -260q0 -69 -14 -147q-44 -254 -197.5 -407.5t-363.5 -153.5zM612 1262l-145 376h104l137 -260l229 260h104l-278 -376h-151z" />
<glyph unicode="&#x1d3;" horiz-adv-x="1553" d="M201 0zM373 1386h-172l19 107h525l-19 -107h-171l-136 -772q-50 -286 14.5 -399t270.5 -113t310 113t154 399l135 772h-172l19 107h454l-19 -107h-171l-139 -792q-59 -341 -201.5 -482t-425.5 -141t-378 142t-36 481zM899 1635l-161 264h104l154 -162l211 162h105 l-255 -264h-158z" />
<glyph unicode="&#x1d4;" horiz-adv-x="1187" d="M126 0zM892 1063h166l-168 -957h157l-19 -106h-322l33 188q-65 -106 -147.5 -161.5t-178.5 -55.5q-159 0 -217 101q-35 60 -35 163q0 67 15 152l100 569h-150l19 107h316l-108 -619q-18 -103 -18 -171q0 -61 14 -95q30 -72 140 -72q115 0 191.5 94t108.5 273zM590 1262 l-145 376h104l137 -260l229 260h104l-278 -376h-151z" />
<glyph unicode="&#x1d5;" horiz-adv-x="1553" d="M201 0zM1398 2057zM859 2205h539l-26 -148h-538zM201 0zM373 1386h-172l19 107h525l-19 -107h-171l-136 -772q-50 -286 14.5 -399t270.5 -113t310 113t154 399l135 772h-172l19 107h454l-19 -107h-171l-139 -792q-59 -341 -201.5 -482t-425.5 -141t-378 142t-36 481z M871 1884q43 0 68 -35t17 -81q-9 -50 -45 -83q-36 -34 -81 -34t-69 34q-24 33 -15 83q8 46 45 81q38 35 80 35zM1222 1884q42 0 67 -35t17 -81q-9 -50 -45 -83q-36 -34 -80 -34q-45 0 -70 34q-24 33 -15 83q8 46 45 81q38 35 81 35z" />
<glyph unicode="&#x1d6;" horiz-adv-x="1187" d="M126 0zM126 0zM892 1063h166l-168 -957h157l-19 -106h-322l33 188q-65 -106 -147.5 -161.5t-178.5 -55.5q-159 0 -217 101q-35 60 -35 163q0 67 15 152l100 569h-150l19 107h316l-108 -619q-18 -103 -18 -171q0 -61 14 -95q30 -72 140 -72q115 0 191.5 94t108.5 273z M546 1569q43 0 68 -35q24 -34 16 -82q-9 -51 -44 -84q-36 -33 -82 -33q-45 0 -68 33q-25 33 -15 84q8 48 45 82q37 35 80 35zM897 1569q42 0 67 -35q24 -34 16 -82q-9 -51 -44 -84q-36 -33 -81 -33q-46 0 -69 33q-24 33 -15 84q8 48 46 82q36 35 80 35zM511 1842h539 l-26 -148h-538z" />
<glyph unicode="&#x1d7;" horiz-adv-x="1553" d="M201 0zM1159 2222h178l-283 -264h-105zM201 0zM373 1386h-172l19 107h525l-19 -107h-171l-136 -772q-50 -286 14.5 -399t270.5 -113t310 113t154 399l135 772h-172l19 107h454l-19 -107h-171l-139 -792q-59 -341 -201.5 -482t-425.5 -141t-378 142t-36 481zM871 1884 q43 0 68 -35t17 -81q-9 -50 -45 -83q-36 -34 -81 -34t-69 34q-24 33 -15 83q8 46 45 81q38 35 80 35zM1222 1884q42 0 67 -35t17 -81q-9 -50 -45 -83q-36 -34 -80 -34q-45 0 -70 34q-24 33 -15 83q8 46 45 81q38 35 81 35z" />
<glyph unicode="&#x1d8;" horiz-adv-x="1187" d="M126 0zM126 0zM892 1063h166l-168 -957h157l-19 -106h-322l33 188q-65 -106 -147.5 -161.5t-178.5 -55.5q-159 0 -217 101q-35 60 -35 163q0 67 15 152l100 569h-150l19 107h316l-108 -619q-18 -103 -18 -171q0 -61 14 -95q30 -72 140 -72q115 0 191.5 94t108.5 273z M546 1569q43 0 68 -35q24 -34 16 -82q-9 -51 -44 -84q-36 -33 -82 -33q-45 0 -68 33q-25 33 -15 84q8 48 45 82q37 35 80 35zM897 1569q42 0 67 -35q24 -34 16 -82q-9 -51 -44 -84q-36 -33 -81 -33q-46 0 -69 33q-24 33 -15 84q8 48 46 82q36 35 80 35zM1094 1634zM915 2010 h179l-372 -376h-106z" />
<glyph unicode="&#x1d9;" horiz-adv-x="1553" d="M201 0zM995 1961l-161 264h104l154 -162l211 162h105l-255 -264h-158zM201 0zM373 1386h-172l19 107h525l-19 -107h-171l-136 -772q-50 -286 14.5 -399t270.5 -113t310 113t154 399l135 772h-172l19 107h454l-19 -107h-171l-139 -792q-59 -341 -201.5 -482t-425.5 -141 t-378 142t-36 481zM871 1884q43 0 68 -35t17 -81q-9 -50 -45 -83q-36 -34 -81 -34t-69 34q-24 33 -15 83q8 46 45 81q38 35 80 35zM1222 1884q42 0 67 -35t17 -81q-9 -50 -45 -83q-36 -34 -80 -34q-45 0 -70 34q-24 33 -15 83q8 46 45 81q38 35 81 35z" />
<glyph unicode="&#x1da;" horiz-adv-x="1187" d="M126 0zM126 0zM892 1063h166l-168 -957h157l-19 -106h-322l33 188q-65 -106 -147.5 -161.5t-178.5 -55.5q-159 0 -217 101q-35 60 -35 163q0 67 15 152l100 569h-150l19 107h316l-108 -619q-18 -103 -18 -171q0 -61 14 -95q30 -72 140 -72q115 0 191.5 94t108.5 273z M546 1569q43 0 68 -35q24 -34 16 -82q-9 -51 -44 -84q-36 -33 -82 -33q-45 0 -68 33q-25 33 -15 84q8 48 45 82q37 35 80 35zM897 1569q42 0 67 -35q24 -34 16 -82q-9 -51 -44 -84q-36 -33 -81 -33q-46 0 -69 33q-24 33 -15 84q8 48 46 82q36 35 80 35zM1077 1634zM648 1634 l-145 376h104l137 -260l229 260h104l-278 -376h-151z" />
<glyph unicode="&#x1db;" horiz-adv-x="1553" d="M201 0zM1039 2226l117 -264h-105l-189 264h177zM201 0zM373 1386h-172l19 107h525l-19 -107h-171l-136 -772q-50 -286 14.5 -399t270.5 -113t310 113t154 399l135 772h-172l19 107h454l-19 -107h-171l-139 -792q-59 -341 -201.5 -482t-425.5 -141t-378 142t-36 481z M871 1884q43 0 68 -35t17 -81q-9 -50 -45 -83q-36 -34 -81 -34t-69 34q-24 33 -15 83q8 46 45 81q38 35 80 35zM1222 1884q42 0 67 -35t17 -81q-9 -50 -45 -83q-36 -34 -80 -34q-45 0 -70 34q-24 33 -15 83q8 46 45 81q38 35 81 35z" />
<glyph unicode="&#x1dc;" horiz-adv-x="1187" d="M126 0zM126 0zM892 1063h166l-168 -957h157l-19 -106h-322l33 188q-65 -106 -147.5 -161.5t-178.5 -55.5q-159 0 -217 101q-35 60 -35 163q0 67 15 152l100 569h-150l19 107h316l-108 -619q-18 -103 -18 -171q0 -61 14 -95q30 -72 140 -72q115 0 191.5 94t108.5 273z M546 1569q43 0 68 -35q24 -34 16 -82q-9 -51 -44 -84q-36 -33 -82 -33q-45 0 -68 33q-25 33 -15 84q8 48 45 82q37 35 80 35zM897 1569q42 0 67 -35q24 -34 16 -82q-9 -51 -44 -84q-36 -33 -81 -33q-46 0 -69 33q-24 33 -15 84q8 48 46 82q36 35 80 35zM832 1632zM665 2008 l167 -376h-105l-240 376h178z" />
<glyph unicode="&#x1dd;" horiz-adv-x="1090" d="M95 0zM95 551h714l1 8q38 215 -16 325q-54 109 -196 109q-109 0 -190 -63q-80 -64 -130 -189h-133q70 175 191 263q123 88 297 88q209 0 309 -154q101 -153 57 -407q-44 -252 -196 -406t-356 -154q-217 0 -307 149q-90 148 -45 431zM272 445q-27 -186 22 -281 q48 -94 171 -94q114 0 196.5 95t128.5 280h-518z" />
<glyph unicode="&#x1de;" horiz-adv-x="1331" d="M0 0zM1190 2057zM651 2205h539l-26 -148h-538zM0 0zM333 541h493l-122 710zM-141 0l18 106h118l721 1387h152l237 -1387h132l-18 -106h-489l18 106h150l-55 328h-566l-169 -328h147l-18 -106h-378zM675 1884q43 0 68 -35t17 -81q-9 -50 -45 -83q-36 -34 -81 -34t-69 34 q-24 33 -15 83q8 46 45 81q38 35 80 35zM1026 1884q42 0 67 -35t17 -81q-9 -50 -45 -83q-36 -34 -80 -34q-45 0 -70 34q-24 33 -15 83q8 46 45 81q38 35 81 35z" />
<glyph unicode="&#x1df;" horiz-adv-x="1098" d="M62 0zM62 0zM670 166q-121 -195 -313 -195q-159 0 -239 119q-56 84 -56 204q0 51 10 108q62 353 282 535q189 155 416 155q153 0 206 -29l-168 -957h143l-19 -106h-291zM237 300q0 -214 186 -214q113 0 190.5 100.5t110.5 292.5l85 482v0q0 29 -73 29q-172 0 -307 -150 q-133 -151 -181 -425q-11 -64 -11 -115zM532 1569q43 0 68 -35q24 -34 16 -82q-9 -51 -44 -84q-36 -33 -82 -33q-45 0 -68 33q-25 33 -15 84q8 48 45 82q37 35 80 35zM883 1569q42 0 67 -35q24 -34 16 -82q-9 -51 -44 -84q-36 -33 -81 -33q-46 0 -69 33q-24 33 -15 84 q8 48 46 82q36 35 80 35zM475 1842h539l-26 -148h-538z" />
<glyph unicode="&#x1e0;" horiz-adv-x="1331" d="M0 0zM0 0zM889.5 1886q42.5 0 67.5 -35t17 -81q-9 -50 -45 -83q-36 -34 -81 -34t-69 34q-25 33 -16 83q8 46 46 81t80.5 35zM333 541h493l-122 710zM-141 0l18 106h118l721 1387h152l237 -1387h132l-18 -106h-489l18 106h150l-55 328h-566l-169 -328h147l-18 -106h-378z M1190 2057zM651 2205h539l-26 -148h-538z" />
<glyph unicode="&#x1e1;" horiz-adv-x="1098" d="M61 0zM483 1841h539l-26 -148h-538zM61 0zM788 1335zM703.5 1569q43.5 0 68.5 -35q24 -34 16 -82q-9 -51 -44 -84q-36 -33 -82 -33t-69 33q-24 33 -16 84q9 48 46 82q37 35 80.5 35zM669 166q-121 -195 -313 -195q-159 0 -239 119q-56 84 -56 204q0 51 10 108 q62 353 282 535q189 155 416 155q153 0 206 -29l-168 -957h143l-19 -106h-291zM236 300q0 -214 186 -214q113 0 190.5 100.5t110.5 292.5l85 482v0q0 29 -73 29q-172 0 -307 -150q-133 -151 -181 -425q-11 -64 -11 -115z" />
<glyph unicode="&#x1e2;" horiz-adv-x="1845" d="M0 0zM1029 1841h539l-26 -148h-538zM347 541h441l147 845h-90zM522 0l18 106h171l58 328h-484l-195 -328h148l-18 -106h-382l18 106h118l755 1280h-193l18 107h1311l-58 -332h-111l37 209h-620l-87 -500h443l33 187h110l-87 -496h-110l32 187h-442l-110 -625h635l36 209 h111l-58 -332h-1097z" />
<glyph unicode="&#x1e3;" horiz-adv-x="1732" d="M62 0zM735 1526h539l-26 -148h-538zM1373 632q101 66 101 190q0 171 -204 171q-121 0 -204.5 -102t-134.5 -377q285 14 442 118zM1076 -29q-215 0 -310 196q-130 -196 -397 -196h-13q-158 0 -238 119q-56 84 -56 204q0 51 10 108q61 353 283 535q188 155 415 155 q153 0 206 -29l-18 -97q144 126 340 126q352 0 352 -277q0 -399 -738 -407q-4 -38 -4 -72q0 -94 31 -156q53 -110 195 -110q104 0 156 35q92 63 113 144h122q-36 -127 -171 -216q-93 -62 -278 -62zM248 415q-11 -65 -11 -118q0 -211 186 -211q113 0 190 100.5t111 292.5 l84 482q0 29 -72 29q-173 0 -307 -150q-133 -151 -181 -425z" />
<glyph unicode="&#x1e4;" horiz-adv-x="1562" d="M1233 1047q1 187 -83.5 276.5t-262.5 89.5q-232 0 -375.5 -166t-201.5 -502q-23 -130 -23 -235q0 -161 53 -263q89 -169 317 -169q102 0 199.5 28t191.5 84l22 130h-399l18 107h400l26 148h-253l19 107h435l-44 -255h181l-19 -107h-181l-34 -195q-133 -77 -278 -115.5 t-302 -38.5q-305 0 -451 211q-103 149 -103 368q0 91 18 195q62 354 282.5 564.5t531.5 210.5q115 0 232.5 -29.5t245.5 -89.5l-62 -354h-100z" />
<glyph unicode="&#x1e5;" horiz-adv-x="1179" d="M917 956q-1 34 -98 34q-175 0 -308 -150q-132 -151 -181 -425q-13 -81 -10 -142q4 -62 26 -104q45 -83 160 -83q126 0 209.5 100.5t116.5 292.5h-219l19 107h219zM998 479l-80 -456q-41 -238 -175 -353q-145 -125 -345 -125q-95 0 -177.5 19t-155.5 57l39 223h87 q-3 -104 49 -152t165 -48q145 0 229 92q84 91 118 287l26 143q-66 -100 -150 -147.5t-189 -47.5q-158 0 -238 119q-51 75 -56 179q-4 61 9 133q62 353 282 535q189 154 408 155q202 1 257 -29l-84 -477h156l-19 -107h-156z" />
<glyph unicode="&#x1e6;" horiz-adv-x="1472" d="M103 0zM845 1635l-161 264h104l154 -162l211 162h105l-255 -264h-158zM1233 1047q1 187 -83.5 276.5t-262.5 89.5q-232 0 -375.5 -166t-201.5 -502q-58 -329 30.5 -498t316.5 -169q102 0 199.5 28t191.5 84l67 385h-253l19 107h435l-97 -557q-133 -77 -278 -115.5 t-302 -38.5q-305 0 -451 211.5t-85 562.5q62 354 282.5 564.5t531.5 210.5q115 0 232.5 -29.5t245.5 -89.5l-62 -354h-100z" />
<glyph unicode="&#x1e7;" horiz-adv-x="1179" d="M65 0zM635 1262l-145 376h104l137 -260l229 260h104l-278 -376h-151zM1100 1063l-182 -1040q-41 -238 -175 -353q-144 -125 -345 -125q-94 0 -177 19t-156 57l39 223h86q-2 -104 50 -152t165 -48q146 0 229 92q84 90 119 287l25 143q-66 -100 -149.5 -147.5t-189.5 -47.5 q-159 0 -239 119q-50 75 -55 179q-3 61 9 133q62 353 283 535q188 154 408 155q201 1 255 -29zM917 956q0 34 -98 34q-175 0 -307 -150q-134 -151 -181 -425q-15 -81 -11 -142q4 -62 26 -104q44 -83 159 -83q126 0 210 100.5t118 292.5l18 105z" />
<glyph unicode="&#x1e8;" horiz-adv-x="1377" d="M0 0zM-29 0l19 106h171l224 1280h-171l18 107h525l-19 -107h-171l-99 -565l678 565h-146l19 107h446l-18 -107h-152l-675 -563l520 -717h153l-19 -106h-312l-513 709l-106 -603h171l-18 -106h-525zM823 1635l-161 264h104l154 -162l211 162h105l-255 -264h-158z" />
<glyph unicode="&#x1e9;" horiz-adv-x="1116" d="M76 0zM378 1711l-161 264h104l154 -162l211 162h105l-255 -264h-158zM608 664l266 -558h138l-19 -106h-265l-261 543l-154 -135l-71 -408h-166l254 1450h-159l18 106h325l-177 -1013l475 413h-137l18 107h269l-18 -107z" />
<glyph unicode="&#x1ea;" horiz-adv-x="1511" d="M96 0zM639 78q221 0 363 168.5t199 498.5q58 331 -25 499.5t-303 168.5q-222 0 -364 -168.5t-199 -499.5q-58 -330 25 -498.5t304 -168.5zM621 -29q-137 0 -243 50t-177 147q-81 112 -105 254t7.5 323t105.5 323.5t194 254.5q106 98 228 147.5t260 49.5q293 0 435.5 -213 t81.5 -562q-31 -179 -105.5 -322.5t-194.5 -254.5q-106 -98 -228 -147.5t-259 -49.5zM590 -16h85l-1 -2q-100 -123 -108 -170q-8 -46 17 -74t75 -28q25 0 52 6.5t56 19.5l-23 -127q-34 -9 -64.5 -13.5t-59.5 -4.5q-102 0 -150 44.5t-34 125.5q9 49 45 101.5t110 121.5z" />
<glyph unicode="&#x1eb;" horiz-adv-x="1109" d="M78 0zM474 70q133 0 221.5 117t128.5 345q18 104 18 185q0 96 -26 159q-48 117 -181 117t-221.5 -116.5t-128.5 -344.5q-18 -104 -18 -184q0 -97 26 -161q48 -117 181 -117zM456 -29q-208 0 -308 153q-70 107 -70 261q0 69 14 147q44 254 197.5 407t363 153t309.5 -153 q69 -106 69 -260q0 -69 -14 -147q-44 -254 -197.5 -407.5t-363.5 -153.5zM420 -16h85l-1 -2q-100 -123 -108 -170q-8 -46 17 -74t75 -28q25 0 52 6.5t56 19.5l-23 -127q-34 -9 -64.5 -13.5t-59.5 -4.5q-102 0 -150 44.5t-34 125.5q9 49 45 101.5t110 121.5z" />
<glyph unicode="&#x1ec;" horiz-adv-x="1511" d="M96 0zM96 0zM639 78q221 0 363 168.5t199 498.5q58 331 -25 499.5t-303 168.5q-222 0 -364 -168.5t-199 -499.5q-58 -330 25 -498.5t304 -168.5zM621 -29q-137 0 -243 50t-177 147q-81 112 -105 254t7.5 323t105.5 323.5t194 254.5q106 98 228 147.5t260 49.5 q293 0 435.5 -213t81.5 -562q-31 -179 -105.5 -322.5t-194.5 -254.5q-106 -98 -228 -147.5t-259 -49.5zM590 -16h85l-1 -2q-100 -123 -108 -170q-8 -46 17 -74t75 -28q25 0 52 6.5t56 19.5l-23 -127q-34 -9 -64.5 -13.5t-59.5 -4.5q-102 0 -150 44.5t-34 125.5 q9 49 45 101.5t110 121.5zM651 1842h539l-26 -148h-538z" />
<glyph unicode="&#x1ed;" horiz-adv-x="1109" d="M78 0zM78 0zM474 70q133 0 221.5 117t128.5 345q18 104 18 185q0 96 -26 159q-48 117 -181 117t-221.5 -116.5t-128.5 -344.5q-18 -104 -18 -184q0 -97 26 -161q48 -117 181 -117zM456 -29q-208 0 -308 153q-70 107 -70 261q0 69 14 147q44 254 197.5 407t363 153 t309.5 -153q69 -106 69 -260q0 -69 -14 -147q-44 -254 -197.5 -407.5t-363.5 -153.5zM420 -16h85l-1 -2q-100 -123 -108 -170q-8 -46 17 -74t75 -28q25 0 52 6.5t56 19.5l-23 -127q-34 -9 -64.5 -13.5t-59.5 -4.5q-102 0 -150 44.5t-34 125.5q9 49 45 101.5t110 121.5z M450 1526h539l-26 -148h-538z" />
<glyph unicode="&#x1ee;" horiz-adv-x="1040" d="M0 0zM624 1635l-161 264h104l154 -162l211 162h105l-255 -264h-158zM496 852h-85l18 102l382 416h-474l-39 -223h-111l60 346h786l-22 -125l-410 -445l70 -7q161 -29 231 -150q70 -120 37 -312q-41 -234 -190 -359q-148 -124 -385 -124q-106 0 -201 28q-96 28 -185 85 l57 324h101q-19 -161 44.5 -244t206.5 -83q137 0 235 100q96 99 126 271q35 197 -29 299q-64 101 -223 101z" />
<glyph unicode="&#x1ef;" horiz-adv-x="1040" d="M0 0zM549 1262l-145 376h104l137 -260l229 260h104l-278 -376h-151zM496 423h-85l18 102l372 431h-474l-32 -184h-96l51 291h783l-15 -86l-417 -483l70 -7q161 -29 231 -150q70 -120 37 -312q-41 -234 -190 -359q-148 -124 -385 -124q-106 0 -201 28t-184 85l56 324h101 q-19 -161 44.5 -244t206.5 -83q137 0 235 100q96 99 127 271q34 197 -30 299q-64 101 -223 101z" />
<glyph unicode="&#x1f0;" horiz-adv-x="589" d="M0 0zM384 1262l-145 376h104l137 -260l229 260h104l-278 -376h-151zM339 956h-157l19 107h322l-204 -1167q-28 -164 -132.5 -257.5t-258.5 -93.5q-64 0 -120.5 16.5t-106.5 49.5l39 219h85q-10 -96 20.5 -141t103.5 -45q82 0 132 61.5t73 190.5z" />
<glyph unicode="&#x1f1;" horiz-adv-x="2758" d="M0 0zM1430 0l13 72l1064 1298h-695l-39 -223h-111l61 346h1062l-13 -72l-1064 -1298h760l36 209h110l-58 -332h-1126zM343 106h168q262 0 431 166t223 476t-57 474t-373 164h-168zM-29 0l19 106h171l224 1280h-171l18 107h535q347 0 506.5 -197t98.5 -548 q-62 -352 -291 -550t-575 -198h-535z" />
<glyph unicode="&#x1f2;" horiz-adv-x="2448" d="M0 0zM2211 975q98 0 192 88h54l-15 -86l-654 -758l36 -12q30 -11 61 -33l44 -30q85 -57 145 -57q118 0 257 150l-21 -121q-155 -168 -271 -168q-71 2 -171 71t-163 69q-98 0 -192 -88h-54l15 86l654 757q-9 4 -35 13q-31 11 -62 33l-43 30q-86 57 -146 57 q-118 0 -257 -150l21 121q155 168 272 168q70 -2 170.5 -71t162.5 -69zM343 106h168q262 0 431 166t223 476t-57 474t-373 164h-168zM-29 0l19 106h171l224 1280h-171l18 107h535q347 0 506.5 -197t98.5 -548q-62 -352 -291 -550t-575 -198h-535z" />
<glyph unicode="&#x1f3;" horiz-adv-x="2151" d="M36 0zM1913 975q98 0 192 88h54l-15 -86l-654 -758l36 -12q30 -11 61 -33l44 -30q85 -57 145 -57q118 0 257 150l-21 -121q-155 -168 -271 -168q-71 2 -171 71t-163 69q-98 0 -192 -88h-54l15 86l654 757q-9 4 -35 13q-31 11 -62 33l-43 30q-86 57 -146 57 q-118 0 -257 -150l21 121q155 168 272 168q70 -2 170.5 -71t162.5 -69zM1106 1556l-272 -1556h-166l29 166q-66 -100 -149.5 -147.5t-193.5 -47.5q-177 0 -262 155q-56 103 -56 247q0 74 15 159q44 250 182.5 405t316.5 155q110 0 177 -47.5t98 -147.5l97 553h-157l19 106 h322zM752 479l18 105q14 78 14 141q0 91 -29 151q-48 101 -174 101q-128 0 -213 -112t-123 -333q-18 -101 -18 -179q0 -93 25 -154q45 -113 173 -113q126 0 210 100.5t117 292.5z" />
<glyph unicode="&#x1f4;" horiz-adv-x="1472" d="M103 0zM1030 1900h178l-283 -264h-105zM1233 1047q1 187 -83.5 276.5t-262.5 89.5q-232 0 -375.5 -166t-201.5 -502q-58 -329 30.5 -498t316.5 -169q102 0 199.5 28t191.5 84l67 385h-253l19 107h435l-97 -557q-133 -77 -278 -115.5t-302 -38.5q-305 0 -451 211.5 t-85 562.5q62 354 282.5 564.5t531.5 210.5q115 0 232.5 -29.5t245.5 -89.5l-62 -354h-100z" />
<glyph unicode="&#x1f5;" horiz-adv-x="1179" d="M65 0zM1034 1262zM855 1638h179l-372 -376h-106zM1100 1063l-182 -1040q-41 -238 -175 -353q-144 -125 -345 -125q-94 0 -177 19t-156 57l39 223h86q-2 -104 50 -152t165 -48q146 0 229 92q84 90 119 287l25 143q-66 -100 -149.5 -147.5t-189.5 -47.5q-159 0 -239 119 q-50 75 -55 179q-3 61 9 133q62 353 283 535q188 154 408 155q201 1 255 -29zM917 956q0 34 -98 34q-175 0 -307 -150q-134 -151 -181 -425q-15 -81 -11 -142q4 -62 26 -104q44 -83 159 -83q126 0 210 100.5t118 292.5l18 105z" />
<glyph unicode="&#x1f6;" horiz-adv-x="2126" d="M1128 594l27 154h-697l-112 -642h171l-19 -106h-524l18 106h171l224 1280h-171l19 107h525l-19 -107h-171l-90 -516h696l90 516h-171l19 107h525l-19 -107h-171l-135 -772q-50 -286 14 -399q65 -113 182 -113q129 0 212 113q87 118 137 399l59 341h-156l19 108h322 l-82 -469q-60 -341 -203 -482q-142 -141 -322 -141q-235 0 -332 142q-95 142 -36 481z" />
<glyph unicode="&#x1f8;" horiz-adv-x="1612" d="M0 0zM923 1899l117 -264h-105l-189 264h177zM-38 0l18 106h181l224 1280h-181l19 107h345l599 -1178l188 1071h-180l18 107h472l-19 -107h-181l-247 -1415h-109l-640 1258l-197 -1123h181l-19 -106h-472z" />
<glyph unicode="&#x1f9;" horiz-adv-x="1187" d="M128 0zM760 1260zM593 1636l167 -376h-105l-240 376h178zM128 0l168 956h-159l19 107h324l-33 -189q65 108 148 163t180 55q158 0 215 -101q35 -61 35 -163q0 -67 -15 -152l-100 -570h148l-19 -106h-314l108 618q18 103 18 172q0 61 -14 96q-31 72 -140 72 q-115 0 -191.5 -93.5t-107.5 -272.5l-104 -592h-166z" />
<glyph unicode="&#x1fa;" horiz-adv-x="1331" d="M677 1206l-31 2l-348 -667h493zM887 1459q11 63 -21 107.5t-89 44.5t-104 -43.5t-58 -108.5q-11 -63 20.5 -107t88.5 -44t104.5 44t58.5 107zM911 1899h178l-221 -176q55 -19 92 -69q58 -81 38 -195q-14 -80 -60 -143q-28 -38 -64 -66l195 -1144h133l-19 -106h-489 l19 106h149l-55 328h-565l-170 -328h148l-19 -106h-378l19 106h118l594 1143q-27 29 -41 66q-23 61 -9 144q20 114 106 195q68 63 146 76z" />
<glyph unicode="&#x1fb;" horiz-adv-x="1098" d="M808 106h142l-19 -106h-291l29 166q-62 -100 -138 -148q-75 -47 -175 -47q-159 0 -239 119q-50 75 -55 179q-4 61 9 133q62 353 283 535q187 154 407 155q160 1 214 -29zM640 0zM735 990q-172 0 -307 -150q-133 -151 -181 -425q-14 -81 -10 -142q4 -62 26 -104 q44 -83 159 -83q114 0 191 100.5t110 292.5l85 482q0 29 -73 29zM856 1899h178l-198 -185q41 -20 70 -60q57 -80 37 -195t-105.5 -195t-189 -80t-161 80t-37.5 195t106 195q76 71 168 78zM833 1459q11 63 -20.5 107t-89.5 44t-105 -43.5t-58 -107.5q-12 -65 20 -108.5 t90 -43.5t105 44t58 108z" />
<glyph unicode="&#x1fc;" horiz-adv-x="1845" d="M0 0zM1332 1900h178l-283 -264h-105zM347 541h441l147 845h-90zM522 0l18 106h171l58 328h-484l-195 -328h148l-18 -106h-382l18 106h118l755 1280h-193l18 107h1311l-58 -332h-111l37 209h-620l-87 -500h443l33 187h110l-87 -496h-110l32 187h-442l-110 -625h635l36 209 h111l-58 -332h-1097z" />
<glyph unicode="&#x1fd;" horiz-adv-x="1732" d="M62 0zM1325 1267zM1146 1643h179l-372 -376h-106zM1373 632q101 66 101 190q0 171 -204 171q-121 0 -204.5 -102t-134.5 -377q285 14 442 118zM1076 -29q-215 0 -310 196q-130 -196 -397 -196h-13q-158 0 -238 119q-56 84 -56 204q0 51 10 108q61 353 283 535 q188 155 415 155q153 0 206 -29l-18 -97q144 126 340 126q352 0 352 -277q0 -399 -738 -407q-4 -38 -4 -72q0 -94 31 -156q53 -110 195 -110q104 0 156 35q92 63 113 144h122q-36 -127 -171 -216q-93 -62 -278 -62zM248 415q-11 -65 -11 -118q0 -211 186 -211 q113 0 190 100.5t111 292.5l84 482q0 29 -72 29q-173 0 -307 -150q-133 -151 -181 -425z" />
<glyph unicode="&#x1fe;" horiz-adv-x="1511" d="M0 0zM1005 1900h178l-283 -264h-105zM1180 1239q-43 88 -119 131t-187 43q-222 0 -364 -168.5t-200 -499.5q-20 -119 -22.5 -215.5t13.5 -177.5zM332 256q42 -89 119 -133.5t189 -44.5q221 0 363 168.5t199 498.5q21 117 23 215.5t-14 180.5zM1346 1276 q59 -108 75 -239.5t-12 -291.5q-60 -345 -278 -559.5t-510 -214.5q-127 0 -226.5 43t-175.5 129l-198 -200l-58 69l204 207q-60 105 -75.5 235.5t12.5 290.5q61 346 279.5 560.5t508.5 214.5q127 0 227.5 -42.5t172.5 -125.5l195 198l60 -71z" />
<glyph unicode="&#x1ff;" horiz-adv-x="1109" d="M0 0zM1045 1262zM866 1638h179l-372 -376h-106zM817 879q-24 57 -69.5 85.5t-112.5 28.5q-132 0 -221 -117t-129 -344q-12 -72 -15.5 -131t0.5 -108zM292 190q25 -61 70 -90.5t112 -29.5q132 0 221 117.5t129 344.5q13 76 17 136.5t-1 111.5zM972 922q43 -74 54.5 -173 t-9.5 -217q-44 -254 -197.5 -407.5t-363.5 -153.5q-84 0 -151.5 26.5t-118.5 80.5l-159 -172l-57 63l165 178q-41 77 -52 173.5t9 211.5q44 254 197.5 407t362.5 153q85 0 152.5 -25.5t116.5 -75.5l154 166l58 -63z" />
<glyph unicode="&#x200;" horiz-adv-x="1331" d="M0 0zM663 1899l118 -264h-105l-190 264h177zM949 1899l117 -264h-105l-190 264h178zM333 541h493l-122 710zM-141 0l18 106h118l721 1387h152l237 -1387h132l-18 -106h-489l18 106h150l-55 328h-566l-169 -328h147l-18 -106h-378z" />
<glyph unicode="&#x201;" horiz-adv-x="1098" d="M61 0zM740 1638l170 -376h-103l-220 376h153zM443 1638l203 -376h-105l-259 376h161zM669 166q-121 -195 -313 -195q-159 0 -239 119q-56 84 -56 204q0 51 10 108q62 353 282 535q189 155 416 155q153 0 206 -29l-168 -957h143l-19 -106h-291zM236 300q0 -214 186 -214 q113 0 190.5 100.5t110.5 292.5l85 482v0q0 29 -73 29q-172 0 -307 -150q-133 -151 -181 -425q-11 -64 -11 -115z" />
<glyph unicode="&#x202;" horiz-adv-x="1331" d="M0 0zM1119 1694h-86q2 79 -39 114q-40 36 -130 36t-143 -36q-54 -35 -79 -114h-86q34 143 117.5 215t214.5 72t189 -72t42 -215zM333 541h493l-122 710zM-141 0l18 106h118l721 1387h152l237 -1387h132l-18 -106h-489l18 106h150l-55 328h-566l-169 -328h147l-18 -106 h-378z" />
<glyph unicode="&#x203;" horiz-adv-x="1098" d="M61 0zM938 1321h-86q2 79 -39 114q-40 36 -130 36t-143 -36q-54 -35 -79 -114h-86q34 143 117.5 215t214.5 72t189 -72t42 -215zM669 166q-121 -195 -313 -195q-159 0 -239 119q-56 84 -56 204q0 51 10 108q62 353 282 535q189 155 416 155q153 0 206 -29l-168 -957h143 l-19 -106h-291zM236 300q0 -214 186 -214q113 0 190.5 100.5t110.5 292.5l85 482v0q0 29 -73 29q-172 0 -307 -150q-133 -151 -181 -425q-11 -64 -11 -115z" />
<glyph unicode="&#x204;" horiz-adv-x="1345" d="M0 0zM668 1899l118 -264h-105l-190 264h177zM954 1899l117 -264h-105l-190 264h178zM-29 0l19 106h171l224 1280h-171l18 107h1082l-58 -332h-111l37 209h-618l-87 -500h440l33 187h111l-87 -496h-111l33 187h-440l-110 -625h632l37 209h110l-58 -332h-1096z" />
<glyph unicode="&#x205;" horiz-adv-x="1090" d="M77 0zM774 1638l170 -376h-103l-220 376h153zM477 1638l203 -376h-105l-259 376h161zM269 408q-4 -38 -4 -72q0 -94 31 -156q53 -110 195 -110q105 0 156 35q92 63 113 144h122q-36 -127 -170 -216q-94 -62 -279.5 -62t-285.5 153q-70 107 -70 262q0 68 14 145 q44 253 196 407t368 154q352 0 352 -277q0 -203 -184 -302q-189 -101 -554 -105zM731 632q100 66 100 190q0 171 -204 171q-120 0 -204 -102t-135 -377q289 15 443 118z" />
<glyph unicode="&#x206;" horiz-adv-x="1345" d="M0 0zM1127 1694h-86q2 79 -39 114q-40 36 -130 36t-143 -36q-54 -35 -79 -114h-86q34 143 117.5 215t214.5 72t189 -72t42 -215zM-29 0l19 106h171l224 1280h-171l18 107h1082l-58 -332h-111l37 209h-618l-87 -500h440l33 187h111l-87 -496h-111l33 187h-440l-110 -625 h632l37 209h110l-58 -332h-1096z" />
<glyph unicode="&#x207;" horiz-adv-x="1090" d="M77 0zM972 1321h-86q2 79 -39 114q-40 36 -130 36t-143 -36q-54 -35 -79 -114h-86q34 143 117.5 215t214.5 72t189 -72t42 -215zM269 408q-4 -38 -4 -72q0 -94 31 -156q53 -110 195 -110q105 0 156 35q92 63 113 144h122q-36 -127 -170 -216q-94 -62 -279.5 -62 t-285.5 153q-70 107 -70 262q0 68 14 145q44 253 196 407t368 154q352 0 352 -277q0 -203 -184 -302q-189 -101 -554 -105zM731 632q100 66 100 190q0 171 -204 171q-120 0 -204 -102t-135 -377q289 15 443 118z" />
<glyph unicode="&#x208;" horiz-adv-x="728" d="M0 0zM379 1899l118 -264h-105l-190 264h177zM665 1899l117 -264h-105l-190 264h178zM343 106h171l-18 -106h-525l19 106h171l224 1280h-171l18 107h525l-19 -107h-171z" />
<glyph unicode="&#x209;" horiz-adv-x="589" d="M26 0zM272 106h156l-18 -106h-322l168 956h-159l18 107h324zM484 1636l170 -376h-103l-220 376h153zM187 1636l203 -376h-105l-259 376h161z" />
<glyph unicode="&#x20a;" horiz-adv-x="728" d="M0 0zM825 1694h-86q2 79 -39 114q-40 36 -130 36t-143 -36q-54 -35 -79 -114h-86q34 143 117.5 215t214.5 72t189 -72t42 -215zM343 106h171l-18 -106h-525l19 106h171l224 1280h-171l18 107h525l-19 -107h-171z" />
<glyph unicode="&#x20b;" horiz-adv-x="589" d="M88 0zM272 106h156l-18 -106h-322l168 956h-159l18 107h324zM673 1263h-86q2 79 -39 114q-40 36 -130 36t-143 -36q-54 -35 -79 -114h-86q34 143 117.5 215t214.5 72t189 -72t42 -215z" />
<glyph unicode="&#x20c;" horiz-adv-x="1511" d="M95 0zM757 1899l118 -264h-105l-190 264h177zM1043 1899l117 -264h-105l-190 264h178zM638 78q221 0 363 168.5t199 498.5q58 331 -25 499.5t-303 168.5q-222 0 -364 -168.5t-199 -499.5q-58 -330 25 -498.5t304 -168.5zM620 -29q-137 0 -243 50t-177 147 q-81 112 -105 254t7.5 323t105.5 323.5t194 254.5q106 98 228 147.5t260 49.5q293 0 435.5 -213t81.5 -562q-31 -179 -105.5 -322.5t-194.5 -254.5q-106 -98 -228 -147.5t-259 -49.5z" />
<glyph unicode="&#x20d;" horiz-adv-x="1109" d="M77 0zM783 1638l170 -376h-103l-220 376h153zM486 1638l203 -376h-105l-259 376h161zM473 70q133 0 221.5 117t128.5 345q18 104 18 185q0 96 -26 159q-48 117 -181 117t-221.5 -116.5t-128.5 -344.5q-18 -104 -18 -184q0 -97 26 -161q48 -117 181 -117zM455 -29 q-208 0 -308 153q-70 107 -70 261q0 69 14 147q44 254 197.5 407t363 153t309.5 -153q69 -106 69 -260q0 -69 -14 -147q-44 -254 -197.5 -407.5t-363.5 -153.5z" />
<glyph unicode="&#x20e;" horiz-adv-x="1511" d="M95 0zM1210 1694h-86q2 79 -39 114q-40 36 -130 36t-143 -36q-54 -35 -79 -114h-86q34 143 117.5 215t214.5 72t189 -72t42 -215zM638 78q221 0 363 168.5t199 498.5q58 331 -25 499.5t-303 168.5q-222 0 -364 -168.5t-199 -499.5q-58 -330 25 -498.5t304 -168.5z M620 -29q-137 0 -243 50t-177 147q-81 112 -105 254t7.5 323t105.5 323.5t194 254.5q106 98 228 147.5t260 49.5q293 0 435.5 -213t81.5 -562q-31 -179 -105.5 -322.5t-194.5 -254.5q-106 -98 -228 -147.5t-259 -49.5z" />
<glyph unicode="&#x20f;" horiz-adv-x="1109" d="M77 0zM981 1321h-86q2 79 -39 114q-40 36 -130 36t-143 -36q-54 -35 -79 -114h-86q34 143 117.5 215t214.5 72t189 -72t42 -215zM473 70q133 0 221.5 117t128.5 345q18 104 18 185q0 96 -26 159q-48 117 -181 117t-221.5 -116.5t-128.5 -344.5q-18 -104 -18 -184 q0 -97 26 -161q48 -117 181 -117zM455 -29q-208 0 -308 153q-70 107 -70 261q0 69 14 147q44 254 197.5 407t363 153t309.5 -153q69 -106 69 -260q0 -69 -14 -147q-44 -254 -197.5 -407.5t-363.5 -153.5z" />
<glyph unicode="&#x210;" horiz-adv-x="1387" d="M0 0zM663 1899l118 -264h-105l-190 264h177zM949 1899l117 -264h-105l-190 264h178zM882 741q60 -19 97.5 -64.5t58.5 -127.5l118 -443h164l-19 -106h-316l-127 475q-36 138 -79.5 178.5t-131.5 40.5h-201l-103 -588h190l-18 -106h-544l19 106h171l224 1280h-171l18 107 h682q196 0 284.5 -104t54.5 -295q-27 -154 -120 -242.5t-251 -110.5zM465 801h265q136 0 213.5 71.5t103.5 221.5t-26 221t-188 71h-266z" />
<glyph unicode="&#x211;" horiz-adv-x="881" d="M128 0zM736 1638l170 -376h-103l-220 376h153zM439 1638l203 -376h-105l-259 376h161zM971 1065l-47 -266h-95q2 20 2 37q0 52 -21 81q-28 39 -96 39q-122 0 -204 -94t-112 -270l-104 -592h-166l168 958h-158l18 105h324l-33 -189q68 111 154 164.5t196 53.5 q40 0 83.5 -7t90.5 -20z" />
<glyph unicode="&#x212;" horiz-adv-x="1387" d="M0 0zM1118 1694h-86q2 79 -39 114q-40 36 -130 36t-143 -36q-54 -35 -79 -114h-86q34 143 117.5 215t214.5 72t189 -72t42 -215zM882 741q60 -19 97.5 -64.5t58.5 -127.5l118 -443h164l-19 -106h-316l-127 475q-36 138 -79.5 178.5t-131.5 40.5h-201l-103 -588h190 l-18 -106h-544l19 106h171l224 1280h-171l18 107h682q196 0 284.5 -104t54.5 -295q-27 -154 -120 -242.5t-251 -110.5zM465 801h265q136 0 213.5 71.5t103.5 221.5t-26 221t-188 71h-266z" />
<glyph unicode="&#x213;" horiz-adv-x="881" d="M128 0zM934 1321h-86q2 79 -39 114q-40 36 -130 36t-143 -36q-54 -35 -79 -114h-86q34 143 117.5 215t214.5 72t189 -72t42 -215zM971 1065l-47 -266h-95q2 20 2 37q0 52 -21 81q-28 39 -96 39q-122 0 -204 -94t-112 -270l-104 -592h-166l168 958h-158l18 105h324 l-33 -189q68 111 154 164.5t196 53.5q40 0 83.5 -7t90.5 -20z" />
<glyph unicode="&#x214;" horiz-adv-x="1553" d="M201 0zM825 1899l118 -264h-105l-190 264h177zM1111 1899l117 -264h-105l-190 264h178zM373 1386h-172l19 107h525l-19 -107h-171l-136 -772q-50 -286 14.5 -399t270.5 -113t310 113t154 399l135 772h-172l19 107h454l-19 -107h-171l-139 -792q-59 -341 -201.5 -482 t-425.5 -141t-378 142t-36 481z" />
<glyph unicode="&#x215;" horiz-adv-x="1187" d="M126 0zM754 1638l170 -376h-103l-220 376h153zM457 1638l203 -376h-105l-259 376h161zM892 1063h166l-168 -957h157l-19 -106h-322l33 188q-65 -106 -147.5 -161.5t-178.5 -55.5q-159 0 -217 101q-35 60 -35 163q0 67 15 152l100 569h-150l19 107h316l-108 -619 q-18 -103 -18 -171q0 -61 14 -95q30 -72 140 -72q115 0 191.5 94t108.5 273z" />
<glyph unicode="&#x216;" horiz-adv-x="1553" d="M201 0zM1272 1694h-86q2 79 -39 114q-40 36 -130 36t-143 -36q-54 -35 -79 -114h-86q34 143 117.5 215t214.5 72t189 -72t42 -215zM373 1386h-172l19 107h525l-19 -107h-171l-136 -772q-50 -286 14.5 -399t270.5 -113t310 113t154 399l135 772h-172l19 107h454l-19 -107 h-171l-139 -792q-59 -341 -201.5 -482t-425.5 -141t-378 142t-36 481z" />
<glyph unicode="&#x217;" horiz-adv-x="1187" d="M126 0zM952 1321h-86q2 79 -39 114q-40 36 -130 36t-143 -36q-54 -35 -79 -114h-86q34 143 117.5 215t214.5 72t189 -72t42 -215zM892 1063h166l-168 -957h157l-19 -106h-322l33 188q-65 -106 -147.5 -161.5t-178.5 -55.5q-159 0 -217 101q-35 60 -35 163q0 67 15 152 l100 569h-150l19 107h316l-108 -619q-18 -103 -18 -171q0 -61 14 -95q30 -72 140 -72q115 0 191.5 94t108.5 273z" />
<glyph unicode="&#x218;" horiz-adv-x="1262" d="M53 0zM53 72l60 340l103 -1q-25 -170 45 -251.5t241 -81.5q161 0 257.5 70.5t119.5 205.5q19 108 -21.5 166t-194.5 113l-167 59q-182 65 -243.5 162t-32.5 266q34 190 173.5 295t359.5 105q93 0 201 -22.5t226 -65.5l-55 -318h-102q12 158 -55 228.5t-230 70.5 q-142 0 -227.5 -64.5t-107.5 -187.5q-19 -107 26.5 -168t215.5 -121l157 -55q172 -61 233 -155.5t34 -253.5q-38 -217 -182.5 -327t-391.5 -110q-111 0 -221.5 25t-220.5 76zM475 -412q69 42 100.5 98t31.5 136v22h142q-6 -103 -59 -176q-52 -74 -157 -128z" />
<glyph unicode="&#x219;" horiz-adv-x="945" d="M21 0zM64 307h95q-3 -29 -3 -55q0 -182 222 -182q223 0 256 182q2 18 2 50q0 31 -30.5 68.5t-159.5 86.5l-112 45q-115 44 -152.5 100.5t-37.5 121.5q0 26 4 56q27 146 137.5 229t270.5 83t327 -86l-41 -232h-95q4 23 4 43q0 73 -45.5 124.5t-151.5 51.5 q-211 0 -240 -164q-4 -17 -4 -47q0 -31 29.5 -66t143.5 -77l124 -45q127 -47 175 -118q33 -50 33 -99q0 -210 -151 -319q-119 -87 -300.5 -87t-342.5 88zM280 -412q69 42 100.5 98t31.5 136v22h142q-6 -103 -59 -176q-52 -74 -157 -128z" />
<glyph unicode="&#x21a;" horiz-adv-x="1229" d="M87 0zM221 0l19 106h172l222 1268h-396l-40 -233h-111l62 352h1193l-62 -352h-110l40 233h-395l-221 -1268h171l-18 -106h-526zM401 -412q69 42 100.5 98t31.5 136v22h142q-6 -103 -59 -176q-52 -74 -157 -128z" />
<glyph unicode="&#x21b;" horiz-adv-x="740" d="M101 0zM247 956h-146l19 107h146l57 330h167l-58 -330h311l-18 -107h-312l-118 -675q-14 -79 -14 -125q0 -32 7 -48q17 -38 80 -38q65 0 102 42.5t56 137.5h125q-33 -145 -108.5 -212t-206.5 -67q-143 0 -190 71q-29 43 -29 123q0 51 12 116zM236 -412q69 42 100.5 98 t31.5 136v22h142q-6 -103 -59 -176q-52 -74 -157 -128z" />
<glyph unicode="&#x21c;" horiz-adv-x="1155" d="M288 1391q308 129 472.5 129t266 -104.5t70.5 -278.5t-118 -280t-209 -183q121 -19 177.5 -133t37.5 -227q-38 -218 -187.5 -350.5t-382 -226.5t-446.5 -167l21 115q185 69 358.5 155.5t290.5 201t141 250t-27 206.5q-86 121 -252 39l-227 -113l18 108l233 123 q137 73 252 209q86 103 113.5 259t-36.5 223t-169.5 72t-209.5 -98q-91 -103 -145 -273h-101z" />
<glyph unicode="&#x21d;" horiz-adv-x="961" d="M383 943q-104 -67 -156 -235h-97l48 272q88 43 209 76.5t244.5 29t213.5 -86.5t68 -207.5t-98.5 -211.5t-185.5 -149q109 -15 162.5 -102.5t40.5 -168.5q-32 -177 -165.5 -285.5t-358 -191.5t-377.5 -116l18 100q148 43 308.5 112t276.5 172q90 80 107.5 182.5 t-28.5 159.5q-71 88 -225 26l-200 -80l17 100l201 86q113 48 208 151q86 94 104 198.5t-36.5 159t-133.5 54.5q-94 0 -165 -45z" />
<glyph unicode="&#x21e;" horiz-adv-x="1607" d="M0 0zM891 1635l-161 264h104l154 -162l211 162h105l-255 -264h-158zM-29 0l19 106h171l224 1280h-171l18 107h525l-19 -107h-171l-90 -516h697l90 516h-171l19 107h524l-18 -107h-171l-224 -1280h171l-19 -106h-525l19 106h171l112 642h-696l-113 -642h171l-18 -106h-525 z" />
<glyph unicode="&#x21f;" horiz-adv-x="1187" d="M88 0zM378 1711l-161 264h104l154 -162l211 162h105l-255 -264h-158zM88 0l254 1450h-159l19 106h324l-120 -682q65 108 148 163t180 55q159 0 216 -101q34 -61 34 -163q0 -67 -15 -152l-99 -570h147l-18 -106h-314l108 618q18 103 18 172q0 61 -14 94q-31 72 -140 72 q-116 0 -192.5 -93t-107.5 -271l-104 -592h-165z" />
<glyph unicode="&#x220;" horiz-adv-x="1553" d="M667 1292q175 230 457 230q228 0 310 -146q48 -87 48 -209t-21 -245l-217 -1241h171l-19 -107h-527l18 107h172l210 1200q27 150 27 249t-23 152q-49 109 -224.5 109t-292.5 -128.5t-160 -375.5l-136 -780h171l-19 -107h-526l19 107h172l223 1279h-158l19 107h341z" />
<glyph unicode="&#x221;" horiz-adv-x="1500" d="M998 -51q240 0 259 107q21 123 -356 123q-13 0 -25 -1q-24 -95 11 -167q30 -62 111 -62zM763 479l18 105q33 191 -15 292t-174 101q-128 0 -213 -112t-124 -333q-38 -220 7.5 -333t173.5 -113q126 0 209.5 100.5t117.5 292.5zM893 279h14h8q484 0 439 -230 q-38 -199 -376 -199q-144 0 -220 93q-48 61 -56 132q-39 -61 -55 -156l-11 -64h-90l12 64q12 66 32 120q-15 -11 -32 -21q-83 -47 -194 -47q-176 0 -261 155.5t-41 405.5t182.5 405t315.5 155q111 0 178 -47.5t98 -147.5l97 553h-157l19 106h322z" />
<glyph unicode="&#x224;" horiz-adv-x="1280" d="M-14 0l12 72l1064 1298h-694l-39 -223h-111l60 346h1062l-12 -72l-1064 -1298h692h177q-37 -171 -123.5 -293.5t-233.5 -212.5l-58 80q96 69 152 163q37 61 60 140h-944z" />
<glyph unicode="&#x225;" horiz-adv-x="971" d="M16 0l15 86l751 870h-474l-32 -184h-95l50 291h783l-15 -86l-751 -871h439h177q-37 -171 -123.5 -293.5t-233.5 -212.5l-58 80q96 69 152 162q41 69 64 158h-649z" />
<glyph unicode="&#x226;" horiz-adv-x="1331" d="M0 0zM889.5 1886q42.5 0 67.5 -35t17 -81q-9 -50 -45 -83q-36 -34 -81 -34t-69 34q-25 33 -16 83q8 46 46 81t80.5 35zM333 541h493l-122 710zM-141 0l18 106h118l721 1387h152l237 -1387h132l-18 -106h-489l18 106h150l-55 328h-566l-169 -328h147l-18 -106h-378z" />
<glyph unicode="&#x227;" horiz-adv-x="1098" d="M61 0zM788 1335zM703.5 1569q43.5 0 68.5 -35q24 -34 16 -82q-9 -51 -44 -84q-36 -33 -82 -33t-69 33q-24 33 -16 84q9 48 46 82q37 35 80.5 35zM669 166q-121 -195 -313 -195q-159 0 -239 119q-56 84 -56 204q0 51 10 108q62 353 282 535q189 155 416 155q153 0 206 -29 l-168 -957h143l-19 -106h-291zM236 300q0 -214 186 -214q113 0 190.5 100.5t110.5 292.5l85 482v0q0 29 -73 29q-172 0 -307 -150q-133 -151 -181 -425q-11 -64 -11 -115z" />
<glyph unicode="&#x228;" horiz-adv-x="1345" d="M0 0zM663 0zM588 0q46 -64 64.5 -120t10.5 -105q-14 -81 -78.5 -125.5t-165.5 -44.5q-38 0 -76.5 6t-77.5 18l22 131q34 -17 68.5 -25.5t65.5 -8.5q51 0 85.5 26.5t42.5 71.5q5 28 -7 72t-42 104h88zM-29 0l19 106h171l224 1280h-171l18 107h1082l-58 -332h-111l37 209 h-618l-87 -500h440l33 187h111l-87 -496h-111l33 187h-440l-110 -625h632l37 209h110l-58 -332h-1096z" />
<glyph unicode="&#x229;" horiz-adv-x="1090" d="M77 0zM569 0zM494 0q46 -64 64.5 -120t10.5 -105q-14 -81 -78.5 -125.5t-165.5 -44.5q-38 0 -76.5 6t-77.5 18l22 131q34 -17 68.5 -25.5t65.5 -8.5q51 0 85.5 26.5t42.5 71.5q5 28 -7 72t-42 104h88zM269 408q-4 -38 -4 -72q0 -94 31 -156q53 -110 195 -110 q105 0 156 35q92 63 113 144h122q-36 -127 -170 -216q-94 -62 -279.5 -62t-285.5 153q-70 107 -70 262q0 68 14 145q44 253 196 407t368 154q352 0 352 -277q0 -203 -184 -302q-189 -101 -554 -105zM731 632q100 66 100 190q0 171 -204 171q-120 0 -204 -102t-135 -377 q289 15 443 118z" />
<glyph unicode="&#x22a;" horiz-adv-x="1511" d="M95 0zM1339 2057zM800 2205h539l-26 -148h-538zM95 0zM638 78q221 0 363 168.5t199 498.5q58 331 -25 499.5t-303 168.5q-222 0 -364 -168.5t-199 -499.5q-58 -330 25 -498.5t304 -168.5zM620 -29q-137 0 -243 50t-177 147q-81 112 -105 254t7.5 323t105.5 323.5 t194 254.5q106 98 228 147.5t260 49.5q293 0 435.5 -213t81.5 -562q-31 -179 -105.5 -322.5t-194.5 -254.5q-106 -98 -228 -147.5t-259 -49.5zM813 1884q43 0 68 -35t17 -81q-9 -50 -45 -83q-36 -34 -81 -34t-69 34q-24 33 -15 83q8 46 45 81q38 35 80 35zM1164 1884 q42 0 67 -35t17 -81q-9 -50 -45 -83q-36 -34 -80 -34q-45 0 -70 34q-24 33 -15 83q8 46 45 81q38 35 81 35z" />
<glyph unicode="&#x22b;" horiz-adv-x="1109" d="M78 0zM78 0zM474 70q133 0 221.5 117t128.5 345q18 104 18 185q0 96 -26 159q-48 117 -181 117t-221.5 -116.5t-128.5 -344.5q-18 -104 -18 -184q0 -97 26 -161q48 -117 181 -117zM456 -29q-208 0 -308 153q-70 107 -70 261q0 69 14 147q44 254 197.5 407t363 153 t309.5 -153q69 -106 69 -260q0 -69 -14 -147q-44 -254 -197.5 -407.5t-363.5 -153.5zM575 1569q43 0 68 -35q24 -34 16 -82q-9 -51 -44 -84q-36 -33 -82 -33q-45 0 -68 33q-25 33 -15 84q8 48 45 82q37 35 80 35zM926 1569q42 0 67 -35q24 -34 16 -82q-9 -51 -44 -84 q-36 -33 -81 -33q-46 0 -69 33q-24 33 -15 84q8 48 46 82q36 35 80 35zM540 1842h539l-26 -148h-538z" />
<glyph unicode="&#x22c;" horiz-adv-x="1511" d="M95 0zM1339 2057zM800 2205h539l-26 -148h-538zM95 0zM638 78q221 0 363 168.5t199 498.5q58 331 -25 499.5t-303 168.5q-222 0 -364 -168.5t-199 -499.5q-58 -330 25 -498.5t304 -168.5zM620 -29q-137 0 -243 50t-177 147q-81 112 -105 254t7.5 323t105.5 323.5 t194 254.5q106 98 228 147.5t260 49.5q293 0 435.5 -213t81.5 -562q-31 -179 -105.5 -322.5t-194.5 -254.5q-106 -98 -228 -147.5t-259 -49.5zM943 1715l-38 28q-16 13 -33 20t-32 7q-35 0 -64 -29q-28 -28 -39 -74l-87 1q19 100 76 159q55 59 132 59q32 0 59 -9 q26 -9 71 -40l39 -26q18 -13 37 -20q18 -7 33 -7q37 0 63 27q27 28 35 75h87q-20 -105 -77 -162q-55 -57 -140 -57q-60 0 -118 45z" />
<glyph unicode="&#x22d;" horiz-adv-x="1109" d="M78 0zM78 0zM474 70q133 0 221.5 117t128.5 345q18 104 18 185q0 96 -26 159q-48 117 -181 117t-221.5 -116.5t-128.5 -344.5q-18 -104 -18 -184q0 -97 26 -161q48 -117 181 -117zM456 -29q-208 0 -308 153q-70 107 -70 261q0 69 14 147q44 254 197.5 407t363 153 t309.5 -153q69 -106 69 -260q0 -69 -14 -147q-44 -254 -197.5 -407.5t-363.5 -153.5zM727 1370l-42 55q-19 24 -32 31q-14 8 -31 8q-38 0 -66 -40q-29 -39 -46 -115h-87q26 135 84 209q59 73 141 73q34 0 61 -14q26 -14 54 -47l41 -55q16 -23 31 -31q13 -8 32 -8 q39 0 67.5 40t45.5 115h86q-25 -135 -84 -209q-58 -73 -140 -73q-34 0 -61 14q-26 14 -54 47zM533 1842h539l-26 -148h-538z" />
<glyph unicode="&#x22e;" horiz-adv-x="1511" d="M96 0zM980.5 1886q42.5 0 67.5 -35t17 -81q-9 -50 -45 -83q-36 -34 -81 -34t-69 34q-25 33 -16 83q8 46 46 81t80.5 35zM639 78q221 0 363 168.5t199 498.5q58 331 -25 499.5t-303 168.5q-222 0 -364 -168.5t-199 -499.5q-58 -330 25 -498.5t304 -168.5zM621 -29 q-137 0 -243 50t-177 147q-81 112 -105 254t7.5 323t105.5 323.5t194 254.5q106 98 228 147.5t260 49.5q293 0 435.5 -213t81.5 -562q-31 -179 -105.5 -322.5t-194.5 -254.5q-106 -98 -228 -147.5t-259 -49.5z" />
<glyph unicode="&#x22f;" horiz-adv-x="1109" d="M78 0zM474 70q133 0 221.5 117t128.5 345q18 104 18 185q0 96 -26 159q-48 117 -181 117t-221.5 -116.5t-128.5 -344.5q-18 -104 -18 -184q0 -97 26 -161q48 -117 181 -117zM456 -29q-208 0 -308 153q-70 107 -70 261q0 69 14 147q44 254 197.5 407t363 153t309.5 -153 q69 -106 69 -260q0 -69 -14 -147q-44 -254 -197.5 -407.5t-363.5 -153.5zM746.5 1568q43.5 0 68.5 -35q24 -34 16 -82q-9 -51 -44 -84q-36 -33 -82 -33t-69 33q-24 33 -16 84q9 48 46 82q37 35 80.5 35z" />
<glyph unicode="&#x230;" horiz-adv-x="1511" d="M95 0zM1279 2057zM740 2205h539l-26 -148h-538zM1060 1708zM975.5 1942q43.5 0 68.5 -35q24 -34 16 -82q-9 -51 -44 -84q-36 -33 -82 -33t-69 33q-24 33 -16 84q9 48 46 82q37 35 80.5 35zM638 78q221 0 363 168.5t199 498.5q58 331 -25 499.5t-303 168.5 q-222 0 -364 -168.5t-199 -499.5q-58 -330 25 -498.5t304 -168.5zM620 -29q-137 0 -243 50t-177 147q-81 112 -105 254t7.5 323t105.5 323.5t194 254.5q106 98 228 147.5t260 49.5q293 0 435.5 -213t81.5 -562q-31 -179 -105.5 -322.5t-194.5 -254.5q-106 -98 -228 -147.5 t-259 -49.5z" />
<glyph unicode="&#x231;" horiz-adv-x="1109" d="M78 0zM78 0zM474 70q133 0 221.5 117t128.5 345q18 104 18 185q0 96 -26 159q-48 117 -181 117t-221.5 -116.5t-128.5 -344.5q-18 -104 -18 -184q0 -97 26 -161q48 -117 181 -117zM456 -29q-208 0 -308 153q-70 107 -70 261q0 69 14 147q44 254 197.5 407t363 153 t309.5 -153q69 -106 69 -260q0 -69 -14 -147q-44 -254 -197.5 -407.5t-363.5 -153.5zM746.5 1568q43.5 0 68.5 -35q24 -34 16 -82q-9 -51 -44 -84q-36 -33 -82 -33t-69 33q-24 33 -16 84q9 48 46 82q37 35 80.5 35zM540 1842h539l-26 -148h-538z" />
<glyph unicode="&#x232;" horiz-adv-x="1216" d="M91 0zM557 1842h539l-26 -148h-538zM218 0l18 106h172l94 537l-285 743h-126l19 107h499l-18 -107h-157l230 -604l441 604h-151l19 107h391l-19 -107h-127l-531 -724l-97 -556h172l-19 -106h-525z" />
<glyph unicode="&#x233;" horiz-adv-x="1041" d="M0 0zM410 1526h539l-26 -148h-538zM1060 1054q-89 -572 -246 -874q-229 -443 -414 -576q-81 -59 -297 -59q-43 0 -85.5 8t-85.5 23l36 203h84q-2 -16 -2 -31q0 -42 17 -66q22 -34 81 -34q158 0 296 153l-226 1155h-109l19 107h247l213 -1055q145 241 180 340 q113 311 136 599h-109l19 107h246z" />
<glyph unicode="&#x234;" horiz-adv-x="922" d="M375 164q45 -94 169 -94q143 -2 162 107q22 124 -78 123q-163 -2 -253 -136zM354 532q-28 -159 -14 -264q151 140 322 140q183 0 142 -238q-35 -199 -279 -199q-138 0 -222 71q-13 -32 -27 -117l-25 -144h-103l26 144q20 101 56 180l-14 19q-69 171 -27 408l160 918h-159 l18 106h325z" />
<glyph unicode="&#x235;" horiz-adv-x="1532" d="M1026 164q45 -94 169 -94q142 -2 162 107q22 124 -79 123q-162 -2 -252 -136zM853 618q34 195 3.5 267.5t-139.5 72.5q-115 0 -191.5 -93.5t-107.5 -272.5l-104 -592h-166l168 956h-158l18 107h324l-33 -189q65 108 148 163t180 55q158 0 215 -101t20 -315l-25 -144 q-31 -177 -14 -264q151 140 321 140q184 0 142 -238q-34 -199 -278 -199q-138 0 -222 71q-14 -32 -27 -117l-25 -144h-103l26 144q20 101 56 180l-14 19q-70 172 -28 408z" />
<glyph unicode="&#x236;" horiz-adv-x="909" d="M377 164q45 -94 169 -94q143 -2 162 107q21 124 -79 123q-162 -2 -252 -136zM430 956l-74 -424q-28 -159 -14 -264q151 140 321 140q184 0 142 -238q-34 -199 -278 -199q-138 0 -222 71q-14 -32 -28 -117l-25 -144h-102l26 144q20 101 56 180l-14 19q-70 172 -29 408 l74 424h-145l18 107h146l58 330h166l-57 -330h311l-19 -107h-311z" />
<glyph unicode="&#x237;" horiz-adv-x="571" d="M339 956h-157l19 107h322l-204 -1167q-28 -164 -132.5 -257.5t-258.5 -93.5q-64 0 -120.5 16.5t-106.5 49.5l39 219h85q-10 -96 20.5 -141t103.5 -45q82 0 132 61.5t73 190.5z" />
<glyph unicode="&#x238;" horiz-adv-x="1769" d="M752 479l18 105q34 191 -14.5 292t-174.5 101q-128 0 -213 -112t-123 -333q-39 -220 6.5 -333t173.5 -113q126 0 210 100.5t117 292.5zM918 479q-34 -192 14.5 -292.5t174.5 -100.5q127 0 212 113t124 333q38 221 -7.5 333t-172.5 112q-126 0 -209.5 -101t-117.5 -292z M668 0l29 166q-66 -100 -149.5 -147.5t-193.5 -47.5q-177 0 -261.5 155.5t-41 405.5t182 405t316.5 155q110 0 177 -47.5t98 -147.5l97 553h-159l18 106h325l-115 -659q66 100 149.5 147.5t194.5 47.5q176 0 260.5 -155t40.5 -405t-182.5 -405.5t-315.5 -155.5 q-110 0 -177 47.5t-98 147.5l-29 -166h-166z" />
<glyph unicode="&#x239;" horiz-adv-x="1769" d="M846 584q33 191 -15.5 292t-174.5 101q-128 0 -212.5 -112t-123.5 -333q-38 -220 7.5 -333t172.5 -113q126 0 210 100.5t117 292.5zM930 1063h165l-29 -166q66 100 149.5 147.5t194.5 47.5q176 0 260.5 -155t41 -405t-182.5 -405.5t-315 -155.5q-111 0 -178 47.5 t-98 147.5l-85 -485h157h2l-19 -107h-2h-322l104 592q-66 -100 -149.5 -147.5t-194.5 -47.5q-176 0 -261 155.5t-41.5 405.5t182.5 405t316 155q111 0 177.5 -47.5t98.5 -147.5zM1011 584l-18 -105q-34 -192 15 -292.5t175 -100.5t211.5 113t123.5 333q39 221 -7 333 t-173 112q-126 0 -209.5 -101t-117.5 -292z" />
<glyph unicode="&#x23a;" horiz-adv-x="1331" d="M-141 0l18 106h89l61 61l689 1326h152l69 -408l461 465l59 -71l-501 -504l149 -869h132l-18 -106h-489l18 106h150l-55 328h-424l-296 -298l-15 -30h147l-18 -106h-249l-57 -57l-48 57h-24zM262 404l30 30h-15zM763 909l-59 342l-371 -710h65zM526 541h300l-44 258z" />
<glyph unicode="&#x23b;" horiz-adv-x="1410" d="M-29 -57l-58 69l238 240q-40 79 -55 170q-24 143 7 323q61 348 279.5 561.5t514.5 213.5q110 0 228 -32q89 -24 185 -66l127 128l60 -71l-129 -130l-53 -302h-101q-1 74 -14 133l-884 -890q7 -22 17 -42q81 -170 296 -170q150 0 261.5 79.5t182.5 237.5h165 q-96 -209 -254.5 -316.5t-373.5 -107.5q-131 0 -234.5 50t-174.5 147l-3 4zM292 394l873 881q-16 27 -37 49q-84 89 -265 89q-215 0 -355.5 -169.5t-198.5 -498.5q-36 -207 -17 -351z" />
<glyph unicode="&#x23c;" horiz-adv-x="1032" d="M-8 -94l-57 63l187 201q-68 144 -30 362q44 255 198 407.5t362 152.5q91 0 177 -24q49 -13 97 -34l114 123l57 -63l-102 -110l-45 -259h-96q2 57 -5 102l-567 -609q5 -17 11 -32q47 -116 182 -116q108 0 182.5 62t119.5 187h134q-65 -170 -180.5 -259t-274.5 -89 q-188 0 -287 124zM267 326l549 590q-4 7 -9 13q-52 64 -170 64q-134 0 -222.5 -115.5t-129.5 -345.5q-20 -118 -18 -206z" />
<glyph unicode="&#x23d;" horiz-adv-x="1224" d="M-29 0l19 106h171l91 522h-239l30 170h239l103 588h-171l18 107h525l-19 -107h-171l-103 -588h239l-30 -170h-238l-89 -505h614l44 250h111l-66 -373h-1078z" />
<glyph unicode="&#x23e;" horiz-adv-x="1229" d="M747 0h-526l19 106h172l79 451l-610 -614l-59 69l696 702l116 660h-396l-40 -233h-111l62 352h1142l56 57l60 -71l-82 -82l-45 -256h-110l21 121l-480 -483l-117 -673h171zM1173 1374h-358l-76 -438z" />
<glyph unicode="&#x23f;" horiz-adv-x="945" d="M306 -33l38 -162q22 -93 42 -123q21 -30 92 -30q39 0 70 29.5t48 97.5h85l-36 -203q-48 -15 -94 -23t-100 -8q-128 0 -177 40q-74 60 -98 175l-39 183q-15 67 -39 96q-20 9 -40 20l43 248h96q-17 -119 36 -178t177 -59q112 0 178.5 46.5t82.5 135.5q12 70 -23.5 113 t-164.5 92l-112 45q-115 44 -159 110t-26 168q26 146 136.5 229t280.5 83q76 0 156 -22t161 -64l-40 -232h-96q15 103 -36 161t-157 58q-104 0 -164.5 -41t-75.5 -123q-12 -67 21.5 -107.5t147.5 -82.5l124 -45q128 -47 175.5 -117.5t27.5 -181.5q-26 -151 -145 -237.5 t-302 -86.5q-50 0 -97 6z" />
<glyph unicode="&#x240;" horiz-adv-x="971" d="M213 0h-192l15 86l751 870h-474l-32 -184h-96l51 291h783l-15 -86l-752 -871h44q205 0 263 -228l19 -73q25 -97 42 -123q20 -30 57 -30q39 0 69.5 29.5t48.5 97.5h84l-35 -203q-48 -15 -94 -23t-101 -8q-92 0 -141 40q-74 60 -98 175l-20 94q-30 146 -177 146z" />
<glyph unicode="&#x241;" horiz-adv-x="1075" d="M420 1387q-77 0 -116 -38q-46 -44 -68 -140h-87l38 218q62 34 124.5 50t126.5 16h265q202 0 300 -113.5t64 -305.5q-34 -194 -172 -308t-339 -114h-43l-96 -546h208l-18 -106h-562l18 106h171l115 654h182q134 0 218 80.5t111 233.5q27 152 -29.5 232.5t-190.5 80.5h-220 z" />
<glyph unicode="&#x242;" horiz-adv-x="855" d="M275 359q133 0 218 81q85 80 112 233q26 152 -30 233q-56 80 -190 80q-76 0 -116 -38q-46 -44 -68 -140h-87l38 218q62 34 124 50t127 16h44q202 0 300 -114q98 -113 65 -305q-35 -196 -172 -308q-95 -77 -217 -102l-46 -263h-165z" />
<glyph unicode="&#x245;" horiz-adv-x="1331" d="M0 0zM898 106l-194 1145l-596 -1145h147l-18 -106h-378l18 106h118l721 1387h152l237 -1387h132l-18 -106h-489l18 106h150z" />
<glyph unicode="&#x250;" horiz-adv-x="1098" d="M440 729l-40 -225h213q124 0 194.5 59t91.5 181q20 111 -30 176t-154 65t-180 -71t-95 -185zM216 399l98 558h-148l19 106h313l-20 -115q68 74 146 109t174 35q160 0 237 -94t49 -254q-29 -165 -152 -256t-318 -91h-233l-12 -73q-21 -121 33 -188q55 -66 174 -66 q99 0 166.5 50t98.5 148h86l-38 -215q-93 -41 -179 -61q-84 -21 -162 -21q-199 0 -283 109q-85 110 -49 319z" />
<glyph unicode="&#x251;" horiz-adv-x="1179" d="M92 0zM748 262l-55 -111q-43 -86 -139 -141q-61 -36 -160 -35q-178 2 -261 155q-84 156 -41 406q43 245 183 405q131 151 354 150q153 0 218 -67q59 -59 62 -188l1 -37l54 111q51 105 153 157h91l-11 -59q-91 -30 -138 -124l-143 -284l9 -306q4 -157 36 -174 q45 -25 171 50l-21 -121q-204 -117 -311 5q-49 56 -51 137zM744 458l-5 294q-5 234 -127 235q-103 1 -203 -122q-83 -101 -124 -333q-38 -220 7 -333q50 -123 173 -113q104 9 222 254z" />
<glyph unicode="&#x252;" horiz-adv-x="1244" d="M552 804l55 111q43 86 139 141q61 36 160 35q178 -2 261 -155q84 -156 41 -406q-43 -245 -183 -405q-131 -151 -354 -150q-153 0 -218 67q-58 59 -62 188l-1 37l-54 -111q-51 -105 -153 -157h-91l11 59q91 30 138 124l143 284l-9 306q-4 157 -36 174q-45 25 -171 -50 l22 121q203 117 310 -5q49 -56 51 -137zM556 608l6 -294q4 -234 126 -235q103 -1 203 122q83 101 124 333q38 220 -7 333q-50 123 -172 113q-105 -9 -223 -254z" />
<glyph unicode="&#x253;" horiz-adv-x="1179" d="M401 897q65 98 151 147q82 48 193 48q177 0 261.5 -155t40.5 -405t-183 -406q-139 -155 -315 -155q-111 0 -177 47q-68 48 -98 148l-29 -166h-166l170 973l41 232q29 164 133 257q103 94 257 94q70 0 122 -16q56 -17 105 -50l-38 -219h-85q10 96 -21 141q-29 45 -103 45 q-82 0 -132 -61q-49 -59 -72 -191zM328 479q-34 -192 16 -293q48 -100 174 -100t211 113t124 333q39 221 -7 333q-45 112 -173 112q-126 0 -209 -101q-84 -101 -118 -292z" />
<glyph unicode="&#x254;" horiz-adv-x="1032" d="M129 744q65 170 180.5 259t273.5 89q209 0 309 -153q100 -154 56 -408q-45 -255 -199 -408q-153 -152 -362 -152q-91 0 -177 24q-86 23 -168 71l47 272h97q-6 -140 47 -204q52 -64 170 -64q134 0 222 115q89 116 129 346t-8 346q-47 116 -182 116q-107 0 -182 -62 t-120 -187h-133z" />
<glyph unicode="&#x255;" horiz-adv-x="1032" d="M323 164q44 -92 169 -94q239 -2 258 107q22 125 -174 123q-163 -2 -253 -136zM288 268q136 132 367 132q239 0 194 -230q-39 -199 -376 -199q-138 0 -222 71q-13 -32 -27 -117l-25 -144h-103l26 144q20 101 56 180q-7 10 -14 19q-100 154 -55 408q44 255 198 408 q153 152 362 152q91 0 177 -24q86 -23 168 -71l-47 -272h-97q6 140 -46 204q-53 64 -170 64q-135 0 -223 -115q-89 -116 -129 -346q-28 -159 -14 -264z" />
<glyph unicode="&#x256;" horiz-adv-x="1192" d="M854 -104q-23 -130 4 -190q29 -62 111 -62q74 0 120 45t69 141h86l-39 -219q-61 -33 -123 -49q-62 -17 -127 -17q-154 0 -225 93q-71 94 -43 258l41 232l7 38q-66 -100 -150 -148q-83 -47 -194 -47q-176 0 -262 155q-84 156 -40.5 406t182.5 405t316 155q111 0 178 -48 q66 -47 98 -147l96 553h-156l18 106h322q-144 -830 -289 -1660zM789 479l19 105q33 191 -15 292q-49 101 -175 101q-128 0 -212 -112q-85 -112 -124 -333q-38 -220 8 -333q45 -113 172 -113q126 0 210 100q84 101 117 293z" />
<glyph unicode="&#x257;" horiz-adv-x="1258" d="M824 897l54 308q29 164 133 257q104 94 258 94q69 0 121 -16q56 -17 106 -50l-38 -219h-86q11 96 -20 141q-30 45 -104 45q-82 0 -131 -61q-49 -59 -72 -191l-211 -1205h-166l29 166q-67 -102 -149 -148q-84 -47 -194 -47q-178 0 -262 155q-84 156 -40.5 406t182 405 t316.5 155q110 0 178 -48q65 -47 96 -147zM752 479l18 105q34 191 -14 292q-49 101 -175 101q-128 0 -212 -112q-86 -112 -124 -333q-39 -220 7 -333q45 -113 173 -113q126 0 210 100q84 101 117 293z" />
<glyph unicode="&#x258;" horiz-adv-x="1090" d="M88 512q54 283 197 432q142 148 358 148q204 0 302 -154t54 -406q-44 -254 -199 -408q-154 -153 -363 -153q-174 0 -266 88q-91 88 -100 263h134q6 -125 64 -188q59 -64 168 -64q142 0 234 110q92 109 130 324l1 8h-714zM302 618h519q18 185 -31.5 280t-163.5 95 q-122 0 -204 -95q-82 -94 -120 -280z" />
<glyph unicode="&#x259;" horiz-adv-x="1090" d="M95 551h714l1 8q38 215 -16 325q-54 109 -196 109q-109 0 -190 -63q-80 -64 -130 -189h-133q70 175 191 263q123 88 297 88q209 0 309 -154q101 -153 57 -407q-44 -252 -196 -406t-356 -154q-217 0 -307 149q-90 148 -45 431zM272 445q-27 -186 22 -281q48 -94 171 -94 q114 0 196.5 95t128.5 280h-518z" />
<glyph unicode="&#x25a;" horiz-adv-x="1554" d="M1637 757l54 -78q-78 -48 -81 -49q-45 -17 -130 -17q-103 0 -172 93q-61 81 -49 213l-254 -146q18 -107 -6 -242q-44 -252 -196 -406t-356 -154q-218 0 -307 149q-70 118 -62 230l745 428q-7 62 -29 106q-54 109 -196 109q-109 0 -190 -63q-79 -62 -130 -189h-133 q70 175 191 263q123 88 297 88q209 0 309 -154q22 -33 37 -70l273 157h102l-11 -61q-22 -131 26 -190q51 -62 125 -62q125 0 143 45zM824 669l-557 -319q-16 -101 27 -186q48 -94 171 -94q120 0 196 95q74 92 144 366l5 28q11 59 14 110z" />
<glyph unicode="&#x25b;" horiz-adv-x="989" d="M194 810q23 129 123 197q100 67 276 67q49 0 140 -16q90 -17 186 -48l-39 -221h-97q5 89 -52 134t-142 45q-210 0 -239 -167q-33 -191 198 -191h84l-19 -105h-82q-143 0 -223 -62q-77 -60 -97 -176q-14 -79 25 -129q64 -82 192 -82q104 0 189 53t112 155h97l-40 -231 q-102 -36 -203 -54q-96 -18 -168 -18q-202 0 -299 79q-96 79 -69 229q24 135 132 213q74 54 186 80q-70 19 -113 54q-80 67 -58 194z" />
<glyph unicode="&#x25c;" horiz-adv-x="937" d="M530 968q-85 0 -158 -45q-72 -46 -99 -135h-97l39 222q106 31 203 48q96 16 145 16q176 0 253 -67q76 -68 53 -197q-22 -127 -125 -194q-55 -35 -132 -54q103 -26 158 -80q79 -78 57 -213q-26 -150 -149 -229q-127 -80 -326 -79q-72 0 -163 18q-94 18 -180 54l40 231h95 q-18 -102 57 -155q67 -53 171 -53q128 0 220 82q57 50 71 129q20 116 -36 176q-59 62 -201 62h-83l19 105h83q232 0 265 191q29 167 -180 167z" />
<glyph unicode="&#x25d;" horiz-adv-x="1424" d="M530 968q-85 0 -158 -45q-72 -46 -99 -135l-97 1l39 221q106 31 203 48q96 16 145 16q176 0 253 -67q71 -63 56 -180l255 213h102l-11 -61q-23 -131 26 -190q51 -62 125 -62q95 0 143 45l54 -78q-48 -38 -81 -49q-52 -17 -130 -17q-104 1 -173 93q-61 81 -48 213 l-340 -277q-22 -23 -50 -41q-55 -35 -132 -54q103 -26 158 -80q79 -78 57 -213q-25 -150 -150 -229q-126 -80 -325 -79q-71 0 -163 18q-94 18 -183 54l41 231h97q-9 -102 57.5 -155t170.5 -53q127 0 220 82q57 50 71 129q20 116 -36 176q-59 62 -201 62h-83l19 105h83 q232 0 265 191q29 167 -180 167z" />
<glyph unicode="&#x25e;" horiz-adv-x="1130" d="M734 987q-11 0 -93 -18q-39 -9 -109 -46q-238 -123 -286 -398q-45 -259 146 -398q12 -16 93 -46q32 -11 88 -11q97 0 159 51q60 51 77 147q18 105 -36 158q-55 52 -179 52h-34l18 100h34q124 0 197 53q72 52 91 158q16 95 -26 146q-43 52 -140 52zM313 38 q-281 151 -221 490q54 308 392 490q58 31 153 56q74 18 140 18q177 0 259 -77t58 -218q-18 -102 -98 -173q-81 -72 -207 -96q118 -24 174 -95q55 -71 37 -174q-25 -141 -134 -218t-286 -77q-36 0 -134 19q-48 5 -133 55z" />
<glyph unicode="&#x25f;" horiz-adv-x="580" d="M339 956h-157l19 107h322l-86 -493h157l-19 -106h-156l-100 -568q-28 -164 -132.5 -257.5t-258.5 -93.5q-64 0 -120.5 16.5t-106.5 49.5l39 219h85q-10 -96 20.5 -141t103.5 -45q82 0 132 61.5t73 190.5l99 568h-158l18 106h159z" />
<glyph unicode="&#x260;" horiz-adv-x="1259" d="M808 584l66 372h-259q-128 0 -213 -112t-120 -312q-38 -220 7.5 -333t172.5 -113q126 0 210 100.5t117 292.5zM1080 1191l-205 -1168q-40 -229 -175 -353q-135 -125 -345 -125q-94 0 -177.5 19t-155.5 57l39 223h86q-2 -104 50 -152t165 -48q145 0 229 91.5t119 287.5 l25 143q-66 -100 -149.5 -147.5t-194.5 -47.5q-176 0 -261 155.5t-41 405.5q38 221 177 376t316 155h310l24 142q29 164 133 257q104 94 258 94q65 0 121 -16q56 -17 106 -50l-38 -219h-86q11 96 -19 141q-31 45 -105 45q-82 0 -132 -61q-48 -60 -71 -191z" />
<glyph unicode="&#x261;" horiz-adv-x="1179" d="M625 1063h634l-19 -107h-158l-164 -933q-40 -229 -175 -353.5t-345 -124.5q-94 0 -177 19t-156 57l39 223h86q-2 -104 50 -152t165 -48q146 0 229.5 91.5t118.5 287.5l25 143q-66 -100 -149.5 -147.5t-194.5 -47.5q-176 0 -261 155.5t-41 405.5q38 221 177 376t316 155z M851 584l66 372h-259q-128 0 -213 -112t-120 -312q-38 -220 7.5 -333t172.5 -113q126 0 210 100.5t118 292.5z" />
<glyph unicode="&#x262;" horiz-adv-x="1002" d="M459 -33zM485 57zM855 725q2 157 -46 204q-63 64 -171 64q-117 0 -220 -121q-101 -119 -143 -360q-42 -242 20 -358q54 -100 268 -100q55 0 124 30q52 22 64 30l48 286h-177l13 77h306l-71 -402q-93 -56 -195 -84t-211 -28q-214 0 -316 153q-101 153 -56 407 q44 255 200 408q155 152 372 152q76 0 163 -22q82 -21 172 -64l-47 -272h-97z" />
<glyph unicode="&#x263;" horiz-adv-x="1312" d="M1195 1067l-418 -524q304 -643 101 -855q-137 -144 -391 -144q-243 0 -265 200q-20 196 358 721l-237 495h-144l19 107h301l217 -430l254 319h-173l20 111h358zM623 368q-268 -382 -301 -580q-22 -138 184 -138q195 0 219 138q48 273 -102 580z" />
<glyph unicode="&#x264;" horiz-adv-x="1039" d="M604 883q169 204 352 203q43 0 60 -57l-13 -75h-94l3 19q8 48 -35 47q-61 0 -231 -223q216 -576 61 -723q-112 -106 -317 -107q-133 -1 -216 107q-118 150 304 670q-90 271 -133 273q-38 1 -53 -87l-3 -18h-92l19 108q87 66 193 69q98 3 195 -206zM517 658 q-215 -267 -251 -476q-18 -108 142 -108q103 0 177 104q59 81 -68 480z" />
<glyph unicode="&#x265;" horiz-adv-x="1187" d="M774 188q-65 -106 -148 -162q-82 -55 -179 -55q-159 0 -217 101q-56 100 -19 315l99 569h-149l19 107h316l-109 -619q-33 -194 -3 -266t140 -72q115 0 191.5 94t108.5 273l84 483h-144l19 107h310l-243 -1383h157l-19 -106h-322z" />
<glyph unicode="&#x266;" horiz-adv-x="1187" d="M409 874q64 108 145 163q84 55 181 55q159 0 216 -101t19 -315l-100 -570h148l-18 -106h-314l108 618q34 195 4 266q-30 72 -140 72q-115 0 -192 -93t-108 -271l-103 -592h-166l211 1205q28 164 133 257q103 94 257 94q70 0 122 -16q56 -17 105 -50l-38 -219h-85 q10 96 -21 141q-30 45 -103 45q-80 0 -132 -61q-48 -57 -72 -191z" />
<glyph unicode="&#x267;" horiz-adv-x="1187" d="M448 874q65 108 147 163q83 55 180 55q158 0 215.5 -101t19.5 -315l-136 -780q-29 -164 -133 -258q-104 -93 -258 -93q-65 0 -121 17q-56 16 -106 49l38 219h86q-11 -96 20 -141q30 -45 104 -45q82 0 131 62q50 60 72 190l126 722q35 195 5 266q-31 72 -140 72 q-116 0 -192.5 -93t-107.5 -271l-104 -592h-165l210 1205q29 164 133 257q104 94 258 94q69 0 121 -16q56 -17 107 -50l-39 -219h-86q11 96 -20 141q-30 45 -104 45q-82 0 -131 -61q-49 -59 -72 -191z" />
<glyph unicode="&#x268;" horiz-adv-x="589" d="M16 0zM330 1468q41 39 82.5 39t63.5 -30t22 -51q0 -71 -41 -108.5t-83.5 -37.5t-63.5 29t-21 74.5t41 84.5zM277 106h157l-18 -106h-322l81 464h-159l18 106h159l67 386h-158l19 107h324l-87 -493h157l-18 -106h-157z" />
<glyph unicode="&#x269;" horiz-adv-x="722" d="M193 351l106 605h-158l19 107h324l-125 -712q-23 -131 4 -191q29 -61 111 -61l-17 -99q-154 0 -226 94q-68 89 -38 257z" />
<glyph unicode="&#x26a;" horiz-adv-x="589" d="M316 106h157l-19 -106h-480l18 106h159l148 850h-158l19 107h480l-18 -103h-156z" />
<glyph unicode="&#x26b;" horiz-adv-x="701" d="M324 106h157l-18 -106h-323l130 744l-5 4q-14 8 -31 8q-38 0 -67 -40q-28 -39 -45 -115h-87q25 135 84 209q58 73 140 73q19 0 35 -4l100 571h-159l18 106h325l-142 -812q6 -5 10 -8q14 -8 33 -8q39 0 67.5 40t44.5 115h87q-26 -135 -84 -209q-58 -73 -140 -73 q-23 0 -42 6z" />
<glyph unicode="&#x26c;" horiz-adv-x="837" d="M457 106h157l-18 -106h-323l82 468q-341 1 -308 196q39 229 252 230q78 0 121 -56l107 612h-159l18 106h325l-174 -992h220l-17 -99h-220zM362 564q20 223 -44 222q-54 -1 -74 -115q-18 -105 118 -107z" />
<glyph unicode="&#x26d;" horiz-adv-x="668" d="M370 1450h-160l19 106h325l-290 -1660q-23 -130 4 -190q29 -62 111 -62q74 0 120 45t69 141h85l-38 -219q-62 -33 -124 -49q-61 -17 -126 -17q-154 0 -226 93q-71 94 -42 258q136 777 273 1554z" />
<glyph unicode="&#x26e;" horiz-adv-x="1297" d="M711 423h-85l17 102l372 431h-474l-33 -184h-91l-116 -666h156l-19 -106h-322l254 1450h-159l19 106h324l-86 -493h779l-15 -86l-417 -483l71 -7q152 -15 231 -150q69 -120 36 -312q-41 -234 -190 -359q-148 -124 -385 -124q-105 0 -200 28q-96 28 -185 85l56 324h101 q-19 -161 45 -244t206 -83q138 0 235 100q96 99 127 271q34 197 -30 299q-64 101 -222 101z" />
<glyph unicode="&#x26f;" horiz-adv-x="1747" d="M755 207q-68 -117 -152 -176q-85 -60 -185 -60q-150 0 -206 104q-55 103 -18 312l99 570h-149l18 106h315l-114 -655q-29 -163 2 -232t131 -69q111 0 184 93q75 93 107 271l85 486h-144l18 106h310l-116 -662q-27 -159 4 -226q31 -68 131 -68q110 0 185 93q74 93 105 271 l86 486h-144l18 106h309l-167 -958h158l-18 -105h-324l33 189q-64 -106 -145 -162t-171 -56q-112 0 -176 62q-64 61 -69 174z" />
<glyph unicode="&#x270;" horiz-adv-x="1747" d="M1425 -319h158l-19 -107h-324l114 644q-65 -106 -146 -162t-171 -56q-112 0 -176 62q-64 61 -69 174q-68 -117 -152 -176q-86 -60 -185 -60q-150 0 -206 104q-55 103 -19 312l100 570h-149l19 106h315l-115 -655q-28 -163 3 -232t131 -69q110 0 184 93q75 93 106 271 l85 486h-144l19 106h310l-117 -662q-27 -159 4 -226q31 -68 131 -68q111 0 186 93q74 93 104 271l86 486h-144l19 106h309z" />
<glyph unicode="&#x271;" horiz-adv-x="1747" d="M1475 -104q-29 -164 -132 -258q-105 -93 -259 -93q-60 0 -120 17q-57 16 -107 49l39 219h85q-11 -96 19.5 -141t104.5 -45q82 0 133 62q48 60 71 190l132 759q29 163 -2 232t-131 69q-111 0 -185 -93q-75 -93 -106 -271l-103 -592h-166l116 662q28 159 -4 226 q-31 68 -131 68q-111 0 -185 -93t-106 -271l-103 -592h-166l168 958h-159l19 105h324l-33 -189q65 106 145.5 162t170.5 56q111 0 175 -62q64 -61 69 -174q69 117 154 176q84 60 183 60q150 0 206 -104q56 -103 19 -312q-67 -393 -135 -780z" />
<glyph unicode="&#x272;" horiz-adv-x="1186" d="M317 -104q-29 -164 -133 -258q-104 -93 -258 -93q-65 0 -121 17q-56 16 -107 49l39 219h86q-11 -96 20 -141q30 -45 104 -45q82 0 131 62q50 60 72 190l186 1060h-159l19 107h324l-33 -189q65 108 148 163q82 55 179 55q159 0 216 -101t19 -315l-117 -676h-167l108 618 q34 195 4 268q-31 72 -140 72q-115 0 -192 -94q-76 -93 -108 -272q-60 -350 -120 -696z" />
<glyph unicode="&#x273;" horiz-adv-x="1278" d="M874 618q34 195 4 268q-31 72 -140 72q-115 0 -192 -94q-76 -93 -108 -272l-103 -592h-166l168 956h-159l19 107h324l-33 -189q65 108 147.5 163t179.5 55q157 0 216 -101q57 -99 19 -315l-136 -780q-22 -130 5 -190q29 -62 111 -62q73 0 120 45q45 45 69 141h85 l-39 -219q-56 -31 -123 -49q-61 -17 -126 -17q-156 0 -226 93q-71 94 -42 258z" />
<glyph unicode="&#x274;" horiz-adv-x="1190" d="M-15 0l19 106h125l149 850h-125l19 107h345l287 -775l117 668h-180l19 107h471l-18 -107h-128l-173 -985h-162l-333 828l-122 -693h181l-18 -106h-473z" />
<glyph unicode="&#x275;" horiz-adv-x="1109" d="M474 70q133 0 222 117q74 99 114 277h-535q-22 -178 18 -277q48 -117 181 -117zM293 570h537q29 200 -14 306q-48 117 -181 117t-222 -117q-80 -106 -120 -306zM456 -29q-208 0 -309 153q-100 154 -55.5 408t197.5 407q154 153 363.5 153t309.5 -153t55.5 -407 t-197.5 -408q-154 -153 -364 -153z" />
<glyph unicode="&#x276;" horiz-adv-x="1456" d="M715 948q-162 6 -281 -111q-113 -112 -148 -312q-35 -202 39 -314q72 -111 242 -113l25 -1l41 9l149 850l-43 -9zM1310 0h-787q-247 0 -361 141t-70 393q44 249 206 389q163 140 411 140h776l-41 -237h-87l23 130h-432l-57 -328h308l20 124h86l-62 -353h-85l22 123h-308 l-73 -416h442l23 130h87z" />
<glyph unicode="&#x277;" horiz-adv-x="1193" d="M698 529l-7 -40q-21 -120 -9 -226q21 -197 76 -197q80 0 144 364q29 173 9 342q-48 197 -234 201q-179 4 -301 -201q-79 -169 -111 -342q-63 -364 17 -364q55 0 145 197q49 106 70 226l7 40h194zM555 272q-47 -142 -125 -222q-77 -79 -170 -79q-127 0 -177 112 q-50 111 -14 317q14 79 45 160q41 106 79 167q227 358 504 358q280 0 381 -358q17 -61 20 -167q3 -81 -11 -160q-36 -206 -124 -317q-89 -112 -216 -112q-93 0 -143 79q-50 80 -49 222z" />
</font>
</defs>
</svg>
