<?xml version="1.0" standalone="no"?>
<!DOCTYPE svg PUBLIC "-//W3C//DTD SVG 1.1//EN" "http://www.w3.org/Graphics/SVG/1.1/DTD/svg11.dtd" >
<svg xmlns="http://www.w3.org/2000/svg">
<metadata></metadata>
<defs>
<font id="alpha_echoregular" horiz-adv-x="1139" >
<font-face units-per-em="2048" ascent="1638" descent="-410" />
<missing-glyph horiz-adv-x="569" />
<glyph horiz-adv-x="2048" />
<glyph horiz-adv-x="2048" />
<glyph unicode="&#xd;" horiz-adv-x="569" />
<glyph unicode=" "  horiz-adv-x="569" />
<glyph unicode="&#x09;" horiz-adv-x="569" />
<glyph unicode="&#xa0;" horiz-adv-x="569" />
<glyph unicode="!" horiz-adv-x="598" d="M377 1448q88 -81 115 -226l-14 -259l14 -65l-64 -243l-55 -181q-76 27 -161 10l-48 119l-45 136l29 272l-29 49v48l-29 244zM277 1173q12 -23 43 -33q-12 24 -43 33zM305 898v32h-13zM334 367q86 -23 158 -77l15 -168q-27 -64 -87 -115l-157 -65q-78 16 -159 52l-14 51 l14 128q7 79 29 168z" />
<glyph unicode="&#x22;" horiz-adv-x="700" d="M145 1471l166 -22q8 -38 11 -88l-11 -22l-11 -33l11 -177q-17 -61 -55 -121l-100 -11l-33 11l-11 22q-16 71 -22 154v155l11 22q11 54 44 110zM443 1471q75 -4 154 -32l23 -67l-12 -33l-21 -33l10 -155q-14 -65 -55 -132l-121 -22l-22 33l-33 144q10 77 11 176 q19 67 66 121z" />
<glyph unicode="#" />
<glyph unicode="$" horiz-adv-x="1288" d="M724 1458l3 -82l235 -63q64 -48 129 -115l59 -115l-29 -44q-94 -30 -203 -43l-173 57l-29 -144l14 -43l332 -145l116 -129l29 -217q-26 -90 -72 -174l-116 -129l-159 -72h-115l-58 -72l-29 -73l-127 -4l-23 139l-254 82l-116 129q-38 67 -58 145l29 72l72 15l29 -15h29 q77 23 173 29l102 -130q38 76 57 173q-52 60 -129 116q-91 26 -174 72q-57 56 -102 145l-57 173l72 173q46 65 116 130q75 34 253 66l13 89zM600 1227v29h-14zM831 1198q5 -18 29 -29q-3 20 -29 29zM528 1083l-72 -44q26 -51 72 -101q33 14 58 43q-19 49 -58 102zM354 967 q5 -18 29 -29q-5 15 -29 29zM398 866l-15 -57l59 14q-11 31 -44 43zM528 837l29 -43q-5 29 -29 43zM514 721l14 -43l14 29zM673 707q4 -18 29 -29q-4 19 -29 29zM774 592q4 -19 28 -29q-3 19 -28 29zM962 592q5 -29 28 -43zM759 519v30h-14zM759 505l-57 -216l72 -15l14 15 l58 129zM1019 346q5 -19 29 -29q-3 20 -29 29zM369 260v-30l29 15zM629 216q5 -19 29 -29q-3 19 -29 29zM687 173q6 -28 29 -44q-6 29 -29 44zM557 101q-3 19 -29 28q6 -14 29 -28z" />
<glyph unicode="%" horiz-adv-x="1821" />
<glyph unicode="&#x26;" horiz-adv-x="1571" d="M841 1405l158 -57l101 -130l72 -145l-58 -144q-45 -56 -115 -115q-43 -45 -57 -116q62 -44 144 -72q66 38 144 58q75 -20 159 -58l29 -43l-44 -115v-130l58 -14q43 -50 72 -116l-101 -116q-63 -42 -145 -56l-129 85l-317 -100l-202 -15l-173 15q-79 19 -159 57l-116 101 l-72 130l-14 130l14 43q28 70 72 144l116 102q56 48 101 115q-45 56 -87 129l-29 116l15 43q28 70 87 145q55 48 129 86l188 29l43 -15zM696 1175q-40 -69 -58 -159q61 -35 144 -44q38 68 59 144q-67 40 -145 59zM480 1059l14 -43v43h-14zM552 814q-21 -34 -29 -86 q28 32 29 86zM408 669q6 -36 43 -57q-6 32 -43 57zM812 669l-58 -43l87 -29zM552 568q-54 -94 -72 -216q100 -62 230 -86l88 43q-14 68 -59 130q-72 72 -187 129zM927 511v29h-14zM292 496v-28l30 14zM970 496l-43 -115l72 -14l29 43zM249 381l-15 -57l44 43zM1186 381 l-14 -72q-60 9 -115 43q-30 -12 -43 -43l100 -29q64 -26 130 -28zM350 252l15 -44l14 28z" />
<glyph unicode="'" horiz-adv-x="391" d="M145 1471l166 -22q8 -38 11 -88l-11 -22l-11 -33l11 -177q-17 -61 -55 -121l-100 -11l-33 11l-11 22q-16 71 -22 154v155l11 22q11 54 44 110z" />
<glyph unicode="(" horiz-adv-x="675" d="M398 1468q114 -2 177 -113q-59 -89 -89 -203l-63 -215l-13 -165l13 -37l12 -26l-12 -12l-13 -241q49 -101 63 -228l102 -277q-60 -22 -140 -26q-91 50 -139 152q-64 74 -113 177q-40 96 -64 215l-25 38v126l-13 26l13 12v38l25 228l76 190q28 86 76 176q45 81 127 165z M296 1013q12 -22 38 -26q-11 19 -38 26zM220 507l13 -64v52zM271 380q11 -17 38 -25z" />
<glyph unicode=")" horiz-adv-x="683" d="M171 1480q103 -23 180 -102q55 -80 102 -192q47 -90 64 -218q48 -101 51 -230l13 -52l-13 -128v-39q-14 -104 -64 -204q-27 -91 -89 -192l-103 -178l-90 -52q-52 16 -102 52q5 100 25 203q48 94 64 218q31 108 39 243l12 64l-12 26l-13 333l-13 26l-13 38q-26 99 -77 218 l-38 89q30 37 77 77zM402 930q-3 17 -26 25q5 -12 26 -25zM389 917q5 -26 26 -38zM402 789l13 -51l13 38zM364 647q15 -32 51 -38zM389 391q3 -16 26 -25q-5 13 -26 25z" />
<glyph unicode="*" horiz-adv-x="841" d="M403 1489q77 -28 135 -106q10 -56 61 -89l120 14l30 -29l45 -106l-31 -45q-65 -43 -104 -121l29 -120l-45 -30l-105 -45l-45 30q-46 45 -105 45q-55 -52 -136 -90q-54 44 -89 120l75 136l-136 75l-45 45l30 121q51 18 120 29l45 -29l75 -31l16 91q12 70 60 135zM508 1113 q17 -23 45 -30q-14 21 -45 30z" />
<glyph unicode="+" horiz-adv-x="1196" />
<glyph unicode="," horiz-adv-x="501" d="M240 323q105 -3 188 -82q-24 -103 -35 -225l23 -176v-36l-47 -107l-94 12l-106 -24q-33 35 -59 84l-12 377q9 17 12 47q33 88 130 130zM228 182q16 -31 47 -36zM252 -55q4 -36 35 -58z" />
<glyph unicode="-" horiz-adv-x="865" d="M462 921h152l102 -13q59 -86 63 -202q-63 -75 -178 -89l-37 -13l-89 13l-89 -13q-108 2 -242 26q-45 66 -50 164q34 81 127 114h241v13z" />
<glyph unicode="." horiz-adv-x="598" d="M356 463q81 -28 149 -90l15 -165l-15 -60q-9 -92 -60 -179l-89 15l-30 -15l-46 -16q-84 28 -164 90l-30 210q38 71 105 134zM326 163v30h-15z" />
<glyph unicode="/" horiz-adv-x="742" d="M524 1491q96 -21 131 -130l-49 -244l-82 -195l-129 -717l-82 -211q-78 -59 -179 -82q-45 69 -49 162l211 864l66 179l33 228q54 73 129 146z" />
<glyph unicode="0" horiz-adv-x="1301" d="M558 1395l286 -15q91 -48 201 -129q66 -100 100 -229l58 -258q-23 -124 -29 -286q-22 -114 -71 -243q-58 -89 -158 -172l-143 -58q-51 6 -101 29l-158 -29l-85 43q-110 31 -215 115q-64 93 -115 215q-4 113 -43 243l29 272q9 110 57 244q53 91 144 172zM873 1208 q3 -19 29 -29q-5 15 -29 29zM687 1123q-126 -27 -201 -144l14 -43l-28 -114l28 -101l-57 -158l29 -85l129 -201q103 18 186 114q28 115 28 259l-13 272q-29 112 -115 201zM916 1108q4 -39 29 -72l14 58zM300 1094q15 -35 57 -43zM959 936q6 -41 43 -72q-7 43 -43 72z M286 879l-15 -72h44q-2 39 -29 72zM902 721v29h-15zM214 707l86 -100q-29 59 -86 100zM987 621l-14 -114l43 28l29 28l-14 58l-29 -14zM386 320l-29 -43l14 -29l58 43zM887 277q4 -19 29 -29q-3 19 -29 29z" />
<glyph unicode="1" horiz-adv-x="1000" d="M639 1394q116 -6 249 -44l29 -102l-14 -44v-88l-30 -29q4 -113 30 -263v-248l-15 -44l15 -248q-23 -71 -30 -161l15 -58l-146 -73l-103 15q-132 1 -145 146l14 277q0 111 -29 263l15 102l-15 29q-58 -2 -116 -29q-90 -60 -220 -73l-58 73l14 175q74 88 205 132 q89 60 175 146q68 74 160 146zM596 1174l-15 -58h44q-1 32 -29 58zM713 1174l-30 -101q13 -21 44 -30l15 103zM552 1014v-88q31 31 44 73zM421 999l14 -43v43h-14zM655 926l14 -72v58zM639 824q13 -33 59 -58l-29 -146l14 -146l-14 -44l14 -29h30v14q3 115 29 263 q-16 92 -103 146zM683 240q4 -28 30 -43z" />
<glyph unicode="2" horiz-adv-x="1252" d="M653 1383l227 -29q77 -39 143 -99q59 -53 113 -128l29 -185l-57 -199l-256 -228l-142 -100q47 -66 142 -71l228 15q56 -64 85 -157q-4 -96 -85 -171l-156 15l-57 -15l-199 -14l-200 14l-113 -14l-43 14h-185l-57 72q26 91 71 184l86 143l128 128l141 99q72 44 128 114 l128 114l15 114l-15 28l-13 43q-56 26 -128 28l-43 -28q-55 -47 -114 -114q-85 -35 -185 -43q-87 17 -170 71q21 80 70 157q39 72 100 142l156 85h228v15zM611 1269v28h-15zM796 1198q5 -28 28 -43q-5 28 -28 43zM368 1155q-3 19 -28 28q7 -14 28 -28zM340 1155l-43 -71 l58 -14zM880 1098v29h-13zM980 942q-11 -75 -100 -100q0 -33 29 -43q57 11 114 43q-10 57 -43 100zM496 501q-20 -55 -28 -128l57 -14l28 42zM511 302q27 -59 85 -100q-33 55 -85 100z" />
<glyph unicode="3" horiz-adv-x="1263" d="M773 1403l186 -87l116 -129l28 -57l-28 -143l-87 -172l87 -158q50 -57 85 -144l15 -158l-29 -57q-43 -71 -100 -143q-70 -52 -158 -100l-301 -58l-272 86q-68 53 -130 129q-61 66 -100 158q82 45 186 72q92 -3 187 -43l100 -144q86 12 186 43l29 186q-42 75 -114 130 q-104 14 -172 100q20 77 71 144q70 48 144 114l28 58l-57 100l-158 29q-32 -84 -86 -172l-58 -29l-128 43q-87 37 -158 100l100 158l158 100l229 29l158 -14zM816 1245l15 -43v43h-15zM874 943l-58 -43l29 -42l58 57q-4 19 -29 28zM831 800l-29 -72q26 33 29 72zM888 628 q9 -101 86 -172q0 102 -86 172z" />
<glyph unicode="4" horiz-adv-x="1372" d="M905 1391l190 -14l29 -132q-10 -50 -14 -117l29 -117l-15 -44v-220l-14 -44l14 -58q62 -88 176 -161l15 -146l-15 -44l-102 -44l-30 14l-58 -29l14 -102l-14 -30v-44q-112 -45 -264 -58l-73 30l14 146l-14 43q-117 28 -278 30q-151 -1 -322 -30q-74 108 -88 264 q37 107 117 219q64 88 176 176l307 380q81 91 220 132zM949 1231v-30l29 14zM934 1187l15 -44v44h-15zM817 1128l-74 -117l74 15l14 -44l74 102zM890 952q5 -40 29 -73q0 40 -29 73zM729 879l-161 -176q-45 -50 -73 -116l59 -30l29 14l160 -28l30 102l-14 58l14 161z M934 821v29h-15zM919 806q13 -29 44 -44q-10 32 -44 44zM919 659q22 -53 73 -102q-23 51 -73 102zM363 587l-44 -74q44 28 44 74zM1051 484q13 -31 44 -58q-8 31 -44 58zM261 469q34 -42 87 -87q-23 53 -87 87zM715 440q22 -40 72 -44zM949 191v29h-15z" />
<glyph unicode="5" horiz-adv-x="1258" d="M355 1379l383 -42l42 28l199 14l43 -14q47 -70 57 -170q-22 -92 -114 -156l-156 14l-43 -14l-227 28q-28 -48 -43 -113l43 -57q97 29 213 42q95 -16 199 -71l141 -127l71 -185q-17 -93 -56 -198q-31 -87 -85 -185l-143 -114l-156 -42l-56 14l-184 14l-44 -14l-184 71 q-76 54 -142 128l-28 141l57 44l213 13q72 -45 141 -113l57 -43l128 29q65 58 85 170q-30 84 -85 184l-185 29q-82 -53 -184 -85q-104 12 -199 71l-28 57l42 128l15 212l57 213zM327 1195q18 -39 56 -43zM369 939q10 -27 42 -28q-12 20 -42 28zM340 883l29 -85l14 85h-43z M312 798q7 -36 43 -57q-7 32 -43 57zM866 727l-29 -72q46 -26 99 -70q-16 74 -70 142zM993 528l-28 -71l57 42q-3 20 -29 29zM936 215q-3 20 -28 29q6 -14 28 -29z" />
<glyph unicode="6" horiz-adv-x="1296" d="M563 1404l188 -43l144 14l44 -14q61 -41 116 -102l116 -101q-27 -76 -102 -130l-202 -15l-116 101l-101 44l-44 -29l-87 -131l-14 -28l14 -87q4 -19 29 -29q75 27 174 44l43 28l130 -14q72 -26 145 -73q58 -45 116 -115l58 -145l-15 -188q-12 -69 -57 -130l-73 -145 l-145 -86l-188 -30l-116 15l-43 -15l-159 58l-131 87q-40 65 -100 116q-35 74 -59 173q-13 78 -14 174l-29 188l43 174q21 76 59 159l86 130zM287 912l-14 -73h116q-35 52 -102 73zM273 753l-14 -73l87 58zM664 680l-130 -72l-29 -102l14 -43q14 -61 44 -116q43 -52 116 -72 q68 7 129 58l30 275l-30 29zM316 637q19 -33 59 -43zM1040 565l-43 -59l58 -28l28 72zM287 521l-14 -72l14 -29q31 30 44 72z" />
<glyph unicode="7" horiz-adv-x="1288" d="M271 1375h187l43 -14l114 14l116 -14l42 14l101 -14l43 14l172 -14q60 -29 100 -86l14 -144l-14 -43l-100 -57q-28 -49 -72 -100l-72 -115q-46 -49 -71 -115l-58 -114l-72 -301q-23 -125 -100 -259l-172 -14q-67 18 -129 58l-14 42l29 101l13 172l244 488l72 100 q-34 45 -86 57l-86 -14l-28 14h-44l-157 15q-49 -11 -115 -15l-43 29l-43 143q47 119 186 172zM429 1218v29h-14zM831 1247q24 -44 72 -58q-26 34 -72 58zM744 1189v-29l29 15zM644 587l-14 -44l29 -14l14 43zM587 400l-43 -100l43 -14l28 85q-4 15 -28 29z" />
<glyph unicode="8" horiz-adv-x="1271" d="M663 1398q131 -27 281 -84q85 -84 141 -197l57 -113l-57 -127l-84 -71q14 -64 56 -126q67 -98 113 -240q-14 -129 -85 -267q-91 -71 -225 -127l-169 -42l-113 14q-133 12 -282 70l-183 169l-28 169l14 112q56 89 155 184q-60 100 -113 240l-28 84q34 77 85 155 q69 91 197 155q123 2 268 42zM635 1145q-93 -40 -170 -127q31 -92 127 -141q104 12 155 113q-20 94 -112 155zM874 1032q2 -30 28 -57zM790 834q-31 -27 -43 -70l56 -14l15 56zM451 778l43 -56l42 56h-85zM874 694l28 -14l14 28l-28 14zM395 694q-25 -31 -28 -71l56 28 q-5 29 -28 43zM564 610l-99 -72l14 -154q70 -100 212 -127q81 97 84 240q-76 101 -211 113zM888 595q19 -56 71 -98q-19 57 -71 98zM283 497v-141l41 14q-13 60 -41 127zM931 356q12 -20 41 -29q-11 21 -41 29z" />
<glyph unicode="9" horiz-adv-x="1301" d="M627 1398l188 -29l143 -72q56 -45 115 -115q37 -56 72 -129l58 -158l-15 -173l15 -201l-116 -316l-115 -101l-143 -72l-187 -29l-202 14l-157 58l-101 115q-40 55 -58 130q78 29 173 42l143 15l43 -15q49 -49 130 -85q69 12 144 57l29 129l-15 43l15 43h-43v-14l-58 -43 l-173 -15l-172 29q-63 39 -129 101q-48 57 -87 130q-26 74 -43 172l29 172q34 68 101 130q58 44 129 58l100 100zM570 1139l-87 -129q-19 -48 -28 -115l14 -43l86 -115l44 -44l201 116q-10 49 -14 115l14 43q-21 69 -57 143q-75 19 -173 29zM326 1110l-43 -57l72 14z M872 722l115 -115l43 115l-115 -14zM1015 564l-14 -43h29l14 28zM915 334l28 -14l15 42h-29z" />
<glyph unicode=":" horiz-adv-x="531" d="M288 1117q72 -20 130 -71l12 -35l-12 -83v-36q-3 -67 -23 -154l-155 -12q-64 14 -118 59l-36 155q26 57 83 106zM300 406q63 -21 118 -71l24 -166q-17 -67 -47 -142l-155 -24q-65 21 -118 71l-24 166q30 54 83 95z" />
<glyph unicode=";" horiz-adv-x="514" d="M264 1102q73 -14 144 -60l24 -119l-12 -36q-10 -74 -36 -156q-63 -20 -143 -24l-84 -12l-48 60l-24 168q18 60 60 107zM229 899v-24q31 3 47 12zM300 311q117 -15 120 -143l-24 -108l24 -287l-12 -36q-73 -48 -179 -60q-91 14 -132 108l12 180v35q-12 85 -12 192l12 47 q82 48 191 72zM241 108l-12 -131l-24 -36l48 -24l11 119l24 72h-47z" />
<glyph unicode="&#x3c;" horiz-adv-x="1196" />
<glyph unicode="=" horiz-adv-x="1196" />
<glyph unicode="&#x3e;" horiz-adv-x="1196" />
<glyph unicode="?" horiz-adv-x="1178" d="M426 1398l269 -14q114 -23 228 -99q80 -64 156 -156l13 -57l-28 -157l-28 -28q-52 -98 -128 -185l-156 -156q-71 -77 -199 -85h-57l-13 -14l-29 14h-28l-57 100l114 198q80 69 156 156l56 114l-71 56q-110 -29 -185 -127l-112 -57l-128 14l-114 71q6 51 28 99l128 185z M340 1171q5 -18 29 -29q-3 19 -29 29zM809 1129q9 -45 42 -72q-10 41 -42 72zM879 944q3 -31 29 -57zM681 702l42 -28q-11 20 -42 28zM422 357l156 -28q48 13 113 14l28 -29l43 -156q-23 -68 -71 -142l-184 -28q-74 22 -142 71l14 156q8 70 43 142z" />
<glyph unicode="@" horiz-adv-x="2079" />
<glyph unicode="A" horiz-adv-x="1154" d="M508 1387q89 -5 172 -29l115 -71q31 -55 57 -129l71 -258l58 -114l42 -144l72 -114q11 -71 44 -143l56 -130l29 -100l-24 -50l-114 -71h-129v-14l-43 14q-54 21 -100 71q-31 77 -34 150l-29 15l-56 -28l-29 13h-187q-63 -23 -100 -85l-72 -115l-143 -43l-157 29 q-46 39 -86 100l114 257l15 158l72 130l129 415l56 114q26 67 72 129zM551 1215l-57 -14q17 -31 57 -57l28 28zM379 1130q23 -38 72 -58zM666 1130q3 -20 29 -29l56 29h-85zM465 1043l-29 -114h58q0 58 -29 114zM551 900q-4 -106 -43 -229l-14 -101l129 -14q29 12 43 43 l-29 129q-31 82 -86 172zM795 843q13 -25 43 -43q-11 30 -43 43zM279 814q36 -65 115 -100q-43 60 -115 100zM880 786l-14 -44h29v44h-15zM265 671q19 -31 57 -43zM880 642q5 -18 29 -28q-3 19 -29 28zM795 599v-71l57 71h-57zM423 485q3 -27 28 -43q-5 28 -28 43zM737 442 l86 -144q-24 80 -86 144zM995 342q-3 19 -28 28q5 -14 28 -28zM938 270q4 -19 29 -28q-4 18 -29 28zM150 255l-28 -42l57 14q-4 19 -29 28z" />
<glyph unicode="B" horiz-adv-x="1313" d="M150 1364l682 -14q126 -20 247 -102q79 -101 87 -247l14 -131l-116 -87l102 -130q48 -111 73 -247q-33 -126 -116 -248q-101 -67 -248 -116l-101 -14l-29 14l-392 -14l-44 14h-43v-14q-130 43 -189 174l29 305l-15 146l15 159l-29 494zM339 1161v29h-15zM266 1146v-44 l43 30zM382 1146v-58l44 44zM237 1074l14 -44l15 44h-29zM498 1059l-29 -145l14 -58h44q106 21 232 29l59 101l-87 44l-73 -15l-43 15h-73zM905 1059l58 -87q-8 52 -58 87zM251 914q40 -38 88 -44q-35 33 -88 44zM367 769l15 -131l87 29zM774 725l-29 -58l87 -14 q-12 49 -58 72zM991 638q-28 -30 -28 -72l58 28q-6 29 -30 44zM469 580q0 -106 44 -218q126 8 290 44l29 130l-101 44l-160 -30zM309 536q3 -19 30 -29q-5 15 -30 29zM991 493q1 -30 30 -44l14 44h-44zM251 420v-58l73 29zM1035 377l-130 -30l58 -29q52 12 72 59zM280 275 l-14 -58q29 -24 43 -29l15 58q-29 24 -44 29z" />
<glyph unicode="C" horiz-adv-x="1292" d="M611 1378q84 -6 183 -28l182 -43q56 -46 112 -112l112 -125q-17 -72 -69 -141q-61 -50 -140 -84q-72 28 -141 84l-126 98l-154 -70q-56 -55 -99 -126l-13 -112l13 -42v-43l56 -168l141 -84q86 12 168 56l112 112q76 -8 155 -41q59 -50 112 -127q-32 -67 -84 -140 l-127 -112l-140 -84l-154 -14l-42 14l-57 -14l-140 28l-154 70l-196 267l-28 196l14 196l-14 112l14 28l14 42l70 155l112 112l140 84zM598 1266l-43 -43q40 5 43 43zM794 1182q4 -32 28 -56l14 56h-42zM906 1167l-28 -84l57 43zM570 1126q1 -29 28 -43zM317 1027l-28 -98 q0 -22 28 -28q26 41 42 98q-11 20 -42 28zM247 789l-14 -42h28v42h-14zM261 705q24 -23 56 -28zM289 621l-14 -56h28v56h-14zM317 509q14 -51 57 -84q-3 52 -57 84zM878 312l-126 -70q20 -28 56 -42q47 37 112 56q-5 36 -42 56zM471 298q-45 -18 -84 -56q49 20 84 56z M611 270v-28l28 14z" />
<glyph unicode="D" horiz-adv-x="1385" d="M203 1344l305 19l253 14l59 -14q115 -30 238 -104q77 -71 163 -179q51 -109 74 -252l15 -104l-15 -29v-104l-15 -45q-22 -119 -89 -252q-69 -97 -178 -163q-117 -59 -267 -74l-463 -23l-110 30l-80 22l30 326l-15 45v119l-15 74l30 60l-30 134l15 252l-15 59 q9 120 110 189zM315 1200l45 -30l30 44l-45 15zM553 1214l-15 -59l60 45zM746 1170q22 -40 74 -60q-22 36 -74 60zM924 1110q6 -50 44 -89q-9 51 -44 89zM241 1066v30h-14zM523 995l-15 -122l15 -45l-15 -326q11 -92 104 -149l179 59l104 179l14 193l-14 44q-37 95 -134 149 q-104 31 -238 18zM1028 1007q8 -74 44 -149q-9 71 -44 149zM390 947v30h-15zM271 873v30h-15zM1043 799l15 -45v45h-15zM360 695q-3 20 -29 29q5 -14 29 -29zM1072 636l-14 -75l14 -15q31 31 45 74zM331 620v-59l44 45zM1043 532q20 -36 59 -45zM909 368v30h-14zM345 353 q22 -32 60 -44zM835 280l44 -31q-12 22 -44 31zM241 249v-73q33 20 60 59zM583 235q4 -29 29 -45q-5 30 -29 45z" />
<glyph unicode="E" horiz-adv-x="1199" d="M227 1385l232 -28l218 14l189 -14l44 14q86 -16 159 -73l15 -160l-15 -43l-43 -73l-102 -14l-29 14l-436 15l44 -146l436 30l43 -16l73 -57l-15 -117q-24 -80 -73 -160l-217 -14l-204 58q-64 -70 -72 -174q81 -36 174 -44l407 29l44 -29l28 -160q-10 -92 -58 -188 l-159 -15l-44 15l-218 28q-97 -26 -204 -28l-203 -30q-82 38 -146 116l-14 160l14 44l15 116l-15 29v87l15 247l-15 204l15 247q42 63 117 116zM735 1254q20 -45 72 -72q-25 39 -72 72zM343 1065l-44 -87q37 35 44 87zM270 862q5 -19 29 -29l15 15zM241 818l14 -43l15 29z M328 761l15 -44l14 29zM255 571q1 -31 29 -58q0 31 -29 58zM314 484v29h-15zM212 426q13 -37 58 -58q-11 39 -58 58zM371 382q5 -18 30 -29q-3 20 -30 29zM444 309l-57 -72l28 -44q28 52 29 116zM793 266l-43 -58q37 16 43 58zM604 252l15 -59l58 29zM255 222l44 -43 q-10 31 -44 43z" />
<glyph unicode="F" horiz-adv-x="1182" d="M213 1367l271 -43l29 14h42v14l186 -28l185 14l157 -28q20 -74 28 -171q-20 -77 -71 -143l-185 -14l-200 14l-114 28l-42 -14l-29 -42l14 -115l43 -14l285 29l199 -15l44 -171l-44 -157l-184 -29l-286 44q-28 -6 -42 -29l-15 -43q13 -48 15 -114l14 -128l-14 -43l14 -115 l-58 -28l-156 -14q-72 5 -157 42q-39 55 -57 129l29 186l-15 185l15 157l-15 199l15 129l-15 43l-14 128l29 43zM413 1210l42 -29q-11 21 -42 29zM712 1181v-71l43 57zM271 1153q12 -21 42 -29q-11 21 -42 29zM271 1053q40 -78 128 -85q-37 71 -128 85zM284 896 q1 -49 29 -72l29 58zM427 753l-28 -42l42 -15zM599 725l28 -57q-6 32 -28 57zM783 711q12 -31 44 -43q-11 31 -44 43zM869 696l43 -28q-12 20 -43 28zM327 511l43 -28q-11 20 -43 28zM313 368q4 -18 29 -28q-5 14 -29 28zM271 254h28v29h-15z" />
<glyph unicode="G" horiz-adv-x="1377" d="M721 1385l243 -44q75 -51 157 -128q82 -57 158 -143q-30 -86 -115 -143l-171 -42l-43 28q-76 54 -171 100q-112 -12 -229 -57q-50 -84 -86 -186l28 -229q53 -75 129 -156l158 -15l57 28q52 47 85 115q-74 -13 -171 -15l-29 43l-42 186l13 43l72 71l344 -28l42 14 q128 -7 129 -142v-501q-11 -109 -129 -128q-105 1 -171 100l-158 -115l-200 -14l-257 71q-71 68 -157 129l-115 171l-14 187l14 42v229l-14 43l86 200l143 129q76 75 200 100zM707 1228l-15 -72l15 -15l57 44zM879 1156l71 -43q-26 33 -71 43zM550 1056q-3 19 -29 29 q6 -15 29 -29zM249 785l15 -44v44h-15zM350 699v28h-14zM278 685l-14 -115l43 -29q-6 64 -29 144zM1050 641l29 -28l57 43l-72 14zM1064 541l-57 -156h86l-29 100l57 28q-20 20 -57 28zM321 513q7 -32 43 -57q-6 36 -43 57zM364 341l14 -56l58 28zM950 256v29h-14zM1108 256 l-15 -43h28v43h-13zM492 241q5 -18 29 -28q-3 19 -29 28zM550 227q10 -30 42 -43zM707 227q-24 -33 -28 -71l57 42q-4 19 -29 29z" />
<glyph unicode="H" horiz-adv-x="1301" d="M1059 1379q102 -15 172 -100l-28 -215l14 -444l-14 -42l14 -186l-14 -44l14 -171q-29 -91 -129 -143q-104 6 -214 29q-56 85 -57 214l14 200l57 115l-57 -14l-186 -14l-43 14q-101 -8 -157 -101l42 -343l-56 -71l-215 -29q-96 28 -143 129l14 157l-14 57l14 187l-14 42 l14 215q10 93 44 186q-32 81 -58 186q15 100 114 157l200 14q79 -59 100 -171l-13 -201l-29 -128l42 -15l15 15q101 29 214 43q49 -11 115 -15l14 86q-22 96 -28 201l-14 129l42 28zM931 1221q12 -20 43 -28zM1046 1107l13 -57l15 57h-28zM1017 1064l-58 -57q43 8 58 57z M302 864l14 -129l-85 -43q20 -11 56 -14l72 86q-20 48 -57 100zM1003 849q20 -30 56 -42zM903 821l-58 -29l-28 15q10 -63 42 -115q40 57 44 129zM502 749v29h-15zM516 720q5 -18 29 -28q-5 15 -29 28zM402 649q3 -19 29 -29q-5 15 -29 29zM945 535q-3 19 -28 29 q6 -15 28 -29zM1046 535q12 -20 42 -29q-11 21 -42 29zM273 420q5 -18 29 -28q-3 19 -29 28zM959 420l-28 -57h100q-30 38 -72 57zM202 392l14 -100l57 14q-18 46 -71 86z" />
<glyph unicode="I" horiz-adv-x="598" d="M301 1392q97 -28 190 -73l15 -220l-30 -132l30 -58l-30 -395l30 -88l-15 -103v-29h15l-15 -15l29 -161l-29 -44q-79 -53 -190 -58q-96 18 -190 73l-16 132l16 102l-30 44q25 52 30 118l14 205l-14 190l14 43l-30 367l16 44zM301 1231l29 -44l14 44h-43zM315 1173l15 -44 v44h-15zM271 1114q12 -27 44 -29q-12 21 -44 29zM315 528v30h-14zM242 499q21 -29 59 -29zM257 294l-15 -73l44 -15l15 73z" />
<glyph unicode="J" horiz-adv-x="801" d="M376 1387l219 -15q87 -52 118 -161l-15 -235l15 -204l-15 -44l15 -147l-30 -58l15 -264l-103 -175q-96 -38 -219 -59l-162 -15l-58 15q-73 67 -74 175l-14 103l14 44l60 58h175l15 88l-30 396l15 87l-29 191l14 44q7 88 74 176zM478 1020q40 -56 103 -102 q-42 57 -103 102zM478 845l-44 -73l74 29q-6 29 -30 44zM522 684q6 -29 30 -44q-6 29 -30 44zM537 537q1 -40 29 -73q0 40 -29 73zM552 347q-79 -6 -103 -73l103 -15l14 73zM361 274q19 -52 59 -88q-17 56 -59 88z" />
<glyph unicode="K" horiz-adv-x="1372" d="M157 1374l246 -15q59 -63 102 -159l-44 -231v-87q46 15 73 57l231 319q82 58 189 87l217 14q101 -11 144 -116l-144 -115l-131 -145l-173 -101q36 -68 101 -131q33 -90 87 -188q52 -61 87 -145l188 -260l-29 -72q-101 -40 -232 -43q-103 4 -202 72l-102 159l-115 304 q-43 -8 -73 -44l-116 -144l58 -188q-40 -81 -116 -159l-57 -15l-145 15l-102 57l-14 102l14 28l15 145l-15 43l-14 276l14 260l-14 188l14 44l-14 116zM287 1186q36 -48 88 -73q-36 39 -88 73zM910 1171l-43 -58l43 -43l14 72v29h-14zM259 838q11 -30 43 -43q-12 29 -43 43z M375 810q0 -39 28 -59q0 35 -28 59zM664 766v29h-14zM679 751l116 -86q-14 85 -116 86zM491 737q22 -34 72 -43q-26 32 -72 43zM432 679l-72 -57l43 -30q27 38 29 87zM273 650l43 -28q-11 20 -43 28zM244 549l116 -72q-49 42 -116 72zM273 447l-43 -86q41 31 43 86zM852 447 q71 -44 159 -72q-71 44 -159 72zM1127 230v29h-14z" />
<glyph unicode="L" horiz-adv-x="1059" d="M227 1383q125 -4 262 -73l14 -130l-14 -145l14 -116l-14 -43v-58l-30 -44l30 -247l-15 -116l145 -14l145 44l102 -30q80 -59 101 -173q6 -42 29 -88l-87 -115l-247 -15l-43 30l-449 -30l-44 58l-44 131l15 130v188l14 44l-14 58v551l-29 44q48 101 159 159zM242 1166 l-15 -58l44 29q-3 19 -29 29zM286 1064l28 -43q-4 29 -28 43zM198 629q40 -54 102 -102q-34 62 -102 102zM691 252q38 -35 87 -43zM329 223q11 -30 44 -44q-11 31 -44 44z" />
<glyph unicode="M" horiz-adv-x="1588" d="M230 1383q76 -19 173 -29l159 -14q57 -37 101 -102l44 -317l43 -159l14 -188q-3 -85 -29 -174q14 -28 44 -43l44 57l14 58l-29 14l15 30l28 130l-14 87l29 57l29 174q4 70 28 145l29 158q56 49 131 73l188 14l173 -28q31 -77 43 -160v-390l-14 -130l14 -44v-130l15 -29 l-15 -14l15 -145l-15 -188q-56 -37 -130 -72q-76 3 -158 29q-48 48 -73 116l57 853q-36 -49 -57 -116l-72 -477q-20 -69 -58 -145l15 -130l-15 -44q-49 -36 -116 -71h-43v-15l-130 15q-53 41 -101 101l-15 188l-72 318q-24 67 -29 144l-29 174v72l-43 -72l29 -159l-15 -131 l15 -43l-15 -188l72 -289q-37 -56 -101 -101l-130 -14l-43 14q-66 20 -131 73v202l29 173l-43 159l43 145l-43 159l14 188l-14 43l29 116zM316 1166v29h-14zM389 1195l29 -29q-5 15 -29 29zM359 1152l-28 -43h43v43h-15zM287 1094q-28 -20 -43 -58l72 -14q-1 39 -29 72z M1299 1065l15 -43v43h-15zM345 978v29h-14zM1314 950l-43 -88q35 37 43 88zM259 790l14 -72l-14 -44l43 44l29 72l-58 -14zM230 472l14 -43l43 43h-57z" />
<glyph unicode="N" horiz-adv-x="1347" d="M234 1386l277 -29l320 -568l58 -161v88l-44 466l15 44q4 121 131 145l160 15l58 -29q41 -115 44 -262l-14 -160l14 -44v-29h15l-15 -15l-29 -204v-44h15l-15 -44l29 -101l-14 -44l14 -276l-29 -44l-219 -73q-108 26 -203 102q-52 96 -87 218q-60 76 -117 175l-102 204 l58 204l15 87h-88l59 -44l-73 -188l-29 -44l43 -190l30 -437l-73 -57l-247 -30q-68 73 -88 190l15 160l-15 101l15 131l-30 263l15 87l15 44q-10 114 -44 262q54 88 160 131zM307 1211q48 -84 145 -160q-17 119 -145 160zM976 1123l-14 -72l29 15l14 -15l15 58zM234 1051 l44 -29q-14 20 -44 29zM380 1007v29h-15zM438 978v-43h14l44 43h-58zM1108 891q4 -20 28 -29l15 14zM976 818l29 -59q-5 34 -29 59zM278 775q20 -32 58 -44zM1020 687q32 -26 73 -29zM685 628q48 -45 117 -87l14 58l-14 29h-117zM904 628l-29 -43q21 13 29 43zM351 571v28 h-15zM220 512l58 -44l14 44h-72zM889 439l-29 -58l88 44zM307 352q19 -36 58 -44zM889 352q13 -37 59 -58q-20 30 -59 58zM1064 250q-39 -12 -73 -43q49 5 73 43z" />
<glyph unicode="O" horiz-adv-x="1461" d="M550 1373h223l97 -28q114 -26 236 -97q91 -63 167 -181l84 -237q-22 -72 -28 -152l14 -56q-18 -136 -70 -278l-167 -181q-82 -58 -209 -125l-305 -14q-115 34 -237 111q-85 63 -181 153l-83 264l14 265q11 113 69 250l167 181zM939 1164q27 -99 139 -125zM425 1150 q23 -23 56 -28zM466 1053q3 -19 28 -28q-3 19 -28 28zM383 1025q6 -31 28 -55l28 55h-56zM675 1025l-181 -139l-28 -180q7 -101 70 -209q84 -79 209 -98q98 35 167 126q30 95 41 236q-8 90 -69 181q-95 52 -209 83zM230 956q6 -27 28 -42l14 42h-42zM285 845l-27 -70l42 -28 l28 14q-8 48 -43 84zM1148 817q4 -19 28 -28l13 13zM1093 775q4 -18 27 -28q-3 19 -27 28zM1134 636l-69 -56q16 -53 55 -111l-14 111l83 56h-55zM272 622l-14 -42l27 14v28h-13zM397 510v28h-14zM1037 497q3 -19 28 -28q-5 14 -28 28zM313 455l-13 -56l41 42zM620 260 l-28 -69l41 -14l28 28zM814 260q-33 -26 -56 -69v-42l43 14l55 28q-5 43 -42 69z" />
<glyph unicode="P" horiz-adv-x="1330" d="M186 1365q100 -2 227 -29h43v14h342l242 -71q88 -61 170 -170l29 -285q-32 -102 -100 -228q-80 -74 -199 -157l-284 -14l-129 29l-43 -143l43 -71q-18 -85 -57 -171l-128 -57l-142 14l-100 43l-14 43l14 128v214l-14 42l14 57v142l15 43q-11 49 -15 114v285l-14 43 l14 128zM598 1194l-57 -28q43 0 57 28zM285 1109v28h-14zM868 1137q18 -31 58 -57q-10 38 -58 57zM371 1122l-71 -56l71 -15l14 58zM997 1080q1 -69 28 -142l-42 -72l42 -14l57 43l-28 57q-13 68 -57 128zM484 1023l-14 -228l29 -42l71 -15l28 15h29l42 13l115 15 q37 85 56 185l-56 28zM328 838l-57 -72l29 -42q31 -60 85 -114l-29 128l15 72zM954 795l-14 -42q52 6 100 42l-29 -14zM883 695q7 -43 43 -71q-10 40 -43 71zM456 610l-14 -71l57 43zM256 596q7 -28 29 -43zM314 553q4 -19 28 -28q-3 19 -28 28zM314 454q-38 -62 -43 -143 q41 57 43 143z" />
<glyph unicode="Q" horiz-adv-x="1453" d="M586 1357l308 -41l140 -43l196 -168l98 -265l14 -168l-28 -167l-84 -196l56 -14l126 -70l-28 -154l-84 -97l-112 -15l-28 28l-182 112l-41 -42l-323 -42l-153 28l-112 70q-48 37 -112 70l-70 112l-56 126l-28 349q6 76 28 154l56 125l84 99q38 45 98 84l98 84 q67 11 139 41zM726 1189q7 -53 43 -97q-1 55 -43 97zM838 1176q23 -23 56 -28zM1020 1036q22 -63 70 -112l28 56l-28 56h-70zM349 1008l-70 -84q40 -33 84 -84q8 73 42 154zM642 1008q-97 -57 -153 -168l-56 -210l14 -28q30 -98 126 -181q82 -46 181 -84l168 140l15 223 l13 42q-37 105 -97 210q-91 33 -211 56zM1188 784v28h-14zM237 686l42 -56l14 70l-28 14zM265 546q10 -35 42 -41q-10 29 -42 41zM1174 505q4 -19 28 -28q-3 18 -28 28zM1090 477q19 -52 56 -84l28 69zM321 462l-28 -56l84 -28zM992 365l14 -43v43h-14zM391 253 q-3 18 -28 28q6 -14 28 -28zM545 281q4 -19 28 -28q-4 18 -28 28zM1062 267q9 -74 84 -98q-31 56 -84 98zM881 239l13 -56l84 56h-97z" />
<glyph unicode="R" horiz-adv-x="1360" d="M148 1389l207 -15l103 15l29 -15l45 -15l147 15l45 -15l192 15l163 -74l117 -88q32 -72 59 -162l16 -148l-75 -207q-56 -46 -133 -89l-29 -44l148 -207l73 -147q20 -49 30 -118l-44 -29l-178 -15q-86 4 -176 29l-104 133l-74 133q-19 77 -59 162l-88 15l-30 -15 q-15 -4 -29 -29l14 -177l-14 -45l29 -118q-45 -57 -118 -103l-177 -15q-69 39 -134 103l16 133l-16 45l-14 147l14 44l16 178v221l-16 44l16 133l-16 133l30 44l-30 118zM458 1270q5 -19 29 -29q-3 20 -29 29zM266 1212l-29 -59h103zM916 1153l15 -74l14 59zM517 1079 q-22 -65 -59 -133l45 -104q12 -29 44 -44l236 30l104 44q-18 78 -75 148q-125 48 -295 59zM990 1050h29v29h-15zM281 990q25 -39 74 -59q-21 40 -74 59zM1034 946l-44 -59l73 -89l30 148h-59zM266 798q14 -33 45 -59q-7 38 -45 59zM901 710l74 -44q-26 33 -74 44zM370 695 q-41 -34 -45 -89q51 24 118 44zM325 503q25 -26 59 -29zM281 444v-30l30 16zM295 355v30h-14z" />
<glyph unicode="S" horiz-adv-x="1290" d="M627 1396l213 -57q94 -32 198 -85q76 -54 142 -127q-34 -88 -99 -170q-93 -34 -199 -43l-170 100l-156 14l-57 -29q15 -85 114 -113l227 -42q91 -18 184 -57q78 -52 142 -128q38 -99 42 -226l-71 -199l-142 -127q-94 -38 -212 -57l-213 -42q-100 3 -226 42 q-89 35 -170 100q-69 56 -142 141q40 83 142 127q66 64 170 72q68 -52 155 -100l71 -28l156 14q45 12 85 42q0 46 -42 86l-199 14l-42 14l-213 28l-141 128q-45 91 -71 198l28 212l114 142q81 56 184 99zM429 1226q4 -19 28 -28q-3 19 -28 28zM372 1198q4 -19 28 -28l14 13z M613 1198l-43 -57q40 16 43 57zM754 1198l43 -113l99 28q-59 53 -142 85zM386 1113l-56 -43l84 -14zM358 942q-49 -76 -71 -169h57l42 127zM613 773l-28 -43l57 -14l13 42zM982 674q6 -41 42 -71q-10 39 -42 71zM797 659q13 -65 71 -113l85 -14l14 28l-29 14l-42 43l-14 -57 q-45 39 -85 99zM953 405l14 13l-42 15q5 -15 28 -28zM882 334q6 -28 28 -43zM287 291l15 -42q28 19 56 57l-56 13zM840 291q1 -50 42 -85q-9 44 -42 85zM414 249v28h-14zM655 192v29h-13zM471 178q3 -19 28 -28l71 28h-99zM698 150q-4 19 -28 28q5 -14 28 -28z" />
<glyph unicode="T" horiz-adv-x="1174" d="M219 1384q115 -22 267 -30l59 15l103 -29l44 14l326 15l44 -15l45 -89l14 -59l-30 -162l-73 -30l-251 45l14 -222l-14 -44l14 -325l-14 -163l14 -59v-103q-78 -109 -222 -148q-98 17 -192 59l-15 59l15 30l15 251l-15 207l30 44l-15 44l-30 133l59 148q-10 29 -44 30 l-207 -45q-89 94 -103 237q36 121 162 192zM264 1206l-29 -44l59 15q-6 15 -30 29zM515 1192q8 -34 44 -59q-13 33 -44 59zM456 1162q4 -19 30 -29q-5 15 -30 29zM648 1073q13 -20 44 -29zM515 1014q6 -29 30 -44zM575 955q-27 -42 -30 -103q27 45 30 103zM575 808l-45 -192 l45 14l28 133zM559 482l60 15l-30 15zM530 409l29 -15v44h-14zM589 335l-44 -45q37 9 44 45z" />
<glyph unicode="U" horiz-adv-x="1305" d="M242 1389q92 -12 202 -43l72 -57l-28 -520l14 -231q14 -69 58 -144l144 -29l44 15q49 63 72 158l-15 217l15 158l-15 58l15 187l-29 102l14 29l29 43l173 57q94 -9 202 -43l15 -57l-15 -160l-43 -43q21 -49 29 -115l-15 -216l29 -145l-14 -57q-3 -101 -29 -216 q-35 -69 -86 -131l-131 -115l-187 -57l-72 15l-58 -30l-44 15l-201 28l-131 115q-60 56 -115 131l-43 360v245l14 159q-14 102 -14 231zM1021 1101q5 -19 30 -29q-5 14 -30 29zM964 1057l14 -43v43h-14zM271 1014l-29 -86l44 -29l29 72zM1007 784l-29 -145q19 3 29 29l58 29 zM315 668l-29 -58l43 -14v57zM978 625l14 -44v44h-14zM344 495q-4 19 -29 29q5 -15 29 -29zM358 409q4 -20 29 -29q-5 14 -29 29zM401 351l15 -43v43h-15zM545 221q5 -19 29 -29q-3 19 -29 29z" />
<glyph unicode="V" horiz-adv-x="1078" d="M155 1377q90 -15 189 -59l145 -493q10 -97 44 -189q14 -80 73 -146l-30 102l15 44l29 203l102 349q9 87 87 145l87 44l59 -44q76 26 174 29l43 -87l-43 -58q-27 -78 -44 -175l-174 -493q-30 -72 -44 -146l-44 -145q-20 -85 -58 -174q-66 -42 -145 -58l-218 -15 q-49 52 -87 130l-116 349q-40 79 -59 175q-26 68 -73 145q-11 91 -43 189l-87 290l44 29zM939 1129h30v30h-14zM882 1072q-38 -31 -59 -87h73v72zM765 694l15 -44l15 29zM242 679l44 -29q-12 21 -44 29zM300 650q47 -37 116 -58q-48 38 -116 58zM446 461l14 -44v44h-14z M663 433q23 -27 59 -30zM576 214l30 -57l43 57h-73z" />
<glyph unicode="W" horiz-adv-x="1539" d="M14 1369h199q59 -31 100 -85q5 -70 28 -142v-185l71 -298l-28 -128q51 17 99 57l-28 99l99 469l15 156q48 34 113 42l142 -13q60 -7 113 -43q28 -56 43 -128l100 -554l-29 -28q25 -54 71 -99q30 46 43 113q-25 54 -28 128l56 511q22 59 71 113l185 15l128 -57l42 -71 l-28 -57l-199 -738l-57 -128q10 -48 14 -113l-14 -43l-71 -128h-184q-67 11 -128 43q-36 56 -57 128l-99 468l-15 227l-42 -57l-14 -85l14 -28v-43l-100 -469q-10 -64 -42 -141l-199 -57l-113 14q-46 53 -72 128l-56 113q-20 73 -29 171l-57 128l14 42l-71 242 q-22 68 -27 142l-72 284zM739 1156l-57 -128l71 -42l14 71l86 -43l28 56q-72 28 -142 86zM171 1142l-14 -43h42zM1377 1014l15 -43v43h-15zM1349 872v28h-14zM142 886q2 -40 29 -85l14 85h-43zM241 716v28h-13zM1293 744q1 -30 28 -57q-1 31 -28 57zM923 574l29 -15v43h-15z M327 531v-29l28 15zM469 432q-4 18 -28 28q5 -14 28 -28zM1108 403q-3 19 -28 29q5 -14 28 -29zM369 418q28 -56 100 -86q-31 56 -100 86zM1080 275l-29 -57l14 -28q29 20 57 57z" />
<glyph unicode="X" horiz-adv-x="1210" d="M103 1378l244 -29q90 -35 159 -130l72 -186l71 -58l29 115l72 187q69 63 173 72l200 -15l44 -14l43 -72l-187 -244q-45 -75 -115 -158l-57 -116q12 -32 43 -56l115 -144l100 -188l130 -128q24 -50 43 -116l-58 -57l-101 -29l-43 14h-85q-101 32 -188 101l-100 158 q-32 96 -87 201l-85 -129l-87 -187q-55 -75 -129 -144l-230 15q-102 17 -144 115q48 77 115 158l215 316q51 71 72 158q-71 69 -129 158l-100 159l-129 143q34 80 114 130zM894 1062v28h-15zM663 932l29 -43q-5 29 -29 43zM535 903q18 -62 72 -115q-16 68 -72 115zM477 817 q6 -28 29 -43zM520 730l15 15l-44 14q6 -14 29 -29zM649 688q5 -35 29 -72q-1 38 -29 72zM520 630q26 -34 72 -57q-25 36 -72 57zM692 616l-14 -43l29 -15zM477 587l14 -43l15 43h-29zM908 314q7 -80 87 -100q-31 53 -87 100z" />
<glyph unicode="Y" horiz-adv-x="1140" d="M0 1378l176 -29l118 15l44 -15l102 -103l73 -116l59 -147q44 5 73 44q23 62 74 117q17 69 58 132l132 73h205l118 -87q-26 -63 -74 -118l-322 -454q-38 -49 -44 -117l-15 -132l15 -44v-191q-2 -67 -29 -132q-75 -31 -162 -43l-117 -15l-44 30q-32 52 -44 116l-14 381 l14 88l-29 59l-103 103l-322 453q19 69 58 132zM279 1158v30h-15zM279 1144l44 -30q-12 22 -44 30zM895 1100h29v30h-15zM865 1086q7 -42 44 -74q-13 35 -44 74zM426 968l-74 -73l88 -15zM777 954l15 -88v73zM513 851v29h-14zM689 763l-44 -88q39 33 44 88zM484 749 q28 -33 73 -59q-25 37 -73 59zM557 558l-29 -73q28 33 29 73zM557 367q7 -36 44 -58q-5 37 -44 58z" />
<glyph unicode="Z" horiz-adv-x="1301" d="M233 1375l357 -58l43 14l272 -14l57 -28l143 28q95 -31 100 -143q-6 -104 -28 -215q-61 -59 -144 -114l-243 -286q-65 -53 -129 -129q-38 -19 -71 -58l100 -13l330 28l114 -28l86 -44q-6 -51 -29 -100q-5 -96 -42 -186l-216 14l-85 -14l-29 14h-329l-43 -14l-57 29 l-157 -15l-144 115l-14 114l29 100l515 531l157 100l86 -44q-12 39 -43 72l-443 -43q-93 2 -201 29l-42 200zM461 1146q4 -19 29 -29q-3 19 -29 29zM819 1117l43 14l-57 15zM977 1003q3 -20 28 -29q-3 19 -28 29zM848 945l43 -42q-9 30 -43 42zM762 802q2 -29 28 -43 q-5 28 -28 43zM690 759q7 -28 29 -43l14 43h-43zM561 687q5 -18 29 -28q-3 19 -29 28zM433 515l-15 -156q-31 -15 -57 -58l72 -29l72 143q-16 63 -72 100zM547 315v29h-14zM289 287q13 -20 44 -29zM347 215q21 -28 57 -28z" />
<glyph unicode="[" horiz-adv-x="569" />
<glyph unicode="\" horiz-adv-x="569" />
<glyph unicode="]" horiz-adv-x="569" />
<glyph unicode="^" horiz-adv-x="961" />
<glyph unicode="_" />
<glyph unicode="`" horiz-adv-x="507" d="M62 1733q67 61 131.5 66.5t99.5 -30.5l6 -24l13 -32l82 -152q27 -57 37 -128l-68 -73l-33 -13l-22 9q-58 44 -117 103l-102 117l-5 24q-28 48 -22 133z" />
<glyph unicode="a" horiz-adv-x="1130" d="M474 1373l172 -29q61 -13 129 -43q39 -47 72 -115l29 -144l302 -790q34 -58 43 -129l-115 -72l-158 -29q-60 19 -115 58q-35 69 -58 158l-129 -15l-172 15q-53 -23 -86 -86l-72 -115l-158 -29l-158 14l-72 101q38 118 115 244l15 144l100 273l57 114q13 72 43 144 q21 60 58 130q36 117 158 201zM488 1229l43 -28q-12 21 -43 28zM459 1143l-14 -86l29 -15l57 29q-25 42 -72 72zM690 1100l14 -86l29 86l-29 29zM430 1028q-43 -83 -71 -186l43 -15l57 158zM618 1028q6 -36 43 -58q-13 33 -43 58zM718 999l-28 -72q26 33 28 72zM574 927 q-20 -109 -72 -244l-28 -115q56 -22 129 -29l72 15l-43 172q-20 99 -58 201zM330 770h29l-14 28zM273 712q14 -67 72 -115q-22 61 -72 115zM818 669q16 -67 87 -115zM775 482q-37 -31 -57 -86h57l58 -86q25 37 29 86q-34 41 -87 86zM402 439l14 -43l14 43h-28zM934 425 l-29 -58h43zM962 367q-12 -58 -43 -115l72 -29l15 115zM172 266v-100l14 72v28h-14z" />
<glyph unicode="b" horiz-adv-x="1334" d="M752 1378q128 -22 278 -73q84 -83 162 -205l14 -161q-11 -21 -14 -59l-44 -44q-64 -52 -147 -102l88 -15q102 -81 147 -220l14 -132l-14 -43l-60 -103q-75 -87 -204 -161q-133 -25 -308 -29l-220 -15l-44 15h-44l-160 -15l-44 15q-27 41 -44 102l-16 322l16 235l-16 59 l16 321l-30 206l74 73l248 15l59 -15q125 3 293 29zM488 1232l103 -44q-43 30 -103 44zM254 1218q4 -20 29 -30q-3 19 -29 30zM737 1202q15 -47 59 -72q-8 50 -59 72zM899 1144q16 -54 73 -88q-20 51 -73 88zM327 1042l-44 -44l73 -30q-2 38 -29 74zM649 1027l-190 -15 l29 -146l117 -30l44 30q98 24 191 102zM899 880l29 -14v44h-15zM312 851l-58 -44q21 -30 58 -44l44 73zM444 793l44 -44q-10 31 -44 44zM855 778q4 -20 29 -29l15 14zM811 749l14 -44l15 44h-29zM283 675v30h-15zM312 587q27 -33 74 -44zM913 587l29 -44q-5 30 -29 44z M708 573l-249 -30l29 -176l88 -14q118 20 264 73q-24 106 -132 147zM254 543l14 -44l15 30zM1030 441q5 -18 30 -30q-4 20 -30 30zM1016 411l-30 -73q29 31 30 73zM312 382l-58 -44l58 -132l44 15q-11 77 -44 161zM825 280q7 -37 44 -59q-5 37 -44 59zM415 265 q39 -47 102 -88q-37 49 -102 88zM386 221q4 -19 29 -29q-3 19 -29 29z" />
<glyph unicode="c" horiz-adv-x="1301" d="M657 1374l198 -28l156 -71l127 -113l85 -141l-99 -128q-77 -34 -170 -57q-57 47 -113 113q-74 32 -170 57l-142 -85q-35 -73 -56 -170q2 -91 28 -198q24 -68 71 -141q73 -37 156 -43q73 27 156 71q37 61 113 113l141 -85q52 -54 71 -142l-99 -127q-56 -48 -113 -114 q-75 -32 -170 -56l-213 -14l-183 42q-69 40 -142 100l-113 113l-71 155l-14 184l14 57l-14 142l42 184l72 156l268 184zM770 1218l-184 -56l57 -29l170 43zM374 1133l-29 -127h43v15l43 112h-57zM897 1133l-13 -70l70 14l28 56h-85zM402 949v28h-14zM360 893 q-36 -24 -57 -71q39 24 57 71zM247 751q13 -59 56 -113q-6 60 -56 113zM303 581v28h-14zM374 383q29 -121 155 -127zM1011 341l14 -43l14 43h-28zM629 227l-15 -85l29 57v28h-14zM756 227q11 -30 42 -42q-12 28 -42 42z" />
<glyph unicode="d" horiz-adv-x="1398" d="M169 1394l653 -14l238 -104l163 -178q59 -120 74 -282l-15 -74l30 -60l-30 -133q-29 -119 -89 -253q-64 -102 -178 -163q-117 -58 -267 -88l-238 -15l-103 -30l-164 14l-44 16q-85 87 -89 222l15 208v44l-30 90l15 132l-15 120l15 148l-15 164q11 116 74 236zM451 1202 v29h-14zM303 1202l-30 -104q20 3 30 29l59 31zM748 1202q27 -37 74 -60q-25 38 -74 60zM407 1158l-30 -45h44v45h-14zM273 1083q15 -97 60 -193l29 74q-11 92 -89 119zM911 1068q5 -19 30 -30q-4 20 -30 30zM1015 1054l-30 -75l60 -45zM510 1038v-652l90 14h148l74 60 q45 73 75 163l-16 237q-59 77 -148 134zM1074 950l45 -45q-10 32 -45 45zM1074 771q3 -32 30 -59l15 45zM333 757q24 -27 59 -31zM258 712q19 -60 75 -104q-24 55 -75 104zM1000 549l30 -45q-6 28 -30 45zM288 474l-30 -88l75 -30q-5 62 -45 118zM1030 474l-60 -88 q5 -31 30 -45q30 58 30 133zM362 311l30 -15v45h-15zM926 326q23 -25 59 -30zM288 282q23 -82 119 -89q-51 46 -119 89zM763 252l-45 -45q42 7 45 45zM525 237l15 -44l45 44h-60z" />
<glyph unicode="e" horiz-adv-x="1216" d="M188 1382l232 -29l232 15l188 -15l146 29l43 -29q31 -94 43 -203q-14 -80 -101 -131l-450 14l-57 -43l43 -116l217 29l59 -14l159 14q83 -20 116 -116q-8 -98 -58 -203l-203 -15l-232 15q-77 -24 -117 -116q64 -59 160 -87q100 26 232 28h146l29 15l14 -15h43 q58 -58 59 -159v-131l-59 -72l-492 14l-44 -28l-131 14q-72 -9 -145 -44q-80 37 -160 102v508l-14 58l29 145l-29 145l29 44l-15 116l15 29v87q20 73 73 145zM275 1121v29h-15zM246 1063q6 -29 29 -44zM231 874l15 -73l14 -28l15 101q-3 19 -29 29zM362 773q6 -29 29 -44z M464 744l-44 -59l87 15zM231 613q14 -49 58 -88q-13 53 -58 88zM246 424l43 -29q-12 21 -43 29zM318 352q2 -103 102 -146q-27 83 -102 146zM667 293l-15 -72l44 14q-2 31 -29 58z" />
<glyph unicode="f" horiz-adv-x="1214" d="M239 1388l174 -44l173 29l174 -43l174 29q84 -5 173 -43l29 -188q-37 -65 -102 -116l-158 -15l-203 15l-115 28l-44 -14l-29 -115l14 -44l131 -15l43 15h203q78 -1 158 -29l30 -130l-14 -44q-9 -71 -44 -144l-145 -15l-43 15l-145 29l-43 -15l-116 15l-29 -318l14 -44 q-4 -73 -43 -144l-290 -29l-28 43q-39 70 -58 159l43 159l-29 130l15 44l-15 203l15 188l-29 318l29 43q56 44 130 87zM282 1228l-14 -86l29 -14l14 72zM384 1214q18 -50 72 -72zM846 1185q4 -19 30 -29q-3 20 -30 29zM905 1142l14 -43l15 29zM326 1084l-29 -72l58 14 q-5 34 -29 58zM355 824l-58 -131l29 -14l87 14zM861 737l-29 -44q28 15 29 44zM282 607l-14 -73l14 -14l44 72zM311 476l-43 -57q37 17 43 57zM297 332l-29 -72l14 -29l29 14v-29l29 87z" />
<glyph unicode="g" horiz-adv-x="1389" d="M624 1386l216 -15l244 -101l158 -143q36 -49 58 -115l-58 -58l-201 -86l-173 115l-115 29l-129 -14q-74 -67 -129 -159l-29 -143l14 -43v-43q3 -90 72 -173q97 -37 216 -58q89 38 187 101q-103 2 -231 43q-24 50 -42 115l14 129l57 72l359 -29l101 15l43 -15l44 -86 l-29 -446l14 -200l-43 -15l-29 -29q-91 13 -186 44l-72 57q-31 -42 -87 -72q-103 -33 -215 -43q-112 7 -245 58l-157 115l-130 172l-43 216q12 107 43 215l-29 115l29 115l130 158l157 130zM868 1184q-28 -20 -43 -57q32 20 43 57zM394 1098l-14 -57l43 29q-3 19 -29 28z M336 954l15 15l-43 14q6 -14 28 -29zM251 926q25 -59 71 -116q-10 64 -71 116zM236 767q4 -18 29 -29l15 15zM1027 653l14 -43v43h-14zM351 581l-43 -87h28v15l58 43zM1098 566l-86 -43q12 -38 44 -72q40 43 42 115zM380 451l14 -43v43h-14zM984 437l43 -29q-12 21 -43 29z M1098 336l14 -43l15 43h-29zM380 322q32 -72 86 -144l14 86zM912 322q11 -51 57 -86q-14 47 -57 86zM768 222q4 -20 28 -29q-4 14 -28 29z" />
<glyph unicode="h" horiz-adv-x="1317" d="M212 1369l229 -14q41 -77 57 -172l-13 -229l-58 -86l43 -43q67 48 158 86l186 -14l14 -44l29 58l-15 158q-22 94 -28 200q54 75 158 86l157 14l43 -14q45 -76 57 -172l-28 -372l14 -43l-14 -58l28 -486q-8 -87 -57 -172l-158 -15l-57 15q-96 24 -129 129l14 243 q7 70 29 143q-6 28 -29 43q-94 -33 -200 -43l-115 14l-29 -14l-28 -57l28 -229q-9 -101 -42 -215q-101 -38 -230 -43q-73 47 -129 129q-10 49 -14 114l29 43l-15 44v228l15 29l-15 215l15 144l-15 56l-14 158l29 58q34 71 100 128zM327 1097q-31 -28 -43 -72q37 23 43 72z M1014 954q5 -39 29 -72l14 58zM269 868q-20 -84 -57 -171l57 13l29 115zM857 853q2 -68 43 -128q-3 72 -43 128zM670 725v28h-13zM427 739l-29 -71l43 -29l15 86zM972 710q5 -40 57 -57q-13 39 -57 57zM284 625l-15 -100q17 -3 29 -29l-72 -15l43 -14l72 43zM1029 496 q4 -19 28 -29l15 14zM957 295q37 -30 86 -43q-38 31 -86 43z" />
<glyph unicode="i" horiz-adv-x="577" d="M306 1382l187 -72l-15 -201l-14 -43l29 -115l-15 -43v-186h15l-15 -14l-14 -130l14 -42v-58l15 -114l-15 -29v-43l15 -158l-15 -57q-81 -38 -186 -57q-95 24 -187 71v158h-14l14 57l15 172l-15 201l15 215q-15 101 -15 229l-14 158l29 43zM292 1210q5 -28 29 -44z M220 894q41 -41 115 -43zM292 694l14 -44v44h-14zM263 636v-100l29 71zM277 335l-14 -86l14 -29l29 -29q-1 69 -29 144z" />
<glyph unicode="j" horiz-adv-x="789" d="M365 1386l117 -30l102 30q91 -58 118 -176l-15 -748l15 -59l-15 -146l-15 -44q-55 -80 -131 -146q-103 -40 -235 -44l-73 -30q-58 21 -118 59q-57 86 -58 205q34 102 146 132q101 30 103 146l15 44l-30 118l15 58l15 235l-30 146l15 59l-15 117zM467 1034q34 -57 103 -88 q-41 49 -103 88zM497 726l14 -44v44h-14zM467 579l-73 -117q41 -43 59 -103q22 24 29 59v161h-15zM365 301q26 -54 88 -88q-23 55 -88 88zM233 227q13 -28 44 -44z" />
<glyph unicode="k" horiz-adv-x="1351" d="M141 1364l232 -14q84 -43 131 -146l-43 -232q-21 -51 -59 -102l87 -14q56 76 132 145q31 86 87 174l130 131q78 28 175 44h217l43 -29l44 -73l-217 -203q-68 -64 -160 -117q-42 -67 -44 -159l117 -160l130 -131q33 -92 87 -188q57 -77 102 -175q-68 -72 -175 -73 l-188 -14l-44 14l-217 335l-73 189q-78 -46 -146 -117l-14 -58l29 -145v-29q-4 -92 -72 -175l-233 -14q-83 42 -102 146l-14 188l14 44l15 116l-15 28l-14 364l14 247q4 95 44 203zM1056 1132q-3 19 -29 29q6 -15 29 -29zM257 1117q16 -51 58 -87q-16 52 -58 87zM257 943 q21 -27 58 -29zM301 769l14 -44v44h-14zM693 739q11 -34 44 -57q-7 32 -44 57zM257 682l-14 -116l43 -30q15 -58 73 -87q-27 48 -44 117l44 43q-40 47 -102 73zM504 638v29h-15zM867 522q12 -27 44 -29q-12 21 -44 29zM272 347q4 -72 43 -145q-8 72 -43 145zM998 318 q-39 -12 -73 -43l88 15z" />
<glyph unicode="l" horiz-adv-x="1043" d="M201 1388q127 -11 262 -73l29 -44l-29 -218l29 -189l-29 -44l14 -423h15l-15 -43l59 29l218 44l44 -15q76 -4 160 -29l14 -291l-72 -58l-306 14q-128 -23 -291 -29h-160q-26 41 -44 102l-15 160l15 102l-29 131l29 131l-15 277l15 131l-15 102l-14 43q20 114 131 190z M244 1169l44 -14v43h-14zM303 1141q24 -39 73 -59zM260 1068l-16 -59l44 -14q-2 38 -28 73zM303 864l-29 -87q21 -12 58 -16l15 59l-15 29zM274 674l-44 -87q34 36 44 87zM288 456l-14 -87q31 17 58 58zM332 310l-15 -73l44 -14l43 73z" />
<glyph unicode="m" horiz-adv-x="1584" d="M176 1371l175 -14l160 14l117 -73l102 -480l14 -161l29 -87l-29 -44l-14 -44l14 -14q34 5 59 29l43 145l15 117l-15 44l30 160q10 69 43 146l44 160l102 73l160 15l160 -15q63 -20 117 -73l-14 -175l14 -116l-29 -29l15 -569l14 -116l-14 -44l14 -102l-14 -29 q-54 -40 -132 -73l-145 15l-88 102l44 422q-14 160 0 248l14 116l-73 15l15 -73q-5 -70 -29 -146l-87 -481q-7 -78 -44 -160l-131 -58q-67 13 -146 44q-53 46 -87 116l-15 161l-44 160l-14 145q-26 61 -30 132l-43 145v73q-27 -17 -29 -43l29 -277l-15 -44l15 -102l-15 -29 l15 -175l43 -160l-72 -116l-175 -15q-66 19 -146 58l-15 175l15 146l-15 43q12 49 15 117l-15 452l-14 14l14 73l-14 117l14 43q36 53 88 102zM336 1167v29h-14zM1138 1167l-58 -44l28 -58q20 2 30 29l58 73h-58zM1298 1153l-14 -44l28 -15zM307 1094l-43 -102 q12 -20 43 -29l44 44zM569 1036q-3 19 -29 29q6 -15 29 -29zM1080 1007q5 -29 28 -44zM1298 1007q16 -45 58 -73q-12 49 -58 73zM264 672l-15 -58h43l15 43zM292 526q13 -37 59 -58q-11 39 -59 58zM817 395q6 -50 44 -88q-13 49 -44 88zM1284 380q11 -28 43 -29zM234 322 q22 -52 88 -88q-32 48 -88 88zM730 278q27 -31 73 -44q-30 32 -73 44z" />
<glyph unicode="n" horiz-adv-x="1334" d="M1070 1387q111 -9 174 -115l-15 -101l15 -44l-15 -866l15 -130l-72 -72l-160 -14l-57 14q-99 16 -174 101l-274 549q-38 65 -115 115l72 -187l43 -477q-39 -93 -144 -130l-115 -14l-44 14l-58 29l-43 101q10 49 14 115l-14 275l14 116l-14 28v361q-6 103 -29 217 q65 86 188 101l245 -15l289 -534q32 -91 130 -144l-58 173l-43 390q11 43 43 87zM392 1200l-72 -43l100 -30q-4 59 -28 73zM1084 1157l-28 -87q28 32 28 87zM276 1127l-28 -101v-43l100 29zM464 1084q4 -18 28 -29q-3 19 -28 29zM435 1026q1 -29 29 -43q-5 29 -29 43z M348 998q13 -21 44 -29zM478 897v29h-14zM522 926q22 -62 72 -116q-16 62 -72 116zM1027 911l14 -43v43h-14zM1070 838l14 -57l16 57h-30zM969 622l-43 -87l43 -29l29 88q-3 19 -29 28zM291 521l-15 -72l29 -15l15 72zM781 492l30 -14l14 43h-29zM1027 463l-15 -129l-28 -88 q1 -20 28 -28q28 54 29 130l29 86zM883 449l-58 -58q44 -28 87 -72zM305 348l-43 -73l43 -29l43 29q-12 39 -43 73z" />
<glyph unicode="o" horiz-adv-x="1419" d="M568 1374q139 -7 306 -41q113 -28 235 -97l166 -167q20 -123 70 -264l-28 -291q-19 -113 -110 -221q-52 -92 -153 -181q-102 -51 -236 -97l-305 14q-102 44 -208 124q-78 68 -153 181q-45 105 -69 235l-14 140l28 138q30 113 97 236q66 79 166 166q81 66 208 125z M665 1277l-14 -41h28v41h-14zM846 1166v28h-14zM540 1180q29 -51 83 -97q-4 73 -83 97zM1040 1138l14 -41v41h-14zM402 1125l13 -70l15 28zM1012 1083l-28 -42h42v42h-14zM415 1028l-13 -56l41 28q-4 13 -28 28zM957 1028q10 -27 42 -28zM679 1013q-85 -47 -166 -124 l-70 -208l84 -208q80 -52 194 -84q87 40 180 97l42 181l-14 42q-16 107 -55 221q-87 48 -195 83zM319 972l-14 -42l27 15v27h-13zM1095 917l-55 -84q11 -29 42 -41q30 31 55 83zM277 820l14 -56q-14 -5 -28 -27q2 -20 28 -28l14 83q-3 18 -28 28zM222 667q14 -51 69 -70 q-20 46 -69 70zM1151 653q4 -18 28 -28q-4 19 -28 28zM1165 528q14 -23 42 -27zM360 486q-19 -27 -55 -55l27 -42l70 56q-12 28 -42 41zM1054 403q-59 -49 -83 -125q75 42 83 125zM776 306l56 -69q-12 47 -56 69zM540 293l-55 -70l97 -28q-6 51 -42 98zM846 251 q5 -27 28 -42z" />
<glyph unicode="p" horiz-adv-x="1313" d="M294 1360l298 -29l128 14l142 -28q127 -14 255 -85q79 -92 114 -228l-14 -142l14 -42v-43l-28 -42q-45 -108 -128 -214q-104 -65 -242 -85l-128 -28l-141 28l-71 -14l28 -199q-14 -122 -128 -199l-156 -14l-56 14l-44 28l-28 44v240l-14 114l14 43v85h-14q11 21 14 57 l15 185l-15 42l-14 355q62 107 199 143zM833 1217l-56 -57l42 -28l43 57q-5 15 -29 28zM280 1160q17 -47 71 -56q-26 36 -71 56zM947 1118l14 -28l43 14l-28 43zM521 1033q-28 -21 -56 -57l28 -43l-15 -42l15 -114q46 -37 113 -42l99 28l44 -15q40 33 84 86l15 99l-29 43z M322 990v29h-14zM961 976v28h-14zM1046 990l-42 -57q37 16 42 57zM237 933q4 -18 28 -28q-4 15 -28 28zM265 891q28 -32 72 -43q-26 32 -72 43zM976 848q11 -20 42 -28zM1033 820q-61 -35 -114 -85l99 -15l28 72zM337 805q4 -37 42 -57q-13 33 -42 57zM379 664l-14 -57 l43 42zM947 621v28h-14zM692 635q9 -47 42 -85q-6 47 -42 85zM393 607l-42 -114l42 -29l43 114zM237 536l28 -43q-4 28 -28 43zM265 422q4 -18 29 -29q-3 19 -29 29zM337 336q19 -30 56 -42zM251 237v29h-14z" />
<glyph unicode="q" horiz-adv-x="1449" d="M643 1392l314 -43l128 -57q52 -41 100 -100l86 -100l57 -128l43 -343l-43 -143l-57 -99q33 -53 100 -86q40 -41 57 -114q-11 -67 -43 -142q-43 -48 -114 -86l-129 57l-99 85l-328 -85q-48 11 -114 14q-66 11 -143 43l-129 71l-100 85q-38 54 -71 129l-71 243l14 43 l-14 171l29 171l57 128l100 86q39 51 100 100zM515 1177l14 -42v42h-14zM914 1163l100 -128q-31 74 -100 128zM315 1049l29 -43l14 43h-43zM701 1049l-186 -128q-44 -102 -57 -243q7 -109 86 -213q69 -79 185 -86q109 17 185 114q32 112 43 256q-11 107 -85 215 q-72 55 -171 85zM1100 992q40 -62 100 -114q-14 84 -100 114zM358 921l15 -43v43h-15zM315 835l-14 -86l43 58q-5 14 -29 28zM1129 821v-72q33 27 56 72h-56zM287 664l14 -143l-14 -43q38 -52 114 -85q-39 68 -57 157q-7 61 -57 114zM1071 636q24 -38 71 -58q-20 39 -71 58z M415 307q6 -28 29 -42zM1057 307l-14 -71l42 -28l44 42zM586 236q11 -39 43 -71q-2 46 -43 71zM800 193l14 -43v43h-14z" />
<glyph unicode="r" horiz-adv-x="1339" d="M126 1401l192 -30l89 15l29 -15h296l118 15l30 -15q76 -21 162 -59l133 -89l59 -162l15 -147l-59 -193q-49 -59 -118 -103l-60 -30q10 -41 45 -74q41 -65 74 -148l89 -103l44 -162q-80 -35 -178 -59l-133 15l-44 -15q-66 37 -118 118l-59 147l-88 134q-54 53 -134 73 l-58 -44l28 -88l16 -119l-30 -44q20 -49 30 -118l-30 -44q-78 -30 -178 -45l-147 45q-39 70 -59 162l14 428l-14 89l14 30v73l16 207q-20 77 -30 177q10 89 44 178zM407 1194v29h-15zM909 1194q-3 20 -29 29q5 -14 29 -29zM924 1179l-30 -73l74 29zM525 1076 q-32 -29 -59 -74l14 -177l30 -45l251 45q52 35 104 89q-21 52 -59 103q-123 42 -281 59zM244 898q4 -28 30 -44q-6 30 -30 44zM333 795l-45 -45l60 -29v59zM953 721q3 -20 30 -29q-3 19 -30 29zM392 692q4 -19 30 -30q-6 15 -30 30zM215 677q5 -19 29 -30q-4 15 -29 30z M761 677q39 -50 104 -74q-43 44 -104 74zM865 588q4 -19 29 -30q-5 16 -29 30zM200 426l30 -44q-6 29 -30 44zM909 293l-15 -45h30v45h-15z" />
<glyph unicode="s" horiz-adv-x="1292" d="M512 1376l155 -14l57 14h42l339 -169l72 -57l-29 -113q-69 -69 -155 -127q-99 13 -199 57q-83 29 -183 42q-99 -11 -99 -114l240 -28l213 -56q78 -40 155 -113q53 -84 85 -184l-57 -227l-113 -155l-170 -98l-198 -29l-28 14l-99 -14l-43 29l-42 -15h-42q-96 23 -198 71 l-142 127q-26 46 -42 113l70 57l170 99q85 -21 170 -71q94 -37 212 -56q94 24 184 84q-84 45 -198 71l-184 28l-42 -14l-170 71l-113 156l-29 225q32 91 85 184l142 127zM441 1207l28 -43q-5 28 -28 43zM342 1065q27 -58 71 -113q-19 61 -71 113zM512 783l-15 -85l72 14 q-14 46 -57 71zM399 726v29h-14zM709 740q28 -56 85 -99q-29 55 -85 99zM865 655l43 -28q-12 20 -43 28zM965 514v28h-15zM709 217l-13 -70l28 -15v71z" />
<glyph unicode="t" horiz-adv-x="1157" d="M225 1387l131 -30l147 16l264 -16l58 16l205 -16q34 -34 59 -87l14 -102l-14 -44v-44l-74 -59q-108 27 -248 29l-15 -219l15 -44l-15 -249l15 -44l-15 -249l15 -58q-36 -106 -147 -161l-117 -15l-44 15h-44l-59 73l-14 58l14 147l-14 44l14 44l15 321l-29 44l29 191 l15 44q-12 27 -44 29q-76 -30 -176 -44l-103 44l-14 190q30 125 176 176zM781 1211q5 -18 30 -29q-4 19 -30 29zM313 1197l-15 -44h29l15 44h-29zM576 597l-29 -59h44zM591 450l-44 -73l44 -29l29 73q-5 15 -29 29zM562 260l-15 -73l73 14q-12 35 -58 59z" />
<glyph unicode="u" horiz-adv-x="1271" d="M1053 1402q96 -23 130 -129l29 -173q-25 -86 -29 -187l-15 -187l15 -202l-29 -216l-101 -130l-144 -100l-187 -58l-144 29l-58 -15l-172 58q-67 48 -130 115l-115 130q-6 103 -29 216l29 101l-15 86l15 58l-15 158l15 58l-15 158q1 86 44 173l144 29l43 -15l129 15 l29 -44l29 -144l-29 -57l-14 -418l14 -201q40 -61 101 -130l130 -14l57 43l58 173l-29 576l-14 43l14 14q18 78 72 144zM967 1230q22 -26 57 -29zM996 1129l-15 -43h29v43h-14zM261 1042q23 -37 72 -57q-19 41 -72 57zM996 942l-15 -44h29l14 44h-28zM981 826q39 -30 87 -43 zM981 625q8 -39 43 -72q-5 41 -43 72zM247 538l-29 -100l58 -15zM924 481h28v29h-14zM477 265q23 -24 58 -29zM823 265q11 -31 43 -43q-10 29 -43 43z" />
<glyph unicode="v" horiz-adv-x="1055" d="M32 1391l220 -14q63 -40 118 -103l14 -176l59 -176q13 -83 44 -176l59 -249l44 74l44 380q20 79 58 162l30 176q56 54 131 88h220l74 -30q-7 -52 -30 -102l-58 -162l-30 -161q-18 -69 -58 -147l-44 -160l-74 -162l-87 -352q-68 -48 -162 -73l-205 -15l-117 102 q-6 88 -30 176l-102 308q-33 71 -58 162q-28 75 -44 176l-74 161l-44 176q39 63 102 117zM150 1215q26 -32 74 -44zM180 1098l44 -29l28 14zM238 849q13 -39 44 -74q-6 46 -44 74zM282 703l14 -44l15 44h-29zM472 439q-35 -36 -58 -88l88 -132l58 14q-6 42 -29 88zM560 423 q18 -47 74 -58q-26 37 -74 58z" />
<glyph unicode="w" horiz-adv-x="1533" d="M87 1379l170 -14l71 -127q12 -68 42 -142l-14 -114l14 -28l43 -297q-11 -43 -43 -85q3 -14 28 -28l57 -29l42 43l-28 99l14 43l14 170l43 141l14 127l43 142q36 51 99 71l141 -14q58 -9 113 -43l43 -141l14 -142l42 -141l43 -312q12 -29 43 -56v70l70 666q21 60 72 113 l169 14q64 -12 142 -43l42 -84l-28 -28l-141 -596l-57 -127l-29 -141q-8 -75 -42 -156q-10 -67 -56 -128q-57 -24 -128 -28l-100 -14l-42 28q-54 31 -99 86l-14 155l-71 297l-14 170q-7 66 -43 142l-13 -100l13 -42l-42 -142l-14 -169l-43 -142l-14 -169l-99 -86l-156 -28 l-141 42l-100 269l-28 142q-30 73 -42 156l-156 566q6 67 43 127zM724 1210q6 -28 29 -43zM781 1138l-71 -169l43 -15l70 114zM1347 1096q5 -38 28 -70q-1 37 -28 70zM1333 954v-84l28 70zM200 813l29 -43q-6 28 -29 43zM299 502q-24 -58 -28 -128l99 -56l-57 84zM540 402 h29v28h-15zM1021 430l-42 -56l113 -28l29 56l-15 28h-85zM469 303v28h-14zM398 318l15 -43v43h-15zM441 289v29h-14zM1135 261l42 -43l28 43l-33 27z" />
<glyph unicode="x" horiz-adv-x="1208" d="M58 1380l246 -29q96 -29 188 -86l86 -203q26 -49 73 -101l14 73l72 201q48 85 160 116l201 15l44 -15l72 -57q-10 -52 -43 -102q-59 -73 -102 -173l-144 -130q-44 -79 -72 -173l347 -462q57 -72 72 -174l-29 -57h-130v-15l-44 15h-187l-130 216q-50 91 -87 203 q-28 30 -72 43l-130 -289q-40 -81 -130 -144l-101 -29l-115 29l-102 -14l-43 14l-29 71q36 91 101 174l347 462l-145 130l-101 173l-130 144l-28 102zM983 1235q-37 -24 -58 -72zM333 1091v29h-15zM362 1091l29 -43q-6 29 -29 43zM853 1091q11 -30 44 -43zM506 961l-14 -72 l43 43q-3 19 -29 29zM608 759q5 -59 29 -116q8 -44 57 -57q-9 61 -43 130zM477 658q7 -28 29 -44zM420 557l-29 -72l58 -29v86zM261 326h28v28h-14zM377 326q4 -19 28 -29q-4 14 -28 29zM1069 196q7 -29 29 -43q-5 29 -29 43z" />
<glyph unicode="y" horiz-adv-x="1131" d="M-15 1375l102 -14l29 14h44l176 -29l160 -248l59 -147q43 25 73 74l72 131q27 68 74 131q67 40 146 59l161 -15q66 -9 131 -44q-11 -61 -44 -131l-102 -102l-175 -220l-73 -131q-40 -57 -74 -132l30 -161l-14 -131l14 -44l14 -117l-28 -44l-147 -58l-175 30 q-47 49 -88 116l29 176l-29 175l29 44l-29 88l-234 365l-102 102l-88 117q18 69 59 146zM306 1098q12 -35 44 -59zM760 981l28 -15l15 29l-29 15zM350 995l-14 -44h28v44h-14zM818 878v29h-15zM628 776q22 -23 58 -30zM511 762l14 -103l-29 -44h88q-19 82 -73 147zM540 469 l-59 -73l118 -102l-15 72l15 16q-17 49 -59 87z" />
<glyph unicode="z" horiz-adv-x="1279" d="M187 1369l435 -43l217 15l203 -15q99 -4 159 -101l-29 -58l15 -159q-57 -68 -131 -131l-232 -260l-130 -116q-67 -56 -159 -101q85 -27 188 -30l116 -14l44 14h260l29 -29l15 -188l-15 -43q-49 -57 -130 -87l-159 29l-59 -14h-506q-97 11 -188 43q-47 77 -73 174 q19 79 73 159q47 70 115 130l232 275l159 87l116 145l-188 -58l-203 15l-159 -30l-43 30q-32 83 -44 188q20 85 72 173zM332 1239q3 -19 29 -29q-3 19 -29 29zM940 1153q28 -39 73 -73q-20 50 -73 73zM839 1123q4 -18 29 -29l15 15zM868 1037l-73 -73l59 14q43 19 72 59h-58 zM636 805q3 -20 29 -29q-3 19 -29 29zM520 515q13 -20 44 -29q-12 21 -44 29zM303 414q4 -20 29 -29q-3 20 -29 29zM375 370l-43 -130l58 29q37 24 58 72zM463 255l14 -58l14 43zM636 240q4 -19 29 -29q-3 19 -29 29z" />
<glyph unicode="{" horiz-adv-x="684" />
<glyph unicode="|" horiz-adv-x="532" />
<glyph unicode="}" horiz-adv-x="684" />
<glyph unicode="~" horiz-adv-x="1196" />
<glyph unicode="&#xa1;" horiz-adv-x="598" d="M220 -58q-88 82 -116 226l15 260l-15 64l65 244l55 180q76 -27 160 -9l48 -119l46 -136l-29 -272l29 -49v-49l29 -243zM320 217q-12 23 -43 33q11 -24 43 -33zM292 492v-32h13zM263 1024q-87 23 -159 76l-14 168q26 64 86 116l158 64q78 -16 158 -52l15 -51l-15 -128 q-6 -78 -28 -168z" />
<glyph unicode="&#xa2;" />
<glyph unicode="&#xa3;" />
<glyph unicode="&#xa5;" />
<glyph unicode="&#xa6;" horiz-adv-x="532" />
<glyph unicode="&#xa7;" />
<glyph unicode="&#xa8;" horiz-adv-x="531" d="M227 1721q54 -14 97 -52l9 -26l-9 -62v-27q-2 -49 -17 -113l-115 -9q-48 10 -87 44l-27 114q20 43 62 79zM533 1421q-46 16 -87 53l-18 123q12 49 35 105l114 18q49 -16 88 -53l18 -123q-22 -40 -62 -70z" />
<glyph unicode="&#xa9;" horiz-adv-x="1509" />
<glyph unicode="&#xaa;" horiz-adv-x="758" />
<glyph unicode="&#xab;" />
<glyph unicode="&#xac;" horiz-adv-x="1196" />
<glyph unicode="&#xad;" horiz-adv-x="865" d="M462 921h152l102 -13q59 -86 63 -202q-63 -75 -178 -89l-37 -13l-89 13l-89 -13q-108 2 -242 26q-45 66 -50 164q34 81 127 114h241v13z" />
<glyph unicode="&#xae;" horiz-adv-x="1509" />
<glyph unicode="&#xaf;" horiz-adv-x="1131" />
<glyph unicode="&#xb0;" horiz-adv-x="819" />
<glyph unicode="&#xb1;" horiz-adv-x="1124" />
<glyph unicode="&#xb2;" horiz-adv-x="682" />
<glyph unicode="&#xb3;" horiz-adv-x="682" />
<glyph unicode="&#xb4;" horiz-adv-x="507" d="M445 1583l-35 -47q-59 -59 -117 -103l-136 -86l-33 13l-68 73q10 71 37 128l116 144l13 32l6 24q35 36 82.5 34.5t156.5 -79.5q6 -85 -22 -133z" />
<glyph unicode="&#xb5;" horiz-adv-x="1180" />
<glyph unicode="&#xb6;" horiz-adv-x="1100" />
<glyph unicode="&#xb7;" horiz-adv-x="682" />
<glyph unicode="&#xb8;" horiz-adv-x="1178" d="M167 -340l-50 103q-8 27 -11 54l45 40l50 7l44 -31q29 -54 73 -70l27 31l-22 63q-30 48 -61 86l-45 109l23 56h11l11 7l5 -7h23q50 -5 78 -48l61 -86q30 -48 50 -102l11 -15l11 -87l-5 -31q-30 -51 -61 -87q-45 -42 -90 -55l-105 -8z" />
<glyph unicode="&#xb9;" horiz-adv-x="682" />
<glyph unicode="&#xba;" horiz-adv-x="748" />
<glyph unicode="&#xbb;" />
<glyph unicode="&#xbc;" horiz-adv-x="1708" />
<glyph unicode="&#xbd;" horiz-adv-x="1708" />
<glyph unicode="&#xbe;" horiz-adv-x="1708" />
<glyph unicode="&#xbf;" horiz-adv-x="1178" d="M751 -12l-269 14q-114 23 -227 100q-80 64 -156 156l-14 56l28 157l28 28q52 98 128 185l156 156q71 77 199 86h57l14 13l28 -13h28l57 -100l-113 -199q-80 -69 -156 -156l-57 -113l71 -57q110 29 185 127l113 57l128 -14l113 -71q-6 -50 -28 -99l-128 -185zM837 215 q-5 19 -29 29q3 -19 29 -29zM368 258q-9 44 -42 71q10 -41 42 -71zM298 442q-3 31 -29 57zM496 684l-42 28q11 -20 42 -28zM755 1029l-156 28q-48 -12 -113 -14l-28 29l-43 156q24 68 71 142l185 28q73 -21 141 -71l-14 -156q-8 -70 -43 -142z" />
<glyph unicode="&#xc0;" horiz-adv-x="1154" d="M0 12zM508 1387q89 -5 172 -29l115 -71q31 -55 57 -129l71 -258l58 -114l42 -144l72 -114q11 -71 44 -143l56 -130l29 -100l-24 -50l-114 -71h-129v-14l-43 14q-54 21 -100 71q-31 77 -34 150l-29 15l-56 -28l-29 13h-187q-63 -23 -100 -85l-72 -115l-143 -43l-157 29 q-46 39 -86 100l114 257l15 158l72 130l129 415l56 114q26 67 72 129zM551 1215l-57 -14q17 -31 57 -57l28 28zM379 1130q23 -38 72 -58zM666 1130q3 -20 29 -29l56 29h-85zM465 1043l-29 -114h58q0 58 -29 114zM551 900q-4 -106 -43 -229l-14 -101l129 -14q29 12 43 43 l-29 129q-31 82 -86 172zM795 843q13 -25 43 -43q-11 30 -43 43zM279 814q36 -65 115 -100q-43 60 -115 100zM880 786l-14 -44h29v44h-15zM265 671q19 -31 57 -43zM880 642q5 -18 29 -28q-3 19 -29 28zM795 599v-71l57 71h-57zM423 485q3 -27 28 -43q-5 28 -28 43zM737 442 l86 -144q-24 80 -86 144zM995 342q-3 19 -28 28q5 -14 28 -28zM938 270q4 -19 29 -28q-4 18 -29 28zM150 255l-28 -42l57 14q-4 19 -29 28zM379 1786q67 61 131.5 66.5t99.5 -30.5l6 -24l13 -32l82 -152q27 -57 37 -128l-68 -73l-33 -13l-22 9q-58 44 -117 103l-102 117 l-5 24q-28 48 -22 133z" />
<glyph unicode="&#xc1;" horiz-adv-x="1154" d="M0 12zM508 1387q89 -5 172 -29l115 -71q31 -55 57 -129l71 -258l58 -114l42 -144l72 -114q11 -71 44 -143l56 -130l29 -100l-24 -50l-114 -71h-129v-14l-43 14q-54 21 -100 71q-31 77 -34 150l-29 15l-56 -28l-29 13h-187q-63 -23 -100 -85l-72 -115l-143 -43l-157 29 q-46 39 -86 100l114 257l15 158l72 130l129 415l56 114q26 67 72 129zM551 1215l-57 -14q17 -31 57 -57l28 28zM379 1130q23 -38 72 -58zM666 1130q3 -20 29 -29l56 29h-85zM465 1043l-29 -114h58q0 58 -29 114zM551 900q-4 -106 -43 -229l-14 -101l129 -14q29 12 43 43 l-29 129q-31 82 -86 172zM795 843q13 -25 43 -43q-11 30 -43 43zM279 814q36 -65 115 -100q-43 60 -115 100zM880 786l-14 -44h29v44h-15zM265 671q19 -31 57 -43zM880 642q5 -18 29 -28q-3 19 -29 28zM795 599v-71l57 71h-57zM423 485q3 -27 28 -43q-5 28 -28 43zM737 442 l86 -144q-24 80 -86 144zM995 342q-3 19 -28 28q5 -14 28 -28zM938 270q4 -19 29 -28q-4 18 -29 28zM150 255l-28 -42l57 14q-4 19 -29 28zM815 1633l-35 -47q-59 -59 -117 -103l-136 -86l-33 13l-68 73q10 71 37 128l116 144l13 32l6 24q35 36 82.5 34.5t156.5 -79.5 q6 -85 -22 -133z" />
<glyph unicode="&#xc2;" horiz-adv-x="1154" d="M0 12zM508 1387q89 -5 172 -29l115 -71q31 -55 57 -129l71 -258l58 -114l42 -144l72 -114q11 -71 44 -143l56 -130l29 -100l-24 -50l-114 -71h-129v-14l-43 14q-54 21 -100 71q-31 77 -34 150l-29 15l-56 -28l-29 13h-187q-63 -23 -100 -85l-72 -115l-143 -43l-157 29 q-46 39 -86 100l114 257l15 158l72 130l129 415l56 114q26 67 72 129zM551 1215l-57 -14q17 -31 57 -57l28 28zM379 1130q23 -38 72 -58zM666 1130q3 -20 29 -29l56 29h-85zM465 1043l-29 -114h58q0 58 -29 114zM551 900q-4 -106 -43 -229l-14 -101l129 -14q29 12 43 43 l-29 129q-31 82 -86 172zM795 843q13 -25 43 -43q-11 30 -43 43zM279 814q36 -65 115 -100q-43 60 -115 100zM880 786l-14 -44h29v44h-15zM265 671q19 -31 57 -43zM880 642q5 -18 29 -28q-3 19 -29 28zM795 599v-71l57 71h-57zM423 485q3 -27 28 -43q-5 28 -28 43zM737 442 l86 -144q-24 80 -86 144zM995 342q-3 19 -28 28q5 -14 28 -28zM938 270q4 -19 29 -28q-4 18 -29 28zM150 255l-28 -42l57 14q-4 19 -29 28zM581 1611l-44 -140q-38 -50 -95 -92l-97 25l-27 22l-2 24q11 73 35 152l55 145l19 16q29 47 80 87l57 -6q82 -2 128 9l41 -54l1 -34 l35 -48l66 -140l-3 -143l-105 -65l-33 23l-83 122q-11 45 -28 97z" />
<glyph unicode="&#xc3;" horiz-adv-x="1154" d="M0 12zM508 1387q89 -5 172 -29l115 -71q31 -55 57 -129l71 -258l58 -114l42 -144l72 -114q11 -71 44 -143l56 -130l29 -100l-24 -50l-114 -71h-129v-14l-43 14q-54 21 -100 71q-31 77 -34 150l-29 15l-56 -28l-29 13h-187q-63 -23 -100 -85l-72 -115l-143 -43l-157 29 q-46 39 -86 100l114 257l15 158l72 130l129 415l56 114q26 67 72 129zM551 1215l-57 -14q17 -31 57 -57l28 28zM379 1130q23 -38 72 -58zM666 1130q3 -20 29 -29l56 29h-85zM465 1043l-29 -114h58q0 58 -29 114zM551 900q-4 -106 -43 -229l-14 -101l129 -14q29 12 43 43 l-29 129q-31 82 -86 172zM795 843q13 -25 43 -43q-11 30 -43 43zM279 814q36 -65 115 -100q-43 60 -115 100zM880 786l-14 -44h29v44h-15zM265 671q19 -31 57 -43zM880 642q5 -18 29 -28q-3 19 -29 28zM795 599v-71l57 71h-57zM423 485q3 -27 28 -43q-5 28 -28 43zM737 442 l86 -144q-24 80 -86 144zM995 342q-3 19 -28 28q5 -14 28 -28zM938 270q4 -19 29 -28q-4 18 -29 28zM150 255l-28 -42l57 14q-4 19 -29 28zM475 1612q-17 -38 -28 -71l-83 -89l-33 -17l-105 48l-3 104l66 103l1 48l1 25l41 39q80 -21 162 -20l57 5q3 -2 5 -3l5 1 q57 -31 95 -68l44 -101q17 37 28 70l83 89l33 17l105 -48l3 -104l-95 -90l-35 -35l-1 -25l-41 -39q-46 8 -128 7l-28 -18q-3 2 -5 3l-5 -1q-57 31 -95 68l-44 101v1z" />
<glyph unicode="&#xc4;" horiz-adv-x="1154" d="M0 12zM508 1387q89 -5 172 -29l115 -71q31 -55 57 -129l71 -258l58 -114l42 -144l72 -114q11 -71 44 -143l56 -130l29 -100l-24 -50l-114 -71h-129v-14l-43 14q-54 21 -100 71q-31 77 -34 150l-29 15l-56 -28l-29 13h-187q-63 -23 -100 -85l-72 -115l-143 -43l-157 29 q-46 39 -86 100l114 257l15 158l72 130l129 415l56 114q26 67 72 129zM551 1215l-57 -14q17 -31 57 -57l28 28zM379 1130q23 -38 72 -58zM666 1130q3 -20 29 -29l56 29h-85zM465 1043l-29 -114h58q0 58 -29 114zM551 900q-4 -106 -43 -229l-14 -101l129 -14q29 12 43 43 l-29 129q-31 82 -86 172zM795 843q13 -25 43 -43q-11 30 -43 43zM279 814q36 -65 115 -100q-43 60 -115 100zM880 786l-14 -44h29v44h-15zM265 671q19 -31 57 -43zM880 642q5 -18 29 -28q-3 19 -29 28zM795 599v-71l57 71h-57zM423 485q3 -27 28 -43q-5 28 -28 43zM737 442 l86 -144q-24 80 -86 144zM995 342q-3 19 -28 28q5 -14 28 -28zM938 270q4 -19 29 -28q-4 18 -29 28zM150 255l-28 -42l57 14q-4 19 -29 28zM399 1749q54 -14 97 -52l9 -26l-9 -62v-27q-2 -49 -17 -113l-115 -9q-48 10 -87 44l-27 114q20 43 62 79zM705 1449q-46 16 -87 53 l-18 123q12 49 35 105l114 18q49 -16 88 -53l18 -123q-22 -40 -62 -70z" />
<glyph unicode="&#xc5;" horiz-adv-x="1366" />
<glyph unicode="&#xc6;" horiz-adv-x="2048" />
<glyph unicode="&#xc7;" horiz-adv-x="1292" d="M93 0zM611 1378q84 -6 183 -28l182 -43q56 -46 112 -112l112 -125q-17 -72 -69 -141q-61 -50 -140 -84q-72 28 -141 84l-126 98l-154 -70q-56 -55 -99 -126l-13 -112l13 -42v-43l56 -168l141 -84q86 12 168 56l112 112q76 -8 155 -41q59 -50 112 -127q-32 -67 -84 -140 l-127 -112l-140 -84l-154 -14l-42 14l-57 -14l-140 28l-154 70l-196 267l-28 196l14 196l-14 112l14 28l14 42l70 155l112 112l140 84zM598 1266l-43 -43q40 5 43 43zM794 1182q4 -32 28 -56l14 56h-42zM906 1167l-28 -84l57 43zM570 1126q1 -29 28 -43zM317 1027l-28 -98 q0 -22 28 -28q26 41 42 98q-11 20 -42 28zM247 789l-14 -42h28v42h-14zM261 705q24 -23 56 -28zM289 621l-14 -56h28v56h-14zM317 509q14 -51 57 -84q-3 52 -57 84zM878 312l-126 -70q20 -28 56 -42q47 37 112 56q-5 36 -42 56zM471 298q-45 -18 -84 -56q49 20 84 56z M611 270v-28l28 14zM509 -340l-50 103q-8 27 -11 54l45 40l50 7l44 -31q29 -54 73 -70l27 31l-22 63q-30 48 -61 86l-45 109l23 56h11l11 7l5 -7h23q50 -5 78 -48l61 -86q30 -48 50 -102l11 -15l11 -87l-5 -31q-30 -51 -61 -87q-45 -42 -90 -55l-105 -8z" />
<glyph unicode="&#xc8;" horiz-adv-x="1199" d="M81 19zM227 1385l232 -28l218 14l189 -14l44 14q86 -16 159 -73l15 -160l-15 -43l-43 -73l-102 -14l-29 14l-436 15l44 -146l436 30l43 -16l73 -57l-15 -117q-24 -80 -73 -160l-217 -14l-204 58q-64 -70 -72 -174q81 -36 174 -44l407 29l44 -29l28 -160q-10 -92 -58 -188 l-159 -15l-44 15l-218 28q-97 -26 -204 -28l-203 -30q-82 38 -146 116l-14 160l14 44l15 116l-15 29v87l15 247l-15 204l15 247q42 63 117 116zM735 1254q20 -45 72 -72q-25 39 -72 72zM343 1065l-44 -87q37 35 44 87zM270 862q5 -19 29 -29l15 15zM241 818l14 -43l15 29z M328 761l15 -44l14 29zM255 571q1 -31 29 -58q0 31 -29 58zM314 484v29h-15zM212 426q13 -37 58 -58q-11 39 -58 58zM371 382q5 -18 30 -29q-3 20 -30 29zM444 309l-57 -72l28 -44q28 52 29 116zM793 266l-43 -58q37 16 43 58zM604 252l15 -59l58 29zM255 222l44 -43 q-10 31 -44 43zM407 1786q67 61 131.5 66.5t99.5 -30.5l6 -24l13 -32l82 -152q27 -57 37 -128l-68 -73l-33 -13l-22 9q-58 44 -117 103l-102 117l-5 24q-28 48 -22 133z" />
<glyph unicode="&#xc9;" horiz-adv-x="1199" d="M81 19zM227 1385l232 -28l218 14l189 -14l44 14q86 -16 159 -73l15 -160l-15 -43l-43 -73l-102 -14l-29 14l-436 15l44 -146l436 30l43 -16l73 -57l-15 -117q-24 -80 -73 -160l-217 -14l-204 58q-64 -70 -72 -174q81 -36 174 -44l407 29l44 -29l28 -160q-10 -92 -58 -188 l-159 -15l-44 15l-218 28q-97 -26 -204 -28l-203 -30q-82 38 -146 116l-14 160l14 44l15 116l-15 29v87l15 247l-15 204l15 247q42 63 117 116zM735 1254q20 -45 72 -72q-25 39 -72 72zM343 1065l-44 -87q37 35 44 87zM270 862q5 -19 29 -29l15 15zM241 818l14 -43l15 29z M328 761l15 -44l14 29zM255 571q1 -31 29 -58q0 31 -29 58zM314 484v29h-15zM212 426q13 -37 58 -58q-11 39 -58 58zM371 382q5 -18 30 -29q-3 20 -30 29zM444 309l-57 -72l28 -44q28 52 29 116zM793 266l-43 -58q37 16 43 58zM604 252l15 -59l58 29zM255 222l44 -43 q-10 31 -44 43zM833 1632l-35 -47q-59 -59 -117 -103l-136 -86l-33 13l-68 73q10 71 37 128l116 144l13 32l6 24q35 36 82.5 34.5t156.5 -79.5q6 -85 -22 -133z" />
<glyph unicode="&#xca;" horiz-adv-x="1199" d="M81 19zM227 1385l232 -28l218 14l189 -14l44 14q86 -16 159 -73l15 -160l-15 -43l-43 -73l-102 -14l-29 14l-436 15l44 -146l436 30l43 -16l73 -57l-15 -117q-24 -80 -73 -160l-217 -14l-204 58q-64 -70 -72 -174q81 -36 174 -44l407 29l44 -29l28 -160q-10 -92 -58 -188 l-159 -15l-44 15l-218 28q-97 -26 -204 -28l-203 -30q-82 38 -146 116l-14 160l14 44l15 116l-15 29v87l15 247l-15 204l15 247q42 63 117 116zM735 1254q20 -45 72 -72q-25 39 -72 72zM343 1065l-44 -87q37 35 44 87zM270 862q5 -19 29 -29l15 15zM241 818l14 -43l15 29z M328 761l15 -44l14 29zM255 571q1 -31 29 -58q0 31 -29 58zM314 484v29h-15zM212 426q13 -37 58 -58q-11 39 -58 58zM371 382q5 -18 30 -29q-3 20 -30 29zM444 309l-57 -72l28 -44q28 52 29 116zM793 266l-43 -58q37 16 43 58zM604 252l15 -59l58 29zM255 222l44 -43 q-10 31 -44 43zM611 1621l-44 -140q-38 -50 -95 -92l-97 25l-27 22l-2 24q11 73 35 152l55 145l19 16q29 47 80 87l57 -6q82 -2 128 9l41 -54l1 -34l35 -48l66 -140l-3 -143l-105 -65l-33 23l-83 122q-11 45 -28 97z" />
<glyph unicode="&#xcb;" horiz-adv-x="1199" d="M81 19zM227 1385l232 -28l218 14l189 -14l44 14q86 -16 159 -73l15 -160l-15 -43l-43 -73l-102 -14l-29 14l-436 15l44 -146l436 30l43 -16l73 -57l-15 -117q-24 -80 -73 -160l-217 -14l-204 58q-64 -70 -72 -174q81 -36 174 -44l407 29l44 -29l28 -160q-10 -92 -58 -188 l-159 -15l-44 15l-218 28q-97 -26 -204 -28l-203 -30q-82 38 -146 116l-14 160l14 44l15 116l-15 29v87l15 247l-15 204l15 247q42 63 117 116zM735 1254q20 -45 72 -72q-25 39 -72 72zM343 1065l-44 -87q37 35 44 87zM270 862q5 -19 29 -29l15 15zM241 818l14 -43l15 29z M328 761l15 -44l14 29zM255 571q1 -31 29 -58q0 31 -29 58zM314 484v29h-15zM212 426q13 -37 58 -58q-11 39 -58 58zM371 382q5 -18 30 -29q-3 20 -30 29zM444 309l-57 -72l28 -44q28 52 29 116zM793 266l-43 -58q37 16 43 58zM604 252l15 -59l58 29zM255 222l44 -43 q-10 31 -44 43zM451 1734q54 -14 97 -52l9 -26l-9 -62v-27q-2 -49 -17 -113l-115 -9q-48 10 -87 44l-27 114q20 43 62 79zM757 1434q-46 16 -87 53l-18 123q12 49 35 105l114 18q49 -16 88 -53l18 -123q-22 -40 -62 -70z" />
<glyph unicode="&#xcc;" horiz-adv-x="598" d="M32 16zM301 1392q97 -28 190 -73l15 -220l-30 -132l30 -58l-30 -395l30 -88l-15 -103v-29h15l-15 -15l29 -161l-29 -44q-79 -53 -190 -58q-96 18 -190 73l-16 132l16 102l-30 44q25 52 30 118l14 205l-14 190l14 43l-30 367l16 44zM301 1231l29 -44l14 44h-43zM315 1173 l15 -44v44h-15zM271 1114q12 -27 44 -29q-12 21 -44 29zM315 528v30h-14zM242 499q21 -29 59 -29zM257 294l-15 -73l44 -15l15 73zM32 1785q67 61 131.5 66.5t99.5 -30.5l6 -24l13 -32l82 -152q27 -57 37 -128l-68 -73l-33 -13l-22 9q-58 44 -117 103l-102 117l-5 24 q-28 48 -22 133z" />
<glyph unicode="&#xcd;" horiz-adv-x="598" d="M81 16zM301 1392q97 -28 190 -73l15 -220l-30 -132l30 -58l-30 -395l30 -88l-15 -103v-29h15l-15 -15l29 -161l-29 -44q-79 -53 -190 -58q-96 18 -190 73l-16 132l16 102l-30 44q25 52 30 118l14 205l-14 190l14 43l-30 367l16 44zM301 1231l29 -44l14 44h-43zM315 1173 l15 -44v44h-15zM271 1114q12 -27 44 -29q-12 21 -44 29zM315 528v30h-14zM242 499q21 -29 59 -29zM257 294l-15 -73l44 -15l15 73zM585 1637l-35 -47q-59 -59 -117 -103l-136 -86l-33 13l-68 73q10 71 37 128l116 144l13 32l6 24q35 36 82.5 34.5t156.5 -79.5 q6 -85 -22 -133z" />
<glyph unicode="&#xce;" horiz-adv-x="598" d="M35 16zM301 1392q97 -28 190 -73l15 -220l-30 -132l30 -58l-30 -395l30 -88l-15 -103v-29h15l-15 -15l29 -161l-29 -44q-79 -53 -190 -58q-96 18 -190 73l-16 132l16 102l-30 44q25 52 30 118l14 205l-14 190l14 43l-30 367l16 44zM301 1231l29 -44l14 44h-43zM315 1173 l15 -44v44h-15zM271 1114q12 -27 44 -29q-12 21 -44 29zM315 528v30h-14zM242 499q21 -29 59 -29zM257 294l-15 -73l44 -15l15 73zM300 1616l-44 -140q-38 -50 -95 -92l-97 25l-27 22l-2 24q11 73 35 152l55 145l19 16q29 47 80 87l57 -6q82 -2 128 9l41 -54l1 -34l35 -48 l66 -140l-3 -143l-105 -65l-33 23l-83 122q-11 45 -28 97z" />
<glyph unicode="&#xcf;" horiz-adv-x="598" d="M0 16zM301 1392q97 -28 190 -73l15 -220l-30 -132l30 -58l-30 -395l30 -88l-15 -103v-29h15l-15 -15l29 -161l-29 -44q-79 -53 -190 -58q-96 18 -190 73l-16 132l16 102l-30 44q25 52 30 118l14 205l-14 190l14 43l-30 367l16 44zM301 1231l29 -44l14 44h-43zM315 1173 l15 -44v44h-15zM271 1114q12 -27 44 -29q-12 21 -44 29zM315 528v30h-14zM242 499q21 -29 59 -29zM257 294l-15 -73l44 -15l15 73zM140 1724q54 -14 97 -52l9 -26l-9 -62v-27q-2 -49 -17 -113l-115 -9q-48 10 -87 44l-27 114q20 43 62 79zM446 1424q-46 16 -87 53l-18 123 q12 49 35 105l114 18q49 -16 88 -53l18 -123q-22 -40 -62 -70z" />
<glyph unicode="&#xd0;" horiz-adv-x="1479" />
<glyph unicode="&#xd1;" horiz-adv-x="1347" d="M74 17zM234 1386l277 -29l320 -568l58 -161v88l-44 466l15 44q4 121 131 145l160 15l58 -29q41 -115 44 -262l-14 -160l14 -44v-29h15l-15 -15l-29 -204v-44h15l-15 -44l29 -101l-14 -44l14 -276l-29 -44l-219 -73q-108 26 -203 102q-52 96 -87 218q-60 76 -117 175 l-102 204l58 204l15 87h-88l59 -44l-73 -188l-29 -44l43 -190l30 -437l-73 -57l-247 -30q-68 73 -88 190l15 160l-15 101l15 131l-30 263l15 87l15 44q-10 114 -44 262q54 88 160 131zM307 1211q48 -84 145 -160q-17 119 -145 160zM976 1123l-14 -72l29 15l14 -15l15 58z M234 1051l44 -29q-14 20 -44 29zM380 1007v29h-15zM438 978v-43h14l44 43h-58zM1108 891q4 -20 28 -29l15 14zM976 818l29 -59q-5 34 -29 59zM278 775q20 -32 58 -44zM1020 687q32 -26 73 -29zM685 628q48 -45 117 -87l14 58l-14 29h-117zM904 628l-29 -43q21 13 29 43z M351 571v28h-15zM220 512l58 -44l14 44h-72zM889 439l-29 -58l88 44zM307 352q19 -36 58 -44zM889 352q13 -37 59 -58q-20 30 -59 58zM1064 250q-39 -12 -73 -43q49 5 73 43zM552 1622q-17 -38 -28 -71l-83 -89l-33 -17l-105 48l-3 104l66 103l1 48l1 25l41 39 q80 -21 162 -20l57 5q3 -2 5 -3l5 1q57 -31 95 -68l44 -101q17 37 28 70l83 89l33 17l105 -48l3 -104l-95 -90l-35 -35l-1 -25l-41 -39q-46 8 -128 7l-28 -18q-3 2 -5 3l-5 -1q-57 31 -95 68l-44 101v1z" />
<glyph unicode="&#xd2;" horiz-adv-x="1461" d="M91 24zM550 1373h223l97 -28q114 -26 236 -97q91 -63 167 -181l84 -237q-22 -72 -28 -152l14 -56q-18 -136 -70 -278l-167 -181q-82 -58 -209 -125l-305 -14q-115 34 -237 111q-85 63 -181 153l-83 264l14 265q11 113 69 250l167 181zM939 1164q27 -99 139 -125z M425 1150q23 -23 56 -28zM466 1053q3 -19 28 -28q-3 19 -28 28zM383 1025q6 -31 28 -55l28 55h-56zM675 1025l-181 -139l-28 -180q7 -101 70 -209q84 -79 209 -98q98 35 167 126q30 95 41 236q-8 90 -69 181q-95 52 -209 83zM230 956q6 -27 28 -42l14 42h-42zM285 845 l-27 -70l42 -28l28 14q-8 48 -43 84zM1148 817q4 -19 28 -28l13 13zM1093 775q4 -18 27 -28q-3 19 -27 28zM1134 636l-69 -56q16 -53 55 -111l-14 111l83 56h-55zM272 622l-14 -42l27 14v28h-13zM397 510v28h-14zM1037 497q3 -19 28 -28q-5 14 -28 28zM313 455l-13 -56 l41 42zM620 260l-28 -69l41 -14l28 28zM814 260q-33 -26 -56 -69v-42l43 14l55 28q-5 43 -42 69zM465 1781q67 61 131.5 66.5t99.5 -30.5l6 -24l13 -32l82 -152q27 -57 37 -128l-68 -73l-33 -13l-22 9q-58 44 -117 103l-102 117l-5 24q-28 48 -22 133z" />
<glyph unicode="&#xd3;" horiz-adv-x="1461" d="M91 24zM550 1373h223l97 -28q114 -26 236 -97q91 -63 167 -181l84 -237q-22 -72 -28 -152l14 -56q-18 -136 -70 -278l-167 -181q-82 -58 -209 -125l-305 -14q-115 34 -237 111q-85 63 -181 153l-83 264l14 265q11 113 69 250l167 181zM939 1164q27 -99 139 -125z M425 1150q23 -23 56 -28zM466 1053q3 -19 28 -28q-3 19 -28 28zM383 1025q6 -31 28 -55l28 55h-56zM675 1025l-181 -139l-28 -180q7 -101 70 -209q84 -79 209 -98q98 35 167 126q30 95 41 236q-8 90 -69 181q-95 52 -209 83zM230 956q6 -27 28 -42l14 42h-42zM285 845 l-27 -70l42 -28l28 14q-8 48 -43 84zM1148 817q4 -19 28 -28l13 13zM1093 775q4 -18 27 -28q-3 19 -27 28zM1134 636l-69 -56q16 -53 55 -111l-14 111l83 56h-55zM272 622l-14 -42l27 14v28h-13zM397 510v28h-14zM1037 497q3 -19 28 -28q-5 14 -28 28zM313 455l-13 -56 l41 42zM620 260l-28 -69l41 -14l28 28zM814 260q-33 -26 -56 -69v-42l43 14l55 28q-5 43 -42 69zM1001 1637l-35 -47q-59 -59 -117 -103l-136 -86l-33 13l-68 73q10 71 37 128l116 144l13 32l6 24q35 36 82.5 34.5t156.5 -79.5q6 -85 -22 -133z" />
<glyph unicode="&#xd4;" horiz-adv-x="1461" d="M91 24zM550 1373h223l97 -28q114 -26 236 -97q91 -63 167 -181l84 -237q-22 -72 -28 -152l14 -56q-18 -136 -70 -278l-167 -181q-82 -58 -209 -125l-305 -14q-115 34 -237 111q-85 63 -181 153l-83 264l14 265q11 113 69 250l167 181zM939 1164q27 -99 139 -125z M425 1150q23 -23 56 -28zM466 1053q3 -19 28 -28q-3 19 -28 28zM383 1025q6 -31 28 -55l28 55h-56zM675 1025l-181 -139l-28 -180q7 -101 70 -209q84 -79 209 -98q98 35 167 126q30 95 41 236q-8 90 -69 181q-95 52 -209 83zM230 956q6 -27 28 -42l14 42h-42zM285 845 l-27 -70l42 -28l28 14q-8 48 -43 84zM1148 817q4 -19 28 -28l13 13zM1093 775q4 -18 27 -28q-3 19 -27 28zM1134 636l-69 -56q16 -53 55 -111l-14 111l83 56h-55zM272 622l-14 -42l27 14v28h-13zM397 510v28h-14zM1037 497q3 -19 28 -28q-5 14 -28 28zM313 455l-13 -56 l41 42zM620 260l-28 -69l41 -14l28 28zM814 260q-33 -26 -56 -69v-42l43 14l55 28q-5 43 -42 69zM700 1616l-44 -140q-38 -50 -95 -92l-97 25l-27 22l-2 24q11 73 35 152l55 145l19 16q29 47 80 87l57 -6q82 -2 128 9l41 -54l1 -34l35 -48l66 -140l-3 -143l-105 -65l-33 23 l-83 122q-11 45 -28 97z" />
<glyph unicode="&#xd5;" horiz-adv-x="1461" d="M91 24zM550 1373h223l97 -28q114 -26 236 -97q91 -63 167 -181l84 -237q-22 -72 -28 -152l14 -56q-18 -136 -70 -278l-167 -181q-82 -58 -209 -125l-305 -14q-115 34 -237 111q-85 63 -181 153l-83 264l14 265q11 113 69 250l167 181zM939 1164q27 -99 139 -125z M425 1150q23 -23 56 -28zM466 1053q3 -19 28 -28q-3 19 -28 28zM383 1025q6 -31 28 -55l28 55h-56zM675 1025l-181 -139l-28 -180q7 -101 70 -209q84 -79 209 -98q98 35 167 126q30 95 41 236q-8 90 -69 181q-95 52 -209 83zM230 956q6 -27 28 -42l14 42h-42zM285 845 l-27 -70l42 -28l28 14q-8 48 -43 84zM1148 817q4 -19 28 -28l13 13zM1093 775q4 -18 27 -28q-3 19 -27 28zM1134 636l-69 -56q16 -53 55 -111l-14 111l83 56h-55zM272 622l-14 -42l27 14v28h-13zM397 510v28h-14zM1037 497q3 -19 28 -28q-5 14 -28 28zM313 455l-13 -56 l41 42zM620 260l-28 -69l41 -14l28 28zM814 260q-33 -26 -56 -69v-42l43 14l55 28q-5 43 -42 69zM600 1627q-17 -38 -28 -71l-83 -89l-33 -17l-105 48l-3 104l66 103l1 48l1 25l41 39q80 -21 162 -20l57 5q3 -2 5 -3l5 1q57 -31 95 -68l44 -101q17 37 28 70l83 89l33 17 l105 -48l3 -104l-95 -90l-35 -35l-1 -25l-41 -39q-46 8 -128 7l-28 -18q-3 2 -5 3l-5 -1q-57 31 -95 68l-44 101v1z" />
<glyph unicode="&#xd6;" horiz-adv-x="1461" d="M91 24zM550 1373h223l97 -28q114 -26 236 -97q91 -63 167 -181l84 -237q-22 -72 -28 -152l14 -56q-18 -136 -70 -278l-167 -181q-82 -58 -209 -125l-305 -14q-115 34 -237 111q-85 63 -181 153l-83 264l14 265q11 113 69 250l167 181zM939 1164q27 -99 139 -125z M425 1150q23 -23 56 -28zM466 1053q3 -19 28 -28q-3 19 -28 28zM383 1025q6 -31 28 -55l28 55h-56zM675 1025l-181 -139l-28 -180q7 -101 70 -209q84 -79 209 -98q98 35 167 126q30 95 41 236q-8 90 -69 181q-95 52 -209 83zM230 956q6 -27 28 -42l14 42h-42zM285 845 l-27 -70l42 -28l28 14q-8 48 -43 84zM1148 817q4 -19 28 -28l13 13zM1093 775q4 -18 27 -28q-3 19 -27 28zM1134 636l-69 -56q16 -53 55 -111l-14 111l83 56h-55zM272 622l-14 -42l27 14v28h-13zM397 510v28h-14zM1037 497q3 -19 28 -28q-5 14 -28 28zM313 455l-13 -56 l41 42zM620 260l-28 -69l41 -14l28 28zM814 260q-33 -26 -56 -69v-42l43 14l55 28q-5 43 -42 69zM544 1759q54 -14 97 -52l9 -26l-9 -62v-27q-2 -49 -17 -113l-115 -9q-48 10 -87 44l-27 114q20 43 62 79zM850 1459q-46 16 -87 53l-18 123q12 49 35 105l114 18 q49 -16 88 -53l18 -123q-22 -40 -62 -70z" />
<glyph unicode="&#xd7;" horiz-adv-x="1196" />
<glyph unicode="&#xd8;" horiz-adv-x="1593" />
<glyph unicode="&#xd9;" horiz-adv-x="1305" d="M98 19zM242 1389q92 -12 202 -43l72 -57l-28 -520l14 -231q14 -69 58 -144l144 -29l44 15q49 63 72 158l-15 217l15 158l-15 58l15 187l-29 102l14 29l29 43l173 57q94 -9 202 -43l15 -57l-15 -160l-43 -43q21 -49 29 -115l-15 -216l29 -145l-14 -57q-3 -101 -29 -216 q-35 -69 -86 -131l-131 -115l-187 -57l-72 15l-58 -30l-44 15l-201 28l-131 115q-60 56 -115 131l-43 360v245l14 159q-14 102 -14 231zM1021 1101q5 -19 30 -29q-5 14 -30 29zM964 1057l14 -43v43h-14zM271 1014l-29 -86l44 -29l29 72zM1007 784l-29 -145q19 3 29 29l58 29 zM315 668l-29 -58l43 -14v57zM978 625l14 -44v44h-14zM344 495q-4 19 -29 29q5 -15 29 -29zM358 409q4 -20 29 -29q-5 14 -29 29zM401 351l15 -43v43h-15zM545 221q5 -19 29 -29q-3 19 -29 29zM396 1775q67 61 131.5 66.5t99.5 -30.5l6 -24l13 -32l82 -152q27 -57 37 -128 l-68 -73l-33 -13l-22 9q-58 44 -117 103l-102 117l-5 24q-28 48 -22 133z" />
<glyph unicode="&#xda;" horiz-adv-x="1305" d="M98 19zM242 1389q92 -12 202 -43l72 -57l-28 -520l14 -231q14 -69 58 -144l144 -29l44 15q49 63 72 158l-15 217l15 158l-15 58l15 187l-29 102l14 29l29 43l173 57q94 -9 202 -43l15 -57l-15 -160l-43 -43q21 -49 29 -115l-15 -216l29 -145l-14 -57q-3 -101 -29 -216 q-35 -69 -86 -131l-131 -115l-187 -57l-72 15l-58 -30l-44 15l-201 28l-131 115q-60 56 -115 131l-43 360v245l14 159q-14 102 -14 231zM1021 1101q5 -19 30 -29q-5 14 -30 29zM964 1057l14 -43v43h-14zM271 1014l-29 -86l44 -29l29 72zM1007 784l-29 -145q19 3 29 29l58 29 zM315 668l-29 -58l43 -14v57zM978 625l14 -44v44h-14zM344 495q-4 19 -29 29q5 -15 29 -29zM358 409q4 -20 29 -29q-5 14 -29 29zM401 351l15 -43v43h-15zM545 221q5 -19 29 -29q-3 19 -29 29zM939 1633l-35 -47q-59 -59 -117 -103l-136 -86l-33 13l-68 73q10 71 37 128 l116 144l13 32l6 24q35 36 82.5 34.5t156.5 -79.5q6 -85 -22 -133z" />
<glyph unicode="&#xdb;" horiz-adv-x="1305" d="M98 19zM242 1389q92 -12 202 -43l72 -57l-28 -520l14 -231q14 -69 58 -144l144 -29l44 15q49 63 72 158l-15 217l15 158l-15 58l15 187l-29 102l14 29l29 43l173 57q94 -9 202 -43l15 -57l-15 -160l-43 -43q21 -49 29 -115l-15 -216l29 -145l-14 -57q-3 -101 -29 -216 q-35 -69 -86 -131l-131 -115l-187 -57l-72 15l-58 -30l-44 15l-201 28l-131 115q-60 56 -115 131l-43 360v245l14 159q-14 102 -14 231zM1021 1101q5 -19 30 -29q-5 14 -30 29zM964 1057l14 -43v43h-14zM271 1014l-29 -86l44 -29l29 72zM1007 784l-29 -145q19 3 29 29l58 29 zM315 668l-29 -58l43 -14v57zM978 625l14 -44v44h-14zM344 495q-4 19 -29 29q5 -15 29 -29zM358 409q4 -20 29 -29q-5 14 -29 29zM401 351l15 -43v43h-15zM545 221q5 -19 29 -29q-3 19 -29 29zM655 1611l-44 -140q-38 -50 -95 -92l-97 25l-27 22l-2 24q11 73 35 152l55 145 l19 16q29 47 80 87l57 -6q82 -2 128 9l41 -54l1 -34l35 -48l66 -140l-3 -143l-105 -65l-33 23l-83 122q-11 45 -28 97z" />
<glyph unicode="&#xdc;" horiz-adv-x="1305" d="M98 19zM242 1389q92 -12 202 -43l72 -57l-28 -520l14 -231q14 -69 58 -144l144 -29l44 15q49 63 72 158l-15 217l15 158l-15 58l15 187l-29 102l14 29l29 43l173 57q94 -9 202 -43l15 -57l-15 -160l-43 -43q21 -49 29 -115l-15 -216l29 -145l-14 -57q-3 -101 -29 -216 q-35 -69 -86 -131l-131 -115l-187 -57l-72 15l-58 -30l-44 15l-201 28l-131 115q-60 56 -115 131l-43 360v245l14 159q-14 102 -14 231zM1021 1101q5 -19 30 -29q-5 14 -30 29zM964 1057l14 -43v43h-14zM271 1014l-29 -86l44 -29l29 72zM1007 784l-29 -145q19 3 29 29l58 29 zM315 668l-29 -58l43 -14v57zM978 625l14 -44v44h-14zM344 495q-4 19 -29 29q5 -15 29 -29zM358 409q4 -20 29 -29q-5 14 -29 29zM401 351l15 -43v43h-15zM545 221q5 -19 29 -29q-3 19 -29 29zM489 1760q54 -14 97 -52l9 -26l-9 -62v-27q-2 -49 -17 -113l-115 -9 q-48 10 -87 44l-27 114q20 43 62 79zM795 1460q-46 16 -87 53l-18 123q12 49 35 105l114 18q49 -16 88 -53l18 -123q-22 -40 -62 -70z" />
<glyph unicode="&#xdd;" horiz-adv-x="1366" />
<glyph unicode="&#xde;" horiz-adv-x="1366" />
<glyph unicode="&#xdf;" horiz-adv-x="1273" d="M329 376q-39 56 -102 103q42 -57 102 -103zM384 83l44 73l-73 -29q5 -29 29 -44zM1025 880q-14 48 -82 73q14 -48 82 -73zM1061 987q-5 66 -85 119q3 -64 85 -119zM920 133q79 6 103 73l-103 15l-15 -74zM447 1123q-19 52 -59 88q17 -56 59 -88zM902 1249l15 -43v43h-15z M592 1315l-62 -128l29 -42l58 57q-4 19 -25 113zM913 719l-29 -72q26 33 29 72zM970 547q9 -101 86 -172q0 102 -86 172zM593 1047q-102 -55 -113 -227l25 -312l-14 -88l29 -190l-15 -44q-6 -88 -73 -176l-219 14q-87 53 -118 162l14 234l-14 205l14 44l-14 147l30 58l1 145 q43 328 403 374l49 -5l-2 7l240 -17l43 -18l186 -87l74 -120l28 -57l-28 -143l-49 -219l87 -158q50 -57 38 -136l19 -73l-29 -57q4 -79 -53 -151q-70 -52 -158 -100l-301 -58l-80 25q-15 294 60 309q69 4 135 26l67 42q-42 75 -114 130q-104 14 -172 100q3 132 54 199 q70 48 161 38l19 97l-49 100z" />
<glyph unicode="&#xe0;" horiz-adv-x="1130" d="M0 8zM477 1373l172 -29q61 -13 129 -43q39 -47 72 -115l29 -144l302 -790q34 -58 43 -129l-115 -72l-158 -29q-60 19 -115 58q-35 69 -58 158l-129 -15l-172 15q-53 -23 -86 -86l-72 -115l-158 -29l-158 14l-72 101q38 118 115 244l15 144l100 273l57 114q13 72 43 144 q21 60 58 130q36 117 158 201zM491 1229l43 -28q-12 21 -43 28zM462 1143l-14 -86l29 -15l57 29q-25 42 -72 72zM693 1100l14 -86l29 86l-29 29zM433 1028q-43 -83 -71 -186l43 -15l57 158zM621 1028q6 -36 43 -58q-13 33 -43 58zM721 999l-28 -72q26 33 28 72zM577 927 q-20 -109 -72 -244l-28 -115q56 -22 129 -29l72 15l-43 172q-20 99 -58 201zM333 770h29l-14 28zM276 712q14 -67 72 -115q-22 61 -72 115zM821 669q16 -67 87 -115zM778 482q-37 -31 -57 -86h57l58 -86q25 37 29 86q-34 41 -87 86zM405 439l14 -43l14 43h-28zM937 425 l-29 -58h43zM965 367q-12 -58 -43 -115l72 -29l15 115zM175 266v-100l14 72v28h-14zM379 1779q67 61 131.5 66.5t99.5 -30.5l6 -24l13 -32l82 -152q27 -57 37 -128l-68 -73l-33 -13l-22 9q-58 44 -117 103l-102 117l-5 24q-28 48 -22 133z" />
<glyph unicode="&#xe1;" horiz-adv-x="1130" d="M0 8zM474 1373l172 -29q61 -13 129 -43q39 -47 72 -115l29 -144l302 -790q34 -58 43 -129l-115 -72l-158 -29q-60 19 -115 58q-35 69 -58 158l-129 -15l-172 15q-53 -23 -86 -86l-72 -115l-158 -29l-158 14l-72 101q38 118 115 244l15 144l100 273l57 114q13 72 43 144 q21 60 58 130q36 117 158 201zM488 1229l43 -28q-12 21 -43 28zM459 1143l-14 -86l29 -15l57 29q-25 42 -72 72zM690 1100l14 -86l29 86l-29 29zM430 1028q-43 -83 -71 -186l43 -15l57 158zM618 1028q6 -36 43 -58q-13 33 -43 58zM718 999l-28 -72q26 33 28 72zM574 927 q-20 -109 -72 -244l-28 -115q56 -22 129 -29l72 15l-43 172q-20 99 -58 201zM330 770h29l-14 28zM273 712q14 -67 72 -115q-22 61 -72 115zM818 669q16 -67 87 -115zM775 482q-37 -31 -57 -86h57l58 -86q25 37 29 86q-34 41 -87 86zM402 439l14 -43l14 43h-28zM934 425 l-29 -58h43zM962 367q-12 -58 -43 -115l72 -29l15 115zM172 266v-100l14 72v28h-14zM842 1634l-35 -47q-59 -59 -117 -103l-136 -86l-33 13l-68 73q10 71 37 128l116 144l13 32l6 24q35 36 82.5 34.5t156.5 -79.5q6 -85 -22 -133z" />
<glyph unicode="&#xe2;" horiz-adv-x="1130" d="M0 8zM474 1373l172 -29q61 -13 129 -43q39 -47 72 -115l29 -144l302 -790q34 -58 43 -129l-115 -72l-158 -29q-60 19 -115 58q-35 69 -58 158l-129 -15l-172 15q-53 -23 -86 -86l-72 -115l-158 -29l-158 14l-72 101q38 118 115 244l15 144l100 273l57 114q13 72 43 144 q21 60 58 130q36 117 158 201zM488 1229l43 -28q-12 21 -43 28zM459 1143l-14 -86l29 -15l57 29q-25 42 -72 72zM690 1100l14 -86l29 86l-29 29zM430 1028q-43 -83 -71 -186l43 -15l57 158zM618 1028q6 -36 43 -58q-13 33 -43 58zM718 999l-28 -72q26 33 28 72zM574 927 q-20 -109 -72 -244l-28 -115q56 -22 129 -29l72 15l-43 172q-20 99 -58 201zM330 770h29l-14 28zM273 712q14 -67 72 -115q-22 61 -72 115zM818 669q16 -67 87 -115zM775 482q-37 -31 -57 -86h57l58 -86q25 37 29 86q-34 41 -87 86zM402 439l14 -43l14 43h-28zM934 425 l-29 -58h43zM962 367q-12 -58 -43 -115l72 -29l15 115zM172 266v-100l14 72v28h-14zM588 1612l-44 -140q-38 -50 -95 -92l-97 25l-27 22l-2 24q11 73 35 152l55 145l19 16q29 47 80 87l57 -6q82 -2 128 9l41 -54l1 -34l35 -48l66 -140l-3 -143l-105 -65l-33 23l-83 122 q-11 45 -28 97z" />
<glyph unicode="&#xe3;" horiz-adv-x="1130" d="M0 8zM474 1373l172 -29q61 -13 129 -43q39 -47 72 -115l29 -144l302 -790q34 -58 43 -129l-115 -72l-158 -29q-60 19 -115 58q-35 69 -58 158l-129 -15l-172 15q-53 -23 -86 -86l-72 -115l-158 -29l-158 14l-72 101q38 118 115 244l15 144l100 273l57 114q13 72 43 144 q21 60 58 130q36 117 158 201zM488 1229l43 -28q-12 21 -43 28zM459 1143l-14 -86l29 -15l57 29q-25 42 -72 72zM690 1100l14 -86l29 86l-29 29zM430 1028q-43 -83 -71 -186l43 -15l57 158zM618 1028q6 -36 43 -58q-13 33 -43 58zM718 999l-28 -72q26 33 28 72zM574 927 q-20 -109 -72 -244l-28 -115q56 -22 129 -29l72 15l-43 172q-20 99 -58 201zM330 770h29l-14 28zM273 712q14 -67 72 -115q-22 61 -72 115zM818 669q16 -67 87 -115zM775 482q-37 -31 -57 -86h57l58 -86q25 37 29 86q-34 41 -87 86zM402 439l14 -43l14 43h-28zM934 425 l-29 -58h43zM962 367q-12 -58 -43 -115l72 -29l15 115zM172 266v-100l14 72v28h-14zM451 1622q-17 -38 -28 -71l-83 -89l-33 -17l-105 48l-3 104l66 103l1 48l1 25l41 39q80 -21 162 -20l57 5q3 -2 5 -3l5 1q57 -31 95 -68l44 -101q17 37 28 70l83 89l33 17l105 -48l3 -104 l-95 -90l-35 -35l-1 -25l-41 -39q-46 8 -128 7l-28 -18q-3 2 -5 3l-5 -1q-57 31 -95 68l-44 101v1z" />
<glyph unicode="&#xe4;" horiz-adv-x="1130" d="M0 8zM474 1373l172 -29q61 -13 129 -43q39 -47 72 -115l29 -144l302 -790q34 -58 43 -129l-115 -72l-158 -29q-60 19 -115 58q-35 69 -58 158l-129 -15l-172 15q-53 -23 -86 -86l-72 -115l-158 -29l-158 14l-72 101q38 118 115 244l15 144l100 273l57 114q13 72 43 144 q21 60 58 130q36 117 158 201zM488 1229l43 -28q-12 21 -43 28zM459 1143l-14 -86l29 -15l57 29q-25 42 -72 72zM690 1100l14 -86l29 86l-29 29zM430 1028q-43 -83 -71 -186l43 -15l57 158zM618 1028q6 -36 43 -58q-13 33 -43 58zM718 999l-28 -72q26 33 28 72zM574 927 q-20 -109 -72 -244l-28 -115q56 -22 129 -29l72 15l-43 172q-20 99 -58 201zM330 770h29l-14 28zM273 712q14 -67 72 -115q-22 61 -72 115zM818 669q16 -67 87 -115zM775 482q-37 -31 -57 -86h57l58 -86q25 37 29 86q-34 41 -87 86zM402 439l14 -43l14 43h-28zM934 425 l-29 -58h43zM962 367q-12 -58 -43 -115l72 -29l15 115zM172 266v-100l14 72v28h-14zM440 1725q54 -14 97 -52l9 -26l-9 -62v-27q-2 -49 -17 -113l-115 -9q-48 10 -87 44l-27 114q20 43 62 79zM746 1425q-46 16 -87 53l-18 123q12 49 35 105l114 18q49 -16 88 -53l18 -123 q-22 -40 -62 -70z" />
<glyph unicode="&#xe5;" />
<glyph unicode="&#xe6;" horiz-adv-x="1821" />
<glyph unicode="&#xe7;" horiz-adv-x="1301" d="M91 0zM657 1374l198 -28l156 -71l127 -113l85 -141l-99 -128q-77 -34 -170 -57q-57 47 -113 113q-74 32 -170 57l-142 -85q-35 -73 -56 -170q2 -91 28 -198q24 -68 71 -141q73 -37 156 -43q73 27 156 71q37 61 113 113l141 -85q52 -54 71 -142l-99 -127 q-56 -48 -113 -114q-75 -32 -170 -56l-213 -14l-183 42q-69 40 -142 100l-113 113l-71 155l-14 184l14 57l-14 142l42 184l72 156l268 184zM770 1218l-184 -56l57 -29l170 43zM374 1133l-29 -127h43v15l43 112h-57zM897 1133l-13 -70l70 14l28 56h-85zM402 949v28h-14z M360 893q-36 -24 -57 -71q39 24 57 71zM247 751q13 -59 56 -113q-6 60 -56 113zM303 581v28h-14zM374 383q29 -121 155 -127zM1011 341l14 -43l14 43h-28zM629 227l-15 -85l29 57v28h-14zM756 227q11 -30 42 -42q-12 28 -42 42zM534 -340l-50 103q-8 27 -11 54l45 40l50 7 l44 -31q29 -54 73 -70l27 31l-22 63q-30 48 -61 86l-45 109l23 56h11l11 7l5 -7h23q50 -5 78 -48l61 -86q30 -48 50 -102l11 -15l11 -87l-5 -31q-30 -51 -61 -87q-45 -42 -90 -55l-105 -8z" />
<glyph unicode="&#xe8;" horiz-adv-x="1216" d="M86 3zM188 1382l232 -29l232 15l188 -15l146 29l43 -29q31 -94 43 -203q-14 -80 -101 -131l-450 14l-57 -43l43 -116l217 29l59 -14l159 14q83 -20 116 -116q-8 -98 -58 -203l-203 -15l-232 15q-77 -24 -117 -116q64 -59 160 -87q100 26 232 28h146l29 15l14 -15h43 q58 -58 59 -159v-131l-59 -72l-492 14l-44 -28l-131 14q-72 -9 -145 -44q-80 37 -160 102v508l-14 58l29 145l-29 145l29 44l-15 116l15 29v87q20 73 73 145zM275 1121v29h-15zM246 1063q6 -29 29 -44zM231 874l15 -73l14 -28l15 101q-3 19 -29 29zM362 773q6 -29 29 -44z M464 744l-44 -59l87 15zM231 613q14 -49 58 -88q-13 53 -58 88zM246 424l43 -29q-12 21 -43 29zM318 352q2 -103 102 -146q-27 83 -102 146zM667 293l-15 -72l44 14q-2 31 -29 58zM396 1784q67 61 131.5 66.5t99.5 -30.5l6 -24l13 -32l82 -152q27 -57 37 -128l-68 -73 l-33 -13l-22 9q-58 44 -117 103l-102 117l-5 24q-28 48 -22 133z" />
<glyph unicode="&#xe9;" horiz-adv-x="1216" d="M86 3zM188 1382l232 -29l232 15l188 -15l146 29l43 -29q31 -94 43 -203q-14 -80 -101 -131l-450 14l-57 -43l43 -116l217 29l59 -14l159 14q83 -20 116 -116q-8 -98 -58 -203l-203 -15l-232 15q-77 -24 -117 -116q64 -59 160 -87q100 26 232 28h146l29 15l14 -15h43 q58 -58 59 -159v-131l-59 -72l-492 14l-44 -28l-131 14q-72 -9 -145 -44q-80 37 -160 102v508l-14 58l29 145l-29 145l29 44l-15 116l15 29v87q20 73 73 145zM275 1121v29h-15zM246 1063q6 -29 29 -44zM231 874l15 -73l14 -28l15 101q-3 19 -29 29zM362 773q6 -29 29 -44z M464 744l-44 -59l87 15zM231 613q14 -49 58 -88q-13 53 -58 88zM246 424l43 -29q-12 21 -43 29zM318 352q2 -103 102 -146q-27 83 -102 146zM667 293l-15 -72l44 14q-2 31 -29 58zM851 1630l-35 -47q-59 -59 -117 -103l-136 -86l-33 13l-68 73q10 71 37 128l116 144l13 32 l6 24q35 36 82.5 34.5t156.5 -79.5q6 -85 -22 -133z" />
<glyph unicode="&#xea;" horiz-adv-x="1216" d="M86 3zM188 1382l232 -29l232 15l188 -15l146 29l43 -29q31 -94 43 -203q-14 -80 -101 -131l-450 14l-57 -43l43 -116l217 29l59 -14l159 14q83 -20 116 -116q-8 -98 -58 -203l-203 -15l-232 15q-77 -24 -117 -116q64 -59 160 -87q100 26 232 28h146l29 15l14 -15h43 q58 -58 59 -159v-131l-59 -72l-492 14l-44 -28l-131 14q-72 -9 -145 -44q-80 37 -160 102v508l-14 58l29 145l-29 145l29 44l-15 116l15 29v87q20 73 73 145zM275 1121v29h-15zM246 1063q6 -29 29 -44zM231 874l15 -73l14 -28l15 101q-3 19 -29 29zM362 773q6 -29 29 -44z M464 744l-44 -59l87 15zM231 613q14 -49 58 -88q-13 53 -58 88zM246 424l43 -29q-12 21 -43 29zM318 352q2 -103 102 -146q-27 83 -102 146zM667 293l-15 -72l44 14q-2 31 -29 58zM605 1620l-44 -140q-38 -50 -95 -92l-97 25l-27 22l-2 24q11 73 35 152l55 145l19 16 q29 47 80 87l57 -6q82 -2 128 9l41 -54l1 -34l35 -48l66 -140l-3 -143l-105 -65l-33 23l-83 122q-11 45 -28 97z" />
<glyph unicode="&#xeb;" horiz-adv-x="1216" d="M86 3zM188 1382l232 -29l232 15l188 -15l146 29l43 -29q31 -94 43 -203q-14 -80 -101 -131l-450 14l-57 -43l43 -116l217 29l59 -14l159 14q83 -20 116 -116q-8 -98 -58 -203l-203 -15l-232 15q-77 -24 -117 -116q64 -59 160 -87q100 26 232 28h146l29 15l14 -15h43 q58 -58 59 -159v-131l-59 -72l-492 14l-44 -28l-131 14q-72 -9 -145 -44q-80 37 -160 102v508l-14 58l29 145l-29 145l29 44l-15 116l15 29v87q20 73 73 145zM275 1121v29h-15zM246 1063q6 -29 29 -44zM231 874l15 -73l14 -28l15 101q-3 19 -29 29zM362 773q6 -29 29 -44z M464 744l-44 -59l87 15zM231 613q14 -49 58 -88q-13 53 -58 88zM246 424l43 -29q-12 21 -43 29zM318 352q2 -103 102 -146q-27 83 -102 146zM667 293l-15 -72l44 14q-2 31 -29 58zM435 1734q54 -14 97 -52l9 -26l-9 -62v-27q-2 -49 -17 -113l-115 -9q-48 10 -87 44l-27 114 q20 43 62 79zM741 1434q-46 16 -87 53l-18 123q12 49 35 105l114 18q49 -16 88 -53l18 -123q-22 -40 -62 -70z" />
<glyph unicode="&#xec;" horiz-adv-x="577" d="M35 20zM306 1382l187 -72l-15 -201l-14 -43l29 -115l-15 -43v-186h15l-15 -14l-14 -130l14 -42v-58l15 -114l-15 -29v-43l15 -158l-15 -57q-81 -38 -186 -57q-95 24 -187 71v158h-14l14 57l15 172l-15 201l15 215q-15 101 -15 229l-14 158l29 43zM292 1210q5 -28 29 -44z M220 894q41 -41 115 -43zM292 694l14 -44v44h-14zM263 636v-100l29 71zM277 335l-14 -86l14 -29l29 -29q-1 69 -29 144zM35 1788q67 61 131.5 66.5t99.5 -30.5l6 -24l13 -32l82 -152q27 -57 37 -128l-68 -73l-33 -13l-22 9q-58 44 -117 103l-102 117l-5 24q-28 48 -22 133z " />
<glyph unicode="&#xed;" horiz-adv-x="577" d="M91 20zM306 1382l187 -72l-15 -201l-14 -43l29 -115l-15 -43v-186h15l-15 -14l-14 -130l14 -42v-58l15 -114l-15 -29v-43l15 -158l-15 -57q-81 -38 -186 -57q-95 24 -187 71v158h-14l14 57l15 172l-15 201l15 215q-15 101 -15 229l-14 158l29 43zM292 1210q5 -28 29 -44z M220 894q41 -41 115 -43zM292 694l14 -44v44h-14zM263 636v-100l29 71zM277 335l-14 -86l14 -29l29 -29q-1 69 -29 144zM567 1634l-35 -47q-59 -59 -117 -103l-136 -86l-33 13l-68 73q10 71 37 128l116 144l13 32l6 24q35 36 82.5 34.5t156.5 -79.5q6 -85 -22 -133z" />
<glyph unicode="&#xee;" horiz-adv-x="577" d="M82 20zM306 1382l187 -72l-15 -201l-14 -43l29 -115l-15 -43v-186h15l-15 -14l-14 -130l14 -42v-58l15 -114l-15 -29v-43l15 -158l-15 -57q-81 -38 -186 -57q-95 24 -187 71v158h-14l14 57l15 172l-15 201l15 215q-15 101 -15 229l-14 158l29 43zM292 1210q5 -28 29 -44z M220 894q41 -41 115 -43zM292 694l14 -44v44h-14zM263 636v-100l29 71zM277 335l-14 -86l14 -29l29 -29q-1 69 -29 144zM294.996 1612l-35.2002 -140q-30.3994 -50 -75.998 -92l-77.5996 25l-21.5996 22l-1.59961 24q8.7998 73 27.999 152l44 145l15.1992 16 q23.2002 47 63.999 87l45.5996 -6q65.5986 -2 102.398 9l32.7998 -54l0.799805 -34l27.999 -48l52.7998 -140l-2.40039 -143l-83.998 -65l-26.4004 23l-66.3984 122q-8.7998 45 -22.3994 97z" />
<glyph unicode="&#xef;" horiz-adv-x="577" d="M0 20zM306 1382l187 -72l-15 -201l-14 -43l29 -115l-15 -43v-186h15l-15 -14l-14 -130l14 -42v-58l15 -114l-15 -29v-43l15 -158l-15 -57q-81 -38 -186 -57q-95 24 -187 71v158h-14l14 57l15 172l-15 201l15 215q-15 101 -15 229l-14 158l29 43zM292 1210q5 -28 29 -44z M220 894q41 -41 115 -43zM292 694l14 -44v44h-14zM263 636v-100l29 71zM277 335l-14 -86l14 -29l29 -29q-1 69 -29 144zM137 1742q54 -14 97 -52l9 -26l-9 -62v-27q-2 -49 -17 -113l-115 -9q-48 10 -87 44l-27 114q20 43 62 79zM443 1442q-46 16 -87 53l-18 123 q12 49 35 105l114 18q49 -16 88 -53l18 -123q-22 -40 -62 -70z" />
<glyph unicode="&#xf0;" />
<glyph unicode="&#xf1;" horiz-adv-x="1334" d="M74 16zM1070 1387q111 -9 174 -115l-15 -101l15 -44l-15 -866l15 -130l-72 -72l-160 -14l-57 14q-99 16 -174 101l-274 549q-38 65 -115 115l72 -187l43 -477q-39 -93 -144 -130l-115 -14l-44 14l-58 29l-43 101q10 49 14 115l-14 275l14 116l-14 28v361q-6 103 -29 217 q65 86 188 101l245 -15l289 -534q32 -91 130 -144l-58 173l-43 390q11 43 43 87zM392 1200l-72 -43l100 -30q-4 59 -28 73zM1084 1157l-28 -87q28 32 28 87zM276 1127l-28 -101v-43l100 29zM464 1084q4 -18 28 -29q-3 19 -28 29zM435 1026q1 -29 29 -43q-5 29 -29 43z M348 998q13 -21 44 -29zM478 897v29h-14zM522 926q22 -62 72 -116q-16 62 -72 116zM1027 911l14 -43v43h-14zM1070 838l14 -57l16 57h-30zM969 622l-43 -87l43 -29l29 88q-3 19 -29 28zM291 521l-15 -72l29 -15l15 72zM781 492l30 -14l14 43h-29zM1027 463l-15 -129l-28 -88 q1 -20 28 -28q28 54 29 130l29 86zM883 449l-58 -58q44 -28 87 -72zM305 348l-43 -73l43 -29l43 29q-12 39 -43 73zM577 1619q-17 -38 -28 -71l-83 -89l-33 -17l-105 48l-3 104l66 103l1 48l1 25l41 39q80 -21 162 -20l57 5q3 -2 5 -3l5 1q57 -31 95 -68l44 -101 q17 37 28 70l83 89l33 17l105 -48l3 -104l-95 -90l-35 -35l-1 -25l-41 -39q-46 8 -128 7l-28 -18q-3 2 -5 3l-5 -1q-57 31 -95 68l-44 101v1z" />
<glyph unicode="&#xf2;" horiz-adv-x="1419" d="M69 15zM568 1374q139 -7 306 -41q113 -28 235 -97l166 -167q20 -123 70 -264l-28 -291q-19 -113 -110 -221q-52 -92 -153 -181q-102 -51 -236 -97l-305 14q-102 44 -208 124q-78 68 -153 181q-45 105 -69 235l-14 140l28 138q30 113 97 236q66 79 166 166q81 66 208 125z M665 1277l-14 -41h28v41h-14zM846 1166v28h-14zM540 1180q29 -51 83 -97q-4 73 -83 97zM1040 1138l14 -41v41h-14zM402 1125l13 -70l15 28zM1012 1083l-28 -42h42v42h-14zM415 1028l-13 -56l41 28q-4 13 -28 28zM957 1028q10 -27 42 -28zM679 1013q-85 -47 -166 -124 l-70 -208l84 -208q80 -52 194 -84q87 40 180 97l42 181l-14 42q-16 107 -55 221q-87 48 -195 83zM319 972l-14 -42l27 15v27h-13zM1095 917l-55 -84q11 -29 42 -41q30 31 55 83zM277 820l14 -56q-14 -5 -28 -27q2 -20 28 -28l14 83q-3 18 -28 28zM222 667q14 -51 69 -70 q-20 46 -69 70zM1151 653q4 -18 28 -28q-4 19 -28 28zM1165 528q14 -23 42 -27zM360 486q-19 -27 -55 -55l27 -42l70 56q-12 28 -42 41zM1054 403q-59 -49 -83 -125q75 42 83 125zM776 306l56 -69q-12 47 -56 69zM540 293l-55 -70l97 -28q-6 51 -42 98zM846 251 q5 -27 28 -42zM468 1784q67 61 131.5 66.5t99.5 -30.5l6 -24l13 -32l82 -152q27 -57 37 -128l-68 -73l-33 -13l-22 9q-58 44 -117 103l-102 117l-5 24q-28 48 -22 133z" />
<glyph unicode="&#xf3;" horiz-adv-x="1419" d="M69 15zM568 1374q139 -7 306 -41q113 -28 235 -97l166 -167q20 -123 70 -264l-28 -291q-19 -113 -110 -221q-52 -92 -153 -181q-102 -51 -236 -97l-305 14q-102 44 -208 124q-78 68 -153 181q-45 105 -69 235l-14 140l28 138q30 113 97 236q66 79 166 166q81 66 208 125z M665 1277l-14 -41h28v41h-14zM846 1166v28h-14zM540 1180q29 -51 83 -97q-4 73 -83 97zM1040 1138l14 -41v41h-14zM402 1125l13 -70l15 28zM1012 1083l-28 -42h42v42h-14zM415 1028l-13 -56l41 28q-4 13 -28 28zM957 1028q10 -27 42 -28zM679 1013q-85 -47 -166 -124 l-70 -208l84 -208q80 -52 194 -84q87 40 180 97l42 181l-14 42q-16 107 -55 221q-87 48 -195 83zM319 972l-14 -42l27 15v27h-13zM1095 917l-55 -84q11 -29 42 -41q30 31 55 83zM277 820l14 -56q-14 -5 -28 -27q2 -20 28 -28l14 83q-3 18 -28 28zM222 667q14 -51 69 -70 q-20 46 -69 70zM1151 653q4 -18 28 -28q-4 19 -28 28zM1165 528q14 -23 42 -27zM360 486q-19 -27 -55 -55l27 -42l70 56q-12 28 -42 41zM1054 403q-59 -49 -83 -125q75 42 83 125zM776 306l56 -69q-12 47 -56 69zM540 293l-55 -70l97 -28q-6 51 -42 98zM846 251 q5 -27 28 -42zM986 1634l-35 -47q-59 -59 -117 -103l-136 -86l-33 13l-68 73q10 71 37 128l116 144l13 32l6 24q35 36 82.5 34.5t156.5 -79.5q6 -85 -22 -133z" />
<glyph unicode="&#xf4;" horiz-adv-x="1419" d="M69 15zM568 1374q139 -7 306 -41q113 -28 235 -97l166 -167q20 -123 70 -264l-28 -291q-19 -113 -110 -221q-52 -92 -153 -181q-102 -51 -236 -97l-305 14q-102 44 -208 124q-78 68 -153 181q-45 105 -69 235l-14 140l28 138q30 113 97 236q66 79 166 166q81 66 208 125z M665 1277l-14 -41h28v41h-14zM846 1166v28h-14zM540 1180q29 -51 83 -97q-4 73 -83 97zM1040 1138l14 -41v41h-14zM402 1125l13 -70l15 28zM1012 1083l-28 -42h42v42h-14zM415 1028l-13 -56l41 28q-4 13 -28 28zM957 1028q10 -27 42 -28zM679 1013q-85 -47 -166 -124 l-70 -208l84 -208q80 -52 194 -84q87 40 180 97l42 181l-14 42q-16 107 -55 221q-87 48 -195 83zM319 972l-14 -42l27 15v27h-13zM1095 917l-55 -84q11 -29 42 -41q30 31 55 83zM277 820l14 -56q-14 -5 -28 -27q2 -20 28 -28l14 83q-3 18 -28 28zM222 667q14 -51 69 -70 q-20 46 -69 70zM1151 653q4 -18 28 -28q-4 19 -28 28zM1165 528q14 -23 42 -27zM360 486q-19 -27 -55 -55l27 -42l70 56q-12 28 -42 41zM1054 403q-59 -49 -83 -125q75 42 83 125zM776 306l56 -69q-12 47 -56 69zM540 293l-55 -70l97 -28q-6 51 -42 98zM846 251 q5 -27 28 -42zM706 1612l-44 -140q-38 -50 -95 -92l-97 25l-27 22l-2 24q11 73 35 152l55 145l19 16q29 47 80 87l57 -6q82 -2 128 9l41 -54l1 -34l35 -48l66 -140l-3 -143l-105 -65l-33 23l-83 122q-11 45 -28 97z" />
<glyph unicode="&#xf5;" horiz-adv-x="1419" d="M69 15zM568 1374q139 -7 306 -41q113 -28 235 -97l166 -167q20 -123 70 -264l-28 -291q-19 -113 -110 -221q-52 -92 -153 -181q-102 -51 -236 -97l-305 14q-102 44 -208 124q-78 68 -153 181q-45 105 -69 235l-14 140l28 138q30 113 97 236q66 79 166 166q81 66 208 125z M665 1277l-14 -41h28v41h-14zM846 1166v28h-14zM540 1180q29 -51 83 -97q-4 73 -83 97zM1040 1138l14 -41v41h-14zM402 1125l13 -70l15 28zM1012 1083l-28 -42h42v42h-14zM415 1028l-13 -56l41 28q-4 13 -28 28zM957 1028q10 -27 42 -28zM679 1013q-85 -47 -166 -124 l-70 -208l84 -208q80 -52 194 -84q87 40 180 97l42 181l-14 42q-16 107 -55 221q-87 48 -195 83zM319 972l-14 -42l27 15v27h-13zM1095 917l-55 -84q11 -29 42 -41q30 31 55 83zM277 820l14 -56q-14 -5 -28 -27q2 -20 28 -28l14 83q-3 18 -28 28zM222 667q14 -51 69 -70 q-20 46 -69 70zM1151 653q4 -18 28 -28q-4 19 -28 28zM1165 528q14 -23 42 -27zM360 486q-19 -27 -55 -55l27 -42l70 56q-12 28 -42 41zM1054 403q-59 -49 -83 -125q75 42 83 125zM776 306l56 -69q-12 47 -56 69zM540 293l-55 -70l97 -28q-6 51 -42 98zM846 251 q5 -27 28 -42zM598 1631q-17 -38 -28 -71l-83 -89l-33 -17l-105 48l-3 104l66 103l1 48l1 25l41 39q80 -21 162 -20l57 5q3 -2 5 -3l5 1q57 -31 95 -68l44 -101q17 37 28 70l83 89l33 17l105 -48l3 -104l-95 -90l-35 -35l-1 -25l-41 -39q-46 8 -128 7l-28 -18q-3 2 -5 3 l-5 -1q-57 31 -95 68l-44 101v1z" />
<glyph unicode="&#xf6;" horiz-adv-x="1419" d="M69 15zM568 1374q139 -7 306 -41q113 -28 235 -97l166 -167q20 -123 70 -264l-28 -291q-19 -113 -110 -221q-52 -92 -153 -181q-102 -51 -236 -97l-305 14q-102 44 -208 124q-78 68 -153 181q-45 105 -69 235l-14 140l28 138q30 113 97 236q66 79 166 166q81 66 208 125z M665 1277l-14 -41h28v41h-14zM846 1166v28h-14zM540 1180q29 -51 83 -97q-4 73 -83 97zM1040 1138l14 -41v41h-14zM402 1125l13 -70l15 28zM1012 1083l-28 -42h42v42h-14zM415 1028l-13 -56l41 28q-4 13 -28 28zM957 1028q10 -27 42 -28zM679 1013q-85 -47 -166 -124 l-70 -208l84 -208q80 -52 194 -84q87 40 180 97l42 181l-14 42q-16 107 -55 221q-87 48 -195 83zM319 972l-14 -42l27 15v27h-13zM1095 917l-55 -84q11 -29 42 -41q30 31 55 83zM277 820l14 -56q-14 -5 -28 -27q2 -20 28 -28l14 83q-3 18 -28 28zM222 667q14 -51 69 -70 q-20 46 -69 70zM1151 653q4 -18 28 -28q-4 19 -28 28zM1165 528q14 -23 42 -27zM360 486q-19 -27 -55 -55l27 -42l70 56q-12 28 -42 41zM1054 403q-59 -49 -83 -125q75 42 83 125zM776 306l56 -69q-12 47 -56 69zM540 293l-55 -70l97 -28q-6 51 -42 98zM846 251 q5 -27 28 -42zM528 1738q54 -14 97 -52l9 -26l-9 -62v-27q-2 -49 -17 -113l-115 -9q-48 10 -87 44l-27 114q20 43 62 79zM834 1438q-46 16 -87 53l-18 123q12 49 35 105l114 18q49 -16 88 -53l18 -123q-22 -40 -62 -70z" />
<glyph unicode="&#xf7;" horiz-adv-x="1124" />
<glyph unicode="&#xf8;" horiz-adv-x="1251" />
<glyph unicode="&#xf9;" horiz-adv-x="1271" d="M74 20zM1053 1402q96 -23 130 -129l29 -173q-25 -86 -29 -187l-15 -187l15 -202l-29 -216l-101 -130l-144 -100l-187 -58l-144 29l-58 -15l-172 58q-67 48 -130 115l-115 130q-6 103 -29 216l29 101l-15 86l15 58l-15 158l15 58l-15 158q1 86 44 173l144 29l43 -15 l129 15l29 -44l29 -144l-29 -57l-14 -418l14 -201q40 -61 101 -130l130 -14l57 43l58 173l-29 576l-14 43l14 14q18 78 72 144zM967 1230q22 -26 57 -29zM996 1129l-15 -43h29v43h-14zM261 1042q23 -37 72 -57q-19 41 -72 57zM996 942l-15 -44h29l14 44h-28zM981 826 q39 -30 87 -43zM981 625q8 -39 43 -72q-5 41 -43 72zM247 538l-29 -100l58 -15zM924 481h28v29h-14zM477 265q23 -24 58 -29zM823 265q11 -31 43 -43q-10 29 -43 43zM397 1779q67 61 131.5 66.5t99.5 -30.5l6 -24l13 -32l82 -152q27 -57 37 -128l-68 -73l-33 -13l-22 9 q-58 44 -117 103l-102 117l-5 24q-28 48 -22 133z" />
<glyph unicode="&#xfa;" horiz-adv-x="1271" d="M74 20zM1053 1402q96 -23 130 -129l29 -173q-25 -86 -29 -187l-15 -187l15 -202l-29 -216l-101 -130l-144 -100l-187 -58l-144 29l-58 -15l-172 58q-67 48 -130 115l-115 130q-6 103 -29 216l29 101l-15 86l15 58l-15 158l15 58l-15 158q1 86 44 173l144 29l43 -15 l129 15l29 -44l29 -144l-29 -57l-14 -418l14 -201q40 -61 101 -130l130 -14l57 43l58 173l-29 576l-14 43l14 14q18 78 72 144zM967 1230q22 -26 57 -29zM996 1129l-15 -43h29v43h-14zM261 1042q23 -37 72 -57q-19 41 -72 57zM996 942l-15 -44h29l14 44h-28zM981 826 q39 -30 87 -43zM981 625q8 -39 43 -72q-5 41 -43 72zM247 538l-29 -100l58 -15zM924 481h28v29h-14zM477 265q23 -24 58 -29zM823 265q11 -31 43 -43q-10 29 -43 43zM931 1630l-35 -47q-59 -59 -117 -103l-136 -86l-33 13l-68 73q10 71 37 128l116 144l13 32l6 24 q35 36 82.5 34.5t156.5 -79.5q6 -85 -22 -133z" />
<glyph unicode="&#xfb;" horiz-adv-x="1271" d="M74 20zM1053 1402q96 -23 130 -129l29 -173q-25 -86 -29 -187l-15 -187l15 -202l-29 -216l-101 -130l-144 -100l-187 -58l-144 29l-58 -15l-172 58q-67 48 -130 115l-115 130q-6 103 -29 216l29 101l-15 86l15 58l-15 158l15 58l-15 158q1 86 44 173l144 29l43 -15 l129 15l29 -44l29 -144l-29 -57l-14 -418l14 -201q40 -61 101 -130l130 -14l57 43l58 173l-29 576l-14 43l14 14q18 78 72 144zM967 1230q22 -26 57 -29zM996 1129l-15 -43h29v43h-14zM261 1042q23 -37 72 -57q-19 41 -72 57zM996 942l-15 -44h29l14 44h-28zM981 826 q39 -30 87 -43zM981 625q8 -39 43 -72q-5 41 -43 72zM247 538l-29 -100l58 -15zM924 481h28v29h-14zM477 265q23 -24 58 -29zM823 265q11 -31 43 -43q-10 29 -43 43zM662 1608l-44 -140q-38 -50 -95 -92l-97 25l-27 22l-2 24q11 73 35 152l55 145l19 16q29 47 80 87l57 -6 q82 -2 128 9l41 -54l1 -34l35 -48l66 -140l-3 -143l-105 -65l-33 23l-83 122q-11 45 -28 97z" />
<glyph unicode="&#xfc;" horiz-adv-x="1271" d="M74 20zM1053 1402q96 -23 130 -129l29 -173q-25 -86 -29 -187l-15 -187l15 -202l-29 -216l-101 -130l-144 -100l-187 -58l-144 29l-58 -15l-172 58q-67 48 -130 115l-115 130q-6 103 -29 216l29 101l-15 86l15 58l-15 158l15 58l-15 158q1 86 44 173l144 29l43 -15 l129 15l29 -44l29 -144l-29 -57l-14 -418l14 -201q40 -61 101 -130l130 -14l57 43l58 173l-29 576l-14 43l14 14q18 78 72 144zM967 1230q22 -26 57 -29zM996 1129l-15 -43h29v43h-14zM261 1042q23 -37 72 -57q-19 41 -72 57zM996 942l-15 -44h29l14 44h-28zM981 826 q39 -30 87 -43zM981 625q8 -39 43 -72q-5 41 -43 72zM247 538l-29 -100l58 -15zM924 481h28v29h-14zM477 265q23 -24 58 -29zM823 265q11 -31 43 -43q-10 29 -43 43zM489 1729q54 -14 97 -52l9 -26l-9 -62v-27q-2 -49 -17 -113l-115 -9q-48 10 -87 44l-27 114q20 43 62 79z M795 1429q-46 16 -87 53l-18 123q12 49 35 105l114 18q49 -16 88 -53l18 -123q-22 -40 -62 -70z" />
<glyph unicode="&#xfd;" horiz-adv-x="1024" />
<glyph unicode="&#xfe;" />
<glyph unicode="&#xff;" horiz-adv-x="1024" />
<glyph unicode="&#x131;" horiz-adv-x="577" d="M306 1382l187 -72l-15 -201l-14 -43l29 -115l-15 -43v-186h15l-15 -14l-14 -130l14 -42v-58l15 -114l-15 -29v-43l15 -158l-15 -57q-81 -38 -186 -57q-95 24 -187 71v158h-14l14 57l15 172l-15 201l15 215q-15 101 -15 229l-14 158l29 43zM292 1210q5 -28 29 -44z M220 894q41 -41 115 -43zM292 694l14 -44v44h-14zM263 636v-100l29 71zM277 335l-14 -86l14 -29l29 -29q-1 69 -29 144z" />
<glyph unicode="&#x152;" horiz-adv-x="2048" />
<glyph unicode="&#x153;" horiz-adv-x="1933" />
<glyph unicode="&#x178;" horiz-adv-x="1366" />
<glyph unicode="&#x2c6;" horiz-adv-x="700" d="M350 1557l-44 -140q-38 -50 -95 -92l-97 25l-27 22l-2 24q11 73 35 152l55 145l19 16q29 47 80 87l57 -6q82 -2 128 9l41 -54l1 -34l35 -48l66 -140l-3 -143l-105 -65l-33 23l-83 122q-11 45 -28 97z" />
<glyph unicode="&#x2dc;" horiz-adv-x="700" d="M337 1559q-17 -38 -28 -71l-83 -89l-33 -17l-105 48l-3 104l66 103l1 48l1 25l41 39q80 -21 162 -20l57 5q3 -2 5 -3l5 1q57 -31 95 -68l44 -101q17 37 28 70l83 89l33 17l105 -48l3 -104l-95 -90l-35 -35l-1 -25l-41 -39q-46 8 -128 7l-28 -18q-3 2 -5 3l-5 -1 q-57 31 -95 68l-44 101v1z" />
<glyph unicode="&#x2000;" horiz-adv-x="931" />
<glyph unicode="&#x2001;" horiz-adv-x="1863" />
<glyph unicode="&#x2002;" horiz-adv-x="931" />
<glyph unicode="&#x2003;" horiz-adv-x="1863" />
<glyph unicode="&#x2004;" horiz-adv-x="621" />
<glyph unicode="&#x2005;" horiz-adv-x="465" />
<glyph unicode="&#x2006;" horiz-adv-x="310" />
<glyph unicode="&#x2007;" horiz-adv-x="310" />
<glyph unicode="&#x2008;" horiz-adv-x="232" />
<glyph unicode="&#x2009;" horiz-adv-x="372" />
<glyph unicode="&#x200a;" horiz-adv-x="103" />
<glyph unicode="&#x2010;" horiz-adv-x="865" d="M462 921h152l102 -13q59 -86 63 -202q-63 -75 -178 -89l-37 -13l-89 13l-89 -13q-108 2 -242 26q-45 66 -50 164q34 81 127 114h241v13z" />
<glyph unicode="&#x2011;" horiz-adv-x="865" d="M462 921h152l102 -13q59 -86 63 -202q-63 -75 -178 -89l-37 -13l-89 13l-89 -13q-108 2 -242 26q-45 66 -50 164q34 81 127 114h241v13z" />
<glyph unicode="&#x2012;" horiz-adv-x="865" d="M462 921h152l102 -13q59 -86 63 -202q-63 -75 -178 -89l-37 -13l-89 13l-89 -13q-108 2 -242 26q-45 66 -50 164q34 81 127 114h241v13z" />
<glyph unicode="&#x2013;" />
<glyph unicode="&#x2014;" horiz-adv-x="2048" />
<glyph unicode="&#x2018;" horiz-adv-x="391" d="M145 1471l166 -22q8 -38 11 -88l-11 -22l-11 -33l11 -177q-17 -61 -55 -121l-100 -11l-33 11l-11 22q-16 71 -22 154v155l11 22q11 54 44 110z" />
<glyph unicode="&#x2019;" horiz-adv-x="391" d="M145 1471l166 -22q8 -38 11 -88l-11 -22l-11 -33l11 -177q-17 -61 -55 -121l-100 -11l-33 11l-11 22q-16 71 -22 154v155l11 22q11 54 44 110z" />
<glyph unicode="&#x201a;" horiz-adv-x="455" />
<glyph unicode="&#x201c;" horiz-adv-x="700" d="M145 1471l166 -22q8 -38 11 -88l-11 -22l-11 -33l11 -177q-17 -61 -55 -121l-100 -11l-33 11l-11 22q-16 71 -22 154v155l11 22q11 54 44 110zM443 1471q75 -4 154 -32l23 -67l-12 -33l-21 -33l10 -155q-14 -65 -55 -132l-121 -22l-22 33l-33 144q10 77 11 176 q19 67 66 121z" />
<glyph unicode="&#x201d;" horiz-adv-x="700" d="M145 1471l166 -22q8 -38 11 -88l-11 -22l-11 -33l11 -177q-17 -61 -55 -121l-100 -11l-33 11l-11 22q-16 71 -22 154v155l11 22q11 54 44 110zM443 1471q75 -4 154 -32l23 -67l-12 -33l-21 -33l10 -155q-14 -65 -55 -132l-121 -22l-22 33l-33 144q10 77 11 176 q19 67 66 121z" />
<glyph unicode="&#x201e;" horiz-adv-x="682" />
<glyph unicode="&#x2022;" horiz-adv-x="717" />
<glyph unicode="&#x2026;" horiz-adv-x="2048" />
<glyph unicode="&#x202f;" horiz-adv-x="372" />
<glyph unicode="&#x2039;" horiz-adv-x="682" />
<glyph unicode="&#x203a;" horiz-adv-x="682" />
<glyph unicode="&#x205f;" horiz-adv-x="465" />
<glyph unicode="&#x20ac;" horiz-adv-x="1292" d="M598 1266l-43 -43q40 5 43 43zM794 1182q4 -32 28 -56l14 56h-42zM906 1167l-28 -84l57 43zM570 1126q1 -29 28 -43zM317 1027l-28 -98q0 -22 28 -28q26 41 42 98q-11 20 -42 28zM247 789l-14 -42h28v42h-14zM261 705q24 -23 56 -28zM289 621l-14 -56h28v56h-14zM317 509 q14 -51 57 -84q-3 52 -57 84zM878 312l-126 -70q20 -28 56 -42q47 37 112 56q-5 36 -42 56zM471 298q-45 -18 -84 -56q49 20 84 56zM611 270v-28l28 14zM100 844l-7 57l14 28l14 42l70 155l112 112l140 84l168 56q84 -6 183 -28l182 -43q56 -46 112 -112l112 -125 q-17 -72 -69 -141q-61 -50 -140 -84q-72 28 -141 84l-126 98l-154 -70q-46 -46 -84 -102h148l126 -5q74 -35 79 -81q-79 -30 -221 -36l-47 -5l-110 5h-1l-2 -14l13 -42v-5h210q115 -13 158 -45q-6 -40 -63 -66q-152 -9 -277 -11l28 -84l141 -84q86 12 168 56l112 112 q76 -8 155 -41q59 -50 112 -127q-32 -67 -84 -140l-127 -112l-140 -84l-154 -14l-42 14l-57 -14l-140 28l-154 70l-196 267l-24 168q-65 9 -109 26q5 47 78 81l33 1l4 62q-26 2 -52 3q-57 27 -63 66q34 26 112 40z" />
<glyph unicode="&#x2122;" horiz-adv-x="2048" />
<glyph unicode="&#xe000;" horiz-adv-x="1380" d="M0 1380h1380v-1380h-1380v1380z" />
<glyph unicode="&#xfb01;" horiz-adv-x="1024" />
<glyph unicode="&#xfb02;" horiz-adv-x="1024" />
<glyph horiz-adv-x="1024" d="M0 0z" />
</font>
</defs>
</svg>
