<?xml version="1.0" standalone="no"?>
<!DOCTYPE svg PUBLIC "-//W3C//DTD SVG 1.1//EN" "http://www.w3.org/Graphics/SVG/1.1/DTD/svg11.dtd" >
<svg xmlns="http://www.w3.org/2000/svg">
<metadata></metadata>
<defs>
<font id="sigmarregular" horiz-adv-x="1866" >
<font-face units-per-em="2048" ascent="1638" descent="-410" />
<missing-glyph horiz-adv-x="526" />
<glyph horiz-adv-x="2048" />
<glyph horiz-adv-x="2048" />
<glyph unicode="&#xd;" horiz-adv-x="2048" />
<glyph unicode=" "  horiz-adv-x="526" />
<glyph unicode="&#x09;" horiz-adv-x="526" />
<glyph unicode="&#xa0;" horiz-adv-x="526" />
<glyph unicode="!" horiz-adv-x="842" d="M88 1339q-2 8 8.5 13.5t29.5 8.5t42 5t48 3t47 2.5t39 3.5t23 5h344q5 -3 33 -14t40.5 -24t12.5 -35q0 -85 -22 -152l-51 -299q-3 -4 -8 -42.5t-5 -39.5q0 -25 -5 -60t-11 -63t-17 -76t-16 -73q-3 -10 -23 -16t-65 -8t-77 -2.5t-98 -0.5h-25q-20 0 -75.5 6t-64.5 11 q-4 7 -8.5 34t-7.5 57.5t-4 34.5l-14 112t-15 112q-3 19 -8.5 97.5t-5.5 88.5q0 22 -13.5 111t-13.5 114q0 45 -14 86zM176 160q-2 75 1 98t3 43q-2 10 10.5 22.5t26.5 12.5q21 0 89 1t93 1h80q67 0 119.5 -10.5t52.5 -32.5q0 -44 6 -202q1 -25 0.5 -40.5t-0.5 -31 t-2.5 -24.5t-4 -17t-7.5 -12l-10.5 -7t-14.5 -4t-18 -1.5t-23 -0.5q-75 0 -112 6q-1 1 -72 1.5t-141 5t-70 14.5z" />
<glyph unicode="&#x22;" horiz-adv-x="1501" d="M105 1364l12 14h17q87 15 98 15h124q24 0 63 -7q7 12 88 3t98 -7q55 -12 67.5 -21.5t12.5 -41.5q0 -27 -7.5 -147t-13.5 -173q-9 -46 -18.5 -144.5t-20.5 -149.5q-9 -37 -23.5 -130t-29.5 -141q-4 0 -13.5 0.5t-14.5 0.5q-7 0 -48 -1t-71 0h-131q-7 0 -22.5 -1.5 t-23.5 -1.5q-13 0 -22.5 10t-15 27.5t-9 33.5t-6.5 35.5t-5 25.5q-11 53 -19 114t-15 134t-13 115q-28 267 -38 438zM816 1364l12 14q93 0 175.5 6t111.5 5q41 -5 55 -2q29 -14 146 -5q54 -13 66.5 -22t12.5 -41q0 -27 -7.5 -146.5t-13.5 -173.5q-9 -47 -18 -145t-20 -149 q-9 -35 -23.5 -128.5t-30.5 -142.5q-4 0 -13 0.5t-15 0.5q-19 0 -94 -3h-2l-15 8l-8 -6h-130q-8 0 -23 -1.5t-23 -1.5q-13 0 -22.5 10t-15.5 27.5t-9.5 33t-7 35.5t-4.5 26q-15 67 -27.5 193t-19.5 170q-32 359 -37 438z" />
<glyph unicode="#" horiz-adv-x="1812" d="M91 255q35 271 40 301q2 18 22.5 35.5t38.5 17.5q53 0 94 4l13 81l25 132h-12h-34.5t-30 1.5t-27.5 4.5t-19 7.5t-13 13t-1 19.5q35 211 40 233q2 13 23 27t38 14q2 0 98 3l41 213q0 3 9.5 11.5t9.5 10.5q5 0 9 -1t8 -1q8 0 24 6.5t26 6.5q9 0 26 -5.5t26 -5.5 q15 11 50 11q9 0 29 -1t29 -1q0 -2 6 -5.5t9 -3.5t20 4l18 5q20 0 89.5 -3t74.5 -6q31 -31 31 -75v-8l-3 -18q-4 -18 -12 -56t-15 -76l207 -2l41 213q36 33 86 33h102q3 0 34.5 1t66.5 1.5t73.5 0t66.5 -4t34 -9.5q31 -31 31 -75v-8q0 -7 -31 -155h4q24 0 42 -1t38.5 -5 t30 -13.5t6.5 -23.5q-8 -48 -21.5 -100.5t-18.5 -84.5q-7 -34 -14 -49t-33 -26.5t-74 -11.5l-25 -5l-45 -217h16q34 0 57 -2.5t43.5 -15.5t16.5 -37q-8 -63 -21.5 -131.5t-18.5 -108.5q-5 -33 -9.5 -49t-17 -33t-35 -23.5t-59.5 -6.5q-26 -7 -34 -7h-17q-33 -171 -58 -205 q-125 -11 -155 -13q-54 -2 -108 -2t-86.5 0.5t-59.5 1t-29 0.5q-18 0 -18 38q0 27 10 84.5t10 66.5q3 24 4 29h-222q-33 -171 -58 -205q-21 0 -45 -2t-40 -4l-15 -2h-6q-9 0 -18 4t-14 4q-17 -6 -17 -8h-152q-8 -5 -131 -5q-18 0 -18 38q0 27 10 84.5t10 66.5q3 24 4 28 q-30 0 -49 1.5t-38.5 7.5t-27.5 19t-5 33zM781 615q65 0 217 -2l13 81l25 132h-212z" />
<glyph unicode="$" horiz-adv-x="1312" d="M81 946q0 330 207 432v205q0 18 12 32.5t33 14.5q18 0 40 -2.5t37 -5t17 -2.5q8 0 9 0.5t1 3.5q23 -14 43 -14q2 0 8 6q18 0 27 -197l170 4l2 160v12q0 8 15.5 21.5t29.5 13.5q28 0 72.5 -9t73.5 -9q6 0 10 4q7 0 14.5 -61t11.5 -144q37 -6 93.5 -23.5t77.5 -21.5 q8 -2 18.5 -16t16.5 -15q2 0 2 1t2 1q1 -16 9 -95.5t8 -123.5v-10q0 -25 -0.5 -39t-4 -34.5t-12.5 -31t-24 -10.5q-34 0 -148 22.5t-175 22.5q-163 0 -163 -65q0 -6 46.5 -28t116 -52.5t151 -80t151 -105t116 -133t46.5 -158.5q0 -295 -217 -412l-6 -192l-205 -17l-12 162 q-101 -6 -210 -6l-4 -139l-56 -13q-3 0 -7 6.5t-7 6.5q-1 -2 -1 -6q-1 -2 -1 -7h-57q-10 -4 -76 -4q-16 0 -19.5 40.5t-3.5 133.5q-114 38 -173 107q-62 168 -68 330q0 16 8 29.5t19 13.5q77 -3 207 -44.5t176 -41.5q101 0 119 41q-34 17 -92 44t-97.5 45.5t-93 48.5t-90 56 t-76 64.5t-63 78.5t-39 93t-15.5 112z" />
<glyph unicode="%" horiz-adv-x="2549" d="M68 895q0 80 26 159.5t71.5 144t116 105t151.5 40.5q38 0 49 -2q4 1 10 1q120 0 179.5 -8.5t114.5 -38.5q111 -72 160.5 -162.5t49.5 -225.5q0 -137 -63 -247q-3 -6 -8.5 -15.5t-9.5 -16t-5 -6.5l-9 -5q-22 -33 -50.5 -57.5t-64.5 -39t-67 -23.5t-76 -12.5t-72.5 -4.5 t-73.5 -1q-12 0 -31 3t-29 3q-112 0 -207 57q-81 46 -121.5 149.5t-40.5 202.5zM473 876q0 -4 2.5 -22t10 -50t16.5 -60q1 -10 19 -10q20 0 34.5 32.5t21 79t9 80.5t2.5 55v7.5t-0.5 18.5t-2 26.5t-4.5 27.5t-7 26t-10.5 18.5t-15.5 7.5q-21 0 -39.5 -33t-26.5 -102l-9 -74 v-28zM859 -16q-66 0 0 182q93 231 220 528l260 668q0 4 12 12t12 10q5 0 8.5 -1t7.5 -1q14 0 45.5 6.5t47.5 6.5q141 0 204 -11q-3 -1 4 -3q4 -2 10 -3l19 6q16 0 27 -5.5t17.5 -24t4.5 -48t-16 -82t-41 -122.5l-62 -144q-62 -138 -62 -147q0 -2 -82 -199t-85 -204 q-90 -232 -159 -368q-8 -17 -23 -29t-28.5 -17t-29.5 -8t-21.5 -3.5t-10.5 -0.5h-6q-10 0 -18 4t-12 4q-19 -6 -19 -8h-112q-2 2 -112 2zM1548 391q0 80 26 159.5t71.5 144t116 105t151.5 40.5q38 0 49 -2q4 1 10 1q120 0 179.5 -8.5t114.5 -38.5q111 -72 160.5 -162.5 t49.5 -225.5q0 -137 -63 -247q-3 -6 -8.5 -15.5t-9.5 -16t-5 -6.5l-9 -5q-22 -33 -50.5 -57.5t-64.5 -39t-67 -23.5t-76 -12.5t-72.5 -4.5t-73.5 -1q-12 0 -31 3t-29 3q-112 0 -207 57q-81 46 -121.5 149.5t-40.5 202.5zM1953 332q0 -3 2.5 -17.5t10 -39t16.5 -45.5 q1 -10 19 -10q20 0 34.5 33.5t21 82.5t9 84t2.5 57v12.5t-2 26.5t-5.5 34t-12 27t-20.5 12q-21 0 -39.5 -28t-26.5 -87l-9 -114v-28z" />
<glyph unicode="&#x26;" horiz-adv-x="2137" d="M117 504q0 31 1.5 94.5t1.5 115.5v186q0 306 17 501q0 39 353 39q123 0 248.5 6t230 6t266.5 -12q23 0 35.5 -32t23.5 -99t19 -96q1 -17 -0.5 -28t-2.5 -17t-7 -8.5t-8.5 -3t-13 0t-15.5 0.5q-78 0 -228.5 -14.5t-197.5 -17.5q-16 0 -27.5 -102.5t-11.5 -166.5 q0 -27 7 -35t25 -8h320q2 205 31 239q114 0 242 1t194 1q63 -5 73 -9q26 -10 32 -59q4 -34 4 -108q0 -23 7 -67q149 -6 150 -6q5 -1 18.5 -2t16 -2t11 -3.5t11 -7t6.5 -12.5t7 -20l8 -183v-6q0 -35 -23.5 -43t-115.5 -8h-81q0 -235 46 -235q7 0 47.5 -0.5t55.5 0t46 2t55 5 t48 8.5q12 -3 24.5 -17t12.5 -26v-241q0 -14 -179 -14q-67 0 -167.5 1t-117.5 1q-27 0 -81 -3t-78 -3q-70 0 -142 37t-119 100q-59 -37 -111 -66q-120 -65 -156 -65q-107 0 -323.5 -1t-324.5 -1q-13 0 -46 4t-64.5 11t-30.5 14q0 44 -11 234.5t-11 240.5zM788 281 q33 0 86.5 2t119 5t94.5 4h63l6 6q0 78 -2 220h-288q-49 0 -60 -11t-13 -71q-1 -10 -4 -50.5t-2.5 -51t0.5 -53.5z" />
<glyph unicode="'" horiz-adv-x="813" d="M84 1364l12 14h16l91 15q26 1 77 0t76 0q6 7 44.5 6t43.5 0l15 -6q6 2 21 2.5t20 1.5q4 -2 13.5 -3.5t12.5 -2.5l90 -7l15 -4q3 0 7 1t7 1q63 -14 72.5 -24.5t7.5 -61.5q-8 -102 -41 -297q-9 -44 -18 -142.5t-21 -151.5q-9 -37 -23.5 -130t-29.5 -141q-43 5 -103 -2h-4 l-12 8l-8 -6h-101q-21 1 -64 -1.5t-63 -0.5q-13 11 -22 28.5t-12 31t-8 37.5t-7 34q-14 70 -28 200.5t-19 162.5q-35 220 -57 438z" />
<glyph unicode="(" horiz-adv-x="1123" d="M63 629q0 263 103 471q28 60 72 115.5t83.5 91t94 72t83.5 52t72 37.5q3 2 5 2.5t4.5 2t4.5 2.5q35 17 109 30l69 9l115 -384q-44 -51 -69 -86.5t-54.5 -92.5t-43 -128t-13.5 -159q0 -113 25.5 -189t75.5 -146q7 -10 45.5 -55t47.5 -54q28 -32 57 -49l-234 -421 q-156 73 -322 206q-7 6 -37 29.5t-43.5 35t-43 38t-46 48t-41.5 54.5t-40.5 67.5t-32 77t-26 92.5t-14.5 106q-6 58 -6 125z" />
<glyph unicode=")" horiz-adv-x="1123" d="M63 171q29 17 57 49q9 9 47.5 54t45.5 55q33 46 53 88t34 105.5t14 141.5q0 71 -10.5 133t-25 105t-41.5 88.5t-48 72.5t-55 67l115 384l69 -9q74 -13 109 -30l14 -7q30 -15 49 -25t57 -32.5t65 -42t64 -50t65 -61.5t56.5 -72t48.5 -85q103 -208 103 -471q0 -67 -6 -125 q-4 -50 -13.5 -97t-20.5 -83.5t-29.5 -74t-32 -62.5t-38 -55t-38 -45.5t-41.5 -40.5t-38.5 -33.5t-39 -30.5t-33.5 -26q-166 -133 -322 -206z" />
<glyph unicode="*" horiz-adv-x="1176" d="M97 669q-7 11 -9 21t2.5 19.5t10.5 17.5t18.5 17.5t21.5 16t25.5 17t25.5 16.5l139 93l-139 93q-9 6 -25.5 16.5t-25.5 17t-21.5 16t-18.5 17.5t-10.5 17.5t-2.5 19.5t9 21q84 131 110 169q9 13 30 16.5t33 -4.5q33 -22 91 -61t86 -57v102v23.5v24v22.5t1.5 22t3.5 18 t6 16t9.5 12t13 8.5t17.5 2.5q40 0 101 1t101 1q15 0 30 -15t15 -30v-222q17 10 40.5 25.5t30.5 19.5q4 3 31 26t31 26q34 22 57 22.5t36 -11.5t34 -42q15 -23 41 -58t44 -61q26 -41 -62 -98q-148 -101 -169 -116q21 -15 169 -116q90 -57 62 -98q-18 -26 -44 -61t-41 -58 q-21 -30 -34 -42t-36 -11.5t-57 22.5q-5 2 -33 26.5t-29 25.5l-77 48q-2 -112 -2 -164q0 -106 -47 -106q-39 0 -81.5 2.5t-65.5 2.5q-53 0 -74.5 15.5t-21.5 72.5q0 4 4.5 40.5t4.5 40.5q0 11 -2 83l-184 -122q-12 -8 -33 -4.5t-30 16.5q-26 38 -110 169z" />
<glyph unicode="+" horiz-adv-x="1131" d="M54 670q0 18 18 35.5t35 17.5h254v117q0 9 -0.5 27.5t0 28.5t0.5 26.5t2 26t4.5 21.5t7 19t10.5 14t15.5 10t20.5 3q61 0 155 1t154 1q18 0 35.5 -18t17.5 -35v-247q95 -5 168 -5q125 0 125 -56q0 -63 -3 -133.5t-3 -109.5q0 -62 -18 -87.5t-86 -25.5h-187 q-6 -126 -6 -180q0 -125 -55 -125q-64 0 -134.5 3t-109.5 3q-62 0 -87.5 18t-25.5 86q0 4 5.5 47t5.5 48q0 8 -5.5 50.5t-5.5 49.5h-129q-9 0 -27.5 -0.5t-28.5 0t-26.5 0.5t-26 1.5t-21.5 4.5t-19 7.5t-14 10.5t-10 15t-3 20q0 61 -1 155.5t-1 154.5z" />
<glyph unicode="," horiz-adv-x="837" d="M88 358l12 15l107 14h120q14 0 37.5 3t34.5 3h49l15 -6q6 2 21 2.5t20 1.5q4 -2 13.5 -3.5t12.5 -2.5l90 -6l15 -4q3 0 7 1t7 1q39 -12 49 -22t10 -38q0 -173 21 -213q-5 -24 -6.5 -92t-9 -132.5t-28 -137t-73.5 -132t-135 -91.5q-116 -56 -213 -56q-31 0 -39 2 q-5 43 -22 101v2l6 14l-8 8l-23 70q-3 3 -12 24t-13 25q46 9 86.5 32.5t63.5 50.5t41.5 54.5t20.5 44t-1 19.5q-12 2 -81.5 4t-121 10t-53.5 27q-5 41 -9 201t-11 206z" />
<glyph unicode="-" horiz-adv-x="963" d="M115 760q0 18 18 35.5t36 17.5q32 0 91 4t93 4h190q35 0 93 -4t90 -4q125 0 125 -55q0 -64 -3 -132.5t-3 -107.5q0 -62 -18 -87t-87 -25q-24 -7 -33 -7h-413q-9 0 -27.5 -0.5t-28.5 0t-26.5 0.5t-26 2t-21.5 4.5t-19 7t-14 10.5t-10 15.5t-3 20.5q0 62 -1.5 151.5 t-1.5 149.5z" />
<glyph unicode="." horiz-adv-x="785" d="M108 387l13 14l65 15h121q14 0 37.5 3t34.5 3h49l14 -6q4 2 20 2.5t21 1.5q4 -2 13.5 -3.5t13.5 -2.5l49 -6l14 -5q2 0 7 1.5t7 1.5q39 -12 49.5 -22t10.5 -38q20 -23 20 -213q10 -59 5 -91.5t-3 -61.5q2 -13 -4 -20t-21.5 -8.5t-30 -1.5t-38.5 1.5t-37 1.5 q-4 0 -27.5 -1t-39 -1.5t-25.5 0.5q-147 5 -203 2q-3 0 -17 -1.5t-21 -2t-20.5 -0.5t-21 1.5t-16.5 4.5t-13 9.5t-5 15.5q-5 37 -8.5 198.5t-12.5 208.5z" />
<glyph unicode="/" horiz-adv-x="1120" d="M99 166q88 319 150 528l217 668q0 4 11 12t11 10q5 0 9 -1t8 -1q20 0 63.5 6.5t67.5 6.5q10 0 26 -5.5t25 -5.5q9 6 27 8.5t34 2.5t40 -1t32 -1q0 -2 5.5 -5.5t8.5 -3.5t20.5 4.5t18.5 4.5q12 0 29.5 -2.5t22.5 -6.5h36q-1 -1 0.5 -1.5t5.5 -2t5 -1.5t4 -1l18 6 q92 0 29 -282l-54 -144q-53 -141 -53 -147q0 -2 -64.5 -200.5t-64.5 -202.5q-11 -39 -31 -109.5t-31.5 -108t-26.5 -84.5t-27.5 -74.5t-24.5 -41.5q-13 0 -31 -1t-34.5 -2t-31.5 -2t-24 -2t-10 -1h-6q-9 0 -17.5 4t-13.5 4q-18 -6 -18 -8h-232q-8 -5 -112 -5q-11 0 -19 5 t-11.5 15t-6 21t-1.5 26.5t2.5 28t4.5 29t5 26t5 23t4 15.5z" />
<glyph unicode="0" horiz-adv-x="1496" d="M96 586q0 99 13 180t44 184q13 10 31 45.5t33 65t24 29.5q14 2 51.5 35.5t51.5 41.5q30 20 70.5 32t69.5 16t80.5 8.5t74.5 7.5q250 -9 407 -49q3 -1 8.5 -2.5t20.5 -6t29 -9t31.5 -11.5t29.5 -13.5t20.5 -13.5t8.5 -14v-18q43 0 91 -70t48 -119q18 0 20.5 -2t2.5 -16 l43 -164q0 -1 1.5 -24t3 -57.5t1.5 -61.5q0 -70 -4 -122t-16 -116.5t-40.5 -117.5t-72.5 -91q-25 -21 -75.5 -54.5t-64.5 -43.5q-30 -11 -89 -32.5t-89 -31.5q-52 0 -158.5 -10t-160.5 -10q-32 0 -138.5 22.5t-111.5 40.5q-16 7 -45.5 20t-44.5 21q-10 11 -31.5 25t-26.5 18 q-44 37 -74.5 100t-43.5 137t-18 132.5t-5 118.5zM626 555q0 -69 12 -122t38 -122q2 -15 33 -39t44 -24q29 0 49.5 11.5t31 24.5t16.5 38t7.5 36t2.5 35q1 22 5.5 107.5t4.5 120.5q0 15 -1.5 31t-2.5 27.5t-5 30.5t-5.5 27t-8 30.5t-8 27.5t-9.5 31.5t-9 29.5 q-4 36 -17.5 57t-45.5 21q-19 0 -34 -5.5t-25.5 -20t-17 -24.5t-11.5 -33t-7 -32t-5 -35t-3 -28q-2 -18 -15.5 -90t-13.5 -111z" />
<glyph unicode="1" horiz-adv-x="1092" d="M75 670v393q0 6 9 12.5t39.5 24t55.5 33.5q88 57 133 57q115 0 305 -2t303 -2q19 0 36.5 -17.5t17.5 -35.5v-682q0 -65 -5.5 -170t-5.5 -156q0 -125 -55 -125q-134 0 -278.5 3t-231.5 3q-62 0 -87 18.5t-25 86.5q0 4 5 46.5t5 47.5q0 9 -5 55t-5 47q-1 46 -1.5 161 t-2 193t-5.5 78q-11 0 -34.5 -27.5t-55 -55t-61.5 -27.5q-20 0 -35.5 13t-15.5 28z" />
<glyph unicode="2" horiz-adv-x="1269" d="M100 1098q0 9 1 11l90 41q202 74 460 74q101 0 189 -21t163 -64.5t119 -121.5t44 -182q0 -108 -71 -209.5t-222 -212.5q31 0 85 1t84 1q125 0 125 -55q0 -64 -3 -132.5t-3 -107.5q0 -62 -18 -87t-87 -25q-4 -7 -77.5 -8.5t-215.5 0t-153 1.5q-30 0 -88 -0.5t-86 -0.5 q-163 0 -247.5 11.5t-84.5 49.5q0 54 53 107q0 -4 21 18.5t53.5 61.5t68 83.5t69.5 92t53 79.5q29 38 56.5 100t27.5 108q0 56 -33 80.5t-117 24.5q-59 0 -107 -13.5t-122 -48.5q-5 0 -16 154.5t-11 189.5z" />
<glyph unicode="3" horiz-adv-x="1246" d="M93 1124q99 45 235.5 72.5t275.5 27.5q173 -9 267 -35q97 -26 97 -49v-13q13 0 26 -9.5t22.5 -21t20.5 -31.5t16 -31.5t13.5 -31t8.5 -20.5q10 -21 17.5 -62.5t10.5 -53.5q0 -60 -30.5 -123.5t-81.5 -96.5q164 -96 164 -263q0 -160 -45.5 -254.5t-91.5 -114.5 q-52 -27 -109.5 -43t-131 -22t-114.5 -7t-129 -1q-32 0 -135.5 17t-108.5 31q-5 2 -38.5 11.5t-49.5 18.5l-56 33l20 281q149 -34 240 -34q151 0 151 108q0 74 -127 86q-84 0 -168 -7l-2 222q12 0 37 -0.5t39 -0.5q38 0 64 3t52 13t39 31.5t13 54.5q0 88 -151 88 q-92 0 -240 -64z" />
<glyph unicode="4" horiz-adv-x="1490" d="M67 150v36q0 146 6.5 193.5t45.5 183.5q15 53 24 86q-2 -2 42 106t109.5 255.5t110.5 228.5q5 5 35 27q150 0 248 -6q18 10 70 10q28 0 82 -3t84 -3q1 2 3.5 2t4.5 2h78q4 -4 12 -4t28 4q4 0 14 -2t11 -2q5 2 56 0t55 -2q23 0 24.5 -50.5t-5.5 -121t5 -144.5q1 -2 -1 -43 t-5.5 -148t-3.5 -233v-37h145q72 0 72 -206q0 -8 -1.5 -41.5t-3.5 -63.5l-1 -31q-13 -18 -92 -18q-96 0 -123 -2l-4 -33q-2 -25 -2.5 -58.5t-1 -51t-4 -35.5t-13.5 -25.5t-28 -7.5q-1 0 -3 2t-4 2q-6 0 -24 -6q-23 0 -41 3t-25 3q-6 0 -12 -6h-133q-1 0 -44.5 -9.5 t-51.5 -9.5q-14 0 -23.5 12t-14 32.5t-6 38.5t-2.5 39.5t-1 25.5l-4 76h-9q-331 0 -585 -6q-37 1 -59.5 9.5t-28 16t-5.5 15.5zM536 489q31 0 96.5 -1t100.5 -1v539q-172 -470 -197 -537z" />
<glyph unicode="5" horiz-adv-x="1205" d="M100 52l13 69l-3 73q3 45 10 139q149 -34 240 -34q151 0 151 108q0 74 -127 86q-106 0 -218 -7l-7 82l2 34q1 17 1 44q0 43 1 44l-1 51q0 2 -2.5 18.5t-5 47.5t-2.5 70v294q0 3 5 10.5t10 10.5q3 0 8 -1t8 -1q16 0 47 5t49 5q25 0 78 -4t82 -4l8 6h90q6 -6 15 -6 q2 0 18 3t17 3q20 0 28 -6h323q6 -6 15 -6q3 0 27 3t27 3q24 0 35 -74t11 -182q0 -6 -3.5 -11t-10 -7.5t-13.5 -4t-17.5 -2t-17 -1t-17 0t-13.5 0.5h-22q-26 0 -54 -4t-59 -4q-60 0 -65 2l-14 -8q0 -3 -4 -19t-9 -47.5t-7 -70.5q105 -13 153 -27q97 -26 97 -49v-13 q13 0 26 -9.5t22.5 -21t20.5 -31.5t16 -31.5t13.5 -31t8.5 -20.5q25 -50 25 -123q0 -169 -45.5 -269.5t-91.5 -119.5q-52 -27 -109.5 -43t-131 -22t-114.5 -7t-129 -1q-32 0 -135.5 17t-108.5 31q-5 2 -38.5 11.5t-49.5 18.5z" />
<glyph unicode="6" horiz-adv-x="1476" d="M85 608q0 186 39 285q51 132 177 246q211 137 539 137q131 0 279 -42q7 -3 25.5 -9.5t28 -10t24.5 -10t27.5 -14t23.5 -16.5q3 -2 12.5 -7t15.5 -8.5t11.5 -14.5t6 -26.5t-5.5 -43t-19 -64.5q-5 -13 -14 -34t-12.5 -29t-10 -22.5t-10.5 -19t-11 -12.5t-13 -9t-15 -3 t-19.5 -0.5t-24.5 4.5q-92 29 -174 29q-48 0 -87 -7t-64 -16.5t-43.5 -25.5t-28 -29t-15.5 -32t-7 -28.5t-3 -24.5v-6q126 42 246 42q189 0 308 -100t119 -273q0 -84 -33 -156t-90 -123t-134 -86.5t-166 -53t-184 -17.5q-103 0 -202.5 24.5t-189.5 76t-158 124t-108 177.5 t-40 228zM731 451q37 -143 143 -143q49 0 78 24t29 75q0 77 -94 77q-73 0 -156 -33z" />
<glyph unicode="7" horiz-adv-x="1226" d="M74 1004q0 9 1.5 44.5t2.5 67.5l2 33q14 20 100 20q42 0 119 6.5t119 6.5q451 0 643 6q39 -2 63 -11t30.5 -17.5t6.5 -16.5v-328q0 -26 -12.5 -62t-30 -71t-55 -109.5t-68.5 -142.5q-1 -3 -10.5 -27.5t-21.5 -53.5t-31 -72t-49 -102.5t-66 -125.5l-51 -94 q-41 -76 -98 -135q-19 -17 -41 -17q-57 0 -163 58t-188 128t-82 103q0 9 64 143.5t136 285.5t85 186q-294 6 -328 6q-77 0 -77 291z" />
<glyph unicode="8" horiz-adv-x="1520" d="M99 383q0 96 25 158t96 105q-51 33 -81.5 96.5t-30.5 123.5q0 113 64 202q8 10 16.5 18t22 17.5t20.5 15.5q54 42 84 55q42 21 88.5 34.5t108.5 18.5t96 6t114.5 0t100.5 -1q215 0 315 -61q68 -26 116.5 -61t68.5 -67q48 -86 48 -173q0 -63 -27.5 -127t-77.5 -97 q164 -96 164 -263q0 -309 -354 -380q-15 -4 -44.5 -5.5t-39.5 -2.5q-14 -1 -41 -6t-40 -7q-57 -4 -132 -4q-335 0 -519 108q-4 2 -24.5 11.5t-27.5 14.5q-67 43 -88 105t-21 166zM657 849q0 -46 6.5 -76t20 -43.5t27 -18t34.5 -4.5q43 0 63.5 30t20.5 112q0 51 -7 84 t-22 47.5t-26.5 19.5t-30.5 7q-19 -2 -27.5 -4.5t-25.5 -16t-25 -48t-8 -89.5zM684 397q0 -66 6.5 -107.5t20 -60.5t27.5 -25t36 -6q19 0 31 6t24 25.5t17.5 61t5.5 106.5q0 149 -77 149h-34q-26 0 -41.5 -37t-15.5 -112z" />
<glyph unicode="9" horiz-adv-x="1476" d="M86 840q0 84 33 156t90 123t134 86.5t166 53t184 17.5q103 0 202.5 -24.5t189.5 -76t158 -124t108 -177.5t40 -228q0 -186 -39 -285q-51 -132 -177 -246q-211 -137 -539 -137q-130 0 -279 42q-7 3 -25.5 9.5t-28 10t-24.5 10t-27.5 14t-23.5 16.5q-3 2 -12.5 7t-15.5 8.5 t-11.5 14.5t-6 26.5t5.5 43t19 64.5q5 13 14 34t12.5 29t10 22.5t10.5 19t11 12.5t13 9t15 3t19.5 0.5t24.5 -4.5q92 -29 174 -29q48 0 87 7t64 16.5t43.5 25.5t28 29t15.5 32t7 28.5t3 24.5v6q-126 -42 -246 -42q-189 0 -308 100t-119 273zM495 847q0 -77 94 -77 q85 0 156 33q-37 143 -143 143q-49 0 -78 -24t-29 -75z" />
<glyph unicode=":" horiz-adv-x="784" d="M108 432l12 14l65 15h121q14 0 37.5 3t34.5 3h49l14 -6q5 2 20.5 2.5t20.5 1.5q5 -2 14 -3.5t13 -2.5l49 -6l14 -4q3 0 8 1t7 1q38 -13 48.5 -23t10.5 -37q21 -21 21 -213q8 -60 4 -91.5t-2 -61.5q2 -13 -4.5 -20t-22 -8.5t-30 -1.5t-38 1.5t-36.5 1.5q-5 0 -28 -1 t-38.5 -1.5t-26.5 0.5q-192 2 -202 2q-3 0 -17 -1.5t-21.5 -2t-21 -0.5t-21 1.5t-16.5 4.5t-13 9.5t-5 15.5q-5 41 -9 201t-11 206zM108 1071l12 14l65 15h121q14 0 37.5 3t34.5 3h49l14 -6q5 2 20.5 2.5t20.5 1.5q5 -2 14 -3.5t13 -2.5l49 -6l14 -5q3 0 8 1.5t7 1.5 q38 -13 48.5 -23t10.5 -37q21 -21 21 -213q8 -60 4 -91.5t-2 -61.5q2 -13 -4.5 -20t-22 -8.5t-30 -1.5t-38 1.5t-36.5 1.5q-5 0 -28 -1t-38.5 -1.5t-26.5 0.5q-192 2 -202 2q-3 0 -17 -1.5t-21.5 -2t-21 -0.5t-21 1.5t-16.5 4.5t-13 9.5t-5 15.5q-5 41 -9 201t-11 206z" />
<glyph unicode=";" horiz-adv-x="818" d="M88 358l12 15l107 14q45 0 125.5 3t115.5 3l15 -6q6 2 21 2.5t20 1.5q4 -2 13.5 -3.5t12.5 -2.5l90 -6l15 -4q3 0 7 1t7 1q39 -12 49 -22t10 -38q0 -32 13.5 -150t13.5 -163q0 -73 -11.5 -142t-44 -143.5t-83 -129.5t-136 -90.5t-196.5 -35.5q-31 0 -39 2q-1 12 -5 30.5 t-9.5 40t-7.5 30.5l-25 94q-3 3 -12 24t-13 25q95 18 154 87t59 108q0 8 -63.5 10.5t-128 10t-66.5 26.5q-5 41 -9 201t-11 206zM117 1071l12 14l65 15h121q14 0 37.5 3t34.5 3h49l14 -6q5 2 20.5 2.5t20.5 1.5q5 -2 14 -3.5t13 -2.5l49 -6l14 -5q3 0 8 1.5t7 1.5 q20 -7 29.5 -11t17.5 -10.5t10 -15t2 -23.5q21 -21 21 -213q8 -60 4 -91.5t-2 -61.5q2 -13 -4.5 -20t-22 -8.5t-30 -1.5t-38 1.5t-36.5 1.5q-5 0 -28 -1t-38.5 -1.5t-26.5 0.5q-192 2 -202 2q-3 0 -17 -1.5t-21.5 -2t-21 -0.5t-21 1.5t-16.5 4.5t-13 9.5t-5 15.5 q-5 41 -9 201t-11 206z" />
<glyph unicode="&#x3c;" horiz-adv-x="1158" d="M33 686q0 16 7 33.5t25 44.5t35.5 50.5t54 71t64.5 85.5q135 118 283 282l51 70q17 19 34.5 35t36 30t48.5 35q15 13 41 13q48 0 139 -64.5t162 -142t71 -111.5q0 -6 -87 -97.5t-185 -193t-115 -122.5v-5q0 -17 57.5 -88.5t126 -148.5t126 -142t57.5 -69 q0 -34 -67.5 -111.5t-153.5 -142t-131 -64.5q-26 0 -41 13q-33 25 -53 46t-46 54l-71 70q-43 33 -81 64.5t-67 58.5t-51.5 48t-41.5 41.5t-28.5 31t-21.5 24.5l-12 14q-93 125 -129.5 186.5t-36.5 100.5z" />
<glyph unicode="=" horiz-adv-x="1092" d="M116 526q0 17 5.5 32.5t10.5 15.5q43 0 128.5 3t134.5 3h223q58 0 152 -3t149 -3q13 0 21.5 -1.5t18.5 -6t15 -15t5 -26.5q0 -38 -3.5 -79.5t-3.5 -65.5q0 -56 -6 -77.5t-31 -21.5l-53 -3q-28 -3 -72 -3h-641q-2 0 -9.5 -0.5t-10.5 0t-9 2t-8.5 5t-6 9t-5 15t-1.5 22.5 q0 41 -1.5 99.5t-1.5 98.5zM116 963q0 16 5.5 31.5t10.5 15.5q43 0 128.5 3.5t134.5 3.5h223q58 0 152 -3.5t149 -3.5q13 0 21.5 -1.5t18.5 -6t15 -15t5 -26.5q0 -39 -3.5 -80.5t-3.5 -63.5q0 -56 -6 -77.5t-31 -21.5l-53 -3q-28 -3 -72 -3h-641q-2 0 -9.5 -0.5t-10.5 0 t-9 2t-8.5 5t-6 9t-5 15t-1.5 22.5q0 41 -1.5 99.5t-1.5 98.5z" />
<glyph unicode="&#x3e;" horiz-adv-x="1158" d="M73 1118q0 25 44.5 79t103.5 106.5t123.5 92.5t100.5 40q26 0 41 -13q78 -54 119 -100l51 -70q148 -164 283 -282q28 -38 64.5 -85.5t54 -71t35.5 -50.5t25 -44.5t7 -33.5q0 -39 -36.5 -100.5t-129.5 -186.5l-12 -14q-12 -14 -21.5 -24.5t-28.5 -31t-41.5 -41.5 t-51.5 -48t-67 -58.5t-81 -64.5l-71 -70l-25 -31q-36 -40 -74 -69q-15 -13 -41 -13q-45 0 -131 64.5t-153.5 142t-67.5 111.5q0 5 91.5 107t183.5 211t92 130v5q-17 21 -115 122.5t-185 193t-87 97.5z" />
<glyph unicode="?" horiz-adv-x="1135" d="M100 1199q0 13 3.5 42t3.5 40q4 110 11 157.5t17.5 60.5t35.5 15q114 6 228 6q99 0 180.5 -6.5t162.5 -22.5t141.5 -45.5t108 -72.5t72.5 -106.5t25 -144.5q0 -58 -32 -109t-85.5 -90t-109 -71.5t-116.5 -69.5t-94 -68v-30l2 -60q2 -66 2 -95q0 -37 -23 -37h-31 q-18 0 -57 2t-54 2q-17 0 -25 -4h-204q-47 0 -62 46t-15 145q0 21 0.5 60t0.5 53q0 57 31 93t72.5 52t102.5 46.5t103 69.5q19 12 38.5 33.5t19.5 37.5q0 38 -37.5 50.5t-160.5 12.5q-134 0 -233 -26q-1 -1 -5 -1q-17 0 -17 35zM170 289l13 14l65 15h121q14 0 37.5 3t34.5 3 h49l14 -6q4 2 20 2.5t21 1.5q6 -4 27 -6l49 -6l14 -5q2 0 7 1.5t7 1.5q39 -12 49.5 -22.5t10.5 -37.5q20 -23 20 -213q6 -53 6 -70q0 -13 -2.5 -27.5t-2.5 -28.5q0 -16 1 -27q0 -2 1 -4v-2q0 -24 -53 -24q-12 0 -39 1.5t-40 1.5q-3 0 -34.5 -1.5t-44.5 -1.5q-38 0 -91.5 2 t-73.5 2q-17 0 -50.5 -2.5t-57.5 -2.5q-53 0 -57 31q-5 37 -8.5 198t-12.5 209z" />
<glyph unicode="@" horiz-adv-x="1214" d="M97 706q0 83 27.5 147t69.5 101t99.5 61t109 32t105.5 8q52 0 134 -2.5t112 -2.5q28 0 127.5 1.5t174.5 1.5q14 0 27 -13t13 -27v-333q0 -115 -4.5 -191t-4.5 -109q0 -94 -40 -94q-73 0 -154 2.5t-129 2.5q-47 0 -66 13.5t-19 63.5v11q2 49 0 49q-30 -51 -61.5 -84 t-63 -47t-55 -18.5t-52.5 -4.5q-168 0 -259 101.5t-91 330.5zM504 739q0 -282 68 -282q62 0 90.5 56t30.5 136q-5 261 -70 261q-41 0 -68 -24t-36.5 -60.5t-12 -54.5t-2.5 -32z" />
<glyph unicode="A" horiz-adv-x="1880" d="M131 186q59 276 119 508l143 647q0 5 7 12.5t14 10.5q3 0 8.5 -1t9.5 -1q17 0 54 6t57 6q28 0 83.5 -5t88.5 -5q12 0 107 4t93 6q3 0 27.5 0.5t55 0.5h69.5t75.5 -0.5t68.5 -1.5t53 -3.5t24 -5.5q20 0 56 5t55 5q8 0 24 -6t25 -6q4 0 9.5 1t8.5 1q7 -3 14 -10.5t7 -12.5 l143 -647q60 -232 119 -508q1 -2 2 -9q4 -18 6.5 -30t7 -36.5t4 -41.5t-2.5 -34.5t-11 -27t-23 -9.5q-231 0 -235 4h-129q0 8 -21 8q-1 0 -3.5 -4t-4.5 -4h-6l-11 1q-11 1 -28.5 2t-37 2t-41 2t-36.5 1q-20 33 -61 240q-22 -4 -54.5 -5.5t-57 -1.5t-66 0.5t-58.5 0.5 q-42 -204 -59 -234q-7 0 -19 -4l-12 -4h-6q-8 0 -17 4t-11 4l-93 -3l-92 -5h-190q-2 0 -54.5 -1t-110 -2t-71.5 -1q-60 0 -18 179q1 7 2 9zM907 506h105q6 6 14 6h4q12 0 23 -2t24 -5.5t18 -4.5q-12 72 -34.5 202.5t-38 221t-15.5 92.5q-1 4 -2.5 13t-3.5 18q-6 -22 -6 -31 q0 -2 -15.5 -91t-38 -217.5t-34.5 -201.5z" />
<glyph unicode="B" horiz-adv-x="1680" d="M116 1208q0 64 9 105q1 5 3.5 19.5t4 21.5t7 18.5t13 17.5t21 10.5t32.5 4.5q48 0 188 9t195 9q138 0 394 -32q195 -25 274 -46q263 -70 295 -255q4 -26 4 -54q0 -172 -141 -260q-16 -8 -44.5 -19.5t-47.5 -21.5t-27 -22q1 -1 2.5 -4t3.5 -4q152 -63 223.5 -139 t71.5 -156q0 -117 -134 -225t-337 -165q-237 -69 -524 -69q-116 0 -188.5 4t-132.5 15.5t-90.5 34t-46 56.5t-15.5 86q0 28 3 114.5t3 105.5q0 117 -8.5 353.5t-8.5 354.5q0 24 -1 68.5t-1 64.5zM794 330q0 -15 17 -15q6 0 6 2q112 54 325 152q3 4 10.5 8.5t8.5 5.5 q-85 25 -155.5 32t-188.5 7q-23 0 -23 -28v-164zM829 928v-5.5v-4.5v-3.5t0.5 -3.5t2 -2.5t3 -2t4 -1t6.5 -0.5q12 0 123 51.5t113 51.5q1 0 7 2l9 3t6 4t3 8q0 18 -22.5 30t-57 17t-60.5 7t-49 2q-22 0 -38 -5t-25.5 -18t-14.5 -22.5t-7 -33.5t-2.5 -34t-0.5 -40z" />
<glyph unicode="C" horiz-adv-x="1384" d="M84 641q0 233 94 408q83 169 224 264.5t321 107.5q11 2 51 2q86 0 174 -18q174 -35 344 -135l-37 -266q-10 2 -57 14t-67 16.5t-55.5 9.5t-63.5 5q-54 0 -95 -18t-67.5 -50t-42.5 -80.5t-22.5 -104t-6.5 -126.5q0 -55 4 -92q22 -242 172 -242q112 0 281 123l18 -336 q-78 -76 -200.5 -124t-227.5 -48q-360 0 -514 117q-63 54 -108 129q-39 43 -66 102q-53 146 -53 342z" />
<glyph unicode="D" horiz-adv-x="1756" d="M119 870v451q0 19 17.5 36t36.5 17q102 0 236 -2t171 -2q68 0 238.5 3t277.5 3q52 0 102.5 -7t107.5 -26.5t107 -49t96.5 -78t79.5 -110.5t53 -150t20 -193q0 -284 -85.5 -448.5t-279 -240t-530.5 -75.5q-83 0 -270.5 2t-311.5 2q-55 0 -55 125q0 45 -5.5 317t-5.5 426z M783 270q72 -5 92 15q37 37 65.5 206.5t28.5 315.5q0 34 -2 74t-9.5 119.5t-29 130.5t-53.5 51q-43 0 -69 -21q0 -78 -12 -539z" />
<glyph unicode="E" horiz-adv-x="1419" d="M116 805q0 341 17 526q0 41 151 41q114 0 300 5.5t339.5 5t317.5 -12.5q23 0 35.5 -32t23.5 -99t19 -96q1 -17 -0.5 -28t-2.5 -17t-7 -8.5t-8.5 -3t-13 0t-15.5 0.5q-78 0 -228.5 -14.5t-197.5 -17.5q-16 0 -27.5 -75.5t-11.5 -123.5q0 -27 7 -35t25 -8q21 0 88.5 0.5 t98.5 0t82.5 -2.5t93.5 -6q5 -1 18.5 -2t16 -2t11 -3.5t11 -7t6.5 -12.5t7 -20l8 -183v-6q0 -32 -62 -41.5t-176 -9.5q-42 0 -105 1q-31 1 -44.5 1.5t-32.5 -1t-25 -2.5t-15.5 -6t-11.5 -9.5t-5 -15.5t-3 -21v-29q0 -20 -4 -72t-2 -83q66 0 198 6t196 6q18 0 47.5 -103 t29.5 -137q0 -43 -41 -43q-49 0 -143.5 -4t-146.5 -4q-107 0 -323.5 -1t-324.5 -1q-13 0 -46 4t-64.5 11t-30.5 14q0 44 -11 234.5t-11 240.5q0 34 -3.5 120.5t-3.5 180.5z" />
<glyph unicode="F" horiz-adv-x="1355" d="M116 694v647q0 7 2.5 11.5t6 6.5t8 3t8 1t7.5 -1h3q37 0 189 5t258 5q4 0 60.5 -1t59.5 -1q56 0 196.5 -3t236.5 -3q14 0 31 -4.5t27.5 -4.5t21.5 9q15 0 25.5 -7.5t16 -24t8 -34.5t3 -46t-0.5 -51.5t-2 -59t-1 -60.5q0 -7 -4 -12.5t-11.5 -8.5t-15 -5t-19 -2.5t-19 -0.5 t-19 0.5t-15.5 0.5h-92q-29 0 -60 -4.5t-65 -4.5q-42 0 -49 3q-9 -4 -16 -9q-15 -70 -15 -219l-1 -3q-1 -2 0.5 -8t6.5 -11h246q42 0 52 -28t10 -130v-37q0 -100 -4 -124t-26 -24q-12 0 -77.5 -4t-89.5 -4q-18 0 -27.5 -1.5t-22 -4t-28.5 -4.5q-22 -3 -37.5 -1t-30 -4 t-26.5 -23q0 -96 -0.5 -142.5t-2.5 -108.5t-7.5 -95.5t-14.5 -51.5q-17 0 -40 -1t-44.5 -2t-41 -2t-31.5 -2t-13 -1q-14 -2 -24 3t-14 5q-9 0 -17 -8h-170q-4 -4 -88 -14.5t-106 -10.5q-19 0 -32.5 15.5t-18.5 42t-7.5 48.5t-3 50t-0.5 33q-4 58 -7.5 165.5t-9 197.5 t-16.5 165z" />
<glyph unicode="G" horiz-adv-x="1694" d="M87 682q0 140 41 259t116 207t178.5 150.5t229.5 93.5t268 31q262 0 539 -133l-78 -348q-17 4 -61 16.5t-69 19t-63 14.5t-70 12t-62 4q-62 0 -108.5 -15t-86 -51.5t-60 -104.5t-20.5 -167q0 -314 176 -314q57 0 123 29q-7 226 -7 282v12q0 57 5.5 66.5t37.5 8.5h21h217 q32 0 83 1q107 1 134 -8t27 -57q0 -3 1 -35t1 -94v-209q0 -2 -4 -31t-4 -30q0 -251 -18 -285q-10 0 -23 -0.5t-30 -1.5t-26 -1l-46 -3h-6q-23 0 -23 6q-12 -4 -12 -6h-203q-1 0 -33 -1t-39 -1q-16 0 -24 41.5t-15 128.5q-21 -102 -127 -158.5t-256 -56.5q-87 0 -171.5 24 t-167 79.5t-145.5 137t-101.5 208t-38.5 280.5z" />
<glyph unicode="H" horiz-adv-x="1905" d="M115 815v39q0 65 6.5 266t10.5 205q50 50 94 47h117q5 0 204.5 -3t202.5 -3q21 0 34.5 -1.5t26 -7t19.5 -15t11 -25t4 -37.5q0 -7 -4.5 -53.5t-4.5 -57.5q0 -5 3 -18t3 -21q0 -26 -2 -78t-2 -83q30 0 109 -7.5t113 -7.5l3 140q4 95 4 154v11q0 27 0.5 38t3 26.5t8 20 t17 10.5t27 7t40.5 1q26 0 271.5 5t269.5 5q26 0 40.5 -2.5t27 -10t17 -23.5t4.5 -43q0 -83 -6.5 -215.5t-6.5 -213.5q0 -8 2.5 -21.5t2.5 -19.5l-48 -776q0 -13 -16 -30t-31 -17h-563q-27 0 -33 109l-22 376q-1 0 -107 4.5t-112 4.5q-15 0 -15 -35q0 -340 -9 -400 q-8 -51 -33 -58q-9 -3 -33 -3q-122 -8 -204.5 -11t-194 2.5t-187.5 24.5q-9 2 -16 24t-7 32z" />
<glyph unicode="I" horiz-adv-x="984" d="M120 186q1 30 2.5 220.5t5.5 287.5v647q0 3 0.5 6t1.5 5t2.5 3.5l2.5 2.5t4 2t4 1.5t5 0.5h5h5h5q68 0 203.5 1t205.5 1q4 0 24 3.5t55 3.5t89 -7q4 -4 9 -5t7 -1t9 3t8 3q26 0 39.5 -2t26.5 -10t18.5 -25t8.5 -44.5t3 -71.5v-400q0 -1 -6 -199.5t-6 -203.5 q-1 -40 -2 -104t-2 -102t-3 -81t-6.5 -70t-11.5 -41q-17 0 -40.5 -1t-45.5 -2t-41 -2t-31 -2l-12 -1h-6q-9 0 -18.5 4t-14.5 4q-16 -6 -16 -8h-190q-14 -4 -236 -4q-62 0 -61 181v7z" />
<glyph unicode="J" horiz-adv-x="1344" d="M47 55q-1 19 0 32t5.5 51.5t6.5 58.5q0 55 11 104q3 8 4 8q106 -38 171.5 -50.5t157.5 -10.5q18 0 32.5 10.5t24 31t15 35.5t11.5 39.5t7 28.5q7 110 7 228l3 211q1 32 1 88l-2 421q0 11 6.5 16t10.5 5h17q68 0 204 1t206 1h201q32 0 47.5 -3.5t28 -19t16.5 -45.5t4 -85 v-400q0 -2 -4 -103t-4 -106q0 -75 -3.5 -126.5t-15 -120.5t-40.5 -124.5t-74 -97.5q-103 -95 -267 -148q-158 -51 -346.5 -44.5t-351.5 73.5z" />
<glyph unicode="K" horiz-adv-x="1750" d="M114 758q0 5 3.5 57t3.5 59q0 6 -3.5 41t-3.5 39q0 7 3.5 63t3.5 62q0 22 -3.5 126t-3.5 110q-1 12 1 21t8 15.5t12 11.5t18 7.5t19.5 4.5t22 2.5t21.5 0.5h21.5h18.5q153 0 281 -0.5t199.5 -1t86.5 -0.5q10 0 17.5 -3t11.5 -9t6.5 -12t3.5 -16.5t1 -17t-0.5 -18 t-0.5 -16.5q1 -57 -4.5 -153.5t-5.5 -126.5q17 0 28 3.5t15.5 6t16.5 15t18 18.5q7 5 106.5 100t200.5 184t125 92q5 0 16.5 -12t23 -26t15.5 -17q2 -5 38.5 -38.5t41.5 -41.5q11 -18 59.5 -81t65.5 -99v-4q0 -24 -26 -56.5t-63.5 -67.5t-45.5 -46q-8 -4 -97.5 -81 t-97.5 -81q-9 -8 -22 -13.5t-18 -11.5t-5 -20q0 -23 12.5 -41t41 -41t34.5 -29q9 -9 107.5 -96t166.5 -158t68 -100q0 -24 -16 -39q-23 -20 -75 -51t-75 -51q-8 -7 -34 -30t-46 -38.5t-39 -25.5q-23 -12 -87 -51q-30 -18 -57.5 -20t-45.5 9.5t-27 19.5t-13 15l-216 248 q-9 16 -46.5 56t-47.5 40q-17 0 -17 -16q0 -20 -3 -127t-3 -125q0 -6 0.5 -15.5t0.5 -14t-0.5 -11.5t-2 -9.5t-4.5 -7t-8.5 -4.5t-13.5 -2.5t-19 0.5q-63 -4 -129 -4.5t-154 1t-131 1.5h-26t-33 0.5t-32 1t-25 0.5h-11l-92 8l-6 17q-1 0 -3.5 77t-5.5 180t-3 157 q-17 243 -17 307z" />
<glyph unicode="L" horiz-adv-x="1281" d="M122 57v451q0 49 -0.5 190t-0.5 213t2.5 165.5t8.5 144.5v13v36.5t3 36.5t8 35.5t16.5 23t27.5 10.5q126 0 264.5 -3t212.5 -3h17q31 0 45.5 -0.5t34.5 -5.5t28 -16t14.5 -31t6.5 -51q0 -4 -5.5 -47t-5.5 -48q0 -7 2.5 -31.5t5.5 -47t3 -23.5q2 -139 2 -545v-8 q0 -26 6 -32.5t37 -6.5q45 0 151.5 1t167.5 1q21 0 36 -13t15 -28v-393q0 -6 -1 -10t-8 -11.5t-21 -12t-43 -8t-70 -3.5h-299q-115 0 -305 2t-303 2q-18 0 -35.5 17.5t-17.5 35.5z" />
<glyph unicode="M" horiz-adv-x="2078" d="M118 451q1 38 6 186.5t5 236.5q0 6 -3 41t-3 39q0 37 5 106t5 128q0 8 -2 55t-2 55q-6 6 -6 15q0 21 16.5 35t42 20t45 8t37.5 2q131 0 246 -0.5t181 -1t79 -0.5q19 0 71 -96q3 -7 43 -111t75 -190t40 -90q13 -33 31 -33q19 0 33 33q2 7 86 188.5t92 202.5q15 32 38.5 64 t32.5 32q13 0 79.5 0.5t181 1t245.5 0.5q22 0 51.5 -1t71.5 -1q19 0 19 -618q0 -94 -17 -307q0 -55 2 -157.5t3.5 -179.5t2.5 -77l-6 -17l-92 -22h-25q-24 -1 -55 -1.5t-47 -0.5q-91 0 -311 16q-1 0 -9.5 -1t-13.5 -1q-30 0 -30 482q0 16 -17 16q-3 0 -10 -12.5t-16 -35.5 t-16.5 -43.5t-17 -47.5t-13.5 -37q-2 -3 -20 -40.5t-38.5 -75t-53.5 -69.5t-65 -32q-119 0 -157 4q-67 105 -115 204t-64.5 142t-21.5 43q-16 0 -16 -16v-50q0 -94 -0.5 -147.5t-3 -131t-9.5 -115.5t-18 -38q-5 0 -13.5 1t-9.5 1q-216 -16 -311 -16q-16 0 -47 0.5t-55 1.5 h-25l-92 22l-6 17q-2 0 -4.5 73.5t-5 186.5t-3.5 154z" />
<glyph unicode="N" horiz-adv-x="1787" d="M133 1298q-9 47 20.5 63.5t78.5 16.5q107 0 235 8t180 7.5t65 -17.5q47 -64 334 -495q1 41 3.5 168t4.5 199.5t6 76.5q50 50 95 47h116q6 0 153.5 -3t151.5 -3q52 0 73.5 -16.5t21.5 -69.5q0 -7 -4.5 -53.5t-4.5 -57.5q0 -5 3.5 -18t3.5 -21q0 -26 -2 -333.5t-2 -337.5 q0 -338 -9 -398q-7 -52 -32 -60q-10 -3 -35 -3q-216 2 -373 2q-4 0 -22 -1t-31 -0.5t-31.5 3.5t-36 12t-31.5 23l-208 293q-79 136 -95 136t-16 -16q0 -29 -3 -191t-3 -183q0 -6 0.5 -15.5t0.5 -14t-0.5 -11.5t-2 -9.5t-4.5 -7t-8.5 -4.5t-13.5 -2.5t-19 0.5 q-218 -16 -312 -16q-15 0 -46 0.5t-55.5 1t-25.5 0.5l-92 22l-6 17q-1 0 -4 77.5t-5.5 178.5t-2.5 158q-14 123 -14.5 267.5t3.5 309.5t1 270z" />
<glyph unicode="O" horiz-adv-x="1759" d="M94 641q0 417 192.5 599.5t630.5 182.5q68 0 135.5 -8.5t143 -30t141.5 -55t128 -88.5t105.5 -125.5t70 -170t26.5 -218.5q0 -139 -19 -249.5t-53 -191t-87 -140t-114.5 -96.5t-143.5 -59.5t-165.5 -31t-187.5 -8.5q-74 0 -132.5 2.5t-128.5 11t-124.5 23.5t-113 41 t-101.5 62t-83 88t-65 117.5t-40 153t-15 191.5zM788 670q0 -523 92 -523q95 0 95 564q0 46 -2 101.5t-9.5 165.5t-29 180.5t-54.5 70.5q-22 0 -38.5 -22t-26 -70t-15.5 -91.5t-8.5 -121.5t-3 -123.5t-0.5 -130.5z" />
<glyph unicode="P" horiz-adv-x="1719" d="M119 870v451q0 19 17 36t36 17q102 0 236 -2t171 -2q68 0 238.5 3t277.5 3q75 0 145.5 -11t149.5 -43t137 -82t96 -136.5t38 -198.5q0 -158 -40 -271.5t-117.5 -180t-180 -97t-236.5 -30.5h-280q2 -18 1 -101t-1 -112q0 -68 -25.5 -86.5t-87.5 -18.5q-88 0 -233 -3 t-277 -3q-55 0 -55 125q0 45 -5 317t-5 426zM823 578q0 -7 92 -7q94 0 94 379q0 19 -2 44t-9.5 74.5t-29 81.5t-53.5 32q-29 0 -49 -69t-28.5 -178.5t-11.5 -193.5t-3 -163z" />
<glyph unicode="Q" horiz-adv-x="1718" d="M63 641q0 417 192.5 599.5t631.5 182.5q68 0 135 -8.5t142.5 -30t141.5 -55t128 -88.5t105.5 -125.5t70 -170t26.5 -218.5q0 -217 -46.5 -367t-127.5 -232.5t-203 -125.5q136 -177 136 -225q-1 -25 -32 -49.5t-80 -50.5t-63 -37q-5 -1 -33 -10t-44 -13q-9 -6 -77.5 -25.5 t-76.5 -17.5q-1 -5 -5 -7.5t-8 -2.5h-3q-21 0 -70 49l-3.5 7t-3 4t-2 1h-2.5h-1q-9 7 -13 13l-161 266q-12 23 -31 53q-108 8 -193 28t-168.5 68t-138.5 120.5t-89 191.5t-34 276zM758 670q0 -523 92 -523q94 0 94 564q0 46 -2 101.5t-9.5 165.5t-29 180.5t-53.5 70.5 q-22 0 -38.5 -22t-26 -70t-15.5 -91.5t-8.5 -121.5t-3 -123.5t-0.5 -130.5z" />
<glyph unicode="R" horiz-adv-x="1787" d="M111 1161q0 113 16 178.5t60 65.5q244 0 938 -19q133 -4 235.5 -38.5t163 -91.5t91 -127t30.5 -150q0 -174 -117 -291q-50 -50 -116 -82l32 -28q50 -42 56 -46q7 -9 51 -63t79 -97.5t66 -92.5t31 -68q0 -25 -30 -50.5t-77.5 -53.5t-62.5 -41q-10 -5 -46 -25t-63 -32 t-55 -21q-2 -1 -13 -5q-143 -50 -140 -42q-5 -11 -17 -11q-27 0 -73 43q-4 15 -11 15q-3 0 -12 10l-174 258q-14 24 -41.5 62t-36.5 38q-14 0 -16.5 -86t-7 -172t-23.5 -86q-6 0 -15 1l-9 1q-331 -18 -428 -18q-15 0 -47.5 0.5t-58.5 1.5h-26l-73 25l-8 16q-1 1 -14 166.5 t-19 261.5q-17 253 -17 317q0 7 4.5 61t4.5 60q0 44 -5.5 127t-5.5 129zM831 659q12 -6 51 -6q145 0 145 297q0 10 -1 22.5t-4.5 43t-13 56t-24.5 52.5t-41.5 42.5t-60.5 15.5q-46 0 -51 -523z" />
<glyph unicode="S" horiz-adv-x="1476" d="M88 436v6q6 26 26 37q78 -48 150 -71t158 -23q5 0 36.5 -1.5t53 -0.5t50.5 4.5t48 15.5t27 31q-30 16 -82 41.5t-87.5 43t-83.5 45.5t-80.5 53t-68 61t-56.5 74t-34.5 88t-13.5 106q0 83 22.5 151.5t61 117t93.5 86t115 60t131.5 37t137 20t137.5 5.5q97 0 189.5 -11 t179 -26.5t127.5 -19.5q7 -2 18 -16t17 -15q2 0 2 1t2 1q1 -24 8.5 -100t7.5 -119q0 -105 -45 -133l-188 23q-4 0 -20 1t-29 1q-41 0 -103.5 -7.5t-106.5 -16.5t-44 -13q0 -79 163 -135q155 -44 264 -150.5t109 -210.5q0 -34 -8 -65q-9 -97 -52 -175.5t-108.5 -130.5 t-151.5 -88t-179 -51.5t-193 -15.5q-151 0 -293.5 33t-239.5 92q-35 112 -67 360z" />
<glyph unicode="T" horiz-adv-x="1479" d="M77 1196q0 9 0.5 35.5t1.5 49t1 23.5q0 44 103 44q50 0 154 -2t154 -2h737q87 0 127.5 -7.5t47.5 -17.5t7 -34v-339q0 -32 -55 -32q-37 0 -131.5 0.5t-133.5 0.5q-12 0 -15.5 -1.5t-6 -11.5t-2.5 -36q0 -278 -22 -563v-197q0 -17 -1 -30t-5 -23t-6.5 -16.5t-11 -12 t-12.5 -8t-17 -5t-18 -3t-23 -2t-25 -2.5q-74 0 -213.5 -3t-259.5 -3q-23 0 -38 25t-22.5 76.5t-10.5 111t-2.5 147t2.5 166t4.5 186t2.5 189.5q0 1 -8 6h-226q-77 0 -77 291z" />
<glyph unicode="U" horiz-adv-x="1813" d="M113 586q0 106 13.5 330t13.5 344q0 16 -4 43t-4 43q0 34 69 34q25 0 94 0.5t105 0t94.5 -2.5t109.5 -8t101 -16q57 -16 72.5 -42.5t15.5 -105.5q0 -93 -7 -348.5t-7 -443.5q0 -84 6.5 -114t32.5 -30q74 0 178 60v823q-10 55 -10 145q0 39 14.5 51.5t67.5 12.5 q42 0 153.5 5t149.5 9q2 0 12 -0.5t26.5 -1.5t30.5 -1l62 -3q88 -10 133.5 -22t54.5 -21.5t9 -23.5q0 -207 -12.5 -608.5t-12.5 -606.5q0 -42 -18 -62t-58 -20q-80 0 -448 -16q-52 0 -80.5 19t-40.5 63q-238 -119 -486 -119q-86 0 -153.5 18.5t-112.5 47t-76.5 79t-48.5 97 t-26 120t-11 129.5t-2 142z" />
<glyph unicode="V" horiz-adv-x="1880" d="M131 1188q-1 6 -6.5 33t-8.5 50t-4 49t8 41t27 15q14 0 71.5 -1t110 -2t54.5 -1h190q0 -2 21 -8q5 0 12 4t16 4h7l14 -1t35.5 -2t46 -2t51.5 -2t47 -1q10 -17 21.5 -59t20 -88t23.5 -121t27 -129q0 -5 40 -204t40 -200q0 -13 6 -31q3 8 4 18t2 13q0 1 40 200t40 204 q13 60 33 163.5t33 157.5t26 76q15 0 36.5 1t41 2t37 2t28.5 2l11 1h6q2 0 4.5 -4t3.5 -4q21 0 21 8h129q4 4 235 4q11 0 18.5 -5t11 -14.5t6 -20.5t1.5 -26.5t-2 -27.5t-4 -29t-5 -26t-5 -23t-4 -16q-59 -276 -119 -508l-143 -647q0 -5 -7 -12.5t-14 -10.5q-3 0 -8.5 1 t-9.5 1q-9 0 -25 -6t-24 -6q-19 0 -55 5t-56 5q-230 -10 -745 -10q-20 0 -57 6t-54 6q-4 0 -9.5 -1t-8.5 -1q-7 3 -14 10.5t-7 12.5l-143 647q-60 232 -119 508z" />
<glyph unicode="W" horiz-adv-x="2397" d="M98 1315q0 61 37 61q14 0 71.5 -1t109.5 -2t54 -1h89q13 -1 20 -8q2 0 11 4t18 4h6q1 0 12 -1t28 -2t36.5 -2t40.5 -2t36 -1q13 -24 26 -82t34 -176t33 -180q0 -4 19 -111t19 -108q7 -30 7 -31q2 7 3.5 17.5t2.5 13.5q0 1 19.5 108t19.5 111q61 316 83 394q4 16 7.5 23.5 t15 16.5t34.5 12.5t60 3.5q174 0 209 -2q1 0 5 1t6 1q16 0 16 -4q107 -1 130 -5q18 -2 19 -3q2 0 12.5 4t22.5 4h3t7 0.5t9.5 0.5h11.5h12t11.5 -1t10 -2t7.5 -3t4 -4q8 -28 27 -163.5t41 -232.5q0 -5 19 -142.5t19 -138.5q1 -3 2.5 -13t4.5 -18q3 8 4 18t2 13 q0 1 19.5 138.5t19.5 142.5q13 60 33 163.5t33 157.5t26 76q33 0 58 4l34 4h6q2 0 4.5 -4t3.5 -4q21 0 21 8h108q0 4 236 4q37 0 37 -61q-21 -47 -21 -127q-63 -296 -139 -570l-143 -585q-21 -7 -21 -23l-18 2q-10 0 -25 -1.5t-24 -1.5q-61 0 -221.5 0.5t-217.5 0.5 q-20 0 -60 1t-58 1l-19 -2q-20 4 -20 23l-138 676l-135 -676q-8 -33 -67 -33q-35 0 -94 -1t-95 -1q-76 0 -166 1t-153 1q-11 0 -35 6t-35 6l-18 -2q-21 4 -21 23l-143 647q-78 389 -98 508q-21 18 -21 127z" />
<glyph unicode="X" horiz-adv-x="1871" d="M102 1382l27 4q4 1 8.5 1.5t8 1t6 1t4 1l1.5 0.5q4 0 269.5 -11.5t271.5 -11.5q11 0 45 -47t69 -105.5t63 -108t32 -58.5q0 -7 4.5 -17t9.5 -17t7 -7q25 23 36 41q12 30 101 174.5t108 144.5q7 0 272.5 11.5t268.5 11.5l3.5 -1t10.5 -2t13 -2l28 -4q0 -33 -31.5 -81.5 t-60.5 -81.5q-5 -5 -115 -195.5t-116 -196.5q-43 -63 -82 -106l64 -119q12 -22 32 -59t32.5 -59.5t18.5 -30.5q62 -103 138.5 -246t76.5 -182q0 -2 1 -11t0.5 -13t-5 -8.5t-12.5 -4.5h-8q-41 0 -151.5 2.5t-188 2.5t-101.5 -5q-4 -1 -12.5 0.5t-17.5 4.5t-17.5 6.5 t-13.5 6.5l-6 2q-17 0 -23 -6l-47 45v16q0 3 -1.5 3.5t-4.5 -1t-7.5 0t-8.5 6.5l-103 184q-14 31 -38 72t-33 41q-52 -101 -119 -254l-41 -68l-49 -45q0 2 -21 6l-6 -2q-5 -3 -13.5 -6.5t-17.5 -6.5t-17.5 -4.5t-12.5 -0.5q-24 5 -205 7t-256 13h-8q-9 0 -13 4.5t-5 8.5 t0 13t1 11q0 30 56 133.5t100 173.5q15 23 105 203l81 166l-21 35q-23 38 -40 71q-7 7 -117 186.5t-115 184.5q-1 2 -9 13.5t-12.5 17.5t-13 19.5t-14 22.5t-13 22.5t-12 24t-9.5 22.5t-7 22.5t-2 19.5z" />
<glyph unicode="Y" horiz-adv-x="1678" d="M58 1204q0 40 125 96q39 5 82.5 22t50.5 17q17 0 103 21.5t149 42.5q4 0 6 1q2 0 5 0.5t4 0.5q36 0 55 -18.5t41 -61.5q9 -17 34.5 -49t28.5 -37q12 -17 46.5 -77.5t61.5 -99t40 -38.5q5 0 16 16t25.5 44t29.5 59t32 69.5t29 66t24.5 57.5t15.5 36q5 18 8 26t9 19t16 15 t24 4q104 0 277 -67t227 -138q0 -55 -25 -103q-62 -135 -186.5 -412.5t-189.5 -420.5l-6 -3t-5 -3q-122 -237 -248 -475q-4 -9 -24 -9v13q-5 0 -10 -2t-6 -2q-5 0 -8 3t-9 15q-51 6 -164 39q-2 1 -27 3.5t-28 4.5q-73 17 -191 63.5t-118 71.5q0 48 57 164q4 10 45 76t41 94 q0 27 -33.5 62.5t-33.5 60.5q-5 0 -7.5 -1t-3.5 -1q-4 0 -8 8q-56 73 -135 201t-137 244q-25 48 -65 150t-40 132z" />
<glyph unicode="Z" horiz-adv-x="1439" d="M111 1196q0 10 1.5 45.5t3.5 67.5l1 32q25 25 52 25q8 0 25 -2t24 -2q50 0 149.5 6t149.5 6q98 0 291.5 3t296.5 3q217 0 217 -45v-327q0 -142 -434 -592q89 0 134 1q39 0 121 0.5t117 0.5q19 0 35 -14t16 -27v-332q0 -6 -1 -10t-8 -11.5t-21 -12t-43 -8t-70 -3.5h-360 q-115 0 -305.5 2t-303.5 2q-18 0 -35.5 17.5t-17.5 35.5v377q130 129 221 225q90 92 156 171.5t66 101.5q0 8 -11 8l-389 6q-78 0 -78 250z" />
<glyph unicode="[" horiz-adv-x="1133" d="M117 72q0 42 4 148.5t4 144.5v677q0 38 -4 144t-4 149q0 10 1.5 51t3.5 78l1 37l10 10q44 -4 90 -4q39 0 108 3t109 3q96 0 210.5 3.5t223.5 3.5q18 0 80 -18t62 -27v-267q0 -14 -13.5 -29t-27.5 -18q-52 17 -156 17q-28 0 -51 -11q-23 -76 -23 -239q0 -7 -0.5 -12 t-0.5 -12t-0.5 -46t-0.5 -106l-5 -19q-5 -19 -5 -22q0 -9 5 -32t5 -24q0 -67 0.5 -106t0.5 -46t0.5 -12t0.5 -12q0 -163 23 -239q23 -11 51 -11t78 -2t78 -2q11 0 26 -10t15 -16v-267q0 -8 -59.5 -16t-82.5 -8q-40 0 -182 -2t-252 -2q-38 0 -108 8t-109 8q-46 0 -90 -4 l-10 10q0 1 -1.5 33t-3 67.5t-1.5 45.5z" />
<glyph unicode="\" horiz-adv-x="1120" d="M97 1102q-63 282 29 282l18 -6h1q2 1 4 1.5t5 1.5l4.5 1.5t0.5 1.5h36q5 4 22.5 6.5t29.5 2.5q1 0 18.5 -4.5t20.5 -4.5t8.5 3.5t5.5 5.5q8 0 32 1t40 1t34 -2.5t27 -8.5q9 0 25 5.5t26 5.5q24 0 67.5 -6.5t63.5 -6.5q4 0 8 1t9 1q0 -2 11 -10t11 -12l217 -668 q62 -209 150 -528q1 -2 4 -15.5t5 -23t5 -26t4.5 -29t2.5 -28t-1.5 -26.5t-6 -21t-11.5 -15t-19 -5q-104 0 -112 5h-232q0 2 -18 8q-5 0 -13.5 -4t-17.5 -4h-6l-23 2q-24 2 -55.5 4t-52.5 2q-12 14 -24.5 41.5t-27.5 74.5t-26.5 84.5t-31.5 108t-31 109.5q0 4 -64.5 203 t-64.5 200t-54 147q-31 80 -53 144z" />
<glyph unicode="]" horiz-adv-x="1133" d="M117 -68v267q0 4 69.5 7t126.5 3q20 0 35 14.5t23 44.5t13 61t6 78.5t1 82t-1 87t-1 78.5q0 4 5 84t5 115q0 2 -5 20t-5 21q-8 100 6 248q1 17 -0.5 25.5t-7.5 11t-12.5 2t-22.5 -2t-29 -1.5h-165q-16 0 -28.5 8.5t-12.5 21.5v267q0 9 61.5 27t79.5 18q115 0 279.5 -6.5 t371.5 -6.5q46 0 90 4l10 -10l1 -37q2 -37 4 -78t2 -51q0 -73 -4.5 -209t-4.5 -184v-367q0 -105 4.5 -263t4.5 -240q0 -28 -3.5 -66t-7.5 -63t-6 -27h-10q-59 0 -153.5 -6t-143.5 -6h-54q-140 0 -207.5 0.5t-154.5 3t-123 8.5t-36 16z" />
<glyph unicode="^" horiz-adv-x="1241" d="M110 463q36 169 78 331l124 419q0 11 12 16h165l98 -2h284q6 0 16.5 1t15.5 1h13q12 -5 12 -16l125 -419q31 -120 78 -331q0 -2 4 -20t6 -32.5t2 -31.5t-6 -27t-19 -10q-8 0 -45 1t-71 1l-35 1h-86q0 6 -12 6l-2 -3q-2 -3 -4 -3h-1l-18 1q-19 2 -43.5 3.5t-39.5 1.5 q-8 14 -17 49.5t-22 101.5t-22 106q0 2 -26 154.5t-26 153.5q0 3 -0.5 6.5t-2 7.5t-1.5 6q-16 -43 -12 -70q0 -1 -22.5 -128t-22.5 -130q-41 -231 -57 -257l-81 -3l-45 -3h-4q-8 0 -13 3t-6 3q-13 -4 -13 -6h-94q-1 0 -35 -0.5t-71 -1.5t-46 -1q-41 0 -12 121z" />
<glyph unicode="_" horiz-adv-x="1206" d="M116 -165q0 58 1.5 147.5t1.5 149.5q0 11 3 20.5t10 15.5t14 10.5t19 7t21.5 4.5t26 2t26.5 0.5t28.5 0t27.5 -0.5h573q29 0 65 -4l48 -3q69 0 87 -25t18 -87q0 -39 3 -107.5t3 -132.5q0 -55 -135 -55q-49 0 -150 1t-163 1h-190q-55 0 -147 1t-137 1q-18 0 -36 17.5 t-18 35.5z" />
<glyph unicode="`" horiz-adv-x="866" d="M37 2093q0 15 13.5 22.5t55.5 16.5q4 0 8 -1t7 -1l14 4l88 6q3 1 12 2.5t13 3.5q5 -1 20.5 -1.5t22.5 -2.5l12 6q32 0 112 -3t132 -3l88 -14l16 -14q43 -156 74 -316q4 -41 25.5 -196t21.5 -236q0 -61 -39 -61q-19 0 -56 1t-55 1h-59l-8 6l-14 -8q-14 2 -76 2 q-17 0 -43.5 42.5t-60.5 114t-46 92.5q-26 47 -65 137t-66 138q-41 64 -95.5 160t-51.5 102z" />
<glyph unicode="a" horiz-adv-x="1652" d="M123 162q52 243 104 440l139 545q0 5 5.5 11.5t11.5 8.5h16q15 0 40 4.5t42 4.5q25 0 73 -4.5t77 -4.5q71 0 144.5 5.5t158.5 5.5q13 0 133 -3.5t137 -3.5q8 0 21.5 -4t21.5 -4h16q17 -6 17 -20l145 -541q57 -218 105 -440q1 -3 4 -19t5.5 -28.5t5 -31t1.5 -32 t-3.5 -26.5t-10 -20t-19.5 -7q-198 0 -202 4h-113q0 8 -16 8q-1 0 -4 -4t-5 -4h-6l-24 2q-24 2 -56.5 4t-52.5 2q-20 37 -53 207q-19 -4 -47 -5.5t-49.5 -1.5t-56.5 0.5t-50 0.5q-36 -170 -53 -201q-5 0 -15.5 -4t-11.5 -4h-4q-8 0 -16 4t-11 4l-80 -3q-16 -1 -37 -2t-32 -2 l-10 -1h-166q-1 0 -46.5 -1t-95 -2t-61.5 -1q-11 0 -18.5 7t-10 20t-3 26.5t2 32.5t4.5 31t5 28t4 19zM799 438h90q6 6 12 6h4q7 0 13 -0.5t11.5 -2t10.5 -2.5t11 -2.5t11 -2.5q-10 63 -29 176.5t-32.5 192t-13.5 80.5q-2 2 -3 6t-2 10t-2 10q-6 -18 -6 -26q0 -1 -13.5 -79 t-32.5 -190.5t-29 -175.5z" />
<glyph unicode="b" horiz-adv-x="1439" d="M117 900q0 129 7 201q2 1 10 10t10 11q29 29 72 59q52 -2 151.5 6t141.5 8q95 0 329 -26q176 -23 250 -46q228 -68 228 -249q0 -52 -9 -94q-12 -36 -45 -73.5t-65 -51.5q-3 -3 -38 -18.5t-36 -16.5q-14 -6 -27 -19l7 -8q64 -27 104.5 -51t77.5 -59.5t54 -84.5t17 -114 q0 -29 -2 -31q-7 -14 -37 -47.5t-55 -52.5q-19 -17 -44 -30.5t-38.5 -18.5t-50.5 -17q-155 -62 -172 -67q-109 -16 -252 -27q-26 -6 -86 -6q-1 0 -7 -3.5t-7 -3.5h-53.5h-57t-49.5 0.5t-54.5 2.5t-47.5 4.5t-53 7t-48 10.5l-65 29q-6 2 -12.5 2.5t-8 2.5t-4.5 7.5t-8 20.5 q-13 35 -15 81t1 103t2 82q-15 358 -15 567zM679 274q0 -8 14 -8q6 0 6 2l272 127l15 12q-31 10 -33 12q-16 2 -83 12.5t-105 10.5h-66q-20 0 -20 -29v-139zM705 780v-4.5v-4.5t0.5 -3.5t1.5 -3.5t3 -2t5 -1h5q2 0 10 2t10 2q174 82 178 82l21 12q-16 21 -68.5 34.5 t-87.5 13.5q-23 0 -38.5 -7.5t-23.5 -16t-11.5 -30t-4 -33t-0.5 -40.5z" />
<glyph unicode="c" horiz-adv-x="1217" d="M85 549q0 159 46 289t126.5 215t188.5 130.5t233 45.5q216 0 446 -133l-28 -232q-6 2 -33.5 8.5t-37.5 9t-34 8t-38.5 7.5t-33.5 4t-36 2q-45 0 -79 -14.5t-62.5 -49.5t-44 -102t-15.5 -164q0 -288 151 -288q85 0 240 104l20 -291q-68 -66 -174 -106.5t-198 -40.5 q-56 0 -100.5 2.5t-99 10t-98 20t-90 35.5t-82 54t-68 76.5t-53.5 102t-33.5 132t-12.5 165.5z" />
<glyph unicode="d" horiz-adv-x="1538" d="M119 749v387q0 15 14.5 30t30.5 15q88 0 203 -2t147 -2q58 0 204.5 3t239.5 3q63 0 124.5 -12.5t129 -49t117 -93t82.5 -153.5t33 -221q0 -122 -17 -215t-55.5 -167.5t-97.5 -125t-146 -84t-198 -48.5t-256 -15q-70 0 -231.5 2t-268.5 2q-47 0 -47 107q0 38 -4 272 t-4 367zM688 232q58 -5 80 13q32 33 56 178t24 270q0 29 -1.5 63.5t-8 103t-24.5 112t-46 43.5q-37 0 -60 -17q0 -241 -20 -766z" />
<glyph unicode="e" horiz-adv-x="1295" d="M116 698q0 292 15 449q0 38 168 37h5h4.5h4.5q58 0 173.5 -5t174.5 -5q11 0 30.5 1t29.5 1l12 -9q103 23 313 23q5 0 10 -8h64q14 0 23.5 -12.5t15.5 -35t10 -46.5t9.5 -55.5t11.5 -53.5q0 -57 -21 -57q-1 0 -7 4t-7 4q-10 2 -25.5 -3t-23.5 -5q-9 0 -20.5 4t-18.5 4 q-14 0 -47.5 -7t-40.5 -8q-24 -3 -63 -1.5t-85.5 -2.5t-62.5 -16v6q-16 0 -25.5 -59t-9.5 -99q0 -23 6.5 -30.5t22.5 -7.5q14 0 20 6q13 0 23 -6h174q6 6 14 6q14 2 33.5 -5.5t21.5 -7.5q6 -1 17.5 -2t14.5 -1.5t9.5 -3t9.5 -6.5t6.5 -11.5t6.5 -18.5l43 -135q3 -17 -13 -28 t-50 -15.5t-66.5 -6t-81.5 -1.5h-90h-25h-41.5t-28 -2.5t-21 -8t-9.5 -15t-4 -25.5q0 -12 1 -16q0 -5 1 -7q0 -5 -0.5 -12.5t-1.5 -17t-1 -14.5l-3 -25q0 -14 1 -40.5t1 -29.5q62 0 187.5 6t186.5 6q7 0 11 -13.5t7 -36.5t5 -30q3 -14 10 -40t9.5 -45.5t2.5 -49.5 q0 -1 -0.5 -5.5t-0.5 -7.5q-1 -3 -1 -9l-14 -15q-3 -1 -8 -1q-4 -1 -12 -1q-16 0 -28.5 4.5t-14.5 4.5q-3 0 -14 -6t-13 -9v10q-3 0 -24.5 -1t-30.5 -1q-4 0 -14.5 3.5t-14.5 3.5q-75 0 -106 -15h-650q-4 0 -17.5 28t-19.5 50q-36 61 -36 371q0 27 -3.5 95.5t-3.5 145.5z " />
<glyph unicode="f" horiz-adv-x="1222" d="M116 575v584q0 3 5 10.5t10 10.5q3 0 8 -1t8 -1q16 0 47 5t49 5q25 0 78 -4t82 -4l8 6h90q6 -6 15 -6q2 0 18 3t17 3q20 0 28 -6h469q6 -6 15 -6q1 0 7 3t7 3q45 0 65.5 -74t20.5 -182q0 -6 -3.5 -11t-10 -7.5t-13.5 -4t-17.5 -2t-17 -1t-17 0t-13.5 0.5h-82 q-26 0 -54 -4t-59 -4q-40 0 -45 2l-14 -8q-12 -52 -12 -197l-1 -2q-1 -2 0 -7.5t7 -10.5h37q70 0 137 -13t86 -43q16 -25 16 -86q0 -27 -1 -70.5t-1 -68.5q-25 -14 -82.5 -24.5t-93.5 -10.5q-3 0 -6.5 4t-7.5 4q-5 0 -10 -4t-11 -4q-4 0 -10 3t-10 3q-1 0 -15 -14 q-9 -1 -23 -1.5t-22.5 -1t-19.5 -6.5t-19 -18q0 -99 -1 -146.5t-6 -99.5t-15 -71q-15 0 -36 -0.5t-41 -1.5t-37 -2t-29 -2h-11q-12 -2 -22 2t-13 4q-8 0 -14 -6h-153q-1 0 -81.5 -1t-95.5 -1q-17 0 -28 13.5t-16 37.5t-7 44t-3 45.5t-1 29.5q-2 36 -15.5 184.5t-13.5 228.5z M870 358q0 -1 1 -1q1 -1 3 -1t2 1v1q0 4 -2 4q-4 0 -4 -4z" />
<glyph unicode="g" horiz-adv-x="1487" d="M87 582q0 151 55 273t151.5 202t228 123t284.5 43q226 0 467 -115l-68 -301q-14 3 -84 22t-114 27t-85 8q-53 0 -92.5 -13t-73.5 -44.5t-51.5 -90.5t-17.5 -145q0 -270 151 -270q53 0 107 25q-17 187 -23 217v80q0 14 11 14h12q8 0 23.5 4t25.5 4q13 0 37.5 -4t38.5 -4 q9 8 53 8q19 0 48 3t34 3l23 6l55 -2q55 -2 55 -4h45l8 -4v-57q2 -15 2 -113v-180q0 -1 -3 -26t-3 -27q0 -213 -16 -246q-23 0 -69 -2l-40 -2h-4q-20 0 -20 4q-10 0 -10 -4h-177l-27 -1q-28 -1 -34 -1q-26 0 -33 147q-17 -89 -109 -137.5t-223 -48.5q-74 0 -147 20.5 t-144.5 68.5t-125.5 118.5t-87.5 179.5t-33.5 242z" />
<glyph unicode="h" horiz-adv-x="1693" d="M116 721q2 32 7.5 224t7.5 224q0 7 6 7q11 0 34.5 5t43.5 3q15 -4 123 -2t112 2q38 0 115 -2t117 -2q41 0 51 -14.5t10 -67.5q0 -8 1 -46.5t1 -47.5q0 -5 1 -17t1 -18q0 -25 -2 -64.5t-2 -56.5q0 -22 5.5 -31.5t12.5 -9.5t27 3t35 3q1 0 8 -0.5t17 -0.5h22h23.5t21.5 1 t16 2.5t7 3.5v84q0 19 3 136t3 137h6q6 -1 9.5 -1t8 2t5.5 7h98q31 0 89.5 -4t88.5 -4q23 0 130 4t128 4q40 0 55 -8.5t15 -40.5v-162q0 -29 -6 -131t-3 -150l-20 -649q0 -12 -13 -27.5t-26 -15.5h-143q-44 0 -148 5t-162 3h-34q-30 0 -38.5 17.5t-10.5 72.5l-21 338 q-10 -2 -57 0.5t-56 5.5h-84q-14 0 -14 -30v-340q0 -53 -2.5 -58.5t-26.5 -13.5q-198 -6 -288 -6q-176 0 -252 20q-21 3 -21 49q-4 64 -14 199.5t-15.5 245t-5.5 213.5z" />
<glyph unicode="i" horiz-adv-x="842" d="M113 676v497q0 29 94 29q31 0 94 -4t99 -4l8 6h90q6 -6 15 -6q2 0 18 3l16 3q5 0 29 -6h152l4 -352q-13 -35 -13 -160v-399l-8 -78q-3 -30 -3.5 -68.5t-1.5 -59t-5 -41.5t-15.5 -29.5t-31.5 -8.5q-2 0 -4 2t-4 2q-7 0 -29 -6q-27 -2 -48.5 2t-27.5 4q-8 0 -14 -6h-154 q-2 0 -82 -11.5t-94 -11.5q-17 0 -28 14t-16 37.5t-7 44t-3 45.5t-1 29q-2 43 -15.5 237t-13.5 296z" />
<glyph unicode="j" horiz-adv-x="1050" d="M41 -34q-1 18 -0.5 28t5.5 45.5t6 49.5q0 58 9 91q2 5 3 5q41 -15 59 -20.5t45 -9.5t58 -3q18 0 33 16.5t21 33.5t14 45t9 32q0 13 2.5 77t2.5 118l3 238q1 37 1 102l-2 364q2 5 6.5 12t7.5 7t7.5 -1t8.5 -1q14 0 44 5t48 5q25 0 74 -4t78 -4q5 5 17.5 7t24 2t29.5 -0.5 t23 -0.5q8 -8 15 -8q2 0 16.5 4t15.5 4q21 0 27 -8h86q0 -4 14 -4l15 4q44 0 63 -69.5t19 -174.5v-315l-3 -88q-4 -87 -4 -92q0 -64 -3 -109t-13 -104t-35 -107t-63 -84q-89 -83 -232 -129q-64 -20 -123 -29q-197 -19 -354 35z" />
<glyph unicode="k" horiz-adv-x="1538" d="M114 1116q0 41 2 43q7 17 21 24.5t26 7.5t34.5 -2.5t32.5 -2.5q132 0 247 -0.5t181.5 -1t79.5 -0.5q17 0 17 -80q2 -52 -3.5 -135.5t-5.5 -106.5q15 0 24.5 3t13.5 6t13 12.5t17 15.5q2 2 91 86.5t175.5 160t106.5 79.5q4 0 14 -10.5t20 -22.5t13 -14q20 -34 88 -103.5 t90 -122.5v-4q0 -20 -22.5 -48t-55 -58t-39.5 -39q-7 -4 -85 -71t-83 -70q-8 -7 -19 -11.5t-15.5 -9.5t-4.5 -18q0 -15 9 -29.5t17.5 -23t26.5 -23t23 -19.5q7 -7 92.5 -83t144 -137.5t58.5 -86.5q0 -21 -14 -33q-21 -19 -61 -47t-58 -43q-84 -65 -113 -80 q-7 -3 -54.5 -25.5t-51.5 -23.5q-40 -19 -55 -4l-41 41q-4 7 -10 10.5t-11 10.5l-162 182q-12 17 -42.5 50.5t-39.5 33.5q-14 0 -14 -14q0 -18 -3 -110t-3 -108q-3 -8 -2 -20.5t0 -26t-6 -14.5h-33q-42 -3 -91 -4t-84 -1t-92.5 0.5t-88.5 0.5q-14 0 -41 -0.5t-48 -1.5h-22 l-78 18l-6 15q-1 0 -3 67t-4.5 156t-2.5 135q-6 414 -6 637q0 7 -2 47t-2 47z" />
<glyph unicode="l" horiz-adv-x="1157" d="M114 430l9 88q2 53 4 135.5t3 133t4 116t8.5 106.5t13.5 82t21 64.5t30 32.5q113 0 236.5 -3t189.5 -3q6 0 16 -1q29 -2 41 -4t25 -10.5t17 -26.5t3 -50q0 -7 -5 -42.5t-7 -41.5q0 -7 3 -48.5t3 -44.5q1 -13 1.5 -64t2.5 -91.5t8 -52.5q0 -18 -3 -82.5t-1 -110.5t12 -82 q21 -8 47 -8q194 0 271 14q12 -3 23.5 -16.5t11.5 -26.5l-15 -350q-3 -25 -97 -37t-159 -12q-21 0 -61 -3t-58 -3q-39 0 -55 6q-23 0 -140.5 7t-123.5 7q-35 2 -99 -2t-92 -4q-61 0 -77 -2l-9 8q1 7 0.5 37.5t0 72t1.5 50.5q2 46 -1 150.5t-3 111.5z" />
<glyph unicode="m" horiz-adv-x="1822" d="M118 387q1 42 3.5 114.5t4 133t1.5 117.5q0 6 -2 36t-2 33q0 31 4 91.5t4 109.5q0 7 -2 48t-2 48q-4 4 -4 12q0 18 13.5 30.5t36 17.5t38.5 6.5t32 1.5q113 0 212 -0.5t156.5 -1t68.5 -0.5q16 0 61 -82q10 -31 69.5 -181.5t65.5 -156.5q14 -27 27 -27t29 27 q2 6 36.5 82.5t72.5 160t44 95.5q13 28 33 55t29 27q11 0 68 0.5t156 1t212 0.5q18 0 43.5 -1t60.5 -1q17 0 17 -533q0 -119 -15 -264q0 -47 2 -135t4 -154.5t3 -66.5l-7 -15l-80 -18h-21q-21 -1 -47 -1.5t-40 -0.5q-100 0 -268 14q-1 0 -8 -1t-11 -1q-26 0 -26 414 q0 14 -15 14q-8 0 -63 -151q-1 -1 -17 -35t-33.5 -65t-46 -59t-55.5 -28q-104 0 -137 4q-57 90 -98 175.5t-55.5 122t-18.5 36.5q-14 0 -14 -14v-48q0 -80 -0.5 -125.5t-2.5 -111t-8 -97.5t-16 -32q-4 0 -10.5 1t-7.5 1q-168 -14 -269 -14q-13 0 -40 0.5t-49 1.5h-21l-78 18 l-6 15q-2 0 -4 64.5t-4 159t-3 132.5z" />
<glyph unicode="n" horiz-adv-x="1560" d="M116 649q0 5 2.5 50t2.5 51q0 4 -2.5 34.5t-2.5 34.5q0 5 2.5 53t2.5 54q0 1 1 19.5t2 41t1 33.5q0 5 -2 46t-2 48q0 1 -3.5 6.5t-1.5 7.5q21 56 121 56q93 0 195 6.5t139.5 6t48.5 -14.5q56 -79 287 -426q0 103 4 241t8 140q44 44 80 41h101q6 0 133 -3.5t129 -3.5 q45 0 63.5 -14t18.5 -59q0 -8 -3.5 -46.5t-3.5 -47.5q0 -4 2.5 -15.5t2.5 -17.5q0 -23 -2.5 -288t-2.5 -290q0 -302 -9 -351q-7 -40 -30 -44q-7 -2 -24 -2q-73 0 -110 1q-32 0 -105 0.5t-107 0.5q-4 0 -19.5 -1t-26.5 -0.5t-26.5 3t-30 10t-26.5 19.5l-180 252 q-7 13 -40.5 48.5t-41.5 35.5q-6 0 -10 -4.5t-4 -10.5q0 -24 -2 -146t-2 -141q-1 -3 -5 -27.5t-10 -27.5h-26q-184 -14 -268 -14q-13 0 -39.5 0.5t-47.5 1t-22 0.5l-80 20l-4 13q-2 0 -6 139.5t-4 216.5q-15 163 -15 264z" />
<glyph unicode="o" horiz-adv-x="1549" d="M90 561q0 118 38.5 235.5t106 213t171 155.5t223.5 60q49 0 73 -4q3 2 15 2q177 0 266 -12t168 -56q163 -108 236 -242t73 -333q0 -196 -92 -365q-6 -13 -19.5 -34t-15.5 -21l-14 -8q-28 -42 -65.5 -74.5t-73.5 -53.5t-86.5 -36t-88.5 -22.5t-96.5 -11.5t-92.5 -4.5 t-93 -0.5q-15 0 -44 4t-44 4q-81 0 -193 35h-14q-8 0 -12.5 1t-12.5 4.5t-14.5 7.5t-24 15t-34.5 21q-62 35 -110.5 98.5t-75.5 137.5t-40.5 146.5t-13.5 137.5zM688 475q0 -24 7.5 -143t12.5 -137l23 -78q4 -15 29 -15q30 0 51.5 78t30.5 190.5t12.5 191.5t3.5 126 q0 183 -28 262q-13 37 -31 37q-21 0 -40.5 -34.5t-27.5 -106.5l-43 -330v-41z" />
<glyph unicode="p" horiz-adv-x="1518" d="M119 750v391q0 17 15 32t32 15q88 0 204.5 -2t149.5 -2q58 0 205.5 3t242.5 3q65 0 126.5 -9.5t130 -37.5t119 -71.5t83.5 -119t33 -172.5q0 -137 -35.5 -236t-103 -157.5t-156.5 -85.5t-205 -27h-243q0 -19 -1 -36.5t-2.5 -28.5t-2.5 -19t-2 -12.5t-1 -5.5q0 -4 4.5 -41 t4.5 -41q0 -59 -22 -74.5t-77 -15.5q-77 0 -202.5 -3t-239.5 -3q-16 0 -26 9.5t-14.5 28.5t-5.5 34t-1 38q0 38 -5 274.5t-5 371.5zM731 494q2 -2 10 -3q22 -2 72 -2q80 0 80 330q0 8 -0.5 19t-2.5 37t-7 48.5t-13.5 46t-23 37t-33.5 13.5q-77 0 -82 -526z" />
<glyph unicode="q" horiz-adv-x="1536" d="M63 541q0 369 170 530.5t559 161.5q60 0 119.5 -7.5t126.5 -27t125.5 -49.5t112.5 -78.5t93 -111t62 -150.5t23 -193q0 -192 -41.5 -324.5t-112.5 -205t-178 -111.5q119 -154 119 -198q-1 -22 -28.5 -43.5t-70 -44.5t-55.5 -33q-8 -2 -21 -6.5t-24.5 -8t-23.5 -6.5 q-6 -6 -67.5 -23t-67.5 -15q-1 -5 -5 -6.5t-7 -1.5t-3 -1q-21 0 -61 43q-6 11 -13 11q-6 6 -10 12l-143 235q-1 2 -5.5 10t-10 18.5t-11.5 19.5q-67 5 -123 15t-114 30t-103.5 50.5t-86 77t-67 106.5t-42 142.5t-15.5 182.5zM678 567q0 -463 82 -463t82 498q0 41 -1.5 90.5 t-8 147t-25.5 159.5t-47 62q-20 0 -34.5 -19t-23 -60.5t-14 -80t-7.5 -106t-2.5 -107t-0.5 -113.5v-8z" />
<glyph unicode="r" horiz-adv-x="1537" d="M114 633q0 5 3 52t3 52q0 4 -3 36t-3 36q0 32 4 93.5t4 115.5q0 8 -1 49t-1 49q-6 6 -6 12q0 16 14.5 26.5t37.5 15.5t40.5 6.5t34.5 1.5q243 0 416.5 -7.5t300 -26t204 -44.5t123 -69t61.5 -92.5t16 -121.5q0 -37 -8 -71t-17 -57t-28 -45.5t-30 -34t-33 -26.5t-27 -17.5 t-23 -12.5q16 -43 70 -118t103.5 -139.5t55.5 -83.5q43 -19 -89 -93q-9 -24 -135.5 -88t-136.5 -54q-83 80 -141.5 162t-184.5 283q-3 3 -5 3q-3 0 -7.5 -1t-7.5 -2l-4 -1q-1 -18 -3 -134.5t-6.5 -194.5t-13.5 -78q-5 0 -12.5 1t-8.5 1q-226 -16 -329 -16q-13 0 -41 0.5 t-50 1.5h-23l-64 21l-6 14q-2 0 -13 132.5t-20.5 280t-9.5 183.5zM692 698q32 0 72.5 10t59.5 25q37 22 57.5 45t20.5 56q0 59 -33 89t-78 30h-90q-1 -28 -3.5 -80t-4 -94.5t-1.5 -80.5z" />
<glyph unicode="s" horiz-adv-x="1270" d="M85 276v11q0 26 20 30q135 -51 262 -51q10 0 34.5 -0.5t38 -0.5t35.5 1t35 4.5t26.5 9.5t19.5 16t6 23q0 32 -24.5 56t-54 35.5t-72 25.5t-60.5 23q-18 7 -55 35q9 0 -9 10q-59 34 -63 53v10q-35 0 -64 53.5t-42 112.5t-13 96q0 67 21.5 123.5t55 97.5t88.5 73.5 t106.5 53t126 35.5t130.5 22.5t135.5 11.5t126 4.5t116.5 0.5q16 -5 41 -10q50 -11 59.5 -43.5t17.5 -214.5q12 -23 -23.5 -33.5t-96 -15.5t-122 -13t-106.5 -34.5t-45 -71.5q0 -15 4 -22.5t19 -18.5q25 -13 79 -38.5t80 -38.5t70 -38t66.5 -43t52.5 -47t44.5 -57t25 -65.5 t10.5 -79.5q0 -61 -15 -99q-50 -131 -195.5 -219t-295.5 -90l-301 -6q-6 3 -68 13.5t-119 25.5t-59 31z" />
<glyph unicode="t" horiz-adv-x="1338" d="M73 1049q0 8 1.5 40t3 61t1.5 30l8 8q16 -2 78 -2q45 0 136 1t136 1q12 0 191.5 -1t216.5 -1q16 6 55 6q18 0 58 -3t61 -3q5 0 53.5 1t81.5 1q119 0 119 -14v-351q0 -12 -12.5 -26t-24.5 -17q-24 5 -48 8.5t-55 5t-46 2t-55.5 0t-47.5 -0.5q-11 0 -19 -7t-13 -23 t-8 -29.5t-4 -38.5t-1.5 -38t0 -39.5t0.5 -31.5q0 -21 1 -60.5t1 -56.5q0 -48 -9 -155t-9 -146q0 -122 -13.5 -146t-73.5 -28q-14 -1 -22 -2q-66 0 -194.5 1t-241.5 1q-31 41 -31 299q0 63 2 226t2 259l-6 6h-203q-69 0 -69 263z" />
<glyph unicode="u" horiz-adv-x="1639" d="M134 602q0 14 1 68.5t1 58.5l6 14q1 0 4.5 67.5t6.5 150t3 116.5q0 13 -3 38t-3 38q0 31 62 31h30q25 0 33 4l250 -4q0 -6 8 -6l13 6q108 0 144 -25.5t36 -116.5q0 -32 3 -90t3 -90v-20q-14 -299 -14 -480v-15v-22t0.5 -23t2.5 -24.5t5 -19.5t8 -15t12 -5q20 0 91 31 t71 40v674q-8 55 -8 129q0 3 -0.5 13.5t0 15t1.5 12.5t4 11.5t9 6.5t15 3q4 0 9 -4t5 -9v-2q47 21 295 21h35l217 -6q9 -4 11.5 -6t2.5 -7q0 -2 -1 -7t-1 -7q2 0 8 2t8 2q6 0 6 -8q0 -694 -20 -1073q0 -15 -43 -58q-11 8 -35 8q-2 0 -7 -4t-7 -4q-77 -14 -258 -14 q-141 0 -182 8q-13 7 -21.5 28.5t-14.5 39.5t-12 18q-9 0 -19 -3.5t-22 -12t-19.5 -14.5t-21.5 -18t-18 -15q-50 -29 -119.5 -43.5t-105.5 -14.5q-16 0 -66.5 -1t-75 -0.5t-63.5 6.5t-70 18q-40 15 -71.5 45t-51.5 63.5t-34 83.5t-21 88t-10 95t-3.5 87.5t0.5 82t1 63.5z " />
<glyph unicode="v" horiz-adv-x="1581" d="M119 1010l-3 12q-3 13 -4 19.5t-4 21.5t-3.5 25t-1 23.5t1.5 22.5t5 18t9.5 13t15.5 4q191 0 199 -4h125q0 -2 16 -8q2 0 8.5 4t16.5 4h6l60 -4q47 -4 106 -4q7 -11 14 -33.5t15 -60.5t13.5 -68.5t16 -87t16.5 -88.5q0 -3 36 -203t36 -202v-8q0 -5 2 -19q2 5 2.5 14.5 t3.5 12.5q0 2 34 202t34 203q10 47 28 138.5t29.5 136t22.5 63.5q20 0 52.5 2t56.5 4l24 2h2q2 0 4.5 -4t3.5 -4q16 0 16 8h113q1 0 45.5 1t93.5 2t60 1q9 0 15.5 -4.5t10 -12.5t5.5 -17.5t1 -23t-1.5 -23.5t-3 -24.5t-4.5 -22t-4.5 -19t-2.5 -12.5q-58 -266 -102 -435 l-164 -552q0 -15 -17 -21h-16q-7 0 -21 -4t-22 -4q-15 0 -45.5 4t-48.5 4q-3 -3 -24 -5t-49.5 -3t-64 -1h-63t-52 0.5t-26.5 0.5q1 1 -31 3t-63.5 3.5t-34.5 1.5q-27 0 -74 -4t-71 -4q-12 0 -30 4t-23 4h-19q-6 2 -11 9t-5 12l-164 552q-44 169 -102 435z" />
<glyph unicode="w" horiz-adv-x="2046" d="M98 1106q0 53 31 53q15 0 106 -2t92 -2h74q17 -2 17 -8q3 0 10 4t14 4h6l23 -2t54.5 -4t51.5 -2q7 -13 14 -38t15 -64t14.5 -74.5t17 -93.5t17.5 -97q0 -4 15.5 -93.5t15.5 -90.5q0 -11 6 -27q2 6 3.5 15t2.5 12q0 1 15.5 90.5t15.5 93.5q11 55 29 151.5t29 145.5t22 70 q51 0 69 2q0 10 21 10q147 0 176 -2q1 0 4 1t4 1q14 0 14 -4h107q18 -2 18 -8q2 0 9.5 4t13.5 4h6q1 0 18.5 -4t24.5 -4q7 -11 14 -33.5t15 -58t14.5 -68.5t17 -85.5t17.5 -88.5q0 -4 16.5 -118.5l16.5 -114.5q-1 -4 0 -8q0 -10 4 -19q3 6 4.5 15.5t1.5 11.5l17 115 q16 115 16 118q7 36 17.5 88.5l17 85t14.5 68t15 58t14 34.5q27 0 48 4l29 4h6q1 0 2 -4t3 -4q9 0 13 1.5t4.5 3t0.5 3.5h92l44 1q44 2 93 2.5t62 0.5q29 0 29 -53q-17 -41 -17 -107q-46 -213 -117 -477l-120 -491q-19 -7 -19 -21l-14 2q-7 0 -20 -5t-21 -5q-17 0 -47.5 4 t-46.5 4q-10 -10 -101 -10q-53 0 -96.5 5t-77.5 5q-9 0 -28 -4t-29 -4t-22.5 5t-20.5 5l-17 -2q-16 3 -16 21l-115 567l-114 -567q-17 -7 -17 -21l-16 2q-4 0 -11 -5t-12 -5q-20 0 -55 4t-57 4q-4 -10 -47 -10q-53 0 -99.5 5t-76.5 5q-15 0 -45.5 -4t-47.5 -4q-9 0 -28 5 t-29 5l-16 -2q-19 3 -19 21l-119 542q-67 330 -84 426q-16 18 -16 107z" />
<glyph unicode="x" horiz-adv-x="1645" d="M102 1194l47 6q3 0 232.5 -9t234.5 -9q17 0 93.5 -124t88.5 -153q0 -4 2.5 -10.5t5.5 -11.5t5.5 -9t3.5 -4q16 15 31 35q12 29 88.5 153t93.5 124q5 0 234.5 9t232.5 9l47 -6q0 -29 -26 -70.5t-52 -70.5q-5 -5 -99.5 -169.5t-101.5 -168.5q-13 -20 -47 -63l-24 -31 l56 -102q66 -121 71 -128q25 -41 48 -82t58.5 -105.5t57.5 -113.5t22 -67q0 -2 0.5 -6.5t0.5 -7.5t-0.5 -7t-2 -6.5t-4.5 -4t-8 -1.5h-6q-36 0 -132 2.5t-162.5 2.5t-86.5 -5q-5 -1 -12 0t-15.5 3.5t-15.5 5.5t-12 5l-5 2q-2 0 -9 -2t-9 -2l-41 39v12q0 3 -1 3t-3.5 -0.5 t-6.5 0.5t-8 5l-90 160q-12 27 -32 61.5t-29 34.5q-42 -84 -103 -219l-36 -57l-41 -39l-19 4l-7.5 -3t-17 -6.5t-19 -6t-13.5 -0.5q-23 6 -180.5 7t-218.5 9h-7q-6 0 -9.5 2t-4.5 6.5t-1 7.5t0.5 9t0.5 8q0 25 51 121t84 145q24 40 160 316l-18 31q-28 48 -35 63 q-7 4 -102 159.5t-99 159.5q-78 108 -78 160z" />
<glyph unicode="y" horiz-adv-x="1499" d="M56 961q0 15 48.5 42t91.5 44q43 18 95 41.5t94.5 41.5t97.5 39q16 6 41 6q24 0 43 -41q125 -262 160 -330q23 -44 39 -44q9 0 16 16l141 366q6 25 35 41.5t55 8.5q92 -26 202.5 -70.5t179.5 -86.5q12 -7 19 -15t8.5 -18t2 -17.5t-3.5 -18t-6 -15.5t-8 -16t-7 -12 l-326 -711q-41 -84 -120.5 -234t-98.5 -187q-13 -25 -24 -35t-26 -10t-57.5 15.5t-55.5 18.5q-11 2 -28.5 10.5t-26.5 10.5q-2 1 -25 3.5t-25 4.5q-39 11 -82.5 27.5t-101 41.5t-82.5 35q-12 4 -12 21q0 16 6 24q15 25 36 62t39 67t39 58q11 14 27 51l14 33 q-31 56 -81.5 135.5t-72.5 101.5q-11 19 -83 145t-85 150q-20 30 -56 105t-36 95z" />
<glyph unicode="z" horiz-adv-x="1274" d="M110 1034q0 8 1.5 38.5t3 58t1.5 28.5q21 23 44 23q8 0 22.5 -2t20.5 -2q43 0 129 5t129 5q85 0 252 3t255 3q189 0 189 -39v-285q0 -126 -375 -510h322q17 0 31 -11t14 -23v-287q0 -5 -1 -8.5t-7.5 -10t-18.5 -10.5t-37 -7t-61 -3h-312q-99 0 -263.5 2t-262.5 2 q-15 0 -30 15t-15 30v326q97 97 190 195q191 201 191 235q0 8 -8 8l-336 4q-68 0 -68 217z" />
<glyph unicode="{" horiz-adv-x="1023" d="M50 749l6 221q95 26 152.5 80t57.5 138q0 225 105 363t288 138q116 0 228 -74l31 -304q-19 -3 -58.5 -6t-60.5 -7q-40 -8 -63.5 -34.5t-23.5 -60.5q0 -112 -31 -211t-94 -162q-21 -21 -45.5 -34t-67.5 -27.5t-59 -20.5q17 -8 47 -19.5t46.5 -18.5t38.5 -21t40 -32 q62 -64 93.5 -160.5t31.5 -202.5q0 -34 23.5 -60.5t63.5 -34.5q21 -4 60.5 -7t58.5 -6l-31 -304q-112 -74 -228 -74q-183 0 -288 140.5t-105 370.5q0 90 -59 154t-141 64q-16 0 -20.5 79t4.5 133z" />
<glyph unicode="|" horiz-adv-x="810" d="M118 -20q0 550 8 714v819q0 3 0.5 6t1.5 5t2.5 3.5l2.5 2.5t4 2t4 1.5t5 0.5h5h5h5q42 0 119.5 1t119.5 1q4 0 24 3.5t55 3.5t89 -7q3 -3 6 -4.5t7.5 -1t6 0.5t7 2.5t6.5 2.5q26 0 39.5 -2t26.5 -10t18.5 -25t8.5 -44.5t3 -71.5v-572q0 -1 -6 -199.5t-6 -203.5 q-2 -47 -3 -126.5t-2 -151.5t-2.5 -143t-6 -120t-11.5 -63q-17 0 -40.5 -1t-45.5 -2t-41 -2t-31 -2l-12 -1h-6q-9 0 -18.5 4t-14.5 4q-16 -6 -16 -8h-190q-4 -4 -66 -4t-61 181v7z" />
<glyph unicode="}" horiz-adv-x="1023" d="M105 186q19 3 58.5 6t60.5 7q40 8 63.5 34.5t23.5 60.5q0 106 29 202t86 161q18 18 40.5 32t37 21t47 19.5t47.5 18.5q-17 6 -48 16.5t-47.5 17t-38 19t-38.5 29.5q-115 126 -115 373q0 34 -23.5 60.5t-63.5 34.5q-21 4 -60.5 7t-58.5 6l31 304q112 74 228 74 q183 0 288 -138t105 -363q0 -84 57.5 -138t152.5 -80l6 -221q9 -54 4.5 -133t-20.5 -79q-82 0 -141 -64t-59 -154q0 -230 -105 -370.5t-288 -140.5q-116 0 -228 74z" />
<glyph unicode="~" horiz-adv-x="1344" d="M90 637v4q0 44 1 69.5t8 75.5t20.5 82.5t42 73t67.5 64.5t101.5 41t141.5 17q65 0 131 -33t101 -76q6 -8 22 -31.5t26.5 -37.5t29.5 -26.5t40 -12.5q53 0 53 42q0 28 -11 80.5t-11 58.5q0 16 31 16h11l283 1q25 0 45 -78.5t20 -168.5q0 -6 -0.5 -15t-0.5 -15 q-2 -45 -31.5 -97t-77 -96t-117 -73.5t-142.5 -29.5q-69 0 -127 24t-96.5 58t-72 67.5t-69.5 57.5t-73 24q-31 0 -42 -43.5t-14.5 -87t-17.5 -43.5q-3 0 -4 1q-59 18 -110.5 28.5t-76.5 14t-45 4.5t-26 7.5t-8 16t-2 36.5z" />
<glyph unicode="&#xa1;" horiz-adv-x="821" d="M88 -6q14 41 14 86q0 26 13.5 114t13.5 111q0 10 5.5 88.5t8.5 97.5q3 16 15 112l14 112q1 4 4 34.5t7.5 57.5t8.5 34q9 5 64.5 11t75.5 6h25q65 0 98 -0.5t77 -2.5t64.5 -8t23.5 -16q5 -25 16 -73t17 -76t11 -63t5 -60q0 -1 5 -39.5t8 -42.5l51 -299q22 -67 22 -152 q0 -22 -12.5 -35t-40.5 -24t-33 -14h-344q-6 3 -23 5t-39 3.5t-47 2.5t-48 3t-42 5t-29.5 8.5t-8.5 13.5zM176 1173l6 178q0 10 70 14.5t141 5t72 1.5q37 6 112 6q15 0 23 -0.5t18 -1.5t14.5 -4l10.5 -7t7.5 -12t4 -17t2.5 -24.5t0.5 -31t-0.5 -40.5q-6 -158 -6 -202 q0 -22 -52.5 -32.5t-119.5 -10.5h-80q-25 0 -93 1t-89 1q-14 0 -26.5 12.5t-10.5 22.5q0 20 -3 43t-1 98z" />
<glyph unicode="&#xa2;" horiz-adv-x="1212" d="M37 549q0 159 46 289t126.5 215t188.5 130.5t233 45.5q84 0 168 -12l22 296q0 10 7 15t13 5.5t19 0.5h5v2q19 0 31 -0.5t25 -3t20.5 -7t14.5 -12t10.5 -18.5t5.5 -27.5t1.5 -37t-2.5 -47.5l-15 -210q93 -30 191 -77l-28 -232q-146 30 -183 34q-7 -73 -7 -87 q0 -1 -22 -200t-22 -203q-4 -17 -6.5 -56.5t-5.5 -60.5q89 19 223 98l20 -291q-108 -90 -273 -129q-19 -140 -33 -165q-35 -22 -65.5 -27.5t-45 0t-14.5 15.5l11 159q-58 1 -105 4t-104 11t-101.5 21.5t-92.5 36.5t-84.5 54t-70 76t-55 101t-34 131t-12.5 163zM635 573 q0 -168 92 -239q11 210 23 360l23 182q-138 -67 -138 -303z" />
<glyph unicode="&#xa3;" horiz-adv-x="1508" d="M70 35q0 24 12.5 134t16.5 110q45 -21 105 -21q29 0 51 29.5t30.5 61t8.5 54.5q0 13 -6 127q-142 0 -142 45q0 46 -1 116t-1 114q0 14 24 26.5t46 12.5h78q17 185 86 340q63 133 174 202.5t258 69.5q258 0 518 -153l-37 -267q-8 2 -57 14t-68 16.5t-55 9.5t-64 5 q-48 0 -69 -84v-155h123q161 0 161 -41q0 -47 -4 -101.5t-4 -85.5q0 -19 -1.5 -29t-8.5 -22.5t-21 -18.5t-40.5 -10t-65.5 -4h-203q0 -63 -1 -114l-3 -115q36 14 90 11q53 -3 144 14q23 0 47 2.5t52.5 8.5t46 9.5t52.5 12.5t45 12l37 -267q-133 -78 -328 -115 q-199 -38 -370 -38q-75 0 -109 16q-28 11 -411 -11q-29 15 -93 28l-40 41q0 1 -1.5 4.5t-1.5 5.5z" />
<glyph unicode="&#xa4;" horiz-adv-x="1223" d="M96 816q0 101 36.5 200t101.5 173q-22 26 -55 68l-24 30q-14 17 -14 30.5t8 23t27 23.5q7 6 20 21t27 27q25 20 73 -41q34 -44 69 -85q66 29 136 29q37 0 54 -3q2 2 13 2q122 0 186 -9t118 -41q4 4 31 38t43 55q10 11 15.5 16.5t14.5 14t15.5 11t14.5 2.5t14 -6 q13 -12 25.5 -27t20.5 -22q18 -16 25.5 -25t7 -22.5t-14.5 -30.5q-16 -17 -41.5 -50.5t-41.5 -52.5q65 -65 95 -145t30 -190q0 -185 -107 -320l-10 -14q14 -16 40 -48l39 -48q5 -5 1.5 -17.5t-12.5 -18.5q-15 -11 -40 -28.5t-43 -31.5q-7 -5 -12.5 -7.5t-11.5 -1t-9.5 2.5 t-9 6.5t-7.5 8t-8 11t-8 10.5l-50 61q-101 -39 -306 -39q-127 -2 -222 66l-78 -75q-24 -31 -36 -36q-15 -6 -31 9q-16 13 -40.5 31t-40.5 32q-8 7 -11.5 19t1.5 17l106 105q-62 60 -93 140t-31 152zM428 835q0 -15 1 -26q0 -4 3 -18t13.5 -38.5t26.5 -46t46.5 -37.5 t69.5 -16q52 0 92 18t61.5 43t35 55.5t17 50t3.5 32.5q0 8 -1 21t-11.5 45.5t-30 58t-63 46t-103.5 20.5q-25 0 -50 -9t-51 -29.5t-42.5 -64.5t-16.5 -105z" />
<glyph unicode="&#xa5;" horiz-adv-x="1685" d="M78 1225q0 18 41 41t84 34q35 9 79 23t54 16q4 1 85.5 15.5t125.5 27.5q4 0 6 1q2 0 5 1h3q37 0 56 -18t40 -61q3 -21 17.5 -62t15.5 -45q12 -38 89 -255l58 -165q39 94 96 232q100 242 117 301q1 3 4.5 13t4.5 13t4 10t5.5 9.5t6.5 7t8.5 6t10.5 3t14 1.5 q104 0 277 -53.5t227 -110.5q0 -42 -25 -102q-36 -64 -76 -134t-88.5 -154.5t-75.5 -131.5h41q119 0 119 -26q0 -36 -3 -77t-3 -61q0 -19 -4.5 -28.5t-27 -17t-68.5 -7.5h-179l-53 -94q-7 -18 -35 -58h254q119 0 119 -26q0 -36 -3 -76.5t-3 -60.5q0 -19 -4.5 -29t-27 -17.5 t-68.5 -7.5h-287v-196q-21 -8 -21 -15q-1 2 -1.5 5.5t-2.5 5.5q-7 -1 -14 -8q-14 -2 -17 0t-3 14q-57 -10 -168 -10q-4 0 -29 -4.5t-27 -4.5q-71 -5 -183.5 4.5t-115.5 34.5q-2 10 -2 174h-192q-11 0 -34 -0.5t-35 0t-30.5 1t-28.5 2t-20.5 5t-15 9t-4.5 12.5q0 33 -1 82.5 t-1 81.5q0 8 17 16t34 8h293q-49 86 -70 152h-4q-2 0 -3.5 -1t-2.5 -1q-4 0 -6 2h-88q-11 0 -34 -0.5t-35 0t-30.5 1t-28.5 2t-20.5 5t-15 9t-4.5 12.5q0 33 -1 82.5t-1 81.5q0 8 17 16t34 8h84q-77 142 -121 254q-28 60 -66 157t-38 126z" />
<glyph unicode="&#xa6;" horiz-adv-x="738" d="M117 -190q0 328 7 552v81q0 19 31 19q37 0 105 0.5t106 0.5h178q37 0 52.5 -7t24 -35.5t8.5 -92.5q0 -27 -5.5 -91t-5.5 -78q0 -131 -3 -237q-6 -245 -19 -267q-24 0 -60.5 -1.5t-64.5 -3.5t-30 -2l-265 -4h-5q-17 0 -28.5 13.5t-16 36.5t-6.5 43.5t-2.5 44t-0.5 28.5z M117 885q0 325 7 551v82q0 9 5.5 13t10 4.5t15.5 0.5q37 0 105 1t106 1q3 0 21 3.5t49 3.5t79 -7q3 -2 5.5 -3.5t4.5 -1.5t5 0.5t4 1t5 1.5t5 2q37 0 52.5 -7t24 -35.5t8.5 -92.5q0 -35 -5.5 -118t-5.5 -102q0 -118 -3 -214q-6 -218 -19 -240q-15 0 -36 -0.5t-40 -1.5 t-35.5 -2.5t-27 -2t-11.5 -0.5h-5q-8 0 -16.5 3.5t-12.5 3.5q-2 0 -5.5 -2t-6.5 -3l-3 -2h-168q-1 0 -27 -1.5t-31 -1.5q-17 0 -28.5 13.5t-16 36.5t-6.5 43t-2.5 44t-0.5 29z" />
<glyph unicode="&#xa7;" horiz-adv-x="1211" d="M94 628q0 134 105 224q-32 39 -55.5 105.5t-23.5 104.5q0 78 32 140.5t79 102t124 68t141.5 42.5t159.5 22t150.5 9t139.5 1q16 -5 40 -11q34 -8 43 -21q14 -21 20 -132q1 -22 4 -75v-6q12 -19 -27 -27q-11 -3 -126 -15q-148 -15 -176 -61q-9 -13 -9 -30q0 -24 21 -37 q25 -13 72 -35.5t72.5 -35t64.5 -35t60.5 -39.5t48 -42.5t40 -51.5t23 -60t9.5 -72q0 -51 -14 -90q-36 -101 -126 -167q96 -75 96 -180q0 -54 -13 -88q-44 -117 -175 -196t-265 -81l-269 -5q-4 2 -60.5 11.5t-107 22.5t-52.5 28l-44 227v10q0 25 18 26q120 -45 234 -45 q9 0 30.5 -0.5t34.5 -0.5t32 1t31 4t24 8t17.5 14t5.5 21q0 34 -34 55t-96 37t-79 24q-5 0 -49 31q8 0 -8 8q-54 31 -57 48v9q-31 0 -57 48.5t-37.5 101t-11.5 85.5zM490 699q0 -45 20 -67q41 -29 185 -122q36 23 36 68q0 32 -17.5 58t-53.5 46.5t-69 33.5t-85 30 q-16 -19 -16 -47z" />
<glyph unicode="&#xa8;" horiz-adv-x="1347" d="M122 1456v60q0 8 -1.5 24.5t-1 29.5t4.5 25l10 64q0 2 -1 7t-1 7q13 39 22 49.5t37 10.5h213q53 6 70 6q13 0 27.5 -3t27.5 -3q21 0 29 2h6q22 0 22 -52q0 -12 -1 -39.5t-1 -39.5q0 -5 1 -35.5t1 -44.5q0 -16 1.5 -45t1.5 -45q0 -52 -31 -56h-408l-14 13zM750 1694 q20 28 30.5 33.5t49.5 5.5h213q53 6 70 6q13 0 27 -3t28 -3q21 0 29 2h6q22 0 22 -52q0 -12 -1 -39.5t-1 -39.5q0 -5 1 -35.5t1 -44.5q0 -10 -2 -24t-2 -19q0 -8 3.5 -22.5t3.5 -24.5q0 -52 -31 -56h-305l-117 13l-14 65v60q0 32 -5 53q0 1 -4 110q0 2 -1 7.5t-1 7.5z" />
<glyph unicode="&#xa9;" horiz-adv-x="2130" d="M84 650q0 178 59 335t160 270.5t232 195.5t277.5 123t295.5 41q148 0 283 -34t255 -107.5t208.5 -179.5t139.5 -259.5t51 -338.5q0 -159 -41 -299t-113 -246t-169.5 -190t-212 -137.5t-238.5 -81.5t-251 -28q-119 0 -233.5 26t-219.5 77t-192.5 130.5t-152.5 181 t-101.5 235t-36.5 286.5zM384 657q0 -133 36 -245.5t98.5 -191.5t146 -135t178 -82.5t195.5 -26.5q107 0 209.5 27.5t194.5 85.5t161.5 139t110.5 196.5t41 250.5t-36.5 246.5t-99.5 189t-149 130.5t-183 78t-203 25q-101 0 -201 -29t-190 -88t-159 -139.5t-109.5 -192 t-40.5 -238.5zM568 632q0 144 41.5 261t114 193.5t170 118t210.5 41.5q198 0 403 -120l-25 -210q-4 1 -36 9.5t-42.5 10.5t-35 7.5t-43 7t-36.5 1.5q-85 0 -133 -65t-48 -233q0 -260 136 -260q79 0 217 94l18 -263q-60 -60 -156 -96.5t-180 -36.5q-66 0 -117 3.5 t-113.5 16.5t-109 35.5t-93 63t-76 96.5t-48 138.5t-18.5 186.5z" />
<glyph unicode="&#xaa;" horiz-adv-x="1386" d="M97 780q0 97 32.5 172.5t81.5 119t116.5 71.5t127.5 37.5t124 9.5q61 0 156.5 -3t131.5 -3q33 0 149.5 2t204.5 2q17 0 32 -15t15 -32v-391q0 -135 -5 -224.5t-5 -127.5q0 -23 -1 -38t-5.5 -34t-14.5 -28.5t-26 -9.5q-86 0 -181 3t-151 3q-55 0 -77 15.5t-22 74.5v11 q2 59 -1 59q-34 -59 -71.5 -97.5t-74.5 -55t-64.5 -22t-61.5 -5.5q-196 0 -303 119t-107 387zM574 819q0 -330 80 -330q86 0 124 112q17 50 18 113q-5 306 -82 306q-33 0 -58.5 -13.5t-40 -37t-24 -46t-12.5 -48.5t-4 -37t-1 -19z" />
<glyph unicode="&#xab;" horiz-adv-x="1688" d="M78 765q0 67 22 99l22 33q378 208 576 309q2 0 8 0.5t10 0.5q8 0 10 -1h6q21 0 28 -10.5t7 -38.5q0 -13 -1 -40.5t-1 -41.5q2 -4 1 -10.5t1 -7.5v-45q-2 -74 -2 -211q0 -9 -31.5 -27.5t-79 -42.5t-65.5 -35q-66 -33 -192 -80q99 -44 184 -87q184 -92 184 -123 q0 -69 2 -87l-8 -8l4 -12l2 -129v-34.5v-45.5v-37q0 -33 -41 -33q-14 0 -31 3q-130 60 -224 109q-231 116 -365 216l-25 103v124l2 80v15q0 13 -1.5 45t-1.5 50zM880 765q0 6 -1.5 23t-1 28t4 26.5t14 29t28.5 25.5q60 39 141 84t139 75t158 80t138 70q2 0 8 0.5t10 0.5 q8 0 10 -1h6q21 0 28 -10.5t7 -38.5q0 -13 -1 -40.5t-1 -41.5q2 -4 1 -10.5t1 -7.5v-45q-2 -74 -2 -211q0 -9 -31.5 -27.5t-79 -42.5t-65.5 -35q-66 -33 -192 -80q99 -44 184 -87q184 -92 184 -123q0 -69 2 -87l-8 -8l4 -12l2 -129v-117q0 -11 -6 -19t-15 -11t-20 -3 q-14 0 -31 3q-325 160 -497 265l-96 58l-21 229l2 80v15q0 13 -1.5 45t-1.5 50z" />
<glyph unicode="&#xac;" horiz-adv-x="1079" d="M46 1006q0 16 16.5 32t31.5 16h227q25 0 264 -4.5t265 -4.5q112 0 112 -51q0 -55 -2.5 -169.5t-2.5 -149.5q-5 -93 -5 -161q0 -112 -49 -112q-57 0 -120.5 2.5t-98.5 2.5q-53 0 -71 16t-18 78q0 3 -1 41.5t-1 43.5q0 7 1 45t1 44h-389h-25.5h-25.5h-23.5t-23 1.5t-19.5 4 t-17 6.5t-12.5 9.5t-9 13.5t-2.5 18q0 55 -1 139.5t-1 138.5z" />
<glyph unicode="&#xad;" horiz-adv-x="963" d="M115 760q0 18 18 35.5t36 17.5q32 0 91 4t93 4h190q35 0 93 -4t90 -4q125 0 125 -55q0 -64 -3 -132.5t-3 -107.5q0 -62 -18 -87t-87 -25q-24 -7 -33 -7h-413q-9 0 -27.5 -0.5t-28.5 0t-26.5 0.5t-26 2t-21.5 4.5t-19 7t-14 10.5t-10 15.5t-3 20.5q0 62 -1.5 151.5 t-1.5 149.5z" />
<glyph unicode="&#xae;" horiz-adv-x="2130" d="M84 650q0 178 59 335t160 270.5t232 195.5t277.5 123t295.5 41q148 0 283 -34t255 -107.5t208.5 -179.5t139.5 -259.5t51 -338.5q0 -159 -41 -299t-113 -246t-169.5 -190t-212 -137.5t-238.5 -81.5t-251 -28q-119 0 -233.5 26t-219.5 77t-192.5 130.5t-152.5 181 t-101.5 235t-36.5 286.5zM384 657q0 -133 36 -245.5t98.5 -191.5t146 -135t178 -82.5t195.5 -26.5q107 0 209.5 27.5t194.5 85.5t161.5 139t110.5 196.5t41 250.5t-36.5 246.5t-99.5 189t-149 130.5t-183 78t-203 25q-101 0 -201 -29t-190 -88t-159 -139.5t-109.5 -192 t-40.5 -238.5zM611 681q0 4 2.5 41t2.5 41t-2.5 29t-2.5 28q0 27 3 75t3 91q0 7 -0.5 39t-0.5 39q-5 5 -5 10q0 20 8 35.5t19 23.5t25.5 12.5t24.5 6t20 1.5q185 0 316.5 -6.5t228.5 -23t155.5 -40t93.5 -62.5t47 -83.5t12 -110.5q0 -39 -10 -73t-22 -54t-31.5 -38.5 t-30.5 -25.5t-27 -16q-3 -2 -5 -3q11 -34 52.5 -93.5t79.5 -111t42 -66.5q33 -13 -53 -65l-15 -9q-8 -20 -103 -70.5t-104 -41.5q-63 63 -107 127.5t-141 225.5q-2 2 -4 2t-8 -1l-6 -2q-1 -19 -2.5 -108t-5 -152t-10.5 -63q-4 0 -9.5 1t-6.5 1q-158 -13 -250 -13 q-10 0 -31 0.5t-38 1t-18 0.5l-48 16l-5 11q-2 6 -22 295q-11 154 -11 179zM1051 732q16 0 35 3.5t37 10t29 14.5q19 13 29 21.5t20 24.5t10 34q0 47 -25 71t-59 24h-69q0 -30 -3.5 -98t-3.5 -105z" />
<glyph unicode="&#xaf;" horiz-adv-x="1094" d="M117 1778q0 16 16.5 32t31.5 16h227q22 0 234 -4.5t235 -4.5q112 0 112 -51q0 -60 2.5 -103t2.5 -101q0 -112 -49 -112q-58 0 -123.5 2.5t-95.5 2.5q-6 0 -114 2t-114 2h-205h-25.5h-25.5h-23.5t-23 1.5t-19.5 4t-17 6.5t-12.5 9.5t-9 13.5t-2.5 18q0 55 -1 133.5 t-1 132.5z" />
<glyph unicode="&#xb0;" horiz-adv-x="1092" d="M90 957q0 106 42.5 206t127 168t189.5 68q33 0 48 -3q2 2 11 2q116 0 176 -8.5t113 -36.5q108 -72 157 -162t49 -222q0 -160 -84 -279l-10 -5q-25 -38 -63 -65t-73.5 -40.5t-87.5 -21t-85.5 -8.5t-87.5 -1q-154 -2 -262 61q-80 46 -120 147.5t-40 199.5zM385 947 q0 -15 1 -24q0 -3 2.5 -13t11.5 -27.5t23.5 -32.5t41.5 -26.5t62 -11.5q51 0 90 18.5t59.5 44t33.5 56.5t16.5 51t3.5 33q0 37 -29 75q-53 68 -174 68q-23 0 -45 -9t-45 -30t-37.5 -65.5t-14.5 -106.5z" />
<glyph unicode="&#xb1;" horiz-adv-x="1079" d="M82 307q0 16 16.5 32t31.5 16h465q57 0 151 -4.5t140 -4.5q112 0 112 -51q0 -55 -2.5 -119t-2.5 -98q0 -55 -16.5 -78.5t-77.5 -23.5h-657h-25.5h-25.5h-23.5t-23 1.5t-19.5 4t-17 6.5t-12.5 9.5t-9 13.5t-2.5 18q0 55 -1 139.5t-1 138.5zM82 1084q0 16 16.5 32t31.5 16 h227v104v25v26v23.5t1.5 23t4 19.5t6.5 17t9.5 12.5t14 9t18.5 2.5q55 0 139 1t138 1q16 0 31.5 -16.5t15.5 -31.5v-220q85 -5 151 -5q112 0 112 -51q0 -55 -2.5 -118.5t-2.5 -98.5q0 -55 -16.5 -78.5t-77.5 -23.5h-168q-5 -93 -5 -161q0 -112 -49 -112q-57 0 -120.5 2.5 t-98.5 2.5q-55 0 -78 16.5t-23 77.5q0 3 5 41.5t5 43.5q0 7 -5 45t-5 44h-115h-25.5h-25.5h-23.5t-23 1.5t-19.5 4t-17 6.5t-12.5 9.5t-9 13.5t-2.5 18q0 55 -1 139.5t-1 138.5z" />
<glyph unicode="&#xb2;" horiz-adv-x="978" d="M101 1283q0 8 1 9l65 30q145 53 335 53q73 0 136.5 -15t118 -47t86.5 -88.5t32 -131.5q0 -78 -51.5 -152t-161.5 -155q22 0 62 1t62 1q90 0 90 -40q0 -47 -2.5 -96.5t-2.5 -77.5q0 -24 -1.5 -35.5t-8.5 -24t-22.5 -17.5t-42.5 -5q-4 -5 -58.5 -6.5t-154 0t-112.5 1.5 q-22 0 -64 -0.5t-62 -0.5q-117 0 -179 9t-62 36q0 37 39 78q0 -3 15 13t39 44t50 60t50.5 66.5t38.5 58.5q21 31 40 74.5t19 76.5q0 41 -23.5 59t-83.5 18q-44 0 -78.5 -9.5t-88.5 -34.5q-3 0 -11.5 111.5t-8.5 136.5z" />
<glyph unicode="&#xb3;" horiz-adv-x="964" d="M92 1305q165 74 376 74q130 -5 196 -25q-1 0 5 -2q66 -20 66 -35v-10q14 0 28 -14.5t22.5 -29.5t18.5 -37.5t11 -24.5q5 -12 8.5 -26.5t6.5 -31.5t5 -27q0 -45 -22.5 -91.5t-59.5 -70.5q120 -69 120 -193q0 -117 -33 -187.5t-67 -84.5q-51 -25 -118.5 -37t-112.5 -14 t-126 -2q-23 0 -98.5 12.5t-80.5 22.5q-3 1 -28 8t-37 14l-40 25l14 206q100 -25 176 -25q111 0 111 79q0 56 -93 63q-65 0 -124 -4l-1 162q9 0 27.5 -0.5t28.5 -0.5q58 0 90.5 15t32.5 61q0 64 -111 64q-74 0 -176 -46z" />
<glyph unicode="&#xb4;" horiz-adv-x="865" d="M94 1366q0 81 21.5 236t25.5 196q31 160 74 316l16 14l88 14q52 0 132 3t112 3l12 -6q7 2 22.5 2.5t20.5 1.5q4 -2 13 -3.5t12 -2.5l88 -6l14 -4q3 0 7 1t8 1q42 -9 55.5 -16.5t13.5 -22.5q3 -6 -51.5 -102t-95.5 -160q-28 -44 -66.5 -128t-64.5 -126q-11 -22 -46 -101 t-61 -124t-43 -45q-62 0 -76 -2l-14 8l-8 -6h-59q-18 0 -55 -1t-56 -1q-39 0 -39 61z" />
<glyph unicode="&#xb5;" horiz-adv-x="1592" d="M122 -323q0 74 8 129l1 673q0 26 1 67.5t1 55.5t1 68.5t1 58.5l6 14q1 0 4.5 67.5t6.5 150t3 116.5q0 13 -3 38t-3 38q0 31 62 31h30q25 0 33 4l250 -4q0 -6 8 -6l13 6q108 0 144 -25.5t36 -116.5q0 -32 3 -90t3 -90v-20q-14 -299 -14 -480v-15v-22t0.5 -23t2.5 -24.5 t5 -19.5t8 -15t12 -5q20 0 91 31t71 40v674q-8 55 -8 129q0 3 -0.5 13.5t0 15t1.5 12.5t4 11.5t9 6.5t15 3q4 0 9 -4t5 -9v-2q47 21 295 21h35l217 -6q9 -4 11.5 -6t2.5 -7q0 -2 -1 -7t-1 -7q2 0 8 2t8 2q6 0 6 -8q0 -694 -20 -1073q0 -15 -43 -58q-11 8 -35 8q-1 0 -7 -4 t-7 -4q-77 -14 -258 -14q-141 0 -182 8q-13 7 -21.5 28.5t-14.5 39.5t-12 18q-9 0 -19 -3.5t-22 -12t-19.5 -14.5t-21.5 -18t-18 -15q-45 -26 -120 -43q3 -96 3 -340q0 -8 -6 -8q-2 0 -8 2t-8 2q0 -2 1 -7t1 -7q0 -5 -2.5 -7t-11.5 -6l-177 -6h-35q-248 0 -295 21v-2 q0 -5 -5 -9t-9 -4q-9 0 -15 3t-9 6.5t-4 11.5t-1.5 12.5t0 15t0.5 13.5z" />
<glyph unicode="&#xb6;" horiz-adv-x="1657" d="M63 905q0 112 38 198.5t96 136.5t137 82t149.5 43t145.5 11q90 0 234.5 -3t201.5 -3q39 0 177 2t243 2q19 0 36 -17t17 -36v-451q0 -154 -5 -426t-5 -317q0 -125 -55 -125q-94 0 -204 2q-62 0 -87.5 18.5t-25.5 86.5v213l2 545l-99 -3v-737q0 -125 -55 -125q-22 0 -103 3 t-114 3q-62 0 -87.5 18.5t-25.5 86.5v283h-37q-107 0 -193 16t-158.5 53.5t-121 95.5t-75 145t-26.5 199z" />
<glyph unicode="&#xb7;" horiz-adv-x="783" d="M108 931l13 14l65 15h121q14 0 37.5 3t34.5 3l63 -6q110 -10 145 -10q15 -5 24 -8.5t14.5 -10t7.5 -9.5t6.5 -14t7.5 -18q7 -18 13.5 -95.5t6.5 -117.5q10 -59 5 -91.5t-3 -61.5q2 -13 -4 -20t-21.5 -8.5t-30 -1.5t-38.5 1.5t-37 1.5q-4 0 -27.5 -1t-39 -1.5t-25.5 0.5 q-147 5 -203 2q-3 0 -17 -1.5t-21 -2t-20.5 -0.5t-21 1.5t-16.5 4.5t-13 9.5t-5 15.5q-5 37 -8.5 198.5t-12.5 208.5z" />
<glyph unicode="&#xb8;" horiz-adv-x="810" d="M78 -609l20 111q12 38 23 58q67 -30 140 -30q71 0 102.5 41.5t31.5 95.5q0 52 -35 81t-93 29q-43 0 -87 -16l5 81l28 175l10 19h219l-26 -132q337 -58 337 -261q0 -48 -11 -89.5t-42 -84.5t-80.5 -73t-132 -49t-191.5 -19q-168 0 -218 63z" />
<glyph unicode="&#xb9;" horiz-adv-x="796" d="M75 997v265q0 4 6.5 8.5t26 15.5t37.5 23q59 38 89 38q77 0 204.5 -1.5t203.5 -1.5q13 0 25 -11.5t12 -23.5v-459q0 -44 -4 -114.5t-4 -104.5q0 -84 -37 -84q-89 0 -186.5 2t-155.5 2q-42 0 -59 12t-17 59q0 2 3.5 30.5t3.5 32.5q0 5 -1.5 21.5t-3.5 31t-2 15.5 q-2 33 -2 109t-0.5 129t-3.5 53q-7 0 -22.5 -18.5t-37 -37t-41.5 -18.5q-14 0 -24 8.5t-10 18.5z" />
<glyph unicode="&#xba;" horiz-adv-x="1533" d="M87 838q0 68 22.5 136.5t62 124.5t99.5 91t130 35q33 0 43 -2q3 1 9 1q105 0 156.5 -7t96.5 -33q95 -62 138 -141t43 -194t-54 -213q-17 -33 -21 -33l-8 -4q-28 -42 -67.5 -68t-93 -36t-89.5 -12.5t-98 -2.5q-8 0 -25 2.5t-26 2.5q-48 0 -113 20h-8q-3 0 -6 0.5t-5.5 1.5 t-7 3.5t-8.5 5t-13 8t-17 10.5q-70 40 -105 129t-35 175zM436 787q0 -13 4 -82.5t7 -80.5l14 -46q2 -8 17 -8q17 0 29.5 45t18 110.5t7.5 112t2 74.5q0 110 -18 156q-8 17 -16 18q-30 0 -40 -82l-25 -193v-24z" />
<glyph unicode="&#xbb;" horiz-adv-x="1689" d="M120 319q2 18 2 87q0 17 53.5 51.5t130.5 71.5q85 43 184 87q-126 47 -192 80q-18 11 -65.5 35t-79 42.5t-31.5 27.5q0 19 -0.5 45.5t-1 74.5t-0.5 91v45q1 2 1 8t1 10q0 14 -1 41.5t-1 40.5q0 28 7 38.5t28 10.5h6q2 1 10 1q4 0 10 -0.5t8 -0.5q38 -20 93 -48t99 -50 t99 -50.5t100.5 -53t94.5 -53t90 -54.5q18 -12 28.5 -25.5t14 -29t4 -26.5t-1 -28t-1.5 -23q0 -18 -1.5 -50t-1.5 -45v-15l2 -80l-21 -229l-96 -58q-172 -105 -497 -265q-17 -3 -31 -3q-41 0 -41 33v117l2 129l4 12zM922 319q2 18 2 87q0 17 53.5 51.5t130.5 71.5 q85 43 184 87q-126 47 -192 80q-18 11 -65.5 35t-79 42.5t-31.5 27.5q0 19 -0.5 45.5t-1 74.5t-0.5 91v45q1 2 1 8t1 10q0 14 -1 41.5t-1 40.5q0 19 2.5 29t10.5 15t22 5h6q2 1 10 1q3 0 6.5 -0.5t6.5 -0.5h5q198 -101 576 -309l22 -33q22 -32 22 -99q0 -18 -1.5 -50 t-1.5 -45v-15l2 -80v-124l-25 -103q-136 -102 -366 -216q-88 -46 -223 -109q-17 -3 -31 -3q-8 0 -15 2t-13 5.5t-9.5 10t-3.5 15.5v29.5v30v30.5v27l2 129l4 12z" />
<glyph unicode="&#xbc;" horiz-adv-x="2468" d="M75 997v265q0 4 6.5 8.5t26 15.5t37.5 23q59 38 89 38q77 0 204.5 -1.5t203.5 -1.5q13 0 25 -11.5t12 -23.5v-304q0 -96 -4 -212t-4 -162q0 -84 -37 -84q-89 0 -186.5 2t-155.5 2q-42 0 -59 12t-17 59q0 2 3.5 30.5t3.5 32.5q0 5 -1.5 21.5t-3.5 31t-2 15.5q-2 33 -2 109 t-0.5 129t-3.5 53q-7 0 -22.5 -18.5t-37 -37t-41.5 -18.5q-14 0 -24 8.5t-10 18.5zM649 39q0 39 21 127q27 101 89 301.5t70 226.5l208 668q0 4 11 12t11 10q5 0 9 -1t8 -1q20 0 63.5 6.5t67.5 6.5q12 0 51.5 0.5t66 0.5t60 -1t54 -3.5t27.5 -7.5q6 0 12.5 -0.5t10 -1 t7.5 -0.5h6q6 0 14 1t19 1q16 0 25 -65.5t9 -140.5q0 -51 -5 -76l-54 -144q-53 -141 -53 -147q0 -2 -64.5 -200.5t-64.5 -202.5q-11 -37 -27 -93t-25.5 -90.5t-23 -77.5t-23 -70t-21 -51t-21.5 -36q-21 0 -52.5 -2t-55 -4l-23.5 -2h-6q-9 0 -17.5 4t-13.5 4q-18 -6 -18 -8 h-202q-8 -5 -112 -5q-38 0 -38 62zM1467 154v26q0 101 4.5 133.5t31.5 127.5q4 12 6 18.5t5 18t6 21.5q-2 -2 28.5 73t76.5 176.5t76 157.5q4 4 12.5 10t11.5 9q21 0 88 -2t83 -2q12 7 49 7q19 0 56 -2t59 -2l2 0.5t3 1.5q10 0 30 -1t32 -1q6 0 11 1q6 0 9 1q3 0 10 -1l7 -1 h9q11 0 36 -1t32 -1q17 0 17 -41q0 -14 -2.5 -53.5t-2.5 -62.5q0 -12 2 -33.5t2 -31.5q0 -3 -1.5 -39t-3.5 -103t-2 -147v-26h101q49 0 49 -142l-4 -94q-4 -7 -16 -10.5t-30.5 -4.5t-35 -1t-37.5 1t-29 1l-3 -23q-1 -17 -1.5 -40.5t-1 -35t-3 -24.5t-9.5 -18t-19 -5 l-1.5 1.5t-3.5 1.5q-4 0 -16 -4q-16 0 -29 2t-17 2t-8 -4h-92q-1 0 -31 -6.5t-36 -6.5q-12 0 -19 14t-9 29t-2.5 35t-1.5 24l-3 52h-6q-260 0 -405 -4q-64 3 -64 29zM1791 388q21 0 67 -0.5t70 -0.5v372q-78 -221 -137 -371z" />
<glyph unicode="&#xbd;" horiz-adv-x="2418" d="M74 997v265q0 4 6.5 8.5t26 15.5t37.5 23q59 38 89 38q77 0 204.5 -1.5t203.5 -1.5q13 0 25 -11.5t12 -23.5v-304q0 -96 -4 -212t-4 -162q0 -84 -37 -84q-89 0 -186.5 2t-155.5 2q-42 0 -59 12t-17 59q0 2 3.5 30.5t3.5 32.5q0 5 -2 21.5t-3.5 31t-1.5 15.5q-2 33 -2 109 t-0.5 129t-3.5 53q-7 0 -22.5 -18.5t-37 -37t-41.5 -18.5q-14 0 -24 8.5t-10 18.5zM648 39q0 39 21 127q27 101 89 301.5t70 226.5l208 668q0 4 11 12t11 10q5 0 9 -1t8 -1q20 0 63.5 6.5t67.5 6.5q12 0 51.5 0.5t66 0.5t60 -1t54 -3.5t27.5 -7.5q7 0 15.5 -0.5t13 -1 t7.5 -0.5q5 0 13 1t20 1q16 0 25 -65.5t9 -140.5q0 -51 -5 -76l-54 -144q-53 -141 -53 -147q-1 -2 -33 -101t-63.5 -198.5t-32.5 -103.5q-11 -39 -31 -109.5t-31.5 -108t-26.5 -84.5t-27.5 -74.5t-24.5 -41.5q-21 0 -52.5 -2t-55 -4l-23.5 -2h-6q-9 0 -17.5 4t-13.5 4 q-18 -6 -18 -8h-202q-8 -5 -112 -5q-38 0 -38 62zM1568 795q0 8 1 9l65 30q145 53 335 53q47 0 91.5 -6.5t87 -20t77 -36.5t61.5 -53t41.5 -72.5t14.5 -93.5q0 -78 -51.5 -152t-161.5 -155q22 0 62 1t62 1q90 0 90 -40q0 -47 -2.5 -96.5t-2.5 -77.5v-7v-23.5t-3 -18.5 t-7.5 -14.5t-14.5 -10t-23 -8t-35 -4t-49 -3t-66 -0.5t-110.5 1t-91.5 1q-22 0 -64 -0.5t-62 -0.5q-118 0 -179.5 9t-61.5 36q0 37 39 78q2 0 18 17t39.5 44.5t48.5 58.5t49 64.5t38 57.5q21 31 40 74.5t19 76.5q0 41 -23.5 59t-83.5 18q-30 0 -55.5 -4.5t-50 -13.5 t-61.5 -26q-2 0 -7 57t-9 117t-4 74z" />
<glyph unicode="&#xbe;" horiz-adv-x="2643" d="M75 1305q165 74 376 74q130 -5 196 -25q1 -1 15 -5.5t25 -9t21 -13.5t10 -19q14 0 28.5 -14.5t22.5 -29.5t18 -37.5t11 -24.5q5 -12 8.5 -26.5t6.5 -31.5t5 -27q0 -45 -22.5 -91.5t-59.5 -70.5q120 -69 120 -193q0 -117 -33 -187.5t-67 -84.5q-51 -25 -118.5 -37 t-112.5 -14t-126 -2q-23 0 -98.5 12.5t-80.5 22.5q-72 24 -105 47l14 206q100 -25 176 -25q111 0 111 79q0 56 -93 63q-65 0 -124 -4l-1 162q9 0 27.5 -0.5t28.5 -0.5q58 0 90.5 15t32.5 61q0 64 -111 64q-74 0 -176 -46zM803 39q0 39 21 127q27 101 89 301.5t70 226.5 l208 668q0 4 11 12t11 10q5 0 9 -1t8 -1q20 0 63.5 6.5t67.5 6.5q14 0 55.5 0.5t65.5 0.5q122 0 138 -12q7 0 15.5 -0.5t13 -1t7.5 -0.5q6 0 14 1t19 1q16 0 25 -65.5t9 -140.5q0 -51 -5 -76l-54 -144q-53 -141 -53 -147q-2 -3 -64.5 -199t-64.5 -204q-11 -39 -31 -109.5 t-31.5 -108t-26.5 -84.5t-27.5 -74.5t-24.5 -41.5q-21 0 -52.5 -2t-55 -4l-23.5 -2h-6q-9 0 -17.5 4t-13.5 4q-18 -6 -18 -8h-202q-8 -5 -112 -5q-38 0 -38 62zM1609 162v26q0 101 4.5 133.5t31.5 127.5q4 12 6 18.5t5 18t6 21.5q-2 -2 25.5 73t68 176.5t67.5 157.5q2 3 6 6 t9.5 7t8.5 6q19 0 59 -1t78.5 -2t53.5 -1q12 7 49 7q19 0 56 -2t59 -2l2 0.5t3 1.5q10 0 30 -1t32 -1q15 0 27 1q15 0 23 1q9 0 39 -2t45 -2q16 0 16 -42q0 -13 -2.5 -52t-2.5 -62l2 -37v2q2 9 3 -2q3 -41 3 -318v-26h101q49 0 49 -142l-4 -94q-9 -15 -73 -15q-15 0 -41 0.5 t-34 0.5l-3 -23q-1 -17 -1.5 -40.5t-1 -35t-3 -24.5t-9.5 -18t-19 -5l-1.5 1.5t-3.5 1.5q-4 0 -16 -4q-16 0 -29 2t-17 2l-8 -4h-122q-1 0 -31 -6.5t-36 -6.5q-10 0 -16.5 8.5t-9 22t-4 26.5t-1.5 27t-1 18l-3 52h-6q-260 0 -405 -4q-64 3 -64 29zM1933 396q21 0 67 -0.5 t70 -0.5v372q-78 -221 -137 -371z" />
<glyph unicode="&#xbf;" horiz-adv-x="1255" d="M214 239q0 58 32 109t85.5 90t109 71.5t116.5 69.5t94 68v30l-2 60q-2 66 -2 95q0 37 23 37h31q19 0 57 -2t54 -2q17 0 25 4h204q47 0 62 -46t15 -145q0 -20 -0.5 -59t-0.5 -54q0 -57 -31 -93t-72.5 -52t-102.5 -46.5t-103 -69.5q-19 -12 -38.5 -33.5t-19.5 -37.5 q0 -38 37.5 -50.5t160.5 -12.5q134 0 233 26q1 1 5 1q17 0 17 -35q0 -13 -3.5 -42t-3.5 -40q-4 -110 -11 -157.5t-17.5 -60.5t-35.5 -15q-114 -6 -228 -6q-99 0 -180.5 6.5t-162.5 22.5t-141.5 45.5t-108 72.5t-72.5 106.5t-25 144.5zM568 1396q0 13 2.5 27.5t2.5 28.5 q0 16 -1 27v4l-1 2q0 24 53 24q12 0 39 -1.5t40 -1.5q3 0 34.5 1.5t44.5 1.5q37 0 91 -2t74 -2q17 0 50.5 2.5t57.5 2.5q53 0 57 -31q5 -37 8.5 -198t12.5 -209l-13 -14l-65 -15h-121q-14 0 -37.5 -3t-34.5 -3h-49l-14 6q-4 -2 -20 -2.5t-21 -1.5q-6 4 -27 6l-49 6l-14 5 q-2 0 -7 -1.5t-7 -1.5q-39 12 -49.5 22.5t-10.5 37.5q-20 23 -20 213q-6 53 -6 70z" />
<glyph unicode="&#xc0;" d="M131 186q59 276 119 508l143 647q0 5 7 12.5t14 10.5q3 0 8.5 -1t9.5 -1q17 0 54 6t57 6q28 0 83.5 -5t88.5 -5q12 0 107 4t93 6q3 0 27.5 0.5t55 0.5h69.5t75.5 -0.5t68.5 -1.5t53 -3.5t24 -5.5q20 0 56 5t55 5q8 0 24 -6t25 -6q4 0 9.5 1t8.5 1q7 -3 14 -10.5t7 -12.5 l143 -647q60 -232 119 -508q1 -2 2 -9q4 -18 6.5 -30t7 -36.5t4 -41.5t-2.5 -34.5t-11 -27t-23 -9.5q-231 0 -235 4h-129q0 8 -21 8q-1 0 -3.5 -4t-4.5 -4h-6l-11 1q-11 1 -28.5 2t-37 2t-41 2t-36.5 1q-20 33 -61 240q-22 -4 -54.5 -5.5t-57 -1.5t-66 0.5t-58.5 0.5 q-42 -204 -59 -234q-7 0 -19 -4l-12 -4h-6q-8 0 -17 4t-11 4l-93 -3l-92 -5h-190q-2 0 -54.5 -1t-110 -2t-71.5 -1q-60 0 -18 179q1 7 2 9zM576 2316q0 15 13.5 22.5t55.5 16.5q3 0 7 -1t8 -1l14 4l88 6q3 1 12 2.5t13 3.5q5 -1 20.5 -1.5t22.5 -2.5l12 6q32 0 112 -3 t132 -3l88 -14l16 -14q43 -156 74 -316q4 -41 25.5 -196t21.5 -236q0 -61 -39 -61q-18 0 -55 1t-56 1h-59l-8 6l-14 -8q-14 2 -76 2q-17 0 -43.5 42.5t-60.5 114t-46 92.5q-26 47 -65 137t-66 138q-41 64 -95.5 160t-51.5 102zM907 506h105q6 6 14 6h4q12 0 23 -2t24 -5.5 t18 -4.5q-12 72 -34.5 202.5t-38 221t-15.5 92.5q-1 4 -2.5 13t-3.5 18q-6 -22 -6 -31q0 -2 -15.5 -91t-38 -217.5t-34.5 -201.5z" />
<glyph unicode="&#xc1;" d="M131 186q59 276 119 508l143 647q0 5 7 12.5t14 10.5q3 0 8.5 -1t9.5 -1q17 0 54 6t57 6q28 0 83.5 -5t88.5 -5q12 0 107 4t93 6q3 0 27.5 0.5t55 0.5h69.5t75.5 -0.5t68.5 -1.5t53 -3.5t24 -5.5q20 0 56 5t55 5q8 0 24 -6t25 -6q4 0 9.5 1t8.5 1q7 -3 14 -10.5t7 -12.5 l143 -647q60 -232 119 -508q1 -2 2 -9q4 -18 6.5 -30t7 -36.5t4 -41.5t-2.5 -34.5t-11 -27t-23 -9.5q-231 0 -235 4h-129q0 8 -21 8q-1 0 -3.5 -4t-4.5 -4h-6l-11 1q-11 1 -28.5 2t-37 2t-41 2t-36.5 1q-20 33 -61 240q-22 -4 -54.5 -5.5t-57 -1.5t-66 0.5t-58.5 0.5 q-42 -204 -59 -234q-7 0 -19 -4l-12 -4h-6q-8 0 -17 4t-11 4l-93 -3l-92 -5h-190q-2 0 -54.5 -1t-110 -2t-71.5 -1q-60 0 -18 179q1 7 2 9zM589 1589q0 81 21.5 236t25.5 196q31 160 74 316l16 14l88 14q52 0 132 3t112 3l12 -6q7 2 22.5 2.5t20.5 1.5q4 -2 13 -3.5t12 -2.5 l88 -6l14 -4q4 0 8 1t7 1q42 -9 55.5 -16.5t13.5 -22.5q3 -6 -51.5 -102t-95.5 -160q-28 -44 -66.5 -128t-64.5 -126q-11 -22 -46 -101t-61 -124t-43 -45q-62 0 -76 -2l-14 8l-8 -6h-59q-19 0 -56 -1t-55 -1q-39 0 -39 61zM907 506h105q6 6 14 6h4q12 0 23 -2t24 -5.5 t18 -4.5q-12 72 -34.5 202.5t-38 221t-15.5 92.5q-1 4 -2.5 13t-3.5 18q-6 -22 -6 -31q0 -2 -15.5 -91t-38 -217.5t-34.5 -201.5z" />
<glyph unicode="&#xc2;" d="M131 186q59 276 119 508l143 647q0 5 7 12.5t14 10.5q3 0 8.5 -1t9.5 -1q17 0 54 6t57 6q28 0 83.5 -5t88.5 -5q12 0 107 4t93 6q3 0 27.5 0.5t55 0.5h69.5t75.5 -0.5t68.5 -1.5t53 -3.5t24 -5.5q20 0 56 5t55 5q8 0 24 -6t25 -6q4 0 9.5 1t8.5 1q7 -3 14 -10.5t7 -12.5 l143 -647q60 -232 119 -508q1 -2 2 -9q4 -18 6.5 -30t7 -36.5t4 -41.5t-2.5 -34.5t-11 -27t-23 -9.5q-231 0 -235 4h-129q0 8 -21 8q-1 0 -3.5 -4t-4.5 -4h-6l-11 1q-11 1 -28.5 2t-37 2t-41 2t-36.5 1q-20 33 -61 240q-22 -4 -54.5 -5.5t-57 -1.5t-66 0.5t-58.5 0.5 q-42 -204 -59 -234q-7 0 -19 -4l-12 -4h-6q-8 0 -17 4t-11 4l-93 -3l-92 -5h-190q-2 0 -54.5 -1t-110 -2t-71.5 -1q-60 0 -18 179q1 7 2 9zM388 1569q0 21 2 26q16 77 85.5 219t84.5 181q91 177 127 235l14 16l94 23h121l76 -2q43 -4 121 -4l61 -6l47 -27q6 -12 63.5 -114 t75 -136.5t57.5 -114.5t62.5 -143t38.5 -127q0 -4 1 -12t1 -14q0 -41 -31 -41q-14 0 -46 1t-48 1h-20l-41 -2q-43 2 -119 2q-13 0 -37.5 33.5t-56.5 83.5t-47 69q-37 41 -119 166q-65 -110 -109 -176q-118 -176 -153 -176q-64 0 -80 -2l-10 8l-9 -6h-61q-17 0 -56.5 -1 t-58.5 -1q-30 0 -30 41zM907 506h105q6 6 14 6h4q12 0 23 -2t24 -5.5t18 -4.5q-12 72 -34.5 202.5t-38 221t-15.5 92.5q-1 4 -2.5 13t-3.5 18q-6 -22 -6 -31q0 -2 -15.5 -91t-38 -217.5t-34.5 -201.5z" />
<glyph unicode="&#xc3;" d="M131 186q59 276 119 508l143 647q0 5 7 12.5t14 10.5q3 0 8.5 -1t9.5 -1q17 0 54 6t57 6q28 0 83.5 -5t88.5 -5q12 0 107 4t93 6q3 0 27.5 0.5t55 0.5h69.5t75.5 -0.5t68.5 -1.5t53 -3.5t24 -5.5q20 0 56 5t55 5q8 0 24 -6t25 -6q4 0 9.5 1t8.5 1q7 -3 14 -10.5t7 -12.5 l143 -647q60 -232 119 -508q1 -2 2 -9q4 -18 6.5 -30t7 -36.5t4 -41.5t-2.5 -34.5t-11 -27t-23 -9.5q-231 0 -235 4h-129q0 8 -21 8q-1 0 -3.5 -4t-4.5 -4h-6l-11 1q-11 1 -28.5 2t-37 2t-41 2t-36.5 1q-20 33 -61 240q-22 -4 -54.5 -5.5t-57 -1.5t-66 0.5t-58.5 0.5 q-42 -204 -59 -234q-7 0 -19 -4l-12 -4h-6q-8 0 -17 4t-11 4l-93 -3l-92 -5h-190q-2 0 -54.5 -1t-110 -2t-71.5 -1q-60 0 -18 179q1 7 2 9zM387 1663q0 43 1 71.5t9 77.5t22 82.5t42 73t67.5 64t101 41t139.5 16.5q43 0 122.5 -39t109.5 -80q7 -8 22.5 -32t26 -37.5 t29.5 -26t40 -12.5q39 0 51.5 23t1.5 55t-25 58.5t-26 40.5q1 20 30 20h11l313 1q27 -4 48.5 -95t15.5 -182q-4 -85 -79.5 -167.5t-189.5 -113.5q-41 -15 -99 -15q-69 0 -127 24t-96.5 57.5t-72 67.5t-69.5 58t-73 24q-40 0 -52 -88q-10 -72 -11 -75q-5 -17 -15 -10 q-182 8 -214.5 17.5t-43.5 59.5q-5 25 -10 41zM907 506h105q6 6 14 6h4q12 0 23 -2t24 -5.5t18 -4.5q-12 72 -34.5 202.5t-38 221t-15.5 92.5q-1 4 -2.5 13t-3.5 18q-6 -22 -6 -31q0 -2 -15.5 -91t-38 -217.5t-34.5 -201.5z" />
<glyph unicode="&#xc4;" d="M131 186q59 276 119 508l143 647q0 5 7 12.5t14 10.5q3 0 8.5 -1t9.5 -1q17 0 54 6t57 6q28 0 83.5 -5t88.5 -5q12 0 107 4t93 6q3 0 27.5 0.5t55 0.5h69.5t75.5 -0.5t68.5 -1.5t53 -3.5t24 -5.5q20 0 56 5t55 5q8 0 24 -6t25 -6q4 0 9.5 1t8.5 1q7 -3 14 -10.5t7 -12.5 l143 -647q60 -232 119 -508q1 -2 2 -9q4 -18 6.5 -30t7 -36.5t4 -41.5t-2.5 -34.5t-11 -27t-23 -9.5q-231 0 -235 4h-129q0 8 -21 8q-1 0 -3.5 -4t-4.5 -4h-6l-11 1q-11 1 -28.5 2t-37 2t-41 2t-36.5 1q-20 33 -61 240q-22 -4 -54.5 -5.5t-57 -1.5t-66 0.5t-58.5 0.5 q-42 -204 -59 -234q-7 0 -19 -4l-12 -4h-6q-8 0 -17 4t-11 4l-93 -3l-92 -5h-190q-2 0 -54.5 -1t-110 -2t-71.5 -1q-60 0 -18 179q1 7 2 9zM394 1699v60q0 8 -1.5 24.5t-1 29.5t4.5 25l10 64q0 2 -1 7t-1 7q13 39 22 49.5t37 10.5h213q52 6 70 6q13 0 27.5 -3t27.5 -3 q21 0 29 2h6q22 0 22 -52q0 -12 -1 -39.5t-1 -39.5q0 -5 1 -35.5t1 -44.5q0 -15 1.5 -45t1.5 -45q0 -52 -31 -56h-408l-14 13zM907 506h105q6 6 14 6h4q12 0 23 -2t24 -5.5t18 -4.5q-12 72 -34.5 202.5t-38 221t-15.5 92.5q-1 4 -2.5 13t-3.5 18q-6 -22 -6 -31 q0 -2 -15.5 -91t-38 -217.5t-34.5 -201.5zM1022 1937q15 21 21 27t18.5 9t40.5 3h213q52 6 70 6q13 0 27 -3t28 -3q21 0 29 2h6q22 0 22 -52q0 -12 -1 -39.5t-1 -39.5q0 -5 1 -35.5t1 -44.5q0 -11 -2 -25t-2 -18q0 -8 3.5 -22.5t3.5 -24.5q0 -52 -31 -56h-305l-117 13 l-14 65v60q0 32 -5 53q-1 2 -1.5 5.5t-0.5 7.5v12.5v18.5t-0.5 28t-1.5 38q0 2 -1 7.5t-1 7.5z" />
<glyph unicode="&#xc5;" d="M131 186q59 276 119 508l143 647q0 5 7 12.5t14 10.5q3 0 8.5 -1t9.5 -1q17 0 54 6t57 6q28 0 83.5 -5t88.5 -5q12 0 107 4t93 6q3 0 27.5 0.5t55 0.5h69.5t75.5 -0.5t68.5 -1.5t53 -3.5t24 -5.5q20 0 56 5t55 5q8 0 24 -6t25 -6q4 0 9.5 1t8.5 1q7 -3 14 -10.5t7 -12.5 l143 -647q60 -232 119 -508q1 -2 2 -9q4 -18 6.5 -30t7 -36.5t4 -41.5t-2.5 -34.5t-11 -27t-23 -9.5q-231 0 -235 4h-129q0 8 -21 8q-1 0 -3.5 -4t-4.5 -4h-6l-11 1q-11 1 -28.5 2t-37 2t-41 2t-36.5 1q-20 33 -61 240q-22 -4 -54.5 -5.5t-57 -1.5t-66 0.5t-58.5 0.5 q-42 -204 -59 -234q-7 0 -19 -4l-12 -4h-6q-8 0 -17 4t-11 4l-93 -3l-92 -5h-190q-2 0 -54.5 -1t-110 -2t-71.5 -1q-60 0 -18 179q1 7 2 9zM484 1943q0 106 42.5 206t127 168t189.5 68q33 0 48 -3q2 2 11 2q116 0 176 -8.5t113 -36.5q108 -72 157 -162t49 -222 q0 -160 -84 -279l-10 -5q-25 -38 -63 -65t-73.5 -40.5t-87.5 -21t-85.5 -8.5t-87.5 -1q-154 -2 -262 61q-80 46 -120 147.5t-40 199.5zM779 1933q0 -15 1 -24q0 -3 2.5 -13t11.5 -27.5t23.5 -32.5t41.5 -26.5t62 -11.5q51 0 90 18.5t59.5 44t33.5 56.5t16.5 51t3.5 33 q0 37 -29 75q-52 68 -174 68q-23 0 -45 -9t-45 -30t-37.5 -65.5t-14.5 -106.5zM907 506h105q6 6 14 6h4q12 0 23 -2t24 -5.5t18 -4.5q-12 72 -34.5 202.5t-38 221t-15.5 92.5q-1 4 -2.5 13t-3.5 18q-6 -22 -6 -31q0 -2 -15.5 -91t-38 -217.5t-34.5 -201.5z" />
<glyph unicode="&#xc6;" horiz-adv-x="2478" d="M130 -2q-19 0 -24 15.5t1 41t14.5 49t20 50t13.5 32.5q111 254 234 508l309 647q1 5 9.5 12.5t16.5 10.5q3 0 8 -1t9 -1q17 0 55.5 6t58.5 6q28 0 82.5 -5t87.5 -5q11 0 87.5 4t74.5 6q267 0 302 -1q62 1 240 6t303.5 3.5t267.5 -12.5q17 0 26 -37.5t17 -110.5t15 -109 v-32t-4 -17t-4 -7t-9 -0.5t-10 0.5q-63 0 -196 -1t-200 -1q-16 0 -27.5 -75.5t-11.5 -123.5q0 -27 7 -35t25 -8q21 0 88.5 0.5t98.5 0t82.5 -2.5t93.5 -6q5 -1 18.5 -2t16 -2t11 -3.5t11 -7t6.5 -12.5t7 -20l8 -183v-6q0 -32 -62 -41.5t-176 -9.5q-42 0 -105 1 q-31 1 -44.5 1.5t-32.5 -1t-25 -2.5t-15.5 -6t-11.5 -9.5t-5 -15.5t-3 -21v-29t-4 -68t-2 -77q66 0 198 1t196 1q8 0 22.5 -103t14.5 -137q0 -43 -41 -43q-43 0 -124.5 -4t-125.5 -4q-52 0 -156.5 -0.5t-158.5 -0.5q-6 -3 -14 -3q-5 0 -75 1t-107 1h-137q-4 0 -28 2h-16v2 l-23 3q-3 -5 -6 -5h-6q-1 0 -12 1t-28 2t-36 2t-40.5 2t-36.5 1q-12 34 -7 240q-21 -4 -50.5 -5.5t-52 -1.5t-60.5 0.5t-54 0.5q-84 -199 -112 -234q-5 0 -12.5 -2t-13.5 -4l-6 -2h-6q-9 0 -17 4t-10 4l-93 -3l-93 -5h-190q-1 0 -109.5 -2t-126.5 -2zM1003 506h85 q64 0 82 -6q2 34 4 81t5 94.5t5.5 97t5 92l4.5 76.5t3 54t1 21v8q0 2 0.5 9.5t0.5 13.5q-3 -8 -7 -17t-6 -14q0 -2 -31.5 -89t-80 -221.5t-71.5 -199.5z" />
<glyph unicode="&#xc7;" horiz-adv-x="1368" d="M84 641q0 233 94 408q83 169 224 264.5t321 107.5q11 2 51 2q86 0 174 -18q174 -35 344 -135l-37 -266q-10 2 -57 14t-67 16.5t-55.5 9.5t-63.5 5q-54 0 -95 -18t-67.5 -50t-42.5 -80.5t-22.5 -104t-6.5 -126.5q0 -55 4 -92q22 -242 172 -242q112 0 281 123l18 -336 q-77 -75 -197.5 -123t-225.5 -49l-9 -47q337 -58 337 -261q0 -48 -11 -89.5t-42 -84.5t-80.5 -73t-132 -49t-191.5 -19q-18 0 -37.5 1.5t-58.5 6.5t-72 19t-50 36l20 111q12 38 23 58q68 -30 140 -30q30 0 54 8.5t38.5 22.5t24 32t13.5 36.5t4 37.5q0 52 -35 81t-93 29 q-43 0 -87 -16l5 81l20 122q-197 26 -299 104q-63 54 -108 129q-39 43 -66 102q-53 146 -53 342z" />
<glyph unicode="&#xc8;" horiz-adv-x="1397" d="M116 805q0 341 17 526q0 41 151 41q114 0 300 5.5t339.5 5t317.5 -12.5q23 0 35.5 -32t23.5 -99t19 -96q1 -17 -0.5 -28t-2.5 -17t-7 -8.5t-8.5 -3t-13 0t-15.5 0.5q-78 0 -228.5 -14.5t-197.5 -17.5q-16 0 -27.5 -75.5t-11.5 -123.5q0 -27 7 -35t25 -8q21 0 88.5 0.5 t98.5 0t82.5 -2.5t93.5 -6q5 -1 18.5 -2t16 -2t11 -3.5t11 -7t6.5 -12.5t7 -20l8 -183v-6q0 -32 -62 -41.5t-176 -9.5q-42 0 -105 1q-31 1 -44.5 1.5t-32.5 -1t-25 -2.5t-15.5 -6t-11.5 -9.5t-5 -15.5t-3 -21v-29q0 -20 -4 -72t-2 -83q66 0 198 6t196 6q18 0 47.5 -103 t29.5 -137q0 -43 -41 -43q-49 0 -143.5 -4t-146.5 -4q-107 0 -323.5 -1t-324.5 -1q-13 0 -46 4t-64.5 11t-30.5 14q0 44 -11 234.5t-11 240.5q0 34 -3.5 120.5t-3.5 180.5zM342 2316q0 15 13.5 22.5t55.5 16.5q3 0 7 -1t8 -1l14 4l88 6q3 1 12 2.5t13 3.5q5 -1 20.5 -1.5 t22.5 -2.5l12 6q32 0 112 -3t132 -3l88 -14l16 -14q43 -156 74 -316q4 -41 25.5 -196t21.5 -236q0 -61 -39 -61q-18 0 -55 1t-56 1h-59l-8 6l-14 -8q-14 2 -76 2q-17 0 -43.5 42.5t-60.5 114t-46 92.5q-26 47 -65 137t-66 138q-41 64 -95.5 160t-51.5 102z" />
<glyph unicode="&#xc9;" horiz-adv-x="1397" d="M116 805q0 341 17 526q0 41 151 41q114 0 300 5.5t339.5 5t317.5 -12.5q23 0 35.5 -32t23.5 -99t19 -96q1 -17 -0.5 -28t-2.5 -17t-7 -8.5t-8.5 -3t-13 0t-15.5 0.5q-78 0 -228.5 -14.5t-197.5 -17.5q-16 0 -27.5 -75.5t-11.5 -123.5q0 -27 7 -35t25 -8q21 0 88.5 0.5 t98.5 0t82.5 -2.5t93.5 -6q5 -1 18.5 -2t16 -2t11 -3.5t11 -7t6.5 -12.5t7 -20l8 -183v-6q0 -32 -62 -41.5t-176 -9.5q-42 0 -105 1q-31 1 -44.5 1.5t-32.5 -1t-25 -2.5t-15.5 -6t-11.5 -9.5t-5 -15.5t-3 -21v-29q0 -20 -4 -72t-2 -83q66 0 198 6t196 6q18 0 47.5 -103 t29.5 -137q0 -43 -41 -43q-49 0 -143.5 -4t-146.5 -4q-107 0 -323.5 -1t-324.5 -1q-13 0 -46 4t-64.5 11t-30.5 14q0 44 -11 234.5t-11 240.5q0 34 -3.5 120.5t-3.5 180.5zM337 1609q0 81 21.5 236t25.5 196q31 160 74 316l16 14l88 14q52 0 132 3t112 3l12 -6q7 2 22.5 2.5 t20.5 1.5q4 -2 13 -3.5t12 -2.5l88 -6l14 -4q4 0 8 1t7 1q42 -9 55.5 -16.5t13.5 -22.5q3 -6 -51.5 -102t-95.5 -160q-28 -44 -66.5 -128t-64.5 -126q-11 -22 -46 -101t-61 -124t-43 -45q-62 0 -76 -2l-14 8l-8 -6h-59q-19 0 -56 -1t-55 -1q-39 0 -39 61z" />
<glyph unicode="&#xca;" horiz-adv-x="1397" d="M116 805q0 341 17 526q0 41 151 41q114 0 300 5.5t339.5 5t317.5 -12.5q23 0 35.5 -32t23.5 -99t19 -96q1 -17 -0.5 -28t-2.5 -17t-7 -8.5t-8.5 -3t-13 0t-15.5 0.5q-78 0 -228.5 -14.5t-197.5 -17.5q-16 0 -27.5 -75.5t-11.5 -123.5q0 -27 7 -35t25 -8q21 0 88.5 0.5 t98.5 0t82.5 -2.5t93.5 -6q5 -1 18.5 -2t16 -2t11 -3.5t11 -7t6.5 -12.5t7 -20l8 -183v-6q0 -32 -62 -41.5t-176 -9.5q-42 0 -105 1q-31 1 -44.5 1.5t-32.5 -1t-25 -2.5t-15.5 -6t-11.5 -9.5t-5 -15.5t-3 -21v-29q0 -20 -4 -72t-2 -83q66 0 198 6t196 6q18 0 47.5 -103 t29.5 -137q0 -43 -41 -43q-49 0 -143.5 -4t-146.5 -4q-107 0 -323.5 -1t-324.5 -1q-13 0 -46 4t-64.5 11t-30.5 14q0 44 -11 234.5t-11 240.5q0 34 -3.5 120.5t-3.5 180.5zM153 1569q0 21 2 26q16 77 85.5 219t84.5 181q91 177 127 235l14 16l94 23h121l76 -2q43 -4 121 -4 l61 -6l47 -27q6 -12 63.5 -114t75 -136.5t57.5 -114.5t62.5 -143t38.5 -127q0 -4 1 -12t1 -14q0 -41 -31 -41q-14 0 -46 1t-48 1h-20l-41 -2q-43 2 -119 2q-13 0 -37.5 33.5t-56.5 83.5t-47 69q-37 41 -119 166q-65 -110 -109 -176q-118 -176 -153 -176q-64 0 -80 -2l-10 8 l-9 -6h-61q-17 0 -56.5 -1t-58.5 -1q-30 0 -30 41z" />
<glyph unicode="&#xcb;" horiz-adv-x="1397" d="M116 805q0 341 17 526q0 41 151 41q114 0 300 5.5t339.5 5t317.5 -12.5q23 0 35.5 -32t23.5 -99t19 -96q1 -17 -0.5 -28t-2.5 -17t-7 -8.5t-8.5 -3t-13 0t-15.5 0.5q-78 0 -228.5 -14.5t-197.5 -17.5q-16 0 -27.5 -75.5t-11.5 -123.5q0 -27 7 -35t25 -8q21 0 88.5 0.5 t98.5 0t82.5 -2.5t93.5 -6q5 -1 18.5 -2t16 -2t11 -3.5t11 -7t6.5 -12.5t7 -20l8 -183v-6q0 -32 -62 -41.5t-176 -9.5q-42 0 -105 1q-31 1 -44.5 1.5t-32.5 -1t-25 -2.5t-15.5 -6t-11.5 -9.5t-5 -15.5t-3 -21v-29q0 -20 -4 -72t-2 -83q66 0 198 6t196 6q18 0 47.5 -103 t29.5 -137q0 -43 -41 -43q-49 0 -143.5 -4t-146.5 -4q-107 0 -323.5 -1t-324.5 -1q-13 0 -46 4t-64.5 11t-30.5 14q0 44 -11 234.5t-11 240.5q0 34 -3.5 120.5t-3.5 180.5zM182 1679v60q0 8 -1.5 24.5t-1 29.5t4.5 25l10 64q0 2 -1 7t-1 7q13 39 22 49.5t37 10.5h213 q53 6 70 6q13 0 27.5 -3t27.5 -3q21 0 29 2h6q22 0 22 -52q0 -12 -1 -39.5t-1 -39.5q0 -5 1 -35.5t1 -44.5q0 -16 1.5 -45.5t1.5 -44.5q0 -52 -31 -56h-408l-14 13zM810 1917q20 28 30.5 33.5t49.5 5.5h213q53 6 70 6q13 0 27 -3t28 -3q21 0 29 2h6q22 0 22 -52 q0 -12 -1 -39.5t-1 -39.5q0 -5 1 -35.5t1 -44.5q0 -11 -2 -25t-2 -18q0 -8 3.5 -22.5t3.5 -24.5q0 -52 -31 -56h-305l-117 13l-14 65v60q0 32 -5 53q0 1 -4 110q0 2 -1 7.5t-1 7.5z" />
<glyph unicode="&#xcc;" horiz-adv-x="961" d="M-6 2316q0 15 13.5 22.5t55.5 16.5q3 0 7 -1t8 -1l14 4l88 6q3 1 12 2.5t13 3.5q5 -1 20.5 -1.5t22.5 -2.5l12 6q32 0 112 -3t132 -3l88 -14l16 -14q43 -156 74 -316q4 -41 25.5 -196t21.5 -236q0 -61 -39 -61q-18 0 -55 1t-56 1h-59l-8 6l-14 -8q-14 2 -76 2 q-17 0 -43.5 42.5t-60.5 114t-46 92.5q-26 47 -65 137t-66 138q-41 64 -95.5 160t-51.5 102zM120 186q1 30 2.5 220.5t5.5 287.5v647q0 3 0.5 6t1.5 5t2.5 3.5l2.5 2.5t4 2t4 1.5t5 0.5h5h5h5q68 0 203.5 1t205.5 1q4 0 24 3.5t55 3.5t89 -7q4 -4 9 -5t7 -1t9 3t8 3 q26 0 39.5 -2t26.5 -10t18.5 -25t8.5 -44.5t3 -71.5v-400q0 -1 -6 -199.5t-6 -203.5q-1 -40 -2 -104t-2 -102t-3 -81t-6.5 -70t-11.5 -41q-17 0 -40.5 -1t-45.5 -2t-41 -2t-31 -2l-12 -1h-6q-9 0 -18.5 4t-14.5 4q-16 -6 -16 -8h-190q-14 -4 -236 -4q-62 0 -61 181v7z" />
<glyph unicode="&#xcd;" horiz-adv-x="961" d="M120 186q1 30 2.5 220.5t5.5 287.5v647q0 3 0.5 6t1.5 5t2.5 3.5l2.5 2.5t4 2t4 1.5t5 0.5h5h5h5q68 0 203.5 1t205.5 1q4 0 24 3.5t55 3.5t89 -7q4 -4 9 -5t7 -1t9 3t8 3q26 0 39.5 -2t26.5 -10t18.5 -25t8.5 -44.5t3 -71.5v-400q0 -1 -6 -199.5t-6 -203.5 q-1 -40 -2 -104t-2 -102t-3 -81t-6.5 -70t-11.5 -41q-17 0 -40.5 -1t-45.5 -2t-41 -2t-31 -2l-12 -1h-6q-9 0 -18.5 4t-14.5 4q-16 -6 -16 -8h-190q-14 -4 -236 -4q-62 0 -61 181v7zM137 1589q0 61 8.5 135t21 158.5t17.5 138.5q31 160 74 316l16 14l88 14q52 0 132 3t112 3 l12 -6q7 2 22.5 2.5t20.5 1.5q3 -2 7.5 -2.5t9.5 -1.5t8 -2l88 -6l14 -4q4 0 8 1t7 1q42 -9 55.5 -16.5t13.5 -22.5q3 -6 -51.5 -102t-95.5 -160q-28 -44 -66.5 -128t-64.5 -126q-11 -22 -46 -101t-61 -124t-43 -45q-62 0 -76 -2l-14 8l-8 -6h-59q-19 0 -56 -1t-55 -1 q-24 0 -31.5 16.5t-7.5 44.5z" />
<glyph unicode="&#xce;" horiz-adv-x="961" d="M-63 1569q0 21 2 26q16 77 85.5 219t84.5 181q91 177 127 235l14 16l94 23h121l76 -2q43 -4 121 -4l61 -6l47 -27q6 -12 63.5 -114t75 -136.5t57.5 -114.5t62.5 -143t38.5 -127q0 -4 1 -12t1 -14q0 -41 -31 -41q-14 0 -46 1t-48 1h-20l-41 -2q-43 2 -119 2 q-13 0 -37.5 33.5t-56.5 83.5t-47 69q-37 41 -119 166q-65 -110 -109 -176q-118 -176 -153 -176q-64 0 -80 -2l-10 8l-9 -6h-61q-17 0 -56.5 -1t-58.5 -1q-30 0 -30 41zM120 186q1 30 2.5 220.5t5.5 287.5v647q0 3 0.5 6t1.5 5t2.5 3.5l2.5 2.5t4 2t4 1.5t5 0.5h5h5h5 q68 0 203.5 1t205.5 1q4 0 24 3.5t55 3.5t89 -7q4 -4 9 -5t7 -1t9 3t8 3q26 0 39.5 -2t26.5 -10t18.5 -25t8.5 -44.5t3 -71.5v-400q0 -1 -6 -199.5t-6 -203.5q-1 -40 -2 -104t-2 -102t-3 -81t-6.5 -70t-11.5 -41q-17 0 -40.5 -1t-45.5 -2t-41 -2t-31 -2l-12 -1h-6 q-9 0 -18.5 4t-14.5 4q-16 -6 -16 -8h-190q-14 -4 -236 -4q-62 0 -61 181v7z" />
<glyph unicode="&#xcf;" horiz-adv-x="961" d="M-35 1679v60q0 8 -1.5 24.5t-1 29.5t4.5 25l10 64q0 2 -1 7t-1 7q13 39 22 49.5t37 10.5h213q53 6 70 6q13 0 27.5 -3t27.5 -3q21 0 29 2h6q22 0 22 -52q0 -12 -1 -39.5t-1 -39.5q0 -5 1 -35.5t1 -44.5q0 -16 1.5 -45.5t1.5 -44.5q0 -52 -31 -56h-408l-14 13zM120 186 q1 30 2.5 220.5t5.5 287.5v647q0 3 0.5 6t1.5 5t2.5 3.5l2.5 2.5t4 2t4 1.5t5 0.5h5h5h5q68 0 203.5 1t205.5 1q4 0 24 3.5t55 3.5t89 -7q4 -4 9 -5t7 -1t9 3t8 3q26 0 39.5 -2t26.5 -10t18.5 -25t8.5 -44.5t3 -71.5v-400q0 -1 -6 -199.5t-6 -203.5q-1 -40 -2 -104t-2 -102 t-3 -81t-6.5 -70t-11.5 -41q-17 0 -40.5 -1t-45.5 -2t-41 -2t-31 -2l-12 -1h-6q-9 0 -18.5 4t-14.5 4q-16 -6 -16 -8h-190q-14 -4 -236 -4q-62 0 -61 181v7zM593 1917q20 28 30.5 33.5t49.5 5.5h213q52 6 70 6q13 0 27 -3t28 -3q21 0 29 2h6q22 0 22 -52q0 -12 -1 -39.5 t-1 -39.5q0 -5 1 -35.5t1 -44.5q0 -10 -2 -24t-2 -19q0 -8 3.5 -22.5t3.5 -24.5q0 -52 -31 -56h-305l-117 13l-14 65v60q0 32 -5 53q-1 3 -1.5 6.5t-0.5 11.5v18t-0.5 30.5t-1.5 43.5q0 2 -1 7.5t-1 7.5z" />
<glyph unicode="&#xd0;" horiz-adv-x="1833" d="M88 835q0 10 19.5 20.5t38.5 10.5q65 0 98 1v454q0 19 17.5 36t36.5 17q90 0 206.5 -2t150.5 -2q68 0 238.5 3t277.5 3q52 0 102.5 -7.5t107.5 -27t107 -50t96.5 -81t79.5 -114.5t53 -155t20 -199q0 -166 -29.5 -287t-93 -210t-169.5 -142.5t-253 -79t-350 -25.5 q-76 0 -247.5 2t-284.5 2q-55 0 -55 125q0 36 -1.5 103t-3.5 165.5t-3 172.5q-76 0 -116 7t-40 28q0 48 -1.5 117t-1.5 115zM858 270q90 -5 112 15q50 45 77 161t27 361q0 18 -0.5 38.5t-3.5 70t-11.5 90.5t-21 83.5t-35.5 67.5t-52 25q-58 0 -89 -21q0 -181 -1 -296 q22 -1 32.5 -1.5t29 -2t28 -3.5t21 -5.5t16 -8t4.5 -10.5q0 -52 -3 -108t-3 -89q0 -18 -3 -27t-14.5 -18.5t-38 -13.5t-70.5 -5q0 -46 -0.5 -118.5t-0.5 -96.5v-88z" />
<glyph unicode="&#xd1;" horiz-adv-x="1755" d="M133 1298q-9 47 20.5 63.5t78.5 16.5q107 0 235 8t180 7.5t65 -17.5q47 -64 334 -495q1 41 3.5 168t4.5 199.5t6 76.5q50 50 95 47h116q6 0 153.5 -3t151.5 -3q52 0 73.5 -16.5t21.5 -69.5q0 -7 -4.5 -53.5t-4.5 -57.5q0 -5 3.5 -18t3.5 -21q0 -26 -2 -333.5t-2 -337.5 q0 -338 -9 -398q-7 -52 -32 -60q-10 -3 -35 -3q-216 2 -373 2q-4 0 -22 -1t-31 -0.5t-31.5 3.5t-36 12t-31.5 23l-208 293q-79 136 -95 136t-16 -16q0 -29 -3 -191t-3 -183q0 -6 0.5 -15.5t0.5 -14t-0.5 -11.5t-2 -9.5t-4.5 -7t-8.5 -4.5t-13.5 -2.5t-19 0.5 q-218 -16 -312 -16q-15 0 -46 0.5t-55.5 1t-25.5 0.5l-92 22l-6 17q-1 0 -4 77.5t-5.5 178.5t-2.5 158q-14 123 -14.5 267.5t3.5 309.5t1 270zM350 1683q0 43 1 71.5t9 77.5t22 82.5t42 73t67.5 64t101 41t139.5 16.5q43 0 122.5 -39t109.5 -80q7 -8 22.5 -32t26 -37.5 t29.5 -26t40 -12.5q39 0 51.5 23t1.5 55t-25 58.5t-26 40.5q1 20 30 20h11l313 1q27 -4 48.5 -95t15.5 -182q-4 -85 -79.5 -167.5t-189.5 -113.5q-41 -15 -99 -15q-69 0 -127 24t-96.5 57.5t-72 67.5t-69.5 58t-73 24q-40 0 -52 -88q-10 -72 -11 -75q-5 -17 -15 -10 q-182 8 -214.5 17.5t-43.5 59.5q-5 25 -10 41z" />
<glyph unicode="&#xd2;" horiz-adv-x="1742" d="M94 641q0 417 192.5 599.5t630.5 182.5q68 0 135.5 -8.5t143 -30t141.5 -55t128 -88.5t105.5 -125.5t70 -170t26.5 -218.5q0 -139 -19 -249.5t-53 -191t-87 -140t-114.5 -96.5t-143.5 -59.5t-165.5 -31t-187.5 -8.5q-74 0 -132.5 2.5t-128.5 11t-124.5 23.5t-113 41 t-101.5 62t-83 88t-65 117.5t-40 153t-15 191.5zM514 2316q0 15 13.5 22.5t55.5 16.5q3 0 7 -1t8 -1l14 4l88 6q3 1 12 2.5t13 3.5q5 -1 20.5 -1.5t22.5 -2.5l12 6q32 0 112 -3t132 -3l88 -14l16 -14q43 -156 74 -316q4 -41 25.5 -196t21.5 -236q0 -61 -39 -61q-18 0 -55 1 t-56 1h-59l-8 6l-14 -8q-14 2 -76 2q-17 0 -43.5 42.5t-60.5 114t-46 92.5q-26 47 -65 137t-66 138q-41 64 -95.5 160t-51.5 102zM788 670q0 -523 92 -523q95 0 95 564q0 46 -2 101.5t-9.5 165.5t-29 180.5t-54.5 70.5q-22 0 -38.5 -22t-26 -70t-15.5 -91.5t-8.5 -121.5 t-3 -123.5t-0.5 -130.5z" />
<glyph unicode="&#xd3;" horiz-adv-x="1742" d="M94 641q0 417 192.5 599.5t630.5 182.5q68 0 135.5 -8.5t143 -30t141.5 -55t128 -88.5t105.5 -125.5t70 -170t26.5 -218.5q0 -139 -19 -249.5t-53 -191t-87 -140t-114.5 -96.5t-143.5 -59.5t-165.5 -31t-187.5 -8.5q-74 0 -132.5 2.5t-128.5 11t-124.5 23.5t-113 41 t-101.5 62t-83 88t-65 117.5t-40 153t-15 191.5zM527 1589q0 81 21.5 236t25.5 196q31 160 74 316l16 14l88 14q52 0 132 3t112 3l12 -6q7 2 22.5 2.5t20.5 1.5q4 -2 13 -3.5t12 -2.5l88 -6l14 -4q4 0 8 1t7 1q42 -9 55.5 -16.5t13.5 -22.5q3 -6 -51.5 -102t-95.5 -160 q-28 -44 -66.5 -128t-64.5 -126q-11 -22 -46 -101t-61 -124t-43 -45q-62 0 -76 -2l-14 8l-8 -6h-59q-19 0 -56 -1t-55 -1q-39 0 -39 61zM788 670q0 -523 92 -523q95 0 95 564q0 46 -2 101.5t-9.5 165.5t-29 180.5t-54.5 70.5q-22 0 -38.5 -22t-26 -70t-15.5 -91.5 t-8.5 -121.5t-3 -123.5t-0.5 -130.5z" />
<glyph unicode="&#xd4;" horiz-adv-x="1742" d="M94 641q0 417 192.5 599.5t630.5 182.5q68 0 135.5 -8.5t143 -30t141.5 -55t128 -88.5t105.5 -125.5t70 -170t26.5 -218.5q0 -139 -19 -249.5t-53 -191t-87 -140t-114.5 -96.5t-143.5 -59.5t-165.5 -31t-187.5 -8.5q-74 0 -132.5 2.5t-128.5 11t-124.5 23.5t-113 41 t-101.5 62t-83 88t-65 117.5t-40 153t-15 191.5zM302 1569q0 21 2 26q16 77 85.5 219t84.5 181q91 177 127 235l14 16l94 23h121l76 -2q43 -4 121 -4l61 -6l47 -27q6 -12 63.5 -114t75 -136.5t57.5 -114.5t62.5 -143t38.5 -127q0 -4 1 -12t1 -14q0 -41 -31 -41q-14 0 -46 1 t-48 1h-20l-41 -2q-43 2 -119 2q-13 0 -37.5 33.5t-56.5 83.5t-47 69q-37 41 -119 166q-65 -110 -109 -176q-118 -176 -153 -176q-64 0 -80 -2l-10 8l-9 -6h-61q-17 0 -56.5 -1t-58.5 -1q-30 0 -30 41zM788 670q0 -523 92 -523q95 0 95 564q0 46 -2 101.5t-9.5 165.5 t-29 180.5t-54.5 70.5q-22 0 -38.5 -22t-26 -70t-15.5 -91.5t-8.5 -121.5t-3 -123.5t-0.5 -130.5z" />
<glyph unicode="&#xd5;" horiz-adv-x="1742" d="M94 641q0 417 192.5 599.5t630.5 182.5q68 0 135.5 -8.5t143 -30t141.5 -55t128 -88.5t105.5 -125.5t70 -170t26.5 -218.5q0 -139 -19 -249.5t-53 -191t-87 -140t-114.5 -96.5t-143.5 -59.5t-165.5 -31t-187.5 -8.5q-74 0 -132.5 2.5t-128.5 11t-124.5 23.5t-113 41 t-101.5 62t-83 88t-65 117.5t-40 153t-15 191.5zM325 1663q0 43 1 71.5t9 77.5t22 82.5t42 73t67.5 64t101 41t139.5 16.5q43 0 122.5 -39t109.5 -80q7 -8 22.5 -32t26 -37.5t29.5 -26t40 -12.5q39 0 51.5 23t1.5 55t-25 58.5t-26 40.5q1 20 30 20h11l313 1q27 -4 48.5 -95 t15.5 -182q-4 -85 -79.5 -167.5t-189.5 -113.5q-41 -15 -99 -15q-69 0 -127 24t-96.5 57.5t-72 67.5t-69.5 58t-73 24q-40 0 -52 -88q-10 -72 -11 -75q-5 -17 -15 -10q-182 8 -214.5 17.5t-43.5 59.5q-5 25 -10 41zM788 670q0 -523 92 -523q95 0 95 564q0 46 -2 101.5 t-9.5 165.5t-29 180.5t-54.5 70.5q-22 0 -38.5 -22t-26 -70t-15.5 -91.5t-8.5 -121.5t-3 -123.5t-0.5 -130.5z" />
<glyph unicode="&#xd6;" horiz-adv-x="1742" d="M94 641q0 417 192.5 599.5t630.5 182.5q68 0 135.5 -8.5t143 -30t141.5 -55t128 -88.5t105.5 -125.5t70 -170t26.5 -218.5q0 -139 -19 -249.5t-53 -191t-87 -140t-114.5 -96.5t-143.5 -59.5t-165.5 -31t-187.5 -8.5q-74 0 -132.5 2.5t-128.5 11t-124.5 23.5t-113 41 t-101.5 62t-83 88t-65 117.5t-40 153t-15 191.5zM354 1679v60q0 8 -1.5 24.5t-1 29.5t4.5 25l10 64q0 2 -1 7t-1 7q13 39 22 49.5t37 10.5h213q53 6 70 6q13 0 27.5 -3t27.5 -3q21 0 29 2h6q22 0 22 -52q0 -12 -1 -39.5t-1 -39.5q0 -5 1 -35.5t1 -44.5q0 -16 1.5 -45.5 t1.5 -44.5q0 -52 -31 -56h-408l-14 13zM788 670q0 -523 92 -523q95 0 95 564q0 46 -2 101.5t-9.5 165.5t-29 180.5t-54.5 70.5q-22 0 -38.5 -22t-26 -70t-15.5 -91.5t-8.5 -121.5t-3 -123.5t-0.5 -130.5zM982 1917q20 28 30.5 33.5t49.5 5.5h213q53 6 70 6q13 0 27 -3t28 -3 q21 0 29 2h6q22 0 22 -52q0 -12 -1 -39.5t-1 -39.5q0 -5 1 -35.5t1 -44.5q0 -11 -2 -25t-2 -18q0 -8 3.5 -22.5t3.5 -24.5q0 -52 -31 -56h-305l-117 13l-14 65v60q0 32 -5 53q0 1 -4 110q0 2 -1 7.5t-1 7.5z" />
<glyph unicode="&#xd7;" horiz-adv-x="1595" d="M81 281q5 14 123.5 154.5t181.5 211.5l29 33l-23 31q-295 354 -295 368q0 18 49 71t114 108.5t137.5 99t113.5 43.5q13 0 35 -6q68 -52 117 -113l141 -172l151 172l33 34q43 43 88 77q16 6 35 6q44 0 115.5 -44t133.5 -99.5t108 -107.5t46 -69q-7 -17 -117 -145 t-192 -221l-28 -33l26 -31q52 -60 171.5 -211t121.5 -159q0 -30 -82 -108.5t-185.5 -147t-154.5 -68.5q-10 0 -26 10q-44 33 -85 76q-17 17 -30 35l-148 172l-149 -168q-48 -58 -119 -113q-16 -10 -29 -10q-55 0 -155 70.5t-176 149t-76 104.5z" />
<glyph unicode="&#xd8;" horiz-adv-x="1846" d="M123 641q0 417 192.5 599.5t630.5 182.5q300 0 497 -142l136 123q21 12 44 -1l25 -15q24 -14 37 -16q42 -24 48 -33q12 -18 -23 -62q-15 -18 -44 -50l-24 -22q-10 -10 -64 -58q118 -169 118 -420q0 -139 -19 -249.5t-53 -191t-87 -140t-114.5 -96.5t-143.5 -59.5 t-165.5 -31t-187.5 -8.5q-162 0 -286 16.5t-222 65.5q-125 -125 -167 -142q-14 4 -54 19q-12 11 -22 18.5t-14.5 11t-5.5 4.5q-10 5 -17 10t-10.5 11t-6 10t-1 11t2 9.5t5.5 10t6.5 9.5t8.5 10.5t8 9.5q13 13 50.5 52.5t61.5 64.5q-140 166 -140 489zM817 714l182 165 q-18 350 -90 350q-21 0 -37 -20t-25.5 -61t-16 -85t-9 -109.5t-3.5 -116.5t-1 -123zM822 438q16 -291 87 -291q83 0 94 467z" />
<glyph unicode="&#xd9;" horiz-adv-x="1790" d="M113 586q0 106 13.5 330t13.5 344q0 16 -4 43t-4 43q0 34 69 34q25 0 94 0.5t105 0t94.5 -2.5t109.5 -8t101 -16q57 -16 72.5 -42.5t15.5 -105.5q0 -93 -7 -348.5t-7 -443.5q0 -84 6.5 -114t32.5 -30q74 0 178 60v823q-10 55 -10 145q0 39 14.5 51.5t67.5 12.5 q42 0 153.5 5t149.5 9q2 0 12 -0.5t26.5 -1.5t30.5 -1l62 -3q88 -10 133.5 -22t54.5 -21.5t9 -23.5q0 -207 -12.5 -608.5t-12.5 -606.5q0 -42 -18 -62t-58 -20q-80 0 -448 -16q-52 0 -80.5 19t-40.5 63q-238 -119 -486 -119q-86 0 -153.5 18.5t-112.5 47t-76.5 79t-48.5 97 t-26 120t-11 129.5t-2 142zM538 2316q0 15 13.5 22.5t55.5 16.5q3 0 7 -1t8 -1l14 4l88 6q3 1 12 2.5t13 3.5q5 -1 20.5 -1.5t22.5 -2.5l12 6q32 0 112 -3t132 -3l88 -14l16 -14q43 -156 74 -316q4 -41 25.5 -196t21.5 -236q0 -28 -7.5 -44.5t-31.5 -16.5q-19 0 -56 1t-55 1 h-59l-8 6l-14 -8q-14 2 -76 2q-17 0 -43.5 42.5t-60.5 114t-46 92.5q-26 47 -65 137t-66 138q-41 64 -95.5 160t-51.5 102z" />
<glyph unicode="&#xda;" horiz-adv-x="1813" d="M113 586q0 106 13.5 330t13.5 344q0 16 -4 43t-4 43q0 34 69 34q25 0 94 0.5t105 0t94.5 -2.5t109.5 -8t101 -16q57 -16 72.5 -42.5t15.5 -105.5q0 -93 -7 -348.5t-7 -443.5q0 -84 6.5 -114t32.5 -30q74 0 178 60v823q-10 55 -10 145q0 39 14.5 51.5t67.5 12.5 q42 0 153.5 5t149.5 9q2 0 12 -0.5t26.5 -1.5t30.5 -1l62 -3q88 -10 133.5 -22t54.5 -21.5t9 -23.5q0 -207 -12.5 -608.5t-12.5 -606.5q0 -42 -18 -62t-58 -20q-80 0 -448 -16q-52 0 -80.5 19t-40.5 63q-238 -119 -486 -119q-86 0 -153.5 18.5t-112.5 47t-76.5 79t-48.5 97 t-26 120t-11 129.5t-2 142zM618 1606q0 81 21.5 236t25.5 196q31 160 74 316l16 14l88 14q52 0 132 3t112 3l12 -6q7 2 22.5 2.5t20.5 1.5q2 -1 5.5 -2t6.5 -1.5t6.5 -1t6.5 -1.5l88 -6l14 -4q3 0 7 1t8 1q42 -9 55.5 -16.5t13.5 -22.5q3 -6 -51.5 -102t-95.5 -160 q-28 -44 -66.5 -128t-64.5 -126q-11 -22 -46 -101t-61 -124t-43 -45q-62 0 -76 -2l-14 8l-8 -6h-59q-19 0 -56 -1t-55 -1q-24 0 -31.5 16.5t-7.5 44.5z" />
<glyph unicode="&#xdb;" horiz-adv-x="1813" d="M113 586q0 106 13.5 330t13.5 344q0 16 -4 43t-4 43q0 34 69 34q25 0 94 0.5t105 0t94.5 -2.5t109.5 -8t101 -16q57 -16 72.5 -42.5t15.5 -105.5q0 -93 -7 -348.5t-7 -443.5q0 -84 6.5 -114t32.5 -30q74 0 178 60v823q-10 55 -10 145q0 39 14.5 51.5t67.5 12.5 q42 0 153.5 5t149.5 9q2 0 12 -0.5t26.5 -1.5t30.5 -1l62 -3q88 -10 133.5 -22t54.5 -21.5t9 -23.5q0 -207 -12.5 -608.5t-12.5 -606.5q0 -42 -18 -62t-58 -20q-80 0 -448 -16q-52 0 -80.5 19t-40.5 63q-238 -119 -486 -119q-86 0 -153.5 18.5t-112.5 47t-76.5 79t-48.5 97 t-26 120t-11 129.5t-2 142zM316 1586q0 21 2 26q8 37 23 79t34 82t38.5 78t40 82t34.5 79q6 11 28.5 56t32.5 63.5t29 52.5t37 63l14 16l94 23h121l76 -2q43 -4 121 -4l61 -6l47 -27q15 -28 47 -84t50.5 -90t47 -87t47.5 -93.5t40 -89.5t37 -97t28 -94q0 -4 1 -12t1 -14 q0 -41 -31 -41q-14 0 -46 1t-48 1h-20l-41 -2q-43 2 -119 2q-10 0 -28.5 22t-36.5 50.5t-40.5 63t-35.5 50.5q-13 15 -26 31t-27 36.5t-21.5 31t-24 36.5t-20.5 31q-65 -110 -109 -176q-118 -176 -153 -176q-64 0 -80 -2l-10 8l-9 -6h-61q-17 0 -56.5 -1t-58.5 -1 q-30 0 -30 41z" />
<glyph unicode="&#xdc;" horiz-adv-x="1813" d="M113 586q0 106 13.5 330t13.5 344q0 16 -4 43t-4 43q0 34 69 34q25 0 94 0.5t105 0t94.5 -2.5t109.5 -8t101 -16q57 -16 72.5 -42.5t15.5 -105.5q0 -93 -7 -348.5t-7 -443.5q0 -84 6.5 -114t32.5 -30q74 0 178 60v823q-10 55 -10 145q0 39 14.5 51.5t67.5 12.5 q42 0 153.5 5t149.5 9q2 0 12 -0.5t26.5 -1.5t30.5 -1l62 -3q88 -10 133.5 -22t54.5 -21.5t9 -23.5q0 -207 -12.5 -608.5t-12.5 -606.5q0 -42 -18 -62t-58 -20q-80 0 -448 -16q-52 0 -80.5 19t-40.5 63q-238 -119 -486 -119q-86 0 -153.5 18.5t-112.5 47t-76.5 79t-48.5 97 t-26 120t-11 129.5t-2 142zM381 1623v60q0 8 -1 20t-1.5 20t0.5 19t4 20l10 64q0 2 -1 7t-1 7q13 39 22 49.5t37 10.5h213q52 6 70 6q13 0 27.5 -3t27.5 -3q21 0 29 2h6q22 0 22 -52q0 -12 -1 -39.5t-1 -39.5q0 -5 1 -35.5t1 -44.5q0 -16 1.5 -45.5t1.5 -44.5q0 -52 -31 -56 h-408l-14 13zM1009 1861q20 28 30.5 33.5t49.5 5.5h213q52 6 70 6q13 0 27 -3t28 -3q21 0 29 2h6q22 0 22 -52q0 -12 -1 -39.5t-1 -39.5q0 -5 1 -35.5t1 -44.5q0 -11 -2 -25t-2 -18q0 -8 3.5 -22.5t3.5 -24.5q0 -52 -31 -56h-305l-117 13l-14 65v60q0 32 -5 53 q-1 2 -1.5 5.5t-0.5 7.5v12.5v18.5t-0.5 28t-1.5 38q0 2 -1 7.5t-1 7.5z" />
<glyph unicode="&#xdd;" horiz-adv-x="1678" d="M58 1204q0 40 125 96q39 5 82.5 22t50.5 17q17 0 103 21.5t149 42.5q4 0 6 1q2 0 5 0.5t4 0.5q36 0 55 -18.5t41 -61.5q9 -17 34.5 -49t28.5 -37q12 -17 46.5 -77.5t61.5 -99t40 -38.5q5 0 16 16t25.5 44t29.5 59t32 69.5t29 66t24.5 57.5t15.5 36q5 18 8 26t9 19t16 15 t24 4q104 0 277 -67t227 -138q0 -55 -25 -103q-62 -135 -186.5 -412.5t-189.5 -420.5l-6 -3t-5 -3q-122 -237 -248 -475q-4 -9 -24 -9v13q-5 0 -10 -2t-6 -2q-5 0 -8 3t-9 15q-51 6 -164 39q-2 1 -27 3.5t-28 4.5q-73 17 -191 63.5t-118 71.5q0 48 57 164q4 10 45 76t41 94 q0 27 -33.5 62.5t-33.5 60.5q-5 0 -7.5 -1t-3.5 -1q-4 0 -8 8q-56 73 -135 201t-137 244q-25 48 -65 150t-40 132zM672 1619q0 81 21.5 236t25.5 196q31 160 74 316l16 14l88 14q52 0 132 3t112 3l12 -6q7 2 22.5 2.5t20.5 1.5q4 -2 13 -3.5t12 -2.5l88 -6l14 -4q3 0 7 1 t8 1q42 -9 55.5 -16.5t13.5 -22.5q3 -6 -51.5 -102t-95.5 -160q-28 -44 -66.5 -128t-64.5 -126q-11 -22 -46 -101t-61 -124t-43 -45q-62 0 -76 -2l-14 8l-8 -6h-59q-18 0 -55 -1t-56 -1q-39 0 -39 61z" />
<glyph unicode="&#xde;" horiz-adv-x="1696" d="M118 722v105q1 97 5.5 289t4.5 239q0 125 55 125q132 0 277.5 -3t232.5 -3q62 0 87.5 -18.5t25.5 -86.5q0 -34 1 -67.5t1 -48.5q264 3 286 3q61 0 120 -7t125.5 -22.5t122 -45.5t101 -72.5t71.5 -107.5t26 -146q0 -117 -26.5 -206.5t-75 -150.5t-121 -99.5t-158.5 -55.5 t-193 -17h-280q2 -20 1 -120t-1 -133q0 -68 -25.5 -86.5t-87.5 -18.5q-87 0 -232.5 -3t-277.5 -3q-55 0 -55 125q0 57 -4.5 288t-5.5 347zM822 528q0 -7 92 -7q94 0 94 379q0 7 -1 15.5t-4.5 30t-13 39.5t-24 36.5t-41 29.5t-60.5 11q-37 0 -42 -534z" />
<glyph unicode="&#xdf;" horiz-adv-x="1812" d="M110 785q0 105 12.5 190.5t29.5 149t52.5 111.5t64.5 80t83.5 53.5t90.5 32.5t105.5 16.5t108.5 6.5t118 1q57 0 80 -2.5t80 -2.5q198 -27 270 -45q269 -65 326 -233q17 -49 17 -107q0 -144 -121 -220q-9 -4 -25.5 -10t-27.5 -11t-16 -12l6 -8q191 -38 269 -131.5 t96 -293.5q0 -3 1.5 -18t1.5 -24q0 -43 -16 -81t-51 -76.5t-97.5 -69.5t-149.5 -55t-214.5 -37t-284.5 -13l-6 -1v474q38 6 110.5 15t110.5 15q25 5 38 23.5t13 41.5q0 21 -32 29q-100 61 -222 69l2 244q78 42 80 42q2 1 13 4t14.5 4.5t13.5 6t14.5 8.5t11 11.5t10 16 t6 20.5t2.5 26q0 18 -25 30t-63.5 17t-67 7t-53.5 2t-42 -8.5t-26 -19.5t-13.5 -32.5t-5.5 -37.5t-1 -45q0 -3 0.5 -85.5t0.5 -84.5l-3 -120q0 -8 3.5 -77.5t3.5 -76.5v-104q0 -57 -4 -148t-4 -147q-14 -67 -47 -71q-72 -13 -157 -13h-83q-245 0 -317.5 6t-72.5 34t3 192.5 t3 183.5q0 62 -8.5 178.5t-8.5 179.5z" />
<glyph unicode="&#xe0;" horiz-adv-x="1637" d="M123 162q52 243 104 440l139 545q0 5 5.5 11.5t11.5 8.5h16q15 0 40 4.5t42 4.5q25 0 73 -4.5t77 -4.5q71 0 144.5 5.5t158.5 5.5q13 0 133 -3.5t137 -3.5q8 0 21.5 -4t21.5 -4h16q17 -6 17 -20l145 -541q57 -218 105 -440q1 -3 4 -19t5.5 -28.5t5 -31t1.5 -32 t-3.5 -26.5t-10 -20t-19.5 -7q-198 0 -202 4h-113q0 8 -16 8q-1 0 -4 -4t-5 -4h-6l-24 2q-24 2 -56.5 4t-52.5 2q-20 37 -53 207q-19 -4 -47 -5.5t-49.5 -1.5t-56.5 0.5t-50 0.5q-36 -170 -53 -201q-5 0 -15.5 -4t-11.5 -4h-4q-8 0 -16 4t-11 4l-80 -3q-16 -1 -37 -2t-32 -2 l-10 -1h-166q-1 0 -46.5 -1t-95 -2t-61.5 -1q-11 0 -18.5 7t-10 20t-3 26.5t2 32.5t4.5 31t5 28t4 19zM462 2093q0 15 13.5 22.5t55.5 16.5q3 0 7 -1t8 -1l14 4l88 6q3 1 12 2.5t13 3.5q5 -1 20.5 -1.5t22.5 -2.5l12 6q32 0 112 -3t132 -3l88 -14l16 -14q43 -156 74 -316 q4 -41 25.5 -196t21.5 -236q0 -61 -39 -61q-18 0 -55 1t-56 1h-59l-8 6l-14 -8q-14 2 -76 2q-17 0 -43.5 42.5t-60.5 114t-46 92.5q-26 47 -65 137t-66 138q-41 64 -95.5 160t-51.5 102zM799 438h90q6 6 12 6h4q7 0 13 -0.5t11.5 -2t10.5 -2.5t11 -2.5t11 -2.5 q-10 63 -29 176.5t-32.5 192t-13.5 80.5q-2 2 -3 6t-2 10t-2 10q-6 -18 -6 -26q0 -1 -13.5 -79t-32.5 -190.5t-29 -175.5z" />
<glyph unicode="&#xe1;" horiz-adv-x="1637" d="M123 162q52 243 104 440l139 545q0 5 5.5 11.5t11.5 8.5h16q15 0 40 4.5t42 4.5q25 0 73 -4.5t77 -4.5q71 0 144.5 5.5t158.5 5.5q13 0 133 -3.5t137 -3.5q8 0 21.5 -4t21.5 -4h16q17 -6 17 -20l145 -541q57 -218 105 -440q1 -3 4 -19t5.5 -28.5t5 -31t1.5 -32 t-3.5 -26.5t-10 -20t-19.5 -7q-198 0 -202 4h-113q0 8 -16 8q-1 0 -4 -4t-5 -4h-6l-24 2q-24 2 -56.5 4t-52.5 2q-20 37 -53 207q-19 -4 -47 -5.5t-49.5 -1.5t-56.5 0.5t-50 0.5q-36 -170 -53 -201q-5 0 -15.5 -4t-11.5 -4h-4q-8 0 -16 4t-11 4l-80 -3q-16 -1 -37 -2t-32 -2 l-10 -1h-166q-1 0 -46.5 -1t-95 -2t-61.5 -1q-11 0 -18.5 7t-10 20t-3 26.5t2 32.5t4.5 31t5 28t4 19zM475 1366q0 81 21.5 236t25.5 196q31 160 74 316l16 14l88 14q52 0 132 3t112 3l12 -6q7 2 22.5 2.5t20.5 1.5q4 -2 13 -3.5t12 -2.5l88 -6l14 -4q4 0 8 1t7 1 q42 -9 55.5 -16.5t13.5 -22.5q3 -6 -51.5 -102t-95.5 -160q-28 -44 -66.5 -128t-64.5 -126q-11 -22 -46 -101t-61 -124t-43 -45q-62 0 -76 -2l-14 8l-8 -6h-59q-18 0 -55.5 -1t-55.5 -1q-39 0 -39 61zM799 438h90q6 6 12 6h4q7 0 13 -0.5t11.5 -2t10.5 -2.5t11 -2.5t11 -2.5 q-10 63 -29 176.5t-32.5 192t-13.5 80.5q-2 2 -3 6t-2 10t-2 10q-6 -18 -6 -26q0 -1 -13.5 -79t-32.5 -190.5t-29 -175.5z" />
<glyph unicode="&#xe2;" horiz-adv-x="1637" d="M123 162q52 243 104 440l139 545q0 5 5.5 11.5t11.5 8.5h16q15 0 40 4.5t42 4.5q25 0 73 -4.5t77 -4.5q71 0 144.5 5.5t158.5 5.5q13 0 133 -3.5t137 -3.5q8 0 21.5 -4t21.5 -4h16q17 -6 17 -20l145 -541q57 -218 105 -440q1 -3 4 -19t5.5 -28.5t5 -31t1.5 -32 t-3.5 -26.5t-10 -20t-19.5 -7q-198 0 -202 4h-113q0 8 -16 8q-1 0 -4 -4t-5 -4h-6l-24 2q-24 2 -56.5 4t-52.5 2q-20 37 -53 207q-19 -4 -47 -5.5t-49.5 -1.5t-56.5 0.5t-50 0.5q-36 -170 -53 -201q-5 0 -15.5 -4t-11.5 -4h-4q-8 0 -16 4t-11 4l-80 -3q-16 -1 -37 -2t-32 -2 l-10 -1h-166q-1 0 -46.5 -1t-95 -2t-61.5 -1q-11 0 -18.5 7t-10 20t-3 26.5t2 32.5t4.5 31t5 28t4 19zM273 1346q0 21 2 26q16 77 85.5 219t84.5 181q91 177 127 235l14 16l94 23h121l76 -2q43 -4 121 -4l61 -6l47 -27q6 -12 63.5 -114t75 -136.5t57.5 -114.5t62.5 -143 t38.5 -127q0 -4 1 -12t1 -14q0 -41 -31 -41q-14 0 -46 1t-48 1h-20l-41 -2q-43 2 -119 2q-13 0 -37.5 33.5t-56.5 83.5t-47 69q-37 41 -119 166q-65 -110 -109 -176q-118 -176 -153 -176q-64 0 -80 -2l-10 8l-9 -6h-61q-17 0 -56.5 -1t-58.5 -1q-30 0 -30 41zM799 438h90 q6 6 12 6h4q7 0 13 -0.5t11.5 -2t10.5 -2.5t11 -2.5t11 -2.5q-10 63 -29 176.5t-32.5 192t-13.5 80.5q-2 2 -3 6t-2 10t-2 10q-6 -18 -6 -26q0 -1 -13.5 -79t-32.5 -190.5t-29 -175.5z" />
<glyph unicode="&#xe3;" horiz-adv-x="1637" d="M123 162q52 243 104 440l139 545q0 5 5.5 11.5t11.5 8.5h16q15 0 40 4.5t42 4.5q25 0 73 -4.5t77 -4.5q71 0 144.5 5.5t158.5 5.5q13 0 133 -3.5t137 -3.5q8 0 21.5 -4t21.5 -4h16q17 -6 17 -20l145 -541q57 -218 105 -440q1 -3 4 -19t5.5 -28.5t5 -31t1.5 -32 t-3.5 -26.5t-10 -20t-19.5 -7q-198 0 -202 4h-113q0 8 -16 8q-1 0 -4 -4t-5 -4h-6l-24 2q-24 2 -56.5 4t-52.5 2q-20 37 -53 207q-19 -4 -47 -5.5t-49.5 -1.5t-56.5 0.5t-50 0.5q-36 -170 -53 -201q-5 0 -15.5 -4t-11.5 -4h-4q-8 0 -16 4t-11 4l-80 -3q-16 -1 -37 -2t-32 -2 l-10 -1h-166q-1 0 -46.5 -1t-95 -2t-61.5 -1q-11 0 -18.5 7t-10 20t-3 26.5t2 32.5t4.5 31t5 28t4 19zM272 1440q0 43 1 71.5t9 77.5t22 82.5t42 73t67.5 64t101 41t139.5 16.5q43 0 122.5 -39t109.5 -80q7 -8 22.5 -32t26 -37.5t29.5 -26t40 -12.5q39 0 51.5 23t1.5 55 t-25 58.5t-26 40.5q1 20 30 20h11l313 1q27 -4 48.5 -95t15.5 -182q-4 -85 -79.5 -167.5t-189.5 -113.5q-41 -15 -99 -15q-69 0 -127 24t-96.5 58t-72 67.5t-69.5 57.5t-73 24q-40 0 -52 -88q-10 -72 -11 -75q-5 -17 -15 -10q-182 8 -214.5 17.5t-43.5 59.5q-5 25 -10 41z M799 438h90q6 6 12 6h4q7 0 13 -0.5t11.5 -2t10.5 -2.5t11 -2.5t11 -2.5q-10 63 -29 176.5t-32.5 192t-13.5 80.5q-2 2 -3 6t-2 10t-2 10q-6 -18 -6 -26q0 -1 -13.5 -79t-32.5 -190.5t-29 -175.5z" />
<glyph unicode="&#xe4;" horiz-adv-x="1637" d="M123 162q52 243 104 440l139 545q0 5 5.5 11.5t11.5 8.5h16q15 0 40 4.5t42 4.5q25 0 73 -4.5t77 -4.5q71 0 144.5 5.5t158.5 5.5q13 0 133 -3.5t137 -3.5q8 0 21.5 -4t21.5 -4h16q17 -6 17 -20l145 -541q57 -218 105 -440q1 -3 4 -19t5.5 -28.5t5 -31t1.5 -32 t-3.5 -26.5t-10 -20t-19.5 -7q-198 0 -202 4h-113q0 8 -16 8q-1 0 -4 -4t-5 -4h-6l-24 2q-24 2 -56.5 4t-52.5 2q-20 37 -53 207q-19 -4 -47 -5.5t-49.5 -1.5t-56.5 0.5t-50 0.5q-36 -170 -53 -201q-5 0 -15.5 -4t-11.5 -4h-4q-8 0 -16 4t-11 4l-80 -3q-16 -1 -37 -2t-32 -2 l-10 -1h-166q-1 0 -46.5 -1t-95 -2t-61.5 -1q-11 0 -18.5 7t-10 20t-3 26.5t2 32.5t4.5 31t5 28t4 19zM302 1456v60q0 8 -1.5 24.5t-1 29.5t4.5 25l10 64q0 2 -1 7t-1 7q13 39 22 49.5t37 10.5h213q53 6 70 6q13 0 27.5 -3t27.5 -3q21 0 29 2h6q22 0 22 -52q0 -12 -1 -39.5 t-1 -39.5q0 -5 1 -35.5t1 -44.5q0 -16 1.5 -45t1.5 -45q0 -52 -31 -56h-408l-14 13zM799 438h90q6 6 12 6h4q7 0 13 -0.5t11.5 -2t10.5 -2.5t11 -2.5t11 -2.5q-10 63 -29 176.5t-32.5 192t-13.5 80.5q-2 2 -3 6t-2 10t-2 10q-6 -18 -6 -26q0 -1 -13.5 -79t-32.5 -190.5 t-29 -175.5zM930 1694q20 28 30.5 33.5t49.5 5.5h213q52 6 70 6q13 0 27 -3t28 -3q21 0 29 2h6q22 0 22 -52q0 -12 -1 -39.5t-1 -39.5q0 -5 1 -35.5t1 -44.5q0 -10 -2 -24t-2 -19q0 -8 3.5 -22.5t3.5 -24.5q0 -52 -31 -56h-305l-117 13l-14 65v60q0 32 -5 53q-1 3 -1.5 6.5 t-0.5 11.5v18t-0.5 30.5t-1.5 43.5q0 2 -1 7.5t-1 7.5z" />
<glyph unicode="&#xe5;" horiz-adv-x="1637" d="M123 162q52 243 104 440l139 545q0 5 5.5 11.5t11.5 8.5h16q15 0 40 4.5t42 4.5q25 0 73 -4.5t77 -4.5q71 0 144.5 5.5t158.5 5.5q13 0 133 -3.5t137 -3.5q8 0 21.5 -4t21.5 -4h16q17 -6 17 -20l145 -541q57 -218 105 -440q1 -3 4 -19t5.5 -28.5t5 -31t1.5 -32 t-3.5 -26.5t-10 -20t-19.5 -7q-198 0 -202 4h-113q0 8 -16 8q-1 0 -4 -4t-5 -4h-6l-24 2q-24 2 -56.5 4t-52.5 2q-20 37 -53 207q-19 -4 -47 -5.5t-49.5 -1.5t-56.5 0.5t-50 0.5q-36 -170 -53 -201q-5 0 -15.5 -4t-11.5 -4h-4q-8 0 -16 4t-11 4l-80 -3q-16 -1 -37 -2t-32 -2 l-10 -1h-166q-1 0 -46.5 -1t-95 -2t-61.5 -1q-11 0 -18.5 7t-10 20t-3 26.5t2 32.5t4.5 31t5 28t4 19zM388 1700q0 106 42.5 206t127 168t189.5 68q33 0 48 -3q2 2 11 2q116 0 176 -8.5t113 -36.5q108 -72 157 -162t49 -222q0 -160 -84 -279l-10 -5q-25 -38 -63 -65 t-73.5 -40.5t-87.5 -21t-85.5 -8.5t-87.5 -1q-154 -2 -262 61q-80 46 -120 147.5t-40 199.5zM683 1690q0 -15 1 -24q0 -3 2.5 -13t11.5 -27.5t23.5 -32.5t41.5 -26.5t62 -11.5q51 0 90 18.5t59.5 44t33.5 56.5t16.5 51t3.5 33q0 37 -29 75q-53 68 -174 68q-23 0 -45 -9 t-45 -30t-37.5 -65.5t-14.5 -106.5zM799 438h90q6 6 12 6h4q7 0 13 -0.5t11.5 -2t10.5 -2.5t11 -2.5t11 -2.5q-10 63 -29 176.5t-32.5 192t-13.5 80.5q-2 2 -3 6t-2 10t-2 10q-6 -18 -6 -26q0 -1 -13.5 -79t-32.5 -190.5t-29 -175.5z" />
<glyph unicode="&#xe6;" horiz-adv-x="2205" d="M124 -2q-16 0 -20.5 13.5t1.5 35.5t13.5 42.5t17.5 43.5t12 29q107 258 194 440l256 545q2 11 22 20h16q15 0 41 4.5t43 4.5q25 0 72 -4.5t76 -4.5q71 0 141 4.5t115 5.5q36 7 133 7q53 0 154 -5t154 -5q62 0 192.5 8t192.5 8q8 0 9 -1t1 -7h64q14 0 23.5 -12.5t15.5 -35 t10 -46.5t9.5 -55.5t11.5 -53.5q0 -57 -21 -57q-1 0 -7 4t-7 4q-10 2 -25.5 -3t-23.5 -5q-9 0 -20.5 4t-18.5 4q-14 0 -47.5 -7t-40.5 -8q-15 -2 -211 -2q-16 0 -25.5 -64t-9.5 -106q0 -20 9.5 -26t39.5 -6h281q14 3 30 -12.5t19 -43.5l3 -135q3 -17 -9.5 -27.5t-40 -15.5 t-54 -6.5t-67.5 -1.5h-90h-25h-41.5t-28 -2.5t-21 -8t-9.5 -15t-4 -25.5q0 -12 1 -16q0 -5 1 -7q0 -5 -0.5 -12.5t-1.5 -17t-1 -14.5l-3 -25q0 -14 1 -40.5t1 -29.5q62 0 187.5 6t186.5 6q8 0 12.5 -13.5t6.5 -36.5t4 -30q3 -11 8.5 -33t7.5 -30.5t4 -28t2 -43.5 q0 -1 -0.5 -5.5t-0.5 -7.5q-1 -3 -1 -9l-14 -15q-3 -1 -8 -1q-4 -1 -12 -1q-40 0 -185 -8t-368 -8q-197 0 -201 4h-113q0 4 -3 6q-2 0 -2 1q-1 0 -4 0.5t-5 0.5q-1 0 -5 -4t-6 -4h-6l-10 1q-9 1 -24 2t-32 2t-34.5 2t-30.5 1q-13 41 -1 207q-20 -4 -48.5 -5.5t-50 -1.5 t-56.5 0.5t-50 0.5q-75 -166 -103 -201q-5 0 -16.5 -4t-12.5 -4h-4q-9 0 -16 4t-9 4l-81 -3q-17 -1 -37.5 -2t-31.5 -2l-11 -1h-126q-8 -4 -203 -4zM853 438h90q6 6 13 6h4q12 0 55 -10q5 62 14.5 176.5t16 192.5t6.5 80v26l-13 -26q0 -2 -33 -79.5t-80.5 -190t-72.5 -175.5 z" />
<glyph unicode="&#xe7;" horiz-adv-x="1201" d="M85 549q0 159 46 289t126.5 215t188.5 130.5t233 45.5q216 0 446 -133l-28 -232q-6 2 -33.5 8.5t-37.5 9t-34 8t-38.5 7.5t-33.5 4t-36 2q-45 0 -79 -14.5t-62.5 -49.5t-44 -102t-15.5 -164q0 -288 151 -288q85 0 240 104l20 -291q-65 -63 -165.5 -103t-191.5 -44l-9 -47 q337 -58 337 -261q0 -48 -11 -89.5t-42 -84.5t-80.5 -73t-132 -49t-191.5 -19q-18 0 -37.5 1.5t-58.5 6.5t-72 19t-50 36l20 111q12 38 23 58q67 -30 140 -30q30 0 54 8.5t38.5 22.5t24 32t13.5 36.5t4 37.5q0 52 -35 81t-93 29q-43 0 -87 -16l5 81l19 122q-73 11 -133 33 t-117 65.5t-95.5 106.5t-62 159.5t-23.5 220.5z" />
<glyph unicode="&#xe8;" horiz-adv-x="1275" d="M116 698q0 292 15 449q0 38 168 37h5h4.5h4.5q58 0 173.5 -5t174.5 -5q11 0 30.5 1t29.5 1l12 -9q103 23 313 23q5 0 10 -8h64q14 0 23.5 -12.5t15.5 -35t10 -46.5t9.5 -55.5t11.5 -53.5q0 -57 -21 -57q-1 0 -7 4t-7 4q-10 2 -25.5 -3t-23.5 -5q-9 0 -20.5 4t-18.5 4 q-14 0 -47.5 -7t-40.5 -8q-24 -3 -63 -1.5t-85.5 -2.5t-62.5 -16v6q-16 0 -25.5 -59t-9.5 -99q0 -23 6.5 -30.5t22.5 -7.5q14 0 20 6q13 0 23 -6h174q6 6 14 6q14 2 33.5 -5.5t21.5 -7.5q6 -1 17.5 -2t14.5 -1.5t9.5 -3t9.5 -6.5t6.5 -11.5t6.5 -18.5l43 -135q3 -17 -13 -28 t-50 -15.5t-66.5 -6t-81.5 -1.5h-90h-25h-41.5t-28 -2.5t-21 -8t-9.5 -15t-4 -25.5q0 -12 1 -16q0 -5 1 -7q0 -5 -0.5 -12.5t-1.5 -17t-1 -14.5l-3 -25q0 -14 1 -40.5t1 -29.5q62 0 187.5 6t186.5 6q7 0 11 -13.5t7 -36.5t5 -30q3 -14 10 -40t9.5 -45.5t2.5 -49.5 q0 -1 -0.5 -5.5t-0.5 -7.5q-1 -3 -1 -9l-14 -15q-3 -1 -8 -1q-4 -1 -12 -1q-16 0 -28.5 4.5t-14.5 4.5q-3 0 -14 -6t-13 -9v10q-3 0 -24.5 -1t-30.5 -1q-4 0 -14.5 3.5t-14.5 3.5q-75 0 -106 -15h-650q-4 0 -17.5 28t-19.5 50q-36 61 -36 371q0 27 -3.5 95.5t-3.5 145.5z M281 2093q0 15 13.5 22.5t55.5 16.5q4 0 8 -1t7 -1l14 4l88 6q3 1 12 2.5t13 3.5q5 -1 20.5 -1.5t22.5 -2.5l12 6q32 0 112 -3t132 -3l88 -14l16 -14q43 -156 74 -316q4 -41 25.5 -196t21.5 -236q0 -61 -39 -61q-19 0 -56 1t-55 1h-59l-8 6l-14 -8q-14 2 -76 2 q-17 0 -43.5 42.5t-60.5 114t-46 92.5q-26 47 -65 137t-66 138q-41 64 -95.5 160t-51.5 102z" />
<glyph unicode="&#xe9;" horiz-adv-x="1275" d="M116 698q0 292 15 449q0 38 168 37h5h4.5h4.5q58 0 173.5 -5t174.5 -5q11 0 30.5 1t29.5 1l12 -9q103 23 313 23q5 0 10 -8h64q14 0 23.5 -12.5t15.5 -35t10 -46.5t9.5 -55.5t11.5 -53.5q0 -57 -21 -57q-1 0 -7 4t-7 4q-10 2 -25.5 -3t-23.5 -5q-9 0 -20.5 4t-18.5 4 q-14 0 -47.5 -7t-40.5 -8q-24 -3 -63 -1.5t-85.5 -2.5t-62.5 -16v6q-16 0 -25.5 -59t-9.5 -99q0 -23 6.5 -30.5t22.5 -7.5q14 0 20 6q13 0 23 -6h174q6 6 14 6q14 2 33.5 -5.5t21.5 -7.5q6 -1 17.5 -2t14.5 -1.5t9.5 -3t9.5 -6.5t6.5 -11.5t6.5 -18.5l43 -135q3 -17 -13 -28 t-50 -15.5t-66.5 -6t-81.5 -1.5h-90h-25h-41.5t-28 -2.5t-21 -8t-9.5 -15t-4 -25.5q0 -12 1 -16q0 -5 1 -7q0 -5 -0.5 -12.5t-1.5 -17t-1 -14.5l-3 -25q0 -14 1 -40.5t1 -29.5q62 0 187.5 6t186.5 6q7 0 11 -13.5t7 -36.5t5 -30q3 -14 10 -40t9.5 -45.5t2.5 -49.5 q0 -1 -0.5 -5.5t-0.5 -7.5q-1 -3 -1 -9l-14 -15q-3 -1 -8 -1q-4 -1 -12 -1q-16 0 -28.5 4.5t-14.5 4.5q-3 0 -14 -6t-13 -9v10q-3 0 -24.5 -1t-30.5 -1q-4 0 -14.5 3.5t-14.5 3.5q-75 0 -106 -15h-650q-4 0 -17.5 28t-19.5 50q-36 61 -36 371q0 27 -3.5 95.5t-3.5 145.5z M294 1366q0 81 21.5 236t25.5 196q31 160 74 316l16 14l88 14q52 0 132 3t112 3l12 -6q7 2 22.5 2.5t20.5 1.5q4 -2 13 -3.5t12 -2.5l88 -6l14 -4q3 0 7 1t8 1q42 -9 55.5 -16.5t13.5 -22.5q3 -6 -51.5 -102t-95.5 -160q-28 -44 -66.5 -128t-64.5 -126q-11 -22 -46 -101 t-61 -124t-43 -45q-62 0 -76 -2l-14 8l-8 -6h-59q-18 0 -55 -1t-56 -1q-39 0 -39 61z" />
<glyph unicode="&#xea;" horiz-adv-x="1275" d="M92 1346q0 21 2 26q16 77 85.5 219t84.5 181q91 177 127 235l14 16l94 23h121l76 -2q43 -4 121 -4l61 -6l47 -27q6 -12 63.5 -114t75 -136.5t57.5 -114.5t62.5 -143t38.5 -127q0 -4 1 -12t1 -14q0 -41 -31 -41q-14 0 -46 1t-48 1h-20l-41 -2q-43 2 -119 2 q-13 0 -37.5 33.5t-56.5 83.5t-47 69q-37 41 -119 166q-65 -110 -109 -176q-118 -176 -153 -176q-64 0 -80 -2l-10 8l-9 -6h-61q-17 0 -56.5 -1t-58.5 -1q-30 0 -30 41zM116 698q0 292 15 449q0 38 168 37h5h4.5h4.5q58 0 173.5 -5t174.5 -5q11 0 30.5 1t29.5 1l12 -9 q103 23 313 23q5 0 10 -8h64q14 0 23.5 -12.5t15.5 -35t10 -46.5t9.5 -55.5t11.5 -53.5q0 -57 -21 -57q-1 0 -7 4t-7 4q-10 2 -25.5 -3t-23.5 -5q-9 0 -20.5 4t-18.5 4q-14 0 -47.5 -7t-40.5 -8q-24 -3 -63 -1.5t-85.5 -2.5t-62.5 -16v6q-16 0 -25.5 -59t-9.5 -99 q0 -23 6.5 -30.5t22.5 -7.5q14 0 20 6q13 0 23 -6h174q6 6 14 6q14 2 33.5 -5.5t21.5 -7.5q6 -1 17.5 -2t14.5 -1.5t9.5 -3t9.5 -6.5t6.5 -11.5t6.5 -18.5l43 -135q3 -17 -13 -28t-50 -15.5t-66.5 -6t-81.5 -1.5h-90h-25h-41.5t-28 -2.5t-21 -8t-9.5 -15t-4 -25.5 q0 -12 1 -16q0 -5 1 -7q0 -5 -0.5 -12.5t-1.5 -17t-1 -14.5l-3 -25q0 -14 1 -40.5t1 -29.5q62 0 187.5 6t186.5 6q7 0 11 -13.5t7 -36.5t5 -30q3 -14 10 -40t9.5 -45.5t2.5 -49.5q0 -1 -0.5 -5.5t-0.5 -7.5q-1 -3 -1 -9l-14 -15q-3 -1 -8 -1q-4 -1 -12 -1q-16 0 -28.5 4.5 t-14.5 4.5q-3 0 -14 -6t-13 -9v10q-3 0 -24.5 -1t-30.5 -1q-4 0 -14.5 3.5t-14.5 3.5q-75 0 -106 -15h-650q-4 0 -17.5 28t-19.5 50q-36 61 -36 371q0 27 -3.5 95.5t-3.5 145.5z" />
<glyph unicode="&#xeb;" horiz-adv-x="1275" d="M116 698q0 292 15 449q0 38 168 37h5h4.5h4.5q58 0 173.5 -5t174.5 -5q11 0 30.5 1t29.5 1l12 -9q103 23 313 23q5 0 10 -8h64q14 0 23.5 -12.5t15.5 -35t10 -46.5t9.5 -55.5t11.5 -53.5q0 -57 -21 -57q-1 0 -7 4t-7 4q-10 2 -25.5 -3t-23.5 -5q-9 0 -20.5 4t-18.5 4 q-14 0 -47.5 -7t-40.5 -8q-24 -3 -63 -1.5t-85.5 -2.5t-62.5 -16v6q-16 0 -25.5 -59t-9.5 -99q0 -23 6.5 -30.5t22.5 -7.5q14 0 20 6q13 0 23 -6h174q6 6 14 6q14 2 33.5 -5.5t21.5 -7.5q6 -1 17.5 -2t14.5 -1.5t9.5 -3t9.5 -6.5t6.5 -11.5t6.5 -18.5l43 -135q3 -17 -13 -28 t-50 -15.5t-66.5 -6t-81.5 -1.5h-90h-25h-41.5t-28 -2.5t-21 -8t-9.5 -15t-4 -25.5q0 -12 1 -16q0 -5 1 -7q0 -5 -0.5 -12.5t-1.5 -17t-1 -14.5l-3 -25q0 -14 1 -40.5t1 -29.5q62 0 187.5 6t186.5 6q7 0 11 -13.5t7 -36.5t5 -30q3 -14 10 -40t9.5 -45.5t2.5 -49.5 q0 -1 -0.5 -5.5t-0.5 -7.5q-1 -3 -1 -9l-14 -15q-3 -1 -8 -1q-4 -1 -12 -1q-16 0 -28.5 4.5t-14.5 4.5q-3 0 -14 -6t-13 -9v10q-3 0 -24.5 -1t-30.5 -1q-4 0 -14.5 3.5t-14.5 3.5q-75 0 -106 -15h-650q-4 0 -17.5 28t-19.5 50q-36 61 -36 371q0 27 -3.5 95.5t-3.5 145.5z M122 1456v60q0 8 -1.5 24.5t-1 29.5t4.5 25l10 64q0 2 -1 7t-1 7q13 39 22 49.5t37 10.5h213q53 6 70 6q13 0 27.5 -3t27.5 -3q21 0 29 2h6q22 0 22 -52q0 -12 -1 -39.5t-1 -39.5q0 -5 1 -35.5t1 -44.5q0 -16 1.5 -45t1.5 -45q0 -52 -31 -56h-408l-14 13zM750 1694 q20 28 30.5 33.5t49.5 5.5h213q53 6 70 6q13 0 27 -3t28 -3q21 0 29 2h6q22 0 22 -52q0 -12 -1 -39.5t-1 -39.5q0 -5 1 -35.5t1 -44.5q0 -10 -2 -24t-2 -19q0 -8 3.5 -22.5t3.5 -24.5q0 -52 -31 -56h-305l-117 13l-14 65v60q0 32 -5 53q0 1 -4 110q0 2 -1 7.5t-1 7.5z" />
<glyph unicode="&#xec;" horiz-adv-x="779" d="M34 2093q0 15 13.5 22.5t55.5 16.5q3 0 7 -1t8 -1l14 4l88 6q3 1 12 2.5t13 3.5q5 -1 20.5 -1.5t22.5 -2.5l12 6q32 0 112 -3t132 -3l88 -14l16 -14q43 -156 74 -316q4 -41 25.5 -196t21.5 -236q0 -61 -39 -61q-18 0 -55 1t-56 1h-59l-8 6l-14 -8q-14 2 -76 2 q-17 0 -43.5 42.5t-60.5 114t-46 92.5q-26 47 -65 137t-66 138q-41 64 -95.5 160t-51.5 102zM113 676v440q0 29 94 29q31 0 94 -4t99 -4l8 6h90q6 -6 15 -6q2 0 18 3l16 3q21 0 29 -6h152l4 -295q-13 -35 -13 -160v-399l-8 -78q-3 -30 -3.5 -68.5t-1.5 -59t-5 -41.5 t-15.5 -29.5t-31.5 -8.5q-2 0 -4 2t-4 2q-7 0 -29 -6q-27 -2 -48.5 2t-27.5 4q-8 0 -14 -6h-154q-2 0 -82 -11.5t-94 -11.5q-17 0 -28 14t-16 37.5t-7 44t-3 45.5t-1 29q-2 43 -15.5 237t-13.5 296z" />
<glyph unicode="&#xed;" horiz-adv-x="779" d="M47 1366q0 81 21.5 236t25.5 196q31 160 74 316l16 14l88 14q52 0 132 3t112 3l12 -6q7 2 22.5 2.5t20.5 1.5q4 -2 13 -3.5t12 -2.5l88 -6l14 -4q4 0 8 1t7 1q42 -9 55.5 -16.5t13.5 -22.5q3 -6 -51.5 -102t-95.5 -160q-28 -44 -66.5 -128t-64.5 -126q-11 -22 -46 -101 t-61 -124t-43 -45q-62 0 -76 -2l-14 8l-8 -6h-59q-19 0 -56 -1t-55 -1q-39 0 -39 61zM113 676v440q0 29 94 29q31 0 94 -4t99 -4l8 6h90q6 -6 15 -6q2 0 18 3l16 3q21 0 29 -6h152l4 -295q-13 -35 -13 -160v-399l-8 -78q-3 -30 -3.5 -68.5t-1.5 -59t-5 -41.5t-15.5 -29.5 t-31.5 -8.5q-2 0 -4 2t-4 2q-7 0 -29 -6q-27 -2 -48.5 2t-27.5 4q-8 0 -14 -6h-154q-2 0 -82 -11.5t-94 -11.5q-17 0 -28 14t-16 37.5t-7 44t-3 45.5t-1 29q-2 43 -15.5 237t-13.5 296z" />
<glyph unicode="&#xee;" horiz-adv-x="779" d="M-154 1346q0 21 2 26q16 77 85.5 219t84.5 181q91 177 127 235l14 16l94 23h121l76 -2q43 -4 121 -4l61 -6l47 -27q6 -12 63.5 -114t75 -136.5t57.5 -114.5t62.5 -143t38.5 -127q0 -4 1 -12t1 -14q0 -41 -31 -41q-14 0 -46 1t-48 1h-20l-41 -2q-43 2 -119 2 q-13 0 -37.5 33.5t-56.5 83.5t-47 69q-37 41 -119 166q-65 -110 -109 -176q-118 -176 -153 -176q-64 0 -80 -2l-10 8l-9 -6h-61q-17 0 -56.5 -1t-58.5 -1q-30 0 -30 41zM113 676v440q0 29 94 29q31 0 94 -4t99 -4l8 6h90q6 -6 15 -6q2 0 18 3l16 3q21 0 29 -6h152l4 -295 q-13 -35 -13 -160v-399l-8 -78q-3 -30 -3.5 -68.5t-1.5 -59t-5 -41.5t-15.5 -29.5t-31.5 -8.5q-2 0 -4 2t-4 2q-7 0 -29 -6q-27 -2 -48.5 2t-27.5 4q-8 0 -14 -6h-154q-2 0 -82 -11.5t-94 -11.5q-17 0 -28 14t-16 37.5t-7 44t-3 45.5t-1 29q-2 43 -15.5 237t-13.5 296z" />
<glyph unicode="&#xef;" horiz-adv-x="779" d="M-126 1456v60q0 8 -1.5 24.5t-1 29.5t4.5 25l10 64q0 2 -1 7t-1 7q13 39 22 49.5t37 10.5h213q52 6 70 6q13 0 27.5 -3t27.5 -3q21 0 29 2h6q22 0 22 -52q0 -12 -1 -39.5t-1 -39.5q0 -5 1 -35.5t1 -44.5q0 -16 1.5 -45t1.5 -45q0 -52 -31 -56h-408l-14 13zM113 676v440 q0 29 94 29q31 0 94 -4t99 -4l8 6h90q6 -6 15 -6q2 0 18 3l16 3q21 0 29 -6h152l4 -295q-13 -35 -13 -160v-399l-8 -78q-3 -30 -3.5 -68.5t-1.5 -59t-5 -41.5t-15.5 -29.5t-31.5 -8.5q-2 0 -4 2t-4 2q-7 0 -29 -6q-27 -2 -48.5 2t-27.5 4q-8 0 -14 -6h-154q-2 0 -82 -11.5 t-94 -11.5q-17 0 -28 14t-16 37.5t-7 44t-3 45.5t-1 29q-2 43 -15.5 237t-13.5 296zM502 1694q20 28 30.5 33.5t49.5 5.5h213q53 6 70 6q13 0 27 -3t28 -3q21 0 29 2h6q22 0 22 -52q0 -12 -1 -39.5t-1 -39.5q0 -5 1 -35.5t1 -44.5q0 -10 -2 -24t-2 -19q0 -8 3.5 -22.5 t3.5 -24.5q0 -52 -31 -56h-305l-117 13l-14 65v60q0 32 -5 53q0 1 -4 110q0 2 -1 7.5t-1 7.5z" />
<glyph unicode="&#xf0;" horiz-adv-x="1591" d="M79 472q0 95 41.5 169t115.5 118q148 68 347 68q121 0 247 -65q0 4 -1.5 30t-3 41t-4.5 40t-9.5 47.5t-15.5 42.5l-63 -32q-6 -3 -18.5 -10t-19.5 -10.5t-18 -9.5t-18 -9t-16 -6t-15.5 -3.5t-12.5 -0.5t-10 3.5t-7 8.5q-13 26 -32.5 60t-30.5 55q-3 7 -2.5 16t4.5 11 q5 3 100 57q-32 5 -57 5q-126 0 -285 -74q-20 -5 -34 -6t-26 5t-19 12t-16.5 25.5t-14.5 34t-17 48.5q-3 8 -4.5 12.5t-4.5 12t-5 14.5q-22 50 -24.5 81t3.5 39.5t24 17t20 10.5q15 11 35 21.5t31.5 15.5t39.5 15.5t34 13.5q170 67 329 67q265 0 462 -113q44 22 119 60 t91 46q111 56 123 36q9 -17 15.5 -36.5t11.5 -28.5l16 -32t9.5 -22t4 -17.5t-5.5 -8.5l-45 -27q-51 -32 -60 -36l-116 -61q104 -106 154 -231q42 -110 42 -310q0 -138 -42 -255.5t-113 -199t-165 -139.5t-197.5 -85t-211.5 -27q-103 0 -199 19.5t-180 60t-146 98.5 t-98 139.5t-36 178.5zM583 424q0 -55 31.5 -81.5t84.5 -26.5q117 0 156 156q-87 36 -170 36q-102 0 -102 -84z" />
<glyph unicode="&#xf1;" horiz-adv-x="1539" d="M116 649q0 5 2.5 50t2.5 51q0 4 -2.5 34.5t-2.5 34.5q0 5 2.5 53t2.5 54q0 1 1 19.5t2 41t1 33.5q0 5 -2 46t-2 48q0 1 -3.5 6.5t-1.5 7.5q21 56 121 56q93 0 195 6.5t139.5 6t48.5 -14.5q56 -79 287 -426q0 103 4 241t8 140q44 44 80 41h101q6 0 133 -3.5t129 -3.5 q45 0 63.5 -14t18.5 -59q0 -8 -3.5 -46.5t-3.5 -47.5q0 -4 2.5 -15.5t2.5 -17.5q0 -23 -2.5 -288t-2.5 -290q0 -302 -9 -351q-7 -40 -30 -44q-7 -2 -24 -2q-73 0 -110 1q-32 0 -105 0.5t-107 0.5q-4 0 -19.5 -1t-26.5 -0.5t-26.5 3t-30 10t-26.5 19.5l-180 252 q-7 13 -40.5 48.5t-41.5 35.5q-6 0 -10 -4.5t-4 -10.5q0 -24 -2 -146t-2 -141q-1 -3 -5 -27.5t-10 -27.5h-26q-184 -14 -268 -14q-13 0 -39.5 0.5t-47.5 1t-22 0.5l-80 20l-4 13q-2 0 -6 139.5t-4 216.5q-15 163 -15 264zM223 1440q0 43 1 71.5t9 77.5t22 82.5t42 73 t67.5 64t101 41t139.5 16.5q43 0 122.5 -39t109.5 -80q7 -8 22.5 -32t26 -37.5t29.5 -26t40 -12.5q39 0 51.5 23t1.5 55t-25 58.5t-26 40.5q1 20 30 20h11l313 1q27 -4 48.5 -95t15.5 -182q-4 -85 -79.5 -167.5t-189.5 -113.5q-41 -15 -99 -15q-69 0 -127 24t-96.5 58 t-72 67.5t-69.5 57.5t-73 24q-40 0 -52 -88q-10 -72 -11 -75q-5 -17 -15 -10q-182 8 -214.5 17.5t-43.5 59.5q-5 25 -10 41z" />
<glyph unicode="&#xf2;" horiz-adv-x="1533" d="M90 561q0 118 38.5 235.5t106 213t171 155.5t223.5 60q49 0 73 -4q3 2 15 2q177 0 266 -12t168 -56q163 -108 236 -242t73 -333q0 -196 -92 -365q-6 -13 -19.5 -34t-15.5 -21l-14 -8q-28 -42 -65.5 -74.5t-73.5 -53.5t-86.5 -36t-88.5 -22.5t-96.5 -11.5t-92.5 -4.5 t-93 -0.5q-15 0 -44 4t-44 4q-81 0 -193 35h-14q-8 0 -12.5 1t-12.5 4.5t-14.5 7.5t-24 15t-34.5 21q-62 35 -110.5 98.5t-75.5 137.5t-40.5 146.5t-13.5 137.5zM410 2093q0 15 13.5 22.5t55.5 16.5q3 0 7 -1t8 -1l14 4l88 6q3 1 12 2.5t13 3.5q5 -1 20.5 -1.5t22.5 -2.5 l12 6q32 0 112 -3t132 -3l88 -14l16 -14q43 -156 74 -316q4 -41 25.5 -196t21.5 -236q0 -61 -39 -61q-18 0 -55 1t-56 1h-59l-8 6l-14 -8q-14 2 -76 2q-17 0 -43.5 42.5t-60.5 114t-46 92.5q-26 47 -65 137t-66 138q-41 64 -95.5 160t-51.5 102zM688 475q0 -24 7.5 -143 t12.5 -137l23 -78q4 -15 29 -15q30 0 51.5 78t30.5 190.5t12.5 191.5t3.5 126q0 183 -28 262q-13 37 -31 37q-21 0 -40.5 -34.5t-27.5 -106.5l-43 -330v-41z" />
<glyph unicode="&#xf3;" horiz-adv-x="1533" d="M90 561q0 118 38.5 235.5t106 213t171 155.5t223.5 60q49 0 73 -4q3 2 15 2q177 0 266 -12t168 -56q163 -108 236 -242t73 -333q0 -196 -92 -365q-6 -13 -19.5 -34t-15.5 -21l-14 -8q-28 -42 -65.5 -74.5t-73.5 -53.5t-86.5 -36t-88.5 -22.5t-96.5 -11.5t-92.5 -4.5 t-93 -0.5q-15 0 -44 4t-44 4q-81 0 -193 35h-14q-8 0 -12.5 1t-12.5 4.5t-14.5 7.5t-24 15t-34.5 21q-62 35 -110.5 98.5t-75.5 137.5t-40.5 146.5t-13.5 137.5zM423 1366q0 81 21.5 236t25.5 196q31 160 74 316l16 14l88 14q52 0 132 3t112 3l12 -6q7 2 22.5 2.5t20.5 1.5 q4 -2 13 -3.5t12 -2.5l88 -6l14 -4q4 0 8 1t7 1q42 -9 55.5 -16.5t13.5 -22.5q3 -6 -51.5 -102t-95.5 -160q-28 -44 -66.5 -128t-64.5 -126q-11 -22 -46 -101t-61 -124t-43 -45q-62 0 -76 -2l-14 8l-8 -6h-59q-19 0 -56 -1t-55 -1q-39 0 -39 61zM688 475q0 -24 7.5 -143 t12.5 -137l23 -78q4 -15 29 -15q30 0 51.5 78t30.5 190.5t12.5 191.5t3.5 126q0 183 -28 262q-13 37 -31 37q-21 0 -40.5 -34.5t-27.5 -106.5l-43 -330v-41z" />
<glyph unicode="&#xf4;" horiz-adv-x="1533" d="M90 561q0 118 38.5 235.5t106 213t171 155.5t223.5 60q49 0 73 -4q3 2 15 2q177 0 266 -12t168 -56q163 -108 236 -242t73 -333q0 -196 -92 -365q-6 -13 -19.5 -34t-15.5 -21l-14 -8q-28 -42 -65.5 -74.5t-73.5 -53.5t-86.5 -36t-88.5 -22.5t-96.5 -11.5t-92.5 -4.5 t-93 -0.5q-15 0 -44 4t-44 4q-81 0 -193 35h-14q-8 0 -12.5 1t-12.5 4.5t-14.5 7.5t-24 15t-34.5 21q-62 35 -110.5 98.5t-75.5 137.5t-40.5 146.5t-13.5 137.5zM221 1346q0 21 2 26q16 77 85.5 219t84.5 181q91 177 127 235l14 16l94 23h121l76 -2q43 -4 121 -4l61 -6 l47 -27q6 -12 63.5 -114t75 -136.5t57.5 -114.5t62.5 -143t38.5 -127q0 -4 1 -12t1 -14q0 -41 -31 -41q-14 0 -46 1t-48 1h-20l-41 -2q-43 2 -119 2q-13 0 -37.5 33.5t-56.5 83.5t-47 69q-37 41 -119 166q-65 -110 -109 -176q-118 -176 -153 -176q-64 0 -80 -2l-10 8l-9 -6 h-61q-17 0 -56.5 -1t-58.5 -1q-30 0 -30 41zM688 475q0 -24 7.5 -143t12.5 -137l23 -78q4 -15 29 -15q30 0 51.5 78t30.5 190.5t12.5 191.5t3.5 126q0 183 -28 262q-13 37 -31 37q-21 0 -40.5 -34.5t-27.5 -106.5l-43 -330v-41z" />
<glyph unicode="&#xf5;" horiz-adv-x="1533" d="M90 561q0 118 38.5 235.5t106 213t171 155.5t223.5 60q49 0 73 -4q3 2 15 2q177 0 266 -12t168 -56q163 -108 236 -242t73 -333q0 -196 -92 -365q-6 -13 -19.5 -34t-15.5 -21l-14 -8q-28 -42 -65.5 -74.5t-73.5 -53.5t-86.5 -36t-88.5 -22.5t-96.5 -11.5t-92.5 -4.5 t-93 -0.5q-15 0 -44 4t-44 4q-81 0 -193 35h-14q-8 0 -12.5 1t-12.5 4.5t-14.5 7.5t-24 15t-34.5 21q-62 35 -110.5 98.5t-75.5 137.5t-40.5 146.5t-13.5 137.5zM220 1440q0 43 1 71.5t9 77.5t22 82.5t42 73t67.5 64t101 41t139.5 16.5q43 0 122.5 -39t109.5 -80 q7 -8 22.5 -32t26 -37.5t29.5 -26t40 -12.5q39 0 51.5 23t1.5 55t-25 58.5t-26 40.5q1 20 30 20h11l313 1q27 -4 48.5 -95t15.5 -182q-4 -85 -79.5 -167.5t-189.5 -113.5q-41 -15 -99 -15q-69 0 -127 24t-96.5 58t-72 67.5t-69.5 57.5t-73 24q-40 0 -52 -88q-10 -72 -11 -75 q-5 -17 -15 -10q-182 8 -214.5 17.5t-43.5 59.5q-5 25 -10 41zM688 475q0 -24 7.5 -143t12.5 -137l23 -78q4 -15 29 -15q30 0 51.5 78t30.5 190.5t12.5 191.5t3.5 126q0 183 -28 262q-13 37 -31 37q-21 0 -40.5 -34.5t-27.5 -106.5l-43 -330v-41z" />
<glyph unicode="&#xf6;" horiz-adv-x="1533" d="M90 561q0 118 38.5 235.5t106 213t171 155.5t223.5 60q49 0 73 -4q3 2 15 2q177 0 266 -12t168 -56q163 -108 236 -242t73 -333q0 -196 -92 -365q-6 -13 -19.5 -34t-15.5 -21l-14 -8q-28 -42 -65.5 -74.5t-73.5 -53.5t-86.5 -36t-88.5 -22.5t-96.5 -11.5t-92.5 -4.5 t-93 -0.5q-15 0 -44 4t-44 4q-81 0 -193 35h-14q-8 0 -12.5 1t-12.5 4.5t-14.5 7.5t-24 15t-34.5 21q-62 35 -110.5 98.5t-75.5 137.5t-40.5 146.5t-13.5 137.5zM250 1456v60q0 8 -1.5 24.5t-1 29.5t4.5 25l10 64q0 2 -1 7t-1 7q13 39 22 49.5t37 10.5h213q52 6 70 6 q13 0 27.5 -3t27.5 -3q21 0 29 2h6q22 0 22 -52q0 -12 -1 -39.5t-1 -39.5q0 -5 1 -35.5t1 -44.5q0 -16 1.5 -45t1.5 -45q0 -52 -31 -56h-408l-14 13zM688 475q0 -24 7.5 -143t12.5 -137l23 -78q4 -15 29 -15q30 0 51.5 78t30.5 190.5t12.5 191.5t3.5 126q0 183 -28 262 q-13 37 -31 37q-21 0 -40.5 -34.5t-27.5 -106.5l-43 -330v-41zM878 1694q20 28 30.5 33.5t49.5 5.5h213q53 6 70 6q13 0 27 -3t28 -3q21 0 29 2h6q22 0 22 -52q0 -12 -1 -39.5t-1 -39.5q0 -5 1 -35.5t1 -44.5q0 -10 -2 -24t-2 -19q0 -8 3.5 -22.5t3.5 -24.5q0 -52 -31 -56 h-305l-117 13l-14 65v60q0 32 -5 53q0 1 -4 110q0 2 -1 7.5t-1 7.5z" />
<glyph unicode="&#xf7;" horiz-adv-x="1038" d="M50 798q0 14 16.5 27.5t32.5 13.5h232q27 0 269.5 -4t269.5 -4q114 0 114 -43q0 -50 2.5 -91.5t2.5 -89.5q0 -19 -1 -32t-5.5 -29t-15.5 -24.5t-28 -8.5q-59 0 -126 2t-97 2q-7 0 -147 1.5t-147 1.5h-209h-25h-26h-24t-23.5 1.5t-20 3.5t-18 5.5t-13 8t-9 11.5t-2.5 15 q0 46 -1 117t-1 116zM265 1293l10 12l56 13h103q12 0 32 2.5t30 2.5h41l12 -5q4 1 10 1.5t13.5 1t11.5 0.5q4 -1 11.5 -2t11.5 -3l42 -5l12 -4q3 0 7.5 1t5.5 1q33 -10 41.5 -18t8.5 -33q18 -16 18 -182q7 -52 3.5 -78t-1.5 -52q2 -11 -3 -17t-18.5 -7.5t-26 -1t-33 1.5 t-31.5 1q-4 0 -24 -1t-33 -1.5t-22 0.5q-94 4 -173 2q-23 -6 -59.5 -3t-38.5 26q-4 32 -7.5 169t-9.5 178zM289 401l10 12l56 13h103q12 0 32 2.5t30 2.5h41l12 -5q4 1 10 1.5t13.5 1t11.5 0.5q4 -1 11.5 -2t11.5 -3l42 -5l12 -3q3 0 7.5 1t5.5 1q33 -12 41.5 -20t8.5 -32 q18 -16 18 -182q7 -52 3.5 -78t-1.5 -52q2 -11 -3 -17t-18.5 -7.5t-26 -1t-33 1.5t-31.5 1q-4 0 -24 -1t-33 -1.5t-22 0.5q-94 4 -173 2q-23 -6 -59.5 -3t-38.5 26q-4 32 -7.5 169t-9.5 178z" />
<glyph unicode="&#xf8;" horiz-adv-x="1827" d="M128 108q-23 19 -25 36t5.5 25.5t26.5 24.5q4 3 6 5l126 87q-51 135 -51 275q0 118 38.5 235.5t106 213t171 155.5t223.5 60q49 0 73 -4q3 2 15 2q177 0 266 -12t168 -56q92 -61 153 -128l159 93q21 9 43 -9q41 -38 54 -43q36 -30 40 -39q10 -20 -30 -55q-19 -16 -56 -44 l-30 -18l-76 -44q52 -120 52 -288q0 -196 -92 -365q-6 -13 -19.5 -34t-15.5 -21l-14 -8q-28 -42 -65.5 -74.5t-73.5 -53.5t-86.5 -36t-88.5 -22.5t-96.5 -11.5t-92.5 -4.5t-93 -0.5q-15 0 -44 4t-44 4q-81 0 -193 35h-14q-8 0 -12.5 1t-12.5 4.5t-14.5 7.5t-24 15t-34.5 21 q-52 30 -93 77q-113 -74 -152 -80q-22 11 -49 29q-18 25 -34 41zM816 422q8 -190 18 -227l23 -78q4 -15 29 -15q40 0 62.5 129.5t30.5 297.5zM834 673l84 56l64 37q-12 221 -57 221q-21 0 -40.5 -34.5t-27.5 -106.5z" />
<glyph unicode="&#xf9;" horiz-adv-x="1619" d="M134 602q0 14 1 68.5t1 58.5l6 14q1 0 4.5 67.5t6.5 150t3 116.5q0 13 -3 38t-3 38q0 31 62 31h30q25 0 33 4l250 -4q0 -6 8 -6l13 6q108 0 144 -25.5t36 -116.5q0 -32 3 -90t3 -90v-20q-14 -299 -14 -480v-15v-22t0.5 -23t2.5 -24.5t5 -19.5t8 -15t12 -5q20 0 91 31 t71 40v674q-8 55 -8 129q0 3 -0.5 13.5t0 15t1.5 12.5t4 11.5t9 6.5t15 3q4 0 9 -4t5 -9v-2q47 21 295 21h35l217 -6q9 -4 11.5 -6t2.5 -7q0 -2 -1 -7t-1 -7q2 0 8 2t8 2q6 0 6 -8q0 -694 -20 -1073q0 -15 -43 -58q-11 8 -35 8q-2 0 -7 -4t-7 -4q-77 -14 -258 -14 q-141 0 -182 8q-13 7 -21.5 28.5t-14.5 39.5t-12 18q-9 0 -19 -3.5t-22 -12t-19.5 -14.5t-21.5 -18t-18 -15q-50 -29 -119.5 -43.5t-105.5 -14.5q-16 0 -66.5 -1t-75 -0.5t-63.5 6.5t-70 18q-40 15 -71.5 45t-51.5 63.5t-34 83.5t-21 88t-10 95t-3.5 87.5t0.5 82t1 63.5z M453 2093q0 15 13.5 22.5t55.5 16.5q4 0 8 -1t7 -1l14 4l88 6q3 1 12 2.5t13 3.5q5 -1 20.5 -1.5t22.5 -2.5l12 6q32 0 112 -3t132 -3l88 -14l16 -14q43 -156 74 -316q4 -41 25.5 -196t21.5 -236q0 -61 -39 -61q-19 0 -56 1t-55 1h-59l-8 6l-14 -8q-14 2 -76 2 q-17 0 -43.5 42.5t-60.5 114t-46 92.5q-26 47 -65 137t-66 138q-41 64 -95.5 160t-51.5 102z" />
<glyph unicode="&#xfa;" horiz-adv-x="1619" d="M134 602q0 14 1 68.5t1 58.5l6 14q1 0 4.5 67.5t6.5 150t3 116.5q0 13 -3 38t-3 38q0 31 62 31h30q25 0 33 4l250 -4q0 -6 8 -6l13 6q108 0 144 -25.5t36 -116.5q0 -32 3 -90t3 -90v-20q-14 -299 -14 -480v-15v-22t0.5 -23t2.5 -24.5t5 -19.5t8 -15t12 -5q20 0 91 31 t71 40v674q-8 55 -8 129q0 3 -0.5 13.5t0 15t1.5 12.5t4 11.5t9 6.5t15 3q4 0 9 -4t5 -9v-2q47 21 295 21h35l217 -6q9 -4 11.5 -6t2.5 -7q0 -2 -1 -7t-1 -7q2 0 8 2t8 2q6 0 6 -8q0 -694 -20 -1073q0 -15 -43 -58q-11 8 -35 8q-2 0 -7 -4t-7 -4q-77 -14 -258 -14 q-141 0 -182 8q-13 7 -21.5 28.5t-14.5 39.5t-12 18q-9 0 -19 -3.5t-22 -12t-19.5 -14.5t-21.5 -18t-18 -15q-50 -29 -119.5 -43.5t-105.5 -14.5q-16 0 -66.5 -1t-75 -0.5t-63.5 6.5t-70 18q-40 15 -71.5 45t-51.5 63.5t-34 83.5t-21 88t-10 95t-3.5 87.5t0.5 82t1 63.5z M466 1366q0 81 21.5 236t25.5 196q31 160 74 316l16 14l88 14q52 0 132 3t112 3l12 -6q7 2 22.5 2.5t20.5 1.5q4 -2 13 -3.5t12 -2.5l88 -6l14 -4q3 0 7 1t8 1q42 -9 55.5 -16.5t13.5 -22.5q3 -6 -51.5 -102t-95.5 -160q-28 -44 -66.5 -128t-64.5 -126q-11 -22 -46 -101 t-61 -124t-43 -45q-62 0 -76 -2l-14 8l-8 -6h-59q-18 0 -55 -1t-56 -1q-39 0 -39 61z" />
<glyph unicode="&#xfb;" horiz-adv-x="1619" d="M134 602q0 14 1 68.5t1 58.5l6 14q1 0 4.5 67.5t6.5 150t3 116.5q0 13 -3 38t-3 38q0 31 62 31h30q25 0 33 4l250 -4q0 -6 8 -6l13 6q108 0 144 -25.5t36 -116.5q0 -32 3 -90t3 -90v-20q-14 -299 -14 -480v-15v-22t0.5 -23t2.5 -24.5t5 -19.5t8 -15t12 -5q20 0 91 31 t71 40v674q-8 55 -8 129q0 3 -0.5 13.5t0 15t1.5 12.5t4 11.5t9 6.5t15 3q4 0 9 -4t5 -9v-2q47 21 295 21h35l217 -6q9 -4 11.5 -6t2.5 -7q0 -2 -1 -7t-1 -7q2 0 8 2t8 2q6 0 6 -8q0 -694 -20 -1073q0 -15 -43 -58q-11 8 -35 8q-2 0 -7 -4t-7 -4q-77 -14 -258 -14 q-141 0 -182 8q-13 7 -21.5 28.5t-14.5 39.5t-12 18q-9 0 -19 -3.5t-22 -12t-19.5 -14.5t-21.5 -18t-18 -15q-50 -29 -119.5 -43.5t-105.5 -14.5q-16 0 -66.5 -1t-75 -0.5t-63.5 6.5t-70 18q-40 15 -71.5 45t-51.5 63.5t-34 83.5t-21 88t-10 95t-3.5 87.5t0.5 82t1 63.5z M264 1346q0 21 2 26q16 77 85.5 219t84.5 181q91 177 127 235l14 16l94 23h121l76 -2q43 -4 121 -4l61 -6l47 -27q6 -12 63.5 -114t75 -136.5t57.5 -114.5t62.5 -143t38.5 -127q0 -4 1 -12t1 -14q0 -41 -31 -41q-14 0 -46 1t-48 1h-20l-41 -2q-43 2 -119 2q-13 0 -37.5 33.5 t-56.5 83.5t-47 69q-37 41 -119 166q-65 -110 -109 -176q-118 -176 -153 -176q-64 0 -80 -2l-10 8l-9 -6h-61q-17 0 -56.5 -1t-58.5 -1q-30 0 -30 41z" />
<glyph unicode="&#xfc;" horiz-adv-x="1619" d="M134 602q0 14 1 68.5t1 58.5l6 14q1 0 4.5 67.5t6.5 150t3 116.5q0 13 -3 38t-3 38q0 31 62 31h30q25 0 33 4l250 -4q0 -6 8 -6l13 6q108 0 144 -25.5t36 -116.5q0 -32 3 -90t3 -90v-20q-14 -299 -14 -480v-15v-22t0.5 -23t2.5 -24.5t5 -19.5t8 -15t12 -5q20 0 91 31 t71 40v674q-8 55 -8 129q0 3 -0.5 13.5t0 15t1.5 12.5t4 11.5t9 6.5t15 3q4 0 9 -4t5 -9v-2q47 21 295 21h35l217 -6q9 -4 11.5 -6t2.5 -7q0 -2 -1 -7t-1 -7q2 0 8 2t8 2q6 0 6 -8q0 -694 -20 -1073q0 -15 -43 -58q-11 8 -35 8q-2 0 -7 -4t-7 -4q-77 -14 -258 -14 q-141 0 -182 8q-13 7 -21.5 28.5t-14.5 39.5t-12 18q-9 0 -19 -3.5t-22 -12t-19.5 -14.5t-21.5 -18t-18 -15q-50 -29 -119.5 -43.5t-105.5 -14.5q-16 0 -66.5 -1t-75 -0.5t-63.5 6.5t-70 18q-40 15 -71.5 45t-51.5 63.5t-34 83.5t-21 88t-10 95t-3.5 87.5t0.5 82t1 63.5z M293 1456v60q0 8 -1.5 24.5t-1 29.5t4.5 25l10 64q0 2 -1 7t-1 7q13 39 22 49.5t37 10.5h213q53 6 70 6q13 0 27.5 -3t27.5 -3q21 0 29 2h6q22 0 22 -52q0 -12 -1 -39.5t-1 -39.5q0 -5 1 -35.5t1 -44.5q0 -16 1.5 -45t1.5 -45q0 -52 -31 -56h-408l-14 13zM921 1694 q20 28 30.5 33.5t49.5 5.5h213q53 6 70 6q13 0 27 -3t28 -3q21 0 29 2h6q22 0 22 -52q0 -12 -1 -39.5t-1 -39.5q0 -5 1 -35.5t1 -44.5q0 -10 -2 -24t-2 -19q0 -8 3.5 -22.5t3.5 -24.5q0 -52 -31 -56h-305l-117 13l-14 65v60q0 32 -5 53q0 1 -4 110q0 2 -1 7.5t-1 7.5z" />
<glyph unicode="&#xfd;" horiz-adv-x="1489" d="M56 961q0 15 48.5 42t91.5 44q43 18 95 41.5t94.5 41.5t97.5 39q16 6 41 6q24 0 43 -41q125 -262 160 -330q23 -44 39 -44q9 0 16 16l141 366q6 25 35 41.5t55 8.5q92 -26 202.5 -70.5t179.5 -86.5q12 -7 19 -15t8.5 -18t2 -17.5t-3.5 -18t-6 -15.5t-8 -16t-7 -12 l-326 -711q-41 -84 -120.5 -234t-98.5 -187q-13 -25 -24 -35t-26 -10t-57.5 15.5t-55.5 18.5q-11 2 -28.5 10.5t-26.5 10.5q-2 1 -25 3.5t-25 4.5q-39 11 -82.5 27.5t-101 41.5t-82.5 35q-12 4 -12 21q0 16 6 24q15 25 36 62t39 67t39 58q11 14 27 51l14 33 q-31 56 -81.5 135.5t-72.5 101.5q-11 19 -83 145t-85 150q-20 30 -56 105t-36 95zM401 1366q0 81 21.5 236t25.5 196q31 160 74 316l16 14l88 14q52 0 132 3t112 3l12 -6q7 2 22.5 2.5t20.5 1.5q4 -2 13 -3.5t12 -2.5l88 -6l14 -4q4 0 8 1t7 1q42 -9 55.5 -16.5t13.5 -22.5 q3 -6 -51.5 -102t-95.5 -160q-28 -44 -66.5 -128t-64.5 -126q-11 -22 -46 -101t-61 -124t-43 -45q-62 0 -76 -2l-14 8l-8 -6h-59q-19 0 -56 -1t-55 -1q-39 0 -39 61z" />
<glyph unicode="&#xfe;" horiz-adv-x="1483" d="M120 -16v1298q0 23 1 38t5.5 34t14.5 28.5t26 9.5q112 0 234.5 -3t197.5 -3q54 0 76.5 -16t22.5 -74q0 -4 0.5 -41t0.5 -41q0 -1 -0.5 -14t-1 -37.5t-0.5 -46.5q107 4 262 4q65 0 126.5 -9.5t130 -37.5t119 -71.5t83.5 -119t33 -172.5q0 -137 -35.5 -236t-103 -157.5 t-156.5 -85.5t-205 -27h-255q0 -29 0.5 -55t1 -42.5t0.5 -29t0.5 -18.5t0.5 -7q0 -4 4.5 -41t4.5 -41q0 -59 -22 -74.5t-77 -15.5q-77 0 -202.5 -3t-239.5 -3q-16 0 -26 9t-14.5 27.5t-5.5 34t-1 39.5zM722 424q2 -2 10 -3q22 -2 72 -2q80 0 80 330q0 12 -1 26t-8.5 48.5 t-20.5 60t-42 46t-68 20.5q-22 0 -22 -526z" />
<glyph unicode="&#xff;" horiz-adv-x="1489" d="M56 961q0 15 48.5 42t91.5 44q43 18 95 41.5t94.5 41.5t97.5 39q16 6 41 6q24 0 43 -41q125 -262 160 -330q23 -44 39 -44q9 0 16 16l141 366q6 25 35 41.5t55 8.5q92 -26 202.5 -70.5t179.5 -86.5q12 -7 19 -15t8.5 -18t2 -17.5t-3.5 -18t-6 -15.5t-8 -16t-7 -12 l-326 -711q-41 -84 -120.5 -234t-98.5 -187q-13 -25 -24 -35t-26 -10t-57.5 15.5t-55.5 18.5q-11 2 -28.5 10.5t-26.5 10.5q-2 1 -25 3.5t-25 4.5q-39 11 -82.5 27.5t-101 41.5t-82.5 35q-12 4 -12 21q0 16 6 24q15 25 36 62t39 67t39 58q11 14 27 51l14 33 q-31 56 -81.5 135.5t-72.5 101.5q-11 19 -83 145t-85 150q-20 30 -56 105t-36 95zM228 1456v60q0 8 -1.5 24.5t-1 29.5t4.5 25l10 64q0 2 -1 7t-1 7q13 39 22 49.5t37 10.5h213q52 6 70 6q13 0 27.5 -3t27.5 -3q21 0 29 2h6q22 0 22 -52q0 -12 -1 -39.5t-1 -39.5 q0 -5 1 -35.5t1 -44.5q0 -16 1.5 -45t1.5 -45q0 -52 -31 -56h-408l-14 13zM856 1694q20 28 30.5 33.5t49.5 5.5h213q52 6 70 6q13 0 27 -3t28 -3q21 0 29 2h6q22 0 22 -52q0 -12 -1 -39.5t-1 -39.5q0 -5 1 -35.5t1 -44.5q0 -10 -2 -24t-2 -19q0 -8 3.5 -22.5t3.5 -24.5 q0 -52 -31 -56h-305l-117 13l-14 65v60q0 32 -5 53q0 1 -4 110q0 2 -1 7.5t-1 7.5z" />
<glyph unicode="&#x152;" horiz-adv-x="2478" d="M102 641q0 417 192.5 599.5t631.5 182.5q179 0 331 -55q29 4 90 4q114 0 300 5.5t339.5 5t317.5 -12.5q23 0 35.5 -32t23.5 -99t19 -96q1 -17 -0.5 -28t-2.5 -17t-7 -8.5t-8.5 -3t-13 0t-15.5 0.5q-78 0 -228.5 -14.5t-197.5 -17.5q-16 0 -27.5 -75.5t-11.5 -123.5 q0 -27 7 -35t25 -8q21 0 88.5 0.5t98.5 0t82.5 -2.5t93.5 -6q5 -1 18.5 -2t16 -2t11 -3.5t11 -7t6.5 -12.5t7 -20l8 -183v-6q0 -32 -62 -41.5t-176 -9.5q-42 0 -105 1q-31 1 -44.5 1.5t-32.5 -1t-25 -2.5t-15.5 -6t-11.5 -9.5t-5 -15.5t-3 -21v-29q0 -20 -4 -72t-2 -83 q66 0 198 6t196 6q17 0 47 -103t30 -137q0 -43 -41 -43q-49 0 -143.5 -4t-146.5 -4q-107 0 -323.5 -1t-324.5 -1q-26 0 -47 4q-154 -53 -397 -53q-74 0 -132.5 2.5t-128.5 11t-124 23.5t-112.5 41t-101.5 62t-83.5 88t-65.5 117.5t-40 153t-15 191.5zM796 670 q0 -523 93 -523q94 0 94 564q0 46 -2 101.5t-9.5 165.5t-29 180.5t-53.5 70.5q-22 0 -39 -22t-26.5 -70t-15.5 -91.5t-8.5 -121.5t-3 -123.5t-0.5 -130.5z" />
<glyph unicode="&#x153;" horiz-adv-x="2016" d="M97 561q0 110 38.5 220.5t106 200.5t171 146.5t223.5 56.5q49 0 73 -4q3 2 15 2q97 0 213.5 0.5t157.5 0.5q21 -1 124.5 -5.5t160.5 -4.5q62 0 199 4t196 4h64q14 0 23.5 -12.5t15.5 -35t10 -46.5t9.5 -55.5t11.5 -53.5q3 -17 -2 -29t-11 -17t-23 -8t-23 -3h-25 q-80 0 -127 -7q-24 -3 -63 -1.5t-85.5 -2.5t-62.5 -16v6q-14 0 -24.5 -60.5t-10.5 -97.5q0 -23 6.5 -30.5t22.5 -7.5q14 0 20 6q13 0 23 -6h174q6 6 14 6q14 2 33.5 -5.5t21.5 -7.5q6 -1 17.5 -2t14.5 -1.5t9.5 -3t9.5 -6.5t6.5 -11.5t6.5 -18.5l43 -135q3 -17 -13 -28 t-50 -15.5t-66.5 -6t-81.5 -1.5h-90h-25h-41t-28 -2.5t-21.5 -8t-9.5 -15t-4 -25.5q0 -12 1 -16q0 -5 1 -7q0 -5 -0.5 -12.5t-1.5 -17t-1 -14.5l-3 -25q0 -14 1 -40.5t1 -29.5q62 0 187.5 6t186.5 6q8 0 12.5 -13.5t6.5 -36.5t4 -30q3 -11 8.5 -33t7.5 -30.5t4 -28t2 -43.5 q0 -1 -0.5 -5.5t-0.5 -7.5q-1 -3 -1 -9l-14 -15q-3 -1 -8 -1q-4 -1 -12 -1q-44 0 -127.5 -3t-132.5 -3q-335 0 -579 -9.5t-256 -9.5q-24 0 -78 -1.5t-83 -1t-73 5t-82.5 16.5t-76.5 33q-62 35 -110.5 98.5t-75.5 137.5t-40.5 146.5t-13.5 137.5zM709 579l-1 -23 q0 -22 -0.5 -50.5t-0.5 -66.5t1.5 -75t5 -71.5t9.5 -60t15 -35.5q12 -55 129 -55q-2 0 -2 522v42v53.5v74.5v72v59t1 22q-27 0 -52.5 -12t-48 -45.5t-27.5 -83.5z" />
<glyph unicode="&#x178;" horiz-adv-x="1667" d="M58 1204q0 40 125 96q39 5 82.5 22t50.5 17q17 0 103 21.5t149 42.5q4 0 6 1q2 0 5 0.5t4 0.5q36 0 55 -18.5t41 -61.5q9 -17 34.5 -49t28.5 -37q12 -17 46.5 -77.5t61.5 -99t40 -38.5q5 0 16 16t25.5 44t29.5 59t32 69.5t29 66t24.5 57.5t15.5 36q5 18 8 26t9 19t16 15 t24 4q104 0 277 -67t227 -138q0 -55 -25 -103q-62 -135 -186.5 -412.5t-189.5 -420.5l-6 -3t-5 -3q-122 -237 -248 -475q-4 -9 -24 -9v13q-5 0 -10 -2t-6 -2q-5 0 -8 3t-9 15q-51 6 -164 39q-2 1 -27 3.5t-28 4.5q-73 17 -191 63.5t-118 71.5q0 48 57 164q4 10 45 76t41 94 q0 27 -33.5 62.5t-33.5 60.5q-5 0 -7.5 -1t-3.5 -1q-4 0 -8 8q-56 73 -135 201t-137 244q-25 48 -65 150t-40 132zM317 1679v60q0 8 -1.5 24.5t-1 29.5t4.5 25l10 64q0 2 -1 7t-1 7q13 39 22 49.5t37 10.5h213q52 6 70 6q13 0 27.5 -3t27.5 -3q21 0 29 2h6q22 0 22 -52 q0 -12 -1 -39.5t-1 -39.5q0 -5 1 -35.5t1 -44.5q0 -16 1.5 -45.5t1.5 -44.5q0 -52 -31 -56h-408l-14 13zM945 1917q20 28 30.5 33.5t49.5 5.5h213q52 6 70 6q13 0 27 -3t28 -3q21 0 29 2h6q22 0 22 -52q0 -12 -1 -39.5t-1 -39.5q0 -5 1 -35.5t1 -44.5q0 -11 -2 -25t-2 -18 q0 -8 3.5 -22.5t3.5 -24.5q0 -52 -31 -56h-305l-117 13l-14 65v60q0 32 -5 53q0 1 -4 110q0 2 -1 7.5t-1 7.5z" />
<glyph unicode="&#x2c6;" horiz-adv-x="1282" d="M75 1346q0 21 2 26q16 77 85.5 219t84.5 181q91 177 127 235l14 16l94 23h121l76 -2q43 -4 121 -4l61 -6l47 -27q6 -12 63.5 -114t75 -136.5t57.5 -114.5t62.5 -143t38.5 -127q0 -4 1 -12t1 -14q0 -41 -31 -41q-14 0 -46 1t-48 1h-20l-41 -2q-43 2 -119 2 q-13 0 -37.5 33.5t-56.5 83.5t-47 69q-37 41 -119 166q-65 -110 -109 -176q-118 -176 -153 -176q-64 0 -80 -2l-10 8l-9 -6h-61q-17 0 -56.5 -1t-58.5 -1q-30 0 -30 41z" />
<glyph unicode="&#x2dc;" horiz-adv-x="1360" d="M104 1440q0 43 1 71.5t9 77.5t22 82.5t42 73t67.5 64t101 41t139.5 16.5q43 0 122.5 -39t109.5 -80q7 -8 22.5 -32t26 -37.5t29.5 -26t40 -12.5q39 0 51.5 23t1.5 55t-25 58.5t-26 40.5q1 20 30 20h11l313 1q27 -4 48.5 -95t15.5 -182q-4 -85 -79.5 -167.5t-189.5 -113.5 q-41 -15 -99 -15q-69 0 -127 24t-96.5 58t-72 67.5t-69.5 57.5t-73 24q-40 0 -52 -88q-10 -72 -11 -75q-5 -17 -15 -10q-182 8 -214.5 17.5t-43.5 59.5q-5 25 -10 41z" />
<glyph unicode="&#x2000;" horiz-adv-x="1200" />
<glyph unicode="&#x2001;" horiz-adv-x="2401" />
<glyph unicode="&#x2002;" horiz-adv-x="1200" />
<glyph unicode="&#x2003;" horiz-adv-x="2401" />
<glyph unicode="&#x2004;" horiz-adv-x="800" />
<glyph unicode="&#x2005;" horiz-adv-x="600" />
<glyph unicode="&#x2006;" horiz-adv-x="400" />
<glyph unicode="&#x2007;" horiz-adv-x="400" />
<glyph unicode="&#x2008;" horiz-adv-x="300" />
<glyph unicode="&#x2009;" horiz-adv-x="480" />
<glyph unicode="&#x200a;" horiz-adv-x="133" />
<glyph unicode="&#x2010;" horiz-adv-x="963" d="M115 760q0 18 18 35.5t36 17.5q32 0 91 4t93 4h190q35 0 93 -4t90 -4q125 0 125 -55q0 -64 -3 -132.5t-3 -107.5q0 -62 -18 -87t-87 -25q-24 -7 -33 -7h-413q-9 0 -27.5 -0.5t-28.5 0t-26.5 0.5t-26 2t-21.5 4.5t-19 7t-14 10.5t-10 15.5t-3 20.5q0 62 -1.5 151.5 t-1.5 149.5z" />
<glyph unicode="&#x2011;" horiz-adv-x="963" d="M115 760q0 18 18 35.5t36 17.5q32 0 91 4t93 4h190q35 0 93 -4t90 -4q125 0 125 -55q0 -64 -3 -132.5t-3 -107.5q0 -62 -18 -87t-87 -25q-24 -7 -33 -7h-413q-9 0 -27.5 -0.5t-28.5 0t-26.5 0.5t-26 2t-21.5 4.5t-19 7t-14 10.5t-10 15.5t-3 20.5q0 62 -1.5 151.5 t-1.5 149.5z" />
<glyph unicode="&#x2012;" horiz-adv-x="963" d="M115 760q0 18 18 35.5t36 17.5q32 0 91 4t93 4h190q35 0 93 -4t90 -4q125 0 125 -55q0 -64 -3 -132.5t-3 -107.5q0 -62 -18 -87t-87 -25q-24 -7 -33 -7h-413q-9 0 -27.5 -0.5t-28.5 0t-26.5 0.5t-26 2t-21.5 4.5t-19 7t-14 10.5t-10 15.5t-3 20.5q0 62 -1.5 151.5 t-1.5 149.5z" />
<glyph unicode="&#x2013;" horiz-adv-x="963" d="M115 760q0 18 18 35.5t36 17.5q32 0 91 4t93 4h190q35 0 93 -4t90 -4q125 0 125 -55q0 -64 -3 -132.5t-3 -107.5q0 -62 -18 -87t-87 -25q-24 -7 -33 -7h-413q-9 0 -27.5 -0.5t-28.5 0t-26.5 0.5t-26 2t-21.5 4.5t-19 7t-14 10.5t-10 15.5t-3 20.5q0 62 -1.5 151.5 t-1.5 149.5z" />
<glyph unicode="&#x2014;" horiz-adv-x="1126" d="M116 455q0 58 1.5 147.5t1.5 149.5q0 11 3 20.5t10 15.5t14 10.5t19 7t21.5 4.5t26 2t26.5 0.5t28.5 0t27.5 -0.5h573l33 -7q69 0 87 -25t18 -87q0 -39 3 -107.5t3 -132.5q0 -55 -125 -55q-40 0 -118 1t-125 1h-190q-55 0 -147 1t-137 1q-18 0 -36 17.5t-18 35.5z" />
<glyph unicode="&#x2018;" horiz-adv-x="846" d="M114 782q-5 37 -7 79t0 104t16.5 121t39.5 118t72 107.5t111 77.5q127 34 233 34q31 0 39 -2q0 -13 11.5 -49.5t11.5 -50.5v-2l24 -92q0 -4 2.5 -26t2.5 -23q-79 0 -128.5 -49.5t-62 -99t-0.5 -52.5q15 -4 82.5 -5.5t119.5 -9t54 -26.5q21 -89 21 -408l-13 -14l-106 -14 h-80q-23 0 -60 -3t-53 -3h-49l-14 6q-6 -2 -21 -2.5t-20 -1.5q-4 2 -14 3.5t-13 2.5l-90 6l-14 4q-3 0 -7 -1t-8 -1q-40 12 -49.5 21.5t-9.5 37.5q0 18 -7.5 100t-13.5 113z" />
<glyph unicode="&#x2019;" horiz-adv-x="837" d="M88 1348l12 14l107 14h120q14 0 37.5 3t34.5 3h49l15 -6q6 2 21 2.5t20 1.5q4 -2 13.5 -3.5t12.5 -2.5l90 -6l15 -4q3 0 7 1t7 1q40 -12 49.5 -21.5t9.5 -37.5q0 -173 21 -213q-5 -23 -7 -75.5t-4 -103t-15 -114t-36 -116t-72 -101t-118 -76.5q-114 -55 -213 -55 q-31 0 -39 2q-4 38 -22 100v2l6 14l-8 9l-23 69q-3 3 -12 24t-13 25q46 9 86.5 32.5t63.5 50.5t41.5 54.5t20.5 44t-1 19.5q-12 2 -81.5 4t-121 10t-53.5 27q-3 35 -8 197t-12 211z" />
<glyph unicode="&#x201a;" horiz-adv-x="837" d="M88 358l12 15l107 14h120q14 0 37.5 3t34.5 3h49l15 -6q6 2 21 2.5t20 1.5q4 -2 13.5 -3.5t12.5 -2.5l90 -6l15 -4q3 0 7 1t7 1q39 -12 49 -22t10 -38q0 -173 21 -213q-5 -24 -6.5 -92t-9 -132.5t-28 -137t-73.5 -132t-135 -91.5q-116 -56 -213 -56q-31 0 -39 2 q-5 43 -22 101v2l6 14l-8 8l-23 70q-3 3 -12 24t-13 25q46 9 86.5 32.5t63.5 50.5t41.5 54.5t20.5 44t-1 19.5q-12 2 -81.5 4t-121 10t-53.5 27q-5 41 -9 201t-11 206z" />
<glyph unicode="&#x201c;" horiz-adv-x="1546" d="M135 782q-6 47 -8.5 98.5t6 131.5t31 147t74.5 131.5t128 98.5q106 34 193 34q30 0 39 -2q0 -13 11 -49.5t11 -50.5v-2l25 -92q0 -4 2 -26t2 -23q-39 0 -70.5 -20.5t-46 -49t-25.5 -59t-10 -50t2 -22.5q12 -3 69 -4.5t101 -9.5t46 -27q20 -85 20 -408l-12 -14l-107 -14 h-80q-14 0 -37 -3t-34 -3h-49l-15 6q-6 -2 -21 -2.5t-20 -1.5q-4 2 -13.5 3.5t-12.5 2.5l-91 6l-14 4q-4 0 -7.5 -1t-6.5 -1q-40 12 -50 21.5t-10 37.5q0 29 -20 213zM841 782q-5 37 -7 79t0 104t16.5 121t39.5 118t72 107.5t111 77.5q102 34 192 34q31 0 39 -2 q0 -13 11.5 -49.5t11.5 -50.5v-2l24 -92q0 -4 2.5 -26t2.5 -23q-39 0 -70 -20.5t-46.5 -49t-26.5 -59t-10 -50t3 -22.5q13 -3 69.5 -5t100 -9.5t45.5 -26.5q21 -89 21 -408l-13 -14l-106 -14h-80q-14 0 -37.5 -3t-34.5 -3h-49l-14 6q-6 -2 -21 -2.5t-20 -1.5q-4 2 -14 3.5 t-13 2.5l-90 6l-14 4q-4 0 -8 -1t-7 -1q-40 12 -49.5 21.5t-9.5 37.5q0 18 -7.5 100t-13.5 113z" />
<glyph unicode="&#x201d;" horiz-adv-x="1631" d="M104 1348l12 14l107 14h121q14 0 37.5 3t34.5 3h49l14 -6q6 2 21 2.5t20 1.5q4 -2 13.5 -3.5t13.5 -2.5l90 -6l14 -4q3 0 7 1t7 1q40 -12 50 -21.5t10 -37.5q0 -175 20 -213q-5 -23 -7 -75.5t-3.5 -103t-14.5 -114t-36.5 -116t-72 -101t-118.5 -76.5q-114 -55 -213 -55 q-30 0 -39 2q-4 38 -22 100v2l6 14l-8 9l-23 69q-3 3 -12.5 24.5t-11.5 24.5q46 9 86.5 32.5t63.5 50.5t41.5 54.5t20.5 44t-1 19.5q-12 2 -81.5 4t-121 10t-53.5 27q-5 39 -8.5 200t-12.5 208zM856 1348l12 14l107 14h120q14 0 37.5 3t34.5 3h49l15 -6q6 2 21 2.5t20 1.5 q4 -2 13.5 -3.5t12.5 -2.5l90 -6l15 -4q3 0 7 1t7 1q40 -12 49.5 -21.5t9.5 -37.5q0 -173 21 -213q-5 -23 -7 -75.5t-4 -103t-15 -114t-36 -116t-72 -101t-118 -76.5q-114 -55 -213 -55q-31 0 -39 2q-4 38 -22 100v2l6 14l-9 9l-22 69q-3 3 -12 24t-13 25q46 9 86.5 32.5 t63.5 50.5t41.5 54.5t20.5 44t-1 19.5q-12 2 -81.5 4t-121 10t-53.5 27q-3 35 -8 197t-12 211z" />
<glyph unicode="&#x201e;" horiz-adv-x="1630" d="M102 428l12 14q42 4 111.5 8.5t172.5 8t147 -4.5q31 -4 73.5 -5.5t60 -3t31 -15t13.5 -43.5q0 -29 20 -213q5 -38 7 -77.5t0 -100.5t-17.5 -117t-42.5 -113t-78 -103.5t-121 -74.5q-114 -55 -213 -55q-28 0 -37 13t-12.5 42.5t-11.5 46.5l-25 94q-3 3 -12.5 24.5 t-11.5 24.5q51 9 94.5 36.5t68 59.5t38 58.5t13.5 39.5q0 8 -64 10.5t-128.5 10t-66.5 27.5q-5 38 -8.5 199.5t-12.5 208.5zM854 428l12 14l107 14q49 0 129.5 3t111.5 3q47 -2 82 -8q28 -5 61.5 -6.5t51.5 -2t34.5 -5t23.5 -17t7 -36.5q0 -7 10.5 -97t10.5 -116q0 -7 1 -25 q2 -37 2 -59.5t-0.5 -69.5t-6.5 -81t-16.5 -80.5t-30 -82.5t-45.5 -73t-66 -66t-90 -49q-114 -55 -213 -55q-31 0 -39 2q-2 14 -25 125l-22 69q-3 3 -12 24t-13 25q51 9 94.5 36.5t68 59t38 58t13.5 40.5q0 9 -64 11.5t-128.5 9.5t-66.5 27q-3 35 -8 197t-12 211z" />
<glyph unicode="&#x2022;" horiz-adv-x="1026" d="M90 571q0 8 1 30l1 22q4 40 15.5 92.5t25.5 52.5v-2q6 16 22.5 41.5t22.5 40.5q5 -3 17.5 13t26 36t17.5 23q22 22 69 37.5t73 15.5q6 1 10 5.5t10 4.5q7 0 10 -4q14 0 31 2t27 2v-4q4 0 11 1t11 1q1 0 3 -1t3 -1t5 1t6 1q12 0 35 -4t34 -4q2 0 6.5 3t6.5 3l4 -6h20 q70 0 131 -33q3 -3 9 -8.5t9.5 -9t9 -6.5t11.5 -3q152 -102 152 -329q0 -123 -56 -226l-22 -34l-8 -5q-45 -65 -123.5 -95.5t-167.5 -30.5q-9 0 -23.5 3t-17.5 3l-14 -3q-14 -3 -23 -3t-27 3t-28 3q-5 0 -11.5 -1t-7.5 -1q-12 8 -16 10q-7 -4 -14 -4q-10 0 -20 5.5t-13 6.5 q-2 0 -10 -4q-8 0 -12 1.5t-7.5 3.5t-7.5 3h-8q-4 0 -7 0.5t-5.5 1.5t-7.5 3.5t-8.5 5t-13.5 9t-18 11.5q-74 43 -111.5 137t-37.5 184z" />
<glyph unicode="&#x2026;" horiz-adv-x="2331" d="M116 387l13 14l65 15h121q14 0 37.5 3t34.5 3h49l14 -6q4 2 20 2.5t21 1.5q4 -2 13.5 -3.5t13.5 -2.5l49 -6l14 -5q2 0 7 1.5t7 1.5q39 -12 49.5 -22t10.5 -38q20 -23 20 -213q10 -59 5 -91.5t-3 -61.5q2 -13 -4 -20t-21.5 -8.5t-30 -1.5t-38.5 1.5t-37 1.5 q-4 0 -27.5 -1t-39 -1.5t-25.5 0.5q-147 5 -203 2q-3 0 -17 -1.5t-21 -2t-20.5 -0.5t-21 1.5t-16.5 4.5t-13 9.5t-5 15.5q-5 37 -8.5 198.5t-12.5 208.5zM880 387l13 14l65 15h121q14 0 37.5 3t34.5 3h49l14 -6q4 2 20 2.5t21 1.5q4 -2 13.5 -3.5t13.5 -2.5l49 -6l14 -5 q2 0 7 1.5t7 1.5q39 -12 49.5 -22t10.5 -38q20 -23 20 -213q10 -59 5 -91.5t-3 -61.5q2 -13 -4 -20t-21.5 -8.5t-30 -1.5t-38.5 1.5t-37 1.5q-4 0 -27.5 -1t-39 -1.5t-25.5 0.5q-147 5 -203 2q-3 0 -17 -1.5t-21 -2t-20.5 -0.5t-21 1.5t-16.5 4.5t-13 9.5t-5 15.5 q-5 37 -8.5 198.5t-12.5 208.5zM1644 387l13 14l65 15h121q14 0 37.5 3t34.5 3h49l14 -6q4 2 20 2.5t21 1.5q4 -2 13.5 -3.5t13.5 -2.5l49 -6l14 -5q2 0 7 1.5t7 1.5q39 -12 49.5 -22t10.5 -38q20 -23 20 -213q10 -59 5 -91.5t-3 -61.5q2 -13 -4 -20t-21.5 -8.5t-30 -1.5 t-38.5 1.5t-37 1.5q-4 0 -27.5 -1t-39 -1.5t-25.5 0.5q-147 5 -203 2q-3 0 -17 -1.5t-21 -2t-20.5 -0.5t-21 1.5t-16.5 4.5t-13 9.5t-5 15.5q-5 37 -8.5 198.5t-12.5 208.5z" />
<glyph unicode="&#x202f;" horiz-adv-x="480" />
<glyph unicode="&#x2039;" horiz-adv-x="942" d="M44 451v124l2 80q4 75 4 125l8 66l29 51q36 19 122.5 67t137 74.5t126 63t144.5 62t136 42.5q3 0 8 0.5t10 0.5t10 -1q41 5 41 -30q2 -8 0 -49t-2 -52q2 -4 1 -10.5t1 -7.5v-45q-2 -74 -2 -211q0 -9 -35 -27.5t-88 -42.5t-73 -35q-66 -36 -172 -80q99 -44 184 -87 q184 -92 184 -123q0 -69 2 -87l-8 -8l4 -12l2 -129q-1 -16 0.5 -57t-0.5 -60q0 -33 -41 -33q-22 0 -31 3q-77 15 -223 87.5t-194 90.5q-202 108 -246 135l-16 12z" />
<glyph unicode="&#x203a;" horiz-adv-x="942" d="M120 319q2 18 2 87q0 17 53.5 51.5t130.5 71.5q85 43 184 87q-106 44 -172 80q-20 11 -73 35t-88 42.5t-35 27.5q0 19 -0.5 45.5t-1 74.5t-0.5 91v45q1 2 1 8t1 10q0 11 -2 52t0 49q0 35 41 30h28q67 -17 136 -42.5t144.5 -62t126 -63t137 -74.5t122.5 -67l28 -51l9 -66 q0 -80 4 -125l2 -80v-124l-25 -103l-16 -12q-44 -27 -246 -135q-46 -17 -193 -90t-225 -88q-8 -3 -30 -3q-41 0 -41 33q-2 19 -0.5 60t0.5 57l2 129l4 12z" />
<glyph unicode="&#x205f;" horiz-adv-x="600" />
<glyph unicode="&#x20ac;" horiz-adv-x="1499" d="M61 607q0 11 7 21t14 10h114v3q0 44 3 86h-70h-12.5h-13t-11.5 1t-11.5 3t-8 5.5t-6 10t-1.5 14.5q0 21 -2 51.5t-2 50.5q0 11 7 21t14 10q99 0 146 1q24 83 62 154q83 169 224 264.5t321 107.5q16 2 24 2h27q86 0 174 -18q174 -35 344 -135l-37 -266q-10 2 -57 14 t-67 16.5t-55.5 9.5t-63.5 5q-117 0 -173 -84q-19 -28 -33 -70q46 0 69 -1h99q77 0 77 -32q0 -18 -4 -37.5t-4 -29.5q0 -36 -8 -50t-40 -14l-68 -2q-72 -2 -91 -2h-57q-1 -18 -1 -57v-30h6q120 -2 190 -2q77 0 77 -32q0 -18 -4 -37.5t-4 -29.5q0 -36 -8 -50t-40 -14l-68 -2 q-72 -2 -91 -2h-35q39 -135 153 -135q112 0 281 123l18 -336q-78 -76 -200.5 -124t-227.5 -48q-360 0 -514 117q-63 54 -108 129q-39 43 -66 102q-18 48 -43 172h-77h-12.5h-13t-11.5 1t-11.5 3t-8 5.5t-6 10t-1.5 14.5q0 21 -2 51.5t-2 50.5z" />
<glyph unicode="&#x2122;" horiz-adv-x="2361" d="M101 1276q0 6 0.5 23.5t0.5 31.5l1 14q0 29 66 29q32 0 99 -1.5t99 -1.5h473q56 0 82 -4.5t30.5 -11t4.5 -22.5v-218q0 -20 -35 -20q-24 0 -84.5 0.5t-85.5 0.5q-12 0 -14 -4t-2 -28q0 -209 -14 -392v-126q0 -41 -13.5 -51.5t-51.5 -13.5q-7 -1 -11 -1q-48 0 -137.5 -2 t-166.5 -2q-21 0 -32 31.5t-13.5 98.5t-1.5 131t3.5 171t2.5 177q0 1 -5 4h-146q-49 0 -49 187zM1058 772q7 222 7 282q0 4 -2 26.5t-2 25.5q0 23 3.5 67t3.5 83q0 5 -1.5 35t-1.5 36q-4 4 -4 9q0 17 19.5 27.5t37 12.5t34.5 2h158t116.5 -0.5t50.5 -0.5q6 0 21 -20t25 -42 q6 -20 51.5 -135t49.5 -116q10 -21 20 -21q13 0 21 21l115 251q11 22 25 42t20 20q8 0 51 0.5t116.5 0.5h157.5q16 0 34 -0.5t46 -0.5q12 0 12 -397q0 -58 -11 -208q3 -263 5 -266l-4 -10l-59 -5h-15q-16 0 -36.5 -0.5t-30.5 -0.5h-199q-1 0 -6 -0.5t-9 -0.5q-19 0 -19 310 q0 5 -1.5 7.5t-3 2.5h-6.5q-9 0 -47 -113q-1 -2 -13 -26.5t-25 -48t-34.5 -44t-41.5 -20.5q-82 0 -101 2q-43 67 -74 131t-41.5 91.5t-13.5 27.5q-10 0 -10 -10v-27q0 -61 -0.5 -95.5t-2 -86t-6 -76.5t-11.5 -25q-3 0 -9 1h-6q-138 -10 -200 -10q-9 0 -29.5 0.5t-35.5 0.5 h-16l-60 15l-3 10q-1 0 -3 50t-4 116t-2 100z" />
<glyph unicode="&#xe000;" horiz-adv-x="1200" d="M0 0v1200h1200v-1200h-1200z" />
<glyph unicode="&#xfb01;" horiz-adv-x="2033" d="M116 575v584q0 3 5 10.5t10 10.5q3 0 8 -1t8 -1q16 0 47 5t49 5q25 0 78 -4t82 -4l8 6h90q6 -6 15 -6q2 0 18 3t17 3q20 0 28 -6h469q6 -6 15 -6q1 0 7 3t7 3q45 0 65.5 -74t20.5 -182q0 -6 -3.5 -11t-10 -7.5t-13.5 -4t-17.5 -2t-17 -1t-17 0t-13.5 0.5h-82 q-26 0 -54 -4t-59 -4q-40 0 -45 2l-14 -8q-12 -52 -12 -197l-1 -2q-1 -2 0 -7.5t7 -10.5h37q70 0 137 -13t86 -43q16 -25 16 -86q0 -27 -1 -70.5t-1 -68.5q-25 -14 -82.5 -24.5t-93.5 -10.5q-3 0 -6.5 4t-7.5 4q-5 0 -10 -4t-11 -4q-4 0 -10 3t-10 3q-1 0 -15 -14 q-9 -1 -23 -1.5t-22.5 -1t-19.5 -6.5t-19 -18q0 -99 -1 -146.5t-6 -99.5t-15 -71q-15 0 -36 -0.5t-41 -1.5t-37 -2t-29 -2h-11q-12 -2 -22 2t-13 4q-8 0 -14 -6h-153q-1 0 -81.5 -1t-95.5 -1q-17 0 -28 13.5t-16 37.5t-7 44t-3 45.5t-1 29.5q-2 36 -15.5 184.5t-13.5 228.5z M870 358q0 -1 1 -1q1 -1 3 -1t2 1v1q0 4 -2 4q-4 0 -4 -4zM1320 676v497q0 29 94 29q31 0 94 -4t99 -4l8 6h90q6 -6 15 -6q2 0 18 3l16 3q5 0 29 -6h152l4 -352q-13 -35 -13 -160v-399l-8 -78q-3 -30 -3.5 -68.5t-1.5 -59t-5 -41.5t-15.5 -29.5t-31.5 -8.5q-1 0 -4 2t-4 2 q-7 0 -29 -6q-27 -2 -48.5 2t-27.5 4q-8 0 -14 -6h-154q-2 0 -82 -11.5t-94 -11.5q-17 0 -28 14t-16 37.5t-7 44t-3 45.5t-1 29q-2 43 -15.5 237t-13.5 296z" />
<glyph unicode="&#xfb02;" horiz-adv-x="2349" d="M116 575v584q0 3 5 10.5t10 10.5q3 0 8 -1t8 -1q16 0 47 5t49 5q25 0 78 -4t82 -4l8 6h90q6 -6 15 -6q2 0 18 3t17 3q20 0 28 -6h469q6 -6 15 -6q1 0 7 3t7 3q45 0 65.5 -74t20.5 -182q0 -6 -3.5 -11t-10 -7.5t-13.5 -4t-17.5 -2t-17 -1t-17 0t-13.5 0.5h-82 q-26 0 -54 -4t-59 -4q-40 0 -45 2l-14 -8q-12 -52 -12 -197l-1 -2q-1 -2 0 -7.5t7 -10.5h37q70 0 137 -13t86 -43q16 -25 16 -86q0 -27 -1 -70.5t-1 -68.5q-25 -14 -82.5 -24.5t-93.5 -10.5q-3 0 -6.5 4t-7.5 4q-5 0 -10 -4t-11 -4q-4 0 -10 3t-10 3q-1 0 -15 -14 q-9 -1 -23 -1.5t-22.5 -1t-19.5 -6.5t-19 -18q0 -99 -1 -146.5t-6 -99.5t-15 -71q-15 0 -36 -0.5t-41 -1.5t-37 -2t-29 -2h-11q-12 -2 -22 2t-13 4q-8 0 -14 -6h-153q-1 0 -81.5 -1t-95.5 -1q-17 0 -28 13.5t-16 37.5t-7 44t-3 45.5t-1 29.5q-2 36 -15.5 184.5t-13.5 228.5z M870 358q0 -1 1 -1q1 -1 3 -1t2 1v1q0 4 -2 4q-4 0 -4 -4zM1321 430l9 88q2 53 4 135.5t3 133t4 116t8.5 106.5t13.5 82t21 64.5t30 32.5q113 0 236.5 -3t189.5 -3q6 0 16 -1q29 -2 41 -4t25 -10.5t17 -26.5t3 -50q0 -7 -5 -42.5t-7 -41.5q0 -7 3 -48.5t3 -44.5 q1 -13 1.5 -64t2.5 -91.5t8 -52.5q0 -18 -3 -82.5t-1 -110.5t12 -82q21 -8 47 -8q194 0 271 14q12 -3 23.5 -16.5t11.5 -26.5l-15 -350q-3 -25 -97 -37t-159 -12q-21 0 -61 -3t-58 -3q-39 0 -55 6q-23 0 -140.5 7t-123.5 7q-35 2 -99 -2t-92 -4q-61 0 -77 -2l-9 8 q1 7 0.5 37.5t0 72t1.5 50.5q2 46 -1 150.5t-3 111.5z" />
</font>
</defs>
</svg>
