<?xml version="1.0" standalone="no"?>
<!DOCTYPE svg PUBLIC "-//W3C//DTD SVG 1.1//EN" "http://www.w3.org/Graphics/SVG/1.1/DTD/svg11.dtd" >
<svg xmlns="http://www.w3.org/2000/svg">
<metadata></metadata>
<defs>
<font id="firecatmedium" horiz-adv-x="1630" >
<font-face units-per-em="2048" ascent="1638" descent="-410" />
<missing-glyph horiz-adv-x="662" />
<glyph horiz-adv-x="2048" />
<glyph horiz-adv-x="2048" />
<glyph unicode="&#xd;" horiz-adv-x="0" />
<glyph unicode=" "  horiz-adv-x="662" />
<glyph unicode="&#x09;" horiz-adv-x="662" />
<glyph unicode="&#xa0;" horiz-adv-x="662" />
<glyph unicode="!" horiz-adv-x="985" d="M930 1966q0 -76 -26.5 -137t-66.5 -121.5t-87.5 -136.5t-61.5 -135q32 11 95 62t89 65q-34 -112 -72 -236t-79 -211q22 2 64 30t53 34q-98 -137 -123 -400l-99 82q0 -40 11.5 -90t13.5 -63q-74 36 -154 36q-88 0 -153 -45q18 43 18 82t-14.5 80t-42.5 98.5t-39.5 90.5 t-11.5 73t14 76q17 -12 34 -41t35.5 -64.5t43.5 -60.5q4 17 4 51q0 47 -14 96t-42.5 122.5t-40.5 115.5t-12 92l72 -45q-22 161 -47.5 273t-81.5 211q45 -31 95 -56.5t93 -45.5t88 -42t82 -47q13 31 13 60q0 30 -10.5 77t-10.5 70q50 -24 90.5 -71t93.5 -121 q26 46 30.5 51.5t50.5 44t106 96.5zM803 190q-75 -86 -215 -86q-13 30 -24.5 46.5t-30 32.5t-64.5 55q-6 6 -18 6q-17 0 -33 -8.5t-19 -22.5q0 -34 19.5 -57.5t57.5 -52t50 -42.5q-67 0 -131 30t-116 82.5t-82 113.5q4 22 25 31t47 20t34 33q4 8 4 28q0 24 -10 41t-31 21 l-102 -41q-6 15 -6 29q0 35 53 88q60 55 133 55q42 0 114 -21.5t95 -21.5q-2 14 -20.5 44.5t-18.5 51.5q72 -8 134.5 -47t99.5 -104q14 15 20.5 50.5t7.5 37.5q72 -26 72 -131q0 -67 -27.5 -137.5t-64.5 -106.5z" />
<glyph unicode="&#x22;" horiz-adv-x="1290" d="M659 2267q9 -18 9 -43q0 -29 -10.5 -52.5t-36 -66.5t-36.5 -67.5t-14 -52.5q16 1 28.5 7.5t35.5 21t33 18.5q-12 -162 -127 -326q13 0 42 17.5t52 17.5q-56 -150 -68 -303q-80 22 -170 22q-79 0 -149 -20q0 26 24.5 73t24.5 70q0 18 -12 33l-45 -33q-9 18 -9 41 q0 22 10.5 66t10.5 71q0 11 -4 31q59 13 59 51q0 22 -24.5 74t-24.5 78q0 16 6 28q2 15 2 45q0 99 -53 218q19 -12 96 -66.5t129 -75.5l31 121l70 -119q28 9 64.5 59t55.5 62zM1182 2267q8 -19 8 -43q0 -29 -10.5 -52.5t-36 -66.5t-36 -66.5t-13.5 -53.5q18 1 41 15t55 32 q-11 -160 -127 -326q13 0 42 17.5t52 17.5q-52 -140 -70 -303q-80 22 -167 22q-80 0 -150 -20q0 26 24.5 73t24.5 70q0 18 -12 33l-45 -33q-8 19 -8 41t10 68t10 69q0 11 -4 31q59 13 59 51q0 22 -24.5 74t-24.5 78q0 16 6 28q2 15 2 45q0 99 -53 218q19 -12 95.5 -66.5 t130.5 -75.5l30 121l70 -119q28 9 64.5 59t56.5 62z" />
<glyph unicode="$" horiz-adv-x="1329" d="M1272 1214q-20 -64 -56.5 -106.5t-102.5 -103t-95 -99.5v-82q0 -56 -17 -84q-17 7 -31.5 21.5t-34.5 41t-32 38.5q-18 -6 -28.5 -25t-21 -39.5t-28.5 -27.5q-8 13 -8 38q0 12 2 34t2 32q0 53 -41 55q-16 1 -47 4.5t-61 3.5q0 -25 5 -79t5 -82q0 -13 -4 -37l-84 114 l-100 -104q1 26 1.5 47.5t0.5 59.5q0 65 -15 98q-28 -4 -54.5 -12.5t-70.5 -25.5t-73 -26l55 103l-148 8q0 22 23 51.5t27 40.5q6 19 6 53q0 56 -19 113q20 -2 76.5 -24.5t95.5 -22.5v45q30 -10 75 -50t65 -50q17 -7 41 -7q30 0 51.5 15t25.5 45q0 35 -13.5 55.5t-42.5 55 t-34 55.5q28 0 49.5 -8t51 -22.5t39.5 -18.5v22q-119 84 -226 186q-13 -16 -22.5 -49.5t-14.5 -48t-24 -26.5q-51 36 -74.5 92t-33.5 121t-21 139q-30 -27 -74 -33q14 83 62 129t170 141l14 199q14 0 25.5 -10t23 -28.5t16.5 -22.5q18 12 37 43t32 45.5t38 17.5 q6 -19 17 -83.5t34 -90.5q20 0 56 -10t51 -10q25 0 38 26q6 17 7.5 47.5t3.5 71.5q27 -7 53 -35t55 -59l90 116q7 -21 7 -43q0 -24 -4.5 -56t-4.5 -48q0 -39 19 -59q32 -1 63 -14.5t70.5 -31t71.5 -22.5q-4 -14 -29 -86t-33 -117q-26 9 -77.5 38t-78 41.5t-61.5 12.5 q-7 0 -29 -4q10 -9 15.5 -20.5t10 -31.5t7.5 -30q-28 20 -69 31.5t-97 11.5q-42 -26 -60 -42t-18 -48q0 -37 24.5 -63t59.5 -37q9 -6 29 -6q26 0 55 18l-24 72q139 0 270 -170q14 5 19 15t8 25.5t8 24.5q40 -24 63 -143q0 -83 -19 -137t-56 -100q17 0 31 5.5t30 14.5t31 18z " />
<glyph unicode="&#x26;" horiz-adv-x="1931" d="M1919 1061q-85 0 -154.5 -32t-111.5 -97q-21 -29 -21 -64q0 -53 45 -125q18 2 25 20.5t13.5 38t21.5 21.5q33 -92 48 -141.5t15 -106.5q0 -83 -45 -139q-51 -38 -143.5 -56t-162.5 -34.5t-116 -69.5q9 -26 47 -26q10 1 18.5 1.5t20.5 0.5q33 0 47 -14q-80 -55 -171.5 -89 t-184.5 -34q-103 0 -186 49q-23 10 -67.5 42.5t-72.5 43.5q-4 -16 -4 -23q0 -10 11.5 -48t11.5 -62q-36 12 -142 33.5t-167 45.5t-105 78q12 13 43 13h35q33 0 33 28q-27 18 -97.5 46.5t-106.5 47.5t-68.5 52t-49.5 90q-2 36 -4 63.5t-2 44.5q0 100 41 166q25 -24 54.5 -69 t52.5 -80t51 -58q8 32 25 94t34 102t42 77t67 72q-7 5 -23 6t-34 2t-27 6q1 19 18.5 33t54 27.5t41.5 15.5q56 7 93 41q-34 39 -156 215l-35 -101q-13 4 -24.5 13t-29 28t-26.5 27q8 5 8 20q0 21 -15.5 52t-23.5 43q-15 -19 -28 -19t-28 31t-25 43l34 14q-37 21 -37 60 q0 17 6 37t14 37.5t19 39.5q55 66 87.5 98.5t86.5 65.5q11 -16 14 -39t7 -43t18 -33q59 103 152.5 167.5t208.5 64.5q19 0 55 -4l-8 59q176 -25 283 -155q94 41 158.5 61t140.5 20q-47 -92 -168 -188q3 -15 25 -73.5t22 -94.5q0 -23 -11 -51q-22 6 -40.5 22.5t-45 40 t-45.5 31.5q-22 8 -47 18t-45.5 15.5t-40.5 5.5q-10 0 -30 -4q8 -12 30.5 -41t33.5 -50.5t11 -45.5q0 -19 -4 -29q-100 57 -168 57q-28 0 -53 -8q-32 -10 -57 -35.5t-35 -58.5q0 -32 17 -60t48 -40q17 -2 57 -10.5t70 -12.5t70 -4q0 -11 -63 -80t-114 -132t-99.5 -152 t-59.5 -181q24 8 46 26t50 39.5t52 30.5q-34 -84 -49 -128.5t-15 -100.5q0 -28 6 -55q15 -27 27.5 -49t30.5 -44.5t39.5 -36t48.5 -16.5q4 5 4 15q0 12 -19.5 36.5t-19.5 34.5q0 14 20 25q38 -8 58 -8q85 0 149 61q13 9 25.5 29.5t23.5 35t27 19.5q10 -20 15 -69t16 -72 q84 88 84 174q0 30 -9 53q-80 124 -278 180q9 29 51 29q15 0 24.5 -0.5t20.5 -1.5q31 0 45 12q-2 17 -2 50q0 154 105 233q19 -4 23.5 -18t8 -33t19.5 -27q115 153 321 273q15 -34 15 -76q0 -68 -58 -201q9 -14 32 -18t65 -4q50 0 86 -13.5t55 -58.5z" />
<glyph unicode="'" horiz-adv-x="748" d="M631 2267q8 -19 8 -43q0 -29 -10.5 -52.5t-36 -66.5t-36 -66.5t-13.5 -53.5q18 1 41 15t55 32q-11 -162 -127 -326q13 0 42 17.5t52 17.5q-57 -153 -69 -303q-82 22 -168 22q-80 0 -150 -20q0 26 24.5 74t24.5 71q0 16 -12 31l-45 -33q-8 19 -8 41t10 68t10 69 q0 11 -4 31q60 13 60 51q0 22 -25 75t-25 77q0 17 7 28q2 15 2 45q0 97 -54 218q19 -12 97.5 -67t128.5 -75l30 121l70 -119q28 9 64.5 59t56.5 62z" />
<glyph unicode="(" horiz-adv-x="1108" d="M1135 434q-10 -62 -65 -91.5t-101 -31.5q-17 -18 -23 -32.5t-15.5 -45.5t-10.5 -34l-50 8q1 -18 1.5 -35.5t0.5 -62.5q0 -169 -49 -197q-36 41 -68 108.5t-60 124.5t-66 97q-10 -19 -12.5 -60.5t-6 -85.5t-12.5 -65q-104 110 -209.5 260.5t-109.5 245.5q-18 -4 -22.5 -31 t-14.5 -35q-58 84 -91.5 184t-33.5 201q0 145 69 252q-23 0 -52.5 -12t-33.5 -13q13 64 31 148.5t44 154.5t70 129t111 95q-8 8 -24 8q-12 0 -45 -8t-49 -8q33 87 110.5 170.5t178.5 136.5t198 53l-18 -57q20 26 66 63t70 61t38 64q8 -18 24 -18q7 0 26 6t27 6q16 0 29 -10 q19 -40 19 -70q0 -27 -9.5 -55t-32 -72t-32.5 -65t-14 -46q29 -13 34.5 -41t11.5 -54.5t37 -37.5q5 -10 5 -16q0 -18 -17.5 -31t-36.5 -18q-67 0 -67 -55l-33 49q-4 -9 -4 -33q0 -15 -14 -19l-25 37q-46 -44 -75.5 -96.5t-44.5 -114t-15 -125.5q0 -53 8 -94q-22 16 -47 65 t-43 66q-37 -56 -37 -116q0 -35 11 -72t32.5 -92t33 -95.5t11.5 -89.5q-2 -34 -17.5 -104t-25.5 -109q22 0 36.5 13t35.5 38t35 29q0 -62 26.5 -85.5t70.5 -41.5t44 -37q27 -3 124 -29t163 -26z" />
<glyph unicode=")" horiz-adv-x="1092" d="M1069 578q-18 15 -51 61.5t-57 67.5q-7 -37 -7 -127q0 -58 -12 -93q-6 -32 -21 -66.5t-36.5 -75.5t-38.5 -80t-25 -68q-8 15 -16 55.5t-25 58.5q-26 -48 -65.5 -87.5t-83.5 -51.5l-86 -6q0 -17 9 -46.5t9 -45.5l-98 24q-57 -134 -174 -176q-10 10 -10 35q0 23 12 65.5 t24.5 82.5t19.5 66.5t7 47.5q-15 19 -59.5 29t-65 23.5t-20.5 58.5q34 8 60.5 24.5t80.5 54.5t84 52q121 128 143 264q13 0 18.5 -7t13 -23.5t15.5 -20.5q25 51 25 119q0 101 -66 215q16 0 42.5 -11.5t35.5 -11.5q-12 52 -76 137.5t-83 120.5q15 0 22 -0.5t15 -1.5t16 -2.5 t14 -1.5q9 0 23 6q-36 27 -117 99.5t-123.5 108.5t-93.5 65q-13 -5 -23 -5q-23 0 -45 15t-35 33q0 18 26 38t68.5 44t51.5 32q0 37 -12.5 69t-38 78t-31.5 66q22 37 53 37q27 0 54 -25.5t53.5 -60.5t27.5 -35q76 -43 176 -164q15 18 15 35q0 11 -9.5 42t-9.5 50 q52 -4 79.5 -35.5t35.5 -58.5t22 -80t27 -53q25 6 53 6q73 0 119 -43q30 -48 51.5 -106.5t47.5 -146.5t47 -140l-84 37q8 -24 44 -129.5t42.5 -141t8.5 -90t7 -206.5z" />
<glyph unicode="," horiz-adv-x="885" d="M840 535q-3 -48 -27.5 -87.5t-60 -75t-79.5 -79t-69 -86.5l92 31q-86 -137 -144.5 -241t-98.5 -220q-23 10 -34 55t-24 59l-82 -71q-17 6 -24 37t-11 41t-30 10q-14 -10 -35.5 -29t-37 -29.5t-38.5 -13.5q5 55 6 96t1.5 90t2.5 123l84 -12q-2 37 -5 125t-5 122t-10 95 q13 8 29 8q24 0 70 -33t73 -36q0 35 -16.5 78t-16.5 63q33 -13 62.5 -30t57 -40.5t44.5 -46.5q22 2 43.5 39t36.5 41q8 -12 10.5 -21.5t8 -39.5t5.5 -31q109 0 222 109z" />
<glyph unicode="-" d="M1430 1081q11 9 52 25.5t56 34.5q-12 22 -36 33.5t-52 25t-41 33.5q11 16 34 44.5t35 51.5t13 45q-31 0 -80 1.5l-98 3t-80 1.5q-63 0 -112 -19.5t-107.5 -55t-102.5 -54t-102 -18.5q8 20 29.5 48.5t38 53.5t22.5 45q-41 0 -90 -26.5t-97 -53t-89 -26.5q-66 0 -115 19.5 t-87.5 49.5t-96.5 84q-12 -13 -35 -41t-44 -44t-48 -17q26 -65 26 -147q0 -130 -61 -224l65 -6l-57 -215q27 -8 61 -8q36 0 77 9.5t82 18.5t77 9q-2 23 -17.5 60t-15.5 69q46 0 91 -29.5t90 -59.5t92 -30q26 0 61 14q-7 23 -31.5 45t-44.5 42.5t-24 46.5q64 -2 143 -58 t134.5 -82t187.5 -26q9 0 70 8t112 8q111 0 217 -35q-11 42 -17 122.5t-21 131t-64 92.5z" />
<glyph unicode="." horiz-adv-x="823" d="M752 240q-3 -43 -26 -65.5t-51 -31t-66 -15t-44 -15.5l45 -60q-16 -35 -63 -35q-8 0 -45.5 5.5t-50.5 5.5q-31 7 -54 30t-47 62t-37 57q-18 -45 -18 -67q0 -18 6 -33q-29 0 -60 26t-46 60q-25 57 -25 125q0 56 20 100q22 46 109 137l33 -73q35 20 58 53.5t48 85.5 q26 -6 48 -22.5t58 -51.5t44 -41q15 7 31.5 35.5t35.5 28.5q45 -50 66.5 -88t21.5 -78q0 -52 -43 -125z" />
<glyph unicode="0" horiz-adv-x="1827" d="M1767 1337q-6 -51 -13.5 -151t-18 -173t-36 -142.5t-71.5 -125.5l90 37q-16 -40 -41.5 -108t-57.5 -153t-48 -122q-53 -67 -107 -82q-62 13 -84 13q-32 0 -45 -13q-10 -58 -28 -105.5t-53.5 -81.5t-86.5 -34l25 129q-33 -10 -68 -46.5t-69.5 -68.5t-83.5 -47q-6 13 -6 23 t7 37t7 41q0 13 -6 22q-15 -12 -34 -41t-35 -44t-46 -15l-221 199q-4 -18 -4 -23q0 -24 24.5 -67t24.5 -68q0 -5 -4 -23q-96 23 -164 56t-111 94q-33 22 -58.5 59t-52 89.5t-42.5 78.5h96q-21 27 -61.5 74t-65 85t-35.5 79q-10 43 -19.5 145t-21.5 154q22 0 48 -13t30 -14 q-33 158 -33 240q0 100 35.5 188t118.5 174q2 -4 8.5 -26t18.5 -31q28 84 69.5 157.5t104.5 127.5q36 24 77 66.5t85 88.5q22 -22 22 -69q0 -16 -0.5 -25.5t-1.5 -21.5q0 -33 10 -54q17 12 52.5 53t62.5 48l16 -58q47 60 133 60q29 0 91 -7.5t79 -7.5q53 0 86 19l-28 -88 q88 -17 121.5 -29.5t54 -38.5t65.5 -108q14 15 27 57.5t29 60.5q12 -55 35 -115t43.5 -113.5t34.5 -109t14 -108.5q0 -52 -17 -109q23 7 66 60.5t67 64.5zM1288 926q-7 -2 -28 -16.5t-31 -14.5q-16 0 -23 12q82 126 82 252q0 51 -14 90q-3 -3 -16 -24t-29 -21q-9 48 -32 103 t-47 96t-58 87.5t-76 96.5q0 -29 8 -81t8 -76q0 -25 -4 -37q-12 7 -38.5 35t-45.5 42.5t-45 14.5q-21 0 -45 -12q-24 -4 -32 -16.5t-24 -46.5t-30 -42l-76 78q17 -80 17 -152q0 -41 -2 -59q0 -44 -14.5 -85t-43.5 -98t-41 -88t-12 -69q0 -32 12 -70q17 13 48 59t59 60 q0 -48 -0.5 -79.5t-1.5 -69.5q0 -61 7 -108.5t26.5 -91.5t52.5 -75q13 31 24.5 86.5t20 91.5t28.5 72q8 -41 31 -82.5t57 -98.5t46 -95q23 30 52.5 55.5t76.5 59.5t63 46l-90 11q18 32 67 89t74.5 92.5t38.5 78.5z" />
<glyph unicode="1" horiz-adv-x="1122" d="M1079 39q-12 0 -25.5 6.5t-34.5 19.5t-38 21q-87 0 -162.5 35.5t-116.5 103.5q-27 -8 -34 -27.5t-15 -49.5t-26 -44q-7 9 -31.5 41t-45.5 49t-46 17q-21 0 -39 -10l-43 -41q0 64 14.5 122t44.5 140.5t46.5 140.5t19.5 115q-9 6 -21 6q-16 0 -35 -11t-42 -32t-41 -37 q10 52 50 156t57 159t17 117q0 19 -4 51q-28 0 -72.5 -44.5t-56.5 -51.5q0 36 14 88.5t28 104.5t14 88q0 92 -93 129q-14 4 -43 4q-37 0 -71.5 -13t-81.5 -39t-72 -36q9 41 55 120.5t66.5 122.5t20.5 99q0 39 -19 88q23 -8 37.5 -20t44.5 -41.5t49 -40.5q17 45 21 94 t11.5 98.5t33.5 114.5q6 -14 25.5 -76t38 -99.5t50.5 -62.5q14 22 18 59.5t8.5 73.5t16.5 54q18 -19 35 -66t30.5 -69t47.5 -23q18 19 37 59t37 60q6 -6 20.5 -47t34.5 -41q7 0 21 6q28 20 77 49t78 50t49 40q0 -146 -53.5 -285.5t-150.5 -316.5q47 14 72 29t61 48t65 58 q4 -78 4 -119q0 -346 -137 -557q11 0 43.5 11.5t48.5 11.5t29 -8q31 -46 31 -95q0 -32 -12 -65t-34.5 -75t-40.5 -80.5t-24 -74.5q20 5 43.5 20t54.5 34q-16 -56 -16 -101q0 -58 26.5 -163t30.5 -152z" />
<glyph unicode="2" horiz-adv-x="1669" d="M1610 129q-4 1 -82.5 14.5t-118 24t-80.5 25.5t-80 40q-12 -22 -12 -81q0 -23 -6 -41q-91 35 -193 64.5t-221 51.5q4 -31 56 -72.5t94 -60.5q-127 3 -182 6t-124.5 19t-117.5 49q-16 4 -25 4q-27 0 -46 -16.5t-43.5 -48.5t-37.5 -44l-205 95q39 26 71 48.5t55.5 52.5 t23.5 67q0 8 -4 28l-90 84q64 23 121.5 44t104 54.5t75.5 90.5q30 61 30 147q0 24 -5 72t-7 76q26 -20 62.5 -80t44.5 -70q22 102 41.5 168t52 135.5t80.5 130.5q15 27 23.5 77t17.5 73q20 -14 29 -30t26 -55.5t31 -60.5q63 25 63 101q0 38 -15.5 81.5t-35.5 67.5 q-56 72 -166 72q-46 0 -90 -12q-26 -8 -74.5 -32.5t-81.5 -33.5q1 18 7 34t21 46t22.5 51t7.5 47q-35 -57 -199.5 -186.5t-224.5 -151.5q-17 113 -60 305l99 -32q-11 32 -24 67.5t-20.5 63.5t-11.5 57q16 6 33 6q24 0 64 -13t55 -13q24 0 41 14q6 56 9 95.5t24 68.5 q16 -11 36.5 -46t32.5 -46q49 62 110.5 77t180.5 21.5t176 32.5q-2 -20 -21.5 -56t-19.5 -63q42 15 78 27t70.5 19t64.5 7q46 0 82 -14q23 0 35 -1t31 -2t43 -3q66 0 102 20q-6 -36 -6 -76q0 -99 39 -225q14 14 36 57t44 56q15 -36 40.5 -90t37.5 -94t12 -84q0 -40 -12 -82 q-13 -41 -35 -75t-49 -64.5t-69 -74.5t-62 -67q33 0 96 20t86 25q-30 -101 -98 -162.5t-192 -131t-196.5 -125t-115.5 -150.5q81 21 161 42.5t146 30.5l-45 -88q40 5 113.5 13t135.5 15.5t115 18.5q0 -131 -102 -294q48 -39 77 -73t40 -79z" />
<glyph unicode="3" horiz-adv-x="1913" d="M1858 766q-5 -73 -10 -151.5t-29.5 -140t-81.5 -103.5q0 24 -9.5 41.5t-19 26t-25.5 23t-16 19.5q-42 -130 -157.5 -229.5t-249.5 -128.5q-11 -19 -27.5 -32.5t-38 -25.5t-35.5 -22q0 30 22 72t27 59q-25 -7 -83.5 -29t-110 -33.5t-109.5 -11.5q-160 0 -311 113l-6 -113 q-56 30 -117.5 63.5t-112.5 74t-86 94.5q-15 -18 -22 -42.5t-15 -69.5t-14 -64q-69 79 -69 217q0 36 6 111t6 112q0 66 -14 121q58 -61 125 -138t122 -149q-6 30 -27 99.5t-33 116t-13 93.5q30 -71 82 -121t150.5 -127.5t135.5 -119.5q22 18 27.5 39t12 66.5t20.5 66.5 q28 -14 41 -33.5t33.5 -58.5t37.5 -54q106 75 197 211q2 -12 2 -41q0 -50 -10.5 -97t-30.5 -85q11 -8 22 -8q14 0 40.5 20.5t39.5 20.5q18 0 29 -21q27 2 27 25q0 7 -0.5 11t-1.5 10t-2.5 13t-1.5 13q0 12 4 18q63 115 63 224q0 40 -8 69q-13 -7 -31.5 -35t-42.5 -28 q-12 135 -137 297q-9 -14 -17 -49t-10 -43q-32 0 -81.5 35.5t-67.5 43.5q-47 23 -117 23q-14 0 -60 -2t-85 -2q17 34 71 99.5t80.5 107t30.5 90.5q12 0 19.5 -9.5t16.5 -27.5t15 -23q10 26 33 69.5t44 83t30 63.5q-50 0 -140.5 11t-136.5 11q-68 0 -119 -25q-10 25 -20 51 t-23 40q-23 -9 -47.5 -29.5t-44 -45.5t-37.5 -53.5t-32 -50.5q-48 75 -48 179q0 32 9.5 110.5t9.5 108.5q0 15 -4 45q34 0 84.5 -22.5t68.5 -26.5q0 31 -11 71.5t-11 53.5q84 -49 166 -177q10 20 34 80t46 86l51 -121q47 71 121.5 111t187.5 76q-1 -29 -20 -67t-35 -69 t-17 -63q49 26 100.5 53.5t103.5 49t100 30.5q0 -27 -20.5 -64t-20.5 -61q31 8 92.5 35.5t99 40t86.5 12.5q15 0 43 -4l262 -8q-79 -115 -179.5 -216t-217.5 -185l149 -10q-60 -150 -229 -238q59 -21 110.5 -58.5t92.5 -88t67 -109.5q50 110 50 176q22 -3 36 -14t26 -30.5 t19 -32t19 -34.5q29 -47 29 -131q0 -60 -15 -137q10 -10 23 -10q10 0 34.5 21.5t41.5 21.5z" />
<glyph unicode="4" horiz-adv-x="1901" d="M1853 997q-38 -66 -38 -153q0 -40 10 -121t10 -121q0 -98 -45 -164q-5 18 -7 65.5t-15.5 78t-53.5 41.5q-12 10 -35 10q-40 -3 -75 -31q-35 -38 -35 -96q0 -40 15.5 -84.5t41.5 -87.5t47 -70q-17 0 -58 7.5t-56 7.5q-48 0 -64 -46l45 -106q-53 15 -116 37t-111 34 t-107 13q27 -21 95 -56t90 -53q-34 -12 -68 -12q-30 0 -91 12t-91 13q-31 4 -84 5t-86 3q8 19 38 56.5t46 65.5t16 64l-12 223q-22 -20 -60.5 -56.5t-62 -57.5t-70.5 -60q3 22 26 69.5t23 74.5q0 24 -14 45q-24 24 -65 24q-25 0 -67 -8.5t-48 -9.5l-135 -76q-15 11 -15 27 q0 7 4.5 20.5t4.5 24.5q0 12 -9 22q-34 0 -65.5 -15t-75 -45t-70.5 -44q-16 14 -30 51.5t-21.5 52t-32.5 23.5q-19 -21 -34 -75t-27 -75q-61 95 -61 207q0 69 18.5 136t53.5 160.5t55.5 164t23.5 139.5q25 -26 48 -92t32 -76q17 30 29 76.5t23 92t28 81.5q51 109 59 299 q21 -6 33.5 -28l25 -44t33.5 -28q13 66 26.5 120.5t27.5 101t31.5 102.5t27.5 90q14 -11 29 -40t40 -81t41.5 -82.5t37.5 -54.5q17 30 25.5 90t19.5 88q18 -19 31.5 -53t25.5 -63t31 -48q13 18 16.5 45.5t8 66t12.5 58.5q30 -21 43 -49.5t30.5 -82.5t30.5 -63q56 64 129 114 t180 112q-2 -30 -5 -50.5t-6 -42.5t-3 -43q0 -28 8 -51q113 107 156 187q10 -52 10 -93q0 -63 -15.5 -121.5t-47.5 -144.5t-50 -144t-22 -118q31 27 59 78.5t50.5 91.5t56.5 64q-4 -52 -23 -120.5t-36 -126t-27.5 -107.5t-10.5 -105q0 -25 5 -60q18 26 23.5 35t27.5 44 t34.5 51.5t20.5 25.5q0 -55 -7 -117.5t-7 -74.5q0 -29 8 -54q76 67 194 90zM1116 903q27 55 27 117q0 40 -14.5 117.5t-19.5 108t-5 87.5q-20 -24 -42 -60.5t-40.5 -59.5t-42.5 -35q4 36 4 100.5t2 93.5q-1 28 -23 51t-49 23q-28 0 -47 -33q-53 -67 -53 -184q0 -76 23 -166 q-10 -6 -17 -6q-14 0 -45.5 25.5t-52.5 25.5q4 -28 4 -41q0 -32 -6.5 -59.5t-19.5 -64.5t-19 -60l174 -39l-33 94q22 10 33 10q20 0 46.5 -17.5t53 -35.5t47.5 -18q0 70 6.5 103.5t26.5 51.5q28 -21 42 -46t40 -83z" />
<glyph unicode="5" horiz-adv-x="1724" d="M1688 686q-32 -243 -136 -371q-66 -64 -120.5 -106.5t-114.5 -65.5q2 13 8.5 39t10 49.5t3.5 44.5q-39 -30 -82 -52.5t-118.5 -58.5t-108.5 -56q0 22 18.5 53t18.5 49q-29 -2 -89.5 -9.5t-103.5 -12.5t-92 -5q-37 0 -55 2q11 -11 40.5 -38.5t46 -46.5t24.5 -35 q-84 0 -159 27.5t-177.5 81t-181.5 82t-164 28.5q5 15 25 24t46.5 17t42 17t15.5 24t-25 45q-18 29 -59 75t-58 70q15 2 41 2q72 0 137 -21.5t165.5 -66t170.5 -66.5t154 -22q-8 6 -60.5 37.5t-78.5 62.5q16 2 114.5 6.5t159 23.5t98.5 69q56 56 56 137q0 48 -13 93t-43 126 q-17 -16 -21.5 -36t-8.5 -61.5t-15 -64.5q-29 2 -68.5 42.5t-62.5 51.5l-286 150q0 -41 14 -102.5t16 -86.5q-76 16 -139 69.5t-135 141.5q-12 -15 -25.5 -65t-35 -133.5t-29.5 -104.5q-41 98 -41 297v82q0 158 -21 240l-47 194q19 -9 38 -27t42.5 -44t34.5 -37 q0 62 -12.5 161.5t-12.5 153.5l-57 111q105 -5 211 -119q17 16 37 36.5t41 34.5t43 21q74 10 149 10q39 0 60 -0.5t45 -1.5q71 0 133 25t170 109q-6 -38 -27.5 -85t-56.5 -112q32 7 103 34t116 33q23 5 45 5q47 0 130.5 -16.5t129.5 -16.5q52 0 88 12q0 -48 -29.5 -96 t-68 -80.5t-53.5 -32.5q108 -79 123 -223q-134 86 -228.5 130t-197.5 44q-49 0 -99 -12q36 -45 76 -63t143 -52q-55 -29 -131 -29q-107 0 -254 60q-21 4 -44 17t-46 26.5t-46 22t-46 8.5q-13 0 -39 -7q42 -89 47 -108q-16 -6 -51 -18t-54.5 -28.5t-23.5 -43.5q0 -97 62 -121 q27 -10 67 -10q62 0 142 26q26 -65 63 -92q24 -14 45 -14q37 0 60.5 35.5t23.5 83.5q0 21 -6 41q32 -5 51.5 -21.5t58.5 -55.5t62 -50q7 13 11 41t7.5 54.5t10.5 45.5q54 -13 127 -116t110 -181q18 22 29.5 68t21.5 84.5t33 60.5q76 -159 76 -383q0 -126 -25 -256z" />
<glyph unicode="6" horiz-adv-x="1974" d="M1925 657q-78 -162 -328 -280q-29 -77 -65.5 -139t-87.5 -97q-67 -43 -144 -43q-39 0 -80 9t-99.5 26.5t-106 29t-88.5 11.5q4 -18 36 -58.5t33 -66.5q-33 -6 -61 -6q-68 0 -123 27.5t-133.5 86.5t-137 92t-120.5 38q15 6 42.5 14t45.5 13t43 14q-123 28 -206.5 143 t-106.5 250q-5 13 -33.5 64.5t-36.5 84.5q6 4 18 4q13 0 36 -8.5t30 -9.5q-11 35 -22 68t-19 68.5t-8 70.5q0 15 4 39q9 58 44 151.5t47.5 134t12.5 99.5q0 29 -2 43q14 -10 19.5 -30.5t12 -46t17.5 -38.5q24 80 50 150t58 132t64.5 113t92.5 136q17 -25 25.5 -71.5 t15 -85.5t30.5 -67q21 26 66.5 108t85.5 124q11 -7 17 -38t16 -42q119 78 241 78q49 0 92.5 -7.5t159.5 -31.5q-19 -56 -75.5 -103.5t-168 -124t-161 -120.5t-49.5 -86q90 59 198 104q-1 -16 -8.5 -30t-27 -41.5t-27.5 -45.5q-14 -33 -35 -84t-40 -89t-42 -74.5t-51 -65.5 q74 12 137.5 66.5t136.5 142.5q11 -19 13.5 -48t6 -60t13.5 -52q15 32 73.5 122t67.5 155q24 -18 55.5 -55.5t59.5 -71.5q19 -20 63.5 -64.5t64 -64.5t44 -52t41.5 -69q30 19 41.5 78t21.5 75q105 -227 105 -376q0 -157 -111 -285q31 0 58.5 9t74.5 28t74 26zM1430 762 q-6 0 -19 -6t-20 -6t-11 4q-14 72 -18 93t-6.5 28.5t-7.5 27.5q-18 -32 -31.5 -55t-29 -42.5t-36.5 -31.5q-23 22 -30.5 49t-14 74t-18.5 70q-31 -28 -70 -50t-94.5 -49.5t-93 -50t-70.5 -55.5q-33 -64 -48 -108.5t-15 -102.5q13 0 37 38t45 38q22 -70 40 -106.5t62 -55.5 q158 0 242 125q16 -8 24 -29.5t17 -30.5q86 33 127 78q47 62 47 115q0 23 -8 39z" />
<glyph unicode="7" horiz-adv-x="1700" d="M1661 1817q-2 -11 -16.5 -95t-23.5 -127.5t-29 -95.5t-52 -92q-35 -46 -114.5 -123t-117.5 -120t-67 -103q16 0 59.5 30t85.5 64.5t68 54.5q-31 -118 -81 -225t-118 -205.5t-161 -197.5q20 0 41 7.5t45 21t46.5 22.5t45.5 10q-114 -172 -146 -234.5t-32 -140.5 q0 -57 30 -205q-42 48 -229 48q-131 0 -219 -17l92 119q-4 4 -25 4q-29 0 -85 -6.5t-143 -19t-93 -13.5q-2 15 -2 45q0 65 26.5 146t53 163t26.5 148q0 32 -6 70q11 0 24.5 -25t34.5 -74t31 -63q0 92 38 180.5t103.5 181t122 171.5t82.5 139q-57 -45 -127 -76t-106 -43 q6 20 57.5 76.5t107.5 112.5t111.5 110t100.5 96q-45 -5 -144 -25.5t-157 -29.5q-39 0 -125 6t-131 6q-93 0 -154 -20q0 23 20 54.5t23 37.5q-34 0 -65.5 -11t-77.5 -33t-71.5 -31t-61.5 -9q16 88 16 184q0 124 -35 207q24 0 44.5 -12t47 -38.5t35.5 -33.5q19 15 19 45 q0 17 -4.5 41t-4.5 37q44 -4 108.5 -39.5t94.5 -44.5q0 23 -4.5 45.5t-11 43.5t-8.5 36q36 -21 64.5 -37.5t60 -30.5t73 -23.5t84.5 -9.5q55 4 117.5 22.5t128.5 38.5t113 23q4 -6 4 -16q0 -14 -22 -35t-25 -33q15 -6 32 -6q19 0 54 8.5t59 8.5q11 0 31 -4q73 -17 151 -17 q117 0 195 37q0 -59 -33 -94q12 -4 21 -4q17 0 52 17.5t48 19.5z" />
<glyph unicode="8" horiz-adv-x="1866" d="M1833 760q-13 -10 -34 -11t-43 -2.5t-36 -11.5q49 -94 49 -194q0 -131 -79 -244q-32 -43 -72.5 -72t-92.5 -53.5t-91 -42.5q2 15 8.5 35.5t16 45.5t14 41t4.5 36q-38 -23 -86 -56t-89 -59t-77 -43q-2 34 -4 59.5t-6.5 46.5t-17 40.5t-32.5 27.5q-15 -21 -27.5 -58 t-23.5 -64.5t-31 -47.5q-28 13 -71.5 54.5t-69.5 52.5q-19 6 -71.5 26t-99.5 38t-50 18q19 -35 34.5 -57t41 -54t51.5 -64.5t39 -52.5q-52 -6 -105 -6q-198 0 -361.5 82t-227.5 252q6 -1 52 -10t66 -9q18 0 39 7q-83 73 -122.5 119t-57.5 96.5t-18 124.5q0 63 8 135l67 -121 q88 170 217 264q-36 26 -72.5 53.5t-65 58t-45.5 69t-17 81.5q0 75 16 132t55 165q15 0 30 -16.5t20 -34.5q31 62 54.5 108t49 84.5t63 77t86.5 66.5q5 -21 9 -49.5t6.5 -59.5t3.5 -59q49 34 138 107.5t149 113.5l10 -127q35 24 95 92t87 103q2 -43 3 -62t10.5 -38t41.5 -76 t76 -150q8 21 16 68t15 73t25 50q12 -27 63 -143.5t86 -176.5q4 5 56 84.5t83 116.5q-4 -78 -4 -119q0 -167 39 -270q6 2 26 15t31 13q-7 -46 -33.5 -92.5t-63 -88.5t-75 -78.5t-92.5 -88.5q131 -30 242.5 -96t171.5 -174zM1153 1346q0 58 -39 104q-11 -13 -23 -44 t-18.5 -43.5t-25.5 -21.5q-16 36 -50.5 105t-52.5 115q-21 -42 -104 -97t-116.5 -84t-33.5 -90q0 -7 4 -33q29 -47 70 -47q5 12 17.5 48t25 57.5t35.5 32.5q9 -37 28.5 -64.5t62 -76t60.5 -79.5q39 0 76 35t60.5 87.5t23.5 95.5zM1210 496q13 35 13 67q0 41 -18 82 t-40.5 71.5t-65 80.5t-50.5 61l-84 -92q-25 1 -42.5 14.5t-38 38.5t-32.5 35q-4 -12 -7.5 -29t-7.5 -29.5t-14 -25.5q-23 0 -40 28t-31 31q-7 -22 -32 -69.5t-34.5 -71t-9.5 -55.5q0 -25 8 -49q11 -31 42.5 -57.5t57.5 -26.5q-2 34 -4 67t-2 70q17 -10 52.5 -44.5 t102.5 -102t71 -68.5q22 22 41.5 51t32 55t24.5 54t28 65q28 -18 41 -40t16.5 -39t8.5 -40.5t14 -31.5z" />
<glyph unicode="9" horiz-adv-x="1921" d="M1878 1362q-8 -159 -27 -276.5t-79 -228t-173 -185.5q15 -8 31 -8q7 0 42 7t63 7q-26 -36 -80 -91t-86 -89q-42 -45 -81.5 -116.5t-71.5 -131t-76.5 -113t-106.5 -88.5q-6 15 -6 31q0 7 5 35.5t5 46.5q0 23 -10 39l-88 -84l-17 71q-79 -40 -219 -145q-10 12 -10 37 q0 7 5 41t5 57q0 13 -4 33q-47 -46 -108 -65t-133 -23t-146.5 -7.5t-124.5 -17.5q6 52 49.5 75.5t92.5 50t57 71.5q72 37 126.5 84.5t123.5 122.5q0 -38 -0.5 -61t-1.5 -50q45 48 132 119.5t139 126.5t87 129q-28 -3 -46.5 -12t-64.5 -35.5t-71 -36.5q0 48 20 78 q-189 -34 -358 -131q-6 15 -6 30q0 18 11.5 60t12.5 51q-31 0 -70.5 -19t-52.5 -22q-14 -2 -41 -2q-162 0 -250 145l-90 230q33 -15 78.5 -53t85.5 -72q0 71 -16.5 133t-46.5 141t-44 130.5t-14 103.5q0 70 31 139q24 -11 40.5 -56t21.5 -52q36 107 103.5 177.5t130.5 104 t235 113.5q0 -15 -8.5 -30t-21.5 -35.5t-20.5 -39.5t-7.5 -37q22 15 64 42t76.5 50.5t63.5 46.5t54 48q29 -18 50.5 -51t41 -62t52.5 -47q10 16 23.5 70.5t37.5 70.5q5 -7 41.5 -72t64.5 -100t68 -57q2 23 3 102.5t16 120.5q131 -107 210 -223q8 13 15.5 61t13.5 58 q42 -85 70.5 -169t44.5 -188t16 -239zM1284 1260q-17 0 -47 -17.5t-43 -17.5q-8 0 -20 6q4 16 4 45q0 43 -14 82.5t-42.5 96.5t-36.5 75l-67 -127q-25 13 -36 35t-24.5 67t-23.5 62q-12 -51 -44 -87t-93.5 -94.5t-89 -101t-27.5 -96.5q0 -32 8 -60q37 74 100 121 q42 -94 75 -148.5t93 -88.5q37 56 117 89.5t134.5 60.5t76.5 98z" />
<glyph unicode=":" horiz-adv-x="819" d="M707 1255q0 -71 -30 -130t-93 -81q0 70 -17 99q-43 -41 -69.5 -83.5t-39.5 -52t-63 -10.5q-43 0 -121 7q-4 8 -4 10q0 5 6.5 15t13 18t13 15.5t6.5 14.5q0 11 -16 19q-63 0 -116.5 30t-53.5 80h47q-3 16 -22 61.5t-19 73.5q0 27 10 45q31 69 86 125l54 -73l145 127 q12 -13 35.5 -50t42 -58.5t43.5 -33.5q11 7 16 34.5t17 39.5q63 -69 96 -123t33 -119zM750 336q-3 -42 -27.5 -66t-51.5 -31t-65 -14.5t-43 -15.5l43 -59q-16 -35 -63 -35q-10 0 -44 5t-50 5q-31 7 -53.5 30t-46 61t-38.5 58q-4 -10 -8 -21t-7 -21t-3 -23q0 -17 6 -35 q-31 2 -62.5 28.5t-43.5 57.5q-25 57 -25 127q0 58 20 98q18 38 43 67.5t66 72.5l31 -74q37 21 57.5 50t50.5 87q26 -6 48 -22.5t58 -51.5t44 -41q15 8 31 37t36 29q88 -97 88 -166q0 -55 -43 -125z" />
<glyph unicode=";" horiz-adv-x="885" d="M737 1112q-25 -31 -65 -84q-12 13 -17 42.5t-16 39.5q-41 -34 -117 -145q-23 10 -45.5 27.5t-42 38t-45.5 48.5q-14 0 -23.5 -7.5t-21 -24.5t-18.5 -23t-19 -6q-76 94 -76 182q0 19 5 39q22 29 32 66q-5 4 -20 5t-23 3q0 56 36.5 79.5t90 34t58.5 17.5l-48 59 q33 33 93 33q84 0 129 -51q16 -11 27 -32t21.5 -42.5t26.5 -32.5q17 22 17 52v47q102 -29 102 -121q0 -39 -20.5 -120t-20.5 -124zM840 647q-3 -46 -28.5 -87.5t-60 -76t-78.5 -78t-69 -86.5l92 31q-83 -130 -143 -237.5t-100 -223.5q-17 8 -24 27t-14.5 47t-19.5 41 l-82 -72q-17 6 -24 38t-11.5 41t-29.5 9q-3 -2 -30 -24.5t-42.5 -33t-38.5 -13.5q7 74 7.5 139.5t2.5 169.5l84 -12q-2 37 -5 125t-5 122t-10 95q13 8 29 8q25 0 71.5 -32t71.5 -36q0 36 -16.5 78t-16.5 62q35 -14 64 -31t56 -40t44 -46q17 1 28.5 18t24 38t27.5 26 q10 -16 14 -39t10 -55q108 0 222 108z" />
<glyph unicode="?" horiz-adv-x="1528" d="M1395 1815q1 -37 15.5 -105.5t28.5 -124.5t24 -112.5t10 -110.5q0 -173 -142 -252q-49 0 -64.5 -11.5t-15.5 -35.5q0 -12 4.5 -37.5t4.5 -44.5q0 -46 -35 -66q-14 18 -28 63.5t-32 63.5q-7 -10 -22 -56t-31 -64q-17 2 -24.5 11t-19 30t-24.5 32q-14 -20 -19.5 -75 t-8.5 -70q-56 27 -72 59q-10 -20 -10 -61q0 -31 20 -146q-42 0 -90.5 11.5t-90 27t-101.5 39.5q0 -22 14 -54t16 -48q-172 22 -210 22q-43 0 -70 -10q8 33 8 78q0 103 -53 262l82 -45q0 19 -17.5 61.5t-17.5 59.5q0 6 4 18q29 -10 76 -10q74 0 129 31q70 62 90 162 q31 -9 50 -29.5t42 -59.5t37 -55q18 24 18 58q0 22 -8 47t-23 57t-18 39l-20 162q-49 -14 -102 -48t-91 -73q41 93 41 182q-41 0 -72.5 -40t-66.5 -105q-4 -8 -15 -55.5t-30 -59.5q-32 63 -113 113q-15 -14 -17 -53t-8 -56t-34 -18q-44 38 -55.5 82t-12.5 119.5t-12 127 t-53 89.5q12 4 20 4q17 0 44 -10.5t36 -12.5q12 15 39.5 57.5t49.5 68t57 44.5q12 -10 12 -27q0 -6 -1.5 -15.5t-3 -20t-1.5 -15.5q0 -23 20 -37q20 7 48.5 40t38.5 43t38 10q5 -10 9.5 -32.5t17.5 -35.5q122 139 350 166q19 -38 39 -82.5t33.5 -60t48.5 -52.5q18 19 18 82 q0 36 12 53q21 -35 60 -67.5t72 -57t61 -57t49 -84.5zM1073 412q-23 -80 -80 -109q-20 -10 -44.5 -17t-59.5 -14t-64 -12q47 -47 140 -47q25 0 65 4q-25 -61 -86.5 -77.5t-161.5 -18.5q-38 0 -78.5 10.5t-75.5 25t-81 33.5q-4 -12 -4 -14q0 -9 10 -31t10 -39 q-90 22 -192 136q-19 38 -19 82q0 54 27 110q55 87 141 141q6 -20 6 -63q0 -26 19 -35l104 129q14 -11 20.5 -27.5t14 -40.5t18.5 -36q18 9 41.5 46.5t51.5 37.5l161 -144l7 115q56 -42 83 -70t27 -75z" />
<glyph unicode="A" horiz-adv-x="2107" d="M2071 258q0 -44 -15 -113q-28 20 -90 74.5t-131 108.5q10 -39 10 -62q0 -47 31 -168q-35 14 -64 39t-67.5 67.5t-58.5 61.5q-22 -49 -56.5 -103t-79.5 -91.5t-100 -48.5q3 29 33 91t30 101q0 70 -41.5 114t-104 75t-126.5 63v-70q-69 0 -114 3.5t-91.5 20t-85.5 52.5 l-14 -82q-12 -6 -23 -6q-12 0 -41 13.5t-45 13.5q-22 0 -49.5 -135.5t-27.5 -184.5q-126 59 -166 135q-25 -15 -60 -45.5t-60 -46.5t-58 -16q-26 0 -40.5 7.5t-38.5 27t-34.5 27t-26.5 7.5q-27 0 -98 -32q0 56 15.5 106.5t45 109.5t45 99t15.5 86q0 31 -4 45 q17 -4 31.5 -11.5t42 -23.5t36.5 -20q-22 65 -30.5 117.5t-8.5 109.5q0 43 2 68q35 -17 67 -75.5t58 -78.5q-34 125 -34 273q0 260 104 518q13 0 32.5 -32t46 -84.5t38.5 -70.5q20 41 20 92q0 50 -18.5 137t-18.5 132q0 57 21 162t24 122q33 -7 53.5 -31.5t46 -57.5 t52.5 -46l27 158q33 -14 58.5 -43t41 -63t26 -64t31.5 -92l111 235q27 -12 44 -31.5t44.5 -59t48.5 -58.5q14 16 32.5 59t34.5 65t44 23q16 -11 16 -28q0 -10 -8 -32t-8 -34q0 -31 22 -31q8 0 22.5 4.5t24.5 4.5q17 0 31 -13.5t18 -29.5q22 12 56 67.5t49 77.5t39 25 q-8 -33 -8 -76t8 -84t24 -97t24.5 -99.5t8.5 -84.5q0 -52 -18 -108l63 45q33 -139 33 -295q0 -46 -7.5 -95t-24 -132t-24.5 -135.5t-8 -100.5q26 58 88 153t99 150q6 -53 6 -164q0 -83 9 -144t42 -114q101 -160 101 -303zM1376 682q-97 146 -133 231q35 5 33 5q15 0 37 -6 t41 -7q-56 54 -76.5 132t-27.5 196t-19.5 175.5t-56.5 72.5q-6 -14 -38.5 -135.5t-48.5 -151.5q-23 26 -46.5 58.5t-37.5 50t-36 36.5q-6 -30 -6 -67q0 -124 67 -225q-9 -11 -18 -11q-8 0 -32 12.5t-44 12.5q14 -37 14 -68q0 -37 -17.5 -109t-17.5 -104q22 20 38 35t30.5 27 t35 24t36.5 17l12 -123q6 6 25.5 32.5t32 38.5t32.5 19q32 -64 92 -110t129 -58z" />
<glyph unicode="B" horiz-adv-x="1950" d="M1853 641q-15 -28 -57.5 -75.5t-54.5 -80.5q55 11 100 11q-40 -63 -92.5 -117t-118 -101t-139.5 -84.5t-139 -60.5q3 21 21 56t36.5 71.5t26.5 65.5q-28 -21 -63 -41t-65.5 -35.5t-78 -40t-70.5 -37.5l-80 -70q-31 53 -77 78.5t-128 47.5t-119.5 35t-78.5 50 q0 -38 10 -85.5t12 -59.5q-27 0 -56.5 11.5t-63 30t-58.5 30.5q-4 -13 -4 -35q0 -24 7.5 -79.5t11.5 -55.5q-20 16 -57 52t-67 53.5t-71 17.5q-29 0 -73 -26t-66 -26q-17 44 -17 123q1 27 1.5 49.5t0.5 57.5q0 107 -39 164q23 -13 48 -35.5t49.5 -43.5t44.5 -30 q-35 54 -49.5 121.5t-20.5 168.5t-15 170.5t-34 125.5l6 6q29 -37 56 -69.5t51.5 -56.5t60.5 -46q0 49 -16.5 99t-47 113.5t-45 106t-14.5 86.5q0 34 8 62q7 49 7 84q0 86 -35 219q19 -17 49.5 -58t53 -65t52.5 -33q13 14 13 33q0 18 -13 48.5t-14 43.5q-15 30 -37.5 65 t-49 81t-39.5 86.5t-13 85.5q0 13 4 43q18 -20 45 -66.5t41.5 -69t42.5 -45.5q11 33 17 82t16 80q19 -17 50.5 -68t49.5 -71q52 40 61 100q56 -39 84.5 -64t47.5 -63q18 12 18 47v29q0 35 14 49q40 -31 85.5 -40.5t126.5 -15t135 -16t94 -42.5q-4 20 -25 59t-32 66t-11 63 q54 -35 136.5 -52.5t168 -34t144.5 -52t90 -111.5q12 9 31 50.5t44 41.5q125 -103 125 -192q0 -28 -8 -49q-7 -21 -52 -76.5t-73.5 -95t-40.5 -86.5q72 38 154 53q-46 -151 -172 -254q30 -22 54.5 -50.5t45 -61t41 -68.5t31.5 -56q17 15 24 40t15 51.5t24 41.5 q5 -36 18 -109.5t13 -125.5q0 -73 -27 -123zM1274 1454q-4 20 -18 37.5t-31.5 28t-42.5 22t-37 17.5q0 -17 4 -37t4 -25q0 -8 -10 -18q-142 25 -223 82q-7 -10 -7 -21q0 -6 2.5 -16.5t2.5 -18.5q0 -19 -23 -24l-123 110q-18 -39 -18 -73q0 -39 20.5 -86.5t41 -95.5t20.5 -89 q0 -27 -13 -63q33 18 58 37.5t59.5 50t52.5 45.5q13 -13 13 -31q0 -5 -1.5 -12.5t-3.5 -18t-2 -16.5q0 -15 9 -27q47 11 91 46t75 79q16 -16 16 -41q0 -5 -2 -28t-2 -45q29 13 50 45.5t31.5 72t10.5 76.5q0 17 -4 37zM1319 768q-30 19 -65 29t-121 28q0 6 1.5 16.5t3 22 t1.5 17.5q-43 -6 -113.5 -35.5t-103.5 -36.5l-7 80q-59 -52 -93.5 -103t-37.5 -114q0 -16 -0.5 -28t-1.5 -26q0 -64 37 -83q13 13 25.5 38.5t22 45t28.5 34.5q10 -17 21.5 -59t24.5 -65t46 -31q46 73 64 190q29 -14 41 -45.5t21 -76t24.5 -67t50.5 -22.5q17 0 43 6 q73 48 103 78t30 72q0 49 -45 135z" />
<glyph unicode="C" horiz-adv-x="1788" d="M1726 711q0 -39 -19 -70.5t-58 -80t-56.5 -78.5t-17.5 -64q0 -24 8 -45q12 -21 40 -53t42 -54.5t14 -48.5q0 -20 -8 -37q-11 -22 -33 -34.5t-49 -14.5q-24 0 -41 8q-23 11 -56 44t-50 42q-11 -13 -27 -32.5t-33.5 -35t-36 -25t-40.5 -9.5t-48 12l-81 84 q-21 -47 -56 -87.5t-78 -55.5q-76 -19 -112 -19q-35 0 -53 6q3 19 20.5 47t33.5 51.5t26 45.5t10 47q-8 4 -17 4q-39 0 -168.5 -65.5t-136.5 -67.5q0 107 -47 147t-168 111t-149 139q-32 142 -97 271q21 0 52 -12.5t45 -12.5q6 0 18 4q-40 36 -62.5 83.5t-32.5 97.5 t-19.5 129.5t-16.5 115.5q35 -10 77.5 -32t88.5 -46q0 47 -10.5 111.5t-14.5 64.5q-6 28 -6 54q0 69 31.5 122.5t97.5 133.5t98.5 135.5t32.5 122.5q0 29 -10 69q19 -15 36.5 -39t26.5 -44.5t19.5 -48.5l19.5 -52q31 37 76.5 64.5t86.5 42.5t107.5 38t104.5 43 q0 -32 -28 -78.5t-31 -60.5q32 40 75.5 59t121.5 35t116.5 27t71.5 35q30 -21 49.5 -43t43.5 -59.5t38 -57.5q52 40 79 61t63 44.5t73 39.5q-62 -65 -62 -151q0 -29 7 -65t20.5 -86t21 -84t7.5 -72q0 -43 -17 -86q-20 11 -67.5 53t-79.5 53q-12 -19 -12 -45q0 -9 -0.5 -20 t-1.5 -27q-74 40 -139 96t-97 125q-21 -8 -27 -26t-8 -53.5t-8 -51.5t-27 -16q-12 0 -30 6q-41 14 -86 14q-103 0 -187 -63q-48 -55 -70.5 -84.5t-40.5 -73t-18 -100.5q59 83 172 135q-32 -49 -42 -108.5t-12.5 -157.5t-6.5 -131q-31 -98 -135 -277q31 0 55.5 11t54 32.5 t45.5 30.5q37 -112 103 -131q27 -8 59 -8q41 0 71.5 9.5t90 33t92.5 30.5q0 -27 -11 -60t-11 -42q0 -13 6 -25q45 52 127 72t162 41t126 74z" />
<glyph unicode="D" horiz-adv-x="2134" d="M2075 1092q4 -29 4 -78q0 -87 -27.5 -151.5t-82.5 -113.5t-146 -96q18 -14 65 -14q25 0 35 -6q-27 -78 -89 -132t-146 -73q-8 -17 -24 -72t-34 -88t-51 -57q-55 -55 -156 -55q-106 0 -211 49q-10 -5 -14 -18t-5 -34.5t-6 -32.5t-20 -11q-12 0 -22 4q-13 5 -26 21 t-24.5 33t-23 27.5t-22.5 10.5q-15 0 -35 -21q-42 -39 -94 -53t-117 -14q-22 0 -68 2t-69 2q-104 0 -164 -33l-8 100l-258 -122q7 69 14.5 116t27.5 95t58 79q-56 72 -86.5 122t-44.5 102q34 -7 91 -39.5t87 -42.5q-49 67 -79.5 142t-49 153.5t-42 218t-26.5 153.5 q28 -6 77 -47t71 -47q-60 144 -85.5 224t-25.5 178q-1 32 -14 71.5t-19 61.5q21 0 40.5 -10t43.5 -28t37 -24q-19 201 -59 328q46 -12 90 -12q49 0 110 14t122 29t110 16q-7 -25 -23.5 -48t-38 -53t-30.5 -57q47 10 107 48t123.5 78t111.5 52l164 -141q15 15 27 57.5t24 63 t43 20.5q29 -34 82.5 -76t80 -68t50.5 -73q19 29 31 68.5t18 80t12 85.5q63 -46 110.5 -82.5t92 -82t74 -98.5t35.5 -118q19 27 31 64.5t20.5 85.5t19.5 87q12 -71 68 -200.5t78 -188t22 -137.5q0 -106 -71 -201q-14 -22 -32.5 -52t-29 -58.5t-10.5 -54.5q37 28 102 85 t99 87zM1493 1055q0 114 -21.5 178.5t-76.5 105t-166 74.5q-20 11 -62 46.5t-71 45.5q-9 -18 -9 -37q0 -6 2 -18t3.5 -24.5t1.5 -18.5q0 -27 -13 -41q-26 16 -53.5 49t-53.5 67t-52 52q8 -33 8 -72q0 -57 -16 -112t-48 -132.5t-39 -99.5q13 4 27.5 16.5t28 25.5t30 22.5 t33.5 9.5q-18 -46 -26.5 -122t-16.5 -139.5t-31 -111.5q10 0 25.5 10.5t26.5 10.5q7 0 16 -6l-70 -281q37 15 63 42.5t60 71.5t58 66q0 -33 -0.5 -56t-1.5 -52q0 -65 14 -101q20 21 41 63t35 62.5t45 34.5q2 -4 17.5 -40.5t27.5 -59t26 -35.5q13 26 39 41.5t69 32t60 26.5 q-59 62 -59 176q0 16 5 82.5t5 108.5q0 130 -71 196q46 -4 68.5 -17t52 -51t69.5 -89z" />
<glyph unicode="E" horiz-adv-x="1690" d="M1632 1915q0 -34 -11 -58.5t-36.5 -61t-36 -57t-10.5 -50.5q0 -18 23.5 -76.5t23.5 -106.5q-15 9 -41.5 30.5t-46.5 32.5t-43 11q-9 0 -23 -29.5t-36 -29.5q-11 52 -39 77q-28 -34 -65.5 -49t-102 -27t-88.5 -20l35 66q-34 -2 -112.5 -2.5t-155 -1.5t-83.5 -4 q40 -19 82.5 -51.5t42.5 -63.5q0 -44 -26.5 -72.5t-77.5 -60t-78 -62t-27 -80.5q21 -20 45 -20q16 0 30 6t35 18.5t38 20.5q8 -13 8 -33q0 -27 -27 -88q48 4 80.5 18t85.5 39.5t84 34.5q-2 -9 -10 -39t-8 -43q0 -14 4 -16q20 9 120.5 52.5t174.5 71t104 28.5q-4 -12 -18 -35 t-14 -35q0 -5 4 -19l159 52q-67 -141 -67 -242q0 -73 31 -123l-144 82q-55 -88 -198 -131q29 58 31.5 65.5t2.5 36.5q-39 0 -81 -16t-64 -16q-33 0 -92 18t-90 18q-28 0 -54 -20t-26 -47q0 -15 7.5 -26.5t23 -26t24.5 -24.5t12 -25q-53 -19 -94 -59t-41 -91q0 -24 14 -53 t35 -29q36 0 99 51q10 -7 10 -24q0 -13 -6 -44t-6 -40q0 -19 12 -19q47 24 110.5 42t149 40.5t127.5 40.5l4 -112q29 14 70.5 29.5t84.5 32t76 32.5q-2 -23 -2 -60q0 -64 16.5 -122.5t16.5 -104.5q0 -17 -9.5 -33t-21 -29t-28.5 -35.5t-23 -37.5q-47 30 -65.5 40.5 t-40.5 10.5t-37 -41q-79 57 -203 57q-84 0 -153 -28l-7 82q-33 -39 -80 -62.5t-82.5 -32t-111 -20.5t-117.5 -23q3 27 26 70t23 88q-36 -37 -80 -52t-103 -19.5t-114.5 -7t-99.5 -17.5q12 58 12 119q0 120 -51 192q72 0 101 -14q-24 67 -40.5 143t-27.5 133t-31.5 129 t-52.5 140v8q20 -8 59.5 -28.5t66 -30t54.5 -9.5q-10 57 -26 127t-23.5 115t-7.5 100q0 16 -16.5 62.5t-36.5 94.5t-37 89q22 -10 43 -31t45 -49.5t47 -44.5q4 90 4 127q0 113 -24.5 207t-86.5 182q34 -7 57.5 -21.5t69.5 -49t72 -46.5q37 125 74 181q14 -15 20.5 -61.5 t11 -63t33.5 -23.5q43 55 90 69t159 33t161 50q0 -31 -6.5 -50t-19.5 -45t-19 -44q44 3 120 30.5t115 32.5v-74q37 55 85.5 76t115.5 21q14 0 30 -1l56 -3.5t55 -2.5q73 0 121 21z" />
<glyph unicode="F" horiz-adv-x="1612" d="M1565 1468q-28 17 -83 34.5t-80.5 27.5t-51.5 35q-27 -6 -57.5 -28t-55.5 -38.5t-53 -19.5l20 88q-135 -11 -264 -121l-14 123q-28 0 -57.5 -30.5t-48.5 -70.5t-19 -65q0 -65 22 -140t74 -75q109 0 215 102q4 -16 4 -26q0 -23 -10.5 -81.5t-13.5 -58.5q28 18 69.5 66.5 t73.5 62.5q4 -12 11 -51t20 -59q51 58 120.5 101t141.5 59q-15 -40 -15 -84q0 -55 26 -164t26 -142q0 -29 -14 -71.5t-38 -79t-51 -49.5q-19 34 -36 66.5t-39 59t-50 42.5q-10 -17 -13.5 -38.5t-8 -41.5t-17.5 -33q-107 49 -180.5 74.5t-150.5 25.5q-84 0 -161.5 -44.5 t-124 -118t-46.5 -156.5q0 -45 39.5 -116t85.5 -71q22 0 40 11.5t28 23t36 43.5q37 -38 37 -104q0 -23 -10 -41t-33 -51.5t-34 -57.5t-11 -49q0 -38 29 -69q-46 0 -81 20.5t-60.5 51.5t-54 77.5t-46.5 69.5q-19 -54 -78 -118.5t-110 -86.5q-77 98 -148 98q-19 0 -37 -13.5 t-36 -27.5t-37 -14q23 105 31 149.5t8 102.5q0 102 -41 172q22 0 56.5 -11.5t59.5 -11.5q-41 89 -63.5 149.5t-30.5 127.5q52 -56 94 -74q-23 88 -29.5 159t-14 213t-22 237t-50.5 182q29 -20 61 -56.5t61 -70.5q23 31 23 94q0 91 -20 130.5t-76 128.5t-56 142q0 40 29 90 q36 -53 91.5 -67.5t160.5 -14.5q65 0 112 -11.5t78 -47.5q17 11 21.5 39t10.5 52t26 32q20 -20 25 -53.5t10.5 -67.5t25.5 -53q25 63 70.5 85.5t102 25.5t124 9.5t105.5 35.5q20 -11 20 -37q0 -14 -7 -46.5t-7 -33.5h12q19 0 34.5 6.5t41.5 22.5t38 22.5t29 9.5 q42 8 124.5 11t129.5 14q-2 -28 -11.5 -53t-24 -57t-21 -54t-6.5 -45q0 -34 20 -68t40 -68.5t20 -68.5q0 -7 -4 -29z" />
<glyph unicode="G" horiz-adv-x="1962" d="M1894 313q-8 -8 -18.5 -32.5t-17 -35t-23.5 -16.5v78q0 71 -47 96q-55 0 -75 -32t-32 -93.5t-26 -87.5q-21 -45 -82 -45q-31 0 -57 13q-72 36 -117 108q-34 -30 -83.5 -72t-95 -65t-94.5 -23q-34 0 -73 15q-19 20 -45 20q-7 0 -28 -2t-38 -2q0 -33 -16 -33 q-74 31 -156.5 65.5t-138.5 68.5q-8 -15 -8 -29q1 -8 2 -16.5t2 -16.5t1.5 -15t0.5 -22q-21 12 -38.5 27.5t-38.5 37t-48.5 47t-46.5 36.5q-73 30 -114.5 79.5t-62.5 106.5t-42 147t-35 132q14 0 46 -6.5t52 -6.5q56 0 76 45q-10 51 -53.5 88t-93.5 77.5t-64 86.5 q-10 29 -10 66q0 33 16 109t16 130q26 0 51.5 -15t48 -34.5t52.5 -44.5q6 6 6 15q0 13 -20 62.5t-31.5 86.5t-11.5 76q0 58 32 102q70 57 126.5 104t93 101t40.5 125q25 -14 35.5 -35t28 -70.5t35.5 -68.5q29 47 66.5 66.5t102 41t102 45t61.5 72.5q11 -11 13.5 -25.5 t2.5 -37.5t2.5 -38t13.5 -28q37 25 80 36t96 11q30 0 87 -4t83 -4q116 0 185 53q0 -24 -16.5 -58.5t-18.5 -47.5q33 -8 74 -8q69 0 118 32q5 -13 5 -24q0 -24 -13.5 -45t-34.5 -44t-36 -43.5t-15 -39.5t15 -35q51 -56 51 -127q0 -36 -17 -72q-10 11 -39 46.5t-53 58 t-71 55.5q-2 -16 -4.5 -31.5t-6 -34t-8.5 -45.5q-103 105 -213 105q-59 0 -101 -16t-65 -60l-53 -158q-18 22 -18 58q0 22 13.5 74t14.5 71q-50 -31 -78.5 -79t-54.5 -130.5t-35 -105.5q-21 37 -38.5 105.5t-32.5 101.5q-50 -80 -50 -185q0 -143 78 -295 q-19 -42 -35.5 -79.5t-28 -75.5t-11.5 -76q0 -47 22 -90l68 117q18 -62 38.5 -113t54.5 -92t87 -62l8 129q45 -33 93 -51t95 -18q53 0 95 26q51 48 76.5 81.5t25.5 76.5q0 32 -22.5 60.5t-55.5 37.5q-23 9 -55 9q-29 0 -80 -11.5t-78 -13.5q8 37 55.5 95t59.5 89 q-76 77 -145 185q16 8 45 8q35 0 79 -12q155 53 259 53q126 0 213 -72q52 0 124 14q0 -30 12 -62.5t13 -37.5l-35 -227q-6 -15 -34.5 -63t-43 -80.5t-14.5 -73.5q26 9 63.5 39.5t57.5 40.5q24 -52 24 -113q0 -31 -8 -93t-8 -95q0 -47 14 -93z" />
<glyph unicode="H" horiz-adv-x="2021" d="M1962 1151q-18 -68 -38 -164t-37.5 -174t-37.5 -137l76 49q6 -18 6 -33q0 -27 -24.5 -78t-24.5 -86h45q-20 -40 -20 -98q0 -38 12 -111t12 -108q0 -41 -10 -70q-24 3 -60.5 39.5t-66.5 36.5q-12 0 -29 -6q-19 -10 -41.5 -36.5t-39 -44.5t-37.5 -19q-32 63 -91 86 q-43 -10 -80 -42.5t-85 -88.5h-21q0 39 10 71t32 78.5t28 63.5q-8 16 -68 16q8 32 36.5 94.5t44 103.5t15.5 87l-112 -119q-4 20 -4 26q0 18 8 47t8 44q0 20 -8 36l-45 -26q2 13 26.5 85.5t24.5 117.5q0 26 -4 40q-6 9 -18.5 35.5t-23 41t-28.5 22.5q-105 0 -182 -80 l-82 -141q-28 16 -33.5 38.5t-11.5 73t-20 70.5q-51 -48 -82.5 -112t-32.5 -128q0 -57 30 -152t35 -116q-27 5 -53 24t-60.5 52t-51.5 45q3 -46 21 -81.5t60.5 -96.5t64 -106t21.5 -93q0 -13 -4 -37q-52 61 -93 99.5t-87 43.5q-14 -18 -18 -43t-9 -56.5t-16 -49.5 q-66 80 -153 80q-13 0 -37 -4l-113 -66q8 30 8 53q0 30 -14 48q-24 24 -55 24q-20 0 -35 -12l-60 -53q-18 36 -18 88q0 35 17.5 114.5t17.5 116.5q0 85 -72 141q25 5 31 9.5t17 7t67 6.5q-26 31 -42.5 66t-27 68.5t-23 88.5t-20.5 80q36 -23 110.5 -83.5t121.5 -88.5 q4 12 4 37q0 84 -84 168q-55 45 -85 85.5t-40 96.5q14 128 14 170q0 62 -12 98q19 0 48 -10t44 -10q-41 58 -41 170q0 31 4 94t4 96q-1 34 -14 65t-33 68q33 0 67.5 -13.5t75.5 -38.5t64 -38q21 22 48.5 74.5t45 78.5t51.5 44l-2 -197q34 25 70.5 30.5t103.5 10t108 17 t69 47.5q14 -27 14 -64q0 -29 -8 -69q-66 -116 -66 -189q0 -31 8 -55l80 -98q-84 -106 -84 -217q0 -37 8 -68l168 125q0 -66 6 -78q0 24 13.5 65t29.5 54q21 -21 21 -68q0 -10 -2 -35t-2 -36q0 -35 8 -48l82 152q15 -11 56.5 -58.5t74 -73.5t70.5 -26q8 0 24 4 q0 24 -25.5 71.5t-29.5 62.5q-12 61 -12 190q0 61 -8.5 106.5t-34.5 81.5q23 0 67.5 -32.5t57.5 -32.5q16 0 16 72q0 70 -23.5 111.5t-76.5 105.5q46 30 108 30q47 0 143 -25.5t136 -25.5q81 0 141 68q0 -19 -5.5 -52.5t-6.5 -39.5q8 -9 20 -9q11 0 35 12t31 15 q-56 -70 -56 -160q0 -51 24 -159t24 -162q0 -23 -5 -53q-9 -29 -37.5 -104.5t-37.5 -113.5q39 7 98 66z" />
<glyph unicode="I" horiz-adv-x="903" d="M823 1946q0 -56 -13 -100.5t-38 -93t-36 -77.5t-11 -67q0 -70 84 -121q-28 -31 -58 -65.5t-47.5 -70.5t-17.5 -75q3 -51 43 -51q30 0 62 20q22 -67 22 -153q0 -104 -28 -170.5t-85 -130.5t-80 -95t-24 -86q27 5 46.5 24.5t42 43.5t44.5 31q14 -33 14 -62 q0 -43 -29.5 -89.5t-59 -92t-29.5 -88.5q32 0 72 15t57 16q0 -41 18.5 -118t18.5 -122q0 -23 -7 -55l-217 57l-6 -68q-44 31 -104 46.5t-119 15.5q-77 0 -148 -25q-1 27 -16 47.5t-44 43.5t-42 36q59 63 87.5 98.5t47.5 84t19 114.5q0 44 -26.5 91.5t-53.5 94.5t-27 91 q26 -8 47.5 -23t51 -37t49.5 -30q0 58 -19.5 104.5t-56.5 108t-54.5 104.5t-17.5 107q0 47 20.5 135t20.5 139l94 -66q-16 54 -28.5 185t-26.5 202.5t-59 128.5q22 -1 45 -13t57.5 -38.5t40.5 -29.5q18 11 32 41t25.5 53.5t32.5 34.5q19 -13 35 -54t27 -55q31 38 75 57 t88 25t108 11.5t101 15.5z" />
<glyph unicode="J" horiz-adv-x="1655" d="M1602 1313l-46 41q-4 -4 -4 -15q0 -9 15.5 -41t15.5 -45q0 -11 -8 -16q-34 32 -60.5 50t-54.5 18q-14 0 -28 -7q-27 -26 -27 -65q0 -30 20.5 -87.5t22.5 -68.5q50 -73 77 -160.5t27 -175.5q0 -150 -77 -266q-20 16 -26 64.5t-15 64.5q-28 -61 -51 -113.5t-38.5 -106 t-15.5 -110.5q-19 0 -46 24t-44 24q-7 0 -18 -7q-14 -12 -19 -28.5t-8 -40t-8 -39.5q-15 0 -60.5 17.5t-68.5 17.5q-35 0 -56 -41v-74q-123 10 -151 10q-132 0 -213 -41q-37 27 -62 75.5t-47 94.5q-31 -18 -45 -48.5t-20.5 -72.5t-13.5 -82q-38 5 -88.5 26.5t-103.5 43 t-101 27.5q43 63 43 143q0 44 -21.5 146.5t-21.5 156.5q112 -44 295 -190q6 12 6 20q0 14 -8.5 36t-8.5 36q0 8 4 20q49 0 92.5 -11.5t104.5 -34.5t92 -33q54 134 66 235q24 -28 68.5 -103t76.5 -108q31 39 31 86q0 35 -15.5 75t-40 88.5t-38 85t-13.5 73.5q0 12 4 32 q27 83 27 177q0 89 -27 153q15 -7 34.5 -21.5t38.5 -32t32 -26.5q4 34 4 45q0 48 -10 89.5t-33.5 118.5t-30.5 120q6 6 15 6q5 0 11 -3.5t16 -10.5t12 -8q-14 104 -42 237.5t-57 196.5q32 -19 96 -40.5t88 -31t60 -39.5l94 96q27 -33 27 -90q0 -28 -3.5 -61t-4.5 -51 q67 40 150 66t210 59q-16 -49 -16 -107q0 -35 10.5 -89t20 -94t17 -76.5t7.5 -80.5q0 -55 -16 -102z" />
<glyph unicode="K" horiz-adv-x="1933" d="M1896 143q-44 10 -122.5 79.5t-113.5 94.5t-97 25l184 -246q-29 -16 -55 -16q-33 0 -61.5 18t-69 56.5t-69 60t-50.5 21.5q-6 0 -21 -5q-31 -14 -60 -46t-53 -57t-53 -34q-18 71 -28 156t-21.5 184.5t-33 181t-64.5 148.5q-12 -32 -16.5 -73.5t-10.5 -85t-18 -68.5 q-13 69 -41 134t-77 161t-75 163q-28 -57 -28 -135q0 -40 5.5 -77t15.5 -86t16 -76q-28 6 -63 49.5t-60 50.5q-8 -42 -8 -59q0 -53 18.5 -96.5t60.5 -117t61 -117.5t19 -95q0 -58 -33 -117q-27 12 -38 28.5t-30 52t-34 50.5q-22 -17 -77.5 -70.5t-86.5 -73.5 q-12 15 -28.5 43.5t-28 44t-29.5 25.5q-14 -27 -28.5 -54.5t-33 -46t-48.5 -18.5q-27 1 -79 9t-77 8t-49 -6q14 75 14 145q0 113 -43 182q21 -1 64 -22t65 -21q17 0 33 8q-102 156 -102 406q0 118 20 258q19 -19 40.5 -39t45.5 -31.5t53 -11.5q11 22 11 33q0 20 -13.5 37.5 t-43 44.5t-41 38.5t-17.5 32.5q-36 48 -52 102t-19.5 108.5t-3.5 132t-5 128.5q22 0 41 -8.5t43.5 -24.5t38.5 -20q-18 60 -35 117t-28 112t-11 111q22 0 45 -18.5t43 -42.5t40 -45t32 -21q24 0 37 74q15 -8 25 -29t17.5 -37.5t18 -29.5t29.5 -17q78 131 166 152 q14 -4 49 -4q40 0 55 -23q7 6 23.5 19t29 17.5t31.5 6.5q-7 -45 -25 -85t-44.5 -85t-45.5 -84q18 0 53 15.5t54 17.5q-26 -81 -55 -170.5t-60 -166.5t-65 -140q44 36 52 43t30 31t108 114q14 -18 19 -50.5t10 -61t22 -45.5q19 81 49 141t99.5 178t104 193.5t46.5 158.5 q13 -9 33 -43t41 -41l74 123q18 -28 18 -96q0 -42 -10 -125q55 61 96.5 94.5t81.5 46t104.5 15t133.5 4.5q-12 -94 -64 -155t-159 -129t-143 -94.5t-52 -76.5q40 0 111.5 25t93.5 26q-35 -33 -92.5 -117t-95.5 -130t-85 -66q83 -48 125 -80.5t52 -85.5q17 -42 35.5 -80 t43.5 -88t43 -94q-16 -8 -38 -8q-12 0 -45 4t-56 4q66 -60 113 -134t105 -191.5t91 -176.5t86 -123z" />
<glyph unicode="L" horiz-adv-x="1755" d="M1710 604q-5 -14 -30 -101.5t-49 -135.5t-70 -86q64 -58 99 -96.5t44 -86.5q-78 52 -189 78.5t-206 26.5q-39 0 -54 -2q0 -26 21.5 -70t21.5 -68q-91 0 -174.5 19.5t-156.5 65.5t-125 118q-4 -8 -4 -26q0 -23 8 -61t12 -38q-28 3 -77 33.5t-70 38.5q-9 -12 -9 -27 q0 -6 2 -17t3.5 -23.5t1.5 -22.5q-53 53 -131 53q-38 0 -64 -10q-68 -44 -119 -67t-106 -23q-51 0 -92 22q20 37 36 66t27 58t12 52q-1 33 -10.5 60.5t-25 63t-25.5 65.5q9 6 20 6q9 0 25 -4t25 -4q15 0 26 14q-41 63 -68 124.5t-57 150.5q25 -12 72 -53t74 -59.5t65 -21.5 q-67 88 -87 172.5t-49 268t-67 268.5q8 -7 23.5 -24t27.5 -27.5t27 -13.5q0 42 -2.5 73t-7.5 65t-8 60q13 -5 23 -8.5t22 -10t20 -14.5q0 36 -33.5 100t-39.5 85q-13 38 -13 104q0 18 2 50t3.5 63t1.5 47q0 51 -11 88q15 -16 35 -36.5t42.5 -41.5t33.5 -29l33 123 q21 -5 32 -23t21 -50t16.5 -43t20.5 -11q17 0 39 17q57 37 143 37q35 0 86.5 -4.5t79.5 -4.5q82 0 141 29q37 22 58 33.5t47 15.5q-18 -59 -95 -153t-104 -133.5t-27 -108.5l131 94q-20 -56 -20 -143q1 -30 1.5 -56t0.5 -67q0 -106 -35 -172q-19 -37 -75.5 -92.5 t-77.5 -79.5t-31 -68q58 10 121.5 56t109.5 104q-23 -179 -104 -342q11 -8 20 -8t32 10t40 10q-23 -45 -49.5 -97t-42.5 -91t-25 -86q32 11 62 29t64.5 43.5t64.5 48.5q-4 -15 -32 -70t-30 -92q51 29 150.5 44.5t171.5 29t127 57.5q-1 -16 -14 -35.5t-29.5 -45.5t-20.5 -42 q90 36 200.5 61t172.5 25z" />
<glyph unicode="M" horiz-adv-x="2705" d="M2652 133q-16 5 -58 26t-68.5 30.5t-55.5 9.5q-33 -45 -33 -60q0 -13 8 -24v-4q-21 0 -48 18t-42 18q-14 -14 -14 -34q0 -5 1.5 -15.5l3 -21t1.5 -15.5q0 -22 -12 -34q-118 42 -187 120q-21 -15 -33 -49.5t-23 -69.5t-32 -48q-39 74 -39 151q0 71 27 134t82.5 154.5 t82.5 151t30 123.5q-39 -68 -90.5 -137.5t-110.5 -126.5q0 85 14.5 195t18.5 110l-68 -30q51 195 51 305q0 117 -49 166l-74 -207q-21 12 -64 52t-54 56q26 -62 26 -116q0 -62 -23.5 -117.5t-69 -135t-69.5 -142t-24 -132.5q22 0 50.5 29.5t66.5 78.5t53 62q8 -29 8 -63 q0 -52 -18.5 -93t-57 -105.5t-57.5 -107t-19 -88.5q0 -17 7 -47q-39 0 -75.5 25t-71.5 66t-60 71q-63 -55 -121 -168q-17 19 -37.5 35t-40.5 16q-18 0 -33 -14q-7 -3 -42 -24.5t-54 -24.5q35 81 59 137.5t41.5 116.5t18.5 123q-20 -3 -40.5 -19t-47.5 -44.5t-39 -39.5 q-4 26 -4 39q0 24 4.5 52t11.5 64.5t11 70t4 71.5v78q0 47 -23 74l-55 -119q-8 178 -54.5 312t-173.5 196q0 -64 14 -115.5t41.5 -131.5t34.5 -118q-31 17 -56 30.5t-48.5 23.5t-48.5 14q5 -34 41 -142t39 -169l-117 119q-18 -19 -18 -52q0 -22 11.5 -66t12.5 -57 q86 -138 86 -305q0 -56 -12 -112q-20 26 -81.5 95.5t-100.5 113.5q-19 -54 -36 -88.5t-38 -53.5q-15 16 -30.5 72t-49.5 72q-17 -72 -36.5 -114t-65.5 -67q-17 -9 -61 -14.5t-64.5 -10t-38.5 -22.5q-8 8 -8 27q0 16 9 51.5t20 76t18.5 75.5t7.5 77q0 96 -55 156q17 0 31 -7 t26.5 -17t27.5 -19.5t29 -9.5q13 0 21 4q-37 133 -37 272q0 170 51 320v135q0 85 -14 133q17 -1 30.5 -10t31.5 -23.5t24 -17.5q12 33 12 39q0 8 -15.5 63.5t-37.5 161.5q16 0 38 -11t33 -11q0 183 -16 303q38 -4 76 -27t70.5 -57t62.5 -70l70 221q32 -20 50 -58t38 -84 t45 -67q20 45 50 72t64.5 43.5t88 37t81.5 36.5q4 -42 23 -82.5t52.5 -94.5t51 -95t17.5 -91q0 -9 -4 -39q-12 11 -53 62t-76 65q-15 0 -22.5 -15.5t-8.5 -16.5q3 -58 32 -99.5t88.5 -96t93.5 -95.5t44 -94q19 46 45 97.5t43 90.5q15 -22 18 -39t8.5 -58t14.5 -61 q53 70 53 185q0 95 -41 239q8 4 25 4q18 0 52 -14t50 -14q7 0 19 4q-65 178 -72 282q50 -22 157 -42.5t149 -31t96.5 -45.5t86.5 -104h7q18 54 52 110t75 91q40 -72 51 -148q20 5 54 38.5t75.5 75.5t68.5 58q5 -20 5 -61q0 -72 -21.5 -169.5l-43 -195t-21.5 -168.5 q0 -84 34 -139q29 9 39.5 29.5t18.5 59.5t18 53q17 -61 17 -134q0 -60 -12.5 -165t-12.5 -160q0 -44 6 -86q94 105 113 205q6 -7 6 -37q0 -41 -10 -118.5t-21 -150t-24 -165.5t-13 -138q12 -29 36 -77.5t36 -81t12 -68.5q0 -13 -4 -37z" />
<glyph unicode="N" horiz-adv-x="1978" d="M1901 1894q-3 -84 -19.5 -169.5t-48.5 -163.5t-78 -142q13 0 26 6.5t33.5 19.5t32.5 18t23 5q-8 -49 -20 -128t-26.5 -139t-41.5 -116q12 -10 53 -25t55 -34q-7 -16 -29.5 -20t-42.5 -9t-28 -24q96 -85 96 -248q0 -66 -18 -152q-22 13 -40 41t-36.5 56.5t-40.5 42.5 q45 -167 45 -273q0 -56 -12 -106q5 -34 18 -68t31 -71.5t35 -71.5q-23 -17 -57 -25t-66 -16q-5 10 -17 55t-29.5 69t-51.5 25q-24 -21 -35 -42.5t-28.5 -62.5t-33.5 -65q-10 34 -15.5 59.5t-12.5 50t-21 48.5q-24 -20 -58 -72.5t-63 -81.5t-73 -38q4 26 31.5 118.5 t27.5 143.5q0 59 -29 110q-37 -117 -141 -200q11 38 24 85t20 87t7 73q0 72 -33 121q-23 0 -46 -22t-27 -25q-14 22 -35 77.5t-29 75t-28 44.5q-30 67 -76.5 137.5t-102 132.5t-108.5 109v-109q0 -105 -25 -170q12 -4 17 -4q12 0 18.5 5t22.5 21t25 21.5t22 5.5 q-21 -56 -25.5 -130t-9 -146.5t-25.5 -128.5q6 -13 13 -13q2 0 13 7.5t17 7.5q1 0 11 -4q-27 -55 -27 -154v-59q0 -114 -37 -178q-12 40 -21 74t-34 55q-11 -3 -17 -10t-14.5 -28t-14 -29.5t-16.5 -8.5q-2 0 -14 4q-87 70 -164 106q-1 -22 -6.5 -63.5t-5.5 -46.5 q-9 1 -62.5 13.5t-83.5 12.5q-39 0 -63 -16q-2 70 -4.5 119t-9 98t-23.5 98.5t-43 87.5q15 0 34 -3t38.5 -8.5t32.5 -8.5q-10 42 -14.5 102t-7 136t-5.5 114q-8 6 -8 47q26 -9 47.5 -35t45 -58t46.5 -46q10 38 10 70q0 61 -24 122.5t-68 135.5q-6 46 -12.5 135t-16 148 t-30.5 116q28 -5 71 -36.5t68 -37.5q-5 29 -24 58.5t-47 70t-36 62.5q-49 87 -49 176q0 71 33 133q31 -17 64.5 -77.5t60.5 -80.5q6 19 9.5 66t5.5 72.5t14 56.5q24 -12 38 -33.5t33 -62.5t31 -58l21 -18q33 65 93.5 87t167 26t148.5 12q-2 -14 -2 -45q0 -35 6 -111t6 -114 q0 -89 -26 -148q27 0 56.5 44t47.5 52q8 -19 8 -43q0 -21 -7 -58t-7 -50q0 -24 8 -43q8 3 34.5 29t47.5 26q18 -75 36 -149.5t52 -131t103 -88.5q-9 35 -9 111q0 33 4 100.5t5 98.5q-9 45 -9 67q10 0 19.5 -3.5t24.5 -14t22 -14.5q0 45 -13 74t-46 94t-39 102q-8 58 -8 88 q0 89 34 147q33 -19 71.5 -72.5t59.5 -66.5q13 13 18 38.5t10.5 41t23.5 16.5q10 -11 14.5 -22t13.5 -31t19.5 -31t25.5 -14q9 12 13.5 28.5t8 27.5t17.5 22l60 -98q24 38 63 59.5t109 39.5t80 21z" />
<glyph unicode="O" horiz-adv-x="2083" d="M2044 995q-6 -84 -33.5 -158t-77 -136t-123.5 -113q28 0 75.5 13.5t64.5 14.5q-17 -40 -49 -66.5t-87 -57t-77 -46.5q2 -9 23.5 -20.5t21.5 -19.5q0 -9 -21 -23q-76 -34 -184 -94q14 -14 45 -19.5t52.5 -11.5t27.5 -25q-48 -11 -136.5 -49.5t-136 -55.5t-106.5 -17 q-64 0 -127 28q-20 10 -77 43.5t-91 53.5q-20 -11 -20 -31q0 -5 9 -34.5t9 -53.5q-76 18 -153.5 89.5t-122.5 149.5q-15 -19 -15 -69q0 -34 8 -82q-106 33 -185.5 135.5t-100.5 216.5q-7 -27 -15 -53t-13 -53t-5 -52q-57 44 -78.5 98.5t-41 153t-43.5 158t-83 102.5 q22 0 72 -29t61 -34q-5 28 -43.5 117t-38.5 151q1 72 47 211t46 236q12 -17 40 -70.5t44 -81t43 -53.5q-5 20 -5 37q0 68 40.5 138.5t125 184.5t119.5 180q16 -17 21 -60t16 -60l129 135l16 -68q76 50 162.5 68.5t224.5 32.5q7 -27 7 -37q0 -14 -12.5 -27.5t-16.5 -36.5 q45 -29 84 -44t94 -15q27 53 90 53q17 0 33 -0.5t37 -1.5l-41 -94q12 -4 18 -4q12 0 35 8t37 8q6 0 18 -4q14 -38 32 -74.5t43.5 -78t51.5 -80.5l47 86q53 -95 87 -207.5t34 -218.5q0 -129 -53 -232q28 0 65 23.5t56 25.5zM1610 1120q-9 15 -21 15q-7 0 -20 -4.5t-19 -4.5 q-16 0 -24 19q-3 145 -45 237q-10 -4 -17 -17.5t-18 -38.5t-17 -34.5t-16 -9.5q-6 0 -18 12q-17 47 -52.5 80t-84 57t-96.5 49t-81 58q1 -16 1.5 -30t0.5 -35q0 -28 -12 -48q-18 4 -30.5 11t-35 24t-35.5 26t-32 13q-10 -59 -88.5 -152.5t-108.5 -137t-30 -126.5 q25 12 50.5 33.5t61.5 52.5q6 7 13 7q14 0 20 -25q-53 -95 -53 -236q0 -86 22 -163q13 -20 39.5 -62t54 -75.5t58 -56t65.5 -30.5q2 33 2 93q0 65 17 110q79 -106 148.5 -165.5t162.5 -59.5q50 17 78.5 33.5t42.5 52.5q-5 11 -29 16t-26 23q145 74 172 211q0 43 -21 43 q-7 0 -26 -4t-29 -4q-9 0 -18 6q8 24 35 76t41 86t18 75z" />
<glyph unicode="P" horiz-adv-x="1956" d="M1927 1243q-1 -91 -40 -166.5t-101.5 -133.5t-154.5 -118t-142 -92q14 24 14 51t-20 95q-30 20 -62 20q-42 0 -82.5 -27.5t-103.5 -88t-90.5 -83t-57.5 -22.5q12 39 34 84.5t33 72.5t15 60l-190 -195q-27 4 -53.5 17t-60 29.5t-58.5 21.5q47 -89 47 -186q0 -119 -72 -187 q37 28 94.5 56t94.5 38q-1 -42 -27 -123t-26 -124q-5 -17 -5 -47q0 -26 6 -54.5t16 -61t17 -56.5q-80 52 -134 84t-66.5 41.5t-77.5 76.5t-82 84q-12 -120 -12 -219q-28 3 -92.5 27t-95.5 33.5t-64 9.5q-78 0 -123 -78q-39 34 -39 96q0 16 4.5 44.5t11 57.5t10 51.5 t3.5 45.5q11 -8 32 -27.5t36.5 -30.5t33.5 -16q-14 37 -18 80t-7.5 160.5t-11 198t-24.5 132.5l32 -2q0 36 -26 101t-31 98q-6 52 -6 100q1 28 1.5 51t0.5 60q0 82 -19 148q30 -25 87 -93.5t96 -95.5q14 20 14 47q0 22 -7 56t-7 42q-40 47 -69 105t-44.5 122t-15.5 124 q0 86 28 155q22 -27 150 -198q12 23 18 39.5t15.5 47t19.5 58.5q18 -14 25.5 -46.5t15 -54.5t31.5 -30q12 20 35 62t41 67t45 46t59 28q41 8 93.5 14.5t85 14t63.5 20.5q0 -16 -6 -34t-14 -33.5t-16.5 -35t-8.5 -34.5q0 -14 8 -27q101 59 135 72q11 -8 15 -29t7 -28.5 t17 -8.5q12 14 34 47.5t40.5 51t46.5 24.5q15 -24 29.5 -72.5t27 -74.5t41.5 -43q49 92 84 123l72 -107q17 20 23.5 47t16 65.5t21.5 57.5q17 -7 58.5 -62t78.5 -117t67 -118t38 -84l37 164q84 -142 84 -264q0 -57 -21 -113q-10 -16 -79 -110t-99 -150q31 16 74 49t78 64 t71 63zM1321 1194q22 34 22 68q0 35 -20 63.5t-58.5 69.5t-50.5 63q-3 101 -28 101q-22 0 -74.5 -84.5t-60.5 -92.5q-15 10 -24 30.5t-16.5 53.5t-15.5 56q-28 -30 -77.5 -68.5t-82 -67t-54 -66t-21.5 -85.5q0 -9 4 -37q1 -1 17.5 -29t35.5 -30l60 125q20 -5 24.5 -24t9 -47 t17.5 -40q45 117 55 117q7 0 15.5 -44t21 -71t41.5 -27q14 0 31 9q38 4 66 27.5t61 65.5t53 58q13 -18 29.5 -53.5t19.5 -40.5z" />
<glyph unicode="Q" horiz-adv-x="2030" d="M1985 938q-12 -38 -61 -145t-64 -154q-27 -49 -76 -88.5t-103 -63.5q26 -24 40.5 -42.5t15.5 -41.5q-35 9 -138 9q93 -128 304 -205q-42 -25 -132 -39.5t-138 -32t-81 -74.5q-21 5 -34.5 23t-31 43.5t-36.5 36.5q-6 -9 -6 -25q0 -27 33.5 -96t33.5 -70 q-90 24 -166.5 98.5t-127.5 172.5q-17 -4 -21.5 -16.5t-9.5 -43.5q-20 0 -31 9.5t-37 39t-41 37.5q-4 -24 -4 -34q0 -28 18.5 -80t22.5 -66q-54 0 -156.5 36.5t-193.5 83t-119 75.5q-4 -22 -4 -27q0 -26 17 -71.5t18 -65.5q-55 20 -97.5 56.5t-79 82.5t-83 105t-86.5 94 q-103 75 -133 110l102 19q-43 46 -67.5 98.5t-37.5 113.5t-22 153t-10 104q6 18 24 25.5t34 14t20 23.5q-9 35 -9 80q0 53 11.5 96.5t41.5 129t44 142t14 118.5q16 -4 24 -15.5t18 -30.5t18 -27.5t24 -8.5q22 58 102 132.5t109 110.5t29 103q0 22 -7 49q22 -6 31.5 -26 t21.5 -62.5t26 -69t40 -37.5q16 -4 25 -4q45 0 88 53q19 -29 41.5 -58.5t45 -49t46.5 -19.5q40 0 72 70q6 15 6 29q0 21 -10.5 54.5t-10.5 53.5q58 -25 123 -48.5t126.5 -47t115 -52.5t100.5 -71l13 127q60 -52 112 -120t84.5 -145.5t42.5 -156.5q17 16 34.5 53t26 51 t29.5 23q3 -41 18.5 -136t23 -148t7.5 -111q0 -177 -100 -277q32 -4 31 -4q5 0 17 9t31 21.5t69 37.5zM1483 1333q-20 -20 -52 -67t-55 -66q-3 66 -28.5 126.5t-66.5 123.5t-81 123q0 -29 10.5 -80.5t10.5 -79.5q0 -27 -9 -45q-29 18 -75.5 53.5t-89.5 69t-80 57.5 q-9 -21 -9 -51q1 -13 2 -28.5t1 -24.5q0 -54 -27 -74q-17 16 -25.5 28.5t-21 38t-23.5 50.5t-18 35q-4 -70 -37 -134.5t-89 -148.5t-85 -145t-29 -127q0 -54 17 -97q5 10 13 32t15.5 33.5t24.5 14.5q44 -61 72 -116t52 -114.5t47 -114.5t48 -101q6 24 10 42t8 29 q12 0 42.5 -25.5t55.5 -40.5t56 -15q30 0 57 16q0 78 -38 128t-109 103q14 7 22 7q17 0 47 -16.5t52 -16.5q-11 50 -31 82q16 4 20 4q27 0 46.5 -16.5t52.5 -50t53 -42.5q10 38 25.5 108.5t35.5 124t50 91.5q34 -94 65 -287q88 80 88 232q0 50 -12 154t-12 153q0 45 4 65z " />
<glyph unicode="R" horiz-adv-x="1960" d="M1937 100q-51 0 -84.5 6t-54 15t-76.5 37l15 -95q-79 7 -152 50.5t-123 109.5q-12 -20 -18.5 -44t-13.5 -57.5t-13 -55.5q-70 57 -143 57q-26 0 -53 -6q1 5 17.5 53t26 88.5t9.5 89.5q-20 0 -37.5 -13t-48 -40.5t-39.5 -32.5q76 121 76 264q0 54 -15.5 108t-50 94.5 t-86.5 57.5q-6 -28 -8.5 -70.5t-6.5 -72t-16 -59.5l-182 186q1 -19 2 -36.5t2 -31t1.5 -23t0.5 -30.5q-24 8 -53 30.5t-50 37.5t-48 16q86 -179 92 -352l-62 47q4 -39 14.5 -75.5t28 -89.5t26.5 -89.5t9 -79.5q-140 35 -272 144q0 -35 14.5 -91t14.5 -90q-17 27 -42.5 54.5 t-58 67.5t-50.5 74.5t-19 68.5q-111 -149 -203 -216q-10 22 -10 48q0 29 9 63.5t18.5 60.5t27.5 68t33 78q-16 29 -52 77.5t-51.5 84t-15.5 88.5l72 -19q0 191 -8 346t-35 244q25 -4 39.5 -18t40.5 -46t47 -42q0 33 -28 151t-44.5 212.5t-16.5 209.5q0 149 -32 236 q67 -21 100.5 -65t101.5 -154q7 12 12.5 45.5t13.5 52t26 22.5q14 -44 53 -90q28 25 67 59.5t75.5 54t80.5 19.5q-1 -21 -21 -57t-20 -70q56 77 132.5 105t204 45.5t185.5 38.5q0 -29 -13 -51.5t-40 -55t-37 -53.5q51 0 112.5 19.5t122 52t93.5 61.5q21 -29 57 -116t58 -131 t49 -62q20 59 33 166q33 -42 69.5 -88t62 -82.5t44 -83t18.5 -96.5q0 -58 -27.5 -115.5t-68.5 -103.5t-96 -87q24 0 85 11.5t93 11.5q-67 -101 -134.5 -162.5t-154.5 -64.5q39 -43 91 -145.5t80.5 -147.5t86.5 -84q-51 -6 -160 -6q44 -51 101 -149t100.5 -169t99.5 -123z M1286 1346q0 60 -31.5 105.5t-84 70t-113.5 24.5q1 -13 15.5 -61.5t14.5 -75.5q0 -17 -6 -35q-30 13 -64.5 60.5t-55.5 67.5t-60 20q-60 0 -118 -42.5t-58 -97.5q0 -38 27.5 -58.5t66.5 -20.5q38 0 68 16q8 -19 8 -43q0 -27 -10.5 -51.5t-28 -51t-31 -52t-18.5 -50.5 q30 -6 61 -6q96 0 156.5 58.5t69.5 160.5q69 -39 102 -121q42 31 66 80t24 103z" />
<glyph unicode="S" horiz-adv-x="1987" d="M1970 766q-20 -4 -28 -4q-20 0 -73 15.5t-87 15.5q18 -31 61.5 -94.5t65 -113.5t22.5 -106q-25 0 -55 30t-49 30q-2 -33 -2 -105q0 -66 -9.5 -114t-37.5 -82q-7 2 -66.5 28t-100.5 39.5t-79 13.5q-70 0 -107 -61q-12 -21 -12 -37q0 -29 25.5 -43.5t69.5 -31t46 -29.5 q-109 -54 -239 -54q-93 0 -186 27t-179 74q-54 -43 -139 -43q-32 0 -90 12q-37 11 -87.5 49.5t-74.5 50.5q0 -26 1.5 -56t3.5 -58.5t3 -42.5q-123 87 -368 102q15 49 22.5 98t7.5 99q0 128 -55 211q18 -10 58.5 -33.5t71.5 -39t61 -21.5q0 12 -10.5 42.5t-10.5 55.5 q77 -24 147 -43t127 -35t119 -39.5t121 -56.5q0 24 -25.5 75t-25.5 80q45 -11 120.5 -72.5t110 -84.5t95.5 -23q80 6 137 30t78 81q0 47 -27.5 87.5t-69.5 61.5q-52 27 -114 35t-155 11t-151.5 13.5t-111.5 43.5q15 23 36 30.5t60 15.5t59 19q-58 18 -175.5 35t-181.5 31 t-131 48.5t-116 100.5l142 17q-37 33 -81 72.5t-77.5 83t-46.5 87.5q-10 42 -10 72q0 72 30 134.5t89 160t75 149.5q0 -39 5 -104.5t14 -77.5q45 59 106 110t124 86.5t144 67.5l15 -71q56 52 128.5 69.5t152.5 20.5t184 9t168 34q0 -34 -20 -67.5t-40 -63.5q19 2 55 2 q47 0 122 -6.5t114 -6.5q85 0 152 25q0 -44 -26.5 -98.5t-51.5 -104.5l131 58q-5 -26 -35.5 -80.5t-38.5 -81.5q-11 -134 -27 -197q-50 22 -79 37t-68 39t-81 51.5t-85 52.5q-4 -8 -4 -65q-12 5 -75 30.5t-106 38.5t-83 13q-81 0 -135 -60l-107 -155q-15 17 -22.5 45 t-16.5 68.5t-18 56.5q-50 -6 -80 -90q-10 -28 -10 -49q0 -64 55 -121q88 -88 164 -88q47 0 127.5 39.5t101.5 46.5l-49 -113q15 1 51.5 5t65 7t57 4.5t47.5 1.5q140 0 197 -65q-15 -8 -50 -20t-53 -27q86 -22 145.5 -39.5t116.5 -43t108 -66t89 -101.5z" />
<glyph unicode="T" horiz-adv-x="1966" d="M1939 1671q-11 -24 -43 -32t-61.5 -16t-34.5 -30q43 -41 57 -57t15 -49q-26 -10 -66 -10q-33 0 -74.5 9.5t-92 26.5t-88 27t-72.5 10q-53 -2 -88.5 -31t-59.5 -100q-8 -48 -8 -86q0 -47 12 -71q83 85 133 112q-41 -102 -63 -219t-29 -254q-4 -25 -14 -48.5t-32.5 -68.5 t-26.5 -57q19 0 52 21.5t54 21.5q-35 -184 -121 -457q20 0 49 22t41 25q-14 -65 -14 -221q0 -45 -2 -65q-108 40 -168 72.5t-111 95.5q-20 -19 -20 -199q-37 10 -60.5 38.5t-48.5 80t-34 63.5q-27 -13 -43.5 -34t-37.5 -57.5t-36 -55.5q-29 51 -29 112q0 55 32 168t34 170 q-76 194 -105 256q15 13 33 13t34 -12.5t35 -34.5t33.5 -36t34.5 -22q0 31 -20.5 91.5t-20.5 90.5q0 47 29 80q0 15 4 37t4 29q0 10 -6 16q-18 -14 -54 -62t-61 -61q0 26 6 43t19 41.5t16 32.5q24 67 29 119.5t11.5 163t19.5 176.5q-36 -23 -60.5 -62.5t-52 -83t-61.5 -67.5 q0 42 10 108t10 91q0 82 -72 110q-24 4 -37 4q-41 0 -73.5 -16t-85.5 -51l-4 65q-39 -8 -67.5 -27.5t-65.5 -56.5t-60 -53q-16 40 -46 130t-50 132q15 -3 20 -3.5t13.5 -5t25 -14t70.5 -42.5q12 12 12 28q0 26 -37 103t-37 116q19 -4 70 -25.5t71.5 -29.5t53.5 -12 q4 16 4 20q0 18 -8.5 51t-11.5 33q4 -1 76 -16.5t117 -30t81 -35.5q6 9 6 23t-8.5 45.5t-9.5 38.5q72 -14 142 -28t127 -34.5t108 -58.5q12 21 26.5 47.5t22.5 40.5t24 35l47 -98q127 120 367 120q0 -20 -10 -38t-27 -37t-24 -29q37 -10 92 -10q65 0 192.5 27.5t169.5 31.5 q-45 -84 -82 -137.5t-92 -95.5q31 -6 101 -6q51 0 81 -15z" />
<glyph unicode="U" horiz-adv-x="1939" d="M1898 913q-63 -97 -74 -208.5t-18 -201.5t-56 -183t-185 -199q1 6 18 83t28 135t11 89q0 25 -8 25q-7 -51 -35 -85.5t-86.5 -87.5t-85.5 -92.5t-27 -97.5q-131 5 -299 90q0 -25 4 -39t15 -47t12 -51q-39 20 -72.5 41t-99 66t-100.5 65q0 -26 8 -80t8 -90 q-38 31 -109.5 81t-109.5 80t-79.5 72t-72.5 95q-8 -25 -8 -56q0 -34 16.5 -90.5t20.5 -83.5q-54 26 -96.5 96t-82.5 172t-85.5 220.5t-85.5 183.5q29 -7 73 -41t68 -69q-51 107 -72 202.5t-31.5 235t-19.5 213.5q23 -6 44.5 -37t35.5 -41q0 50 -11 106.5t-31 128t-27 104.5 t-7 77q0 38 11 84q17 -14 36.5 -61t31 -67t36.5 -20q15 0 35 10q26 43 26 101q0 22 -0.5 33t-1.5 28.5t-2 46t-2 58.5q17 -20 27 -47.5t23 -67t26 -63.5q36 65 102.5 123t146.5 93t155 35q0 -72 -27.5 -139t-81 -155t-76 -133.5t-22.5 -96.5q0 -23 6 -47q24 19 74.5 77 t89.5 81q-37 -67 -48.5 -141.5t-17.5 -186.5t-22.5 -188t-63.5 -144l105 80q0 -23 -13.5 -92.5t-13.5 -116.5q25 8 61 43t60 45q-11 -35 -22 -72t-18 -69.5t-7 -65.5q0 -81 51 -127q65 -98 223 -98q19 0 40 1t63 6t67 8q34 3 64.5 28t46.5 60q6 15 6 24q0 21 -15 31 t-49.5 23.5t-44.5 23.5q13 13 57 29.5t67.5 31t23.5 45.5q0 17 -4 27q-31 39 -92 39q-38 0 -68 -6q20 98 20 182q0 127 -45 234q6 -3 24 -13t29 -15t25 -5q-14 39 -28 109.5t-29.5 148t-28.5 117.5q11 0 26.5 -12.5t31.5 -12.5q-21 206 -54 336q36 -22 69 -65t81 -113 q4 30 5.5 49t4.5 46t5.5 44.5t10.5 44.5q24 -15 42.5 -59.5t35.5 -61.5q22 19 40 43.5t43 60.5t44.5 56.5t50.5 36.5q24 -37 33.5 -80.5t21 -126t19.5 -115.5q21 53 72 143.5t84 129.5q6 -55 6 -111q0 -154 -45 -304t-127 -284q-14 -84 -14 -114q37 64 74 105t100 118 q0 -94 -33 -265t-76 -251q16 7 67.5 55.5t77.5 56.5z" />
<glyph unicode="V" horiz-adv-x="2007" d="M1942 1929q-16 -71 -37 -162t-46.5 -159t-70.5 -129t-117 -103q-43 -60 -57 -78t-23 -35.5t-24 -48.5q12 10 89 86t113 93q-7 -77 -37.5 -148.5t-71 -136t-106 -164t-90.5 -149.5q36 41 38 43t38.5 24t95.5 64q-20 -61 -28.5 -104t-22 -132t-27 -159.5t-30.5 -120.5 l-74 -127q-19 27 -36.5 76.5t-26.5 70.5q-15 -105 -15 -194q0 -101 19 -193q-36 15 -59.5 42.5t-52.5 73t-48 68.5q-16 -16 -47 -56.5t-53 -64.5t-48 -38q-6 21 -6 41q0 16 7.5 58t7.5 60q-63 -46 -109.5 -83.5t-81.5 -82.5q-76 39 -168 39q-47 0 -69 -4q2 51 27 102.5 t71 75.5q-55 55 -113.5 119t-109.5 129l168 -47q-9 26 -26.5 54.5t-50 74t-40.5 58.5q-41 68 -59.5 128t-50.5 190.5t-64 209.5t-88 143q50 -11 121.5 -64t107.5 -69q-9 59 -42.5 107t-99.5 121t-98.5 125.5t-39.5 117.5q-7 77 -39 141.5t-97 167.5q40 -36 111.5 -53.5 t126.5 -27.5t104 -35t78 -80q15 14 29 54t27 56q29 -19 52.5 -78t41.5 -77q37 88 141 192q0 -46 -6.5 -84.5t-16.5 -80t-20 -90t-10 -87.5q0 -37 8 -69q26 38 45.5 68t34.5 53t33.5 57t33.5 71q7 -28 7 -81q0 -94 -21 -181t-63 -116q2 -37 7 -113t15 -127q21 19 32 44 t23.5 71t22.5 69q20 -61 20 -149q0 -59 -9 -156t-9 -131q0 -149 78 -242q7 27 17.5 76.5t19 97t14.5 74.5q29 59 43 133.5t14 159.5q0 118 -30 207q14 -8 32.5 -28.5t34.5 -28.5q0 40 6 114t11.5 148t5.5 114q0 86 -19 158q25 -13 41.5 -29.5t34 -38t41.5 -49.5 q22 23 33.5 45t17 44.5t8.5 46t9 57.5q33 -33 62 -57t71 -58.5t71.5 -66.5t51.5 -70q34 38 78 72t111 79t102 72z" />
<glyph unicode="W" horiz-adv-x="2585" d="M2552 1894q-14 -174 -85.5 -354t-185.5 -354q13 0 86.5 50.5t79.5 53.5q-31 -112 -57 -205.5t-54 -179t-68.5 -172t-92.5 -162.5q-8 -24 -8 -45q0 -17 8 -39q23 0 43.5 26.5t38.5 31.5q-3 -38 -13.5 -116.5t-16 -138t-5.5 -110.5q0 -39 2 -59q-76 21 -144 49t-131 67.5 t-114 90.5q0 -44 10 -70.5t43.5 -98.5t42.5 -116q-20 -2 -65 -2q-216 0 -291 131q-34 45 -52 108.5t-37 137t-48 119.5q29 -15 74.5 -71t78.5 -71q0 78 -28.5 128.5t-93.5 141t-80 146.5l-125 -332l-66 82q0 -54 -0.5 -80t-1.5 -66.5t-2.5 -85t-1.5 -81.5q0 -94 10 -158 q-137 49 -232 103t-149 143q1 -37 12.5 -64.5t40 -82.5t37.5 -89q-123 54 -178 54q-61 0 -172 -60q-35 139 -60 223t-65 162q22 -16 61 -48t60 -64q2 14 2 43q0 84 -38.5 181.5t-94.5 178.5q18 0 35 -8t41.5 -23t42.5 -20q-9 32 -38 110t-43 133.5t-15 114.5q-7 50 -24 97 t-38 88.5t-55 103.5l172 -68q-86 102 -131 165.5t-72 126t-49 152t-47 191.5q24 -8 53.5 -27.5t72.5 -52.5t64 -47q0 32 -0.5 47t-1.5 35t-2.5 44.5t-1.5 47.5q24 -21 41 -49t42.5 -80t37.5 -71q19 28 39.5 59t45.5 51.5t60 28.5q158 0 232 8q-5 -54 -26.5 -90.5t-72.5 -112 t-63 -118.5q38 22 64 37.5t54.5 30t55.5 22.5q-1 -40 -13 -78t-35 -98t-33.5 -98t-10.5 -76l67 51q5 -95 14 -175t20.5 -172.5t17.5 -165t6 -155.5q23 41 26.5 127t10 151.5t43.5 104.5q17 -12 20 -32t6.5 -40.5t20.5 -33.5q61 84 61 213q0 40 -5.5 85.5t-18.5 130.5 t-17 122t-4 85q17 -7 31 -23t32 -35.5t33 -27.5l13 252q24 -17 43 -72t45 -77q17 42 24.5 117t10.5 90l75 -109q17 31 33.5 52t41.5 42.5t53.5 40.5t80.5 52q4 -17 4 -52q0 -56 -12.5 -117.5t-45 -187.5t-42 -169t-12.5 -101q33 26 60.5 64.5t66.5 107t59 96.5 q-20 -118 -30.5 -199.5t-10.5 -162.5q0 -53 6 -109q5 -43 26.5 -76.5t61.5 -46.5q23 0 55.5 19.5t37.5 21.5q15 -16 30 -60t27 -64.5t41 -20.5q45 5 45 82q0 28 -7 81.5t-9 67.5q-5 57 -35.5 203.5t-30.5 224.5q0 27 2 41q17 -20 36.5 -51.5t34.5 -52t36 -33.5q-7 46 -7 102 q0 37 9.5 173t9.5 214q21 -26 36.5 -60t33 -82.5t34.5 -78.5q19 47 52 80.5t63.5 51.5t90 51t87.5 55q0 -40 -21.5 -108.5t-21.5 -102.5z" />
<glyph unicode="X" horiz-adv-x="1876" d="M1817 1948q-10 -66 -39.5 -105.5t-117.5 -138.5t-112 -154q22 0 85 33t85 33q-4 -54 -32 -99t-83.5 -100.5t-95.5 -95t-65 -76.5q21 0 42 7.5t41 20t38.5 22t35.5 10.5q-14 -22 -49 -92.5t-68.5 -112t-86.5 -64.5q15 -30 35 -96t38 -98q21 19 49.5 74t49.5 71 q0 -61 24 -136t48 -149t24 -133q0 -39 -12 -86q28 52 106 142q23 -149 23 -412q-27 1 -62.5 31.5t-58.5 34.5q0 -36 14 -65t42 -73.5t36 -70.5q-34 5 -106 8.5t-126.5 17t-91.5 46.5t-51 100q-34 -64 -41 -148q-41 51 -55 117t-14 149q0 31 2 92t2 91q0 99 -19 162 q-22 -28 -29.5 -51.5t-23 -83t-29.5 -87.5q-22 42 -33.5 71.5t-19 55.5t-17.5 66l-22 88q-32 -30 -44 -64t-22 -88t-22 -88q-16 11 -38 45.5t-27 40.5q-27 -35 -27 -106q0 -14 1 -30t3.5 -52t3.5 -60q0 -40 -8 -69q-5 -20 -11 -63t-14 -73.5t-24 -54.5q-31 23 -89 93 t-93 124q-14 -32 -29 -95t-21.5 -88t-23.5 -60q-27 9 -40 30t-30.5 65t-32.5 62q-25 -22 -44.5 -55t-42.5 -72t-46 -63q-26 45 -26 98q0 34 7.5 60.5t27.5 78t30.5 88t10.5 70.5q0 31 -13 72q23 -6 36 -26t27.5 -44t32.5 -32q5 71 13 131.5t25 179.5t22 170l78 -119 q23 36 42.5 74.5t44.5 90.5t34 69q-95 12 -152.5 68.5t-118.5 179.5t-94.5 180t-99.5 102q98 -25 174 -25q-74 55 -138.5 128.5t-106 156.5t-54.5 172q154 -143 317 -231l6 245q36 -45 76.5 -83t92.5 -81.5t108 -91.5q13 23 18.5 71t14.5 69q15 -85 72.5 -192.5t111.5 -210 t69 -193.5q81 189 93 315q16 -2 29.5 -30t21.5 -35q37 75 37 202q0 34 -0.5 52t-1.5 43.5t-2.5 57t-1.5 56.5q11 -11 28.5 -39.5t27 -40t28.5 -18.5q11 12 18 39.5t14 36.5l60 -92q90 141 309 141q64 0 113 -8z" />
<glyph unicode="Y" horiz-adv-x="1681" d="M1640 1942q-14 -95 -50.5 -184t-102 -205.5t-96 -179t-54.5 -146.5q21 1 47 28.5t54.5 58t50.5 36.5q-75 -363 -297 -611q-16 -59 -16 -75q0 -21 6 -39l125 133q0 -266 -107 -418q17 0 56 12t51 15q-44 -135 -47 -258q-96 78 -189 121.5t-205 43.5q-11 -8 -14.5 -20.5 t-3.5 -34.5l110 -133q-55 23 -118 23q-47 0 -127 -12.5t-123 -12.5q-60 0 -107 16q36 0 85 32t67 75q10 37 10 65q0 41 -14 78.5t-34.5 69.5t-53 78t-41.5 61l147 -41q-2 63 -16 119.5t-35.5 105t-47 95t-67.5 112.5q20 15 56 15q8 0 27.5 -2t41.5 -3.5t41 -1.5 q-79 58 -130.5 126.5t-79 125t-80 178t-83.5 177.5q15 0 41 -11.5t35 -11.5q6 0 17 6q-29 42 -94 116t-97 130.5t-35 128.5q15 -1 59 -37.5t86 -68t68 -35.5q6 18 6 37q0 14 -4 44t-4 46q0 26 6 39q27 -21 50.5 -48t56.5 -74t49 -69q20 52 57.5 78.5t104.5 53.5t90 40 q12 -73 12 -151q0 -188 -71 -336v-43q0 -73 32 -94q31 108 57 173.5t68 118.5q8 -39 8.5 -91.5t3 -107.5t16.5 -102t46 -90q19 18 33.5 57t24 83t15 81t13.5 89q13 -6 26 -26t21 -26q18 16 32 80.5t22 150.5t8 134q0 35 -2 45l90 -70q12 33 17.5 99.5t6.5 70.5q20 -7 39 -24 t43.5 -40.5t44.5 -35.5q77 -43 117 -102q20 18 55 64.5t50.5 66t43.5 39.5z" />
<glyph unicode="Z" horiz-adv-x="1833" d="M1788 465q-39 -54 -39 -131q0 -36 12.5 -106.5t12.5 -110.5q0 -82 -52 -140q-20 111 -96 142q-90 0 -168.5 -18.5t-163.5 -53.5l47 129q-102 -71 -231.5 -107.5t-288.5 -54.5q8 19 35.5 45.5t41 46.5t13.5 52q-14 30 -49 30q-27 0 -57 -15.5t-61 -38t-37 -25.5 q-15 12 -24 27t-18 38.5t-20 42.5t-27 31q-20 -12 -30 -42t-19 -58.5t-26 -38.5q-125 63 -199 63q-40 0 -79.5 -24t-59.5 -29q34 84 47 115t28 76t25 96.5t10 101.5q16 -8 41.5 -37.5t40 -41t35.5 -11.5q0 79 20.5 144.5t64.5 171t58 165.5q31 -39 54.5 -142t36.5 -136 q35 49 49 104.5t30 154t36 157t65 104.5q-29 0 -77.5 -16.5t-78.5 -16.5q15 54 71 97.5t116 88t81 99.5q-19 25 -45 34.5t-68 10.5t-63 2q23 51 23 73q0 33 -35 41q-94 0 -158.5 -20.5t-148.5 -60.5q-17 0 -23 9t-14 35.5t-18.5 40.5t-34.5 15q-32 -4 -46 -23.5t-24.5 -56 t-19.5 -53.5q-27 64 -39.5 125t-30 174t-35.5 180q156 -57 254 -119q4 16 4 23q0 21 -9 58.5t-13 37.5q49 -17 121 -55t110 -56q0 40 -9 90.5t-9 63.5q28 -15 74 -53t73.5 -57t61.5 -29l36 71q23 -20 52.5 -70.5t40.5 -66.5q44 69 101 94t130 25q48 0 132.5 -9t113.5 -9 q97 0 166 40q-2 -23 -31.5 -67t-34.5 -55q20 0 43.5 9t35 14.5t33 14.5t38.5 9q-19 -65 -64 -118t-116.5 -119.5t-109.5 -112.5t-54 -105l239 109q-8 -32 -30 -65.5t-64.5 -90t-54.5 -76.5q-30 -50 -76 -93.5t-107.5 -94t-105 -98t-68.5 -105.5q46 7 78.5 25.5t95 59 t101.5 56.5q-1 -47 -26.5 -83.5t-81 -96t-77.5 -98.5q-151 -274 -206 -381l231 229q6 -15 6 -30q0 -20 -15.5 -63.5t-15.5 -59.5q31 0 87 22t83 25q105 10 213 82q0 -33 -18 -81t-18 -75q83 26 153 48.5t117 31.5z" />
<glyph unicode="\" horiz-adv-x="2021" d="M1962 1944q20 -50 20 -99q0 -50 -14 -89t-50.5 -122t-53.5 -140t-17 -122q-15 0 -58.5 17.5t-66.5 17.5q-16 0 -32 -8q-33 -9 -57.5 -35.5t-43 -63t-38.5 -85t-27 -62.5q-2 39 -3.5 62t-5.5 52.5t-11 58t-21 50.5q-33 -54 -49.5 -120.5t-20.5 -129t-4 -157.5 q-19 11 -49.5 48.5t-44.5 47.5q-3 -48 -5.5 -92.5t-8.5 -92.5t-18 -94t-34 -86l-24 31q-19 -28 -29 -90.5t-15.5 -87.5t-33.5 -49q-6 1 -21 7.5t-28 6.5q-15 -26 -29.5 -77t-23 -74t-33.5 -43q-9 12 -18.5 42t-21.5 45t-34 15q-24 -116 -124.5 -187t-238.5 -110q4 20 15 40 t26 44t22 40t7 34q-42 -30 -96.5 -52t-132 -47.5t-134.5 -50.5t-102 -65q13 81 24 117t35.5 67t84.5 86q-27 26 -72 57t-61 45.5t-27.5 45t-11.5 81.5q0 41 10 123q100 -51 200 -51q111 0 185 62q16 0 20 -12t6 -33t9 -27q33 35 52 79t45.5 123t41.5 107q18 -21 26.5 -54 t17 -83.5t15.5 -69.5q9 160 25 295.5t67 269t144 166.5q5 -25 33 -55q8 22 22 74t27.5 88.5t38.5 68.5q39 51 88 82.5t88 47.5t128.5 46.5t125.5 47.5q4 -12 4 -19q0 -12 -9.5 -38.5t-9.5 -36.5q0 -13 4 -19q22 6 107 23.5t134 33t93.5 48t71.5 86.5z" />
<glyph unicode="^" horiz-adv-x="1843" />
<glyph unicode="a" horiz-adv-x="2107" d="M2071 258q0 -44 -15 -113q-28 20 -90 74.5t-131 108.5q10 -39 10 -62q0 -47 31 -168q-35 14 -64 39t-67.5 67.5t-58.5 61.5q-22 -49 -56.5 -103t-79.5 -91.5t-100 -48.5q3 29 33 91t30 101q0 70 -41.5 114t-104 75t-126.5 63v-70q-69 0 -114 3.5t-91.5 20t-85.5 52.5 l-14 -82q-12 -6 -23 -6q-12 0 -41 13.5t-45 13.5q-22 0 -49.5 -135.5t-27.5 -184.5q-126 59 -166 135q-25 -15 -60 -45.5t-60 -46.5t-58 -16q-26 0 -40.5 7.5t-38.5 27t-34.5 27t-26.5 7.5q-27 0 -98 -32q0 56 15.5 106.5t45 109.5t45 99t15.5 86q0 31 -4 45 q17 -4 31.5 -11.5t42 -23.5t36.5 -20q-22 65 -30.5 117.5t-8.5 109.5q0 43 2 68q35 -17 67 -75.5t58 -78.5q-34 125 -34 273q0 260 104 518q13 0 32.5 -32t46 -84.5t38.5 -70.5q20 41 20 92q0 50 -18.5 137t-18.5 132q0 57 21 162t24 122q33 -7 53.5 -31.5t46 -57.5 t52.5 -46l27 158q33 -14 58.5 -43t41 -63t26 -64t31.5 -92l111 235q27 -12 44 -31.5t44.5 -59t48.5 -58.5q14 16 32.5 59t34.5 65t44 23q16 -11 16 -28q0 -10 -8 -32t-8 -34q0 -31 22 -31q8 0 22.5 4.5t24.5 4.5q17 0 31 -13.5t18 -29.5q22 12 56 67.5t49 77.5t39 25 q-8 -33 -8 -76t8 -84t24 -97t24.5 -99.5t8.5 -84.5q0 -52 -18 -108l63 45q33 -139 33 -295q0 -46 -7.5 -95t-24 -132t-24.5 -135.5t-8 -100.5q26 58 88 153t99 150q6 -53 6 -164q0 -83 9 -144t42 -114q101 -160 101 -303zM1376 682q-97 146 -133 231q35 5 33 5q15 0 37 -6 t41 -7q-56 54 -76.5 132t-27.5 196t-19.5 175.5t-56.5 72.5q-6 -14 -38.5 -135.5t-48.5 -151.5q-23 26 -46.5 58.5t-37.5 50t-36 36.5q-6 -30 -6 -67q0 -124 67 -225q-9 -11 -18 -11q-8 0 -32 12.5t-44 12.5q14 -37 14 -68q0 -37 -17.5 -109t-17.5 -104q22 20 38 35t30.5 27 t35 24t36.5 17l12 -123q6 6 25.5 32.5t32 38.5t32.5 19q32 -64 92 -110t129 -58z" />
<glyph unicode="b" horiz-adv-x="1950" d="M1853 641q-15 -28 -57.5 -75.5t-54.5 -80.5q55 11 100 11q-40 -63 -92.5 -117t-118 -101t-139.5 -84.5t-139 -60.5q3 21 21 56t36.5 71.5t26.5 65.5q-28 -21 -63 -41t-65.5 -35.5t-78 -40t-70.5 -37.5l-80 -70q-31 53 -77 78.5t-128 47.5t-119.5 35t-78.5 50 q0 -38 10 -85.5t12 -59.5q-27 0 -56.5 11.5t-63 30t-58.5 30.5q-4 -13 -4 -35q0 -24 7.5 -79.5t11.5 -55.5q-20 16 -57 52t-67 53.5t-71 17.5q-29 0 -73 -26t-66 -26q-17 44 -17 123q1 27 1.5 49.5t0.5 57.5q0 107 -39 164q23 -13 48 -35.5t49.5 -43.5t44.5 -30 q-35 54 -49.5 121.5t-20.5 168.5t-15 170.5t-34 125.5l6 6q29 -37 56 -69.5t51.5 -56.5t60.5 -46q0 49 -16.5 99t-47 113.5t-45 106t-14.5 86.5q0 34 8 62q7 49 7 84q0 86 -35 219q19 -17 49.5 -58t53 -65t52.5 -33q13 14 13 33q0 18 -13 48.5t-14 43.5q-15 30 -37.5 65 t-49 81t-39.5 86.5t-13 85.5q0 13 4 43q18 -20 45 -66.5t41.5 -69t42.5 -45.5q11 33 17 82t16 80q19 -17 50.5 -68t49.5 -71q52 40 61 100q56 -39 84.5 -64t47.5 -63q18 12 18 47v29q0 35 14 49q40 -31 85.5 -40.5t126.5 -15t135 -16t94 -42.5q-4 20 -25 59t-32 66t-11 63 q54 -35 136.5 -52.5t168 -34t144.5 -52t90 -111.5q12 9 31 50.5t44 41.5q125 -103 125 -192q0 -28 -8 -49q-7 -21 -52 -76.5t-73.5 -95t-40.5 -86.5q72 38 154 53q-46 -151 -172 -254q30 -22 54.5 -50.5t45 -61t41 -68.5t31.5 -56q17 15 24 40t15 51.5t24 41.5 q5 -36 18 -109.5t13 -125.5q0 -73 -27 -123zM1274 1454q-4 20 -18 37.5t-31.5 28t-42.5 22t-37 17.5q0 -17 4 -37t4 -25q0 -8 -10 -18q-142 25 -223 82q-7 -10 -7 -21q0 -6 2.5 -16.5t2.5 -18.5q0 -19 -23 -24l-123 110q-18 -39 -18 -73q0 -39 20.5 -86.5t41 -95.5t20.5 -89 q0 -27 -13 -63q33 18 58 37.5t59.5 50t52.5 45.5q13 -13 13 -31q0 -5 -1.5 -12.5t-3.5 -18t-2 -16.5q0 -15 9 -27q47 11 91 46t75 79q16 -16 16 -41q0 -5 -2 -28t-2 -45q29 13 50 45.5t31.5 72t10.5 76.5q0 17 -4 37zM1319 768q-30 19 -65 29t-121 28q0 6 1.5 16.5t3 22 t1.5 17.5q-43 -6 -113.5 -35.5t-103.5 -36.5l-7 80q-59 -52 -93.5 -103t-37.5 -114q0 -16 -0.5 -28t-1.5 -26q0 -64 37 -83q13 13 25.5 38.5t22 45t28.5 34.5q10 -17 21.5 -59t24.5 -65t46 -31q46 73 64 190q29 -14 41 -45.5t21 -76t24.5 -67t50.5 -22.5q17 0 43 6 q73 48 103 78t30 72q0 49 -45 135z" />
<glyph unicode="c" horiz-adv-x="1788" d="M1726 711q0 -39 -19 -70.5t-58 -80t-56.5 -78.5t-17.5 -64q0 -24 8 -45q12 -21 40 -53t42 -54.5t14 -48.5q0 -20 -8 -37q-11 -22 -33 -34.5t-49 -14.5q-24 0 -41 8q-23 11 -56 44t-50 42q-11 -13 -27 -32.5t-33.5 -35t-36 -25t-40.5 -9.5t-48 12l-81 84 q-21 -47 -56 -87.5t-78 -55.5q-76 -19 -112 -19q-35 0 -53 6q3 19 20.5 47t33.5 51.5t26 45.5t10 47q-8 4 -17 4q-39 0 -168.5 -65.5t-136.5 -67.5q0 107 -47 147t-168 111t-149 139q-32 142 -97 271q21 0 52 -12.5t45 -12.5q6 0 18 4q-40 36 -62.5 83.5t-32.5 97.5 t-19.5 129.5t-16.5 115.5q35 -10 77.5 -32t88.5 -46q0 47 -10.5 111.5t-14.5 64.5q-6 28 -6 54q0 69 31.5 122.5t97.5 133.5t98.5 135.5t32.5 122.5q0 29 -10 69q19 -15 36.5 -39t26.5 -44.5t19.5 -48.5l19.5 -52q31 37 76.5 64.5t86.5 42.5t107.5 38t104.5 43 q0 -32 -28 -78.5t-31 -60.5q32 40 75.5 59t121.5 35t116.5 27t71.5 35q30 -21 49.5 -43t43.5 -59.5t38 -57.5q52 40 79 61t63 44.5t73 39.5q-62 -65 -62 -151q0 -29 7 -65t20.5 -86t21 -84t7.5 -72q0 -43 -17 -86q-20 11 -67.5 53t-79.5 53q-12 -19 -12 -45q0 -9 -0.5 -20 t-1.5 -27q-74 40 -139 96t-97 125q-21 -8 -27 -26t-8 -53.5t-8 -51.5t-27 -16q-12 0 -30 6q-41 14 -86 14q-103 0 -187 -63q-48 -55 -70.5 -84.5t-40.5 -73t-18 -100.5q59 83 172 135q-32 -49 -42 -108.5t-12.5 -157.5t-6.5 -131q-31 -98 -135 -277q31 0 55.5 11t54 32.5 t45.5 30.5q37 -112 103 -131q27 -8 59 -8q41 0 71.5 9.5t90 33t92.5 30.5q0 -27 -11 -60t-11 -42q0 -13 6 -25q45 52 127 72t162 41t126 74z" />
<glyph unicode="d" horiz-adv-x="2134" d="M2075 1092q4 -29 4 -78q0 -87 -27.5 -151.5t-82.5 -113.5t-146 -96q18 -14 65 -14q25 0 35 -6q-27 -78 -89 -132t-146 -73q-8 -17 -24 -72t-34 -88t-51 -57q-55 -55 -156 -55q-106 0 -211 49q-10 -5 -14 -18t-5 -34.5t-6 -32.5t-20 -11q-12 0 -22 4q-13 5 -26 21 t-24.5 33t-23 27.5t-22.5 10.5q-15 0 -35 -21q-42 -39 -94 -53t-117 -14q-22 0 -68 2t-69 2q-104 0 -164 -33l-8 100l-258 -122q7 69 14.5 116t27.5 95t58 79q-56 72 -86.5 122t-44.5 102q34 -7 91 -39.5t87 -42.5q-49 67 -79.5 142t-49 153.5t-42 218t-26.5 153.5 q28 -6 77 -47t71 -47q-60 144 -85.5 224t-25.5 178q-1 32 -14 71.5t-19 61.5q21 0 40.5 -10t43.5 -28t37 -24q-19 201 -59 328q46 -12 90 -12q49 0 110 14t122 29t110 16q-7 -25 -23.5 -48t-38 -53t-30.5 -57q47 10 107 48t123.5 78t111.5 52l164 -141q15 15 27 57.5t24 63 t43 20.5q29 -34 82.5 -76t80 -68t50.5 -73q19 29 31 68.5t18 80t12 85.5q63 -46 110.5 -82.5t92 -82t74 -98.5t35.5 -118q19 27 31 64.5t20.5 85.5t19.5 87q12 -71 68 -200.5t78 -188t22 -137.5q0 -106 -71 -201q-14 -22 -32.5 -52t-29 -58.5t-10.5 -54.5q37 28 102 85 t99 87zM1493 1055q0 114 -21.5 178.5t-76.5 105t-166 74.5q-20 11 -62 46.5t-71 45.5q-9 -18 -9 -37q0 -6 2 -18t3.5 -24.5t1.5 -18.5q0 -27 -13 -41q-26 16 -53.5 49t-53.5 67t-52 52q8 -33 8 -72q0 -57 -16 -112t-48 -132.5t-39 -99.5q13 4 27.5 16.5t28 25.5t30 22.5 t33.5 9.5q-18 -46 -26.5 -122t-16.5 -139.5t-31 -111.5q10 0 25.5 10.5t26.5 10.5q7 0 16 -6l-70 -281q37 15 63 42.5t60 71.5t58 66q0 -33 -0.5 -56t-1.5 -52q0 -65 14 -101q20 21 41 63t35 62.5t45 34.5q2 -4 17.5 -40.5t27.5 -59t26 -35.5q13 26 39 41.5t69 32t60 26.5 q-59 62 -59 176q0 16 5 82.5t5 108.5q0 130 -71 196q46 -4 68.5 -17t52 -51t69.5 -89z" />
<glyph unicode="e" horiz-adv-x="1690" d="M1632 1915q0 -34 -11 -58.5t-36.5 -61t-36 -57t-10.5 -50.5q0 -18 23.5 -76.5t23.5 -106.5q-15 9 -41.5 30.5t-46.5 32.5t-43 11q-9 0 -23 -29.5t-36 -29.5q-11 52 -39 77q-28 -34 -65.5 -49t-102 -27t-88.5 -20l35 66q-34 -2 -112.5 -2.5t-155 -1.5t-83.5 -4 q40 -19 82.5 -51.5t42.5 -63.5q0 -44 -26.5 -72.5t-77.5 -60t-78 -62t-27 -80.5q21 -20 45 -20q16 0 30 6t35 18.5t38 20.5q8 -13 8 -33q0 -27 -27 -88q48 4 80.5 18t85.5 39.5t84 34.5q-2 -9 -10 -39t-8 -43q0 -14 4 -16q20 9 120.5 52.5t174.5 71t104 28.5q-4 -12 -18 -35 t-14 -35q0 -5 4 -19l159 52q-67 -141 -67 -242q0 -73 31 -123l-144 82q-55 -88 -198 -131q29 58 31.5 65.5t2.5 36.5q-39 0 -81 -16t-64 -16q-33 0 -92 18t-90 18q-28 0 -54 -20t-26 -47q0 -15 7.5 -26.5t23 -26t24.5 -24.5t12 -25q-53 -19 -94 -59t-41 -91q0 -24 14 -53 t35 -29q36 0 99 51q10 -7 10 -24q0 -13 -6 -44t-6 -40q0 -19 12 -19q47 24 110.5 42t149 40.5t127.5 40.5l4 -112q29 14 70.5 29.5t84.5 32t76 32.5q-2 -23 -2 -60q0 -64 16.5 -122.5t16.5 -104.5q0 -17 -9.5 -33t-21 -29t-28.5 -35.5t-23 -37.5q-47 30 -65.5 40.5 t-40.5 10.5t-37 -41q-79 57 -203 57q-84 0 -153 -28l-7 82q-33 -39 -80 -62.5t-82.5 -32t-111 -20.5t-117.5 -23q3 27 26 70t23 88q-36 -37 -80 -52t-103 -19.5t-114.5 -7t-99.5 -17.5q12 58 12 119q0 120 -51 192q72 0 101 -14q-24 67 -40.5 143t-27.5 133t-31.5 129 t-52.5 140v8q20 -8 59.5 -28.5t66 -30t54.5 -9.5q-10 57 -26 127t-23.5 115t-7.5 100q0 16 -16.5 62.5t-36.5 94.5t-37 89q22 -10 43 -31t45 -49.5t47 -44.5q4 90 4 127q0 113 -24.5 207t-86.5 182q34 -7 57.5 -21.5t69.5 -49t72 -46.5q37 125 74 181q14 -15 20.5 -61.5 t11 -63t33.5 -23.5q43 55 90 69t159 33t161 50q0 -31 -6.5 -50t-19.5 -45t-19 -44q44 3 120 30.5t115 32.5v-74q37 55 85.5 76t115.5 21q14 0 30 -1l56 -3.5t55 -2.5q73 0 121 21z" />
<glyph unicode="f" horiz-adv-x="1612" d="M1565 1468q-28 17 -83 34.5t-80.5 27.5t-51.5 35q-27 -6 -57.5 -28t-55.5 -38.5t-53 -19.5l20 88q-135 -11 -264 -121l-14 123q-28 0 -57.5 -30.5t-48.5 -70.5t-19 -65q0 -65 22 -140t74 -75q109 0 215 102q4 -16 4 -26q0 -23 -10.5 -81.5t-13.5 -58.5q28 18 69.5 66.5 t73.5 62.5q4 -12 11 -51t20 -59q51 58 120.5 101t141.5 59q-15 -40 -15 -84q0 -55 26 -164t26 -142q0 -29 -14 -71.5t-38 -79t-51 -49.5q-19 34 -36 66.5t-39 59t-50 42.5q-10 -17 -13.5 -38.5t-8 -41.5t-17.5 -33q-107 49 -180.5 74.5t-150.5 25.5q-84 0 -161.5 -44.5 t-124 -118t-46.5 -156.5q0 -45 39.5 -116t85.5 -71q22 0 40 11.5t28 23t36 43.5q37 -38 37 -104q0 -23 -10 -41t-33 -51.5t-34 -57.5t-11 -49q0 -38 29 -69q-46 0 -81 20.5t-60.5 51.5t-54 77.5t-46.5 69.5q-19 -54 -78 -118.5t-110 -86.5q-77 98 -148 98q-19 0 -37 -13.5 t-36 -27.5t-37 -14q23 105 31 149.5t8 102.5q0 102 -41 172q22 0 56.5 -11.5t59.5 -11.5q-41 89 -63.5 149.5t-30.5 127.5q52 -56 94 -74q-23 88 -29.5 159t-14 213t-22 237t-50.5 182q29 -20 61 -56.5t61 -70.5q23 31 23 94q0 91 -20 130.5t-76 128.5t-56 142q0 40 29 90 q36 -53 91.5 -67.5t160.5 -14.5q65 0 112 -11.5t78 -47.5q17 11 21.5 39t10.5 52t26 32q20 -20 25 -53.5t10.5 -67.5t25.5 -53q25 63 70.5 85.5t102 25.5t124 9.5t105.5 35.5q20 -11 20 -37q0 -14 -7 -46.5t-7 -33.5h12q19 0 34.5 6.5t41.5 22.5t38 22.5t29 9.5 q42 8 124.5 11t129.5 14q-2 -28 -11.5 -53t-24 -57t-21 -54t-6.5 -45q0 -34 20 -68t40 -68.5t20 -68.5q0 -7 -4 -29z" />
<glyph unicode="g" horiz-adv-x="1962" d="M1894 313q-8 -8 -18.5 -32.5t-17 -35t-23.5 -16.5v78q0 71 -47 96q-55 0 -75 -32t-32 -93.5t-26 -87.5q-21 -45 -82 -45q-31 0 -57 13q-72 36 -117 108q-34 -30 -83.5 -72t-95 -65t-94.5 -23q-34 0 -73 15q-19 20 -45 20q-7 0 -28 -2t-38 -2q0 -33 -16 -33 q-74 31 -156.5 65.5t-138.5 68.5q-8 -15 -8 -29q1 -8 2 -16.5t2 -16.5t1.5 -15t0.5 -22q-21 12 -38.5 27.5t-38.5 37t-48.5 47t-46.5 36.5q-73 30 -114.5 79.5t-62.5 106.5t-42 147t-35 132q14 0 46 -6.5t52 -6.5q56 0 76 45q-10 51 -53.5 88t-93.5 77.5t-64 86.5 q-10 29 -10 66q0 33 16 109t16 130q26 0 51.5 -15t48 -34.5t52.5 -44.5q6 6 6 15q0 13 -20 62.5t-31.5 86.5t-11.5 76q0 58 32 102q70 57 126.5 104t93 101t40.5 125q25 -14 35.5 -35t28 -70.5t35.5 -68.5q29 47 66.5 66.5t102 41t102 45t61.5 72.5q11 -11 13.5 -25.5 t2.5 -37.5t2.5 -38t13.5 -28q37 25 80 36t96 11q30 0 87 -4t83 -4q116 0 185 53q0 -24 -16.5 -58.5t-18.5 -47.5q33 -8 74 -8q69 0 118 32q5 -13 5 -24q0 -24 -13.5 -45t-34.5 -44t-36 -43.5t-15 -39.5t15 -35q51 -56 51 -127q0 -36 -17 -72q-10 11 -39 46.5t-53 58 t-71 55.5q-2 -16 -4.5 -31.5t-6 -34t-8.5 -45.5q-103 105 -213 105q-59 0 -101 -16t-65 -60l-53 -158q-18 22 -18 58q0 22 13.5 74t14.5 71q-50 -31 -78.5 -79t-54.5 -130.5t-35 -105.5q-21 37 -38.5 105.5t-32.5 101.5q-50 -80 -50 -185q0 -143 78 -295 q-19 -42 -35.5 -79.5t-28 -75.5t-11.5 -76q0 -47 22 -90l68 117q18 -62 38.5 -113t54.5 -92t87 -62l8 129q45 -33 93 -51t95 -18q53 0 95 26q51 48 76.5 81.5t25.5 76.5q0 32 -22.5 60.5t-55.5 37.5q-23 9 -55 9q-29 0 -80 -11.5t-78 -13.5q8 37 55.5 95t59.5 89 q-76 77 -145 185q16 8 45 8q35 0 79 -12q155 53 259 53q126 0 213 -72q52 0 124 14q0 -30 12 -62.5t13 -37.5l-35 -227q-6 -15 -34.5 -63t-43 -80.5t-14.5 -73.5q26 9 63.5 39.5t57.5 40.5q24 -52 24 -113q0 -31 -8 -93t-8 -95q0 -47 14 -93z" />
<glyph unicode="h" horiz-adv-x="2021" d="M1962 1151q-18 -68 -38 -164t-37.5 -174t-37.5 -137l76 49q6 -18 6 -33q0 -27 -24.5 -78t-24.5 -86h45q-20 -40 -20 -98q0 -38 12 -111t12 -108q0 -41 -10 -70q-24 3 -60.5 39.5t-66.5 36.5q-12 0 -29 -6q-19 -10 -41.5 -36.5t-39 -44.5t-37.5 -19q-32 63 -91 86 q-43 -10 -80 -42.5t-85 -88.5h-21q0 39 10 71t32 78.5t28 63.5q-8 16 -68 16q8 32 36.5 94.5t44 103.5t15.5 87l-112 -119q-4 20 -4 26q0 18 8 47t8 44q0 20 -8 36l-45 -26q2 13 26.5 85.5t24.5 117.5q0 26 -4 40q-6 9 -18.5 35.5t-23 41t-28.5 22.5q-105 0 -182 -80 l-82 -141q-28 16 -33.5 38.5t-11.5 73t-20 70.5q-51 -48 -82.5 -112t-32.5 -128q0 -57 30 -152t35 -116q-27 5 -53 24t-60.5 52t-51.5 45q3 -46 21 -81.5t60.5 -96.5t64 -106t21.5 -93q0 -13 -4 -37q-52 61 -93 99.5t-87 43.5q-14 -18 -18 -43t-9 -56.5t-16 -49.5 q-66 80 -153 80q-13 0 -37 -4l-113 -66q8 30 8 53q0 30 -14 48q-24 24 -55 24q-20 0 -35 -12l-60 -53q-18 36 -18 88q0 35 17.5 114.5t17.5 116.5q0 85 -72 141q25 5 31 9.5t17 7t67 6.5q-26 31 -42.5 66t-27 68.5t-23 88.5t-20.5 80q36 -23 110.5 -83.5t121.5 -88.5 q4 12 4 37q0 84 -84 168q-55 45 -85 85.5t-40 96.5q14 128 14 170q0 62 -12 98q19 0 48 -10t44 -10q-41 58 -41 170q0 31 4 94t4 96q-1 34 -14 65t-33 68q33 0 67.5 -13.5t75.5 -38.5t64 -38q21 22 48.5 74.5t45 78.5t51.5 44l-2 -197q34 25 70.5 30.5t103.5 10t108 17 t69 47.5q14 -27 14 -64q0 -29 -8 -69q-66 -116 -66 -189q0 -31 8 -55l80 -98q-84 -106 -84 -217q0 -37 8 -68l168 125q0 -66 6 -78q0 24 13.5 65t29.5 54q21 -21 21 -68q0 -10 -2 -35t-2 -36q0 -35 8 -48l82 152q15 -11 56.5 -58.5t74 -73.5t70.5 -26q8 0 24 4 q0 24 -25.5 71.5t-29.5 62.5q-12 61 -12 190q0 61 -8.5 106.5t-34.5 81.5q23 0 67.5 -32.5t57.5 -32.5q16 0 16 72q0 70 -23.5 111.5t-76.5 105.5q46 30 108 30q47 0 143 -25.5t136 -25.5q81 0 141 68q0 -19 -5.5 -52.5t-6.5 -39.5q8 -9 20 -9q11 0 35 12t31 15 q-56 -70 -56 -160q0 -51 24 -159t24 -162q0 -23 -5 -53q-9 -29 -37.5 -104.5t-37.5 -113.5q39 7 98 66z" />
<glyph unicode="i" horiz-adv-x="903" d="M823 1946q0 -56 -13 -100.5t-38 -93t-36 -77.5t-11 -67q0 -70 84 -121q-28 -31 -58 -65.5t-47.5 -70.5t-17.5 -75q3 -51 43 -51q30 0 62 20q22 -67 22 -153q0 -104 -28 -170.5t-85 -130.5t-80 -95t-24 -86q27 5 46.5 24.5t42 43.5t44.5 31q14 -33 14 -62 q0 -43 -29.5 -89.5t-59 -92t-29.5 -88.5q32 0 72 15t57 16q0 -41 18.5 -118t18.5 -122q0 -23 -7 -55l-217 57l-6 -68q-44 31 -104 46.5t-119 15.5q-77 0 -148 -25q-1 27 -16 47.5t-44 43.5t-42 36q59 63 87.5 98.5t47.5 84t19 114.5q0 44 -26.5 91.5t-53.5 94.5t-27 91 q26 -8 47.5 -23t51 -37t49.5 -30q0 58 -19.5 104.5t-56.5 108t-54.5 104.5t-17.5 107q0 47 20.5 135t20.5 139l94 -66q-16 54 -28.5 185t-26.5 202.5t-59 128.5q22 -1 45 -13t57.5 -38.5t40.5 -29.5q18 11 32 41t25.5 53.5t32.5 34.5q19 -13 35 -54t27 -55q31 38 75 57 t88 25t108 11.5t101 15.5z" />
<glyph unicode="j" horiz-adv-x="1655" d="M1602 1313l-46 41q-4 -4 -4 -15q0 -9 15.5 -41t15.5 -45q0 -11 -8 -16q-34 32 -60.5 50t-54.5 18q-14 0 -28 -7q-27 -26 -27 -65q0 -30 20.5 -87.5t22.5 -68.5q50 -73 77 -160.5t27 -175.5q0 -150 -77 -266q-20 16 -26 64.5t-15 64.5q-28 -61 -51 -113.5t-38.5 -106 t-15.5 -110.5q-19 0 -46 24t-44 24q-7 0 -18 -7q-14 -12 -19 -28.5t-8 -40t-8 -39.5q-15 0 -60.5 17.5t-68.5 17.5q-35 0 -56 -41v-74q-123 10 -151 10q-132 0 -213 -41q-37 27 -62 75.5t-47 94.5q-31 -18 -45 -48.5t-20.5 -72.5t-13.5 -82q-38 5 -88.5 26.5t-103.5 43 t-101 27.5q43 63 43 143q0 44 -21.5 146.5t-21.5 156.5q112 -44 295 -190q6 12 6 20q0 14 -8.5 36t-8.5 36q0 8 4 20q49 0 92.5 -11.5t104.5 -34.5t92 -33q54 134 66 235q24 -28 68.5 -103t76.5 -108q31 39 31 86q0 35 -15.5 75t-40 88.5t-38 85t-13.5 73.5q0 12 4 32 q27 83 27 177q0 89 -27 153q15 -7 34.5 -21.5t38.5 -32t32 -26.5q4 34 4 45q0 48 -10 89.5t-33.5 118.5t-30.5 120q6 6 15 6q5 0 11 -3.5t16 -10.5t12 -8q-14 104 -42 237.5t-57 196.5q32 -19 96 -40.5t88 -31t60 -39.5l94 96q27 -33 27 -90q0 -28 -3.5 -61t-4.5 -51 q67 40 150 66t210 59q-16 -49 -16 -107q0 -35 10.5 -89t20 -94t17 -76.5t7.5 -80.5q0 -55 -16 -102z" />
<glyph unicode="k" horiz-adv-x="1933" d="M1896 143q-44 10 -122.5 79.5t-113.5 94.5t-97 25l184 -246q-29 -16 -55 -16q-33 0 -61.5 18t-69 56.5t-69 60t-50.5 21.5q-6 0 -21 -5q-31 -14 -60 -46t-53 -57t-53 -34q-18 71 -28 156t-21.5 184.5t-33 181t-64.5 148.5q-12 -32 -16.5 -73.5t-10.5 -85t-18 -68.5 q-13 69 -41 134t-77 161t-75 163q-28 -57 -28 -135q0 -40 5.5 -77t15.5 -86t16 -76q-28 6 -63 49.5t-60 50.5q-8 -42 -8 -59q0 -53 18.5 -96.5t60.5 -117t61 -117.5t19 -95q0 -58 -33 -117q-27 12 -38 28.5t-30 52t-34 50.5q-22 -17 -77.5 -70.5t-86.5 -73.5 q-12 15 -28.5 43.5t-28 44t-29.5 25.5q-14 -27 -28.5 -54.5t-33 -46t-48.5 -18.5q-27 1 -79 9t-77 8t-49 -6q14 75 14 145q0 113 -43 182q21 -1 64 -22t65 -21q17 0 33 8q-102 156 -102 406q0 118 20 258q19 -19 40.5 -39t45.5 -31.5t53 -11.5q11 22 11 33q0 20 -13.5 37.5 t-43 44.5t-41 38.5t-17.5 32.5q-36 48 -52 102t-19.5 108.5t-3.5 132t-5 128.5q22 0 41 -8.5t43.5 -24.5t38.5 -20q-18 60 -35 117t-28 112t-11 111q22 0 45 -18.5t43 -42.5t40 -45t32 -21q24 0 37 74q15 -8 25 -29t17.5 -37.5t18 -29.5t29.5 -17q78 131 166 152 q14 -4 49 -4q40 0 55 -23q7 6 23.5 19t29 17.5t31.5 6.5q-7 -45 -25 -85t-44.5 -85t-45.5 -84q18 0 53 15.5t54 17.5q-26 -81 -55 -170.5t-60 -166.5t-65 -140q44 36 52 43t30 31t108 114q14 -18 19 -50.5t10 -61t22 -45.5q19 81 49 141t99.5 178t104 193.5t46.5 158.5 q13 -9 33 -43t41 -41l74 123q18 -28 18 -96q0 -42 -10 -125q55 61 96.5 94.5t81.5 46t104.5 15t133.5 4.5q-12 -94 -64 -155t-159 -129t-143 -94.5t-52 -76.5q40 0 111.5 25t93.5 26q-35 -33 -92.5 -117t-95.5 -130t-85 -66q83 -48 125 -80.5t52 -85.5q17 -42 35.5 -80 t43.5 -88t43 -94q-16 -8 -38 -8q-12 0 -45 4t-56 4q66 -60 113 -134t105 -191.5t91 -176.5t86 -123z" />
<glyph unicode="l" horiz-adv-x="1755" d="M1710 604q-5 -14 -30 -101.5t-49 -135.5t-70 -86q64 -58 99 -96.5t44 -86.5q-78 52 -189 78.5t-206 26.5q-39 0 -54 -2q0 -26 21.5 -70t21.5 -68q-91 0 -174.5 19.5t-156.5 65.5t-125 118q-4 -8 -4 -26q0 -23 8 -61t12 -38q-28 3 -77 33.5t-70 38.5q-9 -12 -9 -27 q0 -6 2 -17t3.5 -23.5t1.5 -22.5q-53 53 -131 53q-38 0 -64 -10q-68 -44 -119 -67t-106 -23q-51 0 -92 22q20 37 36 66t27 58t12 52q-1 33 -10.5 60.5t-25 63t-25.5 65.5q9 6 20 6q9 0 25 -4t25 -4q15 0 26 14q-41 63 -68 124.5t-57 150.5q25 -12 72 -53t74 -59.5t65 -21.5 q-67 88 -87 172.5t-49 268t-67 268.5q8 -7 23.5 -24t27.5 -27.5t27 -13.5q0 42 -2.5 73t-7.5 65t-8 60q13 -5 23 -8.5t22 -10t20 -14.5q0 36 -33.5 100t-39.5 85q-13 38 -13 104q0 18 2 50t3.5 63t1.5 47q0 51 -11 88q15 -16 35 -36.5t42.5 -41.5t33.5 -29l33 123 q21 -5 32 -23t21 -50t16.5 -43t20.5 -11q17 0 39 17q57 37 143 37q35 0 86.5 -4.5t79.5 -4.5q82 0 141 29q37 22 58 33.5t47 15.5q-18 -59 -95 -153t-104 -133.5t-27 -108.5l131 94q-20 -56 -20 -143q1 -30 1.5 -56t0.5 -67q0 -106 -35 -172q-19 -37 -75.5 -92.5 t-77.5 -79.5t-31 -68q58 10 121.5 56t109.5 104q-23 -179 -104 -342q11 -8 20 -8t32 10t40 10q-23 -45 -49.5 -97t-42.5 -91t-25 -86q32 11 62 29t64.5 43.5t64.5 48.5q-4 -15 -32 -70t-30 -92q51 29 150.5 44.5t171.5 29t127 57.5q-1 -16 -14 -35.5t-29.5 -45.5t-20.5 -42 q90 36 200.5 61t172.5 25z" />
<glyph unicode="m" horiz-adv-x="2705" d="M2652 133q-16 5 -58 26t-68.5 30.5t-55.5 9.5q-33 -45 -33 -60q0 -13 8 -24v-4q-21 0 -48 18t-42 18q-14 -14 -14 -34q0 -5 1.5 -15.5l3 -21t1.5 -15.5q0 -22 -12 -34q-118 42 -187 120q-21 -15 -33 -49.5t-23 -69.5t-32 -48q-39 74 -39 151q0 71 27 134t82.5 154.5 t82.5 151t30 123.5q-39 -68 -90.5 -137.5t-110.5 -126.5q0 85 14.5 195t18.5 110l-68 -30q51 195 51 305q0 117 -49 166l-74 -207q-21 12 -64 52t-54 56q26 -62 26 -116q0 -62 -23.5 -117.5t-69 -135t-69.5 -142t-24 -132.5q22 0 50.5 29.5t66.5 78.5t53 62q8 -29 8 -63 q0 -52 -18.5 -93t-57 -105.5t-57.5 -107t-19 -88.5q0 -17 7 -47q-39 0 -75.5 25t-71.5 66t-60 71q-63 -55 -121 -168q-17 19 -37.5 35t-40.5 16q-18 0 -33 -14q-7 -3 -42 -24.5t-54 -24.5q35 81 59 137.5t41.5 116.5t18.5 123q-20 -3 -40.5 -19t-47.5 -44.5t-39 -39.5 q-4 26 -4 39q0 24 4.5 52t11.5 64.5t11 70t4 71.5v78q0 47 -23 74l-55 -119q-8 178 -54.5 312t-173.5 196q0 -64 14 -115.5t41.5 -131.5t34.5 -118q-31 17 -56 30.5t-48.5 23.5t-48.5 14q5 -34 41 -142t39 -169l-117 119q-18 -19 -18 -52q0 -22 11.5 -66t12.5 -57 q86 -138 86 -305q0 -56 -12 -112q-20 26 -81.5 95.5t-100.5 113.5q-19 -54 -36 -88.5t-38 -53.5q-15 16 -30.5 72t-49.5 72q-17 -72 -36.5 -114t-65.5 -67q-17 -9 -61 -14.5t-64.5 -10t-38.5 -22.5q-8 8 -8 27q0 16 9 51.5t20 76t18.5 75.5t7.5 77q0 96 -55 156q17 0 31 -7 t26.5 -17t27.5 -19.5t29 -9.5q13 0 21 4q-37 133 -37 272q0 170 51 320v135q0 85 -14 133q17 -1 30.5 -10t31.5 -23.5t24 -17.5q12 33 12 39q0 8 -15.5 63.5t-37.5 161.5q16 0 38 -11t33 -11q0 183 -16 303q38 -4 76 -27t70.5 -57t62.5 -70l70 221q32 -20 50 -58t38 -84 t45 -67q20 45 50 72t64.5 43.5t88 37t81.5 36.5q4 -42 23 -82.5t52.5 -94.5t51 -95t17.5 -91q0 -9 -4 -39q-12 11 -53 62t-76 65q-15 0 -22.5 -15.5t-8.5 -16.5q3 -58 32 -99.5t88.5 -96t93.5 -95.5t44 -94q19 46 45 97.5t43 90.5q15 -22 18 -39t8.5 -58t14.5 -61 q53 70 53 185q0 95 -41 239q8 4 25 4q18 0 52 -14t50 -14q7 0 19 4q-65 178 -72 282q50 -22 157 -42.5t149 -31t96.5 -45.5t86.5 -104h7q18 54 52 110t75 91q40 -72 51 -148q20 5 54 38.5t75.5 75.5t68.5 58q5 -20 5 -61q0 -72 -21.5 -169.5l-43 -195t-21.5 -168.5 q0 -84 34 -139q29 9 39.5 29.5t18.5 59.5t18 53q17 -61 17 -134q0 -60 -12.5 -165t-12.5 -160q0 -44 6 -86q94 105 113 205q6 -7 6 -37q0 -41 -10 -118.5t-21 -150t-24 -165.5t-13 -138q12 -29 36 -77.5t36 -81t12 -68.5q0 -13 -4 -37z" />
<glyph unicode="n" horiz-adv-x="1978" d="M1901 1894q-3 -84 -19.5 -169.5t-48.5 -163.5t-78 -142q13 0 26 6.5t33.5 19.5t32.5 18t23 5q-8 -49 -20 -128t-26.5 -139t-41.5 -116q12 -10 53 -25t55 -34q-7 -16 -29.5 -20t-42.5 -9t-28 -24q96 -85 96 -248q0 -66 -18 -152q-22 13 -40 41t-36.5 56.5t-40.5 42.5 q45 -167 45 -273q0 -56 -12 -106q5 -34 18 -68t31 -71.5t35 -71.5q-23 -17 -57 -25t-66 -16q-5 10 -17 55t-29.5 69t-51.5 25q-24 -21 -35 -42.5t-28.5 -62.5t-33.5 -65q-10 34 -15.5 59.5t-12.5 50t-21 48.5q-24 -20 -58 -72.5t-63 -81.5t-73 -38q4 26 31.5 118.5 t27.5 143.5q0 59 -29 110q-37 -117 -141 -200q11 38 24 85t20 87t7 73q0 72 -33 121q-23 0 -46 -22t-27 -25q-14 22 -35 77.5t-29 75t-28 44.5q-30 67 -76.5 137.5t-102 132.5t-108.5 109v-109q0 -105 -25 -170q12 -4 17 -4q12 0 18.5 5t22.5 21t25 21.5t22 5.5 q-21 -56 -25.5 -130t-9 -146.5t-25.5 -128.5q6 -13 13 -13q2 0 13 7.5t17 7.5q1 0 11 -4q-27 -55 -27 -154v-59q0 -114 -37 -178q-12 40 -21 74t-34 55q-11 -3 -17 -10t-14.5 -28t-14 -29.5t-16.5 -8.5q-2 0 -14 4q-87 70 -164 106q-1 -22 -6.5 -63.5t-5.5 -46.5 q-9 1 -62.5 13.5t-83.5 12.5q-39 0 -63 -16q-2 70 -4.5 119t-9 98t-23.5 98.5t-43 87.5q15 0 34 -3t38.5 -8.5t32.5 -8.5q-10 42 -14.5 102t-7 136t-5.5 114q-8 6 -8 47q26 -9 47.5 -35t45 -58t46.5 -46q10 38 10 70q0 61 -24 122.5t-68 135.5q-6 46 -12.5 135t-16 148 t-30.5 116q28 -5 71 -36.5t68 -37.5q-5 29 -24 58.5t-47 70t-36 62.5q-49 87 -49 176q0 71 33 133q31 -17 64.5 -77.5t60.5 -80.5q6 19 9.5 66t5.5 72.5t14 56.5q24 -12 38 -33.5t33 -62.5t31 -58l21 -18q33 65 93.5 87t167 26t148.5 12q-2 -14 -2 -45q0 -35 6 -111t6 -114 q0 -89 -26 -148q27 0 56.5 44t47.5 52q8 -19 8 -43q0 -21 -7 -58t-7 -50q0 -24 8 -43q8 3 34.5 29t47.5 26q18 -75 36 -149.5t52 -131t103 -88.5q-9 35 -9 111q0 33 4 100.5t5 98.5q-9 45 -9 67q10 0 19.5 -3.5t24.5 -14t22 -14.5q0 45 -13 74t-46 94t-39 102q-8 58 -8 88 q0 89 34 147q33 -19 71.5 -72.5t59.5 -66.5q13 13 18 38.5t10.5 41t23.5 16.5q10 -11 14.5 -22t13.5 -31t19.5 -31t25.5 -14q9 12 13.5 28.5t8 27.5t17.5 22l60 -98q24 38 63 59.5t109 39.5t80 21z" />
<glyph unicode="o" horiz-adv-x="2083" d="M2044 995q-6 -84 -33.5 -158t-77 -136t-123.5 -113q28 0 75.5 13.5t64.5 14.5q-17 -40 -49 -66.5t-87 -57t-77 -46.5q2 -9 23.5 -20.5t21.5 -19.5q0 -9 -21 -23q-76 -34 -184 -94q14 -14 45 -19.5t52.5 -11.5t27.5 -25q-48 -11 -136.5 -49.5t-136 -55.5t-106.5 -17 q-64 0 -127 28q-20 10 -77 43.5t-91 53.5q-20 -11 -20 -31q0 -5 9 -34.5t9 -53.5q-76 18 -153.5 89.5t-122.5 149.5q-15 -19 -15 -69q0 -34 8 -82q-106 33 -185.5 135.5t-100.5 216.5q-7 -27 -15 -53t-13 -53t-5 -52q-57 44 -78.5 98.5t-41 153t-43.5 158t-83 102.5 q22 0 72 -29t61 -34q-5 28 -43.5 117t-38.5 151q1 72 47 211t46 236q12 -17 40 -70.5t44 -81t43 -53.5q-5 20 -5 37q0 68 40.5 138.5t125 184.5t119.5 180q16 -17 21 -60t16 -60l129 135l16 -68q76 50 162.5 68.5t224.5 32.5q7 -27 7 -37q0 -14 -12.5 -27.5t-16.5 -36.5 q45 -29 84 -44t94 -15q27 53 90 53q17 0 33 -0.5t37 -1.5l-41 -94q12 -4 18 -4q12 0 35 8t37 8q6 0 18 -4q14 -38 32 -74.5t43.5 -78t51.5 -80.5l47 86q53 -95 87 -207.5t34 -218.5q0 -129 -53 -232q28 0 65 23.5t56 25.5zM1610 1120q-9 15 -21 15q-7 0 -20 -4.5t-19 -4.5 q-16 0 -24 19q-3 145 -45 237q-10 -4 -17 -17.5t-18 -38.5t-17 -34.5t-16 -9.5q-6 0 -18 12q-17 47 -52.5 80t-84 57t-96.5 49t-81 58q1 -16 1.5 -30t0.5 -35q0 -28 -12 -48q-18 4 -30.5 11t-35 24t-35.5 26t-32 13q-10 -59 -88.5 -152.5t-108.5 -137t-30 -126.5 q25 12 50.5 33.5t61.5 52.5q6 7 13 7q14 0 20 -25q-53 -95 -53 -236q0 -86 22 -163q13 -20 39.5 -62t54 -75.5t58 -56t65.5 -30.5q2 33 2 93q0 65 17 110q79 -106 148.5 -165.5t162.5 -59.5q50 17 78.5 33.5t42.5 52.5q-5 11 -29 16t-26 23q145 74 172 211q0 43 -21 43 q-7 0 -26 -4t-29 -4q-9 0 -18 6q8 24 35 76t41 86t18 75z" />
<glyph unicode="p" horiz-adv-x="1956" d="M1927 1243q-1 -91 -40 -166.5t-101.5 -133.5t-154.5 -118t-142 -92q14 24 14 51t-20 95q-30 20 -62 20q-42 0 -82.5 -27.5t-103.5 -88t-90.5 -83t-57.5 -22.5q12 39 34 84.5t33 72.5t15 60l-190 -195q-27 4 -53.5 17t-60 29.5t-58.5 21.5q47 -89 47 -186q0 -119 -72 -187 q37 28 94.5 56t94.5 38q-1 -42 -27 -123t-26 -124q-5 -17 -5 -47q0 -26 6 -54.5t16 -61t17 -56.5q-80 52 -134 84t-66.5 41.5t-77.5 76.5t-82 84q-12 -120 -12 -219q-28 3 -92.5 27t-95.5 33.5t-64 9.5q-78 0 -123 -78q-39 34 -39 96q0 16 4.5 44.5t11 57.5t10 51.5 t3.5 45.5q11 -8 32 -27.5t36.5 -30.5t33.5 -16q-14 37 -18 80t-7.5 160.5t-11 198t-24.5 132.5l32 -2q0 36 -26 101t-31 98q-6 52 -6 100q1 28 1.5 51t0.5 60q0 82 -19 148q30 -25 87 -93.5t96 -95.5q14 20 14 47q0 22 -7 56t-7 42q-40 47 -69 105t-44.5 122t-15.5 124 q0 86 28 155q22 -27 150 -198q12 23 18 39.5t15.5 47t19.5 58.5q18 -14 25.5 -46.5t15 -54.5t31.5 -30q12 20 35 62t41 67t45 46t59 28q41 8 93.5 14.5t85 14t63.5 20.5q0 -16 -6 -34t-14 -33.5t-16.5 -35t-8.5 -34.5q0 -14 8 -27q101 59 135 72q11 -8 15 -29t7 -28.5 t17 -8.5q12 14 34 47.5t40.5 51t46.5 24.5q15 -24 29.5 -72.5t27 -74.5t41.5 -43q49 92 84 123l72 -107q17 20 23.5 47t16 65.5t21.5 57.5q17 -7 58.5 -62t78.5 -117t67 -118t38 -84l37 164q84 -142 84 -264q0 -57 -21 -113q-10 -16 -79 -110t-99 -150q31 16 74 49t78 64 t71 63zM1321 1194q22 34 22 68q0 35 -20 63.5t-58.5 69.5t-50.5 63q-3 101 -28 101q-22 0 -74.5 -84.5t-60.5 -92.5q-15 10 -24 30.5t-16.5 53.5t-15.5 56q-28 -30 -77.5 -68.5t-82 -67t-54 -66t-21.5 -85.5q0 -9 4 -37q1 -1 17.5 -29t35.5 -30l60 125q20 -5 24.5 -24t9 -47 t17.5 -40q45 117 55 117q7 0 15.5 -44t21 -71t41.5 -27q14 0 31 9q38 4 66 27.5t61 65.5t53 58q13 -18 29.5 -53.5t19.5 -40.5z" />
<glyph unicode="q" horiz-adv-x="2030" d="M1985 938q-12 -38 -61 -145t-64 -154q-27 -49 -76 -88.5t-103 -63.5q26 -24 40.5 -42.5t15.5 -41.5q-35 9 -138 9q93 -128 304 -205q-42 -25 -132 -39.5t-138 -32t-81 -74.5q-21 5 -34.5 23t-31 43.5t-36.5 36.5q-6 -9 -6 -25q0 -27 33.5 -96t33.5 -70 q-90 24 -166.5 98.5t-127.5 172.5q-17 -4 -21.5 -16.5t-9.5 -43.5q-20 0 -31 9.5t-37 39t-41 37.5q-4 -24 -4 -34q0 -28 18.5 -80t22.5 -66q-54 0 -156.5 36.5t-193.5 83t-119 75.5q-4 -22 -4 -27q0 -26 17 -71.5t18 -65.5q-55 20 -97.5 56.5t-79 82.5t-83 105t-86.5 94 q-103 75 -133 110l102 19q-43 46 -67.5 98.5t-37.5 113.5t-22 153t-10 104q6 18 24 25.5t34 14t20 23.5q-9 35 -9 80q0 53 11.5 96.5t41.5 129t44 142t14 118.5q16 -4 24 -15.5t18 -30.5t18 -27.5t24 -8.5q22 58 102 132.5t109 110.5t29 103q0 22 -7 49q22 -6 31.5 -26 t21.5 -62.5t26 -69t40 -37.5q16 -4 25 -4q45 0 88 53q19 -29 41.5 -58.5t45 -49t46.5 -19.5q40 0 72 70q6 15 6 29q0 21 -10.5 54.5t-10.5 53.5q58 -25 123 -48.5t126.5 -47t115 -52.5t100.5 -71l13 127q60 -52 112 -120t84.5 -145.5t42.5 -156.5q17 16 34.5 53t26 51 t29.5 23q3 -41 18.5 -136t23 -148t7.5 -111q0 -177 -100 -277q32 -4 31 -4q5 0 17 9t31 21.5t69 37.5zM1483 1333q-20 -20 -52 -67t-55 -66q-3 66 -28.5 126.5t-66.5 123.5t-81 123q0 -29 10.5 -80.5t10.5 -79.5q0 -27 -9 -45q-29 18 -75.5 53.5t-89.5 69t-80 57.5 q-9 -21 -9 -51q1 -13 2 -28.5t1 -24.5q0 -54 -27 -74q-17 16 -25.5 28.5t-21 38t-23.5 50.5t-18 35q-4 -70 -37 -134.5t-89 -148.5t-85 -145t-29 -127q0 -54 17 -97q5 10 13 32t15.5 33.5t24.5 14.5q44 -61 72 -116t52 -114.5t47 -114.5t48 -101q6 24 10 42t8 29 q12 0 42.5 -25.5t55.5 -40.5t56 -15q30 0 57 16q0 78 -38 128t-109 103q14 7 22 7q17 0 47 -16.5t52 -16.5q-11 50 -31 82q16 4 20 4q27 0 46.5 -16.5t52.5 -50t53 -42.5q10 38 25.5 108.5t35.5 124t50 91.5q34 -94 65 -287q88 80 88 232q0 50 -12 154t-12 153q0 45 4 65z " />
<glyph unicode="r" horiz-adv-x="1960" d="M1937 100q-51 0 -84.5 6t-54 15t-76.5 37l15 -95q-79 7 -152 50.5t-123 109.5q-12 -20 -18.5 -44t-13.5 -57.5t-13 -55.5q-70 57 -143 57q-26 0 -53 -6q1 5 17.5 53t26 88.5t9.5 89.5q-20 0 -37.5 -13t-48 -40.5t-39.5 -32.5q76 121 76 264q0 54 -15.5 108t-50 94.5 t-86.5 57.5q-6 -28 -8.5 -70.5t-6.5 -72t-16 -59.5l-182 186q1 -19 2 -36.5t2 -31t1.5 -23t0.5 -30.5q-24 8 -53 30.5t-50 37.5t-48 16q86 -179 92 -352l-62 47q4 -39 14.5 -75.5t28 -89.5t26.5 -89.5t9 -79.5q-140 35 -272 144q0 -35 14.5 -91t14.5 -90q-17 27 -42.5 54.5 t-58 67.5t-50.5 74.5t-19 68.5q-111 -149 -203 -216q-10 22 -10 48q0 29 9 63.5t18.5 60.5t27.5 68t33 78q-16 29 -52 77.5t-51.5 84t-15.5 88.5l72 -19q0 191 -8 346t-35 244q25 -4 39.5 -18t40.5 -46t47 -42q0 33 -28 151t-44.5 212.5t-16.5 209.5q0 149 -32 236 q67 -21 100.5 -65t101.5 -154q7 12 12.5 45.5t13.5 52t26 22.5q14 -44 53 -90q28 25 67 59.5t75.5 54t80.5 19.5q-1 -21 -21 -57t-20 -70q56 77 132.5 105t204 45.5t185.5 38.5q0 -29 -13 -51.5t-40 -55t-37 -53.5q51 0 112.5 19.5t122 52t93.5 61.5q21 -29 57 -116t58 -131 t49 -62q20 59 33 166q33 -42 69.5 -88t62 -82.5t44 -83t18.5 -96.5q0 -58 -27.5 -115.5t-68.5 -103.5t-96 -87q24 0 85 11.5t93 11.5q-67 -101 -134.5 -162.5t-154.5 -64.5q39 -43 91 -145.5t80.5 -147.5t86.5 -84q-51 -6 -160 -6q44 -51 101 -149t100.5 -169t99.5 -123z M1286 1346q0 60 -31.5 105.5t-84 70t-113.5 24.5q1 -13 15.5 -61.5t14.5 -75.5q0 -17 -6 -35q-30 13 -64.5 60.5t-55.5 67.5t-60 20q-60 0 -118 -42.5t-58 -97.5q0 -38 27.5 -58.5t66.5 -20.5q38 0 68 16q8 -19 8 -43q0 -27 -10.5 -51.5t-28 -51t-31 -52t-18.5 -50.5 q30 -6 61 -6q96 0 156.5 58.5t69.5 160.5q69 -39 102 -121q42 31 66 80t24 103z" />
<glyph unicode="s" horiz-adv-x="1987" d="M1970 766q-20 -4 -28 -4q-20 0 -73 15.5t-87 15.5q18 -31 61.5 -94.5t65 -113.5t22.5 -106q-25 0 -55 30t-49 30q-2 -33 -2 -105q0 -66 -9.5 -114t-37.5 -82q-7 2 -66.5 28t-100.5 39.5t-79 13.5q-70 0 -107 -61q-12 -21 -12 -37q0 -29 25.5 -43.5t69.5 -31t46 -29.5 q-109 -54 -239 -54q-93 0 -186 27t-179 74q-54 -43 -139 -43q-32 0 -90 12q-37 11 -87.5 49.5t-74.5 50.5q0 -26 1.5 -56t3.5 -58.5t3 -42.5q-123 87 -368 102q15 49 22.5 98t7.5 99q0 128 -55 211q18 -10 58.5 -33.5t71.5 -39t61 -21.5q0 12 -10.5 42.5t-10.5 55.5 q77 -24 147 -43t127 -35t119 -39.5t121 -56.5q0 24 -25.5 75t-25.5 80q45 -11 120.5 -72.5t110 -84.5t95.5 -23q80 6 137 30t78 81q0 47 -27.5 87.5t-69.5 61.5q-52 27 -114 35t-155 11t-151.5 13.5t-111.5 43.5q15 23 36 30.5t60 15.5t59 19q-58 18 -175.5 35t-181.5 31 t-131 48.5t-116 100.5l142 17q-37 33 -81 72.5t-77.5 83t-46.5 87.5q-10 42 -10 72q0 72 30 134.5t89 160t75 149.5q0 -39 5 -104.5t14 -77.5q45 59 106 110t124 86.5t144 67.5l15 -71q56 52 128.5 69.5t152.5 20.5t184 9t168 34q0 -34 -20 -67.5t-40 -63.5q19 2 55 2 q47 0 122 -6.5t114 -6.5q85 0 152 25q0 -44 -26.5 -98.5t-51.5 -104.5l131 58q-5 -26 -35.5 -80.5t-38.5 -81.5q-11 -134 -27 -197q-50 22 -79 37t-68 39t-81 51.5t-85 52.5q-4 -8 -4 -65q-12 5 -75 30.5t-106 38.5t-83 13q-81 0 -135 -60l-107 -155q-15 17 -22.5 45 t-16.5 68.5t-18 56.5q-50 -6 -80 -90q-10 -28 -10 -49q0 -64 55 -121q88 -88 164 -88q47 0 127.5 39.5t101.5 46.5l-49 -113q15 1 51.5 5t65 7t57 4.5t47.5 1.5q140 0 197 -65q-15 -8 -50 -20t-53 -27q86 -22 145.5 -39.5t116.5 -43t108 -66t89 -101.5z" />
<glyph unicode="t" horiz-adv-x="1966" d="M1939 1671q-11 -24 -43 -32t-61.5 -16t-34.5 -30q43 -41 57 -57t15 -49q-26 -10 -66 -10q-33 0 -74.5 9.5t-92 26.5t-88 27t-72.5 10q-53 -2 -88.5 -31t-59.5 -100q-8 -48 -8 -86q0 -47 12 -71q83 85 133 112q-41 -102 -63 -219t-29 -254q-4 -25 -14 -48.5t-32.5 -68.5 t-26.5 -57q19 0 52 21.5t54 21.5q-35 -184 -121 -457q20 0 49 22t41 25q-14 -65 -14 -221q0 -45 -2 -65q-108 40 -168 72.5t-111 95.5q-20 -19 -20 -199q-37 10 -60.5 38.5t-48.5 80t-34 63.5q-27 -13 -43.5 -34t-37.5 -57.5t-36 -55.5q-29 51 -29 112q0 55 32 168t34 170 q-76 194 -105 256q15 13 33 13t34 -12.5t35 -34.5t33.5 -36t34.5 -22q0 31 -20.5 91.5t-20.5 90.5q0 47 29 80q0 15 4 37t4 29q0 10 -6 16q-18 -14 -54 -62t-61 -61q0 26 6 43t19 41.5t16 32.5q24 67 29 119.5t11.5 163t19.5 176.5q-36 -23 -60.5 -62.5t-52 -83t-61.5 -67.5 q0 42 10 108t10 91q0 82 -72 110q-24 4 -37 4q-41 0 -73.5 -16t-85.5 -51l-4 65q-39 -8 -67.5 -27.5t-65.5 -56.5t-60 -53q-16 40 -46 130t-50 132q15 -3 20 -3.5t13.5 -5t25 -14t70.5 -42.5q12 12 12 28q0 26 -37 103t-37 116q19 -4 70 -25.5t71.5 -29.5t53.5 -12 q4 16 4 20q0 18 -8.5 51t-11.5 33q4 -1 76 -16.5t117 -30t81 -35.5q6 9 6 23t-8.5 45.5t-9.5 38.5q72 -14 142 -28t127 -34.5t108 -58.5q12 21 26.5 47.5t22.5 40.5t24 35l47 -98q127 120 367 120q0 -20 -10 -38t-27 -37t-24 -29q37 -10 92 -10q65 0 192.5 27.5t169.5 31.5 q-45 -84 -82 -137.5t-92 -95.5q31 -6 101 -6q51 0 81 -15z" />
<glyph unicode="u" horiz-adv-x="1939" d="M1898 913q-63 -97 -74 -208.5t-18 -201.5t-56 -183t-185 -199q1 6 18 83t28 135t11 89q0 25 -8 25q-7 -51 -35 -85.5t-86.5 -87.5t-85.5 -92.5t-27 -97.5q-131 5 -299 90q0 -25 4 -39t15 -47t12 -51q-39 20 -72.5 41t-99 66t-100.5 65q0 -26 8 -80t8 -90 q-38 31 -109.5 81t-109.5 80t-79.5 72t-72.5 95q-8 -25 -8 -56q0 -34 16.5 -90.5t20.5 -83.5q-54 26 -96.5 96t-82.5 172t-85.5 220.5t-85.5 183.5q29 -7 73 -41t68 -69q-51 107 -72 202.5t-31.5 235t-19.5 213.5q23 -6 44.5 -37t35.5 -41q0 50 -11 106.5t-31 128t-27 104.5 t-7 77q0 38 11 84q17 -14 36.5 -61t31 -67t36.5 -20q15 0 35 10q26 43 26 101q0 22 -0.5 33t-1.5 28.5t-2 46t-2 58.5q17 -20 27 -47.5t23 -67t26 -63.5q36 65 102.5 123t146.5 93t155 35q0 -72 -27.5 -139t-81 -155t-76 -133.5t-22.5 -96.5q0 -23 6 -47q24 19 74.5 77 t89.5 81q-37 -67 -48.5 -141.5t-17.5 -186.5t-22.5 -188t-63.5 -144l105 80q0 -23 -13.5 -92.5t-13.5 -116.5q25 8 61 43t60 45q-11 -35 -22 -72t-18 -69.5t-7 -65.5q0 -81 51 -127q65 -98 223 -98q19 0 40 1t63 6t67 8q34 3 64.5 28t46.5 60q6 15 6 24q0 21 -15 31 t-49.5 23.5t-44.5 23.5q13 13 57 29.5t67.5 31t23.5 45.5q0 17 -4 27q-31 39 -92 39q-38 0 -68 -6q20 98 20 182q0 127 -45 234q6 -3 24 -13t29 -15t25 -5q-14 39 -28 109.5t-29.5 148t-28.5 117.5q11 0 26.5 -12.5t31.5 -12.5q-21 206 -54 336q36 -22 69 -65t81 -113 q4 30 5.5 49t4.5 46t5.5 44.5t10.5 44.5q24 -15 42.5 -59.5t35.5 -61.5q22 19 40 43.5t43 60.5t44.5 56.5t50.5 36.5q24 -37 33.5 -80.5t21 -126t19.5 -115.5q21 53 72 143.5t84 129.5q6 -55 6 -111q0 -154 -45 -304t-127 -284q-14 -84 -14 -114q37 64 74 105t100 118 q0 -94 -33 -265t-76 -251q16 7 67.5 55.5t77.5 56.5z" />
<glyph unicode="v" horiz-adv-x="2007" d="M1942 1929q-16 -71 -37 -162t-46.5 -159t-70.5 -129t-117 -103q-43 -60 -57 -78t-23 -35.5t-24 -48.5q12 10 89 86t113 93q-7 -77 -37.5 -148.5t-71 -136t-106 -164t-90.5 -149.5q36 41 38 43t38.5 24t95.5 64q-20 -61 -28.5 -104t-22 -132t-27 -159.5t-30.5 -120.5 l-74 -127q-19 27 -36.5 76.5t-26.5 70.5q-15 -105 -15 -194q0 -101 19 -193q-36 15 -59.5 42.5t-52.5 73t-48 68.5q-16 -16 -47 -56.5t-53 -64.5t-48 -38q-6 21 -6 41q0 16 7.5 58t7.5 60q-63 -46 -109.5 -83.5t-81.5 -82.5q-76 39 -168 39q-47 0 -69 -4q2 51 27 102.5 t71 75.5q-55 55 -113.5 119t-109.5 129l168 -47q-9 26 -26.5 54.5t-50 74t-40.5 58.5q-41 68 -59.5 128t-50.5 190.5t-64 209.5t-88 143q50 -11 121.5 -64t107.5 -69q-9 59 -42.5 107t-99.5 121t-98.5 125.5t-39.5 117.5q-7 77 -39 141.5t-97 167.5q40 -36 111.5 -53.5 t126.5 -27.5t104 -35t78 -80q15 14 29 54t27 56q29 -19 52.5 -78t41.5 -77q37 88 141 192q0 -46 -6.5 -84.5t-16.5 -80t-20 -90t-10 -87.5q0 -37 8 -69q26 38 45.5 68t34.5 53t33.5 57t33.5 71q7 -28 7 -81q0 -94 -21 -181t-63 -116q2 -37 7 -113t15 -127q21 19 32 44 t23.5 71t22.5 69q20 -61 20 -149q0 -59 -9 -156t-9 -131q0 -149 78 -242q7 27 17.5 76.5t19 97t14.5 74.5q29 59 43 133.5t14 159.5q0 118 -30 207q14 -8 32.5 -28.5t34.5 -28.5q0 40 6 114t11.5 148t5.5 114q0 86 -19 158q25 -13 41.5 -29.5t34 -38t41.5 -49.5 q22 23 33.5 45t17 44.5t8.5 46t9 57.5q33 -33 62 -57t71 -58.5t71.5 -66.5t51.5 -70q34 38 78 72t111 79t102 72z" />
<glyph unicode="w" horiz-adv-x="2585" d="M2552 1894q-14 -174 -85.5 -354t-185.5 -354q13 0 86.5 50.5t79.5 53.5q-31 -112 -57 -205.5t-54 -179t-68.5 -172t-92.5 -162.5q-8 -24 -8 -45q0 -17 8 -39q23 0 43.5 26.5t38.5 31.5q-3 -38 -13.5 -116.5t-16 -138t-5.5 -110.5q0 -39 2 -59q-76 21 -144 49t-131 67.5 t-114 90.5q0 -44 10 -70.5t43.5 -98.5t42.5 -116q-20 -2 -65 -2q-216 0 -291 131q-34 45 -52 108.5t-37 137t-48 119.5q29 -15 74.5 -71t78.5 -71q0 78 -28.5 128.5t-93.5 141t-80 146.5l-125 -332l-66 82q0 -54 -0.5 -80t-1.5 -66.5t-2.5 -85t-1.5 -81.5q0 -94 10 -158 q-137 49 -232 103t-149 143q1 -37 12.5 -64.5t40 -82.5t37.5 -89q-123 54 -178 54q-61 0 -172 -60q-35 139 -60 223t-65 162q22 -16 61 -48t60 -64q2 14 2 43q0 84 -38.5 181.5t-94.5 178.5q18 0 35 -8t41.5 -23t42.5 -20q-9 32 -38 110t-43 133.5t-15 114.5q-7 50 -24 97 t-38 88.5t-55 103.5l172 -68q-86 102 -131 165.5t-72 126t-49 152t-47 191.5q24 -8 53.5 -27.5t72.5 -52.5t64 -47q0 32 -0.5 47t-1.5 35t-2.5 44.5t-1.5 47.5q24 -21 41 -49t42.5 -80t37.5 -71q19 28 39.5 59t45.5 51.5t60 28.5q158 0 232 8q-5 -54 -26.5 -90.5t-72.5 -112 t-63 -118.5q38 22 64 37.5t54.5 30t55.5 22.5q-1 -40 -13 -78t-35 -98t-33.5 -98t-10.5 -76l67 51q5 -95 14 -175t20.5 -172.5t17.5 -165t6 -155.5q23 41 26.5 127t10 151.5t43.5 104.5q17 -12 20 -32t6.5 -40.5t20.5 -33.5q61 84 61 213q0 40 -5.5 85.5t-18.5 130.5 t-17 122t-4 85q17 -7 31 -23t32 -35.5t33 -27.5l13 252q24 -17 43 -72t45 -77q17 42 24.5 117t10.5 90l75 -109q17 31 33.5 52t41.5 42.5t53.5 40.5t80.5 52q4 -17 4 -52q0 -56 -12.5 -117.5t-45 -187.5t-42 -169t-12.5 -101q33 26 60.5 64.5t66.5 107t59 96.5 q-20 -118 -30.5 -199.5t-10.5 -162.5q0 -53 6 -109q5 -43 26.5 -76.5t61.5 -46.5q23 0 55.5 19.5t37.5 21.5q15 -16 30 -60t27 -64.5t41 -20.5q45 5 45 82q0 28 -7 81.5t-9 67.5q-5 57 -35.5 203.5t-30.5 224.5q0 27 2 41q17 -20 36.5 -51.5t34.5 -52t36 -33.5q-7 46 -7 102 q0 37 9.5 173t9.5 214q21 -26 36.5 -60t33 -82.5t34.5 -78.5q19 47 52 80.5t63.5 51.5t90 51t87.5 55q0 -40 -21.5 -108.5t-21.5 -102.5z" />
<glyph unicode="x" horiz-adv-x="1876" d="M1817 1948q-10 -66 -39.5 -105.5t-117.5 -138.5t-112 -154q22 0 85 33t85 33q-4 -54 -32 -99t-83.5 -100.5t-95.5 -95t-65 -76.5q21 0 42 7.5t41 20t38.5 22t35.5 10.5q-14 -22 -49 -92.5t-68.5 -112t-86.5 -64.5q15 -30 35 -96t38 -98q21 19 49.5 74t49.5 71 q0 -61 24 -136t48 -149t24 -133q0 -39 -12 -86q28 52 106 142q23 -149 23 -412q-27 1 -62.5 31.5t-58.5 34.5q0 -36 14 -65t42 -73.5t36 -70.5q-34 5 -106 8.5t-126.5 17t-91.5 46.5t-51 100q-34 -64 -41 -148q-41 51 -55 117t-14 149q0 31 2 92t2 91q0 99 -19 162 q-22 -28 -29.5 -51.5t-23 -83t-29.5 -87.5q-22 42 -33.5 71.5t-19 55.5t-17.5 66l-22 88q-32 -30 -44 -64t-22 -88t-22 -88q-16 11 -38 45.5t-27 40.5q-27 -35 -27 -106q0 -14 1 -30t3.5 -52t3.5 -60q0 -40 -8 -69q-5 -20 -11 -63t-14 -73.5t-24 -54.5q-31 23 -89 93 t-93 124q-14 -32 -29 -95t-21.5 -88t-23.5 -60q-27 9 -40 30t-30.5 65t-32.5 62q-25 -22 -44.5 -55t-42.5 -72t-46 -63q-26 45 -26 98q0 34 7.5 60.5t27.5 78t30.5 88t10.5 70.5q0 31 -13 72q23 -6 36 -26t27.5 -44t32.5 -32q5 71 13 131.5t25 179.5t22 170l78 -119 q23 36 42.5 74.5t44.5 90.5t34 69q-95 12 -152.5 68.5t-118.5 179.5t-94.5 180t-99.5 102q98 -25 174 -25q-74 55 -138.5 128.5t-106 156.5t-54.5 172q154 -143 317 -231l6 245q36 -45 76.5 -83t92.5 -81.5t108 -91.5q13 23 18.5 71t14.5 69q15 -85 72.5 -192.5t111.5 -210 t69 -193.5q81 189 93 315q16 -2 29.5 -30t21.5 -35q37 75 37 202q0 34 -0.5 52t-1.5 43.5t-2.5 57t-1.5 56.5q11 -11 28.5 -39.5t27 -40t28.5 -18.5q11 12 18 39.5t14 36.5l60 -92q90 141 309 141q64 0 113 -8z" />
<glyph unicode="y" horiz-adv-x="1681" d="M1640 1942q-14 -95 -50.5 -184t-102 -205.5t-96 -179t-54.5 -146.5q21 1 47 28.5t54.5 58t50.5 36.5q-75 -363 -297 -611q-16 -59 -16 -75q0 -21 6 -39l125 133q0 -266 -107 -418q17 0 56 12t51 15q-44 -135 -47 -258q-96 78 -189 121.5t-205 43.5q-11 -8 -14.5 -20.5 t-3.5 -34.5l110 -133q-55 23 -118 23q-47 0 -127 -12.5t-123 -12.5q-60 0 -107 16q36 0 85 32t67 75q10 37 10 65q0 41 -14 78.5t-34.5 69.5t-53 78t-41.5 61l147 -41q-2 63 -16 119.5t-35.5 105t-47 95t-67.5 112.5q20 15 56 15q8 0 27.5 -2t41.5 -3.5t41 -1.5 q-79 58 -130.5 126.5t-79 125t-80 178t-83.5 177.5q15 0 41 -11.5t35 -11.5q6 0 17 6q-29 42 -94 116t-97 130.5t-35 128.5q15 -1 59 -37.5t86 -68t68 -35.5q6 18 6 37q0 14 -4 44t-4 46q0 26 6 39q27 -21 50.5 -48t56.5 -74t49 -69q20 52 57.5 78.5t104.5 53.5t90 40 q12 -73 12 -151q0 -188 -71 -336v-43q0 -73 32 -94q31 108 57 173.5t68 118.5q8 -39 8.5 -91.5t3 -107.5t16.5 -102t46 -90q19 18 33.5 57t24 83t15 81t13.5 89q13 -6 26 -26t21 -26q18 16 32 80.5t22 150.5t8 134q0 35 -2 45l90 -70q12 33 17.5 99.5t6.5 70.5q20 -7 39 -24 t43.5 -40.5t44.5 -35.5q77 -43 117 -102q20 18 55 64.5t50.5 66t43.5 39.5z" />
<glyph unicode="z" horiz-adv-x="1833" d="M1788 465q-39 -54 -39 -131q0 -36 12.5 -106.5t12.5 -110.5q0 -82 -52 -140q-20 111 -96 142q-90 0 -168.5 -18.5t-163.5 -53.5l47 129q-102 -71 -231.5 -107.5t-288.5 -54.5q8 19 35.5 45.5t41 46.5t13.5 52q-14 30 -49 30q-27 0 -57 -15.5t-61 -38t-37 -25.5 q-15 12 -24 27t-18 38.5t-20 42.5t-27 31q-20 -12 -30 -42t-19 -58.5t-26 -38.5q-125 63 -199 63q-40 0 -79.5 -24t-59.5 -29q34 84 47 115t28 76t25 96.5t10 101.5q16 -8 41.5 -37.5t40 -41t35.5 -11.5q0 79 20.5 144.5t64.5 171t58 165.5q31 -39 54.5 -142t36.5 -136 q35 49 49 104.5t30 154t36 157t65 104.5q-29 0 -77.5 -16.5t-78.5 -16.5q15 54 71 97.5t116 88t81 99.5q-19 25 -45 34.5t-68 10.5t-63 2q23 51 23 73q0 33 -35 41q-94 0 -158.5 -20.5t-148.5 -60.5q-17 0 -23 9t-14 35.5t-18.5 40.5t-34.5 15q-32 -4 -46 -23.5t-24.5 -56 t-19.5 -53.5q-27 64 -39.5 125t-30 174t-35.5 180q156 -57 254 -119q4 16 4 23q0 21 -9 58.5t-13 37.5q49 -17 121 -55t110 -56q0 40 -9 90.5t-9 63.5q28 -15 74 -53t73.5 -57t61.5 -29l36 71q23 -20 52.5 -70.5t40.5 -66.5q44 69 101 94t130 25q48 0 132.5 -9t113.5 -9 q97 0 166 40q-2 -23 -31.5 -67t-34.5 -55q20 0 43.5 9t35 14.5t33 14.5t38.5 9q-19 -65 -64 -118t-116.5 -119.5t-109.5 -112.5t-54 -105l239 109q-8 -32 -30 -65.5t-64.5 -90t-54.5 -76.5q-30 -50 -76 -93.5t-107.5 -94t-105 -98t-68.5 -105.5q46 7 78.5 25.5t95 59 t101.5 56.5q-1 -47 -26.5 -83.5t-81 -96t-77.5 -98.5q-151 -274 -206 -381l231 229q6 -15 6 -30q0 -20 -15.5 -63.5t-15.5 -59.5q31 0 87 22t83 25q105 10 213 82q0 -33 -18 -81t-18 -75q83 26 153 48.5t117 31.5z" />
<glyph unicode="&#xa2;" horiz-adv-x="1454" d="M1405 1552q-65 -82 -98 -264q-124 113 -213 170q-10 -9 -11.5 -26t-3 -36.5t-8.5 -29.5q-106 27 -168 27q-57 0 -100 -17q-77 -28 -116.5 -95.5t-51.5 -156.5q12 -4 16 -4q11 0 33 12.5t43 12.5q-29 -93 -29 -152q0 -69 37 -106q8 9 19.5 40.5t21.5 37.5 q23 -53 62.5 -102t83.5 -83q34 8 59 26.5t63.5 56t63 55t57.5 24.5l-4 -115q48 0 97 35t102 88q-7 -37 -9 -104.5t-9 -115t-33 -81.5q-12 3 -37 12.5t-45.5 15t-34.5 5.5q-28 0 -47 -12q-18 -31 -55 -41t-73.5 -18.5t-53.5 -39.5q0 -31 7 -62.5t21.5 -83.5t16.5 -67 q-20 0 -38 8t-42 24t-40 24t-34 8q-12 0 -29 -6q-40 -26 -64 -39t-59 -19l-6 99l-69 4q12 20 42 50t47.5 50t22.5 47q-50 29 -151 29q-35 0 -56.5 -0.5t-48.5 -1.5q-32 0 -49 2q2 20 23.5 46.5t25.5 41.5q-172 0 -245 127q-24 84 -54.5 191.5t-42.5 148.5q13 6 25 6t26 -5.5 t29 -13.5t35 -18v70q0 72 11 121.5t50 87.5q32 30 103 63t98 53q-17 18 -38 27t-38 12.5t-54 11t-54 13.5q40 29 98.5 43t128.5 14q93 0 164 -24q-31 63 -31 243v89q29 -14 52.5 -37.5t58.5 -67t47 -55.5q18 21 48.5 61.5t54 66t53.5 42.5l-2 -279q19 1 37 2t31.5 2 t21.5 1.5t22 0.5q29 0 45 -8q-8 -13 -16 -23.5t-13.5 -23t-5.5 -22.5q42 0 79.5 -9t63.5 -21t69.5 -33.5t64.5 -29.5z" />
<glyph unicode="&#xad;" d="M1430 1081q11 9 52 25.5t56 34.5q-12 22 -36 33.5t-52 25t-41 33.5q11 16 34 44.5t35 51.5t13 45q-31 0 -80 1.5l-98 3t-80 1.5q-63 0 -112 -19.5t-107.5 -55t-102.5 -54t-102 -18.5q8 20 29.5 48.5t38 53.5t22.5 45q-41 0 -90 -26.5t-97 -53t-89 -26.5q-66 0 -115 19.5 t-87.5 49.5t-96.5 84q-12 -13 -35 -41t-44 -44t-48 -17q26 -65 26 -147q0 -130 -61 -224l65 -6l-57 -215q27 -8 61 -8q36 0 77 9.5t82 18.5t77 9q-2 23 -17.5 60t-15.5 69q46 0 91 -29.5t90 -59.5t92 -30q26 0 61 14q-7 23 -31.5 45t-44.5 42.5t-24 46.5q64 -2 143 -58 t134.5 -82t187.5 -26q9 0 70 8t112 8q111 0 217 -35q-11 42 -17 122.5t-21 131t-64 92.5z" />
<glyph unicode="&#xdf;" horiz-adv-x="1843" />
<glyph unicode="&#x2000;" horiz-adv-x="1175" />
<glyph unicode="&#x2001;" horiz-adv-x="2351" />
<glyph unicode="&#x2002;" horiz-adv-x="1175" />
<glyph unicode="&#x2003;" horiz-adv-x="2351" />
<glyph unicode="&#x2004;" horiz-adv-x="783" />
<glyph unicode="&#x2005;" horiz-adv-x="587" />
<glyph unicode="&#x2006;" horiz-adv-x="391" />
<glyph unicode="&#x2007;" horiz-adv-x="391" />
<glyph unicode="&#x2008;" horiz-adv-x="293" />
<glyph unicode="&#x2009;" horiz-adv-x="470" />
<glyph unicode="&#x200a;" horiz-adv-x="130" />
<glyph unicode="&#x2010;" d="M1430 1081q11 9 52 25.5t56 34.5q-12 22 -36 33.5t-52 25t-41 33.5q11 16 34 44.5t35 51.5t13 45q-31 0 -80 1.5l-98 3t-80 1.5q-63 0 -112 -19.5t-107.5 -55t-102.5 -54t-102 -18.5q8 20 29.5 48.5t38 53.5t22.5 45q-41 0 -90 -26.5t-97 -53t-89 -26.5q-66 0 -115 19.5 t-87.5 49.5t-96.5 84q-12 -13 -35 -41t-44 -44t-48 -17q26 -65 26 -147q0 -130 -61 -224l65 -6l-57 -215q27 -8 61 -8q36 0 77 9.5t82 18.5t77 9q-2 23 -17.5 60t-15.5 69q46 0 91 -29.5t90 -59.5t92 -30q26 0 61 14q-7 23 -31.5 45t-44.5 42.5t-24 46.5q64 -2 143 -58 t134.5 -82t187.5 -26q9 0 70 8t112 8q111 0 217 -35q-11 42 -17 122.5t-21 131t-64 92.5z" />
<glyph unicode="&#x2011;" d="M1430 1081q11 9 52 25.5t56 34.5q-12 22 -36 33.5t-52 25t-41 33.5q11 16 34 44.5t35 51.5t13 45q-31 0 -80 1.5l-98 3t-80 1.5q-63 0 -112 -19.5t-107.5 -55t-102.5 -54t-102 -18.5q8 20 29.5 48.5t38 53.5t22.5 45q-41 0 -90 -26.5t-97 -53t-89 -26.5q-66 0 -115 19.5 t-87.5 49.5t-96.5 84q-12 -13 -35 -41t-44 -44t-48 -17q26 -65 26 -147q0 -130 -61 -224l65 -6l-57 -215q27 -8 61 -8q36 0 77 9.5t82 18.5t77 9q-2 23 -17.5 60t-15.5 69q46 0 91 -29.5t90 -59.5t92 -30q26 0 61 14q-7 23 -31.5 45t-44.5 42.5t-24 46.5q64 -2 143 -58 t134.5 -82t187.5 -26q9 0 70 8t112 8q111 0 217 -35q-11 42 -17 122.5t-21 131t-64 92.5z" />
<glyph unicode="&#x2012;" d="M1430 1081q11 9 52 25.5t56 34.5q-12 22 -36 33.5t-52 25t-41 33.5q11 16 34 44.5t35 51.5t13 45q-31 0 -80 1.5l-98 3t-80 1.5q-63 0 -112 -19.5t-107.5 -55t-102.5 -54t-102 -18.5q8 20 29.5 48.5t38 53.5t22.5 45q-41 0 -90 -26.5t-97 -53t-89 -26.5q-66 0 -115 19.5 t-87.5 49.5t-96.5 84q-12 -13 -35 -41t-44 -44t-48 -17q26 -65 26 -147q0 -130 -61 -224l65 -6l-57 -215q27 -8 61 -8q36 0 77 9.5t82 18.5t77 9q-2 23 -17.5 60t-15.5 69q46 0 91 -29.5t90 -59.5t92 -30q26 0 61 14q-7 23 -31.5 45t-44.5 42.5t-24 46.5q64 -2 143 -58 t134.5 -82t187.5 -26q9 0 70 8t112 8q111 0 217 -35q-11 42 -17 122.5t-21 131t-64 92.5z" />
<glyph unicode="&#x2013;" horiz-adv-x="1278" d="M1106 1081q8 9 38.5 25.5t41.5 34.5q-9 22 -27 33.5t-38.5 25t-30.5 33.5q8 16 25 44.5t26 51.5t10 45q-23 0 -59.5 1.5l-73 3t-59.5 1.5q-47 0 -83.5 -19.5t-80 -55t-76 -54t-76.5 -18.5q6 20 22 48.5t28.5 53.5t16.5 45q-30 0 -66.5 -26.5t-72 -53t-66.5 -26.5 q-49 0 -85.5 19.5t-65 49.5t-71.5 84q-9 -13 -26.5 -41t-33 -44t-35.5 -17q19 -65 19 -147q0 -130 -45 -224l48 -6l-42 -215q20 -8 45 -8q27 0 57.5 9.5t61 18.5t57.5 9q-2 23 -13.5 60t-11.5 69q35 0 68.5 -29.5t67 -59.5t68.5 -30q19 0 45 14q-5 23 -23.5 45t-33 42.5 t-17.5 46.5q47 -2 106 -58t100 -82t140 -26q6 0 51.5 8t83.5 8q83 0 162 -35q-9 42 -13.5 122.5t-15.5 131t-47 92.5z" />
<glyph unicode="&#x2014;" horiz-adv-x="2302" d="M2049 1081q17 9 78 25.5t83 34.5q-18 22 -53.5 33.5t-77.5 25t-61 33.5q16 16 50.5 44.5t52.5 51.5t19 45q-46 0 -119 1.5l-146 3t-119 1.5q-94 0 -167 -19.5t-160 -55t-152.5 -54t-151.5 -18.5q12 20 44 48.5t56.5 53.5t33.5 45q-61 0 -134 -26.5t-144.5 -53 t-132.5 -26.5q-98 0 -171 19.5t-130.5 49.5t-143.5 84q-18 -13 -52 -41t-65.5 -44t-71.5 -17q39 -65 39 -147q0 -130 -91 -224l97 -6l-85 -215q40 -8 91 -8q53 0 114 9.5t122 18.5t115 9q-3 23 -26 60t-23 69q68 0 135 -29.5t134 -59.5t137 -30q39 0 91 14q-10 23 -46.5 45 t-66.5 42.5t-36 46.5q95 -2 213 -58t200.5 -82t278.5 -26q14 0 104.5 8t166.5 8q165 0 323 -35q-16 42 -25 122.5t-31.5 131t-95.5 92.5z" />
<glyph unicode="&#x2018;" horiz-adv-x="770" d="M705 1509q-35 -7 -98.5 -17.5t-109.5 -23t-102 -36.5q-52 181 -123 288q24 0 49 -10t33 -10q13 0 19 4q-115 108 -193 285q12 4 17 4q15 0 43 -18.5t39 -20.5q-8 44 -43.5 90.5t-73 94.5t-49.5 97l4 7q33 -23 70 -52.5t83 -62.5q19 10 23.5 31t7.5 52.5t14 47.5l66 -111 l174 191q-12 -37 -12 -90q0 -50 20.5 -146t20.5 -151q0 -50 -11 -84q35 0 63.5 -41.5t44 -93.5t15.5 -84q-12 0 -30 8t-25 8q-11 0 -18 -12q3 -25 14.5 -45t34.5 -50t33 -49z" />
<glyph unicode="&#x2019;" horiz-adv-x="748" d="M743 2204q0 -49 -24 -78.5t-77 -79.5t-67 -86q22 0 39 2.5t33.5 6t36.5 7.5q-57 -145 -217 -274q8 -4 14 -4q8 0 29.5 9t34.5 9q11 0 20 -6q-93 -124 -153 -272q-65 42 -144.5 68.5t-158.5 27.5q4 19 22 39.5t32.5 35.5t25 32.5t10.5 31.5q0 7 -4 19l-52 -19q0 40 33 103 t35 96q44 0 60 14t16 41q0 16 -5.5 55.5t-5.5 47.5q0 38 19 57q35 83 35 176q0 41 -6 88q8 -10 48.5 -62t67.5 -84t58 -55l63 107l31 -133q17 0 37 10t38.5 25t38.5 28t37 17z" />
<glyph unicode="&#x201c;" horiz-adv-x="1282" d="M1165 1503q-26 -4 -76.5 -12.5t-76.5 -14t-75 -21t-83 -30.5q-46 173 -121 289q24 0 49 -10t33 -10q4 0 16 4q-117 112 -190 284q10 5 16 5q18 0 43.5 -17.5t38.5 -19.5q-9 46 -43.5 91t-72.5 93.5t-50 95.5l5 8q36 -27 83.5 -64t69.5 -52q18 10 22.5 27.5t8.5 53.5 t14 52l66 -113l174 191q-12 -37 -12 -90q0 -25 5 -61.5t15 -84.5t15 -78.5t5 -68.5q0 -43 -12 -88q28 0 51.5 -25t39 -61.5t24 -74.5t8.5 -59q-11 0 -28 8.5t-27 8.5q-12 0 -19 -12q4 -27 16 -46t35.5 -50.5t32.5 -47.5zM692 1534q-80 -1 -160 -27.5t-145 -68.5 q-26 68 -65.5 136.5t-88.5 133.5q13 6 23 6q9 0 34 -6t44 -6q-52 42 -92 82.5t-72.5 89.5t-52.5 102q13 -2 48 -10t58 -8q-14 37 -67 88.5t-77 81.5t-24 76q18 -4 39.5 -18t41 -28.5t37 -24t34.5 -9.5l33 133l63 -107q33 26 56 53t67 83.5t51 64.5q-6 -49 -6 -94 q0 -99 35 -170q18 -21 18 -57q0 -23 -5 -59.5t-5 -43.5q0 -28 15.5 -42.5t58.5 -14.5q3 -22 15.5 -50.5t24.5 -51.5t20.5 -46.5t8.5 -48.5l-51 17q-4 -7 -4 -21t10 -29t28 -33.5t33 -37.5t19 -35z" />
<glyph unicode="&#x201d;" horiz-adv-x="1403" d="M1311 2181q-13 -49 -50.5 -96.5t-72 -93.5t-43.5 -93q11 3 38 21t44 18q4 0 16 -4q-81 -183 -192 -284q6 -4 18 -4q7 0 32 9t50 9q-41 -62 -69.5 -132.5t-53.5 -154.5q-56 24 -106 37.5t-105 22.5t-98 16q10 19 35.5 53.5t34.5 51t12 40.5q-7 13 -19 13q-7 0 -23 -8.5 t-32 -8.5q0 32 16 84t44 92.5t63 40.5q-10 39 -10 86q0 54 20.5 149t20.5 148q0 46 -13 91l174 -191l66 111q10 -15 14 -53t8 -53t23 -25q16 10 48.5 34.5t60.5 46t45 33.5zM774 2200q0 -46 -23 -75t-77 -80.5t-68 -88.5q19 0 56 7.5t51 8.5q-57 -149 -217 -272q12 -4 16 -4 q11 0 32 8t31 8q12 0 21 -6q-99 -130 -154 -270q-155 94 -305 94q5 17 17.5 33t33 37.5t30 36.5t9.5 30q0 14 -4 21l-51 -19q0 40 33.5 102t36.5 97q42 0 57.5 14t15.5 41q0 21 -5 58.5t-5 46.5q0 39 19 57q34 72 34 170q0 44 -6 94q16 -18 73 -92t101 -109l64 107l33 -133 q29 0 78.5 36.5t72.5 41.5z" />
<glyph unicode="&#x202f;" horiz-adv-x="470" />
<glyph unicode="&#x205f;" horiz-adv-x="587" />
<glyph unicode="&#xe000;" horiz-adv-x="1980" d="M0 1980h1980v-1980h-1980v1980z" />
</font>
</defs>
</svg>
