<?xml version="1.0" standalone="no"?>
<!DOCTYPE svg PUBLIC "-//W3C//DTD SVG 1.1//EN" "http://www.w3.org/Graphics/SVG/1.1/DTD/svg11.dtd" >
<svg xmlns="http://www.w3.org/2000/svg">
<metadata></metadata>
<defs>
<font id="harabarahanditalic" horiz-adv-x="309" >
<font-face units-per-em="512" ascent="409" descent="-103" />
<missing-glyph horiz-adv-x="250" />
<glyph horiz-adv-x="512" />
<glyph horiz-adv-x="512" />
<glyph unicode="&#xd;" horiz-adv-x="512" />
<glyph unicode=" "  horiz-adv-x="250" />
<glyph unicode="&#x09;" horiz-adv-x="250" />
<glyph unicode="&#xa0;" horiz-adv-x="250" />
<glyph unicode="!" horiz-adv-x="208" d="M14 -14q-11 1 -13 21.5t8 29.5q1 3 0.5 6.5t7.5 4.5q23 0 20.5 -4.5t-3.5 -9.5q-6 -3 -9 -10.5t-3 -12.5q3 0 5 -2q3 4 6.5 4.5t3.5 8.5q-1 1 -3 4q4 1 8 4v9.5t6 8.5q-1 0 -5.5 4.5l-4.5 4.5q9 17 32 69t45.5 108t39.5 101.5t15 50.5h7h4q0 1 -3.5 1t-6.5 3q-5 4 3 10 q1 0 4 6t16 4.5t10 -14.5q-2 0 -3 -1q3 -10 -7 -16q1 -2 -19.5 -46.5t-46 -102t-48 -112.5t-25.5 -76q7 0 13 1t16 1q5 -11 2.5 -24t-11.5 -20q-12 -9 -29 -12t-32 -2zM52 37q2 2 2 5q-1 0 -1.5 -0.5l-0.5 -0.5v-3v-1zM112 193q3 0 2 2l-1 2q-2 0 -1 -4z" />
<glyph unicode="&#x22;" horiz-adv-x="158" d="M65 270q0 2 -0.5 4t-0.5 5q3 2 3.5 6t7.5 5q-1 2 -1 3q-3 -1 -4 1q0 2 1.5 4.5t1.5 5.5q2 0 2 -1l0.5 0.5t0.5 1.5h-1v0q0 3 3.5 10t7.5 7q0 2 -2 3q1 1 1 4h0.5h1.5q0 1 1 2t1 4h0.5h1.5v2v3h0.5h2.5v3v3l-1 0.5l-1 0.5q1 0 1.5 0.5t1.5 0.5q1 6 5 10v0h1v1.5v2.5h0.5 h0.5q2 6 5.5 11.5t4.5 11.5l0.5 0.5l0.5 0.5q0 1 0.5 2.5t0.5 2.5t1 1.5l1 0.5q0 3 1 6.5t2 6.5l1 0.5l1 0.5q0 6 1 11.5t1 11.5l0.5 0.5l0.5 0.5q-2 2 -2 16h-0.5h-0.5v0.5v1.5h0.5h0.5v0.5v2.5h0.5h0.5q0 1 -2 2q2 8 5 7.5t12 -1.5q3 -4 2.5 -7t1.5 -6h0.5h1.5q1 -4 4 -10 h-2.5h-0.5v-1v-2h0.5h2.5q-6 -20 -8 -33q-3 0 -5 -1q-3 -6 -5.5 -13.5t-1.5 -13.5h-1.5h-0.5q-2 -1 -2.5 -2.5l-0.5 -1.5l-0.5 -0.5l-0.5 -0.5q-4 -7 -4 -9h-1h-1l0.5 -0.5l0.5 -0.5q-3 -2 -3 -7q-1 -1 -2 -1v-5v-3q-2 5 -4 5q0 -6 -1 -10h-0.5h-0.5q-1 -2 -1 -8h-2.5h-0.5 q0 -2 0.5 -2.5l0.5 -0.5h-1v0v-4v-2q-2 0 -3.5 -0.5l-1.5 -0.5l0.5 -0.5l0.5 -0.5q-1 -3 -1 -5q-5 0 -5 -6t-5 -7v-1v0h1.5h1.5q0 -1 -1 -2h-3h-1q0 -8 -1 -11h-2.5h-0.5v-3v-1h-1.5h-0.5v-1.5v-1.5q-4 0 -4 -5h-1.5h-0.5q0 -1 -1 -1.5l-1 -0.5h-1.5h-0.5q0 -2 -1 -2v0.5 v1.5h-1h-1q0 -2 -1 -2zM9 277q-2 2 -5 2q-1 2 -4 11q1 2 2 2q-2 3 2.5 18t6.5 19v1.5v4.5q2 0 4.5 5t2.5 7l1 0.5l1 0.5v1.5v1.5q3 2 6 12q0 1 2 1q0 2 1 4.5t2 5.5h0.5h1.5q0 3 9.5 26t7.5 26l1 0.5l1 0.5q0 8 2.5 19t-0.5 19q-1 3 -1 8q5 0 5 2h2.5h3.5v0.5v2.5 q3 0 4.5 -1.5t4.5 -1.5q2 -4 3 -8.5t4 -7.5l-2 -2h1h1v-2.5v-0.5h-1h-1v-1.5v-0.5h0.5h1.5v-2.5v-0.5h-3.5h-1.5q2 -2 3 -2q-9 -17 -14.5 -40.5t-19.5 -36.5q0 -2 2 -2q-7 -10 -8 -18h-2h-2l-1.5 -4.5t-0.5 -3.5l0.5 -1l0.5 -1q-2 -3 -2 -5h-2.5h-1.5q-1 -3 -1.5 -3.5 t-0.5 -2.5q1 -2 2 -2q-4 -6 -5.5 -10t-1.5 -7q-2 0 -2 1q-1 -5 -2 -9t0 -7q0 -1 -0.5 -1h-0.5q0 -11 -1 -16q-4 0 -5 -1zM27 330l0.5 1t0.5 3q0 -2 1 -2h1v-1v-1h-2.5h-0.5zM49 366q1 2 4 4v-2v-1q-1 0 -2.5 -0.5zM63 391q0 3 1 4q0 -2 1 -4h-1.5h-0.5zM73 418q-3 3 -1 8 t3 8h0.5h2.5q-2 -3 -2.5 -8.5t-2.5 -7.5z" />
<glyph unicode="#" horiz-adv-x="344" d="M-5 -53q-3 8 -3.5 9.5l-0.5 1.5q1 0 3 -1q0 1 2 3q-1 3 -4 4q2 1 2 4q0 1 -1 1.5l-1 0.5q2 0 3 0.5l1 0.5q0 2 -0.5 2.5l-0.5 0.5h0.5h0.5q3 7 3.5 10.5t2.5 9.5q-1 0 -1.5 0.5l-0.5 0.5q0 3 2 4t3 3h0.5h1.5q0 2 3.5 8t3.5 8q-2 0 -2.5 -0.5l-0.5 -0.5v1.5v1.5l2 1t3 2 q0 3 -1 3q1 3 2.5 5t-0.5 6q3 0 4 -3q0 2 4 4h-2.5h-0.5q0 3 1.5 4.5t1.5 4.5h-0.5t-1.5 1q1 0 3 4h1h3v1v2l1 1l1 1q0 9 7 17.5t7 19.5q3 0 4 1q2 -1 3 0q0 6 -1 10q2 2 5 6h1.5h3.5q0 3 1 5q3 0 9 5.5t9 7.5v-1v-1l-0.5 -0.5l-0.5 -0.5v-2.5v-0.5q-3 -5 -11 -7 q-1 -2 -1 -4q-2 0 -2.5 -0.5l-0.5 -0.5v-2v-1q3 0 4 -1q0 -1 -0.5 -1.5l-0.5 -0.5q-2 0 -3 0.5l-1 0.5q-5 -6 -7 -10t2 -10q-1 0 -1.5 0.5l-0.5 0.5v0v2h-3h-1q0 -2 5 -7q-3 0 -9 -2l-6 -2q1 0 1 -2q-1 -1 -1.5 -2l-0.5 -1l0.5 -1l0.5 -1h0.5h2.5q0 1 0.5 2t0.5 2 q2 0 2.5 1.5t3.5 2.5v-2v-1q-1 0 -3 -1q-1 -5 -2 -5.5t-1 -5.5q-2 0 -4 -2q-1 0 -2 -1t-2 -1q0 -1 1 -1h1v-2v-2q-4 -3 -8.5 -11.5t-1.5 -11.5q-3 0 -3.5 -0.5l-0.5 -0.5v-1v-2v-0.5t1 -0.5h-2.5h-2.5q3 0 3 -5h-4h-1q-1 -2 0 -4q-6 -3 -6 -13h1h1v-1.5v-1.5q-1 0 -7 -3 q1 -3 2 -3q-2 -4 -2 -6h0.5t0.5 -1q3 6 10 6l-1.5 -1.5t-1.5 -2.5q-1 0 -2 -0.5l-1 -0.5q-3 -3 -4 -5t-1 -9v-0.5t1 -0.5q-2 -2 -5 -4q0 -1 0.5 -4.5t0.5 -6.5q3 0 4 -1l-0.5 -0.5t-0.5 -1.5q-3 -1 -3 -8q-4 0 -6 -0.5zM34 26q-2 9 1 14t8 13h0.5h2.5q-2 -6 -5 -9t-4 -8 q1 -5 -1 -10h-0.5h-1.5zM129 36q-1 2 -1 7h-1.5h-0.5q3 1 3 3q0 1 -2 1q0 5 2.5 10t2.5 11q3 2 8 15.5t6 18.5q3 6 8.5 9.5t3.5 12.5q0 1 1 1.5l1 0.5q0 4 1.5 10t7.5 6v2v2h1h4q0 5 1.5 7.5t2.5 6.5q-1 4 -1 6q6 2 8 10t8 12l-83 -8q-4 -5 -2 -10q3 1 4 2q2 -6 -5 -7 q-2 4 -4 5h-4h-3q0 2 -1 4q0 -3 -0.5 -4.5t-0.5 -2.5h-3h-1v1v1q2 1 2 5l6 3h1t1 1h-4h-1l-0.5 -0.5l-0.5 -0.5l-77 -6l-0.5 0.5t-0.5 2.5q-1 -2 -1 -3q-1 0 -2.5 -0.5l-1.5 -0.5l-0.5 1t-0.5 3h-6q-3 6 -3 9.5t3 9.5q1 1 2 1v1t1 1t2 0.5t3 0.5v1v1h1.5h1.5v-1.5v-0.5l91 5 q1 2 11 7q0 6 1 9l1.5 0.5t2.5 0.5v5v5q3 1 5 5.5t5 5.5q0 1 3.5 7.5l3.5 6.5q2 0 2.5 3.5t1.5 5.5t3 2q0 7 4 7q-1 4 1 5.5t4 5.5q-1 0 -1.5 0.5l-0.5 0.5q0 1 6 5v0.5v2.5h-1.5h-1.5q0 2 2 3.5t3 3.5q-3 3 -2 3q3 0 5 0.5t5 1.5q-3 3 -18.5 1t-20.5 -2q-2 -3 -9.5 -4.5 t-10.5 -1.5v-2.5v-0.5q-18 -1 -33.5 -5.5t-33.5 -1.5q-7 5 -6 9t-1 10q1 0 3 1t3 1l0.5 1t0.5 2q9 3 16 0q2 3 10 5t11 2q1 -2 1 -3l3.5 0.5t22.5 3.5q3 3 20 3t21 2q1 3 13 4t15 1q3 6 9.5 14.5t6.5 15.5h0.5h1.5q0 2 1 3t1 4q2 0 3 1v1v4h-1h-1l4 2v4v4q4 2 6 2q0 5 1 7 t4 2l-1 1t-1 2h-1.5h-0.5q-1 -4 -4 -4.5t-3 -5.5h-2.5h-0.5q-1 -1 -1 -2h-0.5h-0.5q-2 -2 -2 -5q-5 0 -9 -2t-9 0l-0.5 1t-0.5 2h0.5h1.5q-1 2 -3 2q0 4 -3 9q2 0 3 1t3 1v1.5v4.5h1.5h2.5q1 1 1 2h1.5h1.5q0 3 1 3h0.5h1.5v1v1q3 0 7 4.5t6 7.5h1h2q2 7 8 12t10 11q3 0 6 6 t3 10h2h1q1 17 11 20t13 -12h1.5h1.5q-2 -12 -9 -18h2h2q-1 -3 -1 -6q-3 -2 -4 -5.5t-1 -5.5q-3 0 -4 -2q0 -8 -5.5 -14.5t-2.5 -12.5h-4h-1v-2.5v-2.5q0 1 -3 -2v-1v-2q-4 0 -5 -2t-3 -3q0 -1 0.5 -1h0.5q-3 -3 -5 -8t-3 -9q3 -2 3 -5q-3 -1 -5 -2q1 3 1 6q-1 0 -1.5 -0.5 l-0.5 -0.5v-3v-1h-3h-1q0 -5 -6 -15.5t-9 -14.5q8 0 16 -0.5t16 -0.5q3 3 6 1v2v1h1.5h1.5q0 -3 8 -1.5t13 1.5q1 2 6.5 0.5t9.5 -1.5l-0.5 0.5l-0.5 0.5q11 1 12 6q-1 0 -1.5 0.5t-1.5 0.5v1.5v2.5q1 0 2 0.5t2 0.5q0 3 -1 4q5 2 6 3q-3 3 -0.5 6t2.5 6q2 1 4 1q0 1 -1 2 h0.5h1.5q-2 7 3 14q-1 1 -4 1v-1.5v-0.5h-3.5h-1.5q-2 -6 -2 -8q-3 0 -6 -4t-4 -7h-0.5h-0.5q-5 6 0 14q1 0 3.5 6t3.5 8q3 0 7.5 4t7.5 6q0 3 -1 5q4 0 7.5 15t10.5 16q-1 6 5 15.5t5 10.5q6 7 6 12q4 0 8 0.5t8 0.5q0 -3 -1 -6q2 -2 2 -4h2h3q-1 -3 -1.5 -5.5t-0.5 -5.5 q-3 -1 -8.5 -16.5t-5.5 -18.5q-1 0 -2.5 -1t-2.5 -1l-21 -51q-1 0 -2 -1q-3 -3 -3 -9q-3 -3 -7 -10.5t-4 -10.5q3 0 5.5 -0.5t5.5 -0.5v-1t2 -2q0 3 1 3q7 0 10 -5q7 2 23 2q-1 -1 -1 -5q-7 0 -11 -2q1 -1 1 -4q-4 0 -5 1q-5 -6 -17 -2t-17 -2q-2 0 -2 1.5v1.5h-0.5h-0.5 q-6 -4 -7 -6l1 -0.5l1 -0.5q0 -2 -8 -4q0 -1 0.5 -2t0.5 -2q-3 0 -5 -1q4 -1 6 -2q-5 -3 -6.5 -6.5t-4.5 -3.5q1 -5 -1 -9q-4 -2 -8 -10.5t-6 -11.5q-1 -1 -5 -1q1 0 2 -0.5t2 -0.5v-2.5v-0.5q-1 0 -2 0.5t-2 0.5q-1 -1 -1 -3h1.5h2.5l-1 -1v0h-4h-3q-1 0 -1 -4q-2 -1 -2 -6 v-0.5t1 -1.5q1 6 4 9h1h2v-0.5v-0.5h-1.5h-0.5q0 -8 -6 -10v-1v0q-4 0 -5 -3l1 -0.5t3 -0.5q-2 -4 -9 -5v-3.5v-1.5q0 -1 2 -1q-2 -6 -6 -10q0 -1 1 -2h3h4v0.5v1.5h76v-1.5v-0.5q1 0 3.5 0.5t5.5 1.5v-1.5v-0.5h1h2v0.5v1.5h0.5h2.5v-2v-2l1 -0.5t2 -0.5q0 -3 -2 -3 q1 -2 1 -4q-1 -1 -2 -1.5t-2 -1.5q-1 0 -1 -3l-93 -3q-2 -2 -9 -2v-1v-2h-2h-2v1.5v1.5h-1.5h-0.5v-0.5v-0.5q-4 -3 -6 -6t-5 -4h0.5h0.5q3 0 4 1q-2 -5 -6 -5v-5v-4h-3h-1v-0.5v-0.5q4 0 6 1q0 1 0.5 1.5t0.5 1.5q1 0 1.5 -0.5t1.5 -0.5q0 -5 -4 -5q0 -3 -0.5 -4.5 t-0.5 -3.5q-3 2 -5 0q1 -5 -1.5 -6.5t-1.5 -4.5h-1h-1q0 -4 -2 -8h-2.5h-0.5q-1 -6 -4.5 -12.5t-6.5 -8.5h0.5h0.5q-1 -4 -2.5 -5t-2.5 -5l-1 -1v0q-1 -3 -1 -7q-3 -2 -3.5 -4.5t-0.5 -4.5h-1.5h-0.5q-3 -9 -2 -10q-3 0 -7 -11.5t-4 -14.5q-5 0 -8 2q0 -3 -2 -6.5t-1 -6.5 q-3 0 -5.5 -3t-5.5 -3zM46 81h2.5h4.5v0.5v2.5v0.5v0.5q-7 0 -7 -4zM73 101l-1 1t-1 3q1 0 2 1l1 1q0 -2 1 -5q-2 0 -2 -1zM70 108v2.5v2.5h2h3q-1 -1 -1 -5h-2.5h-1.5zM74 129v5.5v4.5q1 0 5 4q2 0 2 -1q4 8 6 11v-3v-1l-0.5 -0.5l-0.5 -0.5q0 -3 1 -3t4 6q5 -1 -0.5 -8 t-5.5 -10v0v0q3 1 7 8t6 7q-3 -5 -4.5 -9t-4.5 -9q-5 0 -9 4q1 1 2 3l-0.5 0.5l-0.5 0.5q-2 0 -2.5 -0.5l-0.5 -0.5q0 -3 1 -4q-3 -3 -5 -4zM84 138q3 6 2 5v0.5v0.5h-1v0q-1 -2 -1 -6zM185 140h0.5h1.5q2 7 3 8q-3 -2 -3.5 -3t-1.5 -1v-2v-2zM94 153v0.5v1.5h-2.5h-0.5v0.5 v0.5q7 3 9 3q0 -3 -4 -3v-2v-1h-1.5h-0.5zM96 160q0 2 -2 2q2 0 4 1.5t5 1.5v-1.5v-1.5q-3 0 -7 -2zM96 165v0.5v0.5q4 1 7 1q-1 -1 -7 -2zM70 181h1.5h2.5v0.5v1.5h-2.5h-2.5q0 -1 0.5 -1.5zM130 206l62 3q0 -1 0.5 -1.5l0.5 -0.5q3 0 4 -1l-0.5 1l-0.5 1q5 4 14 4q5 5 4 8 q9 4 11 18h1.5h2.5q-1 0 -1 0.5v0.5q-3 0 -4 1q3 3 10.5 15t10.5 13q0 6 1.5 7.5t0.5 7.5q3 -3 5 0.5t2 6.5h1h2q0 4 1 5q3 1 7.5 11t4.5 14h-2.5h-0.5v-1v-1q-15 2 -43.5 -2.5t-37.5 -10.5v1.5v1.5h-4h-2q-4 -10 -4 -14h-3h-2q0 -1 1 -2q-2 -2 -5 -2q6 -3 5 -2 q-1 0 -2.5 -0.5t-2.5 -0.5q-1 -3 -3.5 -8.5t-3.5 -5.5v-2v-1q-1 0 -2 1t-3 1q0 -5 -5.5 -11t-4.5 -11q3 2 9 1q-3 -2 -5 -6q-1 0 -3 -0.5l-2 -0.5l1 -1t3 -1q-3 -3 -5 -4t-3 -4q-1 1 -3 1q-2 -1 -3 -4h-1.5h-0.5q-2 0 -2 -2h-1.5h-0.5q0 -4 -2 -5q-4 -7 -4 -10h-1h-2v-2v-3 q3 2 6.5 9.5t6.5 10.5q6 -1 6 -3q-5 -1 -6 -3t-4 -5h0.5h1.5v-0.5t2 -0.5q-3 0 -3 -2q-2 -6 -2 -11h1h2v1v1zM121 203q1 1 3 1q0 4 2 5h-3h-1q-1 -5 -1 -6zM220 212l4 2q0 2 5 9h-0.5h-2.5q-2 -3 -4 -5.5t-2 -5.5zM151 252q-2 4 -2 3l2 3t2 5q3 2 3 3q2 -4 -1.5 -7t-1.5 -5 l-1 -1z" />
<glyph unicode="$" horiz-adv-x="436" d="M361 284l3 -2q3 0 5 -3q24 -14 35.5 -39t2.5 -54q-12 -39 -48.5 -80t-93.5 -67q-16 -6 -38 -12.5t-47 -9.5q-4 -9 -5 -13l-3 -12q-9 -17 -13.5 -44t-14.5 -42q-4 5 -4 9q-4 -3 -4.5 -8t-5.5 -8q0 1 -1 2l1.5 1t2.5 1l-3 3q0 -1 -2 -3q-2 3 -9 13q1 1 2 3t2 2q-6 12 -2 27 q1 3 3 5v2v3h1h1v2v2q1 2 4 5v3.5v3.5q-2 2 -3 4q1 4 3.5 6.5t2.5 6.5q3 8 7 9q-1 0 -2 2t-1 3q6 2 3 7q-29 -2 -56 1t-46 12q-24 10 -38.5 31t-4.5 46q7 21 26 32q3 3 5.5 4t5.5 4q1 1 2 1q-1 0 -1 1v1q3 3 3 4q1 -1 2 -3q0 3 3 3q2 0 2 -3h-0.5h-0.5q0 -1 0.5 -1.5 l0.5 -0.5q2 1 3.5 2.5t3.5 2.5l1 -0.5l1 -0.5l-3 -3l1 -1h1h1l6 4q0 -2 1 -2q3 2 7 3.5t8 4.5q-1 0 -2.5 0.5l-1.5 0.5q1 3 6 6v-1v-1l-1 -1t-1 -2l0.5 -1t1.5 -1q6 5 14 13t16 9l4 -6q-2 0 -3.5 0.5t-3.5 1.5q0 -1 2 -5q-2 0 -4 -2l-28 -20.5t-41 -30.5q-9 -9 -14 -18.5 t2 -21.5q20 -44 138 -33q1 3 3 3q0 2 -0.5 3.5t-0.5 2.5q0 3 1 4q3 -3 3 -5q4 10 3.5 17.5t2.5 17.5q1 -3 0.5 -7t-0.5 -7q3 3 5 12.5t2 14.5q3 3 4.5 3t4.5 3q0 3 -1.5 5.5t1.5 5.5q2 0 2 -2q0 3 -2 5q1 1 1 4q2 -2 4 -5q0 1 0.5 2t0.5 4l-4 2q1 4 2 7.5t4 8.5 q-1 3 0.5 6.5t1.5 7.5q2 5 3 10q3 4 5.5 14t3.5 16q1 0 2.5 1t2.5 1q0 6 0.5 13t1.5 14q1 0 2.5 0.5t2.5 0.5q0 5 1.5 10.5t2.5 11.5q7 5 5 16q6 14 12 36q-32 5 -60 9t-48 14q0 3 -1 3q-8 2 -9 14q3 0 4 2q-2 0 -4 2q3 3 3 8q5 1 7 8q4 2 4.5 1t0.5 5q3 6 33.5 29.5 t63.5 29.5q1 5 9 5q0 4 7 4q15 8 35 16l-3 4q6 12 6 21l1.5 1t2.5 2q0 1 -0.5 1.5t-0.5 1.5q2 2 2 5q-3 5 -4 6q5 14 13 26q0 6 2.5 21t10.5 8q6 10 11 8t11 -9q-2 -10 0 -12q-6 -11 -9.5 -19t-8.5 -17q0 -1 0.5 -1.5l0.5 -0.5q-2 -6 -7 -18t-3 -14q-1 -3 -3 -5v-2 q31 9 71.5 16t50.5 -13q18 -15 7.5 -41.5t-25.5 -27.5l-0.5 1t-0.5 3h-3h-3q-1 2 -4 12t-1 12q4 0 7 2t9 4q5 3 5 10.5t-11 13.5h-4.5h-3.5v1v4h-6.5h-6.5q-3 4 -32 -4t-53 -16v-1q-5 -8 -4.5 -16t2.5 -15q-3 -2 -3 -4l-4 4t-3 5q0 -3 -1.5 -5t-7.5 -11q0 -4 1.5 -7l2.5 -5 q-3 -4 -4 -7.5t-2 -6.5q-2 0 -2.5 0.5l-0.5 0.5q0 -1 -0.5 -1.5l-0.5 -0.5q1 -4 4 -8q-2 -3 -4 -11q-1 2 -4 5q-1 0 -1.5 -0.5l-0.5 -0.5q2 -4 2 -6q-1 0 -1.5 -0.5l-0.5 -0.5q3 -11 -1.5 -14.5t-2.5 -12.5q-1 0 -2 -2v0q24 -5 48.5 -11t47.5 -16zM165 42h2l2 4h-1.5h-1.5 l-0.5 -1l-0.5 -1v-2zM187 44q41 7 95 35.5t87 94.5q10 20 7 38.5t-13 29.5q-16 19 -31 26t-34 15q-9 3 -17 5t-16 5l-5 1q0 1 -4 -5q2 -2 2 -5l-1 -0.5t-2 -0.5q1 -5 -1 -10q2 -1 2 -5q-1 -1 -3 -1.5l-2 -0.5q3 -3 3 -4q-3 -3 -5.5 -10t-1.5 -10q-4 -6 -6.5 -15.5 t-5.5 -13.5q2 -7 -0.5 -14t-5.5 -13q1 0 1 -3q-1 -3 -3 -5t-2 -4q0 -6 -4.5 -21.5t-7.5 -19.5v-2.5v-1.5q-3 -2 -5.5 -13.5t-4.5 -14.5q0 -1 0.5 -2.5t2.5 -1.5q-2 -1 -3 -2q-1 1 -4 1q-2 -6 -0.5 -10.5t-4.5 -10.5q0 -14 -7 -31zM278 422v0q-21 -9 -44.5 -22t-48.5 -31v-1 v-1q-10 -3 -17 -11.5t-4 -17.5q1 -5 25.5 -10.5t56.5 -12.5q8 24 12 51q-1 0 -3 2q3 6 2 10q0 -1 0.5 -2.5t2.5 -1.5q0 -1 -1 -2t-1 -3h1h1q2 3 3.5 8.5t4.5 8.5q-1 1 -1 1.5v0.5q2 5 3 12t4 10q0 2 -1 4q0 1 2 3.5t3 4.5zM258 313h3h-0.5t-0.5 1zM123 -37q0 1 -1 2q1 4 5 8 q1 -2 1 -3q-3 -5 -5 -7zM175 63q3 7 2 13q-2 -2 -2 -3q0 -3 1 -4q-1 -1 -1.5 -2.5l-0.5 -1.5q0 -1 0.5 -1.5zM175 102q0 5 2 9l0.5 -0.5l0.5 -0.5q-2 -7 -3 -8zM183 132q2 3 4 7q-1 -4 -4 -7zM193 124q4 8 8 9q-3 1 -4 4q1 1 1 5l-0.5 0.5l-0.5 0.5q-6 -9 -4 -19zM201 159 l0.5 -0.5t1.5 -0.5q3 8 4 13q-5 -3 -6 -12zM207 174l1 1.5t2 2.5q-2 3 -1.5 4t-2.5 -5q1 -1 1 -3zM214 228q1 2 -1 6q5 2 6 5q2 -2 4 -6q-1 0 -1.5 -1t-1.5 -1l-2 4q-1 -2 -2.5 -4t-1.5 -3zM249 345q0 3 -2 5q3 1 3 3q1 -4 1 -8h-1h-1zM262 383q-1 1 -1 5l0.5 0.5l0.5 0.5 v-3v-3zM95 175q-5 -5 -8.5 -6.5t-7.5 -7.5q-1 0 -1.5 0.5t-1.5 2.5q3 3 8.5 7.5t10.5 3.5zM68 151q-2 0 -3 2q2 2 4 2q-1 -1 -1 -4z" />
<glyph unicode="%" horiz-adv-x="274" d="M9 2v1.5v1.5h-3h-2q0 3 0.5 4.5t0.5 4.5q-1 0 -3 0.5t-2 1.5q0 4 1 6q2 6 15.5 27t29.5 45.5t30.5 45t19.5 25.5q3 1 7 6.5t4 9.5h0.5h2.5q0 9 8 12q-4 -4 -4 -6q2 1 4 1q1 2 1 5h2h2q-1 10 17.5 33.5t37.5 47.5q-6 0 -11.5 -1.5t-11.5 -1.5q-1 -3 -4 -3q-24 -26 -41 -32 t-23 -5q-1 0 -1 1v1l-1 -1.5l-1 -1.5q-6 0 -12 1.5t-12 3.5v0.5v0.5q-10 3 -16 15.5t-3 24.5h0.5t1.5 1q-1 4 0 8t1 8q-6 7 13.5 41.5t34.5 34.5q0 3 2 3q9 0 9.5 -4t9.5 -2v1v1q4 1 7 3t9 2v1v1q10 0 25 -5l-0.5 -0.5l-0.5 -0.5q0 -1 0.5 -1.5t1.5 -0.5h0.5h2.5v0.5t1 0.5 q6 -2 11 -22t-1 -36v-2v-2q-2 0 -3 -1q-1 0 3 -2h-3h-1l0.5 -0.5t1.5 -0.5q0 -2 -1.5 -5.5t-1.5 -6.5q9 0 16 4t16 5l10.5 12.5t24 27.5t25.5 28.5t14 16.5l0.5 0.5l0.5 0.5l0.5 0.5l0.5 0.5l0.5 1t0.5 2q3 6 11 5t8 -14q-2 -2 -3 -5h-1.5h-0.5q-3 -5 -7.5 -13t-5.5 -12 q-3 -2 -11 -10q-10 -10 -20.5 -19.5t-19.5 -18.5q-5 -6 -10.5 -11t-9.5 -8v-1v0q0 -1 3 -1v-2v0q-3 -2 -4 -4t-3 -2q0 2 3 5h-1.5h-1.5q-2 -5 -8 -11.5t-10 -8.5v-1.5v-0.5h-0.5h-0.5q-3 -3 -3 -7q-1 0 -2 -2v-0.5v-0.5q-3 0 -6 -5v-0.5t1 -0.5h0.5h0.5l2.5 1.5t6.5 5.5 q-2 -2 -6 -7.5l-4 -5.5q-1 0 -1 0.5v0.5q1 1 1 4q-5 0 -3 -4h-1.5h-0.5q0 -4 -1 -5h-3h-1v-2v-2q-3 0 -10.5 -10.5t-7.5 -13.5h-0.5t-1.5 2q0 -1 -1 -1q0 -1 0.5 -1.5l0.5 -0.5h1.5h1.5v-2v0q-10 -5 -11 -6q1 -1 1 -2h1h3v-1v0h-7q0 -4 -3 -7v-2v-1q-3 0 -4 -2q0 -1 3 -2 v-0.5v-0.5h-1h-1q-1 0 -1.5 0.5t-0.5 1.5q-3 -3 -4.5 -5.5t-4.5 -4.5q0 -1 1 -2q-5 -2 -3 -7q-10 -7 -5 -10q-3 -2 -6 -2v-1.5v-0.5q2 0 3 1v-1.5v-0.5q-2 -2 -8 -4q1 -2 5 0q-5 -7 -12 -11.5t-8 -13.5h-2h-2q0 -3 -2.5 -4t-2.5 -4q5 -4 5 5h2h1q-5 -3 -6 -8.5t-8 -5.5 q-1 -4 -3 -6t-2 -5q-1 -1 -3 -1q-2 -3 -3 -7t-4 -5v-3v-1h1h1l0.5 1l0.5 1h0.5h0.5q0 -2 -5 -5q2 -5 -8.5 -15.5t-7.5 -14.5h1.5h1.5q0 2 2.5 3t3.5 4q13 2 8 -3.5t-6 -11.5h-1.5h-0.5v-1v-1q-1 -1 -2.5 -1.5t-1.5 -1.5v-4v-3q-3 -9 -14 -14t-15 0zM134 20q-19 1 -22 19 q-3 11 -1 21t5 13l-1 0.5l-1 0.5l-0.5 0.5t-0.5 1.5h1.5h2.5q3 4 15.5 30t20.5 29q0 6 8 10.5t10 10.5q5 3 13.5 0t2.5 -12q-1 0 -2 -1q2 -1 2 -3q-5 0 -7.5 -2.5t-5.5 -2.5q0 -7 -19.5 -32.5t-25.5 -44.5q-5 -16 4.5 -20t27.5 1q26 6 48 35.5t17 52.5l-1.5 3.5t-0.5 6.5 q-6 4 -18.5 -3.5t-13.5 -10.5l-5 4h-1.5h-0.5l-3 3q6 3 6 -2h3h2q0 3 -1 4t-1 3q0 1 0.5 1.5l0.5 0.5v1v2q1 2 4 2q10 12 22 13t20 -5q6 -6 8.5 -16t-4.5 -15l1 -0.5t2 -0.5q0 -9 -7.5 -26.5t-13.5 -20.5q-19 -30 -40.5 -41.5t-49.5 -9.5zM57 78q2 9 9 14q-4 -10 -7 -13 q-1 0 -1.5 -0.5zM81 114q0 2 1.5 3.5t1.5 4.5h1h2q-1 -3 -2 -4.5t-1 -3.5h-2.5h-0.5zM91 130v2v1h0.5h2.5v-0.5v-0.5q-3 0 -3 -2zM112 156q3 8 9 14q0 -3 -3 -7t-5 -7h-0.5h-0.5zM137 192l0.5 0.5l1.5 1.5v-0.5v-0.5q-1 -1 -2 -1zM145 203q0 1 -1 1q1 2 4 4v0h1q-1 -2 -1 -4 q-2 0 -2.5 -0.5zM149 209q0 2 0.5 3.5l1.5 4.5q1 0 2 0.5t3 0.5q-1 -3 -3.5 -4.5t-3.5 -4.5zM160 224l0.5 1l0.5 1h0.5h2.5q-2 -1 -2.5 -1.5t-1.5 -0.5zM82 249q6 1 13 2t13 4q2 2 0 3q-7 0 -19 -2v0.5v0.5q-2 1 -3 1v1v1q-21 6 -20 25t7 34v0h1q0 1 1 1q1 7 4 10q1 1 3 1 q-2 4 -4.5 2.5t0.5 -4.5h-4h-3q-10 -10 -14.5 -38.5t13.5 -38.5q5 -1 12 -3zM180 250q1 1 3 2v-0.5v-0.5q-1 0 -2 -0.5zM183 255q2 3 4 4t5 4q0 -1 -3.5 -4.5t-5.5 -3.5zM113 260l0.5 0.5t2.5 0.5v0.5v0.5q-3 0 -4 -1q1 0 1 -1zM89 320q-7 -11 -9.5 -30t21.5 -19q0 1 3.5 1 h6.5v-0.5v-0.5v0h1v0.5v0.5q13 1 26 10q-1 0 -1 1v1l1 1t2 1q-1 0 -1 0.5v0.5q17 21 14 39.5t-3 26.5q-12 5 -28 3q0 -9 -16.5 -22.5z" />
<glyph unicode="&#x26;" horiz-adv-x="312" d="M9 5q1 -1 1 5h-2t-3 4q-8 18 0 56t33 59l6 4.5t9 8.5h2.5t2.5 1q3 3 2 3q2 1 2.5 2t1.5 2h1h1q1 0 1.5 1.5l0.5 1.5h1h2q-2 0 2 2q3 0 5 1v1v1q6 1 15.5 7.5t14.5 3.5q6 -6 4.5 -7.5t-1.5 -0.5q4 4 9 16.5t3 15.5q-9 8 -3.5 37t4.5 42l1 0.5t1 1.5l-2 1t0 3q6 6 5 12 q3 0 3 2q0 1 -1.5 3t-0.5 4q3 5 2.5 2.5t-2.5 0.5q-3 6 9.5 31t18.5 31q20 28 44 39.5t44 8.5l0.5 -3t3.5 0q5 6 21.5 -15t15.5 -48q0 -1 -1.5 -1.5t-1.5 -1.5q3 -3 3 -5q-1 -7 -5.5 -22.5t-5.5 -21.5q-18 -40 -45.5 -65t-92.5 -65q-7 -4 -4.5 -32.5t5.5 -34.5q2 -6 9.5 -18 t17 -21.5t19.5 -12.5t18 10q0 1 1.5 0t2.5 0q3 6 1 4q0 -2 2 0q27 24 48 67.5t29 76.5l2 1.5t0 2.5l3 2v1.5v1.5q19 9 22 -3t-5 -27q0 -5 -2.5 -7t-1.5 -5q0 -1 1.5 -1t-0.5 -3q-6 -8 -2.5 -2.5t0.5 -1.5q-11 -21 -23 -41t-24 -35q-1 -2 -1.5 -4.5t-1.5 -3.5h-2.5h-0.5 q-3 -4 -1 -3t-6 -7h-1h-1q-3 -6 -8 -10.5t-8 -9.5h-1q1 0 -1 -2q-3 0 -3 -1.5t-2 -2.5q-2 -2 -2 0q-6 -4 9.5 -3.5t18.5 0.5q15 3 24 8t17 -8q1 -3 -2 -6t-3 -6h0.5h0.5q0 -6 -3 -6q-18 -5 -35 -1t-35 2l-2.5 -2t-7.5 1q-1 0 0 1t0 1q-9 3 -13.5 -0.5t-14.5 -7.5q0 -3 -1 -3 q-1 -1 -3 0t-2 -1q-4 -4 -11 -6.5t-15 -7.5q-31 -19 -73.5 -19t-56.5 27zM20 42q0 -23 10 -33t25 -13q24 -3 54.5 7t51.5 23q6 1 4 4q-25 9 -34.5 33.5t-12.5 36.5q-2 9 0.5 25t2.5 29q0 4 -2 5q0 1 -3 1q-5 -1 -13 -6t-11 -5q-15 -8 -32 -22q-16 -15 -27.5 -31t-12.5 -33 q1 0 1 -1q0 -4 -1.5 -10t0.5 -10zM138 183q7 0 16 7l-2 1t-1 2q51 23 84.5 58t32.5 83h1.5t1.5 1q6 33 -10 51.5t-35 15.5q-25 -5 -49.5 -31t-33.5 -65q-1 -2 -0.5 -2.5t0.5 -1.5q0 -2 -1.5 -2.5l-1.5 -0.5q-1 -7 -1.5 -7t-1.5 -2q-3 -2 0 -1.5l3 0.5q0 -3 -3 -8 q-3 -19 -7.5 -51.5t7.5 -36.5l-2 -3.5t-2 -4.5h1t3 1v2v2q0 -7 1 -7z" />
<glyph unicode="'" horiz-adv-x="91" d="M1 305v5.5v5.5h0.5h2.5v2v2q-2 0 -3 1l0.5 0.5l2.5 2.5v1v2l-3 1.5t-1 1.5l0.5 2t1.5 3h1t1 1t1 4l1 0.5t4 0.5v2v3q1 1 5 1v0.5v2.5q-3 -2 -5 -2q0 10 8 20t10 22q3 0 4 1v3.5v4.5h0.5h1.5q0 3 2 9.5t5 18.5q0 9 -1 28t14 19v1v3q3 0 5 -2v-1v-1q6 0 14 -3v-1.5v-0.5 q3 -3 6 -4q0 -3 0.5 -5t0.5 -5h-0.5h-0.5v-0.5v-0.5h1h2q0 -2 -0.5 -3.5t-0.5 -2.5h-1.5h-0.5v-8v-7h-2h-1q0 -1 3 -7q-1 -1 -4 -1q-3 -6 -2 -5h-1h-1v-2.5v-0.5h1h2v-2v-1h-2h-1v-1.5v-1.5h-2h-1q-2 -4 -2.5 -7.5t-0.5 -5.5q-1 -2 -1.5 -2h-0.5v1.5v1.5h-4h-1q0 -7 -4 -12 t-2 -10l0.5 0.5l1.5 1.5h0.5h2.5q-3 -2 -4 -4v-2v-1h-1.5h-1.5l-0.5 1t-0.5 2q-2 -2 -3 -9q-3 -2 -4 -5q-1 0 -2.5 0.5l-1.5 0.5q1 -6 5 -6v-2.5v-0.5q-1 0 -2 0.5t-2 0.5q0 -2 -3.5 -4.5t0.5 -4.5q-2 0 -3.5 -1t-2.5 -1q-2 -2 -2 -7q-1 -1 -2 -1v-1.5v-1.5h-2.5h-1.5v-1.5 v-0.5q-5 -3 -8 -12h-3.5h-1.5q-4 -6 -5 -13h-2.5h-0.5zM44 361v0.5v0.5q0 -2 3 4v-1.5v-1.5q0 -1 -3 -2z" />
<glyph unicode="(" horiz-adv-x="116" d="M89 0q-4 1 -5 4q-4 -3 -8 -4q0 2 -1 4q-6 1 -8.5 5.5t-6.5 6.5q-3 6 -7 11.5t-6 11.5h-2.5h-1.5q-2 11 -10 18q1 1 3 2q-4 3 -5 7.5t-4 6.5q0 2 -2 5t-2 6q-5 7 -6 13l0.5 0.5l0.5 0.5q-3 5 -5.5 12l-2.5 7q2 2 2 4l-3 6q2 1 5 2q-3 5 -5 6l-1.5 -0.5l-1.5 -0.5q1 4 4 8 q-3 -6 -3 -3q0 6 -1 11q1 0 3 -1q3 8 -2.5 19t-5.5 20l0.5 -1l0.5 -1q1 0 2.5 0.5t2.5 0.5q-2 21 -7 37h1h3q-3 -3 1 -12h0.5h0.5v14v15q3 0 3 1q-3 6 -3 8t3 8q-2 2 -5 2q3 1 3 5l4 2q0 3 4 9q-3 1 -3 3q6 3 14 26t17 32q-1 0 -1.5 1.5t-0.5 2.5q4 2 8 2v3v2l2 1t3 1 q0 2 -1 2q1 0 1.5 0.5t2.5 1.5q1 2 1 5q6 3 8 3l-2 2q2 6 10 6q1 3 1 4q3 1 7 1q0 -1 1 -2l1 -1q3 1 10 1v-0.5v-0.5q1 0 1 2q12 -29 -3 -27.5t-12 -11.5q-5 0 -7 -1q0 -3 -2 -4q0 1 -2 -3v-1v-1h-3h-2q1 -1 1 -3q-12 -5 -10 -14q-3 -2 -3.5 -4t-2.5 -4l1.5 -0.5t3.5 -0.5 v-1v-1q-5 -3 -8 -5v-8q-2 0 -3 -0.5l-1 -0.5q0 -1 0.5 -1h0.5q-1 -1 -2 -3q0 -6 -2 -8q0 -1 -2 -1v-2.5v-0.5q-1 0 -1.5 -0.5t-1.5 -0.5l-1 -5t1 -9l-0.5 -0.5l-0.5 -0.5v-2v-2q-3 -3 -4.5 -10.5t-0.5 -10.5q-1 0 -1.5 -0.5l-0.5 -0.5q0 -4 0.5 -8.5t-0.5 -7.5 q0 -1 1.5 -6.5t-0.5 -5.5q0 -16 2.5 -26.5t4.5 -24.5q1 0 1.5 -0.5l0.5 -0.5q1 -9 6.5 -31t11.5 -27q2 -9 8.5 -20t12.5 -17q0 -2 8.5 -12t11.5 -10v-4v-4h3l-1 -1.5l-1 -1.5q1 0 1 -2q-2 0 -3 -3q0 -6 1 -8zM18 108v2v3h-2h-1q0 -1 0.5 -2.5t0.5 -2.5h0.5h1.5zM6 153 q-4 2 -5 3h1.5h1.5q-1 0 2 -3zM54 302q0 3 3 3q0 -1 -3 -3z" />
<glyph unicode=")" horiz-adv-x="116" d="M11 0q-4 2 -6 4q0 6 1 8q-2 3 -4 3v1v1l-0.5 1.5l-0.5 1.5h4v4v4q1 0 10 10t8 12q6 6 13 17t10 20q6 5 11 27t6 31l0.5 0.5t1.5 0.5q2 14 4 24.5t4 26.5q-3 0 -1.5 5.5t2.5 6.5q-3 3 -1.5 7.5t1.5 8.5q-1 0 -1.5 0.5t-1.5 0.5q1 3 -1 10.5t-5 10.5q0 1 0.5 2t0.5 2 q-1 0 -1.5 0.5l-0.5 0.5q1 4 0.5 9t0.5 5q-1 0 -1.5 0.5l-0.5 0.5v3q-3 0 -4 1v3.5v4.5q-2 4 -2 3v0l1 1q-3 0 -4 0.5l-1 0.5v3.5v4.5q-3 2 -7 5v1v1l1.5 0.5t2.5 0.5q-3 2 -3.5 4t-3.5 4q1 8 -9 14v1.5v1.5h-2h-1v1v1q-1 1 -2.5 1.5t-1.5 1.5q0 2 -1 4q-3 1 -6 1 q1 13 -12.5 11.5t-3.5 27.5q1 -2 2 -2v0.5v0.5q6 0 10 -1q0 2 1 3q4 0 6 -1t2 -4q7 0 11 -6q-3 0 -3 -2q3 0 8 -3q1 -2 1 -5l4 -2v-1v-1l1 -1t3 -1v-2v-3q5 0 9 -2q-2 -2 -2 -4q9 -9 16 -32t14 -26q-1 -2 -2 -3q2 -4 2 -9l4 -2q1 -5 4 -5q-3 0 -4 -2q3 -6 1.5 -8t-2.5 -8 q1 -1 4 -1q0 -8 -1 -15t-1 -14h1.5h1.5q2 8 1 12h1h3q-3 -9 -5 -18.5t-3 -18.5q1 0 2 -0.5t3 -0.5q0 2 1 2q-1 -9 -6 -20t-1 -19l0.5 0.5l0.5 0.5v-5.5v-5.5q0 -1 -2 3q2 -4 2 -8l-1 0.5l-1 0.5q-4 -2 -4 -6q1 -1 5 -2q-2 -3 -3.5 -4t-1.5 -2l4 -4q-1 0 -4 -7t-5 -12v-0.5 t1 -0.5q-2 -10 -7 -13q0 -3 -1 -6t-1 -5q-4 -2 -5 -6.5t-4 -7.5q0 -1 0.5 -1.5t1.5 -0.5q-6 -6 -11 -18h-1h-1q-6 -10 -15 -23q-5 -2 -7 -6.5t-8 -5.5v-3v-1q-6 2 -8 4q-1 -3 -4 -4zM81 108h0.5h2.5q0 1 0.5 2.5t0.5 2.5h-2.5h-1.5v-3v-2zM94 153l0.5 1.5l0.5 1.5h1h2 q-1 -1 -2.5 -2zM44 302q-2 2 -1 3l1 -1.5t0 -1.5z" />
<glyph unicode="*" horiz-adv-x="158" d="M90 331q1 1 1 3q-1 1 -4 0q1 2 -5 4l4 8h-1v0v-1.5v-1.5q-3 2 -6 2q-3 3 -6 8t-3 10q-2 0 -2.5 3.5t-3.5 6.5h0.5h0.5q-1 0 -1.5 0.5l-0.5 0.5q1 3 1 5l-4 4h2h1l-0.5 0.5l-0.5 0.5v0.5v0.5q-3 1 -5 1q0 -1 1 -2q-3 -2 -2.5 -5t-1.5 -5q1 -1 1 -11q-2 0 -3 -2 q3 -3 1 -7.5t2 -7.5l-0.5 -0.5l-0.5 -0.5q-1 0 -3 -1l-2 -1v-0.5v-0.5h-2h-1v0.5v0.5q-2 0 -3 1l-1 1q0 1 -1 2q1 6 0 7h0.5h1.5v2.5v2.5h-0.5h-0.5v2v2l0.5 0.5l0.5 0.5v4v6h0.5h2.5q-2 1 -2 5v0v1h-0.5h-0.5q-1 -1 -3.5 -2.5t-2.5 -3.5q-3 -1 -5 -4t-4 -3v-0.5v-0.5 q-2 0 -5 -4t-2 -6h-2h-1v-1t2 -1h-2.5h-0.5q0 -1 -0.5 -1.5l-0.5 -0.5l-0.5 -0.5l-0.5 -0.5v-1v-2q-4 -1 -9 -1.5t-5 4.5l-0.5 0.5l-0.5 0.5l0.5 1t0.5 3q1 1 3 1l-1 0.5t-1 1.5h1.5h2.5v3v2t0.5 1.5l0.5 0.5v1v2h3.5h4.5q1 1 1 4l1 0.5l1 0.5q2 3 4 4v0.5v0.5q3 2 3.5 3.5 t5.5 1.5q0 2 1 4h0.5h0.5q0 3 2.5 3t2.5 5h0.5h0.5q0 2 2 2q1 1 3 1v1v1q-6 1 -16 1q-1 3 -7.5 3h-9.5q0 5 -2 8.5t3 9.5q10 -1 16 -2l-0.5 -0.5l-0.5 -0.5h8h8q0 -2 1 -3q4 2 5 3q-1 0 -4 8l-3 8l-0.5 0.5l-0.5 0.5q-2 0 -2 1v1h-1.5h-0.5v3v4q-1 0 -1 1l0.5 6.5t4.5 1.5 q0 1 0.5 1.5l0.5 0.5q2 0 6 -2v-2v-3l6 -3q-3 -1 -1 -3.5t4 -2.5h1h1q0 5 0.5 12.5t4.5 12.5v3.5v1.5q5 7 9 5v-1.5v-0.5q6 -2 3 -10h-0.5h-0.5q-2 -8 -4 -15.5t-2 -14.5q-1 -1 -3 -1v-4v-2q1 -1 1.5 -1h0.5q2 2 2 5q2 0 3.5 1t4.5 2v1v1l1 0.5t3 0.5q0 6 5 10q-1 0 -1 0.5 v0.5q2 0 4 2t5 3q0 7 6 10t9 8q1 0 2.5 -0.5t4.5 -0.5v-1v0l-0.5 -0.5l-0.5 -0.5h1h2q0 -6 -1 -10h-1.5h-0.5q0 -1 -1 -1h-1q0 -2 -0.5 -2h-0.5q0 -1 -1 -2l-1 -0.5l-1 -0.5v-0.5v-1.5q-3 -1 -4 -3t-3 -3v-0.5v-0.5h-1.5h-0.5v-1v0q-4 0 -4 -5q-1 0 -1.5 -0.5l-0.5 -0.5 v-0.5v-1.5h-2h-1q-1 -1 -1 -3q-2 -1 -5.5 -4t-1.5 -6q-2 0 -6 -4h0.5h1.5l0.5 0.5l0.5 0.5q1 0 1 -1q8 -2 18 -2v1.5v1.5h0.5h1.5v-3l-0.5 -0.5l-0.5 -0.5h1h3v-1v-1q0 -1 0.5 -1.5l0.5 -0.5q1 -3 1 -8l0.5 -0.5t2.5 -0.5v-0.5v-0.5l-8 -4v-0.5v-0.5q-5 0 -7.5 1.5t-5.5 2.5 l-1 0.5l-1 0.5q-4 0 -10 1.5t-9 -1.5q1 -1 3 -1q0 -1 -0.5 -1.5t-0.5 -1.5h-0.5h-0.5q0 -5 2.5 -5.5t2.5 -6.5h0.5h0.5q0 -3 2 -11t5 -9v-2v-1v-0.5v-1.5q2 -1 4 -1q-1 -1 -1 -4l2 -2v-1v0l3 -6q2 0 4 -2q-2 0 -2 -0.5v-0.5q1 0 1.5 -0.5t1.5 -0.5v-2.5v-1.5l0.5 -0.5 t1.5 -0.5v-1v-1q-2 0 -3 -3h-3h-1zM97 457h1.5h1.5v0.5v1.5q-2 0 -2 -0.5v-0.5l-0.5 -0.5z" />
<glyph unicode="+" horiz-adv-x="180" d="M66 158q1 2 4 11.5t3 13.5h-2.5h-0.5q2 9 2.5 18t1.5 18q3 0 4.5 6.5t1.5 10.5q-12 1 -34 2.5t-31 0.5v0v1h-6h-5v1v4h-3h-1q0 7 4 15h0.5h1.5q0 5 35 2.5t40 -2.5q0 1 0.5 2t0.5 3h1.5h1.5q0 6 1.5 10.5t7.5 7.5v0.5v2.5q-4 1 -4 2l1 0.5l1 0.5q0 6 2 17.5t1 14.5 q1 1 3 1v3v2l9 3t6 -3q2 -1 4.5 -9t-1.5 -8q0 -4 -2 -7t-2 -6q-3 0 -8.5 -16.5t-5.5 -19.5q19 0 36 -0.5t36 -4.5v-4.5v-4.5q5 -1 5 -7h-4.5h-3.5q0 -1 3 -1q-1 0 -1 -1q-2 0 -2.5 0.5l-0.5 0.5q0 -1 -0.5 -2.5t-0.5 -2.5q-3 0 -5.5 0.5t-4.5 1.5q-1 2 -1 4q-17 0 -38.5 1.5 t-29.5 -16.5q0 -1 0.5 -1h0.5q-3 -12 -5.5 -21t-1.5 -21l-0.5 -0.5l-0.5 -0.5v-1v-2h-2.5h-1.5v-2.5v-1.5h0.5h2.5q-3 -3 -3 -7q-1 0 -2 1t-2 1q-1 -3 -1.5 -5.5t-0.5 -4.5q1 1 2 1v-1t2 -1h-4h-3zM73 161l0.5 2t1.5 3v-3v-2h-1.5h-0.5zM82 188q1 3 1.5 7.5t1.5 8.5 q3 -1 1.5 -7t-1.5 -9h-1.5h-1.5z" />
<glyph unicode="," horiz-adv-x="293" d="M-20 -63v2v2q3 2 5 8q0 2 -0.5 2h-0.5q9 14 16.5 27t13.5 28q6 4 5.5 10.5t8.5 10.5q0 5 2 6q3 1 12 1q3 -3 6 -5.5t7 -7.5q-2 -4 -4 -9.5t-5 -6.5v-1.5v-1.5q-10 -4 -16 -15.5t-15 -16.5q0 1 -0.5 1.5t-0.5 1.5q-5 -5 -8 -6q1 -2 5 -2q-4 -7 -7 -7q-3 -6 -7 -5 q-3 -8 -10 -10q0 -4 -1 -6q0 2 -1 4q-1 -1 -2.5 -2t-2.5 -2z" />
<glyph unicode="-" horiz-adv-x="180" d="M4 222q-11 0 -13 14q0 7 5 10q1 1 4 1v2v2l154 -1v-2v-1q6 -1 13.5 -2t13.5 -5q-10 -2 -12 -4q-17 3 -30 -1l1.5 -0.5t2.5 -0.5h-6h-5t-8 2q-5 -5 -23 -6q-8 0 -15.5 0.5t-11.5 0.5q0 -1 -1 -2z" />
<glyph unicode="." horiz-adv-x="69" d="M58 4q-3 0 -2 3.5t1 2.5q-2 -3 -1.5 -5t-0.5 -5q-2 -2 -16.5 -2t-20.5 9q-2 2 -1.5 5t0.5 5l-1 0.5l-1 0.5v8q1 1 1.5 5t1.5 7q7 7 14 9q3 0 4 -0.5t5 0.5l0.5 -1.5t1.5 -1.5q11 -1 10 0t5 -5q8 -8 7 -23q-2 -6 -4.5 -9z" />
<glyph unicode="/" horiz-adv-x="237" d="M-3 -9q-1 4 1 7t1 6q-2 -2 -8 -3q0 14 12.5 30.5t16.5 31.5q4 6 5.5 8.5t5.5 14.5q1 1 3 1q0 4 2 5q0 2 2 2q0 5 4.5 13t9.5 11q0 7 3.5 8.5t6.5 5.5l-4 2q-1 1 -1 3h1h2q1 2 5.5 10t4.5 11l0.5 0.5t2.5 0.5q0 4 4.5 15t9.5 13q0 5 2 9h0.5h1.5q2 4 3.5 9t7.5 8 q0 4 3 10.5t6 12.5q6 6 6 13q1 1 4 1l-1 1t-1 3q2 1 5 1q0 3 4 5q-1 1 -1 2v1q1 2 3 2q0 5 -1 8q6 0 14 3v0.5v1.5q-3 1 -8 1q2 2 3 2l-0.5 0.5t-0.5 1.5q6 3 5 8t8 8q-1 0 -1 0.5v0.5q1 2 5 2q-1 0 -1 1v1h-3.5h-1.5q0 3 1 4.5t2 4.5q2 0 3.5 0.5t4.5 0.5v0.5v0.5 q-1 1 -4 1q1 4 4 10q3 3 10 5q1 8 1.5 9.5l1.5 4.5h-5.5h-4.5v1v2q5 3 10 6.5t6 11.5q1 0 2.5 0.5t2.5 0.5q0 2 -2 2q2 4 2 10q5 0 8 1q0 1 -0.5 2.5t-0.5 2.5q3 0 7 9t5 13h0.5h1.5q4 18 6 30q6 1 9 6q8 0 13 -2t3 -11q9 -3 3 -12t-9 -12q-1 -6 -3 -10.5t-3 -10.5h-4.5 h-1.5q-2 -1 -2 -5h-1.5h-0.5v-2v-3q-4 -2 -7 -13q-2 0 -3 -0.5l-1 -0.5q0 -5 -1 -7q-3 2 -5 2q-2 -3 0 -5q-3 -3 -5 -15h-2h-1q0 -4 -3 -8.5t-4 -7.5h-1v0q-2 -4 -3.5 -8t-1.5 -7h0.5h0.5q3 3 2 3h2h2q-4 -4 -4 -6q-3 0 -4 1q-12 -15 -22 -34.5t-17 -34.5q-2 -1 -4 -5.5 t-1 -5.5q-6 -8 -9 -15l2 -4q-10 -10 -13 -14q0 -2 0.5 -3l0.5 -1q-3 -4 -6.5 -10.5t-3.5 -10.5q-4 -3 -4 -7q-3 -2 -3.5 -4t-3.5 -4q0 -4 -2 -6.5t-2 -5.5q-2 1 -5 1l-2 -2h1h4q0 -2 -1 -2.5l-1 -0.5q-1 0 -2 -0.5l-1 -0.5h0.5h1.5q0 -3 -7 -6q0 -3 2 -4.5t2 -4.5 q-4 -2 -8 -8t-2 -10q3 7 8 6q-5 -6 -9.5 -9t-7.5 -11h3h3q-1 0 -1 -2q-2 0 -3.5 -1l-1.5 -1q3 -3 -1.5 -10.5t-4.5 -12.5q3 0 5 -2v-3v-1q-6 -2 -4 -6h-3.5h-2.5v-5v-5q-2 -3 -2.5 -5.5t-1.5 -5.5q-1 0 -2 0.5l-1 0.5q-4 -2 -5 -4q0 -2 0.5 -4l0.5 -2q-1 0 -2.5 -0.5 l-1.5 -0.5l0.5 -0.5l0.5 -0.5q-2 -2 -2 -3v-2v-3q-4 -6 -7.5 -7t-9.5 -4v-1v-3q-4 0 -8 -0.5t-7 -0.5v2.5v1.5h-0.5t-0.5 -1v-1v-2h-1h-1zM38 16q0 4 3 7v0h1q0 -3 -1 -6l-1.5 -0.5zM50 69q5 0 8 7q-4 0 -4 -1q-1 -1 -2 -3t-2 -3zM48 78h0.5h1.5q0 2 2 2h-3h-1v-1.5v-0.5z M52 81l3 3v0.5v1.5q-1 0 -1.5 0.5l-0.5 0.5q0 -3 -1 -6zM59 100h0.5h2.5v1v2q2 0 3 2v0.5v1.5q-3 -1 -6 -7zM82 118q-1 3 2 8h0.5h0.5q0 -4 -3 -8zM94 139q0 4 1 6q0 -3 -1 -6zM82 142q6 5 8 12h-1.5h-1.5q0 -1 -0.5 -2.5l-0.5 -1.5q-2 0 -3.5 0.5l-1.5 0.5q1 -3 1 -9z M96 164q0 2 2 4.5t2 5.5q-3 -3 -6 -9l0.5 -0.5t1.5 -0.5zM100 175l1 0.5l1 0.5q2 5 1.5 4.5t-3.5 -0.5v-3v-2zM127 207l0.5 1.5t0.5 3.5q-1 1 -4 1q-1 0 -1 0.5v0.5l2 0.5t4 0.5q0 -1 1 -7q-2 0 -3 -1zM169 287q-2 0 -2 0.5v0.5q2 4 7 4q-2 -2 -2 -4q-1 0 -2 -0.5zM182 314 q0 1 3 4v-1.5v-1.5q-3 0 -3 -1zM201 348v1.5v1.5h0.5h1.5v0.5v0.5h0.5h0.5q0 -2 -1 -4h-1.5h-0.5z" />
<glyph unicode="0" horiz-adv-x="230" d="M25 -17q-2 2 -8 2q-1 1 -1 1.5v0.5q-2 2 -5 2q-2 6 -5 10h-3.5h-1.5q-1 5 -3.5 11t-3.5 12q-4 33 0 64q3 27 7 47.5t4 22.5q3 1 4.5 3t4.5 5q-3 1 -7 1q3 11 8.5 34.5t17.5 50.5q17 41 53 80q0 4 7.5 8.5t12.5 4.5q0 1 0.5 2.5t0.5 2.5q5 1 6 6t5 8q1 7 11 7q0 -7 1 -11 q5 5 7 10q-3 1 -3 4q1 1 1 2h-1.5h-0.5v1.5v2.5q11 12 26 24t32 13t32 -13q1 -1 5 -6q1 2 3 2q4 -10 3 -14q6 -14 7.5 -37.5t-1.5 -49.5q-2 -34 -9 -64.5t-12 -44.5h-2h-2v1v2q-2 -4 -1 -8q3 0 4 2q0 -7 -3.5 -9.5t-5.5 -5.5h0.5h2.5q1 1 1 0q0 -3 -2.5 -4.5t-2.5 -4.5 q-20 -56 -55 -97q-22 -26 -45 -44t-44 -28l-0.5 1.5l-0.5 1.5q-1 -2 -2 -3t-1 -2q-2 1 -5 1q-3 -6 -2 -5q-7 0 -14.5 -1t-13.5 -2zM32 15q9 -4 17.5 -1.5t18.5 7.5q-4 2 -4 5q7 -4 7 -1h-1v0q2 4 3 5q4 0 6 6q2 0 4.5 0.5t5.5 0.5v1v4q2 0 5 1q0 3 2 6q1 -2 4 -2 q60 48 83 105.5t32 124.5q4 0 5 1q-1 0 -1 0.5v0.5q2 0 3 1t2 1v0.5v1.5h-3h-2q2 7 3 25.5t1 38.5q-3 17 -7.5 33t-13.5 19q-18 3 -37 -10.5t-27 -32.5q-3 2 -4 3q-1 -2 -8 -9h-1h-1q2 1 2 6q-4 1 -8 -2.5t-1 -6.5l-5 -6q9 -4 11 -17q-2 0 -2 -2q1 -7 -9 -9q-1 -2 -1 -4 q-7 -3 -9.5 -9t-9.5 -6q-1 -1 -1 -1.5v-0.5q-2 0 -5 -2q0 -2 -1.5 -7t-4.5 0q-22 -24 -36 -70.5t-20.5 -92t-4.5 -78t13 -27.5zM167 114q2 2 2 5q-6 -2 -2 -5zM207 180q2 0 3 1v1v3h-1.5h-0.5q-1 -2 -1 -5zM127 362q1 1 1 2q-1 0 -1.5 1l-0.5 1q-2 -2 -2 -3q1 0 1.5 -0.5 t1.5 -0.5zM219 383q3 1 6 1q-4 7 -6 7q2 -2 0 -8zM230 389h0.5h2.5q-3 4 -4 5q0 -3 1 -5z" />
<glyph unicode="1" horiz-adv-x="230" d="M-78 -61q-1 2 -7 4q-3 11 -4 18t11 14l99 53q0 4 7 4q1 0 1.5 2t1.5 3t5 1q-6 3 -3 3q0 3 1 5t0 6l51 113q-1 1 -1 2q2 3 2 9l43 100h-2h-1q-2 -2 -2 -4q-8 0 -11.5 -8.5t-12.5 -8.5q-6 -10 -15.5 -12.5t-20.5 -2.5q-1 6 -4 13t-5 13h2h2v1v3q8 0 14.5 3t15.5 5v1.5v2.5 q66 43 80.5 86.5t37.5 67.5q0 3 2.5 4.5t2.5 5.5q15 0 21 -12q-4 0 -8 -2q0 -1 2 -2t3 -2l2 1t3 1q-3 -11 -6 -12l-42 -81q-6 -6 -4 -12h-1.5h-0.5q-3 -4 -9 -10q2 -1 5 -7l-6 3q-9 -5 -11 -17q-1 -1 -4 -1q-1 -4 0 -6q3 -1 7 7t7 10h0.5h0.5l0.5 -0.5l0.5 -0.5l-54 -128 q-2 0 -4 -1q-2 -6 -3 -10.5t-3 -9.5q-4 -3 -5.5 -8.5t-2.5 -8.5l-25 -62q0 -3 -1 -4.5t0 -4.5q-17 0 -0.5 -7t22.5 -7v-3.5v-1.5q5 -3 5 -9q2 0 4 -1q-2 -1 -2 -5q2 0 4 -2q-1 0 -1.5 -1l-0.5 -1v-7.5v-5.5q-11 -9 -18.5 -5.5t-15.5 7.5q-5 -2 -9 -3q-2 -2 0 -4 q-6 -3 -8 -6.5t-5 -6.5v-0.5v-1.5h0.5t2.5 -1v-1v-1q-5 -1 -8 -3.5t-7 -4.5q1 -1 1 -5q-5 0 -7 -1q-3 0 -3.5 0.5l-0.5 0.5q0 6 -1 7q-7 0 -11 3q-1 1 -1 3q-4 0 -9 -1t-9 -2q-3 -7 -4.5 -6t-1.5 -4q-6 0 -11 -5q1 -1 2 -3q-4 -4 -3 -8h-2h-1q0 -3 -3.5 -3.5t-4.5 -5.5 q-10 0 -12.5 -0.5t-5.5 -1.5q0 -3 -1 -4q-6 0 -12.5 -3t-13.5 -6zM96 151q11 3 11 18h-3.5h-2.5q0 -2 0.5 -3l0.5 -1q-2 -2 -2 -4q0 -3 -4 -10z" />
<glyph unicode="2" d="M-41 -49q0 1 -0.5 1h-0.5q0 1 1 1q-2 1 -6 1q1 1 1 3t-2.5 4.5t0.5 5.5l-1.5 0.5l-1.5 0.5q0 -1 3 2q0 1 -0.5 2.5l-0.5 1.5q5 6 8.5 10.5t11.5 7.5q61 60 107 112.5t78 85.5q4 3 6.5 7.5t8.5 6.5q3 7 14 19l11 12q0 3 5 5.5t5 8.5h2.5h4.5q0 2 2 3.5t2 3.5 q-2 0 -2.5 0.5l-0.5 0.5q2 0 3 1.5t3 2.5q-1 1 -1 5q1 1 4 1q2 3 5 7t6 9q3 3 5 8t5 11v2v2q9 3 19 16t18 29t11 29.5t-2 18.5q-15 4 -30.5 -0.5t-28.5 -7.5q0 -1 -1 -2q-3 0 -28 -14.5t-52 -33.5q-15 -12 -38 -32.5t-30 -38.5q-1 -3 -1 -7q-14 -6 -28 7q-1 2 -3 5t4 9 q1 3 8 8q2 0 3 -2q10 17 33 38.5t50 40t53 32t44 15.5q3 5 36 7.5t29 -9.5q9 -3 3.5 -27t-10.5 -33q-12 -32 -49.5 -79.5t-78 -93.5t-73 -82.5t-33.5 -45.5q0 7 21 19t48 22.5t52 18.5t32 9v1v3h17.5h17.5q1 1 3 2q6 -2 12 -2q1 -7 0 -9q10 0 14 -5q-6 -3 -5 -2q0 -2 0.5 -3 l0.5 -1q-5 0 -6 -1q1 0 2 -2q-3 -5 -5 -5v-3.5v-3.5q-1 0 -5 -2v-1v-1q-4 -1 -7 -2t-6 -1l0.5 -1.5l0.5 -1.5q-2 0 -3.5 0.5t-2.5 0.5q0 2 1 4q-1 0 -3 0.5t-2 2.5q0 3 -1 7h-12.5t-12.5 -1q-78 -12 -123.5 -43t-71.5 -58q-6 -15 -28 -27.5t-38 -15.5zM-24 -41q2 0 3 0.5 l1 0.5q0 2 -4 3v-1.5v-2.5zM167 196q7 1 15 7q-3 0 -4.5 1.5t-5.5 1.5q0 -2 1 -3l1 -1q-7 -3 -8 -4q0 -1 0.5 -1.5zM164 191q1 0 2 0.5t4 0.5q-3 4 -6 2v-2v-1zM209 245q0 -3 5 -1q-2 0 -3.5 0.5z" />
<glyph unicode="3" horiz-adv-x="300" d="M-9 -75q-17 4 -26.5 21.5t5.5 21.5q14 -6 30 -6q20 1 60 20.5t79.5 49.5t69.5 65.5t30 68.5q1 34 -30 44q-36 10 -88.5 -5t-72.5 -22q-16 -9 -32 -13.5t-20 0.5q-5 5 -5 10q0 4 6.5 11t27.5 16l39.5 17t86.5 41t85 51.5t36 49.5q-2 18 -33.5 18.5t-67.5 -10.5 q-12 -4 -49 -21t-46 -28q-10 -5 -21.5 -2.5t-12.5 13.5l1 0.5l1 0.5q-1 0 -2 0.5l-1 0.5q0 2 0.5 3.5t0.5 4.5l1 0.5l1 0.5q6 19 44.5 32.5t83 20t81 4.5t39.5 -14q12 0 17.5 -10t-0.5 -18q-24 -35 -76.5 -75.5t-92.5 -56.5q19 6 62 3.5t59 -29.5q5 -8 7 -14q-1 -2 -2 -3 l4 -2q-2 -10 -2.5 -15t-0.5 -14h-2h-2q0 -3 -2 -11q-1 0 -3 -1q0 -5 -1 -9h-3h-3q-1 -2 -2 -6h-2.5h-0.5q-2 -6 -4.5 -10t-2.5 -8q1 0 2 1.5t4 1.5q-1 -3 -3.5 -7.5t-5.5 -5.5v-1.5v-1.5q-4 0 -10.5 -11t-6.5 -14h-2h-2q-3 -9 -11 -14v-1.5v-0.5q-2 0 -3 -2q-5 -8 -8 -8 q0 -1 -0.5 -2.5l-0.5 -1.5q-2 0 -4 -1q-2 -6 -5 -6q-5 -15 -28 -33.5t-53 -35.5t-61 -29t-50 -13z" />
<glyph unicode="4" horiz-adv-x="300" d="M192 -5q-4 11 -0.5 19t1.5 9q9 13 12 48t8 55q-43 18 -101 7.5t-98 -23.5q-13 -4 -18 2q-8 6 -2 17q12 21 49 52.5t51 43.5q6 3 7 3l140 157q6 7 13.5 16.5t12.5 14.5q15 0 16.5 -9t-0.5 -18q-5 -10 -1 -16q-1 -6 1 -12q-7 -2 -8.5 -11t1.5 -13q2 2 2 5q3 0 5 1 q-1 -4 -1.5 -7t-0.5 -6q-2 0 -3 -1l0.5 -1.5t2.5 -1.5q-3 -2 -3 -5q0 -1 0.5 -2l0.5 -1q-1 0 -2 -1t-3 -1q2 -1 2 -3q-3 -6 -6.5 -16.5t0.5 -13.5l-23 -130q1 -2 13 -3t12 -4q12 -12 11 -25q0 -13 -11 -8q-6 3 -18.5 4l-12.5 1q-9 -33 -11 -59.5t-5 -58.5q-1 -6 -7 -10 t-11 -5q-14 0 -15 10zM46 143q33 3 65.5 10.5t68.5 7.5q2 0 19 -1.5t23 -3.5l29 169q3 3 3.5 11t1.5 14h-1.5h-0.5l2 6q-1 3 0.5 5.5t1.5 5.5h-3h-1l-8.5 -8.5t-5.5 -7.5l-145 -157h-3h-2q-1 -1 -1 -6q-3 -1 -4 -1.5t-3 -0.5q-2 -9 -16 -22t-20 -19v-1.5v-0.5zM107 218 q0 3 -2 7q-3 -5 -1 -4.5t3 -2.5zM270 318h0.5h1.5q0 2 1 3t5 1q0 2 -2.5 2.5t-2.5 1.5q-3 0 -3 -8zM273 330q1 1 3 2v1v1q-2 1 -4 1q1 -1 1 -5zM279 347q1 2 1.5 5.5t3.5 3.5v-6t-5 -3z" />
<glyph unicode="5" horiz-adv-x="271" d="M0 6q-3 0 -4 9t-1 13q1 2 4 2q0 12 2 16q6 2 9 -1l7 -7q4 -6 12 -13.5t26 -6.5q25 2 46 8.5t39 14.5q22 9 39.5 24t29.5 33q26 42 21.5 77t-31.5 54q-21 13 -52 14t-67 -15q-3 -7 -17.5 -11t-15.5 -16q-1 0 -2.5 -1l-1.5 -1q-1 -4 -11.5 -13t-13.5 -9v-2v-1q-1 0 -2 0.5 t-1 1.5q-1 -2 -4 -5q-11 0 -15.5 4t-4.5 16q6 2 6 11q11 6 22 31t23 34v5.5v5.5q3 2 5 9q2 0 3 1q3 12 10.5 28.5t10.5 30.5q-6 0 -14 -5.5t-14 -6.5l-1 11q0 12 12 18t25 10q0 4 3 17t4 20q3 0 4 1v1v1q7 5 10 3.5t11 -6.5q-1 -6 -3.5 -15.5t-2.5 -15.5q6 2 21 6t24 7 q9 1 18 2.5t18 4.5q0 1 1 2q9 0 14 -3l0.5 1t0.5 2q7 2 18.5 7.5t17.5 8.5q4 -1 18 5.5t14 -5.5l9 -3q1 -12 -9 -18t-16 -11l-3 1.5t-1 1.5l-78 -15l-75 -21q-4 -36 -19 -57.5t-12 -32.5q-2 -1 -0.5 -3.5t0.5 -2.5q6 -3 20 1.5t24 6.5q68 17 112 -18.5t39 -92.5 q-7 -60 -54 -99t-101 -56q-24 -7 -47 -12q-1 0 -1 -1v-1q-3 0 -33.5 1t-24.5 20z" />
<glyph unicode="6" horiz-adv-x="271" d="M62 -14q-3 3 -14 5.5t-14 2.5q-1 1 -1 2h-2h-1q-3 4 -4 4q-8 0 -9 6q-6 3 -10 11l-1.5 -1.5l-0.5 -0.5q-4 2 -5 7h-0.5h-0.5q-6 23 -7 51.5t18 76.5q20 46 51.5 99.5t52.5 65.5q0 3 2 4h0.5h1.5q0 2 1 3q4 0 7 -1q2 12 9.5 15t7.5 12q12 14 28.5 27.5t36.5 17.5 q4 6 15.5 6.5t18.5 0.5q11 1 13.5 -12t-15.5 -19v-1.5v-0.5q-12 -3 -25 -6t-23 -10q-25 -18 -58.5 -55.5t-61.5 -81t-43 -88t-3 -76.5q1 6 6 8v2v3h2.5h2.5q3 25 34.5 69.5t67.5 74.5q37 33 75 28q23 -4 38 -24t15 -55q1 -35 -17.5 -67.5t-49 -56.5t-67.5 -37t-71 -9zM33 34 q7 -22 37 -25q22 -3 51 5.5t55 27.5l0.5 1t0.5 3q2 0 3 0.5t3 0.5l1 1t1 2q1 2 5 2v0.5v1.5q6 0 9 9q31 23 41.5 69t-7.5 65q-4 0 -9.5 4.5l-5.5 4.5v-3v-1h-4h-1l-0.5 1t-0.5 3q-2 1 -5 1q-1 -1 -1.5 -3t-1.5 -2q-29 2 -57.5 -18t-51 -45.5t-36.5 -49t-15 -27.5 q-1 -3 -1 -8q-1 0 -2 -0.5t-2 -0.5q-2 -3 -4 -9.5t-2 -9.5zM124 306q1 1 3 4.5t3 3.5q-2 0 -5 1t-3 3q0 -2 1 -6.5t1 -5.5z" />
<glyph unicode="7" horiz-adv-x="271" d="M21 -3q0 3 -4 3v0.5v1.5q-2 0 -3 2q-2 1 -2.5 3t-0.5 4l0.5 0.5t2.5 0.5v2v2h-3.5h-1.5q4 44 16.5 72t42.5 74q-15 0 -25 -12t-26 -13v-1.5v-1.5l-3 -1.5t-2 -0.5h-0.5t-0.5 1q0 -3 -1 -4q-16 0 -19 15q0 13 9 22q12 14 42 23t42 12h3h3q2 5 7 7q16 23 23.5 36t21.5 33 q3 1 5 6t4 0l10 14t22 31t21.5 31.5t9.5 15.5q-74 -4 -149 -14q0 -2 -1 -3q-23 0 -25 -1t-21 2q-15 5 -13 23q2 12 12 12q8 0 15.5 1.5t15.5 -0.5l0.5 -0.5l0.5 -0.5q58 0 111.5 6t116.5 11v-0.5t1 -0.5l6 4v0.5v0.5h13.5t12.5 -3q7 -4 5 -22q-4 -2 -8 -4.5t-12 -5.5 q-3 -10 -10 -10t-7 -7q-2 3 -4 5q-13 0 -32 -13t-22 -25h-2.5h-2.5q-2 -6 -2 -9q-6 0 -5 -3q-9 -9 -37.5 -45t-37.5 -45q-3 -4 -4 -8.5t-2 -7.5q12 1 28 1.5t30 3.5q8 0 8 -2.5v-4.5v-2v-1q-2 -1 -7 -1q-1 -2 -1 -5h-5.5h-3.5q2 1 2 5h-3h-3q-4 -6 -16 -10q-6 -3 -13 -4 t-13 -1v-2.5v-1.5h-5h-3q-4 0 -11.5 -7.5t-20.5 -31.5q-12 -21 -24.5 -44t-7.5 -38q12 0 10 -18q-3 -11 -9 -23t-10 -16q-2 0 -4.5 -1t-3.5 -1l-3 -3h-0.5h-0.5l-0.5 1t-0.5 2q-4 0 -5 -1q1 -1 1 -5q-6 -1 -11 -4z" />
<glyph unicode="8" horiz-adv-x="293" d="M-3 25q-7 10 -4.5 27.5t11.5 36.5q3 9 24.5 39.5t65.5 57.5h1.5h2.5v1v3q3 0 6 1.5t6 2.5q0 3 2 5.5t5 6.5q-1 8 0 11q-1 0 -2 0.5l-1 0.5v4.5v3.5h-0.5h-0.5q-2 7 -3 13q-2 0 -3 1q0 3 -1 6.5t0 8.5h0.5h1.5q3 -6 4.5 -11t10.5 -4q0 -5 3 -10h0.5h1.5q0 1 1 3h0.5h2.5 q1 -3 3 -7l-1.5 -1.5l-0.5 -0.5q5 0 9 1q-2 0 -2 0.5v0.5q3 1 11.5 7t8.5 9q10 3 30 19t40 37.5t34 43.5t12 37h-1h-1q-1 3 -1 5q-4 7 -17 11v-1.5v-0.5q-24 12 -55 12t-58 -11q0 -1 -0.5 -3l-0.5 -2h-2.5h-0.5v0.5v0.5h-1.5h-0.5v-0.5v-0.5h-3h-1v-1.5v-1.5q-2 -3 -7 -3 v-1.5v-1.5q-2 0 -3 -0.5l-1 -0.5v-1v-1q-9 -3 -16 -18t-10 -22q-1 -2 -1 -8q0 -19 5 -31h0.5h1.5q1 -4 1 -11h-0.5h-0.5q-1 -3 -1 -8q-1 -5 -18 -9t-21 20q-4 10 0 20q1 7 4 12t3 9q1 36 28.5 59t64.5 32q33 7 66.5 2.5t57.5 -22.5q11 -10 14 -18q5 -10 0 -27q-2 0 -2 -1v-5 v-4h-4.5h-3.5q0 -2 2 -4q2 -3 -31 -38.5t-67 -65.5q-9 -6 -23.5 -17.5t-24.5 -19.5q9 -15 21.5 -56.5t10.5 -77.5q-5 -28 -36 -46q-36 -19 -83 -21t-62 24zM18 39q9 -21 55 -14.5t65 21.5q25 21 15 58.5t-18 60.5l4 2q2 4 3 5h-4h-1v-2v-1h-3.5h-0.5q0 2 -2.5 6.5t-3.5 4.5 q0 3 1 5q-2 -2 -5 -2v-2.5v-2.5h-3h-3v-2.5v-1.5q-3 1 -6 1l3 -6q-17 0 -36.5 -18t-34.5 -40.5t-23 -44t-2 -27.5zM134 178h1.5h3.5q-1 1 -1 2v1q-1 1 -4 -3zM139 185l0.5 2.5t2.5 3.5l1.5 0.5t1.5 1.5q-2 1 -8 1q2 -2 2 -9z" />
<glyph unicode="9" horiz-adv-x="293" d="M91 4q-13 2 -6 17q0 3 4 7q1 2 3 2q-1 2 -1 4q1 2 4 2q-1 1 0.5 1.5t1.5 3.5l83 197q2 4 3 7q-1 0 -1.5 0.5l-0.5 0.5q-1 0 -3 -1q-9 -7 -20.5 -15.5t-22.5 -12.5q0 -3 -0.5 -3h-0.5q-1 -1 -4 1q0 -2 -1 -2q-1 -3 -8 -3l-2.5 -2.5l-0.5 -0.5h-8q0 -3 -2 -3h-8 q-3 -4 -5 -2q-9 -3 -29 -3q-37 0 -54 17.5t-20 42.5t6.5 53.5t27.5 49.5q21 24 56.5 46t82.5 19q15 -3 26 -11q9 -2 20 -13t13 -20l0.5 -0.5l0.5 -0.5q5 -17 3 -26q15 -5 18.5 -12t0.5 -19h-1.5h-0.5q-5 -11 -6 -23l-0.5 -0.5t-0.5 -1.5l-26 -60v0.5v1.5h-3h-1v-6 q-7 -5 -11.5 -10.5t-2.5 -15.5q1 0 2 1.5t5 11.5q6 -8 -2.5 -15t-12.5 -10q-1 -4 -2.5 -8t-1.5 -7h-1h-1q-2 -2 -2.5 -4l-0.5 -2q4 -1 13 10h0.5h0.5l-59 -146q-3 0 -4.5 -1.5t-3.5 -1.5q0 -5 -0.5 -6t-0.5 -2q-1 -8 -6.5 -19.5t-25.5 -6.5zM158 137q5 10 11 19h1h1 l0.5 -0.5l0.5 -0.5q-3 -4 -4 -6t-1 -7q-6 -4 -9 -5zM79 222q48 6 80.5 32.5t41.5 50.5q0 2 -1 3t-1 2l-0.5 -0.5l-0.5 -0.5q-20 3 -23 7.5t-1 19.5h1.5h4.5q0 4 6 9q3 3 8 3q0 4 3 5q1 20 -7 32t-19 17q0 2 0.5 4.5t0.5 4.5h-1.5h-0.5q-3 -2 -4 -6q-1 0 -1 1 q-15 0 -28.5 -1.5t-28.5 -5.5q-18 -8 -35 -21t-25 -31q-2 1 -6 1q0 -5 -20.5 -35.5t-5.5 -65.5q1 0 2.5 -0.5t3.5 -0.5q-1 0 -1 -0.5v-0.5q0 -1 1 -1.5l3 -1.5q4 -13 22.5 -18t31.5 -2zM202 225q0 3 1 5h0.5h2.5q-2 -2 -4 -5zM182 250q4 0 4 6q-1 -1 -1 -2q-2 1 -3 1v-4v-1z " />
<glyph unicode=":" horiz-adv-x="69" d="M59 203q-1 0 -0.5 3l0.5 3q-2 -3 -1.5 -5.5t-0.5 -4.5q-3 -4 -17 -4t-20 11q-2 1 -1 4.5t1 6.5q-6 3 -4 1v6q3 3 2.5 6t2.5 6q2 4 12 8h4.5h4.5l0.5 -1t1.5 -1q12 -1 11 -0.5t5 -3.5q9 -10 6 -23q-1 -6 -4 -9.5t-3 -2.5zM59 60q-1 1 -0.5 4.5t0.5 1.5q-2 -2 -1.5 -5 t-0.5 -4q-3 -3 -17 -4t-20 11q-2 1 -1 4t1 6q-2 1 -4 1v7q3 2 2.5 5.5t2.5 6.5q4 8 12 8h4.5h4.5q-1 -1 2 -1q12 -1 11 -1t5 -4q9 -10 6 -23q-1 -6 -4 -9.5z" />
<glyph unicode=";" horiz-adv-x="69" d="M59 149q-1 0 -0.5 4t0.5 2q-2 -2 -1.5 -4.5t-0.5 -5.5q-3 -3 -17 -3.5t-20 11.5q-2 1 -1 4.5t1 6.5q-6 3 -4 1v6q3 2 2.5 5.5t2.5 6.5q3 7 12 9q3 0 4.5 -0.5t4.5 0.5l0.5 -1t1.5 -1q12 0 11 0t5 -5q9 -10 6 -24q-1 -6 -4 -9zM-20 -63v2v2q3 2 5 8q0 2 -0.5 2h-0.5 q9 14 16.5 27t13.5 28q6 4 5.5 10.5t8.5 10.5q0 5 2 6q3 1 12 1q3 -3 6 -5.5t7 -7.5q-2 -4 -4 -9.5t-5 -6.5v-1.5v-1.5q-10 -4 -16 -15.5t-15 -16.5q0 1 -0.5 1.5t-0.5 1.5q-5 -5 -8 -6q1 -2 5 -2q-4 -7 -7 -7q-3 -6 -7 -5q-3 -8 -10 -10q0 -4 -1 -6q0 2 -1 4q-1 -1 -2.5 -2 t-2.5 -2z" />
<glyph unicode="&#x3c;" horiz-adv-x="306" d="M263 16q-2 5 -6 7q0 2 0.5 3.5t0.5 4.5q-3 1 -5.5 2t-5.5 3v0.5v0.5q-32 18 -64 31q-3 5 -25 15t-31 14v1.5v1.5q-6 2 -11 4.5t-10 5.5v0.5v1.5q-16 6 -41 24.5t-40 18.5q0 1 1 3q-8 2 -11 3q0 -2 -1 -3q-2 1 -4 3q-8 0 -11 1q0 4 1 5q-3 3 -8 3q0 3 1 4.5t1 3.5h-1t-2 2 l0.5 0.5l0.5 0.5h2.5h0.5q0 3 2 5q-5 2 -5 10q0 2 2 2q-3 8 6 10q0 3 2 7q1 0 2 -0.5t2 -0.5l0.5 1.5t0.5 2.5q6 -3 9 0l6 6q15 -4 30 5.5t30 11.5q2 3 4 5q3 -1 6 -1q1 0 3 5q0 -3 2 -3q0 5 5.5 7t10.5 3v0.5v0.5q1 0 10 3v0.5v1.5h1.5h2.5q0 2 4 3t7 4v0.5v0.5q9 1 11 7h2 h3q3 3 6.5 4.5t5.5 4.5q6 0 13.5 4t10.5 9q2 -1 15 7.5t14 11.5q2 0 3 -0.5t2 -0.5l0.5 1l0.5 1h1.5h1.5q2 4 3 5h1.5h1.5q0 1 1 2h0.5h2.5q3 8 12 14t15 15q1 0 3 0.5t4 1.5q0 1 1 3q4 0 6.5 3t8.5 3v0.5t1 1.5q3 -2 7 -4t8 -3q-1 -9 -0.5 -16t-9.5 -9v-1v0q-2 -2 -5 -6h-2 h-1q0 -1 -1 -2.5l-1 -1.5q-5 -2 -6.5 -5t-7.5 -3v-3v-1q-3 0 -4 0.5l-1 0.5q-3 -3 -3 -9q-3 3 -7 3q-3 -6 -10 -6q-1 -3 -2 -4.5t-1 -3.5q-2 0 -3 -0.5t-3 -0.5l1 -0.5l1 -0.5v-1v-2q-6 0 -9 -2t-7 -4v-1v-1q-4 0 -5 1q-5 -7 -13 -5q0 -2 -1 -4q-9 -3 -17 -9t-17 -9 l-0.5 -0.5t-1.5 -0.5q-6 -3 -10.5 -6.5t-10.5 -3.5q-1 -3 -13 -8.5t-15 -3.5q0 -3 -1 -4q-1 1 -3 1q-3 -4 -4.5 -3.5t-4.5 -0.5v-1.5v-0.5q-3 -1 -5.5 -2.5t-4.5 -1.5q-3 -3 -3 -5q-3 2 -8 -1q-2 0 -2 -2q-1 0 -18.5 -8.5t-17.5 -10.5q1 -1 3 -1v0v-2q0 -1 5 -3l-2 -2 q12 -8 19 -13q-1 0 -1 -0.5v-0.5q12 -8 24.5 -15.5t27.5 -11.5q-1 0 -1 -2q1 -3 3.5 -4.5t5.5 -4.5q1 0 3 4q3 -3 6.5 -5t14.5 -6v-2.5v-0.5h-4h-1q4 -6 10 -7q2 1 2 3q2 0 6 -2v-6q18 -8 20 -17q3 0 13 -4.5t14 -7.5q1 0 1 -2q9 -2 17.5 -6.5t17.5 -7.5l-0.5 -0.5t0.5 -0.5 q11 -5 21 -9t21 -10q-2 -2 -2.5 -3l-0.5 -1q4 -4 4 -11l0.5 -0.5t1.5 -0.5q0 -4 -5 -4q2 -1 0 -5q-2 0 -3.5 0.5t-3.5 0.5v-1.5v-0.5q-5 0 -10 -3v-1v-1q-2 0 -4.5 0.5t-5.5 0.5z" />
<glyph unicode="=" horiz-adv-x="195" d="M14 207q-13 0 -14 13q0 8 5 13l1 0.5t3 0.5l0.5 0.5t0.5 1.5l154 -1v-1.5v-0.5q6 -2 13.5 -3t13.5 -5q-7 0 -14 -3q-16 2 -28 -3q2 0 4 -1h-6h-5q-6 2 -8 4q-7 -7 -24 -7q-8 -1 -15 -0.5t-11 0.5l-1 -1l-1 -1zM14 273q-13 0 -14 14q0 7 5 12l1 0.5t3 0.5l0.5 1t0.5 2 l154 -1v-2.5v-0.5q6 -1 13.5 -2t13.5 -5q-4 0 -14 -4q-15 2 -28 -2q2 0 4 -2h-6h-5l-4.5 1.5t-3.5 2.5q-6 -6 -24 -6q-8 -1 -15 -0.5t-11 0.5l-1 -1t-1 -2z" />
<glyph unicode="&#x3e;" horiz-adv-x="306" d="M32 16q-3 0 -5.5 -0.5t-5.5 -0.5v1v1q-4 4 -9 3q0 1 -1 2q-2 0 -4 -0.5t-3 -0.5v3.5v1.5q-4 0 -4 4l0.5 0.5l0.5 0.5q0 2 0.5 5t3.5 6q0 2 -1 4q9 6 19.5 10t22.5 9v0.5v0.5q9 3 17.5 7.5t17.5 6.5v1v1q4 3 14.5 7.5t14.5 4.5q1 6 7 10t12 7v2v4l6 2q0 -2 2 -3q6 1 11 7 h-3.5h-1.5v0.5v2.5q9 4 13 6t8 5q0 -2 2 -4q6 6 10 9l-0.5 1l-0.5 1q13 4 26 11.5t25 15.5l-0.5 0.5l-0.5 0.5q4 3 9 6.5t8 6.5l-0.5 0.5t-0.5 1.5l2 0.5t3 2.5q-1 3 0 2q3 0 3 1q0 2 -17.5 10.5l-17.5 8.5l-0.5 1l-0.5 1q-6 3 -9 1q-2 4 -2 5q-3 0 -6 1.5t-4 2.5l-0.5 0.5 t-0.5 1.5q-3 1 -4.5 0.5t-4.5 3.5q-2 0 -4 -1q0 2 -1 4q-2 -2 -14.5 3.5t-12.5 8.5q-6 0 -10.5 3.5t-11.5 6.5v0.5v0.5q-9 3 -17.5 9t-18.5 9v2v2q-8 -2 -12 5q-1 -1 -5 -1q0 2 -1 2q-10 6 -15 6q0 3 -1 3q1 1 2 1q-2 0 -4 0.5t-3 0.5q-3 7 -3 8q-7 0 -9 6q-4 0 -8 -3l-3 9 q-2 0 -3 -0.5l-1 -0.5q0 2 -1 4q-6 0 -8 3t-6 5q-1 0 -1.5 1.5t-0.5 2.5h-3h-1q-3 4 -5 6h0.5t0.5 1q-9 2 -8 9t-2 16q4 1 7.5 3t7.5 4q0 -1 0.5 -1.5l0.5 -0.5q6 0 8 -3t7 -3q0 -2 1 -3q2 -1 3.5 -1.5t4.5 -0.5q4 -9 13.5 -15t14.5 -14h0.5h2.5q0 -1 1 -2h0.5h1.5 q3 -3 3 -5h1h2v-1t2 -1l1 0.5t2 0.5q2 -3 14.5 -11.5t16.5 -7.5q2 -5 9.5 -9t12.5 -4q3 -3 7 -4.5t7 -4.5h1h4q1 -5 10 -7l0.5 -0.5l0.5 -0.5q1 -3 5.5 -4t5.5 -3h0.5h1.5l1.5 -1.5l0.5 -0.5q2 -1 4 -1.5t5 -1.5v-0.5v-0.5q14 -3 16 -10l3 3q0 -3 2 -5q4 0 5 1q3 -2 5 -5 q15 -2 28.5 -11.5t30.5 -5.5q3 -3 5 -6t10 0q0 -3 1 -4l1.5 0.5t2.5 0.5q3 -6 4 -7q6 -2 6 -10l0.5 -1l0.5 -1q-2 -9 -5 -10q0 -1 0.5 -3t2.5 -2h0.5h1.5v-0.5v-0.5q0 -2 -2 -2l2 -8q-5 0 -7 -3q0 -1 0.5 -2t0.5 -3q-5 -1 -12 -1q-2 -1 -3 -2t-2 -1v1v2q-8 -2 -11 -3 q0 -2 1 -3q-16 0 -40.5 -18.5t-40.5 -24.5q1 -1 1 -2q-6 -3 -11.5 -5.5t-9.5 -4.5v-1.5v-1.5q-9 -4 -32 -14t-26 -15q-16 -7 -32.5 -15t-31.5 -16v-0.5v-0.5q-3 -2 -5.5 -3t-5.5 -2q0 -5 1 -8q-4 -2 -6 -7z" />
<glyph unicode="?" horiz-adv-x="287" d="M22 -14q0 1 1 3h-3h-9q-9 5 -9.5 13.5t-1.5 17.5q3 12 14.5 20.5t45.5 12.5l1 0.5l1 0.5h0.5h1.5v-0.5v-0.5q19 0 16 -13.5t-6 -24.5q0 -17 -22.5 -23.5t-29.5 -5.5zM28 9h2h2v0.5v1.5q9 0 15 9q-5 0 -14 1t-12 -1q0 -5 1 -6q-3 -9 6 -5zM11 117q-6 1 -5.5 8t5.5 9 q2 6 21 24.5t25 23.5q19 17 44.5 39t49.5 42.5t43 37.5t25 26q4 5 7 5v1.5v1.5q-1 0 -1.5 0.5l-0.5 0.5l0.5 1l0.5 1l0.5 1t2.5 1q0 1 3 2t3 3q16 18 24 42t-2 40q-13 18 -44.5 10.5t-49.5 -12.5q-3 -3 -17 -10t-16 -13h-1h-1q0 -1 -0.5 -1.5l-0.5 -0.5q-8 -3 -8 -6 l-0.5 -0.5l-0.5 -0.5v-0.5v-1.5q-16 -9 -20 -27.5t-22 -21.5q-12 -3 -14 5t2 11q7 21 20 33.5t30 24.5q9 6 46 23t72 16q25 0 34.5 -6.5t17.5 -18.5q4 -10 1 -27.5t-16 -32.5q-5 0 -5 -8q-1 -1 -3 -1q-4 -9 -6 -9q-2 -5 -5 -8.5t-3 -6.5q-9 0 -20 -20.5t-20 -23.5 q-2 -3 -4 -4.5t-3 -4.5h-1h-1v-1v-1h-1.5h-1.5v-2.5v-1.5q-3 0 -9 -6t-7 -9q-1 -1 -2 -1.5l-1 -0.5v-1v-2h-2.5h-1.5v-2.5v-1.5h-3h-2v-3v-1q-2 0 -4 -1q-1 -3 -20.5 -19.5t-42 -35.5t-41 -36t-16.5 -21q-1 0 -8 -7l3 -3q9 -12 20.5 -9t29.5 4q7 3 13.5 0.5t6.5 -5.5 q0 -5 -2.5 -9.5t-12.5 -1.5q-6 0 -37.5 -6.5t-43.5 17.5zM192 278q1 1 1 4h-2h-1v-1.5v-1.5l0.5 -0.5t1.5 -0.5z" />
<glyph unicode="@" horiz-adv-x="259" d="M79 -40q-3 2 -3 3q-1 -1 -3 -1v0.5t1 0.5q-3 0 -3 -1q-5 2 -13 2q-3 3 -12 6.5t-13 3.5v1.5v0.5q3 0 8.5 -3t6.5 -3v-0.5v-0.5h1h3q-3 3 -11 7.5t-10 4.5l-0.5 -0.5l-0.5 -0.5q2 -2 2 -4q-1 2 -6 4l1 0.5t3 0.5q-9 0 -10 6v1v1q-6 3 -10.5 10t-5.5 13q0 1 -1 1.5l-1 0.5 q-1 3 -1.5 8.5t-0.5 9.5h-0.5h-0.5q-1 4 -4 17.5t0 16.5q-3 9 -3.5 23t-0.5 23q3 1 3 9h-1h-1q3 1 4 15t1 19l4 4l-0.5 0.5t-0.5 1.5h0.5h1.5q0 3 -2 9q3 0 4 4.5t1 7.5h-0.5t-0.5 3q1 0 3 6t3 8h0.5h1.5q0 5 1 8t3 8h1h3q0 6 1.5 11.5t8.5 9.5h-0.5t-1.5 2q0 1 7.5 9.5 t11.5 8.5q0 2 1 4h0.5h1.5q0 9 8 11v0.5v0.5q3 1 6 3t9 3v1.5v1.5q1 1 3 1v0.5v1.5q3 -1 4 -1h1q-1 2 -1 2.5v0.5q2 1 5 1q4 6 14.5 5.5t12.5 6.5q6 0 13.5 2t13.5 2l-0.5 -0.5l-0.5 -0.5q0 -2 4 -3l1.5 0.5t2.5 2.5v0v1h2.5h2.5q0 -1 2 -1v0.5t3 0.5q0 -3 9 -5t11 -3 q0 2 1 3h0.5t2.5 1q-3 -3 -3 -6l1.5 -0.5t2.5 -0.5v-1t1 -1h0.5h2.5l-1 -0.5l-1 -0.5q6 -2 5 -2q0 -1 1 -1.5t1 -1.5h0.5h2.5q0 -3 5.5 -6t5.5 -5q1 -1 4 -7h1h3v-2.5v-1.5q1 0 5 -4l-1 -0.5l-1 -0.5q2 -1 4 -1v-2v-2h0.5h0.5q0 -1 2 -2l0.5 -0.5l0.5 -0.5v-1.5v-1.5h0.5 h1.5q0 -3 2.5 -6t2.5 -6l0.5 -0.5t2.5 -0.5v-1.5v-1.5q5 -6 8.5 -18t4.5 -20l0.5 -0.5t2.5 -0.5q0 -3 1 -5v0h1q0 -5 3 -9q-2 -1 -2 -3h1h2q0 -9 1.5 -16t1.5 -14l-0.5 -0.5l-0.5 -0.5q2 -4 1.5 -8t-0.5 -7q-2 0 -2 -1q0 1 2 -3q-2 -2 -2 -5.5t-1 -5.5q0 -3 -5 -5l0.5 -0.5 t1.5 -0.5q-1 0 -1.5 -0.5l-0.5 -0.5q0 -4 -4 -9.5t-7 -5.5q0 -9 -9 -9v-2v-1q-4 0 -5 -3q0 -3 -4.5 -5t-7.5 -2q-5 -7 -11 -7q-3 -6 -13 -6.5t-14 -0.5v1v1q-3 2 -8 2q-1 0 -1.5 1.5t-0.5 2.5q-1 1 -3 1v1v1q-3 4 -3 8q-3 1 -3.5 4t-1.5 4q-7 -3 -12 -8.5t-12 -8.5 q-1 0 -1 -2h-1.5h-0.5q-1 0 -1 -1h-3h-1v-2.5v-0.5q-8 -1 -10 -1q-1 -1 -1 -3q-5 0 -10.5 -1t-9.5 -1q0 1 -1 2l-0.5 -0.5l-0.5 -0.5v-0.5v-0.5h-6h-5q0 1 -2 2h-4.5h-5.5l-0.5 1t-0.5 2q-7 0 -7 4q-7 0 -13.5 7t-6.5 13h-1.5h-0.5v1.5v0.5q-2 1 -3 1l0.5 1l0.5 1q0 1 1 1.5 l1 0.5q-4 3 -5 8t-1 11h0.5h1.5q0 4 -0.5 8t-0.5 10q4 0 2 8h1.5h1.5v0.5v0.5q1 2 2 2q-1 1 -1 3h1h3v3v3l3 3v0.5v1.5q3 3 6 11q2 0 3 1t2 1q2 2 3.5 2.5t4.5 3.5l-0.5 0.5t-0.5 1.5q1 0 3 4l0.5 0.5t2.5 0.5l1 2t2 3v-0.5v-0.5q2 1 3.5 1.5t4.5 2.5v0.5v0.5q3 0 6 2.5 t7 2.5l1 1l1 1l0.5 0.5l0.5 0.5v1t1 1h2h3q3 7 13 6.5t16 -0.5v-1.5v-1.5q7 3 16 3q0 -1 -0.5 -1h-0.5l4 -0.5t4 -3.5q1 0 2 -0.5t3 -0.5v-1v-1q2 0 3 -2l0.5 0.5l0.5 0.5h1h1v-1v-1h1h2q0 -4 4 -4h6q1 3 4 6q1 1 2 1v1v1h3h4v-3.5v-0.5v0.5v0.5h0.5h1.5q2 -4 4 -6 q-3 -1 -3 -8v-10q3 -2 -1.5 -16t-4.5 -16h-2h-2v-0.5v-1.5h1.5h1.5q-3 -7 -11 -23t-1 -22q0 -12 9 -14v-0.5v-0.5h2.5h2.5q0 1 9 4v0.5v1.5q1 0 3.5 0.5t5.5 2.5l-0.5 0.5t-1.5 0.5q3 1 8 1q0 4 3 5q0 1 2 3l0.5 0.5t1.5 0.5v0.5v0.5h1.5h1.5q1 3 6 9t8 6q0 1 2 6q1 0 1 1 q3 9 2 11q3 6 3 12.5v14.5v0h1q0 1 -0.5 2l-0.5 1l-1 0.5l-1 0.5q0 4 -0.5 7.5t-0.5 8.5h-1v0q0 5 -2 10.5t0 12.5h-3h-1v2v2l-0.5 0.5l-0.5 0.5q-3 3 -4.5 7t-3.5 8h-0.5t-0.5 1v1v1l0.5 0.5t1.5 0.5h-2h-1q-4 6 -4 8v8q-4 2 -6 0q0 5 -7 11q0 4 -2 7h-2h-1v0.5v0.5 q2 0 3 2h-1.5h-0.5q-1 1 -1 2q-7 2 -7 8q-1 0 -2 0.5l-1 0.5q0 2 -3 3t-3 5h-3h-1v1v1q-3 0 -5 1.5t-5 1.5v1.5v1.5h-0.5h-0.5v0.5v0.5h-2.5h-2.5q-13 3 -25.5 1.5t-25.5 -2.5v-1.5v-1.5h-2.5h-1.5q-3 -5 -15.5 -7t-15.5 -9q-1 0 -2.5 -0.5l-1.5 -0.5v-0.5v-0.5q-1 0 -2 -1 q-3 -3 -5 -3v-1.5v-0.5q-3 0 -3 -2q-1 0 -1 -0.5v-0.5l-6 -3q-5 -6 -6 -7q-3 -6 -10 -12.5t-10 -14.5v0v0q-6 -12 -7 -21q-2 -1 -2.5 -1h-0.5q0 -2 -2 -10q-4 -1 -4 -4v-6h-1v0q-1 -2 -1 -6h-2.5h-0.5q0 -5 1 -6q-4 -2 -3.5 -7t-1.5 -8q1 -3 -1 -16t-2 -18h-2.5h-0.5v-21.5 t1 -21.5h1h2q-3 -7 -2 -14t2 -12h0.5h1.5q0 1 2 2v-2v-1q-4 0 -2 -6l-1 -2v0q0 -1 2.5 -8t2.5 -9h1.5h2.5q-1 0 -1.5 -0.5t-1.5 -0.5q4 -3 4 -9q0 -1 1 -1h1q0 -1 1 -2.5t2 0.5q0 -4 4 -5q0 -3 2.5 -4t3.5 -4q4 -2 7 -2q1 -5 8 -5q0 -1 0.5 -2t0.5 -2h1.5h3.5v-1v-3 q5 0 13 -3q12 2 24 0.5t24 1.5q0 1 1 1v0v-1q8 3 9 4q11 0 17 2q0 1 1 1.5t1 1.5q6 0 11 1v0.5v0.5q3 0 6 1.5t7 1.5v1.5v0.5q6 3 12 3.5t12 2.5q0 -1 0.5 -1.5l0.5 -0.5h1h1q0 2 8 6l0.5 -0.5l0.5 -0.5v1v3h0.5h0.5v-3v-1q3 0 6 3.5t9 3.5v-1.5v-0.5l-0.5 0.5l-0.5 0.5 q-7 -6 -9 -6v-1.5v-1.5q1 0 -5 -2v1v3q-2 -2 -5 -2q0 -1 0.5 -1.5l0.5 -0.5h2h2q-7 -4 -11 -4q-1 -3 -7 -5t-9 -4v-0.5v-0.5q-1 0 -2 -0.5t-2 -0.5v-0.5v-1.5q-9 -3 -17.5 -8t-17.5 -5v-0.5v-0.5h-3h-2q-2 -1 -9.5 -2.5t-10.5 -1.5l-0.5 1l-0.5 1h-0.5h-0.5q0 -2 1 -3 q-4 0 -9.5 -0.5t-7.5 0.5q-4 -1 -7 -1h-6q-1 -1 -2 -3zM98 -35h2h1q0 3 1 4h-1.5h-0.5q0 -2 -2 -4zM92 -33q4 0 5 2h-2.5h-2.5v-1v-1zM55 -33h2h2q0 2 -1 3q0 -1 -3 -1v-0.5v-1.5zM108 -31q4 0 4 2q0 -1 -4 -1v-0.5v-0.5zM148 -26h0.5h0.5v1.5v0.5h-0.5h-0.5v-0.5v-1.5z M183 -5h3.5h4.5v0.5v0.5h-4.5h-3.5v-0.5v-0.5zM14 25v1v4q0 -2 0.5 -3.5l0.5 -1.5h-0.5h-0.5zM82 70q3 3 13 1t12 4q4 -1 10 -1q-1 0 -1 0.5v0.5v0.5v0.5q6 2 14.5 10.5t13.5 8.5l-0.5 0.5l-0.5 0.5q2 1 6 4t4 6h0.5h1.5q0 5 4 7q-3 3 -2 9t4 8q-5 7 0 18.5t3 20.5 q-6 4 -6 8q-2 1 -3 1q-1 2 -3 3t-2 4h-1.5h-0.5l1 0.5t2 0.5v0v0q-10 0 -26 2t-23 -7q-11 -2 -13 -7q-3 -2 -6.5 -4.5t-6.5 -2.5v-2v-1q-2 -2 -4.5 -3.5t-2.5 -2.5h-2.5h-1.5q0 -2 0.5 -3l0.5 -1q-7 -3 -8 -10h-2.5h-1.5q2 -3 -1.5 -9t-5.5 -6q1 -1 2 -1q0 -2 -1.5 -10 l-1.5 -8q0 -3 3 -12t3 -12h0.5h1.5q0 -2 1 -4q1 0 2 -0.5t2 -0.5v-1.5v-0.5h1.5h2.5v-0.5v-0.5q2 -2 9.5 -4t9.5 -4zM7 87q-1 1 -1 2v1l0.5 0.5l0.5 0.5v-2.5v-1.5zM14 148v5.5v6.5q1 0 2 -1q-1 -10 -2 -11zM215 249h1.5h1.5q-1 0 -3 2v-1.5v-0.5zM97 289q1 0 1 1q-1 0 -2 2 q0 -2 0.5 -2.5z" />
<glyph unicode="A" horiz-adv-x="379" d="M364 434q1 0 2 1t2 1q0 2 1 3q-6 -2 -5 -5zM194 159q5 0 20 5.5t16 7.5q1 -1 9 -1v0.5v2.5l6 2q-3 2 -1 4q6 -5 25 0t28 6l5 15.5t12 34.5t13 36.5t8 21.5l6 21l6 21q8 1 7 16t10 25q-3 0 -5 2h2h2q0 8 3 14.5t4 13.5q3 9 -2.5 10t-10.5 -8q-1 1 -21 -31.5t-47 -75 t-54 -84.5t-41 -59zM220 -122q-6 7 -8.5 16.5t5.5 15.5q-3 1 -3 4q8 3 3 11l1 0.5t2 0.5q0 57 23.5 117.5t44.5 114.5q2 2 4 2v1v3q-5 3 -22.5 -2t-23.5 -6h1.5h2.5q-16 -3 -32 -9t-31 -12v-0.5v-0.5q-16 -4 -31.5 -22.5t-35 -41t-45.5 -43t-63 -27.5v0v-1q-20 1 -20.5 14.5 t9.5 12.5q44 -3 75.5 27t57.5 60q-13 0 -25 -8.5t-24 -8.5q-2 -2 -3 -2q-3 0 -6.5 -2t-6.5 -2q0 -3 -1 -4q-5 -1 -10.5 -3.5t-9.5 -2.5q-3 -4 -8.5 -4.5t-8.5 -0.5q0 5 -2.5 9t-2.5 8q80 28 104 39.5t40 14.5q18 15 46.5 58t56 88.5t48.5 82.5t24 41q2 0 2 1t6 3q0 3 4 8.5 t6 10.5q8 23 23 31.5t24 -4.5q4 -9 -0.5 -20.5l-4.5 -11.5l1 -0.5l1 -0.5q-2 -13 -9 -15q2 -9 -7.5 -21.5t-5.5 -17.5l-8.5 -19.5t-8.5 -23.5q4 -1 6 -2q-1 -3 -4 -4q0 -3 2 -5q-2 0 -3 -0.5l-1 -0.5l-5.5 -20t-8.5 -20l-6 -14l1 1.5t1 2.5h-2.5h-0.5q-5 -22 -17.5 -48.5 t-15.5 -32.5q18 0 38 8t39 8q5 -5 9 -6v-5.5v-4.5l-4 -2q-1 -1 -1 -4q-10 -3 -11 -5q-12 0 -40.5 -2t-35.5 -11q-1 -1 -17 -39t-31.5 -84t-23 -85t9.5 -44q0 -5 -0.5 -9.5t-0.5 -9.5q-3 0 -4 -2q0 -1 -0.5 -3t-0.5 -5q-7 -3 -6.5 -5.5t-13.5 -4.5z" />
<glyph unicode="B" horiz-adv-x="335" d="M-43 -84q-6 1 -19 1v2.5v0.5q-6 1 -9 6t-8 6v1.5v1.5t2 1q0 1 -1 1h-1q0 5 1 6h-0.5h-1.5q3 7 9 20t9 13q0 5 1 8h1.5h1.5q1 3 3 5t2 5q6 2 11.5 8.5t10.5 12.5v0v0q5 3 10 7t6 6q-4 -3 2 4t12 10l0.5 -0.5l0.5 -0.5v1q9 33 13.5 49t17.5 46q-1 0 -1 2.5v2.5q1 6 6.5 19 t10.5 19l-1 0.5t-2 0.5v0.5v0.5q4 3 6 10h1.5h1.5q0 7 4 15q-12 -4 -19 -1q1 1 1 2h-1.5h-0.5q0 10 -1 14t10 7q-6 3 7 12.5t21 9.5q0 4 3.5 13.5t3.5 13.5q-3 0 -3 0.5v0.5q0 1 1.5 4.5t4.5 3.5q0 -5 0.5 3t0.5 9l2.5 3.5t3.5 5.5q2 9 3.5 15t3.5 15q1 1 2.5 7t2.5 6 q3 14 4.5 18t4.5 19l21 -2q-3 -6 -11 -24t-5 -25l-0.5 -0.5l-0.5 -0.5q0 -1 1 -2q-6 -4 -5 -3q0 -1 0.5 -3l0.5 -2q-9 -9 -8.5 -24.5t-7.5 -23.5v-1.5v-0.5h-1.5h-0.5q-1 -4 -4.5 -12.5t-3.5 -11.5q14 0 40.5 17t58.5 31q2 11 18 11q2 6 6 8.5t10 6.5l-0.5 1.5t-0.5 2.5h3h3 l0.5 2t2.5 4l1 0.5t2 0.5q0 3 2 3q4 1 6 10q14 10 30.5 32.5t1.5 35.5q-3 0 -8.5 2t-6.5 0v0.5v1.5q-36 12 -82.5 -4t-76.5 -25v-2.5v-0.5q-2 0 -6.5 -1.5t-4.5 -4.5h-4h-2v-1v-1h-3.5h-2.5v-3v-1h-2h-1q-5 -9 -13.5 -12t-15.5 -4q-15 -5 -16 7t8 15q3 10 28 16.5t35 6.5 q0 6 19.5 13.5t45.5 14t50.5 10t33.5 2.5q-1 -3 1.5 -3t2.5 3q27 4 38.5 -12.5t11.5 -19.5q2 -33 -17.5 -55t-56.5 -55q26 7 57 -5.5t26 -36.5q0 -1 2 -1.5t3 -0.5q0 6 -1 7h1h2q0 -6 3 -11q-1 -1 -3 -1v-1.5v-0.5h1.5h1.5q0 -3 0.5 -6t0.5 -6h-2h-2q0 -3 2 -4h-2.5h-0.5 q-2 -18 -4 -28h-3h-3v-3.5v-3.5q9 1 -27 -46.5t-92.5 -102.5t-120 -99.5t-108.5 -38.5zM-25 12h4q3 6 2 5zM27 60q4 3 9.5 7t10.5 4q0 7 10 15t17 10q0 3 10 8.5t13 6.5l3 -3q-3 -2 -7.5 -4.5t-6.5 -3.5q-2 0 -2 1l-5 -5l-4 -4l0.5 -0.5t2.5 -0.5l1 1.5t2 2.5q0 -1 0.5 -1 h0.5q10 6 17.5 8.5t14.5 11.5q-3 3 -4 3q2 1 8.5 2.5t11.5 4.5q-2 -6 -1 -7q12 11 28 12.5t28 13.5v-0.5t1 -0.5l2 0.5t3 1.5v0.5v0.5l39 16q2 0 8 -2q1 2 4 5v-1.5t2 -1.5q-2 -1 -3 1l-51 -25q-3 1 -3 2q-3 -4 -19 -11t-19 -6q-3 -3 -4.5 -4t-2.5 -2q-2 1 -3 2l-4 -4l-3 -3 q-2 0 -3 1l-4 -4l-3 -3l-0.5 0.5l-0.5 0.5q-18 -12 -38 -19t-33 -22q-1 0 -2.5 0.5t-3.5 2.5v-0.5t2 -3.5q-2 -1 -5 -4l-19 -13q-4 -18 -4 -26l1 -0.5l1 -0.5v-3.5v-1.5q0 -1 1 -2.5t2 -1.5q-3 -6 -5.5 -6.5t-7.5 -3.5l-0.5 1.5t-0.5 2.5q-7 3 -7.5 9t-0.5 13l-4 -2v0 q-7 -4 -11 -9t-10 -7v-2.5v-0.5h-0.5h-1.5q-3 -6 -9 -11t-7 -11h-0.5h-2.5q-3 -8 -7 -19.5t-4 -17.5q2 -1 3 -4q1 0 0 -1.5t7 -0.5q41 -9 92.5 20.5t100 74.5t86.5 96t51 86h1.5h1.5h-0.5h-0.5v1v3l1 0.5l1 0.5q0 3 0.5 9.5t0.5 11.5q2 0 4 2q-1 0 -2.5 0.5l-1.5 0.5 q0 32 -34 33.5t-53 0.5q-28 -3 -56 -29.5t-76 -39.5q0 -11 -5.5 -19t-5.5 -22h-1.5h-0.5q-3 -9 -6.5 -18.5t-3.5 -18.5l3 3q4 -11 -7 -15v-7v-7h-1.5h-0.5q0 8 1 11q-1 0 -1.5 1t-1.5 1q-3 -6 -3.5 -8.5t-3.5 -10.5q1 0 3 -0.5t3 -0.5v-1v-2h-4h-3q1 0 1 -2 q-4 -3 -6.5 -11.5t-2.5 -13.5h1h1q3 10 4.5 13t4.5 12h2h2q-4 -9 -8 -27q2 2 6 1l-11 -10h2zM246 166l1 -1h-1v1zM127 116q-1 1 -1 3q-2 0 -3.5 -1t-8.5 -4q2 -1 2 -2q3 2 11 4zM74 91h-3h-2q-3 -3 -5 -4.5t-5 -4.5v-0.5t1 -0.5q3 0 6.5 3.5t7.5 6.5zM53 144q0 1 0.5 2.5 t0.5 2.5h0.5h2.5q-2 -1 -2 -5h-1.5h-0.5zM105 281q0 7 2 9q0 -3 -0.5 -5t-0.5 -4h-0.5h-0.5zM116 326l5 4q-2 0 -2 -4h-2h-1zM118 331q2 6 5 6q-2 -5 -5 -6z" />
<glyph unicode="C" horiz-adv-x="376" d="M135 -24q-11 -2 -30 -3.5t-39 4.5t-37 22t-24 50q0 3 1 10q-4 1 -5 1q1 3 5 3q-6 4 -3.5 12t-1.5 11q-1 6 -1 16t2 16q-1 1 -1 3l2 1t3 2q-1 1 -4 3l2 12q1 1 5 1q0 3 1 3q-1 1 -4 1q0 6 4.5 15l7.5 15q-1 0 -2.5 0.5l-1.5 0.5q0 9 8 23t14 20q-2 0 -3 5q9 -1 10 -3 q-2 -10 -4 -13q2 -1 3 -2.5t4 -1.5q-3 0 -4 -0.5t-3 -0.5q-1 -9 -4.5 -13.5t-1.5 -11.5q-3 0 -3 -2v-0.5t1 -0.5q-3 -2 -2 -3.5t-1 -3.5q2 -1 3 -2l1 0.5t2 1.5q1 6 2.5 12.5t6.5 10.5q0 2 -1 3q1 0 3.5 5t2.5 8h1h4q-4 -4 -1 -7q-4 -5 -4 -11l-4 -2q0 -12 -5 -17v-0.5 t2 -1.5q0 -1 -1 -2l-1 -1h-1.5h-0.5q0 -3 0.5 -5t0.5 -4h-1.5h-0.5q0 -8 -3 -19t0 -14l-3 -3q0 -6 -1 -9.5t-1 -8.5l-0.5 -0.5l-0.5 -0.5q4 -6 4 -15h-2h-1q-5 -45 34 -73.5t98 -4.5q25 11 62.5 31.5t58.5 41.5q9 9 10 13t3 7q12 12 11.5 1.5t-10.5 -11.5q-2 -10 -1 -12 q-2 0 -7 -7t-5 -9q-27 -27 -75.5 -53.5t-71.5 -32.5zM18 112q2 1 4 1q2 3 2.5 5t3.5 5l-3 16h-5h-3q0 -7 0.5 -13.5t0.5 -13.5zM26 140q2 2 4 3q-2 0 -2.5 0.5l-0.5 0.5q1 1 4 1v0.5v2.5q-3 0 -3 1q2 1 4 5l-7 1v-2v-2h-3h-1v-1.5v-0.5h1h3q0 -3 -1 -4.5t2 -4.5zM47 207 l5 12l1 0.5t2 0.5q0 1 -0.5 2t-0.5 2q4 1 10 1v-1.5v-0.5q-1 -1 -4 -1q1 -6 -3.5 -10.5t-9.5 -4.5zM37 223q0 2 1 2q1 1 5 1q-2 -2 -6 -3zM53 228q-1 1 -3.5 3t-2.5 4q-1 1 -3 1q0 3 3 3l-0.5 0.5l-0.5 0.5q9 3 11 4q0 3 -5 7q3 4 9 15t12 12q0 4 6.5 13.5t11.5 12.5 q0 3 4 6.5t3 5.5q5 4 14.5 12.5t8.5 12.5q6 1 8 2q-2 2 -3 4q0 4 6 7.5t11 4.5q-2 3 -3 3q-7 -2 8 14.5t42 34.5t60.5 29.5t64.5 2.5q5 0 9.5 -5t11.5 -5q1 6 0 9l1 0.5l1 0.5q-1 1 -1 5h1.5h1.5q1 1 1 2l7.5 -2.5t8.5 -1.5q1 3 6 2l-2 -4q2 -1 4 -1.5t5 -0.5 q0 -35 -8.5 -55t-23.5 -42q2 -2 2 -4q-2 0 -3 -0.5l-1 -0.5q0 -4 -3 -9.5t-6 -5.5q-2 -3 -13.5 -7t-14.5 -3l4 4l-6 2t-13 8q3 12 4 12t0.5 -1.5t-2.5 0.5t-3 19q-1 0 -1.5 1l-0.5 1q0 6 11 15.5t16 17.5q-2 1 0.5 4t4.5 6q-2 0 -2.5 0.5l-0.5 0.5q0 4 3 9q-8 6 -10 6v2v4 q-8 7 -29 4.5t-43 -11.5t-37.5 -21t-12.5 -24q-23 -8 -26 -20.5t-25 -13.5l-3 -6t-1 -5v0h1q3 2 6 4.5t9 4.5v-2v-1q-4 0 -5 -1q-2 -4 -4 -5t-3 -7q-2 -1 -3.5 -2.5t-2.5 -1.5v-1t2 -1q-5 -3 -7 -8q-5 -2 -6 -4.5t-3 -5.5q-3 0 -4 1v0.5v2.5q5 3 7 9q-5 0 -7.5 -3t-7.5 -3 q-1 -9 -6.5 -12t-5.5 -7q0 -2 0.5 -2.5l0.5 -0.5q-5 -6 -11 -9q0 -3 -3 -7q3 -4 0 -7l-3 -3v-2v-1q-3 0 -6 -3q0 -7 -3 -11t-6 -9q3 -1 3 -3h-4h-1zM60 228v1v2q6 4 8 5q0 -2 -1 -4.5t-1 -3.5h-3h-3zM66 239q-1 0 -1 2q6 0 6 4t7 5q-3 -4 -3 -9q-5 -2 -9 -2zM76 254v1v1 q2 1 4 1q0 -2 1 -3h-3h-2zM86 268l-0.5 1t-0.5 2q3 0 4.5 3.5t4.5 6.5h1h2v-1v-1q-2 -2 -3 -2q0 -1 0.5 -2.5l0.5 -1.5q-3 -1 -4 -5h-3h-2zM94 284q2 6 14 13q-6 -8 -8 -11q-3 0 -4 -1t-2 -1zM114 315q3 1 8 1q-3 2 -8 2v-2.5v-0.5zM119 324h2h2l-0.5 1t-0.5 2h-2.5h-1.5 q0 -1 0.5 -2z" />
<glyph unicode="D" horiz-adv-x="429" d="M-158 -94q-35 15 -20 36.5t15 27.5q3 -1 6 -1v1.5v0.5h-1h-1q0 4 6.5 11.5t11.5 7.5q0 4 -1 4q8 3 9 5.5t4 5.5q1 0 2 -0.5l1 -0.5q0 -3 -0.5 -3.5t-2.5 -5.5h0.5h0.5q0 -6 -1 -11q-3 0 -6.5 -4.5t-7.5 -5.5q1 0 2 -0.5t2 -2.5v-0.5v-0.5q-3 -2 -6.5 -6.5t-7.5 -5.5 q0 -5 -4 -19l-1 1t-2 1q-12 -21 23 -21t53 8q0 -2 1 -3q6 3 5.5 5l-0.5 2h-0.5h-1.5v1.5v1.5q26 5 68.5 22t60.5 28q8 7 13 11t16 5v0.5v2.5q1 0 2 0.5t4 0.5q0 6 6.5 9t11.5 3q3 7 7 9t13 4q-2 8 10 8v-1.5v-0.5h0.5h1.5l0.5 1.5t0.5 3.5h1.5h1.5v1.5v3.5q9 2 17 10.5 t12 9.5v2v2q11 3 10.5 7t7.5 4q1 3 4 4.5t4 5.5h0.5h0.5v0.5v0.5q3 3 7 5v0.5v2.5q6 4 20 19t17 16v1.5v1.5q13 3 27 14.5t18 17.5l3 7q-3 0 -21.5 -2.5l-18.5 -2.5q-2 0 -3.5 -0.5t-2.5 -0.5q-1 3 -1 3.5v0.5q0 -4 -3 -5q-18 0 -37 -8.5t-39 -12.5v-0.5v-0.5q-2 0 -4.5 -1 t-5.5 -1v-1.5v-0.5h-5.5h-4.5v-1.5v-0.5h-5.5h-4.5q-2 -4 -18.5 -10t-19.5 -6q0 -3 -1 -4q-14 -4 -17 -14.5t-9 -25.5h1.5h1.5q-2 -6 -3.5 -13t-4.5 -11h1.5h1.5q-2 -17 1 -27q-2 -1 -9 -1q-3 -9 -3 -7h-8h-8q-5 6 -2 13h-1.5h-0.5v0.5v1.5q-7 3 -2 16t8 16q-3 3 -4 3h3h2 q0 10 1 14t8 13q-6 2 -11 3v-2v0q-1 0 -1 1v1q5 2 7 2q0 1 1.5 3t2.5 4h-2.5h-1.5q-1 1 -1 2l1 1t3 1l0.5 0.5t0.5 1.5l0.5 0.5t1.5 0.5q3 5 5 8q-5 0 -2.5 4t5.5 4q-2 7 3 10q9 18 17.5 35.5t8.5 26.5q3 2 9.5 16.5t9.5 21.5h0.5h1.5q0 2 -1 2t-2 1l-1 1q0 5 4 6 q0 6 0.5 8.5t5.5 6.5v0.5v1.5l-1 0.5l-1 0.5q0 15 9 25t12 27q2 1 8 1v0.5v2.5q-1 0 -2 0.5t-1 1.5v2v3q-7 3 5 18t12 21q0 1 2 2t3 2v0.5v2.5h1h1q0 2 -0.5 4t-0.5 4q12 16 19.5 12.5t7.5 -8.5h0.5h0.5q0 -3 -1 -5h-0.5h-0.5q-5 -19 -13.5 -34t-11.5 -30l-3 -1.5l-3 -1.5 q1 -2 4 -3q-13 -17 -29 -61t-25 -66h-4h-3q2 -2 2 -7h-2.5h-0.5v-1v-1q3 -1 6 -1h-2.5h-2.5q0 -7 -3 -11q0 -1 1 -1h1v-4v-2h-0.5h-0.5q-1 3 -2 3q0 -9 -1.5 -14t-3.5 -11h5.5h7.5v0.5v1.5q9 0 14 -1q-4 -1 -10 -1q-1 -2 -1 -3q-4 0 -7.5 -0.5t-6.5 -0.5q-1 -4 -6 -10v-0.5 t1 -0.5l2 0.5t3 0.5v1v1q15 0 27.5 9.5t29.5 10.5q-2 3 -5 5q3 2 8.5 5.5t9.5 4.5q0 -1 -0.5 -3l-0.5 -2q11 -2 17.5 1t18.5 5v0.5v2.5h2h4v1v1h-6h-5l-0.5 -1l-0.5 -1q-3 0 -8.5 -1.5t-7.5 -1.5v0.5v2.5q2 1 13 4t14 2q6 2 17.5 4t16.5 -3q5 5 16.5 5.5t19.5 0.5v1.5v1.5 h-2.5h-1.5l-0.5 1l-0.5 1h3h5q-1 -1 -1 -4q10 4 16 5v1v1q3 1 8 1v1v2h-3h-1v1v2h3.5h5.5v1v3q-2 0 -2.5 -1l-0.5 -1q0 3 1 4h1t2 1v1v1h1.5h3.5v-1.5v-1.5q8 0 22.5 15t29 34.5t25 39.5t10.5 29q-1 0 -2 3q1 1 3 2q7 37 -2.5 57.5t-30 31t-47.5 13.5t-53 4v0.5v1.5h-2.5 h-2.5v-1.5v-0.5q-21 3 -43 0l-44 -6q-1 -4 -11 -4q0 -1 -0.5 -2t-0.5 -2q-17 -2 -29.5 -7.5t-27.5 -8.5q-1 -2 -5 -2q-1 -1 -1 -2q-5 0 -6 -2q-4 -8 -15 -9.5t-13 -11.5q-3 0 -5.5 -0.5t-3.5 -0.5q4 -2 5 -4t1 -6q-8 -3 -12 -3v-1.5v-1.5h-2.5h-1.5v1.5v2.5q-1 0 -3 -0.5 t-3 -0.5v-2.5v-0.5q-16 -3 -16 -6q-5 2 -11 4l-0.5 1.5t-0.5 3.5q-3 0 -4.5 0.5t-3.5 1.5q0 3 1 4h-1.5h-0.5q0 3 2 11l4 2q-1 0 -1 1v1h2.5h3.5v1v1q8 0 8.5 2t7.5 3v1v1q10 3 20 9t22 7v2v2h8h8v0.5v2.5h1h3l-1 0.5t-1 1.5l74 22q57 18 114 12.5t66 -8.5q1 -6 6 -6 q0 2 2 2t2 4q-3 0 -4 0.5l-1 0.5l2 0.5t3 0.5q0 -2 0.5 -3t0.5 -3q15 3 25 -8t16 -12v-1v-1q3 1 9 1q-2 0 -2 -1v-3v-3h1h3v-1t1 -2q0 3 1 3h0.5h2.5q9 -15 14 -43t-19 -64q0 -3 -0.5 -8.5t-3.5 -5.5q-2 -6 -2 -10h-2.5h-0.5q-1 -1 -1 -3q-1 -2 -3 -2.5l-2 -0.5 q0 -14 -16.5 -26t-20.5 -24h-0.5h-0.5v-1.5v-1.5q-1 0 -15 -12t-12 -12h13v-2.5t1 -2.5q0 3 2 3v-2.5v-1.5q-2 -2 -3 -2v-1.5v-0.5q-8 0 -17 -0.5t-15 -4.5q0 -1 0.5 -1.5t0.5 -1.5q-3 -1 -4.5 -3t-4.5 -4q1 -1 1 -5q-1 0 -1.5 -0.5t-1.5 -0.5v-1v-2h-1.5h-0.5v-1v-1 q-3 0 -4.5 -0.5t-2.5 -0.5q-2 -1 -2.5 -2.5l-0.5 -1.5q1 1 4 1v1t1 2l0.5 -0.5l0.5 -0.5q-2 -2 -4.5 -3.5t-3.5 -3.5q0 -1 0.5 -2t1.5 -1q-5 -3 -15 -4v-2v-2h2h3v-1.5v-0.5q-8 -2 -10 -10q-3 0 -5.5 -0.5t-5.5 -0.5q1 0 2.5 -0.5t2.5 -0.5q0 -2 -7.5 -9.5t-11.5 -8.5 q1 0 1 -2q-3 -3 -5 -4q0 -3 -6.5 -7t-9.5 -6v-1.5v-1.5q-3 0 -4 -0.5t-2 -0.5q-2 -6 -7 -9t-9 -5q0 -1 0.5 -1.5l0.5 -0.5q-6 -3 -15 -10t-10 -11l-3 -2h-3h-1q-3 -6 -10.5 -11l-10.5 -7q0 -2 -5 -5t-7 -3v-2.5v-0.5q-3 -1 -4.5 -2t-3.5 -1v-1.5v-1.5h-3h-3v-1.5v-0.5 q-1 0 -1.5 -1l-0.5 -1q-2 -1 -2 -3q-6 0 -12 -4h0.5h2.5q-16 -9 -38.5 -25.5t-40.5 -19.5l-0.5 -0.5t-0.5 -1.5q-2 0 -2.5 -0.5l-0.5 -0.5v-0.5v-2.5h-5.5h-4.5v-0.5v-1.5h-3h-3v-1.5v-2.5q-6 -2 -23.5 -9.5t-41.5 -15t-50.5 -12t-48.5 -0.5zM12 -45q2 2 5 2v2v1 q-1 0 -1.5 -0.5l-0.5 -0.5q-1 1 -4 0l0.5 -1t0.5 -3zM59 -20l1.5 0.5t2.5 0.5q1 2 2 3q-6 -1 -8 -3q1 0 2 -1zM73 -13q2 0 5 4h-3h-1l-0.5 -1t-0.5 -3zM80 -8q3 2 6.5 4t8.5 3q0 1 1 1.5t2 3.5q-11 -3 -18 -8v-1v-3zM-122 -3q1 6 12.5 14t15.5 16q-2 1 -6 0v0.5v0.5q3 2 5 3 q7 -7 12 1.5t11 6.5v-2v-1h-2h-4q-5 -9 -13 -11q-2 -6 -10.5 -13.5t-14.5 -9.5q0 -1 -0.5 -1.5l-0.5 -0.5q-2 0 -3 -1.5t-2 -1.5zM-123 4q2 6 5 8q-2 2 -2 3q4 1 5 5h3h1q0 -3 -3.5 -7t-6.5 -8q-2 0 -2 -1zM101 6q3 0 5.5 3t7.5 3q-1 2 -1 3q-5 0 -6.5 -3t-5.5 -3v-2.5v-0.5 zM118 17h1.5h3.5q-1 0 -1 1.5v1.5h-2.5h-1.5v-2.5v-0.5zM124 22h3h3q3 5 5 6q-7 2 -11 -6zM143 34q6 6 6 5q-7 3 -9 -3q1 0 1.5 -1t1.5 -1zM-86 38l-1 0.5t-1 2.5q3 1 4 3t4 2v-2.5v-1.5q-2 -1 -3 -2.5t-3 -1.5zM151 41q2 1 5 5h-3h-2v-3.5v-1.5zM-63 43v1.5v2.5q4 2 9 6 t9 5v-1v-2q-1 -1 -2.5 -1.5t-4.5 -0.5v-2.5v-1.5q-3 0 -11 -6zM161 50h2h3v2v1q-2 0 -5 -1v-1v-1zM-24 70q-1 1 -2 3q4 0 9.5 3.5t8.5 1.5q-3 -2 -8 -2q0 -2 -0.5 -3t-2.5 -3h-1.5h-3.5zM209 89q2 0 3 0.5t3 0.5v1v1h-2h-1zM12 90l-0.5 1t-0.5 3q3 2 6 2q-1 -4 -1 -6h-2h-2z M21 94q1 3 6 8h-5.5h-5.5v0.5v2.5q3 0 6 0.5t6 0.5v-2v-1q1 0 2 -0.5t2 -0.5q-3 -2 -5.5 -5t-5.5 -3zM150 153q6 3 10 3v1.5v1.5l-10.5 -3.5l-1.5 -0.5q0 -1 0.5 -1.5t1.5 -0.5zM289 164q5 1 5 3q-2 -1 -5 -3zM266 165v1v3l0.5 0.5t1.5 0.5q0 -3 -2 -5zM204 171q11 0 16 3 l-0.5 0.5t-0.5 1.5q-4 0 -6.5 -0.5t-5.5 -0.5q-3 -3 -3 -4zM242 183q3 5 9.5 5h11.5v-2v-1q-6 0 -10.5 -1t-10.5 -1zM278 186q-1 0 -1.5 0.5t-0.5 1.5h1h2q0 -1 -1 -2zM350 190q-3 2 -3 6q6 1 9 2q0 -1 1 -2q4 0 6 1v0.5v1.5q4 -2 5 -3q-4 -4 -8.5 -3.5t-7.5 0.5v-2v-1h-1.5 h-0.5zM37 385q1 1 2 3q-1 1 -5 1q0 -1 3 -4z" />
<glyph unicode="E" horiz-adv-x="382" d="M48 -16q-13 3 -24 6t-23 6v2.5v1.5q-4 0 -8 9t2 18q4 2 6 4q0 2 -0.5 5.5t-0.5 6.5l1 0.5t3 2.5q-3 5 8 16.5t25.5 24.5t28 25.5t16.5 19.5q6 3 5 2q0 1 9.5 9.5t22 18.5t24.5 19l16 12v1.5v1.5q1 0 3 0.5t4 1.5q-1 0 -1 0.5v0.5q5 3 15 3q0 4 11 12.5t17 11.5v2v1 l15.5 9t17.5 14q-3 0 -6 -1v-0.5v-0.5q-4 -1 -21.5 -5t-17.5 -6q-10 0 -19.5 -2.5t-18.5 -3.5v-2.5v-0.5q-12 -4 -29.5 -7.5t-32.5 1.5v0.5v1.5q-9 1 -23 5.5t-10 13.5q-15 0 -8 0h7q3 14 37.5 45t75 62.5t75 56t38.5 25.5q0 3 2 5h2.5h4.5q0 8 -2 11q-1 0 -2.5 1t-2.5 1 q2 1 2 5q1 0 2 0.5t4 0.5v-0.5v-0.5h1h3q0 10 27.5 17t31.5 -5h-1.5h-1.5v-4.5v-2.5q-15 0 -24 -14t-20 -14v-1v-1h-2.5h-1.5v-1.5v-0.5q-2 0 -25 -16.5t-50 -37t-49 -39.5t-22 -23h-3h-1v2.5v3.5l-0.5 -0.5l-0.5 -0.5v-4.5v-3.5l-9 -3q-1 -3 -4 -4v-0.5t2 -0.5 q-15 -7 -22.5 -19.5t-19.5 -18.5v-3v-1q-4 -1 -5 -4t-3 -6q-6 -9 11 -10t17 0q20 2 43.5 9.5t40.5 15.5q8 2 10 1v1.5v2.5h3.5h4.5v0.5v0.5q8 1 16 3t17 4v1v1q8 0 15 4t16 7l0.5 0.5l0.5 0.5q17 2 17 -10h0.5h2.5q0 -11 -3 -17h-1.5h-0.5q-5 -12 -30.5 -18t-28.5 -15 q-5 -3 -10 -3v-2v-2h-1h-2v-1v-1q-3 0 -6 -1l0.5 -0.5l0.5 -0.5q-10 -6 -15 -10.5t-14 -8.5v-1.5v-0.5q-6 0 -9 -2v-2v-1h-1.5h-0.5q-1 -4 -12 -10.5t-14 -9.5v-0.5v-0.5h-2.5h-2.5v-4.5v-1.5q-11 0 -26 -16.5t-27 -23.5v-1.5v-0.5h-1.5h-0.5v-1.5v-1.5q-10 0 -10 -10 q-1 0 -2.5 -0.5l-1.5 -0.5v-2v-1h-2h-2q0 -3 -6 -10h-1.5h-0.5q-3 -4 -8.5 -8.5t-5.5 -7.5h-1.5h-0.5q-6 -12 -24 -27.5t-14 -30.5h-2.5h-0.5q6 -23 28 -17q0 1 -1 2h1.5h2.5q0 -1 0.5 -1.5l0.5 -0.5q3 0 6.5 -1t7.5 -1v2v2h9.5h11.5v1.5v1.5q8 -1 33 6t52 16.5t48.5 18 t21.5 11.5q3 0 6 1t7 1l0.5 1.5t2.5 3.5h1.5h4.5v-2.5v-0.5h1h3v0.5v2.5l1.5 0.5t2.5 0.5q0 4 2 5q1 -2 12.5 2t25.5 9.5t25.5 10t12.5 4.5v0.5v1.5q4 0 5 -1q1 3 5 2.5t6 -0.5q1 3 2 3q6 -11 14 -8v2v2q-9 1 -11 6h1h3v-1.5v-0.5q3 0 6 -1q0 2 1 3t2 0q-2 -2 -2 -5 l0.5 -0.5t1.5 -0.5q0 -2 1 -4t1 -3q-3 1 -6 1v-1.5v-1.5q-3 -1 -5.5 -1.5t-4.5 -0.5q-3 -4 -8.5 -3.5t-5.5 -3.5q-18 0 -38.5 -12.5t-35.5 -14.5q2 -3 -3.5 -3.5t-8.5 -0.5q-2 -4 -14 -6v-2.5v-0.5q-3 0 -5.5 -0.5t-5.5 -0.5v-1.5v-0.5h-4h-3t-1 -3q-27 -12 -78.5 -34.5 t-91.5 -21.5l-0.5 -0.5t-0.5 -1.5h-13.5t-6.5 -1z" />
<glyph unicode="F" horiz-adv-x="366" d="M10 2v1.5v1.5q-3 0 -4.5 0.5l-4.5 1.5q1 0 1 2l-1 7h0.5h2.5q1 13 11 23q7 6 14 25t14 41t12.5 43t9.5 33q3 0 0 -6t-2 -4q-5 6 0 17l1.5 -0.5t3.5 -0.5q1 5 6.5 23t6.5 25h0.5h2.5v0.5v2.5q-10 0 -20 -5.5t-20 -6.5v-2v-1l-11 -3v-1v-1q-18 0 -33 -9.5t-30 -6.5v0.5v1.5 q-12 3 -4.5 12.5t14.5 11.5q0 1 1 2q7 -1 13 0.5t11 0.5q3 6 2 5q7 0 13.5 1.5t13.5 1.5q1 2 23 10.5t19 2.5q1 0 8.5 4.5t9.5 4.5l8 15q-1 0 -1.5 0.5l-0.5 0.5q0 6 5 11l0.5 -0.5t1.5 -0.5q6 15 15 41t15 46h0.5h1.5q0 3 1.5 3.5t-0.5 5.5q-13 -4 -25 -9.5t-26 -6.5v-2.5 v-1.5q-16 -3 -24.5 -10.5t-20.5 -6.5v-1.5v-1.5q-2 0 -3 -0.5t-3 -0.5v0.5v0.5h-2h-2v-1v-1q-14 -3 -20.5 -6.5t-17.5 -5.5v0.5v1.5h-2h-3v-1v-1q-5 0 -6.5 9.5t7.5 11.5v0.5v1.5h3.5h3.5q0 1 13 6.5t29.5 11.5t32.5 10.5t22 4.5q0 3 1 3q1 1 4 1v0.5v0.5h3h3v1.5v2.5 q3 0 6 -0.5t6 -0.5v1v2q6 1 33 9t57.5 16t55 13.5t24.5 4.5q14 1 28 6.5t30 4.5q0 3 1 3q13 -2 24 4v0.5v0.5h4h6q-2 -1 -2 -4h1.5h1.5q0 2 0.5 3t0.5 2q20 3 33.5 7.5t31.5 6.5v0.5v1.5q26 2 27.5 -7t-3.5 -9q-3 -2 -3 -4q-12 -2 -31.5 -8.5t-24.5 -9.5q0 -3 -2 -4 q-2 0 -4 0.5l-2 0.5q0 18 -20 7t-66 -13v-1v-1h-7h-7l-0.5 -0.5l-0.5 -0.5q-5 0 -9 -1.5t-7 -1.5q0 -1 -1 -2h-3h-3q0 -3 -11 -4t-14 0q-1 -4 -12 -4v-1v-1q-9 -1 -17 -3t-16 -2q0 -3 -2 -3v1.5v1.5h-1.5h-0.5q-2 -4 -7.5 -5t-8.5 -1v-1v-2q-7 0 -17.5 -2.5t-12.5 -9.5 q1 0 -1 -5t0 -5q-12 -32 -20 -48.5t-17 -49.5l1 -1t2 -1q1 3 26.5 9t31.5 9v0.5v0.5q8 0 11.5 2.5t11.5 1.5q0 3 1 5q3 0 3 -4h0.5t1.5 1q0 3 1 4q12 2 22 5t21 3q0 4 5 4l1 0.5t1 2.5q24 4 50 9.5t46 4.5q0 1 0.5 1.5t0.5 1.5q1 0 2 -3q10 -2 10 -11.5t-11 -12.5l-0.5 1 l-0.5 1q-6 -3 -13 -2t-13 1v-0.5v-0.5q-5 -2 -13.5 -1.5t-9.5 -3.5q-2 1 -2 2h-1.5h-0.5v-1v-1l-33 -4t-36 -11q-9 -2 -31 -8t-22 -9q-18 0 -36.5 -6.5t-33.5 -12.5v-2v-1h-2h-1q-3 -6 -5.5 -9.5t-3.5 -9.5h-3h-1q0 -5 -8 -30t-12 -25q-2 -24 -18 -68t-11 -61h-3h-1 q-2 -6 -4 -10t-2 -8h-2h-1q-3 -13 -8 -19.5t-21 -6.5zM187 279q8 2 17.5 5t17.5 3v1v1q3 0 6 -1l-1 1t-1 3q0 -2 -0.5 -2h-0.5q-4 3 -21 -1.5t-17 -9.5zM230 292q3 0 6 0.5t6 1.5h-6h-6v-1.5v-0.5zM165 396q1 0 3 1t4 1v0.5v1.5q-2 -1 -4.5 -1.5t-3.5 -0.5v-1t1 -1zM186 401 q1 1 2 5q-1 -1 -2 -1v-2.5v-1.5zM199 404q2 1 5 1l-0.5 1l-0.5 1l-5 -2l0.5 -0.5zM210 410q1 0 2 0.5t2 0.5q-1 1 -5 0l0.5 -0.5zM223 412q6 0 9 1.5t12 2.5l0.5 -0.5l0.5 -0.5v1v2q-5 0 -11.5 -2t-10.5 -1v-2v-1zM249 416q0 1 3.5 2.5t4.5 2.5q-1 1 -10 0q0 -3 -1 -4 q1 0 3 -1zM270 421q8 1 13 4q-2 0 -3.5 0.5t-2.5 0.5v-1v-2h-1h-2v1v1q-1 1 -1 -3h-2h-1v-0.5v-0.5zM284 425h2h2l2 6l-6 -3v-2v-1zM303 428q2 2 3 4h-3v-2v-2zM309 430l5 2q-4 1 -6 4q1 -3 1 -6zM284 434l1 -0.5t2 -0.5q-3 5 -3 1z" />
<glyph unicode="G" horiz-adv-x="347" d="M138 -10q-12 -2 -31 -3t-39 4.5t-37.5 21t-24.5 47.5q-1 4 1 10q-5 1 -5 3l4 2q-6 3 -3.5 11.5t-1.5 10.5q-1 6 -1 15.5t2 15.5q-1 0 -1.5 0.5t-0.5 1.5q2 2 6 4q-1 0 -2 0.5t-2 2.5v12h3h2q2 1 2 4q-2 0 -3 0.5l-1 0.5q0 5 4 14t8 14q-1 0 -2 0.5t-3 0.5q0 8 8 22t13 20 l-0.5 1.5t-0.5 2.5q7 0 9 -1q-3 -8 -3 -14q0 -1 2 -2t3 -2q-1 0 -3 -0.5l-2 -0.5q-1 -9 -4.5 -12.5t-0.5 -10.5q-5 -1 -5 -3v-0.5t2 -0.5q-3 -2 -2 -3.5t0 -2.5l1 -1l1 -1l1 0.5t2 1.5q0 5 2 11.5t7 10.5q0 1 -1 4q1 0 3.5 4t2.5 7h1h2q-2 -4 0 -6q-3 -4 -3 -11q-1 0 -4 -3 q0 -10 -5 -16v-0.5t1 -0.5q0 -1 -1 -2q0 -2 -2 -2q1 -2 1 -8h-1.5h-1.5q1 -7 -1.5 -18t0.5 -14l-3 -3q0 -6 -1 -9.5t-1 -8.5l-0.5 -0.5l-0.5 -0.5q5 -7 4 -14h-1.5h-1.5q-4 -45 35.5 -71.5t97.5 -3.5q7 2 27.5 12t43 23t40.5 26.5t20 23.5h0.5h0.5q5 8 11.5 16t10.5 17 q8 2 12.5 1.5t10.5 -7.5q-1 -4 -2 -7.5t-5 -19.5q-4 -1 -2 -6h-2.5h-0.5q0 -3 -1 -5q-1 0 -3 -1v-3v-1q-12 -6 -17.5 -27t-16.5 -25q0 -4 1 -5q-3 0 -5 -1q0 -5 -1 -7q-5 -2 -13.5 -16t-16.5 -31t-14 -31.5t-5 -15.5q-9 0 -9.5 -15.5t-4.5 -20.5q-5 -2 -6 -5l0.5 -0.5 t2.5 -1.5q-3 -4 -3 -9h0.5h2.5v-7v-8q-10 0 -15.5 -4.5t-10.5 7.5q-3 2 -7 8t3 9l-4 4q5 3 7 10.5t3 12.5q6 7 21 50t36 60q0 4 5.5 15t11.5 13l9 20q-28 -27 -72.5 -50.5t-65.5 -28.5zM282 74l-3 -3l1.5 1.5zM18 123h2h2q2 3 2.5 5t2.5 5l-2 16q-7 0 -8 -1q0 -16 1 -25z M25 150q3 1 3 3q-1 0 -1.5 0.5l-0.5 0.5l1 0.5t4 0.5v0.5v0.5q-1 2 -4 2q3 3 5 4l-9 2v-3v-1h-1.5h-0.5v-1v-1h0.5h3.5q0 -3 -1.5 -4t1.5 -4zM44 214q5 3 5 12h1.5h2.5v2.5v2.5q6 0 9 2v-3v-1q-3 0 -4 -1q4 -12 -14 -14zM36 230v0.5v2.5h2h4q-4 -3 -6 -3zM50 234 q-1 1 -2.5 3t-1.5 4h-3h-1q1 3 4 4q-2 0 -2.5 0.5l-0.5 0.5q2 1 11 4q0 4 -5 7q3 4 9 14.5t11 12.5q0 3 7 12.5t13 12.5q0 3 3.5 6.5t3.5 5.5q3 3 12.5 11.5t8.5 12.5q6 0 9 2q-3 1 -4 3q0 4 6 7.5t11 4.5l-2 2q-7 -1 7 15t40.5 33t59.5 28.5t65 2.5q6 0 10.5 -5t11.5 -5 q1 7 0 9l1.5 0.5l1.5 0.5q-2 1 -2 5h2h1q1 1 1 2l7.5 -2.5t8.5 -1.5q1 3 6 2l-2 -4q1 -1 4 -1.5t6 -0.5q0 -33 -8.5 -52.5t-22.5 -41.5q1 -1 1 -5h-1.5h-0.5l-4.5 -9t-5.5 -5q-3 -3 -13.5 -6.5t-15.5 -3.5l5 3q-1 1 -6 2.5t-12 7.5q2 12 2.5 12.5t0 -1t-2.5 0.5t-3 18 q-1 0 -1.5 0.5l-0.5 0.5q0 6 11 15t16 17q-2 3 5 10q-1 0 -2.5 0.5t-1.5 1.5q0 3 3 8q-3 1 -5 3t-5 3v2v3q-8 7 -29 4.5t-42.5 -10.5t-37 -20t-12.5 -23q-22 -8 -25 -20t-24 -14q-2 -4 -4 -6t-2 -5h0.5h0.5q10 8 15 9v-1v-2q-4 0 -5 -1q-1 -4 -3.5 -4.5t-2.5 -6.5 q-3 -1 -6 -4q0 -1 0.5 -1.5l0.5 -0.5q-5 -4 -6 -9q-4 -1 -5 -3.5t-4 -4.5h-2h-2v1v2q4 2 8 9q-5 0 -8.5 -2.5t-6.5 -2.5q-1 -9 -7 -12t-7 -8q1 0 3 -2q-5 -5 -12 -9q0 -4 -3 -7q4 -3 0 -7q-2 0 -2 -2v-2v-1q-3 -2 -4 -2.5t-2 -0.5q0 -13 -9 -18q2 -3 2 -4q-1 0 -2.5 -0.5 t-2.5 -0.5zM59 234v1v3q3 0 3.5 1.5t3.5 2.5l-2 -8h-3h-2zM64 244l-0.5 1t-0.5 2q5 1 5 4.5t7 4.5q-3 -4 -2.5 -5t0.5 -4q-5 -2 -9 -3zM74 260v0.5v1.5h1h3l0.5 -1l0.5 -1h-3h-2zM84 273q-2 1 -2 3q5 1 8 11q4 0 5 -1v-1v-1q-1 -1 -2.5 -1.5l-1.5 -0.5q0 -1 0.5 -2.5 l0.5 -1.5q-2 -1 -3 -5h-3.5h-1.5zM91 289q1 8 14 11q-1 -1 -8 -10q-5 0 -6 -1zM111 319q3 1 7 2h-4h-2q0 -1 -0.5 -1.5zM116 327h1h4q-2 1 -2.5 2t-0.5 2h-1.5h-0.5v-2v-2z" />
<glyph unicode="H" horiz-adv-x="382" d="M279 236q-12 0 -48 -11.5t-45 -11.5v-1.5v-1.5q-4 0 -13.5 -1t-10.5 -5q-9 -1 -17.5 -4.5t-17.5 -5.5q-15 -34 -34.5 -84t-19.5 -83q-3 -21 -9 -22t-18 -1q-7 10 -7.5 9t-2.5 17l1 0.5l1 0.5v1v2q3 5 0.5 1.5t-0.5 1.5q4 0 4 -3q3 1 20 42t29 62l-2 5q5 5 5 8q2 0 3 2 q0 2 3 8l5 10l0.5 0.5l0.5 0.5q1 8 6 9q0 3 0.5 5t0.5 5q-4 0 -7 -6q-2 2 -3 2q-3 -5 -19.5 -8t-21.5 -4v-1.5v-1.5q-4 0 -5 -1.5t-4 -1.5v1v1q-4 -1 -10 -2v-3v-1q-19 -4 -33.5 -3t-7.5 26q2 6 11 4t23 1q0 -1 0.5 -3.5l0.5 -2.5l1 3t3 3q4 1 19 4t30.5 7t27 9t9.5 11 l1 0.5t2 1.5q1 3 15 31t15 53h0.5h1.5q7 20 14.5 42t11.5 43q4 1 4 10q12 3 4 5t2 6q0 4 1 5l1 0.5l1 0.5q1 3 1 9h1h3v1v2q17 6 14.5 -15.5t-8.5 -25.5q0 -6 2 4t1 4q-1 0 -3 -2q-3 -24 -15.5 -49.5t-18.5 -46.5q-2 -1 -6 -1v-2.5v-0.5q3 0 4 -1q-6 -19 -16.5 -37.5 t-19.5 -37.5q15 0 29 8t32 8q3 1 11 3v1t1 1q28 0 33.5 4.5t10.5 0.5q3 2 7.5 2.5t8.5 3.5v0.5v1.5l16 4q0 1 1.5 2.5t2.5 3.5q-1 0 -1 3q3 3 5 6q-2 4 3 15.5t8 14.5v1v2q2 0 4.5 9t3.5 12q-1 1 -1 4h0.5t0.5 1q2 -1 5 -1q0 3 -0.5 6.5t4.5 9.5q0 13 10 27q-1 1 -1 2 l0.5 1.5t2.5 2.5q-1 1 -1 3q4 11 1 -2t0 -4q8 12 12 33t14 30q4 -4 4 -6q3 1 3.5 5.5t4.5 5.5l1 -0.5l1 -0.5q-2 0 -2.5 -0.5l-0.5 -0.5q0 -2 0.5 -2.5l0.5 -0.5q2 1 3 3q3 -3 5 -6t5 -6q-2 -1 -4 -3q3 -7 3.5 -10.5t-1.5 -10.5l-3 -3v-2v-1l-0.5 -1l-0.5 -1v-1t1 -1 q-4 -2 -5 -4v-5q0 -1 2 -3q-2 -3 -3.5 -5t-1.5 -5q-3 -3 0 11.5t2 12.5q0 -1 1 -2t2 -1q-4 -2 -2 -8q0 -2 -3 -2t-5 1q-3 -5 -6 -12.5t-7 -7.5q0 -2 2 -4q-1 -2 -1 -2.5v-0.5l-4 4q-5 -8 -3.5 -13.5t-0.5 -12.5q-6 1 0 10q-4 -3 -6.5 -10t-1.5 -10q-3 -3 -4.5 -3t-3.5 -1 q0 -3 1 -5t-1 -3q-2 0 -2.5 0.5l-0.5 0.5q0 -1 0.5 -2t2.5 -2q0 -1 -1 -1.5l-1 -0.5q-2 2 -3 4v-3v-1l3 -3q-4 -9 -6 -11q0 -4 -1 -6t0 -5q-3 -3 -4 -7q-5 -10 -6 -15l27 6v0.5v0.5q18 5 42 8t44 0v-1v-2l4 -2t5 -1q9 -27 -12 -31.5t-24 -3.5v1.5v1.5q-3 3 -7 10 q-11 -6 -38 -7.5t-41 -2.5l-9 -3v-2h-2h-1q-1 -4 -3 -8.5t-2 -8.5q-6 -6 -4 -13q-9 -17 -17.5 -37t-11.5 -39q2 0 5 -3q-5 -3 -3 -7q-1 0 -1.5 1.5l-0.5 1.5q0 2 1 3q-1 0 -1 0.5v0.5q-3 -3 -4.5 -6.5t-4.5 -6.5q1 0 1 -1q-2 -4 -3 -9t-3 -7v-2.5v-0.5q-2 -4 -4.5 -7 t-2.5 -6q-3 -2 -4 -3q2 -2 5 -3q-1 -2 -2.5 -3.5t-2.5 -3.5l2 -2q-4 -8 -4 -16q-3 -2 -3 -3t1 -1q-2 -2 -2 -5q0 1 2 -5q-3 -8 -11 -18q0 -5 -2.5 -16t-10.5 -5q-6 -6 -11 -4.5t-10 5.5q1 7 -1 11q6 6 9.5 12t8.5 14l-0.5 0.5l-0.5 0.5q1 3 5.5 12t2.5 12q1 0 2 1t3 2l-3 3 t-2 4q3 2 7 8q1 -1 3 -1q-1 1 -1.5 2.5t-0.5 3.5q4 6 3 11.5t-1 12.5q-1 0 3 2l2 -4t4 -3q0 1 1 2.5t6 9.5q-2 4 -2 10q0 1 1 4t4 6q0 -2 2 -2h0.5t0.5 2q-1 1 -3 5q0 2 0.5 4t1.5 4q3 -2 5 -4l0.5 1l0.5 1q0 -1 -2 5h1h1q-3 8 1 10.5t3 10.5h0.5h1.5v0.5v1.5q4 -2 5 -4 q1 0 1.5 1t1.5 1q-3 3 -4 5.5t-4 6.5q4 0 8 5l-3 3q3 0 4 2q0 3 3 6q-3 2 -4 4q4 2 5 2q-1 0 -1.5 1l-1.5 3q3 0 5 5.5t1 7.5q2 3 5 11zM384 399v-0.5t1 -0.5q-1 -4 -5 -7v1.5v1.5q1 0 2 2t2 3zM362 385q-1 -2 -2.5 -4t-1.5 -3l3 -3q2 5 1 10zM353 382q-1 -2 -2 -3 q0 -1 0.5 -1.5t1.5 -0.5l0.5 0.5t0.5 1.5l-0.5 0.5t-0.5 2.5zM353 375q-1 -2 -2 -3t-1 -2l0.5 -0.5t1.5 -0.5l0.5 0.5l0.5 0.5v3v2zM343 357q-2 -5 -1 -10l0.5 0.5l2.5 2.5l-1 1t-1 2l1 0.5t2 2.5q-1 0 -1.5 0.5t-1.5 0.5zM345 327q0 -3 -3 -6h-0.5t-0.5 1q2 4 4 5zM336 305 q0 -2 -4 -6q2 4 4 6zM327 311q-5 -5 -7 -6l4 -2q-2 -1 -2 -4q0 -1 2 -1q3 7 3 13zM320 286q-1 1 -2 1q-3 -6 -3 -10q3 2 5 9zM314 274q-3 -3 -3 -2q1 -3 1 -4t3 4l-0.5 1zM308 235q0 -1 1 -4q-5 -2 -6 -5q-1 2 -2 3t-1 4h1h1l3 -3q0 3 3 5zM274 149q0 -4 2 -5q-4 -2 -3 -2 q-2 3 -1 6q1 0 2 1zM262 119q0 -1 0.5 -2l0.5 -1q-1 0 -1 -2v3v2zM249 82l2 -2l-2 -4l-1 1l-1 1l1 0.5l1 0.5l-1 0.5l-1 0.5l1 0.5t1 1.5z" />
<glyph unicode="I" horiz-adv-x="382" d="M96 -17q4 14 2 17q5 4 3 11t2 10q-1 0 -2.5 -0.5t-3.5 -0.5q0 2 2 5t2 5q-3 -3 -10 -3q-3 -6 -11 -2q-2 -6 -13.5 -10t-16.5 -4q-1 0 -1 -2q-12 -3 -21.5 -4t-21.5 -1q-1 1 -1 2q-6 2 -5 9t4 12l0.5 0.5l0.5 0.5q0 4 -1 5q15 3 36.5 3.5t34.5 12.5q7 4 16 6 q11 0 13.5 4.5t8.5 9.5q0 9 12 34.5t9 34.5q6 3 6 9.5t5 10.5q-1 0 -3 2q0 4 3 5q14 40 30.5 74.5t38.5 119.5h-4.5h-3.5q0 13 -12.5 13.5t-27 -5t-26.5 -12.5t-12 -8q-6 -2 -17.5 -6t-20.5 -5.5t-12.5 3t6.5 20.5q4 0 8 5q6 -4 14 2l24.5 9.5t29.5 9.5v-1.5v-0.5q3 0 5 0.5 t5 1.5q-1 1 -1 5h2h3q1 -3 17 5t31 11q1 4 3 10t8 9q0 1 0.5 3.5t0.5 4.5q5 1 5 8q0 -2 2 -2q7 7 12 -4t7 -15q27 8 53 14q2 -1 6.5 -0.5t6.5 4.5q24 0 44 1.5t7 -25.5q-4 -7 -8 -13.5t-10 -9.5v-2v-1q-5 -3 -8 -8h-2.5h-1.5q-1 2 -1 4q-1 0 -3 0.5t-2 1.5q0 9 6 13 q-1 1 -1.5 2t-0.5 3q9 1 6 13q-6 3 -20.5 1.5t-30.5 -5.5t-29 -7.5t-14 -4.5l-5 -16q-2 0 -3 -1q0 -7 -3.5 -13t-0.5 -12h-2.5h-1.5q-6 -30 -20 -55.5t-19 -52.5h-4h-2q0 -21 -17.5 -46t-17.5 -47q-2 -2 -3 -8h-3h-1q0 -3 -2 -5t-3 -6q3 -2 2 -4.5t0 -5.5q-1 1 -3 1 q-3 -10 -9 -28t-6 -27q-5 -1 -6 -4q0 -1 2 -1q-1 -2 -3 -3.5l-2 -1.5q0 -1 14 1q0 2 6 5q0 1 12.5 3t28.5 4.5t30.5 4t18.5 1.5v-0.5v-1.5q0 1 0.5 1.5l0.5 0.5q1 0 7 -3q0 -6 4 -7q-4 -10 -5 -15q-4 -1 -8.5 -4.5t-8.5 -5.5q-18 2 -43 1.5t-38 -9.5q-6 -2 -12.5 -3 t-11.5 -4q0 -6 -1 -10.5t-1 -8.5h-2.5h-1.5q-2 -5 -5.5 -14.5t-6.5 -11.5q0 -1 0.5 -2l0.5 -1q-2 -3 -6 -3zM138 106q1 0 2 6h-1.5h-0.5v-6zM156 158q2 1 3 1v2v3h-1.5h-1.5v-3.5v-2.5z" />
<glyph unicode="J" horiz-adv-x="350" d="M79 -9v0.5v0.5q-4 2 -8.5 2.5t-7.5 0.5q-6 2 -6 7q-3 0 -9 3q-4 2 -4 6q-6 2 -18.5 21.5t-14.5 26.5h-0.5h-0.5q-3 8 -5 15.5t-3 14.5h1h1v1v2h-1h-1v2.5v2.5q-1 0 -2 1q0 2 0.5 3.5l1.5 4.5h1h1v1v1h-2.5h-0.5v3.5v4.5l1.5 0.5l1.5 0.5v0.5v1.5h-1h-1q0 3 -0.5 8.5 t3.5 6.5l0.5 -1l0.5 -1h1.5h2.5q-1 1 -1 6h0.5h1.5q0 3 -0.5 6t-0.5 6q-3 -1 -4.5 -2.5l-1.5 -1.5q0 4 2 12q0 1 3 1v-3v-3l0.5 0.5l0.5 0.5q0 4 5 7q0 -1 2 -1v-17.5t1 -15.5q-2 -2 -2 -3v-2v-3q1 2 4 2q0 -5 -2 -8h-2h-1q0 -1 2 -5h-1.5h-0.5v-0.5t1 -0.5q0 -1 2 -1 q7 -40 21 -59.5t27.5 -27.5t24 -8h10.5q32 6 47.5 16.5t32.5 46.5q30 91 50 161.5t61 160.5q-16 -3 -34 -7.5t-33 -8.5l-0.5 -1l-0.5 -1h-4h-5q0 -4 -28 -13t-34 -9v1v2q-3 0 -7 10.5t23 12.5v0.5t1 1.5q19 3 33 9t37 6q0 5 7 3v2v2q5 0 16.5 2t17.5 2v0.5v1.5q16 0 36 7 t44 12q0 -1 0.5 -1.5t0.5 -1.5l1 -0.5t3 -0.5v1.5v2.5q14 0 33 5q0 7 11.5 8t17.5 0q11 -3 3.5 -18t-16.5 -15v0.5v0.5q-5 -9 -11 -8t-11 1l-4 4l0.5 1t0.5 2q-15 0 -29 -2t-29 -4l2.5 -0.5l2.5 -0.5q-5 -1 -9 -1.5t-7 -1.5q3 0 5.5 -0.5t4.5 -0.5v-1.5v-0.5h-6.5h-5.5l-3 3 q1 11 -12.5 -27t-32 -94.5t-37 -116.5t-28.5 -93q-2 -4 -5 -9t-2 -8h-1.5h-0.5q0 -4 -2 -7t-2 -8q-1 0 -2.5 -0.5t-2.5 -0.5q0 -2 -0.5 -4.5t-0.5 -3.5q-8 -12 -32 -28t-76 -11zM17 160q1 1 1 4q1 0 2 -1t2 -1v-1.5v-0.5h-2h-3zM11 161q-2 0 -4 1q0 1 1 2.5t1 4.5q2 0 7 -2 v1v1h0.5h1.5q0 -3 -1 -4h-2h-1q-2 -1 -2.5 -2.5z" />
<glyph unicode="K" horiz-adv-x="335" d="M228 0q-10 4 -18.5 13.5t-17.5 13.5q-3 8 -14 12q-3 -2 -17.5 14.5t-31 39t-30 45.5t-13.5 34q-2 -1 -6 -2v-2v-1q-2 0 -5 -1v-1v-1q-5 -2 -7 -2q-2 -3 -2.5 -3.5t-1.5 -2.5q2 0 2 -1q-7 -27 -14.5 -53.5t-15.5 -53.5q-2 -1 -3 -1q0 -8 -5.5 -18t-2.5 -15q-8 -10 -24 -8 q-1 9 2.5 23.5t10.5 30.5q6 20 13 39.5t3 29.5h0.5h1.5v1.5v2.5l2 0.5t3 0.5q-1 3 -2 4t-1 4q2 1 3 4q2 -1 4 0q2 6 0 9q-6 0 -10.5 0.5t-9.5 0.5q-4 3 -5 10q-9 4 -5 20l1.5 0.5t2.5 0.5v1.5v1.5l5 2q-2 5 2 11.5t9 13.5q5 6 10 11t5 7q6 5 10.5 7.5t14.5 2.5q1 3 1.5 7.5 t3.5 12.5q3 1 2 4t-4 1q-1 0 2 13t7 29.5t9 30t10 13.5q0 5 -1.5 17t10.5 15q5 16 9 35t26 7q2 -11 0 -25.5t-11 -20.5v-3v-3h-2h-1q-9 -47 -21 -71.5t-22 -75.5l1 -0.5t2 -0.5q2 -6 5 -7t6 -5l-3 -4.5l-3 -4.5q3 0 6 3v1v1q4 3 11 3q0 3 2 6h3h5q-1 0 12.5 12.5t31 27.5 t34.5 28t24 15q0 3 1 5.5t1 4.5q-2 0 -2 1v1q7 1 20.5 11.5t27 23.5t24 25.5t13.5 17.5h2h2q0 13 9 15v2v3q6 3 9 5t7 9q15 5 22 -3q3 -6 0 -15.5t-12 -13.5t-10 -9l-1 -0.5l-1 -0.5q-1 -2 -1 -4q-29 -14 -65 -53q-37 -40 -79 -75.5t-75 -61.5q-11 -11 -1 -36t28.5 -51.5 t39.5 -47t33 -20.5q29 -24 68 -25l0.5 0.5l0.5 0.5q2 -3 7 -3.5t9 -0.5v1.5v2.5q2 0 6.5 -6t4.5 -9q-7 0 -35.5 -8t-50.5 8zM37 148q0 3 2 6v-4v-2h-1.5h-0.5zM53 193q0 2 2 4t2 5h-3h-1v-5v-4zM66 246q-1 4 2 10v-5v-5h-1h-1z" />
<glyph unicode="L" horiz-adv-x="335" d="M14 -14q0 3 1 5q-14 3 -14 13t3 18q4 7 13.5 10.5t18.5 15.5q0 7 12 28t18 24v0.5v1.5q4 2 5 3l27 41q0 13 4.5 15.5t4.5 12.5q1 1 5 1l-0.5 1t-0.5 2q7 9 11 20l5.5 10.5t12 24t12.5 25.5t8 15q-4 0 -5 3q4 6 5 11q4 0 15 27t5 32q-3 5 -2 7l3 9q1 0 -2.5 2.5t-0.5 3.5 l15 27.5t16 30.5q-2 4 1.5 6t3.5 9q18 0 17.5 -8.5t-0.5 -26.5q-5 -3 -7 -13.5t-2 -14.5h-3h-1q-3 -8 -8.5 -23.5t-3.5 -20.5q-2 -2 -4 -2q-2 -4 -4 -6q1 -1 3 -2q-3 -9 -7 -16t-11 -22q-10 -22 -18.5 -39.5t-8.5 -20.5h-2h-1q-3 -3 -4 -6t-4 -5q3 0 4 -1q0 -1 -12 -23.5 t-15 -24.5v-1v-1q1 0 3.5 3t3.5 4q0 -3 -1.5 -5.5t-1.5 -5.5h-2.5h-0.5q0 -3 -0.5 -4.5t-0.5 -4.5h-2.5h-1.5q0 6 4 10q-4 0 -10.5 -11.5t-6.5 -14.5h1h2q3 3 4 7t6 7q-6 -8 -8 -20h-2.5h-0.5q-5 -10 -13 -13q-2 -3 -5.5 -9.5t-6.5 -8.5v-1v-1h2h2q1 6 9 14q1 -2 -3 -9 q-3 -3 -6.5 -9t-1.5 -8h-2.5h-0.5q-3 -7 -6 -12.5t-5 -11.5q-2 0 -4 -0.5l-2 -0.5q2 0 2 -1q-3 -7 -7 -14q1 -1 5 -1q0 1 1 3q4 1 10.5 4.5t10.5 3.5q3 4 3 5q7 0 11 1v2v2q6 1 49.5 20t73.5 19q0 3 6.5 3.5t9.5 0.5v0.5v2.5q9 0 45.5 0.5t36.5 -12.5q6 -3 5 -14 q-5 -13 -11 -14q-1 0 -1 -2q-5 0 -8.5 1t-7.5 1v1.5v2.5q-3 1 -4 1.5t-4 2.5v1.5v4.5q-21 1 -37 -1t-34 -3v-1.5v-0.5q-22 1 -44 -10.5t-43 -17.5q-4 -4 -10 -4v-2v0q-6 -3 -11.5 -5.5t-10.5 -4.5v-2v-1q-6 0 -30.5 -12.5t-26.5 -19.5q-2 0 -3.5 -1t-2.5 -1q0 -1 1 -3 q-5 -2 -8.5 -4.5t-8.5 -3.5q0 1 1 3l-2 2q-2 0 -2 -0.5v-0.5l1 -0.5t1 -2.5q-2 0 -3.5 -0.5t-2.5 -0.5zM133 178l-0.5 1l-0.5 1q1 2 5 2l-2.5 -2.5z" />
<glyph unicode="M" horiz-adv-x="467" d="M11 -35q-9 4 -8.5 12.5t-2.5 9.5q0 7 4 12q2 1 2 5t1 8h1h2q-1 7 0 13.5t1 13.5h3.5h3.5v3v2q1 1 7 3q0 24 10 37t17 37h0.5h0.5q0 -5 -1 -8h0.5h1.5q7 6 4 19q3 0 8 14.5t8 23.5q2 0 4 1v2v3q2 1 3 2q-2 3 -7 4q0 4 10 23t11 19q-5 5 2.5 17t4.5 21q11 1 8 12q0 2 -3 2 q3 7 7 19q2 2 4 2q0 3 1.5 10.5t2.5 11.5v0.5v0.5l2 4q3 0 5 -2q0 2 -3 7q0 1 1 2.5t1 4.5h-3h-2l-0.5 1t-0.5 3q-16 1 -11 14.5t8 22.5q1 0 2 0.5t2 0.5l0.5 0.5t0.5 1.5h1.5h1.5q0 6 8.5 20t9.5 25q3 0 2 1.5t2 4.5h8h9q5 1 8 -3q2 -5 2 -22q-1 -33 -4 -71t-3 -59 q0 -12 2 -32t5.5 -40.5t9.5 -36t15 -16.5q1 0 4.5 7.5t6.5 7.5v0.5v2.5q2 1 6 1q-1 2 -1 6q2 2 5 4q2 -2 3 -4q22 24 50 57t57 65q3 0 24 27t21 31q3 2 4.5 5t4.5 5q0 8 4.5 9.5t4.5 10.5q4 2 4 9q8 10 22.5 20t21.5 19q12 13 21 9t7 -9q-1 -7 -3.5 -13.5t-2.5 -13.5 q-5 -2 -5 -11h-1.5h-0.5l2 -6q-1 0 -2 -0.5l-1 -0.5q-19 -31 -23 -53.5t-7 -22.5q-1 -7 -3.5 -12.5t-2.5 -11.5q-3 0 -4 -1q0 -4 -1 -6q-9 -4 -24 -53t-28 -99q-9 -31 -10.5 -42.5t-1.5 -17.5q0 -1 2 -1.5t4 -0.5q3 -6 1.5 -11t1.5 -10q-3 -1 -7 -5l1 -1t1 -2 q-5 -9 -7 -15.5t-12 -9.5v-1.5v-1.5q-6 0 -7 -7q-5 1 -17 1q-3 12 -3.5 21.5t5.5 21.5q-4 6 -0.5 16.5t6.5 16.5l6 18t18 55q12 36 22 68t11 39q3 0 6 11l-0.5 0.5l-0.5 0.5q1 2 3 6.5t4 6.5q-1 1 -1 3q2 6 2 10q2 1 4 1v2v1q2 1 5 8.5t1 9.5q3 4 4 7.5t7 6.5q-1 1 -3 1 q0 2 2 5q0 1 -1 2q3 3 4.5 9t-0.5 10q-3 -3 -3.5 -4.5t-3.5 -1.5q0 -3 -0.5 -4t-0.5 -2q-6 -3 -10 -12.5t-10 -10.5q-2 -7 -7 -7q-5 -9 -5 -11q-2 0 -4 -1q-2 -4 -3 -9q-5 -1 -19.5 -19.5t-15.5 -21.5q-1 -1 -3 -1l-3 -3q-1 -4 -4 -4q-5 -6 -31 -34t-26 -33q-2 0 -3 -0.5 l-1 -0.5q-1 -2 -1 -7q-5 0 -6 -2t-4 -4q0 -3 -1 -8q-4 0 -5 1q-5 -6 -8 -10t-6 -12q-3 0 -16.5 -23.5t-35.5 -24.5q-15 -1 -17 2.5t-2 15.5q2 1 6 1v1.5v10.5l0.5 0.5t1.5 0.5q1 4 1.5 7.5t3.5 8.5h-2h-1q-2 30 -12 69.5t-4 66.5q-2 0 -5.5 5.5l-3.5 5.5v3v3q-1 1 -4 1 q-10 -16 -10 -32q-6 -2 -2.5 -6.5t-6.5 -4.5v-3v-2l1 -0.5t2 -0.5q-11 -21 -19.5 -47t-13.5 -50q-4 0 -5 -2q-1 0 -1 -2q-9 -26 -15 -40.5t-6 -30.5q-3 -2 -6 -13t-1 -13q-4 -2 -4 -3t0.5 -2t0.5 -3h-2h-2q-3 -13 -10 -32t-4 -32l-8.5 -8t-16.5 -2zM330 15h2h3v1v2h-4h-2 q0 -2 1 -3z" />
<glyph unicode="N" horiz-adv-x="363" d="M0 -16v1.5v0.5q0 1 0.5 1h0.5q0 4 -7 4v4v1q-2 0 -3 1q1 9 1 10.5t-1 4.5q3 2 5 2q-2 2 -2 3q1 0 1.5 0.5l0.5 0.5q11 25 22 53q9 20 17 41.5t15 42.5q9 24 16 48t16 48q3 0 3 5.5v8.5q6 0 6 10.5t6 13.5q-1 1 -1 9q1 3 3 4t2 4h-4h-1q0 3 0.5 9.5t4.5 8.5q0 7 2 15.5 t8 13.5h-2h-1q0 10 4.5 26.5t1.5 25.5q-1 4 2 8.5l5 7.5q7 8 14 7q11 0 23 -13q-2 0 -3 -0.5l-1 -0.5q0 -3 -1.5 -7t1.5 -7h-4h-1v-2v-2h-1.5h-1.5q2 -11 -6.5 -26.5t-2.5 -26.5q-3 -2 -3 -13h0.5h2.5q0 -3 -2 -4l-2 -1q5 -10 5 -16q0 -1 0.5 -1.5t0.5 -1.5l-4 -2 q0 -10 3 -34.5t9 -53t14 -55t17 -40.5q3 0 4 -2q3 -10 5 -11.5t-4 -15.5q11 3 14.5 -7.5t4.5 -10.5q0 6 2.5 12t2.5 12q8 3 11.5 20t3.5 26q1 0 2.5 0.5t4.5 0.5q-3 2 0 13.5t8.5 25t10.5 24t6 11.5q-6 8 3 11q0 2 4 9t6 7q2 8 -1 5.5t2 5.5q-5 3 -1 6t7 4q-5 6 1 17t6 19 q5 5 3 11q12 6 16 32.5t10 28.5q10 18 9 27t6 14q-3 5 1 6.5t4 5.5h-0.5t-0.5 2q-2 3 0.5 9t4.5 11q3 2 1 9q3 2 9 5t9 -1q4 0 8 -13l-1 -0.5l-1 -0.5v-2.5v-2.5q-2 0 -5 -2v-1.5v-1.5q1 0 1.5 -0.5t1.5 -0.5q-4 0 -5 -1q0 -3 2 -4q-3 -5 -10 -25t-6 -23q-6 0 -4.5 -6.5 t-4.5 -11.5q2 -4 2 -9h-2h-2q-3 -8 -8.5 -28t-9.5 -22q1 -8 -6 -8q-4 -8 0 -12.5t-8 -5.5q-1 -8 -5 -16t-4 -15q-2 -1 -4 -1q-3 -18 -13 -35t-11 -35q-2 0 -2 -2q-1 -6 -6.5 -23t6.5 4q3 -17 -8.5 -22t-8.5 -18q8 10 4 -1t-4 -13v-3v-1q-3 -5 -10.5 -28.5t0.5 -29.5 q2 -5 0 -9q1 -13 -3 -19.5t-19 -9.5h-6.5h-6.5q-3 5 -9 17q3 1 3 11q-9 -1 -22 30t-15 42q-9 5 -5 13q-5 6 -11 26t-11.5 43.5t-9 45t-2.5 30.5h0.5h1.5q0 2 -2 2q-6 -4 -10.5 -23t-7.5 -25v-1t1 -1q-4 -7 -6.5 -18.5t-9.5 -11.5q0 -6 -3 -12t-6 -11q-1 -3 -1 -6t-4 -3 q-2 -6 -3.5 -9t1.5 -7q2 0 3 -2l1 -0.5l1 -0.5l-4 -2q0 -2 0.5 -3.5l0.5 -1.5h-1.5h-0.5q-9 -24 -20 -50.5t-12 -50.5q-1 0 -2.5 -0.5l-1.5 -0.5q0 -3 1 -4q3 0 4 -3q-4 -3 -6.5 -10.5t-2.5 -10.5q-1 -1 -3 -1q0 -4 -8 -8t-12 -4zM261 167v3v4h0.5h1.5v-3v-2q-2 0 -2 -2z M272 202q0 8 7 18q0 -5 -2.5 -8.5t-0.5 -7.5q-2 0 -4 -2zM278 222v1v2q2 3 3.5 6t4.5 5q0 -11 -8 -14zM298 277q-3 5 2 0.5t-2 -0.5z" />
<glyph unicode="O" horiz-adv-x="331" d="M108 -11q-33 0 -63.5 20t-33.5 62q3 1 -5.5 22.5t-1.5 33.5q-2 0 -3 0.5l-1 0.5q1 7 0 16h1h3q-2 8 1.5 43t15.5 35q3 12 5.5 23t14.5 17l-2.5 5t-0.5 4q-2 1 8 17.5t16 21.5q1 1 3 1q-2 2 -3 8q1 1 3.5 2t4.5 4q-1 0 -1 1q0 6 13.5 18.5t19.5 14.5v2v2q-2 0 -4 1 q0 1 1 2.5t1 2.5h1.5h3.5v0.5v0.5q5 0 7 2q6 3 20 13t19 13q-1 4 3.5 3.5t9.5 -0.5v0.5v2.5q2 0 4 3.5t6 4.5q16 11 31.5 19t29.5 11q0 1 11 0.5t24.5 -4t25 -11t13.5 -17.5q4 0 7.5 -13t5.5 -28.5t3 -30t1 -18.5q-6 -3 -6 -4q1 -3 3 -5t4 -5q-2 -6 -6 -7v-0.5v-0.5h3.5h2.5 q0 -3 -5 -8q2 0 5 -1q-1 -1 -1 -5h-1.5h-0.5q-2 -2 1 -8q-6 -24 -13 -61.5t-18.5 -75t-28.5 -69t-41 -43.5q-1 -4 -10 -4q-4 -11 -23 -17.5t-31 -9.5v-1v-3q-13 0 -26 -1zM101 16q9 0 30 3t28 9q2 0 2 -1q36 12 59 32t41 63q9 21 14.5 48.5t8.5 39.5q-2 2 -1.5 6t0.5 7 q1 1 4 1q0 6 2 7q0 11 1 13.5t0 6.5h2h2q-1 9 -2 11q2 1 7 6q-3 6 -2 5h1.5h3.5q0 4 -4 6h0.5h1.5q-1 5 -1 8q1 1 4 1q-1 3 -3 5t-2 6l6 3q-1 2 -1 4q-1 2 -4 2q3 8 2.5 22t-6.5 21q4 50 -29 65q-18 7 -37 1.5t-25 -13.5v-2.5v-0.5q-21 -4 -54.5 -37t-33.5 -59q-2 1 -4 1 q-3 -6 -6.5 -10.5t-3.5 -11.5h-2h-2q-2 -12 -14 -13v0.5v1.5q1 0 2 0.5t4 0.5v2v2q-9 -1 -10.5 -4.5t-1.5 -11.5q-2 -1 -4 -1l2 -6h1.5h1.5q0 -3 -0.5 -4.5t0.5 -4.5q-5 0 -10 1q2 4 2 18q2 0 3.5 3.5t1.5 5.5h-3h-2q-2 -9 -10 -28.5t-13 -23.5q0 -2 0.5 -3.5t0.5 -3.5 q-2 0 -2 -1q-1 -1 -1 -5h-2.5h-0.5v-3v-7q-28 -94 -3 -132.5t61 -50.5zM81 287q1 1 5 1q2 10 -2 10q0 -3 1 -4q-1 -1 -2.5 -3l-1.5 -2v-1v-1z" />
<glyph unicode="P" horiz-adv-x="357" d="M9 -3q-4 3 -4 8q-1 0 -2.5 0.5l-1.5 0.5q-1 7 0 11l-0.5 0.5l-0.5 0.5q1 5 4 18t8 16q0 5 2.5 11t3.5 12q6 9 7 20.5t7 20.5q-2 0 -4 -2q0 6 -9 11t1 18q-6 8 9 25t23 20q1 3 1 6q4 0 7.5 4.5t4.5 8.5q3 -3 4 -0.5t-1 5.5q18 49 34 87.5t8 52.5l0.5 0.5t1.5 0.5 q-1 3 -4 6q4 4 4 14h-1.5h-0.5q-11 -16 -29 -11q0 2 -1 4q-2 0 -4 1q-3 6 0.5 13.5t9.5 10.5v1.5v1.5q2 0 19 6t16 11q2 1 8 1v2v1h3.5h2.5v1v2h2h3v-2v-1h2h2q0 8 24.5 15.5t54 12.5t54.5 7t25 -1q14 -3 21.5 -6t19.5 -7q2 -7 5 -13l6 -12q0 -29 -15 -62.5t-39 -65.5 q-36 -49 -83.5 -87t-86.5 -43q0 -2 -0.5 -2.5l-0.5 -0.5q-3 0 -6 -1v-1v-2q-17 -6 -33.5 -13t-31.5 -14q-6 -25 -14 -44t-11 -44q-1 0 -3 -8.5t0 -10.5q-6 0 -8.5 -4t-5.5 -7q-1 -1 -1 -4h-4.5h-1.5zM84 155q4 0 21 6.5t19 10.5q1 0 2.5 1t3.5 1q0 1 2 2h6.5h4.5l-0.5 1 t-0.5 3q1 0 3.5 0.5t4.5 1.5l-0.5 0.5l-0.5 0.5q28 15 69.5 48t57.5 62q-2 0 -3 -0.5t-2 -0.5v-1v-1h-2h-1v1v2q-6 0 -16.5 -1.5t-17.5 -5.5q8 6 20 10l24 8q-1 -1 -1 -5q3 0 5 -2q3 3 -1 7q1 0 3.5 2t5.5 4q0 4 4 4q18 23 26.5 42.5t8.5 49.5l-4 4v1v3q-3 3 -3 2v0.5v1.5 h-2h-1q-6 11 -33.5 12t-58 -5.5t-56 -18.5t-27.5 -27h-1.5h-0.5v-4t-2 -13q-1 -1 -1.5 -1h-0.5q0 -3 -3.5 -16.5t-5.5 -13.5q-6 -24 -13.5 -45t-12.5 -45h-1.5h-0.5q0 -4 -1.5 -7t-1.5 -6h2h2q2 4 12 7.5t14 3.5q-2 -3 -16.5 -13.5t-15.5 -10.5q-1 -3 -2 -7.5t-2 -4.5 q0 1 -1 3h-0.5h-0.5q0 -4 -6 -18t-9 -14q0 -4 -2 -10t-1.5 -9.5t12.5 0.5zM132 239l0.5 1.5t0.5 3.5q2 1 6 1v-2.5v-2.5q-2 0 -4 -0.5t-3 -0.5zM150 249v1v2q2 1 31 13.5t32 13.5q-1 -2 -30.5 -15t-32.5 -15z" />
<glyph unicode="Q" horiz-adv-x="363" d="M289 -24q-9 2 -25 7t-18 17q-12 4 -18.5 23.5t-17.5 18.5q-41 -42 -81 -48.5t-58 -2.5q-52 11 -62.5 59.5t-6.5 93.5q1 0 -0.5 0.5l-1.5 0.5h1.5t0.5 1q1 3 -0.5 5t0.5 4q17 58 51 116.5t76 101.5q-1 0 -1.5 0.5t-0.5 1.5h1h4v2.5v1.5h1h2q0 2 -0.5 3.5t-0.5 3.5 q0 1 2 1.5t3 1.5q16 9 26 24t20 21q0 1 0.5 1.5t0.5 1.5q4 1 6 4t9 3v2.5v1.5q12 0 18 -1t11 -11l1.5 -1t3.5 -1v1.5v1.5h0.5h2.5v1v3q3 4 4 3t9 -2q-2 -1 -4 -3t-3 -2v-1.5v-1.5q6 0 5 1t7 2v1v3q13 4 17 3t19 -3v-2.5v-0.5h1h2v1.5v1.5q6 0 12.5 -1t6.5 -8q13 -2 22.5 -18 t15.5 -36.5t8 -41t1 -30.5h0.5h0.5q0 -2 -5 -4q0 -2 0.5 -2.5l0.5 -0.5q0 -1 1.5 -1.5t2.5 -0.5q-1 -15 -6.5 -31.5t-13.5 -37.5q2 -4 -3.5 -17.5t-13.5 -28.5t-17 -27t-13 -13v-3v-2h-2.5h-3.5v-1.5v-1.5h1.5h2.5q-7 -15 -47 -54v-8t3 -7q-3 0 -4 -2q4 0 5 -1v-1.5v-1.5 q-1 -8 8 -26t10 -16l4 -2v-0.5v-0.5q1 -2 4 -2q6 -12 20.5 -12t29 5.5t24.5 13.5t9 12q2 8 13 2t5 -12q-3 -8 -21.5 -24.5t-66.5 -20.5zM74 258q-9 -21 -29.5 -63.5t-21.5 -87.5q-1 -24 7.5 -50.5t29.5 -34.5q19 -9 44 -4t46 14q38 18 52 47h1h3q-3 12 -8 31.5t-17 29.5 q-6 4 -16 3t-16 -1v-3v-1h-4h-1q-1 -1 -1 -3q-14 -2 -14 -16q-8 -9 -17 -8t-14 15q2 3 3 5t5 4q-1 2 -1 4q1 0 3.5 1.5t4.5 2.5v1v2q25 20 73 18q9 -3 19 -9t12 -21q6 0 6 -6q2 0 3 -1q2 -5 4 -9.5t6 -7.5q4 0 19.5 11.5t30.5 32.5q29 43 41 86q15 51 15.5 81.5t-7.5 64.5 q1 2 6 2v0v1q-3 0 -5 0.5t-5 0.5q-4 10 -4 15q-9 13 -30.5 20.5t-45.5 4.5q-13 -3 -19.5 -5t-16.5 -7q-20 -6 -40 -24t-37.5 -39t-30.5 -39.5t-17 -25.5q-2 -8 -9 -11q2 0 4 -2q-6 -3 -7 -7.5t-7 -7.5v-2v-2h1.5h1.5zM126 12q8 3 2 3t-2 -3zM335 396h0.5h1.5l-2 4h-2h-1 q0 2 3 -4zM306 432q2 1 4 1q-1 0 -2 0.5t-2 2.5v0.5v0.5h-1.5h-0.5q0 -1 2 -5zM284 443l-0.5 0.5t-0.5 2.5h3.5h3.5v-1.5v-1.5h-3h-3z" />
<glyph unicode="R" horiz-adv-x="401" d="M262 -9q-35 -1 -53 18t-28.5 48.5t-18 63t-22.5 59.5q-4 -2 -28.5 -14.5t-33.5 -9.5q-2 -3 -10.5 -27.5t-17.5 -53t-16.5 -51.5t-6.5 -23q-15 -6 -25 4q2 1 3 2q-4 2 -4 9l2 1t3 3q-1 0 -2 0.5t-2 0.5q3 16 23.5 61t38.5 90q-12 33 21 62q0 3 0.5 5t1.5 5q5 3 5 13h2h1 q1 1 1 4q1 0 2.5 0.5t3.5 1.5q-1 0 -2 2l-1 1t-1 2q2 0 3.5 -0.5t3.5 -0.5q-3 3 -3 9q8 19 11 38t6 39q-8 2 -6 10q-1 0 1 2t-2 2q-4 3 -2 5t2 8q-13 -1 -30 -8.5t-29 -13.5v-0.5v-0.5q-15 -5 -38.5 -12.5t-23.5 17.5q5 4 10 6v1v1q13 2 30 9q-3 1 43 15.5t104.5 29.5 t112 24.5t66.5 3.5l5 -1t2 -1v-0.5v-0.5q5 -1 15 0v-1.5v-0.5q23 -8 19 -34.5t-15 -30.5q-6 -27 -30 -53.5t-55 -50.5q-37 -29 -75 -51.5t-61 -35.5q2 -1 3 -4q0 -1 -0.5 -1.5l-0.5 -0.5q2 -2 6 -10l-0.5 -0.5l-0.5 -0.5q4 -13 10 -38.5t16 -51.5t26 -47t41 -25q7 -2 16 1.5 t19 9.5q1 0 7 -3q1 7 6 8q2 7 8.5 8.5t10.5 6.5q-3 2 5.5 7t11.5 7q0 4 3 7t2 7q5 0 6 2q-1 -7 -3 -11.5t-2 -8.5q-6 -4 -9 -9t-6 -8q0 -4 1 -6q-13 -9 -29 -23.5t-47 -15.5zM95 181q4 0 7.5 2.5t8.5 2.5q0 3 6.5 7t11.5 4q-3 5 -7 6q-1 3 -1 7q-16 3 -22.5 -7t-3.5 -22z M154 210q29 11 56 29t52 37v0.5v1.5q2 0 3.5 0.5t4.5 0.5v2v1q1 1 4 1q1 3 16 16t33 30.5t33 37.5t16 38q-2 11 -2.5 18t-12.5 8v0.5v0.5q-43 9 -81 -1.5t-77 -16.5q-3 -3 -8 -6t-8 -3q0 5 -3 4q-4 -6 -3 -5q-9 -3 -29 -9.5t-29 -10.5q8 1 13.5 2.5t11.5 1.5q9 0 10.5 -4 t1.5 -11q-1 -5 -3 -14t-7 -17l1 -0.5t2 -0.5q-4 -18 -18.5 -54t-18.5 -48q10 0 26 -10t16 -19z" />
<glyph unicode="S" horiz-adv-x="448" d="M135 -9q-15 0 -39.5 1.5t-48.5 11.5t-38 30.5t-5 45.5q10 24 27 33q1 2 4.5 3.5t6.5 4.5l0.5 0.5t1.5 0.5q-1 1 -1 2q3 6 3 3l0.5 -0.5l0.5 -0.5l1 0.5t2 1.5q2 -1 3 -2l-1 -0.5t-2 -1.5q1 0 3 -2q5 5 7 6v-0.5t2 -0.5l-4 -4l1 -1h0.5h2.5q1 0 2 2t4 2v-0.5t1 -1.5 q3 2 7 3.5t8 4.5l-4 2q0 2 2 3t3 3q1 -1 1 -2q-1 -1 -2 -3q0 -1 0.5 -1.5l0.5 -0.5q6 5 14 13t17 9q0 6 9.5 13t16.5 10q0 2 9.5 8t13.5 6l0.5 -0.5l0.5 -0.5q-1 -3 -6 -5t-7 -4h-1h-1q-3 -2 -8 -7q0 -1 2 -1q2 2 4 2q1 0 1 -1q9 6 16.5 9.5t14.5 12.5q-1 0 -3 0.5l-2 0.5 q3 2 9.5 3.5t11.5 4.5q-2 -7 -1 -8q12 11 27 12.5t26 12.5q1 0 1 -1q4 2 5 2l0.5 1l0.5 1l38 14q2 0 3.5 -0.5t4.5 -0.5q1 1 6 3v-1t1 -1q-1 0 -3 1l-51 -23q-1 0 -2.5 0.5l-1.5 0.5q-3 -3 -18 -10t-18 -6q-2 -1 -7 -6l-0.5 0.5t-0.5 1.5q-3 -2 -8 -7q-1 0 -1.5 0.5 l-0.5 0.5q-6 -4 -7 -6q-2 0 -2 0.5v0.5q-18 -11 -37.5 -18.5t-31.5 -20.5l-6 2q0 -1 1 -5q-2 -2 -4 -2l-28 -20.5t-40 -29.5q-9 -9 -14 -19t2 -22q21 -48 156 -31q41 4 99 32t94 97q10 20 6.5 39.5t-12.5 32.5q-17 17 -31.5 24t-35.5 15q-46 16 -90.5 19.5t-72.5 17.5 l-0.5 1.5t-0.5 2.5q-8 2 -9 13q1 2 4 2l-4 2q2 8 2 7q7 5 7 9q5 3 5.5 2t0.5 4q2 6 32.5 29.5t61.5 29.5q2 4 10 6q1 4 9 4q51 28 111.5 36t66.5 -10q18 -15 8 -41.5t-25 -27.5l-0.5 0.5t-0.5 1.5h-4h-2q-3 3 -5.5 13.5t-0.5 11.5q5 0 7.5 2t8.5 5q5 3 5 10t-10 13h-4.5 h-3.5v2v3q-5 1 -13 1q-1 0 -59.5 -11t-145.5 -72q0 -1 -1 -2q-9 -3 -15.5 -12t-3.5 -18q1 -5 24.5 -10t55 -12t64 -14.5t52.5 -16.5q3 0 4 2v-3v-1q0 -1 1.5 -1.5t2.5 -1.5q24 -15 36 -39.5t3 -53.5t-32.5 -60t-59 -56.5t-82.5 -41t-104 -12.5l-0.5 -1.5t-0.5 -2.5h-2h-1z M496 277q-4 0 -5 -1l-4 2q-6 -3 -16.5 -3.5t-16.5 2.5q-7 -6 -17 -4q-2 0 -5 -3q0 1 -2 3q3 6 12.5 3.5t9.5 6.5q3 0 6 3v-1.5t1 -1.5q-4 0 -5 -4q8 -2 21.5 0t20.5 -2zM491 284l-1 -1l-1 -1q-6 1 -11 1.5t-7 2.5q1 0 2 1.5l1 1.5q3 -2 6 0q2 -2 2 -3q3 1 9 -2zM441 282 q-5 0 -8 -1l-0.5 1l-0.5 1q1 3 3.5 2t5.5 -1v-1v-1zM421 270q-3 -2 -6.5 -2.5t-5.5 -1.5q-1 0 -3 2l-6 -3q-2 2 -4 2q4 3 10.5 3.5t11.5 1.5q1 -1 2 -1.5zM334 249l-1.5 -1.5l-1.5 -1.5q-1 3 -5 4q3 2 6 2q0 -1 1 -2zM325 246q-4 -2 -14 -2l1 1l1 1l-1 1.5l-1 1.5q2 1 4.5 3 t5.5 4v-0.5t1 -0.5q-2 -3 -7 -8q6 0 10 -1zM193 198v0.5v2.5q-2 0 -3.5 -1t-7.5 -4l0.5 -1l0.5 -1q3 2 10 4zM142 174h-3h-2q-3 -3 -5.5 -4t-4.5 -4q1 -1 1 -2q5 1 14 10zM105 154q-6 -5 -9.5 -6.5t-6.5 -7.5q-2 1 -2.5 1.5t-0.5 1.5q3 2 8 7t11 4zM78 130q-2 0 -3 2 q1 1 3 2v-2v-2z" />
<glyph unicode="T" horiz-adv-x="420" d="M38 0q-2 3 -5.5 2.5t-6.5 1.5q-6 7 -4 14q0 9 8 15q0 2 -1 3t-1 3q2 2 4 8l11.5 30t15.5 36q-1 2 1.5 5t2.5 4q1 2 14 32.5t28.5 67.5t29.5 70t19 39h1h3q3 16 10 28t13 30q-24 -4 -56.5 -15.5t-62.5 -14.5v-2.5v-2.5q-3 -7 -9 -7.5t-10 -0.5q-15 -1 -28.5 -2t-14.5 17 l1 0.5l1 0.5q0 4 -1 6q2 0 5 6q39 4 90.5 17t100.5 27q39 11 91 25.5t95 11.5v2v2q18 7 29 -1v-1v-2q1 0 2.5 -0.5t2.5 -0.5q6 -9 -3 -20q-11 -7 -21 -9v-1.5v-1.5q-3 0 -4.5 -1t-3.5 -1q-1 1 -1 2h-4h-3v1.5v1.5q-2 1 -5 1q0 2 1 4h-2.5h-1.5v-1v-1q-39 -3 -80 -10t-77 -19 q-5 -12 -5 -27t-1 -24q-4 -2 -9.5 -3t-5.5 -2l0.5 -0.5l0.5 -0.5q-8 -13 -23 -44.5t-30.5 -67t-29.5 -68t-20 -46.5l0.5 -1.5l0.5 -1.5q0 -2 -4 -3q0 -1 -7 -4v-4v-2q6 5 8 5q-4 -4 -4 -7.5t-3 -6.5q-2 -9 -10 -25.5t-6 -23.5q15 -2 10 -19q-12 2 -12 -5.5t-7 -12.5 q-4 -4 -17 -5z" />
<glyph unicode="U" horiz-adv-x="357" d="M49 -13q-1 2 -1 2.5v0.5q-36 0 -41.5 31.5t-1.5 58.5q-11 5 1.5 49.5t33.5 99t42.5 104.5t27.5 67q0 3 3.5 5.5t3.5 5.5q1 1 5 1q0 2 2 10q3 0 4 3t7 5l7 7q1 0 2 -1q1 3 9 3q3 -6 9 -7q1 -4 -0.5 -8t-0.5 -8h-2h-1q0 -1 -1 -2t-1 -2q-1 0 -1.5 -0.5l-0.5 -0.5 q-1 -3 -1.5 -5.5t-1.5 -5.5h-3h-2v-3.5v-2.5h-3h-1l-3 -9h-3h-2q-16 -23 -37.5 -65t-39.5 -89.5t-27 -92.5t1 -72q-1 -3 -3 -3.5t-3 -2.5h1h2l4 -20t12 -15v-3v-1q6 -1 16 -1.5t13 5.5q9 1 36.5 21.5t29.5 32.5l10 2v3.5v4.5q3 -2 24.5 26.5t45 65t42 71t17.5 46.5q6 1 9 10 t5 16h1h2q1 5 4 9t3 9q1 0 2 1q1 6 2 12.5t10 8.5q0 5 -2 8q1 6 3 9.5t2 11.5q1 2 1.5 5.5t1.5 6.5q0 1 3 1l-0.5 0.5t-0.5 2.5q7 1 7 14h1.5h3.5q0 8 10 23q1 4 1 14h0.5h2.5q0 -7 3 -10q-3 -6 -5.5 -11.5t-2.5 -12.5h-3h-1l2 -6h-2h-1q0 -7 -3 -13t-6 -13h0.5h2.5 q0 -4 -2 -6q-1 0 -2 -1l-1 -1h1h2q-2 -6 -10 -16t-6 -16q1 0 2 1t2 1q0 -3 -0.5 -5t-1.5 -10h-2.5h-0.5q3 9 1 12q-3 -3 -5 -10t-2 -11h-1.5h-1.5q0 -3 -1 -6t-1 -5h1h4v-1.5v-0.5q-1 0 -2.5 -0.5l-1.5 -0.5q2 -9 -3 -14l-1.5 -0.5l-1.5 -0.5l1.5 -0.5l1.5 -0.5q0 -4 -2 -5 h-1h-1v0.5v1.5h-0.5h-0.5q0 -5 -1 -8.5t-1 -7.5q-1 0 -2 0.5l-1 0.5q0 2 1 4t2 5q-3 0 -5 -1q0 -3 -0.5 -4.5t-0.5 -3.5q4 -5 3 -10h-2.5h-0.5q-1 2 -1 4q-2 -3 -2.5 -4.5t-2.5 -5.5q0 -1 5 -2q-3 -4 -7 -5q0 -7 1 -10q-17 -8 -29.5 -32t-25 -52.5t-27.5 -55t-36 -38.5 q-3 -12 -25.5 -34t-31.5 -25q-5 -10 -22.5 -14.5t-20.5 -10.5l-0.5 0.5l-0.5 0.5h-1h-2v-0.5v-0.5q-1 0 -1 0.5v0.5h-5h-4q-1 0 -1 -3z" />
<glyph unicode="V" horiz-adv-x="328" d="M18 -62q-2 3 -8 3v2.5v3.5h-4h-2q-2 4 -1 5.5t1 4.5q-3 4 -3.5 4.5t-0.5 5.5q1 1 3 2t4 1q-1 1 -1 5q3 1 9.5 14t6.5 17q-17 0 -17 8t-1 20h-2.5h-0.5q1 5 1 8h-1h-1q0 3 4 5q-2 0 -2.5 0.5l-0.5 0.5l0.5 0.5l0.5 0.5q0 3 -1 4q6 6 11.5 49.5t10 95.5t7.5 98t4 58 q-9 5 -9 18q0 1 2 1q-1 4 -1 11q1 1 4 1q0 4 0.5 13t3.5 12h-1.5h-0.5v3v3q-1 0 -1.5 0.5l-0.5 0.5q0 8 8 14v0.5v1.5q9 0 14 -1v-2v-2q3 0 6 -1l-0.5 -0.5l-0.5 -0.5q4 -3 3.5 -19.5l-0.5 -16.5q0 2 3 -4q-3 -5 -3.5 -10t-1.5 -8q3 -4 1 -9.5t-5 -7.5q3 0 4 -1 q-5 -20 -9.5 -61.5t-8.5 -83t-6.5 -72.5l-2.5 -31q0 -12 -1.5 -21t1.5 -21l1 -0.5t2 -0.5q-3 -2 -4 -4q0 -1 3 -2t6 -3q3 3 5 3v-1v-2q6 0 11 10t7 16q26 40 57 88t59.5 93t52 82t35.5 55q-1 4 -1 10q14 4 3 13q3 1 4 3q-1 0 -1 0.5v0.5q2 1 2 4q1 1 4 1q0 5 1 7h0.5t2.5 1 q0 5 2 7t5 6q-1 0 -2 1.5t-2 3.5q10 5 13 14q6 3 7.5 9t10.5 6q0 -2 5 -4t7 -4l-3 -11q2 -2 2 -4q-2 0 -4 -0.5l-2 -0.5q-1 -6 -6.5 -18.5t-10.5 -13.5v-2.5v-0.5q-1 0 -2.5 -0.5l-1.5 -0.5q1 -4 0 -7h-4h-2q-60 -130 -116.5 -201.5t-78.5 -125.5q1 -2 -11 -19.5t-13 -25.5 q-1 0 -3 -1q0 -8 -6.5 -16t-6.5 -15q-1 -1 -3 -1q-2 -9 -5 -10q2 -13 -8.5 -24t-9.5 -23q-7 -2 -9 -6.5t-5 -7.5zM44 42l1 0.5t2 0.5v1.5v1.5h-2h-1v-3v-1z" />
<glyph unicode="W" horiz-adv-x="546" d="M16 -14q-2 0 -3.5 0.5t-2.5 0.5q-3 5 -1 9h-2.5h-0.5q-2 5 -6 8l5 2q-7 18 0 33q-3 0 -3 2q0 3 1 6t1 10h0.5h1.5q-1 5 1 23.5t4 38.5t3 36t0 16q3 6 4 10h1h1q0 4 -1.5 10t-0.5 10q5 0 8 -2v1.5v1.5q-3 0 -4.5 0.5l-1.5 0.5q-4 40 1 63t2 72q2 2 7 2q-2 8 0 10 q-4 1 -9 1q0 5 1 7l-4 8q-3 1 -11 3v1.5v1.5q-2 1 -6 1q1 4 -1 9q1 1 4 1q-2 0 -2 1v1q3 8 3.5 9.5t3.5 4.5l-1 0.5l-1 0.5q2 1 4 4q-3 2 -1.5 6.5t4.5 7.5q-3 2 -4 4q1 1 4 1q-2 3 -1 8.5t1 9.5q2 0 6 6q5 0 7 3q6 0 10 -1.5t11 -4.5q0 -8 1 -12q-1 0 -5 -2q3 -2 6 -2 q-5 -20 -3.5 -37.5t0.5 -34.5q0 -1 2 -3q-3 -2 -3 -5q0 -1 0.5 -1.5l0.5 -0.5q-1 -3 -2 -4.5t-1 -4.5l-0.5 -1l-0.5 -1q0 -3 1 -5h1h2q-1 -8 0.5 -18.5t1.5 -16.5q-3 -1 -6 -36.5t-6 -78.5t-4.5 -79t0.5 -39q1 -6 0 -12q3 -2 3 -11q-3 0 -3 -2q1 -4 5 -4q0 3 1.5 5.5 t2.5 5.5l7 9q27 47 46 102t40 110q16 48 40 96q-1 0 -1 1v1q3 3 6 3q0 6 3 9.5t3 9.5q1 0 4 3q-3 5 -1 9t1 10q6 8 8.5 9.5t16.5 1.5l-2 -2h2h3q2 -2 2 -5q3 -1 6 -1q2 -9 3 -10q4 -14 1.5 -21t-6.5 -15.5t-7 -23.5t1 -43q-1 0 -1 -13.5t-2 -13.5q0 -5 3 -9h0.5h1.5 q0 2 -1 4l1.5 0.5l1.5 0.5q0 -8 -5 -14q0 -1 1 -2h0.5h1.5q0 1 2 2l0.5 -0.5t1.5 -0.5q-1 -1 -6 -4q3 -39 -1 -85.5t14 -106.5l-0.5 -0.5l-0.5 -0.5q3 -4 6 -11q-1 0 -2 -1v-1v-2q7 0 13 6t11 14q18 31 51 79t67.5 100t64.5 101t44 83l-0.5 0.5l-0.5 0.5q0 3 2.5 5.5 t3.5 7.5h0.5h1.5q3 16 7 21.5t24 5.5q0 -2 5 -4l0.5 -1l0.5 -1q-2 0 -3 -2q2 0 4.5 -0.5t4.5 -0.5q1 -4 -1 -8.5t-1 -7.5q-5 0 -7 -4q2 -2 2 -3q-4 0 -7 -4.5t-4 -6.5h0.5h3.5q-2 -4 -5 -5v-1.5v-1.5q-20 -33 -57 -86.5t-75.5 -110.5t-70 -109.5t-40.5 -82.5q-2 -2 -4 -3 t-3 -3l2 -2q-8 0 -8 -9q-6 -2 -8.5 -4t-7.5 -2q-3 -3 -8 -5l-0.5 -0.5t-0.5 -2.5h-12t-10 5q0 2 0.5 2.5l0.5 0.5q-7 2 -8 14h-2.5h-0.5q-1 1 -1 4.5v6.5h-1.5h-1.5q0 6 -3 11t1 11q-8 108 -6 143.5t1 60.5q-1 1 -2 3q1 0 3 2q-1 12 0 24.5t1 24.5q-1 1 -1 3q3 4 2 11.5 t2 12.5q-3 2 -3 5q3 1 3 3h-4h-1q-1 -2 -1 -3q-14 -39 -33.5 -90t-40 -99t-38 -85.5t-24.5 -48.5h-2.5h-2.5q0 -3 2 -4q-6 -9 -13 -11v-1.5v-1.5q-4 0 -11.5 -4.5t-11.5 -5.5zM22 204l1.5 1t3.5 1v0.5v0.5h-3.5h-1.5v-1.5v-1.5z" />
<glyph unicode="X" horiz-adv-x="328" d="M79 433q12 -3 13 -14t5 -29l0.5 -0.5t2.5 -0.5q0 -5 2 -9.5t-1 -9.5q1 -48 6 -85.5t9 -55.5l2 -3q-1 -8 0 -13l0.5 -0.5t2.5 -0.5l-3 -3l-1 -1q5 -5 4 -9l0.5 -0.5t1.5 -0.5q-7 -2 -2 -11q4 2 12 11t11 12q-1 3 4 6.5t7 6.5q-1 0 -1.5 0.5l-0.5 0.5l0.5 0.5t1.5 0.5v2v4 q3 0 4 2q-1 0 -2.5 0.5l-1.5 0.5v0.5v0.5q4 1 9 1q1 3 1 10l149 213q2 7 1 9h3h2q2 6 1 7q3 1 8 1v2v1q2 1 6 1v0.5v0.5h3h4q0 -1 3 -5h1h4v-2v-1h-4h-1v-3v-1q0 -1 2 -1q-2 -4 -4 -7.5t-3 -6.5q-2 0 -3 -0.5l-1 -0.5q0 -3 -0.5 -4t-0.5 -2q-3 -1 -6 -4q0 -5 -7 -6 q0 -1 -0.5 -3t-0.5 -3l-152 -216q-8 -1 -4 -1q0 -1 -0.5 -2t-0.5 -2q-2 0 -3 -1v-4v-3h-0.5h-0.5q-1 2 -2 5q-3 -6 -4 -9h-4.5h-3.5q5 -2 9 -1q0 -3 -0.5 -4l-0.5 -1h-0.5t-0.5 1q-3 -3 -3 -4.5t-1 -1.5q0 -1 1 -1l-6 -6q0 -4 -1 -6q-7 0 -8 -1t-1 -6q-1 -1 -4 -1 q2 -6 0.5 -8t-1.5 -5q1 -2 1 -5q3 -3 3.5 -5t4.5 -4v-1.5v-0.5q-2 -3 -4 -3q-1 1 5 -2q0 -20 13.5 -43.5t19.5 -41.5q1 0 4 -5q3 0 6 -7.5t6 -9.5q3 2 8 7t11 0q-2 -5 0 -10q-1 -1 -3 -4q1 0 3 -2q-3 -4 -4 -10t-2 -9q-9 -2 -9 -7h-2h-2v1.5v0.5h-2h-1q0 -3 1 -5q-2 1 -10 3 q0 1 1 2q-5 3 -12 11t-6 13q-15 13 -20 44t-20 38v8.5t-6 9.5q7 7 0 12v2v3h-2h-1q-4 -7 -4 -11h-4.5h-3.5q-5 -10 -7 -12q3 0 6 3q0 -3 -1 -4.5t-1 -2.5q-3 0 -4 -1q-4 -5 -6 -5v-4.5v-1.5h-3h-2q0 -9 -10 -15q0 -1 0.5 -1.5t0.5 -1.5q-7 -9 -14.5 -20.5t-13.5 -14.5 q0 -7 -9 -14l1 -1l1 -1q-6 -2 -7 -8t-7 -7v-2.5v-1.5q-6 -2 -8 -8t-7 -9q0 -3 8.5 12t5.5 15q0 -4 1 -6q-6 0 -9 -5.5t-3 -9.5q-4 0 -5 -3l0.5 -0.5t0.5 -1.5q-1 -3 -4 -6q0 -1 3 -4h-4h-1q0 -7 -5 -10v-1v-2q-1 -2 -4 -2q1 -1 1 -2q-4 -6 -10 -13t-15 -9q0 1 -3 5 q-4 0 -7 2q-4 12 -4 11h1.5h0.5q3 8 18.5 27.5t13.5 23.5q3 0 -4.5 -14.5t-7.5 -11.5q4 0 16.5 16.5t27.5 37t27 38.5t13 22q11 2 10 5.5t9 8.5q-7 5 2 13.5t12 11.5q-1 1 -1 3q4 5 6 6q0 3 3 11t5 9q-2 0 -2.5 0.5l-0.5 0.5q0 6 -1 12t-1 12q-4 2 -6 2l6 3v1.5v3.5h-2.5 h-0.5q3 33 -9.5 79.5t-9.5 86.5q-4 1 -4 7q-3 2 -3.5 4.5t-0.5 5.5q-12 6 -12 21q0 13 2 20q1 2 1.5 5t17.5 3zM69 91q1 0 3 0.5t3 0.5q0 3 2 5t3 6q-6 -1 -7 -4.5t-4 -7.5zM124 167q4 1 4.5 3t4.5 4v0.5v0.5q-3 0 -4 0.5l-1 0.5q0 -1 -4 -9zM130 176q5 3 10 5q-1 0 -2 0.5 t-1 1.5q1 2 6 4.5t5 5.5q-8 -1 -11.5 -5t-7.5 -10l0.5 -1z" />
<glyph unicode="Y" horiz-adv-x="341" d="M-3 -104q-2 4 -2 3q0 2 -0.5 6.5l-0.5 4.5q0 1 -3 1q0 9 5.5 21t13.5 17q21 27 35.5 66.5t40.5 78.5q3 13 -4.5 35.5l-12.5 37.5q-3 5 -3 19q-1 0 -1.5 0.5l-0.5 0.5q-14 57 -23 110.5t-26 106.5h-1h-2q0 3 2 6h-2.5h-0.5q0 9 -5 13q0 1 0.5 2l0.5 1q-1 0 -2 0.5t-3 0.5 q2 4 1 13t-1 15q6 1 11.5 2t11.5 -2q0 -1 -1 -2l-1 -1q11 -3 8 -15q4 -2 5 -3q-4 -4 3 -13q-1 -4 -1 -5l-1.5 -1.5l-0.5 -0.5v-1.5t1 -1.5l4 -2q-3 -3 -3 -4h1.5h2.5l-0.5 0.5l-0.5 0.5h1h2q3 -37 9.5 -78t14.5 -77t16.5 -63t15.5 -37l0.5 -1t1.5 -1l-1.5 -4.5t-0.5 -2.5 q1 -3 4 -8.5t6 -7.5q1 2 1 3t2 4v0.5v1.5l2 1t3 1q0 6 4.5 13t5.5 10q16 28 33.5 56.5t34.5 56.5q30 50 59.5 102t58.5 106q0 6 8.5 8t8.5 -4q3 -3 2 -5.5t-1 -5.5q-2 -1 -2 -5h-2h-1q-2 -3 -1 -6q-5 -8 -17 -30t-25.5 -47.5t-26.5 -49.5t-19 -34h-4h-1q-3 -4 -4 -8 q5 1 5 -1q-6 -1 -6 -2v-7h-3h-1q-2 -7 0 -10q-6 2 -9 4l-1.5 -1.5l-0.5 -0.5q2 0 5 -2q-1 0 -1 -0.5v-0.5q-3 -1 -5 -1q0 -2 2 -2q-6 -7 -7 -15q0 1 2 -3h-4h-3q-2 -5 4 -6q-2 -1 -4 -6h-0.5h-0.5q0 2 1 4q-1 2 -3 2q-2 -9 -11 -19.5t-13 -19.5l0.5 -0.5l0.5 -0.5 q-4 -3 -6 -8t-5 -8q2 -3 5 -3q-1 -5 -6 -10v0.5v2.5h-2.5h-0.5q-4 -7 -5 -13.5t-7 -7.5q1 -1 4 -1q0 -2 -1 -2.5l-1 -0.5q-1 0 -2.5 -0.5t-2.5 -0.5q0 -3 -1 -4q-1 0 -2 -0.5l-1 -0.5q-2 -1 -2 -5q-2 -1 -5 -6.5t-5 -8.5v-0.5t2 -0.5q1 0 2 2t4 5l0.5 -0.5l0.5 -0.5 q-4 -8 -9 -10v-3v-3h-3h-3l-2 -4q1 -1 5 -1q-2 -6 -8 -6q-2 -4 -2 -8t-1 -8q-3 0 -3 -1q1 4 1 7q-13 -6 -26 -41t-34 -66q1 -1 1 -3q-6 -4 -9.5 -13t-3.5 -17q5 -20 -3.5 -26t-13.5 -24h-4h-1v-0.5v-1.5q-5 0 -8 -1l-0.5 -1.5t-0.5 -3.5q-6 0 -7.5 -1.5t-6.5 -1.5zM37 -58 l0.5 0.5t1.5 0.5v2.5v1.5h-2h-1q0 -4 1 -5zM129 139q8 2 13 17.5t14 19.5q-8 0 -11 -10h-2h-1q1 -5 -3 -8.5t-4 -8.5q-3 -1 -6 -7v-2.5v-0.5zM156 167q5 3 5 4q-2 -1 -5 -4zM164 182h1h2v1.5v2.5h-3.5h-2.5q0 -3 3 -4zM175 213l1.5 1t4.5 4q0 1 -1 2q-4 0 -5 -1q-1 -4 0 -6z M182 225l0.5 0.5l2.5 2.5v0.5v1.5h-2.5h-0.5v-3.5v-1.5zM215 263q0 2 1 3.5t2 4.5l1 0.5t3 0.5q-4 -7 -7 -9z" />
<glyph unicode="Z" horiz-adv-x="480" d="M-35 -64q-8 21 0.5 28.5t17.5 21.5q4 3 4 4l-0.5 0.5t-1.5 0.5q0 7 11 21.5t27.5 32t34.5 34.5t29 28q5 0 7 1q-7 3 -5 3q32 35 69.5 69.5t119.5 106.5v0.5v1.5q6 0 12.5 6t8.5 5q0 2 2 5.5t3 5.5q9 7 28.5 22t41.5 32.5t43 34l35 27.5l0.5 1.5t0.5 2.5 q-76 0 -159.5 -9.5t-153.5 -30.5q-3 -5 -11.5 -5.5t-15.5 -0.5q-19 0 -16 15q2 8 7 17t8 3l0.5 0.5l1.5 1.5q93 15 185 26.5t183 4.5q0 2 2 4q6 1 4.5 -0.5t0.5 -1.5q14 0 13.5 -7.5t-2.5 -10.5v-2.5v-1.5q-2 0 -3.5 -0.5l-1.5 -0.5q-3 -4 -16 -15.5t-29 -24t-31.5 -22.5 t-23.5 -11v-1v-1h0.5h0.5q-1 0 -1.5 -0.5l-0.5 -0.5q-1 -2 -1 -4l-5 -2q-2 -2 -2 -2.5v-0.5q-57 -43 -147 -122t-169 -168q-16 -14 -27.5 -31t-24.5 -32q6 0 15.5 5.5t15.5 9.5q47 28 109 61t142 59v-1.5v-0.5q2 0 8 6q18 1 38.5 6.5t38.5 9.5q0 1 1 2q14 0 30 2t32 2 q1 0 8 1t10 -1q5 0 5 -4l1 -0.5t2 -0.5q10 -4 0 -18q-8 -11 -21 -11q-14 -7 -15 9q-88 -5 -196 -50.5t-185 -90.5q-2 -3 -10 -5q-3 -6 -12.5 -8.5t-9.5 -8.5q-11 -3 -18.5 -9.5t-17.5 -9.5q-6 -7 -10.5 -8t-13.5 -4zM284 287h2h2q0 2 1 3q-2 0 -2 -1q1 0 -3 -2z" />
<glyph unicode="[" horiz-adv-x="161" d="M21 0q-3 3 -10 4t-10 2v0.5v2.5q-2 3 -7 5q0 6 -1.5 13t-1.5 16q1 0 2.5 0.5l1.5 0.5q2 12 1.5 26t-0.5 26q3 13 3.5 27.5t1.5 29.5q1 1 4 1q-1 4 -1 11q0 2 2 2q0 6 -0.5 12.5t-0.5 12.5q5 0 6 26t1 29q2 2 3 2q-1 0 -1 1v1q5 11 3.5 26t2.5 27h-1.5h-1.5q2 5 4.5 16.5 t-1.5 16.5l3 3q-2 3 -2.5 7.5t-2.5 9.5q5 9 -2.5 23.5t-15.5 19.5v0.5v1.5h-0.5h-2.5q-1 14 0.5 16.5t4.5 12.5h7h13q-1 -1 -1 -4h25h25q5 5 10 4.5t11 -0.5q0 -3 2 -4q0 2 0.5 2.5t1.5 3.5q3 -1 8 -0.5t9 -0.5q4 3 18 5.5t17 5.5q6 -5 13 -7q-3 -12 -2 -16t-11 -9 q-5 0 -14 1t-12 -2q-8 1 -10 -1q-26 0 -55 -7q-2 2 -2 4q-2 0 -2 -4h-5.5h-4.5q0 -10 1 -20t6 -19q0 -6 -3 -9t-3 -9q2 -2 2 -1t3 1q-1 -3 0 -13h-0.5h-0.5q-1 2 -1 4h-2.5h-1.5q0 -7 -0.5 -9.5t0.5 -8.5l0.5 -1t2.5 -1q-2 -2 -2 -7q-1 0 -2 -0.5l-1 -0.5q0 -6 -2 -10 q3 0 5 1v0.5t2 0.5h0.5h0.5q-1 -3 -0.5 -5.5t-2.5 -5.5v3v2q-6 0 -5.5 -5t0.5 -8l1 -1l1 -1q2 0 2 3q0 -9 -5.5 -22.5t-1.5 -23.5l1 -0.5t2 -0.5q-6 -4 -6 -12t-2 -14q2 0 3 -1q0 -5 2 -7q-3 0 -3 -2q-4 -11 -5.5 -24t-1.5 -25h0.5h1.5l1 1.5t1 2.5h0.5h1.5q0 -1 -0.5 -3 t-0.5 -3q-3 0 -6 -2v-5.5v-5.5h1h2v-2.5v-2.5q-3 2 -5 2q-1 -3 -1 -9q3 -1 3 5h0.5h1.5q0 -2 -0.5 -4t-0.5 -3q-1 0 -2 -1l-1 -1q2 -1 0 -5l-1 -0.5l-1 -0.5q0 -3 0.5 -5t0.5 -5q4 -2 5 -3q-3 -2 -3 -3t-2 -2l0.5 -0.5t2.5 -0.5q-2 -4 -2.5 -12.5t2.5 -11.5q-3 -4 -4.5 -5 t1.5 -5h-1h-1q0 -3 1 -6h0.5h1.5v-2v-2q3 -3 5 -11q3 -1 10 -6q46 -9 92 -2q-1 -5 0.5 -6.5t1.5 -4.5q-2 -2 -5 -6h-17t-10 -8h-4h-2v-1.5v-0.5q-4 0 -7.5 -1t-6.5 -1q-8 -6 -29 -2.5t-30 0.5zM107 7q4 3 6 3v-0.5v-0.5q-2 -2 -6 -2zM139 23v2v1q7 0 5.5 -0.5t-5.5 -2.5z M36 209q0 5 2 8q-1 -3 -1 -8h-0.5h-0.5zM41 238q-3 1 0 8h0.5h0.5v-5v-3h-0.5h-0.5z" />
<glyph unicode="\" horiz-adv-x="237" d="M230 -9h-0.5h-0.5v2v1q0 1 -3 1v-1.5v-2.5q-3 0 -7 0.5t-7 0.5v3v1q-14 4 -18 11v3v2t-2 3v0.5t1 0.5q-1 0 -2 0.5l-1 0.5l0.5 2t0.5 4l-4 4q-2 0 -3.5 -0.5l-1.5 -0.5q-2 7 -4 11v5v5h-3h-3q2 4 -3 6v1v3q2 2 5 2q-2 5 -5.5 12.5t0.5 10.5q-3 0 -4 1t-3 1q0 2 -1 2h3h3 q-3 8 -8 11t-8 9q4 1 8 -6q2 13 -10 18q0 3 1 4.5l3 4.5q-3 1 -5.5 1.5t-2.5 4.5h1.5h1.5q-2 0 -3 0.5l-1 0.5l-0.5 0.5t-0.5 2.5h2h3q0 -1 -3 2q-2 0 -5 -1q-1 3 -2 5.5t-1 6.5q-4 2 -4.5 4t-3.5 4q0 4 -3 7q0 4 -4 10.5t-6 10.5l2 4q-5 4 -15 14q3 3 3 4q-3 3 -5 7t-5 8 q0 1 -1.5 5.5t-3.5 5.5q-8 15 -17 34.5t-21 34.5q-1 -1 -4 -1q-3 4 -5 6h2.5h1.5q-1 0 2 -3h1h1q0 3 -2.5 7t-2.5 8h-0.5h-0.5q-3 3 -5.5 7.5t-2.5 8.5h-1h-1q-2 4 -2.5 8t-2.5 7q1 2 1 5q-4 0 -6 -2q-1 2 -1 7q-2 0 -3 0.5l-1 0.5q-3 4 -3.5 7t-3.5 6v3v2h-2.5h-0.5 q0 4 -1 5h-3h-3q-4 8 -5 21q-3 3 -9.5 12t2.5 12q-2 13 15 13q3 -5 9 -6q0 -9 2 -15.5t4 -14.5h1.5h1.5q0 -4 4 -13t8 -9q0 -1 -0.5 -2.5t-0.5 -2.5q2 -1 7 -1q0 -6 3 -10q-3 0 -3 -2l2 -0.5t3 -0.5q0 -8 5.5 -11.5t10.5 -6.5v-2v-1h-4.5h-5.5q0 -3 0.5 -4.5t3.5 -9.5 q5 -2 10 -5q1 -2 3 -10q-2 0 -3 -1v-0.5v-0.5q1 0 3 -0.5t4 -0.5q0 -3 1.5 -4.5t2.5 -4.5h-3h-2l-0.5 -1l-0.5 -1q3 0 5 -2l-0.5 -0.5t-1.5 -0.5q9 -3 7.5 -8t6.5 -8q0 -1 -0.5 -1.5l-0.5 -0.5q1 0 2 -2q-5 0 -7 -1v-1.5v-0.5q7 -3 13 -3q-1 -3 -1 -8q2 0 5 -2l-3 -3 q4 -2 4 -5q4 0 5 -1q0 -2 -0.5 -3l-0.5 -1q2 0 4 -1q0 -10 7 -13q0 -6 3.5 -12.5t3.5 -10.5q6 -3 7.5 -8t3.5 -9h2h1q1 -4 1 -9q4 -2 9.5 -13t5.5 -15l1 -0.5l1 -0.5q-1 -3 4 -11t6 -10h1.5h2.5v-2.5v-0.5q-1 -1 -3 -1.5l-2 -0.5q3 -4 6.5 -5.5t3.5 -8.5q4 -3 8 -11t5 -13 q3 0 3 -2q1 -1 1 -5q2 0 4 -1q3 -12 4.5 -14.5t6.5 -8.5q3 -15 16 -31.5t13 -30.5q-6 1 -7 3q-1 -3 1 -6t0 -7zM188 16q-1 1 -2 1q-1 3 -1 6h0.5h1.5q0 -2 0.5 -4t0.5 -3zM176 69q-3 5 -4 6q0 1 -2 1q0 -7 6 -7zM178 78v0.5v1.5h-2h-1q1 0 1 -2h0.5h1.5zM175 81q-1 3 -1 6 q-2 0 -2.5 -0.5l-0.5 -0.5v-1.5v-0.5q0 -2 1.5 -2.5t2.5 -0.5zM167 100q-3 6 -6 7v-1.5v-0.5q1 -2 4 -2v-2v-1h0.5h1.5zM144 118q-2 4 -2 8h0.5h0.5q2 -5 1 -8zM134 139q-2 3 -2 6q1 -2 2 -6zM144 142q0 6 1 9q-1 0 -2 -0.5t-3 -0.5l-0.5 1.5t-0.5 2.5h-1.5h-0.5q1 -8 7 -12 zM130 164q1 0 1.5 0.5t1.5 0.5q-3 4 -4 5t-2 4q0 -1 3 -10zM127 175v2v3q-4 0 -4.5 0.5t1.5 -4.5l1 -0.5t2 -0.5zM101 207q-1 1 -5 1q1 6 1 7q2 0 3.5 -0.5t2.5 -0.5l-0.5 -0.5l-0.5 -0.5q-2 0 -4 -1q1 -2 1.5 -3.5t1.5 -1.5zM58 287q-1 0 -2.5 0.5l-1.5 0.5q0 2 -1 4 q5 0 6 -4l-0.5 -0.5zM44 314q0 1 -2 1v1.5v1.5zM26 348h-1.5h-1.5q-1 2 -1 4h0.5h0.5v-0.5v-0.5h2h1v-1.5v-1.5z" />
<glyph unicode="]" horiz-adv-x="186" d="M142 0q-8 3 -34 4t-35 -3v1.5v1.5h-6h-4v1v2h-11h-9q-1 -1 -1 -3q-9 2 -9 3h-4h-3v-1.5v-0.5q-9 0 -15 -4v1.5v1.5h-3.5h-2.5t-1 -3h-2.5h-0.5q-1 0 -1 1.5v1.5h-3h-6q5 10 9 14l2 -1.5t8 -1.5v1v2q6 2 9 2.5t17 1.5q0 4 1 5q20 0 43 3.5t44 8.5q0 9 -2.5 18.5t-2.5 20.5 q-2 1 -0.5 2.5t-1.5 4.5h0.5h1.5v1v3q-1 0 -2 0.5l-1 0.5v5.5v5.5v-0.5t1 -0.5q-1 9 -2.5 19.5t1.5 20.5q-3 0 -4 2q3 9 3.5 22.5t1.5 25.5q-1 0 -1 1q1 4 1.5 11t3.5 10q0 14 3 27t3 28q4 5 2.5 15t4.5 16q-3 2 0 7q-2 2 1.5 14.5t3.5 16.5q1 1 3 1q1 6 2 8q-5 4 -1.5 11.5 t3.5 12.5h-12h-12q-1 0 -1.5 0.5t-1.5 2.5q-2 -4 -9 -4v1v3h-3.5h-0.5q-3 -4 -15 -4.5t-16 -0.5v-1v-2q-4 3 -7 3q-2 0 -2 -0.5v-0.5q-3 0 -6 0.5t-6 0.5v-0.5v-0.5h-1.5h-0.5q-3 2 -11 2q-2 5 -3 10t-1 10q4 0 4 3l1 1t2 1l3 5h29.5h33.5q-2 -2 -2 -5q12 6 25 4.5t26 2.5 l-0.5 0.5l-0.5 0.5q2 1 7 1q1 -1 1 -3q9 0 17 -3v-2v-1h2h1q1 -12 0 -20q-1 0 -2.5 -0.5l-1.5 -0.5v-3.5v-1.5q-2 0 -4 -1q0 -10 -8 -27.5t-5 -25.5q-3 0 -3 -3l1 -0.5l1 -0.5q0 -5 -1 -10t1 -7h-3h-1q0 -2 -0.5 -2.5l-0.5 -0.5q2 -1 2 -5h-4h-2q0 -5 -3 -19.5t2 -15.5h-2.5 h-1.5q-2 -8 0 -9l-4 -2q1 -2 1.5 -2.5t1.5 -0.5q-5 -9 -10 -38t0 -37v-2v-2l2 -0.5t3 -0.5v-0.5v-0.5q-3 -1 -6 -6q1 -3 0 -6t1 -5h0.5t2.5 1q0 -3 -1.5 -5t-0.5 -4q3 0 5 -1l-0.5 -1l-0.5 -1q-1 0 -2 -1t-2 -1q3 -4 2 -7q0 -3 -1 -8t-1 -8q-1 0 -1.5 -0.5l-0.5 -0.5 q0 -3 2 -3.5t2 -1.5q4 -1 4 -3h-2h-1q12 -10 8 -24q1 0 1.5 -1t1.5 -1q0 -3 0.5 -5t0.5 -4h1.5h2.5q0 -3 2.5 -12.5t2.5 -11.5q2 0 3 -1q2 -4 2 -7q-2 0 -2.5 -1l-0.5 -1q3 -9 -4 -14t-13 -5q-1 0 -1 -3q-2 0 -3.5 -0.5t-2.5 -0.5zM142 167v1v1q0 2 2 2q0 -2 1 -4h-2h-1z M144 188q3 6 2 5q0 -3 2 -5h-3h-1zM145 197v1v3l0.5 0.5l0.5 0.5q0 4 1 9t1 8h0.5h0.5v-9.5v-11.5q-1 0 -2.5 -0.5z" />
<glyph unicode="^" horiz-adv-x="145" d="M4 297q-2 0 -3 1q-1 11 3 16q3 3 10.5 5.5t15.5 7.5q8 6 15 11t15 10q4 5 9 4v0v0v-1v0q4 -1 10.5 -6.5t15.5 -9.5q9 -6 19 -11.5t19 -12.5l0.5 -0.5l0.5 -0.5v-0.5v-0.5q0 -3 3 -3q5 -5 5 -11l-3 1.5t-1 1.5q0 -1 -3 -1q-2 0 -4.5 3.5t-3.5 4.5q-4 -3 -5 -1q-4 0 -5 5 l-3 -3q-2 3 -6 3q-10 5 -25.5 11t-18.5 14q-3 -3 -5 -4.5t-5 -3.5q-10 -8 -23.5 -19.5t-19.5 -9.5v-2v0q-1 -1 -4 -1t-3 3z" />
<glyph unicode="_" horiz-adv-x="316" d="M-9 -33q3 3 5 2.5t4 0.5q-1 0 -4 4q7 6 20.5 3t22.5 -1q7 0 16 2q1 0 1.5 -1t1.5 -1l0.5 1t1.5 1l1 -1l1 -1q10 5 18 -1q3 3 5.5 1.5t5.5 -2.5v2v2t1 1v-0.5t2 -2.5q1 2 6.5 1t7.5 1v-1t2 -1q2 3 9.5 3t9.5 -3q4 3 5 3l0.5 -0.5l0.5 -0.5q3 0 7 0.5t7 -2.5q3 3 7.5 3h8.5 q1 -1 10 1l0.5 -0.5t0.5 -1.5q0 1 0.5 1.5t1.5 0.5q2 -1 2 -2q2 0 5 -2q0 2 0.5 2.5l0.5 0.5l0.5 -1.5l0.5 -1.5q4 2 5 4q2 -5 6 -9q0 2 1 2q-1 2 -1 5v0h1v0.5v0.5q5 -3 7 -0.5t7 -3.5v1.5v1.5l2 -4q1 1 1.5 1h0.5q0 3 -1 4l-1 1h2.5h2.5t2 -2t2 -3v0.5t1 0.5l-0.5 1 l-0.5 1q1 1 3 1.5t4 0.5q3 -2 5 -6q6 4 8 4q0 3 -3 6q0 1 0.5 1h0.5q3 -1 7 -3t8 -2q2 0 4 -2v1.5v0.5q3 0 6 3q3 -6 3 -5t1 1.5t2 0.5q0 -1 6.5 -0.5t8.5 0.5l0.5 -0.5l0.5 -0.5q6 2 10 2.5t10 3.5q0 -1 5 -4q6 -11 -3 -16q2 -7 -5 -6t-9 1q-10 -2 -14 -2l-2 4 q-2 0 -2.5 -1l-0.5 -1l-1 2v0l-1 -1t-2 -1q-4 4 -9 0l-3 3q-3 -2 -4 -1q0 1 -1 3q-1 0 -2 -2q-3 1 -5 0t-5 -1l-0.5 0.5l-0.5 0.5q-3 -2 -5 -1t-5 0v1v0q-10 -2 -10 -3v0v-1h1h1l1 -0.5t1 -1.5q-3 2 -5 0v2.5v0.5q-12 3 -26 3t-26 -3q-3 5 -9 0q-3 2 -5.5 1.5t-5.5 0.5 q0 -3 -1 -3q-3 1 -6 2.5t-6 1.5l-0.5 -1.5t-0.5 -2.5q-3 1 -7.5 2t-7.5 -2q-4 2 -5 0q-3 3 -4.5 1.5t-2.5 -0.5h-4.5t-3.5 -1q-1 1 -1 4q-1 0 -1.5 0.5t-1.5 0.5l1 -1t1 -3h-1h-1q1 0 -2 3q1 -1 1 -3q0 1 -5 3q-3 -4 -5 -5q-7 4 -12 0l2.5 -0.5t3.5 -3.5q-6 0 -9 2.5t-8 1.5 l0.5 -1.5t1.5 -2.5h-1.5h-0.5q0 3 -2 3q-2 -3 -7 -3t-8 -2v-1.5v-2.5t-3 -1q-2 4 -3 0q-2 1 -3 4q-1 -1 -3 -2t-2 -2q-3 2 -7 -1q0 1 -0.5 2l-0.5 1q-2 0 -3 1l-1 1q-2 -3 -3 -3t-1.5 0.5l-0.5 0.5v-0.5v-0.5q-1 0 -1.5 0.5l-0.5 0.5l-1.5 -0.5t-1.5 -1.5q-7 2 -11 8l-3 -2 q-1 7 -5 10q2 1 3 2l-0.5 1l-0.5 1q-1 0 -1.5 -1l-0.5 -1l-0.5 0.5t-0.5 1.5zM18 -53q3 0 4 1l0.5 -0.5l0.5 -0.5q-2 -1 -3 -3q0 2 -1 2.5zM52 -43q1 -2 6 -2q0 2 -0.5 2.5l-0.5 0.5q-4 0 -5 -1zM55 -37l1 -0.5t1 -2.5q0 2 2 2q-1 1 -1 2q-1 0 -1.5 -0.5t-1.5 -0.5zM59 -38 q1 -2 3 -2h0.5h0.5v2.5v0.5q-1 0 -2.5 -0.5zM71 -37q2 0 2 -1l0.5 0.5t1.5 0.5l0.5 -0.5t0.5 -2.5q1 0 1.5 1l0.5 1q-3 3 -7 1zM90 -46q0 1 4 1v0v-1q-2 -1 -4 0zM105 -46q2 1 3 1q-2 -1 -3 -1zM102 -37q4 -1 10 -1q0 1 -0.5 1.5l-0.5 0.5h-1h-2v2.5v1.5q-2 -3 -6 -5z M119 -38q5 0 7 1q-3 1 -7 1v-0.5v-1.5zM127 -37h0.5t0.5 -1q3 1 1 3zM153 -43q2 0 3 1q0 1 -0.5 1.5l-0.5 0.5l0.5 1l0.5 1q0 -1 3 -4q-1 0 -4 -4q-1 3 -2 3zM212 -42v1v0q1 0 5 -2q-3 0 -3 -2q-1 2 -1.5 2.5zM231 -41q2 0 3 -1h-0.5t-0.5 -1q0 1 -1 1.5zM255 -41h0.5h0.5 h0.5t0.5 -1v0.5t1 0.5v-0.5v-0.5q-1 -1 -2 -1q0 1 -0.5 1.5z" />
<glyph unicode="`" horiz-adv-x="113" d="M102 305q0 -2 -4 -2t-4 1q-2 0 -2 1q-9 -1 -26 10.5t-29 19.5q-5 1 -6 3v2v2q-6 0 -9 1q-2 4 -2 7q-3 0 -7.5 0.5t-6.5 2.5t-2 3l-4 2q5 5 12 1h2h2h0.5h0.5q1 2 3 0q12 -4 24 -10.5t25 -12.5q9 -5 18 -8.5t15 -6.5q3 -2 4 -4.5t-1 -11.5h-1.5h-1.5z" />
<glyph unicode="a" horiz-adv-x="268" d="M18 2v3v4q-3 0 -3 -1.5t-3 -1.5q0 2 -5.5 5t-5.5 10q-4 0 8 43t28 64q6 0 6 4h-1.5h-0.5l2 6q-2 0 -2 1q3 0 6 2t7 4q0 1 -7 5q-1 0 1 2l2 2h1h2q25 45 66 83.5t56 34.5q0 3 16.5 7t28.5 3q11 -2 11 -10q0 -4 2 -4q5 -1 13 -1q10 -1 6 -15.5t-10 -27.5q-3 -9 -5.5 -16 t-2.5 -10h-1.5h-1.5v-3.5v-2.5q-2 0 -3 -0.5t-3 -0.5q0 -9 -3.5 -16.5t-3.5 -13.5q-3 -1 -13.5 -26t-17.5 -50v0v0q-4 -15 -6.5 -26.5t0.5 -17.5l-1 -2v-1v-1q1 0 3 -2.5t14 -0.5q7 2 27.5 13t35.5 23q4 3 8.5 6t9.5 0h-3.5h-2.5v-2v-1q-1 0 -1.5 -1.5l-0.5 -1.5 q-3 -2 -3 -4h-2.5h-2.5q1 -2 0 -4q-3 -2 -5.5 -3t-5.5 -2q0 -2 1 -4l3 3.5t6 3.5q-6 -3 -7 -10q-4 3 -12 -2q-2 0 0 -2q1 0 3 1.5t5 1.5q-4 -1 -7 -4t-4 -3q-3 -3 -9 -6q-1 -3 -6.5 -7t-8.5 -4q-9 -4 -19 -8.5t-13 -4.5q-9 -3 -21 0q-5 3 -7.5 9t-3.5 12v5.5v5.5l-1 3 q1 1 3 2v3v0.5v1.5v1q2 6 2 9v0h1q3 13 8.5 27t7.5 23l5 14q0 3 2 7.5t3 8.5q-4 -12 -10.5 -22.5t-12.5 -18.5q-14 -17 -32.5 -37t-38 -36.5t-38.5 -25t-32 -2.5zM214 212q-11 1 -11 8q0 12 11 20t11 16l-0.5 0.5l-0.5 0.5l-0.5 0.5t-0.5 2.5v0v0q-11 12 -21 12 q-27 3 -63.5 -35.5t-65.5 -86.5q-23 -36 -38.5 -70.5t-16.5 -53.5q2 -3 8.5 -4t12.5 1q13 3 32 17t38.5 32t36 36.5t24.5 31.5q0 2 1 3.5t1 4.5q3 1 8 0v1v2q4 1 3.5 2t2.5 5q0 -3 9.5 15.5t18.5 38.5zM47 143v2v3h1h2q-1 -2 -1 -5h-1.5h-0.5z" />
<glyph unicode="b" horiz-adv-x="284" d="M0 -38q-11 0 -8 16q3 10 7 19.5t15 24.5q18 30 45.5 62.5t48.5 42.5q0 2 2 3q0 2 2 2v1v2l12 9t18 9v1v1q1 1 4 1q-1 1 -1 2v1q3 1 5 1q2 4 16 7v2v2q12 7 32 13.5t32 9.5q6 7 9.5 14.5t6.5 16.5q3 10 6.5 26t-5.5 23q-6 5 -14.5 4t-10.5 -1v2.5v1.5q-4 0 -2 -4 q-29 -1 -63.5 -28.5t-45.5 -38.5v-0.5v-0.5q-10 -5 -19 -18.5t-17 -14.5v-2v-2q-7 -6 -13 -8.5t-15 -1.5q-10 3 -8 12.5t4 18.5q4 0 5 1q0 9 11 17.5t15 18.5q6 11 12 11q4 6 8 13q36 60 63 124t36 69q-3 5 3 13q1 6 3 14t14 10q7 0 13.5 -11t-8.5 -26l-17 -29t-36.5 -65 t-36 -69t-15.5 -42q7 6 18.5 12.5t16.5 8.5h0.5h1.5q0 -4 0.5 -2.5t2.5 2.5q0 1 0 0.5t0 2.5h1h1v1v1q18 10 44.5 17.5t47.5 4.5q1 0 1.5 -0.5l0.5 -0.5q29 0 26 -36t-20 -56q18 0 34.5 -1t21.5 -4q-21 4 -38.5 2.5t-18.5 -1.5q-54 -65 -102 -127.5t-131 -98.5q-7 -3 -21 -5 zM22 -6q54 11 92 49.5t68 80.5q7 10 18.5 24.5t27.5 38.5q-17 -2 -42.5 -17t-37.5 -24q-2 2 -8 2q1 -4 -5.5 -6t-7.5 -2v-4v-3q-3 0 -4.5 -0.5l-1.5 -0.5q-7 -4 -10 -10q-12 -9 -40 -43.5t-37 -45.5q-18 -24 -19.5 -33t7.5 -6zM117 124q1 3 4 6h1h2q-1 -3 -7 -6zM132 134 q-2 1 -4 3v0.5v1.5q1 -1 3 -1.5t4 -0.5v-1t2 -1q-3 0 -4 -0.5zM143 142q-1 1 -1 3h1h2v-2v-1h-1.5h-0.5z" />
<glyph unicode="c" horiz-adv-x="252" d="M27 130q5 0 5 4h-1.5h-0.5l0.5 2t1.5 4h-2v0q8 4 13 8q0 2 -3 2.5t-4 2.5q-2 0 0.5 1.5l2.5 1.5h1h1q25 45 69 83t59 34q0 3 16.5 7.5t28.5 2.5q11 -2 11 -10q0 -2 0.5 -2.5l0.5 -0.5q3 0 7 -1t7 -1q10 -1 6.5 -14.5t-7.5 -28.5q-4 -10 -14 -11.5t-16 -0.5q-11 1 -11 10 q0 12 11.5 19t9.5 15l-0.5 0.5l-0.5 0.5q0 2 -1 3v0v0q-12 12 -21 12q-30 3 -72.5 -37t-70.5 -90q-16 -27 -25 -58t0 -49q10 -19 29 -20t40 9q25 12 51 31q24 20 48 49q3 3 6 8t8 3q-1 -1 -2 -1.5l-1 -0.5v-3q3 0 -3 -3l-0.5 -2l-0.5 -2q-2 -1 -2.5 -1h-1.5q2 -3 2 -5 q-3 -1 -4.5 -3t-2.5 -2h1h2q0 4 2 4l-2 -4l-0.5 -1l-0.5 -1v-3.5v-1.5q-1 0 -9 -4l-4 -4h1.5h1.5l2 2.5t4 2.5q-3 -2 -5 -5.5t-4 -5.5q-2 -1 -4 -3.5t-3 -3.5q-1 -4 -4.5 -8t-6.5 -7q-7 -6 -15.5 -13t-11.5 -7q-3 -2 -6 -3t-5 -2q-15 -10 -31.5 -18.5t-32.5 -9.5 q-20 0 -33 6v3v2q-3 0 -3.5 -0.5t-3.5 -0.5q-20 9 -23 38q0 18 5.5 39.5t21.5 42.5zM193 91v-1v0v0v1zM36 145q0 4 -2 5h2.5h2.5q-1 -1 -1 -5h-1.5h-0.5z" />
<glyph unicode="d" horiz-adv-x="297" d="M256 256q-2 -7 -6 -14t-6 -14q-9 -24 -9 -26h-2h-2v-4.5v-1.5q-1 -2 -5 -2q0 -9 -5.5 -16.5t-5.5 -12.5q-3 -3 -10.5 -25.5t-12.5 -48.5v-1v-1q-1 -2 -1 -3q-7 -30 -4 -42q3 -7 10 -7v0q2 0 5 1q7 0 27.5 12t36.5 23q3 2 7.5 6t9.5 1q-2 0 -3.5 -0.5t-2.5 -0.5v-1.5v-1.5 q-1 0 -1.5 -1t-1.5 -1q-1 -1 -1.5 -2.5l-0.5 -1.5h-5q1 -2 0 -5q-2 -1 -11 -5q0 -2 1 -5q0 6 9 9q-4 -2 -8 -10q-1 0 -5 -1t-6 -1q-3 0 0 -3q1 0 3 2t5 2q-4 -1 -7 -4.5t-4 -4.5q-4 -1 -9 -5q-1 -4 -6.5 -7t-8.5 -4q-9 -4 -18.5 -8.5t-11.5 -4.5q-12 -2 -23 0q-10 5 -11 17 t-1 17l5 19l4 7v0l2 8t4 9q-19 -32 -47.5 -61.5t-58.5 -30.5q-20 0 -32 6q0 4 -1 5q-3 0 -3 -1t-3 -1q-19 9 -24 39q-1 18 4 40t20 44q2 0 3.5 -1t1.5 3h-1h-1q0 2 1 3.5t1 2.5q-3 0 -3 2q6 1 14 6q0 3 -9 6l2 1t2 3h0.5h1.5q24 45 66.5 83t57.5 35q0 3 16.5 7t29.5 1 q11 -2 11 -8q0 -3 0.5 -4l0.5 -1q10 0 15 -1v0q4 10 9.5 21t10.5 22q0 1 1 3.5t2 4.5q5 11 12.5 23t10.5 24l6 6q0 9 5.5 15.5t9.5 12.5q6 11 20.5 9.5t11.5 -7.5v-12.5t-9 -17.5q-18 -20 -31 -45q-4 -8 -8.5 -16t-8.5 -16q-6 -13 -14 -26l-4 -8t-3 -7zM185 139 q-5 -9 -5 -11l5 15v1l0.5 2.5l0.5 2.5h0.5h0.5v1l1 5q3 1 4 5h-2q0 2 1 4q3 0 2.5 0t0.5 1q-2 2 -2 5h0.5t1.5 1q3 9 5.5 16t4.5 12q1 3 2 7t3 8h-3h-2q-11 1 -11 10q0 11 11.5 19.5t9.5 14.5q-1 2 -1 3q-1 0 -1.5 0.5t-1.5 0.5v0v0q-7 10 -20 14q-30 2 -71.5 -38.5 t-68.5 -89.5q-15 -28 -23 -59t1 -50q11 -21 29.5 -21t39.5 10q24 11 47.5 40.5t33.5 48.5q2 9 7 21v1zM260 316l3 3q-1 0 -1 0.5v0.5q-1 0 -4 -2l1 -1zM33 146q0 3 -1 5l1 -0.5t3 -0.5v-2v-2h-2.5h-0.5zM204 119q-1 -4 -2.5 -7.5t-2.5 -8.5h-1.5h-0.5q2 11 7 16zM213 144 q1 2 1 7h4q-1 -3 -2 -3.5t-1 -3.5h-2zM219 162v2v1h3v-3h-2.5h-0.5zM234 191q0 4 2 7.5t3 7.5q1 -8 -3 -15h-1.5h-0.5zM250 230q0 1 2 3zM256 241l-1 1q1 2 2 5v-0.5t1 -0.5q-1 -2 0 -4zM258 249q0 7 5 8q0 -3 -5 -8zM266 265l2 2q0 -2 -2 -2zM279 294q2 3 4 3zM196 111v1v0 v-1zM282 299q0 4 2 5.5t5 5.5q0 -2 -3 -6.5t-4 -4.5z" />
<glyph unicode="e" horiz-adv-x="211" d="M124 43h1h1q4 4 8 6q10 8 22.5 20.5t21.5 24.5q3 2 7 7t9 2q-2 0 -3 -0.5l-1 -0.5v-2v-2q-2 0 -2.5 -1l-0.5 -1q0 -1 -0.5 -3l-0.5 -2q-3 -1 -3.5 -1h-1.5q1 -1 1 -4q-2 -2 -4.5 -4t-3.5 -4q0 -2 1 -4q0 6 7 10q-5 -4 -5 -11q-1 0 -4.5 -2t-6.5 -3q-1 -2 1 -3 q1 0 2.5 2.5t4.5 2.5q-3 -2 -5.5 -5.5t-3.5 -4.5q-3 -2 -4.5 -4t-4.5 -3q0 -4 -7.5 -9.5t-10.5 -7.5l-6 -6h-2q-1 -2 -4 -5v0v0q-9 -7 -10 -7l-9 -6q-15 -8 -28 -10q-6 -2 -14 -2v0q-13 0 -28 6q0 4 -1 6q-3 0 -2.5 -1t-2.5 -1q-23 10 -29 39q-3 18 0 39.5t16 43.5q6 0 5 3 h-1.5h-0.5q1 3 1 7q-1 0 -2 1q4 0 12 6q0 5 -7 5q-2 0 0 2l2 2h0.5h2.5q20 45 58.5 83.5t54.5 34.5q-1 3 15 7t29 3q17 -4 15.5 -22t-1.5 -30v0q-3 -29 -23.5 -50.5t-47.5 -33.5q-39 -18 -64 -16t-14 32q-3 -5 -5 -9.5t-4 -8.5q-12 -27 -18 -58t6 -49q12 -21 30.5 -21.5 t39.5 8.5q11 5 23 15zM170 276q-11 1 -20 -3h-1q-7 -3 -19 -11q-3 -2 -5 -4t-4 -3l1 -1v0v-3v-1q-3 -1 -4.5 -2.5t-3.5 -1.5v-0.5t2 -0.5q-6 -4 -16.5 -14.5t-9.5 -16.5h-1.5h-1.5l1 -0.5l1 -0.5q-4 -3 -7 -7.5t-6 -7.5q1 -1 3 -4h-2.5h-1.5v-3v-1q-2 0 -2 -2q0 -1 -1 -2.5 t-1 -2.5q-1 -1 -1.5 -1h-0.5q0 -4 -1 -5l-0.5 -0.5t-1.5 -0.5l1 -1l1 -1h-2.5h-0.5q-6 -24 2 -27t30 3q6 2 26.5 11.5t37.5 26.5q27 26 32 59.5t-23 28.5zM26 146q0 2 -0.5 3t-0.5 2h1h2v-2.5v-2.5h-1.5h-0.5z" />
<glyph unicode="f" horiz-adv-x="271" d="M-69 -170q1 0 3 0.5l2 0.5q0 4 6 8q9 3 10 0h2.5h2.5q24 13 44.5 52.5t37 85t29 86.5t19.5 56q-2 0 -19.5 -5.5t-14.5 -11.5h-2.5h-1.5v1.5v2.5q0 -1 -0.5 -2.5l-0.5 -1.5q-6 0 -14 -2q-14 0 -16 -5t-6 -5q-6 -2 -7 4q-3 5 1 9.5t9 7.5l32.5 11t48.5 16q1 2 1 5 q-1 0 -1.5 0.5t-0.5 1.5q4 6 6 12.5t6 13.5q10 20 17.5 41.5t13.5 41.5q7 28 19 60t24.5 60.5t24 49t19.5 25.5q9 2 15 2.5t15 -2.5q13 -9 13.5 -51.5t-12.5 -82.5q-14 -45 -47.5 -86t-76.5 -54q-2 -3 -2.5 -6.5t-1.5 -6.5q-4 -8 -11 -9v0.5v1.5l0.5 0.5t1.5 0.5q2 5 3 6 q-3 2 -5 2q-1 -4 -3 -12.5t-3 -9.5q28 6 46 11.5t29 8.5q14 3 26 2q20 -4 19 -17.5t-14 -13.5q-2 0 -3 5q-1 -1 -1 -4h-5h-4q-1 2 -1.5 4t-0.5 5q-4 0 -8.5 3t-7.5 3v-1.5v-1.5q-25 -3 -40 -6.5t-35 -13.5q-4 -11 -7.5 -20t-5.5 -19q-1 -1 -3 -1l-0.5 0.5l-0.5 0.5q3 6 2 11 h-2h-2q-1 -3 -5 -9q3 0 5 -2q-1 -1 -3 -5q2 -1 6 -1q-5 -2 -6 -6q-2 0 -3 -1q-1 -3 -0.5 -7.5t0.5 -7.5q-1 0 -3 -0.5l-2 -0.5q3 7 1 12l-1 -0.5l-1 -0.5v-2.5v-1.5q-5 -3 -6.5 -10.5t-3.5 -12.5q3 3 5.5 7t5.5 6q-1 -6 -1.5 -10.5t-6.5 -6.5q2 -1 6 -1q-1 -1 -2.5 -1.5 t-1.5 -1.5q0 -3 -2.5 -3t-2.5 -1q1 -3 0 -7q-1 -3 -3 -5t-2 -4q0 2 1.5 6t1.5 7q-4 -5 -4 -7q-3 -2 -4 -3.5t-2 -2.5l0.5 -1t1.5 -1q-4 -3 -5 -7t-3 -5q1 0 2 -1q5 6 11 13q-4 -9 -8.5 -23t-7.5 -20q-2 -3 -4.5 -9.5t-2.5 -7.5q-6 -33 -30.5 -79t-35.5 -54q-2 -1 -8 -1v-2 v-2q-11 -7 -25 -4q-17 6 -12 20zM38 -46q0 1 1.5 1.5t2.5 1.5q0 2 0.5 3t0.5 3q-2 0 -4 -1q-2 -3 -1 -8zM44 -25q1 0 2 0.5t3 0.5q-1 2 -1 4q-1 0 -1.5 -0.5l-0.5 -0.5q-2 -1 -2 -4zM48 -19q4 0 4 5q5 0 5 4q-7 -2 -8 -3q-2 -2 -1 -6zM90 98q13 6 13 19h-2h-3 q-1 -6 -4.5 -9.5t-3.5 -9.5zM126 203q2 3 3 6t6 3q-1 0 -1.5 1t-0.5 2q-13 0 -7 -12zM129 187q15 3 36 15t33 27q39 48 47.5 92.5t8.5 83.5q-4 0 0 2q-5 2 -8 5q2 4 -1 8t-3 10q-3 -2 -5 0.5t-4 1.5q-12 -12 -25 -39t-24.5 -55.5t-19.5 -52t-10 -28.5q-7 -14 -14.5 -36 t-10.5 -34zM135 230q1 0 -0.5 -4t-0.5 -4l2.5 5.5l2.5 5.5h-3h-2q1 0 1 -3z" />
<glyph unicode="g" horiz-adv-x="259" d="M18 5v2v3q-3 0 -3 -1.5t-3 -1.5q0 3 -5.5 6t-5.5 9q-3 0 8.5 43t28.5 65q5 0 5 3h-1.5h-0.5q0 1 0.5 3t1.5 3q-2 0 -2 1q4 1 7 2.5t6 3.5q0 3 -3 4t-4 3l1.5 1t1.5 2h1.5h1.5q27 45 67 83t55 34q0 4 16.5 8.5t30.5 1.5q9 -2 9 -10q0 -1 1 -2l1 -1q8 0 13 -2 q10 0 6.5 -14.5t-8.5 -28.5q-9 -20 -9 -26h-2h-2v-2.5v-3.5q-3 0 -5 -1q0 -8 -4 -16t-4 -14q-3 0 -11 -19v0q-9 -24 -18.5 -45t-14.5 -45l-1.5 -0.5l-1.5 -0.5l-0.5 0.5l-0.5 0.5q0 3 1.5 5.5t0.5 5.5h-2h-1q-3 -3 -5 -9q2 0 3 -1q0 -2 -2 -6q4 0 6 -1q-5 -1 -6 -6h-2h-1 q-1 -4 0 -8t0 -8h-3h-1q1 7 1 12l-1.5 -1.5l-1.5 -1.5v-1v-1q-5 -3 -6.5 -10.5t-4.5 -12.5q3 2 6 6.5t7 6.5q-2 -6 -2.5 -11.5t-6.5 -6.5q4 0 5 -2q-1 0 -2 -0.5l-1 -0.5q0 -1 -2.5 -1.5t-2.5 -3.5q2 -1 0 -6q-1 -2 -2.5 -4.5t-1.5 -5.5q0 4 1 8t0 6q-3 -4 -3 -7q-1 0 -6 -7 q1 0 3 -1q-4 -3 -5 -6.5t-4 -7.5h0.5h1.5q5 8 12 14q-4 -7 -9 -22.5t-9 -20.5q-1 -3 -3.5 -10t-2.5 -9q-6 -32 -31.5 -78.5t-36.5 -54.5h-3.5h-3.5q0 -2 -1 -3q-10 -10 -25 -5q-17 5 -12 19q3 3 6 3q0 4 6 6q7 6 10 0h1.5h3.5q24 14 44.5 54t37.5 86t29 86.5t19 55.5l20 59 v0v0v0q-7 -21 -23 -40q-27 -34 -70.5 -73.5t-70.5 -26.5zM114 -79q2 1 4 1q0 3 0.5 4.5t0.5 3.5q-1 -2 -5 -2q-1 -2 0 -7zM121 -59q0 1 1 1.5t2 0.5v2v1h-2h-1v-2.5v-2.5zM123 -53q3 2 5 6q4 0 4 4q-3 -1 -4 -1.5t-2 -1.5q-5 -1 -3 -7zM166 65q14 6 14 19q-4 0 -5 -2 q-1 -5 -5 -8t-4 -9zM214 213q-11 1 -11 10q0 12 12 19t10 15l-0.5 0.5l-0.5 0.5q0 1 -0.5 1.5t-0.5 1.5v0v0q-8 11 -21 13q-27 3 -63 -35.5t-66 -87.5q-23 -36 -38 -70t-17 -54q2 -3 9 -3.5t12 1.5q13 3 32 16.5t38.5 31.5t36 36.5t24.5 32.5q0 1 1 2.5t1 4.5q3 1 8 1v0.5 v2.5q4 0 3.5 1t2.5 5q0 -1 9.5 16.5t18.5 37.5zM48 144q-1 2 -1 6l1 -0.5t2 -0.5q0 -1 -0.5 -2.5t-0.5 -2.5h-0.5h-0.5z" />
<glyph unicode="h" horiz-adv-x="259" d="M55 158q0 -6 -6 -10q-1 1 1.5 5.5t4.5 4.5zM161 52q1 -2 3 -3l0.5 -0.5t1.5 -0.5v-4q1 -4 14 -2q8 1 28.5 13t35.5 23q4 2 8.5 6t8.5 1q-1 0 -3 -0.5l-2 -0.5v-2.5v-0.5q-1 0 -1.5 -1l-0.5 -1q-3 -2 -3 -5h-5v-1.5v-2.5q-2 -1 -10 -6q0 -1 2 -4q0 7 7 9q-6 -5 -6 -10 q-1 0 -5.5 -1t-7.5 -1v-3q2 0 4.5 2t4.5 2q-4 -3 -7 -6t-4 -3q-4 -1 -10 -5q-2 -4 -7 -7.5t-8 -4.5q-9 -3 -19 -7.5t-13 -4.5q-11 -3 -21 0q-13 11 -11 28l1 1t1 3q-2 1 -3 2q3 4 3 9l2 2v3.5v4.5q3 1 3 6q1 1 2 1q15 44 44 98t30 67q-22 -4 -50 -26t-54.5 -51t-47.5 -59 t-28 -49q-1 -3 -5.5 -18t-10.5 -27t-12.5 -13.5t-9.5 21.5h4q1 5 8 21t14.5 33t12.5 32t4 19l-2 1v1q1 1 1 4t2 4v-6h1h1q0 3 5 13t9 11q2 4 0 8l3 1l-1 2q2 0 6 5l-2 2h-1.5h-0.5l-6 -9q0 11 6 17l1 -1q-1 -1 0 -5q3 0 1 5h3q0 4 -1 5h2h3l-1 1t-1 3q3 0 7.5 11.5t3.5 15.5 q2 0 3 -2h1q0 2 -2 4h-3v1q2 2 10 6q-2 2 -2 3q-2 0 -3 0.5l-1 0.5l-1 1h7q-1 3 0.5 4.5t0.5 4.5l4 2q-1 2 -3 1.5t-2 2.5q1 0 5 -2q3 2 3 5t4 6q-3 4 1.5 10.5t0.5 11.5q3 0 6 1l-1 3l-4 -2l-1 2q2 2 4 2.5t4 2.5q-1 1 -6 1q3 6 9 11.5t6 14.5h1h3q-2 2 0 4t2 5q-4 2 -4 -4 h-2h-1q2 0 7.5 11.5t5.5 15.5l3 1q0 3 1 8t0 9h-0.5h-0.5l-3 -2q0 4 7.5 19t3.5 21q0 9 13 19q9 6 18 2q2 -14 -3.5 -37t-15 -47.5t-19.5 -46.5t-16 -34q-3 -2 -6.5 -8t-1.5 -9q-1 0 -2 -0.5l-1 -0.5q3 -9 -4 -13q0 2 1 3.5t0 4.5q-1 -1 -3 -1v-7h-3h-1q-3 -17 -10 -36 t-20 -51q6 6 17 20.5t24 29t25.5 25t20.5 10.5v2h-2q-1 4 14.5 17.5t33.5 24.5t33 14.5t14 -10.5q-1 -23 -20.5 -57.5t-34.5 -61.5l-6 -11l2 -3h-1q-20 -25 -25 -44q-5 -15 -5.5 -25.5t0.5 -17.5zM156 219h4l-1 3h-3h-3zM58 162q0 -1 -3 -2zM70 192l-2 -2q0 2 2 2zM78 209 q0 -7 -5 -10q0 2 5 10zM80 215l1 -1q-1 -1 -2 -4h-0.5h-0.5q1 3 0 5h2zM85 229q0 -3 -1 -4zM101 267q-2 -9 -6 -16q-1 3 1 7.5t2 7.5q1 0 2 0.5zM114 294h-1h-1l1 -2h3q0 2 -2 2zM121 313q-2 -3 -2 -8h-3l2 8h3zM128 338q2 10 4 15h1h2q-3 -12 -7 -15z" />
<glyph unicode="i" horiz-adv-x="142" d="M10 10q-3 1 -4 4v0.5v0.5q-1 1 -5 1q0 4 1 5q-4 11 3 25l11.5 23.5t29.5 64.5q17 40 31 74.5t14 37.5t3.5 11.5t15.5 8.5q18 0 20 -11q1 -7 -4 -17t-9 -13v-1.5v-0.5q-8 -4 -22 -30.5t-29 -58.5q-15 -33 -26 -57t-14 -40q0 -3 -0.5 -7t1.5 -7q4 -3 11.5 -2t13.5 2 q8 2 28.5 14t36.5 22q3 3 8 6.5t9 0.5q-2 -1 -6 -1v-1.5v-0.5q-1 0 -1.5 -1.5l-0.5 -1.5q0 -1 -1.5 -2.5t-1.5 -2.5q-2 0 -2.5 0.5t-2.5 -0.5q1 -1 0 -3q-2 -2 -11 -6q0 -2 1 -4q0 5 9 8q-5 -3 -7 -9q-2 0 -6 -1.5t-6 -1.5q-4 -2 0 -2q1 0 3 1.5t5 1.5q-3 -2 -6.5 -5 t-4.5 -3q-3 -1 -5 -3t-5 -2q-1 -4 -6.5 -7.5t-8.5 -4.5q-8 -4 -18 -8.5t-13 -4.5q-11 -1 -22 0l-4 4t-3 5zM110 294q-7 18 6 22q7 5 24 3q0 -3 6 -6q7 -4 5 -14q0 -15 -18 -16q-18 -2 -23 11z" />
<glyph unicode="j" horiz-adv-x="161" d="M84 133v-0.5v-0.5l-1 -1l-1 -1q-3 -7 -8 -18t-10 -23q-2 -7 -4 -9q-6 -14 -12 -29t-9 -30h-1h-1h-0.5t-0.5 1q0 3 1 5t1 6h-2h-2q-1 -3 -2.5 -5t-1.5 -5q2 0 3 -1q0 -2 -2 -6q3 0 6 -1q-5 -1 -6 -5q-3 0 -3 -1q-1 -3 0 -6.5t0 -7.5q-2 0 -3 -0.5t-2 -0.5q2 6 2 11 q-2 0 -2.5 -0.5l-0.5 -0.5v-3v-1q-5 -2 -6.5 -9t-4.5 -13q3 3 5.5 7.5t6.5 5.5q-1 -5 -1.5 -10t-6.5 -8q3 0 5 -2q-3 0 -3 -1q0 -2 -2.5 -2.5t-2.5 -3.5q2 -1 0 -6q-1 -2 -2.5 -4t-2.5 -5q0 3 1.5 7t0.5 6q-3 -4 -3 -7q-3 0 -6 -6l0.5 -0.5l1.5 -1.5q-2 -2 -7 -14h1h1 q4 8 10 14q-4 -7 -8 -22.5t-8 -20.5q0 -3 -3 -10t-3 -9q-5 -32 -30.5 -78t-37.5 -53q-2 -2 -7 -2q0 -2 -1 -3q-8 -6 -25 -5q-16 6 -12 19q3 3 6 3q0 4 6 7q8 4 10 -1h2h3q24 14 45 54t37.5 86t28 86.5t18.5 55.5q6 16 12 33t13 31v0q17 40 37.5 82.5t20.5 45.5t3 11.5 t15 8.5q19 0 22 -11q1 -7 -4.5 -17t-8.5 -13v-1.5v-0.5q-8 -4 -24 -30.5t-30 -58.5v-1zM129 294q-5 18 6 22q8 4 25 3q0 -3 6 -6q6 -4 5 -14q0 -14 -17 -16q-19 -2 -25 11zM-19 -111l4 2q0 2 0.5 3.5t0.5 3.5l-1 -1t-4 -1q-1 -2 0 -7zM-13 -91l4 2v2.5v1.5q-1 -1 -4 -1v-2 v-3zM-10 -85q3 2 5 6q4 0 4 4q-2 -1 -3.5 -1.5t-3.5 -1.5q-3 -1 -2 -7zM32 33q14 6 14 19h-3.5h-1.5q-2 -6 -5.5 -9.5t-3.5 -9.5z" />
<glyph unicode="k" horiz-adv-x="211" d="M130 268q0 4 2 5.5t5 5.5q0 -2 -2.5 -6.5t-4.5 -4.5zM148 4q-15 15 -38.5 37.5t-18.5 49.5h-2h-2q-1 4 -2 5q-6 -1 -20 -13.5t-23 -22.5q-3 -9 -8.5 -19.5t-1.5 -14.5h2q0 3 2 4t3 4q14 2 10.5 -4t-3.5 -12h-2.5h-0.5q0 -1 0.5 -2l0.5 -1q-2 0 -3 -3q4 -13 -10 -22.5 t-17 2.5q-3 2 -5 2q-3 5 -3 6.5t-6 4.5q0 5 0.5 13t3.5 18l6 19q9 31 25 64.5t25 50.5q3 0 6 6t3 11h0.5h1.5q-2 10 5 14q-2 -6 -2 -7l2 1t3 1v5h1h2l34 86l35 80q1 2 6 17t11.5 27t13 13.5t9.5 -22.5h-4q-3 -5 -10.5 -20.5t-15.5 -32.5t-14 -32t-4 -19h3v-3q-2 -1 -2 -3.5 t-2 -2.5l1 6h-1.5h-1.5q0 -5 -5.5 -14.5t-8.5 -10.5q-2 -3 -2 -8l-1 -1l1 -1q-4 0 -6 -5l1 -3h1h2l6 9q0 -3 -3 -9.5l-3 -6.5l-1 1v0.5v3.5q-5 0 -3 -5h-2q0 -1 0.5 -2.5t0.5 -2.5h-4h-1q0 -1 0.5 -1.5l0.5 -0.5q-3 0 -8 -12.5t-4 -15.5q-1 0 -3 3l-1 -1q1 -4 3 -4h2v-1 q-1 -2 -10 -6q1 -2 1.5 -2.5t1.5 -0.5h1h2v-2h-6q0 -4 -1.5 -5t-0.5 -5q-1 0 -2.5 -0.5l-1.5 -0.5q0 -3 2 -3t3 -1q-2 0 -4 1q-4 -3 -4 -5.5t-4 -4.5q2 -5 -2.5 -11.5t1.5 -10.5q-3 -1 -7 -1v-4l4 3l1 -3q-2 -2 -4 -2.5t-4 -2.5h6q-4 -6 -9.5 -11t-5.5 -12q1 1 3 1v3h1 q3 9 15 7.5t14 9.5h2h3q0 2 1 2q0 2 3 2q0 3 0.5 3.5l0.5 0.5l1.5 1t2.5 1q1 9 10 14v2v1q5 3 10 9.5t9 11.5q3 0 4 -1q6 9 16 22.5t22 17.5v1.5v2.5q6 -3 9.5 -1t10.5 2v-2v-2q-3 -2 -3 -6l1 -0.5t2 -0.5q-2 -5 -14 -19t-26.5 -30t-27 -28.5t-15.5 -12.5q0 -2 -1.5 -6.5 t-1.5 -6.5q-4 -17 1.5 -39t18 -38t30 -21t38.5 12q3 -3 4 -3q1 1 1 4h4h4q1 1 6 3q3 -2 6 0.5t7 2.5q0 -6 -2 -10q-12 0 -21 -11t-22 -11l-0.5 0.5t-0.5 1.5q-4 -3 -5 -6q-4 1 -4 3q-5 -4 -13.5 -3.5t-14.5 3.5zM128 263q0 3 2 3zM114 235l3 3q0 -3 -3 -3zM107 219q0 7 4 9 q0 -3 -2 -5t-2 -4zM105 212l-3 1q1 1 3 5l0.5 -0.5l0.5 -0.5v-3.5v-0.5zM98 199q0 2 2 3zM81 160q1 6 6 15q1 -3 -1.5 -7.5t-3.5 -7.5h-0.5h-0.5zM66 132h1h2l-1 2h-3v-1t1 -1z" />
<glyph unicode="l" horiz-adv-x="167" d="M121 284q0 3 7 10q0 -1 -3 -5.5t-4 -4.5zM38 76v0q2 -4 -0.5 -10t-4.5 -12q-1 -6 -1.5 -12t-1.5 -9q2 -2 2 -6q0 -1 2 -3t14 -1q8 2 29 14t36 22q3 3 8.5 6.5t8.5 0.5q-2 0 -3 -0.5l-1 -0.5q-2 -1 -2 -2l-1 -1.5l-1 -1.5q0 -1 -1.5 -2.5t-1.5 -2.5q-2 0 -2.5 0.5 t-2.5 -0.5q2 -1 2 -3q-12 -5 -13 -5q0 -3 2 -5q2 5 8 8q-6 -4 -6 -9q-2 0 -6 -1.5t-6 -1.5q-2 -1 0 -2l2.5 1.5t4.5 1.5q-3 -2 -6 -5t-5 -3q-2 -1 -4.5 -3t-5.5 -2q-1 -4 -6.5 -7.5t-8.5 -4.5q-7 -3 -17.5 -8t-12.5 -5q-12 -1 -22 0q-9 8 -10 17q-2 1 -2.5 1.5t-0.5 1.5 l-0.5 2t-0.5 4q0 8 7 27v0v0q10 32 26.5 77.5t21.5 53.5q3 1 6 7t2 10q1 1 2 1q-2 10 5 14q-2 -6 -2 -7q3 0 5 2v1v4h1h2q2 13 10.5 37.5t20.5 51.5h-1q1 2 1 3l5 10q0 4 2 6l4.5 10t9.5 23t10 23.5t5 12.5q1 0 2 2.5t4 3.5q-1 9 3.5 14.5t8.5 13.5q6 11 20.5 9t11.5 -7 q2 -15 -10.5 -26.5t-11.5 -17.5l-8.5 -11t-12.5 -17l-17 -43v-0.5v-0.5q2 0 4 -1v-0.5v-1.5q-3 -1 -3 -4t-2 -3q1 2 1 6q-1 1 -3 1q-1 -6 -6.5 -15l-5.5 -9q-1 -1 -2 -1v-4.5v-3.5l-1 -0.5l-1 -0.5v-1t2 -2q-5 0 -6 -3q0 -1 0.5 -1.5t0.5 -1.5h0.5h1.5q0 1 1.5 2.5t4.5 6.5 q0 -3 -3 -9.5l-3 -6.5h-0.5h-0.5q1 1 0 5q-5 0 -1 -5h-1.5h-1.5v-3v-2h-2h-1q0 -1 0.5 -2t0.5 -2q-4 0 -9 -11.5t-3 -14.5h-0.5t-1.5 2h-1v0q0 -2 0.5 -3l0.5 -1h2h2v-0.5v-0.5q-3 -3 -5.5 -4t-4.5 -2q1 -2 1 -3q4 0 5 -1v-0.5v-0.5h-6q0 -4 -2 -6q0 -3 1 -4q-1 0 -2.5 -0.5 l-1.5 -0.5q0 -3 4 -3v-1v0h-1h-2l-0.5 0.5l-0.5 0.5q-3 -3 -3.5 -6t-3.5 -4q0 -1 0.5 -2t1.5 -1q-4 -3 -1 -9q-10 -3 -2 -11h-4h-3q0 -1 1 -2.5l1 -1.5q1 1 3 1v-0.5v-0.5q-2 -2 -4 -3t-3 -2q2 -3 5 0q-4 -8 -9 -13t-5 -14h-2h-1q0 -3 -2 -5t-1 -5q4 -2 4 7q2 0 4 -2 q-6 -2 -5.5 -8t-5.5 -6q0 -4 -1.5 -7t-1.5 -6h-1.5h-0.5q-2 -4 -1.5 -8.5t-2.5 -6.5q1 -1 1 -2q1 0 1 -1l3 3q0 -3 -4 -6zM119 279q0 2 3 3v-0.5t1 -0.5q-2 0 -3 -1zM107 250l1 2q0 -2 -1 -2zM100 234q0 3 -0.5 5t5.5 3q0 -3 -2.5 -4t-2.5 -4zM97 228l-0.5 0.5l-0.5 0.5 q1 1 1 4h0.5h2.5q-2 -3 0 -4q-2 -1 -2.5 -1h-0.5zM91 214q1 3 3 4v-0.5v-0.5zM76 175l2 8t4 8q0 -3 -2 -7.5t-2 -7.5l-1 -0.5zM62 148h1h1v0.5v1.5h-1.5h-0.5v-1.5v-0.5zM57 129q0 2 0.5 3.5t0.5 4.5h1h3q-3 -6 -3 -8h-1.5h-0.5zM48 105q-2 -10 -4 -16h-1.5h-0.5q2 12 6 16z " />
<glyph unicode="m" horiz-adv-x="376" d="M28 0q-15 6 -7.5 22t24 42t35.5 62t28 81q-2 0 -12.5 -9.5t-25 -19.5t-30.5 -17.5t-29 -4.5q-4 1 -7.5 2t-3.5 6q0 24 25 18q18 0 46 16.5t45 39.5q11 12 11 24q4 8 14 6.5t10 -8.5q-9 -36 -31 -78t-34 -96q4 0 3.5 1t0.5 4q1 1 21.5 29t45 60t46.5 59t28 27q1 0 9 4.5 t18 -5.5q8 -9 5 -15q-18 -48 -41.5 -91t-38.5 -79q22 29 46.5 58t48.5 56q4 0 6 -1q1 0 1.5 1.5l0.5 1.5h-2.5h-0.5v2v3q1 1 10.5 11.5t20 22.5t19 21.5t9.5 9.5l9 4.5t19 -5.5q7 -10 5 -15q-8 -20 -25.5 -53.5t-34 -68t-27 -62t-5.5 -34.5q2 -5 1 -6q2 -1 4 -3.5t14 -0.5 q21 4 48 25.5t34 17.5q-2 -1 -5 -1q-1 -1 -1 -4l-1 -1t-2 -1l-1 -2l-1 -2h-5q1 -1 0 -4q-9 -5 -11 -6q0 -1 1 -3l3 3.5t6 3.5q-6 -2 -6 -9q-3 1 -10.5 -1.5t-2.5 -3.5q1 0 3 1.5t5 1.5l-21 -12q-3 -9 -30.5 -19t-37.5 -6q-14 13 -10 31l-0.5 1t-0.5 2q3 6 1 7t4 5v2.5v4.5 q2 1 2 6q1 0 1.5 0.5t1.5 0.5v3v0h1q5 14 14 32.5t13 26.5q8 16 27 52t20 50q-12 -2 -30.5 -20t-38 -41.5t-37 -46.5t-26.5 -34q-16 -21 -29 -39.5t-24 -41.5q-8 -7 -21.5 0t-0.5 25q12 24 23 43t26 47v6q8 16 27 52t20 50q-14 -3 -37 -27t-48 -55t-47 -61t-32 -45 q-24 -36 -23 -36t-15 0zM283 188h2h3q0 1 -0.5 2l-0.5 1h-4h-2q2 -2 2 -3zM82 81h2h2v1.5v2.5h-1.5h-0.5q-2 -1 -2 -4zM172 188h2.5h2.5q0 3 -1 3h-3.5h-2.5q2 -2 2 -3zM108 183q-5 1 -3.5 -2t5.5 -3q0 1 -1 2t-1 3z" />
<glyph unicode="n" horiz-adv-x="268" d="M28 -1q-12 2 -10 13q1 3 1.5 7t3.5 7q36 64 56 100.5t29 81.5l-14.5 -11t-34.5 -26q-22 -17 -48 -13q-11 2 -11 7q0 24 25 18q18 0 46 16.5t45 39.5q11 12 11 24q4 8 14 6.5t10 -8.5q-9 -36 -31 -78t-34 -96h0.5h0.5q3 0 3 2v1v2q33 54 44.5 66t32.5 38q4 0 7 -2 q0 1 0.5 2l0.5 1h-1.5h-1.5v2v3q1 1 10.5 11.5t20 22.5t19 21.5t9.5 9.5q4 4 13 6q8 0 14 -7q5 -5 5 -10v-3v-2q-18 -48 -42.5 -92t-39.5 -80q-8 -21 -9 -32.5t0 -13.5q3 -3 3 -6q0 -1 2.5 -3.5t13.5 -0.5q8 2 28.5 13t35.5 23q3 3 8 6t9 0h-3h-2v-2v-1q2 0 -4 -3 q0 -1 -1 -2t-1 -2h-3.5h-0.5v-2.5v-2.5q-9 -3 -11 -4q-1 -2 1 -4l3 3.5t6 3.5q-6 -3 -7 -10q-5 4 -11 -2q-3 0 0 -3l2 2t4 2q-3 -1 -5 -4t-4 -3q-4 -3 -10 -5q-2 -4 -7 -7.5t-8 -4.5q-9 -4 -19 -8.5t-13 -4.5q-11 -1 -22 0q-14 15 -8 31q-2 0 -3 4q3 2 3 7l0.5 1.5t1.5 2.5 v3v3q3 2 3 7l1 1l1 1l1 1v1v0q6 15 14.5 33t12.5 26q8 16 27 51.5t20 50.5q-1 -1 -5 -1q-13 -6 -30.5 -25t-23.5 -25q-15 -16 -33.5 -40.5t-37.5 -49.5q-9 -12 -13.5 -17t-11.5 -15q-20 -31 -31 -51q-7 -4 -16 -2zM82 82h2h2v2v2h-1.5h-0.5q-2 -1 -2 -4zM172 190h2.5h2.5 q0 2 -1 2h-3.5h-2.5zM108 185q-2 0 -3 -2q0 -3 5 -3l-1 1t-1 4z" />
<glyph unicode="o" horiz-adv-x="256" d="M10 -13q-11 8 -8 34q3 15 6.5 27t11.5 31q9 24 30.5 52.5t25.5 46.5h2h2q0 4 -1 7q3 1 8 9.5t9 13.5q-2 16 0.5 17t8.5 13q9 18 32.5 23.5t43.5 5.5q6 -2 11 -10.5t5 -16.5q9 0 19.5 3t22.5 7q15 6 31.5 12t31.5 9l3 3q6 1 15 0.5t17 -6.5q6 -6 4 -8t-10 -5q-11 -7 -13 5 q-51 0 -70.5 -20t-49.5 -26q-4 -6 -6 -13.5t-5 -13.5l0.5 -0.5l0.5 -0.5q-8 -21 -18.5 -48.5t-25.5 -48.5q-2 0 -5 -3v-1v-1h-2h-2q1 0 2 -1t2 -1v-2v-1q-4 0 -7 -3v-1.5v-0.5q-3 -1 -5 -4q0 -10 -33 -39t-52 -32q-1 -3 -6 -3.5t-8 -0.5q-4 -6 -8 -7t-10 -1zM23 12q5 3 11 3 v1v1q3 1 7 1q3 -5 21 6.5t40.5 36t43.5 60.5t29 82q-5 -4 -23.5 -6.5t-33.5 0.5q-3 -3 -8 -4.5t-7 -4.5q-7 -9 -20.5 -30t-27.5 -47t-24 -53t-8 -46zM154 224q4 0 11 1t11 6q0 6 -1.5 8l-4.5 6h-5t-5 -3q-6 -1 -9.5 -1t-6.5 -3l-2 -2.5t1 -4.5l0.5 -0.5l0.5 -0.5l2 -3t8 -3z " />
<glyph unicode="p" horiz-adv-x="319" d="M-57 -221q1 7 0 12t1 11h2.5h0.5v1v1q-3 -1 -5 3q0 13 5 21t5 19l70 133q-22 0 -21 16q5 15 43 29q8 18 14 33.5t7 15.5q0 -1 0.5 -2.5l0.5 -1.5q3 3 4.5 9t-0.5 10h1.5h3.5v0.5v1.5h-2h-2q1 3 5.5 11t3.5 10q1 3 3.5 9t5.5 7v1v4q1 0 3 2q0 12 -22.5 0t-28.5 -9 q-10 -7 -20 4.5t2 20.5q0 6 10.5 6t14.5 -2q10 10 33 13.5t31 18.5q6 11 14 34t12 24q0 4 2.5 12t7.5 9q4 1 8.5 -2t10.5 -6q0 -9 -2 -13.5t-4 -9.5q4 3 7 5t10 5q2 5 10 5v1v3q1 0 19.5 7t40.5 10.5t41 -3.5t24 -35q3 -30 -10.5 -56t-29.5 -48h14q1 0 6.5 -1.5t8.5 -0.5 q-2 -1 -5.5 -1h-3.5q0 -6 6.5 -2.5t6.5 4.5q3 -2 6.5 -4t7.5 -2q-7 -4 -14 4q2 -4 3 -7q3 1 6.5 1.5t6.5 1.5q3 -3 4 -5q-1 0 3 2q0 -1 2.5 -1.5t3.5 -0.5l1.5 -0.5l1.5 -0.5q2 -2 2 -2.5t1 -0.5q4 2 5 3q0 -10 -28 -5t-51 -1q-12 -6 -16 -10q-43 -49 -85 -74 q-26 -17 -54.5 -27t-63.5 -18l-58 -126q0 -6 2.5 -12t1.5 -12q-3 0 -8.5 -8.5t-5.5 -11.5q-4 0 -5 -1q-3 -4 -6 -8.5t-9 -7.5q0 -2 2 -5q-9 0 -11 -3.5t-8 -6.5zM191 84q0 -5 -3.5 -5.5t-6.5 -2.5q2 -1 4 -3q-4 -3 -9 -4q-7 -3 -7 -6.5t-13 -2.5q15 6 20 14q-1 0 -2 -0.5 t-3 -0.5v-2.5v-0.5q-5 0 -17 -2v-2.5v-0.5q-17 -3 -24.5 -13t-31.5 -16q-3 -7 -5 -10t-11 -3q2 -1 2 -3h-3.5h-1.5q0 1 2 1h-0.5t-2.5 1v-1v-1h-4h-1q1 -4 2 -4q-4 -2 -5 -6h-2h-2q-2 -5 -2 -9q3 0 5.5 1.5t5.5 2.5q0 5 12.5 6t13.5 1v2v1q-1 0 -2 0.5l-1 0.5q21 3 35.5 9.5 t24.5 12.5v0.5v2.5l7 3.5t-1 3.5l0.5 1t0.5 3q11 3 40 25.5t26 24.5q-2 0 -15.5 -9t-24.5 -9zM103 110l-27 -61q2 0 2 -7h-2.5h-0.5v-2.5v-2.5q6 4 19 4q-2 -3 3 -3q-2 6 23.5 21.5t38.5 18.5q0 -3 0.5 -2t1.5 -2q-1 -1 1 6q21 12 41 22.5t39 21.5l-4 2q24 18 43 55t1 58 l0.5 0.5l0.5 0.5v0.5v1.5q-10 3 -14 7t-18 3q-24 -3 -65.5 -25t-41.5 -41q-8 0 -20.5 -32t-12.5 -33q-3 0 -3.5 -1.5t-2.5 -1.5v-0.5v-0.5h0.5h1.5v-3v-2q-2 -2 -4 -2zM151 53l-1 1t-1 3l1 0.5t4 0.5l1 -2l1 -2q-1 0 -2.5 -0.5t-2.5 -0.5zM183 85q3 0 4 1q-1 2 -2 1 q-2 0 -2 -2z" />
<glyph unicode="q" horiz-adv-x="306" d="M142 15q6 12 24.5 45.5t19.5 33.5q0 9 5.5 13t5.5 16l-1 -0.5t-2 -0.5l-8 -14q-15 -18 -34.5 -39.5t-33.5 -34.5q-24 -22 -58 -39t-48 -5q-3 6 -5 6q0 1 -0.5 2.5l-0.5 1.5q-6 0 -6 15q1 11 11.5 36.5t27 55.5t37.5 59t45 48q0 6 4.5 7t4.5 7h2.5h2.5q0 2 2 3l3 3v0.5 v1.5h1h2v1.5v1.5h1.5h4.5h-0.5h-3.5v0.5v1.5h3h3v0.5v0.5h2.5h2.5q12 12 27.5 17.5t19.5 6.5q4 5 15 5.5t21 -1.5q9 -3 16 -8.5t7 -10.5l1.5 0.5t3.5 2.5q3 6 7 12.5t13 9.5q18 0 17 -6t-4 -8q-5 -2 -8.5 -9l-3.5 -7q-1 -1 -1 -5q-1 0 -1.5 -1t-1.5 -1l-110 -211 q14 6 32 8.5t33 5.5q2 8 14.5 5.5t12.5 -9.5q1 -13 -17 -13q0 -1 -14 -3q-20 -2 -42.5 -9.5t-33.5 -12.5q-20 -40 -51.5 -96.5t-38.5 -89.5q2 0 1 -10q-4 -9 -17 -18.5t-25 -8.5q-12 2 -4 21t9 25h1.5h2.5l16 32h0.5h1.5q-1 3 0.5 3.5t1.5 2.5l72 126q-9 -2 -29 -10.5 t-20 -18.5q-7 0 -15.5 -4t-9.5 3h-1.5h-0.5q-4 3 -5.5 9.5t5.5 12.5q3 2 6 1.5t3 2.5zM25 11q3 -10 18 -2q56 24 100 72t81 96q5 10 10 21.5t5 24.5q-3 11 -9.5 20t-14.5 9q-14 2 -29 -7t-21 -7q1 -3 1 -5q-2 -3 -6 -5v0.5v0.5q-4 1 -11 1v-1v-1q5 0 5 1q1 -1 0 -4 q-3 0 -3 -1q-11 -5 -29 -24t-21 -25q0 -3 -1 -5q-2 0 -3.5 -0.5l-1.5 -0.5q0 -2 -0.5 -2.5l-0.5 -0.5q-3 0 -3 -1q-1 0 -1 -3l8 3q0 -4 -6 -10t-8 -9l0.5 -0.5l0.5 -0.5q-12 -6 -29 -38t-25 -59q-9 -27 -6 -37zM174 41h0.5h1.5q0 1 0.5 3t0.5 3h-1.5h-0.5q-1 -1 -1 -6z M87 160v0l2 1l-1 0.5t-1 2.5h-0.5h-0.5q-1 -2 -1 -3l0.5 -0.5t1.5 -0.5z" />
<glyph unicode="r" horiz-adv-x="246" d="M9 -1q-9 2 -9 12q2 11 5 14l7 13h4q1 4 5 7t6 9q-6 -3 -7 -4l5 10h1q3 3 2 6l2 2h0.5h1.5q0 2 1 5l-1 -2l6 13h3q1 2 1 6q5 7 12 21h0.5h0.5q3 4 6.5 7t4.5 9q-3 -3 -6 -4q3 5 5 10v0q4 1 4 6v0v1h0.5h1.5q2 2 2 5l-1.5 -0.5l-1.5 -0.5q18 36 22 64l-7 -5 q-18 -13 -44 -13q-10 3 -10 7q0 24 22 18q25 0 42 15q12 14 15 31q4 7 13.5 5t9.5 -9q-9 -33 -30 -71.5t-32 -89.5h1h1q2 0 2 1v0.5v2.5q31 49 41.5 61l31.5 36q3 0 6 -1q0 2 1 2h-1.5h-0.5v1.5v2.5q1 2 10 11.5t18.5 20.5t17.5 20l8 9q2 3 6 4t7 3q6 0 14 -8q5 -3 5 -8 v-3.5v-1.5l-8 -16t-7 -16q-3 -10 -5 -13q5 -6 -3 -15.5t-13 -5.5q-14 7 -2 21l2.5 9t3.5 11q-4 0 -5 -1q-12 -5 -29 -22.5t-23 -24.5q-13 -14 -30.5 -37.5t-35.5 -47.5q-8 -12 -16 -22.5t-15 -20.5q-9 -13 -16.5 -25.5t-11.5 -21.5q-9 -4 -16 -2zM82 162q-2 0 -3 -1 q-3 -3 -3 -6q2 1 4 1q2 3 2 6zM68 91h1h2v1.5v1.5h-1.5h-0.5q-1 0 -1 -3zM153 191h1h2v1v1h-4h-2q-1 0 3 -2zM92 186h-3q0 -4 5 -4q-2 1 -2 4z" />
<glyph unicode="s" horiz-adv-x="246" d="M-8 1q-6 29 21.5 49t63.5 32t66 15.5t29 -0.5q-1 -5 9.5 6t0.5 37q-9 20 -27.5 30t-37 17t-32.5 15t-12 23q0 10 14.5 18.5t35.5 14.5q38 11 78.5 12t43.5 -14q0 -7 5 -10q7 -14 -14 -19t-18 7q-3 0 -8 6t-8 4q-15 9 -32.5 9.5t-34.5 -2.5q-19 -5 -32.5 -12t-13.5 -10 q0 -4 23 -12.5t47 -24t39 -39t0 -57.5l17 -2q-1 -2 -4.5 -1l-3.5 1q-1 -3 5.5 -2.5t7.5 2.5q4 -4 11 -4q-8 -3 -12 2q0 -6 7.5 -4t8.5 -2q2 0 2.5 0.5t1.5 0.5l7 -2l6 -1q-1 -3 -25 0t-34 5q-8 -15 -21 -31.5t-21 -16.5q0 -4 2 -5q-4 -2 -11 -5l0.5 -0.5l0.5 -0.5 q-7 -6 -29 -17t-47 -19t-46.5 -8.5t-28.5 15.5zM36 49q-18 -10 -21 -19t-1 -13q3 -10 22.5 -10t45 9t51.5 28t42 47q-16 3 -46.5 -2t-42.5 -10v-1.5v-1.5q-11 -3 -12 -5q-1 2 -6 2v-2.5v-0.5q-3 -1 -5 -3.5t-5 -2.5l-9 -11h-4h-3v-2.5v-1.5h-4.5h-1.5zM44 54q3 0 5 3h-2.5 h-2.5v-2.5v-0.5zM54 65q2 0 4 1.5t5 2.5q-9 0 -9 -4zM162 95h3.5h4.5q0 3 -8 3v-2v-1z" />
<glyph unicode="t" horiz-adv-x="205" d="M82 251q-5 9 -22 -1.5t-27 -13.5q0 -1 -0.5 -2t-0.5 -3q-6 0 -11 -2.5t-5 5.5h-2h-2q-2 3 -2 5.5v4.5t1.5 3t0.5 4q9 9 35 17t56 14l4 10h-1q1 0 1 1l5 10q0 3 2 7l3 12q1 1 2.5 3t3.5 4q0 9 5 16t9 13q2 6 13 6.5t11 -5.5q0 -3 -1 -9t-7 -9l-20 -41v-1v0q1 -1 4 -1v-1v0 q-3 -3 -3 -5.5t-2 -2.5q1 3 1 6h-1.5h-1.5q0 -4 -2 -8q19 2 34.5 4t24.5 2q0 1 1 2v-2v-1h2h2l0.5 1t0.5 2q2 0 3 1t3 1v-3v-1h5t18 1q0 -2 4 -2l1 0.5t1 1.5q8 -2 9.5 -5t11.5 -1q1 -4 2 -5q-3 -2 -5 -4t-5 -1v-2v-2q-7 0 -8 5h0.5h1.5q1 4 3 5q-2 2 -4 3q-2 -1 -5 -4 q0 -1 0.5 -3l0.5 -2q-5 0 -10 -5q-6 3 -15 1t-15 2l-3 -3q-15 2 -32 -0.5t-33 -6.5v-0.5t1 -0.5q-4 0 -4 -2v2v1l-3 -1v-3h-1h-1q0 -2 2 -2q-4 0 -6 -5l0.5 -1t0.5 -2h0.5h1.5q0 1 1.5 2.5t4.5 6.5q0 -3 -3 -9.5l-3 -6.5l-0.5 0.5l-0.5 0.5q1 1 0 4q-5 0 -1 -5h-1.5h-1.5 v-2.5v-2.5h-2h-1q0 -1 0.5 -1.5l0.5 -0.5q-4 0 -9 -12.5t-3 -15.5h-0.5t-1.5 3q-1 0 -1 -0.5v-0.5q0 -2 0.5 -3l0.5 -1h2h2v-0.5v-0.5q-3 -3 -5.5 -3.5t-4.5 -2.5q1 -2 1 -3h2.5h2.5v-1.5v-0.5q-1 0 -2.5 0.5t-3.5 0.5q0 -4 -2 -6q0 -3 1 -4q-1 -1 -2.5 -1.5l-1.5 -0.5 q0 -3 4 -3v-0.5v-0.5h-1h-2l-0.5 0.5l-0.5 0.5q-3 -2 -3.5 -5t-3.5 -5q0 -1 0.5 -1.5t1.5 -0.5q-5 -2 -1 -9q-9 -5 -2 -11q-4 0 -7 -1q0 -1 1 -1.5t1 -1.5l1 1t2 1v-1.5v-1.5q-2 -2 -4 -2.5t-3 -2.5h5q-4 -6 -9 -11.5t-5 -14.5q-2 0 -3 -1q0 -2 -2 -4.5t-1 -5.5q4 -1 4 7h1 h3q-6 -3 -5.5 -9.5t-5.5 -6.5q0 -3 -1.5 -6t-1.5 -6q-1 -1 -2 -1q-2 -3 -1.5 -7.5t-2.5 -5.5q1 -2 1 -4h0.5h0.5l3 2q1 -4 -4 -4v-2q2 -4 -0.5 -9.5t-4.5 -11.5q-1 -6 -1.5 -12t-1.5 -9q2 -4 2 -7l2 -2.5t14 0.5q8 1 29 12.5t36 22.5q3 3 8.5 6t8.5 0q-3 0 -4 -1 q-2 -1 -2 -2l-1 -1.5l-1 -1.5q0 -1 -1.5 -2l-1.5 -1h-2.5h-2.5q2 -3 2 -5q-12 -5 -13 -5q0 -1 2 -4l3 3.5t5 3.5q-6 -4 -6 -9q-6 3 -12 -3q-2 0 0 -2l2.5 1.5t4.5 1.5q-3 -1 -6 -4t-5 -3q-2 -2 -10 -6q-3 -10 -15 -10q-7 -3 -17.5 -8t-12.5 -5q-12 -2 -22 0q-9 9 -10 17 q-2 0 -2.5 0.5l-0.5 0.5q0 1 -0.5 3t-0.5 3q0 10 7 27v0v0q10 33 26.5 78t21.5 54q3 1 6 7t2 10h0.5h1.5q-2 10 5 14q-2 -6 -2 -7l1.5 1t3.5 1v1.5v3.5h1h2q3 23 18 55q-8 -2 -12 -5zM107 235l1 3q0 -2 -1 -3zM100 219q0 3 -0.5 5t5.5 4q0 -3 -2.5 -4.5t-2.5 -4.5zM97 212 l-0.5 0.5t-0.5 1.5q1 0 1 4h0.5h2.5q-2 -4 0 -5q-3 0 -3 -1zM91 199q1 3 3 3v-0.5v-0.5l-1.5 -1zM76 160l2 8t4 8q0 -3 -2 -8t-2 -8h-1h-1zM62 132l1 0.5l1 0.5v0.5v1.5h-1.5h-0.5v-2v-1zM57 114q0 2 0.5 3.5t0.5 4.5h1h3q-3 -6 -3 -8h-1.5h-0.5zM48 89q-2 -10 -4 -15 q-1 0 -2 -1q0 3 1.5 8t4.5 8z" />
<glyph unicode="u" horiz-adv-x="246" d="M244 273q15 -6 6.5 -25t-26.5 -48.5t-38.5 -67.5t-29.5 -83l4 3q7 4 -7.5 -24t-14.5 -34q-5 -8 -15 -6.5t-10 8.5q8 36 30.5 77.5t36.5 96.5q-6 0 -5 -1t1 -4q-2 -2 -22.5 -30t-45 -60t-47 -58.5t-27.5 -26.5q-2 0 -10 -5t-19 6q-5 7 -5 14q18 48 51.5 112.5t48.5 100.5 q1 5 -3 2q-5 -5 -2 3q1 9 7 16q3 7 7 14l8 14q4 5 18 2.5t5 -20.5q-12 -24 -28 -53t-31 -56v-6q-9 -17 -27 -52t-20 -50q13 2 36.5 26t48 55t46.5 61.5t33 45.5q24 35 27.5 45t18.5 8zM182 175h-2h-2q0 -1 1 -2.5l1 -1.5h0.5h1.5v1.5v2.5zM92 68h-2h-3q1 -2 1.5 -2.5 l0.5 -0.5h3h3q-1 0 -1.5 0.5t-1.5 2.5zM156 73q4 -2 3.5 1.5t-3.5 3.5v-3v-2z" />
<glyph unicode="v" horiz-adv-x="240" d="M201 246l1 1.5t4 3.5h-3h-1q-1 -4 -1 -5zM190 233q0 -4 1.5 -3.5t2.5 3.5h-2.5h-1.5zM158 199q3 0 3 3q-5 0 -3 -3zM49 170q-2 0 -2 1q0 5 5 5q0 -2 0.5 -3.5l0.5 -1.5q-1 -1 -4 -1zM12 -14q-2 5 -7 6t-5 10q3 6 4 8.5t7 5.5q-2 0 -3.5 0.5l-1.5 0.5v0.5v2.5l1.5 0.5 t2.5 0.5l-0.5 1.5t-0.5 5.5q4 6 6 14l47 182q-4 -2 -4.5 -3.5t-3.5 1.5q-4 6 3 17.5t9 18.5q-1 5 2 8t18 1q9 -2 5 -18l-55 -217l110 155q2 0 2 2t2 3q-1 1 -1 4q5 0 5.5 4t4.5 7q1 1 3 1q31 42 57.5 64t32.5 26q25 16 39.5 19t18.5 3q15 -4 5 -14q-11 -9 -15 -6q-4 2 -6 5 t-7 1q-9 -3 -17 -8.5t-16 -10.5q-66 -51 -116.5 -134t-95.5 -153q-5 0 -9 -4q1 -1 3 -2q-3 -1 -5 -1.5t-4 -1.5q0 -5 -6 -5h-9z" />
<glyph unicode="w" horiz-adv-x="341" d="M96 281q17 3 10.5 -7t-20.5 -46q-7 -17 -18 -48t-19.5 -62.5t-10.5 -55.5t9 -25q5 7 14.5 19.5t19.5 27.5q34 48 54.5 89t45.5 87q6 18 27.5 27.5t19.5 1.5q-15 -25 -25.5 -51.5t-16.5 -47.5q-5 -12 -10 -35.5t-7.5 -47t-1.5 -41.5t10 -18q12 16 36 54t47 72 q5 9 18.5 28.5t23.5 31.5q-3 3 12 21.5t27 31.5q9 11 17 10.5t1 -9.5q-33 -42 -59 -79q-30 -41 -64.5 -99t-53.5 -89q-2 -3 -8 -7.5t-12 -8.5q-22 -12 -25.5 -8.5t-3.5 4.5l0.5 31.5t1.5 35.5q2 1 4 5h0.5h2.5l0.5 0.5t0.5 1.5q-3 0 -4.5 -0.5t-3.5 -0.5q6 28 12 57t17 60 q-24 -39 -52.5 -84.5t-61.5 -96.5q-4 -7 -18 -15q-23 -12 -26.5 -8l-3.5 4q-4 0 2 27t16 60t19.5 61.5t10.5 30.5q2 1 9.5 24t3.5 23q-15 -18 -9 -3t15 36q9 22 27 31zM148 81q-6 -2 -5 -2h1.5h3.5q1 0 3 2h-2h-1zM53 167l-3 -3h1.5h1.5q2 2 4 3h-3h-1zM28 70q1 1 -5 -2h2.5 h4.5q0 1 2 3q-1 0 -2 -0.5t-2 -0.5z" />
<glyph unicode="x" horiz-adv-x="246" d="M-26 -58l-0.5 0.5l-0.5 0.5v0.5v0.5h2h1zM266 76l-1 -2l16 11l-5 -3zM-30 -49q3 2 5 2q-1 -2 -5 -2zM-24 -48v1.5v0.5l1.5 0.5l1.5 0.5v2.5v0.5q-1 1 -3 1v2.5v1.5q8 5 9 15h1h1v2v1q3 0 3 2v0.5v0.5q0 1 2 3q-1 0 -1 2l0.5 1l0.5 1h3h1q0 5 4 9v0.5v1.5l57 84h0.5h1.5 l10 19q9 3 9 16l16 21l-12 56q-3 20 -7.5 28t-11.5 10h-9q-6 -1 -14.5 -18t-8.5 -36q0 -10 -16 -6q-14 2 -14 16q0 11 15 32t31 38q8 6 17 2t16 -10q9 -11 13.5 -24t6.5 -20l1 -0.5t4 -0.5v-2v-1q-2 1 -4 1v-1.5v-1.5h2h3l1 -13q-1 0 -1 -0.5v-0.5l4 -24q0 -2 1 -2l5 11 q1 2 5 2l107 139q6 8 17 6q10 -2 9 -12q-3 -6 -9 -8t-9 -8l-123 -152l22 -96q2 -3 5 -3q-1 -1 -1 -4q4 -1 5 -8.5t6 -10.5h0.5t2.5 1v-1v0q0 -1 8 -3v0.5v2.5q4 -4 10 -2l6.5 2.5t15.5 9.5l86 59h3l-5 -3q-1 -2 -5.5 -5t-5.5 -3t-2.5 -2.5l-1.5 -2.5l-13 -10l27 16l-5 -4 l-77 -58q-12 -9 -25 -15t-27 -2q-10 2 -15 23l-14 41q-2 4 -2 9q-1 0 -0.5 1.5t-0.5 1.5l-10 43q-4 -5 -10.5 -19t-9.5 -14q-1 -1 -1 -4h-2.5h-1.5q-2 -5 -4.5 -8t-2.5 -8h-3h-1l-57 -75q-2 -3 -3 -7.5t-4 -5.5q4 6 4 8q-4 0 -5 -1.5t-5 -4.5l2 -4q-2 -1 -2 -5h1h1 q0 -2 1 -2q-3 -1 -8 -4v-0.5v-1.5q-4 0 -5 -1l-3 -9l-1.5 -0.5t-3.5 -0.5z" />
<glyph unicode="y" horiz-adv-x="246" d="M-9 -228q-9 47 33.5 119.5t89.5 125.5q-1 -1 -1 -6q1 1 4 1q0 4 1 5h-4l9 9q12 30 29 65t26 79q-5 0 -4 -1t1 -4q-2 -2 -22.5 -30t-45 -60t-47 -58.5t-27.5 -26.5q-1 0 -10 -5t-18 6q-5 5 -5 14q18 48 51.5 112.5t48.5 100.5q1 5 -4 2q-2 -2 -2 3q3 9 7 16q3 7 7.5 14 t7.5 14q5 5 19 2.5t5 -20.5q-12 -24 -28 -53t-31 -56v-6q-9 -17 -27.5 -52t-19.5 -50q13 2 36.5 26t48 55t46.5 61.5t33 45.5q24 35 27 45t19 8q14 -6 6.5 -24.5t-25 -46t-37.5 -64t-30 -79.5q3 3 7 5t7 5q3 1 9 3.5t10 2.5q2 0 4.5 2t5.5 3q1 1 5 1.5t7 3.5q0 -3 -3 -3.5 t-3 -1.5q0 -2 1 -1q9 4 9 8q6 -3 12 2q-7 -7 -11 -3q1 -4 2 -4q3 2 5.5 3t5.5 4q3 -2 3 -3q1 0 1 1.5t3 2.5h1h1q4 4 4 1l2 -1l4 4q0 -6 -5.5 -8t-8.5 -4q-21 -9 -42.5 -20t-38.5 -28q-5 -12 -11.5 -24t-6.5 -16q0 -1 -3 -4q-6 -22 -10.5 -43.5t-1.5 -30.5q-3 -1 -5 -1v1.5 v0.5h-2.5h-2.5q0 -2 0.5 -5t-0.5 -6l0.5 -0.5l1.5 -1.5q-14 -18 -24.5 -46t-25.5 -51q-18 -26 -32 -35q-9 -7 -23.5 -11t-17.5 11zM182 175h-2h-2v-2.5v-1.5h2h1q1 1 1 4zM91 68h-2h-2q0 -3 2 -3h1.5h4.5q-1 0 -2.5 0.5t-1.5 2.5zM156 73q4 -2 3 1.5t-4 3.5q0 -2 0.5 -3 t0.5 -2zM9 -225q37 21 76 119q-1 1 -1 2q0 2 1 2h1q2 4 3 5q0 1 2 1q0 2 -1 5q3 2 15.5 33.5t12.5 32.5q-5 0 -12 1v1v1q1 1 5 1q0 2 1 2q-10 0 -20 -16l3 -3q-10 -6 -11.5 -11t-15.5 -14v-0.5v-0.5q5 0 7 -1v-1v-2q-14 -1 -12 -1.5t5 -4.5q-8 -5 -21.5 -27.5t-25 -48 t-16.5 -48t4 -27.5zM110 2q1 1 2 1.5l1 0.5l-2 2q0 -1 -0.5 -2t-0.5 -2z" />
<glyph unicode="z" horiz-adv-x="233" d="M-74 -227q-5 2 -10.5 4.5t-4.5 10.5q-4 24 20.5 67.5t67.5 86.5q1 -3 3 -3q1 2 -1 8q28 28 65.5 61.5t70.5 54.5q5 3 10.5 6t12.5 7q12 7 25 10q-7 1 -27 0q-28 -3 -69 -14.5t-55 -19.5q-7 -5 -13 -5q-10 0 -12 1q-10 1 -9.5 14t9.5 18q6 7 11.5 6.5t16.5 2.5 q48 14 66 26.5t31 24.5v2v2h4h5q0 2 2 6q2 0 3 0.5t3 0.5v1.5v1.5h2.5h2.5q0 2 2 4l2 2q0 4 -1 5q2 3 9 10.5t7 11.5q2 4 6 9q5 0 7 1q-1 2 -3 2q0 2 2.5 3.5t3.5 3.5h-2t1 0q0 2 8.5 14t5.5 24q-5 15 -50.5 12t-73.5 -30l-4 -4q0 -6 -12.5 -7t-14.5 -1q0 3 -1 4q-9 0 -5 16 q1 5 9 7q5 6 12 5t14 0q24 14 42.5 18t33.5 7q8 0 35 -0.5t39 -21.5q4 -13 -8 -27q3 -5 -10 -23t-33.5 -40t-43 -43t-37.5 -30q15 4 51.5 12.5t59.5 -0.5q10 6 11 7q6 3 5 2q-2 -2 -4 -2q-1 -2 -2 -3q0 -1 1 0q8 2 8 8q5 -4 12 1q-3 -4 -12 -4q2 -1 3 -2q8 4 10 6q2 0 3 -3 q1 1 0.5 2t2.5 2h2h3h1t1 1l2 -1h2l2 4q1 -4 -4.5 -6.5t-9.5 -3.5q-6 -3 -14 -6l-16 -6q2 -2 3 -3.5t2 -1.5q13 -34 -19.5 -81.5t-81 -94t-96.5 -82t-67 -44.5v-0.5v-2.5q0 -1 -10 -6t-19 -5zM-61 -195q18 -4 31.5 9.5t24.5 22.5q0 3 5 3q0 1 0.5 2l0.5 1l0.5 1t2.5 1v0.5 v0.5q3 2 6 3.5t7 1.5q33 28 58 48t35 34q0 2 0.5 4.5t1.5 3.5v2v1h1h4q1 6 5 7v1.5v0.5q2 0 2 -2q2 0 3 0.5t2 0.5v2v1q18 14 48.5 47t30.5 60q0 3 -1.5 10.5t-10.5 8.5q-11 -2 -17.5 -5.5t-16.5 -7.5q-1 -5 -6.5 -6.5t-7.5 -6.5q-2 2 -6 0q0 -1 2 -1v-1.5v-0.5l-6 -3v-1v-1 q-3 0 -4.5 -0.5t-3.5 -0.5v-3v-1q-1 -1 -1.5 -1h-0.5q0 -2 -6 -3q0 -4 -5.5 -6.5t-8.5 -3.5q-2 -2 -7 -2v-2.5v-2.5q-5 0 -7.5 -5.5t-4.5 -8.5h-2.5h-0.5q-1 -1 -1 -3q-3 0 -4 -2q-22 -15 -39 -31.5t-31 -31.5q-26 -27 -37.5 -45t-14.5 -21q-9 -17 -16.5 -35.5t-3.5 -32.5z " />
<glyph unicode="{" horiz-adv-x="208" d="M137 -54v0.5v0.5q-9 4 -16 5q-4 6 -20.5 13.5t-13.5 19.5h-2h-1q-2 3 -3.5 5t-1.5 4q0 1 1 1h1v2v2q-1 0 -2.5 0.5t-2.5 0.5l-0.5 0.5t-0.5 1.5q1 3 4 4q-1 0 -2.5 1.5t-1.5 2.5q3 13 2.5 32.5t3.5 35.5q-2 14 0 22h-1.5h-0.5q-1 10 -1 12t1 5q-1 0 -3 1q0 3 2 4 q-7 11 -13 26h-2h-1q-6 5 -24 5.5t-24 -0.5q-2 4 -12 11v1v2h-1h-1q0 3 0.5 7t0.5 7h0.5h2.5v3v4q1 2 5 2v0.5v1.5q9 0 16.5 -1t17.5 -1v0.5v1.5h2h4v1v3h1.5h1.5q0 1 1 2q6 0 12 8.5t9 15.5q7 0 10.5 9t12.5 11v2v2q-5 -1 -5 0q4 4 14.5 27.5t9.5 31.5v0h1q0 6 2.5 11 t2.5 11h0.5t1.5 2q0 6 1.5 16.5t-1.5 16.5q1 0 4 6q-2 1 -2 4h1h2q1 11 -1 12v0.5v1.5t2 3q0 8 0.5 17.5t-0.5 18.5q3 0 4 1q-1 3 -3.5 8t-0.5 9q-3 7 -3 15.5t-1 17.5h0.5h1.5q0 12 1.5 17t7.5 15q-2 2 -2 3q5 0 6 3.5t8 6.5v1v2q8 1 16.5 2t15.5 -5l0.5 -0.5l1.5 -1.5 v-1.5v-0.5q2 -1 4.5 -4t4.5 -3q1 -9 4 -16.5t6 -15.5q-2 -2 -5 -8q-9 -2 -11 -2t-6 1q0 2 1 4h-4h-1q0 3 2 3q-3 5 -6 6v1.5v1.5q-1 1 -2 3.5t-3 5.5h-2h-1q-2 -3 -2 -9h-2h-1q2 -7 0.5 -14.5t-1.5 -13.5q3 -3 2 -14.5t-4 -14.5l4 -2v-2.5v-2.5q-2 0 -2 -1q-4 -6 -3 -9h1.5 h2.5q0 -1 -0.5 -1h-0.5q0 -3 0.5 -3.5t1.5 -2.5q-4 -2 -5 -5l1.5 -0.5t2.5 -0.5q-1 -3 -0.5 -4.5t0.5 -3.5q-1 1 -4 0q2 -8 1.5 -14t1.5 -13q-6 -3 -5 -11.5t1 -14.5q-4 -1 -4.5 -1h-0.5q1 -1 4 -1q-3 -10 -3.5 -14t-3.5 -19q-1 0 -2 -1l-1 -1q0 -1 -2 -4t-2 -7l0.5 -0.5 t2.5 -0.5q0 -7 -4.5 -15t-4.5 -16h-2.5h-1.5q-3 -6 -1 -15h-3.5h-1.5q-4 -6 -5 -9h-1.5h-0.5v-3v-2q-4 -3 -6 -13h-3h-1v-2v-1h-2.5h-1.5v-3v-1h-2h-2q3 0 3 -1q-3 -1 -9 -9t-6 -10h-2h-2v-1.5v-0.5h-1.5h-0.5q-1 -3 -1 -6q4 0 5 -3t5 -3q0 -3 -2 -4q6 -3 10.5 -13t4.5 -14 q10 -9 7 -19t2 -19h-3h-2q0 -2 2.5 -6l2.5 -4q-3 -4 -2.5 -14t-1.5 -16q2 -2 1 -9.5t-1 -9.5l0.5 -0.5t0.5 -1.5q-2 0 -5 -1q3 -7 3.5 -13.5t3.5 -12.5q-3 -2 -3 -3l0.5 -1t2.5 -1v-2v-1q-3 0 -3 -2q3 -1 7 -5q-1 -1 -1 -1.5v-0.5h0.5t2.5 -1q-3 -2 -5 -4h3h4v-1.5v-2.5 q12 -3 22.5 -10.5t28.5 -9.5l0.5 -1l0.5 -1q1 5 9 4.5t13 -0.5q-1 0 -1 -1v-1q0 -2 1 -3q-1 0 -1.5 -0.5l-0.5 -0.5q0 -3 1 -4q-3 0 -6 -0.5t-4 -0.5q1 -3 1 -5q-2 -1 -4.5 -1.5t-3.5 -1.5q-3 -6 -9.5 -7t-11.5 -1q-4 5 -16 0z" />
<glyph unicode="|" horiz-adv-x="50" d="M14 -14q-4 3 -3.5 6.5t-1.5 6.5q0 -2 -5 -5q-6 12 -2.5 32t0.5 34q1 8 1 11.5t-1 15.5l1 1l2 2q-1 1 -1 5v0.5t1 0.5q-1 5 -1 14t2 14q-3 6 -1 9t4 7q-2 2 -4 2q-1 0 -1 0.5v0.5l2 2q-1 3 -0.5 11.5t-0.5 10.5q1 3 2 3q-2 4 -2.5 16t2.5 16q-1 1 -1.5 3t-0.5 4q1 1 2 3 q0 4 -0.5 9.5t3.5 9.5q-3 5 -2.5 11.5t-1.5 12.5q2 1 2 7t-2 9l1.5 0.5t2.5 0.5l-4 4q1 2 4 2q-1 4 1 8l-4 2q6 3 5 2q-2 5 -6 8q6 2 11 7q0 3 -1 3q-2 0 -3.5 -1t-2.5 -1v1t1 2q-1 0 -2 1q4 6 1 9.5t4 10.5q-2 0 -3 1q3 3 5 3l-2 2q-6 -3 -5 -2v4v4q1 0 2 2t4 3l-0.5 0.5 l-0.5 0.5h-1.5h-1.5q-1 4 -1 11q0 2 2 3.5t4 4.5q-3 8 -3.5 9.5t1.5 3.5l-9 -3q-1 1 -3 2q10 14 8 22q1 3 4 5h-3h-1q0 7 -3 10q2 0 3.5 2t3.5 3q0 -2 -3 4q3 1 2.5 10.5t-1.5 13.5l1 0.5l1 0.5q-3 9 -3.5 15.5t-3.5 14.5q3 2 5 10q15 8 20 -5q10 3 7.5 -9t-2.5 -16 q1 -5 1.5 -10t2.5 -11q-3 -1 -4 -2t-3 -1q0 -2 1 -3l1 -1l-1 -0.5l-1 -0.5q0 -1 1 -2.5l1 -1.5q-4 -7 0 -16l-3 -2q1 -3 1 -8q-2 0 -4 -1q0 -2 2 -4q-1 -4 1 -14q-1 -2 -1 -3v-8v-9h-1v0v-8t2 -7v0h1v1.5v2.5q1 0 2 0.5t2 0.5q-1 -1 -1 -7q-3 -2 -5 0q-4 -20 -4 -42t3 -40 q-9 -6 0 -11q-3 -7 -3 -17l1.5 -0.5t2.5 -0.5q-2 -6 -4 -11t-2 -9q2 -2 4 -2q-2 -5 -2.5 -12.5t2.5 -11.5q-3 -5 0 -7q-3 -3 -2 -5.5t-1 -5.5v-6.5t1 -5.5q-2 0 -3 -1t-2 -1q0 -1 -0.5 -2l-0.5 -1q-1 -1 5 2v-1.5v-0.5q-2 -3 -4 -3h2h2q0 -3 -4 -7q2 -3 3 -3.5t4 -2.5 q-3 -4 -4 -11.5t2 -9.5q1 1 1.5 4.5t3.5 3.5q-1 -8 -4 -12t-2 -12q3 0 5 2v-2v-2q2 0 -4 -3q4 -1 4 -9.5t2 -12.5q3 0 5 -2l1 -1l1 -1q-5 -5 0 -7q-5 -3 -7 -3q3 -5 5 -9q-1 -3 0.5 -6t1.5 -6q-3 0 -4 -1t-1.5 -3t-1.5 -2q1 -1 2 -3t2 -2l-2 -2l0.5 -0.5l1.5 -1.5 q-2 0 -2 -2q0 -1 0.5 -2.5t1.5 -1.5q-1 -8 -3.5 -11t-6.5 -6q0 -2 1 -3t1 -2q-3 -2 -6.5 -3.5t-6.5 -4.5l-2 3h-0.5t-0.5 -1l0.5 -1t0.5 -2h-0.5h-0.5zM39 27q0 2 -0.5 3.5t-0.5 3.5h0.5t0.5 2q3 -4 3 -6q-1 -2 -3 -3zM28 80q3 2 2 9l-1.5 -1l-1.5 -1q0 -5 1 -7zM21 86 l0.5 0.5t1.5 0.5v2v1q-2 0 -3 -1q0 -2 0.5 -2.5zM23 91q0 -1 3 5q-1 0 -1 0.5v0.5h-3h-1zM21 112h0.5h1.5l-0.5 1t-0.5 3q3 3 3 2q0 3 -2 3q-2 -3 -2 -9zM33 138q-1 2 -1 7h0.5h0.5q1 -3 0 -7zM34 162q-1 3 -1 7q1 -4 1 -7zM23 159q3 5 2 15l-1 -1l-1 -1q-1 -1 -1 -3 q-1 -2 -4 -2q3 -2 5 -8zM26 185q0 7 -1 11q-2 -4 -2 -11h1.5h1.5zM25 197l0.5 0.5t0.5 1.5q0 6 -0.5 5t-3.5 -3q1 -4 3 -4zM34 236q-1 3 -1 5q-1 0 -2 -0.5l-1 -0.5q-2 0 -2 1q1 0 2 1.5t3 2.5q0 -3 4 -6q-3 0 -3 -3zM36 327q-2 0 -3 2q0 1 1.5 2t2.5 3l0.5 -1.5l0.5 -1.5 q-2 -2 -2 -4zM36 357q0 4 1 5v-0.5t1 -0.5zM37 396q0 1 -0.5 1.5t-0.5 1.5q1 0 2 1h-0.5t-0.5 1q1 0 1 1q1 -1 1 -4q-1 0 -2 -2z" />
<glyph unicode="}" horiz-adv-x="192" d="M-5 -110q0 1 -1.5 3t-2.5 2q7 0 22 19.5t25 22.5v1v1q10 2 15 9t15 10q0 9 5 11q-3 17 -8 42t-3 43q4 10 -2 21q1 0 2 0.5t2 0.5q-5 12 0 18l-0.5 1t-0.5 2q2 4 1.5 10t-0.5 11q1 1 2 1q0 5 1.5 7.5t1.5 7.5q1 1 6 1q-5 5 2 18t7 21q3 0 5 1q2 5 6.5 9.5t6.5 11.5h1.5 h1.5q2 6 3 8q3 0 4 -1q0 1 5 6q-1 5 -5 15h-1h-1l0.5 2t0.5 3q-1 1 -4 1v3v3l0.5 1t2.5 1q-2 0 -2.5 0.5l-0.5 0.5q0 12 1 22t0 13h2h2q-1 1 -1 2v1l2 2q-3 5 -2 12t1 13h0.5h1.5q-2 6 0 11.5t2 11.5l1.5 1t3.5 1q-2 1 -4 1q1 12 1.5 14.5t0.5 7.5l1 0.5l1 0.5q0 3 -3 3 q0 1 0.5 3t2.5 4q-2 0 -2 1.5v1.5q4 8 3 13q1 1 4 1q3 10 0.5 22t2.5 24q-2 1 -3.5 10.5t1.5 12.5q-9 5 -10 17q-3 0 -5 1t-5 2q0 2 1 4h-5h-3q-3 -4 -10 -6.5t-10 -2.5v-1.5v-0.5q-23 -4 -23 10.5t21 18.5v0.5v2.5q6 1 16 3v0.5v2.5h12h13q0 -3 2 -3q1 -1 3.5 -2t4.5 -1 v-2.5v-0.5l6 -2v-3.5v-3.5h3.5h4.5q0 -6 3.5 -10t3.5 -10l0.5 -1t2.5 -1q2 -9 2.5 -11t0.5 -5l-0.5 -0.5l-0.5 -0.5q0 -2 3 -6q-3 -5 -1.5 -8.5t1.5 -7.5q-3 0 -3 -1q-2 -3 -2 -6.5v-6.5h1h1v-7.5v-6.5q0 -2 1 -3q-1 -1 -3 -13q-2 1 -5 1q-3 -7 -3.5 -16t-2.5 -16h1h2 q0 -5 -1 -8v-11v-12q-4 -1 -4 -7h-2h-1l2 -6l-2 -4q2 0 3 -1q-1 -14 -1.5 -42t17.5 -31v1v3h2h2q-1 -3 -1 -6q7 -3 9.5 -5t5.5 -2v-5.5v-5.5q0 -1 0.5 -2t1.5 -1q-2 -8 -4 -13h-4.5h-3.5q0 3 -2 4v-2v-2h-3.5h-2.5q-1 -1 -1 -2q-13 0 -16.5 -2t-12.5 -9v-1v-2 q-22 -18 -25 -46h-2.5h-2.5q1 -4 2 -7q-5 -2 -6.5 -17.5t-4.5 -22.5l1 -1t1 -2q-2 -10 -2.5 -12l-0.5 -2q0 -3 3 -4v-1v-2t0.5 -1.5l0.5 -0.5l-0.5 -1t-0.5 -2l2 -6q-1 -1 -1.5 -2l-0.5 -1q7 -13 7 -32q0 -2 4 -3v-2v-3h-3h-2v-0.5v-0.5h1h2q0 -3 1.5 -6.5t2.5 -8.5 q1 -1 4 -1q-1 -4 -0.5 -7t-2.5 -9q1 0 1.5 -1.5t1.5 -2.5q-5 -1 -8 -7t-7 -10l0.5 -1.5t2.5 -3.5h-3h-1q0 -1 1 -3h-4h-3q-4 -8 -11 -8q-5 -8 -11 -10v-0.5v-1.5q-6 0 -10 -2.5t-9 -4.5v-0.5v-1.5q-9 0 -12.5 -3t-10.5 -3q0 -4 1 -5h-2.5h-1.5q0 1 -0.5 1.5l-0.5 0.5h-2h-2 q-1 -3 -4 -5t-3 -6h-5h-5z" />
<glyph unicode="~" horiz-adv-x="164" d="M94 294q-12 0 -20.5 10.5t-16.5 22.5q-8 10 -11 11q-17 4 -20 -14q3 -12 -7.5 -18t-18.5 0q1 2 1 5h0.5h2.5q-3 4 -3 5q-1 6 7.5 16.5t18.5 15.5q23 10 37 -5q5 -6 15 -19.5t24 -13.5q15 -1 28.5 12.5t16.5 28.5q12 5 14 -6q-1 0 -2 -2q-12 -28 -28 -38.5t-38 -10.5z" />
<glyph unicode="&#xa3;" horiz-adv-x="436" d="M47 -25v1.5v1.5q-15 0 -27 3q-18 11 -19 37t21 29q12 0 27.5 -3.5t32.5 -5.5t32 -2t25 7v1.5v2.5q4 0 11.5 -1t8.5 3q-1 0 7.5 11.5t19.5 28t22 34.5t16 31q8 20 14 48h-4q-1 0 -1.5 -0.5t-1.5 -0.5l-146 -8q-12 0 -19.5 4.5t-8.5 9.5q-4 8 9 12q3 0 5 0.5t5 0.5q0 2 2 3 h162q4 42 3.5 83.5t12.5 84.5q11 39 34.5 65.5t67.5 19.5v-1.5v-0.5q1 -1 8 -5v-2.5v-1.5q6 -4 8 -16t9 -13q0 -4 -4 -4q4 -15 -17.5 -15.5t-13.5 20.5q0 7 -3 13h-5.5h-3.5v-1.5v-0.5q-29 0 -45 -23.5t-23 -55.5q-5 -22 -6.5 -45.5t-1.5 -44.5q0 -16 -0.5 -30t-2.5 -26 l145 -1v-1.5v-1.5q14 0 29.5 -1.5t26.5 -5.5q-8 0 -14 -1.5t-12 -2.5q-20 1 -32 1t-28 -2q2 -1 7 -1q-6 0 -12 -1t-11 1q-11 0 -16 2q-15 -6 -52 -6h-17h-16q-6 -36 -17 -67q-18 -36 -34 -55t-29 -39q1 -2 1 -3q-6 -1 -6 -2q4 0 6 -2l0.5 -1l0.5 -1h3.5h4.5q0 -3 1 -3t1 3h2 h3q25 6 62.5 8.5t72 3.5t59 0.5l24.5 -0.5q4 0 8 -3t9 -3q11 -4 7 -12t-8 -8q-3 -3 -6 -4q0 6 -36 8t-83.5 1.5t-95.5 -5t-72 -11.5q-32 -7 -52.5 -18t-31.5 -11v-1.5v-1.5h-1.5h-0.5zM26 7q11 -11 26 -8q9 0 19 7t35 14q-12 5 -46 3.5t-34 -16.5z" />
<glyph unicode="&#xad;" horiz-adv-x="180" d="M4 222q-11 0 -13 14q0 7 5 10q1 1 4 1v2v2l154 -1v-2v-1q6 -1 13.5 -2t13.5 -5q-10 -2 -12 -4q-17 3 -30 -1l1.5 -0.5t2.5 -0.5h-6h-5t-8 2q-5 -5 -23 -6q-8 0 -15.5 0.5t-11.5 0.5q0 -1 -1 -2z" />
<glyph unicode="&#xb1;" horiz-adv-x="158" d="M15 153q-12 3 -12 10t4 7q0 2 2 4q3 1 12 0q18 -12 55 0t61 2v1v1h3.5h4.5v-3.5v-4.5h-3h-3q0 -1 -0.5 -1.5t-0.5 -1.5q-1 0 -3 2v0.5t2 0.5h-3h-1v-1.5v-1.5q-3 0 -6.5 -0.5t-5.5 -0.5v-1v-1q-27 -2 -53.5 -6.5t-52.5 -4.5zM79 219q-6 1 -11 0q0 3 1 4q-3 5 -2.5 12.5 t6.5 10.5q-6 3 -3 3l4 8q0 12 4 24q-20 0 -39.5 1.5t-37.5 3.5q-3 16 4.5 18t19.5 -4q36 -2 43 -2t13 1q0 4 1 11t4 11q-3 3 -2 3q1 6 1 13v14h0.5h1.5l1 1t1 2q3 2 12 2q3 -8 4 -19t-3 -18q0 -1 0.5 -1h0.5q-1 -2 -2 -2l14 -7t14 -4v-1.5v-0.5q4 -3 12 -7.5t4 -13.5h-24.5 t-23.5 -1q-3 -9 -5 -17.5t-2 -16.5q-1 0 -1.5 -0.5t-1.5 -0.5q1 -1 3 -4l-3 -5l3 -1v-4v-3q-1 0 -2.5 -0.5l-1.5 -0.5v-3v-2q-2 -1 -4 -2.5t-3 -1.5z" />
<glyph unicode="&#xc0;" horiz-adv-x="379" d="M364 434q1 0 2 1t2 1q0 2 1 3q-6 -2 -5 -5zM401 486q0 -2 -5 -2q-3 0 -5 1v0.5v0.5q-9 -1 -26 10.5t-29 19.5q-2 0 -4 1t-3 2q0 1 0.5 2t0.5 2q-8 0 -9 1q-3 3 -3 6q-3 1 -7 2t-7 2q-1 0 -1 1.5v1.5q-2 2 -4 2q4 4 12 1h2h2h0.5t0.5 2h1h2q20 -10 48 -25q9 -5 18.5 -8 t14.5 -6q7 -5 4 -16q-2 -1 -3 -1zM194 159q5 0 20 5.5t16 7.5q1 -1 9 -1v0.5v2.5l6 2q-3 2 -1 4q6 -5 25 0t28 6l5 15.5t12 34.5t13 36.5t8 21.5l6 21l6 21q8 1 7 16t10 25q-3 0 -5 2h2h2q0 8 3 14.5t4 13.5q3 9 -2.5 10t-10.5 -8q-1 1 -21 -31.5t-47 -75t-54 -84.5t-41 -59 zM220 -122q-6 7 -8.5 16.5t5.5 15.5q-3 1 -3 4q8 3 3 11l1 0.5t2 0.5q0 57 23.5 117.5t44.5 114.5q2 2 4 2v1v3q-5 3 -22.5 -2t-23.5 -6h1.5h2.5q-16 -3 -32 -9t-31 -12v-0.5v-0.5q-16 -4 -31.5 -22.5t-35 -41t-45.5 -43t-63 -27.5v0v-1q-20 1 -20.5 14.5t9.5 12.5 q44 -3 75.5 27t57.5 60q-13 0 -25 -8.5t-24 -8.5q-2 -2 -3 -2q-3 0 -6.5 -2t-6.5 -2q0 -3 -1 -4q-5 -1 -10.5 -3.5t-9.5 -2.5q-3 -4 -8.5 -4.5t-8.5 -0.5q0 5 -2.5 9t-2.5 8q80 28 104 39.5t40 14.5q18 15 46.5 58t56 88.5t48.5 82.5t24 41q2 0 2 1t6 3q0 3 4 8.5t6 10.5 q8 23 23 31.5t24 -4.5q4 -9 -0.5 -20.5l-4.5 -11.5l1 -0.5l1 -0.5q-2 -13 -9 -15q2 -9 -7.5 -21.5t-5.5 -17.5l-8.5 -19.5t-8.5 -23.5q4 -1 6 -2q-1 -3 -4 -4q0 -3 2 -5q-2 0 -3 -0.5l-1 -0.5l-5.5 -20t-8.5 -20l-6 -14l1 1.5t1 2.5h-2.5h-0.5q-5 -22 -17.5 -48.5 t-15.5 -32.5q18 0 38 8t39 8q5 -5 9 -6v-5.5v-4.5l-4 -2q-1 -1 -1 -4q-10 -3 -11 -5q-12 0 -40.5 -2t-35.5 -11q-1 -1 -17 -39t-31.5 -84t-23 -85t9.5 -44q0 -5 -0.5 -9.5t-0.5 -9.5q-3 0 -4 -2q0 -1 -0.5 -3t-0.5 -5q-7 -3 -6.5 -5.5t-13.5 -4.5z" />
<glyph unicode="&#xc1;" horiz-adv-x="379" d="M364 434q1 0 2 1t2 1q0 2 1 3q-6 -2 -5 -5zM422 486q-2 0 -2 1q-5 12 2 16q4 3 13.5 6t19.5 8q25 14 50 25h0.5h0.5q1 -2 2 -2h1.5h1.5q7 3 13 -1q-1 0 -5 -2q2 0 -1 -3q-2 -1 -7 -2t-6 -2q0 -2 -4 -6q-1 -1 -7 -1v-2v-2q-3 -1 -4.5 -2t-3.5 -1q-13 -8 -29.5 -19.5 t-24.5 -10.5q-1 0 -1 -0.5v-0.5q0 -1 -5 -1q-4 0 -4 2zM194 159q5 0 20 5.5t16 7.5q1 -1 9 -1v0.5v2.5l6 2q-3 2 -1 4q6 -5 25 0t28 6l5 15.5t12 34.5t13 36.5t8 21.5l6 21l6 21q8 1 7 16t10 25q-3 0 -5 2h2h2q0 8 3 14.5t4 13.5q3 9 -2.5 10t-10.5 -8q-1 1 -21 -31.5 t-47 -75t-54 -84.5t-41 -59zM220 -122q-6 7 -8.5 16.5t5.5 15.5q-3 1 -3 4q8 3 3 11l1 0.5t2 0.5q0 57 23.5 117.5t44.5 114.5q2 2 4 2v1v3q-5 3 -22.5 -2t-23.5 -6h1.5h2.5q-16 -3 -32 -9t-31 -12v-0.5v-0.5q-16 -4 -31.5 -22.5t-35 -41t-45.5 -43t-63 -27.5v0v-1 q-20 1 -20.5 14.5t9.5 12.5q44 -3 75.5 27t57.5 60q-13 0 -25 -8.5t-24 -8.5q-2 -2 -3 -2q-3 0 -6.5 -2t-6.5 -2q0 -3 -1 -4q-5 -1 -10.5 -3.5t-9.5 -2.5q-3 -4 -8.5 -4.5t-8.5 -0.5q0 5 -2.5 9t-2.5 8q80 28 104 39.5t40 14.5q18 15 46.5 58t56 88.5t48.5 82.5t24 41 q2 0 2 1t6 3q0 3 4 8.5t6 10.5q8 23 23 31.5t24 -4.5q4 -9 -0.5 -20.5l-4.5 -11.5l1 -0.5l1 -0.5q-2 -13 -9 -15q2 -9 -7.5 -21.5t-5.5 -17.5l-8.5 -19.5t-8.5 -23.5q4 -1 6 -2q-1 -3 -4 -4q0 -3 2 -5q-2 0 -3 -0.5l-1 -0.5l-5.5 -20t-8.5 -20l-6 -14l1 1.5t1 2.5h-2.5h-0.5 q-5 -22 -17.5 -48.5t-15.5 -32.5q18 0 38 8t39 8q5 -5 9 -6v-5.5v-4.5l-4 -2q-1 -1 -1 -4q-10 -3 -11 -5q-12 0 -40.5 -2t-35.5 -11q-1 -1 -17 -39t-31.5 -84t-23 -85t9.5 -44q0 -5 -0.5 -9.5t-0.5 -9.5q-3 0 -4 -2q0 -1 -0.5 -3t-0.5 -5q-7 -3 -6.5 -5.5t-13.5 -4.5z" />
<glyph unicode="&#xc2;" horiz-adv-x="385" d="M364 433q1 0 2 0.5t2 0.5q0 3 1 4q-6 -2 -5 -5zM334 485q-2 0 -3 1q-2 8 -1 10.5t4 5.5t10.5 6t14.5 9q8 4 15.5 9t15.5 11q4 5 9 3v0v0v0v0q4 -2 10.5 -7.5t15.5 -9.5q9 -6 19 -11t19 -11q0 -1 0.5 -1.5t0.5 -1.5v-0.5v-0.5l2 -2q5 -5 5 -11q-1 0 -2 0.5t-1 1.5 q0 -1 -3 -1q-2 0 -4.5 3.5t-3.5 5.5q-4 -4 -5 -2q-4 2 -5 5q-3 0 -3 -2l-6 3q-10 5 -25.5 10.5t-18.5 13.5q-3 -3 -5 -4.5t-5 -3.5q-11 -7 -24 -18.5t-19 -10.5v-0.5v-0.5q-1 -2 -4 -2t-3 3zM194 158q5 0 20 5.5t16 7.5q1 -1 9 -1v0.5v1.5t6 3q-3 2 -1 3q6 -5 25 1t28 6 l5 15.5t12 34.5t13 36.5t8 21.5l6 21l6 21q8 1 7 16t10 24q-3 0 -5 3h2h2q0 8 3 14t4 14q3 10 -2.5 11t-10.5 -10q-1 1 -21 -31t-47 -75t-54 -84.5t-41 -58.5zM220 -123q-6 6 -8.5 16t5.5 16q-3 1 -3 3q8 6 3 11l3 3q0 57 23.5 116.5t44.5 113.5q1 3 4 3v1.5v3.5 q-5 2 -22.5 -3.5t-23.5 -5.5h1.5h2.5q-34 -7 -63 -21v-0.5v-0.5q-16 -4 -31.5 -22.5t-35 -40.5t-45.5 -42.5t-63 -27.5v-0.5v-2.5q-20 3 -20.5 16t9.5 12q44 -3 75.5 26.5t57.5 60.5q-13 0 -25 -8.5t-24 -8.5l-1.5 -1.5l-1.5 -1.5q-3 0 -6.5 -1.5t-6.5 -1.5q0 -3 -1 -4 q-5 -1 -10.5 -3t-9.5 -2q-3 -5 -8.5 -5.5t-8.5 -0.5q0 5 -2.5 9t-2.5 8q80 28 104 39t40 15q18 15 46.5 58t56 88.5t48.5 82.5t24 41q2 0 2 1t6 2q0 3 4 9t6 12q8 22 23 30t24 -4q4 -9 -0.5 -20.5l-4.5 -11.5l1 -0.5l1 -0.5q-1 -5 -2 -9t-7 -6q2 -9 -7.5 -21.5t-5.5 -17.5 l-8.5 -19.5t-8.5 -23.5q4 0 6 -3q-1 -2 -4 -3q0 -3 2 -5q-3 0 -4 -2l-5.5 -19.5t-8.5 -19.5l-6 -15q0 1 1 2.5t1 2.5h-2.5h-0.5q-5 -22 -17.5 -48.5t-15.5 -32.5q18 0 38 8t39 8q3 -5 9 -6v-6v-4l-4 -2q-1 -2 -1 -4q-10 -3 -11 -4q-12 0 -40.5 -2.5t-35.5 -12.5 q-1 -1 -17 -38.5t-31.5 -83t-23 -85t9.5 -44.5q0 -5 -0.5 -9.5t-0.5 -10.5q-3 0 -4 -1q0 -1 -0.5 -3t-0.5 -4q-7 -3 -6.5 -5.5t-13.5 -5.5z" />
<glyph unicode="&#xc3;" horiz-adv-x="379" d="M364 434q1 0 2 1t2 1q0 2 1 3q-6 -2 -5 -5zM420 484q-12 0 -20.5 10.5t-16.5 22.5q-6 9 -11 11q-17 2 -20 -15q3 -12 -7.5 -17.5t-18.5 0.5q1 1 1 5h1h2q-3 6 -3 5q-1 6 7.5 16.5t18.5 15.5q10 4 20.5 2t16.5 -7q6 -6 15.5 -19.5t24.5 -13.5q15 -2 28 11.5t16 28.5 q11 6 15 -6h-2.5h-0.5q-12 -29 -28 -39.5t-38 -10.5zM194 159q5 0 20 5.5t16 7.5q1 -1 9 -1v0.5v2.5l6 2q-3 2 -1 4q6 -5 25 0t28 6l5 15.5t12 34.5t13 36.5t8 21.5l6 21l6 21q8 1 7 16t10 25q-3 0 -5 2h2h2q0 8 3 14.5t4 13.5q3 9 -2.5 10t-10.5 -8q-1 1 -21 -31.5t-47 -75 t-54 -84.5t-41 -59zM220 -122q-6 7 -8.5 16.5t5.5 15.5q-3 1 -3 4q8 3 3 11l1 0.5t2 0.5q0 57 23.5 117.5t44.5 114.5q2 2 4 2v1v3q-5 3 -22.5 -2t-23.5 -6h1.5h2.5q-16 -3 -32 -9t-31 -12v-0.5v-0.5q-16 -4 -31.5 -22.5t-35 -41t-45.5 -43t-63 -27.5v0v-1q-20 1 -20.5 14.5 t9.5 12.5q44 -3 75.5 27t57.5 60q-13 0 -25 -8.5t-24 -8.5q-2 -2 -3 -2q-3 0 -6.5 -2t-6.5 -2q0 -3 -1 -4q-5 -1 -10.5 -3.5t-9.5 -2.5q-3 -4 -8.5 -4.5t-8.5 -0.5q0 5 -2.5 9t-2.5 8q80 28 104 39.5t40 14.5q18 15 46.5 58t56 88.5t48.5 82.5t24 41q2 0 2 1t6 3q0 3 4 8.5 t6 10.5q8 23 23 31.5t24 -4.5q4 -9 -0.5 -20.5l-4.5 -11.5l1 -0.5l1 -0.5q-2 -13 -9 -15q2 -9 -7.5 -21.5t-5.5 -17.5l-8.5 -19.5t-8.5 -23.5q4 -1 6 -2q-1 -3 -4 -4q0 -3 2 -5q-2 0 -3 -0.5l-1 -0.5l-5.5 -20t-8.5 -20l-6 -14l1 1.5t1 2.5h-2.5h-0.5q-5 -22 -17.5 -48.5 t-15.5 -32.5q18 0 38 8t39 8q5 -5 9 -6v-5.5v-4.5l-4 -2q-1 -1 -1 -4q-10 -3 -11 -5q-12 0 -40.5 -2t-35.5 -11q-1 -1 -17 -39t-31.5 -84t-23 -85t9.5 -44q0 -5 -0.5 -9.5t-0.5 -9.5q-3 0 -4 -2q0 -1 -0.5 -3t-0.5 -5q-7 -3 -6.5 -5.5t-13.5 -4.5z" />
<glyph unicode="&#xc4;" horiz-adv-x="379" d="M364 434q1 0 2 1t2 1q0 2 1 3q-6 -2 -5 -5zM426 500h2.5h2.5h-5t-3 1q-3 1 -3.5 12t8.5 16h8l0.5 1.5l0.5 1.5h5q1 -3 3.5 -3t4.5 -1q6 -2 8 -9q0 -2 -0.5 -3t0.5 -4l-0.5 -0.5l-0.5 -0.5q-2 -10 -1.5 -9t-2.5 -2q-7 -7 -19 -5q-3 0 -5.5 2.5zM347 500h2.5h2.5h-4t-3 1 q-3 1 -3.5 12t8.5 16h7l0.5 1.5l0.5 1.5h5q2 -3 4.5 -3t4.5 -1q5 -2 7 -9q0 -2 -0.5 -3t0.5 -4l-0.5 -0.5l-0.5 -0.5q-1 -10 -1 -9t-3 -2q-7 -7 -17 -5q-5 0 -7.5 2.5zM194 159q5 0 20 5.5t16 7.5q1 -1 9 -1v0.5v2.5l6 2q-3 2 -1 4q6 -5 25 0t28 6l5 15.5t12 34.5t13 36.5 t8 21.5l6 21l6 21q8 1 7 16t10 25q-3 0 -5 2h2h2q0 8 3 14.5t4 13.5q3 9 -2.5 10t-10.5 -8q-1 1 -21 -31.5t-47 -75t-54 -84.5t-41 -59zM220 -122q-6 7 -8.5 16.5t5.5 15.5q-3 1 -3 4q8 3 3 11l1 0.5t2 0.5q0 57 23.5 117.5t44.5 114.5q2 2 4 2v1v3q-5 3 -22.5 -2t-23.5 -6 h1.5h2.5q-16 -3 -32 -9t-31 -12v-0.5v-0.5q-16 -4 -31.5 -22.5t-35 -41t-45.5 -43t-63 -27.5v0v-1q-20 1 -20.5 14.5t9.5 12.5q44 -3 75.5 27t57.5 60q-13 0 -25 -8.5t-24 -8.5q-2 -2 -3 -2q-3 0 -6.5 -2t-6.5 -2q0 -3 -1 -4q-5 -1 -10.5 -3.5t-9.5 -2.5q-3 -4 -8.5 -4.5 t-8.5 -0.5q0 5 -2.5 9t-2.5 8q80 28 104 39.5t40 14.5q18 15 46.5 58t56 88.5t48.5 82.5t24 41q2 0 2 1t6 3q0 3 4 8.5t6 10.5q8 23 23 31.5t24 -4.5q4 -9 -0.5 -20.5l-4.5 -11.5l1 -0.5l1 -0.5q-2 -13 -9 -15q2 -9 -7.5 -21.5t-5.5 -17.5l-8.5 -19.5t-8.5 -23.5q4 -1 6 -2 q-1 -3 -4 -4q0 -3 2 -5q-2 0 -3 -0.5l-1 -0.5l-5.5 -20t-8.5 -20l-6 -14l1 1.5t1 2.5h-2.5h-0.5q-5 -22 -17.5 -48.5t-15.5 -32.5q18 0 38 8t39 8q5 -5 9 -6v-5.5v-4.5l-4 -2q-1 -1 -1 -4q-10 -3 -11 -5q-12 0 -40.5 -2t-35.5 -11q-1 -1 -17 -39t-31.5 -84t-23 -85t9.5 -44 q0 -5 -0.5 -9.5t-0.5 -9.5q-3 0 -4 -2q0 -1 -0.5 -3t-0.5 -5q-7 -3 -6.5 -5.5t-13.5 -4.5z" />
<glyph unicode="&#xc5;" horiz-adv-x="379" d="M364 434q1 0 2 1t2 1q0 2 1 3q-6 -2 -5 -5zM334 486q-2 0 -3 1q-3 12 3 16q3 3 10.5 6t14.5 8q8 5 15.5 10.5t15.5 10.5q4 5 9 4v0v0v0v0q4 -3 10.5 -8.5t15.5 -9.5q9 -6 19 -11t19 -11q0 -1 0.5 -1.5l0.5 -0.5v-0.5v-1.5l2 -2q5 -4 5 -11q-1 0 -2 0.5t-1 1.5q0 -1 -3 -1 q-2 0 -4.5 4t-3.5 5q-4 -4 -5 -1q-3 0 -5 4q-3 0 -3 -2q-2 2 -6 2q-10 6 -25.5 11.5t-18.5 13.5q-3 -2 -5 -4t-5 -3q-11 -8 -24 -19.5t-19 -10.5v-0.5v-0.5q-1 -1 -4 -1t-3 2zM194 159q5 0 20 5.5t16 7.5q1 -1 9 -1v0.5v2.5l6 2q-3 2 -1 4q6 -5 25 0t28 6l5 15.5t12 34.5 t13 36.5t8 21.5l6 21l6 21q8 1 7 16t10 25q-3 0 -5 2h2h2q0 8 3 14.5t4 13.5q3 9 -2.5 10t-10.5 -8q-1 1 -21 -31.5t-47 -75t-54 -84.5t-41 -59zM220 -122q-6 7 -8.5 16.5t5.5 15.5q-3 1 -3 4q8 3 3 11l1 0.5t2 0.5q0 57 23.5 117.5t44.5 114.5q2 2 4 2v1v3q-5 3 -22.5 -2 t-23.5 -6h1.5h2.5q-16 -3 -32 -9t-31 -12v-0.5v-0.5q-16 -4 -31.5 -22.5t-35 -41t-45.5 -43t-63 -27.5v0v-1q-20 1 -20.5 14.5t9.5 12.5q44 -3 75.5 27t57.5 60q-13 0 -25 -8.5t-24 -8.5q-2 -2 -3 -2q-3 0 -6.5 -2t-6.5 -2q0 -3 -1 -4q-5 -1 -10.5 -3.5t-9.5 -2.5 q-3 -4 -8.5 -4.5t-8.5 -0.5q0 5 -2.5 9t-2.5 8q80 28 104 39.5t40 14.5q18 15 46.5 58t56 88.5t48.5 82.5t24 41q2 0 2 1t6 3q0 3 4 8.5t6 10.5q8 23 23 31.5t24 -4.5q4 -9 -0.5 -20.5l-4.5 -11.5l1 -0.5l1 -0.5q-2 -13 -9 -15q2 -9 -7.5 -21.5t-5.5 -17.5l-8.5 -19.5 t-8.5 -23.5q4 -1 6 -2q-1 -3 -4 -4q0 -3 2 -5q-2 0 -3 -0.5l-1 -0.5l-5.5 -20t-8.5 -20l-6 -14l1 1.5t1 2.5h-2.5h-0.5q-5 -22 -17.5 -48.5t-15.5 -32.5q18 0 38 8t39 8q5 -5 9 -6v-5.5v-4.5l-4 -2q-1 -1 -1 -4q-10 -3 -11 -5q-12 0 -40.5 -2t-35.5 -11q-1 -1 -17 -39 t-31.5 -84t-23 -85t9.5 -44q0 -5 -0.5 -9.5t-0.5 -9.5q-3 0 -4 -2q0 -1 -0.5 -3t-0.5 -5q-7 -3 -6.5 -5.5t-13.5 -4.5z" />
<glyph unicode="&#xc7;" horiz-adv-x="322" d="M127 -11q21 5 70 31.5t75 54.5q0 3 5 9.5t7 6.5q-1 3 2 11q10 3 10 12.5t-12 -2.5q-2 -2 -3 -6t-10 -14q-21 -20 -58 -41t-63 -30q-58 -24 -97.5 3.5t-34.5 72.5q2 1 3 1q1 7 -3 14q0 1 2 1q-2 6 -1 10t1 10l1 0.5t2 0.5q-2 3 0.5 15t2.5 18l0.5 1t1.5 1q0 5 -1 7 l1.5 0.5l1.5 0.5q1 1 1 4l-0.5 0.5l-0.5 0.5q1 3 3.5 8t2.5 8l3 3q-2 6 3 11q-2 3 1 6h-3h-2q0 -1 -2.5 -6l-2.5 -5q1 -3 1 -4q-5 -4 -7 -10.5t-2 -12.5q-2 0 -3 -1l-1 -1q0 1 -0.5 1.5t-0.5 1.5l-1 2t2 4q-1 0 -1 0.5v0.5q1 2 5 2q-3 8 1 12t4 13h2h4l-6 4q0 3 1 7l2 8 q-1 1 -8 1q0 -2 1 -5q-5 -5 -13.5 -19.5t-8.5 -22.5l6 -2q-5 -5 -9 -14.5t-4 -15.5h2.5h0.5v-2v-1h-2h-3v-13q0 -1 2 -3q1 0 -5 -3q0 -2 3 -4q-3 -6 -3 -15.5v-14.5q6 -3 2.5 -12t2.5 -12q0 -1 -1 -1.5t-2 -0.5q0 -1 5 -3q-3 -6 -3 -9q7 -33 24 -49t37 -22t39 -5t31 3z M153 -16q2 0 2 -3q0 -12 -2 -14.5t-7 -3.5q-9 -3 -21 -3t-27 -3q-18 -3 -36.5 -6.5t-33.5 -3.5h-2v0q-1 1 -3 2h-2h-3q-10 0 -14 6q1 2 6 3l2 2q3 2 9.5 0.5t9.5 -1.5q2 6 7 8q2 0 4.5 -1t6.5 -2q0 4 1 6q7 0 9 1q19 6 45 14t36 2q1 0 1.5 1l0.5 1h6q5 -3 5 -5zM9 126l1 0.5 t4 0.5q2 6 4 8l-3 18q-5 0 -8 -2q0 -6 1 -12.5t1 -12.5zM16 154q2 0 4 1q-2 1 -3 3l1.5 0.5t2.5 0.5v0.5v0.5q-1 1 -3 1q2 3 4 5l-7 3v-3v-1q-3 0 -3 -1v-1v-1l1 -0.5t2 -0.5q0 -5 1 -7zM37 219q3 7 5 14h1h3v1.5v3.5q6 0 8 1v-2.5v-1.5q-2 0 -4 -1q2 -6 -3 -9.5t-10 -5.5z M27 236q0 1 0.5 1.5t0.5 1.5h2.5h2.5q-2 -3 -6 -3zM43 239l-3.5 3.5t-2.5 4.5h-1h-2q2 3 4 4q-1 1 -2 3q3 1 11 3q0 4 -5 8q3 3 9.5 13.5t11.5 13.5q0 3 7 13t12 13q0 2 3.5 5.5t3.5 6.5q4 3 13.5 11t8.5 13q6 0 8 3q-2 1 -3 2q0 5 6 8t11 6l-0.5 0.5t-0.5 1.5q-7 -1 7.5 15 t41 34t60 29.5t64.5 1.5q6 0 10.5 -4.5t10.5 -4.5q2 7 1 8q0 -3 3 3q-1 0 -1.5 0.5t-1.5 2.5h2h2v2v1q3 0 7.5 -2t8.5 -2q1 3 6 3q0 -3 -2 -5q2 0 4.5 -1t5.5 -1q0 -35 -8 -54.5t-23 -42.5v-1.5v-3.5h-2h-1q-1 -4 -3.5 -9.5t-5.5 -5.5q-3 -3 -14 -7t-15 -4l4 5l-5 2t-12 8 q2 12 2.5 12t0 -1.5t-2.5 1t-3 19.5h-1.5h-0.5q1 7 11.5 16t15.5 17q-1 3 1.5 5.5l4.5 4.5q-2 2 -4 2q0 3 3 8q-6 6 -10 7v2v3q-8 7 -29 5t-42.5 -10.5t-37 -20.5t-12.5 -24q-23 -8 -26 -20.5t-24 -14.5l-4.5 -6t-1.5 -6h0.5h0.5q5 5 15 10v-1.5v-1.5q-2 0 -3.5 -0.5 l-1.5 -0.5q-1 -4 -3.5 -5.5t-2.5 -6.5q-3 -1 -4 -2.5t-3 -1.5l1 -1l1 -1q-5 -4 -6 -9q-6 -1 -7 -4l-2 -6q-1 1 -4 1v2v2q4 3 8 9q-6 0 -9 -2.5t-7 -2.5q-2 -10 -7 -13.5t-6 -6.5q0 -1 1 -2t1 -2q-10 -7 -12 -8q0 -4 -3 -6q2 -4 0 -9q-1 0 -1.5 -0.5t-1.5 -0.5v-2.5v-1.5 q-4 -2 -6 -2q0 -11 -8 -21q2 -3 2 -4q-1 0 -3 -0.5zM52 239q-2 1 -2 3q5 5 9 7q-2 -8 -2 -10h-4h-1zM57 251l-1 0.5t-1 2.5q6 0 6 4t7 5q-3 -4 -3 -8q-5 -4 -8 -4zM66 266v1v3h2h2q0 -2 0.5 -3l0.5 -1h-2.5h-2.5zM76 281l-0.5 1l-0.5 1q4 1 9 11h1h4v-1.5v-0.5q-2 0 -5 -3 q1 -1 1 -2q-3 -3 -4 -6h-2.5h-2.5zM84 298q4 8 14 11q-2 -3 -4.5 -5.5t-3.5 -5.5h-3h-3zM105 327q3 3 7 3h-4h-2q-1 0 -1 -3zM110 336h1h3q-1 0 -1.5 2t-0.5 3h-1.5h-0.5v-3v-2z" />
<glyph unicode="&#xc8;" horiz-adv-x="297" d="M-9 -19q-12 3 -23.5 7t-23.5 7v2v2q-5 1 -9 9.5t2 17.5q4 2 7 2q0 3 -0.5 6.5t-0.5 7.5l1 0.5t2 1.5q-2 5 9 16.5t25.5 24.5t28 25.5t16.5 19.5q1 2 5 2q0 1 9.5 10t21.5 19t23.5 19t16.5 12v0.5v1.5q2 2 6 2v1v1q5 1 14 3q0 4 11.5 12.5t16.5 11.5v0.5v2.5l16.5 9 t19.5 13h-4.5h-4.5v-0.5v-0.5q-3 -2 -20.5 -5.5t-17.5 -5.5q-9 0 -19 -2.5t-19 -4.5v-2v-1q-14 -4 -31 -7t-32 1v1v1q-8 0 -22 4.5t-10 13.5q-14 0 -8 0t5 0q4 15 39 46t76 63t75.5 56t38.5 25q0 1 1 3t1 3h3h3v5v6h-4h-1q0 2 0.5 3t0.5 3l2 1t3 1v-1v-1h0.5h1.5q0 11 28 18 t33 -5h-1.5h-1.5v-4.5v-3.5q-15 0 -24 -13.5t-20 -13.5v-1.5v-0.5q-2 0 -4 -1l-0.5 -1.5l-0.5 -1.5q-1 0 -24 -16.5t-50 -37t-49 -39t-22 -23.5q-1 0 -2.5 1l-1.5 1v2v3h-0.5h-0.5v-4.5v-4.5l-9 -3q-1 -2 -3 -3v-0.5v-0.5q-15 -7 -22 -20t-19 -20v-1.5v-0.5q-4 -2 -5 -4.5 t-2 -5.5q-6 -9 10.5 -10l16.5 -1q19 2 43 9.5t42 14.5q5 7 9 2v1v2h3.5h3.5v2v1q9 1 17 3t17 3v0.5v1.5q9 0 16 4t16 6q0 1 1 3q16 1 16 -10h1.5h1.5q0 -9 -4 -17h-0.5h-0.5q-6 -12 -30.5 -18.5t-27.5 -16.5q-6 -1 -10 -2v-1.5v-1.5h-2h-2v-2v-1h-3.5h-2.5v-0.5t2 -1.5 q-11 -6 -16.5 -10t-13.5 -9v-1v-1q-3 0 -5 -0.5t-5 -0.5v-2v-3h-0.5h-0.5q-3 -3 -13 -10t-14 -8l0.5 -0.5l0.5 -0.5q-4 0 -5 -2q0 -3 -1 -6q-9 0 -24.5 -16t-27.5 -23v-1v-2h-1.5h-0.5v-0.5v-0.5q-10 0 -10 -11h-2.5h-1.5q0 -1 -0.5 -2t-0.5 -2h-1.5h-0.5q-2 -3 -7 -10h-1.5 h-0.5q-3 -5 -8 -9t-6 -7h-1.5h-0.5q-6 -11 -23 -27t-14 -30h-1.5h-2.5q7 -23 30 -18v1t-2 2h3h1q0 -3 1 -3q3 -1 13 -1v1.5v1.5q6 1 21 1v0.5v1.5q8 -1 33 6.5t52 16.5t48.5 17.5t22.5 11.5q3 0 6.5 0.5t7.5 1.5q0 1 0.5 2t0.5 3q5 0 7 -1v-0.5v-0.5h1.5h2.5v0.5v0.5 q1 1 5 1v3v4q1 -2 13 2t25.5 9t25 9.5l11.5 4.5l0.5 1l0.5 1h2h3q1 1 11 1q0 4 1 4q7 -11 15 -8v1.5v1.5q-8 1 -11 7h1.5h2.5v-2v-2h1.5h4.5v2v2q2 1 4 0q-3 -2 -3 -6h0.5h0.5q0 -1 3 -8h-4.5h-1.5v-0.5v-0.5q-3 -1 -5 -1.5t-5 -0.5q-3 -4 -8.5 -3.5t-5.5 -4.5 q-18 0 -38 -12t-34 -15q1 -3 -4.5 -3.5t-8.5 -1.5q-2 -3 -6 -3.5t-7 -2.5v-0.5v-0.5q-3 -1 -6 -1.5t-5 -0.5l-0.5 -1.5l-0.5 -1.5q-3 1 -8 1v-1.5v-0.5q-27 -12 -79 -34.5t-92 -21.5q-1 -1 -1 -2h-12t-7 -3zM165 486q0 -2 -5 -2q-4 0 -5 1v0.5v0.5q-9 -1 -26 10.5t-29 19.5 q-5 1 -6 3v2v2q-7 0 -9 1l-2.5 2.5t-1.5 3.5q-2 1 -6.5 2t-6.5 2q-2 0 -2 1.5v1.5q-2 2 -3 2q3 5 12 1h1.5h2.5t1 2h0.5h1.5q11 -6 23.5 -12.5t26.5 -12.5q9 -5 18 -8t15 -6q3 -3 4 -5.5t-2 -10.5q-1 -1 -2 -1z" />
<glyph unicode="&#xc9;" horiz-adv-x="297" d="M-11 -19q-13 3 -24 7t-23 7v2v2q-5 1 -9 9.5t2 17.5q4 2 7 2q0 3 -0.5 6.5t-0.5 7.5l1 0.5t2 1.5q-2 5 9 16.5t25.5 24.5t27.5 25.5t16 19.5q1 2 5 2q0 1 9.5 10t21.5 19t23.5 19t16.5 12v0.5v1.5q3 2 8 2q-1 0 -1 1v1q5 1 14 3q0 4 11 12.5t16 11.5v0.5v2.5q1 0 17.5 9 t18.5 13h-4h-3v-0.5v-0.5q-4 -2 -22 -5.5t-18 -5.5q-9 0 -19 -2.5t-19 -4.5v-2v-1q-12 -4 -29.5 -7t-31.5 1v1v1q-9 0 -22.5 4.5t-11.5 13.5q-13 0 -7 0h6q3 15 38 46t75.5 63t75.5 56t39 25q0 1 0.5 3t0.5 3h3.5h4.5q0 6 -2 11h-3h-2q0 2 1 3t1 3l1.5 1t4.5 1v-1v-1h0.5 h1.5q0 11 27.5 18t31.5 -5h-1.5h-0.5v-4.5v-3.5q-15 0 -24.5 -13.5t-19.5 -13.5v-1.5v-0.5q-3 0 -4 -1l-0.5 -1.5l-0.5 -1.5q-2 0 -25 -16.5t-50 -37t-49 -39t-22 -23.5q-1 0 -2 1l-1 1v2v3h-1h-1v-4.5v-4.5q-7 -4 -8 -3q-1 -2 -4 -3v-0.5t1 -0.5q-15 -7 -22 -20t-19 -20 v-1.5v-0.5q-4 -2 -5 -4.5t-3 -5.5q-6 -9 10.5 -10l16.5 -1q19 2 43.5 9.5t41.5 14.5q6 6 10 2v1v2h3h4v2v1q8 1 16.5 3t17.5 3v0.5v1.5q9 0 16 4t16 6q0 1 1 3q16 1 16 -10h0.5h1.5q0 -11 -3 -17h-1h-1q-5 -12 -29.5 -18.5t-27.5 -16.5q-4 -1 -5.5 -1.5t-4.5 -0.5v-1.5v-1.5 h-3h-1v-2v-1h-3.5h-2.5l0.5 -0.5t0.5 -1.5q-10 -6 -15 -10t-14 -9v-1v-1q-3 0 -5.5 -0.5t-4.5 -0.5v-2v-3h-1h-1q-2 -3 -12 -10t-13 -8v-0.5v-0.5q-3 0 -5 -2v-2.5v-3.5q-11 0 -26 -16t-27 -23v-1v-2h-1.5h-1.5v-0.5v-0.5q-3 0 -6.5 -4t-3.5 -7h-2h-1v-2v-2h-2.5h-1.5 q-1 -3 -6 -10h-2h-1q-3 -5 -8 -9t-5 -7h-1.5h-1.5q-4 -11 -22 -27t-15 -30h-1h-1q6 -23 28 -18v1t-1 2h2h2q0 -3 1 -3q4 -1 12 -1v1.5v1.5q7 1 21 1v0.5v1.5q8 -1 33 6.5t52.5 16.5t49 17.5t22.5 11.5q3 0 6 0.5t7 1.5q0 1 0.5 2t0.5 3q5 0 8 -1v-0.5v-0.5h1h2v0.5v0.5 q2 1 5 1v3v4q1 -2 13 2t26 9t25.5 9.5t12.5 4.5v1v1h2h3q1 1 4.5 1h6.5q1 4 2 4q5 -11 14 -8v1.5v1.5q-9 1 -11 7h1h2v-2v-2h2.5h3.5q0 3 2 4q1 1 2 0q-2 -2 -2 -6h0.5h1.5q0 -3 0.5 -4.5t0.5 -3.5h-3h-3v-0.5v-0.5q-3 -1 -5 -1.5t-5 -0.5q-2 -4 -7.5 -3.5t-5.5 -4.5 q-18 0 -38 -12t-35 -15q2 -3 -3.5 -3.5t-8.5 -1.5q-3 -3 -7 -3.5t-7 -2.5v-0.5v-0.5q-3 -1 -5.5 -1.5t-5.5 -0.5v-1.5v-1.5q-2 1 -8 1v-1.5v-0.5q-27 -12 -79 -34.5t-92 -21.5q-2 -1 -2 -2h-11t-7 -3zM213 486q-1 0 -3 1q-4 11 4 16q4 3 13.5 6t18.5 8q27 15 48 25h1.5h1.5 q0 -2 0.5 -2h0.5h1h3q7 3 12 -1q-2 0 -4 -2l-0.5 -1.5l-0.5 -1.5q-3 -1 -7.5 -2t-6.5 -2q0 -3 -3 -6q-2 -1 -9 -1q0 -2 1 -4l-4 -2t-3 -1q-13 -8 -29.5 -19.5t-24.5 -10.5v-0.5v-0.5q-1 -1 -5 -1q-5 0 -5 2z" />
<glyph unicode="&#xca;" horiz-adv-x="297" d="M-11 -19q-13 3 -24 7t-23 7v2v2q-5 1 -9 9.5t2 17.5q4 2 7 2q0 3 -0.5 6.5t-0.5 7.5l1 0.5t1 1.5q-2 5 9 16.5t26 24.5t28 25.5t16 19.5q1 2 5 2q0 1 9.5 10t21.5 19t23.5 19t16.5 12v0.5v1.5q3 2 8 2q-1 0 -1 1v1q5 1 14 3q0 4 11 12.5t16 11.5v0.5v2.5q1 0 17.5 9 t18.5 13h-4h-3v-0.5v-0.5q-4 -2 -22 -5.5t-18 -5.5q-9 0 -19 -2.5t-19 -4.5v-2v-1q-12 -4 -29.5 -7t-31.5 1v1v1q-9 0 -22.5 4.5t-11.5 13.5q-13 0 -7 0h6q3 15 38 46t75.5 63t75.5 56t39 25q0 1 0.5 3t0.5 3h3.5h4.5q0 6 -2 11h-3h-2q0 2 1 3t1 3l1.5 1t4.5 1v-1v-1h0.5 h1.5q0 11 27.5 18t31.5 -5h-1.5h-0.5v-4.5v-3.5q-15 0 -24.5 -13.5t-19.5 -13.5v-1.5v-0.5q-3 0 -4 -1l-0.5 -1.5l-0.5 -1.5q-2 0 -25 -16.5t-50 -37t-49 -39t-22 -23.5q-1 0 -2 1l-1 1v2v3h-1h-1v-4.5v-4.5q-7 -4 -8 -3q-1 -2 -4 -3v-0.5t1 -0.5q-15 -7 -22 -20t-19 -20 v-1.5v-0.5q-4 -2 -5 -4.5t-3 -5.5q-6 -9 10.5 -10l16.5 -1q19 2 43.5 9.5t41.5 14.5q6 6 10 2v1v2h3h3v2v1q9 1 17.5 3t17.5 3v0.5v1.5q9 0 16 4t16 6q0 1 1 3q16 1 16 -10h0.5h1.5q0 -8 -3 -17h-1h-1q-5 -12 -29.5 -18.5t-27.5 -16.5q-7 -1 -10 -2v-1.5v-1.5h-3h-1v-2v-1 h-3.5h-2.5l0.5 -0.5t0.5 -1.5q-10 -6 -15 -10t-14 -9v-1v-1q-3 0 -5.5 -0.5t-4.5 -0.5v-2v-3h-1h-1q-2 -3 -12 -10t-13 -8v-0.5v-0.5q-3 0 -5 -2q0 -3 -2 -6q-9 0 -24 -16t-27 -23v-1v-2h-1.5h-1.5v-0.5v-0.5q-3 0 -6.5 -4t-3.5 -7h-2h-1v-2v-2h-3.5h-0.5q-1 -3 -6 -10h-2 h-1q-3 -5 -8 -9t-5 -7h-1.5h-1.5q-4 -11 -22 -27t-15 -30h-1h-2q7 -23 29 -18v1t-1 2h2h2q0 -3 1 -3q4 -1 12 -1v1.5v1.5q7 1 21 1v0.5v1.5q8 -1 33 6.5t52.5 16.5t49 17.5t22.5 11.5q3 0 6 0.5t7 1.5q0 1 0.5 2t0.5 3q5 0 8 -1v-0.5v-0.5h1h2v0.5v0.5q2 1 5 1v3v4 q1 -2 13 2t26 9t25.5 9.5t12.5 4.5v1v1h2h3q1 1 11 1q1 4 2 4q5 -11 14 -8v1.5v1.5q-9 1 -11 7h1h2v-2v-2h2.5h3.5q0 3 2 4q1 1 2 0q-2 -2 -2 -6h0.5h1.5q0 -3 0.5 -4.5t0.5 -3.5h-3h-3v-0.5v-0.5q-3 -1 -5 -1.5t-5 -0.5q-2 -4 -7.5 -3.5t-5.5 -4.5q-18 0 -38 -12t-35 -15 q2 -3 -3.5 -3.5t-8.5 -1.5q-3 -3 -7 -3.5t-7 -2.5v-0.5v-0.5q-3 -1 -5.5 -1.5t-5.5 -0.5v-1.5v-1.5q-3 1 -8 1v-1.5v-0.5q-27 -12 -79 -34.5t-92 -21.5q-2 -1 -2 -2h-11t-7 -3zM122 486q-1 0 -1 1q-5 11 1 16q4 3 11 6t15 8t16 10.5t16 10.5q2 6 7 4v0h1v0v0q4 -3 10.5 -8.5 t14.5 -9.5q9 -6 18.5 -11t18.5 -11q1 -1 1 -2v-0.5v-1.5q1 -1 3 -2q4 -4 4 -11l-2 2q-1 -1 -2 -1q-3 0 -6 4t-3 5q-5 -5 -6 -1l-1 1l-3 3l-2 -2q-4 2 -5 2q-12 6 -27.5 11.5t-18.5 13.5q-4 -4 -10 -7q-10 -8 -23.5 -19.5t-19.5 -10.5v-0.5v-0.5q0 -1 -3 -1q-4 0 -4 2z" />
<glyph unicode="&#xcb;" horiz-adv-x="297" d="M-13 -19q-12 3 -23.5 7t-22.5 7v2v2q-6 1 -10 9.5t2 17.5q6 2 8 2q0 3 -1 6.5t-1 7.5l2 0.5t2 1.5q-2 5 9 16.5t25.5 24.5t27.5 25.5t16 19.5q1 2 5 2q0 1 9.5 10t21.5 19t23.5 19t16.5 12v0.5v1.5q3 2 8 2q-2 0 -2 1v1q3 0 5 0.5l10 2.5q0 4 11 12.5t16 11.5v0.5v2.5 l16.5 9t19.5 13h-4.5h-2.5v-0.5v-0.5q-4 -2 -22 -5.5t-18 -5.5q-9 0 -19 -2.5t-19 -4.5v-2v-1q-12 -4 -29.5 -7t-32.5 1v1v1q-9 0 -22.5 4.5t-10.5 13.5q-13 0 -7 0h6q3 15 38 46t75.5 63t75.5 56t39 25q0 1 0.5 3t0.5 3h3h4q0 6 -1 11h-3h-2q0 2 0.5 3t0.5 3q2 0 3 1t4 1 v-1v-1h0.5h1.5q0 11 27.5 18t31.5 -5h-1.5h-0.5v-4.5v-3.5q-15 0 -24.5 -13.5t-20.5 -13.5v-1.5v-0.5q-2 0 -3 -1l-1 -1.5l-1 -1.5q-1 0 -24 -16.5t-50 -37t-49 -39t-22 -23.5q-1 0 -2 1t-2 1v2v3h-0.5h-0.5v-4.5v-4.5q-7 -4 -8 -3q-2 -2 -4 -3v-0.5t1 -0.5q-15 -7 -22 -20 t-20 -20v-1.5v-0.5q-4 -2 -5 -4.5t-2 -5.5q-6 -9 10.5 -10l16.5 -1q19 2 43.5 9.5t41.5 14.5q4 7 10 2v1v2h3h4v2v1q8 1 16.5 3t18.5 3v0.5v1.5q8 0 14.5 4t15.5 6q0 1 2 3q16 1 16 -10h0.5h1.5q0 -11 -4 -17h-0.5h-0.5q-5 -12 -30 -18.5t-28 -16.5q-4 -1 -5.5 -1.5 t-4.5 -0.5v-1.5v-1.5h-2h-1v-2v-1h-4h-2l0.5 -0.5t0.5 -1.5q-11 -6 -16 -10t-14 -9v-1v-1q-2 0 -4.5 -0.5t-3.5 -0.5v-2v-3h-2.5h-0.5q-2 -3 -12.5 -10t-13.5 -8v-0.5v-0.5q-2 0 -5 -2v-2.5v-3.5q-10 0 -25 -16t-27 -23v-1v-2h-2.5h-0.5v-0.5v-0.5q-10 0 -10 -11h-2h-1v-2 v-2h-3h-1q-1 -3 -6 -10h-2.5h-0.5q-3 -5 -8 -9t-5 -7h-2.5h-0.5q-4 -11 -22 -27t-15 -30h-1h-1q5 -23 28 -18v1t-1 2h2h1q0 -1 1 -2l1 -1q3 -1 12 -1v1.5v1.5q6 1 21 1v0.5v1.5q8 -1 33 6.5t52 16.5t48.5 17.5t22.5 11.5q3 0 6.5 0.5t7.5 1.5q0 1 0.5 2t0.5 3q5 0 8 -1v-0.5 v-0.5h1h2v0.5v0.5q1 1 5 1v3v4q1 -2 13 2t26 9t25 9.5t12 4.5v1v1h3h2q2 1 5.5 1h5.5q2 4 3 4q5 -11 13 -8v1.5v1.5q-8 2 -11 7h2h2v-2v-2h2h4q0 3 1 4q2 1 3 0q-3 -3 -3 -6h1h2q0 -3 0.5 -4.5t0.5 -3.5h-3.5h-2.5v-0.5v-0.5q-3 -1 -5 -1.5t-5 -0.5q-2 -4 -7.5 -3.5 t-5.5 -4.5q-18 0 -38 -12t-35 -15q1 -3 -4.5 -3.5t-7.5 -1.5q-3 -3 -7 -3.5t-7 -2.5v-0.5v-0.5q-3 -1 -5.5 -1.5t-5.5 -0.5v-1.5v-1.5q-2 1 -9 1v-1.5v-0.5q-27 -12 -78.5 -34.5t-92.5 -21.5q-1 -1 -1 -2h-11t-8 -3zM263 500h3.5t1.5 0h-4.5t-2.5 1q-3 1 -3.5 12t8.5 16h7 v1.5t1 1.5h5q2 -3 4.5 -3t4.5 -1q5 -2 7 -9q0 -2 -0.5 -3t0.5 -4l-0.5 -0.5l-0.5 -0.5q-1 -10 -1 -9t-3 -2q-6 -8 -18 -5q-4 0 -6.5 2.5zM186 500h2.5h2.5h-5t-3 1q-3 1 -3.5 12t8.5 16h8l0.5 1.5l0.5 1.5h5q1 -3 3.5 -3t4.5 -1q6 -2 8 -9q0 -2 -0.5 -3t0.5 -4l-0.5 -0.5 l-0.5 -0.5q-2 -10 -1.5 -9t-2.5 -2q-7 -7 -19 -5q-3 0 -5.5 2.5z" />
<glyph unicode="&#xcc;" horiz-adv-x="297" d="M87 -19q4 12 2 19q4 3 2.5 9t2.5 9h-3.5h-1.5q0 3 1 6t1 4q-2 -2 -10 -2q-2 -5 -5 -4.5t-6 0.5q-2 -4 -13.5 -8t-15.5 -4q-2 -1 -2 -2v-1q-11 -2 -21 -4t-21 -2v1.5v2.5q-7 1 -4.5 8t2.5 13l0.5 0.5l0.5 0.5v1.5v3.5q15 3 36 3.5t33 12.5q8 4 16 6q12 0 14.5 4.5t9.5 9.5 q0 9 11.5 34.5t9.5 32.5q5 3 4.5 10t4.5 10q-2 2 -2 4q0 3 2 3q14 42 30.5 76.5t38.5 118.5q-2 1 -8 1q0 13 -12 13.5t-26.5 -5t-26.5 -12.5t-13 -8q-6 -2 -17.5 -6t-20.5 -5.5t-12.5 3t6.5 20.5q5 0 8 5q2 -3 6.5 -2t7.5 2q0 2 24.5 11t30.5 10v-2v-2q4 3 9 3v2v4h1h4 q0 -3 16.5 4.5t30.5 10.5q1 5 3 11t8 8q0 2 0.5 4t0.5 5q5 1 5 6q2 0 4 -1q6 8 11.5 -3t5.5 -16q12 3 25 7t28 7q11 0 13 5q24 0 44 1t7 -26q-9 -17 -17 -23v-1t1 -3q-6 -1 -10 -6h-2.5h-1.5l-0.5 1.5t-0.5 2.5q-1 0 -3 0.5l-2 0.5q0 10 6 14q-1 1 -1 4q7 2 6 14 q-12 6 -51 -4.5t-44 -11.5l-5 -16q-1 -1 -1.5 -1h-0.5q0 -7 -3 -14t-1 -11q-2 0 -3 -1q-8 -29 -22 -55t-19 -53h-3h-2q0 -20 -17 -45.5t-17 -47.5q-4 -2 -5 -7h-2.5h-0.5q-1 -2 -6 -11q3 -3 2 -5t1 -5q-2 0 -2.5 0.5l-0.5 0.5q-2 -10 -9 -28.5t-7 -27.5q-5 -2 -6 -4 q1 0 2 -1q0 -2 -5 -4q0 -1 14 1q1 2 6 4q0 1 12.5 3.5t28.5 4.5t30.5 3.5t18.5 1.5v-0.5t1 -0.5v0.5t1 0.5q2 -1 3.5 -1.5t4.5 -0.5q0 -7 4 -9q-3 -8 -4 -14q-6 -2 -11 -5t-9 -4q-18 1 -43 0.5t-38 -9.5q-6 -1 -12.5 -2.5t-10.5 -4.5q0 -5 -1.5 -9.5t-1.5 -8.5q-2 0 -4 -2 q-1 -5 -5 -14t-7 -11q1 -1 1 -3q-2 -3 -5 -3zM246 486q0 -2 -4 -2q-3 0 -3 1q-1 0 -1 0.5v0.5q-9 -1 -26.5 10.5t-29.5 19.5l-6 3v2v2q-6 0 -9 1q-2 4 -2 6q-3 1 -7.5 2t-6.5 2q-1 0 -1.5 1.5l-0.5 1.5q-2 2 -4 2q5 5 13 1h1h2t1 2h1.5h1.5q12 -6 24 -12.5t25 -12.5 q10 -5 18 -8t14 -6q6 -4 3 -16q0 -1 -3 -1zM128 105q1 0 2 6q-1 0 -1.5 -0.5l-0.5 -0.5v-5zM146 156q1 0 2 1t2 1v1.5v2.5h-2h-2v-3v-3z" />
<glyph unicode="&#xcd;" horiz-adv-x="297" d="M87 -19q4 12 2 19q4 3 2.5 9t2.5 9h-3.5h-1.5q0 3 1 6t1 4q-2 -2 -10 -2q-2 -5 -5 -4.5t-6 0.5q-2 -4 -13.5 -8t-15.5 -4q-2 -1 -2 -2v-1q-11 -2 -21 -4t-21 -2v1.5v2.5q-7 1 -4.5 8t2.5 13l0.5 0.5l0.5 0.5v1.5v3.5q15 3 36 3.5t33 12.5q8 4 16 6q12 0 14.5 4.5t9.5 9.5 q0 9 11.5 34.5t9.5 32.5q5 3 4.5 10t4.5 10q-2 2 -2 4q0 3 2 3q14 42 30.5 76.5t38.5 118.5q-2 1 -8 1q0 13 -12 13.5t-26.5 -5t-26.5 -12.5t-13 -8q-6 -2 -17.5 -6t-20.5 -5.5t-12.5 3t6.5 20.5q5 0 8 5q2 -3 6.5 -2t7.5 2q0 2 24.5 11t30.5 10v-2v-2q4 3 9 3v2v4h1h4 q0 -3 16.5 4.5t30.5 10.5q1 5 3 11t8 8q0 2 0.5 4t0.5 5q5 1 5 6q2 0 4 -1q6 8 11.5 -3t5.5 -16q12 3 25 7t28 7q11 0 13 5q24 0 44 1t7 -26q-9 -17 -17 -23v-1t1 -3q-6 -1 -10 -6h-2.5h-1.5l-0.5 1.5t-0.5 2.5q-1 0 -3 0.5l-2 0.5q0 10 6 14q-1 1 -1 4q7 2 6 14 q-12 6 -51 -4.5t-44 -11.5l-5 -16q-1 -1 -1.5 -1h-0.5q0 -7 -3 -14t-1 -11q-2 0 -3 -1q-8 -29 -22 -55t-19 -53h-3h-2q0 -20 -17 -45.5t-17 -47.5q-4 -2 -5 -7h-2.5h-0.5q-1 -2 -6 -11q3 -3 2 -5t1 -5q-2 0 -2.5 0.5l-0.5 0.5q-2 -10 -9 -28.5t-7 -27.5q-5 -2 -6 -4 q1 0 2 -1q0 -2 -5 -4q0 -1 14 1q1 2 6 4q0 1 12.5 3.5t28.5 4.5t30.5 3.5t18.5 1.5v-0.5t1 -0.5v0.5t1 0.5q2 -1 3.5 -1.5t4.5 -0.5q0 -7 4 -9q-3 -8 -4 -14q-6 -2 -11 -5t-9 -4q-18 1 -43 0.5t-38 -9.5q-6 -1 -12.5 -2.5t-10.5 -4.5q0 -5 -1.5 -9.5t-1.5 -8.5q-2 0 -4 -2 q-1 -5 -5 -14t-7 -11q1 -1 1 -3q-2 -3 -5 -3zM236 486q-1 0 -2 1q-3 8 -1.5 10.5t5.5 5.5q3 3 12 6t20 8q27 15 48 25h1h1q0 -2 1 -2h1.5h2.5q8 3 12 -1q-1 0 -3 -2l-0.5 -1.5t-1.5 -1.5q-3 -1 -7.5 -2t-5.5 -2q-3 -5 -4 -6t-9 -1q0 -2 2 -4q-3 -1 -4.5 -2t-3.5 -1 q-13 -8 -30 -19.5t-25 -10.5v-0.5v-0.5q-1 -1 -5 -1t-4 2zM128 105q1 0 2 6q-1 0 -1.5 -0.5l-0.5 -0.5v-5zM146 156q1 0 2 1t2 1v1.5v2.5h-2h-2v-3v-3z" />
<glyph unicode="&#xce;" horiz-adv-x="297" d="M87 -19q4 12 2 19q4 3 2.5 9t2.5 9h-3.5h-1.5q0 3 1 6t1 4q-2 -2 -10 -2q-2 -5 -5 -4.5t-6 0.5q-2 -4 -13.5 -8t-15.5 -4q-2 -1 -2 -2v-1q-11 -2 -21 -4t-21 -2v1.5v2.5q-7 1 -4.5 8t2.5 13l0.5 0.5l0.5 0.5v1.5v3.5q15 3 36 3.5t33 12.5q8 4 16 6q12 0 14.5 4.5t9.5 9.5 q0 9 11.5 34.5t9.5 32.5q5 3 4.5 10t4.5 10q-2 2 -2 4q0 3 2 3q14 42 30.5 76.5t38.5 118.5q-2 1 -8 1q0 13 -12 13.5t-26.5 -5t-26.5 -12.5t-13 -8q-6 -2 -17.5 -6t-20.5 -5.5t-12.5 3t6.5 20.5q5 0 8 5q2 -3 6.5 -2t7.5 2q0 2 24.5 11t30.5 10v-2v-2q4 3 9 3v2v4h1h4 q0 -3 16.5 4.5t30.5 10.5q1 5 3 11t8 8q0 2 0.5 4t0.5 5q5 1 5 6q2 0 4 -1q6 8 11.5 -3t5.5 -16q12 3 25 7t28 7q11 0 13 5q24 0 44 1t7 -26q-9 -17 -17 -23v-1t1 -3q-6 -1 -10 -6h-2.5h-1.5l-0.5 1.5t-0.5 2.5q-1 0 -3 0.5l-2 0.5q0 10 6 14q-1 1 -1 4q7 2 6 14 q-12 6 -51 -4.5t-44 -11.5l-5 -16q-1 -1 -1.5 -1h-0.5q0 -7 -3 -14t-1 -11q-2 0 -3 -1q-8 -29 -22 -55t-19 -53h-3h-2q0 -20 -17 -45.5t-17 -47.5q-4 -2 -5 -7h-2.5h-0.5q-1 -2 -6 -11q3 -3 2 -5t1 -5q-2 0 -2.5 0.5l-0.5 0.5q-2 -10 -9 -28.5t-7 -27.5q-5 -2 -6 -4 q1 0 2 -1q0 -2 -5 -4q0 -1 14 1q1 2 6 4q0 1 12.5 3.5t28.5 4.5t30.5 3.5t18.5 1.5v-0.5t1 -0.5v0.5t1 0.5q2 -1 3.5 -1.5t4.5 -0.5q0 -7 4 -9q-3 -8 -4 -14q-6 -2 -11 -5t-9 -4q-18 1 -43 0.5t-38 -9.5q-6 -1 -12.5 -2.5t-10.5 -4.5q0 -5 -1.5 -9.5t-1.5 -8.5q-2 0 -4 -2 q-1 -5 -5 -14t-7 -11q1 -1 1 -3q-2 -3 -5 -3zM174 486q-2 0 -3 1q-3 12 3 16q3 3 10.5 6t14.5 8q8 5 15.5 10.5t15.5 10.5q4 5 9 4v0v0v0v0q3 -3 9 -8.5t15 -9.5q9 -6 19.5 -11t19.5 -11q1 -1 1 -2v-0.5v-1.5l2 -2q5 -4 5 -11l-4 2q0 -1 -2 -1t-4.5 4t-4.5 5q-3 -4 -5 -1 q-2 0 -4 4q-1 0 -3 -2q-2 2 -5 2q-12 6 -26.5 11.5t-17.5 13.5q-3 -2 -5 -4t-5 -3q-11 -8 -24 -19.5t-19 -10.5v-0.5v-0.5q-1 -1 -4 -1t-3 2zM128 105q1 0 2 6q-1 0 -1.5 -0.5l-0.5 -0.5v-5zM146 156q1 0 2 1t2 1v1.5v2.5h-2h-2v-3v-3z" />
<glyph unicode="&#xcf;" horiz-adv-x="297" d="M87 -19q4 12 2 19q4 3 2.5 9t2.5 9h-3.5h-1.5q0 3 1 6t1 4q-2 -2 -10 -2q-2 -5 -5 -4.5t-6 0.5q-2 -4 -13.5 -8t-15.5 -4q-2 -1 -2 -2v-1q-11 -2 -21 -4t-21 -2v1.5v2.5q-7 1 -4.5 8t2.5 13l0.5 0.5l0.5 0.5v1.5v3.5q15 3 36 3.5t33 12.5q8 4 16 6q12 0 14.5 4.5t9.5 9.5 q0 9 11.5 34.5t9.5 32.5q5 3 4.5 10t4.5 10q-2 2 -2 4q0 3 2 3q14 42 30.5 76.5t38.5 118.5q-2 1 -8 1q0 13 -12 13.5t-26.5 -5t-26.5 -12.5t-13 -8q-6 -2 -17.5 -6t-20.5 -5.5t-12.5 3t6.5 20.5q5 0 8 5q2 -3 6.5 -2t7.5 2q0 2 24.5 11t30.5 10v-2v-2q4 3 9 3v2v4h1h4 q0 -3 16.5 4.5t30.5 10.5q1 5 3 11t8 8q0 2 0.5 4t0.5 5q5 1 5 6q2 0 4 -1q6 8 11.5 -3t5.5 -16q12 3 25 7t28 7q11 0 13 5q24 0 44 1t7 -26q-9 -17 -17 -23v-1t1 -3q-6 -1 -10 -6h-2.5h-1.5l-0.5 1.5t-0.5 2.5q-1 0 -3 0.5l-2 0.5q0 10 6 14q-1 1 -1 4q7 2 6 14 q-12 6 -51 -4.5t-44 -11.5l-5 -16q-1 -1 -1.5 -1h-0.5q0 -7 -3 -14t-1 -11q-2 0 -3 -1q-8 -29 -22 -55t-19 -53h-3h-2q0 -20 -17 -45.5t-17 -47.5q-4 -2 -5 -7h-2.5h-0.5q-1 -2 -6 -11q3 -3 2 -5t1 -5q-2 0 -2.5 0.5l-0.5 0.5q-2 -10 -9 -28.5t-7 -27.5q-5 -2 -6 -4 q1 0 2 -1q0 -2 -5 -4q0 -1 14 1q1 2 6 4q0 1 12.5 3.5t28.5 4.5t30.5 3.5t18.5 1.5v-0.5t1 -0.5v0.5t1 0.5q2 -1 3.5 -1.5t4.5 -0.5q0 -7 4 -9q-3 -8 -4 -14q-6 -2 -11 -5t-9 -4q-18 1 -43 0.5t-38 -9.5q-6 -1 -12.5 -2.5t-10.5 -4.5q0 -5 -1.5 -9.5t-1.5 -8.5q-2 0 -4 -2 q-1 -5 -5 -14t-7 -11q1 -1 1 -3q-2 -3 -5 -3zM268 500h3h2h-4.5t-2.5 1q-3 1 -3.5 12t8.5 16h7v1.5t1 1.5h5q2 -3 4 -3t5 -1q6 -2 6 -9v-7l-0.5 -0.5l-0.5 -0.5q0 -10 -0.5 -9t-3.5 -2q-6 -7 -17 -5q-4 0 -6.5 2.5zM191 500h2.5h2.5h-5t-3 1q-3 1 -3.5 12t8.5 16h8v1.5 t1 1.5h5q1 -3 3.5 -3t4.5 -1q6 -2 8 -9q0 -2 -0.5 -3t0.5 -4l-0.5 -0.5l-0.5 -0.5q-2 -10 -1.5 -9t-3.5 -2q-6 -7 -18 -5q-4 0 -6 2.5zM128 105q1 0 2 6q-1 0 -1.5 -0.5l-0.5 -0.5v-5zM146 156q1 0 2 1t2 1v1.5v2.5h-2h-2v-3v-3z" />
<glyph unicode="&#xd1;" horiz-adv-x="357" d="M10 0v1v3h0.5h0.5q0 1 -3.5 2t-5.5 3v1v2q-1 0 -2 2v11v5l2 0.5t3 1.5q-3 1 -3 2q0 2 3 2q11 21 23 53q8 20 16 41t15 42q16 51 33 96q5 2 3 15q6 0 6 10t6 13q-1 2 -2 10q1 2 3 3t2 5h-3h-1q0 3 0.5 9.5t4.5 8.5q0 6 2 14.5t8 13.5h-2.5h-0.5q0 10 4 26.5t1 25.5 q0 4 2.5 8.5t4.5 7.5q6 9 15 8q13 0 21 -14l-1 -0.5l-1 -0.5q0 -3 -1.5 -7t-0.5 -7h-2h-1v-1.5v-0.5h-2h-1q1 -12 -7.5 -28t-2.5 -26q-3 -2 -2.5 -6t0.5 -7q0 -1 2 -1q-3 -6 -3 -5q5 -11 3 -16l3 -2q-1 0 -4 -3q0 -10 3 -34.5t9 -53t13.5 -55t16.5 -40.5h1.5h3.5 q3 -12 4.5 -13t-4.5 -15q12 4 15 -7t5 -11q0 6 2.5 12t2.5 12q6 2 10 19t4 26q3 0 8 3q-3 2 0 13.5t8 24t10 23t6 11.5q-6 8 4 10q-1 2 3 9.5t7 9.5q0 6 -2 4.5t3 4.5q-5 3 -1 6t7 4q-6 7 0.5 17.5t5.5 19.5q5 5 4 10q12 6 15.5 32.5t10.5 29.5q10 17 8.5 26t5.5 14 q-3 6 1.5 7.5t4.5 5.5h-1.5t-1.5 1q0 4 2.5 10.5t3.5 10.5q3 1 2 10q3 0 8.5 3.5t8.5 -1.5q6 0 8 -12q-1 0 -2 -2q0 -1 0.5 -2t0.5 -2q-3 0 -6 -3q1 -1 1 -2l1 -0.5t1 -1.5q-3 0 -4 -1q0 -2 1 -4q-2 -5 -9.5 -25t-5.5 -23q-8 0 -6 -6.5t-4 -11.5q3 -3 3 -7q-1 -2 -4 -2 q-3 -7 -8.5 -27t-10.5 -23q1 -7 -5 -7q-4 -8 0 -12t-8 -7q-1 -8 -5 -16t-5 -15q-1 0 -2 -0.5l-1 -0.5q-3 -19 -13 -35.5t-11 -34.5q-2 0 -2 -1q-1 -6 -7 -23.5t7 3.5q3 -16 -9 -21t-10 -18q9 9 5 -1.5t-5 -13.5q0 -3 2 -4q-4 -5 -11 -28.5t1 -29.5q1 -5 0 -8q0 -14 -4 -20.5 t-18 -9.5h-7.5h-6.5q-2 4 -4.5 8t-4.5 9q4 4 4 11q-9 -1 -22 30t-15 42q-3 1 -5.5 5.5t0.5 7.5q-5 7 -11.5 27t-12 43t-9 44.5t-1.5 31.5l0.5 0.5t1.5 0.5q-1 0 -2 1q-6 -5 -11 -23.5t-8 -25.5v-0.5t2 -0.5q-4 -8 -7 -19.5t-9 -11.5q0 -6 -3 -11.5t-6 -10.5q-2 -4 -2 -7 t-3 -3q-5 -12 -4 -15q4 -2 5 -2v-1v-1l-1.5 -1.5l-0.5 -0.5q0 -3 1 -5h-1.5h-0.5q-9 -24 -20 -50.5t-12 -50.5q-2 0 -3 -0.5l-1 -0.5v-2v-1q4 -1 4 -3q-8 -10 -8 -22q-1 -2 -3 -2q-2 -5 -9 -8.5t-11 -3.5zM263 462q-11 0 -19 10.5t-16 23.5q-10 9 -11 10q-17 2 -20 -15 q3 -12 -7.5 -17.5t-18.5 0.5q1 1 0 5l1.5 0.5l1.5 0.5l-1 1t-1 3q-1 7 7.5 17t18.5 15q19 8 37 -5q4 -6 14 -19.5t23 -13.5q15 -2 29 12t17 29q12 6 14 -7h-1.5h-0.5q-12 -29 -28 -39t-39 -11zM271 186v2v3h0.5h0.5v-2.5v-2.5h-0.5h-0.5zM282 219q0 7 1.5 10t5.5 9 q-1 -6 -3 -9t-2 -7q1 0 -2 -3zM288 239l-0.5 0.5t-0.5 1.5q2 3 4 6.5t4 4.5q0 -12 -7 -13zM306 294q-1 6 3 1.5t-3 -1.5z" />
<glyph unicode="&#xd2;" d="M98 -13q-33 0 -63.5 20.5t-33.5 62.5q3 0 -5 21.5t-1 32.5q0 1 -1.5 1.5t-2.5 1.5q1 7 0 15q1 1 5 1q-1 8 1.5 42.5t13.5 34.5q3 12 6 23t14 17q0 5 -3 10q-2 0 8 16.5t17 22.5l1 0.5t3 0.5q-4 3 -4 8q1 0 3 1.5t4 2.5q-1 2 -1 3q2 5 14.5 18t18.5 15v1.5v2.5h-2h-1 q1 2 1 6h2.5h2.5v0v1h3h4q7 3 20.5 13.5t19.5 13.5q0 4 12 4v0.5v1.5q3 1 5 4t5 4q16 12 31.5 20t30.5 9q-1 1 10 0.5t24.5 -4t25.5 -10t13 -16.5q5 0 8 -13t5.5 -28.5t3.5 -30t2 -18.5q-1 -1 -8 -5q2 -3 4 -5t5 -4q-7 -7 -8 -7v-0.5t2 -0.5h1.5h3.5q0 -3 -4 -8q0 -1 4 -1 q-2 -2 -2 -5h-1.5h-0.5q-1 -2 1 -9q-5 -24 -12 -61.5t-18.5 -75t-28.5 -68.5t-42 -43q-1 -4 -10 -4q-4 -12 -23 -18t-31 -10v-1t1 -2q-13 0 -26 -2t-27 -2zM197 486q0 -2 -4 -2q-5 0 -5 1q-1 0 -1 0.5v0.5q-9 -1 -26 10.5t-29 19.5l-6 3v2v2q-7 0 -9 1l-3 6q-3 1 -7.5 2 t-5.5 2q-1 0 -2 1.5l-1 1.5q-2 2 -3 2q3 5 12 1h1.5h2.5t2 2v0h1q12 -6 24 -12.5t26 -12.5q9 -5 18 -8t15 -6q6 -4 2 -16q0 -1 -2 -1zM92 15q8 0 29 3t29 9l0.5 -0.5l0.5 -0.5q36 11 59 31.5t41 63.5q9 20 14.5 47.5t8.5 40.5q-2 2 -1.5 6t0.5 7h1.5h2.5v4.5t4 3.5v13v7h1h2 q0 8 -1 10q2 4 6 6q-1 2 -1 6h1h3q0 4 -4 5q1 1 2 1q0 3 -0.5 4t-0.5 4q3 0 4 1q0 1 -2 4t-2 7q-1 -1 5 2q0 1 -0.5 2.5t-0.5 2.5q-1 0 -2.5 0.5l-1.5 0.5q3 7 2.5 22t-4.5 22q1 50 -30 65q-18 7 -37.5 0.5t-25.5 -13.5v-1.5v-0.5q-19 -5 -53.5 -38t-34.5 -58q-1 1 -4 1 q-3 -6 -5.5 -10.5t-2.5 -11.5h-4h-1q0 -13 -14 -13l-0.5 0.5l-0.5 0.5q4 2 6 2v1.5v2.5q-9 -3 -10 -5.5t-2 -11.5h-3h-1q0 -3 0.5 -4.5t1.5 -3.5h2h1v-7q-5 -1 -10 0q3 5 3 17q4 2 4 10q-1 1 -3 1q-3 -9 -11 -29t-14 -24q0 -2 0.5 -3t0.5 -3q-1 0 -2 -1q0 -1 -0.5 -3 l-0.5 -2q-2 0 -3 -1q1 -1 0 -9q-27 -96 -2.5 -133.5t61.5 -49.5zM73 286q2 0 3 1q1 2 1.5 5.5t-3.5 2.5l0.5 -1l0.5 -1q-1 -1 -2 -3t-2 -2q0 -1 2 -2z" />
<glyph unicode="&#xd3;" d="M98 -13q-33 0 -63.5 20.5t-33.5 62.5q3 0 -5 21.5t-1 32.5q0 1 -1.5 1.5t-2.5 1.5q1 7 0 15q1 1 5 1q-1 8 1.5 42.5t13.5 34.5q3 12 6 23t14 17q0 5 -3 10q-2 0 8 16.5t17 22.5l1 0.5t3 0.5q-4 3 -4 8q1 0 3 1.5t4 2.5q-1 2 -1 3q2 5 14.5 18t18.5 15v1.5v2.5h-2h-1 q1 2 1 6h2.5h2.5v0v1h3h4q7 3 20.5 13.5t19.5 13.5q0 4 12 4v0.5v1.5q3 1 5 4t5 4q16 12 31.5 20t30.5 9q-1 1 10 0.5t24.5 -4t25.5 -10t13 -16.5q5 0 8 -13t5.5 -28.5t3.5 -30t2 -18.5q-1 -1 -8 -5q2 -3 4 -5t5 -4q-7 -7 -8 -7v-0.5t2 -0.5h1.5h3.5q0 -3 -4 -8q0 -1 4 -1 q-2 -2 -2 -5h-1.5h-0.5q-1 -2 1 -9q-5 -24 -12 -61.5t-18.5 -75t-28.5 -68.5t-42 -43q-1 -4 -10 -4q-4 -12 -23 -18t-31 -10v-1t1 -2q-13 0 -26 -2t-27 -2zM250 486q-1 0 -3 1q-4 11 4 16q4 3 13.5 6t19.5 8q12 6 24.5 12.5t23.5 12.5h2h1q0 -2 1 -2h1h3q7 3 12 -1l-4 -2 l-0.5 -1.5l-0.5 -1.5q-3 -1 -7.5 -2t-5.5 -2q-2 -2 -2.5 -3.5t-1.5 -2.5t-9 -1q0 -2 1 -4q-4 -2 -7 -3q-13 -8 -30 -19.5t-25 -10.5v-0.5v-0.5q-2 -1 -5 -1q-5 0 -5 2zM92 15q8 0 29 3t29 9l0.5 -0.5l0.5 -0.5q36 11 59 31.5t41 63.5q9 20 14.5 47.5t8.5 40.5q-2 2 -1.5 6 t0.5 7h1.5h2.5v4.5t4 3.5v13v7h1h2q0 8 -1 10q2 4 6 6q-1 2 -1 6h1h3q0 4 -4 5q1 1 2 1q0 3 -0.5 4t-0.5 4q3 0 4 1q0 1 -2 4t-2 7q-1 -1 5 2q0 1 -0.5 2.5t-0.5 2.5q-1 0 -2.5 0.5l-1.5 0.5q3 7 2.5 22t-4.5 22q1 50 -30 65q-18 7 -37.5 0.5t-25.5 -13.5v-1.5v-0.5 q-19 -5 -53.5 -38t-34.5 -58q-1 1 -4 1q-3 -6 -5.5 -10.5t-2.5 -11.5h-4h-1q0 -13 -14 -13l-0.5 0.5l-0.5 0.5q4 2 6 2v1.5v2.5q-9 -3 -10 -5.5t-2 -11.5h-3h-1q0 -3 0.5 -4.5t1.5 -3.5h2h1v-7q-5 -1 -10 0q3 5 3 17q4 2 4 10q-1 1 -3 1q-3 -9 -11 -29t-14 -24q0 -2 0.5 -3 t0.5 -3q-1 0 -2 -1q0 -1 -0.5 -3l-0.5 -2q-2 0 -3 -1q1 -1 0 -9q-27 -96 -2.5 -133.5t61.5 -49.5zM73 286q2 0 3 1q1 2 1.5 5.5t-3.5 2.5l0.5 -1l0.5 -1q-1 -1 -2 -3t-2 -2q0 -1 2 -2z" />
<glyph unicode="&#xd4;" d="M98 -13q-33 0 -63.5 20.5t-33.5 62.5q3 0 -5 21.5t-1 32.5q0 1 -1.5 1.5t-2.5 1.5q1 7 0 15q1 1 5 1q-1 8 1.5 42.5t13.5 34.5q3 12 6 23t14 17q0 5 -3 10q-2 0 8 16.5t17 22.5l1 0.5t3 0.5q-4 3 -4 8q1 0 3 1.5t4 2.5q-1 2 -1 3q2 5 14.5 18t18.5 15v1.5v2.5h-2h-1 q1 2 1 6h2.5h2.5v0v1h3h4q7 3 20.5 13.5t19.5 13.5q0 4 12 4v0.5v1.5q3 1 5 4t5 4q16 12 31.5 20t30.5 9q-1 1 10 0.5t24.5 -4t25.5 -10t13 -16.5q5 0 8 -13t5.5 -28.5t3.5 -30t2 -18.5q-1 -1 -8 -5q2 -3 4 -5t5 -4q-7 -7 -8 -7v-0.5t2 -0.5h1.5h3.5q0 -3 -4 -8q0 -1 4 -1 q-2 -2 -2 -5h-1.5h-0.5q-1 -2 1 -9q-5 -24 -12 -61.5t-18.5 -75t-28.5 -68.5t-42 -43q-1 -4 -10 -4q-4 -12 -23 -18t-31 -10v-1t1 -2q-13 0 -26 -2t-27 -2zM167 486q-1 0 -2 1q-3 8 -2 10.5t4 5.5t10 6t16 8q7 5 15 10.5t16 10.5q4 5 9 4v0v0v0v0q4 -3 9.5 -8.5t14.5 -9.5 q9 -6 19 -11t19 -11v-1.5v-0.5v-0.5t2 -1.5q0 -1 0.5 -1.5l0.5 -0.5q6 -3 6 -11l-4 2q0 -1 -2 -1q-3 0 -6 4t-3 5q-3 -4 -5 -1l-6 4l-0.5 -1l-0.5 -1l-6 2q-11 6 -25.5 11.5t-17.5 13.5q-6 -3 -10 -7q-11 -8 -24 -19.5t-19 -10.5v-0.5v-0.5q-1 -1 -5 -1q-3 0 -3 2zM92 15 q8 0 29 3t29 9l0.5 -0.5l0.5 -0.5q36 11 59 31.5t41 63.5q9 20 14.5 47.5t8.5 40.5q-2 2 -1.5 6t0.5 7h1.5h2.5v4.5t4 3.5v13v7h1h2q0 8 -1 10q2 4 6 6q-1 2 -1 6h1h3q0 4 -4 5q1 1 2 1q0 3 -0.5 4t-0.5 4q3 0 4 1q0 1 -2 4t-2 7q-1 -1 5 2q0 1 -0.5 2.5t-0.5 2.5 q-1 0 -2.5 0.5l-1.5 0.5q3 7 2.5 22t-4.5 22q1 50 -30 65q-18 7 -37.5 0.5t-25.5 -13.5v-1.5v-0.5q-19 -5 -53.5 -38t-34.5 -58q-1 1 -4 1q-3 -6 -5.5 -10.5t-2.5 -11.5h-4h-1q0 -13 -14 -13l-0.5 0.5l-0.5 0.5q4 2 6 2v1.5v2.5q-9 -3 -10 -5.5t-2 -11.5h-3h-1 q0 -3 0.5 -4.5t1.5 -3.5h2h1v-7q-5 -1 -10 0q3 5 3 17q4 2 4 10q-1 1 -3 1q-3 -9 -11 -29t-14 -24q0 -2 0.5 -3t0.5 -3q-1 0 -2 -1q0 -1 -0.5 -3l-0.5 -2q-2 0 -3 -1q1 -1 0 -9q-27 -96 -2.5 -133.5t61.5 -49.5zM73 286q2 0 3 1q1 2 1.5 5.5t-3.5 2.5l0.5 -1l0.5 -1 q-1 -1 -2 -3t-2 -2q0 -1 2 -2z" />
<glyph unicode="&#xd5;" d="M98 -13q-33 0 -63.5 20.5t-33.5 62.5q3 0 -5 21.5t-1 32.5q0 1 -1.5 1.5t-2.5 1.5q1 7 0 15q1 1 5 1q-1 8 1.5 42.5t13.5 34.5q3 12 6 23t14 17q0 5 -3 10q-2 0 8 16.5t17 22.5l1 0.5t3 0.5q-4 3 -4 8q1 0 3 1.5t4 2.5q-1 2 -1 3q2 5 14.5 18t18.5 15v1.5v2.5h-2h-1 q1 2 1 6h2.5h2.5v0v1h3h4q7 3 20.5 13.5t19.5 13.5q0 4 12 4v0.5v1.5q3 1 5 4t5 4q16 12 31.5 20t30.5 9q-1 1 10 0.5t24.5 -4t25.5 -10t13 -16.5q5 0 8 -13t5.5 -28.5t3.5 -30t2 -18.5q-1 -1 -8 -5q2 -3 4 -5t5 -4q-7 -7 -8 -7v-0.5t2 -0.5h1.5h3.5q0 -3 -4 -8q0 -1 4 -1 q-2 -2 -2 -5h-1.5h-0.5q-1 -2 1 -9q-5 -24 -12 -61.5t-18.5 -75t-28.5 -68.5t-42 -43q-1 -4 -10 -4q-4 -12 -23 -18t-31 -10v-1t1 -2q-13 0 -26 -2t-27 -2zM241 484q-10 0 -18.5 10.5t-16.5 22.5q-6 9 -12 11q-16 2 -19 -15q2 -12 -7.5 -17.5t-18.5 0.5q1 1 1 5h0.5h2.5 q-3 3 -3 5q-1 6 7 16.5t19 15.5q10 4 20.5 2t16.5 -7q5 -6 15 -19.5t23 -13.5q15 -2 28.5 11.5t15.5 28.5q13 6 15 -6h-1.5h-0.5q-12 -29 -28 -39.5t-39 -10.5zM92 15q8 0 29 3t29 9l0.5 -0.5l0.5 -0.5q36 11 59 31.5t41 63.5q9 20 14.5 47.5t8.5 40.5q-2 2 -1.5 6t0.5 7 h1.5h2.5v4.5t4 3.5v13v7h1h2q0 8 -1 10q2 4 6 6q-1 2 -1 6h1h3q0 4 -4 5q1 1 2 1q0 3 -0.5 4t-0.5 4q3 0 4 1q0 1 -2 4t-2 7q-1 -1 5 2q0 1 -0.5 2.5t-0.5 2.5q-1 0 -2.5 0.5l-1.5 0.5q3 7 2.5 22t-4.5 22q1 50 -30 65q-18 7 -37.5 0.5t-25.5 -13.5v-1.5v-0.5 q-19 -5 -53.5 -38t-34.5 -58q-1 1 -4 1q-3 -6 -5.5 -10.5t-2.5 -11.5h-4h-1q0 -13 -14 -13l-0.5 0.5l-0.5 0.5q4 2 6 2v1.5v2.5q-9 -3 -10 -5.5t-2 -11.5h-3h-1q0 -3 0.5 -4.5t1.5 -3.5h2h1v-7q-5 -1 -10 0q3 5 3 17q4 2 4 10q-1 1 -3 1q-3 -9 -11 -29t-14 -24q0 -2 0.5 -3 t0.5 -3q-1 0 -2 -1q0 -1 -0.5 -3l-0.5 -2q-2 0 -3 -1q1 -1 0 -9q-27 -96 -2.5 -133.5t61.5 -49.5zM73 286q2 0 3 1q1 2 1.5 5.5t-3.5 2.5l0.5 -1l0.5 -1q-1 -1 -2 -3t-2 -2q0 -1 2 -2z" />
<glyph unicode="&#xd6;" d="M98 -13q-33 0 -63.5 20.5t-33.5 62.5q3 0 -5 21.5t-1 32.5q0 1 -1.5 1.5t-2.5 1.5q1 7 0 15q1 1 5 1q-1 8 1.5 42.5t13.5 34.5q3 12 6 23t14 17q0 5 -3 10q-2 0 8 16.5t17 22.5l1 0.5t3 0.5q-4 3 -4 8q1 0 3 1.5t4 2.5q-1 2 -1 3q2 5 14.5 18t18.5 15v1.5v2.5h-2h-1 q1 2 1 6h2.5h2.5v0v1h3h4q7 3 20.5 13.5t19.5 13.5q0 4 12 4v0.5v1.5q3 1 5 4t5 4q16 12 31.5 20t30.5 9q-1 1 10 0.5t24.5 -4t25.5 -10t13 -16.5q5 0 8 -13t5.5 -28.5t3.5 -30t2 -18.5q-1 -1 -8 -5q2 -3 4 -5t5 -4q-7 -7 -8 -7v-0.5t2 -0.5h1.5h3.5q0 -3 -4 -8q0 -1 4 -1 q-2 -2 -2 -5h-1.5h-0.5q-1 -2 1 -9q-5 -24 -12 -61.5t-18.5 -75t-28.5 -68.5t-42 -43q-1 -4 -10 -4q-4 -12 -23 -18t-31 -10v-1t1 -2q-13 0 -26 -2t-27 -2zM262 500h2.5h2.5h-4.5t-2.5 1q-3 1 -3.5 12t8.5 16h7l0.5 1.5l0.5 1.5h5q2 -3 5 -3t4 -1q5 -2 7 -9q0 -2 -0.5 -3 t0.5 -4l-0.5 -0.5l-0.5 -0.5q-1 -10 -1 -9t-3 -2q-7 -7 -18 -5q-4 0 -6.5 2.5zM185 500h2.5h2.5h-4.5t-3.5 1q-3 1 -3.5 12t8.5 16h7q1 0 1.5 1.5l0.5 1.5h5q1 -3 4 -3t4 -1q4 -1 8 -9q0 -2 -1 -3t1 -4l-1 -0.5l-1 -0.5q-1 -10 -0.5 -9t-2.5 -2q-8 -8 -18 -5q-5 0 -7 2.5z M92 15q8 0 29 3t29 9l0.5 -0.5l0.5 -0.5q36 11 59 31.5t41 63.5q9 20 14.5 47.5t8.5 40.5q-2 2 -1.5 6t0.5 7h1.5h2.5v4.5t4 3.5v13v7h1h2q0 8 -1 10q2 4 6 6q-1 2 -1 6h1h3q0 4 -4 5q1 1 2 1q0 3 -0.5 4t-0.5 4q3 0 4 1q0 1 -2 4t-2 7q-1 -1 5 2q0 1 -0.5 2.5t-0.5 2.5 q-1 0 -2.5 0.5l-1.5 0.5q3 7 2.5 22t-4.5 22q1 50 -30 65q-18 7 -37.5 0.5t-25.5 -13.5v-1.5v-0.5q-19 -5 -53.5 -38t-34.5 -58q-1 1 -4 1q-3 -6 -5.5 -10.5t-2.5 -11.5h-4h-1q0 -13 -14 -13l-0.5 0.5l-0.5 0.5q4 2 6 2v1.5v2.5q-9 -3 -10 -5.5t-2 -11.5h-3h-1 q0 -3 0.5 -4.5t1.5 -3.5h2h1v-7q-5 -1 -10 0q3 5 3 17q4 2 4 10q-1 1 -3 1q-3 -9 -11 -29t-14 -24q0 -2 0.5 -3t0.5 -3q-1 0 -2 -1q0 -1 -0.5 -3l-0.5 -2q-2 0 -3 -1q1 -1 0 -9q-27 -96 -2.5 -133.5t61.5 -49.5zM73 286q2 0 3 1q1 2 1.5 5.5t-3.5 2.5l0.5 -1l0.5 -1 q-1 -1 -2 -3t-2 -2q0 -1 2 -2z" />
<glyph unicode="&#xd9;" d="M39 -14q-1 1 -1 3q-36 -2 -40.5 30t-0.5 60q-12 5 0.5 49.5t33.5 99t42.5 104.5t26.5 67q0 1 3.5 4.5t3.5 6.5h2h3q0 3 0.5 5t1.5 5q5 1 5.5 4t6.5 4q0 2 6 8l1 -1l1 -1q3 3 9 3q4 -6 10 -6q0 -5 -1 -9t1 -7h-4h-1q0 -3 -2 -4q0 -1 -0.5 -1h-0.5q-2 -8 -3 -11q-4 0 -5 -1 v-3.5v-1.5q-3 0 -5 -2q0 -2 -1 -4t-1 -3q-3 0 -6 -1q-16 -22 -37.5 -64t-39 -89.5t-26.5 -92.5t0 -72q-2 -5 -6 -6l1 -0.5t2 -0.5q3 -9 5 -19t11 -16q0 -2 2 -3q4 -3 14 -3t13 6q9 2 36.5 22t29.5 31q9 3 10 3v4v4q3 -1 24.5 27t45 64.5t42 71t17.5 45.5q6 3 10 12t4 15h1h3 q0 6 3 9.5t4 9.5h0.5h0.5q2 7 3.5 13.5t8.5 8.5q0 4 -1 7q0 6 2 10t2 11q3 3 2.5 6t1.5 7h0.5h1.5v1v2q3 0 4.5 5.5t1.5 8.5h1.5h3.5q0 7 3 12t7 11q1 5 1 15h1.5h1.5q1 -8 3 -10q-3 -6 -5 -12t-2 -12q-4 0 -5 -2q0 -1 0.5 -2.5t2.5 -2.5h-2.5h-0.5q0 -7 -3.5 -13t-6.5 -12 h1.5h1.5v-4.5v-3.5h-4h-1h1h2q-2 -6 -9.5 -16t-4.5 -17q1 1 3 1q0 -3 -0.5 -4.5t-2.5 -8.5h-2.5h-0.5q3 8 3 11q-4 -3 -6.5 -9.5t-2.5 -10.5q-1 0 -2 -1q0 -3 -1.5 -6t-1.5 -5h2h3v-0.5v-0.5q-1 -2 -4 -3q2 -2 0 -6.5t-2 -6.5h-2h-1l3 -3q-1 -1 -1 -4h-2.5h-0.5q-1 0 -1 3 h-0.5h-0.5q0 -6 -0.5 -9t-0.5 -7h-2.5h-0.5q0 4 3 10q-2 0 -3 -1l-1 -1q-1 -2 -1.5 -3.5t-1.5 -3.5q4 -6 3 -10h-1.5h-1.5l-0.5 1.5t-0.5 2.5q-2 -4 -5 -11q1 -1 5 -1q-2 -3 -6 -5v-7.5v-2.5q-16 -8 -28.5 -32.5t-25.5 -53.5t-28 -55.5t-35 -37.5q-3 -11 -25.5 -33.5 t-32.5 -25.5q-5 -9 -22.5 -13.5t-20.5 -11.5v1v1h-2h-2v-1v-1l-0.5 1l-0.5 1h-5h-3q-2 -2 -2 -3zM247 486q0 -2 -5 -2q-3 0 -3 1v0.5v0.5q-9 -1 -26 10.5t-30 19.5q-2 0 -4 1t-3 2q1 2 1 4q-7 0 -8 1q-4 2 -4 6q-3 1 -7 2t-7 2q-1 0 -1 1.5v1.5q-2 2 -4 2q4 4 13 1h1h2h1 t1 2h0.5h1.5q20 -10 48 -25q10 -5 18.5 -8t13.5 -6q3 -3 5 -5.5t-1 -10.5q-1 -1 -3 -1z" />
<glyph unicode="&#xda;" d="M39 -14q-1 1 -1 3q-36 -2 -40.5 30t-0.5 60q-12 5 0.5 49.5t33.5 99t42.5 104.5t26.5 67q0 1 3.5 4.5t3.5 6.5h2h3q0 3 0.5 5t1.5 5q5 1 5.5 4t6.5 4q0 2 6 8l1 -1l1 -1q3 3 9 3q4 -6 10 -6q0 -5 -1 -9t1 -7h-4h-1q0 -3 -2 -4q0 -1 -0.5 -1h-0.5q-2 -8 -3 -11q-4 0 -5 -1 v-3.5v-1.5q-3 0 -5 -2q0 -2 -1 -4t-1 -3q-3 0 -6 -1q-16 -22 -37.5 -64t-39 -89.5t-26.5 -92.5t0 -72q-2 -5 -6 -6l1 -0.5t2 -0.5q3 -9 5 -19t11 -16q0 -2 2 -3q4 -3 14 -3t13 6q9 2 36.5 22t29.5 31q9 3 10 3v4v4q3 -1 24.5 27t45 64.5t42 71t17.5 45.5q6 3 10 12t4 15h1h3 q0 6 3 9.5t4 9.5h0.5h0.5q2 7 3.5 13.5t8.5 8.5q0 4 -1 7q0 6 2 10t2 11q3 3 2.5 6t1.5 7h0.5h1.5v1v2q3 0 4.5 5.5t1.5 8.5h1.5h3.5q0 7 3 12t7 11q1 5 1 15h1.5h1.5q1 -8 3 -10q-3 -6 -5 -12t-2 -12q-4 0 -5 -2q0 -1 0.5 -2.5t2.5 -2.5h-2.5h-0.5q0 -7 -3.5 -13t-6.5 -12 h1.5h1.5v-4.5v-3.5h-4h-1h1h2q-2 -6 -9.5 -16t-4.5 -17q1 1 3 1q0 -3 -0.5 -4.5t-2.5 -8.5h-2.5h-0.5q3 8 3 11q-4 -3 -6.5 -9.5t-2.5 -10.5q-1 0 -2 -1q0 -3 -1.5 -6t-1.5 -5h2h3v-0.5v-0.5q-1 -2 -4 -3q2 -2 0 -6.5t-2 -6.5h-2h-1l3 -3q-1 -1 -1 -4h-2.5h-0.5q-1 0 -1 3 h-0.5h-0.5q0 -6 -0.5 -9t-0.5 -7h-2.5h-0.5q0 4 3 10q-2 0 -3 -1l-1 -1q-1 -2 -1.5 -3.5t-1.5 -3.5q4 -6 3 -10h-1.5h-1.5l-0.5 1.5t-0.5 2.5q-2 -4 -5 -11q1 -1 5 -1q-2 -3 -6 -5v-7.5v-2.5q-16 -8 -28.5 -32.5t-25.5 -53.5t-28 -55.5t-35 -37.5q-3 -11 -25.5 -33.5 t-32.5 -25.5q-5 -9 -22.5 -13.5t-20.5 -11.5v1v1h-2h-2v-1v-1l-0.5 1l-0.5 1h-5h-3q-2 -2 -2 -3zM233 486q-2 0 -3 1q-3 8 -1.5 10.5t5.5 5.5q3 3 12 6t20 8q27 15 48 25h1h1q0 -2 3 -2h0.5h1.5q8 3 13 -1q-2 0 -4 -2l-0.5 -1.5l-0.5 -1.5q-3 -1 -7.5 -2t-6.5 -2q0 -4 -4 -6 q-1 -1 -8 -1q0 -1 0.5 -2t0.5 -2l-4 -2t-3 -1q-14 -8 -31 -19.5t-25 -10.5v-0.5v-0.5q-1 -1 -3 -1q-5 0 -5 2z" />
<glyph unicode="&#xdb;" d="M39 -14q-1 1 -1 3q-36 -2 -40.5 30t-0.5 60q-12 5 0.5 49.5t33.5 99t42.5 104.5t26.5 67q0 1 3.5 4.5t3.5 6.5h2h3q0 3 0.5 5t1.5 5q5 1 5.5 4t6.5 4q0 2 6 8l1 -1l1 -1q3 3 9 3q4 -6 10 -6q0 -5 -1 -9t1 -7h-4h-1q0 -3 -2 -4q0 -1 -0.5 -1h-0.5q-2 -8 -3 -11q-4 0 -5 -1 v-3.5v-1.5q-3 0 -5 -2q0 -2 -1 -4t-1 -3q-3 0 -6 -1q-16 -22 -37.5 -64t-39 -89.5t-26.5 -92.5t0 -72q-2 -5 -6 -6l1 -0.5t2 -0.5q3 -9 5 -19t11 -16q0 -2 2 -3q4 -3 14 -3t13 6q9 2 36.5 22t29.5 31q9 3 10 3v4v4q3 -1 24.5 27t45 64.5t42 71t17.5 45.5q6 3 10 12t4 15h1h3 q0 6 3 9.5t4 9.5h0.5h0.5q2 7 3.5 13.5t8.5 8.5q0 4 -1 7q0 6 2 10t2 11q3 3 2.5 6t1.5 7h0.5h1.5v1v2q3 0 4.5 5.5t1.5 8.5h1.5h3.5q0 7 3 12t7 11q1 5 1 15h1.5h1.5q1 -8 3 -10q-3 -6 -5 -12t-2 -12q-4 0 -5 -2q0 -1 0.5 -2.5t2.5 -2.5h-2.5h-0.5q0 -7 -3.5 -13t-6.5 -12 h1.5h1.5v-4.5v-3.5h-4h-1h1h2q-2 -6 -9.5 -16t-4.5 -17q1 1 3 1q0 -3 -0.5 -4.5t-2.5 -8.5h-2.5h-0.5q3 8 3 11q-4 -3 -6.5 -9.5t-2.5 -10.5q-1 0 -2 -1q0 -3 -1.5 -6t-1.5 -5h2h3v-0.5v-0.5q-1 -2 -4 -3q2 -2 0 -6.5t-2 -6.5h-2h-1l3 -3q-1 -1 -1 -4h-2.5h-0.5q-1 0 -1 3 h-0.5h-0.5q0 -6 -0.5 -9t-0.5 -7h-2.5h-0.5q0 4 3 10q-2 0 -3 -1l-1 -1q-1 -2 -1.5 -3.5t-1.5 -3.5q4 -6 3 -10h-1.5h-1.5l-0.5 1.5t-0.5 2.5q-2 -4 -5 -11q1 -1 5 -1q-2 -3 -6 -5v-7.5v-2.5q-16 -8 -28.5 -32.5t-25.5 -53.5t-28 -55.5t-35 -37.5q-3 -11 -25.5 -33.5 t-32.5 -25.5q-5 -9 -22.5 -13.5t-20.5 -11.5v1v1h-2h-2v-1v-1l-0.5 1l-0.5 1h-5h-3q-2 -2 -2 -3zM170 486q-1 0 -1 1q-5 11 1 16q3 3 10.5 6t15.5 8t15.5 10.5t16.5 10.5q2 5 7 4v0v0v0v0q3 -3 9.5 -8.5t15.5 -9.5q9 -6 19 -11t19 -11q1 -1 1 -2v-0.5v-1.5t3 -2q4 -4 4 -11 q-1 0 -2 0.5t-1 1.5q0 -1 -0.5 -1h-0.5q-3 0 -6 4t-4 5q-4 -4 -5 -1q-3 0 -5 4q1 0 -3 -2q-2 2 -5 2q-11 6 -26 11.5t-18 13.5q-3 -2 -5 -4t-5 -3q-10 -8 -23.5 -19.5t-19.5 -10.5v-0.5v-0.5q-1 -1 -3 -1q-4 0 -4 2z" />
<glyph unicode="&#xdc;" d="M39 -14q-1 1 -1 3q-36 -2 -40.5 30t-0.5 60q-12 5 0.5 49.5t33.5 99t42.5 104.5t26.5 67q0 1 3.5 4.5t3.5 6.5h2h3q0 3 0.5 5t1.5 5q5 1 5.5 4t6.5 4q0 2 6 8l1 -1l1 -1q3 3 9 3q4 -6 10 -6q0 -5 -1 -9t1 -7h-4h-1q0 -3 -2 -4q0 -1 -0.5 -1h-0.5q-2 -8 -3 -11q-4 0 -5 -1 v-3.5v-1.5q-3 0 -5 -2q0 -2 -1 -4t-1 -3q-3 0 -6 -1q-16 -22 -37.5 -64t-39 -89.5t-26.5 -92.5t0 -72q-2 -5 -6 -6l1 -0.5t2 -0.5q3 -9 5 -19t11 -16q0 -2 2 -3q4 -3 14 -3t13 6q9 2 36.5 22t29.5 31q9 3 10 3v4v4q3 -1 24.5 27t45 64.5t42 71t17.5 45.5q6 3 10 12t4 15h1h3 q0 6 3 9.5t4 9.5h0.5h0.5q2 7 3.5 13.5t8.5 8.5q0 4 -1 7q0 6 2 10t2 11q3 3 2.5 6t1.5 7h0.5h1.5v1v2q3 0 4.5 5.5t1.5 8.5h1.5h3.5q0 7 3 12t7 11q1 5 1 15h1.5h1.5q1 -8 3 -10q-3 -6 -5 -12t-2 -12q-4 0 -5 -2q0 -1 0.5 -2.5t2.5 -2.5h-2.5h-0.5q0 -7 -3.5 -13t-6.5 -12 h1.5h1.5v-4.5v-3.5h-4h-1h1h2q-2 -6 -9.5 -16t-4.5 -17q1 1 3 1q0 -3 -0.5 -4.5t-2.5 -8.5h-2.5h-0.5q3 8 3 11q-4 -3 -6.5 -9.5t-2.5 -10.5q-1 0 -2 -1q0 -3 -1.5 -6t-1.5 -5h2h3v-0.5v-0.5q-1 -2 -4 -3q2 -2 0 -6.5t-2 -6.5h-2h-1l3 -3q-1 -1 -1 -4h-2.5h-0.5q-1 0 -1 3 h-0.5h-0.5q0 -6 -0.5 -9t-0.5 -7h-2.5h-0.5q0 4 3 10q-2 0 -3 -1l-1 -1q-1 -2 -1.5 -3.5t-1.5 -3.5q4 -6 3 -10h-1.5h-1.5l-0.5 1.5t-0.5 2.5q-2 -4 -5 -11q1 -1 5 -1q-2 -3 -6 -5v-7.5v-2.5q-16 -8 -28.5 -32.5t-25.5 -53.5t-28 -55.5t-35 -37.5q-3 -11 -25.5 -33.5 t-32.5 -25.5q-5 -9 -22.5 -13.5t-20.5 -11.5v1v1h-2h-2v-1v-1l-0.5 1l-0.5 1h-5h-3q-2 -2 -2 -3zM260 500h2.5h2.5h-5.5t-2.5 1q-3 1 -3.5 12t8.5 16h8v1.5t1 1.5h5q1 -3 3.5 -3t4.5 -1q6 -2 6 -9v-7l-1 -1q0 -10 0.5 -9t-3.5 -2q-6 -8 -18 -5q-4 0 -6 2.5zM182 500h2.5h2.5 h-4.5t-2.5 1q-3 1 -3.5 12t8.5 16h7v1.5t1 1.5h5q2 -3 4 -3t5 -1q5 -2 7 -9q0 -2 -0.5 -3t0.5 -4l-0.5 -0.5l-0.5 -0.5q-1 -10 -1 -9t-3 -2q-7 -7 -18 -5q-4 0 -6.5 2.5z" />
<glyph unicode="&#xdd;" d="M-3 -105q-2 0 -2 3q0 2 -0.5 6t-0.5 5h-1h-2q0 9 5.5 21t13.5 18q21 27 35.5 66.5t40.5 76.5q3 15 -4.5 37t-12.5 37q-3 6 -3 20h-1.5h-0.5q-14 57 -23 110t-26 106h-1h-2q0 5 2 6q-2 1 -2.5 1.5l-0.5 0.5q0 8 -5 13q1 0 1 3h-2h-3q2 5 1 13t-1 15q6 1 11.5 2t11.5 -2 l-1 -1t-1 -2q11 -2 8 -16q3 0 5 -1q-3 -3 -1.5 -7.5t4.5 -7.5q-1 -2 -1 -4q-1 0 -2 -2q0 -2 1 -3q2 0 4 -2q-3 -2 -3 -5h1.5h2.5q0 1 -0.5 1.5l-0.5 0.5q1 1 3 1q6 -75 24 -155t32 -100q0 -2 2 -2l-1.5 -4.5t-0.5 -4.5q1 -1 4 -6.5t6 -8.5q1 2 1 3.5t2 4.5v0.5v1.5l2 0.5 t3 0.5q0 7 4.5 14t5.5 10q16 28 33.5 56t34.5 56q30 50 59.5 101.5t58.5 107.5q0 6 8.5 7t8.5 -5q3 -2 2 -4.5t-1 -4.5q-2 -2 -2 -5h-2h-1q-3 -4 -1 -6q-5 -8 -17 -30t-25.5 -47.5t-26.5 -49.5t-19 -35h-4h-1q-1 -1 -4 -7q5 1 5 -1q-6 -2 -6 -3v-6h-3h-1q-2 -7 0 -10 q-6 1 -9 3q-1 0 -1.5 -1l-0.5 -1l1 -0.5t4 -0.5q-1 0 -1 -2q-4 0 -5 -1l0.5 -1.5t1.5 -1.5q-6 -7 -7 -15l0.5 -0.5t1.5 -0.5q-2 0 -4 -0.5t-3 -0.5q-1 -4 4 -5l-4 -6h-0.5h-0.5q0 1 1 2q-1 3 -3 4q-2 -9 -11 -20t-13 -19q0 -2 0.5 -2.5l0.5 -0.5q-4 -1 -6 -6.5t-5 -8.5 q2 -2 5 -3q-2 -6 -6 -9v0.5v1.5h-2.5h-0.5q-4 -6 -5 -13t-7 -9q2 0 4 -1l-1 -0.5l-1 -0.5q-1 -1 -5 -1q0 -3 -1 -4l-3 -3q-2 -1 -2 -3q-2 -1 -5 -6.5t-5 -8.5q0 -1 2 -2q1 1 2 2.5t4 4.5h0.5h0.5q-5 -10 -9 -10v-3.5v-2.5h-3h-3q-1 -1 -1.5 -3l-0.5 -2q4 0 5 -1q-2 -5 -8 -5 q-2 -4 -2 -8.5t-1 -7.5q-2 0 -2.5 -0.5l-0.5 -0.5q1 3 1 6q-13 -7 -26 -41t-34 -67q1 0 1 -1q-6 -4 -9.5 -13.5t-3.5 -17.5q5 -20 -3.5 -26.5t-13.5 -22.5q-4 0 -5 -1v-0.5v-0.5q-3 0 -4.5 -0.5t-3.5 -0.5q0 -1 -0.5 -2.5t-0.5 -2.5q-6 -1 -7.5 -2t-6.5 -1zM143 486 q-1 0 -3 1q-3 8 -1.5 10.5t4.5 5.5q5 3 13.5 6t19.5 8q12 6 24.5 12.5t24.5 12.5h0.5h2.5q0 -2 1 -2h1h3q6 4 11 -1q-2 0 -4 -2l-0.5 -1.5l-0.5 -1.5q-3 -1 -7 -2t-6 -2q-1 -2 -2 -3.5t-1 -2.5q-3 -1 -9 -1v-2v-2l-6 -3q-13 -8 -30 -19.5t-25 -10.5v-0.5v-0.5q-2 -1 -5 -1 q-5 0 -5 2zM37 -59h0.5h1.5v3v2h-2h-1q0 -4 1 -5zM129 138q8 1 13 17t14 20q-6 0 -7.5 -2.5t-3.5 -8.5h-2h-1q1 -4 -3 -7.5t-4 -8.5q-5 -3 -6 -9v-0.5v-0.5zM156 166q6 0 5 4q-2 -1 -3 -2.5t-2 -1.5zM164 181h1h2v1v3q-3 -2 -6 0q0 -3 3 -4zM175 210q1 3 6 5q0 3 -1 4 q-4 0 -5 -1q-1 -4 0 -8zM182 224q1 1 3 2v1v1h-2.5h-0.5v-3v-1zM215 262q0 2 1 3.5t2 4.5q2 0 4 1q-4 -8 -7 -9z" />
</font>
</defs>
</svg>
