<?xml version="1.0" standalone="no"?>
<!DOCTYPE svg PUBLIC "-//W3C//DTD SVG 1.1//EN" "http://www.w3.org/Graphics/SVG/1.1/DTD/svg11.dtd" >
<svg xmlns="http://www.w3.org/2000/svg">
<metadata></metadata>
<defs>
<font id="sf_burlington_scriptbold" horiz-adv-x="464" >
<font-face units-per-em="2048" ascent="1638" descent="-410" />
<missing-glyph horiz-adv-x="717" />
<glyph horiz-adv-x="2048" />
<glyph horiz-adv-x="2048" />
<glyph unicode="&#xd;" horiz-adv-x="2048" />
<glyph unicode=" "  horiz-adv-x="717" />
<glyph unicode="&#x09;" horiz-adv-x="717" />
<glyph unicode="&#xa0;" horiz-adv-x="717" />
<glyph unicode="!" horiz-adv-x="324" d="M196 114q-7 -37 -51 -85q-44 -47 -78 -47q-16 0 -36 41q-19 39 -17 59q7 39 51 80t82 41q19 0 36 -33q17 -36 13 -56zM480 1196q-5 -22 -21.5 -81t-45.5 -156q-24 -76 -58 -188.5t-79 -265.5q-10 -40 -20.5 -80t-21.5 -80q-44 -116 -97 -116q-35 0 -24 65q4 23 15.5 71 t30.5 120q4 12 34 122.5t87 324.5q8 30 15 59.5t14 58.5q10 35 20 64t21 52q39 75 97 75q39 0 33 -45z" />
<glyph unicode="&#x22;" horiz-adv-x="324" d="M498 1161q-8 -52 -70 -142q-63 -99 -109 -99q-37 0 -29 39q1 5 11 28t30 66q-53 -89 -107 -89q-37 0 -29 38q1 12 22 42q23 29 27 49q2 10 7 26t12 38q6 19 25 37t38 18q17 0 29 -35q12 -32 7 -52l20 42q10 25 37 46q28 24 49 24q15 0 24 -29q11 -29 6 -47z" />
<glyph unicode="#" horiz-adv-x="676" d="M466 911l-12 -42q20 2 43 5t49 5l14 41zM836 1014q-3 -22 -31 -47t-49 -27l-84 -8l-15 -45q43 2 68.5 3t35.5 1q47 0 43 -34q-5 -24 -32 -48t-51 -28q-25 -3 -101 -6q-13 -43 -21.5 -69t-13.5 -37q-32 -72 -76 -72q-34 0 -17 86q6 44 18 83q-29 -4 -51.5 -6t-38.5 -4 q-47 -159 -116 -159q-31 0 -28 31q0 -9 38 113q-26 -2 -54 -3.5t-59 -1.5q-68 0 -63 32q12 63 130 75h-12q12 1 34.5 4.5t54.5 9.5l10 44q-42 -5 -70 -7.5t-44 -2.5q-32 0 -28 31q11 58 169 80q11 45 18.5 72.5t12.5 38.5q31 75 77 75q34 0 27 -33q-2 -14 -9 -48.5 t-20 -91.5q63 9 101 12q5 22 13 53.5t19 74.5q9 26 38 52q28 24 56 24q36 0 27 -50q-5 -32 -14 -67t-20 -73q35 2 59.5 3.5t38.5 1.5q35 0 30 -32z" />
<glyph unicode="$" horiz-adv-x="669" d="M463 944q-175 -22 -183 -67q-12 -66 136 -133zM589 370q15 84 -113 162q-1 -4 -13 -55t-35 -151q11 -1 26.5 -1.5t37.5 -0.5l23 -3q65 0 74 49zM737 428q-20 -116 -128 -182q-93 -60 -215 -62q-11 -55 -17 -84.5t-8 -34.5q-28 -79 -79 -79q-31 0 -24 31q6 35 14.5 79.5 t19.5 99.5q-28 7 -60 17t-69 23q-102 38 -98 59q6 29 40 60q35 32 64 32q5 0 154 -42l50 239q-114 55 -157 90q-93 72 -79 149q17 98 133 162q45 25 96 41.5t111 26.5q7 40 27 121q3 21 31 42t51 21q34 0 22 -68q-2 -10 -5 -23.5t-8 -31.5q-9 -35 -12 -51l27 2q54 1 111 -12 q79 -20 71 -56q-3 -21 -27 -38q-26 -17 -44 -17q-8 0 -26 2t-38.5 5t-39.5 5t-29 2h-14q-5 -1 -8.5 -1.5t-5.5 -0.5q-11 -51 -25 -114t-31 -142q250 -123 225 -270z" />
<glyph unicode="%" horiz-adv-x="739" d="M608 184q5 29 -31 84q-15 -5 -26 -5q-5 0 -16 1.5t-16 1.5q-69 0 -82 -73q-5 -33 14.5 -55t51.5 -22q36 0 67.5 19t37.5 49zM500 1024q3 19 -6 58q-8 39 -6 48q-149 -63 -159 -126q-12 -69 48 -69q21 0 41.5 6t38 17.5t29 28t14.5 37.5zM756 244q-15 -95 -121 -177 q-107 -81 -200 -81q-34 0 -61 10.5t-44.5 30t-24.5 47.5t-1 63q13 76 92 153q82 85 154 85q17 0 46 -20q40 36 78 36q101 -39 82 -147zM645 1082q-19 -103 -127 -190q-110 -86 -213 -86q-30 0 -53.5 10.5t-38.5 29.5t-21 45t-1 58q13 78 99 162q76 75 162 108q33 12 51 12 q22 0 45 -30q27 18 44 18q25 0 42 -54q16 -50 11 -83zM937 1190q-1 -3 -3.5 -8l-6.5 -13q-71 -117 -190 -283q-51 -69 -99.5 -138.5t-99.5 -139.5q-85 -123 -151 -218t-114 -165q-20 -32 -51 -77.5t-74 -106.5q-50 -60 -102 -60q-40 0 -32 36q3 19 13 36q37 60 84 131 t107 156l200 283q46 66 114 163t159 229q39 55 120 159q51 57 88 57q46 0 38 -41z" />
<glyph unicode="&#x26;" horiz-adv-x="585" d="M478 860q-98 -17 -108 -73q-6 -43 43 -68q11 23 27 58t38 83zM323 505q-110 -44 -120 -95q-8 -41 48 -70q0 1 72 165zM637 307q-12 -60 -164 -95q-108 -24 -203 -24q-40 -82 -86 -82q-29 0 -24 29q2 11 8.5 27.5t17.5 38.5q-137 36 -116 161q24 132 239 239 q-82 43 -67 136q17 84 108 154q83 63 172 78q60 157 123 157q34 0 27 -39q-5 -27 -51 -126q82 -39 77 -68q-3 -18 -26 -38q-22 -19 -42 -19q-11 0 -53 14q-13 -29 -30 -67.5t-37 -86.5q101 -3 94 -42q-14 -70 -159 -104q-32 -70 -59 -127.5t-50 -103.5h34q20 0 48.5 3 t66.5 8t66.5 8t47.5 3l7 4q37 0 31 -38z" />
<glyph unicode="'" horiz-adv-x="205" d="M377 1186q-11 -51 -60 -124q-58 -82 -102 -82q-36 0 -29 34q1 8 51 91q25 42 39.5 65t18.5 28q31 34 57 34q32 0 25 -46z" />
<glyph unicode="(" horiz-adv-x="348" d="M333 39q-9 -47 -74 -55q-112 60 -151 252q-29 158 0 325q27 156 95 323q38 94 82.5 167t95.5 130q43 51 78 51q41 0 34 -37q0 -8 -8 -19q-28 -46 -65.5 -115t-86.5 -163q-68 -152 -96 -306q-42 -246 31 -409q10 -19 19 -37.5t18 -36.5q30 -58 28 -70z" />
<glyph unicode=")" horiz-adv-x="336" d="M439 652q-28 -159 -98 -324q-39 -93 -83.5 -167t-95.5 -132q-44 -47 -77 -47q-40 0 -32 35q2 14 5 17q28 46 65.5 116t86.5 164q35 79 59.5 155t37.5 149q43 238 -32 409q-60 139 -60 144q10 58 77 58q107 -53 147 -263q29 -150 0 -314z" />
<glyph unicode="*" horiz-adv-x="628" d="M715 664q-5 -28 -38 -54q-32 -26 -59 -26q-19 0 -135 140q-8 -36 -27 -99q-29 -50 -69 -50q-17 0 -18 79q-2 70 3 102q-206 -159 -235 -159q-30 0 -26 34q7 34 263 231q-135 184 -127 235q9 48 70 57q25 -11 113 -127l22 127q5 24 38 50q34 27 58 27q31 0 27 -72 q-2 -11 -4 -26.5t-6 -35.5q-2 -15 -7 -39t-12 -56q47 47 97 94q77 68 106 68q39 0 33 -41q-9 -52 -239 -234q176 -200 172 -225z" />
<glyph unicode="+" horiz-adv-x="469" d="M510 259q-4 -23 -36 -52q-30 -28 -56 -33q-18 -4 -42 -6t-53 -1l-9 -48q-1 -6 -2.5 -14.5t-7 -19.5t-15 -23t-26.5 -25q-31 -25 -56 -25q-11 0 -18 27q-6 32 -5 41q5 23 9.5 45.5t9.5 45.5l-10 1q-14 0 -41 -3q-13 -1 -22.5 -1.5t-15.5 -0.5q-15 0 -42 12q-35 14 -33 26 q4 28 46 53q50 30 142 36l5 32q4 22 12 51q3 9 11 18.5t17.5 17t20 12.5t19.5 5q52 0 31 -133q51 1 77 1.5t31 0.5q15 0 38 -12q22 -12 21 -28z" />
<glyph unicode="," horiz-adv-x="249" d="M242 51q-13 -79 -79 -162q-67 -83 -144 -124q-19 -8 -32 -8q-35 0 -29 39q2 14 83 89q82 75 96 156q1 7 2 22.5t3 21.5q13 75 71 75q14 0 23 -45q10 -45 6 -64z" />
<glyph unicode="-" d="M509 259q-6 -23 -38 -52q-31 -28 -59 -34q-29 -6 -95 -6q-9 0 -22.5 0.5t-32.5 1.5q-38 3 -55 3t-48 -3q-16 -1 -27 -1.5t-19 -0.5q-16 0 -43 12q-33 13 -32 26q5 31 46 53q68 41 273 41q158 0 152 -40z" />
<glyph unicode="." horiz-adv-x="208" d="M234 121q-9 -46 -64 -91q-55 -44 -100 -44q-70 0 -58 72q8 45 47 87q40 43 83 43q29 0 61 -17q34 -22 31 -50z" />
<glyph unicode="/" horiz-adv-x="625" d="M882 1190q-1 -4 -3.5 -9t-6.5 -12q-35 -58 -82 -128t-107 -155q-51 -69 -100 -138.5t-100 -139.5q-57 -79 -136.5 -196.5t-187.5 -278.5q-101 -152 -167 -152q-38 0 -30 36q3 16 12 36q35 60 81.5 131.5t106.5 156.5q52 70 101.5 140t100.5 142q45 66 112.5 163 t160.5 229q40 56 62.5 88t29.5 40q70 88 114 88q47 0 39 -41z" />
<glyph unicode="0" horiz-adv-x="843" d="M804 550q36 204 -50 368q-95 179 -293 178l-19 -2q1 -5 1.5 -7t0.5 -3q-2 -13 -22 -36q-157 -185 -205 -457q-16 -87 -17 -162t12 -139q38 -176 181 -176q133 0 257 130q121 121 154 306zM951 608q-29 -168 -131 -309q-101 -143 -255 -234q-143 -81 -254 -81 q-178 0 -226 192q-30 138 5 346q67 375 274 563q-18 -3 -31 -3q-36 0 -31 36q10 58 108 90q70 24 143 24q225 0 338 -203q100 -186 60 -421z" />
<glyph unicode="1" horiz-adv-x="184" d="M386 1155q-4 -20 -19 -79.5t-43 -162.5q-80 -304 -128.5 -503.5t-65.5 -293.5q-12 -73 -28 -96q-26 -41 -64 -41q-16 0 -19 65q-2 60 3 87q26 150 75 362q23 91 46 181t46 183l24 140q43 240 147 240q41 0 26 -82z" />
<glyph unicode="2" horiz-adv-x="778" d="M852 113q-3 -15 -13 -30.5t-24 -28t-30.5 -22t-33.5 -13.5q-2 -1 -31 -5t-87 -11q-103 -10 -177 -15.5t-120 -5.5q-121 0 -211 38q-114 52 -94 161q18 109 211 275q91 69 179.5 138t179.5 138q193 157 208 249q24 128 -154 128q-88 0 -199 -36q-119 -41 -185 -97 q-24 -19 -47.5 -40t-51.5 -28q-25 7 -22 32q4 17 34 55q82 102 263 172q165 65 295 65q106 0 163 -48q64 -53 44 -157q-22 -129 -217 -303q-22 -20 -110 -89t-245 -190q-189 -146 -201 -209q-19 -115 217 -115q35 0 87 3.5t122 10.5q139 15 207 15q49 0 43 -37z" />
<glyph unicode="3" horiz-adv-x="806" d="M876 375q-29 -167 -175 -280q-146 -111 -315 -111q-96 0 -210 38q-121 45 -164 109q-10 10 -5 31q4 30 40 61q34 31 66 31q14 0 24 -7q60 -33 99.5 -54t62.5 -31q87 -37 187 -37q103 0 154 39q67 52 85 153q14 86 -47 156q-27 27 -127 99q-67 50 -59 83q6 45 167 167 q162 122 172 180q8 47 -58 82q-53 29 -107 29q-70 0 -164 -35q-91 -34 -145 -83q-76 -67 -98 -67q-26 0 -22 28q1 5 3 9.5t4 9.5q70 109 225 186q141 70 273 70q94 0 159 -47q77 -53 62 -140q-17 -86 -122 -184l-181 -150l163 -133q73 -80 53 -202z" />
<glyph unicode="4" horiz-adv-x="836" d="M1026 439q-4 -26 -38 -57q-35 -30 -58 -30q-22 0 -52.5 -1t-70.5 -3q-12 -42 -29.5 -103t-40.5 -143q-5 -18 -18 -54q-12 -26 -42 -48q-29 -21 -54 -21q-34 0 -29 35q1 5 8 31t21 74q10 37 25.5 91.5t35.5 129.5q-156 -13 -251 -19.5t-134 -6.5q-252 0 -217 191 q15 80 80 205q30 49 59.5 97.5t58.5 97.5q40 70 95 76l18 -20l-2 -17q-2 -5 -16 -30t-40 -71q-32 -55 -48.5 -83.5t-18.5 -30.5q-53 -98 -65 -169q-22 -121 169 -121q28 0 114 7.5t234 21.5q45 150 73.5 265.5t42.5 200.5q3 14 7.5 43t9.5 61.5t9.5 62t6.5 44.5q4 19 6.5 30 t3.5 13q24 51 66 51q21 0 28 -22q7 -26 2 -86.5t-21 -157.5q-20 -114 -48.5 -237t-64.5 -262q35 2 61 3t45 1q86 0 79 -39z" />
<glyph unicode="5" horiz-adv-x="809" d="M853 249q-5 -32 -27 -72q-55 -100 -179 -153q-102 -42 -227 -42q-312 0 -388 201q16 55 74 66l15 -7q91 -141 350 -141q178 0 222 53q15 18 19 37q20 120 -130 280l-164 157q-94 94 -135 181q-50 101 -36 181q18 92 111 160q112 82 326 82q195 0 285 -24q27 -8 23 -32 q-4 -26 -41 -61q-36 -33 -64 -33q-32 0 -80 1.5t-112 5.5t-112 5.5t-80 1.5q-97 0 -107 -58q-3 -23 -2 -38q19 -122 150 -258q54 -54 107 -107.5t107 -108.5q118 -147 95 -277z" />
<glyph unicode="6" horiz-adv-x="884" d="M954 379q-32 -188 -232 -300q-173 -95 -370 -95q-177 0 -252.5 91.5t-43.5 269.5q36 200 191 464q156 261 326 410q21 18 41 18q36 0 28 -32q-2 -16 -17 -31q-210 -230 -330 -471q-43 -85 -70.5 -158.5t-38.5 -136.5q-51 -294 234 -294q132 0 230 40q135 53 156 163 q22 127 -93 193q-95 53 -232 53q-13 0 -30 -4q-21 -3 -29 -3q-58 0 -50 41q10 58 91 87q58 21 129 21q167 0 270 -79q121 -88 92 -247z" />
<glyph unicode="7" horiz-adv-x="802" d="M1029 1038q-15 -94 -167 -267l-256 -283q-73 -85 -131.5 -158t-104.5 -139q-15 -25 -39 -61.5t-56 -85.5q-47 -63 -96 -63q-40 0 -32 36q24 133 585 749q144 156 155 226q23 122 -244 122q-46 0 -102 -4.5t-123 -12.5q-85 -10 -135.5 -15t-69.5 -5q-45 0 -41 31 q7 32 57 61q29 19 244 43q193 24 261 24q331 0 295 -198z" />
<glyph unicode="8" horiz-adv-x="850" d="M770 338q18 105 -65 191q-45 43 -171 120q-324 -260 -345 -374q-14 -86 87 -125q70 -27 175 -27q113 0 174 31q123 59 145 184zM918 393q-32 -182 -211 -303q-163 -109 -350 -109q-129 0 -224 50q-116 65 -95 182q32 183 411 487q-256 157 -236 280q23 128 200 196 q135 51 285 51q200 0 304 -66q20 -11 15 -31q-2 -11 -9.5 -20.5t-18 -17.5t-22.5 -12.5t-22 -4.5q7 0 -90 21q-82 17 -201 17q-288 0 -301 -82q-14 -77 234 -222q36 26 87.5 67.5t120.5 98.5q11 11 21.5 22t21.5 22q28 24 55 24q41 0 34 -39q-11 -53 -251 -245 q138 -77 188 -139q76 -94 54 -227z" />
<glyph unicode="9" horiz-adv-x="877" d="M1046 882q-32 -184 -239 -443q-38 -46 -94.5 -113.5t-132.5 -161.5q-17 -24 -44 -57t-62 -76q-43 -49 -80 -49q-39 0 -32 37q7 36 141 201q45 54 88 106t88 106q197 245 224 399q22 123 -43 194t-188 71q-124 0 -247 -69q-142 -76 -162 -194q-16 -96 61 -157 q70 -51 174 -51q91 0 177 57q85 57 96 57q30 0 26 -31q-1 -8 -12 -22q-138 -184 -370 -184q-138 0 -220 73q-88 79 -65 212q32 182 242 319q197 125 386 125q155 0 235 -96t53 -253z" />
<glyph unicode=":" horiz-adv-x="222" d="M234 121q-9 -46 -64 -91q-55 -44 -100 -44q-70 0 -58 72q8 45 47 87q40 43 83 43q29 0 61 -17q34 -22 31 -50zM324 577q-11 -54 -65 -95q-54 -42 -109 -42q-71 0 -60 63q9 53 60 103q51 51 103 51q34 0 55 -23t16 -57z" />
<glyph unicode=";" horiz-adv-x="258" d="M352 556q-7 -42 -53 -79q-43 -37 -87 -37q-75 0 -62 70q9 50 54 97q45 48 93 48q31 0 46 -33t9 -66zM242 51q-13 -79 -79 -162q-67 -83 -144 -124q-19 -8 -32 -8q-35 0 -29 39q2 14 83 89q82 75 96 156q1 7 2 22.5t3 21.5q13 75 71 75q14 0 23 -45q10 -45 6 -64z" />
<glyph unicode="&#x3c;" horiz-adv-x="372" d="M393 101q-6 -29 -41 -58t-64 -29q-12 0 -22 6q-14 8 -44.5 31.5t-81.5 62.5q-104 82 -102 93q6 39 83 83q8 5 36.5 19t76.5 37q25 11 52 29.5t57 44.5q31 24 51 24q33 0 26 -34q-12 -73 -181 -161q164 -90 154 -148z" />
<glyph unicode="=" horiz-adv-x="411" d="M456 319q-9 -49 -99 -73q-61 -19 -133 -19q-25 0 -101 17q-79 19 -75 34q7 45 56 58q36 10 166 10q13 0 31.5 1.5t44.5 3.5q52 6 77 6q41 0 33 -38zM442 205q-11 -57 -84 -75q-107 -29 -208 -29q-22 0 -71 15q-54 16 -53 31q1 10 8 20.5t17 19.5t22 15.5t23 9.5 q27 0 68.5 2.5t98.5 7.5q148 19 147 20q40 -2 32 -37z" />
<glyph unicode="&#x3e;" horiz-adv-x="362" d="M404 246q-6 -41 -142 -134q-137 -93 -178 -93q-39 0 -31 39q7 38 176 145q-161 137 -154 176q2 10 8.5 21t16.5 19.5t21.5 14t23.5 5.5q10 0 140 -91q18 -11 36 -22.5t36 -23.5q53 -36 47 -56z" />
<glyph unicode="?" horiz-adv-x="836" d="M254 152q-10 -56 -65 -114q-59 -59 -112 -59q-18 0 -40 30q-23 32 -18 49q7 49 61 97q52 46 106 46q17 0 43 -17q26 -16 25 -32zM1015 1031q-20 -113 -215 -265q-46 -37 -132.5 -95.5t-218.5 -139.5q-190 -120 -195 -152q0 -2 2.5 -8t5 -14t4 -16.5t0.5 -14.5 q-5 -32 -41 -63q-34 -31 -65 -31q-15 0 -27 8t-19.5 20.5t-11 28t-1.5 30.5q17 98 211 237l355 229q191 126 203 190q23 128 -225 128q-168 0 -334 -99l1 -4q-47 -77 -99 -77q-41 0 -32 46q4 28 70 86q27 24 50.5 42t43.5 29q187 106 406 106q117 0 191 -42q91 -52 73 -159z " />
<glyph unicode="@" horiz-adv-x="908" d="M1036 748q-24 -134 -140 -256q-128 -132 -258 -132q-41 0 -68 27q-71 -51 -123 -51q-61 0 -85 70q-17 59 -5 125q29 165 155 276q92 80 157 80q56 0 75 -46q20 -39 9 -95t-50 -120q-47 -75 -95 -80l-7 26q1 6 5.5 20.5t9.5 31.5t9 33.5t6 25.5q13 82 -25 82 q-44 0 -75 -72q-26 -50 -36 -109q-20 -111 29 -111q12 0 56 41t77 41q21 0 32 -30q10 -30 30 -30q27 0 66 24q85 51 108 174q18 109 -33 196q-55 94 -164 94q-145 0 -293 -148q-140 -143 -167 -291q-31 -175 114 -262q115 -69 309 -69q8 0 25.5 1.5t37.5 3t37.5 3t25.5 1.5 q43 0 36 -39q-10 -60 -118 -89q-74 -21 -159 -21q-208 0 -339 98q-154 112 -118 310q19 109 90 222q97 156 262 278q184 139 339 139q140 0 215 -118q69 -109 43 -254z" />
<glyph unicode="A" horiz-adv-x="870" d="M978 96q-5 -33 -45 -63q-39 -30 -73 -30q-18 0 -46 16q-76 37 -114 116q-187 -149 -333 -149q-171 0 -251 164q-70 148 -37 330q46 264 262 489q52 52 107.5 96.5t116.5 81.5q149 89 259 89q226 0 162 -357q-22 -135 -105 -335q-104 -257 -188 -257q-31 0 -26 29 q0 5 4 12q148 300 181 489q51 287 -101 287q-126 0 -287 -143q-196 -179 -239 -418q-42 -248 94 -369q60 -51 130 -51q85 0 204 98q122 98 144 98t32 -25q29 -76 48 -98q15 -15 82 -63q22 -15 19 -37z" />
<glyph unicode="B" horiz-adv-x="930" d="M1014 474q-34 -192 -244 -346q-200 -146 -396 -146q-150 0 -235 96q-84 98 -57 248q8 49 28 105t52 120l58 108t58 109q16 31 31 62t29 63q46 76 102 76q41 0 33 -41q-11 -52 -72 -170q-23 -43 -46 -85.5t-46 -87.5q-55 -110 -70 -196q-21 -119 43 -192q64 -72 184 -72 q126 0 244 82q127 87 150 209q20 111 -73 190q-80 66 -196 87q-16 1 -38 3.5t-51 6.5q-30 4 -26 34q10 59 91 99l165 62q124 51 132 87q10 61 -70 94q-56 25 -132 25q-122 0 -256 -58q-152 -65 -213 -162q-41 -65 -96 -75l-18 22q11 50 47 101q95 132 289 218q176 82 338 82 q99 0 177 -48q95 -55 79 -146q-19 -113 -232 -229q279 -94 237 -335z" />
<glyph unicode="C" horiz-adv-x="739" d="M976 891q-8 -47 -75 -60l-22 16q-2 29 -4 49.5t-3 31.5q-4 23 -10.5 42t-14.5 34q-60 109 -169 109q-87 0 -166 -75q-109 -103 -187 -247q-38 -72 -64 -143.5t-39 -144.5q-26 -149 8 -247q47 -131 178 -131q77 0 199 66q121 67 134 67q41 0 32 -43q-3 -27 -43 -61 q-75 -69 -191 -120q-124 -50 -211 -50q-168 0 -232 151q-52 127 -19 307q43 259 225 498q229 297 430 297q108 0 174 -78q59 -68 69 -179q6 -54 1 -89z" />
<glyph unicode="D" horiz-adv-x="952" d="M1058 604q-34 -194 -176 -345q-104 -110 -262 -189q-167 -84 -297 -84q-227 0 -176 280q10 59 31.5 127t53.5 146q29 67 58.5 133t59.5 135q19 48 36 63q22 26 63 31l17 -19l-2 -13q-3 -20 -58 -144q-111 -257 -135 -396q-39 -223 120 -223q163 0 351 152 q144 117 174 293q28 159 -45 300q-71 141 -212 200q-103 41 -234 41q-46 0 -134 -15q-45 -7 -77 -10.5t-52 -3.5q-49 0 -41 36q11 67 171 104q113 28 215 28q312 0 462 -200q134 -183 89 -427z" />
<glyph unicode="E" horiz-adv-x="807" d="M986 150q-10 -60 -87 -92q-38 -16 -104 -29.5t-160 -26.5q-82 -10 -149 -15t-119 -5q-152 0 -249 54q-120 71 -98 208q29 164 239 316q-129 51 -105 188q17 95 111 209q43 52 87.5 94.5t92.5 74.5q160 106 306 106q88 0 162 -41q85 -49 70 -133q-4 -34 -48 -91 q-42 -56 -75 -56q-27 0 -22 29q1 6 5 14.5t8 18t8 18t5 14.5q18 104 -173 104q-153 0 -283 -126q-96 -90 -109 -174q-17 -89 61 -120q49 -17 154 -17q42 0 36 -41q-9 -51 -74 -81q-26 -11 -53 -20.5t-54 -19.5q-180 -78 -203 -210q-33 -181 303 -181q82 0 242 34 q82 17 142 26t99 9q40 0 34 -38z" />
<glyph unicode="F" horiz-adv-x="746" d="M1027 1053q-28 -159 -436 -445q216 -64 175 -287q-42 -242 -324 -617q-50 -68 -97 -68q-41 0 -33 39q5 27 82 149q24 40 48.5 79.5t49.5 78.5q52 85 83 155.5t41 127.5q16 91 -27 141q-36 39 -126 65q-13 2 -32 7t-44 12q-27 7 -22 36q9 44 137 136l239 171 q131 104 143 169q9 58 -70 85q-56 21 -130 21q-73 0 -177 -29q-183 -52 -271 -157l-48 -65q-36 -40 -63 -40q-29 0 -23 33q6 32 28 65q76 140 285 235q192 86 355 86q102 0 175 -43q98 -53 82 -140z" />
<glyph unicode="G" horiz-adv-x="881" d="M1063 848q-35 -53 -73 -53q-25 0 -26 24q-2 16 -5 38.5t-8 53.5q-45 198 -210 198q-185 0 -354 -259q-141 -214 -179 -423q-24 -135 24 -217q51 -91 179 -91q99 0 209 57q118 61 162 150q2 5 4.5 14t7.5 20q49 91 122 91q17 0 25 -27q8 -29 4 -45q-47 -278 -189 -446 q-215 -261 -527 -261q-44 0 -36 35q5 29 38 59q34 30 63 39q14 1 36 3t51 7q267 39 365 330q-211 -163 -403 -163q-346 0 -280 387q14 79 41 160t69 166q84 170 199 295q229 247 428 247q139 0 217 -114q75 -110 50 -249z" />
<glyph unicode="H" horiz-adv-x="1010" d="M1225 1190q-1 -12 -15 -53q-11 -35 -30.5 -103.5t-47.5 -171.5q-110 -398 -180 -792q-5 -32 -44 -60q-40 -28 -70 -28q-26 0 -29 27q-3 19 8 87q4 22 15 69q5 23 9 41t6 30q77 428 -313 428q-84 0 -196 -27q-26 -109 -50 -194.5t-44 -152.5q-14 -45 -31 -88t-37 -86 q-63 -135 -108 -135q-16 0 -32 13q-4 6 -2 20q5 22 45 140q23 75 53 184t66 258l-159 -57l-20 24q14 62 203 137l36 164q8 37 14.5 73t12.5 72q10 43 20.5 78t23.5 63q41 86 111 86q36 0 29 -46q0 3 -18 -70.5t-55 -225.5q-5 -25 -12.5 -62t-18.5 -88q137 34 251 34 q218 0 319 -135q20 75 45.5 159t55.5 183q8 29 21.5 70.5t33.5 98.5q34 78 100 78q41 0 34 -42z" />
<glyph unicode="I" horiz-adv-x="191" d="M410 1184q-2 -9 -6.5 -23.5t-12.5 -34.5q-40 -103 -74 -220.5t-63 -255.5q-12 -57 -34 -175t-54 -304q-17 -81 -33 -120q-35 -77 -104 -77q-36 0 -22 74q4 31 48 256q50 242 98.5 429t97.5 323q66 181 131 181q39 0 28 -53z" />
<glyph unicode="J" horiz-adv-x="828" d="M923 550q-47 -260 -177 -408q-143 -158 -321 -158q-113 0 -258 132q-150 138 -131 241q5 29 41 61q36 33 65 33q17 0 68 -86q62 -108 116 -160q89 -86 189 -86q66 0 113 33q109 84 159 363q63 355 1 519q-35 92 -128 92q-66 0 -225 -41q-17 -4 -28 -6t-16 -2 q-33 0 -29 31q10 55 167 93q121 30 207 30q74 0 121 -36q82 -67 90 -299q7 -174 -24 -346z" />
<glyph unicode="K" horiz-adv-x="869" d="M891 68q-4 -28 -43 -59q-37 -28 -66 -28q-12 0 -43 15q-40 23 -83 71t-89 122l-144 233q-71 95 -145 133q-14 -64 -27 -126t-27 -125q-36 -155 -81 -246q-34 -76 -99 -76q-38 0 -30 38q8 51 44.5 189t96.5 371q-32 -7 -47 -7q-36 0 -28 38q11 61 108 92q12 49 30 118.5 t41 163.5q40 145 45 174q0 5 -1 13.5t1 13.5q5 38 66 53q23 -5 31 -58q5 -44 0 -77q-8 -45 -28 -135t-52 -230q359 111 534 271q68 57 118 149q36 66 77 66q35 0 27 -35q-2 -11 -9 -29t-20 -41q-143 -267 -642 -454q87 -54 181 -174q36 -54 71.5 -106t70.5 -106 q63 -93 150 -181q15 -15 12 -31z" />
<glyph unicode="L" horiz-adv-x="688" d="M761 85q-3 -23 -33 -48q-27 -23 -56 -34q-35 -7 -99 -7q-23 -1 -47.5 -1.5t-49.5 -0.5q-75 -4 -115.5 -6t-48.5 -2q-314 0 -266 279q10 54 42 172t89 305q117 396 154 444q33 46 67 46q29 0 25 -34q-1 -4 -14.5 -48.5t-41.5 -132.5q-32 -109 -59 -199.5t-49 -165.5 q-63 -236 -78 -328q-21 -116 27 -164q43 -46 161 -46q46 0 144 9q49 5 85.5 7.5t60.5 2.5q20 0 60 -14q47 -17 42 -34z" />
<glyph unicode="M" horiz-adv-x="1174" d="M1268 580q-7 -40 -20 -99t-32 -140q-19 -79 -32 -138t-20 -99q-4 -16 -7 -27.5t-7 -18.5q-12 -28 -47 -57q-35 -26 -64 -26q-38 0 -30 39q9 51 24 123t37 171q43 195 60 294q87 492 -67 492q-142 0 -257 -312q-73 -193 -117 -430q-2 -8 -3.5 -24.5t-4 -34.5t-4.5 -34.5 t-3 -24.5q-8 -36 -45 -69q-38 -32 -73 -32q-42 0 -22 120l16 90q13 60 18 90q120 676 -27 676q-27 0 -84 -61q-213 -237 -322 -850q-2 -14 -5 -35.5t-7 -49.5q-8 -57 -12 -84q-3 -21 -25 -39q-21 -21 -40 -21q-24 0 -29 23q-10 69 17 226q110 626 353 886q124 133 229 133 q132 0 132 -324q99 175 230 261q98 62 171 62q235 0 119 -656z" />
<glyph unicode="N" horiz-adv-x="882" d="M993 594q-63 -357 -239 -512q-113 -98 -244 -98q-34 0 -54 5q-157 30 -178 366q-5 63 -1.5 182.5t15.5 303.5q-19 -64 -42 -154.5t-50 -210.5q-29 -128 -51 -218t-38 -147q-19 -71 -32 -91q-33 -45 -70 -45q-24 0 -20 28q0 -2 45 198q23 118 47 235.5t50 237.5 q69 297 147 459q50 104 116 104q48 0 50 -186q0 -38 -4 -117t-12 -205q-7 -100 -7 -180t6 -141q24 -289 160 -289q178 0 246 374q34 198 39 425q0 2 -0.5 30.5l-1.5 85.5q-1 36 1 66t6 54q5 29 43 60q41 32 68 32q25 0 30 -27q5 -26 6 -166q0 -292 -31 -459z" />
<glyph unicode="O" horiz-adv-x="881" d="M1004 654q-40 -223 -178 -395q-97 -120 -220 -194q-143 -83 -270 -83q-162 0 -234 129q-58 118 -30 287q27 148 119 339q38 74 79 74q18 0 29 -23q-2 -5 -14 -34.5t-34 -84.5q-44 -108 -60 -205q-24 -140 19 -240q52 -120 186 -120q147 0 278 128q142 139 181 355 q31 179 -26 328q-71 174 -238 174q-86 0 -181 -56q-45 -26 -142 -108q-71 -56 -94 -56q-39 0 -34 36q5 22 29 49q99 111 230 191q151 91 272 91q203 0 292 -198q78 -170 41 -384z" />
<glyph unicode="P" horiz-adv-x="894" d="M5 31v12v-12zM1044 770q-30 -171 -171 -278q-139 -106 -315 -106q-186 0 -270 85q-12 12 -8 31q4 30 42 62t69 32q2 0 19 -5q138 -67 233 -67q215 0 248 186q25 143 -55 263q-85 124 -227 124q-300 0 -433 -756q-13 -73 -23 -123t-18 -78q-45 -158 -108 -158 q-26 0 -22 49l21 111q3 21 8 53t12 75q8 45 13 76.5t9 52.5q33 186 72 301q73 213 200 355q157 177 346 177q175 0 282 -143q107 -144 76 -319z" />
<glyph unicode="Q" horiz-adv-x="940" d="M1036 529q-31 -165 -166 -309q-128 -131 -302 -196q25 -39 74 -84q20 -18 41 -36.5t41 -37.5q15 -13 12 -29q-6 -23 -38 -52q-31 -28 -58 -28q-7 1 -11 1.5t-6 0.5q-140 51 -196 230q-20 -3 -70 -3q-180 0 -255 123q-64 113 -32 299q48 266 254 505q218 248 480 316 q22 7 37 7q36 0 28 -35q-7 -37 -62 -59q-21 -7 -43 -14t-45 -14q-176 -64 -328 -264q-149 -191 -181 -372q-24 -143 15 -234q48 -110 178 -123q-4 42 -2 81.5t9 77.5q6 39 25 68q24 41 53 41q33 0 33 -113q-1 -39 1.5 -75.5t9.5 -70.5q133 29 231 118q97 89 119 216 q19 103 -18 227q-11 40 -30.5 85.5t-46.5 99.5q-44 87 -43 95q5 29 41 60q38 32 67 32q15 0 27 -15q87 -96 133 -236q46 -150 24 -283z" />
<glyph unicode="R" horiz-adv-x="899" d="M1063 908q-37 -212 -240 -331q-75 -44 -174 -63q-45 -7 -89 -13.5t-89 -12.5q29 -48 57 -89t54 -78q26 -32 51 -64l50 -64q78 -106 75 -128q-5 -29 -40 -57q-35 -26 -64 -26q-41 0 -211 227q-170 228 -161 271q6 43 73 83q75 46 210 63q78 10 130 20t80 21 q119 48 143 183q20 112 -53 182q-71 72 -186 72q-200 0 -348 -225q-99 -149 -160 -500q-29 -165 -36 -242q-1 -5 -2 -18.5t-2 -33.5q0 -30 -3 -51q-3 -18 -26 -36q-22 -19 -42 -19q-71 0 -2 402q39 223 85 343q69 175 200 309q201 203 411 203q152 0 241 -87q94 -94 68 -241 z" />
<glyph unicode="S" horiz-adv-x="821" d="M879 288q-4 -29 -24 -70q-61 -121 -196 -186q-114 -50 -255 -50q-68 0 -129 12q-105 19 -191 79q-105 73 -88 171q6 42 42 85q37 50 76 52l17 -23q-28 -64 -30 -73q-17 -98 126 -150q106 -39 227 -39q266 0 290 138q19 106 -121 246q-66 61 -131.5 121t-131.5 121 q-138 145 -118 270q16 85 99 148q70 55 168 77q75 19 174 19q160 0 211 -19q28 -9 22 -36q-5 -30 -40 -59q-34 -28 -67 -28q-14 0 -42.5 1.5t-59.5 3t-59 3t-42 1.5q-210 0 -220 -60q-17 -96 121 -231q64 -61 128.5 -121t130.5 -121q135 -150 113 -282z" />
<glyph unicode="T" horiz-adv-x="765" d="M1055 1198q-12 -62 -92 -85q-33 -10 -130 -10q-87 0 -195 3q-4 -22 -10 -52.5t-14 -72.5q-52 -302 -158 -766q-5 -31 -15.5 -74t-27.5 -98q-13 -27 -43 -49q-30 -24 -56 -24q-34 0 -27 37q10 58 25.5 131t37.5 161q17 73 34.5 145t35.5 147q22 94 37.5 165t25.5 125 q7 38 18 95t26 133h-346q-15 0 -40 12t-23 24q5 26 43 51q39 24 448 29q58 0 193 6q63 2 111.5 3.5t83.5 1.5q66 0 58 -38z" />
<glyph unicode="U" horiz-adv-x="915" d="M1068 870q-78 -448 -358 -713q-182 -168 -341 -168q-210 0 -258 277q-32 195 15 458q5 28 16.5 84t31.5 143q22 97 36 149t19 61q30 49 66 49q32 0 22 -61l-33 -171q-23 -114 -33 -171q-44 -254 -26 -425q31 -271 215 -271q38 0 89 24q297 146 394 696q5 26 10.5 65.5 t12.5 93.5q8 54 14 93.5t11 65.5q4 27 42 57q37 31 66 31q25 0 27 -30q3 -102 -38 -337z" />
<glyph unicode="V" horiz-adv-x="853" d="M1133 1198q-3 -14 -17 -34q-154 -236 -237 -364t-99 -151q-91 -146 -164.5 -278.5t-130.5 -256.5q-22 -51 -41 -76q-48 -66 -101 -66q-26 0 -32 27l-23 196q-13 115 -34 286t-51 401q-40 277 -39 289q7 46 66 61l21 -7q34 -83 70 -280q12 -67 38 -239t66 -453 q157 304 483 788q130 196 191 196q41 0 34 -39z" />
<glyph unicode="W" horiz-adv-x="1179" d="M1444 1198q-12 -65 -96 -287q-88 -233 -170.5 -415.5t-160.5 -319.5q-114 -201 -184 -201q-27 0 -34 27q-1 4 -9 65t-22 182q-22 168 -35.5 293t-19.5 216q-101 -248 -213 -475l-96 -194q-5 -13 -10.5 -24t-12.5 -21q-47 -65 -99 -65q-26 0 -36 21q-62 139 -89 567 q-26 424 7 609q3 19 25 37q22 19 40 19q20 0 27 -22q7 -23 10 -57t4 -81v-144q7 -208 26.5 -379t53.5 -315q94 195 173 373.5t148 348.5q31 85 48 106q37 61 90 61q24 0 29 -29q1 -5 3.5 -28t6.5 -66q2 -35 7 -87.5t12 -122.5q16 -165 63 -561q151 269 312 679 q22 63 50 133.5t63 149.5q31 40 62 40t27 -33z" />
<glyph unicode="X" horiz-adv-x="852" d="M1077 1181q-5 -15 -19 -33.5t-35.5 -40t-49 -46t-57.5 -51.5q-60 -51 -94 -80t-42 -37q-107 -98 -210 -204q87 -209 138 -324q18 -40 36.5 -79.5t37.5 -78.5q58 -127 54 -152q-5 -26 -39 -54q-35 -26 -61 -26q-54 0 -272 605q-235 -259 -372 -500q-32 -60 -41 -66 q-23 -27 -62 -35l-22 12l3 18q1 8 9 26.5t21 49.5q113 243 432 584q-107 276 -195 435q-31 58 -30 65q8 51 64 63l21 -5q66 -94 126.5 -205t117.5 -244q448 444 507 444q42 0 34 -41z" />
<glyph unicode="Y" horiz-adv-x="788" d="M995 1094q-4 -17 -10 -39.5t-16 -50.5q-27 -76 -78.5 -203t-127.5 -309q-44 -99 -123 -297q-14 -47 -48 -135q-39 -81 -107 -81q-40 0 -33 40q5 32 25 91.5t54 147.5q10 26 55 131t126 295q-199 -211 -366 -211q-150 0 -198 138q-34 102 -5 271q28 151 87 289 q28 60 91 70l25 -16l-3 -18q-2 5 -32 -84q-29 -83 -45 -171q-22 -133 0 -223q32 -125 145 -125q178 0 400 381l44 77q49 76 108 76q41 0 32 -44z" />
<glyph unicode="Z" horiz-adv-x="829" d="M1027 1062q-20 -115 -204 -272q-91 -69 -220 -173.5t-303 -251.5q-143 -131 -153 -188q-10 -58 112 -58q45 0 108.5 4.5t151.5 14.5t152 14.5t107 4.5q66 0 58 -38q-12 -67 -95 -90l-69 -9l-163 -20q-100 -10 -168.5 -15.5t-106.5 -5.5q-259 0 -235 140q22 133 341 405 q115 91 227 181.5t227 181.5q82 72 90 123q19 106 -230 106q-11 0 -29 -0.5t-39 -1t-43.5 -1t-41.5 -0.5h-40q-50 0 -132 15q-104 20 -100 46q3 19 28 38q26 20 45 20h94q16 -1 29 -1h25h40q36 0 113 3q76 3 114 3q124 0 208 -30q118 -45 102 -145z" />
<glyph unicode="[" horiz-adv-x="316" d="M321 99q-9 -50 -104 -89q-80 -31 -137 -31q-71 0 -78 30q-5 11 12 100q14 75 36 185.5t54 260.5q32 151 54.5 261.5t36.5 185.5q8 51 15.5 85t13.5 51q23 65 148 89q43 9 68 9q14 0 43 -17q28 -17 26 -29q-7 -37 -70 -57q-25 -4 -49.5 -8t-48.5 -9q-3 -24 -5.5 -40.5 t-4.5 -25.5q1 8 -24 -115t-77 -380q-15 -78 -35 -186.5t-45 -252.5q-3 -7 0 -7q9 4 22 4q11 0 52 12q40 12 63 12q42 0 34 -38z" />
<glyph unicode="\" horiz-adv-x="625" d="M676 17q-8 -36 -48 -36q-54 0 -82 60l-60 184q-26 78 -58 173t-71 210q-29 76 -56.5 151.5t-54.5 153.5q-84 244 -79 277q8 41 50 41q33 0 65 -57q10 -19 26 -58.5t38 -100.5q23 -66 56 -163t78 -229q35 -97 83 -237.5t108 -332.5q7 -20 5 -36z" />
<glyph unicode="]" horiz-adv-x="321" d="M502 1024q-12 -69 -33 -170.5t-50 -239.5t-50 -239t-33 -170q-8 -48 -16 -81.5t-15 -55.5q-26 -66 -148 -86q-16 -4 -33 -5.5t-35 -1.5q-16 0 -44 15q-28 12 -25 27q7 38 69 55q46 7 97 18l14 70q2 16 26.5 137.5t70.5 354.5q8 38 27 143t50 280q0 5 7 12l5 5q-8 2 -12 2 q-25 0 -67 -13q-40 -13 -66 -13q-40 0 -33 40q10 49 104 90q77 34 133 34q83 0 81 -44q-8 -66 -24 -164z" />
<glyph unicode="^" horiz-adv-x="493" d="M635 882q-5 -25 -42 -59q-38 -33 -64 -33q-46 0 -55 123q-8 145 -29 172q-18 -17 -39 -40t-44 -53q-63 -82 -79 -98q-68 -78 -100 -78t-28 31q2 6 6.5 12.5t9.5 14.5q23 33 58.5 81.5t84.5 112.5q35 43 92 96q74 65 106 65q39 0 70 -58q11 -22 20 -46t14 -50 q27 -145 19 -193z" />
<glyph unicode="_" horiz-adv-x="819" d="M-98 -436l19 113h867l-18 -113h-868z" />
<glyph unicode="`" horiz-adv-x="345" d="M538 1312q-9 -41 -52 -41q-29 0 -128 111q-43 52 -46 52q-25 31 -17 64q8 41 48 41q34 0 97 -75q103 -119 98 -152z" />
<glyph unicode="a" d="M352 157q-23 -12 -40 -12q-9 0 -44 20q-35 21 -63 21q-31 0 -34 -19q-9 -54 75 -54q77 0 106 44zM514 259q-21 -117 -127 -198q-106 -80 -227 -80q-32 0 -59 8.5t-46 25t-27 40.5t-2 56q15 84 97 147t167 63q11 0 23.5 -1.5t26.5 -3.5q-35 32 -81 32q-25 0 -65 -21 q-43 -20 -56 -20q-37 0 -29 39q7 44 98 91q85 43 134 43q87 0 137 -66q51 -66 36 -155z" />
<glyph unicode="b" horiz-adv-x="471" d="M531 295q-21 -111 -115 -211q-100 -103 -208 -103q-113 0 -150 96q-32 79 -9 201q26 149 111 377q57 151 90 243t44 129q10 57 44 157q27 48 65 48q12 0 18 -44q6 -38 4 -60q-7 -37 -19.5 -81t-30.5 -98q-16 -45 -31.5 -89t-31.5 -89q-48 -141 -77.5 -247.5t-43.5 -182.5 q-39 -227 92 -227q36 0 65 45q24 36 31 77q14 69 -26 90q-11 7 -75 15q-40 7 -36 40q9 43 62 75q46 25 95 25q79 0 112 -53q34 -51 20 -133z" />
<glyph unicode="c" horiz-adv-x="428" d="M493 336q-5 -24 -28 -53q-23 -27 -45 -27q-20 0 -45 52t-76 52q-104 0 -120 -94q-11 -53 18 -100t79 -47q31 0 71 28q41 29 61 29q42 0 34 -41q-3 -19 -29 -45q-107 -108 -220 -108q-86 0 -132 69q-41 70 -25 154q19 100 112 188q94 88 195 88q70 0 113 -37 q47 -44 37 -108z" />
<glyph unicode="d" horiz-adv-x="433" d="M379 370q-32 -35 -63 -35q-6 0 -14 2t-16.5 4.5t-16.5 4.5t-13 2q-68 0 -90 -121q-18 -102 70 -102q84 0 143 245zM544 582q-38 -215 -111 -369q-109 -232 -271 -232q-77 0 -111 51q-34 50 -20 132q18 111 100 211q93 115 195 115q39 0 73 -22l7 35q43 238 45 477 q2 124 6 155q7 33 37 69q30 35 62 35q33 0 33 -84q-5 -344 -45 -573z" />
<glyph unicode="e" horiz-adv-x="442" d="M346 317q2 11 -7.5 24.5t-19.5 13.5q-37 0 -94 -63q-49 -55 -66 -97q182 94 187 122zM490 116q-11 -60 -147 -102q-105 -30 -186 -30q-167 0 -142 139q17 101 145 231q127 129 229 129q44 0 72 -34q29 -35 20 -80q-20 -120 -286 -248q18 -5 41 -5q43 0 118 19 q85 20 105 20q38 0 31 -39z" />
<glyph unicode="f" horiz-adv-x="452" d="M551 328q-8 -52 -85 -89q-32 -11 -63 -22.5t-62 -23.5q81 -116 82 -120q36 -71 24 -144q-19 -100 -109 -196q-95 -101 -195 -101q-115 0 -147 140q-10 51 -8.5 111t12.5 129q32 174 183 565q42 109 77 211t64 202q16 54 45 165q22 72 94 87l11 -23q0 -46 -10 -93 q-29 -170 -123 -425q-73 -201 -110.5 -305t-41.5 -116q-16 -49 -27.5 -95.5t-19.5 -92.5q-59 -323 80 -323q54 0 72 97q11 68 -64 170q-76 103 -68 136q9 50 161 125q141 72 199 72q37 0 29 -41z" />
<glyph unicode="g" horiz-adv-x="509" d="M408 212q2 56 -35 94q-37 40 -93 40q-89 0 -104 -81q-8 -49 17 -88q25 -40 68 -40q32 0 79 36q46 37 68 39zM551 244q-26 -149 -210 -272q67 -46 53 -130q-17 -97 -126 -155q-98 -50 -201 -50q-28 0 -73 16q-54 16 -49 34q5 32 44 63q35 31 66 31q6 0 16.5 -0.5 t21.5 -1.5t21.5 -1.5t16.5 -0.5q57 0 113 21q1 39 -66 63t-62 50q9 52 130 115q-25 -7 -62 -7q-77 0 -117 60q-41 64 -28 138q19 102 115 181q98 80 199 80q98 0 157 -68q58 -65 41 -166z" />
<glyph unicode="h" horiz-adv-x="594" d="M804 162q-11 -51 -171 -126q-149 -66 -211 -66q-149 0 -120 167q4 19 10.5 44.5t16.5 59.5q11 34 17.5 58.5t10.5 40.5q-46 -14 -161 -192q-106 -166 -172 -166q-36 0 -28 38q9 58 49 209t110 402q65 222 99 413q2 9 3.5 27.5t2.5 39t2.5 39t3.5 28.5t9 21t16 20t20 14.5 t22 5.5q65 0 25 -234q-25 -141 -85 -356q-45 -165 -68.5 -253.5t-28.5 -105.5q147 190 276 190q70 0 58 -67q-4 -18 -11 -45t-18 -64q-11 -36 -18 -63t-11 -46q-15 -86 48 -86q48 0 151 47t122 47q39 0 31 -41z" />
<glyph unicode="i" horiz-adv-x="157" d="M336 676q-8 -39 -39 -75q-32 -36 -72 -36q-68 0 -58 58q7 34 48 70q40 37 75 37q55 0 46 -54zM232 422q0 4 -53 -164q-17 -69 -54 -207q-6 -25 -40 -49q-35 -23 -59 -23q-29 0 -17 81q11 58 57 194q50 143 76 183q29 44 66 44q35 0 24 -59z" />
<glyph unicode="j" horiz-adv-x="348" d="M480 679q-8 -36 -45 -72q-38 -35 -71 -35q-24 0 -42 16t-13 38q5 36 47 74q42 39 77 39q17 0 33 -22q17 -23 14 -38zM406 324q-19 -103 -51 -203t-80 -197q-132 -271 -284 -271q-101 0 -145 131q-5 7 0 21q5 29 38 61q31 31 61 31q18 0 56 -53q41 -53 66 -53 q59 0 129 211q48 145 72 276q2 10 2.5 23.5t1.5 31.5q1 19 1.5 32.5t2.5 23.5q7 34 35 63q28 31 59 31q63 0 36 -159z" />
<glyph unicode="k" horiz-adv-x="471" d="M517 53q-5 -32 -42 -60q-34 -28 -71 -28q-73 0 -143 29q-78 30 -102 86q-101 -111 -132 -111q-33 0 -27 45q13 72 38 175.5t63 244.5t63 245t37 174q8 43 13.5 91.5t9.5 103.5q3 46 5 71t3 30q4 25 34 52q31 28 55 28q22 0 32 -22q22 -64 -27 -343q-11 -60 -27.5 -134 t-39.5 -165q-37 -148 -55.5 -221.5t-19.5 -77.5q133 150 272 208q27 11 37 11q42 0 34 -38q-8 -48 -111 -109q-102 -61 -112 -113q-12 -66 63 -97q32 -10 64 -19t64 -19q26 -10 22 -37z" />
<glyph unicode="l" horiz-adv-x="135" d="M331 1082q-39 -218 -159 -756q-8 -40 -17 -79.5t-17 -79.5q-24 -119 -41 -147q-27 -45 -65 -45q-36 0 -20 97q22 118 63 321q25 120 42 199.5t25 122.5q19 99 39 207.5t43 234.5q3 23 38 52q34 28 59 28q12 0 18 -7.5t6.5 -25.5t-3.5 -47.5t-11 -74.5z" />
<glyph unicode="m" horiz-adv-x="580" d="M601 92q-17 -89 -80 -118q-17 -9 -35 -9q-31 0 -30 55q2 9 3.5 21.5t3.5 28.5q15 139 -12 210q-23 -36 -45 -96q-14 -38 -24 -61.5t-15 -33.5q-39 -86 -108 -86q-41 0 -29 69q3 10 6.5 25.5t7.5 36.5q9 47 12 64q28 157 -15 157q-45 0 -108 -128q-25 -54 -40.5 -96 t-20.5 -73q-2 -7 1.5 -16.5t1.5 -17.5q-2 -20 -24 -35q-23 -17 -42 -17q-23 0 -35 30q-11 29 -5 56q19 115 121 259q118 163 222 163q74 0 86 -122q90 94 133 94q59 0 73 -153q10 -122 -3 -207z" />
<glyph unicode="n" horiz-adv-x="355" d="M423 309q-10 -60 -32 -122t-56 -129q-41 -74 -103 -74q-37 0 -31 38q6 31 24 77q31 71 31 77q8 25 16 55t15 66q7 49 -4 49q-47 0 -123 -133q-64 -117 -75 -179q-3 -20 -27 -38q-24 -21 -43 -21q-14 0 -21 34q-8 32 -5 46q12 86 91 201q79 111 159 171q75 54 121 54 q43 0 60 -66q12 -55 3 -106z" />
<glyph unicode="o" d="M364 203q8 50 -28 96t-83 46q-71 0 -96 -138q-15 -94 60 -94q42 0 87 24q52 27 60 66zM514 265q-20 -110 -138 -197q-119 -86 -229 -86q-75 0 -106 44t-17 117q20 115 109 222q101 116 210 116q81 0 134 -68q52 -67 37 -148z" />
<glyph unicode="p" horiz-adv-x="403" d="M314 193q7 39 -12 94q-24 59 -60 59q-50 0 -90 -196q34 -49 72 -49q73 0 90 92zM456 253q-17 -94 -103 -180q-92 -87 -182 -87q-21 0 -38 5q0 -8 1 -40.5t3 -92.5q2 -43 1 -75.5t-5 -54.5q-4 -27 -42 -59t-64 -32q-23 0 -31 26q-17 65 -15 193q3 117 18 199 q22 133 100 264q102 161 220 161q74 0 113 -79q37 -72 24 -148z" />
<glyph unicode="q" horiz-adv-x="428" d="M471 218q-8 -45 -31.5 -128t-65.5 -210q-6 -24 -16.5 -59t-26.5 -81q-12 -26 -47 -55t-60 -29q-39 0 -26 70q2 17 10 45t21 70q40 121 65 208.5t35 145.5q28 151 -41 151q-48 0 -82 -36q-35 -35 -42 -85q-24 -135 94 -135q36 0 32 -30q-8 -41 -54 -60q-33 -14 -79 -14 q-79 0 -113 60q-29 59 -13 137q18 110 125 205t216 95q145 0 99 -265z" />
<glyph unicode="r" horiz-adv-x="440" d="M534 317q-5 -29 -42 -60q-36 -30 -65 -30q-21 0 -51 56q-30 57 -74 57q-78 0 -121 -94q-14 -43 -28 -85.5t-28 -87.5q-37 -91 -108 -91q-35 0 -28 37q5 26 26.5 108t63.5 225q34 121 85 121q20 0 25 -75q106 82 202 82q67 0 111 -48t32 -115z" />
<glyph unicode="s" horiz-adv-x="420" d="M541 416q-3 -20 -29 -38t-46 -18q-10 0 -23.5 0.5t-32.5 1.5q-36 3 -55 3q-53 0 -99 -20q26 -19 53 -37.5t55 -36.5q54 -47 42 -117q-15 -86 -112 -134q-82 -38 -175 -38q-18 0 -71 14q-52 12 -50 26q3 26 34 54t58 35q21 3 50 3h58q10 0 29 -6t29 -6q7 0 9 2 q7 46 -84 101q-92 56 -84 95q12 66 137 128q114 53 186 53q24 0 73 -20q51 -23 48 -45z" />
<glyph unicode="t" horiz-adv-x="326" d="M492 442q-6 -25 -38 -54q-32 -26 -61 -26q-10 0 -101 3q-11 -45 -21.5 -89.5t-21.5 -89.5q-34 -136 -53 -166q-27 -41 -66 -41q-10 0 -14 42q-5 44 -3 59q11 56 64 280q-32 -2 -58 -3.5t-47 -1.5q-30 0 -26 31q10 58 157 83q26 112 49.5 227.5t46.5 242.5q3 24 38 50 t59 26q31 0 26 -71q-5 -24 -9 -57q-16 -85 -38.5 -186.5t-51.5 -219.5q3 0 8.5 0.5t13.5 1.5h20q22 0 75 -15q54 -13 52 -26z" />
<glyph unicode="u" horiz-adv-x="541" d="M572 101q-5 -29 -43 -61q-37 -31 -66 -31q-35 0 -77 131q-125 -158 -248 -158q-70 0 -100 61q-23 55 -9 129q10 57 82 176q82 132 128 132q34 0 27 -36q-5 -26 -50 -102q-22 -38 -35 -67.5t-17 -49.5q-5 -38 7 -70q14 -41 46 -41q53 0 104 132q60 147 116 177 q23 14 39 14q24 0 33 -27q3 -7 18 -106q8 -38 20 -85.5t28 -105.5z" />
<glyph unicode="v" horiz-adv-x="369" d="M536 422q-4 -17 -29 -45q-54 -60 -87.5 -99.5t-49.5 -59.5q-62 -77 -117 -170q-15 -24 -48 -47q-31 -22 -53 -22q-26 0 -33 21q-5 20 -9.5 46t-7.5 60q-3 46 -5.5 73.5t-4.5 35.5q-8 58 -36 164q-8 25 -3 48q1 9 8 18.5t16 17.5t19.5 13t19.5 5q79 0 118 -268 q212 248 268 248q41 0 34 -39z" />
<glyph unicode="w" horiz-adv-x="642" d="M730 372q-20 -119 -119 -230q-111 -123 -225 -123q-76 0 -113 75q-101 -110 -177 -110q-57 0 -69 79q-7 57 5 130q12 64 50 167q51 128 94 128q31 0 25 -36q-3 -19 -10 -47.5t-18 -67.5t-17.5 -67.5t-10.5 -47.5q-19 -118 19 -118l12 17q124 166 186 166q28 0 47 -67 q21 -66 59 -66q93 0 133 232q4 31 39 63q34 31 67 31q44 0 23 -108z" />
<glyph unicode="x" horiz-adv-x="439" d="M538 442q-8 -33 -50 -65q-45 -35 -84 -67.5t-73 -63.5q110 -152 102 -191q-5 -26 -37 -52q-32 -24 -58 -24q-19 0 -123 158q-163 -148 -223 -148q-15 0 -30.5 10t-13.5 23q9 45 61 57q34 20 74.5 52.5t88.5 80.5q-83 137 -71 208q3 21 25 40q22 21 41 21t45 -48 q17 -32 35 -61t35 -55q175 163 227 163q35 0 29 -38z" />
<glyph unicode="y" horiz-adv-x="474" d="M515 154q-34 -197 -138 -445q-12 -29 -42 -53t-60 -24q-34 0 -26 53q13 68 60 208q46 132 58 206q2 7 3.5 18t3.5 26q-128 -161 -226 -161q-152 0 -100 301q25 147 95 191q17 11 33 11q28 0 24 -31q-2 -9 -14 -31q-7 -10 -15 -56q-47 -261 42 -261q27 0 89 104 q18 33 36 66.5t37 68.5q15 24 45 49q32 26 54 26q48 0 53 -111q5 -72 -12 -155z" />
<glyph unicode="z" horiz-adv-x="449" d="M524 379q-17 -95 -193 -225q147 0 126 -116q-18 -108 -194 -244q-41 -30 -67 -30q-37 0 -29 41q4 24 69 86q66 62 71 95q7 33 -58 33q-41 0 -108 -21q-72 -23 -81 -23q-36 0 -29 37q10 56 179 172q170 116 174 145q4 28 -46 28q-45 0 -133 -15q-45 -7 -78 -10.5t-55 -3.5 q-80 0 -72 51q5 25 44 44q36 17 60 17q23 0 58.5 5t84.5 15q51 10 87 15t59 5q54 0 92 -23q46 -27 39 -78z" />
<glyph unicode="{" horiz-adv-x="618" d="M618 61q-5 -31 -43 -59q-37 -28 -68 -28q-336 0 -297 224q22 118 140 210q14 10 34 25.5t46 37.5q-24 9 -46 9q-34 0 -103 -12q-35 -5 -60 -8t-42 -3q-25 0 -56 12q-36 13 -33 33q9 48 77 89q43 22 120 30q83 10 121 24q5 11 6 19q1 9 -27 39q-17 23 -29.5 41.5 t-19.5 33.5q-24 57 -12 127q26 141 162 238q127 93 273 93q51 0 43 -35q-5 -18 -26 -38q-23 -20 -41 -23q-9 -1 -23.5 -2t-34.5 -3q-78 -11 -136 -51q-70 -48 -82 -120q-14 -75 45 -140t50 -114q-6 -44 -51 -97q103 -26 96 -69q-9 -53 -120 -147q-111 -95 -117 -139 q-14 -74 51 -110q36 -19 128 -39q82 -17 75 -48z" />
<glyph unicode="|" horiz-adv-x="157" d="M343 1082q-14 -81 -42.5 -221.5t-73.5 -346.5q-99 -468 -119 -497q-24 -33 -72 -45l-19 22q-2 34 10 96q11 61 27 142t38 184q26 123 42.5 203.5t24.5 122.5q18 93 37.5 195t39.5 220q3 23 38 52q34 28 59 28q13 0 18.5 -8t6 -26t-3.5 -48t-11 -73z" />
<glyph unicode="}" horiz-adv-x="611" d="M732 703q-8 -49 -82 -89q-46 -23 -119 -32q-86 -9 -118 -22q-5 -5 -5 -10q-4 -18 25 -50q39 -47 50 -73q24 -57 12 -128q-25 -140 -162 -238q-128 -87 -273 -87q-45 0 -41 28q3 19 22 38q20 21 41 23l56 9q80 10 142 49q68 46 82 118q14 77 -48 142q-60 66 -51 114 q8 47 49 97q-100 24 -94 67q9 50 121 147q113 101 122 139q2 14 -4 35q-12 63 -82 90q-5 2 -34.5 9.5t-84.5 19.5q-60 12 -55 44q6 31 43 62t68 31q138 0 217 -46q103 -60 80 -185q-19 -116 -141 -208q-14 -10 -33.5 -25.5t-45.5 -37.5q17 -7 46 -7q34 0 103 12 q70 12 104 12q22 0 58 -15q36 -14 32 -33z" />
<glyph unicode="~" horiz-adv-x="473" d="M515 270q-11 -62 -83 -125q-74 -65 -133 -65q-48 0 -93 48q-44 48 -59 48v-4q-11 -13 -20.5 -25t-18.5 -24q-29 -29 -53 -29q-31 0 -26 32q1 2 5.5 11.5t14.5 26.5q81 124 176 124q45 0 77 -29q44 -39 62 -46q67 94 117 94q41 0 34 -37z" />
<glyph unicode="&#xa1;" horiz-adv-x="324" d="M468 1137q-4 -38 -51 -79t-82 -41q-20 0 -37 32q-15 35 -11 55q7 36 49 87q44 50 79 50q15 0 35 -44q21 -44 18 -60zM370 925q-2 -12 -14 -59t-33 -132q-4 -12 -34 -122.5t-88 -324.5q-8 -30 -15.5 -59.5t-14.5 -58.5q-8 -35 -18.5 -64t-22.5 -52q-36 -71 -96 -71 q-35 0 -31 40q5 30 21.5 88.5t43.5 148.5q23 76 57 188.5t80 265.5q10 42 20.5 81.5t21.5 79.5q43 118 98 118q35 0 25 -67z" />
<glyph unicode="&#xa2;" horiz-adv-x="495" d="M433 961q-7 1 -11 1.5t-6 0.5q-49 0 -87 -41q-37 -40 -46 -93q-18 -109 -8 -160q45 87 84.5 159t73.5 133zM643 843q-17 -94 -87 -104l-20 15l-7 79q-5 46 -22 72l-178 -321q28 -19 74 -19q13 0 40 6q28 6 42 6q41 0 32 -41q-7 -46 -82 -77q-62 -27 -114 -27 q-41 0 -68 10q-22 -42 -34 -66t-16 -30q-40 -61 -80 -61q-31 0 -24 31q3 20 80 172q-75 84 -46 246q22 121 118 232q104 119 220 119h17h9t8 -1q79 148 132 148q36 0 32 -36q-2 -7 -85 -150q83 -74 59 -203z" />
<glyph unicode="&#xa5;" horiz-adv-x="788" d="M995 1094q-2 -14 -17 -57t-41 -115q-28 -76 -70.5 -179.5t-100.5 -239.5q29 4 46.5 5.5t23.5 1.5q40 0 33 -37q-12 -65 -137 -86q72 9 89 9q40 0 32 -38q-13 -75 -186 -95q-8 -22 -15 -38.5t-12 -29.5q-49 -132 -49 -137q-43 -79 -106 -79q-40 0 -33 40q7 37 27 95.5 t52 143.5q-96 23 -92 42q7 48 66 65q25 5 70 5l7 16q-129 24 -125 46q12 72 173 70l78 182q-199 -211 -362 -211q-150 0 -198 138q-34 102 -5 271q25 142 87 289q25 58 91 70l25 -16l-3 -18q0 6 -32 -84q-29 -80 -45 -171q-23 -131 0 -223q32 -125 145 -125q101 0 231 145 q45 49 86 108t83 128l44 77q49 76 108 76q41 0 32 -44z" />
<glyph unicode="&#xa8;" horiz-adv-x="386" d="M437 1473q-5 -32 -53 -61q-48 -30 -79 -30q-10 0 -21 23t-9 35q5 35 43 64q41 29 73 29q56 0 46 -60zM628 1476q-8 -35 -47 -64q-41 -30 -78 -30q-51 0 -44 40q7 39 39 77q33 39 69 39q27 0 45.5 -17t15.5 -45z" />
<glyph unicode="&#xa9;" horiz-adv-x="797" d="M850 367q-31 -170 -208 -285q-160 -100 -337 -100q-128 0 -201 66q-80 71 -58 198q14 77 82 179q34 51 68.5 90t69.5 67q28 22 48 22q34 0 29 -32q0 -4 -80 -99t-92 -168q-29 -152 129 -189q-123 31 -105 126q15 87 132 190q119 104 205 104q30 0 52 -19q25 -20 20 -46 q-5 -22 -27 -38.5t-45 -16.5q-5 0 -16 2t-16 2q-60 0 -121 -58q-41 -37 -46 -63q-9 -49 77 -63q14 -2 45.5 -3t80.5 -1q41 0 34 -37q-5 -31 -55 -65q164 50 185 167q26 153 -176 275l-46 27q-29 20 -26 44q4 29 39 58t64 29q8 0 39 -11q295 -132 256 -352z" />
<glyph unicode="&#xab;" horiz-adv-x="698" d="M393 101q-6 -29 -41 -58t-64 -29q-12 0 -22 6q-14 8 -44.5 31.5t-81.5 62.5q-104 82 -102 93q6 39 83 83q8 5 36.5 19t76.5 37q25 11 52 29.5t57 44.5q31 24 51 24q33 0 26 -34q-12 -73 -181 -161q164 -90 154 -148zM705 101q-5 -29 -40 -58t-63 -29q-13 0 -23 6 q-14 8 -45 31.5t-80 62.5q-104 82 -102 93q6 39 81 83q10 5 37.5 19t75.5 37q48 22 111 74q31 24 50 24q34 0 27 -34q-12 -73 -181 -161q162 -90 152 -148z" />
<glyph unicode="&#xad;" d="M509 259q-6 -23 -38 -52q-31 -28 -59 -34q-29 -6 -95 -6q-9 0 -22.5 0.5t-32.5 1.5q-38 3 -55 3t-48 -3q-16 -1 -27 -1.5t-19 -0.5q-16 0 -43 12q-33 13 -32 26q5 31 46 53q68 41 273 41q158 0 152 -40z" />
<glyph unicode="&#xae;" horiz-adv-x="893" d="M526 555q12 63 -16 63q-51 0 -100 -210q70 46 80 56q26 26 36 91zM964 439q-32 -183 -215 -323q-178 -130 -363 -130q-171 0 -258 104q-87 107 -56 275q22 128 107 252q86 125 202 199q22 12 32 12q32 0 26 -33q-5 -20 -53 -65q-67 -61 -67 -63q-94 -103 -118 -240 q-29 -162 75 -251q-10 70 0 128q49 273 180 384q67 60 126 60q54 0 77 -53q17 -49 7 -104q-24 -132 -168 -239q22 -11 43 -23t43 -24q52 -35 44 -76q-5 -29 -39 -57q-35 -27 -63 -27q-34 0 -154 87q-13 -66 -48 -89q55 -27 133 -27q126 0 226 70q111 74 131 196 q15 83 -29 169q-27 51 -90 123q-53 56 -50 70q4 27 42 60q37 34 66 34q19 0 75 -50q172 -145 136 -349z" />
<glyph unicode="&#xb0;" horiz-adv-x="304" d="M357 1024q8 44 -45 68q-7 -10 -12 -25q-8 -50 46 -50q10 0 11 7zM493 1079q-12 -75 -82 -127q-71 -53 -143 -53q-109 0 -89 116q12 64 57 111l3 12q7 41 47 67q41 26 83 26q60 0 98 -45q38 -44 26 -107z" />
<glyph unicode="&#xb1;" horiz-adv-x="469" d="M517 300q-3 -23 -35 -52t-57 -33q-18 -4 -41.5 -6t-52.5 -1l-8 -48q-9 -46 -45 -76h41q159 1 152 -40q-5 -25 -38 -50q-32 -27 -60 -33q-27 -6 -93 -6q-19 0 -56 3q-18 1 -31.5 1.5t-23.5 0.5q-8 0 -19.5 -0.5t-27.5 -1.5q-32 -3 -47 -3q-16 0 -44 12q-32 14 -31 25 q13 73 196 88q-7 28 -3 41q4 23 8 45.5t9 45.5l-10 1q-15 0 -40 -3q-13 -1 -22 -1.5t-15 -0.5q-16 0 -44 12q-35 14 -33 26q4 28 46 53q49 30 144 36l3 32q3 22 12 51q3 9 11 18.5t18 17t21 12.5t20 5q51 0 29 -133q51 1 77 1.5t30 0.5q16 0 40 -12t20 -28z" />
<glyph unicode="&#xb4;" horiz-adv-x="345" d="M570 1498q-1 -6 -9 -20q-13 -28 -98 -96q-140 -111 -168 -111q-41 0 -32 41q4 33 147 152q90 75 124 75q44 0 36 -41z" />
<glyph unicode="&#xb6;" horiz-adv-x="913" d="M1034 761q2 12 -39 -169q-22 -102 -55.5 -251t-81.5 -350q-8 -32 -16.5 -59t-18.5 -49q-40 -82 -104 -82q-40 0 -31 41q2 14 17 80t44 187q19 75 51 213.5t77 344.5q5 22 7.5 35t2.5 17q29 166 -8 256q-53 122 -164 122q-125 0 -273 -117q-154 -121 -176 -244 q-20 -107 63 -186q71 -69 181 -89q8 46 14 75t8 41q14 81 22.5 142.5t12.5 106.5q5 63 7.5 92.5t2.5 26.5q5 27 35 55q30 27 57 27q21 0 29 -23q17 -80 -22 -299q-14 -83 -51 -242q35 10 83 58q40 40 65 40q32 0 24 -35q-2 -14 -24 -45q-66 -94 -171 -124q-32 -140 -99 -516 q-3 -17 -26 -37q-23 -18 -42 -18q-22 0 -27 20q-14 60 25 283q8 42 20.5 104.5l29.5 147.5q-155 2 -263 96q-116 104 -89 256q31 175 257 357q226 181 404 181q110 0 181 -81q60 -72 71 -187q11 -90 -10 -202z" />
<glyph unicode="&#xbb;" horiz-adv-x="642" d="M679 246q-8 -42 -143 -134q-135 -93 -178 -93q-38 0 -30 39q7 39 175 145q-161 135 -153 176q1 10 8 21t16.5 19.5t21 14t22.5 5.5q12 0 142 -91q18 -11 35.5 -22.5t34.5 -23.5q54 -36 49 -56zM404 246q-6 -41 -142 -134q-137 -93 -178 -93q-39 0 -31 39q7 38 176 145 q-161 137 -154 176q2 10 8.5 21t16.5 19.5t21.5 14t23.5 5.5q10 0 140 -91q18 -11 36 -22.5t36 -23.5q53 -36 47 -56z" />
<glyph unicode="&#xbf;" horiz-adv-x="836" d="M1036 1149q-10 -52 -63 -97t-106 -45q-19 0 -44 16q-26 17 -23 32q10 55 67 116q55 61 109 61q16 0 39 -33t21 -50zM874 237q-5 -29 -72 -87q-27 -23 -51 -40.5t-44 -29.5q-184 -101 -405 -101q-118 0 -189 38q-93 53 -74 159q21 112 214 263q48 38 135 97t218 140 q188 119 194 152q0 1 -2 7t-4 14t-4 16.5t-2 15.5q6 30 41 62q34 33 64 33t48 -29q18 -28 13 -60q-19 -100 -212 -237q-91 -57 -178.5 -114.5t-177.5 -115.5q-190 -124 -202 -188q-23 -126 224 -126q171 0 334 97l-3 4q48 78 99 78q43 0 36 -48z" />
<glyph unicode="&#xc0;" horiz-adv-x="870" d="M79 0zM978 96q-5 -33 -45 -63q-39 -30 -73 -30q-18 0 -46 16q-76 37 -114 116q-187 -149 -333 -149q-171 0 -251 164q-70 148 -37 330q46 264 262 489q52 52 107.5 96.5t116.5 81.5q149 89 259 89q226 0 162 -357q-22 -135 -105 -335q-104 -257 -188 -257q-31 0 -26 29 q0 5 4 12q148 300 181 489q51 287 -101 287q-126 0 -287 -143q-196 -179 -239 -418q-42 -248 94 -369q60 -51 130 -51q85 0 204 98q122 98 144 98t32 -25q29 -76 48 -98q15 -15 82 -63q22 -15 19 -37zM804 1312q-9 -41 -52 -41q-29 0 -128 111q-43 52 -46 52q-25 31 -17 64 q8 41 48 41q34 0 97 -75q103 -119 98 -152z" />
<glyph unicode="&#xc1;" horiz-adv-x="870" d="M79 0zM978 96q-5 -33 -45 -63q-39 -30 -73 -30q-18 0 -46 16q-76 37 -114 116q-187 -149 -333 -149q-171 0 -251 164q-70 148 -37 330q46 264 262 489q52 52 107.5 96.5t116.5 81.5q149 89 259 89q226 0 162 -357q-22 -135 -105 -335q-104 -257 -188 -257q-31 0 -26 29 q0 5 4 12q148 300 181 489q51 287 -101 287q-126 0 -287 -143q-196 -179 -239 -418q-42 -248 94 -369q60 -51 130 -51q85 0 204 98q122 98 144 98t32 -25q29 -76 48 -98q15 -15 82 -63q22 -15 19 -37zM980 1498q-1 -6 -9 -20q-13 -28 -98 -96q-140 -111 -168 -111 q-41 0 -32 41q4 33 147 152q90 75 124 75q44 0 36 -41z" />
<glyph unicode="&#xc2;" horiz-adv-x="870" d="M79 0zM978 96q-5 -33 -45 -63q-39 -30 -73 -30q-18 0 -46 16q-76 37 -114 116q-187 -149 -333 -149q-171 0 -251 164q-70 148 -37 330q46 264 262 489q52 52 107.5 96.5t116.5 81.5q149 89 259 89q226 0 162 -357q-22 -135 -105 -335q-104 -257 -188 -257q-31 0 -26 29 q0 5 4 12q148 300 181 489q51 287 -101 287q-126 0 -287 -143q-196 -179 -239 -418q-42 -248 94 -369q60 -51 130 -51q85 0 204 98q122 98 144 98t32 -25q29 -76 48 -98q15 -15 82 -63q22 -15 19 -37zM977 1403q-6 -27 -39 -59q-35 -32 -60 -32q-29 0 -45 54q-15 54 -31 54 q-23 0 -74 -51q-50 -50 -77 -50q-30 0 -26 31q10 51 99 119q90 69 143 69q49 0 84 -44q34 -41 26 -91z" />
<glyph unicode="&#xc3;" horiz-adv-x="870" d="M79 0zM978 96q-5 -33 -45 -63q-39 -30 -73 -30q-18 0 -46 16q-76 37 -114 116q-187 -149 -333 -149q-171 0 -251 164q-70 148 -37 330q46 264 262 489q52 52 107.5 96.5t116.5 81.5q149 89 259 89q226 0 162 -357q-22 -135 -105 -335q-104 -257 -188 -257q-31 0 -26 29 q0 5 4 12q148 300 181 489q51 287 -101 287q-126 0 -287 -143q-196 -179 -239 -418q-42 -248 94 -369q60 -51 130 -51q85 0 204 98q122 98 144 98t32 -25q29 -76 48 -98q15 -15 82 -63q22 -15 19 -37zM1101 1519q-11 -62 -83 -125q-74 -65 -132 -65q-49 0 -92 48 q-44 48 -60 48v-3q-10 -13 -20 -25t-21 -25q-26 -29 -53 -29q-30 0 -25 33q1 3 6.5 12t15.5 25q80 125 176 125q42 0 77 -29q41 -38 61 -46q67 93 116 93q41 0 34 -37z" />
<glyph unicode="&#xc4;" horiz-adv-x="870" d="M79 0zM978 96q-5 -33 -45 -63q-39 -30 -73 -30q-18 0 -46 16q-76 37 -114 116q-187 -149 -333 -149q-171 0 -251 164q-70 148 -37 330q46 264 262 489q52 52 107.5 96.5t116.5 81.5q149 89 259 89q226 0 162 -357q-22 -135 -105 -335q-104 -257 -188 -257q-31 0 -26 29 q0 5 4 12q148 300 181 489q51 287 -101 287q-126 0 -287 -143q-196 -179 -239 -418q-42 -248 94 -369q60 -51 130 -51q85 0 204 98q122 98 144 98t32 -25q29 -76 48 -98q15 -15 82 -63q22 -15 19 -37zM724 1473q-5 -32 -53 -61q-48 -30 -79 -30q-10 0 -21 23t-9 35 q5 35 43 64q41 29 73 29q56 0 46 -60zM915 1476q-8 -35 -47 -64q-41 -30 -78 -30q-51 0 -44 40q7 39 39 77q33 39 69 39q27 0 45.5 -17t15.5 -45z" />
<glyph unicode="&#xc5;" horiz-adv-x="870" d="M79 0zM978 96q-5 -33 -45 -63q-39 -30 -73 -30q-18 0 -46 16q-76 37 -114 116q-187 -149 -333 -149q-171 0 -251 164q-70 148 -37 330q46 264 262 489q52 52 107.5 96.5t116.5 81.5q149 89 259 89q226 0 162 -357q-22 -135 -105 -335q-104 -257 -188 -257q-31 0 -26 29 q0 5 4 12q148 300 181 489q51 287 -101 287q-126 0 -287 -143q-196 -179 -239 -418q-42 -248 94 -369q60 -51 130 -51q85 0 204 98q122 98 144 98t32 -25q29 -76 48 -98q15 -15 82 -63q22 -15 19 -37zM863 1457q7 45 -44 69q-8 -11 -12 -24q-8 -50 46 -50q8 0 10 5z M1000 1514q-12 -76 -82 -128q-71 -53 -143 -53q-108 0 -89 118q10 63 56 109l4 14q7 40 47 66q41 26 82 26q62 0 99 -46q38 -45 26 -106z" />
<glyph unicode="&#xc6;" horiz-adv-x="1618" d="M1034 560q-84 35 -104 116q-128 -389 -237 -389q-31 0 -26 29q0 5 4 12q75 157 120 278.5t61 210.5q51 287 -101 287q-126 0 -287 -143q-196 -179 -239 -418q-42 -248 94 -369q60 -51 130 -51q81 0 203 98t145 98q6 0 17 -8q60 134 220 249zM1761 150q-11 -54 -84 -88 q-38 -17 -103.5 -31.5t-160.5 -27.5q-85 -10 -152 -15.5t-118 -5.5q-132 0 -227 40q-25 -19 -56 -19q-18 0 -46 16q-76 36 -114 116q-187 -149 -333 -149q-171 0 -251 164q-70 148 -37 330q46 264 262 489q52 52 107.5 96.5t116.5 81.5q149 89 259 89q224 0 161 -354 q90 144 237 244q157 106 305 106q89 0 163 -41q85 -49 70 -133q-6 -37 -49 -91q-42 -56 -74 -56q-29 0 -24 29q1 6 5 14.5t8.5 18t8.5 18t5 14.5q20 104 -172 104q-154 0 -287 -126q-90 -87 -106 -174q-17 -89 60 -120q51 -17 154 -17q45 0 37 -41q-8 -51 -73 -81 q-26 -11 -53 -20.5t-55 -19.5q-179 -77 -203 -210q-31 -181 304 -181q81 0 241 34q166 35 242 35q37 0 32 -38z" />
<glyph unicode="&#xc8;" horiz-adv-x="807" d="M20 0zM986 150q-10 -60 -87 -92q-38 -16 -104 -29.5t-160 -26.5q-82 -10 -149 -15t-119 -5q-152 0 -249 54q-120 71 -98 208q29 164 239 316q-129 51 -105 188q17 95 111 209q43 52 87.5 94.5t92.5 74.5q160 106 306 106q88 0 162 -41q85 -49 70 -133q-4 -34 -48 -91 q-42 -56 -75 -56q-27 0 -22 29q1 6 5 14.5t8 18t8 18t5 14.5q18 104 -173 104q-153 0 -283 -126q-96 -90 -109 -174q-17 -89 61 -120q49 -17 154 -17q42 0 36 -41q-9 -51 -74 -81q-26 -11 -53 -20.5t-54 -19.5q-180 -78 -203 -210q-33 -181 303 -181q82 0 242 34 q82 17 142 26t99 9q40 0 34 -38zM743 1312q-9 -41 -52 -41q-29 0 -128 111q-43 52 -46 52q-25 31 -17 64q8 41 48 41q34 0 97 -75q103 -119 98 -152z" />
<glyph unicode="&#xc9;" horiz-adv-x="807" d="M20 0zM986 150q-10 -60 -87 -92q-38 -16 -104 -29.5t-160 -26.5q-82 -10 -149 -15t-119 -5q-152 0 -249 54q-120 71 -98 208q29 164 239 316q-129 51 -105 188q17 95 111 209q43 52 87.5 94.5t92.5 74.5q160 106 306 106q88 0 162 -41q85 -49 70 -133q-4 -34 -48 -91 q-42 -56 -75 -56q-27 0 -22 29q1 6 5 14.5t8 18t8 18t5 14.5q18 104 -173 104q-153 0 -283 -126q-96 -90 -109 -174q-17 -89 61 -120q49 -17 154 -17q42 0 36 -41q-9 -51 -74 -81q-26 -11 -53 -20.5t-54 -19.5q-180 -78 -203 -210q-33 -181 303 -181q82 0 242 34 q82 17 142 26t99 9q40 0 34 -38zM939 1498q-1 -6 -9 -20q-13 -28 -98 -96q-140 -111 -168 -111q-41 0 -32 41q4 33 147 152q90 75 124 75q44 0 36 -41z" />
<glyph unicode="&#xca;" horiz-adv-x="807" d="M20 0zM986 150q-10 -60 -87 -92q-38 -16 -104 -29.5t-160 -26.5q-82 -10 -149 -15t-119 -5q-152 0 -249 54q-120 71 -98 208q29 164 239 316q-129 51 -105 188q17 95 111 209q43 52 87.5 94.5t92.5 74.5q160 106 306 106q88 0 162 -41q85 -49 70 -133q-4 -34 -48 -91 q-42 -56 -75 -56q-27 0 -22 29q1 6 5 14.5t8 18t8 18t5 14.5q18 104 -173 104q-153 0 -283 -126q-96 -90 -109 -174q-17 -89 61 -120q49 -17 154 -17q42 0 36 -41q-9 -51 -74 -81q-26 -11 -53 -20.5t-54 -19.5q-180 -78 -203 -210q-33 -181 303 -181q82 0 242 34 q82 17 142 26t99 9q40 0 34 -38zM874 1403q-6 -27 -39 -59q-35 -32 -60 -32q-29 0 -45 54q-15 54 -31 54q-23 0 -74 -51q-50 -50 -77 -50q-30 0 -26 31q10 51 99 119q90 69 143 69q49 0 84 -44q34 -41 26 -91z" />
<glyph unicode="&#xcb;" horiz-adv-x="807" d="M20 0zM986 150q-10 -60 -87 -92q-38 -16 -104 -29.5t-160 -26.5q-82 -10 -149 -15t-119 -5q-152 0 -249 54q-120 71 -98 208q29 164 239 316q-129 51 -105 188q17 95 111 209q43 52 87.5 94.5t92.5 74.5q160 106 306 106q88 0 162 -41q85 -49 70 -133q-4 -34 -48 -91 q-42 -56 -75 -56q-27 0 -22 29q1 6 5 14.5t8 18t8 18t5 14.5q18 104 -173 104q-153 0 -283 -126q-96 -90 -109 -174q-17 -89 61 -120q49 -17 154 -17q42 0 36 -41q-9 -51 -74 -81q-26 -11 -53 -20.5t-54 -19.5q-180 -78 -203 -210q-33 -181 303 -181q82 0 242 34 q82 17 142 26t99 9q40 0 34 -38zM724 1473q-5 -32 -53 -61q-48 -30 -79 -30q-10 0 -21 23t-9 35q5 35 43 64q41 29 73 29q56 0 46 -60zM915 1476q-8 -35 -47 -64q-41 -30 -78 -30q-51 0 -44 40q7 39 39 77q33 39 69 39q27 0 45.5 -17t15.5 -45z" />
<glyph unicode="&#xcc;" horiz-adv-x="191" d="M7 0zM410 1184q-2 -9 -6.5 -23.5t-12.5 -34.5q-40 -103 -74 -220.5t-63 -255.5q-12 -57 -34 -175t-54 -304q-17 -81 -33 -120q-35 -77 -104 -77q-36 0 -22 74q4 31 48 256q50 242 98.5 429t97.5 323q66 181 131 181q39 0 28 -53zM458 1312q-9 -41 -52 -41q-29 0 -128 111 q-43 52 -46 52q-25 31 -17 64q8 41 48 41q34 0 97 -75q103 -119 98 -152z" />
<glyph unicode="&#xcd;" horiz-adv-x="191" d="M7 0zM410 1184q-2 -9 -6.5 -23.5t-12.5 -34.5q-40 -103 -74 -220.5t-63 -255.5q-12 -57 -34 -175t-54 -304q-17 -81 -33 -120q-35 -77 -104 -77q-36 0 -22 74q4 31 48 256q50 242 98.5 429t97.5 323q66 181 131 181q39 0 28 -53zM570 1498q-1 -6 -9 -20q-13 -28 -98 -96 q-140 -111 -168 -111q-41 0 -32 41q4 33 147 152q90 75 124 75q44 0 36 -41z" />
<glyph unicode="&#xce;" horiz-adv-x="191" d="M7 0zM410 1184q-2 -9 -6.5 -23.5t-12.5 -34.5q-40 -103 -74 -220.5t-63 -255.5q-12 -57 -34 -175t-54 -304q-17 -81 -33 -120q-35 -77 -104 -77q-36 0 -22 74q4 31 48 256q50 242 98.5 429t97.5 323q66 181 131 181q39 0 28 -53zM569 1403q-6 -27 -39 -59 q-35 -32 -60 -32q-29 0 -45 54q-15 54 -31 54q-23 0 -74 -51q-50 -50 -77 -50q-30 0 -26 31q10 51 99 119q90 69 143 69q49 0 84 -44q34 -41 26 -91z" />
<glyph unicode="&#xcf;" horiz-adv-x="191" d="M7 0zM410 1184q-2 -9 -6.5 -23.5t-12.5 -34.5q-40 -103 -74 -220.5t-63 -255.5q-12 -57 -34 -175t-54 -304q-17 -81 -33 -120q-35 -77 -104 -77q-36 0 -22 74q4 31 48 256q50 242 98.5 429t97.5 323q66 181 131 181q39 0 28 -53zM398 1473q-5 -32 -53 -61 q-48 -30 -79 -30q-10 0 -21 23t-9 35q5 35 43 64q41 29 73 29q56 0 46 -60zM589 1476q-8 -35 -47 -64q-41 -30 -78 -30q-51 0 -44 40q7 39 39 77q33 39 69 39q27 0 45.5 -17t15.5 -45z" />
<glyph unicode="&#xd1;" horiz-adv-x="882" d="M0 0zM993 594q-63 -357 -239 -512q-113 -98 -244 -98q-34 0 -54 5q-157 30 -178 366q-5 63 -1.5 182.5t15.5 303.5q-19 -64 -42 -154.5t-50 -210.5q-29 -128 -51 -218t-38 -147q-19 -71 -32 -91q-33 -45 -70 -45q-24 0 -20 28q0 -2 45 198q23 118 47 235.5t50 237.5 q69 297 147 459q50 104 116 104q48 0 50 -186q0 -38 -4 -117t-12 -205q-7 -100 -7 -180t6 -141q24 -289 160 -289q178 0 246 374q34 198 39 425q0 2 -0.5 30.5l-1.5 85.5q-1 36 1 66t6 54q5 29 43 60q41 32 68 32q25 0 30 -27q5 -26 6 -166q0 -292 -31 -459zM937 1519 q-11 -62 -83 -125q-74 -65 -132 -65q-49 0 -92 48q-44 48 -60 48v-3q-10 -13 -20 -25t-21 -25q-26 -29 -53 -29q-30 0 -25 33q1 3 6.5 12t15.5 25q80 125 176 125q42 0 77 -29q41 -38 61 -46q67 93 116 93q41 0 34 -37z" />
<glyph unicode="&#xd2;" horiz-adv-x="881" d="M72 0zM1004 654q-40 -223 -178 -395q-97 -120 -220 -194q-143 -83 -270 -83q-162 0 -234 129q-58 118 -30 287q27 148 119 339q38 74 79 74q18 0 29 -23q-2 -5 -14 -34.5t-34 -84.5q-44 -108 -60 -205q-24 -140 19 -240q52 -120 186 -120q147 0 278 128q142 139 181 355 q31 179 -26 328q-71 174 -238 174q-86 0 -181 -56q-45 -26 -142 -108q-71 -56 -94 -56q-39 0 -34 36q5 22 29 49q99 111 230 191q151 91 272 91q203 0 292 -198q78 -170 41 -384zM763 1312q-9 -41 -52 -41q-29 0 -128 111q-43 52 -46 52q-25 31 -17 64q8 41 48 41 q34 0 97 -75q103 -119 98 -152z" />
<glyph unicode="&#xd3;" horiz-adv-x="881" d="M72 0zM1004 654q-40 -223 -178 -395q-97 -120 -220 -194q-143 -83 -270 -83q-162 0 -234 129q-58 118 -30 287q27 148 119 339q38 74 79 74q18 0 29 -23q-2 -5 -14 -34.5t-34 -84.5q-44 -108 -60 -205q-24 -140 19 -240q52 -120 186 -120q147 0 278 128q142 139 181 355 q31 179 -26 328q-71 174 -238 174q-86 0 -181 -56q-45 -26 -142 -108q-71 -56 -94 -56q-39 0 -34 36q5 22 29 49q99 111 230 191q151 91 272 91q203 0 292 -198q78 -170 41 -384zM898 1498q-1 -6 -9 -20q-13 -28 -98 -96q-140 -111 -168 -111q-41 0 -32 41q4 33 147 152 q90 75 124 75q44 0 36 -41z" />
<glyph unicode="&#xd4;" horiz-adv-x="881" d="M72 0zM1004 654q-40 -223 -178 -395q-97 -120 -220 -194q-143 -83 -270 -83q-162 0 -234 129q-58 118 -30 287q27 148 119 339q38 74 79 74q18 0 29 -23q-2 -5 -14 -34.5t-34 -84.5q-44 -108 -60 -205q-24 -140 19 -240q52 -120 186 -120q147 0 278 128q142 139 181 355 q31 179 -26 328q-71 174 -238 174q-86 0 -181 -56q-45 -26 -142 -108q-71 -56 -94 -56q-39 0 -34 36q5 22 29 49q99 111 230 191q151 91 272 91q203 0 292 -198q78 -170 41 -384zM874 1403q-6 -27 -39 -59q-35 -32 -60 -32q-29 0 -45 54q-15 54 -31 54q-23 0 -74 -51 q-50 -50 -77 -50q-30 0 -26 31q10 51 99 119q90 69 143 69q49 0 84 -44q34 -41 26 -91z" />
<glyph unicode="&#xd5;" horiz-adv-x="881" d="M72 0zM1004 654q-40 -223 -178 -395q-97 -120 -220 -194q-143 -83 -270 -83q-162 0 -234 129q-58 118 -30 287q27 148 119 339q38 74 79 74q18 0 29 -23q-2 -5 -14 -34.5t-34 -84.5q-44 -108 -60 -205q-24 -140 19 -240q52 -120 186 -120q147 0 278 128q142 139 181 355 q31 179 -26 328q-71 174 -238 174q-86 0 -181 -56q-45 -26 -142 -108q-71 -56 -94 -56q-39 0 -34 36q5 22 29 49q99 111 230 191q151 91 272 91q203 0 292 -198q78 -170 41 -384zM937 1519q-11 -62 -83 -125q-74 -65 -132 -65q-49 0 -92 48q-44 48 -60 48v-3 q-10 -13 -20 -25t-21 -25q-26 -29 -53 -29q-30 0 -25 33q1 3 6.5 12t15.5 25q80 125 176 125q42 0 77 -29q41 -38 61 -46q67 93 116 93q41 0 34 -37z" />
<glyph unicode="&#xd6;" horiz-adv-x="881" d="M72 0zM1004 654q-40 -223 -178 -395q-97 -120 -220 -194q-143 -83 -270 -83q-162 0 -234 129q-58 118 -30 287q27 148 119 339q38 74 79 74q18 0 29 -23q-2 -5 -14 -34.5t-34 -84.5q-44 -108 -60 -205q-24 -140 19 -240q52 -120 186 -120q147 0 278 128q142 139 181 355 q31 179 -26 328q-71 174 -238 174q-86 0 -181 -56q-45 -26 -142 -108q-71 -56 -94 -56q-39 0 -34 36q5 22 29 49q99 111 230 191q151 91 272 91q203 0 292 -198q78 -170 41 -384zM703 1473q-5 -32 -53 -61q-48 -30 -79 -30q-10 0 -21 23t-9 35q5 35 43 64q41 29 73 29 q56 0 46 -60zM894 1476q-8 -35 -47 -64q-41 -30 -78 -30q-51 0 -44 40q7 39 39 77q33 39 69 39q27 0 45.5 -17t15.5 -45z" />
<glyph unicode="&#xd7;" horiz-adv-x="389" d="M451 386q-9 -45 -144 -137q94 -100 89 -130q-3 -26 -35 -52q-32 -24 -57 -24q-22 0 -115 112q-119 -114 -150 -114q-29 0 -25 31q6 34 124 146q-61 88 -58 111q2 12 10 23.5t18.5 20.5t23 14.5t23.5 5.5q29 0 92 -77q130 106 175 106q35 0 29 -36z" />
<glyph unicode="&#xd8;" horiz-adv-x="881" d="M855 587q38 215 -44 365q-96 -132 -234.5 -330t-322.5 -467q52 -51 142 -51q147 0 278 128q142 139 181 355zM1004 654q-41 -225 -178 -395q-100 -122 -220 -194q-140 -83 -270 -83q-101 0 -169 50q-50 -51 -95 -51q-39 0 -31 36q3 26 56 106q-54 111 -25 275 q25 141 117 339q29 62 87 74l24 -19q-2 -10 -14.5 -40t-34.5 -84q-44 -105 -60 -204q-20 -114 4 -198q43 60 104.5 148.5t145.5 208.5l292 418q-66 48 -146 48q-86 0 -181 -56q-45 -26 -142 -108q-71 -56 -94 -56q-39 0 -34 36q5 22 29 49q101 113 230 191q151 91 272 91 q98 0 174 -55q48 50 80 50q47 0 39 -41q-3 -14 -44 -81q131 -177 84 -455z" />
<glyph unicode="&#xd9;" horiz-adv-x="915" d="M111 0zM1068 870q-78 -448 -358 -713q-182 -168 -341 -168q-210 0 -258 277q-32 195 15 458q5 28 16.5 84t31.5 143q22 97 36 149t19 61q30 49 66 49q32 0 22 -61l-33 -171q-23 -114 -33 -171q-44 -254 -26 -425q31 -271 215 -271q38 0 89 24q297 146 394 696 q5 26 10.5 65.5t12.5 93.5q8 54 14 93.5t11 65.5q4 27 42 57q37 31 66 31q25 0 27 -30q3 -102 -38 -337zM763 1312q-9 -41 -52 -41q-29 0 -128 111q-43 52 -46 52q-25 31 -17 64q8 41 48 41q34 0 97 -75q103 -119 98 -152z" />
<glyph unicode="&#xda;" horiz-adv-x="915" d="M111 0zM1068 870q-78 -448 -358 -713q-182 -168 -341 -168q-210 0 -258 277q-32 195 15 458q5 28 16.5 84t31.5 143q22 97 36 149t19 61q30 49 66 49q32 0 22 -61l-33 -171q-23 -114 -33 -171q-44 -254 -26 -425q31 -271 215 -271q38 0 89 24q297 146 394 696 q5 26 10.5 65.5t12.5 93.5q8 54 14 93.5t11 65.5q4 27 42 57q37 31 66 31q25 0 27 -30q3 -102 -38 -337zM877 1498q-1 -6 -9 -20q-13 -28 -98 -96q-140 -111 -168 -111q-41 0 -32 41q4 33 147 152q90 75 124 75q44 0 36 -41z" />
<glyph unicode="&#xdb;" horiz-adv-x="915" d="M111 0zM1068 870q-78 -448 -358 -713q-182 -168 -341 -168q-210 0 -258 277q-32 195 15 458q5 28 16.5 84t31.5 143q22 97 36 149t19 61q30 49 66 49q32 0 22 -61l-33 -171q-23 -114 -33 -171q-44 -254 -26 -425q31 -271 215 -271q38 0 89 24q297 146 394 696 q5 26 10.5 65.5t12.5 93.5q8 54 14 93.5t11 65.5q4 27 42 57q37 31 66 31q25 0 27 -30q3 -102 -38 -337zM874 1403q-6 -27 -39 -59q-35 -32 -60 -32q-29 0 -45 54q-15 54 -31 54q-23 0 -74 -51q-50 -50 -77 -50q-30 0 -26 31q10 51 99 119q90 69 143 69q49 0 84 -44 q34 -41 26 -91z" />
<glyph unicode="&#xdc;" horiz-adv-x="915" d="M111 0zM1068 870q-78 -448 -358 -713q-182 -168 -341 -168q-210 0 -258 277q-32 195 15 458q5 28 16.5 84t31.5 143q22 97 36 149t19 61q30 49 66 49q32 0 22 -61l-33 -171q-23 -114 -33 -171q-44 -254 -26 -425q31 -271 215 -271q38 0 89 24q297 146 394 696 q5 26 10.5 65.5t12.5 93.5q8 54 14 93.5t11 65.5q4 27 42 57q37 31 66 31q25 0 27 -30q3 -102 -38 -337zM703 1473q-5 -32 -53 -61q-48 -30 -79 -30q-10 0 -21 23t-9 35q5 35 43 64q41 29 73 29q56 0 46 -60zM894 1476q-8 -35 -47 -64q-41 -30 -78 -30q-51 0 -44 40 q7 39 39 77q33 39 69 39q27 0 45.5 -17t15.5 -45z" />
<glyph unicode="&#xdd;" horiz-adv-x="788" d="M143 0zM995 1094q-4 -17 -10 -39.5t-16 -50.5q-27 -76 -78.5 -203t-127.5 -309q-44 -99 -123 -297q-14 -47 -48 -135q-39 -81 -107 -81q-40 0 -33 40q5 32 25 91.5t54 147.5q10 26 55 131t126 295q-199 -211 -366 -211q-150 0 -198 138q-34 102 -5 271q28 151 87 289 q28 60 91 70l25 -16l-3 -18q-2 5 -32 -84q-29 -83 -45 -171q-22 -133 0 -223q32 -125 145 -125q178 0 400 381l44 77q49 76 108 76q41 0 32 -44zM836 1498q-1 -6 -9 -20q-13 -28 -98 -96q-140 -111 -168 -111q-41 0 -32 41q4 33 147 152q90 75 124 75q44 0 36 -41z" />
<glyph unicode="&#xe0;" horiz-adv-x="474" d="M26 0zM352 157q-23 -12 -40 -12q-9 0 -44 20q-35 21 -63 21q-31 0 -34 -19q-9 -54 75 -54q77 0 106 44zM514 259q-21 -117 -127 -198q-106 -80 -227 -80q-32 0 -59 8.5t-46 25t-27 40.5t-2 56q15 84 97 147t167 63q11 0 23.5 -1.5t26.5 -3.5q-35 32 -81 32q-25 0 -65 -21 q-43 -20 -56 -20q-37 0 -29 39q7 44 98 91q85 43 134 43q87 0 137 -66q51 -66 36 -155zM431 577q-9 -41 -52 -41q-29 0 -128 111q-43 52 -46 52q-25 31 -17 64q8 41 48 41q34 0 97 -75q103 -119 98 -152z" />
<glyph unicode="&#xe1;" horiz-adv-x="474" d="M26 0zM352 157q-23 -12 -40 -12q-9 0 -44 20q-35 21 -63 21q-31 0 -34 -19q-9 -54 75 -54q77 0 106 44zM514 259q-21 -117 -127 -198q-106 -80 -227 -80q-32 0 -59 8.5t-46 25t-27 40.5t-2 56q15 84 97 147t167 63q11 0 23.5 -1.5t26.5 -3.5q-35 32 -81 32q-25 0 -65 -21 q-43 -20 -56 -20q-37 0 -29 39q7 44 98 91q85 43 134 43q87 0 137 -66q51 -66 36 -155zM565 763q-1 -6 -9 -20q-13 -28 -98 -96q-140 -111 -168 -111q-41 0 -32 41q4 33 147 152q90 75 124 75q44 0 36 -41z" />
<glyph unicode="&#xe2;" horiz-adv-x="474" d="M26 0zM352 157q-23 -12 -40 -12q-9 0 -44 20q-35 21 -63 21q-31 0 -34 -19q-9 -54 75 -54q77 0 106 44zM514 259q-21 -117 -127 -198q-106 -80 -227 -80q-32 0 -59 8.5t-46 25t-27 40.5t-2 56q15 84 97 147t167 63q11 0 23.5 -1.5t26.5 -3.5q-35 32 -81 32q-25 0 -65 -21 q-43 -20 -56 -20q-37 0 -29 39q7 44 98 91q85 43 134 43q87 0 137 -66q51 -66 36 -155zM542 668q-6 -27 -39 -59q-35 -32 -60 -32q-29 0 -45 54q-15 54 -31 54q-23 0 -74 -51q-50 -50 -77 -50q-30 0 -26 31q10 51 99 119q90 69 143 69q49 0 84 -44q34 -41 26 -91z" />
<glyph unicode="&#xe3;" horiz-adv-x="474" d="M26 0zM352 157q-23 -12 -40 -12q-9 0 -44 20q-35 21 -63 21q-31 0 -34 -19q-9 -54 75 -54q77 0 106 44zM514 259q-21 -117 -127 -198q-106 -80 -227 -80q-32 0 -59 8.5t-46 25t-27 40.5t-2 56q15 84 97 147t167 63q11 0 23.5 -1.5t26.5 -3.5q-35 32 -81 32q-25 0 -65 -21 q-43 -20 -56 -20q-37 0 -29 39q7 44 98 91q85 43 134 43q87 0 137 -66q51 -66 36 -155zM625 784q-11 -62 -83 -125q-74 -65 -132 -65q-49 0 -92 48q-44 48 -60 48v-3q-10 -13 -20 -25t-21 -25q-26 -29 -53 -29q-30 0 -25 33q1 3 6.5 12t15.5 25q80 125 176 125q42 0 77 -29 q41 -38 61 -46q67 93 116 93q41 0 34 -37z" />
<glyph unicode="&#xe4;" horiz-adv-x="474" d="M26 0zM352 157q-23 -12 -40 -12q-9 0 -44 20q-35 21 -63 21q-31 0 -34 -19q-9 -54 75 -54q77 0 106 44zM514 259q-21 -117 -127 -198q-106 -80 -227 -80q-32 0 -59 8.5t-46 25t-27 40.5t-2 56q15 84 97 147t167 63q11 0 23.5 -1.5t26.5 -3.5q-35 32 -81 32q-25 0 -65 -21 q-43 -20 -56 -20q-37 0 -29 39q7 44 98 91q85 43 134 43q87 0 137 -66q51 -66 36 -155zM371 738q-5 -32 -53 -61q-48 -30 -79 -30q-10 0 -21 23t-9 35q5 35 43 64q41 29 73 29q56 0 46 -60zM562 741q-8 -35 -47 -64q-41 -30 -78 -30q-51 0 -44 40q7 39 39 77q33 39 69 39 q27 0 45.5 -17t15.5 -45z" />
<glyph unicode="&#xe5;" horiz-adv-x="474" d="M26 0zM352 157q-23 -12 -40 -12q-9 0 -44 20q-35 21 -63 21q-31 0 -34 -19q-9 -54 75 -54q77 0 106 44zM514 259q-21 -117 -127 -198q-106 -80 -227 -80q-32 0 -59 8.5t-46 25t-27 40.5t-2 56q15 84 97 147t167 63q11 0 23.5 -1.5t26.5 -3.5q-35 32 -81 32q-25 0 -65 -21 q-43 -20 -56 -20q-37 0 -29 39q7 44 98 91q85 43 134 43q87 0 137 -66q51 -66 36 -155zM428 722q7 45 -44 69q-8 -11 -12 -24q-8 -50 46 -50q8 0 10 5zM565 779q-12 -76 -82 -128q-71 -53 -143 -53q-108 0 -89 118q10 63 56 109l4 14q7 40 47 66q41 26 82 26q62 0 99 -46 q38 -45 26 -106z" />
<glyph unicode="&#xe6;" horiz-adv-x="748" d="M674 317q2 11 -7.5 24.5t-19.5 13.5q-39 0 -94 -63q-25 -28 -42 -52t-25 -45q183 95 188 122zM403 253q-13 -7 -24 -7l-15 8l-24 63q-20 33 -55 33q-89 0 -111 -126q-17 -99 34 -99q22 0 72 48q49 49 85 49q2 0 14 -5q13 19 24 36zM817 116q-10 -60 -146 -102 q-107 -30 -186 -30q-16 0 -27 0.5t-18 1.5q-22 -5 -46 -5q-59 0 -111 70q-88 -62 -158 -62q-64 0 -89 55q-21 50 -9 118q19 113 115 212q103 106 213 106q55 0 89 -40q34 -37 25 -94l-8 -20q141 157 256 157q44 0 72 -34q28 -32 20 -80q-22 -123 -283 -248q10 0 18 -5h19 q45 0 118 19q82 20 106 20q37 0 30 -39z" />
<glyph unicode="&#xe8;" horiz-adv-x="442" d="M15 0zM346 317q2 11 -7.5 24.5t-19.5 13.5q-37 0 -94 -63q-49 -55 -66 -97q182 94 187 122zM490 116q-11 -60 -147 -102q-105 -30 -186 -30q-167 0 -142 139q17 101 145 231q127 129 229 129q44 0 72 -34q29 -35 20 -80q-20 -120 -286 -248q18 -5 41 -5q43 0 118 19 q85 20 105 20q38 0 31 -39zM431 577q-9 -41 -52 -41q-29 0 -128 111q-43 52 -46 52q-25 31 -17 64q8 41 48 41q34 0 97 -75q103 -119 98 -152z" />
<glyph unicode="&#xe9;" horiz-adv-x="442" d="M15 0zM346 317q2 11 -7.5 24.5t-19.5 13.5q-37 0 -94 -63q-49 -55 -66 -97q182 94 187 122zM490 116q-11 -60 -147 -102q-105 -30 -186 -30q-167 0 -142 139q17 101 145 231q127 129 229 129q44 0 72 -34q29 -35 20 -80q-20 -120 -286 -248q18 -5 41 -5q43 0 118 19 q85 20 105 20q38 0 31 -39zM545 763q-1 -6 -9 -20q-13 -28 -98 -96q-140 -111 -168 -111q-41 0 -32 41q4 33 147 152q90 75 124 75q44 0 36 -41z" />
<glyph unicode="&#xea;" horiz-adv-x="442" d="M15 0zM346 317q2 11 -7.5 24.5t-19.5 13.5q-37 0 -94 -63q-49 -55 -66 -97q182 94 187 122zM490 116q-11 -60 -147 -102q-105 -30 -186 -30q-167 0 -142 139q17 101 145 231q127 129 229 129q44 0 72 -34q29 -35 20 -80q-20 -120 -286 -248q18 -5 41 -5q43 0 118 19 q85 20 105 20q38 0 31 -39zM542 668q-6 -27 -39 -59q-35 -32 -60 -32q-29 0 -45 54q-15 54 -31 54q-23 0 -74 -51q-50 -50 -77 -50q-30 0 -26 31q10 51 99 119q90 69 143 69q49 0 84 -44q34 -41 26 -91z" />
<glyph unicode="&#xeb;" horiz-adv-x="442" d="M15 0zM346 317q2 11 -7.5 24.5t-19.5 13.5q-37 0 -94 -63q-49 -55 -66 -97q182 94 187 122zM490 116q-11 -60 -147 -102q-105 -30 -186 -30q-167 0 -142 139q17 101 145 231q127 129 229 129q44 0 72 -34q29 -35 20 -80q-20 -120 -286 -248q18 -5 41 -5q43 0 118 19 q85 20 105 20q38 0 31 -39zM350 738q-5 -32 -53 -61q-48 -30 -79 -30q-10 0 -21 23t-9 35q5 35 43 64q41 29 73 29q56 0 46 -60zM541 741q-8 -35 -47 -64q-41 -30 -78 -30q-51 0 -44 40q7 39 39 77q33 39 69 39q27 0 45.5 -17t15.5 -45z" />
<glyph unicode="&#xec;" horiz-adv-x="157" d="M9 0zM232 422q0 4 -53 -164q-17 -69 -54 -207q-6 -25 -40 -49q-35 -23 -59 -23q-29 0 -17 81q11 58 57 194q50 143 76 183q29 44 66 44q35 0 24 -59zM287 577q-9 -41 -52 -41q-29 0 -128 111q-43 52 -46 52q-25 31 -17 64q8 41 48 41q34 0 97 -75q103 -119 98 -152z" />
<glyph unicode="&#xed;" horiz-adv-x="157" d="M9 0zM232 422q0 4 -53 -164q-17 -69 -54 -207q-6 -25 -40 -49q-35 -23 -59 -23q-29 0 -17 81q11 58 57 194q50 143 76 183q29 44 66 44q35 0 24 -59zM422 763q-1 -6 -9 -20q-13 -28 -98 -96q-140 -111 -168 -111q-41 0 -32 41q4 33 147 152q90 75 124 75q44 0 36 -41z " />
<glyph unicode="&#xee;" horiz-adv-x="157" d="M9 0zM232 422q0 4 -53 -164q-17 -69 -54 -207q-6 -25 -40 -49q-35 -23 -59 -23q-29 0 -17 81q11 58 57 194q50 143 76 183q29 44 66 44q35 0 24 -59zM419 668q-6 -27 -39 -59q-35 -32 -60 -32q-29 0 -45 54q-15 54 -31 54q-23 0 -74 -51q-50 -50 -77 -50q-30 0 -26 31 q10 51 99 119q90 69 143 69q49 0 84 -44q34 -41 26 -91z" />
<glyph unicode="&#xef;" horiz-adv-x="157" d="M9 0zM232 422q0 4 -53 -164q-17 -69 -54 -207q-6 -25 -40 -49q-35 -23 -59 -23q-29 0 -17 81q11 58 57 194q50 143 76 183q29 44 66 44q35 0 24 -59zM268 738q-5 -32 -53 -61q-48 -30 -79 -30q-10 0 -21 23t-9 35q5 35 43 64q41 29 73 29q56 0 46 -60zM459 741 q-8 -35 -47 -64q-41 -30 -78 -30q-51 0 -44 40q7 39 39 77q33 39 69 39q27 0 45.5 -17t15.5 -45z" />
<glyph unicode="&#xf1;" horiz-adv-x="355" d="M0 0zM423 309q-10 -60 -32 -122t-56 -129q-41 -74 -103 -74q-37 0 -31 38q6 31 24 77q31 71 31 77q8 25 16 55t15 66q7 49 -4 49q-47 0 -123 -133q-64 -117 -75 -179q-3 -20 -27 -38q-24 -21 -43 -21q-14 0 -21 34q-8 32 -5 46q12 86 91 201q79 111 159 171q75 54 121 54 q43 0 60 -66q12 -55 3 -106zM601 763q-11 -62 -83 -125q-74 -65 -132 -65q-49 0 -92 48q-44 48 -60 48v-3q-10 -13 -20 -25t-21 -25q-26 -29 -53 -29q-30 0 -25 33q1 3 6.5 12t15.5 25q80 125 176 125q42 0 77 -29q41 -38 61 -46q67 93 116 93q41 0 34 -37z" />
<glyph unicode="&#xf2;" d="M24 0zM364 203q8 50 -28 96t-83 46q-71 0 -96 -138q-15 -94 60 -94q42 0 87 24q52 27 60 66zM514 265q-20 -110 -138 -197q-119 -86 -229 -86q-75 0 -106 44t-17 117q20 115 109 222q101 116 210 116q81 0 134 -68q52 -67 37 -148zM431 577q-9 -41 -52 -41 q-29 0 -128 111q-43 52 -46 52q-25 31 -17 64q8 41 48 41q34 0 97 -75q103 -119 98 -152z" />
<glyph unicode="&#xf3;" d="M24 0zM364 203q8 50 -28 96t-83 46q-71 0 -96 -138q-15 -94 60 -94q42 0 87 24q52 27 60 66zM514 265q-20 -110 -138 -197q-119 -86 -229 -86q-75 0 -106 44t-17 117q20 115 109 222q101 116 210 116q81 0 134 -68q52 -67 37 -148zM545 763q-1 -6 -9 -20q-13 -28 -98 -96 q-140 -111 -168 -111q-41 0 -32 41q4 33 147 152q90 75 124 75q44 0 36 -41z" />
<glyph unicode="&#xf4;" d="M24 0zM364 203q8 50 -28 96t-83 46q-71 0 -96 -138q-15 -94 60 -94q42 0 87 24q52 27 60 66zM514 265q-20 -110 -138 -197q-119 -86 -229 -86q-75 0 -106 44t-17 117q20 115 109 222q101 116 210 116q81 0 134 -68q52 -67 37 -148zM542 668q-6 -27 -39 -59 q-35 -32 -60 -32q-29 0 -45 54q-15 54 -31 54q-23 0 -74 -51q-50 -50 -77 -50q-30 0 -26 31q10 51 99 119q90 69 143 69q49 0 84 -44q34 -41 26 -91z" />
<glyph unicode="&#xf5;" d="M24 0zM364 203q8 50 -28 96t-83 46q-71 0 -96 -138q-15 -94 60 -94q42 0 87 24q52 27 60 66zM514 265q-20 -110 -138 -197q-119 -86 -229 -86q-75 0 -106 44t-17 117q20 115 109 222q101 116 210 116q81 0 134 -68q52 -67 37 -148zM621 763q-11 -62 -83 -125 q-74 -65 -132 -65q-49 0 -92 48q-44 48 -60 48v-3q-10 -13 -20 -25t-21 -25q-26 -29 -53 -29q-30 0 -25 33q1 3 6.5 12t15.5 25q80 125 176 125q42 0 77 -29q41 -38 61 -46q67 93 116 93q41 0 34 -37z" />
<glyph unicode="&#xf6;" d="M24 0zM364 203q8 50 -28 96t-83 46q-71 0 -96 -138q-15 -94 60 -94q42 0 87 24q52 27 60 66zM514 265q-20 -110 -138 -197q-119 -86 -229 -86q-75 0 -106 44t-17 117q20 115 109 222q101 116 210 116q81 0 134 -68q52 -67 37 -148zM371 738q-5 -32 -53 -61 q-48 -30 -79 -30q-10 0 -21 23t-9 35q5 35 43 64q41 29 73 29q56 0 46 -60zM562 741q-8 -35 -47 -64q-41 -30 -78 -30q-51 0 -44 40q7 39 39 77q33 39 69 39q27 0 45.5 -17t15.5 -45z" />
<glyph unicode="&#xf7;" horiz-adv-x="427" d="M463 249q-6 -22 -37 -50q-30 -27 -54 -27q-41 0 -39 -6q3 -8 2 -12q-7 -39 -53 -82q-43 -43 -82 -43q-24 0 -38 19t-10 42q7 49 51 87q-123 10 -143 24q-14 9 -11 28q11 65 178 68q-9 15 -5 34q24 130 113 130q12 0 22.5 -5t18 -14t11 -20t0.5 -23q-10 -55 -92 -102 q30 0 94 -14q77 -15 74 -34z" />
<glyph unicode="&#xf8;" d="M261 341q-12 2 -10 4q-70 -1 -94 -138q-3 -22 14 6q9 13 31.5 45t58.5 83zM364 203q6 36 -16 73q-25 -38 -52 -78t-57 -85q41 6 78 31q40 25 47 59zM514 265q-19 -109 -137 -198q-119 -86 -227 -86q-48 -69 -107 -69q-40 0 -33 40q4 24 34 68q-34 42 -20 123 q20 121 113 226q104 116 218 111q61 93 113 93q45 0 37 -41q-2 -15 -53 -93q80 -72 62 -174z" />
<glyph unicode="&#xf9;" horiz-adv-x="541" d="M29 0zM572 101q-5 -29 -43 -61q-37 -31 -66 -31q-35 0 -77 131q-125 -158 -248 -158q-70 0 -100 61q-23 55 -9 129q10 57 82 176q82 132 128 132q34 0 27 -36q-5 -26 -50 -102q-22 -38 -35 -67.5t-17 -49.5q-5 -38 7 -70q14 -41 46 -41q53 0 104 132q60 147 116 177 q23 14 39 14q24 0 33 -27q3 -7 18 -106q8 -38 20 -85.5t28 -105.5zM472 577q-9 -41 -52 -41q-29 0 -128 111q-43 52 -46 52q-25 31 -17 64q8 41 48 41q34 0 97 -75q103 -119 98 -152z" />
<glyph unicode="&#xfa;" horiz-adv-x="541" d="M29 0zM572 101q-5 -29 -43 -61q-37 -31 -66 -31q-35 0 -77 131q-125 -158 -248 -158q-70 0 -100 61q-23 55 -9 129q10 57 82 176q82 132 128 132q34 0 27 -36q-5 -26 -50 -102q-22 -38 -35 -67.5t-17 -49.5q-5 -38 7 -70q14 -41 46 -41q53 0 104 132q60 147 116 177 q23 14 39 14q24 0 33 -27q3 -7 18 -106q8 -38 20 -85.5t28 -105.5zM584 763q-1 -6 -9 -20q-13 -28 -98 -96q-140 -111 -168 -111q-41 0 -32 41q4 33 147 152q90 75 124 75q44 0 36 -41z" />
<glyph unicode="&#xfb;" horiz-adv-x="541" d="M29 0zM572 101q-5 -29 -43 -61q-37 -31 -66 -31q-35 0 -77 131q-125 -158 -248 -158q-70 0 -100 61q-23 55 -9 129q10 57 82 176q82 132 128 132q34 0 27 -36q-5 -26 -50 -102q-22 -38 -35 -67.5t-17 -49.5q-5 -38 7 -70q14 -41 46 -41q53 0 104 132q60 147 116 177 q23 14 39 14q24 0 33 -27q3 -7 18 -106q8 -38 20 -85.5t28 -105.5zM583 668q-6 -27 -39 -59q-35 -32 -60 -32q-29 0 -45 54q-15 54 -31 54q-23 0 -74 -51q-50 -50 -77 -50q-30 0 -26 31q10 51 99 119q90 69 143 69q49 0 84 -44q34 -41 26 -91z" />
<glyph unicode="&#xfc;" horiz-adv-x="541" d="M29 0zM572 101q-5 -29 -43 -61q-37 -31 -66 -31q-35 0 -77 131q-125 -158 -248 -158q-70 0 -100 61q-23 55 -9 129q10 57 82 176q82 132 128 132q34 0 27 -36q-5 -26 -50 -102q-22 -38 -35 -67.5t-17 -49.5q-5 -38 7 -70q14 -41 46 -41q53 0 104 132q60 147 116 177 q23 14 39 14q24 0 33 -27q3 -7 18 -106q8 -38 20 -85.5t28 -105.5zM412 738q-5 -32 -53 -61q-48 -30 -79 -30q-10 0 -21 23t-9 35q5 35 43 64q41 29 73 29q56 0 46 -60zM603 741q-8 -35 -47 -64q-41 -30 -78 -30q-51 0 -44 40q7 39 39 77q33 39 69 39q27 0 45.5 -17 t15.5 -45z" />
<glyph unicode="&#xfd;" horiz-adv-x="474" d="M48 0zM515 154q-34 -197 -138 -445q-12 -29 -42 -53t-60 -24q-34 0 -26 53q13 68 60 208q46 132 58 206q2 7 3.5 18t3.5 26q-128 -161 -226 -161q-152 0 -100 301q25 147 95 191q17 11 33 11q28 0 24 -31q-2 -9 -14 -31q-7 -10 -15 -56q-47 -261 42 -261q27 0 89 104 q18 33 36 66.5t37 68.5q15 24 45 49q32 26 54 26q48 0 53 -111q5 -72 -12 -155zM524 763q-1 -6 -9 -20q-13 -28 -98 -96q-140 -111 -168 -111q-41 0 -32 41q4 33 147 152q90 75 124 75q44 0 36 -41z" />
<glyph unicode="&#xff;" horiz-adv-x="474" d="M48 0zM515 154q-34 -197 -138 -445q-12 -29 -42 -53t-60 -24q-34 0 -26 53q13 68 60 208q46 132 58 206q2 7 3.5 18t3.5 26q-128 -161 -226 -161q-152 0 -100 301q25 147 95 191q17 11 33 11q28 0 24 -31q-2 -9 -14 -31q-7 -10 -15 -56q-47 -261 42 -261q27 0 89 104 q18 33 36 66.5t37 68.5q15 24 45 49q32 26 54 26q48 0 53 -111q5 -72 -12 -155zM391 738q-5 -32 -53 -61q-48 -30 -79 -30q-10 0 -21 23t-9 35q5 35 43 64q41 29 73 29q56 0 46 -60zM582 741q-8 -35 -47 -64q-41 -30 -78 -30q-51 0 -44 40q7 39 39 77q33 39 69 39 q27 0 45.5 -17t15.5 -45z" />
<glyph unicode="&#x130;" horiz-adv-x="157" d="M232 422q0 4 -53 -164q-17 -69 -54 -207q-6 -25 -40 -49q-35 -23 -59 -23q-29 0 -17 81q11 58 57 194q50 143 76 183q29 44 66 44q35 0 24 -59z" />
<glyph unicode="&#x152;" horiz-adv-x="1580" d="M1703 150q-11 -53 -85 -89q-70 -32 -263 -59q-85 -10 -152.5 -15t-118.5 -5q-122 0 -214 37q-116 48 -134 145q-200 -182 -400 -182q-162 0 -232 129q-61 116 -32 287q13 73 42 157.5t77 181.5q31 63 84 75l25 -20q-4 -13 -16.5 -44t-32.5 -82q-41 -99 -60 -202 q-24 -140 19 -240q52 -120 186 -120q147 0 278 128q142 139 181 355q31 179 -26 328q-71 174 -238 174q-86 0 -181 -56q-45 -26 -142 -108q-71 -56 -94 -56q-39 0 -34 36q5 22 29 49q102 114 230 191q151 91 272 91q242 0 317 -270q98 118 219 188q133 78 261 78 q91 0 162 -41q85 -49 70 -133q-8 -41 -48 -90q-46 -57 -85 -58l-17 20q2 5 5.5 14t10.5 22q7 14 10 23.5t4 15.5q20 104 -172 104q-155 0 -285 -126q-92 -87 -108 -174q-15 -86 62 -118q44 -19 154 -19q43 0 35 -41q-8 -51 -71 -81q-28 -11 -55 -20.5t-55 -19.5 q-179 -77 -203 -210q-31 -181 304 -181q81 0 241 34q166 35 242 35q39 0 34 -38z" />
<glyph unicode="&#x153;" horiz-adv-x="758" d="M674 317q2 11 -7.5 24.5t-19.5 13.5q-39 0 -94 -61q-23 -28 -39 -52.5t-26 -46.5q181 93 186 122zM364 203q8 50 -28 96t-83 46q-71 0 -96 -138q-15 -94 60 -94q42 0 87 24q52 25 60 66zM817 116q-10 -60 -146 -102q-107 -30 -186 -30q-111 0 -139 64q-101 -66 -199 -66 q-72 0 -104.5 44.5t-18.5 116.5q20 115 109 222q101 116 210 116q112 0 159 -114q125 116 215 116q44 0 72 -34q28 -32 20 -80q-12 -74 -123 -145q-45 -25 -87 -50t-87 -51q13 -7 51 -7q45 0 118 19q82 20 106 20q37 0 30 -39z" />
<glyph unicode="&#x178;" horiz-adv-x="788" d="M143 0zM995 1094q-4 -17 -10 -39.5t-16 -50.5q-27 -76 -78.5 -203t-127.5 -309q-44 -99 -123 -297q-14 -47 -48 -135q-39 -81 -107 -81q-40 0 -33 40q5 32 25 91.5t54 147.5q10 26 55 131t126 295q-199 -211 -366 -211q-150 0 -198 138q-34 102 -5 271q28 151 87 289 q28 60 91 70l25 -16l-3 -18q-2 5 -32 -84q-29 -83 -45 -171q-22 -133 0 -223q32 -125 145 -125q178 0 400 381l44 77q49 76 108 76q41 0 32 -44zM662 1473q-5 -32 -53 -61q-48 -30 -79 -30q-10 0 -21 23t-9 35q5 35 43 64q41 29 73 29q56 0 46 -60zM853 1476q-8 -35 -47 -64 q-41 -30 -78 -30q-51 0 -44 40q7 39 39 77q33 39 69 39q27 0 45.5 -17t15.5 -45z" />
<glyph unicode="&#x2c6;" horiz-adv-x="399" d="M608 1403q-6 -27 -39 -59q-35 -32 -60 -32q-29 0 -45 54q-15 54 -31 54q-23 0 -74 -51q-50 -50 -77 -50q-30 0 -26 31q10 51 99 119q90 69 143 69q49 0 84 -44q34 -41 26 -91z" />
<glyph unicode="&#x2da;" horiz-adv-x="304" d="M433 1457q7 45 -44 69q-8 -11 -12 -24q-8 -50 46 -50q8 0 10 5zM570 1514q-12 -76 -82 -128q-71 -53 -143 -53q-108 0 -89 118q10 63 56 109l4 14q7 40 47 66q41 26 82 26q62 0 99 -46q38 -45 26 -106z" />
<glyph unicode="&#x2dc;" d="M732 1519q-11 -62 -83 -125q-74 -65 -132 -65q-49 0 -92 48q-44 48 -60 48v-3q-10 -13 -20 -25t-21 -25q-26 -29 -53 -29q-30 0 -25 33q1 3 6.5 12t15.5 25q80 125 176 125q42 0 77 -29q41 -38 61 -46q67 93 116 93q41 0 34 -37z" />
<glyph unicode="&#x2000;" horiz-adv-x="833" />
<glyph unicode="&#x2001;" horiz-adv-x="1666" />
<glyph unicode="&#x2002;" horiz-adv-x="833" />
<glyph unicode="&#x2003;" horiz-adv-x="1666" />
<glyph unicode="&#x2004;" horiz-adv-x="555" />
<glyph unicode="&#x2005;" horiz-adv-x="416" />
<glyph unicode="&#x2006;" horiz-adv-x="277" />
<glyph unicode="&#x2007;" horiz-adv-x="277" />
<glyph unicode="&#x2008;" horiz-adv-x="208" />
<glyph unicode="&#x2009;" horiz-adv-x="333" />
<glyph unicode="&#x200a;" horiz-adv-x="92" />
<glyph unicode="&#x2010;" d="M509 259q-6 -23 -38 -52q-31 -28 -59 -34q-29 -6 -95 -6q-9 0 -22.5 0.5t-32.5 1.5q-38 3 -55 3t-48 -3q-16 -1 -27 -1.5t-19 -0.5q-16 0 -43 12q-33 13 -32 26q5 31 46 53q68 41 273 41q158 0 152 -40z" />
<glyph unicode="&#x2011;" d="M509 259q-6 -23 -38 -52q-31 -28 -59 -34q-29 -6 -95 -6q-9 0 -22.5 0.5t-32.5 1.5q-38 3 -55 3t-48 -3q-16 -1 -27 -1.5t-19 -0.5q-16 0 -43 12q-33 13 -32 26q5 31 46 53q68 41 273 41q158 0 152 -40z" />
<glyph unicode="&#x2012;" d="M509 259q-6 -23 -38 -52q-31 -28 -59 -34q-29 -6 -95 -6q-9 0 -22.5 0.5t-32.5 1.5q-38 3 -55 3t-48 -3q-16 -1 -27 -1.5t-19 -0.5q-16 0 -43 12q-33 13 -32 26q5 31 46 53q68 41 273 41q158 0 152 -40z" />
<glyph unicode="&#x2013;" horiz-adv-x="1015" d="M1061 259q-14 -23 -83 -52q-67 -28 -128 -34q-63 -6 -207 -6q-19 0 -48.5 0.5t-70.5 1.5q-83 3 -120 3t-104 -3q-35 -1 -59 -1.5t-41 -0.5q-35 0 -93 12q-72 13 -70 26q11 31 100 53q148 41 593 41q344 0 331 -40z" />
<glyph unicode="&#x2014;" horiz-adv-x="2039" d="M2084 259q-26 -23 -165 -52q-135 -28 -257 -34q-126 -6 -412 -6q-39 0 -98 0.5t-141 1.5q-166 3 -239 3q-74 0 -209 -3q-70 -1 -117.5 -1.5t-82.5 -0.5q-69 0 -187 12q-143 13 -139 26q22 31 200 53q296 41 1186 41q687 0 661 -40z" />
<glyph unicode="&#x2018;" horiz-adv-x="205" d="M346 1014q-6 -34 -44 -34q-47 0 -72 82q-23 77 -13 124q7 46 37 46q27 0 46 -34q2 -5 8.5 -28t17.5 -65q11 -41 16 -63.5t4 -27.5z" />
<glyph unicode="&#x2019;" horiz-adv-x="205" d="M377 1186q-11 -51 -60 -124q-58 -82 -102 -82q-36 0 -29 34q1 8 51 91q25 42 39.5 65t18.5 28q31 34 57 34q32 0 25 -46z" />
<glyph unicode="&#x201a;" horiz-adv-x="205" d="M184 101q-8 -52 -58 -122q-58 -82 -102 -82q-35 0 -28 34q1 5 13 27t37 62q25 42 39.5 65t18.5 28q31 34 56 34q33 0 24 -46z" />
<glyph unicode="&#x201c;" horiz-adv-x="324" d="M471 1002q-8 -38 -46 -38q-54 0 -77 89q9 -97 5 -114q-3 -19 -41 -19q-44 0 -75 99q-24 90 -15 142q3 18 21 47t33 29q20 0 40 -24q20 -23 22 -46l3 -42v1q4 19 27 52q22 34 40 34q17 0 30.5 -18t15.5 -37q-2 -16 -3.5 -31t-3.5 -29q-1 -34 12 -56q13 -27 12 -39z" />
<glyph unicode="&#x201d;" horiz-adv-x="324" d="M498 1161q-8 -52 -70 -142q-63 -99 -109 -99q-37 0 -29 39q1 5 11 28t30 66q-53 -89 -107 -89q-37 0 -29 38q1 12 22 42q23 29 27 49q2 10 7 26t12 38q6 19 25 37t38 18q17 0 29 -35q12 -32 7 -52l20 42q10 25 37 46q28 24 49 24q15 0 24 -29q11 -29 6 -47z" />
<glyph unicode="&#x201e;" horiz-adv-x="324" d="M307 73q-10 -52 -70 -139q-63 -99 -109 -99q-37 0 -29 38q1 4 11 27.5t30 68.5q-56 -89 -109 -89q-35 0 -29 37q3 12 24 42q22 30 27 48q2 10 6.5 25.5t10.5 37.5q7 19 27 37q21 18 38 18t29 -35q12 -32 7 -52l18 42q10 22 39 46q28 24 48 24q16 0 25 -29q10 -29 6 -48z " />
<glyph unicode="&#x2026;" horiz-adv-x="659" d="M234 121q-9 -46 -64 -91q-55 -44 -100 -44q-70 0 -58 72q8 45 47 87q40 43 83 43q29 0 61 -17q34 -22 31 -50zM674 130q-8 -49 -62 -93q-55 -43 -100 -43q-72 0 -58 71q7 44 47 87q41 44 83 44q29 0 61 -17q34 -22 29 -49zM464 135q-11 -55 -63 -95t-107 -40 q-72 0 -62 61q10 53 60 103q51 51 102 51q34 0 54.5 -23t15.5 -57z" />
<glyph unicode="&#x202f;" horiz-adv-x="333" />
<glyph unicode="&#x2039;" horiz-adv-x="372" d="M393 101q-6 -29 -41 -58t-64 -29q-12 0 -22 6q-14 8 -44.5 31.5t-81.5 62.5q-104 82 -102 93q6 39 83 83q8 5 36.5 19t76.5 37q25 11 52 29.5t57 44.5q31 24 51 24q33 0 26 -34q-12 -73 -181 -161q164 -90 154 -148z" />
<glyph unicode="&#x203a;" horiz-adv-x="362" d="M404 246q-6 -41 -142 -134q-137 -93 -178 -93q-39 0 -31 39q7 38 176 145q-161 137 -154 176q2 10 8.5 21t16.5 19.5t21.5 14t23.5 5.5q10 0 140 -91q18 -11 36 -22.5t36 -23.5q53 -36 47 -56z" />
<glyph unicode="&#x205f;" horiz-adv-x="416" />
<glyph unicode="&#x2122;" horiz-adv-x="766" d="M937 1000q-5 -31 -13 -55.5t-18 -41.5q-11 -21 -44 -43q-31 -22 -51 -22q-34 0 -21 82q23 128 -39 128v-4q-2 -6 1.5 -5.5t3.5 -5.5l-15 -48q-9 -28 -44 -57t-64 -29q-33 0 -31 36q2 23 4.5 45.5t6.5 45.5q5 71 -17 71q-6 0 -7 -10q0 -7 -1 -20.5t-3 -20.5l-5 -32 q-4 -11 -5.5 -19.5t-2.5 -13.5q-25 -148 -86 -148q-18 0 -25 60q-5 58 -2 78q14 77 53 143q-16 -10 -75 -8q-13 -104 -19.5 -158t-7.5 -59q-6 -24 -38 -48t-55 -24q-29 0 -27 45q0 5 2.5 22t7.5 46q7 40 16 82.5t20 90.5q-54 -9 -75 -9q-15 0 -37 12q-21 12 -17 24 q5 36 134 71q109 30 162 30q16 0 46 -14q29 -14 30 -29q44 29 88 29q61 0 81 -60q42 27 83 27q68 0 96 -61q24 -49 10 -123z" />
<glyph unicode="&#xe000;" horiz-adv-x="480" d="M0 480h480v-480h-480v480z" />
<glyph horiz-adv-x="480" d="M0 0z" />
</font>
</defs>
</svg>
