<?xml version="1.0" standalone="no"?>
<!DOCTYPE svg PUBLIC "-//W3C//DTD SVG 1.1//EN" "http://www.w3.org/Graphics/SVG/1.1/DTD/svg11.dtd" >
<svg xmlns="http://www.w3.org/2000/svg">
<metadata></metadata>
<defs>
<font id="andadaitalic" horiz-adv-x="560" >
<font-face units-per-em="1000" ascent="800" descent="-200" />
<missing-glyph horiz-adv-x="224" />
<glyph unicode="&#xa8;I" horiz-adv-x="354" d="M15 -5l2 50l79 16q1 4 5.5 20.5t8.5 32.5t5 23l63 431q3 17 3 76l-73 12l13 54q91 -5 111 -5l136 5l-5 -59l-76 -7q-14 -48 -22 -106l-54 -371q-9 -63 -9 -106l85 -7l-15 -59q-64 5 -143 5zM133 812q0 32 16 52t46 20q45 0 45 -48q0 -32 -16.5 -51.5t-45.5 -19.5 q-45 0 -45 47zM304 812q0 32 16 52t46 20q44 0 44 -48q0 -32 -15.5 -51.5t-45.5 -19.5q-45 0 -45 47z" />
<glyph unicode="&#xa8;O" horiz-adv-x="719" d="M49 284q0 192 99.5 314t277.5 122q133 0 204 -81.5t71 -218.5q0 -191 -99.5 -313t-277.5 -122q-133 0 -204 81t-71 218zM156 283q0 -109 44 -177t129 -68q82 0 143.5 55t91.5 141t30 187q0 110 -43.5 178t-129.5 68q-83 0 -144.5 -55.5t-91 -141.5t-29.5 -187zM254 812 q0 32 16 52t46 20q46 0 46 -48q0 -32 -16.5 -51.5t-46.5 -19.5q-45 0 -45 47zM483 812q0 32 16 52t46 20q45 0 45 -48q0 -32 -16 -51.5t-46 -19.5q-45 0 -45 47z" />
<glyph unicode="&#xb4;Y" horiz-adv-x="645" d="M64 651l13 54h105l146 5l-3 -49l-79 -20q4 -49 25 -108l71 -189l145 234l35 63l-70 10l12 54h88l140 5l-3 -49l-68 -17q-43 -47 -76 -99l-176 -271l-15 -107q-9 -63 -9 -106l85 -7l-15 -59q-64 5 -143 5l-114 -5l2 50l79 16q1 4 5.5 20.5t8.5 32.5t5 23l18 121l-108 298 q-6 18 -16.5 39.5t-17.5 33.5l-7 12zM295 798l223 100l29 -73q-128 -32 -147 -38l-85 -37z" />
<glyph unicode="&#xa8;i" horiz-adv-x="296" d="M48 460l163 43l21 -19q-31 -110 -73 -415l90 -5l-3 -35l-160 -44l-25 15q33 132 46.5 214.5t24.5 204.5l-83 4zM84 641q0 32 16 52t46 20q45 0 45 -48q0 -32 -16.5 -51.5t-45.5 -19.5q-45 0 -45 47zM255 641q0 32 16 52t46 20q44 0 44 -48q0 -32 -15.5 -51.5t-45.5 -19.5 q-45 0 -45 47z" />
<glyph unicode="&#xa8;o" horiz-adv-x="472" d="M32 163q0 137 78 239t184 102q70 0 107.5 -45t37.5 -128q0 -138 -78 -240t-184 -102q-70 0 -107.5 45.5t-37.5 128.5zM129 159q0 -113 65 -113t106.5 81.5t41.5 205.5q0 114 -65 114t-106.5 -81.5t-41.5 -206.5zM161 641q0 32 16 52t46 20q45 0 45 -48q0 -32 -16.5 -51.5 t-45.5 -19.5q-45 0 -45 47zM390 641q0 32 16 52t46 20q44 0 44 -48q0 -32 -15.5 -51.5t-45.5 -19.5q-45 0 -45 47z" />
<glyph unicode="&#xb4;y" horiz-adv-x="528" d="M-3 -215l32 78q71 -26 134 -26q53 0 90 12.5t50 23.5q10 11 21 69q11 62 33 241q-46 -88 -102.5 -141t-116.5 -53q-35 0 -53.5 26t-18.5 63q0 41 26 156t32 184l-83 4v39l166 43l22 -20q-70 -270 -70 -365q0 -51 34 -51q44 0 103.5 94.5t97.5 255.5l-80 4l-6 39l158 43 l24 -16q-23 -89 -39.5 -183.5t-22 -139t-17.5 -151.5q-8 -69 -37.5 -120t-71.5 -78t-85.5 -39t-89.5 -12q-34 0 -74 6t-56 14zM229 605l175 150l45 -60q-103 -60 -117 -71l-71 -60z" />
<glyph unicode="&#xfb01;" horiz-adv-x="591" d="M-170 -234l27 71q5 -5 49 -5q33 0 73 13t49 25q25 34 52.5 204.5t43.5 347.5h-88l4 44l12 3q11 3 24 7t27.5 9t21.5 9q9 6 16 49q16 100 96 163.5t185 63.5q34 0 64 -17.5t48 -40.5q15 -13 15 -41q0 -31 -18.5 -55.5t-46.5 -24.5q-46 0 -46 50q0 28 16 54q-43 9 -67 9 q-33 0 -72.5 -12.5t-49.5 -26.5q-25 -33 -49 -187h188l100 26l23 -20q-34 -123 -73 -414l89 -5l-3 -36l-164 -44l-25 15q32 129 45.5 212t25.5 206l-82 4h-133q-14 -83 -35 -245.5t-33 -214.5q-23 -92 -100 -144.5t-178 -52.5q-8 0 -15.5 0.5t-11.5 0.5h-4z" />
<glyph unicode="&#xfb02;" horiz-adv-x="582" d="M-170 -234l27 71q5 -5 49 -5q33 0 73 13t49 25q25 34 52.5 204.5t43.5 347.5h-88l4 44l12 3q11 3 24 7t27.5 9t21.5 9q9 6 16 49q16 100 96 163.5t185 63.5h108l23 -20q-78 -440 -108 -680l89 -5l-3 -36l-162 -44l-26 15q33 122 64 332t43 359l-82 12q-32 -4 -63.5 -15.5 t-39.5 -22.5q-25 -33 -49 -187h121l-14 -56h-116q-14 -83 -35 -245.5t-33 -214.5q-23 -92 -100 -144.5t-178 -52.5q-8 0 -15.5 0.5t-11.5 0.5h-4z" />
<glyph horiz-adv-x="1000" />
<glyph horiz-adv-x="1000" />
<glyph unicode="&#xd;" horiz-adv-x="1000" />
<glyph unicode=" "  horiz-adv-x="224" />
<glyph unicode="&#x09;" horiz-adv-x="224" />
<glyph unicode="&#xa0;" horiz-adv-x="224" />
<glyph unicode="!" horiz-adv-x="228" d="M24 39q0 30 17.5 55t44.5 25q46 0 46 -50q0 -30 -18 -54.5t-45 -24.5q-45 0 -45 49zM65 227q19 96 32 178t19 129.5t21 178.5l81 15l22 -15q-32 -121 -45 -175t-28.5 -138t-25.5 -175l-11 -10z" />
<glyph unicode="&#x22;" horiz-adv-x="319" d="M102 516l13 94l3 146h89l-49 -243zM242 516l13 94l3 146h89l-49 -243z" />
<glyph unicode="#" horiz-adv-x="570" d="M23 150l9 66l130 1l36 121l-128 -1l10 71h138l49 164l57 -10l-46 -154h112l49 164l57 -10l-46 -154h125l-11 -66l-134 -2l-36 -121l133 2l-9 -71h-144l-49 -165l-57 10l46 155h-112l-49 -165l-57 10l46 155h-119zM222 218l112 1l36 121l-112 -1z" />
<glyph unicode="$" horiz-adv-x="505" d="M28 39l37 150l59 -6l-9 -54q-1 -8 1 -58q47 -19 89 -23l46 244l-26 14q-58 30 -93.5 68.5t-35.5 97.5q0 87 63 138t158 51h2l19 98l32 -3l-18 -97q56 -5 139 -28l-36 -144l-51 6l8 47q0 4 -6 49q-37 16 -64 18l-42 -228l26 -15q31 -19 48.5 -32t40 -34.5t33 -48.5 t10.5 -59q0 -91 -65.5 -144t-163.5 -56l-15 -82l-34 3l15 80q-47 3 -89 15t-60 22zM190 499q0 -32 20.5 -55t59.5 -47l40 212h-3q-49 0 -83 -29.5t-34 -80.5zM240 48q54 4 87 36.5t33 85.5q0 59 -79 105z" />
<glyph unicode="%" horiz-adv-x="785" d="M79 457q0 85 49 147t128 62q61 0 94.5 -38t33.5 -102q0 -85 -49 -146t-128 -61q-61 0 -94.5 37.5t-33.5 100.5zM153 457q0 -85 62 -85q47 0 71 48.5t24 107.5q0 85 -62 85q-45 0 -70 -49t-25 -107zM165 -17l434 736l45 -29l-434 -739zM415 127q0 85 49 147t128 62 q61 0 94.5 -38t33.5 -102q0 -85 -49 -146t-128 -61q-61 0 -94.5 37.5t-33.5 100.5zM489 127q0 -85 62 -85q47 0 71 48.5t24 107.5q0 85 -62 85q-45 0 -70 -49t-25 -107z" />
<glyph unicode="&#x26;" horiz-adv-x="586" d="M25 151q0 73 39.5 156.5t98.5 139.5t111 56q130 0 130 -87q0 -45 -62 -91q82 36 154 80q1 10 1 28q0 100 -41 191l92 28q21 -87 21 -146q0 -29 -3 -56q82 56 142 114l55 -53l-6 -30q-91 -40 -202 -98q-36 -166 -149.5 -280t-250.5 -114q-130 0 -130 162zM111 165 q0 -57 20 -80t69 -23q87 0 171 86t114 198q-107 -55 -191.5 -89.5t-180.5 -52.5q-2 -26 -2 -39zM124 257q200 50 200 139q0 27 -16 37.5t-58 10.5q-33 0 -70 -56t-56 -131z" />
<glyph unicode="'" horiz-adv-x="179" d="M102 516l13 94l3 146h89l-49 -243z" />
<glyph unicode="(" horiz-adv-x="275" d="M58 213q-1 159 62 302.5t188 253.5l27 -26q-8 -8 -21.5 -23t-47 -68t-59.5 -112t-47 -153.5t-21 -193.5q0 -43 3.5 -86.5t7.5 -67.5t7 -31q1 -5 16 -34t29 -56l15 -27l-37 -26q-122 142 -122 348z" />
<glyph unicode=")" horiz-adv-x="275" d="M-22 -109q8 8 21 23t47 68t60 112t47 153.5t21 193.5q1 115 -18 185l-60 117l37 26q122 -144 122 -348q1 -159 -62 -302.5t-188 -253.5z" />
<glyph unicode="*" horiz-adv-x="422" d="M94 505l100 64l-89 81l15 30l105 -53l28 118l32 2l5 -116l117 37l21 -26l-100 -66l90 -82l-16 -31l-104 54l-28 -119l-33 -2l-5 119l-117 -37z" />
<glyph unicode="+" d="M49 218l10 75h210l30 218h70l-28 -218h203l-10 -70l-202 -2l-27 -221h-75l29 220z" />
<glyph unicode="," horiz-adv-x="204" d="M-24 -104q74 29 79 94q-24 0 -37 14.5t-12 39.5q0 32 18.5 58.5t47.5 26.5q59 0 57 -75q0 -65 -40 -120.5t-104 -69.5z" />
<glyph unicode="-" horiz-adv-x="282" d="M31 218l9 71h222l-16 -71h-215z" />
<glyph unicode="." horiz-adv-x="197" d="M16 44q0 32 18.5 58.5t47.5 26.5q51 0 51 -55q0 -32 -19 -58t-48 -26q-50 0 -50 54z" />
<glyph unicode="/" horiz-adv-x="376" d="M-22 -47l425 820l60 -20l-425 -820z" />
<glyph unicode="0" horiz-adv-x="562" d="M54 246q0 185 79.5 300.5t207.5 115.5q90 0 140 -67.5t50 -188.5q0 -185 -79.5 -300.5t-207.5 -115.5q-91 0 -140.5 67t-49.5 189zM150 231q0 -86 27 -133.5t75 -47.5q80 0 131.5 104t51.5 266q0 87 -27 134.5t-76 47.5q-80 0 -131 -103.5t-51 -267.5z" />
<glyph unicode="1" horiz-adv-x="379" d="M34 -5l2 50l89 16q1 4 5.5 20.5t8.5 32.5t5 23l57 387l-119 -59l-20 42q127 92 149 108q5 4 18.5 18.5t24.5 26.5l11 12l46 -12q-34 -184 -41 -234l-38 -259q-3 -20 -9 -106l79 -7l-16 -59q-51 5 -130 5z" />
<glyph unicode="2" horiz-adv-x="501" d="M9 73q233 212 298.5 289t65.5 142q0 46 -26 74t-69 28q-51 0 -101 -28q-13 -29 -17 -51l-4 -45l-55 -3l9 147q93 36 186 36q82 0 128 -36.5t46 -101.5t-26 -115t-99.5 -122.5t-241.5 -213.5h179q13 0 83 8l19 35l12 47l53 -4l-29 -142l-22 -20q-93 3 -116 3h-270z" />
<glyph unicode="3" horiz-adv-x="457" d="M-32 -52q145 23 238 88.5t93 146.5q0 48 -31 77t-84 29l-67 -3l-7 48q107 14 158.5 57t51.5 119q0 98 -88 98q-43 0 -79 -22q-15 -39 -17 -50l-5 -45l-55 -3l9 145q86 29 158 29q84 0 128.5 -35.5t44.5 -101.5q0 -64 -37 -113.5t-104 -76.5q58 -17 89 -55t31 -91 q0 -109 -117.5 -191.5t-298.5 -102.5z" />
<glyph unicode="4" horiz-adv-x="515" d="M6 254l420 485l60 -51q-1 -1 -24.5 -23.5t-49.5 -47.5t-51 -50t-31 -33l-222 -280l192 3l20 142l83 27l-24 -164l90 6l-10 -67h-89l-5 -34q-9 -63 -9 -106l79 -7l-15 -59q-49 5 -128 5l-134 -5l2 50l102 16q19 66 20 76l10 64h-250z" />
<glyph unicode="5" horiz-adv-x="449" d="M-4 -52q315 56 315 240q0 53 -32 81t-92 28q-39 0 -94 -13l-34 21l65 329l21 18h67l237 10l-4 -67q-174 -23 -203 -23h-63l-43 -217q47 9 80 9q90 0 140.5 -41t50.5 -118q0 -131 -111 -211t-289 -99z" />
<glyph unicode="6" horiz-adv-x="508" d="M39 200q0 82 32.5 168t92 163t155 135.5t210.5 80.5l5 -53q-87 -22 -157.5 -65t-115 -94t-74.5 -110.5t-42 -114t-12 -105.5q0 -66 28 -112.5t81 -46.5q62 0 101.5 53t39.5 121q0 51 -26.5 87.5t-71.5 36.5q-29 0 -62 -5l2 48q42 16 78 16q80 0 128 -48t48 -127 q0 -102 -72 -170.5t-172 -68.5q-93 0 -144.5 58t-51.5 153z" />
<glyph unicode="7" horiz-adv-x="491" d="M75 -80l281 502q10 16 66 157h-162q-22 0 -82 -6q-16 -25 -19 -34l-12 -50l-54 4l30 148l22 20q94 -9 117 -9h261l10 -39l-384 -718z" />
<glyph unicode="8" horiz-adv-x="505" d="M24 141q0 66 49 118t116 88q-91 62 -91 150q0 84 65 134.5t153 50.5q72 0 121.5 -38.5t49.5 -104.5q0 -108 -145 -192q115 -68 115 -163q0 -92 -71 -143t-171 -51q-82 0 -136.5 38.5t-54.5 112.5zM115 145q0 -49 29.5 -78.5t77.5 -29.5q57 0 100 39.5t43 97.5 q0 24 -9 43.5t-29.5 38.5t-36 30t-46.5 30l-7 3q-122 -79 -122 -174zM185 508q0 -24 8 -43t28 -37t33.5 -27.5t44.5 -28.5q101 74 101 163q0 43 -25.5 71.5t-65.5 28.5q-46 0 -85 -38t-39 -89z" />
<glyph unicode="9" horiz-adv-x="510" d="M2 -55q108 31 187 87t122 125.5t63 139.5t22 145q2 67 -26.5 115t-82.5 48q-63 0 -100.5 -54t-37.5 -122q0 -51 27.5 -86.5t73.5 -35.5l60 3l-1 -47q-35 -15 -77 -15q-82 0 -131.5 47t-49.5 126q0 102 72 171.5t172 69.5q95 0 147 -59t52 -156q0 -82 -29 -166t-85.5 -162 t-151.5 -138.5t-215 -87.5z" />
<glyph unicode=":" horiz-adv-x="198" d="M12 44q0 32 18.5 58.5t47.5 26.5q51 0 51 -55q0 -32 -19 -58t-48 -26q-50 0 -50 54zM55 394q0 32 18.5 58.5t47.5 26.5q51 0 51 -55q0 -32 -19 -58t-48 -26q-50 0 -50 54z" />
<glyph unicode=";" horiz-adv-x="205" d="M-14 -104q74 29 79 94q-24 0 -37 14.5t-12 39.5q0 32 18.5 58.5t47.5 26.5q59 0 57 -75q0 -65 -40 -120.5t-104 -69.5zM63 394q0 32 18.5 58.5t47.5 26.5q51 0 51 -55q0 -32 -19 -58t-48 -26q-50 0 -50 54z" />
<glyph unicode="&#x3c;" horiz-adv-x="562" d="M116 247l339 266l46 -53l-283 -212l225 -210l-61 -53z" />
<glyph unicode="=" horiz-adv-x="540" d="M27 119l10 66l435 5l-10 -71h-435zM55 307l11 71h435l-11 -66z" />
<glyph unicode="&#x3e;" d="M87 38l283 210l-223 212l60 53l265 -266l-340 -262z" />
<glyph unicode="?" horiz-adv-x="403" d="M56 39q0 30 17.5 55t44.5 25q46 0 46 -50q0 -30 -18 -54.5t-45 -24.5q-45 0 -45 49zM92 557l4 111l17 26q80 33 138 33q85 0 132 -45.5t47 -128.5q0 -108 -71 -176t-182 -66l-8 -86l-12 -10l-64 12l14 125l32 17q30 -4 49 -4q69 0 110.5 51.5t41.5 131.5q0 59 -24 94 t-72 35q-44 0 -71 -16l-46 -112z" />
<glyph unicode="@" horiz-adv-x="914" d="M52 146q2 230 131.5 375.5t350.5 145.5q167 0 266.5 -81t99.5 -237q0 -142 -91 -247t-239 -117l-24 15q11 63 24 173q-42 -83 -93.5 -133t-101.5 -50q-101 0 -101 149q0 75 35 161t87 144.5t98 58.5q14 0 37 -2.5t50 -6t36 -4.5l57 13l23 -15q-21 -91 -32.5 -145.5 t-22 -139t-9.5 -155.5q83 14 134.5 94t51.5 200q0 130 -79 203t-213 73q-120 0 -209 -67t-131.5 -173t-41.5 -234q0 -139 68.5 -217t209.5 -78q22 0 75 8.5t95 17.5l42 9l5 -32q-165 -65 -225 -65q-173 0 -268 93.5t-95 265.5zM361 148q0 -44 12.5 -71t32.5 -27q29 0 71 58 t76 144.5t42 161.5q-70 35 -115 35q-37 0 -78 -104t-41 -197z" />
<glyph unicode="A" horiz-adv-x="644" d="M-23 -5l3 49l63 17l56 99l250 545l60 10l120 -566l25 -85l58 -10l-12 -54h-98l-142 -5l4 49l73 20l-10 108l-11 60h-212l-46 -105l-19 -63l66 -10l-12 -54h-85zM229 282l175 4l-50 271z" />
<glyph unicode="B" horiz-adv-x="595" d="M15 -5l2 50l76 16q15 50 20 76l65 431q2 17 2 76l-69 12l13 54q73 -4 101 -5q28 0 81 5t84 5q74 0 125.5 -40t51.5 -109q0 -72 -47 -125.5t-119 -70.5l-1 -7q66 -10 105.5 -50.5t39.5 -104.5q0 -95 -65.5 -154t-161.5 -59q-24 0 -92.5 2.5t-106.5 2.5zM198 59 q48 -6 90 -6q69 0 112.5 42.5t43.5 116.5q0 62 -41 93.5t-106 31.5h-11l15 57h7q70 0 117.5 42.5t47.5 116.5q0 49 -27 78.5t-73 29.5q-34 0 -84 -6q-16 -53 -25 -117l-56 -371q-10 -73 -10 -108z" />
<glyph unicode="C" horiz-adv-x="593" d="M49 281q0 193 97.5 316t271.5 123q15 0 29.5 -1t26 -2t26.5 -3.5t23.5 -4t24.5 -5.5t21.5 -5.5t23 -6.5t21.5 -6l-31 -148l-58 4l7 47q1 13 -4 50q-64 23 -118 23q-80 0 -140 -54.5t-89 -139t-29 -185.5q0 -106 46.5 -173t129.5 -67q52 0 125 22q20 46 22 56l9 47l58 2 l-16 -151q-3 -1 -26.5 -7t-29 -7t-26 -6t-30.5 -6t-28 -3.5t-33.5 -3.5t-31.5 -1q-129 0 -200.5 80.5t-71.5 215.5z" />
<glyph unicode="D" horiz-adv-x="700" d="M9 -5l2 50l79 16q15 50 20 76l63 431q2 17 2 76l-73 12l13 54q61 -3 95 -5q25 1 81.5 5.5t91.5 4.5q141 0 219.5 -79.5t78.5 -217.5q0 -189 -103.5 -306.5t-279.5 -117.5q-18 0 -80.5 3t-94.5 3zM196 57q48 -4 111 -4q91 0 154.5 51.5t92 131t28.5 176.5 q0 108 -49.5 175.5t-147.5 67.5q-61 0 -103 -5q-14 -55 -23 -112l-54 -371q-13 -92 -9 -110z" />
<glyph unicode="E" horiz-adv-x="572" d="M9 -5l2 50l79 16q15 50 20 76l63 431q2 17 2 76l-73 12l13 54q91 -5 111 -5h219l112 10l16 -18l-13 -136l-57 -5q0 32 -3 54q0 11 -14 34q-52 5 -78 5h-126q-17 -70 -23 -111l-21 -142q32 -2 41 -2h70q9 0 23.5 2t25.5 5l10 2l18 66l45 -5q-4 -21 -15.5 -104t-10.5 -89 l-48 -6l1 67q-57 6 -76 6h-51q-17 0 -42 -3l-24 -168q-9 -60 -9 -110h138q36 0 86 9q22 28 25 37q19 46 25 67l53 -5l-37 -151l-21 -18q-90 4 -110 4h-232z" />
<glyph unicode="F" horiz-adv-x="536" d="M9 -5l2 50l79 16q15 50 20 76l63 431q2 17 2 76l-73 12l13 54q91 -5 111 -5h219l112 10l16 -18l-13 -136l-57 -5q0 32 -3 54q0 11 -14 34q-52 5 -78 5h-126q-17 -70 -23 -111l-22 -150q32 -2 41 -2h70l59 9l18 66l45 -5q-11 -64 -13 -84l-13 -109l-49 -6l2 67 q-57 6 -77 6h-50q-16 0 -42 -3l-23 -160q-9 -63 -9 -106l96 -7l-15 -59q-75 5 -154 5z" />
<glyph unicode="G" horiz-adv-x="646" d="M49 284q0 192 102 314t283 122q77 0 209 -34l-32 -148l-56 6l6 45q2 12 -4 49q-76 24 -134 24q-127 0 -199.5 -109.5t-72.5 -265.5q0 -108 50.5 -176t141.5 -68q52 0 127 20q19 56 21 65l10 68v71l-101 8l13 58h108l71 3l15 -17q-24 -103 -31 -153l-21 -147q-6 -1 -25 -6 t-26.5 -6.5t-25 -5.5t-27 -5.5t-26 -4t-29 -3.5t-28.5 -2t-31 -1q-137 0 -212.5 81.5t-75.5 217.5z" />
<glyph unicode="H" horiz-adv-x="752" d="M9 -5l2 50l79 16q15 50 20 76l63 431q2 17 2 76l-73 12l13 54q91 -5 111 -5l136 5l-4 -59l-77 -7q-14 -48 -22 -106l-23 -160l319 5l27 185q3 17 3 76l-73 12l13 54q91 -5 111 -5l136 5l-5 -59l-76 -7q-14 -48 -22 -106l-54 -371q-9 -63 -9 -106l85 -7l-15 -59 q-64 5 -143 5l-114 -5l2 50l79 16q1 4 5.5 20.5t8.5 32.5t5 23l28 190h-319l-23 -160q-9 -63 -9 -106l86 -7l-16 -59q-64 5 -143 5z" />
<glyph unicode="I" horiz-adv-x="354" d="M15 -5l2 50l79 16q1 4 5.5 20.5t8.5 32.5t5 23l63 431q3 17 3 76l-73 12l13 54q91 -5 111 -5l136 5l-5 -59l-76 -7q-14 -48 -22 -106l-54 -371q-9 -63 -9 -106l85 -7l-15 -59q-64 5 -143 5z" />
<glyph unicode="J" horiz-adv-x="324" d="M-18 -178q102 169 105 189l81 557q3 17 3 76l-73 12l13 54q91 -5 111 -5l136 5l-5 -59l-76 -7q-14 -48 -22 -106l-80 -548q-4 -30 -162 -190z" />
<glyph unicode="K" horiz-adv-x="679" d="M9 -5l3 50l78 16q15 50 20 76l63 431q2 17 2 76l-72 12l12 54q91 -5 111 -5l136 5l-5 -59l-76 -7q-14 -48 -22 -106l-54 -371q-9 -63 -9 -106l85 -7l-15 -59q-64 5 -143 5zM242 353l208 224l47 68l-50 11l13 54q81 -5 102 -5l125 5l-4 -59l-74 -7q-47 -39 -112 -98 l-154 -176q10 -15 73.5 -104.5t95.5 -136.5q12 -16 64 -68l66 -7l-15 -59q-60 5 -139 5l-123 -5l2 50l59 14q-36 79 -53 105z" />
<glyph unicode="L" horiz-adv-x="519" d="M9 -5l2 50l79 16q15 50 20 76l63 431q2 17 2 76l-73 12l13 54q91 -5 111 -5l136 5l-4 -59l-77 -7q-14 -48 -22 -106l-54 -371q-9 -61 -9 -110h113q37 0 86 9q23 29 25 37q19 48 24 67l54 -5l-37 -151l-21 -18q-91 4 -110 4h-207z" />
<glyph unicode="M" horiz-adv-x="902" d="M-5 -5l2 50l78 16q22 57 26 71l90 437l7 75l-78 12l13 54l132 -4h58l15 -21q22 -132 28 -156l76 -354l183 362l73 148l22 20h28l151 5l-5 -59l-78 -7q-8 -24 -14 -75l-31 -437l5 -71l77 -7l-14 -59q-64 5 -143 5l-115 -5l2 50l78 16q18 92 20 101l35 422l-296 -584h-37 l-126 584l-84 -422q-7 -46 -10 -101l77 -7l-16 -59q-48 5 -125 5z" />
<glyph unicode="N" horiz-adv-x="740" d="M9 -5l2 50l79 16q15 50 20 76l63 431q2 16 2 76l-75 12l12 54q91 -5 112 -5l45 1l16 -21q60 -133 71 -155l199 -367l58 395q3 24 3 83l-75 6l14 60l80 -2l153 5l-3 -53l-78 -16q-24 -64 -31 -113l-34 -231l-45 -304h-62l-297 563l-56 -389q-9 -54 -9 -106l77 -7l-16 -59 q-41 5 -120 5z" />
<glyph unicode="O" horiz-adv-x="719" d="M49 284q0 192 99.5 314t277.5 122q133 0 204 -81.5t71 -218.5q0 -191 -99.5 -313t-277.5 -122q-133 0 -204 81t-71 218zM156 283q0 -109 44 -177t129 -68q82 0 143.5 55t91.5 141t30 187q0 110 -43.5 178t-129.5 68q-83 0 -144.5 -55.5t-91 -141.5t-29.5 -187z" />
<glyph unicode="P" horiz-adv-x="570" d="M9 -5l2 50l79 16q15 50 20 76l63 431q2 17 2 76l-73 12l13 54q62 -4 95 -5q24 0 86.5 5t86.5 5q91 0 145 -45t54 -131q0 -116 -75.5 -182t-188.5 -66q-35 0 -95 2l-18 -126q-9 -63 -9 -106l90 -7l-16 -59q-68 5 -147 5zM231 345q48 -4 64 -4q88 0 140 49t52 140 q0 66 -37.5 100.5t-105.5 34.5q-18 0 -60 -5q-16 -60 -25 -122z" />
<glyph unicode="Q" horiz-adv-x="727" d="M49 284q0 192 99.5 314t277.5 122q133 0 204 -81.5t71 -218.5q0 -155 -68.5 -267.5t-195.5 -151.5l75 -61q6 -5 42 -23t68 -33l33 -16l-72 -92l-224 211q-24 -2 -36 -2q-133 0 -203.5 81t-70.5 218zM156 283q0 -109 44.5 -177t130.5 -68q122 0 192.5 112.5t70.5 270.5 q0 110 -43.5 178t-129.5 68q-83 0 -144.5 -55.5t-91 -141.5t-29.5 -187z" />
<glyph unicode="R" horiz-adv-x="630" d="M9 -5l2 50l80 16q15 50 20 76l64 431q2 17 2 76l-74 12l13 54q65 -3 98 -5q21 1 83.5 5.5t87.5 4.5q92 0 146 -44t54 -127q0 -88 -47.5 -147.5t-125.5 -82.5q45 -123 75 -183q7 -15 37 -70l69 -7l-15 -59q-76 5 -155 5q-27 92 -36 116l-69 185q-34 0 -92 2l-20 -136 q-9 -63 -9 -106l87 -7l-16 -59q-64 5 -144 5zM234 356q47 -5 75 -5q87 0 134 46.5t47 136.5q0 64 -38 97.5t-106 33.5q-9 0 -59 -6q-15 -51 -26 -121z" />
<glyph unicode="S" horiz-adv-x="543" d="M22 38l37 154l64 -6q-8 -50 -8 -63q0 -23 2 -51q60 -27 121 -27q66 0 106 37.5t40 101.5q0 39 -30 70t-72 54.5t-84.5 48.5t-72.5 64.5t-30 90.5q0 96 67 152t170 56q75 0 195 -32l-36 -151l-57 6q7 44 7 48q0 5 -5 52q-45 22 -111 22q-53 0 -90 -33t-37 -90 q0 -38 30.5 -68.5t73.5 -54t86 -49.5t73.5 -67.5t30.5 -95.5q0 -106 -74.5 -164t-186.5 -58q-58 0 -110 13.5t-75 26.5z" />
<glyph unicode="T" horiz-adv-x="578" d="M54 553l28 144l21 18q90 -10 109 -10h288l112 10l16 -18l-15 -144l-57 -5q0 47 -2 62q0 11 -14 34q-52 5 -77 5h-63q-15 -59 -23 -111l-54 -371q-3 -20 -9 -106l86 -7l-16 -59q-64 5 -142 5l-115 -5l3 50l78 16q15 50 20 76l63 431q1 9 2 42.5t1 38.5h-61q-24 0 -79 -5 q-22 -25 -24 -34q-3 -7 -20 -62z" />
<glyph unicode="U" horiz-adv-x="707" d="M77 656l12 54q91 -5 111 -5l143 5l-5 -59l-77 -7q-13 -47 -23 -111l-39 -267q-14 -99 20 -158t114 -59q84 0 136.5 59.5t66.5 157.5l44 297q2 17 2 81l-74 12l13 54q81 -5 102 -5l129 5l-4 -59l-77 -7q-12 -35 -24 -111l-39 -267q-18 -131 -92 -206t-197 -75t-178 75 t-37 206l44 297q3 25 3 81z" />
<glyph unicode="V" horiz-adv-x="673" d="M58 651l13 54h105l146 5l-4 -49l-79 -20q0 -51 13 -108l85 -385l206 430l20 63l-72 10l13 54h88l140 5l-4 -49l-67 -17q-33 -45 -59 -99l-262 -545h-62l-129 556q-4 16 -11 37.5t-12 34.5l-6 13z" />
<glyph unicode="W" horiz-adv-x="981" d="M60 651l13 54h105l146 5l-4 -49l-79 -20q3 -57 10 -108l54 -385l231 537h54l84 -537l181 430l19 63l-71 10l12 54h88l140 5l-3 -49l-68 -17q-41 -60 -59 -99l-237 -545h-61l-89 506l-218 -506h-62l-98 556q-3 19 -9.5 40t-11.5 33l-5 12z" />
<glyph unicode="X" horiz-adv-x="696" d="M-15 -5l2 47l61 17q90 83 108 105l155 191q-140 256 -158 286l-76 10l15 55q66 -1 86 -1l183 5l-3 -47l-78 -22q17 -66 27 -86l72 -133l115 156q7 9 41 63l-72 10l14 55q51 -1 79 -1l166 5l-2 -47l-69 -16q-69 -58 -87 -78l-154 -201l129 -236q15 -24 49 -68l74 -10 l-15 -55q-63 1 -82 1l-175 -5l2 47l65 18q-14 54 -31 82l-85 159l-134 -169q-14 -18 -44 -68l75 -10l-15 -55q-56 1 -80 1z" />
<glyph unicode="Y" horiz-adv-x="645" d="M64 651l13 54h105l146 5l-3 -49l-79 -20q4 -49 25 -108l71 -189l145 234l35 63l-70 10l12 54h88l140 5l-3 -49l-68 -17q-43 -47 -76 -99l-176 -271l-15 -107q-9 -63 -9 -106l85 -7l-15 -59q-64 5 -143 5l-114 -5l2 50l79 16q1 4 5.5 20.5t8.5 32.5t5 23l18 121l-108 298 q-6 18 -16.5 39.5t-17.5 33.5l-7 12z" />
<glyph unicode="Z" horiz-adv-x="543" d="M0 0l1 57q94 114 129 162l223 301l83 126h-176q-32 0 -84 -5l-21 -34q-16 -49 -23 -84l-56 5l29 169l21 18q90 -10 109 -10h323v-56l-126 -155l-222 -303l-87 -132h195q36 0 86 9q20 22 24 35q13 32 24 77l54 -5l-35 -161l-22 -18q-90 4 -110 4h-339z" />
<glyph unicode="[" horiz-adv-x="267" d="M41 -108q39 167 78 437.5t43 419.5l15 13l164 4l-7 -40l-85 -15q-23 -60 -29 -110l-80 -561q-3 -22 -3 -49.5t1 -44.5l1 -16l83 -15l-7 -40q-94 4 -163 4z" />
<glyph unicode="\" horiz-adv-x="398" d="M92 753l66 20l196 -820l-67 -20z" />
<glyph unicode="]" horiz-adv-x="267" d="M-25 -125l6 40l85 15q23 60 29 110l80 561q3 22 3 49.5t-1 43.5l-1 17l-83 15l7 40q95 -4 164 -4l11 -13q-40 -165 -78.5 -435.5t-42.5 -421.5l-15 -13z" />
<glyph unicode="^" horiz-adv-x="543" d="M26 357l316 371l207 -371l-67 -44l-156 302l-245 -302z" />
<glyph unicode="_" horiz-adv-x="504" d="M-52 -230l7 71h503l-15 -71h-495z" />
<glyph unicode="`" horiz-adv-x="349" d="M124 695l46 60l174 -150l-32 -41l-71 60z" />
<glyph unicode="a" horiz-adv-x="529" d="M30 139q0 75 34.5 161.5t87 145t99.5 58.5q14 0 37.5 -2.5t50.5 -6.5t36 -5l59 14l24 -16q-30 -122 -46.5 -216t-19.5 -202l89 -5l-3 -36l-153 -44l-26 15q15 68 29 178q-42 -86 -94 -137.5t-105 -51.5q-49 0 -74.5 38.5t-24.5 111.5zM121 150q0 -42 12 -68.5t32 -26.5 q29 0 69.5 56t74 141t42.5 159q-78 35 -114 35q-24 0 -51.5 -48t-46 -118.5t-18.5 -129.5z" />
<glyph unicode="b" horiz-adv-x="491" d="M38 0q33 122 64 332t43 359l-83 12l-3 39l166 28l23 -20q-53 -299 -71 -417q41 78 90.5 124t98.5 46q99 0 99 -149q0 -76 -35 -162.5t-87 -144.5t-99 -58q-20 0 -117 13l-63 -17zM144 81q71 -34 114 -34q24 0 51.5 48t46 118t18.5 130q0 42 -12 68.5t-32 26.5 q-28 0 -69 -56.5t-75 -141.5t-42 -159z" />
<glyph unicode="c" horiz-adv-x="397" d="M29 139q0 74 33 160.5t81 145t90 58.5q38 0 147 -14l15 -24l-38 -147l-36 2l-6 95q-60 21 -84 21q-34 0 -72.5 -99.5t-38.5 -187.5q0 -96 60 -96q78 0 154 101l32 -24q-87 -141 -222 -141q-57 0 -86.5 38.5t-28.5 111.5z" />
<glyph unicode="d" horiz-adv-x="532" d="M30 139q0 75 35 161.5t87.5 145t98.5 58.5q11 0 112 -13q16 132 21 200l-84 12l-2 39l166 28l23 -20q-10 -57 -32.5 -184t-31 -181t-18 -144t-10.5 -171l89 -5l-3 -36l-155 -44l-26 15q24 134 28 178q-42 -86 -94.5 -137.5t-104.5 -51.5q-99 0 -99 150zM121 150 q0 -42 12 -68.5t32 -26.5q29 0 70 56.5t74.5 141t41.5 158.5q-74 35 -114 35q-24 0 -51.5 -48t-46 -118.5t-18.5 -129.5z" />
<glyph unicode="e" horiz-adv-x="402" d="M29 139q0 75 35 161t86 144.5t94 58.5q147 0 147 -80q0 -76 -70.5 -132.5t-196.5 -81.5q-4 -28 -4 -60q0 -97 60 -97q79 0 154 102l33 -25q-42 -67 -99.5 -103.5t-122.5 -36.5q-57 0 -87 38t-29 112zM133 255q76 17 123 55.5t47 86.5q0 24 -15 34.5t-49 10.5 q-27 0 -57.5 -56t-48.5 -131z" />
<glyph unicode="f" horiz-adv-x="287" d="M-170 -234l27 71q5 -5 49 -5q33 0 73 13t49 25q25 34 52.5 204.5t43.5 347.5h-88l4 44l12 3q11 3 24 7t27.5 9t21.5 9q9 6 16 49q16 100 96 163.5t185 63.5l35 -3l-26 -70q-23 7 -44 7q-33 0 -72.5 -12.5t-49.5 -26.5q-25 -33 -49 -187h121l-14 -56h-116 q-14 -83 -35 -245.5t-33 -214.5q-23 -92 -100 -144.5t-178 -52.5q-8 0 -15.5 0.5t-11.5 0.5h-4z" />
<glyph unicode="g" horiz-adv-x="506" d="M-22 -215l31 78q73 -26 134 -26q54 0 91.5 12.5t48.5 23.5q10 10 18 44.5t10 74.5q0 6 4 34.5t10.5 73t10.5 77.5q-41 -86 -93 -137t-104 -51q-49 0 -74.5 37.5t-25.5 108.5q0 76 34.5 163t87 146.5t99.5 59.5q19 0 72 -7l52 -7l60 14l24 -16q-18 -67 -31.5 -140.5 t-18.5 -108t-15 -124t-11 -101.5q-8 -69 -37.5 -120t-72 -78t-86 -39t-89.5 -12q-33 0 -73 6t-56 14zM129 150q0 -42 12.5 -68.5t32.5 -26.5q29 0 69.5 56t74 141t42.5 159q-74 35 -114 35q-36 0 -76.5 -102.5t-40.5 -193.5z" />
<glyph unicode="h" horiz-adv-x="551" d="M38 0q33 122 64 332t43 359l-83 12l-3 39l166 28l23 -20q-57 -319 -75 -438q41 78 100.5 135t126.5 57q72 0 72 -82q0 -45 -24.5 -167t-28.5 -185l92 -5l-3 -36l-171 -44l-25 15q66 284 66 375q0 52 -33 52q-40 0 -102 -88.5t-96 -222.5q-3 -21 -15 -116l-68 -15z" />
<glyph unicode="i" horiz-adv-x="301" d="M49 461l165 43l23 -20q-34 -123 -73 -414l89 -5l-3 -36l-164 -44l-25 15q32 129 45.5 212t25.5 206l-82 4zM148 641q0 30 18 55.5t45 25.5q48 0 48 -51q0 -31 -18.5 -55.5t-46.5 -24.5q-46 0 -46 50z" />
<glyph unicode="j" horiz-adv-x="268" d="M-50 -208q31 53 64.5 123t40.5 99q44 183 62 404l-82 4l-1 39l165 43l23 -20q-11 -39 -22 -96t-19 -107t-22 -141t-24 -155q-6 -38 -154 -220zM133 641q0 30 18 55.5t45 25.5q48 0 48 -51q0 -31 -18.5 -55.5t-46.5 -24.5q-46 0 -46 50z" />
<glyph unicode="k" horiz-adv-x="494" d="M37 0q30 111 62 319.5t45 371.5l-84 12l-1 39l166 28l23 -20q-60 -337 -74 -433q44 88 104 137.5t121 49.5q69 0 67 -80q0 -67 -51 -123t-139 -88q49 -83 108 -143l92 -5l-3 -37l-145 -48l-130 212v38q90 27 140 71t49 95q2 31 -27 31q-58 0 -120 -88.5t-92 -215.5 q-4 -23 -10 -68.5t-7 -54.5l-68 -15z" />
<glyph unicode="l" horiz-adv-x="277" d="M38 0q33 122 64 332t43 359l-83 12l-3 39l166 28l23 -20q-78 -440 -108 -680l89 -5l-3 -36l-162 -44z" />
<glyph unicode="m" horiz-adv-x="845" d="M49 422v39l165 43l23 -20q-17 -56 -37 -170q40 78 98.5 134t124.5 56q71 0 71 -82q0 -28 -7 -81q95 163 207 163q72 0 72 -82q0 -45 -24.5 -167t-28.5 -185l92 -5l-3 -36l-171 -44l-26 15q67 279 67 375q0 52 -34 52q-38 0 -98 -86.5t-95 -218.5q-7 -44 -16 -122l-69 -15 l-26 15q67 279 67 375q0 52 -34 52q-41 0 -103.5 -92.5t-95.5 -233.5q-5 -38 -14 -101l-68 -15l-26 15q33 130 47 214t25 204z" />
<glyph unicode="n" horiz-adv-x="573" d="M49 422v39l165 43l23 -20q-17 -56 -37 -170q40 78 98 134t124 56q72 0 72 -82q0 -45 -24.5 -167t-28.5 -185l92 -5l-3 -36l-171 -44l-25 15q66 284 66 375q0 52 -34 52q-40 0 -102.5 -92.5t-95.5 -233.5l-14 -101l-68 -15l-26 15q33 130 47 214t25 204z" />
<glyph unicode="o" horiz-adv-x="472" d="M32 163q0 137 78 239t184 102q70 0 107.5 -45t37.5 -128q0 -138 -78 -240t-184 -102q-70 0 -107.5 45.5t-37.5 128.5zM129 159q0 -113 65 -113t106.5 81.5t41.5 205.5q0 114 -65 114t-106.5 -81.5t-41.5 -206.5z" />
<glyph unicode="p" horiz-adv-x="509" d="M23 -262q33 140 64.5 342t43.5 338l-83 4v39l165 43l23 -20q-18 -70 -31 -133q40 71 87 112t93 41q49 0 74.5 -38.5t24.5 -111.5q0 -75 -34.5 -161.5t-87 -145t-99.5 -58.5q-33 0 -114 13q-17 -122 -33 -264l-67 -15zM164 81q71 -34 114 -34q24 0 51.5 48t46 118.5 t18.5 129.5q-1 43 -13 69t-32 26q-29 0 -70 -56.5t-74 -141.5t-41 -159z" />
<glyph unicode="q" horiz-adv-x="509" d="M30 139q0 75 34.5 161.5t87 145t99.5 58.5q19 0 70.5 -7t52.5 -7l59 14l24 -16q-33 -117 -63.5 -320.5t-43.5 -359.5l89 -5l-3 -36l-164 -44l-26 15q54 300 74 424q-42 -80 -92 -126.5t-99 -46.5q-101 0 -99 150zM120 150q1 -43 13 -69t32 -26q29 0 69.5 56.5t74 141 t41.5 158.5q-74 35 -114 35q-24 0 -51.5 -48t-46 -118.5t-18.5 -129.5z" />
<glyph unicode="r" horiz-adv-x="399" d="M49 422v39l165 43l23 -20q-22 -75 -36 -160q40 82 91.5 131t98.5 49q19 0 23 -4l17 -24l-45 -169l-37 3l-6 120q-57 -32 -109 -129.5t-66 -196.5l-14 -104l-68 -15l-26 15q52 206 72 418z" />
<glyph unicode="s" horiz-adv-x="363" d="M-2 75l50 99l37 -11l-10 -94q34 -29 73 -29q42 0 66.5 20t24.5 59q0 27 -28.5 53.5t-62 47t-62 59.5t-28.5 87q0 59 46 98.5t111 39.5q23 0 52.5 -4t48.5 -8l18 -3l21 -24l-32 -123l-39 3l-15 99q-26 11 -52 11q-33 0 -58.5 -19t-25.5 -47q0 -25 29.5 -52.5t64.5 -50 t64.5 -59.5t29.5 -79q0 -70 -53 -114.5t-131 -44.5q-41 0 -80 16.5t-58 37.5z" />
<glyph unicode="t" horiz-adv-x="324" d="M47 424l4 44q78 21 97 32q11 6 26 30.5t25 45.5l10 21l41 -12q-5 -25 -10 -60t-7 -45h111l-15 -56h-106q-40 -222 -58 -355l112 -4l-3 -36l-185 -44l-25 15q48 194 74 424h-91z" />
<glyph unicode="u" d="M41 422v39l166 43l22 -20q-68 -257 -70 -365q0 -51 34 -51q40 0 100 90q59 87 103 269l9 61l73 16l24 -16q-37 -143 -53 -226.5t-26 -192.5l89 -4l-3 -36l-164 -44l-26 15q19 67 40 185q-46 -89 -103.5 -142.5t-117.5 -53.5q-35 0 -53.5 26t-18.5 63q0 41 26 156t32 184z " />
<glyph unicode="v" horiz-adv-x="484" d="M28 461l151 43l25 -16v-116q0 -13 -18 -126t-18 -148q0 -32 24 -32q39 0 84.5 46t77 113.5t31.5 125.5q0 21 -6 67l-81 4l-6 39l157 43l24 -16q-2 -124 -50.5 -240.5t-126.5 -187.5t-160 -71q-63 0 -63 68q0 23 23.5 136t23.5 149q0 6 -1 24.5t-1 35.5l-1 16l-83 4z" />
<glyph unicode="w" horiz-adv-x="753" d="M30 461l151 43l24 -16h2v-116q0 -13 -18.5 -126t-18.5 -148q0 -32 24 -32q54 0 122 92.5t68 192.5q0 4 -2.5 26.5t-6.5 56t-6 51.5l70 18l24 -15l4 -116q0 -13 -16 -126.5t-16 -148.5q0 -31 25 -31t59 25t64.5 64t52 92t21.5 104q0 18 -6 67l-80 4l-7 39l157 43l25 -16 q0 -106 -33.5 -202t-85 -159.5t-110.5 -100.5t-112 -37q-27 0 -41.5 20t-14.5 50q0 16 11 75q-50 -69 -109 -107t-113 -38q-62 0 -62 68q0 23 23 136t23 149q0 60 -3 76l-83 4z" />
<glyph unicode="x" horiz-adv-x="486" d="M-12 64q87 32 107 44q9 7 110 135q-43 109 -83 178l-81 5l-8 37l144 41l24 -15q16 -55 60 -186q5 6 43 59t61 78l85 64l22 -16l14 -63q-22 -7 -55.5 -22t-41.5 -20q-12 -8 -107 -136q33 -90 74 -177l103 -5l-4 -37l-142 -43l-23 15l-64 185q-97 -124 -107 -135l-85 -63 l-23 15z" />
<glyph unicode="y" horiz-adv-x="528" d="M-3 -215l32 78q71 -26 134 -26q53 0 90 12.5t50 23.5q10 11 21 69q11 62 33 241q-46 -88 -102.5 -141t-116.5 -53q-35 0 -53.5 26t-18.5 63q0 41 26 156t32 184l-83 4v39l166 43l22 -20q-70 -270 -70 -365q0 -51 34 -51q44 0 103.5 94.5t97.5 255.5l-80 4l-6 39l158 43 l24 -16q-23 -89 -39.5 -183.5t-22 -139t-17.5 -151.5q-8 -69 -37.5 -120t-71.5 -78t-85.5 -39t-89.5 -12q-34 0 -74 6t-56 14z" />
<glyph unicode="z" horiz-adv-x="438" d="M-7 6q117 143 178 228.5t128 194.5q-84 -1 -175 -17l-26 -81l-38 3l-5 146l16 24l298 -17l59 15l11 -19q-123 -157 -184.5 -242.5t-120.5 -184.5q120 0 178 13q53 91 54 95q1 0 17.5 -5.5t17.5 -6.5q0 -2 -12.5 -71t-12.5 -71l-30 -23l-280 13l-51 -13z" />
<glyph unicode="{" horiz-adv-x="276" d="M50 -108q35 152 68 372q-17 35 -60 45l4 23q45 7 72 44q32 233 37 373l15 13l164 4l-7 -40l-85 -15q-23 -60 -29 -110l-36 -245q-29 -27 -62 -38l-1 -4q33 -13 52 -40l-33 -234q-3 -22 -3 -49.5t1 -44.5l1 -16l83 -15l-7 -40q-94 4 -163 4z" />
<glyph unicode="|" horiz-adv-x="275" d="M61 -113l128 873l64 -8l-118 -874z" />
<glyph unicode="}" horiz-adv-x="276" d="M-25 -125l6 40l85 15q23 60 29 110l36 245q31 27 63 38v4q-31 12 -52 40l33 234q3 22 3 49.5t-1 43.5l-1 17l-83 15l7 40q95 -4 164 -4l11 -13q-35 -143 -69 -372q6 -15 23.5 -28t37.5 -17l-4 -23q-48 -8 -73 -45q-33 -238 -36 -372l-15 -13z" />
<glyph unicode="~" d="M46 213q8 12 21.5 29t46.5 46t55 29q37 0 124.5 -30t112.5 -30q13 0 33 13.5t33 27.5l14 14l35 -33q-8 -12 -21.5 -29t-46.5 -46t-55 -29q-31 0 -121 30t-116 30q-13 0 -33 -13.5t-34 -27.5l-13 -14z" />
<glyph unicode="&#xa1;" horiz-adv-x="228" d="M-31 -220q44 167 64 262.5t34 225.5l11 10l65 -12q-36 -178 -71 -486l-81 -15zM76 423q0 30 17.5 55t44.5 25q46 0 46 -50q0 -30 -18 -54.5t-45 -24.5q-45 0 -45 49z" />
<glyph unicode="&#xa2;" horiz-adv-x="469" d="M36 274q0 132 66.5 217t187.5 89l20 109l32 -3l-20 -107q35 -2 126 -34l-29 -125l-55 3l5 36q1 10 -2 34q-26 24 -55 29l-72 -390q33 0 67 9t52 18l18 9l20 -47q-8 -6 -22.5 -15t-58.5 -24t-88 -15l-20 -109l-34 3l20 108q-78 9 -118 63t-40 142zM127 279q0 -123 79 -144 l73 387q-75 -7 -113.5 -80.5t-38.5 -162.5z" />
<glyph unicode="&#xa3;" horiz-adv-x="554" d="M30 -5l3 50l78 15q15 49 20 77l15 104l-97 -4l3 35l99 4l10 72l-101 -5l3 35l103 4l17 113q12 79 73 123t147 44q66 0 178 -32l-36 -147l-56 6l6 40q1 13 -4 56q-41 22 -97 22q-50 0 -81.5 -25.5t-38.5 -72.5l-18 -123l207 10l-3 -34l-209 -10l-11 -72l212 10l-3 -34 l-214 -10l-11 -79l-10 -110h125q39 0 86 9q23 29 25 37q19 46 25 67l52 -5l-36 -151l-22 -18q-90 4 -109 4h-226z" />
<glyph unicode="&#xa5;" horiz-adv-x="626" d="M56 599l15 54h96l150 5l-2 -47l-78 -22q18 -70 27 -90l66 -153l145 199q1 2 24 45l-71 9l15 54h78l151 5l-2 -47l-70 -19l-80 -79l-88 -122l98 5l-4 -34l-120 -6l-46 -64l-2 -9l159 7l-3 -34l-161 -8l-12 -81l-9 -110l75 -6l-14 -55q-85 4 -154 4l-93 -4l3 52l76 9 q19 60 22 80l15 107l-150 -7l5 35l145 6l-31 70l-106 -5l3 35l89 4l-62 141q-33 48 -47 67z" />
<glyph unicode="&#xa6;" horiz-adv-x="256" d="M52 -113l46 325l71 -7l-43 -327zM128 400l52 360l64 -8l-48 -360z" />
<glyph unicode="&#xa7;" horiz-adv-x="513" d="M42 -71l36 154l59 -6q-7 -56 -7 -68q0 -7 0.5 -22.5t0.5 -22.5q45 -19 95 -19q43 0 75.5 26.5t32.5 66.5q0 30 -25 56.5t-61 47t-72 41.5t-61 49.5t-25 61.5q0 64 77 117l17 -12q-15 -23 -15 -48q0 -24 27.5 -49t67 -48.5t79 -50t67 -63.5t27.5 -79q1 -82 -64.5 -129 t-155.5 -47q-49 0 -92.5 11t-62.5 22zM120 555q4 79 60.5 122t141.5 43q60 0 162 -26l-35 -147l-54 6q5 30 6 40v8q0 12 -4 48q-41 16 -85 16q-38 0 -65 -21t-26 -61q0 -27 25 -53t61 -48t71.5 -44.5t60.5 -51.5t25 -60q0 -67 -74 -123l-17 12q15 21 14 48q-1 32 -29.5 59 t-68.5 48.5t-79 45.5t-65.5 59.5t-24.5 79.5z" />
<glyph unicode="&#xa8;" horiz-adv-x="349" d="M66 641q0 32 16 52t46 20q45 0 45 -48q0 -32 -16.5 -51.5t-45.5 -19.5q-45 0 -45 47zM295 641q0 32 16 52t46 20q44 0 44 -48q0 -32 -15.5 -51.5t-45.5 -19.5q-45 0 -45 47z" />
<glyph unicode="&#xa9;" horiz-adv-x="845" d="M57 250q0 151 107.5 258t257.5 107q153 0 259.5 -106t106.5 -259q0 -149 -107.5 -257t-258.5 -108q-150 0 -257.5 106t-107.5 259zM101 250q0 -132 94.5 -226.5t226.5 -94.5q133 0 227 94.5t94 226.5t-94.5 226.5t-226.5 94.5q-133 0 -227 -93.5t-94 -227.5zM225 249 q0 101 53 161t152 60q43 0 132 -20l-7 -101l-41 3v32q0 7 -7 28q-44 11 -76 11q-59 0 -91 -48.5t-32 -124.5t32 -125t91 -49q39 0 81 10q9 20 9 32l1 33l42 1l3 -103q-89 -20 -137 -20q-100 0 -152.5 59.5t-52.5 160.5z" />
<glyph unicode="&#xaa;" horiz-adv-x="343" d="M69 534q0 76 46 150.5t95 74.5q9 0 24.5 -2t32.5 -4.5t22 -3.5l44 10l20 -13q-37 -145 -41 -249l52 -3l-2 -28l-110 -26l-19 10q21 64 29 121q-28 -58 -64 -94t-73 -36q-27 0 -41.5 25.5t-14.5 67.5zM141 549q0 -47 22 -47q25 0 60.5 61.5t44.5 126.5q-45 18 -68 18 q-20 0 -39.5 -52.5t-19.5 -106.5z" />
<glyph unicode="&#xab;" horiz-adv-x="414" d="M33 242l183 222l34 -25l-135 -197l79 -197l-41 -25zM196 242l180 218l32 -25l-131 -193l77 -193l-40 -25z" />
<glyph unicode="&#xac;" d="M60 236l10 71h455l-32 -238h-71l26 171z" />
<glyph unicode="&#xad;" horiz-adv-x="282" d="M31 218l9 71h222l-16 -71h-215z" />
<glyph unicode="&#xae;" horiz-adv-x="845" d="M57 250q0 151 107.5 258t257.5 107q153 0 259.5 -106t106.5 -259q0 -149 -107.5 -257t-258.5 -108q-150 0 -257.5 106t-107.5 259zM101 250q0 -132 94.5 -226.5t226.5 -94.5q133 0 227 94.5t94 226.5t-94.5 226.5t-226.5 94.5q-133 0 -227 -93.5t-94 -227.5zM244 77 l50 13h1q0 3 1.5 12.5t2.5 18.5t1 13v251q0 5 -2.5 24t-2.5 20h-1l-47 4l4 34h49q15 0 62 3t63 3q64 0 99.5 -31t35.5 -92q0 -80 -79 -112q41 -80 61 -106q6 -11 30 -43l41 -5l-4 -37h-107l-12 33q-17 41 -18 43l-54 103h-53v-74q0 -20 3 -62l44 -6l-4 -37h-44l-114 -3z M365 262q13 -2 35 -2h11q85 7 85 89q0 44 -25.5 67t-70.5 23q-6 0 -32 -4q-3 -45 -3 -67v-106z" />
<glyph unicode="&#xaf;" horiz-adv-x="349" d="M73 606l8 53h313l-13 -53h-308z" />
<glyph unicode="&#xb0;" horiz-adv-x="359" d="M84 489q0 78 46 127.5t121 49.5q60 0 94.5 -32t35.5 -91q-1 -79 -47.5 -127t-122.5 -48q-60 0 -94 31t-33 90zM160 492q2 -73 60 -73q40 0 62 36t21 85q2 75 -59 75q-40 0 -62 -37t-22 -86z" />
<glyph unicode="&#xb1;" horiz-adv-x="546" d="M32 0l8 66l442 5l-10 -71h-440zM74 301l10 70h186l27 191h65l-25 -191h187l-10 -65l-186 -2l-25 -195h-70l27 194z" />
<glyph unicode="&#xb2;" horiz-adv-x="330" d="M52 450v55q142 121 183.5 168.5t41.5 90.5q0 25 -14.5 39.5t-39.5 14.5q-29 0 -60 -16q-9 -23 -10 -28l-3 -28l-43 -2l9 101q60 22 124 22q58 0 89 -23.5t31 -66.5q0 -55 -44.5 -108.5t-178.5 -160.5h92l55 6q16 25 17 30l7 26l42 -3l-21 -106l-18 -13q-57 2 -70 2h-189z " />
<glyph unicode="&#xb3;" horiz-adv-x="299" d="M38 425q85 12 137.5 49.5t52.5 88.5q0 56 -60 56l-39 -2l-3 39q119 17 119 105q0 48 -46 48q-22 0 -47 -10l-8 -24l-4 -33l-43 -3l6 97q56 18 106 18q115 0 115 -88q0 -75 -84 -113q33 -8 52.5 -32t19.5 -55q0 -67 -77 -118t-191 -62z" />
<glyph unicode="&#xb4;" horiz-adv-x="349" d="M122 605l175 150l45 -60q-103 -60 -117 -71l-71 -60z" />
<glyph unicode="&#xb6;" horiz-adv-x="543" d="M53 470q0 111 69.5 178t178.5 67q21 0 47 -3l-55 -396l-30 -25q-91 0 -150.5 46.5t-59.5 132.5zM205 -93q105 172 108 193l84 598l12 9q16 -2 33 -2q28 0 59.5 2t49.5 4l18 2l-9 -59l-72 -6q-18 -33 -68 -399q-22 -160 -30 -183q-6 -16 -45 -62t-75 -84l-37 -38z" />
<glyph unicode="&#xb7;" horiz-adv-x="202" d="M46 341q0 32 18.5 58.5t47.5 26.5q51 0 51 -55q0 -32 -19 -58t-48 -26q-50 0 -50 54z" />
<glyph unicode="&#xb8;" horiz-adv-x="349" d="M34 -217l17 35q35 -11 56 -11q26 0 42.5 14.5t16.5 39.5q0 36 -39 36l-21 -1l-10 10l24 104h47l-24 -69q39 -1 63 -21t24 -54q0 -45 -34.5 -73t-83.5 -28q-44 0 -78 18z" />
<glyph unicode="&#xb9;" horiz-adv-x="256" d="M79 447l2 38l55 8q9 28 13 50l31 212l-69 -29l-14 33q80 56 93 66l35 35l48 -7q-22 -113 -26 -143l-22 -149q-5 -28 -5 -68l47 -4l-10 -42q-40 3 -101 3z" />
<glyph unicode="&#xba;" horiz-adv-x="305" d="M69 551q0 85 50.5 146.5t120.5 61.5q47 0 71.5 -28t24.5 -81q0 -86 -51 -147.5t-121 -61.5q-46 0 -70.5 28.5t-24.5 81.5zM144 551q0 -63 36 -63q37 0 58.5 43.5t21.5 117.5q0 64 -36 64q-37 0 -58.5 -44t-21.5 -118z" />
<glyph unicode="&#xbb;" horiz-adv-x="416" d="M32 48l130 192l-76 194l39 25l121 -218l-182 -218zM190 44l133 196l-78 198l41 25l123 -222l-186 -222z" />
<glyph unicode="&#xbc;" horiz-adv-x="684" d="M31 -17l528 738l44 -32l-528 -738zM49 297l2 38l55 8q9 28 13 50l31 212l-69 -29l-14 33q80 56 93 66l35 35l48 -7q-22 -113 -26 -143l-22 -149q-5 -28 -5 -68l47 -4l-10 -42q-40 3 -101 3zM325 162l257 289l47 -43q-78 -70 -89 -84l-138 -162h98l10 71l74 24l-13 -90 l56 3l-8 -54h-56l-2 -17q-4 -25 -4 -56l43 -4l-9 -42q-42 3 -102 3l-75 -3l2 37l61 9q10 31 12 49l4 24h-137z" />
<glyph unicode="&#xbd;" horiz-adv-x="703" d="M31 -17l528 738l44 -32l-528 -738zM49 297l2 38l55 8q9 28 13 50l31 212l-69 -29l-14 33q80 56 93 66l35 35l48 -7q-22 -113 -26 -143l-22 -149q-5 -28 -5 -68l47 -4l-10 -42q-40 3 -101 3zM348 0v55q140 119 181 167.5t41 91.5q0 25 -14.5 39.5t-39.5 14.5 q-29 0 -60 -16q-9 -23 -10 -28l-3 -28l-43 -2l9 101q60 22 124 22q58 0 89 -23.5t31 -66.5q0 -55 -44.5 -108.5t-178.5 -160.5h92l55 6q16 25 17 30l7 26l42 -3l-21 -106l-18 -13q-57 2 -70 2h-186z" />
<glyph unicode="&#xbe;" horiz-adv-x="717" d="M8 275q85 12 137.5 49.5t52.5 88.5q0 56 -60 56l-39 -2l-3 39q119 17 119 105q0 48 -46 48q-22 0 -47 -10l-8 -24l-4 -33l-43 -3l6 97q55 18 106 18q115 0 115 -88q0 -75 -84 -113q33 -8 52.5 -32t19.5 -55q0 -67 -77 -118t-191 -62zM64 -17l528 738l44 -32l-528 -738z M358 162l257 289l47 -43q-78 -70 -89 -84l-138 -162h98l10 71l74 24l-13 -90l56 3l-8 -54h-56l-2 -17q-4 -25 -4 -56l43 -4l-9 -42q-42 3 -102 3l-75 -3l2 37l61 9q10 31 12 49l4 24h-137z" />
<glyph unicode="&#xbf;" horiz-adv-x="403" d="M-20 -60q0 108 71 176t182 66l8 86l12 10l64 -12l-14 -125l-32 -17q-30 4 -49 4q-69 0 -110.5 -51.5t-42.5 -131.5q1 -59 25 -94t72 -35q43 0 70 16l47 112l35 -8l-4 -111l-17 -26q-80 -33 -138 -33q-85 0 -132 45.5t-47 128.5zM246 423q0 30 17.5 55t44.5 25 q46 0 46 -50q0 -30 -18 -54.5t-45 -24.5q-45 0 -45 49z" />
<glyph unicode="&#xc0;" horiz-adv-x="644" d="M-23 -5l3 49l63 17l56 99l250 545l60 10l120 -566l25 -85l58 -10l-12 -54h-98l-142 -5l4 49l73 20l-10 108l-11 60h-212l-46 -105l-19 -63l66 -10l-12 -54h-85zM229 282l175 4l-50 271zM247 825l30 73l222 -100l-20 -48l-85 37z" />
<glyph unicode="&#xc1;" horiz-adv-x="644" d="M-23 -5l3 49l63 17l56 99l250 545l60 10l120 -566l25 -85l58 -10l-12 -54h-98l-142 -5l4 49l73 20l-10 108l-11 60h-212l-46 -105l-19 -63l66 -10l-12 -54h-85zM229 282l175 4l-50 271zM285 798l223 100l29 -73q-128 -32 -147 -38l-85 -37z" />
<glyph unicode="&#xc2;" horiz-adv-x="644" d="M-23 -5l3 49l63 17l56 99l250 545l60 10l120 -566l25 -85l58 -10l-12 -54h-98l-142 -5l4 49l73 20l-10 108l-11 60h-212l-46 -105l-19 -63l66 -10l-12 -54h-85zM221 786l184 107l153 -107l-28 -39l-79 41l-57 25q-9 -3 -24 -9t-26 -10t-16 -6l-91 -41zM229 282l175 4 l-50 271z" />
<glyph unicode="&#xc3;" horiz-adv-x="644" d="M-23 -5l3 49l63 17l56 99l250 545l60 10l120 -566l25 -85l58 -10l-12 -54h-98l-142 -5l4 49l73 20l-10 108l-11 60h-212l-46 -105l-19 -63l66 -10l-12 -54h-85zM226 781q2 4 6 10t15.5 21.5t22.5 27.5t25 22t25 10q20 0 77 -20.5t77 -20.5q12 0 26.5 12.5t23.5 25.5l9 13 l32 -21q-6 -11 -16.5 -27.5t-36 -43.5t-42.5 -27q-20 0 -77 20.5t-76 20.5q-12 0 -26.5 -11t-23.5 -22l-9 -11zM229 282l175 4l-50 271z" />
<glyph unicode="&#xc4;" horiz-adv-x="644" d="M-23 -5l3 49l63 17l56 99l250 545l60 10l120 -566l25 -85l58 -10l-12 -54h-98l-142 -5l4 49l73 20l-10 108l-11 60h-212l-46 -105l-19 -63l66 -10l-12 -54h-85zM227 812q0 32 16 52t46 20q46 0 46 -48q0 -32 -16.5 -51.5t-46.5 -19.5q-45 0 -45 47zM229 282l175 4 l-50 271zM456 812q0 32 16 52t46 20q45 0 45 -48q0 -32 -16 -51.5t-46 -19.5q-45 0 -45 47z" />
<glyph unicode="&#xc5;" horiz-adv-x="644" d="M-23 -5l3 49l63 17l56 99l250 545l60 10l120 -566l25 -85l58 -10l-12 -54h-98l-142 -5l4 49l73 20l-10 108l-11 60h-212l-46 -105l-19 -63l66 -10l-12 -54h-85zM229 282l175 4l-50 271zM304 816q0 45 26.5 72.5t75.5 27.5q37 0 55.5 -19t18.5 -52q0 -45 -25.5 -72.5 t-73.5 -27.5q-38 0 -57.5 19t-19.5 52zM352 821q0 -38 34 -38q25 0 36.5 17t11.5 40q0 38 -34 38q-24 0 -36 -17t-12 -40z" />
<glyph unicode="&#xc6;" horiz-adv-x="880" d="M-6 -5l3 50l60 16q57 65 73 92l299 491l-74 12l13 54q92 -5 111 -5h290l112 10l16 -18l-13 -136l-57 -5q0 32 -3 54q0 10 -14 33q-53 5 -78 5h-175q-4 -49 -6 -107l1 -155q54 -4 73 -4h47l59 9l19 66l43 -5l-12 -80l-14 -109l-47 -6l1 67q-57 6 -76 6h-28q-13 0 -65 -4 l1 -152l7 -117h118q35 0 87 9q20 26 25 37q19 46 25 67l52 -5l-37 -151l-21 -18q-90 4 -110 4h-211l-116 -5l4 50l81 16q5 32 5 69v118h-208l-88 -146q-3 -5 -8.5 -20t-8.5 -21l78 -7l-16 -59q-48 5 -126 5zM286 299l176 3l-1 254l-3 28z" />
<glyph unicode="&#xc7;" horiz-adv-x="593" d="M49 281q0 193 97.5 316t271.5 123q15 0 29.5 -1t26 -2t26.5 -3.5t23.5 -4t24.5 -5.5t21.5 -5.5t23 -6.5t21.5 -6l-31 -148l-58 4l7 47q1 13 -4 50q-64 23 -118 23q-80 0 -140 -54.5t-89 -139t-29 -185.5q0 -106 46.5 -173t129.5 -67q52 0 125 22q20 46 22 56l9 47l58 2 l-16 -151q-122 -32 -195 -34l-15 -44q39 -1 63 -21t24 -54q0 -45 -34.5 -73t-83.5 -28q-44 0 -78 18l17 35q35 -11 56 -11q26 0 42.5 14.5t16.5 39.5q0 36 -39 36l-21 -1l-10 10l18 81q-114 10 -176 89t-62 205z" />
<glyph unicode="&#xc8;" horiz-adv-x="572" d="M9 -5l2 50l79 16q15 50 20 76l63 431q2 17 2 76l-73 12l13 54q91 -5 111 -5h219l112 10l16 -18l-13 -136l-57 -5q0 32 -3 54q0 11 -14 34q-52 5 -78 5h-126q-17 -70 -23 -111l-21 -142q32 -2 41 -2h70q9 0 23.5 2t25.5 5l10 2l18 66l45 -5q-4 -21 -15.5 -104t-10.5 -89 l-48 -6l1 67q-57 6 -76 6h-51q-17 0 -42 -3l-24 -168q-9 -60 -9 -110h138q36 0 86 9q22 28 25 37q19 46 25 67l53 -5l-37 -151l-21 -18q-90 4 -110 4h-232zM220 825l30 73l222 -100l-20 -48l-85 37z" />
<glyph unicode="&#xc9;" horiz-adv-x="572" d="M9 -5l2 50l79 16q15 50 20 76l63 431q2 17 2 76l-73 12l13 54q91 -5 111 -5h219l112 10l16 -18l-13 -136l-57 -5q0 32 -3 54q0 11 -14 34q-52 5 -78 5h-126q-17 -70 -23 -111l-21 -142q32 -2 41 -2h70q9 0 23.5 2t25.5 5l10 2l18 66l45 -5q-4 -21 -15.5 -104t-10.5 -89 l-48 -6l1 67q-57 6 -76 6h-51q-17 0 -42 -3l-24 -168q-9 -60 -9 -110h138q36 0 86 9q22 28 25 37q19 46 25 67l53 -5l-37 -151l-21 -18q-90 4 -110 4h-232zM258 798l223 100l29 -73q-128 -32 -147 -38l-85 -37z" />
<glyph unicode="&#xca;" horiz-adv-x="572" d="M9 -5l2 50l79 16q15 50 20 76l63 431q2 17 2 76l-73 12l13 54q91 -5 111 -5h219l112 10l16 -18l-13 -136l-57 -5q0 32 -3 54q0 11 -14 34q-52 5 -78 5h-126q-17 -70 -23 -111l-21 -142q32 -2 41 -2h70q9 0 23.5 2t25.5 5l10 2l18 66l45 -5q-4 -21 -15.5 -104t-10.5 -89 l-48 -6l1 67q-57 6 -76 6h-51q-17 0 -42 -3l-24 -168q-9 -60 -9 -110h138q36 0 86 9q22 28 25 37q19 46 25 67l53 -5l-37 -151l-21 -18q-90 4 -110 4h-232zM195 786l184 107l153 -107l-28 -39l-79 41l-57 25q-9 -3 -24 -9t-26 -10t-16 -6l-91 -41z" />
<glyph unicode="&#xcb;" horiz-adv-x="572" d="M9 -5l2 50l79 16q15 50 20 76l63 431q2 17 2 76l-73 12l13 54q91 -5 111 -5h219l112 10l16 -18l-13 -136l-57 -5q0 32 -3 54q0 11 -14 34q-52 5 -78 5h-126q-17 -70 -23 -111l-21 -142q32 -2 41 -2h70q9 0 23.5 2t25.5 5l10 2l18 66l45 -5q-4 -21 -15.5 -104t-10.5 -89 l-48 -6l1 67q-57 6 -76 6h-51q-17 0 -42 -3l-24 -168q-9 -60 -9 -110h138q36 0 86 9q22 28 25 37q19 46 25 67l53 -5l-37 -151l-21 -18q-90 4 -110 4h-232zM201 812q0 32 16 52t46 20q46 0 46 -48q0 -16 -4.5 -29t-12 -22.5t-19.5 -14.5t-27 -5q-11 0 -19.5 3.5t-14 9.5 t-8.5 14.5t-3 19.5zM430 812q0 32 16 52t46 20q45 0 45 -48q0 -21 -7 -36.5t-21 -25t-34 -9.5q-22 0 -33.5 12.5t-11.5 34.5z" />
<glyph unicode="&#xcc;" horiz-adv-x="354" d="M15 -5l2 50l79 16q1 4 5.5 20.5t8.5 32.5t5 23l63 431q3 17 3 76l-73 12l13 54q91 -5 111 -5l136 5l-5 -59l-76 -7q-14 -48 -22 -106l-54 -371q-9 -63 -9 -106l85 -7l-15 -59q-64 5 -143 5zM102 825l30 73l222 -100l-20 -48l-85 37z" />
<glyph unicode="&#xcd;" horiz-adv-x="354" d="M15 -5l2 50l79 16q1 4 5.5 20.5t8.5 32.5t5 23l63 431q3 17 3 76l-73 12l13 54q91 -5 111 -5l136 5l-5 -59l-76 -7q-14 -48 -22 -106l-54 -371q-9 -63 -9 -106l85 -7l-15 -59q-64 5 -143 5zM139 798l223 100l29 -73q-128 -32 -147 -38l-85 -37z" />
<glyph unicode="&#xce;" horiz-adv-x="354" d="M15 -5l2 50l79 16q1 4 5.5 20.5t8.5 32.5t5 23l63 431q3 17 3 76l-73 12l13 54q91 -5 111 -5l136 5l-5 -59l-76 -7q-14 -48 -22 -106l-54 -371q-9 -63 -9 -106l85 -7l-15 -59q-64 5 -143 5zM76 786l184 107l153 -107l-28 -39l-79 41l-57 25q-9 -3 -24 -9t-26 -10t-16 -6 l-91 -41z" />
<glyph unicode="&#xd0;" horiz-adv-x="700" d="M10 -5l3 50l78 16q18 58 20 76l29 200h-85l6 43h85l28 188q2 17 2 76l-72 12l13 54q61 -3 94 -5q25 1 85.5 5.5t96.5 4.5q140 0 214 -79t74 -219q0 -187 -108.5 -305t-284.5 -118q-17 0 -74.5 3t-88.5 3zM194 57q50 -4 104 -4q135 0 211 104.5t76 253.5q0 108 -50 176 t-149 68q-65 0 -105 -5q-17 -64 -24 -112l-23 -158h139l-11 -43h-134l-25 -170q-9 -62 -9 -110z" />
<glyph unicode="&#xd1;" horiz-adv-x="738" d="M9 -5l2 50l79 16q15 50 20 76l63 431q2 16 2 76l-75 12l12 54q91 -5 112 -5l45 1l16 -21q60 -133 71 -155l199 -367l58 395q3 24 3 83l-75 6l14 60l80 -2l153 5l-3 -53l-78 -16q-24 -64 -31 -113l-34 -231l-45 -304h-62l-297 563l-56 -389q-9 -54 -9 -106l77 -7l-16 -59 q-41 5 -120 5zM264 781q2 4 6 10t15.5 21.5t22.5 27.5t25 22t25 10q20 0 77 -20.5t77 -20.5q12 0 26.5 12.5t23.5 25.5l9 13l32 -21q-6 -11 -16.5 -27.5t-36 -43.5t-42.5 -27q-20 0 -77 20.5t-76 20.5q-12 0 -26.5 -11t-23.5 -22l-9 -11z" />
<glyph unicode="&#xd2;" horiz-adv-x="719" d="M49 284q0 192 99.5 314t277.5 122q133 0 204 -81.5t71 -218.5q0 -191 -99.5 -313t-277.5 -122q-133 0 -204 81t-71 218zM156 283q0 -109 44 -177t129 -68q82 0 143.5 55t91.5 141t30 187q0 110 -43.5 178t-129.5 68q-83 0 -144.5 -55.5t-91 -141.5t-29.5 -187zM274 825 l30 73l222 -100l-20 -48l-85 37z" />
<glyph unicode="&#xd3;" horiz-adv-x="719" d="M49 284q0 192 99.5 314t277.5 122q133 0 204 -81.5t71 -218.5q0 -191 -99.5 -313t-277.5 -122q-133 0 -204 81t-71 218zM156 283q0 -109 44 -177t129 -68q82 0 143.5 55t91.5 141t30 187q0 110 -43.5 178t-129.5 68q-83 0 -144.5 -55.5t-91 -141.5t-29.5 -187zM312 798 l223 100l29 -73q-128 -32 -147 -38l-85 -37z" />
<glyph unicode="&#xd4;" horiz-adv-x="719" d="M49 284q0 192 99.5 314t277.5 122q133 0 204 -81.5t71 -218.5q0 -191 -99.5 -313t-277.5 -122q-133 0 -204 81t-71 218zM156 283q0 -109 44 -177t129 -68q82 0 143.5 55t91.5 141t30 187q0 110 -43.5 178t-129.5 68q-83 0 -144.5 -55.5t-91 -141.5t-29.5 -187zM248 786 l184 107l153 -107l-28 -39l-79 41l-57 25q-9 -3 -24 -9t-26 -10t-16 -6l-91 -41z" />
<glyph unicode="&#xd5;" horiz-adv-x="719" d="M49 284q0 192 99.5 314t277.5 122q133 0 204 -81.5t71 -218.5q0 -191 -99.5 -313t-277.5 -122q-133 0 -204 81t-71 218zM156 283q0 -109 44 -177t129 -68q82 0 143.5 55t91.5 141t30 187q0 110 -43.5 178t-129.5 68q-83 0 -144.5 -55.5t-91 -141.5t-29.5 -187zM253 781 q2 4 6 10t15.5 21.5t22.5 27.5t25 22t25 10q19 0 77 -20.5t77 -20.5q12 0 26.5 12.5t23.5 25.5l9 13l32 -21q-6 -11 -16.5 -27.5t-36 -43.5t-42.5 -27q-19 0 -76 20.5t-77 20.5q-12 0 -26.5 -11t-23.5 -22l-9 -11z" />
<glyph unicode="&#xd7;" horiz-adv-x="541" d="M45 90l177 158l-135 157l57 50l137 -155l177 157l45 -53l-177 -156l136 -154l-61 -53l-134 155l-179 -156z" />
<glyph unicode="&#xd8;" horiz-adv-x="715" d="M43 -113l100 153q-95 77 -95 243q0 192 100 314.5t278 122.5q81 0 141 -33l99 151l38 -23l-100 -152q93 -78 93 -242q0 -191 -100.5 -313.5t-277.5 -122.5q-79 0 -141 32l-100 -153zM152 283q0 -106 39 -170l335 512q-44 42 -108 42q-83 0 -145 -55.5t-91.5 -141 t-29.5 -187.5zM219 78q42 -40 108 -40q82 0 144 55t92 141t30 187q0 102 -38 167z" />
<glyph unicode="&#xd9;" horiz-adv-x="707" d="M77 656l12 54q91 -5 111 -5l143 5l-5 -59l-77 -7q-13 -47 -23 -111l-39 -267q-14 -99 20 -158t114 -59q84 0 136.5 59.5t66.5 157.5l44 297q2 17 2 81l-74 12l13 54q81 -5 102 -5l129 5l-4 -59l-77 -7q-12 -35 -24 -111l-39 -267q-18 -131 -92 -206t-197 -75t-178 75 t-37 206l44 297q3 25 3 81zM289 825l30 73l222 -100l-20 -48l-85 37z" />
<glyph unicode="&#xda;" horiz-adv-x="707" d="M77 656l12 54q91 -5 111 -5l143 5l-5 -59l-77 -7q-13 -47 -23 -111l-39 -267q-14 -99 20 -158t114 -59q84 0 136.5 59.5t66.5 157.5l44 297q2 17 2 81l-74 12l13 54q81 -5 102 -5l129 5l-4 -59l-77 -7q-12 -35 -24 -111l-39 -267q-18 -131 -92 -206t-197 -75t-178 75 t-37 206l44 297q3 25 3 81zM327 798l223 100l29 -73q-128 -32 -147 -38l-85 -37z" />
<glyph unicode="&#xdb;" horiz-adv-x="707" d="M77 656l12 54q91 -5 111 -5l143 5l-5 -59l-77 -7q-13 -47 -23 -111l-39 -267q-14 -99 20 -158t114 -59q84 0 136.5 59.5t66.5 157.5l44 297q2 17 2 81l-74 12l13 54q81 -5 102 -5l129 5l-4 -59l-77 -7q-12 -35 -24 -111l-39 -267q-18 -131 -92 -206t-197 -75t-178 75 t-37 206l44 297q3 25 3 81zM263 786l184 107l153 -107l-28 -39l-79 41l-57 25q-9 -3 -24 -9t-26 -10t-16 -6l-91 -41z" />
<glyph unicode="&#xdc;" horiz-adv-x="707" d="M77 656l12 54q91 -5 111 -5l143 5l-5 -59l-77 -7q-13 -47 -23 -111l-39 -267q-14 -99 20 -158t114 -59q84 0 136.5 59.5t66.5 157.5l44 297q2 17 2 81l-74 12l13 54q81 -5 102 -5l129 5l-4 -59l-77 -7q-12 -35 -24 -111l-39 -267q-18 -131 -92 -206t-197 -75t-178 75 t-37 206l44 297q3 25 3 81zM269 812q0 32 16 52t46 20q46 0 46 -48q0 -32 -16.5 -51.5t-46.5 -19.5q-45 0 -45 47zM498 812q0 32 16 52t46 20q45 0 45 -48q0 -32 -16 -51.5t-46 -19.5q-45 0 -45 47z" />
<glyph unicode="&#xde;" horiz-adv-x="567" d="M45 -5l3 50l78 16q18 58 20 76l63 431q2 17 2 76l-72 12l13 54q92 -5 111 -5l134 5l-5 -59l-77 -7q-6 -16 -17 -77q74 6 108 6q90 0 139 -44.5t49 -130.5q0 -116 -79.5 -182.5t-192.5 -66.5q-30 0 -86 2q-6 -46 -6 -90l86 -7l-15 -59q-63 5 -141 5zM244 204q40 -5 65 -5 q88 0 140.5 49t52.5 140q0 66 -38 100.5t-107 34.5q-14 0 -68 -6z" />
<glyph unicode="&#xdf;" horiz-adv-x="505" d="M-194 -234l25 67q27 -5 49 -5q34 0 74.5 13.5t48.5 26.5q21 34 41 124q14 67 26.5 154.5t26 207t16.5 139.5q9 69 33.5 121t53.5 81t65.5 46.5t64 23t53.5 5.5q57 0 90 -30t33 -88q0 -38 -19 -71t-46 -56.5t-53.5 -45.5t-45.5 -46.5t-19 -49.5q0 -21 15 -41.5t37 -38.5 t43.5 -38.5t36.5 -48t15 -59.5q0 -72 -49 -119.5t-114 -47.5q-50 0 -86 20t-52 44l39 64q47 -78 102 -78q37 0 59 21t22 60q0 22 -14.5 43t-35.5 39.5t-41.5 39t-35 50.5t-14.5 64q0 37 18.5 68.5t44.5 53.5t52 43t44.5 49t18.5 60q0 76 -81 76q-28 0 -62.5 -13t-43.5 -26 q-34 -50 -53 -174q-7 -44 -32 -226t-40 -280q-15 -93 -88 -158t-194 -65z" />
<glyph unicode="&#xe0;" horiz-adv-x="529" d="M30 139q0 75 34.5 161.5t87 145t99.5 58.5q14 0 37.5 -2.5t50.5 -6.5t36 -5l59 14l24 -16q-30 -122 -46.5 -216t-19.5 -202l89 -5l-3 -36l-153 -44l-26 15q15 68 29 178q-42 -86 -94 -137.5t-105 -51.5q-49 0 -74.5 38.5t-24.5 111.5zM121 150q0 -42 12 -68.5t32 -26.5 q29 0 69.5 56t74 141t42.5 159q-78 35 -114 35q-24 0 -51.5 -48t-46 -118.5t-18.5 -129.5zM191 695l46 60l174 -150l-32 -41l-71 60z" />
<glyph unicode="&#xe1;" horiz-adv-x="529" d="M30 139q0 75 34.5 161.5t87 145t99.5 58.5q14 0 37.5 -2.5t50.5 -6.5t36 -5l59 14l24 -16q-30 -122 -46.5 -216t-19.5 -202l89 -5l-3 -36l-153 -44l-26 15q15 68 29 178q-42 -86 -94 -137.5t-105 -51.5q-49 0 -74.5 38.5t-24.5 111.5zM121 150q0 -42 12 -68.5t32 -26.5 q29 0 69.5 56t74 141t42.5 159q-78 35 -114 35q-24 0 -51.5 -48t-46 -118.5t-18.5 -129.5zM227 605l175 150l45 -60q-103 -60 -117 -71l-71 -60z" />
<glyph unicode="&#xe2;" horiz-adv-x="529" d="M30 139q0 75 34.5 161.5t87 145t99.5 58.5q14 0 37.5 -2.5t50.5 -6.5t36 -5l59 14l24 -16q-30 -122 -46.5 -216t-19.5 -202l89 -5l-3 -36l-153 -44l-26 15q15 68 29 178q-42 -86 -94 -137.5t-105 -51.5q-49 0 -74.5 38.5t-24.5 111.5zM121 150q0 -42 12 -68.5t32 -26.5 q29 0 69.5 56t74 141t42.5 159q-78 35 -114 35q-24 0 -51.5 -48t-46 -118.5t-18.5 -129.5zM151 596l186 169l136 -169l-37 -32l-63 61l-51 43q-15 -10 -38 -25.5t-26 -17.5l-80 -61z" />
<glyph unicode="&#xe3;" horiz-adv-x="529" d="M30 139q0 75 34.5 161.5t87 145t99.5 58.5q14 0 37.5 -2.5t50.5 -6.5t36 -5l59 14l24 -16q-30 -122 -46.5 -216t-19.5 -202l89 -5l-3 -36l-153 -44l-26 15q15 68 29 178q-42 -86 -94 -137.5t-105 -51.5q-49 0 -74.5 38.5t-24.5 111.5zM121 150q0 -42 12 -68.5t32 -26.5 q29 0 69.5 56t74 141t42.5 159q-78 35 -114 35q-24 0 -51.5 -48t-46 -118.5t-18.5 -129.5zM155 612q6 11 16.5 28t36 45t42.5 28q20 0 72.5 -20.5t71.5 -20.5q12 0 26.5 13t23.5 25l9 13l32 -21q-6 -11 -16.5 -27.5t-36 -43.5t-42.5 -27q-20 0 -72 20.5t-71 20.5 q-12 0 -27 -13.5t-24 -27.5l-9 -13z" />
<glyph unicode="&#xe4;" horiz-adv-x="529" d="M30 139q0 75 34.5 161.5t87 145t99.5 58.5q14 0 37.5 -2.5t50.5 -6.5t36 -5l59 14l24 -16q-30 -122 -46.5 -216t-19.5 -202l89 -5l-3 -36l-153 -44l-26 15q15 68 29 178q-42 -86 -94 -137.5t-105 -51.5q-49 0 -74.5 38.5t-24.5 111.5zM121 150q0 -42 12 -68.5t32 -26.5 q29 0 69.5 56t74 141t42.5 159q-78 35 -114 35q-24 0 -51.5 -48t-46 -118.5t-18.5 -129.5zM152 641q0 32 16 52t46 20q45 0 45 -48q0 -32 -16.5 -51.5t-45.5 -19.5q-45 0 -45 47zM381 641q0 32 16 52t46 20q44 0 44 -48q0 -32 -15.5 -51.5t-45.5 -19.5q-45 0 -45 47z" />
<glyph unicode="&#xe5;" horiz-adv-x="529" d="M30 139q0 75 34.5 161.5t87 145t99.5 58.5q14 0 37.5 -2.5t50.5 -6.5t36 -5l59 14l24 -16q-30 -122 -46.5 -216t-19.5 -202l89 -5l-3 -36l-153 -44l-26 15q15 68 29 178q-42 -86 -94 -137.5t-105 -51.5q-49 0 -74.5 38.5t-24.5 111.5zM121 150q0 -42 12 -68.5t32 -26.5 q29 0 69.5 56t74 141t42.5 159q-78 35 -114 35q-24 0 -51.5 -48t-46 -118.5t-18.5 -129.5zM233 651q0 45 26.5 72.5t75.5 27.5q37 0 55.5 -19t18.5 -52q0 -45 -25.5 -72.5t-73.5 -27.5q-38 0 -57.5 19t-19.5 52zM281 656q0 -38 34 -38q25 0 36.5 17t11.5 40q0 38 -34 38 q-24 0 -36 -17t-12 -40z" />
<glyph unicode="&#xe6;" horiz-adv-x="666" d="M29 139q0 75 35.5 161t88 144.5t98.5 58.5q36 0 201 -25q31 25 58 25q145 0 145 -79q0 -76 -70 -132.5t-195 -81.5q-5 -35 -5 -61q0 -99 60 -99q81 0 156 103l31 -23q-85 -140 -220 -140q-105 0 -114 127q-81 -127 -165 -127q-104 0 -104 149zM116 148q0 -44 13 -71 t34 -27q32 0 75 58t77.5 144.5t42.5 161.5q-74 35 -121 35q-37 0 -79 -104.5t-42 -196.5zM399 255q78 17 126 56t48 87q0 25 -15.5 35.5t-51.5 10.5q-27 0 -58 -57t-49 -132z" />
<glyph unicode="&#xe7;" horiz-adv-x="397" d="M29 139q0 74 33 160.5t81 145t90 58.5q38 0 147 -14l15 -24l-38 -147l-36 2l-6 95q-60 21 -84 21q-34 0 -72.5 -99.5t-38.5 -187.5q0 -96 60 -96q78 0 154 101l32 -24q-78 -127 -199 -139l-17 -50q39 -1 63 -21t24 -54q0 -45 -34.5 -73t-83.5 -28q-44 0 -78 18l17 35 q35 -11 56 -11q26 0 42.5 14.5t16.5 39.5q0 36 -39 36l-21 -1l-10 10l19 85q-95 14 -93 148z" />
<glyph unicode="&#xe8;" horiz-adv-x="402" d="M29 139q0 75 35 161t86 144.5t94 58.5q147 0 147 -80q0 -76 -70.5 -132.5t-196.5 -81.5q-4 -28 -4 -60q0 -97 60 -97q79 0 154 102l33 -25q-42 -67 -99.5 -103.5t-122.5 -36.5q-57 0 -87 38t-29 112zM133 255q76 17 123 55.5t47 86.5q0 24 -15 34.5t-49 10.5 q-27 0 -57.5 -56t-48.5 -131zM183 695l46 60l174 -150l-32 -41l-71 60z" />
<glyph unicode="&#xe9;" horiz-adv-x="402" d="M29 139q0 75 35 161t86 144.5t94 58.5q147 0 147 -80q0 -76 -70.5 -132.5t-196.5 -81.5q-4 -28 -4 -60q0 -97 60 -97q79 0 154 102l33 -25q-42 -67 -99.5 -103.5t-122.5 -36.5q-57 0 -87 38t-29 112zM133 255q76 17 123 55.5t47 86.5q0 24 -15 34.5t-49 10.5 q-27 0 -57.5 -56t-48.5 -131zM200 605l175 150l45 -60q-103 -60 -117 -71l-71 -60z" />
<glyph unicode="&#xea;" horiz-adv-x="402" d="M29 139q0 75 35 161t86 144.5t94 58.5q147 0 147 -80q0 -76 -70.5 -132.5t-196.5 -81.5q-4 -28 -4 -60q0 -97 60 -97q79 0 154 102l33 -25q-42 -67 -99.5 -103.5t-122.5 -36.5q-57 0 -87 38t-29 112zM124 596l186 169l136 -169l-37 -32l-63 61l-51 43q-15 -10 -38 -25.5 t-26 -17.5l-80 -61zM133 255q76 17 123 55.5t47 86.5q0 24 -15 34.5t-49 10.5q-27 0 -57.5 -56t-48.5 -131z" />
<glyph unicode="&#xeb;" horiz-adv-x="402" d="M29 139q0 75 35 161t86 144.5t94 58.5q147 0 147 -80q0 -76 -70.5 -132.5t-196.5 -81.5q-4 -28 -4 -60q0 -97 60 -97q79 0 154 102l33 -25q-42 -67 -99.5 -103.5t-122.5 -36.5q-57 0 -87 38t-29 112zM125 641q0 32 16 52t46 20q45 0 45 -48q0 -32 -16.5 -51.5 t-45.5 -19.5q-45 0 -45 47zM133 255q76 17 123 55.5t47 86.5q0 24 -15 34.5t-49 10.5q-27 0 -57.5 -56t-48.5 -131zM354 641q0 32 16 52t46 20q44 0 44 -48q0 -32 -15.5 -51.5t-45.5 -19.5q-45 0 -45 47z" />
<glyph unicode="&#xec;" horiz-adv-x="296" d="M48 460l163 43l21 -19q-31 -110 -73 -415l90 -5l-3 -35l-160 -44l-25 15q33 132 46.5 214.5t24.5 204.5l-83 4zM74 695l46 60l174 -150l-32 -41l-71 60z" />
<glyph unicode="&#xed;" horiz-adv-x="296" d="M48 460l163 43l21 -19q-31 -110 -73 -415l90 -5l-3 -35l-160 -44l-25 15q33 132 46.5 214.5t24.5 204.5l-83 4zM111 605l175 150l45 -60q-103 -60 -117 -71l-71 -60z" />
<glyph unicode="&#xee;" horiz-adv-x="296" d="M35 596l186 169l136 -169l-37 -32l-63 61l-51 43q-15 -10 -38 -25.5t-26 -17.5l-80 -61zM48 460l163 43l21 -19q-31 -110 -73 -415l90 -5l-3 -35l-160 -44l-25 15q33 132 46.5 214.5t24.5 204.5l-83 4z" />
<glyph unicode="&#xf0;" horiz-adv-x="479" d="M33 165q0 57 18 116.5t50 109t80 81t102 31.5q42 0 71 -14q-8 66 -31 123l-129 -62l-17 35l130 63q-20 39 -62 97l46 20q41 -49 67 -93l127 62l16 -37l-124 -60q57 -114 57 -251q0 -66 -16 -134t-46 -127.5t-79.5 -97t-110.5 -37.5q-151 0 -149 175zM122 171 q0 -134 64 -134q45 0 80.5 37t54.5 94.5t29 115.5t10 110q0 7 -0.5 21t-0.5 20q-37 21 -78 21t-73 -28t-50 -72t-27 -91.5t-9 -93.5z" />
<glyph unicode="&#xf1;" horiz-adv-x="573" d="M49 422v39l165 43l23 -20q-17 -56 -37 -170q40 78 98 134t124 56q72 0 72 -82q0 -45 -24.5 -167t-28.5 -185l92 -5l-3 -36l-171 -44l-25 15q66 284 66 375q0 52 -34 52q-40 0 -102.5 -92.5t-95.5 -233.5l-14 -101l-68 -15l-26 15q33 130 47 214t25 204zM199 612 q6 11 16.5 28t36 45t42.5 28q20 0 72.5 -20.5t71.5 -20.5q12 0 27 13t23 25l9 13l32 -21q-6 -11 -16.5 -27.5t-36 -43.5t-42.5 -27q-20 0 -72 20.5t-71 20.5q-12 0 -27 -13.5t-24 -27.5l-9 -13z" />
<glyph unicode="&#xf2;" horiz-adv-x="472" d="M32 163q0 137 78 239t184 102q70 0 107.5 -45t37.5 -128q0 -138 -78 -240t-184 -102q-70 0 -107.5 45.5t-37.5 128.5zM129 159q0 -113 65 -113t106.5 81.5t41.5 205.5q0 114 -65 114t-106.5 -81.5t-41.5 -206.5zM200 695l46 60l174 -150l-32 -41l-71 60z" />
<glyph unicode="&#xf3;" horiz-adv-x="472" d="M32 163q0 137 78 239t184 102q70 0 107.5 -45t37.5 -128q0 -138 -78 -240t-184 -102q-70 0 -107.5 45.5t-37.5 128.5zM129 159q0 -113 65 -113t106.5 81.5t41.5 205.5q0 114 -65 114t-106.5 -81.5t-41.5 -206.5zM236 605l175 150l45 -60q-103 -60 -117 -71l-71 -60z" />
<glyph unicode="&#xf4;" horiz-adv-x="472" d="M32 163q0 137 78 239t184 102q70 0 107.5 -45t37.5 -128q0 -138 -78 -240t-184 -102q-70 0 -107.5 45.5t-37.5 128.5zM129 159q0 -113 65 -113t106.5 81.5t41.5 205.5q0 114 -65 114t-106.5 -81.5t-41.5 -206.5zM160 596l186 169l136 -169l-37 -32l-63 61l-51 43 q-15 -10 -38 -25.5t-26 -17.5l-80 -61z" />
<glyph unicode="&#xf5;" horiz-adv-x="472" d="M32 163q0 137 78 239t184 102q70 0 107.5 -45t37.5 -128q0 -138 -78 -240t-184 -102q-70 0 -107.5 45.5t-37.5 128.5zM129 159q0 -113 65 -113t106.5 81.5t41.5 205.5q0 114 -65 114t-106.5 -81.5t-41.5 -206.5zM164 612q6 11 16.5 28t36 45t42.5 28q20 0 72.5 -20.5 t71.5 -20.5q12 0 26.5 13t23.5 25l9 13l32 -21q-6 -11 -16.5 -27.5t-36 -43.5t-42.5 -27q-20 0 -72 20.5t-71 20.5q-12 0 -27 -13.5t-24 -27.5l-9 -13z" />
<glyph unicode="&#xf7;" horiz-adv-x="545" d="M48 213l9 66l436 5l-10 -71h-435zM194 39q1 31 18.5 55.5t44.5 24.5q44 0 46 -50q0 -30 -18 -54.5t-45 -24.5q-44 0 -46 49zM244 418q1 31 18 55.5t44 24.5q47 0 47 -50q-1 -30 -19 -54.5t-45 -24.5q-45 0 -45 49z" />
<glyph unicode="&#xf8;" horiz-adv-x="472" d="M-11 -79l78 116q-35 46 -35 126q0 137 78 239t184 102q42 0 74 -17l74 111l38 -20l-79 -118q38 -46 38 -129q0 -138 -78 -240t-184 -102q-45 0 -79 20l-72 -108zM129 159q0 -19 1 -27l194 289q-17 26 -47 26q-65 0 -106.5 -81.5t-41.5 -206.5zM144 77q16 -31 50 -31 q65 0 106.5 81.5t41.5 205.5q0 14 -2 36z" />
<glyph unicode="&#xf9;" d="M41 422v39l166 43l22 -20q-68 -257 -70 -365q0 -51 34 -51q40 0 100 90q59 87 103 269l9 61l73 16l24 -16q-37 -143 -53 -226.5t-26 -192.5l89 -4l-3 -36l-164 -44l-26 15q19 67 40 185q-46 -89 -103.5 -142.5t-117.5 -53.5q-35 0 -53.5 26t-18.5 63q0 41 26 156t32 184z M196 695l46 60l174 -150l-32 -41l-71 60z" />
<glyph unicode="&#xfa;" d="M41 422v39l166 43l22 -20q-68 -257 -70 -365q0 -51 34 -51q40 0 100 90q59 87 103 269l9 61l73 16l24 -16q-37 -143 -53 -226.5t-26 -192.5l89 -4l-3 -36l-164 -44l-26 15q19 67 40 185q-46 -89 -103.5 -142.5t-117.5 -53.5q-35 0 -53.5 26t-18.5 63q0 41 26 156t32 184z M233 605l175 150l45 -60q-103 -60 -117 -71l-71 -60z" />
<glyph unicode="&#xfb;" d="M41 422v39l166 43l22 -20q-68 -257 -70 -365q0 -51 34 -51q40 0 100 90q59 87 103 269l9 61l73 16l24 -16q-37 -143 -53 -226.5t-26 -192.5l89 -4l-3 -36l-164 -44l-26 15q19 67 40 185q-46 -89 -103.5 -142.5t-117.5 -53.5q-35 0 -53.5 26t-18.5 63q0 41 26 156t32 184z M156 596l186 169l136 -169l-37 -32l-63 61l-51 43q-15 -10 -38 -25.5t-26 -17.5l-80 -61z" />
<glyph unicode="&#xfc;" d="M41 422v39l166 43l22 -20q-68 -257 -70 -365q0 -51 34 -51q40 0 100 90q59 87 103 269l9 61l73 16l24 -16q-37 -143 -53 -226.5t-26 -192.5l89 -4l-3 -36l-164 -44l-26 15q19 67 40 185q-46 -89 -103.5 -142.5t-117.5 -53.5q-35 0 -53.5 26t-18.5 63q0 41 26 156t32 184z M157 641q0 32 16 52t46 20q45 0 45 -48q0 -32 -16.5 -51.5t-45.5 -19.5q-45 0 -45 47zM386 641q0 32 16 52t46 20q44 0 44 -48q0 -32 -15.5 -51.5t-45.5 -19.5q-45 0 -45 47z" />
<glyph unicode="&#xfe;" horiz-adv-x="487" d="M4 -262q37 136 80.5 451t61.5 503l-84 13l-2 37l162 28l22 -19q-26 -136 -68 -413q41 76 88.5 120.5t95.5 44.5q101 0 101 -149q0 -75 -35 -161t-87 -144.5t-98 -58.5q-17 0 -64.5 6t-50.5 6q-24 -174 -33 -264l-63 -15zM140 78q72 -34 115 -34q37 0 78 104t41 197 q0 44 -12.5 71t-32.5 27q-29 0 -71 -58t-76.5 -145.5t-41.5 -161.5z" />
<glyph unicode="&#xff;" horiz-adv-x="528" d="M-3 -215l32 78q71 -26 134 -26q53 0 90 12.5t50 23.5q10 11 21 69q11 62 33 241q-46 -88 -102.5 -141t-116.5 -53q-35 0 -53.5 26t-18.5 63q0 41 26 156t32 184l-83 4v39l166 43l22 -20q-70 -270 -70 -365q0 -51 34 -51q44 0 103.5 94.5t97.5 255.5l-80 4l-6 39l158 43 l24 -16q-23 -89 -39.5 -183.5t-22 -139t-17.5 -151.5q-8 -69 -37.5 -120t-71.5 -78t-85.5 -39t-89.5 -12q-34 0 -74 6t-56 14zM153 641q0 32 16 52t46 20q45 0 45 -48q0 -32 -16.5 -51.5t-45.5 -19.5q-45 0 -45 47zM382 641q0 32 16 52t46 20q44 0 44 -48q0 -32 -15.5 -51.5 t-45.5 -19.5q-45 0 -45 47z" />
<glyph unicode="&#x152;" horiz-adv-x="952" d="M49 283q0 192 100 314.5t278 122.5q48 0 92 -11q58 -4 88 -4h218l111 10l17 -18l-14 -136l-57 -5q0 32 -3 54q0 11 -14 34q-52 5 -78 5h-127q-12 -47 -23 -111l-21 -144q32 -2 41 -2h71l59 9l19 66l44 -5l-12 -80l-13 -109l-48 -6l1 67q-57 6 -76 6h-52q-18 0 -42 -3 l-25 -170q-7 -58 -10 -110h140q37 0 86 9q22 26 26 37q2 6 11.5 32t12.5 35l53 -5l-37 -151l-21 -18q-90 4 -110 4h-230q-29 0 -89 -4q-47 -11 -95 -11q-133 0 -202 80.5t-69 217.5zM153 283q0 -109 44 -177t131 -68q91 0 158 70l71 487q-49 72 -138 72q-83 0 -145 -55.5 t-91.5 -141t-29.5 -187.5z" />
<glyph unicode="&#x153;" horiz-adv-x="693" d="M33 165q0 77 30.5 154t90 130.5t130.5 53.5q106 0 136 -89q64 89 117 89q145 0 145 -79q0 -76 -70.5 -132.5t-195.5 -81.5q-4 -28 -4 -61q0 -99 60 -99q81 0 156 103l31 -23q-85 -140 -220 -140q-81 0 -105 75q-65 -75 -152 -75q-149 0 -149 175zM126 171q0 -49 14 -86.5 t48 -37.5q48 0 85 43.5t55 105.5t17 126q0 124 -65 124q-68 0 -111 -87t-43 -188zM425 255q79 17 127 56t48 87q0 25 -15.5 35.5t-51.5 10.5q-27 0 -58.5 -57t-49.5 -132z" />
<glyph unicode="&#x178;" horiz-adv-x="645" d="M64 651l13 54h105l146 5l-3 -49l-79 -20q4 -49 25 -108l71 -189l145 234l35 63l-70 10l12 54h88l140 5l-3 -49l-68 -17q-43 -47 -76 -99l-176 -271l-15 -107q-9 -63 -9 -106l85 -7l-15 -59q-64 5 -143 5l-114 -5l2 50l79 16q1 4 5.5 20.5t8.5 32.5t5 23l18 121l-108 298 q-6 18 -16.5 39.5t-17.5 33.5l-7 12zM237 812q0 32 16 52t46 20q46 0 46 -48q0 -32 -16.5 -51.5t-46.5 -19.5q-45 0 -45 47zM466 812q0 32 16 52t46 20q45 0 45 -48q0 -32 -16 -51.5t-46 -19.5q-45 0 -45 47z" />
<glyph unicode="&#x2c6;" horiz-adv-x="349" d="M65 596l186 169l136 -169l-37 -32l-63 61l-51 43q-15 -10 -38 -25.5t-26 -17.5l-80 -61z" />
<glyph unicode="&#x2dc;" horiz-adv-x="349" d="M69 612q6 11 16.5 28t36 45t42.5 28q20 0 72.5 -20.5t71.5 -20.5q12 0 27 13t23 25l9 13l32 -21q-6 -11 -16.5 -27.5t-36 -43.5t-42.5 -27q-20 0 -72 20.5t-71 20.5q-12 0 -27 -13.5t-24 -27.5l-9 -13z" />
<glyph unicode="&#x2000;" horiz-adv-x="458" />
<glyph unicode="&#x2001;" horiz-adv-x="916" />
<glyph unicode="&#x2002;" horiz-adv-x="458" />
<glyph unicode="&#x2003;" horiz-adv-x="916" />
<glyph unicode="&#x2004;" horiz-adv-x="305" />
<glyph unicode="&#x2005;" horiz-adv-x="229" />
<glyph unicode="&#x2006;" horiz-adv-x="152" />
<glyph unicode="&#x2007;" horiz-adv-x="152" />
<glyph unicode="&#x2008;" horiz-adv-x="114" />
<glyph unicode="&#x2009;" horiz-adv-x="183" />
<glyph unicode="&#x200a;" horiz-adv-x="50" />
<glyph unicode="&#x2010;" horiz-adv-x="282" d="M31 218l9 71h222l-16 -71h-215z" />
<glyph unicode="&#x2011;" horiz-adv-x="282" d="M31 218l9 71h222l-16 -71h-215z" />
<glyph unicode="&#x2012;" horiz-adv-x="282" d="M31 218l9 71h222l-16 -71h-215z" />
<glyph unicode="&#x2013;" horiz-adv-x="504" d="M12 218l8 71h504l-16 -71h-496z" />
<glyph unicode="&#x2014;" horiz-adv-x="1006" d="M12 218l8 71h1006l-16 -71h-998z" />
<glyph unicode="&#x2018;" horiz-adv-x="201" d="M85 591q0 62 40.5 114.5t105.5 64.5l6 -22q-33 -14 -54 -39t-24 -56q50 0 50 -52q0 -31 -19 -56.5t-48 -25.5q-57 0 -57 72z" />
<glyph unicode="&#x2019;" horiz-adv-x="201" d="M64 541q33 14 54 39t24 56q-50 0 -50 52q0 31 19 56.5t48 25.5q57 0 57 -72q0 -62 -40.5 -114.5t-105.5 -64.5z" />
<glyph unicode="&#x201a;" horiz-adv-x="200" d="M-16 -109q72 32 78 99q-50 0 -50 54q0 32 19 58.5t48 26.5q58 0 56 -75q0 -64 -40 -118t-106 -67z" />
<glyph unicode="&#x201c;" horiz-adv-x="361" d="M86 591q0 62 40.5 114.5t105.5 64.5l6 -22q-33 -14 -54 -39t-24 -56q50 0 50 -52q0 -31 -19 -56.5t-48 -25.5q-57 0 -57 72zM246 591q0 62 40.5 114.5t105.5 64.5l6 -22q-33 -14 -54 -39t-24 -56q50 0 50 -52q0 -31 -19 -56.5t-48 -25.5q-57 0 -57 72z" />
<glyph unicode="&#x201d;" horiz-adv-x="361" d="M76 536q33 14 53.5 39t24.5 56q-24 0 -37.5 14t-13.5 38q0 31 19 56.5t48 25.5q56 0 58 -72q-1 -63 -41.5 -115t-105.5 -64zM236 536q33 14 53.5 39t24.5 56q-24 0 -37.5 14t-13.5 38q0 31 19 56.5t48 25.5q56 0 58 -72q-1 -63 -41.5 -115t-105.5 -64z" />
<glyph unicode="&#x201e;" horiz-adv-x="360" d="M-6 -109q72 32 78 99q-50 0 -50 54q0 32 19 58.5t48 26.5q58 0 56 -75q0 -64 -40 -118t-106 -67zM154 -109q72 32 78 99q-50 0 -50 54q0 32 19 58.5t48 26.5q58 0 56 -75q0 -64 -40 -118t-106 -67z" />
<glyph unicode="&#x2022;" horiz-adv-x="265" d="M49 234q0 40 23.5 73t59.5 33q63 0 63 -69q0 -40 -23.5 -72t-59.5 -32q-30 0 -46.5 18t-16.5 49z" />
<glyph unicode="&#x2026;" horiz-adv-x="540" d="M30 44q0 32 18.5 58.5t47.5 26.5q51 0 51 -55q0 -32 -19 -58t-48 -26q-50 0 -50 54zM206 44q0 32 18.5 58.5t47.5 26.5q51 0 51 -55q0 -32 -19 -58t-48 -26q-50 0 -50 54zM387 44q0 32 18.5 58.5t47.5 26.5q51 0 51 -55q0 -32 -19 -58t-48 -26q-50 0 -50 54z" />
<glyph unicode="&#x202f;" horiz-adv-x="183" />
<glyph unicode="&#x2039;" horiz-adv-x="257" d="M38 242l183 222l34 -25l-135 -197l79 -197l-41 -25z" />
<glyph unicode="&#x203a;" horiz-adv-x="257" d="M36 44l133 196l-78 198l41 25l123 -222l-186 -222z" />
<glyph unicode="&#x205f;" horiz-adv-x="229" />
<glyph unicode="&#x20ac;" horiz-adv-x="668" d="M19 237l3 35l90 4q0 25 6 71l-88 -4l3 35l92 4q30 128 117 204t221 76q16 0 30.5 -1t30.5 -3.5t26 -4t27.5 -5.5t24 -6t26.5 -7.5t24 -6.5l-33 -148l-58 6l6 45q2 9 -2 50q-60 23 -110 23q-84 0 -142 -60t-82 -157l202 9l-3 -34l-206 -10q-5 -31 -7 -72l205 10l-3 -34 l-202 -10q3 -92 43 -147.5t114 -55.5q58 0 124 22q17 36 30 103l60 2l-17 -151q-134 -34 -207 -34q-119 0 -183 69t-69 187z" />
<glyph unicode="&#x2122;" horiz-adv-x="506" d="M61 646l11 56l7 7q30 -3 36 -3h106l36 3l6 -7l-6 -56l-23 -1q1 3 1 11t-1 12l-1 2q-1 3 -1 5q-8 2 -23 2h-16l-7 -25l-17 -115q-4 -31 -2 -38l20 -2l-6 -27q-26 2 -64 2l-31 -2l1 24l22 5l7 28l16 111q3 18 3 39h-14q-11 0 -27 -2q-1 -5 -3 -7l-6 -23zM248 470l2 23l23 5 q1 3 4 9.5t3 8.5l28 144q1 4 1 18l-20 4l5 25q18 -1 34 -3h47l6 -5q5 -37 7 -51l17 -101l49 107l19 45l8 7h34l42 1l-3 -25l-21 -4l-3 -18l-11 -144q0 -1 1 -8t2 -10l18 -3l-4 -25q-23 2 -58 2l-33 -2l2 23l22 5l6 28l11 115l-82 -169h-32l-30 169l-24 -115l-3 -28l21 -3 l-5 -25q-14 2 -51 2z" />
<glyph unicode="&#xe000;" horiz-adv-x="505" d="M0 0v505h505v-505h-505z" />
</font>
</defs>
</svg>
