<?xml version="1.0" standalone="no"?>
<!DOCTYPE svg PUBLIC "-//W3C//DTD SVG 1.1//EN" "http://www.w3.org/Graphics/SVG/1.1/DTD/svg11.dtd" >
<svg xmlns="http://www.w3.org/2000/svg">
<metadata></metadata>
<defs>
<font id="rawengulkultralight" horiz-adv-x="535" >
<font-face units-per-em="1000" ascent="786" descent="-214" />
<missing-glyph horiz-adv-x="357" />
<glyph unicode="&#xfb01;" horiz-adv-x="464" d="M36 455v9h71v81q0 57 41 97.5t98 40.5q42 0 75 -22v-18h-9v12q-32 19 -66 19q-54 0 -92 -37.5t-38 -91.5v-81h170v-9h-170v-455h-9v455h-71zM366 457v9h26v-464h-9v455h-17zM374 609q0 5 4.5 9.5t9.5 4.5t9 -4.5t4 -9.5t-4 -9t-9 -4t-9.5 4t-4.5 9z" />
<glyph unicode="&#xfb02;" horiz-adv-x="464" d="M36 455v9h71v81q0 57 41 97.5t98 40.5q42 0 75 -22v-18h-9v12q-32 19 -66 19q-54 0 -92 -37.5t-38 -91.5v-81h170v-9h-170v-455h-9v455h-71zM375 670v9h26v-679h-9v670h-17z" />
<glyph unicode="&#xfb03;" horiz-adv-x="750" d="M36 455v9h71v81q0 57 41 97.5t98 40.5q42 0 75 -22v-18h-9v12q-32 19 -66 19q-54 0 -92 -37.5t-38 -91.5v-81h134v-9h-134v-455h-9v455h-71zM322 455v9h71v81q0 57 41 97.5t98 40.5q42 0 75 -22v-18h-9v12q-32 19 -66 19q-54 0 -92 -37.5t-38 -91.5v-81h170v-9h-170v-455 h-9v455h-71zM652 457v9h26v-464h-9v455h-17zM660 609q0 5 4.5 9.5t9.5 4.5t9 -4.5t4 -9.5t-4 -9t-9 -4t-9.5 4t-4.5 9z" />
<glyph unicode="&#xfb04;" horiz-adv-x="750" d="M36 455v9h71v81q0 57 41 97.5t98 40.5q42 0 75 -22v-18h-9v12q-32 19 -66 19q-54 0 -92 -37.5t-38 -91.5v-81h134v-9h-134v-455h-9v455h-71zM322 455v9h71v81q0 57 41 97.5t98 40.5q42 0 75 -22v-18h-9v12q-32 19 -66 19q-54 0 -92 -37.5t-38 -91.5v-81h170v-9h-170v-455 h-9v455h-71zM661 670v9h26v-679h-9v670h-17z" />
<glyph horiz-adv-x="1000" />
<glyph horiz-adv-x="1000" />
<glyph unicode="&#xd;" horiz-adv-x="321" />
<glyph unicode=" "  horiz-adv-x="357" />
<glyph unicode="&#x09;" horiz-adv-x="357" />
<glyph unicode="&#xa0;" horiz-adv-x="357" />
<glyph unicode="!" horiz-adv-x="151" d="M62 9q0 5 4.5 9t9.5 4t9 -4t4 -9t-4 -9t-9 -4t-9.5 4t-4.5 9zM71 179v500h27v-9h-18v-491h-9z" />
<glyph unicode="&#x22;" horiz-adv-x="214" d="M53 537l9 28q9 30 9 82q0 25 -1 32l8 2q2 -8 2 -34q0 -53 -10 -85l-8 -28zM133 537l9 28q10 33 10 82q0 18 -2 32l8 2q3 -12 3 -34q0 -49 -11 -85l-8 -28z" />
<glyph unicode="#" horiz-adv-x="375" d="M18 232v9h85l15 170h-86v9h87l10 113l8 -1l-9 -112h133l10 113l9 -1l-10 -112h87v-9h-87l-15 -170h87v-9h-88l-11 -124h-9l11 124h-134l-11 -124h-9l11 124h-84zM112 241h134l15 170h-134z" />
<glyph unicode="$" horiz-adv-x="580" d="M36 108v18h9v-14q35 -35 106 -68.5t139 -33.5v332q-42 13 -66.5 21.5t-57 24t-50.5 31.5t-31 39.5t-13 52.5q0 55 65.5 94t152.5 39v52h9v-52q55 -2 112.5 -22.5t97.5 -60.5v-24h-9v20q-37 36 -92 56t-109 22v-286q40 -12 61 -19.5t55 -21t53 -26.5t39 -32t29 -42.5 t9 -52.5q0 -66 -64.5 -109.5t-181.5 -44.5v-55h-9v55q-72 0 -145 35.5t-109 71.5zM80 511q0 -27 12.5 -49t29.5 -37t48 -30t55.5 -23.5t64.5 -20.5v284q-85 0 -147.5 -37.5t-62.5 -86.5zM299 10q114 1 175.5 42.5t61.5 102.5q0 32 -14.5 58.5t-33.5 43.5t-56 34t-61.5 25.5 t-71.5 22.5v-329z" />
<glyph unicode="%" horiz-adv-x="616" d="M36 536q0 46 29 78.5t82 32.5t82.5 -33t29.5 -78q0 -46 -29.5 -79t-82.5 -33t-82 33t-29 79zM45 536q0 -42 26.5 -72.5t75.5 -30.5t76 30.5t27 72.5t-27 72t-76 30t-75.5 -30t-26.5 -72zM57 39l500 571l6 -6l-500 -571zM357 107q0 46 29.5 79t82.5 33t82 -33t29 -79 t-29 -78.5t-82 -32.5t-82.5 32.5t-29.5 78.5zM366 107q0 -42 27 -72.5t76 -30.5t75.5 30.5t26.5 72.5t-26.5 72.5t-75.5 30.5t-76 -30.5t-27 -72.5z" />
<glyph unicode="&#x26;" horiz-adv-x="651" d="M36 178q0 54 37.5 104.5t103.5 79.5q-34 50 -34 101v1q0 68 48.5 116.5t116.5 48.5t116.5 -44t48.5 -107v-5h-40v9h31q-2 57 -47.5 98t-108.5 41q-64 0 -110 -46t-46 -111v-1q0 -45 26.5 -87t107.5 -129l178 -191q107 71 107 198q0 11 -4 27t-14 37t-32 36t-52 16v-31h-9 v40h4q34 0 59 -15.5t36 -38.5t16 -41t5 -30q0 -132 -110 -205q37 -40 66 -40h80v-9h-80q-33 0 -73 44h-1q-76 -48 -169 -48q-126 0 -191.5 54.5t-65.5 127.5zM45 178q0 -69 62.5 -121.5t185.5 -52.5q87 0 163 47l-177 190q-68 72 -97 114q-64 -28 -100.5 -76.5t-36.5 -100.5 z" />
<glyph unicode="'" horiz-adv-x="133" d="M53 537l9 28q9 30 9 82q0 25 -1 32l8 2q2 -8 2 -34q0 -53 -10 -85l-8 -28z" />
<glyph unicode="(" horiz-adv-x="223" d="M36 259q0 154 42 291t117 186l4 -8q-72 -47 -113 -181t-41 -288q0 -153 40.5 -279.5t113.5 -172.5l-4 -7q-76 49 -117.5 177.5t-41.5 281.5z" />
<glyph unicode=")" horiz-adv-x="223" d="M24 -193q73 46 114 172.5t41 279.5q0 154 -41.5 288t-113.5 181l4 8q75 -49 117.5 -186.5t42.5 -290.5q0 -152 -42 -281t-118 -178z" />
<glyph unicode="*" horiz-adv-x="285" d="M35 552l3 8l100 -36v105h9v-105l100 36l3 -8l-100 -36l63 -86l-8 -6l-62 86l-63 -86l-7 6l63 86z" />
<glyph unicode="+" horiz-adv-x="437" d="M36 321v9h178v179h9v-179h179v-9h-179v-178h-9v178h-178z" />
<glyph unicode="," horiz-adv-x="133" d="M32 -78q15 18 25 40t10 34q-5 0 -9 4t-4 9t4 9t9 4t9 -4t4 -9q0 -41 -42 -91z" />
<glyph unicode="-" horiz-adv-x="285" d="M36 277v9h214v-9h-214z" />
<glyph unicode="." horiz-adv-x="125" d="M45 9q0 5 4 9t9 4t9 -4t4 -9t-4 -9t-9 -4t-9 4t-4 9z" />
<glyph unicode="/" horiz-adv-x="517" d="M20 -44l469 732l8 -5l-470 -732z" />
<glyph unicode="0" horiz-adv-x="544" d="M36 330q0 147 70 232t166 85t166.5 -84.5t70.5 -231.5q0 -154 -71 -244.5t-166 -90.5t-165.5 90.5t-70.5 243.5zM45 330q0 -151 68 -238.5t159 -87.5t159.5 88t68.5 239q0 143 -68 225t-160 82q-91 0 -159 -82.5t-68 -225.5z" />
<glyph unicode="1" horiz-adv-x="187" d="M29 558l76 85h11v-643h-9v632l-71 -80z" />
<glyph unicode="2" horiz-adv-x="437" d="M36 0v16l218 224q74 76 106.5 127t32.5 96v1q0 72 -51 123t-123 51t-123 -51t-51 -123h-9q0 76 53.5 129.5t129.5 53.5t129.5 -53.5t53.5 -129.5v-1q0 -48 -33.5 -102t-107.5 -128l-216 -221v-3h348v19h9v-28h-366z" />
<glyph unicode="3" horiz-adv-x="437" d="M36 179h9q0 -72 51 -123.5t123 -51.5t123 51.5t51 123.5q0 73 -51 123.5t-123 50.5v9q57 0 97.5 40.5t40.5 97.5t-40.5 97.5t-97.5 40.5t-98 -40.5t-41 -97.5h-9q0 61 43.5 104t104.5 43t104 -43t43 -104q0 -53 -33 -92.5t-84 -50.5q66 -11 109.5 -60.5t43.5 -117.5 q0 -76 -53.5 -129.5t-129.5 -53.5t-129.5 53.5t-53.5 129.5z" />
<glyph unicode="4" horiz-adv-x="428" d="M36 134v17q118 178 161.5 282t43.5 210h9q0 -108 -44 -213.5t-161 -282.5v-4h312v286h9v-286h45v-9h-45v-134h-9v134h-321z" />
<glyph unicode="5" horiz-adv-x="437" d="M36 94v22h9v-18q24 -42 72 -68t95 -26q70 0 125.5 56t55.5 163q0 104 -54 161.5t-120 57.5q-48 0 -103 -35t-71 -87l-1 -3l-8 2l21 324h305v-27h-9v18h-287l-21 -292q23 48 75.5 78.5t98.5 30.5q70 0 126.5 -60.5t56.5 -167.5q0 -111 -58 -169t-132 -58q-50 0 -101 26.5 t-75 71.5z" />
<glyph unicode="6" horiz-adv-x="437" d="M36 223q0 39 1 69t5 76.5t10.5 81.5t20.5 74.5t32.5 64.5t48 42t65.5 17q91 0 146 -73l1 -1v-20h-9v17q-52 68 -138 68q-160 0 -174 -341q20 72 73.5 112.5t109.5 40.5q69 0 121.5 -60t52.5 -168t-52.5 -167.5t-121.5 -59.5q-71 0 -131.5 60t-60.5 167zM45 223 q0 -103 57.5 -161t125.5 -58q65 0 115 57.5t50 161.5q0 105 -50 162t-115 57q-67 0 -125 -58t-58 -161z" />
<glyph unicode="7" horiz-adv-x="410" d="M18 616v27h375v-15l-81 -110q-76 -104 -109 -242.5t-33 -275.5h-9q0 138 33.5 277.5t110.5 245.5l79 108v3h-357v-18h-9z" />
<glyph unicode="8" horiz-adv-x="437" d="M36 179q0 68 43.5 117.5t109.5 60.5q-51 11 -84.5 50.5t-33.5 92.5q0 61 43.5 104t104.5 43t104 -43t43 -104q0 -53 -33 -92.5t-84 -50.5q66 -11 109.5 -60.5t43.5 -117.5q0 -76 -53.5 -129.5t-129.5 -53.5t-129.5 53.5t-53.5 129.5zM45 179q0 -72 51 -123.5t123 -51.5 t123 51.5t51 123.5q0 73 -51 123.5t-123 50.5t-123 -50.5t-51 -123.5zM80 500q0 -57 41 -97.5t98 -40.5t97.5 40.5t40.5 97.5t-40.5 97.5t-97.5 40.5t-98 -40.5t-41 -97.5z" />
<glyph unicode="9" horiz-adv-x="437" d="M36 420q0 108 52.5 167.5t121.5 59.5q71 0 131.5 -60t60.5 -167q0 -38 -1 -68t-5 -76.5t-10.5 -81.5t-20.5 -74.5t-32.5 -64.5t-48 -42t-65.5 -17q-94 0 -147 72l-1 2v19h9v-17q52 -68 139 -68q163 0 174 341q-20 -72 -73.5 -112.5t-109.5 -40.5q-69 0 -121.5 60 t-52.5 168zM45 420q0 -105 50 -162t115 -57q67 0 125 58t58 161t-57.5 160.5t-125.5 57.5q-65 0 -115 -57t-50 -161z" />
<glyph unicode=":" horiz-adv-x="125" d="M45 9q0 5 4 9t9 4t9 -4t4 -9t-4 -9t-9 -4t-9 4t-4 9zM45 402q0 5 4 9t9 4t9 -4t4 -9t-4 -9t-9 -4t-9 4t-4 9z" />
<glyph unicode=";" horiz-adv-x="133" d="M32 -78q15 18 25 40t10 34q-5 0 -9 4t-4 9t4 9t9 4t9 -4t4 -9q0 -41 -42 -91zM54 402q0 5 4 9t9 4t9 -4t4 -9t-4 -9t-9 -4t-9 4t-4 9z" />
<glyph unicode="&#x3c;" horiz-adv-x="303" d="M36 311v21l243 164l4 -8l-238 -161v-11l238 -169l-4 -7z" />
<glyph unicode="=" horiz-adv-x="464" d="M36 223v9h393v-9h-393zM36 393v9h393v-9h-393z" />
<glyph unicode="&#x3e;" horiz-adv-x="303" d="M21 147l238 169v11l-238 161l4 8l243 -164v-21l-243 -171z" />
<glyph unicode="?" horiz-adv-x="401" d="M36 513q0 68 48.5 117t116.5 49t116.5 -49t48.5 -117q0 -44 -18.5 -76.5t-44.5 -51t-52 -34.5t-44.5 -38t-18.5 -51v-74h-9v74q0 31 18.5 54t44.5 39.5t52 34.5t44.5 49t18.5 74q0 65 -46 111t-110 46t-110 -46t-46 -111h-9zM170 9q0 5 4 9t9 4t9 -4t4 -9t-4 -9t-9 -4 t-9 4t-4 9z" />
<glyph unicode="@" horiz-adv-x="776" d="M18 200q0 162 121 283.5t299 121.5q78 0 141 -26.5t101.5 -70t58.5 -96t20 -107.5q0 -65 -21.5 -119t-54.5 -86t-69 -49t-69 -17q-77 0 -77 66v9q-22 -37 -58.5 -58.5t-70.5 -21.5q-50 0 -90.5 39.5t-40.5 112.5q0 112 69.5 186.5t142.5 74.5h122l-61 -309q-4 -16 -4 -33 q0 -57 68 -57q31 0 65.5 16.5t66.5 47t52.5 82.5t20.5 116q0 54 -19.5 105t-57 93t-98.5 67.5t-137 25.5q-174 0 -292.5 -118.5t-118.5 -277.5q0 -128 83 -217.5t233 -89.5q105 0 200 47l4 -8q-96 -48 -204 -48q-103 0 -178.5 45t-111 115.5t-35.5 155.5zM217 181 q0 -69 37.5 -106t84.5 -37q34 0 71 23t57 64l5 10l59 298h-111q-69 0 -136 -71t-67 -181z" />
<glyph unicode="A" horiz-adv-x="589" d="M13 0v9h15l263 674h7l269 -681l-8 -4l-75 190h-378l-73 -188h-20zM110 196h370l-185 473z" />
<glyph unicode="B" horiz-adv-x="589" d="M54 670v9h209q103 0 161 -43.5t58 -105.5q0 -49 -38.5 -91t-105.5 -59v-1q98 -4 157 -63.5t59 -132.5q0 -76 -57.5 -129.5t-161.5 -53.5h-264v670h-17zM80 9h255q100 0 155 51t55 123t-60 130t-159 58h-246v-362zM80 379h183q98 0 154 46t56 105q0 58 -55 99t-155 41 h-183v-291z" />
<glyph unicode="C" horiz-adv-x="607" d="M36 339q0 143 100.5 243.5t242.5 100.5q105 0 195 -64l2 -2v-28h-9v23q-88 62 -188 62q-139 0 -236.5 -98t-97.5 -237t97.5 -237t236.5 -98q108 0 194 62l6 -7q-88 -63 -200 -63q-143 0 -243 100t-100 243z" />
<glyph unicode="D" horiz-adv-x="660" d="M54 670v9h241q136 0 233 -101.5t97 -238.5t-97 -238t-233 -101h-224v670h-17zM80 9h215q133 0 227 98t94 232t-94.5 232.5t-226.5 98.5h-215v-661z" />
<glyph unicode="E" horiz-adv-x="553" d="M54 670v9h437v-27h-9v18h-402v-340h241v-9h-241v-312h429v18h9v-27h-447v670h-17z" />
<glyph unicode="F" horiz-adv-x="553" d="M54 670v9h464v-27h-9v18h-429v-340h277v-9h-277v-321h-9v670h-17z" />
<glyph unicode="G" horiz-adv-x="642" d="M36 339q0 143 100.5 243.5t242.5 100.5q103 0 191 -63l1 -2v-29h-9v25q-85 60 -183 60q-139 0 -236.5 -98t-97.5 -237t97.5 -237t236.5 -98q62 0 122.5 29t101.5 76v203h-152v9h161v-321h-9v96q-42 -45 -102 -72.5t-122 -27.5q-143 0 -243 100t-100 243z" />
<glyph unicode="H" horiz-adv-x="607" d="M71 0v679h9v-340h447v340h9v-679h-9v330h-447v-330h-9z" />
<glyph unicode="I" horiz-adv-x="151" d="M71 0v679h9v-679h-9z" />
<glyph unicode="J" horiz-adv-x="348" d="M18 56v11h9v-9q18 -26 50 -40t67 -14q58 0 100 37.5t42 101.5v527h-215v9h224v-536q0 -68 -44.5 -107.5t-106.5 -39.5q-86 0 -126 60z" />
<glyph unicode="K" horiz-adv-x="571" d="M71 0v679h9v-467l397 467h32v-9h-28l-274 -323l257 -301q31 -37 81 -37v-9q-53 0 -87 40l-257 301l-121 -143v-198h-9z" />
<glyph unicode="L" horiz-adv-x="553" d="M71 0v679h9v-670h429v18h9v-27h-447z" />
<glyph unicode="M" horiz-adv-x="883" d="M18 0v9h17l81 674h9l314 -679h6l314 679h9l89 -683l-8 -1l-88 667l-310 -670h-18l-310 669l-80 -665h-25z" />
<glyph unicode="N" horiz-adv-x="616" d="M54 670v9h28l454 -669v669h9v-683h-10l-455 670v-662h-9v666h-17z" />
<glyph unicode="O" horiz-adv-x="758" d="M36 339q0 142 100.5 243t242.5 101t243 -101t101 -243t-101 -242.5t-243 -100.5t-242.5 100.5t-100.5 242.5zM45 339q0 -139 97.5 -237t236.5 -98t237 98t98 237t-98 237t-237 98t-236.5 -98t-97.5 -237z" />
<glyph unicode="P" horiz-adv-x="571" d="M54 670v9h258q92 0 158 -66t66 -158t-66 -157.5t-158 -65.5h-232v-232h-9v670h-17zM80 241h232q89 0 152 63t63 151q0 89 -63.5 152t-151.5 63h-232v-429z" />
<glyph unicode="Q" horiz-adv-x="758" d="M36 339q0 93 46 172.5t125 125.5t172 46t172.5 -46t125.5 -125.5t46 -172.5q0 -92 -45.5 -171t-123.5 -125t-170 -47q-164 0 -232 -98l30 -34q35 41 97 41q46 0 146 -30t130 -30q27 0 45.5 18.5t18.5 38.5h9q0 -15 -9.5 -30t-26.5 -25.5t-37 -10.5q-31 0 -131 30t-145 30 q-61 0 -96 -46l-42 47q58 87 180 103q-122 21 -203.5 116.5t-81.5 222.5zM45 339q0 -91 44.5 -168t121.5 -122t168 -45h1q91 0 168 45t121.5 122t44.5 168t-45 168t-122 122t-168 45t-168 -45t-121.5 -122t-44.5 -168z" />
<glyph unicode="R" horiz-adv-x="571" d="M54 670v9h241q101 0 157.5 -54t56.5 -129t-56.5 -129t-157.5 -54h-31v-1q27 -8 45.5 -27t41.5 -59l112 -176q16 -25 30 -33t37 -8h24v-9h-24q-24 0 -40.5 9.5t-33.5 36.5l-112 175q-34 58 -61 74.5t-95 16.5h-108v-312h-9v670h-17zM80 321h215q97 0 151 52t54 123 t-53.5 122.5t-151.5 51.5h-215v-349z" />
<glyph unicode="S" horiz-adv-x="580" d="M36 96v29h9v-25q34 -34 104 -65t141 -31q115 0 180.5 43t65.5 105q0 20 -4.5 38t-15.5 33t-22 27.5t-30 25t-34.5 21.5t-40.5 19.5t-41.5 17t-44.5 17.5q-4 2 -12 5q-31 11 -47 17.5t-43.5 18.5t-42.5 21t-34 23.5t-29 28t-17 32t-7 39.5q0 45 31 79t80.5 51t107.5 17 q57 0 115.5 -20.5t98.5 -60.5v-31h-8v25q-40 39 -96.5 58.5t-109.5 19.5q-88 0 -149 -38t-61 -100q0 -14 2.5 -26.5t10 -23.5t13.5 -20.5t20 -19.5t22.5 -16.5t27.5 -15.5t29 -14t33 -14t32.5 -12.5t35.5 -13.5q31 -12 50 -19.5t47.5 -20t46 -23.5t37.5 -27.5t31.5 -33 t19 -38.5t7.5 -46q0 -67 -68.5 -111.5t-186.5 -44.5q-75 0 -146.5 32t-107.5 68z" />
<glyph unicode="T" horiz-adv-x="580" d="M36 652v27h509v-27h-9v18h-241v-670h-9v670h-241v-18h-9z" />
<glyph unicode="U" horiz-adv-x="616" d="M54 670v9h26v-447q0 -94 67 -161t161 -67t161 67t67 161v447h9v-447q0 -98 -69.5 -167t-167.5 -69t-167.5 69t-69.5 167v438h-17z" />
<glyph unicode="V" horiz-adv-x="580" d="M18 670v9h20l261 -668l264 669l8 -3l-268 -681h-7l-264 674h-14z" />
<glyph unicode="W" horiz-adv-x="919" d="M18 670v9h21l241 -668l185 501v95h9v-95l182 -501l247 669l8 -3l-251 -681h-8l-182 501l-186 -501h-8l-244 674h-14z" />
<glyph unicode="X" horiz-adv-x="589" d="M23 3l267 348l-244 319h-19v9h23l245 -320l246 322l7 -5l-247 -325l265 -348l-7 -6l-264 347l-265 -347z" />
<glyph unicode="Y" horiz-adv-x="580" d="M18 670v9h21l260 -422l255 414v8h8v-9l-258 -424v-246h-9v246l-261 424h-16z" />
<glyph unicode="Z" horiz-adv-x="571" d="M36 0v9l471 661h-445v-18h-8v27h464v-10l-471 -660h480v18h9v-27h-500z" />
<glyph unicode="[" horiz-adv-x="196" d="M71 -214v964h90v-9h-81v-946h81v-9h-90z" />
<glyph unicode="\" d="M29 683l8 5l468 -733l-7 -4z" />
<glyph unicode="]" horiz-adv-x="214" d="M36 -205h98v946h-98v9h107v-964h-107v9z" />
<glyph unicode="^" horiz-adv-x="446" d="M26 433l196 246h9l190 -247l-8 -5l-187 243l-194 -243z" />
<glyph unicode="_" horiz-adv-x="678" d="M36 -170h607v-9h-607v9z" />
<glyph unicode="`" horiz-adv-x="214" d="M54 650l7 6l99 -99l-6 -6z" />
<glyph unicode="a" horiz-adv-x="500" d="M36 140q0 53 47.5 86t135.5 33h210v62q0 40 -15 68.5t-40 43t-52.5 21t-58.5 6.5q-87 0 -147 -34v-14h-9v19l2 1q62 37 154 37q75 0 125 -35.5t50 -112.5v-312h17v-9h-26v91q-29 -44 -89 -69.5t-121 -25.5q-78 0 -130.5 39t-52.5 105zM45 140q0 -62 49.5 -99t124.5 -37 q65 0 126.5 28.5t83.5 75.5v142h-210q-85 0 -129.5 -30.5t-44.5 -79.5z" />
<glyph unicode="b" d="M45 670v9h26v-377q20 74 76 120.5t134 46.5q96 0 157.5 -69t61.5 -168t-61.5 -167.5t-157.5 -68.5q-78 0 -134 46t-76 120v-162h-9v670h-17zM71 232q0 -96 58.5 -162t151.5 -66t151.5 66t58.5 162t-58.5 162t-151.5 66t-151.5 -66t-58.5 -162z" />
<glyph unicode="c" horiz-adv-x="482" d="M36 232q0 98 69.5 167.5t166.5 69.5q95 0 164 -66l2 -1v-23h-9v18q-68 63 -157 63q-94 0 -160.5 -66.5t-66.5 -161.5t66.5 -161.5t160.5 -66.5q98 0 166 73l8 -6q-70 -75 -174 -75q-98 0 -167 69t-69 167z" />
<glyph unicode="d" d="M36 232q0 100 61 168.5t157 68.5q78 0 134 -46.5t76 -120.5v368h-18v9h27v-670h18v-9h-27v162q-20 -74 -76 -120t-134 -46q-96 0 -157 68.5t-61 167.5zM45 232q0 -97 58 -162.5t151 -65.5t151.5 66t58.5 162t-58.5 162t-151.5 66t-151 -65.5t-58 -162.5z" />
<glyph unicode="e" horiz-adv-x="500" d="M36 232q0 97 69.5 167t166.5 70q60 0 113 -29.5t86 -78.5l-3 -2l-39 -33q-39 -33 -58 -46.5t-55.5 -30.5t-66.5 -17h-204q0 -95 66.5 -161.5t160.5 -66.5q98 0 166 73l8 -6q-70 -75 -174 -75q-98 0 -167 69t-69 167zM45 241h205q22 0 45.5 7.5t50.5 25.5t40.5 27.5 t42.5 34.5t30 26q-31 45 -80.5 71.5t-106.5 26.5q-91 0 -157 -63.5t-70 -155.5z" />
<glyph unicode="f" horiz-adv-x="357" d="M36 455v9h71v81q0 57 41 97.5t98 40.5q37 0 69 -19t50 -50l1 -1v-20h-9v17q-39 64 -111 64q-54 0 -92 -37.5t-38 -91.5v-81h170v-9h-170v-455h-9v455h-71z" />
<glyph unicode="g" horiz-adv-x="491" d="M18 -109q0 40 22 81.5t54 65.5q-33 12 -33 43q0 44 66 115q-51 44 -51 116q0 74 49 115.5t116 41.5q59 0 103 -31h120v-9h-108q50 -43 50 -117t-49 -115t-116 -41q-62 0 -108 35q-19 -18 -41 -51.5t-22 -58.5q0 -30 36 -38l281 -67q39 -9 62.5 -38t23.5 -62 q0 -38 -31 -64t-91 -26h-196q-71 0 -104 29.5t-33 75.5zM27 -109q0 -96 128 -96h196q56 0 84.5 23.5t28.5 57.5q0 30 -21.5 56.5t-58.5 35.5l-280 67q-32 -21 -54.5 -62.5t-22.5 -81.5zM85 312q0 -70 46 -108.5t110 -38.5t110 38.5t46 108.5t-46.5 109t-109.5 39 q-64 0 -110 -39t-46 -109z" />
<glyph unicode="h" d="M54 670v9h26v-394q22 82 85 133t143 51q76 0 120.5 -39.5t44.5 -108.5v-312h18v-9h-27v321q0 65 -42 102t-114 37q-93 0 -160.5 -71t-67.5 -175v-214h-9v670h-17z" />
<glyph unicode="i" horiz-adv-x="151" d="M54 455v9h26v-464h-9v455h-17zM62 607q0 5 4.5 9.5t9.5 4.5t9 -4.5t4 -9.5t-4 -9t-9 -4t-9.5 4t-4.5 9z" />
<glyph unicode="j" horiz-adv-x="142" d="M-143 -143h9v-11l1 -1q33 -50 93 -50q46 0 78.5 32.5t32.5 78.5v549h-17v9h26v-558q0 -50 -35 -85t-85 -35q-66 0 -102 56l-1 1v14zM62 607q0 5 4.5 9.5t9.5 4.5t9 -4.5t4 -9.5t-4 -9t-9 -4t-9.5 4t-4.5 9z" />
<glyph unicode="k" horiz-adv-x="526" d="M54 670v9h26v-582l348 367h36v-9h-33l-197 -208l177 -197q37 -41 89 -41v-9q-56 0 -96 44l-176 197l-148 -157v-84h-9v670h-17z" />
<glyph unicode="l" horiz-adv-x="142" d="M54 670v9h26v-679h-9v670h-17z" />
<glyph unicode="m" horiz-adv-x="857" d="M58 455v9h22v-174q20 81 76.5 130t133.5 49q73 0 110.5 -38.5t37.5 -109.5v-31q20 81 76 130t133 49q73 0 110.5 -38.5t37.5 -109.5v-312h17v-9h-26v321q0 139 -139 139q-91 0 -150 -70t-59 -176v-214h-9v321q0 139 -139 139q-91 0 -150.5 -70t-59.5 -176v-214h-9v455 h-13z" />
<glyph unicode="n" d="M54 455v9h26v-179q22 82 85 133t143 51q76 0 120.5 -39.5t44.5 -108.5v-312h18v-9h-27v321q0 65 -42 102t-114 37q-93 0 -160.5 -71t-67.5 -175v-214h-9v455h-17z" />
<glyph unicode="o" horiz-adv-x="544" d="M36 232q0 98 69 167.5t167 69.5t167.5 -69.5t69.5 -167.5t-69.5 -167t-167.5 -69t-167 69t-69 167zM45 232q0 -95 66.5 -161.5t160.5 -66.5t161 67t67 161t-67 161t-161 67t-160.5 -66.5t-66.5 -161.5z" />
<glyph unicode="p" d="M54 455v9h26v-168q18 77 74 125t136 48q96 0 157.5 -68.5t61.5 -168.5q0 -99 -61.5 -167.5t-157.5 -68.5q-80 0 -136 48t-74 125v-383h-9v669h-17zM80 232q0 -96 59 -162t151 -66t151 66t59 162t-59 162t-151 66t-151 -66t-59 -162z" />
<glyph unicode="q" d="M36 232q0 100 61 168.5t157 68.5q78 0 134 -46.5t76 -120.5v162h9v-669h18v-9h-27v376q-20 -74 -76 -120t-134 -46q-96 0 -157 68.5t-61 167.5zM45 232q0 -97 58 -162.5t151 -65.5t151.5 66t58.5 162t-58.5 162t-151.5 66t-151 -65.5t-58 -162.5z" />
<glyph unicode="r" horiz-adv-x="321" d="M54 455v9h26v-200q21 89 82.5 147t118.5 58h5v-31h-9v22q-67 -3 -132 -82t-65 -190v-188h-9v455h-17z" />
<glyph unicode="s" horiz-adv-x="437" d="M36 70v19h9v-16q22 -29 66 -49t108 -20q82 0 128 30.5t46 72.5q0 35 -24 61t-59.5 40t-77.5 29.5t-77.5 29.5t-59.5 39.5t-24 59.5q0 38 44.5 70.5t103.5 32.5q91 0 147 -56v-20h-9v16q-52 51 -138 51q-57 0 -98 -30.5t-41 -63.5q0 -38 33 -64t80.5 -42t95 -33t80.5 -47 t33 -73q0 -47 -49 -79t-134 -32q-127 0 -182 73z" />
<glyph unicode="t" horiz-adv-x="392" d="M36 455v9h62v107h9v-107h214v-9h-214v-321q0 -54 38.5 -92t91.5 -38q72 0 111 64v12h9v-15q-18 -31 -50 -50t-70 -19q-57 0 -98 40.5t-41 97.5v321h-62z" />
<glyph unicode="u" d="M54 455v9h26v-321q0 -65 42.5 -102t114.5 -37q93 0 160 71t67 175v214h9v-455h18v-9h-27v180q-22 -82 -85 -133t-142 -51q-76 0 -121 39t-45 108v312h-17z" />
<glyph unicode="v" horiz-adv-x="517" d="M22 455v9h24l226 -460l219 443v17h9v-20l-224 -453h-7l-229 464h-18z" />
<glyph unicode="w" horiz-adv-x="785" d="M22 455v9h25l199 -460l155 361l1 1v80h9v-81l156 -361l192 443v17h9v-19l-197 -454h-8l-157 362l-156 -362h-9l-201 464h-18z" />
<glyph unicode="x" horiz-adv-x="482" d="M23 3l212 239l-189 213h-19v9h24l190 -215l193 218l7 -5l-194 -220l212 -239l-7 -6l-211 239l-211 -239z" />
<glyph unicode="y" horiz-adv-x="526" d="M18 455v9h26l218 -490l238 496l9 -5l-288 -595q-41 -84 -105 -84q-57 0 -95 56v15h8v-14q34 -48 87 -48q59 0 97 78l44 90l-219 492h-20z" />
<glyph unicode="z" horiz-adv-x="500" d="M36 0v12l401 443h-375v-17h-8v26h392v-11l-401 -444h410v18h9v-27h-428z" />
<glyph unicode="{" horiz-adv-x="196" d="M0 256v23h4q22 0 44.5 20t22.5 65v274q0 46 32 79t76 33v-9q-40 0 -69.5 -30.5t-29.5 -72.5v-274q0 -47 -22.5 -69t-48.5 -24v-6q25 -2 48 -24.5t23 -69.5v-274q0 -42 29 -72t70 -30v-9q-44 0 -76 32.5t-32 78.5v274q0 45 -22.5 65t-44.5 20h-4z" />
<glyph unicode="|" horiz-adv-x="151" d="M71 -179v822h9v-822h-9z" />
<glyph unicode="}" horiz-adv-x="196" d="M18 -205q40 0 69 30t29 72v274q0 47 23 69.5t49 24.5v6q-26 2 -49 24t-23 69v274q0 42 -29 72.5t-69 30.5v9q44 0 75.5 -33t31.5 -79v-274q0 -45 22.5 -65t44.5 -20h4v-23h-4q-22 0 -44.5 -20t-22.5 -65v-274q0 -46 -31.5 -78.5t-75.5 -32.5v9z" />
<glyph unicode="~" horiz-adv-x="357" d="M47 332q14 40 55 40q18 0 37 -9l84 -39q15 -9 33 -9q33 0 44 33l10 -1q-13 -41 -54 -41q-16 0 -38 10l-84 39q-13 8 -32 8q-35 0 -46 -32z" />
<glyph unicode="&#xa1;" horiz-adv-x="151" d="M54 -206h18v491h9v-500h-27v9zM63 455q0 5 4 9t9 4t9.5 -4t4.5 -9t-4.5 -9t-9.5 -4t-9 4t-4 9z" />
<glyph unicode="&#xa2;" horiz-adv-x="482" d="M36 268q0 94 65 162.5t158 73.5v67h9v-67h4q95 0 164 -66h2v-23h-9v18q-68 63 -157 63h-4v-456h4q99 0 166 72l8 -6q-70 -75 -174 -75h-4v-85h-9v85q-93 5 -158 74t-65 163zM45 268q0 -91 62 -157t152 -71v456q-90 -5 -152 -71t-62 -157z" />
<glyph unicode="&#xa3;" horiz-adv-x="517" d="M18 0v9q52 2 88.5 39.5t36.5 89.5v183h-72v9h72v179q0 58 40.5 98t97.5 40q38 0 70 -18.5t50 -50.5h1v-16h-9v12q-15 29 -46 46.5t-66 17.5q-53 0 -91 -38t-38 -91v-179h169v-9h-169v-183q0 -38 -19.5 -70.5t-51.5 -50.5l-15 -8h407v18h9v-27h-464z" />
<glyph unicode="&#xa4;" horiz-adv-x="303" d="M27 432l7 6l45 -45l9 7q30 21 66 21q40 0 70 -25l10 -6l45 45l6 -6l-45 -45l6 -10q23 -29 23 -68q0 -36 -21 -66l-6 -9l41 -42l-7 -6l-41 41l-9 -7q-33 -25 -72 -25t-67 22l-10 7l-42 -41l-6 6l42 41l-7 10q-24 29 -24 69q0 39 25 72l7 9zM49 306q0 -43 31 -74t74 -31 t74.5 31t31.5 74t-31.5 74.5t-74.5 31.5t-74 -31.5t-31 -74.5z" />
<glyph unicode="&#xa5;" horiz-adv-x="580" d="M18 670v9h21l259 -420h2l260 422l7 -4l-256 -418h135v-9h-140l-2 -4v-67h142v-9h-142v-170h-9v170h-152v9h152v67l-3 4h-149v9h144l-253 411h-16z" />
<glyph unicode="&#xa6;" horiz-adv-x="151" d="M71 143h9v-357h-9v357zM71 321v358h9v-358h-9z" />
<glyph unicode="&#xa7;" horiz-adv-x="571" d="M62 283q0 46 32.5 82.5t93.5 55.5q-81 50 -81 125q0 58 41 95.5t124 37.5q68 0 117 -49t49 -117h-9q0 65 -46 111t-111 46q-79 0 -117.5 -34.5t-38.5 -89.5q0 -54 40.5 -90.5t98 -58.5t115.5 -45t98.5 -65.5t40.5 -105.5q0 -46 -32 -82t-93 -55q80 -49 80 -125 q0 -58 -41 -95.5t-124 -37.5q-68 0 -116.5 48.5t-48.5 116.5h9q0 -65 45.5 -110.5t110.5 -45.5q79 0 117.5 34.5t38.5 89.5q0 40 -21.5 70t-56.5 49t-76.5 35t-83.5 33.5t-77 39t-56.5 56.5t-21.5 81zM71 283q0 -43 19.5 -75.5t55 -54.5t71 -36.5t82.5 -33t75 -33.5 q64 19 95 53.5t31 77.5t-19.5 75.5t-55 54.5t-71 36.5t-82.5 33t-75 33.5q-64 -18 -95 -53t-31 -78z" />
<glyph unicode="&#xa8;" horiz-adv-x="357" d="M71 594q0 5 4.5 9t9.5 4t9 -4t4 -9t-4 -9.5t-9 -4.5t-9.5 4.5t-4.5 9.5zM259 594q0 5 4 9t9 4t9.5 -4t4.5 -9t-4.5 -9.5t-9.5 -4.5t-9 4.5t-4 9.5z" />
<glyph unicode="&#xa9;" horiz-adv-x="821" d="M36 341q0 94 50 172q50 80 137.5 128t191.5 48t192 -48t138 -128q50 -78 50 -172t-50 -172q-49 -79 -138 -128q-83 -46 -192 -46q-107 0 -192 46q-86 45 -137 128q-50 78 -50 172zM45 341q0 -92 48 -168q50 -79 134.5 -124t187.5 -45q107 0 188 44q82 44 134 125 q49 78 49 168t-49 168q-51 79 -135 125t-187 46t-187 -46t-135 -125q-48 -76 -48 -168zM210 339q0 87 61.5 148.5t148.5 61.5q75 0 136 -51l2 -1v-19h-9v14l-2 2q-56 46 -127 46q-83 0 -142 -59t-59 -142t59 -142t142 -59q85 0 144 60l7 -6q-62 -63 -151 -63 q-87 0 -148.5 61.5t-61.5 148.5z" />
<glyph unicode="&#xaa;" horiz-adv-x="392" d="M36 424q0 41 37 69.5t103 28.5h145v49q0 17 -3.5 31.5t-10 25t-15.5 18.5t-19.5 13.5t-23 8.5t-24 4.5t-24.5 1.5q-35 0 -69 -9t-52 -23v-8h-9v12q11 11 32.5 20t47 13t50.5 4q56 0 92.5 -27t36.5 -85v-241h18v-9h-27v65q-22 -32 -62 -50.5t-83 -18.5q-60 0 -100 28.5 t-40 78.5zM45 424q0 -45 37.5 -71.5t93.5 -26.5q30 0 59 8.5t52 26t34 41.5v111h-145q-63 0 -97 -26t-34 -63z" />
<glyph unicode="&#xab;" horiz-adv-x="339" d="M36 227v10l125 153l7 -6l-123 -150v-3l123 -149l-7 -6zM170 227v10l125 153l7 -6l-123 -150v-3l123 -149l-7 -6z" />
<glyph unicode="&#xac;" d="M36 330v9h428v-214h-9v205h-419z" />
<glyph unicode="&#xad;" horiz-adv-x="285" d="M36 277v9h214v-9h-214z" />
<glyph unicode="&#xae;" horiz-adv-x="830" d="M36 341q0 94 50 172q50 80 137.5 128t191.5 48t192 -48t138 -128q50 -78 50 -172t-50 -172q-49 -79 -138 -128q-83 -46 -192 -46q-107 0 -192 46q-86 45 -137 128q-50 78 -50 172zM45 341q0 -92 48 -168q50 -79 134.5 -124t187.5 -45q107 0 188 44q82 44 134 125 q49 78 49 168t-49 168q-51 79 -135 125t-187 46t-187 -46t-135 -125q-48 -76 -48 -168zM294 134v411h135q62 0 96.5 -33.5t34.5 -78.5q0 -44 -32.5 -77t-90.5 -35h-11q19 -14 36 -41l71 -114q15 -23 38 -23h21v-9h-21q-27 0 -45 28l-72 113q-21 32 -35.5 39t-56.5 7h-59 v-187h-9zM303 330h126q58 0 90 30.5t32 72.5t-32 72.5t-90 30.5h-126v-206z" />
<glyph unicode="&#xaf;" horiz-adv-x="357" d="M36 607v9h285v-9h-285z" />
<glyph unicode="&#xb0;" horiz-adv-x="250" d="M36 589q0 36 27.5 63t61.5 27t61.5 -27t27.5 -63q0 -35 -27.5 -62t-61.5 -27t-61.5 27t-27.5 62zM45 589q0 -31 25 -55.5t55 -24.5t55 24.5t25 55.5t-25 56t-55 25t-55 -25t-25 -56z" />
<glyph unicode="&#xb1;" horiz-adv-x="437" d="M36 71v9h366v-9h-366zM36 357v9h178v179h9v-179h179v-9h-179v-178h-9v178h-178z" />
<glyph unicode="&#xb2;" horiz-adv-x="294" d="M36 429v19l134 136q44 44 62 73t18 57q0 43 -30 73t-73 30q-41 0 -71 -28.5t-31 -69.5h-9q1 45 33.5 76t77.5 31q47 0 79.5 -33t32.5 -79q0 -31 -19 -61.5t-64 -75.5l-131 -132v-7h205v17h9v-26h-223z" />
<glyph unicode="&#xb3;" horiz-adv-x="294" d="M36 538h9q0 -43 30 -74t72 -31t72.5 31t30.5 74t-30 73.5t-73 30.5v9q34 0 58 24.5t24 58.5t-24 58.5t-58 24.5t-57.5 -24.5t-23.5 -58.5h-9q0 37 26.5 64.5t63.5 27.5t64 -27.5t27 -64.5q0 -60 -60 -87l10 -4q32 -12 51.5 -40.5t19.5 -64.5q0 -47 -33 -80.5t-79 -33.5 t-78.5 33.5t-32.5 80.5z" />
<glyph unicode="&#xb4;" horiz-adv-x="214" d="M54 557l100 99l6 -6l-99 -99z" />
<glyph unicode="&#xb5;" d="M54 455v9h26v-321q0 -65 42.5 -102t114.5 -37q93 0 160 71t67 175v214h9v-455h18v-9h-27v180q-22 -82 -85 -133t-142 -51q-60 0 -101.5 25.5t-56.5 71.5v-67q0 -23 5.5 -60.5t5.5 -52.5q0 -33 -16 -58l-7 5q14 22 14 53q0 14 -5 51.5t-5 61.5v429h-17z" />
<glyph unicode="&#xb6;" horiz-adv-x="401" d="M36 509q0 56 39 95t95 39h160v-822h-9v813h-133v-813h-9v554h-9q-56 0 -95 39t-39 95zM45 509q0 -53 36 -89t89 -36h9v250h-9q-52 0 -88.5 -36.5t-36.5 -88.5z" />
<glyph unicode="&#xb7;" horiz-adv-x="125" d="M45 237q0 5 4 9t9 4t9 -4t4 -9t-4 -9.5t-9 -4.5t-9 4.5t-4 9.5z" />
<glyph unicode="&#xb8;" horiz-adv-x="401" d="M127 -154l7 5q19 -22 49 -22q29 0 45 18.5t16 43.5q0 23 -13.5 38.5t-34.5 15.5q-17 0 -38 -13h-2l-15 5l22 73l8 -2l-19 -68l9 5q17 9 35 9q27 0 42 -18.5t15 -44.5q0 -28 -18.5 -49t-51.5 -21q-34 0 -56 25z" />
<glyph unicode="&#xb9;" horiz-adv-x="151" d="M28 775l41 47h11v-393h-9v382l-37 -42z" />
<glyph unicode="&#xba;" horiz-adv-x="437" d="M36 500q0 76 53.5 129.5t129.5 53.5t129.5 -53.5t53.5 -129.5t-53.5 -129.5t-129.5 -53.5t-129.5 53.5t-53.5 129.5zM45 500q0 -72 51 -123t123 -51t123 51t51 123t-51 123t-123 51t-123 -51t-51 -123z" />
<glyph unicode="&#xbb;" horiz-adv-x="339" d="M37 82l124 149v3l-124 150l7 6l126 -153v-10l-126 -151zM171 82l124 149v3l-124 150l7 6l126 -153v-10l-126 -151z" />
<glyph unicode="&#xbc;" horiz-adv-x="625" d="M14 39l500 571l6 -6l-500 -571zM28 632l41 47h11v-393h-9v382l-37 -42zM348 58v11q74 111 102 171t29 118h9q-1 -60 -28.5 -118.5t-98.5 -165.5l-5 -7h188v148h9v-148h36v-9h-36v-93h-9v93h-196z" />
<glyph unicode="&#xbd;" horiz-adv-x="625" d="M14 39l500 571l6 -6l-500 -571zM28 632l41 47h11v-393h-9v382l-37 -42zM357 -16l134 136q44 44 62 73t18 57q0 43 -30 73t-73 30q-41 0 -71 -28.5t-31 -69.5h-9q1 45 33.5 76t77.5 31q46 0 79 -33t33 -79q0 -31 -19 -61.5t-64 -75.5l-131 -132v-7h205v17h9v-26h-223v19z " />
<glyph unicode="&#xbe;" horiz-adv-x="732" d="M36 395h9q0 -43 30 -74t72 -31t72.5 31t30.5 74t-30 73.5t-73 30.5v9q34 0 58 24.5t24 58.5t-24 58.5t-58 24.5t-57.5 -24.5t-23.5 -58.5h-9q0 37 26.5 64.5t63.5 27.5t64 -27.5t27 -64.5q0 -60 -60 -87l10 -4q32 -12 51.5 -40.5t19.5 -64.5q0 -47 -33 -80.5t-79 -33.5 t-78.5 33.5t-32.5 80.5zM121 39l500 571l7 -6l-500 -571zM456 58v11q74 111 102 171t29 118h9q-1 -60 -28.5 -118.5t-98.5 -165.5l-5 -7h188v148h9v-148h36v-9h-36v-93h-9v93h-196z" />
<glyph unicode="&#xbf;" horiz-adv-x="401" d="M36 -49q0 44 18.5 76.5t44.5 51t52 34.5t44.5 38t18.5 51v74h9v-74q0 -31 -18.5 -54t-44.5 -39.5t-52 -34.5t-44.5 -49t-18.5 -74q0 -65 46 -111t110 -46t110 46t46 111h9q0 -68 -48.5 -117t-116.5 -49t-116.5 49t-48.5 117zM206 455q0 5 4 9t9 4t9 -4t4 -9t-4 -9t-9 -4 t-9 4t-4 9z" />
<glyph unicode="&#xc0;" horiz-adv-x="589" d="M13 0v9h15l263 674h7l269 -681l-8 -4l-75 190h-378l-73 -188h-20zM110 196h370l-185 473zM224 864l6 6l99 -99l-6 -6z" />
<glyph unicode="&#xc1;" horiz-adv-x="589" d="M13 0v9h15l263 674h7l269 -681l-8 -4l-75 190h-378l-73 -188h-20zM110 196h370l-185 473zM262 771l99 99l6 -6l-99 -99z" />
<glyph unicode="&#xc2;" horiz-adv-x="589" d="M13 0v9h15l263 674h7l269 -681l-8 -4l-75 190h-378l-73 -188h-20zM110 196h370l-185 473zM157 763l131 107h13l131 -107l-6 -6l-128 104h-7l-128 -104z" />
<glyph unicode="&#xc3;" horiz-adv-x="589" d="M13 0v9h15l263 674h7l269 -681l-8 -4l-75 190h-378l-73 -188h-20zM110 196h370l-185 473zM176 800l2 10q10 49 53 49q20 0 36 -9l55 -30q15 -10 37 -10q36 0 44 41l2 10l9 -1l-2 -10q-9 -49 -53 -49q-22 0 -41 11l-55 30q-16 8 -32 8q-35 0 -44 -42l-2 -10z" />
<glyph unicode="&#xc4;" horiz-adv-x="589" d="M13 0v9h15l263 674h7l269 -681l-8 -4l-75 190h-378l-73 -188h-20zM110 196h370l-185 473zM187 808q0 5 4.5 9t9.5 4t9 -4t4 -9t-4 -9.5t-9 -4.5t-9.5 4.5t-4.5 9.5zM375 808q0 5 4 9t9 4t9.5 -4t4.5 -9t-4.5 -9.5t-9.5 -4.5t-9 4.5t-4 9.5z" />
<glyph unicode="&#xc5;" horiz-adv-x="589" d="M13 0v9h15l263 674q-25 0 -49 24q-23 23 -23 52t23 52q26 24 53 24q26 0 52 -24q24 -24 24 -52t-24 -52q-24 -22 -49 -24l269 -681l-8 -4l-75 190h-378l-73 -188h-20zM110 196h370l-185 473zM228 759q0 -25 21 -46t46 -21q24 0 46 21q21 19 21 46t-21 46q-22 21 -46 21 t-46 -21q-21 -19 -21 -46z" />
<glyph unicode="&#xc6;" horiz-adv-x="857" d="M18 0v9h10l330 670h423v-27h-9v18h-330v-340h165v-9h-165v-312h366v18h9v-27h-384v179h-311l-88 -179h-16zM126 188h307v482h-70z" />
<glyph unicode="&#xc7;" horiz-adv-x="607" d="M36 339q0 143 100.5 243.5t242.5 100.5q105 0 195 -64l2 -2v-28h-9v23q-88 62 -188 62q-139 0 -236.5 -98t-97.5 -237t97.5 -237t236.5 -98q108 0 194 62l6 -7q-88 -63 -200 -63q-37 0 -69 7l-18 -62l9 5q15 8 36 8q27 0 41.5 -18t14.5 -44q0 -28 -19 -49.5t-51 -21.5 q-33 0 -56 26l7 6q20 -23 49 -23t45 18.5t16 43.5q0 24 -13 39t-34 15q-28 0 -41 -13l-15 5l20 67q-115 27 -190 120t-75 214z" />
<glyph unicode="&#xc8;" horiz-adv-x="553" d="M54 670v9h437v-27h-9v18h-402v-340h241v-9h-241v-312h429v18h9v-27h-447v670h-17zM206 864l6 6l99 -99l-6 -6z" />
<glyph unicode="&#xc9;" horiz-adv-x="553" d="M54 670v9h437v-27h-9v18h-402v-340h241v-9h-241v-312h429v18h9v-27h-447v670h-17zM244 771l99 99l6 -6l-99 -99z" />
<glyph unicode="&#xca;" horiz-adv-x="553" d="M54 670v9h437v-27h-9v18h-402v-340h241v-9h-241v-312h429v18h9v-27h-447v670h-17zM139 763l131 107h13l131 -107l-6 -6l-128 104h-7l-128 -104z" />
<glyph unicode="&#xcb;" horiz-adv-x="553" d="M54 670v9h437v-27h-9v18h-402v-340h241v-9h-241v-312h429v18h9v-27h-447v670h-17zM169 808q0 5 4.5 9t9.5 4t9 -4t4 -9t-4 -9.5t-9 -4.5t-9.5 4.5t-4.5 9.5zM357 808q0 5 4 9t9 4t9.5 -4t4.5 -9t-4.5 -9.5t-9.5 -4.5t-9 4.5t-4 9.5z" />
<glyph unicode="&#xcc;" horiz-adv-x="151" d="M5 864l6 6l99 -99l-6 -6zM71 0v679h9v-679h-9z" />
<glyph unicode="&#xcd;" horiz-adv-x="151" d="M43 771l99 99l6 -6l-99 -99zM71 0v679h9v-679h-9z" />
<glyph unicode="&#xce;" horiz-adv-x="151" d="M-17 799l87 72h12l87 -72l-7 -6l-83 69h-7l-83 -69zM71 0v679h9v-679h-9z" />
<glyph unicode="&#xcf;" horiz-adv-x="151" d="M4 808q0 5 4.5 9t9.5 4t9 -4t4 -9t-4 -9t-9 -4t-9.5 4t-4.5 9zM71 0v679h9v-679h-9zM121 808q0 5 4 9t9 4t9 -4t4 -9t-4 -9t-9 -4t-9 4t-4 9z" />
<glyph unicode="&#xd0;" horiz-adv-x="660" d="M18 348v9h53v313h-17v9h241q136 0 233 -101.5t97 -238.5t-97 -238t-233 -101h-224v348h-53zM80 9h215q133 0 227 98t94 232t-94.5 232.5t-226.5 98.5h-215v-313h206v-9h-206v-339z" />
<glyph unicode="&#xd1;" horiz-adv-x="616" d="M54 670v9h28l454 -669v669h9v-683h-10l-455 670v-662h-9v666h-17zM211 800l2 10q10 49 53 49q20 0 36 -9l55 -30q15 -10 37 -10q36 0 44 41l2 10l9 -1l-2 -10q-9 -49 -53 -49q-22 0 -41 11l-55 30q-16 8 -32 8q-35 0 -44 -42l-2 -10z" />
<glyph unicode="&#xd2;" horiz-adv-x="758" d="M36 339q0 142 100.5 243t242.5 101t243 -101t101 -243t-101 -242.5t-243 -100.5t-242.5 100.5t-100.5 242.5zM45 339q0 -139 97.5 -237t236.5 -98t237 98t98 237t-98 237t-237 98t-236.5 -98t-97.5 -237zM308 864l6 6l99 -99l-6 -6z" />
<glyph unicode="&#xd3;" horiz-adv-x="758" d="M36 339q0 142 100.5 243t242.5 101t243 -101t101 -243t-101 -242.5t-243 -100.5t-242.5 100.5t-100.5 242.5zM45 339q0 -139 97.5 -237t236.5 -98t237 98t98 237t-98 237t-237 98t-236.5 -98t-97.5 -237zM346 771l99 99l6 -6l-99 -99z" />
<glyph unicode="&#xd4;" horiz-adv-x="758" d="M36 339q0 142 100.5 243t242.5 101t243 -101t101 -243t-101 -242.5t-243 -100.5t-242.5 100.5t-100.5 242.5zM45 339q0 -139 97.5 -237t236.5 -98t237 98t98 237t-98 237t-237 98t-236.5 -98t-97.5 -237zM242 763l131 107h13l131 -107l-6 -6l-128 104h-7l-128 -104z" />
<glyph unicode="&#xd5;" horiz-adv-x="758" d="M36 339q0 142 100.5 243t242.5 101t243 -101t101 -243t-101 -242.5t-243 -100.5t-242.5 100.5t-100.5 242.5zM45 339q0 -139 97.5 -237t236.5 -98t237 98t98 237t-98 237t-237 98t-236.5 -98t-97.5 -237zM260 800l2 10q10 49 53 49q20 0 36 -9l55 -30q15 -10 37 -10 q36 0 44 41l2 10l9 -1l-2 -10q-9 -49 -53 -49q-22 0 -41 11l-55 30q-16 8 -32 8q-35 0 -44 -42l-2 -10z" />
<glyph unicode="&#xd6;" horiz-adv-x="758" d="M36 339q0 142 100.5 243t242.5 101t243 -101t101 -243t-101 -242.5t-243 -100.5t-242.5 100.5t-100.5 242.5zM45 339q0 -139 97.5 -237t236.5 -98t237 98t98 237t-98 237t-237 98t-236.5 -98t-97.5 -237zM272 808q0 5 4.5 9t9.5 4t9 -4t4 -9t-4 -9.5t-9 -4.5t-9.5 4.5 t-4.5 9.5zM460 808q0 5 4 9t9 4t9.5 -4t4.5 -9t-4.5 -9.5t-9.5 -4.5t-9 4.5t-4 9.5z" />
<glyph unicode="&#xd7;" horiz-adv-x="303" d="M41 218l105 103l-105 104l7 7l104 -104l103 104l7 -7l-104 -104l104 -103l-7 -7l-103 104l-104 -104z" />
<glyph unicode="&#xd8;" horiz-adv-x="758" d="M36 339q0 142 100.5 243t242.5 101q139 0 240 -98l79 79l6 -6l-78 -79q97 -100 97 -240q0 -142 -101 -242.5t-243 -100.5q-139 0 -239 97l-79 -78l-6 6l78 79q-97 100 -97 239zM45 339q0 -136 95 -233l473 473q-97 95 -234 95q-139 0 -236.5 -98t-97.5 -237zM146 100 q98 -96 233 -96q139 0 237 98t98 237q0 137 -95 234z" />
<glyph unicode="&#xd9;" horiz-adv-x="616" d="M54 670v9h26v-447q0 -94 67 -161t161 -67t161 67t67 161v447h9v-447q0 -98 -69.5 -167t-167.5 -69t-167.5 69t-69.5 167v438h-17zM237 864l6 6l99 -99l-6 -6z" />
<glyph unicode="&#xda;" horiz-adv-x="616" d="M54 670v9h26v-447q0 -94 67 -161t161 -67t161 67t67 161v447h9v-447q0 -98 -69.5 -167t-167.5 -69t-167.5 69t-69.5 167v438h-17zM275 771l99 99l6 -6l-99 -99z" />
<glyph unicode="&#xdb;" horiz-adv-x="616" d="M54 670v9h26v-447q0 -94 67 -161t161 -67t161 67t67 161v447h9v-447q0 -98 -69.5 -167t-167.5 -69t-167.5 69t-69.5 167v438h-17zM170 763l131 107h13l131 -107l-6 -6l-128 104h-7l-128 -104z" />
<glyph unicode="&#xdc;" horiz-adv-x="616" d="M54 670v9h26v-447q0 -94 67 -161t161 -67t161 67t67 161v447h9v-447q0 -98 -69.5 -167t-167.5 -69t-167.5 69t-69.5 167v438h-17zM201 808q0 5 4.5 9t9.5 4t9 -4t4 -9t-4 -9.5t-9 -4.5t-9.5 4.5t-4.5 9.5zM389 808q0 5 4 9t9 4t9.5 -4t4.5 -9t-4.5 -9.5t-9.5 -4.5t-9 4.5 t-4 9.5z" />
<glyph unicode="&#xdd;" horiz-adv-x="580" d="M18 670v9h21l260 -422l255 414v8h8v-9l-258 -424v-246h-9v246l-261 424h-16zM262 771l99 99l6 -6l-99 -99z" />
<glyph unicode="&#xde;" horiz-adv-x="544" d="M71 0v679h9v-81h206q92 0 157.5 -65.5t65.5 -157.5t-65.5 -157.5t-157.5 -65.5h-206v-152h-9zM80 161h206q88 0 151 62.5t63 151.5t-63 151.5t-151 62.5h-206v-428z" />
<glyph unicode="&#xdf;" horiz-adv-x="500" d="M31 455v9h40v81q0 57 41 97.5t98 40.5t97.5 -40t40.5 -98q0 -41 -17.5 -73.5t-44 -50.5t-52 -27t-46.5 -10v-2q285 -120 285 -275q0 -52 -43 -81.5t-104 -29.5q-48 0 -92.5 18.5t-71.5 54.5l-1 1v19h9v-16q25 -33 68 -51t88 -18q59 0 98.5 27.5t39.5 75.5q0 149 -283 268 l-2 1v17h4q19 0 44 8.5t51 25t43.5 47.5t17.5 71q0 54 -38 91.5t-91 37.5q-54 0 -92 -37.5t-38 -91.5v-545h-9v455h-40z" />
<glyph unicode="&#xe0;" horiz-adv-x="500" d="M36 140q0 53 47.5 86t135.5 33h210v62q0 40 -15 68.5t-40 43t-52.5 21t-58.5 6.5q-87 0 -147 -34v-14h-9v19l2 1q62 37 154 37q75 0 125 -35.5t50 -112.5v-312h17v-9h-26v91q-29 -44 -89 -69.5t-121 -25.5q-78 0 -130.5 39t-52.5 105zM45 140q0 -62 49.5 -99t124.5 -37 q65 0 126.5 28.5t83.5 75.5v142h-210q-85 0 -129.5 -30.5t-44.5 -79.5zM192 650l6 6l99 -99l-6 -6z" />
<glyph unicode="&#xe1;" horiz-adv-x="500" d="M36 140q0 53 47.5 86t135.5 33h210v62q0 40 -15 68.5t-40 43t-52.5 21t-58.5 6.5q-87 0 -147 -34v-14h-9v19l2 1q62 37 154 37q75 0 125 -35.5t50 -112.5v-312h17v-9h-26v91q-29 -44 -89 -69.5t-121 -25.5q-78 0 -130.5 39t-52.5 105zM45 140q0 -62 49.5 -99t124.5 -37 q65 0 126.5 28.5t83.5 75.5v142h-210q-85 0 -129.5 -30.5t-44.5 -79.5zM230 557l99 99l6 -6l-99 -99z" />
<glyph unicode="&#xe2;" horiz-adv-x="500" d="M36 140q0 53 47.5 86t135.5 33h210v62q0 40 -15 68.5t-40 43t-52.5 21t-58.5 6.5q-87 0 -147 -34v-14h-9v19l2 1q62 37 154 37q75 0 125 -35.5t50 -112.5v-312h17v-9h-26v91q-29 -44 -89 -69.5t-121 -25.5q-78 0 -130.5 39t-52.5 105zM45 140q0 -62 49.5 -99t124.5 -37 q65 0 126.5 28.5t83.5 75.5v142h-210q-85 0 -129.5 -30.5t-44.5 -79.5zM126 549l131 107h13l131 -107l-6 -6l-128 104h-7l-128 -104z" />
<glyph unicode="&#xe3;" horiz-adv-x="500" d="M36 140q0 53 47.5 86t135.5 33h210v62q0 40 -15 68.5t-40 43t-52.5 21t-58.5 6.5q-87 0 -147 -34v-14h-9v19l2 1q62 37 154 37q75 0 125 -35.5t50 -112.5v-312h17v-9h-26v91q-29 -44 -89 -69.5t-121 -25.5q-78 0 -130.5 39t-52.5 105zM45 140q0 -62 49.5 -99t124.5 -37 q65 0 126.5 28.5t83.5 75.5v142h-210q-85 0 -129.5 -30.5t-44.5 -79.5zM144 586l2 10q10 49 53 49q20 0 36 -9l55 -30q15 -10 37 -10q36 0 44 41l2 10l9 -1l-2 -10q-9 -49 -53 -49q-22 0 -41 11l-55 30q-16 8 -32 8q-35 0 -44 -42l-2 -10z" />
<glyph unicode="&#xe4;" horiz-adv-x="500" d="M36 140q0 53 47.5 86t135.5 33h210v62q0 40 -15 68.5t-40 43t-52.5 21t-58.5 6.5q-87 0 -147 -34v-14h-9v19l2 1q62 37 154 37q75 0 125 -35.5t50 -112.5v-312h17v-9h-26v91q-29 -44 -89 -69.5t-121 -25.5q-78 0 -130.5 39t-52.5 105zM45 140q0 -62 49.5 -99t124.5 -37 q65 0 126.5 28.5t83.5 75.5v142h-210q-85 0 -129.5 -30.5t-44.5 -79.5zM156 594q0 5 4.5 9t9.5 4t9 -4t4 -9t-4 -9.5t-9 -4.5t-9.5 4.5t-4.5 9.5zM344 594q0 5 4 9t9 4t9.5 -4t4.5 -9t-4.5 -9.5t-9.5 -4.5t-9 4.5t-4 9.5z" />
<glyph unicode="&#xe5;" horiz-adv-x="500" d="M36 140q0 53 47.5 86t135.5 33h210v62q0 40 -15 68.5t-40 43t-52.5 21t-58.5 6.5q-87 0 -147 -34v-14h-9v19l2 1q62 37 154 37q75 0 125 -35.5t50 -112.5v-312h17v-9h-26v91q-29 -44 -89 -69.5t-121 -25.5q-78 0 -130.5 39t-52.5 105zM45 140q0 -62 49.5 -99t124.5 -37 q65 0 126.5 28.5t83.5 75.5v142h-210q-85 0 -129.5 -30.5t-44.5 -79.5zM187 589q0 29 24 53q25 23 52 23t52 -23q24 -24 24 -53q0 -28 -24 -52q-26 -24 -52 -24q-28 0 -52 24t-24 52zM196 589q0 -25 21 -46t46 -21q24 0 46 21q21 19 21 46t-21 46q-22 21 -46 21t-46 -21 q-21 -19 -21 -46z" />
<glyph unicode="&#xe6;" horiz-adv-x="892" d="M36 140q0 52 47 81t136 29h210v71q0 40 -15 68.5t-40 43t-52.5 21t-58.5 6.5q-87 0 -147 -34v-14h-9v19l2 1q62 37 154 37q75 0 125 -35.5t50 -112.5v-25q21 75 84.5 124t142.5 49q59 0 111.5 -28.5t85.5 -76.5l1 -3l-2 -2q-1 -1 -25.5 -21t-33.5 -27t-34.5 -24 t-42 -24.5t-39.5 -14.5t-44 -7h-204v-9q0 -95 66.5 -161.5t160.5 -66.5q98 0 166 73l7 -6q-70 -75 -173 -75q-80 0 -143 48.5t-84 123.5v-168h-9v89q-28 -44 -88.5 -68.5t-121.5 -24.5q-78 0 -130.5 39t-52.5 105zM45 140q0 -62 49.5 -99t124.5 -37q65 0 126.5 28.5 t83.5 75.5v133h-210q-86 0 -130 -26.5t-44 -74.5zM438 250h205q34 0 76.5 20.5t65 37.5t58.5 47q6 5 9 7q-31 45 -80.5 71.5t-106.5 26.5q-89 0 -154.5 -60.5t-72.5 -149.5z" />
<glyph unicode="&#xe7;" horiz-adv-x="482" d="M36 232q0 98 69.5 167.5t166.5 69.5q95 0 164 -66l2 -1v-23h-9v18q-68 63 -157 63q-94 0 -160.5 -66.5t-66.5 -161.5t66.5 -161.5t160.5 -66.5q98 0 166 73l8 -6q-70 -75 -174 -75q-19 0 -28 1l-19 -65l10 5q15 8 35 8q26 0 41 -18.5t15 -44.5q0 -28 -18.5 -49t-50.5 -21 q-34 0 -56 25l7 5q18 -21 49 -21q29 0 44.5 18t15.5 43q0 23 -13 38.5t-34 15.5q-27 0 -40 -13l-15 5l20 70q-85 14 -142 80t-57 154z" />
<glyph unicode="&#xe8;" horiz-adv-x="500" d="M36 232q0 97 69.5 167t166.5 70q60 0 113 -29.5t86 -78.5l-3 -2l-39 -33q-39 -33 -58 -46.5t-55.5 -30.5t-66.5 -17h-204q0 -95 66.5 -161.5t160.5 -66.5q98 0 166 73l8 -6q-70 -75 -174 -75q-98 0 -167 69t-69 167zM45 241h205q22 0 45.5 7.5t50.5 25.5t40.5 27.5 t42.5 34.5t30 26q-31 45 -80.5 71.5t-106.5 26.5q-91 0 -157 -63.5t-70 -155.5zM201 650l6 6l99 -99l-6 -6z" />
<glyph unicode="&#xe9;" horiz-adv-x="500" d="M36 232q0 97 69.5 167t166.5 70q60 0 113 -29.5t86 -78.5l-3 -2l-39 -33q-39 -33 -58 -46.5t-55.5 -30.5t-66.5 -17h-204q0 -95 66.5 -161.5t160.5 -66.5q98 0 166 73l8 -6q-70 -75 -174 -75q-98 0 -167 69t-69 167zM45 241h205q22 0 45.5 7.5t50.5 25.5t40.5 27.5 t42.5 34.5t30 26q-31 45 -80.5 71.5t-106.5 26.5q-91 0 -157 -63.5t-70 -155.5zM239 557l99 99l6 -6l-99 -99z" />
<glyph unicode="&#xea;" horiz-adv-x="500" d="M36 232q0 97 69.5 167t166.5 70q60 0 113 -29.5t86 -78.5l-3 -2l-39 -33q-39 -33 -58 -46.5t-55.5 -30.5t-66.5 -17h-204q0 -95 66.5 -161.5t160.5 -66.5q98 0 166 73l8 -6q-70 -75 -174 -75q-98 0 -167 69t-69 167zM45 241h205q22 0 45.5 7.5t50.5 25.5t40.5 27.5 t42.5 34.5t30 26q-31 45 -80.5 71.5t-106.5 26.5q-91 0 -157 -63.5t-70 -155.5zM135 549l131 107h13l131 -107l-6 -6l-128 104h-7l-128 -104z" />
<glyph unicode="&#xeb;" horiz-adv-x="500" d="M36 232q0 97 69.5 167t166.5 70q60 0 113 -29.5t86 -78.5l-3 -2l-39 -33q-39 -33 -58 -46.5t-55.5 -30.5t-66.5 -17h-204q0 -95 66.5 -161.5t160.5 -66.5q98 0 166 73l8 -6q-70 -75 -174 -75q-98 0 -167 69t-69 167zM45 241h205q22 0 45.5 7.5t50.5 25.5t40.5 27.5 t42.5 34.5t30 26q-31 45 -80.5 71.5t-106.5 26.5q-91 0 -157 -63.5t-70 -155.5zM165 594q0 5 4.5 9t9.5 4t9 -4t4 -9t-4 -9.5t-9 -4.5t-9.5 4.5t-4.5 9.5zM353 594q0 5 4 9t9 4t9.5 -4t4.5 -9t-4.5 -9.5t-9.5 -4.5t-9 4.5t-4 9.5z" />
<glyph unicode="&#xec;" horiz-adv-x="151" d="M14 650l6 6l99 -99l-6 -6zM54 455v9h26v-464h-9v455h-17z" />
<glyph unicode="&#xed;" horiz-adv-x="151" d="M52 557l99 99l6 -6l-99 -99zM54 455v9h26v-464h-9v455h-17z" />
<glyph unicode="&#xee;" horiz-adv-x="151" d="M-53 549l131 107h13l131 -107l-6 -6l-128 104h-7l-128 -104zM54 455v9h26v-464h-9v455h-17z" />
<glyph unicode="&#xef;" horiz-adv-x="142" d="M13 594q0 5 4.5 9t9.5 4t9 -4t4 -9t-4 -9.5t-9 -4.5t-9.5 4.5t-4.5 9.5zM54 455v9h26v-464h-9v455h-17zM112 594q0 5 4 9t9 4t9 -4t4 -9t-4 -9.5t-9 -4.5t-9 4.5t-4 9.5z" />
<glyph unicode="&#xf0;" horiz-adv-x="437" d="M36 232q0 109 53 173t121 64q47 0 94 -32.5t74 -90.5l11 -28l1 1l-3 30q-18 160 -92 234l-79 -32l-4 8l75 31l-6 4q-33 27 -77 44l2 8q58 -21 90 -53l86 34l3 -8l-81 -32l4 -5q91 -96 94 -342v-17q-3 -104 -63.5 -165.5t-128.5 -61.5t-121 63.5t-53 172.5zM45 232 q0 -105 50.5 -166.5t114.5 -61.5q30 0 61 15t58.5 42t45.5 71t18 97v10q-1 52 -19 95.5t-45.5 70t-58.5 41t-60 14.5q-64 0 -114.5 -61.5t-50.5 -166.5z" />
<glyph unicode="&#xf1;" d="M54 455v9h26v-179q22 82 85 133t143 51q76 0 120.5 -39.5t44.5 -108.5v-312h18v-9h-27v321q0 65 -42 102t-114 37q-93 0 -160.5 -71t-67.5 -175v-214h-9v455h-17zM158 586l2 10q10 49 53 49q20 0 36 -9l55 -30q15 -10 37 -10q36 0 44 41l2 10l9 -1l-2 -10q-9 -49 -53 -49 q-22 0 -41 11l-55 30q-16 8 -32 8q-35 0 -44 -42l-2 -10z" />
<glyph unicode="&#xf2;" horiz-adv-x="544" d="M36 232q0 98 69 167.5t167 69.5t167.5 -69.5t69.5 -167.5t-69.5 -167t-167.5 -69t-167 69t-69 167zM45 232q0 -95 66.5 -161.5t160.5 -66.5t161 67t67 161t-67 161t-161 67t-160.5 -66.5t-66.5 -161.5zM201 650l6 6l99 -99l-6 -6z" />
<glyph unicode="&#xf3;" horiz-adv-x="544" d="M36 232q0 98 69 167.5t167 69.5t167.5 -69.5t69.5 -167.5t-69.5 -167t-167.5 -69t-167 69t-69 167zM45 232q0 -95 66.5 -161.5t160.5 -66.5t161 67t67 161t-67 161t-161 67t-160.5 -66.5t-66.5 -161.5zM239 557l99 99l6 -6l-99 -99z" />
<glyph unicode="&#xf4;" horiz-adv-x="544" d="M36 232q0 98 69 167.5t167 69.5t167.5 -69.5t69.5 -167.5t-69.5 -167t-167.5 -69t-167 69t-69 167zM45 232q0 -95 66.5 -161.5t160.5 -66.5t161 67t67 161t-67 161t-161 67t-160.5 -66.5t-66.5 -161.5zM135 549l131 107h13l131 -107l-6 -6l-128 104h-7l-128 -104z" />
<glyph unicode="&#xf5;" horiz-adv-x="544" d="M36 232q0 98 69 167.5t167 69.5t167.5 -69.5t69.5 -167.5t-69.5 -167t-167.5 -69t-167 69t-69 167zM45 232q0 -95 66.5 -161.5t160.5 -66.5t161 67t67 161t-67 161t-161 67t-160.5 -66.5t-66.5 -161.5zM153 586l2 10q10 49 53 49q20 0 36 -9l55 -30q15 -10 37 -10 q36 0 44 41l2 10l9 -1l-2 -10q-9 -49 -53 -49q-22 0 -41 11l-55 30q-16 8 -32 8q-35 0 -44 -42l-2 -10z" />
<glyph unicode="&#xf6;" horiz-adv-x="544" d="M36 232q0 98 69 167.5t167 69.5t167.5 -69.5t69.5 -167.5t-69.5 -167t-167.5 -69t-167 69t-69 167zM45 232q0 -95 66.5 -161.5t160.5 -66.5t161 67t67 161t-67 161t-161 67t-160.5 -66.5t-66.5 -161.5zM165 594q0 5 4.5 9t9.5 4t9 -4t4 -9t-4 -9.5t-9 -4.5t-9.5 4.5 t-4.5 9.5zM353 594q0 5 4 9t9 4t9.5 -4t4.5 -9t-4.5 -9.5t-9.5 -4.5t-9 4.5t-4 9.5z" />
<glyph unicode="&#xf7;" horiz-adv-x="357" d="M36 357v9h285v-9h-285zM165 246q0 5 4.5 9t9.5 4t9 -4t4 -9t-4 -9.5t-9 -4.5t-9.5 4.5t-4.5 9.5zM165 487q0 5 4.5 9t9.5 4t9 -4t4 -9t-4 -9.5t-9 -4.5t-9.5 4.5t-4.5 9.5z" />
<glyph unicode="&#xf8;" horiz-adv-x="544" d="M36 232q0 98 69 167.5t167 69.5q95 0 164 -66l65 64l7 -6l-65 -65q66 -69 66 -164q0 -98 -69.5 -167t-167.5 -69q-95 0 -164 66l-65 -65l-6 6l65 65q-66 69 -66 164zM45 232q0 -92 63 -158l322 322q-67 64 -158 64q-94 0 -160.5 -66.5t-66.5 -161.5zM115 68 q67 -64 157 -64q94 0 161 67t67 161q0 91 -64 158z" />
<glyph unicode="&#xf9;" d="M54 455v9h26v-321q0 -65 42.5 -102t114.5 -37q93 0 160 71t67 175v214h9v-455h18v-9h-27v180q-22 -82 -85 -133t-142 -51q-76 0 -121 39t-45 108v312h-17zM206 650l6 6l99 -99l-6 -6z" />
<glyph unicode="&#xfa;" d="M54 455v9h26v-321q0 -65 42.5 -102t114.5 -37q93 0 160 71t67 175v214h9v-455h18v-9h-27v180q-22 -82 -85 -133t-142 -51q-76 0 -121 39t-45 108v312h-17zM244 557l99 99l6 -6l-99 -99z" />
<glyph unicode="&#xfb;" d="M54 455v9h26v-321q0 -65 42.5 -102t114.5 -37q93 0 160 71t67 175v214h9v-455h18v-9h-27v180q-22 -82 -85 -133t-142 -51q-76 0 -121 39t-45 108v312h-17zM139 549l131 107h13l131 -107l-6 -6l-128 104h-7l-128 -104z" />
<glyph unicode="&#xfc;" d="M54 455v9h26v-321q0 -65 42.5 -102t114.5 -37q93 0 160 71t67 175v214h9v-455h18v-9h-27v180q-22 -82 -85 -133t-142 -51q-76 0 -121 39t-45 108v312h-17zM169 594q0 5 4.5 9t9.5 4t9 -4t4 -9t-4 -9.5t-9 -4.5t-9.5 4.5t-4.5 9.5zM357 594q0 5 4 9t9 4t9.5 -4t4.5 -9 t-4.5 -9.5t-9.5 -4.5t-9 4.5t-4 9.5z" />
<glyph unicode="&#xfd;" horiz-adv-x="526" d="M18 455v9h26l218 -490l238 496l9 -5l-288 -595q-41 -84 -105 -84q-57 0 -95 56v15h8v-14q34 -48 87 -48q59 0 97 78l44 90l-219 492h-20zM235 557l99 99l6 -6l-99 -99z" />
<glyph unicode="&#xfe;" d="M54 670v9h26v-377q19 74 75.5 120.5t134.5 46.5q96 0 157.5 -68.5t61.5 -168.5q0 -99 -61.5 -167.5t-157.5 -68.5q-78 0 -134.5 46t-75.5 120v-376h-9v884h-17zM80 232q0 -96 59 -162t151 -66t151 66t59 162t-59 162t-151 66t-151 -66t-59 -162z" />
<glyph unicode="&#xff;" horiz-adv-x="526" d="M18 455v9h26l218 -490l238 496l9 -5l-288 -595q-41 -84 -105 -84q-57 0 -95 56v15h8v-14q34 -48 87 -48q59 0 97 78l44 90l-219 492h-20zM160 594q0 5 4.5 9t9.5 4t9 -4t4 -9t-4 -9.5t-9 -4.5t-9.5 4.5t-4.5 9.5zM348 594q0 5 4 9t9 4t9.5 -4t4.5 -9t-4.5 -9.5t-9.5 -4.5 t-9 4.5t-4 9.5z" />
<glyph unicode="&#x152;" horiz-adv-x="821" d="M36 339q0 140 99.5 240t239.5 100h375v-27h-9v18h-339v-340h205v-9h-205v-312h375v18h9v-27h-411q-140 0 -239.5 99.5t-99.5 239.5zM45 339q0 -137 96.5 -233.5t233.5 -96.5h18v661h-18q-136 0 -233 -97t-97 -234z" />
<glyph unicode="&#x153;" horiz-adv-x="964" d="M36 232q0 98 69 167.5t167 69.5q86 0 151 -54.5t81 -136.5q17 82 82.5 136.5t150.5 54.5q60 0 112.5 -29.5t85.5 -78.5l-3 -2l-39 -33q-39 -33 -58 -46.5t-55.5 -30.5t-66.5 -17h-204q0 -94 66.5 -161t161.5 -67q98 0 166 73l7 -6q-70 -75 -173 -75q-86 0 -151.5 54 t-81.5 136q-16 -82 -81 -136t-151 -54q-98 0 -167 69t-69 167zM45 232q0 -95 66.5 -161.5t160.5 -66.5t161 67t67 161t-67 161t-161 67t-160.5 -66.5t-66.5 -161.5zM509 241h205q22 0 45.5 7.5t50.5 25.5t40.5 27.5t42.5 34.5t30 26q-31 45 -80 71.5t-106 26.5 q-92 0 -158 -64t-70 -155z" />
<glyph unicode="&#x178;" horiz-adv-x="580" d="M18 670v9h21l260 -422l255 414v8h8v-9l-258 -424v-246h-9v246l-261 424h-16zM187 808q0 5 4.5 9t9.5 4t9 -4t4 -9t-4 -9.5t-9 -4.5t-9.5 4.5t-4.5 9.5zM375 808q0 5 4 9t9 4t9.5 -4t4.5 -9t-4.5 -9.5t-9.5 -4.5t-9 4.5t-4 9.5z" />
<glyph unicode="&#x2c6;" horiz-adv-x="392" d="M59 549l131 107h13l131 -107l-6 -6l-128 104h-7l-128 -104z" />
<glyph unicode="&#x2dc;" horiz-adv-x="285" d="M24 586l2 10q10 49 53 49q20 0 36 -9l55 -30q15 -10 37 -10q36 0 44 41l1 10l9 -1l-1 -10q-9 -49 -53 -49q-22 0 -41 11l-55 30q-16 8 -32 8q-35 0 -44 -42l-2 -10z" />
<glyph unicode="&#x2000;" horiz-adv-x="435" />
<glyph unicode="&#x2001;" horiz-adv-x="871" />
<glyph unicode="&#x2002;" horiz-adv-x="435" />
<glyph unicode="&#x2003;" horiz-adv-x="871" />
<glyph unicode="&#x2004;" horiz-adv-x="290" />
<glyph unicode="&#x2005;" horiz-adv-x="217" />
<glyph unicode="&#x2006;" horiz-adv-x="145" />
<glyph unicode="&#x2007;" horiz-adv-x="145" />
<glyph unicode="&#x2008;" horiz-adv-x="108" />
<glyph unicode="&#x2009;" horiz-adv-x="174" />
<glyph unicode="&#x200a;" horiz-adv-x="48" />
<glyph unicode="&#x2010;" horiz-adv-x="285" d="M36 277v9h214v-9h-214z" />
<glyph unicode="&#x2011;" horiz-adv-x="285" d="M36 277v9h214v-9h-214z" />
<glyph unicode="&#x2012;" horiz-adv-x="285" d="M36 277v9h214v-9h-214z" />
<glyph unicode="&#x2013;" horiz-adv-x="464" d="M36 277v9h393v-9h-393z" />
<glyph unicode="&#x2014;" horiz-adv-x="892" d="M36 277v9h821v-9h-821z" />
<glyph unicode="&#x2018;" horiz-adv-x="133" d="M36 579q0 41 42 91l6 -4q-15 -18 -25 -40t-10 -34q5 0 9 -4t4 -9t-4 -9t-9 -4t-9 4t-4 9z" />
<glyph unicode="&#x2019;" horiz-adv-x="133" d="M32 570q15 18 25 40t10 34q-5 0 -9 4t-4 9t4 9t9 4t9 -4t4 -9q0 -41 -42 -91z" />
<glyph unicode="&#x201a;" horiz-adv-x="133" d="M32 -78q15 18 25 40t10 34q-5 0 -9 4t-4 9t4 9t9 4t9 -4t4 -9q0 -41 -42 -91z" />
<glyph unicode="&#x201c;" horiz-adv-x="196" d="M36 579q0 40 43 91l5 -4q-34 -39 -34 -74q5 0 9 -4t4 -9t-4 -9t-9 -4t-9.5 4t-4.5 9zM99 579q0 41 42 91l6 -4q-15 -18 -25 -40t-10 -34q5 0 9 -4t4 -9t-4 -9t-9 -4t-9 4t-4 9z" />
<glyph unicode="&#x201d;" horiz-adv-x="196" d="M32 570q15 18 25 40t10 34q-5 0 -9 4t-4 9t4 9t9 4t9 -4t4 -9q0 -41 -42 -91zM95 570q34 39 34 74q-5 0 -9 4t-4 9t4 9t9 4t9.5 -4t4.5 -9q0 -40 -43 -91z" />
<glyph unicode="&#x201e;" horiz-adv-x="196" d="M32 -78q15 18 25 40t10 34q-5 0 -9 4t-4 9t4 9t9 4t9 -4t4 -9q0 -41 -42 -91zM95 -78q34 39 34 74q-5 0 -9 4t-4 9t4 9t9 4t9.5 -4t4.5 -9q0 -40 -43 -91z" />
<glyph unicode="&#x2022;" horiz-adv-x="232" d="M36 232q0 33 23.5 56.5t56.5 23.5t56.5 -23.5t23.5 -56.5t-23.5 -56.5t-56.5 -23.5t-56.5 23.5t-23.5 56.5z" />
<glyph unicode="&#x2026;" horiz-adv-x="312" d="M45 9q0 5 4 9t9 4t9 -4t4 -9t-4 -9t-9 -4t-9 4t-4 9zM143 9q0 5 4 9t9 4t9.5 -4t4.5 -9t-4.5 -9t-9.5 -4t-9 4t-4 9zM241 9q0 5 4 9t9 4t9.5 -4t4.5 -9t-4.5 -9t-9.5 -4t-9 4t-4 9z" />
<glyph unicode="&#x202f;" horiz-adv-x="174" />
<glyph unicode="&#x2039;" horiz-adv-x="178" d="M18 227v10l125 153l7 -6l-123 -150v-3l123 -149l-7 -6z" />
<glyph unicode="&#x203a;" horiz-adv-x="178" d="M29 82l123 149v3l-123 150l6 6l126 -153v-10l-126 -151z" />
<glyph unicode="&#x205f;" horiz-adv-x="217" />
<glyph unicode="&#x20ac;" horiz-adv-x="642" d="M16 277l2 9h57q-4 23 -4 52q0 24 3 46h-40l2 9h40q20 124 115.5 206.5t223.5 82.5q105 0 195 -64l2 -2v-28h-9v24q-87 61 -188 61q-124 0 -217 -80t-113 -200h393l-2 -9h-393q-3 -22 -3 -46q0 -29 4 -52h376l-2 -9h-372q22 -117 114.5 -195t214.5 -78q110 0 194 61l5 -7 q-88 -63 -199 -63q-126 0 -221 80t-117 202h-61z" />
<glyph unicode="&#x2122;" horiz-adv-x="964" d="M62 661v9h295v-9h-143v-393h-9v393h-143zM403 268v14l46 390h8l189 -411l190 411h8l52 -397l-8 -1l-50 380l-183 -397h-17l-183 397l-45 -386h-7z" />
<glyph unicode="&#xe000;" horiz-adv-x="465" d="M0 0v465h465v-465h-465z" />
</font>
</defs>
</svg>
