<?xml version="1.0" standalone="no"?>
<!DOCTYPE svg PUBLIC "-//W3C//DTD SVG 1.1//EN" "http://www.w3.org/Graphics/SVG/1.1/DTD/svg11.dtd" >
<svg xmlns="http://www.w3.org/2000/svg">
<metadata></metadata>
<defs>
<font id="nervous_rexregular" horiz-adv-x="1139" >
<font-face units-per-em="2048" ascent="1638" descent="-410" />
<missing-glyph horiz-adv-x="569" />
<glyph horiz-adv-x="2048" />
<glyph horiz-adv-x="2048" />
<glyph unicode="&#xd;" horiz-adv-x="569" />
<glyph unicode=" "  horiz-adv-x="569" />
<glyph unicode="&#x09;" horiz-adv-x="569" />
<glyph unicode="&#xa0;" horiz-adv-x="569" />
<glyph unicode="!" horiz-adv-x="569" />
<glyph unicode="&#x22;" horiz-adv-x="727" />
<glyph unicode="#" />
<glyph unicode="$" />
<glyph unicode="%" horiz-adv-x="1821" />
<glyph unicode="&#x26;" horiz-adv-x="1366" />
<glyph unicode="'" horiz-adv-x="507" d="M615 1828l108 -55l72 42l36 -28l12 -316l-48 -137l-248 -80l-87 93l24 152l12 41q-9 47 -12 110q2 64 24 123zM986 1775q4 -95 72 -165l24 82q-39 44 -96 83zM458 890l-12 -41l12 -14l60 28zM590 1677q-25 -26 -25 -60l17 -40q22 22 34 52l-9 28q12 1 17 8l-8 12h-26z M528 592l-37 -53l18 -35q43 16 75 53q-15 26 -56 35zM649 1101q41 -58 111 -88zM307 1342q-113 -29 -148 -140q110 32 148 140zM564 139l38 -29l18 55l-37 29zM433 82l-19 -140l56 -29l38 29q-14 91 -75 140zM700 846l-75 -106l94 -18l56 72z" />
<glyph unicode="(" horiz-adv-x="682" />
<glyph unicode=")" horiz-adv-x="682" />
<glyph unicode="*" horiz-adv-x="797" />
<glyph unicode="+" horiz-adv-x="1196" />
<glyph unicode="," horiz-adv-x="569" />
<glyph unicode="-" horiz-adv-x="682" />
<glyph unicode="." horiz-adv-x="496" d="M723 399l12 -110l-12 -41l12 -165l-84 -82l-95 -13l-36 27l-144 13l-36 69l24 41l19 260zM363 1064l12 -110l-12 -42l24 -41q32 12 60 41l-24 97q26 0 48 27q-53 5 -108 28zM436 739l-12 -41h24v41h-12zM588 177l21 -56l73 60q-7 21 -24 30zM424 616q4 -18 24 -28 q-3 19 -24 28zM629 1573q21 -56 60 -74q-25 52 -60 74zM453 1813l-36 -73l48 -51l12 76zM727 955l-12 -74h24zM532 555v27h-12zM376 1383l76 -14l104 247q-27 6 -65 -23zM686 494l15 109l21 38l-13 46q-34 -4 -68 -26v-100q-25 7 -53 -14q50 -18 98 -53zM685 1773l21 37 l-23 6l-10 -40zM679 1148l52 63l-34 60l-30 -70zM350 1633l30 69l-24 6z" />
<glyph unicode="/" horiz-adv-x="569" />
<glyph unicode="0" horiz-adv-x="1068" d="M511 1814h162q56 -21 118 -57q45 -36 96 -100l119 -258l43 -372l-11 -171q-8 -72 -32 -144q-3 -78 -22 -157q-13 -79 -43 -157l-54 -129q-21 -72 -64 -143l-193 -143l-172 -57l-33 29q-59 25 -118 71q-51 28 -107 71q-40 43 -75 100l-97 301l-22 114l22 29 q-19 71 -32 157q16 86 21 186l22 186l53 143q25 61 65 115q21 68 54 143q29 61 85 114q49 36 97 86zM544 1728l-11 -71l32 -15l22 15q-11 39 -43 71zM748 1685q2 -18 21 -28q-2 18 -21 28zM694 1614q19 -50 65 -86q-25 43 -65 86zM404 1599q16 -25 43 -28zM372 1542l-33 -57 l54 -14q0 39 -21 71zM630 1514v28h-11zM554 1528q6 -29 22 -43q-3 29 -22 43zM726 1499v-28l22 14zM286 1456q-8 -46 -11 -114l43 14l11 -14q-6 61 -43 114zM576 1385l-140 -86l-86 -143q-21 -72 -21 -157l10 -29l-10 -86l-54 -57l-32 29l-22 -15q19 -36 54 -57l54 -186 q29 -82 75 -157q24 -83 97 -101l86 43l32 -28q32 -43 75 -72l-11 29l11 14q-27 65 -32 158q16 89 54 186l32 214l-22 200l-53 186zM-127 1292q35 -174 102 -232q-41 154 -102 232zM286 1256q2 -32 21 -57l11 43zM802 1185l-22 -86q5 -15 22 -29l10 14l22 86zM82 1070 q5 -89 86 -143q-3 97 -86 143zM812 984q11 -21 32 -28q-8 21 -32 28zM930 956l-10 -58q21 -25 32 -28l11 71zM823 712l-11 -57l32 15q-2 28 -21 42zM189 541l-21 -86l53 43q-8 28 -32 43zM855 498q3 -18 22 -29q-3 15 -22 29zM307 412q-21 -54 -32 -129l54 -43l32 58z M425 212v28h-10zM522 240l32 -86q-5 51 -32 86zM857 1268l-11 -72l33 -14l21 14q-11 39 -43 72zM120 1684q5 -26 41 -42q-5 26 -41 42zM18 1580q36 -73 123 -125q-46 63 -123 125zM717 1139q17 -25 43 -29zM685 1082l-32 -58l54 -14q0 39 -22 72zM-103 1435v41h-21z M868 1067q5 -28 21 -43q-2 29 -21 43zM80 1414v-42l40 21zM599 996q-8 -47 -11 -115l43 15l11 -15q-5 61 -43 115zM9 371q19 -32 54 -43q-22 29 -54 43zM599 795q3 -32 22 -57l10 43zM-119 199l-22 -86q6 -14 22 -28l10 14l22 86zM395 609q5 -89 86 -143q-3 97 -86 143z M-109 0q11 -22 33 -29q-8 21 -33 29zM9 -29l-10 -57q21 -25 32 -29l10 72zM976 285l-22 -86l54 43q-8 29 -32 43zM979 1813q-30 -54 -45 -129l74 -43l45 58zM694 703v192h-40zM1047 320l118 575q-98 -239 -118 -575z" />
<glyph unicode="1" horiz-adv-x="601" d="M307 1800q42 -27 74 -83q6 -48 9 -111l-19 -41l-18 -97l9 -42l-9 -97v-28h9l-9 -97l18 -28l-36 -208l18 -41l-18 -153v-194l-9 -111l9 -41l-28 -139l10 -180q-10 -59 -37 -111l-91 -41l-64 28l-28 -14q-34 24 -55 82l-9 111l9 42l46 125l-18 125l-9 166l27 125l-18 41 l27 70l-9 110l9 42l9 139l-18 97l28 28q-5 48 -37 97h-73l-9 69l9 166q4 59 18 125q48 21 110 28zM216 1592q16 -34 46 -41q-18 31 -46 41zM216 1371l-46 -97l28 41q36 11 64 56h-46zM207 1066v27h-9zM225 1066q16 -52 55 -70q-7 66 -55 70zM262 927l-18 -69q2 -25 18 -28 l27 28zM225 761l46 -84q-16 49 -46 84zM125 733q11 -49 45 -70q-11 46 -45 70zM189 456q2 -18 18 -28q-2 17 -18 28zM116 372q2 -17 18 -27q-2 17 -18 27zM488 1776v27h-9zM507 1776q16 -52 55 -70q-7 66 -55 70zM543 1637l-18 -69q2 -25 18 -28l28 28zM507 1471l45 -84 q-16 49 -45 84zM406 1443q12 -49 46 -69q-12 45 -46 69zM470 1166q2 -18 18 -28q-2 17 -18 28zM397 1082q2 -17 18 -27q-2 17 -18 27zM435 895q-16 -10 -19 -28q16 11 19 28zM508 812q-16 -11 -19 -28q16 10 19 28zM471 576q-34 -21 -46 -69q35 24 46 69zM572 562l-46 -83 q30 35 46 83zM590 382l-28 28q-16 -4 -18 -28l18 -69zM581 243q-39 -17 -55 -69q48 3 55 69zM499 146h9v28zM-102 201h9v46zM-20 361q-39 -28 -55 -114q48 6 55 114zM-11 589l-27 46q-16 -6 -19 -46l19 -114zM-29 885l-46 -136q30 57 46 136zM-130 908q-34 -34 -45 -114 q34 40 45 114zM-93 1296q-16 -17 -19 -46q16 17 19 46zM-166 1433q-16 -18 -19 -46q16 17 19 46z" />
<glyph unicode="2" horiz-adv-x="1067" d="M396 1801l165 -41l20 13l21 28l103 -41q33 -28 62 -84q49 -13 103 -55q20 -45 51 -97l21 -235l21 -97l-31 -28l-11 -124q-20 -45 -41 -111q-5 -59 -31 -125l-124 -180q-69 -62 -164 -124q-42 14 -83 55q-44 -14 -82 -55q23 -31 62 -56l61 -83l31 -14q36 11 83 14l103 42 l82 -56q29 42 72 83q42 -10 73 -55l41 -125l-31 -138q-26 -48 -72 -83l-72 -28l-21 28l-103 -28l-93 28l-103 -28l-72 28l-31 -14q-36 -10 -82 -14l-31 14l-73 -14l-30 28l-83 -55q-36 0 -72 27l-41 125q26 118 72 263l62 83l92 55l52 111l82 55l134 180q70 66 124 180 q28 45 52 111l10 28l-21 55l42 111q-3 14 -21 28l-62 -28q-2 14 -20 28l-73 27l-31 -13l-92 -14l-145 -166q-36 -32 -82 -42l-72 83l-41 249l20 28q36 35 83 69l61 83q83 35 176 111zM251 1607l-10 -41l21 -14q23 14 41 41zM478 1607l-31 -41l52 -28l10 55zM736 1413 q10 -34 41 -41zM746 1247l-31 -41l10 -56l-20 -27q2 -18 20 -28l52 138zM839 1247q5 -38 31 -69q-8 38 -31 69zM787 1012q8 -24 31 -28zM684 957l-10 -70l21 -14l10 70zM561 763q-39 -38 -73 -97l42 27q33 25 72 28zM653 763l-20 -42l10 -28l52 56zM375 638q23 -38 62 -55 q-23 34 -62 55zM385 444q-23 -79 -61 -166q72 -34 144 -111q-10 77 -62 125q13 45 41 83zM427 334v-28h10l41 14zM190 278l-11 -69h21v14zM612 223q36 -56 83 -111q-13 83 -83 111zM272 167l21 -83l10 70zM397 1535q10 -35 41 -42zM407 1369l-31 -42l10 -55l-20 -28 q2 -17 20 -27l52 138zM500 1369q5 -38 31 -69q-8 38 -31 69zM448 1133q8 -24 31 -27zM345 1078l-10 -69l21 -14l10 69zM222 884q-39 -38 -73 -97l42 28q33 24 72 28zM314 884l-20 -41l10 -28l52 55zM36 760q23 -38 62 -56q-23 35 -62 56zM-17 1276q-23 -80 -62 -166 q72 -35 144 -111q-11 76 -62 125q13 45 41 83zM1047 724v-28h10l42 14zM810 668l-10 -69h20v14zM1233 613q36 -55 82 -111q-13 83 -82 111zM893 558l20 -83l11 69zM-126 1806l-10 -42l21 -14q23 14 41 42zM101 1806l-31 -42l51 -28l11 56zM358 1612q11 -35 42 -42zM19 1733 q11 -34 41 -41zM985 1708q11 -35 42 -42zM1324 1586q11 -34 42 -41zM1067 1780l-31 -42l51 -27l11 55zM840 1780l-10 -42l20 -13q23 13 42 41zM1050 874l42 -11l14 21q-14 23 -42 41zM1050 1100l42 -31l28 52l-56 10zM1244 1358q35 10 42 41zM1123 1019q34 10 41 41z" />
<glyph unicode="3" horiz-adv-x="1081" d="M721 1794l135 -14l93 14l31 -28q13 -50 21 -113l-10 -42q-13 -67 -42 -141l-62 -112l-73 -98l-166 -155l52 -56l52 -42l31 42q34 -39 42 -99l41 -56v56q44 0 93 -28l42 -140l10 -183l-20 -140q-13 -74 -42 -141q-28 -56 -73 -98q-33 -46 -83 -85l-83 -84l-103 -42 l-31 -28l-73 42q-34 -45 -83 -84l-104 56l11 70q-21 -21 -32 -56q-31 -28 -72 -42l-11 56q-49 11 -103 42l-83 84q-24 57 -31 127q0 84 20 183q19 63 52 126l83 -84l62 -113l198 -42l93 -42l93 70l135 211l-31 127l-93 70q-50 10 -94 42l-103 -42q-50 21 -94 70l-10 98 q10 4 21 29l41 154q44 32 83 84q31 -10 62 -42q16 4 21 28l-41 29l20 84q42 35 63 112l31 113l-197 -127q-55 -31 -115 -42l-114 -42q-41 3 -83 28l-20 141l20 168q29 46 73 70h145l125 29l52 -15l20 15h52l21 -71l31 42zM596 1597q3 -18 21 -28q-2 17 -21 28zM669 1597 l-10 -42l10 -28q23 3 41 28l104 -56q-5 38 -31 70zM451 1583l-31 -70l31 -29l21 71q-3 14 -21 28zM337 1555q3 -18 21 -28q-3 14 -21 28zM669 1428q3 -105 62 -196q-2 105 -62 196zM596 1344l-10 -42l31 -28q-2 38 -21 70zM513 1035l-10 -42h21l10 42h-21zM638 965l-21 -71 l31 -14l11 70zM659 838l10 -56l31 14q0 32 -21 56zM814 838l-10 -42l31 -14q-5 31 -21 56zM814 641q31 -56 83 -84zM742 473l-11 -57l31 -14l11 71h-31zM202 276l10 -42l11 42h-21zM264 192v-28l21 14zM700 164l10 -15l32 29l-32 14zM228 1307q2 -106 62 -197 q-3 105 -62 197zM155 1222l-10 -42l31 -28q-3 39 -21 70zM72 913l-10 -42h20l11 42h-21zM196 843l-20 -70l31 -14l10 70zM217 716l11 -56l31 14q0 32 -21 57zM373 716l-11 -42l32 -14q-6 32 -21 56zM373 520q31 -56 83 -85zM932 -114q51 28 83 84zM994 110l31 14l-10 42 q-16 -24 -21 -56zM1149 180q-20 -24 -20 -56l31 -14l10 56zM1170 279l11 -71l31 15l-21 70zM1295 363l10 -42h21l-11 42h-20zM1212 602l31 28l-11 42q-18 -31 -20 -70zM1098 560q59 91 62 197q-60 -92 -62 -197zM995 1179q-10 18 -28 21q11 -18 28 -21zM995 1013 q32 -26 70 -31l-56 104q25 18 28 41l-28 11l-42 -11zM1009 1324l71 21l-29 31l-70 -31q14 -18 28 -21zM1037 1439q-10 18 -28 20q14 -18 28 -20zM1333 1065q-92 60 -197 62q91 -59 197 -62zM1290 1179l-28 31l-42 -10q32 -18 70 -21zM1412 1621l-28 31l-42 -11 q31 -18 70 -20zM241 1938l-28 53l-42 -18q31 -30 70 -35zM120 1194l-29 52l-42 -17q32 -31 71 -35zM162 1001q-92 101 -197 105q91 -100 197 -105zM-133 1631q-10 31 -28 35q14 -30 28 -35zM-161 1439l70 35l-28 52l-70 -52q14 -31 28 -35zM-175 914q32 -44 70 -53l-56 175 q25 31 28 70l-28 18l-42 -18zM-175 1194q-11 30 -28 35q10 -31 28 -35z" />
<glyph unicode="4" horiz-adv-x="1030" d="M657 1808l150 -14q62 -3 129 -42q-3 -95 -22 -197l11 -197q-8 -98 -32 -197l21 -141l-10 -56l-22 -56l22 -127l96 -98l11 -197q-30 -67 -75 -127l-86 14q-19 -18 -21 -42q32 -56 53 -141l-21 -112l21 -43q-56 -70 -139 -70l-139 29l-43 41l43 254l-11 42l11 84l-54 -42 l-268 -42l-42 28l-86 -42q-75 3 -129 84q-16 81 -21 183l43 169l96 127l64 140q43 53 86 127l97 127q10 81 42 154q30 71 75 141l54 127zM614 1569l-53 -169l43 -42q-8 -49 -32 -98l-43 -155l-64 -141q-33 -67 -86 -127l-75 -140l107 -57l107 29l32 -29l97 113l-22 113 l86 14l-22 42q-26 28 -42 84l53 28l-53 141l-11 155l-22 42l22 127q24 17 43 56zM743 1541q-29 -46 -32 -98l-22 -127q3 -18 22 -28q32 49 53 126l-10 29l21 70zM711 1246l-11 -57l32 -14q0 39 -21 71zM475 1203q14 -28 43 -28zM700 739q-21 -74 -64 -141l-22 -84l43 -14 l11 14q32 63 96 112q-21 64 -64 113zM839 669v-29l22 14zM818 598h21v28h-10zM465 584q2 -17 21 -28q-3 18 -21 28zM240 570q5 -60 21 -113l64 71zM689 514l54 -71q-19 46 -54 71zM743 415l-11 -56q22 -25 32 -28l11 70zM657 331l32 -28q-8 21 -32 28zM329 272 q-21 -74 -64 -141l-22 -84l43 -14l11 14q32 63 96 112q-21 64 -64 113zM468 202v-29l22 14zM447 131h21v28h-10zM93 117q3 -17 22 -28q-3 18 -22 28zM-131 103q5 -60 21 -112l65 70zM318 47l54 -70q-19 45 -54 70zM372 -51l-11 -57q22 -24 32 -28l11 71zM286 -136l32 -28 q-8 21 -32 28zM178 1399l32 -28q-8 21 -32 28zM263 1484l-10 -57q21 -24 32 -28l10 71zM210 1582l53 -70q-19 46 -53 70zM112 1306q5 -60 21 -113l64 71zM-15 1653q3 -18 21 -29q-3 18 -21 29zM338 1667h22v28h-11zM360 1737v-28l21 14zM220 1807q-21 -74 -64 -140l-21 -85 l43 -14l10 14q32 63 97 113q-22 63 -65 112zM1063 1765q-30 -101 -32 -218l-22 -280q3 -39 22 -62q32 109 53 280l-10 62l21 156zM1031 1112l-11 -125l32 -31q0 86 -21 156zM417 799l-11 -56q21 -25 32 -28l11 70zM589 1113l-10 -57q21 -24 32 -28l11 71z" />
<glyph unicode="5" horiz-adv-x="1136" d="M813 1811q49 -20 79 -82l46 -137l-54 -107l-11 -68l-205 27l-71 -43l-35 14l-238 -28l-68 -123l-69 -13l12 -68l148 13l68 -41l34 28l136 27l80 -27l34 27l91 -82l113 -55q32 -46 46 -109l57 -314l-46 -205l23 -14l-11 -27l11 -27l-80 -96q-21 -66 -56 -123l-91 -82 l-125 -41q-60 -6 -125 -40l-125 13l-125 41q-58 30 -125 41l-103 68q-36 39 -45 96l-22 232l67 109q54 0 114 -27l91 -82q58 -30 125 -41q52 -38 114 -55q61 11 125 41l90 69l-34 259q-46 43 -102 68l-114 55q-43 40 -68 109q-29 57 -79 96q-31 -21 -46 -68h91l-11 -55 q3 -33 23 -68l-23 -28q-60 -29 -125 -41l-102 -13l-35 13l-56 137l-23 41l34 82l-11 109l11 28q25 60 34 136q-11 45 -11 109l11 28l23 41l-23 95q5 67 46 123l136 27l125 -13l148 13l125 -13l57 13q61 5 125 28zM506 1606q15 -28 45 -55q-8 37 -45 55zM369 1538 q8 -35 34 -41q-10 23 -34 41zM460 1510v-27l23 14zM153 1374q10 -46 46 -69q-10 48 -46 69zM85 991v28h-11zM778 1005v-27l23 13zM540 991l-12 -54l46 41zM778 868q2 -37 23 -82v69zM722 732l-12 -109l23 -41l34 13q8 46 11 110zM142 404q4 -37 23 -68l11 41zM381 308 l-12 -68l23 -54l57 -14q-22 70 -68 136zM540 308q3 -17 22 -27l12 14zM676 199l-11 -41l34 -13l11 54h-34zM460 131l12 -55l34 41q-4 14 -23 28zM494 1279v28h-11zM1187 1293v-27l23 13zM949 1279l-12 -54l46 41zM1187 1156q2 -37 23 -82v69zM1131 1020l-12 -109l23 -41 l34 13q8 46 11 110zM-119 917v-28l23 14zM-119 780q1 -38 23 -82v68zM-22 71l-12 -108l23 -41l33 13q9 46 12 109zM-176 509l-11 -109l23 -41l34 14q8 46 11 109zM-58 1772l-11 -250l23 -94l34 31q8 105 11 250zM503 799q33 -62 101 -121q-18 82 -101 121zM200 647 q18 -76 76 -91q-23 53 -76 91zM402 587v-61l50 30zM1221 579l-57 14l-45 -27l-12 -69q59 27 114 82zM1221 388q-15 -4 -23 -27l12 -14zM1130 224l-34 14l-11 -41l45 -14v41zM1073 484l-45 -14l34 -41q11 5 23 28z" />
<glyph unicode="6" horiz-adv-x="1005" d="M749 1812q62 -36 126 -98l31 -70q-8 -60 -31 -126q-58 -41 -115 -98l-115 -99q-52 -53 -104 -126q-35 -70 -84 -140l-21 -98h73l53 14q-32 39 -42 98l156 28l146 -14l21 -14q66 -23 126 -98q40 -75 73 -169l-11 -182q-2 -99 -31 -224l-146 -323q-54 -52 -125 -98 q-68 -37 -157 -56l-157 14l-125 42q-45 56 -104 112q-40 74 -73 168l-42 211q1 88 21 196q2 106 73 182q5 93 31 183q31 73 52 168l73 155l105 126l83 140zM384 1364q3 -19 21 -29q-2 19 -21 29zM426 1209q3 -18 21 -28q-3 19 -21 28zM321 887l-20 -43l10 -28l31 14 q0 31 -21 57zM426 844l-42 -140q-2 -72 -21 -154l-52 -112q28 -23 63 -28l41 -71l-20 -42l41 -56l21 14l52 -28l21 14l115 42q40 29 73 84l52 99q4 63 32 126l-42 126q-41 30 -94 42h-136l-83 -28q-12 3 -21 28q16 30 21 70zM843 788l-10 -84l73 28zM238 718 q-29 -64 -42 -140l52 -14q20 41 32 98q-13 28 -42 56zM165 424v28h-11zM697 129l11 -42l10 42h-21zM245 1859q4 -18 21 -28q-2 18 -21 28zM287 1704q3 -18 21 -28q-2 19 -21 28zM183 1382l-21 -42l10 -28l32 14q-1 30 -21 56zM705 1284l-11 -85l73 28zM99 1213 q-28 -64 -41 -140l52 -14q20 41 31 98q-12 28 -42 56zM26 919v28h-10zM773 56q3 -18 21 -28q-2 19 -21 28zM815 -98q3 -18 21 -28q-2 19 -21 28zM572 74l-21 -42l11 -28l31 14q-1 31 -21 56zM466 677l-11 -84l73 28zM489 -93q-29 -65 -42 -141l52 -14q20 41 31 98 q-12 29 -41 57zM950 1783l-11 -84l73 28zM936 1455q-45 -99 -64 -216l80 -21q30 63 48 151q-19 43 -64 86zM-24 113q-3 -115 22 -230l77 33q4 75 -12 163q-32 26 -87 34z" />
<glyph unicode="7" horiz-adv-x="1076" d="M571 1804l151 -14l33 -14l141 28q48 -55 86 -140l-32 -181q-34 -84 -87 -168q-6 -100 -32 -209q-44 -67 -44 -154l-119 -377l-54 14l44 -97q-42 -84 -65 -182l-54 -195q-17 -83 -87 -125l-173 -42q-65 28 -87 125l390 1256l-11 84l-97 -14q-55 33 -109 84 q-17 -79 -86 -112l-98 28l-32 -28l-108 -14l-22 70l-11 139l22 42l-11 112q32 30 76 56l76 -28q36 18 86 28l119 -28q15 18 43 28q70 3 152 28zM430 1678l-32 -42q30 7 32 42zM636 1664q9 -41 43 -70q-11 41 -43 70zM311 1608l-21 -55l10 -28l33 28l32 55h-54zM820 1580 q-81 -25 -152 -97l-21 -98l54 -28l21 14q16 46 22 112l76 14l22 -14l43 14q-24 40 -65 83zM560 1455l11 -14l32 28l-32 14zM690 1273l-43 -55l54 -28l32 55zM614 1078q6 -56 44 -98q-8 57 -44 98zM603 924l-43 -27l65 -98l22 42q-16 43 -44 83zM517 603l-22 -55l11 -28 l43 14q-4 39 -32 69zM365 352q5 -27 22 -42zM172 444l41 33q-35 -2 -41 -33zM304 1146q29 -34 70 -44q-29 32 -70 44zM144 412l-56 -33l-28 -32l28 -11l56 22v54zM206 1351l-14 -43l14 -22l-14 -75q-66 -6 -111 -22l-14 -22l28 -54l97 22q73 71 98 151q-43 42 -84 65z M192 1037l-14 33l-28 -33l14 -10zM474 1307l-56 -33l28 -54l56 43zM1129 526l-56 32q9 -30 56 -32zM1110 320q-55 -9 -94 -43q55 11 94 43zM1035 645l-75 21l-38 -10l38 -33l75 -32v54zM997 136q-34 81 -131 152l-132 21l-38 -54l19 -21q61 -16 151 -22l18 -76l-18 -22 l18 -43q55 24 113 65zM828 396l-19 -11l38 -32l19 32zM1067 1466q6 -71 55 -124q-9 72 -55 124zM235 914l-73 -47l109 -164l36 70q-26 73 -72 141zM943 862l-28 -72l14 -35l55 18q-5 50 -41 89zM1048 1256q13 -71 106 -124q-18 72 -106 124zM1022 1061l-106 -36l158 -124 l53 53q-38 55 -105 107zM125 731l-42 33q7 -30 42 -33zM111 526q-41 -10 -70 -43q41 11 70 43zM55 851l-55 21l-28 -11l28 -32l55 -33v55zM79 17q6 53 -66 124l-97 21l97 -97l-17 -48l-14 -21l14 -43q40 23 83 64zM-15 249l-14 -11l28 -32l14 32zM4 650q-71 -7 -124 -55 q72 9 124 55zM-109 1780l-21 -56l11 -28l43 14q-4 40 -33 70zM-88 1418l-22 -56l11 -28l32 28l33 56h-54z" />
<glyph unicode="8" horiz-adv-x="1075" d="M528 1809l105 -27l32 13h31q69 -14 137 -54q69 -36 137 -95l63 -177q-4 -98 -21 -204l-42 -177q-56 -48 -126 -82l-11 82q-28 -6 -42 -54q7 -38 42 -55l-42 -41q56 -33 116 -81l84 -150l32 -217l-32 -177l-84 -136l-116 -123l-147 -27q-64 -49 -158 -54l-105 27l-32 -27 l-158 41q-49 51 -84 136q-53 65 -95 149l11 218q2 99 52 190q39 65 106 109q33 37 52 95l-52 27l-85 150l-42 177q26 94 32 217q37 73 95 150l115 109l106 27l42 -14q43 19 84 55zM275 1632l21 -14l11 28l-21 13zM391 1605l-10 -41h21l10 41h-21zM644 1578q15 -53 42 -96 q-9 54 -42 96zM770 1578q2 -19 21 -28q-3 14 -21 28zM770 1523q9 -19 32 -27q-9 20 -32 27zM307 1496l-11 -54l42 27zM770 1469q9 -19 32 -27q-9 19 -32 27zM602 1442l-179 -55q-55 -63 -74 -163l21 -109l-32 -27v-41h11q22 28 53 41q3 -63 21 -122q68 77 168 95 q74 32 126 122q25 89 32 191q-63 65 -147 68zM265 1414l-21 -68l63 -13q-8 45 -42 81zM212 1238q9 -20 32 -28zM823 1210v28h-11zM623 898v-28l21 14zM675 762l-158 -28l-31 14q-74 -29 -148 -82l-42 -95q4 -58 21 -109q32 -82 95 -163l158 55h158l32 27l-43 13l-10 55 l21 272zM844 707q3 -17 21 -27q-3 18 -21 27zM128 585l-11 -68l21 -14l11 68zM844 490q4 -27 21 -41q-4 27 -21 41zM275 367q8 -28 32 -41q-9 28 -32 41zM86 326q9 -26 31 -40q-8 27 -31 40zM560 190l-64 -122l42 -14l64 68q-14 39 -42 68zM391 82q2 -19 21 -28 q-3 14 -21 28zM1088 1268l21 -14l11 27l-21 14zM1204 1241l-10 -41h21l10 41h-21zM1120 1132l-11 -55l43 28zM1078 1050l-21 -68l63 -13q-7 44 -42 81zM1025 873q9 -19 32 -27zM-168 261q9 -39 31 -54zM-116 612l-21 -135l63 -27q-7 89 -42 162zM-74 774l-10 -108l42 54z M10 990l-10 -81h21l10 81h-21zM-105 1044l21 -27l10 54l-21 27zM1300 283q-28 -7 -40 -31q27 9 40 31zM1260 473q-27 -9 -41 -32q27 9 41 32zM1124 0l-123 62l-13 -42l68 -62q38 13 68 42zM1015 168q-19 -3 -27 -21q13 3 27 21zM456 676q-19 -2 -27 -21q13 3 27 21zM565 507 l-123 64l-13 -43l68 -63q38 14 68 42zM701 981q-27 -9 -41 -31q27 8 41 31zM742 792q-29 -8 -41 -32q27 9 41 32zM508 1530l21 -13l11 27l-21 14zM624 1503l-11 -41h22l10 41h-21zM540 1394l-11 -54l42 27zM498 1313l-21 -68l63 -14q-8 45 -42 82zM445 1136q9 -19 32 -27z M86 1831q-9 19 -31 27zM33 1654l22 68l-63 14q7 -45 41 -82zM-8 1573l10 54l-42 -27zM-92 1464l10 41h-21l-10 -41h21zM23 1437l-21 13l-10 -27l20 -14z" />
<glyph unicode="9" horiz-adv-x="981" d="M350 1807h81l80 -26l41 26l90 -26l131 -65l81 -117q28 -60 40 -143l41 -169l-21 -208l-40 -170q-19 -77 -60 -156l-61 -130l-80 -130l-61 -143l-181 -209q-35 -66 -81 -130l-30 -51l-81 26l-90 116l-20 144l10 52q58 29 111 78l60 -13l30 91l151 247q-71 13 -161 13 l-131 26q-53 44 -101 104l-70 130q-3 83 -20 183q4 78 20 169l50 169l161 234q55 27 111 78zM441 1599l70 -65q-25 45 -70 65zM401 1482q-63 -64 -111 -156l-10 -143l10 -39l20 -39q14 -106 111 -118l90 13l71 -65q-8 28 -30 39l60 118q24 92 30 195q-3 90 -70 169z M260 1469l-10 -39h20v39h-10zM783 1430q3 -29 21 -52q-3 29 -21 52zM119 1404l-11 -39h21v39h-10zM673 1365q3 -17 20 -26q-2 17 -20 26zM793 1352l-30 -65l51 -26l30 78zM219 1339q11 -20 31 -26zM129 1079q3 -17 20 -27q-2 18 -20 27zM703 987l-30 -39l20 -26l40 39 q-8 19 -30 26zM783 961q1 -35 21 -65l10 65h-31zM199 948q8 -27 30 -39q-8 26 -30 39zM300 948q8 -31 30 -52q-4 35 -30 52zM521 948q-18 -17 -40 -52q30 9 40 52zM612 909q4 -29 20 -52l20 52h-40zM532 779q8 -39 40 -65q-11 38 -40 65zM713 779q4 -38 30 -65q-4 40 -30 65 zM12 748q1 -41 20 -75l10 56zM96 673q-101 -30 -175 -75l131 -37l175 74zM231 644q3 -17 21 -26q-3 18 -21 26zM806 553l-31 -39l21 -26l40 39q-8 19 -30 26zM886 527q1 -35 20 -65l10 65h-30zM302 514q8 -27 30 -39q-8 26 -30 39zM-137 516q9 -45 31 -75q-4 49 -31 75z M-26 206q-19 -25 -41 -75q30 12 41 75zM64 150q4 -43 20 -75l20 75h-40zM634 345q9 -40 41 -65q-11 38 -41 65zM816 345q4 -39 30 -65q-4 40 -30 65zM813 241q4 -28 56 -52l27 39zM675 189q-64 -32 -111 -78l83 -39l111 78zM345 1352l-21 -115h42v115h-21zM42 1784 q3 -29 20 -52q-2 29 -20 52zM930 1804l-21 -114h42v114h-21zM-68 1719q3 -17 20 -26q-2 17 -20 26zM52 1706l-30 -65l51 -26l30 78zM867 734q108 -277 295 -358zM335 1174q4 -28 55 -52l28 39z" />
<glyph unicode=":" horiz-adv-x="569" />
<glyph unicode=";" horiz-adv-x="569" />
<glyph unicode="&#x3c;" horiz-adv-x="1196" />
<glyph unicode="=" horiz-adv-x="1196" />
<glyph unicode="&#x3e;" horiz-adv-x="1196" />
<glyph unicode="?" />
<glyph unicode="@" horiz-adv-x="2079" />
<glyph unicode="A" horiz-adv-x="1202" d="M700 1799q79 -28 169 -81q26 -92 36 -188l48 -175l24 -201q50 -80 61 -189l24 -134q-29 -4 -60 -27q54 -25 108 -81l-60 -148q94 -1 121 -107q19 -78 24 -175q37 -66 60 -161q-12 -86 -84 -134l-121 -14l-48 14h-25v-14q-78 48 -96 161q-19 74 -24 175l-109 27l-36 -27 l-157 27q-12 -4 -24 -27q-65 -45 -121 -121l-48 -108l24 -67q-52 -68 -145 -94q-80 7 -169 41l-72 53l109 256q16 87 48 188l60 188l73 148l24 175l48 175q27 82 72 174q11 87 61 189q15 97 48 201zM652 1665q26 -23 60 -27zM796 1463l-36 -67l49 -14l24 27q-10 28 -37 54z M652 1436l-73 -121q15 -60 61 -108q0 -74 -25 -148l-36 -121l-24 -174q-31 -65 -48 -135l-36 -67l36 -27q46 41 108 81l145 -27l12 148q-5 61 -24 134l-36 148l36 94l-24 41q-20 53 -24 121q-45 25 -72 67l48 54q-5 27 -24 40zM495 1275q13 -21 36 -27q-10 19 -36 27z M626 793q-40 -65 -61 -148l49 13q41 50 72 121zM369 1505q-36 -54 -85 -107l49 -54l84 148zM917 777q3 -18 24 -27q-2 18 -24 27zM784 589q35 -34 73 -40q-33 28 -73 40zM663 161q-43 -48 -108 -94q22 -36 60 -40l73 -40l24 40q-6 71 -49 134zM74 1031l8 88l94 -7l116 59 l-57 47q-78 -5 -164 -46l-54 -47zM1074 374l-12 -68l36 41q-4 13 -24 27zM1073 1601q-39 -66 -60 -148l48 13q42 50 72 121zM917 522q-44 -49 -108 -94q22 -36 60 -41l72 -40l24 40q-5 71 -48 135zM323 475l36 -81l-84 -40l-72 -108l72 -13q66 42 121 121l24 67zM833 1127 q-40 -66 -61 -148l49 13q41 50 72 121zM1245 910l-84 148l-49 -54q49 -53 85 -107zM422 858q-35 -55 -84 -108l48 -54l85 148z" />
<glyph unicode="B" horiz-adv-x="1138" d="M412 1799l139 -27l32 14l322 13q4 -13 22 -27l139 -80l43 -175l11 -134l-21 -40q-1 -94 -22 -202l-75 -134q-54 -47 -97 -121q28 -55 86 -67q51 -49 97 -121v-416l-86 -148q-64 -41 -150 -67l-129 -40l-32 13q-71 -4 -140 -40h-515l-53 54l11 121q31 71 42 161l-11 53 l32 269l-10 80l43 202l-33 67l33 107l21 188q3 74 65 108q-64 47 -65 147l-21 67q19 47 53 94l151 68l96 -41zM632 1692q3 -18 22 -27q-3 18 -22 27zM471 1665q36 -34 86 -54q-36 34 -86 54zM654 1638l-22 -67q24 12 43 40zM1019 1557q3 -17 21 -27q-3 14 -21 27zM471 1477 q-64 -55 -161 -81q8 -84 86 -107q-6 -77 -32 -161l32 -41l32 -67l161 14q98 14 204 67q41 110 54 255q-58 86 -161 121l-107 -27zM944 1477l-22 -81q23 18 43 54q-4 13 -21 27zM214 1463l-11 -67l11 -27l53 27q-17 42 -53 67zM922 1369q3 -17 22 -26q-3 17 -22 26zM922 1316 q2 -36 22 -67l10 40zM321 1181l-11 -53l22 -14l21 41zM278 993q9 -24 32 -26zM729 886l-22 -80h86l11 80h-75zM257 819q-41 -38 -76 -94q42 -35 86 -40l75 -81l22 -40l-32 -108l-22 -40l32 -94l33 -27l75 54l32 -13l75 13h32l236 67l-10 108l21 26l-43 135q-50 35 -86 94 l-268 -27l-118 -54q-22 59 -64 121zM879 725q29 -34 65 -40q-28 28 -65 40zM933 537l-65 -134h43q34 52 54 121zM426 536q2 -74 32 -148q-2 73 -32 148zM740 215l21 -14l11 27l-22 14zM418 201l-22 -80l32 -27l11 81q-4 13 -21 26zM622 161h21v27h-11zM639 712 q54 -42 124 -59q-53 42 -124 59zM708 1417q2 -74 33 -148q-3 74 -33 148zM149 316q2 -74 32 -148q-2 73 -32 148zM471 1396l-22 -80l32 -27l11 80q-4 14 -21 27zM47 1363l-22 -81l32 -26l11 80q-3 13 -21 27zM1070 118l-21 -80h86l10 80h-75zM1025 950l54 -26l63 97l-62 14z M31 923l-21 -81q22 18 43 54q-4 13 -22 27zM149 1841l-22 -81q23 17 43 54q-3 13 -21 27zM1164 1707l-10 -67l10 -27l54 27q-18 42 -54 67zM-80 407l35 -56l25 -9l20 62q-39 15 -80 3zM974 24l-127 -51l32 -33q56 14 111 50z" />
<glyph unicode="C" horiz-adv-x="1130" d="M752 1796q94 -17 201 -70q82 -37 153 -124l-12 -194q-32 -101 -118 -167q-72 62 -177 97l-59 42q-62 -6 -129 -28q-9 56 -36 111l-11 -69q-42 -86 -130 -139q-29 -96 -94 -194q-19 -101 -59 -222l70 -221q24 -94 95 -181q28 -40 70 -83l95 14l106 -14l271 83l12 -41 q33 -117 35 -264q-58 -75 -153 -124q-90 -30 -212 -41l-130 14q-24 -30 -59 -42l-94 69l-189 83l-177 360l-35 222l35 139l-23 97l23 207q19 100 83 208q18 95 59 194l118 167l389 83l-12 -56l59 -27zM764 1629l-24 -55l59 14q-10 27 -35 41zM540 1546v28h-12zM245 1532 l24 -14l12 42h-24zM446 1463q29 -51 82 -83q-29 47 -82 83zM304 1421q14 -21 36 -27q-10 20 -36 27zM245 1089l59 -42q-24 30 -59 42zM104 853q19 -40 59 -69zM68 687l12 -42v42h-12zM175 493l-12 -83l47 -28l23 14l12 97h-70zM516 326q4 -18 24 -27q-3 18 -24 27zM198 285 l35 -14l12 42h-23zM670 257l11 -97q-22 -41 -23 -97q38 35 59 97q-5 58 -47 97zM422 216l-23 -56l58 -28q-1 48 -35 84zM387 865l-24 -55l59 -28q-1 47 -35 83zM738 1277l-24 -55l59 -28q-2 47 -35 83zM-24 1332l-24 -55l58 -28q-1 47 -34 83zM1100 1752l-24 -56l59 -28 q-1 48 -35 84zM1128 1456l12 -97q-22 -41 -23 -97q38 35 59 97q-5 58 -48 97zM157 1634l55 74q42 7 78 42q-47 11 -101 -10q-35 -42 -32 -106zM107 -83l55 73q42 7 78 42q-47 11 -101 -10q-34 -41 -32 -105zM23 180l-12 -83l47 -28l24 14l11 97h-70zM822 586l-88 -75l5 -69 l30 -6l100 89zM1077 63l-11 -82l47 -28l23 14l12 96h-71zM-5 1811l46 -64l48 24l6 30l-55 73zM492 1183l-23 -56l59 14q-10 28 -36 42zM942 537l-23 -56l59 14q-10 28 -36 42zM58 1488l24 -14l12 41h-24zM678 1735l23 -14l12 42h-23zM888 917l24 -14l11 42h-23zM593 525 l24 -13l11 41h-23zM482 635l24 -13l11 41h-23zM532 464l23 -14l12 41h-24zM440 866l104 -109l57 3l-9 35l-122 125zM1110 473l-48 -112l120 -56q-4 95 -72 168zM859 1110l70 51l-97 91q-19 -64 27 -142z" />
<glyph unicode="D" horiz-adv-x="1148" d="M179 1795l335 -55l36 27l107 -27q64 -35 144 -55l95 -109q54 -35 96 -109l107 -109l36 -164l12 -219l-24 -177l24 -55q-20 -46 -36 -109q-16 -66 -48 -137q-20 -75 -59 -150l-72 -137q-52 -46 -119 -82l-120 -54l-311 -82q-41 27 -95 27l-167 -27q-53 18 -108 54l-12 41 l24 69l-12 54l-12 137l24 41q0 80 24 164q-19 71 -24 164l36 95q-25 11 -36 41l24 41l-24 123l48 96l-24 41l24 191l-24 178q2 79 24 177q37 60 107 96zM681 1590l-12 -55l36 28q-4 13 -24 27zM418 1549q4 -18 24 -27q-2 18 -24 27zM227 1440q-25 -19 -48 -55l72 14z M371 1412q-37 -81 -60 -177q27 -33 48 -82q-10 -45 -12 -110l12 -204l-48 -110l24 -41q9 -46 12 -109l-48 -82q18 -73 24 -164l179 14l155 41l156 314l23 328l-23 54l12 164q-67 35 -132 96l-155 68l-48 -13zM705 1412l84 -68l24 -41l59 41q-1 46 -36 68l-35 -13zM132 1071 l-12 -41l24 -14l23 41zM968 962q18 -51 72 -82q-4 64 -72 82zM956 798v-28l24 14zM167 770q5 -26 24 -41q-4 28 -24 41zM132 538l23 -41q-4 27 -23 41zM932 347l24 -14l12 28l-24 13zM203 320q-55 -37 -107 -96l95 14v-82q12 -31 36 -55l24 55v27h-12q-8 71 -36 137z M1173 1551q-56 -36 -108 -95l96 13v-82q11 -30 36 -54l24 54v28h-12q-8 71 -36 136zM1150 342q-71 -85 -127 -186l142 102l34 -72q30 -17 78 -15l15 71l-12 24l-18 -11q-42 56 -112 87zM381 1365q18 -50 72 -82q-4 64 -72 82zM359 409l102 -15l38 -23l36 69q-20 39 -60 40 l-26 -31zM619 -34l102 -15l38 -23l36 68q-20 39 -60 40l-26 -31zM362 1301l-12 -41l24 -14l24 41zM1150 191q-25 -18 -48 -54l72 13zM708 1262q18 -50 72 -82q-4 64 -72 82zM408 750q-28 -44 -23 -113q46 37 23 113zM5 1331q-27 -44 -23 -113q46 37 23 113zM-92 1736 q30 -81 116 -133q-6 104 -116 133zM877 1793l-12 -54l36 27q-4 14 -24 27zM1186 859l-12 -55l36 28q-4 13 -24 27zM-31 675l17 204l-64 -70l-12 -247l47 40zM1168 442l99 171l-86 -28l-112 -211l58 10zM906 34l131 12l-57 62l-157 -25l35 -47zM790 864l18 149l-65 -51 l-13 -180l48 28zM430 1121l-47 28l12 -180l66 -50l-19 148z" />
<glyph unicode="E" horiz-adv-x="1160" d="M1047 1798q53 -40 96 -97l-24 -167q-12 -58 -48 -111l-95 -28l-36 14h-167l-35 -28q-40 19 -96 28h-178l-95 28l-36 -14l-60 -56q5 -23 24 -41l95 14l12 -70l-23 -111l11 -42q30 -26 72 -27l59 -14q-25 -27 -47 -70q11 -31 35 -55l24 69q52 41 119 70l108 13l35 -13 l131 13q35 -44 60 -111l24 -41l-12 -98l-84 -111l-143 28l-262 -28l-166 56l-24 -111l12 -42l36 -55l-48 -42l36 -97l-24 -42l-60 -69l36 13l95 -27h36v14q34 24 83 41l36 -28l298 42l143 -14q54 -35 95 -97q-16 -72 -24 -167q-20 -56 -59 -111l-108 14l-35 -27l-36 -14 l-250 27l-72 -41l-35 28q-41 -17 -95 -28l-36 28q-28 32 -72 55v-55l-119 -42l-107 -14l-24 42q-11 31 -35 69l23 55l-11 167l47 139l60 56h-60l-36 41l36 84q-18 67 -24 138l72 264v42h-12q-10 72 -12 167l12 194l-12 153q20 57 24 125l59 97l250 -56q12 4 24 28l36 28 l71 -42q63 29 143 42l95 -28l36 28l83 -28l36 28q55 3 119 28zM476 1659l-12 -70l24 -13l12 69zM345 1631q10 -20 36 -28q-10 21 -36 28zM642 1617l12 -41l12 41h-24zM762 1603l130 -55q-57 37 -130 55zM500 1576l-12 -42h23zM273 1006l-71 -153h71q33 47 60 112zM750 951 q10 -26 35 -28q-9 20 -35 28zM500 895l-36 -14l24 -55l35 41q-2 19 -23 28zM226 576l12 14l-36 13q5 -13 24 -27zM142 409l-23 -42l12 -27l59 13q-13 36 -48 56zM238 326l-24 -56q22 23 24 56zM452 284l-24 -111q4 -18 24 -28q17 46 24 111zM952 284q5 -27 24 -42 q-4 28 -24 42zM928 215q4 -18 24 -28q-3 18 -24 28zM678 187l-36 -56q34 16 36 56zM785 103l12 -27l36 27q-4 14 -24 28zM398 514l-24 -111q3 -18 24 -28q17 47 23 112zM1055 1386l-36 -14l24 -56l35 42q-2 18 -23 28zM1089 48l-72 -152h72q32 47 59 111zM1142 444l-129 87 l-2 -84q40 -39 94 -72zM496 674l-130 87l-1 -83q39 -39 94 -72zM311 -38l-24 -41l12 -28l60 14q-13 35 -48 55zM-40 1701l46 -70l46 8l13 124q-58 -6 -105 -62zM14 1026l-24 -41l12 -28l59 14q-13 35 -47 55zM416 1235l-12 -69l24 -14l12 69zM589 447q10 -26 36 -28 q-10 20 -36 28zM844 668l-24 -111q4 -18 24 -28q17 46 24 111zM618 1170l24 111q-4 18 -24 28q-17 -47 -24 -111zM870 1157q52 74 76 142q-29 15 -49 1l-76 -143h49z" />
<glyph unicode="F" horiz-adv-x="1077" d="M981 1847l152 -13l11 -70l-11 -13v-222l-24 -41l-175 -28l-246 28l-222 -28l-58 -55l11 -153l-35 -221l47 -28l176 56l105 -28q36 34 93 55l47 -27l117 27l12 -55q20 -47 35 -111l-24 -124l-58 -69l-129 27q-114 -26 -245 -27q-93 15 -187 96l11 -262l-11 -194l11 -42 v-55q-10 -113 -46 -235l-117 -55q-42 6 -82 27q-59 23 -117 69l23 97l-11 111l23 111l94 13q-14 30 -47 56l-59 193q13 109 59 222q-10 75 -35 152l58 69l-23 152l12 180l-12 42l23 41l-11 222l23 41q98 25 222 28l47 -28l117 28l23 -14l94 -14l35 14l35 28l23 14l12 -14z M665 1668q-3 18 -23 27q4 -14 23 -27zM747 1668l-35 -97l35 -28l12 97v28h-12zM314 1640q2 -30 24 -56q-1 30 -24 56zM244 1557l-23 -42l47 -14q-3 31 -24 56zM186 1418l-24 -55l59 14q-11 24 -35 41zM326 1391l-12 -42l24 -14l11 42zM221 1003q18 -24 47 -27zM653 920 l-11 -41l35 -14l11 41zM197 893q-29 -47 -35 -111q42 30 94 41l47 -27l11 55l-11 28zM232 533q19 -59 59 -111q-14 62 -59 111zM471 679q-29 -47 -35 -111q41 30 94 42l46 -28l12 56l-12 27zM951 1442q-43 -23 -51 -57q60 11 136 11l69 -21l17 30l-17 17zM433 127l-24 -56 l59 14q-11 24 -35 42zM377 17q-43 -22 -51 -57q60 11 136 12l69 -22l17 30l-17 17zM14 1213q21 -43 56 -53q-10 61 -7 137l23 67l-28 19l-18 -17zM86 1658l-35 -97l35 -28l12 97v28h-12zM619 -249l-23 -56l58 14q-10 24 -35 42zM551 1373q2 -30 24 -56q-1 30 -24 56z M500 1170l-12 -41l23 -14l12 42zM793 573l-11 -41l23 -14l12 41zM723 1304q19 -59 59 -111q-14 62 -59 111zM576 299q19 -59 59 -110q-14 62 -59 110zM650 1444l-12 -41l23 -14l12 41zM911 392l16 33l104 43l-64 -83l20 -37zM872 16l-33 17l-44 103l84 -63l36 20zM13 1807 l16 33l104 44l-64 -84l20 -36zM1123 126q-47 29 -111 35q30 -42 42 -94l-28 -47l55 -11l28 11zM-120 499l36 -21l84 64l-44 -104l-33 -16zM850 1223l37 -20l84 63l-44 -103l-33 -17zM56 18l-20 -36l63 -84l-102 44l-17 33zM628 424l55 -24l-14 59q-24 -11 -41 -35z" />
<glyph unicode="G" horiz-adv-x="1168" d="M679 1806l95 -28l24 28l142 -28l118 -56l95 -83l35 -42l-24 -97l-11 -153l-107 -69q-54 18 -118 55l-83 98l-142 -28l-71 41q-12 -4 -24 -27l-118 -56l-106 -83l-48 -126q-35 -48 -94 -83l94 -56l-35 -111l-36 -69l48 -84l-24 -41l35 -153l131 -237l260 28l94 84l36 152 q0 57 -36 112q-51 -45 -118 -70q-51 21 -94 70l-24 125l47 139q38 37 95 55l154 -13l35 -28l71 41q60 -10 130 -41q31 -68 48 -153l-12 -125l12 -42q-35 -42 -48 -97q11 -74 12 -167q-11 -70 -35 -139l-71 -111q-45 -38 -107 -70l-106 -69q-64 -20 -142 -28l-130 -28 l-119 56q-62 8 -130 41l-83 84l-71 111q-40 49 -71 125l36 56l-47 41l-59 125l-12 112l24 41l-12 181l70 403q23 64 60 125l71 112l82 97l107 69l142 42l94 14l36 -28zM750 1667q11 -50 48 -84q-11 48 -48 84zM230 1556q12 -54 59 -84q-21 44 -59 84zM289 1542 q10 -20 35 -28q-9 20 -35 28zM159 1111q-37 -43 -47 -111q37 43 47 111zM265 902q-2 19 -23 28q4 -14 23 -28zM904 791l-35 -56l71 42zM230 777q6 -35 35 -56q-10 32 -35 56zM1034 569l-35 -56q34 14 35 56zM821 318q14 -87 95 -111q-33 62 -95 111zM502 207h24v28h-12z M679 235l-35 -56l95 14zM573 193q8 -27 35 -28zM360 110v28h-12zM361 720l-24 -55h71q-13 35 -47 55zM413 1194q-37 -42 -48 -111q38 43 48 111zM653 552l-36 -56l95 14zM1177 1243l-36 -56l95 14zM123 1597l61 77l-111 17l40 -44l-23 -150zM1016 53l-90 -38l89 -67l-15 56 l93 121zM528 497l-89 -38l88 -68l-14 57l93 121zM331 -10l-24 -56h71q-13 35 -47 56zM-22 447l-24 -56h70q-13 35 -46 56zM186 7l-35 -55l71 41zM23 214l-35 -56l70 42zM152 46q-37 -43 -47 -111q38 43 47 111zM1073 1201q-36 -43 -47 -111q38 43 47 111zM1241 1707 q11 -50 47 -83q-11 47 -47 83zM1182 475q13 -88 94 -111q-32 62 -94 111zM623 1560q6 -45 41 -69q-11 41 -41 69zM922 1525l-14 -52h27l14 52h-27zM501 1491q7 -59 54 -87q-12 54 -54 87zM780 1325l-14 -69l14 -34l40 69zM637 1404l-14 -120l54 34q-11 46 -40 86zM501 1266 q17 -39 54 -51zM501 1042q18 -61 68 -103q-24 62 -68 103z" />
<glyph unicode="H" horiz-adv-x="1148" d="M968 1807q57 -14 120 -55q28 -59 33 -139l-33 -305l11 -194l-11 -167l-33 -28l33 -83l-33 -430l11 -138l-11 -42l11 -139l-11 -41l-109 -55l-32 -28q-36 19 -87 28q-52 28 -88 83l11 124l33 139l-22 111l22 125q13 68 76 83q38 -17 87 -28l33 28q-25 32 -65 42l-33 -28 l-87 28q-39 51 -98 83l-87 -14l-33 14l-98 -42l-76 28h-22v-14q-36 -54 -55 -125v-208q-5 -86 -21 -180l-22 -42l32 -83l22 -41l-43 -83l-142 -28l-131 41l-32 42l43 249l-11 153l11 42l-11 97v235l22 181l11 41l-11 97v42q21 60 55 125q-24 72 -33 166l11 153q22 66 65 111 q50 38 109 55l142 -28l-22 -332l11 -42l-11 -125q-21 -70 -87 -97l76 -97l65 -28l33 42l142 28l76 -42l33 28q55 -24 98 -83q33 -34 76 -42l-33 97l33 28l-76 138l22 98l21 41q-10 51 -32 97q4 71 21 153q3 55 22 111zM184 1433l-33 -56l33 -28l32 70zM151 1280 q5 -27 22 -42zM162 1225q9 -49 44 -70q-15 41 -44 70zM216 1030q5 -36 33 -55q-8 33 -33 55zM456 1003l-11 -42h22l11 42h-22zM118 975q6 -47 44 -69q-10 43 -44 69zM325 919l-11 -55l11 -28l33 56zM1128 496l-11 -97l44 28q-9 37 -33 69zM118 795q14 -32 44 -42zM118 614 q15 -49 55 -83q-19 51 -55 83zM435 696l-33 -55l33 -28l33 69zM402 544q5 -28 22 -42zM413 488q9 -48 44 -69q-15 40 -44 69zM654 1398q4 -36 32 -56q-8 33 -32 56zM893 1370l-11 -42h22l11 42h-22zM556 1342q5 -47 43 -69q-10 43 -43 69zM763 1287l-11 -56l11 -28l32 56z M665 1273l-11 -97l43 27q-9 38 -32 70zM556 1162q13 -32 43 -42zM556 982q14 -50 54 -84q-19 51 -54 84zM407 305q-40 -65 -61 -148l49 14q41 49 72 121zM698 289q3 -18 24 -27q-2 18 -24 27zM614 639q-40 -65 -61 -148l49 14q41 49 72 121zM1026 422l-85 148l-48 -53 q49 -53 85 -108zM498 1574q39 65 60 148l-48 -14q-42 -49 -72 -121zM360 1151l99 128l-58 -144l54 -29l-46 -25zM632 68l100 128l-58 -144l53 -29l-45 -25zM1151 205l-33 -55l33 -28l33 69zM1151 808l-33 -55l33 -28l33 70zM21 1378l-95 -458l78 124zM628 1544l71 74 l78 -219l-87 108zM1108 552l70 74l78 -219l-86 108z" />
<glyph unicode="I" horiz-adv-x="633" d="M615 1828l108 -55l72 42l36 -28l12 -316l-48 -137l-60 -96q53 -18 60 -83q-3 -60 -24 -124q1 -66 24 -137v-110l-48 -14l24 -123l-12 -124l-36 -124l12 -110l-12 -41l12 -165l-84 -82l-95 -13l-36 27l-144 13l-36 69l24 41l36 124l12 330v137h-12l12 14l72 14l-24 55 q-16 71 -24 164l24 152l48 96q-33 53 -48 123l24 152l12 41q-9 47 -12 110q2 64 24 123zM338 1703q4 -95 72 -165l24 82q-39 44 -96 83zM364 847l-12 -41l12 -14q36 14 60 55h-60zM218 1565l-12 -41l12 -14l60 28zM256 696q-35 -88 -36 -206l24 -138q31 78 48 179l-12 96 q16 3 24 28l-12 41h-36zM264 1273v-28l24 14zM432 1149q-48 -51 -84 -123q74 26 84 123zM883 701q-25 -35 -36 -82l48 -14l36 69zM639 1059q-30 -26 -36 -69l60 28q-4 27 -24 41zM796 319l12 -110l-12 -42l24 -41q32 12 60 41l-24 97q26 0 48 27q-53 5 -108 28zM811 509 l-36 -69l60 -13l24 82h-48zM784 85l-12 -41h24v41h-12zM420 327l12 -110l120 -55q-4 40 -24 82zM636 709q10 -24 36 -27q-10 20 -36 27zM772 -38q4 -18 24 -28q-3 19 -24 28zM564 517l12 -82l36 -28q-2 68 -24 138q-12 -6 -24 -28zM685 891l-12 -42h24l12 42h-24zM472 427 q21 -31 60 -41q-25 29 -60 41zM971 407l-36 -41l48 -28l12 42zM1007 352l-12 -41h24zM1 256v27h-12zM426 730l12 -110l120 -55q-4 40 -24 82zM590 1677q-25 -26 -25 -60l17 -40q22 22 34 52l-9 28q12 1 17 8l-8 12h-26z" />
<glyph unicode="J" horiz-adv-x="890" d="M621 1801l121 -27q51 -9 109 -42q-8 -19 -11 -55q-5 -92 -32 -193q21 -88 32 -193l-21 -206l21 -55l-21 -124q-4 -73 -22 -152l-11 -96l11 -42v-27h11l-11 -14l-44 -152q0 -74 -22 -151q-27 -75 -66 -152l-99 -110l-98 14l22 -41q-11 -4 -22 -28l-77 28l-99 -55l-33 27 l-120 69l-110 110q-17 81 -22 179q5 93 33 193q23 29 55 41l44 -69l109 -110l77 -55q19 6 33 28l88 124q46 50 109 96q-25 46 -44 110l22 42l22 330l22 42q-19 49 -22 110l-11 138q2 88 22 179q-20 74 -33 165q37 63 88 124zM130 1189l-22 -41l11 -28q25 13 44 42 q-9 20 -33 27zM785 1630q3 -18 22 -27q-2 18 -22 27zM610 1581q3 -19 22 -28q-4 14 -22 28zM753 80l-22 -69l55 28zM248 1603q24 -46 65 -69zM687 1539q3 -17 22 -27q-4 14 -22 27zM368 1534h22v27h-11zM329 1104q-66 -23 -87 -110q65 25 87 110zM832 289l-11 -56 q22 -22 33 -27l11 83h-33zM138 914l22 -14l11 27l-22 14zM278 686l22 -97l-22 -41q31 -52 88 -83l-22 97l11 41q-32 46 -77 83zM709 864q3 -18 22 -27q-3 18 -22 27zM61 886l-11 -69l33 -14l22 14q-8 45 -44 69zM511 776l-44 -69l33 -41l33 82q-4 14 -22 28zM675 776 q5 -32 22 -55q0 29 -22 55zM427 1396l-44 -56q5 -23 22 -41q17 43 22 97zM430 1127l-44 -82l55 -14l33 55zM490 368l-33 -55q32 13 33 55zM588 286q10 -28 33 -42q-9 28 -33 42zM336 230q-2 19 -22 28q4 -14 22 -28zM138 266l-11 -55l22 -14l11 55zM435 230l-33 -55l66 -27 l33 55zM932 1243l22 -97l-22 -41q31 -52 88 -83l-22 97l11 41q-32 45 -77 83zM930 750l-43 -83l54 -14l33 56zM12 693l-43 -82l54 -14l33 55zM888 432l-33 -55l66 -28l32 55zM-30 1583l-33 -55l65 -28l33 55zM223 1420l-44 -83l55 -14l33 56zM880 1552l-44 -83l55 -13l33 55 z" />
<glyph unicode="K" horiz-adv-x="1141" d="M119 1802l231 -13l58 -191q-12 -5 -23 -28q-3 -110 -35 -232l-69 41q2 -58 23 -109q28 -33 46 -82q40 9 70 41q56 73 138 150l104 178q64 69 116 177l127 41l69 -41q77 -63 92 -191q-55 -77 -127 -150l-127 -164q-66 -60 -138 -151q-70 -66 -174 -95l-46 -69l23 -41 l58 55q52 -36 92 -96h-69l-81 -13l-23 13l-34 14l-35 -68l-139 27l-92 -96q11 -30 35 -68q58 54 138 68l-11 -95q16 -81 23 -178l-35 -177v-41h12l34 -151l-46 -67q-82 -11 -173 -41l-35 27q-103 20 -103 150l11 218l34 96l-23 41v96l35 136q-4 32 -23 55l11 41v246l-11 54 l35 233l-24 123l24 136l-12 137zM801 1420q10 -27 34 -41q-10 27 -34 41zM189 1352l-12 -41l23 -14l23 41zM96 1242l-11 -41l34 -13q-2 30 -23 54zM477 1215q18 -23 46 -27zM570 1201l-35 -136h35v13l46 110zM235 1174l-58 -96l58 -27l58 109zM269 1024l-23 -55l58 -41 l23 68l-11 28h-47zM131 942q6 -34 35 -55zM593 805q64 -23 127 -68l81 -110l69 -136l92 -109q38 -51 93 -96l23 -109l-35 -41q-32 -59 -92 -96l-81 -54l-35 27q-58 27 -115 82l-81 123l-46 123l-81 109l-127 259l115 69l81 -28q9 20 12 55zM570 641q-25 -26 -47 -68 q40 17 47 68zM651 409v27h-12zM916 286v27h-11zM212 300q7 -29 34 -55q-4 35 -34 55zM1025 1290l-58 -95l58 -28l57 110zM363 364l58 -109l58 28l-58 95zM1041 465l58 -109l58 27l-58 96zM716 1006l-35 -136h35v13l46 110zM450 1834l-35 -137h35v14l46 109zM-115 1372 l115 -41v41h-11l-92 54zM1001 719l-23 -55l57 -41l23 68l-11 28h-46zM670 38l-47 -41l139 -14q-10 30 -92 55zM-48 9l-46 -40l138 -14q-10 31 -92 54zM615 978l-12 -41l35 -14q-3 31 -23 55zM548 163l-34 -136h34v13l47 110zM1120 1554l-35 -137h35v14l46 109zM969 594 l-35 -136h35v13l46 110zM1136 1078q-25 -26 -46 -68q39 18 46 68zM828 1119q-25 -26 -47 -68q40 18 47 68zM423 1327q-25 -27 -46 -68q40 17 46 68zM526 1701l-11 -41l23 -14l23 41zM1098 40l-11 -41l23 -13l23 40zM1218 96l-12 -40l23 -14l23 41z" />
<glyph unicode="L" horiz-adv-x="1019" d="M373 1798h116l58 -67q-4 -88 -23 -202l-12 -215l-12 -81l12 -27v-40l12 -27l-12 -14l-23 -174q0 -101 -23 -229l-23 -148l23 -54l-23 -188l127 30l162 14l139 -27l34 27l128 27l35 -27q28 -86 46 -138l-46 -148q-81 -35 -186 -40l-34 -27l-93 40q-83 -35 -185 -40h-116 q-19 39 -35 94q26 59 35 134q-67 -2 -81 -94l-23 -40l35 -94h-47l-185 -27q-27 86 -46 188l35 135l-24 40q20 94 24 202l34 215l-23 121l46 54q-26 87 -34 188l34 161l-11 41l35 67q-24 39 -35 94v202q4 24 23 40zM73 974l69 27q-59 76 -139 81q33 -65 70 -108zM-59 210 q34 27 46 68l-12 13l-34 -13v-68zM79 1394l23 67l-11 13l-35 -13zM542 536l34 -14q21 9 23 27l81 -13q86 19 151 54l-116 26q-100 0 -173 -40v-40zM160 1219l12 27h-23zM307 963l12 14q-8 23 -23 27zM319 1031l11 27h-23zM357 1152q-61 -40 -104 -94q82 11 104 94zM287 197 l58 40l-11 54q-40 -13 -70 -40zM1088 1225q23 25 23 54l81 -27q25 32 35 67l-35 27l-35 -13l-92 13q19 -61 23 -121zM532 653l23 -14l58 27l11 14l-11 40q-53 -10 -93 -27zM52 522l70 27l-12 68l-58 -41v-54zM562 1192v-13h23zM577 1407h34v27l-34 -13v-14zM723 852 q36 -22 70 -27l-47 135l-92 13zM724 1071q-12 51 -46 81q18 -51 46 -81zM646 789q-2 29 -23 40q6 -29 23 -40zM704 1407q-8 23 -23 27q8 -24 23 -27zM690 1610q-29 38 -69 40q30 -38 69 -40zM840 1179q-8 22 -23 27q7 -24 23 -27zM867 1525q59 -25 116 -27l-23 41l-70 13 q-18 -13 -23 -27zM967 1084l-35 -40q31 2 35 40zM901 375l35 14l-24 53l-34 -40zM959 348v27l-35 -13zM1117 695q-24 33 -57 40q24 -35 57 -40zM1117 348q-8 23 -23 27q12 -22 23 -27zM1129 842q-8 23 -23 27q8 -24 23 -27zM88 -198l12 40q-8 24 -23 27l11 94 q-16 99 -46 175l-23 -135q0 -115 35 -201h34zM944 595q36 -22 70 -27l-47 135l-92 13zM982 -103q-12 50 -46 80q19 -51 46 -80zM1098 4q-8 23 -23 27q7 -24 23 -27zM1225 -90l-35 -40q31 2 35 40zM1064 1455l23 -14l58 27l11 13l-11 41q-53 -10 -93 -27z" />
<glyph unicode="M" horiz-adv-x="1349" d="M215 1801l175 -40q38 -66 66 -150l10 -205l66 -177l-11 -137l44 -27l32 -82l-10 -150q37 -45 87 -81l11 54q31 86 76 177q8 96 77 178l-22 54l43 123q41 72 66 163l87 273l131 -13l120 27l33 -55l-22 -245l-43 -191l21 -136l-21 -55l21 -177l-21 -41v-218l-11 -41 l11 -205q-14 -57 -44 -109q10 -30 33 -68l-22 -245q-66 16 -108.5 4t-142.5 -17q-41 95 -44 217q9 59 33 123l-33 68q34 79 87 164q26 11 44 54l-54 14l-22 -27l-11 95l87 14q-10 75 -44 150q-8 38 -32 68l-11 -55l22 -27v-68l-88 68q-42 -82 -43 -191q-26 -96 -44 -218 q-46 -76 -76 -177q-21 -99 -55 -205q-43 -44 -98 -67l-33 54q-40 79 -44 190l-65 423q39 69 -77 109q-20 -80 -32 -177q-26 -94 -109 -109l-22 -27l11 -82q30 9 54 41q2 16 22 27l44 -27v-28h11l-11 -68v-27l-11 -55l11 -149v-41l-22 -68l-98 27q-50 3 -110 27 q-24 -13 -54 -40l-22 149l33 286q10 86 43 164l-43 191l33 54l-22 123q31 32 65 82l66 -27l76 -14l44 95l-44 28q27 43 44 109q-72 -21 -77 -109l11 -55l-32 -13l-99 13l-54 27l32 300l-10 41l21 28q4 80 22 177l-22 41q38 82 120 122zM281 1474q4 -94 65 -163l22 81 q-35 44 -87 82zM1132 1474l-11 -41l11 -13q33 13 55 54h-55zM172 1338l-11 -41l11 -14l54 28zM1034 1324q-32 -87 -33 -204l22 -137q28 77 44 178l-11 95q14 3 22 27l-11 41h-33zM346 1229v-27l22 13zM499 1106q-44 -51 -76 -123q67 26 76 123zM1154 1092q-22 -35 -33 -81 l44 -14l33 68zM728 806l33 -14l11 14h-44zM1089 902l-33 -69l54 -13l22 82h-43zM205 724l-11 -41h21v41h-10zM488 683l11 -109l109 -54q-3 39 -21 82zM685 670q9 -25 33 -27q-9 19 -33 27zM194 602q3 -18 21 -28q-2 19 -21 28zM619 479l11 -82l33 -27q-1 67 -22 136 q-11 -5 -22 -27zM106 220v27h-11zM361 149l11 -82l33 -27q-1 67 -22 136q-11 -5 -22 -27zM874 652l11 -82l33 -27q-2 67 -22 136q-11 -5 -22 -27zM1211 -86l-11 -40l11 -14q33 14 55 54h-55zM695 -1l-11 -40l11 -14q33 14 55 54h-55zM51 -144l41 -11l14 11q-14 33 -55 55 v-55zM86 -65l41 -11l13 11q-13 32 -54 54v-54zM797 104l11 -109l-11 -41l22 -41q29 12 55 41l-22 95q24 0 44 27q-49 5 -99 28zM748 1113q-20 28 -44 28l22 95q-26 30 -55 41l-21 -41l10 -41l-10 -109q49 23 98 27zM660 996l-33 -41l44 -27l11 41zM693 941l-11 -41h22z M589 1395l11 41q-8 25 -22 28l11 95q-16 101 -44 177l-22 -136q0 -118 33 -205h33zM-49 1688q4 -94 65 -163l22 81q-35 44 -87 82zM-102 947l11 -109l-11 -41l22 -41q29 11 55 41l-22 95q23 0 43 27q-48 5 -98 28zM1330 1108q-22 -35 -32 -82l43 -13l33 68zM1272 624 l10 -109l110 -55q-4 40 -22 82zM1468 610q9 -25 33 -27q-9 20 -33 27zM1277 797l11 -82l32 -27q-1 67 -21 136q-11 -5 -22 -27zM801 1634l-11 -41l11 -14l54 27zM382 384q-13 -47 -22 -109l33 -14l11 14l22 68l-11 27zM1254 151q-14 -47 -22 -109l32 -14l11 14l22 68l-11 27 z" />
<glyph unicode="N" horiz-adv-x="1191" d="M1018 1803l99 -81l22 -123l-11 -41l-11 -150l11 -95l-11 -28l-11 -40v-396l-22 -163q-4 -79 -33 -164l11 -122q-4 -25 -22 -41l-55 27l-11 -27l22 -14l66 -123l11 -95l-11 -27l-11 -41q-39 -47 -99 -81l-131 26q-37 44 -55 109l-66 109l-55 137q-28 64 -44 150l-66 109 l-33 41l44 68l-88 81l-44 150q-46 -28 -87 -81l-22 -96l33 -27v-164q-7 -60 -33 -122l33 -96l-22 -41q11 -72 11 -163l-22 -68l11 -28l11 -40l-66 -54l-33 26l-88 -26l-33 26q-61 16 -109 68l32 150l11 109l-11 28v163l11 27l-11 14l11 41l11 68l-11 55l22 177l-22 109 l22 27l22 164l-11 191l22 136q-15 44 -22 109l22 41q28 63 88 95l99 14l33 -14l87 -95l110 -259q15 -60 44 -123l66 -109q26 -67 44 -150l110 -259q4 -27 22 -41l-33 -81q7 -29 33 -55l11 82q30 39 55 95l-22 96q3 21 22 27h44l-44 82q-26 53 -33 122l22 123l-44 150 q28 65 44 136q-5 71 -22 150q29 58 77 109l65 -13l22 13q11 4 22 27zM162 1572q14 -30 44 -41zM294 1558q-45 -57 -88 -136q54 -20 99 -82l77 41l-22 54q-52 43 -66 123zM898 1367q10 -23 32 -41q-9 28 -32 41zM952 1245q26 -42 66 -55q-22 38 -66 55zM228 1204l-55 -96 l33 -13l11 13l44 68q-9 20 -33 28zM1007 986q3 -31 22 -55l11 41zM909 849q-3 19 -22 28q4 -14 22 -28zM941 768q9 -37 33 -69q-5 40 -33 69zM579 727h22v27h-11zM755 645v27h-11zM689 590q24 -59 77 -95zM788 577q27 -83 88 -164q-6 105 -88 164zM941 522q3 -18 22 -27 q-2 18 -22 27zM162 468l22 -41q-4 27 -22 41zM239 331l-11 -68l66 55zM-38 1456l7 -136l-22 -27q34 -44 79 -68l21 68l-43 -14l7 55q-5 83 -49 122zM1201 224l-6 137l18 27q-28 44 -65 68l-18 -68l35 14l-6 -55q5 -83 42 -123zM1150 673l6 -136l29 14l12 27l-6 82zM377 469 l11 -137l55 14l22 27l-11 82zM616 1774l11 -136l55 14l22 27l-11 82zM396 1859l11 -136l55 13l22 28l-11 81zM615 259q-45 -57 -88 -136q54 -20 99 -82l76 41l-22 54q-52 43 -65 123zM659 1174q27 -83 88 -163q-6 105 -88 163zM391 734q28 -83 88 -164q-6 106 -88 164z M788 1521l-55 -95l33 -14l11 14l44 68q-9 20 -33 27zM789 954l-11 -68l66 55zM1189 1800l-11 -68l66 55zM1177 1472q3 -72 22 -135l-33 -63q-20 -62 -22 -111l55 24l11 22q56 103 88 224q-48 38 -121 39zM429 -155q-3 49 -22 99l33 27q20 31 21 63l-54 9l-11 -9 q-56 -43 -88 -108q48 -48 121 -81zM-13 353q-33 66 -88 108l-11 9l-55 -9q2 -31 22 -63l33 -27q-19 -50 -22 -99q72 34 121 81zM1301 1134q23 18 33 41q-23 -13 -33 -41zM1214 998q40 13 66 55q-44 -17 -66 -55zM1163 780l6 -41q10 24 12 55zM1246 685q-10 -9 -12 -28 q10 14 12 28zM1199 508q13 31 18 68q-15 -29 -18 -68z" />
<glyph unicode="O" horiz-adv-x="1270" d="M629 1816q72 -8 152 -43l33 15l98 -15l174 -230l54 -173q38 -62 65 -144l22 -43l-22 -130l11 -187q-12 -95 -43 -188l-22 -172l-131 -289l-195 -216l-240 -86l-33 29l-152 29l-131 57l-163 245l-98 303l-10 115l21 43l-21 130l32 29l-11 129l55 216q36 65 108 101l-32 43 l32 87l77 144q51 38 98 101q56 26 119 72q70 1 153 28zM748 1672l-32 -72l65 -14l22 72zM618 1586q-52 -35 -98 -101q46 5 87 43q33 -34 87 -43q-27 60 -76 101zM846 1485l-11 -43h22l11 43h-22zM357 1442l10 -87l55 -14q-15 70 -55 130zM748 1442q-65 -72 -152 -115 l-174 -44q-30 -92 -76 -187l-55 -129l33 -58q-32 -105 -109 -173l-87 -58l98 -28l33 43q50 -83 87 -187q70 -40 130 -130l87 -43l98 14q73 50 164 87q8 73 32 158q34 99 55 231v172l-11 116q-37 80 -98 172zM313 1327q2 -61 33 -116q-7 59 -33 116zM944 1327l-76 -58 q44 -4 87 -43l44 -29l-11 43l11 29q-18 37 -55 58zM977 405q6 -36 33 -58q-10 33 -33 58zM694 304l-33 -58l55 -57l21 86zM280 261q-23 -16 -43 -58q34 11 43 58zM346 261q4 -28 21 -44q-4 29 -21 44zM596 102v29h-11zM1025 647l-33 -72l66 -14l22 72zM700 1221 q-53 -35 -98 -101q46 5 87 43q33 -34 87 -43q-27 60 -76 101zM432 813l11 -87l54 -14q-14 70 -54 130zM388 698q3 -61 33 -116q-7 59 -33 116zM1221 301l-76 -57q43 -5 87 -44l43 -28l-10 43l10 29q-17 36 -54 57zM748 980l-32 -72l65 -14l22 72zM544 900l-11 -43h22l11 43 h-22zM611 572l-76 -58q43 -4 87 -43l43 -29l-11 43l11 29q-18 37 -54 58zM187 1794l11 -86l54 -15q-15 70 -54 130zM143 1679q2 -61 33 -115q-7 59 -33 115zM24 -13q2 -61 32 -115q-6 59 -32 115zM67 102l11 -87l54 -14q-14 70 -54 130zM1008 84l-32 -58l54 -57l22 86z M-146 294l72 22l-14 65l-72 -33zM442 931q-9 54 -43 87q38 41 43 87q-66 -46 -101 -98q41 -49 101 -76zM1052 1764l43 10v22l-43 -11v-21zM752 -88q60 -40 130 -55l-15 55l-86 11zM1011 -66q-54 30 -115 32q56 -26 115 -32zM1268 1633l29 11l43 -11l-29 43q-38 44 -43 88 l-57 -77q20 -36 57 -54zM-85 810q-40 -59 -54 -129l54 14l11 86zM-98 1477q-39 -60 -54 -130l54 15l11 86zM-76 1218q31 54 33 115q-26 -56 -33 -115z" />
<glyph unicode="P" horiz-adv-x="1207" d="M615 1834l192 -28l145 -70q80 -6 109 -113l51 -84q35 -67 63 -155l-28 -367q-20 -84 -56 -169q-44 -60 -105 -113q-72 -50 -153 -84q-76 -24 -167 -28l-153 -85q-74 13 -145 57q-34 -38 -46 -85l13 -56l-30 -268l13 -28l2 -85q-41 -84 -130 -98l-83 -28l-96 28l-73 84 l22 71q11 84 44 169l-15 126q20 13 35 43l-44 394l55 183l23 43q-22 58 -27 127l19 225l57 99q-17 11 -48 14q3 93 32 197q75 23 166 28h144l36 -14l12 14zM618 1708l-23 -43l12 -28q27 13 47 42q-10 21 -36 29zM846 1637q4 -18 25 -28q-3 19 -25 28zM130 1609l-23 -70 l59 28zM261 1609q28 -46 73 -70zM394 1539h24v28h-12zM312 1482q-72 -24 -93 -113q70 26 93 113zM563 1482l-143 -28l-59 -28l25 -57l-33 -112l26 -85l-48 -14q-8 -64 -33 -127q33 -53 51 -126q14 -47 61 -57q43 39 106 57l96 14l118 42l94 70l45 127q-7 86 -28 169 q-16 61 -62 113l-72 28l-24 -28zM954 1102l-10 -57q24 -23 36 -28l10 85h-36zM157 905l25 -15l11 29l-24 14zM194 890l26 -98l-23 -42q35 -53 97 -85l-26 99l11 42q-36 46 -85 84zM74 876l-10 -70l36 -14l24 14q-10 46 -50 70zM567 764l-46 -71l37 -42l34 84q-5 15 -25 29z M747 764q5 -33 25 -57q-2 31 -25 57zM237 580l-47 -56q5 -24 25 -42q18 44 22 98zM238 496l-45 -85l60 -14l34 57zM172 242l-10 -56l24 -14l11 56zM442 33l10 57q-24 23 -36 28l-10 -85h36zM566 1168l-25 14l-11 -28l24 -14zM529 1182l-26 99l23 42q-35 53 -97 85l26 -99 l-11 -42q36 -47 85 -85zM649 1196l10 71l-36 14l-24 -14q10 -46 50 -71zM700 183l47 70l-37 43l-34 -85q4 -14 24 -28zM521 183q-6 32 -25 56q2 -30 25 -56zM1074 39l46 56q-5 24 -24 43q-18 -44 -22 -99zM1152 274l46 85l-60 14l-35 -56zM962 402l10 57l-24 14l-10 -57z M911 554l41 -10l19 21l-41 10zM-154 1726l44 -74l-39 -32q60 -39 165 -63l-44 74l19 32q-61 35 -145 63zM770 533l-17 -53l61 -10l40 10q-17 35 -84 53zM1045 311l-79 -43q9 -18 42 -31q30 32 37 74zM-73 1216l-46 -56q5 -24 25 -43q17 44 21 99zM-71 1131l-46 -84l60 -14 l35 56zM-137 878l-10 -57l24 -14l10 57zM690 1085l-10 -56l24 -14l11 56zM1173 1754l-46 -84l60 -14l35 56zM1246 1581l-47 -57q6 -24 25 -42q18 44 22 99zM-171 533q28 -46 73 -70zM-38 463h24v28h-12zM-120 406q-72 -24 -93 -112q70 26 93 112zM757 26l84 31l36 -27 q45 41 71 115l-83 -31l-36 13q-40 -42 -72 -101z" />
<glyph unicode="Q" horiz-adv-x="1301" d="M563 1822h191q72 -19 157 -58q55 -34 112 -85l90 -129q42 -59 78 -142q31 -91 45 -200q16 -99 23 -214l-56 -414l-124 -328q-50 -46 -90 -128l79 -228l-56 -57l-135 -71l-112 -29l-11 71q-25 69 -45 157l-123 43l-112 -14l-34 28l-135 57q-55 48 -112 114 q-55 45 -101 114l-89 300l22 43v128q-10 32 -33 71l44 186q10 94 34 200l67 157q42 57 112 99l56 172q73 12 146 57zM642 1707q-75 -27 -79 -114q63 28 79 114zM577 1191q38 13 52 50zM1216 1797l-34 -171l101 -28l-22 85zM825 1125l39 33q-28 -9 -39 -33zM480 1024l-78 67 l-40 -83l40 -50l117 33l26 17l92 -17l13 100zM698 1565l-34 -100q25 41 34 100zM496 1351q-13 -67 -56 -129l-123 -214l-12 -42l23 -214l-11 -43q4 -67 33 -143q33 -35 67 -86q29 -47 79 -85l34 -14l89 14l-33 -86l56 29q30 -37 78 -43q-18 60 -67 100l-67 100l-12 114 l23 28l101 57q38 11 90 15l11 -57q18 -62 56 -114q34 30 67 85q8 60 34 129l-11 99l22 157q-16 61 -45 129l-45 128l-78 71q-34 37 -45 100q-38 -37 -90 -71l-78 -29q-3 15 -23 29q-22 31 -67 -14zM1339 1641q9 -27 34 -29zM1384 1626q2 -19 23 -28q-4 14 -23 28zM1238 1526 l-33 -57q30 16 33 57zM394 810l66 -17l13 100zM406 1336q10 -20 34 -28q-9 21 -34 28zM283 1279q17 -25 45 -28zM1102 1279q4 -28 22 -42q-4 28 -22 42zM538 727q30 1 39 33zM967 1222q5 -32 22 -57q0 30 -22 57zM216 1180l-12 -100l34 -29l11 71l-11 29q-2 19 -22 29z M512 610q23 -53 52 -83l13 17l-13 83zM1146 1080l-22 -72q14 -28 45 -42l22 99zM132 1080q-9 -76 -45 -157h45l45 71zM92 837q18 -25 45 -28zM1012 709l-23 -72l45 15q-4 33 -22 57zM28 -17q22 12 26 33q-23 -11 -26 -33zM1102 595l-23 -57l45 14zM-26 1758l33 -115l-49 -28 q14 -28 49 -43l66 143zM15 -183q43 28 52 83q-36 -34 -52 -83zM810 509h22l-11 29zM1229 521q-19 -35 -35 -85l14 -57q-7 -74 -41 -143l-77 -71l-20 -72q17 3 27 29l70 28l76 86l28 143zM89 1643q29 -52 99 -85q-7 74 -99 85zM288 1572v-28l33 14zM89 230l-23 -86 q10 -20 34 -29l22 86zM552 167q10 -28 34 -43q-10 28 -34 43zM1077 -5l65 -17l13 99zM1220 -88q30 1 40 33zM1194 -205q24 -53 52 -83l14 17l-14 83zM775 22q17 -25 45 -28zM1394 1451q5 -28 22 -43q-4 29 -22 43zM1259 1394q5 -33 23 -57q0 30 -23 57zM1304 880l-22 -71 l45 14q-5 33 -23 57zM854 828l-22 -71q13 -28 44 -43l23 100zM853 1090l-80 -108q-6 -55 18 -98l102 156zM1392 189l-80 -108q-6 -56 18 -98l102 155zM256 54l-80 -107q-5 -56 19 -99l101 155z" />
<glyph unicode="R" horiz-adv-x="1232" d="M734 1817l203 -56q83 -22 169 -96q52 -92 78 -221l12 -193q-12 -4 -23 -28l-11 -41l-23 -249l-135 -152q-38 -27 -90 -41l-56 110l-68 -96l34 -28q3 -117 68 -221l135 -151q47 -91 124 -180l-90 -179q-84 -36 -192 -41q-47 91 -124 165q-34 96 -101 207q-55 87 -90 207 q-58 66 -124 166l-45 41l-23 -69l56 -14l-90 -207q3 -123 23 -276l-23 -179l-90 -13q-94 7 -203 54l-44 69l44 138v138l23 152q5 100 34 221q-21 5 -34 27l45 235l-23 41l46 180l-23 207l11 41q9 91 34 207q89 61 203 69l169 28l34 -14l157 14q12 3 23 28zM441 1651l-34 -41 l45 -28l11 55zM621 1623q4 -18 23 -27q-3 18 -23 27zM317 1568l-11 -96l79 -14q-24 63 -68 110zM756 1554q-43 -59 -101 -96h-169q-37 -41 -56 -97l-12 -110l23 -28l-68 -124l23 -69l-34 14l-22 -28q24 -43 67 -83q47 -4 79 -41l45 -42l-11 69l124 28l135 55l79 97l45 152 q-19 66 -57 124q-43 44 -101 83l45 69zM948 1485l-11 -110l33 28q-4 39 -22 82zM-3 1384q1 -47 34 -83q-4 49 -34 83zM948 1126l-34 -55q32 12 34 55zM-36 1260l11 -42l33 28q-2 18 -22 28zM565 892l-34 -55l23 -138l45 -14zM306 850q10 -19 34 -27q-10 20 -34 27zM227 768 l-34 -83l45 -14l45 69zM723 726q3 -18 22 -27q-2 18 -22 27zM295 630l-34 -69l34 -14q23 28 33 69zM227 492q20 -31 56 -56l23 42zM574 1776q10 -27 33 -41q-9 27 -33 41zM543 1019l34 41l-45 28l-11 -55zM363 1047q-3 18 -23 27q3 -18 23 -27zM667 1102l11 96l-78 14 q23 -63 67 -110zM667 1309l-22 14l-12 -42h23zM757 1461q-3 18 -22 27q2 -18 22 -27zM791 1543q-1 48 -34 83q4 -48 34 -83zM825 1668l-11 41l-34 -28q2 -18 22 -27zM726 300l34 55l-23 138l-45 14zM985 342q-10 19 -34 27q9 -20 34 -27zM1064 424l34 83l-45 14l-46 -69z M568 466q-3 18 -22 27q2 -18 22 -27zM996 562l34 69l-34 14q-23 -28 -34 -69zM1064 701q-20 30 -57 55l-22 -42zM441 106l-34 -42l45 -27l11 55zM621 78q4 -18 23 -27q-3 18 -23 27zM574 231q10 -27 33 -41q-9 27 -33 41zM791 -1q-1 46 -34 82q4 -49 34 -82zM825 122l-11 42 l-34 -28q2 -18 22 -27zM36 1838q10 -20 34 -28q-9 20 -34 28zM-42 1755l-34 -83l45 -14l44 69zM25 1617l-34 -69l34 -14q23 28 34 69zM1263 1048l23 -41q36 25 56 55zM1241 1186q10 -40 33 -69l34 14l-34 69zM1286 1310l45 -69l45 14l-34 83zM1229 1393q24 8 34 28 q-24 -8 -34 -28zM1260 322l42 -34l27 46l-55 11zM1288 502q18 4 27 23q-18 -2 -27 -23zM1135 455q27 10 41 34q-27 -10 -41 -34zM1368 672q-47 -1 -83 -33q49 3 83 33zM1244 706l-42 -11l28 -34q18 3 27 23zM-58 417l33 55l-22 138l-45 14zM-23 923l-34 -56l22 -138l45 -13z " />
<glyph unicode="S" horiz-adv-x="1109" d="M379 1807l126 -28l35 28l309 -57l92 -43l92 -71l46 -72l-35 -158q-30 -57 -46 -128q-33 -37 -80 -58q-70 73 -172 143q-40 46 -92 72l-80 -14l-23 28q-127 0 -149 -157q31 -46 57 -115l92 -71q99 -32 207 -100l80 -86q40 -24 80 -72q59 -92 115 -229l11 -172l-34 -129 q-45 -100 -115 -214l-92 -86l-80 -28l-23 13l-183 -42l-69 -29l-23 43l-126 28l-207 101q-46 31 -80 85l-11 144l57 257q54 -5 115 -43l103 -57q78 -75 195 -114l115 -15l91 58q64 54 92 186q35 40 69 100l-69 14l-23 -28l-11 -86q-65 38 -126 114l-218 100q-77 54 -161 144 q-41 33 -80 85q-29 40 -46 101l-34 172l68 243q34 41 69 100zM585 409l-23 86l-11 14l-12 -29l12 -86zM459 1593q9 -31 35 -43q-10 28 -35 43zM368 1550q15 -31 46 -43zM207 1535q37 -53 92 -86q-20 77 -92 86zM597 580q-25 -14 -35 -43q27 13 35 43zM470 580 q-19 -10 -22 -28q20 9 22 28zM414 1478q3 -19 22 -29q-3 15 -22 29zM368 1363l-35 -85q30 33 35 85zM196 1120q0 -29 23 -43q-5 29 -23 43zM391 1106l-46 -58l34 -28q23 20 46 57zM826 590l-11 -57l23 -14l46 14q-20 33 -58 57zM769 249l-69 -29q32 -35 81 -57q28 7 45 43z M138 290l-11 -101q10 -20 34 -28l12 100zM130 630l48 73l1 30l-16 -8l-58 -67zM416 590q5 31 -13 53q-3 -30 13 -53zM517 589q-1 35 -23 59zM668 533q-10 64 -46 117q-14 -77 46 -117zM181 764q3 30 -12 54q-6 -31 12 -54zM291 728q5 18 -8 36q-6 -19 8 -36zM506 673 q5 19 -8 36q-3 -14 8 -36zM456 1003l68 62q-41 -17 -68 -62zM716 1149q12 27 -3 48q-8 -27 3 -48zM546 1245l66 32l-19 41q-30 -9 -66 -32zM0 -43l45 -14l23 14l-11 57q-38 -24 -57 -57zM1057 1156l-69 -28q32 -35 81 -58q28 8 46 43zM984 75l-11 -100q10 -20 34 -28l12 99z M108 1798l-12 -100q10 -20 35 -29l11 100zM999 1219q9 -31 34 -43q-9 28 -34 43zM907 1176q16 -31 46 -43zM747 1161q36 -53 91 -86q-20 77 -91 86zM1171 1147q3 -19 23 -29q-3 19 -23 29zM953 1104q4 -19 23 -29q-4 15 -23 29zM113 929l-69 -28q31 -35 80 -57q29 7 46 42z M227 920q3 -19 23 -29q-3 20 -23 29zM9 877q3 -18 23 -29q-4 15 -23 29zM1054 881l-12 -86l12 -28l11 14l23 86zM1176 464l-11 -85l11 -29l12 14l23 86zM-92 349l46 -14l23 14l-12 57q-37 -24 -57 -57zM690 125q22 24 23 59zM1048 1735q-10 63 -46 117q-14 -78 46 -117z M694 64q13 17 9 35q-12 -21 -9 -35zM27 1036q10 -26 29 -30q-10 27 -29 30zM-44 1634l57 -11l15 23l-15 46q-32 -20 -57 -58zM-22 583l-73 63l-30 2l8 -22l67 -76zM18 963q-31 7 -53 -17q30 -4 53 17zM18 1098q-34 -1 -58 -30zM13 1476q-63 -10 -116 -46q77 -14 116 46z M-120 797q-18 7 -36 -11q19 -8 36 11zM-65 1084q-19 6 -36 -11q14 -4 36 11zM1167 1403l47 72l2 31l-17 -8l-57 -68z" />
<glyph unicode="T" horiz-adv-x="1176" d="M924 1815l152 -21l22 -44l7 -169q-5 -100 -64 -195l-326 58l-24 -41l-17 -183l-60 -67l69 -46l-52 -181l43 -114l-36 -55v-409l-12 -28l-38 -111q14 -20 21 -57l11 -43l-15 -125l-59 2l-199 -19q-67 58 -89 159l52 195l-6 184l13 41q15 94 52 195l-57 59l27 126l17 183 q27 91 40 195q-19 76 -78 131l-305 -43l-45 59q-1 92 -17 212q26 98 108 136l187 5l35 -15l82 10l70 -3l304 14l34 -30q77 4 153 35zM418 1670q12 -33 45 -45zM31 1379l-25 -56q31 5 60 26zM206 1609l34 -30q-9 21 -34 30zM68 1287l9 -85l82 11l23 -15l104 -34l37 41l-33 72 l-72 -53zM1089 1174l-1 -28l24 13zM526 1116q1 -34 22 -58q-3 33 -22 58zM949 1353q-25 -64 -95 -66l-107 -51l-47 -40l45 -31l85 95l56 -101l34 -16l83 24q-22 46 -56 87l37 69q-9 21 -35 30zM550 1367l9 -85l59 12zM766 624l-39 -153q8 -74 67 -102l27 140zM-107 1445 l-37 -54l58 -17l25 41q-16 21 -46 30zM57 1025q13 -3 22 -29q-13 3 -22 29zM453 1259q8 -28 34 -30zM462 1146l-14 -70l11 -15q27 24 49 69zM609 717l11 -15l36 27l-35 16zM825 809q32 -43 97 -74q-31 45 -97 74zM1045 259q-25 -15 -48 -54l58 -17l12 13q0 31 -22 58z M531 691q3 -18 22 -29q-2 19 -22 29zM135 988l-23 -56l60 -16l22 42zM190 370l-13 -56l35 -1l13 41zM1064 776l-13 -70l11 -29l58 12l14 69zM516 593q7 -47 45 -72q-13 42 -45 72zM294 309l-1 -28q30 2 47 12zM-12 398l-3 -70l119 10zM834 569l57 -58q-6 36 -57 58zM933 552 q17 -21 59 -30q-15 21 -59 30zM-59 213q13 -3 22 -30q-13 3 -22 30zM890 483q4 -27 38 -44zM779 103v28l-11 1zM-57 99l-13 -56l58 -17l12 14q-20 35 -57 59zM903 341l-63 -54q48 15 63 54zM817 231l2 28h-20zM653 165q4 -19 39 -30q-3 19 -39 30zM944 968l12 -14l58 17 q-23 40 -48 54q-22 -27 -22 -57zM1260 1195l58 97q-51 -37 -58 -97zM1159 1246q43 9 59 29q-43 -9 -59 -29zM1224 1075q34 28 38 73zM1311 819l-63 92q15 -66 63 -92z" />
<glyph unicode="U" horiz-adv-x="1217" d="M1066 1818l114 -57l34 -86l-23 -43l-11 -29l23 -71l-12 -29l-34 -115q18 -57 23 -129l-11 -143l22 -43l-34 -71l-11 -187q-11 -67 -34 -143l-12 -72l23 -28l-11 -29l11 -158l-91 -257l-69 -101l-216 -100q-56 -14 -126 -14q-39 -10 -91 -14l-23 28q-63 12 -125 43 q-41 10 -80 43l-171 172l-23 157l-34 115l-11 186l23 158l-12 129l12 43l11 115l-11 28q7 52 45 86l-23 100q-11 63 -11 144q24 29 34 71l-23 29l-11 115l11 28q34 50 92 86l79 29l35 -14q67 -3 136 -29l12 -29l-12 -71l12 -29h-12l-11 -43l11 -115q-14 -62 -45 -129l23 -86 l-35 -28l35 -158q-3 -61 -23 -129v-186q-1 -60 -23 -129l68 -301l103 -57l68 28l23 -28l114 57l103 -57l11 86l-34 28q-23 53 -23 115l46 416l45 -15h46l-46 58q-46 1 -68 57l23 100l-12 43l-22 43l34 72l11 86l-23 157l12 29l11 43l-11 143l102 58l57 -15l23 15q12 3 23 28 zM-40 817l34 -43l22 58l-45 14zM568 1632q13 -32 46 -43zM-17 1047q15 4 22 28q-15 -3 -22 -28zM-168 86l80 -14l11 100q-52 -30 -91 -86zM363 1560l34 -28q-9 21 -34 28zM787 932l-33 -91l41 -46l25 46l-16 137l-9 30l9 107l-50 15zM96 1462l91 -14l-22 43q-33 -6 -69 -29z M1009 1460q-31 -75 -57 -172l34 29l80 114zM3 86l11 29l-34 14v-28zM268 1345q18 -25 46 -28zM705 1331l12 -86l57 14zM336 1216h23v29h-11zM-100 1367q8 -28 34 -29zM128 -28q15 5 23 28q-15 -2 -23 -28zM196 -71q39 2 69 43q-40 -4 -69 -43zM393 1462l45 -43q-9 41 -45 43 zM-88 1252l-12 -72l12 -14q25 26 45 72zM495 459l34 14l-22 43q-16 -3 -23 -28zM279 973q5 -28 23 -43q-4 29 -23 43zM-127 1125l45 -43l114 29l11 57zM268 844q28 -67 80 -115q-30 64 -80 115zM621 645q16 13 22 43q-16 -11 -22 -43zM952 815l-11 -57l34 14zM1134 48 l68 -43l11 58l-57 57zM9 1326q15 4 23 28q-16 -3 -23 -28zM1150 147q3 -19 23 -29q-3 19 -23 29zM1248 134l57 -43l11 43q-24 30 -57 43zM72 13q34 -44 80 -57zM-19 -15q23 -46 68 -86q-19 49 -68 86zM1138 46q8 -47 46 -71q-14 42 -46 71zM1362 48q25 26 45 72l-34 29z M895 443l-23 -58l46 15zM1077 1376q22 13 34 43q-23 -12 -34 -43zM325 242q10 -33 46 -57q-10 37 -46 57zM564 242l-22 -72l91 -71q-22 77 -69 143zM692 536q15 4 23 29q-15 -4 -23 -29zM760 493q39 1 69 43q-40 -5 -69 -43zM1059 1023l35 15l-23 43q-15 -4 -23 -29z M1185 1210q16 12 23 42q-17 -11 -23 -42zM636 577q34 -44 80 -57zM1459 1007l-23 -57l46 14zM889 806q10 -33 46 -57q-10 37 -46 57zM1368 1389l-23 -72l91 -72q-22 78 -68 144zM519 1528q-31 -75 -57 -172l34 28l80 115z" />
<glyph unicode="V" horiz-adv-x="1104" d="M136 1798q55 -18 126 -27q36 -45 64 -112l21 -291l31 -139l11 -125l32 -41l-43 -167l32 -28q9 -67 32 -139q-26 -57 -74 -97l53 -27l31 -28l-21 -97l53 -28l84 -14q-13 40 -42 69l32 56q-23 11 -42 42l42 124l10 153l43 139l95 28l-74 55q8 71 31 153l53 305l32 111 q18 51 63 84l190 41l32 -27l74 13q14 -13 21 -41l-32 -139q-28 -54 -53 -125q-23 -42 -63 -56l-21 42l-32 -55q36 -53 53 -125l-42 -139q-14 -63 -42 -139l-32 -139q-22 -63 -32 -139q-27 -64 -42 -138l-63 -111q-22 -64 -32 -139q-23 -62 -32 -139l-31 -125 q-22 -65 -64 -110l-116 -28l-95 28q-40 29 -74 82l11 70l-11 55l-42 125q-12 69 -42 139l-21 291l-42 125l-74 431q-22 57 -32 125l-21 97l11 41q-13 66 -42 139q14 57 52 97l74 -13zM874 1590l-21 -69l43 41q-3 19 -22 28zM790 1396l-11 -56l22 -14l10 56zM252 1326 q4 -58 42 -111q-5 56 -42 111zM779 1299q4 -18 22 -28q-3 18 -22 28zM383 1807l-10 -55l21 -42q24 37 32 70zM137 577l-11 -56h22v56h-11zM716 771q1 -56 42 -97q-7 55 -42 97zM74 285l-21 -42l10 -27l42 41zM516 369q16 -24 42 -28zM801 1409q10 -29 34 -44q-10 29 -34 44z M189 1335l-12 -44l23 -15l23 45zM96 1217l-11 -44l34 -15q-2 33 -23 59zM477 1188q18 -25 46 -30zM570 1173l-35 -148h35v15l46 118zM235 1143l-58 -103l58 -29l58 118zM7 773l-23 -59l57 -45l24 74l-12 30h-46zM570 568q-25 -29 -47 -74q40 19 47 74zM651 317v30h-12z M916 184v30h-11zM212 199q7 -31 34 -59q-4 37 -34 59zM562 1594l-58 -103l58 -29l58 118zM363 269l58 -118l58 30l-58 103zM1041 378l58 -118l58 29l-58 104zM716 962l-35 -147h35v15l46 118zM-115 1357l115 -44v44h-11l-92 59zM1001 652l-23 -59l57 -45l23 74l-11 30h-46z M615 932l-12 -44l35 -15q-3 33 -23 59zM1120 1554l-35 -148h35v15l46 118zM969 517l-35 -147h35v14l46 118zM1136 1040q-25 -28 -46 -74q39 19 46 74zM828 1084q-25 -28 -47 -73q40 19 47 73zM423 1309q-25 -29 -46 -74q40 19 46 74z" />
<glyph unicode="W" horiz-adv-x="1390" d="M200 1824q75 -30 104 -125l-24 -83l31 -56l-12 -41l-9 -278l-15 -125l21 -42q-6 -70 -38 -72q4 -31 9 -356l90 317q26 84 38 181q20 96 81 180l-4 195q43 50 68 125l-18 97l77 55q38 10 87 14l85 -41q28 -100 25 -236l29 -125q-11 -37 -35 -70l40 -97l-44 -55l52 -56 l-25 -111q-1 -107 47 -208q29 12 56 41l13 70l-9 55l60 195l-43 27l37 153l29 222q9 98 50 209l152 27l32 -14q67 -34 82 -138q-33 -98 -50 -223l-50 -208l-14 -125l9 -41l-2 -56l-50 -222l-45 -56q23 -33 30 -83q-28 -95 -39 -208l-53 -319l-4 -139l-152 -28l-32 14 l-162 28q-30 96 -36 222l-5 180l22 14l1 28h-11l-40 111l24 83l-20 56q21 56 26 125l-81 166q24 7 44 42l-43 14l-11 -14l-23 -42q-13 83 8 -82q-70 -251 -75 -348q-23 -87 -60 -181l-65 -374l-13 -42q-46 -5 -98 -27l-31 27h-141l-15 552l-48 198l6 208l23 42 q-23 78 -27 180l-29 430l12 42l-16 181h64zM139 1602l-23 -55q28 5 55 27zM1118 1449l-1 -27l22 13zM563 1283l-55 -56l-25 -41l23 -28l44 97l26 -97l18 -14q4 144 -31 139zM174 1338l-37 -152q7 -73 62 -98l26 139zM1048 1297l-34 -56l54 -14l23 42q-15 20 -43 28z M161 1255q12 -2 21 -28q-13 3 -21 28zM111 1047l21 -14l12 41h-21zM671 977l10 -14l34 28l-32 14zM750 741q-23 -15 -45 -55l54 -14l11 14q0 30 -20 55zM282 616l-13 -55h32l13 41zM377 561l-1 -28q29 4 44 14zM222 422l-14 -97l42 -14q-3 61 -28 111zM826 380v28h-10z M812 297l-12 -56l53 -13l11 13q-18 34 -52 56zM985 297l-34 -56q26 17 34 56zM938 186l1 28h-11zM850 117q2 -19 21 -28q-2 18 -21 28zM1035 429q-24 -16 -45 -56l54 -14l11 14q0 30 -20 56zM1280 331l-12 -55l32 -14l12 42zM1150 304l-13 -70l10 -28l54 14l13 70zM1233 206 l31 -55q-3 35 -31 55zM1287 193q9 -20 32 -28q-9 20 -32 28zM1263 123q2 -26 21 -41zM1110 68l1 27h-11zM418 1749l-55 -56l-25 -41l23 -28l44 97l26 -97l18 -14q4 144 -31 139zM870 1823l-37 -153q7 -73 61 -97l26 139zM567 173l-37 -152q7 -73 62 -97l26 138zM-135 437 l-37 -153q7 -72 61 -97l26 139zM-100 144l-13 -55h32l13 41zM-5 89l-1 -28q28 4 43 14zM-160 -50l-14 -97l43 -14q-4 62 -29 111zM-25 1348l-14 -97l42 -14q-3 61 -28 111zM130 1487l-1 -28q28 4 44 14zM34 1542l-12 -55h32l12 41zM306 671l10 -14l34 28l-32 14zM385 435 q-23 -16 -45 -56l54 -14l11 14q0 30 -20 56zM500 310l-13 -70l10 -27l55 13l13 70zM908 1468l-1 -27q28 3 44 13zM916 1342q-23 -15 -45 -55l54 -14l11 14q0 30 -20 55zM1361 1250q-25 -45 -48 -159l52 -39l12 39q2 86 -16 159zM1360 1609l-3 -80q29 11 45 40z" />
<glyph unicode="X" horiz-adv-x="1244" d="M391 1814q35 -30 69 -87l34 -158l12 -145l92 -72l69 -101q33 23 34 72q-20 6 -34 29l34 58l81 86q4 84 23 174l57 115l86 3q92 21 137 -27l69 -101l-62 -193l-69 -101l-57 -130l-158 -332l100 -188l69 -187q-11 -5 -23 -29q37 -48 69 -116l69 -101l58 -115 q25 -49 34 -116q-38 -44 -92 -86q-45 -38 -103 -58q-34 -40 -92 -58l-58 130q-6 59 -46 101l-57 116q-13 69 -46 130l-12 130l-80 86l-58 29v-72l-57 -130l-35 -145l-115 -245q-28 -54 -69 -101l-295 86l114 238q127 307 158 369l81 87l-12 101l35 29l53 90q-1 51 -23 101 l-53 126l-92 275l-58 115q-36 39 -92 207l57 101zM327 1583l-11 -43l23 -15q25 14 46 44zM30 1497l-34 -44l57 -29l11 58zM1183 1710l-11 -29q23 -78 57 -130q20 10 23 29l-23 130q-1 54 -34 101zM867 1381q13 -35 46 -44zM368 1337q1 -31 23 -57q-1 31 -23 57zM437 1265 l-12 -159l46 -14l12 14zM1157 1444l-34 -43l11 -58l-23 -29q4 -19 23 -29l58 145zM982 1207q6 -41 35 -72q-8 40 -35 72zM276 959l34 15l-11 57q-23 -33 -23 -72zM552 1121q-3 19 -23 29q4 -15 23 -29zM505 959q31 1 46 29zM80 1016q-38 -92 -92 -187q52 -33 126 -58 q42 15 81 58l-81 28l23 130zM925 962q10 -26 34 -29zM591 601l46 29q39 24 81 29q-90 5 -127 -58zM1258 900l-23 -88l12 -58l57 117zM33 1240q70 -50 104 -115l11 -15l46 15l-23 87q-46 67 -69 144q-46 -51 -69 -116zM1298 274l-23 -204l46 -58l23 174zM465 572 q25 -39 69 -58q-26 37 -69 58zM-45 537q20 22 23 61q-20 -20 -23 -61zM984 1045l69 -146q18 111 23 233zM1209 453q-40 -51 -58 -130l35 44l57 14l12 -14q-14 49 -46 86zM1041 762l58 72q-38 -27 -58 -72zM614 178q-24 -82 -69 -173q80 -35 161 -115q-12 78 -69 129 q15 48 46 87zM368 341q12 -35 46 -43zM230 165l11 -72q12 5 35 29l-12 57zM-62 390v-61h11l46 31zM1099 617l34 29q-25 -8 -34 -29zM1035 750l-11 -72h23v14zM26 555q39 -57 92 -116q-15 87 -92 116zM1127 634l23 -86l12 72zM727 1793l-23 -43l12 -29l57 57zM665 1692 l-23 -101l46 -29l23 86zM552 1770l69 -73q18 55 23 116zM860 322q58 -116 135 -234q-22 176 -135 234z" />
<glyph unicode="Y" horiz-adv-x="1108" d="M176 1836q85 -14 124 -124q39 -84 67 -193l67 -193l12 -110l89 14q27 84 79 193l79 165q43 72 78 166l146 69q67 -34 135 -83l23 -83l-68 -96q-30 -74 -56 -166l-101 -137q-45 -71 -90 -166q-47 -73 -90 -165q-42 -58 -56 -138q4 -85 23 -179l-23 -42l-22 -137l22 -42 v-165l-11 -41l11 -14q-3 -104 -79 -179l-146 -27l-112 82l23 96l11 179q10 78 33 166q-15 91 -22 220q24 71 18 251l-40 -44l-158 345l-45 193l-100 151l-34 124zM919 712l-11 -56h33l12 42zM318 1228q17 -49 56 -83q-17 50 -56 83zM38 671l-22 -69l56 28q-10 23 -34 41z M407 994l-11 -69l45 14zM486 842q3 -18 23 -27q-3 18 -23 27zM611 1650l-12 -46l12 -15l49 30zM439 1634q3 -19 24 -30q-3 20 -24 30zM777 836l-37 -61l49 -30l25 60zM231 1647h25v30h-13zM562 1589l-25 -45h37v45h-12zM327 1814q10 -66 74 -90q-22 55 -74 90zM674 1541 q19 -48 62 -75q-18 49 -62 75zM1019 550q-46 -77 -111 -151l-74 -60l50 -30q78 21 160 75l24 121zM75 846l-12 -75l37 15q-5 35 -25 60zM248 801q3 -20 24 -30q-3 20 -24 30zM366 756q19 -49 62 -75q-17 50 -62 75zM292 635l-24 -60l49 15zM34 348q9 -31 37 -45 q-11 30 -37 45zM785 182q1 -41 25 -90l24 75zM49 1336l-13 -76l13 -30v-30l37 15q-1 61 -37 121zM209 1336l-13 -46l25 -15l25 61h-37zM108 61l-37 -75l37 -15l37 75zM885 1579q-31 -76 -73 -151l-48 -60l32 -30q52 21 105 75l16 121zM863 974q19 -48 62 -75q-18 49 -62 75z M380 130q19 -48 62 -75q-18 49 -62 75zM489 290q19 -49 62 -76q-18 49 -62 76zM702 579l-22 -69l56 27q-10 24 -34 42zM739 754l-13 -76l37 15q-4 35 -24 61zM712 1243l-12 -75l12 -30v-31l37 15q-1 62 -37 121zM992 1158l-23 -69l57 28q-10 24 -34 41zM1029 1334l-13 -76 l37 15q-5 35 -24 61z" />
<glyph unicode="Z" horiz-adv-x="1098" d="M865 1819l64 -42l32 28q42 -20 74 -84l11 -153q-15 -61 -43 -125q-25 -38 -32 -97l-191 -320q-28 -65 -75 -111l-53 -112q-36 -44 -64 -111q-36 -48 -85 -97l-42 -139q-34 -33 -85 -56l-22 83l43 14l-74 84l-22 -70l32 -42q-11 -66 -42 -125q-36 -29 -54 -83 q37 -10 86 -14l10 69q37 28 85 28l117 -42q31 44 75 70l244 42q63 -3 128 -28l21 -111l11 -181l-53 -97l-85 -28l-22 41l-117 -41l-138 14l-96 -14l-32 28l-74 27q-11 -3 -21 -27q-36 -18 -85 -28l-22 41l-53 28l-32 -41l-32 -28l-95 14q-38 45 -64 111q-14 46 -21 111 l11 42l106 250l85 84q30 53 53 125q25 56 74 97l43 139q38 41 74 98l64 111q40 39 64 111q38 33 74 84q-29 53 -42 125l-53 42l-11 -42q-26 -32 -64 -42l-64 -42l-32 28l-234 -28l-53 -13q-2 13 -21 27l11 56l-22 97l22 42l21 167q56 30 117 42h298l32 -28l74 28l53 -14 l21 14h192v14zM703 1735l-11 -42l11 -13l42 27zM554 1721q3 -18 21 -28q-2 19 -21 28zM282 1362l-32 -56l43 -28l21 56zM309 1652h21v28h-10zM-118 1622l-21 -42h32v42h-11zM383 1554q8 -61 64 -83q-19 51 -64 83zM69 1223q17 -45 53 -70q-15 45 -53 70zM1149 1351 q-40 -70 -95 -139l-64 -56l42 -27q68 20 138 69l22 112zM639 1262l-11 -69l32 14q-4 32 -21 55zM788 1221q3 -19 21 -28q-2 18 -21 28zM877 781q17 -45 54 -69q-15 46 -54 69zM814 670l-22 -56l43 14zM139 456q8 -30 32 -42q-9 28 -32 42zM1149 680q1 -38 22 -84l21 70z M341 247l-11 -70l11 -28v-27l32 14q-1 56 -32 111zM479 247l-10 -42l21 -14l21 56h-32zM203 191l-32 -69l32 -14l32 69zM-80 1070l65 26q-55 76 -130 81q30 -64 65 -107zM-90 1667l22 68l-11 13l-33 -13zM546 482l40 -14q24 9 26 27l93 -13q98 19 173 54l-133 27 q-114 -1 -199 -41v-40zM-119 879l11 27h-22zM280 963l10 14q-7 23 -21 27zM30 691l11 27h-22zM65 812q-57 -40 -97 -94q77 11 97 94zM892 1445q21 24 21 53l76 -26q24 31 33 67l-33 27l-32 -14l-87 14q18 -62 22 -121zM443 628l22 -13l54 26l11 14l-11 40q-49 -10 -86 -27z M40 522l65 27l-10 68l-55 -41v-54zM519 1192v-13h21zM532 1407h33v27l-33 -13v-14zM888 844q33 -22 65 -27l-44 134l-87 14zM671 1071q-11 51 -44 81q18 -51 44 -81zM1049 739q-2 29 -22 40q6 -29 22 -40zM652 1407q-8 23 -22 27q7 -24 22 -27zM639 1610q-28 38 -65 40 q28 -38 65 -40zM779 1179q-7 22 -21 27q7 -24 21 -27zM-78 854q55 -25 108 -27l-21 40l-65 14q-18 -14 -22 -27zM899 1084l-33 -40q29 2 33 40zM1199 753l32 13l-22 54l-32 -41zM1040 695q-23 33 -54 40q23 -35 54 -40zM1051 842q-8 23 -22 27q7 -24 22 -27zM1115 343 q33 -37 65 -44l-43 223l-87 23zM106 783l22 -13l54 26l11 14l-11 40q-49 -10 -87 -27z" />
<glyph unicode="[" horiz-adv-x="569" />
<glyph unicode="\" horiz-adv-x="569" />
<glyph unicode="]" horiz-adv-x="569" />
<glyph unicode="^" horiz-adv-x="961" />
<glyph unicode="_" />
<glyph unicode="`" horiz-adv-x="682" />
<glyph unicode="a" horiz-adv-x="1164" d="M708 1577q80 -28 169 -81q27 -92 36 -188l49 -175l24 -201q50 -80 60 -189l24 -134q-29 -4 -60 -27q55 -25 109 -81l-61 -148q94 -1 121 -107q19 -78 24 -175q37 -66 60 -161q-12 -86 -84 -134l-121 -14l-48 14h-24v-14q-79 49 -97 162q-19 74 -24 174l-108 27l-37 -27 l-157 27q-12 -4 -24 -27q-65 -45 -120 -121l-49 -107l25 -67q-52 -69 -145 -94q-80 6 -169 40l-73 54l109 255q16 87 48 188l61 188l72 148l24 175l48 175q27 82 73 174q10 87 60 189q16 97 48 201zM660 1443q27 -23 60 -27zM805 1241l-36 -67l48 -14l24 27q-10 28 -36 54z M660 1214l-72 -121q14 -60 60 -108q0 -74 -24 -148l-36 -121l-25 -174q-31 -65 -48 -135l-36 -67l36 -27q47 41 109 81l145 -27l12 148q-6 61 -24 134l-37 148l37 94l-25 41q-20 53 -24 121q-45 25 -72 67l48 54q-4 27 -24 40zM503 1053q13 -21 36 -27q-10 19 -36 27z M634 571q-39 -65 -60 -148l48 13q42 50 72 121zM377 1283q-35 -54 -84 -107l48 -54l85 148zM925 555q3 -18 25 -27q-3 18 -25 27zM793 367q34 -34 72 -40q-32 28 -72 40zM672 -60q-44 -49 -109 -94q22 -36 61 -41l72 -40l24 40q-6 71 -48 135zM83 809l8 88l93 -7l116 59 l-56 47q-79 -5 -165 -46l-54 -47zM1082 152l-12 -67l37 40q-5 13 -25 27zM1081 1379q-39 -66 -60 -148l48 13q42 50 73 121zM925 300q-43 -49 -108 -94q22 -36 60 -41l73 -40l24 40q-6 71 -49 135zM332 253l36 -81l-85 -40l-72 -108l72 -13q66 42 121 121l24 67zM841 905 q-39 -66 -60 -148l48 13q42 50 72 121zM1253 688l-84 148l-48 -54q48 -53 84 -107zM431 636q-36 -55 -85 -108l49 -54l84 148z" />
<glyph unicode="b" horiz-adv-x="1138" d="M407 1675l140 -26l32 13l322 13q4 -13 22 -26l139 -81l43 -174l11 -135l-22 -40q0 -93 -21 -201l-75 -135q-54 -47 -97 -120q28 -55 86 -68q51 -49 97 -120v-417l-86 -147q-64 -41 -150 -67l-129 -40l-32 13q-71 -4 -140 -40h-515l-53 54l10 120q31 72 43 161l-11 54 l32 268l-11 81l43 201l-32 67l32 108l22 188q3 73 64 107q-63 47 -64 148l-22 67q20 46 54 94l150 67l97 -40zM628 1568q3 -17 21 -27q-2 18 -21 27zM467 1541q36 -34 86 -53q-36 34 -86 53zM649 1514l-21 -67q24 13 43 41zM1014 1434q4 -18 22 -27q-4 13 -22 27zM467 1353 q-65 -54 -161 -80q7 -85 86 -108q-7 -77 -32 -161l32 -40l32 -67l161 13q98 14 204 67q41 111 54 255q-58 87 -161 121l-108 -27zM939 1353l-21 -80q23 17 43 53q-4 14 -22 27zM209 1340l-10 -67l10 -27l54 27q-18 42 -54 67zM918 1246q3 -18 21 -27q-2 18 -21 27zM918 1192 q2 -35 21 -67l11 40zM317 1058l-11 -54l21 -13l22 40zM274 870q9 -24 32 -27zM725 763l-22 -81h86l11 81h-75zM252 695q-40 -37 -75 -94q41 -34 86 -40l75 -80l22 -41l-33 -107l-21 -40l32 -94l32 -27l76 54l32 -14l75 14h32l236 67l-11 107l22 27l-43 134q-50 36 -86 94 l-268 -27l-118 -53q-22 59 -65 120zM875 601q29 -33 64 -40q-27 29 -64 40zM929 413l-65 -134h43q34 53 54 121zM422 412q2 -73 32 -147q-2 73 -32 147zM735 91l22 -13l11 27l-22 13zM413 78l-21 -80l32 -27l11 80q-4 13 -22 27zM617 38h22v26h-11zM635 588q53 -42 124 -58 q-54 41 -124 58zM704 1294q2 -74 32 -148q-2 73 -32 148zM145 192q2 -74 32 -148q-2 74 -32 148zM466 1273l-21 -81l32 -27l11 81q-4 13 -22 27zM42 1239l-21 -80l32 -27l11 81q-4 13 -22 26zM1066 -5l-21 -80h85l11 80h-75zM1020 826l55 -26l63 98l-62 13zM27 799l-22 -80 q23 17 43 53q-3 14 -21 27zM145 1717l-22 -80q23 17 43 53q-3 14 -21 27zM1160 1584l-11 -68l11 -26l54 26q-18 42 -54 68zM-84 283l35 -55l25 -10l20 63q-39 14 -80 2zM970 -99l-127 -52l32 -32q56 13 111 49z" />
<glyph unicode="c" horiz-adv-x="1130" d="M752 1484q94 -16 201 -69q82 -37 153 -125l-12 -194q-32 -101 -118 -166q-72 61 -177 97l-59 41q-62 -5 -129 -27q-9 55 -36 110l-11 -69q-42 -85 -130 -138q-29 -96 -94 -194q-19 -102 -59 -222l70 -222q24 -94 95 -180q28 -40 70 -83l95 14l106 -14l271 83l12 -42 q33 -116 35 -263q-58 -75 -153 -124q-90 -31 -212 -42l-130 14q-24 -29 -59 -42l-94 70l-189 83l-177 360l-35 221l35 139l-23 97l23 208q19 100 83 208q18 95 59 194l118 166l389 83l-12 -55l59 -28zM764 1318l-24 -56l59 14q-10 28 -35 42zM540 1235v27h-12zM245 1221 l24 -14l12 41h-24zM446 1151q29 -51 82 -83q-29 48 -82 83zM304 1110q14 -22 36 -28q-10 20 -36 28zM245 777l59 -41q-24 29 -59 41zM104 542q19 -41 59 -70zM68 375l12 -41v41h-12zM175 181l-12 -83l47 -28l23 14l12 97h-70zM516 15q4 -18 24 -27q-3 18 -24 27zM198 -26 l35 -14l12 41h-23zM670 -54l11 -97q-22 -41 -23 -97q38 35 59 97q-5 58 -47 97zM422 -95l-23 -56l58 -28q-1 48 -35 84zM387 554l-24 -56l59 -28q-1 47 -35 84zM738 966l-24 -56l59 -27q-2 47 -35 83zM-24 1021l-24 -56l58 -27q-1 47 -34 83zM1100 1440l-24 -55l59 -28 q-1 47 -35 83zM1128 1145l12 -97q-22 -42 -23 -97q38 35 59 97q-5 58 -48 97zM157 1323l55 74q42 6 78 41q-47 12 -101 -10q-35 -41 -32 -105zM107 -395l55 74q42 7 78 42q-47 11 -101 -10q-34 -42 -32 -106zM23 -131l-12 -83l47 -28l24 14l11 97h-70zM822 275l-88 -75 l5 -69l30 -7l100 89zM1077 -248l-11 -83l47 -28l23 14l12 97h-71zM-5 1499l46 -64l48 25l6 30l-55 73zM492 871l-23 -55l59 13q-10 28 -36 42zM942 225l-23 -55l59 14q-10 27 -36 41zM58 1176l24 -14l12 42h-24zM678 1423l23 -13l12 41h-23zM888 606l24 -14l11 41h-23z M593 214l24 -14l11 42h-23zM482 324l24 -14l11 42h-23zM532 152l23 -14l12 42h-24zM440 555l104 -109l57 2l-9 35l-122 126zM1110 162l-48 -112l120 -56q-4 95 -72 168zM859 798l70 52l-97 90q-19 -63 27 -142z" />
<glyph unicode="d" horiz-adv-x="1148" d="M246 1736l335 -54l36 27l107 -27q64 -36 144 -55l95 -109q54 -36 96 -110l107 -109l36 -164l12 -218l-24 -178l24 -55q-20 -45 -36 -109q-16 -66 -48 -136q-20 -76 -59 -151l-72 -136q-52 -46 -119 -82l-120 -55l-311 -81q-41 27 -95 27l-167 -27q-53 18 -108 54l-12 41 l24 68l-12 55l-12 136l24 41q0 80 24 164q-19 72 -24 164l36 96q-25 10 -36 41l24 41l-24 123l48 95l-24 41l24 191l-24 178q2 80 24 178q37 59 107 95zM748 1531l-12 -54l36 27q-4 14 -24 27zM485 1490q4 -17 24 -27q-2 18 -24 27zM294 1381q-25 -18 -48 -55l72 14z M437 1354q-36 -82 -59 -178q27 -32 48 -82q-10 -45 -12 -109l12 -205l-48 -109l24 -41q9 -46 12 -110l-48 -81q18 -73 24 -164l179 13l155 41l156 314l23 328l-23 55l11 164q-66 34 -131 95l-155 69l-48 -14zM772 1354l84 -69l24 -41l59 41q-1 46 -36 69l-35 -14zM199 1012 l-12 -41l23 -13l24 41zM1035 903q18 -50 72 -82q-4 64 -72 82zM1023 739v-27l24 13zM234 712q5 -27 24 -41q-4 27 -24 41zM199 480l23 -41q-4 27 -23 41zM999 288l24 -13l12 27l-24 14zM270 261q-55 -36 -107 -96l95 14v-82q11 -31 36 -55l24 55v27h-12q-8 72 -36 137z M1240 1493q-56 -37 -108 -96l96 14v-82q11 -31 36 -55l23 55v27h-11q-8 72 -36 137zM1217 283q-71 -84 -127 -186l142 102l34 -72q30 -16 78 -14l15 70l-12 25l-18 -12q-42 56 -112 87zM448 1307q18 -50 72 -82q-4 64 -72 82zM426 351l102 -15l38 -23l36 68q-20 40 -60 41 l-26 -32zM686 -93l102 -15l38 -23l36 69q-20 39 -60 40l-26 -31zM429 1243l-12 -41l24 -14l24 41zM1217 133q-25 -19 -48 -55l72 14zM775 1203q18 -50 72 -82q-4 64 -72 82zM475 691q-28 -44 -23 -112q45 37 23 112zM72 1272q-28 -44 -23 -113q46 37 23 113zM-25 1677 q29 -81 115 -133q-5 104 -115 133zM944 1735l-12 -55l36 28q-4 13 -24 27zM1253 800l-12 -54l36 27q-4 14 -24 27zM35 616l18 204l-64 -70l-12 -247l46 40zM1235 384l99 170l-86 -27l-112 -212l58 10zM973 -24l131 12l-57 61l-157 -25l35 -46zM857 805l18 149l-65 -50 l-13 -181l48 29zM497 1062l-47 29l12 -181l66 -50l-19 149z" />
<glyph unicode="e" horiz-adv-x="1160" d="M1043 1729q53 -39 95 -97l-24 -166q-11 -58 -47 -111l-95 -28l-36 14h-167l-36 -28q-39 19 -95 28h-178l-96 27l-35 -13l-60 -56q5 -24 24 -42l95 14l12 -69l-24 -111l12 -42q29 -26 72 -28l59 -14q-25 -26 -47 -69q11 -31 35 -56l24 70q51 41 119 69l107 14l36 -14 l131 14q35 -44 59 -111l24 -42l-12 -97l-83 -111l-143 28l-262 -28l-166 56l-24 -112l12 -41l35 -56l-47 -41l35 -98l-23 -41l-60 -70l36 14l95 -28h36v14q34 25 83 42l36 -28l298 42l142 -14q55 -35 96 -97q-16 -73 -24 -167q-21 -56 -60 -111l-107 14l-36 -27l-35 -14 l-250 27l-72 -41l-35 28q-41 -18 -96 -28l-35 28q-29 32 -72 55v-55l-119 -42l-107 -14l-24 42q-11 31 -35 69l23 55l-11 167l47 139l59 55h-59l-36 42l36 83q-19 68 -24 139l72 264v42h-12q-10 71 -12 166l12 195l-12 153q20 56 24 124l59 98l250 -56q12 4 24 28l36 28 l71 -42q62 29 143 42l95 -28l36 28l83 -28l36 28q55 2 119 27zM472 1591l-12 -70l23 -14l12 70zM341 1563q10 -20 35 -28q-9 20 -35 28zM638 1549l12 -42l12 42h-24zM757 1535l131 -55q-58 37 -131 55zM495 1507l-12 -41h24zM269 938l-71 -153h71q33 47 60 111zM745 882 q10 -25 36 -27q-10 20 -36 27zM495 827l-35 -14l23 -56l36 42q-3 19 -24 28zM221 507l12 14l-35 14q4 -14 23 -28zM138 341l-24 -42l12 -28l60 14q-13 36 -48 56zM233 257l-23 -55q22 23 23 55zM448 216l-24 -111q3 -18 24 -28q17 46 24 111zM948 216q5 -28 24 -42 q-5 28 -24 42zM924 146q4 -18 24 -28q-3 19 -24 28zM674 118l-36 -55q34 16 36 55zM781 35l12 -28l36 28q-4 14 -24 28zM393 446l-23 -111q3 -18 23 -28q17 46 24 111zM1050 1317l-35 -13l23 -56l36 42q-2 18 -24 27zM1084 -20l-71 -152h71q33 47 60 111zM1138 376l-129 86 l-2 -83q40 -39 94 -72zM492 606l-130 87l-1 -84q39 -39 94 -72zM307 -106l-24 -42l12 -28l60 14q-14 36 -48 56zM-44 1633l45 -70l47 8l13 123q-58 -6 -105 -61zM9 958l-23 -41l12 -28l59 14q-13 35 -48 55zM411 1167l-11 -70l23 -14l12 70zM585 378q10 -25 36 -27 q-10 20 -36 27zM840 600l-24 -112q3 -18 24 -27q17 46 23 111zM614 1102l23 111q-3 18 -23 27q-17 -46 -24 -111zM866 1088q52 74 76 142q-29 15 -49 1l-76 -142z" />
<glyph unicode="f" horiz-adv-x="1077" d="M981 1739l152 -13l11 -70l-11 -13v-222l-24 -41l-175 -28l-246 28l-222 -28l-58 -55l11 -153l-35 -221l47 -28l176 56l105 -28q36 34 93 55l47 -27l117 27l12 -55q20 -46 35 -111l-24 -124l-58 -69l-129 27q-114 -26 -245 -27q-93 16 -187 97l11 -263l-11 -194l11 -42 v-55q-10 -113 -46 -235l-117 -55q-42 6 -82 28q-59 23 -117 69l23 96l-11 111l23 111l94 13q-14 30 -47 56l-59 193q13 109 59 222q-10 75 -35 152l58 69l-23 152l12 180l-12 42l23 41l-11 222l23 41q98 26 222 28l47 -28l117 28l23 -14l94 -14l35 14l35 28l23 14l12 -14z M665 1560q-3 18 -23 27q4 -14 23 -27zM747 1560l-35 -97l35 -28l12 97v28h-12zM314 1532q2 -30 24 -55q-1 29 -24 55zM244 1449l-23 -42l47 -13q-3 30 -24 55zM186 1311l-24 -56l59 14q-11 24 -35 42zM326 1283l-12 -42l24 -13l11 41zM221 895q18 -24 47 -27zM653 812 l-11 -41l35 -14l11 42zM197 785q-29 -47 -35 -111q42 30 94 42l47 -28l11 55l-11 28zM232 425q19 -59 59 -111q-14 62 -59 111zM471 571q-29 -47 -35 -111q41 30 94 42l46 -28l12 56l-12 27zM951 1334q-43 -22 -51 -57q60 11 136 11l69 -21l17 30l-17 17zM433 19l-24 -55 l59 14q-11 23 -35 41zM377 -90q-43 -23 -51 -58q60 12 136 12l69 -21l17 29l-17 17zM14 1105q21 -43 56 -53q-10 61 -7 137l23 68l-28 18l-18 -17zM86 1550l-35 -97l35 -28l12 97v28h-12zM777 216l-74 -55l185 14q-32 24 -111 41zM551 1265q2 -30 24 -55q-1 29 -24 55z M500 1063l-12 -42l23 -14l12 42zM793 465l-11 -41l23 -14l12 41zM723 1196q19 -59 59 -111q-14 62 -59 111zM576 191q19 -59 59 -110q-14 62 -59 110zM650 1336l-12 -41l23 -14l12 41zM911 284l16 33l104 44l-64 -84l20 -37zM872 -91l-33 16l-44 103l84 -62l36 20zM13 1699 l16 33l104 44l-64 -84l20 -36zM1123 18q-47 29 -111 35q30 -42 42 -93l-28 -47l55 -12l28 12zM-120 391l36 -20l84 63l-44 -103l-33 -17zM850 1115l37 -20l84 63l-44 -103l-33 -17zM56 -90l-20 -36l63 -84l-102 44l-17 33zM628 316l55 -24l-14 59q-24 -11 -41 -35z" />
<glyph unicode="g" horiz-adv-x="1168" d="M688 1504l94 -28l24 28l142 -28l118 -56l95 -83l35 -42l-23 -97l-12 -153l-107 -69q-53 18 -118 55l-83 97l-142 -27l-71 41q-11 -4 -23 -27l-119 -56l-106 -83l-47 -126q-36 -48 -95 -83l95 -56l-36 -111l-35 -69l47 -84l-24 -41l36 -153l130 -237l260 28l95 83l35 153 q0 57 -35 112q-51 -45 -118 -70q-51 21 -95 70l-24 125l48 139q37 37 94 55l154 -14l35 -27l71 41q61 -11 131 -41q30 -68 47 -153l-12 -125l12 -42q-35 -42 -47 -97q11 -74 11 -167q-10 -70 -35 -139l-71 -111q-44 -38 -107 -70l-106 -69q-63 -20 -142 -28l-130 -28 l-118 56q-62 9 -130 42l-83 83l-71 111q-41 49 -71 125l35 56l-47 41l-59 125l-11 112l23 41l-12 181l71 403q22 64 59 125l71 112l83 97l106 69l142 42l95 14l35 -28zM759 1365q11 -50 47 -84q-11 48 -47 84zM238 1254q12 -54 59 -84q-20 44 -59 84zM297 1240 q11 -20 36 -28q-10 20 -36 28zM167 809q-37 -43 -47 -112q38 43 47 112zM274 600q-3 19 -24 28q5 -14 24 -28zM912 489l-35 -56l71 42zM238 475q6 -35 36 -56q-11 32 -36 56zM1043 266l-36 -55q34 14 36 55zM830 16q13 -87 94 -111q-32 62 -94 111zM510 -95h24v28h-12z M688 -67l-36 -55l95 14zM581 -108q9 -27 36 -28zM368 -192v28h-11zM369 418l-23 -55h71q-14 35 -48 55zM421 892q-37 -42 -47 -111q37 43 47 111zM661 250l-35 -56l94 14zM1185 941l-35 -56l94 14zM132 1295l60 77l-110 17l40 -44l-23 -150zM1024 -248l-89 -39l88 -68 l-14 58l93 120zM537 195l-90 -38l89 -68l-14 57l92 121zM339 -312l-23 -56h71q-14 35 -48 56zM-14 145l-24 -56h71q-13 35 -47 56zM195 -295l-36 -56l71 42zM31 -88l-35 -56l71 42zM161 -256q-37 -42 -48 -111q38 43 48 111zM1082 899q-37 -43 -47 -111q37 43 47 111z M1249 1405q11 -50 48 -84q-11 48 -48 84zM1190 173q14 -88 95 -111q-33 62 -95 111zM632 1257q5 -44 40 -69q-10 42 -40 69zM930 1223l-14 -52h28l13 52h-27zM509 1188q7 -58 55 -86q-13 54 -55 86zM788 1023l-13 -69l13 -35l41 69zM645 1102l-13 -121l54 35q-12 46 -41 86z M509 964q17 -39 55 -52zM509 740q18 -61 68 -104q-24 63 -68 104z" />
<glyph unicode="h" horiz-adv-x="1148" d="M968 1737q57 -14 120 -56q28 -58 33 -138l-33 -305l11 -195l-11 -166l-33 -28l33 -83l-33 -430l11 -139l-11 -41l11 -139l-11 -41l-109 -55l-32 -28q-36 19 -87 28q-52 28 -88 82l11 125l33 139l-22 111l22 125q13 68 76 83q38 -17 87 -28l33 28q-25 31 -65 41l-33 -27 l-87 27q-39 52 -98 84l-87 -14l-33 14l-98 -42l-76 28h-22v-14q-36 -54 -55 -125v-208q-5 -86 -21 -180l-22 -42l32 -83l22 -42l-43 -82l-142 -28l-131 41l-32 42l43 249l-11 153l11 41l-11 97v236l22 180l11 42l-11 97v42q21 60 55 125q-24 71 -33 166l11 152q22 67 65 111 q50 39 109 56l142 -28l-22 -333l11 -41l-11 -125q-21 -70 -87 -97l76 -97l65 -28l33 42l142 27l76 -41l33 27q55 -23 98 -83q33 -33 76 -41l-33 97l33 27l-76 139l22 97l21 42q-10 50 -32 97q4 70 21 152q3 56 22 111zM184 1362l-33 -55l33 -28l32 69zM151 1210 q5 -27 22 -42zM162 1154q9 -48 44 -69q-15 40 -44 69zM216 960q5 -36 33 -55q-8 33 -33 55zM456 932l-11 -41h22l11 41h-22zM118 905q6 -47 44 -70q-10 44 -44 70zM325 849l-11 -55l11 -28l33 55zM1128 426l-11 -97l44 28q-9 37 -33 69zM118 724q14 -31 44 -41zM118 544 q15 -49 55 -83q-19 50 -55 83zM435 626l-33 -56l33 -27l33 69zM402 473q5 -27 22 -41zM413 418q9 -48 44 -69q-15 40 -44 69zM654 1327q4 -36 32 -55q-8 33 -32 55zM893 1300l-11 -42h22l11 42h-22zM556 1272q5 -47 43 -70q-10 44 -43 70zM763 1216l-11 -55l11 -28l32 56z M665 1202l-11 -97l43 28q-9 37 -32 69zM556 1092q13 -32 43 -42zM556 911q14 -49 54 -83q-19 50 -54 83zM407 235q-40 -65 -61 -148l49 13q41 50 72 121zM698 219q3 -18 24 -27q-2 18 -24 27zM614 569q-40 -66 -61 -148l49 13q41 50 72 121zM1026 352l-85 148l-48 -54 q49 -53 85 -107zM498 1504q39 65 60 148l-48 -14q-42 -50 -72 -121zM360 1081l99 128l-58 -145l54 -29l-46 -24zM632 -2l100 128l-58 -144l53 -29l-45 -25zM1151 135l-33 -56l33 -27l33 69zM1151 738l-33 -55l33 -28l33 69zM21 1308l-95 -459l78 124zM628 1473l71 75 l78 -219l-87 107zM1108 482l70 74l78 -219l-86 107z" />
<glyph unicode="i" horiz-adv-x="633" d="M615 1688l108 -55l72 42l36 -28l12 -316l-48 -137l-60 -97q53 -17 60 -82q-3 -60 -24 -124q1 -66 24 -137v-110l-48 -14l24 -123l-12 -124l-36 -124l12 -110l-12 -41l12 -164l-84 -83l-95 -14l-36 28l-144 14l-36 68l24 42l36 123l12 330v137h-12l12 14l72 13l-24 55 q-16 72 -24 165l24 151l48 97q-33 53 -48 123l24 152l12 41q-9 47 -12 110q2 64 24 123zM338 1563q4 -95 72 -165l24 82q-39 44 -96 83zM364 707l-12 -41l12 -14q36 14 60 55h-60zM218 1425l-12 -41l12 -14l60 28zM256 556q-35 -88 -36 -206l24 -138q31 78 48 179l-12 96 q16 3 24 28l-12 41h-36zM264 1133v-28l24 14zM432 1009q-48 -51 -84 -124q74 27 84 124zM883 561q-25 -35 -36 -82l48 -14l36 69zM639 919q-30 -26 -36 -69l60 28q-4 27 -24 41zM796 178l12 -109l-12 -42l24 -40q32 11 60 40l-24 97q26 0 48 27q-53 4 -108 27zM811 369 l-36 -69l60 -14l24 83h-48zM784 -55l-12 -41h24v41h-12zM420 187l12 -110l120 -55q-4 40 -24 82zM636 569q10 -25 36 -27q-10 20 -36 27zM772 -178q4 -18 24 -28q-3 19 -24 28zM564 377l12 -82l36 -28q-2 68 -24 137q-12 -5 -24 -27zM685 751l-12 -42h24l12 42h-24zM472 287 q21 -31 60 -42q-25 30 -60 42zM971 267l-36 -41l48 -28l12 42zM1007 212l-12 -41h24zM1 116v27h-12zM426 589l12 -110l120 -54q-4 39 -24 82zM590 1537q-25 -26 -25 -60l17 -40q22 22 34 52l-9 28q12 1 17 8l-8 12h-26z" />
<glyph unicode="j" horiz-adv-x="890" d="M630 1600l120 -28q52 -9 110 -41q-9 -20 -11 -55q-6 -93 -33 -193q21 -89 33 -193l-22 -207l22 -55l-22 -124q-4 -72 -22 -152l-11 -96l11 -41v-28h11l-11 -14l-44 -151q0 -75 -22 -152q-26 -74 -66 -151l-98 -110l-99 14l22 -42q-11 -3 -22 -27l-77 27l-98 -55l-33 28 l-121 69l-110 110q-16 81 -22 179q6 93 33 192q23 29 55 42l44 -69l110 -110l76 -55q19 5 33 27l88 124q47 50 110 97q-25 46 -44 110l22 41l22 331l22 41q-19 49 -22 110l-11 138q1 88 22 179q-20 75 -33 166q36 62 88 124zM138 988l-21 -42l10 -27q25 12 44 41 q-9 20 -33 28zM794 1428q3 -17 21 -27q-2 18 -21 27zM619 1379q2 -18 22 -27q-4 13 -22 27zM761 -121l-22 -69l55 28zM256 1401q25 -45 66 -69zM695 1338q4 -18 22 -28q-3 14 -22 28zM377 1332h22v28h-11zM338 903q-67 -24 -88 -111q65 26 88 111zM840 87l-11 -55 q22 -23 33 -28l11 83h-33zM146 712l22 -14l11 28l-22 14zM286 484l22 -96l-22 -42q31 -51 88 -82l-22 96l11 42q-32 45 -77 82zM717 663q4 -18 22 -28q-2 19 -22 28zM70 684l-11 -68l33 -14l22 14q-9 45 -44 68zM519 574l-44 -69l33 -41l33 83q-3 13 -22 27zM684 574 q5 -31 22 -55q-1 30 -22 55zM436 1194l-44 -55q4 -24 22 -41q17 42 22 96zM439 926l-44 -83l55 -14l33 55zM498 167l-33 -55q32 12 33 55zM597 84q9 -27 33 -41q-10 27 -33 41zM344 29q-2 18 -22 27q5 -13 22 -27zM146 64l-11 -55l22 -13l11 55zM443 29l-33 -55l66 -27 l33 54zM941 1041l21 -96l-21 -42q30 -51 87 -82l-22 96l11 41q-32 46 -76 83zM939 548l-44 -82l55 -14l33 55zM20 492l-43 -83l54 -14l33 55zM896 230l-33 -55l66 -27l33 55zM-22 1381l-33 -55l65 -27l33 55zM231 1218l-44 -82l55 -14l33 55zM889 1350l-44 -82l54 -14l33 55 z" />
<glyph unicode="k" horiz-adv-x="1141" d="M1 1655l231 -14l58 -191q-11 -4 -23 -27q-3 -111 -35 -232l-69 41q2 -58 23 -110q29 -33 46 -82q40 9 70 41q57 73 138 151l104 177q64 70 116 178l127 41l69 -41q77 -64 92 -192q-55 -76 -127 -150l-127 -164q-66 -59 -138 -150q-69 -66 -174 -96l-46 -68l23 -41l58 55 q52 -36 93 -96h-70l-81 -14l-23 14l-34 14l-35 -69l-139 28l-92 -96q11 -31 35 -68q58 54 138 68l-11 -96q16 -80 23 -177l-35 -178v-41h12l34 -150l-46 -68q-82 -10 -173 -41l-34 27q-104 21 -104 151l11 218l35 96l-23 40v96l35 137q-4 32 -23 54l11 41v246l-11 55l34 232 l-23 123l23 137l-11 136zM683 1273q10 -27 34 -41q-9 27 -34 41zM71 1204l-12 -41l23 -13l23 41zM-21 1095l-12 -41l34 -14q-2 31 -22 55zM359 1068q18 -23 47 -28zM452 1054l-35 -137h35v14l46 109zM117 1027l-58 -96l58 -27l58 109zM152 876l-24 -54l58 -41l23 68l-11 27 h-46zM13 794q6 -34 35 -54zM475 658q64 -23 127 -69l81 -109l69 -137l92 -109q38 -50 93 -95l23 -110l-35 -40q-32 -59 -92 -96l-81 -55l-35 28q-58 27 -115 82l-81 122l-46 123l-81 110l-127 259l115 68l81 -27q9 20 12 55zM452 494q-25 -27 -46 -69q39 18 46 69zM533 262 v27h-12zM798 139v27h-11zM94 152q7 -29 34 -54q-4 34 -34 54zM907 1143l-58 -96l58 -27l57 109zM245 217l58 -109l58 27l-58 96zM923 318l58 -110l58 28l-58 95zM598 859l-35 -137h35v14l46 109zM332 1686l-35 -136h35v13l46 110zM-233 1224l116 -41v41h-12l-92 55zM883 571 l-23 -54l57 -41l24 68l-12 27h-46zM552 -109l-47 -41l140 -14q-11 31 -93 55zM-166 -138l-46 -41l139 -13q-11 30 -93 54zM497 831l-12 -41l35 -14q-3 31 -23 55zM430 16l-34 -136h34v13l47 109zM1002 1406l-34 -136h34v13l46 110zM851 447l-35 -137h35v14l46 109zM1018 931 q-25 -27 -46 -68q40 17 46 68zM710 972q-25 -27 -46 -68q39 17 46 68zM306 1180q-25 -27 -47 -69q40 18 47 69zM408 1553l-11 -41l23 -13l23 41zM980 -107l-11 -41l23 -14l23 41zM1100 -50l-12 -41l23 -14l23 41z" />
<glyph unicode="l" horiz-adv-x="1019" d="M373 1690h116l58 -67q-4 -87 -23 -201l-12 -216l-12 -80l12 -27v-41l12 -26l-12 -14l-23 -175q0 -100 -23 -228l-23 -148l23 -54l-23 -188l127 30l162 14l139 -27l34 27l128 26l35 -26q28 -86 46 -138l-46 -148q-81 -35 -186 -40l-34 -27l-93 40q-83 -34 -185 -40h-116 q-19 39 -35 94q26 58 35 134q-67 -2 -81 -94l-23 -40l35 -94h-47l-185 -27q-27 86 -46 188l35 134l-24 41q20 94 24 201l34 216l-23 121l46 53q-26 87 -34 189l34 161l-11 40l35 68q-24 38 -35 94v201q4 25 23 41zM73 867l69 27q-59 76 -139 80q33 -64 70 -107zM-59 103 q34 27 46 67l-12 14l-34 -14v-67zM79 1286l23 68l-11 13l-35 -13zM542 428l34 -13q21 9 23 27l81 -14q86 20 151 54l-116 27q-100 0 -173 -40v-41zM160 1112l12 26h-23zM307 856l12 14q-8 22 -23 26zM319 923l11 27h-23zM357 1044q-61 -40 -104 -94q82 11 104 94zM287 90 l58 40l-11 54q-40 -13 -70 -41zM1088 1118q23 24 23 53l81 -26q25 31 35 67l-35 27l-35 -14l-92 14q19 -62 23 -121zM532 546l23 -14l58 27l11 13l-11 41q-53 -10 -93 -27zM52 415l70 27l-12 67l-58 -40v-54zM562 1085v-14h23zM577 1300h34v27l-34 -14v-13zM723 745 q36 -23 70 -27l-47 134l-92 14zM724 964q-12 50 -46 80q18 -51 46 -80zM646 681q-2 29 -23 41q6 -30 23 -41zM704 1300q-8 23 -23 27q8 -24 23 -27zM690 1502q-29 39 -69 41q30 -39 69 -41zM840 1071q-8 23 -23 27q7 -24 23 -27zM867 1418q59 -25 116 -27l-23 40l-70 14 q-18 -14 -23 -27zM967 977l-35 -40q31 2 35 40zM901 268l35 13l-24 54l-34 -40zM959 241v27l-35 -14zM1117 587q-24 34 -57 41q24 -36 57 -41zM1117 241q-8 23 -23 27q12 -22 23 -27zM1129 735q-8 23 -23 27q8 -24 23 -27zM88 -305l12 40q-8 24 -23 27l11 94q-16 99 -46 174 l-23 -134q0 -115 35 -201h34zM944 488q36 -23 70 -27l-47 134l-92 14zM982 -211q-12 51 -46 81q19 -51 46 -81zM1098 -103q-8 23 -23 27q7 -24 23 -27zM1225 -197l-35 -41q31 2 35 41zM1064 1347l23 -13l58 27l11 13l-11 40q-53 -10 -93 -26z" />
<glyph unicode="m" horiz-adv-x="1349" d="M211 1674l175 -41q37 -66 65 -150l11 -204l66 -177l-11 -137l43 -27l33 -82l-11 -150q37 -45 87 -82l11 55q31 86 77 177q7 96 76 177l-22 55l44 123q41 72 66 163l87 273l131 -14l120 28l33 -55l-22 -245l-44 -191l22 -137l-22 -54l22 -177l-22 -41v-218l-11 -41 l11 -205q-13 -58 -43 -109q9 -30 32 -68l-22 -245q-66 16 -108 4t-143 -18q-40 96 -43 218q9 59 32 123l-32 68q34 79 87 164q26 11 44 54l-55 14l-22 -28l-11 96l88 14q-10 75 -44 150q-8 38 -33 68l-11 -55l22 -27v-68l-87 68q-42 -82 -44 -191q-25 -96 -43 -218 q-47 -77 -77 -177q-20 -99 -54 -204q-43 -45 -99 -69l-32 55q-40 79 -44 190l-66 423q40 69 -76 109q-20 -80 -33 -177q-26 -94 -109 -109l-22 -28l11 -81q30 9 55 41q2 15 22 27l43 -27v-28h11l-11 -68v-27l-11 -55l11 -149v-41l-22 -68l-98 27q-50 3 -109 27 q-24 -12 -55 -41l-21 150l32 286q11 85 44 164l-44 191l33 54l-22 123q31 32 66 82l65 -28l77 -13l43 95l-43 28q26 42 43 109q-71 -21 -76 -109l11 -55l-33 -14l-98 14l-55 27l33 300l-11 41l22 27q3 81 22 178l-22 41q38 82 120 122zM277 1347q3 -94 65 -164l22 82 q-35 44 -87 82zM1128 1347l-11 -41l11 -13q33 13 55 54h-55zM167 1211l-11 -41l11 -14l55 27zM1030 1197q-33 -87 -33 -204l22 -137q28 77 43 177l-10 96q14 3 21 27l-11 41h-32zM342 1102v-28l22 14zM495 979q-44 -51 -77 -123q68 26 77 123zM1150 965q-23 -35 -33 -82 l44 -13l32 68zM724 679l33 -14l11 14h-44zM1084 774l-32 -68l54 -13l22 81h-44zM200 597l-11 -41h22v41h-11zM484 556l11 -109l109 -54q-4 39 -22 81zM680 543q10 -25 33 -28q-9 20 -33 28zM189 474q3 -17 22 -27q-2 18 -22 27zM615 352l11 -82l33 -27q-2 67 -22 136 q-11 -5 -22 -27zM102 93v27h-11zM357 21l11 -81l33 -27q-2 67 -22 136q-11 -5 -22 -28zM870 525l11 -82l32 -27q-1 67 -21 136q-11 -5 -22 -27zM1207 -213l-11 -41l11 -13q32 13 54 54h-54zM691 -128l-11 -41l11 -13q32 13 54 54h-54zM47 -271l41 -11l13 11q-13 33 -54 54 v-54zM81 -193l41 -10l14 10q-14 33 -55 55v-55zM793 -23l11 -109l-11 -41l22 -41q29 11 54 41l-21 95q23 0 43 28q-48 4 -98 27zM743 986q-20 27 -43 27l22 96q-26 30 -55 41l-22 -41l11 -41l-11 -109q50 23 98 27zM656 869l-33 -41l44 -28l11 41zM688 814l-10 -41h21z M584 1268l11 41q-7 24 -22 27l11 96q-15 100 -43 177l-22 -136q0 -118 33 -205h32zM-53 1561q3 -94 65 -164l22 82q-35 44 -87 82zM-106 820l11 -110l-11 -40l22 -41q29 11 54 41l-22 95q24 0 44 27q-48 5 -98 28zM1326 981q-22 -35 -33 -82l44 -13l33 68zM1267 496l11 -109 l109 -54q-3 40 -22 82zM1464 483q9 -25 32 -27q-9 19 -32 27zM1272 669l11 -81l33 -28q-1 68 -22 137q-11 -5 -22 -28zM797 1506l-11 -41l11 -13l54 27zM378 256q-14 -46 -22 -109l33 -13l11 13l22 69l-11 27zM1249 24q-13 -47 -22 -109l33 -14l11 14l22 68l-11 27z" />
<glyph unicode="n" horiz-adv-x="1191" d="M1109 1636l98 -81l22 -123l-11 -41l-11 -150l11 -95l-11 -28l-11 -40v-396l-22 -163q-3 -79 -32 -164l11 -123q-5 -24 -22 -40l-55 27l-11 -27l22 -14l66 -123l11 -95l-11 -27l-11 -41q-39 -46 -99 -82l-132 28q-37 44 -55 109l-66 108l-55 137q-28 64 -44 150l-65 109 l-33 40l44 69l-88 81l-44 150q-47 -28 -88 -81l-22 -96l33 -27v-164q-7 -60 -33 -122l33 -96l-22 -41q11 -73 11 -163l-22 -68l11 -27l11 -41l-66 -55l-33 28l-88 -28l-33 28q-61 16 -109 68l33 149l10 109l-10 28v163l10 27l-10 14l10 41l11 68l-11 55l22 177l-22 109 l22 27l22 164l-11 190l22 137q-15 44 -22 109l22 41q28 63 88 95l99 14l33 -14l88 -95l110 -259q14 -60 44 -123l65 -109q26 -67 44 -150l110 -259q4 -27 22 -41l-33 -82q7 -29 33 -54l11 82q30 39 55 95l-22 96q3 21 22 27h44l-44 82q-26 53 -33 122l22 123l-44 150 q28 65 44 136q-5 71 -22 150q29 58 77 109l66 -14l22 14q11 3 22 27zM252 1405q14 -31 44 -41zM384 1391q-45 -57 -88 -136q55 -20 99 -82l77 41l-22 54q-52 43 -66 123zM988 1200q10 -23 33 -41q-10 28 -33 41zM1043 1078q25 -42 66 -55q-23 38 -66 55zM318 1037l-55 -96 l33 -13l11 13l44 68q-9 20 -33 28zM1098 819q3 -31 22 -55l11 41zM999 682q-3 18 -22 28q4 -14 22 -28zM1032 600q9 -36 33 -68q-5 40 -33 68zM669 560h22v27h-11zM845 478v27h-11zM779 423q25 -60 77 -95zM878 410q27 -83 88 -164q-6 105 -88 164zM1032 355q2 -18 22 -27 q-3 18 -22 27zM252 301l22 -41q-4 27 -22 41zM329 164l-11 -68l66 55zM51 1289l7 -136l-21 -27q34 -45 79 -68l21 68l-43 -14l8 55q-6 83 -51 122zM1291 57l-6 137l18 27q-28 44 -65 68l-18 -68l36 14l-6 -55q4 -83 41 -123zM1240 506l6 -136l30 13l12 28l-6 82zM468 302 l11 -137l54 14l22 27l-11 82zM707 1607l11 -136l54 13l22 28l-11 81zM486 1692l11 -136l55 13l22 28l-11 81zM705 92q-45 -57 -88 -136q54 -20 99 -82l77 41l-22 55q-52 42 -66 122zM749 1007q27 -83 88 -163q-6 105 -88 163zM482 567q27 -83 88 -164q-6 106 -88 164z M878 1354l-55 -95l33 -14l11 14l44 68q-9 20 -33 27zM880 787l-11 -68l65 55zM1279 1633l-11 -68l66 55zM1268 1305q3 -72 22 -135l-33 -64q-20 -61 -22 -110l55 24l11 22q55 102 88 224q-49 38 -121 39zM519 -323q-3 50 -22 100l33 27q20 31 22 63l-55 9l-11 -9 q-55 -43 -88 -108q49 -48 121 -82zM77 186q-33 66 -88 108l-11 9l-54 -9q1 -31 22 -63l32 -27q-18 -50 -21 -99q71 33 120 81zM1392 967q23 18 33 41q-24 -13 -33 -41zM1304 831q40 13 66 55q-44 -17 -66 -55zM1254 613l6 -41q10 24 11 55zM1337 518q-11 -9 -12 -28 q9 14 12 28zM1289 340q13 32 18 69q-15 -29 -18 -69z" />
<glyph unicode="o" horiz-adv-x="1270" d="M704 1618q72 -8 152 -43l33 14l97 -14l175 -231l54 -172q38 -62 65 -144l22 -44l-22 -129l11 -188q-12 -94 -43 -187l-22 -173l-131 -288l-196 -215l-239 -87l-33 29l-152 29l-131 57l-163 245l-98 302l-11 116l22 43l-22 129l33 29l-11 130l54 216q37 65 109 101l-32 43 l32 86l76 145q52 37 98 100q57 26 120 72q70 2 153 29zM823 1474l-32 -72l65 -14l22 72zM693 1388q-52 -35 -98 -101q46 5 87 43q33 -35 87 -43q-27 60 -76 101zM921 1287l-11 -43h22l11 43h-22zM431 1244l11 -87l55 -14q-15 70 -55 129zM823 1244q-65 -72 -152 -116 l-174 -43q-30 -93 -76 -187l-55 -130l33 -57q-33 -105 -109 -173l-87 -58l98 -29l32 44q51 -84 88 -188q70 -39 130 -129l87 -44l98 15q73 50 163 86q9 73 33 159q34 98 54 230v173l-10 115q-37 81 -98 173zM388 1128q2 -61 33 -115q-7 59 -33 115zM1019 1128l-76 -57 q43 -5 87 -43l44 -29l-11 43l11 29q-18 37 -55 57zM1052 206q5 -36 32 -57q-9 33 -32 57zM769 106l-33 -58l55 -57l21 86zM355 62q-23 -16 -43 -57q34 11 43 57zM421 62q4 -28 21 -43q-4 29 -21 43zM671 -96v29h-11zM1100 449l-33 -72l66 -15l21 72zM774 1023 q-52 -35 -98 -101q47 5 88 43q33 -34 87 -43q-27 60 -77 101zM507 615l11 -87l54 -14q-14 70 -54 129zM463 499q2 -61 33 -115q-7 59 -33 115zM1296 103l-76 -58q43 -4 87 -43l43 -28l-11 43l11 28q-17 37 -54 58zM823 782l-32 -72l65 -14l22 72zM619 702l-11 -43h22l11 43 h-22zM686 373l-76 -57q43 -5 87 -43l43 -29l-11 43l11 29q-18 37 -54 57zM262 1596l10 -86l55 -15q-15 70 -55 130zM218 1481q2 -61 33 -116q-7 59 -33 116zM99 -211q2 -61 32 -115q-7 58 -32 115zM142 -96l11 -86l54 -15q-14 70 -54 130zM1083 -114l-32 -58l54 -57l22 86z M-71 96l72 21l-14 66l-72 -33zM517 733q-9 54 -43 87q38 41 43 87q-66 -46 -101 -98q41 -50 101 -76zM1127 1565l43 11v22l-43 -11v-22zM827 -287q59 -39 129 -54l-14 54l-86 11zM1086 -265q-54 31 -115 33q56 -26 115 -33zM1343 1435l29 11l43 -11l-29 43q-38 44 -43 87 l-58 -76q21 -36 58 -54zM-10 612q-40 -60 -55 -130l55 15l10 86zM-23 1279q-39 -60 -54 -130l54 15l11 86zM-1 1019q30 55 32 116q-26 -57 -32 -116z" />
<glyph unicode="p" horiz-adv-x="1207" d="M615 1754l192 -28l145 -71q80 -5 109 -112l51 -85q35 -66 63 -155l-28 -366q-20 -84 -56 -169q-44 -60 -105 -113q-72 -50 -153 -84q-76 -24 -167 -29l-153 -84q-74 12 -145 56q-34 -38 -46 -84l13 -57l-30 -267l13 -29l2 -84q-41 -84 -130 -98l-83 -28l-96 28l-73 84 l22 70q11 85 44 169l-15 127q20 13 35 42l-44 395l55 183l23 42q-22 59 -27 127l19 226l57 98q-17 11 -48 14q3 94 32 198q75 23 166 28h144l36 -14l12 14zM618 1627l-23 -42l12 -28q27 12 47 42q-10 21 -36 28zM846 1557q4 -19 25 -28q-3 18 -25 28zM130 1529l-23 -71 l59 28zM261 1529q28 -46 73 -71zM394 1458h24v28h-12zM312 1402q-72 -24 -93 -113q70 26 93 113zM563 1402l-143 -28l-59 -29l25 -56l-33 -113l26 -84l-48 -14q-8 -65 -33 -127q33 -53 51 -127q14 -47 61 -56q43 39 106 56l96 14l118 42l94 71l45 127q-7 85 -28 169 q-16 61 -62 113l-72 28l-24 -28zM954 1021l-10 -56q24 -23 36 -28l10 84h-36zM157 824l25 -14l11 28l-24 14zM194 810l26 -99l-23 -42q35 -53 97 -84l-26 98l11 43q-36 46 -85 84zM74 796l-10 -70l36 -15l24 15q-10 46 -50 70zM567 683l-46 -70l37 -42l34 84q-5 14 -25 28z M747 683q5 -32 25 -56q-2 30 -25 56zM237 500l-47 -56q5 -24 25 -43q18 44 22 99zM238 416l-45 -85l60 -14l34 56zM172 162l-10 -56l24 -15l11 57zM442 -46l10 55q-24 24 -36 29l-10 -84h36zM566 1088l-25 14l-11 -28l24 -14zM529 1102l-26 98l23 43q-35 53 -97 84l26 -98 l-11 -43q36 -46 85 -84zM649 1116l10 70l-36 14l-24 -14q10 -46 50 -70zM700 102l47 71l-37 42l-34 -84q4 -14 24 -29zM521 102q-6 33 -25 57q2 -31 25 -57zM1074 -41l46 56q-5 24 -24 42q-18 -44 -22 -98zM1152 194l46 85l-60 14l-35 -57zM962 322l10 56l-24 14l-10 -56z M911 474l41 -11l19 21l-41 11zM-154 1646l44 -74l-39 -32q60 -40 165 -63l-44 74l19 31q-61 35 -145 64zM770 453l-17 -53l61 -11l40 11q-17 34 -84 53zM1045 230l-79 -42q9 -18 42 -32q30 33 37 74zM-73 1135l-46 -56q5 -24 25 -42q17 44 21 98zM-71 1051l-46 -85l60 -14 l35 57zM-137 797l-10 -56l24 -14l10 56zM690 1005l-10 -56l24 -15l11 57zM1173 1674l-46 -85l60 -14l35 57zM1246 1500l-47 -56q6 -24 25 -42q18 43 22 98zM-171 453q28 -46 73 -71zM-38 382h24v29h-12zM-120 326q-72 -24 -93 -113q70 26 93 113zM757 -54l84 31l36 -27 q45 41 71 115l-83 -31l-36 13q-40 -42 -72 -101z" />
<glyph unicode="q" horiz-adv-x="1301" d="M577 1760h191q72 -18 157 -57q55 -34 112 -86l90 -128q42 -59 78 -143q32 -90 45 -199q17 -99 23 -214l-56 -414l-124 -328q-50 -46 -89 -129l78 -227l-56 -58l-135 -71l-112 -28l-11 71q-25 68 -45 157l-123 43l-112 -15l-34 29l-134 57q-56 47 -113 114 q-55 44 -101 114l-89 299l22 43v129q-10 31 -34 71l45 185q10 94 34 200l67 157q43 58 112 100l57 171q72 12 145 57zM656 1646q-74 -27 -79 -114q63 27 79 114zM591 1130q38 12 53 50zM1230 1736l-34 -171l101 -29l-22 86zM839 1064l40 33q-29 -9 -40 -33zM494 963l-78 66 l-39 -83l39 -49l117 33l26 16l92 -16l13 99zM712 1503l-34 -100q25 42 34 100zM510 1289q-13 -67 -56 -128l-123 -214l-11 -43l22 -214l-11 -43q4 -67 33 -142q34 -35 68 -86q28 -47 78 -86l34 -14l90 14l-34 -85l56 28q30 -37 78 -42q-18 59 -67 99l-67 100l-11 114l22 29 l101 57q38 10 90 14l11 -57q19 -61 56 -114q34 30 67 86q8 60 34 128l-11 100l22 157q-15 60 -45 128l-45 129l-78 71q-34 36 -45 100q-38 -38 -90 -71l-78 -29q-3 14 -23 29q-22 31 -67 -15zM1353 1579q9 -27 34 -28zM1398 1565q2 -20 23 -29q-4 15 -23 29zM1253 1465 l-34 -57q30 15 34 57zM408 748l66 -16l13 99zM420 1275q10 -20 34 -29q-9 21 -34 29zM297 1218q18 -25 45 -29zM1116 1218q4 -28 22 -43q-4 29 -22 43zM552 665q30 1 39 33zM981 1161q5 -33 23 -57q0 30 -23 57zM230 1118l-11 -100l33 -28l11 71l-11 29q-2 19 -22 28z M526 549q23 -53 52 -83l13 17l-13 83zM1161 1018l-23 -71q14 -28 45 -43l22 100zM146 1019q-9 -77 -44 -157h44l45 71zM106 776q18 -26 45 -29zM1026 647l-22 -71l44 14q-4 33 -22 57zM42 -78q22 12 26 33q-23 -11 -26 -33zM1116 533l-23 -57l45 14zM-12 1696l33 -114 l-49 -29q15 -28 49 -42l66 142zM29 -244q43 28 52 83q-36 -34 -52 -83zM824 448h23l-12 28zM1243 460q-19 -35 -34 -86l13 -57q-7 -74 -41 -143l-76 -71l-21 -71q17 2 28 28l69 29l76 85l28 143zM104 1582q28 -53 99 -86q-7 74 -99 86zM302 1511v-29l33 14zM103 168l-23 -86 q10 -20 34 -28l22 86zM566 105q10 -28 34 -43q-10 29 -34 43zM1091 -67l65 -16l13 99zM1235 -150q29 1 39 33zM1208 -266q24 -53 53 -83l13 17l-13 83zM789 -39q17 -26 45 -29zM1408 1390q5 -28 23 -43q-4 28 -23 43zM1274 1333q4 -33 22 -58q0 31 -22 58zM1319 819l-23 -71 l45 14q-4 33 -22 57zM868 767l-22 -72q14 -28 45 -42l22 100zM867 1028l-80 -107q-6 -56 18 -99l102 156zM1406 127l-80 -107q-6 -55 18 -99l102 156zM270 -7l-79 -108q-6 -55 18 -98l102 155z" />
<glyph unicode="r" horiz-adv-x="1232" d="M717 1673l203 -55q83 -23 169 -97q52 -92 79 -221l11 -193q-11 -3 -23 -27l-11 -42l-23 -248l-135 -152q-38 -27 -90 -41l-56 110l-68 -97l34 -27q4 -117 68 -221l135 -152q47 -90 124 -179l-90 -179q-84 -37 -192 -42q-47 92 -124 166q-34 95 -101 207q-55 87 -90 207 q-58 66 -124 165l-45 42l-23 -69l57 -14l-91 -207q3 -123 23 -276l-23 -179l-90 -14q-93 8 -202 55l-45 69l45 138v138l22 152q5 100 34 220q-21 6 -34 28l45 235l-22 41l45 179l-23 207l11 42q9 91 34 207q89 61 203 69l169 27l34 -13l157 13q12 4 23 28zM424 1507l-34 -41 l45 -28l12 56zM604 1480q4 -18 23 -28q-3 19 -23 28zM300 1425l-11 -97l79 -14q-24 63 -68 111zM739 1411q-43 -60 -101 -97h-169q-37 -41 -56 -96l-11 -111l22 -27l-68 -125l23 -69l-34 14l-22 -27q24 -44 67 -83q47 -5 79 -42l45 -41l-11 69l124 28l135 55l79 96l45 152 q-19 67 -56 124q-43 44 -102 83l45 69zM931 1342l-11 -111l34 28q-5 40 -23 83zM-19 1240q0 -47 33 -82q-4 48 -33 82zM931 983l-34 -55q33 11 34 55zM-53 1116l11 -41l34 27q-3 19 -23 28zM548 748l-34 -55l23 -138l45 -14zM289 707q10 -20 34 -28q-10 20 -34 28zM210 624 l-34 -83l45 -13l45 69zM706 583q3 -18 22 -28q-2 19 -22 28zM278 486l-34 -69l34 -14q23 29 33 69zM210 348q20 -30 56 -55l23 41zM557 1633q10 -27 34 -42q-10 28 -34 42zM526 875l34 42l-45 27l-11 -55zM346 903q-3 18 -22 28q2 -19 22 -28zM650 958l11 97l-78 14 q23 -63 67 -111zM650 1165l-22 14l-12 -41h23zM740 1317q-3 18 -22 28q2 -19 22 -28zM774 1400q-1 47 -34 83q4 -49 34 -83zM808 1524l-11 41l-34 -27q2 -19 22 -28zM709 157l34 55l-23 138l-45 14zM968 198q-10 20 -34 28q9 -20 34 -28zM1047 281l34 83l-45 14l-45 -69z M551 322q-3 18 -22 28q2 -18 22 -28zM979 419l34 69l-34 14q-23 -29 -33 -69zM1047 557q-20 30 -56 55l-23 -41zM424 -37l-34 -42l45 -27l12 55zM604 -65q4 -18 23 -28q-3 19 -23 28zM557 87q10 -27 34 -41q-10 28 -34 41zM774 -145q-1 47 -34 83q4 -49 34 -83zM808 -21 l-11 41l-34 -27q2 -18 22 -27zM19 1694q10 -19 34 -27q-9 20 -34 27zM-59 1611l-34 -82l45 -14l45 69zM8 1473l-33 -69l33 -13q23 28 34 69zM1246 905l23 -42q36 25 56 55zM1224 1043q10 -41 34 -69l33 13l-33 69zM1269 1167l45 -69l45 14l-34 82zM1212 1250q24 8 34 27 q-24 -7 -34 -27zM1243 179l42 -34l27 45l-55 11zM1271 359q18 3 27 22q-18 -2 -27 -22zM1118 311q27 10 41 34q-27 -9 -41 -34zM1351 529q-47 -1 -83 -34q49 4 83 34zM1227 563l-42 -12l28 -34q18 3 27 23zM-75 273l33 55l-22 138l-45 14zM-40 779l-34 -55l23 -138l45 -14z " />
<glyph unicode="s" horiz-adv-x="1109" d="M371 1506l126 -29l34 29l310 -57l91 -43l92 -72l46 -71l-34 -158q-31 -57 -46 -129q-34 -36 -80 -57q-71 73 -172 143q-40 46 -92 72l-80 -14l-23 28q-127 0 -150 -157q31 -47 58 -115l92 -71q98 -32 206 -101l80 -86q41 -24 81 -71q58 -92 114 -229l12 -172l-35 -129 q-44 -99 -114 -214l-92 -86l-80 -29l-23 15l-184 -43l-69 -29l-23 43l-126 29l-206 100q-46 31 -80 86l-11 142l56 258q55 -6 115 -43l103 -57q79 -76 195 -115l115 -14l92 57q63 55 91 186q36 41 69 101l-69 14l-22 -29l-12 -86q-64 38 -126 115l-218 100q-77 54 -161 143 q-41 33 -80 86q-28 40 -46 101l-34 171l69 244q33 41 69 100zM577 107l-23 86l-12 15l-11 -29l11 -86zM451 1291q8 -30 34 -43q-9 29 -34 43zM359 1248q16 -30 46 -43zM199 1234q36 -53 91 -86q-20 76 -91 86zM588 279q-24 -15 -34 -43q26 12 34 43zM462 279 q-20 -10 -23 -28q20 9 23 28zM405 1177q3 -19 23 -29q-4 14 -23 29zM359 1062l-34 -86q29 34 34 86zM187 819q1 -29 23 -43q-4 29 -23 43zM382 805l-46 -58l35 -28q22 20 45 57zM818 289l-12 -57l23 -14l46 14q-20 33 -57 57zM760 -52l-68 -29q31 -35 80 -57q28 7 46 43z M130 -11l-12 -100q10 -21 35 -29l11 100zM122 329l47 72l2 31l-17 -8l-57 -68zM407 288q5 31 -12 54q-4 -30 12 -54zM509 288q-1 35 -24 58zM660 232q-11 63 -46 117q-15 -78 46 -117zM173 463q3 30 -13 54q-6 -32 13 -54zM282 427q5 18 -8 36q-6 -19 8 -36zM498 372 q5 19 -9 36q-2 -15 9 -36zM447 701l68 63q-41 -17 -68 -63zM707 848q12 26 -2 48q-9 -27 2 -48zM537 944l66 32l-19 41q-29 -9 -66 -32zM-9 -344l46 -14l23 14l-12 57q-37 -24 -57 -57zM1049 855l-69 -29q31 -35 80 -57q29 7 46 43zM976 -226l-12 -100q10 -20 35 -29l11 101 zM99 1497l-11 -100q10 -21 34 -29l11 100zM990 917q9 -30 35 -43q-10 29 -35 43zM899 874q15 -31 46 -43zM738 860q37 -53 92 -86q-20 76 -92 86zM1162 846q4 -19 23 -29q-2 19 -23 29zM945 803q3 -19 22 -29q-3 14 -22 29zM104 628l-68 -28q31 -36 80 -58q28 7 46 43z M218 619q4 -19 23 -29q-2 19 -23 29zM0 576q4 -19 23 -29q-4 15 -23 29zM1045 580l-12 -86l12 -28l11 14l23 86zM1168 163l-12 -86l12 -28l11 14l23 86zM-101 48l46 -14l23 14l-11 57q-38 -24 -58 -57zM682 -175q22 23 23 58zM1040 1434q-11 63 -46 117q-15 -78 46 -117z M686 -237q13 17 8 36q-11 -21 -8 -36zM19 735q10 -26 28 -31q-9 27 -28 31zM-52 1333l57 -11l14 23l-14 46q-33 -20 -57 -58zM-31 282l-72 63l-31 2l8 -22l68 -77zM9 662q-30 7 -53 -17q30 -4 53 17zM10 797q-34 -1 -58 -31zM4 1175q-62 -10 -116 -46q78 -15 116 46z M-129 496q-18 6 -35 -11q18 -8 35 11zM-74 783q-18 6 -36 -12q15 -3 36 12zM1158 1101l47 73l2 31l-16 -8l-58 -68z" />
<glyph unicode="t" horiz-adv-x="1176" d="M933 1715l151 -21l22 -43l7 -170q-5 -99 -64 -194l-325 58l-25 -41l-17 -183l-60 -68l69 -45l-52 -181l44 -115l-37 -54v-409l-12 -28l-38 -111q14 -20 22 -57l10 -43l-15 -126l-58 3l-200 -19q-67 58 -89 159l53 195l-7 183l13 42q16 93 52 195l-57 59l27 126l17 182 q27 92 40 196q-19 76 -78 130l-305 -42l-44 59q-2 92 -18 212q26 98 109 136l187 5l34 -16l82 11l70 -4l305 14l34 -30q76 4 153 35zM426 1570q12 -32 46 -44zM40 1279l-25 -55q30 4 59 25zM214 1510l34 -30q-9 21 -34 30zM76 1188l9 -85l82 10l23 -15l105 -33l36 41l-33 72 l-72 -53zM1097 1074l-1 -28l24 13zM535 1016q0 -33 21 -57q-3 33 -21 57zM958 1254q-26 -64 -96 -66l-106 -52l-48 -40l46 -30l84 95l56 -102l34 -15l83 24q-22 45 -56 87l37 69q-9 21 -34 30zM558 1268l9 -85l59 11zM775 525l-40 -153q8 -74 67 -102l28 140zM-99 1346 l-36 -55l57 -17l25 42q-16 20 -46 30zM65 926q13 -3 22 -30q-13 3 -22 30zM461 1160q8 -28 35 -30zM470 1046l-14 -69l12 -15q26 24 48 68zM617 618l11 -15l36 26l-35 16zM833 709q32 -43 97 -73q-31 45 -97 73zM1053 159q-25 -14 -48 -54l58 -17l12 14q0 30 -22 57z M539 592q3 -18 23 -29q-2 19 -23 29zM143 888l-22 -56l59 -15l22 41zM198 271l-13 -56l35 -2l13 42zM1073 676l-14 -69l11 -29l59 11l13 70zM525 494q7 -47 44 -73q-13 43 -44 73zM302 209l-1 -28q31 3 47 12zM-4 299l-3 -71l119 11zM842 469l57 -58q-6 36 -57 58zM942 452 q16 -20 59 -29q-16 21 -59 29zM-51 113q14 -3 23 -29q-14 3 -23 29zM898 383q4 -27 38 -43zM787 3l1 29h-12zM-48 0l-14 -56l58 -17l12 14q-19 35 -56 59zM911 242l-63 -55q48 16 63 55zM826 131l1 29h-20zM662 65q3 -19 38 -29q-3 19 -38 29zM952 868l12 -13l58 17 q-23 39 -48 54q-22 -27 -22 -58zM1269 1096l57 97q-51 -37 -57 -97zM1168 1146q42 10 59 30q-44 -9 -59 -30zM1232 976q34 27 38 72zM1320 720l-63 91q15 -65 63 -91z" />
<glyph unicode="u" horiz-adv-x="1217" d="M1066 1633l114 -57l34 -86l-23 -43l-11 -29l23 -71l-12 -29l-34 -115q18 -57 23 -129l-11 -143l22 -43l-34 -71l-11 -187q-11 -67 -34 -143l-12 -72l23 -28l-11 -29l11 -158l-91 -257l-69 -100l-216 -101q-56 -14 -126 -14q-39 -10 -91 -14l-23 28q-63 12 -125 43 q-41 10 -80 43l-171 172l-23 157l-34 115l-11 186l23 158l-12 129l12 43l11 114l-11 29q7 52 45 86l-23 100q-11 63 -11 144q24 29 34 71l-23 29l-11 115l11 28q34 50 92 86l79 29l35 -14q67 -3 136 -29l12 -29l-12 -71l12 -29h-12l-11 -43l11 -115q-14 -62 -45 -129l23 -86 l-35 -28l35 -158q-3 -61 -23 -129v-186q-1 -60 -23 -129l68 -301l103 -57l68 28l23 -28l114 57l103 -57l11 86l-34 28q-23 53 -23 115l46 416l45 -15h46l-46 58q-46 1 -68 57l23 100l-12 43l-22 43l34 72l11 86l-23 157l12 29l11 43l-11 143l102 58l57 -15l23 15q12 3 23 28 zM-40 632l34 -43l22 58l-45 14zM568 1447q13 -32 46 -43zM-17 862q15 4 22 28q-15 -3 -22 -28zM-168 -98l80 -14l11 100q-52 -30 -91 -86zM363 1375l34 -28q-9 21 -34 28zM787 747l-33 -91l41 -46l25 46l-16 137l-9 30l9 107l-50 15zM96 1277l91 -14l-22 43q-33 -6 -69 -29z M1009 1275q-31 -75 -57 -172l34 29l80 114zM3 -98l11 29l-34 14v-29zM268 1160q18 -25 46 -28zM705 1146l12 -86l57 14zM336 1031h23v29h-11zM-100 1182q8 -28 34 -29zM128 -213q15 5 23 29q-15 -3 -23 -29zM196 -256q39 1 69 43q-40 -4 -69 -43zM393 1277l45 -43 q-9 41 -45 43zM-88 1067l-12 -72l12 -14q25 26 45 72zM495 274l34 14l-22 43q-16 -3 -23 -28zM279 788q5 -28 23 -43q-4 29 -23 43zM-127 940l45 -43l114 29l11 57zM268 659q28 -67 80 -115q-30 64 -80 115zM621 460q16 13 22 43q-16 -11 -22 -43zM952 630l-11 -57l34 14z M1134 -136l68 -43l11 57l-57 58zM9 1141q15 4 23 28q-16 -3 -23 -28zM1150 -38q3 -18 23 -29q-3 20 -23 29zM1248 -50l57 -43l11 43q-24 29 -57 43zM72 -172q34 -44 80 -57zM-19 -200q23 -47 68 -86q-19 49 -68 86zM1138 -138q8 -48 46 -72q-14 42 -46 72zM1362 -136 q25 26 45 72l-34 28zM895 258l-23 -58l46 15zM1077 1191q22 13 34 43q-23 -12 -34 -43zM325 57q10 -33 46 -57q-10 37 -46 57zM564 57l-22 -71l91 -72q-22 77 -69 143zM692 351q15 4 23 29q-15 -4 -23 -29zM760 308q39 1 69 43q-40 -5 -69 -43zM1059 838l35 15l-23 43 q-15 -4 -23 -29zM1185 1024q16 13 23 43q-17 -11 -23 -43zM636 392q34 -44 80 -58zM1459 822l-23 -58l46 15zM889 621q10 -33 46 -57q-10 37 -46 57zM1368 1204l-23 -72l91 -72q-22 78 -68 144zM519 1342q-31 -74 -57 -171l34 28l80 115z" />
<glyph unicode="v" horiz-adv-x="1104" d="M115 1702q55 -19 126 -28q36 -45 64 -111l21 -291l31 -139l11 -125l32 -42l-43 -166l32 -28q9 -67 32 -139q-26 -57 -74 -97l53 -28l31 -28l-21 -97l53 -27l84 -14q-13 40 -42 69l32 56q-23 11 -42 41l42 125l10 153l43 139l95 27l-74 56q8 71 31 153l53 305l32 111 q18 51 63 83l190 42l32 -28l74 14q14 -13 21 -42l-32 -138q-28 -54 -53 -125q-23 -42 -63 -56l-21 42l-32 -56q36 -52 53 -125l-42 -138q-14 -64 -42 -139l-32 -139q-22 -63 -32 -139q-27 -64 -42 -139l-63 -111q-22 -63 -32 -139q-23 -61 -32 -138l-31 -125 q-22 -65 -64 -111l-116 -28l-95 28q-40 29 -73 83l10 69l-10 56l-43 125q-12 68 -42 139l-21 291l-42 125l-74 430q-22 57 -32 125l-20 97l10 42q-13 65 -42 139q14 56 52 97l74 -14zM854 1494l-22 -70l43 42q-3 18 -21 28zM769 1299l-10 -55l21 -14l10 56zM231 1230 q4 -58 42 -111q-5 55 -42 111zM759 1202q3 -18 21 -28q-3 19 -21 28zM363 1711l-11 -55l21 -42q24 36 32 69zM116 480l-11 -55h22v55h-11zM695 675q1 -57 42 -97q-7 55 -42 97zM53 189l-21 -42l10 -28l42 42zM495 272q16 -24 42 -28zM780 1313q10 -29 34 -44q-9 29 -34 44z M168 1239l-12 -44l23 -15l23 44zM75 1121l-11 -44l34 -15q-2 33 -23 59zM456 1091q18 -24 47 -29zM549 1077l-35 -148h35v15l46 118zM214 1047l-58 -103l58 -30l58 118zM-14 676l-23 -59l58 -44l23 74l-12 29h-46zM549 472q-25 -29 -46 -74q39 19 46 74zM630 221v29h-12z M895 88v29h-11zM191 103q7 -32 34 -59q-4 37 -34 59zM541 1498l-58 -103l58 -30l58 118zM342 173l58 -118l58 29l-58 103zM1020 281l58 -118l58 30l-58 103zM695 866l-35 -148h35v15l46 118zM-136 1261l116 -45v45h-12l-92 59zM980 555l-23 -59l57 -44l24 74l-12 29h-46z M594 836l-12 -45l35 -15q-3 33 -23 60zM1099 1457l-34 -147h34v14l46 118zM948 421l-35 -148h35v15l46 118zM1115 944q-25 -29 -46 -74q40 19 46 74zM807 988q-25 -29 -47 -74q40 19 47 74zM402 1212q-24 -28 -46 -73q40 19 46 73z" />
<glyph unicode="w" horiz-adv-x="1390" d="M280 1695q75 -30 104 -125l-24 -83l31 -56l-12 -41l-9 -278l-15 -125l21 -42q-6 -70 -38 -72q4 -31 9 -356l90 317q26 84 38 181q20 96 81 180l-4 195q43 50 68 125l-18 97l77 55q38 10 87 14l85 -41q28 -100 25 -236l29 -125q-11 -37 -35 -70l41 -97l-45 -55l52 -56 l-25 -111q-1 -107 48 -208q28 12 55 41l13 70l-9 55l60 195l-43 27l38 153l28 222q9 98 50 209l152 27l32 -14q67 -34 82 -138q-33 -98 -50 -223l-50 -208l-14 -125l9 -41l-2 -56l-50 -222l-45 -56q24 -33 30 -83q-28 -95 -39 -208l-53 -319l-4 -139l-152 -28l-32 14 l-161 28q-31 96 -37 222l-5 180l22 14l1 28h-11l-40 111l24 83l-20 56q21 56 26 125l-81 166q24 7 44 42l-43 14l-11 -14l-23 -42q-13 83 8 -82q-70 -251 -75 -348q-23 -87 -60 -181l-65 -374l-12 -42q-47 -5 -99 -27l-31 27h-141l-15 552l-48 198l6 208l23 42 q-23 78 -27 180l-29 430l12 42l-16 181h64zM219 1473l-23 -55q28 5 55 27zM1198 1320l-1 -27l22 13zM643 1154l-55 -56l-25 -41l23 -28l44 97l26 -97l18 -14q4 144 -31 139zM254 1209l-37 -152q7 -73 62 -98l26 139zM1128 1168l-34 -56l54 -14l23 42q-15 20 -43 28z M241 1126q12 -2 21 -28q-13 3 -21 28zM191 918l21 -14l12 41h-21zM751 848l10 -14l34 28l-32 14zM830 612q-23 -15 -45 -55l54 -14l11 14q0 30 -20 55zM362 487l-13 -55h33l12 41zM457 432l-1 -28q29 4 44 14zM302 293l-14 -97l43 -14q-4 61 -29 111zM906 251v28h-10z M892 168l-12 -56l53 -13l12 13q-19 34 -53 56zM1065 168l-34 -56q26 17 34 56zM1019 57v28h-10zM930 -12q2 -19 21 -28q-2 19 -21 28zM1115 300q-23 -16 -45 -56l54 -14l11 14q0 30 -20 56zM1361 202l-13 -55l32 -14l12 42zM1230 175l-13 -70l10 -28l54 14l13 70zM1313 77 l31 -55q-3 35 -31 55zM1367 64q9 -20 32 -28q-9 20 -32 28zM1343 -5q2 -27 21 -42zM1190 -61l1 28h-11zM498 1620l-55 -56l-25 -41l23 -28l44 97l26 -97l18 -14q4 144 -31 139zM950 1694l-37 -153q7 -73 61 -97l26 139zM647 44l-37 -152q7 -73 62 -97l26 139zM-55 308 l-37 -153q7 -72 62 -97l25 139zM-20 15l-13 -55h33l11 41zM75 -40l-1 -28q28 4 44 14zM-80 -179l-14 -97l43 -14q-4 62 -29 111zM54 1219l-14 -97l43 -14q-3 61 -29 111zM210 1358l-1 -28q28 4 44 14zM114 1413l-12 -55h32l12 41zM386 542l10 -14l34 28l-32 13zM465 306 q-23 -16 -45 -56l54 -14l11 14q0 30 -20 56zM580 181l-13 -70l10 -27l55 13l13 70zM988 1339l-1 -28q28 4 44 14zM996 1213q-23 -15 -45 -55l54 -14l11 14q0 30 -20 55zM1441 1121q-25 -45 -48 -159l52 -39l12 39q2 86 -16 159zM1440 1479l-2 -79q28 11 44 40z" />
<glyph unicode="x" horiz-adv-x="1244" d="M369 1761q35 -30 69 -86l34 -159l12 -145l92 -72l69 -101q33 24 34 72q-20 6 -34 29l34 58l81 86q3 84 23 174l57 115l86 3q92 22 137 -27l69 -101l-62 -192l-69 -101l-57 -130l-158 -333l100 -187l69 -188q-11 -5 -23 -29q37 -48 69 -115l69 -102l58 -115 q25 -49 34 -115q-38 -45 -92 -87q-45 -38 -103 -58q-34 -40 -92 -57l-58 130q-6 58 -46 100l-57 116q-13 69 -46 130l-12 130l-80 86l-58 29v-72l-57 -130l-35 -144l-115 -245q-28 -55 -69 -101l-295 85l114 238q127 307 158 369l81 87l-12 101l35 29l53 90q-1 51 -23 101 l-53 127l-92 274l-58 115q-36 39 -92 207l57 101zM305 1530l-11 -43l23 -15q25 14 46 44zM8 1444l-34 -44l57 -28l11 57zM1161 1657l-11 -29q23 -78 57 -130q20 11 23 29l-23 130q-1 54 -34 101zM845 1328q13 -35 46 -43zM346 1285q1 -31 23 -58q-1 31 -23 58zM415 1212 l-12 -158l46 -15l12 15zM1135 1391l-34 -43l11 -58l-23 -29q4 -18 23 -28l58 144zM960 1155q6 -42 35 -73q-8 40 -35 73zM254 906l34 15l-11 58q-23 -34 -23 -73zM530 1068q-3 19 -23 29q4 -15 23 -29zM483 906q31 1 46 29zM58 964q-38 -93 -92 -188q52 -33 126 -58 q42 15 81 58l-81 29l23 130zM903 909q10 -26 34 -29zM569 548l46 29q39 24 81 29q-90 5 -127 -58zM1236 847l-23 -87l12 -59l57 117zM11 1188q70 -51 104 -116l11 -14l46 14l-23 87q-46 67 -69 144q-46 -51 -69 -115zM1276 221l-23 -204l46 -58l23 175zM443 519 q25 -39 69 -58q-26 38 -69 58zM-67 485q20 21 23 61q-20 -21 -23 -61zM962 992l69 -146q18 111 23 233zM1187 401q-40 -52 -58 -130l35 43l57 14l12 -14q-14 49 -46 87zM1019 709l58 72q-38 -26 -58 -72zM592 125q-25 -82 -69 -173q80 -35 161 -115q-12 79 -69 130 q15 47 46 86zM346 288q12 -35 46 -43zM208 112l11 -72q12 5 35 29l-12 58zM-84 338v-62h11l46 31zM1077 564l34 29q-25 -8 -34 -29zM1013 697l-11 -72h23v14zM4 502q39 -57 92 -116q-15 87 -92 116zM1105 582l23 -87l12 72zM705 1740l-23 -43l12 -29l57 58zM643 1639 l-23 -101l46 -29l23 87zM530 1717l69 -73q18 55 23 116zM838 269q58 -115 135 -234q-22 176 -135 234z" />
<glyph unicode="y" horiz-adv-x="1108" d="M214 1635q85 -14 123 -124q40 -85 68 -193l67 -193l11 -110l90 13q27 85 79 193l79 166q43 72 78 165l146 69q67 -34 135 -83l23 -82l-68 -97q-31 -74 -56 -165l-101 -138q-45 -71 -90 -165q-47 -74 -90 -166q-43 -58 -56 -138q3 -85 22 -179l-22 -41l-23 -138l23 -41 v-166l-11 -41l11 -13q-3 -104 -79 -179l-146 -28l-112 83l22 96l12 179q10 77 33 165q-15 91 -22 221q24 71 18 250l-41 -44l-157 345l-45 193l-101 152l-34 124zM957 510l-11 -55h33l11 41zM355 1027q18 -49 57 -83q-17 49 -57 83zM76 469l-22 -69l56 28q-10 24 -34 41z M445 792l-11 -69l45 14zM524 641q3 -18 22 -28q-2 18 -22 28zM649 1448l-13 -45l13 -15l49 30zM476 1433q4 -20 25 -30q-3 20 -25 30zM815 634l-37 -60l49 -31l25 61zM269 1446h24v30h-12zM600 1388l-25 -46h37v46h-12zM365 1613q9 -66 74 -91q-23 56 -74 91zM712 1340 q19 -49 62 -76q-19 49 -62 76zM1057 349q-47 -77 -111 -151l-74 -61l50 -30q78 22 160 75l24 121zM113 645l-12 -76l37 15q-5 35 -25 61zM285 599q4 -19 25 -30q-3 20 -25 30zM404 555q19 -50 62 -76q-17 50 -62 76zM330 434l-24 -61l49 15zM72 147q9 -32 37 -46 q-11 31 -37 46zM823 -19q0 -41 25 -90l24 75zM87 1134l-13 -75l13 -31v-30l36 15q-1 62 -36 121zM247 1134l-13 -45l25 -15l25 60h-37zM146 -140l-37 -75l37 -15l37 75zM923 1378q-31 -77 -73 -151l-48 -61l32 -30q52 22 105 76l16 120zM901 773q19 -49 62 -76 q-19 49 -62 76zM418 -71q19 -48 62 -75q-19 48 -62 75zM527 88q19 -48 62 -75q-18 49 -62 75zM740 377l-23 -69l57 28q-10 23 -34 41zM777 552l-13 -75l37 15q-5 35 -24 60zM750 1042l-12 -76l12 -30v-30l37 15q-1 61 -37 121zM1030 957l-23 -69l56 27q-10 24 -33 42z M1066 1132l-12 -76l37 16q-5 34 -25 60z" />
<glyph unicode="z" horiz-adv-x="1098" d="M761 1698l64 -41l32 28q43 -20 74 -84l11 -153q-14 -61 -42 -125q-26 -39 -32 -97l-192 -320q-28 -65 -74 -112l-53 -111q-37 -45 -64 -111q-37 -48 -85 -98l-43 -139q-34 -32 -85 -55l-21 83l42 14l-74 83l-21 -69l32 -42q-12 -66 -43 -125q-35 -29 -53 -83 q36 -11 85 -14l11 69q37 28 85 28l117 -42q30 43 74 70l245 42q63 -3 127 -28l22 -112l10 -180l-53 -97l-85 -28l-21 42l-117 -42l-139 14l-95 -14l-32 28l-75 28q-10 -4 -21 -28q-36 -18 -85 -28l-21 42l-53 27l-32 -41l-32 -28l-95 14q-38 45 -64 111q-15 46 -22 111 l11 42l106 250l85 83q30 54 53 126q26 55 75 97l42 139q38 41 75 97l63 112q40 39 64 111q38 32 75 84q-29 53 -43 125l-53 41l-11 -41q-26 -32 -63 -42l-64 -42l-32 28l-234 -28l-53 -14q-3 14 -21 28l11 56l-22 97l22 42l21 167q55 30 116 42h298l32 -28l74 28l54 -14 l21 14h191v13zM599 1615l-11 -42l11 -14l42 28zM450 1601q3 -18 21 -28q-2 19 -21 28zM178 1242l-32 -56l43 -28l21 56zM205 1532h22v27h-11zM-221 1501l-22 -41h32v41h-10zM280 1434q8 -61 64 -83q-20 51 -64 83zM-34 1102q16 -44 53 -69q-16 45 -53 69zM1046 1231 q-41 -71 -96 -139l-64 -56l43 -28q68 21 138 70l21 111zM535 1142l-11 -70l32 14q-4 33 -21 56zM684 1100q3 -18 21 -28q-2 19 -21 28zM774 661q16 -45 53 -69q-15 46 -53 69zM710 550l-21 -56l42 14zM35 335q8 -29 32 -41q-9 27 -32 41zM1046 560q0 -38 21 -84l21 70z M237 127l-10 -70l10 -28v-28l32 14q-1 57 -32 112zM376 127l-11 -42l21 -14l21 56h-31zM99 71l-32 -70l32 -13l32 69zM-184 949l65 27q-55 76 -130 81q30 -64 65 -108zM-193 1547l21 67l-11 14l-32 -14zM443 362l39 -14q24 9 27 27l93 -13q97 19 172 53l-133 27 q-114 0 -198 -40v-40zM-222 759l10 27h-21zM176 843l11 14q-8 23 -22 27zM-73 571l10 26h-21zM-38 692q-57 -40 -98 -95q77 11 98 95zM788 1324q22 25 22 54l76 -27q23 32 32 68l-32 26l-33 -13l-87 13q18 -61 22 -121zM340 508l21 -14l55 27l11 14l-11 40q-50 -10 -87 -27z M-63 402l65 27l-11 67l-54 -40v-54zM415 1072v-14h22zM429 1287h32v27l-32 -14v-13zM784 724q34 -23 65 -27l-43 134l-87 14zM567 951q-11 51 -43 81q17 -52 43 -81zM945 619q-2 29 -21 40q6 -29 21 -40zM548 1287q-7 23 -21 27q7 -24 21 -27zM535 1489q-27 39 -65 41 q28 -39 65 -41zM676 1058q-8 23 -22 27q7 -24 22 -27zM-181 734q55 -26 108 -27l-21 40l-66 13q-17 -13 -21 -26zM795 964l-32 -40q29 2 32 40zM1095 632l32 14l-21 54l-33 -41zM936 574q-23 34 -54 41q23 -36 54 -41zM947 722q-7 23 -22 27q8 -24 22 -27zM1011 223 q34 -37 65 -45l-43 224l-87 22zM3 663l21 -14l55 27l10 14l-10 40q-50 -10 -87 -27z" />
<glyph unicode="{" horiz-adv-x="684" />
<glyph unicode="|" horiz-adv-x="532" />
<glyph unicode="}" horiz-adv-x="684" />
<glyph unicode="~" horiz-adv-x="1196" />
<glyph unicode="&#xa1;" horiz-adv-x="682" />
<glyph unicode="&#xa2;" />
<glyph unicode="&#xa3;" />
<glyph unicode="&#xa5;" />
<glyph unicode="&#xa6;" horiz-adv-x="532" />
<glyph unicode="&#xa7;" />
<glyph unicode="&#xa8;" horiz-adv-x="682" />
<glyph unicode="&#xa9;" horiz-adv-x="1509" />
<glyph unicode="&#xaa;" horiz-adv-x="758" />
<glyph unicode="&#xab;" />
<glyph unicode="&#xac;" horiz-adv-x="1196" />
<glyph unicode="&#xad;" horiz-adv-x="682" />
<glyph unicode="&#xae;" horiz-adv-x="1509" />
<glyph unicode="&#xaf;" horiz-adv-x="1131" />
<glyph unicode="&#xb0;" horiz-adv-x="819" />
<glyph unicode="&#xb1;" horiz-adv-x="1124" />
<glyph unicode="&#xb2;" horiz-adv-x="682" />
<glyph unicode="&#xb3;" horiz-adv-x="682" />
<glyph unicode="&#xb4;" horiz-adv-x="682" />
<glyph unicode="&#xb5;" horiz-adv-x="1180" />
<glyph unicode="&#xb6;" horiz-adv-x="1100" />
<glyph unicode="&#xb7;" horiz-adv-x="682" />
<glyph unicode="&#xb8;" horiz-adv-x="682" />
<glyph unicode="&#xb9;" horiz-adv-x="682" />
<glyph unicode="&#xba;" horiz-adv-x="748" />
<glyph unicode="&#xbb;" />
<glyph unicode="&#xbc;" horiz-adv-x="1708" />
<glyph unicode="&#xbd;" horiz-adv-x="1708" />
<glyph unicode="&#xbe;" horiz-adv-x="1708" />
<glyph unicode="&#xbf;" horiz-adv-x="1251" />
<glyph unicode="&#xc0;" horiz-adv-x="1366" />
<glyph unicode="&#xc1;" horiz-adv-x="1366" />
<glyph unicode="&#xc2;" horiz-adv-x="1366" />
<glyph unicode="&#xc3;" horiz-adv-x="1366" />
<glyph unicode="&#xc4;" horiz-adv-x="1366" />
<glyph unicode="&#xc5;" horiz-adv-x="1366" />
<glyph unicode="&#xc6;" horiz-adv-x="2048" />
<glyph unicode="&#xc7;" horiz-adv-x="1479" />
<glyph unicode="&#xc8;" horiz-adv-x="1366" />
<glyph unicode="&#xc9;" horiz-adv-x="1366" />
<glyph unicode="&#xca;" horiz-adv-x="1366" />
<glyph unicode="&#xcb;" horiz-adv-x="1366" />
<glyph unicode="&#xcc;" horiz-adv-x="569" />
<glyph unicode="&#xcd;" horiz-adv-x="569" />
<glyph unicode="&#xce;" horiz-adv-x="569" />
<glyph unicode="&#xcf;" horiz-adv-x="569" />
<glyph unicode="&#xd0;" horiz-adv-x="1479" />
<glyph unicode="&#xd1;" horiz-adv-x="1479" />
<glyph unicode="&#xd2;" horiz-adv-x="1593" />
<glyph unicode="&#xd3;" horiz-adv-x="1593" />
<glyph unicode="&#xd4;" horiz-adv-x="1593" />
<glyph unicode="&#xd5;" horiz-adv-x="1593" />
<glyph unicode="&#xd6;" horiz-adv-x="1593" />
<glyph unicode="&#xd7;" horiz-adv-x="1196" />
<glyph unicode="&#xd8;" horiz-adv-x="1593" />
<glyph unicode="&#xd9;" horiz-adv-x="1479" />
<glyph unicode="&#xda;" horiz-adv-x="1479" />
<glyph unicode="&#xdb;" horiz-adv-x="1479" />
<glyph unicode="&#xdc;" horiz-adv-x="1479" />
<glyph unicode="&#xdd;" horiz-adv-x="1366" />
<glyph unicode="&#xde;" horiz-adv-x="1366" />
<glyph unicode="&#xdf;" horiz-adv-x="1251" />
<glyph unicode="&#xe0;" />
<glyph unicode="&#xe1;" />
<glyph unicode="&#xe2;" />
<glyph unicode="&#xe3;" />
<glyph unicode="&#xe4;" />
<glyph unicode="&#xe5;" />
<glyph unicode="&#xe6;" horiz-adv-x="1821" />
<glyph unicode="&#xe7;" horiz-adv-x="1024" />
<glyph unicode="&#xe8;" />
<glyph unicode="&#xe9;" />
<glyph unicode="&#xea;" />
<glyph unicode="&#xeb;" />
<glyph unicode="&#xec;" horiz-adv-x="569" />
<glyph unicode="&#xed;" horiz-adv-x="569" />
<glyph unicode="&#xee;" horiz-adv-x="569" />
<glyph unicode="&#xef;" horiz-adv-x="569" />
<glyph unicode="&#xf0;" />
<glyph unicode="&#xf1;" />
<glyph unicode="&#xf2;" />
<glyph unicode="&#xf3;" />
<glyph unicode="&#xf4;" />
<glyph unicode="&#xf5;" />
<glyph unicode="&#xf6;" />
<glyph unicode="&#xf7;" horiz-adv-x="1124" />
<glyph unicode="&#xf8;" horiz-adv-x="1251" />
<glyph unicode="&#xf9;" />
<glyph unicode="&#xfa;" />
<glyph unicode="&#xfb;" />
<glyph unicode="&#xfc;" />
<glyph unicode="&#xfd;" horiz-adv-x="1024" />
<glyph unicode="&#xfe;" />
<glyph unicode="&#xff;" horiz-adv-x="1024" />
<glyph unicode="&#x152;" horiz-adv-x="2048" />
<glyph unicode="&#x153;" horiz-adv-x="1933" />
<glyph unicode="&#x178;" horiz-adv-x="1366" />
<glyph unicode="&#x2c6;" horiz-adv-x="682" />
<glyph unicode="&#x2dc;" horiz-adv-x="682" />
<glyph unicode="&#x2000;" horiz-adv-x="995" />
<glyph unicode="&#x2001;" horiz-adv-x="1991" />
<glyph unicode="&#x2002;" horiz-adv-x="995" />
<glyph unicode="&#x2003;" horiz-adv-x="1991" />
<glyph unicode="&#x2004;" horiz-adv-x="663" />
<glyph unicode="&#x2005;" horiz-adv-x="497" />
<glyph unicode="&#x2006;" horiz-adv-x="331" />
<glyph unicode="&#x2007;" horiz-adv-x="331" />
<glyph unicode="&#x2008;" horiz-adv-x="248" />
<glyph unicode="&#x2009;" horiz-adv-x="398" />
<glyph unicode="&#x200a;" horiz-adv-x="110" />
<glyph unicode="&#x2010;" horiz-adv-x="682" />
<glyph unicode="&#x2011;" horiz-adv-x="682" />
<glyph unicode="&#x2012;" horiz-adv-x="682" />
<glyph unicode="&#x2013;" />
<glyph unicode="&#x2014;" horiz-adv-x="2048" />
<glyph unicode="&#x2018;" horiz-adv-x="455" />
<glyph unicode="&#x2019;" horiz-adv-x="455" />
<glyph unicode="&#x201a;" horiz-adv-x="455" />
<glyph unicode="&#x201c;" horiz-adv-x="682" />
<glyph unicode="&#x201d;" horiz-adv-x="682" />
<glyph unicode="&#x201e;" horiz-adv-x="682" />
<glyph unicode="&#x2022;" horiz-adv-x="717" />
<glyph unicode="&#x2026;" horiz-adv-x="2048" />
<glyph unicode="&#x202f;" horiz-adv-x="398" />
<glyph unicode="&#x2039;" horiz-adv-x="682" />
<glyph unicode="&#x203a;" horiz-adv-x="682" />
<glyph unicode="&#x205f;" horiz-adv-x="497" />
<glyph unicode="&#x20ac;" />
<glyph unicode="&#x2122;" horiz-adv-x="2048" />
<glyph unicode="&#xe000;" horiz-adv-x="1760" d="M0 1760h1760v-1760h-1760v1760z" />
<glyph unicode="&#xfb01;" horiz-adv-x="1024" />
<glyph unicode="&#xfb02;" horiz-adv-x="1024" />
</font>
</defs>
</svg>
