<?xml version="1.0" standalone="no"?>
<!DOCTYPE svg PUBLIC "-//W3C//DTD SVG 1.1//EN" "http://www.w3.org/Graphics/SVG/1.1/DTD/svg11.dtd" >
<svg xmlns="http://www.w3.org/2000/svg">
<metadata></metadata>
<defs>
<font id="amadeus_regularamadeusRg" horiz-adv-x="690" >
<font-face units-per-em="1000" ascent="800" descent="-200" />
<missing-glyph horiz-adv-x="360" />
<glyph horiz-adv-x="1000" />
<glyph horiz-adv-x="1000" />
<glyph unicode="&#xd;" horiz-adv-x="360" />
<glyph unicode=" "  horiz-adv-x="360" />
<glyph unicode="&#x09;" horiz-adv-x="360" />
<glyph unicode="&#xa0;" horiz-adv-x="360" />
<glyph unicode="!" horiz-adv-x="285" d="M243 549l-42 -3l-32 -385l-66 4l-13 374l-44 -3l-2 21l45 3l-1 42l-42 -3l-2 21l43 3l-3 109l132 -16l-7 -85l32 2l2 -21l-36 -2l-4 -42l38 2zM242 476l-23 -243l-21 2l23 244zM222 43q0 -33 -24 -57t-58 -24q-33 0 -57 24t-24 57t24 57.5t57 24.5q34 0 58 -24.5 t24 -57.5zM201 43q0 25 -18 43t-43 18t-42.5 -18t-17.5 -43t17.5 -42.5t42.5 -17.5q26 0 43.5 17.5t17.5 42.5zM162 41q0 -19 -18 -19q-19 0 -19 19t19 19q18 0 18 -19z" />
<glyph unicode="&#x22;" horiz-adv-x="320" d="M288 708l-36 -260l-48 -4l-20 256zM156 708l-36 -260l-48 -4l-20 256z" />
<glyph unicode="#" horiz-adv-x="570" d="M543 491l-6 -45h-127l-37 -142l121 1l-10 -60h-126l-65 -243l-46 -6l67 249h-103l-65 -243l-61 -6l67 249h-116l18 57l113 1l38 143h-116l15 42l113 1l58 216l56 -3l-56 -213l104 1l58 215l41 -3l-56 -212zM367 446h-104l-37 -143l103 1z" />
<glyph unicode="$" horiz-adv-x="486" d="M437 219q0 -71 -52 -121t-125 -55v-96l-18 -6v101q-9 0 -14 1v-97l-18 -6v105q-46 9 -150 67l32 66q30 -17 59 -34q34 -18 59 -24v231q-55 22 -78 42q-30 27 -39 61q-7 24 -7 74q0 48 39 93.5t85 50.5v114l19 -3v-110q9 0 13 -1v115l19 -3v-115q74 -14 103 -66l-62 -39 q-12 21 -41 30v-189q95 -36 118 -54q58 -44 58 -132zM242 412v186q-4 1 -13 1v-182q2 -1 6.5 -2.5t6.5 -2.5zM210 427v171q-19 -6 -34.5 -27.5t-15.5 -42.5q0 -37 3 -49q4 -19 19 -32q12 -10 28 -20zM363 219q0 47 -30 76q-23 21 -73 39q1 -59 0 -217q44 5 73.5 33t29.5 69z M242 116v224q-4 2 -14 5q1 -62 0 -228q5 -1 14 -1z" />
<glyph unicode="%" horiz-adv-x="888" d="M828 224q9 -24 9 -50q0 -65 -50.5 -121t-115.5 -56q-56 0 -110.5 40t-70.5 87q-10 27 -10 58q0 67 40 122q44 62 109 62q58 0 118.5 -44t80.5 -98zM682 652l-430 -678l-47 38l428 668zM446 567q-24 -11 -49 -23q6 -30 6 -61q0 -50 -16 -86q-21 -45 -67.5 -71t-99.5 -26 q-52 0 -92 23.5t-62 75.5q-20 47 -20 100q0 44 14 75q23 50 77 82.5t111 32.5q31 0 57 -11q42 -17 69 -69l44 20l8 -18l-44 -20q5 -9 10 -27l46 21zM772 202q-15 39 -55 71q-43 34 -82 34q-43 0 -71 -41q-25 -37 -25 -81q0 -22 7 -41q11 -32 47.5 -59.5t73.5 -27.5 q42 0 76.5 36t34.5 79q0 15 -6 30zM362 529l-40 -18l-8 18q22 10 43 19q-3 10 -9 28l-46 -21l-8 18l45 20q-32 56 -95 56q-45 0 -87 -26t-61 -66q-12 -26 -12 -63q0 -99 63 -136q33 -19 75 -19q41 0 77 19.5t52 54.5q22 49 11 116z" />
<glyph unicode="&#x26;" horiz-adv-x="736" d="M721 52l-54 -58q-28 25 -163 127q-60 -69 -146 -107q-78 -35 -157 -35q-67 0 -109 40q-45 43 -45 122q0 75 49 134q35 42 117 96q-85 87 -85 177q0 50 35 85l34 34q43 43 114 43q44 0 79 -29q40 -32 40 -79q0 -52 -34 -114q-35 -65 -90 -107q4 -4 12 -10q81 -61 97 -74 q54 -43 94 -83l1 -1q32 64 32 124q0 32 -11 55.5t-27 23.5q-28 0 -28 -18q0 -15 35 -30l-43 -43q-44 18 -44 57q0 26 17 48q25 31 73 31q32 0 60 -28q30 -31 30 -75q0 -86 -55 -176q27 -19 83 -62q31 -20 89 -68zM361 568q0 35 -26 58t-58 23q-59 0 -72.5 -20t-13.5 -47 q0 -88 82 -172q88 64 88 158zM466 150q-35 35 -96 86q-92 76 -99 82q-10 9 -25 22q-44 -32 -64 -49q74 -115 147 -231q79 30 137 90zM311 53q-38 61 -143 225q-5 -4 -13 -14q89 -137 138 -216q3 1 9 2.5t9 2.5zM273 44q-35 56 -130 205q-2 -2 -10 -16l122 -191q3 1 9 1.5 t9 0.5zM233 41l-109 172q-8 -22 -8 -44q0 -67 27.5 -97t89.5 -31zM313 543q0 -32 -32 -32t-32 32t32 32t32 -32z" />
<glyph unicode="'" horiz-adv-x="196" d="M156 708l-36 -260l-48 -4l-20 256z" />
<glyph unicode="(" horiz-adv-x="282" d="M255 669q-133 -151 -133 -342q0 -221 121 -390l-33 -39q-162 192 -162 423q0 229 177 402z" />
<glyph unicode=")" horiz-adv-x="264" d="M231 298q0 -229 -177 -402l-30 54q133 151 133 342q0 221 -121 390l33 39q162 -192 162 -423z" />
<glyph unicode="*" horiz-adv-x="315" d="M268 544l-78 14l65 -69l-74 -42l-27 91l-38 -85l-65 49l72 60l-81 8l22 81l72 -44l-10 92l86 -4l-33 -91l73 31z" />
<glyph unicode="+" horiz-adv-x="405" d="M372 298l-119 -3l2 -163l-96 10l3 150l-124 -3l10 96l116 -2l4 151h82l2 -152l120 -2v-82z" />
<glyph unicode="," horiz-adv-x="305" d="M221 20q0 -72 -91 -163l-34 -34l-27 28q67 69 67 139q0 53 -34 71l76 60q43 -28 43 -101z" />
<glyph unicode="-" horiz-adv-x="405" d="M356 380l-2 -102l-304 -9l12 116z" />
<glyph unicode="." horiz-adv-x="273" d="M207 57q0 -28 -20 -48t-48 -20t-48 20t-20 48t20 48t48 20t48 -20t20 -48z" />
<glyph unicode="/" horiz-adv-x="480" d="M482 690l-423 -740l-54 27l430 746z" />
<glyph unicode="0" horiz-adv-x="697" d="M627 160q-35 -77 -116 -121q-76 -42 -168 -42q-89 0 -160 41q-67 39 -104 126q-34 79 -34 170q0 79 26 134q41 87 132 142.5t188 55.5q53 0 98 -18q78 -32 125 -131q43 -92 43 -202q0 -90 -30 -155zM527 528q-63 84 -152 84q-19 0 -37 -4q-98 -22 -161 -82 q-70 -68 -70 -162q0 -24 5 -59zM555 483q-7 15 -19 33l-421 -231q1 -5 3.5 -15t3.5 -15zM576 429q-4 12 -12 34q-218 -113 -437 -227q4 -11 12 -31zM593 311q1 52 -12 102l-432 -228q52 -100 145 -120q25 -5 51 -5q99 0 173 71.5t75 179.5z" />
<glyph unicode="1" horiz-adv-x="347" d="M286 687l-6 -699l-21 3l3 693zM241 -21l-72 6l2 565q-33 -37 -68 -38q-29 -1 -49 13.5t-20 44.5q0 45 38 55q12 3 20 -3.5t8 -15.5q0 -12 -14 -16q-10 -3 -10 -20q0 -20 29 -12q34 10 53 43q14 26 14 55v43l69 3v-723z" />
<glyph unicode="2" horiz-adv-x="671" d="M674 80l-51 -51q-25 124 -91 203q-23 -88 -88 -150q-93 -89 -230 -89q-73 0 -123 46.5t-50 117.5q0 83 56 139l34 34q69 69 183 69q88 0 162 -36q-2 80 -42 167q-25 54 -79 87q-57 35 -130 35q-29 0 -52 -12q-13 -22 -13 -53q0 -21 10 -38t26 -17q12 8 12 30q0 9 -4 15 l24 31q8 -9 15 -18.5t7 -25.5t-17 -36l-27 -31q-10 -14 -33 -14q-25 0 -45.5 21.5t-20.5 48.5q0 54 32 86l34 34q32 32 86 32q80 0 141 -39q57 -35 85 -95q62 -135 62 -209q0 -30 -1 -45q98 -84 128 -237zM472 288q-82 57 -192 57q-75 0 -145 -53q-40 -53 -40 -101 q0 -62 38.5 -97.5t102.5 -35.5q91 0 160 65q61 57 76 165zM391 282q12 -22 -9 -33q-22 -12 -33 9q-12 22 9 33q22 12 33 -9zM288 295q11 -20 -8 -31q-20 -12 -32 7t8 32t32 -8zM207 253q11 -20 -8 -31q-20 -12 -32 7t8 32t32 -8zM178 173q10 -22 -12 -32q-13 -6 -24.5 1.5 t-11.5 20.5q0 25 25 25q16 0 23 -15z" />
<glyph unicode="3" horiz-adv-x="502" d="M472 295q0 -40 -27 -76q-62 -83 -205 -169q-89 -54 -213 -93l5 68q124 35 230 104q149 96 149 139q0 52 -55 80q-41 21 -122 31q-60 7 -121 13l239 240l-31 -1l-203 -205l-14 8l194 196l-240 -10l4 74l368 6l10 -54l-188 -213q121 -21 148 -33q72 -31 72 -105z" />
<glyph unicode="4" horiz-adv-x="492" d="M484 191l-86 -7q-4 -34 -11 -80l2 -126l-85 -2l6 74q4 42 12 128l-282 -23q-6 22 -6 34q1 56 29 116q9 19 69 101q43 58 43 106q0 34 -19.5 57t-52.5 23q-2 0 -7 -5q-6 -14 -6 -32q0 -17 13 -23q15 -7 35 31q13 -23 3 -34l-34 -35q-13 -13 -33 -13q-34 0 -34 37 q0 43 27 71l36 37q15 15 37 15q39 0 67 -28.5t28 -67.5q0 -52 -38 -125l-62 -112q-9 -17 -14 -61l208 10q3 42 3 79v41q-1 32 -1 52q0 216 6 273l73 26q-4 -63 -4 -240q0 -21 1.5 -55t1.5 -42q0 -70 -4 -130l65 3l-2 -22l-65 -4q0 -4 -0.5 -12.5t-1.5 -12.5l83 5v-27z M327 234l-208 -11q0 -14 4 -27l202 12q0 10 2 26z" />
<glyph unicode="5" horiz-adv-x="570" d="M525 285q0 -179 -91 -250q-67 -53 -197 -53q-90 0 -151 77q-58 72 -58 168q0 25 5 49l69 3q-5 -24 -5 -56q0 -76 28 -126q37 -67 118 -67q112 0 171 72q54 67 54 183q0 84 -72 138q-70 51 -174 51q-60 0 -120 -18l36 243l339 3v-57l-297 -9l-4 -22l288 8l2 -18 q-147 -5 -294 -12l-13 -70q74 12 119 12q247 0 247 -249zM311 271q0 -16 -11 -26.5t-27 -10.5t-27 10.5t-11 26.5t11 27t27 11t27 -11t11 -27z" />
<glyph unicode="6" horiz-adv-x="492" d="M243 559q-107 -107 -107 -255h-20q0 157 113 269zM460 188q5 -74 -26 -125q-51 -84 -190 -86q-26 0 -58.5 12t-47.5 27q-108 108 -102 285q7 205 132 326q79 76 161 76q55 0 89 -28t34 -80t-23 -84.5t-74 -32.5q-23 0 -38 17t-15 33q0 42 41 65l16 -12q-16 -24 -16 -32 q0 -30 30 -30q15 0 22 11.5t7 39.5q0 83 -75 83q-9 0 -19 -1q-35 -5 -88 -49q-65 -55 -95.5 -130t-31.5 -172q-1 -60 16 -116q8 46 38 83q28 34 70 54q37 18 70 18q65 0 115 -41q54 -44 58 -111zM398 162q0 52 -36.5 81.5t-87.5 24.5q-43 -4 -76 -38q-37 -39 -37 -89 q0 -59 39 -96q21 -9 69 -10q68 -2 103 48q26 36 26 79zM301 150q0 -30 -28 -30q-30 0 -30 28q0 30 28 30q30 0 30 -28z" />
<glyph unicode="7" horiz-adv-x="366" d="M378 690l-88 -300l-62 -2l66 234l-286 -4l-10 74zM308 372l-12 -16h-88l6 16h94zM306 338l-6 -18h-110l2 18h114zM276 300l-60 -302h-100l84 304z" />
<glyph unicode="8" horiz-adv-x="516" d="M477 508q0 -75 -35 -129.5t-96 -76.5q108 -33 108 -161q0 -81 -63 -122q-56 -37 -151 -37q-62 0 -106 51t-44 121q0 46 35 86q32 37 81 56q-63 17 -115.5 73.5t-52.5 136.5q0 26 4 59q9 78 68.5 124.5t141.5 46.5q99 0 162 -64t63 -164zM399 607q-45 82 -134 82 q-79 0 -123 -57q-41 -53 -36 -134zM415 571q-3 7 -7 19l-300 -108v-1q1 -9 5 -25zM422 535q0 4 -1 10.5t-2 9.5l-300 -114q6 -12 10 -18zM426 493q0 17 -1 25q-77 -29 -286 -109q50 -63 146 -63q62 0 101.5 41t39.5 106zM399 157q0 51 -34.5 85t-84.5 36q-47 2 -92.5 -32 t-47.5 -71q-4 -58 28.5 -99t77.5 -41q63 0 108 33t45 89z" />
<glyph unicode="9" horiz-adv-x="476" d="M471 233l-7 -32l-26 -1v-43l29 -2l-1 -25l-27 -2v-132l-90 6l4 126h-54l2 29l52 1v43l-54 1l1 29l54 2l3 124q-52 -39 -136 -39q-92 0 -143 50t-51 137q0 16 2 33q9 87 96 136q72 40 138 32q65 -7 105 -44l1 22h65l4 -451h33zM367 614q-46 46 -110 46q-60 0 -107 -29 q-57 -36 -65 -105q-1 -10 -1 -19q0 -66 49 -104q42 -33 98 -33q87 0 130 38z" />
<glyph unicode=":" horiz-adv-x="305" d="M228 376q0 -28 -20 -48t-48 -20t-48 20t-20 48t20 48t48 20t48 -20t20 -48zM216 54q0 -25 -18 -43.5t-44 -18.5q-25 0 -43.5 18.5t-18.5 43.5q0 26 18.5 44t43.5 18q26 0 44 -18t18 -44z" />
<glyph unicode=";" horiz-adv-x="305" d="M228 376q0 -28 -20 -48t-48 -20t-48 20t-20 48t20 48t48 20t48 -20t20 -48zM221 20q0 -72 -91 -163l-34 -34l-27 28q67 69 67 139q0 53 -34 71l76 60q43 -28 43 -101z" />
<glyph unicode="&#x3c;" horiz-adv-x="384" d="M332 199l-51 -75l-220 191v42l208 187l60 -66l-175 -142z" />
<glyph unicode="=" horiz-adv-x="426" d="M380 340l-334 -9l10 86l324 -5v-72zM378 208l-338 -3l6 74l332 1v-72z" />
<glyph unicode="&#x3e;" horiz-adv-x="384" d="M329 315l-220 -191l-51 75l178 137l-175 142l60 66l208 -187v-42z" />
<glyph unicode="?" horiz-adv-x="467" d="M332 489l-20 2q8 94 -79 127l6 20q103 -38 93 -149zM426 543q4 -109 -68 -160q-29 -20 -106 -41q1 -32 3 -68l43 2v-20l-41 -2l3 -27l36 1v-20l-33 -1l3 -27l-88 -13v19q-1 12 -1 18l-41 -2v20l40 1q0 10 -2 28l-36 -1v20l35 1q0 4 -1 53t-1 52q93 17 135 47 q19 17 38 36.5t19 47.5q0 65 -41.5 111t-102.5 46q-54 0 -81 -29.5t-27 -69.5q0 -61 31 -61q18 0 20 8t-12 27l34 32q26 -23 24 -40q-3 -27 -18 -43l-20 -21q-23 -24 -66 -24q-25 0 -39.5 26t-14.5 58q0 76 39 114l39 38q47 46 130 46q68 0 116.5 -53.5t51.5 -128.5zM287 51 q0 -28 -20 -48.5t-49 -20.5q-28 0 -48.5 20.5t-20.5 48.5q0 29 20.5 49t48.5 20q29 0 49 -20t20 -49zM242 64q0 22 -22 22t-22 -22t22 -22t22 22z" />
<glyph unicode="@" horiz-adv-x="709" d="M675 417q0 -123 -82 -195q-62 -54 -120 -54q-31 0 -39 56q-13 -19 -45.5 -34t-63.5 -15q-90 0 -90 84q0 31 24 65q34 48 96 48q45 0 78 -23q-15 113 -72 113q-30 0 -56 -26l-13 17q12 21 41 33.5t53 11.5q52 -3 79 -56q24 -45 24 -112q0 -12 -1.5 -31t-1.5 -30 q0 -4 -1 -22q-1 -16 0 -23q1 -11 5 -12q37 0 83 45q62 60 62 160q0 103 -62 164q-65 65 -182 65q-127 0 -215 -88q-92 -93 -92 -237q0 -139 84 -222q77 -76 193 -76q135 0 220 57l22 -34q-96 -63 -242 -63q-132 0 -221 87q-96 93 -96 251q0 162 105 266q99 99 242 99 q137 0 213 -76q71 -72 71 -193zM435 291q-23 32 -54 41l-5 -116q36 13 57 36q0 13 2 39zM368 334q-2 0 -6 1h-7l-6 -124q3 0 7 1h7q1 34 5 122zM342 336h-1q-7 0 -13 -3l-6 -121q9 0 15 -1q3 63 5 125zM313 327q-43 -23 -43 -62q0 -40 40 -50q2 56 3 112z" />
<glyph unicode="A" horiz-adv-x="456" d="M411 511q9 -94 3 -255q-5 -143 -18 -262l-84 6l13 204l-190 -11q11 -119 2 -212q-9 -98 -55 -149q-40 -45 -100 -45q-30 0 -51.5 27t-21.5 61q0 41 24 64l20 19q16 15 34 15q33 0 45 -52l-30 -28q-4 36 -21 36q-11 0 -11 -19q0 -23 13.5 -42.5t33.5 -19.5t33 7 q15 29 25 105q4 34 -4 157q-15 223 -15 243q0 212 64 276l35 35q37 37 96 37q68 0 112 -60q40 -54 48 -137zM336 458q-17 189 -120 189q-15 0 -31 -10q-12 -8 -25 -16q-43 -69 -43 -226q0 -39 8 -101q103 6 206 11q7 141 5 153zM329 285q-101 -5 -202 -12q0 -7 2 -21 q100 6 199 11q1 8 1 22zM327 243l-196 -11q2 -14 2 -19q97 6 193 11q0 3 1 10v9zM258 587q7 -12 1 -24q-7 -12 -21 -12q-13 0 -20 10q-14 20 7 33t33 -7zM297 497q5 -13 -2.5 -24t-20.5 -11q-25 0 -25 25t25 25q17 0 23 -15zM308 397q5 -29 -23 -34q-30 -6 -35 22 q-6 30 23 35q30 6 35 -23z" />
<glyph unicode="B" d="M527 271l-18 -6q-41 115 -200 139l2 20q50 -8 90 -25q96 -43 126 -128zM628 237q0 -128 -94 -209q-75 -64 -159 -64q-163 0 -163 132q0 47 32 79l39 39q27 27 63 27q69 0 69 -65q0 -26 -14 -41l-37 -40l-15 13q0 1 8 11q5 6 5 13q0 22 -15 36t-38 14q-7 0 -19 -2 q-5 -17 -5 -31q0 -113 143 -113q41 0 69 17q10 14 34 59q22 41 25 115q2 47 -31 106.5t-103.5 93.5t-160.5 34q-41 0 -64 2l71 71q97 0 170 44q-3 43 -82 58q-45 8 -137 8q-29 0 -43 -1q-3 -91 -7 -274q0 -88 -5 -260l-6 -120l-81 -2l6 71q12 152 17 280q4 107 4 297 q-44 -10 -68 -28l-13 15l53 54q55 41 196 41q241 0 241 -94q0 -34 -17 -52q-7 -8 -43 -31q-22 -8 -48 -20q-2 -2 -2 -3q137 -36 185 -124q21 -38 25 -49q15 -42 15 -107z" />
<glyph unicode="C" d="M468 383q12 -15 12 -34q0 -26 -21 -43q-15 -12 -35 -12q-27 0 -44 21q-12 15 -12 34q0 27 22 44q15 12 34 12q27 0 44 -22zM651 42q-47 -13 -94 -25q-70 -14 -177 -14q-142 0 -231 84q-104 97 -104 282q0 150 126 239q107 76 243 76q88 0 135 -15q40 -13 80 -48l-44 -45 q-39 24 -68 33q-39 12 -98 12q-53 0 -106 -15l11 -531q32 -9 65 -9q89 0 156 11q9 1 93 19zM304 82l-11 517q-10 -4 -30 -13l10 -489q16 -9 31 -15zM253 110l-10 465q-16 -9 -28 -19l7 -420q20 -18 31 -26zM202 159l-7 379q-64 -64 -64 -169q0 -124 71 -210z" />
<glyph unicode="D" horiz-adv-x="598" d="M566 404q0 -88 -43 -177q-89 -184 -333 -234q-43 -3 -122 -9q1 94 2 327l-41 1v27q19 0 41 -1v66q-11 1 -38 1l-6 27h44v55l-44 -1l3 27l40 2l-1 196q90 7 141 0q168 -24 279 -135q78 -78 78 -172zM493 351q0 86 -72 158q-111 111 -278 129q0 -34 -2 -120l92 4l-3 -30 l-89 -3q-1 -18 -1 -57h138l-3 -30l-136 2q0 -45 -1 -67q31 0 116 -1l-9 -30l-108 3q-2 -184 -4 -252h6q64 0 100 9q152 38 207 122q47 72 47 163z" />
<glyph unicode="E" horiz-adv-x="580" d="M177 659q-58 -40 -58 -103q0 -44 31 -91l-16 -10q-35 53 -35 102q0 73 68 120zM545 212q0 -83 -47 -129l-50 -49q-52 -51 -155 -51q-80 0 -142.5 33.5t-87.5 88.5q-24 52 -24 112q0 96 59 154l50 49q20 20 45 33q-42 36 -42 98q0 36 29 66l49 50q40 41 113 41 q48 0 100 -33q56 -35 56 -75q0 -18 -11 -40l-50 -51l-16 11q8 18 8 31q0 34 -49 62q-45 25 -87 25q-39 0 -68 -13q-4 -16 -4 -25q0 -71 66 -103q35 -17 146 -38l-66 -66q-98 16 -116 16q-65 0 -111 -30q-31 -48 -31 -112t22 -103q23 -51 80.5 -82t130.5 -31q70 0 113 25 q21 36 21 86q0 30 -18 50.5t-48 20.5h-4q-1 -3 -1 -8q0 -20 35 -39l-48 -46q-41 21 -41 54q0 30 25 54l34 32q23 22 49 22q39 0 62.5 -26t23.5 -64zM230 136l-12 -16q-65 55 -65 140q0 47 18 90l18 -8q-16 -39 -16 -81q0 -76 57 -125z" />
<glyph unicode="F" horiz-adv-x="394" d="M365 601l-160 -4l-14 -350l136 1v-42l-131 -4l-8 -206l-29 1l10 299h-27l-7 -302l-84 -6l18 693l81 3l-5 -194h31l7 194l178 3zM176 470h-31l-1 -31h30zM174 419h-30l-1 -46h29zM171 353h-28l-1 -37h28z" />
<glyph unicode="G" horiz-adv-x="630" d="M352 392q14 -21 -7 -35t-35 7t7 35t35 -7zM600 146q0 -135 -65 -198q-51 -50 -114 -58q-104 -14 -158 -11q-91 4 -178 47l64 64q89 -41 164 -41q63 0 156 11q16 7 45 18q15 44 15 118v36l-42 -43q-78 -80 -232 -80q-89 0 -155 93q-61 86 -61 185q0 148 91 283 q26 39 76 69q64 39 136 39q93 0 176 -58q34 -23 48 -45l-66 -65q-8 11 -42 41q-66 60 -142 60q-39 0 -73 -13q-44 -16 -74 -58q-59 -82 -59 -203q0 -92 54 -172q59 -86 141 -86q114 0 178 56q19 17 35 62l-221 13v33l235 -22l39 45l-283 13v36l304 -26q8 -51 8 -143z" />
<glyph unicode="H" horiz-adv-x="510" d="M462 710l-8 -322l-396 -8l-6 300l64 18l2 -228l274 2l-8 228zM458 357l-10 -365l-76 -4l20 287l-272 -4l-2 -293l-68 -2l10 381h398zM392 456l-272 -6l-2 -20l272 4zM392 420l-278 -8v-14l276 8zM398 325v16l-274 -6l-2 -18zM398 309l-278 -4l-2 -16l276 4z" />
<glyph unicode="I" horiz-adv-x="230" d="M191 703q0 -32 -22.5 -54.5t-54.5 -22.5t-54.5 22.5t-22.5 54.5t22.5 54.5t54.5 22.5t54.5 -22.5t22.5 -54.5zM174 611l-6 -611l-21 3l3 605zM129 -9l-72 6l3 618l69 3v-627zM131 703q0 17 -17 17t-17 -17t17 -17t17 17z" />
<glyph unicode="J" horiz-adv-x="384" d="M339 790q7 -11 7 -24q0 -25 -18 -37q-11 -7 -24 -7q-25 0 -37 18q-7 11 -7 24q0 25 18 37q11 7 24 7q25 0 37 -18zM344 688l-4 -524q0 -102 -7 -142q-14 -81 -64 -122q-44 -37 -122 -37q-58 0 -92 35.5t-34 90.5q0 43 33 85t83 42q31 0 50 -21t19 -54q0 -24 -16 -42 l-21 -23q-8 -9 -22 -9q-23 0 -39 22l24 27q9 -12 24 -8q5 61 -46 61q-7 0 -26 -8q-10 -18 -10 -37q0 -47 29 -77.5t79 -30.5q33 0 53 13q35 55 35 200q0 3 -1 81q-1 88 -2 155q-52 0 -165 -2l3 24h162v30l-171 3v21q174 3 170 2q-1 96 -3 190q-7 0 -48 2t-47.5 2t-26.5 1.5 t-44 1.5l51 51q12 0 28 -1t24 -1h72q65 -1 72 -1z" />
<glyph unicode="K" horiz-adv-x="627" d="M632 92q0 -48 -41 -91q-46 -48 -111 -49q-89 -1 -250 136q-25 21 -101 111v-217l-72 6l1 295q-13 17 -23 29l23 30l2 360l69 3v-270l159 207q37 48 104 51q31 2 60 -22.5t29 -52.5q0 -48 -28.5 -75t-56.5 -27q-12 0 -25 10.5t-13 23.5q0 16 8 30q3 5 19 17l16 -12 q-5 -9 -5 -19q0 -14 17 -14t17 35q0 21 -17.5 38t-41.5 13q-32 -5 -73 -47l-169 -216v-80q53 -67 149 -156q51 -47 105 -85q69 -48 102 -48h43q22 3 40 15q13 26 13 42q0 80 -62 80q-9 0 -18 -6q-3 -4 -3 -9q0 -16 13 -23q8 -4 35 -8l-33 -29q-54 8 -54 45q0 23 25 50t70 27 q40 0 61 -33q17 -26 17 -65zM267 474l-88 -129l86 -107l-16 -12l-94 118l96 142z" />
<glyph unicode="L" horiz-adv-x="453" d="M439 158q0 -73 -52.5 -125.5t-108.5 -52.5q-27 0 -66.5 11.5t-68.5 11.5q-45 0 -106 -33l-10 14l35 34l18 347l-22 -1l-10 -173l-20 2l27 474l20 -2l-10 -180l21 1l12 231l87 15l-17 -241q21 1 74 5l-2 -22l-73 -5l-2 -25l69 2l-2 -20l-69 -3l-2 -33l71 2l-2 -20l-71 -3 l-22 -321q24 8 41 8q29 0 68.5 -12t66.5 -12q29 0 53 14q20 32 20 77q0 39 -27.5 61.5t-70.5 22.5q-6 0 -17 -8q-15 -10 -15 -23q0 -24 33 -24q4 0 10 2l20 19l13 -12q-3 -5 -12 -14l-27 -26q-13 -13 -31 -13q-21 0 -36 12t-15 30q0 44 22 70q26 31 74 37q51 6 91.5 -23 t40.5 -76zM85 464l-22 -1q0 -6 -1 -23l22 1zM83 419l-22 -1l-2 -32l22 1z" />
<glyph unicode="M" horiz-adv-x="759" d="M644 781q14 -21 -7 -35t-35 7t7 35t35 -7zM526 785q14 -21 -7 -35t-35 7t7 35t35 -7zM429 732q14 -21 -7 -35t-35 7t7 35t35 -7zM761 174q0 -87 -56 -136q-52 -45 -110 -45q-41 0 -77 52q-35 49 -37 98v24l-179 3q-3 -76 -62 -130q-62 -57 -133 -57q-40 0 -65 27.5 t-25 70.5q0 50 39 92q35 37 82 39q21 1 35 -14.5t14 -40.5q0 -21 -19 -41l-31 -33l-20 16q22 37 22 41q0 28 -29 24q-12 -2 -22.5 -19.5t-10.5 -30.5q0 -32 17.5 -52t45.5 -20q44 0 79 24q23 32 23 77q0 65 -35 131q-31 51 -63 102q-39 66 -39 169q0 66 41 111q46 50 111 50 q100 0 148 -109q19 65 77 98q44 25 92 25q51 0 86 -38.5t35 -94.5q0 -72 -40 -154q-36 -65 -72 -131q-39 -73 -38 -127q1 -40 25 -79q26 -43 58 -43q29 0 53 14q20 32 20 74q0 40 -20 40q-14 0 -14 -22l4 -26l-30 -27l-21 30q0 41 22 74q9 13 27.5 23.5t29.5 10.5 q62 0 62 -70zM618 545q0 104 -78 104q-27 0 -56 -19q-55 -79 -55 -170l-49 -52q-11 26 -14 52l-4 42q-21 127 -114 127q-25 0 -40 -17q-19 -21 -19 -51q0 -97 26 -141q36 -60 42 -73q23 -43 34 -82l206 -3q15 49 74 150q47 81 47 133zM491 242l-195 3q2 -12 3 -19l188 -3 q2 7 4 19zM484 203l-183 3q1 -6 1 -16l180 -3q0 6 2 16z" />
<glyph unicode="N" horiz-adv-x="558" d="M514 700l-17 -298l-81 -9l-8 307h106zM517 368l-124 -16v16l122 16zM516 345l-1 -23l-126 -12l2 20zM503 298l-14 -309l-105 -6l-243 537l-1 -150l-79 6l-5 315h64l294 -624l-1 222zM163 352l-2 -18h-116l4 22zM168 316l-3 -24l-124 3l1 23zM141 -2l-97 -6l15 285l82 -9 v-270z" />
<glyph unicode="O" d="M682 398l-4 -28h-23q2 -14 2 -22h23l-2 -24h-20v-10q0 -52 -9 -88q-17 -67 -69 -119l-33 -33q-78 -78 -188 -78q-108 0 -141 17q-74 38 -117 104q-50 75 -50 172v33h-35l4 24h33q1 8 3 22h-36l-8 20l47 2q32 126 108 205l33 34q77 79 184 79q50 0 89 -23q36 -21 79 -71 q32 -37 51 -74q36 -70 49 -144zM423 630q-34 12 -72 12q-83 0 -146 -55q-72 -84 -87 -194l40 2q0 3 1 8v7q14 113 102 169q64 40 155 44zM594 286v19q-1 12 -1 18l-65 -1l4 24l58 1q-2 14 -4 22l-54 -1l-8 20q29 2 57 3q-12 51 -38 102q-12 24 -17 31q-7 12 -22 27 q-2 2 -20 27q-13 18 -28 26q-13 1 -27 1q-100 0 -172 -52q-80 -59 -80 -157l37 2l-4 -28l-35 -1v-22l37 1l-2 -24h-32q9 -90 60 -145l-13 -13q-55 59 -66 157q-12 1 -45 0q1 -161 151 -244q29 -16 125 -16q85 0 150 54q35 45 46 89q8 33 8 80zM156 347v22h-41q-1 -7 -1 -22 h42zM393 303q14 -21 -7 -35t-35 7t7 35t35 -7z" />
<glyph unicode="P" horiz-adv-x="499" d="M485 413q1 -131 -150 -184q-63 -22 -151 -27l-8 -206l-29 1l10 299h-27l-7 -302l-84 -6l18 693l81 3l-5 -194h31q3 67 7 194q143 10 230 -69q83 -76 84 -202zM419 403q5 80 -52.5 139.5t-134.5 59.5q-20 0 -39 -5l-14 -350q68 8 117 27q117 43 123 129zM164 470h-31 l-1 -31h30q1 6 2 31zM162 419h-30l-1 -46h29zM159 353h-28l-1 -37h28z" />
<glyph unicode="Q" horiz-adv-x="728" d="M694 248q-3 -73 -65 -141q-51 -57 -113 -83q-51 -22 -124 -22h-21q-35 -70 -35 -122q0 -44 19.5 -72.5t55.5 -28.5q11 0 20 3q6 15 6 35q0 16 -11.5 26.5t-27.5 10.5q-5 0 -22 -11l-10 14l28 25q21 14 31 14q23 0 40 -16t17 -39q0 -53 -30 -82q-34 -33 -76 -33 q-44 0 -68.5 33t-24.5 86q0 54 51 160q-45 6 -88 17q-63 16 -131 96q-80 93 -79 188q1 112 32 166q42 74 102 128q87 79 214 90q65 -4 131 -43q59 -35 95 -83q92 -121 84 -316zM542 543q-74 71 -170 71q-43 0 -86 -16q-68 -25 -117 -94.5t-54 -152.5zM567 516q-8 10 -13 15 q-219 -97 -439 -195q0 -17 1 -25zM578 501l-459 -209q2 -9 4 -19q21 -84 87.5 -141.5t149.5 -67.5q36 90 37 144q2 87 -39 90q-10 1 -17.5 -8.5t-7.5 -21.5q0 -10 16 -24l-30 -32q-25 23 -25 41q0 25 1 31q4 18 21 34q26 25 65 25q36 0 55 -33q16 -30 14 -77 q-3 -54 -52 -170q39 2 74 15q77 29 121 99q43 67 43 149q0 97 -58 175z" />
<glyph unicode="R" horiz-adv-x="627" d="M588 130q4 -18 4 -36q0 -53 -33 -82q-57 -51 -134 -47q-126 6 -249 112q-3 3 -9 8l1 -100l-78 -3l1 186q-24 32 -75 96l49 51q16 -14 26 -22l2 349h-3q-16 0 -63 -10l68 68q32 7 48 7q141 0 242 -36q75 -27 116 -70q65 -69 65 -179q0 -35 -21 -79q-22 -47 -58 -80 q-101 -95 -226 -95q-17 0 -90 13q26 -36 51 -56q140 -111 218 -111q59 0 87 28q13 13 13 48q0 54 -55 54q-26 0 -26 -15q0 -22 58 -22l-46 -45q-62 0 -62 36q0 27 23 55q30 36 75 36q30 0 52.5 -17t28.5 -42zM501 369q0 94 -63 171q-33 40 -110 66q-36 12 -70 19l-2 -390 q36 -2 58 -2q86 0 159 54q28 41 28 82zM242 628q-13 3 -39 6q6 -196 10 -393q4 0 11.5 -1t11.5 -2zM194 245q-4 196 -10 392q-3 1 -10 1.5t-11 0.5l3 -386q9 -2 28 -8zM329 429q14 -21 -7 -35t-35 7t7 35t35 -7z" />
<glyph unicode="S" horiz-adv-x="646" d="M199 753q14 -21 -7 -35t-35 7t7 35t35 -7zM127 675q14 -21 -7 -35t-35 7t7 35t35 -7zM617 257q0 -111 -89 -200q-78 -78 -194 -78q-102 0 -167 38q-50 29 -86 83q-42 61 -42 125q0 84 10 102l48 24l10 -6q-9 -22 -9 -70q0 -62 36 -121q34 -55 81 -76q11 -5 32 -14 q-82 50 -86 140q-3 59 24 96q31 44 95 44q105 0 105 -113q0 -36 -24 -66.5t-58 -30.5q-24 0 -44 19.5t-20 38.5q0 53 42 69l8 -18q-30 -12 -30 -51q0 -12 14.5 -25t29.5 -13q26 0 44 24t18 53q0 43 -22.5 68t-62.5 25q-53 0 -79 -37q-22 -33 -20 -83q3 -63 52 -105 q46 -41 125 -56q81 4 142 66q52 52 52 95q0 182 -157 214q-230 47 -242 150q-5 43 38 95q41 49 118 50q72 1 119 -24q43 -22 47 -52q6 -40 -15 -62q-28 -29 -59 -28q-27 1 -39 25l28 32q7 -11 25 -11q7 0 14 6.5t7 12.5q0 19 -37.5 34.5t-76.5 13.5q-35 -2 -60 -17 q-32 -19 -32 -53q0 -46 73 -70q72 -17 143 -33q171 -40 171 -230zM123 567q14 -21 -7 -35t-35 7t7 35t35 -7z" />
<glyph unicode="T" horiz-adv-x="502" d="M486 700l-6 -92l-452 -4l-8 84zM356 576l-144 -8l6 -476l-22 2l-5 254l-37 2l2 24l34 -3v27h-40l2 24h37v26l-37 -2v24l36 -2q0 53 -2 116l166 12zM316 -2l-72 3l-12 542l77 7z" />
<glyph unicode="U" horiz-adv-x="717" d="M712 92q0 -44 -31 -73q-36 -34 -85 -34q-71 0 -99 89q-70 -95 -183 -95q-61 0 -100 59q-36 55 -36 132q0 58 30.5 177t30.5 173q0 145 -104 145q-49 0 -65 -30q-6 -12 -6 -24q0 -18 11 -30.5t28 -10.5q10 30 10 24l31 29q4 -58 -12 -74l-22 -22q-18 -18 -44 -18 q-24 0 -42.5 23t-18.5 50q0 39 40 85q51 59 125 59q67 0 105 -50q33 -42 33 -102q0 -65 -9 -118l182 24q11 125 34 226l85 11q-27 -132 -35 -185q-16 -98 -19 -199q-3 -96 2 -149q6 -71 16 -97q19 -48 67 -48q26 0 34 10t8 20q0 26 -32 26q-10 0 -12 -1q-4 -5 -9 -9l-13 15 l19 24q8 7 17 13q5 3 21 4q48 2 48 -49zM479 459l-185 -30q-1 -5 -3 -15.5t-3 -16.5l189 33q1 5 1.5 14.5t0.5 14.5zM481 136q0 6 -1 9q-8 117 -7 184q0 43 3 74l-195 -34q-12 -48 -25 -95q-12 -52 -12 -90q0 -56 19 -97q22 -48 60 -48q69 0 123 48q21 18 35 49z" />
<glyph unicode="V" horiz-adv-x="477" d="M417 681l-174 -495l-15 27l165 474zM489 678l-228 -681l-84 -9l-79 280l-35 -13l-3 30l30 10l-10 36l-32 -10l-6 30l30 9l-87 309l99 24l70 -308l26 8l6 -27q-12 -4 -26 -8l9 -37l29 9l3 -24l-26 -10q14 -62 53 -233l219 621z" />
<glyph unicode="W" horiz-adv-x="759" d="M585 723q14 -21 -7 -35t-35 7t7 35t35 -7zM513 645q14 -21 -7 -35t-35 7t7 35t35 -7zM493 541q14 -21 -7 -35t-35 7t7 35t35 -7zM763 578q-20 -13 -55 -35q0 91 -45 91q-17 0 -30 -7q-67 -99 -67 -295q0 -59 20 -173q20 -118 21 -143l-59 -25q-17 3 -77 96 q-43 66 -63 115q-30 72 -38 123q-37 -77 -111 -210l-82 -127l-54 12l38 160q18 84 18 137q0 158 -10 208q-22 111 -102 111q-10 0 -21 -9t-14 -23q-8 -44 22 -44q13 0 34 13l12 -16l-24 -22q-35 -18 -47 -15q-47 11 -40 67q4 32 33 64q15 17 37 29t32 12q155 0 155 -340 q0 -74 -16 -163q41 86 122 251l56 28q24 -123 53 -202q40 -108 85 -162q-37 141 -37 229q0 242 72 341q40 55 115 49q31 -3 50 -46q17 -38 17 -79z" />
<glyph unicode="X" horiz-adv-x="585" d="M541 641l-155 -268l-20 5l157 273zM543 89q0 -49 -32 -81t-66 -32q-86 0 -120 107q-16 50 -33 218l-181 -312l-63 24l234 376q-19 132 -60 213q-30 60 -74 60q-22 0 -41.5 -23.5t-19.5 -39.5q0 -52 35 -56q24 -3 35 36l17 -11q0 -33 -18.5 -52.5t-43.5 -19.5 q-32 0 -51 23.5t-19 58.5q0 51 42.5 93.5t94.5 42.5q25 0 55 -23t41 -45q41 -85 56 -178l151 244l39 -18l-180 -309q7 -80 15 -159q11 -92 34 -137q30 -58 86 -58q11 0 18 3q6 14 6 32q0 40 -37 48q-10 2 -37 -26l-2 38l24 24q11 9 28 9q26 0 46.5 -20.5t20.5 -49.5z M223 339l-177 -280l-20 5l179 285z" />
<glyph unicode="Y" horiz-adv-x="578" d="M564 558l-2 -24h-26q-1 -5 -4 -15.5t-5 -16.5h27l2 -22h-36q-58 -146 -195 -160l5 -326l-78 6l12 319q-158 13 -212 165h-34l4 24h22q-2 7 -7 28h-23l2 20h17q-9 55 -7 114h66q-6 -64 1 -114l406 2q15 56 17 112l36 2q1 -55 -11 -114h23zM492 534l-395 2q4 -20 7 -29 l376 -4q7 14 12 31zM469 480q-96 1 -357 3q46 -113 180 -113q117 0 177 110z" />
<glyph unicode="Z" horiz-adv-x="503" d="M476 640l-314 -580l302 36l-2 -96l-400 -10l336 620q-22 -9 -40 -9q-54 0 -129.5 22t-84.5 22q-52 0 -58 -29t21 -29q16 0 35 29l14 -10q-5 -12 -20 -38q-16 -21 -45 -21q-17 0 -33 15t-16 33q0 38 24 66q32 37 105 37q16 0 93.5 -12t110.5 -12q39 0 100 16zM358 576 l-320 -586l-16 10l320 582z" />
<glyph unicode="[" horiz-adv-x="238" d="M204 723l-9 -71h-66l2 -674h70l-8 -79l-136 6v811z" />
<glyph unicode="\" horiz-adv-x="480" d="M485 -23l-54 -27l-423 740l47 33z" />
<glyph unicode="]" horiz-adv-x="238" d="M189 -95l-136 -6l-8 79h70l2 674h-66l-9 71l147 -7v-811z" />
<glyph unicode="^" horiz-adv-x="362" d="M325 556l-28 -24l-119 77l-118 -73l-28 26l113 126h64z" />
<glyph unicode="_" horiz-adv-x="552" d="M580 -94l-8 -52l-588 6l-8 46h604z" />
<glyph unicode="`" horiz-adv-x="280" d="M219 535l-37 -28l-131 148l77 54z" />
<glyph unicode="a" horiz-adv-x="468" d="M445 55l-5 -53q-24 -22 -49 -22q-48 0 -58 84q-20 -28 -69 -51t-96 -23q-134 0 -134 126q0 47 36 98q51 72 144 72q72 0 117 -34q-21 170 -108 170q-42 0 -84 -38l-21 26q18 31 64 51q42 18 79 16q77 -4 118 -84q36 -69 36 -169q0 -18 -1.5 -47t-1.5 -45q0 -84 -1 -57 q1 -36 12 -36q3 0 10 6.5t12 9.5zM334 165q-38 50 -81 61l-7 -174q51 19 85 54q0 -1 3 59zM233 229q-12 2 -19 2l-8 -186q7 0 19 2q1 1 8 182zM194 232h-2q-9 0 -20 -4l-8 -181q8 0 23 -2q4 94 7 187zM151 219q-66 -36 -66 -92q0 -61 60 -76q4 84 6 168z" />
<glyph unicode="b" horiz-adv-x="467" d="M438 220q0 -92 -66.5 -159t-145.5 -64q-71 3 -112 31v-24l-59 -4l-7 536l-27 -2l-2 20l28 2q1 9 0 33l-26 -2l-2 20l27 2l-1 85l83 8l-2 -87l58 4l2 -20l-60 -4l-1 -32l61 5l2 -20l-63 -5l-3 -165q68 54 156 51q69 -3 114.5 -60t45.5 -149zM370 218q0 60 -27 104 q-31 50 -85 54q-26 2 -63 -10q-43 -14 -75 -41q-1 -69 -5 -256q54 -32 115 -26q52 5 96 59t44 116zM263 216q0 -13 -9.5 -23t-23.5 -10q-13 0 -23 10t-10 23q0 14 10 23.5t23 9.5q14 0 23.5 -9.5t9.5 -23.5z" />
<glyph unicode="c" horiz-adv-x="459" d="M286 498q9 -19 -10 -28t-28 10t10 28t28 -10zM201 477q0 -29 -29 -29t-29 29t29 29t29 -29zM110 446q16 -18 -2 -34t-34 2t2 34t34 -2zM478 207q-48 -74 -100 -118q-118 -100 -201 -100q-64 0 -108.5 54t-44.5 122q0 105 85 193q78 81 163 81q32 0 58 -15q29 -18 29 -43 q0 -34 -20 -53l-54 -51l-20 22q25 24 25 41q0 27 -59 27q-53 0 -95 -30q-40 -59 -40 -130q0 -56 35.5 -101t87.5 -45q72 0 156 72q38 32 79 92zM245 110l-3 -22q-120 18 -120 123q0 44 19 89l19 -9q-17 -40 -17 -77q0 -89 102 -104z" />
<glyph unicode="d" horiz-adv-x="483" d="M338 454l-18 -4l-2 242l16 2zM438 698l-6 -702l-57 -8l-1 37q-49 -43 -136 -43q-78 0 -132 39q-72 50 -72 155q0 97 77.5 169t182.5 72q33 0 66 -9q-2 79 -10 290h88zM372 86l-9 254q-26 6 -58 6q-75 0 -125 -33q-64 -44 -64 -135q0 -128 122 -128q85 0 134 36zM231 291 q11 -17 -7 -29q-17 -11 -29 7q-11 17 7 29q17 11 29 -7zM197 221q15 -21 -5 -35q-21 -15 -35 5q-15 21 5 35q21 15 35 -5zM218 113q-2 -11 -10 -17t-20 -5q-11 2 -17 10t-5 20q2 11 10 17t20 5q11 -2 17 -10t5 -20z" />
<glyph unicode="e" horiz-adv-x="465" d="M433 22q-31 -8 -63 -17q-46 -9 -118 -9q-94 0 -154 56q-69 64 -69 188q0 100 84 159q71 51 162 51q137 0 158 -138l-336 -8q-6 -16 -7 -26l340 10l-2 -24l-342 -10v-14q0 -87 52 -146q49 -56 120 -56q74 0 166 20zM382 348q-31 60 -104 60q-116 0 -167 -77z" />
<glyph unicode="f" horiz-adv-x="365" d="M154 736q14 -21 -7 -35t-35 7t7 35t35 -7zM90 657q14 -21 -7 -35t-35 7t7 35t35 -7zM47 568q14 -21 -7 -35t-35 7t7 35t35 -7zM376 607q0 -68 -36 -108q-29 -33 -65 -33q-27 0 -49.5 18.5t-22.5 38.5q0 31 15 45l33 31l14 -14q-15 -15 -15 -29t12 -27.5t30 -13.5 q23 0 23 51q0 29 -20 49q-24 23 -68 23q-33 0 -63 -18q-24 -40 -24 -87t16 -99q15 -44 29 -87q8 -26 15 -74q29 0 57 4t53 4q15 0 36 -7l-50 -48q-21 3 -20 3q-3 0 -72 -6q2 -36 2 -53q0 -112 -55 -166l-53 -52l-14 14q59 59 59 155q0 53 -6 99q-47 2 -122 21l50 46 q19 -5 61 -11q-2 10 -4 16q-14 45 -29 90q-16 54 -16 102q0 83 45 128l53 53q34 34 93 34q52 0 82 -30q26 -26 26 -62z" />
<glyph unicode="g" horiz-adv-x="418" d="M401 13q15 -21 -5 -35q-21 -15 -35 5q-15 21 5 35q21 15 35 -5zM323 43q10 -18 -7 -27q-18 -10 -27 7q-10 18 7 27q18 10 27 -7zM408 -126q0 -81 -80 -123q-58 -30 -123 -30q-74 0 -128 36q-57 39 -57 100q0 77 132 109q-27 20 -27 43q0 34 37 63q-58 7 -91 54 q-31 44 -31 111q0 104 58 157l38 35q36 33 88 33q31 0 54 -13q28 61 86 59q34 -1 34 -35q0 -14 -11 -22l-25 -22l-15 15q3 1 3 6q0 14 -17 14q-22 0 -28 -39q10 -12 29 -38q23 -41 23 -97q0 -100 -57 -153l-38 -35q-25 -23 -53 -28q-19 -19 -19 -33q0 -32 56 -41 q162 -26 162 -126zM273 341q-13 31 -37 49h-1q-18 11 -49 11q-27 0 -47 -11q-32 -45 -32 -118q0 -24 5 -49zM285 306q-1 6 -4 16l-162 -120q1 -2 3 -6.5t3 -6.5zM290 255q0 9 -2 29l-152 -112q30 -40 85 -40q20 0 38 8q31 47 31 115zM343 -161q0 55 -69 83q-30 7 -50 7 q-47 0 -87 -12q-52 -14 -52 -41q0 -48 44 -73q40 -23 103 -23q28 0 67 18q44 20 44 41z" />
<glyph unicode="h" horiz-adv-x="437" d="M142 696l-2 -137l-89 -3l-3 138zM175 528l-150 -10l-2 20l150 10zM454 55q0 -27 -18 -57q-24 -40 -66 -40q-43 0 -67 34q-20 29 -20 73q0 25 7.5 93t7.5 85q0 52 -17 90q-20 46 -57 46q-31 0 -56 -33q-22 -29 -31 -70l-3 -272l-70 -2l-12 504l87 3l-1 -133q43 62 101 62 q56 0 88 -57q26 -47 26 -110q0 -28 -6 -91t-6 -86q0 -38 8 -55q12 -24 44 -24q7 0 14.5 11t7.5 20q0 28 -24 28q-5 0 -11 -6l-16 16l18 17q14 13 29 13q43 0 43 -59z" />
<glyph unicode="i" horiz-adv-x="226" d="M202 588q0 -36 -25.5 -61.5t-61.5 -25.5t-61.5 25.5t-25.5 61.5t25.5 61.5t61.5 25.5t61.5 -25.5t25.5 -61.5zM167 460l-2 -468l-16 2l-2 466h20zM129 -10l-62 6l-8 462h70v-468zM152 588q0 15 -11 26t-26 11t-26 -11t-11 -26t11 -26t26 -11t26 11t11 26z" />
<glyph unicode="j" horiz-adv-x="226" d="M170 613q7 -12 7 -25q0 -26 -20 -39q-12 -8 -26 -8q-19 0 -32.5 13.5t-13.5 33.5q0 26 21 39q11 7 25 7q26 0 39 -21zM172 338l-123 -3v20l123 3v-20zM163 296l-123 -3v20l123 3v-20zM169 257l-123 -3v20l123 3v-20zM190 302q0 -151 -12 -292q-5 -61 -26 -114 q-26 -64 -68 -91q-50 -32 -98 -32q-26 0 -50.5 30.5t-24.5 59.5q0 39 27 64l25 23q22 21 47 19q39 -2 39 -51q0 -9 -15 -31l-19 -20l-19 13q8 16 8 19q0 27 -15 27q-10 0 -16 -11t-6 -20q0 -22 16 -45.5t35 -23.5q14 0 37 18.5t30 37.5q17 45 21 96q12 139 12 289 q0 45 -9 193l72 27q9 -183 9 -185z" />
<glyph unicode="k" horiz-adv-x="367" d="M179 653q10 -18 -7 -27q-18 -10 -27 7q-10 18 7 27q18 10 27 -7zM193 564q0 -26 -26 -26t-26 26t26 26t26 -26zM187 491q12 -22 -9 -33q-22 -12 -33 9q-12 22 9 33q22 12 33 -9zM463 -57q7 -58 -42 -101q-30 -26 -73 -26q-39 0 -66 32q-23 28 -29 71q-2 19 0 60l3 51 q0 75 -35 138q-38 72 -98 78l5 -257l-83 8l10 694l59 -4l7 -352l168 151l60 -54l-203 -140q64 -2 115.5 -74.5t51.5 -152.5q0 -16 -3 -55.5t-3 -59.5q0 -34 18 -57q20 -26 52 -26q15 0 23 14t6 27q-5 25 -34 25q-5 0 -11 -6l-14 -11l-13 12q3 5 11 13l35 35q11 14 27 14 q50 0 56 -47z" />
<glyph unicode="l" horiz-adv-x="270" d="M272 30l-25 -28q-20 -22 -37 -22q-33 0 -69 58q-25 41 -40 86q-15 -26 -51 -83q-9 -14 -27 -39l-22 17q42 63 84 164q-22 96 -22 195q0 104 23 199q31 130 89 130q36 0 40 -60q2 -26 2 -53q0 -218 -77 -397q33 -126 98 -156q10 -6 20 12zM162 610q0 4 -3 23 q-41 -82 -41 -251q0 -41 5 -94q41 139 41 270q0 27 -2 52z" />
<glyph unicode="m" horiz-adv-x="561" d="M549 65q0 -42 -27 -74t-63 -32q-33 0 -58.5 25.5t-25.5 60.5q0 22 3 41l-202 3q-6 -124 -98 -124q-69 0 -69 64q0 26 11.5 42t19.5 20q16 8 50 8q-28 -17 -28 -43q0 -39 30 -39q25 0 25 58q0 45 -36 110.5t-36 120.5q0 57 35 92l35 35q31 31 76 31q77 0 107 -92 q21 51 44 74q30 30 77 30t76 -38q26 -35 26 -85q0 -60 -43.5 -140.5t-43.5 -132.5q0 -25 18 -44t42 -19q7 0 10 1q6 17 6 33q0 30 -30 30q-4 0 -27 -6l25 39q2 0 8 2.5t9 2.5q24 0 39 -16t15 -38zM462 318q0 100 -70 100q-24 0 -49 -62q-19 -53 -38 -105l-59 -60q6 62 6 55 q0 65 -21 107q-25 52 -75 52q-22 0 -37 -22.5t-15 -41.5q0 -52 27 -104q36 -69 40 -85l224 -4q5 13 43 90q24 48 24 80zM388 128q-217 4 -213 3q1 -6 1 -21v-1l206 -3q2 8 6 22z" />
<glyph unicode="n" horiz-adv-x="400" d="M366 281q1 -17 -4 -155q-4 -131 -6 -154l-77 1q14 250 12 270q-12 136 -71 136q-61 0 -85 -93l-1 -76l59 4l2 -20l-61 -4l-1 -34l57 4l2 -20l-60 -4q0 -44 -2 -138l-70 -2l-5 135l-43 -3l-2 20l44 3l-1 33q-10 0 -38 -2l-2 20q40 3 39 2l-8 246l94 2l-1 -73q38 60 110 60 q57 0 90 -58q25 -44 29 -100z" />
<glyph unicode="o" horiz-adv-x="506" d="M475 162q-5 -49 -45 -94q-34 -37 -74 -55q-32 -14 -81 -14q-48 0 -98 13q-42 11 -88 64q-52 62 -52 125q1 73 22 110q26 45 67 86q62 52 143 59q43 -2 87 -29q39 -23 63 -55q58 -77 58 -178q0 -16 -2 -32zM411 178q4 19 4 38q0 34 -13 66q-19 46 -57 74t-84 28 q-61 0 -100 -42zM405 159l-257 169q-8 -10 -14 -20q131 -85 261 -172q4 7 10 23zM386 120l-260 171q-3 -6 -8 -20q127 -83 254 -167q3 3 7.5 8.5t6.5 7.5zM357 91q-66 44 -244 161q-6 -36 2 -67q15 -54 58.5 -88.5t96.5 -34.5q47 0 87 29z" />
<glyph unicode="p" horiz-adv-x="459" d="M426 235q0 -91 -52.5 -148.5t-123.5 -60.5q-75 -3 -134 43l3 -177l61 -4l-2 -20l-59 4l1 -39l57 -4l-2 -20l-55 4l2 -78l-83 8l1 76l-30 2l2 20l28 -2l1 39l-28 2l2 20l26 -2l8 565l59 -4l1 -50q39 28 111 31q80 3 141 -54q65 -60 65 -151zM358 237q0 61 -40.5 106.5 t-93.5 50.5q-63 6 -114 -27q3 -122 4 -244q61 -48 116 -44q56 4 93 54q35 47 35 104zM286 314q0 -29 -29 -29t-29 29t29 29t29 -29zM320 244q10 -21 -11 -31q-22 -10 -31 11q-10 22 11 31t31 -11zM290 166q12 -22 -11 -34q-13 -6 -25 1.5t-12 21.5q0 25 24 25q16 0 24 -14z " />
<glyph unicode="q" horiz-adv-x="454" d="M530 -155q0 -72 -57 -108q-40 -26 -82 -26q-55 0 -86 80q-26 67 -26 157q0 56 8 115q-60 -55 -133 -55q-56 0 -88 46q-30 42 -30 108q0 88 43 169q60 111 174 111q76 0 125 -73q5 12 14 34q6 15 22 40l32 -14q-15 -37 -42 -108q-69 -207 -69 -371q0 -70 19 -119 q24 -60 70 -60q14 0 31.5 14.5t17.5 30.5q0 55 -30 55q-15 0 -15 -13q0 -5 9 -14l-29 -30q-16 22 -16 34q0 32 20.5 54.5t51.5 22.5q32 0 49 -22.5t17 -57.5zM348 292q-51 96 -125 96q-48 0 -90 -33q-28 -41 -36 -105l236 -2q3 8 8 22.5t7 21.5zM327 228l-232 2 q-1 -5 -1 -16l228 -2q1 3 2.5 8.5t2.5 7.5zM316 192l-222 2q1 -54 24 -88q25 -38 69 -38q54 0 108 40q9 44 21 84z" />
<glyph unicode="r" horiz-adv-x="354" d="M324 274l-47 12q11 27 11 51q0 49 -43 49q-63 0 -107 -100l-2 -112l-74 1l6 211l-68 10v46l130 -2l2 -66l40 46q31 26 85 26q41 0 65 -30q21 -28 21 -69q0 -40 -19 -73zM202 136l-166 6v20l166 -6v-20zM135 124l-1 -124l-78 -12l4 137z" />
<glyph unicode="s" horiz-adv-x="536" d="M509 146q0 -141 -152 -146h-338l3 55q6 0 84 -3l91 165q-148 18 -148 103q0 109 185 122q103 7 161 6l-3 -58q-116 10 -186 -6q-61 -14 -70 -18q-32 -15 -32 -52q0 -33 103 -41q30 -2 153 -2q62 0 102 -28q47 -33 47 -97zM433 137q0 41 -19 57.5t-63 18.5h-48l-88 -160 q88 2 127 2q91 0 91 82zM283 213h-23l-89 -160h24zM240 214q-16 0 -24 1l-90 -163h25z" />
<glyph unicode="t" horiz-adv-x="370" d="M188 633q-2 -34 -8 -155l-91 -2l-3 115zM256 442l-244 -6v20l244 6v-20zM256 408l-244 -6v20l244 6v-20zM345 146q0 -97 -63 -138q-38 -24 -88 -24q-44 0 -72 39q-26 36 -26 85q0 110 -4 278l86 2l-13 -245q0 -103 64 -103q25 0 44 10q15 26 15 61q0 40 -45 40l-26 -27 l-19 11q9 35 34 55q22 18 45 18q29 0 48.5 -17.5t19.5 -44.5z" />
<glyph unicode="u" horiz-adv-x="421" d="M383 474l-12 -477h-51l-3 87q-51 -95 -144 -95q-92 0 -92 116q0 46 24 119t24 121q0 75 -43 75q-20 0 -20 -16q0 -19 10 -19q9 0 15 5l15 -17l-27 -27q-13 -10 -32 -10q-14 0 -24.5 15.5t-10.5 32.5q0 28 17 52q28 39 92 39q34 0 54 -30q17 -27 17 -67q0 -48 -21 -120 t-21 -118t9 -64q12 -24 47 -24q26 0 57 34.5t50 83.5q-2 80 -11 295zM72 238q11 -15 -4 -26t-26 4t4 26t26 -4zM60 136q0 -23 -23 -23t-23 23t23 23t23 -23zM64 64q12 -17 -6 -30q-17 -12 -30 6q-12 17 6 30q17 12 30 -6z" />
<glyph unicode="v" horiz-adv-x="402" d="M417 458l-192 -466l-58 -2l-168 448l84 34l109 -313l132 313l18 -8l-141 -333q4 -9 12 -33l152 372z" />
<glyph unicode="w" horiz-adv-x="512" d="M494 196q0 -100 -51 -148l-35 -33q-28 -21 -58 -21q-80 0 -110 71q-39 -76 -126 -76q-92 0 -92 98q0 41 24 115t24 119q0 22 -23 60q-26 40 -50 45l65 43q28 -10 53 -52q23 -38 23 -64q0 -46 -24 -119.5t-24 -115.5q0 -69 58 -69q29 0 52 42q19 34 25 77v50l63 58 q2 -35 2 -96q0 -125 95 -125q-2 0 16 3q25 43 25 107q0 37 -25.5 104.5t-25.5 108.5q0 46 24 94l69 21q-25 -54 -25 -83q0 -41 25.5 -109t25.5 -105zM173 356q0 -52 -24 -132t-24 -108h-20q0 28 24 108t24 132q0 34 -20 66l-30 42l16 12q31 -42 33 -46q21 -36 21 -74z" />
<glyph unicode="x" horiz-adv-x="512" d="M461 441l-334 -449l-24 5l334 449zM272 310l-46 -61q-1 56 -27 98q-30 47 -76 47q-18 0 -42 -11q-14 -26 -14 -48q0 -64 40 -64q5 0 7 1q2 8 2 11q0 13 -29 29l32 31q33 -16 33 -41q0 -26 -17 -43l-22 -22q-17 -17 -41 -17q-26 0 -42 26q-14 23 -14 54q0 46 33 79l35 35 q31 31 74 31q84 0 114 -135zM498 130q0 -46 -33 -79l-35 -35q-31 -31 -74 -31q-84 0 -104 144l50 67q1 -10 1 -31q0 -50 19 -85q24 -44 69 -44q19 0 43 11q13 24 13 48q0 64 -40 64q-5 0 -7 -1q-2 -8 -2 -11q0 -13 29 -29l-36 -37q-35 17 -35 39q0 25 19 45l26 28 q16 17 41 17q26 0 41 -24.5t15 -55.5zM422 445l-334 -449l-24 5l334 449z" />
<glyph unicode="y" horiz-adv-x="402" d="M416 444q-18 -57 -48 -179q-29 -117 -47 -173q-60 -189 -150 -277q-51 -50 -120 -50q-43 0 -66 33q-20 29 -20 74q0 35 21 71q32 53 94 53q19 0 37.5 -18.5t18.5 -37.5q0 -22 -11 -42l-36 -37l-18 13q8 18 8 31q0 12 -7.5 23t-19.5 11t-21 -12t-9 -20q0 -85 64 -85 q33 0 62 35q38 45 72 140l-107 188l-32 -21l-10 16l33 21l-10 17q-8 -5 -31 -20l-10 16q16 11 32 20l-11 20l-31 -20l-10 16l31 20q1 1 -79 141l87 48l66 -142l67 43l10 -16l-69 -44q3 -5 10 -20l69 44l10 -16l-71 -45l9 -18l70 45l10 -16l-72 -46l69 -146q17 56 49 186 q33 135 49 189z" />
<glyph unicode="z" horiz-adv-x="450" d="M208 312q-23 0 -23 23t23 23t23 -23t-23 -23zM442 111q0 -37 -26 -75q-39 -56 -111 -56q-32 0 -88.5 23.5t-94.5 23.5q-34 0 -70 -26l-42 35l316 356l-252 -14l-6 68l336 2l6 -54l-244 -306q31 -2 77 -27t86 -25q19 0 37.5 18.5t18.5 35.5q0 49 -35 49q-14 0 -14 -14 q0 -2 10 -19l-36 -33q-19 22 -19 46q0 75 78 75q33 0 53 -24t20 -59zM170 290q13 -15 -2 -28t-28 2t2 28t28 -2zM121 223q9 -22 -13 -31t-31 13t13 31t31 -13z" />
<glyph unicode="{" horiz-adv-x="280" d="M241 -123q-72 11 -114.5 53t-42.5 106q0 40 22 95.5t22 85.5q0 18 -11 37t-30 25.5t-56 11.5v56h22q34 0 58.5 18t24.5 45q0 30 -19.5 81.5t-19.5 86.5q0 101 144 151v-72q-80 -23 -80 -89q0 -37 16 -84t16 -80q0 -24 -18 -48.5t-42 -38.5q61 -39 61 -86t-24 -101 t-24 -93t22 -59.5t73 -29.5v-71z" />
<glyph unicode="|" horiz-adv-x="230" d="M148 -55l-60 -6v775l57 -3z" />
<glyph unicode="}" horiz-adv-x="280" d="M255 291q-37 -5 -56 -11.5t-30 -25.5t-11 -37q0 -30 22 -85.5t22 -95.5q0 -64 -42.5 -106t-114.5 -53v71q51 9 73 29.5t22 59.5t-24 93t-24 101t61 86q-24 14 -42 38.5t-18 48.5q0 33 16 80t16 84q0 66 -80 89v72q144 -50 144 -151q0 -35 -19.5 -86.5t-19.5 -81.5 q0 -27 24.5 -45t58.5 -18h22v-56z" />
<glyph unicode="~" horiz-adv-x="417" d="M378 658l-26 -44q-46 -58 -103 -58q-23 0 -56.5 24.5t-57.5 24.5q-34 0 -61 -47l-28 16l24 41q38 65 90 65q23 0 56.5 -24.5t57.5 -24.5q41 0 78 45z" />
<glyph unicode="&#xa1;" horiz-adv-x="285" d="M233 648q0 -33 -24 -57.5t-57 -24.5q-34 0 -58 24.5t-24 57.5t24 57t58 24q33 0 57 -24t24 -57zM94 456l-23 -244l-21 3l23 243zM248 71l-43 -3l3 -109l-132 16l7 85l-32 -2l-2 21l36 2l4 42l-38 -2l-2 21l42 3l32 385l66 -4l13 -374l44 3l2 -21l-45 -3l1 -42l42 3z M212 648q0 25 -17.5 42.5t-42.5 17.5q-26 0 -43.5 -17.5t-17.5 -42.5t18 -43t43 -18t42.5 18t17.5 43zM167 650q0 -19 -19 -19q-18 0 -18 19t18 19q19 0 19 -19z" />
<glyph unicode="&#xa2;" horiz-adv-x="528" d="M492 349q-51 -76 -97 -115q-76 -65 -131 -84l4 -115h-56l5 106h-10q-62 0 -104 51t-42 116q0 99 79 181q41 43 78 59l-6 139h56l-4 -123q20 2 30 2q32 0 59.5 -17.5t27.5 -42.5q0 -33 -21 -53l-54 -52l-25 32q23 22 23 34q0 19 -48 19q-46 0 -82 -25q-35 -51 -35 -114 q0 -48 30 -86q32 -41 77 -41q64 0 138 64q25 21 77 88z" />
<glyph unicode="&#xa3;" horiz-adv-x="485" d="M452 158q0 -73 -52.5 -125.5t-108.5 -52.5q-27 0 -66.5 11.5t-68.5 11.5q-45 0 -106 -33l-10 14l35 34l15 260l-22 -1l-10 -173l-20 2l27 474l20 -2l-10 -180q21 0 21 1l10 167q1 24 17 56q18 37 45 60q49 41 109 41q37 0 72 -33.5t35 -74.5q0 -17 -9 -40l-40 -51l-13 11 q6 18 6 31q0 38 -22.5 68.5t-51.5 30.5q-21 0 -42 -28.5t-26 -66.5l-8 -166q20 1 74 5l-2 -22l-73 -5l-2 -25l69 2l-2 -20l-69 -3l-2 -33l71 2l-2 -20l-71 -3l-19 -234q24 8 41 8q29 0 68.5 -12t66.5 -12q29 0 53 14q20 32 20 77q0 39 -27.5 61.5t-70.5 22.5q-6 0 -17 -8 q-15 -10 -15 -23q0 -24 33 -24q4 0 10 2l20 19l13 -12q-3 -5 -12 -14l-27 -26q-13 -13 -31 -13q-21 0 -36 12t-15 30q0 44 22 70q26 31 74 37q51 6 91.5 -23t40.5 -76zM95 377l-22 -1q0 -6 -1 -23l22 1zM93 332l-22 -1l-2 -32l22 1z" />
<glyph unicode="&#xa4;" horiz-adv-x="543" d="M495 33l-56 -62l-47 52q-36 -24 -100 -24q-50 0 -98 13q-22 6 -50 28q-31 -35 -61 -69l-56 62l61 67q-35 52 -34 101q1 74 22 110q10 17 25 37l-74 83l56 60l74 -83q59 42 129 48q48 -3 93 -32l60 67l56 -60l-56 -63q55 -77 55 -173q0 -68 -39 -117zM428 178q4 19 4 38 q0 34 -13 66q-19 46 -57 74t-84 28q-61 0 -100 -42zM422 159l-257 169q-8 -10 -14 -20q131 -85 261 -172q4 7 10 23zM403 120l-260 171q-3 -6 -8 -20q127 -83 254 -167q3 3 7.5 8.5t6.5 7.5zM374 91q-66 44 -244 161q-6 -36 2 -67q15 -54 58.5 -88.5t96.5 -34.5q47 0 87 29z " />
<glyph unicode="&#xa5;" horiz-adv-x="585" d="M564 558l-2 -24h-26q-1 -5 -4 -15.5t-5 -16.5h27l2 -22h-36q-58 -146 -195 -160q1 -38 0 -39l136 -1v-62l-135 -3q1 -14 1 -48h132v-61l-131 -1l2 -111l-78 6l4 105l-135 -1l6 63h131l2 47l-133 -3l10 73l125 -2q1 10 2 37q-158 13 -212 165h-34l4 24h22q-2 7 -7 28h-23 l2 20h17q-9 55 -7 114h66q-6 -64 1 -114l406 2q15 56 17 112l36 2q1 -55 -11 -114h23zM492 534l-395 2q4 -20 7 -29l376 -4q7 14 12 31zM469 480q-96 1 -357 3q46 -113 180 -113q117 0 177 110z" />
<glyph unicode="&#xa6;" horiz-adv-x="230" d="M146 387q-58 0 -58 -1v328l57 -3zM148 -55l-60 -6v323h59z" />
<glyph unicode="&#xa7;" horiz-adv-x="319" d="M269 657l-37 -63q-19 12 -37 25q-21 12 -38 12q-27 0 -43 -14q-5 -22 -5 -31q0 -63 40 -103q38 -31 76 -63q40 -40 40 -103q0 -42 -17 -71l-26 -45q-18 -31 -45 -32q47 -36 60 -52q28 -35 28 -89q0 -43 -17 -72l-26 -45q-18 -31 -49 -31q-73 0 -129 75l37 61 q49 -70 119 -70q7 0 13 3q5 18 5 34q0 62 -40 103l-76 62q-40 40 -40 103q0 38 16 66l26 46q19 27 42 37q-45 36 -57 53q-27 35 -27 88q0 38 16 66l26 45q27 46 79 46q26 0 86 -41zM218 272q0 23 -7 46q-36 24 -54 24q-26 0 -43 -15q-5 -22 -5 -31q0 -13 3 -27 q35 -33 88 -33q7 0 13 3q5 18 5 33z" />
<glyph unicode="&#xa8;" horiz-adv-x="402" d="M350 627q0 -23 -17 -40.5t-42 -17.5q-23 0 -40 17.5t-17 40.5t17 40.5t40 17.5q25 0 42 -17t17 -41zM178 627q0 -23 -17 -40.5t-40 -17.5q-24 0 -41.5 17.5t-17.5 40.5q0 24 17.5 41t41.5 17q23 0 40 -17.5t17 -40.5z" />
<glyph unicode="&#xa9;" horiz-adv-x="777" d="M700 453q17 -50 17 -103q0 -129 -94 -232q-97 -105 -224 -105q-102 0 -197 61.5t-123 142.5q-16 46 -16 101q0 106 54 205.5t137 135.5q46 20 104 20q108 0 206 -62q103 -65 136 -164zM672 443q-31 90 -122.5 148t-189.5 58q-52 0 -94 -18q-76 -32 -126 -125 q-48 -89 -48 -186q0 -51 15 -93q26 -73 112 -128.5t178 -55.5q116 0 203.5 94.5t87.5 212.5q0 47 -16 93zM452 351q0 -14 -10 -23.5t-24 -9.5t-24.5 9.5t-10.5 23.5t10 24.5t24 10.5q15 0 25 -10.5t10 -24.5zM557 163q-29 -8 -58 -15q-43 -9 -109 -9q-87 0 -142 51 q-64 60 -64 174q0 93 78 148q65 46 149 46q55 0 83 -9q25 -8 49 -29l-27 -28q-44 28 -102 28q-30 0 -65 -10l7 -326q21 -7 40 -7q58 0 153 19zM344 188l-7 318q-13 -4 -19 -8l6 -301q12 -7 20 -9zM312 205l-6 287l-9 -6t-9 -7l5 -258q9 -8 19 -16zM280 235l-4 234 q-40 -42 -40 -105q0 -75 44 -129z" />
<glyph unicode="&#xaa;" horiz-adv-x="360" d="M323 398l-3 -37q-17 -15 -34 -15q-33 0 -41 59q-14 -20 -47 -35q-36 -17 -68 -17q-94 0 -94 88q0 33 25 69q36 50 101 50q51 0 82 -24q-14 119 -76 119q-29 0 -59 -26l-14 18q13 22 43 35t57 12q54 -3 82 -59q25 -48 25 -118q0 -13 -1 -33.5t-1 -31.5q0 -65 8 -65 q2 0 7 4.5t8 6.5zM246 475q-27 35 -57 43l-5 -122q39 15 60 38q0 13 2 41zM175 520q-8 2 -13 2l-6 -131q5 0 13 2q1 1 6 127zM148 522h-2q-8 0 -14 -2l-5 -127q5 0 16 -2zM118 513q-47 -26 -47 -64q0 -42 42 -53z" />
<glyph unicode="&#xab;" horiz-adv-x="450" d="M364 89l-31 -68l-132 172v38l125 168l36 -59l-105 -128zM232 89l-31 -68l-132 172v38l125 168l36 -59l-105 -128z" />
<glyph unicode="&#xac;" horiz-adv-x="434" d="M392 148l-130 2l2 124l-214 -5l12 116l326 -5z" />
<glyph unicode="&#xad;" horiz-adv-x="405" d="M356 380l-2 -102l-304 -9l12 116z" />
<glyph unicode="&#xae;" horiz-adv-x="519" d="M467 560q11 -33 11 -66q0 -85 -62 -152.5t-145 -67.5q-66 0 -128 40t-80 92q-10 30 -10 66q0 69 35 133.5t89 87.5q30 13 68 13q70 0 135.5 -41t86.5 -105zM449 553q-20 58 -79.5 96t-123.5 38q-34 0 -61 -12q-49 -21 -81 -80.5t-32 -122.5q0 -32 9 -59q17 -47 73 -83.5 t116 -36.5q76 0 132.5 61.5t56.5 138.5q0 30 -10 60zM365 414q7 -27 -10 -42q-21 -18 -48 -17q-51 2 -92 43v-36l-28 -1l1 67q-18 22 -27 34l17 18q1 -1 10 -7l1 124h-2q-2 0 -22 -4l24 24q5 3 17 3q46 0 87 -12q28 -12 41 -26q24 -25 24 -63q0 -30 -29 -58q-35 -33 -81 -33 q-13 0 -31 4q8 -13 18 -20q52 -40 77 -40q22 0 31 11q5 4 5 17q0 19 -20 19q-9 0 -9 -6q0 -7 21 -7l-17 -16q-22 0 -22 12q0 11 8 20q11 13 27 13q23 0 29 -21zM334 499q0 36 -23 61q-12 15 -39 24q-7 3 -25 7l-1 -139q7 -1 21 -1q30 0 57 19q10 15 10 29zM242 592 q-10 2 -14 2l3 -140q4 0 8 -2zM224 455q-1 39 -3 140q-5 0 -8 1l2 -138zM278 521q6 -7 -2 -13q-8 -4 -13 3q-1 2 -1 4q0 6 4 8q8 6 12 -2z" />
<glyph unicode="&#xaf;" horiz-adv-x="417" d="M332 672l-12 -84l-232 6l-4 72z" />
<glyph unicode="&#xb0;" horiz-adv-x="375" d="M323 591q7 -19 7 -39q0 -52 -39.5 -95.5t-89.5 -43.5q-44 0 -85.5 31t-54.5 68q-7 21 -7 45q0 52 30 95q34 47 84 47q46 0 93 -33.5t62 -74.5zM176 636q-26 0 -43 -24.5t-17 -52.5q0 -14 4 -26q7 -21 30 -38.5t47 -17.5q27 0 48.5 23t21.5 49q0 29 -31 58t-60 29z" />
<glyph unicode="&#xb1;" horiz-adv-x="405" d="M372 298l-119 -3l2 -163l-96 10l3 150l-124 -3l10 96l116 -2l4 151h82l2 -152l120 -2v-82zM372 4l-334 -9l10 96l324 -5v-82z" />
<glyph unicode="&#xb2;" horiz-adv-x="462" d="M437 318l-30 -31q-16 75 -55 122q-13 -52 -53 -90q-55 -53 -138 -53q-43 0 -73 28t-30 70q0 53 33 84l21 20q43 41 109 41q55 0 98 -21q-2 47 -26 100q-33 73 -125 73q-18 0 -31 -7q-8 -12 -8 -32q0 -33 22 -33q4 3 6 11q2 10 -2 16l15 19q13 -19 13 -27q0 -9 -10 -21 l-16 -19q-7 -8 -20 -8q-15 0 -27.5 13t-12.5 29q0 32 19 51l21 21q19 19 51 19q100 0 136.5 -80.5t36.5 -125.5v-27q59 -51 76 -142zM316 443q-50 34 -115 34q-45 0 -87 -32q-24 -31 -24 -60q0 -38 23 -59t62 -21q54 0 96 39q37 34 45 99zM268 439q7 -13 -6 -20t-20 6t6 20 t20 -6zM206 447q6 -12 -5 -19q-13 -7 -19 5q-8 11 5 19q12 8 19 -5zM157 422q7 -11 -5 -19q-13 -6 -19 4q-7 11 5 20q13 7 19 -5zM140 374q5 -13 -7 -19q-14 -7 -21 7q-5 13 8 20q13 5 20 -8z" />
<glyph unicode="&#xb3;" horiz-adv-x="360" d="M322 447q0 -62 -139 -147q-54 -33 -128 -56l3 41q73 21 138 62q90 57 90 84q0 44 -67 60l-112 14l143 144h-18l-122 -123l-9 4l117 118l-144 -6l2 44l221 4l6 -32l-113 -128q72 -13 89 -20q43 -19 43 -63z" />
<glyph unicode="&#xb4;" horiz-adv-x="280" d="M227 655l-131 -148l-37 28l91 174z" />
<glyph unicode="&#xb6;" horiz-adv-x="499" d="M446 637l-49 -2l-3 -696l-60 -6l6 699l-57 -3l-3 -690l-60 -6l2 337q-68 6 -117 50q-60 54 -60 148q0 124 68 187q42 39 102 48h230z" />
<glyph unicode="&#xb7;" horiz-adv-x="273" d="M219 351q0 -28 -20 -48t-48 -20t-48 20t-20 48t20 48t48 20t48 -20t20 -48z" />
<glyph unicode="&#xb8;" horiz-adv-x="282" d="M119 -243q-50 3 -80 40l16 28q26 -18 57 -12q53 10 53 55q0 36 -28 49q-9 4 -21 4q-20 0 -40 -11l-21 16l22 112l63 -1l-19 -70q25 5 50 -2q67 -19 67 -93q0 -50 -34 -84t-85 -31z" />
<glyph unicode="&#xb9;" horiz-adv-x="236" d="M196 688l-4 -419l-13 2l2 415zM169 263l-44 4l2 339q-20 -22 -41 -23q-42 -1 -42 35q0 27 23 33q17 4 17 -11q0 -7 -7 -9.5t-7 -12.5q0 -12 17 -7q40 12 40 59v25l42 2v-434z" />
<glyph unicode="&#xba;" horiz-adv-x="380" d="M340 493q-4 -34 -32 -65q-23 -27 -51 -39q-22 -10 -57 -10q-33 0 -68 9q-29 8 -61 45q-37 44 -37 88q1 52 14.5 76.5t47.5 60.5q44 36 100 41q62 -3 105 -59q40 -53 40 -124q0 -11 -1 -23zM296 505q8 36 -7 72q-30 71 -99 71q-45 0 -69 -29zM291 491l-179 119 q-3 -5 -10 -14q91 -60 182 -121q2 3 7 16zM278 464l-182 120q-2 -4 -5 -14l177 -117q4 3 10 11zM258 444l-171 112q-5 -25 1 -47q10 -37 41 -61t68 -24q34 0 61 20z" />
<glyph unicode="&#xbb;" horiz-adv-x="450" d="M383 193l-132 -172l-31 68l107 123l-105 128l36 59l125 -168v-38zM251 193l-132 -172l-31 68l107 123l-105 128l36 59l125 -168v-38z" />
<glyph unicode="&#xbc;" horiz-adv-x="792" d="M689 118l-52 -4q-4 -32 -7 -48l2 -76l-51 -1l3 45q3 25 7 76l-169 -13q-3 10 -3 20q0 32 17 70q6 12 41 60q26 36 26 64q0 48 -43 48q-2 -1 -4 -3q-4 -9 -4 -19q0 -11 8 -14q9 -4 21 18q7 -14 2 -20l-21 -21q-8 -8 -19 -8q-21 0 -21 22q0 27 16 43l22 22q9 9 22 9 q24 0 40.5 -17t16.5 -40q0 -32 -22 -75l-38 -68q-4 -8 -8 -36l125 6q1 17 1 47v56q0 128 3 164l44 15q-2 -28 -2 -144q0 -12 1 -32.5t1 -25.5q0 -37 -3 -78l39 2l-1 -13l-39 -3q-1 -4 -1 -15l50 3v-16zM213 688l-4 -419l-13 2l2 415zM561 658l-430 -678l-47 38l428 668z M186 263l-44 4l2 339q-20 -22 -41 -23q-42 -1 -42 35q0 27 23 33q17 4 17 -11q0 -7 -7 -9.5t-7 -12.5q0 -12 17 -7q40 12 40 59v25l42 2v-434zM594 144l-124 -7q0 -10 2 -16l121 7q0 3 1 8v8z" />
<glyph unicode="&#xbd;" horiz-adv-x="792" d="M749 48l-30 -31q-16 75 -55 122q-13 -52 -53 -90q-55 -53 -138 -53q-43 0 -73 28t-30 70q0 53 33 84l21 20q43 41 109 41q55 0 98 -21q-2 47 -26 100q-33 73 -125 73q-18 0 -31 -7q-8 -12 -8 -32q0 -33 22 -33q4 3 6 11q2 10 -2 16l15 19q13 -19 13 -27q0 -9 -10 -21 l-16 -19q-7 -8 -20 -8q-15 0 -27.5 13t-12.5 29q0 32 19 51l21 21q19 19 51 19q100 0 136.5 -80.5t36.5 -125.5v-27q59 -51 76 -142zM196 688l-4 -419l-13 2l2 415zM544 658l-430 -678l-47 38l428 668zM169 263l-44 4l2 339q-20 -22 -41 -23q-42 -1 -42 35q0 27 23 33 q17 4 17 -11q0 -7 -7 -9.5t-7 -12.5q0 -12 17 -7q40 12 40 59v25l42 2v-434zM628 173q-50 34 -115 34q-45 0 -87 -32q-24 -31 -24 -60q0 -38 23 -59t62 -21q54 0 96 39q37 34 45 99zM580 169q7 -13 -6 -20t-20 6t6 20t20 -6zM518 177q6 -12 -5 -19q-13 -7 -19 5q-8 11 5 19 q12 8 19 -5zM469 152q7 -11 -5 -19q-13 -6 -19 4q-7 11 5 20q13 7 19 -5zM452 104q5 -13 -7 -19q-14 -7 -21 7q-5 13 8 20q13 5 20 -8z" />
<glyph unicode="&#xbe;" horiz-adv-x="792" d="M730 118l-52 -4q-4 -32 -7 -48l2 -76l-51 -1l3 45q3 25 7 76l-169 -13q-3 10 -3 20q0 32 17 70q6 12 41 60q26 36 26 64q0 48 -43 48q-2 -1 -4 -3q-4 -9 -4 -19q0 -11 8 -14q9 -4 21 18q7 -14 2 -20l-21 -21q-8 -8 -19 -8q-21 0 -21 22q0 27 16 43l22 22q9 9 22 9 q24 0 40.5 -17t16.5 -40q0 -32 -22 -75l-38 -68q-4 -8 -8 -36l125 6q1 17 1 47v56q0 128 3 164l44 15q-2 -28 -2 -144q0 -12 1 -32.5t1 -25.5q0 -37 -3 -78l39 2l-1 -13l-39 -3q-1 -4 -1 -15l50 3v-16zM602 658l-430 -678l-47 38l428 668zM309 447q0 -62 -139 -147 q-54 -33 -128 -56l3 41q73 21 138 62q90 57 90 84q0 44 -67 60l-112 14l143 144h-18l-122 -123l-9 4l117 118l-144 -6l2 44l221 4l6 -32l-113 -128q72 -13 89 -20q43 -19 43 -63zM635 144l-124 -7q0 -10 2 -16l121 7q0 3 1 8v8z" />
<glyph unicode="&#xbf;" horiz-adv-x="467" d="M324 645q0 -28 -20 -48.5t-49 -20.5q-28 0 -48.5 20.5t-20.5 48.5q0 29 20.5 49t48.5 20q29 0 49 -20t20 -49zM423 169q0 -76 -39 -114l-39 -38q-47 -46 -130 -46q-68 0 -116.5 53.5t-51.5 128.5q-4 109 68 160q29 20 106 41q-1 32 -3 68l-43 -2v20l41 2l-3 27l-36 -1v20 l33 1l-3 27l88 13q0 -6 1 -18v-19l41 2v-20l-40 -1q1 -9 2 -28l36 1v-20l-35 -1q0 -4 1 -53t1 -52q-93 -17 -135 -47l-38 -34q-19 -22 -19 -50q0 -65 41.5 -111t102.5 -46q54 0 82 31q26 28 26 68q0 61 -31 61q-18 0 -20 -8t12 -27l-34 -32q-26 23 -24 40q3 27 18 43l20 21 q23 24 66 24q25 0 41 -27q13 -25 13 -57zM240 78l-6 -20q-103 39 -93 149l20 -2q-8 -94 79 -127zM275 632q0 22 -22 22t-22 -22t22 -22t22 22z" />
<glyph unicode="&#xc0;" horiz-adv-x="456" d="M261 760l-37 -28l-131 148l77 54zM411 511q9 -94 3 -255q-5 -143 -18 -262l-84 6l13 204l-190 -11q11 -119 2 -212q-9 -98 -55 -149q-40 -45 -100 -45q-30 0 -51.5 27t-21.5 61q0 41 24 64l20 19q16 15 34 15q33 0 45 -52l-30 -28q-4 36 -21 36q-11 0 -11 -19 q0 -23 13.5 -42.5t33.5 -19.5t33 7q15 29 25 105q4 34 -4 157q-15 223 -15 243q0 212 64 276l35 35q37 37 96 37q68 0 112 -60q40 -54 48 -137zM336 458q-17 189 -120 189q-15 0 -31 -10q-12 -8 -25 -16q-43 -69 -43 -226q0 -39 8 -101q103 6 206 11q7 141 5 153zM329 285 q-101 -5 -202 -12q0 -7 2 -21q100 6 199 11q1 8 1 22zM327 243l-196 -11q2 -14 2 -19q97 6 193 11q0 3 1 10v9zM258 587q7 -12 1 -24q-7 -12 -21 -12q-13 0 -20 10q-14 20 7 33t33 -7zM297 497q5 -13 -2.5 -24t-20.5 -11q-25 0 -25 25t25 25q17 0 23 -15zM308 397 q5 -29 -23 -34q-30 -6 -35 22q-6 30 23 35q30 6 35 -23z" />
<glyph unicode="&#xc1;" horiz-adv-x="456" d="M383 895l-131 -148l-37 28l91 174zM411 511q9 -94 3 -255q-5 -143 -18 -262l-84 6l13 204l-190 -11q11 -119 2 -212q-9 -98 -55 -149q-40 -45 -100 -45q-30 0 -51.5 27t-21.5 61q0 41 24 64l20 19q16 15 34 15q33 0 45 -52l-30 -28q-4 36 -21 36q-11 0 -11 -19 q0 -23 13.5 -42.5t33.5 -19.5t33 7q15 29 25 105q4 34 -4 157q-15 223 -15 243q0 212 64 276l35 35q37 37 96 37q68 0 112 -60q40 -54 48 -137zM336 458q-17 189 -120 189q-15 0 -31 -10q-12 -8 -25 -16q-43 -69 -43 -226q0 -39 8 -101q103 6 206 11q7 141 5 153zM329 285 q-101 -5 -202 -12q0 -7 2 -21q100 6 199 11q1 8 1 22zM327 243l-196 -11q2 -14 2 -19q97 6 193 11q0 3 1 10v9zM258 587q7 -12 1 -24q-7 -12 -21 -12q-13 0 -20 10q-14 20 7 33t33 -7zM297 497q5 -13 -2.5 -24t-20.5 -11q-25 0 -25 25t25 25q17 0 23 -15zM308 397 q5 -29 -23 -34q-30 -6 -35 22q-6 30 23 35q30 6 35 -23z" />
<glyph unicode="&#xc2;" horiz-adv-x="456" d="M391 742l-28 -24l-119 77l-118 -73l-28 26l113 126h64zM411 511q9 -94 3 -255q-5 -143 -18 -262l-84 6l13 204l-190 -11q11 -119 2 -212q-9 -98 -55 -149q-40 -45 -100 -45q-30 0 -51.5 27t-21.5 61q0 41 24 64l20 19q16 15 34 15q33 0 45 -52l-30 -28q-4 36 -21 36 q-11 0 -11 -19q0 -23 13.5 -42.5t33.5 -19.5t33 7q15 29 25 105q4 34 -4 157q-15 223 -15 243q0 212 64 276l35 35q37 37 96 37q68 0 112 -60q40 -54 48 -137zM336 458q-17 189 -120 189q-15 0 -31 -10q-12 -8 -25 -16q-43 -69 -43 -226q0 -39 8 -101q103 6 206 11 q7 141 5 153zM329 285q-101 -5 -202 -12q0 -7 2 -21q100 6 199 11q1 8 1 22zM327 243l-196 -11q2 -14 2 -19q97 6 193 11q0 3 1 10v9zM258 587q7 -12 1 -24q-7 -12 -21 -12q-13 0 -20 10q-14 20 7 33t33 -7zM297 497q5 -13 -2.5 -24t-20.5 -11q-25 0 -25 25t25 25 q17 0 23 -15zM308 397q5 -29 -23 -34q-30 -6 -35 22q-6 30 23 35q30 6 35 -23z" />
<glyph unicode="&#xc3;" horiz-adv-x="456" d="M419 853l-26 -44q-46 -58 -103 -58q-23 0 -56.5 24.5t-57.5 24.5q-34 0 -61 -47l-28 16l24 41q38 65 90 65q23 0 56.5 -24.5t57.5 -24.5q41 0 78 45zM411 511q9 -94 3 -255q-5 -143 -18 -262l-84 6l13 204l-190 -11q11 -119 2 -212q-9 -98 -55 -149q-40 -45 -100 -45 q-30 0 -51.5 27t-21.5 61q0 41 24 64l20 19q16 15 34 15q33 0 45 -52l-30 -28q-4 36 -21 36q-11 0 -11 -19q0 -23 13.5 -42.5t33.5 -19.5t33 7q15 29 25 105q4 34 -4 157q-15 223 -15 243q0 212 64 276l35 35q37 37 96 37q68 0 112 -60q40 -54 48 -137zM336 458 q-17 189 -120 189q-15 0 -31 -10q-12 -8 -25 -16q-43 -69 -43 -226q0 -39 8 -101q103 6 206 11q7 141 5 153zM329 285q-101 -5 -202 -12q0 -7 2 -21q100 6 199 11q1 8 1 22zM327 243l-196 -11q2 -14 2 -19q97 6 193 11q0 3 1 10v9zM258 587q7 -12 1 -24q-7 -12 -21 -12 q-13 0 -20 10q-14 20 7 33t33 -7zM297 497q5 -13 -2.5 -24t-20.5 -11q-25 0 -25 25t25 25q17 0 23 -15zM308 397q5 -29 -23 -34q-30 -6 -35 22q-6 30 23 35q30 6 35 -23z" />
<glyph unicode="&#xc4;" horiz-adv-x="456" d="M386 788q0 -23 -17 -40.5t-42 -17.5q-23 0 -40 17.5t-17 40.5t17 40.5t40 17.5q25 0 42 -17t17 -41zM214 788q0 -23 -17 -40.5t-40 -17.5q-24 0 -41.5 17.5t-17.5 40.5q0 24 17.5 41t41.5 17q23 0 40 -17.5t17 -40.5zM411 511q9 -94 3 -255q-5 -143 -18 -262l-84 6 l13 204l-190 -11q11 -119 2 -212q-9 -98 -55 -149q-40 -45 -100 -45q-30 0 -51.5 27t-21.5 61q0 41 24 64l20 19q16 15 34 15q33 0 45 -52l-30 -28q-4 36 -21 36q-11 0 -11 -19q0 -23 13.5 -42.5t33.5 -19.5t33 7q15 29 25 105q4 34 -4 157q-15 223 -15 243q0 212 64 276 l35 35q37 37 96 37q68 0 112 -60q40 -54 48 -137zM336 458q-17 189 -120 189q-15 0 -31 -10q-12 -8 -25 -16q-43 -69 -43 -226q0 -39 8 -101q103 6 206 11q7 141 5 153zM329 285q-101 -5 -202 -12q0 -7 2 -21q100 6 199 11q1 8 1 22zM327 243l-196 -11q2 -14 2 -19 q97 6 193 11q0 3 1 10v9zM258 587q7 -12 1 -24q-7 -12 -21 -12q-13 0 -20 10q-14 20 7 33t33 -7zM297 497q5 -13 -2.5 -24t-20.5 -11q-25 0 -25 25t25 25q17 0 23 -15zM308 397q5 -29 -23 -34q-30 -6 -35 22q-6 30 23 35q30 6 35 -23z" />
<glyph unicode="&#xc5;" horiz-adv-x="456" d="M411 511q19 -209 -15 -517l-84 6l13 204l-190 -11q11 -119 2 -212q-9 -98 -55 -149q-40 -45 -100 -45q-30 0 -51.5 27t-21.5 61q0 41 24 64l20 19q16 15 34 15q33 0 45 -52l-30 -28q-4 36 -21 36q-11 0 -11 -19q0 -23 13.5 -42.5t33.5 -19.5t33 7q15 29 25 105 q4 34 -4 157q-15 223 -15 243q0 212 64 276l35 35q15 15 37 26q-40 22 -53 59q-5 16 -5 33q0 39 24.5 73.5t61.5 34.5q34 0 69.5 -25.5t46.5 -56.5q5 -14 5 -30q0 -51 -44 -85q48 -17 79 -72q29 -50 35 -117zM226 849q-20 0 -32.5 -18t-12.5 -39q0 -11 3 -20q7 -18 27.5 -32 t38.5 -10t31 20t13 34q0 22 -23 43.5t-45 21.5zM336 458q-17 189 -120 189q-15 0 -31 -10q-12 -8 -25 -16q-43 -69 -43 -226q0 -39 8 -101q103 6 206 11q7 141 5 153zM329 285q-101 -5 -202 -12q0 -7 2 -21q100 6 199 11q1 8 1 22zM327 243l-196 -11q2 -14 2 -19 q97 6 193 11q0 3 1 10v9zM258 587q7 -12 1 -24q-7 -12 -21 -12q-13 0 -20 10q-14 20 7 33t33 -7zM297 497q5 -13 -2.5 -24t-20.5 -11q-25 0 -25 25t25 25q17 0 23 -15zM308 397q5 -29 -23 -34q-30 -6 -35 22q-6 30 23 35q30 6 35 -23z" />
<glyph unicode="&#xc6;" horiz-adv-x="868" d="M524 136l-12 -16q-65 55 -65 140q0 47 18 90l18 -8q-16 -39 -16 -81q0 -76 57 -125zM839 212q0 -83 -47 -129l-50 -49q-52 -51 -155 -51q-115 0 -188 65q0 -28 -3 -54l-84 6l13 204l-190 -11q11 -119 2 -212q-9 -98 -55 -149q-40 -45 -100 -45q-30 0 -51.5 27t-21.5 61 q0 41 24 64l20 19q16 15 34 15q33 0 45 -52l-30 -28q-4 36 -21 36q-11 0 -11 -19q0 -23 13.5 -42.5t33.5 -19.5t33 7q15 29 25 105q4 34 -4 157q-15 223 -15 243q0 212 64 276l35 35q37 37 96 37q68 0 112 -60q40 -54 48 -137q6 -63 -3 -124l34 33q21 20 45 33 q-42 36 -42 98q0 36 29 66l49 50q40 41 113 41q48 0 100 -33q56 -35 56 -75q0 -18 -11 -40l-50 -51l-16 11q8 18 8 31q0 34 -49 62q-45 25 -87 25q-39 0 -68 -13q-4 -16 -4 -25q0 -71 66 -103q35 -17 146 -38l-66 -66q-98 16 -116 16q-65 0 -111 -30q-31 -48 -31 -112 t22 -103q23 -51 80.5 -82t130.5 -31q70 0 113 25q21 36 21 86q0 30 -18 50.5t-48 20.5h-4q-1 -3 -1 -8q0 -20 35 -39l-48 -46q-41 21 -41 54q0 30 25 54l34 32q23 22 49 22q39 0 62.5 -26t23.5 -64zM336 458q-17 189 -120 189q-15 0 -31 -10q-12 -8 -25 -16 q-43 -69 -43 -226q0 -39 8 -101q103 6 206 11q7 141 5 153zM329 285q-101 -5 -202 -12q0 -7 2 -21q100 6 199 11q1 8 1 22zM327 243l-196 -11q2 -14 2 -19q97 6 193 11q0 3 1 10v9zM258 587q7 -12 1 -24q-7 -12 -21 -12q-13 0 -20 10q-14 20 7 33t33 -7zM297 497 q5 -13 -2.5 -24t-20.5 -11q-25 0 -25 25t25 25q17 0 23 -15zM308 397q5 -29 -23 -34q-30 -6 -35 22q-6 30 23 35q30 6 35 -23z" />
<glyph unicode="&#xc7;" d="M468 383q12 -15 12 -34q0 -26 -21 -43q-15 -12 -35 -12q-27 0 -44 21q-12 15 -12 34q0 27 22 44q15 12 34 12q27 0 44 -22zM651 42q-47 -13 -94 -25q-70 -14 -177 -14q-23 0 -46 3l-15 -57q25 5 50 -2q67 -19 67 -93q0 -50 -34 -84t-85 -31q-50 3 -80 40l16 28 q26 -18 57 -12q53 10 53 55q0 36 -28 49q-9 4 -21 4q-20 0 -40 -11l-21 16l21 109q-103 29 -162 111q-67 93 -67 241q0 150 126 239q107 76 243 76q88 0 135 -15q40 -13 80 -48l-44 -45q-39 24 -68 33q-39 12 -98 12q-53 0 -106 -15l11 -531q32 -9 65 -9q89 0 156 11 q9 1 93 19zM304 82l-11 517q-10 -4 -30 -13l10 -489q16 -9 31 -15zM253 110l-10 465q-16 -9 -28 -19l7 -420q20 -18 31 -26zM202 159l-7 379q-64 -64 -64 -169q0 -124 71 -210z" />
<glyph unicode="&#xc8;" horiz-adv-x="580" d="M339 754l-37 -28l-131 148l77 54zM177 659q-58 -40 -58 -103q0 -44 31 -91l-16 -10q-35 53 -35 102q0 73 68 120zM545 212q0 -83 -47 -129l-50 -49q-52 -51 -155 -51q-80 0 -142.5 33.5t-87.5 88.5q-24 52 -24 112q0 96 59 154l50 49q20 20 45 33q-42 36 -42 98 q0 36 29 66l49 50q40 41 113 41q48 0 100 -33q56 -35 56 -75q0 -18 -11 -40l-50 -51l-16 11q8 18 8 31q0 34 -49 62q-45 25 -87 25q-39 0 -68 -13q-4 -16 -4 -25q0 -71 66 -103q35 -17 146 -38l-66 -66q-98 16 -116 16q-65 0 -111 -30q-31 -48 -31 -112t22 -103 q23 -51 80.5 -82t130.5 -31q70 0 113 25q21 36 21 86q0 30 -18 50.5t-48 20.5h-4q-1 -3 -1 -8q0 -20 35 -39l-48 -46q-41 21 -41 54q0 30 25 54l34 32q23 22 49 22q39 0 62.5 -26t23.5 -64zM230 136l-12 -16q-65 55 -65 140q0 47 18 90l18 -8q-16 -39 -16 -81q0 -76 57 -125 z" />
<glyph unicode="&#xc9;" horiz-adv-x="580" d="M461 889l-131 -148l-37 28l91 174zM177 659q-58 -40 -58 -103q0 -44 31 -91l-16 -10q-35 53 -35 102q0 73 68 120zM545 212q0 -83 -47 -129l-50 -49q-52 -51 -155 -51q-80 0 -142.5 33.5t-87.5 88.5q-24 52 -24 112q0 96 59 154l50 49q20 20 45 33q-42 36 -42 98 q0 36 29 66l49 50q40 41 113 41q48 0 100 -33q56 -35 56 -75q0 -18 -11 -40l-50 -51l-16 11q8 18 8 31q0 34 -49 62q-45 25 -87 25q-39 0 -68 -13q-4 -16 -4 -25q0 -71 66 -103q35 -17 146 -38l-66 -66q-98 16 -116 16q-65 0 -111 -30q-31 -48 -31 -112t22 -103 q23 -51 80.5 -82t130.5 -31q70 0 113 25q21 36 21 86q0 30 -18 50.5t-48 20.5h-4q-1 -3 -1 -8q0 -20 35 -39l-48 -46q-41 21 -41 54q0 30 25 54l34 32q23 22 49 22q39 0 62.5 -26t23.5 -64zM230 136l-12 -16q-65 55 -65 140q0 47 18 90l18 -8q-16 -39 -16 -81q0 -76 57 -125 z" />
<glyph unicode="&#xca;" horiz-adv-x="580" d="M457 766l-28 -24l-119 77l-118 -73l-28 26l113 126h64zM177 659q-58 -40 -58 -103q0 -44 31 -91l-16 -10q-35 53 -35 102q0 73 68 120zM545 212q0 -83 -47 -129l-50 -49q-52 -51 -155 -51q-80 0 -142.5 33.5t-87.5 88.5q-24 52 -24 112q0 96 59 154l50 49q20 20 45 33 q-42 36 -42 98q0 36 29 66l49 50q40 41 113 41q48 0 100 -33q56 -35 56 -75q0 -18 -11 -40l-50 -51l-16 11q8 18 8 31q0 34 -49 62q-45 25 -87 25q-39 0 -68 -13q-4 -16 -4 -25q0 -71 66 -103q35 -17 146 -38l-66 -66q-98 16 -116 16q-65 0 -111 -30q-31 -48 -31 -112 t22 -103q23 -51 80.5 -82t130.5 -31q70 0 113 25q21 36 21 86q0 30 -18 50.5t-48 20.5h-4q-1 -3 -1 -8q0 -20 35 -39l-48 -46q-41 21 -41 54q0 30 25 54l34 32q23 22 49 22q39 0 62.5 -26t23.5 -64zM230 136l-12 -16q-65 55 -65 140q0 47 18 90l18 -8q-16 -39 -16 -81 q0 -76 57 -125z" />
<glyph unicode="&#xcb;" horiz-adv-x="580" d="M458 793q0 -23 -17 -40.5t-42 -17.5q-23 0 -40 17.5t-17 40.5t17 40.5t40 17.5q25 0 42 -17t17 -41zM286 793q0 -23 -17 -40.5t-40 -17.5q-24 0 -41.5 17.5t-17.5 40.5q0 24 17.5 41t41.5 17q23 0 40 -17.5t17 -40.5zM177 659q-58 -40 -58 -103q0 -44 31 -91l-16 -10 q-35 53 -35 102q0 73 68 120zM545 212q0 -83 -47 -129l-50 -49q-52 -51 -155 -51q-80 0 -142.5 33.5t-87.5 88.5q-24 52 -24 112q0 96 59 154l50 49q20 20 45 33q-42 36 -42 98q0 36 29 66l49 50q40 41 113 41q48 0 100 -33q56 -35 56 -75q0 -18 -11 -40l-50 -51l-16 11 q8 18 8 31q0 34 -49 62q-45 25 -87 25q-39 0 -68 -13q-4 -16 -4 -25q0 -71 66 -103q35 -17 146 -38l-66 -66q-98 16 -116 16q-65 0 -111 -30q-31 -48 -31 -112t22 -103q23 -51 80.5 -82t130.5 -31q70 0 113 25q21 36 21 86q0 30 -18 50.5t-48 20.5h-4q-1 -3 -1 -8 q0 -20 35 -39l-48 -46q-41 21 -41 54q0 30 25 54l34 32q23 22 49 22q39 0 62.5 -26t23.5 -64zM230 136l-12 -16q-65 55 -65 140q0 47 18 90l18 -8q-16 -39 -16 -81q0 -76 57 -125z" />
<glyph unicode="&#xcc;" horiz-adv-x="230" d="M147 772l-37 -28l-131 148l77 54zM191 643q0 -32 -22.5 -54.5t-54.5 -22.5t-54.5 22.5t-22.5 54.5t22.5 54.5t54.5 22.5t54.5 -22.5t22.5 -54.5zM174 551l-6 -551l-21 3l3 545zM129 -9l-72 6l3 558l69 3v-567zM131 643q0 17 -17 17t-17 -17t17 -17t17 17z" />
<glyph unicode="&#xcd;" horiz-adv-x="230" d="M257 881l-131 -148l-37 28l91 174zM191 643q0 -32 -22.5 -54.5t-54.5 -22.5t-54.5 22.5t-22.5 54.5t22.5 54.5t54.5 22.5t54.5 -22.5t22.5 -54.5zM174 551l-6 -551l-21 3l3 545zM129 -9l-72 6l3 558l69 3v-567zM131 643q0 17 -17 17t-17 -17t17 -17t17 17z" />
<glyph unicode="&#xce;" horiz-adv-x="230" d="M265 760l-28 -24l-119 77l-118 -73l-28 26l113 126h64zM191 655q0 -32 -22.5 -54.5t-54.5 -22.5t-54.5 22.5t-22.5 54.5t22.5 54.5t54.5 22.5t54.5 -22.5t22.5 -54.5zM174 563l-6 -563l-21 3l3 557zM129 -9l-72 6l3 570l69 3v-579zM131 655q0 17 -17 17t-17 -17t17 -17 t17 17z" />
<glyph unicode="&#xcf;" horiz-adv-x="230" d="M254 788q0 -23 -17 -40.5t-42 -17.5q-23 0 -40 17.5t-17 40.5t17 40.5t40 17.5q25 0 42 -17t17 -41zM82 788q0 -23 -17 -40.5t-40 -17.5q-24 0 -41.5 17.5t-17.5 40.5q0 24 17.5 41t41.5 17q23 0 40 -17.5t17 -40.5zM191 631q0 -32 -22.5 -54.5t-54.5 -22.5t-54.5 22.5 t-22.5 54.5t22.5 54.5t54.5 22.5t54.5 -22.5t22.5 -54.5zM174 539l-6 -539l-21 3l3 533zM129 -9l-72 6l3 546l69 3v-555zM131 631q0 17 -17 17t-17 -17t17 -17t17 17z" />
<glyph unicode="&#xd0;" horiz-adv-x="632" d="M602 404q0 -88 -43 -177q-89 -184 -333 -234q-43 -3 -122 -9q2 68 2 312l-76 -3l12 116l64 -1l-2 303q90 7 141 0q168 -24 279 -135q78 -78 78 -172zM529 351q0 86 -72 158q-111 111 -278 129q-1 -18 -5 -232l118 -2l-2 -102l-117 -4q-1 -107 -4 -241h6q64 0 100 9 q152 38 207 122q47 72 47 163z" />
<glyph unicode="&#xd1;" horiz-adv-x="558" d="M465 835l-26 -44q-46 -58 -103 -58q-23 0 -56.5 24.5t-57.5 24.5q-34 0 -61 -47l-28 16l24 41q38 65 90 65q23 0 56.5 -24.5t57.5 -24.5q41 0 78 45zM514 700l-17 -298l-81 -9l-8 307h106zM517 368l-124 -16v16l122 16zM516 345l-1 -23l-126 -12l2 20zM503 298l-14 -309 l-105 -6l-243 537l-1 -150l-79 6l-5 315h64l294 -624l-1 222zM163 352l-2 -18h-116l4 22zM168 316l-3 -24l-124 3l1 23zM141 -2l-97 -6l15 285l82 -9v-270z" />
<glyph unicode="&#xd2;" d="M393 760l-37 -28l-131 148l77 54zM682 398l-4 -28h-23q2 -14 2 -22h23l-2 -24h-20v-10q0 -52 -9 -88q-17 -67 -69 -119l-33 -33q-78 -78 -188 -78q-108 0 -141 17q-74 38 -117 104q-50 75 -50 172v33h-35l4 24h33q1 8 3 22h-36l-8 20l47 2q32 126 108 205l33 34 q77 79 184 79q50 0 89 -23q36 -21 79 -71q32 -37 51 -74q36 -70 49 -144zM423 630q-34 12 -72 12q-83 0 -146 -55q-72 -84 -87 -194l40 2q0 3 1 8v7q14 113 102 169q64 40 155 44zM594 286v19q-1 12 -1 18l-65 -1l4 24l58 1q-2 14 -4 22l-54 -1l-8 20q29 2 57 3 q-12 51 -38 102q-12 24 -17 31q-7 12 -22 27q-2 2 -20 27q-13 18 -28 26q-13 1 -27 1q-100 0 -172 -52q-80 -59 -80 -157l37 2l-4 -28l-35 -1v-22l37 1l-2 -24h-32q9 -90 60 -145l-13 -13q-55 59 -66 157q-12 1 -45 0q1 -161 151 -244q29 -16 125 -16q85 0 150 54 q35 45 46 89q8 33 8 80zM156 347v22h-41q-1 -7 -1 -22h42zM393 303q14 -21 -7 -35t-35 7t7 35t35 -7z" />
<glyph unicode="&#xd3;" d="M521 883l-131 -148l-37 28l91 174zM682 398l-4 -28h-23q2 -14 2 -22h23l-2 -24h-20v-10q0 -52 -9 -88q-17 -67 -69 -119l-33 -33q-78 -78 -188 -78q-108 0 -141 17q-74 38 -117 104q-50 75 -50 172v33h-35l4 24h33q1 8 3 22h-36l-8 20l47 2q32 126 108 205l33 34 q77 79 184 79q50 0 89 -23q36 -21 79 -71q32 -37 51 -74q36 -70 49 -144zM423 630q-34 12 -72 12q-83 0 -146 -55q-72 -84 -87 -194l40 2q0 3 1 8v7q14 113 102 169q64 40 155 44zM594 286v19q-1 12 -1 18l-65 -1l4 24l58 1q-2 14 -4 22l-54 -1l-8 20q29 2 57 3 q-12 51 -38 102q-12 24 -17 31q-7 12 -22 27q-2 2 -20 27q-13 18 -28 26q-13 1 -27 1q-100 0 -172 -52q-80 -59 -80 -157l37 2l-4 -28l-35 -1v-22l37 1l-2 -24h-32q9 -90 60 -145l-13 -13q-55 59 -66 157q-12 1 -45 0q1 -161 151 -244q29 -16 125 -16q85 0 150 54 q35 45 46 89q8 33 8 80zM156 347v22h-41q-1 -7 -1 -22h42zM393 303q14 -21 -7 -35t-35 7t7 35t35 -7z" />
<glyph unicode="&#xd4;" d="M517 748l-28 -24l-119 77l-118 -73l-28 26l113 126h64zM682 398l-4 -28h-23q2 -14 2 -22h23l-2 -24h-20v-10q0 -52 -9 -88q-17 -67 -69 -119l-33 -33q-78 -78 -188 -78q-108 0 -141 17q-74 38 -117 104q-50 75 -50 172v33h-35l4 24h33q1 8 3 22h-36l-8 20l47 2 q32 126 108 205l33 34q77 79 184 79q50 0 89 -23q36 -21 79 -71q32 -37 51 -74q36 -70 49 -144zM423 630q-34 12 -72 12q-83 0 -146 -55q-72 -84 -87 -194l40 2q0 3 1 8v7q14 113 102 169q64 40 155 44zM594 286v19q-1 12 -1 18l-65 -1l4 24l58 1q-2 14 -4 22l-54 -1l-8 20 q29 2 57 3q-12 51 -38 102q-12 24 -17 31q-7 12 -22 27q-2 2 -20 27q-13 18 -28 26q-13 1 -27 1q-100 0 -172 -52q-80 -59 -80 -157l37 2l-4 -28l-35 -1v-22l37 1l-2 -24h-32q9 -90 60 -145l-13 -13q-55 59 -66 157q-12 1 -45 0q1 -161 151 -244q29 -16 125 -16q85 0 150 54 q35 45 46 89q8 33 8 80zM156 347v22h-41q-1 -7 -1 -22h42zM393 303q14 -21 -7 -35t-35 7t7 35t35 -7z" />
<glyph unicode="&#xd5;" d="M543 841l-26 -44q-46 -58 -103 -58q-23 0 -56.5 24.5t-57.5 24.5q-34 0 -61 -47l-28 16l24 41q38 65 90 65q23 0 56.5 -24.5t57.5 -24.5q41 0 78 45zM682 398l-4 -28h-23q2 -14 2 -22h23l-2 -24h-20v-10q0 -52 -9 -88q-17 -67 -69 -119l-33 -33q-78 -78 -188 -78 q-108 0 -141 17q-74 38 -117 104q-50 75 -50 172v33h-35l4 24h33q1 8 3 22h-36l-8 20l47 2q32 126 108 205l33 34q77 79 184 79q50 0 89 -23q36 -21 79 -71q32 -37 51 -74q36 -70 49 -144zM423 630q-34 12 -72 12q-83 0 -146 -55q-72 -84 -87 -194l40 2q0 3 1 8v7 q14 113 102 169q64 40 155 44zM594 286v19q-1 12 -1 18l-65 -1l4 24l58 1q-2 14 -4 22l-54 -1l-8 20q29 2 57 3q-12 51 -38 102q-12 24 -17 31q-7 12 -22 27q-2 2 -20 27q-13 18 -28 26q-13 1 -27 1q-100 0 -172 -52q-80 -59 -80 -157l37 2l-4 -28l-35 -1v-22l37 1l-2 -24 h-32q9 -90 60 -145l-13 -13q-55 59 -66 157q-12 1 -45 0q1 -161 151 -244q29 -16 125 -16q85 0 150 54q35 45 46 89q8 33 8 80zM156 347v22h-41q-1 -7 -1 -22h42zM393 303q14 -21 -7 -35t-35 7t7 35t35 -7z" />
<glyph unicode="&#xd6;" d="M512 794q0 -23 -17 -40.5t-42 -17.5q-23 0 -40 17.5t-17 40.5t17 40.5t40 17.5q25 0 42 -17t17 -41zM340 794q0 -23 -17 -40.5t-40 -17.5q-24 0 -41.5 17.5t-17.5 40.5q0 24 17.5 41t41.5 17q23 0 40 -17.5t17 -40.5zM682 398l-4 -28h-23q2 -14 2 -22h23l-2 -24h-20v-10 q0 -52 -9 -88q-17 -67 -69 -119l-33 -33q-78 -78 -188 -78q-108 0 -141 17q-74 38 -117 104q-50 75 -50 172v33h-35l4 24h33q1 8 3 22h-36l-8 20l47 2q32 126 108 205l33 34q77 79 184 79q50 0 89 -23q36 -21 79 -71q32 -37 51 -74q36 -70 49 -144zM423 630q-34 12 -72 12 q-83 0 -146 -55q-72 -84 -87 -194l40 2q0 3 1 8v7q14 113 102 169q64 40 155 44zM594 286v19q-1 12 -1 18l-65 -1l4 24l58 1q-2 14 -4 22l-54 -1l-8 20q29 2 57 3q-12 51 -38 102q-12 24 -17 31q-7 12 -22 27q-2 2 -20 27q-13 18 -28 26q-13 1 -27 1q-100 0 -172 -52 q-80 -59 -80 -157l37 2l-4 -28l-35 -1v-22l37 1l-2 -24h-32q9 -90 60 -145l-13 -13q-55 59 -66 157q-12 1 -45 0q1 -161 151 -244q29 -16 125 -16q85 0 150 54q35 45 46 89q8 33 8 80zM156 347v22h-41q-1 -7 -1 -22h42zM393 303q14 -21 -7 -35t-35 7t7 35t35 -7z" />
<glyph unicode="&#xd7;" horiz-adv-x="405" d="M386 225l-75 -61l-104 109l-98 -103l-61 75l96 93l-104 110l58 58l109 -106l101 98l58 -58l-96 -101z" />
<glyph unicode="&#xd8;" d="M682 398l-4 -28h-23q2 -14 2 -22h23l-2 -24h-20v-10q0 -52 -9 -88q-17 -67 -69 -119l-33 -33q-78 -78 -188 -78q-106 0 -141 17q-2 2 -7.5 5t-8.5 4q-19 -32 -39 -68l-54 27l44 76q-102 92 -102 232v33h-35l4 24h33q1 8 3 22h-36l-8 20l47 2q32 126 108 205l33 34 q77 79 184 79q66 0 119 -44l36 63l47 -33l-41 -72q5 -5 7 -8q31 -36 51 -74q36 -70 49 -144zM423 630q-34 12 -72 12q-83 0 -146 -55q-72 -84 -87 -194l40 2q0 3 1 8v7q14 113 102 169q64 40 155 44zM594 286v19q-1 12 -1 18l-65 -1l4 24l58 1q-2 14 -4 22l-54 -1l-8 20 q29 2 57 3q-12 51 -38 102q-12 23 -17 31q-7 12 -22 27l-262 -459q12 -7 23 -13q26 -16 125 -16q85 0 150 54q35 45 46 89q8 33 8 80zM465 598l-9 6q-13 1 -27 1q-100 0 -172 -52q-80 -59 -80 -157l37 2l-4 -28l-35 -1v-22l37 1l-2 -24h-32q9 -82 51 -135q1 1 236 409z M156 347v22h-41q-1 -7 -1 -22h42zM219 172q-49 57 -60 151q-12 1 -45 0q1 -117 81 -193z" />
<glyph unicode="&#xd9;" horiz-adv-x="717" d="M405 748l-37 -28l-131 148l77 54zM712 92q0 -44 -31 -73q-36 -34 -85 -34q-71 0 -99 89q-70 -95 -183 -95q-61 0 -100 59q-36 55 -36 132q0 58 30.5 177t30.5 173q0 145 -104 145q-49 0 -65 -30q-6 -12 -6 -24q0 -18 11 -30.5t28 -10.5q10 30 10 24l31 29q4 -58 -12 -74 l-22 -22q-18 -18 -44 -18q-24 0 -42.5 23t-18.5 50q0 39 40 85q51 59 125 59q67 0 105 -50q33 -42 33 -102q0 -65 -9 -118l182 24q11 125 34 226l85 11q-27 -132 -35 -185q-16 -98 -19 -199q-3 -96 2 -149q6 -71 16 -97q19 -48 67 -48q26 0 34 10t8 20q0 26 -32 26 q-10 0 -12 -1q-4 -5 -9 -9l-13 15l19 24q8 7 17 13q5 3 21 4q48 2 48 -49zM479 459l-185 -30q-1 -5 -3 -15.5t-3 -16.5l189 33q1 5 1.5 14.5t0.5 14.5zM481 136q0 6 -1 9q-8 117 -7 184q0 43 3 74l-195 -34q-12 -48 -25 -95q-12 -52 -12 -90q0 -56 19 -97q22 -48 60 -48 q69 0 123 48q21 18 35 49z" />
<glyph unicode="&#xda;" horiz-adv-x="717" d="M527 859l-131 -148l-37 28l91 174zM712 92q0 -44 -31 -73q-36 -34 -85 -34q-71 0 -99 89q-70 -95 -183 -95q-61 0 -100 59q-36 55 -36 132q0 58 30.5 177t30.5 173q0 145 -104 145q-49 0 -65 -30q-6 -12 -6 -24q0 -18 11 -30.5t28 -10.5q10 30 10 24l31 29q4 -58 -12 -74 l-22 -22q-18 -18 -44 -18q-24 0 -42.5 23t-18.5 50q0 39 40 85q51 59 125 59q67 0 105 -50q33 -42 33 -102q0 -65 -9 -118l182 24q11 125 34 226l85 11q-27 -132 -35 -185q-16 -98 -19 -199q-3 -96 2 -149q6 -71 16 -97q19 -48 67 -48q26 0 34 10t8 20q0 26 -32 26 q-10 0 -12 -1q-4 -5 -9 -9l-13 15l19 24q8 7 17 13q5 3 21 4q48 2 48 -49zM479 459l-185 -30q-1 -5 -3 -15.5t-3 -16.5l189 33q1 5 1.5 14.5t0.5 14.5zM481 136q0 6 -1 9q-8 117 -7 184q0 43 3 74l-195 -34q-12 -48 -25 -95q-12 -52 -12 -90q0 -56 19 -97q22 -48 60 -48 q69 0 123 48q21 18 35 49z" />
<glyph unicode="&#xdb;" horiz-adv-x="717" d="M535 766l-28 -24l-119 77l-118 -73l-28 26l113 126h64zM712 92q0 -44 -31 -73q-36 -34 -85 -34q-71 0 -99 89q-70 -95 -183 -95q-61 0 -100 59q-36 55 -36 132q0 58 30.5 177t30.5 173q0 145 -104 145q-49 0 -65 -30q-6 -12 -6 -24q0 -18 11 -30.5t28 -10.5q10 30 10 24 l31 29q4 -58 -12 -74l-22 -22q-18 -18 -44 -18q-24 0 -42.5 23t-18.5 50q0 39 40 85q51 59 125 59q67 0 105 -50q33 -42 33 -102q0 -65 -9 -118l182 24q11 125 34 226l85 11q-27 -132 -35 -185q-16 -98 -19 -199q-3 -96 2 -149q6 -71 16 -97q19 -48 67 -48q26 0 34 10t8 20 q0 26 -32 26q-10 0 -12 -1q-4 -5 -9 -9l-13 15l19 24q8 7 17 13q5 3 21 4q48 2 48 -49zM479 459l-185 -30q-1 -5 -3 -15.5t-3 -16.5l189 33q1 5 1.5 14.5t0.5 14.5zM481 136q0 6 -1 9q-8 117 -7 184q0 43 3 74l-195 -34q-12 -48 -25 -95q-12 -52 -12 -90q0 -56 19 -97 q22 -48 60 -48q69 0 123 48q21 18 35 49z" />
<glyph unicode="&#xdc;" horiz-adv-x="717" d="M524 800q0 -23 -17 -40.5t-42 -17.5q-23 0 -40 17.5t-17 40.5t17 40.5t40 17.5q25 0 42 -17t17 -41zM352 800q0 -23 -17 -40.5t-40 -17.5q-24 0 -41.5 17.5t-17.5 40.5q0 24 17.5 41t41.5 17q23 0 40 -17.5t17 -40.5zM712 92q0 -44 -31 -73q-36 -34 -85 -34q-71 0 -99 89 q-70 -95 -183 -95q-61 0 -100 59q-36 55 -36 132q0 58 30.5 177t30.5 173q0 145 -104 145q-49 0 -65 -30q-6 -12 -6 -24q0 -18 11 -30.5t28 -10.5q10 30 10 24l31 29q4 -58 -12 -74l-22 -22q-18 -18 -44 -18q-24 0 -42.5 23t-18.5 50q0 39 40 85q51 59 125 59q67 0 105 -50 q33 -42 33 -102q0 -65 -9 -118l182 24q11 125 34 226l85 11q-27 -132 -35 -185q-16 -98 -19 -199q-3 -96 2 -149q6 -71 16 -97q19 -48 67 -48q26 0 34 10t8 20q0 26 -32 26q-10 0 -12 -1q-4 -5 -9 -9l-13 15l19 24q8 7 17 13q5 3 21 4q48 2 48 -49zM479 459l-185 -30 q-1 -5 -3 -15.5t-3 -16.5l189 33q1 5 1.5 14.5t0.5 14.5zM481 136q0 6 -1 9q-8 117 -7 184q0 43 3 74l-195 -34q-12 -48 -25 -95q-12 -52 -12 -90q0 -56 19 -97q22 -48 60 -48q69 0 123 48q21 18 35 49z" />
<glyph unicode="&#xdd;" horiz-adv-x="585" d="M437 847l-131 -148l-37 28l91 174zM564 558l-2 -24h-26q-1 -5 -4 -15.5t-5 -16.5h27l2 -22h-36q-58 -146 -195 -160l5 -326l-78 6l12 319q-158 13 -212 165h-34l4 24h22q-2 7 -7 28h-23l2 20h17q-9 55 -7 114h66q-6 -64 1 -114l406 2q15 56 17 112l36 2q1 -55 -11 -114 h23zM492 534l-395 2q4 -20 7 -29l376 -4q7 14 12 31zM469 480q-96 1 -357 3q46 -113 180 -113q117 0 177 110z" />
<glyph unicode="&#xde;" horiz-adv-x="499" d="M474 305q1 -131 -148 -184q-61 -22 -148 -27l-2 -98l-29 1l-1 191h-27l4 -194l-84 -6l7 709l81 3l-5 -318h31q3 67 9 316l24 4l-2 -125q133 1 213 -76q76 -75 77 -196zM408 295q5 80 -52.5 139.5t-134.5 59.5q-20 0 -39 -5l-9 -350q66 8 114 27q115 43 121 129zM153 362 h-31l-1 -31h30q1 6 2 31zM151 311h-30l-1 -46h29zM148 245h-28l-1 -37h28z" />
<glyph unicode="&#xdf;" horiz-adv-x="481" d="M436 143q0 -57 -26 -97l-27 -42q-21 -32 -61 -32q-37 0 -70 23q-12 9 -59 52l52 71q26 -22 52 -43.5t54 -21.5h7q7 28 7 49q0 53 -44 93l-80 64q-44 40 -44 89q0 31 27 72l15 23q8 12 20.5 21.5t26.5 19.5q16 14 42 41q1 3 1 14q0 83 -69 83q-44 0 -75 -29 q-29 -67 -29 -223q0 -32 2 -86.5t2 -83.5t-3 -82t-3 -83l-70 -101q0 66 2 124q2 40 3 79l-58 -3l2 84l54 5q-3 102 -3 107q0 192 52 267l29 42q44 63 123 63q111 0 111 -122q0 -22 -21 -61l-18 -25q-6 -8 -47 -40q-23 -18 -41 -43q-2 -7 -2 -21q0 -50 43 -89q40 -32 80 -65 q43 -40 43 -93z" />
<glyph unicode="&#xe0;" horiz-adv-x="468" d="M279 546l-37 -28l-131 148l77 54zM445 55l-5 -53q-24 -22 -49 -22q-48 0 -58 84q-20 -28 -69 -51t-96 -23q-134 0 -134 126q0 47 36 98q51 72 144 72q72 0 117 -34q-21 170 -108 170q-42 0 -84 -38l-21 26q18 31 64 51q42 18 79 16q77 -4 118 -84q36 -69 36 -169 q0 -18 -1.5 -47t-1.5 -45q0 -84 -1 -57q1 -36 12 -36q3 0 10 6.5t12 9.5zM334 165q-38 50 -81 61l-7 -174q51 19 85 54q0 -1 3 59zM233 229q-12 2 -19 2l-8 -186q7 0 19 2q1 1 8 182zM194 232h-2q-9 0 -20 -4l-8 -181q8 0 23 -2q4 94 7 187zM151 219q-66 -36 -66 -92 q0 -61 60 -76q4 84 6 168z" />
<glyph unicode="&#xe1;" horiz-adv-x="468" d="M383 655l-131 -148l-37 28l91 174zM445 55l-5 -53q-24 -22 -49 -22q-48 0 -58 84q-20 -28 -69 -51t-96 -23q-134 0 -134 126q0 47 36 98q51 72 144 72q72 0 117 -34q-21 170 -108 170q-42 0 -84 -38l-21 26q18 31 64 51q42 18 79 16q77 -4 118 -84q36 -69 36 -169 q0 -18 -1.5 -47t-1.5 -45q0 -84 -1 -57q1 -36 12 -36q3 0 10 6.5t12 9.5zM334 165q-38 50 -81 61l-7 -174q51 19 85 54q0 -1 3 59zM233 229q-12 2 -19 2l-8 -186q7 0 19 2q1 1 8 182zM194 232h-2q-9 0 -20 -4l-8 -181q8 0 23 -2q4 94 7 187zM151 219q-66 -36 -66 -92 q0 -61 60 -76q4 84 6 168z" />
<glyph unicode="&#xe2;" horiz-adv-x="468" d="M401 523l-28 -24l-119 77l-118 -73l-28 26l113 126h64zM445 55l-5 -53q-24 -22 -49 -22q-48 0 -58 84q-20 -28 -69 -51t-96 -23q-134 0 -134 126q0 47 36 98q51 72 144 72q72 0 117 -34q-21 170 -108 170q-42 0 -84 -38l-21 26q18 31 64 51q42 18 79 16q77 -4 118 -84 q36 -69 36 -169q0 -18 -1.5 -47t-1.5 -45q0 -84 -1 -57q1 -36 12 -36q3 0 10 6.5t12 9.5zM334 165q-38 50 -81 61l-7 -174q51 19 85 54q0 -1 3 59zM233 229q-12 2 -19 2l-8 -186q7 0 19 2q1 1 8 182zM194 232h-2q-9 0 -20 -4l-8 -181q8 0 23 -2q4 94 7 187zM151 219 q-66 -36 -66 -92q0 -61 60 -76q4 84 6 168z" />
<glyph unicode="&#xe3;" horiz-adv-x="468" d="M411 625l-26 -44q-46 -58 -103 -58q-23 0 -56.5 24.5t-57.5 24.5q-34 0 -61 -47l-28 16l24 41q38 65 90 65q23 0 56.5 -24.5t57.5 -24.5q41 0 78 45zM445 55l-5 -53q-24 -22 -49 -22q-48 0 -58 84q-20 -28 -69 -51t-96 -23q-134 0 -134 126q0 47 36 98q51 72 144 72 q72 0 117 -34q-21 170 -108 170q-42 0 -84 -38l-21 26q18 31 64 51q42 18 79 16q77 -4 118 -84q36 -69 36 -169q0 -18 -1.5 -47t-1.5 -45q0 -84 -1 -57q1 -36 12 -36q3 0 10 6.5t12 9.5zM334 165q-38 50 -81 61l-7 -174q51 19 85 54q0 -1 3 59zM233 229q-12 2 -19 2l-8 -186 q7 0 19 2q1 1 8 182zM194 232h-2q-9 0 -20 -4l-8 -181q8 0 23 -2q4 94 7 187zM151 219q-66 -36 -66 -92q0 -61 60 -76q4 84 6 168z" />
<glyph unicode="&#xe4;" horiz-adv-x="468" d="M397 566q0 -23 -17 -40.5t-42 -17.5q-23 0 -40 17.5t-17 40.5t17 40.5t40 17.5q25 0 42 -17t17 -41zM225 566q0 -23 -17 -40.5t-40 -17.5q-24 0 -41.5 17.5t-17.5 40.5q0 24 17.5 41t41.5 17q23 0 40 -17.5t17 -40.5zM445 55l-5 -53q-24 -22 -49 -22q-48 0 -58 84 q-20 -28 -69 -51t-96 -23q-134 0 -134 126q0 47 36 98q51 72 144 72q72 0 117 -34q-21 170 -108 170q-42 0 -84 -38l-21 26q18 31 64 51q42 18 79 16q77 -4 118 -84q36 -69 36 -169q0 -18 -1.5 -47t-1.5 -45q0 -84 -1 -57q1 -36 12 -36q3 0 10 6.5t12 9.5zM334 165 q-38 50 -81 61l-7 -174q51 19 85 54q0 -1 3 59zM233 229q-12 2 -19 2l-8 -186q7 0 19 2q1 1 8 182zM194 232h-2q-9 0 -20 -4l-8 -181q8 0 23 -2q4 94 7 187zM151 219q-66 -36 -66 -92q0 -61 60 -76q4 84 6 168z" />
<glyph unicode="&#xe5;" horiz-adv-x="468" d="M332 639q5 -14 5 -30q0 -38 -29.5 -71t-67.5 -33q-33 0 -64 23.5t-41 51.5q-6 16 -6 33q0 39 25 73.5t62 34.5q34 0 69 -25.5t47 -56.5zM445 55l-5 -53q-24 -22 -49 -22q-48 0 -58 84q-20 -28 -69 -51t-96 -23q-134 0 -134 126q0 47 36 98q51 72 144 72q72 0 117 -34 q-21 170 -108 170q-42 0 -84 -38l-21 26q18 31 64 51q42 18 79 16q77 -4 118 -84q36 -69 36 -169q0 -18 -1.5 -47t-1.5 -45q0 -84 -1 -57q1 -36 12 -36q3 0 10 6.5t12 9.5zM222 673q-20 0 -32.5 -18t-12.5 -39q0 -11 3 -20q7 -18 27.5 -32t38.5 -10t31 20t13 34 q0 22 -23 43.5t-45 21.5zM334 165q-38 50 -81 61l-7 -174q51 19 85 54q0 -1 3 59zM233 229q-12 2 -19 2l-8 -186q7 0 19 2q1 1 8 182zM194 232h-2q-9 0 -20 -4l-8 -181q8 0 23 -2q4 94 7 187zM151 219q-66 -36 -66 -92q0 -61 60 -76q4 84 6 168z" />
<glyph unicode="&#xe6;" horiz-adv-x="794" d="M767 22q-31 -8 -63 -17q-46 -9 -118 -9q-113 0 -174 78v-80l-87 -2q2 22 4 68q-20 -28 -67 -49t-94 -21q-134 0 -134 126q0 47 36 98q51 72 144 72q72 0 117 -34q-21 170 -108 170q-42 0 -84 -38l-21 26q19 31 64 51q42 18 79 16q97 -6 136 -127q34 48 97 76 q56 24 115 24q137 0 158 -138l-336 -8q-6 -16 -7 -26l340 10l-2 -24l-342 -10v-14q0 -87 52 -146q49 -56 120 -56q74 0 166 20zM716 348q-31 60 -104 60q-116 0 -167 -77zM334 165q-38 50 -81 61l-7 -174q51 19 85 54q0 -1 3 59zM233 229q-12 2 -19 2l-8 -186q7 0 19 2 q1 1 8 182zM194 232h-2q-9 0 -20 -4l-8 -181q8 0 23 -2q4 94 7 187zM151 219q-66 -36 -66 -92q0 -61 60 -76q4 84 6 168z" />
<glyph unicode="&#xe7;" horiz-adv-x="459" d="M286 498q9 -19 -10 -28t-28 10t10 28t28 -10zM201 477q0 -29 -29 -29t-29 29t29 29t29 -29zM110 446q16 -18 -2 -34t-34 2t2 34t34 -2zM245 110l-3 -22q-120 18 -120 123q0 44 19 89l19 -9q-17 -40 -17 -77q0 -89 102 -104zM478 207q-48 -74 -100 -118 q-112 -95 -192 -100l-12 -44q21 5 45 -2q61 -17 61 -83q0 -45 -31 -76t-76 -28q-46 3 -72 36l14 25q25 -17 51 -10q48 7 48 49q0 33 -25 44q-8 4 -19 4q-18 0 -36 -10l-19 14l18 89q-48 17 -78.5 65t-30.5 103q0 105 85 193q78 81 163 81q32 0 58 -15q29 -18 29 -43 q0 -34 -20 -53l-54 -51l-20 22q25 24 25 41q0 27 -59 27q-53 0 -95 -30q-40 -59 -40 -130q0 -56 35.5 -101t87.5 -45q72 0 156 72q38 32 79 92z" />
<glyph unicode="&#xe8;" horiz-adv-x="465" d="M279 528l-37 -28l-131 148l77 54zM433 22q-31 -8 -63 -17q-46 -9 -118 -9q-94 0 -154 56q-69 64 -69 188q0 100 84 159q71 51 162 51q137 0 158 -138l-336 -8q-6 -16 -7 -26l340 10l-2 -24l-342 -10v-14q0 -87 52 -146q49 -56 120 -56q74 0 166 20zM382 348 q-31 60 -104 60q-116 0 -167 -77z" />
<glyph unicode="&#xe9;" horiz-adv-x="465" d="M383 637l-131 -148l-37 28l91 174zM433 22q-31 -8 -63 -17q-46 -9 -118 -9q-94 0 -154 56q-69 64 -69 188q0 100 84 159q71 51 162 51q137 0 158 -138l-336 -8q-6 -16 -7 -26l340 10l-2 -24l-342 -10v-14q0 -87 52 -146q49 -56 120 -56q74 0 166 20zM382 348 q-31 60 -104 60q-116 0 -167 -77z" />
<glyph unicode="&#xea;" horiz-adv-x="465" d="M401 499l-28 -24l-119 77l-118 -73l-28 26l113 126h64zM433 22q-31 -8 -63 -17q-46 -9 -118 -9q-94 0 -154 56q-69 64 -69 188q0 100 84 159q71 51 162 51q137 0 158 -138l-336 -8q-6 -16 -7 -26l340 10l-2 -24l-342 -10v-14q0 -87 52 -146q49 -56 120 -56q74 0 166 20z M382 348q-31 60 -104 60q-116 0 -167 -77z" />
<glyph unicode="&#xeb;" horiz-adv-x="465" d="M397 554q0 -23 -17 -40.5t-42 -17.5q-23 0 -40 17.5t-17 40.5t17 40.5t40 17.5q25 0 42 -17t17 -41zM225 554q0 -23 -17 -40.5t-40 -17.5q-24 0 -41.5 17.5t-17.5 40.5q0 24 17.5 41t41.5 17q23 0 40 -17.5t17 -40.5zM433 22q-31 -8 -63 -17q-46 -9 -118 -9 q-94 0 -154 56q-69 64 -69 188q0 100 84 159q71 51 162 51q137 0 158 -138l-336 -8q-6 -16 -7 -26l340 10l-2 -24l-342 -10v-14q0 -87 52 -146q49 -56 120 -56q74 0 166 20zM382 348q-31 60 -104 60q-116 0 -167 -77z" />
<glyph unicode="&#xec;" horiz-adv-x="226" d="M147 534l-37 -28l-131 148l77 54zM167 460l-2 -468l-16 2l-2 466h20zM129 -10l-62 6l-8 462h70v-468z" />
<glyph unicode="&#xed;" horiz-adv-x="226" d="M257 643l-131 -148l-37 28l91 174zM167 460l-2 -468l-16 2l-2 466h20zM129 -10l-62 6l-8 462h70v-468z" />
<glyph unicode="&#xee;" horiz-adv-x="226" d="M269 523l-28 -24l-119 77l-118 -73l-28 26l113 126h64zM167 460l-2 -468l-16 2l-2 466h20zM129 -10l-62 6l-8 462h70v-468z" />
<glyph unicode="&#xef;" horiz-adv-x="226" d="M259 560q0 -23 -17 -40.5t-42 -17.5q-23 0 -40 17.5t-17 40.5t17 40.5t40 17.5q25 0 42 -17t17 -41zM87 560q0 -23 -17 -40.5t-40 -17.5q-24 0 -41.5 17.5t-17.5 40.5q0 24 17.5 41t41.5 17q23 0 40 -17.5t17 -40.5zM167 460l-2 -468l-16 2l-2 466h20zM129 -10l-62 6 l-8 462h70v-468z" />
<glyph unicode="&#xf0;" horiz-adv-x="516" d="M471 301q6 -177 -102 -285q-15 -15 -47.5 -27t-58.5 -12q-139 2 -190 86q-31 51 -26 125q4 67 58 111q50 41 115 41q33 0 70 -18q42 -20 70 -54q30 -37 38 -83q17 56 16 116q-1 113 -42 195l-20 -26q39 -80 39 -166h-20q0 77 -33 148l-42 -53l-56 58l57 65q-17 22 -33 37 l14 14q7 -6 32 -36q11 12 20 22q-33 40 -74 67q-35 23 -57 26q-10 1 -19 1q-75 0 -75 -83q0 -28 7 -39.5t22 -11.5q30 0 30 30q0 8 -16 32l16 12q41 -23 41 -65q0 -16 -15 -33t-38 -17q-51 0 -74 32.5t-23 84.5t34 80t89 28q81 0 161 -76q12 -11 26 -27l40 45l51 -41 l-48 -62q58 -96 63 -241zM346 141q0 50 -37 89q-33 34 -76 38q-51 5 -86 -24q-38 -30 -38 -82q0 -43 26 -79q35 -50 103 -48q48 1 69 10q39 37 39 96zM234 120q-28 0 -28 30q0 28 30 28q28 0 28 -30q0 -28 -30 -28z" />
<glyph unicode="&#xf1;" horiz-adv-x="400" d="M387 601l-26 -44q-46 -58 -103 -58q-23 0 -56.5 24.5t-57.5 24.5q-34 0 -61 -47l-28 16l24 41q38 65 90 65q23 0 56.5 -24.5t57.5 -24.5q41 0 78 45zM366 281q1 -17 -4 -155q-4 -131 -6 -154l-77 1q14 250 12 270q-12 136 -71 136q-61 0 -85 -93l-1 -76l59 4l2 -20 l-61 -4l-1 -34l57 4l2 -20l-60 -4q0 -44 -2 -138l-70 -2l-5 135l-43 -3l-2 20l44 3l-1 33q-10 0 -38 -2l-2 20q40 3 39 2l-8 246l94 2l-1 -73q38 60 110 60q57 0 90 -58q25 -44 29 -100z" />
<glyph unicode="&#xf2;" horiz-adv-x="506" d="M291 522l-37 -28l-131 148l77 54zM475 162q-5 -49 -45 -94q-34 -37 -74 -55q-32 -14 -81 -14q-48 0 -98 13q-42 11 -88 64q-52 62 -52 125q1 73 22 110q26 45 67 86q62 52 143 59q43 -2 87 -29q39 -23 63 -55q58 -77 58 -178q0 -16 -2 -32zM411 178q4 19 4 38 q0 34 -13 66q-19 46 -57 74t-84 28q-61 0 -100 -42zM405 159l-257 169q-8 -10 -14 -20q131 -85 261 -172q4 7 10 23zM386 120l-260 171q-3 -6 -8 -20q127 -83 254 -167q3 3 7.5 8.5t6.5 7.5zM357 91q-66 44 -244 161q-6 -36 2 -67q15 -54 58.5 -88.5t96.5 -34.5q47 0 87 29z " />
<glyph unicode="&#xf3;" horiz-adv-x="506" d="M401 643l-131 -148l-37 28l91 174zM475 162q-5 -49 -45 -94q-34 -37 -74 -55q-32 -14 -81 -14q-48 0 -98 13q-42 11 -88 64q-52 62 -52 125q1 73 22 110q26 45 67 86q62 52 143 59q43 -2 87 -29q39 -23 63 -55q58 -77 58 -178q0 -16 -2 -32zM411 178q4 19 4 38 q0 34 -13 66q-19 46 -57 74t-84 28q-61 0 -100 -42zM405 159l-257 169q-8 -10 -14 -20q131 -85 261 -172q4 7 10 23zM386 120l-260 171q-3 -6 -8 -20q127 -83 254 -167q3 3 7.5 8.5t6.5 7.5zM357 91q-66 44 -244 161q-6 -36 2 -67q15 -54 58.5 -88.5t96.5 -34.5q47 0 87 29z " />
<glyph unicode="&#xf4;" horiz-adv-x="506" d="M407 493l-28 -24l-119 77l-118 -73l-28 26l113 126h64zM475 162q-5 -49 -45 -94q-34 -37 -74 -55q-32 -14 -81 -14q-48 0 -98 13q-42 11 -88 64q-52 62 -52 125q1 73 22 110q26 45 67 86q62 52 143 59q43 -2 87 -29q39 -23 63 -55q58 -77 58 -178q0 -16 -2 -32zM411 178 q4 19 4 38q0 34 -13 66q-19 46 -57 74t-84 28q-61 0 -100 -42zM405 159l-257 169q-8 -10 -14 -20q131 -85 261 -172q4 7 10 23zM386 120l-260 171q-3 -6 -8 -20q127 -83 254 -167q3 3 7.5 8.5t6.5 7.5zM357 91q-66 44 -244 161q-6 -36 2 -67q15 -54 58.5 -88.5t96.5 -34.5 q47 0 87 29z" />
<glyph unicode="&#xf5;" horiz-adv-x="506" d="M435 595l-26 -44q-46 -58 -103 -58q-23 0 -56.5 24.5t-57.5 24.5q-34 0 -61 -47l-28 16l24 41q38 65 90 65q23 0 56.5 -24.5t57.5 -24.5q41 0 78 45zM475 162q-5 -49 -45 -94q-34 -37 -74 -55q-32 -14 -81 -14q-48 0 -98 13q-42 11 -88 64q-52 62 -52 125q1 73 22 110 q26 45 67 86q62 52 143 59q43 -2 87 -29q39 -23 63 -55q58 -77 58 -178q0 -16 -2 -32zM411 178q4 19 4 38q0 34 -13 66q-19 46 -57 74t-84 28q-61 0 -100 -42zM405 159l-257 169q-8 -10 -14 -20q131 -85 261 -172q4 7 10 23zM386 120l-260 171q-3 -6 -8 -20 q127 -83 254 -167q3 3 7.5 8.5t6.5 7.5zM357 91q-66 44 -244 161q-6 -36 2 -67q15 -54 58.5 -88.5t96.5 -34.5q47 0 87 29z" />
<glyph unicode="&#xf6;" horiz-adv-x="506" d="M397 548q0 -23 -17 -40.5t-42 -17.5q-23 0 -40 17.5t-17 40.5t17 40.5t40 17.5q25 0 42 -17t17 -41zM225 548q0 -23 -17 -40.5t-40 -17.5q-24 0 -41.5 17.5t-17.5 40.5q0 24 17.5 41t41.5 17q23 0 40 -17.5t17 -40.5zM475 162q-5 -49 -45 -94q-34 -37 -74 -55 q-32 -14 -81 -14q-48 0 -98 13q-42 11 -88 64q-52 62 -52 125q1 73 22 110q26 45 67 86q62 52 143 59q43 -2 87 -29q39 -23 63 -55q58 -77 58 -178q0 -16 -2 -32zM411 178q4 19 4 38q0 34 -13 66q-19 46 -57 74t-84 28q-61 0 -100 -42zM405 159l-257 169q-8 -10 -14 -20 q131 -85 261 -172q4 7 10 23zM386 120l-260 171q-3 -6 -8 -20q127 -83 254 -167q3 3 7.5 8.5t6.5 7.5zM357 91q-66 44 -244 161q-6 -36 2 -67q15 -54 58.5 -88.5t96.5 -34.5q47 0 87 29z" />
<glyph unicode="&#xf7;" horiz-adv-x="405" d="M272 471q0 -25 -18 -43t-43 -18t-43 18t-18 43t18 43t43 18t43 -18t18 -43zM372 298l-334 -9l10 96l324 -5v-82zM276 191q0 -25 -18 -43t-43 -18t-43 18t-18 43t18 43t43 18t43 -18t18 -43z" />
<glyph unicode="&#xf8;" horiz-adv-x="506" d="M475 162q-5 -49 -45 -94q-34 -37 -74 -55q-32 -14 -81 -14q-48 0 -98 13q-1 0 -2 1h-2l-46 -79l-54 27l48 83q-85 73 -84 157q1 73 22 110q26 45 67 86q62 52 143 59q38 -1 78 -23l48 82l47 -33l-48 -83q14 -13 25 -27q58 -76 58 -177q0 -17 -2 -33zM411 178q4 19 4 38 q0 76 -53 126l-55 -96zM313 374q-26 10 -53 10q-60 0 -99 -42l96 -63zM405 159l-108 71l-11 -22q105 -68 109 -72q4 7 10 23zM247 262q-27 19 -99 66q-8 -10 -14 -20l101 -67q10 14 12 21zM386 120l-110 72l-10 -18q53 -34 106 -70q3 3 7.5 8.5t6.5 7.5zM226 225l-100 66 q-3 -6 -8 -20q23 -15 98 -64zM357 91l-101 67l-48 -83q30 -13 62 -13q47 0 87 29zM206 190l-93 62q-7 -36 2 -67q11 -42 44 -76z" />
<glyph unicode="&#xf9;" horiz-adv-x="393" d="M249 522l-37 -28l-131 148l77 54zM363 474l-12 -477h-51l-3 87q-51 -95 -144 -95q-92 0 -92 116q0 46 24 119t24 121q0 75 -43 75q-20 0 -20 -16q0 -19 10 -19q9 0 15 5l15 -17l-27 -27q-13 -10 -32 -10q-14 0 -24.5 15.5t-10.5 32.5q0 28 17 52q28 39 92 39q34 0 54 -30 q17 -27 17 -67q0 -48 -21 -120t-21 -118t9 -64q12 -24 47 -24q26 0 57 34.5t50 83.5q-2 80 -11 295zM52 238q11 -15 -4 -26t-26 4t4 26t26 -4zM40 136q0 -23 -23 -23t-23 23t23 23t23 -23zM44 64q12 -17 -6 -30q-17 -12 -30 6q-12 17 6 30q17 12 30 -6z" />
<glyph unicode="&#xfa;" horiz-adv-x="393" d="M353 643l-131 -148l-37 28l91 174zM363 474l-12 -477h-51l-3 87q-51 -95 -144 -95q-92 0 -92 116q0 46 24 119t24 121q0 75 -43 75q-20 0 -20 -16q0 -19 10 -19q9 0 15 5l15 -17l-27 -27q-13 -10 -32 -10q-14 0 -24.5 15.5t-10.5 32.5q0 28 17 52q28 39 92 39 q34 0 54 -30q17 -27 17 -67q0 -48 -21 -120t-21 -118t9 -64q12 -24 47 -24q26 0 57 34.5t50 83.5q-2 80 -11 295zM52 238q11 -15 -4 -26t-26 4t4 26t26 -4zM40 136q0 -23 -23 -23t-23 23t23 23t23 -23zM44 64q12 -17 -6 -30q-17 -12 -30 6q-12 17 6 30q17 12 30 -6z" />
<glyph unicode="&#xfb;" horiz-adv-x="393" d="M359 541l-28 -24l-119 77l-118 -73l-28 26l113 126h64zM363 474l-12 -477h-51l-3 87q-51 -95 -144 -95q-92 0 -92 116q0 46 24 119t24 121q0 75 -43 75q-20 0 -20 -16q0 -19 10 -19q9 0 15 5l15 -17l-27 -27q-13 -10 -32 -10q-14 0 -24.5 15.5t-10.5 32.5q0 28 17 52 q28 39 92 39q34 0 54 -30q17 -27 17 -67q0 -48 -21 -120t-21 -118t9 -64q12 -24 47 -24q26 0 57 34.5t50 83.5q-2 80 -11 295zM52 238q11 -15 -4 -26t-26 4t4 26t26 -4zM40 136q0 -23 -23 -23t-23 23t23 23t23 -23zM44 64q12 -17 -6 -30q-17 -12 -30 6q-12 17 6 30 q17 12 30 -6z" />
<glyph unicode="&#xfc;" horiz-adv-x="393" d="M349 578q0 -23 -17 -40.5t-42 -17.5q-23 0 -40 17.5t-17 40.5t17 40.5t40 17.5q25 0 42 -17t17 -41zM177 578q0 -23 -17 -40.5t-40 -17.5q-24 0 -41.5 17.5t-17.5 40.5q0 24 17.5 41t41.5 17q23 0 40 -17.5t17 -40.5zM363 474l-12 -477h-51l-3 87q-51 -95 -144 -95 q-92 0 -92 116q0 46 24 119t24 121q0 75 -43 75q-20 0 -20 -16q0 -19 10 -19q9 0 15 5l15 -17l-27 -27q-13 -10 -32 -10q-14 0 -24.5 15.5t-10.5 32.5q0 28 17 52q28 39 92 39q34 0 54 -30q17 -27 17 -67q0 -48 -21 -120t-21 -118t9 -64q12 -24 47 -24q26 0 57 34.5t50 83.5 q-2 80 -11 295zM52 238q11 -15 -4 -26t-26 4t4 26t26 -4zM40 136q0 -23 -23 -23t-23 23t23 23t23 -23zM44 64q12 -17 -6 -30q-17 -12 -30 6q-12 17 6 30q17 12 30 -6z" />
<glyph unicode="&#xfd;" horiz-adv-x="402" d="M353 613l-131 -148l-37 28l91 174zM416 444q-18 -57 -48 -179q-29 -117 -47 -173q-60 -189 -150 -277q-51 -50 -120 -50q-43 0 -66 33q-20 29 -20 74q0 35 21 71q32 53 94 53q19 0 37.5 -18.5t18.5 -37.5q0 -22 -11 -42l-36 -37l-18 13q8 18 8 31q0 12 -7.5 23t-19.5 11 t-21 -12t-9 -20q0 -85 64 -85q33 0 62 35q38 45 72 140l-107 188l-32 -21l-10 16l33 21l-10 17q-8 -5 -31 -20l-10 16q16 11 32 20l-11 20l-31 -20l-10 16l31 20q1 1 -79 141l87 48l66 -142l67 43l10 -16l-69 -44q3 -5 10 -20l69 44l10 -16l-71 -45l9 -18l70 45l10 -16 l-72 -46l69 -146q17 56 49 186q33 135 49 189z" />
<glyph unicode="&#xfe;" horiz-adv-x="467" d="M426 235q0 -91 -52.5 -148.5t-123.5 -60.5q-75 -3 -134 43l3 -177l61 -4l-2 -20l-59 4l1 -39l57 -4l-2 -20l-55 4l2 -78l-83 8l1 76l-30 2l2 20l28 -2l1 39l-28 2l2 20l26 -2l8 787l59 -4l1 -272q39 28 111 31q80 3 141 -54q65 -60 65 -151zM358 237q0 61 -40.5 106.5 t-93.5 50.5q-63 6 -114 -27q3 -122 4 -244q61 -48 116 -44q56 4 93 54q35 47 35 104zM286 314q0 -29 -29 -29t-29 29t29 29t29 -29zM320 244q10 -21 -11 -31q-22 -10 -31 11q-10 22 11 31t31 -11zM290 166q12 -22 -11 -34q-13 -6 -25 1.5t-12 21.5q0 25 24 25q16 0 24 -14z " />
<glyph unicode="&#xff;" horiz-adv-x="402" d="M355 560q0 -23 -17 -40.5t-42 -17.5q-23 0 -40 17.5t-17 40.5t17 40.5t40 17.5q25 0 42 -17t17 -41zM183 560q0 -23 -17 -40.5t-40 -17.5q-24 0 -41.5 17.5t-17.5 40.5q0 24 17.5 41t41.5 17q23 0 40 -17.5t17 -40.5zM416 444q-18 -57 -48 -179q-29 -117 -47 -173 q-60 -189 -150 -277q-51 -50 -120 -50q-43 0 -66 33q-20 29 -20 74q0 35 21 71q32 53 94 53q19 0 37.5 -18.5t18.5 -37.5q0 -22 -11 -42l-36 -37l-18 13q8 18 8 31q0 12 -7.5 23t-19.5 11t-21 -12t-9 -20q0 -85 64 -85q33 0 62 35q38 45 72 140l-107 188l-32 -21l-10 16 l33 21l-10 17q-8 -5 -31 -20l-10 16q16 11 32 20l-11 20l-31 -20l-10 16l31 20q1 1 -79 141l87 48l66 -142l67 43l10 -16l-69 -44q3 -5 10 -20l69 44l10 -16l-71 -45l9 -18l70 45l10 -16l-72 -46l69 -146q17 56 49 186q33 135 49 189z" />
<glyph unicode="&#x152;" horiz-adv-x="1140" d="M737 659q-58 -40 -58 -103q0 -44 31 -91l-16 -10q-35 53 -35 102q0 73 68 120zM790 136l-12 -16q-65 55 -65 140q0 47 18 90l18 -8q-16 -39 -16 -81q0 -76 57 -125zM1105 212q0 -83 -47 -129l-50 -49q-52 -51 -155 -51q-80 0 -142.5 33.5t-87.5 88.5q-10 21 -13 37 q-15 -20 -30 -35l-33 -33q-78 -78 -188 -78q-108 0 -141 17q-74 38 -117 104q-50 75 -50 172v33h-35l4 24h33q1 8 3 22h-36l-8 20l47 2q32 126 108 205l33 34q77 79 184 79q50 0 89 -23q36 -21 79 -71q31 -36 51 -74q39 -75 51 -173q1 2 4 4l50 49q20 20 45 33 q-42 36 -42 98q0 36 29 66l49 50q40 41 113 41q48 0 100 -33q56 -35 56 -75q0 -18 -11 -40l-50 -51l-16 11q8 18 8 31q0 34 -49 62q-45 25 -87 25q-39 0 -68 -13q-4 -16 -4 -25q0 -71 66 -103q35 -17 146 -38l-66 -66q-98 16 -116 16q-65 0 -111 -30q-31 -48 -31 -112 t22 -103q23 -51 80.5 -82t130.5 -31q70 0 113 25q21 36 21 86q0 30 -18 50.5t-48 20.5h-4q-1 -3 -1 -8q0 -20 35 -39l-48 -46q-41 21 -41 54q0 30 25 54l34 32q23 22 49 22q39 0 62.5 -26t23.5 -64zM423 630q-34 12 -72 12q-83 0 -146 -55q-72 -84 -87 -194l40 2q0 3 1 8v7 q14 113 102 169q64 40 155 44zM594 286v19q-1 12 -1 18l-65 -1l4 24l58 1q-2 14 -4 22l-54 -1l-8 20q29 2 57 3q-12 51 -38 102q-12 24 -17 31q-7 12 -22 27q-2 2 -20 27q-13 18 -28 26q-13 1 -27 1q-100 0 -172 -52q-80 -59 -80 -157l37 2l-4 -28l-35 -1v-22l37 1l-2 -24 h-32q9 -90 60 -145l-13 -13q-55 59 -66 157q-12 1 -45 0q1 -161 151 -244q29 -16 125 -16q85 0 150 54q35 45 46 89q8 33 8 80zM156 347v22h-41q-1 -7 -1 -22h42zM393 303q14 -21 -7 -35t-35 7t7 35t35 -7z" />
<glyph unicode="&#x153;" horiz-adv-x="866" d="M829 22q-31 -8 -63 -17q-46 -9 -118 -9q-137 0 -193 107q-36 -62 -99 -90q-31 -14 -81 -14q-48 0 -98 13q-42 11 -88 64q-52 62 -52 125q1 73 22 110q26 45 67 86q62 52 143 59q43 -2 87 -29q39 -23 63 -55q17 -23 27 -44q30 59 99 93q60 29 126 29q137 0 158 -138 l-336 -8q-6 -16 -7 -26l340 10l-2 -24l-342 -10v-14q0 -87 52 -146q49 -56 120 -56q74 0 166 20zM778 348q-31 60 -104 60q-116 0 -167 -77zM411 178q4 19 4 38q0 34 -13 66q-19 46 -57 74t-84 28q-61 0 -100 -42zM405 159l-257 169q-8 -10 -14 -20q131 -85 261 -172 q4 7 10 23zM386 120l-260 171q-3 -6 -8 -20q127 -83 254 -167q3 3 7.5 8.5t6.5 7.5zM357 91q-66 44 -244 161q-6 -36 2 -67q15 -54 58.5 -88.5t96.5 -34.5q47 0 87 29z" />
<glyph unicode="&#x178;" horiz-adv-x="585" d="M440 788q0 -23 -17 -40.5t-42 -17.5q-23 0 -40 17.5t-17 40.5t17 40.5t40 17.5q25 0 42 -17t17 -41zM268 788q0 -23 -17 -40.5t-40 -17.5q-24 0 -41.5 17.5t-17.5 40.5q0 24 17.5 41t41.5 17q23 0 40 -17.5t17 -40.5zM564 558l-2 -24h-26q-1 -5 -4 -15.5t-5 -16.5h27 l2 -22h-36q-58 -146 -195 -160l5 -326l-78 6l12 319q-158 13 -212 165h-34l4 24h22q-2 7 -7 28h-23l2 20h17q-9 55 -7 114h66q-6 -64 1 -114l406 2q15 56 17 112l36 2q1 -55 -11 -114h23zM492 534l-395 2q4 -20 7 -29l376 -4q7 14 12 31zM469 480q-96 1 -357 3 q46 -113 180 -113q117 0 177 110z" />
<glyph unicode="&#x2c6;" horiz-adv-x="362" d="M325 556l-28 -24l-119 77l-118 -73l-28 26l113 126h64z" />
<glyph unicode="&#x2dc;" horiz-adv-x="417" d="M378 658l-26 -44q-46 -58 -103 -58q-23 0 -56.5 24.5t-57.5 24.5q-34 0 -61 -47l-28 16l24 41q38 65 90 65q23 0 56.5 -24.5t57.5 -24.5q41 0 78 45z" />
<glyph unicode="&#x2000;" horiz-adv-x="474" />
<glyph unicode="&#x2001;" horiz-adv-x="949" />
<glyph unicode="&#x2002;" horiz-adv-x="474" />
<glyph unicode="&#x2003;" horiz-adv-x="949" />
<glyph unicode="&#x2004;" horiz-adv-x="316" />
<glyph unicode="&#x2005;" horiz-adv-x="237" />
<glyph unicode="&#x2006;" horiz-adv-x="158" />
<glyph unicode="&#x2007;" horiz-adv-x="158" />
<glyph unicode="&#x2008;" horiz-adv-x="118" />
<glyph unicode="&#x2009;" horiz-adv-x="189" />
<glyph unicode="&#x200a;" horiz-adv-x="52" />
<glyph unicode="&#x2010;" horiz-adv-x="405" d="M356 380l-2 -102l-304 -9l12 116z" />
<glyph unicode="&#x2011;" horiz-adv-x="405" d="M356 380l-2 -102l-304 -9l12 116z" />
<glyph unicode="&#x2012;" horiz-adv-x="405" d="M356 380l-2 -102l-304 -9l12 116z" />
<glyph unicode="&#x2013;" horiz-adv-x="381" d="M360 293l-343 -9l9 98l333 -5z" />
<glyph unicode="&#x2014;" horiz-adv-x="765" d="M744 293l-727 -9l9 98l717 -5z" />
<glyph unicode="&#x2018;" horiz-adv-x="260" d="M221 494l-42 -22l-132 185l79 46z" />
<glyph unicode="&#x2019;" horiz-adv-x="260" d="M231 657l-132 -185l-42 22l95 209z" />
<glyph unicode="&#x201a;" horiz-adv-x="305" d="M221 20q0 -72 -91 -163l-34 -34l-27 28q67 69 67 139q0 53 -34 71l76 60q43 -28 43 -101z" />
<glyph unicode="&#x201c;" horiz-adv-x="408" d="M359 494l-42 -22l-132 185l79 46zM221 494l-42 -22l-132 185l79 46z" />
<glyph unicode="&#x201d;" horiz-adv-x="408" d="M369 657l-132 -185l-42 22l95 209zM231 657l-132 -185l-42 22l95 209z" />
<glyph unicode="&#x201e;" horiz-adv-x="426" d="M365 20q0 -72 -91 -163l-34 -34l-27 28q67 69 67 139q0 53 -34 71l76 60q43 -28 43 -101zM221 20q0 -72 -91 -163l-34 -34l-27 28q67 69 67 139q0 53 -34 71l76 60q43 -28 43 -101z" />
<glyph unicode="&#x2022;" horiz-adv-x="420" d="M358 263q-3 -32 -31 -63t-59 -40q-17 -5 -44 -5q-42 0 -68 7.5t-57 42.5q-35 42 -35 83q1 51 16 76t43 56q41 35 96 39q61 -1 100.5 -55.5t39.5 -120.5q0 -10 -1 -20z" />
<glyph unicode="&#x2026;" horiz-adv-x="760" d="M697 57q0 -28 -20 -48t-48 -20t-48 20t-20 48t20 48t48 20t48 -20t20 -48zM453 57q0 -28 -20 -48t-48 -20t-48 20t-20 48t20 48t48 20t48 -20t20 -48zM207 57q0 -28 -20 -48t-48 -20t-48 20t-20 48t20 48t48 20t48 -20t20 -48z" />
<glyph unicode="&#x202f;" horiz-adv-x="189" />
<glyph unicode="&#x2039;" horiz-adv-x="300" d="M232 89l-31 -68l-132 172v38l125 168l36 -59l-105 -128z" />
<glyph unicode="&#x203a;" horiz-adv-x="300" d="M246 193l-132 -172l-31 68l107 123l-105 128l36 59l125 -168v-38z" />
<glyph unicode="&#x205f;" horiz-adv-x="237" />
<glyph unicode="&#x2122;" horiz-adv-x="676" d="M639 434q0 -44 -27.5 -68t-55.5 -24q-21 0 -39 25.5t-19 50.5q-3 55 33 116t36 86q0 53 -40 53q-14 0 -27 -11q-28 -36 -28 -84l-25 -26q-2 5 -9 46q-11 64 -58 64q-29 0 -29 -33q0 -51 14 -71q25 -47 29 -54q14 -34 14 -69q0 -40 -30.5 -68.5t-67.5 -28.5q-46 0 -46 49 q0 24 20 46q15 16 42 20q24 0 24 -28q0 -10 -10 -21l-15 -16l-11 8q12 15 12 21q0 14 -15 12q-6 -1 -11.5 -10t-5.5 -15q0 -37 32 -37q22 0 39 12q13 18 13 39q0 33 -18 66q-16 25 -32 51q-20 34 -20 85q0 32 21.5 56.5t55.5 24.5q49 0 75 -54q19 61 85 61q25 0 43 -19.5 t18 -47.5q0 -45 -38.5 -110.5t-37.5 -96.5q1 -20 13.5 -41t27.5 -21q9 0 28 7q10 18 10 38t-10 20q-8 0 -8 -11l2 -14l-15 -13l-10 15q0 21 10.5 38t28.5 17q32 0 32 -35zM513 468l-123 1v10l123 -1v-10zM515 449h-124v11l124 -2v-9zM513 430l-123 1v11l123 -2v-10zM277 698 l-3 -46l-227 -3l-5 43zM211 636l-73 -4l4 -240l-11 1l-2 128l-20 1l2 12l17 -1v13h-20v13h19v13l-19 -1v11l19 -1q0 27 -1 59l84 6zM191 346h-36l-6 273l39 4z" />
<glyph unicode="&#xe000;" horiz-adv-x="450" d="M0 450h450v-450h-450v450z" />
</font>
</defs>
</svg>
