<?xml version="1.0" standalone="no"?>
<!DOCTYPE svg PUBLIC "-//W3C//DTD SVG 1.1//EN" "http://www.w3.org/Graphics/SVG/1.1/DTD/svg11.dtd" >
<svg xmlns="http://www.w3.org/2000/svg">
<metadata></metadata>
<defs>
<font id="geometry_soft_probold_n" horiz-adv-x="560" >
<font-face units-per-em="1000" ascent="800" descent="-200" />
<missing-glyph horiz-adv-x="272" />
<glyph horiz-adv-x="1000" />
<glyph horiz-adv-x="1000" />
<glyph unicode="&#xd;" horiz-adv-x="1000" />
<glyph unicode=" "  horiz-adv-x="272" />
<glyph unicode="&#x09;" horiz-adv-x="272" />
<glyph unicode="&#xa0;" horiz-adv-x="272" />
<glyph unicode="!" horiz-adv-x="208" d="M32 72q0 30 21 51t51 21t51 -21t21 -51t-21 -51t-51 -21t-51 21t-21 51zM40 256v384q0 26 19 45t45 19t45 -19t19 -45v-384q0 -26 -19 -45t-45 -19t-45 19t-19 45z" />
<glyph unicode="&#x22;" horiz-adv-x="336" d="M24 512v128q0 26 19 45t45 19t45 -19t19 -45v-128q0 -26 -19 -45t-45 -19t-45 19t-19 45zM184 512v128q0 26 19 45t45 19t45 -19t19 -45v-128q0 -26 -19 -45t-45 -19t-45 19t-19 45z" />
<glyph unicode="#" horiz-adv-x="624" d="M24 192q0 26 19 45t45 19h32v128h-32q-26 0 -45 19t-19 45t19 45t45 19h32v32q0 26 19 45t45 19t45 -19t19 -45v-32h128v32q0 26 19 45t45 19t45 -19t19 -45v-32h32q26 0 45 -19t19 -45t-19 -45t-45 -19h-32v-128h32q26 0 45 -19t19 -45t-19 -45t-45 -19h-32v-32 q0 -26 -19 -45t-45 -19t-45 19t-19 45v32h-128v-32q0 -26 -19 -45t-45 -19t-45 19t-19 45v32h-32q-26 0 -45 19t-19 45zM248 256h128v128h-128v-128z" />
<glyph unicode="$" d="M24 128q0 26 19 45t45 19h144v64h-48q-66 0 -113 47t-47 113t47 113t113 47h48v16q0 20 14 34t34 14t34 -14t14 -34v-16h112q26 0 45 -19t19 -45t-19 -45t-45 -19h-112v-64h48q66 0 113 -47t47 -113t-47 -113t-113 -47h-48v-16q0 -20 -14 -34t-34 -14t-34 14t-14 34v16 h-144q-26 0 -45 19t-19 45zM152 416q0 -14 9 -23t23 -9h48v64h-48q-14 0 -23 -9t-9 -23zM328 192h48q14 0 23 9t9 23t-9 23t-23 9h-48v-64z" />
<glyph unicode="%" horiz-adv-x="688" d="M24 48q0 20 14 34l544 544q14 14 34 14t34 -14t14 -34t-14 -34l-544 -544q-14 -14 -34 -14t-34 14t-14 34zM24 496q0 59 42.5 101.5t101.5 42.5t101.5 -42.5t42.5 -101.5t-42.5 -101.5t-101.5 -42.5t-101.5 42.5t-42.5 101.5zM120 496q0 -20 14 -34t34 -14t34 14t14 34 t-14 34t-34 14t-34 -14t-14 -34zM376 144q0 59 42.5 101.5t101.5 42.5t101.5 -42.5t42.5 -101.5t-42.5 -101.5t-101.5 -42.5t-101.5 42.5t-42.5 101.5zM472 144q0 -20 14 -34t34 -14t34 14t14 34t-14 34t-34 14t-34 -14t-14 -34z" />
<glyph unicode="&#x26;" horiz-adv-x="624" d="M24 192q0 74 49 128q-49 54 -49 128q0 80 56 136t136 56h120q106 0 181 -75q19 -19 19 -45t-19 -45t-45 -19t-45 19q-38 37 -91 37h-120q-26 0 -45 -19t-19 -45t19 -45t45 -19h352q26 0 45 -19t19 -45t-19 -45t-45 -19h-32v-64q0 -80 -56 -136t-136 -56h-128 q-80 0 -136 56t-56 136zM152 192q0 -26 19 -45t45 -19h128q26 0 45 19t19 45v64h-192q-26 0 -45 -19t-19 -45z" />
<glyph unicode="'" horiz-adv-x="176" d="M24 512v128q0 26 19 45t45 19t45 -19t19 -45v-128q0 -26 -19 -45t-45 -19t-45 19t-19 45z" />
<glyph unicode="(" horiz-adv-x="408" d="M16 320q0 133 93.5 226.5t226.5 93.5q26 0 45 -19t19 -45t-19 -45t-45 -19q-80 0 -136 -56t-56 -136t56 -136t136 -56q26 0 45 -19t19 -45t-19 -45t-45 -19q-133 0 -226.5 93.5t-93.5 226.5z" />
<glyph unicode=")" horiz-adv-x="408" d="M8 64q0 26 19 45t45 19q80 0 136 56t56 136t-56 136t-136 56q-26 0 -45 19t-19 45t19 45t45 19q133 0 226.5 -93.5t93.5 -226.5t-93.5 -226.5t-226.5 -93.5q-26 0 -45 19t-19 45z" />
<glyph unicode="*" horiz-adv-x="432" d="M24 320q0 26 19 45l67 67h90v-90l-67 -67q-19 -19 -45 -19t-45 19t-19 45zM24 576q0 26 19 45t45 19t45 -19l67 -67v-90h-90l-67 67q-19 19 -19 45zM232 342v90h88l69 -67q19 -19 19 -45t-19 -45t-45 -19t-45 19zM232 464v90l67 67q19 19 45 19t45 -19t19 -45t-19 -45 l-69 -67h-88z" />
<glyph unicode="+" d="M24 320q0 26 19 45t45 19h128v128q0 26 19 45t45 19t45 -19t19 -45v-128h128q26 0 45 -19t19 -45t-19 -45t-45 -19h-128v-128q0 -26 -19 -45t-45 -19t-45 19t-19 45v128h-128q-26 0 -45 19t-19 45z" />
<glyph unicode="," horiz-adv-x="176" d="M24 -64v128q0 26 19 45t45 19t45 -19t19 -45v-128q0 -26 -19 -45t-45 -19t-45 19t-19 45z" />
<glyph unicode="-" horiz-adv-x="368" d="M24 320q0 26 19 45t45 19h192q26 0 45 -19t19 -45t-19 -45t-45 -19h-192q-26 0 -45 19t-19 45z" />
<glyph unicode="." horiz-adv-x="176" d="M16 72q0 30 21 51t51 21t51 -21t21 -51t-21 -51t-51 -21t-51 21t-21 51z" />
<glyph unicode="/" horiz-adv-x="624" d="M-8 64q0 27 19 45l512 512q19 19 45 19t45 -19t19 -45t-19 -45l-512 -512q-18 -19 -45 -19q-26 0 -45 19t-19 45z" />
<glyph unicode="0" d="M24 256v128q0 106 75 181t181 75t181 -75t75 -181v-128q0 -106 -75 -181t-181 -75t-181 75t-75 181zM152 256q0 -53 37.5 -90.5t90.5 -37.5t90.5 37.5t37.5 90.5v128q0 53 -37.5 90.5t-90.5 37.5t-90.5 -37.5t-37.5 -90.5v-128zM208 320q0 30 21 51t51 21t51 -21t21 -51 t-21 -51t-51 -21t-51 21t-21 51z" />
<glyph unicode="1" horiz-adv-x="416" d="M24 64q0 26 19 45t45 19h64v294l-19 -19q-19 -19 -45 -19t-45 19t-19 45q0 27 19 45l128 128q19 19 45 19t45 -19t19 -45v-448h64q26 0 45 -19t19 -45t-19 -45t-45 -19h-256q-26 0 -45 19t-19 45z" />
<glyph unicode="2" horiz-adv-x="544" d="M8 64v64q0 106 75 181t181 75h64q26 0 45 19t19 45t-19 45t-45 19h-224q-26 0 -45 19t-19 45t19 45t45 19h224q80 0 136 -56t56 -136t-56 -136t-136 -56h-64q-53 0 -90.5 -37.5t-37.5 -90.5h320q26 0 45 -19t19 -45t-19 -45t-45 -19h-384q-26 0 -45 19t-19 45z" />
<glyph unicode="3" horiz-adv-x="544" d="M8 64q0 26 19 45t45 19h256q26 0 45 19t19 45t-19 45t-45 19h-192q-26 0 -45 19t-19 45t19 45t45 19h192q26 0 45 19t19 45t-19 45t-45 19h-256q-26 0 -45 19t-19 45t19 45t45 19h256q80 0 136 -56t56 -136q0 -74 -49 -128q49 -54 49 -128q0 -80 -56 -136t-136 -56h-256 q-26 0 -45 19t-19 45z" />
<glyph unicode="4" horiz-adv-x="576" d="M24 320v256q0 26 19 45t45 19t45 -19t19 -45v-192h256v192q0 26 19 45t45 19t45 -19t19 -45v-512q0 -26 -19 -45t-45 -19t-45 19t-19 45v192h-320q-26 0 -45 19t-19 45z" />
<glyph unicode="5" horiz-adv-x="576" d="M40 64q0 26 19 45t45 19h256q26 0 45 19t19 45t-19 45t-45 19h-256q-26 0 -45 19t-19 45v256q0 26 19 45t45 19h352q26 0 45 -19t19 -45t-19 -45t-45 -19h-288v-128h192q80 0 136 -56t56 -136t-56 -136t-136 -56h-256q-26 0 -45 19t-19 45z" />
<glyph unicode="6" d="M24 192v192q0 106 75 181t181 75h128q26 0 45 -19t19 -45t-19 -45t-45 -19h-128q-53 0 -90.5 -37.5t-37.5 -90.5v-11q31 11 64 11h128q80 0 136 -56t56 -136t-56 -136t-136 -56h-128q-80 0 -136 56t-56 136zM152 192q0 -26 19 -45t45 -19h128q26 0 45 19t19 45t-19 45 t-45 19h-128q-26 0 -45 -19t-19 -45z" />
<glyph unicode="7" horiz-adv-x="528" d="M8 576q0 26 19 45t45 19h384q26 0 45 -19t19 -45v-64q0 -88 -54.5 -157.5t-137.5 -90.5v-200q0 -26 -19 -45t-45 -19t-45 19t-19 45v256q0 26 19 45t45 19q53 0 90.5 37.5t37.5 90.5h-320q-26 0 -45 19t-19 45z" />
<glyph unicode="8" d="M24 192q0 89 67 146q-35 49 -35 110q0 80 56 136t136 56h64q80 0 136 -56t56 -136q0 -61 -35 -110q67 -57 67 -146q0 -80 -56 -136t-136 -56h-128q-80 0 -136 56t-56 136zM152 192q0 -26 19 -45t45 -19h128q26 0 45 19t19 45t-19 45t-45 19h-128q-26 0 -45 -19t-19 -45z M184 448q0 -26 19 -45t45 -19h64q26 0 45 19t19 45t-19 45t-45 19h-64q-26 0 -45 -19t-19 -45z" />
<glyph unicode="9" d="M24 448q0 80 56 136t136 56h128q80 0 136 -56t56 -136v-192q0 -106 -75 -181t-181 -75h-128q-26 0 -45 19t-19 45t19 45t45 19h128q53 0 90.5 37.5t37.5 90.5v11q-31 -11 -64 -11h-128q-80 0 -136 56t-56 136zM152 448q0 -26 19 -45t45 -19h128q26 0 45 19t19 45t-19 45 t-45 19h-128q-26 0 -45 -19t-19 -45z" />
<glyph unicode=":" horiz-adv-x="176" d="M16 168q0 30 21 51t51 21t51 -21t21 -51t-21 -51t-51 -21t-51 21t-21 51zM16 408q0 30 21 51t51 21t51 -21t21 -51t-21 -51t-51 -21t-51 21t-21 51z" />
<glyph unicode=";" horiz-adv-x="176" d="M16 408q0 30 21 51t51 21t51 -21t21 -51t-21 -51t-51 -21t-51 21t-21 51zM24 32v128q0 26 19 45t45 19t45 -19t19 -45v-128q0 -26 -19 -45t-45 -19t-45 19t-19 45z" />
<glyph unicode="&#x3c;" horiz-adv-x="432" d="M24 320q0 27 18 45l257 256q19 19 45 19t45 -19t19 -45q0 -27 -18 -45l-211 -211l211 -211q16 -18 18 -45q0 -26 -19 -45t-45 -19t-45 19l-257 256q-18 17 -18 45z" />
<glyph unicode="=" d="M24 192q0 26 19 45t45 19h384q26 0 45 -19t19 -45t-19 -45t-45 -19h-384q-26 0 -45 19t-19 45zM24 448q0 26 19 45t45 19h384q26 0 45 -19t19 -45t-19 -45t-45 -19h-384q-26 0 -45 19t-19 45z" />
<glyph unicode="&#x3e;" horiz-adv-x="432" d="M24 64q0 27 18 45l211 211l-211 211q-18 17 -18 45q0 26 19 45t45 19t45 -19l257 -256q16 -15 18 -45q0 -27 -18 -45l-257 -256q-19 -19 -45 -19t-45 19t-19 45z" />
<glyph unicode="?" horiz-adv-x="544" d="M8 448q0 106 75 181t181 75t181 -75t75 -181t-75 -181t-181 -75q-26 0 -45 19t-19 45t19 45t45 19q53 0 90.5 37.5t37.5 90.5t-37.5 90.5t-90.5 37.5t-90.5 -37.5t-37.5 -90.5q0 -26 -19 -45t-45 -19t-45 19t-19 45zM192 72q0 30 21 51t51 21t51 -21t21 -51t-21 -51 t-51 -21t-51 21t-21 51z" />
<glyph unicode="@" horiz-adv-x="800" d="M16 256q0 159 112.5 271.5t271.5 112.5t271.5 -112.5t112.5 -271.5q0 -80 -56 -136t-136 -56h-192q-80 0 -136 56t-56 136t56 136t136 56t136 -56t56 -136v-64q26 0 45 19t19 45q0 106 -75 181t-181 75t-181 -75t-75 -181t75 -181t181 -75h128q26 0 45 -19t19 -45 t-19 -45t-45 -19h-128q-159 0 -271.5 112.5t-112.5 271.5zM336 256q0 -26 19 -45t45 -19h64v64q0 26 -19 45t-45 19t-45 -19t-19 -45z" />
<glyph unicode="A" horiz-adv-x="656" d="M40 64v288q0 119 84.5 203.5t203.5 84.5t203.5 -84.5t84.5 -203.5v-288q0 -26 -19 -45t-45 -19t-45 19t-19 45v128h-320v-128q0 -26 -19 -45t-45 -19t-45 19t-19 45zM168 320h320v32q0 66 -47 113t-113 47t-113 -47t-47 -113v-32z" />
<glyph unicode="B" horiz-adv-x="632" d="M40 64v512q0 26 19 45t45 19h288q80 0 136 -56t56 -136q0 -61 -35 -110q67 -57 67 -146q0 -80 -56 -136t-136 -56h-320q-26 0 -45 19t-19 45zM168 128h256q26 0 45 19t19 45t-19 45t-45 19h-256v-128zM168 384h224q26 0 45 19t19 45t-19 45t-45 19h-224v-128z" />
<glyph unicode="C" horiz-adv-x="592" d="M16 320q0 133 93.5 226.5t226.5 93.5q130 0 226 -94q19 -19 19 -45t-19 -45t-45 -19q-27 0 -45 19q-55 56 -136 56q-80 0 -136 -56t-56 -136t56 -136t136 -56t136 56q19 19 45 19q25 0 44.5 -19.5t19.5 -44.5q0 -26 -19 -45q-94 -94 -226 -94q-133 0 -226.5 93.5 t-93.5 226.5z" />
<glyph unicode="D" horiz-adv-x="632" d="M40 64v512q0 26 19 45t45 19h192q133 0 226.5 -93.5t93.5 -226.5t-93.5 -226.5t-226.5 -93.5h-192q-26 0 -45 19t-19 45zM168 128h128q80 0 136 56t56 136t-56 136t-136 56h-128v-384z" />
<glyph unicode="E" d="M40 64v512q0 26 19 45t45 19h384q26 0 45 -19t19 -45t-19 -45t-45 -19h-320v-128h256q26 0 45 -19t19 -45t-19 -45t-45 -19h-256v-128h320q26 0 45 -19t19 -45t-19 -45t-45 -19h-384q-26 0 -45 19t-19 45z" />
<glyph unicode="F" d="M40 64v512q0 26 19 45t45 19h384q26 0 45 -19t19 -45t-19 -45t-45 -19h-320v-128h240q26 0 45 -19t19 -45t-19 -45t-45 -19h-240v-192q0 -26 -19 -45t-45 -19t-45 19t-19 45z" />
<glyph unicode="G" horiz-adv-x="624" d="M16 320q0 133 93.5 226.5t226.5 93.5q130 0 226 -94q19 -19 19 -45t-19 -45t-45 -19q-27 0 -45 19q-55 56 -136 56q-80 0 -136 -56t-56 -136t56 -136t136 -56q66 0 117 39v89h-53q-26 0 -45 19t-19 45t19 45t45 19h117q26 0 45 -19t19 -45v-181q0 -16 -8 -30 q16 -21 16 -45q0 -30 -21 -51t-51 -21q-39 0 -60 32q-59 -24 -121 -24q-133 0 -226.5 93.5t-93.5 226.5z" />
<glyph unicode="H" horiz-adv-x="656" d="M40 64v512q0 26 19 45t45 19t45 -19t19 -45v-192h320v192q0 26 19 45t45 19t45 -19t19 -45v-512q0 -26 -19 -45t-45 -19t-45 19t-19 45v192h-320v-192q0 -26 -19 -45t-45 -19t-45 19t-19 45z" />
<glyph unicode="I" horiz-adv-x="400" d="M8 64q0 26 19 45t45 19h64v384h-64q-26 0 -45 19t-19 45t19 45t45 19h256q26 0 45 -19t19 -45t-19 -45t-45 -19h-64v-384h64q26 0 45 -19t19 -45t-19 -45t-45 -19h-256q-26 0 -45 19t-19 45z" />
<glyph unicode="J" horiz-adv-x="544" d="M8 256q0 26 19 45t45 19t45 -19t19 -45q0 -53 37.5 -90.5t90.5 -37.5t90.5 37.5t37.5 90.5v320q0 26 19 45t45 19t45 -19t19 -45v-320q0 -106 -75 -181t-181 -75t-181 75t-75 181z" />
<glyph unicode="K" horiz-adv-x="696" d="M40 64v512q0 26 19 45t45 19t45 -19t19 -45v-358l403 403q19 19 45 19t45 -19t19 -45t-19 -45l-211 -211l211 -211q19 -18 19 -45q0 -26 -19 -45t-45 -19q-27 0 -45 19l-211 211l-211 -211q-18 -19 -45 -19q-26 0 -45 19t-19 45z" />
<glyph unicode="L" d="M40 64v512q0 26 19 45t45 19t45 -19t19 -45v-448h320q26 0 45 -19t19 -45t-19 -45t-45 -19h-384q-26 0 -45 19t-19 45z" />
<glyph unicode="M" horiz-adv-x="784" d="M40 64v512q0 26 19 45t45 19t45 -19l243 -243l243 243q19 19 45 19t45 -19t19 -45v-512q0 -26 -19 -45t-45 -19t-45 19t-19 45v358l-179 -179q-18 -19 -45 -19t-45 19l-179 179v-358q0 -26 -19 -45t-45 -19t-45 19t-19 45z" />
<glyph unicode="N" horiz-adv-x="720" d="M40 64v512q0 26 19 45t45 19t45 -19l403 -403v358q0 26 19 45t45 19t45 -19t19 -45v-512q0 -26 -19 -45t-45 -19q-27 0 -45 19l-403 403v-358q0 -26 -19 -45t-45 -19t-45 19t-19 45z" />
<glyph unicode="O" horiz-adv-x="672" d="M16 320q0 133 93.5 226.5t226.5 93.5t226.5 -93.5t93.5 -226.5t-93.5 -226.5t-226.5 -93.5t-226.5 93.5t-93.5 226.5zM144 320q0 -80 56 -136t136 -56t136 56t56 136t-56 136t-136 56t-136 -56t-56 -136z" />
<glyph unicode="P" horiz-adv-x="632" d="M40 64v512q0 26 19 45t45 19h288q93 0 158.5 -65.5t65.5 -158.5t-65.5 -158.5t-158.5 -65.5h-224v-128q0 -26 -19 -45t-45 -19t-45 19t-19 45zM168 320h224q40 0 68 28t28 68t-28 68t-68 28h-224v-192z" />
<glyph unicode="Q" horiz-adv-x="688" d="M16 320q0 133 93.5 226.5t226.5 93.5t226.5 -93.5t93.5 -226.5q0 -100 -58 -184q28 -2 47 -23t19 -49q0 -30 -21 -51t-51 -21q-28 0 -49 19t-23 47q-82 -58 -184 -58q-133 0 -226.5 93.5t-93.5 226.5zM144 320q0 -80 56 -136t136 -56t136 56t56 136t-56 136t-136 56 t-136 -56t-56 -136z" />
<glyph unicode="R" horiz-adv-x="640" d="M40 64v512q0 26 19 45t45 19h320q80 0 136 -56t56 -136q0 -73 -48 -127.5t-120 -63.5l149 -148q19 -18 19 -45q0 -26 -19 -45t-45 -19q-27 0 -45 19l-237 237h-102v-192q0 -26 -19 -45t-45 -19t-45 19t-19 45zM168 384h256q26 0 45 19t19 45t-19 45t-45 19h-256v-128z " />
<glyph unicode="S" horiz-adv-x="608" d="M24 64q0 26 19 45t45 19h320q26 0 45 19t19 45t-19 45t-45 19h-192q-80 0 -136 56t-56 136t56 136t136 56h288q26 0 45 -19t19 -45t-19 -45t-45 -19h-288q-26 0 -45 -19t-19 -45t19 -45t45 -19h192q80 0 136 -56t56 -136t-56 -136t-136 -56h-320q-26 0 -45 19t-19 45z " />
<glyph unicode="T" horiz-adv-x="592" d="M8 576q0 26 19 45t45 19h448q26 0 45 -19t19 -45t-19 -45t-45 -19h-160v-448q0 -26 -19 -45t-45 -19t-45 19t-19 45v448h-160q-26 0 -45 19t-19 45z" />
<glyph unicode="U" horiz-adv-x="624" d="M24 288v288q0 26 19 45t45 19t45 -19t19 -45v-288q0 -66 47 -113t113 -47t113 47t47 113v288q0 26 19 45t45 19t45 -19t19 -45v-288q0 -119 -84.5 -203.5t-203.5 -84.5t-203.5 84.5t-84.5 203.5z" />
<glyph unicode="V" horiz-adv-x="624" d="M24 288v288q0 26 19 45t45 19t45 -19t19 -45v-262l160 -160l160 160v262q0 26 19 45t45 19t45 -19t19 -45v-288q0 -26 -19 -45l-224 -224q-19 -19 -45 -19t-45 19l-224 224q-19 19 -19 45z" />
<glyph unicode="W" horiz-adv-x="784" d="M40 64v512q0 26 19 45t45 19t45 -19t19 -45v-358l179 179q18 19 45 19t45 -19l179 -179v358q0 26 19 45t45 19t45 -19t19 -45v-512q0 -26 -19 -45t-45 -19t-45 19l-243 243l-243 -243q-19 -19 -45 -19t-45 19t-19 45z" />
<glyph unicode="X" horiz-adv-x="672" d="M16 64q0 26 19 45l211 211l-211 211q-19 19 -19 45t19 45t45 19t45 -19l211 -211l211 211q19 19 45 19t45 -19t19 -45t-19 -45l-211 -211l211 -211q19 -21 19 -45q0 -26 -19 -45t-45 -19t-45 19l-211 211l-211 -211q-19 -19 -45 -19t-45 19t-19 45z" />
<glyph unicode="Y" horiz-adv-x="656" d="M8 576q0 26 19 45t45 19t45 -19l211 -211l211 211q19 19 45 19t45 -19t19 -45t-19 -45l-237 -237v-230q0 -26 -19 -45t-45 -19t-45 19t-19 45v230l-237 237q-19 19 -19 45z" />
<glyph unicode="Z" horiz-adv-x="672" d="M16 64q0 26 19 45l403 403h-358q-26 0 -45 19t-19 45t19 45t45 19h512q26 0 45 -19t19 -45q0 -27 -19 -45l-403 -403h358q26 0 45 -19t19 -45t-19 -45t-45 -19h-512q-26 0 -45 19t-19 45z" />
<glyph unicode="[" horiz-adv-x="304" d="M40 0v640q0 26 19 45t45 19h128q26 0 45 -19t19 -45t-19 -45t-45 -19h-64v-512h64q26 0 45 -19t19 -45t-19 -45t-45 -19h-128q-26 0 -45 19t-19 45z" />
<glyph unicode="\" horiz-adv-x="624" d="M-8 576q0 26 19 45t45 19t45 -19l512 -512q19 -21 19 -45q0 -26 -19 -45t-45 -19t-45 19l-512 512q-19 19 -19 45z" />
<glyph unicode="]" horiz-adv-x="304" d="M8 0q0 26 19 45t45 19h64v512h-64q-26 0 -45 19t-19 45t19 45t45 19h128q26 0 45 -19t19 -45v-640q0 -26 -19 -45t-45 -19h-128q-26 0 -45 19t-19 45z" />
<glyph unicode="^" horiz-adv-x="496" d="M24 416q0 26 19 45l160 161q16 16 45 18q27 0 45 -18l160 -161q19 -19 19 -45t-19 -45t-45 -19q-27 0 -45 18l-115 115l-115 -115q-18 -18 -45 -18q-26 0 -45 19t-19 45z" />
<glyph unicode="_" d="M24 -128q0 26 19 45t45 19h384q26 0 45 -19t19 -45t-19 -45t-45 -19h-384q-26 0 -45 19t-19 45z" />
<glyph unicode="`" horiz-adv-x="208" d="M24 656q0 20 14 34t34 14t34 -14l64 -64q14 -14 14 -34t-14 -34t-34 -14t-34 14l-64 64q-14 14 -14 34z" />
<glyph unicode="a" d="M16 256q0 106 75 181t181 75t181 -75t75 -181q0 -65 -34 -127q19 -8 30.5 -25.5t11.5 -39.5q0 -30 -21 -51t-51 -21q-46 0 -66 42q-57 -34 -126 -34q-106 0 -181 75t-75 181zM144 256q0 -53 37.5 -90.5t90.5 -37.5t90.5 37.5t37.5 90.5t-37.5 90.5t-90.5 37.5 t-90.5 -37.5t-37.5 -90.5z" />
<glyph unicode="b" horiz-adv-x="568" d="M31 64q0 22 11.5 40t30.5 26q-33 58 -33 126v384q0 26 19 45t45 19t45 -19t19 -45v-163q59 35 128 35q106 0 181 -75t75 -181t-75 -181t-181 -75q-69 0 -128 34q-8 -19 -25.5 -30.5t-39.5 -11.5q-30 0 -51 21t-21 51zM168 256q0 -53 37.5 -90.5t90.5 -37.5t90.5 37.5 t37.5 90.5t-37.5 90.5t-90.5 37.5t-90.5 -37.5t-37.5 -90.5z" />
<glyph unicode="c" horiz-adv-x="488" d="M16 256q0 106 75 181t181 75t181 -75q19 -19 19 -45t-19 -45t-45 -19q-27 0 -45 19q-36 37 -91 37q-53 0 -90.5 -37.5t-37.5 -90.5t37.5 -90.5t90.5 -37.5t91 37q19 19 45 19t45 -19t19 -45t-19 -45q-75 -75 -181 -75t-181 75t-75 181z" />
<glyph unicode="d" horiz-adv-x="568" d="M16 256q0 106 75 181t181 75q68 0 128 -35v163q0 26 19 45t45 19t45 -19t19 -45v-384q0 -65 -34 -127q19 -8 30.5 -25.5t11.5 -39.5q0 -30 -21 -51t-51 -21q-46 0 -66 42q-57 -34 -126 -34q-106 0 -181 75t-75 181zM144 256q0 -53 37.5 -90.5t90.5 -37.5t90.5 37.5 t37.5 90.5t-37.5 90.5t-90.5 37.5t-90.5 -37.5t-37.5 -90.5z" />
<glyph unicode="e" horiz-adv-x="544" d="M16 256q0 106 75 181t181 75t181 -75t75 -181q0 -26 -19 -45t-45 -19h-303q36 -64 111 -64h64q26 0 45 -19t19 -45t-19 -45t-45 -19h-64q-106 0 -181 75t-75 181zM161 320h222q-17 29 -46.5 46.5t-64.5 17.5q-74 0 -111 -64z" />
<glyph unicode="f" horiz-adv-x="416" d="M8 448q0 26 19 45t45 19h48q0 80 56 136t136 56h32q26 0 45 -19t19 -45t-19 -45t-45 -19h-32q-26 0 -45 -19t-19 -45h96q26 0 45 -19t19 -45t-19 -45t-45 -19h-96v-320q0 -26 -19 -45t-45 -19t-45 19t-19 45v320h-48q-26 0 -45 19t-19 45z" />
<glyph unicode="g" horiz-adv-x="568" d="M16 256q0 106 75 181t181 75q66 0 126 -34q20 42 66 42q30 0 51 -21t21 -51q0 -46 -42 -66q34 -60 34 -126v-192q0 -106 -75 -181t-181 -75t-181 75q-19 19 -19 45t19 45t45 19t45 -19q38 -37 91 -37q44 0 78.5 27t45.5 69q-59 -32 -124 -32q-106 0 -181 75t-75 181z M144 256q0 -53 37.5 -90.5t90.5 -37.5t90.5 37.5t37.5 90.5t-37.5 90.5t-90.5 37.5t-90.5 -37.5t-37.5 -90.5z" />
<glyph unicode="h" horiz-adv-x="576" d="M40 64v576q0 26 19 45t45 19t45 -19t19 -45v-163q59 35 128 35q106 0 181 -75t75 -181v-192q0 -26 -19 -45t-45 -19t-45 19t-19 45v192q0 53 -37.5 90.5t-90.5 37.5t-90.5 -37.5t-37.5 -90.5v-192q0 -26 -19 -45t-45 -19t-45 19t-19 45z" />
<glyph unicode="i" horiz-adv-x="208" d="M32 616q0 30 21 51t51 21t51 -21t21 -51t-21 -51t-51 -21t-51 21t-21 51zM40 64v384q0 26 19 45t45 19t45 -19t19 -45v-384q0 -26 -19 -45t-45 -19t-45 19t-19 45z" />
<glyph unicode="j" horiz-adv-x="208" d="M-88 -128q0 26 19 45t45 19t45 19t19 45v448q0 26 19 45t45 19t45 -19t19 -45v-448q0 -80 -56 -136t-136 -56q-26 0 -45 19t-19 45zM32 616q0 30 21 51t51 21t51 -21t21 -51t-21 -51t-51 -21t-51 21t-21 51z" />
<glyph unicode="k" horiz-adv-x="576" d="M40 64v576q0 26 19 45t45 19t45 -19t19 -45v-422l275 275q19 19 45 19t45 -19t19 -45t-19 -45l-147 -147l147 -147q19 -18 19 -45q0 -26 -19 -45t-45 -19q-27 0 -45 19l-147 147l-147 -147q-18 -19 -45 -19q-26 0 -45 19t-19 45z" />
<glyph unicode="l" horiz-adv-x="208" d="M40 64v576q0 26 19 45t45 19t45 -19t19 -45v-576q0 -26 -19 -45t-45 -19t-45 19t-19 45z" />
<glyph unicode="m" horiz-adv-x="832" d="M32 448q0 30 21 51t51 21q38 0 60 -32q48 24 100 24q93 0 160 -67q65 67 160 67q93 0 158.5 -65.5t65.5 -158.5v-224q0 -26 -19 -45t-45 -19t-45 19t-19 45v224q0 40 -28 68t-68 28t-68 -28t-28 -68v-224q0 -26 -19 -45t-45 -19t-45 19t-19 45v224q0 40 -28 68t-68 28 t-68 -28t-28 -68v-224q0 -26 -19 -45t-45 -19t-45 19t-19 45v224q0 54 23 100q-31 21 -31 60z" />
<glyph unicode="n" horiz-adv-x="576" d="M32 448q0 30 21 51t51 21q22 0 39.5 -11.5t25.5 -30.5q62 34 127 34q106 0 181 -75t75 -181v-192q0 -26 -19 -45t-45 -19t-45 19t-19 45v192q0 53 -37.5 90.5t-90.5 37.5t-90.5 -37.5t-37.5 -90.5v-192q0 -26 -19 -45t-45 -19t-45 19t-19 45v192q0 69 34 126 q-42 20 -42 66z" />
<glyph unicode="o" horiz-adv-x="544" d="M16 256q0 106 75 181t181 75t181 -75t75 -181t-75 -181t-181 -75t-181 75t-75 181zM144 256q0 -53 37.5 -90.5t90.5 -37.5t90.5 37.5t37.5 90.5t-37.5 90.5t-90.5 37.5t-90.5 -37.5t-37.5 -90.5z" />
<glyph unicode="p" horiz-adv-x="568" d="M32 448q0 30 21 51t51 21q22 0 39.5 -11.5t25.5 -30.5q62 34 127 34q106 0 181 -75t75 -181t-75 -181t-181 -75q-71 0 -128 34v-162q0 -26 -19 -45t-45 -19t-45 19t-19 45v384q0 69 34 126q-42 20 -42 66zM168 256q0 -53 37.5 -90.5t90.5 -37.5t90.5 37.5t37.5 90.5 t-37.5 90.5t-90.5 37.5t-90.5 -37.5t-37.5 -90.5z" />
<glyph unicode="q" horiz-adv-x="568" d="M16 256q0 106 75 181t181 75q66 0 126 -34q20 42 66 42q30 0 51 -21t21 -51q0 -46 -42 -66q34 -60 34 -126v-384q0 -26 -19 -45t-45 -19t-45 19t-19 45v162q-59 -34 -128 -34q-106 0 -181 75t-75 181zM144 256q0 -53 37.5 -90.5t90.5 -37.5t90.5 37.5t37.5 90.5 t-37.5 90.5t-90.5 37.5t-90.5 -37.5t-37.5 -90.5z" />
<glyph unicode="r" horiz-adv-x="368" d="M32 448q0 30 21 51t51 21q22 0 39.5 -11.5t25.5 -30.5q62 34 127 34q26 0 45 -19t19 -45t-19 -45t-45 -19q-53 0 -90.5 -37.5t-37.5 -90.5v-192q0 -26 -19 -45t-45 -19t-45 19t-19 45v192q0 69 34 126q-42 20 -42 66z" />
<glyph unicode="s" horiz-adv-x="488" d="M24 64q0 26 19 45t45 19h224q14 0 23 9t9 23t-9 23t-23 9h-128q-66 0 -113 47t-47 113t47 113t113 47h192q26 0 45 -19t19 -45t-19 -45t-45 -19h-192q-14 0 -23 -9t-9 -23t9 -23t23 -9h128q66 0 113 -47t47 -113t-47 -113t-113 -47h-224q-26 0 -45 19t-19 45z" />
<glyph unicode="t" horiz-adv-x="416" d="M8 448q0 26 19 45t45 19h48v64q0 26 19 45t45 19t45 -19t19 -45v-64h96q26 0 45 -19t19 -45t-19 -45t-45 -19h-96v-192q0 -26 19 -45t45 -19h32q26 0 45 -19t19 -45t-19 -45t-45 -19h-32q-80 0 -136 56t-56 136v192h-48q-26 0 -45 19t-19 45z" />
<glyph unicode="u" horiz-adv-x="576" d="M24 256v192q0 26 19 45t45 19t45 -19t19 -45v-192q0 -53 37.5 -90.5t90.5 -37.5t90.5 37.5t37.5 90.5v192q0 26 19 45t45 19t45 -19t19 -45v-192q0 -65 -34 -127q19 -8 30.5 -25.5t11.5 -39.5q0 -30 -21 -51t-51 -21q-46 0 -66 42q-57 -34 -126 -34q-106 0 -181 75 t-75 181z" />
<glyph unicode="v" d="M24 256v192q0 26 19 45t45 19t45 -19t19 -45v-166l128 -128l128 128v166q0 26 19 45t45 19t45 -19t19 -45v-192q0 -26 -19 -45l-192 -192q-18 -19 -45 -19t-45 19l-192 192q-19 19 -19 45z" />
<glyph unicode="w" horiz-adv-x="816" d="M24 224v224q0 26 19 45t45 19t45 -19t19 -45v-224q0 -40 28 -68t68 -28t68 28t28 68v224q0 26 19 45t45 19t45 -19t19 -45v-224q0 -40 28 -68t68 -28t68 28t28 68v224q0 26 19 45t45 19t45 -19t19 -45v-224q0 -93 -65.5 -158.5t-158.5 -65.5q-96 0 -160 67 q-65 -67 -160 -67q-93 0 -158.5 65.5t-65.5 158.5z" />
<glyph unicode="x" d="M24 64q0 26 19 45l147 147l-147 147q-19 19 -19 45t19 45t45 19t45 -19l147 -147l147 147q19 19 45 19t45 -19t19 -45t-19 -45l-147 -147l147 -147q19 -21 19 -45q0 -26 -19 -45t-45 -19t-45 19l-147 147l-147 -147q-19 -19 -45 -19t-45 19t-19 45z" />
<glyph unicode="y" horiz-adv-x="576" d="M24 256v192q0 26 19 45t45 19t45 -19t19 -45v-192q0 -53 37.5 -90.5t90.5 -37.5t90.5 37.5t37.5 90.5v192q0 26 19 45t45 19t45 -19t19 -45v-384q0 -106 -75 -181t-181 -75t-181 75q-19 19 -19 45t19 45t45 19t45 -19q38 -37 91 -37q44 0 78.5 27t45.5 69 q-59 -32 -124 -32q-106 0 -181 75t-75 181z" />
<glyph unicode="z" horiz-adv-x="552" d="M24 64q0 27 18 45l270 275h-224q-26 0 -45 19t-19 45t19 45t45 19h376q26 0 45 -19t19 -45q0 -27 -18 -45l-270 -275h224q26 0 45 -19t19 -45t-19 -45t-45 -19h-376q-26 0 -45 19t-19 45z" />
<glyph unicode="{" horiz-adv-x="368" d="M8 320q0 30 21 51t51 21q8 0 24 -4v124q0 80 56 136t136 56q26 0 45 -19t19 -45t-19 -45t-45 -19t-45 -19t-19 -45v-384q0 -26 19 -45t45 -19t45 -19t19 -45t-19 -45t-45 -19q-80 0 -136 56t-56 136v124q-11 -4 -24 -4q-30 0 -51 21t-21 51z" />
<glyph unicode="|" horiz-adv-x="208" d="M40 -64v704q0 26 19 45t45 19t45 -19t19 -45v-704q0 -26 -19 -45t-45 -19t-45 19t-19 45z" />
<glyph unicode="}" horiz-adv-x="368" d="M8 0q0 26 19 45t45 19t45 19t19 45v384q0 26 -19 45t-45 19t-45 19t-19 45t19 45t45 19q80 0 136 -56t56 -136v-124q14 4 24 4q30 0 51 -21t21 -51t-21 -51t-51 -21q-15 0 -24 4v-124q0 -80 -56 -136t-136 -56q-26 0 -45 19t-19 45z" />
<glyph unicode="~" d="M24 256v64q0 66 47 113t113 47t113 -47t47 -113q0 -14 9 -23t23 -9t23 9t9 23v64q0 26 19 45t45 19t45 -19t19 -45v-64q0 -66 -47 -113t-113 -47t-113 47t-47 113q0 14 -9 23t-23 9t-23 -9t-9 -23v-64q0 -26 -19 -45t-45 -19t-45 19t-19 45z" />
<glyph unicode="&#xa1;" horiz-adv-x="208" d="M32 568q0 30 21 51t51 21t51 -21t21 -51t-21 -51t-51 -21t-51 21t-21 51zM40 0v384q0 26 19 45t45 19t45 -19t19 -45v-384q0 -26 -19 -45t-45 -19t-45 19t-19 45z" />
<glyph unicode="&#xa2;" horiz-adv-x="488" d="M16 320q0 92 59.5 163t148.5 88v21q0 20 14 34t34 14t34 -14t14 -34v-21q76 -14 133 -70q19 -19 19 -45t-19 -45t-45 -19q-27 0 -45 19q-18 18 -43 28v-238q25 10 43 28q19 19 45 19t45 -19t19 -45t-19 -45q-55 -55 -133 -71v-20q0 -20 -14 -34t-34 -14t-34 14t-14 34v20 q-89 17 -148.5 88t-59.5 164zM144 320q0 -40 22 -72.5t58 -46.5v238q-36 -14 -58 -46.5t-22 -72.5z" />
<glyph unicode="&#xa3;" d="M24 64q0 26 19 45t45 19v256q0 106 75 181t181 75t181 -75q19 -19 19 -45t-19 -45t-45 -19q-27 0 -45 19q-38 37 -91 37t-90.5 -37.5t-37.5 -90.5h128q26 0 45 -19t19 -45t-19 -45t-45 -19h-128v-128h256q26 0 45 -19t19 -45t-19 -45t-45 -19h-384q-26 0 -45 19t-19 45z " />
<glyph unicode="&#xa4;" d="M24 128q0 27 19 45l64 64q-19 40 -19 83t19 83l-64 64q-19 19 -19 45t19 45t45 19t45 -19l64 -64q40 19 83 19t83 -19l64 64q19 19 45 19t45 -19t19 -45t-19 -45l-64 -64q19 -40 19 -83t-19 -83l64 -64q19 -18 19 -45q0 -26 -19 -45t-45 -19q-27 0 -45 19l-64 64 q-40 -19 -83 -19t-83 19l-64 -64q-18 -19 -45 -19q-26 0 -45 19t-19 45zM216 320q0 -26 19 -45t45 -19t45 19t19 45t-19 45t-45 19t-45 -19t-19 -45z" />
<glyph unicode="&#xa5;" horiz-adv-x="656" d="M8 576q0 26 19 45t45 19t45 -19l211 -211l211 211q19 19 45 19t45 -19t19 -45t-19 -45l-211 -211h86q20 0 34 -14t14 -34t-14 -34t-34 -14h-112v-48h112q20 0 34 -14t14 -34t-14 -34t-34 -14h-112v-16q0 -26 -19 -45t-45 -19t-45 19t-19 45v16h-112q-20 0 -34 14t-14 34 t14 34t34 14h112v48h-112q-20 0 -34 14t-14 34t14 34t34 14h86l-211 211q-19 19 -19 45z" />
<glyph unicode="&#xa6;" horiz-adv-x="208" d="M40 -64v256q0 26 19 45t45 19t45 -19t19 -45v-256q0 -26 -19 -45t-45 -19t-45 19t-19 45zM40 384v256q0 26 19 45t45 19t45 -19t19 -45v-256q0 -26 -19 -45t-45 -19t-45 19t-19 45z" />
<glyph unicode="&#xa7;" horiz-adv-x="480" d="M16 320q0 69 51 117q-19 35 -19 75q0 66 47 113t113 47h128q26 0 45 -19t19 -45t-19 -45t-45 -19h-128q-14 0 -23 -9t-9 -23t9 -23t23 -9h96q66 0 113 -47t47 -113q0 -69 -51 -117q19 -36 19 -75q0 -66 -47 -113t-113 -47h-128q-26 0 -45 19t-19 45t19 45t45 19h128 q14 0 23 9t9 23t-9 23t-23 9h-96q-66 0 -113 47t-47 113zM144 320q0 -14 9 -23t23 -9h128q14 0 23 9t9 23t-9 23t-23 9h-128q-14 0 -23 -9t-9 -23z" />
<glyph unicode="&#xa8;" horiz-adv-x="304" d="M8 608q0 26 19 45t45 19t45 -19t19 -45t-19 -45t-45 -19t-45 19t-19 45zM168 608q0 26 19 45t45 19t45 -19t19 -45t-19 -45t-45 -19t-45 19t-19 45z" />
<glyph unicode="&#xa9;" horiz-adv-x="672" d="M16 320q0 133 93.5 226.5t226.5 93.5t226.5 -93.5t93.5 -226.5t-93.5 -226.5t-226.5 -93.5t-226.5 93.5t-93.5 226.5zM112 320q0 -93 65.5 -158.5t158.5 -65.5t158.5 65.5t65.5 158.5t-65.5 158.5t-158.5 65.5t-158.5 -65.5t-65.5 -158.5zM176 320q0 66 47 113t113 47 q68 0 113 -47q14 -14 14 -34t-14 -34t-34 -14t-34 14q-21 19 -45 19q-26 0 -45 -19t-19 -45t19 -45t45 -19q24 0 45 19q14 14 34 14t34 -14t14 -34t-14 -34q-45 -47 -113 -47q-66 0 -113 47t-47 113z" />
<glyph unicode="&#xaa;" horiz-adv-x="432" d="M24 448q0 80 56 136t136 56t136 -56t56 -136q0 -47 -23 -91q17 -5 28 -20t11 -33q0 -23 -16.5 -39.5t-39.5 -16.5q-39 0 -53 36q-45 -28 -99 -28q-80 0 -136 56t-56 136zM120 448q0 -40 28 -68t68 -28t68 28t28 68t-28 68t-68 28t-68 -28t-28 -68z" />
<glyph unicode="&#xab;" horiz-adv-x="592" d="M24 256q0 27 18 45l161 160q19 19 45 19t45 -19t19 -45q0 -27 -18 -45l-115 -115l115 -115q16 -18 18 -45q0 -26 -19 -45t-45 -19t-45 19l-161 160q-18 16 -18 45zM280 256q0 27 18 45l161 160q19 19 45 19t45 -19t19 -45q0 -27 -18 -45l-115 -115l115 -115 q16 -18 18 -45q0 -26 -19 -45t-45 -19t-45 19l-161 160q-18 16 -18 45z" />
<glyph unicode="&#xac;" d="M24 320q0 26 19 45t45 19h384q26 0 45 -19t19 -45v-128q0 -26 -19 -45t-45 -19t-45 19t-19 45v64h-320q-26 0 -45 19t-19 45z" />
<glyph unicode="&#xad;" horiz-adv-x="368" d="M24 320q0 26 19 45t45 19h192q26 0 45 -19t19 -45t-19 -45t-45 -19h-192q-26 0 -45 19t-19 45z" />
<glyph unicode="&#xae;" d="M24 384q0 106 75 181t181 75t181 -75t75 -181t-75 -181t-181 -75t-181 75t-75 181zM120 384q0 -66 47 -113t113 -47t113 47t47 113t-47 113t-113 47t-113 -47t-47 -113zM200 320v64q0 40 28 68t68 28h48q20 0 34 -14t14 -34t-14 -34t-34 -14h-48v-64q0 -20 -14 -34 t-34 -14t-34 14t-14 34z" />
<glyph unicode="&#xaf;" horiz-adv-x="368" d="M24 608q0 20 14 34t34 14h224q20 0 34 -14t14 -34t-14 -34t-34 -14h-224q-20 0 -34 14t-14 34z" />
<glyph unicode="&#xb0;" horiz-adv-x="336" d="M24 496q0 59 42.5 101.5t101.5 42.5t101.5 -42.5t42.5 -101.5t-42.5 -101.5t-101.5 -42.5t-101.5 42.5t-42.5 101.5zM120 496q0 -20 14 -34t34 -14t34 14t14 34t-14 34t-34 14t-34 -14t-14 -34z" />
<glyph unicode="&#xb1;" d="M24 64q0 26 19 45t45 19h384q26 0 45 -19t19 -45t-19 -45t-45 -19h-384q-26 0 -45 19t-19 45zM24 400q0 26 19 45t45 19h128v112q0 26 19 45t45 19t45 -19t19 -45v-112h128q26 0 45 -19t19 -45t-19 -45t-45 -19h-128v-112q0 -26 -19 -45t-45 -19t-45 19t-19 45v112h-128 q-26 0 -45 19t-19 45z" />
<glyph unicode="&#xb2;" horiz-adv-x="432" d="M24 304v48q0 59 42.5 101.5t101.5 42.5h120q10 0 17 7t7 17t-7 17t-17 7h-216q-20 0 -34 14t-14 34t14 34t34 14h216q50 0 85 -35t35 -85t-35 -85t-85 -35h-120q-20 0 -34 -14t-14 -34h240q20 0 34 -14t14 -34t-14 -34t-34 -14h-288q-20 0 -34 14t-14 34z" />
<glyph unicode="&#xb3;" horiz-adv-x="432" d="M24 304q0 20 14 34t34 14h216q10 0 17 7t7 17t-7 17t-17 7h-152q-20 0 -34 14t-14 34t14 34t34 14h152q10 0 17 7t7 17t-7 17t-17 7h-216q-20 0 -34 14t-14 34t14 34t34 14h216q50 0 85 -35t35 -85q0 -40 -24 -72q24 -32 24 -72q0 -50 -35 -85t-85 -35h-216q-20 0 -34 14 t-14 34z" />
<glyph unicode="&#xb4;" horiz-adv-x="208" d="M24 592q0 20 14 34l64 64q14 14 34 14t34 -14t14 -34t-14 -34l-64 -64q-14 -14 -34 -14t-34 14t-14 34z" />
<glyph unicode="&#xb5;" horiz-adv-x="592" d="M40 -128v576q0 26 19 45t45 19t45 -19t19 -45v-192q0 -53 37.5 -90.5t90.5 -37.5t90.5 37.5t37.5 90.5v192q0 26 19 45t45 19t45 -19t19 -45v-384q0 -26 -19 -45t-45 -19q-42 0 -59 38q-62 -38 -133 -38t-128 34v-162q0 -26 -19 -45t-45 -19t-45 19t-19 45z" />
<glyph unicode="&#xb6;" horiz-adv-x="528" d="M24 416q0 93 65.5 158.5t158.5 65.5h208q26 0 45 -19t19 -45t-19 -45t-45 -19h-48v-512q0 -80 -56 -136t-136 -56q-26 0 -45 19t-19 45t19 45t45 19t45 19t19 45v192h-32q-93 0 -158.5 65.5t-65.5 158.5z" />
<glyph unicode="&#xb7;" horiz-adv-x="176" d="M16 320q0 30 21 51t51 21t51 -21t21 -51t-21 -51t-51 -21t-51 21t-21 51z" />
<glyph unicode="&#xb8;" horiz-adv-x="304" d="M20 -116q0 20 14 34t34 14t34 -14t34 -14t34 14t14 34t-14 34t-34 14t-34 14t-14 34t14 34t34 14q59 0 101.5 -42.5t42.5 -101.5t-42.5 -101.5t-101.5 -42.5q-60 0 -102 42q-14 14 -14 34z" />
<glyph unicode="&#xb9;" horiz-adv-x="320" d="M24 304q0 20 14 34t34 14h48v122l-13 -13q-14 -13 -35 -13q-20 0 -34 14t-14 34t14 34l97 97q13 13 33 13t34 -14t14 -34v-240h48q20 0 34 -14t14 -34t-14 -34t-34 -14h-192q-20 0 -34 14t-14 34z" />
<glyph unicode="&#xba;" horiz-adv-x="432" d="M24 448q0 80 56 136t136 56t136 -56t56 -136t-56 -136t-136 -56t-136 56t-56 136zM120 448q0 -40 28 -68t68 -28t68 28t28 68t-28 68t-68 28t-68 -28t-28 -68z" />
<glyph unicode="&#xbb;" horiz-adv-x="592" d="M24 96q0 27 18 45l115 115l-115 115q-18 17 -18 45q0 26 19 45t45 19t45 -19l161 -160q16 -15 18 -45q0 -27 -18 -45l-161 -160q-19 -19 -45 -19t-45 19t-19 45zM280 96q0 27 18 45l115 115l-115 115q-18 17 -18 45q0 26 19 45t45 19t45 -19l161 -160q18 -17 18 -45 q0 -27 -18 -45l-161 -160q-19 -19 -45 -19t-45 19t-19 45z" />
<glyph unicode="&#xbc;" horiz-adv-x="976" d="M24 304q0 20 14 34t34 14h48v122l-13 -13q-14 -13 -35 -13q-20 0 -34 14t-14 34t14 34l97 97q13 13 33 13t34 -14t14 -34v-240h48q20 0 34 -14t14 -34t-14 -34t-34 -14h-192q-20 0 -34 14t-14 34zM152 48q0 20 14 34l544 544q14 14 34 14t34 -14t14 -34t-14 -34 l-544 -544q-14 -14 -34 -14t-34 14t-14 34zM632 192v144q0 20 14 34t34 14t34 -14t14 -34v-96h128v96q0 20 14 34t34 14t34 -14t14 -34v-288q0 -20 -14 -34t-34 -14t-34 14t-14 34v96h-176q-20 0 -34 14t-14 34z" />
<glyph unicode="&#xbd;" horiz-adv-x="976" d="M24 304q0 20 14 34t34 14h48v122l-13 -13q-14 -13 -35 -13q-20 0 -34 14t-14 34t14 34l97 97q13 13 33 13t34 -14t14 -34v-240h48q20 0 34 -14t14 -34t-14 -34t-34 -14h-192q-20 0 -34 14t-14 34zM152 48q0 20 14 34l544 544q14 14 34 14t34 -14t14 -34t-14 -34 l-544 -544q-14 -14 -34 -14t-34 14t-14 34zM632 48v48q0 59 42.5 101.5t101.5 42.5h56q10 0 17 7t7 17t-7 17t-17 7h-152q-20 0 -34 14t-14 34t14 34t34 14h152q50 0 85 -35t35 -85t-35 -85t-85 -35h-56q-20 0 -34 -14t-14 -34h176q20 0 34 -14t14 -34t-14 -34t-34 -14h-224 q-20 0 -34 14t-14 34z" />
<glyph unicode="&#xbe;" horiz-adv-x="976" d="M24 304q0 20 14 34t34 14h152q10 0 17 7t7 17t-7 17t-17 7h-88q-20 0 -34 14t-14 34t14 34t34 14h88q10 0 17 7t7 17t-7 17t-17 7h-152q-20 0 -34 14t-14 34t14 34t34 14h152q50 0 85 -35t35 -85q0 -40 -24 -72q24 -32 24 -72q0 -50 -35 -85t-85 -35h-152q-20 0 -34 14 t-14 34zM152 48q0 20 14 34l544 544q14 14 34 14t34 -14t14 -34t-14 -34l-544 -544q-14 -14 -34 -14t-34 14t-14 34zM632 192v144q0 20 14 34t34 14t34 -14t14 -34v-96h128v96q0 20 14 34t34 14t34 -14t14 -34v-288q0 -20 -14 -34t-34 -14t-34 14t-14 34v96h-176 q-20 0 -34 14t-14 34z" />
<glyph unicode="&#xbf;" horiz-adv-x="552" d="M24 192q0 106 75 181t181 75q26 0 45 -19t19 -45t-19 -45t-45 -19q-53 0 -90.5 -37.5t-37.5 -90.5t37.5 -90.5t90.5 -37.5t90.5 37.5t37.5 90.5q0 26 19 45t45 19t45 -19t19 -45q0 -106 -75 -181t-181 -75t-181 75t-75 181zM208 568q0 30 21 51t51 21t51 -21t21 -51 t-21 -51t-51 -21t-51 21t-21 51z" />
<glyph unicode="&#xc0;" horiz-adv-x="656" d="M40 64v288q0 119 84.5 203.5t203.5 84.5t203.5 -84.5t84.5 -203.5v-288q0 -26 -19 -45t-45 -19t-45 19t-19 45v128h-320v-128q0 -26 -19 -45t-45 -19t-45 19t-19 45zM168 320h320v32q0 66 -47 113t-113 47t-113 -47t-47 -113v-32zM232 784q0 20 14 34t34 14t34 -14 l64 -64q14 -14 14 -34t-14 -34t-34 -14t-34 14l-64 64q-14 14 -14 34z" />
<glyph unicode="&#xc1;" horiz-adv-x="656" d="M40 64v288q0 119 84.5 203.5t203.5 84.5t203.5 -84.5t84.5 -203.5v-288q0 -26 -19 -45t-45 -19t-45 19t-19 45v128h-320v-128q0 -26 -19 -45t-45 -19t-45 19t-19 45zM168 320h320v32q0 66 -47 113t-113 47t-113 -47t-47 -113v-32zM264 720q0 20 14 34l64 64q14 14 34 14 t34 -14t14 -34t-14 -34l-64 -64q-14 -14 -34 -14t-34 14t-14 34z" />
<glyph unicode="&#xc2;" horiz-adv-x="656" d="M40 64v288q0 119 84.5 203.5t203.5 84.5t203.5 -84.5t84.5 -203.5v-288q0 -26 -19 -45t-45 -19t-45 19t-19 45v128h-320v-128q0 -26 -19 -45t-45 -19t-45 19t-19 45zM168 320h320v32q0 66 -47 113t-113 47t-113 -47t-47 -113v-32zM216 720q0 20 14 34l64 64q14 14 34 14 t34 -14l64 -64q14 -14 14 -34t-14 -34t-34 -14t-34 14l-30 30l-30 -30q-14 -14 -34 -14t-34 14t-14 34z" />
<glyph unicode="&#xc3;" horiz-adv-x="656" d="M40 64v288q0 119 84.5 203.5t203.5 84.5t203.5 -84.5t84.5 -203.5v-288q0 -26 -19 -45t-45 -19t-45 19t-19 45v128h-320v-128q0 -26 -19 -45t-45 -19t-45 19t-19 45zM168 320h320v32q0 66 -47 113t-113 47t-113 -47t-47 -113v-32zM168 720q0 20 14 34q46 46 104 46 q19 0 47 -16t37 -16q18 0 36 18q14 14 34 14t34 -14t14 -34t-14 -34q-46 -46 -104 -46q-19 0 -47 16t-37 16q-18 0 -36 -18q-14 -14 -34 -14t-34 14t-14 34z" />
<glyph unicode="&#xc4;" horiz-adv-x="656" d="M40 64v288q0 119 84.5 203.5t203.5 84.5t203.5 -84.5t84.5 -203.5v-288q0 -26 -19 -45t-45 -19t-45 19t-19 45v128h-320v-128q0 -26 -19 -45t-45 -19t-45 19t-19 45zM168 320h320v32q0 66 -47 113t-113 47t-113 -47t-47 -113v-32zM184 736q0 26 19 45t45 19t45 -19 t19 -45t-19 -45t-45 -19t-45 19t-19 45zM344 736q0 26 19 45t45 19t45 -19t19 -45t-19 -45t-45 -19t-45 19t-19 45z" />
<glyph unicode="&#xc5;" horiz-adv-x="656" d="M40 64v288q0 87 47 158t124 105q-23 34 -23 77q0 58 41 99t99 41t99 -41t41 -99q0 -41 -23 -77q77 -34 124 -105t47 -158v-288q0 -26 -19 -45t-45 -19t-45 19t-19 45v128h-320v-128q0 -26 -19 -45t-45 -19t-45 19t-19 45zM168 320h320v32q0 66 -47 113t-113 47t-113 -47 t-47 -113v-32zM276 692q0 -22 15 -37t37 -15t37 15t15 37t-15 37t-37 15t-37 -15t-15 -37z" />
<glyph unicode="&#xc6;" horiz-adv-x="880" d="M40 64v288q0 119 84.5 203.5t203.5 84.5h480q26 0 45 -19t19 -45t-19 -45t-45 -19h-272v-128h208q26 0 45 -19t19 -45t-19 -45t-45 -19h-208v-128h272q26 0 45 -19t19 -45t-19 -45t-45 -19h-336q-26 0 -45 19t-19 45v128h-240v-128q0 -26 -19 -45t-45 -19t-45 19t-19 45z M168 320h240v192h-80q-66 0 -113 -47t-47 -113v-32z" />
<glyph unicode="&#xc7;" horiz-adv-x="592" d="M16 320q0 133 93.5 226.5t226.5 93.5q130 0 226 -94q19 -19 19 -45t-19 -45t-45 -19q-27 0 -45 19q-58 56 -136 56q-80 0 -136 -56t-56 -136t56 -136t136 -56t136 56q19 19 45 19q25 0 44.5 -19.5t19.5 -44.5q0 -26 -19 -45q-46 -46 -102 -69q20 -34 20 -73 q0 -59 -42.5 -101.5t-101.5 -42.5q-60 0 -102 42q-14 14 -14 34t14 34t34 14t34 -14t34 -14t34 14t14 34t-14 34t-34 14q-133 0 -226.5 93.5t-93.5 226.5z" />
<glyph unicode="&#xc8;" d="M40 64v512q0 26 19 45t45 19h384q26 0 45 -19t19 -45t-19 -45t-45 -19h-320v-128h256q26 0 45 -19t19 -45t-19 -45t-45 -19h-256v-128h320q26 0 45 -19t19 -45t-19 -45t-45 -19h-384q-26 0 -45 19t-19 45zM216 784q0 20 14 34t34 14t34 -14l64 -64q14 -14 14 -34t-14 -34 t-34 -14t-34 14l-64 64q-14 14 -14 34z" />
<glyph unicode="&#xc9;" d="M40 64v512q0 26 19 45t45 19h384q26 0 45 -19t19 -45t-19 -45t-45 -19h-320v-128h256q26 0 45 -19t19 -45t-19 -45t-45 -19h-256v-128h320q26 0 45 -19t19 -45t-19 -45t-45 -19h-384q-26 0 -45 19t-19 45zM216 720q0 20 14 34l64 64q14 14 34 14t34 -14t14 -34t-14 -34 l-64 -64q-14 -14 -34 -14t-34 14t-14 34z" />
<glyph unicode="&#xca;" d="M40 64v512q0 26 19 45t45 19h384q26 0 45 -19t19 -45t-19 -45t-45 -19h-320v-128h256q26 0 45 -19t19 -45t-19 -45t-45 -19h-256v-128h320q26 0 45 -19t19 -45t-19 -45t-45 -19h-384q-26 0 -45 19t-19 45zM184 720q0 20 14 34l64 64q14 14 34 14t34 -14l64 -64 q14 -14 14 -34t-14 -34t-34 -14t-34 14l-30 30l-30 -30q-14 -14 -34 -14t-34 14t-14 34z" />
<glyph unicode="&#xcb;" d="M40 64v512q0 26 19 45t45 19h384q26 0 45 -19t19 -45t-19 -45t-45 -19h-320v-128h256q26 0 45 -19t19 -45t-19 -45t-45 -19h-256v-128h320q26 0 45 -19t19 -45t-19 -45t-45 -19h-384q-26 0 -45 19t-19 45zM152 736q0 26 19 45t45 19t45 -19t19 -45t-19 -45t-45 -19 t-45 19t-19 45zM312 736q0 26 19 45t45 19t45 -19t19 -45t-19 -45t-45 -19t-45 19t-19 45z" />
<glyph unicode="&#xcc;" horiz-adv-x="400" d="M8 64q0 26 19 45t45 19h64v384h-64q-26 0 -45 19t-19 45t19 45t45 19h256q26 0 45 -19t19 -45t-19 -45t-45 -19h-64v-384h64q26 0 45 -19t19 -45t-19 -45t-45 -19h-256q-26 0 -45 19t-19 45zM104 784q0 20 14 34t34 14t34 -14l64 -64q14 -14 14 -34t-14 -34t-34 -14 t-34 14l-64 64q-14 14 -14 34z" />
<glyph unicode="&#xcd;" horiz-adv-x="400" d="M8 64q0 26 19 45t45 19h64v384h-64q-26 0 -45 19t-19 45t19 45t45 19h256q26 0 45 -19t19 -45t-19 -45t-45 -19h-64v-384h64q26 0 45 -19t19 -45t-19 -45t-45 -19h-256q-26 0 -45 19t-19 45zM136 720q0 20 14 34l64 64q14 14 34 14t34 -14t14 -34t-14 -34l-64 -64 q-14 -14 -34 -14t-34 14t-14 34z" />
<glyph unicode="&#xce;" horiz-adv-x="400" d="M8 64q0 26 19 45t45 19h64v384h-64q-26 0 -45 19t-19 45t19 45t45 19h256q26 0 45 -19t19 -45t-19 -45t-45 -19h-64v-384h64q26 0 45 -19t19 -45t-19 -45t-45 -19h-256q-26 0 -45 19t-19 45zM88 720q0 20 14 34l64 64q14 14 34 14t34 -14l64 -64q14 -14 14 -34t-14 -34 t-34 -14t-34 14l-30 30l-30 -30q-14 -14 -34 -14t-34 14t-14 34z" />
<glyph unicode="&#xcf;" horiz-adv-x="400" d="M8 64q0 26 19 45t45 19h64v384h-64q-26 0 -45 19t-19 45t19 45t45 19h256q26 0 45 -19t19 -45t-19 -45t-45 -19h-64v-384h64q26 0 45 -19t19 -45t-19 -45t-45 -19h-256q-26 0 -45 19t-19 45zM56 736q0 26 19 45t45 19t45 -19t19 -45t-19 -45t-45 -19t-45 19t-19 45z M216 736q0 26 19 45t45 19t45 -19t19 -45t-19 -45t-45 -19t-45 19t-19 45z" />
<glyph unicode="&#xd0;" horiz-adv-x="680" d="M8 320q0 26 19 45t45 19h16v192q0 26 19 45t45 19h192q133 0 226.5 -93.5t93.5 -226.5t-93.5 -226.5t-226.5 -93.5h-192q-26 0 -45 19t-19 45v192h-16q-26 0 -45 19t-19 45zM216 128h128q80 0 136 56t56 136t-56 136t-136 56h-128v-128h48q26 0 45 -19t19 -45t-19 -45 t-45 -19h-48v-128z" />
<glyph unicode="&#xd1;" horiz-adv-x="720" d="M40 64v512q0 26 19 45t45 19t45 -19l403 -403v358q0 26 19 45t45 19t45 -19t19 -45v-512q0 -26 -19 -45t-45 -19q-27 0 -45 19l-403 403v-358q0 -26 -19 -45t-45 -19t-45 19t-19 45zM200 720q0 20 14 34q46 46 104 46q19 0 47 -16t37 -16q18 0 36 18q14 14 34 14t34 -14 t14 -34t-14 -34q-46 -46 -104 -46q-19 0 -47 16t-37 16q-18 0 -36 -18q-14 -14 -34 -14t-34 14t-14 34z" />
<glyph unicode="&#xd2;" horiz-adv-x="672" d="M16 320q0 133 93.5 226.5t226.5 93.5t226.5 -93.5t93.5 -226.5t-93.5 -226.5t-226.5 -93.5t-226.5 93.5t-93.5 226.5zM144 320q0 -80 56 -136t136 -56t136 56t56 136t-56 136t-136 56t-136 -56t-56 -136zM240 784q0 20 14 34t34 14t34 -14l64 -64q14 -14 14 -34t-14 -34 t-34 -14t-34 14l-64 64q-14 14 -14 34z" />
<glyph unicode="&#xd3;" horiz-adv-x="672" d="M16 320q0 133 93.5 226.5t226.5 93.5t226.5 -93.5t93.5 -226.5t-93.5 -226.5t-226.5 -93.5t-226.5 93.5t-93.5 226.5zM144 320q0 -80 56 -136t136 -56t136 56t56 136t-56 136t-136 56t-136 -56t-56 -136zM272 720q0 20 14 34l64 64q14 14 34 14t34 -14t14 -34t-14 -34 l-64 -64q-14 -14 -34 -14t-34 14t-14 34z" />
<glyph unicode="&#xd4;" horiz-adv-x="672" d="M16 320q0 133 93.5 226.5t226.5 93.5t226.5 -93.5t93.5 -226.5t-93.5 -226.5t-226.5 -93.5t-226.5 93.5t-93.5 226.5zM144 320q0 -80 56 -136t136 -56t136 56t56 136t-56 136t-136 56t-136 -56t-56 -136zM224 720q0 20 14 34l64 64q14 14 34 14t34 -14l64 -64 q14 -14 14 -34t-14 -34t-34 -14t-34 14l-30 30l-30 -30q-14 -14 -34 -14t-34 14t-14 34z" />
<glyph unicode="&#xd5;" horiz-adv-x="672" d="M16 320q0 133 93.5 226.5t226.5 93.5t226.5 -93.5t93.5 -226.5t-93.5 -226.5t-226.5 -93.5t-226.5 93.5t-93.5 226.5zM144 320q0 -80 56 -136t136 -56t136 56t56 136t-56 136t-136 56t-136 -56t-56 -136zM176 720q0 20 14 34q46 46 104 46q19 0 47 -16t37 -16q18 0 36 18 q14 14 34 14t34 -14t14 -34t-14 -34q-46 -46 -104 -46q-19 0 -47 16t-37 16q-18 0 -36 -18q-14 -14 -34 -14t-34 14t-14 34z" />
<glyph unicode="&#xd6;" horiz-adv-x="672" d="M16 320q0 133 93.5 226.5t226.5 93.5t226.5 -93.5t93.5 -226.5t-93.5 -226.5t-226.5 -93.5t-226.5 93.5t-93.5 226.5zM144 320q0 -80 56 -136t136 -56t136 56t56 136t-56 136t-136 56t-136 -56t-56 -136zM192 736q0 26 19 45t45 19t45 -19t19 -45t-19 -45t-45 -19t-45 19 t-19 45zM352 736q0 26 19 45t45 19t45 -19t19 -45t-19 -45t-45 -19t-45 19t-19 45z" />
<glyph unicode="&#xd7;" d="M24 128q0 26 19 45l147 147l-147 147q-19 19 -19 45t19 45t45 19t45 -19l147 -147l147 147q19 19 45 19t45 -19t19 -45t-19 -45l-147 -147l147 -147q19 -21 19 -45q0 -26 -19 -45t-45 -19t-45 19l-147 147l-147 -147q-19 -19 -45 -19t-45 19t-19 45z" />
<glyph unicode="&#xd8;" horiz-adv-x="688" d="M24 56q0 24 16 40l41 41q-57 82 -57 183q0 133 93.5 226.5t226.5 93.5q101 0 183 -57l41 41q16 16 40 16q23 0 39.5 -16.5t16.5 -39.5q0 -24 -16 -40l-41 -41q57 -82 57 -183q0 -133 -93.5 -226.5t-226.5 -93.5q-101 0 -183 57l-41 -41q-16 -16 -40 -16q-23 0 -39.5 16.5 t-16.5 39.5zM152 320q0 -50 21 -91l260 260q-40 23 -89 23q-80 0 -136 -56t-56 -136zM253 149q41 -21 91 -21q80 0 136 56t56 136q0 49 -23 89z" />
<glyph unicode="&#xd9;" horiz-adv-x="624" d="M24 288v288q0 26 19 45t45 19t45 -19t19 -45v-288q0 -66 47 -113t113 -47t113 47t47 113v288q0 26 19 45t45 19t45 -19t19 -45v-288q0 -119 -84.5 -203.5t-203.5 -84.5t-203.5 84.5t-84.5 203.5zM216 784q0 20 14 34t34 14t34 -14l64 -64q14 -14 14 -34t-14 -34t-34 -14 t-34 14l-64 64q-14 14 -14 34z" />
<glyph unicode="&#xda;" horiz-adv-x="624" d="M24 288v288q0 26 19 45t45 19t45 -19t19 -45v-288q0 -66 47 -113t113 -47t113 47t47 113v288q0 26 19 45t45 19t45 -19t19 -45v-288q0 -119 -84.5 -203.5t-203.5 -84.5t-203.5 84.5t-84.5 203.5zM248 720q0 20 14 34l64 64q14 14 34 14t34 -14t14 -34t-14 -34l-64 -64 q-14 -14 -34 -14t-34 14t-14 34z" />
<glyph unicode="&#xdb;" horiz-adv-x="624" d="M24 288v288q0 26 19 45t45 19t45 -19t19 -45v-288q0 -66 47 -113t113 -47t113 47t47 113v288q0 26 19 45t45 19t45 -19t19 -45v-288q0 -119 -84.5 -203.5t-203.5 -84.5t-203.5 84.5t-84.5 203.5zM200 720q0 20 14 34l64 64q14 14 34 14t34 -14l64 -64q14 -14 14 -34 t-14 -34t-34 -14t-34 14l-30 30l-30 -30q-14 -14 -34 -14t-34 14t-14 34z" />
<glyph unicode="&#xdc;" horiz-adv-x="624" d="M24 288v288q0 26 19 45t45 19t45 -19t19 -45v-288q0 -66 47 -113t113 -47t113 47t47 113v288q0 26 19 45t45 19t45 -19t19 -45v-288q0 -119 -84.5 -203.5t-203.5 -84.5t-203.5 84.5t-84.5 203.5zM168 736q0 26 19 45t45 19t45 -19t19 -45t-19 -45t-45 -19t-45 19t-19 45z M328 736q0 26 19 45t45 19t45 -19t19 -45t-19 -45t-45 -19t-45 19t-19 45z" />
<glyph unicode="&#xdd;" horiz-adv-x="656" d="M8 576q0 26 19 45t45 19t45 -19l211 -211l211 211q19 19 45 19t45 -19t19 -45t-19 -45l-237 -237v-230q0 -26 -19 -45t-45 -19t-45 19t-19 45v230l-237 237q-19 19 -19 45zM264 720q0 20 14 34l64 64q14 14 34 14t34 -14t14 -34t-14 -34l-64 -64q-14 -14 -34 -14t-34 14 t-14 34z" />
<glyph unicode="&#xde;" horiz-adv-x="552" d="M40 64v512q0 26 19 45t45 19t45 -19t19 -45v-32h144q93 0 158.5 -65.5t65.5 -158.5t-65.5 -158.5t-158.5 -65.5h-144v-32q0 -26 -19 -45t-45 -19t-45 19t-19 45zM168 224h144q40 0 68 28t28 68t-28 68t-68 28h-144v-192z" />
<glyph unicode="&#xdf;" horiz-adv-x="576" d="M40 64v384q0 106 75 181t181 75h80q66 0 113 -47t47 -113t-47 -113t-113 -47q-14 0 -23 -9t-9 -23t9 -23t23 -9h32q66 0 113 -47t47 -113t-47 -113t-113 -47h-128q-26 0 -45 19t-19 45t19 45t45 19h128q14 0 23 9t9 23t-9 23t-23 9h-32q-66 0 -113 47t-47 113t47 113 t113 47q14 0 23 9t9 23t-9 23t-23 9h-80q-53 0 -90.5 -37.5t-37.5 -90.5v-384q0 -26 -19 -45t-45 -19t-45 19t-19 45z" />
<glyph unicode="&#xe0;" d="M16 256q0 106 75 181t181 75t181 -75t75 -181q0 -65 -34 -127q19 -8 30.5 -25.5t11.5 -39.5q0 -30 -21 -51t-51 -21q-46 0 -66 42q-57 -34 -126 -34q-106 0 -181 75t-75 181zM144 256q0 -53 37.5 -90.5t90.5 -37.5t90.5 37.5t37.5 90.5t-37.5 90.5t-90.5 37.5 t-90.5 -37.5t-37.5 -90.5zM176 656q0 20 14 34t34 14t34 -14l64 -64q14 -14 14 -34t-14 -34t-34 -14t-34 14l-64 64q-14 14 -14 34z" />
<glyph unicode="&#xe1;" d="M16 256q0 106 75 181t181 75t181 -75t75 -181q0 -65 -34 -127q19 -8 30.5 -25.5t11.5 -39.5q0 -30 -21 -51t-51 -21q-46 0 -66 42q-57 -34 -126 -34q-106 0 -181 75t-75 181zM144 256q0 -53 37.5 -90.5t90.5 -37.5t90.5 37.5t37.5 90.5t-37.5 90.5t-90.5 37.5 t-90.5 -37.5t-37.5 -90.5zM208 592q0 20 14 34l64 64q14 14 34 14t34 -14t14 -34t-14 -34l-64 -64q-14 -14 -34 -14t-34 14t-14 34z" />
<glyph unicode="&#xe2;" d="M16 256q0 106 75 181t181 75t181 -75t75 -181q0 -65 -34 -127q19 -8 30.5 -25.5t11.5 -39.5q0 -30 -21 -51t-51 -21q-46 0 -66 42q-57 -34 -126 -34q-106 0 -181 75t-75 181zM144 256q0 -53 37.5 -90.5t90.5 -37.5t90.5 37.5t37.5 90.5t-37.5 90.5t-90.5 37.5 t-90.5 -37.5t-37.5 -90.5zM160 592q0 20 14 34l64 64q14 14 34 14t34 -14l64 -64q14 -14 14 -34t-14 -34t-34 -14t-34 14l-30 30l-30 -30q-14 -14 -34 -14t-34 14t-14 34z" />
<glyph unicode="&#xe3;" d="M16 256q0 106 75 181t181 75t181 -75t75 -181q0 -65 -34 -127q19 -8 30.5 -25.5t11.5 -39.5q0 -30 -21 -51t-51 -21q-46 0 -66 42q-57 -34 -126 -34q-106 0 -181 75t-75 181zM112 592q0 20 14 34q46 46 104 46q19 0 47 -16t37 -16q18 0 36 18q14 14 34 14t34 -14t14 -34 t-14 -34q-46 -46 -104 -46q-19 0 -47 16t-37 16q-18 0 -36 -18q-14 -14 -34 -14t-34 14t-14 34zM144 256q0 -53 37.5 -90.5t90.5 -37.5t90.5 37.5t37.5 90.5t-37.5 90.5t-90.5 37.5t-90.5 -37.5t-37.5 -90.5z" />
<glyph unicode="&#xe4;" d="M16 256q0 106 75 181t181 75t181 -75t75 -181q0 -65 -34 -127q19 -8 30.5 -25.5t11.5 -39.5q0 -30 -21 -51t-51 -21q-46 0 -66 42q-57 -34 -126 -34q-106 0 -181 75t-75 181zM128 608q0 26 19 45t45 19t45 -19t19 -45t-19 -45t-45 -19t-45 19t-19 45zM144 256 q0 -53 37.5 -90.5t90.5 -37.5t90.5 37.5t37.5 90.5t-37.5 90.5t-90.5 37.5t-90.5 -37.5t-37.5 -90.5zM288 608q0 26 19 45t45 19t45 -19t19 -45t-19 -45t-45 -19t-45 19t-19 45z" />
<glyph unicode="&#xe5;" d="M16 256q0 73 38.5 134.5t102.5 93.5q-25 36 -25 80q0 58 41 99t99 41t99 -41t41 -99q0 -44 -25 -80q63 -32 102 -93.5t39 -134.5q0 -65 -34 -127q19 -8 30.5 -25.5t11.5 -39.5q0 -30 -21 -51t-51 -21q-46 0 -66 42q-57 -34 -126 -34q-106 0 -181 75t-75 181zM144 256 q0 -53 37.5 -90.5t90.5 -37.5t90.5 37.5t37.5 90.5t-37.5 90.5t-90.5 37.5t-90.5 -37.5t-37.5 -90.5zM220 564q0 -22 15 -37t37 -15t37 15t15 37t-15 37t-37 15t-37 -15t-15 -37z" />
<glyph unicode="&#xe6;" horiz-adv-x="928" d="M16 256q0 106 75 181t181 75q115 0 192 -87q77 87 192 87q106 0 181 -75t75 -181q0 -26 -19 -45t-45 -19h-303q36 -64 111 -64h64q26 0 45 -19t19 -45t-19 -45t-45 -19h-64q-68 0 -127 34q-8 -19 -25.5 -30.5t-39.5 -11.5q-46 0 -66 42q-57 -34 -126 -34q-106 0 -181 75 t-75 181zM144 256q0 -53 37.5 -90.5t90.5 -37.5t90.5 37.5t37.5 90.5t-37.5 90.5t-90.5 37.5t-90.5 -37.5t-37.5 -90.5zM545 320h222q-17 29 -46.5 46.5t-64.5 17.5q-74 0 -111 -64z" />
<glyph unicode="&#xe7;" horiz-adv-x="488" d="M16 256q0 106 75 181t181 75t181 -75q19 -19 19 -45t-19 -45t-45 -19q-27 0 -45 19q-38 37 -91 37t-90.5 -37.5t-37.5 -90.5t37.5 -90.5t90.5 -37.5t91 37q19 19 45 19t45 -19t19 -45t-19 -45q-29 -29 -60 -45q23 -38 23 -78q0 -59 -42.5 -101.5t-101.5 -42.5 q-60 0 -102 42q-14 14 -14 34t14 34t34 14t34 -14t34 -14t34 14t14 34t-14 34t-34 14q-106 0 -181 75t-75 181z" />
<glyph unicode="&#xe8;" horiz-adv-x="544" d="M16 256q0 106 75 181t181 75t181 -75t75 -181q0 -26 -19 -45t-45 -19h-303q36 -64 111 -64h64q26 0 45 -19t19 -45t-19 -45t-45 -19h-64q-106 0 -181 75t-75 181zM161 320h222q-17 29 -46.5 46.5t-64.5 17.5q-74 0 -111 -64zM176 656q0 20 14 34t34 14t34 -14l64 -64 q14 -14 14 -34t-14 -34t-34 -14t-34 14l-64 64q-14 14 -14 34z" />
<glyph unicode="&#xe9;" horiz-adv-x="544" d="M16 256q0 106 75 181t181 75t181 -75t75 -181q0 -26 -19 -45t-45 -19h-303q36 -64 111 -64h64q26 0 45 -19t19 -45t-19 -45t-45 -19h-64q-106 0 -181 75t-75 181zM161 320h222q-17 29 -46.5 46.5t-64.5 17.5q-74 0 -111 -64zM208 592q0 20 14 34l64 64q14 14 34 14 t34 -14t14 -34t-14 -34l-64 -64q-14 -14 -34 -14t-34 14t-14 34z" />
<glyph unicode="&#xea;" horiz-adv-x="544" d="M16 256q0 106 75 181t181 75t181 -75t75 -181q0 -26 -19 -45t-45 -19h-303q36 -64 111 -64h64q26 0 45 -19t19 -45t-19 -45t-45 -19h-64q-106 0 -181 75t-75 181zM160 592q0 20 14 34l64 64q14 14 34 14t34 -14l64 -64q14 -14 14 -34t-14 -34t-34 -14t-34 14l-30 30 l-30 -30q-14 -14 -34 -14t-34 14t-14 34zM161 320h222q-17 29 -46.5 46.5t-64.5 17.5q-74 0 -111 -64z" />
<glyph unicode="&#xeb;" horiz-adv-x="544" d="M16 256q0 106 75 181t181 75t181 -75t75 -181q0 -26 -19 -45t-45 -19h-303q36 -64 111 -64h64q26 0 45 -19t19 -45t-19 -45t-45 -19h-64q-106 0 -181 75t-75 181zM128 608q0 26 19 45t45 19t45 -19t19 -45t-19 -45t-45 -19t-45 19t-19 45zM161 320h222q-17 29 -46.5 46.5 t-64.5 17.5q-74 0 -111 -64zM288 608q0 26 19 45t45 19t45 -19t19 -45t-19 -45t-45 -19t-45 19t-19 45z" />
<glyph unicode="&#xec;" horiz-adv-x="208" d="M8 656q0 20 14 34t34 14t34 -14l64 -64q14 -14 14 -34t-14 -34t-34 -14t-34 14l-64 64q-14 14 -14 34zM40 64v384q0 26 19 45t45 19t45 -19t19 -45v-384q0 -26 -19 -45t-45 -19t-45 19t-19 45z" />
<glyph unicode="&#xed;" horiz-adv-x="208" d="M40 64v384q0 26 19 45t45 19t45 -19t19 -45v-384q0 -26 -19 -45t-45 -19t-45 19t-19 45zM40 592q0 20 14 34l64 64q14 14 34 14t34 -14t14 -34t-14 -34l-64 -64q-14 -14 -34 -14t-34 14t-14 34z" />
<glyph unicode="&#xee;" horiz-adv-x="208" d="M-8 592q0 20 14 34l64 64q14 14 34 14t34 -14l64 -64q14 -14 14 -34t-14 -34t-34 -14t-34 14l-30 30l-30 -30q-14 -14 -34 -14t-34 14t-14 34zM40 64v384q0 26 19 45t45 19t45 -19t19 -45v-384q0 -26 -19 -45t-45 -19t-45 19t-19 45z" />
<glyph unicode="&#xef;" horiz-adv-x="208" d="M-40 608q0 26 19 45t45 19t45 -19t19 -45t-19 -45t-45 -19t-45 19t-19 45zM40 64v384q0 26 19 45t45 19t45 -19t19 -45v-384q0 -26 -19 -45t-45 -19t-45 19t-19 45zM120 608q0 26 19 45t45 19t45 -19t19 -45t-19 -45t-45 -19t-45 19t-19 45z" />
<glyph unicode="&#xf0;" d="M24 208q0 86 61 147t147 61h96q40 0 80 -16v48q0 23 -10 50l-36 -36q-14 -14 -34 -14t-34 14t-14 34t14 34l36 36q-27 10 -50 10h-32q-26 0 -45 19t-19 45t19 45t45 19h32q77 0 143 -45l31 31q14 14 34 14t34 -14t14 -34t-14 -34l-31 -31q45 -66 45 -143v-240 q0 -86 -61 -147t-147 -61h-96q-86 0 -147 61t-61 147zM152 208q0 -33 23.5 -56.5t56.5 -23.5h96q33 0 56.5 23.5t23.5 56.5t-23.5 56.5t-56.5 23.5h-96q-33 0 -56.5 -23.5t-23.5 -56.5z" />
<glyph unicode="&#xf1;" horiz-adv-x="576" d="M32 448q0 30 21 51t51 21q22 0 39.5 -11.5t25.5 -30.5q62 34 127 34q106 0 181 -75t75 -181v-192q0 -26 -19 -45t-45 -19t-45 19t-19 45v192q0 53 -37.5 90.5t-90.5 37.5t-90.5 -37.5t-37.5 -90.5v-192q0 -26 -19 -45t-45 -19t-45 19t-19 45v192q0 69 34 126 q-42 20 -42 66zM136 592q0 20 14 34q46 46 104 46q19 0 47 -16t37 -16q18 0 36 18q14 14 34 14t34 -14t14 -34t-14 -34q-46 -46 -104 -46q-19 0 -47 16t-37 16q-18 0 -36 -18q-14 -14 -34 -14t-34 14t-14 34z" />
<glyph unicode="&#xf2;" horiz-adv-x="544" d="M16 256q0 106 75 181t181 75t181 -75t75 -181t-75 -181t-181 -75t-181 75t-75 181zM144 256q0 -53 37.5 -90.5t90.5 -37.5t90.5 37.5t37.5 90.5t-37.5 90.5t-90.5 37.5t-90.5 -37.5t-37.5 -90.5zM176 656q0 20 14 34t34 14t34 -14l64 -64q14 -14 14 -34t-14 -34t-34 -14 t-34 14l-64 64q-14 14 -14 34z" />
<glyph unicode="&#xf3;" horiz-adv-x="544" d="M16 256q0 106 75 181t181 75t181 -75t75 -181t-75 -181t-181 -75t-181 75t-75 181zM144 256q0 -53 37.5 -90.5t90.5 -37.5t90.5 37.5t37.5 90.5t-37.5 90.5t-90.5 37.5t-90.5 -37.5t-37.5 -90.5zM208 592q0 20 14 34l64 64q14 14 34 14t34 -14t14 -34t-14 -34l-64 -64 q-14 -14 -34 -14t-34 14t-14 34z" />
<glyph unicode="&#xf4;" horiz-adv-x="544" d="M16 256q0 106 75 181t181 75t181 -75t75 -181t-75 -181t-181 -75t-181 75t-75 181zM144 256q0 -53 37.5 -90.5t90.5 -37.5t90.5 37.5t37.5 90.5t-37.5 90.5t-90.5 37.5t-90.5 -37.5t-37.5 -90.5zM160 592q0 20 14 34l64 64q14 14 34 14t34 -14l64 -64q14 -14 14 -34 t-14 -34t-34 -14t-34 14l-30 30l-30 -30q-14 -14 -34 -14t-34 14t-14 34z" />
<glyph unicode="&#xf5;" horiz-adv-x="544" d="M16 256q0 106 75 181t181 75t181 -75t75 -181t-75 -181t-181 -75t-181 75t-75 181zM112 592q0 20 14 34q46 46 104 46q19 0 47 -16t37 -16q18 0 36 18q14 14 34 14t34 -14t14 -34t-14 -34q-46 -46 -104 -46q-19 0 -47 16t-37 16q-18 0 -36 -18q-14 -14 -34 -14t-34 14 t-14 34zM144 256q0 -53 37.5 -90.5t90.5 -37.5t90.5 37.5t37.5 90.5t-37.5 90.5t-90.5 37.5t-90.5 -37.5t-37.5 -90.5z" />
<glyph unicode="&#xf6;" horiz-adv-x="544" d="M16 256q0 106 75 181t181 75t181 -75t75 -181t-75 -181t-181 -75t-181 75t-75 181zM128 608q0 26 19 45t45 19t45 -19t19 -45t-19 -45t-45 -19t-45 19t-19 45zM144 256q0 -53 37.5 -90.5t90.5 -37.5t90.5 37.5t37.5 90.5t-37.5 90.5t-90.5 37.5t-90.5 -37.5t-37.5 -90.5z M288 608q0 26 19 45t45 19t45 -19t19 -45t-19 -45t-45 -19t-45 19t-19 45z" />
<glyph unicode="&#xf7;" d="M24 320q0 26 19 45t45 19h384q26 0 45 -19t19 -45t-19 -45t-45 -19h-384q-26 0 -45 19t-19 45zM208 120q0 30 21 51t51 21t51 -21t21 -51t-21 -51t-51 -21t-51 21t-21 51zM208 520q0 30 21 51t51 21t51 -21t21 -51t-21 -51t-51 -21t-51 21t-21 51z" />
<glyph unicode="&#xf8;" d="M24 48q0 20 14 34l30 30q-44 64 -44 144q0 106 75 181t181 75q77 0 143 -45l31 31q14 14 34 14t34 -14t14 -34t-14 -34l-31 -31q45 -66 45 -143q0 -106 -75 -181t-181 -75q-80 0 -144 44l-30 -30q-14 -14 -34 -14t-34 14t-14 34zM152 256q0 -29 10 -50l168 168 q-27 10 -50 10q-53 0 -90.5 -37.5t-37.5 -90.5zM230 138q21 -10 50 -10q53 0 90.5 37.5t37.5 90.5q0 23 -10 50z" />
<glyph unicode="&#xf9;" horiz-adv-x="576" d="M24 256v192q0 26 19 45t45 19t45 -19t19 -45v-192q0 -53 37.5 -90.5t90.5 -37.5t90.5 37.5t37.5 90.5v192q0 26 19 45t45 19t45 -19t19 -45v-192q0 -65 -34 -127q19 -8 30.5 -25.5t11.5 -39.5q0 -30 -21 -51t-51 -21q-46 0 -66 42q-57 -34 -126 -34q-106 0 -181 75 t-75 181zM184 656q0 20 14 34t34 14t34 -14l64 -64q14 -14 14 -34t-14 -34t-34 -14t-34 14l-64 64q-14 14 -14 34z" />
<glyph unicode="&#xfa;" horiz-adv-x="576" d="M24 256v192q0 26 19 45t45 19t45 -19t19 -45v-192q0 -53 37.5 -90.5t90.5 -37.5t90.5 37.5t37.5 90.5v192q0 26 19 45t45 19t45 -19t19 -45v-192q0 -65 -34 -127q19 -8 30.5 -25.5t11.5 -39.5q0 -30 -21 -51t-51 -21q-46 0 -66 42q-57 -34 -126 -34q-106 0 -181 75 t-75 181zM216 592q0 20 14 34l64 64q14 14 34 14t34 -14t14 -34t-14 -34l-64 -64q-14 -14 -34 -14t-34 14t-14 34z" />
<glyph unicode="&#xfb;" horiz-adv-x="576" d="M24 256v192q0 26 19 45t45 19t45 -19t19 -45v-192q0 -53 37.5 -90.5t90.5 -37.5t90.5 37.5t37.5 90.5v192q0 26 19 45t45 19t45 -19t19 -45v-192q0 -65 -34 -127q19 -8 30.5 -25.5t11.5 -39.5q0 -30 -21 -51t-51 -21q-46 0 -66 42q-57 -34 -126 -34q-106 0 -181 75 t-75 181zM168 592q0 20 14 34l64 64q14 14 34 14t34 -14l64 -64q14 -14 14 -34t-14 -34t-34 -14t-34 14l-30 30l-30 -30q-14 -14 -34 -14t-34 14t-14 34z" />
<glyph unicode="&#xfc;" horiz-adv-x="576" d="M24 256v192q0 26 19 45t45 19t45 -19t19 -45v-192q0 -53 37.5 -90.5t90.5 -37.5t90.5 37.5t37.5 90.5v192q0 26 19 45t45 19t45 -19t19 -45v-192q0 -65 -34 -127q19 -8 30.5 -25.5t11.5 -39.5q0 -30 -21 -51t-51 -21q-46 0 -66 42q-57 -34 -126 -34q-106 0 -181 75 t-75 181zM136 608q0 26 19 45t45 19t45 -19t19 -45t-19 -45t-45 -19t-45 19t-19 45zM296 608q0 26 19 45t45 19t45 -19t19 -45t-19 -45t-45 -19t-45 19t-19 45z" />
<glyph unicode="&#xfd;" horiz-adv-x="576" d="M24 256v192q0 26 19 45t45 19t45 -19t19 -45v-192q0 -53 37.5 -90.5t90.5 -37.5t90.5 37.5t37.5 90.5v192q0 26 19 45t45 19t45 -19t19 -45v-384q0 -106 -75 -181t-181 -75t-181 75q-19 19 -19 45t19 45t45 19t45 -19q38 -37 91 -37q44 0 78.5 27t45.5 69 q-59 -32 -124 -32q-106 0 -181 75t-75 181zM216 592q0 20 14 34l64 64q14 14 34 14t34 -14t14 -34t-14 -34l-64 -64q-14 -14 -34 -14t-34 14t-14 34z" />
<glyph unicode="&#xfe;" horiz-adv-x="568" d="M40 -128v768q0 26 19 45t45 19t45 -19t19 -45v-163q59 35 128 35q106 0 181 -75t75 -181t-75 -181t-181 -75q-71 0 -128 34v-162q0 -26 -19 -45t-45 -19t-45 19t-19 45zM168 256q0 -53 37.5 -90.5t90.5 -37.5t90.5 37.5t37.5 90.5t-37.5 90.5t-90.5 37.5t-90.5 -37.5 t-37.5 -90.5z" />
<glyph unicode="&#xff;" horiz-adv-x="576" d="M24 256v192q0 26 19 45t45 19t45 -19t19 -45v-192q0 -53 37.5 -90.5t90.5 -37.5t90.5 37.5t37.5 90.5v192q0 26 19 45t45 19t45 -19t19 -45v-384q0 -106 -75 -181t-181 -75t-181 75q-19 19 -19 45t19 45t45 19t45 -19q38 -37 91 -37q44 0 78.5 27t45.5 69 q-59 -32 -124 -32q-106 0 -181 75t-75 181zM136 608q0 26 19 45t45 19t45 -19t19 -45t-19 -45t-45 -19t-45 19t-19 45zM296 608q0 26 19 45t45 19t45 -19t19 -45t-19 -45t-45 -19t-45 19t-19 45z" />
<glyph unicode="&#x152;" horiz-adv-x="856" d="M16 320q0 133 93.5 226.5t226.5 93.5h448q26 0 45 -19t19 -45t-19 -45t-45 -19h-256v-128h192q26 0 45 -19t19 -45t-19 -45t-45 -19h-192v-128h256q26 0 45 -19t19 -45t-19 -45t-45 -19h-448q-133 0 -226.5 93.5t-93.5 226.5zM144 320q0 -80 56 -136t136 -56h64v384h-64 q-80 0 -136 -56t-56 -136z" />
<glyph unicode="&#x153;" horiz-adv-x="928" d="M16 256q0 106 75 181t181 75q115 0 192 -87q77 87 192 87q106 0 181 -75t75 -181q0 -26 -19 -45t-45 -19h-303q36 -64 111 -64h64q26 0 45 -19t19 -45t-19 -45t-45 -19h-64q-116 0 -192 87q-76 -87 -192 -87q-106 0 -181 75t-75 181zM144 256q0 -53 37.5 -90.5 t90.5 -37.5t90.5 37.5t37.5 90.5t-37.5 90.5t-90.5 37.5t-90.5 -37.5t-37.5 -90.5zM545 320h222q-17 29 -46.5 46.5t-64.5 17.5q-74 0 -111 -64z" />
<glyph unicode="&#x178;" horiz-adv-x="656" d="M8 576q0 26 19 45t45 19t45 -19l211 -211l211 211q19 19 45 19t45 -19t19 -45t-19 -45l-237 -237v-230q0 -26 -19 -45t-45 -19t-45 19t-19 45v230l-237 237q-19 19 -19 45zM184 736q0 26 19 45t45 19t45 -19t19 -45t-19 -45t-45 -19t-45 19t-19 45zM344 736q0 26 19 45 t45 19t45 -19t19 -45t-19 -45t-45 -19t-45 19t-19 45z" />
<glyph unicode="&#x2c6;" horiz-adv-x="272" d="M24 592q0 20 14 34l64 64q14 14 34 14t34 -14l64 -64q14 -14 14 -34t-14 -34t-34 -14t-34 14l-30 30l-30 -30q-14 -14 -34 -14t-34 14t-14 34z" />
<glyph unicode="&#x2dc;" horiz-adv-x="368" d="M24 592q0 20 14 34q46 46 104 46q19 0 47 -16t37 -16q18 0 36 18q14 14 34 14t34 -14t14 -34t-14 -34q-46 -46 -104 -46q-19 0 -47 16t-37 16q-18 0 -36 -18q-14 -14 -34 -14t-34 14t-14 34z" />
<glyph unicode="&#x2000;" horiz-adv-x="416" />
<glyph unicode="&#x2001;" horiz-adv-x="832" />
<glyph unicode="&#x2002;" horiz-adv-x="416" />
<glyph unicode="&#x2003;" horiz-adv-x="832" />
<glyph unicode="&#x2004;" horiz-adv-x="277" />
<glyph unicode="&#x2005;" horiz-adv-x="208" />
<glyph unicode="&#x2006;" horiz-adv-x="138" />
<glyph unicode="&#x2007;" horiz-adv-x="138" />
<glyph unicode="&#x2008;" horiz-adv-x="104" />
<glyph unicode="&#x2009;" horiz-adv-x="166" />
<glyph unicode="&#x200a;" horiz-adv-x="46" />
<glyph unicode="&#x2010;" horiz-adv-x="368" d="M24 320q0 26 19 45t45 19h192q26 0 45 -19t19 -45t-19 -45t-45 -19h-192q-26 0 -45 19t-19 45z" />
<glyph unicode="&#x2011;" horiz-adv-x="368" d="M24 320q0 26 19 45t45 19h192q26 0 45 -19t19 -45t-19 -45t-45 -19h-192q-26 0 -45 19t-19 45z" />
<glyph unicode="&#x2012;" horiz-adv-x="368" d="M24 320q0 26 19 45t45 19h192q26 0 45 -19t19 -45t-19 -45t-45 -19h-192q-26 0 -45 19t-19 45z" />
<glyph unicode="&#x2013;" d="M24 320q0 26 19 45t45 19h384q26 0 45 -19t19 -45t-19 -45t-45 -19h-384q-26 0 -45 19t-19 45z" />
<glyph unicode="&#x2014;" horiz-adv-x="784" d="M24 320q0 26 19 45t45 19h608q26 0 45 -19t19 -45t-19 -45t-45 -19h-608q-26 0 -45 19t-19 45z" />
<glyph unicode="&#x2018;" horiz-adv-x="176" d="M24 512v128q0 26 19 45t45 19t45 -19t19 -45v-128q0 -26 -19 -45t-45 -19t-45 19t-19 45z" />
<glyph unicode="&#x2019;" horiz-adv-x="176" d="M24 512v128q0 26 19 45t45 19t45 -19t19 -45v-128q0 -26 -19 -45t-45 -19t-45 19t-19 45z" />
<glyph unicode="&#x201a;" horiz-adv-x="176" d="M24 -64v128q0 26 19 45t45 19t45 -19t19 -45v-128q0 -26 -19 -45t-45 -19t-45 19t-19 45z" />
<glyph unicode="&#x201c;" horiz-adv-x="336" d="M24 512v128q0 26 19 45t45 19t45 -19t19 -45v-128q0 -26 -19 -45t-45 -19t-45 19t-19 45zM184 512v128q0 26 19 45t45 19t45 -19t19 -45v-128q0 -26 -19 -45t-45 -19t-45 19t-19 45z" />
<glyph unicode="&#x201d;" horiz-adv-x="336" d="M24 512v128q0 26 19 45t45 19t45 -19t19 -45v-128q0 -26 -19 -45t-45 -19t-45 19t-19 45zM184 512v128q0 26 19 45t45 19t45 -19t19 -45v-128q0 -26 -19 -45t-45 -19t-45 19t-19 45z" />
<glyph unicode="&#x201e;" horiz-adv-x="336" d="M24 -64v128q0 26 19 45t45 19t45 -19t19 -45v-128q0 -26 -19 -45t-45 -19t-45 19t-19 45zM184 -64v128q0 26 19 45t45 19t45 -19t19 -45v-128q0 -26 -19 -45t-45 -19t-45 19t-19 45z" />
<glyph unicode="&#x2022;" horiz-adv-x="368" d="M24 320q0 66 47 113t113 47t113 -47t47 -113t-47 -113t-113 -47t-113 47t-47 113z" />
<glyph unicode="&#x2026;" d="M16 72q0 30 21 51t51 21t51 -21t21 -51t-21 -51t-51 -21t-51 21t-21 51zM208 72q0 30 21 51t51 21t51 -21t21 -51t-21 -51t-51 -21t-51 21t-21 51zM400 72q0 30 21 51t51 21t51 -21t21 -51t-21 -51t-51 -21t-51 21t-21 51z" />
<glyph unicode="&#x202f;" horiz-adv-x="166" />
<glyph unicode="&#x2039;" horiz-adv-x="336" d="M24 256q0 27 18 45l161 160q19 19 45 19t45 -19t19 -45q0 -27 -18 -45l-115 -115l115 -115q16 -18 18 -45q0 -26 -19 -45t-45 -19t-45 19l-161 160q-18 16 -18 45z" />
<glyph unicode="&#x203a;" horiz-adv-x="336" d="M24 96q0 27 18 45l115 115l-115 115q-18 17 -18 45q0 26 19 45t45 19t45 -19l161 -160q16 -15 18 -45q0 -27 -18 -45l-161 -160q-19 -19 -45 -19t-45 19t-19 45z" />
<glyph unicode="&#x205f;" horiz-adv-x="208" />
<glyph unicode="&#x20ac;" d="M24 256q0 20 14 34t34 14h16v32h-16q-20 0 -34 14t-14 34t14 34t34 14h20q17 89 88 148.5t164 59.5q106 0 181 -75q19 -19 19 -45t-19 -45t-45 -19q-27 0 -45 19q-36 37 -91 37q-40 0 -72.5 -22t-46.5 -58h199q20 0 34 -14t14 -34t-14 -34t-34 -14h-208v-32h176 q20 0 34 -14t14 -34t-14 -34t-34 -14h-167q14 -36 46.5 -58t72.5 -22q53 0 91 37q19 19 45 19t45 -19t19 -45t-19 -45q-75 -75 -181 -75q-93 0 -164 59.5t-88 148.5h-20q-20 0 -34 14t-14 34z" />
<glyph unicode="&#x2122;" horiz-adv-x="896" d="M8 592q0 20 14 34t34 14h288q20 0 34 -14t14 -34t-14 -34t-34 -14h-96v-240q0 -20 -14 -34t-34 -14t-34 14t-14 34v240h-96q-20 0 -34 14t-14 34zM424 304v288q0 20 14 34t34 14t34 -14l142 -142l142 142q14 14 34 14t34 -14t14 -34v-288q0 -20 -14 -34t-34 -14t-34 14 t-14 34v172l-94 -94q-14 -14 -34 -14t-34 14l-94 94v-172q0 -20 -14 -34t-34 -14t-34 14t-14 34z" />
<glyph unicode="&#xe000;" horiz-adv-x="510" d="M0 0v510h510v-510h-510z" />
</font>
</defs>
</svg>
