<?xml version="1.0" standalone="no"?>
<!DOCTYPE svg PUBLIC "-//W3C//DTD SVG 1.1//EN" "http://www.w3.org/Graphics/SVG/1.1/DTD/svg11.dtd" >
<svg xmlns="http://www.w3.org/2000/svg">
<metadata></metadata>
<defs>
<font id="juice_boldbold" horiz-adv-x="1108" >
<font-face units-per-em="2048" ascent="1638" descent="-410" />
<missing-glyph horiz-adv-x="508" />
<glyph horiz-adv-x="2048" />
<glyph horiz-adv-x="2048" />
<glyph unicode="&#xd;" horiz-adv-x="508" />
<glyph unicode=" "  horiz-adv-x="508" />
<glyph unicode="&#x09;" horiz-adv-x="508" />
<glyph unicode="&#xa0;" horiz-adv-x="508" />
<glyph unicode="!" horiz-adv-x="646" d="M213 1801h67q140 0 159 -170v-1136l-8 -8h-59q-122 0 -162 137l-4 51v1119zM213 336h45q130 0 173 -111l8 -48v-170l-8 -7h-55q-123 0 -163 125l-7 63v140z" />
<glyph unicode="&#x22;" horiz-adv-x="1038" d="M210 1801h76q120 0 164 -132l4 -36v-488l-8 -8h-44q-200 0 -200 212v444zM586 1801h76q116 0 164 -132l4 -44v-480l-8 -8h-60q-132 0 -176 132l-8 68v456z" />
<glyph unicode="#" horiz-adv-x="2098" d="M898 1692q103 0 144 -92l12 -76q0 -35 -68 -340l4 -4h232l108 508l4 4h52q107 0 144 -116l4 -56q-16 -114 -68 -336l4 -4h228q133 0 192 -124l4 -28v-80l-8 -8h-472l-40 -188h280q173 0 224 -104q16 -26 16 -60v-72l-8 -8h-564l-108 -508h-64q-116 0 -136 148v36 q0 28 64 324h-236l-108 -508h-64q-124 0 -140 168q4 49 68 340h-172q-162 0 -212 116q-12 26 -12 64v56l8 8h440l40 188h-276q-180 0 -212 156v76l8 8h532l108 508l4 4h44zM934 940l-40 -188h236l40 188h-236z" />
<glyph unicode="$" horiz-adv-x="1251" d="M522 1801h49q101 0 146 -90q14 -35 14 -70v-69h320l7 -7v-70q0 -95 -112 -136l-31 -3h-247q-163 0 -201 -76q-42 -67 -42 -133q0 -135 146 -135q322 0 445 -285q42 -109 42 -205v-122q0 -298 -230 -403q-44 -18 -97 -28v-233l-7 -7h-52q-115 0 -153 115l-4 28v93h-302 l-7 7v53q0 137 163 156h254q146 0 198 122q21 51 21 114v94q0 224 -201 275l-174 21q-83 9 -178 97q-83 101 -83 250v7q0 282 240 379l69 21v233z" />
<glyph unicode="%" horiz-adv-x="1221" d="M213 1801q227 0 296 -171q11 -38 11 -87v-333l-7 -12q-200 0 -292 140q-19 53 -19 88v367q0 8 11 8zM858 1790h4q151 -63 151 -175v-15q0 -54 -102 -273l-561 -1319h-4q-148 67 -148 189q0 52 110 296zM714 603q205 0 284 -144q23 -40 23 -125v-326l-8 -8h-15 q-210 0 -288 163q-12 48 -12 91v337q0 10 16 12z" />
<glyph unicode="&#x26;" horiz-adv-x="1368" d="M645 1797h511l8 -8v-35q0 -134 -90 -179q-44 -20 -85 -20h-273q-269 0 -269 -280v-211q0 -74 58 -74h121v179l4 4v4q165 0 214 -89q24 -41 24 -82v-472l-8 -8h-47q-187 22 -187 172v50h-133q-46 0 -46 -50v-144q0 -224 109 -281q60 -35 160 -35h436l8 -8v-70 q0 -120 -144 -160h-363q-322 0 -432 312q-16 80 -16 121v331q0 52 39 105q-39 49 -39 133v308q0 342 261 452q102 35 179 35z" />
<glyph unicode="'" horiz-adv-x="660" d="M210 1797h72q150 0 172 -176v-480l-8 -8h-44q-200 0 -200 208v448z" />
<glyph unicode="(" horiz-adv-x="1031" d="M643 1801h168l7 -8v-12l4 -50q0 -121 -156 -172q-215 -41 -215 -215v-879q0 -163 164 -215q110 -20 160 -66q47 -68 47 -114l-4 -50v-12l-7 -8h-208q-220 0 -339 211q-59 126 -59 254v871q0 284 219 418q91 47 219 47z" />
<glyph unicode=")" horiz-adv-x="1038" d="M214 1844h156q313 0 420 -252q44 -119 44 -280v-784q0 -399 -276 -504q-73 -24 -140 -24h-204q-12 4 -12 24v48q0 152 228 188q152 60 152 236v852q0 174 -148 232q-155 32 -184 76q-48 51 -48 120v36q0 30 12 32z" />
<glyph unicode="*" horiz-adv-x="1387" d="M578 1802h68q134 0 164 -196l140 136h4q92 -74 92 -152v-12q0 -66 -60 -140v-8q139 0 192 -132l4 -40v-60l-8 -8h-192q64 -76 64 -152v-8q0 -75 -92 -148h-4l-140 136v-192l-8 -8h-56q-151 0 -176 188v8h-4l-140 -136q-96 74 -96 168q3 65 64 144q-196 27 -196 164v68 l8 8h188v4q-64 76 -64 156q0 74 96 152l140 -136h4v188z" />
<glyph unicode="+" horiz-adv-x="1387" d="M581 1252h68q136 0 164 -200v-172h176q139 0 192 -132l4 -40v-60l-8 -8h-364v-364l-8 -8h-56q-151 0 -176 188v184h-160q-150 0 -204 116l-8 48v68l8 8h356l8 8v356z" />
<glyph unicode="," horiz-adv-x="748" d="M369 195q121 0 168 -104l12 -56q0 -165 -132 -220q-55 -20 -120 -20q-92 0 -92 72q0 49 76 68q16 46 16 80v120q12 60 72 60z" />
<glyph unicode="-" horiz-adv-x="1383" d="M210 890h788q147 0 184 -152v-88l-8 -8h-772q-149 0 -192 124l-8 60v56z" />
<glyph unicode="." horiz-adv-x="649" d="M301 252h60q92 0 92 -76v-92q0 -84 -84 -84h-92q-55 0 -76 68v84q0 100 100 100z" />
<glyph unicode="/" horiz-adv-x="1229" d="M866 1801h12q153 -73 153 -190q0 -60 -124 -330l-545 -1281h-4q-153 72 -153 182v25q0 60 107 280z" />
<glyph unicode="0" horiz-adv-x="1357" d="M670 1797h31q327 0 432 -286q24 -94 24 -197v-862q0 -324 -294 -437q-67 -15 -104 -15h-151q-201 0 -332 185q-70 112 -70 248v923q0 290 247 402q85 39 217 39zM449 1372v-924q0 -177 147 -205l35 -3h97q185 0 185 235v858q0 177 -112 205q-37 14 -120 19 q-232 0 -232 -185z" />
<glyph unicode="1" horiz-adv-x="1042" d="M210 1801h193q261 0 390 -236q43 -91 43 -266v-1291l-8 -8h-4q-232 0 -232 178v1182q0 147 -112 186q0 10 -143 15q-135 46 -135 159v73z" />
<glyph unicode="2" horiz-adv-x="1350" d="M214 1797h491q302 0 417 -255q31 -91 31 -162v-51q0 -335 -626 -1089v-4h452q118 0 166 -116l8 -35v-77l-8 -8h-781q-111 0 -154 128l-4 50q0 75 259 386q448 547 448 804q0 189 -208 189h-333q-128 0 -162 136l-4 34v62z" />
<glyph unicode="3" horiz-adv-x="1357" d="M213 1801h492q302 0 414 -252q35 -85 35 -190v-375q0 -53 -39 -109q43 -33 43 -147v-244q0 -369 -298 -465q-69 -19 -140 -19h-341q-132 0 -170 136l-4 38v58l8 8h515q132 0 178 147l8 82v251q0 39 -58 39h-159q-143 0 -186 132l-4 46v55l8 7h337q62 0 62 43v314 q0 147 -136 193q-33 12 -100 12h-310q-120 0 -159 132l-4 31v69z" />
<glyph unicode="4" horiz-adv-x="1361" d="M922 1801h42q194 0 194 -205v-1588l-8 -8h-74q-110 0 -154 132l-8 66v580h-221q-393 0 -476 330l-12 100v581l8 8h73q111 0 155 -124l8 -77v-163l-4 -225q0 -109 97 -166q56 -23 124 -23h248v774z" />
<glyph unicode="5" horiz-adv-x="1361" d="M410 1801h736l8 -8v-58q0 -128 -132 -170l-66 -8h-511v-534l8 -8h286q279 0 384 -267q35 -86 35 -186v-66q0 -352 -252 -457q-96 -39 -197 -39h-496l-8 8v69q0 110 132 155l54 8h310q179 0 209 167l4 38v132q0 135 -113 182q-52 16 -81 16h-321q-130 0 -179 100 q-15 39 -15 66v693q0 109 120 155q29 12 85 12z" />
<glyph unicode="6" horiz-adv-x="1361" d="M654 1801h492l8 -8v-69q0 -115 -120 -159l-35 -4h-321q-154 0 -194 -74q-35 -54 -35 -128v-336h256q299 0 414 -256q35 -90 35 -159v-166q0 -293 -260 -407q-102 -35 -205 -35h-39q-320 0 -422 306q-23 69 -23 151v918q0 303 283 403q84 23 166 23zM449 782v-197l-4 -147 q0 -106 85 -171q42 -27 120 -27h51q175 0 209 159l4 58v112q0 176 -155 206l-43 3h-259l-4 4h-4z" />
<glyph unicode="7" horiz-adv-x="1350" d="M968 1797q182 -19 182 -166v-27q0 -89 -650 -1446q-85 -158 -228 -158h-100q39 100 703 1554l-4 3h-498q-124 0 -166 143l-8 93l4 4h765z" />
<glyph unicode="8" horiz-adv-x="1357" d="M623 1801h51q228 0 347 -112q136 -131 136 -332v-151q0 -187 -124 -309q124 -128 124 -321v-143q0 -295 -267 -402q-100 -31 -193 -31h-43q-310 0 -413 259q-35 97 -35 170v151q0 186 120 321q-120 155 -120 301v170q0 260 236 390q104 39 181 39zM449 1337v-96 q0 -161 116 -205q46 -16 82 -16h61q150 0 198 155q11 47 11 124v65q0 197 -247 197h-16q-155 0 -193 -123q-12 -34 -12 -101zM449 541v-81q0 -224 236 -224q173 0 221 154q11 57 11 132v62q0 197 -251 197h-8q-161 0 -201 -132z" />
<glyph unicode="9" horiz-adv-x="1354" d="M701 1797q321 0 429 -298q23 -69 23 -146v-967q0 -217 -217 -340q-113 -46 -197 -46h-525l-8 8v50q0 124 104 170q42 12 70 12h340q139 0 182 119l11 89v325h-201q-325 0 -433 189q-73 112 -73 255v105q0 333 263 440q110 35 232 35zM446 1306v-62q0 -175 127 -216 q38 -12 101 -12h239v333q0 142 -108 193q-36 12 -66 12h-100q-146 0 -186 -151z" />
<glyph unicode=":" horiz-adv-x="657" d="M210 1098h76q140 0 168 -172v-180l-8 -8h-76q-124 0 -164 152l-4 56v144zM210 566h64q132 0 176 -136l4 -36v-184l-8 -8h-44q-143 0 -188 120q-12 42 -12 84v152z" />
<glyph unicode=";" horiz-adv-x="657" d="M210 1102h52q127 0 172 -96q20 -41 20 -76v-184l-8 -8h-56q-142 0 -184 148l-4 64v144zM278 235q176 -18 176 -152v-40q0 -155 -172 -200l-76 -8q-92 0 -92 68q0 57 72 68q20 36 20 96v108q12 60 72 60z" />
<glyph unicode="&#x3c;" horiz-adv-x="946" d="M636 1251h3q114 -65 114 -149v-32q0 -42 -188 -267l-139 -177q323 -405 323 -420l4 -35v-22q0 -83 -117 -149l-434 533v188q418 518 434 530z" />
<glyph unicode="=" horiz-adv-x="1387" d="M210 1000h772q129 0 188 -108q16 -30 16 -88v-36l-8 -8h-784q-192 27 -192 164v68zM210 636h768q155 0 204 -140l4 -44v-52l-8 -8h-732q-173 0 -228 100q-16 40 -16 68v68z" />
<glyph unicode="&#x3e;" horiz-adv-x="954" d="M329 1251l427 -526v-195l-430 -530q-121 63 -121 156q0 71 85 160l242 310v7q-301 368 -320 412l-7 53q0 96 124 153z" />
<glyph unicode="?" horiz-adv-x="1298" d="M209 1801h461q302 0 412 -280q22 -85 22 -140v-177q0 -182 -165 -324q-92 -61 -181 -77v-376l-7 -7h-48q-122 0 -170 129l-7 51v291q0 107 114 140q177 0 229 173l7 81v48q0 183 -173 232l-111 8h-239q-103 0 -144 110l-7 63v48zM537 331h66q112 0 151 -117q8 -16 8 -59 v-148l-8 -7h-62q-109 0 -155 118l-7 66v140z" />
<glyph unicode="@" horiz-adv-x="1918" d="M630 1592h788q197 0 276 -200q20 -54 20 -112v-1112q0 -120 -136 -160q-18 -8 -52 -8h-184q-82 0 -128 60q-100 -60 -240 -60h-420l-8 8v748q0 273 252 368q77 28 148 28h448l8 -8v-828q0 -64 64 -64h12l4 4v980q0 108 -108 108h-652q-276 0 -276 -216v-1120h-80 q-112 0 -160 124l-8 56v936q0 336 308 452q82 16 124 16zM782 232h164q158 0 212 104q20 36 20 84v500h-192q-175 0 -204 -160v-528z" />
<glyph unicode="A" horiz-adv-x="1361" d="M213 1801h526q294 0 398 -281q23 -86 23 -136v-1376l-8 -8h-23q-169 0 -203 125q-12 27 -12 97v421h-467v-631l-8 -8h-66q-118 0 -160 125l-8 66v1598zM447 1559v-674h467v503q0 135 -144 167l-47 4h-276z" />
<glyph unicode="B" horiz-adv-x="1350" d="M214 1797h487q310 0 425 -263q27 -63 27 -112v-309q0 -99 -112 -213q112 -101 112 -212v-282q0 -217 -220 -356q-98 -50 -213 -50h-506l-8 8v1781zM449 1557v-548h217q207 9 243 119l4 39q0 302 -23 302q-50 88 -197 88h-244zM449 769v-529h263q153 0 197 143v235 q0 119 -174 147l-50 4h-236z" />
<glyph unicode="C" horiz-adv-x="1357" d="M678 1801h282q197 0 197 -201v-31l-8 -8h-487q-161 0 -205 -116q-11 -56 -11 -158v-796q0 -175 69 -217q55 -31 124 -31h317q143 0 189 -108l8 -62v-61l-8 -8h-402l-139 -4q-107 0 -247 93q-151 120 -151 363v924q0 249 224 375q93 46 248 46z" />
<glyph unicode="D" horiz-adv-x="1350" d="M390 1797h298q326 0 433 -255q35 -97 35 -216v-824q0 -354 -228 -456q-100 -46 -221 -46h-494l-8 8v1777l4 4v4zM448 1557v-1317h259q148 0 186 116q19 45 19 135v788q0 197 -77 247q-53 31 -213 31h-174z" />
<glyph unicode="E" horiz-adv-x="1354" d="M680 1797h255q221 0 221 -201v-31l-8 -8h-472q-152 0 -200 -81q-31 -58 -31 -185v-271h409q133 0 178 -116l8 -58v-58l-8 -7h-580l-7 -8v-267q0 -181 61 -220q41 -46 151 -46h305q136 0 182 -116l8 -66v-50l-8 -8h-502q-295 0 -410 274q-27 85 -27 178v897q0 310 278 425 q74 23 197 23z" />
<glyph unicode="F" horiz-adv-x="1354" d="M647 1797h498l8 -8v-73q0 -131 -163 -159h-262q-163 0 -201 -31q-78 -46 -78 -162v-483h580q12 0 12 -50q0 -139 -124 -182q-17 -7 -50 -7h-418v-634l-7 -8h-74q-108 0 -154 128l-8 54v1178q0 305 286 414q57 23 155 23z" />
<glyph unicode="G" horiz-adv-x="1354" d="M654 1797h491l8 -8v-65q0 -141 -170 -167h-306q-158 0 -200 -85q-31 -25 -31 -282v-664q0 -196 65 -248q73 -42 166 -42q236 0 236 201v205h-120q-144 0 -189 108q-12 41 -12 69v54l8 8h356q144 0 185 -108l12 -58v-707l-8 -8h-66q-81 0 -123 58h-4q-98 -58 -209 -58h-96 q-309 0 -410 271q-31 78 -31 200v858q0 378 344 460z" />
<glyph unicode="H" horiz-adv-x="1348" d="M202 1802h43q153 0 197 -135l4 -43v-464h464v634l7 8h35q158 0 197 -143v-1651l-3 -4v-4q-185 0 -229 112l-7 58v750h-464v-912l-4 -4v-4q-240 0 -240 178v1624z" />
<glyph unicode="I" horiz-adv-x="646" d="M213 1801h35q141 0 189 -112q11 -25 11 -62v-1619l-3 -4v-4q-240 0 -240 193v1600z" />
<glyph unicode="J" horiz-adv-x="1251" d="M470 1797l410 -4h54q87 0 116 -89v-1263q0 -318 -302 -426q-64 -15 -135 -15h-502l-8 8v58q0 154 185 174h341q132 0 170 127q11 36 11 81v1109h-185q-117 0 -159 143l-4 35v54z" />
<glyph unicode="K" horiz-adv-x="1350" d="M213 1797h50q152 0 182 -143v-499h216q162 0 213 97q42 70 42 193v344l8 8h46q186 0 186 -205v-158q0 -263 -101 -375q97 -110 97 -244v-807l-8 -8h-66q-146 0 -166 178v622q0 90 -93 112l-30 4h-344v-897l-8 -7h-66q-103 0 -151 104q-15 31 -15 73v1600z" />
<glyph unicode="L" horiz-adv-x="1339" d="M213 1797h46q137 0 178 -116q11 -23 11 -73v-1140q0 -158 82 -205q49 -23 108 -23h332q136 0 178 -124l4 -39v-69l-8 -8h-510q-330 0 -421 340l-8 101v1348z" />
<glyph unicode="M" horiz-adv-x="2065" d="M213 1801h15q135 0 175 -58q105 58 298 58q211 0 333 -124q129 124 310 124h77q309 0 415 -271q27 -66 27 -205v-1317l-8 -8h-50q-141 0 -182 139l-4 59v1161q0 142 -97 179q-50 23 -147 23h-20q-201 0 -201 -244v-1309l-8 -8h-42q-194 0 -194 198v1189q0 174 -244 174 q-217 0 -217 -202v-1115l-4 -240l-4 -4h-69q-117 0 -163 128l-4 31v1634z" />
<glyph unicode="N" horiz-adv-x="1361" d="M291 1801q65 0 128 -54q77 54 263 54h4q317 0 426 -225q43 -97 43 -197v-1371l-8 -8h-54q-138 0 -178 143v1185q0 166 -89 206q-51 27 -167 27q-209 0 -209 -217v-1336l-8 -8h-58q-136 0 -174 136l-4 38v1612q0 11 85 15z" />
<glyph unicode="O" horiz-adv-x="1354" d="M669 1797h31q319 0 425 -267q31 -85 31 -208v-858q0 -365 -325 -456l-73 -8h-159q-205 0 -344 213q-50 116 -50 208v939q0 267 220 387q96 50 244 50zM448 1360v-904q0 -143 89 -193q43 -23 93 -23h89q193 0 193 247v842q0 176 -108 209q-49 14 -124 19q-232 0 -232 -197 z" />
<glyph unicode="P" horiz-adv-x="1361" d="M213 1801h46q98 0 155 -62q75 62 209 62h51q236 0 321 -85q105 -75 151 -252l12 -81l-4 -27v-415q0 -243 -229 -368q-98 -46 -259 -46h-217v-519l-8 -8h-73q-118 0 -159 143l-4 35v1615zM449 1340v-577l252 4q168 0 205 147l8 101v341q0 136 -105 189q-39 16 -89 16h-27 q-196 0 -232 -116q-12 -48 -12 -105z" />
<glyph unicode="Q" horiz-adv-x="1464" d="M674 1801h16q320 0 426 -240q43 -89 43 -214v-907q0 -224 -167 -365q20 -6 140 -11q80 -27 112 -94q16 -45 16 -100v-35l-8 -8h-202q-216 0 -345 171h-104q-201 0 -334 197q-62 114 -62 241v915q0 314 268 419q82 31 201 31zM449 1359v-888q0 -192 128 -225l47 -8v4 l-4 39l4 143v24q15 19 74 19h19q111 0 147 -136l4 -31q47 48 47 175v872q0 210 -206 210h-54q-206 0 -206 -198z" />
<glyph unicode="R" horiz-adv-x="1357" d="M213 1797h46q96 0 151 -58h4q86 58 208 58h51q256 0 340 -104q139 -135 139 -306v-436q0 -178 -120 -306q124 -114 124 -382v-255l-8 -8h-43q-138 0 -185 112l-8 58v166q0 139 -135 182l-70 8h-259v-518l-7 -8h-74q-117 0 -158 143l-4 35v1611zM448 1349v-580h267l16 -4 q56 0 127 54q54 58 54 209v325q0 166 -147 201l-46 3h-27q-162 0 -209 -73q-35 -47 -35 -135z" />
<glyph unicode="S" horiz-adv-x="1357" d="M666 1801h480l8 -8v-77q0 -118 -140 -155h-267q-249 0 -271 -85q-27 -38 -27 -113v-23q0 -131 93 -166q23 -14 201 -24q196 -50 287 -166q124 -163 124 -357v-182q0 -284 -240 -402q-99 -43 -190 -43h-511l-8 8v62q0 129 143 166l39 4h298q181 0 217 124q12 49 12 93v151 q0 225 -151 279q-65 35 -217 35q-153 33 -225 108q-116 119 -116 302v8q0 317 252 426q88 35 209 35z" />
<glyph unicode="T" horiz-adv-x="1350" d="M360 1801h792l8 -8v-70q0 -110 -124 -155l-35 -4h-186v-1552q0 -12 -78 -12q-167 20 -167 167v1397h-283h-82v0q0 196 124 229z" />
<glyph unicode="U" horiz-adv-x="1354" d="M920 1797h58q126 0 170 -128l8 -88v-1059q0 -320 -151 -422q-121 -100 -313 -100h-62q-249 0 -375 216q-50 105 -50 205v1364l8 8h73q109 0 155 -120l7 -58v-1174q0 -147 116 -190l85 -15q151 0 213 62q50 52 50 123v1368z" />
<glyph unicode="V" horiz-adv-x="1387" d="M275 1801q149 0 201 -143l217 -1042h4q209 1024 228 1077q62 108 190 108h62q8 0 8 -12l-380 -1785l-4 -4h-54q-186 0 -217 259l-325 1538l4 4h66z" />
<glyph unicode="W" horiz-adv-x="2061" d="M275 1797q174 -20 174 -174v-1202q0 -138 147 -178l54 -3h47q133 0 181 81q35 50 35 127v1229l8 8h35q136 0 181 -101q16 -37 16 -73v-1036q0 -162 73 -197q55 -38 135 -38h31q167 0 213 119q15 32 15 85v1191q0 106 128 154l100 8h4l8 -8v-1341q0 -314 -275 -421 q-85 -27 -166 -27h-81q-171 0 -309 128q-135 -128 -298 -128h-81q-296 0 -405 243q-31 67 -43 178l4 155v1209l8 8h31z" />
<glyph unicode="X" horiz-adv-x="1511" d="M1055 1797h66q137 0 185 -135l4 -35v-398q0 -194 -143 -325q143 -139 143 -282v-614l-8 -8h-77q-126 0 -174 131l-4 35v383q0 166 -116 208q-74 31 -177 31q-240 0 -279 -143l-7 -54v-583l-8 -8h-77q-151 0 -182 170v429q0 180 143 305q-139 130 -139 279v602l8 8h77 q126 0 174 -131l4 -39v-390q0 -141 116 -186q35 -15 116 -23q237 0 282 54q65 60 65 163v548z" />
<glyph unicode="Y" horiz-adv-x="1350" d="M914 1797h46q130 0 174 -108q16 -45 16 -101v-1093q0 -292 -155 -398q-125 -97 -251 -97h-383q-101 0 -147 104q-15 32 -15 74v54l8 8h483q164 0 201 119q15 39 15 78v131q-92 -42 -228 -42h-19q-321 0 -429 266q-31 86 -31 163v830l8 8h73q115 0 155 -135l4 -35v-576 q0 -203 85 -251q59 -31 112 -31h7q196 0 248 108q15 38 15 74v842z" />
<glyph unicode="Z" horiz-adv-x="1357" d="M213 1797h738q154 0 197 -124l4 -46q0 -132 -642 -1345l-19 -42h657l8 -8v-27q0 -152 -116 -197l-51 -8h-606q-121 0 -174 139l-4 46q0 124 665 1372h-507q-106 0 -150 112l-8 47v73z" />
<glyph unicode="[" horiz-adv-x="844" d="M381 1801h262l7 -8v-58q0 -134 -140 -172l-39 -4h-23v-1313h4q157 0 191 -121l7 -43q0 -82 -11 -82h-234q-146 0 -187 109l-12 59v1473q0 110 133 156z" />
<glyph unicode="\" horiz-adv-x="1229" d="M363 1801q45 -88 665 -1561l4 -50q0 -125 -161 -190q-632 1479 -665 1574v45q0 110 157 182z" />
<glyph unicode="]" horiz-adv-x="847" d="M214 1801h265q133 0 171 -152v-1466q0 -134 -128 -175l-67 -8h-237q-12 0 -12 43v47q0 112 136 152l63 4v1313h-20q-132 0 -175 129l-4 31v74z" />
<glyph unicode="^" horiz-adv-x="1467" d="M646 1801h180q28 -32 440 -640v-8q-117 -24 -148 -24q-161 0 -252 184l-132 188q-156 -251 -220 -316q-73 -56 -160 -56q-148 17 -148 32z" />
<glyph unicode="_" horiz-adv-x="1005" d="M13 -100h807q178 -24 178 -138v-59l-8 -7h-782q-150 0 -195 102l-8 49v46z" />
<glyph unicode="`" horiz-adv-x="1024" d="M770 1078h-97l-313 179q-36 23 -57 43t-21 61q0 27 20.5 51t66.5 24q43 0 74.5 -18t70.5 -56z" />
<glyph unicode="a" horiz-adv-x="1339" d="M666 1251h464l8 -8v-1235l-8 -8h-49q-92 0 -145 61q-91 -61 -247 -61h-475l-8 8v821q0 328 323 411q57 11 137 11zM446 825v-589h235q221 0 221 220v555h-278q-119 0 -167 -102q-11 -48 -11 -84z" />
<glyph unicode="b" horiz-adv-x="1387" d="M213 1803h19q156 0 198 -85q15 -35 19 -74l-4 -205v-167h264q315 0 423 -287q23 -68 23 -136v-442q0 -212 -217 -353q-80 -54 -202 -54h-62q-166 0 -267 58h-4q-41 -58 -194 -58l-4 4v1791zM442 1031l3 -504v-19q0 -202 90 -244q62 -24 139 -24h54q151 0 183 171l4 70 v337q0 213 -221 213h-252z" />
<glyph unicode="c" horiz-adv-x="1332" d="M633 1251h340q107 0 160 -111l7 -34v-84l-7 -7h-511q-131 0 -172 -142l-8 -118v-255q0 -206 96 -241q50 -23 141 -23h290q171 -19 171 -167v-61l-7 -8h-492q-288 0 -397 244q-38 99 -38 214v358q0 276 236 397q87 38 191 38z" />
<glyph unicode="d" horiz-adv-x="1350" d="M1096 1801h50l8 -8v-1785l-8 -8h-42q-91 0 -151 54h-8q-96 -54 -252 -54h-43q-314 0 -422 290q-23 73 -23 198v321q0 309 240 423q86 38 202 38h267v376q0 105 116 147zM449 840v-375q0 -181 112 -209q55 -16 117 -16q183 0 216 112q20 43 20 148v530h-260 q-205 0 -205 -190z" />
<glyph unicode="e" horiz-adv-x="1343" d="M629 1251h100q279 0 385 -275q26 -77 26 -148v-149q0 -110 -125 -153q-17 -7 -61 -7h-508v-130q0 -62 84 -130q56 -23 134 -23h316q113 0 157 -129l3 -38v-61l-7 -8h-443q-332 0 -438 217q-46 99 -46 210v332q0 356 252 458q79 34 171 34zM446 797v-42h458v73 q0 138 -137 183l-42 4h-69q-164 0 -202 -115z" />
<glyph unicode="f" horiz-adv-x="1001" d="M624 1801h213l8 -8v-66q0 -133 -182 -166q-144 0 -194 -97q-19 -59 -19 -116v-190h318l7 -8v-50q-19 -182 -178 -182h-147v-910l-8 -8h-69q-112 0 -159 128l-8 70v1111q0 352 252 457q87 35 166 35z" />
<glyph unicode="g" horiz-adv-x="1306" d="M629 1251q194 0 280 -55q58 55 133 55h15q48 0 48 -11v-1293q0 -158 -118 -273q-139 -114 -288 -114h-490l-7 7v56q0 119 129 162l37 3h280q186 0 213 111q15 37 15 88v92h-3q-110 -40 -203 -40q-327 0 -427 236q-41 97 -41 228v321q0 296 254 398q96 29 173 29zM434 820 v-335q0 -170 111 -203l92 -11h55q184 0 184 225v306l4 33q0 157 -162 184l-85 4q-199 0 -199 -203z" />
<glyph unicode="h" horiz-adv-x="1357" d="M214 1801h46q140 0 182 -124l4 -39v-406q109 38 213 38h16q338 0 445 -244q27 -66 39 -170l-4 -105v-743l-8 -8h-70q-118 0 -158 143l-4 51v631q0 205 -209 205q-188 0 -217 -69q-43 -61 -43 -155l4 -4l-4 -20v-774l-8 -8h-69q-108 0 -155 128l-8 54v1611z" />
<glyph unicode="i" horiz-adv-x="649" d="M214 1804h64q123 0 164 -129l4 -34v-175l-8 -8h-23q-209 0 -209 194v144zM214 1251h49q130 0 171 -110q12 -40 12 -80v-1053l-8 -8h-34q-141 0 -183 106q-15 36 -15 88v1049z" />
<glyph unicode="j" horiz-adv-x="840" d="M550 1800h63l7 -7v-140q0 -133 -110 -176q-38 -11 -103 -11h-11l-7 7v162q19 165 161 165zM591 1255h22l7 -8v-1269q0 -294 -290 -396q-69 -15 -110 -15h-213l-7 7v33q0 191 227 191q101 0 151 103q15 47 15 92v1104q0 113 139 154z" />
<glyph unicode="k" horiz-adv-x="1357" d="M210 1801h66q122 0 164 -125l4 -35v-857l7 -8h227q156 0 202 86q35 74 35 183v62q0 124 133 168l78 8h27l8 -8v-211q0 -285 -109 -390l-20 -23q83 -73 121 -242l8 -167v-234l-8 -8h-39q-153 0 -195 133l-4 42v117q0 164 -85 211q-60 27 -133 27h-253v-518l-8 -8h-66 q-118 0 -160 125l-8 54v1610z" />
<glyph unicode="l" horiz-adv-x="1038" d="M214 1801h35q145 0 189 -112q12 -48 12 -124v-1123q0 -165 143 -198q165 0 209 -62q39 -57 39 -132q0 -50 -11 -50h-179q-304 0 -410 259q-35 90 -35 175v1359z" />
<glyph unicode="m" horiz-adv-x="2036" d="M608 1251l72 -4h69q147 0 274 -118q123 122 311 122q235 0 312 -65q190 -132 190 -372v-806l-7 -8h-31q-142 0 -182 106q-16 39 -16 88v578q0 164 -87 217q-39 19 -122 26q-167 0 -213 -61q-38 -62 -38 -148v-798l-7 -8h-46q-147 0 -182 144l-4 54v623q0 133 -110 179 l-88 15q-189 0 -220 -68q-42 -41 -42 -194v-745l-8 -8h-30q-137 0 -183 106q-15 48 -15 80v1054l8 7h68q68 0 129 -53q86 49 198 57z" />
<glyph unicode="n" horiz-adv-x="1442" d="M384 1251h8q75 0 118 -53q83 53 214 53h110q226 0 355 -202q49 -107 49 -206v-835l-7 -8h-35q-156 0 -190 137l-4 35v610q0 173 -88 210q-62 26 -168 26q-202 0 -202 -206v-804l-7 -8h-50q-183 20 -183 168v1072q0 11 80 11z" />
<glyph unicode="o" horiz-adv-x="1335" d="M639 1251l31 -4l26 4q254 0 381 -198q60 -100 60 -293v-300q0 -329 -273 -437q-71 -23 -133 -23h-115q-259 0 -376 243q-38 92 -38 175v396q0 304 274 410q60 19 163 27zM442 821v-388q0 -197 193 -197h65q140 0 183 110q15 53 15 118v338q0 153 -99 190q-58 19 -114 19 h-19q-160 0 -202 -83q-22 -48 -22 -107z" />
<glyph unicode="p" horiz-adv-x="1310" d="M212 1249h22q120 0 169 -59q79 59 201 59h11q242 0 312 -62q68 -49 117 -121q47 -82 62 -213l-3 -25v-389q0 -213 -183 -333q-108 -63 -250 -63h-234v-469l-7 -7h-59q-145 0 -165 172v1503zM436 813v-539l165 -3h51l15 -4q142 0 190 106q19 54 19 132v323q0 194 -202 194 h-11q-181 0 -216 -110q-11 -45 -11 -99z" />
<glyph unicode="q" horiz-adv-x="1298" d="M646 1256q143 0 269 -55q48 51 121 51h59l8 -7v-1671l-8 -7h-62q-128 0 -159 132v346h-228q-311 0 -412 240q-33 97 -33 184v331q0 325 254 423q95 33 191 33zM433 814v-375q0 -114 118 -154q43 -11 99 -11h224v504q0 177 -77 217q-56 29 -136 29h-22q-138 0 -180 -77 q-26 -44 -26 -133z" />
<glyph unicode="r" horiz-adv-x="939" d="M213 1251h11q124 0 179 -61q88 57 216 57h115q11 -4 11 -23v-38q0 -155 -190 -182q-91 -47 -91 -99q-19 -12 -23 -164v-733l-8 -8h-53q-131 0 -171 129l-4 31v1083z" />
<glyph unicode="s" horiz-adv-x="1332" d="M609 1247h517l7 -8v-72q0 -104 -121 -148l-65 -8h-331q-109 0 -171 -106l-3 -19q0 -67 117 -118q0 -11 209 -15q103 -13 229 -99q136 -140 136 -281q0 -198 -235 -335q-89 -38 -171 -38h-517l-8 8v57q0 149 179 171h304q152 0 205 114l4 30q0 60 -103 122q-89 23 -232 23 q-140 29 -224 102q-122 119 -122 266q0 183 217 312q92 42 179 42z" />
<glyph unicode="t" horiz-adv-x="1023" d="M210 1801h42q139 0 182 -116l8 -58v-357h159q182 -21 182 -174v-58l-8 -8h-333v-581q0 -138 97 -190q59 -23 151 -23q69 -21 104 -77q28 -48 28 -101v-50l-8 -8h-155q-314 0 -426 259q-23 55 -35 159l4 97v1278z" />
<glyph unicode="u" horiz-adv-x="1343" d="M214 1251h72q109 0 153 -122q7 -17 7 -50v-640q0 -203 206 -203h4q248 0 248 180v827l8 8h64q143 0 164 -168v-1075l-7 -8h-42q-97 0 -149 61q-91 -61 -248 -61h-23q-343 0 -438 271q-27 83 -27 164v808z" />
<glyph unicode="v" horiz-adv-x="1383" d="M202 1254h92q184 0 248 -294l142 -444h4q195 598 206 616q74 122 206 122h73l8 -8l-402 -1246h-30q-183 0 -230 249q-218 668 -317 1005z" />
<glyph unicode="w" horiz-adv-x="2028" d="M1828 1251l4 -4v-791q0 -375 -350 -448l-91 -8h-68q-174 0 -304 125q-146 -125 -305 -125h-41q-332 0 -438 251q-23 74 -34 167l4 152v670l7 7h65q133 0 164 -137l3 -45v-651q0 -143 156 -174l46 -4h38q217 0 217 205v688l7 8h65q117 0 160 -129l3 -35v-498 q0 -176 84 -209q54 -30 133 -30h8q235 0 235 201v643q0 171 232 171z" />
<glyph unicode="x" horiz-adv-x="1332" d="M904 1251h23q147 0 187 -91q19 -39 19 -73v-155q0 -165 -122 -297q122 -134 122 -278v-349l-8 -8h-49q-122 0 -164 99q-15 35 -15 65v129q0 166 -107 205q-51 23 -129 23q-153 0 -198 -91q-22 -55 -22 -95v-327l-8 -8h-61q-113 0 -160 110q-11 31 -11 57v190 q0 149 122 278q-122 121 -122 312v293l8 7h60q124 0 172 -133v-160q0 -145 102 -186l80 -15q168 0 202 34q72 55 72 175v281z" />
<glyph unicode="y" horiz-adv-x="1298" d="M881 1252h22q138 0 180 -88q22 -40 22 -118v-1020q0 -262 -132 -360q-124 -99 -261 -99h-352q-115 0 -154 132l-4 33v55l7 8h463q202 0 202 179v107h-4q-99 -37 -194 -37h-41q-316 0 -415 283q-18 75 -18 125v789l7 7h66q129 0 155 -158v-561q0 -202 106 -242 q50 -15 77 -15h26q197 0 231 136l4 29v808z" />
<glyph unicode="z" horiz-adv-x="1335" d="M210 1247h752q130 0 171 -137l4 -34q0 -116 -619 -840h429q137 0 179 -118q7 -17 7 -50v-60l-7 -8h-753q-171 17 -171 171v23l627 817h-422q-152 0 -194 111q-11 24 -11 60v57z" />
<glyph unicode="{" horiz-adv-x="1159" d="M806 1801h150l4 -4h4q0 -184 -142 -246q-143 -21 -200 -71q-67 -72 -67 -196v-217q0 -90 -29 -171q29 -54 29 -166v-213q0 -183 142 -238q137 -24 175 -54q92 -74 92 -221l-4 -4h-59q-348 0 -442 100q-166 122 -166 346v317l-38 8h-46l-8 9v241q0 10 88 17l4 4v325 q0 265 254 388q100 46 259 46z" />
<glyph unicode="|" d="M213 1805h66q115 0 160 -129l8 -55v-1613l-8 -8h-35q-136 0 -183 102q-16 40 -16 74v1621z" />
<glyph unicode="}" horiz-adv-x="1163" d="M205 1801h163q359 0 475 -271q29 -79 29 -142v-346l92 -16v-246l-9 -9h-45q-32 0 -38 -16v-351q0 -132 -117 -266q-119 -138 -458 -138h-92v4q0 195 146 250q103 13 171 50q92 59 92 267v129l-5 38q0 90 34 163q-21 25 -34 162l5 29v138q0 215 -96 271q-43 29 -175 50 q-71 29 -117 112q-21 72 -21 138z" />
<glyph unicode="~" d="M998 928v-233q-63 -73 -125 -99.5t-123 -26.5q-63 0 -200 48.5t-193 48.5q-47 0 -100.5 -26.5t-146.5 -133.5v233q64 73 126 100.5t121 27.5q67 0 204 -49.5t189 -49.5q48 0 101.5 26.5t146.5 133.5z" />
<glyph unicode="&#xa1;" horiz-adv-x="672" />
<glyph unicode="&#xa2;" horiz-adv-x="1139" />
<glyph unicode="&#xa3;" d="M633 1368q-110 0 -173 -93q-57 -83 -57 -228q0 -21 1 -42q0 -138 48 -262h365v-80h-331q50 -92 50 -191q0 -170 -146 -362h393q94 0 154 133h92l-111 -253h-801l1 54q177 226 177 422q0 103 -48 197h-168v80h133q-56 137 -56 243q0 220 132 349q128 129 350 129 q98 0 204 -16q132 -17 132 -41v-193h-69q-3 51 -81 103q-78 51 -185 51h-6z" />
<glyph unicode="&#xa4;" d="M435 577q34 -29 77 -40q22 -5 43 -5t43 5q42 11 76 40q38 34 56 87q9 27 9 53q0 27 -9 53q-18 53 -56 87q-34 29 -77 40q-22 5 -43 5q-22 0 -43 -6q-43 -11 -76 -39q-37 -33 -55 -86q-10 -27 -10 -55q0 -25 9 -51q17 -54 56 -88zM252 904l-117 117l114 115l125 -125 q11 8 74 26q54 17 108 17q50 0 101 -14q65 -20 78 -28l124 124l114 -115l-116 -116q35 -52 52 -107q11 -40 11 -81q0 -40 -11 -81q-17 -55 -52 -107l116 -116l-114 -115l-124 124q-13 -9 -78 -28q-51 -14 -102 -14t-103 14q-66 19 -79 28l-124 -124l-114 115l117 116 q-36 52 -52 108q-11 40 -11 80q0 42 12 83q16 54 51 104z" />
<glyph unicode="&#xa5;" d="M698 550v-259q0 -222 99 -222h80v-69h-648v69h80q99 0 99 222v259h-228v80h228v63l-19 37h-209v80h169l-207 411q-85 144 -132 144h-51v69h528v-69h-51q-52 0 -52 -36q0 -47 56 -138l176 -379l172 388q46 78 46 122q0 43 -52 43h-48v69h415v-69h-36q-78 0 -164 -152 l-194 -403h173v-80h-211l-19 -39v-61h230v-80h-230z" />
<glyph unicode="&#xa6;" d="M426 371h256v-789h-256v789zM426 1434h256v-789h-256v789z" />
<glyph unicode="&#xa7;" d="M599 332q122 74 122 206v6q-1 91 -67 137t-138 46q-54 0 -94 -38t-40 -118q0 -128 217 -239zM513 -339q88 4 148 57q71 63 71 170q0 130 -306 276q-132 69 -185 142.5t-53 171.5q0 141 89 230q76 74 177 91q-155 68 -215 150.5t-60 180.5q0 141 91.5 235t268.5 95 q135 0 218 -19t83 -45v-200h-77q-5 94 -65 137t-178 46q-67 0 -107 -38t-40 -118q0 -137 276 -269q158 -71 214.5 -148.5t56.5 -182.5q0 -164 -101 -275q-52 -44 -109 -71q117 -61 168 -131t51 -174q0 -164 -120 -278.5t-334 -115.5q-111 0 -193.5 19.5t-82.5 44.5v200h87 q5 -93 64 -135.5t163 -45.5z" />
<glyph unicode="&#xa8;" horiz-adv-x="1024" d="M244 1291l86 81q15 13 30 13q13 0 31 -16l84 -82q12 -15 12 -28q0 -14 -15 -29l-82 -85q-22 -19 -30 -19q-17 0 -30 13l-92 98q-10 12 -10 24q0 15 16 30zM609 1291l86 81q15 13 30 13q13 0 31 -16l84 -82q12 -15 12 -28q0 -14 -15 -29l-82 -85q-22 -19 -30 -19 q-17 0 -30 13l-92 97q-10 13 -10 25q0 14 16 30z" />
<glyph unicode="&#xa9;" horiz-adv-x="1674" d="M1150 465h68v-102q0 -37 -79.5 -79.5t-247.5 -44.5q-159 0 -285.5 70.5t-188 182.5t-61.5 227q0 114 62.5 227t190 182.5t269.5 69.5q66 0 110.5 -13.5t62.5 -13.5q17 0 17 28h63l75 -207h-64q-105 96 -154.5 119t-125.5 23q-75 -5 -178.5 -102.5t-103.5 -298.5 q0 -166 92.5 -298.5t218.5 -132.5q118 1 187.5 41.5t71.5 121.5zM840 1462q152 0 291 -60.5t243 -169.5q99 -102 152.5 -237.5t53.5 -276.5q0 -142 -53.5 -275.5t-156.5 -239.5q-105 -110 -243 -168.5t-294 -58.5q-153 0 -289 59.5t-242 169.5q-103 105 -155.5 237 t-52.5 276q0 143 52.5 276.5t153.5 237.5q102 109 242.5 169.5t297.5 60.5zM361 1193q-86 -84 -140.5 -209t-54.5 -266q0 -142 54.5 -265.5t154.5 -219.5q98 -91 214.5 -138t244.5 -47q130 0 248 46.5t215 136.5q100 97 155.5 222t55.5 265q0 139 -55.5 266t-151.5 220 q-96 91 -215.5 138.5t-246.5 47.5q-130 0 -250.5 -47.5t-227.5 -149.5z" />
<glyph unicode="&#xaa;" horiz-adv-x="648" />
<glyph unicode="&#xab;" horiz-adv-x="987" d="M174 479l353 313h48v-47l-205 -266l205 -266v-47h-48zM485 479l353 313h48v-47l-205 -266l205 -266v-47h-48z" />
<glyph unicode="&#xac;" d="M86 773h916v-503l-1 -1h-174v392h-741v112z" />
<glyph unicode="&#xad;" horiz-adv-x="1383" d="M210 890h788q147 0 184 -152v-88l-8 -8h-772q-149 0 -192 124l-8 60v56z" />
<glyph unicode="&#xae;" horiz-adv-x="1674" d="M738 1105v-393q0 -69 23 -86t49 -17h3q27 1 44 31t35 99q13 54 13 111q0 16 -1 33q-4 74 -29.5 135t-48 74t-43.5 13h-45zM977 574l63 -100q96 -141 169 -141h22v-61h-367v61h20q14 0 14 13q0 30 -67 125l-35 59q-31 1 -58 17v-88q0 -126 52 -126h21v-61h-368v61h20 q53 0 53 126v520q0 126 1 126h-55v61h369q87 -1 161 -53q65 -43 95.5 -112t30.5 -140q0 -69 -30 -137t-111 -150zM840 1462q152 0 291 -60.5t243 -169.5q99 -102 152.5 -237.5t53.5 -276.5q0 -142 -53.5 -275.5t-156.5 -239.5q-105 -110 -243 -168.5t-294 -58.5 q-153 0 -289 59.5t-242 169.5q-103 105 -155.5 237t-52.5 276q0 143 52.5 276.5t153.5 237.5q102 109 242.5 169.5t297.5 60.5zM361 1193q-86 -84 -140.5 -209t-54.5 -266q0 -142 54.5 -265.5t154.5 -219.5q98 -91 214.5 -138t244.5 -47q130 0 248 46.5t215 136.5 q100 97 155.5 222t55.5 265q0 139 -55.5 266t-151.5 220q-96 91 -215.5 138.5t-246.5 47.5q-130 0 -250.5 -47.5t-227.5 -149.5z" />
<glyph unicode="&#xaf;" horiz-adv-x="670" />
<glyph unicode="&#xb0;" horiz-adv-x="722" d="M537 1139q0 82 -56 128.5t-118 46.5t-119 -46.5t-57 -128.5q0 -80 57 -127.5t119 -47.5t118 47t56 128zM362 1441q134 0 218 -93.5t84 -209.5q0 -114 -85 -207.5t-219 -93.5t-217 92t-83 209q0 118 84 210.5t218 92.5z" />
<glyph unicode="&#xb1;" horiz-adv-x="1014" />
<glyph unicode="&#xb2;" horiz-adv-x="1014" />
<glyph unicode="&#xb3;" horiz-adv-x="1014" />
<glyph unicode="&#xb4;" horiz-adv-x="1024" d="M482 1366q38 37 67 53.5t67 16.5t57.5 -22.5t19.5 -52.5q0 -44 -21 -64t-56 -42l-309 -177h-85z" />
<glyph unicode="&#xb5;" horiz-adv-x="1180" />
<glyph unicode="&#xb6;" d="M1010 1441v-82h-127v-1365h-118v1365h-130v-1365h-160v700q-161 7 -269 117.5t-108 254.5q0 170 114.5 272.5t316.5 102.5h481z" />
<glyph unicode="&#xb7;" horiz-adv-x="553" d="M147 717q0 54 38 92t92 38t92 -38t38 -92t-38 -92t-92 -38t-92 38t-38 92z" />
<glyph unicode="&#xb8;" horiz-adv-x="1068" d="M355 -257q116 -71 174 -71q55 0 78 17t23 61q0 41 -41 57q-30 11 -93 11q-24 0 -54 -2l54 184h107l-35 -87q2 1 34 2q98 0 151.5 -45t53.5 -119q0 -78 -64 -126.5t-177 -48.5q-115 0 -211 38v129z" />
<glyph unicode="&#xb9;" horiz-adv-x="1014" />
<glyph unicode="&#xba;" horiz-adv-x="718" />
<glyph unicode="&#xbb;" horiz-adv-x="987" d="M460 166h-48v47l205 266l-205 266v47h48l353 -313zM149 166h-48v47l205 266l-205 266v47h48l353 -313z" />
<glyph unicode="&#xbc;" horiz-adv-x="1708" />
<glyph unicode="&#xbd;" horiz-adv-x="1964" />
<glyph unicode="&#xbe;" horiz-adv-x="1708" />
<glyph unicode="&#xbf;" horiz-adv-x="748" />
<glyph unicode="&#xc0;" horiz-adv-x="1540" />
<glyph unicode="&#xc1;" horiz-adv-x="1540" />
<glyph unicode="&#xc2;" horiz-adv-x="1540" />
<glyph unicode="&#xc3;" horiz-adv-x="1540" />
<glyph unicode="&#xc4;" horiz-adv-x="1540" />
<glyph unicode="&#xc5;" horiz-adv-x="1540" />
<glyph unicode="&#xc6;" horiz-adv-x="2118" />
<glyph unicode="&#xc7;" horiz-adv-x="1399" />
<glyph unicode="&#xc8;" horiz-adv-x="1151" />
<glyph unicode="&#xc9;" horiz-adv-x="1151" />
<glyph unicode="&#xca;" horiz-adv-x="1151" />
<glyph unicode="&#xcb;" horiz-adv-x="1151" />
<glyph unicode="&#xcc;" horiz-adv-x="657" />
<glyph unicode="&#xcd;" horiz-adv-x="657" />
<glyph unicode="&#xce;" horiz-adv-x="657" />
<glyph unicode="&#xcf;" horiz-adv-x="657" />
<glyph unicode="&#xd0;" horiz-adv-x="1518" />
<glyph unicode="&#xd1;" horiz-adv-x="1554" />
<glyph unicode="&#xd2;" horiz-adv-x="1614" />
<glyph unicode="&#xd3;" horiz-adv-x="1614" />
<glyph unicode="&#xd4;" horiz-adv-x="1614" />
<glyph unicode="&#xd5;" horiz-adv-x="1614" />
<glyph unicode="&#xd6;" horiz-adv-x="1614" />
<glyph unicode="&#xd7;" d="M554 604l-270 -270l-113 113l270 270l-270 270l113 113l270 -270l270 270l113 -113l-270 -270l270 -270l-113 -113z" />
<glyph unicode="&#xd8;" horiz-adv-x="1614" />
<glyph unicode="&#xd9;" horiz-adv-x="1501" />
<glyph unicode="&#xda;" horiz-adv-x="1501" />
<glyph unicode="&#xdb;" horiz-adv-x="1501" />
<glyph unicode="&#xdc;" horiz-adv-x="1501" />
<glyph unicode="&#xdd;" horiz-adv-x="1233" />
<glyph unicode="&#xde;" horiz-adv-x="1120" />
<glyph unicode="&#xdf;" horiz-adv-x="1251" />
<glyph unicode="&#xe0;" horiz-adv-x="922" />
<glyph unicode="&#xe1;" horiz-adv-x="922" />
<glyph unicode="&#xe2;" horiz-adv-x="922" />
<glyph unicode="&#xe3;" horiz-adv-x="922" />
<glyph unicode="&#xe4;" horiz-adv-x="922" />
<glyph unicode="&#xe5;" horiz-adv-x="922" />
<glyph unicode="&#xe6;" horiz-adv-x="1454" />
<glyph unicode="&#xe7;" horiz-adv-x="905" />
<glyph unicode="&#xe8;" horiz-adv-x="909" />
<glyph unicode="&#xe9;" horiz-adv-x="909" />
<glyph unicode="&#xea;" horiz-adv-x="909" />
<glyph unicode="&#xeb;" horiz-adv-x="909" />
<glyph unicode="&#xec;" horiz-adv-x="514" />
<glyph unicode="&#xed;" horiz-adv-x="514" />
<glyph unicode="&#xee;" horiz-adv-x="514" />
<glyph unicode="&#xef;" horiz-adv-x="514" />
<glyph unicode="&#xf0;" horiz-adv-x="1139" />
<glyph unicode="&#xf1;" />
<glyph unicode="&#xf2;" horiz-adv-x="1010" />
<glyph unicode="&#xf3;" horiz-adv-x="1010" />
<glyph unicode="&#xf4;" horiz-adv-x="1010" />
<glyph unicode="&#xf5;" horiz-adv-x="1010" />
<glyph unicode="&#xf6;" horiz-adv-x="1010" />
<glyph unicode="&#xf7;" d="M80 637v160h948v-160h-948zM428 404l95 89q18 15 34 15q14 0 34 -17l93 -91q13 -17 13 -31q0 -15 -16 -32l-91 -94q-24 -21 -33 -21q-19 0 -34 15l-101 107q-11 14 -11 27q0 16 17 33zM428 1090l95 89q18 15 34 15q14 0 34 -17l93 -91q13 -17 13 -31q0 -15 -16 -32 l-91 -94q-24 -21 -33 -21q-19 0 -34 15l-101 107q-11 14 -11 27q0 16 17 33z" />
<glyph unicode="&#xf8;" horiz-adv-x="1010" />
<glyph unicode="&#xf9;" horiz-adv-x="1059" />
<glyph unicode="&#xfa;" horiz-adv-x="1059" />
<glyph unicode="&#xfb;" horiz-adv-x="1059" />
<glyph unicode="&#xfc;" horiz-adv-x="1059" />
<glyph unicode="&#xfd;" horiz-adv-x="868" />
<glyph unicode="&#xfe;" horiz-adv-x="1010" />
<glyph unicode="&#xff;" horiz-adv-x="868" />
<glyph unicode="&#x2c6;" horiz-adv-x="902" d="M111 1079l245 358h149l245 -358h-99l-220 196l-221 -196h-99z" />
<glyph unicode="&#x2dc;" horiz-adv-x="1072" d="M856 1392q-22 -113 -75 -169t-144 -56q-70 0 -139.5 23.5t-121.5 23.5q-27 0 -44 -16t-31 -76h-67q21 117 74.5 174t146.5 57q62 -1 132 -24t122 -23q29 0 46 16t34 70h67z" />
<glyph unicode="&#x2000;" horiz-adv-x="922" />
<glyph unicode="&#x2001;" horiz-adv-x="1844" />
<glyph unicode="&#x2002;" horiz-adv-x="922" />
<glyph unicode="&#x2003;" horiz-adv-x="1844" />
<glyph unicode="&#x2004;" horiz-adv-x="614" />
<glyph unicode="&#x2005;" horiz-adv-x="461" />
<glyph unicode="&#x2006;" horiz-adv-x="307" />
<glyph unicode="&#x2007;" horiz-adv-x="307" />
<glyph unicode="&#x2008;" horiz-adv-x="230" />
<glyph unicode="&#x2009;" horiz-adv-x="368" />
<glyph unicode="&#x200a;" horiz-adv-x="102" />
<glyph unicode="&#x2010;" horiz-adv-x="1383" d="M210 890h788q147 0 184 -152v-88l-8 -8h-772q-149 0 -192 124l-8 60v56z" />
<glyph unicode="&#x2011;" horiz-adv-x="1383" d="M210 890h788q147 0 184 -152v-88l-8 -8h-772q-149 0 -192 124l-8 60v56z" />
<glyph unicode="&#x2012;" horiz-adv-x="1383" d="M210 890h788q147 0 184 -152v-88l-8 -8h-772q-149 0 -192 124l-8 60v56z" />
<glyph unicode="&#x2013;" d="M56 399v160h996v-160h-996z" />
<glyph unicode="&#x2014;" horiz-adv-x="2048" d="M0 399v160h2048v-160h-2048z" />
<glyph unicode="&#x2018;" horiz-adv-x="625" d="M401 1006q-75 0 -123 70.5t-48 156.5q0 108 74 231t184 123v-55q-73 -43 -87 -188q0 -115 129 -157v-46z" />
<glyph unicode="&#x2019;" horiz-adv-x="625" d="M224 1587q75 0 123 -70.5t48 -156.5q0 -108 -74 -231t-184 -123v55q73 43 87 188q0 115 -129 157v46z" />
<glyph unicode="&#x201a;" horiz-adv-x="625" d="M348 268q75 0 123 -70.5t48 -156.5q0 -108 -74 -231t-184 -123v55q73 43 87 188q0 115 -129 157v46z" />
<glyph unicode="&#x201c;" horiz-adv-x="985" d="M401 1006q-75 0 -123 70.5t-48 156.5q0 108 74 231t184 123v-55q-73 -43 -87 -188q0 -115 129 -157v-46zM761 1006q-75 0 -123 70.5t-48 156.5q0 108 74 231t184 123v-55q-73 -43 -87 -188q0 -115 129 -157v-46z" />
<glyph unicode="&#x201d;" horiz-adv-x="985" d="M584 1587q75 0 123 -70.5t48 -156.5q0 -108 -74 -231t-184 -123v55q73 43 87 188q0 115 -129 157v46zM224 1587q75 0 123 -70.5t48 -156.5q0 -108 -74 -231t-184 -123v55q73 43 87 188q0 115 -129 157v46z" />
<glyph unicode="&#x201e;" horiz-adv-x="985" d="M708 267q75 0 123 -70.5t48 -156.5q0 -107 -74 -230t-184 -123v55q73 43 87 188q0 114 -129 156v46zM348 268q75 0 123 -70.5t48 -156.5q0 -108 -74 -231t-184 -123v55q73 43 87 188q0 115 -129 157v46z" />
<glyph unicode="&#x2022;" d="M220 718q0 129 93.5 231t241.5 102q147 0 240 -103t93 -230t-94 -231t-241 -104q-148 0 -240.5 103.5t-92.5 231.5z" />
<glyph unicode="&#x2026;" horiz-adv-x="2048" d="M274 177l95 89q18 15 34 15q14 0 34 -17l93 -91q13 -17 13 -31q0 -15 -16 -32l-91 -94q-24 -21 -33 -21q-19 0 -34 15l-101 107q-11 14 -11 27q0 16 17 33zM956 177l95 89q18 15 34 15q14 0 34 -17l93 -91q13 -17 13 -31q0 -15 -16 -32l-91 -94q-24 -21 -33 -21 q-19 0 -34 15l-101 107q-11 14 -11 27q0 16 17 33zM1640 177l95 89q18 15 34 15q14 0 34 -17l93 -91q13 -17 13 -31q0 -15 -16 -32l-91 -94q-24 -21 -33 -21q-19 0 -34 15l-101 107q-11 14 -11 27q0 16 17 33z" />
<glyph unicode="&#x202f;" horiz-adv-x="368" />
<glyph unicode="&#x2039;" horiz-adv-x="676" d="M174 479l353 313h48v-47l-205 -266l205 -266v-47h-48z" />
<glyph unicode="&#x203a;" horiz-adv-x="676" d="M149 166h-48v47l205 266l-205 266v47h48l353 -313z" />
<glyph unicode="&#x205f;" horiz-adv-x="461" />
<glyph unicode="&#x20ac;" d="M90 853q19 109 68 217q80 176 238 280t333 104q94 0 142.5 -21t57.5 -21q21 0 21 44h84l89 -298h-89q-56 133 -152 178.5t-197 45.5q-150 -9 -257 -202q-79 -142 -100 -327h571l-17 -80h-561q-1 -30 -1 -60h546l-17 -80h-526q18 -208 131 -383q133 -209 290 -209h2 q130 2 221.5 72t93.5 185h81v-146q0 -56 -94.5 -117t-301.5 -64q-196 0 -353.5 105.5t-235.5 279.5q-62 136 -75 277h-126l17 80h105q0 30 2 60h-90l17 80h83z" />
<glyph unicode="&#x2122;" horiz-adv-x="1497" />
<glyph unicode="&#xe000;" horiz-adv-x="1250" d="M0 1250h1250v-1250h-1250v1250z" />
</font>
</defs>
</svg>
