<?xml version="1.0" standalone="no"?>
<!DOCTYPE svg PUBLIC "-//W3C//DTD SVG 1.1//EN" "http://www.w3.org/Graphics/SVG/1.1/DTD/svg11.dtd" >
<svg xmlns="http://www.w3.org/2000/svg">
<metadata></metadata>
<defs>
<font id="kalocsai_flowersregular" horiz-adv-x="870" >
<font-face units-per-em="1000" ascent="800" descent="-200" />
<missing-glyph horiz-adv-x="500" />
<glyph horiz-adv-x="1000" />
<glyph horiz-adv-x="1000" />
<glyph unicode="&#xd;" horiz-adv-x="500" />
<glyph unicode=" "  horiz-adv-x="500" />
<glyph unicode="&#x09;" horiz-adv-x="500" />
<glyph unicode="&#xa0;" horiz-adv-x="500" />
<glyph unicode="0" horiz-adv-x="595" d="M86 141l157 229l156 -229h-100l-56 -139l-57 139h-100zM3 277q-3 7 -3 14q0 39 52 73q56 38 130 38q24 0 48 -5v0q-19 -8 -54 -56q-44 -62 -58 -77q-32 -33 -63 -33q-35 0 -52 46zM18 551q18 45 60 45q35 0 48 -36q13 -39 38 -76q33 -48 66 -57v0q-18 -3 -35 -3 q-73 0 -129 39q-51 37 -51 74q0 7 3 14zM261 407v0q17 -12 76 -18q75 -7 95 -12q66 -17 66 -61q0 -22 -21 -47q-13 -16 -40 -16q-46 0 -96 39q-56 45 -80 115zM178 568q0 37 28 78q13 20 57 69q16 25 49 74q4 4 8 4q7 0 7 -6q0 -3 -1 -6q-15 -24 -37 -75q-7 -26 -7 -59 q0 -13 3 -64q3 -41 1 -68q-4 -48 -43 -48q-30 0 -49 37q-16 32 -16 64zM271 439v0q20 5 62 45q54 52 70 63q31 22 58 22q42 0 53 -52q7 -33 -39 -63q-49 -30 -116 -30q-45 0 -88 15z" />
<glyph unicode="1" horiz-adv-x="678" d="M300 321q59 -128 59 -205q0 -56 -23 -114q-81 100 -81 176q0 61 45 143zM62 193q36 18 48 45q6 14 10 52q4 35 15.5 56t84.5 77q68 51 79 85v0q11 -34 79 -85q73 -56 85 -77t15 -56q4 -38 10 -52q12 -27 49 -45l-3 -5l-141 73q-33 17 -60 71q-25 49 -34 105 q-9 -56 -34 -105q-27 -54 -60 -71l-141 -73zM18 387q53 14 71 57l30 86q14 27 80 58.5t83 62.5q4 -16 4 -34q0 -61 -31 -117q-35 -60 -87 -75l-149 -43zM0 558q61 17 87 62q21 47 41 93q22 42 74 65q41 18 73 15q6 -19 6 -41q0 -50 -30 -92q-31 -45 -80 -59l-169 -49z M316 651q17 -31 83 -62.5t80 -58.5q15 -43 31.5 -86t69.5 -57l-1 -5l-149 43q-52 15 -86 75q-32 56 -32 117q0 18 4 34zM323 793q31 3 73 -15q52 -23 74 -65q20 -46 41 -93q26 -45 87 -62l-1 -6l-170 49q-49 14 -80 57.5t-31 92.5q0 23 7 42z" />
<glyph unicode="2" horiz-adv-x="819" d="M346 27q0 24 24 24q23 0 23 -24t-23 -24v0q-24 0 -24 24zM293 85q0 23 25 23q24 0 24 -23q0 -24 -24 -24v0q-25 0 -25 24zM248 178q0 24 25 24q23 0 23 -24t-23 -24v0q-25 0 -25 24zM398 85q0 23 25 23q23 0 23 -23q0 -24 -23 -24v0q-25 0 -25 24zM25 456q40 45 108 84 q63 33 125 66v0q-69 -61 -112 -185q-25 -71 -84 -71q-23 0 -42.5 14.5t-19.5 37.5q0 26 25 54zM75 227v0q78 43 102 200q25 163 146 184q-50 -51 -50 -149q0 -20 10 -136q4 -50 -30.5 -83t-92.5 -33q-41 0 -85 17zM443 178q0 24 24 24q25 0 25 -24t-25 -24v0q-24 0 -24 24z M26 583q6 68 97 70q41 1 78 -10q29 -10 58 -21v0q-40 -21 -80 -41q-47 -25 -81 -36q-13 -5 -27 -5q-49 0 -45 43zM370 619q78 -58 78 -210q0 -149 -78 -246q-77 97 -77 246q0 152 77 210zM128 674q-23 4 -23 29q0 22 21.5 41t59.5 19q95 0 107 -127q-6 -3 -16 -9v0 q-60 33 -149 47zM417 611q121 -21 146 -184q25 -157 102 -200v0q-44 -17 -85 -17q-58 0 -93 33t-30 83q10 113 10 136q0 98 -50 149zM311 628q-9 87 60 89q30 1 42.5 -21t9.5 -61v0q-25 7 -49 7q-32 0 -63 -14zM516 574q36 -15 100 -9q75 8 87 7q37 -5 36 -49 q0 -38 -25.5 -61.5t-66.5 -23.5q-31 0 -66 41q-21 25 -65 95zM467 612v0q34 -3 70 19q22 13 78 62q19 17 40 17t36 -16.5t15 -37.5q0 -12 -7 -23q-39 -61 -109 -61q-56 0 -123 40zM435 632q21 54 43 107.5t60 53.5q9 0 19 -2q54 -14 54 -53q0 -29 -35 -66q-45 -46 -108 -46 v0z" />
<glyph unicode="3" horiz-adv-x="817" d="M187 73q0 13 9.5 22.5t22.5 9.5t23 -9.5t10 -22.5t-10 -22.5t-23 -9.5v0q-32 0 -32 32zM90 343q32 0 32 -31q0 -32 -32 -32t-32 32q0 12 9 21.5t23 9.5zM336 35q0 32 31 32q14 0 23.5 -9.5t9.5 -22.5t-9.5 -22.5t-23.5 -9.5v0q-13 0 -22 9.5t-9 22.5zM108 163l109 177 q19 25 44 25q20 0 34 -14.5t14 -34.5q0 -33 -25 -43zM253 108q71 50 109 160h11q38 -109 109 -160l-7 -9q-68 49 -102 135v0v-151h-11v151q-38 -89 -101 -135zM0 424l202 47q8 2 13 2q20 0 34 -14.5t14 -34.5t-14 -34.5t-34 -14.5q-6 0 -13 2zM484 73q0 13 9.5 22.5 t22.5 9.5t22.5 -9.5t9.5 -22.5t-9.5 -22.5t-22.5 -9.5q-32 0 -32 32zM56 541q-2 31 30 34v0q31 2 33 -30q1 -13 -7.5 -23t-21.5 -11q-14 -1 -24 8t-10 22zM107 685l176 -110q2 -1 11 -7q14 -15 14 -35t-14 -34.5t-35 -14.5q-20 0 -34 14q-2 2 -8 10zM314 425q0 22 15.5 37.5 t37.5 15.5v0q23 0 38.5 -15t15.5 -38q0 -22 -15.5 -37.5t-38.5 -15.5q-21 0 -37 15.5t-16 37.5zM478 365q20 0 34 -14q3 -3 8 -10l110 -177l-177 110q-7 4 -10 8q-14 14 -14 34q0 21 14.5 35t34.5 14zM249 734q12 0 21 -8v0q11 -10 11 -24q0 -31 -32 -31t-32 32q0 31 32 31z M614 312q0 31 32 31q31 0 31 -31q0 -32 -31 -32v0q-32 0 -32 32zM319 578q0 6 2 13l46 202l48 -202q2 -8 2 -13q0 -20 -14.5 -34.5t-35.5 -14.5q-20 0 -34 14.5t-14 34.5zM473 425q0 20 14.5 34.5t34.5 14.5q6 0 13 -1l202 -48l-202 -47q-6 -2 -13 -2q-20 0 -34.5 14.5 t-14.5 34.5zM442 568q5 5 10 8l177 110l-117 -187q-15 -14 -35 -14t-34.5 14.5t-14.5 34.5t14 34zM455 702q-1 31 31 32q13 1 22.5 -8t10.5 -23v0q0 -31 -31 -32q-13 0 -23 9t-10 22zM647 575q33 0 33 -32q0 -12 -9 -21v0q-9 -11 -23 -11q-32 0 -32 32t31 32z" />
<glyph unicode="4" horiz-adv-x="971" d="M224 156q35 -30 80 -22q21 -23 21 -53q0 -32 -23 -55t-55 -23q-10 0 -20 3v0q-26 6 -42 27t-16 47q0 59 55 76zM134 299q40 0 63 -32q-2 -4 -5 -11q-9 -39 10 -73q-22 -40 -69 -40q-10 0 -20 3v0q-26 6 -41.5 27.5t-15.5 47.5q0 32 22.5 55t55.5 23zM287 312 q34 0 57.5 -24t23.5 -58t-23.5 -57.5t-57.5 -23.5q-11 0 -21 2v0q-27 8 -44 30t-17 49q0 34 24 58t58 24zM337 146q33 20 45 59q1 8 1 12q27 11 53 4q25 -6 41 -27.5t16 -47.5q0 -33 -23 -56t-55 -23q-10 0 -20 3v0q-26 7 -42 28.5t-16 47.5zM226 451q33 0 55.5 -22.5 t22.5 -55.5q0 -26 -15 -45q-44 0 -74 -32q-3 0 -9 2v0q-26 7 -42 28t-16 48q0 32 23 54.5t55 22.5zM333 315q-3 35 20 61t59 26q32 0 54.5 -23t22.5 -55t-22.5 -55t-54.5 -23q-11 0 -21 3v0q-3 1 -9 2q-10 44 -49 64zM0 498q85 83 152 114q55 25 135 28q87 2 175 4 q21 73 24 149l17 -1q-3 -71 -20 -135q23 -68 51.5 -102t90.5 -67q32 33 78 33q41 0 71.5 -26t36.5 -65l69 68l11 -13l-72 -74l72 -74l-11 -12l-69 69q-6 -40 -36.5 -66.5t-71.5 -26.5q-45 0 -77.5 32.5t-32.5 77.5q0 34 20 64q-57 30 -87 62.5t-51 90.5q-45 -140 -139 -245 l-14 12q90 98 136 236q-161 -136 -382 -136q-36 0 -76 3z" />
<glyph unicode="5" horiz-adv-x="1020" d="M274 133q0 21 15 36t37 15t37 -15t15 -36q0 -22 -15.5 -37t-36.5 -15v0q-22 0 -37 15t-15 37zM418 54q0 22 15 37.5t36 15.5q22 0 37 -15.5t15 -37.5q0 -21 -15 -36t-37 -15v0q-21 0 -36 15t-15 36zM561 133q0 21 15.5 36t37.5 15q21 0 36 -15t15 -36q0 -22 -15 -37 t-36 -15v0q-22 0 -37.5 15t-15.5 37zM356 213l100 215q3 6 13 6q11 0 14 -6l100 -215l-27 -13l-72 154v-211h-30v211l-71 -154zM760 526q86 -14 133 -65t47 -120q0 -75 -54 -144q-58 -74 -164 -118q32 68 32 139q0 113 -82 191.5t-203 78.5q-120 0 -201.5 -78.5 t-81.5 -191.5q0 -74 32 -139q-106 44 -164 118q-54 69 -54 144q0 69 46.5 120t132.5 65h581zM179 526q-28 43 -28 93q0 72 51.5 123t123.5 51q93 0 143 -74q52 74 144 74q72 0 123.5 -51t51.5 -123q0 -50 -28 -93h-581z" />
<glyph unicode="6" horiz-adv-x="488" d="M0 90q31 28 41 38q21 24 27 49q5 18 5 42q0 10 -1 30t-1 30q0 46 20 82q25 46 66 46q15 0 32 -7q37 -15 37 -66q0 -25 -9.5 -51t-40 -61.5t-39.5 -55.5q-14 -31 -14 -67q0 -22 5 -46q-37 39 -41 80v0q-32 -23 -40 -27q-23 -13 -47 -16zM243 301q7 77 77 78 q31 1 51.5 -28.5t23.5 -73.5q2 -29 -12.5 -75.5t-14.5 -69.5q0 -58 40 -113q-49 22 -72 61v0q-21 -35 -27 -42q-16 -23 -37 -35q28 63 28 94q0 32 -31 96q-30 60 -26 108zM5 423q18 19 31 95q14 85 26 109q19 35 58.5 67t54.5 58v0q3 -30 3 -57q0 -207 -173 -272zM182 421 q19 48 23 113q2 43 -3 122l19 1q5 -79 2 -124q-3 -66 -24 -119zM175 783l15 10q119 -177 129 -399l-18 -1q-10 219 -126 390z" />
<glyph unicode="7" horiz-adv-x="768" d="M175 113q0 18 13 31.5t31 13.5q19 0 32 -13.5t13 -31.5v0q0 -19 -13 -32t-32 -13q-18 0 -31 13.5t-13 31.5zM299 47q0 19 13 32t32 13q18 0 31.5 -13t13.5 -32q0 -18 -13.5 -31.5t-31.5 -13.5q-19 0 -32 13.5t-13 31.5zM423 113q0 18 13.5 31.5t31.5 13.5q19 0 32 -13.5 t13 -31.5v0q0 -19 -13 -32t-32 -13q-18 0 -31.5 13.5t-13.5 31.5zM267 315l63 258q5 21 14 21t14 -21l64 -258q3 -16 3 -31q0 -37 -24 -58.5t-57 -21.5t-57 21.5t-24 59.5q0 14 4 30zM0 449q1 103 76 129q-7 33 -7 62q0 68 43 110.5t111 42.5q39 0 71.5 -24t49.5 -62v0 q17 38 49.5 62t70.5 24q68 0 111.5 -42.5t43.5 -110.5q0 -29 -7 -62q76 -26 76 -129q0 -50 -64.5 -123.5t-64.5 -118.5q0 -36 44 -89q-100 50 -100 148q0 38 15 96t15 102q1 74 -59 117q-53 39 -130 39t-130 -39q-59 -43 -59 -117q0 -44 14.5 -102t14.5 -96q0 -99 -99 -148 q44 52 43 89q0 45 -64 118.5t-64 123.5z" />
<glyph unicode="8" horiz-adv-x="595" d="M12 153q163 12 245 150v0q84 -138 246 -150q-12 -41 -38 -70q-32 -34 -73 -35q-30 -1 -45 12q-36 -57 -90 -57q-53 0 -88 57q-16 -13 -47 -12q-40 1 -71 35q-27 30 -39 70zM0 175q28 21 29 52q1 89 10 268q11 108 72 159q48 40 138 49v0v-284q0 -219 -249 -244zM267 703 q89 -9 137 -49q61 -51 72 -159q5 -52 6 -134q3 -113 4 -134q1 -31 29 -52q-248 25 -248 244v284zM186 713q6 80 71 80q67 0 72 -80q-38 10 -71 10t-72 -10z" />
<glyph unicode="9" horiz-adv-x="704" d="M95 133q41 24 68 89q36 87 46 102q35 48 103 48v0q69 0 103 -48q11 -15 46 -102q27 -65 68 -89q-22 -72 -87 -72q-19 0 -42 6q-16 -64 -88 -64t-88 64q-23 -6 -42 -6q-65 0 -87 72zM26 331q4 12 4 25q0 12 -6.5 34t-6.5 33q0 22 16 45q14 20 47 31q41 12 45.5 15.5 t41.5 42.5q21 23 47 22q71 -2 75 -63l8 -116q-69 1 -113 -61q-12 -17 -58 -117q-29 -63 -61 -63q-13 0 -28 8q-37 19 -37 61q0 27 26 103zM327 400v0l9 116q4 61 75 63q25 1 47 -22q37 -39 41 -42.5t44 -16.5q34 -10 47 -30q17 -23 17 -45q0 -11 -6.5 -33t-6.5 -35 q0 -12 4 -24q26 -76 26 -104q0 -41 -37 -60q-15 -8 -28 -8q-32 0 -61 63q-46 100 -58 117q-44 62 -113 61zM196 696q15 -1 37 -3t32 -2q23 0 48 8q-60 -71 -108 -71q-20 0 -31.5 12t-11.5 27q0 30 34 29zM307 560q-3 23 -3 45q0 118 104 188l10 -15q-113 -75 -93 -215z M414 763v0q4 -30 18.5 -55.5t28.5 -51.5q5 -10 5 -18q0 -29 -31 -29q-45 0 -45 61q0 38 24 93z" />
<glyph unicode="@" horiz-adv-x="80" />
<glyph unicode="A" d="M670 487l-94 -11q-32 -4 -32 19q0 10 8 22l56 76q31 41 67 41q29 0 50.5 -24.5t21.5 -54.5q0 -59 -77 -68zM587 612l-75 -57q-12 -8 -22 -8q-23 0 -19 32l11 94q9 77 68 77q30 0 54.5 -21t24.5 -50q0 -36 -42 -67zM678 337l-86 37q-21 10 -21 24q0 15 21 24l86 37 q25 11 46 11q31 0 50 -23q16 -20 16 -49t-16 -49q-19 -23 -50 -23q-21 0 -46 11zM453 679l-37 -87q-9 -21 -24 -21t-24 21l-37 87q-11 25 -11 45q0 32 23 50q20 17 49 17t50.5 -17.5t21.5 -48.5q0 -21 -11 -46zM522 423v0q-8 -23 -30 -15q-23 7 -15 30q7 21 29 15 q22 -7 16 -30zM418 507q0 -24 -23 -24t-23 24q0 23 23 23v0q23 0 23 -23zM672 309q78 -9 78 -68q0 -30 -21.5 -55t-50.5 -25q-36 0 -66 42l-57 76q-8 12 -8 22q0 23 32 19zM315 576q3 -32 -20 -32q-10 0 -21 9l-77 55q-41 31 -41 67q0 29 25 50.5t55 21.5q59 0 68 -77z M451 395q0 -22 -16.5 -38.5t-39.5 -16.5t-39 16.5t-16 38.5q0 23 16 39.5t39 16.5v0q23 0 39.5 -16.5t16.5 -39.5zM488 301q-7 -23 -30 -15q-22 8 -15 29q8 23 30 15q22 -7 15 -29zM313 423v0q-8 -22 -29 -15q-23 7 -15 30q8 21 29 15q23 -7 15 -30zM592 182q42 -31 42 -67 q0 -29 -24.5 -50.5t-54.5 -21.5q-59 0 -68 78l-11 93q-4 33 19 33q10 0 22 -9zM235 512q9 -12 9 -22q0 -23 -32 -19l-95 11q-77 9 -77 68q0 30 21.5 54.5t50.5 24.5q36 0 67 -41zM347 301v0q-8 -23 -30 -15q-21 7 -15 29q7 23 30 15q22 -7 15 -29zM459 112q11 -25 11 -46 q0 -31 -21.5 -48.5t-50.5 -17.5t-50.5 17.5t-21.5 48.5q0 21 11 46l37 86q9 21 24 21t24 -21zM198 369l-86 -38q-25 -11 -46 -11q-31 0 -48.5 21.5t-17.5 50.5t17.5 50.5t48.5 21.5q21 0 46 -11l86 -37q21 -9 21 -23q0 -15 -21 -24zM320 212l-11 -94q-9 -78 -68 -78 q-30 0 -55 21.5t-25 51.5q0 36 41 66l76 56q12 9 22 9q24 0 20 -32zM237 274l-55 -76q-31 -41 -67 -41q-29 0 -50.5 24.5t-21.5 54.5q0 59 77 68l94 11q32 4 32 -19q0 -10 -9 -22z" />
<glyph unicode="B" horiz-adv-x="595" d="M429 655l-157 -229l-156 229h100l56 138l57 -138h100zM512 518q3 -6 3 -14q0 -38 -52 -73q-56 -37 -130 -37q-24 0 -48 4v0q19 9 54 57q44 62 58 77q32 33 62 33q35 0 53 -47zM497 245q-18 -45 -60 -45q-36 0 -49 37.5t-37 73.5q-33 48 -66 58v0q18 3 35 3q72 0 129 -40 q51 -36 51 -73q0 -8 -3 -14zM254 388v0q-17 13 -76 19q-76 7 -96 12q-65 17 -65 61q0 22 20 47q13 16 41 16q46 0 95 -40q57 -44 81 -115zM337 227q0 -36 -28 -77q-13 -20 -57 -69q-16 -25 -50 -74q-3 -5 -8 -5q-7 0 -7 7q0 3 2 5q15 25 37 75q7 26 7 60q0 13 -3 64 q-3 41 -1 68q4 48 43 48q30 0 49 -37q16 -32 16 -65zM244 357v0q-20 -5 -62 -45q-55 -52 -70 -64q-31 -22 -58 -22q-42 0 -53 53q-7 33 40 63t115 30q45 0 88 -15z" />
<glyph unicode="C" d="M676 683v0q-42 -192 -214 -213q22 172 214 213zM397 498q-54 69 -54 144q0 76 54 158v0q53 -82 53 -158q0 -75 -53 -144zM790 403v0q-82 -53 -158 -53q-75 0 -144 53q69 54 144 54q76 0 158 -54zM330 472q-172 22 -213 213v0q190 -41 213 -213zM431 404 q0 -14 -10.5 -24.5t-25.5 -10.5t-25.5 10.5t-10.5 24.5q0 15 10.5 25.5t25.5 10.5t25.5 -10.5t10.5 -25.5zM673 124v0q-191 42 -213 214q173 -23 213 -214zM302 406q-69 -53 -145 -53q-75 0 -157 53v0q82 53 157 53q76 0 145 -53zM393 9v0q-53 82 -53 158q0 75 53 144 q54 -69 54 -144q0 -76 -54 -158zM327 339q-21 -172 -213 -213v0q42 192 213 213z" />
<glyph unicode="D" horiz-adv-x="819" d="M393 769q0 -24 -24 -24q-23 0 -23 24t23 24v0q24 0 24 -24zM446 711q0 -23 -24 -23q-25 0 -25 23q0 24 25 24v0q24 0 24 -24zM491 618q0 -24 -24 -24t-24 24t24 24v0q24 0 24 -24zM341 711q0 -23 -24 -23t-24 23q0 24 24 24v0q24 0 24 -24zM714 340q-40 -45 -108 -84 q-62 -33 -125 -66v0q69 61 112 185q25 71 84 71q23 0 42.5 -14.5t19.5 -37.5q0 -26 -25 -54zM664 568v0q-78 -43 -102 -199q-25 -163 -145 -184q49 51 49 149q0 20 -9 136q-5 50 30 83t92 33q41 0 85 -18zM296 618q0 -24 -24 -24q-25 0 -25 24t25 24v0q24 0 24 -24zM713 213 q-6 -68 -97 -70q-41 -1 -78 10l-58 20v0l80 42q47 25 81 36q13 5 27 5q49 0 45 -43zM369 177q-77 58 -77 210q0 149 77 246q78 -97 78 -246q0 -152 -78 -210zM611 122q24 -4 24 -29q0 -23 -20 -40q-24 -20 -62 -20q-95 0 -106 127l15 9v0q60 -33 149 -47zM322 185 q-121 21 -146 184q-25 157 -102 199v0q45 18 85 18q58 0 93 -33t30 -83q-9 -113 -9 -136q0 -98 49 -149zM428 168q9 -87 -60 -89q-30 -2 -42.5 20.5t-8.5 61.5v0q24 -7 48 -7q32 0 63 14zM223 222q-36 15 -100 9q-75 -8 -86 -7q-37 5 -37 49q0 37 25.5 61t66.5 24 q31 0 66 -41q21 -25 65 -95zM272 183v0q-34 4 -69 -18q-23 -13 -79 -62q-19 -17 -40 -17t-36 16.5t-15 37.5q0 12 7 23q40 61 109 61q57 0 123 -41zM304 164q-21 -54 -43 -107.5t-60 -53.5q-9 0 -19 2q-53 14 -53 52q0 30 34 67q45 46 108 46v0z" />
<glyph unicode="E" horiz-adv-x="817" d="M550 723q0 -13 -9.5 -22.5t-22.5 -9.5t-22.5 9.5t-9.5 22.5t9.5 22.5t22.5 9.5v0q32 0 32 -32zM647 453q-31 0 -31 31q0 32 31 32q32 0 32 -32q0 -12 -9 -21.5t-23 -9.5zM402 761q0 -32 -32 -32q-13 0 -23 9.5t-10 22.5t10 22.5t23 9.5v0q13 0 22.5 -9.5t9.5 -22.5z M629 633l-109 -177q-18 -25 -43 -25q-20 0 -34 14.5t-14 34.5q0 33 24 43zM484 688q-71 -50 -109 -160h-11q-38 109 -108 160l6 10q68 -50 102 -136v0v151h11v-151q39 89 102 136zM737 372l-201 -47q-9 -2 -14 -2q-20 0 -34 14.5t-14 34.5t14 34.5t34 14.5q7 0 14 -2z M253 723q0 -13 -9 -22.5t-22 -9.5q-14 0 -23.5 9.5t-9.5 22.5t9.5 22.5t23.5 9.5q31 0 31 -32zM681 255q2 -31 -30 -34v0q-31 -1 -33 30q-1 13 8 23t21 11q14 1 24 -8t10 -22zM630 111l-176 110q-2 1 -11 7q-14 15 -14 35t14 34.5t35 14.5t34 -14q2 -2 9 -10zM423 371 q0 -22 -15.5 -37.5t-37.5 -15.5v0q-23 0 -38 15t-15 38q0 22 15.5 37.5t37.5 15.5t37.5 -15.5t15.5 -37.5zM260 431q-21 0 -35 14q-3 3 -8 10l-110 177l177 -110q7 -4 10 -8q14 -14 14 -34q0 -21 -14 -35t-34 -14zM489 62q-12 0 -22 8v0q-10 10 -10 24q0 31 31 31 q32 0 32 -32q0 -31 -31 -31zM123 484q0 -31 -31 -31q-32 0 -32 31q0 32 32 32v0q31 0 31 -32zM418 218q0 -6 -1 -13l-47 -202l-48 202q-1 8 -1 13q0 20 14 34.5t35 14.5q20 0 34 -14.5t14 -34.5zM264 371q0 -20 -14.5 -34.5t-34.5 -14.5q-5 0 -13 1l-202 48l202 47q7 2 13 2 q20 0 34.5 -14.5t14.5 -34.5zM295 228q-5 -5 -10 -8l-177 -110l118 187q14 14 34 14q21 0 35 -14.5t14 -34.5t-14 -34zM282 94q1 -31 -30 -32q-13 -1 -23 8.5t-11 22.5v0q0 31 31 32q13 0 23 -9t10 -22zM90 221q-32 0 -32 32q0 12 8 21v0q9 11 23 11q32 0 32 -32t-31 -32z " />
<glyph unicode="F" horiz-adv-x="682" d="M602 557q-57 -56 -147 -56q-33 0 -101 10v-2q88 -33 111 -91l32 -118q-74 17 -168 178v0q28 -61 28 -112q0 -76 -65 -128q3 33 -9 69q-13 41 -13 72q0 36 12 89q-73 -110 -137 -110q-9 0 -25.5 2t-25.5 2q-22 0 -42 -9q52 104 188 148q-1 0 -1 1q-90 -12 -109 -12 q-79 0 -130 83l140 14q62 0 98 -31v0q-82 93 -82 199q0 18 2 38q15 -24 51.5 -59t50.5 -55q25 -38 31 -87q13 85 63 129q46 35 92 71q1 -13 1 -25q0 -98 -101 -201v0q48 32 91 32q30 0 84 -22q51 -22 81 -19zM326 180q0 -18 -46 -35q-64 -23 -86 -39q11 -47 42 -98l-9 -5 q-50 82 -51 170q-17 24 -65 62q-38 30 -38 45q0 10 9 18t19 8q22 0 44.5 -36.5t31.5 -84.5v8q5 85 60 180l10 -5q-55 -93 -60 -175q-3 -42 6 -83q21 41 51.5 70t53.5 29q12 0 20 -9t8 -20zM345 528q0 21 -14.5 35.5t-34.5 14.5v0q-20 0 -34.5 -14.5t-14.5 -35.5 q0 -20 14.5 -34t34.5 -14t34.5 14t14.5 34zM330 528q0 -34 -34 -34q-15 0 -25 10t-10 24q0 15 10 25t25 10v0q14 0 24 -10t10 -25z" />
<glyph unicode="G" horiz-adv-x="971" d="M667 640q-35 30 -80 22q-21 23 -21 53q0 32 23 55t55 23q11 0 21 -3v0q26 -7 41.5 -28t15.5 -47q0 -58 -55 -75zM758 497q-41 0 -63 31q1 4 4 12q10 39 -9 73q21 40 68 40q10 0 20 -3v0q26 -7 42 -28t16 -47q0 -32 -23 -55t-55 -23zM604 484q-33 0 -57 24t-24 58t24 57.5 t57 23.5q11 0 22 -3v0q27 -7 43.5 -29t16.5 -50q0 -33 -24 -57t-58 -24zM554 649q-32 -19 -44 -58q-2 -8 -2 -13q-26 -11 -52 -4t-42 28.5t-16 47.5q0 32 23 55t56 23q10 0 20 -2v0q26 -8 42 -29t15 -48zM665 344q-32 0 -55 23t-23 55q0 26 15 46q44 0 74 31q3 0 10 -1v0 q25 -7 41 -28.5t16 -47.5q0 -32 -22.5 -55t-55.5 -23zM558 480q3 -35 -20 -61t-58 -26q-32 0 -55 23t-23 56q0 32 22.5 55t55.5 23q10 0 21 -3v0q3 -1 8 -3q11 -43 49 -64zM891 298q-84 -84 -152 -115q-55 -25 -134 -28q-88 -2 -175 -3q-22 -73 -24 -149l-18 1q3 70 20 135 q-23 67 -51 101t-90 68q-32 -34 -79 -34q-41 0 -71.5 26.5t-36.5 65.5l-68 -68l-12 12l72 74l-72 74l12 13l68 -69q6 39 36.5 65.5t71.5 26.5q45 0 77.5 -32.5t32.5 -77.5q0 -34 -20 -63q57 -31 86 -62q31 -34 53 -91q44 140 139 245l13 -12q-90 -98 -136 -237 q162 137 382 137q37 0 76 -3z" />
<glyph unicode="H" horiz-adv-x="1020" d="M666 663q0 -21 -15.5 -36t-36.5 -15q-22 0 -37 15t-15 36q0 22 15 37t37 15v0q21 0 36.5 -15t15.5 -37zM522 742q0 -22 -15 -37.5t-37 -15.5q-21 0 -36 15.5t-15 37.5q0 21 15 36t36 15v0q21 0 36.5 -15t15.5 -36zM379 663q0 -21 -15.5 -36t-37.5 -15q-21 0 -36.5 15 t-15.5 36q0 22 15.5 37t36.5 15v0q22 0 37.5 -15t15.5 -37zM584 583l-100 -215q-3 -6 -14 -6t-13 6l-100 215l27 13l71 -154v211h30v-211l72 154zM218 717q-32 -68 -32 -139q0 -113 81.5 -191.5t202.5 -78.5t202 78.5t81 191.5q0 74 -31 139q106 -44 164 -118 q54 -69 54 -144q0 -69 -47 -120t-132 -65q27 -43 27 -93q0 -72 -51 -123t-123 -51q-93 0 -144 74q-51 -74 -143 -74q-73 0 -124 51t-51 123q0 50 27 93q-85 14 -133 67q-46 49 -46 118q0 75 54 144q58 74 164 118z" />
<glyph unicode="I" horiz-adv-x="1015" d="M656 565q-104 57 -201 57q-93 0 -186 -52v0q-37 50 -37 97q0 53 42.5 88.5t98.5 35.5q62 0 105 -44q49 41 106 41q58 0 101.5 -39t43.5 -88q0 -62 -73 -96zM625 548q-69 -78 -153 -78q-87 0 -181 81v0q67 41 150 41q87 0 184 -44zM834 290q8 -93 -55 -146 q-57 -47 -145 -47q-83 0 -143 42q-66 46 -66 121q0 20 5 43q45 -42 111 -42q59 0 107.5 36t60.5 100q52 -2 81 29q25 28 25 69q0 13 -3 26v0q55 -20 89 -64t34 -88q0 -36 -24 -57q-27 -23 -77 -22zM683 430q-10 -53 -52 -93q-45 -43 -99 -43q-56 0 -105 47q-50 -39 -105 -39 q-64 0 -110 47t-46 105q0 70 71 109v0q103 -123 236 -123q125 0 189 109q14 2 27 2q45 0 70 -21q22 -18 22 -44q0 -24 -19 -41.5t-51 -17.5q-13 0 -28 3zM389 287q-80 -131 -193 -131q-78 0 -137 60t-59 135q0 93 95 148q-61 50 -61 124q0 64 44.5 109t106.5 45q31 0 60 -12 q-48 -43 -48 -102q0 -42 24 -78v0q-86 -40 -86 -136q0 -88 69 -141q76 -59 185 -21zM516 93q-30 -90 -98 -90q-45 0 -74 42q-33 47 -27 121q42 5 74 49q37 -107 125 -122z" />
<glyph unicode="J" horiz-adv-x="678" d="M298 475q-59 128 -59 204q0 57 23 114q81 -99 81 -175q0 -61 -45 -143zM537 603q-37 -18 -49 -45q-6 -14 -9.5 -50.5t-15.5 -57.5t-85 -77q-68 -52 -79 -85v0q-11 33 -79 85q-73 56 -84.5 77t-15.5 57.5t-10 50.5q-12 27 -48 45l2 5l141 -73q33 -17 60 -71 q25 -49 34 -105q9 56 34 105q27 54 60 71l141 73zM580 409q-53 -14 -69.5 -57t-31.5 -86q-14 -27 -80 -58.5t-83 -62.5q-4 16 -4 34q0 61 32 116q34 61 86 76l149 43zM598 238q-61 -17 -87 -62q-21 -47 -42 -91.5t-73 -66.5q-41 -18 -73 -15q-6 19 -6 41q0 49 30.5 93 t79.5 58l170 48zM282 145q-16 31 -82.5 62.5t-80.5 58.5l-30 86q-18 43 -71 57l1 5l149 -43q52 -15 87 -76q31 -55 31 -116q0 -18 -4 -34zM275 3q-31 -3 -72 15q-53 23 -75 65q-20 46 -41 93q-26 45 -87 62l2 5l169 -48q49 -14 80 -57.5t31 -93.5q0 -22 -7 -41z" />
<glyph unicode="K" horiz-adv-x="488" d="M408 706q-31 -28 -40 -38q-21 -24 -28 -49q-5 -18 -5 -42q0 -10 1 -30t1 -30q0 -46 -20 -82q-25 -46 -66 -46q-15 0 -32 7q-37 15 -37 66q0 25 9.5 51.5t40.5 61.5t40 55q13 31 13 67q0 22 -5 46q37 -39 41 -80v0q32 23 40 27q23 13 47 16zM165 495q-7 -77 -77 -78 q-31 -1 -51.5 28.5t-23.5 73.5q-1 29 13 75.5t14 69.5q0 58 -40 113q50 -22 72 -61v0q22 35 27 42q16 23 38 35q-29 -63 -29 -94q0 -32 31 -96q30 -60 26 -108zM403 373q-18 -18 -31 -95q-14 -85 -26 -109q-19 -35 -58.5 -67t-54.5 -58v0q-2 30 -2 57q0 207 172 272z M226 375q-19 -48 -23 -113q-2 -43 3 -122l-19 -1q-4 80 -2 124q3 66 24 119zM233 13l-15 -10q-119 177 -129 399l18 1q10 -219 126 -390z" />
<glyph unicode="L" d="M555 529l-95 -71q-22 -16 -41 -16q-32 0 -49 41v0l-46 109q-13 30 -13 63q0 57 35 96q39 42 101 42q25 0 53 -7q58 -16 89 -55q29 -35 29 -80q0 -75 -63 -122zM783 294q-16 -59 -52.5 -88.5t-82.5 -29.5q-74 0 -121 63l-71 95q-16 22 -16 41q0 31 40 48v0l109 47 q30 13 63 13q57 0 97.5 -37t40.5 -100q0 -25 -7 -52zM415 393q-7 -20 -25 -14q-19 5 -14 24q6 18 24 14v0q19 -5 15 -24zM335 462q16 -21 16 -41q0 -31 -40 -48l-109 -47q-30 -13 -63 -13q-57 0 -98 37t-41 100q0 25 7 52q16 59 55 90q34 28 80 28q75 0 122 -63zM467 204 q13 -30 13 -63q0 -57 -35 -96q-39 -42 -101 -42q-25 0 -53 7q-58 16 -90 54q-28 35 -28 81q0 74 63 121l95 71q22 16 41 16q32 0 48 -40z" />
<glyph unicode="M" horiz-adv-x="744" d="M439 639q-17 0 -28.5 11.5t-11.5 28.5t12 28.5t29 11.5q10 0 19 -5v0q20 -12 20 -35q0 -16 -11.5 -28t-28.5 -12zM332 712q-17 0 -28.5 12t-11.5 29q0 16 11.5 28t28.5 12q10 0 20 -5v0q20 -12 20 -35q0 -17 -11.5 -29t-28.5 -12zM635 386q-24 -19 -99 -28 q-6 108 -98 165v0q9 19 19 39.5t27 30.5q22 14 40 14q26 0 47 -31q8 -11 38 -71q14 -24 27 -48q14 -27 14 -42q0 -17 -15 -29zM226 639q-17 0 -29 11.5t-12 28.5t12 28.5t29 11.5q10 0 19 -5v0q21 -12 21 -36q0 -16 -11.5 -27.5t-28.5 -11.5zM414 623q-59 -77 -72 -235 q3 -2 10 -5q20 -12 20 -35q0 -17 -11.5 -28.5t-28.5 -11.5q-16 0 -28 12t-12 29q0 30 30 38q-9 155 -73 236l14 10q34 -43 56 -124q1 -6 5 -18v202h16v-202q2 5 5 18q21 78 56 124zM629 327q35 -21 35 -49q0 -19 -18 -48q-2 -3 -39 -55l-38 -54t-39 -27q-8 0 -17 5 q-26 11 -71 77q43 29 67 70.5t27 88.5v0q6 0 31 2q20 2 32 0q17 -2 30 -10zM225 523v0q-92 -57 -97 -165q-39 5 -53 8q-29 7 -45.5 19.5t-16.5 29.5q0 16 14 41t27 49q32 61 39 71q21 31 47 31q17 0 39 -14q18 -10 28 -30.5t18 -39.5zM479 79q2 -11 2 -21q0 -54 -79 -54 q-11 0 -35 1t-35 1t-35 -1t-36 -1q-79 0 -79 54q0 10 2 21q4 22 29 43q33 29 39 38v0q38 -16 79 -16q42 0 81 16q6 -8 39 -38q24 -21 28 -43zM222 176q-23 -34 -32 -45q-19 -23 -39 -32q-9 -5 -17 -5q-20 0 -39.5 27t-37.5 54q-36 50 -39 55q-18 28 -18 47q0 28 35 50 q14 8 31 10q12 1 31 0q26 -2 32 -2v0q6 -104 93 -159z" />
<glyph unicode="N" horiz-adv-x="846" d="M733 443q-29 -22 -114 -31q-7 124 -113 188v0q10 23 21.5 46.5t31.5 35.5q25 16 46 16q30 0 55 -36q8 -13 44 -82q15 -28 31 -55q16 -31 16 -49q0 -20 -18 -33zM475 613q-44 18 -92 18t-92 -18q-48 52 -48 102q0 35 26.5 56.5t77.5 21.5q17 0 36 -2q19 2 36 2 q51 0 78 -21.5t27 -56.5q0 -50 -49 -102zM725 375q41 -25 41 -57q0 -22 -21 -55q-4 -6 -45 -63q-21 -31 -42 -63q-24 -31 -47 -31q-9 0 -20 5q-28 13 -81 90q47 29 76 79t32 104v0q9 0 28.5 1.5t28.5 1.5q30 0 50 -12zM590 398q0 -85 -61 -145.5t-146 -60.5t-145.5 60.5 t-60.5 145.5t60.5 145.5t145.5 60.5t146 -60.5t61 -145.5zM260 600v0q-52 -32 -80.5 -82t-31.5 -106q-43 4 -61 8q-33 7 -53 23q-18 13 -18 33q0 18 16 49q16 27 31 55q36 70 44 82q24 36 54 36q20 0 46 -16q20 -12 33 -37q1 -2 20 -45zM553 90q2 -12 2 -23q0 -63 -93 -63 q-13 0 -39.5 1t-39.5 1t-39.5 -1t-39.5 -1q-93 0 -93 63q0 10 2 23q5 26 33 51q39 34 45 43v0q44 -18 92 -18t92 18q7 -9 45 -43q28 -25 33 -51zM256 201q-27 -41 -36 -52q-22 -27 -45 -38q-11 -5 -20 -5q-23 0 -45.5 31.5t-44.5 62.5q-42 59 -44 63q-21 33 -21 55 q0 32 40 57q21 12 51 12q10 0 29 -1.5t28 -1.5v0q8 -119 108 -183zM494 398q0 46 -32.5 78t-78.5 32v0q-46 0 -78.5 -32t-32.5 -78t32.5 -78.5t78.5 -32.5t78.5 32.5t32.5 78.5zM466 398q0 -35 -24.5 -59t-58.5 -24q-35 0 -59 24t-24 59q0 34 24.5 58.5t58.5 24.5v0 q34 0 58.5 -24.5t24.5 -58.5z" />
<glyph unicode="O" horiz-adv-x="814" d="M591 656q-149 -11 -224 -137v0q-76 126 -224 137q10 37 35 63q29 32 65 33q29 0 43 -11q32 52 81 52t81 -52q14 11 42 11q37 -1 66 -33q24 -26 35 -63zM602 636q-26 -20 -27 -48q0 -34 -8 -150q-10 -99 -66 -145q-44 -37 -126 -45v0v165q0 200 227 223zM704 366 q24 -30 24 -64q0 -43 -34 -73t-87 -29q-8 -52 -41 -82q-30 -26 -69 -26q-46 0 -78 34q-36 37 -35 98q226 9 219 276v0q26 13 51 13q35 0 57.5 -23.5t22.5 -56.5q0 -37 -30 -67zM359 248q-81 8 -126 45q-56 46 -65 145q-4 33 -10 150q-1 28 -26 48q227 -23 227 -223v-165z M350 224q1 -61 -35 -98q-32 -34 -78 -34q-39 0 -69 26q-33 30 -40 82q-54 -1 -88 29t-34 72q0 34 24 65q-30 30 -30 67q0 33 22.5 56.5t58.5 23.5q24 0 50 -13v0q-8 -267 219 -276zM408 81q6 -10 6 -23q0 -22 -12 -37q-13 -18 -35 -18t-34.5 16.5t-12.5 37.5q0 14 6 24 l41 70z" />
<glyph unicode="P" horiz-adv-x="885" d="M706 738q-14 -36 -17.5 -95t-10.5 -80q-33 -101 -198 -109v0q0 2 -2 4q-12 22 -35 30q-8 165 91 208q20 9 78.5 17.5t93.5 24.5zM805 246q-39 2 -95 -12q-59 -15 -80 -15q-108 2 -164 155v0q19 18 21 47q62 22 111 22q72 0 113 -46q15 -16 41 -69.5t53 -81.5zM408 491 q-25 -3 -41 -24q-161 42 -172 150q-2 22 5 67q9 52 9 78q0 16 -2 31q30 -23 85 -44.5t73 -34.5q57 -42 57 -129q0 -42 -14 -94zM461 425q0 -18 -12 -30.5t-29 -12.5q-18 0 -30.5 12.5t-12.5 29.5q0 24 21 36v0q10 6 22 6q17 0 29 -12t12 -29zM481 137q-11 -19 -54 -60 t-61 -74q-10 37 -41.5 87t-37.5 70t-6 40q0 83 105 165v0q23 -13 50 -7q64 -82 64 -152q0 -38 -19 -69zM361 389q-79 -115 -168 -115q-35 0 -93 31q-67 36 -100 43q33 20 71.5 65t55.5 57q35 24 77 24q67 0 148 -57v0q-4 -26 9 -47v-1z" />
<glyph unicode="Q" horiz-adv-x="1006" d="M848 485q-6 -80 -86 -99q2 18 2 28q0 90 -49 164t-128 110v0q17 85 118 91q-5 -49 33 -106q37 -47 73 -94q40 -53 37 -94zM566 697q-48 17 -103 17q-54 0 -102 -17q-12 23 -12 45q0 51 48 51q13 0 33.5 -11t32.5 -11t32.5 11t34.5 11q48 0 48 -51q0 -22 -12 -45zM926 330 q-47 -24 -80 -114q-42 -112 -67 -143q-56 -70 -172 -70q-97 0 -127 111v0q106 6 185 77.5t96 176.5q23 9 48 9q56 0 117 -47zM736 414q0 -113 -80 -193t-193 -80t-193 80t-80 193t80 193.5t193 80.5v0q113 0 193 -80.5t80 -193.5zM340 688v0q-80 -36 -129 -110t-49 -164 q0 -10 2 -28q-80 19 -86 99q-3 41 37 94q37 47 73 94q39 57 34 106q101 -6 118 -91zM447 114q-30 -111 -126 -111q-117 0 -173 70q-26 31 -67 143q-33 90 -81 114q62 47 118 47q24 0 49 -9q16 -105 94.5 -176.5t185.5 -77.5zM656 414q0 80 -56.5 136t-136.5 56v0 q-79 0 -135 -56t-56 -136q0 -79 56 -135.5t135 -56.5q80 0 136.5 56.5t56.5 135.5zM628 414q0 -68 -48.5 -116.5t-116.5 -48.5t-116.5 48.5t-48.5 116.5t48.5 116.5t116.5 48.5v0q68 0 116.5 -48.5t48.5 -116.5zM552 414q0 37 -26 63t-63 26v0q-36 0 -62 -26t-26 -63t26 -63 t62 -26q37 0 63 26t26 63zM530 414q0 -27 -19.5 -46.5t-47.5 -19.5q-27 0 -46.5 19.5t-19.5 46.5q0 28 19.5 47.5t46.5 19.5v0q28 0 47.5 -19.5t19.5 -47.5z" />
<glyph unicode="R" horiz-adv-x="818" d="M524 673q0 -18 -12 -30t-30 -12q-17 0 -29 12t-12 30q0 17 12 29t29 12v0q18 0 30 -12t12 -29zM411 751q0 -17 -12.5 -29.5t-29.5 -12.5t-29.5 12.5t-12.5 29.5t12.5 29.5t29.5 12.5t29.5 -12.5t12.5 -29.5zM298 673q0 -18 -12 -30t-29 -12q-18 0 -30.5 12t-12.5 30 q0 17 12.5 29t30.5 12v0q17 0 29 -12t12 -29zM738 302q0 -119 -87 -196.5t-240 -102.5v0q122 128 122 274q0 34 -13.5 102t-13.5 102q-2 71 53 127q53 53 128 66q-34 -58 -34 -111q0 -48 42.5 -129t42.5 -132zM369 4q-130 128 -130 278q0 149 130 325q131 -176 131 -325 q0 -150 -131 -278zM328 3v0q-153 25 -239 101q-89 79 -89 198q0 51 43 132t43 129q0 52 -35 111q76 -13 128 -66q56 -56 54 -127q0 -33 -17 -114q-14 -71 -10 -112q13 -138 122 -252z" />
<glyph unicode="S" horiz-adv-x="1000" d="M920 281q-2 -47 -38 -78q-31 -25 -64 -26q-47 -1 -85 31q-23 21 -56 70q45 79 90 157q58 87 141 106v0q-10 -29 -10 -62q0 -30 13 -97q11 -63 9 -101zM820 574q-49 13 -88 13q-61 0 -134 -47.5t-138 -47.5q-64 0 -137.5 47.5t-134.5 47.5q-39 0 -88 -13q64 140 201 140 q14 0 28 -1q53 80 131 80q80 0 131 -80q15 1 28 1q138 0 201 -140zM828 551q-56 -44 -115 -144q-67 -113 -97 -144q-63 -65 -156 -65v0q-93 0 -156 65q-30 31 -97 144q-59 100 -115 144q32 10 63 10q58 0 152.5 -56.5t152.5 -56.5q59 0 153.5 56.5t152.5 56.5q31 0 62 -10z M746 94q-19 -91 -106 -91q-24 0 -84.5 8.5t-95.5 8.5v0q-34 0 -94.5 -8.5t-84.5 -8.5q-87 0 -107 91q-1 8 -1 15q0 59 95 146q70 -91 192 -91q121 0 194 91q93 -87 93 -146q0 -7 -1 -15zM244 278q-34 -49 -57 -70q-37 -32 -83 -31q-34 1 -65 26q-36 31 -39 78 q-2 37 10.5 102.5t12.5 94.5q0 34 -10 63v0q83 -19 140 -106q45 -78 91 -157z" />
<glyph unicode="T" horiz-adv-x="846" d="M733 443q-29 -22 -115 -31q-6 124 -112 188v0q10 23 21.5 46.5t31.5 35.5q25 16 46 16q29 0 54 -36q9 -13 44 -82q16 -28 31 -55q16 -31 16 -49q0 -20 -17 -33zM475 613q-44 18 -92 18t-92 -18q-49 52 -49 102q0 35 27 56.5t78 21.5q17 0 36 -2q19 2 36 2q51 0 79 -22 q25 -21 25 -56q0 -50 -48 -102zM725 375q41 -25 41 -57q0 -22 -21 -55q-1 -2 -45 -63q-21 -31 -42 -63q-24 -31 -46 -31q-10 0 -20 5q-30 14 -82 90q46 29 75.5 78.5t32.5 104.5v0q10 0 28.5 1.5t28.5 1.5q30 0 50 -12zM503 398q0 -50 -35.5 -85t-84.5 -35t-84 35t-35 85 q0 49 35 84.5t84 35.5v0q49 0 84.5 -35.5t35.5 -84.5zM260 600v0q-49 -30 -79.5 -80.5t-32.5 -107.5q-44 4 -61 8q-33 7 -53 23q-18 13 -18 33q0 18 16 49q15 27 31 55q36 70 43 82q25 36 55 36q20 0 46 -16q20 -12 33 -37q1 -2 20 -45zM553 90q2 -12 2 -23q0 -63 -93 -63 q-13 0 -40 1t-39 1q-13 0 -39.5 -1t-39.5 -1q-93 0 -93 63q0 11 2 23q4 26 32 51q40 34 46 43v0q44 -18 92 -18t92 18q7 -9 45 -43q28 -25 33 -51zM256 201q-27 -41 -36 -52q-22 -27 -46 -38q-10 -5 -19 -5q-23 0 -45.5 31.5t-43.5 62.5q-44 61 -45 63q-21 33 -21 56 q0 32 40 56q21 12 51 12q9 0 28.5 -1.5t28.5 -1.5q8 -119 108 -183z" />
<glyph unicode="U" horiz-adv-x="869" d="M757 496q32 -20 32 -60q0 -27 -18 -44.5t-49 -13.5l-212 32q-16 3 -20 14q-3 12 10 23l168 132q19 15 38 15q25 0 42 -20t17 -46q0 -17 -8 -32zM574 672l-132 -168q-11 -14 -23 -11q-11 4 -14 21l-31 211q-5 32 12.5 50t44.5 18q40 0 60 -32v0q15 8 31 8q27 0 47 -17.5 t20 -41.5q0 -19 -15 -38zM688 252q39 -16 39 -52q0 -25 -19 -45.5t-47 -21.5v0q-1 -28 -21.5 -47.5t-46.5 -19.5q-36 0 -51 39l-79 198q-7 17 2 25.5t25 2.5zM394 339q-24 0 -41.5 17.5t-17.5 41.5q0 25 17.5 42t41.5 17q25 0 42 -17t17 -42q0 -24 -17 -41.5t-42 -17.5z M326 493q7 -17 -1.5 -25.5t-25.5 -2.5l-199 78q-38 16 -38 52q0 25 19.5 46t47.5 22v0q0 27 21 47t46 20q36 0 52 -39zM415 70q5 -32 -12.5 -49.5t-44.5 -17.5q-40 0 -60 32v0q-15 -8 -32 -8q-26 0 -46 17.5t-20 41.5q0 20 14 38l133 168q11 14 22 10q13 -3 15 -20zM299 372 q3 -13 -10 -24l-168 -132q-19 -15 -38 -15q-24 0 -41.5 20.5t-17.5 47.5q0 17 8 31v0q-32 20 -32 59q0 27 18 44.5t50 13.5l211 -31q18 -3 20 -14z" />
<glyph unicode="V" horiz-adv-x="595" d="M502 643q-162 -12 -245 -150v0q-83 138 -245 150q12 41 38 70q32 34 72 35q31 1 46 -12q36 57 89 57q54 0 89 -57q16 13 46 12q40 -1 72 -35q27 -29 38 -70zM515 621q-28 -21 -29 -52q-1 -89 -10 -268q-11 -108 -72 -159q-48 -40 -138 -48v0v283q0 219 249 244zM248 94 q-89 8 -137 48q-61 51 -72 159q-5 52 -7 134q-2 113 -3 134q-1 31 -29 52q248 -25 248 -244v-283zM329 84q-6 -81 -72 -81t-71 81q38 -10 71 -10t72 10z" />
<glyph unicode="W" horiz-adv-x="704" d="M529 663q-41 -24 -68 -89q-36 -87 -46 -102q-35 -48 -103 -48v0q-69 0 -103 48q-11 15 -47 102q-27 65 -67 89q22 72 87 72q19 0 42 -6q16 64 88 64t88 -64q23 6 42 6q65 0 87 -72zM598 465q-4 -12 -4 -25q0 -12 6.5 -34t6.5 -33q0 -22 -15 -43.5t-48 -32.5 q-41 -12 -45.5 -15.5t-41.5 -42.5q-21 -23 -47 -22q-71 2 -75 63l-8 116q69 -1 113 61q12 17 58 117q29 63 61 63q12 0 28 -8q37 -19 37 -60q0 -28 -26 -104zM297 396v0l-9 -116q-4 -61 -75 -63q-26 -1 -47 22q-37 40 -41 43t-45 16q-33 10 -48 31.5t-15 43.5q0 12 6.5 33.5 t6.5 34.5q0 12 -4 24q-26 76 -26 104q0 41 37 60q15 8 28 8q32 0 61 -63q46 -100 58 -117q44 -62 113 -61zM427 100q-15 1 -36.5 3t-31.5 2q-23 0 -48 -8q60 71 108 71q19 0 31 -12t12 -27q0 -30 -35 -29zM317 236q3 -23 3 -44q0 -119 -104 -189l-10 15q113 75 93 215z M210 34v0q-5 29 -19 54.5t-29 51.5q-4 10 -4 18q0 29 31 29q45 0 45 -61q0 -38 -24 -92z" />
<glyph unicode="X" horiz-adv-x="768" d="M513 683q0 -19 -13 -32t-31 -13q-19 0 -32 13t-13 32v0q0 18 13 31.5t32 13.5q18 0 31 -13.5t13 -31.5zM389 748q0 -18 -13 -31.5t-32 -13.5q-18 0 -31.5 13.5t-13.5 31.5t13.5 31.5t31.5 13.5q19 0 32 -13t13 -32zM265 683q0 -19 -13.5 -32t-31.5 -13q-19 0 -32 13 t-13 32v0q0 18 13 31.5t32 13.5q18 0 31.5 -13.5t13.5 -31.5zM422 481l-64 -258q-5 -21 -14 -21t-14 21l-63 258q-4 16 -4 30q0 38 24 59t57 21t57 -21t24 -59q0 -14 -3 -30zM688 347q0 -103 -76 -129q8 -33 8 -62q0 -68 -43.5 -111t-111.5 -43q-39 0 -71.5 24.5t-49.5 62.5 v0q-17 -38 -48 -62q-34 -25 -72 -25q-68 0 -111.5 43t-43.5 111q0 29 8 62q-77 26 -77 129q0 49 64.5 123t64.5 118q0 37 -44 90q100 -50 100 -149q0 -37 -15 -95t-15 -102q0 -74 59 -117q53 -39 130 -39t130 39q60 43 59 117q0 44 -14.5 102t-14.5 95q0 100 99 149 q-43 -53 -43 -90q0 -44 64 -117.5t64 -123.5z" />
<glyph unicode="Y" horiz-adv-x="941" d="M590 690q-84 -30 -137 -137q-9 -17 -23 -15q-13 -2 -21 15q-53 107 -138 137q1 59 58 58q9 41 52 45q29 2 49 -31v0q21 33 50 31q43 -4 52 -45q57 1 58 -58zM861 384q-7 -81 -63 -114q6 -38 6 -70q0 -175 -176 -179q-124 -3 -174 172v0q221 44 221 262q0 -7 -2 76 q-1 46 3 73q5 35 22 54q-1 -32 44 -80q80 -87 81 -88q42 -56 38 -106zM663 653q-21 -26 -21 -103q1 -125 1 -115q-15 -181 -198 -210v0v141q0 126 43 194q52 82 175 93zM416 225q-199 31 -199 243q0 183 2 104q-2 58 -20 81q187 -17 211 -208q6 -45 6 -79v-141zM406 193v0 q-48 -175 -173 -172q-177 4 -177 179q0 33 7 70q-57 33 -63 114q-3 50 39 106l80 88q44 48 44 80q26 -28 26 -112q-1 -64 -1 -128q18 -185 218 -225zM463 86q4 -10 4 -25q0 -22 -10 -40t-27 -18v0q-16 0 -27 19q-9 16 -9 39q0 15 5 25l31 75z" />
<glyph unicode="Z" horiz-adv-x="825" d="M715 522q25 -16 25 -37q0 -37 -52 -43l-234 -30q-2 4 -5 11l191 138q22 15 42 15q35 0 35 -37q0 -8 -2 -17zM529 733q-1 -36 -17 -83q-21 -59 -49 -59q-7 0 -14 3q-32 -45 -70 -122h-3q-2 1 -3 1q-2 0 -5 -1h-4q-32 67 -70 122q-6 -3 -12 -3q-20 0 -39 38q-27 53 -27 104 q43 -24 77 -75q17 -25 17 -41q0 -10 -7 -17q27 -37 63 -109v142q-26 6 -22 57q4 59 29 103q25 -44 29 -103q4 -53 -25 -57v-142q19 38 64 110q-5 7 -5 16q0 16 17 41q33 50 76 75zM723 268q3 -11 3 -20q0 -37 -36 -37q-19 0 -40 13l-198 129q2 6 3 10l235 -17q55 -4 55 -41 q0 -20 -22 -37zM441 384q0 -28 -20 -48t-48 -20t-48.5 20t-20.5 48q0 29 20.5 49t48.5 20t48 -20t20 -49zM603 160q25 -22 25 -46q0 -36 -47 -35q-13 -34 -38 -34q-31 0 -46 44l-80 221q4 2 9 6zM296 423q-1 -4 -4 -11v0l-234 30q-53 6 -53 43q0 21 25 37q-2 9 -2 17 q0 37 36 37q20 0 41 -15zM437 69q3 -11 3 -22q0 -44 -35 -44q-15 0 -32 11q-17 -11 -32 -11q-35 0 -35 44q0 11 3 22l58 228h12zM294 353l-199 -129q-20 -13 -39 -13q-36 0 -36 37q0 9 3 20q-23 17 -23 37q0 37 55 41l235 17zM329 310l-80 -221q-16 -44 -47 -44 q-25 0 -38 34q-46 -1 -46 35q0 24 25 46l176 156q5 -4 10 -6z" />
<glyph unicode="a" d="M120 487l94 -11q32 -4 32 19q0 10 -8 22l-56 76q-31 41 -67 41q-29 0 -50.5 -24.5t-21.5 -54.5q0 -59 77 -68zM203 612l76 -57q11 -8 21 -8q23 0 19 32l-10 94q-9 77 -69 77q-30 0 -54.5 -21t-24.5 -50q0 -36 42 -67zM112 337l87 37q20 10 20 24q0 15 -20 24l-87 37 q-25 11 -46 11q-31 0 -48.5 -21.5t-17.5 -50.5t17 -49q18 -23 49 -23q21 0 46 11zM337 679l37 -87q9 -21 24 -21t24 21l37 87q11 25 11 45q0 32 -21.5 49.5t-50.5 17.5t-49 -17q-23 -18 -23 -49q0 -21 11 -46zM269 423v0q8 -23 30 -15q22 7 15 30q-8 21 -30 15 q-22 -7 -15 -30zM372 507q0 -24 23 -24q24 0 24 24q0 23 -24 23v0q-23 0 -23 -23zM118 309q-78 -9 -78 -68q0 -30 21.5 -55t50.5 -25q36 0 67 42l56 76q8 12 8 22q0 23 -32 19zM475 576q-3 -32 20 -32q10 0 21 9l77 55q41 31 41 67q0 29 -25 50.5t-55 21.5q-59 0 -68 -77z M339 395q0 -22 16.5 -38.5t39.5 -16.5t39 16.5t16 38.5q0 23 -16 39.5t-39 16.5v0q-23 0 -39.5 -16.5t-16.5 -39.5zM302 301q7 -23 30 -15q22 8 15 29q-8 23 -30 15q-22 -7 -15 -29zM477 423v0q8 -22 29 -15q23 7 15 30q-7 21 -29 15q-23 -7 -15 -30zM198 182 q-42 -31 -42 -67q0 -29 24.5 -50.5t54.5 -21.5q60 0 69 78l10 93q4 33 -19 33q-10 0 -21 -9zM555 512q-8 -12 -8 -22q0 -23 32 -19l94 11q77 9 77 68q0 30 -21.5 54.5t-50.5 24.5q-36 0 -67 -41zM444 301v0q7 -23 29 -15q21 7 15 29q-7 23 -29 15q-23 -7 -15 -29zM331 112 q-11 -25 -11 -46q0 -31 23 -50q20 -16 49 -16q30 0 51 17.5t21 48.5q0 21 -10 46l-38 86q-9 21 -24 21t-23 -21zM592 369l86 -38q25 -11 46 -11q31 0 50 22q16 21 16 50t-16 50q-19 22 -50 22q-21 0 -46 -11l-86 -37q-21 -9 -21 -23q0 -15 21 -24zM470 212l11 -94 q9 -78 68 -78q30 0 55 21.5t25 51.5q0 36 -41 66l-76 56q-11 9 -22 9q-23 0 -20 -32zM553 274l56 -76q30 -41 66 -41q29 0 50.5 24.5t21.5 54.5q0 59 -77 68l-94 11q-32 4 -32 -19q0 -10 9 -22z" />
<glyph unicode="b" horiz-adv-x="595" d="M86 655l157 -229l156 229h-100l-56 138l-57 -138h-100zM3 518q-3 -6 -3 -14q0 -38 52 -73q56 -37 130 -37q24 0 48 4v0q-19 9 -54 57q-44 62 -58 77q-32 33 -63 33q-35 0 -52 -47zM18 245q18 -45 60 -45q35 0 48 37.5t38 73.5q33 48 66 58v0q-18 3 -35 3q-73 0 -129 -40 q-51 -36 -51 -73q0 -8 3 -14zM261 388v0q17 13 76 19q75 7 95 12q66 17 66 61q0 22 -21 47q-12 16 -40 16q-46 0 -96 -40q-56 -44 -80 -115zM178 227q0 -36 28 -77q13 -20 57 -69q16 -25 49 -74q4 -5 8 -5q7 0 7 7q0 3 -1 5q-15 25 -37 75q-7 26 -7 60q0 13 3 64q3 41 1 68 q-4 48 -43 48q-30 0 -49 -37q-16 -32 -16 -65zM271 357v0q20 -5 62 -45q54 -52 70 -64q31 -22 58 -22q42 0 53 53q7 33 -39 62q-49 31 -116 31q-45 0 -88 -15z" />
<glyph unicode="c" d="M114 683v0q42 -192 213 -213q-21 172 -213 213zM393 498q53 69 53 144q0 76 -53 158v0q-53 -82 -53 -158q0 -75 53 -144zM0 403v0q82 -53 157 -53q76 0 145 53q-69 54 -145 54q-75 0 -157 -54zM460 472q172 22 213 213v0q-191 -41 -213 -213zM359 404q0 -14 10.5 -24.5 t25.5 -10.5q14 0 25 10.5t11 24.5q0 15 -11 25.5t-25 10.5q-15 0 -25.5 -10.5t-10.5 -25.5zM117 124v0q190 42 213 214q-173 -23 -213 -214zM488 406q69 -53 144 -53q76 0 158 53v0q-82 53 -158 53q-75 0 -144 -53zM397 9v0q53 82 53 158q0 75 -53 144q-54 -69 -54 -144 q0 -76 54 -158zM462 339q22 -172 214 -213v0q-42 192 -214 213z" />
<glyph unicode="d" horiz-adv-x="819" d="M346 769q0 -24 24 -24q23 0 23 24t-23 24v0q-24 0 -24 -24zM293 711q0 -23 25 -23q24 0 24 23q0 24 -24 24v0q-25 0 -25 -24zM248 618q0 -24 25 -24q23 0 23 24t-23 24v0q-25 0 -25 -24zM398 711q0 -23 25 -23q23 0 23 23q0 24 -23 24v0q-25 0 -25 -24zM25 340 q40 -45 108 -84q63 -33 125 -66v0q-69 61 -112 185q-25 71 -84 71q-23 0 -42.5 -14.5t-19.5 -37.5q0 -26 25 -54zM75 568v0q78 -43 102 -199q25 -163 146 -184q-50 51 -50 149q0 20 10 136q4 50 -30.5 83t-92.5 33q-41 0 -85 -18zM443 618q0 -24 24 -24q25 0 25 24t-25 24v0 q-24 0 -24 -24zM26 213q6 -68 97 -70q41 -1 78 10l58 20v0l-80 42q-47 25 -81 36q-13 5 -27 5q-49 0 -45 -43zM370 177q78 58 78 210q0 149 -78 246q-77 -97 -77 -246q0 -152 77 -210zM128 122q-23 -4 -23 -29q0 -23 20 -40q23 -20 61 -20q95 0 107 127q-6 3 -16 9v0 q-60 -33 -149 -47zM417 185q121 21 146 184q25 157 102 199v0q-44 18 -85 18q-58 0 -93 -33t-30 -83q10 -113 10 -136q0 -98 -50 -149zM311 168q-9 -87 60 -89q30 -2 42.5 20.5t9.5 61.5v0q-25 -7 -49 -7q-32 0 -63 14zM516 222q36 15 100 9q75 -8 87 -7q37 5 36 49 q0 37 -25.5 61t-66.5 24q-31 0 -66 -41q-21 -25 -65 -95zM467 183v0q34 4 70 -18q22 -13 78 -62q19 -17 40 -17t36 16.5t15 37.5q0 12 -7 23q-39 61 -109 61q-56 0 -123 -41zM435 164q21 -54 43 -107.5t60 -53.5q9 0 19 2q54 14 54 52q0 30 -35 67q-45 46 -108 46v0z" />
<glyph unicode="e" horiz-adv-x="817" d="M187 723q0 -13 9.5 -22.5t22.5 -9.5t23 9.5t10 22.5t-10 22.5t-23 9.5v0q-32 0 -32 -32zM90 453q32 0 32 31q0 32 -32 32t-32 -32q0 -12 9 -21.5t23 -9.5zM336 761q0 -32 31 -32q14 0 23.5 9.5t9.5 22.5t-9.5 22.5t-23.5 9.5v0q-13 0 -22 -9.5t-9 -22.5zM108 633 l109 -177q19 -25 44 -25q20 0 34 14.5t14 34.5q0 33 -25 43zM253 688q71 -50 109 -160h11q38 109 109 160l-7 10q-68 -50 -102 -136v0v151h-11v-151q-38 89 -101 136zM0 372l202 -47q8 -2 13 -2q20 0 34 14.5t14 34.5t-14 34.5t-34 14.5q-6 0 -13 -2zM484 723 q0 -13 9.5 -22.5t22.5 -9.5t22.5 9.5t9.5 22.5t-9.5 22.5t-22.5 9.5q-32 0 -32 -32zM56 255q-2 -31 30 -34v0q31 -1 33 30q1 13 -7.5 23t-21.5 11q-14 1 -24 -8t-10 -22zM107 111l176 110q2 1 11 7q14 15 14 35t-14 34.5t-35 14.5q-20 0 -34 -14q-2 -2 -8 -10zM314 371 q0 -22 15.5 -37.5t37.5 -15.5v0q23 0 38.5 15t15.5 38q0 22 -15.5 37.5t-38.5 15.5q-21 0 -37 -15.5t-16 -37.5zM478 431q20 0 34 14q3 3 8 10l110 177l-177 -110q-7 -4 -10 -8q-14 -14 -14 -34q0 -21 14.5 -35t34.5 -14zM249 62q12 0 21 8v0q11 10 11 24q0 31 -32 31 t-32 -32q0 -31 32 -31zM614 484q0 -31 32 -31q31 0 31 31q0 32 -31 32v0q-32 0 -32 -32zM319 218q0 -6 2 -13l46 -202l48 202q2 8 2 13q0 20 -14.5 34.5t-35.5 14.5q-20 0 -34 -14.5t-14 -34.5zM473 371q0 -20 14.5 -34.5t34.5 -14.5q6 0 13 1l202 48l-202 47q-6 2 -13 2 q-20 0 -34.5 -14.5t-14.5 -34.5zM442 228q5 -5 10 -8l177 -110l-117 187q-15 14 -35 14t-34.5 -14.5t-14.5 -34.5t14 -34zM455 94q-1 -31 31 -32q13 -1 22.5 8.5t10.5 22.5v0q0 31 -31 32q-13 0 -23 -9t-10 -22zM647 221q33 0 33 32q0 12 -9 21v0q-9 11 -23 11 q-32 0 -32 -32t31 -32z" />
<glyph unicode="f" horiz-adv-x="682" d="M0 557q57 -56 147 -56q34 0 101 10v-2q-87 -33 -111 -91q-15 -59 -31 -118q73 17 167 178v0q-28 -61 -28 -112q0 -76 66 -128q-3 33 8 69q13 41 13 72q0 36 -11 89q72 -110 136 -110q9 0 25.5 2t25.5 2q22 0 42 -9q-52 104 -188 148q1 0 1 1q91 -12 110 -12q78 0 129 83 l-140 14q-61 0 -98 -31v0q82 93 82 199q0 18 -2 38q-15 -24 -50 -58q-38 -36 -52 -56q-25 -38 -30 -87q-13 85 -63 129q-46 35 -92 71q-2 -13 -2 -25q0 -98 102 -201v0q-48 32 -92 32q-30 0 -82 -22t-83 -19zM276 180q0 -18 47 -35q64 -23 85 -39q-11 -47 -41 -98l8 -5 q50 82 52 170q16 24 64 62q39 30 39 45q0 10 -9.5 18t-18.5 8q-23 0 -45 -36.5t-31 -84.5v8q-6 85 -61 180l-9 -5q54 -93 60 -175q3 -42 -7 -83q-21 41 -51.5 70t-53.5 29q-11 0 -19.5 -9t-8.5 -20zM257 528q0 21 14.5 35.5t35.5 14.5v0q20 0 34.5 -14.5t14.5 -35.5 q0 -20 -14.5 -34t-34.5 -14t-35 14t-15 34zM272 528q0 -34 35 -34q14 0 24.5 10t10.5 24q0 15 -10.5 25t-24.5 10v0q-15 0 -25 -10t-10 -25z" />
<glyph unicode="g" horiz-adv-x="971" d="M224 640q35 30 80 22q21 23 21 53q0 32 -23 55t-55 23q-10 0 -20 -3v0q-26 -7 -42 -28t-16 -47q0 -58 55 -75zM134 497q40 0 63 31q-2 4 -5 12q-9 39 10 73q-22 40 -69 40q-10 0 -20 -3v0q-26 -7 -41.5 -28t-15.5 -47q0 -32 22.5 -55t55.5 -23zM287 484q34 0 57.5 24 t23.5 58t-23.5 57.5t-57.5 23.5q-11 0 -21 -3v0q-27 -7 -44 -29t-17 -50q0 -33 24 -57t58 -24zM337 649q33 -19 45 -58q1 -8 1 -13q27 -11 53 -4q25 7 41 28.5t16 47.5q0 32 -23 55t-55 23q-10 0 -20 -2v0q-26 -8 -42 -29t-16 -48zM226 344q33 0 55.5 23t22.5 55 q0 26 -15 46q-44 0 -74 31q-3 0 -9 -1v0q-26 -7 -42 -28.5t-16 -47.5q0 -32 23 -55t55 -23zM333 480q-3 -35 20 -61t59 -26q32 0 54.5 23t22.5 56q0 32 -22.5 55t-54.5 23q-11 0 -21 -3v0l-9 -3q-10 -43 -49 -64zM0 298q85 -84 152 -115q55 -25 135 -28q87 -2 175 -3 q21 -73 24 -149l17 1q-3 70 -20 135q23 67 51.5 101t90.5 68q32 -34 78 -34q41 0 71.5 26.5t36.5 65.5l69 -68l11 12l-72 74l72 74l-11 13l-69 -69q-6 39 -36.5 65.5t-71.5 26.5q-45 0 -77.5 -32.5t-32.5 -77.5q0 -34 20 -63q-57 -31 -86 -62q-31 -34 -52 -91 q-45 140 -139 245l-14 -12q90 -98 136 -237q-161 137 -382 137q-36 0 -76 -3z" />
<glyph unicode="h" horiz-adv-x="1020" d="M274 663q0 -21 15 -36t37 -15t37 15t15 36q0 22 -15.5 37t-36.5 15v0q-22 0 -37 -15t-15 -37zM418 742q0 -22 15 -37.5t36 -15.5q22 0 37 15.5t15 37.5q0 21 -15 36t-37 15v0q-21 0 -36 -15t-15 -36zM561 663q0 -21 15.5 -36t37.5 -15q21 0 36 15t15 36q0 22 -15 37 t-36 15v0q-22 0 -37.5 -15t-15.5 -37zM356 583l100 -215q3 -6 13 -6q11 0 14 6l100 215l-27 13l-72 -154v211h-30v-211l-71 154zM722 717q32 -68 32 -139q0 -113 -82 -191.5t-203 -78.5q-120 0 -201.5 78.5t-81.5 191.5q0 74 32 139q-106 -44 -164 -118q-54 -69 -54 -144 q0 -69 46.5 -120t132.5 -65q-28 -43 -28 -93q0 -72 51.5 -123t123.5 -51q93 0 143 74q52 -74 144 -74q72 0 123.5 51t51.5 123q0 50 -28 93q86 14 134 67q46 49 46 118q0 75 -54 144q-58 74 -164 118z" />
<glyph unicode="i" horiz-adv-x="1015" d="M279 565q104 57 201 57q93 0 185 -52v0q38 50 38 97q0 53 -42.5 88.5t-98.5 35.5q-62 0 -105 -44q-49 41 -106 41q-58 0 -101.5 -39t-43.5 -88q0 -62 73 -96zM310 548q68 -78 153 -78q87 0 181 81v0q-67 41 -150 41q-87 0 -184 -44zM101 290q-8 -93 55 -146 q56 -47 144 -47q84 0 144 42q66 46 66 121q0 20 -5 43q-45 -42 -111 -42q-60 0 -106 35q-50 37 -63 101q-51 -2 -80 29q-25 28 -25 69q0 13 3 26v0q-55 -20 -89 -64t-34 -88q0 -36 25.5 -58t75.5 -21zM252 430q10 -53 52 -93q45 -43 99 -43q56 0 105 47q50 -39 105 -39 q63 0 111 48q45 46 45 104q0 70 -71 109v0q-103 -123 -236 -123q-125 0 -189 109q-14 2 -27 2q-45 0 -68.5 -19.5t-23.5 -45.5q0 -24 19 -41.5t51 -17.5q13 0 28 3zM546 287q80 -131 192 -131q78 0 137.5 60t59.5 135q0 93 -96 148q62 50 62 124q0 64 -44.5 109t-106.5 45 q-31 0 -60 -12q48 -43 48 -102q0 -42 -24 -78v0q85 -40 85 -136q0 -88 -68 -141q-76 -59 -185 -21zM419 93q29 -90 98 -90q45 0 74 42q32 47 27 121q-43 5 -74 49q-37 -107 -125 -122z" />
<glyph unicode="j" horiz-adv-x="678" d="M300 475q59 128 59 204q0 57 -23 114q-81 -99 -81 -175q0 -61 45 -143zM62 603q36 -18 48 -45q6 -14 10 -50.5t15.5 -57.5t84.5 -77q68 -52 79 -85v0q11 33 79 85q73 56 85 77t15.5 57.5t9.5 50.5q12 27 49 45l-3 5l-141 -73q-33 -17 -60 -71q-25 -49 -34 -105 q-9 56 -34 105q-27 54 -60 71l-141 73zM18 409q53 -14 71 -57l30 -86q14 -27 80 -58.5t83 -62.5q4 16 4 34q0 61 -31 116q-35 61 -87 76l-149 43zM0 238q61 -17 87 -62q21 -47 42 -91.5t73 -66.5q41 -18 73 -15q6 19 6 41q0 49 -30.5 93t-79.5 58l-169 48zM316 145 q17 31 83 62.5t80 58.5q15 43 31.5 86t69.5 57l-1 5l-149 -43q-52 -15 -86 -76q-32 -55 -32 -116q0 -18 4 -34zM323 3q31 -3 73 15q52 23 74 65q20 46 41 93q26 45 87 62l-1 5l-170 -48q-49 -14 -80 -57.5t-31 -93.5q0 -22 7 -41z" />
<glyph unicode="k" horiz-adv-x="488" d="M0 706q31 -28 41 -38q21 -24 27 -49q5 -18 5 -42q0 -10 -1 -30t-1 -30q0 -46 20 -82q25 -46 66 -46q15 0 32 7q37 15 37 66q0 25 -9.5 51.5t-40 61.5t-39.5 55q-14 31 -14 67q0 22 5 46q-37 -39 -41 -80v0q-32 23 -40 27q-23 13 -47 16zM243 495q7 -77 77 -78 q31 -1 51.5 28.5t23.5 73.5q2 29 -12.5 75.5t-14.5 69.5q0 58 40 113q-49 -22 -72 -61v0q-21 35 -27 42q-16 23 -37 35q28 -63 28 -94q0 -32 -31 -96q-30 -60 -26 -108zM5 373q18 -18 31 -95q14 -85 26 -109q19 -35 58.5 -67t54.5 -58v0q3 30 3 57q0 207 -173 272zM182 375 q19 -48 23 -113q2 -43 -3 -122l19 -1q5 80 2 124q-3 66 -24 119zM175 13l15 -10q119 177 129 399l-18 1q-10 -219 -126 -390z" />
<glyph unicode="l" d="M236 529l95 -71q21 -16 40 -16q32 0 49 41v0l46 109q13 30 13 63q0 57 -35 96q-39 42 -101 42q-25 0 -52 -7q-59 -16 -90 -55q-29 -35 -29 -80q0 -75 64 -122zM7 294q16 -59 54 -90q35 -28 81 -28q74 0 121 63l71 95q16 22 16 41q0 31 -39 48v0l-110 47q-30 13 -63 13 q-57 0 -96 -36q-42 -38 -42 -101q0 -25 7 -52zM375 393q7 -20 25 -14q19 5 14 24q-5 18 -24 14v0q-19 -5 -15 -24zM455 462q-16 -21 -16 -41q0 -31 41 -48l108 -47q31 -13 63 -13q58 0 98.5 37t40.5 100q0 25 -7 52q-16 59 -54 90q-35 28 -81 28q-75 0 -122 -63zM323 204 q-13 -30 -13 -63q0 -57 36 -96q38 -42 100 -42q25 0 53 7q59 16 90 54q28 35 28 81q0 74 -63 121l-95 71q-22 16 -41 16q-31 0 -48 -40z" />
<glyph unicode="m" horiz-adv-x="744" d="M225 639q16 0 28 11.5t12 28.5t-12 28.5t-29 11.5q-10 0 -19 -5v0q-20 -12 -20 -35q0 -16 11.5 -28t28.5 -12zM332 712q17 0 28.5 12t11.5 29q0 16 -11.5 28t-28.5 12q-10 0 -20 -5v0q-20 -12 -20 -35q0 -17 11.5 -29t28.5 -12zM29 386q24 -19 99 -28q5 108 97 165v0 q-8 19 -18 39.5t-27 30.5q-22 14 -40 14q-26 0 -47 -31q-8 -11 -38 -71q-14 -24 -27 -48q-15 -27 -15 -42q0 -17 16 -29zM438 639q17 0 29 11.5t12 28.5t-12 28.5t-29 11.5q-10 0 -19 -5v0q-21 -12 -21 -36q0 -16 11.5 -27.5t28.5 -11.5zM250 623q59 -77 72 -235 q-3 -2 -10 -5q-20 -12 -20 -35q0 -17 11.5 -28.5t27.5 -11.5q17 0 29 12t12 29q0 30 -30 38q9 155 73 236l-14 10q-34 -43 -56 -124q-1 -6 -5 -18v202h-16v-202q-2 5 -5 18q-21 78 -56 124zM35 327q-35 -21 -35 -49q0 -19 18 -48q2 -3 39 -55l38 -54t39 -27q8 0 17 5 q26 11 71 77q-43 29 -67 70.5t-27 88.5v0q-6 0 -31 2q-20 2 -32 0q-17 -2 -30 -10zM439 523v0q92 -57 97 -165q39 5 53 8q29 7 45.5 19.5t16.5 29.5q0 16 -14 41t-28 49q-31 61 -38 71q-21 31 -47 31q-17 0 -39 -14q-18 -10 -28 -30.5t-18 -39.5zM185 79q-2 -11 -2 -21 q0 -54 79 -54q11 0 35 1t35 1t35 -1t36 -1q78 0 78 54q0 10 -1 21q-4 22 -29 43q-33 29 -39 38v0q-38 -16 -79 -16q-42 0 -81 16q-6 -8 -39 -38q-24 -21 -28 -43zM442 176q23 -34 31 -45q20 -23 40 -32q9 -5 17 -5q20 0 39 27l38 54q36 50 39 55q18 28 18 47q0 28 -35 50 q-14 8 -31 10q-12 1 -31 0q-26 -2 -32 -2v0q-7 -104 -93 -159z" />
<glyph unicode="n" horiz-adv-x="846" d="M33 443q29 -22 114 -31q7 124 113 188v0q-10 23 -20 45q-14 25 -33 37q-26 16 -46 16q-30 0 -55 -36q-8 -13 -44 -82q-15 -28 -31 -55q-16 -31 -16 -49q0 -20 18 -33zM290 613q45 18 93 18t92 -18q48 52 48 102q0 35 -26.5 56.5t-77.5 21.5q-17 0 -36 -2q-19 2 -36 2 q-51 0 -78 -21.5t-27 -56.5q0 -50 48 -102zM41 375q-41 -25 -41 -57q0 -22 21 -55q4 -6 45 -63q21 -31 43.5 -62.5t45.5 -31.5q9 0 20 5q28 13 81 90q-47 29 -76 79t-32 104v0q-9 0 -28.5 1.5t-28.5 1.5q-31 0 -50 -12zM176 398q0 -85 60.5 -145.5t146.5 -60.5 q85 0 145.5 60.5t60.5 145.5t-60.5 145.5t-145.5 60.5q-86 0 -146.5 -60.5t-60.5 -145.5zM505 600v0q52 -32 81 -82t32 -106q43 4 61 8q33 7 53 23q18 13 18 33q0 18 -16 49q-16 27 -31 55q-36 70 -44 82q-25 36 -54 36q-20 0 -46 -16q-20 -12 -33 -37q-1 -2 -21 -45z M213 90q-2 -12 -2 -23q0 -63 92 -63q14 0 40.5 1t39.5 1q12 0 39 -1t40 -1q93 0 93 63q0 10 -2 23q-5 26 -33 51q-39 34 -45 43v0q-44 -18 -92 -18t-93 18q-6 -9 -44 -43q-28 -25 -33 -51zM510 201q27 -41 36 -52q22 -27 45 -38q11 -5 20 -5q23 0 45.5 31.5t43.5 62.5 q42 59 45 63q21 33 21 55q0 32 -41 57q-20 12 -50 12q-10 0 -29 -1.5t-28 -1.5v0q-8 -119 -108 -183zM272 398q0 46 32.5 78t78.5 32v0q46 0 78.5 -32t32.5 -78t-32.5 -78.5t-78.5 -32.5t-78.5 32.5t-32.5 78.5zM300 398q0 -35 24.5 -59t58.5 -24t58.5 24t24.5 59 q0 34 -24.5 58.5t-58.5 24.5v0q-34 0 -58.5 -24.5t-24.5 -58.5z" />
<glyph unicode="o" horiz-adv-x="814" d="M143 656q149 -11 224 -137v0q76 126 224 137q-11 37 -35 63q-29 32 -66 33q-29 0 -42 -11q-32 52 -81 52t-81 -52q-14 11 -42 11q-37 -1 -66 -33q-24 -26 -35 -63zM131 636q27 -20 28 -48q0 -34 8 -150q10 -99 66 -145q44 -37 126 -45v0v165q0 200 -228 223zM30 366 q-24 -30 -24 -64q0 -43 34 -73t87 -29q8 -52 41 -82q30 -26 69 -26q46 0 78 34q36 37 35 98q-226 9 -219 276v0q-26 13 -51 13q-35 0 -57.5 -23.5t-22.5 -56.5q0 -37 30 -67zM375 248q81 8 126 45q55 46 65 145q4 33 9 150q2 28 27 48q-227 -23 -227 -223v-165zM384 224 q-1 -61 35 -98q32 -34 77 -34q40 0 70 26q33 30 40 82q54 -1 88 29t34 72q0 34 -24 65q30 30 30 67q0 33 -23 56.5t-58 23.5q-24 0 -50 -13v0q8 -267 -219 -276zM326 81q-6 -10 -6 -23q0 -22 12 -37q13 -18 35 -18t34.5 16.5t12.5 37.5q0 14 -6 24l-41 70z" />
<glyph unicode="p" horiz-adv-x="885" d="M99 738q14 -36 17.5 -95t10.5 -80q33 -101 198 -109v0q0 2 2 4q12 22 35 30q7 165 -91 208q-20 9 -78.5 17.5t-93.5 24.5zM0 246q39 2 96.5 -12.5t78.5 -14.5q107 2 164 155v0q-19 18 -22 47q-61 22 -111 22q-72 0 -113 -46q-14 -16 -40.5 -69.5t-52.5 -81.5zM397 491 q25 -3 41 -24q160 42 172 150q2 22 -5 67q-9 52 -9 78q0 16 2 31q-30 -23 -84 -44q-57 -22 -74 -35q-58 -42 -58 -129q0 -42 15 -94zM344 425q0 -18 12 -30.5t29 -12.5t29.5 12.5t12.5 29.5q0 24 -20 36v0q-10 6 -22 6q-17 0 -29 -12t-12 -29zM324 137q11 -19 55 -60 q41 -41 60 -74q10 37 41.5 87t37.5 70t6 40q0 83 -105 165v0q-23 -13 -50 -7q-64 -82 -64 -152q0 -38 19 -69zM444 389q78 -115 167 -115q35 0 94 31q67 36 100 43q-33 20 -71.5 65t-56.5 57q-34 24 -77 24q-66 0 -148 -57v0q5 -26 -8 -47v-1z" />
<glyph unicode="q" horiz-adv-x="1006" d="M78 485q6 -80 86 -99q-2 18 -2 28q0 90 49 164t129 110v0q-17 85 -118 91q5 -49 -34 -106q-36 -47 -73 -94q-40 -53 -37 -94zM361 697q47 17 102 17q54 0 103 -17q12 23 12 45q0 51 -48 51q-14 0 -34.5 -11t-32.5 -11t-32.5 11t-33.5 11q-48 0 -48 -51q0 -22 12 -45z M0 330q48 -24 81 -114q41 -112 66 -143q57 -70 173 -70q97 0 127 111v0q-107 6 -186 77.5t-95 176.5q-24 9 -49 9q-55 0 -117 -47zM190 414q0 -113 80 -193t193 -80t193 80t80 193t-80 193.5t-193 80.5v0q-113 0 -193 -80.5t-80 -193.5zM587 688v0q79 -36 128 -110t49 -164 q0 -10 -2 -28q80 19 86 99q3 41 -37 94q-36 47 -73 94q-38 57 -33 106q-101 -6 -118 -91zM480 114q29 -111 126 -111q116 0 173 70q25 31 66 143q34 90 81 114q-61 47 -117 47q-25 0 -49 -9q-17 -105 -95.5 -176.5t-184.5 -77.5zM271 414q0 80 56.5 136t135.5 56v0 q80 0 136 -56t56 -136q0 -79 -56.5 -135.5t-135.5 -56.5t-135.5 56.5t-56.5 135.5zM298 414q0 -68 48.5 -116.5t116.5 -48.5t116.5 48.5t48.5 116.5t-48.5 116.5t-116.5 48.5v0q-68 0 -116.5 -48.5t-48.5 -116.5zM374 414q0 37 26 63t63 26v0q36 0 62.5 -26t26.5 -63 t-26 -63t-63 -26t-63 26t-26 63zM397 414q0 -27 19.5 -46.5t46.5 -19.5q28 0 47.5 19.5t19.5 46.5q0 28 -19.5 47.5t-47.5 19.5v0q-27 0 -46.5 -19.5t-19.5 -47.5z" />
<glyph unicode="r" horiz-adv-x="818" d="M214 673q0 -18 12 -30t30 -12q17 0 29 12t12 30q0 17 -12 29t-29 12v0q-18 0 -30 -12t-12 -29zM327 751q0 -17 12.5 -29.5t29.5 -12.5t29.5 12.5t12.5 29.5t-12.5 29.5t-29.5 12.5t-29.5 -12.5t-12.5 -29.5zM440 673q0 -18 12.5 -30t29.5 -12t29.5 12t12.5 30 q0 17 -12.5 29t-29.5 12v0q-17 0 -29.5 -12t-12.5 -29zM0 302q0 -119 87 -196.5t240 -102.5v0q-122 128 -122 274q0 34 13.5 102t13.5 102q2 71 -53 127q-53 53 -128 66q34 -58 34 -111q0 -48 -42.5 -129t-42.5 -132zM369 4q131 128 131 278q0 149 -131 325 q-131 -176 -131 -325q0 -150 131 -278zM410 3v0q153 25 240.5 102.5t87.5 196.5q0 51 -43 132t-43 129q0 52 35 111q-75 -13 -128 -66q-55 -56 -54 -127q0 -33 17 -114q14 -71 10 -112q-13 -138 -122 -252z" />
<glyph unicode="s" horiz-adv-x="1000" d="M0 281q3 -47 39 -78q30 -25 64 -26q47 -1 84 31q23 21 57 70q-46 79 -91 157q-57 87 -140 106v0q9 -29 9 -62q0 -30 -12 -97q-12 -63 -10 -101zM100 574q49 13 88 13q61 0 134.5 -47.5t137.5 -47.5q65 0 138 47.5t134 47.5q39 0 88 -13q-64 140 -201 140q-13 0 -28 -1 q-53 80 -131 80q-79 0 -131 -80q-14 1 -28 1q-138 0 -201 -140zM92 551q56 -44 115 -144q67 -113 97 -144q63 -65 156 -65v0q93 0 156 65q30 31 97 144q59 100 115 144q-32 10 -62 10q-59 0 -153 -56.5t-153 -56.5q-58 0 -152.5 56.5t-153.5 56.5q-30 0 -62 -10zM174 94 q19 -91 107 -91q24 0 84.5 8.5t94.5 8.5v0q35 0 95.5 -8.5t83.5 -8.5q88 0 107 91q2 8 2 15q0 59 -95 146q-71 -91 -193 -91q-121 0 -193 91q-94 -87 -94 -146q0 -7 1 -15zM677 278q33 -49 56 -70q38 -32 84 -31q33 1 64 26q37 31 39 78q2 37 -10 102.5t-12 94.5q0 34 10 63 v0q-83 -19 -141 -106q-45 -78 -90 -157z" />
<glyph unicode="t" horiz-adv-x="846" d="M33 443q29 -22 114 -31q7 124 113 188v0q-10 23 -20 45q-13 25 -33 37q-25 16 -46 16q-30 0 -55 -36q-8 -13 -44 -82q-15 -28 -30 -55q-16 -31 -16 -49q0 -20 17 -33zM291 613q44 18 92 18t92 -18q49 52 49 102q0 35 -27 56.5t-78 21.5q-17 0 -36 -2q-19 2 -36 2 q-51 0 -78 -21.5t-27 -56.5q0 -50 49 -102zM41 375q-41 -25 -41 -57q0 -22 21 -55q1 -2 45 -63q21 -31 43.5 -62.5t44.5 -31.5q10 0 20 5q30 14 82 90q-46 29 -75.5 78.5t-33.5 104.5v0q-9 0 -27.5 1.5t-28.5 1.5q-30 0 -50 -12zM263 398q0 -50 35.5 -85t84.5 -35t84 35 t35 85q0 49 -35 84.5t-84 35.5v0q-49 0 -84.5 -35.5t-35.5 -84.5zM506 600v0q49 -30 79.5 -80.5t32.5 -107.5q44 4 61 8q33 7 53 23q18 13 18 33q0 18 -16 49q-15 27 -31 55q-36 70 -44 82q-24 36 -54 36q-20 0 -46 -16q-20 -12 -33 -37q-1 -2 -20 -45zM213 90 q-2 -12 -2 -23q0 -63 93 -63q13 0 40 1t39 1q13 0 39.5 -1t39.5 -1q93 0 93 63q0 11 -2 23q-4 26 -33 51q-39 34 -45 43v0q-44 -18 -92 -18t-92 18q-7 -9 -45 -43q-28 -25 -33 -51zM510 201q27 -41 36 -52q22 -27 46 -38q10 -5 19 -5q23 0 45.5 31.5t43.5 62.5q44 61 45 63 q21 33 21 56q0 32 -40 56q-21 12 -51 12q-9 0 -28.5 -1.5t-28.5 -1.5q-8 -119 -108 -183z" />
<glyph unicode="u" horiz-adv-x="869" d="M33 496q-33 -20 -33 -60q0 -27 18 -44.5t50 -13.5l211 32q17 3 20 14q4 12 -10 23l-167 132q-19 15 -39 15q-24 0 -41.5 -20t-17.5 -46q0 -17 9 -32zM215 672l132 -168q12 -14 23 -11q11 4 14 21l32 211q5 32 -13 50t-45 18q-40 0 -60 -32v0q-14 8 -31 8 q-26 0 -46.5 -17.5t-20.5 -41.5q0 -19 15 -38zM101 252q-39 -16 -39 -52q0 -25 19.5 -45.5t46.5 -21.5v0q1 -28 22 -47.5t46 -19.5q36 0 51 39l80 198q6 17 -3 25.5t-25 2.5zM395 339q24 0 41.5 17.5t17.5 41.5q0 25 -17.5 42t-41.5 17q-25 0 -42 -17t-17 -42 q0 -24 17 -41.5t42 -17.5zM463 493q-6 -17 2 -25.5t25 -2.5l199 78q39 16 39 52q0 25 -19.5 46t-47.5 22v0q-1 27 -22 47t-46 20q-36 0 -51 -39zM374 70q-5 -32 14 -50q16 -17 43 -17q40 0 61 32v0q14 -8 31 -8q26 0 46.5 17.5t20.5 41.5q0 20 -15 38l-133 168 q-11 14 -22 10q-13 -3 -15 -20zM490 372q-3 -13 11 -24l167 -132q19 -15 39 -15q24 0 41 20.5t17 47.5q0 17 -8 31v0q32 20 32 59q0 27 -18 44.5t-49 13.5l-211 -31q-18 -3 -21 -14z" />
<glyph unicode="v" horiz-adv-x="595" d="M12 643q163 -12 245 -150v0q84 138 246 150q-12 41 -38 70q-32 34 -73 35q-30 1 -45 -12q-36 57 -90 57q-53 0 -88 -57q-16 13 -47 12q-40 -1 -71 -35q-27 -29 -39 -70zM0 621q28 -21 29 -52q1 -89 10 -268q11 -108 72 -159q48 -40 138 -48v0v283q0 219 -249 244zM267 94 q89 8 137 48q61 51 72 159q5 52 6 134q3 113 4 134q1 31 29 52q-248 -25 -248 -244v-283zM186 84q6 -81 71 -81q67 0 72 81q-38 -10 -71 -10t-72 10z" />
<glyph unicode="w" horiz-adv-x="704" d="M95 663q41 -24 68 -89q36 -87 46 -102q35 -48 103 -48v0q69 0 103 48q11 15 46 102q27 65 68 89q-22 72 -87 72q-19 0 -42 -6q-16 64 -88 64t-88 -64q-23 6 -42 6q-65 0 -87 -72zM26 465q4 -12 4 -25q0 -12 -6.5 -34t-6.5 -33q0 -22 15 -43.5t48 -32.5q41 -12 45.5 -15.5 t41.5 -42.5q21 -23 47 -22q71 2 75 63l8 116q-69 -1 -113 61q-12 17 -58 117q-29 63 -61 63q-13 0 -28 -8q-37 -19 -37 -60q0 -28 26 -104zM327 396v0l9 -116q4 -61 75 -63q25 -1 47 22q37 40 41 43t44 16q34 10 47 30q17 23 17 45q0 12 -6.5 33.5t-6.5 34.5q0 12 4 24 q26 76 26 104q0 41 -37 60q-15 8 -28 8q-32 0 -61 -63q-46 -100 -58 -117q-44 -62 -113 -61zM196 100q15 1 37 3t32 2q23 0 48 -8q-60 71 -108 71q-20 0 -31.5 -12t-11.5 -27q0 -30 34 -29zM307 236q-3 -23 -3 -44q0 -119 104 -189l10 15q-113 75 -93 215zM414 34v0 q4 29 18.5 54.5t28.5 51.5q5 10 5 18q0 29 -31 29q-45 0 -45 -61q0 -38 24 -92z" />
<glyph unicode="x" horiz-adv-x="768" d="M175 683q0 -19 13 -32t31 -13q19 0 32 13t13 32v0q0 18 -13 31.5t-32 13.5q-18 0 -31 -13.5t-13 -31.5zM299 748q0 -18 13 -31.5t32 -13.5q18 0 31.5 13.5t13.5 31.5t-13.5 31.5t-31.5 13.5q-19 0 -32 -13t-13 -32zM423 683q0 -19 13.5 -32t31.5 -13q19 0 32 13t13 32v0 q0 18 -13 31.5t-32 13.5q-18 0 -31.5 -13.5t-13.5 -31.5zM267 481l63 -258q5 -21 14 -21t14 21l64 258q3 16 3 30q0 38 -24 59t-57 21t-57 -21t-24 -59q0 -14 4 -30zM0 347q1 -103 76 -129q-7 -33 -7 -62q0 -68 43 -111t111 -43q39 0 71.5 24.5t49.5 62.5v0 q17 -38 49.5 -62.5t70.5 -24.5q68 0 111.5 43t43.5 111q0 29 -7 62q76 26 76 129q0 49 -64.5 123t-64.5 118q0 37 44 90q-100 -50 -100 -149q0 -37 15 -95t15 -102q1 -74 -59 -117q-53 -39 -130 -39t-130 39q-59 43 -59 117q0 44 14.5 102t14.5 95q0 100 -99 149 q44 -53 43 -90q0 -44 -64 -117.5t-64 -123.5z" />
<glyph unicode="y" horiz-adv-x="941" d="M271 690q85 -30 138 -137q8 -17 22 -15q13 -2 22 15q52 107 137 137q-1 59 -58 58q-9 41 -52 45q-28 2 -49 -31v0q-21 33 -50 31q-43 -4 -52 -45q-57 1 -58 -58zM0 384q7 -81 64 -114q-7 -38 -7 -70q0 -175 177 -179q123 -3 173 172v0q-221 44 -221 262q0 -7 2 76 q2 46 -2 73q-6 35 -22 54q0 -32 -44 -80q-81 -87 -81 -88q-43 -56 -39 -106zM199 653q20 -26 20 -103q0 -125 -1 -115q16 -181 198 -210v0v141q0 126 -43 194q-52 82 -174 93zM445 225q200 31 200 243q0 183 -2 104q1 58 20 81q-187 -17 -212 -208q-6 -45 -6 -79v-141z M455 193v0q49 -175 174 -172q176 4 176 179q0 33 -7 70q57 33 63 114q4 50 -39 106l-80 88q-44 48 -43 80q-26 -28 -27 -112l2 -128q-19 -185 -219 -225zM399 86q-5 -10 -5 -25q0 -22 10 -40t27 -18v0q17 0 27 19q9 16 9 39q0 15 -4 25l-32 75z" />
<glyph unicode="z" horiz-adv-x="825" d="M30 522q-25 -16 -25 -37q0 -37 53 -43l234 -30q1 4 4 11l-191 138q-21 15 -41 15q-36 0 -36 -37q0 -8 2 -17zM216 733q1 -36 18 -83q21 -59 49 -59q6 0 13 3q33 -45 70 -122h3q2 1 4 1q1 0 4 -1h5q31 67 69 122q7 -3 13 -3q19 0 39 38q26 53 26 104q-43 -24 -76 -75 q-17 -25 -17 -41q0 -10 7 -17q-27 -37 -64 -109v142q27 6 23 57q-4 59 -29 103q-25 -44 -29 -103q-4 -53 25 -57v-142q-19 38 -65 110q6 7 6 16q0 16 -17 41q-34 50 -77 75zM23 268q-3 -11 -3 -20q0 -37 36 -37q19 0 39 13l199 129q-2 6 -4 10l-235 -17q-55 -4 -55 -41 q0 -20 23 -37zM304 384q0 -28 20.5 -48t48.5 -20t48 20t20 48q0 29 -20 49t-48 20t-48.5 -20t-20.5 -49zM143 160q-25 -22 -25 -46q0 -36 46 -35q13 -34 38 -34q31 0 47 44l80 221q-5 2 -10 6zM449 423q2 -4 5 -11v0l234 30q52 6 52 43q0 21 -25 37q2 9 2 17q0 37 -35 37 q-20 0 -42 -15zM309 69q-3 -11 -3 -22q0 -44 35 -44q15 0 32 11q17 -11 32 -11q35 0 35 44q0 11 -3 22l-58 228h-12zM452 353l198 -129q21 -13 40 -13q36 0 36 37q0 9 -3 20q22 17 22 37q0 37 -55 41l-235 17q-2 -5 -3 -10zM417 310l80 -221q15 -44 46 -44q25 0 38 34 q47 -1 47 35q0 24 -25 46l-177 156q-5 -4 -9 -6z" />
<glyph unicode="&#x2000;" horiz-adv-x="400" />
<glyph unicode="&#x2001;" horiz-adv-x="800" />
<glyph unicode="&#x2002;" horiz-adv-x="400" />
<glyph unicode="&#x2003;" horiz-adv-x="800" />
<glyph unicode="&#x2004;" horiz-adv-x="266" />
<glyph unicode="&#x2005;" horiz-adv-x="200" />
<glyph unicode="&#x2006;" horiz-adv-x="133" />
<glyph unicode="&#x2007;" horiz-adv-x="133" />
<glyph unicode="&#x2008;" horiz-adv-x="100" />
<glyph unicode="&#x2009;" horiz-adv-x="160" />
<glyph unicode="&#x200a;" horiz-adv-x="44" />
<glyph unicode="&#x202f;" horiz-adv-x="160" />
<glyph unicode="&#x205f;" horiz-adv-x="200" />
<glyph unicode="&#xe000;" horiz-adv-x="795" d="M0 795h795v-795h-795v795z" />
</font>
</defs>
</svg>
