<?xml version="1.0" standalone="no"?>
<!DOCTYPE svg PUBLIC "-//W3C//DTD SVG 1.1//EN" "http://www.w3.org/Graphics/SVG/1.1/DTD/svg11.dtd" >
<svg xmlns="http://www.w3.org/2000/svg">
<metadata></metadata>
<defs>
<font id="shangrilanfregular" horiz-adv-x="830" >
<font-face units-per-em="1000" ascent="800" descent="-200" />
<missing-glyph horiz-adv-x="252" />
<glyph horiz-adv-x="1000" />
<glyph horiz-adv-x="1000" />
<glyph unicode="&#xd;" horiz-adv-x="252" />
<glyph unicode=" "  horiz-adv-x="252" />
<glyph unicode="&#x09;" horiz-adv-x="252" />
<glyph unicode="&#xa0;" horiz-adv-x="252" />
<glyph unicode="!" horiz-adv-x="136" d="M115 451q0 -47 -16 -174q-8 -59 -19 -172q-1 -9 -12 -9q-12 0 -12 9q-3 38 -19 162q-17 132 -16 184q0 20 13.5 33.5t33.5 13.5q19 0 33 -13.5t14 -33.5zM108 36q0 -17 -12 -28.5t-28 -11.5q-17 0 -29 11.5t-12 28.5t12 29t29 12q16 0 28 -12t12 -29z" />
<glyph unicode="&#x22;" horiz-adv-x="218" d="M187 580q-3 -15 -14 -44q-3 -12 -7.5 -25t-14.5 -13q-13 0 -14 10q0 7 -10 35.5t-11 36.5q-6 27 4.5 43t31.5 16q20 0 30 -15.5t5 -43.5zM101 580q-6 -25 -12 -44q-5 -11 -10 -28q0 -10 -13 -10t-13.5 9t-8.5 29q-5 14 -13 44q-5 27 5 43t31 16q20 0 31 -15q9 -19 3 -44z " />
<glyph unicode="#" />
<glyph unicode="$" horiz-adv-x="431" d="M414 433l-67 -102l-11 4q3 13 3 26q0 41 -26.5 70t-69.5 37q-5 1 -13 2v-192q71 -20 103 -43q48 -35 44 -97q-3 -65 -55 -104q-40 -29 -92 -37v-37q0 -12 -12 -12t-12 12v35q-52 -2 -94 15l-25 -25q-20 47 -61 143l33 3q8 -45 46 -74q35 -27 83 -33q15 -1 18 -1v159 q-7 2 -23 6q-82 22 -113 43q-53 34 -53 98q0 12 2 26q9 64 78 109q49 31 109 41v37q0 13 12 13t12 -13v-34q6 1 22 1q115 0 162 -76zM206 284v187q-46 -1 -80 -24q-37 -26 -40 -67q-2 -40 35 -64q25 -16 85 -32zM315 86q8 59 -85 90v-152q78 8 85 62z" />
<glyph unicode="%" />
<glyph unicode="&#x26;" horiz-adv-x="538" d="M491 227q6 -19 6 -39q0 -45 -28 -84t-72 -58q17 -39 53 -39h22q6 0 6 -6t-6 -6h-142q-6 0 -9 13q-42 -15 -86 -15q-66 0 -118 32q-58 35 -72 95q-4 16 -4 32q0 56 41 104q36 42 92 67l-45 99q-17 36 -31.5 49t-48.5 13q-6 0 -6 6q0 5 6 5h369q20 0 35 -9q9 -5 -1 -10 q-26 -12 -34 -51q-16 -68 -76 -68q-18 0 -34 9q-3 2 -3 6q0 3 3 4q29 14 29 48q0 23 -17 37.5t-46 14.5h-36q-18 0 -25 -14q-7 -15 3 -36l169 -356q40 28 40 89q0 79 -57 121q-25 18 -52 18q-10 0 -20 -3q-11 -2 -13 10q-5 12 10 16q24 7 48 7q51 0 93 -26.5t57 -74.5z M311 28l-127 275q-52 -29 -52 -100q0 -52 29 -99t74 -68q42 -20 76 -8z" />
<glyph unicode="'" horiz-adv-x="123" d="M97 580q-2 -8 -14 -44q-7 -23 -7 -28q-1 -10 -14 -10q-14 0 -14.5 10t-8.5 28q-5 14 -13 44q-6 26 5 44q10 15 31 15q20 0 30 -15.5t5 -43.5z" />
<glyph unicode="(" horiz-adv-x="229" d="M212 -68q3 -3 0 -7q-2 -4 -6 -2q-85 30 -137 109t-52 178t53 179.5t136 107.5q4 1 7 -3q2 -4 -1 -7q-54 -45 -83 -127q-25 -71 -25 -150q0 -80 25 -151q28 -80 83 -127z" />
<glyph unicode=")" horiz-adv-x="213" d="M14 -77q-3 -2 -5 2q-3 4 0 7q50 42 79.5 118t29.5 160t-30 160.5t-79 116.5q-3 3 0 7q2 4 5 3q84 -27 137 -107.5t53 -179.5t-51.5 -178.5t-138.5 -108.5z" />
<glyph unicode="*" horiz-adv-x="251" d="M213 408q3 -5 3 -11q0 -26 -25 -27q-13 -1 -28 12q-10 9 -22 24q10 -30 10 -43q0 -30 -27 -30q-26 0 -26 29q0 15 11 43q-31 -36 -50 -35q-24 1 -24 27q0 25 58 36q-22 4 -30 7q-18 6 -24 18q-3 5 -3 12q0 25 23 26q20 1 49 -35q-10 32 -10 43q0 10 5.5 19t20.5 9t23 -10 q4 -8 4 -19q0 -14 -10 -43q32 37 50 36q25 -1 25 -27q0 -6 -3 -11q-10 -13 -25 -18q-7 -3 -31 -7l31 -7q19 -7 25 -18z" />
<glyph unicode="+" />
<glyph unicode="," horiz-adv-x="117" d="M100 29q0 -53 -47 -74q-5 -2 -7 1q-2 4 0 8q12 16 15 34q-18 -1 -31 11t-13 30q0 16 11.5 28t28.5 12q20 0 31.5 -14t11.5 -36z" />
<glyph unicode="-" horiz-adv-x="135" d="M125 191q0 -5 -6 -5h-103q-6 0 -6 5v55q0 6 6 6h103q6 0 6 -6v-55z" />
<glyph unicode="." horiz-adv-x="117" d="M99 39q0 -17 -12 -29t-29 -12t-28.5 12t-11.5 29q0 16 12 28t28 12q17 0 29 -12t12 -28z" />
<glyph unicode="/" />
<glyph unicode="0" horiz-adv-x="453" d="M433 248q0 -105 -60.5 -179t-146.5 -74q-84 0 -145 73.5t-61 179.5q0 104 60.5 177.5t145.5 73.5q86 0 146.5 -74t60.5 -177zM334 292q-10 59 -37 111q-38 69 -86 69q-60 0 -86 -100q-12 -44 -12 -95q0 -37 7 -75q10 -60 37 -110q37 -70 85 -70q61 0 87 101q11 43 11 94 q0 38 -6 75z" />
<glyph unicode="1" horiz-adv-x="298" d="M261 1q0 -6 -6 -6h-212q-6 0 -6 6t6 6h12q20 0 35 19t15 40v325q0 38 -35 38q-10 0 -19 -4q1 0 -6 -2q-8 -4 -8 2q-2 5 4 8l145 65q7 3 7 -5v-427q0 -21 15 -40t36 -19h11q6 0 6 -6z" />
<glyph unicode="2" horiz-adv-x="473" d="M431 346q0 -79 -53 -122q-35 -29 -123 -58q-32 -10 -89 -36q-26 -16 -26 -50q0 -53 66 -53q44 0 61 5q35 9 35 41q0 21 -13.5 33.5l-13.5 12.5q0 6 16 11q13 3 22 3q60 0 71 -67q6 -36 29 -51q4 -3 4 -5q0 -14 -39 -14h-328q-6 0 -6 5q0 2 3 33q8 73 84 126q69 40 137 80 q71 48 71 112q0 42 -24 74q-26 36 -67 36q-56 0 -96 -34q-43 -36 -43 -91q0 -2 1 -6v-8q0 -6 -5 -6q-4 0 -5 2q-20 33 -57 101q-1 0 -1 2q0 3 1 3q25 37 82 57q47 16 99 16q77 0 137 -37q70 -43 70 -115z" />
<glyph unicode="3" horiz-adv-x="426" d="M408 182q0 -77 -74 -132t-173 -55h-137q-5 0 -5 7q10 63 63 102q4 3 8 -1q3 -3 0 -7q-8 -13 -8 -24q0 -52 57 -52q28 0 58 13q42 20 68 56q30 41 30 93q0 48 -35 90q-32 38 -80 58q-22 -5 -52 -8q-17 0 -17 14t29 19q43 8 53 12q28 13 28 45q0 28 -22.5 43.5t-51.5 15.5 q-26 0 -44 -12q-21 -15 -21 -40q0 -13 8 -25q2 -3 -1.5 -6.5t-6.5 -0.5q-53 38 -63 102q0 6 5 6h124q72 0 105 -10q48 -15 48 -58q0 -44 -54 -72q66 -20 110 -61q51 -49 51 -112z" />
<glyph unicode="4" horiz-adv-x="434" d="M408 115q0 -4 -4 -5t-7 2q-13 22 -24.5 29.5t-36.5 7.5h-42v-90q0 -22 14.5 -37t35.5 -15h11q6 0 6 -6q0 -5 -6 -5h-211q-7 0 -7 5q0 6 7 6h10q22 0 37 19t15 40v83h-168q-11 0 -11 10q0 7 7 17l249 322q3 4 7 3t4 -5v-320h42q25 0 36.5 8t24.5 30q3 3 7 2t4 -4v-97z M206 176v176l-135 -176h135z" />
<glyph unicode="5" horiz-adv-x="422" d="M393 182q2 -86 -67 -139q-62 -48 -151 -48h-138q-4 0 -5 6q-2 64 48 103q3 2 6.5 -1t2.5 -7q-7 -11 -5 -24q8 -51 65 -51q34 0 66 20q65 41 65 119q0 86 -57 136q-44 39 -116 38q-3 0 -9 -1h-8q-7 0 -7 6v110q0 15 -11 25t-25 10h-11q-7 0 -7 6q0 5 7 5h332q6 0 6 -6 q-8 -63 -64 -102q-5 -6 -9 -1q-2 2 2.5 10l4.5 8q2 6 2 15q0 55 -93 57q-24 0 -35 -10.5t-11 -24.5v-78q80 -6 145 -52q75 -53 77 -129z" />
<glyph unicode="6" horiz-adv-x="468" d="M445 166q0 -64 -47 -112q-50 -50 -126 -62q-14 -2 -29 -2q-68 0 -126 45q-94 74 -94 208q0 74 33 135q51 93 145 114q37 8 80 0q46 -8 73 -31q16 18 35 12q4 0 5 -4q1 -3 -3 -6q-13 -11 -16 -39q-6 -62 -46 -74q-37 -9 -46 14q-4 8 4.5 17t21.5 7q10 -2 3 -9q-5 -7 0 -9 q10 -3 19 23q3 9 3 19q0 39 -31 52q-23 10 -62 6q-46 -5 -78 -47q-26 -35 -38 -86q-4 -21 -7 -47q52 60 131 60t137.5 -53t58.5 -131zM361 166q0 60 -25 103q-31 52 -87 52q-40 0 -75.5 -25.5t-54.5 -65.5q4 -89 44 -153q36 -57 86 -57q49 0 80.5 39.5t31.5 106.5z" />
<glyph unicode="7" horiz-adv-x="476" d="M445 490q0 -6 -7 -6q-35 0 -50 -12.5t-29 -49.5l-90 -239q-23 -63 -49 -131q-1 -9 -1 -14q0 -20 22 -29q6 -2 23 -2q6 0 6 -6t-6 -6h-209q-6 0 -6 6t29 6q38 0 52 36q37 100 69 185l73 198q4 11 4 23q0 27 -27 27h-36q-62 0 -62 -52q0 -29 29 -48q3 0 3 -5q0 -13 -38 -13 q-58 0 -75 67q-8 33 -35 51q-3 3 -4 5q0 14 39 14h368q7 0 7 -5z" />
<glyph unicode="8" horiz-adv-x="465" d="M447 162q0 -77 -71 -127q-63 -45 -144 -45q-89 0 -152 51t-63 121q0 63 51 110q45 43 110 57q-36 8 -63 27q-34 24 -34 56q0 37 46 64q43 25 105 25q64 0 107.5 -25.5t43.5 -63.5q0 -32 -33 -56q-27 -19 -64 -27q66 -14 111 -57q50 -47 50 -110zM304 401q0 33 -25 58 t-57 25q-26 0 -43 -17.5t-17 -43.5q0 -33 24.5 -58t57.5 -25q26 0 43 17.5t17 43.5zM348 141q0 61 -35 113q-39 57 -97 57q-48 0 -76 -41q-24 -37 -24 -87q0 -41 18 -82t50 -65t66 -24q46 0 74 43q24 37 24 86z" />
<glyph unicode="9" horiz-adv-x="458" d="M406 109q-51 -94 -144 -115q-37 -8 -80 0q-45 8 -73 30q-17 -16 -36 -12q-9 4 -1 11q13 8 16 38q6 63 46 74q37 11 46 -14q4 -10 -4 -16q-7 -9 -21 -7q-4 1 -5 4q-2 4 1 6q6 6 0 8q-6 1 -19 -22q-4 -9 -4 -19q0 -39 32 -52q24 -11 63 -7q59 6 94 75q21 42 28 106 q-51 -60 -131 -60q-79 0 -137 52.5t-58 130.5q0 74 64 127q61 49 137 49q68 0 126 -45q94 -74 94 -207q0 -74 -34 -135zM344 255q-5 91 -45 154q-35 57 -85 57q-49 0 -80.5 -39.5t-31.5 -106.5q0 -69 31 -112t81 -43q40 0 75.5 25.5t54.5 64.5z" />
<glyph unicode=":" horiz-adv-x="132" d="M106 243q0 -17 -12 -29t-28 -12q-17 0 -28.5 12t-11.5 29t11.5 28.5t28.5 11.5q16 0 28 -11.5t12 -28.5zM106 43q0 -17 -12 -29t-28 -12q-17 0 -28.5 12t-11.5 29t11.5 28.5t28.5 11.5q16 0 28 -11.5t12 -28.5z" />
<glyph unicode=";" horiz-adv-x="131" d="M106 239q0 -17 -12 -29t-29 -12q-16 0 -28 12t-12 29q0 16 12 28t28 12q17 0 29 -12t12 -28zM108 30q0 -53 -48 -75q-4 -2 -8 2q-2 3 1 7q11 14 14 34q-17 -1 -30.5 11.5t-13.5 29.5t12 29t30 12q19 0 29 -15q14 -14 14 -35z" />
<glyph unicode="&#x3c;" />
<glyph unicode="=" />
<glyph unicode="&#x3e;" />
<glyph unicode="?" horiz-adv-x="480" d="M397 243q-22 -18 -76 -37q-58 -19 -77 -32q-36 -25 -36 -68q0 -6 -6 -6h-24q-5 0 -5 6q0 47 26 84q19 25 56 49.5t61 58.5q27 39 27 77q0 42 -27.5 64t-70.5 22q-67 0 -104 -40q-28 -30 -28 -71q0 -14 3 -27q1 -4 -4 -5q-5 -2 -7 1q-21 33 -66 101q-2 2 0 5q23 38 79 57 q45 17 97 17q65 0 126 -24q46 -17 73.5 -55.5t27.5 -81.5q0 -57 -45 -95zM232 36q0 -17 -12 -28.5t-28 -11.5t-27.5 12t-11.5 28q0 17 11.5 29t27.5 12t28 -12t12 -29z" />
<glyph unicode="@" horiz-adv-x="536" d="M505 321q8 -27 8 -53q0 -93 -83 -131q-29 -14 -54 -14q-19 0 -32 9q-36 -12 -75 -12q-55 0 -94 22q-42 23 -42 56t42 55q39 21 94 21q27 0 53 -5q0 87 -59 91q-18 1 -29.5 -10t-11.5 -25q0 -27 32 -33q4 0 4 -5t-5 -6q-25 -2 -46 6q-27 11 -27 35q0 28 31 44q25 12 57 12 q47 0 81 -25q36 -28 36 -76v-110q0 -22 19 -22q27 0 40 37q9 27 9 61q0 44 -14 87q-18 62 -58 99q-45 43 -108 43q-85 0 -133 -69q-42 -61 -42 -148q0 -120 72 -186q59 -55 138 -55q44 0 86 19q5 3 8 -4q2 -6 -3 -9q-50 -25 -106 -25q-89 0 -164 57t-98 145q-8 30 -8 61 q0 118 91 186q67 51 162 51q78 0 142.5 -49t86.5 -125zM326 150q-4 12 -4 28v69q-26 6 -47 6q-35 0 -56.5 -16t-21.5 -40q0 -23 21 -39t56 -16q26 0 52 8z" />
<glyph unicode="A" horiz-adv-x="628" d="M589 5q0 -5 -5 -5h-207q-7 0 -7 5t7 6q31 1 31 27q0 13 -10 27q-7 10 -31 29q-39 29 -94 29q-82 0 -123 -58q9 -54 65 -54h16q6 0 6 -6q0 -5 -6 -5h-187q-6 0 -6 5q0 6 6 6q21 0 41 17.5t30 39.5l155 351q40 91 102 117q6 3 7 -3q2 -6 -3 -7q-23 -11 -23 -48 q0 -30 12 -59l148 -351q9 -21 27 -39t38 -18h6q5 0 5 -6zM399 107l-118 280l-115 -263q48 31 106 31q68 0 117 -38z" />
<glyph unicode="B" horiz-adv-x="535" d="M505 184q0 -80 -75.5 -133.5t-181.5 -53.5h-211q-7 0 -7 6q0 5 7 5h11q21 0 36 19t15 40v384q0 35 -37 35h-9q-7 0 -7 5t7 5h51q43 3 128 6q164 4 166 -71q0 -10 -2 -16q-8 -34 -51 -60q61 -17 105 -57q55 -50 55 -114zM318 413q0 28 -31 45q-27 15 -57 15q-44 0 -44 -25 v-95q132 -3 132 60zM392 184q0 48 -35 90q-31 38 -79 58q-48 -11 -92 -8v-258q0 -19 13.5 -31t31.5 -12q66 -1 113.5 46.5t47.5 114.5z" />
<glyph unicode="C" horiz-adv-x="473" d="M441 94q0 -3 -2 -7q-31 -43 -79 -69t-99 -26q-100 0 -166 79q-64 75 -64 175q0 102 64 177q66 80 166 80q42 0 83 -18q18 39 54 39q6 0 6 -5l-2 -4q-18 -28 -18 -58q0 -12 2 -18q5 -26 5 -54q0 -39 -13 -62q-28 -50 -76 -50q-40 0 -40 29q0 12 11.5 22t24.5 10q7 0 7 -5 q0 -3 -1.5 -6t-1.5 -5q0 -13 11 -13q13 0 21 22q6 17 6 33q0 41 -27 76q-29 39 -68 39q-8 0 -14 -3q-54 -11 -83 -73q-24 -51 -24 -112q0 -28 7 -66q16 -91 71 -149q45 -48 94 -48q3 0 15 2q55 7 96 50q5 7 16 22q6 6 10 6q8 0 8 -10z" />
<glyph unicode="D" horiz-adv-x="492" d="M462 246q0 -104 -76.5 -177t-181.5 -73h-168q-6 0 -6 6t6 6h11q21 0 36 19t15 40v383q0 35 -37 35h-11q-6 0 -6 5q0 7 6 7h154q105 0 181.5 -73t76.5 -178zM366 247q0 92 -47 157t-113 65q-20 0 -20 -30v-372q0 -40 22 -40q65 0 111.5 64t46.5 156z" />
<glyph unicode="E" horiz-adv-x="426" d="M404 490q-7 -63 -64 -102q-3 -3 -6 0q-4 3 -1 7q7 10 7 25q0 31 -39 45q-28 11 -65 11h-19q-39 0 -39 -34v-265h60q27 0 41 11q8 5 21 27q2 3 6 2t4 -5v-97q0 -4 -4 -5t-6 2q-21 38 -62 38h-60v-83q0 -51 61 -51q34 0 65 18q35 20 35 51q0 19 -15 35q-2 2 0 7q4 3 7 2 q66 -27 66 -77q0 -12 -8 -29q-10 -21 -23 -27h-337q-7 0 -7 6t7 6h11q21 0 35.5 18.5t14.5 40.5v383q0 35 -37 35h-10q-6 0 -6 5q0 7 6 7h356q7 0 5 -7z" />
<glyph unicode="F" horiz-adv-x="431" d="M407 490q-10 -64 -64 -102q-3 -3 -7 0q-3 3 -1 7q8 13 8 25q0 30 -40 45q-29 11 -65 11h-20q-37 0 -37 -34v-265h51q27 0 40 11q8 5 21 27q2 3 7 2q3 -1 3 -5v-97q0 -4 -3 -5q-4 -1 -13 11q-11 16 -15 18q-14 11 -40 11h-51v-83q0 -22 15 -40.5t36 -18.5h10q7 0 7 -6 t-7 -6h-212q-6 0 -6 6t6 6h12q21 0 36 19t15 40v383q0 35 -37 35h-10q-6 0 -6 5q0 7 6 7h354q7 0 7 -7z" />
<glyph unicode="G" horiz-adv-x="511" d="M478 128q1 -7 -4 -9q-27 -6 -36 -18q-5 -7 -9 -28q-61 -83 -171 -83q-109 0 -175 93q-50 69 -50 157q0 122 85 200q65 59 149 59q55 0 101 -28q22 37 58 34q4 0 5 -4q2 -3 -1 -5q-32 -31 -25 -75q7 -51 7 -64q0 -31 -12 -53q-28 -49 -74 -49q-41 0 -43 29q-2 25 34 32 q11 0 6.5 -8t-1 -14t10.5 -7q10 0 18 12q10 18 10 41q0 37 -22 76q-34 60 -85 54q-62 -6 -97 -79q-28 -58 -28 -128q0 -106 52 -179q44 -64 97 -65q25 -1 46 13.5t21 38.5q0 36 -42 48q-5 2 -5 9q2 6 6 6h168q6 0 6 -6z" />
<glyph unicode="H" horiz-adv-x="568" d="M527 2q0 -6 -5 -6h-213q-7 0 -7 6t7 6h12q20 0 34.5 19t14.5 40v79h-172v-79q0 -22 14.5 -40.5t35.5 -18.5h12q7 0 7 -6t-7 -6h-212q-7 0 -7 6t7 6h11q21 0 36 19t15 40v383q0 35 -37 35h-11q-5 0 -5 5q0 7 5 7h183q6 0 6 -7q0 -5 -6 -5h-10q-37 0 -37 -35v-280h172v280 q0 35 -36 35h-10q-7 0 -7 5q0 7 7 7h182q6 0 6 -7q0 -5 -6 -5h-10q-37 0 -37 -35v-383q0 -22 15 -40.5t36 -18.5h12q5 0 5 -6z" />
<glyph unicode="I" horiz-adv-x="285" d="M255 2q0 -6 -6 -6h-213q-5 0 -5 6t5 6h11q22 0 37 18.5t15 40.5v383q0 35 -37 35h-11q-5 0 -5 5q0 7 5 7h184q6 0 6 -7q0 -5 -6 -5h-11q-37 0 -37 -35v-383q0 -22 15 -40.5t36 -18.5h11q6 0 6 -6z" />
<glyph unicode="J" horiz-adv-x="490" d="M459 490q0 -6 -6 -6h-10q-38 0 -38 -35v-299q0 -22 16 -34q-27 -56 -84.5 -88t-122.5 -32q-78 0 -127 37q-57 44 -57 112q0 61 42 105.5t103 44.5q44 0 75.5 -28t31.5 -73q0 -39 -29 -65.5t-68 -26.5q-24 0 -40.5 14.5t-16.5 38.5q0 28 33 45v-7q0 -31 23 -31q26 0 26 37 q0 22 -12 38t-33 16q-35 0 -55 -32q-18 -26 -18 -64q0 -47 35 -84t82 -37q45 0 76.5 34t31.5 80v299q0 15 -10.5 25t-25.5 10h-11q-7 0 -7 6q0 5 7 5h183q6 0 6 -5z" />
<glyph unicode="K" horiz-adv-x="540" d="M507 66q-5 -20 -27.5 -42t-42.5 -27q-59 -14 -105 15q-26 17 -77 75q-25 30 -41 30t-25 -20v-30q0 -22 15 -40.5t37 -18.5h11q6 0 6 -6t-6 -6h-213q-6 0 -6 6t6 6h11q21 0 36.5 18.5t15.5 40.5v383q0 35 -38 35h-10q-6 0 -6 5q0 6 6 6h182q6 0 6 -6q0 -5 -6 -5h-9 q-38 0 -38 -35v-312q99 104 177 249q15 29 10 45q-7 20 -38 14q27 48 74 50q36 1 36 -34q0 -33 -32.5 -86t-98.5 -133q-38 -46 -62 -73h6q35 0 84 -68q16 -24 49 -59q24 -14 49 -14q23 0 33.5 15t3.5 28q-4 10 -20 15q5 25 23 25q16 0 21.5 -15.5t2.5 -30.5z" />
<glyph unicode="L" horiz-adv-x="461" d="M434 11q-25 -15 -44 -15h-357q-6 0 -6 6t6 6h10q22 0 37 18.5t15 40.5v383q0 35 -38 35h-9q-6 0 -6 5q0 6 6 6h194q6 0 6 -6q0 -5 -6 -5h-23q-36 0 -36 -35v-383q0 -21 14.5 -35.5t35.5 -15.5q27 -1 50.5 13.5t23.5 39.5q0 29 -37 51q25 14 47 14q27 0 47 -20t26 -47 q9 -39 44 -56z" />
<glyph unicode="M" horiz-adv-x="661" d="M616 1q0 -6 -6 -6h-212q-6 0 -6 6t15 6q21 0 34 16.5t13 37.5q0 -1 0 5l-31 350l-120 -144q-45 44 -137 134q-1 -19 -11 -170q-8 -103 -8 -170v-3q0 -21 13.5 -38.5t35 -17.5t21.5 -6t-6 -6h-161q-6 0 -6 6t14 6q22 0 38 18.5t17 41.5q21 309 21 361v4q0 25 -18.5 38.5 t-45.5 13.5q-8 0 -8 5q0 6 6 6h129l134 -138l115 138h125q6 0 6 -6q0 -5 -8 -5q-61 0 -61 -54v-6l34 -357q3 -22 19.5 -41t38.5 -19q16 0 16 -6zM361 101q0 -82 -78 -115q12 30 12 49q0 20 -18 56t-18 61q0 40 22.5 65.5t60.5 25.5q-10 -14 -10 -32q0 -14 14.5 -48.5 t14.5 -61.5z" />
<glyph unicode="N" horiz-adv-x="509" d="M474 -60q-5 -2 -8 -1q-49 18 -89 83l-217 350v-311q0 -21 15 -40t36 -19h11q6 0 6 -6q0 -5 -6 -5h-156q-6 0 -6 5q0 6 6 6h12q21 0 36 19t15 40v361q-19 31 -35 42q-20 15 -53 15q-6 0 -6 6t6 6h144l202 -336v290q0 34 -37 34h-11q-5 0 -5 6t5 6h127q5 0 5 -6t-5 -6h-10 q-38 0 -38 -34v-353q0 -36 13 -77q16 -47 40 -66q5 -6 3 -9z" />
<glyph unicode="O" horiz-adv-x="600" d="M563 242q0 -106 -78.5 -179.5t-184.5 -73.5q-107 0 -185 75t-78 178q0 105 78.5 178.5t184.5 73.5t184.5 -73t78.5 -179zM468 286q-19 71 -68 122q-56 58 -124 58q-73 0 -116 -64q-37 -55 -37 -131q0 -37 10 -74q19 -71 68 -122q55 -58 124 -58q72 0 115 63q38 56 38 132 q0 37 -10 74z" />
<glyph unicode="P" horiz-adv-x="489" d="M396 464q62 -33 62 -82q0 -56 -74.5 -91t-174.5 -35q-18 0 -28 1v-190q0 -22 15 -40.5t36 -18.5h11q7 0 7 -6t-6 -6h-212q-6 0 -6 6q-1 6 6 6h10q21 0 36.5 19t15.5 40v383q0 35 -37 35h-10q-7 0 -7 5q0 6 7 6h195q96 0 154 -32zM349 376q0 40 -41 68.5t-96 28.5 q-31 0 -31 -31v-162q9 -1 27 -1q60 0 100.5 28.5t40.5 68.5z" />
<glyph unicode="Q" horiz-adv-x="598" d="M561 236q0 -81 -50 -147.5t-127 -91.5q11 -10 35 -29q15 -9 30 -9q17 0 31.5 11.5t14.5 28.5q0 16 -18 19q-5 0 -6.5 1t-1.5 6q5 18 23 18q16 0 22 -14.5t2 -29.5q-17 -72 -84 -72q-58 0 -104 58q-20 -2 -30 -2q-106 0 -183.5 74t-77.5 179q0 106 77.5 179.5t183.5 73.5 q107 0 185 -73.5t78 -179.5zM466 280q-23 92 -91 144q-48 37 -100 37q-73 0 -116 -64q-38 -55 -38 -131q0 -37 10 -75q18 -67 62 -116q50 -55 114 -64q-47 64 -78 64q-8 0 -15 -5q-5 -3 -8 2q-4 4 1 7q27 23 53 23q39 0 98 -72q3 -4 8 -12q54 18 84 75q26 50 26 112 q0 38 -10 75z" />
<glyph unicode="R" horiz-adv-x="619" d="M586 46q5 -67 -99 -67q-32 0 -55 7q-71 23 -117 82q-8 11 -92 142q-7 12 -25 29q-1 1 -9 1v-175q0 -21 15 -40t36 -19h11q6 0 6 -6q0 -5 -6 -5h-213q-5 0 -5 5q0 6 5 6h13q21 0 35.5 19t14.5 40v384q0 34 -47 34q-6 0 -6 5q0 6 6 6h196q77 0 136 -25q80 -35 80 -102 q0 -54 -72 -90q-53 -26 -118 -34q58 -29 102 -127q25 -58 46 -81q32 -36 83 -37q25 -1 44 15q8 7 8 18t-12 6q-5 -3 -11 -6q0 37 29 37q19 0 21 -22zM354 371q0 48 -44 76q-38 25 -90 25q-31 0 -31 -32v-171q13 -2 27 -2q54 0 93 25q44 29 45 79z" />
<glyph unicode="S" horiz-adv-x="450" d="M424 424q-38 -58 -68 -104l-10 5q3 12 3 25q0 51 -39 83q-36 29 -88 29q-48 0 -84 -23q-40 -26 -43 -69t39 -67q24 -14 93 -32q80 -22 111 -43q53 -35 49 -102q-3 -67 -54 -104q-54 -40 -128 -40q-45 0 -85 16l-24 -25q-21 48 -60 144l32 3q9 -51 56 -82q43 -28 97 -28 q42 0 71 18t33 47q5 45 -44 72q-25 14 -87 30q-83 22 -115 43q-53 34 -53 98q0 13 2 27q10 71 88 115q68 39 146 39q115 0 162 -75z" />
<glyph unicode="T" horiz-adv-x="495" d="M470 513q0 -6 -9 -18l-46 -101q-3 -5 -6 -5q-5 0 -5 5q0 -1 0 3q5 9 5 25q0 56 -55 56h-65v-410q0 -21 14.5 -39.5t36.5 -18.5q17 0 17 -6q0 -5 -6 -5h-211q-5 0 -5 5q0 6 16 6q22 0 36.5 18.5t14.5 39.5v410h-41q-43 0 -71 -17q-24 -15 -55 -68q-2 -4 -4 -4q-6 0 -6 6 q0 12 56 123q1 3 5 3q6 0 6 -5q0 -1 -7 -14h367q7 17 12 17q6 0 6 -6z" />
<glyph unicode="U" horiz-adv-x="521" d="M491 489q0 -5 -5 -5q-45 0 -48 -35q-6 -104 -13 -208q-14 -134 -56.5 -192.5t-102.5 -58.5q-58 0 -100 57.5t-61 191.5l-22 210q-4 35 -47 35q-7 0 -7 5t7 5h182q6 0 6 -5t-8 -6h-13q-13 -2 -23.5 -11t-8.5 -23q10 -96 19 -193q15 -125 48 -185q22 -40 49 -40q34 0 60 46 q36 61 48 181q6 96 13 191q1 15 -11 25t-28 10h-10q-4 0 -4 5t4 5h127q5 0 5 -5z" />
<glyph unicode="V" horiz-adv-x="470" d="M439 417q0 -74 -66 -219q-47 -102 -109 -205h-13q-28 83 -155 455q-13 36 -50 36h-10q-6 0 -6 6q0 5 6 5h183q5 0 5 -5q0 -6 -5 -6q-26 0 -33 -9.5t-3 -23.5q54 -177 109 -348q47 79 72 176q15 58 12 98q-3 60 -54 60q-26 0 -42 -30q-4 -7 -7 -3q-5 1 -4 7q20 53 54 75 q22 14 46 14q35 0 54 -25q16 -23 16 -58z" />
<glyph unicode="W" horiz-adv-x="608" d="M573 409q0 -77 -53 -215q-45 -119 -94 -201h-13l-62 179l-81 -179h-12l-156 455q-12 36 -50 36h-10q-6 0 -6 6q0 5 6 5h338q7 0 7 -5q0 -6 -7 -6q-26 0 -33 -9.5t-2 -23.5l109 -348q28 52 47 130q22 85 15 137q-8 67 -61 67q-24 0 -42 -30q-2 -6 -8 -3q-4 1 -2 7 q31 89 99 89q71 0 71 -91zM339 210q-23 68 -84 245q-9 25 -32 29q-20 0 -27 -6q-12 -11 -5 -32q36 -109 106 -327z" />
<glyph unicode="X" horiz-adv-x="519" d="M486 1q0 -6 -7 -6h-213q-5 0 -5 6t5 6q29 0 36 18q7 17 -6 44l-78 154q-4 -5 -8 -8q-29 -31 -50 -60q-38 -54 -38 -83q0 -22 22 -30q11 -4 24 4t15 8q10 0 10 -11q0 -4 -3 -7q-6 -9 -17 -19q-29 -25 -62 -25q-25 0 -43 17t-18 42q0 39 45 96q29 38 106 112 q-30 59 -91 179q-23 46 -60 46h-11q-6 0 -6 6q0 5 6 5h183q7 0 7 -5q0 -6 -7 -6q-16 0 -23 -10q-7 -16 2.5 -36.5t63.5 -125.5q50 53 66 89q9 19 9 32q0 21 -22 32q-16 9 -37 -7q-3 -1 -5 -1q-3 0 -5 1q-1 4 1 8q26 30 63 35q28 3 47 -11.5t19 -40.5q0 -38 -49 -92 q-31 -35 -75 -72l106 -211q11 -22 35 -43q27 -24 50 -24h11q7 0 7 -6z" />
<glyph unicode="Y" horiz-adv-x="582" d="M550 490q0 -5 -6 -5q-42 0 -73 -36l-109 -125v-257q0 -22 15 -40.5t36 -18.5q17 0 17 -6t-5 -6h-214q-6 0 -6 6t19.5 6t34.5 18.5t15 40.5v235l-152 142v0q-24 24 -39.5 32.5t-44.5 8.5q-6 0 -6 5q0 6 6 6h208q6 0 6 -6q0 -5 -14.5 -5.5t-14.5 -12.5q0 -14 20 -33l97 -92 l67 77q11 12 11 27q0 34 -38 34h-10q-6 0 -6 5q0 6 6 6h174q6 0 6 -6z" />
<glyph unicode="Z" horiz-adv-x="621" d="M583 2q0 -5 -6 -5h-532q-7 0 -7 5q0 7 12 7q26 0 62 29q32 25 49 52q70 114 212 352q-25 -8 -120 -8q-68 0 -86 -29q-5 -6 -5 -15q0 -27 44 -27q10 0 10 -4q0 -14 -23 -22q-18 -6 -34 -6q-61 0 -61 60v8q3 35 27 62t59 36q32 8 73 8q19 0 77 -5q68 -6 127 -6 q13 0 38.5 1.5t37.5 1.5h1q10 0 10 -5t-11 -7q-5 -1 -14 -4q-45 -19 -86 -86l-222 -366h101q47 0 81 16q44 22 44 64q0 20 -13 38.5t-32 18.5q-31 0 -31 -21q0 -16 17 -16q5 0 9 2.5t6 2.5h2q3 -2 3 -7q0 -16 -14.5 -27.5t-31.5 -11.5q-18 0 -30 12t-12 29q0 34 31 55 q27 19 62 19q48 0 83 -29t35 -76v-6q0 -57 35 -77q2 -1 18 -6q5 -3 5 -7z" />
<glyph unicode="_" horiz-adv-x="341" d="M341 -51h-341v44h341v-44z" />
<glyph unicode="`" horiz-adv-x="217" d="M174 568h-28l-119 99h76z" />
<glyph unicode="a" horiz-adv-x="385" d="M370 21q0 -8 -18 -15t-28 -7q-23 0 -39.5 13t-18.5 36q-38 -49 -125 -49q-42 0 -79 18q-47 22 -47 59q0 38 47 60q36 17 79 17q69 0 119 -28q-2 41 -9 122q-3 35 -29 57.5t-61 22.5q-29 0 -53 -18t-24 -46q0 -38 53 -47q5 -1 5.5 -3t0.5 -3q0 -2 -4.5 -4.5t-71.5 -24.5 q-32 29 -32 64q0 45 46 74q39 24 87 24q129 0 141 -120q2 -19 12 -129q1 -17 4 -52q3 -23 23 -23q7 0 11 3t6 3t3.5 -1t1.5 -3zM264 74q0 58 -89 58q-84 0 -84 -53q0 -54 84 -54q42 0 65.5 15.5t23.5 33.5z" />
<glyph unicode="b" horiz-adv-x="339" d="M324 198q0 -70 -46 -132q-49 -67 -117 -67h-141q-5 0 -5 5t5 5q18 0 30.5 16t12.5 34v394q0 80 36 147q41 77 112 95h2q5 0 5 -5q0 -1 -3 -4q-8 -6 -24 -21q-57 -57 -58 -151q-1 -77 -1 -222q42 35 87 35q49 0 79 -41q26 -37 26 -88zM262 155q0 48 -19 89q-24 52 -66 52 q-25 0 -45 -22v-249q16 -10 45 -10q42 0 66 52q19 40 19 88z" />
<glyph unicode="c" horiz-adv-x="321" d="M306 118q-12 -50 -50 -83q-40 -36 -93 -36q-60 0 -104 48t-44 116q0 67 43.5 115t104.5 48q40 0 74 -17q39 -21 39 -56q0 -29 -22.5 -47t-52.5 -18q-23 0 -44 11q-4 3 -4 7q0 2 1 3q2 6 12 3q12 -5 23 -5q20 0 31 15q8 10 8 26q0 37 -30 57q-12 8 -28 8q-21 0 -41 -12 q-50 -31 -50 -109q0 -87 52 -134q32 -29 69 -29q43 0 72 38q18 23 24 54q2 5 7 3q5 0 3 -6z" />
<glyph unicode="d" horiz-adv-x="335" d="M337 690q0 -2 -2 -4q-41 -34 -60 -73q-22 -45 -22 -99v-455q0 -19 12.5 -34.5t30.5 -15.5q4 0 4 -5t-4 -5h-112v30q-41 -30 -80 -30q-51 0 -80 40q-26 36 -26 88q0 70 45 132q50 67 118 67q15 0 23 -2v129q0 91 41 158q36 59 91 79q13 5 16 5q4 0 5 -3v-2zM184 45v249 q-19 17 -40 17q-33 0 -58.5 -40.5t-25.5 -100.5q0 -47 19 -89q24 -52 65 -52q21 0 40 16z" />
<glyph unicode="e" horiz-adv-x="354" d="M338 93l-1 -2q-19 -45 -61.5 -72t-91.5 -27q-69 0 -118.5 48.5t-49.5 118.5q0 68 49 117.5t117 49.5q87 0 125 -73h-202q-16 -33 -16 -73q0 -61 37 -111q40 -54 99 -54q60 0 104 79q2 3 4 3q5 0 5 -4zM227 263q0 21 -13.5 35t-34.5 14q-38 0 -69 -49h117z" />
<glyph unicode="f" horiz-adv-x="205" d="M240 692q1 -3 -2 -6q-83 -57 -83 -172v-196h31q5 0 5 -5t-5 -5h-31v-249q0 -20 12 -35t31 -15q4 0 4 -5t-4 -5h-156q-4 0 -4 5t4 5q19 0 31 15t12 35v249h-68q-6 0 -6 5t6 5q28 0 48 19.5t20 47.5v68q0 80 36 147q42 79 113 95q6 1 6 -3z" />
<glyph unicode="g" horiz-adv-x="383" d="M344 566l-86 -237l-10 3l29 220zM430 -131q0 -80 -84 -124q-67 -34 -155 -34q-81 0 -145 30q-83 39 -83 110q0 81 121 122q-52 19 -52 64q0 27 19.5 45.5t47.5 23.5q-30 13 -51 41t-21 59q0 55 53 90q47 30 105 30t105 -30q54 -35 54 -90t-54 -90q-46 -30 -104 -30 q-14 0 -38.5 5.5t-28.5 5.5q-48 0 -48 -35q0 -37 51 -40q143 -9 193 -24q115 -34 115 -129zM273 199q0 42 -26 76.5t-66 34.5q-38 0 -61 -29.5t-23 -67.5q0 -42 26 -75q27 -36 68 -36q37 0 61 31q21 29 21 66zM368 -149q0 75 -96 101q-38 10 -156 16q-96 -37 -96 -117 q0 -58 62 -95q53 -31 116 -31q62 0 112 31q58 37 58 95z" />
<glyph unicode="h" horiz-adv-x="384" d="M367 4q0 -5 -5 -5h-154q-5 0 -5 5q0 4 4 4l1 1q17 0 30 16t13 34v164q0 25 -13 44q-14 23 -38 23q-31 0 -49 -30q-15 -25 -15 -59v-142q0 -18 12 -34t30 -16l1 -1q4 0 4 -4q0 -5 -5 -5h-154q-6 0 -6 5t6 5q17 0 30 16t13 34v394q0 81 35 148q41 77 113 94l3 -9 q-40 -27 -61 -74.5t-21 -97.5v-267q31 81 97 81q40 0 65 -35q22 -32 22 -74v-160q0 -19 12 -34.5t31 -15.5q4 0 4 -5z" />
<glyph unicode="i" horiz-adv-x="181" d="M153 413q0 -21 -14.5 -36t-35.5 -15t-36 15t-15 36t15 35.5t36 14.5q20 0 35 -15t15 -35zM173 4q0 -5 -5 -5h-155q-5 0 -5 5q0 3 13.5 6.5t20.5 12.5q14 17 14 36v160q0 100 88 109q-19 -27 -19 -64v-205q0 -19 12.5 -34.5t30.5 -15.5q5 0 5 -5z" />
<glyph unicode="j" horiz-adv-x="169" d="M138 413q0 -21 -15 -36t-36 -15t-35.5 15t-14.5 36q0 20 15 35t35 15q21 0 36 -14.5t15 -35.5zM142 328q-18 -28 -18 -64v-123q1 -85 1 -123q0 -64 -12 -106q-18 -62 -66 -104q-51 -43 -114 -43q-40 0 -71.5 26t-31.5 65t31.5 65t71.5 26q45 0 80 -33q0 -22 -14 -40 q-20 -25 -37 -25q-6 0 -6 3t3 11.5t3 14.5q0 20 -14 35.5t-34 15.5q-46 0 -46 -45q0 -40 28 -68t68 -28q90 0 90 124v307q0 44 22.5 74.5t65.5 34.5z" />
<glyph unicode="k" horiz-adv-x="381" d="M381 60q0 -20 -20 -42t-40 -27q-14 -4 -30 -4q-39 0 -72 27q-14 12 -47 51q-23 27 -37 27v-33q0 -18 12.5 -34t30.5 -16q5 0 5 -5t-5 -5h-156q-4 0 -4 5t5 5q18 0 30.5 16t12.5 34v394q0 68 27 129q31 70 84 99q26 14 37 14q5 0 5.5 -2t0.5 -3q-1 -3 -2 -4 q-10 -8 -29 -25q-54 -59 -54 -147v-379q43 43 87 106q12 18 12 35t-17 17q-1 0 -16 -2q33 39 60 39q35 0 35 -36q0 -59 -129 -157q35 0 67 -44q41 -57 51 -63q18 -11 40 -11q35 0 35 27q0 16 -20 21q-1 20 20 20t21 -27z" />
<glyph unicode="l" horiz-adv-x="174" d="M212 692q1 -3 -2 -6q-83 -57 -83 -172v-455q0 -18 12.5 -34t30.5 -16q5 0 5 -5t-5 -5h-155q-5 0 -5 5t5 5q18 0 30.5 16t12.5 34v394q0 79 36 147q41 79 112 95q5 0 6 -3z" />
<glyph unicode="m" horiz-adv-x="522" d="M504 4q0 -5 -5 -5h-150q-5 0 -5 5q2 5 5 5q39 0 39 50v164q0 67 -38 66q-22 -1 -37.5 -28.5t-15.5 -49.5v-152q0 -50 33 -50q5 0 5 -5t-5 -5h-136q-5 0 -5 5t5 5q34 0 34 50v164q0 67 -38 66q-22 -1 -37.5 -28.5t-15.5 -49.5v-157q0 -45 37 -45q6 0 6 -5t-6 -5h-150 q-5 0 -5 5t6 5q17 0 30 16t13 34v208l-33 17q17 9 51 26.5t51 26.5v-80q4 15 13 31q22 40 66 40q31 0 51.5 -23.5t26.5 -56.5q21 80 82 80q39 0 61 -36q20 -32 20 -73l-1 -160q-1 -18 12 -34t31 -16q5 0 5 -5z" />
<glyph unicode="n" horiz-adv-x="384" d="M367 4q0 -5 -4 -5h-155q-5 0 -5 5t5 5q17 0 30 16t13 34v164q0 25 -13.5 45.5t-35.5 20.5q-28 0 -47 -26t-19 -55v-149q0 -18 12 -34t30 -16q3 0 6 -5q0 -5 -6 -5h-154q-6 0 -6 5t6 5q17 0 30 16t13 34v208l-33 17q17 9 51 26.5t51 26.5v-89q31 80 98 80q40 0 64 -36 q22 -31 22 -73v-160q0 -18 12.5 -34t30.5 -16q4 0 4 -5z" />
<glyph unicode="o" horiz-adv-x="412" d="M393 157q0 -73 -56.5 -121.5t-130.5 -48.5t-129 47q-58 50 -58 123t58 122q55 47 129 47t130.5 -48t56.5 -121zM313 137q0 92 -52 145q-32 32 -67 32q-47 0 -74 -47q-22 -40 -22 -91q0 -89 53 -142q33 -32 67 -32q47 0 73 47q22 38 22 88z" />
<glyph unicode="p" horiz-adv-x="397" d="M357 198q0 -70 -46 -131q-50 -67 -117 -67q-24 0 -43 10v-67q0 -68 -27 -129q-31 -70 -85 -99q-26 -14 -37 -14q-5 0 -6 3q0 4 3 6q82 60 82 171v378q0 19 -12 34.5t-30 15.5q-6 0 -6 5q0 4 6 4h112v-40q46 50 101 50q49 0 79 -42q26 -37 26 -88zM296 156q0 46 -20 88 q-24 53 -65 53q-36 0 -60 -42v-198q26 -42 60 -42q41 0 65 53q20 42 20 88z" />
<glyph unicode="q" horiz-adv-x="356" d="M384 -296q-1 -3 -6 -3q-11 0 -37 14q-54 29 -84 99q-27 61 -27 129v80q-49 -49 -102 -49q-49 0 -79 41q-26 37 -26 88q0 70 46 131q50 67 117 67q22 0 44 -11v28h111q6 0 6 -4q0 -5 -6 -5q-18 0 -30.5 -16t-12.5 -34v-378q0 -91 59 -150q8 -7 16 -13q11 -9 11 -14z M230 42v202q-20 24 -25 28q-15 13 -35 13q-42 0 -66 -52q-19 -41 -19 -89q0 -47 19 -88q24 -52 66 -52q30 0 60 38z" />
<glyph unicode="r" horiz-adv-x="240" d="M229 290q0 -19 -12 -33t-30 -14t-30 14t-12 33q0 18 12 32t30 14t30 -14t12 -32zM176 5q0 -5 -5 -5h-155q-5 0 -5 5q0 4 5 4q18 0 30.5 16t12.5 34v208l-32 17q34 18 101 54v-279q0 -18 12.5 -34t30.5 -16q5 0 5 -4z" />
<glyph unicode="s" horiz-adv-x="281" d="M269 277q-15 -22 -44 -66q-4 -5 -7 -1q-5 2 -1 6q3 5 3 15q0 30 -16 47q-23 23 -60 23q-31 0 -52.5 -16t-22.5 -40q-2 -26 22 -40q14 -9 57 -20q48 -13 66 -25q31 -20 31 -57q0 -55 -44 -85q-38 -26 -95 -26q-35 0 -64 13l-23 -14v74l22 27q6 -35 27.5 -52.5t55.5 -22.5 h-1q31 -4 54 7.5t26 31.5q3 28 -29 46q-14 7 -54 18q-53 14 -73 27q-35 22 -35 64q0 53 52 87q44 29 100 29q74 0 105 -50z" />
<glyph unicode="t" horiz-adv-x="211" d="M202 582q0 -4 -3 -6q-90 -64 -90 -187v-71h60q5 0 5 -4q0 -5 -5 -5h-59v-236q0 -47 34 -47q23 0 39 29q1 4 6 2t2 -7q-30 -58 -82 -58q-39 0 -59 31q-15 23 -15 61v225h-20q-5 0 -5 5q0 4 5 4h20v3q0 87 38 161q45 85 122 103q5 0 7 -3z" />
<glyph unicode="u" horiz-adv-x="371" d="M354 42q-15 -42 -58 -42q-26 0 -44.5 18t-18.5 44v8q-12 -34 -37 -56q-28 -24 -61 -24t-55 23q-31 32 -31 86v168l-32 17l101 54v-244q0 -32 19 -52q13 -14 30 -14q29 0 49 29q17 25 17 57v153l-32 17l102 53v-285q0 -22 22 -22q15 0 20 15q2 5 6 3q5 0 3 -6z" />
<glyph unicode="v" horiz-adv-x="326" d="M311 271q0 -37 -24 -94q-35 -80 -108 -190l-114 299q-9 23 -45 23q-5 0 -5 5q0 4 5 4h137q5 0 5 -4q0 -5 -5 -5q-14 0 -19.5 -2.5t-6.5 -8.5q0 -3 2 -8l75 -216q62 107 57 171q-4 39 -39 39q-18 0 -29 -20q-4 -4 -7 -2q-4 2 -2 7q20 56 71 58q52 2 52 -56z" />
<glyph unicode="w" horiz-adv-x="434" d="M414 272q0 -86 -132 -285l-127 331h104q6 0 6 -4t-15 -6t-15 -14q0 -4 76 -220q57 98 57 164q0 46 -39 46q-12 0 -23 -11l-11 -11q-5 0 -5 4q0 21 25.5 41t46.5 20q52 0 52 -55zM218 62l-34 -77l-114 301q-9 23 -45 23q-5 0 -5 5q0 4 5 4h99z" />
<glyph unicode="x" horiz-adv-x="284" d="M271 58q-3 -21 -23.5 -39t-42.5 -18q-27 0 -39 27q-33 78 -49 117q-32 -35 -45 -63q-8 -16 -8 -27q0 -12 8.5 -21t20.5 -9q10 0 22 9q4 2 5.5 0t2.5 -4l-2 -4q-26 -29 -61 -29q-11 0 -21 4q-32 14 -25 51q4 24 31 56q32 38 61 63q-12 29 -38 87q-8 18 -24 23 q-17 5 -21 -11q-2 -6 -5 -6q-5 -2 -5 4q-1 23 14.5 37t37.5 14q46 0 67 -48l30 -72q44 50 44 79q0 30 -28 30q-11 0 -22 -8q-1 -1 -4 -1q-2 0 -3 1q-4 2 1 7q23 25 52 29q23 3 39.5 -9.5t16.5 -34.5q0 -28 -32 -66q-21 -26 -53 -54l48 -112q6 -14 21 -16q14 0 20 17q2 5 6 3 q5 0 3 -6z" />
<glyph unicode="y" horiz-adv-x="370" d="M355 324q0 -5 -6 -5q-39 0 -61 -43q-7 -13 -35 -76q-32 -75 -103 -221q-81 -145 -187 -217q-67 -46 -127 -46q-44 0 -76 26q15 17 47 50q33 -33 74 -33q42 0 95 37q118 83 220 313l-132 150q-13 15 -27 15q-6 0 -12.5 -3.5t-7.5 -3.5q-5 0 -5 4q0 3 78 59l133 -156 q40 100 40 118q0 22 -27.5 25.5t-27.5 6.5q0 4 5 4h136q6 0 6 -4z" />
<glyph unicode="z" horiz-adv-x="298" d="M268 239q0 -61 -77 -87q46 -9 74 -51q19 -30 19 -67q0 -65 -52.5 -116t-116.5 -44q-42 4 -71.5 33.5t-29.5 70.5t32.5 71.5t74.5 30.5q23 0 43 -14.5t20 -37.5q0 -30 -36 -44q-5 -1 -7 1t2 7q15 17 6 35q-14 26 -46 26q-56 0 -56 -64q0 -33 20.5 -56.5t54.5 -23.5 q38 0 67 35q32 39 32 91q0 34 -16 59q-24 37 -63 37q-20 0 -37 -12q-8 -4 -11 4q-3 7 4 11q29 18 61 21q25 2 40 26q14 21 14 50q0 26 -14 47t-39 21q-23 0 -41 -10q-21 -12 -21 -32q0 -12 8 -20.5t19 -8.5q7 0 12.5 5t9.5 5q3 -3 2 -8q-6 -35 -40 -35q-18 0 -30.5 13 t-12.5 31q0 33 29 56t69 23q38 0 69 -20q35 -23 35 -59z" />
<glyph unicode="&#xa1;" horiz-adv-x="136" d="M21 -12q0 47 16 174q8 59 19 172q0 9 11 9q12 0 13 -9q2 -38 18 -162q17 -132 17 -184q-1 -20 -14.5 -33.5t-33.5 -13.5q-19 0 -32.5 13.5t-13.5 33.5zM27 403q0 17 12 28.5t28 11.5q17 0 29 -11.5t12 -28.5t-12 -29t-29 -12q-16 0 -28 12t-12 29z" />
<glyph unicode="&#xa2;" horiz-adv-x="352" d="M330 143q0 1 -2 -5q-50 -66 -142 -66v-71q0 -12 -11 -12q-12 0 -12 12v75q-61 11 -100.5 59.5t-39.5 112.5q0 61 39.5 110t100.5 60v72q0 12 12 12q11 0 11 -12v-70q42 0 71 -12q13 27 40 27q4 0 4 -4q-14 -22 -14 -42q0 -8 2.5 -24t2.5 -25q0 -26 -10 -43 q-22 -33 -57 -33q-30 0 -30 19q0 22 26 22q5 0 5 -4v-3q-1 -2 -1 -4q0 -7 8 -7q20 0 20 36q0 28 -19.5 52t-47.5 26v-300q15 -7 34 -7q56 0 96 51q3 4 6 4q8 0 8 -6zM163 116v281q-36 -11 -55 -50q-16 -32 -16 -74q0 -98 71 -157z" />
<glyph unicode="&#xa3;" horiz-adv-x="617" d="M569 2q0 -6 -5 -6h-490q-6 0 -6 5t10 6t29 5q28 12 46 39.5t18 57.5q0 35 -38 125h-73q-12 0 -12 12t12 12h63q-30 74 -30 111q0 64 58 100q49 32 117 32q71 0 117 -30q52 -35 52 -88q0 -45 -44 -69q-36 -21 -85 -21q-20 0 -20 6t5 6q32 0 50 22t18 56q0 38 -23.5 65.5 t-61.5 27.5q-40 0 -65 -30t-25 -71q0 -40 31 -117h95q11 0 11 -12t-11 -12h-86q23 -56 23 -91q0 -65 -77 -116h131q48 0 81 17q44 21 44 64q0 21 -14 38.5t-34 17.5q-28 0 -28 -21q0 -15 17 -15q4 0 8.5 3t6.5 3l3 -1t3 -5q0 -2 -1 -4q-7 -36 -46 -36q-42 0 -42 41 q0 33 29 54.5t64 21.5q47 0 83 -30t36 -77v-8q0 -55 33 -75q5 -3 19 -7q4 -3 4 -6z" />
<glyph unicode="&#xa4;" horiz-adv-x="493" d="M472 414q3 -4 3 -7q0 -10 -10 -10q-4 0 -7 4q-47 69 -132 69q-70 0 -112 -64q-35 -53 -42 -129h212l-19 -24h-195v-16h180l-19 -24h-159q4 -60 26 -105q42 -87 125 -87q45 0 81 20q12 7 12 -9q0 -8 -7 -12q-52 -30 -109 -30q-96 0 -158 64t-68 159h-55l17 24h36v16h-53 l17 24h37q10 97 68 158q62 66 159 66q106 0 172 -87z" />
<glyph unicode="&#xa5;" horiz-adv-x="653" d="M612 490q0 -6 -6 -6q-28 0 -46 -9q-12 -6 -39 -32v0l-152 -142v-24h181v-24h-179v-16h179v-24h-179v-147q0 -22 15 -40.5t37 -18.5h11q6 0 6 -6t-6 -6h-212q-7 0 -7 6t7 6h10q22 0 36.5 18.5t14.5 40.5v147h-174v24h174v16h-174v24h174v24l-152 142q-22 24 -37 32 q-18 9 -47 9q-5 0 -5 6q0 5 5 5h209q5 0 5 -5q0 -6 -5 -6h-6q-14 0 -17 -9q-4 -14 20 -37l73 -69l75 69q23 22 19 37q-3 9 -16 9h-6q-6 0 -6 6q0 5 6 5h208q6 0 6 -5z" />
<glyph unicode="&#xa6;" />
<glyph unicode="&#xa7;" />
<glyph unicode="&#xa8;" horiz-adv-x="218" d="M197 554q0 -16 -11.5 -27.5t-27.5 -11.5t-27.5 11.5t-11.5 27.5t11.5 27.5t27.5 11.5t27.5 -11.5t11.5 -27.5zM99 554q0 -16 -11.5 -27.5t-26.5 -11.5q-17 0 -28.5 11.5t-11.5 27.5t11.5 27.5t28.5 11.5q15 0 26.5 -11.5t11.5 -27.5z" />
<glyph unicode="&#xa9;" />
<glyph unicode="&#xaa;" horiz-adv-x="322" d="M299 358q0 -3 -2 -4h-104q-3 0 -3 4q0 3 3 3q15 0 15 13t-20 28t-48 15q-42 0 -61 -30q6 -26 33 -26h8q3 0 3 -3q0 -4 -3 -4h-94q-3 0 -3 4q0 3 3 3q24 0 36 28l77 175q20 45 52 59q2 1 3 -1q0 -4 -1 -4q-12 -5 -12 -24q0 -15 6 -30l74 -175q12 -28 33 -28h3q2 -1 2 -3z M205 408l-60 140l-57 -130l14 7q18 7 38 7q35 0 59 -19q3 -3 6 -5z" />
<glyph unicode="&#xab;" />
<glyph unicode="&#xac;" />
<glyph unicode="&#xad;" horiz-adv-x="135" d="M125 191q0 -5 -6 -5h-103q-6 0 -6 5v55q0 6 6 6h103q6 0 6 -6v-55z" />
<glyph unicode="&#xae;" />
<glyph unicode="&#xaf;" />
<glyph unicode="&#xb0;" />
<glyph unicode="&#xb1;" />
<glyph unicode="&#xb2;" />
<glyph unicode="&#xb3;" />
<glyph unicode="&#xb4;" horiz-adv-x="199" d="M173 622l-118 -99h-29l71 99h76z" />
<glyph unicode="&#xb5;" />
<glyph unicode="&#xb6;" />
<glyph unicode="&#xb7;" />
<glyph unicode="&#xb8;" horiz-adv-x="216" d="M181 -83q0 -15 -9 -28q-23 -29 -70 -29q-27 0 -67 12l11 23q29 -13 45 -13q18 0 32 8q18 10 18 26q0 12 -9.5 20t-29.5 8q-15 0 -31 -5l-9 10l43 58h27l-34 -42l25 5q29 -3 43.5 -16t14.5 -37z" />
<glyph unicode="&#xb9;" />
<glyph unicode="&#xba;" horiz-adv-x="315" d="M289 498q0 -53 -39 -89.5t-92 -36.5t-92.5 37t-39.5 89q0 53 39 89.5t93 36.5t92.5 -36.5t38.5 -89.5zM242 520q-11 36 -35 62q-27 29 -61 29q-47 0 -67 -48q-17 -43 -5 -87q10 -36 34 -61q28 -30 62 -30q46 0 66 48q19 43 6 87z" />
<glyph unicode="&#xbf;" horiz-adv-x="480" d="M84 197q21 18 77.5 37t75.5 32q35 24 35 68q0 5 7 5h23q6 0 6 -5q0 -48 -27 -84q-18 -26 -55.5 -50t-61.5 -59q-27 -39 -27 -77q0 -41 28 -63.5t71 -22.5q66 0 103 40q28 30 28 72q0 13 -3 27q0 3 4 5q5 1 7 -2q22 -33 66 -100q2 -2 0 -6q-23 -37 -78 -57 q-46 -16 -98 -16q-64 0 -126 23q-46 18 -73.5 56.5t-27.5 81.5q0 56 46 95zM248 403q0 17 12 29t29 12q15 0 27 -12t12 -29q0 -16 -12 -28t-27 -12q-17 0 -29 11.5t-12 28.5z" />
<glyph unicode="&#xc0;" horiz-adv-x="628" d="M38 0zM589 5q0 -5 -5 -5h-207q-7 0 -7 5t7 6q31 1 31 27q0 13 -10 27q-7 10 -31 29q-39 29 -94 29q-82 0 -123 -58q9 -54 65 -54h16q6 0 6 -6q0 -5 -6 -5h-187q-6 0 -6 5q0 6 6 6q21 0 41 17.5t30 39.5l155 351q40 91 102 117q6 3 7 -3q2 -6 -3 -7q-23 -11 -23 -48 q0 -30 12 -59l148 -351q9 -21 27 -39t38 -18h6q5 0 5 -6zM399 107l-118 280l-115 -263q48 31 106 31q68 0 117 -38zM364 568h-28l-119 99h76z" />
<glyph unicode="&#xc1;" horiz-adv-x="628" d="M38 0zM589 5q0 -5 -5 -5h-207q-7 0 -7 5t7 6q31 1 31 27q0 13 -10 27q-7 10 -31 29q-39 29 -94 29q-82 0 -123 -58q9 -54 65 -54h16q6 0 6 -6q0 -5 -6 -5h-187q-6 0 -6 5q0 6 6 6q21 0 41 17.5t30 39.5l155 351q40 91 102 117q6 3 7 -3q2 -6 -3 -7q-23 -11 -23 -48 q0 -30 12 -59l148 -351q9 -21 27 -39t38 -18h6q5 0 5 -6zM399 107l-118 280l-115 -263q48 31 106 31q68 0 117 -38zM494 652l-118 -99h-29l71 99h76z" />
<glyph unicode="&#xc2;" horiz-adv-x="628" d="M38 0zM589 5q0 -5 -5 -5h-207q-7 0 -7 5t7 6q31 1 31 27q0 13 -10 27q-7 10 -31 29q-39 29 -94 29q-82 0 -123 -58q9 -54 65 -54h16q6 0 6 -6q0 -5 -6 -5h-187q-6 0 -6 5q0 6 6 6q21 0 41 17.5t30 39.5l155 351q40 91 102 117q6 3 7 -3q2 -6 -3 -7q-23 -11 -23 -48 q0 -30 12 -59l148 -351q9 -21 27 -39t38 -18h6q5 0 5 -6zM399 107l-118 280l-115 -263q48 31 106 31q68 0 117 -38zM457 538h-48l-58 48l-59 -48h-47l81 101h48z" />
<glyph unicode="&#xc3;" horiz-adv-x="628" d="M38 0zM589 5q0 -5 -5 -5h-207q-7 0 -7 5t7 6q31 1 31 27q0 13 -10 27q-7 10 -31 29q-39 29 -94 29q-82 0 -123 -58q9 -54 65 -54h16q6 0 6 -6q0 -5 -6 -5h-187q-6 0 -6 5q0 6 6 6q21 0 41 17.5t30 39.5l155 351q40 91 102 117q6 3 7 -3q2 -6 -3 -7q-23 -11 -23 -48 q0 -30 12 -59l148 -351q9 -21 27 -39t38 -18h6q5 0 5 -6zM399 107l-118 280l-115 -263q48 31 106 31q68 0 117 -38zM451 621q-10 -71 -65 -71q-18 0 -49.5 15.5t-46.5 15.5q-26 0 -38 -33h-26q15 81 65 81q12 0 25 -4q19 -8 56 -24q13 -4 24 -4q24 0 29 24h26z" />
<glyph unicode="&#xc4;" horiz-adv-x="628" d="M38 0zM589 5q0 -5 -5 -5h-207q-7 0 -7 5t7 6q31 1 31 27q0 13 -10 27q-7 10 -31 29q-39 29 -94 29q-82 0 -123 -58q9 -54 65 -54h16q6 0 6 -6q0 -5 -6 -5h-187q-6 0 -6 5q0 6 6 6q21 0 41 17.5t30 39.5l155 351q40 91 102 117q6 3 7 -3q2 -6 -3 -7q-23 -11 -23 -48 q0 -30 12 -59l148 -351q9 -21 27 -39t38 -18h6q5 0 5 -6zM399 107l-118 280l-115 -263q48 31 106 31q68 0 117 -38zM441 579q0 -16 -11.5 -27.5t-27.5 -11.5t-27.5 11.5t-11.5 27.5t11.5 27.5t27.5 11.5t27.5 -11.5t11.5 -27.5zM343 579q0 -16 -11.5 -27.5t-26.5 -11.5 q-17 0 -28.5 11.5t-11.5 27.5t11.5 27.5t28.5 11.5q15 0 26.5 -11.5t11.5 -27.5z" />
<glyph unicode="&#xc5;" horiz-adv-x="628" d="M38 0zM589 5q0 -5 -5 -5h-207q-7 0 -7 5t7 6q31 1 31 27q0 13 -10 27q-7 10 -31 29q-39 29 -94 29q-82 0 -123 -58q9 -54 65 -54h16q6 0 6 -6q0 -5 -6 -5h-187q-6 0 -6 5q0 6 6 6q21 0 41 17.5t30 39.5l155 351q40 91 102 117q6 3 7 -3q2 -6 -3 -7q-23 -11 -23 -48 q0 -30 12 -59l148 -351q9 -21 27 -39t38 -18h6q5 0 5 -6zM399 107l-118 280l-115 -263q48 31 106 31q68 0 117 -38zM418 617q0 -32 -23.5 -55.5t-57.5 -23.5q-33 0 -56.5 23.5t-23.5 55.5q0 34 23.5 58t56.5 24q34 0 57.5 -24t23.5 -58zM381 617q0 19 -13 31.5t-31 12.5 t-30.5 -12.5t-12.5 -31.5q0 -17 13 -29.5t30 -12.5q18 0 31 12.5t13 29.5z" />
<glyph unicode="&#xc6;" horiz-adv-x="734" d="M696 489q-8 -63 -62 -102q-4 -3 -7.5 0.5t-1.5 6.5q8 12 8 25q0 24 -28 39q-31 18 -77 18h-20q-37 0 -37 -35v-265h60q25 0 37 9q9 6 24 29q2 4 6 2q5 -2 5 -4v-97q0 -4 -5 -6q-5 0 -6 2q-15 23 -24 29q-12 9 -37 9h-60v-83q0 -51 61 -51q34 0 64 18q35 20 35 51 q0 18 -14 35q-1 1 -1 3q0 3 2 5.5t6 0.5q65 -27 65 -76q0 -13 -8 -30q-10 -20 -22 -27h-337q-7 0 -7 6t7 6h10q21 0 36 19t15 40v11q-51 43 -108 43q-53 0 -93 -28q-20 -14 -31 -31q3 -25 21.5 -39.5t43.5 -14.5h16q6 0 6 -6t-6 -6h-188q-6 0 -6 6t6 6q36 0 72 56l260 408 q-10 13 -29 13h-11q-6 0 -6 6t6 6h355q7 0 5 -7zM383 117v313l-190 -295q1 1 2 1q36 15 78 15q63 0 110 -34z" />
<glyph unicode="&#xc7;" horiz-adv-x="473" d="M31 0zM441 94q0 -3 -2 -7q-31 -43 -79 -69t-99 -26q-100 0 -166 79q-64 75 -64 175q0 102 64 177q66 80 166 80q42 0 83 -18q18 39 54 39q6 0 6 -5l-2 -4q-18 -28 -18 -58q0 -12 2 -18q5 -26 5 -54q0 -39 -13 -62q-28 -50 -76 -50q-40 0 -40 29q0 12 11.5 22t24.5 10 q7 0 7 -5q0 -3 -1.5 -6t-1.5 -5q0 -13 11 -13q13 0 21 22q6 17 6 33q0 41 -27 76q-29 39 -68 39q-8 0 -14 -3q-54 -11 -83 -73q-24 -51 -24 -112q0 -28 7 -66q16 -91 71 -149q45 -48 94 -48q3 0 15 2q55 7 96 50q5 7 16 22q6 6 10 6q8 0 8 -10zM286 -79q0 -15 -9 -28 q-23 -29 -70 -29q-27 0 -67 12l11 23q29 -13 45 -13q18 0 32 8q18 10 18 26q0 12 -9.5 20t-29.5 8q-15 0 -31 -5l-9 10l43 58h27l-34 -42l25 5q29 -3 43.5 -16t14.5 -37z" />
<glyph unicode="&#xc8;" horiz-adv-x="426" d="M22 0zM404 490q-7 -63 -64 -102q-3 -3 -6 0q-4 3 -1 7q7 10 7 25q0 31 -39 45q-28 11 -65 11h-19q-39 0 -39 -34v-265h60q27 0 41 11q8 5 21 27q2 3 6 2t4 -5v-97q0 -4 -4 -5t-6 2q-21 38 -62 38h-60v-83q0 -51 61 -51q34 0 65 18q35 20 35 51q0 19 -15 35q-2 2 0 7 q4 3 7 2q66 -27 66 -77q0 -12 -8 -29q-10 -21 -23 -27h-337q-7 0 -7 6t7 6h11q21 0 35.5 18.5t14.5 40.5v383q0 35 -37 35h-10q-6 0 -6 5q0 7 6 7h356q7 0 5 -7zM273 519h-28l-119 99h76z" />
<glyph unicode="&#xc9;" horiz-adv-x="426" d="M22 0zM404 490q-7 -63 -64 -102q-3 -3 -6 0q-4 3 -1 7q7 10 7 25q0 31 -39 45q-28 11 -65 11h-19q-39 0 -39 -34v-265h60q27 0 41 11q8 5 21 27q2 3 6 2t4 -5v-97q0 -4 -4 -5t-6 2q-21 38 -62 38h-60v-83q0 -51 61 -51q34 0 65 18q35 20 35 51q0 19 -15 35q-2 2 0 7 q4 3 7 2q66 -27 66 -77q0 -12 -8 -29q-10 -21 -23 -27h-337q-7 0 -7 6t7 6h11q21 0 35.5 18.5t14.5 40.5v383q0 35 -37 35h-10q-6 0 -6 5q0 7 6 7h356q7 0 5 -7zM363 622l-118 -99h-29l71 99h76z" />
<glyph unicode="&#xca;" horiz-adv-x="426" d="M22 0zM404 490q-7 -63 -64 -102q-3 -3 -6 0q-4 3 -1 7q7 10 7 25q0 31 -39 45q-28 11 -65 11h-19q-39 0 -39 -34v-265h60q27 0 41 11q8 5 21 27q2 3 6 2t4 -5v-97q0 -4 -4 -5t-6 2q-21 38 -62 38h-60v-83q0 -51 61 -51q34 0 65 18q35 20 35 51q0 19 -15 35q-2 2 0 7 q4 3 7 2q66 -27 66 -77q0 -12 -8 -29q-10 -21 -23 -27h-337q-7 0 -7 6t7 6h11q21 0 35.5 18.5t14.5 40.5v383q0 35 -37 35h-10q-6 0 -6 5q0 7 6 7h356q7 0 5 -7zM323 518h-48l-58 48l-59 -48h-47l81 101h48z" />
<glyph unicode="&#xcb;" horiz-adv-x="426" d="M22 0zM404 490q-7 -63 -64 -102q-3 -3 -6 0q-4 3 -1 7q7 10 7 25q0 31 -39 45q-28 11 -65 11h-19q-39 0 -39 -34v-265h60q27 0 41 11q8 5 21 27q2 3 6 2t4 -5v-97q0 -4 -4 -5t-6 2q-21 38 -62 38h-60v-83q0 -51 61 -51q34 0 65 18q35 20 35 51q0 19 -15 35q-2 2 0 7 q4 3 7 2q66 -27 66 -77q0 -12 -8 -29q-10 -21 -23 -27h-337q-7 0 -7 6t7 6h11q21 0 35.5 18.5t14.5 40.5v383q0 35 -37 35h-10q-6 0 -6 5q0 7 6 7h356q7 0 5 -7zM308 553q0 -16 -11.5 -27.5t-27.5 -11.5t-27.5 11.5t-11.5 27.5t11.5 27.5t27.5 11.5t27.5 -11.5t11.5 -27.5z M210 553q0 -16 -11.5 -27.5t-26.5 -11.5q-17 0 -28.5 11.5t-11.5 27.5t11.5 27.5t28.5 11.5q15 0 26.5 -11.5t11.5 -27.5z" />
<glyph unicode="&#xcc;" horiz-adv-x="285" d="M2 0zM255 2q0 -6 -6 -6h-213q-5 0 -5 6t5 6h11q22 0 37 18.5t15 40.5v383q0 35 -37 35h-11q-5 0 -5 5q0 7 5 7h184q6 0 6 -7q0 -5 -6 -5h-11q-37 0 -37 -35v-383q0 -22 15 -40.5t36 -18.5h11q6 0 6 -6zM149 523h-28l-119 99h76z" />
<glyph unicode="&#xcd;" horiz-adv-x="285" d="M31 0zM255 2q0 -6 -6 -6h-213q-5 0 -5 6t5 6h11q22 0 37 18.5t15 40.5v383q0 35 -37 35h-11q-5 0 -5 5q0 7 5 7h184q6 0 6 -7q0 -5 -6 -5h-11q-37 0 -37 -35v-383q0 -22 15 -40.5t36 -18.5h11q6 0 6 -6zM283 622l-118 -99h-29l71 99h76z" />
<glyph unicode="&#xce;" horiz-adv-x="285" d="M31 0zM255 2q0 -6 -6 -6h-213q-5 0 -5 6t5 6h11q22 0 37 18.5t15 40.5v383q0 35 -37 35h-11q-5 0 -5 5q0 7 5 7h184q6 0 6 -7q0 -5 -6 -5h-11q-37 0 -37 -35v-383q0 -22 15 -40.5t36 -18.5h11q6 0 6 -6zM249 528h-48l-58 48l-59 -48h-47l81 101h48z" />
<glyph unicode="&#xcf;" horiz-adv-x="285" d="M31 0zM255 2q0 -6 -6 -6h-213q-5 0 -5 6t5 6h11q22 0 37 18.5t15 40.5v383q0 35 -37 35h-11q-5 0 -5 5q0 7 5 7h184q6 0 6 -7q0 -5 -6 -5h-11q-37 0 -37 -35v-383q0 -22 15 -40.5t36 -18.5h11q6 0 6 -6zM230 576q0 -16 -11.5 -27.5t-27.5 -11.5t-27.5 11.5t-11.5 27.5 t11.5 27.5t27.5 11.5t27.5 -11.5t11.5 -27.5zM132 576q0 -16 -11.5 -27.5t-26.5 -11.5q-17 0 -28.5 11.5t-11.5 27.5t11.5 27.5t28.5 11.5q15 0 26.5 -11.5t11.5 -27.5z" />
<glyph unicode="&#xd0;" horiz-adv-x="484" d="M480 245q0 -104 -76.5 -177t-180.5 -73h-169q-6 0 -6 6t6 6h12q21 0 35.5 18.5t14.5 40.5v115h-40q-19 0 -19 17t19 17h40v234q0 35 -37 35h-10q-6 0 -6 6t6 6h154q104 0 180.5 -73t76.5 -178zM385 246q0 93 -47.5 157.5t-112.5 64.5q-21 -1 -21 -30v-223h38q19 0 19 -17 t-19 -17h-38v-115q0 -39 22 -39q65 -1 112 63.5t47 155.5z" />
<glyph unicode="&#xd1;" horiz-adv-x="509" d="M35 0zM474 -60q-5 -2 -8 -1q-49 18 -89 83l-217 350v-311q0 -21 15 -40t36 -19h11q6 0 6 -6q0 -5 -6 -5h-156q-6 0 -6 5q0 6 6 6h12q21 0 36 19t15 40v361q-19 31 -35 42q-20 15 -53 15q-6 0 -6 6t6 6h144l202 -336v290q0 34 -37 34h-11q-5 0 -5 6t5 6h127q5 0 5 -6 t-5 -6h-10q-38 0 -38 -34v-353q0 -36 13 -77q16 -47 40 -66q5 -6 3 -9zM391 586q-10 -71 -65 -71q-18 0 -49.5 15.5t-46.5 15.5q-26 0 -38 -33h-26q15 81 65 81q12 0 25 -4q19 -8 56 -24q13 -4 24 -4q24 0 29 24h26z" />
<glyph unicode="&#xd2;" horiz-adv-x="600" d="M37 0zM563 242q0 -106 -78.5 -179.5t-184.5 -73.5q-107 0 -185 75t-78 178q0 105 78.5 178.5t184.5 73.5t184.5 -73t78.5 -179zM468 286q-19 71 -68 122q-56 58 -124 58q-73 0 -116 -64q-37 -55 -37 -131q0 -37 10 -74q19 -71 68 -122q55 -58 124 -58q72 0 115 63 q38 56 38 132q0 37 -10 74zM301 519h-28l-119 99h76z" />
<glyph unicode="&#xd3;" horiz-adv-x="600" d="M37 0zM563 242q0 -106 -78.5 -179.5t-184.5 -73.5q-107 0 -185 75t-78 178q0 105 78.5 178.5t184.5 73.5t184.5 -73t78.5 -179zM468 286q-19 71 -68 122q-56 58 -124 58q-73 0 -116 -64q-37 -55 -37 -131q0 -37 10 -74q19 -71 68 -122q55 -58 124 -58q72 0 115 63 q38 56 38 132q0 37 -10 74zM429 615l-118 -99h-29l71 99h76z" />
<glyph unicode="&#xd4;" horiz-adv-x="600" d="M37 0zM563 242q0 -106 -78.5 -179.5t-184.5 -73.5q-107 0 -185 75t-78 178q0 105 78.5 178.5t184.5 73.5t184.5 -73t78.5 -179zM468 286q-19 71 -68 122q-56 58 -124 58q-73 0 -116 -64q-37 -55 -37 -131q0 -37 10 -74q19 -71 68 -122q55 -58 124 -58q72 0 115 63 q38 56 38 132q0 37 -10 74zM403 508h-48l-58 48l-59 -48h-47l81 101h48z" />
<glyph unicode="&#xd5;" horiz-adv-x="600" d="M37 0zM563 242q0 -106 -78.5 -179.5t-184.5 -73.5q-107 0 -185 75t-78 178q0 105 78.5 178.5t184.5 73.5t184.5 -73t78.5 -179zM468 286q-19 71 -68 122q-56 58 -124 58q-73 0 -116 -64q-37 -55 -37 -131q0 -37 10 -74q19 -71 68 -122q55 -58 124 -58q72 0 115 63 q38 56 38 132q0 37 -10 74zM420 588q-10 -71 -65 -71q-18 0 -49.5 15.5t-46.5 15.5q-26 0 -38 -33h-26q15 81 65 81q12 0 25 -4q19 -8 56 -24q13 -4 24 -4q24 0 29 24h26z" />
<glyph unicode="&#xd6;" horiz-adv-x="600" d="M37 0zM563 242q0 -106 -78.5 -179.5t-184.5 -73.5q-107 0 -185 75t-78 178q0 105 78.5 178.5t184.5 73.5t184.5 -73t78.5 -179zM468 286q-19 71 -68 122q-56 58 -124 58q-73 0 -116 -64q-37 -55 -37 -131q0 -37 10 -74q19 -71 68 -122q55 -58 124 -58q72 0 115 63 q38 56 38 132q0 37 -10 74zM383 561q0 -16 -11.5 -27.5t-27.5 -11.5t-27.5 11.5t-11.5 27.5t11.5 27.5t27.5 11.5t27.5 -11.5t11.5 -27.5zM285 561q0 -16 -11.5 -27.5t-26.5 -11.5q-17 0 -28.5 11.5t-11.5 27.5t11.5 27.5t28.5 11.5q15 0 26.5 -11.5t11.5 -27.5z" />
<glyph unicode="&#xd8;" horiz-adv-x="575" d="M577 242q0 -106 -78 -179.5t-185 -73.5q-83 0 -152 47l-32 -38q-12 -14 -25 -3q-13 10 -1 24l32 38q-3 2 -6 6q-78 72 -78 179q0 105 78 178.5t184 73.5q83 0 152 -46l33 37q12 13 24 3q13 -10 2 -24l-32 -38q2 -2 7 -6q77 -74 77 -178zM424 397q-59 69 -134 69 q-73 0 -116 -63q-37 -55 -37 -131q0 -87 47 -158zM445 370l-240 -284q59 -69 134 -69q73 0 116 64q37 56 37 131q0 86 -47 158z" />
<glyph unicode="&#xd9;" horiz-adv-x="521" d="M29 0zM491 489q0 -5 -5 -5q-45 0 -48 -35q-6 -104 -13 -208q-14 -134 -56.5 -192.5t-102.5 -58.5q-58 0 -100 57.5t-61 191.5l-22 210q-4 35 -47 35q-7 0 -7 5t7 5h182q6 0 6 -5t-8 -6h-13q-13 -2 -23.5 -11t-8.5 -23q10 -96 19 -193q15 -125 48 -185q22 -40 49 -40 q34 0 60 46q36 61 48 181q6 96 13 191q1 15 -11 25t-28 10h-10q-4 0 -4 5t4 5h127q5 0 5 -5zM286 517h-28l-119 99h76z" />
<glyph unicode="&#xda;" horiz-adv-x="521" d="M29 0zM491 489q0 -5 -5 -5q-45 0 -48 -35q-6 -104 -13 -208q-14 -134 -56.5 -192.5t-102.5 -58.5q-58 0 -100 57.5t-61 191.5l-22 210q-4 35 -47 35q-7 0 -7 5t7 5h182q6 0 6 -5t-8 -6h-13q-13 -2 -23.5 -11t-8.5 -23q10 -96 19 -193q15 -125 48 -185q22 -40 49 -40 q34 0 60 46q36 61 48 181q6 96 13 191q1 15 -11 25t-28 10h-10q-4 0 -4 5t4 5h127q5 0 5 -5zM388 615l-118 -99h-29l71 99h76z" />
<glyph unicode="&#xdb;" horiz-adv-x="521" d="M29 0zM491 489q0 -5 -5 -5q-45 0 -48 -35q-6 -104 -13 -208q-14 -134 -56.5 -192.5t-102.5 -58.5q-58 0 -100 57.5t-61 191.5l-22 210q-4 35 -47 35q-7 0 -7 5t7 5h182q6 0 6 -5t-8 -6h-13q-13 -2 -23.5 -11t-8.5 -23q10 -96 19 -193q15 -125 48 -185q22 -40 49 -40 q34 0 60 46q36 61 48 181q6 96 13 191q1 15 -11 25t-28 10h-10q-4 0 -4 5t4 5h127q5 0 5 -5zM383 516h-48l-58 48l-59 -48h-47l81 101h48z" />
<glyph unicode="&#xdc;" horiz-adv-x="521" d="M29 0zM491 489q0 -5 -5 -5q-45 0 -48 -35q-6 -104 -13 -208q-14 -134 -56.5 -192.5t-102.5 -58.5q-58 0 -100 57.5t-61 191.5l-22 210q-4 35 -47 35q-7 0 -7 5t7 5h182q6 0 6 -5t-8 -6h-13q-13 -2 -23.5 -11t-8.5 -23q10 -96 19 -193q15 -125 48 -185q22 -40 49 -40 q34 0 60 46q36 61 48 181q6 96 13 191q1 15 -11 25t-28 10h-10q-4 0 -4 5t4 5h127q5 0 5 -5zM373 552q0 -16 -11.5 -27.5t-27.5 -11.5t-27.5 11.5t-11.5 27.5t11.5 27.5t27.5 11.5t27.5 -11.5t11.5 -27.5zM275 552q0 -16 -11.5 -27.5t-26.5 -11.5q-17 0 -28.5 11.5 t-11.5 27.5t11.5 27.5t28.5 11.5q15 0 26.5 -11.5t11.5 -27.5z" />
<glyph unicode="&#xdd;" horiz-adv-x="582" d="M32 0zM550 490q0 -5 -6 -5q-42 0 -73 -36l-109 -125v-257q0 -22 15 -40.5t36 -18.5q17 0 17 -6t-5 -6h-214q-6 0 -6 6t19.5 6t34.5 18.5t15 40.5v235l-152 142v0q-24 24 -39.5 32.5t-44.5 8.5q-6 0 -6 5q0 6 6 6h208q6 0 6 -6q0 -5 -14.5 -5.5t-14.5 -12.5q0 -14 20 -33 l97 -92l67 77q11 12 11 27q0 34 -38 34h-10q-6 0 -6 5q0 6 6 6h174q6 0 6 -6zM435 614l-118 -99h-29l71 99h76z" />
<glyph unicode="&#xde;" horiz-adv-x="454" d="M464 286q0 -57 -74 -92q-70 -34 -174 -34q-19 0 -28 1v-95q0 -22 15 -40.5t37 -18.5h11q5 0 5 -6t-5 -6h-212q-7 0 -7 6t7 6h11q21 0 35.5 18.5t14.5 40.5v358q0 22 -14.5 41t-35.5 19h-11q-7 0 -7 5q0 6 7 6h212q5 0 5 -6q0 -5 -5 -5h-11q-22 0 -37 -19t-15 -41v-23h61 q94 0 154.5 -32.5t60.5 -82.5zM219 378q-31 0 -31 -32v-162q9 -1 28 -1q58 0 98.5 28.5t40.5 68.5q0 46 -47 74q-40 24 -89 24z" />
<glyph unicode="&#xdf;" horiz-adv-x="464" d="M448 473q0 -65 -42 -112t-107 -61q-26 -6 -40 -19q-17 -17 -17 -38q0 -33 46 -48l84 -26q46 -21 46 -65q0 -55 -43 -85q-38 -26 -95 -26q-36 0 -65 13l-23 -14v74l22 26q6 -35 32.5 -55t62.5 -20q68 0 68 44q0 32 -50 49q-46 15 -92 29q-49 24 -49 72q0 80 104 111 q44 13 68 63q21 42 21 93q0 57 -27 103q-32 56 -84 56q-53 0 -90 -54q-33 -49 -33 -105v-478h-100q-5 0 -5 5t5 5q18 0 30.5 16t12.5 34v249h-68q-6 0 -6 5t5 5q28 0 48.5 20.5t20.5 48.5v85q0 73 53.5 124.5t126.5 51.5t126.5 -51.5t53.5 -124.5z" />
<glyph unicode="&#xe0;" horiz-adv-x="385" d="M15 0zM370 21q0 -8 -18 -15t-28 -7q-23 0 -39.5 13t-18.5 36q-38 -49 -125 -49q-42 0 -79 18q-47 22 -47 59q0 38 47 60q36 17 79 17q69 0 119 -28q-2 41 -9 122q-3 35 -29 57.5t-61 22.5q-29 0 -53 -18t-24 -46q0 -38 53 -47q5 -1 5.5 -3t0.5 -3q0 -2 -4.5 -4.5 t-71.5 -24.5q-32 29 -32 64q0 45 46 74q39 24 87 24q129 0 141 -120q2 -19 12 -129q1 -17 4 -52q3 -23 23 -23q7 0 11 3t6 3t3.5 -1t1.5 -3zM264 74q0 58 -89 58q-84 0 -84 -53q0 -54 84 -54q42 0 65.5 15.5t23.5 33.5zM190 366h-28l-119 99h76z" />
<glyph unicode="&#xe1;" horiz-adv-x="385" d="M15 0zM370 21q0 -8 -18 -15t-28 -7q-23 0 -39.5 13t-18.5 36q-38 -49 -125 -49q-42 0 -79 18q-47 22 -47 59q0 38 47 60q36 17 79 17q69 0 119 -28q-2 41 -9 122q-3 35 -29 57.5t-61 22.5q-29 0 -53 -18t-24 -46q0 -38 53 -47q5 -1 5.5 -3t0.5 -3q0 -2 -4.5 -4.5 t-71.5 -24.5q-32 29 -32 64q0 45 46 74q39 24 87 24q129 0 141 -120q2 -19 12 -129q1 -17 4 -52q3 -23 23 -23q7 0 11 3t6 3t3.5 -1t1.5 -3zM264 74q0 58 -89 58q-84 0 -84 -53q0 -54 84 -54q42 0 65.5 15.5t23.5 33.5zM302 461l-118 -99h-29l71 99h76z" />
<glyph unicode="&#xe2;" horiz-adv-x="385" d="M15 0zM370 21q0 -8 -18 -15t-28 -7q-23 0 -39.5 13t-18.5 36q-38 -49 -125 -49q-42 0 -79 18q-47 22 -47 59q0 38 47 60q36 17 79 17q69 0 119 -28q-2 41 -9 122q-3 35 -29 57.5t-61 22.5q-29 0 -53 -18t-24 -46q0 -38 53 -47q5 -1 5.5 -3t0.5 -3q0 -2 -4.5 -4.5 t-71.5 -24.5q-32 29 -32 64q0 45 46 74q39 24 87 24q129 0 141 -120q2 -19 12 -129q1 -17 4 -52q3 -23 23 -23q7 0 11 3t6 3t3.5 -1t1.5 -3zM264 74q0 58 -89 58q-84 0 -84 -53q0 -54 84 -54q42 0 65.5 15.5t23.5 33.5zM281 357h-48l-58 48l-59 -48h-47l81 101h48z" />
<glyph unicode="&#xe3;" horiz-adv-x="385" d="M15 0zM370 21q0 -8 -18 -15t-28 -7q-23 0 -39.5 13t-18.5 36q-38 -49 -125 -49q-42 0 -79 18q-47 22 -47 59q0 38 47 60q36 17 79 17q69 0 119 -28q-2 41 -9 122q-3 35 -29 57.5t-61 22.5q-29 0 -53 -18t-24 -46q0 -38 53 -47q5 -1 5.5 -3t0.5 -3q0 -2 -4.5 -4.5 t-71.5 -24.5q-32 29 -32 64q0 45 46 74q39 24 87 24q129 0 141 -120q2 -19 12 -129q1 -17 4 -52q3 -23 23 -23q7 0 11 3t6 3t3.5 -1t1.5 -3zM264 74q0 58 -89 58q-84 0 -84 -53q0 -54 84 -54q42 0 65.5 15.5t23.5 33.5zM292 437q-10 -71 -65 -71q-18 0 -49.5 15.5 t-46.5 15.5q-26 0 -38 -33h-26q15 81 65 81q12 0 25 -4q19 -8 56 -24q13 -4 24 -4q24 0 29 24h26z" />
<glyph unicode="&#xe4;" horiz-adv-x="385" d="M15 0zM370 21q0 -8 -18 -15t-28 -7q-23 0 -39.5 13t-18.5 36q-38 -49 -125 -49q-42 0 -79 18q-47 22 -47 59q0 38 47 60q36 17 79 17q69 0 119 -28q-2 41 -9 122q-3 35 -29 57.5t-61 22.5q-29 0 -53 -18t-24 -46q0 -38 53 -47q5 -1 5.5 -3t0.5 -3q0 -2 -4.5 -4.5 t-71.5 -24.5q-32 29 -32 64q0 45 46 74q39 24 87 24q129 0 141 -120q2 -19 12 -129q1 -17 4 -52q3 -23 23 -23q7 0 11 3t6 3t3.5 -1t1.5 -3zM264 74q0 58 -89 58q-84 0 -84 -53q0 -54 84 -54q42 0 65.5 15.5t23.5 33.5zM264 397q0 -16 -11.5 -27.5t-27.5 -11.5t-27.5 11.5 t-11.5 27.5t11.5 27.5t27.5 11.5t27.5 -11.5t11.5 -27.5zM166 397q0 -16 -11.5 -27.5t-26.5 -11.5q-17 0 -28.5 11.5t-11.5 27.5t11.5 27.5t28.5 11.5q15 0 26.5 -11.5t11.5 -27.5z" />
<glyph unicode="&#xe5;" horiz-adv-x="385" d="M15 0zM370 21q0 -8 -18 -15t-28 -7q-23 0 -39.5 13t-18.5 36q-38 -49 -125 -49q-42 0 -79 18q-47 22 -47 59q0 38 47 60q36 17 79 17q69 0 119 -28q-2 41 -9 122q-3 35 -29 57.5t-61 22.5q-29 0 -53 -18t-24 -46q0 -38 53 -47q5 -1 5.5 -3t0.5 -3q0 -2 -4.5 -4.5 t-71.5 -24.5q-32 29 -32 64q0 45 46 74q39 24 87 24q129 0 141 -120q2 -19 12 -129q1 -17 4 -52q3 -23 23 -23q7 0 11 3t6 3t3.5 -1t1.5 -3zM264 74q0 58 -89 58q-84 0 -84 -53q0 -54 84 -54q42 0 65.5 15.5t23.5 33.5zM265 433q0 -32 -23.5 -55.5t-57.5 -23.5 q-33 0 -56.5 23.5t-23.5 55.5q0 34 23.5 58t56.5 24q34 0 57.5 -24t23.5 -58zM228 433q0 19 -13 31.5t-31 12.5t-30.5 -12.5t-12.5 -31.5q0 -17 13 -29.5t30 -12.5q18 0 31 12.5t13 29.5z" />
<glyph unicode="&#xe6;" horiz-adv-x="609" d="M587 94q0 -8 -16 -30q-50 -72 -138 -72q-97 0 -145 83q-40 -76 -143 -76q-43 0 -80 18q-47 21 -47 59t47 60q37 17 80 17q69 0 119 -28q-6 81 -10 122q-3 34 -28.5 57t-60.5 23q-29 0 -52 -17q-26 -19 -26 -47q0 -38 54 -47q5 -1 5 -4v-2q0 -2 -3 -4q-6 -3 -72 -25 q-33 29 -33 64q0 46 46 74q39 24 88 24q103 0 132 -78q51 61 128 61q86 0 124 -73h-201q-17 -33 -17 -73q0 -61 36 -111q40 -55 99 -55t96 64q2 6 8 16q2 3 5 3q5 0 5 -3zM475 267q1 19 -13 32t-33 13q-39 0 -70 -49h116v4zM268 74q0 58 -89 58q-84 0 -84 -53q0 -54 84 -54 q41 0 65 16t24 33z" />
<glyph unicode="&#xe7;" horiz-adv-x="321" d="M15 0zM306 118q-12 -50 -50 -83q-40 -36 -93 -36q-60 0 -104 48t-44 116q0 67 43.5 115t104.5 48q40 0 74 -17q39 -21 39 -56q0 -29 -22.5 -47t-52.5 -18q-23 0 -44 11q-4 3 -4 7q0 2 1 3q2 6 12 3q12 -5 23 -5q20 0 31 15q8 10 8 26q0 37 -30 57q-12 8 -28 8 q-21 0 -41 -12q-50 -31 -50 -109q0 -87 52 -134q32 -29 69 -29q43 0 72 38q18 23 24 54q2 5 7 3q5 0 3 -6zM211 -75q0 -15 -9 -28q-23 -29 -70 -29q-27 0 -67 12l11 23q29 -13 45 -13q18 0 32 8q18 10 18 26q0 12 -9.5 20t-29.5 8q-15 0 -31 -5l-9 10l43 58h27l-34 -42l25 5 q29 -3 43.5 -16t14.5 -37z" />
<glyph unicode="&#xe8;" horiz-adv-x="354" d="M16 0zM338 93l-1 -2q-19 -45 -61.5 -72t-91.5 -27q-69 0 -118.5 48.5t-49.5 118.5q0 68 49 117.5t117 49.5q87 0 125 -73h-202q-16 -33 -16 -73q0 -61 37 -111q40 -54 99 -54q60 0 104 79q2 3 4 3q5 0 5 -4zM227 263q0 21 -13.5 35t-34.5 14q-38 0 -69 -49h117zM187 353 h-28l-119 99h76z" />
<glyph unicode="&#xe9;" horiz-adv-x="354" d="M16 0zM338 93l-1 -2q-19 -45 -61.5 -72t-91.5 -27q-69 0 -118.5 48.5t-49.5 118.5q0 68 49 117.5t117 49.5q87 0 125 -73h-202q-16 -33 -16 -73q0 -61 37 -111q40 -54 99 -54q60 0 104 79q2 3 4 3q5 0 5 -4zM227 263q0 21 -13.5 35t-34.5 14q-38 0 -69 -49h117zM319 446 l-118 -99h-29l71 99h76z" />
<glyph unicode="&#xea;" horiz-adv-x="354" d="M16 0zM338 93l-1 -2q-19 -45 -61.5 -72t-91.5 -27q-69 0 -118.5 48.5t-49.5 118.5q0 68 49 117.5t117 49.5q87 0 125 -73h-202q-16 -33 -16 -73q0 -61 37 -111q40 -54 99 -54q60 0 104 79q2 3 4 3q5 0 5 -4zM227 263q0 21 -13.5 35t-34.5 14q-38 0 -69 -49h117zM293 338 h-48l-58 48l-59 -48h-47l81 101h48z" />
<glyph unicode="&#xeb;" horiz-adv-x="354" d="M16 0zM338 93l-1 -2q-19 -45 -61.5 -72t-91.5 -27q-69 0 -118.5 48.5t-49.5 118.5q0 68 49 117.5t117 49.5q87 0 125 -73h-202q-16 -33 -16 -73q0 -61 37 -111q40 -54 99 -54q60 0 104 79q2 3 4 3q5 0 5 -4zM227 263q0 21 -13.5 35t-34.5 14q-38 0 -69 -49h117zM267 384 q0 -16 -11.5 -27.5t-27.5 -11.5t-27.5 11.5t-11.5 27.5t11.5 27.5t27.5 11.5t27.5 -11.5t11.5 -27.5zM169 384q0 -16 -11.5 -27.5t-26.5 -11.5q-17 0 -28.5 11.5t-11.5 27.5t11.5 27.5t28.5 11.5q15 0 26.5 -11.5t11.5 -27.5z" />
<glyph unicode="&#xec;" horiz-adv-x="181" d="M0 0zM173 4q0 -5 -5 -5h-155q-5 0 -5 5q0 3 13.5 6.5t20.5 12.5q14 17 14 36v160q0 100 88 109q-19 -27 -19 -64v-205q0 -19 12.5 -34.5t30.5 -15.5q5 0 5 -5zM116 358h-28l-119 99h76z" />
<glyph unicode="&#xed;" horiz-adv-x="181" d="M8 0zM173 4q0 -5 -5 -5h-155q-5 0 -5 5q0 3 13.5 6.5t20.5 12.5q14 17 14 36v160q0 100 88 109q-19 -27 -19 -64v-205q0 -19 12.5 -34.5t30.5 -15.5q5 0 5 -5zM244 448l-118 -99h-29l71 99h76z" />
<glyph unicode="&#xee;" horiz-adv-x="181" d="M0 0zM173 4q0 -5 -5 -5h-155q-5 0 -5 5q0 3 13.5 6.5t20.5 12.5q14 17 14 36v160q0 100 88 109q-19 -27 -19 -64v-205q0 -19 12.5 -34.5t30.5 -15.5q5 0 5 -5zM210 336h-48l-58 48l-59 -48h-47l81 101h48z" />
<glyph unicode="&#xef;" horiz-adv-x="181" d="M8 0zM173 4q0 -5 -5 -5h-155q-5 0 -5 5q0 3 13.5 6.5t20.5 12.5q14 17 14 36v160q0 100 88 109q-19 -27 -19 -64v-205q0 -19 12.5 -34.5t30.5 -15.5q5 0 5 -5zM194 386q0 -16 -11.5 -27.5t-27.5 -11.5t-27.5 11.5t-11.5 27.5t11.5 27.5t27.5 11.5t27.5 -11.5t11.5 -27.5z M96 386q0 -16 -11.5 -27.5t-26.5 -11.5q-17 0 -28.5 11.5t-11.5 27.5t11.5 27.5t28.5 11.5q15 0 26.5 -11.5t11.5 -27.5z" />
<glyph unicode="&#xf0;" horiz-adv-x="343" d="M327 205q0 -75 -23 -123q-43 -90 -135 -90q-66 0 -109.5 51t-43.5 118t43.5 118.5t109.5 51.5q42 0 80 -25q-23 172 -93 271q-60 -28 -63 -28q-14 0 -14 14q0 9 9 13l50 23q-49 52 -105 47q-6 -1 -7 3q0 4 5 6q22 9 47 9q52 0 102 -46q58 27 61 27q13 0 13 -14 q0 -9 -9 -13l-45 -21q57 -69 93 -187q34 -109 34 -205zM256 196q0 38 -4 78q-24 39 -75 39q-50 0 -74 -47q-18 -36 -18 -92q0 -51 22 -103q28 -64 72 -64q45 0 65 76q12 49 12 113z" />
<glyph unicode="&#xf1;" horiz-adv-x="384" d="M18 0zM367 4q0 -5 -4 -5h-155q-5 0 -5 5t5 5q17 0 30 16t13 34v164q0 25 -13.5 45.5t-35.5 20.5q-28 0 -47 -26t-19 -55v-149q0 -18 12 -34t30 -16q3 0 6 -5q0 -5 -6 -5h-154q-6 0 -6 5t6 5q17 0 30 16t13 34v208l-33 17q17 9 51 26.5t51 26.5v-89q31 80 98 80 q40 0 64 -36q22 -31 22 -73v-160q0 -18 12.5 -34t30.5 -16q4 0 4 -5zM305 416q-10 -71 -65 -71q-18 0 -49.5 15.5t-46.5 15.5q-26 0 -38 -33h-26q15 81 65 81q12 0 25 -4q19 -8 56 -24q13 -4 24 -4q24 0 29 24h26z" />
<glyph unicode="&#xf2;" horiz-adv-x="412" d="M19 0zM393 157q0 -73 -56.5 -121.5t-130.5 -48.5t-129 47q-58 50 -58 123t58 122q55 47 129 47t130.5 -48t56.5 -121zM313 137q0 92 -52 145q-32 32 -67 32q-47 0 -74 -47q-22 -40 -22 -91q0 -89 53 -142q33 -32 67 -32q47 0 73 47q22 38 22 88zM193 356h-28l-119 99h76z " />
<glyph unicode="&#xf3;" horiz-adv-x="412" d="M19 0zM393 157q0 -73 -56.5 -121.5t-130.5 -48.5t-129 47q-58 50 -58 123t58 122q55 47 129 47t130.5 -48t56.5 -121zM313 137q0 92 -52 145q-32 32 -67 32q-47 0 -74 -47q-22 -40 -22 -91q0 -89 53 -142q33 -32 67 -32q47 0 73 47q22 38 22 88zM338 448l-118 -99h-29 l71 99h76z" />
<glyph unicode="&#xf4;" horiz-adv-x="412" d="M19 0zM393 157q0 -73 -56.5 -121.5t-130.5 -48.5t-129 47q-58 50 -58 123t58 122q55 47 129 47t130.5 -48t56.5 -121zM313 137q0 92 -52 145q-32 32 -67 32q-47 0 -74 -47q-22 -40 -22 -91q0 -89 53 -142q33 -32 67 -32q47 0 73 47q22 38 22 88zM307 341h-48l-58 48 l-59 -48h-47l81 101h48z" />
<glyph unicode="&#xf5;" horiz-adv-x="412" d="M19 0zM393 157q0 -73 -56.5 -121.5t-130.5 -48.5t-129 47q-58 50 -58 123t58 122q55 47 129 47t130.5 -48t56.5 -121zM313 137q0 92 -52 145q-32 32 -67 32q-47 0 -74 -47q-22 -40 -22 -91q0 -89 53 -142q33 -32 67 -32q47 0 73 47q22 38 22 88zM318 414q-10 -71 -65 -71 q-18 0 -49.5 15.5t-46.5 15.5q-26 0 -38 -33h-26q15 81 65 81q12 0 25 -4q19 -8 56 -24q13 -4 24 -4q24 0 29 24h26z" />
<glyph unicode="&#xf6;" horiz-adv-x="412" d="M19 0zM393 157q0 -73 -56.5 -121.5t-130.5 -48.5t-129 47q-58 50 -58 123t58 122q55 47 129 47t130.5 -48t56.5 -121zM313 137q0 92 -52 145q-32 32 -67 32q-47 0 -74 -47q-22 -40 -22 -91q0 -89 53 -142q33 -32 67 -32q47 0 73 47q22 38 22 88zM281 383 q0 -16 -11.5 -27.5t-27.5 -11.5t-27.5 11.5t-11.5 27.5t11.5 27.5t27.5 11.5t27.5 -11.5t11.5 -27.5zM183 383q0 -16 -11.5 -27.5t-26.5 -11.5q-17 0 -28.5 11.5t-11.5 27.5t11.5 27.5t28.5 11.5q15 0 26.5 -11.5t11.5 -27.5z" />
<glyph unicode="&#xf8;" horiz-adv-x="412" d="M393 157q0 -73 -56.5 -121.5t-130.5 -48.5q-65 0 -114 36q-40 -42 -46 -42q-15 0 -15 15q0 6 39 45q-51 48 -51 116q0 73 58 122q55 47 129 47q65 0 114 -35q41 41 47 41q14 0 14 -14q0 -6 -39 -45q51 -48 51 -116zM283 254q-42 60 -89 60q-46 0 -73 -46q-23 -39 -23 -89 q0 -45 18 -92zM314 141q0 47 -18 86l-166 -166q36 -59 89 -59q47 0 73 48q22 39 22 91z" />
<glyph unicode="&#xf9;" horiz-adv-x="371" d="M17 0zM354 42q-15 -42 -58 -42q-26 0 -44.5 18t-18.5 44v8q-12 -34 -37 -56q-28 -24 -61 -24t-55 23q-31 32 -31 86v168l-32 17l101 54v-244q0 -32 19 -52q13 -14 30 -14q29 0 49 29q17 25 17 57v153l-32 17l102 53v-285q0 -22 22 -22q15 0 20 15q2 5 6 3q5 0 3 -6z M185 356h-28l-119 99h76z" />
<glyph unicode="&#xfa;" horiz-adv-x="371" d="M17 0zM354 42q-15 -42 -58 -42q-26 0 -44.5 18t-18.5 44v8q-12 -34 -37 -56q-28 -24 -61 -24t-55 23q-31 32 -31 86v168l-32 17l101 54v-244q0 -32 19 -52q13 -14 30 -14q29 0 49 29q17 25 17 57v153l-32 17l102 53v-285q0 -22 22 -22q15 0 20 15q2 5 6 3q5 0 3 -6z M313 446l-118 -99h-29l71 99h76z" />
<glyph unicode="&#xfb;" horiz-adv-x="371" d="M17 0zM354 42q-15 -42 -58 -42q-26 0 -44.5 18t-18.5 44v8q-12 -34 -37 -56q-28 -24 -61 -24t-55 23q-31 32 -31 86v168l-32 17l101 54v-244q0 -32 19 -52q13 -14 30 -14q29 0 49 29q17 25 17 57v153l-32 17l102 53v-285q0 -22 22 -22q15 0 20 15q2 5 6 3q5 0 3 -6z M279 347h-48l-58 48l-59 -48h-47l81 101h48z" />
<glyph unicode="&#xfc;" horiz-adv-x="371" d="M17 0zM354 42q-15 -42 -58 -42q-26 0 -44.5 18t-18.5 44v8q-12 -34 -37 -56q-28 -24 -61 -24t-55 23q-31 32 -31 86v168l-32 17l101 54v-244q0 -32 19 -52q13 -14 30 -14q29 0 49 29q17 25 17 57v153l-32 17l102 53v-285q0 -22 22 -22q15 0 20 15q2 5 6 3q5 0 3 -6z M254 395q0 -16 -11.5 -27.5t-27.5 -11.5t-27.5 11.5t-11.5 27.5t11.5 27.5t27.5 11.5t27.5 -11.5t11.5 -27.5zM156 395q0 -16 -11.5 -27.5t-26.5 -11.5q-17 0 -28.5 11.5t-11.5 27.5t11.5 27.5t28.5 11.5q15 0 26.5 -11.5t11.5 -27.5z" />
<glyph unicode="&#xfd;" horiz-adv-x="370" d="M0 0zM355 324q0 -5 -6 -5q-39 0 -61 -43q-7 -13 -35 -76q-32 -75 -103 -221q-81 -145 -187 -217q-67 -46 -127 -46q-44 0 -76 26q15 17 47 50q33 -33 74 -33q42 0 95 37q118 83 220 313l-132 150q-13 15 -27 15q-6 0 -12.5 -3.5t-7.5 -3.5q-5 0 -5 4q0 3 78 59l133 -156 q40 100 40 118q0 22 -27.5 25.5t-27.5 6.5q0 4 5 4h136q6 0 6 -4zM302 444l-118 -99h-29l71 99h76z" />
<glyph unicode="&#xfe;" horiz-adv-x="397" d="M379 199q0 -70 -45 -132q-50 -67 -118 -67q-24 0 -44 10v-67q0 -68 -27 -129q-30 -70 -84 -99q-26 -14 -37 -14q-5 0 -6 3q0 4 3 6q82 64 82 171v751q0 19 -12 34.5t-30 15.5q-6 0 -6 5t6 5h111v-414q48 50 102 50q50 0 79 -41q26 -36 26 -88zM318 156q0 46 -20 88 q-24 53 -65 53q-35 0 -61 -42v-198q26 -42 61 -42q41 0 65 53q20 42 20 88z" />
<glyph unicode="&#xff;" horiz-adv-x="370" d="M0 0zM355 324q0 -5 -6 -5q-39 0 -61 -43q-7 -13 -35 -76q-32 -75 -103 -221q-81 -145 -187 -217q-67 -46 -127 -46q-44 0 -76 26q15 17 47 50q33 -33 74 -33q42 0 95 37q118 83 220 313l-132 150q-13 15 -27 15q-6 0 -12.5 -3.5t-7.5 -3.5q-5 0 -5 4q0 3 78 59l133 -156 q40 100 40 118q0 22 -27.5 25.5t-27.5 6.5q0 4 5 4h136q6 0 6 -4zM278 386q0 -16 -11.5 -27.5t-27.5 -11.5t-27.5 11.5t-11.5 27.5t11.5 27.5t27.5 11.5t27.5 -11.5t11.5 -27.5zM180 386q0 -16 -11.5 -27.5t-26.5 -11.5q-17 0 -28.5 11.5t-11.5 27.5t11.5 27.5t28.5 11.5 q15 0 26.5 -11.5t11.5 -27.5z" />
<glyph unicode="&#x131;" horiz-adv-x="181" d="M173 4q0 -5 -5 -5h-155q-5 0 -5 5q0 3 13.5 6.5t20.5 12.5q14 17 14 36v160q0 100 88 109q-19 -27 -19 -64v-205q0 -19 12.5 -34.5t30.5 -15.5q5 0 5 -5z" />
<glyph unicode="&#x152;" horiz-adv-x="847" d="M803 489q-9 -62 -63 -103q-4 -2 -7 1.5t-1 6.5q7 10 7 25q0 29 -40 45q-30 11 -65 11h-19q-38 0 -38 -35v-264h60q24 0 36 7.5t25 29.5q3 4 7 2q3 -1 3 -4v-97q0 -4 -3 -6q-5 0 -13 12q-11 15 -14 17q-15 11 -41 11h-60v-83q0 -50 61 -50q34 0 64 17q35 21 35 51 q0 19 -14 35q-2 2 0 8q5 2 7 1q66 -27 66 -76q0 -12 -9.5 -31t-21.5 -25h-338q-6 0 -6 5q0 6 6 6h11q20 0 34.5 17t16.5 37q-77 -71 -182 -71q-107 0 -185 73.5t-78 179.5t78 179t185 73q105 0 183 -71v26q0 35 -38 35h-10q-6 0 -6 5q0 6 6 6h355q6 0 6 -6zM474 286 q-19 72 -68 123q-55 57 -124 57q-72 0 -115 -62q-37 -54 -37 -129q0 -39 10 -78q19 -72 68 -122q55 -58 124 -58q72 0 115 64q37 56 37 131q0 37 -10 74z" />
<glyph unicode="&#x153;" horiz-adv-x="660" d="M642 93v-2q-20 -45 -62.5 -72t-90.5 -27q-81 0 -133 65q-60 -70 -151 -70q-74 0 -130.5 48.5t-56.5 121.5t56 121t131 48q84 0 150 -67q49 67 132 67q86 0 125 -73h-202q-17 -33 -17 -73q0 -61 37 -111q40 -55 99 -55q61 0 105 80q1 3 3 3q5 0 5 -4zM532 263q0 21 -14 35 t-34 14q-41 0 -69 -49h117zM313 140q0 58 -31 112q-35 62 -89 62q-47 0 -74 -46q-22 -39 -22 -89q0 -92 54 -145q32 -32 67 -32q46 0 73 48q22 39 22 90z" />
<glyph unicode="&#x178;" horiz-adv-x="582" d="M32 0zM550 490q0 -5 -6 -5q-42 0 -73 -36l-109 -125v-257q0 -22 15 -40.5t36 -18.5q17 0 17 -6t-5 -6h-214q-6 0 -6 6t19.5 6t34.5 18.5t15 40.5v235l-152 142v0q-24 24 -39.5 32.5t-44.5 8.5q-6 0 -6 5q0 6 6 6h208q6 0 6 -6q0 -5 -14.5 -5.5t-14.5 -12.5q0 -14 20 -33 l97 -92l67 77q11 12 11 27q0 34 -38 34h-10q-6 0 -6 5q0 6 6 6h174q6 0 6 -6zM407 554q0 -16 -11.5 -27.5t-27.5 -11.5t-27.5 11.5t-11.5 27.5t11.5 27.5t27.5 11.5t27.5 -11.5t11.5 -27.5zM309 554q0 -16 -11.5 -27.5t-26.5 -11.5q-17 0 -28.5 11.5t-11.5 27.5t11.5 27.5 t28.5 11.5q15 0 26.5 -11.5t11.5 -27.5z" />
<glyph unicode="&#x2c6;" horiz-adv-x="228" d="M220 517h-48l-58 48l-59 -48h-47l81 101h48z" />
<glyph unicode="&#x2da;" horiz-adv-x="201" d="M191 660q0 -32 -23.5 -55.5t-57.5 -23.5q-33 0 -56.5 23.5t-23.5 55.5q0 34 23.5 58t56.5 24q34 0 57.5 -24t23.5 -58zM154 660q0 19 -13 31.5t-31 12.5t-30.5 -12.5t-12.5 -31.5q0 -17 13 -29.5t30 -12.5q18 0 31 12.5t13 29.5z" />
<glyph unicode="&#x2dc;" horiz-adv-x="243" d="M234 589q-10 -71 -65 -71q-18 0 -49.5 15.5t-46.5 15.5q-26 0 -38 -33h-26q15 81 65 81q12 0 25 -4q19 -8 56 -24q13 -4 24 -4q24 0 29 24h26z" />
<glyph unicode="&#x2000;" horiz-adv-x="371" />
<glyph unicode="&#x2001;" horiz-adv-x="742" />
<glyph unicode="&#x2002;" horiz-adv-x="371" />
<glyph unicode="&#x2003;" horiz-adv-x="742" />
<glyph unicode="&#x2004;" horiz-adv-x="247" />
<glyph unicode="&#x2005;" horiz-adv-x="185" />
<glyph unicode="&#x2006;" horiz-adv-x="123" />
<glyph unicode="&#x2007;" horiz-adv-x="123" />
<glyph unicode="&#x2008;" horiz-adv-x="92" />
<glyph unicode="&#x2009;" horiz-adv-x="148" />
<glyph unicode="&#x200a;" horiz-adv-x="41" />
<glyph unicode="&#x2010;" horiz-adv-x="135" d="M125 191q0 -5 -6 -5h-103q-6 0 -6 5v55q0 6 6 6h103q6 0 6 -6v-55z" />
<glyph unicode="&#x2011;" horiz-adv-x="135" d="M125 191q0 -5 -6 -5h-103q-6 0 -6 5v55q0 6 6 6h103q6 0 6 -6v-55z" />
<glyph unicode="&#x2012;" horiz-adv-x="135" d="M125 191q0 -5 -6 -5h-103q-6 0 -6 5v55q0 6 6 6h103q6 0 6 -6v-55z" />
<glyph unicode="&#x2013;" horiz-adv-x="316" d="M303 191q0 -5 -6 -5h-278q-6 0 -6 5v55q0 6 6 6h278q6 0 6 -6v-55z" />
<glyph unicode="&#x2014;" horiz-adv-x="650" d="M621 191q0 -5 -6 -5h-581q-5 0 -5 5v55q0 6 5 6h581q6 0 6 -6v-55z" />
<glyph unicode="&#x2018;" horiz-adv-x="134" d="M104 474q0 -15 -10.5 -25.5t-25.5 -10.5t-26.5 14t-11.5 30q0 46 41 66q5 1 7 -2q5 -2 -1 -6q-10 -14 -11 -30q15 1 26.5 -9.5t11.5 -26.5z" />
<glyph unicode="&#x2019;" horiz-adv-x="131" d="M102 504q0 -47 -41 -66q-5 -1 -6.5 1t-1.5 4t1 4q10 10 13 29q-16 -1 -27.5 9.5t-11.5 26.5q0 15 10.5 25.5t25.5 10.5t28 -13q10 -13 10 -31z" />
<glyph unicode="&#x201a;" horiz-adv-x="142" d="M113 29q0 -53 -47 -74q-6 -2 -8 1q-1 3 0 8q13 15 14 34q-17 -1 -30 11t-13 30q0 16 12 28t29 12q20 0 31.5 -15t11.5 -35z" />
<glyph unicode="&#x201c;" horiz-adv-x="223" d="M188 474q0 -14 -10.5 -25t-24.5 -11q-17 0 -28 13.5t-11 30.5q0 45 42 66q5 1 7 -2q2 -2 0 -6q-11 -13 -14 -30q17 1 28 -9.5t11 -26.5zM109 474q0 -14 -11 -25t-25 -11q-16 0 -27.5 13t-11.5 31q0 45 42 66q4 2 5.5 -0.5t1.5 -3.5q0 -3 -1 -4q-11 -13 -12 -30 q16 1 27.5 -9.5t11.5 -26.5z" />
<glyph unicode="&#x201d;" horiz-adv-x="220" d="M187 504q0 -47 -43 -66q-3 -1 -6 1q-2 4 1 8q11 12 12 29q-16 -1 -27 9.5t-11 26.5q0 15 10 25.5t25 10.5q16 0 27.5 -12t11.5 -32zM107 504q0 -47 -42 -66q-5 -1 -7 1q-1 3 5.5 17.5t7.5 19.5q-15 -1 -26.5 9.5t-11.5 26.5q0 15 10.5 25.5t24.5 10.5q17 0 28 -13.5 t11 -30.5z" />
<glyph unicode="&#x201e;" horiz-adv-x="244" d="M209 29q0 -53 -47 -74q-5 -2 -8 1q-1 4 1 8q11 13 14 34q-18 -1 -31 11t-13 30q0 16 12.5 28t29.5 12q18 0 30 -14.5t12 -35.5zM119 29q0 -52 -48 -74q-4 -2 -8 1q0 5 1 8q13 15 14 34q-17 -1 -30 11t-13 30q0 17 11.5 28.5t29.5 11.5q19 0 31 -15.5t12 -34.5z" />
<glyph unicode="&#x2022;" horiz-adv-x="162" d="M153 239q0 -30 -21 -51t-51 -21t-51 21t-21 51q0 29 21 50.5t51 21.5t51 -21.5t21 -50.5z" />
<glyph unicode="&#x2026;" horiz-adv-x="403" d="M351 43q0 -18 -12 -30t-29 -12q-16 0 -28 12t-12 30q0 16 12 28t28 12q17 0 29 -12t12 -28zM242 43q0 -17 -12 -29.5t-28 -12.5q-17 0 -29 12t-12 30q0 16 12 28t29 12q16 0 28 -12t12 -28zM133 43q0 -18 -12 -30t-29 -12t-28.5 12t-11.5 30q0 16 11.5 28t28.5 12t29 -12 t12 -28z" />
<glyph unicode="&#x202f;" horiz-adv-x="148" />
<glyph unicode="&#x2039;" horiz-adv-x="97" d="M94 123l-91 95v54l91 95v-52l-43 -68l43 -71v-53z" />
<glyph unicode="&#x205f;" horiz-adv-x="185" />
<glyph unicode="&#x20ac;" horiz-adv-x="493" d="M472 414q3 -4 3 -7q0 -10 -10 -10q-4 0 -7 4q-47 69 -132 69q-70 0 -112 -64q-35 -53 -42 -129h212l-19 -24h-195v-16h180l-19 -24h-159q4 -60 26 -105q42 -87 125 -87q45 0 81 20q12 7 12 -9q0 -8 -7 -12q-52 -30 -109 -30q-96 0 -158 64t-68 159h-55l17 24h36v16h-53 l17 24h37q10 97 68 158q62 66 159 66q106 0 172 -87z" />
<glyph unicode="&#x2122;" />
<glyph unicode="&#xe000;" horiz-adv-x="335" d="M0 335h335v-335h-335v335z" />
<glyph d="M0 0z" />
</font>
</defs>
</svg>
