<?xml version="1.0" standalone="no"?>
<!DOCTYPE svg PUBLIC "-//W3C//DTD SVG 1.1//EN" "http://www.w3.org/Graphics/SVG/1.1/DTD/svg11.dtd" >
<svg xmlns="http://www.w3.org/2000/svg">
<metadata></metadata>
<defs>
<font id="panefresco_400wtitalic" horiz-adv-x="530" >
<font-face units-per-em="1000" ascent="750" descent="-250" />
<missing-glyph horiz-adv-x="235" />
<glyph horiz-adv-x="1000" />
<glyph horiz-adv-x="1000" />
<glyph unicode="&#xd;" horiz-adv-x="235" />
<glyph unicode=" "  horiz-adv-x="235" />
<glyph unicode="&#x09;" horiz-adv-x="235" />
<glyph unicode="&#xa0;" horiz-adv-x="235" />
<glyph unicode="!" d="M256 114h82l-26 -114h-82zM391 699h81l-110 -467h-77z" />
<glyph unicode="&#x22;" horiz-adv-x="310" d="M306 477l49 220h73l-52 -220h-70zM154 477l49 220h73l-52 -220h-70z" />
<glyph unicode="#" d="M450 180l-41 -180h-68l41 180h-154l-41 -180h-68l41 180h-111l15 64h111l41 178h-111l15 64h111l41 180h68l-41 -180h154l41 180h68l-41 -180h110l-15 -64h-110l-41 -178h110l-15 -64h-110zM438 422h-154l-41 -178h154z" />
<glyph unicode="$" d="M609 652q-1 -2 -4 -11.5t-6 -21t-6 -21t-3 -12.5q-24 2 -50 6q-22 2 -48.5 5t-52.5 5l-54 -238q26 -13 50 -28t43 -34.5t30 -44.5t11 -57q0 -33 -12.5 -69t-39 -66t-68.5 -50.5t-101 -24.5l-25 -109l-41 8l24 101q-26 1 -56 4t-57 6.5t-46 6t-22 3.5l19 66q6 -1 26 -3.5 t46.5 -5.5t55 -6t49.5 -4q16 65 31 129.5t30 128.5q-27 13 -54 28.5t-48.5 34.5t-35 43.5t-13.5 56.5q0 81 59.5 134.5t173.5 58.5l28 118h42l-28 -118q23 -1 47.5 -4t46.5 -6t38 -6t21 -3zM253 479q0 -33 28 -55t66 -42l52 220q-28 -2 -53.5 -11t-45.5 -24.5t-32.5 -36 t-14.5 -44.5v-7zM445 199q0 32 -22 54.5t-54 41.5l-55 -235q22 4 44.5 14t41 26.5t31 39t14.5 50.5v9z" />
<glyph unicode="%" d="M475 280q115 0 82 -138q-16 -69 -52 -105t-94 -36q-114 0 -80 142q16 69 50.5 103t93.5 34zM538 699l42 -23l-411 -672l-42 23zM391 143q-11 -45 -5.5 -68t37.5 -23t48 22.5t26 67.5q11 45 4.5 66t-38.5 21q-31 0 -46.5 -21t-25.5 -65zM293 702q59 0 78.5 -34.5 t2.5 -104.5q-16 -69 -52 -105t-94 -36q-114 0 -80 142q16 69 51 103.5t94 34.5zM208 564q-11 -45 -5.5 -68t37.5 -23t48 22.5t26 67.5q11 45 5 66t-38 21q-31 0 -47 -21t-26 -65z" />
<glyph unicode="&#x26;" horiz-adv-x="700" d="M485 702q89 0 121 -42t15 -115q-8 -36 -23 -63t-38.5 -49.5t-56.5 -41.5t-77 -38l110 -143q13 24 30.5 62t28.5 72l73 -1q-19 -50 -42 -98.5t-43 -83.5l100 -124l-59 -51l-94 113q-56 -59 -115.5 -86.5t-137.5 -27.5q-122 0 -164 57.5t-18 161.5q10 43 27.5 74.5 t42.5 55.5t57.5 41.5t71.5 31.5q-12 19 -18 35.5t-7.5 33t0.5 34.5t7 40q17 69 71 110.5t138 41.5zM296 56q57 0 101.5 21t88.5 71l-156 206q-69 -22 -107 -55.5t-52 -93.5q-17 -72 12 -110.5t113 -38.5zM350 542q-8 -31 -5 -58.5t24 -54.5l20 -28q36 14 63 27.5t45.5 29.5 t30 35.5t17.5 46.5q11 45 -7 68.5t-70 23.5q-97 0 -118 -90z" />
<glyph unicode="'" horiz-adv-x="100" d="M170 695h76l-57 -226h-69z" />
<glyph unicode="(" horiz-adv-x="260" d="M385 750q-44 -76 -83 -154q-17 -33 -34 -70t-32.5 -75.5t-28.5 -76.5t-21 -73t-12.5 -72t-6.5 -73.5t-1.5 -71.5t2.5 -66q4 -73 15 -143h-79q-13 66 -17 138q-5 61 -2 137t20 151q9 37 22 76.5t28.5 78t33 75t34.5 69.5q39 77 83 150h79z" />
<glyph unicode=")" horiz-adv-x="260" d="M288 750q11 -70 15 -145q3 -64 0 -141.5t-20 -152.5q-9 -38 -22 -76.5t-28.5 -76t-32.5 -73.5t-33 -67q-39 -74 -81 -143h-79q43 72 81 148q16 32 33 68t32 73.5t28 74.5t21 72q17 71 20 148t0 142q-4 76 -13 149h79z" />
<glyph unicode="*" d="M428 511l12 -125l-52 -15l-13 126l-125 -79l-21 40l126 79l-89 77l41 42l87 -76l71 124l45 -16l-69 -127h130l-12 -50h-131z" />
<glyph unicode="+" horiz-adv-x="458" d="M46 302h215l50 214h70l-50 -214h217l-16 -70h-217l-50 -216h-70l50 216h-215z" />
<glyph unicode="," horiz-adv-x="170" d="M96 107h81l-108 -230h-71z" />
<glyph unicode="-" horiz-adv-x="440" d="M137 318h312l-17 -74h-312z" />
<glyph unicode="." horiz-adv-x="248" d="M103 114h81l-26 -114h-81z" />
<glyph unicode="/" d="M526 709l69 -26l-439 -693l-69 25z" />
<glyph unicode="0" d="M418 671q58 0 99.5 -16.5t62.5 -57t21.5 -108t-23.5 -169.5q-22 -95 -53 -158.5t-70.5 -101.5t-88 -54t-104.5 -16q-57 0 -98 15.5t-63.5 53.5t-24.5 101.5t20 158.5q24 102 55.5 169.5t72 108t89 57.5t105.5 17zM402 598q-41 0 -73.5 -12.5t-59.5 -44t-49.5 -85.5 t-41.5 -137q-18 -78 -19 -127.5t12.5 -78t41 -39.5t66.5 -11t71 11t58.5 40t48 78.5t39.5 127.5q19 82 22 135.5t-9 85t-39 44.5t-68 13z" />
<glyph unicode="1" d="M426 660h73l-152 -660h-77l132 572l-196 -113l-21 62z" />
<glyph unicode="2" d="M57 0l16 71l237 198q37 31 68 57.5t54 52t39 51.5t23 56q14 61 -16.5 85.5t-102.5 24.5q-27 0 -58 -3.5t-57 -7.5q-31 -5 -60 -11l10 71q31 7 64 13q29 5 63.5 9t69.5 4q105 0 147.5 -41.5t21.5 -135.5q-9 -37 -24.5 -67.5t-38.5 -59.5t-55 -58t-74 -63l-207 -172h319 l-17 -74h-422z" />
<glyph unicode="3" d="M210 647q31 7 65 12q29 5 64.5 8.5t70.5 3.5q58 0 96 -10.5t58.5 -31.5t24 -53.5t-6.5 -76.5q-9 -39 -27.5 -65t-39 -43t-39 -26t-27.5 -14q23 -9 41.5 -20.5t29.5 -29.5t13 -45t-7 -67q-23 -100 -86 -149.5t-175 -49.5q-39 0 -77 3t-68 8q-35 5 -67 12l24 70 q30 -6 63 -10q28 -4 63.5 -6.5t70.5 -2.5q74 0 115.5 30.5t55.5 91.5q8 34 2.5 56.5t-20.5 36.5t-38 20t-51 7h-134l16 70h133q19 0 42 8t44 22.5t38 36t23 48.5q14 58 -13 82t-98 24q-34 0 -67.5 -3t-59.5 -7q-32 -4 -60 -9l8 69v0z" />
<glyph unicode="4" d="M378 124h-321l14 62l298 474h84l-291 -463h233l49 211h77l-49 -211h83l-17 -73h-83l-29 -128h-77z" />
<glyph unicode="5" d="M614 660l-17 -73h-314l-65 -209q26 10 52 19q23 7 50 13t53 6q49 0 86 -11t59 -34.5t27.5 -61t-6.5 -91.5q-26 -113 -98 -170t-176 -57q-38 0 -76 4.5t-68 9.5q-35 6 -68 14l25 69q33 -7 67 -12q29 -5 64.5 -8.5t69.5 -3.5q65 0 113.5 38.5t65.5 112.5q8 36 3.5 60.5 t-19.5 40t-39 22t-54 6.5q-29 0 -57 -6t-51 -14q-26 -9 -50 -19l-61 11l100 344h384z" />
<glyph unicode="6" d="M600 585q-27 3 -55 6q-25 2 -55 4t-62 2q-86 0 -144.5 -56.5t-84.5 -166.5l17 6t43.5 13.5t57 13.5t57.5 6q109 0 153.5 -50t20.5 -155q-25 -106 -97.5 -162t-184.5 -56q-62 0 -101 23t-58 67t-18 108t20 145q21 91 54 155.5t76 105t95 59t111 18.5q32 0 63 -2.5t57 -5.5 q30 -4 58 -8zM351 342q-29 -2 -58.5 -7.5t-54.5 -12.5q-29 -8 -56 -17q-11 -52 -13 -96.5t9.5 -77t36.5 -51t68 -18.5q74 0 121.5 36.5t64.5 109.5q16 69 -16.5 101.5t-101.5 32.5z" />
<glyph unicode="7" d="M207 660h410l-23 -101l-389 -572l-67 23l375 553l6 24h-329z" />
<glyph unicode="8" d="M422 671q53 0 94.5 -10.5t68.5 -32t37 -54t0 -75.5q-8 -32 -19.5 -55t-29 -41t-41.5 -31.5t-56 -26.5q24 -12 43 -26t30.5 -33.5t14 -45t-5.5 -61.5q-13 -54 -41 -90.5t-67 -58.5t-86.5 -31t-98.5 -9q-50 0 -92.5 8.5t-71.5 29t-41 55t0 85.5q9 39 23.5 66t34.5 47t44 35 t53 29q-23 13 -39 27t-24.5 32.5t-9.5 41.5t6 54q20 86 92.5 128.5t181.5 42.5zM282 63q74 0 126.5 27t69.5 97q6 29 1.5 49t-17 33.5t-32 22t-42.5 15.5h-105q-55 -14 -90 -42t-48 -84q-8 -33 -0.5 -55.5t26 -36.5t47.5 -20t64 -6zM407 598q-72 0 -118.5 -23.5t-60.5 -83.5 q-11 -46 7.5 -72t63.5 -44h105q55 17 89 43t45 72q13 59 -22.5 83.5t-108.5 24.5z" />
<glyph unicode="9" d="M83 75q26 -3 54 -6q24 -2 54.5 -4t62.5 -2q181 0 233 221q-31 -10 -63 -18q-27 -7 -58.5 -12.5t-58.5 -5.5q-104 0 -148.5 49t-20.5 154q12 52 37.5 92.5t62 69t82 43.5t97.5 15q62 0 102 -23t58.5 -67.5t18 -108t-19.5 -144.5q-22 -96 -55 -161t-75.5 -104t-95 -56 t-113.5 -17q-32 0 -63 2t-57 5q-30 4 -57 8zM329 319q26 0 56.5 5t56.5 12q31 8 62 18q12 54 13 98.5t-10.5 77t-37.5 50.5t-68 18q-69 0 -118 -39t-65 -108q-17 -70 12.5 -101t98.5 -31z" />
<glyph unicode=":" horiz-adv-x="177" d="M160 436h82l-26 -114h-82zM86 114h82l-26 -114h-82z" />
<glyph unicode=";" horiz-adv-x="198" d="M99 115h83l-118 -234h-67zM167 436h82l-26 -114h-82z" />
<glyph unicode="&#x3c;" d="M207 312l234 -175l-19 -81q-10 6 -32 21.5t-50 36t-59.5 44t-61.5 45.5t-55 40t-39 28l18 78l396 210l-19 -79z" />
<glyph unicode="=" d="M127 408h457l-16 -69h-457zM84 220h457l-16 -69h-457z" />
<glyph unicode="&#x3e;" d="M173 480l19 79l298 -210l-18 -78q-19 -10 -52 -28t-73 -40t-82.5 -45.5t-80.5 -44t-67 -36t-42 -21.5l19 81l316 175z" />
<glyph unicode="?" horiz-adv-x="386" d="M509 537q-10 -43 -31.5 -75t-48.5 -57.5t-56 -46.5t-54.5 -40t-44.5 -38.5t-24 -43.5l-9 -38h-79l10 41q7 32 27 57.5t46 47t55 41t55 41t45.5 47t27.5 57.5q14 58 -11.5 81t-96.5 23q-19 0 -46.5 -3.5t-53.5 -8.5q-31 -5 -63 -12l8 74q34 7 67 13q28 5 58 9.5t50 4.5 q104 0 147.5 -38.5t21.5 -135.5zM142 115h82l-26 -114h-82z" />
<glyph unicode="@" horiz-adv-x="985" d="M999 288q-23 -98 -48.5 -156.5t-55.5 -90t-65 -41.5t-75 -10q-44 0 -69.5 9.5t-33.5 45.5q-15 -7 -37.5 -16.5t-48 -17.5t-52 -14t-50.5 -6q-32 0 -61.5 8.5t-48.5 35.5t-22.5 76.5t15.5 131.5q14 63 34.5 112.5t51 83.5t74 52t103.5 18q17 0 36 -4t36 -9q19 -5 38 -12 l4 16h75l-46 -200q-20 -86 -28 -134t-5.5 -71.5t15.5 -29t36 -5.5t43 6t38 29t35.5 68.5t35.5 124.5l4 18q21 91 16.5 156.5t-37 107.5t-95 61.5t-157.5 19.5t-170.5 -21.5t-133.5 -68.5t-98 -121t-64 -179q-26 -111 -21.5 -186t39.5 -121t101.5 -65.5t165.5 -19.5 q15 0 39.5 1t47.5 3q27 2 58 5l-12 -72q-30 -3 -57 -5q-23 -2 -48.5 -3t-43.5 -1q-111 0 -190.5 21.5t-124.5 75t-53.5 143t23.5 224.5q28 124 78.5 211.5t121 143t160.5 81.5t198 26q113 0 188 -26t115.5 -78t47 -130.5t-17.5 -183.5zM485 63q20 0 42 4.5t43 10.5t40 13.5 t33 13.5q2 30 8.5 71.5t20.5 99.5l33 143q-16 6 -33 10q-14 4 -32 7t-34 3q-43 0 -72.5 -12t-50.5 -36t-35.5 -61.5t-26.5 -88.5q-14 -58 -12.5 -93t12 -54t28 -25t36.5 -6z" />
<glyph unicode="A" horiz-adv-x="604" d="M322 580q26 53 66.5 85t98.5 31h60l29 -696h-74l-14 176h-286l-90 -176h-81zM236 247h253l-15 379q-26 0 -47 -20t-35 -49z" />
<glyph unicode="B" horiz-adv-x="618" d="M500 696q98 0 142.5 -40.5t23.5 -131.5q-16 -72 -48 -109t-78 -57q21 -8 38.5 -20t27.5 -31t12.5 -46.5t-6.5 -64.5q-13 -55 -36.5 -92.5t-57 -60.5t-75 -33t-90.5 -10h-263l160 696h250zM239 318l-57 -247h184q31 0 58 6.5t48.5 21.5t37 39.5t24.5 61.5q9 40 -0.5 63.5 t-28.5 35.5t-43 15.5t-44 3.5h-179zM310 625l-55 -237h178q66 0 102 31.5t50 94.5q14 60 -12 85.5t-92 25.5h-171z" />
<glyph unicode="C" horiz-adv-x="536" d="M497 13q-34 -7 -68 -12q-29 -5 -64 -8t-64 -3q-78 0 -121.5 23.5t-61 68.5t-13 111.5t24.5 152.5q21 88 47 155.5t65 113t93 68.5t131 23q34 0 67.5 -3.5t59.5 -8.5q31 -5 59 -11l-20 -69q-30 4 -61 8q-26 3 -57 6t-57 3q-58 0 -98 -17.5t-67.5 -53t-46.5 -89t-36 -125.5 q-16 -71 -21.5 -123.5t6 -87.5t44 -52.5t91.5 -17.5q23 0 54 2.5t60 6.5q33 4 67 9z" />
<glyph unicode="D" horiz-adv-x="642" d="M90 0l160 696h247q75 0 118.5 -25t62.5 -69.5t16.5 -106.5t-19.5 -136q-17 -75 -43.5 -140t-66.5 -114t-96 -77t-132 -28h-247zM595 359q13 55 16.5 103t-7.5 84t-40.5 56.5t-83.5 20.5h-171l-127 -550h171q54 0 93.5 24t68.5 64t48 91.5t32 106.5z" />
<glyph unicode="E" horiz-adv-x="564" d="M509 0h-221q-47 0 -84 11t-60 34.5t-30 60.5t6 90q9 36 23.5 62t34 45t42.5 31.5t48 20.5q-33 20 -48 60t1 107q11 43 34.5 75.5t57.5 54.5t76 33t89 11h191l-17 -72h-195q-63 0 -104 -30t-55 -85q-14 -57 8.5 -90t84.5 -33h142l-18 -70h-142q-18 0 -44 -5t-51.5 -18 t-47 -37t-30.5 -61q-9 -34 -4.5 -57.5t19.5 -38.5t38.5 -21.5t53.5 -6.5h219z" />
<glyph unicode="F" horiz-adv-x="553" d="M250 696h421l-17 -73h-345l-62 -269h285l-17 -73h-285l-64 -281h-76z" />
<glyph unicode="G" horiz-adv-x="608" d="M438 358h189l-48 -204q-6 -28 -16.5 -53.5t-26.5 -46.5t-38 -35.5t-51 -19.5q-32 -5 -67.5 -7.5t-61.5 -2.5q-77 0 -122.5 25.5t-65.5 72.5t-17.5 113.5t21.5 149.5q19 84 47 150.5t69 112t97.5 69.5t133.5 24q38 0 77 -4t71 -9q37 -5 72 -12l-20 -69q-35 6 -71 10 q-31 4 -68 7t-69 3q-58 0 -100 -19t-72.5 -55.5t-51 -90.5t-36.5 -123t-20 -121.5t9.5 -88t46.5 -53.5t91 -18q20 0 43 1.5t43 3.5q12 2 23.5 7t21.5 16.5t19 30t16 47.5l28 121h-111z" />
<glyph unicode="H" horiz-adv-x="685" d="M591 314h-352l-72 -314h-77l160 696h77l-71 -308h352l71 308h76l-160 -696h-76z" />
<glyph unicode="I" horiz-adv-x="247" d="M245 696h77l-160 -696h-77z" />
<glyph unicode="J" horiz-adv-x="308" d="M382 697q-18 -80 -34.5 -151.5t-32.5 -142t-32.5 -142.5t-34.5 -152q-15 -62 -34.5 -98t-47 -54.5t-64.5 -23.5t-86 -5l17 72q33 0 55.5 3t38 14.5t26 35t20.5 65.5l133 579h76v0z" />
<glyph unicode="K" horiz-adv-x="595" d="M347 313q-23 -5 -48 -7t-48 -2h-7.5t-8.5 1l-68 -305h-77l159 695h77l-73 -318q48 0 83.5 10t67.5 32q68 38 119 110.5t77 165.5h86q-23 -62 -50.5 -118t-60.5 -102.5t-71.5 -82t-82.5 -56.5l126 -336h-85z" />
<glyph unicode="L" horiz-adv-x="513" d="M90 0l160 696h77l-143 -622h304l-17 -74h-381z" />
<glyph unicode="M" horiz-adv-x="850" d="M223 580q12 53 39 84.5t65 31.5h56l61 -589l275 489q27 45 59.5 72.5t75.5 27.5h65l-159 -696h-77l140 612q-8 0 -20.5 -11t-20.5 -28l-261 -460q-26 -47 -49 -67.5t-49 -21.5h-38l-63 588q-8 0 -14.5 -13t-10.5 -31l-130 -568h-77z" />
<glyph unicode="N" horiz-adv-x="693" d="M91 0q33 148 66.5 294t67.5 294l22 108l84 -1q22 0 36 -7.5t22 -20t12.5 -29.5t8.5 -36l98 -484q4 -18 13 -29t17 -11h2l144 617h78l-160 -695h-63q-38 0 -63 25t-36 70l-101 490q-4 17 -13 21.5t-18 2.5l-140 -609h-77v0z" />
<glyph unicode="O" horiz-adv-x="651" d="M340 63q60 0 102 17t71 52t49 87.5t37 124.5q16 69 20 123t-9 90.5t-46 56t-92 19.5q-60 0 -102 -19t-72 -56t-50.5 -91t-36.5 -123t-20.5 -122t8.5 -88t47 -53t94 -18zM323 -10q-81 0 -128.5 22.5t-68.5 67.5t-18 111t23 153q20 86 48 153.5t70 114t100.5 70.5t138.5 24 t127.5 -24t68 -70.5t17.5 -113.5t-23 -154q-21 -89 -49 -155.5t-69 -110.5t-99 -66t-138 -22z" />
<glyph unicode="P" horiz-adv-x="606" d="M220 233l-53 -233h-77l160 696h253q114 0 155 -54.5t15 -168.5t-94.5 -177t-182.5 -63h-176zM412 307q76 0 120 44t62 122q17 77 -8 113t-101 36h-175l-73 -315h175z" />
<glyph unicode="Q" horiz-adv-x="651" d="M338 61q58 0 99 18t70 54t49 89t36 124q10 44 16 80.5t6 68.5q0 67 -32.5 103t-110.5 36q-58 0 -99 -20t-71 -58t-50 -92.5t-36 -122.5q-10 -43 -16 -79.5t-6 -66.5q0 -66 32.5 -100t112.5 -34zM411 0q-19 -4 -42.5 -7t-46.5 -3q-57 0 -97 12.5t-65 37t-36 60t-11 81.5 q0 69 23 166q19 84 47 150.5t69 112.5t98.5 70.5t136.5 24.5q113 0 160 -52.5t47 -146.5q0 -37 -6 -78.5t-17 -89.5q-27 -118 -70.5 -197.5t-117.5 -117.5q9 -42 20.5 -72t25 -52.5t30.5 -38.5t37 -29q-11 -14 -21.5 -28.5t-21.5 -28.5q-41 18 -80 73.5t-62 152.5z" />
<glyph unicode="R" horiz-adv-x="624" d="M423 263h-196l-60 -263h-77l160 696h256q112 0 155 -49.5t17 -162.5q-18 -81 -59.5 -131t-113.5 -70l68 -283h-85zM599 484q17 72 -10 105.5t-100 33.5h-179l-66 -287h180q79 0 119.5 40.5t55.5 107.5z" />
<glyph unicode="S" horiz-adv-x="534" d="M612 617q-35 5 -70 9q-30 3 -64.5 6t-63.5 3q-32 0 -62.5 -10t-54 -27.5t-38 -41.5t-14.5 -51q0 -29 21.5 -49.5t54 -38.5t70 -35t70 -40t54 -54t21.5 -76q0 -37 -14.5 -76.5t-46.5 -72t-82.5 -53.5t-122.5 -21q-27 0 -62 3t-67 6.5t-55 7t-27 4.5l20 70q7 -1 32.5 -4 t57 -6.5t64 -6t53.5 -2.5q25 0 55 10t56 28.5t43 46t17 63.5q0 33 -21.5 56t-53.5 41.5t-70 35.5t-70 39t-53.5 51.5t-21.5 72.5q0 44 18 81t53 64t86 42t117 15q25 0 56 -3t59 -7t49 -7.5t27 -3.5z" />
<glyph unicode="T" horiz-adv-x="492" d="M156 696h500l-17 -74h-211l-143 -622h-76l143 622h-213z" />
<glyph unicode="U" horiz-adv-x="640" d="M203 210q-9 -41 -4 -68.5t22.5 -44.5t45.5 -24.5t65 -7.5q78 0 130.5 31.5t71.5 113.5l112 486h76l-112 -486q-14 -59 -39.5 -101t-63 -68t-86 -38t-107.5 -12q-57 0 -98.5 12t-66 38t-31 67.5t7.5 101.5l112 486h77l-112 -486v0z" />
<glyph unicode="V" horiz-adv-x="593" d="M722 696l-275 -568q-27 -58 -71 -92.5t-98 -35.5h-66l-23 696h76l17 -623q26 2 50.5 21t40.5 51l265 551h84z" />
<glyph unicode="W" horiz-adv-x="900" d="M273 695l-16 -625q28 0 49 47l212 476q8 17 15.5 33.5t17 29.5t21.5 21t29 8h46l-5 -615q15 3 27 14t22 34l246 577h83l-258 -596q-24 -56 -56 -77.5t-72 -21.5h-59l7 582l-210 -484q-10 -21 -22 -38.5t-27 -31t-34 -21t-43 -7.5h-61l12 695h76z" />
<glyph unicode="X" horiz-adv-x="581" d="M379 404l240 292h92l-288 -351l128 -345h-82l-106 288l-241 -288h-92l289 345l-129 351h82z" />
<glyph unicode="Y" horiz-adv-x="552" d="M316 0h-77l69 299l-129 397h82l100 -312l242 312h90l-309 -398z" />
<glyph unicode="Z" horiz-adv-x="570" d="M221 696h438q2 -29 -10.5 -63t-50.5 -81l-397 -437q-15 -17 -21 -26.5t-5 -15.5h350l-17 -73h-443q-4 43 19 80.5t57 74.5l387 428q11 13 19 22t5 18h-348z" />
<glyph unicode="[" horiz-adv-x="300" d="M407 677h-134l-168 -728h134l-17 -72h-210l201 872h210z" />
<glyph unicode="\" horiz-adv-x="537" d="M375 -14l-148 692l84 34l148 -694z" />
<glyph unicode="]" horiz-adv-x="300" d="M213 749h210l-201 -872h-210l17 72h134l168 728h-134z" />
<glyph unicode="^" d="M397 586l-194 -261h-80l252 335h78l104 -335h-81z" />
<glyph unicode="_" horiz-adv-x="520" d="M451 -14l-16 -70h-428l16 70h428z" />
<glyph unicode="`" horiz-adv-x="236" d="M394 655l-38 -58l-200 86l41 66z" />
<glyph unicode="a" horiz-adv-x="522" d="M444 88q2 -24 17 -33t38 -12l-16 -53q-51 2 -73 19.5t-24 53.5q-9 -11 -25.5 -23.5t-38.5 -23.5t-48 -18.5t-53 -7.5q-48 0 -75 18t-38.5 51.5t-8.5 80.5t17 106q30 130 94 196.5t175 66.5q34 0 57 -5t36 -7l63 12zM233 59q25 0 51.5 10.5t49 24.5t39.5 28.5t22 22.5 l67 286q-13 2 -35 6t-52 4q-75 0 -124.5 -47t-72.5 -150q-21 -91 -9.5 -138t64.5 -47z" />
<glyph unicode="b" horiz-adv-x="536" d="M252 717h76l-62 -266q33 22 74.5 39t83.5 17q34 0 58 -11.5t39.5 -31t22.5 -47t7 -58.5q0 -78 -20.5 -146t-58 -118t-91 -78.5t-118.5 -28.5q-34 0 -81 3.5t-94 9.5zM410 433q-23 0 -48 -8.5t-48 -20.5t-41.5 -26t-28.5 -24l-65 -285q14 -4 40.5 -6.5t51.5 -2.5 q77 0 121.5 47.5t67.5 127.5q4 15 8.5 35.5t7 42.5t1 43.5t-8 38.5t-21 27.5t-37.5 10.5z" />
<glyph unicode="c" horiz-adv-x="437" d="M382 509q18 0 36.5 -2t35 -4.5t29 -5.5t18.5 -5l-20 -72q-5 2 -16 4.5t-26 5t-32.5 4t-33.5 1.5q-77 0 -121 -46.5t-67 -127.5q-7 -23 -12.5 -56.5t-2 -64t19 -52t50.5 -21.5q25 0 49.5 8t45 19t35.5 22.5t22 18.5l24 -53q-8 -11 -27.5 -27t-46 -30.5t-58.5 -24.5 t-63 -10q-34 0 -58 12t-39.5 32t-22.5 47.5t-7 58.5q0 78 20.5 145.5t58 117t91 78t118.5 28.5z" />
<glyph unicode="d" horiz-adv-x="538" d="M382 509q30 0 60 -4.5t47 -8.5l51 221h76l-165 -717h-75l15 59q-17 -13 -37.5 -25.5t-43 -22t-45.5 -15.5t-44 -6q-50 0 -78 24.5t-39 63t-8.5 86t13.5 93.5q13 55 37.5 101.5t59 80t79 52t97.5 18.5zM235 61q23 0 49.5 10.5t51.5 25t44.5 29.5t28.5 24q17 72 31.5 135 t29.5 135q-11 3 -40.5 7.5t-57.5 4.5q-76 0 -124.5 -51.5t-67.5 -132.5q-5 -23 -9.5 -55t-1 -61t18 -50t47.5 -21z" />
<glyph unicode="e" horiz-adv-x="504" d="M255 57q31 0 63.5 12.5t58.5 27.5q31 18 60 41q1 -18 1.5 -35.5t2.5 -36.5q-27 -21 -60 -38q-28 -14 -64 -26t-76 -12q-53 0 -85.5 17.5t-48.5 49.5t-16 77.5t13 102.5q16 70 45.5 121t66 84.5t78 50t81.5 16.5q46 0 77 -12t48.5 -32.5t22 -46.5t-1.5 -54 q-7 -28 -23.5 -58t-40.5 -53q-33 -31 -74.5 -49.5t-83 -28.5t-77 -13t-56.5 -3q-5 -19 -3 -37.5t12 -32.5t29.5 -23t50.5 -9zM176 227q30 0 72.5 6.5t83 22t72 41t40.5 63.5q8 34 -13 56.5t-69 22.5q-24 0 -51.5 -12t-53 -35.5t-46 -59t-31.5 -83.5q-2 -5 -2.5 -11t-1.5 -11 z" />
<glyph unicode="f" horiz-adv-x="334" d="M190 434h-61l15 66h61l10 45q12 50 27.5 85t37 56.5t49.5 31t63 9.5q13 0 28.5 -1t29.5 -3q16 -2 33 -3l-15 -64q-14 0 -27 1q-12 1 -25.5 1.5t-24.5 0.5q-42 0 -64 -26t-37 -89l-9 -44h143l-15 -66h-144l-98 -431q-11 -46 -25.5 -78.5t-38 -58t-60 -48t-90.5 -48.5 l-18 63q42 22 68.5 39t43.5 35.5t26.5 41.5t17.5 57z" />
<glyph unicode="g" horiz-adv-x="518" d="M250 63q20 0 45.5 9t48.5 20.5t39.5 22t18.5 13.5q18 78 34.5 154t35.5 153q-3 0 -13.5 1.5t-25 2.5t-30.5 2t-28 1q-81 0 -124.5 -52t-65.5 -149q-13 -55 -13 -94q0 -40 17.5 -62t60.5 -22zM69 -216l10 32t10 33q4 -2 15.5 -4t26.5 -4t31 -3.5t30 -1.5q46 0 79.5 19 t56 49.5t35.5 69t18 77.5q-5 -5 -18.5 -15t-32 -20.5t-41 -18t-46.5 -7.5q-78 0 -113 38.5t-35 109.5q0 23 4 50.5t11 57.5q30 130 95 196.5t183 66.5q15 0 32.5 -1t35.5 -2.5t34.5 -3t28.5 -2.5q15 0 26.5 0.5t17.5 1.5l-113 -484q-15 -64 -36.5 -111t-52 -78.5t-72 -47 t-96.5 -15.5q-19 0 -39 2t-37 5t-30 6t-18 5z" />
<glyph unicode="h" horiz-adv-x="565" d="M89 0l164 718h76l-66 -274q6 5 22.5 16t39.5 22t50.5 19.5t57.5 8.5q49 0 76.5 -15t38 -46t6.5 -77.5t-18 -110.5l-59 -261h-76l55 250q11 45 17 79t2 56.5t-20 34t-49 11.5q-26 0 -52 -9t-48 -20.5t-38.5 -23.5t-23.5 -18l-79 -360h-76z" />
<glyph unicode="i" horiz-adv-x="236" d="M196 500h74l-115 -500h-74zM242 700h74l-20 -87h-74z" />
<glyph unicode="j" horiz-adv-x="248" d="M208 500h74l-114 -495q-11 -46 -26 -79t-39.5 -59t-62 -49t-92.5 -48l-18 63q43 22 71 39t46 35.5t28.5 41.5t18.5 57zM255 704h74l-20 -88h-74z" />
<glyph unicode="k" horiz-adv-x="497" d="M88 0l165 718h76l-97 -418q51 0 91 17.5t71.5 46t54.5 64t40 72.5h85q-44 -94 -97 -155.5t-113 -88.5l103 -256h-82l-98 232q-35 -8 -72 -6l-51 -226h-76z" />
<glyph unicode="l" horiz-adv-x="242" d="M249 718h74l-165 -718h-74z" />
<glyph unicode="m" horiz-adv-x="857" d="M89 0l113 500h75l-16 -65q8 8 24.5 21t38 25t45 21t46.5 9q96 0 119 -76q15 11 34.5 24t42.5 24.5t50.5 19t59.5 7.5q46 0 74.5 -14.5t40.5 -44.5t10 -77t-17 -113l-59 -261h-76l56 248q10 47 15.5 82t1 57.5t-21 33.5t-50.5 11q-24 0 -48.5 -8.5t-45 -20t-36 -23.5 t-21.5 -19q-1 -13 -4 -39t-14 -72l-56 -250h-75l55 248q11 48 15 82.5t-2 57t-23.5 33.5t-48.5 11q-22 0 -45.5 -9.5t-44.5 -22.5t-37 -26t-22 -19l-78 -355h-75z" />
<glyph unicode="n" horiz-adv-x="564" d="M85 0l113 500h76l-15 -61q8 7 25.5 19.5t40.5 24t49.5 20t52.5 8.5q48 0 76 -15t39.5 -46t8 -78t-18.5 -111l-61 -261h-75l57 250q11 45 16.5 79.5t1.5 57t-19.5 34t-47.5 11.5q-26 0 -51.5 -9t-47.5 -21.5t-39.5 -25.5t-27.5 -21l-77 -355h-76z" />
<glyph unicode="o" horiz-adv-x="528" d="M389 510q83 0 119.5 -39t36.5 -110q0 -24 -4 -51t-11 -57q-15 -62 -36.5 -110.5t-54 -83t-78 -52.5t-107.5 -18q-86 0 -122 37t-36 108q0 52 17 125q15 61 37 107.5t55 78.5t78.5 48.5t105.5 16.5zM269 56q42 0 72.5 14.5t51.5 40.5t35.5 63.5t25.5 82.5q6 27 9.5 50 t3.5 43q0 46 -21.5 69.5t-70.5 23.5q-78 0 -120.5 -47t-64.5 -142q-8 -32 -12.5 -59.5t-4.5 -49.5q0 -45 21 -67t75 -22z" />
<glyph unicode="p" horiz-adv-x="542" d="M262 -12q-23 0 -51.5 4t-48.5 8l-52 -221h-76q42 180 83.5 359.5t83.5 361.5h76l-12 -50q32 23 74 40.5t84 17.5q50 0 79 -21t41 -56.5t9.5 -83t-14.5 -100.5q-13 -56 -38 -103.5t-60.5 -82t-80.5 -54t-97 -19.5zM409 432q-23 0 -48 -8.5t-48 -20.5t-41.5 -26t-28.5 -25 l-65 -278q14 -4 40.5 -7.5t52.5 -3.5q41 0 73 14t55.5 40t39.5 62.5t27 81.5q5 22 8 51.5t-1.5 56t-19 45t-44.5 18.5z" />
<glyph unicode="q" horiz-adv-x="537" d="M224 -10q-51 0 -79.5 23t-40.5 60.5t-9.5 84t13.5 94.5q12 55 36.5 101.5t59 80.5t78.5 53.5t96 19.5q42 0 85 -6t78 -6q7 0 12.5 0.5t10.5 0.5l-166 -717h-75q1 5 6 26.5t12 51.5t15 64t15 64t12 51.5t7 26.5q-15 -12 -35 -24.5t-42.5 -23.5t-45 -18t-43.5 -7zM377 434 q-44 0 -76 -14t-56 -40.5t-40.5 -65t-27.5 -87.5q-6 -26 -9 -54.5t1.5 -52.5t20 -39.5t46.5 -15.5q25 0 52.5 11t52 26t43 30t26.5 23l19 79l42 187q-10 3 -38.5 8t-55.5 5z" />
<glyph unicode="r" horiz-adv-x="356" d="M200 500h75l-20 -85q10 10 28 23.5t43 27t56.5 25.5t69.5 19l-18 -78q-78 -14 -124.5 -40t-72.5 -52l-78 -340h-74z" />
<glyph unicode="s" horiz-adv-x="489" d="M510 427q-31 3 -61 7q-26 3 -55.5 5.5t-52.5 2.5q-26 0 -49 -5.5t-40.5 -16t-28 -25.5t-10.5 -33q0 -20 18.5 -33.5t46 -25t59.5 -23t59.5 -27.5t46 -39t18.5 -56t-12.5 -63.5t-39 -53.5t-68 -36.5t-100.5 -13.5q-23 0 -52 2.5t-55.5 5.5t-46 5.5t-22.5 3.5l18 65 q4 -1 25 -3.5t48.5 -5.5t55.5 -5t45 -2q23 0 47 5.5t43.5 16.5t31.5 28t12 40t-18.5 38.5t-46.5 28t-60 24.5t-60 27.5t-46.5 36.5t-18.5 53q0 67 55.5 111t168.5 44q20 0 43 -2t45.5 -5t42.5 -6t32 -6z" />
<glyph unicode="t" horiz-adv-x="363" d="M272 432l-54 -233q-9 -41 -13.5 -68t-0.5 -42.5t16.5 -22t37.5 -6.5q11 0 26.5 0.5t29.5 1.5q17 1 35 3l-11 -65q-20 -3 -39 -6q-17 -2 -34.5 -3.5t-30.5 -1.5q-39 0 -63.5 8.5t-36 29t-10.5 56t13 89.5l60 260h-71l16 68h71l35 153h75l-35 -153h158l-16 -68h-158z" />
<glyph unicode="u" horiz-adv-x="559" d="M586 500l-115 -500h-74l11 53q-14 -10 -33.5 -21t-43 -20.5t-49.5 -15.5t-52 -6q-45 0 -71.5 14t-37 44t-6.5 77.5t19 113.5l60 261h74l-60 -260q-12 -52 -17.5 -85t-1 -52t20 -26.5t46.5 -7.5q25 0 51.5 7t50.5 17.5t42.5 22t27.5 20.5l84 364h74z" />
<glyph unicode="v" horiz-adv-x="482" d="M216 500l15 -434q17 0 30 9t24 31l198 394h82l-206 -406q-23 -48 -57 -70.5t-82 -23.5h-57l-23 500h76z" />
<glyph unicode="w" horiz-adv-x="757" d="M217 500l-2 -432q11 1 21.5 10.5t21.5 29.5l160 325q30 55 66 58h43l14 -423q24 6 39 34l182 398h79l-188 -407q-20 -41 -48 -67.5t-71 -25.5h-58l-9 391l-142 -294q-20 -45 -49 -71t-71 -26h-60l-1 500h73z" />
<glyph unicode="x" horiz-adv-x="460" d="M220 500l77 -196l167 196h85l-215 -250l100 -250h-79l-77 195l-166 -195h-85l213 250l-98 250h78z" />
<glyph unicode="y" horiz-adv-x="482" d="M212 500l17 -377q2 -28 12.5 -39.5t24.5 -13.5l222 430h79l-251 -490q-25 -48 -49 -81.5t-55.5 -60t-74.5 -49.5t-105 -49q-1 18 -0.5 36t-0.5 36q46 21 76.5 37t52.5 32.5t38 37t33 51.5q-27 9 -48 35t-23 63l-20 402h72z" />
<glyph unicode="z" horiz-adv-x="479" d="M174 500h359q2 -30 -12.5 -55.5t-38.5 -50.5l-317 -327h270l-15 -67h-356q-8 54 50 109l314 323h-271z" />
<glyph unicode="{" horiz-adv-x="307" d="M228 170q-8 -26 -18 -57.5t-16 -58.5q-6 -26 -6 -45.5t10 -33.5t30 -21.5t55 -9.5l-18 -72q-102 4 -137 44.5t-15 130.5q3 15 8.5 32t10.5 34t10 32t7 24q10 43 -6 68.5t-69 41.5l15 64q30 7 51.5 17t36 23t23.5 30t14 38q2 10 4.5 26.5t5.5 34.5t6 35.5t6 31.5 q11 46 29.5 78.5t46.5 53.5t67 31.5t90 12.5l-16 -72q-35 -2 -59 -9t-40 -20.5t-25 -33t-15 -45.5q-3 -12 -5.5 -29l-5 -34t-5 -33t-5.5 -27q-8 -32 -18.5 -54.5t-26 -38.5t-37 -27t-50.5 -20q50 -18 65.5 -49t1.5 -93z" />
<glyph unicode="|" d="M388 720h76l-196 -847h-76z" />
<glyph unicode="}" horiz-adv-x="307" d="M156 170q7 31 17.5 54t26.5 39.5t37.5 28t51.5 20.5q-26 9 -42.5 20t-24.5 27t-8.5 38.5t7.5 54.5q3 11 7.5 27t10 33t10 34t7.5 29q6 26 5.5 45.5t-10 33t-30 20.5t-54.5 9l18 72q101 -4 137 -44t14 -132q-3 -14 -8 -31.5t-10.5 -35.5t-10.5 -34.5t-7 -26.5 q-11 -43 4.5 -68.5t70.5 -39.5l-15 -64q-61 -16 -88 -41.5t-37 -68.5q-2 -9 -4.5 -24t-5.5 -32l-6 -34t-6 -32q-20 -89 -74.5 -130t-156.5 -45l16 72q34 2 58 9.5t39.5 21.5t25 33.5t15.5 45.5q6 27 10.5 58.5t9.5 57.5z" />
<glyph unicode="~" d="M536 305q-19 -15 -39 -26q-17 -10 -38 -18t-41 -8q-22 0 -46 8t-47.5 17t-45 17t-37.5 8t-35.5 -7.5t-36.5 -16.5q-20 -11 -40 -24l9 71q20 15 41 27q18 10 39.5 18.5t43.5 8.5t45.5 -8t46.5 -17t44 -17t38 -8q14 0 33 7t36 16q19 11 40 24z" />
<glyph unicode="&#xa1;" d="M400 385h-82l27 114h82zM265 -200h-81l110 467h77z" />
<glyph unicode="&#xa2;" horiz-adv-x="437" d="M226 36q-44 2 -75 13.5t-47.5 36t-18.5 64t12 98.5q25 111 83 161.5t144 55.5l27 118h66l-28 -121q16 -2 34 -3t32 -3q17 -2 33 -4l-19 -67q-26 1 -50 3q-20 2 -42 3t-36 1q-37 0 -64 -7.5t-46.5 -24.5t-32.5 -44.5t-22 -67.5q-9 -41 -9 -67.5t12 -42.5t37.5 -22.5 t66.5 -6.5q14 0 35.5 0.5t41.5 2.5q23 1 48 3l-12 -67l-36 -4q-16 -2 -34 -3.5t-34 -2.5l-27 -119h-66z" />
<glyph unicode="&#xa3;" d="M585 602q-23 2 -45 5q-19 2 -40 4t-36 2q-24 0 -41.5 -6t-30 -21.5t-22.5 -42t-19 -66.5l-14 -59h170l-15 -66h-170l-66 -286h154l79 16l-1 -64l-86 -18h-320l15 66h85l66 286h-67l15 66h67l15 64q14 61 33 99.5t44 60.5t55.5 30t66.5 8q17 0 38.5 -2.5t40.5 -4.5l44 -6z " />
<glyph unicode="&#xa4;" horiz-adv-x="529" d="M387 100q-52 -29 -106 -29t-92 29l-87 -70l-40 53l86 70q-19 45 -6.5 99t52.5 99l-54 70l65 53l54 -71q52 29 106 29t92 -29l86 71l41 -53l-87 -70q19 -45 6.5 -99t-52.5 -99l55 -70l-66 -53zM227 174q12 -16 30.5 -24t40 -8t43.5 8t42 24q19 16 32 36.5t17.5 41.5 t1.5 41.5t-15 36.5q-13 16 -31.5 23.5t-39.5 7.5t-43.5 -7.5t-41.5 -23.5q-20 -16 -32.5 -36.5t-17 -41.5t-1.5 -41.5t15 -36.5z" />
<glyph unicode="&#xa5;" horiz-adv-x="540" d="M134 380h140l-109 280h86l110 -270l232 270h86l-236 -280h136l-15 -65h-174l-12 -19l-15 -64h183l-15 -65h-183l-38 -167h-77l38 167h-185l15 65h185l15 64l-4 19h-178z" />
<glyph unicode="&#xa6;" d="M468 750l-89 -382h-75l89 382h75zM353 254l-88 -382h-75l88 382h75z" />
<glyph unicode="&#xa7;" d="M565 571q-31 3 -59 7q-24 3 -50 5.5t-44 2.5q-64 0 -98 -22t-45 -70q-6 -26 -1 -42.5t20 -27t40 -17t60 -13.5q39 -8 67 -17.5t44.5 -25.5t21 -40.5t-4.5 -61.5q-5 -21 -15 -42t-21.5 -39t-22 -31t-15.5 -19q14 -16 18.5 -37.5t-4.5 -62.5q-20 -86 -77 -127t-153 -41 q-24 0 -54 2.5t-56 5.5q-31 4 -61 9l21 63q31 -4 60 -8q25 -3 52.5 -5t48.5 -2q60 0 97 24t49 75q6 24 1 39t-20.5 24.5t-41.5 15.5t-62 13q-40 8 -69 18.5t-46.5 27t-22 41.5t3.5 62q5 22 17.5 43.5t26 38.5t26 28.5t17.5 15.5q-18 16 -23.5 41t5.5 70q19 81 78 120t151 39 q25 0 53 -3t52 -6q28 -4 55 -8zM344 332l-47.5 9.5t-39.5 12.5q-2 -2 -9 -10.5t-15.5 -21t-17 -27t-11.5 -29.5q-5 -23 -2 -38.5t14 -26t31 -17t48 -11.5q31 -6 55 -12.5t41 -14.5q2 2 8 11t13.5 22t14.5 29t11 32q5 24 1.5 39t-15.5 25t-32 16t-48 12z" />
<glyph unicode="&#xa8;" horiz-adv-x="236" d="M153 715h72l-21 -90h-72zM353 715h73l-21 -90h-73z" />
<glyph unicode="&#xa9;" d="M110 434q13 55 43 103.5t72.5 84.5t94 57t106.5 21q56 0 98.5 -21t68 -57.5t33 -85t-4.5 -102.5q-13 -55 -43 -103.5t-72 -84.5t-94 -56.5t-109 -20.5q-55 0 -96.5 20.5t-67.5 56.5t-34 84.5t5 103.5zM154 434q-11 -46 -4 -86t28 -70t55.5 -47.5t80.5 -17.5t89 17.5 t78 47.5t60 70t36 86q10 46 3.5 86.5t-28 70.5t-56 47.5t-80.5 17.5t-88.5 -17.5t-77.5 -47.5t-60.5 -70.5t-35.5 -86.5zM407 288l-24 -4q-11 -2 -25 -3t-28 -1q-67 0 -83 39.5t1 115.5q16 72 50.5 112t102.5 40q16 0 29.5 -1t23.5 -2q11 -2 21 -3l-15 -61q-11 1 -22 3 q-10 1 -23.5 2t-27.5 1q-38 0 -54 -25.5t-25 -65.5q-5 -20 -6.5 -37t2.5 -29.5t13.5 -19.5t26.5 -7q28 0 51 3q12 2 25 4z" />
<glyph unicode="&#xaa;" horiz-adv-x="518" d="M446 437q2 -12 9.5 -16.5t22.5 -6.5l-8 -28q-19 1 -29.5 6t-19.5 16q-20 -7 -41 -11q-18 -5 -40 -8t-43 -3q-31 0 -45.5 21.5t-6.5 58.5q16 70 93 76l103 7l6 23q8 33 -2.5 44t-37.5 11q-13 0 -30.5 -1t-34.5 -3q-19 -2 -40 -3l5 31q21 2 40 4q17 2 35.5 3t32.5 1 q43 0 58 -20t4 -68zM336 514q-26 -2 -39.5 -13.5t-18.5 -36.5q-6 -24 2 -35t27 -11q17 0 36 2.5t35 5.5q18 4 37 9l20 85z" />
<glyph unicode="&#xab;" horiz-adv-x="586" d="M212 250l100 -105l-18 -78l-154 151l14 60l222 143l-18 -77zM449 250l101 -105l-18 -78l-155 151l14 60l223 143l-18 -77z" />
<glyph unicode="&#xac;" d="M550 346l-53 -233h-74l37 161h-336l16 72h410z" />
<glyph unicode="&#xad;" horiz-adv-x="440" d="M137 318h312l-17 -74h-312z" />
<glyph unicode="&#xae;" d="M102 434q13 56 43 105.5t73 87t96.5 59t113.5 21.5q59 0 103 -21.5t70.5 -58.5t34.5 -86.5t-5 -106.5q-13 -56 -44 -105.5t-74.5 -87t-97.5 -59t-113 -21.5q-60 0 -103.5 21.5t-69.5 58.5t-33 87t6 106zM146 434q-11 -47 -4 -88.5t29 -73t58 -49.5t83 -18t91.5 18t81 49 t63 73t37.5 89q11 48 3.5 90t-30 73t-58.5 49t-82 18q-47 0 -91.5 -18t-81 -49t-62.5 -73t-37 -90zM360 395h-58l-28 -119h-57l73 315h105q61 0 84.5 -21t11.5 -74q-8 -37 -24 -59.5t-48 -34.5l28 -126h-62zM313 443h59q26 0 41 10.5t21 39.5q7 28 -5.5 39t-44.5 11h-48z " />
<glyph unicode="&#xaf;" horiz-adv-x="236" d="M139 700h291l-15 -66h-291z" />
<glyph unicode="&#xb0;" d="M232 564q7 31 23.5 57.5t39.5 45t51 29t60 10.5q63 0 93.5 -39.5t16.5 -102.5q-8 -32 -24 -57.5t-39.5 -44.5t-52 -29t-59.5 -10q-63 0 -93.5 39t-15.5 102zM283 564q-10 -42 8.5 -67t60.5 -25t73.5 25t41.5 67q9 42 -10.5 67.5t-61.5 25.5t-72.5 -25.5t-39.5 -67.5z" />
<glyph unicode="&#xb1;" d="M128 387h192l30 130h70l-30 -130h196l-16 -69h-196l-30 -130h-70l30 130h-192zM527 129l-16 -69h-458l16 69h458z" />
<glyph unicode="&#xb2;" horiz-adv-x="265" d="M132 478l13 56l108 86q29 23 47 41.5t23 41.5q5 20 -7 28t-34 8q-11 0 -25.5 -1.5t-28.5 -3.5q-16 -3 -32 -5l10 59q19 3 37 6q16 2 34 4t35 2q52 0 71 -22t8 -69q-8 -35 -30 -60.5t-58 -52.5l-75 -60h127l-13 -58h-210z" />
<glyph unicode="&#xb3;" horiz-adv-x="265" d="M211 790q18 2 36 5q16 2 33.5 3.5t34.5 1.5q54 0 75.5 -20t11.5 -64q-5 -18 -13 -31.5t-17 -22.5t-16.5 -14t-11.5 -7q10 -4 18 -9t12.5 -13.5t4.5 -21.5t-4 -32q-11 -50 -44.5 -73.5t-84.5 -23.5q-19 0 -38 1.5t-36 3.5q-19 2 -37 5l18 56q15 -2 32 -4q14 -2 31.5 -2.5 t34.5 -0.5q26 0 40 11t19 30q5 24 -6 33t-31 9h-66l13 54h65q14 0 28.5 12.5t19.5 31.5q4 17 -4 25t-33 8q-17 0 -33 -1t-30 -3q-16 -2 -30 -3l8 56v0z" />
<glyph unicode="&#xb4;" horiz-adv-x="268" d="M415 750l10 -70l-239 -86l-11 61z" />
<glyph unicode="&#xb6;" d="M531 639h-116l-147 -639h-67l76 332h-7q-40 0 -71 13.5t-50.5 37.5t-25.5 57.5t3 74.5q10 41 32 75t52.5 58.5t68 38t77.5 13.5h329l-14 -61h-73l-147 -639h-67z" />
<glyph unicode="&#xb7;" horiz-adv-x="248" d="M159 359h81l-26 -114h-81z" />
<glyph unicode="&#xb8;" horiz-adv-x="833" d="M533 -127q-11 -48 -42 -69t-73 -21q-17 0 -32.5 0.5t-26.5 2.5q-14 2 -25 4l14 48l22 -2q10 -1 21 -1h22q21 0 34.5 8.5t18.5 29.5q5 19 -5 26.5t-31 7.5h-42l22 94h41l-12 -50q56 0 80.5 -15t13.5 -63z" />
<glyph unicode="&#xb9;" horiz-adv-x="265" d="M314 790h60l-72 -312h-64l56 242l-79 -47l-19 47z" />
<glyph unicode="&#xba;" horiz-adv-x="526" d="M411 659q57 0 77.5 -32t3.5 -103q-16 -71 -51.5 -104.5t-92.5 -33.5t-78.5 33.5t-5.5 104.5q17 71 53.5 103t93.5 32zM355 418q43 0 66.5 24.5t36.5 81.5q14 57 1 80t-56 23t-67 -23t-38 -80q-13 -57 0.5 -81.5t56.5 -24.5z" />
<glyph unicode="&#xbb;" horiz-adv-x="586" d="M386 344l18 77l156 -143l-14 -60l-224 -151l18 78l148 105zM148 344l18 77l157 -143l-14 -60l-225 -151l18 78l149 105z" />
<glyph unicode="&#xbf;" horiz-adv-x="386" d="M0 -37q9 43 30.5 75t48.5 57.5t56.5 46.5t55 40t44 38.5t23.5 43.5l9 38h79l-9 -41q-8 -32 -27.5 -57.5t-45.5 -47t-55 -41t-55 -41t-46 -47t-27 -57.5q-14 -58 11.5 -81t96.5 -23q19 0 46.5 3.5t53.5 8.5q30 5 62 12l-8 -74q-34 -8 -67 -14q-28 -5 -57.5 -9t-49.5 -4 q-52 0 -89 9t-58.5 29.5t-27 54t5.5 81.5zM366 385h-82l27 114h82z" />
<glyph unicode="&#xc0;" horiz-adv-x="604" d="M322 580q26 53 66.5 85t98.5 31h60l29 -696h-74l-14 176h-286l-90 -176h-81zM236 247h253l-15 379q-26 0 -47 -20t-35 -49zM584 838l-38 -58l-200 86l41 66z" />
<glyph unicode="&#xc1;" horiz-adv-x="604" d="M322 580q26 53 66.5 85t98.5 31h60l29 -696h-74l-14 176h-286l-90 -176h-81zM236 247h253l-15 379q-26 0 -47 -20t-35 -49zM642 944l10 -70l-239 -86l-11 61z" />
<glyph unicode="&#xc2;" horiz-adv-x="604" d="M322 580q26 53 66.5 85t98.5 31h60l29 -696h-74l-14 176h-286l-90 -176h-81zM236 247h253l-15 379q-26 0 -47 -20t-35 -49zM468 923h60l92 -148h-83l-52 84l-93 -84h-83z" />
<glyph unicode="&#xc3;" horiz-adv-x="604" d="M322 580q26 53 66.5 85t98.5 31h60l29 -696h-74l-14 176h-286l-90 -176h-81zM236 247h253l-15 379q-26 0 -47 -20t-35 -49zM656 830q-16 -15 -34 -26q-15 -10 -32.5 -17.5t-32.5 -7.5q-17 0 -35.5 8t-37 17t-35 17t-28.5 8q-9 0 -23 -7t-28 -15q-16 -10 -33 -21l-4 57 q19 15 37 27q16 10 33.5 18.5t33.5 8.5q18 0 37.5 -7.5t37.5 -17t34 -17t27 -7.5q8 0 21 6t26 14q15 9 32 20z" />
<glyph unicode="&#xc4;" horiz-adv-x="604" d="M322 580q26 53 66.5 85t98.5 31h60l29 -696h-74l-14 176h-286l-90 -176h-81zM236 247h253l-15 379q-26 0 -47 -20t-35 -49zM363 837h72l-21 -90h-72zM563 837h73l-21 -90h-73z" />
<glyph unicode="&#xc5;" horiz-adv-x="604" d="M593 744q-10 -44 -42 -71l26 -672h-76l-13 174h-290l-90 -175h-77l337 670q-22 29 -12 74q12 51 52.5 78t91.5 27t78 -27t15 -78zM233 249h256l-16 376h-50zM417 744q-9 -38 23 -48h46q37 9 46 48q6 24 -6.5 37t-38.5 13q-27 0 -45.5 -13t-24.5 -37z" />
<glyph unicode="&#xc6;" horiz-adv-x="898" d="M469 175h-251l-99 -175h-79l384 696h585l-17 -73h-344l-53 -230h284l-17 -73h-284l-57 -247h344l-16 -73h-420zM256 249h230l86 374h-109z" />
<glyph unicode="&#xc7;" horiz-adv-x="537" d="M396 -127q-11 -48 -42 -69t-73 -21q-17 0 -32.5 0.5t-26.5 2.5q-14 2 -25 4l14 48l22 -2q10 -1 21 -1h22q21 0 34.5 8.5t18.5 29.5q5 19 -5 26.5t-31 7.5h-42l19 84q-67 4 -104 30t-51.5 71t-9 109t24.5 145q21 88 47 155.5t65 113t93 68.5t131 23q34 0 67.5 -3.5 t59.5 -8.5q31 -5 59 -11l-20 -69q-30 4 -61 8q-26 3 -57 6t-57 3q-58 0 -98 -17.5t-67.5 -53t-46.5 -89t-36 -125.5q-16 -71 -21.5 -123.5t6 -87.5t44 -52.5t91.5 -17.5q23 0 54 2.5t60 6.5q33 4 67 9l-13 -70q-30 -7 -63 -11q-28 -5 -61 -8t-62 -4l-9 -39q56 0 80.5 -15 t13.5 -63z" />
<glyph unicode="&#xc8;" horiz-adv-x="564" d="M509 0h-221q-47 0 -84 11t-60 34.5t-30 60.5t6 90q9 36 23.5 62t34 45t42.5 31.5t48 20.5q-33 20 -48 60t1 107q11 43 34.5 75.5t57.5 54.5t76 33t89 11h191l-17 -72h-195q-63 0 -104 -30t-55 -85q-14 -57 8.5 -90t84.5 -33h142l-18 -70h-142q-18 0 -44 -5t-51.5 -18 t-47 -37t-30.5 -61q-9 -34 -4.5 -57.5t19.5 -38.5t38.5 -21.5t53.5 -6.5h219zM587 825l-38 -58l-200 86l41 66z" />
<glyph unicode="&#xc9;" horiz-adv-x="564" d="M509 0h-221q-47 0 -84 11t-60 34.5t-30 60.5t6 90q9 36 23.5 62t34 45t42.5 31.5t48 20.5q-33 20 -48 60t1 107q11 43 34.5 75.5t57.5 54.5t76 33t89 11h191l-17 -72h-195q-63 0 -104 -30t-55 -85q-14 -57 8.5 -90t84.5 -33h142l-18 -70h-142q-18 0 -44 -5t-51.5 -18 t-47 -37t-30.5 -61q-9 -34 -4.5 -57.5t19.5 -38.5t38.5 -21.5t53.5 -6.5h219zM699 902l10 -70l-239 -86l-11 61z" />
<glyph unicode="&#xca;" horiz-adv-x="564" d="M509 0h-221q-47 0 -84 11t-60 34.5t-30 60.5t6 90q9 36 23.5 62t34 45t42.5 31.5t48 20.5q-33 20 -48 60t1 107q11 43 34.5 75.5t57.5 54.5t76 33t89 11h191l-17 -72h-195q-63 0 -104 -30t-55 -85q-14 -57 8.5 -90t84.5 -33h142l-18 -70h-142q-18 0 -44 -5t-51.5 -18 t-47 -37t-30.5 -61q-9 -34 -4.5 -57.5t19.5 -38.5t38.5 -21.5t53.5 -6.5h219zM514 927h60l92 -148h-83l-52 84l-93 -84h-83z" />
<glyph unicode="&#xcb;" horiz-adv-x="564" d="M509 0h-221q-47 0 -84 11t-60 34.5t-30 60.5t6 90q9 36 23.5 62t34 45t42.5 31.5t48 20.5q-33 20 -48 60t1 107q11 43 34.5 75.5t57.5 54.5t76 33t89 11h191l-17 -72h-195q-63 0 -104 -30t-55 -85q-14 -57 8.5 -90t84.5 -33h142l-18 -70h-142q-18 0 -44 -5t-51.5 -18 t-47 -37t-30.5 -61q-9 -34 -4.5 -57.5t19.5 -38.5t38.5 -21.5t53.5 -6.5h219zM399 890h72l-21 -90h-72zM599 890h73l-21 -90h-73z" />
<glyph unicode="&#xcc;" horiz-adv-x="247" d="M245 696h77l-160 -696h-77zM414 841l-40 -62l-201 87l44 69z" />
<glyph unicode="&#xcd;" horiz-adv-x="247" d="M245 696h77l-160 -696h-77zM445 940l10 -70l-239 -86l-11 61z" />
<glyph unicode="&#xce;" horiz-adv-x="247" d="M245 696h77l-160 -696h-77zM305 934h67l102 -135h-87l-62 75l-95 -75h-89z" />
<glyph unicode="&#xcf;" horiz-adv-x="247" d="M245 696h77l-160 -696h-77zM195 910h73l-21 -90h-73zM402 910h72l-21 -90h-72z" />
<glyph unicode="&#xd0;" horiz-adv-x="642" d="M109 379h68l73 317h247q75 0 118.5 -25t62.5 -69.5t16.5 -106.5t-19.5 -136q-17 -75 -43.5 -140t-66.5 -114t-96 -77t-132 -28h-247l70 306h-68zM595 359q13 55 16.5 103t-7.5 84t-40.5 56.5t-83.5 20.5h-171l-56 -244h152l-17 -73h-152l-54 -233h171q54 0 93.5 24 t68.5 64t48 91.5t32 106.5z" />
<glyph unicode="&#xd1;" horiz-adv-x="693" d="M91 0q33 148 66.5 294t67.5 294l22 108l84 -1q22 0 36 -7.5t22 -20t12.5 -29.5t8.5 -36l98 -484q4 -18 13 -29t17 -11h2l144 617h78l-160 -695h-63q-38 0 -63 25t-36 70l-101 490q-4 17 -13 21.5t-18 2.5l-140 -609h-77zM689 819q-16 -15 -34 -26q-15 -10 -32.5 -17.5 t-32.5 -7.5q-17 0 -35.5 8t-37 17t-35 17t-28.5 8q-9 0 -23 -7t-28 -15q-16 -10 -33 -21l-4 57q19 15 37 27q16 10 33.5 18.5t33.5 8.5q18 0 37.5 -7.5t37.5 -17t34 -17t27 -7.5q8 0 21 6t26 14q15 9 32 20z" />
<glyph unicode="&#xd2;" horiz-adv-x="656" d="M342 63q60 0 102 17t71 52t49 87.5t37 124.5q16 69 20 123t-9 90.5t-46 56t-92 19.5q-60 0 -102 -19t-72 -56t-50.5 -91t-36.5 -123t-20.5 -122t8.5 -88t47 -53t94 -18zM325 -10q-81 0 -128.5 22.5t-68.5 67.5t-18 111t23 153q20 86 48 153.5t70 114t100.5 70.5t138.5 24 t127.5 -24t68 -70.5t17.5 -113.5t-23 -154q-21 -89 -49 -155.5t-69 -110.5t-99 -66t-138 -22zM637 841l-40 -62l-201 87l44 69z" />
<glyph unicode="&#xd3;" horiz-adv-x="656" d="M342 63q60 0 102 17t71 52t49 87.5t37 124.5q16 69 20 123t-9 90.5t-46 56t-92 19.5q-60 0 -102 -19t-72 -56t-50.5 -91t-36.5 -123t-20.5 -122t8.5 -88t47 -53t94 -18zM325 -10q-81 0 -128.5 22.5t-68.5 67.5t-18 111t23 153q20 86 48 153.5t70 114t100.5 70.5t138.5 24 t127.5 -24t68 -70.5t17.5 -113.5t-23 -154q-21 -89 -49 -155.5t-69 -110.5t-99 -66t-138 -22zM637 950l11 -70l-240 -86l-11 61z" />
<glyph unicode="&#xd4;" horiz-adv-x="656" d="M342 63q60 0 102 17t71 52t49 87.5t37 124.5q16 69 20 123t-9 90.5t-46 56t-92 19.5q-60 0 -102 -19t-72 -56t-50.5 -91t-36.5 -123t-20.5 -122t8.5 -88t47 -53t94 -18zM325 -10q-81 0 -128.5 22.5t-68.5 67.5t-18 111t23 153q20 86 48 153.5t70 114t100.5 70.5t138.5 24 t127.5 -24t68 -70.5t17.5 -113.5t-23 -154q-21 -89 -49 -155.5t-69 -110.5t-99 -66t-138 -22zM515 940h60l91 -148h-83l-52 84l-93 -84h-83z" />
<glyph unicode="&#xd5;" horiz-adv-x="656" d="M342 63q60 0 102 17t71.5 52t49 87.5t36.5 124.5q16 69 20 123t-8.5 90.5t-46 56t-92.5 19.5q-60 0 -102 -19t-72 -56t-50.5 -91t-36.5 -123t-20.5 -122t8.5 -88t47 -53t94 -18zM325 -10q-81 0 -128.5 22.5t-68.5 67.5t-18 111t23 153q20 86 48 153.5t70 114t100.5 70.5 t138.5 24t127.5 -24t68 -70.5t18 -113.5t-22.5 -154q-21 -89 -49 -155.5t-69 -110.5t-99 -66t-139 -22zM678 852q-17 -15 -34 -26q-15 -10 -32 -17.5t-32 -7.5q-17 0 -36 8t-37 17t-34.5 17t-28.5 8q-9 0 -23 -7t-28 -15q-16 -10 -33 -21l-5 57q19 15 37 27q16 10 33.5 18.5 t33.5 8.5q18 0 37.5 -7.5t37.5 -17t34 -17t27 -7.5q8 0 21.5 6t26.5 14q15 9 31 20z" />
<glyph unicode="&#xd6;" horiz-adv-x="656" d="M342 63q60 0 102 17t71.5 52t49 87.5t36.5 124.5q16 69 20 123t-8.5 90.5t-46 56t-92.5 19.5q-60 0 -102 -19t-72 -56t-50.5 -91t-36.5 -123t-20.5 -122t8.5 -88t47 -53t94 -18zM325 -10q-81 0 -128.5 22.5t-68.5 67.5t-18 111t23 153q20 86 48 153.5t70 114t100.5 70.5 t138.5 24t127.5 -24t68 -70.5t18 -113.5t-22.5 -154q-21 -89 -49 -155.5t-69 -110.5t-99 -66t-139 -22zM399 915h72l-21 -90h-72zM600 915h72l-21 -90h-72z" />
<glyph unicode="&#xd7;" horiz-adv-x="712" d="M494 319l233 193l40 -48l-234 -195l144 -196l-61 -48l-145 194l-234 -194l-39 48l236 196l-143 195l61 48z" />
<glyph unicode="&#xd8;" horiz-adv-x="651" d="M323 -10q-34 0 -61 4t-50 12l-87 -124l-61 30l90 128q-43 42 -46 118t23 186q20 86 48 153.5t70 114t100.5 70.5t138.5 24q68 0 117 -19l79 114l64 -27l-88 -126q39 -45 40.5 -121.5t-22.5 -182.5q-21 -89 -49 -155.5t-69 -110.5t-99 -66t-138 -22zM211 344 q-18 -79 -21 -135.5t18 -91.5l348 500q-32 16 -84 16q-60 0 -102 -19t-72 -56t-50.5 -91t-36.5 -123zM340 63q60 0 102 17t71 52t49 87.5t37 124.5q17 75 20.5 131.5t-14.5 93.5l-345 -494q31 -12 80 -12z" />
<glyph unicode="&#xd9;" horiz-adv-x="640" d="M203 210q-9 -41 -4 -68.5t22.5 -44.5t45.5 -24.5t65 -7.5q78 0 130.5 31.5t71.5 113.5l112 486h76l-112 -486q-14 -59 -39.5 -101t-63 -68t-86 -38t-107.5 -12q-57 0 -98.5 12t-66 38t-31 67.5t7.5 101.5l112 486h77zM569 841l-40 -62l-201 87l44 69z" />
<glyph unicode="&#xda;" horiz-adv-x="642" d="M205 210q-9 -41 -4 -68.5t22.5 -44.5t45.5 -24.5t65 -7.5q78 0 130.5 31.5t71.5 113.5l112 486h76l-112 -486q-14 -59 -39.5 -101t-63 -68t-86 -38t-107.5 -12q-57 0 -98.5 12t-66 38t-31 67.5t7.5 101.5l112 486h77zM632 950l11 -70l-240 -86l-11 61z" />
<glyph unicode="&#xdb;" horiz-adv-x="642" d="M205 210q-9 -41 -4 -68.5t22.5 -44.5t45.5 -24.5t65 -7.5q78 0 130.5 31.5t71.5 113.5l112 486h76l-112 -486q-14 -59 -39.5 -101t-63 -68t-86 -38t-107.5 -12q-57 0 -98.5 12t-66 38t-31 67.5t7.5 101.5l112 486h77zM510 940h60l91 -148h-83l-52 84l-93 -84h-83z" />
<glyph unicode="&#xdc;" horiz-adv-x="642" d="M205 210q-9 -41 -4 -68.5t22.5 -44.5t45.5 -24.5t65 -7.5q78 0 130.5 31.5t71.5 113.5l112 486h76l-112 -486q-14 -59 -39.5 -101t-63 -68t-86 -38t-107.5 -12q-57 0 -98.5 12t-66 38t-31 67.5t7.5 101.5l112 486h77zM388 897h72l-21 -90h-72zM588 897h73l-21 -90h-73z " />
<glyph unicode="&#xdd;" horiz-adv-x="540" d="M310 0h-77l69 299l-129 397h86l100 -312l242 312h86l-309 -398zM573 950l11 -70l-240 -86l-11 61z" />
<glyph unicode="&#xde;" horiz-adv-x="581" d="M368 195q75 0 119.5 44.5t62.5 121.5q18 78 -8.5 113.5t-101.5 35.5h-176l-72 -315h176zM174 121l-27 -121h-76l160 696h76l-26 -112h177q114 0 155 -54.5t15 -168.5t-94.5 -177t-182.5 -63h-177z" />
<glyph unicode="&#xdf;" horiz-adv-x="605" d="M87 0l125 545q12 51 32 86t49 56.5t68 30.5t90 9q106 0 142.5 -33t18.5 -110q-11 -50 -37 -81t-68 -47q-22 -8 -36 -14t-22.5 -11t-12.5 -10.5t-5 -12.5q-2 -6 -1 -11t8.5 -12.5t22.5 -18t42 -27.5q30 -19 51 -33.5t33.5 -28.5t16.5 -30t-1 -37q-14 -60 -34.5 -102 t-53.5 -68t-81.5 -37.5t-119.5 -11.5q-13 0 -28.5 2t-29.5 4q-17 3 -33 6l19 62q20 -1 38 -2q15 -1 29.5 -1.5t21.5 -0.5q51 0 84 8t54 25.5t33 44t21 63.5q2 7 -1 14.5t-13.5 17t-29 22t-46.5 29.5q-31 17 -49 31t-27 27t-9.5 27t3.5 32q9 38 34 58t71 38q22 8 35.5 17 t21.5 19t12.5 21.5t7.5 24.5q11 45 -11.5 62t-85.5 17q-30 0 -54 -5t-42.5 -19t-31.5 -38t-22 -61l-123 -536h-76z" />
<glyph unicode="&#xe0;" horiz-adv-x="522" d="M444 88q2 -24 17 -33t38 -12l-16 -53q-51 2 -73 19.5t-24 53.5q-9 -11 -25.5 -23.5t-38.5 -23.5t-48 -18.5t-53 -7.5q-48 0 -75 18t-38.5 51.5t-8.5 80.5t17 106q30 130 94 196.5t175 66.5q34 0 57 -5t36 -7l63 12zM233 59q25 0 51.5 10.5t49 24.5t39.5 28.5t22 22.5 l67 286q-13 2 -35 6t-52 4q-75 0 -124.5 -47t-72.5 -150q-21 -91 -9.5 -138t64.5 -47zM498 640l-38 -58l-200 86l41 66z" />
<glyph unicode="&#xe1;" horiz-adv-x="522" d="M444 88q2 -24 17 -33t38 -12l-16 -53q-51 2 -73 19.5t-24 53.5q-9 -11 -25.5 -23.5t-38.5 -23.5t-48 -18.5t-53 -7.5q-48 0 -75 18t-38.5 51.5t-8.5 80.5t17 106q30 130 94 196.5t175 66.5q34 0 57 -5t36 -7l63 12zM233 59q25 0 51.5 10.5t49 24.5t39.5 28.5t22 22.5 l67 286q-13 2 -35 6t-52 4q-75 0 -124.5 -47t-72.5 -150q-21 -91 -9.5 -138t64.5 -47zM580 740l10 -70l-239 -86l-11 61z" />
<glyph unicode="&#xe2;" horiz-adv-x="522" d="M444 88q2 -24 17 -33t38 -12l-16 -53q-51 2 -73 19.5t-24 53.5q-9 -11 -25.5 -23.5t-38.5 -23.5t-48 -18.5t-53 -7.5q-48 0 -75 18t-38.5 51.5t-8.5 80.5t17 106q30 130 94 196.5t175 66.5q34 0 57 -5t36 -7l63 12zM233 59q25 0 51.5 10.5t49 24.5t39.5 28.5t22 22.5 l67 286q-13 2 -35 6t-52 4q-75 0 -124.5 -47t-72.5 -150q-21 -91 -9.5 -138t64.5 -47zM402 732h60l92 -148h-83l-52 84l-93 -84h-83z" />
<glyph unicode="&#xe3;" horiz-adv-x="522" d="M444 88q2 -24 17 -33t38 -12l-16 -53q-51 2 -73 19.5t-24 53.5q-9 -11 -25.5 -23.5t-38.5 -23.5t-48 -18.5t-53 -7.5q-48 0 -75 18t-38.5 51.5t-8.5 80.5t17 106q30 130 94 196.5t175 66.5q34 0 57 -5t36 -7l63 12zM233 59q25 0 51.5 10.5t49 24.5t39.5 28.5t22 22.5 l67 286q-13 2 -35 6t-52 4q-75 0 -124.5 -47t-72.5 -150q-21 -91 -9.5 -138t64.5 -47zM590 655q-16 -15 -34 -26q-15 -10 -32.5 -17.5t-32.5 -7.5q-17 0 -35.5 8t-37 17t-35 17t-28.5 8q-9 0 -23 -7t-28 -15q-16 -10 -33 -21l-4 57q19 15 37 27q16 10 33.5 18.5t33.5 8.5 q18 0 37.5 -7.5t37.5 -17t34 -17t27 -7.5q8 0 21 6t26 14q15 9 32 20z" />
<glyph unicode="&#xe4;" horiz-adv-x="522" d="M444 88q2 -24 17 -33t38 -12l-16 -53q-51 2 -73 19.5t-24 53.5q-9 -11 -25.5 -23.5t-38.5 -23.5t-48 -18.5t-53 -7.5q-48 0 -75 18t-38.5 51.5t-8.5 80.5t17 106q30 130 94 196.5t175 66.5q34 0 57 -5t36 -7l63 12zM233 59q25 0 51.5 10.5t49 24.5t39.5 28.5t22 22.5 l67 286q-13 2 -35 6t-52 4q-75 0 -124.5 -47t-72.5 -150q-21 -91 -9.5 -138t64.5 -47zM287 715h72l-21 -90h-72zM487 715h73l-21 -90h-73z" />
<glyph unicode="&#xe5;" horiz-adv-x="522" d="M444 88q2 -24 17 -33t38 -12l-16 -53q-51 2 -73 19.5t-24 53.5q-9 -11 -25.5 -23.5t-38.5 -23.5t-48 -18.5t-53 -7.5q-48 0 -75 18t-38.5 51.5t-8.5 80.5t17 106q30 130 94 196.5t175 66.5q34 0 57 -5t36 -7l63 12zM233 59q25 0 51.5 10.5t49 24.5t39.5 28.5t22 22.5 l67 286q-13 2 -35 6t-52 4q-75 0 -124.5 -47t-72.5 -150q-21 -91 -9.5 -138t64.5 -47zM333 683q11 44 47 74t81 30q22 0 39 -8t27.5 -22t14 -33t-1.5 -41t-17 -41t-29.5 -33t-38 -22t-42.5 -8q-45 0 -67.5 29.5t-12.5 74.5zM388 683q-5 -21 6 -36t32 -15t38 15t22 36 q5 20 -5.5 35t-31.5 15t-38.5 -15t-22.5 -35z" />
<glyph unicode="&#xe6;" horiz-adv-x="828" d="M583 58q28 0 60 1t60 3q33 2 65 5l-12 -61q-35 -4 -69 -8q-29 -3 -64 -5.5t-65 -2.5q-52 0 -84.5 14t-49.5 40l-36 -14q-6 -2 -24.5 -8.5t-45.5 -13.5t-61 -12.5t-70 -5.5q-67 0 -92 39t-8 114q9 42 26 69t43 43.5t62 25t83 13.5l132 12l10 41q11 48 -6 69.5t-59 21.5 q-28 0 -62 -1.5t-63 -3.5q-34 -3 -69 -5l14 67q36 3 71 7q30 3 64.5 5.5t63.5 2.5q103 0 118 -73q36 40 79.5 56.5t93.5 16.5q100 0 138 -55.5t10 -178.5l-17 -58h-331q-18 -79 1.5 -119.5t93.5 -40.5zM213 55q27 0 58 5t58.5 11.5t47.5 12.5t24 8q-4 30 1 68.5t16 84.5 l-150 -12q-45 -4 -70 -24.5t-35 -63.5q-11 -45 2.5 -67.5t47.5 -22.5zM762 279q21 90 -1 127t-88 37q-65 0 -108 -38t-63 -126h260z" />
<glyph unicode="&#xe7;" horiz-adv-x="437" d="M383 509q18 0 36.5 -2t35 -4.5t29 -5.5t18.5 -5l-20 -68q-5 2 -16.5 4.5t-26.5 5t-32 4t-33 1.5q-38 0 -68 -13t-53 -36t-39.5 -56t-27.5 -73q-8 -26 -13 -54t-5 -54q0 -20 2.5 -37.5t10 -30t20.5 -19.5t33 -7q25 0 50.5 9t47.5 21.5t38 25.5t23 20l24 -53 q-6 -10 -21.5 -23t-37 -26t-47 -23.5t-52.5 -15.5l-10 -43q56 0 80.5 -15t13.5 -63t-42 -69t-73 -21q-17 0 -32.5 0.5t-26.5 2.5q-14 2 -25 4l14 48l22 -2q10 -1 21 -1h22q21 0 34.5 8.5t18.5 29.5q5 19 -5 26.5t-31 7.5h-42l19 83q-33 1 -56 13t-37.5 32.5t-21.5 47 t-7 57.5q0 78 20.5 145.5t58 117t91 78t118.5 28.5z" />
<glyph unicode="&#xe8;" horiz-adv-x="504" d="M255 57q31 0 63.5 12.5t58.5 27.5q31 18 60 41q1 -18 1.5 -35.5t2.5 -36.5q-27 -21 -60 -38q-28 -14 -64 -26t-76 -12q-53 0 -85.5 17.5t-48.5 49.5t-16 77.5t13 102.5q16 70 45.5 121t66 84.5t78 50t81.5 16.5q46 0 77 -12t48.5 -32.5t22 -46.5t-1.5 -54 q-7 -28 -23.5 -58t-40.5 -53q-33 -31 -74.5 -49.5t-83 -28.5t-77 -13t-56.5 -3q-5 -19 -3 -37.5t12 -32.5t29.5 -23t50.5 -9zM176 227q30 0 72.5 6.5t83 22t72 41t40.5 63.5q8 34 -13 56.5t-69 22.5q-24 0 -51.5 -12t-53 -35.5t-46 -59t-31.5 -83.5q-2 -5 -2.5 -11t-1.5 -11 zM494 636l-38 -58l-200 86l41 66z" />
<glyph unicode="&#xe9;" horiz-adv-x="504" d="M255 57q31 0 63.5 12.5t58.5 27.5q31 18 60 41q1 -18 1.5 -35.5t2.5 -36.5q-27 -21 -60 -38q-28 -14 -64 -26t-76 -12q-53 0 -85.5 17.5t-48.5 49.5t-16 77.5t13 102.5q16 70 45.5 121t66 84.5t78 50t81.5 16.5q46 0 77 -12t48.5 -32.5t22 -46.5t-1.5 -54 q-7 -28 -23.5 -58t-40.5 -53q-33 -31 -74.5 -49.5t-83 -28.5t-77 -13t-56.5 -3q-5 -19 -3 -37.5t12 -32.5t29.5 -23t50.5 -9zM176 227q30 0 72.5 6.5t83 22t72 41t40.5 63.5q8 34 -13 56.5t-69 22.5q-24 0 -51.5 -12t-53 -35.5t-46 -59t-31.5 -83.5q-2 -5 -2.5 -11t-1.5 -11 zM527 739l10 -70l-239 -86l-11 61z" />
<glyph unicode="&#xea;" horiz-adv-x="504" d="M255 57q31 0 63.5 12.5t58.5 27.5q31 18 60 41q1 -18 1.5 -35.5t2.5 -36.5q-27 -21 -60 -38q-28 -14 -64 -26t-76 -12q-53 0 -85.5 17.5t-48.5 49.5t-16 77.5t13 102.5q16 70 45.5 121t66 84.5t78 50t81.5 16.5q46 0 77 -12t48.5 -32.5t22 -46.5t-1.5 -54 q-7 -28 -23.5 -58t-40.5 -53q-33 -31 -74.5 -49.5t-83 -28.5t-77 -13t-56.5 -3q-5 -19 -3 -37.5t12 -32.5t29.5 -23t50.5 -9zM176 227q30 0 72.5 6.5t83 22t72 41t40.5 63.5q8 34 -13 56.5t-69 22.5q-24 0 -51.5 -12t-53 -35.5t-46 -59t-31.5 -83.5q-2 -5 -2.5 -11t-1.5 -11 zM387 723h60l92 -148h-83l-52 84l-93 -84h-83z" />
<glyph unicode="&#xeb;" horiz-adv-x="504" d="M255 57q31 0 63.5 12.5t58.5 27.5q31 18 60 41q1 -18 1.5 -35.5t2.5 -36.5q-27 -21 -60 -38q-28 -14 -64 -26t-76 -12q-53 0 -85.5 17.5t-48.5 49.5t-16 77.5t13 102.5q16 70 45.5 121t66 84.5t78 50t81.5 16.5q46 0 77 -12t48.5 -32.5t22 -46.5t-1.5 -54 q-7 -28 -23.5 -58t-40.5 -53q-33 -31 -74.5 -49.5t-83 -28.5t-77 -13t-56.5 -3q-5 -19 -3 -37.5t12 -32.5t29.5 -23t50.5 -9zM176 227q30 0 72.5 6.5t83 22t72 41t40.5 63.5q8 34 -13 56.5t-69 22.5q-24 0 -51.5 -12t-53 -35.5t-46 -59t-31.5 -83.5q-2 -5 -2.5 -11t-1.5 -11 zM304 719h72l-21 -90h-72zM504 719h73l-21 -90h-73z" />
<glyph unicode="&#xec;" horiz-adv-x="261" d="M210 500h74l-115 -500h-74zM400 655l-38 -58l-200 86l41 66z" />
<glyph unicode="&#xed;" horiz-adv-x="261" d="M425 750l10 -70l-239 -86l-11 61zM210 500h74l-115 -500h-74z" />
<glyph unicode="&#xee;" horiz-adv-x="264" d="M210 500h74l-115 -500h-74zM270 740h60l92 -148h-83l-52 84l-93 -84h-83z" />
<glyph unicode="&#xef;" horiz-adv-x="261" d="M157 715h72l-21 -90h-72zM357 715h72l-21 -90h-72zM210 500h74l-115 -500h-74z" />
<glyph unicode="&#xf0;" d="M253 567l97 60q-23 9 -48.5 17t-55.5 16l29 63q44 -10 82 -21.5t70 -26.5l116 71l23 -47l-88 -54q70 -48 95 -119t2 -174q-23 -97 -51.5 -165.5t-67 -112t-87 -63.5t-109.5 -20q-106 0 -150.5 59t-18.5 172q11 47 34.5 85.5t57.5 65.5t76 42t90 15q28 0 55.5 -5.5 t50.5 -12.5q26 -8 50 -17q11 63 -10 114t-90 91l-129 -80zM337 363q-32 0 -59.5 -11t-49 -29.5t-36.5 -44.5t-22 -56q-18 -76 8.5 -118.5t98.5 -42.5q40 0 71.5 13.5t57 45t46 82t38.5 125.5q-24 10 -50 18q-22 7 -49 12.5t-54 5.5z" />
<glyph unicode="&#xf1;" horiz-adv-x="573" d="M91 0l115 500h75l-8 -33q28 11 56 21q24 8 53 15t56 7q51 0 81 -13.5t42 -43.5t8 -77.5t-20 -115.5l-60 -260h-74l59 259q12 50 16 84.5t-2.5 56.5t-25 31.5t-52.5 9.5q-25 0 -51.5 -6t-48.5 -13q-26 -8 -51 -18l-93 -404h-75zM610 663q-17 -15 -34 -26 q-15 -10 -32 -17.5t-32 -7.5q-17 0 -36 8t-37.5 17t-35 17t-28.5 8q-9 0 -23 -7t-28 -15q-16 -10 -33 -21l-4 57q19 15 37 27q16 10 33.5 18.5t33.5 8.5q18 0 37.5 -7.5t37.5 -17t34 -17t27 -7.5q8 0 21.5 6t26.5 14q15 9 31 20z" />
<glyph unicode="&#xf2;" horiz-adv-x="528" d="M382 510q114 0 149 -63t5 -192q-15 -65 -36 -114.5t-52.5 -83t-77 -50.5t-108.5 -17t-101 16t-54.5 49t-15 83t17.5 119q15 64 37.5 112t55 79t77 46.5t103.5 15.5zM278 57q44 0 73.5 12.5t50 37t33.5 61.5t24 87q23 100 1.5 143.5t-93.5 43.5q-40 0 -69 -9.5t-50 -31.5 t-35.5 -57.5t-26.5 -86.5q-12 -53 -15.5 -90.5t5.5 -62t33.5 -36t68.5 -11.5zM535 655l-38 -58l-200 86l41 66z" />
<glyph unicode="&#xf3;" horiz-adv-x="528" d="M382 510q114 0 149 -63t5 -192q-15 -65 -36 -114.5t-52.5 -83t-77 -50.5t-108.5 -17t-101 16t-54.5 49t-15 83t17.5 119q15 64 37.5 112t55 79t77 46.5t103.5 15.5zM278 57q44 0 73.5 12.5t50 37t33.5 61.5t24 87q23 100 1.5 143.5t-93.5 43.5q-40 0 -69 -9.5t-50 -31.5 t-35.5 -57.5t-26.5 -86.5q-12 -53 -15.5 -90.5t5.5 -62t33.5 -36t68.5 -11.5zM537 750l10 -70l-239 -86l-11 61z" />
<glyph unicode="&#xf4;" horiz-adv-x="528" d="M382 510q114 0 149 -63t5 -192q-15 -65 -36 -114.5t-52.5 -83t-77 -50.5t-108.5 -17t-101 16t-54.5 49t-15 83t17.5 119q15 64 37.5 112t55 79t77 46.5t103.5 15.5zM278 57q44 0 73.5 12.5t50 37t33.5 61.5t24 87q23 100 1.5 143.5t-93.5 43.5q-40 0 -69 -9.5t-50 -31.5 t-35.5 -57.5t-26.5 -86.5q-12 -53 -15.5 -90.5t5.5 -62t33.5 -36t68.5 -11.5zM401 740h60l92 -148h-83l-52 84l-93 -84h-83z" />
<glyph unicode="&#xf5;" horiz-adv-x="528" d="M382 510q114 0 149 -63t5 -192q-15 -65 -36 -114.5t-52.5 -83t-77 -50.5t-108.5 -17t-101 16t-54.5 49t-15 83t17.5 119q15 64 37.5 112t55 79t77 46.5t103.5 15.5zM278 57q44 0 73.5 12.5t50 37t33.5 61.5t24 87q23 100 1.5 143.5t-93.5 43.5q-40 0 -69 -9.5t-50 -31.5 t-35.5 -57.5t-26.5 -86.5q-12 -53 -15.5 -90.5t5.5 -62t33.5 -36t68.5 -11.5zM578 663q-17 -15 -34 -26q-15 -10 -32 -17.5t-32 -7.5q-17 0 -36 8t-37.5 17t-35 17t-28.5 8q-9 0 -23 -7t-28 -15q-16 -10 -33 -21l-4 57q19 15 37 27q16 10 33.5 18.5t33.5 8.5q18 0 37.5 -7.5 t37.5 -17t34 -17t27 -7.5q8 0 21 6t26 14q15 9 32 20z" />
<glyph unicode="&#xf6;" horiz-adv-x="528" d="M382 510q114 0 149 -63t5 -192q-15 -65 -36 -114.5t-52.5 -83t-77 -50.5t-108.5 -17t-101 16t-54.5 49t-15 83t17.5 119q15 64 37.5 112t55 79t77 46.5t103.5 15.5zM278 57q44 0 73.5 12.5t50 37t33.5 61.5t24 87q23 100 1.5 143.5t-93.5 43.5q-40 0 -69 -9.5t-50 -31.5 t-35.5 -57.5t-26.5 -86.5q-12 -53 -15.5 -90.5t5.5 -62t33.5 -36t68.5 -11.5zM289 715h73l-21 -90h-73zM490 715h72l-21 -90h-72z" />
<glyph unicode="&#xf7;" horiz-adv-x="415" d="M146 296h255l-17 -75h-255zM202 152h77l-24 -101h-77zM275 468h77l-24 -101h-77z" />
<glyph unicode="&#xf8;" horiz-adv-x="528" d="M382 510q39 0 71 -8l66 104l47 -19l-68 -105q79 -54 38 -227q-15 -65 -36 -114.5t-52.5 -83t-77 -50.5t-108.5 -17q-41 0 -75 8l-69 -110l-46 18l69 110q-44 28 -49 87.5t17 153.5q15 64 37.5 112t55 79t77 46.5t103.5 15.5zM278 57q44 0 73.5 12.5t50 37t33.5 61.5 t24 87q27 116 -8 157l-224 -350q11 -3 23.5 -4t27.5 -1zM367 442q-40 0 -69 -9.5t-50 -31.5t-35.5 -57.5t-26.5 -86.5q-15 -66 -16.5 -108.5t18.5 -65.5l224 353q-20 6 -45 6z" />
<glyph unicode="&#xf9;" horiz-adv-x="559" d="M520 654l-43 -65l-198 91l45 69zM586 500l-115 -500h-74l7 32q-26 -12 -53 -21q-23 -8 -51 -14.5t-54 -6.5q-53 0 -82.5 13t-41.5 42t-7.5 77t20.5 117l60 261h74l-60 -260q-12 -52 -16.5 -87t1.5 -56.5t25 -30.5t54 -9q25 0 50.5 5.5t46.5 12.5q25 8 48 19l94 406h74z " />
<glyph unicode="&#xfa;" horiz-adv-x="559" d="M586 500l-115 -500h-74l7 32q-26 -12 -53 -21q-23 -8 -51 -14.5t-54 -6.5q-53 0 -82.5 13t-41.5 42t-7.5 77t20.5 117l60 261h74l-60 -260q-12 -52 -16.5 -87t1.5 -56.5t25 -30.5t54 -9q25 0 50.5 5.5t46.5 12.5q25 8 48 19l94 406h74zM550 750l10 -70l-239 -86l-11 61z " />
<glyph unicode="&#xfb;" horiz-adv-x="559" d="M586 500l-115 -500h-74l7 32q-26 -12 -53 -21q-23 -8 -51 -14.5t-54 -6.5q-53 0 -82.5 13t-41.5 42t-7.5 77t20.5 117l60 261h74l-60 -260q-12 -52 -16.5 -87t1.5 -56.5t25 -30.5t54 -9q25 0 50.5 5.5t46.5 12.5q25 8 48 19l94 406h74zM407 740h60l92 -148h-83l-52 84 l-93 -84h-83z" />
<glyph unicode="&#xfc;" horiz-adv-x="559" d="M586 500l-115 -500h-74l7 32q-26 -12 -53 -21q-23 -8 -51 -14.5t-54 -6.5q-53 0 -82.5 13t-41.5 42t-7.5 77t20.5 117l60 261h74l-60 -260q-12 -52 -16.5 -87t1.5 -56.5t25 -30.5t54 -9q25 0 50.5 5.5t46.5 12.5q25 8 48 19l94 406h74zM312 715h72l-21 -90h-72zM512 715 h73l-21 -90h-73z" />
<glyph unicode="&#xfd;" horiz-adv-x="482" d="M212 500l17 -377q2 -28 12.5 -39.5t24.5 -13.5l222 430h79l-251 -490q-25 -48 -49 -81.5t-55.5 -60t-74.5 -49.5t-105 -49q-1 18 -0.5 36t-0.5 36q46 21 76.5 37t52.5 32.5t38 37t33 51.5q-27 9 -48 35t-23 63l-20 402h72zM528 750l10 -70l-239 -86l-11 61z" />
<glyph unicode="&#xfe;" horiz-adv-x="538" d="M294 57q51 0 85.5 12t57 36.5t37 62t26.5 89.5q22 97 8 140.5t-79 43.5q-26 0 -51.5 -4.5t-46.5 -9.5q-25 -6 -48 -13l-81 -351q18 -2 36 -3q15 -2 30 -2.5t26 -0.5zM452 510q51 0 83 -14t46.5 -44.5t13 -78t-17.5 -114.5q-17 -74 -40 -125.5t-58 -83.5t-84 -46t-117 -14 q-23 0 -47 1.5t-45 3.5l-50 -217h-74l217 940h74l-55 -241q24 9 50 16q23 6 50 11.5t54 5.5z" />
<glyph unicode="&#xff;" horiz-adv-x="482" d="M212 500l17 -377q2 -28 12.5 -39.5t24.5 -13.5l222 430h79l-251 -490q-25 -48 -49 -81.5t-55.5 -60t-74.5 -49.5t-105 -49q-1 18 -0.5 36t-0.5 36q46 21 76.5 37t52.5 32.5t38 37t33 51.5q-27 9 -48 35t-23 63l-20 402h72zM244 703h72l-21 -90h-72zM444 703h73l-21 -90 h-73z" />
<glyph unicode="&#x152;" horiz-adv-x="944" d="M466 -1q-15 -2 -34.5 -3.5t-39 -2.5t-38 -2t-32.5 -1q-80 0 -126.5 22.5t-65.5 67t-15 111t24 154.5q21 91 49 158.5t69 112.5t97 67.5t133 22.5q14 0 32.5 -0.5t38 -2t37.5 -3.5t31 -4h414l-17 -74h-338l-53 -229h278l-17 -74h-278l-56 -245h338l-18 -75h-413zM349 65 q8 0 25 0.5t36.5 1.5t38.5 2.5t33 2.5l127 550q-13 1 -31.5 2.5t-37.5 3t-36 2.5t-26 1q-59 0 -100 -16.5t-70.5 -51.5t-50.5 -89t-38 -128q-17 -73 -21.5 -126t9 -87.5t47.5 -51t95 -16.5z" />
<glyph unicode="&#x153;" horiz-adv-x="876" d="M631 58q28 0 60.5 1t60.5 3q33 2 64 5l-12 -61q-35 -4 -69 -8q-29 -3 -64 -5.5t-65 -2.5q-63 0 -97 21t-47 62q-31 -43 -76.5 -63t-114.5 -20q-63 0 -101 16t-54.5 49t-15 83t17.5 119q15 64 37.5 112t55 79t77 46.5t103.5 15.5q66 0 104.5 -22.5t49.5 -71.5 q38 51 86.5 72.5t105.5 21.5q99 0 137 -55.5t10 -178.5l-17 -58h-331q-9 -39 -9 -69t11 -50.5t33.5 -30.5t59.5 -10zM287 57q44 0 73.5 12.5t50 37t33.5 61.5t24 87q23 100 1.5 143.5t-93.5 43.5q-40 0 -69 -9.5t-50 -31.5t-35.5 -57.5t-26.5 -86.5q-12 -53 -15.5 -90.5 t5.5 -62t33.5 -36t68.5 -11.5zM810 279q21 90 -1 127t-87 37t-108.5 -38.5t-63.5 -125.5h260z" />
<glyph unicode="&#x178;" horiz-adv-x="552" d="M316 0h-77l69 299l-129 397h86l100 -312l242 312h86l-309 -398zM345 910h73l-21 -90h-73zM552 910h72l-21 -90h-72z" />
<glyph unicode="&#x2c6;" horiz-adv-x="236" d="M270 740h60l92 -148h-77l-52 84l-93 -84h-89z" />
<glyph unicode="&#x2dc;" horiz-adv-x="236" d="M444 663q-16 -15 -34 -26q-15 -10 -32.5 -17.5t-32.5 -7.5q-17 0 -35.5 8t-37 17t-35 17t-28.5 8q-9 0 -23 -7t-28 -15q-16 -10 -33 -21l-4 57q19 15 37 27q16 10 33.5 18.5t33.5 8.5q18 0 37.5 -7.5t37.5 -17t34 -17t27 -7.5q8 0 21 6t26 14q15 9 32 20z" />
<glyph unicode="&#x2000;" horiz-adv-x="475" />
<glyph unicode="&#x2001;" horiz-adv-x="950" />
<glyph unicode="&#x2002;" horiz-adv-x="475" />
<glyph unicode="&#x2003;" horiz-adv-x="950" />
<glyph unicode="&#x2004;" horiz-adv-x="316" />
<glyph unicode="&#x2005;" horiz-adv-x="237" />
<glyph unicode="&#x2006;" horiz-adv-x="158" />
<glyph unicode="&#x2007;" horiz-adv-x="158" />
<glyph unicode="&#x2008;" horiz-adv-x="118" />
<glyph unicode="&#x2009;" horiz-adv-x="190" />
<glyph unicode="&#x200a;" horiz-adv-x="52" />
<glyph unicode="&#x2010;" horiz-adv-x="440" d="M137 318h312l-17 -74h-312z" />
<glyph unicode="&#x2011;" horiz-adv-x="440" d="M137 318h312l-17 -74h-312z" />
<glyph unicode="&#x2012;" horiz-adv-x="440" d="M137 318h312l-17 -74h-312z" />
<glyph unicode="&#x2013;" horiz-adv-x="500" d="M570 306l-16 -70h-500l16 70h500z" />
<glyph unicode="&#x2014;" horiz-adv-x="1000" d="M1070 306l-16 -70h-1000l16 70h1000z" />
<glyph unicode="&#x2018;" horiz-adv-x="170" d="M208 508h-77l102 219h68z" />
<glyph unicode="&#x2019;" horiz-adv-x="170" d="M250 746h77l-103 -219h-68z" />
<glyph unicode="&#x201a;" horiz-adv-x="192" d="M80 -103h-77l102 219h68z" />
<glyph unicode="&#x201c;" horiz-adv-x="381" d="M409 506h-77l103 219h68zM253 506h-77l103 219h68z" />
<glyph unicode="&#x201d;" horiz-adv-x="387" d="M279 725h77l-103 -219h-68zM435 725h77l-103 -219h-68z" />
<glyph unicode="&#x201e;" horiz-adv-x="366" d="M258 -103h-77l102 219h68zM80 -103h-77l102 219h68z" />
<glyph unicode="&#x2022;" d="M232 392h246l-66 -286h-246z" />
<glyph unicode="&#x2026;" horiz-adv-x="744" d="M112 114h81l-26 -114h-81zM366 114h82l-26 -114h-82zM621 114h81l-26 -114h-81z" />
<glyph unicode="&#x202f;" horiz-adv-x="190" />
<glyph unicode="&#x2039;" horiz-adv-x="311" d="M172 250l100 -105l-18 -78l-154 151l14 60l222 143l-18 -77z" />
<glyph unicode="&#x203a;" horiz-adv-x="311" d="M152 348l18 77l156 -143l-14 -60l-224 -151l18 78l149 105z" />
<glyph unicode="&#x205f;" horiz-adv-x="237" />
<glyph unicode="&#x20ac;" horiz-adv-x="555" d="M194 441q19 59 44.5 103t60.5 73t82 43.5t111 14.5q34 0 65.5 -3t55.5 -7q28 -4 52 -9l-19 -69q-27 3 -55 6q-24 2 -53 4.5t-55 2.5q-46 0 -79 -9.5t-57.5 -29.5t-41.5 -50t-31 -70l270 -1l-14 -61h-275l-22 -94l275 -1l-14 -61h-270q-5 -41 -1.5 -70.5t19.5 -49t45 -29 t75 -9.5q23 0 52 2t55 5q30 3 60 7l-13 -70q-29 -6 -61 -10q-27 -4 -59.5 -6.5t-61.5 -2.5q-65 0 -105.5 14.5t-62 43.5t-26 72.5t3.5 102.5h-63l14 62h59q2 11 4.5 22.5t5.5 23.5t5.5 24t6.5 24h-59l14 62h63z" />
<glyph unicode="&#x2122;" d="M152 630h200l-12 -50h-66l-57 -248h-55l57 248h-79zM383 630h71l19 -208l118 208h71l-69 -299h-52l52 224l-115 -209h-43l-17 209l-52 -224h-52z" />
<glyph unicode="&#xe000;" horiz-adv-x="500" d="M0 500h500v-500h-500v500z" />
</font>
</defs>
</svg>
