<?xml version="1.0" standalone="no"?>
<!DOCTYPE svg PUBLIC "-//W3C//DTD SVG 1.1//EN" "http://www.w3.org/Graphics/SVG/1.1/DTD/svg11.dtd" >
<svg xmlns="http://www.w3.org/2000/svg">
<metadata></metadata>
<defs>
<font id="materegular" horiz-adv-x="510" >
<font-face units-per-em="1000" ascent="800" descent="-200" />
<missing-glyph horiz-adv-x="235" />
<glyph horiz-adv-x="1000" />
<glyph horiz-adv-x="1000" />
<glyph unicode="&#xd;" horiz-adv-x="1000" />
<glyph unicode=" "  horiz-adv-x="235" />
<glyph unicode="&#x09;" horiz-adv-x="235" />
<glyph unicode="&#xa0;" horiz-adv-x="235" />
<glyph unicode="!" horiz-adv-x="257" d="M73 37q0 11 2 24t4 21l2 7q36 6 57 6q36 0 36 -50l-7 -49q-35 -8 -57 -8q-37 0 -37 49zM77 433l46 262h56l-42 -523h-33z" />
<glyph unicode="&#x22;" horiz-adv-x="300" d="M50 699q0 13 37 13q38 0 38 -13q0 -58 -7.5 -126.5t-15.5 -98.5h-27q-8 31 -16.5 100t-8.5 125zM175 699q0 13 37 13q38 0 38 -13q0 -58 -7.5 -126.5t-15.5 -98.5h-27q-8 31 -16.5 100t-8.5 125z" />
<glyph unicode="#" d="M2 168l20 57h104l36 105h-114l20 57h114l59 167h57l-59 -167h105l59 167h57l-59 -167h107l-20 -57h-107l-36 -105h117l-20 -57h-117l-59 -168h-57l59 168h-105l-59 -168h-57l59 168h-104zM183 225h105l36 105h-105z" />
<glyph unicode="$" d="M76 28q0 7 5.5 38t10.5 60l5 28q10 0 25.5 -4t15.5 -12v-73q30 -16 78 -23l14 206l-59 34q-41 23 -62 58t-21 73q0 56 44 99t119 49l5 66h40l-5 -66q65 -5 127 -37q-1 -7 -8 -38t-14 -60l-7 -28q-10 0 -25 4t-15 12l4 73q-27 16 -65 21l-14 -196l73 -41 q45 -25 69.5 -62.5t24.5 -73.5q0 -69 -52.5 -107.5t-136.5 -39.5l-5 -76h-40l5 78q-64 8 -136 38zM159 428q0 -50 54 -81l23 -13l12 174q-41 -4 -65 -24.5t-24 -55.5zM256 39q48 0 76 24.5t28 59.5q0 50 -52 80l-40 23z" />
<glyph unicode="%" horiz-adv-x="751" d="M30 469q0 81 41 126.5t103 45.5q60 0 99.5 -43t40.5 -124q0 -87 -40.5 -132.5t-106.5 -45.5q-61 0 -99 44t-38 129zM106 468q0 -67 15.5 -98.5t50.5 -31.5t50.5 31.5t15.5 98.5t-15.5 98.5t-50.5 31.5t-50.5 -31.5t-15.5 -98.5zM193 -56l307 741h59l-307 -741h-59z M437 161q0 81 41 126.5t103 45.5q60 0 99.5 -43t40.5 -124q0 -87 -40.5 -132.5t-106.5 -45.5q-61 0 -99 44t-38 129zM513 160q0 -67 15.5 -98.5t50.5 -31.5t50.5 31.5t15.5 98.5t-15.5 98.5t-50.5 31.5t-50.5 -31.5t-15.5 -98.5z" />
<glyph unicode="&#x26;" horiz-adv-x="580" d="M7 155q0 60 37.5 119t107.5 99l30 17q-49 80 -49 135q0 82 48.5 119t127.5 37q92 0 179 -40l-26 -149q-45 0 -45 14v104q-51 18 -98 18q-49 0 -89 -17q-20 -31 -20 -68q0 -52 39 -110l167 -257q52 79 55 152l-68 35q-5 3 -5 11q0 5 2.5 13t5 14t3.5 6q5 0 62.5 -17.5 t67.5 -22.5q-14 -123 -93 -236l50 -76l84 -24q0 -31 -16 -31h-128l-45 68q-83 -81 -183 -81q-96 0 -148.5 48t-52.5 120zM83 180q0 -56 35.5 -95.5t96.5 -39.5q79 0 148 66l-157 242l-37 -24q-42 -27 -64 -67t-22 -82z" />
<glyph unicode="'" horiz-adv-x="175" d="M50 699q0 13 37 13q38 0 38 -13q0 -58 -7.5 -126.5t-15.5 -98.5h-27q-8 31 -16.5 100t-8.5 125z" />
<glyph unicode="(" horiz-adv-x="247" d="M44 214q0 153 52 292t147 222l27 -12q-73 -85 -109 -223.5t-36 -278.5q0 -123 28.5 -248t75.5 -203l-31 -4q-74 81 -114 202.5t-40 252.5z" />
<glyph unicode=")" horiz-adv-x="247" d="M-23 -229q73 85 109 223.5t36 278.5q0 123 -28.5 248t-75.5 203l31 4q74 -81 114 -202.5t40 -252.5q0 -153 -52 -292t-147 -222z" />
<glyph unicode="*" horiz-adv-x="449" d="M39 546q0 16 9 42t20 26q13 0 66 -27.5t69 -41.5l-10 -29q-34 0 -94 8.5t-60 21.5zM89 399q0 2 1 3q22 30 55.5 63t51.5 44l25 -19q-5 -21 -25.5 -63t-41.5 -72q-2 -2 -5 -2q-14 0 -37.5 18t-23.5 28zM183 700q0 12 40 12t40 -12q0 -37 -8 -83t-16 -66h-30 q-9 21 -17.5 66.5t-8.5 82.5zM230 492l25 18q18 -11 52.5 -43.5t55.5 -61.5q0 -1 1 -1v-2q0 -11 -24 -29t-37 -18q-3 0 -5 2q-21 31 -42 73t-26 62zM247 548q16 14 69 41.5t66 27.5q11 0 20 -26t9 -42q0 -13 -60 -21.5t-94 -8.5z" />
<glyph unicode="+" d="M73 249v57h153v153h57v-153h154v-57h-154v-154h-57v154h-153z" />
<glyph unicode="," horiz-adv-x="197" d="M19 -113q39 12 60.5 38.5t21.5 59.5v4q-6 -1 -16 -1q-37 0 -37 61q0 14 2 30t4 25l2 10q30 7 59 7q21 0 33.5 -31t12.5 -78q0 -54 -37 -98t-96 -56z" />
<glyph unicode="-" horiz-adv-x="390" d="M50 279h283l7 -33q-53 -26 -173 -26q-62 0 -112 9z" />
<glyph unicode="." horiz-adv-x="197" d="M48 49q0 14 2 30t4 25l2 10q36 7 57 7q36 0 36 -62l-7 -62q-35 -9 -57 -9q-37 0 -37 61z" />
<glyph unicode="/" horiz-adv-x="327" d="M-30 -50l333 800h54l-333 -800h-54z" />
<glyph unicode="0" d="M29 277q0 135 65.5 210.5t164.5 75.5q96 0 159 -72t63 -206q0 -146 -64 -221.5t-170 -75.5q-97 0 -157.5 74t-60.5 215zM112 275q0 -238 143 -238t143 238t-143 238t-143 -238z" />
<glyph unicode="1" d="M100 518q0 1 51 12t105.5 22t62.5 11q18 -9 18 -31v-475l124 -24q0 -33 -16 -33l-161 4l-163 -4q-16 0 -16 33l154 24v442l-133 -33q-10 0 -18 21t-8 31z" />
<glyph unicode="2" d="M29 32l184 164q28 25 46 44t40 47t33 59t11 64q0 53 -31 78t-79 25q-53 0 -98 -26l4 -73q0 -8 -15 -12t-25 -4q-1 0 -7.5 28.5t-14 60t-7.5 37.5q68 39 165 39q80 0 136 -36t56 -112q0 -42 -15.5 -80.5t-48 -75.5t-61.5 -62.5t-77 -63.5l-115 -90l1 -4l287 25v78 q0 16 41 16q1 0 6.5 -32.5t11 -68t5.5 -43.5q-3 -14 -24 -14h-386z" />
<glyph unicode="3" d="M56 -29q1 10 14 68t15 58q10 0 24.5 -4t14.5 -12l-3 -73q49 -27 105 -27q62 0 105 32.5t43 91.5q0 56 -49.5 94t-134.5 39l-6 34q78 10 119.5 51.5t41.5 91.5q0 40 -28 69t-76 29q-51 0 -93 -26l4 -73q0 -8 -15 -12t-25 -4l-7 28q-7 29 -14 60t-8 38q73 39 162 39 q75 0 128.5 -35.5t53.5 -109.5q0 -50 -37 -91.5t-95 -62.5q74 -13 116.5 -57.5t42.5 -99.5q0 -79 -62.5 -127t-146.5 -48q-108 0 -189 39z" />
<glyph unicode="4" d="M15 105q0 14 41 113l162 398l73 -22l-207 -460h239v245q0 1 10.5 3t24 4t21.5 2q18 -9 18 -31v-223h99v-45h-99v-89l95 -23q0 -33 -15 -33q-1 0 -118 4l-136 -4q-15 0 -15 33l115 23v89h-280q-28 0 -28 16z" />
<glyph unicode="5" d="M55 -29q0 6 7.5 37.5t14 60t7.5 28.5q11 0 25.5 -4t14.5 -12l-4 -73q50 -27 106 -27q62 0 104.5 32.5t42.5 91.5q0 56 -49 94t-133 38q-28 0 -56 -5l-29 23l10 277l299 25q25 0 27 -14q0 -8 -5.5 -43.5t-11.5 -68t-7 -32.5q-40 0 -40 16v78h-198l-22 -205q10 1 29 1 q137 0 202 -52t65 -130q0 -79 -62.5 -127t-146.5 -48q-107 0 -190 39z" />
<glyph unicode="6" d="M49 220q0 75 26 141.5t75.5 122t107.5 100t136 89.5l27 -41q-216 -139 -268 -282h115q85 0 142.5 -45.5t57.5 -129.5q0 -85 -62 -136t-146 -51q-87 0 -149 59t-62 173zM134 233q0 -89 34.5 -141t88.5 -52q53 0 89.5 35.5t36.5 98.5q0 71 -33.5 99.5t-93.5 28.5 q-46 0 -119 -15q-3 -29 -3 -54z" />
<glyph unicode="7" d="M54 543q2 14 27 14l342 -20l18 27l28 -18l-256 -614l-80 19l264 542h-279v-78q0 -16 -40 -16q-1 0 -7 32.5t-11.5 68t-5.5 43.5z" />
<glyph unicode="8" d="M47 159q0 47 33 99.5t98 87.5q-109 66 -109 171q0 64 51 107.5t138 43.5q80 0 131.5 -44t51.5 -110q0 -43 -28.5 -90t-84.5 -79q62 -38 99.5 -82t37.5 -108q0 -70 -57.5 -118.5t-155.5 -48.5q-91 0 -148 48.5t-57 122.5zM131 164q0 -55 31 -91t91 -36q53 0 90 31.5 t37 83.5q0 67 -78 118l-84 51q-41 -32 -64 -75t-23 -82zM148 517q0 -64 88 -117l54 -32q35 28 53 66.5t18 74.5q0 47 -26.5 78.5t-77.5 31.5t-80 -28t-29 -74z" />
<glyph unicode="9" d="M48 377q0 83 62 134.5t144 51.5q88 0 151 -60.5t63 -176.5q0 -62 -19.5 -119.5t-49 -102t-76 -89.5t-90 -77.5t-101.5 -70.5l-30 36q207 155 256 295h-107q-87 0 -145 46.5t-58 132.5zM133 377q0 -137 134 -137q48 0 106 17q5 33 5 60q0 92 -31.5 143.5t-89.5 51.5 q-54 0 -89 -35.5t-35 -99.5z" />
<glyph unicode=":" horiz-adv-x="197" d="M48 49q0 14 2 30t4 25l2 10q36 7 57 7q36 0 36 -62l-7 -62q-35 -9 -57 -9q-37 0 -37 61zM48 345q0 14 2 30t4 25l2 10q36 7 57 7q36 0 36 -62l-7 -62q-35 -9 -57 -9q-37 0 -37 61z" />
<glyph unicode=";" horiz-adv-x="197" d="M19 -113q39 12 60.5 38.5t21.5 59.5v4q-6 -1 -16 -1q-37 0 -37 61q0 14 2 30t4 25l2 10q30 7 59 7q21 0 33.5 -31t12.5 -78q0 -54 -37 -98t-96 -56zM48 345q0 14 2 30t4 25l2 10q36 7 57 7q36 0 36 -62l-7 -62q-35 -9 -57 -9q-37 0 -37 61z" />
<glyph unicode="&#x3c;" d="M73 249v57l364 162v-60l-299 -131l299 -130v-60z" />
<glyph unicode="=" d="M73 168v57h364v-57h-364zM73 330v57h364v-57h-364z" />
<glyph unicode="&#x3e;" d="M73 87v60l299 130l-299 131v60l364 -162v-57z" />
<glyph unicode="?" horiz-adv-x="430" d="M53 656q60 15 116 15q91 0 149 -38.5t58 -105.5q0 -41 -27 -87t-60 -80t-60 -69.5t-27 -56.5v-50h-34q-8 69 -8 99q1 20 35.5 62.5t72 92t43.5 84.5q-1 50 -43.5 74.5t-99.5 24.5q-28 0 -47 -4v-101q0 -14 -42 -14zM133 37q0 11 2 24t4 21l2 7q36 6 57 6q36 0 36 -50 l-7 -49q-35 -8 -57 -8q-37 0 -37 49z" />
<glyph unicode="@" horiz-adv-x="882" d="M50 118q0 118 62.5 227t173 178t237.5 69q139 0 224 -77.5t85 -213.5q0 -129 -77 -221t-193 -92q-34 0 -51 15t-18 48l-51 -24q-83 -39 -125 -39q-37 0 -54.5 27.5t-17.5 89.5q0 74 16.5 133.5t42 96t62 64t69 40.5t71.5 23q22 0 75 -21l23 27h23q-22 -100 -46 -239.5 t-24 -163.5q0 -36 37 -36q43 0 76.5 25.5t52.5 66.5t28.5 85.5t9.5 88.5q0 121 -68.5 190.5t-180.5 69.5q-109 0 -201 -67t-141 -165.5t-49 -199.5q0 -120 67.5 -189t179.5 -69q121 0 228 85l47 -23q-130 -99 -286 -99q-138 0 -222.5 77.5t-84.5 212.5zM316 105 q0 -65 42 -65q24 0 67 20l70 32l54 313h-75q-56 0 -93 -46.5t-51 -110.5t-14 -143z" />
<glyph unicode="A" horiz-adv-x="660" d="M-13 30l75 22l230 648h76l232 -648l75 -22q0 -30 -15 -30q-12 0 -99 4l-119 -4q-15 0 -15 30l90 22l-63 177l-275 -14l-55 -163l95 -22q0 -30 -15 -30q-3 0 -111 4l-91 -4q-15 0 -15 30zM199 273h240l-122 346z" />
<glyph unicode="B" horiz-adv-x="612" d="M50 30l84 22v596l-84 22q0 30 15 30q9 0 103 -4q122 4 130 4q100 0 156.5 -50.5t56.5 -120.5q0 -49 -28.5 -91t-80.5 -64q80 -19 122.5 -69.5t42.5 -112.5q0 -82 -56 -137t-151 -55q-7 0 -184 8l-111 -8q-15 0 -15 30zM205 58q74 -14 129 -14q75 0 114 43t39 104 q0 63 -44.5 110t-126.5 47l-102 -12zM205 648l9 -264h82q66 6 103 47.5t37 94.5q0 56 -40 96t-111 40z" />
<glyph unicode="C" horiz-adv-x="642" d="M40 354q0 169 96 263.5t243 94.5q117 0 206 -60l-26 -149q-45 0 -45 14v111q-63 25 -141 25q-72 0 -144 -24q-47 -35 -74 -109t-27 -168q0 -151 68 -231t177 -80q90 0 151 37l23 102q4 14 45 14l-8 -143q-84 -63 -221 -63q-145 0 -234 94t-89 272z" />
<glyph unicode="D" horiz-adv-x="748" d="M50 30l84 22v596l-84 22q0 30 15 30q17 0 111 -4l204 16q143 0 235.5 -90.5t92.5 -258.5q0 -183 -93.5 -276t-250.5 -93l-188 14l-111 -8q-15 0 -15 30zM208 61q90 -20 166 -20q110 0 178 79t68 232q0 148 -68 227t-178 79q-86 0 -166 -19l10 -289z" />
<glyph unicode="E" horiz-adv-x="601" d="M50 30l84 22v596l-84 22q0 30 15 30q9 0 103 -4l340 4q31 0 32 -10l-24 -149q-43 0 -43 14v94l-265 -3l9 -264h256v-43l-256 -13l-9 -271h275l26 94q0 14 42 14l-8 -151q-1 -12 -29 -12l-344 8l-105 -8q-15 0 -15 30z" />
<glyph unicode="F" horiz-adv-x="550" d="M50 30l84 22v596l-84 22q0 30 15 30q9 0 103 -4l310 4q31 0 32 -10l-24 -149q-43 0 -43 14v94l-235 -3l9 -279l246 -1v-43l-247 -13l-8 -258l111 -22q0 -30 -15 -30q-43 0 -136 4l-103 -4q-15 0 -15 30z" />
<glyph unicode="G" horiz-adv-x="665" d="M40 354q0 169 96 263.5t243 94.5q126 0 221 -60l-26 -149q-45 0 -45 14v111q-71 25 -156 25q-72 0 -144 -24q-47 -35 -74 -109t-27 -168q0 -151 65.5 -231t169.5 -80q45 0 92.5 15.5t80.5 40.5l-17 209l-185 11v43h262v-249l9 -39q-117 -84 -252 -84q-140 0 -226.5 94 t-86.5 272z" />
<glyph unicode="H" horiz-adv-x="789" d="M50 30l84 22v596l-84 22q0 30 15 30q9 0 103 -4l105 4q15 0 15 -30l-80 -22l9 -264h355l9 264l-80 22q0 30 15 30q12 0 105 -4l103 4q15 0 15 -30l-84 -22v-596l84 -22q0 -30 -15 -30q-9 0 -103 4l-105 -4q-15 0 -15 30l80 22l-10 288l-354 -14l-9 -274l80 -22 q0 -30 -15 -30q-12 0 -105 4l-103 -4q-15 0 -15 30z" />
<glyph unicode="I" horiz-adv-x="345" d="M50 30l86 22l-5 298l5 298l-86 22q0 30 15 30q18 0 112 -4l103 4q15 0 15 -30l-86 -22l5 -298l-5 -298l86 -22q0 -30 -15 -30q-10 0 -103 4l-112 -4q-15 0 -15 30z" />
<glyph unicode="J" horiz-adv-x="315" d="M-4 -183q137 180 137 342v489l-95 22q0 30 16 30q23 0 116 -4l111 4q15 0 15 -31l-84 -21v-462q0 -184 -186 -390z" />
<glyph unicode="K" horiz-adv-x="623" d="M50 30l84 22v596l-84 22q0 30 15 30q9 0 103 -4l105 4q15 0 15 -30l-80 -22l9 -276h114l140 278l-72 20q0 30 15 30l81 -4l95 4q14 0 14 -30l-67 -22l-166 -291q30 -13 56 -58l145 -247l80 -22q0 -30 -15 -30h-131l-161 295q-15 29 -30 41l-98 -12l-9 -272l101 -22 q0 -30 -15 -30q-33 0 -126 4l-103 -4q-15 0 -15 30z" />
<glyph unicode="L" horiz-adv-x="521" d="M49 30l86 22l-5 298l5 298l-86 22q0 30 15 30q18 0 112 -4l103 4q15 0 15 -30l-86 -22l5 -298l-5 -295h235l26 94q4 14 42 14l-8 -151q-1 -12 -29 -12l-298 8l-112 -8q-15 0 -15 30z" />
<glyph unicode="M" horiz-adv-x="908" d="M25 30l85 22l31 595l-82 22q0 31 15 31q39 0 162 -4l209 -512l231 512l158 4q15 0 15 -31l-82 -22l31 -595l85 -22q0 -30 -15 -30q-31 0 -118 4l-113 -4q-16 0 -16 30l95 22l-21 549l-253 -551h-19l-231 544l-23 -542l95 -22q0 -30 -16 -30l-110 4l-98 -4q-15 0 -15 30z " />
<glyph unicode="N" horiz-adv-x="790" d="M50 30l82 22v595l-82 22q0 31 15 31q12 0 135 -4l421 -570l-6 522l-105 22q0 30 16 30l121 -4l88 4q15 0 15 -30l-75 -22l-3 -648h-56l-430 583l8 -531l106 -22q0 -30 -16 -30l-121 4l-98 -4q-15 0 -15 30z" />
<glyph unicode="O" horiz-adv-x="747" d="M40 354q0 169 96 263.5t243 94.5q143 0 235.5 -90.5t92.5 -258.5q0 -184 -94 -279.5t-250 -95.5q-145 0 -234 94t-89 272zM128 352q0 -153 68 -234.5t177 -81.5q110 0 178 81.5t68 234.5q0 148 -68 227t-178 79q-72 0 -144 -24q-47 -35 -74 -110.5t-27 -171.5z" />
<glyph unicode="P" horiz-adv-x="563" d="M50 30l84 22v596l-84 22q0 30 15 30q9 0 103 -4l158 4q95 0 151 -58t56 -145q0 -82 -65 -143t-186 -72l-67 -6l-7 -224l111 -22q0 -30 -15 -30q-43 0 -136 4l-103 -4q-15 0 -15 30zM208 648l10 -298l-1 -19l73 -4q84 0 127.5 51t43.5 120q0 66 -39 113t-114 47z" />
<glyph unicode="Q" horiz-adv-x="747" d="M40 354q0 169 96 263.5t243 94.5q143 0 235.5 -90.5t92.5 -258.5q0 -164 -76 -258t-205 -113l127 -202q-34 -21 -60 -21q-25 0 -33 19l-92 200q-148 0 -238 94t-90 272zM128 352q0 -153 68 -234.5t177 -81.5q110 0 178 81.5t68 234.5q0 148 -68 227t-178 79 q-72 0 -144 -24q-47 -35 -74 -110.5t-27 -171.5z" />
<glyph unicode="R" horiz-adv-x="596" d="M50 30l84 22v596l-84 22q0 30 15 30q9 0 103 -4q151 4 156 4q91 0 145 -56t54 -136q0 -54 -38 -104.5t-106 -73.5q25 -15 48 -54l128 -224l80 -22q0 -30 -15 -30h-131l-144 272q-18 32 -35 44l-94 -15l-8 -249l101 -22q0 -30 -15 -30q-33 0 -126 4l-103 -4q-15 0 -15 30z M208 648l9 -290l63 -4q85 0 128 46t43 110q0 60 -39.5 104t-113.5 44z" />
<glyph unicode="S" horiz-adv-x="554" d="M55 36q19 165 23 165q43 0 43 -12v-111q65 -42 155 -42q71 0 107 34t36 87q0 69 -71 110l-177 101q-50 28 -76 70.5t-26 89.5q0 75 61.5 129.5t167.5 54.5q77 0 173 -36l-26 -154q-42 0 -42 14v101q-54 25 -111 25q-102 0 -148 -75q-5 -17 -5 -40q0 -69 75 -112l172 -98 q57 -33 87.5 -78t30.5 -89q0 -87 -66 -134.5t-170 -47.5q-101 0 -213 48z" />
<glyph unicode="T" horiz-adv-x="563" d="M5 690q1 10 32 10l244 -5l245 5q31 0 32 -10l-11 -157q-42 0 -42 14l-15 103l-172 -4l5 -296l-5 -298l113 -22q0 -30 -15 -30q-39 0 -132 4l-137 -4q-15 0 -15 30l113 22l-5 298l5 296l-172 4l-15 -103q0 -14 -42 -14z" />
<glyph unicode="U" horiz-adv-x="733" d="M40 669q0 31 15 31q7 0 101 -4l115 4q16 0 16 -30l-95 -22v-433q0 -79 46.5 -125.5t143.5 -46.5q94 0 143.5 50t49.5 123v432l-95 22q0 30 16 30l109 -4l78 4q15 0 15 -30l-65 -22v-430q0 -104 -67.5 -167t-185.5 -63q-266 0 -266 230v430z" />
<glyph unicode="V" horiz-adv-x="643" d="M0 670q0 30 15 30q13 0 100 -4l107 4q15 0 15 -30l-84 -22l185 -553l178 553l-85 22q0 30 15 30l104 -4l78 4q15 -1 15 -30l-65 -22l-218 -648h-70l-225 648z" />
<glyph unicode="W" horiz-adv-x="920" d="M0 670q0 30 15 30q13 0 100 -4l107 4q15 0 15 -30l-85 -22l145 -535l166 538h35v-67l147 -471l149 535l-85 22q0 30 15 30l103 -4l78 4q15 -2 15 -30l-65 -22l-180 -648h-76l-139 447l-137 -447h-76l-182 648z" />
<glyph unicode="X" horiz-adv-x="696" d="M15 30l75 22l217 301l-196 295l-75 22q0 30 15 30q21 0 108 -4l107 4q15 0 15 -30l-77 -22l155 -234l164 234l-82 22q0 30 15 30l111 -4l78 4q15 -1 15 -30l-65 -22l-203 -283l209 -313l80 -22q0 -30 -15 -30q-20 0 -107 4l-128 -4q-15 0 -15 30l92 22l-169 253 l-177 -253l92 -22q0 -30 -15 -30l-121 4l-89 -4q-14 0 -14 30z" />
<glyph unicode="Y" horiz-adv-x="580" d="M0 670q0 30 15 30q10 0 97 -4l105 4q15 0 15 -30l-85 -22l160 -327l143 327l-82 22q0 30 15 30l104 -4l78 4q15 -1 15 -30l-65 -22l-178 -369v-227l105 -22q0 -30 -15 -30q-33 0 -126 4l-132 -4q-15 0 -15 30l105 22v225l-194 371z" />
<glyph unicode="Z" horiz-adv-x="611" d="M28 8l428 634h-310v-91q0 -14 -42 -14l-25 151q1 12 21 12q6 0 420 -11l35 23l22 -17l-431 -640h343v96q0 14 42 14l25 -153q-1 -12 -29 -12l-450 5l-32 -17z" />
<glyph unicode="[" horiz-adv-x="247" d="M73 -65q0 168 44 314q-44 146 -44 314q0 30 14 168h155q17 0 17 -34q0 -1 -24 -5t-51.5 -8t-36.5 -4v-862q9 0 36.5 -4t51.5 -8t24 -5q0 -34 -17 -34h-155q-14 103 -14 168z" />
<glyph unicode="\" horiz-adv-x="327" d="M-30 750h54l333 -800h-54z" />
<glyph unicode="]" horiz-adv-x="247" d="M-12 -199q0 1 24 5t51.5 8t36.5 4v862q-9 0 -36.5 4t-51.5 8t-24 5q0 34 17 34h155q14 -103 14 -168q0 -168 -44 -314q44 -146 44 -314q0 -30 -14 -168h-155q-17 0 -17 34z" />
<glyph unicode="^" d="M75 225l152 287h57l152 -287h-60l-121 232l-120 -232h-60z" />
<glyph unicode="_" horiz-adv-x="504" d="M40 -12h424v-57h-424v57z" />
<glyph unicode="`" horiz-adv-x="317" d="M50 613q0 13 10 37t15 30q42 -34 90 -70t75 -54l27 -19l-11 -19q-126 35 -201 83q-5 3 -5 12z" />
<glyph unicode="a" horiz-adv-x="496" d="M50 102q0 62 66.5 108t201.5 49v60q0 48 -29.5 79.5t-79.5 31.5q-3 -3 -20 -20.5t-29 -28.5t-29 -22t-28 -11q-15 0 -26 20.5t-13 37.5q80 44 173 62q76 0 114 -40t38 -106v-255q0 -36 43 -36q12 0 30 3q9 -9 9 -25q-34 -21 -71 -21q-69 0 -80 64q-123 -64 -167 -64 q-48 0 -75.5 34t-27.5 80zM126 120q0 -33 15 -54.5t46 -21.5q61 0 131 47v135q-130 -16 -187 -66q-5 -20 -5 -40z" />
<glyph unicode="b" horiz-adv-x="524" d="M-15 741q0 1 32 6t68 10t43 5q16 -9 16 -28l-3 -339l3 -2q63 44 136 69q91 0 147.5 -59.5t56.5 -174.5q0 -124 -59.5 -182t-153.5 -58q-74 0 -150 31l-14 -19h-34v704h-74q-14 0 -14 37zM144 52q60 -20 111 -20q151 0 151 194q0 86 -35 134.5t-95 48.5q-53 0 -113 -38 q-19 -47 -19 -77v-242z" />
<glyph unicode="c" horiz-adv-x="435" d="M40 230q0 112 67 175t169 63q62 -11 121 -39q0 -21 -10.5 -42t-19.5 -21q-11 0 -27 7t-26.5 14.5t-32 22.5t-28.5 20q-135 -18 -135 -199q0 -91 42.5 -143t115.5 -52q51 0 109 25q14 -11 18 -30q-67 -43 -140 -43q-99 0 -161 62.5t-62 179.5z" />
<glyph unicode="d" horiz-adv-x="552" d="M40 228q0 118 58.5 176t149.5 58q62 0 133 -29v271h-71q-14 0 -14 37q0 1 31.5 6t66.5 10t42 5q16 -9 16 -28v-667q0 -36 43 -36q12 0 30 3q9 -9 9 -25q-34 -21 -71 -21q-69 0 -80 64q-59 -38 -133 -64q-91 0 -150.5 62.5t-59.5 177.5zM118 230q0 -86 36 -134t97 -48 q60 0 130 45v302q-72 22 -119 22q-144 0 -144 -187z" />
<glyph unicode="e" horiz-adv-x="469" d="M40 209q0 120 65 189.5t174 69.5q72 0 113.5 -58.5t41.5 -142.5v-22q-126 -21 -252 -21h-65v-14q0 -82 42 -128t114 -46q55 0 115 25q13 -12 17 -30q-66 -43 -149 -43q-97 0 -156.5 57t-59.5 164zM120 262q116 2 230 21q3 18 3 34q0 48 -26 75.5t-76 27.5q-27 0 -48 -5 q-68 -46 -83 -153z" />
<glyph unicode="f" horiz-adv-x="339" d="M30 30l86 22v357h-61q-14 0 -14 39l75 12q0 59 3 99.5t13 84t32 72.5t56 46q32 0 79 -13t70 -26q0 -21 -10.5 -42t-19.5 -21q-11 0 -27 7t-26.5 14.5t-32 22.5t-28.5 20q-38 -33 -38 -208v-59h119q0 -48 -14 -48h-105v-357l112 -22q0 -30 -14 -30l-132 4l-109 -4 q-14 0 -14 30z" />
<glyph unicode="g" horiz-adv-x="475" d="M20 -116q0 23 89 116h-33q-12 9 -12 28q0 43 66 132q-82 39 -82 146q0 77 51.5 119.5t129.5 42.5q69 0 116 -33q42 37 91 50q22 -26 22 -46q0 -14 -17 -19.5t-69 -10.5q32 -40 32 -99q0 -83 -50.5 -126t-133.5 -43q-25 0 -50 5q-38 -53 -41 -88h163q80 0 124 -39t44 -95 q0 -73 -69 -129.5t-191 -56.5q-86 0 -133 39.5t-47 106.5zM90 -104q0 -50 28.5 -82t95.5 -32q83 0 130 42t47 94q0 35 -23.5 58.5t-65.5 23.5h-149zM121 315q0 -55 27.5 -95t78.5 -40q46 0 75.5 32.5t29.5 92.5q0 59 -30 91t-76 32q-33 0 -66 -12q-39 -30 -39 -101z" />
<glyph unicode="h" horiz-adv-x="578" d="M20 741q0 1 32 6t68 10t43 5q16 -9 16 -28l-3 -339l3 -2q63 44 136 69q77 0 114.5 -37t37.5 -103v-270l86 -22q0 -30 -13 -30q-1 0 -110 4l-93 -4q-13 0 -13 30l72 22v267q0 90 -85 90q-53 0 -113 -38q-19 -47 -19 -77v-242l72 -22q0 -30 -13 -30q-1 0 -93 4l-110 -4 q-13 0 -13 30l86 22v652h-74q-14 0 -14 37z" />
<glyph unicode="i" horiz-adv-x="303" d="M40 30l86 22v358h-71q-14 0 -14 37q0 1 31.5 6t66.5 10t42 5q16 -9 16 -28v-388l86 -22q0 -30 -14 -30l-107 4l-108 -4q-14 0 -14 30zM113 611q0 13 2 27.5t4 23.5l2 8q32 7 51 7q34 0 34 -56l-7 -56q-31 -9 -51 -9q-35 0 -35 55z" />
<glyph unicode="j" horiz-adv-x="258" d="M14 -243q86 138 86 312v341h-70q-14 0 -14 37q0 1 31.5 6t66.5 10t42 5q16 -9 16 -28l-1 -368q0 -73 -32 -161t-98 -173zM88 611q0 13 2 27.5t4 23.5l2 8q32 7 51 7q34 0 34 -56l-7 -56q-31 -9 -51 -9q-35 0 -35 55z" />
<glyph unicode="k" horiz-adv-x="491" d="M20 30l86 22v652h-71q-14 0 -14 37q0 1 31.5 6t66.5 10t42 5q16 -9 16 -28v-453h56l97 125l-62 20q0 30 14 30l68 -4l100 4q14 0 14 -30l-67 -22l-122 -139l147 -213l83 -22q0 -30 -14 -30h-115l-164 241l-35 -4v-185l72 -22q0 -30 -14 -30l-92 4l-109 -4q-14 0 -14 30z " />
<glyph unicode="l" horiz-adv-x="283" d="M20 30l86 22v652h-71q-14 0 -14 37q0 1 31.5 6t66.5 10t42 5q16 -9 16 -28v-682l86 -22q0 -30 -14 -30l-107 4l-108 -4q-14 0 -14 30z" />
<glyph unicode="m" horiz-adv-x="844" d="M40 30l86 22v346h-72q-14 0 -14 37q0 1 28 6t59.5 10t38.5 5q9 0 15.5 -12.5t15.5 -50.5q56 50 117 75q110 0 141 -84q62 58 127 84q76 0 113.5 -40t37.5 -106v-270l86 -22q0 -30 -14 -30l-109 4l-92 -4q-14 0 -14 30l72 22v267q0 90 -84 90q-44 0 -94 -38 q-19 -47 -19 -77v-242l72 -22q0 -30 -14 -30l-93 4l-94 -4q-14 0 -14 30l72 22v267q0 90 -84 90q-44 0 -94 -38q-19 -47 -19 -77v-242l72 -22q0 -30 -14 -30l-92 4l-109 -4q-14 0 -14 30z" />
<glyph unicode="n" horiz-adv-x="596" d="M40 30l86 22v346h-72q-14 0 -14 37q0 1 28 6t59.5 10t38.5 5q9 0 15.5 -12.5t15.5 -50.5q63 50 136 75q76 0 114 -40t38 -106v-270l86 -22q0 -30 -14 -30l-109 4l-92 -4q-14 0 -14 30l72 22v267q0 90 -85 90q-53 0 -113 -38q-19 -47 -19 -77v-242l72 -22q0 -30 -14 -30 l-92 4l-109 -4q-14 0 -14 30z" />
<glyph unicode="o" horiz-adv-x="522" d="M40 230q0 112 64 175t161 63q94 0 155.5 -60.5t61.5 -171.5q0 -121 -62.5 -184.5t-165.5 -63.5q-95 0 -154.5 62.5t-59.5 179.5zM118 231q0 -97 39.5 -148t103.5 -51t103.5 51t39.5 148q0 93 -40 143t-103 50q-49 0 -84 -15q-59 -48 -59 -178z" />
<glyph unicode="p" horiz-adv-x="562" d="M20 -220l86 22v596h-71q-14 0 -14 37q0 1 27 6t58 10t38 5q15 0 29 -59l4 -4q62 48 135 75q91 0 150.5 -62.5t59.5 -177.5q0 -121 -60 -180.5t-156 -59.5q-54 0 -97 23l12 34q39 -14 68 -14q73 0 114 47.5t41 147.5q0 86 -37 134.5t-98 48.5q-53 0 -113 -38 q-19 -43 -19 -115v-454l112 -22q0 -30 -14 -30l-132 4l-109 -4q-14 0 -14 30z" />
<glyph unicode="q" horiz-adv-x="541" d="M40 228q0 118 58.5 176t149.5 58q72 0 147 -35l23 41h36v-666l72 -22q0 -30 -13 -30q-1 0 -96 4l-133 -4q-13 0 -13 30l112 22v248q-66 -38 -133 -62q-91 0 -150.5 62.5t-59.5 177.5zM118 230q0 -86 36 -134t97 -48t132 44v302q-72 23 -121 23q-144 0 -144 -187z" />
<glyph unicode="r" horiz-adv-x="366" d="M40 30l86 22v346h-72q-14 0 -14 37q0 1 28 6t59.5 10t38.5 5q15 0 29 -59l4 -4q66 60 134 76q23 -26 23 -61q0 -21 -140 -30q-19 -52 -19 -91v-235l112 -22q0 -30 -14 -30l-132 4l-109 -4q-14 0 -14 30z" />
<glyph unicode="s" horiz-adv-x="420" d="M50 14q0 7 5 40t10 62t6 29q37 0 37 -14v-72q40 -29 103 -29q40 0 66 17t26 52q0 38 -50 67l-116 67q-71 41 -71 113q0 51 42 86.5t118 35.5q67 -1 128 -24q0 -7 -5 -36.5t-10 -55.5t-6 -26q-37 0 -37 14v66q-32 18 -76 18q-56 0 -91 -34q-4 -12 -4 -33q0 -36 37 -57 l125 -72q85 -50 85 -120q0 -58 -45 -89t-120 -31q-80 0 -157 26z" />
<glyph unicode="t" horiz-adv-x="308" d="M10 447l83 14l26 112l38 12v-129h118q0 -48 -14 -48h-104v-319q0 -51 39 -51q29 0 75 28q13 -12 17 -30q-58 -48 -121 -48q-81 0 -81 95v325h-62q-14 0 -14 39z" />
<glyph unicode="u" horiz-adv-x="563" d="M15 447q0 1 31.5 6t66.5 10t42 5q16 -9 16 -28v-304q0 -49 28 -69t66 -20q60 0 127 50v313h-71q-14 0 -14 37q0 1 31.5 6t66.5 10t42 5q16 -9 16 -28v-373q0 -36 43 -36q12 0 30 3q9 -9 9 -25q-34 -21 -71 -21q-69 0 -80 64q-32 -21 -64.5 -37t-50 -21.5t-22.5 -5.5 q-82 0 -119.5 40.5t-37.5 108.5v273h-71q-14 0 -14 37z" />
<glyph unicode="v" horiz-adv-x="438" d="M-10 426q0 30 14 30l78 -4l73 4q14 0 14 -30l-62 -20l115 -323l110 323l-62 20q0 30 14 30l68 -4l62 4q14 0 14 -30l-47 -22l-141 -404h-58l-145 404z" />
<glyph unicode="w" horiz-adv-x="640" d="M-10 426q0 30 14 30l78 -4l73 4q14 0 14 -30l-62 -20l94 -312l105 362h28l109 -362l91 312l-62 20q0 30 14 30l68 -4l62 4q14 0 14 -30l-47 -22l-121 -404h-57l-95 305l-90 -305h-58l-125 404z" />
<glyph unicode="x" horiz-adv-x="506" d="M15 30l72 22l129 170l-125 182l-67 22q0 30 14 30l87 -4l94 4q14 0 14 -30l-62 -20l90 -131l99 131l-62 20q0 30 14 30l68 -4l87 4q14 0 14 -30l-67 -22l-127 -168l127 -184l72 -22q0 -30 -14 -30l-92 4l-94 -4q-14 0 -14 30l62 20l-92 134l-101 -134l62 -20 q0 -30 -14 -30l-94 4l-66 -4q-14 0 -14 30z" />
<glyph unicode="y" horiz-adv-x="441" d="M-10 426q0 30 14 30l78 -4l73 4q14 0 14 -30l-62 -20l119 -306l109 306l-62 20q0 30 13 30l69 -4l62 4q14 0 14 -30l-47 -22l-148 -404l-110 -243q-8 -19 -27 -19t-57 21l28 45q27 46 65.5 110.5t55.5 92.5l-154 397z" />
<glyph unicode="z" horiz-adv-x="469" d="M30 1l292 408h-203v-79q0 -14 -37 -14q-1 0 -6 29t-10 62t-5 40q1 12 24 12q44 0 286 -9l41 21l22 -15l-296 -414l232 10v71q0 14 37 14q1 0 6 -29t10 -62t5 -40q-1 -12 -24 -12l-330 6l-26 -12z" />
<glyph unicode="{" horiz-adv-x="272" d="M42 236v27l100 27q-44 126 -44 273q0 30 14 168h155q17 0 17 -34q0 -1 -25 -5t-54.5 -8t-38.5 -4q0 -140 17.5 -253.5t17.5 -120.5q0 -44 -57 -53v-8q57 -9 57 -52q0 -7 -17.5 -121t-17.5 -254q9 0 38.5 -4t54.5 -8t25 -5q0 -34 -17 -34h-155q-14 103 -14 168 q0 148 44 274z" />
<glyph unicode="|" horiz-adv-x="270" d="M100 -208v881h70v-881h-70z" />
<glyph unicode="}" horiz-adv-x="272" d="M-12 -199q0 1 25 5t54.5 8t38.5 4q0 140 -17.5 253.5t-17.5 120.5q0 44 57 53v8q-57 9 -57 52q0 7 17.5 121t17.5 254q-9 0 -38.5 4t-54.5 8t-25 5q0 34 17 34h155q14 -103 14 -168q0 -148 -44 -274l100 -27v-27l-100 -27q44 -126 44 -273q0 -30 -14 -168h-155 q-17 0 -17 34z" />
<glyph unicode="~" d="M65 275q40 44 103 44q30 0 90 -12.5t87 -12.5q43 0 78 27l22 -37q-41 -46 -104 -46q-31 0 -90.5 12.5t-86.5 12.5q-44 0 -76 -25z" />
<glyph unicode="&#xa1;" horiz-adv-x="257" d="M78 -239l42 523h33l27 -261l-46 -262h-56zM83 411l7 49q35 8 57 8q37 0 37 -49q0 -11 -2 -24t-4 -21l-2 -7q-36 -6 -57 -6q-36 0 -36 50z" />
<glyph unicode="&#xa2;" d="M90 280q0 102 53.5 163.5t138.5 72.5l4 58h40l-4 -56q61 -2 115 -25q-1 -7 -8 -38t-14 -59l-7 -29q-10 0 -25 4t-15 12l4 73q-34 7 -54 8l-27 -376q9 -2 27 -2q47 0 103 25q13 -12 17 -30q-64 -43 -134 -43h-16l-5 -73h-40l5 79q-73 16 -115.5 76.5t-42.5 159.5zM168 281 q0 -137 84 -180l26 361q-110 -17 -110 -181z" />
<glyph unicode="&#xa3;" d="M45 32q89 94 89 184q0 20 -5 47h-67v37h60q-18 72 -18 114q0 76 41 112.5t112 36.5q89 0 162 -39q-1 -7 -8 -38t-14 -60l-7 -28q-10 0 -25 4t-15 12l4 73q-42 26 -93 26q-84 0 -84 -98q0 -33 15 -115h156v-37h-151q0 -3 0.5 -9.5t0.5 -9.5q0 -86 -82 -203l1 -4l277 25v85 q0 16 41 16q1 0 6.5 -33.5t11 -70.5t5.5 -45q-3 -14 -24 -14h-366z" />
<glyph unicode="&#xa5;" d="M26 521q0 30 14 30l78 -4l73 4q14 0 14 -30l-59 -20l122 -239l120 239l-62 20q0 30 14 30l68 -4l62 4q14 0 14 -30l-47 -22l-103 -199h82v-37h-101l-20 -40v-7h121v-37h-121v-127l105 -22q0 -30 -15 -30q-33 0 -126 4l-132 -4q-15 0 -15 30l105 22v127h-117v37h117v6 l-22 41h-95v37h76l-103 199z" />
<glyph unicode="&#xa6;" horiz-adv-x="270" d="M100 143h70v-351h-70v351zM100 322v351h70v-351h-70z" />
<glyph unicode="&#xa7;" horiz-adv-x="427" d="M20 -70l26 154q42 0 42 -14v-101q19 -4 47 -4q57 0 99.5 24.5t43.5 74.5q-6 23 -35.5 54t-61.5 55t-58 50.5t-26 43.5q0 83 98 150q-111 90 -111 151q0 67 58 105.5t149 38.5q56 0 116 -15l-26 -154q-42 0 -42 14v101q-19 4 -47 4q-57 0 -99.5 -24.5t-43.5 -74.5 q6 -23 35.5 -54t61.5 -55t58 -50.5t26 -43.5q0 -41 -21.5 -77.5t-76.5 -72.5q34 -28 54.5 -48t38.5 -48.5t18 -54.5q0 -67 -58 -105.5t-149 -38.5q-56 0 -116 15zM154 299q0 -49 43 -49q9 0 23 4t24 8l9 5q20 33 20 61q0 49 -43 49q-9 0 -23 -4.5t-23 -8.5l-10 -4 q-20 -33 -20 -61z" />
<glyph unicode="&#xa8;" horiz-adv-x="374" d="M70 596q0 35 7 56q33 7 49 7q31 0 31 -53q0 -35 -6 -53q-32 -9 -49 -9q-32 0 -32 52zM218 596q0 35 7 56q33 7 49 7q31 0 31 -53q0 -35 -6 -53q-32 -9 -49 -9q-32 0 -32 52z" />
<glyph unicode="&#xa9;" horiz-adv-x="626" d="M30 500q0 118 82.5 200.5t200.5 82.5t200.5 -82.5t82.5 -200.5t-82.5 -200.5t-200.5 -82.5t-200.5 82.5t-82.5 200.5zM67 500q0 -103 71.5 -174.5t174.5 -71.5t174.5 71.5t71.5 174.5t-71.5 174.5t-174.5 71.5t-174.5 -71.5t-71.5 -174.5zM158 506q0 85 48.5 133 t122.5 48q59 0 108 -33l-14 -81q-34 0 -34 12v51q-34 10 -63 10q-36 0 -66 -11q-20 -17 -33 -52.5t-13 -77.5q0 -71 31 -108.5t81 -37.5q39 0 67 16l11 49q3 10 36 10l-4 -79q-45 -33 -115 -33q-73 0 -118 47.5t-45 136.5z" />
<glyph unicode="&#xaa;" horiz-adv-x="283" d="M12 349h244l6 -28q-46 -23 -149 -23q-49 0 -97 8zM16 464q0 37 39.5 65t118.5 31v32q0 26 -15.5 43.5t-41.5 18.5q-45 -49 -64 -49q-11 0 -19.5 14t-10.5 27q49 26 108 38q49 0 72.5 -24.5t23.5 -65.5v-151q0 -16 20 -16q7 0 21 1q8 -8 8 -21q-25 -14 -48 -14 q-39 0 -51 34q-70 -34 -94 -34q-31 0 -49 21t-18 50zM73 475q0 -42 29 -42q35 0 72 26v74q-68 -11 -98 -36q-3 -11 -3 -22z" />
<glyph unicode="&#xab;" horiz-adv-x="460" d="M30 213v28l188 203l29 -24l-130 -193l130 -193l-29 -24zM193 213v28l188 203l29 -24l-130 -193l130 -193l-29 -24z" />
<glyph unicode="&#xac;" d="M73 249v57h310h54v-57v-112h-54v112h-310z" />
<glyph unicode="&#xad;" horiz-adv-x="390" d="M50 279h283l7 -33q-53 -26 -173 -26q-62 0 -112 9z" />
<glyph unicode="&#xae;" horiz-adv-x="626" d="M30 500q0 118 82.5 200.5t200.5 82.5t200.5 -82.5t82.5 -200.5t-82.5 -200.5t-200.5 -82.5t-200.5 82.5t-82.5 200.5zM67 500q0 -103 71.5 -174.5t174.5 -71.5t174.5 71.5t71.5 174.5t-71.5 174.5t-174.5 71.5t-174.5 -71.5t-71.5 -174.5zM185 353l41 11v281l-41 10 q0 26 13 26l49 -3l76 3q49 0 77 -29t28 -71q0 -25 -17.5 -49t-47.5 -38q5 -4 18 -23l61 -110l35 -8q0 -25 -14 -25h-62l-72 135q-8 13 -13 18l-37 -6l-4 -111l49 -11q0 -25 -14 -25q-16 0 -61 2l-51 -2q-13 0 -13 25zM275 645l5 -133h24q37 1 56.5 21.5t19.5 48.5 q0 26 -17.5 46t-49.5 21z" />
<glyph unicode="&#xaf;" horiz-adv-x="421" d="M70 570v63h281v-63h-281z" />
<glyph unicode="&#xb0;" horiz-adv-x="318" d="M20 578q0 58 40.5 98.5t98.5 40.5t98.5 -40.5t40.5 -98.5t-40.5 -98.5t-98.5 -40.5t-98.5 40.5t-40.5 98.5zM66 578q0 -39 27 -66t66 -27t65.5 27t26.5 66t-26.5 65.5t-65.5 26.5t-66 -26.5t-27 -65.5z" />
<glyph unicode="&#xb1;" d="M73 -12v57h364v-57h-364zM73 249v57h153v153h57v-153h154v-57h-154v-154h-57v154h-153z" />
<glyph unicode="&#xb2;" horiz-adv-x="410" d="M32 212l142 128q28 25 46 44.5t34.5 51.5t16.5 64q0 37 -23.5 55t-59.5 18q-40 0 -73 -15l2 -43q0 -7 -14.5 -11t-23.5 -4q-18 71 -20 88q56 28 130 28q61 0 105 -28.5t44 -87.5q0 -60 -40.5 -111t-111.5 -105l-74 -57l2 -4l192 15v42q0 17 32 17q1 0 6 -22t10 -46.5 t5 -29.5q-2 -14 -21 -14h-286z" />
<glyph unicode="&#xb3;" horiz-adv-x="410" d="M57 205q1 8 12.5 48t13.5 40q8 0 19.5 -3.5t11.5 -11.5l-2 -43q33 -15 81 -15q37 0 64 21t27 58q0 36 -37.5 60t-103.5 25l-6 34q64 7 96.5 32.5t32.5 60.5q0 28 -19.5 45t-53.5 17q-33 0 -63 -14l2 -44q0 -6 -15 -10.5t-24 -4.5q-18 80 -20 88q58 28 123 28 q55 0 95 -25.5t40 -78.5q0 -63 -72 -103q42 -12 66 -42t24 -65q0 -56 -45.5 -90.5t-107.5 -34.5q-74 0 -139 28z" />
<glyph unicode="&#xb4;" horiz-adv-x="317" d="M50 537q97 66 192 143q5 -6 15 -30t10 -37q0 -9 -5 -12q-75 -48 -201 -83z" />
<glyph unicode="&#xb5;" horiz-adv-x="509" d="M10 447q0 1 26 6t55.5 10t36.5 5q16 -9 16 -28v-296q0 -97 86 -97q66 0 135 50v313h-71q-14 0 -14 37q0 1 31.5 6t66.5 10t42 5q16 -9 16 -28v-373q0 -35 23 -48l-12 -31q-69 0 -80 64q-32 -21 -64.5 -37t-50 -21.5t-22.5 -5.5q-62 0 -102 27l10 -214h-65v609h-49 q-14 0 -14 37z" />
<glyph unicode="&#xb6;" horiz-adv-x="591" d="M50 501q0 48 17.5 85.5t45.5 60.5t67 38t78.5 21t83.5 6q50 0 101.5 -7.5t79.5 -15t28 -10.5q0 -37 -14 -37h-71v-642h-71v642h-67v-642h-167q-15 0 -15 30l111 18v254q-92 2 -149.5 51.5t-57.5 147.5z" />
<glyph unicode="&#xb7;" horiz-adv-x="197" d="M48 234q0 14 2 30t4 26l2 9q36 7 57 7q36 0 36 -62l-7 -62q-35 -9 -57 -9q-37 0 -37 61z" />
<glyph unicode="&#xb8;" horiz-adv-x="410" d="M110 -202l19 30q24 -19 55 -19q24 0 38 14.5t14 34.5q0 23 -19.5 40.5t-56.5 18.5l34 83h32l-17 -56q45 -6 67.5 -29.5t22.5 -55.5q0 -36 -29 -64t-74 -28q-51 0 -86 31z" />
<glyph unicode="&#xb9;" horiz-adv-x="410" d="M59 575q0 1 41 11t85 20t50 10q16 -6 16 -26v-354l92 -20q0 -31 -18 -31l-114 3l-125 -3q-17 0 -17 31l119 20v326l-103 -26q-10 0 -18 16t-8 23z" />
<glyph unicode="&#xba;" horiz-adv-x="301" d="M13 540q0 68 39.5 106t99.5 38q57 0 95 -36.5t38 -104.5q0 -74 -38 -112t-102 -38q-59 0 -95.5 37.5t-36.5 109.5zM25 349h244l6 -28q-46 -23 -149 -23q-49 0 -97 8zM71 541q0 -56 21.5 -85t57.5 -29q35 0 56 29t21 85q0 52 -21.5 80.5t-55.5 28.5q-28 0 -47 -8 q-32 -27 -32 -101z" />
<glyph unicode="&#xbb;" horiz-adv-x="460" d="M50 34l130 193l-130 193l29 24l188 -203v-28l-188 -203zM213 34l130 193l-130 193l29 24l188 -203v-28l-188 -203z" />
<glyph unicode="&#xbc;" horiz-adv-x="990" d="M59 621q0 1 41 11t85 20t50 10q16 -6 16 -26v-354l92 -20q0 -31 -18 -31l-114 3l-125 -3q-17 0 -17 31l119 20v326l-103 -26q-10 0 -18 16t-8 23zM307 -56l315 756h51l-315 -756h-51zM583 108q0 6 131 331l60 -18l-131 -289h142v154q37 7 51 7q9 -5 9 -26v-135h69v-40 h-69v-47l60 -14q0 -30 -17 -31l-74 3l-85 -3q-17 0 -17 31l73 14v47h-178q-24 0 -24 16z" />
<glyph unicode="&#xbd;" horiz-adv-x="990" d="M59 621q0 1 41 11t85 20t50 10q16 -6 16 -26v-354l92 -20q0 -31 -18 -31l-114 3l-125 -3q-17 0 -17 31l119 20v326l-103 -26q-10 0 -18 16t-8 23zM284 -56l315 756h51l-315 -756h-51zM597 27l142 128q28 25 46 44.5t34.5 51.5t16.5 64q0 37 -23.5 55t-59.5 18 q-40 0 -73 -15l2 -43q0 -7 -14.5 -11t-23.5 -4q-18 71 -20 88q56 28 130 28q61 0 105 -28.5t44 -87.5q0 -60 -40.5 -111t-111.5 -105l-74 -57l2 -4l192 15v42q0 17 32 17q1 0 6 -22t10 -46.5t5 -29.5q-2 -14 -21 -14h-286z" />
<glyph unicode="&#xbe;" horiz-adv-x="990" d="M57 251q1 8 12.5 48t13.5 40q8 0 19.5 -3.5t11.5 -11.5l-2 -43q33 -15 81 -15q37 0 64 21t27 58q0 36 -37.5 60t-103.5 25l-6 34q64 7 96.5 32.5t32.5 60.5q0 28 -19.5 45t-53.5 17q-33 0 -63 -14l2 -44q0 -6 -15 -10.5t-24 -4.5q-18 80 -20 88q58 28 123 28 q55 0 95 -25.5t40 -78.5q0 -63 -72 -103q42 -12 66 -42t24 -65q0 -56 -45.5 -90.5t-107.5 -34.5q-74 0 -139 28zM313 -56l315 756h51l-315 -756h-51zM583 108q0 6 131 331l60 -18l-131 -289h142v154q37 7 51 7q9 -5 9 -26v-135h69v-40h-69v-47l60 -14q0 -30 -17 -31l-74 3 l-85 -3q-17 0 -17 31l73 14v47h-178q-24 0 -24 16z" />
<glyph unicode="&#xbf;" horiz-adv-x="430" d="M53 -71q0 41 27 87t60 80t60 69.5t27 56.5v50h34q8 -69 8 -99q-1 -20 -35.5 -62.5t-72 -92t-43.5 -84.5q1 -50 43.5 -74.5t99.5 -24.5q28 0 47 4v101q0 14 42 14l26 -154q-60 -15 -116 -15q-91 0 -149 38.5t-58 105.5zM195 411l7 49q35 8 57 8q37 0 37 -49q0 -11 -2 -24 t-4 -21l-2 -7q-36 -6 -57 -6q-36 0 -36 50z" />
<glyph unicode="&#xc0;" horiz-adv-x="660" d="M-13 30l75 22l230 648h76l232 -648l75 -22q0 -30 -15 -30q-12 0 -99 4l-119 -4q-15 0 -15 30l90 22l-63 177l-275 -14l-55 -163l95 -22q0 -30 -15 -30q-3 0 -111 4l-91 -4q-15 0 -15 30zM199 273h240l-122 346zM241 857q0 13 10 37t15 30q42 -34 90 -70t75 -54l27 -19 l-11 -19q-126 35 -201 83q-5 3 -5 12z" />
<glyph unicode="&#xc1;" horiz-adv-x="660" d="M-13 30l75 22l230 648h76l232 -648l75 -22q0 -30 -15 -30q-12 0 -99 4l-119 -4q-15 0 -15 30l90 22l-63 177l-275 -14l-55 -163l95 -22q0 -30 -15 -30q-3 0 -111 4l-91 -4q-15 0 -15 30zM199 273h240l-122 346zM241 781q97 66 192 143q5 -6 15 -30t10 -37q0 -9 -5 -12 q-75 -48 -201 -83z" />
<glyph unicode="&#xc2;" horiz-adv-x="660" d="M-13 30l75 22l230 648h76l232 -648l75 -22q0 -30 -15 -30q-12 0 -99 4l-119 -4q-15 0 -15 30l90 22l-63 177l-275 -14l-55 -163l95 -22q0 -30 -15 -30q-3 0 -111 4l-91 -4q-15 0 -15 30zM199 273h240l-122 346zM227 770q64 91 100 159h45q36 -68 100 -159l-26 -17 l-96 102l-97 -102z" />
<glyph unicode="&#xc3;" horiz-adv-x="660" d="M-13 30l75 22l230 648h76l232 -648l75 -22q0 -30 -15 -30q-12 0 -99 4l-119 -4q-15 0 -15 30l90 22l-63 177l-275 -14l-55 -163l95 -22q0 -30 -15 -30q-3 0 -111 4l-91 -4q-15 0 -15 30zM192 817q43 75 101 75q24 0 68.5 -13.5t67.5 -13.5q30 0 62 30l17 -19 q-43 -75 -101 -75q-24 0 -68.5 13.5t-67.5 13.5q-30 0 -62 -30zM199 273h240l-122 346z" />
<glyph unicode="&#xc4;" horiz-adv-x="660" d="M-13 30l75 22l230 648h76l232 -648l75 -22q0 -30 -15 -30q-12 0 -99 4l-119 -4q-15 0 -15 30l90 22l-63 177l-275 -14l-55 -163l95 -22q0 -30 -15 -30q-3 0 -111 4l-91 -4q-15 0 -15 30zM199 273h240l-122 346zM233 840q0 35 7 56q33 7 49 7q31 0 31 -53q0 -35 -6 -53 q-32 -9 -49 -9q-32 0 -32 52zM381 840q0 35 7 56q33 7 49 7q31 0 31 -53q0 -35 -6 -53q-32 -9 -49 -9q-32 0 -32 52z" />
<glyph unicode="&#xc5;" horiz-adv-x="660" d="M-13 30l75 22l230 648h76l232 -648l75 -22q0 -30 -15 -30q-12 0 -99 4l-119 -4q-15 0 -15 30l90 22l-63 177l-275 -14l-55 -163l95 -22q0 -30 -15 -30q-3 0 -111 4l-91 -4q-15 0 -15 30zM199 273h240l-122 346zM257 848q0 40 27 63.5t67 23.5t65.5 -22t25.5 -63 q0 -45 -25.5 -68t-69.5 -23q-40 0 -65 23t-25 66zM303 848q0 -28 13.5 -42t33.5 -14q46 0 46 56q0 25 -13 39.5t-33 14.5q-25 0 -36 -13t-11 -41z" />
<glyph unicode="&#xc6;" horiz-adv-x="865" d="M-13 30l75 22l276 648l83 -4l339 4q31 0 32 -10l-24 -149q-43 0 -43 14v94l-293 -3l58 -264h282v-43l-270 -14l59 -270h221l26 94q0 14 42 14l-8 -151q-1 -12 -21 -12q-5 0 -296 8l-119 -8q-15 0 -15 30l90 22l-38 177l-251 -12l-68 -165l95 -22q0 -30 -15 -30 q-3 0 -111 4l-91 -4q-15 0 -15 30zM215 273h219l-75 349z" />
<glyph unicode="&#xc7;" horiz-adv-x="622" d="M30 354q0 85 26.5 154t73 113t107.5 67.5t132 23.5q117 0 206 -60l-26 -149q-45 0 -45 14v111q-63 25 -141 25q-72 0 -144 -24q-31 -23 -53.5 -64t-35 -96t-12.5 -117q0 -77 18.5 -136.5t52 -97.5t77.5 -57.5t97 -19.5q90 0 151 37l23 102q4 14 45 14l-8 -143 q-84 -63 -221 -63q-12 0 -24 1l-14 -45q45 -6 67.5 -29.5t22.5 -55.5q0 -36 -29 -64t-74 -28q-51 0 -86 31l19 30q24 -19 55 -19q24 0 38 14.5t14 34.5q0 23 -19.5 40.5t-56.5 18.5l31 75q-122 18 -194.5 110.5t-72.5 251.5z" />
<glyph unicode="&#xc8;" horiz-adv-x="581" d="M40 30l84 22v596l-84 22q0 30 15 30q9 0 103 -4l340 4q31 0 32 -10l-24 -149q-43 0 -43 14v94l-265 -3l9 -264h256v-43l-256 -13l-9 -271h275l26 94q0 14 42 14l-8 -151q-1 -12 -29 -12l-344 8l-105 -8q-15 0 -15 30zM182 857q0 13 10 37t15 30q42 -34 90 -70t75 -54 l27 -19l-11 -19q-126 35 -201 83q-5 3 -5 12z" />
<glyph unicode="&#xc9;" horiz-adv-x="581" d="M40 30l84 22v596l-84 22q0 30 15 30q9 0 103 -4l340 4q31 0 32 -10l-24 -149q-43 0 -43 14v94l-265 -3l9 -264h256v-43l-256 -13l-9 -271h275l26 94q0 14 42 14l-8 -151q-1 -12 -29 -12l-344 8l-105 -8q-15 0 -15 30zM182 781q97 66 192 143q5 -6 15 -30t10 -37 q0 -9 -5 -12q-75 -48 -201 -83z" />
<glyph unicode="&#xca;" horiz-adv-x="581" d="M40 30l84 22v596l-84 22q0 30 15 30q9 0 103 -4l340 4q31 0 32 -10l-24 -149q-43 0 -43 14v94l-265 -3l9 -264h256v-43l-256 -13l-9 -271h275l26 94q0 14 42 14l-8 -151q-1 -12 -29 -12l-344 8l-105 -8q-15 0 -15 30zM168 770q64 91 100 159h45q36 -68 100 -159l-26 -17 l-96 102l-97 -102z" />
<glyph unicode="&#xcb;" horiz-adv-x="581" d="M40 30l84 22v596l-84 22q0 30 15 30q9 0 103 -4l340 4q31 0 32 -10l-24 -149q-43 0 -43 14v94l-265 -3l9 -264h256v-43l-256 -13l-9 -271h275l26 94q0 14 42 14l-8 -151q-1 -12 -29 -12l-344 8l-105 -8q-15 0 -15 30zM173 840q0 35 7 56q33 7 49 7q31 0 31 -53 q0 -35 -6 -53q-32 -9 -49 -9q-32 0 -32 52zM321 840q0 35 7 56q33 7 49 7q31 0 31 -53q0 -35 -6 -53q-32 -9 -49 -9q-32 0 -32 52z" />
<glyph unicode="&#xcc;" horiz-adv-x="326" d="M39 30l86 22l-5 298l5 298l-86 22q0 30 15 30q18 0 112 -4l103 4q15 0 15 -30l-86 -22l5 -298l-5 -298l86 -22q0 -30 -15 -30q-10 0 -103 4l-112 -4q-15 0 -15 30zM55 857q0 13 10 37t15 30q42 -34 90 -70t75 -54l27 -19l-11 -19q-126 35 -201 83q-5 3 -5 12z" />
<glyph unicode="&#xcd;" horiz-adv-x="326" d="M39 30l86 22l-5 298l5 298l-86 22q0 30 15 30q18 0 112 -4l103 4q15 0 15 -30l-86 -22l5 -298l-5 -298l86 -22q0 -30 -15 -30q-10 0 -103 4l-112 -4q-15 0 -15 30zM55 781q97 66 192 143q5 -6 15 -30t10 -37q0 -9 -5 -12q-75 -48 -201 -83z" />
<glyph unicode="&#xce;" horiz-adv-x="326" d="M39 30l86 22l-5 298l5 298l-86 22q0 30 15 30q18 0 112 -4l103 4q15 0 15 -30l-86 -22l5 -298l-5 -298l86 -22q0 -30 -15 -30q-10 0 -103 4l-112 -4q-15 0 -15 30zM41 770q64 91 100 159h45q36 -68 100 -159l-26 -17l-96 102l-97 -102z" />
<glyph unicode="&#xcf;" horiz-adv-x="326" d="M39 30l86 22l-5 298l5 298l-86 22q0 30 15 30q18 0 112 -4l103 4q15 0 15 -30l-86 -22l5 -298l-5 -298l86 -22q0 -30 -15 -30q-10 0 -103 4l-112 -4q-15 0 -15 30zM46 840q0 35 7 56q33 7 49 7q31 0 31 -53q0 -35 -6 -53q-32 -9 -49 -9q-32 0 -32 52zM194 840q0 35 7 56 q33 7 49 7q31 0 31 -53q0 -35 -6 -53q-32 -9 -49 -9q-32 0 -32 52z" />
<glyph unicode="&#xd0;" horiz-adv-x="748" d="M50 30l84 22v275l-67 -3v58h67v266l-84 22q0 30 15 30q17 0 111 -4l204 16q143 0 235.5 -90.5t92.5 -258.5q0 -183 -93.5 -276t-250.5 -93l-188 14l-111 -8q-15 0 -15 30zM208 61q90 -20 166 -20q110 0 178 79t68 232q0 148 -68 227t-178 79q-86 0 -166 -19l9 -257h186 v-43l-186 -8z" />
<glyph unicode="&#xd1;" horiz-adv-x="790" d="M50 30l82 22v595l-82 22q0 31 15 31q12 0 135 -4l421 -570l-6 522l-105 22q0 30 16 30l121 -4l88 4q15 0 15 -30l-75 -22l-3 -648h-56l-430 583l8 -531l106 -22q0 -30 -16 -30l-121 4l-98 -4q-15 0 -15 30zM242 817q43 75 101 75q24 0 68.5 -13.5t67.5 -13.5q30 0 62 30 l17 -19q-43 -75 -101 -75q-24 0 -68.5 13.5t-67.5 13.5q-30 0 -62 -30z" />
<glyph unicode="&#xd2;" horiz-adv-x="727" d="M30 354q0 169 96 263.5t243 94.5q143 0 235.5 -90.5t92.5 -258.5q0 -184 -94 -279.5t-250 -95.5q-145 0 -234 94t-89 272zM118 352q0 -153 68 -234.5t177 -81.5q110 0 178 81.5t68 234.5q0 148 -68 227t-178 79q-72 0 -144 -24q-47 -35 -74 -110.5t-27 -171.5zM255 857 q0 13 10 37t15 30q42 -34 90 -70t75 -54l27 -19l-11 -19q-126 35 -201 83q-5 3 -5 12z" />
<glyph unicode="&#xd3;" horiz-adv-x="727" d="M30 354q0 169 96 263.5t243 94.5q143 0 235.5 -90.5t92.5 -258.5q0 -184 -94 -279.5t-250 -95.5q-145 0 -234 94t-89 272zM118 352q0 -153 68 -234.5t177 -81.5q110 0 178 81.5t68 234.5q0 148 -68 227t-178 79q-72 0 -144 -24q-47 -35 -74 -110.5t-27 -171.5zM255 781 q97 66 192 143q5 -6 15 -30t10 -37q0 -9 -5 -12q-75 -48 -201 -83z" />
<glyph unicode="&#xd4;" horiz-adv-x="727" d="M30 354q0 169 96 263.5t243 94.5q143 0 235.5 -90.5t92.5 -258.5q0 -184 -94 -279.5t-250 -95.5q-145 0 -234 94t-89 272zM118 352q0 -153 68 -234.5t177 -81.5q110 0 178 81.5t68 234.5q0 148 -68 227t-178 79q-72 0 -144 -24q-47 -35 -74 -110.5t-27 -171.5zM241 770 q64 91 100 159h45q36 -68 100 -159l-26 -17l-96 102l-97 -102z" />
<glyph unicode="&#xd5;" horiz-adv-x="727" d="M30 354q0 169 96 263.5t243 94.5q143 0 235.5 -90.5t92.5 -258.5q0 -184 -94 -279.5t-250 -95.5q-145 0 -234 94t-89 272zM118 352q0 -153 68 -234.5t177 -81.5q110 0 178 81.5t68 234.5q0 148 -68 227t-178 79q-72 0 -144 -24q-47 -35 -74 -110.5t-27 -171.5zM205 817 q43 75 101 75q24 0 68.5 -13.5t67.5 -13.5q30 0 62 30l17 -19q-43 -75 -101 -75q-24 0 -68.5 13.5t-67.5 13.5q-30 0 -62 -30z" />
<glyph unicode="&#xd6;" horiz-adv-x="727" d="M30 354q0 169 96 263.5t243 94.5q143 0 235.5 -90.5t92.5 -258.5q0 -184 -94 -279.5t-250 -95.5q-145 0 -234 94t-89 272zM118 352q0 -153 68 -234.5t177 -81.5q110 0 178 81.5t68 234.5q0 148 -68 227t-178 79q-72 0 -144 -24q-47 -35 -74 -110.5t-27 -171.5zM246 840 q0 35 7 56q33 7 49 7q31 0 31 -53q0 -35 -6 -53q-32 -9 -49 -9q-32 0 -32 52zM394 840q0 35 7 56q33 7 49 7q31 0 31 -53q0 -35 -6 -53q-32 -9 -49 -9q-32 0 -32 52z" />
<glyph unicode="&#xd7;" d="M92 155l122 122l-122 123l40 40l122 -123l123 123l40 -40l-123 -123l123 -122l-40 -40l-123 122l-122 -122z" />
<glyph unicode="&#xd8;" horiz-adv-x="727" d="M30 354q0 169 96 263.5t243 94.5q59 0 111 -16l23 54h54l-30 -73q79 -39 124.5 -118.5t45.5 -195.5q0 -184 -94 -279.5t-250 -95.5q-57 0 -107 15l-22 -53h-54l30 72q-80 40 -125 124t-45 208zM118 352q0 -191 106 -272l233 560q-43 18 -94 18q-72 0 -144 -24 q-47 -35 -74 -110.5t-27 -171.5zM268 55q43 -19 95 -19q110 0 178 81.5t68 234.5q0 186 -108 264z" />
<glyph unicode="&#xd9;" horiz-adv-x="733" d="M40 669q0 31 15 31q7 0 101 -4l115 4q16 0 16 -30l-95 -22v-433q0 -79 46.5 -125.5t143.5 -46.5q94 0 143.5 50t49.5 123v432l-95 22q0 30 16 30l109 -4l78 4q15 0 15 -30l-65 -22v-430q0 -104 -67.5 -167t-185.5 -63q-266 0 -266 230v430zM258 857q0 13 10 37t15 30 q42 -34 90 -70t75 -54l27 -19l-11 -19q-126 35 -201 83q-5 3 -5 12z" />
<glyph unicode="&#xda;" horiz-adv-x="733" d="M40 669q0 31 15 31q7 0 101 -4l115 4q16 0 16 -30l-95 -22v-433q0 -79 46.5 -125.5t143.5 -46.5q94 0 143.5 50t49.5 123v432l-95 22q0 30 16 30l109 -4l78 4q15 0 15 -30l-65 -22v-430q0 -104 -67.5 -167t-185.5 -63q-266 0 -266 230v430zM314 781q97 66 192 143 q5 -6 15 -30t10 -37q0 -9 -5 -12q-75 -48 -201 -83z" />
<glyph unicode="&#xdb;" horiz-adv-x="733" d="M40 669q0 31 15 31q7 0 101 -4l115 4q16 0 16 -30l-95 -22v-433q0 -79 46.5 -125.5t143.5 -46.5q94 0 143.5 50t49.5 123v432l-95 22q0 30 16 30l109 -4l78 4q15 0 15 -30l-65 -22v-430q0 -104 -67.5 -167t-185.5 -63q-266 0 -266 230v430zM268 770q64 91 100 159h45 q36 -68 100 -159l-26 -17l-96 102l-97 -102z" />
<glyph unicode="&#xdc;" horiz-adv-x="733" d="M40 669q0 31 15 31q7 0 101 -4l115 4q16 0 16 -30l-95 -22v-433q0 -79 46.5 -125.5t143.5 -46.5q94 0 143.5 50t49.5 123v432l-95 22q0 30 16 30l109 -4l78 4q15 0 15 -30l-65 -22v-430q0 -104 -67.5 -167t-185.5 -63q-266 0 -266 230v430zM272 840q0 35 7 56q33 7 49 7 q31 0 31 -53q0 -35 -6 -53q-32 -9 -49 -9q-32 0 -32 52zM420 840q0 35 7 56q33 7 49 7q31 0 31 -53q0 -35 -6 -53q-32 -9 -49 -9q-32 0 -32 52z" />
<glyph unicode="&#xdd;" horiz-adv-x="560" d="M-10 670q0 30 15 30q10 0 97 -4l105 4q15 0 15 -30l-85 -22l160 -327l143 327l-82 22q0 30 15 30l104 -4l78 4q15 -1 15 -30l-65 -22l-178 -369v-227l105 -22q0 -30 -15 -30q-33 0 -126 4l-132 -4q-15 0 -15 30l105 22v225l-194 371zM171 781q97 66 192 143q5 -6 15 -30 t10 -37q0 -9 -5 -12q-75 -48 -201 -83z" />
<glyph unicode="&#xde;" horiz-adv-x="562" d="M50 30l86 22l-5 298l5 298l-86 22q0 30 15 30q18 0 112 -4l103 4q15 0 15 -30l-86 -22l1 -75l115 3q95 0 151 -58t56 -145q0 -83 -65 -144.5t-186 -67.5l-70 -4l-2 -105l86 -22q0 -30 -15 -30q-10 0 -103 4l-112 -4q-15 0 -15 30zM211 524l3 -174l-2 -142l77 -5 q84 0 127.5 51t43.5 120q0 66 -39 113t-114 47z" />
<glyph unicode="&#xdf;" horiz-adv-x="606" d="M30 30l86 22v366l-69 6q0 29 14 31l55 9q0 123 26 194.5t101 99.5q123 0 178 -39.5t55 -104.5q0 -27 -21.5 -64t-47 -68t-47 -66.5t-21.5 -58.5q0 -36 37 -57l125 -73q85 -50 85 -119q0 -58 -45 -89t-120 -31q-80 0 -157 26q0 7 5 40t10 62t6 29q37 0 37 -14v-74 q41 -24 105 -24q90 0 90 64q0 40 -50 69l-116 67q-71 41 -71 113q0 36 32 88t63.5 101t31.5 79q0 50 -45.5 79t-108.5 29q-27 -4 -50 -34.5t-23 -69.5q0 -26 3.5 -82t3.5 -80v-451l-143 -5q-14 0 -14 30z" />
<glyph unicode="&#xe0;" horiz-adv-x="496" d="M50 102q0 62 66.5 108t201.5 49v60q0 48 -29.5 79.5t-79.5 31.5q-3 -3 -20 -20.5t-29 -28.5t-29 -22t-28 -11q-15 0 -26 20.5t-13 37.5q80 44 173 62q76 0 114 -40t38 -106v-255q0 -36 43 -36q12 0 30 3q9 -9 9 -25q-34 -21 -71 -21q-69 0 -80 64q-123 -64 -167 -64 q-48 0 -75.5 34t-27.5 80zM125 613q0 13 10 37t15 30q42 -34 90 -70t75 -54l27 -19l-11 -19q-126 35 -201 83q-5 3 -5 12zM126 120q0 -33 15 -54.5t46 -21.5q61 0 131 47v135q-130 -16 -187 -66q-5 -20 -5 -40z" />
<glyph unicode="&#xe1;" horiz-adv-x="496" d="M50 102q0 62 66.5 108t201.5 49v60q0 48 -29.5 79.5t-79.5 31.5q-3 -3 -20 -20.5t-29 -28.5t-29 -22t-28 -11q-15 0 -26 20.5t-13 37.5q80 44 173 62q76 0 114 -40t38 -106v-255q0 -36 43 -36q12 0 30 3q9 -9 9 -25q-34 -21 -71 -21q-69 0 -80 64q-123 -64 -167 -64 q-48 0 -75.5 34t-27.5 80zM126 120q0 -33 15 -54.5t46 -21.5q61 0 131 47v135q-130 -16 -187 -66q-5 -20 -5 -40zM157 537q97 66 192 143q5 -6 15 -30t10 -37q0 -9 -5 -12q-75 -48 -201 -83z" />
<glyph unicode="&#xe2;" horiz-adv-x="496" d="M50 102q0 62 66.5 108t201.5 49v60q0 48 -29.5 79.5t-79.5 31.5q-3 -3 -20 -20.5t-29 -28.5t-29 -22t-28 -11q-15 0 -26 20.5t-13 37.5q80 44 173 62q76 0 114 -40t38 -106v-255q0 -36 43 -36q12 0 30 3q9 -9 9 -25q-34 -21 -71 -21q-69 0 -80 64q-123 -64 -167 -64 q-48 0 -75.5 34t-27.5 80zM104 526q64 91 100 159h45q36 -68 100 -159l-26 -17l-96 102l-97 -102zM126 120q0 -33 15 -54.5t46 -21.5q61 0 131 47v135q-130 -16 -187 -66q-5 -20 -5 -40z" />
<glyph unicode="&#xe3;" horiz-adv-x="496" d="M50 102q0 62 66.5 108t201.5 49v60q0 48 -29.5 79.5t-79.5 31.5q-3 -3 -20 -20.5t-29 -28.5t-29 -22t-28 -11q-15 0 -26 20.5t-13 37.5q80 44 173 62q76 0 114 -40t38 -106v-255q0 -36 43 -36q12 0 30 3q9 -9 9 -25q-34 -21 -71 -21q-69 0 -80 64q-123 -64 -167 -64 q-48 0 -75.5 34t-27.5 80zM88 573q43 75 101 75q24 0 68.5 -13.5t67.5 -13.5q30 0 62 30l17 -19q-43 -75 -101 -75q-24 0 -68.5 13.5t-67.5 13.5q-30 0 -62 -30zM126 120q0 -33 15 -54.5t46 -21.5q61 0 131 47v135q-130 -16 -187 -66q-5 -20 -5 -40z" />
<glyph unicode="&#xe4;" horiz-adv-x="496" d="M50 102q0 62 66.5 108t201.5 49v60q0 48 -29.5 79.5t-79.5 31.5q-3 -3 -20 -20.5t-29 -28.5t-29 -22t-28 -11q-15 0 -26 20.5t-13 37.5q80 44 173 62q76 0 114 -40t38 -106v-255q0 -36 43 -36q12 0 30 3q9 -9 9 -25q-34 -21 -71 -21q-69 0 -80 64q-123 -64 -167 -64 q-48 0 -75.5 34t-27.5 80zM126 120q0 -33 15 -54.5t46 -21.5q61 0 131 47v135q-130 -16 -187 -66q-5 -20 -5 -40zM129 596q0 35 7 56q33 7 49 7q31 0 31 -53q0 -35 -6 -53q-32 -9 -49 -9q-32 0 -32 52zM277 596q0 35 7 56q33 7 49 7q31 0 31 -53q0 -35 -6 -53q-32 -9 -49 -9 q-32 0 -32 52z" />
<glyph unicode="&#xe5;" horiz-adv-x="496" d="M50 102q0 62 66.5 108t201.5 49v60q0 48 -29.5 79.5t-79.5 31.5q-3 -3 -20 -20.5t-29 -28.5t-29 -22t-28 -11q-15 0 -26 20.5t-13 37.5q80 44 173 62q76 0 114 -40t38 -106v-255q0 -36 43 -36q12 0 30 3q9 -9 9 -25q-34 -21 -71 -21q-69 0 -80 64q-123 -64 -167 -64 q-48 0 -75.5 34t-27.5 80zM126 120q0 -33 15 -54.5t46 -21.5q61 0 131 47v135q-130 -16 -187 -66q-5 -20 -5 -40zM153 604q0 40 27 63.5t67 23.5t65.5 -22t25.5 -63q0 -45 -25.5 -68t-69.5 -23q-40 0 -65 23t-25 66zM199 604q0 -28 13.5 -42t33.5 -14q46 0 46 56 q0 25 -13 39.5t-33 14.5q-25 0 -36 -13t-11 -41z" />
<glyph unicode="&#xe6;" horiz-adv-x="731" d="M50 102q0 62 66.5 109t201.5 50v58q0 48 -29.5 79.5t-79.5 31.5q-3 -3 -20 -20.5t-29 -28.5t-29 -22t-28 -11q-15 0 -26 20.5t-13 37.5q80 44 173 62q102 0 137 -73q65 73 177 73q72 0 113.5 -58.5t41.5 -142.5v-22q-126 -21 -252 -21h-65q0 -96 41.5 -142t114.5 -46 q55 0 115 25q13 -12 17 -30q-66 -43 -149 -43q-118 0 -175 78q-113 -78 -200 -78q-48 0 -75.5 34t-27.5 80zM126 120q0 -33 15 -54.5t46 -21.5q61 0 131 47v133q-133 -17 -187 -64q-5 -20 -5 -40zM392 262q116 2 230 21q3 18 3 34q0 48 -26 75.5t-76 27.5q-27 0 -48 -5 q-68 -46 -83 -153z" />
<glyph unicode="&#xe7;" horiz-adv-x="435" d="M40 230q0 112 67 175t169 63q62 -11 121 -39q0 -21 -10.5 -42t-19.5 -21q-11 0 -27 7t-26.5 14.5t-32 22.5t-28.5 20q-135 -18 -135 -199q0 -91 42.5 -143t115.5 -52q51 0 109 25q14 -11 18 -30q-67 -43 -140 -43h-16l-13 -44q45 -6 67.5 -29.5t22.5 -55.5 q0 -17 -7.5 -33.5t-20.5 -29.5t-32.5 -21t-42.5 -8q-51 0 -86 31l19 30q24 -19 55 -19q24 0 38 14.5t14 34.5q0 15 -7.5 27.5t-25.5 21.5t-43 10l31 75q-81 14 -128.5 75t-47.5 163z" />
<glyph unicode="&#xe8;" horiz-adv-x="469" d="M40 209q0 120 65 189.5t174 69.5q72 0 113.5 -58.5t41.5 -142.5v-22q-126 -21 -252 -21h-65v-14q0 -82 42 -128t114 -46q55 0 115 25q13 -12 17 -30q-66 -43 -149 -43q-97 0 -156.5 57t-59.5 164zM120 262q116 2 230 21q3 18 3 34q0 48 -26 75.5t-76 27.5q-27 0 -48 -5 q-68 -46 -83 -153zM137 613q0 13 10 37t15 30q42 -34 90 -70t75 -54l27 -19l-11 -19q-126 35 -201 83q-5 3 -5 12z" />
<glyph unicode="&#xe9;" horiz-adv-x="469" d="M40 209q0 120 65 189.5t174 69.5q72 0 113.5 -58.5t41.5 -142.5v-22q-126 -21 -252 -21h-65v-14q0 -82 42 -128t114 -46q55 0 115 25q13 -12 17 -30q-66 -43 -149 -43q-97 0 -156.5 57t-59.5 164zM120 262q116 2 230 21q3 18 3 34q0 48 -26 75.5t-76 27.5q-27 0 -48 -5 q-68 -46 -83 -153zM147 537q97 66 192 143q5 -6 15 -30t10 -37q0 -9 -5 -12q-75 -48 -201 -83z" />
<glyph unicode="&#xea;" horiz-adv-x="469" d="M40 209q0 120 65 189.5t174 69.5q72 0 113.5 -58.5t41.5 -142.5v-22q-126 -21 -252 -21h-65v-14q0 -82 42 -128t114 -46q55 0 115 25q13 -12 17 -30q-66 -43 -149 -43q-97 0 -156.5 57t-59.5 164zM117 526q64 91 100 159h45q36 -68 100 -159l-26 -17l-96 102l-97 -102z M120 262q116 2 230 21q3 18 3 34q0 48 -26 75.5t-76 27.5q-27 0 -48 -5q-68 -46 -83 -153z" />
<glyph unicode="&#xeb;" horiz-adv-x="469" d="M40 209q0 120 65 189.5t174 69.5q72 0 113.5 -58.5t41.5 -142.5v-22q-126 -21 -252 -21h-65v-14q0 -82 42 -128t114 -46q55 0 115 25q13 -12 17 -30q-66 -43 -149 -43q-97 0 -156.5 57t-59.5 164zM120 262q116 2 230 21q3 18 3 34q0 48 -26 75.5t-76 27.5q-27 0 -48 -5 q-68 -46 -83 -153zM123 596q0 35 7 56q33 7 49 7q31 0 31 -53q0 -35 -6 -53q-32 -9 -49 -9q-32 0 -32 52zM271 596q0 35 7 56q33 7 49 7q31 0 31 -53q0 -35 -6 -53q-32 -9 -49 -9q-32 0 -32 52z" />
<glyph unicode="&#xec;" horiz-adv-x="303" d="M33 613q0 13 10 37t15 30q42 -34 90 -70t75 -54l27 -19l-11 -19q-126 35 -201 83q-5 3 -5 12zM40 30l86 22v358h-71q-14 0 -14 37q0 1 31.5 6t66.5 10t42 5q16 -9 16 -28v-388l86 -22q0 -30 -14 -30l-107 4l-108 -4q-14 0 -14 30z" />
<glyph unicode="&#xed;" horiz-adv-x="307" d="M40 30l86 22v358h-71q-14 0 -14 37q0 1 31.5 6t66.5 10t42 5q16 -9 16 -28v-388l86 -22q0 -30 -14 -30l-107 4l-108 -4q-14 0 -14 30zM57 537q97 66 192 143q5 -6 15 -30t10 -37q0 -9 -5 -12q-75 -48 -201 -83z" />
<glyph unicode="&#xee;" horiz-adv-x="303" d="M24 526q64 91 100 159h45q36 -68 100 -159l-26 -17l-96 102l-97 -102zM40 30l86 22v358h-71q-14 0 -14 37q0 1 31.5 6t66.5 10t42 5q16 -9 16 -28v-388l86 -22q0 -30 -14 -30l-107 4l-108 -4q-14 0 -14 30z" />
<glyph unicode="&#xef;" horiz-adv-x="303" d="M37 596q0 35 7 56q33 7 49 7q31 0 31 -53q0 -35 -6 -53q-32 -9 -49 -9q-32 0 -32 52zM40 30l86 22v358h-71q-14 0 -14 37q0 1 31.5 6t66.5 10t42 5q16 -9 16 -28v-388l86 -22q0 -30 -14 -30l-107 4l-108 -4q-14 0 -14 30zM185 596q0 35 7 56q33 7 49 7q31 0 31 -53 q0 -35 -6 -53q-32 -9 -49 -9q-32 0 -32 52z" />
<glyph unicode="&#xf0;" horiz-adv-x="522" d="M40 230q0 112 64 175t161 63q57 0 99 -27q-38 74 -101 135l-102 -58l-25 48l89 45q-52 44 -116 82l22 38q78 -42 142 -96l117 60l19 -36l-99 -57q172 -163 172 -366q0 -121 -62.5 -184.5t-165.5 -63.5q-95 0 -154.5 62.5t-59.5 179.5zM118 231q0 -97 40.5 -148t104.5 -51 t103 51t39 148q0 94 -39 143.5t-103 49.5q-50 0 -85 -15q-28 -22 -44 -69.5t-16 -108.5z" />
<glyph unicode="&#xf1;" horiz-adv-x="596" d="M40 30l86 22v346h-72q-14 0 -14 37q0 1 28 6t59.5 10t38.5 5q9 0 15.5 -12.5t15.5 -50.5q63 50 136 75q76 0 114 -40t38 -106v-270l86 -22q0 -30 -14 -30l-109 4l-92 -4q-14 0 -14 30l72 22v267q0 90 -85 90q-53 0 -113 -38q-19 -47 -19 -77v-242l72 -22q0 -30 -14 -30 l-92 4l-109 -4q-14 0 -14 30zM137 573q43 75 101 75q24 0 68.5 -13.5t67.5 -13.5q30 0 62 30l17 -19q-43 -75 -101 -75q-24 0 -68.5 13.5t-67.5 13.5q-30 0 -62 -30z" />
<glyph unicode="&#xf2;" horiz-adv-x="522" d="M40 230q0 112 64 175t161 63q94 0 155.5 -60.5t61.5 -171.5q0 -121 -62.5 -184.5t-165.5 -63.5q-95 0 -154.5 62.5t-59.5 179.5zM118 231q0 -97 39.5 -148t103.5 -51t103.5 51t39.5 148q0 93 -40 143t-103 50q-49 0 -84 -15q-59 -48 -59 -178zM156 613q0 13 10 37t15 30 q42 -34 90 -70t75 -54l27 -19l-11 -19q-126 35 -201 83q-5 3 -5 12z" />
<glyph unicode="&#xf3;" horiz-adv-x="522" d="M40 230q0 112 64 175t161 63q94 0 155.5 -60.5t61.5 -171.5q0 -121 -62.5 -184.5t-165.5 -63.5q-95 0 -154.5 62.5t-59.5 179.5zM118 231q0 -97 39.5 -148t103.5 -51t103.5 51t39.5 148q0 93 -40 143t-103 50q-49 0 -84 -15q-59 -48 -59 -178zM167 537q97 66 192 143 q5 -6 15 -30t10 -37q0 -9 -5 -12q-75 -48 -201 -83z" />
<glyph unicode="&#xf4;" horiz-adv-x="522" d="M40 230q0 112 64 175t161 63q94 0 155.5 -60.5t61.5 -171.5q0 -121 -62.5 -184.5t-165.5 -63.5q-95 0 -154.5 62.5t-59.5 179.5zM118 231q0 -97 39.5 -148t103.5 -51t103.5 51t39.5 148q0 93 -40 143t-103 50q-49 0 -84 -15q-59 -48 -59 -178zM138 526q64 91 100 159h45 q36 -68 100 -159l-26 -17l-96 102l-97 -102z" />
<glyph unicode="&#xf5;" horiz-adv-x="522" d="M40 230q0 112 64 175t161 63q94 0 155.5 -60.5t61.5 -171.5q0 -121 -62.5 -184.5t-165.5 -63.5q-95 0 -154.5 62.5t-59.5 179.5zM103 573q43 75 101 75q24 0 68.5 -13.5t67.5 -13.5q30 0 62 30l17 -19q-43 -75 -101 -75q-24 0 -68.5 13.5t-67.5 13.5q-30 0 -62 -30z M118 231q0 -97 39.5 -148t103.5 -51t103.5 51t39.5 148q0 93 -40 143t-103 50q-49 0 -84 -15q-59 -48 -59 -178z" />
<glyph unicode="&#xf6;" horiz-adv-x="522" d="M40 230q0 112 64 175t161 63q94 0 155.5 -60.5t61.5 -171.5q0 -121 -62.5 -184.5t-165.5 -63.5q-95 0 -154.5 62.5t-59.5 179.5zM118 231q0 -97 39.5 -148t103.5 -51t103.5 51t39.5 148q0 93 -40 143t-103 50q-49 0 -84 -15q-59 -48 -59 -178zM144 596q0 35 7 56 q33 7 49 7q31 0 31 -53q0 -35 -6 -53q-32 -9 -49 -9q-32 0 -32 52zM292 596q0 35 7 56q33 7 49 7q31 0 31 -53q0 -35 -6 -53q-32 -9 -49 -9q-32 0 -32 52z" />
<glyph unicode="&#xf7;" d="M73 249v57h364v-57h-364zM215 152q0 17 12 29t28 12q17 0 29 -12.5t12 -28.5t-12 -28t-29 -12t-28.5 12t-11.5 28zM215 402q0 17 12 29t28 12q17 0 29 -12.5t12 -28.5t-12 -28t-29 -12t-28.5 12t-11.5 28z" />
<glyph unicode="&#xf8;" horiz-adv-x="522" d="M40 230q0 112 64 175t161 63q35 0 66 -9l70 168h54l-78 -186q32 -18 55 -46t36.5 -68.5t13.5 -90.5q0 -121 -62.5 -184.5t-165.5 -63.5q-33 0 -62 8l-70 -169h-54l78 187q-50 27 -78 82t-28 134zM118 231q0 -109 51 -161l143 344q-23 10 -51 10q-49 0 -84 -15 q-28 -22 -43.5 -70t-15.5 -108zM211 41q23 -9 50 -9q64 0 103.5 51t39.5 148q0 103 -50 154z" />
<glyph unicode="&#xf9;" horiz-adv-x="563" d="M15 447q0 1 31.5 6t66.5 10t42 5q16 -9 16 -28v-304q0 -49 28 -69t66 -20q60 0 127 50v313h-71q-14 0 -14 37q0 1 31.5 6t66.5 10t42 5q16 -9 16 -28v-373q0 -36 43 -36q12 0 30 3q9 -9 9 -25q-34 -21 -71 -21q-69 0 -80 64q-32 -21 -64.5 -37t-50 -21.5t-22.5 -5.5 q-82 0 -119.5 40.5t-37.5 108.5v273h-71q-14 0 -14 37zM168 613q0 13 10 37t15 30q42 -34 90 -70t75 -54l27 -19l-11 -19q-126 35 -201 83q-5 3 -5 12z" />
<glyph unicode="&#xfa;" horiz-adv-x="563" d="M15 447q0 1 31.5 6t66.5 10t42 5q16 -9 16 -28v-304q0 -49 28 -69t66 -20q60 0 127 50v313h-71q-14 0 -14 37q0 1 31.5 6t66.5 10t42 5q16 -9 16 -28v-373q0 -36 43 -36q12 0 30 3q9 -9 9 -25q-34 -21 -71 -21q-69 0 -80 64q-32 -21 -64.5 -37t-50 -21.5t-22.5 -5.5 q-82 0 -119.5 40.5t-37.5 108.5v273h-71q-14 0 -14 37zM203 537q97 66 192 143q5 -6 15 -30t10 -37q0 -9 -5 -12q-75 -48 -201 -83z" />
<glyph unicode="&#xfb;" horiz-adv-x="563" d="M15 447q0 1 31.5 6t66.5 10t42 5q16 -9 16 -28v-304q0 -49 28 -69t66 -20q60 0 127 50v313h-71q-14 0 -14 37q0 1 31.5 6t66.5 10t42 5q16 -9 16 -28v-373q0 -36 43 -36q12 0 30 3q9 -9 9 -25q-34 -21 -71 -21q-69 0 -80 64q-32 -21 -64.5 -37t-50 -21.5t-22.5 -5.5 q-82 0 -119.5 40.5t-37.5 108.5v273h-71q-14 0 -14 37zM166 526q64 91 100 159h45q36 -68 100 -159l-26 -17l-96 102l-97 -102z" />
<glyph unicode="&#xfc;" horiz-adv-x="563" d="M15 447q0 1 31.5 6t66.5 10t42 5q16 -9 16 -28v-304q0 -49 28 -69t66 -20q60 0 127 50v313h-71q-14 0 -14 37q0 1 31.5 6t66.5 10t42 5q16 -9 16 -28v-373q0 -36 43 -36q12 0 30 3q9 -9 9 -25q-34 -21 -71 -21q-69 0 -80 64q-32 -21 -64.5 -37t-50 -21.5t-22.5 -5.5 q-82 0 -119.5 40.5t-37.5 108.5v273h-71q-14 0 -14 37zM171 596q0 35 7 56q33 7 49 7q31 0 31 -53q0 -35 -6 -53q-32 -9 -49 -9q-32 0 -32 52zM319 596q0 35 7 56q33 7 49 7q31 0 31 -53q0 -35 -6 -53q-32 -9 -49 -9q-32 0 -32 52z" />
<glyph unicode="&#xfd;" horiz-adv-x="441" d="M-10 426q0 30 14 30l78 -4l73 4q14 0 14 -30l-62 -20l119 -306l109 306l-62 20q0 30 13 30l69 -4l62 4q14 0 14 -30l-47 -22l-148 -404l-110 -243q-8 -19 -27 -19t-57 21l28 45q27 46 65.5 110.5t55.5 92.5l-154 397zM114 537q97 66 192 143q5 -6 15 -30t10 -37 q0 -9 -5 -12q-75 -48 -201 -83z" />
<glyph unicode="&#xfe;" horiz-adv-x="562" d="M18 741q0 1 32 6t68 10t43 5q16 -9 16 -28l-4 -337l4 -4q62 48 135 75q91 0 150.5 -62.5t59.5 -177.5q0 -121 -60 -180.5t-156 -59.5q-54 0 -97 23l12 34q39 -14 68 -14q73 0 114 47.5t41 147.5q0 86 -37 134.5t-98 48.5q-53 0 -113 -38q-19 -42 -19 -92v-477l112 -22 q0 -30 -14 -30l-132 4l-109 -4q-14 0 -14 30l86 22v902h-74q-14 0 -14 37z" />
<glyph unicode="&#xff;" horiz-adv-x="441" d="M-10 426q0 30 14 30l78 -4l73 4q14 0 14 -30l-62 -20l119 -306l109 306l-62 20q0 30 13 30l69 -4l62 4q14 0 14 -30l-47 -22l-148 -404l-110 -243q-8 -19 -27 -19t-57 21l28 45q27 46 65.5 110.5t55.5 92.5l-154 397zM105 596q0 35 7 56q33 7 49 7q31 0 31 -53 q0 -35 -6 -53q-32 -9 -49 -9q-32 0 -32 52zM253 596q0 35 7 56q33 7 49 7q31 0 31 -53q0 -35 -6 -53q-32 -9 -49 -9q-32 0 -32 52z" />
<glyph unicode="&#x152;" horiz-adv-x="956" d="M40 341q0 182 87.5 276.5t227.5 94.5q68 0 168 -16l340 4q31 0 32 -10l-24 -149q-43 0 -43 14v94l-265 -3l9 -264h256v-43l-256 -13l-9 -271h275l26 94q0 14 42 14l-8 -151q-1 -12 -29 -12l-344 8q-82 -20 -164 -20q-144 0 -232.5 89t-88.5 264zM128 355 q0 -155 68.5 -237t178.5 -82q52 0 114 21v586q-71 18 -129 18q-67 0 -130 -22q-47 -36 -74.5 -112t-27.5 -172z" />
<glyph unicode="&#x153;" horiz-adv-x="833" d="M40 230q0 75 30.5 130t81 81.5t113.5 26.5q59 0 107 -24.5t76 -71.5q65 96 195 96q72 0 113.5 -58.5t41.5 -142.5v-22q-126 -21 -252 -21h-64q0 -8 -1 -17q0 -53 19.5 -92t54.5 -59t82 -20q55 0 115 25q13 -12 17 -30q-66 -43 -149 -43q-125 0 -181 87q-60 -87 -185 -87 q-95 0 -154.5 62.5t-59.5 179.5zM118 231q0 -97 39.5 -148t103.5 -51t103.5 51t39.5 148q0 93 -40 143t-103 50q-49 0 -84 -15q-28 -22 -43.5 -70t-15.5 -108zM484 262q116 2 230 21q3 18 3 34q0 48 -26 75.5t-76 27.5q-27 0 -48 -5q-68 -46 -83 -153z" />
<glyph unicode="&#x178;" horiz-adv-x="560" d="M-10 670q0 30 15 30q10 0 97 -4l105 4q15 0 15 -30l-85 -22l160 -327l143 327l-82 22q0 30 15 30l104 -4l78 4q15 -1 15 -30l-65 -22l-178 -369v-227l105 -22q0 -30 -15 -30q-33 0 -126 4l-132 -4q-15 0 -15 30l105 22v225l-194 371zM163 840q0 35 7 56q33 7 49 7 q31 0 31 -53q0 -35 -6 -53q-32 -9 -49 -9q-32 0 -32 52zM311 840q0 35 7 56q33 7 49 7q31 0 31 -53q0 -35 -6 -53q-32 -9 -49 -9q-32 0 -32 52z" />
<glyph unicode="&#x2c6;" horiz-adv-x="335" d="M45 526q64 91 100 159h45q36 -68 100 -159l-26 -17l-96 102l-97 -102z" />
<glyph unicode="&#x2dc;" horiz-adv-x="416" d="M50 573q43 75 101 75q24 0 68.5 -13.5t67.5 -13.5q30 0 62 30l17 -19q-43 -75 -101 -75q-24 0 -68.5 13.5t-67.5 13.5q-30 0 -62 -30z" />
<glyph unicode="&#x2000;" horiz-adv-x="467" />
<glyph unicode="&#x2001;" horiz-adv-x="935" />
<glyph unicode="&#x2002;" horiz-adv-x="467" />
<glyph unicode="&#x2003;" horiz-adv-x="935" />
<glyph unicode="&#x2004;" horiz-adv-x="311" />
<glyph unicode="&#x2005;" horiz-adv-x="233" />
<glyph unicode="&#x2006;" horiz-adv-x="155" />
<glyph unicode="&#x2007;" horiz-adv-x="155" />
<glyph unicode="&#x2008;" horiz-adv-x="116" />
<glyph unicode="&#x2009;" horiz-adv-x="187" />
<glyph unicode="&#x200a;" horiz-adv-x="51" />
<glyph unicode="&#x2010;" horiz-adv-x="390" d="M50 279h283l7 -33q-53 -26 -173 -26q-62 0 -112 9z" />
<glyph unicode="&#x2011;" horiz-adv-x="390" d="M50 279h283l7 -33q-53 -26 -173 -26q-62 0 -112 9z" />
<glyph unicode="&#x2012;" horiz-adv-x="390" d="M50 279h283l7 -33q-53 -26 -173 -26q-62 0 -112 9z" />
<glyph unicode="&#x2013;" horiz-adv-x="591" d="M125 225v56h361v-56h-361z" />
<glyph unicode="&#x2014;" horiz-adv-x="839" d="M125 225v56h609v-56h-609z" />
<glyph unicode="&#x2018;" horiz-adv-x="204" d="M31 585q0 54 37 98t96 56l9 -29q-39 -12 -60.5 -38.5t-21.5 -59.5v-4q6 1 16 1q37 0 37 -61q0 -14 -2 -30t-4 -26l-2 -9q-30 -7 -59 -7q-21 0 -33.5 31t-12.5 78z" />
<glyph unicode="&#x2019;" horiz-adv-x="204" d="M31 496q39 12 60.5 38.5t21.5 59.5v4q-6 -1 -16 -1q-37 0 -37 61q0 14 2 30t4 26l2 9q30 7 59 7q21 0 33.5 -31t12.5 -78q0 -54 -37 -98t-96 -56z" />
<glyph unicode="&#x201a;" horiz-adv-x="197" d="M19 -113q39 12 60.5 38.5t21.5 59.5v4q-6 -1 -16 -1q-37 0 -37 61q0 14 2 30t4 25l2 10q30 7 59 7q21 0 33.5 -31t12.5 -78q0 -54 -37 -98t-96 -56z" />
<glyph unicode="&#x201c;" horiz-adv-x="380" d="M31 585q0 54 37 98t96 56l9 -29q-39 -12 -60.5 -38.5t-21.5 -59.5v-4q6 1 16 1q37 0 37 -61q0 -14 -2 -30t-4 -26l-2 -9q-30 -7 -59 -7q-21 0 -33.5 31t-12.5 78zM207 585q0 54 37 98t96 56l9 -29q-39 -12 -60.5 -38.5t-21.5 -59.5v-4q6 1 16 1q37 0 37 -61q0 -14 -2 -30 t-4 -26l-2 -9q-30 -7 -59 -7q-21 0 -33.5 31t-12.5 78z" />
<glyph unicode="&#x201d;" horiz-adv-x="380" d="M31 496q39 12 60.5 38.5t21.5 59.5v4q-6 -1 -16 -1q-37 0 -37 61q0 14 2 30t4 26l2 9q30 7 59 7q21 0 33.5 -31t12.5 -78q0 -54 -37 -98t-96 -56zM207 496q39 12 60.5 38.5t21.5 59.5v4q-6 -1 -16 -1q-37 0 -37 61q0 14 2 30t4 26l2 9q30 7 59 7q21 0 33.5 -31t12.5 -78 q0 -54 -37 -98t-96 -56z" />
<glyph unicode="&#x201e;" horiz-adv-x="380" d="M31 -113q39 12 60.5 38.5t21.5 59.5v4q-6 -1 -16 -1q-37 0 -37 61q0 14 2 30t4 25l2 10q30 7 59 7q21 0 33.5 -31t12.5 -78q0 -54 -37 -98t-96 -56zM207 -113q39 12 60.5 38.5t21.5 59.5v4q-6 -1 -16 -1q-37 0 -37 61q0 14 2 30t4 25l2 10q30 7 59 7q21 0 33.5 -31 t12.5 -78q0 -54 -37 -98t-96 -56z" />
<glyph unicode="&#x2022;" horiz-adv-x="251" d="M50 260q0 17 3 36.5t6 31.5l3 11q54 8 85 8q54 0 54 -76q0 -15 -2.5 -33.5t-4.5 -29.5l-3 -11q-53 -11 -86 -11q-55 0 -55 74z" />
<glyph unicode="&#x2026;" horiz-adv-x="591" d="M48 49q0 14 2 30t4 25l2 10q36 7 57 7q36 0 36 -62l-7 -62q-35 -9 -57 -9q-37 0 -37 61zM245 49q0 14 2 30t4 25l2 10q36 7 57 7q36 0 36 -62l-7 -62q-35 -9 -57 -9q-37 0 -37 61zM442 49q0 14 2 30t4 25l2 10q36 7 57 7q36 0 36 -62l-7 -62q-35 -9 -57 -9q-37 0 -37 61z " />
<glyph unicode="&#x202f;" horiz-adv-x="187" />
<glyph unicode="&#x2039;" horiz-adv-x="297" d="M30 213v28l188 203l29 -24l-130 -193l130 -193l-29 -24z" />
<glyph unicode="&#x203a;" horiz-adv-x="297" d="M50 34l130 193l-130 193l29 24l188 -203v-28l-188 -203z" />
<glyph unicode="&#x205f;" horiz-adv-x="233" />
<glyph unicode="&#x20ac;" d="M39 214v37h54v47h-54v37h57q14 108 73.5 168t143.5 60t152 -39q-1 -7 -8 -38t-14 -60l-7 -28q-10 0 -25 4t-15 12l4 73q-37 26 -91 26q-115 0 -131 -178h147v-37h-149v-47h149v-37h-147q16 -177 131 -177q45 0 89 27l-4 73q0 8 15 12t25 4l7 -29q7 -28 14 -59t8 -38 q-73 -39 -162 -39q-82 0 -137 57.5t-68 168.5h-57z" />
<glyph unicode="&#x2122;" horiz-adv-x="798" d="M24 691q0 9 22 9l119 -3l120 3q22 0 22 -9q0 -1 -6 -85q-33 0 -34 12l-6 46l-71 -2l2 -139l-2 -140l55 -11q0 -25 -14 -25q-19 0 -64 2l-67 -2q-14 0 -14 25l55 11l-2 140l2 139l-70 2l-7 -46q-2 -12 -34 -12zM319 372l42 11l15 280l-40 10q0 27 14 27l83 -2l97 -239 l110 239l80 2q14 0 14 -27l-40 -10l16 -280l41 -11q0 -25 -14 -25l-57 2l-56 -2q-15 0 -15 25l47 11l-10 234l-112 -246h-18l-102 240l-11 -228l47 -11q0 -25 -15 -25l-54 2l-47 -2q-15 0 -15 25z" />
<glyph unicode="&#xe000;" horiz-adv-x="455" d="M0 0v455h455v-455h-455z" />
<glyph unicode="&#xfb01;" horiz-adv-x="642" d="M30 30l86 22v357h-61q-14 0 -14 39l75 12q0 59 3 99.5t13 84t32 72.5t56 46q32 0 79 -13t70 -26q0 -21 -10.5 -42t-19.5 -21q-11 0 -27 7t-26.5 14.5t-32 22.5t-28.5 20q-38 -33 -38 -208v-59h119q0 -48 -14 -48h-105v-357l112 -22q0 -30 -14 -30l-132 4l-109 -4 q-14 0 -14 30zM379 30l86 22v358h-71q-14 0 -14 37q0 1 31.5 6t66.5 10t42 5q16 -9 16 -28v-388l86 -22q0 -30 -14 -30l-107 4l-108 -4q-14 0 -14 30zM452 611q0 13 2 27.5t4 23.5l2 8q32 7 51 7q34 0 34 -56l-7 -56q-31 -9 -51 -9q-35 0 -35 55z" />
<glyph unicode="&#xfb02;" horiz-adv-x="622" d="M30 30l86 22v357h-61q-14 0 -14 39l75 12q0 59 3 99.5t13 84t32 72.5t56 46q32 0 79 -13t70 -26q0 -21 -10.5 -42t-19.5 -21q-11 0 -27 7t-26.5 14.5t-32 22.5t-28.5 20q-38 -33 -38 -208v-59h119q0 -48 -14 -48h-105v-357l112 -22q0 -30 -14 -30l-132 4l-109 -4 q-14 0 -14 30zM359 30l86 22v652h-46q-14 0 -14 37q0 1 25 6t54 10t36 5q16 -9 16 -28v-682l86 -22q0 -30 -14 -30l-107 4l-108 -4q-14 0 -14 30z" />
</font>
</defs>
</svg>
