<?xml version="1.0" standalone="no"?>
<!DOCTYPE svg PUBLIC "-//W3C//DTD SVG 1.1//EN" "http://www.w3.org/Graphics/SVG/1.1/DTD/svg11.dtd" >
<svg xmlns="http://www.w3.org/2000/svg">
<metadata></metadata>
<defs>
<font id="archivo_narrowregular" horiz-adv-x="456" >
<font-face units-per-em="1000" ascent="800" descent="-200" />
<missing-glyph horiz-adv-x="228" />
<glyph horiz-adv-x="1000" />
<glyph horiz-adv-x="1000" />
<glyph horiz-adv-x="333" />
<glyph unicode="&#xd;" horiz-adv-x="0" />
<glyph unicode=" "  horiz-adv-x="228" />
<glyph unicode="&#x09;" horiz-adv-x="228" />
<glyph unicode="&#xa0;" horiz-adv-x="228" />
<glyph unicode="!" horiz-adv-x="228" d="M60 686h113q-1 -10 -26 -515h-62q-20 437 -25 515zM67 0v108h100v-108h-100z" />
<glyph unicode="&#x22;" horiz-adv-x="291" d="M37 539v147h82v-147l-21 -132h-39q-4 23 -11 67t-11 65zM170 539v147h82v-147l-22 -132h-39z" />
<glyph unicode="#" d="M9 179v76h81l34 155h-76v76h93l47 210h76l-47 -210h90l47 210h76l-47 -210h60v-76h-77l-34 -155h71v-76h-88l-40 -179h-76l40 179h-90l-40 -179h-76l40 179h-64zM166 255h90l34 155h-90z" />
<glyph unicode="$" d="M53 222q0 6 0.5 11t0.5 8v3h82v-10q0 -79 66 -94v179q-32 11 -51 20t-41.5 26t-33.5 42.5t-11 60.5q0 62 36.5 101t100.5 47v107h49v-106q65 -5 102 -45.5t37 -97.5v-12l-1 -7h-81v9q0 69 -57 82v-158q27 -9 43 -15t39 -19.5t35.5 -28.5t22 -39.5t9.5 -55.5 q0 -75 -40 -115t-109 -46v-118h-49v118q-75 6 -112 49.5t-37 103.5zM147 474q0 -43 55 -67v139q-55 -11 -55 -72zM251 139q30 5 48.5 25t18.5 54q0 53 -67 83v-162z" />
<glyph unicode="%" horiz-adv-x="729" d="M45 517q0 100 32 140.5t96 40.5t96 -40.5t32 -140.5q0 -99 -32 -139.5t-96 -40.5t-96 40.5t-32 139.5zM114 510q0 -56 12.5 -85t46.5 -29t46.5 29t12.5 85v15q0 56 -12.5 85t-46.5 29t-46.5 -29t-12.5 -85v-15zM125 0l418 686h71l-419 -686h-70zM437 168q0 100 32 140.5 t96 40.5t96 -40.5t32 -140.5q0 -99 -32 -139.5t-96 -40.5t-96 40.5t-32 139.5zM506 161q0 -56 12.5 -85t46.5 -29t46.5 29t12.5 85v15q0 56 -12.5 85t-46.5 29t-46.5 -29t-12.5 -85v-15z" />
<glyph unicode="&#x26;" horiz-adv-x="547" d="M35 184q0 65 27.5 108t73.5 60v4q-89 51 -89 154q0 90 56.5 139t152.5 49q92 0 150 -51.5t58 -136.5v-18h-82v9q0 61 -34.5 91.5t-92.5 30.5q-53 0 -86.5 -29t-33.5 -89q0 -58 30 -89t75 -31h51v-73h-49q-119 0 -119 -122q0 -127 131 -127q128 0 128 128v194h152v-74h-70 v-117q0 -96 -55.5 -151t-160.5 -55q-95 0 -154 53t-59 143z" />
<glyph unicode="'" horiz-adv-x="157" d="M35 539v147h82v-147l-21 -132h-39q-4 23 -11 67t-11 65z" />
<glyph unicode="(" horiz-adv-x="273" d="M40 288q0 123 42.5 239t121.5 208h54q-59 -96 -96 -214.5t-37 -230.5t37 -231.5t96 -215.5h-54q-79 93 -121.5 207.5t-42.5 237.5z" />
<glyph unicode=")" horiz-adv-x="273" d="M15 -157q59 96 96 215.5t37 231.5t-37 230.5t-96 214.5h54q79 -92 121.5 -208t42.5 -239t-42.5 -237.5t-121.5 -207.5h-54z" />
<glyph unicode="*" horiz-adv-x="319" d="M26 515l82 38l-82 38l34 58l74 -52l-9 89h68l-9 -88l74 51l34 -58l-82 -38l82 -38l-34 -59l-74 52l9 -89h-68l9 89l-74 -52z" />
<glyph unicode="+" horiz-adv-x="479" d="M43 213v84h154v214h83v-214h155v-84h-155v-213h-83v213h-154z" />
<glyph unicode="," horiz-adv-x="228" d="M64 0v108h100v-99l-48 -133h-52l40 124h-40z" />
<glyph unicode="-" horiz-adv-x="273" d="M10 221v98h252v-98h-252z" />
<glyph unicode="." horiz-adv-x="228" d="M64 0v108h100v-108h-100z" />
<glyph unicode="/" horiz-adv-x="228" d="M1 -49l157 784h70l-156 -784h-71z" />
<glyph unicode="0" d="M40 343q0 199 46.5 277t141.5 78q62 0 101.5 -29.5t63 -109.5t23.5 -216t-23.5 -216t-63 -109.5t-101.5 -29.5q-95 0 -141.5 78t-46.5 277zM124 308q0 -57 5 -99.5t16 -77t32 -52.5t51 -18t51 18t32 52.5t16 77t5 99.5v70q0 57 -5 99.5t-16 77t-32 52.5t-51 18t-51 -18 t-32 -52.5t-16 -77t-5 -99.5v-70z" />
<glyph unicode="1" d="M49 561v52q44 5 106 25.5t108 47.5h32v-613h150v-73h-395v73h163v488h-164z" />
<glyph unicode="2" d="M39 0v13q0 79 48 149q24 35 70 86t79 87t59.5 86.5t26.5 99.5q0 41 -21.5 71t-71.5 30t-73 -36.5t-23 -94.5v-41h-85q-3 16 -3 40q0 104 52.5 156t132.5 52t129.5 -44t49.5 -134q0 -60 -29.5 -119.5t-66 -100t-85 -94t-70.5 -87.5q-12 -17 -18 -35h272v-84h-373z" />
<glyph unicode="3" d="M35 194v8h84v-11q0 -130 103 -130q51 0 80.5 32t29.5 97q0 122 -113 122h-57v73h59q42 0 70.5 31t28.5 89q0 60 -26.5 90t-67.5 30q-43 0 -69 -31.5t-26 -92.5v-9h-84v18q0 85 49.5 136.5t128.5 51.5q82 0 130.5 -49t48.5 -139q0 -103 -89 -154v-4q46 -17 73.5 -60 t27.5 -108q0 -90 -52 -143t-136 -53q-92 0 -142.5 55.5t-50.5 150.5z" />
<glyph unicode="4" d="M20 169v74q115 209 178 455h83q-25 -123 -85.5 -262t-98.5 -194h188v216q20 50 42 138h40v-354h70v-73h-70v-169h-82v169h-265z" />
<glyph unicode="5" d="M40 213h85q0 -69 30.5 -111t76.5 -42q48 0 77 42t29 122q0 70 -27 109t-72 39q-32 0 -59.5 -21.5t-42.5 -57.5l-78 13l23 380h312v-84h-241l-13 -209q53 53 121 53q71 0 116.5 -57t45.5 -165q0 -112 -51 -174t-140 -62q-88 0 -140 60.5t-52 164.5z" />
<glyph unicode="6" d="M40 323q0 205 48 290t144 85q84 0 125 -61t41 -162h-83q0 150 -87 150q-59 0 -81 -64.5t-23 -194.5q47 65 121 65q83 0 127 -62t44 -159q0 -101 -50 -161.5t-129 -60.5q-98 0 -147.5 76.5t-49.5 258.5zM131 210q0 -65 26 -107t75 -42t74.5 42t25.5 107t-25.5 107 t-74.5 42t-75 -42t-26 -107z" />
<glyph unicode="7" d="M33 602v84h390v-53q-212 -320 -212 -582q0 -27 1 -51h-93q0 279 201 602h-287z" />
<glyph unicode="8" d="M40 188q0 120 88 164q-74 50 -74 155q0 83 45.5 137t128.5 54t128.5 -54t45.5 -137q0 -105 -75 -155q89 -44 89 -164q0 -89 -46.5 -144.5t-141.5 -55.5t-141.5 55.5t-46.5 144.5zM124 188q0 -59 27 -93t77 -34t77 34t27 93t-27 92.5t-77 33.5t-77 -33.5t-27 -92.5z M136 506q0 -55 25 -87t67 -32t67.5 32t25.5 87t-25.5 87t-67.5 32t-67 -32t-25 -87z" />
<glyph unicode="9" d="M40 476q0 101 50 161.5t129 60.5q98 0 147.5 -76.5t49.5 -258.5q0 -205 -47 -290t-141 -85q-86 0 -128 61t-42 162h83q0 -150 91 -150q29 0 49 17.5t30.5 53t15 79.5t5.5 108q-48 -64 -121 -64q-83 0 -127 62t-44 159zM124 476q0 -65 25.5 -107t74.5 -42t75 42t26 107 t-26 107t-75 42t-74.5 -42t-25.5 -107z" />
<glyph unicode=":" horiz-adv-x="228" d="M64 0v108h100v-108h-100zM64 418v108h100v-108h-100z" />
<glyph unicode=";" horiz-adv-x="228" d="M64 0v108h100v-99l-48 -133h-52l40 124h-40zM64 418v108h100v-108h-100z" />
<glyph unicode="&#x3c;" horiz-adv-x="479" d="M44 200v107l392 197v-90l-311 -160l311 -160v-90z" />
<glyph unicode="=" horiz-adv-x="479" d="M43 106v83h392v-83h-392zM43 318v84h392v-84h-392z" />
<glyph unicode="&#x3e;" horiz-adv-x="479" d="M44 4v90l311 160l-311 160v90l392 -197v-107z" />
<glyph unicode="?" d="M43 494q0 89 50 146.5t143 57.5q75 0 124 -50t49 -128q0 -53 -13.5 -93t-32.5 -62.5t-38 -41.5t-32.5 -44.5t-13.5 -57.5v-41h-87v56q0 37 13 66.5t31.5 50.5t37 41.5t31.5 49.5t13 65q0 14 -3 30t-11 36t-27.5 33t-47.5 13q-30 0 -50.5 -14t-29.5 -37t-12 -42.5 t-3 -41.5l1 -27h-89q-3 23 -3 35zM185 0v108h100v-108h-100z" />
<glyph unicode="@" horiz-adv-x="832" d="M45 262q0 116 30 202t84 136t121 74t147 24q164 0 261.5 -92.5t97.5 -284.5q0 -81 -18 -142t-47.5 -93.5t-60.5 -48t-63 -15.5q-74 0 -89 62h-4q-40 -63 -117 -63q-20 0 -39 5t-40 18.5t-33.5 41.5t-12.5 69q0 92 62.5 126t179.5 34v62q0 38 -16.5 58t-59.5 20 q-39 0 -56 -22t-17 -54v-11h-74q-1 6 -1 20q0 64 42 98.5t112 34.5q71 0 107.5 -34.5t36.5 -99.5v-262q0 -38 34 -38q47 0 81.5 54.5t34.5 180.5q0 164 -81 242.5t-221 78.5q-153 0 -238 -96.5t-85 -285.5q0 -180 72 -269.5t220 -89.5q33 0 79.5 9.5t70.5 22.5v-60 q-27 -11 -73 -19t-77 -8q-167 0 -258.5 102t-91.5 313zM340 160q0 -40 16 -56.5t49 -16.5q39 0 69 31.5t30 86.5v44q-82 0 -123 -18.5t-41 -70.5z" />
<glyph unicode="A" horiz-adv-x="547" d="M-1 0l218 686h113l218 -686h-95l-47 153h-272l-47 -153h-88zM158 233h223l-93 305l-16 76h-4q-9 -54 -16 -76z" />
<glyph unicode="B" horiz-adv-x="547" d="M65 0v686h260q77 0 127 -46.5t50 -121.5q0 -57 -29.5 -99.5t-75.5 -58.5v-4q53 -16 87 -63t34 -111q0 -84 -55.5 -133t-137.5 -49h-260zM153 80h160q50 0 81.5 30t31.5 84q0 48 -33 82.5t-86 34.5h-154v-231zM153 391h146q49 0 80 31.5t31 76.5q0 53 -28 80t-77 27h-152 v-215z" />
<glyph unicode="C" horiz-adv-x="592" d="M42 343q0 355 270 355q109 0 174 -66.5t65 -193.5h-90q0 88 -40 133.5t-109 45.5q-178 0 -178 -249v-50q0 -249 178 -249q71 0 111.5 45t40.5 132h87q0 -128 -64.5 -193t-174.5 -65q-270 0 -270 355z" />
<glyph unicode="D" horiz-adv-x="592" d="M70 0v686h213q123 0 191.5 -85t68.5 -248q0 -174 -68 -263.5t-192 -89.5h-213zM158 80h117q83 0 129.5 62.5t46.5 185.5v50q0 112 -46.5 170t-129.5 58h-117v-526z" />
<glyph unicode="E" horiz-adv-x="547" d="M70 0v686h423v-80h-335v-215h291v-80h-291v-231h341v-80h-429z" />
<glyph unicode="F" horiz-adv-x="501" d="M70 0v686h396v-80h-308v-222h272v-80h-272v-304h-88z" />
<glyph unicode="G" horiz-adv-x="638" d="M49 343q0 175 72 265t203 90q112 0 180.5 -63t68.5 -183h-90q0 83 -42.5 124t-116.5 41q-87 0 -135 -63t-48 -186v-50q0 -249 178 -249q85 0 124.5 48t39.5 147v16h-178v77h268v-357h-58l-19 76q-60 -88 -177 -88q-131 0 -200.5 89t-69.5 266z" />
<glyph unicode="H" horiz-adv-x="592" d="M70 0v686h88v-295h276v295h88v-686h-88v311h-276v-311h-88z" />
<glyph unicode="I" horiz-adv-x="228" d="M70 0v686h88v-686h-88z" />
<glyph unicode="J" horiz-adv-x="410" d="M13 163v45h88v-50q0 -89 78 -89t78 89v528h88v-523q0 -85 -43.5 -130t-122.5 -45t-122.5 45t-43.5 130z" />
<glyph unicode="K" horiz-adv-x="547" d="M70 0v686h88v-363l272 363h98l-206 -277l213 -409h-100l-167 335l-110 -122v-213h-88z" />
<glyph unicode="L" d="M70 0v686h88v-606h280v-80h-368z" />
<glyph unicode="M" horiz-adv-x="683" d="M62 0v686h134l121 -450q6 -22 11.5 -60.5t8.5 -65.5l3 -28h4q9 106 22 154l122 450h133v-686h-88v498l7 106h-4q-16 -82 -23 -106l-137 -498h-79l-137 498l-21 106h-4q6 -86 6 -106v-498h-79z" />
<glyph unicode="N" horiz-adv-x="592" d="M70 0v686h76l255 -431l42 -92l3 1q-3 69 -3 91v431h79v-686h-73l-257 437l-44 92l-3 -1q4 -63 4 -91v-437h-79z" />
<glyph unicode="O" horiz-adv-x="638" d="M49 343q0 175 71 265t199 90t199 -90t71 -265t-71 -265t-199 -90t-199 90t-71 265zM141 318q0 -123 47 -186t131 -63t131 63t47 186v50q0 123 -47 186t-131 63t-131 -63t-47 -186v-50z" />
<glyph unicode="P" horiz-adv-x="547" d="M70 0v686h245q99 0 152 -54t53 -146t-55.5 -147.5t-149.5 -55.5h-157v-283h-88zM158 363h154q52 0 84 33.5t32 89.5t-30 88t-86 32h-154v-243z" />
<glyph unicode="Q" horiz-adv-x="638" d="M49 343q0 175 71 265t199 90t199 -90t71 -265q0 -270 -163 -336l142 -131h-118l-119 112h-12q-128 0 -199 90t-71 265zM141 318q0 -123 47 -186t131 -63t131 63t47 186v50q0 123 -47 186t-131 63t-131 -63t-47 -186v-50z" />
<glyph unicode="R" horiz-adv-x="592" d="M70 0v686h276q99 0 152 -51.5t53 -138.5q0 -64 -32 -111t-90 -66l138 -319h-98l-127 303h-184v-303h-88zM158 383h185q52 0 84 31t32 82q0 52 -30 81t-86 29h-185v-223z" />
<glyph unicode="S" horiz-adv-x="547" d="M41 194q0 4 0.5 11.5t0.5 8.5h91l-1 -4v-9v-8q0 -61 37.5 -92.5t98.5 -31.5q69 0 106.5 29.5t37.5 84.5q0 47 -37 76t-89 45t-104.5 35.5t-89.5 62.5t-37 112q0 90 61 137t157 47t155.5 -47.5t59.5 -145.5v-12h-91v15q0 51 -34.5 80t-87.5 29q-57 0 -92 -24.5t-35 -71.5 q0 -38 26.5 -64t66 -39t85.5 -30t85.5 -35.5t66 -58.5t26.5 -96q0 -110 -62.5 -160t-169.5 -50q-102 0 -166.5 50t-64.5 156z" />
<glyph unicode="T" horiz-adv-x="501" d="M19 606v80h462v-80h-187v-606h-88v606h-187z" />
<glyph unicode="U" horiz-adv-x="592" d="M70 223v463h88v-468q0 -72 36.5 -110.5t101.5 -38.5t101.5 38.5t36.5 110.5v468h88v-463q0 -114 -59.5 -174.5t-166.5 -60.5t-166.5 60.5t-59.5 174.5z" />
<glyph unicode="V" horiz-adv-x="547" d="M8 686h97l170 -589h4l175 589h85l-209 -686h-113z" />
<glyph unicode="W" horiz-adv-x="774" d="M10 686h93l105 -474l21 -122h4q7 62 17 122l79 474h122l85 -474l18 -122h4q11 77 21 122l105 474h80l-159 -686h-114l-84 465l-19 138h-4q-11 -92 -19 -138l-82 -465h-114z" />
<glyph unicode="X" horiz-adv-x="547" d="M4 0l219 356l-199 330h104l148 -245q151 244 151 245h94l-199 -322l221 -364h-104l-169 280l-172 -280h-94z" />
<glyph unicode="Y" horiz-adv-x="547" d="M8 686h97l174 -318h4l171 318h85l-221 -402v-284h-88v284z" />
<glyph unicode="Z" horiz-adv-x="501" d="M20 0v38l326 568h-305v80h431v-38l-327 -568h334v-80h-459z" />
<glyph unicode="[" horiz-adv-x="228" d="M49 -161v896h159v-65h-83v-766h83v-65h-159z" />
<glyph unicode="\" horiz-adv-x="228" d="M1 735h70l157 -784h-71z" />
<glyph unicode="]" horiz-adv-x="228" d="M20 -96h83v766h-83v65h159v-896h-159v65z" />
<glyph unicode="^" horiz-adv-x="385" d="M4 294l136 392h107l137 -392h-90l-101 315l-99 -315h-90z" />
<glyph unicode="_" d="M0 -71h455v-53h-455v53z" />
<glyph unicode="`" horiz-adv-x="273" d="M27 720l1 3h90l86 -132h-69z" />
<glyph unicode="a" d="M34 136q0 53 19.5 88.5t57 54t82.5 26t107 7.5v68q0 41 -18 63t-65 22q-43 0 -62 -24t-19 -59v-12h-81q-1 6 -1 22q0 70 46 108t123 38q79 0 119 -38t40 -109v-295q0 -35 28 -35h32v-57q-22 -12 -54 -12t-53.5 17.5t-29.5 47.5h-5q-43 -69 -128 -69q-18 0 -34.5 3 t-36 12.5t-34 25t-24 43.5t-9.5 64zM120 141q0 -43 17.5 -61.5t53.5 -18.5q43 0 76 34.5t33 95.5v48q-90 0 -135 -20.5t-45 -77.5z" />
<glyph unicode="b" d="M60 0v723h82v-247h5q13 29 43 45.5t69 16.5q70 0 113.5 -69t43.5 -205q0 -276 -163 -276q-77 0 -115 73h-5l-11 -61h-62zM142 244q0 -183 94 -183q48 0 71 43t23 140v38q0 97 -23 140t-71 43q-94 0 -94 -187v-34z" />
<glyph unicode="c" horiz-adv-x="410" d="M36 263q0 142 44 208.5t136 66.5q84 0 122.5 -52t38.5 -155h-85q0 71 -16.5 102.5t-59.5 31.5q-94 0 -94 -183v-38q0 -183 94 -183q43 0 61.5 33t18.5 101h81q0 -90 -39.5 -148.5t-121.5 -58.5q-93 0 -136.5 66.5t-43.5 208.5z" />
<glyph unicode="d" d="M40 264q0 136 43.5 205t113.5 69q39 0 69 -16.5t43 -45.5h5v247h82v-723h-62l-11 61h-5q-38 -73 -115 -73q-163 0 -163 276zM126 244q0 -97 23 -140t71 -43q94 0 94 183v34q0 187 -94 187q-48 0 -71 -43t-23 -140v-38z" />
<glyph unicode="e" d="M42 263q0 141 49 208t149 67q88 0 130.5 -58.5t42.5 -188.5v-52h-285q1 -92 28.5 -135t86.5 -43q40 0 64.5 32t24.5 86h81q0 -88 -47.5 -139.5t-124.5 -51.5q-100 0 -149.5 65.5t-49.5 209.5zM129 312h198q0 153 -87 153q-53 0 -79.5 -37.5t-31.5 -115.5z" />
<glyph unicode="f" horiz-adv-x="228" d="M9 453v73h46v84q0 52 24.5 86.5t79.5 34.5q35 0 69 -12v-57h-44q-47 0 -47 -48v-88h91v-73h-91v-453h-82v453h-46z" />
<glyph unicode="g" d="M13 -57q0 39 18.5 69.5t49.5 42.5q-43 27 -43 79q0 64 74 91q-61 50 -61 136q0 83 46 130t126 47q41 0 76 -19q56 30 65 92h72q0 -48 -23.5 -82t-64.5 -44q47 -49 47 -124q0 -81 -45.5 -128.5t-122.5 -48.5h-55q-20 0 -34 -13.5t-14 -33.5q0 -19 14 -33t34 -14h150 q56 0 90 -35.5t34 -87.5q0 -65 -40.5 -107t-113.5 -42h-149q-62 0 -96 35.5t-34 89.5zM95 -49q0 -27 16 -44.5t45 -17.5h145q26 0 44 18t18 44q0 27 -16 44t-46 17h-145q-30 0 -45.5 -17t-15.5 -44zM133 361q0 -53 23 -81t66 -28t66.5 29t23.5 80q0 53 -23.5 81t-66.5 28 t-66 -29t-23 -80z" />
<glyph unicode="h" d="M60 0v723h82v-252h6q38 67 118 67q130 0 130 -159v-379h-82v373q0 51 -19 71.5t-55 20.5q-41 0 -69.5 -39t-28.5 -105v-321h-82z" />
<glyph unicode="i" horiz-adv-x="182" d="M50 0v526h82v-526h-82zM50 625v98h82v-98h-82z" />
<glyph unicode="j" horiz-adv-x="182" d="M-41 -113h44q47 0 47 48v591h82v-587q0 -52 -24.5 -86.5t-79.5 -34.5q-35 0 -69 12v57zM50 625v98h82v-98h-82z" />
<glyph unicode="k" horiz-adv-x="410" d="M60 0v723h82v-441l170 244h91l-155 -216l163 -310h-93l-120 240l-56 -61v-179h-82z" />
<glyph unicode="l" horiz-adv-x="182" d="M50 0v723h82v-723h-82z" />
<glyph unicode="m" horiz-adv-x="683" d="M60 0v526h62l11 -61h6q39 73 120 73q85 0 112 -76q20 37 54.5 56.5t73.5 19.5q124 0 124 -159v-379h-82v373q0 92 -68 92q-38 0 -64 -39t-26 -105v-321h-82v373q0 92 -68 92q-38 0 -64.5 -39t-26.5 -105v-321h-82z" />
<glyph unicode="n" d="M60 0v526h62l11 -61h6q41 73 127 73q130 0 130 -159v-379h-82v373q0 51 -19 71.5t-55 20.5q-41 0 -69.5 -39t-28.5 -105v-321h-82z" />
<glyph unicode="o" d="M40 263q0 275 188 275t188 -275t-188 -275t-188 275zM126 244q0 -183 102 -183t102 183v38q0 183 -102 183t-102 -183v-38z" />
<glyph unicode="p" d="M60 -173v699h62l11 -61h5q38 73 115 73q163 0 163 -276q0 -136 -43.5 -205t-113.5 -69q-38 0 -68.5 15.5t-43.5 42.5h-5v-219h-82zM142 244q0 -183 94 -183q48 0 71 43t23 140v38q0 97 -23 140t-71 43q-94 0 -94 -183v-38z" />
<glyph unicode="q" d="M40 262q0 276 163 276q77 0 115 -73h5l11 61h62v-699h-82v219h-5q-13 -27 -43.5 -42.5t-68.5 -15.5q-70 0 -113.5 69t-43.5 205zM126 244q0 -97 23 -140t71 -43q94 0 94 183v38q0 183 -94 183q-48 0 -71 -43t-23 -140v-38z" />
<glyph unicode="r" horiz-adv-x="273" d="M60 0v526h62l11 -69h6q26 81 89 81q10 0 19.5 -2t14.5 -4l5 -2v-85h-27q-43 0 -70.5 -29.5t-27.5 -94.5v-321h-82z" />
<glyph unicode="s" horiz-adv-x="410" d="M33 142q0 6 0.5 11t0.5 8v3h86v-10q0 -47 24 -70.5t62 -23.5q34 0 56.5 20.5t22.5 57.5q0 36 -24.5 58t-60 33.5t-71 26t-60 47.5t-24.5 85q0 69 44.5 109.5t119.5 40.5q71 0 111 -41.5t40 -102.5v-12l-1 -7h-85v9q0 35 -17 58.5t-56 23.5t-55 -22t-16 -50 q0 -31 24.5 -50t60 -30t71 -26t60 -49.5t24.5 -88.5q0 -81 -45.5 -121.5t-122.5 -40.5q-85 0 -127 44.5t-42 109.5z" />
<glyph unicode="t" horiz-adv-x="228" d="M14 453v73h45l18 146h64v-146h71v-73h-71v-344q0 -48 47 -48h24v-57q-24 -14 -59 -14q-50 0 -72 34.5t-22 86.5v342h-45z" />
<glyph unicode="u" d="M60 147v379h82v-373q0 -51 19 -71.5t55 -20.5q41 0 69.5 39t28.5 105v321h82v-526h-62l-11 61h-6q-41 -73 -127 -73q-130 0 -130 159z" />
<glyph unicode="v" horiz-adv-x="410" d="M10 526h90l107 -400h4l107 400h83l-151 -526h-89z" />
<glyph unicode="w" horiz-adv-x="592" d="M1 526h90l66 -296l21 -125h4q7 71 16 125l53 296h95l54 -296l16 -125h4q8 65 21 125l66 296h83l-131 -526h-91l-55 300l-16 121h-4q-6 -66 -16 -121l-54 -300h-91z" />
<glyph unicode="x" horiz-adv-x="410" d="M6 0l153 266l-146 260h99l95 -180l98 180h92l-147 -253l154 -273h-99l-103 192l-106 -192h-90z" />
<glyph unicode="y" horiz-adv-x="410" d="M10 526h90l116 -408h4l98 408h83l-134 -499q-26 -98 -66 -153.5t-104 -55.5q-36 0 -59 8v57h29q79 0 104 117z" />
<glyph unicode="z" horiz-adv-x="410" d="M26 0v39l231 414h-215v73h328v-38l-232 -415h245v-73h-357z" />
<glyph unicode="{" horiz-adv-x="274" d="M20 246v84q33 0 55 15.5t22 44.5v197q0 86 42 117t115 31v-57q-79 0 -79 -71q0 -43 -7 -206q-2 -54 -22 -81t-66 -27v-10q46 0 66 -27t22 -81q7 -163 7 -206q0 -71 79 -71v-57q-73 0 -115 31t-42 117v197q0 31 -23 45.5t-54 14.5z" />
<glyph unicode="|" horiz-adv-x="213" d="M67 -173v896h79v-896h-79z" />
<glyph unicode="}" horiz-adv-x="274" d="M20 -102q79 0 79 71q0 43 7 206q2 54 22 81t66 27v10q-46 0 -66 27t-22 81q-7 163 -7 206q0 71 -79 71v57q73 0 115 -31t42 -117v-197q0 -31 23 -45.5t54 -14.5v-84q-33 0 -55 -15t-22 -45v-197q0 -86 -42 -117t-115 -31v57z" />
<glyph unicode="~" horiz-adv-x="479" d="M35 211v92q2 3 5 8t14 17.5t23.5 22t33 17.5t42.5 8q31 0 86 -30.5t87 -30.5q31 0 60.5 18.5t43.5 36.5l14 18v-92q-2 -3 -5 -8t-14 -17.5t-23.5 -22t-33 -17.5t-42.5 -8q-31 0 -86 30.5t-87 30.5q-19 0 -38.5 -7.5t-33 -18.5t-24.5 -21.5t-17 -18.5z" />
<glyph unicode="&#xa1;" horiz-adv-x="273" d="M100 -160q5 78 25 515h62q25 -505 26 -515h-113zM107 418v108h100v-108h-100z" />
<glyph unicode="&#xa2;" d="M48 343q0 131 39.5 198t122.5 75v107h49v-106q77 -7 112.5 -58.5t35.5 -147.5h-85q0 62 -14 93.5t-49 38.5v-400q67 14 67 132h81q0 -84 -36.5 -141t-111.5 -65v-118h-49v118q-83 9 -122.5 75.5t-39.5 198.5zM134 324q0 -159 76 -180v397q-76 -20 -76 -179v-38z" />
<glyph unicode="&#xa3;" d="M19 304v72h72v123q0 98 42 148.5t119 50.5q161 0 161 -194v-13h-82v16q0 118 -79 118q-78 0 -78 -110v-139h133v-72h-134l-9 -225h249v-79h-383v79h61v225h-72z" />
<glyph unicode="&#xa4;" d="M-3 159l49 49q-35 60 -35 134q0 72 35 134l-49 49l48 48l42 -43q61 59 141 59q79 0 140 -59l43 43l48 -48l-49 -49q35 -62 35 -134q0 -74 -35 -134l49 -49l-48 -48l-43 43q-61 -58 -140 -58t-140 58l-43 -43zM79 342q0 -74 43.5 -125.5t105.5 -51.5q61 0 104.5 51.5 t43.5 125.5t-43 126t-105 52t-105.5 -52t-43.5 -126z" />
<glyph unicode="&#xa5;" d="M2 686h95l136 -293h4l133 293h83l-150 -317h128v-65h-159v-70h159v-65h-159v-169h-88v169h-159v65h159v70h-159v65h128z" />
<glyph unicode="&#xa6;" horiz-adv-x="213" d="M67 -173v380h79v-380h-79zM67 343v380h79v-380h-79z" />
<glyph unicode="&#xa7;" d="M68 277q0 86 70 134q-60 51 -60 137q0 70 43 110t121 40q71 0 111 -41.5t40 -102.5q0 -4 -1 -12v-7h-85v9q0 35 -17 58.5t-56 23.5q-38 0 -54.5 -22t-16.5 -50q0 -41 24.5 -70t60 -48t71 -41t60 -61t24.5 -95q0 -85 -70 -135q60 -53 60 -136q0 -70 -43 -110t-121 -40 q-71 0 -111 41.5t-40 102.5v12l1 7h85v-9q0 -35 17 -58.5t56 -23.5q38 0 54.5 22t16.5 50q0 41 -24.5 70t-60 48t-71 41t-60 61t-24.5 95zM148 298q0 -22 6.5 -41t14.5 -31.5t25 -27t27.5 -21.5t34 -21t32.5 -20q35 28 35 82q0 22 -6.5 41t-14 31.5t-26 27.5t-27.5 21 t-34.5 21t-32.5 19q-34 -26 -34 -81z" />
<glyph unicode="&#xa8;" horiz-adv-x="273" d="M18 628v95h87v-95h-87zM168 628v95h87v-95h-87z" />
<glyph unicode="&#xa9;" horiz-adv-x="604" d="M21 343q0 163 75 259t206 96t206 -96t75 -259t-75 -259t-206 -96t-206 96t-75 259zM67 343q0 -141 63 -224.5t172 -83.5t172 83.5t63 224.5t-63 224.5t-172 83.5t-172 -83.5t-63 -224.5zM145 348q0 210 159 210q64 0 102.5 -39t38.5 -114h-58q0 50 -22 75.5t-61 25.5 q-100 0 -100 -142v-30q0 -143 100 -143q39 0 62 25.5t23 74.5h56q0 -75 -38.5 -113.5t-102.5 -38.5q-159 0 -159 209z" />
<glyph unicode="&#xaa;" horiz-adv-x="303" d="M20 463q0 70 46 95.5t133 25.5v43q0 56 -53 56q-28 0 -40.5 -16t-12.5 -39v-10h-59v17q0 48 31.5 74t83.5 26q109 0 109 -100v-198q0 -22 17 -22h23v-41q-13 -9 -38 -9q-45 0 -58 43q-30 -46 -87 -46q-37 0 -66 21.5t-29 79.5zM82 466q0 -51 46 -51q27 0 49 22.5t22 62.5 v31q-58 0 -87.5 -13.5t-29.5 -51.5z" />
<glyph unicode="&#xab;" d="M54 326l141 200h71l-113 -200l113 -200h-71zM205 326l142 200h70l-112 -200l112 -200h-70z" />
<glyph unicode="&#xac;" horiz-adv-x="479" d="M39 360v93h396v-256h-84v163h-312z" />
<glyph unicode="&#xad;" horiz-adv-x="273" d="M10 221v98h252v-98h-252z" />
<glyph unicode="&#xae;" horiz-adv-x="604" d="M21 343q0 163 75 259t206 96t206 -96t75 -259t-75 -259t-206 -96t-206 96t-75 259zM67 343q0 -141 63 -224.5t172 -83.5t172 83.5t63 224.5t-63 224.5t-172 83.5t-172 -83.5t-63 -224.5zM174 148v402h161q45 0 74 -28t29 -73q0 -35 -17.5 -60t-45.5 -34v-4q7 -3 15 -8.5 t19 -17.5t18.5 -33t7.5 -48q0 -40 6.5 -55.5t21.5 -21.5v-17q-13 -5 -29 -5q-57 0 -57 76q0 55 -19.5 78.5t-45.5 23.5h-81v-175h-57zM231 376h83q30 0 47.5 17.5t17.5 44.5q0 28 -17 43.5t-45 15.5h-86v-121z" />
<glyph unicode="&#xaf;" horiz-adv-x="273" d="M12 599v72h250v-72h-250z" />
<glyph unicode="&#xb0;" horiz-adv-x="400" d="M63 563q0 56 39.5 95.5t95.5 39.5t95.5 -39.5t39.5 -95.5t-39.5 -95.5t-95.5 -39.5t-95.5 39.5t-39.5 95.5zM116 563q0 -34 24 -58t58 -24t57.5 24t23.5 58t-23.5 57.5t-57.5 23.5t-58 -23.5t-24 -57.5z" />
<glyph unicode="&#xb1;" horiz-adv-x="549" d="M78 0v83h392v-83h-392zM78 310v84h154v184h83v-184h155v-84h-155v-183h-83v183h-154z" />
<glyph unicode="&#xb2;" horiz-adv-x="273" d="M24 322v16q0 34 16.5 66.5t40 58.5t47.5 50.5t40.5 54t16.5 58.5q0 50 -45 50q-47 0 -47 -66v-31h-63q-2 17 -2 30q0 63 32 94.5t81 31.5t79.5 -27t30.5 -82q0 -31 -16 -64.5t-33 -54.5t-45 -52q-4 -4 -14.5 -15.5t-16.5 -18t-13.5 -17t-11.5 -19.5h151v-63h-228z" />
<glyph unicode="&#xb3;" horiz-adv-x="273" d="M23 441v11h64v-13q0 -66 50 -66q55 0 55 65q0 62 -56 62h-35v57h36q21 0 35 15.5t14 44.5q0 30 -13 45.5t-33 15.5q-21 0 -34 -16t-13 -47v-13h-63v18q0 52 30.5 83.5t78.5 31.5q50 0 80 -30t30 -85q0 -59 -48 -89q54 -28 54 -96q0 -55 -31.5 -87t-82.5 -32 q-56 0 -87 33.5t-31 91.5z" />
<glyph unicode="&#xb4;" horiz-adv-x="273" d="M68 591l86 132h90l1 -3l-108 -129h-69z" />
<glyph unicode="&#xb5;" d="M60 -173v699h82v-384q0 -81 74 -81q41 0 69.5 39t28.5 105v321h82v-526h-62l-11 61h-6q-41 -73 -127 -73q-28 0 -48 7v-168h-82z" />
<glyph unicode="&#xb6;" horiz-adv-x="440" d="M18 467q0 91 56 155t136 64h209v-61h-48v-798h-66v798h-53v-798h-65v423q-72 10 -120.5 71.5t-48.5 145.5z" />
<glyph unicode="&#xb7;" horiz-adv-x="228" d="M63 288v111h101v-111h-101z" />
<glyph unicode="&#xb8;" horiz-adv-x="273" d="M36 -125h76q36 0 36 24t-34 24h-33l14 88h55l-7 -47q81 -6 81 -65q0 -45 -32 -63t-72 -18q-46 0 -84 8v49z" />
<glyph unicode="&#xb9;" horiz-adv-x="273" d="M39 638v43q61 8 113 43h29v-344h73v-58h-214v58h79v258h-80z" />
<glyph unicode="&#xba;" horiz-adv-x="299" d="M21 548q0 187 128 187t128 -187t-128 -187t-128 187zM83 535q0 -121 66 -121q67 0 67 121v26q0 121 -67 121q-66 0 -66 -121v-26z" />
<glyph unicode="&#xbb;" d="M39 126l112 200l-112 200h70l142 -200l-142 -200h-70zM190 126l113 200l-113 200h71l141 -200l-141 -200h-71z" />
<glyph unicode="&#xbc;" horiz-adv-x="684" d="M31 600v43q61 8 113 43h29v-344h73v-58h-214v58h79v258h-80zM115 -12l416 710h62l-415 -710h-63zM389 96v52q63 114 104 265h62q-15 -69 -45.5 -144t-54.5 -116h85v91q27 72 35 111h27v-202h40v-57h-40v-96h-62v96h-151z" />
<glyph unicode="&#xbd;" horiz-adv-x="684" d="M31 600v43q61 8 113 43h29v-344h73v-58h-214v58h79v258h-80zM104 -12l416 710h62l-415 -710h-63zM413 0v16q0 34 16.5 66.5t40.5 58.5t47.5 50.5t40 54t16.5 58.5q0 50 -45 50q-47 0 -47 -66v-31h-63q-2 17 -2 30q0 63 32 94.5t81 31.5t79.5 -27t30.5 -82 q0 -31 -16 -64.5t-33 -54.5t-45 -52q-4 -4 -14.5 -15.5t-16.5 -18t-13.5 -17t-11.5 -19.5h151v-63h-228z" />
<glyph unicode="&#xbe;" horiz-adv-x="684" d="M27 404v11h64v-13q0 -66 50 -66q55 0 55 65q0 62 -56 62h-35v57h36q21 0 35 15.5t14 44.5q0 30 -13 45.5t-33 15.5q-21 0 -34 -16t-13 -47v-13h-63v18q0 52 30.5 83.5t78.5 31.5q50 0 80 -30t30 -85q0 -59 -48 -89q54 -28 54 -96q0 -55 -31.5 -87t-82.5 -32 q-56 0 -87 33.5t-31 91.5zM107 -12l416 710h62l-415 -710h-63zM389 96v52q63 114 104 265h62q-15 -69 -45.5 -144t-54.5 -116h85v91q27 72 35 111h27v-202h40v-57h-40v-96h-62v96h-151z" />
<glyph unicode="&#xbf;" horiz-adv-x="501" d="M70 2q0 51 13.5 90t32.5 62.5t38 44t32.5 47t13.5 59.5v41h87v-56q0 -37 -13 -67.5t-31.5 -51.5t-37 -41.5t-31.5 -50t-13 -66.5q0 -14 3 -29t12 -34.5t29.5 -32t49.5 -12.5q90 0 90 135l-1 27h89q3 -23 3 -35q0 -92 -48.5 -148t-139.5 -56q-77 0 -127.5 48.5 t-50.5 125.5zM194 418v108h100v-108h-100z" />
<glyph unicode="&#xc0;" horiz-adv-x="547" d="M-1 0l218 686h113l218 -686h-95l-47 153h-272l-47 -153h-88zM156 880l1 3h90l86 -132h-69zM158 233h223l-93 305l-16 76h-4q-9 -54 -16 -76z" />
<glyph unicode="&#xc1;" horiz-adv-x="547" d="M-1 0l218 686h113l218 -686h-95l-47 153h-272l-47 -153h-88zM158 233h223l-93 305l-16 76h-4q-9 -54 -16 -76zM214 751l86 132h90l1 -3l-108 -129h-69z" />
<glyph unicode="&#xc2;" horiz-adv-x="547" d="M-1 0l218 686h113l218 -686h-95l-47 153h-272l-47 -153h-88zM149 747l86 135h78l85 -135h-80l-44 79l-45 -79h-80zM158 233h223l-93 305l-16 76h-4q-9 -54 -16 -76z" />
<glyph unicode="&#xc3;" horiz-adv-x="547" d="M-1 0l218 686h113l218 -686h-95l-47 153h-272l-47 -153h-88zM127 779q0 40 22 72t63 32q22 0 59 -15t56 -15q30 0 34 30h58q0 -40 -21.5 -72t-63.5 -32q-22 0 -59 15.5t-56 15.5q-30 0 -33 -31h-59zM158 233h223l-93 305l-16 76h-4q-9 -54 -16 -76z" />
<glyph unicode="&#xc4;" horiz-adv-x="547" d="M-1 0l218 686h113l218 -686h-95l-47 153h-272l-47 -153h-88zM155 788v95h87v-95h-87zM158 233h223l-93 305l-16 76h-4q-9 -54 -16 -76zM305 788v95h87v-95h-87z" />
<glyph unicode="&#xc5;" horiz-adv-x="547" d="M-1 0l218 686h113l218 -686h-95l-47 153h-272l-47 -153h-88zM158 233h223l-93 305l-16 76h-4q-9 -54 -16 -76zM177 819q0 40 28 68t68 28q41 0 68.5 -28t27.5 -68t-28 -68t-68 -28q-39 0 -67.5 28t-28.5 68zM222 819q0 -21 15.5 -36t35.5 -15t35.5 15t15.5 36t-15.5 36 t-35.5 15t-35.5 -15t-15.5 -36z" />
<glyph unicode="&#xc6;" horiz-adv-x="820" d="M-1 0l280 686h498v-80h-367l49 -215h274v-80h-256l52 -231h254v-80h-330l-34 153h-273l-59 -153h-88zM177 233h225l-68 310l-11 62h-4q-13 -40 -21 -62z" />
<glyph unicode="&#xc7;" horiz-adv-x="592" d="M42 343q0 355 270 355q109 0 174 -66.5t65 -193.5h-90q0 88 -40 133.5t-109 45.5q-178 0 -178 -249v-50q0 -249 178 -249q71 0 111.5 45t40.5 132h87q0 -128 -64.5 -193t-174.5 -65l-3 -24q81 -6 81 -65q0 -45 -32 -63t-72 -18q-46 0 -84 8v49h76q36 0 36 24t-34 24h-33 l11 69q-216 33 -216 351z" />
<glyph unicode="&#xc8;" horiz-adv-x="547" d="M70 0v686h423v-80h-335v-215h291v-80h-291v-231h341v-80h-429zM156 880l1 3h90l86 -132h-69z" />
<glyph unicode="&#xc9;" horiz-adv-x="547" d="M70 0v686h423v-80h-335v-215h291v-80h-291v-231h341v-80h-429zM214 751l86 132h90l1 -3l-108 -129h-69z" />
<glyph unicode="&#xca;" horiz-adv-x="547" d="M70 0v686h423v-80h-335v-215h291v-80h-291v-231h341v-80h-429zM149 747l86 135h78l85 -135h-80l-44 79l-45 -79h-80z" />
<glyph unicode="&#xcb;" horiz-adv-x="547" d="M70 0v686h423v-80h-335v-215h291v-80h-291v-231h341v-80h-429zM155 788v95h87v-95h-87zM305 788v95h87v-95h-87z" />
<glyph unicode="&#xcc;" horiz-adv-x="228" d="M-3 880l1 3h90l86 -132h-69zM70 0v686h88v-686h-88z" />
<glyph unicode="&#xcd;" horiz-adv-x="228" d="M55 751l86 132h89l1 -3l-107 -129h-69zM70 0v686h88v-686h-88z" />
<glyph unicode="&#xce;" horiz-adv-x="228" d="M-11 747l87 135h78l85 -135h-80l-44 79l-45 -79h-81zM70 0v686h88v-686h-88z" />
<glyph unicode="&#xcf;" horiz-adv-x="228" d="M-4 788v95h87v-95h-87zM70 0v686h88v-686h-88zM146 788v95h87v-95h-87z" />
<glyph unicode="&#xd0;" horiz-adv-x="592" d="M5 323v64h65v299h213q123 0 191.5 -85t68.5 -248q0 -174 -68 -263.5t-192 -89.5h-213v323h-65zM158 80h117q83 0 129.5 62.5t46.5 185.5v50q0 112 -46.5 170t-129.5 58h-117v-219h157v-64h-157v-243z" />
<glyph unicode="&#xd1;" horiz-adv-x="592" d="M70 0v686h76l255 -431l42 -92l3 1q-3 69 -3 91v431h79v-686h-73l-257 437l-44 92l-3 -1q4 -63 4 -91v-437h-79zM150 779q0 40 22 72t63 32q22 0 59 -15t56 -15q30 0 34 30h58q0 -40 -22 -72t-63 -32q-23 0 -59.5 15.5t-55.5 15.5q-30 0 -34 -31h-58z" />
<glyph unicode="&#xd2;" horiz-adv-x="638" d="M49 343q0 175 71 265t199 90t199 -90t71 -265t-71 -265t-199 -90t-199 90t-71 265zM141 318q0 -123 47 -186t131 -63t131 63t47 186v50q0 123 -47 186t-131 63t-131 -63t-47 -186v-50zM202 880l1 3h90l86 -132h-69z" />
<glyph unicode="&#xd3;" horiz-adv-x="638" d="M49 343q0 175 71 265t199 90t199 -90t71 -265t-71 -265t-199 -90t-199 90t-71 265zM141 318q0 -123 47 -186t131 -63t131 63t47 186v50q0 123 -47 186t-131 63t-131 -63t-47 -186v-50zM260 751l86 132h90l1 -3l-108 -129h-69z" />
<glyph unicode="&#xd4;" horiz-adv-x="638" d="M49 343q0 175 71 265t199 90t199 -90t71 -265t-71 -265t-199 -90t-199 90t-71 265zM141 318q0 -123 47 -186t131 -63t131 63t47 186v50q0 123 -47 186t-131 63t-131 -63t-47 -186v-50zM195 747l86 135h78l85 -135h-80l-44 79l-45 -79h-80z" />
<glyph unicode="&#xd5;" horiz-adv-x="638" d="M49 343q0 175 71 265t199 90t199 -90t71 -265t-71 -265t-199 -90t-199 90t-71 265zM141 318q0 -123 47 -186t131 -63t131 63t47 186v50q0 123 -47 186t-131 63t-131 -63t-47 -186v-50zM173 779q0 40 22 72t63 32q22 0 59 -15t56 -15q30 0 34 30h58q0 -40 -22 -72t-63 -32 q-22 0 -59 15.5t-56 15.5q-30 0 -34 -31h-58z" />
<glyph unicode="&#xd6;" horiz-adv-x="638" d="M49 343q0 175 71 265t199 90t199 -90t71 -265t-71 -265t-199 -90t-199 90t-71 265zM141 318q0 -123 47 -186t131 -63t131 63t47 186v50q0 123 -47 186t-131 63t-131 -63t-47 -186v-50zM201 788v95h87v-95h-87zM351 788v95h87v-95h-87z" />
<glyph unicode="&#xd7;" horiz-adv-x="479" d="M38 104l153 151l-153 152l55 59l154 -152l153 152l55 -59l-153 -152l153 -151l-55 -59l-153 150l-154 -150z" />
<glyph unicode="&#xd8;" horiz-adv-x="638" d="M49 343q0 175 71 265t199 90q95 0 159 -50l47 75h64l-72 -114q72 -92 72 -266q0 -175 -71 -265t-199 -90q-97 0 -159 49l-46 -74h-64l71 113q-72 90 -72 267zM141 318q0 -98 31 -160l260 416q-44 43 -113 43q-84 0 -131 -63t-47 -186v-50zM206 111q43 -42 113 -42 q84 0 131 63t47 186v50q0 97 -31 159z" />
<glyph unicode="&#xd9;" horiz-adv-x="592" d="M70 223v463h88v-468q0 -72 36.5 -110.5t101.5 -38.5t101.5 38.5t36.5 110.5v468h88v-463q0 -114 -59.5 -174.5t-166.5 -60.5t-166.5 60.5t-59.5 174.5zM178 880l1 3h91l85 -132h-68z" />
<glyph unicode="&#xda;" horiz-adv-x="592" d="M70 223v463h88v-468q0 -72 36.5 -110.5t101.5 -38.5t101.5 38.5t36.5 110.5v468h88v-463q0 -114 -59.5 -174.5t-166.5 -60.5t-166.5 60.5t-59.5 174.5zM236 751l86 132h90l1 -3l-107 -129h-70z" />
<glyph unicode="&#xdb;" horiz-adv-x="592" d="M70 223v463h88v-468q0 -72 36.5 -110.5t101.5 -38.5t101.5 38.5t36.5 110.5v468h88v-463q0 -114 -59.5 -174.5t-166.5 -60.5t-166.5 60.5t-59.5 174.5zM171 747l86 135h78l86 -135h-80l-44 79l-46 -79h-80z" />
<glyph unicode="&#xdc;" horiz-adv-x="592" d="M70 223v463h88v-468q0 -72 36.5 -110.5t101.5 -38.5t101.5 38.5t36.5 110.5v468h88v-463q0 -114 -59.5 -174.5t-166.5 -60.5t-166.5 60.5t-59.5 174.5zM177 788v95h87v-95h-87zM327 788v95h88v-95h-88z" />
<glyph unicode="&#xdd;" horiz-adv-x="547" d="M8 686h97l174 -318h4l171 318h85l-221 -402v-284h-88v284zM214 751l86 132h90l1 -3l-108 -129h-69z" />
<glyph unicode="&#xde;" horiz-adv-x="547" d="M70 0v686h88v-136h157q99 0 152 -54t53 -146t-55.5 -147.5t-149.5 -55.5h-157v-147h-88zM158 227h154q52 0 84 33.5t32 89.5t-30 88t-86 32h-154v-243z" />
<glyph unicode="&#xdf;" horiz-adv-x="501" d="M50 0v516q0 111 56 165t148 54q83 0 135.5 -50.5t52.5 -136.5q0 -50 -26.5 -93.5t-68.5 -59.5v-4q51 -19 83.5 -69t32.5 -108q0 -95 -57 -154.5t-143 -59.5h-75v74h67q52 0 88 41t36 100q0 56 -36 95.5t-88 39.5h-67v73h59q46 0 78.5 36t32.5 86q0 54 -28.5 85.5 t-80.5 31.5q-54 0 -85.5 -37t-31.5 -107v-518h-82z" />
<glyph unicode="&#xe0;" d="M34 136q0 53 19.5 88.5t57 54t82.5 26t107 7.5v68q0 41 -18 63t-65 22q-43 0 -62 -24t-19 -59v-12h-81q-1 6 -1 22q0 70 46 108t123 38q79 0 119 -38t40 -109v-295q0 -35 28 -35h32v-57q-22 -12 -54 -12t-53.5 17.5t-29.5 47.5h-5q-43 -69 -128 -69q-18 0 -34.5 3 t-36 12.5t-34 25t-24 43.5t-9.5 64zM106 720l1 3h90l86 -132h-69zM120 141q0 -43 17.5 -61.5t53.5 -18.5q43 0 76 34.5t33 95.5v48q-90 0 -135 -20.5t-45 -77.5z" />
<glyph unicode="&#xe1;" d="M34 136q0 53 19.5 88.5t57 54t82.5 26t107 7.5v68q0 41 -18 63t-65 22q-43 0 -62 -24t-19 -59v-12h-81q-1 6 -1 22q0 70 46 108t123 38q79 0 119 -38t40 -109v-295q0 -35 28 -35h32v-57q-22 -12 -54 -12t-53.5 17.5t-29.5 47.5h-5q-43 -69 -128 -69q-18 0 -34.5 3 t-36 12.5t-34 25t-24 43.5t-9.5 64zM120 141q0 -43 17.5 -61.5t53.5 -18.5q43 0 76 34.5t33 95.5v48q-90 0 -135 -20.5t-45 -77.5zM164 591l86 132h90l1 -3l-108 -129h-69z" />
<glyph unicode="&#xe2;" d="M34 136q0 53 19.5 88.5t57 54t82.5 26t107 7.5v68q0 41 -18 63t-65 22q-43 0 -62 -24t-19 -59v-12h-81q-1 6 -1 22q0 70 46 108t123 38q79 0 119 -38t40 -109v-295q0 -35 28 -35h32v-57q-22 -12 -54 -12t-53.5 17.5t-29.5 47.5h-5q-43 -69 -128 -69q-18 0 -34.5 3 t-36 12.5t-34 25t-24 43.5t-9.5 64zM104 587l85 135h79l85 -135h-80l-44 79l-45 -79h-80zM120 141q0 -43 17.5 -61.5t53.5 -18.5q43 0 76 34.5t33 95.5v48q-90 0 -135 -20.5t-45 -77.5z" />
<glyph unicode="&#xe3;" d="M34 136q0 53 19.5 88.5t57 54t82.5 26t107 7.5v68q0 41 -18 63t-65 22q-43 0 -62 -24t-19 -59v-12h-81q-1 6 -1 22q0 70 46 108t123 38q79 0 119 -38t40 -109v-295q0 -35 28 -35h32v-57q-22 -12 -54 -12t-53.5 17.5t-29.5 47.5h-5q-43 -69 -128 -69q-18 0 -34.5 3 t-36 12.5t-34 25t-24 43.5t-9.5 64zM82 619q0 42 23 73t62 31q22 0 59 -15.5t56 -15.5q30 0 34 31h58q0 -40 -22 -72t-63 -32q-22 0 -59 15.5t-56 15.5q-30 0 -34 -31h-58zM120 141q0 -43 17.5 -61.5t53.5 -18.5q43 0 76 34.5t33 95.5v48q-90 0 -135 -20.5t-45 -77.5z" />
<glyph unicode="&#xe4;" d="M34 136q0 53 19.5 88.5t57 54t82.5 26t107 7.5v68q0 41 -18 63t-65 22q-43 0 -62 -24t-19 -59v-12h-81q-1 6 -1 22q0 70 46 108t123 38q79 0 119 -38t40 -109v-295q0 -35 28 -35h32v-57q-22 -12 -54 -12t-53.5 17.5t-29.5 47.5h-5q-43 -69 -128 -69q-18 0 -34.5 3 t-36 12.5t-34 25t-24 43.5t-9.5 64zM109 628v95h87v-95h-87zM120 141q0 -43 17.5 -61.5t53.5 -18.5q43 0 76 34.5t33 95.5v48q-90 0 -135 -20.5t-45 -77.5zM259 628v95h88v-95h-88z" />
<glyph unicode="&#xe5;" d="M34 136q0 53 19.5 88.5t57 54t82.5 26t107 7.5v68q0 41 -18 63t-65 22q-43 0 -62 -24t-19 -59v-12h-81q-1 6 -1 22q0 70 46 108t123 38q79 0 119 -38t40 -109v-295q0 -35 28 -35h32v-57q-22 -12 -54 -12t-53.5 17.5t-29.5 47.5h-5q-43 -69 -128 -69q-18 0 -34.5 3 t-36 12.5t-34 25t-24 43.5t-9.5 64zM120 141q0 -43 17.5 -61.5t53.5 -18.5q43 0 76 34.5t33 95.5v48q-90 0 -135 -20.5t-45 -77.5zM132 659q0 40 28 67.5t68 27.5t68 -28t28 -67q0 -40 -28 -68.5t-68 -28.5q-39 0 -67.5 28t-28.5 69zM177 659q0 -21 15 -36.5t36 -15.5 q20 0 35.5 15.5t15.5 36.5t-15 35.5t-36 14.5t-36 -14.5t-15 -35.5z" />
<glyph unicode="&#xe6;" horiz-adv-x="729" d="M40 136q0 53 19.5 88.5t57 54t82.5 26t107 7.5v68q0 41 -18 63t-65 22q-43 0 -62 -24t-19 -59v-12h-81q-1 6 -1 22q0 70 46 108t123 38q97 0 135 -60q48 60 140 60q88 0 130.5 -58.5t42.5 -188.5v-52h-285q1 -92 28.5 -135t86.5 -43q40 0 64.5 32t24.5 86h81 q0 -88 -47.5 -139.5t-124.5 -51.5q-113 0 -160 80q-60 -80 -152 -80q-153 0 -153 148zM126 141q0 -43 17.5 -61.5t53.5 -18.5q43 0 76 32t33 90v56q-90 0 -135 -20.5t-45 -77.5zM393 312h198q0 153 -87 153q-53 0 -79.5 -37.5t-31.5 -115.5z" />
<glyph unicode="&#xe7;" horiz-adv-x="410" d="M36 263q0 142 44 208.5t136 66.5q84 0 122.5 -52t38.5 -155h-85q0 71 -16.5 102.5t-59.5 31.5q-94 0 -94 -183v-38q0 -183 94 -183q43 0 61.5 33t18.5 101h81q0 -88 -38.5 -146.5t-117.5 -60.5l-3 -24q81 -6 81 -65q0 -45 -32 -63t-72 -18q-46 0 -84 8v49h76q36 0 36 24 t-34 24h-33l11 71q-67 16 -99 81.5t-32 187.5z" />
<glyph unicode="&#xe8;" d="M42 263q0 141 49 208t149 67q88 0 130.5 -58.5t42.5 -188.5v-52h-285q1 -92 28.5 -135t86.5 -43q40 0 64.5 32t24.5 86h81q0 -88 -47.5 -139.5t-124.5 -51.5q-100 0 -149.5 65.5t-49.5 209.5zM122 720l1 3h90l86 -132h-69zM129 312h198q0 153 -87 153q-53 0 -79.5 -37.5 t-31.5 -115.5z" />
<glyph unicode="&#xe9;" d="M42 263q0 141 49 208t149 67q88 0 130.5 -58.5t42.5 -188.5v-52h-285q1 -92 28.5 -135t86.5 -43q40 0 64.5 32t24.5 86h81q0 -88 -47.5 -139.5t-124.5 -51.5q-100 0 -149.5 65.5t-49.5 209.5zM129 312h198q0 153 -87 153q-53 0 -79.5 -37.5t-31.5 -115.5zM180 591l86 132 h90l1 -3l-107 -129h-70z" />
<glyph unicode="&#xea;" d="M42 263q0 141 49 208t149 67q88 0 130.5 -58.5t42.5 -188.5v-52h-285q1 -92 28.5 -135t86.5 -43q40 0 64.5 32t24.5 86h81q0 -88 -47.5 -139.5t-124.5 -51.5q-100 0 -149.5 65.5t-49.5 209.5zM104 587l85 135h79l85 -135h-80l-44 79l-45 -79h-80zM129 312h198 q0 153 -87 153q-53 0 -79.5 -37.5t-31.5 -115.5z" />
<glyph unicode="&#xeb;" d="M42 263q0 141 49 208t149 67q88 0 130.5 -58.5t42.5 -188.5v-52h-285q1 -92 28.5 -135t86.5 -43q40 0 64.5 32t24.5 86h81q0 -88 -47.5 -139.5t-124.5 -51.5q-100 0 -149.5 65.5t-49.5 209.5zM109 628v95h87v-95h-87zM129 312h198q0 153 -87 153q-53 0 -79.5 -37.5 t-31.5 -115.5zM259 628v95h88v-95h-88z" />
<glyph unicode="&#xec;" horiz-adv-x="228" d="M-3 720l1 3h90l86 -132h-69zM73 0v526h82v-526h-82z" />
<glyph unicode="&#xed;" horiz-adv-x="228" d="M55 591l86 132h89l1 -3l-107 -129h-69zM73 0v526h82v-526h-82z" />
<glyph unicode="&#xee;" horiz-adv-x="228" d="M-11 587l87 135h78l85 -135h-80l-44 79l-45 -79h-81zM73 0v526h82v-526h-82z" />
<glyph unicode="&#xef;" horiz-adv-x="228" d="M-4 628v95h87v-95h-87zM73 0v526h82v-526h-82zM146 628v95h87v-95h-87z" />
<glyph unicode="&#xf0;" d="M40 263q0 140 48 207.5t129 67.5q24 0 50 -12q-19 35 -56 84l-118 -10v60l71 6q-43 49 -47 53l2 4h88q38 -41 45 -49l117 11v-60l-71 -7q118 -161 118 -355q0 -275 -188 -275t-188 275zM126 244q0 -183 102 -183t102 183v38q0 183 -102 183t-102 -183v-38z" />
<glyph unicode="&#xf1;" d="M60 0v526h62l11 -61h6q41 73 127 73q130 0 130 -159v-379h-82v373q0 51 -19 71.5t-55 20.5q-41 0 -69.5 -39t-28.5 -105v-321h-82zM82 619q0 42 23 73t62 31q22 0 59 -15.5t56 -15.5q30 0 34 31h58q0 -40 -22 -72t-63 -32q-22 0 -59 15.5t-56 15.5q-30 0 -34 -31h-58z " />
<glyph unicode="&#xf2;" d="M40 263q0 275 188 275t188 -275t-188 -275t-188 275zM110 720l1 3h91l86 -132h-69zM126 244q0 -183 102 -183t102 183v38q0 183 -102 183t-102 -183v-38z" />
<glyph unicode="&#xf3;" d="M40 263q0 275 188 275t188 -275t-188 -275t-188 275zM126 244q0 -183 102 -183t102 183v38q0 183 -102 183t-102 -183v-38zM168 591l86 132h90l1 -3l-107 -129h-70z" />
<glyph unicode="&#xf4;" d="M40 263q0 275 188 275t188 -275t-188 -275t-188 275zM104 587l85 135h79l85 -135h-80l-44 79l-45 -79h-80zM126 244q0 -183 102 -183t102 183v38q0 183 -102 183t-102 -183v-38z" />
<glyph unicode="&#xf5;" d="M40 263q0 275 188 275t188 -275t-188 -275t-188 275zM82 619q0 42 23 73t62 31q22 0 59 -15.5t56 -15.5q30 0 34 31h58q0 -40 -22 -72t-63 -32q-22 0 -59 15.5t-56 15.5q-30 0 -34 -31h-58zM126 244q0 -183 102 -183t102 183v38q0 183 -102 183t-102 -183v-38z" />
<glyph unicode="&#xf6;" d="M40 263q0 275 188 275t188 -275t-188 -275t-188 275zM109 628v95h87v-95h-87zM126 244q0 -183 102 -183t102 183v38q0 183 -102 183t-102 -183v-38zM259 628v95h88v-95h-88z" />
<glyph unicode="&#xf7;" horiz-adv-x="549" d="M43 213v84h462v-84h-462zM232 51v90h84v-90h-84zM232 369v91h84v-91h-84z" />
<glyph unicode="&#xf8;" horiz-adv-x="501" d="M62 -32l47 87q-47 68 -47 208q0 275 188 275q64 0 105 -31l28 51h55l-48 -87q48 -67 48 -208q0 -275 -188 -275q-65 0 -106 31l-27 -51h-55zM148 244q0 -60 10 -99l158 290q-26 30 -66 30q-102 0 -102 -183v-38zM184 91q24 -30 66 -30q102 0 102 183v38q0 57 -11 98z" />
<glyph unicode="&#xf9;" d="M60 147v379h82v-373q0 -51 19 -71.5t55 -20.5q41 0 69.5 39t28.5 105v321h82v-526h-62l-11 61h-6q-41 -73 -127 -73q-130 0 -130 159zM110 720l1 3h91l86 -132h-69z" />
<glyph unicode="&#xfa;" d="M60 147v379h82v-373q0 -51 19 -71.5t55 -20.5q41 0 69.5 39t28.5 105v321h82v-526h-62l-11 61h-6q-41 -73 -127 -73q-130 0 -130 159zM168 591l86 132h90l1 -3l-107 -129h-70z" />
<glyph unicode="&#xfb;" d="M60 147v379h82v-373q0 -51 19 -71.5t55 -20.5q41 0 69.5 39t28.5 105v321h82v-526h-62l-11 61h-6q-41 -73 -127 -73q-130 0 -130 159zM104 587l85 135h79l85 -135h-80l-44 79l-45 -79h-80z" />
<glyph unicode="&#xfc;" d="M60 147v379h82v-373q0 -51 19 -71.5t55 -20.5q41 0 69.5 39t28.5 105v321h82v-526h-62l-11 61h-6q-41 -73 -127 -73q-130 0 -130 159zM109 628v95h87v-95h-87zM259 628v95h88v-95h-88z" />
<glyph unicode="&#xfd;" horiz-adv-x="410" d="M10 526h90l116 -408h4l98 408h83l-134 -499q-26 -98 -66 -153.5t-104 -55.5q-36 0 -59 8v57h29q79 0 104 117zM146 591l85 132h90l1 -3l-107 -129h-69z" />
<glyph unicode="&#xfe;" d="M60 -173v896h82v-243l4 -1q34 59 107 59q163 0 163 -276q0 -136 -43.5 -205t-113.5 -69q-38 0 -68.5 15.5t-43.5 42.5h-5v-219h-82zM142 244q0 -183 94 -183q48 0 71 43t23 140v38q0 97 -23 140t-71 43q-94 0 -94 -183v-38z" />
<glyph unicode="&#xff;" horiz-adv-x="410" d="M10 526h90l116 -408h4l98 408h83l-134 -499q-26 -98 -66 -153.5t-104 -55.5q-36 0 -59 8v57h29q79 0 104 117zM86 628v95h87v-95h-87zM236 628v95h88v-95h-88z" />
<glyph unicode="&#x152;" horiz-adv-x="820" d="M49 343q0 176 58.5 265.5t165.5 89.5q96 0 152 -80v68h353v-80h-265v-215h220v-80h-220v-231h271v-80h-359v68q-55 -80 -152 -80q-107 0 -165.5 89.5t-58.5 265.5zM141 318q0 -123 37.5 -186t104.5 -63t104.5 63t37.5 186v50q0 123 -37.5 186t-104.5 63t-104.5 -63 t-37.5 -186v-50z" />
<glyph unicode="&#x153;" horiz-adv-x="774" d="M53 263q0 275 188 275q100 0 146 -77q49 77 156 77q88 0 130.5 -58.5t42.5 -188.5v-52h-285q1 -92 28.5 -135t86.5 -43q40 0 64.5 32t24.5 86h81q0 -88 -47.5 -139.5t-124.5 -51.5q-110 0 -157 76q-45 -76 -146 -76q-188 0 -188 275zM139 244q0 -183 102 -183t102 183v38 q0 183 -102 183t-102 -183v-38zM432 312h198q0 153 -87 153q-53 0 -79.5 -37.5t-31.5 -115.5z" />
<glyph unicode="&#x178;" horiz-adv-x="547" d="M8 686h97l174 -318h4l171 318h85l-221 -402v-284h-88v284zM155 788v95h87v-95h-87zM305 788v95h87v-95h-87z" />
<glyph unicode="&#x2c6;" horiz-adv-x="273" d="M10 587l86 135h78l85 -135h-80l-44 79l-45 -79h-80z" />
<glyph unicode="&#x2dc;" horiz-adv-x="273" d="M-10 619q0 42 23 73t62 31q22 0 59 -15.5t56 -15.5q30 0 34 31h58q0 -40 -22 -72t-63 -32q-22 0 -59 15.5t-56 15.5q-30 0 -34 -31h-58z" />
<glyph unicode="&#x2000;" horiz-adv-x="457" />
<glyph unicode="&#x2001;" horiz-adv-x="915" />
<glyph unicode="&#x2002;" horiz-adv-x="457" />
<glyph unicode="&#x2003;" horiz-adv-x="915" />
<glyph unicode="&#x2004;" horiz-adv-x="305" />
<glyph unicode="&#x2005;" horiz-adv-x="228" />
<glyph unicode="&#x2006;" horiz-adv-x="152" />
<glyph unicode="&#x2007;" horiz-adv-x="152" />
<glyph unicode="&#x2008;" horiz-adv-x="114" />
<glyph unicode="&#x2009;" horiz-adv-x="183" />
<glyph unicode="&#x200a;" horiz-adv-x="50" />
<glyph unicode="&#x2010;" horiz-adv-x="273" d="M10 221v98h252v-98h-252z" />
<glyph unicode="&#x2011;" horiz-adv-x="273" d="M10 221v98h252v-98h-252z" />
<glyph unicode="&#x2012;" horiz-adv-x="273" d="M10 221v98h252v-98h-252z" />
<glyph unicode="&#x2013;" d="M0 233v75h455v-75h-455z" />
<glyph unicode="&#x2014;" horiz-adv-x="820" d="M0 233v75h820v-75h-820z" />
<glyph unicode="&#x2018;" horiz-adv-x="182" d="M41 454v99l48 133h52l-40 -124h40v-108h-100z" />
<glyph unicode="&#x2019;" horiz-adv-x="182" d="M41 454l40 124h-40v108h100v-99l-48 -133h-52z" />
<glyph unicode="&#x201a;" horiz-adv-x="182" d="M37 0v108h100v-99l-48 -133h-52l40 124h-40z" />
<glyph unicode="&#x201c;" horiz-adv-x="273" d="M22 454v99l48 133h52l-40 -124h40v-108h-100zM149 454v99l48 133h52l-40 -124h40v-108h-100z" />
<glyph unicode="&#x201d;" horiz-adv-x="273" d="M24 454l40 124h-40v108h100v-99l-48 -133h-52zM151 454l40 124h-40v108h100v-99l-48 -133h-52z" />
<glyph unicode="&#x201e;" horiz-adv-x="273" d="M24 0v108h100v-99l-48 -133h-52l40 124h-40zM151 0v108h100v-99l-48 -133h-52l40 124h-40z" />
<glyph unicode="&#x2022;" horiz-adv-x="287" d="M34 344q0 46 32 78.5t77 32.5q46 0 78 -32.5t32 -78.5t-32 -79t-78 -33q-45 0 -77 33t-32 79z" />
<glyph unicode="&#x2026;" horiz-adv-x="820" d="M87 0v108h100v-108h-100zM360 0v108h100v-108h-100zM632 0v108h100v-108h-100z" />
<glyph unicode="&#x202f;" horiz-adv-x="183" />
<glyph unicode="&#x2039;" horiz-adv-x="273" d="M29 326l141 200h71l-113 -200l113 -200h-71z" />
<glyph unicode="&#x203a;" horiz-adv-x="273" d="M32 126l113 200l-113 200h71l141 -200l-141 -200h-71z" />
<glyph unicode="&#x205f;" horiz-adv-x="228" />
<glyph unicode="&#x20ac;" d="M19 243v65h56q-1 11 -1 35q0 23 1 35h-56v65h63q21 123 93 189t185 66q36 0 67 -10v-71q-29 8 -55 8q-75 0 -130 -46t-75 -136h202v-65h-211q-1 -12 -1 -35q0 -24 1 -35h211v-65h-202q20 -90 75 -136t130 -46q26 0 55 8v-71q-37 -10 -67 -10q-113 0 -185 66t-93 189h-63z " />
<glyph unicode="&#x2122;" horiz-adv-x="820" d="M80 637v49h271v-49h-109v-354h-52v354h-110zM394 282v404h79l84 -323h4l84 323h78v-404h-52v336h-4l-88 -336h-47l-87 336h-4v-336h-47z" />
<glyph unicode="&#xe000;" horiz-adv-x="525" d="M0 0v525h525v-525h-525z" />
<glyph unicode="&#xfb01;" horiz-adv-x="410" d="M9 453v73h46v84q0 52 24.5 86.5t79.5 34.5q35 0 69 -12v-57h-44q-47 0 -47 -48v-88h91v-73h-91v-453h-82v453h-46zM278 0v526h82v-526h-82zM278 625v98h82v-98h-82z" />
<glyph unicode="&#xfb02;" horiz-adv-x="410" d="M9 453v73h46v84q0 52 24.5 86.5t79.5 34.5q35 0 69 -12v-57h-44q-47 0 -47 -48v-88h91v-73h-91v-453h-82v453h-46zM278 0v723h82v-723h-82z" />
</font>
</defs>
</svg>
