<?xml version="1.0" standalone="no"?>
<!DOCTYPE svg PUBLIC "-//W3C//DTD SVG 1.1//EN" "http://www.w3.org/Graphics/SVG/1.1/DTD/svg11.dtd" >
<svg xmlns="http://www.w3.org/2000/svg">
<metadata></metadata>
<defs>
<font id="dubielplainregular" horiz-adv-x="1434" >
<font-face units-per-em="4096" ascent="3276" descent="-820" />
<missing-glyph horiz-adv-x="1036" />
<glyph horiz-adv-x="4096" />
<glyph horiz-adv-x="4096" />
<glyph unicode="&#xd;" horiz-adv-x="0" />
<glyph unicode=" "  horiz-adv-x="1036" />
<glyph unicode="&#x09;" horiz-adv-x="1036" />
<glyph unicode="&#xa0;" horiz-adv-x="1036" />
<glyph unicode="!" horiz-adv-x="954" d="M496 2691q98 0 142 -28t75 -103q-14 -240 -39.5 -458t-76 -602t-72.5 -572t-38 -428h-12q-11 252 -30.5 488t-47 491t-63 560.5t-60.5 516.5q12 135 222 135zM270 201q0 87 64 152t149 65q89 0 153 -64t64 -153q0 -88 -64.5 -150.5t-152.5 -62.5q-84 0 -148.5 63.5 t-64.5 149.5z" />
<glyph unicode="&#x22;" horiz-adv-x="1114" d="M279 2675q75 0 140.5 -33t76.5 -98q16 -72 16 -160q0 -367 -332 -684h-33q52 67 108 139.5t98.5 145.5t67.5 155t25 182q-63 -65 -151 -65q-55 0 -102 37q-103 81 -103 180q0 31 12 61q47 134 177 140zM774 2675q77 0 142 -33t79 -98q17 -71 17 -156q0 -366 -336 -688 h-29q52 67 108.5 140.5t98.5 145.5t67 154t25 182q-65 -65 -155 -65q-54 0 -103 37q-98 84 -98 180q0 31 12 61q47 134 172 140z" />
<glyph unicode="$" horiz-adv-x="1749" d="M700 2703h25v-163q69 28 225 28q94 0 156 -12v143h24v-147q105 -33 176.5 -63.5t131.5 -88.5q171 -159 176 -348q0 -177 -131 -201q-175 0 -193 119q0 60 42 114t98 66q59 8 65 50q-26 107 -138 192.5t-231 97.5v-1052q137 -46 262.5 -140t202 -223t76.5 -276 q-6 -527 -438 -738q-19 -8 -54.5 -27.5t-52.5 -21.5q2 -6 3 -136.5t1 -215.5h-20v348q-229 -28 -295 -28q-53 0 -86 4v-324l-33 4q4 0 4 324q-389 13 -565 323q-57 114 -57 197q0 69 41 127q77 115 176 115q7 0 45 -9q47 -17 72.5 -64t25.5 -104q0 -62 -20 -98 q-14 -30 -91 -67.5t-77 -83.5q0 -25 8 -41q62 -98 192.5 -167t253.5 -75l5 1184q-482 225 -521 516q-4 28 -4 90q0 372 328 602q40 26 100 52t92 42v176zM1507 811q-83 202 -381 279v-996q119 26 230 135q188 188 188 398q0 86 -37 184zM1106 1450v1040q-65 13 -143 13 q-163 0 -238 -45v-910q34 -9 113 -37.5t142.5 -44.5t125.5 -16zM700 1552v897q-104 -27 -192 -96t-135 -178q-54 -121 -54 -209q0 -85 41 -168q55 -100 136 -150.5t204 -95.5zM1106 78v1020q-69 5 -217 51.5t-164 62.5v-1175q274 0 381 41z" />
<glyph unicode="&#x26;" horiz-adv-x="2245" d="M1020 2699q40 8 65 8q140 0 267 -118q143 -144 143 -336q0 -79 -29 -205q-42 -174 -167 -291t-287 -164l397 -868q64 93 83.5 195.5t37.5 290t43 276.5q41 161 156 213q76 45 151 45q65 0 115 -45q78 -65 78 -152q0 -6 -9 -53q-18 -43 -64 -79.5t-91 -47.5 q-78 0 -126 34.5t-54 92.5q0 116 65 156q-24 12 -45 12q-81 0 -119 -127q-43 -129 -62.5 -302t-38.5 -330t-63 -269q143 -365 361 -504q24 -12 49 -12q71 0 188 155q38 52 49.5 156t20.5 127q12 -41 12 -119q-7 -157 -98 -274q-125 -157 -303 -168q-110 0 -193.5 44.5 t-139.5 108.5t-130 170q-81 -68 -141 -119.5t-130 -98.5t-147.5 -76t-158.5 -29q-49 0 -99 12q-251 59 -405 324q-99 190 -99 393q0 232 131 434q137 219 447 336q-111 335 -111 549q0 229 103 422q90 167 348 233zM737 1397l-45 57q-131 -72 -198.5 -119.5t-112.5 -138.5 q-49 -98 -49 -221q0 -88 24 -168q96 -283 218 -469t331 -186q168 14 328 213zM1311 2552q-111 106 -283 106q-170 -80 -209 -172q-37 -106 -37 -200q0 -111 34.5 -221.5t106 -268t81.5 -182.5q205 98 315.5 226t118.5 319q0 136 -25.5 226.5t-101.5 166.5z" />
<glyph unicode="'" horiz-adv-x="614" d="M279 2675q75 0 140.5 -33t76.5 -98q16 -72 16 -160q0 -367 -332 -684h-33q52 67 108 139.5t98.5 145.5t67.5 155t25 182q-63 -65 -151 -65q-55 0 -102 37q-103 81 -103 180q0 31 12 61q47 134 177 140z" />
<glyph unicode="(" horiz-adv-x="713" d="M688 2703q-9 -87 -85.5 -261.5t-90.5 -217.5q-100 -292 -150.5 -594t-50.5 -602q0 -270 42.5 -539t130.5 -523t221 -478q-81 31 -137 97.5t-142 197.5q-194 271 -297.5 592t-103.5 661q0 465 200 926q66 157 132 283.5t142.5 233.5t188.5 224z" />
<glyph unicode=")" horiz-adv-x="713" d="M-8 -520q9 88 86.5 255.5t93.5 219.5q99 286 150 585.5t51 606.5q0 272 -43 541t-131.5 524t-218.5 479q79 -26 130.5 -88.5t147.5 -202.5q192 -272 294.5 -592t102.5 -657q0 -482 -196 -934q-71 -160 -135 -282t-144 -234t-188 -221z" />
<glyph unicode="*" horiz-adv-x="827" d="M410 2699q86 0 86 -57q-2 -20 -21.5 -96.5t-19.5 -116.5q0 -34 12 -66q29 0 55.5 20t68.5 63t71.5 66t54.5 23q44 0 78 -61q-8 -59 -49.5 -80t-128 -40t-121.5 -44q15 -35 50 -50t107 -33t105 -33t33 -44q0 -32 -54 -86q-49 0 -80 25.5t-85.5 83t-92.5 72.5 q-28 -24 -28 -70q0 -34 20.5 -106.5t20.5 -102.5q0 -53 -123 -53q-17 26 -17 65q0 31 16.5 93t16.5 100q0 31 -12 61q-35 0 -66.5 -22.5t-71 -63t-67 -61.5t-53.5 -21q-40 0 -78 54q14 55 44.5 68t124.5 39.5t126 64.5q-9 43 -47 59.5t-104 26t-95 21.5t-29 48q0 19 21 70 q24 12 45 12q31 0 58 -18t69.5 -58.5t67 -60t55.5 -27.5q12 31 12 66t-14.5 95t-14.5 85q0 58 54 90z" />
<glyph unicode="+" horiz-adv-x="1290" d="M762 1872v-348h450q-45 -38 -60 -124.5t-17 -137.5h-373v-431q-55 39 -138 60t-128 27v344h-402q33 49 55.5 133t30.5 129h316v434q38 -45 126.5 -64t139.5 -22z" />
<glyph unicode="," horiz-adv-x="823" d="M385 406q74 0 140 -35t77 -101q16 -71 16 -159q0 -363 -331 -680h-33q61 78 112.5 145t93.5 137.5t67.5 153.5t25.5 182q-68 -61 -152 -61q-65 0 -102 37q-102 82 -102 176q0 31 12 61q46 130 176 144z" />
<glyph unicode="-" d="M1286 1524q-45 -35 -62.5 -115.5t-19.5 -126.5l-1040 -20q35 52 57 135t29 127h1036z" />
<glyph unicode="." horiz-adv-x="741" d="M184 209q0 85 57 143t144 58q85 0 143 -57t58 -144t-59 -144t-142 -57q-85 0 -143 58t-58 143z" />
<glyph unicode="/" horiz-adv-x="2413" d="M2126 2703h176l-2003 -2703h-188z" />
<glyph unicode="0" horiz-adv-x="1778" d="M389 2454q77 115 215.5 182t292.5 67q243 0 385 -159q141 -152 234 -343.5t136.5 -406t43.5 -434.5q0 -547 -221 -1016q-67 -141 -195 -226.5t-281 -109.5q-56 -8 -86 -8q-189 0 -348 115.5t-262 294.5q-112 204 -166.5 440t-54.5 481q0 301 78.5 592.5t228.5 530.5z M1233 2503q-10 49 -122.5 108.5t-221.5 59.5q-37 0 -78 -13q-114 -34 -210.5 -94.5t-104.5 -122.5q-45 -409 -45 -913q0 -98 2.5 -285.5t5.5 -370t4 -307.5q0 -138 49.5 -253.5t142.5 -168.5q149 -82 263 -82q133 0 282 95q103 65 103 479q0 263 -7 672t-23.5 761t-39.5 435 z" />
<glyph unicode="1" horiz-adv-x="1298" d="M618 2666q27 46 95 46q33 0 57.5 -15.5t24.5 -42.5v-2605h405v-45h-1122v45h401v2118q-76 -92 -204 -194t-197 -150q0 19 59.5 71.5t79.5 79.5q92 113 156 221.5t141.5 265t103.5 205.5z" />
<glyph unicode="2" horiz-adv-x="1712" d="M737 2699q74 8 107 8q225 0 402 -119.5t249 -330.5q45 -123 45 -275q0 -275 -153.5 -561t-403 -588.5t-463.5 -558.5q676 0 963 13q82 5 82 274q0 41 -2 128t-2 126q0 74 4 103h32l50 -906q-11 -20 -291 -20q-125 0 -453 6t-481 6q-44 0 -117 -2t-100 -2 q311 338 435 479.5t269 356t234.5 456t89.5 502.5q0 86 -4 127q-21 279 -86.5 460.5t-257.5 235.5q-85 25 -168 25q-189 0 -328 -139q-246 -240 -246 -529q0 -90 25 -192q66 -205 225 -258q33 -13 103 -13q157 0 221 111q65 109 65 262q0 210 -123 496q185 -236 185 -537 q0 -227 -115 -413q-61 -102 -229 -132q-225 0 -336 189q-103 181 -103 385q0 243 132 450q107 172 233 263t311 114z" />
<glyph unicode="3" horiz-adv-x="1749" d="M705 2695q81 17 167 17q147 0 278.5 -48.5t231 -145t154.5 -237.5q53 -151 53 -253q0 -121 -53 -238q-109 -251 -483 -369q449 -104 569 -438q45 -127 45 -233q0 -195 -143 -410q-233 -344 -672 -344q-117 0 -234 24q-178 45 -322 177.5t-206 326.5q-16 44 -16 103 q0 103 73 200q59 79 160 86q41 0 74 -16q108 -44 123 -123q0 -151 -86 -201q-51 -28 -103 -28q-46 0 -90 28q-14 14 -25.5 27t-24 22t-28.5 9q0 -162 88 -295t211 -205q192 -102 373 -102q163 0 299 86q234 149 234 491q0 57 -41 447q-27 224 -205 303q-78 33 -348 33 q-79 0 -174.5 -2.5t-157.5 -2.5v46q38 0 110 -2.5t128 -2.5q371 0 499 119q176 159 176 418q0 265 -176 541q-55 92 -150 123.5t-231 31.5q-170 0 -314 -92.5t-243 -255.5q-37 -69 -37 -139q0 -36 13 -70q69 82 237 82q111 -41 111 -192q-7 -148 -143 -181q-173 0 -238 123 q-45 85 -45 181q0 118 78 249q85 149 205.5 227t298.5 105z" />
<glyph unicode="4" horiz-adv-x="1733" d="M1110 2703q-14 -372 -149.5 -722.5t-325.5 -646t-492 -703.5h762v893q280 137 336 397l-4 -1278q135 0 225 90q74 71 98.5 161.5t65.5 317.5h33l-4 -626h-418v-529l381 -12v-45h-1069v45h356v541l-844 -4q153 214 295 471q188 336 280.5 670t92.5 690q0 137 -12 278 q144 -25 213 -25q105 0 180 37z" />
<glyph unicode="5" horiz-adv-x="1622" d="M1303 2703q-30 -128 -141.5 -239.5t-272.5 -173.5q-112 -45 -238 -45q-147 0 -393 82l-25 -934q157 307 529 307q49 0 139 -8q364 -43 524 -365q119 -244 119 -475q0 -141 -45 -287q-144 -445 -565 -540q-102 -29 -221 -29q-284 0 -463 197q-176 193 -176 405 q0 79 20 135q33 121 156 148q219 0 237 -136q0 -140 -98 -184q-30 -12 -61 -12q-64 0 -120 40.5t-73 98.5q-24 -67 -24 -127q0 -171 168 -344q178 -192 417 -192q94 0 193 36q196 78 274 250.5t78 425.5q0 144 -37 492q-33 318 -291 405q-61 21 -151 21q-177 0 -332 -94 q-87 -51 -129 -128t-108 -241h-29q37 666 37 1024q0 278 -8 430q305 -94 536 -94q234 0 438 86q38 14 77 34t59 31z" />
<glyph unicode="6" horiz-adv-x="1683" d="M926 2703q349 0 471 -278q45 -116 45 -176q0 -73 -33 -127q-61 -108 -147 -127q-199 0 -238 127q-8 40 -8 53q0 76 65 135q74 74 148 74q63 0 110 -66q9 38 9 45q0 63 -86 172q-101 123 -291 123q-58 0 -90 -4q-255 -21 -320 -221q-155 -505 -155 -967q0 -23 2 -68t2 -67 q79 130 155.5 214t192.5 118q94 29 192 29q245 0 418 -185q246 -252 246 -594q0 -163 -53 -319q-59 -215 -194 -375t-343 -203q-71 -16 -152 -16q-270 0 -446 217q-173 209 -258.5 493.5t-85.5 596.5q0 505 201 901q236 480 643 495zM1130 1552q-69 99 -212 99 q-186 0 -300 -127q-212 -224 -212 -590q0 -363 196 -774q53 -111 262 -111q82 0 156 12q153 23 199.5 165.5t50.5 379.5q2 67 7 186t5 175q0 377 -152 585z" />
<glyph unicode="7" horiz-adv-x="1589" d="M1516 2703l8 -45q-331 -469 -501.5 -1020.5t-170.5 -1154.5q0 -203 29 -483q-77 49 -213 49q-121 0 -217 -37q27 426 141 835.5t291 789t420 776.5l-41 8h-1045q-94 -54 -94 -258q0 -36 4 -109t4 -104q0 -37 -8 -95h-53l4 828q211 4 424.5 8t491 8t526.5 4z" />
<glyph unicode="8" horiz-adv-x="1753" d="M549 2638q150 69 311 69q206 0 389.5 -100t270.5 -272q69 -138 69 -271q0 -178 -114 -331q-103 -125 -332 -242q490 -287 520 -655q8 -82 8 -119q0 -364 -319 -574q-219 -147 -496 -147q-219 0 -364 90q-403 245 -414 598q0 335 368 610q29 22 93 52t71 34 q-487 261 -487 688q15 179 132 329.5t294 240.5zM1311 2400q-61 132 -186 201.5t-277 69.5q-179 0 -324 -91q-221 -138 -221 -331q4 -191 123 -329.5t279.5 -225.5t384.5 -178q144 64 208 176q91 146 91 348q0 191 -78 360zM1454 672q-22 192 -143.5 319t-269 194.5 t-386.5 149.5q-111 -43 -173.5 -80t-100.5 -112q-66 -138 -66 -365q0 -238 66 -463q31 -102 112.5 -155.5t219.5 -98.5q73 -12 159 -12q353 7 512 205q78 93 78 266q0 44 -8 152z" />
<glyph unicode="9" horiz-adv-x="1700" d="M991 2675q267 -75 430 -394q197 -425 197 -925q0 -230 -47 -451t-142.5 -410.5t-236.5 -326.5q-182 -176 -418 -176q-117 0 -209 33q-241 78 -295 262q-28 93 -28 147q0 64 32 144q58 122 218 122q133 -13 167 -122q9 -21 9 -62q0 -129 -119 -176q-28 -16 -66 -16 q-78 0 -151 73q-13 -19 -13 -49q0 -53 50 -135q103 -181 376 -188q222 0 320 122q98 128 145.5 267.5t59.5 272t12 312.5v95q0 139 4 204l-8 33q-81 -147 -227 -249.5t-306 -102.5q-203 9 -374.5 138t-239.5 321q-61 170 -61 360q0 463 340 750q184 159 385 159 q86 0 196 -32zM1053 2576q-49 99 -197 99q-44 0 -123 -17q-173 -48 -241 -209q-127 -295 -127 -630q0 -411 188 -697q71 -106 209 -106q51 0 119 20q241 76 311 246q102 239 102 479q0 359 -241 815z" />
<glyph unicode=":" horiz-adv-x="770" d="M209 1602q0 84 58 142t143 58q86 0 145 -57t59 -143q0 -85 -60 -143t-144 -58q-83 0 -142 59t-59 142zM209 209q0 85 58 143t143 58q86 0 145 -57t59 -144t-59.5 -144t-144.5 -57q-83 0 -142 58t-59 143z" />
<glyph unicode=";" horiz-adv-x="582" d="M279 406q74 0 140 -35t77 -101q16 -71 16 -159q0 -363 -332 -680h-33q61 78 112.5 144t93.5 137.5t67.5 154.5t25.5 182q-66 -61 -147 -61q-65 0 -106 37q-103 81 -103 176q0 31 12 61q46 130 177 144zM78 1602q0 84 57 142t144 58q86 0 143 -57t57 -143q0 -85 -58 -143 t-142 -58q-85 0 -143 59t-58 142z" />
<glyph unicode="=" horiz-adv-x="1233" d="M1286 1524q-45 -35 -62.5 -115.5t-19.5 -126.5l-1040 -20q35 52 57 135t29 127h1036zM1286 2085q-45 -38 -62.5 -119t-19.5 -127l-1040 -20q35 52 57 136.5t29 129.5h1036z" />
<glyph unicode="?" horiz-adv-x="1593" d="M758 2703q445 0 598 -372q45 -106 45 -230q0 -161 -86 -327q-76 -125 -312.5 -321.5t-349 -325t-112.5 -312.5q0 -86 37 -188q20 -59 81.5 -97t122.5 -38q48 0 78 24q95 82 129.5 132.5t50.5 162.5q0 76 -7 134.5t-19.5 121t-14.5 76.5q71 -65 78 -246q0 -200 -98 -324 q-99 -106 -193 -106q-47 0 -86 16q-148 52 -192 201q-25 89 -25 160q0 152 78 276t236.5 303t237.5 309t79 296q0 24 -8 90q-7 57 -15 119t-21 113t-40.5 99t-75.5 86q-129 111 -278 111q-156 0 -324 -180q-106 -114 -106 -254q0 -47 12 -103q49 -193 193 -241 q42 -17 98 -17q63 0 139 37q139 68 139 250q0 37 -8 119q-12 102 -69 180q118 -102 118 -250q0 -225 -42 -334.5t-183 -152.5q-66 -25 -127 -25q-73 0 -151 41q-65 38 -94.5 83.5t-65.5 142.5q-33 81 -33 180q0 178 135 352q90 114 196.5 168.5t254.5 60.5zM565 197 q0 82 59 141t146 59q85 0 143 -58t58 -142q0 -87 -59 -146t-142 -59q-85 0 -145 60t-60 145z" />
<glyph unicode="A" horiz-adv-x="2589" d="M1364 2650q43 -128 312.5 -966.5t353 -1097.5t174.5 -541h331l-12 -45l-1081 -4l4 49h381l-242 823h-794l-193 -598q-8 -40 -8 -53q0 -172 430 -172v-45h-901v45q316 0 393 242q79 255 250 808.5t324 1054t163 549.5q4 13 25 13q24 0 51.5 -18t38.5 -44zM1565 930 l-389 1245l-365 -1245h754z" />
<glyph unicode="B" horiz-adv-x="2314" d="M143 2707h1454q257 0 443 -348q74 -141 74 -303q0 -94 -29 -188q-42 -126 -135.5 -207.5t-208 -127t-262.5 -83.5q267 -67 440 -158t248 -280q53 -151 53 -283q0 -192 -111 -377q-102 -170 -246 -247.5t-325.5 -95t-533.5 -17.5q-11 0 -341 1.5t-548 2.5v49h409v2613 h-381v49zM1802 1151q-170 238 -381 254q-130 5 -300 6.5t-257 1.5v-1368q48 0 139 -2t132 -2q201 0 345 45t253 176q200 239 200 504q0 212 -131 385zM1716 2413q-98 157 -256 203t-403 46h-193v-1192q50 0 153 -4t154 -4q347 0 508 180q144 162 144 398q0 197 -107 373z " />
<glyph unicode="C" horiz-adv-x="1929" d="M942 2712q66 8 98 8q267 0 533 -312l237 279l29 -12v-959h-29q-191 679 -606 926q-63 37 -176 37q-163 0 -242 -78q-198 -206 -275 -466t-77 -591q0 -144 19 -411t22 -322q20 -315 104.5 -518t305.5 -301q84 -29 164 -29q135 0 233 62q151 116 252 278.5t159.5 337 t116.5 408.5h25v-1106q-51 20 -79.5 57t-74 109t-84.5 108l-24 16q-247 -311 -504 -311q-238 0 -434 141.5t-311 362.5q-238 468 -238 950q0 435 197 778q89 157 170.5 263.5t201.5 185t287 109.5z" />
<glyph unicode="D" horiz-adv-x="2433" d="M131 2703h1348q186 0 343.5 -106.5t272 -293.5t177 -421t67.5 -485q0 -507 -134.5 -805.5t-451.5 -460.5q-261 -135 -565 -135h-1077v49h405l-4 2613h-381v45zM1282 2654h-410v-2609h345q220 0 396 100t210 273q123 587 123 1040q0 528 -156 905q-36 86 -117 152.5 t-185 102.5t-206 36z" />
<glyph unicode="E" horiz-adv-x="2212" d="M119 2699h1945v-905h-32q-21 206 -34 297.5t-51.5 205.5t-114.5 199.5t-198 116.5q-168 41 -389 41q-33 0 -140 -2t-200 -2l-57 -12v-1139q80 0 192.5 -1.5t171.5 -2.5q110 0 163 95t74.5 223t41.5 251l20 -4v-1220h-24q-15 109 -27 198.5t-36 171.5t-75.5 136.5 t-136.5 54.5h-364v-1348q58 0 175 -4t177 -4q196 0 347.5 42t271.5 159q80 77 128.5 170.5t71 185t37.5 208t29 222.5h24v-1036l-2011 -4v53h381l37 45v2548q-67 12 -196.5 16t-200.5 4v41z" />
<glyph unicode="F" horiz-adv-x="2212" d="M139 2703l1962 4v-1073h-37q-31 355 -128.5 603.5t-350.5 379.5q-131 58 -655 58h-86v-1225h246q185 0 283 187t134 407h21v-1204h-25q-4 22 -22.5 125.5t-59.5 202t-123 172t-204 73.5h-250v-1192q0 -108 102.5 -144t278.5 -36v-41h-1127v41q105 0 261.5 35t156.5 153 v2442h-377v32z" />
<glyph unicode="G" horiz-adv-x="2425" d="M942 2744q74 9 94 9q336 0 566 -291q45 18 103.5 79.5t108.5 111t95 59.5v-1057h-25q-85 296 -135 441.5t-157 303t-281 258.5q-142 78 -295 78q-188 0 -275 -127q-118 -169 -178.5 -337t-80 -346.5t-19.5 -418.5q0 -281 16.5 -521t58.5 -449t117 -369q35 -71 152 -119.5 t250 -48.5q96 0 180 25q211 60 290 302t79 545q0 116 -6.5 188t-10.5 103h-426v49h1151v-49h-442l4 -1208q-60 138 -96.5 193.5t-74 86t-91.5 72.5q-172 -320 -451 -352q-66 -8 -102 -8q-343 0 -598 291q-179 199 -265.5 487.5t-86.5 609.5q0 471 163 877q95 232 269.5 370 t398.5 162z" />
<glyph unicode="H" horiz-adv-x="2781" d="M135 2703h1114v-45h-385l-4 -1110h1049v1102l-389 4v41q187 0 515 0.5t607 3.5v-49h-406v-2605h418v-45h-1134l-4 45h393v1442h-1045v-1442h385v-49h-1102v49h385v2613h-393z" />
<glyph unicode="I" horiz-adv-x="1262" d="M74 2703h1118v-45h-385v-2613h385v-49h-1118v49h372v2613h-372v45z" />
<glyph unicode="J" horiz-adv-x="1679" d="M1602 2703v-45h-410v-2101q0 -293 -234 -463q-139 -102 -327 -102q-57 0 -205 16q-202 24 -311 238q-45 89 -45 196q0 111 45 193q66 115 200 115q146 0 197 -127q12 -37 12 -78q0 -67 -41 -119q-64 -76 -164 -82q-35 0 -77 12q-26 6 -53.5 24.5t-41.5 29.5 q-16 -17 -16 -58q0 -43 41 -127q97 -192 369 -192q99 4 209 56.5t110 127.5v2441h-377v45h1119z" />
<glyph unicode="K" horiz-adv-x="2597" d="M2408 2695v-29q-351 -31 -561 -286q-88 -104 -256 -305t-252 -306l803 -1724h332l-4 -49q-680 0 -1053 4v45h332l-631 1434l-282 -336v-1098h405v-45h-1118v45h401v2609h-397v45h1135v-45l-426 -4v-1384l933 1114q37 42 37 106q0 65 -43 113.5t-108 54.5h-180v45 q159 -1 452.5 -2.5t480.5 -1.5z" />
<glyph unicode="L" horiz-adv-x="2224" d="M156 2707h1081v-49h-373v-2613q288 7 470.5 30.5t328.5 100t221 230.5q131 265 201 815h29v-1221l-1999 -4v45h413v70v2547h-368z" />
<glyph unicode="M" horiz-adv-x="2982" d="M2118 2695l712 4v-45h-364v-2609h381v-45h-1102v45h401v2499q-76 -280 -229.5 -836t-320.5 -1132t-187 -576q-15 0 -121 344t-268.5 905t-241.5 837t-123 433v-2298q0 -67 46 -105t116.5 -52.5t145.5 -16t114 -2.5l4 -53l-921 8v45q405 0 405 180l4 2257 q0 78 -65.5 110.5t-155 41.5t-205.5 20v45h815l549 -2027h25z" />
<glyph unicode="N" horiz-adv-x="2519" d="M131 2703h680l1098 -2007v1684q0 278 -393 278v45h868v-45q-414 0 -414 -237v-2421h-49l-1315 2400v-2015q0 -222 275 -311q44 -14 97 -17.5t83 -3.5v-57l-946 4v53q155 0 200 8q100 14 152 136t67 294t15 398v1614q0 155 -418 155v45z" />
<glyph unicode="O" horiz-adv-x="2081" d="M1040 2675q192 0 354.5 -117t276.5 -289q125 -186 191.5 -448.5t66.5 -546.5q0 -513 -196 -840q-92 -156 -285 -299t-444 -143q-250 0 -379.5 83t-280.5 298q-94 143 -157.5 303.5t-96.5 337.5t-33 354q0 513 246 885q273 410 737 422zM1044 2621q-199 -3 -314.5 -90.5 t-147.5 -175.5q-64 -184 -102 -495t-38 -631q0 -484 78 -778q37 -131 83 -189.5t126 -122.5q121 -90 262 -90q149 0 291 98q74 55 137.5 153t71.5 196q25 302 39 518.5t14 423.5q0 552 -110 925q-25 96 -141 177t-249 81z" />
<glyph unicode="P" horiz-adv-x="2236" d="M102 2699q69 0 190 2t239.5 5t218.5 4.5t163 1.5q264 0 468 -23t363 -87t259 -187t123 -314q8 -74 8 -102q0 -299 -258 -545q-182 -172 -610 -172q-75 0 -439 25v-1143q0 -119 418 -119v-45l-1130 -4v49q94 0 235.5 26.5t141.5 112.5l-5 2470h-385v45zM1737 2408 q-34 109 -157.5 164.5t-270.5 70.5t-330 15h-152v-1290q338 -33 414 -33q347 0 467 172q107 149 107 426q0 241 -78 475z" />
<glyph unicode="Q" horiz-adv-x="2154" d="M737 2609q150 90 328 90q197 0 390.5 -105.5t326.5 -287.5q250 -346 250 -913q0 -230 -45 -566q-27 -188 -153 -382t-312 -329t-379 -161q7 -6 140.5 -136.5t228 -195.5t180.5 -65q42 0 86 24q74 40 99.5 95t72.5 200q0 -268 -217 -393q-109 -66 -217 -66q-58 0 -144 21 q-78 22 -138.5 76t-145 151.5t-140 144t-117.5 46.5q-45 0 -102 -37q-113 -81 -127 -246h-16q-17 33 -17 66q0 37 54 143q27 48 70 75.5t111.5 56.5t92.5 44q-257 88 -438 272.5t-273 442.5t-92 559q0 265 37 472t115.5 375t199.5 297t291 232zM1442 2503q-46 69 -150 108 t-231 39q-283 0 -406 -176q-124 -179 -158 -491t-34 -820v-192v-160q0 -232 43 -386.5t166 -281.5q135 -135 385 -135q188 0 340 90q174 105 220 262t54 443q8 246 8 373q0 962 -237 1327z" />
<glyph unicode="R" horiz-adv-x="2687" d="M131 2703h1516q143 0 249 -89t160 -234q74 -169 74 -365q0 -158 -57 -266q-48 -112 -138.5 -184.5t-183 -109t-252.5 -83.5q164 -51 230 -76.5t139.5 -85.5t109.5 -157q54 -144 79.5 -394t57 -373.5t150.5 -232.5q25 -24 148 -24q48 0 90.5 3t60.5 5v-45h-172 q-215 0 -361 51t-212 207q-64 138 -97.5 463.5t-76 467.5t-191.5 142h-573v-1278h331v-49l-1081 4v45h397v2613h-397v45zM1761 2380q-61 160 -220 213t-402 53q-46 0 -133 -2t-125 -2v-1241q16 -1 58 -2.5t101 -1.5q221 0 416.5 29.5t247.5 105.5q123 183 123 475 q0 193 -66 373z" />
<glyph unicode="S" horiz-adv-x="1798" d="M700 2703q232 0 383.5 -81t264.5 -242q136 98 241 278l4 -975l-20 9q-64 255 -105.5 385t-137 266.5t-257.5 220.5q-182 98 -344 98q-92 0 -172 -28q-241 -94 -299 -238q-57 -136 -57 -213q0 -91 61 -147q177 -174 438 -308t506 -260t377.5 -293t132.5 -446 q0 -65 -4 -102q-34 -370 -397 -557q-139 -74 -303 -74q-258 0 -488 168q-49 34 -101.5 89.5t-78.5 86.5q-72 -55 -150 -165.5t-116 -174.5v1085h28q34 -224 117.5 -426.5t230 -362t349.5 -230.5q102 -37 209 -37q245 0 409 172q73 72 118.5 173.5t45.5 198.5q0 115 -74 193 q-106 112 -329 229t-503 269t-432.5 328t-152.5 419q0 169 82 369q120 289 524 323z" />
<glyph unicode="T" horiz-adv-x="2183" d="M2085 2707v-1097q-4 0 -10 -10.5t-11 -10.5q-7 0 -12 21q-42 309 -84.5 492.5t-132 320.5t-250.5 207q-66 28 -155 28q-14 0 -69 -2t-104 -2l9 -2609h417v-45h-1163v45h398l-5 2609q-25 0 -76 2t-75 2q-90 0 -139 -24q-146 -72 -237 -184.5t-137.5 -246.5t-62.5 -234.5 t-51 -375.5h-24v1114h1974z" />
<glyph unicode="U" horiz-adv-x="2638" d="M2544 2707v-45q-435 0 -435 -274v-1847q0 -277 -282 -455q-151 -94 -422 -94q-176 0 -343.5 46.5t-279.5 133.5q-250 192 -250 463v2023h-385l5 45h1114v-45h-406v-2232q0 -122 83 -213.5t212 -138.5q121 -41 250 -41q192 0 361.5 77t228.5 214q45 118 45 331v1708 q0 303 -344 303q-39 0 -67.5 -3t-39.5 -5v49h955z" />
<glyph unicode="V" horiz-adv-x="2568" d="M2437 2703v-45q-6 2 -21.5 5t-39.5 3q-117 0 -239.5 -100.5t-194.5 -378.5q-46 -183 -132 -525.5t-226 -895t-191 -741.5q-14 -45 -66 -45q-26 0 -33 20q-47 147 -235.5 751t-350.5 1125.5t-241 777.5h-352v53l1122 -4v-45h-430l631 -2068l37 -33l446 1823q8 48 8 65 q0 213 -409 213v49z" />
<glyph unicode="W" horiz-adv-x="3465" d="M1298 2707l979 -4v-45h-368l581 -2048l377 1741q8 50 8 70q0 237 -385 237l4 45h852v-45q-154 0 -269.5 -48t-156.5 -230l-507 -2368q-14 -7 -47.5 -8t-43.5 -4l-577 2032l-467 -2040l-127 24l-672 2642h-364v45h1052v-45h-372l553 -2138l368 1667l-102 369 q-31 102 -316 102v49z" />
<glyph unicode="X" horiz-adv-x="2580" d="M2318 2703v-41q-366 0 -467 -196l-467 -885l791 -1536h291v-49l-1098 -4v57h434l-626 1217l-484 -942q-33 -74 -33 -111q0 -168 377 -168v-45l-921 8v41q382 0 528 287l516 995l-696 1327h-299v45h1036v-45h-393l553 -1011l422 811q24 48 24 82q0 75 -92 96.5t-268 21.5 v45h872z" />
<glyph unicode="Y" horiz-adv-x="2568" d="M115 2695h1147v-41h-431l631 -1249l414 958q29 65 29 115q0 180 -385 180v45h929v-45q-358 0 -520 -360l-442 -1000v-1253h422v-53l-1139 8v45h389v1298l-680 1311h-364v41z" />
<glyph unicode="Z" horiz-adv-x="1884" d="M78 2703h1638l-1270 -2658q53 0 165 -2t167 -2q278 0 466 62t292 249q67 120 107 255t77 331.5t54 269.5l36 -4l-8 -1204h-1712q53 111 236.5 496t225 471.5t340.5 713t460 965.5q-59 0 -184 4t-189 4q-367 0 -533 -151q-109 -105 -173.5 -237t-97.5 -272t-64 -335h-33 v1044z" />
<glyph unicode="\" horiz-adv-x="2413" d="M2302 -16h-176l-2015 2703h188z" />
<glyph unicode="^" horiz-adv-x="1991" d="M537 2011h-99l578 594l516 -594h-340l-295 377z" />
<glyph unicode="`" horiz-adv-x="1692" d="M1245 2040l-696 217q-25 49 -25 135q0 61 9.5 119.5t15.5 85.5q0 -41 152 -163t309.5 -232.5t234.5 -161.5z" />
<glyph unicode="a" horiz-adv-x="1663" d="M934 1794q229 -81 278 -270q74 -246 74 -582q0 -84 -3.5 -168t-9.5 -198t-11 -243.5t-5 -209.5q8 -62 99 -62q55 0 94 25q101 75 111 320h32q-8 -155 -46 -256t-142 -134q-62 -20 -115 -20q-132 0 -200 98q-79 123 -103 254q-139 -297 -364 -340q-61 -12 -119 -12 q-147 0 -258 98q-168 158 -168 455q17 227 233 364q82 52 305.5 107.5t288.5 76t70 79.5q20 203 20 254q0 309 -245 364q-169 0 -272 -31.5t-167 -115.5q8 -34 55.5 -59.5t86.5 -48.5t43 -64q0 -98 -19 -138.5t-84 -46.5q-93 0 -147.5 18.5t-77.5 80.5q-12 42 -12 77 q0 123 127 230q167 143 405 143q119 0 246 -45zM967 1028l-41 37q-57 -38 -158.5 -63.5t-180 -46t-116.5 -58.5q-119 -130 -119 -365q0 -157 58 -352q15 -48 69.5 -83.5t114.5 -35.5q49 0 94 25q108 72 167 175.5t81 226t25 265t6 275.5z" />
<glyph unicode="b" horiz-adv-x="1855" d="M82 2707l602 -4l-4 -1187q204 307 512 307q163 -1 298 -120t211.5 -328t80.5 -466q0 -231 -38 -371.5t-125 -246t-263 -246.5q-66 -61 -185 -61q-89 0 -196 41q-96 37 -180.5 144t-122.5 171l-4 -340l-562 -4v49h295v2613h-319v49zM1384 1593q-41 176 -192 176 q-111 0 -220.5 -54.5t-183 -143t-83.5 -187.5q-24 -244 -29 -499q0 -266 34.5 -398t145.5 -303q79 -135 315 -135q166 30 197 168q94 356 94 713q0 332 -78 663z" />
<glyph unicode="c" horiz-adv-x="1454" d="M487 1733q130 86 308 86q155 0 282.5 -74.5t167.5 -212.5q45 -150 45 -201q0 -80 -57 -131q-85 -70 -156 -70q-35 0 -69 17q-115 51 -115 164q0 33 20 73q49 119 160 119q57 0 115 -41q0 201 -225 299q-85 33 -152 33q-84 0 -188 -53q-147 -84 -188.5 -283.5 t-41.5 -523.5q0 -249 8 -394.5t39 -260.5t97 -168q101 -86 266 -86q82 0 147 16q350 82 418 610h21q-31 -441 -299 -594q-143 -77 -304 -77q-149 0 -262 65q-239 136 -347 354.5t-111 522.5q0 534 421 811z" />
<glyph unicode="d" horiz-adv-x="1851" d="M881 2703l577 4l4 -2662h307v-45l-589 -4v360q-140 -278 -336 -356q-64 -25 -127 -25q-170 0 -307 144q-158 165 -243 376t-85 435q0 167 53 352q143 483 516 541q50 8 70 8q83 0 149 -37t158 -115q30 -24 54 -55.5t60.5 -89t37.5 -59.5v1183h-299v45zM1008 1622 q-85 77 -143 114.5t-132 37.5q-36 0 -94 -21q-233 -92 -233 -868q0 -172 4 -250q8 -202 33 -321t110 -216q67 -73 172 -73q74 0 152 45q133 86 216 215t83 247l4 754q0 79 -46 171.5t-126 164.5z" />
<glyph unicode="e" d="M918 1774q108 -39 176.5 -113t134.5 -186q123 -204 123 -541h-979q0 -441 57 -692q40 -154 275 -213q52 -13 106 -13q216 0 348 164q145 176 184 381h29q-72 -414 -340 -532q-94 -45 -221 -45q-157 0 -311 77q-434 206 -434 783q0 96 12 188q23 167 72.5 301.5 t144.5 246.5t242 185q98 50 192 50q69 0 189 -41zM934 1708q-86 86 -193 86q-90 0 -159 -57q-134 -106 -171.5 -261t-37.5 -386v-103h700q0 35 2 105t2 108q0 356 -143 508z" />
<glyph unicode="f" horiz-adv-x="1315" d="M692 2671q85 41 176 41q110 0 203.5 -55t140.5 -154q41 -62 41 -226q-15 -54 -57 -84t-94 -30q-48 0 -90 24q-71 40 -78 127q0 34 12 66q16 45 58.5 71.5t97.5 26.5q1 1 20 3t21 9q-59 146 -180 168q-43 17 -103 17q-127 0 -168 -86q-61 -137 -61 -439q0 -49 2 -170 t2 -202l315 -4v-58h-315v-1663l332 -4v-45l-914 4v41l320 4v1667l-312 4v54h312q2 225 18 380t85.5 297.5t215.5 215.5z" />
<glyph unicode="g" horiz-adv-x="1778" d="M520 1733q128 61 254 61q247 0 430 -197q147 164 328 164q147 -30 205 -159q16 -42 16 -70q0 -72 -49 -115q-45 -37 -98 -37q-58 0 -95 41q-28 33 -28 127q6 52 37 78.5t110 44.5q-59 70 -143 70q-53 0 -94 -25q-43 -24 -69.5 -47.5t-55 -63.5t-31.5 -44 q139 -225 143 -394q0 -156 -34 -265t-125 -206q-175 -175 -426 -192q-63 2 -171 44t-161 42q-67 0 -131 -58q-53 -51 -53 -102q0 -34 20 -49q108 -98 324 -98q61 0 191 10t194 10q231 0 352 -106q156 -137 156 -328q0 -74 -33 -168q-95 -246 -467 -303q-111 -12 -221 -12 q-497 0 -689 295q-28 39 -28 94q0 67 45 131q55 82 168 82q31 0 78 -17q117 -51 200 -172q-142 78 -200 78q-49 0 -82 -29q-82 -72 -82 -147q0 -40 20 -66q162 -204 529 -204q188 0 442 53q145 26 209 209q12 36 12 74q0 90 -61 172q-67 75 -152 101t-182 28.5t-223 5.5 q-62 0 -164 -6.5t-160 -6.5q-282 0 -340 181q-12 36 -12 69q0 76 86 185q35 44 101.5 82t103.5 53q-238 230 -238 594q6 170 98 303.5t246 204.5zM1012 1651q-46 102 -205 102q-95 0 -172 -33q-95 -38 -142 -199t-55 -317q0 -19 -2 -52t-2 -50q0 -180 30 -304.5t85 -158.5 q132 -78 233 -78q108 0 254 90q82 47 82 520q-8 257 -106 480z" />
<glyph unicode="h" horiz-adv-x="2048" d="M672 2654v-1229q2 80 63.5 169.5t180 150.5t276.5 61q196 0 331.5 -89t135.5 -312v-1360h303v-53h-868v49h282v1438q0 112 -48.5 199t-135.5 87q-123 0 -243 -66.5t-198.5 -204t-78.5 -335.5v-1114h266v-49q-94 4 -344 4q-156 0 -296.5 -1.5t-203.5 -2.5l8 49h283v2560 h-295l4 45z" />
<glyph unicode="i" horiz-adv-x="1028" d="M98 1819h574v-1774h274v-49h-823v49h278v1724h-303v50zM311 2511q0 78 56 135t137 57q80 0 136 -56t56 -136q0 -81 -56.5 -135t-135.5 -54q-80 0 -136.5 55t-56.5 134z" />
<glyph unicode="j" horiz-adv-x="864" d="M709 1815v-1876q0 -172 -100.5 -323.5t-264.5 -205.5q-73 -24 -151 -24q-148 0 -238 86q-131 122 -131 241q0 47 24 103q47 106 144 106q78 0 136 -36t69 -103q0 -153 -119 -197q-17 -8 -49 -8q-14 0 -27 2t-45.5 9.5t-46.5 9.5q5 -56 45 -89.5t115 -74.5q48 -29 135 -29 q107 0 151 45q56 54 85.5 201t29.5 278v1839h-324v46h562zM422 2511q0 72 53 126t127 54q78 0 131 -53t53 -127t-54 -129t-130 -55q-72 0 -126 55.5t-54 128.5z" />
<glyph unicode="k" horiz-adv-x="1929" d="M86 2646h565v-1815l619 734q49 54 49 102q0 90 -303 90v45h717l4 -45q-216 0 -398 -201l-340 -380l623 -1131h217v-45h-766v45h234l-484 901l-168 -184v-717h250v-53h-819v53h307v2556h-303q0 9 -1 25t-3 20z" />
<glyph unicode="l" horiz-adv-x="1069" d="M668 2634v-2589h303l-4 -49h-840v49h270v2540h-262v49h533z" />
<glyph unicode="m" horiz-adv-x="3072" d="M1008 1749q111 70 233 70q141 0 238 -103q77 -84 114 -152.5t54 -187.5q70 142 121.5 223.5t150.5 144t248 62.5q100 0 205 -60.5t175 -172t70 -254.5v-1274h312v-45h-881v45h295v1282q0 181 -53 307.5t-131 126.5q-145 0 -258.5 -89t-175.5 -223t-62 -257l-4 -1147h250 v-45h-803v45h295v1147q0 27 2 91t2 97q0 171 -36 270.5t-148 110.5q-188 0 -308 -135q-225 -243 -225 -418v-1163h262v-45h-807v45h267v1643h-271v45h549v-340q41 58 71 101.5t68.5 91.5t84 90t96.5 73z" />
<glyph unicode="n" horiz-adv-x="2064" d="M1217 1810q125 0 232 -62t170.5 -166.5t63.5 -225.5v-1311h259v-45h-836v45h295l-4 1319q0 150 -33 247.5t-135 129.5q-39 16 -90 16q-147 0 -246 -139q-209 -279 -209 -496l-4 -1077h270v-45l-844 -8v53h295v1638h-307q8 0 8 29q0 17 -8 21h590l-4 -349 q85 137 152 222.5t163 144t222 59.5z" />
<glyph unicode="o" horiz-adv-x="1524" d="M86 877q0 244 78.5 463t232.5 353t365 134q213 0 366.5 -135.5t231.5 -351t78 -447.5q-2 -225 -82 -433.5t-233.5 -338t-360.5 -129.5q-204 0 -355.5 127t-233 330t-87.5 428zM766 1782q-179 0 -263.5 -100t-107 -277.5t-22.5 -507.5q0 -301 23.5 -476.5t109 -275.5 t260.5 -100q176 0 261 96.5t108.5 271t23.5 484.5q0 312 -22 492t-107 286.5t-264 106.5z" />
<glyph unicode="p" horiz-adv-x="1839" d="M1114 1855q201 -3 331.5 -133.5t229.5 -361.5q82 -191 82 -414q0 -240 -97.5 -461t-266.5 -387q-108 -106 -275 -106q-92 0 -160 37q-203 105 -307 340v-885h295v-49h-856v49h262v2249h-270v45h565v-287q66 143 188.5 253.5t278.5 110.5zM1307 1716q-54 90 -185 90 q-53 0 -78 -8q-79 -22 -171.5 -94.5t-157 -171.5t-64.5 -197q0 -90 -4 -243t-4 -220q0 -234 40 -395.5t157 -304.5q119 -135 262 -135q66 0 110 29q150 97 188 289.5t38 516.5v181q0 214 -26 367.5t-105 295.5z" />
<glyph unicode="q" horiz-adv-x="1839" d="M131 1360q106 235 233.5 363.5t327.5 131.5q109 0 202 -55t160 -138.5t105 -170.5v287h565v-45h-270v-2249h262v-49h-852v49h295v885q-110 -237 -311 -340q-67 -37 -160 -37q-168 0 -274 106q-169 168 -267 388t-98 460q0 220 82 414zM762 1798q-25 8 -78 8 q-134 0 -184 -90q-78 -140 -104.5 -295t-26.5 -368v-181q2 -218 13.5 -356t60.5 -261t151 -189q46 -29 111 -29q159 7 262 135q119 145 157.5 310.5t38.5 410.5q0 61 -2 208t-2 234q0 98 -65.5 197.5t-158 171t-173.5 94.5z" />
<glyph unicode="r" d="M1053 1806q94 0 148 -17t97 -73q70 -84 70 -168q0 -29 -12 -65q-39 -116 -144 -127q-69 0 -120.5 33t-59.5 94q0 152 111 184q24 8 49 8q26 0 50.5 -4.5t35.5 -7.5q0 67 -111 106q-35 13 -73 13q-105 0 -217 -99q-222 -204 -222 -577v-1061h291v-45h-852v45h279v1659 h-279v45h557v-348q86 183 170.5 294t231.5 111z" />
<glyph unicode="s" horiz-adv-x="1323" d="M512 1815q120 0 199.5 -37.5t161.5 -94.5t118 -57q62 0 135 135h41v-631q-72 186 -143.5 317t-179.5 208q-165 119 -312 119q-90 0 -151 -50q-127 -96 -127 -233q0 -70 45 -115q97 -97 250 -179.5t313 -169.5t261 -199t130 -283q9 -65 9 -86q0 -137 -78 -254t-201 -193 q-90 -57 -205 -57q-176 0 -368 127q-26 16 -123 115q-12 12 -29 12q-27 0 -50 -31t-54.5 -94.5t-42.5 -83.5l-37 -4v717q73 -175 138.5 -301t167.5 -235.5t238 -151.5q99 -29 160 -29q102 0 176 53q71 52 119.5 131t48.5 160q0 70 -37 131q-107 162 -444 359.5t-442 275 t-105 258.5q0 97 37 180q98 237 381 271z" />
<glyph unicode="t" horiz-adv-x="1180" d="M647 2535l4 -782l328 -4v-66h-332l4 -1437q0 -90 78 -141.5t180 -51.5q76 6 132.5 129.5t56.5 268.5h24q0 -219 -86 -353q-84 -118 -250 -118q-108 0 -196 45q-123 54 -174 153t-51 268v1237h-304l-4 66h312v578q79 12 149.5 68t99.5 140h29z" />
<glyph unicode="u" horiz-adv-x="2028" d="M115 1815h557v-1528q0 -118 84.5 -188t169.5 -70q35 0 53 12q179 95 292 274t113 381v1073h-331v50h598v-1774h291v-45h-553l-5 430q-127 -203 -263.5 -324.5t-346.5 -121.5q-393 49 -393 315v1462h-266v54z" />
<glyph unicode="v" horiz-adv-x="1942" d="M885 1819v-50h-258l483 -1351l397 1175q9 21 9 58q0 118 -250 118v50h602v-50q-236 0 -295 -184l-553 -1618h-57l-623 1802h-201q-4 0 -4 50h750z" />
<glyph unicode="w" horiz-adv-x="2515" d="M795 1819v-54h-172q25 -93 83.5 -300t142 -478.5t142.5 -425.5l197 881l-107 327h-159v50h725l4 -50h-254l389 -1306l332 1126q8 34 8 45q0 81 -81 108t-210 27v50h631v-50q-7 2 -23.5 5.5t-46.5 3.5q-179 0 -237 -193l-467 -1622l-50 21l-413 1331l-299 -1307 q-15 -12 -28.5 -21.5t-20.5 -23.5l-545 1806h-234v50h693z" />
<glyph unicode="x" horiz-adv-x="1942" d="M98 1819h774v-50h-262l389 -634l340 544q9 13 9 29q0 61 -246 61v50h651v-50q-66 0 -177.5 -16.5t-150.5 -73.5l-381 -602l603 -1032h208v-53h-802v53h262l-438 791l-385 -639q-17 -27 -17 -54q0 -98 324 -98l4 -53h-701v53q207 0 312 168l430 680l-520 876h-226v50z" />
<glyph unicode="y" horiz-adv-x="1933" d="M45 1810h848v-49h-291l528 -1335l394 1102q12 42 12 74q0 167 -307 167v46h643q-8 -18 -8 -25t3 -13t5 -8q-95 0 -164 -36.5t-111 -147.5l-684 -1929q-56 -180 -249 -258q-29 -12 -91 -12q-117 0 -204 69q-123 96 -123 221q0 52 16 91q48 127 176 127q39 0 74 -17 q41 -18 67.5 -62.5t26.5 -97.5q0 -15 -8 -49q-18 -57 -64 -90t-104 -33q-21 0 -57 9q-15 4 -26.5 8.5t-18.5 7.5q31 -76 95 -118t138 -42q62 0 103 21q81 33 134 96t88 148.5t61.5 196.5t39.5 169l-692 1720h-250v49z" />
<glyph unicode="z" horiz-adv-x="1425" d="M1421 1819l-1040 -1774q50 0 160 -4t164 -4q233 0 339 53q90 42 145 116.5t92 172.5t71 194l28 5l-4 -582h-1315q0 32 244.5 448.5t463 777t333.5 547.5q-113 13 -217 13q-271 0 -418 -99q-115 -79 -166 -222t-72 -339q-4 4 -12.5 10.5t-19.5 6.5q-15 0 -25 -17v697h1249 z" />
<glyph unicode="~" horiz-adv-x="1671" d="M537 2208q-151 0 -229.5 -54.5t-188.5 -224.5q18 234 133 372.5t305 147.5q81 0 143 -37.5t146.5 -111t152.5 -112t156 -38.5q145 17 235.5 72t182.5 186q-64 -241 -146 -367t-251 -169q-42 -8 -62 -8q-75 0 -133.5 40.5t-139 123t-149 129.5t-155.5 51z" />
<glyph unicode="&#xa1;" horiz-adv-x="655" d="M168 -12q-96 0 -140 27.5t-77 103.5q16 247 37.5 434t70.5 560.5t75.5 603t41.5 462.5h12q14 -304 42.5 -618t79 -751t79.5 -687q-11 -135 -221 -135zM393 2478q0 -87 -64 -152t-149 -65q-88 0 -152.5 65.5t-64.5 151.5t63.5 149.5t153.5 63.5q87 0 150 -63t63 -150z" />
<glyph unicode="&#xa2;" horiz-adv-x="1462" d="M680 2691h65l5 -237q188 -16 311 -70t188 -225q37 -102 37 -164q0 -68 -37 -135q-58 -91 -159 -91q-37 0 -86 21q-103 55 -103 164q0 31 12 61q24 57 70 94t98 37q63 0 127 -53q0 165 -172 262q-74 45 -192 45q-19 0 -53 -2t-50 -2v-1720q278 0 410 123q165 165 205 487 h41q-22 -354 -238 -528q-192 -152 -418 -152v-262h-65v258q-197 53 -345 215.5t-216 370.5q-49 157 -49 311q0 230 101.5 441.5t287.5 377.5q125 113 229 131zM676 688v1684q-9 -5 -66.5 -36.5t-87 -59.5t-43.5 -72q-131 -361 -131 -734q0 -311 94 -589q27 -75 93.5 -126.5 t140.5 -66.5z" />
<glyph unicode="&#xa5;" horiz-adv-x="2486" d="M82 2695h1147v-41h-430l631 -1249l413 958q29 62 29 115q0 180 -385 180v45h930v-45q-359 0 -521 -360l-442 -1000v-1253h418l4 -53l-1139 8v45h385l4 1298l-680 1311h-364v41zM1843 1327q-45 -36 -62.5 -87t-19.5 -77l-1040 4q35 52 57 97t29 63h1036zM1843 881 q-44 -37 -62 -87.5t-20 -76.5l-1040 4q35 52 57 97t29 63h1036z" />
<glyph unicode="&#xa8;" horiz-adv-x="1413" d="M217 2257q0 86 57 145.5t144 59.5q86 0 143 -59t57 -146q0 -85 -58 -143t-142 -58q-85 0 -143 59t-58 142zM831 2257q0 86 59.5 145.5t145.5 59.5q85 0 143 -59t58 -146q0 -85 -59 -143t-142 -58q-84 0 -144.5 58.5t-60.5 142.5z" />
<glyph unicode="&#xa9;" horiz-adv-x="2904" d="M172 1298q0 342 170.5 636t463.5 466t636 172q344 0 636 -171.5t463 -466t171 -636.5q0 -340 -171 -632t-463.5 -462.5t-635.5 -170.5q-342 0 -635.5 170.5t-464 462.5t-170.5 632zM1442 2490q-320 0 -593.5 -161t-434 -435.5t-160.5 -595.5q0 -319 160.5 -591.5 t434.5 -432t593 -159.5q320 0 595 159.5t436 432t161 591.5q0 321 -161 596t-435.5 435.5t-595.5 160.5zM1397 2101q198 0 348 -172l127 156l16 -4v-533h-16q-44 160 -126.5 299.5t-201.5 212.5q-32 21 -94 21q-94 0 -139 -45q-189 -199 -189 -574q0 -81 8.5 -207t12.5 -202 q11 -175 56 -284.5t169 -162.5q39 -16 94 -16q74 0 115 28q124 97 183.5 230t111.5 336h12v-602q-35 12 -75.5 73t-55.5 74l-8 12q-143 -176 -279 -176q-132 0 -239.5 77t-169.5 202q-131 256 -131 516q0 231 110 434q74 130 151 205t210 102z" />
<glyph unicode="&#xaa;" horiz-adv-x="1245" d="M696 3203q135 -57 164 -160q41 -137 41 -331q0 -87 -10 -246t-10 -230q6 -36 57 -36q36 0 57 16q58 37 66 180h20q-8 -187 -106 -225q-159 0 -189 49q-41 71 -57 143q-87 -174 -213 -196q-159 0 -217 53q-98 93 -98 258q11 133 139 213q46 31 172.5 63.5t165 45 t43.5 47.5q12 67 12 143q0 177 -143 213q-186 0 -250 -90q5 -20 54.5 -43t51.5 -55q0 -103 -57 -107q-114 0 -131 62q-8 32 -8 45q0 70 74 131q94 82 237 82q65 0 135 -25zM164 1831v45h1012v-45h-1012zM717 2761l-21 20q-46 -30 -143.5 -51.5t-122.5 -46.5 q-70 -76 -70 -213q0 -96 33 -205q22 -70 103 -70q26 0 61 21q82 51 114.5 133t37 194.5t8.5 217.5z" />
<glyph unicode="&#xad;" d="M1286 1524q-45 -35 -62.5 -115.5t-19.5 -126.5l-1040 -20q35 52 57 135t29 127h1036z" />
<glyph unicode="&#xae;" horiz-adv-x="2904" d="M172 1298q0 342 170.5 636t463.5 466t636 172q344 0 636 -171.5t463 -466t171 -636.5q0 -340 -171 -632t-463.5 -462.5t-635.5 -170.5q-342 0 -635.5 170.5t-464 462.5t-170.5 632zM1442 2490q-320 0 -593.5 -161t-434 -435.5t-160.5 -595.5q0 -319 160.5 -591.5 t434.5 -432t593 -159.5q320 0 595 159.5t436 432t161 591.5q0 321 -161 596t-435.5 435.5t-595.5 160.5zM864 2007h778q149 0 213 -168q37 -93 37 -188q0 -83 -28 -140q-36 -82 -106 -118.5t-193 -73.5q105 -30 164.5 -61t85.5 -103q26 -71 39.5 -201t30 -194.5t77.5 -124.5 q8 -8 66 -8q26 0 52 1.5t38 2.5v-29q-169 0 -257 25t-128 114q-34 71 -52.5 239.5t-40 241t-96.5 72.5h-299v-659h176l-4 -29l-553 4v25h201v1347h-205zM1700 1839q-34 92 -143 115.5t-312 23.5v-643h86q294 0 340 70q66 85 66 237q0 97 -37 197z" />
<glyph unicode="&#xb0;" horiz-adv-x="934" d="M131 2290q0 147 103.5 251.5t252.5 104.5q150 0 253.5 -104.5t103.5 -251.5q0 -151 -103 -256t-254 -105q-150 0 -253 105t-103 256zM479 2552q-109 0 -185.5 -77.5t-76.5 -184.5q0 -110 76 -186t186 -76q109 0 185.5 75.5t76.5 186.5q0 108 -77 185t-185 77z" />
<glyph unicode="&#xb4;" horiz-adv-x="1692" d="M1294 2257l-696 -217q77 51 234.5 161.5t309.5 232.5t152 163q5 -27 13 -82t8 -123q0 -94 -21 -135z" />
<glyph unicode="&#xb6;" horiz-adv-x="2589" d="M2224 2654v-2609h201v-49l-1450 4v45h418l-4 1262q-353 -25 -435 -25q-432 0 -614 172q-254 248 -254 541q0 32 8 106q25 196 146 317t317.5 183.5t446.5 84t593 21.5q143 0 446 -4t460 -4v-45h-279zM1389 2658q-15 0 -79 2t-110 2q-638 0 -721 -254q-78 -253 -78 -475 q0 -271 111 -426q120 -172 467 -172q65 0 414 33zM1888 45l-4 2609h-151l-17 -2593z" />
<glyph unicode="&#xb7;" horiz-adv-x="557" d="M184 1442q0 85 57.5 145t143.5 60q84 0 142.5 -59.5t58.5 -145.5q0 -85 -59 -143t-142 -58q-85 0 -143 59t-58 142z" />
<glyph unicode="&#xba;" horiz-adv-x="1192" d="M205 1831v45h885v-45h-885zM193 2589q0 150 48.5 288t144.5 224t232 86q131 0 227.5 -85.5t145.5 -221t49 -279.5q-2 -141 -52 -272.5t-144.5 -212t-225.5 -80.5q-190 0 -304 166t-121 387zM618 3158q-110 0 -163.5 -62.5t-67.5 -172.5t-14 -318q0 -190 15 -302 t67.5 -175.5t162.5 -63.5q112 0 165.5 61t69 173t15.5 307q0 198 -14.5 308.5t-68.5 177.5t-167 67z" />
<glyph unicode="&#xbf;" horiz-adv-x="1335" d="M549 -8q-446 0 -598 368q-45 106 -45 234q0 163 86 324q77 128 314.5 325.5t348.5 323.5t111 309q0 86 -37 188q-21 58 -81 97t-124 39q-45 0 -78 -25q-94 -80 -128 -128.5t-52 -162.5q0 -79 6.5 -133.5t19.5 -120t15 -78.5q-70 62 -78 246q0 194 99 320q86 110 188 110 q35 0 90 -20q150 -53 193 -197q24 -85 24 -160q0 -153 -76.5 -275.5t-235 -301.5t-238.5 -312.5t-80 -297.5q0 -25 8 -91q7 -58 15 -117t21.5 -111.5t40 -99.5t74.5 -89q129 -111 279 -111q157 0 323 180q107 113 107 254q0 51 -12 107q-49 194 -193 241q-48 13 -94 13 q-75 0 -144 -33q-139 -67 -139 -254q0 -37 8 -119q11 -87 70 -180q-119 102 -119 250q0 228 43 338.5t183 152.5q73 21 122 21q81 0 156 -41q64 -33 96 -83t64 -138q33 -91 33 -185q0 -170 -136 -352q-171 -219 -450 -225zM741 2499q0 -87 -60 -146t-144 -59q-83 0 -142 60 t-59 145q0 82 58 141t143 59q86 0 145 -58t59 -142z" />
<glyph unicode="&#xc0;" horiz-adv-x="2626" d="M1364 2650q43 -128 312.5 -966.5t353 -1097.5t174.5 -541h331l-12 -45l-1081 -4l4 49h381l-242 823h-794l-193 -598q-8 -40 -8 -53q0 -172 430 -172v-45h-901v45q316 0 393 242q79 255 250 808.5t324 1054t163 549.5q4 13 25 13q24 0 51.5 -18t38.5 -44zM1614 2888 l-696 221q-21 41 -21 131q0 61 8 119.5t13 85.5q0 -41 152 -163t309.5 -232.5t234.5 -161.5zM1565 930l-389 1245l-365 -1245h754z" />
<glyph unicode="&#xc1;" horiz-adv-x="2679" d="M1364 2650q43 -128 312.5 -966.5t353 -1097.5t174.5 -541h331l-12 -45l-1081 -4l4 49h381l-242 823h-794l-193 -598q-8 -40 -8 -53q0 -172 430 -172v-45h-901v45q316 0 393 242q79 255 250 808.5t324 1054t163 549.5q4 13 25 13q24 0 51.5 -18t38.5 -44zM1614 3056 l-701 -222q77 51 233.5 159.5t312 232t155.5 165.5q5 -26 12.5 -84.5t7.5 -119.5q0 -91 -20 -131zM1565 930l-389 1245l-365 -1245h754z" />
<glyph unicode="&#xc2;" horiz-adv-x="2626" d="M1364 2650q43 -128 312.5 -966.5t353 -1097.5t174.5 -541h331l-12 -45l-1081 -4l4 49h381l-242 823h-794l-193 -598q-8 -40 -8 -53q0 -172 430 -172v-45h-901v45q316 0 393 242q79 255 250 808.5t324 1054t163 549.5q4 13 25 13q24 0 51.5 -18t38.5 -44zM909 2753h-98 l573 598l521 -598h-340l-299 376zM1565 930l-389 1245l-365 -1245h754z" />
<glyph unicode="&#xc3;" horiz-adv-x="2654" d="M1364 2650q43 -128 312.5 -966.5t353 -1097.5t174.5 -541h331l-12 -45l-1081 -4l4 49h381l-242 823h-794l-193 -598q-8 -40 -8 -53q0 -172 430 -172v-45h-901v45q316 0 393 242q79 255 250 808.5t324 1054t163 549.5q4 13 25 13q24 0 51.5 -18t38.5 -44zM1016 3162 q-151 0 -229.5 -54t-188.5 -224q15 233 130.5 372t307.5 148q81 0 143 -37.5t147.5 -112t151 -112t152.5 -37.5q147 18 238.5 73t179.5 185q-39 -156 -83.5 -260.5t-119 -175.5t-194.5 -101q-42 -8 -62 -8q-74 0 -129.5 39.5t-140.5 125.5t-150.5 130.5t-152.5 48.5z M1565 930l-389 1245l-365 -1245h754z" />
<glyph unicode="&#xc4;" horiz-adv-x="2626" d="M1364 2650q43 -128 312.5 -966.5t353 -1097.5t174.5 -541h331l-12 -45l-1081 -4l4 49h381l-242 823h-794l-193 -598q-8 -40 -8 -53q0 -172 430 -172v-45h-901v45q316 0 393 242q79 255 250 808.5t324 1054t163 549.5q4 13 25 13q24 0 51.5 -18t38.5 -44zM745 3080 q0 86 59.5 145.5t145.5 59.5q85 0 143 -59t58 -146q0 -83 -59 -142t-142 -59q-84 0 -144.5 59.5t-60.5 141.5zM1364 3080q0 85 58 145t143 60q86 0 145 -59t59 -146q0 -83 -60 -142t-144 -59q-83 0 -142 60t-59 141zM1565 930l-389 1245l-365 -1245h754z" />
<glyph unicode="&#xc5;" horiz-adv-x="2601" d="M1364 2650q43 -128 312.5 -966.5t353 -1097.5t174.5 -541h331l-12 -45l-1081 -4l4 49h381l-242 823h-794l-193 -598q-8 -40 -8 -53q0 -172 430 -172v-45h-901v45q316 0 393 242q79 255 250 808.5t324 1054t163 549.5q4 13 25 13q24 0 51.5 -18t38.5 -44zM950 3084 q0 151 105 254t256 103q147 0 251.5 -103.5t104.5 -253.5q0 -149 -104.5 -252.5t-251.5 -103.5q-151 0 -256 103t-105 253zM1565 930l-389 1245l-365 -1245h754zM1298 3346q-108 0 -185 -76t-77 -186q0 -109 77.5 -185.5t184.5 -76.5q111 0 187 76t76 186q0 111 -75.5 186.5 t-187.5 75.5z" />
<glyph unicode="&#xc6;" horiz-adv-x="3318" d="M459 287q61 151 170 419t335 815.5t362 862.5t149 315h1654v-905h-37q-28 263 -51.5 393.5t-104.5 257.5t-241 168q-169 45 -397 45q-58 0 -167 -4t-165 -4l-57 -12v-1139q80 0 192.5 -1.5t171.5 -2.5q85 0 137.5 60.5t75.5 146.5t41.5 211t24.5 151l20 -4v-1220h-24 q-15 109 -27 198.5t-36 171.5t-75.5 136.5t-136.5 54.5h-364v-1356h332q193 0 348 43t290 158q88 77 136.5 168t70 184.5t33 193.5t27.5 240h24v-1036l-2011 -4v53h385l25 45l4 778h-770l-258 -598q-8 -40 -8 -53q0 -172 430 -172v-45h-901v45q33 2 105 18t159.5 70 t128.5 154zM1585 930l-8 1696l-754 -1696h762z" />
<glyph unicode="&#xc7;" horiz-adv-x="1937" d="M1573 233q-203 -250 -402 -294q0 -57 -34.5 -181t-79.5 -172q-131 -151 -377 -151q-62 0 -98 4q210 79 277 201t67 299q-193 39 -350 171t-252 316q-238 468 -238 950q0 435 197 778q89 157 170.5 263.5t201.5 185t287 109.5q66 8 98 8q267 0 533 -312l237 279l29 -12 v-959h-29q-191 679 -606 926q-63 37 -176 37q-163 0 -242 -78q-198 -206 -275 -466t-77 -591q0 -144 19 -411t22 -322q20 -315 104.5 -518t305.5 -301q84 -29 164 -29q135 0 233 62q151 116 252 278.5t159.5 337t116.5 408.5h25v-1106q-51 20 -79.5 57t-74 109t-84.5 108z " />
<glyph unicode="&#xc8;" horiz-adv-x="2281" d="M119 2699h1945v-905h-32q-21 206 -34 297.5t-51.5 205.5t-114.5 199.5t-198 116.5q-168 41 -389 41q-33 0 -140 -2t-200 -2l-57 -12v-1139q80 0 192.5 -1.5t171.5 -2.5q110 0 163 95t74.5 223t41.5 251l20 -4v-1220h-24q-15 109 -27 198.5t-36 171.5t-75.5 136.5 t-136.5 54.5h-364v-1348q58 0 175 -4t177 -4q196 0 347.5 42t271.5 159q80 77 128.5 170.5t71 185t37.5 208t29 222.5h24v-1036l-2011 -4v53h381l37 45v2548q-67 12 -196.5 16t-200.5 4v41zM1667 2834l-696 222q-21 40 -21 131q0 61 8 119.5t13 84.5q0 -41 152 -163 t309.5 -232.5t234.5 -161.5z" />
<glyph unicode="&#xc9;" horiz-adv-x="2175" d="M1561 3056l-697 -222q77 51 232.5 159.5t310 232.5t154.5 165q5 -26 12.5 -84.5t7.5 -119.5q0 -91 -20 -131zM66 2699h1945v-905h-33q-28 263 -52.5 393.5t-105.5 257t-239 168.5q-168 41 -389 41q-33 0 -140 -2t-200 -2l-57 -12v-1139q80 0 192.5 -1.5t171.5 -2.5 q85 0 137.5 60.5t75.5 146.5t41.5 211t24.5 151l20 -4v-1220h-24q-15 109 -27 198.5t-36 171.5t-75.5 136.5t-136.5 54.5h-364v-1348q56 0 174 -4t178 -4q196 0 347 41.5t271 159.5q83 80 130.5 171.5t70 183.5t37.5 208.5t29 222.5h24v-1036l-2011 -4v53h381l37 45v2548 q-67 12 -196.5 16t-200.5 4v41z" />
<glyph unicode="&#xca;" horiz-adv-x="2257" d="M119 2699h1945v-905h-32q-21 206 -34 297.5t-51.5 205.5t-114.5 199.5t-198 116.5q-168 41 -389 41q-33 0 -140 -2t-200 -2l-57 -12v-1139q80 0 192.5 -1.5t171.5 -2.5q110 0 163 95t74.5 223t41.5 251l20 -4v-1220h-24q-15 109 -27 198.5t-36 171.5t-75.5 136.5 t-136.5 54.5h-364v-1348q58 0 175 -4t177 -4q196 0 347.5 42t271.5 159q80 77 128.5 170.5t71 185t37.5 208t29 222.5h24v-1036l-2011 -4v53h381l37 45v2548q-67 12 -196.5 16t-200.5 4v41zM750 2781h-99l578 594l516 -594h-340l-299 377z" />
<glyph unicode="&#xcb;" horiz-adv-x="2228" d="M119 2699h1945v-905h-32q-21 206 -34 297.5t-51.5 205.5t-114.5 199.5t-198 116.5q-168 41 -389 41q-33 0 -140 -2t-200 -2l-57 -12v-1139q80 0 192.5 -1.5t171.5 -2.5q110 0 163 95t74.5 223t41.5 251l20 -4v-1220h-24q-15 109 -27 198.5t-36 171.5t-75.5 136.5 t-136.5 54.5h-364v-1348q58 0 175 -4t177 -4q196 0 347.5 42t271.5 159q80 77 128.5 170.5t71 185t37.5 208t29 222.5h24v-1036l-2011 -4v53h381l37 45v2548q-67 12 -196.5 16t-200.5 4v41zM668 3056q0 82 58 141t142 59q87 0 146 -58t59 -142q0 -87 -60 -146t-145 -59 q-82 0 -141 60t-59 145zM1282 3056q0 82 59 141t146 59q83 0 142 -59t59 -141q0 -85 -60 -145t-141 -60q-85 0 -145 60t-60 145z" />
<glyph unicode="&#xcc;" horiz-adv-x="1352" d="M74 2703h1118v-45h-385v-2613h385v-49h-1118v49h372v2613h-372v45zM979 2834l-696 222q-21 40 -21 131q0 61 8 119.5t13 84.5q0 -41 152 -163t309.5 -232.5t234.5 -161.5z" />
<glyph unicode="&#xcd;" horiz-adv-x="1274" d="M74 2703h1118v-45h-385v-2613h385v-49h-1118v49h372v2613h-372v45zM950 3056l-696 -222q77 51 234.5 161.5t309.5 232.5t152 163q5 -26 13 -81t8 -123q0 -91 -21 -131z" />
<glyph unicode="&#xce;" horiz-adv-x="1298" d="M74 2703h1118v-45h-385v-2613h385v-49h-1118v49h372v2613h-372v45zM193 2806h-99l578 598l516 -598h-340l-299 377z" />
<glyph unicode="&#xcf;" horiz-adv-x="1298" d="M74 2703h1118v-45h-385v-2613h385v-49h-1118v49h372v2613h-372v45zM164 3080q0 85 58 145t143 60q86 0 143 -59t57 -146q0 -83 -58 -142t-142 -59q-83 0 -142 60t-59 141zM778 3080q0 85 59 145t146 60q85 0 143 -59t58 -146q0 -83 -59 -142t-142 -59q-85 0 -145 60 t-60 141z" />
<glyph unicode="&#xd1;" horiz-adv-x="2519" d="M131 2703h680l1098 -2007v1684q0 278 -393 278v45h868v-45q-414 0 -414 -237v-2421h-49l-1315 2400v-2015q0 -222 275 -311q44 -14 97 -17.5t83 -3.5v-57l-946 4v53q155 0 200 8q100 14 152 136t67 294t15 398v1614q0 155 -418 155v45zM934 3162q-151 0 -229.5 -54 t-188.5 -224q20 233 134 372t304 148q81 0 144.5 -37.5t148 -111t151.5 -112t154 -38.5q144 18 235.5 73t182.5 185q-65 -244 -145 -369t-252 -168q-42 -8 -62 -8q-75 0 -133.5 41t-142 125.5t-149 129t-152.5 48.5z" />
<glyph unicode="&#xd2;" horiz-adv-x="2015" d="M1040 2675q192 0 354.5 -117t276.5 -289q125 -186 191.5 -448.5t66.5 -546.5q0 -513 -196 -840q-92 -156 -285 -299t-444 -143q-250 0 -379.5 83t-280.5 298q-94 143 -157.5 303.5t-96.5 337.5t-33 354q0 513 246 885q273 410 737 422zM1430 2834l-697 222 q-20 40 -20 131q0 61 7.5 119.5t12.5 84.5q0 -41 154.5 -165t310 -232.5t232.5 -159.5zM1044 2621q-199 -3 -314.5 -90.5t-147.5 -175.5q-64 -184 -102 -495t-38 -631q0 -484 78 -778q37 -131 83 -189.5t126 -122.5q121 -90 262 -90q149 0 291 98q74 55 137.5 153t71.5 196 q25 302 39 518.5t14 423.5q0 552 -110 925q-25 96 -141 177t-249 81z" />
<glyph unicode="&#xd3;" horiz-adv-x="1991" d="M1040 2675q192 0 354.5 -117t276.5 -289q125 -186 191.5 -448.5t66.5 -546.5q0 -513 -196 -840q-92 -156 -285 -299t-444 -143q-250 0 -379.5 83t-280.5 298q-94 143 -157.5 303.5t-96.5 337.5t-33 354q0 513 246 885q273 410 737 422zM1319 3027l-696 -217 q77 51 234.5 161.5t309.5 232.5t152 163q5 -27 12.5 -85.5t7.5 -119.5q0 -94 -20 -135zM1044 2621q-199 -3 -314.5 -90.5t-147.5 -175.5q-64 -184 -102 -495t-38 -631q0 -484 78 -778q37 -131 83 -189.5t126 -122.5q121 -90 262 -90q149 0 291 98q74 55 137.5 153t71.5 196 q25 302 39 518.5t14 423.5q0 552 -110 925q-25 96 -141 177t-249 81z" />
<glyph unicode="&#xd4;" horiz-adv-x="2015" d="M1040 2675q192 0 354.5 -117t276.5 -289q125 -186 191.5 -448.5t66.5 -546.5q0 -513 -196 -840q-92 -156 -285 -299t-444 -143q-250 0 -379.5 83t-280.5 298q-94 143 -157.5 303.5t-96.5 337.5t-33 354q0 513 246 885q273 410 737 422zM537 2753h-99l578 598l516 -598 h-340l-295 376zM1044 2621q-199 -3 -314.5 -90.5t-147.5 -175.5q-64 -184 -102 -495t-38 -631q0 -484 78 -778q37 -131 83 -189.5t126 -122.5q121 -90 262 -90q149 0 291 98q74 55 137.5 153t71.5 196q25 302 39 518.5t14 423.5q0 552 -110 925q-25 96 -141 177t-249 81z " />
<glyph unicode="&#xd5;" horiz-adv-x="3318" d="M1040 2675q192 0 354.5 -117t276.5 -289q125 -186 191.5 -448.5t66.5 -546.5q0 -513 -196 -840q-92 -156 -285 -299t-444 -143q-250 0 -379.5 83t-280.5 298q-94 143 -157.5 303.5t-96.5 337.5t-33 354q0 513 246 885q273 410 737 422zM1044 2621q-199 -3 -314.5 -90.5 t-147.5 -175.5q-64 -184 -102 -495t-38 -631q0 -484 78 -778q37 -131 83 -189.5t126 -122.5q121 -90 262 -90q149 0 291 98q74 55 137.5 153t71.5 196q25 302 39 518.5t14 423.5q0 552 -110 925q-25 96 -141 177t-249 81z" />
<glyph unicode="&#xd6;" horiz-adv-x="1991" d="M508 3056q0 82 58 141t143 59q86 0 145 -58t59 -142q0 -87 -60 -146t-144 -59q-83 0 -142 60t-59 145zM1122 3056q0 82 59 141t146 59q85 0 143 -58t58 -142q0 -87 -59 -146t-142 -59q-85 0 -145 60t-60 145zM1040 2675q192 0 354.5 -117t276.5 -289 q125 -186 191.5 -448.5t66.5 -546.5q0 -513 -196 -840q-92 -156 -285 -299t-444 -143q-250 0 -379.5 83t-280.5 298q-94 143 -157.5 303.5t-96.5 337.5t-33 354q0 513 246 885q273 410 737 422zM1044 2621q-199 -3 -314.5 -90.5t-147.5 -175.5q-64 -184 -102 -495t-38 -631 q0 -484 78 -778q37 -131 83 -189.5t126 -122.5q121 -90 262 -90q149 0 291 98q74 55 137.5 153t71.5 196q25 302 39 518.5t14 423.5q0 552 -110 925q-25 96 -141 177t-249 81z" />
<glyph unicode="&#xd8;" horiz-adv-x="2040" d="M1040 2675q192 0 354.5 -117t276.5 -289q125 -186 191.5 -448.5t66.5 -546.5q0 -513 -196 -840q-92 -156 -285 -299t-444 -143q-250 0 -379.5 83t-280.5 298q-94 143 -157.5 303.5t-96.5 337.5t-33 354q0 513 246 885q273 410 737 422zM1962 2703h172l-2003 -2703h-188z M1044 2621q-199 -3 -314.5 -90.5t-147.5 -175.5q-64 -184 -102 -495t-38 -631q0 -484 78 -778q37 -131 83 -189.5t126 -122.5q121 -90 262 -90q149 0 291 98q74 55 137.5 153t71.5 196q25 302 39 518.5t14 423.5q0 552 -110 925q-25 96 -141 177t-249 81z" />
<glyph unicode="&#xd9;" horiz-adv-x="2654" d="M2544 2707v-45q-435 0 -435 -274v-1847q0 -277 -282 -455q-151 -94 -422 -94q-176 0 -343.5 46.5t-279.5 133.5q-250 192 -250 463v2023h-385l5 45h1114v-45h-406v-2232q0 -122 83 -213.5t212 -138.5q121 -41 250 -41q192 0 361.5 77t228.5 214q45 118 45 331v1708 q0 303 -344 303q-39 0 -67.5 -3t-39.5 -5v49h955zM1696 2834l-697 222q-20 40 -20 131q0 61 7.5 119.5t12.5 84.5q0 -41 154.5 -165t310 -232.5t232.5 -159.5z" />
<glyph unicode="&#xda;" horiz-adv-x="2626" d="M2544 2707v-45q-435 0 -435 -274v-1847q0 -277 -282 -455q-151 -94 -422 -94q-176 0 -343.5 46.5t-279.5 133.5q-250 192 -250 463v2023h-385l5 45h1114v-45h-406v-2232q0 -122 83 -213.5t212 -138.5q121 -41 250 -41q192 0 361.5 77t228.5 214q45 118 45 331v1708 q0 303 -344 303q-39 0 -67.5 -3t-39.5 -5v49h955zM1798 3027l-696 -217q77 51 234.5 161.5t309.5 232.5t152 163q5 -27 13 -82t8 -123q0 -94 -21 -135z" />
<glyph unicode="&#xdb;" horiz-adv-x="2626" d="M2544 2707v-45q-435 0 -435 -274v-1847q0 -277 -282 -455q-151 -94 -422 -94q-176 0 -343.5 46.5t-279.5 133.5q-250 192 -250 463v2023h-385l5 45h1114v-45h-406v-2232q0 -122 83 -213.5t212 -138.5q121 -41 250 -41q192 0 361.5 77t228.5 214q45 118 45 331v1708 q0 303 -344 303q-39 0 -67.5 -3t-39.5 -5v49h955zM963 2806h-99l574 598l520 -598h-340l-299 377z" />
<glyph unicode="&#xdc;" horiz-adv-x="2654" d="M905 3080q0 85 58 145t143 60q87 0 146 -59t59 -146q0 -83 -60 -142t-145 -59q-83 0 -142 60t-59 141zM1524 3080q0 85 58 145t142 60q87 0 144 -59t57 -146q0 -83 -58 -142t-143 -59q-82 0 -141 60t-59 141zM2544 2707v-45q-435 0 -435 -274v-1847q0 -277 -282 -455 q-151 -94 -422 -94q-176 0 -343.5 46.5t-279.5 133.5q-250 192 -250 463v2023h-385l5 45h1114v-45h-406v-2232q0 -122 83 -213.5t212 -138.5q121 -41 250 -41q192 0 361.5 77t228.5 214q45 118 45 331v1708q0 303 -344 303q-39 0 -67.5 -3t-39.5 -5v49h955z" />
<glyph unicode="&#xe0;" horiz-adv-x="1675" d="M934 1794q229 -81 278 -270q74 -246 74 -582q0 -84 -3.5 -168t-9.5 -198t-11 -243.5t-5 -209.5q8 -62 99 -62q55 0 94 25q101 75 111 320h32q-8 -155 -46 -256t-142 -134q-62 -20 -115 -20q-132 0 -200 98q-79 123 -103 254q-139 -297 -364 -340q-61 -12 -119 -12 q-147 0 -258 98q-168 158 -168 455q17 227 233 364q82 52 305.5 107.5t288.5 76t70 79.5q20 203 20 254q0 309 -245 364q-169 0 -272 -31.5t-167 -115.5q8 -34 55.5 -59.5t86.5 -48.5t43 -64q0 -98 -19 -138.5t-84 -46.5q-93 0 -147.5 18.5t-77.5 80.5q-12 42 -12 77 q0 123 127 230q167 143 405 143q119 0 246 -45zM1143 2040l-697 217q-20 41 -20 135q0 61 7.5 119.5t12.5 85.5q0 -41 154.5 -165t310 -232.5t232.5 -159.5zM967 1028l-41 37q-57 -38 -158.5 -63.5t-180 -46t-116.5 -58.5q-119 -130 -119 -365q0 -157 58 -352 q15 -48 69.5 -83.5t114.5 -35.5q49 0 94 25q108 72 167 175.5t81 226t25 265t6 275.5z" />
<glyph unicode="&#xe1;" horiz-adv-x="1659" d="M934 1794q229 -81 278 -270q74 -246 74 -582q0 -84 -3.5 -168t-9.5 -198t-11 -243.5t-5 -209.5q8 -62 99 -62q55 0 94 25q101 75 111 320h32q-8 -155 -46 -256t-142 -134q-62 -20 -115 -20q-132 0 -200 98q-79 123 -103 254q-139 -297 -364 -340q-61 -12 -119 -12 q-147 0 -258 98q-168 158 -168 455q17 227 233 364q82 52 305.5 107.5t288.5 76t70 79.5q20 203 20 254q0 309 -245 364q-169 0 -272 -31.5t-167 -115.5q8 -34 55.5 -59.5t86.5 -48.5t43 -64q0 -98 -19 -138.5t-84 -46.5q-93 0 -147.5 18.5t-77.5 80.5q-12 42 -12 77 q0 123 127 230q167 143 405 143q119 0 246 -45zM1176 2257l-697 -217q77 51 232.5 159.5t310 232.5t154.5 165q6 -27 15 -85.5t9 -119.5q0 -85 -24 -135zM967 1028l-41 37q-57 -38 -158.5 -63.5t-180 -46t-116.5 -58.5q-119 -130 -119 -365q0 -157 58 -352 q15 -48 69.5 -83.5t114.5 -35.5q49 0 94 25q108 72 167 175.5t81 226t25 265t6 275.5z" />
<glyph unicode="&#xe2;" horiz-adv-x="1671" d="M934 1794q229 -81 278 -270q74 -246 74 -582q0 -84 -3.5 -168t-9.5 -198t-11 -243.5t-5 -209.5q8 -62 99 -62q55 0 94 25q101 75 111 320h32q-8 -155 -46 -256t-142 -134q-62 -20 -115 -20q-132 0 -200 98q-79 123 -103 254q-139 -297 -364 -340q-61 -12 -119 -12 q-147 0 -258 98q-168 158 -168 455q17 227 233 364q82 52 305.5 107.5t288.5 76t70 79.5q20 203 20 254q0 309 -245 364q-169 0 -272 -31.5t-167 -115.5q8 -34 55.5 -59.5t86.5 -48.5t43 -64q0 -98 -19 -138.5t-84 -46.5q-93 0 -147.5 18.5t-77.5 80.5q-12 42 -12 77 q0 123 127 230q167 143 405 143q119 0 246 -45zM356 2011h-98l578 594l516 -594h-336l-299 377zM967 1028l-41 37q-57 -38 -158.5 -63.5t-180 -46t-116.5 -58.5q-119 -130 -119 -365q0 -157 58 -352q15 -48 69.5 -83.5t114.5 -35.5q49 0 94 25q108 72 167 175.5t81 226 t25 265t6 275.5z" />
<glyph unicode="&#xe3;" horiz-adv-x="1671" d="M934 1794q229 -81 278 -270q74 -246 74 -582q0 -84 -3.5 -168t-9.5 -198t-11 -243.5t-5 -209.5q8 -62 99 -62q55 0 94 25q101 75 111 320h32q-8 -155 -46 -256t-142 -134q-62 -20 -115 -20q-132 0 -200 98q-79 123 -103 254q-139 -297 -364 -340q-61 -12 -119 -12 q-147 0 -258 98q-168 158 -168 455q17 227 233 364q82 52 305.5 107.5t288.5 76t70 79.5q20 203 20 254q0 309 -245 364q-169 0 -272 -31.5t-167 -115.5q8 -34 55.5 -59.5t86.5 -48.5t43 -64q0 -98 -19 -138.5t-84 -46.5q-93 0 -147.5 18.5t-77.5 80.5q-12 42 -12 77 q0 123 127 230q167 143 405 143q119 0 246 -45zM516 2208q-151 0 -229.5 -54.5t-188.5 -224.5q20 235 134.5 373t304.5 147q81 0 144 -37.5t147.5 -111t152.5 -112t154 -38.5q146 17 235.5 72t181.5 186q-63 -242 -143.5 -367.5t-253.5 -168.5q-40 -8 -61 -8 q-76 0 -133 39.5t-140.5 124t-150.5 130.5t-154 50zM967 1028l-41 37q-57 -38 -158.5 -63.5t-180 -46t-116.5 -58.5q-119 -130 -119 -365q0 -157 58 -352q15 -48 69.5 -83.5t114.5 -35.5q49 0 94 25q108 72 167 175.5t81 226t25 265t6 275.5z" />
<glyph unicode="&#xe4;" horiz-adv-x="1692" d="M934 1794q229 -81 278 -270q74 -246 74 -582q0 -84 -3.5 -168t-9.5 -198t-11 -243.5t-5 -209.5q8 -62 99 -62q55 0 94 25q101 75 111 320h32q-8 -155 -46 -256t-142 -134q-62 -20 -115 -20q-132 0 -200 98q-79 123 -103 254q-139 -297 -364 -340q-61 -12 -119 -12 q-147 0 -258 98q-168 158 -168 455q17 227 233 364q82 52 305.5 107.5t288.5 76t70 79.5q20 203 20 254q0 309 -245 364q-169 0 -272 -31.5t-167 -115.5q8 -34 55.5 -59.5t86.5 -48.5t43 -64q0 -98 -19 -138.5t-84 -46.5q-93 0 -147.5 18.5t-77.5 80.5q-12 42 -12 77 q0 123 127 230q167 143 405 143q119 0 246 -45zM217 2257q0 86 57 145.5t144 59.5q86 0 143 -59t57 -146q0 -85 -58 -143t-142 -58q-85 0 -143 59t-58 142zM831 2257q0 86 59.5 145.5t145.5 59.5q85 0 143 -59t58 -146q0 -85 -59 -143t-142 -58q-84 0 -144.5 58.5 t-60.5 142.5zM967 1028l-41 37q-57 -38 -158.5 -63.5t-180 -46t-116.5 -58.5q-119 -130 -119 -365q0 -157 58 -352q15 -48 69.5 -83.5t114.5 -35.5q49 0 94 25q108 72 167 175.5t81 226t25 265t6 275.5z" />
<glyph unicode="&#xe5;" horiz-adv-x="1671" d="M934 1794q229 -81 278 -270q74 -246 74 -582q0 -84 -3.5 -168t-9.5 -198t-11 -243.5t-5 -209.5q8 -62 99 -62q55 0 94 25q101 75 111 320h32q-8 -155 -46 -256t-142 -134q-62 -20 -115 -20q-132 0 -200 98q-79 123 -103 254q-139 -297 -364 -340q-61 -12 -119 -12 q-147 0 -258 98q-168 158 -168 455q17 227 233 364q82 52 305.5 107.5t288.5 76t70 79.5q20 203 20 254q0 309 -245 364q-169 0 -272 -31.5t-167 -115.5q8 -34 55.5 -59.5t86.5 -48.5t43 -64q0 -98 -19 -138.5t-84 -46.5q-93 0 -147.5 18.5t-77.5 80.5q-12 42 -12 77 q0 123 127 230q167 143 405 143q119 0 246 -45zM369 2290q0 146 105 251t251 105q151 0 255.5 -104.5t104.5 -251.5q0 -151 -104 -256t-256 -105q-147 0 -251.5 105.5t-104.5 255.5zM967 1028l-41 37q-57 -38 -158.5 -63.5t-180 -46t-116.5 -58.5q-119 -130 -119 -365 q0 -157 58 -352q15 -48 69.5 -83.5t114.5 -35.5q49 0 94 25q108 72 167 175.5t81 226t25 265t6 275.5zM717 2552q-109 0 -185.5 -77.5t-76.5 -184.5q0 -110 76 -186t186 -76t186 76t76 186q0 107 -76.5 184.5t-185.5 77.5z" />
<glyph unicode="&#xe6;" horiz-adv-x="2404" d="M1556 -25q-142 13 -264 61t-178 95q-102 81 -127 217q-139 -297 -364 -340q-61 -12 -119 -12q-147 0 -258 98q-168 158 -168 455q17 227 233 364q82 52 305.5 107.5t288.5 76t70 79.5q20 203 20 254q0 309 -245 364q-169 0 -272 -31.5t-167 -115.5q8 -29 29.5 -43.5 t67 -35.5t67 -40.5t21.5 -52.5q0 -99 -19 -142t-84 -43q-93 0 -147.5 18.5t-77.5 80.5q-12 42 -12 77q0 123 127 230q167 143 405 143q119 0 246 -45q203 -74 266 -233q102 119 254 204q141 45 229 45q84 0 152 -36q188 -89 311 -299q123 -202 123 -541h-979 q0 -211 11.5 -386t46.5 -327q39 -175 274 -213q66 -8 94 -8q232 0 361 160q147 186 180 381h33q-66 -382 -344 -533q-70 -33 -390 -33zM967 1028l-41 37q-57 -38 -158.5 -63.5t-180 -46t-116.5 -58.5q-119 -130 -119 -365q0 -157 58 -352q15 -48 69.5 -83.5t114.5 -35.5 q49 0 94 25q108 72 167 175.5t81 226t25 265t6 275.5zM1851 1708q-88 57 -204 57q-73 0 -152 -28q-132 -100 -168.5 -287t-36.5 -463h701v156q0 197 -27 336t-113 229z" />
<glyph unicode="&#xe7;" horiz-adv-x="1454" d="M729 -16q-103 0 -205 61q-458 260 -458 877q0 534 421 811q130 86 308 86q155 0 282.5 -74.5t167.5 -212.5q45 -150 45 -201q0 -80 -57 -131q-85 -70 -156 -70q-35 0 -69 17q-115 51 -115 164q0 33 20 73q49 119 160 119q57 0 115 -41q0 201 -225 299q-85 33 -152 33 q-84 0 -188 -53q-147 -84 -188.5 -283.5t-41.5 -523.5q0 -249 8 -394.5t39 -260.5t97 -168q101 -86 266 -86q82 0 147 16q350 82 418 610h21q-31 -441 -299 -594q-117 -65 -242 -65q0 -133 -19 -200.5t-71 -131.5q-77 -86 -365 -111q128 49 176.5 75t96.5 110.5t63 249.5z " />
<glyph unicode="&#xe8;" horiz-adv-x="1475" d="M918 1774q108 -39 176.5 -113t134.5 -186q123 -204 123 -541h-979q0 -441 57 -692q40 -154 275 -213q52 -13 106 -13q216 0 348 164q145 176 184 381h29q-72 -414 -340 -532q-94 -45 -221 -45q-157 0 -311 77q-434 206 -434 783q0 96 12 188q23 167 72.5 301.5 t144.5 246.5t242 185q98 50 192 50q69 0 189 -41zM1163 2040l-696 217q-21 43 -21 135q0 61 8 119.5t13 85.5q0 -41 152 -163t309.5 -232.5t234.5 -161.5zM934 1708q-86 86 -193 86q-90 0 -159 -57q-134 -106 -171.5 -261t-37.5 -386v-103h700q0 35 2 105t2 108 q0 356 -143 508z" />
<glyph unicode="&#xe9;" horiz-adv-x="1475" d="M918 1774q108 -39 176.5 -113t134.5 -186q123 -204 123 -541h-979q0 -441 57 -692q40 -154 275 -213q52 -13 106 -13q216 0 348 164q145 176 184 381h29q-72 -414 -340 -532q-94 -45 -221 -45q-157 0 -311 77q-434 206 -434 783q0 96 12 188q23 167 72.5 301.5 t144.5 246.5t242 185q98 50 192 50q69 0 189 -41zM1135 2257l-697 -217q77 51 232.5 159.5t310 232.5t154.5 165q5 -27 12.5 -85.5t7.5 -119.5q0 -94 -20 -135zM934 1708q-86 86 -193 86q-90 0 -159 -57q-134 -106 -171.5 -261t-37.5 -386v-103h700q0 35 2 105t2 108 q0 356 -143 508z" />
<glyph unicode="&#xea;" horiz-adv-x="1454" d="M918 1774q108 -39 176.5 -113t134.5 -186q123 -204 123 -541h-979q0 -441 57 -692q40 -154 275 -213q52 -13 106 -13q216 0 348 164q145 176 184 381h29q-72 -414 -340 -532q-94 -45 -221 -45q-157 0 -311 77q-434 206 -434 783q0 96 12 188q23 167 72.5 301.5 t144.5 246.5t242 185q98 50 192 50q69 0 189 -41zM238 2011h-99l578 594l516 -594h-336l-299 377zM934 1708q-86 86 -193 86q-90 0 -159 -57q-134 -106 -171.5 -261t-37.5 -386v-103h700q0 35 2 105t2 108q0 356 -143 508z" />
<glyph unicode="&#xeb;" horiz-adv-x="1454" d="M918 1774q108 -39 176.5 -113t134.5 -186q123 -204 123 -541h-979q0 -441 57 -692q40 -154 275 -213q52 -13 106 -13q216 0 348 164q145 176 184 381h29q-72 -414 -340 -532q-94 -45 -221 -45q-157 0 -311 77q-434 206 -434 783q0 96 12 188q23 167 72.5 301.5 t144.5 246.5t242 185q98 50 192 50q69 0 189 -41zM217 2257q0 86 57 145.5t144 59.5q86 0 143 -59t57 -146q0 -85 -58 -143t-142 -58q-85 0 -143 59t-58 142zM831 2257q0 86 59.5 145.5t145.5 59.5q85 0 143 -59t58 -146q0 -85 -59 -143t-142 -58q-84 0 -144.5 58.5 t-60.5 142.5zM934 1708q-86 86 -193 86q-90 0 -159 -57q-134 -106 -171.5 -261t-37.5 -386v-103h700q0 35 2 105t2 108q0 356 -143 508z" />
<glyph unicode="&#xec;" horiz-adv-x="1094" d="M926 2040l-697 217q-20 41 -20 135q0 61 7.5 119.5t12.5 85.5q0 -41 154.5 -165t310 -232.5t232.5 -159.5zM98 1819h574v-1774h274v-49h-823v49h278v1724h-303v50z" />
<glyph unicode="&#xed;" horiz-adv-x="1114" d="M98 1819h574v-1774h274v-49h-823v49h278v1724h-303v50zM913 2257l-696 -217q77 51 234.5 161.5t309.5 232.5t152 163q6 -27 15.5 -82.5t9.5 -122.5q0 -86 -25 -135z" />
<glyph unicode="&#xee;" horiz-adv-x="1094" d="M61 2011h-102l578 594l516 -594h-336l-299 377zM98 1819h574v-1774h274v-49h-823v49h278v1724h-303v50z" />
<glyph unicode="&#xef;" horiz-adv-x="1094" d="M98 1819h574v-1774h274v-49h-823v49h278v1724h-303v50zM12 2331q0 78 56 135t137 57q80 0 136 -56t56 -136q0 -81 -56.5 -135t-135.5 -54q-80 0 -136.5 55t-56.5 134zM590 2331q0 78 56 135t136 57q81 0 137 -56t56 -136q0 -81 -56.5 -135t-136.5 -54q-79 0 -135.5 55 t-56.5 134z" />
<glyph unicode="&#xf1;" horiz-adv-x="2048" d="M1217 1810q125 0 232 -62t170.5 -166.5t63.5 -225.5v-1311h259v-45h-836v45h295l-4 1319q0 150 -33 247.5t-135 129.5q-39 16 -90 16q-147 0 -246 -139q-209 -279 -209 -496l-4 -1077h270v-45l-844 -8v53h295v1638h-307q8 0 8 29q0 17 -8 21h590l-4 -349 q85 137 152 222.5t163 144t222 59.5zM717 2290q-101 0 -162 -19t-118.5 -78t-137.5 -182q20 233 134 371.5t304 144.5q81 0 143 -37.5t146.5 -111t152.5 -112t156 -38.5q145 20 235.5 75t182.5 183q-64 -242 -145.5 -367.5t-255.5 -168.5q-42 -8 -62 -8q-74 0 -129.5 39.5 t-139 125t-151 132t-153.5 51.5z" />
<glyph unicode="&#xf2;" horiz-adv-x="1491" d="M86 877q0 244 78.5 463t232.5 353t365 134q213 0 366.5 -135.5t231.5 -351t78 -447.5q-2 -225 -82 -433.5t-233.5 -338t-360.5 -129.5q-204 0 -355.5 127t-233 330t-87.5 428zM1245 2040l-696 217q-25 49 -25 135q0 61 9.5 119.5t15.5 85.5q0 -41 152 -163t309.5 -232.5 t234.5 -161.5zM766 1782q-179 0 -263.5 -100t-107 -277.5t-22.5 -507.5q0 -301 23.5 -476.5t109 -275.5t260.5 -100q176 0 261 96.5t108.5 271t23.5 484.5q0 312 -22 492t-107 286.5t-264 106.5z" />
<glyph unicode="&#xf3;" horiz-adv-x="1511" d="M86 877q0 244 78.5 463t232.5 353t365 134q213 0 366.5 -135.5t231.5 -351t78 -447.5q-2 -225 -82 -433.5t-233.5 -338t-360.5 -129.5q-204 0 -355.5 127t-233 330t-87.5 428zM1073 2257l-696 -217q77 51 234.5 161.5t309.5 232.5t152 163q5 -27 13 -82t8 -123 q0 -94 -21 -135zM766 1782q-179 0 -263.5 -100t-107 -277.5t-22.5 -507.5q0 -301 23.5 -476.5t109 -275.5t260.5 -100q176 0 261 96.5t108.5 271t23.5 484.5q0 312 -22 492t-107 286.5t-264 106.5z" />
<glyph unicode="&#xf4;" horiz-adv-x="1491" d="M86 877q0 244 78.5 463t232.5 353t365 134q213 0 366.5 -135.5t231.5 -351t78 -447.5q-2 -225 -82 -433.5t-233.5 -338t-360.5 -129.5q-204 0 -355.5 127t-233 330t-87.5 428zM377 2011h-98l577 594l516 -594h-336l-299 377zM766 1782q-179 0 -263.5 -100t-107 -277.5 t-22.5 -507.5q0 -301 23.5 -476.5t109 -275.5t260.5 -100q176 0 261 96.5t108.5 271t23.5 484.5q0 312 -22 492t-107 286.5t-264 106.5z" />
<glyph unicode="&#xf5;" horiz-adv-x="1511" d="M86 877q0 244 78.5 463t232.5 353t365 134q213 0 366.5 -135.5t231.5 -351t78 -447.5q-2 -225 -82 -433.5t-233.5 -338t-360.5 -129.5q-204 0 -355.5 127t-233 330t-87.5 428zM537 2208q-151 0 -229.5 -54.5t-188.5 -224.5q18 234 133 372.5t305 147.5q81 0 143 -37.5 t146.5 -111t152.5 -112t156 -38.5q145 17 235.5 72t182.5 186q-64 -241 -146 -367t-251 -169q-42 -8 -62 -8q-75 0 -133.5 40.5t-139 123t-149 129.5t-155.5 51zM766 1782q-179 0 -263.5 -100t-107 -277.5t-22.5 -507.5q0 -301 23.5 -476.5t109 -275.5t260.5 -100 q176 0 261 96.5t108.5 271t23.5 484.5q0 312 -22 492t-107 286.5t-264 106.5z" />
<glyph unicode="&#xf6;" horiz-adv-x="1511" d="M86 877q0 244 78.5 463t232.5 353t365 134q213 0 366.5 -135.5t231.5 -351t78 -447.5q-2 -225 -82 -433.5t-233.5 -338t-360.5 -129.5q-204 0 -355.5 127t-233 330t-87.5 428zM217 2257q0 86 57 145.5t144 59.5q86 0 143 -59t57 -146q0 -85 -58 -143t-142 -58 q-85 0 -143 59t-58 142zM831 2257q0 86 59.5 145.5t145.5 59.5q85 0 143 -59t58 -146q0 -85 -59 -143t-142 -58q-84 0 -144.5 58.5t-60.5 142.5zM766 1782q-179 0 -263.5 -100t-107 -277.5t-22.5 -507.5q0 -301 23.5 -476.5t109 -275.5t260.5 -100q176 0 261 96.5t108.5 271 t23.5 484.5q0 312 -22 492t-107 286.5t-264 106.5z" />
<glyph unicode="&#xf8;" horiz-adv-x="1802" d="M246 877q0 244 78.5 463t232.5 353t365 134t364.5 -135.5t232 -351t78.5 -447.5q-2 -225 -81.5 -433t-233 -338t-360.5 -130q-204 0 -355.5 127t-233 330t-87.5 428zM1655 2093h143l-1638 -2216h-156zM926 1782q-181 0 -265.5 -100t-106.5 -278t-22 -507 q0 -301 24 -476.5t109.5 -275.5t260.5 -100q176 0 261 96.5t108.5 271t23.5 484.5q0 313 -23.5 493t-108.5 286t-261 106z" />
<glyph unicode="&#xf9;" horiz-adv-x="2032" d="M115 1815h557v-1528q0 -118 84.5 -188t169.5 -70q35 0 53 12q179 95 292 274t113 381v1073h-331v50h598v-1774h291v-45h-553l-5 430q-127 -203 -263.5 -324.5t-346.5 -121.5q-393 49 -393 315v1462h-266v54zM1364 2040l-696 217q-21 41 -21 135q0 61 8 119.5t13 85.5 q0 -41 152 -163t309.5 -232.5t234.5 -161.5z" />
<glyph unicode="&#xfa;" horiz-adv-x="2048" d="M115 1815h557v-1528q0 -118 84.5 -188t169.5 -70q35 0 53 12q179 95 292 274t113 381v1073h-331v50h598v-1774h291v-45h-553l-5 430q-127 -203 -263.5 -324.5t-346.5 -121.5q-393 49 -393 315v1462h-266v54zM1294 2257l-696 -217q77 51 234.5 161.5t309.5 232.5t152 163 q5 -27 13 -82t8 -123q0 -94 -21 -135z" />
<glyph unicode="&#xfb;" horiz-adv-x="2048" d="M115 1815h557v-1528q0 -118 84.5 -188t169.5 -70q35 0 53 12q179 95 292 274t113 381v1073h-331v50h598v-1774h291v-45h-553l-5 430q-127 -203 -263.5 -324.5t-346.5 -121.5q-393 49 -393 315v1462h-266v54zM537 2011h-99l578 594l516 -594h-340l-295 377z" />
<glyph unicode="&#xfc;" horiz-adv-x="2048" d="M115 1815h557v-1528q0 -118 84.5 -188t169.5 -70q35 0 53 12q179 95 292 274t113 381v1073h-331v50h598v-1774h291v-45h-553l-5 430q-127 -203 -263.5 -324.5t-346.5 -121.5q-393 49 -393 315v1462h-266v54zM455 2257q0 85 58 145t142 60q87 0 146 -59t59 -146 q0 -85 -60 -143t-145 -58q-82 0 -141 59t-59 142zM1073 2257q0 86 57 145.5t144 59.5q83 0 142 -60t59 -145q0 -83 -60 -142t-141 -59q-85 0 -143 59t-58 142z" />
<glyph unicode="&#xff;" horiz-adv-x="1962" d="M45 1810h848v-49h-291l528 -1335l394 1102q12 42 12 74q0 167 -307 167v46h643q-8 -18 -8 -25t3 -13t5 -8q-95 0 -164 -36.5t-111 -147.5l-684 -1929q-56 -180 -249 -258q-29 -12 -91 -12q-117 0 -204 69q-123 96 -123 221q0 52 16 91q48 127 176 127q39 0 74 -17 q41 -18 67.5 -62.5t26.5 -97.5q0 -15 -8 -49q-18 -57 -64 -90t-104 -33q-21 0 -57 9q-15 4 -26.5 8.5t-18.5 7.5q31 -76 95 -118t138 -42q62 0 103 21q81 33 134 96t88 148.5t61.5 196.5t39.5 169l-692 1720h-250v49zM586 2257q0 85 59 145t146 60q84 0 142 -59t58 -146 q0 -85 -59 -143t-141 -58q-85 0 -145 59t-60 142zM1204 2257q0 85 58 145t143 60q87 0 146 -59t59 -146q0 -85 -60 -143t-145 -58q-83 0 -142 59t-59 142z" />
<glyph unicode="&#x152;" horiz-adv-x="3318" d="M1909 2638v-1077q0 -8 6 -28t6 -34q78 0 186.5 -1.5t165.5 -2.5q85 0 137.5 60.5t75.5 146.5t41.5 211t24.5 151l20 -4v-1220h-24q-15 109 -27 198.5t-36 171.5t-75.5 136.5t-136.5 54.5h-372q0 -55 1 -218.5t3 -486.5t3 -445t1 -198q55 0 174 -4t182 -4 q193 0 343.5 41.5t270.5 159.5q82 78 131 170.5t71 185t35.5 198t29.5 232.5h24v-1036l-2011 -4v16q-24 0 -76 -8t-79 -8q-250 0 -379.5 83t-280.5 298q-94 143 -157.5 303.5t-96.5 337.5t-33 354q0 513 246 885q289 434 737 434q152 0 152 12h1937v-905h-37 q-28 263 -51.5 393.5t-104.5 257.5t-241 168q-169 45 -397 45q-58 0 -167 -4t-165 -4zM1044 2621q-199 0 -314.5 -88.5t-147.5 -177.5q-64 -184 -102 -495t-38 -631q0 -484 78 -778q37 -131 83 -189.5t126 -122.5q121 -90 262 -90q149 0 291 98q74 55 137.5 153t71.5 196 q25 302 39 518.5t14 423.5q0 552 -110 925q-25 96 -141 177t-249 81z" />
<glyph unicode="&#x153;" horiz-adv-x="2548" d="M762 1827q336 0 532 -344q112 186 320 303q133 41 229 41q93 0 152 -33q186 -86 311 -299q123 -213 123 -545h-979q0 -457 57 -708q35 -154 275 -213q53 -13 106 -13q216 0 348 164q148 185 181 381h32q-65 -382 -344 -532q-97 -49 -204 -49q-155 0 -324 86 q-185 92 -287 249q-196 -323 -528 -323q-204 0 -355.5 127t-233 330t-87.5 428q0 244 78.5 463t232.5 353t365 134zM766 45q149 0 231.5 68.5t118 201.5t43.5 336q-20 123 -20 221q0 88 12 181q0 8 4 23t4 22q0 341 -83 512.5t-310 171.5q-179 0 -263.5 -100t-107 -277.5 t-22.5 -507.5q0 -301 23.5 -476.5t109 -275.5t260.5 -100zM2011 1729q-84 53 -213 53q-77 0 -143 -25q-134 -98 -169.5 -283t-35.5 -466h700v155q0 197 -27 336t-112 230z" />
<glyph unicode="&#x178;" horiz-adv-x="2572" d="M115 2695h1147v-41h-431l631 -1249l414 958q29 65 29 115q0 180 -385 180v45h929v-45q-358 0 -520 -360l-442 -1000v-1253h422v-53l-1139 8v45h389v1298l-680 1311h-364v41zM852 3109q0 81 59 141t142 60q84 0 144 -59t60 -142q0 -87 -60 -146t-144 -59q-83 0 -142 60 t-59 145zM1470 3109q0 81 60 141t141 60q85 0 143 -59t58 -142q0 -87 -58 -146t-143 -59q-81 0 -141 60t-60 145z" />
<glyph unicode="&#x2000;" horiz-adv-x="1722" />
<glyph unicode="&#x2001;" horiz-adv-x="3445" />
<glyph unicode="&#x2002;" horiz-adv-x="1722" />
<glyph unicode="&#x2003;" horiz-adv-x="3445" />
<glyph unicode="&#x2004;" horiz-adv-x="1148" />
<glyph unicode="&#x2005;" horiz-adv-x="861" />
<glyph unicode="&#x2006;" horiz-adv-x="574" />
<glyph unicode="&#x2007;" horiz-adv-x="574" />
<glyph unicode="&#x2008;" horiz-adv-x="430" />
<glyph unicode="&#x2009;" horiz-adv-x="689" />
<glyph unicode="&#x200a;" horiz-adv-x="191" />
<glyph unicode="&#x2010;" d="M1286 1524q-45 -35 -62.5 -115.5t-19.5 -126.5l-1040 -20q35 52 57 135t29 127h1036z" />
<glyph unicode="&#x2011;" d="M1286 1524q-45 -35 -62.5 -115.5t-19.5 -126.5l-1040 -20q35 52 57 135t29 127h1036z" />
<glyph unicode="&#x2012;" d="M1286 1524q-45 -35 -62.5 -115.5t-19.5 -126.5l-1040 -20q35 52 57 135t29 127h1036z" />
<glyph unicode="&#x2013;" horiz-adv-x="1618" d="M1475 1524q-43 -36 -61 -116t-21 -126l-1258 -20q40 56 60 137t26 125h1254z" />
<glyph unicode="&#x2014;" horiz-adv-x="2150" d="M1978 1524q-47 -38 -65 -117t-21 -125l-1704 -20q40 56 60 137t26 125h1704z" />
<glyph unicode="&#x2018;" horiz-adv-x="614" d="M328 1729q-72 0 -137.5 34.5t-79.5 96.5q-17 69 -17 159q0 367 332 684h33q-68 -87 -116.5 -149.5t-90 -132t-67 -153t-25.5 -183.5q68 61 147 61q64 0 107 -37q102 -82 102 -176q0 -31 -12 -61q-46 -137 -176 -143z" />
<glyph unicode="&#x2019;" horiz-adv-x="614" d="M279 2675q75 0 140.5 -33t76.5 -98q16 -72 16 -160q0 -367 -332 -684h-33q52 67 108 139.5t98.5 145.5t67.5 155t25 182q-63 -65 -151 -65q-55 0 -102 37q-103 81 -103 180q0 31 12 61q47 134 177 140z" />
<glyph unicode="&#x201a;" horiz-adv-x="598" d="M279 487q74 0 140 -34t77 -97q16 -71 16 -159q0 -367 -332 -684h-33q61 78 112.5 144t93.5 137.5t67.5 154.5t25.5 182q-66 -61 -147 -61q-58 0 -106 36q-103 83 -103 177q0 31 12 61q46 131 177 143z" />
<glyph unicode="&#x201c;" horiz-adv-x="1110" d="M328 1729q-72 0 -137.5 34.5t-79.5 96.5q-17 69 -17 159q0 367 332 684h33q-68 -87 -116.5 -149.5t-90 -132t-67 -153t-25.5 -183.5q68 61 147 61q64 0 107 -37q102 -82 102 -176q0 -31 -12 -61q-46 -137 -176 -143zM827 1729q-73 0 -139.5 34t-81.5 97q-16 71 -16 155 q0 367 336 688h28q-68 -87 -116.5 -149.5t-90 -132t-67 -153t-25.5 -183.5q68 61 152 61q59 0 106 -37q103 -87 103 -180q0 -27 -12 -57q-53 -137 -177 -143z" />
<glyph unicode="&#x201d;" horiz-adv-x="1094" d="M279 2675q75 0 140.5 -33t76.5 -98q16 -72 16 -160q0 -367 -332 -684h-33q52 67 108 139.5t98.5 145.5t67.5 155t25 182q-63 -65 -151 -65q-55 0 -102 37q-103 81 -103 180q0 31 12 61q47 134 177 140zM774 2675q77 0 142 -33t79 -98q17 -71 17 -156q0 -366 -336 -688 h-29q52 67 108.5 140.5t98.5 145.5t67 154t25 182q-65 -65 -155 -65q-54 0 -103 37q-98 84 -98 180q0 31 12 61q47 134 172 140z" />
<glyph unicode="&#x201e;" horiz-adv-x="1212" d="M279 487q74 0 140 -34t77 -97q16 -71 16 -159q0 -367 -332 -684h-33q61 78 112.5 144t93.5 137.5t67.5 154.5t25.5 182q-66 -61 -147 -61q-58 0 -106 36q-103 83 -103 177q0 31 12 61q46 131 177 143zM856 487q73 0 138 -34t79 -97q17 -75 17 -159q0 -366 -332 -684h-33 q61 78 112.5 145t93.5 137.5t67.5 153.5t25.5 182q-68 -61 -147 -61q-63 0 -107 36q-102 84 -102 177q0 31 12 61q46 131 176 143z" />
<glyph unicode="&#x2022;" horiz-adv-x="1692" d="M160 1114q0 190 93.5 349.5t253 253t349.5 93.5q144 0 270.5 -54t222 -149.5t149.5 -222t54 -270.5q0 -190 -93.5 -349.5t-253 -253t-349.5 -93.5t-349.5 93.5t-253 253t-93.5 349.5z" />
<glyph unicode="&#x2026;" horiz-adv-x="2048" d="M184 209q0 85 57 143t144 58q85 0 143 -57t58 -144t-59 -144t-142 -57q-85 0 -143 58t-58 143zM881 209q0 85 57 143t143 58q85 0 143 -57t58 -144t-59 -144t-142 -57q-84 0 -142 58t-58 143zM1577 209q0 85 57 143t144 58q86 0 143 -57t57 -144t-58 -144t-142 -57 q-85 0 -143 58t-58 143z" />
<glyph unicode="&#x202f;" horiz-adv-x="689" />
<glyph unicode="&#x205f;" horiz-adv-x="861" />
<glyph unicode="&#x2122;" horiz-adv-x="1790" d="M758 2707v-364h-8q-21 152 -51 229.5t-105 106.5q-11 3 -107 12v-864l140 4v-16h-381v16h110l17 860q-70 0 -94 -8q-90 -44 -118.5 -123t-45.5 -217h-4v364h647zM1475 2699h241v-12h-123v-868h123v-17h-364v17h135v831q-57 -212 -145.5 -530t-96.5 -318q-9 0 -101.5 315 t-152.5 525v-766q0 -18 15 -30.5t40.5 -17t51 -6.5t37.5 -3v-17h-308v17q140 0 140 61v750q0 25 -21 35t-67.5 15t-55.5 7v12h271l184 -671h4z" />
<glyph unicode="&#xe000;" horiz-adv-x="1820" d="M0 1820h1820v-1820h-1820v1820z" />
</font>
</defs>
</svg>
