<?xml version="1.0" standalone="no"?>
<!DOCTYPE svg PUBLIC "-//W3C//DTD SVG 1.1//EN" "http://www.w3.org/Graphics/SVG/1.1/DTD/svg11.dtd" >
<svg xmlns="http://www.w3.org/2000/svg">
<metadata></metadata>
<defs>
<font id="lektonitalic" horiz-adv-x="500" >
<font-face units-per-em="1000" ascent="750" descent="-250" />
<missing-glyph horiz-adv-x="500" />
<glyph horiz-adv-x="1000" />
<glyph horiz-adv-x="1000" />
<glyph unicode="&#xd;" horiz-adv-x="333" />
<glyph unicode=" " />
<glyph unicode="!" d="M322 688l-93 -500h-46l75 500h64zM143 -6l13 86h69l-13 -86h-69z" />
<glyph unicode="&#x22;" d="M213 680l-30 -217h-50l30 217h50zM365 680l-30 -217h-50l30 217h50z" />
<glyph unicode="#" d="M298 236l52 202h-144l-52 -202h144zM479 192h-141l-51 -192h-53l52 192h-144l-52 -192h-52l52 192h-133l7 44h138l52 202h-138l7 43h142l46 174h52l-46 -174h145l45 174h52l-45 -174h132l-7 -43h-137l-52 -202h136z" />
<glyph unicode="$" d="M382 292.5q34 -39.5 24.5 -117.5t-61 -126.5t-126.5 -55.5l-10 -85h-48l11 84q-63 4 -143 29l18 50q89 -29 149.5 -29t103.5 35.5t50 96.5t-18.5 86t-108.5 47t-116 60t-24 111.5t57 114.5t114 48l11 84h48l-10 -83q74 -3 146 -31l-19 -50q-79 31 -147 31 q-130 0 -143 -110q-6 -54 19 -81t107 -48t116 -60.5z" />
<glyph unicode="%" d="M399 665h56l-356 -665h-56zM238.5 624.5q28.5 -30.5 28.5 -87t-39 -98t-94.5 -41.5t-85 32t-29.5 87.5t40 96.5t95.5 41t84 -30.5zM154 613q-37 0 -60 -28t-23 -65t16 -58t51 -21t57 27t22 70q0 75 -63 75zM451 226.5q29 -30.5 29 -87t-39.5 -98t-95 -41.5t-84.5 32 t-29 87.5t39.5 96.5t95 41t84.5 -30.5zM367 215q-38 0 -61 -28t-23 -65t16 -58t51 -21t57 27t22 70q0 75 -62 75z" />
<glyph unicode="&#x26;" d="M388 117l65 -106l-40 -32q-40 56 -61 97q-81 -86 -169 -86t-133.5 54.5t-35.5 152.5q12 142 166 204q-39 81 -32 134q4 54 47 92.5t97.5 38.5t90 -38.5t30 -96.5t-39.5 -94t-117 -71l104 -207q44 77 83 206l45 -8q-36 -135 -100 -240zM326 459.5q28 29.5 32.5 69.5 t-16 64.5t-53.5 24.5t-59 -24.5t-29.5 -58.5t5 -61.5t31.5 -67.5q61 24 89 53.5zM328 115l-129 247q-122 -51 -132 -165q-8 -74 23.5 -116.5t95.5 -42.5q35 0 74 21.5t68 55.5z" />
<glyph unicode="'" d="M287 680l-30 -217h-50l30 217h50z" />
<glyph unicode="(" d="M385 796l41 -27q-75 -98 -122 -202q-48 -105 -65 -249t6.5 -248t75.5 -202l-48 -28q-57 107 -81 218q-26 110 -8 260t69 261t132 217z" />
<glyph unicode=")" d="M114 -156l-41 28q73 95 120.5 200t65.5 250q16 145 -7 249t-74 202l47 27q56 -104 80.5 -216t6.5 -262t-68 -261.5t-130 -216.5z" />
<glyph unicode="*" d="M76 505l5 45h140l-26 140l44 15l26 -142l123 87l21 -36l-124 -88l104 -85l-31 -39l-103 88l-60 -140l-40 16l60 139h-139z" />
<glyph unicode="+" d="M456 260h-187l-33 -199h-49l32 199h-186l9 46h185l33 198h48l-32 -198h190z" />
<glyph unicode="," d="M177 0l15 112h91l-11 -82q-11 -88 -96 -173l-23 24q52 65 62 119h-38z" />
<glyph unicode="-" d="M104 265h286l-9 -52h-286z" />
<glyph unicode="." d="M170 0l14 112h90l-14 -112h-90z" />
<glyph unicode="/" d="M508 688l-482 -729l-40 22l479 729z" />
<glyph unicode="0" d="M145.5 573q55.5 72 157 73t134.5 -77t4.5 -257t-85 -251.5t-157.5 -72.5t-134 76.5t-4 256.5t84.5 252zM113 107.5q19 -64.5 92.5 -64.5t113 61t63.5 212q26 144 7 209.5t-94 65.5t-113.5 -63t-63 -209.5t-5.5 -211z" />
<glyph unicode="1" d="M400 0h-351l8 50h161l86 526l-171 -76l-11 48l198 87h50l-96 -585h134z" />
<glyph unicode="2" d="M254 201q-103 -80 -139 -146h293l-9 -55h-348v49q25 51 67 98q44 47 86 81l82 70q94 82 109 161q11 60 -15.5 96t-80.5 36t-155 -65l-20 40q108 77 183.5 77t114.5 -48.5t26 -135t-74.5 -150t-119.5 -108.5z" />
<glyph unicode="3" d="M145 294v46l74 11q171 25 183 130q6 57 -27 84.5t-90 27.5q-53 0 -117 -22l-20 -7l-15 45q199 73 285 -3q48 -42 40 -121q-7 -58 -35 -90.5t-86 -54.5v-2q58 -10 82.5 -52.5t13.5 -110.5q-30 -185 -237 -185q-84 0 -184 40l23 47q85 -35 161.5 -35t123 32.5t57.5 100 t-19 99.5t-102 32z" />
<glyph unicode="4" d="M441 179l-8 -52h-83l-23 -137h-52l22 137h-249v47l229 460h54l-224 -455h199l34 210h53l-34 -210h82z" />
<glyph unicode="5" d="M394 352.5q40 -52.5 26.5 -149t-72.5 -155t-154 -58.5q-73 0 -167 42l25 51q84 -41 150.5 -41t110 45.5t53 117.5t-19 110t-90.5 38t-136 -58l-36 11l54 328h320l-10 -53h-268l-35 -219q64 43 123 43q86 0 126 -52.5z" />
<glyph unicode="6" d="M136 347q69 57 144 57q98 0 142 -51.5t25 -147.5q-43 -215 -244 -215q-88 0 -130 57t-26 161q29 174 112 273.5t260 169.5l9 -50q-136 -63 -196.5 -117.5t-95.5 -136.5zM389 205q24 147 -117 147q-61 0 -109.5 -38t-60.5 -106q-30 -166 119 -166q69 0 112.5 43t55.5 120z " />
<glyph unicode="7" d="M443 543q-19 -49 -63 -120l-84 -129q-40 -58 -75.5 -138.5t-44.5 -155.5h-59q8 72 38 147q29 75 67 136l75 115q90 133 98 184h-246l-21 -57l-48 4l31 105h352q-3 -41 -20 -91z" />
<glyph unicode="8" d="M158.5 598q55.5 45 147 45t132.5 -47.5t29 -123.5q-19 -107 -119 -146q100 -40 79 -165q-14 -81 -73 -126t-157 -45t-142.5 47.5t-30.5 128.5q21 118 133 158q-83 49 -66 153q12 76 67.5 121zM136.5 264q-43.5 -35 -54 -95.5t21 -93.5t101.5 -33t113.5 33t54 93.5 t-21 95.5t-101.5 35t-113.5 -35zM192 559q-39 -32 -48.5 -86.5t18 -89t95.5 -34.5t106 33.5t48 89.5q9 56 -18.5 87.5t-94.5 31.5t-106 -32z" />
<glyph unicode="9" d="M111 290.5q-43 51.5 -28 145t77.5 150.5t153.5 57t133.5 -55t27.5 -149.5t-54.5 -173.5t-91 -140t-137.5 -142l-65 11q114 106 165 167.5t84 133.5q-33 -28 -61.5 -42t-67.5 -14q-93 0 -136 51.5zM195.5 549q-43.5 -42 -55 -113.5t15.5 -108t92.5 -36.5t111.5 41t56 103 q24 156 -112 156q-65 0 -108.5 -42z" />
<glyph unicode=":" d="M200 303l13 102h87l-13 -102h-87zM160 0l13 102h87l-13 -102h-87z" />
<glyph unicode=";" d="M208 303l13 102h88l-14 -102h-87zM167 0l14 102h88l-10 -72q-13 -90 -96 -173l-23 24q51 65 62 119h-35z" />
<glyph unicode="&#x3c;" d="M464 502l-357 -210l298 -220l-30 -41l-327 245l4 32l391 235z" />
<glyph unicode="=" d="M33 207h426l-7 -44h-426zM56 375h426l-7 -44h-426z" />
<glyph unicode="&#x3e;" d="M45 82l355 210l-297 220l31 41l326 -245l-4 -32l-391 -235z" />
<glyph unicode="?" d="M136 0l12 93h80l-11 -93h-81zM418 539q-6 -58 -28 -93q-22 -36 -78 -86t-71 -72t-19 -56t-5 -65l-50 -2q-3 22 0 73q6 44 25 72q20 27 76 77t73 78t23 73t-20.5 72t-69.5 27t-78.5 -18.5t-85.5 -56.5l-24 41q59 44 101 65t88 21q69 0 110.5 -39.5t32.5 -110.5z" />
<glyph unicode="@" d="M360 87l55 366q-19 20 -98 20t-134 -69t-74.5 -198.5t18.5 -196t100 -66.5t147 27l5 -51q-84 -28 -160 -28q-96 0 -143 80.5t-23.5 235.5t94 236.5t179.5 81.5q47 0 83.5 -9.5t49.5 -19.5l13 -9l-66 -433q-60 -27 -139 -27q-124 0 -94 189q33 173 150 173q50 0 78 -11 l10 -4l-12 -50q-23 14 -82 14q-75 0 -90 -122q-14 -58 -3 -98t58 -40q36 0 66 6z" />
<glyph unicode="A" d="M434 0h-59l-17 151h-265l-66 -151h-57l293 655h96zM115 201h237l-43 407h-14z" />
<glyph unicode="B" d="M32 0l107 655h131q117 0 167.5 -38.5t35.5 -131.5q-9 -59 -38.5 -95t-86.5 -54q115 -28 105 -149q-9 -105 -75.5 -146t-187.5 -41h-158zM267 605h-84l-41 -246h114q68 0 110 33q44 32 54 96t-29 90.5t-124 26.5zM135 310l-43 -260h107q88 0 137.5 30t60.5 102t-31 100 t-117 28h-114z" />
<glyph unicode="C" d="M370 70l4 -51q-84 -28 -158 -28q-109 0 -150.5 80t-13.5 263q28 170 93 250.5t178 80.5q75 0 146 -25l-22 -132h-52l14 89q-38 16 -93 16q-82 0 -131.5 -68t-74.5 -211q-24 -155 6 -223t110 -68q57 0 144 27z" />
<glyph unicode="D" d="M16 0l108 655h131q146 0 191 -76t19 -252q-28 -194 -106 -263q-41 -36 -90.5 -50t-120.5 -14h-132zM249 605h-82l-91 -555h80q76 0 122 22q95 45 131 255q24 158 -11 218t-149 60z" />
<glyph unicode="E" d="M378 0h-327l108 655h322l-8 -50h-270l-41 -248h246l-8 -50h-246l-42 -257h274z" />
<glyph unicode="F" d="M95 0h-52l107 655h323l-8 -50h-271l-47 -286h232l-8 -50h-232z" />
<glyph unicode="G" d="M282 266l9 50h164l-47 -289q-106 -36 -184 -36q-116 0 -158.5 79.5t-14.5 257.5t96 257.5t192 79.5q81 0 165 -32l-22 -51q-86 31 -151 31q-94 0 -144.5 -66.5t-76.5 -218.5t4.5 -219.5t121.5 -65.5q59 1 127 23l33 200h-114z" />
<glyph unicode="H" d="M330 0l49 300h-265l-49 -300h-52l107 655h52l-50 -305h265l50 305h52l-107 -655h-52z" />
<glyph unicode="I" d="M305 605l-91 -555h107l-8 -50h-265l8 50h106l91 555h-109l8 50h264l-8 -50h-103z" />
<glyph unicode="J" d="M359 605l-63 -390q-22 -138 -50 -181.5t-109 -44.5q-17 0 -56.5 6t-55.5 11l16 52q61 -17 105 -17t61.5 30.5t36.5 146.5l63 387h-155l8 50h253l-8 -50h-46z" />
<glyph unicode="K" d="M412 655h60q-120 -200 -208 -318q22 -45 56 -129l81 -208h-63q-81 221 -122 307l-87 -10l-48 -297h-53l107 655h53l-51 -309l81 10q77 102 164 248z" />
<glyph unicode="L" d="M377 50l-7 -50h-313l106 655h53l-99 -605h260z" />
<glyph unicode="M" d="M389 0h-52l87 533l-148 -294h-67l-65 294l-88 -533h-53l109 655h55l79 -366h6l178 366h67z" />
<glyph unicode="N" d="M340 0l16 103l-212 455l-91 -558h-53l108 655h51l211 -460l76 460h52l-107 -655h-51z" />
<glyph unicode="O" d="M309 665q77 0 115.5 -43.5t40.5 -116.5t-12.5 -161.5t-32.5 -146.5t-48 -107q-60 -100 -179 -100q-75 0 -113 45t-40 121.5t14 179.5q26 159 84 244t171 85zM125 413.5q-8 -33.5 -16 -80.5t-12 -85t-2.5 -79t12 -67.5t34 -43.5t64 -17t75.5 24q34 23 56 69q39 80 60 202 q27 146 1 216q-10 26 -34.5 44t-62.5 18t-68 -18t-49.5 -43.5t-34.5 -65.5t-23 -73.5z" />
<glyph unicode="P" d="M198 242h-87l-41 -242h-51l107 655h139q114 0 161 -45.5t29 -157.5t-81 -161t-176 -49zM257 605h-87l-51 -313h87q88 0 134 36q46 37 60 124t-20 120t-123 33z" />
<glyph unicode="Q" d="M347 -73l-45 94q-48 -31 -116.5 -31t-106 45t-39.5 121.5t14 179.5q27 159 84.5 244t170.5 85q77 0 115.5 -42.5t40.5 -115.5t-13 -171q-33 -196 -107 -278l40 -88zM125 413.5q-8 -33.5 -17 -86.5t-12.5 -100t2.5 -93q13 -93 103 -93q41 0 74 22l-44 55l33 52l52 -67 q50 66 80 233q27 146 1 216q-10 26 -34.5 44t-62.5 18t-68 -18t-49.5 -43.5t-34.5 -65.5t-23 -73.5z" />
<glyph unicode="R" d="M265 271q-54 -3 -67 -3h-78l-45 -268h-51l106 655h140q116 0 164 -41.5t31 -147.5q-13 -71 -47 -113.5t-98 -69.5q44 -136 72 -283h-57q-29 143 -70 271zM261 605h-86l-47 -287h75q88 0 140 33t66 115t-22.5 110.5t-125.5 28.5z" />
<glyph unicode="S" d="M391.5 298.5q33.5 -38.5 23.5 -124t-70.5 -134.5t-146.5 -49q-65 0 -160 29l18 50q92 -28 151.5 -28t102 34.5t49.5 96.5t-17.5 91t-107 50.5t-117 63t-25 120.5t66.5 123t138.5 44t162.5 -31l-19 -50q-74 30 -140.5 30t-105.5 -30t-45.5 -85.5t19 -85t107.5 -53 t115.5 -62z" />
<glyph unicode="T" d="M307 605l-99 -605h-52l99 605h-163l8 50h380l-7 -50h-166z" />
<glyph unicode="U" d="M491 655l-76 -465q-17 -97 -73 -148t-148 -51t-129.5 53t-22.5 146l76 465h52l-75 -462q-27 -154 108 -154q67 0 107.5 42.5t52.5 111.5l76 462h52z" />
<glyph unicode="V" d="M79 655h54l69 -606h8l265 606h58l-289 -655h-95z" />
<glyph unicode="W" d="M490 655h58l-174 -655h-96l-30 316l-129 -316h-91l28 655h54l-27 -605h6l131 320h71l33 -320h6z" />
<glyph unicode="X" d="M244 288l-172 -288h-67l215 341l-100 314h65l80 -275h5l153 275h67l-195 -327l114 -328h-67l-93 288h-5z" />
<glyph unicode="Y" d="M222 283l-45 -283h-55l45 283l-133 372h61l106 -315h5l205 315h63z" />
<glyph unicode="Z" d="M466 655v-40l-369 -568h302l-6 -47h-360v40l367 567h-284l7 48h343z" />
<glyph unicode="[" d="M271 743l-139 -849h146l-12 -50h-194l155 949h193l-8 -50h-141z" />
<glyph unicode="\" d="M362 -41l-292 729l50 22l291 -729z" />
<glyph unicode="]" d="M221 -106l139 849h-147l11 50h196l-155 -949h-195l8 50h143z" />
<glyph unicode="_" d="M11 -128l6 43h472l-6 -43h-472z" />
<glyph unicode="`" d="M175 717l162 -98l-25 -43l-164 92z" />
<glyph unicode="a" d="M205 44q26 0 76 52.5t67 83.5l37 220q-54 28 -94 28q-87 0 -135 -76.5t-48 -171.5q0 -59 23 -97.5t74 -38.5zM206 -9q-77 0 -115.5 48t-38.5 134q0 109 56 203q28 46 75 75.5t107 29.5q19 0 50 -9.5t50 -19.5l6 20h53l-60 -362l2 -112l-50 -6l-8 101q-22 -38 -58 -70 t-69 -32z" />
<glyph unicode="b" d="M24 0l109 665h52l-39 -236q77 52 132 52q86 0 125 -61.5t26 -175.5t-73.5 -183.5t-150.5 -69.5q-26 0 -64.5 9.5t-57.5 19.5l-6 -20h-53zM358 380q-27 49 -88 49t-133 -57l-49 -300q18 -9 58 -19t63 -10q67 0 111 55.5t54.5 144t-16.5 137.5z" />
<glyph unicode="c" d="M358 320l17 99q-46 11 -73 11q-127 0 -158 -193q-14 -88 15 -141.5t98 -53.5q41 0 122 29l8 -50q-79 -30 -136 -30q-93 0 -134 65.5t-24 180.5q36 244 216 244q65 0 124 -21l-23 -140h-52z" />
<glyph unicode="d" d="M472 665l-95 -582l-2 -87l-50 -6l-2 53q-79 -52 -130 -52q-85 0 -124 66t-25.5 179.5t73 179t149.5 65.5q26 0 62.5 -8.5t56.5 -18.5l35 211h52zM114 96.5q27 -53.5 84 -53.5t129 57l49 300q-16 9 -54 19t-60 10q-67 0 -110.5 -51.5t-54 -139.5t16.5 -141.5z" />
<glyph unicode="e" d="M186 454q43 27 103.5 27t97 -32t36.5 -89t-43 -100t-123 -54l-127 -17q2 -75 26.5 -110.5t83.5 -35.5t140 29l9 -50q-81 -31 -155.5 -31t-116 50t-41.5 141q0 112 44 200q23 46 66 72zM133 236l117 17q60 9 90.5 38.5t30.5 67.5q0 74 -89 74q-69 0 -105.5 -56t-43.5 -141 z" />
<glyph unicode="f" d="M164 425h-90l8 50h89q22 198 163 198q46 0 99 -17l-18 -51q-52 16 -85 16q-89 0 -106 -146h168l-8 -50h-166q-27 -237 -53 -391t-39 -190l-13 -36h-53q5 10 14 39t36 186t54 392z" />
<glyph unicode="g" d="M329 -24l10 63q-66 -38 -117 -38q-85 0 -124 61q-40 62 -26 176t72.5 178.5t150.5 64.5q52 0 111 -35l5 29h52l-81 -498q-10 -89 -67.5 -133t-132.5 -44t-167 40l23 50q88 -38 144 -38t97 30t50 94zM348 97l49 293q-55 39 -106 39q-67 0 -111 -51q-44 -52 -54 -140 t17 -136.5t84 -48.5t121 44z" />
<glyph unicode="h" d="M161 388l-64 -388h-52l109 665h52l-37 -226q94 42 157 42t91.5 -43t19.5 -121l-55 -317h-50l55 317q6 51 -11.5 81.5t-69.5 30.5t-145 -41z" />
<glyph unicode="i" d="M231 616q4 42 49 42q17 0 28 -10t9 -32q-6 -45 -48 -45q-16 0 -28 11.5t-10 33.5zM365 2l-6 50q-42 -10 -66 -10q-51 0 -57 25t7 95l50 313h-172l-8 -50h120l-44 -265q-7 -57 -8 -95t23 -56.5t83 -18.5z" />
<glyph unicode="j" d="M371 475l-78 -485q-13 -78 -48 -118q-29 -33 -102 -48q-29 -6 -76 -12v47q89 12 125 39.5t47 92.5l72 434h-129l8 50h181zM306 616q4 42 49 42q17 0 28 -10t9 -32q-6 -45 -48 -45q-16 0 -28 11.5t-10 33.5z" />
<glyph unicode="k" d="M374 475h57q-82 -118 -176 -222q71 -131 130 -253h-60q-68 142 -112 221l-69 -9l-35 -212h-52l109 665h52l-66 -405l62 10q78 93 160 205z" />
<glyph unicode="l" d="M193 160l74 455h-129l7 50h182l-82 -503q-13 -70 -7 -95t52 -25t101 19l6 -50q-59 -21 -113 -21t-78 18.5t-23 56.5t10 95z" />
<glyph unicode="m" d="M119 475v-30q52 36 85 36q55 0 74 -43q58 43 98 43q65 0 82.5 -39.5t6.5 -123.5l-51 -318h-53l53 318q10 48 0.5 80.5t-47.5 32.5q-26 0 -78 -33q2 -38 -4 -80l-27 -166h-53l27 166q23 111 -44 111q-35 0 -79 -32l-66 -397h-52l78 475h50z" />
<glyph unicode="n" d="M175 475l-2 -40q98 46 159 46t90 -44t20 -120l-50 -317h-53l53 317q6 49 -12 81q-18 31 -66 31t-149 -44l-64 -385h-52l78 475h48z" />
<glyph unicode="o" d="M227 -10q-186 -2 -160 244q35 247 210 247q91 1 132 -60t28 -184q-35 -247 -210 -247zM370.5 379q-28.5 51 -94.5 51.5t-103 -50t-52.5 -144t13.5 -144.5t96 -50q122 0 154 194q15 92 -13.5 143z" />
<glyph unicode="p" d="M2 -192l95 581l2 87l51 6l2 -54q75 53 135 53q86 0 124 -64.5t25 -178t-80.5 -180.5t-161.5 -67q-50 0 -106 27l-34 -210h-52zM366.5 377q-25.5 52 -85 52t-135.5 -58l-49 -299q17 -10 48 -18.5t53 -8.5q69 0 121 52.5t62.5 140t-15 139.5z" />
<glyph unicode="q" d="M462 447l-104 -639h-52l38 234q-75 -51 -127 -51q-75 0 -116 52t-41 143q0 127 60 211t164 84t178 -34zM143 84q29 -41 81.5 -41t129.5 61l50 306q-19 8 -55 15.5t-62 7.5q-78 0 -125.5 -70t-47.5 -168q0 -70 29 -111z" />
<glyph unicode="r" d="M258 367l-60 -367h-52l69 425h-93l8 50h146l-10 -58q33 21 89 40.5t98 23.5l-7 -59q-39 -3 -98 -20t-90 -35z" />
<glyph unicode="s" d="M86 21l14 54q90 -33 143 -33t85 26t32 75q0 29 -21 46t-83 33t-95 44t-33 72q0 69 46 107t120 38t144 -28l-14 -51q-74 26 -126 26t-84.5 -23t-32.5 -55t23 -50q24 -16 88 -34t92.5 -45t28.5 -85t-46.5 -102.5t-121.5 -44.5t-159 30z" />
<glyph unicode="t" d="M147 160l43 258h-92l8 50h92l19 115l54 10l-21 -125h160l-8 -50h-160l-41 -256q-1 -12 -4 -31.5t-3.5 -27t-1.5 -20t1 -16.5l5 -11q7 -14 50.5 -14t97.5 19l6 -50q-58 -21 -112.5 -21t-78.5 18.5t-23.5 56.5t9.5 95z" />
<glyph unicode="u" d="M341 0l2 41q-95 -50 -157 -50t-93.5 44.5t-22.5 119.5l52 320h52l-52 -320q-6 -49 13.5 -80.5t65.5 -31.5t148 50l63 382h52l-78 -475h-45z" />
<glyph unicode="v" d="M94 475h57l62 -427h17l182 427h57l-206 -475h-95z" />
<glyph unicode="w" d="M438 475h49l-120 -475h-101l-24 207h-7l-74 -207h-100l4 475h49l-1 -427h17l92 241h54l35 -241h17z" />
<glyph unicode="x" d="M97 475h65l93 -196l136 196h64l-170 -234l122 -241h-64l-98 203l-144 -203h-65l181 241z" />
<glyph unicode="y" horiz-adv-x="455" d="M94 475h57l59 -404h5l179 404h56l-253 -556q-35 -76 -72.5 -99.5t-123.5 -25.5l6 51q56 2 85 18t49 61l28 69z" />
<glyph unicode="z" d="M118 425l8 50h306v-41l-299 -384h267l-8 -50h-326l-3 41l298 384h-243z" />
<glyph unicode="{" d="M178 323l79 -38q-11 -76 -32.5 -187t-27.5 -149q-8 -55 35 -55h98l-7 -50h-102q-94 0 -79 99q6 37 25.5 135.5t30.5 174.5l-76 50l5 45l94 50q13 86 22.5 178.5t12.5 117.5q15 99 109 99h102l-7 -50h-98q-45 0 -53 -55q-4 -29 -15 -133t-24 -189l-91 -38z" />
<glyph unicode="|" d="M358 743l-150 -987h-51l150 987h51z" />
<glyph unicode="}" d="M308 398l78 -50l-5 -45l-95 -50q-11 -72 -20.5 -170t-16.5 -140q-15 -99 -108 -99h-102l6 50h98q45 0 53 55q7 46 19 156t22 180l91 38l1 5l-79 38q12 81 32.5 183.5t25.5 138.5q8 55 -35 55h-98l8 50h102q93 0 78 -99q-5 -35 -23.5 -125.5t-31.5 -170.5z" />
<glyph unicode="~" d="M444 316l25 -30q-46 -41 -75.5 -59t-55.5 -18q-42 0 -94 38.5t-76 38.5q-36 0 -107 -62l-26 31q48 41 79 59q30 18 64 18t84 -38.5t81 -38.5t101 61z" />
<glyph unicode="&#xa0;" />
<glyph unicode="&#xa1;" d="M158 -193l93 500h46l-75 -500h-64zM337 501l-13 -86h-69l13 86h69z" />
<glyph unicode="&#xa3;" d="M154 51h293l-8 -51h-407l8 51q58 1 73.5 38.5t49.5 228.5h-81l8 50h72q1 69 6.5 134.5t38 106.5t81.5 55q97 28 206 -6l-18 -53q-74 27 -152 11q-38 -8 -66 -36t-34 -75q-4 -22 -6 -137h188l-8 -50h-177q-23 -130 -29 -165q-15 -75 -38 -102z" />
<glyph unicode="&#xa5;" d="M248 323l-51 -323h-55l51 323l-141 332h59l113 -281h2l201 281h65zM19 218h369l-8 -50h-369zM41 361h369l-8 -50h-369z" />
<glyph unicode="&#xa8;" d="M162 610q-31 0 -31 34q0 16 12 28t28.5 12t24.5 -9t8 -24.5t-12 -28t-30 -12.5zM332.5 619q-8.5 9 -8.5 24.5t12.5 28t28.5 12.5t24.5 -9t8.5 -24.5t-12.5 -28t-28.5 -12.5t-24.5 9z" />
<glyph unicode="&#xab;" d="M278 25l-166 171l6 49l221 171l-11 -70l-166 -129l126 -128zM432 47l-167 161l6 45l219 161l-11 -70l-164 -117l128 -116z" />
<glyph unicode="&#xad;" d="M104 265h286l-9 -52h-286z" />
<glyph unicode="&#xb0;" d="M354.5 660q33.5 -33 33.5 -89t-48 -100.5t-106.5 -44.5t-92 33t-33.5 89t48.5 100.5t106.5 44.5t91.5 -33zM318 622q-20 26 -57.5 27t-65 -24t-32.5 -63.5t15.5 -64t57.5 -26.5t64.5 23.5t32.5 63t-15 64.5z" />
<glyph unicode="&#xb1;" d="M500 300h-210l-24 -152h-50l24 152h-210l7 43h210l25 161h50l-25 -161h210zM461 54h-470l7 42h470z" />
<glyph unicode="&#xb4;" d="M152 622l164 98l18 -54l-165 -92z" />
<glyph unicode="&#xb5;" d="M57 -49l81 524h55l-51 -321q-8 -54 8.5 -84.5t80.5 -30.5t144 66l60 370h53l-75 -475h-51l5 46q-31 -26 -72.5 -41t-78.5 -15q-74 0 -97 43l-11 -85q-14 -86 -55 -140l-39 19q23 41 30.5 67t12.5 57z" />
<glyph unicode="&#xb6;" d="M345 0h-35l135 700h35zM185 0h-35l51 264q-96 7 -140.5 42.5t-44.5 114.5q0 146 62.5 212.5t217.5 66.5h24zM207 296l72 372q-131 -2 -179.5 -54t-48.5 -187q0 -67 37 -96t119 -35z" />
<glyph unicode="&#xb8;" d="M253 -57q80 0 80 -82q0 -44 -31 -73.5t-78 -29.5q-25 0 -62 7l12 43q18 -5 46 -5q62 0 62 59q0 37 -47 37q-17 0 -44 -5l1 41q32 8 61 8z" />
<glyph unicode="&#xbb;" d="M296 434l165 -171l-7 -52l-220 -171l11 72l165 127l-125 130zM140 412l167 -161l-7 -48l-219 -161l12 72l163 115l-127 118z" />
<glyph unicode="&#xbf;" d="M370 490l-12 -93h-80l11 93h81zM88 -49q6 58 28 93q22 36 78 86t71 72t19 56t5 65l50 2q3 -22 0 -73q-6 -44 -25 -72q-20 -27 -76 -77t-73 -78t-23 -73t20.5 -72t69.5 -27t78.5 18.5t85.5 56.5l24 -41q-59 -44 -101 -65t-88 -21q-69 0 -110.5 39.5t-32.5 110.5z" />
<glyph unicode="&#xc0;" d="M434 0h-59l-17 151h-265l-66 -151h-57l293 655h96zM115 201h237l-43 407h-14zM257 942l162 -98l-25 -43l-164 92z" />
<glyph unicode="&#xc1;" d="M434 0h-59l-17 151h-265l-66 -151h-57l293 655h96zM115 201h237l-43 407h-14zM218 847l164 98l18 -54l-165 -92z" />
<glyph unicode="&#xc2;" d="M434 0h-59l-17 151h-265l-66 -151h-57l293 655h96zM115 201h237l-43 407h-14zM165 812l153 162h45l102 -162h-58l-74 122l-111 -122h-57z" />
<glyph unicode="&#xc3;" d="M434 0h-59l-17 151h-265l-66 -151h-57l293 655h96zM115 201h237l-43 407h-14zM451 919l20 -33q-61 -55 -94 -55t-66 27t-55 27t-73 -41l-23 34q66 54 102 54t70 -26.5t52 -26.5t67 40z" />
<glyph unicode="&#xc4;" d="M434 0h-59l-17 151h-265l-66 -151h-57l293 655h96zM115 201h237l-43 407h-14zM228 835q-31 -1 -31 33q0 16 12 28.5t28.5 12.5t24.5 -9t8 -24.5t-12 -28t-30 -12.5zM398.5 844q-8.5 9 -8.5 24.5t12.5 28t28.5 12.5t24.5 -9t8.5 -24.5t-12.5 -28t-28.5 -12.5t-24.5 9z" />
<glyph unicode="&#xc5;" d="M434 0h-59l-17 151h-265l-66 -151h-57l293 655h96zM115 201h237l-43 407h-14zM411.5 932.5q24.5 -21.5 24.5 -65.5t-34 -74t-81.5 -30t-72 21.5t-24.5 65t33.5 74t81.5 30.5t72.5 -21.5zM266 848q0 -47 54 -47q33 0 52.5 18t19.5 49q0 47 -54 47q-33 0 -52.5 -18 t-19.5 -49z" />
<glyph unicode="&#xc6;" d="M451 0h-237l27 151h-148l-69 -151h-58l295 655h302l-8 -48h-174l-44 -250h147l-9 -48h-147l-45 -261h177zM116 201h134l76 407h-31z" />
<glyph unicode="&#xc7;" d="M370 70l4 -51q-84 -28 -158 -28q-109 0 -150.5 80t-13.5 263q28 170 93 250.5t178 80.5q75 0 146 -25l-22 -132h-52l14 89q-38 16 -93 16q-82 0 -131.5 -68t-74.5 -211q-24 -155 6 -223t110 -68q57 0 144 27zM195 -57q80 0 80 -82q0 -44 -31 -73.5t-78 -29.5q-25 0 -62 7 l12 43q18 -5 46 -5q62 0 62 59q0 37 -47 37q-17 0 -44 -5l1 41q32 8 61 8z" />
<glyph unicode="&#xc8;" d="M378 0h-327l108 655h322l-8 -50h-270l-41 -248h246l-8 -50h-246l-42 -257h274zM262 942l162 -98l-25 -43l-164 92z" />
<glyph unicode="&#xc9;" d="M378 0h-327l108 655h322l-8 -50h-270l-41 -248h246l-8 -50h-246l-42 -257h274zM228 847l164 98l18 -54l-165 -92z" />
<glyph unicode="&#xca;" d="M378 0h-327l108 655h322l-8 -50h-270l-41 -248h246l-8 -50h-246l-42 -257h274zM175 812l153 162h45l102 -162h-58l-74 122l-111 -122h-57z" />
<glyph unicode="&#xcb;" d="M378 0h-327l108 655h322l-8 -50h-270l-41 -248h246l-8 -50h-246l-42 -257h274zM228 835q-31 -1 -31 33q0 16 12 28.5t28.5 12.5t24.5 -9t8 -24.5t-12 -28t-30 -12.5zM398.5 844q-8.5 9 -8.5 24.5t12.5 28t28.5 12.5t24.5 -9t8.5 -24.5t-12.5 -28t-28.5 -12.5t-24.5 9z " />
<glyph unicode="&#xcc;" d="M305 605l-91 -555h107l-8 -50h-265l8 50h106l91 555h-109l8 50h264l-8 -50h-103zM232 942l162 -98l-25 -43l-164 92z" />
<glyph unicode="&#xcd;" d="M305 605l-91 -555h107l-8 -50h-265l8 50h106l91 555h-109l8 50h264l-8 -50h-103zM208 847l164 98l18 -54l-165 -92z" />
<glyph unicode="&#xce;" d="M305 605l-91 -555h107l-8 -50h-265l8 50h106l91 555h-109l8 50h264l-8 -50h-103zM155 812l153 162h45l102 -162h-58l-74 122l-111 -122h-57z" />
<glyph unicode="&#xcf;" d="M305 605l-91 -555h107l-8 -50h-265l8 50h106l91 555h-109l8 50h264l-8 -50h-103zM208 835q-31 -1 -31 33q0 16 12 28.5t28.5 12.5t24.5 -9t8 -24.5t-12 -28t-30 -12.5zM378.5 844q-8.5 9 -8.5 24.5t12.5 28t28.5 12.5t24.5 -9t8.5 -24.5t-12.5 -28t-28.5 -12.5t-24.5 9z " />
<glyph unicode="&#xd1;" d="M340 0l16 103l-212 455l-91 -558h-53l108 655h51l211 -460l76 460h52l-107 -655h-51zM446 919l20 -33q-61 -55 -94 -55t-66 27t-55 27t-73 -41l-23 34q65 54 101 54t70 -26.5t52 -26.5t68 40z" />
<glyph unicode="&#xd2;" d="M309 665q77 0 115.5 -43.5t40.5 -116.5t-12.5 -161.5t-32.5 -146.5t-48 -107q-60 -100 -179 -100q-75 0 -113 45t-40 121.5t14 179.5q26 159 84 244t171 85zM125 413.5q-8 -33.5 -16 -80.5t-12 -85t-2.5 -79t12 -67.5t34 -43.5t64 -17t75.5 24q34 23 56 69q39 80 60 202 q27 146 1 216q-10 26 -34.5 44t-62.5 18t-68 -18t-49.5 -43.5t-34.5 -65.5t-23 -73.5zM262 942l162 -98l-25 -43l-164 92z" />
<glyph unicode="&#xd3;" d="M309 665q77 0 115.5 -43.5t40.5 -116.5t-12.5 -161.5t-32.5 -146.5t-48 -107q-60 -100 -179 -100q-75 0 -113 45t-40 121.5t14 179.5q26 159 84 244t171 85zM125 413.5q-8 -33.5 -16 -80.5t-12 -85t-2.5 -79t12 -67.5t34 -43.5t64 -17t75.5 24q34 23 56 69q39 80 60 202 q27 146 1 216q-10 26 -34.5 44t-62.5 18t-68 -18t-49.5 -43.5t-34.5 -65.5t-23 -73.5zM238 847l164 98l18 -54l-165 -92z" />
<glyph unicode="&#xd4;" d="M309 665q77 0 115.5 -43.5t40.5 -116.5t-12.5 -161.5t-32.5 -146.5t-48 -107q-60 -100 -179 -100q-75 0 -113 45t-40 121.5t14 179.5q26 159 84 244t171 85zM125 413.5q-8 -33.5 -16 -80.5t-12 -85t-2.5 -79t12 -67.5t34 -43.5t64 -17t75.5 24q34 23 56 69q39 80 60 202 q27 146 1 216q-10 26 -34.5 44t-62.5 18t-68 -18t-49.5 -43.5t-34.5 -65.5t-23 -73.5zM180 812l153 162h45l102 -162h-58l-74 122l-111 -122h-57z" />
<glyph unicode="&#xd5;" d="M309 665q77 0 115.5 -43.5t40.5 -116.5t-12.5 -161.5t-32.5 -146.5t-48 -107q-60 -100 -179 -100q-75 0 -113 45t-40 121.5t14 179.5q26 159 84 244t171 85zM125 413.5q-8 -33.5 -16 -80.5t-12 -85t-2.5 -79t12 -67.5t34 -43.5t64 -17t75.5 24q34 23 56 69q39 80 60 202 q27 146 1 216q-10 26 -34.5 44t-62.5 18t-68 -18t-49.5 -43.5t-34.5 -65.5t-23 -73.5zM461 919l20 -33q-61 -55 -94 -55t-66 27t-55 27t-73 -41l-23 34q65 54 101.5 54t70.5 -26.5t51.5 -26.5t67.5 40z" />
<glyph unicode="&#xd6;" d="M309 665q77 0 115.5 -43.5t40.5 -116.5t-12.5 -161.5t-32.5 -146.5t-48 -107q-60 -100 -179 -100q-75 0 -113 45t-40 121.5t14 179.5q26 159 84 244t171 85zM125 413.5q-8 -33.5 -16 -80.5t-12 -85t-2.5 -79t12 -67.5t34 -43.5t64 -17t75.5 24q34 23 56 69q39 80 60 202 q27 146 1 216q-10 26 -34.5 44t-62.5 18t-68 -18t-49.5 -43.5t-34.5 -65.5t-23 -73.5zM232 835q-31 -1 -31 33q0 16 12 28.5t28.5 12.5t24.5 -9t8 -24.5t-12 -28t-30 -12.5zM402.5 844q-8.5 9 -8.5 24.5t12.5 28t28.5 12.5t24.5 -9t8.5 -24.5t-12.5 -28t-28.5 -12.5t-24.5 9 z" />
<glyph unicode="&#xd9;" d="M491 655l-76 -465q-17 -97 -73 -148t-148 -51t-129.5 53t-22.5 146l76 465h52l-75 -462q-27 -154 108 -154q67 0 107.5 42.5t52.5 111.5l76 462h52zM252 942l162 -98l-25 -43l-164 92z" />
<glyph unicode="&#xda;" d="M491 655l-76 -465q-17 -97 -73 -148t-148 -51t-129.5 53t-22.5 146l76 465h52l-75 -462q-27 -154 108 -154q67 0 107.5 42.5t52.5 111.5l76 462h52zM238 847l164 98l18 -54l-165 -92z" />
<glyph unicode="&#xdb;" d="M491 655l-76 -465q-17 -97 -73 -148t-148 -51t-129.5 53t-22.5 146l76 465h52l-75 -462q-27 -154 108 -154q67 0 107.5 42.5t52.5 111.5l76 462h52zM167 812l153 162h45l102 -162h-58l-74 122l-111 -122h-57z" />
<glyph unicode="&#xdc;" d="M491 655l-76 -465q-17 -97 -73.5 -148t-148 -51t-129 53t-22.5 146l76 465h52l-75 -462q-27 -154 108 -154q67 0 107.5 42.5t52.5 111.5l76 462h52zM218 835q-31 -1 -31 33q0 16 12 28.5t28.5 12.5t24.5 -9t8 -24.5t-12 -28t-30 -12.5zM388.5 844q-8.5 9 -8.5 24.5 t12.5 28t28.5 12.5t24.5 -9t8.5 -24.5t-12.5 -28t-28.5 -12.5t-24.5 9z" />
<glyph unicode="&#xe0;" d="M205 44q26 0 76 52.5t67 83.5l37 220q-54 28 -94 28q-87 0 -135 -76.5t-48 -171.5q0 -59 23 -97.5t74 -38.5zM206 -9q-77 0 -115.5 48t-38.5 134q0 109 56 203q28 46 75 75.5t107 29.5q19 0 50 -9.5t50 -19.5l6 20h53l-60 -362l2 -112l-50 -6l-8 101q-22 -38 -58 -70 t-69 -32zM242 717l162 -98l-25 -43l-164 92z" />
<glyph unicode="&#xe1;" d="M205 44q26 0 76 52.5t67 83.5l37 220q-54 28 -94 28q-87 0 -135 -76.5t-48 -171.5q0 -59 23 -97.5t74 -38.5zM206 -9q-77 0 -115.5 48t-38.5 134q0 109 56 203q28 46 75 75.5t107 29.5q19 0 50 -9.5t50 -19.5l6 20h53l-60 -362l2 -112l-50 -6l-8 101q-22 -38 -58 -70 t-69 -32zM213 622l164 98l18 -54l-165 -92z" />
<glyph unicode="&#xe2;" d="M205 44q26 0 76 52.5t67 83.5l37 220q-54 28 -94 28q-87 0 -135 -76.5t-48 -171.5q0 -59 23 -97.5t74 -38.5zM206 -9q-77 0 -115.5 48t-38.5 134q0 109 56 203q28 46 75 75.5t107 29.5q19 0 50 -9.5t50 -19.5l6 20h53l-60 -362l2 -112l-50 -6l-8 101q-22 -38 -58 -70 t-69 -32zM155 587l153 162h45l102 -162h-58l-74 122l-111 -122h-57z" />
<glyph unicode="&#xe3;" d="M205 44q26 0 76 52.5t67 83.5l37 220q-54 28 -94 28q-87 0 -135 -76.5t-48 -171.5q0 -59 23 -97.5t74 -38.5zM206 -9q-77 0 -115.5 48t-38.5 134q0 109 56 203q28 46 75 75.5t107 29.5q19 0 50 -9.5t50 -19.5l6 20h53l-60 -362l2 -112l-50 -6l-8 101q-22 -38 -58 -70 t-69 -32zM451 694l20 -33q-61 -55 -94 -55t-66 27t-55 27t-73 -41l-23 34q65 54 101.5 54t70.5 -26.5t51.5 -26.5t67.5 40z" />
<glyph unicode="&#xe4;" d="M205 44q26 0 76 52.5t67 83.5l37 220q-54 28 -94 28q-87 0 -135 -76.5t-48 -171.5q0 -59 23 -97.5t74 -38.5zM206 -9q-77 0 -115.5 48t-38.5 134q0 109 56 203q28 46 75 75.5t107 29.5q19 0 50 -9.5t50 -19.5l6 20h53l-60 -362l2 -112l-50 -6l-8 101q-22 -38 -58 -70 t-69 -32zM218 610q-31 0 -31 34q0 16 12 28t28.5 12t24.5 -9t8 -24.5t-12 -28t-30 -12.5zM388.5 619q-8.5 9 -8.5 24.5t12.5 28t28.5 12.5t24.5 -9t8.5 -24.5t-12.5 -28t-28.5 -12.5t-24.5 9z" />
<glyph unicode="&#xe5;" d="M205 44q26 0 76 52.5t67 83.5l37 220q-54 28 -94 28q-87 0 -135 -76.5t-48 -171.5q0 -59 23 -97.5t74 -38.5zM206 -9q-77 0 -115.5 48t-38.5 134q0 109 56 203q28 46 75 75.5t107 29.5q19 0 50 -9.5t50 -19.5l6 20h53l-60 -362l2 -112l-50 -6l-8 101q-22 -38 -58 -70 t-69 -32zM406.5 722.5q24.5 -21.5 24.5 -65.5t-34 -74t-81.5 -30t-72 21.5t-24.5 65t33.5 74t81.5 30.5t72.5 -21.5zM261 638q0 -47 54 -47q33 0 52.5 18t19.5 49q0 47 -54 47q-33 0 -52.5 -18t-19.5 -49z" />
<glyph unicode="&#xe6;" d="M133 -10q-45 0 -70.5 30.5t-25.5 83.5q0 75 44.5 120t117.5 45h65q16 84 11 119t-48 35t-113 -31l-10 48q77 35 125.5 35t68 -13t25.5 -46q16 28 44.5 46t63.5 18q70 0 92 -50.5t5 -160.5l-12 -52h-203q-5 -41 -5.5 -88t16 -67.5t53.5 -20.5q25 1 81 17l18 5l7 -48 q-69 -25 -114 -25t-68 12.5t-36 47.5q-42 -60 -132 -60zM242 92l12 126h-63q-46 0 -71.5 -28t-25.5 -80q0 -69 52 -69q25 0 49 13q23 12 35 25zM474.5 386q-9.5 42 -52 42t-62.5 -36t-36 -125h146q14 77 4.5 119z" />
<glyph unicode="&#xe7;" d="M358 320l17 99q-46 11 -73 11q-127 0 -158 -193q-14 -88 15 -141.5t98 -53.5q41 0 122 29l8 -50q-79 -30 -136 -30q-93 0 -134 65.5t-24 180.5q36 244 216 244q65 0 124 -21l-23 -140h-52zM225 -57q80 0 80 -82q0 -44 -31 -73.5t-78 -29.5q-25 0 -62 7l12 43q18 -5 46 -5 q62 0 62 59q0 37 -47 37q-17 0 -44 -5l1 41q32 8 61 8z" />
<glyph unicode="&#xe8;" d="M186 454q43 27 103.5 27t97 -32t36.5 -89t-43 -100t-123 -54l-127 -17q2 -75 26.5 -110.5t83.5 -35.5t140 29l9 -50q-81 -31 -155.5 -31t-116 50t-41.5 141q0 112 44 200q23 46 66 72zM133 236l117 17q60 9 90.5 38.5t30.5 67.5q0 74 -89 74q-69 0 -105.5 -56t-43.5 -141 zM232 717l162 -98l-25 -43l-164 92z" />
<glyph unicode="&#xe9;" d="M186 454q43 27 103.5 27t97 -32t36.5 -89t-43 -100t-123 -54l-127 -17q2 -75 26.5 -110.5t83.5 -35.5t140 29l9 -50q-81 -31 -155.5 -31t-116 50t-41.5 141q0 112 44 200q23 46 66 72zM133 236l117 17q60 9 90.5 38.5t30.5 67.5q0 74 -89 74q-69 0 -105.5 -56t-43.5 -141 zM193 622l164 98l18 -54l-165 -92z" />
<glyph unicode="&#xea;" d="M186 454q43 27 103.5 27t97 -32t36.5 -89t-43 -100t-123 -54l-127 -17q2 -75 26.5 -110.5t83.5 -35.5t140 29l9 -50q-81 -31 -155.5 -31t-116 50t-41.5 141q0 112 44 200q23 46 66 72zM133 236l117 17q60 9 90.5 38.5t30.5 67.5q0 74 -89 74q-69 0 -105.5 -56t-43.5 -141 zM150 587l153 162h45l102 -162h-58l-74 122l-111 -122h-57z" />
<glyph unicode="&#xeb;" d="M186 454q43 27 103.5 27t97 -32t36.5 -89t-43 -100t-123 -54l-127 -17q2 -75 26.5 -110.5t83.5 -35.5t140 29l9 -50q-81 -31 -155.5 -31t-116 50t-41.5 141q0 112 44 200q23 46 66 72zM133 236l117 17q60 9 90.5 38.5t30.5 67.5q0 74 -89 74q-69 0 -105.5 -56t-43.5 -141 zM198 610q-31 0 -31 34q0 16 12 28t28.5 12t24.5 -9t8 -24.5t-12 -28t-30 -12.5zM368.5 619q-8.5 9 -8.5 24.5t12.5 28t28.5 12.5t24.5 -9t8.5 -24.5t-12.5 -28t-28.5 -12.5t-24.5 9z" />
<glyph unicode="&#xec;" d="M365 2l-6 50q-42 -10 -66 -10q-51 0 -57 25t7 95l50 313h-172l-8 -50h120l-44 -265q-7 -57 -8 -95t23 -56.5t83 -18.5zM172 717l162 -98l-25 -43l-164 92z" />
<glyph unicode="&#xed;" d="M365 2l-6 50q-42 -10 -66 -10q-51 0 -57 25t7 95l50 313h-172l-8 -50h120l-44 -265q-7 -57 -8 -95t23 -56.5t83 -18.5zM153 622l164 98l18 -54l-165 -92z" />
<glyph unicode="&#xee;" d="M365 2l-6 50q-42 -10 -66 -10q-51 0 -57 25t7 95l50 313h-172l-8 -50h120l-44 -265q-7 -57 -8 -95t23 -56.5t83 -18.5zM85 587l153 162h45l102 -162h-58l-74 122l-111 -122h-57z" />
<glyph unicode="&#xef;" d="M365 2l-6 50q-42 -10 -66 -10q-51 0 -57 25t7 95l50 313h-172l-8 -50h120l-44 -265q-7 -57 -8 -95t23 -56.5t83 -18.5zM138 610q-31 0 -31 34q0 16 12 28t28.5 12t24.5 -9t8 -24.5t-12 -28t-30 -12.5zM308.5 619q-8.5 9 -8.5 24.5t12.5 28t28.5 12.5t24.5 -9t8.5 -24.5 t-12.5 -28t-28.5 -12.5t-24.5 9z" />
<glyph unicode="&#xf1;" d="M175 475l-2 -40q98 46 159 46t90 -44t20 -120l-50 -317h-53l53 317q6 49 -12 81q-18 31 -66 31t-149 -44l-64 -385h-52l78 475h48zM441 694l20 -33q-61 -55 -94 -55t-66 27t-55 27t-73 -41l-23 34q66 54 102 54t70 -26.5t52 -26.5t67 40z" />
<glyph unicode="&#xf2;" d="M227 -10q-186 -2 -160 244q35 247 210 247q91 1 132 -60t28 -184q-35 -247 -210 -247zM370.5 379q-28.5 51 -94.5 51.5t-103 -50t-52.5 -144t13.5 -144.5t96 -50q122 0 154 194q15 92 -13.5 143zM232 717l162 -98l-25 -43l-164 92z" />
<glyph unicode="&#xf3;" d="M227 -10q-186 -2 -160 244q35 247 210 247q91 1 132 -60t28 -184q-35 -247 -210 -247zM370.5 379q-28.5 51 -94.5 51.5t-103 -50t-52.5 -144t13.5 -144.5t96 -50q122 0 154 194q15 92 -13.5 143zM203 622l164 98l18 -54l-165 -92z" />
<glyph unicode="&#xf4;" d="M227 -10q-186 -2 -160 244q35 247 210 247q91 1 132 -60t28 -184q-35 -247 -210 -247zM370.5 379q-28.5 51 -94.5 51.5t-103 -50t-52.5 -144t13.5 -144.5t96 -50q122 0 154 194q15 92 -13.5 143zM145 587l153 162h45l102 -162h-58l-74 122l-111 -122h-57z" />
<glyph unicode="&#xf5;" d="M227 -10q-186 -2 -160 244q35 247 210 247q91 1 132 -60t28 -184q-35 -247 -210 -247zM370.5 379q-28.5 51 -94.5 51.5t-103 -50t-52.5 -144t13.5 -144.5t96 -50q122 0 154 194q15 92 -13.5 143zM440 694l20 -33q-61 -55 -94 -55t-66 27t-55 27t-73 -41l-23 34 q65 54 101 54t70 -26.5t52 -26.5t68 40z" />
<glyph unicode="&#xf6;" d="M227 -10q-186 -2 -160 244q35 247 210 247q91 1 132 -60t28 -184q-35 -247 -210 -247zM370.5 379q-28.5 51 -94.5 51.5t-103 -50t-52.5 -144t13.5 -144.5t96 -50q122 0 154 194q15 92 -13.5 143zM208 610q-31 0 -31 34q0 16 12 28t28.5 12t24.5 -9t8 -24.5t-12 -28 t-30 -12.5zM378.5 619q-8.5 9 -8.5 24.5t12.5 28t28.5 12.5t24.5 -9t8.5 -24.5t-12.5 -28t-28.5 -12.5t-24.5 9z" />
<glyph unicode="&#xf7;" d="M181 124q0 58 50 58q34 0 34 -36q0 -28 -11 -41t-37 -13q-36 0 -36 32zM226 408q0 57 50 57q34 0 34 -36q0 -54 -49 -54q-35 0 -35 33zM39 307l-8 -46h430l8 46h-430z" />
<glyph unicode="&#xf9;" d="M341 0l2 41q-95 -50 -157 -50t-93.5 44.5t-22.5 119.5l52 320h52l-52 -320q-6 -49 13.5 -80.5t65.5 -31.5t148 50l63 382h52l-78 -475h-45zM239 717l162 -98l-25 -43l-164 92z" />
<glyph unicode="&#xfa;" d="M341 0l2 41q-95 -50 -157 -50t-93.5 44.5t-22.5 119.5l52 320h52l-52 -320q-6 -49 13.5 -80.5t65.5 -31.5t148 50l63 382h52l-78 -475h-45zM213 622l164 98l18 -54l-165 -92z" />
<glyph unicode="&#xfb;" d="M341 0l2 41q-95 -50 -157 -50t-93.5 44.5t-22.5 119.5l52 320h52l-52 -320q-6 -49 13.5 -80.5t65.5 -31.5t148 50l63 382h52l-78 -475h-45zM151 587l153 162h45l102 -162h-58l-74 122l-111 -122h-57z" />
<glyph unicode="&#xfc;" d="M341 0l2 41q-96 -50 -157.5 -50t-93 44.5t-22.5 119.5l52 320h52l-52 -320q-6 -49 13.5 -80.5t65.5 -31.5t148 50l63 382h52l-78 -475h-45zM208 610q-31 0 -31 34q0 16 12 28t28.5 12t24.5 -9t8 -24.5t-12 -28t-30 -12.5zM378.5 619q-8.5 9 -8.5 24.5t12.5 28t28.5 12.5 t24.5 -9t8.5 -24.5t-12.5 -28t-28.5 -12.5t-24.5 9z" />
<glyph unicode="&#xff;" horiz-adv-x="455" d="M94 475h57l59 -404h5l179 404h56l-253 -556q-35 -76 -72.5 -99.5t-123.5 -25.5l6 51q56 2 85 18t49 61l28 69zM185 610q-31 0 -31 34q0 16 12 28t28.5 12t24.5 -9t8 -24.5t-12 -28t-30 -12.5zM355.5 619q-8.5 9 -8.5 24.5t12.5 28t28.5 12.5t24.5 -9t8.5 -24.5t-12.5 -28 t-28.5 -12.5t-24.5 9z" />
<glyph unicode="&#x152;" d="M302 655h220l-8 -48h-154l-39 -250h127l-8 -48h-127l-41 -261h157l-8 -48h-223q-97 0 -153 72q-58 74 -34 260q54 327 291 323zM305 605q-186 6 -236 -273q-23 -149 17.5 -217t119.5 -66h11z" />
<glyph unicode="&#x153;" d="M181 481q25 0 43.5 -10t27 -22.5t14.5 -28.5q6 -19 6 -36l2 10q2 6 10.5 23t20 30t34 23.5t49.5 10.5q69 0 92 -53.5t8 -160.5l-11 -50h-206q-13 -174 76 -174q33 1 78 17l15 5l8 -50q-63 -24 -99.5 -24t-57.5 10t-31 23q-12 14 -18 32q-8 23 -8 45q-1 -7 -3 -13l-5 -15 q-8 -30 -34 -54q-31 -29 -84 -29t-76.5 39.5t-23.5 119t19 154t60 126.5t94 52zM92.5 336.5q-32.5 -90.5 -32.5 -193.5t59 -103q47 0 78 92.5t31 193.5q0 51 -12.5 76t-43.5 25q-47 0 -79.5 -90.5zM296 350q-8 -26 -10 -40l-7 -43h152q13 77 2 119.5t-51.5 42.5t-60 -25.5 t-25.5 -53.5z" />
<glyph unicode="&#x178;" d="M222 283l-45 -283h-55l45 283l-133 372h61l106 -315h5l205 315h63zM163 835q-31 -1 -31 33q0 16 12 28.5t28.5 12.5t24.5 -9t8 -24.5t-12 -28t-30 -12.5zM333.5 844q-8.5 9 -8.5 24.5t12.5 28t28.5 12.5t24.5 -9t8.5 -24.5t-12.5 -28t-28.5 -12.5t-24.5 9z" />
<glyph unicode="&#x2c6;" d="M101 587l153 162h45l102 -162h-58l-74 122l-111 -122h-57z" />
<glyph unicode="&#x2dc;" d="M390 694l20 -33q-61 -55 -94 -55t-66 27t-55 27t-73 -41l-23 34q65 54 101 54t70 -26.5t52 -26.5t68 40z" />
<glyph unicode="&#x2000;" horiz-adv-x="487" />
<glyph unicode="&#x2001;" horiz-adv-x="974" />
<glyph unicode="&#x2002;" horiz-adv-x="487" />
<glyph unicode="&#x2003;" horiz-adv-x="974" />
<glyph unicode="&#x2004;" horiz-adv-x="324" />
<glyph unicode="&#x2005;" horiz-adv-x="243" />
<glyph unicode="&#x2006;" horiz-adv-x="162" />
<glyph unicode="&#x2007;" horiz-adv-x="162" />
<glyph unicode="&#x2008;" horiz-adv-x="121" />
<glyph unicode="&#x2009;" horiz-adv-x="194" />
<glyph unicode="&#x200a;" horiz-adv-x="54" />
<glyph unicode="&#x2010;" d="M104 265h286l-9 -52h-286z" />
<glyph unicode="&#x2011;" d="M104 265h286l-9 -52h-286z" />
<glyph unicode="&#x2012;" d="M104 265h286l-9 -52h-286z" />
<glyph unicode="&#x2013;" horiz-adv-x="705" d="M110 265h485l-15 -52h-485z" />
<glyph unicode="&#x2014;" horiz-adv-x="1205" d="M126 265h969l-31 -52h-969z" />
<glyph unicode="&#x2018;" d="M340 661l-91 -207l-61 17l111 201z" />
<glyph unicode="&#x2019;" d="M189 472l91 207l61 -17l-112 -201z" />
<glyph unicode="&#x201c;" d="M398 656l-91 -207l-61 17l112 201zM258 674l-91 -207l-61 17l111 201z" />
<glyph unicode="&#x201d;" d="M117 475l91 207l61 -17l-112 -201zM257 457l91 207l61 -17l-111 -201z" />
<glyph unicode="&#x2026;" d="M57 0l13 81h69l-13 -81h-69zM210 0l13 81h69l-13 -81h-69zM364 0l13 81h69l-13 -81h-69z" />
<glyph unicode="&#x202f;" horiz-adv-x="194" />
<glyph unicode="&#x2039;" d="M305 39l-166 167l6 47l220 167l-10 -68l-166 -122l126 -127z" />
<glyph unicode="&#x203a;" d="M193 417l166 -167l-6 -47l-220 -167l10 67l165 123l-125 126z" />
<glyph unicode="&#x205f;" horiz-adv-x="243" />
<glyph unicode="&#x20ac;" d="M13 285h349l-7 -44h-349zM32 404h349l-7 -44h-349zM401 69l4 -51q-33 -11 -87.5 -19.5t-90.5 -8.5q-110 0 -151 75.5t-13 257.5q28 168 92.5 244.5t178.5 76.5q93 0 160 -26l-23 -51q-19 8 -69 16.5t-75 8.5q-83 0 -132 -63.5t-74 -205.5q-24 -154 5.5 -217.5 t108.5 -63.5t166 27z" />
<glyph unicode="&#x2122;" d="M6 551l8 39h172l-8 -39h-42l-50 -258h-48l50 258h-82zM494 590l-58 -297h-40l43 219l-114 -177h-25l-53 178l-43 -220h-41l58 297h48l56 -187l121 187h48z" />
<glyph unicode="&#xe000;" horiz-adv-x="475" d="M0 475h475v-475h-475v475z" />
<glyph unicode="&#xfb01;" d="M10 475h89q10 98 57.5 148t127.5 50q63 0 120 -15l19 -5l-15 -49q-72 20 -129.5 20t-88 -36.5t-38.5 -112.5h273l-40 -313q-13 -70 -7 -95t57 -25q24 0 66 10l6 -50q-59 -12 -78 -12q-59 0 -83 18.5t-23 56.5t8 95l34 265h-219q-27 -237 -53 -391t-39 -190l-13 -36h-53 q5 10 14 39t36 186t54 392h-89z" />
<glyph unicode="&#xfb02;" d="M312 475l-8 -50h-168q-27 -237 -53 -391t-39 -190l-13 -36h-53q5 10 14 39t36 186t54 392h-89l7 50h89q10 98 57.5 148t127.5 50h186l-65 -512q-13 -70 -6.5 -95t50.5 -25t101 20l6 -51q-58 -21 -112 -21t-78.5 18.5t-23.5 56.5t9 95l59 465h-129q-60 0 -90.5 -36.5 t-38.5 -112.5h170z" />
</font>
</defs>
</svg>
