<?xml version="1.0" standalone="no"?>
<!DOCTYPE svg PUBLIC "-//W3C//DTD SVG 1.1//EN" "http://www.w3.org/Graphics/SVG/1.1/DTD/svg11.dtd" >
<svg xmlns="http://www.w3.org/2000/svg">
<metadata></metadata>
<defs>
<font id="typoslabserif-lightregular" horiz-adv-x="483" >
<font-face units-per-em="1000" ascent="800" descent="-200" />
<missing-glyph horiz-adv-x="333" />
<glyph horiz-adv-x="1000" />
<glyph horiz-adv-x="1000" />
<glyph horiz-adv-x="333" />
<glyph horiz-adv-x="262" d="M251 696h-40q-9 -41 -28.5 -55t-51.5 -14q-31 0 -50.5 13.5t-28.5 55.5h-40q8 -63 39.5 -88.5t79.5 -25.5q49 0 80.5 25.5t39.5 88.5z" />
<glyph horiz-adv-x="262" d="M179 601v76h-77v-76h77z" />
<glyph horiz-adv-x="262" d="M218 644q0 36 -25.5 61.5t-61.5 25.5t-62 -25.5t-26 -61.5t26 -61.5t62 -25.5t61.5 25.5t25.5 61.5zM182 644q0 -22 -15 -36.5t-36 -14.5q-22 0 -37 14.5t-15 36.5t15 36.5t37 14.5q21 0 36 -14.5t15 -36.5z" />
<glyph unicode="&#xa;" horiz-adv-x="262" d="M337 708h-77l-92 -138h57zM177 708h-77l-92 -138h57z" />
<glyph horiz-adv-x="262" d="M206 -176l-6 37l-41 -7q-21 0 -35.5 8.5t-14.5 28.5q0 16 9.5 32.5t24 32.5t30 29.5t27.5 23.5h-62q-11 -9 -25.5 -22.5t-28 -30t-23 -34t-9.5 -34.5q0 -37 22.5 -55.5t62.5 -14.5z" />
<glyph horiz-adv-x="262" d="M260 708h-60l-69 -100l-69 100h-60l97 -138h64z" />
<glyph unicode="&#xd;" horiz-adv-x="245" d="M225 0v46h-74v516h-136v-46h78v-470h-78v-46h210z" />
<glyph horiz-adv-x="155" d="M306 731l-39 4l-418 -753l40 -4z" />
<glyph d="M471 0v46h-63v516h-104h-62h-90v7q0 57 23 82t65 25q36 0 54.5 -21t18.5 -49h52l-1 18t-12.5 40t-38 40t-77.5 18q-69 0 -105.5 -36t-36.5 -108v-16h-80v-46h80v-470h-74v-46h207v46h-75v470h90h62h46v-470h-70v-46h191z" />
<glyph d="M470 0v46h-64v647l-59 20q-2 1 -24 4q-17 2 -35.5 3.5t-38.5 1.5q-78 0 -116.5 -36t-38.5 -118v-6h-81v-46h81v-470h-74v-46h208v46h-76v470h92v46h-92v6q0 57 23.5 82.5t83.5 25.5q32 0 58 -9q19 -6 31 -11v-610h-68v-46h190z" />
<glyph horiz-adv-x="523" d="M489 0v215h-53v-168h-269v304l159 120v48l-159 -120v267h107v47h-257v-47h91v-312l-91 -69v-48l91 69v-259h-90v-47h471z" />
<glyph horiz-adv-x="231" d="M227 454v45l-76 -62v276h-136v-46h78v-277l-78 -63v-45l78 63v-299h-78v-46h208v46h-72v346z" />
<glyph horiz-adv-x="553" d="M403 896h-60l-69 -100l-69 100h-60l97 -138h64zM511 0v209h-52v-162h-370l417 610v56h-459v-202h52v155h348l-416 -609v-57h480z" />
<glyph horiz-adv-x="438" d="M349 708h-60l-69 -100l-69 100h-60l97 -138h64zM396 0v150h-51v-104h-244l291 465v51h-346v-138h51v92h235l-290 -464v-52h354z" />
<glyph unicode=" "  horiz-adv-x="333" />
<glyph unicode="&#x09;" horiz-adv-x="333" />
<glyph unicode="&#xa0;" horiz-adv-x="333" />
<glyph unicode="!" horiz-adv-x="303" d="M192 713h-68l10 -547h47zM199 1v76h-77v-76h77z" />
<glyph unicode="&#x22;" horiz-adv-x="431" d="M322 711q0 7 -9 10.5t-23 3.5t-23 -3.5t-9 -10.5l3 -96l7 -119h44l7 118zM172 711q0 7 -9 10.5t-23 3.5t-23 -3.5t-9 -10.5l3 -96l7 -119h44l7 118z" />
<glyph unicode="#" horiz-adv-x="547" d="M528 431v49h-122l32 234h-50l-32 -234h-135l32 234h-50l-32 -234h-126v-49h120l-20 -143h-125v-49h118l-32 -239h50l32 239h135l-32 -239h50l32 239h130v49h-123l20 143h128zM350 431l-20 -143h-135l20 143h135z" />
<glyph unicode="$" horiz-adv-x="494" d="M459 161v56q0 33 -8 59t-28 46t-53.5 34.5t-84.5 24.5l-16 3v280q46 -11 73 -34q24 -20 38 -48t14 -65v-32l53 -1v222h-35v-68q-16 20 -37.5 34t-47.5 24q-13 5 -27.5 9t-30.5 6v101h-41v-97h-15q-81 0 -127.5 -43.5t-46.5 -118.5v-52q0 -67 40 -103.5t125 -54.5l24 -5 v-298q-57 11 -88 39q-23 21 -36.5 49.5t-13.5 63.5v32l-53 1v-226h35v76q28 -43 80 -64q33 -13 76 -17v-98h41v95h8q85 0 133.5 44.5t48.5 125.5zM228 389q-53 14 -89 39q-38 27 -38 78v45q0 54 32.5 86t89.5 32h5v-280zM397 165q0 -60 -33.5 -94t-93.5 -34h-1v296 q66 -20 94 -43q34 -28 34 -83v-42z" />
<glyph unicode="%" horiz-adv-x="770" d="M700 150v78q0 76 -28.5 118t-85.5 42h-24q-57 0 -86 -42t-29 -118v-78q0 -76 29 -117.5t86 -41.5h24q58 0 86 40.5t28 118.5zM576 712h-4l-19 5h-18l-344 -725l42 -5zM322 478v78q0 76 -28.5 118t-85.5 42h-24q-57 0 -86 -42t-29 -118v-78q0 -76 28.5 -118t85.5 -42h24 q58 0 86.5 41t28.5 119zM656 151q0 -60 -17.5 -91t-54.5 -31h-18q-39 0 -57 32t-18 92v74q0 58 18.5 90.5t55.5 32.5h18q38 0 55.5 -32.5t17.5 -92.5v-74zM278 479q0 -60 -17.5 -91.5t-54.5 -31.5h-18q-39 0 -57 32.5t-18 92.5v74q0 58 18 90.5t55 32.5h18q39 0 56.5 -32.5 t17.5 -92.5v-74z" />
<glyph unicode="&#x26;" horiz-adv-x="697" d="M667 1v40h-72l-106 122q10 15 18 30l16 30q16 32 30 64t26 64h65v42h-168v-39h55q-11 -29 -22.5 -51.5t-24.5 -48.5q-6 -11 -13.5 -24.5t-16.5 -27.5l-165 191q35 23 60 42t39 35q33 34 33 116q0 69 -42.5 101t-109.5 32q-75 0 -115.5 -33.5t-40.5 -100.5q0 -29 5 -49.5 t15 -38.5t24.5 -36t34.5 -41l19 -22q-95 -58 -128 -97q-38 -44 -38 -108q0 -33 15.5 -69t42.5 -65.5t64.5 -48.5t82.5 -19q55 0 101 24t89 81q4 5 7.5 9.5t7.5 9.5l99 -115zM366 585q0 -63 -28 -94q-23 -25 -80 -63l-25 29q-15 17 -26.5 31.5t-19 29t-11 30t-3.5 35.5 q0 48 27 68.5t70 20.5q45 0 70.5 -21t25.5 -66zM422 153q-4 -6 -7 -10q-36 -51 -75.5 -76.5t-91.5 -25.5q-24 0 -49 13.5t-45.5 35.5t-33.5 49.5t-13 54.5q0 50 30 85q14 16 40.5 36.5t64.5 46.5z" />
<glyph unicode="'" horiz-adv-x="258" d="M161 711q0 7 -9 10.5t-23 3.5t-23 -3.5t-9 -10.5l3 -96l7 -119h44l7 118z" />
<glyph unicode="(" horiz-adv-x="270" d="M253 -149q-24 28 -47 70t-41 96.5t-28.5 122t-10.5 147.5t10.5 147.5t28.5 122.5t41 97t47 70l-35 18q-27 -29 -53.5 -71.5t-47 -99.5t-33 -128t-12.5 -156t12.5 -156t33 -127.5t47 -99t53.5 -71.5z" />
<glyph unicode=")" horiz-adv-x="270" d="M198 287q0 85 -12.5 156t-32.5 128t-46.5 99.5t-54.5 71.5l-35 -18q25 -28 48 -70t40.5 -97t28 -122.5t10.5 -147.5t-10.5 -147.5t-28 -122t-40.5 -96.5t-48 -70l35 -18q28 29 54.5 71.5t46.5 99t32.5 127.5t12.5 156z" />
<glyph unicode="*" horiz-adv-x="374" d="M339 492l-117 58l117 58l-25 45l-110 -73l8 131h-50l8 -131l-110 73l-25 -45l117 -58l-117 -58l25 -45l110 73l-8 -131h50l-8 131l110 -73z" />
<glyph unicode="+" horiz-adv-x="619" d="M573 237v56h-235v234h-56v-234h-236v-56h236v-237h56v237h235z" />
<glyph unicode="," horiz-adv-x="232" d="M157 2v23v52q-18 0 -36 -0.5t-37 -0.5v-74h19l-50 -139h47l56 138z" />
<glyph unicode="-" horiz-adv-x="354" d="M300 327v48h-245v-48h245z" />
<glyph unicode="." horiz-adv-x="232" d="M120 -12v76h-76v-76h76z" />
<glyph unicode="/" horiz-adv-x="364" d="M349 712l-52 5l-280 -722l52 -5z" />
<glyph unicode="0" horiz-adv-x="500" d="M457 296v115q0 143 -46.5 224t-141.5 81h-38q-95 0 -141.5 -81t-46.5 -224v-115q0 -143 46 -224t141 -81h38q95 0 142 81t47 224zM396 296q0 -123 -31.5 -191t-100.5 -68h-28q-70 0 -101 68t-31 191v115q0 123 31 191t100 68h28q70 0 101.5 -68t31.5 -191v-115z" />
<glyph unicode="1" horiz-adv-x="500" d="M403 0v46h-94v662h-56q-72 -76 -148 -136l15 -38q19 15 36 27t33 24.5t31.5 27t30.5 33.5v-600h-97v-46h249z" />
<glyph unicode="2" horiz-adv-x="500" d="M454 0v165h-56v-114h-298v21q28 42 57 79t67 74t76.5 75t70 74t51 69t19.5 60v48q0 78 -44.5 121.5t-125.5 43.5h-32q-84 0 -132.5 -51t-48.5 -141v-22h57v23q0 66 33 103.5t90 37.5h32q52 0 81.5 -31t29.5 -86v-34q0 -25 -15.5 -54t-42.5 -61t-62.5 -67t-75.5 -73 q-43 -42 -75.5 -81.5t-62.5 -87.5v-91h407z" />
<glyph unicode="3" horiz-adv-x="500" d="M445 170v40q0 43 -14.5 72.5t-37.5 47.5t-51 27t-55 12q32 12 59.5 34t48 48t32.5 54t12 52v20q0 30 -14 55.5t-39.5 44t-60.5 29t-77 10.5q-41 0 -75.5 -10.5t-60 -29.5t-40 -46.5t-14.5 -60.5v-55h59v39q0 51 37.5 82t95.5 31q57 0 93.5 -30t36.5 -75 q0 -26 -13.5 -53.5t-36.5 -52t-54.5 -43.5t-67.5 -28v-48h33q70 0 106.5 -29.5t36.5 -92.5v-44q0 -60 -31.5 -94.5t-85.5 -34.5h-38q-54 0 -85.5 37t-31.5 100v16h-61v-17q0 -91 45.5 -138.5t130.5 -47.5h44q81 0 127.5 47.5t46.5 131.5z" />
<glyph unicode="4" horiz-adv-x="500" d="M470 199v46h-88v462h-75l-283 -443v-65h300v-153h-78v-46h200v46h-64v153h88zM324 245h-253l253 402v-402z" />
<glyph unicode="5" horiz-adv-x="500" d="M456 204v46q0 96 -45.5 146t-132.5 50q-45 0 -85.5 -15.5t-66.5 -45.5l10 270h297l1 52h-354l-10 -393h39q55 81 165 81q61 0 93 -39t32 -109v-48q0 -78 -36.5 -118t-108.5 -40q-67 0 -103 33t-36 96v15h-57v-15q0 -179 193 -179q105 0 155 52t50 161z" />
<glyph unicode="6" horiz-adv-x="500" d="M455 192v52q0 91 -50 140t-144 49q-61 0 -107 -30q-27 -17 -49 -69v27q0 148 38.5 227.5t129.5 81.5q63 1 91 -30t28 -94v-11h57v16q0 87 -45 126t-130 39q-115 0 -170 -88t-55 -245v-126q0 -142 47.5 -204t134.5 -62h42q85 0 133.5 54t48.5 147zM398 190 q0 -70 -33.5 -111.5t-93.5 -41.5h-34q-63 0 -97 48q-20 27 -29.5 60t-9.5 67q0 35 10 67.5t31 57.5q42 50 113 50q69 0 106 -39.5t37 -111.5v-46z" />
<glyph unicode="7" horiz-adv-x="500" d="M458 654v53h-415v-183h55v132h301q-41 -91 -74.5 -169t-65 -154.5t-62.5 -156.5t-67 -176h63q33 91 63 170t61.5 155.5t65.5 156t75 172.5z" />
<glyph unicode="8" horiz-adv-x="500" d="M449 173v38q0 61 -34 104t-97 54q66 15 96.5 56t30.5 99v30q0 75 -47 118.5t-129 43.5h-34q-81 0 -127.5 -43t-46.5 -121v-30q0 -51 28 -94t95 -59q-63 -10 -97.5 -51.5t-34.5 -110.5v-38q0 -84 46.5 -131t128.5 -47h48q81 0 127.5 48.5t46.5 133.5zM388 521 q0 -60 -33 -94.5t-90 -34.5h-26q-55 0 -88 35t-33 93v28q0 57 31 89.5t85 32.5h36q55 0 86.5 -32t31.5 -89v-28zM392 174q0 -66 -32 -101.5t-90 -35.5h-38q-60 0 -91.5 35t-31.5 101v38q0 63 34.5 99t94.5 36h30q57 0 90.5 -35.5t33.5 -98.5v-38z" />
<glyph unicode="9" horiz-adv-x="500" d="M455 324v126q0 142 -47.5 204t-134.5 62h-42q-85 0 -133.5 -54t-48.5 -147v-52q0 -91 50 -140t144 -49q60 0 107 30q27 17 49 69v-27q0 -148 -38.5 -227.5t-129.5 -81.5q-63 -1 -91 30t-28 94v11h-57v-16q0 -87 45 -126t130 -39q115 0 170 88t55 245zM364 622 q19 -27 29 -60t10 -68q0 -34 -10 -66.5t-31 -57.5q-42 -50 -113 -50q-69 0 -106 39.5t-37 111.5v46q0 70 33.5 111.5t93.5 41.5h34q62 0 97 -48z" />
<glyph unicode=":" horiz-adv-x="244" d="M159 401v76h-77v-76h77zM159 1v76h-77v-76h77z" />
<glyph unicode=";" horiz-adv-x="244" d="M159 401v76h-77v-76h77zM168 25v52h-9v0h-77v-76h31l-49 -138h47z" />
<glyph unicode="&#x3c;" horiz-adv-x="619" d="M585 -26v57l-490 232l490 232v57l-552 -261v-56z" />
<glyph unicode="=" horiz-adv-x="619" d="M586 330v56h-552v-56h552zM586 140v56h-552v-56h552z" />
<glyph unicode="&#x3e;" horiz-adv-x="619" d="M585 235v56l-552 261v-57l490 -232l-490 -232v-57z" />
<glyph unicode="?" d="M427 510v64q0 67 -43 107.5t-140 40.5q-98 0 -141 -41.5t-43 -113.5v-29h60v21q0 116 121 116q61 0 93 -29t32 -80v-50q0 -27 -7.5 -48.5t-20 -39t-28.5 -31.5t-32 -26q-49 -27 -73.5 -54.5t-24.5 -66.5v-85h60v67q0 34 22.5 59.5t69.5 54.5q44 27 69.5 64t25.5 100z M249 -1v76h-77v-76h77z" />
<glyph unicode="@" horiz-adv-x="827" d="M785 338q0 63 -26.5 120t-73.5 100t-112 68.5t-143 25.5q-81 0 -152 -31.5t-123.5 -84t-83 -121t-30.5 -143.5q0 -78 29 -148t81 -123t125 -84t160 -31q0 -1 -1.5 6t-3 15.5t-3 16t-0.5 7.5q-65 0 -125.5 25t-107.5 69.5t-75 106t-28 134.5q0 72 27.5 134.5t74 108 t108.5 72t131 26.5q64 0 119.5 -21.5t96 -58.5t63.5 -85t23 -101q0 -51 -15.5 -96t-39.5 -78.5t-52 -53.5t-53 -20q-19 0 -31 13q-7 7 -7 23q0 5 0.5 10.5t2.5 12.5l91 317h-59l-19 -66q-13 46 -42 66t-59 20q-53 0 -97 -25t-75.5 -65t-49.5 -89t-18 -97q0 -41 11 -72 t30.5 -52t45 -31.5t54.5 -10.5q21 0 41 7t37 18.5t30 25t22 26.5q9 -46 29.5 -62.5t40.5 -16.5q42 0 83.5 23.5t74.5 63.5t53.5 93t20.5 113zM528 333q0 -29 -11 -70t-32.5 -78.5t-53 -64.5t-72.5 -27q-17 0 -33 6t-28.5 19t-20 33t-7.5 47q0 43 13.5 87.5t37.5 80t56 58 t70 22.5q40 0 60.5 -31t20.5 -82z" />
<glyph unicode="A" horiz-adv-x="724" d="M694 0v47h-64l-225 666h-84l-229 -666h-63v-47h218v47h-92l69 208h275l68 -208h-92v-47h219zM484 302h-245l123 367z" />
<glyph unicode="B" horiz-adv-x="569" d="M539 171v50q0 30 -8.5 58.5t-26 50t-44 35t-62.5 15.5q66 6 96 46.5t30 103.5v38q0 79 -43 112t-131 33h-325v-47h91v-619h-91v-47h335q39 0 72 12.5t57 35t37 54t13 69.5zM461 523q0 -60 -32 -91.5t-92 -31.5h-162v266h178q51 0 79.5 -26t28.5 -81v-36zM477 179 q0 -66 -37 -99t-107 -33h-158v306h168q66 0 100 -35.5t34 -98.5v-40z" />
<glyph unicode="C" horiz-adv-x="614" d="M571 172v49h-61v-33q-20 -75 -71 -110.5t-126 -35.5q-96 0 -147.5 67t-51.5 184v129q0 117 51.5 183t148.5 66q36 0 68.5 -9.5t59 -29t45.5 -48.5t28 -68v-33h52v230h-35v-84q-27 42 -83.5 67.5t-137.5 25.5q-62 0 -110 -20.5t-81.5 -59.5t-51 -94t-17.5 -124v-133 q0 -69 17.5 -124.5t51 -94.5t81.5 -60t108 -21q100 0 169 45t93 136z" />
<glyph unicode="D" horiz-adv-x="639" d="M587 294v128q0 139 -72 215t-205 76h-292v-47h90v-619h-90v-47h279q144 0 217 74t73 220zM524 294q0 -118 -59.5 -182.5t-171.5 -64.5h-127v619h137q105 0 163 -64t58 -176v-132z" />
<glyph unicode="E" horiz-adv-x="557" d="M527 0v209h-53v-162h-301v294h187v-89h45v221h-45v-85l-187 1v277h298v-154h52v201h-499v-47h90v-619h-90v-47h503z" />
<glyph unicode="F" horiz-adv-x="523" d="M501 508v205h-482v-47h90v-619h-90v-47h256v47h-107v283l183 -1v-84h45v218h-45l-1 -86l-182 1v288h281v-158h52z" />
<glyph unicode="G" horiz-adv-x="645" d="M615 312v47h-241v-46h124v-112q-12 -75 -67 -117t-140 -42q-94 0 -146 66.5t-52 180.5v135q0 114 51.5 180.5t144.5 66.5q81 0 136 -38.5t73 -110.5v-39h54v230h-35v-81q-30 42 -88.5 66t-137.5 24q-125 0 -193 -79.5t-68 -220.5v-131q0 -69 17.5 -124.5t50.5 -94.5 t80 -60t107 -21q72 0 134.5 24.5t97.5 72.5v-88h39v312h59z" />
<glyph unicode="H" horiz-adv-x="695" d="M665 0v47h-89v619h89v47h-238v-47h90v-279h-341v279h90v47h-238v-47h89v-619h-89v-47h238v47h-90v289l341 1v-290h-90v-47h238z" />
<glyph unicode="I" horiz-adv-x="277" d="M258 0v47h-90v619h90v47h-238v-47h90v-619h-90v-47h238z" />
<glyph unicode="J" horiz-adv-x="401" d="M391 666v47h-220v-47h90v-500q0 -63 -23 -93.5t-74 -30.5q-103 0 -103 108v26l-43 -17v-27q0 -69 39 -105t108 -36q155 0 155 166v509h71z" />
<glyph unicode="K" horiz-adv-x="586" d="M574 0v47h-55l-280 331l110 110q54 54 94.5 98t68.5 80h54v47h-204v-47h82q-8 -10 -43 -46.5t-96 -99.5t-95.5 -99.5t-42.5 -46.5v292h90v47h-238v-47h90v-619h-90v-47h238v47h-90v319l41 -41l233 -278h-71v-47h204z" />
<glyph unicode="L" horiz-adv-x="527" d="M497 0v215h-53v-168h-270v619h107v47h-256v-47h90v-619h-90v-47h472z" />
<glyph unicode="M" horiz-adv-x="855" d="M825 0v47h-91v619h91v47h-186l-211 -581l-210 581h-189v-47h92v-619h-91v-47h232v47h-84v619l224 -616h51l224 616v-619h-83v-47h231z" />
<glyph unicode="N" horiz-adv-x="706" d="M676 666v47h-228v-47h91v-593q-42 83 -83.5 162.5t-83.5 157.5t-83.5 157.5t-83.5 162.5h-177v-47h90v-619h-90v-47h238v47h-92v606l343 -653h78v666h81z" />
<glyph unicode="O" horiz-adv-x="625" d="M595 294v125q0 70 -17.5 126.5t-51 95.5t-82 60t-110.5 21h-44q-62 0 -110 -21t-81.5 -60t-51 -95.5t-17.5 -126.5v-125q0 -71 17.5 -127t51 -95t81.5 -60t110 -21h44q62 0 110.5 21t82 60t51 95t17.5 127zM532 296q0 -121 -51 -189.5t-151 -68.5h-36q-99 0 -150 68.5 t-51 189.5v121q0 121 51 189.5t150 68.5h36q100 0 151 -68.5t51 -189.5v-121z" />
<glyph unicode="P" horiz-adv-x="529" d="M510 491v47q0 175 -190 175h-301v-47h90v-619h-90v-47h253v47h-105v266h90q48 0 93.5 11t81 33.5t57 55.5t21.5 78zM448 493q0 -33 -18 -58t-47 -41.5t-65 -25t-72 -8.5h-79v306h137q75 0 109.5 -31.5t34.5 -100.5v-41z" />
<glyph unicode="Q" horiz-adv-x="666" d="M616 294v125q0 70 -17.5 126.5t-51 95.5t-82 60t-110.5 21h-44q-62 0 -110 -21t-81.5 -60t-51 -95.5t-17.5 -126.5v-125q0 -71 17.5 -127t51 -95t81.5 -60t110 -21h44q13 0 25.5 1t24.5 3l108 -135h58l-93 138h-56q94 21 144 98t50 198zM553 296q0 -121 -51 -189.5 t-151 -68.5h-36q-99 0 -150 68.5t-51 189.5v121q0 121 51 189.5t150 68.5h36q100 0 151 -68.5t51 -189.5v-121z" />
<glyph unicode="R" horiz-adv-x="627" d="M597 0v47h-70l-37 192q-4 21 -11 40.5t-19 34.5t-29.5 25t-42.5 13q30 3 53.5 18t40 38.5t25.5 52.5t9 61v44q0 43 -11 71.5t-32.5 45t-55 23.5t-78.5 7h-313v-47h90v-619h-90v-47h239v47h-90v285h134q32 0 53.5 -7t35.5 -21t22.5 -35.5t14.5 -50.5q11 -60 18.5 -98 t11.5 -61t6 -33t3 -14.5t1.5 -5.5t2.5 -6h119zM453 523q0 -30 -8.5 -56.5t-25 -46t-41 -30.5t-56.5 -11h-147v287h143q34 0 59.5 -4.5t42.5 -16t25 -32t8 -52.5v-38z" />
<glyph unicode="S" horiz-adv-x="481" d="M450 162v56q0 48 -15.5 78t-40.5 48t-57 27.5t-66 16t-66 13t-57 19t-40.5 34t-15.5 57.5v44q0 55 32.5 87.5t89.5 32.5q78 0 125 -39.5t47 -112.5v-33l53 -1v224h-35v-67q-33 39 -85 57.5t-115 18.5q-81 0 -127.5 -44t-46.5 -120v-52q0 -62 26.5 -93.5t66.5 -47 t86 -22.5t86 -19.5t66.5 -38t26.5 -77.5v-42q0 -61 -33 -94.5t-93 -33.5q-82 0 -131.5 41t-49.5 114v32l-54 1v-227h35v76q32 -46 84.5 -65t127.5 -19q82 0 129 45t47 126z" />
<glyph unicode="T" horiz-adv-x="505" d="M475 493v220h-522v-220h52v169h180v-615h-110v-47h279v47h-110v615h179v-169h52z" />
<glyph unicode="U" horiz-adv-x="671" d="M641 666v47h-228v-47h97v-452q0 -87 -40 -131.5t-119 -44.5h-34q-76 0 -116 45t-40 130v453h96v47h-228v-47h73v-452q0 -223 211 -223h44q103 0 157.5 58t54.5 164v453h72z" />
<glyph unicode="V" horiz-adv-x="705" d="M675 666v47h-225v-47h99l-197 -606l-195 606h96v47h-224v-47h64l222 -666h74l222 666h64z" />
<glyph unicode="W" horiz-adv-x="874" d="M871 666v47h-213v-47h96l-125 -605l-151 652h-85l-151 -652l-124 605h99v47h-217v-47h59l142 -666h81l154 656l153 -656h80l143 666h59z" />
<glyph unicode="X" horiz-adv-x="639" d="M627 0v47h-67l-211 324l193 295h71v47h-218v-47h85l-163 -247l-161 247h85v47h-225v-47h71l194 -296l-213 -323h-67v-47h228v47h-98l181 275l180 -275h-97v-47h232z" />
<glyph unicode="Y" horiz-adv-x="598" d="M597 666v47h-213v-47h89l-173 -301l-171 301h95v47h-222v-47h61l208 -359v-260h-101v-47h261v47h-101v262l206 357h61z" />
<glyph unicode="Z" horiz-adv-x="553" d="M511 0v209h-52v-162h-370l417 610v56h-459v-202h52v155h348l-416 -609v-57h480z" />
<glyph unicode="[" horiz-adv-x="264" d="M221 -167v44h-72q-3 0 -4 1v4v811v4q1 1 4 1h72v44h-113q-11 0 -14 -3t-3 -13v-877q0 -10 3 -13t14 -3h113z" />
<glyph unicode="\" horiz-adv-x="364" d="M349 -5l-281 727l-51 -5l281 -727z" />
<glyph unicode="]" horiz-adv-x="264" d="M175 -151v877q0 10 -3.5 13t-13.5 3h-113v-44h72l4 -5v-811l-4 -5h-72v-44h113q10 0 13.5 3t3.5 13z" />
<glyph unicode="^" horiz-adv-x="636" d="M525 351l-184 362h-48l-184 -362h61l147 292l147 -292h61z" />
<glyph unicode="_" horiz-adv-x="500" d="M502 -225v50h-505v-50h505z" />
<glyph unicode="`" horiz-adv-x="262" d="M201 570l-93 138h-76l111 -138h58z" />
<glyph unicode="a" d="M469 0v46h-67v361q0 81 -38 123t-114 42h-38q-75 0 -115.5 -35t-40.5 -101v-18h56v12q0 96 103 96h28q52 0 77 -30.5t25 -100.5v-71h-132q-90 0 -131.5 -38.5t-41.5 -114.5v-34q0 -67 33 -107t99 -40q60 0 103 19.5t74 67.5l-1 -77h121zM345 199q-5 -35 -16.5 -64.5 t-30.5 -51.5t-46 -34.5t-63 -12.5q-46 0 -69 30.5t-23 75.5v20q0 58 31 87.5t106 29.5q45 0 78 -2.5l33 -2.5v-75z" />
<glyph unicode="b" horiz-adv-x="523" d="M483 240v82q0 115 -44 182.5t-129 67.5q-49 0 -96 -18.5t-76 -58.5v218h-124v-46h66v-637h-49v-30h89v71q33 -42 80.5 -61.5t110.5 -19.5q84 0 128 67.5t44 182.5zM426 247q0 -97 -34.5 -154t-98.5 -57q-72 0 -115.5 52t-43.5 148v104q0 42 11.5 76t32 58.5t50 38 t65.5 13.5q64 0 98.5 -57t34.5 -154v-68z" />
<glyph unicode="c" horiz-adv-x="465" d="M431 175h-51q-3 -25 -10.5 -50t-19.5 -44.5t-29.5 -32t-39.5 -12.5h-38q-32 0 -57 15t-42 43t-26.5 66.5t-9.5 85.5v72q0 47 9 85.5t26.5 65.5t42 42t56.5 15q63 0 96.5 -30.5t44.5 -87.5v-19h47v173h-31v-60q-27 31 -64 50.5t-97 19.5q-90 0 -138 -66t-48 -183v-84 q0 -57 12.5 -103t36 -78.5t58 -50t78.5 -17.5h58q55 0 93 49t43 136z" />
<glyph unicode="d" horiz-adv-x="523" d="M507 0v46h-66v667h-136v-46h78v-171q-28 39 -74 57.5t-94 18.5q-84 0 -129 -68t-45 -185v-78q0 -117 43.5 -184t127.5 -67q114 0 171 76v-66h124zM387 233q0 -45 -11.5 -81.5t-32 -62t-50 -39.5t-65.5 -14q-31 0 -55.5 15t-41 42.5t-25 66t-8.5 86.5v70q0 48 8.5 86.5 t25 66t40.5 42.5t55 15q36 0 65.5 -13t50.5 -37.5t32.5 -58.5t11.5 -76v-108z" />
<glyph unicode="e" horiz-adv-x="477" d="M442 267v53q0 118 -45.5 185t-133.5 67h-40q-91 0 -136 -67t-45 -188v-78q0 -120 46 -184.5t140 -64.5h46q63 0 106.5 44.5t53.5 129.5v13h-51v-9q-5 -56 -34 -94t-82 -38h-36q-66 0 -99.5 54.5t-33.5 151.5v25h344zM385 312h-287v10q0 46 8.5 83.5t25 64.5t40.5 41.5 t54 14.5h30q63 0 96 -47.5t33 -135.5v-31z" />
<glyph unicode="f" horiz-adv-x="264" d="M281 672v46l-62 4q-61 4 -92.5 -32t-31.5 -106v-22h-74v-46h74v-470h-74v-46h213v46h-81v470h92v46h-92v21q0 52 19.5 72.5t58.5 20.5l38 -4h12z" />
<glyph unicode="g" horiz-adv-x="523" d="M509 516v46h-127v-73q-26 42 -72 62.5t-100 20.5q-40 0 -71.5 -17.5t-53 -49.5t-33 -77.5t-11.5 -101.5v-82q0 -56 11.5 -101t33.5 -76.5t53.5 -49t71.5 -17.5q55 0 100 20.5t71 65.5v-86q0 -72 -28 -103t-91 -31h-32q-55 0 -80.5 20t-29.5 63h-23t-14 -1q-10 0 -20 -15 q4 -55 43.5 -84t114.5 -29h44q91 0 132 40.5t41 133.5v522h70zM382 276q0 -51 -8.5 -93t-24 -72.5t-36 -47.5t-44.5 -17h-42q-29 0 -52.5 15t-40.5 41.5t-26.5 63.5t-9.5 82v74q0 45 9 82.5t25.5 64.5t39.5 42t52 15h44q25 0 46 -18t36 -49.5t23.5 -74.5t8.5 -94v-14z" />
<glyph unicode="h" horiz-adv-x="529" d="M513 0v46h-71v351q0 85 -34 130t-103 45q-48 0 -89.5 -15.5t-67.5 -55.5v212h-132v-46h75v-621h-73v-46h205v46h-75v325q0 34 10.5 62.5t29.5 49t45 32t58 11.5q49 0 71.5 -37t22.5 -106v-337h-77v-46h205z" />
<glyph unicode="i" horiz-adv-x="245" d="M157 696v24t-3 11t-11 3h-22h-23q-7 0 -10 -3t-3 -12v-24v-24t3 -11t10 -3h23h22q8 0 11 3t3 11v25zM225 0v46h-74v516h-136v-46h78v-470h-78v-46h210z" />
<glyph unicode="j" horiz-adv-x="225" d="M154 696v24t-3 11t-11 3h-22h-23q-7 0 -10 -3t-3 -12v-24v-24t3 -11t10 -3h23h22q8 0 11 3t3 11v25zM149 -71v633h-137v-46h79v-571q0 -47 -12 -63t-42 -17l-30 5h-9v-46l40 -5q62 0 86.5 26t24.5 84z" />
<glyph unicode="k" d="M479 0v46h-51l-165 286l144 184h59v46h-184v-46h67l-198 -239v436h-132v-46h74v-621h-74v-46h188v46h-56v165l66 82l148 -247h-62v-46h176z" />
<glyph unicode="l" horiz-adv-x="231" d="M223 0v46h-72v667h-136v-46h78v-621h-78v-46h208z" />
<glyph unicode="m" horiz-adv-x="799" d="M784 0v46h-69v351q0 85 -35 130t-104 45q-60 0 -100 -20.5t-58 -55.5q-11 35 -40 55.5t-80 20.5q-45 0 -84 -17.5t-63 -53.5v61h-136v-46h78v-470h-75v-46h206v46h-73v328q0 69 40.5 110.5t106.5 41.5q37 0 57 -35t20 -95v-350h-78v-46h205v46h-69v332q0 69 37.5 108.5 t101.5 39.5q40 0 62.5 -35t22.5 -95v-350h-77v-46h204z" />
<glyph unicode="n" horiz-adv-x="529" d="M514 0v46h-72v351q0 85 -33.5 130t-102.5 45q-48 0 -89 -15.5t-67 -55.5v61h-135v-46h78v-470h-77v-46h206v46h-72v325q0 34 10.5 62.5t29 49t44.5 32t58 11.5q48 0 70.5 -37t22.5 -106v-337h-78v-46h207z" />
<glyph unicode="o" horiz-adv-x="496" d="M457 243v76q0 117 -47.5 185t-135.5 68h-50q-87 0 -134.5 -68t-47.5 -185v-76q0 -117 47.5 -185t134.5 -68h50q87 0 135 68t48 185zM400 248q0 -97 -35 -154.5t-101 -57.5h-30q-66 0 -100.5 57.5t-34.5 154.5v66q0 97 34.5 154.5t100.5 57.5h30q66 0 101 -57.5t35 -154.5 v-66z" />
<glyph unicode="p" horiz-adv-x="529" d="M480 240v82q0 115 -43.5 182.5t-127.5 67.5q-52 0 -95 -19.5t-73 -61.5v71h-130v-46h72v-640h-72v-46h205v46h-75v192q28 -42 71 -60t94 -18q85 0 129.5 67.5t44.5 182.5zM423 245q0 -96 -33.5 -152.5t-96.5 -56.5q-72 0 -114 50.5t-42 134.5v104q0 97 42 149t114 52 q63 0 96.5 -56t33.5 -153v-72z" />
<glyph unicode="q" horiz-adv-x="499" d="M457 243v76q0 117 -47.5 185t-135.5 68h-50q-87 0 -134.5 -68t-47.5 -185v-76q0 -117 47.5 -185t134.5 -68h50h5l107 -133h58l-93 138h-35q68 16 104.5 80.5t36.5 167.5zM400 248q0 -97 -35 -154.5t-101 -57.5h-30q-66 0 -100.5 57.5t-34.5 154.5v66q0 97 34.5 154.5 t100.5 57.5h30q66 0 101 -57.5t35 -154.5v-66z" />
<glyph unicode="r" horiz-adv-x="333" d="M317 571q-21 0 -45.5 -4t-48.5 -14t-43.5 -25.5t-29.5 -37.5v72h-132v-46h75v-470h-75v-46h220v46h-87v353q0 34 15 56t39 34.5t53.5 17t57.5 4.5v15t0.5 29z" />
<glyph unicode="s" horiz-adv-x="425" d="M386 141v30q0 56 -21.5 83.5t-53 39t-69 13.5t-69 8.5t-53 24t-21.5 58.5v24q0 45 25 74.5t74 29.5q63 0 98.5 -25t35.5 -61v-41h46v163h-30v-47q-23 28 -65 42.5t-97 14.5q-64 0 -103.5 -39.5t-39.5 -111.5v-34q0 -53 21 -77.5t53 -35t69 -13t69 -10t53 -27.5t21 -65 v-16q0 -54 -28 -80.5t-76 -26.5q-59 0 -99 28.5t-42 82.5l-7 19h-40v-173h30v60q26 -35 67 -49t92 -14q78 0 119 38t41 113z" />
<glyph unicode="t" horiz-adv-x="298" d="M280 87v24l-40 4q0 -45 -10 -62t-35 -17q-48 0 -48 67v413h118v46h-118v126h-4l-54 -4v-122h-82v-46h82v-420q0 -54 22 -80t71 -26q45 0 71.5 25.5t26.5 71.5z" />
<glyph unicode="u" horiz-adv-x="529" d="M513 0v46h-75v516h-131v-46h74v-325q0 -33 -10.5 -61.5t-29.5 -49t-44.5 -32.5t-55.5 -12q-52 0 -74.5 35t-22.5 107v384h-127v-46h70v-346q0 -88 33 -134t102 -46q52 0 93.5 19.5t66.5 58.5v-68h131z" />
<glyph unicode="v" d="M474 516v46h-175v-46h70l-126 -452l-128 452h69v46h-175v-46h48l152 -518h63l154 518h48z" />
<glyph unicode="w" horiz-adv-x="754" d="M742 516v46h-173v-46h69l-111 -447l-116 493h-48l-19 -7l-116 -485l-111 446h74v46h-179v-46h48l132 -518h68l117 497l117 -497h67l133 518h48z" />
<glyph unicode="x" horiz-adv-x="484" d="M471 0v46h-46l-149 245l137 225h53v46h-159v-42l46 -2l-111 -187l-111 189h52v42h-158v-46h46l137 -227l-149 -243h-46v-46h158v46l-51 2l122 199l122 -203h-51v-44h158z" />
<glyph unicode="y" d="M475 516v46h-168v-46h71l-132 -426l-130 426h71v46h-178v-46h49l159 -502l-37 -115q-5 -11 -9 -22l-4 -11h-70v-46h125v46l12 30l200 620h41z" />
<glyph unicode="z" horiz-adv-x="438" d="M396 0v150h-51v-104h-244l291 465v51h-346v-138h51v92h235l-290 -464v-52h354z" />
<glyph unicode="{" horiz-adv-x="299" d="M268 -167v41h-34q-25 3 -41.5 26.5t-16.5 80.5v150q0 71 -21 106.5t-56 49.5q35 15 56 50.5t21 106.5v150q0 57 16.5 80.5t41.5 26.5h34v41h-30q-32 0 -54 -10.5t-36 -28t-20 -41t-6 -48.5v-172q0 -58 -18.5 -94.5t-53.5 -39.5v-41q35 -3 53.5 -39.5t18.5 -94.5v-172 q0 -26 6 -49t20 -40.5t36 -28t54 -10.5h30z" />
<glyph unicode="|" horiz-adv-x="224" d="M140 -80v814h-56v-814h56z" />
<glyph unicode="}" horiz-adv-x="299" d="M249 267v41q-35 3 -53.5 39.5t-18.5 94.5v172q0 25 -6.5 48.5t-20.5 41t-36 28t-54 10.5h-30v-41h34q25 -3 42 -26.5t17 -80.5v-150q0 -71 21 -106.5t56 -50.5q-35 -14 -56 -49.5t-21 -106.5v-150q0 -57 -17 -80.5t-42 -26.5h-34v-41h30q32 0 54 10.5t36 28t20.5 40.5 t6.5 49v172q0 58 18.5 94.5t53.5 39.5z" />
<glyph unicode="~" horiz-adv-x="636" d="M550 286l-36 40q-21 -34 -40 -51.5t-46 -17.5q-35 0 -103 34q-67 34 -114 34q-45 0 -75 -24.5t-49 -58.5l35 -40q19 34 39 51.5t47 17.5q35 0 102 -34q68 -34 116 -34q45 0 74.5 24.5t49.5 58.5z" />
<glyph unicode="&#xa1;" horiz-adv-x="303" d="M190 518v75h-74v-75h74zM180 -121l-10 547h-47l-11 -547h68z" />
<glyph unicode="&#xa2;" horiz-adv-x="465" d="M431 175h-51q-3 -25 -10.5 -50t-19.5 -44.5t-29.5 -32t-39.5 -12.5h-10v488q42 -7 67 -29q17 -16 28.5 -37t16.5 -50v-19h47v173h-31v-60q-14 16 -30 28t-35 22q-24 13 -63 18v96h-40v-94q-85 -3 -131 -67q-48 -66 -48 -182v-84q0 -115 48 -182q46 -64 131 -67v-94h40v94 h24q55 0 93 49t43 136zM231 37q-56 6 -87 57q-36 58 -36 152v72q0 93 35 151q32 51 88 56v-488z" />
<glyph unicode="&#xa3;" horiz-adv-x="494" d="M458 -1v26v147h-56v-123l-4 -1.5t-10 -1.5h-229v316h146v47h-145v123q0 75 26 106t77 31q57 0 95 -24t43 -64v-34h47l1 50q-11 54 -60.5 86t-124.5 32q-85 0 -123 -46t-38 -128v-132h-78v-47h78v-316h-78v-46h346q13 0 35 -0.5t36 -0.5h16z" />
<glyph unicode="&#xa4;" horiz-adv-x="614" d="M601 172v49h-61v-33q-20 -75 -71 -110.5t-126 -35.5q-88 0 -139 57.5t-59 158.5h421v43h-422v100h422v43h-422q5 107 56.5 167t143.5 60q36 0 68.5 -9.5t59 -29t45.5 -48.5t28 -68v-33h52v230h-35v-84q-27 42 -83.5 67.5t-137.5 25.5q-59 0 -106 -19.5t-80.5 -55.5 t-52 -87.5t-21.5 -115.5h-67v-43h67v-100h-67v-43h68q4 -62 23.5 -111.5t52.5 -84t78.5 -53t102.5 -18.5q100 0 169 45t93 136z" />
<glyph unicode="&#xa5;" horiz-adv-x="517" d="M513 659v47h-184v-47h75l-145 -297l-146 297h81v47h-190v-47h53l139 -281h-121v-47h144l13 -26v-56h-158v-47h158v-155h-85v-47h224v47h-85v155h154v47h-154v61l10 21h143v47h-119l138 281h55z" />
<glyph unicode="&#xa6;" horiz-adv-x="224" d="M140 410v324h-56v-324h56zM140 -80v324h-56v-324h56z" />
<glyph unicode="&#xa7;" horiz-adv-x="500" d="M438 296q0 36 -4.5 61.5t-16.5 42.5t-34 27.5t-57 18.5l-101 22q-51 11 -75 36.5t-24 70.5q0 30 8.5 48.5t24 29t37.5 14.5t49 4q37 0 62 -7.5t39.5 -21t20.5 -33.5t6 -44v-17h54v24q0 34 -8.5 62t-28.5 47.5t-54.5 30t-86.5 10.5q-89 0 -133.5 -32.5t-44.5 -116.5 q0 -54 24.5 -84t61.5 -42q-47 -11 -70.5 -42.5t-23.5 -99.5q0 -36 4.5 -61.5t16.5 -42.5t34 -28t57 -18l100 -22q52 -11 76 -36.5t24 -70.5q0 -30 -8.5 -49t-24 -29.5t-38 -14t-49.5 -3.5q-37 0 -61.5 7.5t-39 21t-20.5 33.5t-6 44v17h-54v-24q0 -35 8.5 -62.5t28.5 -47 t54.5 -30t86.5 -10.5q88 0 133 32.5t45 116.5q0 54 -24.5 84t-61.5 42q47 11 70.5 42.5t23.5 99.5zM381 290q0 -54 -18 -79t-55 -33l-124 36q-20 6 -32.5 13t-19.5 18t-9.5 27t-2.5 40q0 54 18 78.5t55 32.5l124 -36q20 -6 32.5 -13t19.5 -17.5t9.5 -26.5t2.5 -40z" />
<glyph unicode="&#xa8;" horiz-adv-x="262" d="M253 632q0 15 -10.5 25t-25.5 10t-25.5 -10t-10.5 -25t10.5 -25t25.5 -10t25.5 10t10.5 25zM81 632q0 15 -10.5 25t-25.5 10t-25.5 -10t-10.5 -25t10.5 -25t25.5 -10t25.5 10t10.5 25z" />
<glyph unicode="&#xa9;" horiz-adv-x="809" d="M773 359q0 75 -29 142t-78.5 116.5t-116.5 78.5t-143 29t-143 -29t-116.5 -78.5t-78.5 -116.5t-29 -143q0 -75 29 -142t78.5 -116.5t116.5 -78.5t143 -29t143 29t116.5 78.5t78.5 116.5t29 143zM725 358q0 -66 -25 -124.5t-68.5 -102t-101.5 -69t-124 -25.5t-124 25 t-101.5 68.5t-68.5 102.5t-25 126q0 66 25 124.5t68.5 102t101.5 69t124 25.5t124 -25t101.5 -68.5t68.5 -102.5t25 -126zM534 255v27h-34v-18q-11 -42 -38.5 -61t-69.5 -19q-53 0 -81 36.5t-28 101.5v71q0 64 28 100t82 36q39 0 70 -21t40 -64v-18h29v127h-19v-47 q-15 23 -46 37.5t-76 14.5q-68 0 -105.5 -44t-37.5 -120v-74q0 -76 37.5 -120.5t104.5 -44.5q55 0 92.5 25t51.5 75z" />
<glyph unicode="&#xaa;" horiz-adv-x="310" d="M309 412v28h-45v220q0 101 -101 101h-26q-51 0 -77.5 -21.5t-26.5 -61.5v-11h37v7q3 30 19.5 44.5t49.5 14.5h19q35 0 51.5 -18.5t16.5 -61.5v-43h-88q-60 0 -88 -23t-28 -71v-20q0 -42 22.5 -66t65.5 -24q40 0 69 12t50 41l-1 -47h81zM226 533q-6 -42 -31 -70.5 t-73 -28.5q-31 0 -46.5 18.5t-15.5 46.5v12q0 35 20.5 53t71.5 18q30 0 52 0.5l22 0.5v-50z" />
<glyph unicode="&#xab;" horiz-adv-x="413" d="M342 454l-46 8l-92 -202l91 -202l46 8l-86 194zM200 454l-46 8l-92 -202l91 -202l46 8l-86 194z" />
<glyph unicode="&#xac;" horiz-adv-x="619" d="M586 78v283h-552v-56h496v-227h56z" />
<glyph unicode="&#xad;" horiz-adv-x="354" d="M300 327v48h-245v-48h245z" />
<glyph unicode="&#xae;" horiz-adv-x="809" d="M772 359q0 75 -29 142t-78.5 116.5t-116.5 78.5t-143 29t-143 -29t-116.5 -78.5t-78.5 -116.5t-29 -143q0 -75 29 -142t78.5 -116.5t116.5 -78.5t143 -29t143 29t116.5 78.5t78.5 116.5t29 143zM724 358q0 -66 -25 -124.5t-68.5 -102t-101.5 -69t-124 -25.5t-124 25 t-101.5 68.5t-68.5 102.5t-25 126q0 66 25 124.5t68.5 102t101.5 69t124 25.5t124 -25t101.5 -68.5t68.5 -102.5t25 -126zM572 160v26h-39l-20 106q-5 23 -17 41t-39 21q16 1 28.5 11.5t20.5 25t12.5 30.5t4.5 29v19q0 37 -21.5 60.5t-71.5 23.5h-173v-26h50v-341h-50v-26 h132v26h-50v157h74q35 0 49 -15.5t20 -47.5l21 -111v-9h69zM496 451q0 -13 -5.5 -27.5t-15 -26.5t-23.5 -20t-32 -8h-81v158h79q38 0 58 -16.5t20 -43.5v-16z" />
<glyph unicode="&#xaf;" horiz-adv-x="262" d="M264 609v46h-268v-46h268z" />
<glyph unicode="&#xb0;" horiz-adv-x="387" d="M337 589q0 30 -11.5 56t-31 45.5t-45.5 31t-56 11.5t-56.5 -11.5t-46 -31t-30.5 -45.5t-11 -56t11 -56.5t30.5 -46t46 -30.5t56.5 -11t56 11t45.5 30.5t31 46t11.5 56.5zM290 589q0 -42 -27.5 -69.5t-69.5 -27.5t-69.5 27.5t-27.5 69.5t27.5 69.5t69.5 27.5t69.5 -27.5 t27.5 -69.5z" />
<glyph unicode="&#xb1;" horiz-adv-x="619" d="M575 301v56h-237v202h-56v-202h-236v-56h236v-202h56v202h237zM575 0v56h-529v-56h529z" />
<glyph unicode="&#xb2;" horiz-adv-x="322" d="M294 278v101h-37v-70h-197v13q18 26 38 48.5t44 44.5q25 23 50.5 46t46 45t33.5 42t13 37v29q0 48 -29 74.5t-83 26.5h-21q-55 0 -87.5 -31.5t-32.5 -85.5v-14h38v14q0 40 21.5 63t59.5 23h21q35 0 54 -19t19 -52v-21q0 -15 -10.5 -32.5t-28 -37t-41 -41t-49.5 -44.5 q-29 -26 -50 -50t-41 -53v-56h269z" />
<glyph unicode="&#xb3;" horiz-adv-x="322" d="M288 382v24q0 27 -10 44.5t-25 29t-33.5 16.5t-36.5 7q21 7 39.5 20.5t32 29.5t21.5 33t8 32v12q0 37 -36 61t-90 24t-90 -24t-36 -66v-33h39v23q3 31 26.5 50t61.5 19t62 -18t24 -46q0 -15 -9 -32t-24 -32t-36 -26.5t-45 -17.5v-29h22q94 0 94 -74v-27q0 -37 -20.5 -58 t-56.5 -21h-25q-35 0 -56 22.5t-21 61.5v9h-40v-10q0 -55 29.5 -84t86.5 -29h29q54 0 84.5 29t30.5 80z" />
<glyph unicode="&#xb4;" horiz-adv-x="262" d="M230 708h-76l-92 -138h57z" />
<glyph unicode="&#xb5;" horiz-adv-x="529" d="M513 0v46h-75v516h-132v-46h74v-325q0 -33 -10.5 -61.5t-29.5 -49t-44 -32.5t-55 -12q-52 0 -74 35t-22 107v384h-128v-46h70v-686h58v195q9 -13 28 -24t45 -11q54 0 96 19.5t67 58.5v-68h132z" />
<glyph unicode="&#xb6;" horiz-adv-x="619" d="M503 667v45h-224q-91 0 -144.5 -49.5t-53.5 -134.5q0 -38 13 -68.5t36.5 -53t57 -35.5t74.5 -15v-472h51v782h130v-782h51v783h9z" />
<glyph unicode="&#xb7;" horiz-adv-x="232" d="M159 331v76h-77v-76h77z" />
<glyph unicode="&#xb8;" horiz-adv-x="262" d="M208 -115q0 32 -18.5 50t-52.5 18h-14l27 54h-41l-37 -78l11 -14l30 4q17 0 28.5 -9.5t11.5 -24.5t-9.5 -25t-24.5 -10q-26 0 -46.5 7t-24.5 9l-12 -33q10 -6 39 -11.5t62 -5.5q31 0 51 19.5t20 49.5z" />
<glyph unicode="&#xb9;" horiz-adv-x="322" d="M259 278v28h-62v404h-37q-49 -47 -98 -83v-39q25 18 50.5 39.5t46.5 44.5v-366h-64v-28h164z" />
<glyph unicode="&#xba;" horiz-adv-x="300" d="M291 560v47q0 72 -31 113t-91 41h-34q-58 0 -90 -41t-32 -113v-47q0 -72 32 -113t90 -41h34q58 0 90 41t32 113zM253 563q0 -60 -24 -94.5t-67 -34.5h-20q-45 0 -68 34.5t-23 94.5v41q0 60 23 94.5t68 34.5h20q43 0 67 -34.5t24 -94.5v-41z" />
<glyph unicode="&#xbb;" horiz-adv-x="413" d="M349 260l-93 202l-46 -8l88 -194l-87 -194l46 -8zM207 260l-93 202l-46 -8l88 -194l-87 -194l46 -8z" />
<glyph unicode="&#xbc;" horiz-adv-x="750" d="M703 121v28h-58v282h-49l-187 -270v-40h198v-93h-52v-28h133v28h-43v93h58zM601 731l-39 4l-418 -753l40 -4zM253 278v28h-62v404h-37q-49 -47 -98 -83v-39q25 18 50.5 39.5t46.5 44.5v-366h-64v-28h164zM607 149h-167l167 246v-246z" />
<glyph unicode="&#xbd;" horiz-adv-x="750" d="M728 0v101h-37v-70h-197v13q18 26 38 48.5t44 44.5q25 23 50.5 46t46 45t33.5 42t13 37v29q0 48 -29 74.5t-83 26.5h-21q-55 0 -87.5 -31.5t-32.5 -85.5v-14h38v14q0 40 21.5 63t59.5 23h21q35 0 54 -19t19 -52v-21q0 -15 -10.5 -32.5t-28 -37t-41 -41t-49.5 -44.5 q-29 -26 -50 -50t-41 -53v-56h269zM596 731l-39 4l-418 -753l40 -4zM253 278v28h-62v404h-37q-49 -47 -98 -83v-39q25 18 50.5 39.5t46.5 44.5v-366h-64v-28h164z" />
<glyph unicode="&#xbe;" horiz-adv-x="750" d="M725 121v28h-58v282h-49l-187 -270v-40h198v-93h-52v-28h133v28h-43v93h58zM629 731l-39 4l-418 -753l40 -4zM283 382v24q0 27 -10 44.5t-25 29t-33.5 16.5t-36.5 7q21 7 39.5 20.5t32 29.5t21.5 33t8 32v12q0 37 -36 61t-90 24t-90 -24t-36 -66v-33h39v23q3 31 26.5 50 t61.5 19t62 -18t24 -46q0 -15 -9 -32t-24 -32t-36 -26.5t-45 -17.5v-29h22q94 0 94 -74v-27q0 -37 -20.5 -58t-56.5 -21h-25q-35 0 -56 22.5t-21 61.5v9h-40v-10q0 -55 29.5 -84t86.5 -29h29q54 0 84.5 29t30.5 80zM629 149h-167l167 246v-246z" />
<glyph unicode="&#xbf;" d="M310 518v75h-74v-75h74zM421 26v29h-60v-21q0 -57 -31 -86.5t-89 -29.5q-61 0 -93.5 29t-32.5 80v50q0 27 7.5 48.5t20 39t28 31.5t32.5 26q51 27 75 54.5t24 66.5v85h-60v-67q0 -34 -22.5 -59.5t-69.5 -54.5q-44 -27 -70 -64t-26 -100v-64q0 -67 43 -107.5t140 -40.5 q99 0 141.5 41.5t42.5 113.5z" />
<glyph unicode="&#xc0;" horiz-adv-x="683" d="M408 758l-93 138h-76l111 -138h58zM673 0v47h-64l-225 666h-84l-229 -666h-63v-47h218v47h-92l69 208h275l68 -208h-92v-47h219zM463 302h-245l123 367z" />
<glyph unicode="&#xc1;" horiz-adv-x="683" d="M447 896h-76l-92 -138h57zM673 0v47h-64l-225 666h-84l-229 -666h-63v-47h218v47h-92l69 208h275l68 -208h-92v-47h219zM463 302h-245l123 367z" />
<glyph unicode="&#xc2;" horiz-adv-x="683" d="M472 758l-97 138h-64l-97 -138h60l69 100l69 -100h60zM673 0v47h-64l-225 666h-84l-229 -666h-63v-47h218v47h-92l69 208h275l68 -208h-92v-47h219zM463 302h-245l123 367z" />
<glyph unicode="&#xc3;" horiz-adv-x="683" d="M487 870h-40q-5 -41 -37 -41q-21 0 -64 21q-43 22 -70 22q-70 0 -76 -92h39q6 41 38 41q21 0 64 -22q43 -21 70 -21q68 0 76 92zM673 0v47h-64l-225 666h-84l-229 -666h-63v-47h218v47h-92l69 208h275l68 -208h-92v-47h219zM463 302h-245l123 367z" />
<glyph unicode="&#xc4;" horiz-adv-x="701" d="M478 820q0 15 -10.5 25t-25.5 10t-25.5 -10t-10.5 -25t10.5 -25t25.5 -10t25.5 10t10.5 25zM306 820q0 15 -10.5 25t-25.5 10t-25.5 -10t-10.5 -25t10.5 -25t25.5 -10t25.5 10t10.5 25zM686 0v47h-64l-225 666h-84l-229 -666h-63v-47h218v47h-92l69 208h275l68 -208h-92 v-47h219zM476 302h-245l123 367z" />
<glyph unicode="&#xc5;" horiz-adv-x="683" d="M428 817q0 36 -25.5 61.5t-61.5 25.5t-62 -25.5t-26 -61.5t26 -61.5t62 -25.5t61.5 25.5t25.5 61.5zM673 0v47h-64l-225 666h-84l-229 -666h-63v-47h218v47h-92l69 208h275l68 -208h-92v-47h219zM392 817q0 -22 -15 -36.5t-36 -14.5q-22 0 -37 14.5t-15 36.5t15 36.5 t37 14.5q21 0 36 -14.5t15 -36.5zM463 302h-245l123 367z" />
<glyph unicode="&#xc6;" horiz-adv-x="901" d="M853 0v209h-53v-162h-251l-31 294h168v-89h45v221h-45v-85l-173 1l-30 277h314v-154h52v201l-466 1l-325 -667h-50v-47h200v47h-92l100 208h252l22 -208h-98v-47h461zM464 302h-228l181 367h7z" />
<glyph unicode="&#xc7;" horiz-adv-x="614" d="M571 172v49h-61v-33q-20 -75 -71 -110.5t-126 -35.5q-96 0 -147.5 67t-51.5 184v129q0 117 51.5 183t148.5 66q36 0 68.5 -9.5t59 -29t45.5 -48.5t28 -68v-33h52v230h-35v-84q-27 42 -83.5 67.5t-137.5 25.5q-62 0 -110 -20.5t-81.5 -59.5t-51 -94t-17.5 -124v-133 q0 -69 17.5 -124t50.5 -94t80.5 -60.5t107.5 -21.5l-29 -62l11 -14l30 4q17 0 28.5 -9.5t11.5 -24.5t-9.5 -25t-24.5 -10q-26 0 -46.5 7t-24.5 9l-12 -33q10 -6 39 -11.5t62 -5.5q31 0 51 19.5t20 49.5q0 32 -18.5 50t-52.5 18h-14l20 40q85 8 142.5 53t79.5 126z" />
<glyph unicode="&#xc8;" horiz-adv-x="575" d="M351 758l-93 138h-76l111 -138h58zM522 0v209h-53v-162h-301v294h187v-89h45v221h-45v-85l-187 1v277h298v-154h52v201h-499v-47h90v-619h-90v-47h503z" />
<glyph unicode="&#xc9;" horiz-adv-x="575" d="M390 896h-76l-92 -138h57zM522 0v209h-53v-162h-301v294h187v-89h45v221h-45v-85l-187 1v277h298v-154h52v201h-499v-47h90v-619h-90v-47h503z" />
<glyph unicode="&#xca;" horiz-adv-x="575" d="M415 758l-97 138h-64l-97 -138h60l69 100l69 -100h60zM522 0v209h-53v-162h-301v294h187v-89h45v221h-45v-85l-187 1v277h298v-154h52v201h-499v-47h90v-619h-90v-47h503z" />
<glyph unicode="&#xcb;" horiz-adv-x="575" d="M408 820q0 15 -10.5 25t-25.5 10t-25.5 -10t-10.5 -25t10.5 -25t25.5 -10t25.5 10t10.5 25zM236 820q0 15 -10.5 25t-25.5 10t-25.5 -10t-10.5 -25t10.5 -25t25.5 -10t25.5 10t10.5 25zM522 0v209h-53v-162h-301v294h187v-89h45v221h-45v-85l-187 1v277h298v-154h52v201 h-499v-47h90v-619h-90v-47h503z" />
<glyph unicode="&#xcc;" horiz-adv-x="277" d="M208 758l-93 138h-76l111 -138h58zM258 0v47h-90v619h90v47h-238v-47h90v-619h-90v-47h238z" />
<glyph unicode="&#xcd;" horiz-adv-x="277" d="M247 896h-76l-92 -138h57zM258 0v47h-90v619h90v47h-238v-47h90v-619h-90v-47h238z" />
<glyph unicode="&#xce;" horiz-adv-x="277" d="M272 758l-97 138h-64l-97 -138h60l69 100l69 -100h60zM258 0v47h-90v619h90v47h-238v-47h90v-619h-90v-47h238z" />
<glyph unicode="&#xcf;" horiz-adv-x="277" d="M265 820q0 15 -10.5 25t-25.5 10t-25.5 -10t-10.5 -25t10.5 -25t25.5 -10t25.5 10t10.5 25zM93 820q0 15 -10.5 25t-25.5 10t-25.5 -10t-10.5 -25t10.5 -25t25.5 -10t25.5 10t10.5 25zM258 0v47h-90v619h90v47h-238v-47h90v-619h-90v-47h238z" />
<glyph unicode="&#xd0;" horiz-adv-x="639" d="M587 294v128q0 139 -72 215t-205 76h-292v-46l90 1v-262h-89v-44h89v-315h-90v-47h279q144 0 217 74t73 220zM524 294q0 -118 -59.5 -182.5t-171.5 -64.5h-126v315h172v44h-172v260h136q105 0 163 -64t58 -176v-132z" />
<glyph unicode="&#xd1;" horiz-adv-x="677" d="M486 870h-40q-5 -41 -37 -41q-21 0 -64 21q-43 22 -70 22q-70 0 -76 -92h39q6 41 38 41q21 0 64 -22q43 -21 70 -21q68 0 76 92zM667 666v47h-228v-47h91v-593q-42 83 -83.5 162.5t-83.5 157.5t-83.5 157.5t-83.5 162.5h-177v-47h90v-619h-90v-47h238v47h-92v606 l343 -653h78v666h81z" />
<glyph unicode="&#xd2;" horiz-adv-x="666" d="M408 758l-93 138h-76l111 -138h58zM616 294v125q0 70 -17.5 126.5t-51 95.5t-82 60t-110.5 21h-44q-62 0 -110 -21t-81.5 -60t-51 -95.5t-17.5 -126.5v-125q0 -71 17.5 -127t51 -95t81.5 -60t110 -21h44q62 0 110.5 21t82 60t51 95t17.5 127zM553 296q0 -121 -51 -189.5 t-151 -68.5h-36q-99 0 -150 68.5t-51 189.5v121q0 121 51 189.5t150 68.5h36q100 0 151 -68.5t51 -189.5v-121z" />
<glyph unicode="&#xd3;" horiz-adv-x="666" d="M447 896h-76l-92 -138h57zM616 294v125q0 70 -17.5 126.5t-51 95.5t-82 60t-110.5 21h-44q-62 0 -110 -21t-81.5 -60t-51 -95.5t-17.5 -126.5v-125q0 -71 17.5 -127t51 -95t81.5 -60t110 -21h44q62 0 110.5 21t82 60t51 95t17.5 127zM553 296q0 -121 -51 -189.5 t-151 -68.5h-36q-99 0 -150 68.5t-51 189.5v121q0 121 51 189.5t150 68.5h36q100 0 151 -68.5t51 -189.5v-121z" />
<glyph unicode="&#xd4;" horiz-adv-x="666" d="M472 758l-97 138h-64l-97 -138h60l69 100l69 -100h60zM616 294v125q0 70 -17.5 126.5t-51 95.5t-82 60t-110.5 21h-44q-62 0 -110 -21t-81.5 -60t-51 -95.5t-17.5 -126.5v-125q0 -71 17.5 -127t51 -95t81.5 -60t110 -21h44q62 0 110.5 21t82 60t51 95t17.5 127zM553 296 q0 -121 -51 -189.5t-151 -68.5h-36q-99 0 -150 68.5t-51 189.5v121q0 121 51 189.5t150 68.5h36q100 0 151 -68.5t51 -189.5v-121z" />
<glyph unicode="&#xd5;" horiz-adv-x="666" d="M487 870h-40q-5 -41 -37 -41q-21 0 -64 21q-43 22 -70 22q-70 0 -76 -92h39q6 41 38 41q21 0 64 -22q43 -21 70 -21q68 0 76 92zM616 294v125q0 70 -17.5 126.5t-51 95.5t-82 60t-110.5 21h-44q-62 0 -110 -21t-81.5 -60t-51 -95.5t-17.5 -126.5v-125q0 -71 17.5 -127 t51 -95t81.5 -60t110 -21h44q62 0 110.5 21t82 60t51 95t17.5 127zM553 296q0 -121 -51 -189.5t-151 -68.5h-36q-99 0 -150 68.5t-51 189.5v121q0 121 51 189.5t150 68.5h36q100 0 151 -68.5t51 -189.5v-121z" />
<glyph unicode="&#xd6;" horiz-adv-x="666" d="M465 820q0 15 -10.5 25t-25.5 10t-25.5 -10t-10.5 -25t10.5 -25t25.5 -10t25.5 10t10.5 25zM293 820q0 15 -10.5 25t-25.5 10t-25.5 -10t-10.5 -25t10.5 -25t25.5 -10t25.5 10t10.5 25zM616 294v125q0 70 -17.5 126.5t-51 95.5t-82 60t-110.5 21h-44q-62 0 -110 -21 t-81.5 -60t-51 -95.5t-17.5 -126.5v-125q0 -71 17.5 -127t51 -95t81.5 -60t110 -21h44q62 0 110.5 21t82 60t51 95t17.5 127zM553 296q0 -121 -51 -189.5t-151 -68.5h-36q-99 0 -150 68.5t-51 189.5v121q0 121 51 189.5t150 68.5h36q100 0 151 -68.5t51 -189.5v-121z" />
<glyph unicode="&#xd7;" horiz-adv-x="619" d="M544 65l-198 198l198 198l-37 37l-198 -198l-198 198l-37 -37l198 -198l-198 -198l37 -37l198 198l198 -198z" />
<glyph unicode="&#xd8;" horiz-adv-x="666" d="M623 709l-26 21l-60 -78q-64 70 -182 70h-44q-62 0 -110 -21t-81.5 -60t-51 -95.5t-17.5 -126.5v-125q0 -131 55 -205l-65 -84l26 -21l60 79q66 -72 184 -72h44q62 0 110.5 21t82 60t51 95t17.5 127v125q0 130 -57 207zM501 605l-356 -465q-31 56 -31 156v121 q0 121 51 189.5t150 68.5h36q99 0 150 -69v-1zM553 296q0 -121 -51 -189.5t-151 -68.5h-36q-97 0 -150 68l-1 1q0 1 -1 2l357 466q33 -56 33 -158v-121z" />
<glyph unicode="&#xd9;" horiz-adv-x="631" d="M386 758l-93 138h-76l111 -138h58zM622 666v47h-228v-47h97v-452q0 -87 -40 -131.5t-119 -44.5h-34q-76 0 -116 45t-40 130v453h96v47h-228v-47h73v-452q0 -223 211 -223h44q103 0 157.5 58t54.5 164v453h72z" />
<glyph unicode="&#xda;" horiz-adv-x="631" d="M425 896h-76l-92 -138h57zM622 666v47h-228v-47h97v-452q0 -87 -40 -131.5t-119 -44.5h-34q-76 0 -116 45t-40 130v453h96v47h-228v-47h73v-452q0 -223 211 -223h44q103 0 157.5 58t54.5 164v453h72z" />
<glyph unicode="&#xdb;" horiz-adv-x="631" d="M450 758l-97 138h-64l-97 -138h60l69 100l69 -100h60zM622 666v47h-228v-47h97v-452q0 -87 -40 -131.5t-119 -44.5h-34q-76 0 -116 45t-40 130v453h96v47h-228v-47h73v-452q0 -223 211 -223h44q103 0 157.5 58t54.5 164v453h72z" />
<glyph unicode="&#xdc;" horiz-adv-x="631" d="M443 820q0 15 -10.5 25t-25.5 10t-25.5 -10t-10.5 -25t10.5 -25t25.5 -10t25.5 10t10.5 25zM271 820q0 15 -10.5 25t-25.5 10t-25.5 -10t-10.5 -25t10.5 -25t25.5 -10t25.5 10t10.5 25zM622 666v47h-228v-47h97v-452q0 -87 -40 -131.5t-119 -44.5h-34q-76 0 -116 45 t-40 130v453h96v47h-228v-47h73v-452q0 -223 211 -223h44q103 0 157.5 58t54.5 164v453h72z" />
<glyph unicode="&#xdd;" horiz-adv-x="598" d="M406 896h-76l-92 -138h57zM597 666v47h-213v-47h89l-173 -301l-171 301h95v47h-222v-47h61l208 -359v-260h-101v-47h261v47h-101v262l206 357h61z" />
<glyph unicode="&#xde;" horiz-adv-x="529" d="M513 354v47q0 88 -49.5 131.5t-146.5 43.5h-149v90h105v47h-255v-47h91v-619h-90v-47h255v47h-106v129h151q194 0 194 178zM451 356q0 -133 -143 -133h-140v307h138q75 0 110 -32t35 -101v-41z" />
<glyph unicode="&#xdf;" d="M445 165v56q0 72 -32.5 112.5t-101.5 48.5q60 7 88 42t28 92v50q0 156 -173 156q-82 0 -128 -42.5t-46 -144.5v-489h-63v-46h154v47h-34v484q0 42 9 70t24.5 44.5t37.5 23.5t48 7q51 0 82.5 -25t31.5 -86v-42q0 -57 -30 -87t-87 -30h-12v-49h14q133 0 133 -133v-50 q0 -57 -26 -92.5t-81 -35.5h-39v-46h52q76 0 113.5 46.5t37.5 118.5z" />
<glyph unicode="&#xe0;" d="M308 620l-93 138h-76l111 -138h58zM469 0v46h-67v361q0 81 -38 123t-114 42h-38q-75 0 -115.5 -35t-40.5 -101v-18h56v12q0 96 103 96h28q52 0 77 -30.5t25 -100.5v-71h-132q-90 0 -131.5 -38.5t-41.5 -114.5v-34q0 -67 33 -107t99 -40q60 0 103 19.5t74 67.5l-1 -77h121 zM345 199q-5 -35 -16.5 -64.5t-30.5 -51.5t-46 -34.5t-63 -12.5q-46 0 -69 30.5t-23 75.5v20q0 58 31 87.5t106 29.5q45 0 68 -4t43 -11v-65z" />
<glyph unicode="&#xe1;" d="M346 758h-76l-92 -138h57zM469 0v46h-67v361q0 81 -38 123t-114 42h-38q-75 0 -115.5 -35t-40.5 -101v-18h56v12q0 96 103 96h28q52 0 77 -30.5t25 -100.5v-71h-132q-90 0 -131.5 -38.5t-41.5 -114.5v-34q0 -67 33 -107t99 -40q60 0 103 19.5t74 67.5l-1 -77h121z M345 199q-5 -35 -16.5 -64.5t-30.5 -51.5t-46 -34.5t-63 -12.5q-46 0 -69 30.5t-23 75.5v20q0 58 31 87.5t106 29.5q45 0 68 -4t43 -11v-65z" />
<glyph unicode="&#xe2;" d="M371 620l-97 138h-64l-97 -138h60l69 100l69 -100h60zM469 0v46h-67v361q0 81 -38 123t-114 42h-38q-75 0 -115.5 -35t-40.5 -101v-18h56v12q0 96 103 96h28q52 0 77 -30.5t25 -100.5v-71h-132q-90 0 -131.5 -38.5t-41.5 -114.5v-34q0 -67 33 -107t99 -40q60 0 103 19.5 t74 67.5l-1 -77h121zM345 199q-5 -35 -16.5 -64.5t-30.5 -51.5t-46 -34.5t-63 -12.5q-46 0 -69 30.5t-23 75.5v20q0 58 31 87.5t106 29.5q45 0 68 -4t43 -11v-65z" />
<glyph unicode="&#xe3;" d="M386 682h-40q-5 -41 -37 -41q-21 0 -64 21q-43 22 -70 22q-70 0 -76 -92h39q6 41 38 41q21 0 64 -22q43 -21 70 -21q68 0 76 92zM469 0v46h-67v361q0 81 -38 123t-114 42h-38q-75 0 -115.5 -35t-40.5 -101v-18h56v12q0 96 103 96h28q52 0 77 -30.5t25 -100.5v-71h-132 q-90 0 -131.5 -38.5t-41.5 -114.5v-34q0 -67 33 -107t99 -40q60 0 103 19.5t74 67.5l-1 -77h121zM345 199q-5 -35 -16.5 -64.5t-30.5 -51.5t-46 -34.5t-63 -12.5q-46 0 -69 30.5t-23 75.5v20q0 58 31 87.5t106 29.5q45 0 68 -4t43 -11v-65z" />
<glyph unicode="&#xe4;" d="M364 632q0 15 -10.5 25t-25.5 10t-25.5 -10t-10.5 -25t10.5 -25t25.5 -10t25.5 10t10.5 25zM192 632q0 15 -10.5 25t-25.5 10t-25.5 -10t-10.5 -25t10.5 -25t25.5 -10t25.5 10t10.5 25zM469 0v46h-67v361q0 81 -38 123t-114 42h-38q-75 0 -115.5 -35t-40.5 -101v-18h56 v12q0 96 103 96h28q52 0 77 -30.5t25 -100.5v-71h-132q-90 0 -131.5 -38.5t-41.5 -114.5v-34q0 -67 33 -107t99 -40q60 0 103 19.5t74 67.5l-1 -77h121zM345 199q-5 -35 -16.5 -64.5t-30.5 -51.5t-46 -34.5t-63 -12.5q-46 0 -69 30.5t-23 75.5v20q0 58 31 87.5t106 29.5 q45 0 68 -4t43 -11v-65z" />
<glyph unicode="&#xe5;" d="M469 0v46h-67v361q0 144 -117 162q19 12 30.5 31.5t11.5 43.5q0 36 -25.5 61.5t-61.5 25.5t-62 -25.5t-26 -61.5q0 -23 11 -42t29 -31q-66 -5 -101 -39.5t-35 -95.5v-18h56v12q0 96 103 96h28q52 0 77 -30.5t25 -100.5v-71h-132q-90 0 -131.5 -38.5t-41.5 -114.5v-34 q0 -67 33 -107t99 -40q60 0 103 19.5t74 67.5l-1 -77h121zM291 644q0 -22 -15 -36.5t-36 -14.5q-22 0 -37 14.5t-15 36.5t15 36.5t37 14.5q21 0 36 -14.5t15 -36.5zM345 199q-5 -35 -16.5 -64.5t-30.5 -51.5t-46 -34.5t-63 -12.5q-46 0 -69 30.5t-23 75.5v20q0 58 31 87.5 t106 29.5q45 0 68 -4t43 -11v-65z" />
<glyph unicode="&#xe6;" horiz-adv-x="720" d="M678 320q7 118 -31.5 185t-113.5 67h-40q-52 0 -82 -24t-44 -66q-24 90 -124 90h-38q-72 0 -110.5 -35t-38.5 -101v-18h56v12q0 49 25 72.5t70 23.5h28q49 0 71 -30.5t23 -100.5l1 -78l-126 7q-85 5 -124.5 -36t-39.5 -117v-34q0 -67 34.5 -107t103.5 -40q75 0 116 26.5 t57 86.5q15 -60 52 -86.5t86 -26.5h46q27 0 51.5 11.5t43 33.5t29.5 54.5t11 74.5v13h-51v-9q0 -28 -6.5 -52t-18.5 -42t-29.5 -28t-39.5 -10h-36q-54 0 -80.5 54.5t-26.5 151.5v25h293zM621 343l-4 -31h-235v10q0 93 26.5 148.5t77.5 55.5h30q54 0 79.5 -47.5t25.5 -135.5z M330 267l-1 -68q-5 -35 -15.5 -64.5t-28.5 -51.5t-43.5 -34.5t-59.5 -12.5q-43 0 -64 30.5t-21 75.5v20q0 58 29.5 87.5t99.5 29.5q27 0 52 -3t37.5 -6t14.5 -3z" />
<glyph unicode="&#xe7;" horiz-adv-x="465" d="M431 175h-51q-3 -25 -10.5 -50t-19.5 -44.5t-29.5 -32t-39.5 -12.5h-38q-32 0 -57 15t-42 43t-26.5 66.5t-9.5 85.5v72q0 47 9 85.5t26.5 65.5t42 42t56.5 15q63 0 96.5 -30.5t44.5 -87.5v-19h47v173h-31v-60q-27 31 -64 50.5t-97 19.5q-90 0 -138 -66t-48 -183v-84 q0 -112 46 -179t131 -70l-29 -61l11 -14l30 4q17 0 28.5 -9.5t11.5 -24.5t-9.5 -25t-24.5 -10q-26 0 -46.5 7t-24.5 9l-12 -33q10 -6 39 -11.5t62 -5.5q31 0 51 19.5t20 49.5q0 32 -18.5 50t-52.5 18h-14l19 37h25q55 0 93 49t43 136z" />
<glyph unicode="&#xe8;" horiz-adv-x="477" d="M317 610l-93 138h-76l111 -138h58zM442 267v53q0 118 -45.5 185t-133.5 67h-40q-91 0 -136 -67t-45 -188v-78q0 -120 46 -184.5t140 -64.5h46q63 0 106.5 44.5t53.5 129.5v13h-51v-9q-5 -56 -34 -94t-82 -38h-36q-66 0 -99.5 54.5t-33.5 151.5v25h344zM385 312h-287v10 q0 46 8.5 83.5t25 64.5t40.5 41.5t54 14.5h30q63 0 96 -47.5t33 -135.5v-31z" />
<glyph unicode="&#xe9;" horiz-adv-x="477" d="M356 748h-76l-92 -138h57zM442 267v53q0 118 -45.5 185t-133.5 67h-40q-91 0 -136 -67t-45 -188v-78q0 -120 46 -184.5t140 -64.5h46q63 0 106.5 44.5t53.5 129.5v13h-51v-9q-5 -56 -34 -94t-82 -38h-36q-66 0 -99.5 54.5t-33.5 151.5v25h344zM385 312h-287v10 q0 46 8.5 83.5t25 64.5t40.5 41.5t54 14.5h30q63 0 96 -47.5t33 -135.5v-31z" />
<glyph unicode="&#xea;" horiz-adv-x="477" d="M381 610l-97 138h-64l-97 -138h60l69 100l69 -100h60zM442 267v53q0 118 -45.5 185t-133.5 67h-40q-91 0 -136 -67t-45 -188v-78q0 -120 46 -184.5t140 -64.5h46q63 0 106.5 44.5t53.5 129.5v13h-51v-9q-5 -56 -34 -94t-82 -38h-36q-66 0 -99.5 54.5t-33.5 151.5v25h344z M385 312h-287v10q0 46 8.5 83.5t25 64.5t40.5 41.5t54 14.5h30q63 0 96 -47.5t33 -135.5v-31z" />
<glyph unicode="&#xeb;" horiz-adv-x="477" d="M374 632q0 15 -10.5 25t-25.5 10t-25.5 -10t-10.5 -25t10.5 -25t25.5 -10t25.5 10t10.5 25zM202 632q0 15 -10.5 25t-25.5 10t-25.5 -10t-10.5 -25t10.5 -25t25.5 -10t25.5 10t10.5 25zM442 267v53q0 118 -45.5 185t-133.5 67h-40q-91 0 -136 -67t-45 -188v-78 q0 -120 46 -184.5t140 -64.5h46q63 0 106.5 44.5t53.5 129.5v13h-51v-9q-5 -56 -34 -94t-82 -38h-36q-66 0 -99.5 54.5t-33.5 151.5v25h344zM385 312h-287v10q0 46 8.5 83.5t25 64.5t40.5 41.5t54 14.5h30q63 0 96 -47.5t33 -135.5v-31z" />
<glyph unicode="&#xec;" horiz-adv-x="245" d="M177 610l-93 138h-76l111 -138h58zM225 0v46h-74v516h-136v-46h78v-470h-78v-46h210z" />
<glyph unicode="&#xed;" horiz-adv-x="245" d="M216 748h-76l-92 -138h57zM225 0v46h-74v516h-136v-46h78v-470h-78v-46h210z" />
<glyph unicode="&#xee;" horiz-adv-x="245" d="M241 610l-97 138h-64l-97 -138h60l69 100l69 -100h60zM225 0v46h-74v516h-136v-46h78v-470h-78v-46h210z" />
<glyph unicode="&#xef;" horiz-adv-x="245" d="M234 632q0 15 -10.5 25t-25.5 10t-25.5 -10t-10.5 -25t10.5 -25t25.5 -10t25.5 10t10.5 25zM62 632q0 15 -10.5 25t-25.5 10t-25.5 -10t-10.5 -25t10.5 -25t25.5 -10t25.5 10t10.5 25zM225 0v46h-74v516h-136v-46h78v-470h-78v-46h210z" />
<glyph unicode="&#xf0;" horiz-adv-x="496" d="M456 236v82q0 139 -79 228q-14 16 -37 36t-55 45l105 48l-31 32l-115 -53q-38 26 -127 68l-29 -27q76 -18 135 -50l-124 -57l27 -32l138 62h1q75 -52 100 -118q-28 30 -66 40t-78 10q-42 0 -75.5 -17.5t-56.5 -49t-35.5 -76t-12.5 -98.5v-84q0 -53 13 -96t36.5 -74.5 t57 -48.5t75.5 -17h54q42 0 75 17.5t56.5 50t35.5 78t12 101.5zM399 234q0 -91 -35.5 -145t-99.5 -54h-30q-64 0 -100 54t-36 142v72q0 45 9 82t26 63.5t42 41t57 14.5h34q65 0 99 -56t34 -148v-66z" />
<glyph unicode="&#xf1;" horiz-adv-x="529" d="M423 682h-40q-5 -41 -37 -41q-21 0 -64 21q-43 22 -70 22q-70 0 -76 -92h39q6 41 38 41q21 0 64 -22q43 -21 70 -21q68 0 76 92zM514 0v46h-72v351q0 85 -33.5 130t-102.5 45q-48 0 -89 -15.5t-67 -55.5v61h-135v-46h78v-470h-77v-46h206v46h-72v325q0 34 10.5 62.5 t29 49t44.5 32t58 11.5q48 0 70.5 -37t22.5 -106v-337h-78v-46h207z" />
<glyph unicode="&#xf2;" horiz-adv-x="496" d="M318 610l-93 138h-76l111 -138h58zM457 243v76q0 117 -47.5 185t-135.5 68h-50q-87 0 -134.5 -68t-47.5 -185v-76q0 -117 47.5 -185t134.5 -68h50q87 0 135 68t48 185zM400 248q0 -97 -35 -154.5t-101 -57.5h-30q-66 0 -100.5 57.5t-34.5 154.5v66q0 97 34.5 154.5 t100.5 57.5h30q66 0 101 -57.5t35 -154.5v-66z" />
<glyph unicode="&#xf3;" horiz-adv-x="496" d="M357 748h-76l-92 -138h57zM457 243v76q0 117 -47.5 185t-135.5 68h-50q-87 0 -134.5 -68t-47.5 -185v-76q0 -117 47.5 -185t134.5 -68h50q87 0 135 68t48 185zM400 248q0 -97 -35 -154.5t-101 -57.5h-30q-66 0 -100.5 57.5t-34.5 154.5v66q0 97 34.5 154.5t100.5 57.5h30 q66 0 101 -57.5t35 -154.5v-66z" />
<glyph unicode="&#xf4;" horiz-adv-x="496" d="M382 610l-97 138h-64l-97 -138h60l69 100l69 -100h60zM457 243v76q0 117 -47.5 185t-135.5 68h-50q-87 0 -134.5 -68t-47.5 -185v-76q0 -117 47.5 -185t134.5 -68h50q87 0 135 68t48 185zM400 248q0 -97 -35 -154.5t-101 -57.5h-30q-66 0 -100.5 57.5t-34.5 154.5v66 q0 97 34.5 154.5t100.5 57.5h30q66 0 101 -57.5t35 -154.5v-66z" />
<glyph unicode="&#xf5;" horiz-adv-x="496" d="M397 682h-40q-5 -41 -37 -41q-21 0 -64 21q-43 22 -70 22q-70 0 -76 -92h39q6 41 38 41q21 0 64 -22q43 -21 70 -21q68 0 76 92zM457 243v76q0 117 -47.5 185t-135.5 68h-50q-87 0 -134.5 -68t-47.5 -185v-76q0 -117 47.5 -185t134.5 -68h50q87 0 135 68t48 185zM400 248 q0 -97 -35 -154.5t-101 -57.5h-30q-66 0 -100.5 57.5t-34.5 154.5v66q0 97 34.5 154.5t100.5 57.5h30q66 0 101 -57.5t35 -154.5v-66z" />
<glyph unicode="&#xf6;" horiz-adv-x="496" d="M375 632q0 15 -10.5 25t-25.5 10t-25.5 -10t-10.5 -25t10.5 -25t25.5 -10t25.5 10t10.5 25zM203 632q0 15 -10.5 25t-25.5 10t-25.5 -10t-10.5 -25t10.5 -25t25.5 -10t25.5 10t10.5 25zM457 243v76q0 117 -47.5 185t-135.5 68h-50q-87 0 -134.5 -68t-47.5 -185v-76 q0 -117 47.5 -185t134.5 -68h50q87 0 135 68t48 185zM400 248q0 -97 -35 -154.5t-101 -57.5h-30q-66 0 -100.5 57.5t-34.5 154.5v66q0 97 34.5 154.5t100.5 57.5h30q66 0 101 -57.5t35 -154.5v-66z" />
<glyph unicode="&#xf7;" horiz-adv-x="619" d="M350 418v75h-74v-75h74zM586 235v56h-552v-56h552zM350 -2v75h-74v-75h74z" />
<glyph unicode="&#xf8;" horiz-adv-x="496" d="M469 559l-25 22l-47 -65q-44 56 -124 56h-50q-87 0 -134 -68t-47 -185v-76q0 -106 36 -167l-52 -72l25 -21l46 64q43 -57 126 -57h50q86 0 133 68t47 185v76q0 106 -36 168zM361 467l-244 -338q-18 45 -18 119v66q0 97 34 154.5t100 57.5h30q64 0 98 -58v-1zM396 248 q0 -97 -34.5 -154.5t-98.5 -57.5h-30q-66 0 -100 57q0 1 -1 2l246 338q18 -44 18 -119v-66z" />
<glyph unicode="&#xf9;" horiz-adv-x="529" d="M329 600l-93 138h-76l111 -138h58zM513 0v46h-75v516h-131v-46h74v-325q0 -33 -10.5 -61.5t-29.5 -49t-44.5 -32.5t-55.5 -12q-52 0 -74.5 35t-22.5 107v384h-127v-46h70v-346q0 -88 33 -134t102 -46q52 0 93.5 19.5t66.5 58.5v-68h131z" />
<glyph unicode="&#xfa;" horiz-adv-x="529" d="M368 738h-76l-92 -138h57zM513 0v46h-75v516h-131v-46h74v-325q0 -33 -10.5 -61.5t-29.5 -49t-44.5 -32.5t-55.5 -12q-52 0 -74.5 35t-22.5 107v384h-127v-46h70v-346q0 -88 33 -134t102 -46q52 0 93.5 19.5t66.5 58.5v-68h131z" />
<glyph unicode="&#xfb;" horiz-adv-x="529" d="M393 600l-97 138h-64l-97 -138h60l69 100l69 -100h60zM513 0v46h-75v516h-131v-46h74v-325q0 -33 -10.5 -61.5t-29.5 -49t-44.5 -32.5t-55.5 -12q-52 0 -74.5 35t-22.5 107v384h-127v-46h70v-346q0 -88 33 -134t102 -46q52 0 93.5 19.5t66.5 58.5v-68h131z" />
<glyph unicode="&#xfc;" horiz-adv-x="529" d="M386 632q0 15 -10.5 25t-25.5 10t-25.5 -10t-10.5 -25t10.5 -25t25.5 -10t25.5 10t10.5 25zM214 632q0 15 -10.5 25t-25.5 10t-25.5 -10t-10.5 -25t10.5 -25t25.5 -10t25.5 10t10.5 25zM513 0v46h-75v516h-131v-46h74v-325q0 -33 -10.5 -61.5t-29.5 -49t-44.5 -32.5 t-55.5 -12q-52 0 -74.5 35t-22.5 107v384h-127v-46h70v-346q0 -88 33 -134t102 -46q52 0 93.5 19.5t66.5 58.5v-68h131z" />
<glyph unicode="&#xfd;" d="M350 708h-76l-92 -138h57zM475 516v46h-168v-46h71l-132 -426l-130 426h71v46h-178v-46h49l159 -502l-37 -115q-5 -11 -9 -22l-4 -11h-70v-46h125v46l12 30l200 620h41z" />
<glyph unicode="&#xfe;" horiz-adv-x="523" d="M483 240v82q0 115 -44.5 182.5t-129.5 67.5q-54 0 -97.5 -19.5t-73.5 -61.5v222h-136v-46h78v-791h-72v-46h205v46h-75v192q28 -42 72.5 -60t95.5 -18q85 0 131 67.5t46 182.5zM426 245q0 -96 -35 -152.5t-98 -56.5q-36 0 -65.5 13.5t-50 37.5t-32 58t-11.5 76v104 q0 97 43.5 149t115.5 52q64 0 98.5 -56t34.5 -153v-72z" />
<glyph unicode="&#xff;" d="M368 632q0 15 -10.5 25t-25.5 10t-25.5 -10t-10.5 -25t10.5 -25t25.5 -10t25.5 10t10.5 25zM196 632q0 15 -10.5 25t-25.5 10t-25.5 -10t-10.5 -25t10.5 -25t25.5 -10t25.5 10t10.5 25zM475 516v46h-168v-46h71l-132 -426l-130 426h71v46h-178v-46h49l159 -502l-37 -115 q-5 -11 -9 -22l-4 -11h-70v-46h125v46l12 30l200 620h41z" />
<glyph unicode="&#x152;" horiz-adv-x="901" d="M851 0v209h-53v-162h-284v294h170v-89h45v221h-45v-85l-170 1v277h281v-154h52v201h-382q-27 4 -63 6.5t-78 2.5q-137 0 -205.5 -75.5t-68.5 -223.5v-135q0 -69 17.5 -124t50.5 -93.5t80 -59t107 -20.5q23 0 44.5 0.5t41.5 1.5t37 3t32 4h391zM460 64q0 -11 -31.5 -18.5 t-74.5 -7.5h-46q-94 0 -144.5 67.5t-50.5 185.5v130q0 126 51.5 190t159.5 64h44q39 0 65.5 -7.5t26.5 -20.5v-583z" />
<glyph unicode="&#x153;" horiz-adv-x="760" d="M723 320q0 118 -37.5 185t-113.5 67h-40q-51 0 -87 -29.5t-52 -86.5q-5 22 -15 43t-26 37t-39 26t-53 10h-50q-82 0 -125 -68t-43 -185v-76q0 -117 41 -185t121 -68h50q57 0 91.5 31.5t47.5 80.5q14 -51 50.5 -81.5t93.5 -30.5h46q26 0 50 11.5t42 33.5t29 54.5t11 74.5 v13h-51v-9q0 -28 -6.5 -52t-19.5 -42t-31 -28t-40 -10h-36q-57 0 -84 54.5t-27 151.5v25h297zM666 343l-3 -31h-243v10q0 93 28 148.5t80 55.5h30q54 0 81 -47.5t27 -135.5zM368 248q0 -97 -30.5 -154.5t-88.5 -57.5h-30q-60 0 -90 57.5t-30 154.5v66q0 97 30 154.5t90 57.5 h30q58 0 88.5 -57.5t30.5 -154.5v-66z" />
<glyph unicode="&#x178;" horiz-adv-x="598" d="M424 820q0 15 -10.5 25t-25.5 10t-25.5 -10t-10.5 -25t10.5 -25t25.5 -10t25.5 10t10.5 25zM252 820q0 15 -10.5 25t-25.5 10t-25.5 -10t-10.5 -25t10.5 -25t25.5 -10t25.5 10t10.5 25zM597 666v47h-213v-47h89l-173 -301l-171 301h95v47h-222v-47h61l208 -359v-260h-101 v-47h261v47h-101v262l206 357h61z" />
<glyph unicode="&#x2c6;" horiz-adv-x="262" d="M260 570l-97 138h-64l-97 -138h60l69 100l69 -100h60z" />
<glyph unicode="&#x2dc;" horiz-adv-x="262" d="M275 682h-40q-5 -41 -37 -41q-21 0 -64 21q-43 22 -70 22q-70 0 -76 -92h39q6 41 38 41q21 0 64 -22q43 -21 70 -21q68 0 76 92z" />
<glyph unicode="&#x2000;" horiz-adv-x="452" />
<glyph unicode="&#x2001;" horiz-adv-x="904" />
<glyph unicode="&#x2002;" horiz-adv-x="452" />
<glyph unicode="&#x2003;" horiz-adv-x="904" />
<glyph unicode="&#x2004;" horiz-adv-x="301" />
<glyph unicode="&#x2005;" horiz-adv-x="226" />
<glyph unicode="&#x2006;" horiz-adv-x="150" />
<glyph unicode="&#x2007;" horiz-adv-x="150" />
<glyph unicode="&#x2008;" horiz-adv-x="113" />
<glyph unicode="&#x2009;" horiz-adv-x="180" />
<glyph unicode="&#x200a;" horiz-adv-x="50" />
<glyph unicode="&#x2010;" horiz-adv-x="354" d="M300 327v48h-245v-48h245z" />
<glyph unicode="&#x2011;" horiz-adv-x="354" d="M300 327v48h-245v-48h245z" />
<glyph unicode="&#x2012;" horiz-adv-x="354" d="M300 327v48h-245v-48h245z" />
<glyph unicode="&#x2013;" horiz-adv-x="500" d="M493 245v45h-486v-45h486z" />
<glyph unicode="&#x2014;" horiz-adv-x="883" d="M876 245v45h-869v-45h869z" />
<glyph unicode="&#x2018;" horiz-adv-x="253" d="M176 713h-46l-58 -162v-52h27q34 0 37 -1q4 0 4 27v26h-21z" />
<glyph unicode="&#x2019;" horiz-adv-x="253" d="M176 661v52h-25h-39q-4 0 -4 -24v-28h22l-58 -162h46z" />
<glyph unicode="&#x201a;" horiz-adv-x="232" d="M157 2v23v52q-18 0 -36 -0.5t-37 -0.5v-74h19l-50 -139h47l56 138z" />
<glyph unicode="&#x201c;" horiz-adv-x="401" d="M328 713h-46l-58 -162v-52h27q34 0 37 -1q4 0 4 27v26h-21zM175 713h-46l-58 -162v-52h27q34 0 37 -1q4 0 4 27v26h-21z" />
<glyph unicode="&#x201d;" horiz-adv-x="401" d="M328 661v52h-25h-39q-4 0 -4 -24v-28h22l-58 -162h46zM175 661v52h-25h-39q-4 0 -4 -24v-28h22l-58 -162h46z" />
<glyph unicode="&#x201e;" horiz-adv-x="401" d="M337 2v23v52q-18 0 -36 -0.5t-37 -0.5v-74h19l-50 -139h47l56 138zM175 41v52v-52zM157 2v23v52q-18 0 -36 -0.5t-37 -0.5v-74h19l-50 -139h47l56 138z" />
<glyph unicode="&#x2022;" horiz-adv-x="401" d="M329 360q0 25 -9.5 47.5t-26 39t-39 26t-48.5 9.5t-48 -9.5t-38.5 -26t-26 -39t-9.5 -47.5q0 -26 9.5 -48t26 -38.5t39 -26t48.5 -9.5q25 0 47.5 9.5t39 26t26 38.5t9.5 48z" />
<glyph unicode="&#x2026;" horiz-adv-x="1000" d="M870 -2v75h-74v-75h74zM540 -2v75h-74v-75h74zM210 -2v75h-74v-75h74z" />
<glyph unicode="&#x202f;" horiz-adv-x="180" />
<glyph unicode="&#x2039;" horiz-adv-x="258" d="M195 454l-46 8l-92 -202l91 -202l46 8l-86 194z" />
<glyph unicode="&#x203a;" horiz-adv-x="258" d="M202 260l-93 202l-46 -8l88 -194l-87 -194l46 -8z" />
<glyph unicode="&#x205f;" horiz-adv-x="226" />
<glyph unicode="&#x2122;" horiz-adv-x="929" d="M839 320v26h-50v341h50v26h-102l-116 -320l-116 320h-104v-26h51v-341h-50v-26h127v26h-46v341l123 -339h28l124 339v-341h-46v-26h127zM332 592v121h-288v-121h29v93h99v-339h-60v-26h153v26h-60v339h98v-93h29z" />
<glyph unicode="&#xe000;" horiz-adv-x="560" d="M0 560h560v-560h-560v560z" />
</font>
</defs>
</svg>
