<?xml version="1.0" standalone="no"?>
<!DOCTYPE svg PUBLIC "-//W3C//DTD SVG 1.1//EN" "http://www.w3.org/Graphics/SVG/1.1/DTD/svg11.dtd" >
<svg xmlns="http://www.w3.org/2000/svg">
<metadata></metadata>
<defs>
<font id="panefresco_750wtregular" horiz-adv-x="530" >
<font-face units-per-em="1000" ascent="750" descent="-250" />
<missing-glyph horiz-adv-x="235" />
<glyph horiz-adv-x="1000" />
<glyph horiz-adv-x="1000" />
<glyph unicode="&#xd;" horiz-adv-x="235" />
<glyph unicode=" "  horiz-adv-x="235" />
<glyph unicode="&#x09;" horiz-adv-x="235" />
<glyph unicode="&#xa0;" horiz-adv-x="235" />
<glyph unicode="!" horiz-adv-x="463" d="M177 144h118l1 -144h-118zM176 700h119l-3 -452h-113z" />
<glyph unicode="&#x22;" horiz-adv-x="336" d="M208 447l-2 245h106l-4 -245h-100zM38 447l-2 245h106l-4 -245h-100z" />
<glyph unicode="#" d="M422 171l1 -171h-96l-1 171h-125l1 -171h-96l-1 171h-102v92h102v136h-102v92h102v171h96v-171h125v171h96v-171h102v-92h-102v-136h102v-92h-102zM326 399h-125v-136h125v136z" />
<glyph unicode="$" d="M477 558q-29 3 -59 6q-26 2 -57 4t-59 3v-186q35 -15 70.5 -32.5t64.5 -41t47 -55.5t18 -76q0 -39 -9 -72.5t-32 -58.5t-61.5 -40.5t-97.5 -18.5l1 -110l-50 7l-1 102q-52 2 -105 8.5t-88 14.5l6 91q17 -2 39.5 -4.5t48 -4.5t51 -3.5t48.5 -2.5v209l-8 4q-35 15 -70 32 t-62.5 39t-45 51.5t-17.5 70.5q0 35 10.5 66t34.5 54.5t62.5 38.5t95.5 18v119h50v-119q46 -2 93 -9.5t87 -13.5zM390 179q0 32 -25 54.5t-63 40.5v-184q36 5 62 26t26 63zM160 494q0 -30 26.5 -50.5t65.5 -37.5v165q-44 -4 -68 -23.5t-24 -53.5z" />
<glyph unicode="%" d="M127 633q-20 0 -26.5 -18t-6.5 -56t6.5 -57t26.5 -19t27 18.5t7 57.5q0 38 -7 56t-27 18zM339 715l73 -24l-220 -709l-73 24zM11 559q0 73 30.5 107.5t85.5 34.5t85.5 -34.5t30.5 -107.5t-30.5 -108.5t-85.5 -35.5t-85.5 35.5t-30.5 108.5zM293 144q0 73 30.5 107.5 t85.5 34.5t85.5 -34.5t30.5 -107.5t-30 -108.5t-85 -35.5t-86 35.5t-31 108.5zM375 144q0 -39 7 -57.5t27 -18.5t26.5 18.5t6.5 57.5q0 38 -6.5 56t-26.5 18t-27 -18t-7 -56z" />
<glyph unicode="&#x26;" horiz-adv-x="700" d="M317 706q90 0 143 -42t53 -123q0 -35 -8.5 -62t-26 -51t-45 -45.5t-65.5 -44.5l109 -108q3 9 7.5 25.5t9 35.5t8 37t5.5 30l105 -2q-3 -24 -9 -51t-13.5 -53t-15 -49.5t-13.5 -40.5l111 -105l-64 -70l-102 92q-25 -25 -48.5 -42.5t-49.5 -28t-57 -15t-70 -4.5 q-118 0 -180.5 58.5t-61.5 164.5q0 35 10.5 64.5t30 53t46 41.5t58.5 31q-15 19 -25 35t-16 33t-9 36.5t-3 43.5q0 37 14 66t38.5 49t58.5 30.5t75 10.5zM278 89q46 0 79 13.5t67 43.5l-174 182q-45 -14 -72.5 -45.5t-27.5 -73.5q0 -56 31.5 -88t96.5 -32zM241 535 q0 -32 9.5 -59t33.5 -50l21 -21q50 28 73.5 55.5t23.5 69.5q0 77 -80 77q-37 0 -59 -18.5t-22 -53.5z" />
<glyph unicode="'" horiz-adv-x="100" d="M-7 692h105l-4 -240h-100z" />
<glyph unicode="(" horiz-adv-x="260" d="M232 750q-27 -76 -48 -154q-18 -67 -32.5 -145.5t-14.5 -149.5q0 -70 14.5 -145t32.5 -138q21 -73 48 -143h-118q-28 66 -49 138q-18 61 -33 137t-15 151q0 37 4 76.5t11 78t15.5 75t17.5 69.5q21 77 49 150h118z" />
<glyph unicode=")" horiz-adv-x="260" d="M11 -120q26 76 47 154q9 33 17 70t15 75t11 76t4 74q0 70 -15 145t-33 138q-21 73 -47 143h118q27 -67 48 -138q18 -62 33.5 -137.5t15.5 -150.5q0 -38 -4.5 -77t-11 -78t-15.5 -75.5t-18 -69.5q-21 -77 -48 -149h-117z" />
<glyph unicode="*" d="M318 489l39 -117l-77 -24l-39 119l-102 -77l-47 62l103 75l-101 74l47 65l99 -71l41 118l77 -27l-40 -116h123v-81h-123z" />
<glyph unicode="+" d="M40 336h169v174h112v-174h172v-108h-172v-173h-112v173h-169v108z" />
<glyph unicode="," horiz-adv-x="170" d="M7 -123q13 27 25 56.5t19.5 61t9.5 64t-5 65.5h118q10 -66 -7.5 -126.5t-51.5 -120.5h-108z" />
<glyph unicode="-" horiz-adv-x="440" d="M69 322h300v-103h-300v103z" />
<glyph unicode="." horiz-adv-x="248" d="M57 144h118l1 -144h-118z" />
<glyph unicode="/" d="M350 715l104 -36l-282 -697l-104 36z" />
<glyph unicode="0" d="M264 671q56 0 101.5 -17t77.5 -57.5t49.5 -107t17.5 -166.5q0 -97 -17.5 -161.5t-50 -102.5t-78 -54t-100.5 -16q-56 0 -101.5 16t-77.5 54t-49.5 102.5t-17.5 161.5q0 100 17.5 167t49.5 107t77.5 57t101.5 17zM264 568q-32 0 -56 -12t-39.5 -40.5t-23 -75.5t-7.5 -117 q0 -68 8 -112.5t23.5 -71t39.5 -37t56 -10.5q31 0 54.5 10.5t39 37t23 71t7.5 112.5q0 70 -7 117t-22.5 75.5t-39 40.5t-56.5 12z" />
<glyph unicode="1" d="M255 660h105l1 -660h-112l-1 531l-149 -101l-52 88z" />
<glyph unicode="2" d="M50 0l-1 101l164 163q31 32 55.5 58.5t41 51t25.5 48.5t9 50q0 48 -26.5 71t-86.5 23q-26 0 -55.5 -3t-55.5 -7q-30 -4 -59 -10l-8 99q32 7 65 13q29 5 64 9t70 4q103 0 156 -49t53 -143q0 -39 -7 -69t-22 -58t-39 -56.5t-58 -62.5l-132 -128h270l1 -105h-424z" />
<glyph unicode="3" d="M59 646q32 7 65 12q29 5 62 9t65 4q117 0 167.5 -46.5t51.5 -136.5q0 -32 -8.5 -54.5t-21.5 -38t-28 -26.5t-28 -20q22 -10 40.5 -23t31.5 -31.5t20 -44t7 -61.5q-1 -103 -54 -151.5t-163 -48.5q-37 0 -75 3t-69 8q-37 5 -71 12l11 96q34 -4 67 -7q29 -3 61.5 -5t60.5 -2 q57 0 86.5 25t29.5 73q0 50 -30 70.5t-78 22.5h-129v98h128q18 0 35 8t30.5 21t21.5 30t8 35q0 48 -28.5 70t-79.5 22q-31 0 -61.5 -3t-56.5 -6q-30 -4 -57 -9l-11 95v0z" />
<glyph unicode="4" d="M316 113h-290v90l179 457h122l-174 -442h163v188h112v-188h69v-105h-69v-121h-112v121z" />
<glyph unicode="5" d="M464 661v-106h-285l-16 -164q20 7 39 13q17 5 36.5 9t36.5 4q48 0 87.5 -12t67 -37.5t42.5 -64.5t15 -93q0 -58 -15.5 -99.5t-44.5 -68.5t-70 -40t-90 -13q-38 0 -77.5 4.5t-71.5 10.5q-38 7 -74 16l13 97q36 -7 72 -12q31 -5 66.5 -8.5t67.5 -3.5q47 0 77.5 28.5 t30.5 88.5q0 56 -28.5 80.5t-78.5 24.5q-25 0 -46.5 -4t-37.5 -9q-19 -5 -35 -12l-88 18l21 353h386z" />
<glyph unicode="6" d="M470 551q-29 4 -59 8q-26 3 -57.5 5.5t-60.5 2.5q-72 0 -109 -45t-38 -140l13 5t33 12t44.5 12.5t47.5 5.5q104 0 162 -52t58 -161q0 -110 -61.5 -162.5t-171.5 -52.5q-121 0 -181 87.5t-60 252.5q0 97 19.5 163t54.5 105.5t83 56.5t106 17q28 0 60 -3.5t61 -7.5 q33 -4 66 -10zM275 319q-23 0 -46 -4t-42 -9q-22 -6 -42 -13q0 -41 7 -77.5t22 -64.5t39 -44t58 -16q55 0 86 30t31 89q0 56 -30.5 82.5t-82.5 26.5z" />
<glyph unicode="7" d="M54 661h406v-137l-240 -540l-110 31l229 511v29h-285v106z" />
<glyph unicode="8" d="M268 672q50 0 93.5 -12.5t75 -36t50 -58t18.5 -77.5q0 -30 -5 -51t-15.5 -37t-27.5 -29.5t-41 -28.5q45 -24 71.5 -62.5t26.5 -99.5q0 -53 -19 -89.5t-52.5 -59.5t-78.5 -33.5t-97 -10.5q-51 0 -95.5 11t-77.5 34.5t-52 60t-19 88.5q0 33 7.5 57.5t20.5 43.5t30.5 33 t37.5 27q-23 15 -39.5 31.5t-26.5 35.5t-14.5 41.5t-4.5 50.5q0 43 17.5 75t48.5 53.5t74 32t94 10.5zM267 89q58 0 92.5 24t34.5 81q0 38 -21 60t-59 35h-94q-39 -14 -58 -37t-19 -60q0 -55 33.5 -79t90.5 -24zM268 570q-54 0 -84 -22t-30 -69q0 -34 16 -55.5t50 -38.5h94 q35 17 52 38.5t17 54.5q0 47 -29.5 69.5t-85.5 22.5z" />
<glyph unicode="9" d="M60 108q29 -4 59 -8q26 -3 57 -5.5t61 -2.5q73 0 110 46.5t38 134.5l-13 -4.5t-33.5 -10t-44 -10.5t-44.5 -5q-49 0 -90.5 14t-71.5 42t-46.5 68.5t-16.5 93.5t18 92.5t49 65.5t73.5 39t92.5 13q119 0 181 -87.5t62 -257.5q0 -97 -19.5 -162t-54 -104t-83.5 -55t-107 -16 q-28 0 -60.5 3t-60.5 7q-33 4 -66 11zM254 343q22 0 45 3t43 8q23 4 44 11q0 46 -8 83.5t-24 64.5t-39.5 41.5t-56.5 14.5q-51 0 -83.5 -30.5t-32.5 -86.5t30 -82.5t82 -26.5z" />
<glyph unicode=":" horiz-adv-x="208" d="M44 447h118v-144h-118v144zM44 144h118l1 -144h-118z" />
<glyph unicode=";" horiz-adv-x="223" d="M68 139h118l-73 -255h-101zM60 447h118v-144h-118v144z" />
<glyph unicode="&#x3c;" d="M191 293l235 -137v-115l-342 193v114l342 191v-115z" />
<glyph unicode="=" d="M53 425h421v-106h-421v106zM53 224h421v-107h-421v107z" />
<glyph unicode="&#x3e;" d="M96 430l1 109l342 -191v-114l-342 -193v121l234 137z" />
<glyph unicode="?" horiz-adv-x="386" d="M392 517q0 -35 -12.5 -64t-31 -53t-40 -45t-40 -39.5t-30.5 -36.5t-12 -36v-38h-111q-2 11 -3 22q-2 9 -2.5 18.5t-0.5 15.5q0 26 12 49.5t30 45.5t39 42t39 39t30 37.5t12 36.5q0 23 -3.5 40.5t-14.5 29t-30.5 17.5t-51.5 6q-19 0 -45 -3.5t-49 -8.5q-27 -5 -56 -12 l-13 98q32 9 64 17q27 7 57 12.5t53 5.5q107 0 158.5 -45.5t51.5 -150.5zM109 137h118l1 -137h-118z" />
<glyph unicode="@" horiz-adv-x="985" d="M940 281q0 -89 -13 -145.5t-37 -89t-58.5 -44.5t-78.5 -12q-45 0 -74.5 10t-49.5 38q-14 -7 -33 -15.5t-40.5 -15.5t-44 -11.5t-43.5 -4.5q-40 0 -73.5 12.5t-57.5 42.5t-37.5 79.5t-13.5 123.5q0 62 8.5 110.5t30.5 81.5t59.5 50.5t96.5 17.5q14 0 31.5 -3.5t33.5 -8.5 q18 -5 38 -11v14h109v-200q0 -71 3 -112t9.5 -61.5t18 -26t29.5 -5.5q19 0 33 6.5t23.5 26.5t14 58.5t4.5 101.5v18q0 85 -18.5 145t-57.5 98t-100.5 56t-147.5 18q-175 0 -264 -89t-89 -273q0 -99 19.5 -168.5t62 -113t109.5 -63t161 -19.5q15 0 39 1t47 3q27 2 57 5 l4 -103q-29 -3 -56 -5q-23 -2 -48 -3.5t-43 -1.5q-111 0 -197 24t-144.5 79.5t-88.5 147t-30 226.5q0 121 32.5 207.5t92.5 141.5t145 81t190 26q223 0 330 -110.5t107 -317.5v-17zM476 98q30 0 61.5 9t54.5 17q-5 26 -6.5 58t-1.5 73v136q-15 3 -29 7q-12 3 -26 5.5 t-25 2.5q-34 0 -55 -8.5t-33 -28t-16 -51t-4 -77.5q0 -44 6 -71.5t16.5 -43.5t25.5 -22t32 -6z" />
<glyph unicode="A" horiz-adv-x="605" d="M172 592q4 19 15 37t28.5 32t42.5 22.5t58 8.5h93l167 -692h-110l-42 143h-243l-35 -143h-117zM322 594q-21 1 -32 -15t-14 -33l-71 -299h198z" />
<glyph unicode="B" horiz-adv-x="610" d="M331 692q45 0 83.5 -11t66.5 -33t44 -55.5t16 -78.5q0 -34 -4.5 -59t-14.5 -44t-25.5 -33t-36.5 -26q48 -19 73 -56t26 -106q0 -52 -16.5 -88t-46 -58.5t-69.5 -33t-87 -10.5h-257l-1 692h249zM193 300v-199h140q46 0 77 24t31 78q0 28 -10.5 46.5t-27 30t-35.5 16 t-37 4.5h-138zM193 592v-195h136q45 0 70.5 27.5t25.5 75.5q0 46 -27 69t-72 23h-133z" />
<glyph unicode="C" horiz-adv-x="531" d="M490 9q-35 -6 -68 -10q-29 -4 -62 -7t-59 -3q-76 0 -125 23.5t-77.5 69.5t-39.5 113.5t-11 154.5q0 93 13 159.5t42.5 110t78 64t119.5 20.5q30 0 63 -3.5t62 -8.5q33 -5 65 -11l-4 -99q-34 3 -66 7q-27 2 -56 4.5t-49 2.5q-45 0 -74 -14t-46 -45t-24 -79t-7 -117 q0 -66 6 -112.5t23 -76t47 -43t78 -13.5q17 0 46 2t56 4q32 3 66 7z" />
<glyph unicode="D" horiz-adv-x="633" d="M83 0l-1 692h229q80 0 132.5 -23t83.5 -67t43.5 -107t12.5 -143q0 -81 -11.5 -146.5t-41.5 -111t-83 -70t-135 -24.5h-229zM467 358q0 52 -6 95t-23 73t-47.5 46.5t-79.5 16.5h-118v-485h118q49 0 79.5 20t47.5 54.5t23 80.5t6 99z" />
<glyph unicode="E" horiz-adv-x="558" d="M505 0h-222q-47 0 -86.5 11.5t-68 35.5t-44 61.5t-14.5 89.5q1 34 8 59t19.5 43t30.5 30.5t42 21.5q-19 13 -34 28t-25 34.5t-15 45t-3 59.5q1 45 18 77.5t46 54t68 31.5t84 10h195l-1 -102h-192q-45 0 -73.5 -22t-30.5 -68q-1 -48 25 -76.5t71 -28.5h139l2 -101h-144 q-18 0 -37.5 -4.5t-36.5 -15.5t-28 -29.5t-11 -46.5q-2 -53 28 -73.5t76 -20.5h212z" />
<glyph unicode="F" horiz-adv-x="544" d="M82 692h421v-104h-310v-234h250v-102h-250l1 -252h-111z" />
<glyph unicode="G" horiz-adv-x="600" d="M348 369h193l1 -170q1 -41 -2.5 -76t-14.5 -62t-31.5 -44t-52.5 -20t-64.5 -5.5t-58.5 -2.5q-77 0 -129 25t-83 72t-44 114.5t-13 152.5q0 89 14 155t45 109.5t81.5 65t124.5 21.5q37 0 77 -4t74 -9q40 -5 77 -12l-4 -98l-72 8q-31 3 -67.5 6t-67.5 3q-48 0 -80 -14 t-51 -44t-27 -77.5t-8 -115.5q0 -66 7 -114t25 -79t49.5 -45.5t81.5 -14.5q16 0 33 1t33 3q7 1 13.5 3t11.5 11t8.5 27t3.5 51v81h-83v98z" />
<glyph unicode="H" horiz-adv-x="671" d="M476 299h-283l1 -299h-111l-1 692h111v-289h283v289h111l1 -692h-111z" />
<glyph unicode="I" horiz-adv-x="265" d="M75 692h113l1 -692h-113z" />
<glyph unicode="J" horiz-adv-x="311" d="M233 112q0 -55 -9.5 -90t-32 -55.5t-61 -28.5t-95.5 -8v99q49 1 67.5 19t18.5 68v577h111z" />
<glyph unicode="K" horiz-adv-x="592" d="M531 692q-3 -47 -5 -98t-13.5 -100t-38.5 -92t-80 -73l167 -329h-126l-144 293q-12 -2 -25.5 -4t-27.5 -4l-45 -4l1 -281h-111l-1 692h111v-306l34 2q64 11 102 39.5t57.5 69t25 90.5t5.5 105h114z" />
<glyph unicode="L" horiz-adv-x="496" d="M83 0l-1 692h111v-587h262l1 -105h-373z" />
<glyph unicode="M" horiz-adv-x="849" d="M82 564q0 27 4.5 51t15.5 41t30.5 27t50.5 9h84l157 -541l119 409q15 59 43.5 95t77.5 37h100l1 -692h-107l-1 565q-6 -1 -11.5 -10t-10.5 -22l-118 -401q-17 -52 -34.5 -76t-36.5 -28h-76l-161 540q-8 0 -9.5 -10.5t-2.5 -26.5l1 -531h-115z" />
<glyph unicode="N" horiz-adv-x="697" d="M82 692h91q21 0 40 -3t36 -13.5t31 -29.5t25 -50l170 -451q11 -31 26 -29v576h112l1 -692h-85q-47 2 -80.5 23.5t-52.5 69.5l-173 448q-13 35 -28 35l1 -576h-113z" />
<glyph unicode="O" horiz-adv-x="647" d="M322 92q45 0 75.5 14t48.5 44.5t26 78t8 113.5q0 130 -34.5 194t-123.5 64q-45 0 -75 -16t-48 -48t-26 -80.5t-8 -113.5q0 -66 8 -113t26 -77.5t48 -45t75 -14.5zM322 -11q-76 0 -128 22.5t-84.5 67.5t-46.5 112t-14 155q0 87 14.5 154t46.5 112.5t84.5 68.5t127.5 23 q76 0 128 -24.5t84 -71t46.5 -114.5t14.5 -156q0 -89 -14 -154.5t-46.5 -109t-84.5 -64.5t-128 -21z" />
<glyph unicode="P" horiz-adv-x="598" d="M195 212l1 -212h-113l-1 692h241q112 0 173 -60.5t60 -176.5q1 -116 -60 -179.5t-173 -63.5h-128zM323 315q62 0 90.5 40.5t28.5 103.5t-28.5 96.5t-90.5 33.5h-128v-274h128z" />
<glyph unicode="Q" horiz-adv-x="647" d="M600 -225q-43 7 -75 28t-57 51t-45.5 66t-39.5 74q-14 -2 -29 -3.5t-32 -1.5q-78 0 -130.5 23.5t-84.5 69t-45.5 112.5t-13.5 153q0 85 14 151.5t46 112.5t84.5 69.5t129.5 23.5q78 0 130.5 -25t84.5 -72.5t45.5 -115.5t13.5 -154q0 -115 -26 -193.5t-86 -118.5 q12 -26 25.5 -52t30 -47.5t37.5 -36.5t49 -18zM322 92q47 0 77.5 15t48.5 45.5t25 77.5t7 112q0 63 -7.5 111t-25.5 81t-48.5 49.5t-76.5 16.5q-47 0 -77 -16.5t-48 -49t-25 -81t-7 -111.5q0 -64 7.5 -111t25.5 -78t48 -46t76 -15z" />
<glyph unicode="R" horiz-adv-x="616" d="M321 243h-128l1 -243h-111l-1 692h244q113 0 175 -54.5t62 -170.5q0 -77 -30 -124.5t-86 -73.5l118 -269h-118l-104 244zM448 469q0 57 -31.5 88.5t-85.5 31.5h-138v-246h140q58 0 86.5 36.5t28.5 89.5z" />
<glyph unicode="S" horiz-adv-x="531" d="M478 587q-37 3 -74 7q-32 2 -67 4.5t-64 2.5q-53 0 -82.5 -21t-29.5 -61q0 -20 11 -35t29.5 -28t42.5 -24t50 -23q36 -16 73 -34.5t67 -43.5t49.5 -59t19.5 -82q0 -43 -10 -79.5t-35.5 -63.5t-69 -42.5t-110.5 -15.5q-28 0 -58 2t-59 5.5t-55.5 7.5t-45.5 9l6 96 q19 -3 45.5 -5.5t55.5 -5t58 -4t52 -1.5q22 0 42.5 5.5t36.5 17t25.5 29.5t9.5 44q0 23 -12 41t-32.5 33t-47 28t-54.5 26q-35 16 -70 33.5t-62.5 41t-45 54t-17.5 73.5q0 39 12 73.5t39.5 59.5t72 39.5t109.5 14.5q50 0 102.5 -8.5t97.5 -16.5z" />
<glyph unicode="T" horiz-adv-x="485" d="M7 692h468v-108h-176l1 -584h-111l-1 584h-181v108z" />
<glyph unicode="U" horiz-adv-x="645" d="M186 221q0 -67 33 -95t101 -28q69 0 103 28t34 95v471h112v-471q0 -61 -13 -104.5t-42 -71.5t-74.5 -41t-110.5 -13q-128 0 -191.5 54t-63.5 176v471h112v-471v0z" />
<glyph unicode="V" horiz-adv-x="604" d="M575 692l-141 -585q-30 -107 -151 -107h-87l-168 692h113l136 -591q20 2 32.5 14.5t20.5 41.5l123 535h122z" />
<glyph unicode="W" horiz-adv-x="924" d="M148 692l110 -591q14 0 20 11t8 29l90 448q7 43 25.5 69t56.5 24h64l116 -581q15 -2 20.5 10t7.5 29l102 552h120l-123 -608q-8 -45 -39 -65t-82 -19h-80l-104 533l-84 -449q-16 -85 -113 -84h-87l-143 692h115z" />
<glyph unicode="X" horiz-adv-x="581" d="M286 424l138 268h130l-192 -349l193 -343h-122l-139 263l-138 -263h-130l194 343l-195 349h122z" />
<glyph unicode="Y" horiz-adv-x="563" d="M338 0h-111l-1 296l-208 396h120l138 -277l137 277h130l-206 -396z" />
<glyph unicode="Z" horiz-adv-x="570" d="M64 692h437q15 -40 -0.5 -88.5t-45.5 -100.5l-234 -359q-17 -26 -15 -39h298l1 -105h-436q-24 79 43 188l235 359q8 10 12.5 20t2.5 20h-298v105z" />
<glyph unicode="[" horiz-adv-x="300" d="M267 642h-123v-658h123v-107h-234l-1 872h235v-107z" />
<glyph unicode="\" horiz-adv-x="528" d="M356 0l-308 698l114 4l306 -699z" />
<glyph unicode="]" horiz-adv-x="300" d="M29 749h235l-1 -872h-234v107h123v658h-123v107z" />
<glyph unicode="^" d="M269 552l-122 -234h-120l178 342h115l181 -342h-111z" />
<glyph unicode="_" d="M502 -85v-100h-475l-1 100h476z" />
<glyph unicode="`" horiz-adv-x="545" d="M381 671l-34 -91l-244 81l37 103z" />
<glyph unicode="a" horiz-adv-x="525" d="M428 124q4 -17 20.5 -28.5t39.5 -15.5l-6 -90q-51 2 -82 13t-48 34q-21 -19 -53 -33t-74 -14q-49 0 -84 18t-57 51t-32.5 79.5t-10.5 103.5q0 50 11.5 98t37 85.5t66.5 60.5t99 23q28 0 49.5 -3.5t39.5 -8.5l85 13zM214 85q18 0 35.5 6.5t32.5 16.5t26.5 21t17.5 19v260 h-2l-27 4.5t-29 2.5q-33 0 -57 -15t-39.5 -40t-23 -59t-7.5 -71q0 -23 3 -48.5t11.5 -47t22.5 -35.5t36 -14z" />
<glyph unicode="b" horiz-adv-x="544" d="M190 462q26 18 57.5 31t63.5 13q68 0 108.5 -37.5t56.5 -105.5q9 -40 11.5 -83.5t-3.5 -85t-20.5 -79.5t-40 -66.5t-62.5 -45t-86 -16.5q-27 1 -61 3.5t-63 4.5l-70 6v706h109v-245zM318 413q-15 0 -32.5 -6t-35.5 -15.5t-34 -20.5t-27 -20v-263q22 -3 43.5 -5t29.5 -2 q43 0 70.5 26.5t41.5 67.5t14.5 90.5t-9.5 95.5q-5 24 -21.5 38t-39.5 14z" />
<glyph unicode="c" horiz-adv-x="436" d="M389 66q-12 -14 -31.5 -27.5t-42 -24.5t-46 -17.5t-44.5 -6.5q-49 0 -84 18t-57 51t-32.5 79.5t-10.5 103.5q0 50 11.5 98t37 85.5t66.5 60.5t99 23q28 0 64.5 -5.5t71.5 -17.5l-3 -89q-3 3 -19.5 6t-36.5 5.5t-38.5 4.5t-25.5 2q-33 0 -56.5 -15.5t-39 -41.5t-22.5 -60 t-7 -70q0 -23 2.5 -47.5t10.5 -45t22 -33.5t38 -13q18 0 38 6.5t39 16t33 20t20 18.5z" />
<glyph unicode="d" horiz-adv-x="544" d="M465 0h-110l-1 53q-9 -11 -25.5 -22.5t-36 -20.5t-39 -14.5t-33.5 -5.5q-45 0 -78.5 18t-56 51t-33.5 79.5t-11 103.5q0 50 11.5 98t37 85.5t66.5 60.5t99 23q20 0 46 -3t53 -10v211h110zM214 86q17 0 39 9t42.5 21.5t36.5 25.5t22 21v242q-12 2 -25 3.5t-25 3t-22 2.5 t-14 1q-33 0 -56.5 -16t-39 -42t-22.5 -60t-7 -71q0 -23 2 -48t9.5 -45.5t21.5 -33.5t38 -13z" />
<glyph unicode="e" horiz-adv-x="507" d="M438 49q-10 -8 -28 -18t-41 -19t-51 -15.5t-59 -6.5q-86 0 -131.5 41.5t-62.5 115.5q-13 52 -11 107q1 64 19.5 112t47.5 80t66 47.5t75 15.5q74 0 119.5 -37.5t58.5 -92.5q8 -32 1.5 -64.5t-29.5 -64.5q-21 -30 -54 -49t-68 -30t-69 -15.5t-57 -5.5q3 -13 8 -25t15 -21 t25.5 -14t38.5 -5q21 0 44.5 7t45 17.5t40.5 22.5t31 22zM271 416q-20 0 -40.5 -11.5t-37 -33t-27 -53.5t-10.5 -74q32 2 68 10.5t65 24.5t45 40.5t8 57.5q-4 19 -22.5 29t-48.5 10z" />
<glyph unicode="f" horiz-adv-x="339" d="M78 404h-54v95h54v33q0 101 35.5 143t108.5 42q13 0 30 -1.5t33 -3.5q18 -3 37 -5l-2 -91q-12 1 -25 2q-11 1 -24.5 2t-24.5 1q-34 0 -46.5 -22.5t-12.5 -67.5v-32h128v-95h-128v-404h-109v404z" />
<glyph unicode="g" horiz-adv-x="529" d="M257 -238q-26 0 -52 2t-46 5q-25 4 -46 8l5 93q21 -2 41 -4q17 -2 36 -3t33 -1q69 0 100 45.5t22 132.5q-7 -6 -19 -14.5t-27.5 -17t-32.5 -14t-34 -5.5q-49 0 -85 20t-59.5 54t-35 80t-11.5 98q0 56 12 105t38.5 85.5t68.5 57.5t103 21q20 0 53 -2t65 -4q37 -3 76 -5 v-206.5v-139v-84v-43t0.5 -16l0.5 -2.5q0 -127 -50 -186.5t-156 -59.5zM268 415q-28 0 -49 -14.5t-35.5 -38.5t-22 -54.5t-7.5 -61.5q0 -85 19.5 -123t65.5 -38q17 0 37 9.5t37 21.5q20 13 40 31v262q-16 1 -32 3q-14 1 -28.5 2t-24.5 1z" />
<glyph unicode="h" horiz-adv-x="562" d="M79 0l-1 707h109l-1 -250q9 10 24 19.5t34 17t40 12t42 4.5q49 0 80.5 -16.5t49.5 -48t24.5 -78t6.5 -106.5l1 -261h-109l-1 262q0 33 -1.5 60.5t-9 47.5t-22 31t-40.5 11q-34 0 -63 -12.5t-56 -34.5l2 -365h-109z" />
<glyph unicode="i" horiz-adv-x="255" d="M72 499h109l1 -499h-109zM72 693h109v-115h-109v115z" />
<glyph unicode="j" horiz-adv-x="261" d="M78 499h110v-494q0 -50 -7 -85t-25.5 -62t-52 -50t-85.5 -49l-48 91q36 20 57 35.5t32.5 32t15 37t3.5 51.5v493zM78 692h110v-115h-110v115z" />
<glyph unicode="k" horiz-adv-x="509" d="M82 0l-1 707h109v-403l23 3q39 8 65.5 25.5t43.5 42.5t25 56.5t10 67.5h113q0 -82 -29.5 -141t-83.5 -97l148 -261h-118l-126 214q-9 -3 -18.5 -5.5t-19.5 -4.5l-33 -6l1 -198h-109z" />
<glyph unicode="l" horiz-adv-x="257" d="M73 707h109l1 -707h-109z" />
<glyph unicode="m" horiz-adv-x="854" d="M84 0l-1 499h109l-1 -69q23 32 58 56t72 24q40 0 72.5 -13.5t52.5 -45.5q14 10 32.5 20.5t39.5 19t44 14t46 5.5q96 0 134.5 -62.5t38.5 -186.5l1 -261h-109l-1 256q0 36 -2.5 65t-11 49t-24.5 30.5t-43 10.5q-38 0 -65.5 -16.5t-41.5 -32.5q2 -8 3.5 -37.5t1.5 -65.5 l1 -259h-110l-1 257q0 37 -2 66t-10 48.5t-23 29.5t-40 10q-17 0 -34 -8t-32 -20t-27 -26t-20 -26l2 -331h-109z" />
<glyph unicode="n" horiz-adv-x="564" d="M82 0l-1 499h109l-1 -57q26 26 65 47t81 21q47 0 77 -16.5t47.5 -48t24 -78t6.5 -106.5l1 -261h-110l-1 260q0 34 0.5 61.5t-4 47.5t-17 31t-38.5 11q-41 0 -75.5 -22t-54.5 -47v-342h-109z" />
<glyph unicode="o" horiz-adv-x="529" d="M264 510q61 0 103 -20.5t67.5 -56t36.5 -84t11 -105.5t-10.5 -104t-35.5 -80.5t-67 -52t-105 -18.5q-64 0 -106 21t-67 58.5t-35 87.5t-10 109q0 57 10.5 102t35.5 77t67 49t105 17zM264 84q34 0 55 12.5t32.5 35t15.5 54t4 68.5t-5 67t-17.5 51t-33 32t-51.5 11 q-32 0 -53 -11.5t-33.5 -32.5t-17 -51.5t-4.5 -68.5t4 -69t16 -53t33 -33.5t55 -11.5z" />
<glyph unicode="p" horiz-adv-x="544" d="M81 499h109l1 -40q26 19 58.5 33t66.5 14q46 0 79.5 -18t55 -51t32 -79.5t10.5 -103.5q0 -50 -11.5 -98t-37 -85.5t-66 -60.5t-98.5 -23q-19 0 -42 2.5t-48 7.5v-212h-109v714zM318 414q-15 0 -33.5 -6.5t-36 -16t-33 -20.5t-25.5 -20v-262q23 -4 46 -6t31 -2 q33 0 57 15.5t39 41t22.5 59.5t7.5 70q0 22 -3 47.5t-11.5 47.5t-23 37t-37.5 15z" />
<glyph unicode="q" horiz-adv-x="542" d="M351 -215v255q-31 -22 -65 -36t-61 -14q-49 0 -84 17t-57 49t-32.5 77t-10.5 102q0 54 12.5 103.5t39.5 87.5t70.5 60.5t105.5 22.5q39 0 89.5 -5t103.5 -9l-1 -710h-110zM215 89q15 0 34.5 7t39 17.5t36 22.5t27.5 22l2 247q-12 2 -25 3.5t-25 3t-22 2.5t-14 1 q-33 0 -57.5 -16t-40 -42.5t-23 -61.5t-7.5 -72q0 -23 4 -47t12.5 -43.5t23 -31.5t35.5 -12z" />
<glyph unicode="r" horiz-adv-x="358" d="M74 499h110l1 -76q8 10 20 23t29.5 25t41 23t55.5 17v-117q-34 -6 -58 -16.5t-40.5 -22t-28 -23.5t-20.5 -22l1 -310h-110z" />
<glyph unicode="s" horiz-adv-x="493" d="M417 399l-66 8q-28 3 -58 6t-53 3q-38 0 -58.5 -13.5t-20.5 -36.5q0 -22 28.5 -37t77.5 -30q33 -10 63.5 -22t54 -30t38 -44t14.5 -62q0 -30 -9.5 -57t-32 -48t-59.5 -33t-93 -12q-25 0 -56.5 2.5t-60.5 6.5q-33 4 -68 9l5 93q36 -6 69 -10q29 -4 59.5 -7t51.5 -3 q38 0 62.5 16.5t24.5 42.5q0 14 -9.5 24t-25 18.5t-36.5 15.5t-45 14t-52.5 20t-53 31.5t-40.5 43.5t-16 57q0 29 11 55.5t34 46.5t60 32t90 12q21 0 45.5 -2.5t48.5 -6t45 -7.5t34 -8z" />
<glyph unicode="t" horiz-adv-x="355" d="M192 404v-214q0 -54 12 -78.5t43 -24.5h24t24 1q13 1 27 2l5 -89q-17 -4 -34 -7q-14 -2 -31 -4t-30 -2q-80 0 -114.5 43t-34.5 144v229h-60v95h60v146h109v-146h132v-95h-132z" />
<glyph unicode="u" horiz-adv-x="560" d="M480 499l1 -499h-110v52q-10 -11 -26 -22t-35.5 -20t-40.5 -15t-41 -6q-80 0 -117.5 59t-37.5 190v261h110v-260q0 -81 12 -117.5t51 -36.5q16 0 36 7.5t38 19t32 24t20 22.5l-2 341h110z" />
<glyph unicode="v" horiz-adv-x="483" d="M128 499l95 -406q11 2 21 12t14 27l89 367h115l-102 -401q-7 -20 -16.5 -38t-25 -31t-37.5 -21t-54 -8h-80l-128 499h109z" />
<glyph unicode="w" horiz-adv-x="753" d="M123 499l76 -402q19 3 32 36l68 292q8 32 23 48t35 17h72l91 -393q12 0 19 9.5t9 23.5l72 369h112l-85 -412q-10 -44 -42 -64.5t-82 -22.5h-74l-75 341l-55 -250q-17 -89 -111 -91h-86l-104 499h105z" />
<glyph unicode="x" horiz-adv-x="464" d="M135 499l93 -172l93 172h121l-144 -250l145 -249h-114l-94 171l-92 -171h-121l142 249l-143 250h114z" />
<glyph unicode="y" horiz-adv-x="484" d="M121 499l89 -339q8 -26 17.5 -39.5t19.5 -15.5l104 394h112l-129 -494q-13 -50 -29 -85t-41.5 -62t-64.5 -50t-98 -49l-28 101q40 19 65.5 32.5t41.5 28t25 33t17 47.5q-14 0 -29.5 8t-29.5 22.5t-26 35t-18 46.5l-101 386h103z" />
<glyph unicode="z" horiz-adv-x="478" d="M57 499h358q12 -30 6.5 -65t-36.5 -79l-199 -258h233l1 -97h-357q-11 34 -4 70.5t36 76.5l194 255h-231z" />
<glyph unicode="{" horiz-adv-x="325" d="M231 171q0 -23 -3.5 -57t-3.5 -60q0 -20 3.5 -34t13 -23.5t27 -14.5t45.5 -7l-1 -107q-108 4 -157 44t-49 130q0 15 1 32t2.5 33.5t2.5 31.5t1 24q0 38 -19.5 62.5t-76.5 40.5v92q58 14 77 37t19 61q0 10 -1 26t-2.5 34t-2.5 35.5t-1 31.5q0 47 12 79.5t37.5 53t64 30.5 t92.5 12l1 -107q-28 -2 -45.5 -6.5t-27 -13.5t-13 -22.5t-3.5 -33.5q0 -12 1 -29t2.5 -35t2.5 -34t1 -27q0 -31 -5.5 -53t-17.5 -37.5t-31 -26.5t-46 -20q55 -18 77.5 -49.5t22.5 -92.5z" />
<glyph unicode="|" d="M203 750h112v-1000h-112v1000z" />
<glyph unicode="}" horiz-adv-x="325" d="M90 452q0 23 3.5 57t3.5 60q0 19 -3.5 33.5t-13.5 24t-27 14.5t-45 7l1 107q108 -4 157 -44t49 -130q0 -15 -1 -32t-2.5 -33.5t-2.5 -31.5t-1 -24q0 -38 19.5 -62.5t76.5 -40.5v-92q-58 -14 -77 -37t-19 -61q0 -11 1 -26.5t2.5 -33.5t2.5 -35.5t1 -31.5q0 -47 -12 -79.5 t-37 -53t-64 -30.5t-92 -12l-2 107q28 2 45 6.5t27 13.5t13.5 22.5t3.5 33.5q0 12 -1 29t-2.5 35t-2.5 34t-1 27q0 31 5.5 52.5t17.5 37.5t31 27t46 20q-55 18 -77.5 49.5t-22.5 92.5z" />
<glyph unicode="~" d="M468 280q-14 -15 -32 -26q-15 -10 -36 -18t-44 -8q-20 0 -45.5 7t-50.5 16t-48 16t-38 7q-17 0 -35 -7t-34 -15q-18 -10 -36 -21l-10 103q17 15 36 26q17 10 38.5 18.5t46.5 8.5q20 0 44.5 -7t49 -16t47 -16t40.5 -7q14 0 31.5 6.5t32.5 14.5q18 9 36 21z" />
<glyph unicode="&#xa1;" horiz-adv-x="463" d="M294 355h-118v144h118v-144zM295 -201h-119l3 452h113z" />
<glyph unicode="&#xa2;" horiz-adv-x="437" d="M203 32q-87 5 -133.5 54.5t-46.5 162.5q0 109 48 161t132 58v108h92v-112q16 -2 31 -3.5t28 -3.5q14 -2 28 -3l-3 -95q-24 1 -47 2q-20 1 -41 1.5t-35 0.5q-34 0 -57 -5.5t-37.5 -18.5t-20.5 -35t-6 -55t6 -55t20.5 -35t38.5 -18t60 -5q14 0 34.5 0.5t39.5 1.5q22 1 45 3 l4 -95q-14 -2 -29 -4q-13 -2 -28 -3t-30 -3v-114h-93v110z" />
<glyph unicode="&#xa3;" d="M457 565q-29 2 -55 4q-22 2 -43 3.5t-30 1.5q-40 0 -56 -20t-16 -77v-41h195v-100h-196v-181q-1 -18 -3 -32t-9 -22h144q48 2 72 16l18 -99q-14 -9 -34.5 -12.5t-46.5 -4.5h-83t-89 -0.5t-88.5 -0.5h-82.5l-1 101h56q20 0 29.5 18.5t10.5 53.5v163h-81v100h81v42 q0 57 10.5 96t30 62.5t48 33.5t63.5 10q20 0 47 -3.5t53 -7.5q30 -5 61 -11z" />
<glyph unicode="&#xa4;" d="M354 85q-42 -23 -90.5 -22.5t-90.5 23.5l-72 -72l-75 75l72 72q-23 42 -23.5 90.5t22.5 90.5l-71 73l75 75l72 -72q42 23 90.5 23t90.5 -23l73 72l75 -75l-72 -73q23 -42 23 -90.5t-23 -90.5l72 -72l-75 -75zM200 188q13 -13 30 -19.5t34 -6.5t33.5 6.5t29.5 19.5 t19.5 30t6.5 34t-6.5 33.5t-19.5 29.5t-29.5 19.5t-33.5 6.5t-34 -6.5t-30 -19.5t-19.5 -29.5t-6.5 -33.5t6.5 -34t19.5 -30z" />
<glyph unicode="&#xa5;" horiz-adv-x="540" d="M47 386h115l-161 274h125l144 -258l142 258h125l-159 -274h113v-93h-159l-5 -11v-47h164v-93h-164l1 -142h-113l-1 142h-167v93h167v47l-5 11h-162v93z" />
<glyph unicode="&#xa6;" d="M318 751v-411h-112v411h112zM318 173v-423h-112v423h112z" />
<glyph unicode="&#xa7;" d="M446 533q-32 3 -62 7q-26 3 -52.5 5.5t-44.5 2.5q-61 0 -84 -17t-23 -59q0 -17 8 -28.5t25 -20t43 -15.5t63 -15q42 -9 71.5 -19.5t48.5 -27t27.5 -41t8.5 -61.5q0 -38 -16 -75.5t-32 -60.5q18 -16 28 -37.5t10 -67.5q0 -93 -50 -134.5t-156 -41.5q-26 0 -57.5 3t-59.5 7 q-33 4 -65 10l11 89q31 -4 61 -8q26 -3 53.5 -5t48.5 -2q55 0 82 18t27 57q0 19 -7.5 30.5t-24.5 19.5t-44 15t-67 16q-42 9 -72 20.5t-50 28.5t-29.5 42t-9.5 62q0 20 6.5 40t16 38t20 32t19.5 21q-22 16 -33 40t-11 69q0 90 53 131.5t153 41.5q26 0 55.5 -3.5t55.5 -7.5 q30 -4 60 -10zM269 304q-21 5 -42 9.5t-37 10.5q-2 -3 -6 -11t-8 -18.5t-7 -22.5t-3 -22q0 -18 4.5 -30t14 -20.5t25 -14t38.5 -10.5q60 -14 95 -27q5 7 13 32t8 49q0 34 -21.5 48.5t-73.5 26.5z" />
<glyph unicode="&#xa8;" horiz-adv-x="614" d="M77 728h105v-114h-105v114zM287 728h104v-114h-104v114z" />
<glyph unicode="&#xa9;" d="M8 433q0 56 19.5 105t53.5 85t81 57t102 21q57 0 104.5 -21.5t81 -58.5t52 -85t18.5 -102q0 -56 -18.5 -104.5t-52.5 -84.5t-81.5 -56.5t-105.5 -20.5q-54 0 -100.5 20.5t-80.5 56.5t-53.5 84.5t-19.5 103.5zM65 434q0 -43 15 -81t41.5 -66t62.5 -44.5t79 -16.5 q44 0 81 16.5t63.5 44.5t41.5 66t15 81t-15 81.5t-42 67t-63.5 45t-79.5 16.5t-79.5 -16.5t-63 -45t-41.5 -67t-15 -81.5zM341 287q-9 -2 -20 -4q-10 -2 -24 -3t-31 -1q-69 0 -98 37.5t-29 121.5q0 75 29 112.5t98 37.5q17 0 31 -1t24 -2q11 -2 21 -3l-1 -91q-10 1 -21 3 q-10 1 -23.5 2t-30.5 1q-23 0 -30.5 -18t-7.5 -41q0 -26 8.5 -46.5t29.5 -20.5q17 0 30.5 0.5t23.5 1.5q11 1 21 3v-89z" />
<glyph unicode="&#xaa;" d="M368 456q1 -11 5.5 -18.5t20.5 -10.5l-5 -61q-19 1 -40.5 4.5t-33.5 14.5q-16 -6 -33 -10q-15 -4 -33 -6.5t-35 -2.5q-45 0 -69.5 25t-24.5 73q0 85 98 91l78 4v9q0 11 -5.5 22.5t-25.5 11.5q-13 0 -34 -1t-41 -2q-24 -1 -50 -2l-2 61q29 2 55 5q23 2 45.5 4t36.5 2 q43 0 68 -27t25 -75v-111zM225 500q-17 -2 -24.5 -10t-7.5 -27q0 -20 8 -27.5t23 -7.5q21 0 46 5q12 3 26 6v64z" />
<glyph unicode="&#xab;" horiz-adv-x="576" d="M152 246l116 -93v-112l-209 163v81l209 155v-111zM399 246l116 -93v-112l-209 163v81l209 155v-111z" />
<glyph unicode="&#xac;" d="M474 359v-257h-106v151h-316v106h422z" />
<glyph unicode="&#xad;" horiz-adv-x="440" d="M69 322h300v-103h-300v103z" />
<glyph unicode="&#xae;" d="M-6 434q0 57 18.5 108t53 89t84.5 60.5t114 22.5q63 0 114 -22t87 -60t55.5 -89t19.5 -109q0 -57 -19.5 -108t-55.5 -89.5t-87 -61t-114 -22.5q-64 0 -114 22.5t-84.5 60.5t-53 89.5t-18.5 108.5zM49 434q0 -46 16.5 -87t45.5 -72t68.5 -49t84.5 -18t84.5 18t68.5 49 t46 72t17 87q0 48 -17 89t-46.5 71.5t-68.5 48t-84 17.5q-46 0 -85.5 -17.5t-68 -48t-45 -71.5t-16.5 -89zM263 383h-36v-107h-83v315h119q58 0 90 -22t32 -78q0 -38 -9 -59.5t-33 -37.5l49 -118h-90zM226 446h38q40 0 40 40q0 41 -44 41h-34v-81z" />
<glyph unicode="&#xaf;" horiz-adv-x="476" d="M76 722h312v-95h-312v95z" />
<glyph unicode="&#xb0;" d="M96 564q0 66 40.5 106t106.5 40t106 -40t40 -106t-40 -106t-106 -40t-106.5 40t-40.5 106zM161 564q0 -37 22.5 -60t59.5 -23t60.5 23t23.5 60t-23.5 60.5t-60.5 23.5t-59.5 -23.5t-22.5 -60.5z" />
<glyph unicode="&#xb1;" d="M36 394h172v115h112v-115h172v-108h-172v-108h-112v108h-172v108zM492 138v-108h-456v108h456z" />
<glyph unicode="&#xb2;" horiz-adv-x="265" d="M16 478v76l80 70q24 21 36 36t12 32q0 14 -11 18.5t-31 4.5q-10 0 -23 -1t-26 -3q-15 -2 -31 -3l-3 82q20 2 39 5q17 2 36 3.5t36 1.5q59 0 83 -22.5t24 -73.5q0 -34 -14.5 -57.5t-44.5 -47.5l-47 -41h107v-80h-222z" />
<glyph unicode="&#xb3;" horiz-adv-x="265" d="M25 791q19 2 37 4q16 2 34.5 3.5t34.5 1.5q114 0 114 -86q0 -31 -11 -48.5t-22 -23.5q20 -8 30 -24t10 -51q0 -51 -30 -75.5t-83 -24.5q-19 0 -39.5 1t-37.5 3q-20 2 -41 5l5 78q17 -2 35 -4q15 -2 31.5 -2.5t30.5 -0.5q20 0 28.5 6.5t8.5 20.5q0 15 -8.5 20t-25.5 5h-66 v73h64q12 0 20 7t8 19q0 23 -35 23q-15 0 -30 -1t-28 -2q-15 -2 -29 -3l-5 76v0z" />
<glyph unicode="&#xb4;" horiz-adv-x="582" d="M344 765l37 -103l-244 -82l-34 92z" />
<glyph unicode="&#xb6;" d="M368 614h-74l1 -614h-94l-1 317h-7q-42 0 -76 14t-58.5 39t-38 60t-13.5 77t13.5 77.5t38 61t58.5 40t76 14.5h332v-86h-64l1 -614h-93z" />
<glyph unicode="&#xb7;" horiz-adv-x="248" d="M57 367h118v-144h-118v144z" />
<glyph unicode="&#xb8;" horiz-adv-x="833" d="M565 -127q0 -48 -28 -72.5t-76 -24.5q-33 0 -61 5q-15 2 -29 5l3 65q10 -1 20 -1q8 -1 18 -1h18q40 0 40 31q0 16 -10 21.5t-30 5.5h-32v94h48v-43q30 0 52 -3.5t37 -13t22.5 -26t7.5 -42.5z" />
<glyph unicode="&#xb9;" horiz-adv-x="265" d="M125 790h81v-312h-89v214l-55 -38l-41 63z" />
<glyph unicode="&#xba;" d="M255 669q63 0 99.5 -34t36.5 -116t-36.5 -117.5t-99.5 -35.5t-98 35.5t-35 117.5t35 116t98 34zM255 434q32 0 46.5 18t14.5 67q0 46 -14.5 64t-46.5 18q-31 0 -44.5 -18t-13.5 -64q0 -49 13.5 -67t44.5 -18z" />
<glyph unicode="&#xbb;" horiz-adv-x="576" d="M306 337v111l209 -156v-81l-209 -162v111l115 94zM59 337v111l209 -156v-81l-209 -162v111l115 94z" />
<glyph unicode="&#xbf;" horiz-adv-x="386" d="M8 -26q0 35 12 64.5t30.5 54.5t40 47t40 41.5t30.5 38t12 36.5v38h111q1 -11 3 -22q1 -9 2 -19t1 -15q0 -26 -12 -49.5t-30 -45.5t-39 -42t-39 -39t-30 -37.5t-12 -36.5q0 -23 4 -39.5t15 -27t30.5 -15.5t51.5 -5q19 0 44.5 2.5t48.5 6.5q27 4 56 9l13 -98 q-32 -10 -64 -18q-27 -7 -57 -12t-53 -5q-53 0 -92.5 10t-65 32t-38.5 58t-13 88zM290 362h-118v137h118v-137z" />
<glyph unicode="&#xc0;" horiz-adv-x="605" d="M426 854l-34 -92l-244 82l37 103zM172 592q4 19 15 37t28.5 32t42.5 22.5t58 8.5h93l167 -692h-110l-42 143h-243l-35 -143h-117zM322 594q-21 1 -32 -15t-14 -33l-71 -299h198z" />
<glyph unicode="&#xc1;" horiz-adv-x="605" d="M394 955l37 -103l-244 -82l-34 92zM172 592q4 19 15 37t28.5 32t42.5 22.5t58 8.5h93l167 -692h-110l-42 143h-243l-35 -143h-117zM322 594q-21 1 -32 -15t-14 -33l-71 -299h198z" />
<glyph unicode="&#xc2;" horiz-adv-x="605" d="M248 933h100l132 -143h-124l-57 56l-56 -56h-127zM172 592q4 19 15 37t28.5 32t42.5 22.5t58 8.5h93l167 -692h-110l-42 143h-243l-35 -143h-117zM322 594q-21 1 -32 -15t-14 -33l-71 -299h198z" />
<glyph unicode="&#xc3;" horiz-adv-x="605" d="M487 848q-16 -18 -33 -31q-14 -11 -32 -20.5t-36 -9.5q-19 0 -42.5 7.5t-47 17t-44 17t-32.5 7.5q-11 0 -24 -7t-26 -15q-15 -10 -30 -22l-25 83q15 17 33 31q15 11 33.5 21t36.5 10q21 0 45.5 -7.5t47.5 -16.5t42 -16.5t30 -7.5q9 0 22.5 6.5t26.5 14.5q15 9 31 21z M172 592q4 19 15 37t28.5 32t42.5 22.5t58 8.5h93l167 -692h-110l-42 143h-243l-35 -143h-117zM322 594q-21 1 -32 -15t-14 -33l-71 -299h198z" />
<glyph unicode="&#xc4;" horiz-adv-x="605" d="M143 919h105v-114h-105v114zM359 919h104v-114h-104v114zM172 592q4 19 15 37t28.5 32t42.5 22.5t58 8.5h93l167 -692h-110l-42 143h-243l-35 -143h-117zM322 594q-21 1 -32 -15t-14 -33l-71 -299h198z" />
<glyph unicode="&#xc5;" horiz-adv-x="605" d="M440 730q0 -41 -24 -70l160 -660h-108l-42 143h-246l-35 -143h-116l159 662q-21 29 -21 68q0 28 10.5 50t29 37t43 23t53.5 8q28 0 53 -8t44 -23t29.5 -37t10.5 -50zM204 247h201l-81 347h-37zM252 730q0 -30 32 -38h38q33 8 33 38q0 19 -14 29.5t-38 10.5 q-23 0 -37 -10.5t-14 -29.5z" />
<glyph unicode="&#xc6;" horiz-adv-x="819" d="M344 143h-179l-35 -143h-113l168 692h579v-104h-310v-194h250v-99h-250v-191h310l1 -104h-420zM189 247h155v342h-73z" />
<glyph unicode="&#xc7;" horiz-adv-x="537" d="M435 -127q0 -48 -28 -72.5t-76 -24.5q-33 0 -61 5q-15 2 -29 5l3 65q10 -1 20 -1q8 -1 18 -1h18q40 0 40 31q0 16 -10 21.5t-30 5.5h-32v84q-66 4 -108.5 29t-67 70t-34.5 108.5t-10 146.5q0 93 13 160.5t42.5 111.5t78 65.5t119.5 21.5q30 0 63 -3.5t62 -8.5 q33 -5 65 -11l-4 -99q-34 3 -66 7q-27 2 -56 4.5t-49 2.5q-45 0 -74 -13.5t-46.5 -43.5t-24.5 -77.5t-7 -116.5q0 -66 6.5 -113t23.5 -77t47 -44.5t78 -14.5q17 0 46 2t56 4q32 3 66 7l3 -100q-29 -5 -60 -9q-26 -4 -57 -7t-57 -4v-31q30 0 52 -3.5t37 -13t22.5 -26 t7.5 -42.5z" />
<glyph unicode="&#xc8;" horiz-adv-x="558" d="M436 854l-34 -92l-244 82l37 103zM505 0h-222q-47 0 -86.5 11.5t-68 35.5t-44 61.5t-14.5 89.5q1 34 8 59t19.5 43t30.5 30.5t42 21.5q-19 13 -34 28t-25 34.5t-15 45t-3 59.5q1 45 18 77.5t46 54t68 31.5t84 10h195l-1 -102h-192q-45 0 -73.5 -22t-30.5 -68 q-1 -48 25 -76.5t71 -28.5h139l2 -101h-144q-18 0 -37.5 -4.5t-36.5 -15.5t-28 -29.5t-11 -46.5q-2 -53 28 -73.5t76 -20.5h212z" />
<glyph unicode="&#xc9;" horiz-adv-x="558" d="M409 955l37 -103l-244 -82l-34 92zM505 0h-222q-47 0 -86.5 11.5t-68 35.5t-44 61.5t-14.5 89.5q1 34 8 59t19.5 43t30.5 30.5t42 21.5q-19 13 -34 28t-25 34.5t-15 45t-3 59.5q1 45 18 77.5t46 54t68 31.5t84 10h195l-1 -102h-192q-45 0 -73.5 -22t-30.5 -68 q-1 -48 25 -76.5t71 -28.5h139l2 -101h-144q-18 0 -37.5 -4.5t-36.5 -15.5t-28 -29.5t-11 -46.5q-2 -53 28 -73.5t76 -20.5h212z" />
<glyph unicode="&#xca;" horiz-adv-x="558" d="M247 935h100l132 -143h-124l-57 56l-56 -56h-127zM505 0h-222q-47 0 -86.5 11.5t-68 35.5t-44 61.5t-14.5 89.5q1 34 8 59t19.5 43t30.5 30.5t42 21.5q-19 13 -34 28t-25 34.5t-15 45t-3 59.5q1 45 18 77.5t46 54t68 31.5t84 10h195l-1 -102h-192q-45 0 -73.5 -22 t-30.5 -68q-1 -48 25 -76.5t71 -28.5h139l2 -101h-144q-18 0 -37.5 -4.5t-36.5 -15.5t-28 -29.5t-11 -46.5q-2 -53 28 -73.5t76 -20.5h212z" />
<glyph unicode="&#xcb;" horiz-adv-x="558" d="M144 919h105v-114h-105v114zM360 919h104v-114h-104v114zM505 0h-222q-47 0 -86.5 11.5t-68 35.5t-44 61.5t-14.5 89.5q1 34 8 59t19.5 43t30.5 30.5t42 21.5q-19 13 -34 28t-25 34.5t-15 45t-3 59.5q1 45 18 77.5t46 54t68 31.5t84 10h195l-1 -102h-192q-45 0 -73.5 -22 t-30.5 -68q-1 -48 25 -76.5t71 -28.5h139l2 -101h-144q-18 0 -37.5 -4.5t-36.5 -15.5t-28 -29.5t-11 -46.5q-2 -53 28 -73.5t76 -20.5h212z" />
<glyph unicode="&#xcc;" horiz-adv-x="265" d="M75 692h113l1 -692h-113zM240 854l-34 -92l-243 82l37 103z" />
<glyph unicode="&#xcd;" horiz-adv-x="265" d="M75 692h113l1 -692h-113zM255 955l37 -103l-244 -82l-34 92z" />
<glyph unicode="&#xce;" horiz-adv-x="265" d="M75 692h113l1 -692h-113zM80 935h100l132 -143h-124l-57 56l-56 -56h-126z" />
<glyph unicode="&#xcf;" horiz-adv-x="265" d="M75 692h113l1 -692h-113zM-26 928h104v-114h-104v114zM189 928h104v-114h-104v114z" />
<glyph unicode="&#xd0;" horiz-adv-x="633" d="M17 399h65v293h229q80 0 132.5 -22t83.5 -65t43.5 -105t12.5 -142q0 -81 -11.5 -147.5t-41.5 -113t-83 -72t-135 -25.5h-229l-1 291h-65v108zM467 358q0 52 -6 95t-23 73t-47.5 46.5t-79.5 16.5h-118v-190h137v-108h-137v-187h118q49 0 79.5 20t47.5 54.5t23 80.5t6 99z " />
<glyph unicode="&#xd1;" horiz-adv-x="697" d="M536 846q-16 -18 -33 -31q-14 -11 -32 -20.5t-36 -9.5q-19 0 -42.5 7.5t-47 17t-44 17t-32.5 7.5q-11 0 -24 -7t-26 -15q-15 -10 -30 -22l-25 83q15 17 33 31q15 11 33.5 21t36.5 10q21 0 45.5 -7.5t47.5 -16.5t42 -16.5t30 -7.5q9 0 22.5 6.5t26.5 14.5q15 9 31 21z M82 692h91q21 0 40 -3t36 -13.5t31 -29.5t25 -50l170 -451q11 -31 26 -29v576h112l1 -692h-85q-47 2 -80.5 23.5t-52.5 69.5l-173 448q-13 35 -28 35l1 -576h-113z" />
<glyph unicode="&#xd2;" horiz-adv-x="647" d="M322 92q45 0 75.5 14t48.5 44.5t26 78t8 113.5q0 130 -34.5 194t-123.5 64q-45 0 -75 -16t-48 -48t-26 -80.5t-8 -113.5q0 -66 8 -113t26 -77.5t48 -45t75 -14.5zM322 -11q-76 0 -128 22t-84.5 66.5t-46.5 110.5t-14 154q0 87 14.5 154.5t46.5 113.5t84.5 70t127.5 24 q76 0 128 -23.5t84.5 -69.5t47 -113.5t14.5 -155.5q0 -89 -14.5 -155t-47 -110t-84.5 -66t-128 -22zM458 854l-34 -92l-244 82l37 103z" />
<glyph unicode="&#xd3;" horiz-adv-x="647" d="M322 92q45 0 75.5 14t48.5 44.5t26 78t8 113.5q0 130 -34.5 194t-123.5 64q-45 0 -75 -16t-48 -48t-26 -80.5t-8 -113.5q0 -66 8 -113t26 -77.5t48 -45t75 -14.5zM322 -11q-76 0 -128 22t-84.5 66.5t-46.5 110.5t-14 154q0 87 14.5 154.5t46.5 113.5t84.5 70t127.5 24 q76 0 128 -23.5t84.5 -69.5t47 -113.5t14.5 -155.5q0 -89 -14.5 -155t-47 -110t-84.5 -66t-128 -22zM413 955l37 -103l-244 -82l-34 92z" />
<glyph unicode="&#xd4;" horiz-adv-x="647" d="M322 92q45 0 75.5 14t48.5 44.5t26 78t8 113.5q0 130 -34.5 194t-123.5 64q-45 0 -75 -16t-48 -48t-26 -80.5t-8 -113.5q0 -66 8 -113t26 -77.5t48 -45t75 -14.5zM322 -11q-76 0 -128 22t-84.5 66.5t-46.5 110.5t-14 154q0 87 14.5 154.5t46.5 113.5t84.5 70t127.5 24 q76 0 128 -23.5t84.5 -69.5t47 -113.5t14.5 -155.5q0 -89 -14.5 -155t-47 -110t-84.5 -66t-128 -22zM277 934h100l132 -143h-124l-57 56l-56 -56h-127z" />
<glyph unicode="&#xd5;" horiz-adv-x="647" d="M322 92q45 0 75.5 14t48.5 44.5t26 78t8 113.5q0 130 -34.5 194t-123.5 64q-45 0 -75 -16t-48 -48t-26 -80.5t-8 -113.5q0 -66 8 -113t26 -77.5t48 -45t75 -14.5zM322 -11q-76 0 -128 22t-84.5 66.5t-46.5 110.5t-14 154q0 87 14.5 154.5t46.5 113.5t84.5 70t127.5 24 q76 0 128 -23.5t84.5 -69.5t47 -113.5t14.5 -155.5q0 -89 -14.5 -155t-47 -110t-84.5 -66t-128 -22zM509 846q-16 -18 -33 -31q-14 -11 -32 -20.5t-36 -9.5q-19 0 -42.5 7.5t-47 17t-44 17t-32.5 7.5q-11 0 -24 -7t-26 -15q-15 -10 -30 -22l-25 83q15 17 33 31 q15 11 33.5 21t36.5 10q21 0 45.5 -7.5t47.5 -16.5t42 -16.5t30 -7.5q9 0 22.5 6.5t26.5 14.5q15 9 31 21z" />
<glyph unicode="&#xd6;" horiz-adv-x="647" d="M322 92q45 0 75.5 14t48.5 44.5t26 78t8 113.5q0 130 -34.5 194t-123.5 64q-45 0 -75 -16t-48 -48t-26 -80.5t-8 -113.5q0 -66 8 -113t26 -77.5t48 -45t75 -14.5zM322 -11q-76 0 -128 22t-84.5 66.5t-46.5 110.5t-14 154q0 87 14.5 154.5t46.5 113.5t84.5 70t127.5 24 q76 0 128 -23.5t84.5 -69.5t47 -113.5t14.5 -155.5q0 -89 -14.5 -155t-47 -110t-84.5 -66t-128 -22zM165 919h105v-114h-105v114zM381 919h104v-114h-104v114z" />
<glyph unicode="&#xd7;" d="M262 350l140 139l76 -76l-139 -140l137 -136l-77 -77l-137 137l-139 -140l-77 77l140 139l-137 137l77 77z" />
<glyph unicode="&#xd8;" horiz-adv-x="656" d="M322 -11q-65 0 -114 17l-58 -125l-68 33l60 128q-51 42 -72 116.5t-21 183.5q0 87 14.5 154.5t46.5 113.5t84.5 70t127.5 24q68 0 120 -20l55 118l71 -26l-62 -133q48 -45 69 -120t21 -181q0 -89 -14.5 -155t-47 -110t-84.5 -66t-128 -22zM165 342q0 -63 6.5 -108.5 t23.5 -76.5l200 428q-30 15 -73 15q-45 0 -75 -16t-48 -48t-26 -80.5t-8 -113.5zM322 92q45 0 75.5 14t48.5 44.5t26 78t8 113.5q0 60 -7 105.5t-22 77.5l-197 -422q26 -11 68 -11z" />
<glyph unicode="&#xd9;" horiz-adv-x="645" d="M186 221q0 -67 33 -95t101 -28q69 0 103 28t34 95v471h112v-471q0 -122 -59.5 -176t-189.5 -54q-128 0 -187 54t-59 176v471h112v-471zM451 854l-34 -92l-244 82l37 103z" />
<glyph unicode="&#xda;" horiz-adv-x="645" d="M186 221q0 -67 33 -95t101 -28q69 0 103 28t34 95v471h112v-471q0 -122 -59.5 -176t-189.5 -54q-128 0 -187 54t-59 176v471h112v-471zM414 955l37 -103l-244 -82l-34 92z" />
<glyph unicode="&#xdb;" horiz-adv-x="645" d="M186 221q0 -67 33 -95t101 -28q69 0 103 28t34 95v471h112v-471q0 -122 -59.5 -176t-189.5 -54q-128 0 -187 54t-59 176v471h112v-471zM271 933h100l132 -143h-124l-57 56l-56 -56h-127z" />
<glyph unicode="&#xdc;" horiz-adv-x="645" d="M186 221q0 -67 33 -95t101 -28q69 0 103 28t34 95v471h112v-471q0 -122 -59.5 -176t-189.5 -54q-128 0 -187 54t-59 176v471h112v-471zM162 928h105v-114h-105v114zM378 928h104v-114h-104v114z" />
<glyph unicode="&#xdd;" horiz-adv-x="563" d="M338 0h-111l-1 296l-208 396h125l138 -277l137 277h125l-206 -396zM405 955l37 -103l-244 -82l-34 92z" />
<glyph unicode="&#xde;" horiz-adv-x="598" d="M323 217q62 0 90.5 36.5t28.5 99.5q0 60 -28.5 94t-90.5 34h-128v-264h128zM195 109l1 -109h-113l-1 692h113v-104h128q118 0 176 -60t58 -175q0 -118 -58 -181t-176 -63h-128z" />
<glyph unicode="&#xdf;" horiz-adv-x="618" d="M75 0l-1 532q0 51 13.5 86.5t40.5 57.5t67.5 31.5t95.5 9.5q113 0 164 -34t51 -116q0 -28 -5 -47t-15.5 -33t-27.5 -24.5t-40 -21.5q-36 -17 -48 -29t-12 -29q0 -6 2.5 -12t12 -12.5t27.5 -16t49 -23.5q34 -15 57 -29t36.5 -30.5t19.5 -37.5t6 -51q0 -53 -11 -87.5 t-35 -55t-62.5 -29t-93.5 -8.5q-11 0 -33 2.5t-44 5.5q-26 4 -54 9l4 88q28 -1 53 -2q21 -1 40 -1.5t26 -0.5q29 0 47.5 3.5t29.5 12t15.5 22t4.5 33.5q0 12 -4 21.5t-14 18.5t-27.5 18.5t-45.5 20.5q-35 14 -58 27t-36.5 29t-19 35.5t-5.5 46.5q0 22 4.5 38.5t14.5 29.5 t24.5 23t34.5 20q21 10 34.5 18t21.5 15.5t11 16t3 19.5q0 34 -24.5 46t-77.5 12q-51 0 -79 -19t-28 -73l1 -526h-110z" />
<glyph unicode="&#xe0;" d="M428 124q4 -17 20.5 -28.5t39.5 -15.5l-6 -90q-51 2 -82 13t-48 34q-21 -19 -53 -33t-74 -14q-73 0 -111.5 37.5t-54.5 105.5q-6 26 -9 56.5t-3 62.5q1 60 13.5 107.5t38 80.5t64 51t92.5 18q28 0 49.5 -3.5t39.5 -8.5l85 13zM211 83q18 0 36 7t33.5 17t27.5 21.5 t18 19.5v135q1 32 0 62t0 63h-2l-27 4.5t-29 2.5q-65 0 -92.5 -45.5t-27.5 -130.5q0 -32 1.5 -58.5t5.5 -45.5q6 -24 19 -38t37 -14zM393 671l-34 -91l-244 81l37 103z" />
<glyph unicode="&#xe1;" d="M428 124q4 -17 20.5 -28.5t39.5 -15.5l-6 -90q-51 2 -82 13t-48 34q-21 -19 -53 -33t-74 -14q-73 0 -111.5 37.5t-54.5 105.5q-6 26 -9 56.5t-3 62.5q1 60 13.5 107.5t38 80.5t64 51t92.5 18q28 0 49.5 -3.5t39.5 -8.5l85 13zM211 83q18 0 36 7t33.5 17t27.5 21.5 t18 19.5v135q1 32 0 62t0 63h-2l-27 4.5t-29 2.5q-65 0 -92.5 -45.5t-27.5 -130.5q0 -32 1.5 -58.5t5.5 -45.5q6 -24 19 -38t37 -14zM397 765l37 -103l-244 -82l-34 92z" />
<glyph unicode="&#xe2;" d="M428 124q4 -17 20.5 -28.5t39.5 -15.5l-6 -90q-51 2 -82 13t-48 34q-21 -19 -53 -33t-74 -14q-73 0 -111.5 37.5t-54.5 105.5q-6 26 -9 56.5t-3 62.5q1 60 13.5 107.5t38 80.5t64 51t92.5 18q28 0 49.5 -3.5t39.5 -8.5l85 13zM211 83q18 0 36 7t33.5 17t27.5 21.5 t18 19.5v135q1 32 0 62t0 63h-2l-27 4.5t-29 2.5q-65 0 -92.5 -45.5t-27.5 -130.5q0 -32 1.5 -58.5t5.5 -45.5q6 -24 19 -38t37 -14zM205 747h88l130 -162h-118l-55 71l-55 -71h-118z" />
<glyph unicode="&#xe3;" d="M428 124q4 -17 20.5 -28.5t39.5 -15.5l-6 -90q-51 2 -82 13t-48 34q-21 -19 -53 -33t-74 -14q-73 0 -111.5 37.5t-54.5 105.5q-6 26 -9 56.5t-3 62.5q1 60 13.5 107.5t38 80.5t64 51t92.5 18q28 0 49.5 -3.5t39.5 -8.5l85 13zM211 83q18 0 36 7t33.5 17t27.5 21.5 t18 19.5v135q1 32 0 62t0 63h-2l-27 4.5t-29 2.5q-65 0 -92.5 -45.5t-27.5 -130.5q0 -32 1.5 -58.5t5.5 -45.5q6 -24 19 -38t37 -14zM425 654q-15 -17 -32 -29q-14 -11 -31.5 -20t-35.5 -9t-39 7.5t-41.5 16t-38 16t-29.5 7.5q-11 0 -24 -6.5t-25 -14.5q-14 -10 -29 -21 l-24 83q15 16 32 29q14 11 32.5 20.5t36.5 9.5q21 0 42.5 -7t41 -15.5t36 -15.5t27.5 -7q9 0 22 5.5t25 13.5q14 9 30 20z" />
<glyph unicode="&#xe4;" d="M428 124q4 -17 20.5 -28.5t39.5 -15.5l-6 -90q-51 2 -82 13t-48 34q-21 -19 -53 -33t-74 -14q-73 0 -111.5 37.5t-54.5 105.5q-6 26 -9 56.5t-3 62.5q1 60 13.5 107.5t38 80.5t64 51t92.5 18q28 0 49.5 -3.5t39.5 -8.5l85 13zM211 83q18 0 36 7t33.5 17t27.5 21.5 t18 19.5v135q1 32 0 62t0 63h-2l-27 4.5t-29 2.5q-65 0 -92.5 -45.5t-27.5 -130.5q0 -32 1.5 -58.5t5.5 -45.5q6 -24 19 -38t37 -14zM120 728h105v-114h-105v114zM330 728h104v-114h-104v114z" />
<glyph unicode="&#xe5;" d="M428 124q4 -17 20.5 -28.5t39.5 -15.5l-6 -90q-51 2 -82 13t-48 34q-21 -19 -53 -33t-74 -14q-73 0 -111.5 37.5t-54.5 105.5q-6 26 -9 56.5t-3 62.5q1 60 13.5 107.5t38 80.5t64 51t92.5 18q28 0 49.5 -3.5t39.5 -8.5l85 13zM211 83q18 0 36 7t33.5 17t27.5 21.5 t18 19.5v135q1 32 0 62t0 63h-2l-27 4.5t-29 2.5q-65 0 -92.5 -45.5t-27.5 -130.5q0 -32 1.5 -58.5t5.5 -45.5q6 -24 19 -38t37 -14zM148 661q0 23 8.5 43.5t23.5 35.5t35.5 23.5t44.5 8.5q23 0 43.5 -8.5t35.5 -23.5t23.5 -35.5t8.5 -43.5q0 -24 -8.5 -44.5t-23.5 -35.5 t-35.5 -23.5t-43.5 -8.5q-24 0 -44.5 8.5t-35.5 23.5t-23.5 35.5t-8.5 44.5zM222 661q0 -17 11 -28t28 -11q16 0 27 11t11 28q0 16 -11 27t-27 11q-17 0 -28 -11t-11 -27z" />
<glyph unicode="&#xe6;" horiz-adv-x="828" d="M565 85q27 0 58.5 1t58.5 3q32 2 64 5l2 -82q-28 -7 -60 -12q-27 -5 -61.5 -8t-69.5 -3q-106 0 -155 50l-27 -12q-10 -4 -25.5 -10.5t-36.5 -12.5t-47 -10.5t-57 -4.5q-66 0 -108 42t-42 117q0 40 12 68t33.5 45.5t53 26.5t70.5 13l117 9v34q0 32 -16 49t-45 17 q-28 0 -61.5 -2t-62.5 -4q-34 -3 -69 -6l-3 93q36 5 71 9q30 4 64 7t63 3q46 0 79.5 -12.5t53.5 -41.5q26 29 61 41.5t80 12.5q104 0 154 -59t50 -169l-7 -78h-302q1 -56 25.5 -87.5t84.5 -31.5zM226 81q20 0 42 3.5t40 8t30 8t14 4.5q-5 26 -6 58t-1 64l-111 -7 q-64 -5 -64 -69q0 -34 16.5 -52t39.5 -18zM656 287q0 66 -22 98.5t-77 32.5t-78.5 -33.5t-24.5 -97.5h202z" />
<glyph unicode="&#xe7;" horiz-adv-x="436" d="M387 -127q0 -48 -28 -72.5t-76 -24.5q-33 0 -61 5q-15 2 -29 5l3 65q10 -1 20 -1q8 -1 18 -1h18q40 0 40 31q0 16 -10 21.5t-30 5.5h-32v84q-93 8 -133.5 74t-40.5 191q0 128 50 191t156 63q26 0 51 -2.5t46 -5.5q24 -4 47 -7l-4 -93q-21 2 -41 4q-17 2 -36.5 3t-33.5 1 q-69 0 -96 -36t-27 -118q0 -85 26 -126t98 -41q14 0 33.5 0.5t36.5 2.5q20 2 41 4l3 -93q-20 -3 -41 -6q-18 -2 -41 -4.5t-46 -3.5v-31q30 0 52 -3.5t37 -13t22.5 -26t7.5 -42.5z" />
<glyph unicode="&#xe8;" horiz-adv-x="507" d="M369 671l-34 -91l-244 81l37 103zM438 49q-10 -8 -28 -18t-41 -19t-51 -15.5t-59 -6.5q-86 0 -131.5 41.5t-62.5 115.5q-13 52 -11 107q1 64 19.5 112t47.5 80t66 47.5t75 15.5q74 0 119.5 -37.5t58.5 -92.5q8 -32 1.5 -64.5t-29.5 -64.5q-21 -30 -54 -49t-68 -30 t-69 -15.5t-57 -5.5q3 -13 8 -25t15 -21t25.5 -14t38.5 -5q21 0 44.5 7t45 17.5t40.5 22.5t31 22zM271 416q-20 0 -40.5 -11.5t-37 -33t-27 -53.5t-10.5 -74q32 2 68 10.5t65 24.5t45 40.5t8 57.5q-4 19 -22.5 29t-48.5 10z" />
<glyph unicode="&#xe9;" horiz-adv-x="507" d="M363 765l37 -103l-244 -82l-34 92zM438 49q-10 -8 -28 -18t-41 -19t-51 -15.5t-59 -6.5q-86 0 -131.5 41.5t-62.5 115.5q-13 52 -11 107q1 64 19.5 112t47.5 80t66 47.5t75 15.5q74 0 119.5 -37.5t58.5 -92.5q8 -32 1.5 -64.5t-29.5 -64.5q-21 -30 -54 -49t-68 -30 t-69 -15.5t-57 -5.5q3 -13 8 -25t15 -21t25.5 -14t38.5 -5q21 0 44.5 7t45 17.5t40.5 22.5t31 22zM271 416q-20 0 -40.5 -11.5t-37 -33t-27 -53.5t-10.5 -74q32 2 68 10.5t65 24.5t45 40.5t8 57.5q-4 19 -22.5 29t-48.5 10z" />
<glyph unicode="&#xea;" horiz-adv-x="507" d="M217 747h88l130 -162h-118l-55 71l-55 -71h-118zM438 49q-10 -8 -28 -18t-41 -19t-51 -15.5t-59 -6.5q-86 0 -131.5 41.5t-62.5 115.5q-13 52 -11 107q1 64 19.5 112t47.5 80t66 47.5t75 15.5q74 0 119.5 -37.5t58.5 -92.5q8 -32 1.5 -64.5t-29.5 -64.5q-21 -30 -54 -49 t-68 -30t-69 -15.5t-57 -5.5q3 -13 8 -25t15 -21t25.5 -14t38.5 -5q21 0 44.5 7t45 17.5t40.5 22.5t31 22zM271 416q-20 0 -40.5 -11.5t-37 -33t-27 -53.5t-10.5 -74q32 2 68 10.5t65 24.5t45 40.5t8 57.5q-4 19 -22.5 29t-48.5 10z" />
<glyph unicode="&#xeb;" horiz-adv-x="507" d="M127 728h105v-114h-105v114zM337 728h104v-114h-104v114zM438 49q-10 -8 -28 -18t-41 -19t-51 -15.5t-59 -6.5q-86 0 -131.5 41.5t-62.5 115.5q-13 52 -11 107q1 64 19.5 112t47.5 80t66 47.5t75 15.5q74 0 119.5 -37.5t58.5 -92.5q8 -32 1.5 -64.5t-29.5 -64.5 q-21 -30 -54 -49t-68 -30t-69 -15.5t-57 -5.5q3 -13 8 -25t15 -21t25.5 -14t38.5 -5q21 0 44.5 7t45 17.5t40.5 22.5t31 22zM271 416q-20 0 -40.5 -11.5t-37 -33t-27 -53.5t-10.5 -74q32 2 68 10.5t65 24.5t45 40.5t8 57.5q-4 19 -22.5 29t-48.5 10z" />
<glyph unicode="&#xec;" horiz-adv-x="266" d="M77 499h110l1 -499h-110zM226 671l-34 -91l-243 81l37 103z" />
<glyph unicode="&#xed;" horiz-adv-x="261" d="M251 765l37 -103l-244 -82l-34 92zM77 499h110l1 -499h-110z" />
<glyph unicode="&#xee;" horiz-adv-x="266" d="M77 499h110l1 -499h-110zM83 747h88l130 -162h-118l-55 71l-55 -71h-117z" />
<glyph unicode="&#xef;" horiz-adv-x="266" d="M-6 728h104v-114h-104v114zM203 728h104v-114h-104v114zM77 499h110l1 -499h-110z" />
<glyph unicode="&#xf0;" d="M107 553l60 45q-20 5 -43 9.5t-48 9.5l17 93q49 -7 92.5 -15.5t81.5 -21.5l96 73l45 -63l-60 -45q76 -43 115.5 -112.5t39.5 -176.5q0 -93 -13.5 -161t-43 -111.5t-76 -64.5t-112.5 -21q-112 0 -171 60t-59 178q0 47 15.5 85t43.5 65t68 41.5t88 14.5q26 0 52 -5t46 -10 q24 -6 45 -14q-2 28 -9.5 51.5t-22.5 43.5t-38.5 37t-57.5 31l-105 -80zM249 338q-24 0 -43.5 -8.5t-33 -23.5t-20.5 -35t-7 -42q0 -63 26.5 -100t86.5 -37q65 0 96.5 50.5t31.5 167.5q-20 8 -42 14q-19 5 -43.5 9.5t-51.5 4.5z" />
<glyph unicode="&#xf1;" horiz-adv-x="574" d="M89 0l-1 499h109v-26q21 10 44 18q19 7 42 13t44 6q49 0 82 -16.5t52.5 -48t27.5 -78t8 -106.5l1 -261h-110l-1 260q0 34 -3 61.5t-11.5 47.5t-24.5 31t-42 11q-18 0 -37 -4t-35 -9q-18 -6 -37 -13l1 -385h-109zM464 654q-15 -17 -32 -29q-14 -11 -31.5 -20t-35.5 -9 t-39 7.5t-41.5 16t-38 16t-29.5 7.5q-11 0 -24 -6.5t-25 -14.5q-14 -10 -29 -21l-24 83q15 16 32 29q14 11 32.5 20.5t36.5 9.5q21 0 42.5 -7t41 -15.5t36 -15.5t27.5 -7q9 0 22 5.5t25 13.5q14 9 30 20z" />
<glyph unicode="&#xf2;" horiz-adv-x="531" d="M264 510q61 0 103 -19t67.5 -53.5t36.5 -81.5t11 -104t-10.5 -105t-35.5 -83.5t-67 -55t-105 -19.5q-64 0 -106 19.5t-67 54t-35.5 83t-10.5 107.5q0 57 10.5 104t36 81t67.5 53t105 19zM264 84q34 0 54.5 12.5t32 34.5t15.5 53t4 68t-5 67t-17 51.5t-32.5 33t-51.5 11.5 q-32 0 -53 -11t-33 -32t-17 -51t-5 -68t4 -69.5t16 -53.5t33 -34t55 -12zM353 671l-34 -91l-244 81l37 103z" />
<glyph unicode="&#xf3;" horiz-adv-x="531" d="M264 510q61 0 103 -19t67.5 -53.5t36.5 -81.5t11 -104t-10.5 -105t-35.5 -83.5t-67 -55t-105 -19.5q-64 0 -106 19.5t-67 54t-35.5 83t-10.5 107.5q0 57 10.5 104t36 81t67.5 53t105 19zM264 84q34 0 54.5 12.5t32 34.5t15.5 53t4 68t-5 67t-17 51.5t-32.5 33t-51.5 11.5 q-32 0 -53 -11t-33 -32t-17 -51t-5 -68t4 -69.5t16 -53.5t33 -34t55 -12zM356 765l37 -103l-244 -82l-34 92z" />
<glyph unicode="&#xf4;" horiz-adv-x="531" d="M264 510q61 0 103 -19t67.5 -53.5t36.5 -81.5t11 -104t-10.5 -105t-35.5 -83.5t-67 -55t-105 -19.5q-64 0 -106 19.5t-67 54t-35.5 83t-10.5 107.5q0 57 10.5 104t36 81t67.5 53t105 19zM264 84q34 0 54.5 12.5t32 34.5t15.5 53t4 68t-5 67t-17 51.5t-32.5 33t-51.5 11.5 q-32 0 -53 -11t-33 -32t-17 -51t-5 -68t4 -69.5t16 -53.5t33 -34t55 -12zM199 747h88l130 -162h-118l-55 71l-55 -71h-118z" />
<glyph unicode="&#xf5;" horiz-adv-x="531" d="M264 510q61 0 103 -19t67.5 -53.5t36.5 -81.5t11 -104t-10.5 -105t-35.5 -83.5t-67 -55t-105 -19.5q-64 0 -106 19.5t-67 54t-35.5 83t-10.5 107.5q0 57 10.5 104t36 81t67.5 53t105 19zM264 84q34 0 54.5 12.5t32 34.5t15.5 53t4 68t-5 67t-17 51.5t-32.5 33t-51.5 11.5 q-32 0 -53 -11t-33 -32t-17 -51t-5 -68t4 -69.5t16 -53.5t33 -34t55 -12zM412 654q-15 -17 -32 -29q-14 -11 -31.5 -20t-35.5 -9t-39 7.5t-41.5 16t-38 16t-29.5 7.5q-11 0 -24 -6.5t-25 -14.5q-14 -10 -29 -21l-24 83q15 16 32 29q14 11 32.5 20.5t36.5 9.5q21 0 42.5 -7 t41 -15.5t36 -15.5t27.5 -7q9 0 22 5.5t25 13.5q14 9 30 20z" />
<glyph unicode="&#xf6;" horiz-adv-x="531" d="M264 510q61 0 103 -19t67.5 -53.5t36.5 -81.5t11 -104t-10.5 -105t-35.5 -83.5t-67 -55t-105 -19.5q-64 0 -106 19.5t-67 54t-35.5 83t-10.5 107.5q0 57 10.5 104t36 81t67.5 53t105 19zM264 84q34 0 54.5 12.5t32 34.5t15.5 53t4 68t-5 67t-17 51.5t-32.5 33t-51.5 11.5 q-32 0 -53 -11t-33 -32t-17 -51t-5 -68t4 -69.5t16 -53.5t33 -34t55 -12zM109 728h105v-114h-105v114zM319 728h104v-114h-104v114z" />
<glyph unicode="&#xf7;" d="M208 522h109v-119h-109v119zM46 337h433v-109h-433v109zM208 161h109v-119h-109v119z" />
<glyph unicode="&#xf8;" horiz-adv-x="529" d="M85 -85l46 110q-48 34 -66.5 95t-18.5 139q0 57 10.5 103t35.5 79t67 51t105 18q33 0 62 -6l42 102l68 -25l-44 -105q50 -32 70 -91.5t20 -135.5q0 -57 -10.5 -105t-35.5 -82.5t-67 -53.5t-105 -19q-38 0 -70 8l-41 -107zM156 253q0 -41 4.5 -73.5t18.5 -54.5l115 286 q-8 2 -15 3t-15 1q-32 0 -53 -11t-33 -32t-17 -51t-5 -68zM264 84q34 0 54.5 12.5t32 34.5t15.5 53t4 68q1 38 -4.5 69t-19.5 52l-113 -286q15 -3 31 -3z" />
<glyph unicode="&#xf9;" horiz-adv-x="560" d="M480 499l1 -499h-110l-1 26q-22 -11 -44 -19q-19 -7 -41 -12.5t-42 -5.5q-48 0 -81 14.5t-52.5 45t-28 77.5t-8.5 112v261h110v-260q0 -81 15.5 -117.5t65.5 -36.5q17 0 35 4.5t34 9.5q18 6 37 14v386h110zM367 671l-34 -91l-244 81l37 103z" />
<glyph unicode="&#xfa;" horiz-adv-x="560" d="M480 499l1 -499h-110l-1 26q-22 -11 -44 -19q-19 -7 -41 -12.5t-42 -5.5q-48 0 -81 14.5t-52.5 45t-28 77.5t-8.5 112v261h110v-260q0 -81 15.5 -117.5t65.5 -36.5q17 0 35 4.5t34 9.5q18 6 37 14v386h110zM370 765l37 -103l-244 -82l-34 92z" />
<glyph unicode="&#xfb;" horiz-adv-x="560" d="M480 499l1 -499h-110l-1 26q-22 -11 -44 -19q-19 -7 -41 -12.5t-42 -5.5q-48 0 -81 14.5t-52.5 45t-28 77.5t-8.5 112v261h110v-260q0 -81 15.5 -117.5t65.5 -36.5q17 0 35 4.5t34 9.5q18 6 37 14v386h110zM213 747h88l130 -162h-118l-55 71l-55 -71h-118z" />
<glyph unicode="&#xfc;" horiz-adv-x="560" d="M480 499l1 -499h-110l-1 26q-22 -11 -44 -19q-19 -7 -41 -12.5t-42 -5.5q-48 0 -81 14.5t-52.5 45t-28 77.5t-8.5 112v261h110v-260q0 -81 15.5 -117.5t65.5 -36.5q17 0 35 4.5t34 9.5q18 6 37 14v386h110zM123 728h105v-114h-105v114zM333 728h104v-114h-104v114z" />
<glyph unicode="&#xfd;" horiz-adv-x="484" d="M121 499l89 -339q8 -26 17.5 -39.5t19.5 -15.5l104 394h112l-129 -494q-13 -50 -29 -85t-41.5 -62t-64.5 -50t-98 -49l-28 101q40 19 65.5 32.5t41.5 28t25 33t17 47.5q-14 0 -29.5 8t-29.5 22.5t-26 35t-18 46.5l-101 386h103zM379 765l37 -103l-244 -82l-34 92z" />
<glyph unicode="&#xfe;" horiz-adv-x="546" d="M275 84q63 0 87.5 43.5t24.5 128.5q0 72 -23 114t-72 42q-18 0 -36 -3t-33 -6q-18 -4 -33 -9v-303q12 -2 25 -4q22 -3 60 -3zM305 510q99 0 146 -61.5t47 -192.5q0 -75 -13.5 -126t-40.5 -82.5t-68.5 -45t-98.5 -13.5q-16 0 -31.5 0.5t-27.5 1.5q-15 1 -28 2v-208h-109 v922h109v-226q18 8 37 14q17 5 37 10t41 5z" />
<glyph unicode="&#xff;" horiz-adv-x="484" d="M121 499l89 -339q8 -26 17.5 -39.5t19.5 -15.5l104 394h112l-129 -494q-13 -50 -29 -85t-41.5 -62t-64.5 -50t-98 -49l-28 101q40 19 65.5 32.5t41.5 28t25 33t17 47.5q-14 0 -29.5 8t-29.5 22.5t-26 35t-18 46.5l-101 386h103zM73 728h105v-114h-105v114zM283 728h104 v-114h-104v114z" />
<glyph unicode="&#x152;" horiz-adv-x="900" d="M428 0q-32 -5 -67 -8t-63 -3q-73 0 -122.5 23.5t-80 68.5t-44 111.5t-13.5 152.5q0 184 62.5 271.5t197.5 87.5q28 0 63 -3.5t64 -8.5h420v-104h-309v-194h249v-99h-249v-191h309l1 -104h-418zM313 94q8 0 21.5 0.5t29 1.5t31.5 2.5t30 2.5v490q-28 2 -61.5 4.5 t-52.5 2.5q-43 0 -73 -14t-48.5 -44.5t-27 -78.5t-8.5 -116q0 -65 7 -112.5t25 -78t49 -45.5t78 -15z" />
<glyph unicode="&#x153;" horiz-adv-x="876" d="M613 85q27 0 58.5 1t58.5 3q32 2 64 5l2 -82q-28 -7 -60 -12q-27 -5 -61.5 -8t-69.5 -3q-111 0 -160 63q-25 -32 -62.5 -47.5t-97.5 -15.5q-65 0 -107 19t-67.5 53.5t-35.5 83t-10 108.5q0 58 10.5 105t36 81t68 52.5t105.5 18.5q60 0 99.5 -17.5t64.5 -52.5 q27 37 65.5 53.5t90.5 16.5q106 0 156.5 -59t50.5 -169l-7 -78h-302q1 -56 25.5 -87.5t84.5 -31.5zM285 84q34 0 55.5 12t33 34t15.5 53t4 69q0 82 -23 122.5t-85 40.5q-33 0 -54 -11t-33.5 -31.5t-17 -50.5t-4.5 -69t4 -70.5t16 -53.5t33 -33.5t56 -11.5zM704 287 q0 69 -20 97.5t-75 28.5t-80.5 -31t-26.5 -95h202z" />
<glyph unicode="&#x178;" horiz-adv-x="563" d="M338 0h-111l-1 296l-208 396h120l138 -277l137 277h130l-206 -396zM129 919h105v-114h-105v114zM345 919h104v-114h-104v114z" />
<glyph unicode="&#x2c6;" horiz-adv-x="833" d="M363 747h88l130 -162h-118l-55 71l-55 -71h-118z" />
<glyph unicode="&#x2dc;" horiz-adv-x="461" d="M397 654q-15 -17 -32 -29q-14 -11 -31.5 -20t-35.5 -9t-39 7.5t-41.5 16t-38 16t-29.5 7.5q-11 0 -24 -6.5t-25 -14.5q-14 -10 -29 -21l-24 83q15 16 32 29q14 11 32.5 20.5t36.5 9.5q21 0 42.5 -7t41 -15.5t36 -15.5t27.5 -7q9 0 22 5.5t25 13.5q14 9 30 20z" />
<glyph unicode="&#x2000;" horiz-adv-x="477" />
<glyph unicode="&#x2001;" horiz-adv-x="955" />
<glyph unicode="&#x2002;" horiz-adv-x="477" />
<glyph unicode="&#x2003;" horiz-adv-x="955" />
<glyph unicode="&#x2004;" horiz-adv-x="318" />
<glyph unicode="&#x2005;" horiz-adv-x="238" />
<glyph unicode="&#x2006;" horiz-adv-x="159" />
<glyph unicode="&#x2007;" horiz-adv-x="159" />
<glyph unicode="&#x2008;" horiz-adv-x="119" />
<glyph unicode="&#x2009;" horiz-adv-x="191" />
<glyph unicode="&#x200a;" horiz-adv-x="53" />
<glyph unicode="&#x2010;" horiz-adv-x="440" d="M69 322h300v-103h-300v103z" />
<glyph unicode="&#x2011;" horiz-adv-x="440" d="M69 322h300v-103h-300v103z" />
<glyph unicode="&#x2012;" horiz-adv-x="440" d="M69 322h300v-103h-300v103z" />
<glyph unicode="&#x2013;" horiz-adv-x="500" d="M499 323v-100h-499v100h499z" />
<glyph unicode="&#x2014;" horiz-adv-x="1000" d="M999 323v-100h-999v100h999z" />
<glyph unicode="&#x2018;" horiz-adv-x="210" d="M189 744q-14 -28 -26 -56.5t-19.5 -58t-9 -59.5t6.5 -61h-111q-11 68 7.5 125t47.5 110h104z" />
<glyph unicode="&#x2019;" horiz-adv-x="210" d="M16 509q14 28 26 56.5t19.5 58t8.5 59.5t-6 61h111q6 -34 3.5 -65t-11 -60t-21 -56.5t-26.5 -53.5h-104z" />
<glyph unicode="&#x201a;" horiz-adv-x="210" d="M74 148h111l-55 -235h-104z" />
<glyph unicode="&#x201c;" horiz-adv-x="437" d="M191 744q-14 -28 -26 -56.5t-19.5 -58t-9 -59.5t6.5 -61h-111q-11 68 7.5 125t47.5 110h104zM381 744q-14 -28 -26 -56.5t-19.5 -58t-9 -59.5t6.5 -61h-111q-11 68 7.5 125t47.5 110h104z" />
<glyph unicode="&#x201d;" horiz-adv-x="424" d="M32 509q14 28 26 56.5t19.5 58t8.5 59.5t-6 61h111q6 -34 3.5 -65t-11 -60t-21 -56.5t-26.5 -53.5h-104zM218 509q14 28 26 56.5t19.5 58t8.5 59.5t-6 61h111q6 -34 3.5 -65t-11 -60t-21 -56.5t-26.5 -53.5h-104z" />
<glyph unicode="&#x201e;" horiz-adv-x="424" d="M90 148h111l-55 -235h-104zM276 148h111l-55 -235h-104z" />
<glyph unicode="&#x2022;" d="M143 385h242v-283h-242v283z" />
<glyph unicode="&#x2026;" horiz-adv-x="744" d="M66 144h118l1 -144h-118zM321 144h118l1 -144h-118zM576 144h118l1 -144h-118z" />
<glyph unicode="&#x202f;" horiz-adv-x="191" />
<glyph unicode="&#x2039;" horiz-adv-x="524" d="M151 242l116 -93l1 -108l-209 163v81l209 155l-2 -115z" />
<glyph unicode="&#x203a;" horiz-adv-x="524" d="M59 343v105l209 -156v-81l-209 -162v117l115 94z" />
<glyph unicode="&#x205f;" horiz-adv-x="238" />
<glyph unicode="&#x20ac;" horiz-adv-x="577" d="M112 451q7 62 24 104.5t45.5 68.5t71.5 37.5t103 11.5q32 0 64 -3t58 -7q30 -4 56 -9l-7 -93q-28 2 -55 5q-23 2 -50.5 4t-50.5 2q-75 0 -105.5 -30t-35.5 -92h234v-86h-242q0 -4 -0.5 -15t-0.5 -20q0 -11 0.5 -23.5t0.5 -15.5h242v-86h-234q3 -29 11.5 -50t25 -35.5 t43 -21.5t64.5 -7q20 0 47 1.5t51 3.5q28 2 57 5l4 -94q-29 -5 -59 -9q-26 -3 -57.5 -5.5t-60.5 -2.5q-61 0 -105 15.5t-73 43.5t-45 68t-21 88h-61v86h55q0 3 -0.5 15.5t-0.5 23.5q0 9 0.5 20t0.5 15h-55v87h61z" />
<glyph unicode="&#x2122;" d="M6 639h200v-69h-49v-238h-77v238h-74v69zM233 639h92l50 -174l53 174h92v-308h-72v191l-45 -172h-51l-47 172v-191h-72v308z" />
<glyph unicode="&#xe000;" horiz-adv-x="500" d="M0 500h500v-500h-500v500z" />
</font>
</defs>
</svg>
