<?xml version="1.0" standalone="no"?>
<!DOCTYPE svg PUBLIC "-//W3C//DTD SVG 1.1//EN" "http://www.w3.org/Graphics/SVG/1.1/DTD/svg11.dtd" >
<svg xmlns="http://www.w3.org/2000/svg">
<metadata></metadata>
<defs>
<font id="texgyrepagellabold_italic" horiz-adv-x="556" >
<font-face units-per-em="1000" ascent="729" descent="-271" />
<missing-glyph horiz-adv-x="250" />
<glyph unicode="&#xfb01;" horiz-adv-x="611" d="M-130 -262q21 46 32 107l17 3q20 -44 51 -44q26 0 39.5 32t34.5 142l81 425h-91l5 25q82 26 100 35q1 2 1.5 4.5t0.5 4.5t0.5 5t1.5 6q10 53 30.5 81t88.5 83q58 47 86.5 63t55.5 16q16 0 44 -8q-15 -58 -27 -125l-15 -3q-38 56 -78 56q-38 0 -55 -77l-25 -115h160l60 11 q24 4 30 4q37 0 37 -40q0 -25 -11 -64l-54 -196q-20 -71 -20 -93q0 -11 11 -11q14 0 62 30l27 17l12 -28q-4 -3 -12.5 -8.5t-15.5 -11.5q-113 -81 -166 -81q-14 0 -23 12t-9 31q0 24 6 52l69 281q6 26 6 37q0 17 -11 17h-64q-42 0 -103 -10l-55 -235q-36 -154 -65 -226.5 t-75 -126.5q-31 -35 -71 -60.5t-65 -25.5q-22 0 -38 9zM466 632q0 29 19.5 50.5t47.5 21.5q24 0 39.5 -17.5t15.5 -44.5q0 -31 -18 -50.5t-47 -19.5q-26 0 -41.5 16.5t-15.5 43.5z" />
<glyph unicode="&#xfb02;" horiz-adv-x="611" d="M-130 -262q21 46 32 107l17 3q20 -44 51 -44q26 0 39.5 32t34.5 142l81 425h-91l5 25q82 26 100 35q9 54 21 78t46 59q55 55 135 106q31 20 63 20q16 0 44 -8q-3 -7 -8 -33q35 1 92 12t87 23l12 -12l-7 -28q-2 -7 -5.5 -19.5t-4.5 -17.5l-107 -482q-12 -52 -12 -91 q0 -14 12 -14q20 0 53 26l30 23l14 -27q-88 -64 -125.5 -84t-69.5 -20t-32 52q0 40 16 111l101 459q4 16 4 31q0 25 -35 25h-30l-12 -59l-15 -3q-38 56 -78 56q-38 0 -54 -77l-24 -115q45 0 123 8l5 -8q-6 -14 -16 -51h-123l-55 -235q-36 -154 -65 -226.5t-75 -126.5 q-31 -35 -71 -60.5t-65 -25.5q-22 0 -38 9z" />
<glyph unicode="&#xfb03;" horiz-adv-x="869" d="M-130 -262q21 46 32 107l17 3q20 -44 51 -44q27 0 40.5 33t35.5 149l79 417h-91l5 25q82 26 100 35q9 54 22.5 80.5t48.5 58.5l56 49q29 25 84 59q26 16 52 16q19 0 47 -8q-17 -63 -28 -125l-15 -3q-23 33 -38 44.5t-35 11.5q-28 0 -42 -30.5t-35 -132.5l-6 -29h146l7 29 q13 54 33 82.5t86 81.5q58 47 86.5 63t55.5 16q16 0 44 -8q-15 -58 -27 -125l-15 -3q-38 56 -78 56q-38 0 -55 -77l-25 -115h160q71 15 90 15q37 0 37 -40q0 -25 -11 -64l-54 -196q-20 -71 -20 -93q0 -11 11 -11q14 0 62 30l27 17l12 -28q-4 -3 -12.5 -8.5t-15.5 -11.5 q-113 -81 -166 -81q-14 0 -23 12t-9 31q0 24 6 52l69 281q6 26 6 37q0 17 -11 17h-64q-42 0 -103 -10l-55 -235q-36 -154 -65 -226.5t-75 -126.5q-31 -35 -71 -60.5t-65 -25.5q-22 0 -38 9q21 46 32 107l17 3q20 -44 51 -44q26 0 39.5 32t34.5 142l81 425h-146l-55 -235 q-36 -154 -65 -226.5t-75 -126.5q-31 -35 -71 -60.5t-65 -25.5q-22 0 -38 9zM726 632q0 29 19.5 50.5t47.5 21.5q24 0 39.5 -17.5t15.5 -44.5q0 -31 -18 -50.5t-47 -19.5q-26 0 -41.5 16.5t-15.5 43.5z" />
<glyph unicode="&#xfb04;" horiz-adv-x="906" d="M-130 -262q21 46 32 107l17 3q20 -44 51 -44q27 0 40.5 33t35.5 149l79 417h-91l5 25q82 26 100 35q9 54 22.5 80.5t48.5 58.5l56 49q29 25 84 59q26 16 52 16q19 0 47 -8q-17 -63 -28 -125l-15 -3q-23 33 -38 44.5t-35 11.5q-28 0 -42 -30.5t-35 -132.5l-6 -29h147 q14 61 25 87t44 59q55 55 135 106q31 20 63 20q16 0 44 -8q-3 -7 -8 -33q35 1 92 12t87 23l12 -12q-2 -10 -8 -32l-9 -33l-107 -482q-12 -53 -12 -91q0 -14 12 -14q20 0 53 26l30 23l14 -27q-88 -64 -125.5 -84t-69.5 -20t-32 52q0 40 16 111l101 459q4 16 4 31q0 25 -35 25 h-30l-12 -59l-15 -3q-38 56 -78 56q-38 0 -54 -77l-24 -115q58 1 123 8l5 -8q-6 -14 -16 -51h-123l-55 -235q-36 -154 -65 -226.5t-75 -126.5q-31 -35 -71 -60.5t-65 -25.5q-22 0 -38 9q21 46 32 107l17 3q20 -44 51 -44q26 0 39.5 32t34.5 142l81 425h-146l-55 -235 q-36 -154 -65 -226.5t-75 -126.5q-31 -35 -71 -60.5t-65 -25.5q-22 0 -38 9z" />
<glyph horiz-adv-x="1000" />
<glyph horiz-adv-x="1000" />
<glyph unicode="&#xd;" horiz-adv-x="1000" />
<glyph unicode=" "  horiz-adv-x="250" />
<glyph unicode="&#x09;" horiz-adv-x="250" />
<glyph unicode="&#xa0;" horiz-adv-x="250" />
<glyph unicode="!" horiz-adv-x="333" d="M58 49q0 37 22 61.5t55 24.5q28 0 45 -17.5t17 -46.5q0 -38 -21 -63t-53 -25q-29 0 -47 18t-18 48zM127 203l43 430v33h13l127 29l12 -9l-110 -346q-18 -60 -33 -122l-39 -24z" />
<glyph unicode="&#x22;" horiz-adv-x="500" d="M137 467l70 210q14 43 50 43q20 0 33 -12.5t13 -32.5q0 -23 -10 -36l-122 -172h-34zM327 467l70 210q14 43 50 43q20 0 33 -12.5t13 -32.5q0 -23 -10 -36l-122 -172h-34z" />
<glyph unicode="#" horiz-adv-x="500" d="M4 215v75h115l16 107h-103v75h114l30 201h75l-30 -201h107l29 201h75l-29 -201h93v-75h-104l-16 -107h94v-75h-105l-32 -215h-75l32 215h-108l-32 -215h-75l32 215h-103zM194 290h107l16 107h-107z" />
<glyph unicode="$" horiz-adv-x="500" d="M20 40q18 60 26 143h34l-3 -60q-1 -21 3 -29t18 -17q34 -21 85 -36l44 244q-82 14 -120 51t-38 103q0 57 27.5 106.5t76.5 80.5q46 30 122 43l11 68h38l-10 -65q62 -1 122 -32q14 -7 21 -10q-15 -46 -27 -135h-30v71q0 14 -26.5 29.5t-67.5 24.5l-40 -231 q100 -21 137 -60q37 -40 37 -101q0 -60 -33.5 -112.5t-92.5 -87.5q-49 -28 -119 -36l-17 -100h-43l19 101q-63 9 -94 18.5t-60 28.5zM157 490q0 -65 90 -91l40 221q-42 -3 -69 -18q-27 -17 -44 -47.5t-17 -64.5zM223 39q42 0 71 17q31 17 49 49t18 69q0 41 -22 64t-74 37z " />
<glyph unicode="%" horiz-adv-x="889" d="M56 498q0 77 52.5 125.5t135.5 48.5q62 0 98 -40t36 -107q0 -77 -50.5 -126t-129.5 -49q-67 0 -104.5 39.5t-37.5 108.5zM142 446q0 -30 15 -49t38 -19q36 0 60 44q16 28 26.5 72.5t10.5 81.5q0 30 -15 49t-38 19q-34 0 -60 -44q-15 -25 -26 -71t-11 -83zM176 -17 l444 714h51l-442 -714h-53zM468 144q0 77 52.5 125.5t135.5 48.5q62 0 98 -40t36 -107q0 -77 -50.5 -126t-129.5 -49q-67 0 -104.5 39.5t-37.5 108.5zM554 92q0 -30 15 -49t38 -19q36 0 60 44q16 28 26.5 72.5t10.5 81.5q0 30 -15 49t-38 19q-34 0 -60 -44q-15 -25 -26 -71 t-11 -83z" />
<glyph unicode="&#x26;" horiz-adv-x="833" d="M74 174q0 78 54 130q29 28 60 45t92 37q-46 8 -71 35.5t-25 70.5q0 73 91 141q83 62 163 62q64 0 114 -28q-20 -75 -21 -128h-30v60q-52 41 -104 41q-50 0 -82.5 -32.5t-32.5 -81.5t35 -75t89 -26h14l-14 -57q-13 3 -27 3q-83 0 -135.5 -46.5t-52.5 -121.5t53 -121 t141 -46q87 0 144.5 45.5t57.5 113.5q0 37 -23.5 60t-61.5 23q-54 0 -71 -64l-4 -15h-24l10 105q16 18 52 34.5t72 21.5l120 18q62 9 89 26.5t27 49.5q0 33 -36 47l14 25q60 -29 60 -87q0 -49 -30.5 -82.5t-85.5 -44.5l-80 -15q63 -15 63 -77q0 -72 -59.5 -128t-141 -82.5 t-163.5 -26.5q-111 0 -175.5 51.5t-64.5 139.5z" />
<glyph unicode="'" horiz-adv-x="250" d="M127 467l70 210q14 43 50 43q20 0 33 -12.5t13 -32.5q0 -23 -10 -36l-122 -172h-34z" />
<glyph unicode="(" horiz-adv-x="333" d="M58 251q0 110 52.5 213.5t149.5 186.5l84 72l24 -25q-69 -75 -102.5 -130t-59.5 -138q-38 -117 -38 -245q0 -93 18.5 -156t65.5 -137l-26 -21q-81 102 -112 162q-56 109 -56 218z" />
<glyph unicode=")" horiz-adv-x="333" d="M-12 -104q69 75 102.5 130t59.5 138q38 115 38 245q0 92 -18.5 155.5t-65.5 137.5l26 21q81 -102 112 -162q56 -106 56 -219q0 -109 -52.5 -212.5t-149.5 -186.5l-84 -72z" />
<glyph unicode="*" horiz-adv-x="444" d="M84 457l4 7q66 17 137 53q-50 34 -138 59l-3 7q29 45 44 77h16q49 -58 102 -114q13 66 13 142l8 7q41 -15 92 -22l5 -14q-39 -39 -82 -127q15 3 45 8.5t54 10.5t42 12l6 -3q-4 -38 10 -87l-9 -11q-63 25 -154 34q51 -84 80 -118l-2 -12q-35 -7 -85 -34l-15 7 q0 76 -11 145q-54 -39 -101 -105l-19 8q-15 42 -39 70z" />
<glyph unicode="+" horiz-adv-x="606" d="M51 207v86h214v214h86v-214h214v-86h-214v-214h-86v214h-214z" />
<glyph unicode="," horiz-adv-x="250" d="M-33 -150l41 78q17 32 34.5 88.5t23.5 95.5q77 16 126 35l16 -15q-45 -89 -64 -121q-22 -36 -61.5 -87.5t-44.5 -51.5l-53 -36z" />
<glyph unicode="-" horiz-adv-x="389" d="M37 208q22 56 29 92q59 -6 146 -6l143 3l7 -9q-16 -24 -30 -90q-29 1 -68 3t-68 2q-96 0 -153 -4z" />
<glyph unicode="." horiz-adv-x="250" d="M48 49q0 37 22 61.5t55 24.5q28 0 45 -17.5t17 -46.5q0 -38 -21 -63t-53 -25q-29 0 -47 18t-18 48z" />
<glyph unicode="/" horiz-adv-x="315" d="M1 -17l224 737h90l-224 -737h-90z" />
<glyph unicode="0" horiz-adv-x="500" d="M42 228q0 181 78 321q39 70 85.5 102t108.5 32q86 0 131 -63t45 -183q0 -180 -79 -322q-74 -132 -191 -132q-87 0 -132.5 62.5t-45.5 182.5zM156 114q0 -44 17 -69t46 -25q55 0 84 96q26 84 49.5 224t23.5 213q0 43 -17 68t-46 25q-36 0 -58.5 -39.5t-46.5 -136.5l-9 -39 q-18 -78 -30.5 -170.5t-12.5 -146.5z" />
<glyph unicode="1" horiz-adv-x="500" d="M41 -3l5 33l54 3q49 3 60 11.5t18 47.5l88 486l-183 -78l-9 9l16 63q122 31 196 60q58 23 103 46l17 -9q-8 -35 -13 -63l-89 -506q-4 -20 -4 -29q0 -21 11.5 -29t45.5 -9l77 -3l-6 -33q-118 3 -194 3z" />
<glyph unicode="2" horiz-adv-x="500" d="M1 -3v25l97 94q230 222 230 375q0 46 -29 74t-78 28q-37 0 -61 -17.5t-52 -64.5l-14 -24l-30 9l56 136q70 51 146 51q83 0 133.5 -46.5t50.5 -123.5q0 -102 -91 -193l-221 -222h226q38 0 82 8l8 -6q-15 -28 -33 -103q-119 3 -195 3z" />
<glyph unicode="3" horiz-adv-x="500" d="M8 24l30 161l34 -2q-5 -32 -5 -55q0 -48 29.5 -78t78.5 -30q73 0 115 73q30 53 30 118q0 62 -27.5 95.5t-78.5 33.5q-25 0 -76 -15l-6 6l16 51q11 -4 29 -4q57 0 90 19q64 38 64 115q0 43 -25 67t-70 24q-81 0 -126 -88l-29 11l56 111q64 46 145 46q78 0 123 -36.5 t45 -98.5q0 -56 -42 -101q-37 -40 -113 -72l-1 -4q154 -19 154 -150q0 -100 -80.5 -169t-197.5 -69q-79 0 -162 41z" />
<glyph unicode="4" horiz-adv-x="500" d="M3 176l5 38q137 225 310 438q59 5 122 31l13 -10l-77 -421l107 3l4 -2l-18 -77h-107l-13 -83q-3 -19 -3 -32q0 -11 9 -19t23 -9l81 -3l-5 -33q-109 3 -178 3l-178 -3l5 33l63 3q41 2 51.5 12t17.5 50l14 81h-246zM86 252h178l61 345q-148 -189 -239 -345z" />
<glyph unicode="5" horiz-adv-x="500" d="M14 30q14 57 27 148l29 -5q-2 -24 -2 -29q0 -56 31 -90t81 -34q77 0 119 88q29 61 29 131q0 57 -29.5 90t-79.5 33q-33 0 -57 -13t-50 -47l-31 12l64 353l5 8q123 -7 232 -7h93l6 -9l-46 -89l-159 -4h-102l-43 -200q34 28 64.5 39.5t74.5 11.5q86 0 136 -46.5t50 -126.5 q0 -110 -80 -185.5t-198 -75.5q-91 0 -164 47z" />
<glyph unicode="6" horiz-adv-x="500" d="M39 206q0 102 35.5 195.5t100.5 161.5q115 120 240 120q40 0 73 -14l-22 -69l-8 -4q-36 35 -85 35q-85 0 -139 -109q-32 -64 -58 -188q42 44 76.5 62.5t75.5 18.5q64 0 106 -43.5t42 -111.5q0 -111 -78.5 -194t-183.5 -83q-85 0 -130 57.5t-45 165.5zM159 151 q0 -122 85 -122q45 0 71 46q36 60 36 159q0 114 -78 114q-53 0 -83.5 -52.5t-30.5 -144.5z" />
<glyph unicode="7" horiz-adv-x="500" d="M69 10l291 438l79 109h-269q-30 0 -89 -7l-8 6q14 67 21 109l6 9l184 -6h260v-39l-58 -81q-77 -107 -159.5 -264t-135.5 -287q-39 3 -58 3q-12 0 -57 -3z" />
<glyph unicode="8" horiz-adv-x="500" d="M26 130q0 106 131 179l34 19l-14 9q-80 51 -80 132q0 98 104 170q64 44 131 44q69 0 110.5 -35t41.5 -94q0 -81 -93 -145l-53 -36l14 -8q102 -59 102 -147q0 -98 -85 -167q-85 -68 -173 -68q-77 0 -123.5 40t-46.5 107zM108 143q0 -51 31 -82.5t81 -31.5q54 0 91 36.5 t37 89.5q0 90 -112 145l-18 9q-59 -39 -84.5 -77.5t-25.5 -88.5zM194 522q0 -40 24 -67.5t91 -64.5q55 42 75 72.5t20 70.5q0 49 -26.5 76.5t-72.5 27.5q-49 0 -80 -32.5t-31 -82.5z" />
<glyph unicode="9" horiz-adv-x="500" d="M27 101l23 10q36 -79 115 -79q86 0 134 114q23 54 49 167l4 18q-38 -46 -72.5 -65.5t-78.5 -19.5q-67 0 -106 46t-39 125q0 137 119 215q79 51 138 51q84 0 131 -60t47 -167q0 -116 -50 -226.5t-131 -178.5t-167 -68q-34 0 -91 15zM176 452q0 -135 83 -135q50 0 78.5 49 t28.5 137q0 63 -21 97t-60 34q-50 0 -79.5 -49t-29.5 -133z" />
<glyph unicode=":" horiz-adv-x="250" d="M38 49q0 37 22 61.5t55 24.5q28 0 45 -17.5t17 -46.5q0 -38 -21 -63t-53 -25q-29 0 -47 18t-18 48zM97 366q0 38 21.5 62t55.5 24q28 0 45 -17.5t17 -46.5q0 -38 -21 -63t-53 -25q-29 0 -47 18t-18 48z" />
<glyph unicode=";" horiz-adv-x="250" d="M-33 -150l41 78q17 32 34.5 88.5t23.5 95.5q77 16 126 35l16 -15q-45 -89 -64 -121q-22 -36 -61.5 -87.5t-44.5 -51.5l-53 -36zM108 364q0 38 21.5 63t54.5 25q29 0 46 -17t17 -47q0 -38 -21 -63t-53 -25q-29 0 -47 18t-18 46z" />
<glyph unicode="&#x3c;" horiz-adv-x="606" d="M78 211v78l441 211v-96l-322 -154l322 -154v-96z" />
<glyph unicode="=" horiz-adv-x="606" d="M51 122v86h514v-86h-514zM51 292v86h514v-86h-514z" />
<glyph unicode="&#x3e;" horiz-adv-x="606" d="M78 0v96l322 154l-322 154v96l441 -211v-78z" />
<glyph unicode="?" horiz-adv-x="444" d="M91 526q28 62 43 126q45 25 74 34t66 9q80 0 128 -41t48 -111q0 -81 -74 -135l-103 -76q-42 -31 -56 -47.5t-14 -35.5q0 -21 20 -42l-22 -18q-42 35 -42 77q0 45 51 99l63 66q51 54 51 105q0 37 -24.5 58t-66.5 21q-28 0 -56 -14q-25 -12 -46 -62l-7 -17zM97 49 q0 37 22 61.5t55 24.5q28 0 45 -17.5t17 -46.5q0 -38 -21 -63t-53 -25q-29 0 -47 18t-18 48z" />
<glyph unicode="@" horiz-adv-x="833" d="M82 329q0 148 101 250t248 102q132 0 222.5 -81.5t90.5 -200.5q0 -110 -73 -186q-34 -34 -75 -55t-75 -21q-60 0 -69 82q-33 -45 -57.5 -60.5t-60.5 -15.5q-55 0 -89.5 37.5t-34.5 97.5q0 88 62 155.5t144 67.5q66 0 81 -72l16 64h94l-74 -274q-4 -18 -4 -25 q0 -24 19 -24q34 0 80 55q65 78 65 178q0 94 -74 158t-183 64q-128 0 -213 -82.5t-85 -207.5q0 -126 86.5 -208.5t218.5 -82.5q59 0 107 22q39 17 65 39.5t60 67.5h64q-37 -64 -76 -98q-99 -87 -231 -87q-148 0 -249 98.5t-101 242.5zM305 242q0 -31 13.5 -50.5t35.5 -19.5 q50 0 87 81t37 150q0 29 -12.5 48t-33.5 20q-43 3 -85 -72.5t-42 -156.5z" />
<glyph unicode="A" horiz-adv-x="722" d="M-35 -3l5 35l34 3q28 3 47 35l363 613h96q2 -12 4 -35.5t4 -35.5l76 -522q7 -51 54 -55l37 -3v-35q-89 3 -146 3l-155 -3v35l42 3q45 3 42 31l-25 198q-12 0 -33 1t-39.5 1.5t-37.5 0.5l-111 -3l-86 -152q-19 -34 -19 -57q0 -17 43 -20l44 -3l-5 -35q-76 3 -124 3z M245 307h193l-38 266z" />
<glyph unicode="B" horiz-adv-x="667" d="M8 -3l5 32l28 3q23 2 32.5 14t15.5 46l87 502q2 14 2 21q0 16 -10 23t-36 8l-46 3l5 32l158 -3q37 0 95 2t95 2q64 0 105 -16q40 -16 62.5 -49t22.5 -75q0 -66 -47 -108q-28 -25 -59.5 -40.5t-95.5 -34.5q83 -8 124 -37q50 -38 50 -108q0 -91 -78.5 -155t-190.5 -62 q-21 0 -56.5 1t-66.5 1.5t-63 0.5zM211 51q68 -11 112 -11q68 0 107 45t39 123q0 59 -30 88q-39 39 -117 39l-66 -3zM264 375h43q190 0 190 160q0 56 -33 80q-37 27 -97 24q-10 0 -17 -1l-39 -3z" />
<glyph unicode="C" horiz-adv-x="685" d="M69 250q0 185 127 315t308 130q98 0 191 -43q-32 -114 -38 -168h-35l5 88q2 25 -51.5 44.5t-122.5 19.5q-113 0 -179.5 -98.5t-66.5 -265.5q0 -115 47 -169.5t145 -54.5q90 0 198 64l22 13l10 -9l-13 -39q-83 -52 -144.5 -73t-131.5 -21q-132 0 -201.5 68t-69.5 199z" />
<glyph unicode="D" horiz-adv-x="778" d="M0 -3l5 32l28 3q23 2 32.5 14t15.5 46l87 502q2 14 2 20q0 17 -10 24t-36 8l-46 3l5 32l160 -3q37 0 95 2t113 2q87 0 141.5 -19t92.5 -62q62 -70 62 -179q0 -92 -37 -177.5t-102 -144.5q-55 -50 -129 -77.5t-149 -25.5q-85 3 -189 3zM203 51q77 -11 111 -11 q87 0 140.5 26t86.5 85q31 55 49.5 132t18.5 151q0 129 -76 174q-57 32 -157 32q-4 0 -34 -2l-39 -3z" />
<glyph unicode="E" horiz-adv-x="611" d="M11 -3l5 32l28 3q23 2 32.5 14t15.5 46l87 502q2 14 2 21q0 16 -10 23t-36 8l-46 3l5 32q96 -3 157 -3q35 0 91 1.5t92 1.5l162 -3l10 -6l-25 -152h-32v53q0 42 -12 47q-12 4 -67.5 9t-88.5 5q-18 0 -27 -1l-39 -3l-45 -252h86l140 3l5 -9l-14 -47l-170 5h-55l-48 -274 q38 -8 98 -6q13 0 45 -1t48.5 0t39 5t35 15t18.5 29l22 70h36q-14 -59 -34 -168l-167 -3q-35 0 -97.5 2t-105.5 1z" />
<glyph unicode="F" d="M-6 -3l5 35l43 3q24 2 36 20.5t22 76.5l82 462q2 14 2 20q0 17 -9.5 24t-36.5 8l-50 3l5 32q97 -3 159 -3q30 0 78 1.5t79 1.5l174 -3l10 -6l-25 -152h-32v53q0 36 -7 44q-7 6 -50 10.5t-69 4.5q-71 0 -93 -2l-50 -286h86l140 3l5 -9l-14 -47l-170 5h-55l-36 -196 q-4 -20 -4 -35q0 -16 8 -22.5t28 -7.5l63 -3l-5 -35q-101 3 -165 3z" />
<glyph unicode="G" horiz-adv-x="778" d="M72 256q0 138 74.5 245.5t205.5 159.5q87 34 171 34q103 0 199 -43q-32 -114 -38 -168h-35l5 90q1 23 -51 41t-121 18q-105 0 -166 -53q-47 -40 -76.5 -129.5t-29.5 -191.5q0 -111 48 -170t138 -59q69 0 121 29l32 141q3 12 3 23q0 27 -44 28l-60 2l5 33q91 -3 149 -3 l148 3l-5 -33l-25 -2q-20 -1 -30 -11t-15 -34l-20 -96q-8 -38 -3 -62q-108 -39 -164.5 -52t-119.5 -13q-142 0 -219 68.5t-77 204.5z" />
<glyph unicode="H" horiz-adv-x="778" d="M-12 -3l5 35l49 3q26 2 34.5 17t19.5 80l72 409q8 50 8 73q0 15 -8 21.5t-30 7.5l-51 3l5 35q96 -3 157 -3l158 3l-5 -35l-42 -3q-26 -2 -36.5 -12.5t-16.5 -42.5l-39 -202h294l25 155q8 50 8 76q0 23 -38 26l-51 3l5 35q93 -3 152 -3l163 3l-5 -35l-42 -3 q-27 -2 -37 -12t-16 -43l-87 -486q-4 -19 -4 -38q0 -28 38 -29l55 -3l-5 -35q-102 3 -168 3l-148 -3l5 35l49 3q25 1 33.5 16t20.5 81l37 206h-291l-41 -236q-4 -20 -4 -39q0 -25 38 -28l49 -3l-5 -35q-91 3 -150 3z" />
<glyph unicode="I" horiz-adv-x="389" d="M-1 -3l4 35l49 3q25 2 34 18t20 79l72 409q9 54 9 72q0 27 -38 30l-52 3l4 35q93 -3 152 -3l159 3l-4 -35l-45 -3q-25 -2 -33.5 -9.5t-12.5 -34.5l-87 -499q-3 -16 -3 -34q0 -16 8.5 -23t28.5 -8l59 -3l-4 -35q-99 3 -163 3z" />
<glyph unicode="J" horiz-adv-x="389" d="M-29 -162q19 -8 36 -8q38 0 56 39q8 16 21 96l96 576q10 58 10 73q0 26 -38 29l-51 3l5 35q93 -3 153 -3l158 3l-5 -35l-46 -3q-25 -2 -33.5 -9.5t-12.5 -34.5l-98 -556q-17 -98 -77.5 -174t-121.5 -76q-21 0 -52 10v35z" />
<glyph unicode="K" horiz-adv-x="722" d="M-10 -3l4 35l49 3q25 2 34 18t20 79l72 409q9 51 9 72q0 27 -38 30l-52 3l4 35q93 -3 152 -3l159 3l-4 -35l-45 -3q-25 -2 -33.5 -9.5t-12.5 -34.5l-47 -265q24 13 109 92l140 131q9 6 35.5 38t31.5 37q5 6 7.5 12.5t3 9t0 13t-0.5 14.5q48 -3 79 -3l80 3v-33h-35 q-24 0 -82 -52l-245 -223l196 -272q30 -41 41 -52t27 -13l39 -6l-3 -33q-56 3 -92 3l-94 -3q-8 15 -49 73l-129 183q-16 23 -59 75l-40 -228q-3 -18 -3 -30q0 -19 7.5 -26.5t29.5 -8.5l49 -3l-4 -35q-91 3 -150 3z" />
<glyph unicode="L" horiz-adv-x="611" d="M26 -3l4 32l28 3q22 2 31 14t15 46l82 449q9 48 9 74q0 27 -38 28l-52 3l4 35q93 -3 152 -3l159 3l-4 -35l-45 -3q-25 -1 -33 -9t-13 -35l-99 -543q29 -6 62 -6q96 0 174 6q25 2 37.5 11.5t19.5 30.5l23 76h36q-28 -139 -34 -174l-172 -3q-39 0 -100.5 1.5t-100.5 1.5z " />
<glyph unicode="M" horiz-adv-x="944" d="M-23 -3l2 35l42 3q25 1 40 56l125 461q9 33 9 61q0 30 -53 33l-45 3l5 32q67 -3 110 -3l111 3l127 -507q88 138 139.5 221t89.5 147.5t79 138.5q69 -3 113 -3l114 3l-5 -32l-39 -3q-28 -2 -38.5 -15.5t-17.5 -53.5l-80 -467q-7 -28 -7 -45q0 -8 2 -13.5t6.5 -9t11 -5.5 t16.5 -2l55 -3l-5 -35q-93 3 -152 3l-155 -3l5 35l49 3q23 4 29.5 11t12.5 35l2 9.5t2 10.5l82 485l-291 -478l-71 -125h-25l-143 565l-107 -440q-8 -32 -8 -44q0 -28 34 -29l51 -3l-5 -35q-66 3 -108 3z" />
<glyph unicode="N" horiz-adv-x="778" d="M-2 -3l2 35l48 3q16 1 25 13t15 43q85 427 98 492q0 3 -1 6.5t-3.5 8t-5.5 8.5t-6.5 8.5t-8 8t-8.5 6.5q-24 15 -50 17l-39 3l3 32q65 -3 107 -3l108 3l314 -539l74 400q6 38 6 70q0 31 -46 34l-42 3l5 32q72 -3 118 -3l118 3l-6 -32l-37 -3q-24 -3 -34 -10 q-10 -9 -30 -108l-86 -428q-8 -36 -16 -103h-85l-310 537l-73 -396q-8 -43 -8 -62q0 -40 36 -41l51 -3l-5 -35q-68 3 -112 3zM186 582z" />
<glyph unicode="O" horiz-adv-x="833" d="M76 268q0 187 117 307t300 120q145 0 228 -83q73 -73 73 -198q0 -183 -123.5 -307t-305.5 -124q-137 0 -213 74.5t-76 210.5zM214 239q0 -105 44 -159t130 -54q128 0 201 127q67 116 67 282q0 217 -176 217q-127 0 -195 -115q-32 -53 -51.5 -135.5t-19.5 -162.5z" />
<glyph unicode="P" horiz-adv-x="667" d="M11 -3l4 35l49 3q25 2 34 18t20 79l82 462q2 14 2 20q0 17 -9.5 24t-36.5 8l-56 3l5 32q102 -3 168 -3q38 0 97 1.5t97 1.5q80 0 143 -43.5t63 -119.5q0 -98 -73.5 -167.5t-177.5 -69.5q-47 0 -97 18l-2 35q36 -12 66 -12q65 0 108.5 54t43.5 135q0 66 -34 96.5 t-108 30.5q-21 0 -62 -3l-95 -535q-3 -16 -3 -34q0 -30 37 -31l59 -3l-4 -35q-99 3 -163 3z" />
<glyph unicode="Q" horiz-adv-x="833" d="M76 268q0 187 117 307t300 120q145 0 228 -83q73 -73 73 -198q0 -183 -123.5 -307t-305.5 -124q-137 0 -213 74.5t-76 210.5zM150 -154q1 68 35.5 105t96.5 37q51 0 138 -38l94 -41q97 -42 143 -42q63 0 81 90l31 -10q-17 -81 -58 -125t-101 -44q-33 0 -82 26l-199 107 q-36 19 -72 19q-35 0 -56 -27t-22 -71l-5 -2zM214 239q0 -105 44 -159t130 -54q128 0 201 127q67 116 67 282q0 217 -176 217q-127 0 -195 -115q-32 -53 -51.5 -135.5t-19.5 -162.5z" />
<glyph unicode="R" horiz-adv-x="722" d="M4 -3l4 35l49 3q25 2 34 18t20 79l81 462q2 14 2 20q0 17 -9.5 24t-36.5 8l-46 3l5 32q104 -3 170 -3q35 0 91 1.5t92 1.5q75 0 137 -38.5t62 -104.5q0 -91 -77 -140q-46 -30 -128 -45l156 -267q11 -19 26.5 -35t23.5 -17l37 -7v-30q-60 3 -98 3l-84 -3l-145 261 q-8 14 -61 95l5 17h55q69 0 113.5 45t44.5 114q0 58 -32 83.5t-105 25.5q-23 0 -62 -3l-93 -535q-3 -16 -3 -34q0 -30 37 -31l59 -3l-4 -35q-99 3 -163 3z" />
<glyph unicode="S" d="M50 23l21 166h27v-76q39 -74 152 -74q67 0 103 32t36 91q0 48 -25 70q-14 13 -30 21t-68 27q-94 34 -128 69.5t-34 100.5q0 100 78.5 172.5t187.5 72.5q82 0 147 -44q-22 -80 -22 -147h-30v85q-59 50 -134 50q-59 0 -97 -31.5t-38 -81.5q0 -44 27.5 -71t100.5 -54 q62 -23 86.5 -35.5t46.5 -32.5q38 -35 38 -94q0 -58 -30.5 -113.5t-83.5 -93.5q-71 -49 -171 -49q-97 0 -160 40z" />
<glyph unicode="T" horiz-adv-x="611" d="M56 508l25 168l6 5q177 -3 290 -3l290 3l7 -5l-30 -168h-38l4 84q1 20 -12.5 29t-44.5 9h-117l-95 -530q-4 -23 -4 -35q0 -16 8 -22.5t28 -7.5l59 -3l-5 -35q-102 3 -168 3l-156 -3l5 35l53 3q25 2 36.5 20.5t21.5 76.5l85 498h-124q-35 0 -57 -24q-8 -12 -15 -40 l-14 -58h-38z" />
<glyph unicode="U" horiz-adv-x="778" d="M83 646l5 35l132 -3l87 3l6 -7l-86 -460q-3 -17 -3 -35q0 -46 14 -69q12 -21 36.5 -34t52.5 -13q43 0 94 30q36 20 67 47.5t33 41.5l65 359q11 60 11 76q0 25 -37 26l-51 3l5 35q93 -3 152 -3l159 3l-5 -35l-46 -3q-26 -2 -35 -9.5t-14 -34.5l-90 -499q-4 -23 -4 -35 q0 -16 8 -22.5t28 -7.5l59 -3l-5 -35q-72 3 -118 3l-106 -3l-5 8l27 128q-68 -73 -116 -107q-61 -43 -132 -43q-100 0 -149 70q-28 38 -28 103q0 32 8 78l58 307q11 61 11 76q0 25 -37 26z" />
<glyph unicode="V" horiz-adv-x="667" d="M67 646v35q90 -3 148 -3l148 3v-35l-50 -3q-19 -2 -24.5 -8t-5.5 -28q0 -7 1 -13l68 -462l233 435q21 40 21 54q0 21 -33 22l-50 3l5 35q66 -3 109 -3l108 3l-3 -35l-26 -3q-16 -2 -25.5 -10t-24.5 -35l-334 -601h-83l-95 588q-5 31 -14.5 43.5t-29.5 14.5z" />
<glyph unicode="W" horiz-adv-x="1000" d="M67 646l5 35q88 -3 145 -3l146 3v-35l-45 -3q-22 -2 -30.5 -13t-6.5 -37l35 -448l265 544h31l148 -556l169 446q11 29 11 40q0 12 -10 17.5t-35 6.5l-45 3l5 35q66 -3 109 -3l109 3l-5 -35l-34 -3q-14 -2 -25 -19.5t-37 -81.5l-219 -545h-84l-131 494l-246 -494h-84 l-52 542q-5 69 -12.5 85.5t-35.5 18.5z" />
<glyph unicode="X" horiz-adv-x="722" d="M-9 -3l5 35l40 3q30 2 52 26l242 262l-152 291q-14 26 -56 29l-40 3v35q98 -3 160 -3l160 3v-35l-40 -3q-23 -1 -31 -5t-8 -12q0 -15 9 -33l89 -175l152 172q21 21 21 34q0 16 -39 19l-48 3l5 35q79 -3 130 -3l130 3l-2 -35l-44 -3q-11 1 -34.5 -15t-43.5 -38l-205 -213 l151 -295q15 -29 24 -37.5t24 -9.5l47 -3l-5 -35q-92 3 -151 3l-153 -3v35l62 2q19 0 19 16q0 17 -7 31l-101 199l-168 -192q-15 -16 -15 -36q0 -15 34 -17l55 -3l-5 -35q-79 3 -129 3z" />
<glyph unicode="Y" horiz-adv-x="611" d="M54 620q31 21 90 70q19 5 28 5q41 0 73 -29q58 -52 89 -200l36 -169q68 166 156 277t149 107l-6 -88q-53 -6 -116 -76q-49 -56 -101 -153t-60 -147q-1 -3 -1.5 -5.5t-1.5 -9.5t-3 -17t-6.5 -33t-9.5 -52q-3 -16 -3 -33t8 -24t29 -8l59 -3l-4 -35q-99 3 -163 3l-157 -3 l4 35l49 3q25 1 32 13.5t22 83.5q20 89 20 113q0 15 -8 49t-16 61.5t-19.5 63.5t-11.5 37q-20 64 -49.5 102.5t-59.5 38.5q-28 0 -45 -10z" />
<glyph unicode="Z" horiz-adv-x="667" d="M1 -3v27l495 605h-164q-131 0 -161 -14q-11 -5 -18 -29l-24 -76h-35q15 67 26 160l7 11q165 -3 270 -3l279 3l-5 -35l-483 -597h180q109 0 185 15q28 59 45 116h36l-39 -183q-187 3 -306 3z" />
<glyph unicode="[" horiz-adv-x="333" d="M45 -94q29 133 36 180l84 559q3 20 5 70l7 8q55 -3 91 -3l113 3l-5 -39l-75 2q-30 1 -37 -10.5t-17 -72.5l-86 -547q-9 -62 -9 -77q0 -41 30 -42l87 -4l-5 -35q-73 3 -120 3l-94 -3z" />
<glyph unicode="\" horiz-adv-x="606" d="M72 720h90l372 -720h-90z" />
<glyph unicode="]" horiz-adv-x="333" d="M-21 -102l5 39l75 -2q30 -1 37 10.5t17 72.5l86 547q9 60 9 78q0 39 -30 41l-87 4l5 35q72 -3 118 -3l96 3l5 -8q-26 -119 -36 -180l-84 -559q-2 -16 -5 -70l-7 -8q-56 3 -92 3z" />
<glyph unicode="^" horiz-adv-x="606" d="M63 275l200 403h79l201 -403h-97l-143 279l-143 -279h-97z" />
<glyph unicode="_" horiz-adv-x="500" d="M0 -75h500v-50h-500v50z" />
<glyph unicode="`" horiz-adv-x="333" d="M175 654q7 19 25 32t38 13q21 0 40 -30l88 -151h-49l-123 89q-16 12 -20 22t1 25z" />
<glyph unicode="a" d="M44 58q0 59 22 143t48 125q12 19 52 53.5t82 62.5q40 27 94 27q41 0 102 -26l45 27l16 -12q-23 -64 -32 -105q-3 -12 -23.5 -111.5t-31.5 -151.5q3 -25 14 -25q15 0 55 31l20 16l12 -30q-112 -99 -174 -99q-32 0 -32 44q0 29 7 56l37 151q-143 -251 -259 -251 q-24 0 -39 21t-15 54zM156 102q0 -15 5 -26t12 -11q34 0 101 88q83 111 103 242q-47 22 -82 22q-32 0 -54 -23.5t-38 -75.5q-47 -147 -47 -216z" />
<glyph unicode="b" horiz-adv-x="537" d="M44 93q0 21 9 72l73 431q3 18 3 31q0 25 -34 25h-45l7 28q135 20 198 46l10 -9q-17 -81 -48.5 -234t-36.5 -179q53 79 99 112q73 53 141 53q74 0 74 -116q0 -223 -170 -322q-83 -48 -159 -48q-56 0 -88.5 29t-32.5 81zM154 118q0 -41 18 -65t50 -24q63 0 109 92 q19 38 34 99t15 99q0 84 -39 84q-31 0 -78.5 -40t-69.5 -86q-39 -83 -39 -159z" />
<glyph unicode="c" horiz-adv-x="444" d="M32 119q0 54 15 116t37 96q27 41 101 86q50 31 78 41.5t59 10.5q46 0 114 -24q-16 -43 -35 -141h-33l6 56l-4 14q-46 33 -92 33q-63 0 -93 -70q-16 -36 -27.5 -94.5t-11.5 -102.5q0 -41 21.5 -65.5t57.5 -24.5t71 15t95 55l10 -30q-89 -62 -140 -84.5t-103 -22.5 q-58 0 -92 37t-34 99z" />
<glyph unicode="d" d="M38 70q0 74 22 157t52 121q19 25 60 55t84 49q37 17 75 17q28 0 65 -9l18 112q4 28 4 38q0 42 -38 42h-45l7 28q135 20 198 46l10 -9q-11 -48 -14 -65l-107 -531q-5 -27 -5 -40q0 -6 4 -11t10 -5t49 28l26 17l9 -28l-36 -26q-103 -73 -136 -73q-14 0 -24.5 12t-10.5 29 q0 23 7 50l40 164q-49 -81 -79.5 -121.5t-65.5 -71.5q-72 -62 -116 -62q-27 0 -45 25t-18 62zM152 92q0 -12 6.5 -19.5t17.5 -7.5q32 0 78 59q88 109 106 182l24 95q-48 18 -85 18q-38 0 -56 -13t-35 -53q-22 -49 -39 -129.5t-17 -131.5z" />
<glyph unicode="e" horiz-adv-x="444" d="M28 98q0 53 17.5 120.5t42.5 112.5q29 52 103.5 95t133.5 43q43 0 68 -23.5t25 -63.5q0 -35 -16.5 -63.5t-40 -47t-63 -34.5t-72 -25t-79.5 -19q-5 -36 -5 -64q0 -39 19 -60.5t54 -21.5q57 0 162 67l10 -28q-6 -4 -14.5 -9t-14.5 -9q-76 -49 -120 -67t-89 -18 q-56 0 -88.5 31t-32.5 84zM151 219l41 12q61 18 96.5 54.5t35.5 82.5q0 25 -13 39t-35 14q-37 0 -66 -37t-45 -107z" />
<glyph unicode="f" horiz-adv-x="333" d="M-130 -262q21 46 32 107l17 3q20 -44 51 -44q27 0 40.5 33t35.5 149l79 417h-91l5 25l50 16q28 9 50 19q9 54 22.5 80.5t48.5 58.5l56 49q29 25 84 59q26 16 52 16q19 0 47 -8q-17 -63 -28 -125l-15 -3q-23 33 -38 44.5t-35 11.5q-28 0 -42 -30.5t-35 -132.5l-6 -29 q45 0 123 8l5 -8q-6 -14 -16 -51h-123l-55 -235q-36 -154 -65 -226.5t-75 -126.5q-31 -35 -71 -60.5t-65 -25.5q-22 0 -38 9z" />
<glyph unicode="g" horiz-adv-x="500" d="M-50 -146q0 57 59 99q40 29 133 59q-24 18 -26 49l4 20l92 56q-86 1 -122 32q-36 32 -36 97q0 88 66 138q37 27 86.5 46t83.5 19q43 0 90 -20q39 -4 73 -3l71 3l5 -9l-10 -50l-88 4q11 -33 11 -59q0 -97 -82 -150q-25 -16 -75 -36q-58 -21 -58 -46q0 -18 23 -34l85 -60 q78 -55 78 -114q0 -72 -72 -119t-182 -47q-95 0 -152 34t-57 91zM39 -131q0 -47 38.5 -75.5t100.5 -28.5q56 0 93.5 26t37.5 65q0 22 -14.5 41t-49.5 43l-82 55l-28 -13q-96 -45 -96 -113zM157 256q0 -39 19.5 -61.5t53.5 -22.5q46 0 75 46.5t29 121.5q0 41 -17.5 63 t-50.5 22q-51 0 -79 -46q-13 -20 -21.5 -56.5t-8.5 -66.5z" />
<glyph unicode="h" d="M22 -2q28 57 80 336q48 255 48 293q0 25 -34 25h-45l7 28q135 20 198 46l10 -9q-2 -10 -8 -31.5t-9 -33.5l-89 -408q63 101 141 163t142 62q17 0 27.5 -12t10.5 -32q0 -21 -4.5 -42.5t-14 -53t-12.5 -41.5l-38 -144q-8 -32 -8 -63q0 -16 12 -16q13 0 61 30l16 10l9 -26 q-79 -54 -119.5 -75t-65.5 -21q-13 0 -22 12t-9 29q0 44 48 213q25 85 25 115q0 29 -20 29q-33 0 -81.5 -51t-83.5 -122q-42 -85 -56 -204q-64 -4 -106 -17z" />
<glyph unicode="i" horiz-adv-x="333" d="M26 346l63 47q102 76 150 76q11 0 18 -10t7 -27q0 -33 -9 -67l-54 -196q-20 -71 -20 -93q0 -11 11 -11q14 0 62 30l27 17l12 -28q-4 -3 -12.5 -8.5t-15.5 -11.5q-113 -81 -166 -81q-14 0 -23 12t-9 31q0 24 6 52l59 241q8 33 8 41q0 10 -10 10q-7 0 -30.5 -11.5 t-38.5 -22.5l-22 -16zM178 601q0 31 19.5 52.5t47.5 21.5q25 0 40.5 -17t15.5 -43q0 -31 -19.5 -51t-49.5 -20q-25 0 -39.5 15.5t-14.5 41.5z" />
<glyph unicode="j" horiz-adv-x="333" d="M-64 -266q8 44 10 79l14 3q20 -33 44 -33q30 0 46 78l86 408q14 66 14 88q0 13 -10 13q-7 0 -30.5 -11.5t-38.5 -22.5l-22 -16l-13 26l63 47q102 76 149 76q26 0 26 -40q0 -27 -9 -64l-67 -274q-48 -194 -110 -279q-58 -83 -118 -83q-14 0 -34 5zM188 601q0 31 19.5 52.5 t47.5 21.5q25 0 40.5 -17t15.5 -43q0 -31 -19.5 -51t-49.5 -20q-25 0 -39.5 15.5t-14.5 41.5z" />
<glyph unicode="k" d="M34 -5q27 69 78 339q48 255 48 293q0 25 -34 25h-45l7 28q135 20 198 46l10 -9q-11 -38 -17 -65l-95 -431q58 79 147 164q88 84 154 84q21 0 43 -9l-20 -70q-29 8 -49 8q-78 0 -146 -80l65 -173q14 -35 30 -57.5t29 -22.5t46 20l27 17l10 -29l-44 -31q-83 -59 -122 -59 q-17 0 -31.5 21t-34.5 76l-57 155l-31 -34q-16 -17 -21 -30.5t-14 -60.5q-13 -64 -16 -106q-32 -2 -105 -18z" />
<glyph unicode="l" horiz-adv-x="333" d="M64 35q0 38 16 111l99 450q4 16 4 31q0 25 -35 25h-45l7 28q135 20 198 46l10 -9q-12 -49 -17 -65l-107 -482q-12 -52 -12 -91q0 -14 12 -14q20 0 53 26l30 23l14 -27q-88 -64 -125.5 -84t-69.5 -20t-32 52z" />
<glyph unicode="m" horiz-adv-x="833" d="M19 348l84 68q67 53 110 53q24 0 24 -30q0 -24 -19 -103l-29 -124q40 75 80.5 123.5t97.5 90.5q59 43 96 43q39 0 39 -46q0 -29 -19 -96l-34 -120q52 111 133 181q41 37 84 59t72 22q17 0 27 -12.5t10 -34.5q0 -35 -10 -69l-50 -184q-20 -72 -20 -92q0 -4 3.5 -8t7.5 -4 q17 0 61 32l24 17l12 -25q-61 -51 -108 -77q-54 -29 -81 -29q-17 0 -27 11t-10 29q0 53 54 240q21 75 21 91t-16 16q-28 0 -74.5 -45.5t-79.5 -104.5q-54 -96 -63 -216q-64 -4 -104 -17l-10 11q31 95 57.5 203t26.5 142q0 27 -19 27q-54 0 -128 -115q-64 -98 -87 -251 q-64 -4 -104 -17l-10 11q33 99 58 206.5t25 149.5q0 16 -13 16q-15 0 -41 -20l-37 -28z" />
<glyph unicode="n" d="M17 358l84 62q67 49 102 49q27 0 27 -30q0 -36 -34 -157l-17 -60q42 71 87 122q51 55 105.5 90t89.5 35q17 0 28 -11.5t11 -30.5q0 -22 -16 -83l-48 -184q-13 -52 -13 -78q0 -17 11 -17q12 0 45 22l29 20l13 -27q-5 -4 -13.5 -10t-15.5 -11q-102 -76 -151 -76 q-16 0 -26 12t-10 30q0 44 48 212q25 85 25 112q0 21 -20 21q-36 0 -92 -68t-85 -148q-26 -74 -36 -150q-64 -4 -106 -17l-10 11q35 104 60 209t25 146q0 17 -11 17q-16 0 -41 -17l-32 -22z" />
<glyph unicode="o" d="M48 135q0 63 24 137q16 49 43.5 83.5t73.5 63.5q79 50 161 50q72 0 112 -39.5t40 -110.5q0 -48 -13 -102.5t-33 -90.5q-17 -30 -55 -63.5t-80 -52.5q-57 -27 -125 -27q-148 0 -148 152zM162 130q0 -47 22 -75t59 -28q48 0 84 51q26 37 43.5 107t17.5 138q0 46 -22 74 t-58 28q-49 0 -85 -51q-26 -37 -43.5 -106.5t-17.5 -137.5z" />
<glyph unicode="p" d="M-21 -264q15 50 32 122l79 340q7 30 12 53t7.5 36t3.5 25t1 15.5v13.5v13q0 16 -11 16q-16 0 -41 -17l-32 -22l-13 27l84 62q67 49 102 49q27 0 27 -31q0 -25 -20 -117l-15 -68q36 60 60 91.5t57 58.5q79 66 148 66q56 0 56 -99q0 -89 -29 -167.5t-78 -120.5 q-70 -59 -118 -82q-39 -17 -86 -17q-27 0 -56 7q-43 -171 -48 -240q-38 -4 -80 -14q-6 -1 -15.5 -3.5t-16.5 -3.5zM161 59q47 -27 94 -27q50 0 80 54q28 49 47.5 122t19.5 125q0 58 -28 58t-65 -31.5t-72 -85.5q-42 -64 -62 -153z" />
<glyph unicode="q" horiz-adv-x="537" d="M32 56q0 61 22.5 147t48.5 125q29 42 133 108q34 21 51 27t45 6q63 0 116 -26l47 26l18 -11q-20 -43 -41 -143l-92 -428q-21 -96 -21 -128q0 -5 1 -11q-65 -4 -132 -19l-9 18l15 12q13 10 28 76l83 359q-159 -211 -262 -211q-22 0 -36.5 21t-14.5 52zM146 98 q0 -33 22 -33q37 0 111 89q71 87 95 203l8 39q-46 21 -84 21q-51 0 -75 -38q-24 -40 -50.5 -136t-26.5 -145z" />
<glyph unicode="r" horiz-adv-x="389" d="M20 352l81 64q68 53 108 53q25 0 25 -32q0 -15 -15 -78q-14 -60 -32 -140q58 118 79 155t41 58q36 37 77 37q12 0 27 -6q-19 -82 -20 -137l-12 -6q-29 19 -52 19q-67 0 -123 -151q-22 -61 -41 -186q-74 -8 -108 -19l-11 12q19 57 27 92l24 107q26 115 26 160q0 16 -12 16 t-42 -20l-34 -24z" />
<glyph unicode="s" horiz-adv-x="444" d="M25 10q16 76 21 131h30v-47q53 -56 130 -56q40 0 64 19.5t24 52.5q0 54 -68 67l-44 9q-114 24 -114 112q0 34 14.5 58t48.5 49q50 36 83.5 50t69.5 14q64 0 122 -31l-6 -33q-11 -59 -11 -83h-30l-6 48q-54 44 -110 44q-37 0 -59.5 -20t-22.5 -53q0 -26 16.5 -39.5 t59.5 -23.5l59 -13q46 -10 72 -38t26 -67q0 -52 -49 -97q-87 -80 -183 -80q-51 0 -137 27z" />
<glyph unicode="t" horiz-adv-x="389" d="M42 401l7 27l115 32q16 89 16 122v16q30 4 57 14l66 24l10 -12l-31 -116l-13 -56l134 5l6 -5l-14 -56q-40 5 -92 5h-47l-51 -237q-9 -44 -9 -72q0 -16 5 -22t19 -6q25 0 54 21l56 40l13 -26l-77 -57q-81 -59 -133 -59q-54 0 -54 60q0 20 10 65l62 293h-109z" />
<glyph unicode="u" d="M22 365l79 54q74 50 116 50q27 0 27 -35q0 -32 -29 -147l-35 -137q-10 -42 -10 -66q0 -13 16 -13q22 0 58 36t73 95q77 125 80 245q46 -1 110 18l9 -11l-42 -141l-40 -155q-14 -46 -14 -72q0 -12 14 -12q24 0 55 25l22 17l10 -28q-33 -25 -35 -26q-105 -79 -140 -79 q-15 0 -24.5 12t-9.5 31q0 23 16 81l32 117q-74 -117 -142 -179t-121 -62q-20 0 -32 16t-12 41t13 74q5 20 21 79q34 129 34 161q0 16 -17 16t-33 -10l-36 -21z" />
<glyph unicode="v" d="M19 324l41 132q34 6 51 5q6 0 33.5 -2t55 -3t46.5 -1q43 0 64 14l14 -19q-45 -53 -68 -91.5t-39 -89.5q-20 -60 -20 -122q0 -101 66 -101q64 0 115 89q25 45 41.5 101t16.5 98q0 24 -11 39.5t-28 15.5q-23 0 -36 -12l-10 21q22 16 66 67q16 4 26 4q28 0 49 -29.5 t21 -69.5q0 -68 -41 -155.5t-104 -151.5q-77 -80 -163 -80q-56 0 -87 37t-31 103q0 63 28 116t98 123l41 41q-47 -11 -137 -11q-39 0 -42 -8l-28 -60h-28z" />
<glyph unicode="w" horiz-adv-x="833" d="M27 324l41 132q34 6 51 5q6 0 33.5 -2t55 -3t46.5 -1q43 0 64 14l14 -19q-45 -53 -68 -91t-39 -90q-20 -60 -20 -123q0 -46 13 -73t35 -27q42 0 90.5 68.5t67.5 154.5l24 109q7 35 10 64q56 7 107 27l12 -9q-68 -243 -68 -333q0 -36 16 -58.5t41 -22.5q60 0 112 91 q26 45 43 101.5t17 96.5q0 25 -11.5 39.5t-30.5 14.5q-18 0 -36 -8l-12 23q43 29 71 61q16 4 26 4q28 0 49 -29.5t21 -68.5q0 -68 -41.5 -157.5t-115.5 -160t-152 -70.5q-43 0 -68.5 29t-25.5 78q0 30 9 87q-32 -62 -60 -97.5t-66 -62.5q-47 -34 -90 -34q-46 0 -73.5 37 t-27.5 100t28.5 116t101.5 126l41 41q-47 -11 -137 -11q-39 0 -42 -8l-28 -60h-28z" />
<glyph unicode="x" horiz-adv-x="500" d="M-8 -3q12 52 16 101l24 2l6 -31q16 -6 28 -6q45 0 88 61l52 73l-16 88q-8 46 -24 72.5t-35 26.5q-18 0 -39.5 -14.5t-32.5 -34.5l-23 13q20 26 49 81q1 3 4 9t6 11q51 20 76 20q50 0 77 -36q22 -29 36 -111l4 -23l63 87q60 83 110 83q19 0 39 -10q-14 -28 -23 -106 l-21 -5l-9 28q-13 5 -21 5q-18 0 -44 -19t-48 -50l-38 -51l11 -64q14 -78 32 -113q10 -20 32 -20q13 0 47 24l30 21l16 -23l-18 -16q-97 -87 -143 -87q-30 0 -49 27q-19 24 -30 92l-10 58l-85 -114q-47 -63 -94 -63q-16 0 -43 14z" />
<glyph unicode="y" d="M13 357l80 62q65 50 103 50q18 0 28.5 -17t10.5 -46q0 -33 -5 -80l-19 -163q-4 -33 -4 -55q0 -41 17 -41q22 0 56.5 38t66.5 97q31 58 50.5 125.5t21.5 119.5q46 -1 110 18l12 -12q-27 -59 -84 -268q-40 -146 -59.5 -197.5t-56.5 -109.5q-43 -69 -103 -109t-119 -40 q-57 0 -83 44q-11 19 -15 53l62 40l18 -6q-1 -7 -1 -19q0 -31 16.5 -48.5t45.5 -17.5q49 0 86 55.5t66 173.5l41 166q-29 -51 -49.5 -78t-50.5 -53q-64 -56 -108 -56q-20 0 -33.5 25t-13.5 62q0 24 6 85l19 182q1 6 1 14q0 19 -18 19q-29 0 -81 -41z" />
<glyph unicode="z" horiz-adv-x="500" d="M31 25l346 354q-49 -23 -89 -23q-8 0 -140 11q-3 0 -10 1t-12 1l-23 -52l-29 3l45 139q35 10 57 10q23 0 95 -19q69 -18 112 -18q42 0 58 24l9 13l20 -8l-14 -50l-328 -337q65 23 98 23q46 0 102 -10q40 -7 54 -6q6 0 13 1l28 58l28 -2q-25 -68 -29 -105 q-5 -31 -15.5 -40.5t-41.5 -9.5q-63 0 -168 29q-34 10 -73 10q-43 0 -77 -27z" />
<glyph unicode="{" horiz-adv-x="333" d="M18 305v2q43 7 64 30.5t30 73.5l31 180q12 67 44 95q39 34 79 34h68v-2q-44 -13 -64 -36.5t-28 -72.5l-31 -180q-11 -60 -34 -86.5t-73 -36.5q37 -10 52.5 -28t15.5 -50q0 -26 -6 -57l-29 -168q-3 -18 -3 -34q0 -31 13 -47t44 -25v-2h-74q-28 0 -52.5 26t-24.5 56 q0 26 7 62l28 159q4 28 4 40q0 28 -13 42t-48 25z" />
<glyph unicode="|" horiz-adv-x="606" d="M265 -102v825h86v-825h-86z" />
<glyph unicode="}" horiz-adv-x="333" d="M-1 -103q44 13 64 36.5t28 72.5l31 180q11 60 34 86.5t73 36.5q-37 10 -52.5 28t-15.5 50q0 24 6 57l29 168q3 16 3 34q0 31 -13 47t-44 25v2h74q29 0 53 -26.5t24 -58.5q0 -27 -7 -59l-28 -159q-4 -28 -4 -40q0 -28 13 -42t48 -25v-2q-43 -7 -64.5 -30.5t-29.5 -73.5 l-31 -180q-12 -67 -44 -95q-39 -34 -79 -34h-68v2z" />
<glyph unicode="~" horiz-adv-x="606" d="M51 216q35 60 68.5 86.5t73.5 26.5q33 0 109 -33q83 -36 109 -36q24 0 42 14.5t41 51.5l61 -39q-35 -60 -68.5 -86.5t-73.5 -26.5q-33 0 -109 33q-83 36 -109 36q-24 0 -42 -14.5t-41 -51.5z" />
<glyph unicode="&#xa1;" horiz-adv-x="333" d="M91 -234l110 346q18 60 33 122l39 24l13 -9l-43 -430v-33h-13l-127 -29zM216 381q0 38 21 63t53 25q29 0 47 -18t18 -48q0 -37 -22 -61.5t-55 -24.5q-28 0 -45 17.5t-17 46.5z" />
<glyph unicode="&#xa2;" horiz-adv-x="500" d="M52 129q0 73 27 146t64 99l78 56q47 33 119 39l29 78h42l-30 -82q45 -5 75 -23l-36 -139l-29 2v62q0 13 -38 27l-131 -344q57 1 99 16.5t89 54.5l11 -31l-60 -42q-72 -51 -165 -65l-33 -88h-40l34 90q-59 17 -82 48.5t-23 95.5zM167 151q0 -42 23 -80l127 334 q-39 -1 -57.5 -7.5t-32.5 -24.5q-24 -32 -42 -98t-18 -124z" />
<glyph unicode="&#xa3;" horiz-adv-x="500" d="M21 54q29 14 43.5 25.5t27 26.5t18 44t9.5 64t8 101h-88l6 40h85q12 101 33.5 154.5t65.5 91.5q41 34 92 58t82 24q42 0 98 -25l-34 -129l-23 6v39q0 24 -19.5 38.5t-51.5 14.5q-76 0 -92 -83l-37 -189h149l-6 -40h-151q-24 -90 -44.5 -131t-62.5 -85q51 13 113 13 q21 0 69 -4.5t71 -4.5q48 0 60 31l23 58h31l-47 -174q-6 -22 -49 -22q-33 0 -58.5 4.5t-145.5 30.5q-50 11 -70 11q-22 0 -55 -29q-21 -18 -30 -18h-11q-9 28 -9 59z" />
<glyph unicode="&#xa4;" horiz-adv-x="500" d="M32 141l49 49q-42 53 -42 123q0 74 42 122l-49 49l47 47l48 -48q54 41 124 41q67 0 120 -40l48 49l49 -49l-46 -48q39 -51 39 -122q0 -69 -40 -125l46 -48l-45 -45l-47 49q-53 -43 -125 -43q-73 0 -125 42l-48 -48zM116 312q0 -55 40 -94.5t95 -39.5t94 40t39 96 q0 55 -39.5 94t-95.5 39q-54 0 -93.5 -40t-39.5 -95z" />
<glyph unicode="&#xa5;" horiz-adv-x="500" d="M11 620q31 25 76 70q15 5 23 5q53 0 87 -62q34 -63 52 -167l30 -170q59 168 132.5 277.5t126.5 107.5l-5 -88q-46 -9 -97.5 -75t-91.5 -168h87l-7 -40h-99l-25 -75h119l-7 -40h-119l-15 -95q-2 -10 -2 -33q0 -31 31 -32l50 -3l-3 -35q-84 3 -137 3l-135 -3l3 35l42 3 q21 2 29 17t18 80l10 63h-116l8 40h115q-1 25 -9 75h-102l8 40h83l-27 106q-16 62 -41.5 101.5t-50.5 39.5q-24 0 -39 -10z" />
<glyph unicode="&#xa6;" horiz-adv-x="606" d="M265 -102v330h86v-330h-86zM265 393v330h86v-330h-86z" />
<glyph unicode="&#xa7;" d="M47 -87l29 135h33l-5 -85q57 -70 126 -70q48 0 86 32.5t38 73.5q0 22 -16 45t-40 37l-135 78q-82 47 -82 127q0 43 21 75.5t75 73.5q-41 38 -41 77q0 38 24 79.5t61 67.5q54 36 115 36q81 0 161 -49l-27 -128h-34l3 73q-65 55 -128 55q-42 0 -69 -21.5t-27 -55.5 q0 -46 71 -88l117 -69q83 -49 83 -121q0 -88 -94 -153q46 -40 46 -94q0 -73 -78 -140q-64 -55 -153 -55q-87 0 -160 64zM164 325q0 -56 74 -98l117 -66q23 8 39.5 32t16.5 50q0 36 -32 66q-14 10 -52 33l-116 67q-47 -43 -47 -84z" />
<glyph unicode="&#xa8;" horiz-adv-x="333" d="M101 601q0 31 19.5 52.5t47.5 21.5q25 0 40.5 -17t15.5 -43q0 -31 -19.5 -51t-49.5 -20q-25 0 -39.5 15.5t-14.5 41.5zM314 601q0 31 19.5 52.5t47.5 21.5q25 0 40.5 -17t15.5 -43q0 -31 -19.5 -51t-49.5 -20q-25 0 -39.5 15.5t-14.5 41.5z" />
<glyph unicode="&#xa9;" horiz-adv-x="747" d="M26 337q0 146 103.5 250t249.5 104t250 -104t104 -250t-104 -249.5t-250 -103.5t-249.5 103.5t-103.5 249.5zM74 337q0 -127 89 -216t216 -89t216.5 89t89.5 216t-89.5 216.5t-216.5 89.5t-216 -89.5t-89 -216.5zM196 290q-1 99 73 167.5t180 68.5q58 0 114 -23 q-18 -59 -22 -93h-26l2 48q1 13 -29 22t-69 9q-62 0 -97 -50.5t-33 -136.5q3 -114 106 -114q51 0 111 33l15 8l9 -7l-9 -24q-86 -50 -160 -50q-77 0 -120.5 35.5t-44.5 106.5z" />
<glyph unicode="&#xaa;" horiz-adv-x="333" d="M21 312l8 48h310l-9 -48h-309zM47 443q0 39 17.5 95.5t35.5 74.5q20 20 86 58q23 12 53 12q28 0 68 -16l29 17l10 -8l-9 -25q-5 -12 -13 -44.5t-17 -73t-12 -51.5q-5 -20 -5 -28l9 -13q12 0 36 18l13 10l7 -18q-72 -60 -113 -60q-20 0 -20 27q0 19 4 33l26 97 q-93 -157 -172 -157q-15 0 -24 14t-9 38zM120 463q0 -22 11 -22q14 0 39 24t46 57q36 55 47 117q-32 13 -52 13q-19 0 -32 -11t-24 -37t-23 -74t-12 -67z" />
<glyph unicode="&#xab;" horiz-adv-x="500" d="M35 235v21q82 73 210 190l22 -20l-126 -183l87 -186l-25 -14zM226 235v21q82 73 210 190l22 -20l-126 -183l87 -186l-25 -14z" />
<glyph unicode="&#xac;" horiz-adv-x="606" d="M51 292v86h514v-213h-86v127h-428z" />
<glyph unicode="&#xad;" horiz-adv-x="389" d="M37 208q22 56 29 92q59 -6 146 -6l143 3l7 -9q-16 -24 -30 -90q-29 1 -68 3t-68 2q-96 0 -153 -4z" />
<glyph unicode="&#xae;" horiz-adv-x="747" d="M26 337q0 146 103.5 250t249.5 104t250 -104t104 -250t-104 -249.5t-250 -103.5t-249.5 103.5t-103.5 249.5zM74 337q0 -127 89 -216t216 -89t216.5 89t89.5 216t-89.5 216.5t-216.5 89.5t-216 -89.5t-89 -216.5zM178 155l3 25l29 2q14 0 23 47l42 241q1 4 1 10 q0 14 -21 14l-27 2l4 24q50 -3 99 -3q17 0 52 1.5t53 1.5q51 0 86 -20t36 -59q1 -22 -11 -42.5t-33 -32.5q-27 -16 -70 -23l90 -137q17 -24 24 -25h2l19 -4l1 -22q-40 2 -59 2q-17 0 -53 -2l-117 187l2 15h34q32 0 57 24t24 55q0 26 -21.5 40t-51.5 14q-19 0 -28 -1 l-48 -277q-2 -10 -1 -17q0 -13 15 -13l35 -2l-3 -25q-64 2 -95 2q-30 0 -92 -2z" />
<glyph unicode="&#xaf;" horiz-adv-x="333" d="M103 574l17 70h325l-16 -70h-326z" />
<glyph unicode="&#xb0;" horiz-adv-x="400" d="M50 533q0 63 44 106.5t108 43.5q60 0 104 -44.5t44 -105.5q0 -62 -44 -106t-106 -44t-106 44t-44 106zM111 534q0 -37 26 -63.5t63 -26.5t63 26t26 63q0 36 -26.5 62.5t-62.5 26.5q-37 0 -63 -25.5t-26 -62.5z" />
<glyph unicode="&#xb1;" horiz-adv-x="606" d="M51 0v86h514v-86h-514zM51 293v86h214v214h86v-214h214v-86h-214v-130h-86v130h-214z" />
<glyph unicode="&#xb2;" horiz-adv-x="300" d="M26 271v23l85 81q120 114 120 192q0 24 -17.5 40t-43.5 16q-40 0 -61 -35l-18 -30l-30 9l40 85q51 31 98 31q53 0 86 -28.5t33 -74.5q0 -63 -63 -123l-128 -121h135q27 0 53 5l6 -8q-13 -21 -22 -62q-84 2 -137 2z" />
<glyph unicode="&#xb3;" horiz-adv-x="300" d="M23 288l19 96h28q-3 -21 -3 -31q0 -27 18 -43.5t47 -16.5q37 0 61.5 30t24.5 75q0 73 -62 73q-16 0 -49 -9l-9 7l13 37q7 -2 22 -2q38 0 58 12q38 22 38 66q0 23 -15.5 36t-42.5 13q-26 0 -43.5 -13.5t-33.5 -45.5l-28 14l41 69q41 28 95 28q50 0 79 -22t29 -59 q0 -67 -105 -105q104 -13 104 -91q0 -60 -52 -101.5t-128 -41.5q-49 0 -106 25z" />
<glyph unicode="&#xb4;" horiz-adv-x="333" d="M150 518l141 151q29 30 51 30q20 0 33.5 -13t13.5 -32q0 -15 -7.5 -25t-28.5 -22l-154 -89h-49z" />
<glyph unicode="&#xb5;" d="M-15 -223l87 359q0 1 3.5 15.5t7.5 26.5q39 150 39 175q0 9 -4.5 16t-9.5 7q-4 0 -36 -16l-36 -21l-13 26l79 54q73 50 116 50q27 0 27 -35q0 -32 -29 -147l-36 -137q-10 -37 -10 -66q0 -13 16 -13q22 0 58.5 36.5t72.5 94.5q78 124 81 245q46 -1 110 18l9 -11 q-97 -320 -97 -366q0 -14 14 -14q22 0 55 25l22 17l10 -28l-35 -26q-104 -79 -140 -79q-15 0 -24.5 12t-9.5 31q0 24 16 81l32 117q-70 -115 -132 -171.5t-132 -70.5l-16 -166q-3 -29 -86 -48z" />
<glyph unicode="&#xb6;" d="M14 505q0 87 47 132t137 44l53 -1l149 -2h19l210 3l-7 -36l-64 -3q-14 -1 -20 -8t-10 -28l-126 -709v-2q-3 -9 -3 -28q0 -36 67 -36h29l-3 -35l-189 3l-223 -3l3 35h33q39 0 52 19q11 17 24 91l52 298q-68 9 -114 40q-55 37 -85.5 96.5t-30.5 129.5zM157 480 q0 -79 25 -133t69 -69l63 364q-31 5 -53 5q-104 0 -104 -167zM249 -159h68l140 793h-68z" />
<glyph unicode="&#xb7;" horiz-adv-x="250" d="M52 250q0 32 23 55t55 23t55 -23t23 -55t-23 -55t-55 -23t-55 23t-23 55z" />
<glyph unicode="&#xb8;" horiz-adv-x="333" d="M12 -193l22 33q38 -17 67 -17q26 0 40.5 10.5t14.5 29.5q0 37 -48 37q-13 0 -29 -4l-13 12l68 97h44l-46 -67q15 3 26 3q40 0 65 -20t25 -52q0 -38 -35 -62.5t-88 -24.5q-54 0 -113 25z" />
<glyph unicode="&#xb9;" horiz-adv-x="300" d="M41 271l6 28l27 2q31 2 39 7.5t16 27.5l52 276l-113 -47l-9 13l11 38l130 38q29 9 67 26l15 -5l-8 -38l-56 -296l-3 -18q2 -14 8 -17.5t29 -4.5l46 -2l-6 -28q-76 2 -125 2z" />
<glyph unicode="&#xba;" horiz-adv-x="333" d="M18 312l9 48h281l-8 -48h-282zM51 482q0 66 32 118q20 33 69.5 58t94.5 25q47 0 73 -24t26 -67q0 -42 -19 -93q-18 -46 -70 -77t-111 -31q-95 0 -95 91zM125 480q0 -29 14 -46t38 -17q46 0 70.5 56.5t24.5 121.5q0 28 -14.5 45t-37.5 17q-39 0 -63 -42 q-13 -22 -22.5 -61.5t-9.5 -73.5z" />
<glyph unicode="&#xbb;" horiz-adv-x="500" d="M35 60l126 183l-87 186l25 14l168 -192v-21q-82 -73 -210 -190zM226 60l126 183l-87 186l25 14l168 -192v-21q-82 -73 -210 -190z" />
<glyph unicode="&#xbc;" horiz-adv-x="750" d="M18 271l6 28l27 2q31 2 39 7.5t16 27.5l52 276l-113 -47l-9 13l11 38l130 38q29 9 67 26l15 -5q-3 -11 -8 -38l-56 -296l-3 -18q3 -14 9 -17.5t28 -4.5l46 -2l-6 -28q-76 2 -125 2zM164 0l439 683h69l-439 -683h-69zM416 104v24l206 263q38 6 80 19l10 -6l-50 -251h68 l2 -7l-12 -42h-67l-7 -40q-1 -4 -1 -10q0 -25 22 -26l49 -2l-5 -28q-71 2 -116 2l-116 -2l6 28l37 2q25 2 32 7.5t14 29.5l7 39h-159zM471 153h114l40 202z" />
<glyph unicode="&#xbd;" horiz-adv-x="750" d="M14 271l6 28l27 2q31 2 39 7.5t16 27.5l52 276l-113 -47l-9 13l11 38l130 38q29 9 67 26l15 -5l-4 -19q-1 -2 -4 -19l-56 -296l-3 -18q2 -14 8 -17.5t29 -4.5l46 -2l-6 -28q-76 2 -125 2zM144 0l439 683h69l-439 -683h-69zM441 -2v23l85 81q120 114 120 192 q0 24 -17.5 40t-43.5 16q-40 0 -61 -35l-18 -30l-30 9l40 85q51 31 98 31q53 0 86 -28.5t33 -74.5q0 -63 -63 -123l-128 -121h135q27 0 53 5l6 -8q-13 -21 -22 -62q-82 2 -134 2z" />
<glyph unicode="&#xbe;" horiz-adv-x="750" d="M18 288l19 96h28q-3 -21 -3 -31q0 -27 18 -43.5t47 -16.5q37 0 61.5 30t24.5 75q0 73 -62 73q-16 0 -49 -9l-9 7l13 37q7 -2 22 -2q38 0 58 12q38 22 38 66q0 23 -15.5 36t-42.5 13q-26 0 -43.5 -13.5t-33.5 -45.5l-28 14l41 69q41 28 95 28q50 0 79 -22t29 -59 q0 -67 -105 -105q104 -13 104 -91q0 -60 -52 -101.5t-128 -41.5q-49 0 -106 25zM164 0l439 683h69l-439 -683h-69zM416 104v24l206 263q38 6 80 19l10 -6l-50 -251h68l2 -7l-12 -42h-67l-7 -40q-1 -4 -1 -10q0 -25 22 -26l49 -2l-5 -28q-71 2 -116 2l-116 -2l6 28l37 2 q25 2 32 7.5t14 29.5l7 39h-159zM471 153h114l40 202z" />
<glyph unicode="&#xbf;" horiz-adv-x="444" d="M74 -91q0 81 74 135l103 76q42 31 56 47.5t14 35.5q0 21 -20 42l22 18q42 -35 42 -77q0 -45 -51 -99l-63 -66q-51 -54 -51 -105q0 -37 24.5 -58t66.5 -21q28 0 56 14q25 12 46 62l7 17l33 -4q-28 -62 -43 -126q-45 -25 -74 -34t-66 -9q-80 0 -128 41t-48 111zM288 381 q0 38 21 63t53 25q29 0 47 -18t18 -48q0 -37 -22 -61.5t-55 -24.5q-28 0 -45 17.5t-17 46.5z" />
<glyph unicode="&#xc0;" horiz-adv-x="722" d="M-35 -3l5 35l34 3q28 3 47 35l363 613h96q2 -12 4 -35.5t4 -35.5l76 -522q7 -51 54 -55l37 -3v-35q-89 3 -146 3l-155 -3v35l42 3q45 3 42 31l-25 198q-12 0 -33 1t-39.5 1.5t-37.5 0.5l-111 -3l-86 -152q-19 -34 -19 -57q0 -17 43 -20l44 -3l-5 -35q-76 3 -124 3z M245 307h193l-38 266zM373 858q5 15 24 25.5t39 10.5q28 -2 48 -24l108 -123h-53l-141 72q-33 16 -25 39z" />
<glyph unicode="&#xc1;" horiz-adv-x="722" d="M-35 -3l5 35l34 3q28 3 47 35l363 613h96q2 -12 4 -35.5t4 -35.5l76 -522q7 -51 54 -55l37 -3v-35q-89 3 -146 3l-155 -3v35l42 3q45 3 42 31l-25 198q-12 0 -33 1t-39.5 1.5t-37.5 0.5l-111 -3l-86 -152q-19 -34 -19 -57q0 -17 43 -20l44 -3l-5 -35q-76 3 -124 3z M245 307h193l-38 266zM353 747l152 123q29 22 57 24q20 0 34.5 -10.5t14.5 -25.5q0 -23 -38 -39l-167 -72h-53z" />
<glyph unicode="&#xc2;" horiz-adv-x="722" d="M-35 -3l5 35l34 3q28 3 47 35l363 613h96q2 -12 4 -35.5t4 -35.5l76 -522q7 -51 54 -55l37 -3v-35q-89 3 -146 3l-155 -3v35l42 3q45 3 42 31l-25 198q-12 0 -33 1t-39.5 1.5t-37.5 0.5l-111 -3l-86 -152q-19 -34 -19 -57q0 -17 43 -20l44 -3l-5 -35q-76 3 -124 3z M245 307h193l-38 266zM284 751l173 141h87l93 -141h-55l-95 77l-142 -77h-61z" />
<glyph unicode="&#xc3;" horiz-adv-x="722" d="M-35 -3l5 35l34 3q28 3 47 35l363 613h96q2 -12 4 -35.5t4 -35.5l76 -522q7 -51 54 -55l37 -3v-35q-89 3 -146 3l-155 -3v35l42 3q45 3 42 31l-25 198q-12 0 -33 1t-39.5 1.5t-37.5 0.5l-111 -3l-86 -152q-19 -34 -19 -57q0 -17 43 -20l44 -3l-5 -35q-76 3 -124 3z M245 307h193l-38 266zM306 762q27 119 118 119q34 0 76 -19q51 -23 75 -23q30 0 49 42h41q-31 -119 -115 -119q-26 0 -82 22q-54 22 -76 22q-15 0 -25 -9.5t-21 -34.5h-40z" />
<glyph unicode="&#xc4;" horiz-adv-x="722" d="M-35 -3l5 35l34 3q28 3 47 35l363 613h96q2 -12 4 -35.5t4 -35.5l76 -522q7 -51 54 -55l37 -3v-35q-89 3 -146 3l-155 -3v35l42 3q45 3 42 31l-25 198q-12 0 -33 1t-39.5 1.5t-37.5 0.5l-111 -3l-86 -152q-19 -34 -19 -57q0 -17 43 -20l44 -3l-5 -35q-76 3 -124 3z M245 307h193l-38 266zM313 813q0 31 19.5 52.5t47.5 21.5q25 0 40.5 -17t15.5 -43q0 -31 -19.5 -51t-49.5 -20q-25 0 -39.5 15.5t-14.5 41.5zM526 813q0 31 19.5 52.5t47.5 21.5q25 0 40.5 -17t15.5 -43q0 -31 -19.5 -51t-49.5 -20q-25 0 -39.5 15.5t-14.5 41.5z" />
<glyph unicode="&#xc5;" horiz-adv-x="722" d="M-35 -3l5 35l34 3q28 3 47 35l363 613h96q2 -12 4 -35.5t4 -35.5l76 -522q7 -51 54 -55l37 -3v-35q-89 3 -146 3l-155 -3v35l42 3q45 3 42 31l-25 198q-12 0 -33 1t-39.5 1.5t-37.5 0.5l-111 -3l-86 -152q-19 -34 -19 -57q0 -17 43 -20l44 -3l-5 -35q-76 3 -124 3z M245 307h193l-38 266zM389 839q0 41 29.5 70t72.5 29q40 0 69 -29.5t29 -70.5t-29.5 -70.5t-70.5 -29.5t-70.5 29.5t-29.5 71.5zM439 838q0 -21 14.5 -35.5t35.5 -14.5t35.5 14.5t14.5 35.5q0 20 -14.5 35t-34.5 15q-22 0 -36.5 -14.5t-14.5 -35.5z" />
<glyph unicode="&#xc6;" horiz-adv-x="944" d="M-29 -3l5 32l26 5q43 9 94 88l291 451q27 41 27 51q0 20 -33 22l-70 3l5 32l256 -3q31 0 79.5 1.5t79.5 1.5q53 0 186 -3l10 -6l-25 -152h-32v53q0 42 -14 46q-20 5 -85 10t-85 4l-39 -3l-45 -252h86l140 3l5 -9l-14 -47l-170 5h-55l-47 -274q30 -6 63 -6l67 2 q98 3 121 9.5t33 36.5l22 70h36q-13 -55 -34 -168l-172 -4q-36 0 -98.5 2.5t-104.5 1.5l-132 -3l6 32l40 3q15 1 22.5 13t13.5 46l30 171l-37 1l-63 2h-10l-111 -3l-100 -170q-15 -26 -15 -35q0 -13 8 -18t28 -7l50 -3l-5 -32q-14 0 -57 2t-70 2h-16q-2 -1 -91 -4zM270 308 h197l50 281q4 19 4 36q0 14 -13 14q-28 0 -72 -69z" />
<glyph unicode="&#xc7;" horiz-adv-x="685" d="M69 250q0 185 127 315t308 130q98 0 191 -43q-32 -114 -38 -168h-35l5 88q2 25 -51.5 44.5t-122.5 19.5q-113 0 -179.5 -98.5t-66.5 -265.5q0 -115 47 -169.5t145 -54.5q90 0 198 64l22 13l10 -9l-13 -39q-145 -94 -277 -94l-31 -45q15 3 26 3q40 0 65 -20t25 -52 q0 -38 -34.5 -62.5t-88.5 -24.5t-113 25l22 33q38 -17 67 -17q26 0 40.5 10.5t14.5 29.5q0 37 -48 37q-13 0 -29 -4l-13 12l54 77q-112 11 -169.5 78.5t-57.5 186.5z" />
<glyph unicode="&#xc8;" horiz-adv-x="611" d="M11 -3l5 32l28 3q23 2 32.5 14t15.5 46l87 502q2 14 2 21q0 16 -10 23t-36 8l-46 3l5 32q96 -3 157 -3q35 0 91 1.5t92 1.5l162 -3l10 -6l-25 -152h-32v53q0 42 -12 47q-12 4 -67.5 9t-88.5 5q-18 0 -27 -1l-39 -3l-45 -252h86l140 3l5 -9l-14 -47l-170 5h-55l-48 -274 q38 -8 98 -6q13 0 45 -1t48.5 0t39 5t35 15t18.5 29l22 70h36q-14 -59 -34 -168l-167 -3q-35 0 -97.5 2t-105.5 1zM301 858q5 15 24 25.5t39 10.5q28 -2 48 -24l108 -123h-53l-141 72q-33 16 -25 39z" />
<glyph unicode="&#xc9;" horiz-adv-x="611" d="M11 -3l5 32l28 3q23 2 32.5 14t15.5 46l87 502q2 14 2 21q0 16 -10 23t-36 8l-46 3l5 32q96 -3 157 -3q35 0 91 1.5t92 1.5l162 -3l10 -6l-25 -152h-32v53q0 42 -12 47q-12 4 -67.5 9t-88.5 5q-18 0 -27 -1l-39 -3l-45 -252h86l140 3l5 -9l-14 -47l-170 5h-55l-48 -274 q38 -8 98 -6q13 0 45 -1t48.5 0t39 5t35 15t18.5 29l22 70h36q-14 -59 -34 -168l-167 -3q-35 0 -97.5 2t-105.5 1zM281 747l152 123q29 22 57 24q20 0 34.5 -10.5t14.5 -25.5q0 -23 -38 -39l-167 -72h-53z" />
<glyph unicode="&#xca;" horiz-adv-x="611" d="M11 -3l5 32l28 3q23 2 32.5 14t15.5 46l87 502q2 14 2 21q0 16 -10 23t-36 8l-46 3l5 32q96 -3 157 -3q35 0 91 1.5t92 1.5l162 -3l10 -6l-25 -152h-32v53q0 42 -12 47q-12 4 -67.5 9t-88.5 5q-18 0 -27 -1l-39 -3l-45 -252h86l140 3l5 -9l-14 -47l-170 5h-55l-48 -274 q38 -8 98 -6q13 0 45 -1t48.5 0t39 5t35 15t18.5 29l22 70h36q-14 -59 -34 -168l-167 -3q-35 0 -97.5 2t-105.5 1zM212 751l173 141h87l93 -141h-55l-95 77l-142 -77h-61z" />
<glyph unicode="&#xcb;" horiz-adv-x="611" d="M11 -3l5 32l28 3q23 2 32.5 14t15.5 46l87 502q2 14 2 21q0 16 -10 23t-36 8l-46 3l5 32q96 -3 157 -3q35 0 91 1.5t92 1.5l162 -3l10 -6l-25 -152h-32v53q0 42 -12 47q-12 4 -67.5 9t-88.5 5q-18 0 -27 -1l-39 -3l-45 -252h86l140 3l5 -9l-14 -47l-170 5h-55l-48 -274 q38 -8 98 -6q13 0 45 -1t48.5 0t39 5t35 15t18.5 29l22 70h36q-14 -59 -34 -168l-167 -3q-35 0 -97.5 2t-105.5 1zM241 813q0 31 19.5 52.5t47.5 21.5q25 0 40.5 -17t15.5 -43q0 -31 -19.5 -51t-49.5 -20q-25 0 -39.5 15.5t-14.5 41.5zM454 813q0 31 19.5 52.5t47.5 21.5 q25 0 40.5 -17t15.5 -43q0 -31 -19.5 -51t-49.5 -20q-25 0 -39.5 15.5t-14.5 41.5z" />
<glyph unicode="&#xcc;" horiz-adv-x="389" d="M-1 -3l4 35l49 3q25 2 34 18t20 79l72 409q9 54 9 72q0 27 -38 30l-52 3l4 35q93 -3 152 -3l159 3l-4 -35l-45 -3q-25 -2 -33.5 -9.5t-12.5 -34.5l-87 -499q-3 -16 -3 -34q0 -16 8.5 -23t28.5 -8l59 -3l-4 -35q-99 3 -163 3zM179 858q5 15 24 25.5t39 10.5q28 -2 48 -24 l108 -123h-53l-141 72q-33 16 -25 39z" />
<glyph unicode="&#xcd;" horiz-adv-x="389" d="M-1 -3l4 35l49 3q25 2 34 18t20 79l72 409q9 54 9 72q0 27 -38 30l-52 3l4 35q93 -3 152 -3l159 3l-4 -35l-45 -3q-25 -2 -33.5 -9.5t-12.5 -34.5l-87 -499q-3 -16 -3 -34q0 -16 8.5 -23t28.5 -8l59 -3l-4 -35q-99 3 -163 3zM159 747l152 123q29 22 57 24 q20 0 34.5 -10.5t14.5 -25.5q0 -23 -38 -39l-167 -72h-53z" />
<glyph unicode="&#xce;" horiz-adv-x="389" d="M-1 -3l4 35l49 3q25 2 34 18t20 79l72 409q9 54 9 72q0 27 -38 30l-52 3l4 35q93 -3 152 -3l159 3l-4 -35l-45 -3q-25 -2 -33.5 -9.5t-12.5 -34.5l-87 -499q-3 -16 -3 -34q0 -16 8.5 -23t28.5 -8l59 -3l-4 -35q-99 3 -163 3zM90 751l173 141h87l93 -141h-55l-95 77 l-142 -77h-61z" />
<glyph unicode="&#xcf;" horiz-adv-x="389" d="M-1 -3l4 35l49 3q25 2 34 18t20 79l72 409q9 54 9 72q0 27 -38 30l-52 3l4 35q93 -3 152 -3l159 3l-4 -35l-45 -3q-25 -2 -33.5 -9.5t-12.5 -34.5l-87 -499q-3 -16 -3 -34q0 -16 8.5 -23t28.5 -8l59 -3l-4 -35q-99 3 -163 3zM119 813q0 31 19.5 52.5t47.5 21.5 q25 0 40.5 -17t15.5 -43q0 -31 -19.5 -51t-49.5 -20q-25 0 -39.5 15.5t-14.5 41.5zM332 813q0 31 19.5 52.5t47.5 21.5q25 0 40.5 -17t15.5 -43q0 -31 -19.5 -51t-49.5 -20q-25 0 -39.5 15.5t-14.5 41.5z" />
<glyph unicode="&#xd0;" horiz-adv-x="778" d="M0 -3l5 32l28 3q23 2 32.5 14t15.5 46l43 250h-100l6 40h101l37 212q2 14 2 20q0 17 -10 24t-36 8l-46 3l5 32l160 -3q41 0 104 2t104 2q162 0 234 -81q62 -70 62 -179q0 -92 -37 -177.5t-102 -144.5q-107 -99 -278 -103q-41 -1 -100 1t-89 2zM203 51q77 -11 111 -11 q87 0 140.5 26t86.5 85q31 55 49.5 132t18.5 151q0 129 -76 174q-57 32 -157 32q-16 0 -73 -5l-43 -253h182l-6 -40h-183z" />
<glyph unicode="&#xd1;" horiz-adv-x="778" d="M-2 -3l2 35l48 3q16 1 25 13t15 43q85 427 98 492q0 3 -1 6.5t-3.5 8t-5.5 8.5t-6.5 8.5t-8 8t-8.5 6.5q-24 15 -50 17l-39 3l3 32q65 -3 107 -3l108 3l314 -539l74 400q6 38 6 70q0 31 -46 34l-42 3l5 32q72 -3 118 -3l118 3l-6 -32l-37 -3q-24 -3 -34 -10 q-10 -9 -30 -108l-86 -428q-8 -36 -16 -103h-85l-310 537l-73 -396q-8 -43 -8 -62q0 -40 36 -41l51 -3l-5 -35q-68 3 -112 3zM186 582zM318 762q27 119 118 119q34 0 76 -19q51 -23 75 -23q30 0 49 42h41q-31 -119 -115 -119q-26 0 -82 22q-54 22 -76 22q-15 0 -25 -9.5 t-21 -34.5h-40z" />
<glyph unicode="&#xd2;" horiz-adv-x="833" d="M76 268q0 187 117 307t300 120q145 0 228 -83q73 -73 73 -198q0 -183 -123.5 -307t-305.5 -124q-137 0 -213 74.5t-76 210.5zM214 239q0 -105 44 -159t130 -54q128 0 201 127q67 116 67 282q0 217 -176 217q-127 0 -195 -115q-32 -53 -51.5 -135.5t-19.5 -162.5zM402 858 q5 15 24 25.5t39 10.5q28 -2 48 -24l108 -123h-53l-141 72q-33 16 -25 39z" />
<glyph unicode="&#xd3;" horiz-adv-x="833" d="M76 268q0 187 117 307t300 120q145 0 228 -83q73 -73 73 -198q0 -183 -123.5 -307t-305.5 -124q-137 0 -213 74.5t-76 210.5zM214 239q0 -105 44 -159t130 -54q128 0 201 127q67 116 67 282q0 217 -176 217q-127 0 -195 -115q-32 -53 -51.5 -135.5t-19.5 -162.5zM382 747 l152 123q29 22 57 24q20 0 34.5 -10.5t14.5 -25.5q0 -23 -38 -39l-167 -72h-53z" />
<glyph unicode="&#xd4;" horiz-adv-x="833" d="M76 268q0 187 117 307t300 120q145 0 228 -83q73 -73 73 -198q0 -183 -123.5 -307t-305.5 -124q-137 0 -213 74.5t-76 210.5zM214 239q0 -105 44 -159t130 -54q128 0 201 127q67 116 67 282q0 217 -176 217q-127 0 -195 -115q-32 -53 -51.5 -135.5t-19.5 -162.5zM313 751 l173 141h87l93 -141h-55l-95 77l-142 -77h-61z" />
<glyph unicode="&#xd5;" horiz-adv-x="833" d="M76 268q0 187 117 307t300 120q145 0 228 -83q73 -73 73 -198q0 -183 -123.5 -307t-305.5 -124q-137 0 -213 74.5t-76 210.5zM214 239q0 -105 44 -159t130 -54q128 0 201 127q67 116 67 282q0 217 -176 217q-127 0 -195 -115q-32 -53 -51.5 -135.5t-19.5 -162.5zM335 762 q27 119 118 119q34 0 76 -19q51 -23 75 -23q30 0 49 42h41q-31 -119 -115 -119q-26 0 -82 22q-54 22 -76 22q-15 0 -25 -9.5t-21 -34.5h-40z" />
<glyph unicode="&#xd6;" horiz-adv-x="833" d="M76 268q0 187 117 307t300 120q145 0 228 -83q73 -73 73 -198q0 -183 -123.5 -307t-305.5 -124q-137 0 -213 74.5t-76 210.5zM214 239q0 -105 44 -159t130 -54q128 0 201 127q67 116 67 282q0 217 -176 217q-127 0 -195 -115q-32 -53 -51.5 -135.5t-19.5 -162.5zM342 813 q0 31 19.5 52.5t47.5 21.5q25 0 40.5 -17t15.5 -43q0 -31 -19.5 -51t-49.5 -20q-25 0 -39.5 15.5t-14.5 41.5zM555 813q0 31 19.5 52.5t47.5 21.5q25 0 40.5 -17t15.5 -43q0 -31 -19.5 -51t-49.5 -20q-25 0 -39.5 15.5t-14.5 41.5z" />
<glyph unicode="&#xd7;" horiz-adv-x="606" d="M96 99l151 151l-151 151l61 61l151 -151l151 151l61 -61l-151 -151l151 -151l-61 -61l-151 151l-151 -151z" />
<glyph unicode="&#xd8;" horiz-adv-x="833" d="M57 -20l84 90q-65 66 -65 191q0 194 116.5 314t305.5 120q54 0 92.5 -11t89.5 -41l83 87l34 -31l-79 -84q76 -79 76 -199q0 -186 -124 -309.5t-310 -123.5q-52 0 -91.5 12t-91.5 44l-88 -93zM204 235q0 -40 15 -82l404 430q-32 38 -65.5 53.5t-81.5 15.5q-90 0 -148 -60 q-56 -56 -90 -151.5t-34 -205.5zM240 106q38 -43 72.5 -61.5t78.5 -18.5q126 0 198 127q67 116 67 282q0 51 -13 100z" />
<glyph unicode="&#xd9;" horiz-adv-x="778" d="M83 646l5 35l132 -3l87 3l6 -7l-86 -460q-3 -17 -3 -35q0 -46 14 -69q12 -21 36.5 -34t52.5 -13q43 0 94 30q36 20 67 47.5t33 41.5l65 359q11 60 11 76q0 25 -37 26l-51 3l5 35q93 -3 152 -3l159 3l-5 -35l-46 -3q-26 -2 -35 -9.5t-14 -34.5l-90 -499q-4 -23 -4 -35 q0 -16 8 -22.5t28 -7.5l59 -3l-5 -35q-72 3 -118 3l-106 -3l-5 8l27 128q-68 -73 -116 -107q-61 -43 -132 -43q-100 0 -149 70q-28 38 -28 103q0 32 8 78l58 307q11 61 11 76q0 25 -37 26zM374 858q5 15 24 25.5t39 10.5q28 -2 48 -24l108 -123h-53l-141 72q-33 16 -25 39z " />
<glyph unicode="&#xda;" horiz-adv-x="778" d="M83 646l5 35l132 -3l87 3l6 -7l-86 -460q-3 -17 -3 -35q0 -46 14 -69q12 -21 36.5 -34t52.5 -13q43 0 94 30q36 20 67 47.5t33 41.5l65 359q11 60 11 76q0 25 -37 26l-51 3l5 35q93 -3 152 -3l159 3l-5 -35l-46 -3q-26 -2 -35 -9.5t-14 -34.5l-90 -499q-4 -23 -4 -35 q0 -16 8 -22.5t28 -7.5l59 -3l-5 -35q-72 3 -118 3l-106 -3l-5 8l27 128q-68 -73 -116 -107q-61 -43 -132 -43q-100 0 -149 70q-28 38 -28 103q0 32 8 78l58 307q11 61 11 76q0 25 -37 26zM354 747l152 123q29 22 57 24q20 0 34.5 -10.5t14.5 -25.5q0 -23 -38 -39l-167 -72 h-53z" />
<glyph unicode="&#xdb;" horiz-adv-x="778" d="M83 646l5 35l132 -3l87 3l6 -7l-86 -460q-3 -17 -3 -35q0 -46 14 -69q12 -21 36.5 -34t52.5 -13q43 0 94 30q36 20 67 47.5t33 41.5l65 359q11 60 11 76q0 25 -37 26l-51 3l5 35q93 -3 152 -3l159 3l-5 -35l-46 -3q-26 -2 -35 -9.5t-14 -34.5l-90 -499q-4 -23 -4 -35 q0 -16 8 -22.5t28 -7.5l59 -3l-5 -35q-72 3 -118 3l-106 -3l-5 8l27 128q-68 -73 -116 -107q-61 -43 -132 -43q-100 0 -149 70q-28 38 -28 103q0 32 8 78l58 307q11 61 11 76q0 25 -37 26zM285 751l173 141h87l93 -141h-55l-95 77l-142 -77h-61z" />
<glyph unicode="&#xdc;" horiz-adv-x="778" d="M83 646l5 35l132 -3l87 3l6 -7l-86 -460q-3 -17 -3 -35q0 -46 14 -69q12 -21 36.5 -34t52.5 -13q43 0 94 30q36 20 67 47.5t33 41.5l65 359q11 60 11 76q0 25 -37 26l-51 3l5 35q93 -3 152 -3l159 3l-5 -35l-46 -3q-26 -2 -35 -9.5t-14 -34.5l-90 -499q-4 -23 -4 -35 q0 -16 8 -22.5t28 -7.5l59 -3l-5 -35q-72 3 -118 3l-106 -3l-5 8l27 128q-68 -73 -116 -107q-61 -43 -132 -43q-100 0 -149 70q-28 38 -28 103q0 32 8 78l58 307q11 61 11 76q0 25 -37 26zM314 813q0 31 19.5 52.5t47.5 21.5q25 0 40.5 -17t15.5 -43q0 -31 -19.5 -51 t-49.5 -20q-25 0 -39.5 15.5t-14.5 41.5zM527 813q0 31 19.5 52.5t47.5 21.5q25 0 40.5 -17t15.5 -43q0 -31 -19.5 -51t-49.5 -20q-25 0 -39.5 15.5t-14.5 41.5z" />
<glyph unicode="&#xdd;" horiz-adv-x="611" d="M54 620q31 21 90 70q19 5 28 5q41 0 73 -29q58 -52 89 -200l36 -169q68 166 156 277t149 107l-6 -88q-53 -6 -116 -76q-49 -56 -101 -153t-60 -147q-1 -3 -1.5 -5.5t-1.5 -9.5t-3 -17t-6.5 -33t-9.5 -52q-3 -16 -3 -33t8 -24t29 -8l59 -3l-4 -35q-99 3 -163 3l-157 -3 l4 35l49 3q25 1 32 13.5t22 83.5q20 89 20 113q0 15 -8 49t-16 61.5t-19.5 63.5t-11.5 37q-20 64 -49.5 102.5t-59.5 38.5q-28 0 -45 -10zM300 747l152 123q29 22 57 24q20 0 34.5 -10.5t14.5 -25.5q0 -23 -38 -39l-167 -72h-53z" />
<glyph unicode="&#xde;" horiz-adv-x="667" d="M11 -3l4 35l49 3q25 2 34 18t20 79l72 409q9 51 9 72q0 27 -38 30l-52 3l4 35q93 -3 152 -3l159 3l-4 -35l-45 -3q-25 -1 -32.5 -8.5t-13.5 -35.5l-12 -59l114 3q213 6 213 -149q0 -98 -75.5 -174.5t-171.5 -76.5q-41 0 -93 18l-2 35q34 -12 66 -12q58 0 95 46 q49 60 49 146q0 65 -33.5 94.5t-107.5 29.5q-23 0 -63 -3l-66 -397q-3 -18 -3 -35q0 -29 37 -30l59 -3l-4 -35q-99 3 -163 3z" />
<glyph unicode="&#xdf;" d="M-131 -262q19 54 31 108h15q27 -40 55 -40q39 0 56 88l102 510h-92l4 26l100 33q12 67 28 94.5t66 66.5q76 61 116.5 81.5t81.5 20.5q53 0 85 -28.5t32 -76.5q0 -55 -35 -103q-13 -17 -52 -57q-47 -47 -47 -77q0 -33 53 -94q51 -59 51 -108q0 -51 -48 -106 q-41 -47 -78 -68t-82 -21q-21 0 -51 9t-35 10l30 118h25v-52q28 -31 73 -31q34 0 55 19t21 50q0 36 -51 105q-53 71 -53 106q0 20 10.5 39t41.5 57q43 51 53 70q27 47 27 105q0 34 -22 54.5t-58 20.5q-40 0 -64.5 -28t-38.5 -90l-77 -339q-30 -132 -71 -255 q-37 -107 -112 -171q-63 -55 -110 -55q-15 0 -35 9z" />
<glyph unicode="&#xe0;" d="M44 58q0 59 22 143t48 125q12 19 52 53.5t82 62.5q40 27 94 27q41 0 102 -26l45 27l16 -12q-23 -64 -32 -105q-3 -12 -23.5 -111.5t-31.5 -151.5q3 -25 14 -25q15 0 55 31l20 16l12 -30q-112 -99 -174 -99q-32 0 -32 44q0 29 7 56l37 151q-143 -251 -259 -251 q-24 0 -39 21t-15 54zM156 102q0 -15 5 -26t12 -11q34 0 101 88q83 111 103 242q-47 22 -82 22q-32 0 -54 -23.5t-38 -75.5q-47 -147 -47 -216zM256 654q7 19 25.5 32t37.5 13q21 0 40 -30l88 -151h-49l-123 89q-16 12 -20 22t1 25z" />
<glyph unicode="&#xe1;" d="M44 58q0 59 22 143t48 125q12 19 52 53.5t82 62.5q40 27 94 27q41 0 102 -26l45 27l16 -12q-23 -64 -32 -105q-3 -12 -23.5 -111.5t-31.5 -151.5q3 -25 14 -25q15 0 55 31l20 16l12 -30q-112 -99 -174 -99q-32 0 -32 44q0 29 7 56l37 151q-143 -251 -259 -251 q-24 0 -39 21t-15 54zM156 102q0 -15 5 -26t12 -11q34 0 101 88q83 111 103 242q-47 22 -82 22q-32 0 -54 -23.5t-38 -75.5q-47 -147 -47 -216zM231 518l141 151q29 30 51 30q20 0 33.5 -13t13.5 -32q0 -15 -7.5 -25t-28.5 -22l-154 -89h-49z" />
<glyph unicode="&#xe2;" d="M44 58q0 59 22 143t48 125q12 19 52 53.5t82 62.5q40 27 94 27q41 0 102 -26l45 27l16 -12q-23 -64 -32 -105q-3 -12 -23.5 -111.5t-31.5 -151.5q3 -25 14 -25q15 0 55 31l20 16l12 -30q-112 -99 -174 -99q-32 0 -32 44q0 29 7 56l37 151q-143 -251 -259 -251 q-24 0 -39 21t-15 54zM156 102q0 -15 5 -26t12 -11q34 0 101 88q83 111 103 242q-47 22 -82 22q-32 0 -54 -23.5t-38 -75.5q-47 -147 -47 -216zM168 522l160 174h81l86 -174h-51l-88 95l-131 -95h-57z" />
<glyph unicode="&#xe3;" d="M44 58q0 59 22 143t48 125q12 19 52 53.5t82 62.5q40 27 94 27q41 0 102 -26l45 27l16 -12q-23 -64 -32 -105q-3 -12 -23.5 -111.5t-31.5 -151.5q3 -25 14 -25q15 0 55 31l20 16l12 -30q-112 -99 -174 -99q-32 0 -32 44q0 29 7 56l37 151q-143 -251 -259 -251 q-24 0 -39 21t-15 54zM156 102q0 -15 5 -26t12 -11q34 0 101 88q83 111 103 242q-47 22 -82 22q-32 0 -54 -23.5t-38 -75.5q-47 -147 -47 -216zM175 550q27 119 118 119q34 0 76 -19q51 -23 75 -23q30 0 49 42h41q-31 -119 -115 -119q-26 0 -82 22q-54 22 -76 22 q-15 0 -25 -9.5t-21 -34.5h-40z" />
<glyph unicode="&#xe4;" d="M44 58q0 59 22 143t48 125q12 19 52 53.5t82 62.5q40 27 94 27q41 0 102 -26l45 27l16 -12q-23 -64 -32 -105q-3 -12 -23.5 -111.5t-31.5 -151.5q3 -25 14 -25q15 0 55 31l20 16l12 -30q-112 -99 -174 -99q-32 0 -32 44q0 29 7 56l37 151q-143 -251 -259 -251 q-24 0 -39 21t-15 54zM156 102q0 -15 5 -26t12 -11q34 0 101 88q83 111 103 242q-47 22 -82 22q-32 0 -54 -23.5t-38 -75.5q-47 -147 -47 -216zM182 601q0 31 19.5 52.5t47.5 21.5q25 0 40.5 -17t15.5 -43q0 -31 -19.5 -51t-49.5 -20q-25 0 -39.5 15.5t-14.5 41.5zM395 601 q0 31 19.5 52.5t47.5 21.5q25 0 40.5 -17t15.5 -43q0 -31 -19.5 -51t-49.5 -20q-25 0 -39.5 15.5t-14.5 41.5z" />
<glyph unicode="&#xe5;" d="M44 58q0 59 22 143t48 125q12 19 52 53.5t82 62.5q40 27 94 27q41 0 102 -26l45 27l16 -12q-23 -64 -32 -105q-3 -12 -23.5 -111.5t-31.5 -151.5q3 -25 14 -25q15 0 55 31l20 16l12 -30q-112 -99 -174 -99q-32 0 -32 44q0 29 7 56l37 151q-143 -251 -259 -251 q-24 0 -39 21t-15 54zM156 102q0 -15 5 -26t12 -11q34 0 101 88q83 111 103 242q-47 22 -82 22q-32 0 -54 -23.5t-38 -75.5q-47 -147 -47 -216zM254 610q0 41 29.5 70t72.5 29q40 0 69 -29.5t29 -70.5t-29.5 -70.5t-70.5 -29.5t-70.5 29.5t-29.5 71.5zM304 609 q0 -21 14.5 -35.5t35.5 -14.5t35.5 14.5t14.5 35.5q0 20 -14.5 35t-34.5 15q-22 0 -36.5 -14.5t-14.5 -35.5z" />
<glyph unicode="&#xe6;" horiz-adv-x="738" d="M44 80q0 38 18 74t47 56q61 41 150 41h80v44q0 113 -113 113q-9 0 -19 -1t-22 -2.5t-19 -2.5l-24 -67l-19 4l-7 74q42 32 74.5 44t75.5 12q58 0 92 -23t51 -74q69 53 116 75t92 22q43 0 68.5 -23.5t25.5 -62.5q0 -69 -65.5 -109t-206.5 -56q-4 -33 -4 -77q0 -94 73 -94 q57 0 162 67l10 -28q-6 -4 -14.5 -9t-14.5 -9q-75 -48 -119.5 -66.5t-88.5 -18.5q-48 0 -77 20.5t-44 65.5q-63 -52 -97.5 -69t-75.5 -17q-48 0 -76.5 26.5t-28.5 70.5zM149 113q0 -57 59 -57q56 0 89.5 44t37.5 122h-44q-63 0 -102.5 -30.5t-39.5 -78.5zM443 248q42 5 49 7 q70 15 101 56q24 34 24 62q0 23 -12 35.5t-34 12.5q-52 0 -85 -63q-13 -26 -43 -110z" />
<glyph unicode="&#xe7;" horiz-adv-x="444" d="M32 119q0 54 15 116t37 96q27 41 101 86q50 31 78 41.5t59 10.5q46 0 114 -24q-16 -43 -35 -141h-33l6 56l-4 14q-46 33 -92 33q-63 0 -93 -70q-16 -36 -27.5 -94.5t-11.5 -102.5q0 -41 21.5 -65.5t57.5 -24.5t71 15t95 55l10 -30q-112 -78 -175 -97l-38 -55q15 3 26 3 q40 0 65 -20t25 -52q0 -38 -34.5 -62.5t-88.5 -24.5t-113 25l22 33q38 -17 67 -17q26 0 40.5 10.5t14.5 29.5q0 37 -48 37q-13 0 -29 -4l-13 12l53 76q-7 -1 -16 -1q-58 0 -92.5 37t-34.5 99z" />
<glyph unicode="&#xe8;" horiz-adv-x="444" d="M28 98q0 53 17.5 120.5t42.5 112.5q29 52 103.5 95t133.5 43q43 0 68 -23.5t25 -63.5q0 -35 -16.5 -63.5t-40 -47t-63 -34.5t-72 -25t-79.5 -19q-5 -36 -5 -64q0 -39 19 -60.5t54 -21.5q57 0 162 67l10 -28q-6 -4 -14.5 -9t-14.5 -9q-76 -49 -120 -67t-89 -18 q-56 0 -88.5 31t-32.5 84zM151 219l41 12q61 18 96.5 54.5t35.5 82.5q0 25 -13 39t-35 14q-37 0 -66 -37t-45 -107zM210 654q7 19 25.5 32t37.5 13q21 0 40 -30l88 -151h-49l-123 89q-16 12 -20 22t1 25z" />
<glyph unicode="&#xe9;" horiz-adv-x="444" d="M28 98q0 53 17.5 120.5t42.5 112.5q29 52 103.5 95t133.5 43q43 0 68 -23.5t25 -63.5q0 -35 -16.5 -63.5t-40 -47t-63 -34.5t-72 -25t-79.5 -19q-5 -36 -5 -64q0 -39 19 -60.5t54 -21.5q57 0 162 67l10 -28q-6 -4 -14.5 -9t-14.5 -9q-76 -49 -120 -67t-89 -18 q-56 0 -88.5 31t-32.5 84zM151 219l41 12q61 18 96.5 54.5t35.5 82.5q0 25 -13 39t-35 14q-37 0 -66 -37t-45 -107zM185 518l141 151q29 30 51 30q20 0 33.5 -13t13.5 -32q0 -15 -7.5 -25t-28.5 -22l-154 -89h-49z" />
<glyph unicode="&#xea;" horiz-adv-x="444" d="M28 98q0 53 17.5 120.5t42.5 112.5q29 52 103.5 95t133.5 43q43 0 68 -23.5t25 -63.5q0 -35 -16.5 -63.5t-40 -47t-63 -34.5t-72 -25t-79.5 -19q-5 -36 -5 -64q0 -39 19 -60.5t54 -21.5q57 0 162 67l10 -28q-6 -4 -14.5 -9t-14.5 -9q-76 -49 -120 -67t-89 -18 q-56 0 -88.5 31t-32.5 84zM122 522l160 174h81l86 -174h-51l-88 95l-131 -95h-57zM151 219l41 12q61 18 96.5 54.5t35.5 82.5q0 25 -13 39t-35 14q-37 0 -66 -37t-45 -107z" />
<glyph unicode="&#xeb;" horiz-adv-x="444" d="M28 98q0 53 17.5 120.5t42.5 112.5q29 52 103.5 95t133.5 43q43 0 68 -23.5t25 -63.5q0 -35 -16.5 -63.5t-40 -47t-63 -34.5t-72 -25t-79.5 -19q-5 -36 -5 -64q0 -39 19 -60.5t54 -21.5q57 0 162 67l10 -28q-6 -4 -14.5 -9t-14.5 -9q-76 -49 -120 -67t-89 -18 q-56 0 -88.5 31t-32.5 84zM136 601q0 31 19.5 52.5t47.5 21.5q25 0 40.5 -17t15.5 -43q0 -31 -19.5 -51t-49.5 -20q-25 0 -39.5 15.5t-14.5 41.5zM151 219l41 12q61 18 96.5 54.5t35.5 82.5q0 25 -13 39t-35 14q-37 0 -66 -37t-45 -107zM349 601q0 31 19.5 52.5t47.5 21.5 q25 0 40.5 -17t15.5 -43q0 -31 -19.5 -51t-49.5 -20q-25 0 -39.5 15.5t-14.5 41.5z" />
<glyph unicode="&#xec;" horiz-adv-x="333" d="M26 346l63 47q102 76 150 76q11 0 18 -10t7 -27q0 -33 -9 -67l-54 -196q-20 -71 -20 -93q0 -11 11 -11q14 0 62 30l27 17l12 -28q-4 -3 -12.5 -8.5t-15.5 -11.5q-113 -81 -166 -81q-14 0 -23 12t-9 31q0 24 6 52l59 241q8 33 8 41q0 10 -10 10q-7 0 -30.5 -11.5 t-38.5 -22.5l-22 -16zM141 654q7 19 25 32t38 13q21 0 40 -30l88 -151h-49l-123 89q-16 12 -20 22t1 25z" />
<glyph unicode="&#xed;" horiz-adv-x="333" d="M26 346l63 47q102 76 150 76q11 0 18 -10t7 -27q0 -33 -9 -67l-54 -196q-20 -71 -20 -93q0 -11 11 -11q14 0 62 30l27 17l12 -28q-4 -3 -12.5 -8.5t-15.5 -11.5q-113 -81 -166 -81q-14 0 -23 12t-9 31q0 24 6 52l59 241q8 33 8 41q0 10 -10 10q-7 0 -30.5 -11.5 t-38.5 -22.5l-22 -16zM116 518l141 151q29 30 51 30q20 0 33.5 -13t13.5 -32q0 -15 -7.5 -25t-28.5 -22l-154 -89h-49z" />
<glyph unicode="&#xee;" horiz-adv-x="333" d="M26 346l63 47q102 76 150 76q11 0 18 -10t7 -27q0 -33 -9 -67l-54 -196q-20 -71 -20 -93q0 -11 11 -11q14 0 62 30l27 17l12 -28q-4 -3 -12.5 -8.5t-15.5 -11.5q-113 -81 -166 -81q-14 0 -23 12t-9 31q0 24 6 52l59 241q8 33 8 41q0 10 -10 10q-7 0 -30.5 -11.5 t-38.5 -22.5l-22 -16zM53 522l160 174h81l86 -174h-51l-88 95l-131 -95h-57z" />
<glyph unicode="&#xef;" horiz-adv-x="333" d="M26 346l63 47q102 76 150 76q11 0 18 -10t7 -27q0 -33 -9 -67l-54 -196q-20 -71 -20 -93q0 -11 11 -11q14 0 62 30l27 17l12 -28q-4 -3 -12.5 -8.5t-15.5 -11.5q-113 -81 -166 -81q-14 0 -23 12t-9 31q0 24 6 52l59 241q8 33 8 41q0 10 -10 10q-7 0 -30.5 -11.5 t-38.5 -22.5l-22 -16zM67 601q0 31 19.5 52.5t47.5 21.5q25 0 40.5 -17t15.5 -43q0 -31 -19.5 -51t-49.5 -20q-25 0 -39.5 15.5t-14.5 41.5zM280 601q0 31 19.5 52.5t47.5 21.5q25 0 40.5 -17t15.5 -43q0 -31 -19.5 -51t-49.5 -20q-25 0 -39.5 15.5t-14.5 41.5z" />
<glyph unicode="&#xf0;" d="M48 135q0 59 20 123.5t49 97.5q46 52 108.5 82.5t123.5 30.5q21 0 43 -9q-7 60 -39 110l-138 -69l-19 35l131 65q-38 45 -91 77l40 48q63 -31 116 -93l136 67l18 -35l-129 -64q85 -133 85 -282q0 -184 -122 -275q-83 -61 -181 -61q-151 0 -151 152zM162 130q0 -47 22 -75 t59 -28q48 0 84 51q26 37 43.5 107t17.5 138q0 46 -22 74t-58 28q-49 0 -85 -51q-26 -37 -43.5 -106.5t-17.5 -137.5z" />
<glyph unicode="&#xf1;" d="M17 358l84 62q67 49 102 49q27 0 27 -30q0 -36 -34 -157l-17 -60q42 71 87 122q51 55 105.5 90t89.5 35q17 0 28 -11.5t11 -30.5q0 -22 -16 -83l-48 -184q-13 -52 -13 -78q0 -17 11 -17q12 0 45 22l29 20l13 -27q-5 -4 -13.5 -10t-15.5 -11q-102 -76 -151 -76 q-16 0 -26 12t-10 30q0 44 48 212q25 85 25 112q0 21 -20 21q-36 0 -92 -68t-85 -148q-26 -74 -36 -150q-64 -4 -106 -17l-10 11q35 104 60 209t25 146q0 17 -11 17q-16 0 -41 -17l-32 -22zM160 550q27 119 118 119q34 0 76 -19q51 -23 75 -23q30 0 49 42h41 q-31 -119 -115 -119q-26 0 -82 22q-54 22 -76 22q-15 0 -25 -9.5t-21 -34.5h-40z" />
<glyph unicode="&#xf2;" d="M48 135q0 63 24 137q16 49 43.5 83.5t73.5 63.5q79 50 161 50q72 0 112 -39.5t40 -110.5q0 -48 -13 -102.5t-33 -90.5q-17 -30 -55 -63.5t-80 -52.5q-57 -27 -125 -27q-148 0 -148 152zM162 130q0 -47 22 -75t59 -28q48 0 84 51q26 37 43.5 107t17.5 138q0 46 -22 74 t-58 28q-49 0 -85 -51q-26 -37 -43.5 -106.5t-17.5 -137.5zM242 654q7 19 25.5 32t37.5 13q21 0 40 -30l88 -151h-49l-123 89q-16 12 -20 22t1 25z" />
<glyph unicode="&#xf3;" d="M48 135q0 63 24 137q16 49 43.5 83.5t73.5 63.5q79 50 161 50q72 0 112 -39.5t40 -110.5q0 -48 -13 -102.5t-33 -90.5q-17 -30 -55 -63.5t-80 -52.5q-57 -27 -125 -27q-148 0 -148 152zM162 130q0 -47 22 -75t59 -28q48 0 84 51q26 37 43.5 107t17.5 138q0 46 -22 74 t-58 28q-49 0 -85 -51q-26 -37 -43.5 -106.5t-17.5 -137.5zM217 518l141 151q29 30 51 30q20 0 33.5 -13t13.5 -32q0 -15 -7.5 -25t-28.5 -22l-154 -89h-49z" />
<glyph unicode="&#xf4;" d="M48 135q0 63 24 137q16 49 43.5 83.5t73.5 63.5q79 50 161 50q72 0 112 -39.5t40 -110.5q0 -48 -13 -102.5t-33 -90.5q-17 -30 -55 -63.5t-80 -52.5q-57 -27 -125 -27q-148 0 -148 152zM154 522l160 174h81l86 -174h-51l-88 95l-131 -95h-57zM162 130q0 -47 22 -75 t59 -28q48 0 84 51q26 37 43.5 107t17.5 138q0 46 -22 74t-58 28q-49 0 -85 -51q-26 -37 -43.5 -106.5t-17.5 -137.5z" />
<glyph unicode="&#xf5;" d="M48 135q0 63 24 137q16 49 43.5 83.5t73.5 63.5q79 50 161 50q72 0 112 -39.5t40 -110.5q0 -48 -13 -102.5t-33 -90.5q-17 -30 -55 -63.5t-80 -52.5q-57 -27 -125 -27q-148 0 -148 152zM161 550q27 119 118 119q34 0 76 -19q51 -23 75 -23q30 0 49 42h41 q-31 -119 -115 -119q-26 0 -82 22q-54 22 -76 22q-15 0 -25 -9.5t-21 -34.5h-40zM162 130q0 -47 22 -75t59 -28q48 0 84 51q26 37 43.5 107t17.5 138q0 46 -22 74t-58 28q-49 0 -85 -51q-26 -37 -43.5 -106.5t-17.5 -137.5z" />
<glyph unicode="&#xf6;" d="M48 135q0 63 24 137q16 49 43.5 83.5t73.5 63.5q79 50 161 50q72 0 112 -39.5t40 -110.5q0 -48 -13 -102.5t-33 -90.5q-17 -30 -55 -63.5t-80 -52.5q-57 -27 -125 -27q-148 0 -148 152zM162 130q0 -47 22 -75t59 -28q48 0 84 51q26 37 43.5 107t17.5 138q0 46 -22 74 t-58 28q-49 0 -85 -51q-26 -37 -43.5 -106.5t-17.5 -137.5zM168 601q0 31 19.5 52.5t47.5 21.5q25 0 40.5 -17t15.5 -43q0 -31 -19.5 -51t-49.5 -20q-25 0 -39.5 15.5t-14.5 41.5zM381 601q0 31 19.5 52.5t47.5 21.5q25 0 40.5 -17t15.5 -43q0 -31 -19.5 -51t-49.5 -20 q-25 0 -39.5 15.5t-14.5 41.5z" />
<glyph unicode="&#xf7;" horiz-adv-x="606" d="M51 207v86h514v-86h-514zM230 80q0 32 23 55t55 23t55 -23t23 -55t-23 -55t-55 -23t-55 23t-23 55zM230 420q0 32 23 55t55 23t55 -23t23 -55t-23 -55t-55 -23t-55 23t-23 55z" />
<glyph unicode="&#xf8;" d="M14 -28l61 68q-27 45 -27 101q0 57 24 131q29 91 118 147q76 50 159 50q46 0 93 -22l53 59l27 -25l-50 -55q30 -48 30 -112q0 -45 -13.5 -100.5t-33.5 -90.5q-14 -25 -45 -53t-65 -47q-68 -40 -144 -40q-67 0 -102 30l-57 -63zM164 136l213 239q-14 28 -29.5 39t-40.5 11 q-125 0 -143 -289zM168 90q27 -63 74 -63q51 0 88 55q51 80 58 250z" />
<glyph unicode="&#xf9;" d="M22 365l79 54q74 50 116 50q27 0 27 -35q0 -32 -29 -147l-35 -137q-10 -42 -10 -66q0 -13 16 -13q22 0 58 36t73 95q77 125 80 245q46 -1 110 18l9 -11l-42 -141l-40 -155q-14 -46 -14 -72q0 -12 14 -12q24 0 55 25l22 17l10 -28q-33 -25 -35 -26q-105 -79 -140 -79 q-15 0 -24.5 12t-9.5 31q0 23 16 81l32 117q-74 -117 -142 -179t-121 -62q-20 0 -32 16t-12 41t13 74q5 20 21 79q34 129 34 161q0 16 -17 16t-33 -10l-36 -21zM244 654q7 19 25.5 32t37.5 13q21 0 40 -30l88 -151h-49l-123 89q-16 12 -20 22t1 25z" />
<glyph unicode="&#xfa;" d="M22 365l79 54q74 50 116 50q27 0 27 -35q0 -32 -29 -147l-35 -137q-10 -42 -10 -66q0 -13 16 -13q22 0 58 36t73 95q77 125 80 245q46 -1 110 18l9 -11l-42 -141l-40 -155q-14 -46 -14 -72q0 -12 14 -12q24 0 55 25l22 17l10 -28q-33 -25 -35 -26q-105 -79 -140 -79 q-15 0 -24.5 12t-9.5 31q0 23 16 81l32 117q-74 -117 -142 -179t-121 -62q-20 0 -32 16t-12 41t13 74q5 20 21 79q34 129 34 161q0 16 -17 16t-33 -10l-36 -21zM219 518l141 151q29 30 51 30q20 0 33.5 -13t13.5 -32q0 -15 -7.5 -25t-28.5 -22l-154 -89h-49z" />
<glyph unicode="&#xfb;" d="M22 365l79 54q74 50 116 50q27 0 27 -35q0 -32 -29 -147l-35 -137q-10 -42 -10 -66q0 -13 16 -13q22 0 58 36t73 95q77 125 80 245q46 -1 110 18l9 -11l-42 -141l-40 -155q-14 -46 -14 -72q0 -12 14 -12q24 0 55 25l22 17l10 -28q-33 -25 -35 -26q-105 -79 -140 -79 q-15 0 -24.5 12t-9.5 31q0 23 16 81l32 117q-74 -117 -142 -179t-121 -62q-20 0 -32 16t-12 41t13 74q5 20 21 79q34 129 34 161q0 16 -17 16t-33 -10l-36 -21zM156 522l160 174h81l86 -174h-51l-88 95l-131 -95h-57z" />
<glyph unicode="&#xfc;" d="M22 365l79 54q74 50 116 50q27 0 27 -35q0 -32 -29 -147l-35 -137q-10 -42 -10 -66q0 -13 16 -13q22 0 58 36t73 95q77 125 80 245q46 -1 110 18l9 -11l-42 -141l-40 -155q-14 -46 -14 -72q0 -12 14 -12q24 0 55 25l22 17l10 -28q-33 -25 -35 -26q-105 -79 -140 -79 q-15 0 -24.5 12t-9.5 31q0 23 16 81l32 117q-74 -117 -142 -179t-121 -62q-20 0 -32 16t-12 41t13 74q5 20 21 79q34 129 34 161q0 16 -17 16t-33 -10l-36 -21zM170 601q0 31 19.5 52.5t47.5 21.5q25 0 40.5 -17t15.5 -43q0 -31 -19.5 -51t-49.5 -20q-25 0 -39.5 15.5 t-14.5 41.5zM383 601q0 31 19.5 52.5t47.5 21.5q25 0 40.5 -17t15.5 -43q0 -31 -19.5 -51t-49.5 -20q-25 0 -39.5 15.5t-14.5 41.5z" />
<glyph unicode="&#xfd;" d="M13 357l80 62q65 50 103 50q18 0 28.5 -17t10.5 -46q0 -33 -5 -80l-19 -163q-4 -33 -4 -55q0 -41 17 -41q22 0 56.5 38t66.5 97q31 58 50.5 125.5t21.5 119.5q46 -1 110 18l12 -12q-27 -59 -84 -268q-40 -146 -59.5 -197.5t-56.5 -109.5q-43 -69 -103 -109t-119 -40 q-57 0 -83 44q-11 19 -15 53l62 40l18 -6q-1 -7 -1 -19q0 -31 16.5 -48.5t45.5 -17.5q49 0 86 55.5t66 173.5l41 166q-29 -51 -49.5 -78t-50.5 -53q-64 -56 -108 -56q-20 0 -33.5 25t-13.5 62q0 24 6 85l19 182q1 6 1 14q0 19 -18 19q-29 0 -81 -41zM232 518l141 151 q29 30 51 30q20 0 33.5 -13t13.5 -32q0 -15 -7.5 -25t-28.5 -22l-154 -89h-49z" />
<glyph unicode="&#xfe;" d="M-21 -264q44 144 57 212l124 648q3 16 3 30q0 26 -34 26h-45l7 28q135 20 198 46l10 -9l-103 -466q49 75 87 117t80 69q51 32 95 32q58 0 58 -99q0 -89 -29 -167.5t-78 -120.5q-70 -59 -118 -82q-39 -17 -86 -17q-27 0 -56 7q-43 -171 -48 -240q-38 -4 -80 -14 q-6 -1 -15.5 -3.5t-16.5 -3.5zM161 59q47 -27 94 -27q50 0 80 54q28 49 47.5 122t19.5 125q0 58 -28 58t-65 -31.5t-72 -85.5q-42 -64 -62 -153z" />
<glyph unicode="&#xff;" d="M13 357l80 62q65 50 103 50q18 0 28.5 -17t10.5 -46q0 -33 -5 -80l-19 -163q-4 -33 -4 -55q0 -41 17 -41q22 0 56.5 38t66.5 97q31 58 50.5 125.5t21.5 119.5q46 -1 110 18l12 -12q-27 -59 -84 -268q-40 -146 -59.5 -197.5t-56.5 -109.5q-43 -69 -103 -109t-119 -40 q-57 0 -83 44q-11 19 -15 53l62 40l18 -6q-1 -7 -1 -19q0 -31 16.5 -48.5t45.5 -17.5q49 0 86 55.5t66 173.5l41 166q-29 -51 -49.5 -78t-50.5 -53q-64 -56 -108 -56q-20 0 -33.5 25t-13.5 62q0 24 6 85l19 182q1 6 1 14q0 19 -18 19q-29 0 -81 -41zM183 601q0 31 19.5 52.5 t47.5 21.5q25 0 40.5 -17t15.5 -43q0 -31 -19.5 -51t-49.5 -20q-25 0 -39.5 15.5t-14.5 41.5zM396 601q0 31 19.5 52.5t47.5 21.5q25 0 40.5 -17t15.5 -43q0 -31 -19.5 -51t-49.5 -20q-25 0 -39.5 15.5t-14.5 41.5z" />
<glyph unicode="&#x152;" horiz-adv-x="944" d="M39 281q0 175 104 294.5t257 119.5q61 0 108 -19q27 -11 45 -25t41 -43l12 73q61 -3 125 -3q22 0 66.5 1.5t66.5 1.5h87l10 -9l-25 -152h-32v53q0 36 -7 44q-9 9 -66 12q-5 0 -32.5 2.5t-46.5 2.5q-3 0 -49 -4l-47 -252h56l140 3l5 -9l-14 -47l-170 5h-25l-50 -274 q26 -6 58 -6q123 0 161 9q29 7 39 39l22 70h36q-17 -67 -34 -171h-118l33 1q-48 2 -161 2q-78 0 -154 -3l15 66q-48 -43 -93 -61.5t-104 -18.5q-136 0 -203 93q-56 78 -56 205zM162 264q0 -113 43.5 -173.5t124.5 -60.5q73 0 120 50.5t65 147.5l41 222q4 19 4 43 q0 70 -43 112.5t-114 42.5q-102 0 -164 -89q-35 -51 -56 -130.5t-21 -164.5z" />
<glyph unicode="&#x153;" horiz-adv-x="778" d="M48 133q0 63 16.5 123.5t42.5 93.5q41 51 108 85t128 34q75 0 119 -39q11 -10 25 -32q102 71 169 71q46 0 72.5 -22.5t26.5 -61.5q0 -87 -95 -138q-57 -31 -177 -52q-6 -27 -6 -59q0 -43 19.5 -66t54.5 -23q50 0 103 33l58 37l13 -28q-86 -60 -137.5 -83t-98.5 -23 q-78 0 -113 61q-57 -35 -95.5 -48t-81.5 -13q-74 0 -112.5 38t-38.5 112zM162 139q0 -52 23 -82t62 -30q55 0 91 61q21 36 35.5 99t14.5 120q0 118 -85 118q-38 0 -60.5 -20.5t-41.5 -71.5q-39 -102 -39 -194zM487 223l55 13q49 11 84 52t35 86q0 21 -13.5 34t-35.5 13 q-37 0 -63.5 -34t-46.5 -107z" />
<glyph unicode="&#x178;" horiz-adv-x="611" d="M54 620q31 21 90 70q19 5 28 5q41 0 73 -29q58 -52 89 -200l36 -169q68 166 156 277t149 107l-6 -88q-53 -6 -116 -76q-49 -56 -101 -153t-60 -147q-1 -3 -1.5 -5.5t-1.5 -9.5t-3 -17t-6.5 -33t-9.5 -52q-3 -16 -3 -33t8 -24t29 -8l59 -3l-4 -35q-99 3 -163 3l-157 -3 l4 35l49 3q25 1 32 13.5t22 83.5q20 89 20 113q0 15 -8 49t-16 61.5t-19.5 63.5t-11.5 37q-20 64 -49.5 102.5t-59.5 38.5q-28 0 -45 -10zM260 813q0 31 19.5 52.5t47.5 21.5q25 0 40.5 -17t15.5 -43q0 -31 -19.5 -51t-49.5 -20q-25 0 -39.5 15.5t-14.5 41.5zM473 813 q0 31 19.5 52.5t47.5 21.5q25 0 40.5 -17t15.5 -43q0 -31 -19.5 -51t-49.5 -20q-25 0 -39.5 15.5t-14.5 41.5z" />
<glyph unicode="&#x2c6;" horiz-adv-x="333" d="M87 522l160 174h81l86 -174h-51l-88 95l-131 -95h-57z" />
<glyph unicode="&#x2dc;" horiz-adv-x="333" d="M94 550q27 119 118 119q34 0 76 -19q51 -23 75 -23q30 0 49 42h41q-31 -119 -115 -119q-26 0 -82 22q-54 22 -76 22q-15 0 -25 -9.5t-21 -34.5h-40z" />
<glyph unicode="&#x2000;" horiz-adv-x="469" />
<glyph unicode="&#x2001;" horiz-adv-x="938" />
<glyph unicode="&#x2002;" horiz-adv-x="469" />
<glyph unicode="&#x2003;" horiz-adv-x="938" />
<glyph unicode="&#x2004;" horiz-adv-x="312" />
<glyph unicode="&#x2005;" horiz-adv-x="234" />
<glyph unicode="&#x2006;" horiz-adv-x="156" />
<glyph unicode="&#x2007;" horiz-adv-x="156" />
<glyph unicode="&#x2008;" horiz-adv-x="117" />
<glyph unicode="&#x2009;" horiz-adv-x="187" />
<glyph unicode="&#x200a;" horiz-adv-x="52" />
<glyph unicode="&#x2010;" horiz-adv-x="389" d="M37 208q22 56 29 92q59 -6 146 -6l143 3l7 -9q-16 -24 -30 -90q-29 1 -68 3t-68 2q-96 0 -153 -4z" />
<glyph unicode="&#x2011;" horiz-adv-x="389" d="M37 208q22 56 29 92q59 -6 146 -6l143 3l7 -9q-16 -24 -30 -90q-29 1 -68 3t-68 2q-96 0 -153 -4z" />
<glyph unicode="&#x2012;" horiz-adv-x="389" d="M37 208q22 56 29 92q59 -6 146 -6l143 3l7 -9q-16 -24 -30 -90q-29 1 -68 3t-68 2q-96 0 -153 -4z" />
<glyph unicode="&#x2013;" horiz-adv-x="500" d="M-12 214l12 68h512l-12 -68h-512z" />
<glyph unicode="&#x2014;" horiz-adv-x="1000" d="M-12 214l12 68h1012l-12 -68h-1012z" />
<glyph unicode="&#x2018;" horiz-adv-x="278" d="M65 445q80 156 160 247l50 28l16 -11q-69 -117 -91 -247q-26 -2 -121 -31z" />
<glyph unicode="&#x2019;" horiz-adv-x="278" d="M76 442q68 115 91 247q27 2 121 31l14 -14q-83 -159 -160 -247l-50 -28z" />
<glyph unicode="&#x201a;" horiz-adv-x="250" d="M-3 -126q34 53 58.5 120.5t29.5 120.5l122 30l13 -13l-52 -96q-21 -40 -55.5 -90t-44.5 -56l-56 -34z" />
<glyph unicode="&#x201c;" horiz-adv-x="500" d="M65 445q80 156 160 247l50 28l16 -11q-69 -117 -91 -247q-26 -2 -121 -31zM285 445q80 156 160 247l50 28l16 -11q-69 -117 -91 -247q-26 -2 -121 -31z" />
<glyph unicode="&#x201d;" horiz-adv-x="500" d="M73 442q68 115 91 247q27 2 121 31l14 -14q-83 -159 -160 -247l-50 -28zM293 442q68 115 91 247q27 2 121 31l14 -14q-83 -159 -160 -247l-50 -28z" />
<glyph unicode="&#x201e;" horiz-adv-x="500" d="M-18 -126q34 53 58.5 120.5t29.5 120.5l122 30l13 -13l-52 -96q-21 -40 -55.5 -90t-44.5 -56l-56 -34zM201 -126q34 53 58.5 120.5t29.5 120.5l122 30l13 -13l-52 -96q-21 -40 -55.5 -90t-44.5 -56l-56 -34z" />
<glyph unicode="&#x2022;" horiz-adv-x="606" d="M131 346q0 69 51 119.5t121 50.5q71 0 121.5 -51t50.5 -121t-50.5 -121t-120.5 -51q-72 0 -122.5 51t-50.5 123z" />
<glyph unicode="&#x2026;" horiz-adv-x="1000" d="M91 49q0 37 22 61.5t55 24.5q28 0 45 -17.5t17 -46.5q0 -38 -21 -63t-53 -25q-29 0 -47 18t-18 48zM424 49q0 37 22 61.5t55 24.5q28 0 45 -17.5t17 -46.5q0 -38 -21 -63t-53 -25q-29 0 -47 18t-18 48zM757 49q0 37 22 61.5t55 24.5q28 0 45 -17.5t17 -46.5 q0 -38 -21 -63t-53 -25q-29 0 -47 18t-18 48z" />
<glyph unicode="&#x202f;" horiz-adv-x="187" />
<glyph unicode="&#x2039;" horiz-adv-x="333" d="M60 235v21q82 73 210 190l22 -20l-126 -183l87 -186l-25 -14z" />
<glyph unicode="&#x203a;" horiz-adv-x="333" d="M35 60l126 183l-87 186l25 14l168 -192v-21q-82 -73 -210 -190z" />
<glyph unicode="&#x205f;" horiz-adv-x="234" />
<glyph unicode="&#x20ac;" horiz-adv-x="500" d="M51 251l32 60q12 -2 16 -2h37l10 56q-44 0 -71 -3l31 60q14 -2 19 -2h38q33 103 106 171.5t190 68.5q40 0 84 -11.5t68 -32.5l4 -11q-20 -45 -43 -121h-39l13 87q-29 39 -99 39q-61 0 -102.5 -54t-64.5 -136q201 0 221 2l-30 -60q-30 3 -205 3q-4 -20 -7 -34l-4 -22 q167 0 188 2l-32 -60q-29 3 -162 3q-4 -53 -1 -102t28.5 -84t70.5 -35q68 0 111 39l18 87h39q-4 -89 -1 -123l-8 -11q-62 -42 -166 -42q-65 0 -110.5 23.5t-67 64t-29 85.5t-3.5 98q-50 0 -79 -3z" />
<glyph unicode="&#x2122;" horiz-adv-x="1030" d="M157 583l13 93q2 1 6 5q58 -2 174 -2t174 2q1 -1 3 -2.5t3 -2.5l-17 -93h-28l1 47q0 17 -32 17h-62l-49 -273q-2 -12 -2 -18q0 -13 16 -13l37 -2q0 -4 -2.5 -12.5t-2.5 -12.5q-33 2 -101 2q-63 0 -95 -2l4 25l32 2q8 0 14 9t7.5 15.5t4.5 22.5l44 257h-67q-19 0 -30 -11 q-3 -4 -8 -19l-8 -34h-29zM498 316l1 25l27 2q13 1 19 26l69 241q4 13 4 31q0 13 -29 15l-28 1l3 24q22 -2 67 -2q48 0 72 2l80 -257q114 162 171 257q23 -2 69 -2q47 0 70 2l-4 -24l-23 -1q-7 -1 -13 -6t-9 -12t-4 -15l-42 -244q-3 -12 -3 -23q0 -13 15 -13l34 -2l-4 -25 q-30 2 -92 2t-94 -2l4 25l29 2q19 4 19 26q1 1 1 5l39 231l-153 -228l-42 -68h-23l-87 279l-53 -210q-4 -16 -4 -22q0 -13 18 -13l31 -2l-3 -25q-22 2 -66 2t-66 -2z" />
<glyph unicode="&#xe000;" horiz-adv-x="470" d="M0 0v470h470v-470h-470z" />
</font>
</defs>
</svg>
