<?xml version="1.0" standalone="no"?>
<!DOCTYPE svg PUBLIC "-//W3C//DTD SVG 1.1//EN" "http://www.w3.org/Graphics/SVG/1.1/DTD/svg11.dtd" >
<svg xmlns="http://www.w3.org/2000/svg">
<metadata></metadata>
<defs>
<font id="exobolditalic" horiz-adv-x="542" >
<font-face units-per-em="1000" ascent="800" descent="-200" />
<missing-glyph horiz-adv-x="250" />
<glyph unicode="&#xfb01;" horiz-adv-x="598" d="M46 424l14 90l87 17l11 56q14 93 78.5 145t167.5 54q16 0 39.5 -1t51.5 -3.5t54.5 -6t49 -8t34.5 -9.5l-14 -84l-182 6q-23 1 -43.5 -3.5t-42.5 -15.5t-37.5 -35.5t-21.5 -60.5l-5 -34l345 -10l-82 -521h-141l67 424h-207l-67 -424h-140l67 424h-83z" />
<glyph unicode="&#xfb02;" horiz-adv-x="690" d="M82 424l14 89l88 18l8 43q10 63 32 105.5t55 65t70 31.5t84 9l291 -2l-91 -572q-3 -32 -4.5 -49.5t4.5 -29t12 -16t19 -9.5q55 -20 59 -20l-14 -87h-90q-73 0 -108.5 44.5t-20.5 144.5l78 489l-134 1q-31 0 -51 -9.5t-34 -34t-21 -66.5l-4 -38h128l-17 -107h-129 l-69 -424h-140l69 424h-84z" />
<glyph horiz-adv-x="0" />
<glyph unicode="&#xd;" horiz-adv-x="1000" />
<glyph unicode=" "  horiz-adv-x="250" />
<glyph unicode="&#x09;" horiz-adv-x="250" />
<glyph unicode="&#xa0;" horiz-adv-x="250" />
<glyph unicode="!" horiz-adv-x="271" d="M70 23l14 90q3 25 28 25h88q11 0 16 -7t3 -18l-14 -90q-3 -23 -26 -23h-88q-11 0 -17 6.5t-4 16.5zM107 198l71 533h141l-98 -533h-114z" />
<glyph unicode="&#x22;" horiz-adv-x="444" d="M160 531l10 134l11 67h135l-11 -67l-31 -134h-114zM340 531l10 134l11 67h135l-11 -67l-31 -134h-114z" />
<glyph unicode="#" horiz-adv-x="721" d="M48 210l30 96h152l39 121h-153l31 96h156l70 209h96l-70 -209h123l69 209h96l-69 -209h171l-30 -96h-172l-39 -122h172l-29 -96h-178l-71 -209h-96l71 209l-124 1l-70 -210h-96l70 210h-149zM326 306l126 -1l39 122h-126z" />
<glyph unicode="$" horiz-adv-x="569" d="M68 22l18 107q156 -9 232 -9q90 0 100 64l6 39q3 21 2.5 36.5t-14.5 24t-44 8.5h-92q-40 0 -70 11t-47 29.5t-27.5 40t-13 46.5t-2.5 44t3 37l9 63q7 42 22 73t35.5 49.5t48.5 30.5t56.5 16.5t63.5 5.5l14 86h85l-13 -87q92 -6 174 -28l-17 -109q-142 9 -223 9 q-24 1 -41 -1.5t-31.5 -10t-23 -22t-12.5 -37.5l-5 -36q-6 -38 7.5 -54t61.5 -16h93q42 0 72.5 -14t45 -36t23 -50t6.5 -55.5t-4 -52.5l-8 -49q-7 -47 -25 -81t-40 -53.5t-52 -31t-57.5 -15t-61.5 -2.5l-13 -82h-85l13 84q-92 5 -169 28z" />
<glyph unicode="%" horiz-adv-x="964" d="M107 488l19 122q10 65 44 93.5t111 28.5h101q133 0 112 -137l-19 -122q-11 -68 -45 -96t-110 -28h-101q-64 0 -93 37t-19 102zM206 0l563 732h100l-559 -732h-104zM208 496q-3 -13 -2 -22t5 -15t13 -9t24 -3h73q22 0 34 5.5t17 15.5t8 28l13 89q2 15 2 24.5t-5 15 t-13.5 7.5t-23.5 2h-74q-19 0 -30.5 -4t-18 -14.5t-9.5 -30.5zM587 138l19 122q5 32 14.5 54.5t27.5 39t45.5 24t66.5 7.5h102q132 0 112 -139l-19 -122q-10 -67 -45 -94.5t-111 -27.5h-101q-65 0 -93 35.5t-18 100.5zM687 149q-3 -17 -0.5 -28t12 -16t29.5 -5h72 q31 0 43 11t16 38l14 89q5 30 -3.5 39.5t-37.5 9.5h-73q-29 0 -41.5 -10.5t-16.5 -38.5z" />
<glyph unicode="&#x26;" horiz-adv-x="672" d="M85 83q-44 75 -25 149t98 133l91 69l-40 70q-30 56 -19.5 104t46 81.5t79.5 39.5q50 9 107 6.5t93 -8.5t84 -17l-16 -101h-165q-42 0 -61 -8t-21 -30t21 -60l135 -233l135 117l42 -58l-71 -121l-46 -44l99 -172h-153l-54 94l-75 -60q-37 -30 -90 -38.5t-108 13.5t-86 74z M199 159q21 -32 54 -37t68 22l61 53l-78 131l-65 -48q-80 -61 -40 -121z" />
<glyph unicode="'" horiz-adv-x="224" d="M137 531l10 134l11 67h141l-11 -67l-31 -134h-120z" />
<glyph unicode="(" horiz-adv-x="377" d="M108 310q12 68 32 134t43.5 116t49 94.5t49 75.5t42.5 53.5t30 32.5l12 11h133q-8 -10 -21.5 -27.5t-51 -74.5t-68.5 -116.5t-63 -146t-47 -169.5q-15 -96 -12.5 -177.5t17.5 -148t32 -113t31 -72.5l13 -25h-130q-3 4 -8.5 12t-19.5 35t-26.5 58t-25 80.5t-19 101.5 t-5.5 122.5t13 143.5z" />
<glyph unicode=")" horiz-adv-x="378" d="M-18 -243q8 9 21.5 26t50.5 72.5t68 114.5t63.5 147t47.5 175q15 92 12 172t-18 147t-31.5 115t-30.5 74l-13 27h130q3 -4 8 -12.5t19.5 -37t26.5 -60.5t24.5 -82t19 -101.5t5.5 -120t-12 -137.5q-16 -100 -47.5 -190t-64.5 -147.5t-64 -100.5t-51 -62l-19 -19h-145z" />
<glyph unicode="*" horiz-adv-x="427" d="M127 566l9 56l143 24l-9 -85zM160 416l46 137l80 -21l-75 -133zM264 467l58 71l97 -90l-39 -45zM279 720l57 19l48 -122l-84 -33zM329 571l132 79l24 -47l-112 -97z" />
<glyph unicode="+" horiz-adv-x="483" d="M80 297l19 118h148l23 149h118l-23 -149h150l-19 -118h-150l-24 -149h-118l24 149h-148z" />
<glyph unicode="," horiz-adv-x="260" d="M56 -88l7 48q14 0 22 5t10 9t3 12l3 14h-11q-11 0 -17.5 6.5t-3.5 18.5l13 87q5 27 30 27h84q23 0 19 -27l-19 -123q-5 -31 -21.5 -50.5t-36 -25t-38.5 -6.5t-32 2z" />
<glyph unicode="-" horiz-adv-x="353" d="M61 231l18 118h314l-18 -118h-314z" />
<glyph unicode="." horiz-adv-x="262" d="M68 23l14 90q3 25 28 25h86q26 0 21 -25l-14 -90q-4 -23 -28 -23h-86q-11 0 -17 6.5t-4 16.5z" />
<glyph unicode="/" horiz-adv-x="456" d="M4 -72l414 842h145l-414 -842h-145z" />
<glyph unicode="0" horiz-adv-x="629" d="M80 178l59 370q15 93 64.5 138.5t137.5 45.5h164q49 0 84 -15t52 -40t24 -57.5t0 -65.5l-60 -376q-14 -90 -61.5 -134t-132.5 -44h-164q-88 0 -134.5 45.5t-32.5 132.5zM224 201q-2 -12 -2 -21.5t1.5 -16.5t5 -12.5t6.5 -9t8.5 -6t10 -4t11.5 -2t11 -0.5h12h97 q36 0 56.5 16t26.5 55l53 332q6 38 -7 54.5t-50 16.5h-105q-72 0 -83 -71z" />
<glyph unicode="1" horiz-adv-x="370" d="M118 558l14 91q32 0 82.5 29t72.5 54h138l-115 -732h-140l94 588q-44 -30 -146 -30z" />
<glyph unicode="2" horiz-adv-x="586" d="M38 0l19 123q52 31 114.5 75t136.5 101.5t126 116t59 99.5q8 52 -17 74.5t-90 22.5h-259l17 104q152 26 303 26q70 0 116 -34.5t62 -87.5t7 -117q-4 -31 -19.5 -65t-35 -62.5t-50.5 -60.5t-55 -54t-59 -49.5t-52.5 -40.5t-45.5 -32q-9 -7 -14 -10h269l-21 -129h-511z" />
<glyph unicode="3" horiz-adv-x="583" d="M32 21l17 102h254q20 0 35.5 1.5t29.5 6t23.5 12.5t16 20t8.5 28l5 32q2 12 2 21.5t-1 16.5t-5 12.5t-7 9.5t-10.5 6.5t-12.5 4t-15 3t-16.5 1.5t-19.5 1l-198 8l19 113l200 9q54 2 79 17.5t31 54.5l6 35q1 12 1.5 21t-3.5 16t-7.5 12t-11 8.5t-14 6t-16 3.5t-18 1.5 t-19.5 0.5h-267l16 101q43 14 100 21t111.5 7.5t116.5 -0.5q79 -2 122.5 -54.5t31.5 -132.5l-9 -53q-19 -115 -99 -130q38 -13 50.5 -56.5t2.5 -103.5l-7 -43q-26 -168 -216 -168h-36.5h-39t-35 0.5t-37.5 1t-33 2t-35 3.5l-30 5t-32.5 7t-27.5 9z" />
<glyph unicode="4" horiz-adv-x="620" d="M50 224l341 508h156l-288 -440h177l27 167l45 77h108l-39 -244h74l-17 -108l-77 -24l-25 -158h-141l24 158h-341z" />
<glyph unicode="5" horiz-adv-x="596" d="M61 20l18 110h282q72 0 83 71l10 64q12 74 -55 74h-92q-61 0 -71 -58h-133l94 451h445l-21 -129h-309l-34 -165q20 15 53.5 21t64.5 5t63 -2q76 -4 112 -57t25 -133l-16 -112q-8 -49 -28.5 -83t-51.5 -51t-62.5 -23.5t-71.5 -6.5q-101 -1 -157 3t-148 21z" />
<glyph unicode="6" horiz-adv-x="608" d="M110 395q51 325 228 340q145 13 315 -20l-16 -106h-251q-25 0 -46 -12.5t-34 -30t-23.5 -44.5t-15.5 -49t-10 -49q83 20 206 21q40 0 70 -11t45.5 -29t24.5 -41.5t8 -49.5t-4 -51l-17 -115q-14 -85 -64.5 -117t-138.5 -32h-142q-35 0 -61.5 11t-48 38.5t-32 71 t-9.5 113.5t16 162zM240 321q-8 -56 -9 -99t17 -69t56 -26h80q64 0 73 63l11 67q6 38 -4 51t-46 13h-178z" />
<glyph unicode="7" horiz-adv-x="554" d="M118 603l21 129h471l27 -64l-350 -668h-153l320 603h-336z" />
<glyph unicode="8" horiz-adv-x="623" d="M83 179l11 73q7 45 34 71.5t68 32.5q-80 36 -61 154l11 65q8 50 26.5 83t48.5 50t62.5 23t76.5 6h151q41 0 72 -12t49.5 -35.5t25 -58t-0.5 -79.5l-8 -53q-2 -11 -7.5 -25.5t-15.5 -32t-29.5 -31t-43.5 -17.5q21 -5 35 -23t18 -40t5.5 -45t-3.5 -39l-13 -86 q-7 -44 -22.5 -75.5t-33 -47.5t-45 -24.5t-48 -10.5t-53.5 -2h-150q-188 0 -160 179zM225 183q-5 -33 9 -46t53 -13h94q67 0 76 59l11 70q5 30 -9 46t-44 16h-102q-67 0 -77 -62zM274 494q-10 -62 57 -62h101q38 0 53.5 16t20.5 46l7 47q7 44 -6 58.5t-48 14.5h-94 q-41 0 -59 -15.5t-24 -57.5z" />
<glyph unicode="9" horiz-adv-x="607" d="M72 20l17 106h250q15 0 28 3.5t23 10.5t19.5 16.5t16.5 20.5t13 25t10.5 26.5t8 28t6.5 28t5 26.5q-83 -20 -206 -21q-41 0 -70.5 11t-45 30t-24 43.5t-7.5 51t3 52.5l17 103q13 86 64 120t138 34h142q35 0 62 -11.5t48.5 -40.5t31.5 -74.5t9 -116.5t-16 -163 q-12 -77 -31.5 -135.5t-41 -93.5t-49 -57.5t-52 -31.5t-53.5 -12q-154 -13 -316 21zM258 478q-6 -39 3.5 -51.5t46.5 -12.5h177q8 56 9 99t-17 69t-57 26h-78q-64 0 -74 -63z" />
<glyph unicode=":" horiz-adv-x="263" d="M68 23l14 90q3 25 28 25h86q26 0 21 -25l-14 -90q-4 -23 -28 -23h-86q-11 0 -17 6.5t-4 16.5zM130 416l15 90q3 25 28 25h86q25 0 20 -25l-14 -90q-4 -23 -28 -23h-86q-11 0 -16.5 6.5t-4.5 16.5z" />
<glyph unicode=";" horiz-adv-x="263" d="M56 -88l7 48q14 0 22 5t10 9t3 12l3 14h-11q-11 0 -17 7t-4 18l13 87q2 12 10 19.5t20 7.5h84q23 0 19 -27l-19 -123q-5 -31 -21.5 -50.5t-36 -25t-38.5 -6.5t-32 2zM132 417l14 90q3 25 28 25h86q25 0 21 -25l-14 -90q-4 -23 -29 -23h-86q-11 0 -16.5 6t-3.5 17z" />
<glyph unicode="&#x3c;" horiz-adv-x="450" d="M83 288l21 129l398 145l-21 -130l-245 -83l218 -87l-21 -128z" />
<glyph unicode="=" horiz-adv-x="467" d="M49 184l19 118h427l-19 -118h-427zM82 399l19 118h427l-19 -118h-427z" />
<glyph unicode="&#x3e;" horiz-adv-x="450" d="M59 134l21 131l248 93l-222 78l20 126l352 -145l-20 -129z" />
<glyph unicode="?" d="M111 611l17 102q84 17 146 23t140 3q69 0 115 -30.5t62 -75.5t8 -96l-12 -84q-15 -104 -76.5 -141t-179.5 -27l-7 -44t-7 -46h-113l30 195q76 -1 115 0q87 4 99 82l9 53q7 47 -15.5 66.5t-81.5 19.5h-249zM165 23l15 90q3 25 28 25h86q25 0 21 -25l-15 -90 q-4 -23 -28 -23h-86q-11 0 -16.5 6.5t-4.5 16.5z" />
<glyph unicode="@" horiz-adv-x="896" d="M51 36l76 485q17 106 79.5 153t175.5 47h364q53 0 89 -17.5t53.5 -48.5t23 -74t-3.5 -93l-49 -326q-4 -27 -10.5 -48.5t-20.5 -43t-34.5 -35.5t-53 -23t-73.5 -9h-93l-23 55q-50 -63 -134 -62q-92 1 -133 72t-19 216q6 41 16 75t22 59.5t26 45.5t30.5 33.5t33 23t35 15 t35 7.5t34.5 2q158 0 226 -66l-52 -363q38 0 54.5 16t25.5 74l44 293q2 25 3.5 42.5t-4 29.5t-11 19t-16.5 11t-21.5 5.5t-26.5 1.5h-360q-34 0 -57.5 -10t-35.5 -28.5t-17.5 -34t-9.5 -36.5l-75 -473q-7 -49 10.5 -76.5t76.5 -27.5h386l-14 -85q-135 -27 -292 -27h-93 q-47 0 -83.5 12.5t-58 33.5t-34.5 50t-14 62t3 68zM376 265q-4 -31 -5 -52.5t1 -42.5t9.5 -34t22 -20.5t36.5 -7.5q28 1 49.5 7t40.5 20.5t34 38.5l39 250q-45 10 -110 10q-46 0 -75 -37t-42 -132z" />
<glyph unicode="A" horiz-adv-x="688" d="M34 0l363 732h159l122 -732h-143l-29 162h-237l-80 -162h-155zM325 286h167l-41 266z" />
<glyph unicode="B" horiz-adv-x="599" d="M61 0l116 732h297q54 0 93 -17.5t57 -46.5t25.5 -66.5t-0.5 -77.5q-5 -39 -22.5 -70t-43.5 -50t-59 -24q42 -7 68.5 -57.5t17.5 -124.5q-16 -113 -73 -155.5t-177 -42.5h-299zM221 123h153q81 0 96 98q8 45 -7.5 74t-56.5 29h-154zM272 442h148q37 0 60 21.5t29 61.5 q3 25 0.5 41.5t-12.5 25.5t-22 12.5t-29 3.5h-148z" />
<glyph unicode="C" horiz-adv-x="571" d="M100 385q10 61 22 108t30 88t41 69.5t54 49t71 30.5t89 10q136 0 250 -36l-17 -109q-131 17 -219 16h-4q-15 0 -23 -0.5t-22.5 -2.5t-23 -6.5t-21 -12.5t-21 -20t-19 -31t-18 -43t-15.5 -56.5t-14 -72.5q-22 -122 0 -181t101 -62q85 -1 227 9l-17 -110 q-53 -18 -112.5 -23.5t-147.5 -4.5q-68 1 -113.5 32t-64.5 84.5t-23.5 124.5t10.5 150z" />
<glyph unicode="D" horiz-adv-x="655" d="M61 0l116 732h296q61 0 104.5 -23.5t65.5 -60.5t32 -89t8.5 -103.5t-10.5 -109.5q-30 -186 -101.5 -266t-204.5 -80h-306zM220 125h147q128 0 166 239q17 94 8.5 148t-32.5 75t-71 21h-141z" />
<glyph unicode="E" horiz-adv-x="560" d="M79 150l69 435q7 45 25 75.5t44 45.5t53 21t61 5q246 -7 309 -16l-18 -116h-279q-18 0 -30 -4.5t-18 -13.5t-8 -17t-4 -21l-18 -112l283 -10l-19 -115l-285 -10l-19 -116q-1 -8 -1.5 -14.5t1 -11.5t3 -9t5 -6.5t5.5 -4.5t7.5 -3t8 -2t8.5 -1h8.5h8.5h269l-19 -115 q-9 -1 -25.5 -2.5t-36.5 -3t-43 -2.5l-46 -2t-45.5 -2t-42 -2t-34.5 -1.5t-23 -1.5h-9q-29 -1 -55.5 5.5t-50.5 22.5t-35 48.5t-4 76.5z" />
<glyph unicode="F" horiz-adv-x="561" d="M58 0l91 574q13 86 63.5 123t120.5 35q245 -7 308 -16l-17 -116h-279q-33 0 -45 -14.5t-16 -41.5l-18 -114l283 -10l-17 -116l-287 -9l-47 -295h-140z" />
<glyph unicode="G" horiz-adv-x="613" d="M104 391q13 74 28.5 126t39 96.5t54.5 71t76 41t104 14.5q80 0 134.5 -7.5t133.5 -27.5l-17 -107q-134 18 -237 18q-21 0 -37 -2.5t-34.5 -11t-32 -26t-27.5 -44t-24.5 -68.5t-19.5 -97q-22 -123 -3.5 -182.5t91.5 -59.5q31 0 63.5 12.5t50.5 25.5l17 12l22 128h-103 l14 89q63 25 179 25q32 0 68 -3l-66 -414h-101l-31 53q-54 -55 -159 -59q-48 -2 -85 13.5t-59 44.5t-35.5 66.5t-16.5 83.5t0.5 92.5t12.5 96.5z" />
<glyph unicode="H" horiz-adv-x="637" d="M63 0l116 732h140l-50 -314h251l50 314h140l-116 -732h-140l46 290h-251l-46 -290h-140z" />
<glyph unicode="I" horiz-adv-x="256" d="M65 0l116 732h140l-116 -732h-140z" />
<glyph unicode="J" horiz-adv-x="356" d="M30 23l19 109q45 -4 77 -2t52.5 24.5t28.5 71.5l80 506h140l-90 -567q-17 -112 -76 -147q-44 -25 -119.5 -23t-111.5 28z" />
<glyph unicode="K" horiz-adv-x="620" d="M61 0l116 732h134l-48 -306h55l231 306h170l-279 -377l163 -355h-160l-131 302h-68l-48 -302h-135z" />
<glyph unicode="L" horiz-adv-x="529" d="M82 142l95 590h139l-87 -551q-3 -19 0 -30.5t13.5 -15.5t18 -5t22.5 -1h251l-20 -129h-302q-66 0 -103.5 34.5t-26.5 107.5z" />
<glyph unicode="M" horiz-adv-x="827" d="M49 0l180 732h192l44 -500l199 500h197l-47 -732h-139l35 489l-198 -489h-159l-45 489l-118 -489h-141z" />
<glyph unicode="N" horiz-adv-x="669" d="M61 0l116 732h140l208 -476l75 476h140l-116 -732h-138l-210 470l-74 -470h-141z" />
<glyph unicode="O" horiz-adv-x="666" d="M103 375q9 56 21 102.5t25 81.5t31 62t34.5 46t40 32t43.5 20.5t48 11.5t51 5t55 1q40 0 71 -4t61.5 -14.5t51.5 -28.5t37.5 -47.5t24 -70t6 -97.5t-12.5 -128q-10 -68 -25.5 -121t-33.5 -90t-43 -62.5t-49.5 -41t-58.5 -23.5t-64.5 -10.5t-72.5 -2.5q-40 0 -70.5 3.5 t-61.5 13.5t-52 27t-38 46t-24.5 68t-6.5 95t12 126zM243 361q-9 -62 -11 -102t4 -67.5t22 -41.5t39.5 -19.5t62.5 -5.5q35 0 59.5 5.5t46.5 20.5t37 42t27 68t21 100q11 68 12 113.5t-5.5 72t-25 40t-39 17.5t-56.5 4q-27 0 -43.5 -1.5t-35.5 -6.5t-31.5 -15.5t-25.5 -28.5 t-22.5 -44.5t-18.5 -63.5t-17 -87z" />
<glyph unicode="P" horiz-adv-x="597" d="M58 0l116 732h306q37 0 69 -11.5t59.5 -37.5t38 -75.5t0.5 -117.5q-8 -56 -23.5 -97t-35 -63.5t-43 -37.5t-47 -18t-47 -5t-44.5 1q-29 2 -94 9.5t-69 9.5l-46 -289h-140zM260 394h155q36 0 58.5 24.5t32.5 86.5q9 59 -7.5 81t-49.5 22h-155z" />
<glyph unicode="Q" horiz-adv-x="668" d="M105 378q13 83 32 145t45.5 100.5t52.5 62t65.5 34.5t71 14t82.5 3q40 0 71 -4t61.5 -15t51.5 -29t37.5 -48t23.5 -71t6 -97.5t-12 -128.5q-8 -53 -19.5 -96.5t-24 -77t-29.5 -59.5t-34 -44.5t-39.5 -31t-43 -20.5t-48.5 -12t-52 -5.5t-57 -1.5q-40 0 -70.5 3.5t-61.5 14 t-52 28t-38 46.5t-24.5 68.5t-6.5 95t12 126.5zM245 361q-9 -62 -11 -102t3.5 -67.5t22 -41.5t40 -19.5t61.5 -5.5q36 0 60.5 5.5t46 20.5t37 42t27.5 68t21 100q11 68 12 113.5t-5.5 72t-25 40t-39.5 17.5t-57 4q-26 0 -42.5 -1.5t-36 -6.5t-31.5 -15.5t-25 -28.5 t-22.5 -44.5t-18.5 -63.5t-17 -87zM293 -33h80q26 -63 158 -28l-18 -113q-32 -6 -64 -6.5t-62 9.5t-52 26.5t-34 45.5t-8 66z" />
<glyph unicode="R" horiz-adv-x="603" d="M58 0l116 732h309q89 0 134.5 -58.5t28.5 -183.5q-6 -52 -21.5 -90.5t-30.5 -58t-37 -32.5t-33.5 -15.5t-27.5 -5.5l104 -288h-158l-86 280l-112 9l-46 -289h-140zM262 398h152q41 0 63 24.5t28 81.5q7 61 -5.5 82t-49.5 21h-155z" />
<glyph unicode="S" horiz-adv-x="579" d="M71 22l17 110q88 -11 247 -11q91 0 101 63l6 39q3 21 1.5 36.5t-15.5 24t-42 8.5h-101q-42 0 -74 10t-49.5 28t-28.5 37.5t-13.5 43.5t-2.5 42t3 35l10 76q7 44 22.5 76t36 50.5t49.5 29.5t57 14.5t64 3.5q167 2 273 -29l-18 -110q-141 10 -237 10q-53 1 -76.5 -11.5 t-31.5 -59.5l-5 -36q-1 -16 -2.5 -27.5t3.5 -19.5t9 -12.5t14.5 -7t19.5 -3t24 -0.5h104q33 0 59.5 -9t42.5 -23.5t27.5 -34t15 -41.5t5 -44t-3.5 -42l-6 -66q-3 -35 -13.5 -63.5t-24 -47t-34 -32t-39.5 -20.5t-44 -11t-42.5 -5t-41.5 -1q-174 0 -266 30z" />
<glyph unicode="T" horiz-adv-x="588" d="M122 603l21 129h541l-21 -129h-204l-95 -603h-140l95 603h-197z" />
<glyph unicode="U" horiz-adv-x="653" d="M110 328l65 404h140l-66 -420q-17 -105 4.5 -146.5t99.5 -41.5t113 43.5t51 144.5l67 420h141l-64 -437q-14 -89 -41.5 -148.5t-70.5 -92.5t-93.5 -46t-120.5 -13q-30 0 -54.5 3t-49.5 9.5t-44.5 18.5t-36.5 29.5t-28 43t-17 58.5t-4.5 76t9.5 95z" />
<glyph unicode="V" horiz-adv-x="685" d="M139 732h147l74 -548l256 548h156l-358 -732h-162z" />
<glyph unicode="W" horiz-adv-x="1010" d="M139 732h146l75 -541l240 541h150l-94 -202l51 -342l242 544h148l-335 -732h-158l-46 301l-140 -301h-166z" />
<glyph unicode="X" horiz-adv-x="643" d="M32 0l271 374l-158 358h154l100 -248l179 248h158l-278 -384l154 -348h-154l-96 238l-171 -238h-159z" />
<glyph unicode="Y" horiz-adv-x="656" d="M139 732h151l84 -350l209 350h160l-321 -505l-36 -227h-140l36 227z" />
<glyph unicode="Z" horiz-adv-x="557" d="M27 0l21 129l407 474h-333l21 129h504l-21 -129l-397 -474h323l-21 -129h-504z" />
<glyph unicode="[" horiz-adv-x="334" d="M63 -28l108 671q14 88 58.5 127t143.5 39h80l-19 -118h-52q-31 0 -49 -17t-26 -62l-104 -650q-9 -51 2 -69t45 -18h55l-19 -118h-89q-40 0 -69 14.5t-43.5 37t-21 52.5t-6 56.5t5.5 54.5z" />
<glyph unicode="\" horiz-adv-x="449" d="M136 770h140l148 -842h-140z" />
<glyph unicode="]" horiz-adv-x="331" d="M-18 -243l19 118h52q31 0 49.5 17t25.5 62l103 650q8 51 -3 69t-46 18h-52l19 118h82q47 0 79.5 -18.5t45.5 -48t18 -66t-2 -73.5l-102 -679q-5 -39 -15.5 -66t-32 -51.5t-59 -37t-90.5 -12.5h-91z" />
<glyph unicode="^" horiz-adv-x="384" d="M122 531l129 136h104l75 -136h-92l-40 64l-66 -64h-110z" />
<glyph unicode="_" horiz-adv-x="673" d="M24 -1l19 118h634l-19 -118h-634z" />
<glyph unicode="`" horiz-adv-x="247" d="M121 670h118l78 -139h-91z" />
<glyph unicode="a" d="M77 297q12 63 33.5 109t45 70.5t56 39.5t57 19t59.5 6q30 2 64 -1t69 -10t66 -20t49 -31l-70 -478h-108l-21 55q-13 -17 -38.5 -31t-58.5 -22.5t-64 -8.5q-40 0 -71 16.5t-53 52.5t-25.5 94t10.5 140zM213 271q-14 -75 -2 -116.5t56 -41.5q41 0 68.5 12t53.5 38l38 256 q-24 8 -54 11t-52 -2q-21 -4 -34 -10t-28.5 -21t-26.5 -46.5t-19 -79.5z" />
<glyph unicode="b" horiz-adv-x="556" d="M46 0l124 785h139l-44 -281q81 35 163 35q44 0 74 -16.5t45.5 -43t21 -66t3.5 -80.5t-11 -92q-21 -129 -69 -189.5t-147 -57.5q-44 1 -85 19t-66 41l-33 -54h-115zM209 146q45 -32 119 -32q38 0 59.5 34t34.5 120q14 89 5 125t-50 36q-71 0 -126 -20z" />
<glyph unicode="c" horiz-adv-x="492" d="M79 282q11 67 28 114.5t36 75t45.5 43t50.5 20.5t57 5q47 0 118.5 -8.5t121.5 -24.5l-14 -87q-95 7 -184 7q-22 0 -34.5 -2t-27 -10t-23.5 -25.5t-18 -48.5t-17 -78q-7 -50 -8.5 -81t9 -47.5t26 -22t43.5 -5.5q40 0 88.5 2t76.5 5l28 2l-14 -88q-57 -21 -112 -28t-140 -5 q-82 0 -121.5 71t-14.5 216z" />
<glyph unicode="d" horiz-adv-x="550" d="M78 285q8 48 18 83.5t27 69t39.5 55t56 34t76.5 12.5q36 0 79.5 -9.5t76.5 -25.5l45 281h139l-125 -785h-115l-16 54q-84 -60 -165 -60q-46 0 -79 24t-47 64t-18 92.5t8 110.5zM219 268q-13 -86 -1.5 -120t47.5 -34q73 0 129 32l41 263q-48 20 -121 20q-23 0 -39 -11 t-30.5 -47.5t-25.5 -102.5z" />
<glyph unicode="e" horiz-adv-x="527" d="M79 300q10 53 21.5 88t30.5 66.5t47.5 49t70 27.5t100.5 10q46 0 82.5 -7t67 -23.5t46 -47.5t12.5 -75q-3 -50 -22 -87t-47 -57.5t-62.5 -32.5t-68 -15t-65 -1.5t-52 5.5t-29.5 8q-10 -60 6.5 -81t70.5 -22q92 -4 217 17l-17 -100q-126 -38 -277 -29q-187 9 -132 307z M222 300q4 0 10.5 -1t24.5 -2t35 -0.5t38.5 4.5t37.5 11.5t29 22t16 34.5q7 35 -11.5 47.5t-62.5 11.5q-16 0 -29 -2.5t-22.5 -5.5t-18 -11t-14 -12.5t-11 -16.5t-7.5 -17t-6 -20.5t-4.5 -20t-4.5 -22.5z" />
<glyph unicode="f" horiz-adv-x="404" d="M82 424l14 89l88 18l11 71q8 52 22.5 86.5t38 56.5t55.5 31.5t77 9.5q73 0 122 -24l-13 -84l-90 1q-42 0 -54.5 -20.5t-22.5 -89.5l-6 -38h128l-17 -107h-129l-69 -424h-140l69 424h-84z" />
<glyph unicode="g" horiz-adv-x="556" d="M19 -248l15 93h225q19 0 35.5 6t29.5 17.5t22 29.5t13 42l15 97q-62 -38 -138 -38q-57 0 -94 21.5t-52.5 60.5t-18 94t9.5 121q20 129 79.5 186.5t153.5 57.5q75 0 156 -9.5t121 -20.5l-93 -586q-17 -105 -77.5 -156t-163.5 -40zM221 281q-3 -24 -5 -35t-4 -31t-1.5 -30 t2 -24.5t6 -22t11.5 -15.5t18.5 -11t25.5 -3q24 0 40.5 2t34 6.5t40.5 13.5l48 302h-107q-23 0 -41.5 -11t-29 -26.5t-19 -39t-12.5 -39t-7 -36.5z" />
<glyph unicode="h" horiz-adv-x="550" d="M46 0l124 783h139l-49 -309q34 23 52.5 33t54.5 21.5t73 11.5q159 0 129 -186l-56 -354h-140l56 356q11 72 -47 72q-17 0 -31.5 -2t-27 -5.5t-25.5 -9.5t-25 -13t-27 -16l-60 -382h-140z" />
<glyph unicode="i" horiz-adv-x="226" d="M43 0l84 531h140l-84 -531h-140zM134 609l13 89q4 25 28 25h105q22 0 19 -25l-14 -89q-3 -23 -26 -23h-105q-11 0 -16.5 6.5t-3.5 16.5z" />
<glyph unicode="j" horiz-adv-x="243" d="M9 -270l127 801h140l-85 -535q-26 -173 -79 -266h-103zM142 609l15 89q3 25 28 25h105q10 0 15 -7t4 -18l-15 -89q-3 -23 -26 -23h-105q-11 0 -16.5 6.5t-4.5 16.5z" />
<glyph unicode="k" horiz-adv-x="530" d="M46 0l124 782h140l-71 -444q62 23 121 77.5t77 115.5h149q-25 -88 -81 -150.5t-114 -92.5l163 -288h-156l-135 244l-38 -1l-39 -243h-140z" />
<glyph unicode="l" horiz-adv-x="307" d="M74 189l94 594h140l-91 -572q-3 -32 -4.5 -49.5t4.5 -29t12 -16t19 -9.5q54 -20 58 -20l-13 -87h-90q-159 0 -129 189z" />
<glyph unicode="m" horiz-adv-x="875" d="M46 0l84 531h112l19 -57q3 2 16.5 10.5t17.5 11t16.5 10t18 9.5t17 7.5t20 7t20.5 4.5t24 4t26 1q32 0 57.5 -9.5t42 -25.5t24.5 -38q50 34 98 53.5t106 19.5q82 0 112.5 -50.5t16.5 -136.5l-56 -352h-140l56 354q3 19 1 32.5t-8.5 22.5t-16.5 13t-23 4q-43 0 -74 -9 t-62 -33q-1 -1 -2 -8.5l-2 -15t-1 -9.5l-56 -351h-140l56 354q5 36 -8 54t-40 18q-40 0 -67.5 -10t-64.5 -35l-60 -381h-140z" />
<glyph unicode="n" horiz-adv-x="550" d="M46 0l84 531h112l19 -57q36 24 53 33.5t52.5 21t73.5 11.5q159 0 129 -186l-56 -354h-140l56 356q11 72 -47 72q-17 0 -31.5 -2t-27 -5.5t-25.5 -9.5t-25 -13t-27 -16l-60 -382h-140z" />
<glyph unicode="o" horiz-adv-x="557" d="M77 272q13 82 33.5 133t55.5 81t80.5 41t115.5 11q132 0 178 -70.5t22 -223.5q-12 -75 -31 -122t-52 -76t-79 -40t-117 -11q-134 0 -181 66t-25 211zM217 258q-6 -41 -6.5 -68t3.5 -43.5t16 -25t26.5 -11t39.5 -2.5q32 0 49.5 3.5t33.5 19t25 45t18 82.5q9 54 10 85.5 t-8.5 50.5t-27 25t-50.5 6q-44 0 -66 -12t-36 -46t-27 -109z" />
<glyph unicode="p" horiz-adv-x="556" d="M3 -270l127 780q108 26 277 26q53 0 88.5 -23t52 -62t21.5 -92t-6 -114q-19 -130 -73.5 -192t-159.5 -62q-89 0 -139 38l-48 -299h-140zM206 122q49 -28 112 -20q28 2 46 14.5t33.5 49.5t25.5 104q26 159 -56 159h-110z" />
<glyph unicode="q" horiz-adv-x="553" d="M79 284q22 136 80.5 195.5t156.5 59.5q51 0 106.5 -4.5t98.5 -11.5t68 -14l-123 -779h-140l47 299q-64 -39 -139 -39q-74 0 -114 37t-46.5 102.5t5.5 154.5zM220 272q-4 -29 -6 -45.5t-4 -37.5t-0.5 -32t5.5 -24t11.5 -19t19 -10t28.5 -4q34 0 57 4.5t57 17.5l49 310 h-110q-22 0 -40 -11t-28.5 -27t-19 -40t-12 -41.5t-7.5 -40.5z" />
<glyph unicode="r" horiz-adv-x="417" d="M46 0l84 531h118l11 -67q87 72 164 72q43 0 58 -6l-21 -135q-29 3 -76.5 3t-81 -12.5t-63.5 -46.5l-53 -339h-140z" />
<glyph unicode="s" horiz-adv-x="509" d="M56 22l14 87h250q35 0 41 34l5 27q1 11 -0.5 18.5t-9 11.5t-21.5 4h-119q-72 0 -107.5 39.5t-23.5 114.5l8 48q10 66 48 99t113 33q236 0 278 -27l-14 -88h-240q-24 0 -34 -10t-13 -27l-4 -26q-1 -6 -1 -11t1 -8.5t2 -6.5t4 -4.5l5 -2.5t6 -1h6h6.5h6.5h122 q72 0 102.5 -43t20.5 -105l-9 -61q-6 -39 -21.5 -65t-38.5 -38t-44.5 -16.5t-47.5 -4.5q-252 0 -291 29z" />
<glyph unicode="t" horiz-adv-x="376" d="M77 425l12 78l90 29l47 148h117l-24 -148h119l-17 -107h-119l-33 -213q-5 -31 -5.5 -50.5t4.5 -30t11.5 -15.5t19.5 -10q54 -19 59 -19l-14 -88h-96q-70 0 -104 46.5t-19 144.5l37 235h-85z" />
<glyph unicode="u" horiz-adv-x="549" d="M66 178l56 353h140l-56 -356q-7 -40 5.5 -55.5t41.5 -15.5q40 0 69.5 10.5t66.5 35.5l60 381h140l-85 -531h-112l-18 56q-49 -33 -86.5 -49t-92.5 -16q-159 0 -129 187z" />
<glyph unicode="v" horiz-adv-x="534" d="M84 531h148l57 -375l127 264q26 54 32 112h129q15 -71 -28 -156l-194 -376h-170z" />
<glyph unicode="w" horiz-adv-x="828" d="M84 531h146l57 -373l127 261q26 54 32 112h126q13 -58 -13 -123l-16 -38l39 -209l131 259q26 54 32 112h127q15 -74 -28 -156l-202 -376h-155l-38 204l-99 -204h-165z" />
<glyph unicode="x" horiz-adv-x="572" d="M18 0l226 275l-142 256h166l75 -159l125 159h170l-227 -281l138 -250h-162l-75 153l-121 -153h-173z" />
<glyph unicode="y" horiz-adv-x="563" d="M84 531h145l33 -372q4 -36 51 -39l135 301q18 43 25 111h130q15 -71 -24 -157l-171 -375q-30 -66 -65.5 -117t-67 -80t-68 -49.5t-61.5 -28.5t-54 -13v98q61 33 100.5 80t71.5 110q-58 0 -94.5 33.5t-43.5 101.5z" />
<glyph unicode="z" horiz-adv-x="473" d="M38 1l17 117l283 295h-249l18 118h429l-18 -118l-272 -294h224l-18 -118h-414z" />
<glyph unicode="{" horiz-adv-x="320" d="M59 252l17 106q17 1 26.5 2.5t23 6t21.5 14.5t10 25l37 234q14 88 73 128.5t171 40.5l-18 -118q-17 0 -29.5 -3t-23.5 -10.5t-18.5 -20.5t-13.5 -32t-11 -46l-28 -181q-14 -85 -111 -96q42 -8 64 -33t16 -62l-36 -221q-10 -64 4 -91t57 -25l-18 -113q-59 0 -100 16.5 t-60.5 44.5t-27 65.5t1.5 80.5l37 231q5 27 -14 43.5t-50 13.5z" />
<glyph unicode="|" horiz-adv-x="247" d="M53 -72l133 842h118l-133 -842h-118z" />
<glyph unicode="}" horiz-adv-x="318" d="M-18 -243l18 113q28 -1 46.5 9.5t30 33.5t17.5 61l35 215q12 76 110 95q-44 4 -65.5 28.5t-14.5 67.5l29 187q6 37 6 61.5t-8 38.5t-21 19.5t-35 4.5l19 118q56 0 96 -17.5t58.5 -47.5t26 -68.5t-1.5 -80.5l-28 -205q-4 -27 15.5 -42t49.5 -15l-17 -105q-72 2 -81 -49 l-41 -249q-16 -94 -71.5 -133.5t-172.5 -39.5z" />
<glyph unicode="~" horiz-adv-x="418" d="M130 586q25 23 40 35.5t40.5 24.5t51.5 12q22 0 51 -17.5t49 -17.5q43 -2 100 40l14 -60q-70 -72 -124 -72q-23 0 -56 17.5t-52 17.5q-8 0 -15.5 -0.5t-15 -3t-12.5 -4t-14 -6t-12.5 -6t-14.5 -7.5t-14 -8z" />
<glyph unicode="&#xa1;" horiz-adv-x="276" d="M22 -270l101 534h115l-70 -534h-146zM127 351l13 87q3 22 28 23h85q9 0 15 -7.5t5 -18.5l-14 -84q-4 -24 -25 -26h-89q-22 1 -18 26z" />
<glyph unicode="&#xa2;" horiz-adv-x="485" d="M71 282q11 68 28.5 115.5t36.5 75t46.5 42.5t52.5 19t60 3l16 97h87l-17 -100q86 -9 148 -30l-14 -86q-95 6 -184 6q-20 0 -29.5 -0.5t-23.5 -5.5t-21.5 -15t-16.5 -27.5t-16 -45t-14 -67.5q-6 -50 -8 -81t9 -47.5t26 -22t43 -5.5q41 0 89.5 2t76.5 5l28 2l-14 -88 q-69 -31 -166 -34l-14 -89h-86l14 90q-83 1 -122 71.5t-15 215.5z" />
<glyph unicode="&#xa3;" horiz-adv-x="582" d="M38 0l17 108l70 21l29 185h-66l11 72l70 22l15 92q7 47 19.5 83t26.5 60.5t36 41.5t41.5 26t50.5 14t55 6t63 1q25 0 70.5 -4t78.5 -8l33 -4l-17 -112h-186q-36 0 -57 -3.5t-37 -15.5t-24.5 -33t-13.5 -57l-14 -87l219 -16l-12 -78h-222l-29 -185h300l-21 -129h-506z" />
<glyph unicode="&#xa4;" horiz-adv-x="449" d="M69 180l55 48q-18 42 -12 84q7 46 32 80l-40 46l56 49l38 -45q45 29 94 29q53 0 89 -28l54 48l45 -51l-57 -49q14 -32 11.5 -65t-14 -61.5t-29.5 -50.5l41 -47l-56 -50l-44 51q-35 -20 -83 -20q-47 0 -83 27l-53 -48zM192 311q-6 -34 14 -58.5t53 -24.5q38 -1 63 22.5 t32 58.5q7 33 -13 58t-56 25q-37 0 -62.5 -23.5t-30.5 -57.5z" />
<glyph unicode="&#xa5;" horiz-adv-x="634" d="M119 139l13 81h138l5 36h-137l13 82h101l-122 394h152l82 -328l203 328h167l-270 -394h114l-13 -82h-150l-5 -36h149l-13 -81h-148l-20 -139h-140l20 139h-139z" />
<glyph unicode="&#xa6;" horiz-adv-x="248" d="M53 -72l52 328h118l-52 -328h-118zM132 429l54 341h118l-54 -341h-118z" />
<glyph unicode="&#xa7;" horiz-adv-x="540" d="M80 11l15 99h238q22 0 33.5 6.5t15.5 24.5l6 40q1 10 0 16t-6 10t-12 5.5t-18 1.5h-122q-34 0 -61 8t-45.5 24t-26 42t-2.5 60l6 34q2 15 4 24.5t7.5 23.5t13.5 23t21.5 18.5t31.5 14.5q-57 33 -44 115l7 48q19 135 164 135q63 0 151.5 -5.5t124.5 -13.5l-15 -99h-241 q-39 0 -45 -36l-6 -35q-5 -34 35 -34h123q75 0 110 -34.5t25 -97.5l-5 -34q-13 -86 -76 -103q17 -4 27.5 -16.5t13.5 -30t3 -32.5t-2 -30l-8 -57q-7 -42 -21.5 -69.5t-37 -41t-46 -18.5t-57.5 -5q-70 0 -158 5.5t-121 13.5zM239 366q-4 -25 5 -32.5t34 -7.5h86q30 0 40 9 t13 32l6 38q2 13 1.5 23t-10 15t-31.5 5h-86q-28 0 -38 -9.5t-14 -35.5z" />
<glyph unicode="&#xa8;" horiz-adv-x="447" d="M130 582q2 16 12.5 29.5t25 21t30.5 7.5q25 0 39 -17t10 -41q-1 -12 -7.5 -23t-15.5 -19t-21 -12.5t-23 -4.5q-25 0 -39.5 17.5t-10.5 41.5zM385 582q2 16 12.5 29.5t25 21t30.5 7.5q25 0 39 -17t10.5 -41t-23.5 -41.5t-44.5 -17.5t-39 17.5t-10.5 41.5z" />
<glyph unicode="&#xa9;" horiz-adv-x="797" d="M98 379q9 61 23 109.5t38 95.5t57 78.5t82.5 50.5t110.5 19h227q48 0 84 -16t57 -44.5t33.5 -64t15 -80t0 -87t-10.5 -88.5q-27 -172 -100.5 -262t-186.5 -90h-227q-47 0 -84 16t-60.5 44.5t-39 65t-21.5 80t-5.5 86.5t7.5 87zM189 368q-10 -78 -4.5 -140.5t37.5 -102 t87 -39.5h224q67 0 117.5 68t73.5 214q6 36 8.5 63t4 62t-4 59.5t-17 47.5t-33.5 34.5t-54 11.5h-231q-36 0 -65.5 -12t-58 -41.5t-50 -86t-34.5 -138.5zM279 374q10 62 27 103.5t40.5 64.5t50 32t60.5 9q37 0 90 -6.5t90 -17.5l-11 -74q-83 12 -160 12q-41 0 -62.5 -30.5 t-33.5 -104.5q-10 -65 3 -97t55 -32q73 0 166 16l-11 -74q-73 -28 -190 -28q-65 0 -98.5 55t-15.5 172z" />
<glyph unicode="&#xaa;" horiz-adv-x="364" d="M64 262l10 70h321l-10 -70h-321zM98 573q8 42 23 72.5t31 46.5t39 25.5t39 12t38 3.5q44 2 97.5 -9t76.5 -34l-46 -315h-71l-16 48q-14 -22 -48 -37.5t-66 -15.5q-53 0 -84.5 52.5t-12.5 150.5zM195 558q-15 -95 36 -95t87 40l20 141q-17 6 -40 8t-38 -2q-11 -3 -19.5 -7 t-18 -13t-16.5 -27.5t-11 -44.5z" />
<glyph unicode="&#xab;" horiz-adv-x="578" d="M94 354l238 203l66 -77l-158 -135l116 -135l-84 -64zM309 354l238 203l66 -77l-158 -135l116 -135l-84 -64z" />
<glyph unicode="&#xac;" horiz-adv-x="493" d="M71 240l18 112h427q-5 -28 -16 -96.5t-15 -96.5h-113l13 81h-314z" />
<glyph unicode="&#xad;" horiz-adv-x="353" d="M56 231l19 118h314l-19 -118h-314z" />
<glyph unicode="&#xae;" horiz-adv-x="797" d="M98 379q9 61 23 109.5t38 95.5t57 78.5t82.5 50.5t110.5 19h227q48 0 84 -16t57 -44.5t33.5 -64t15 -80t0 -87t-10.5 -88.5q-27 -172 -100.5 -262t-186.5 -90h-227q-47 0 -84 16t-60.5 44.5t-39 65t-21.5 80t-5.5 86.5t7.5 87zM189 368q-10 -78 -4.5 -140.5t37.5 -102 t87 -39.5h224q67 0 117.5 68t73.5 214q6 36 8.5 63t4 62t-4 59.5t-17 47.5t-33.5 34.5t-54 11.5h-231q-36 0 -65.5 -12t-58 -41.5t-50 -86t-34.5 -138.5zM269 153l68 427h183q25 0 45.5 -6t38.5 -20t26 -42.5t2 -67.5q-3 -29 -11 -50.5t-16.5 -34t-22 -22t-23.5 -13.5 t-26 -8l62 -163h-99l-58 159l-50 12l-27 -171h-92zM399 390h75q38 0 49.5 10t17.5 46q5 31 -7 39.5t-44 8.5h-75z" />
<glyph unicode="&#xaf;" horiz-adv-x="367" d="M122 531l13 79h292l-13 -79h-292z" />
<glyph unicode="&#xb0;" horiz-adv-x="275" d="M136 632q2 43 33 72t73 29q28 0 50.5 -13.5t35 -36.5t11.5 -51q-2 -42 -32.5 -70.5t-73 -28.5t-71 28.5t-26.5 70.5zM193.5 632q-0.5 -12 5 -22t15.5 -16t22 -6t22.5 6t16.5 16t6 22q1 18 -11 31.5t-30 13.5q-12 0 -22.5 -6t-17 -16.5t-7 -22.5z" />
<glyph unicode="&#xb1;" horiz-adv-x="500" d="M54 70l18 118h416l-18 -118h-416zM104 382l18 118h148l24 148h118l-24 -148h150l-18 -118h-150l-24 -150h-118l24 150h-148z" />
<glyph unicode="&#xb2;" horiz-adv-x="398" d="M67 355l15 96q258 162 269 236q6 33 -9 45t-58 12h-159l3 20.5t6.5 40.5l3.5 20q110 19 198 19q48 0 79.5 -24.5t42.5 -59t5 -70.5q-5 -27 -19 -55.5t-28.5 -48.5t-39.5 -44.5t-38 -35.5t-38 -30.5t-26 -20.5h150l-16 -100h-341z" />
<glyph unicode="&#xb3;" horiz-adv-x="407" d="M69 371l13 79l160 1q36 0 53.5 8.5t21.5 32.5l2 13q4 24 -10.5 33.5t-47.5 10.5l-122 5l13 87l126 5q23 1 37.5 5t23 12.5t10.5 23.5l2 12q4 23 -10 32t-49 9h-169l13 79q29 10 66 15t73 5.5t78 -0.5q56 -1 86 -37.5t22 -89.5l-5 -30q-13 -77 -70 -89q26 -10 35.5 -38.5 t4.5 -64.5l-4 -24q-19 -116 -151 -115h-19h-52t-45 2t-47.5 6t-38.5 12z" />
<glyph unicode="&#xb4;" horiz-adv-x="243" d="M99 531l113 139h122l-144 -139h-91z" />
<glyph unicode="&#xb5;" horiz-adv-x="587" d="M26 -270q78 494 127 801h140l-57 -356q-12 -71 47 -71q41 0 70 10.5t66 35.5l61 381h140l-84 -531h-113l-19 56q-6 -3 -21.5 -11.5t-23 -12.5t-21 -10.5t-23 -10t-22 -7t-25.5 -5.5q-31 -4 -59 5l-43 -274h-140z" />
<glyph unicode="&#xb6;" horiz-adv-x="576" d="M109 511l14 93q6 38 22 64t41 39.5t53 19t63 5.5h376l-17 -104h-52l-100 -628h-101l100 630h-67l-142 -900h-102l102 642q-2 0 -8 -3.5t-12.5 -6t-17 -5t-21.5 -2.5q-40 0 -69 14t-43 37.5t-19 50t0 54.5zM212 511q-3 -19 0 -31t12.5 -16.5t17 -5.5t20.5 -1h49l29 175 h-49q-36 0 -50 -13t-19 -47z" />
<glyph unicode="&#xb7;" horiz-adv-x="262" d="M117 340l15 90q3 25 28 25h86q26 0 21 -25l-15 -90q-3 -23 -28 -23h-86q-10 0 -16 6t-5 17z" />
<glyph unicode="&#xb8;" horiz-adv-x="243" d="M10 -178l10 60l46 15q15 5 23 14t11 19.5t6 32.5h95q-8 -53 -23 -82.5t-41.5 -44t-70.5 -14.5h-56z" />
<glyph unicode="&#xb9;" horiz-adv-x="279" d="M110 704l11 74q25 0 65 21.5t55 38.5h106l-77 -483h-108l60 372q-29 -23 -112 -23z" />
<glyph unicode="&#xba;" horiz-adv-x="385" d="M77 264l11 69h322l-11 -69h-322zM113 558q17 104 58.5 140.5t136.5 36.5q90 1 124.5 -44.5t17.5 -150.5q-8 -50 -20.5 -81t-35.5 -51t-56 -27.5t-83 -7.5q-89 0 -123 45t-19 140zM215 549q-4 -25 -4 -41.5t3 -26t11.5 -14.5t17 -6t25.5 -1q21 0 31 1.5t21 10t17 27 t11 50.5q6 36 6.5 54.5t-6 29t-17 13t-34.5 2.5q-29 0 -43 -6t-22.5 -26t-16.5 -67z" />
<glyph unicode="&#xbb;" horiz-adv-x="576" d="M73 224l159 139l-111 126l81 68l175 -205l-236 -206zM290 224l159 139l-111 126l80 68l176 -205l-236 -206z" />
<glyph unicode="&#xbc;" horiz-adv-x="967" d="M110 604l11 74q25 0 65 21.5t55 38.5h106l-77 -483h-108l60 372q-29 -23 -112 -23zM192 0l533 770h105l-533 -770h-105zM561 144l225 337h118l-183 -281h109l16 103l33 49h80l-24 -152h49l-14 -85l-53 -17l-13 -97h-105l15 96h-231z" />
<glyph unicode="&#xbd;" horiz-adv-x="1014" d="M110 604l11 74q25 0 65 21.5t55 38.5h106l-77 -483h-108l60 372q-29 -23 -112 -23zM186 0l533 770h105l-533 -770h-105zM644 -1l15 96q257 162 269 236q5 33 -9.5 45t-57.5 12h-159l3 20.5t6.5 40.5l3.5 20q110 19 198 19q36 0 63.5 -14.5t42 -37t20 -49t0.5 -53.5 q-4 -27 -18 -55.5t-28.5 -48.5t-39.5 -44.5t-38 -35.5t-38.5 -30.5t-26.5 -20.5h151l-16 -100h-341z" />
<glyph unicode="&#xbe;" horiz-adv-x="1079" d="M69 271l13 79l160 1q24 0 39 3.5t24 12.5t12 25l2 13q3 17 -4 26.5t-19.5 13.5t-34.5 4l-122 5l13 87l126 5q23 1 37.5 5t23 12.5t10.5 23.5l2 12q4 23 -10 32t-49 9h-169l13 79q29 10 66 15t73 5.5t78 -0.5q56 -1 86 -37.5t22 -89.5l-5 -30q-13 -77 -70 -89 q26 -10 35.5 -38.5t4.5 -64.5l-4 -24q-19 -116 -151 -115h-19h-52t-45 2t-47.5 6t-38.5 12zM292 0l533 770h105l-533 -770h-105zM650 144l226 337h117l-184 -281h110l16 103l32 49h81l-24 -152h48l-13 -85l-53 -17l-13 -97h-106l16 96h-232z" />
<glyph unicode="&#xbf;" horiz-adv-x="540" d="M18 -60l11 73q17 104 78.5 143.5t177.5 29.5l7.5 44t7.5 46h113l-31 -195q-76 1 -114 0q-87 -4 -100 -82l-8 -54q-5 -31 3.5 -49.5t31 -27t61.5 -8.5h249l-16 -103q-84 -16 -146 -22.5t-141 -2.5q-52 0 -91.5 18.5t-61 48.5t-29.5 66.5t-2 74.5zM304 358l14 90 q4 23 28 23h87q10 0 16 -6.5t4 -16.5l-14 -90q-3 -25 -28 -25h-87q-24 0 -20 25z" />
<glyph unicode="&#xc0;" horiz-adv-x="688" d="M34 0l363 732h159l122 -732h-143l-29 162h-237l-80 -162h-155zM325 286h167l-41 266zM336 936h119l77 -139h-91z" />
<glyph unicode="&#xc1;" horiz-adv-x="688" d="M34 0l363 732h159l122 -732h-143l-29 162h-237l-80 -162h-155zM325 286h167l-41 266zM441 797l113 139h122l-144 -139h-91z" />
<glyph unicode="&#xc2;" horiz-adv-x="688" d="M34 0l363 732h159l122 -732h-143l-29 162h-237l-80 -162h-155zM325 286h167l-41 266zM333 797l129 135h104l75 -135h-90l-43 65l-72 -65h-103z" />
<glyph unicode="&#xc3;" horiz-adv-x="688" d="M34 0l363 732h159l122 -732h-143l-29 162h-237l-80 -162h-155zM324 852q75 70 132 70q25 -1 54.5 -18t45.5 -17q22 -1 53.5 12t46.5 26l14 -60q-23 -21 -37.5 -32.5t-39.5 -23.5t-48 -12q-20 1 -39 9.5t-35.5 17t-31.5 8.5q-19 0 -37.5 -5.5t-29 -11t-32.5 -18.5z M325 286h167l-41 266z" />
<glyph unicode="&#xc4;" horiz-adv-x="688" d="M34 0l363 732h159l122 -732h-143l-29 162h-237l-80 -162h-155zM311 856q3 24 23.5 41t44.5 17t38.5 -16.5t10.5 -41t-24 -42t-44 -17.5q-16 0 -28 8t-18 21.5t-3 29.5zM325 286h167l-41 266zM566 856q3 24 23.5 41t44.5 17t38.5 -16.5t10.5 -41t-24 -42t-44 -17.5 q-16 0 -28 8t-18 21.5t-3 29.5z" />
<glyph unicode="&#xc5;" horiz-adv-x="688" d="M34 0l363 732h65q-35 7 -56.5 34.5t-18.5 64.5q3 28 18.5 51.5t40 36.5t51.5 13q42 0 69.5 -29.5t23.5 -71.5q-3 -37 -27.5 -64.5t-60.5 -34.5h54l122 -732h-143l-29 162h-237l-80 -162h-155zM325 286h167l-41 266zM446 831q-2 -18 9.5 -30t30 -12t31.5 12t15 30 t-9.5 30.5t-29.5 12.5t-31.5 -12.5t-15.5 -30.5z" />
<glyph unicode="&#xc6;" horiz-adv-x="1016" d="M23 0l374 575q29 45 62 76.5t64 47.5t65.5 24.5t67 8.5h67.5q247 -7 310 -16l-18 -116h-280q-18 0 -29.5 -4t-17.5 -14t-8 -16.5t-4 -20.5l-19 -117l283 -11l-17 -115l-288 -9l-18 -113q-2 -19 1 -30.5t13.5 -15.5t17.5 -5t23 -1h268l-18 -115q-26 -3 -101.5 -7.5 t-138.5 -6.5l-63 -3q-28 -2 -55 3.5t-52 19t-37.5 40.5t-6.5 64l11 72h-171l-129 -195h-156zM386 319h113l39 234z" />
<glyph unicode="&#xc7;" horiz-adv-x="571" d="M100 385q10 61 22 108t30 88t41 69.5t54 49t71 30.5t89 10q136 0 250 -36l-17 -109q-131 17 -219 16h-4q-15 0 -23 -0.5t-22.5 -2.5t-22.5 -6.5t-21 -12.5t-21 -20t-18.5 -31t-18 -43t-15.5 -56.5t-14 -72.5q-23 -122 -1 -181t101 -62q85 -1 227 9l-17 -110 q-53 -18 -112.5 -23.5t-147.5 -4.5q-68 1 -113.5 32t-64.5 84.5t-23.5 124.5t10.5 150zM176 -178l10 60l46 15q21 7 28.5 21t12.5 46h94q-6 -40 -15.5 -66t-25.5 -43.5t-38.5 -25t-55.5 -7.5h-56z" />
<glyph unicode="&#xc8;" horiz-adv-x="560" d="M79 150l69 436q7 44 25 74.5t44 45.5t53 21t61 5q246 -7 309 -16l-18 -116h-279q-14 0 -25 -3.5t-17 -8t-10 -13t-5.5 -15t-2.5 -16.5l-18 -112l283 -10l-19 -115l-285 -10l-19 -116q-1 -8 -1.5 -14.5t1 -11.5t3 -9t5 -6.5t5.5 -4.5t7.5 -3t8 -2t8.5 -1h8.5h8.5h269 l-19 -115q-16 -2 -53.5 -4.5t-79 -4.5t-81 -4t-65.5 -3l-26 -1q-29 -1 -55.5 5.5t-50.5 22.5t-35 48.5t-4 76.5zM275 930h119l77 -138h-91z" />
<glyph unicode="&#xc9;" horiz-adv-x="560" d="M79 150l69 436q7 44 25 74.5t44 45.5t53 21t61 5q246 -7 309 -16l-18 -116h-279q-14 0 -25 -3.5t-17 -8t-10 -13t-5.5 -15t-2.5 -16.5l-18 -112l283 -10l-19 -115l-285 -10l-19 -116q-1 -8 -1.5 -14.5t1 -11.5t3 -9t5 -6.5t5.5 -4.5t7.5 -3t8 -2t8.5 -1h8.5h8.5h269 l-19 -115q-16 -2 -53.5 -4.5t-79 -4.5t-81 -4t-65.5 -3l-26 -1q-29 -1 -55.5 5.5t-50.5 22.5t-35 48.5t-4 76.5zM382 792l112 138h123l-145 -138h-90z" />
<glyph unicode="&#xca;" horiz-adv-x="560" d="M79 150l69 436q7 44 25 74.5t44 45.5t53 21t61 5q246 -7 309 -16l-18 -116h-279q-14 0 -25 -3.5t-17 -8t-10 -13t-5.5 -15t-2.5 -16.5l-18 -112l283 -10l-19 -115l-285 -10l-19 -116q-1 -8 -1.5 -14.5t1 -11.5t3 -9t5 -6.5t5.5 -4.5t7.5 -3t8 -2t8.5 -1h8.5h8.5h269 l-19 -115q-16 -2 -53.5 -4.5t-79 -4.5t-81 -4t-65.5 -3l-26 -1q-29 -1 -55.5 5.5t-50.5 22.5t-35 48.5t-4 76.5zM275 792l129 136h104l76 -136h-92l-41 64l-65 -64h-111z" />
<glyph unicode="&#xcb;" horiz-adv-x="560" d="M79 150l69 436q7 44 25 74.5t44 45.5t53 21t61 5q246 -7 309 -16l-18 -116h-279q-14 0 -25 -3.5t-17 -8t-10 -13t-5.5 -15t-2.5 -16.5l-18 -112l283 -10l-19 -115l-285 -10l-19 -116q-1 -8 -1.5 -14.5t1 -11.5t3 -9t5 -6.5t5.5 -4.5t7.5 -3t8 -2t8.5 -1h8.5h8.5h269 l-19 -115q-16 -2 -53.5 -4.5t-79 -4.5t-81 -4t-65.5 -3l-26 -1q-29 -1 -55.5 5.5t-50.5 22.5t-35 48.5t-4 76.5zM241.5 843q3.5 24 23.5 41t44.5 17t39 -17t10.5 -41t-24 -41.5t-44 -17.5t-38.5 17.5t-11 41.5zM496.5 843q3.5 24 23.5 41t44.5 17t39 -17t10.5 -41t-24 -41.5 t-44 -17.5t-38.5 17.5t-11 41.5z" />
<glyph unicode="&#xcc;" horiz-adv-x="256" d="M65 0l116 732h140l-116 -732h-140zM111 936h119l77 -139h-91z" />
<glyph unicode="&#xcd;" horiz-adv-x="256" d="M65 0l116 732h140l-116 -732h-140zM216 797l113 139h122l-144 -139h-91z" />
<glyph unicode="&#xce;" horiz-adv-x="256" d="M65 0l116 732h140l-116 -732h-140zM107 797l129 135h104l76 -135h-91l-42 65l-73 -65h-103z" />
<glyph unicode="&#xcf;" horiz-adv-x="256" d="M65 0l116 732h140l-116 -732h-140zM85 856q4 24 24 41t44.5 17t38.5 -16.5t10.5 -41t-23.5 -42t-45 -17.5q-15 0 -27.5 8t-18.5 21.5t-3 29.5zM340 856q4 24 24 41t44.5 17t38.5 -16.5t10.5 -41t-23.5 -42t-45 -17.5q-15 0 -27.5 8t-18.5 21.5t-3 29.5z" />
<glyph unicode="&#xd0;" horiz-adv-x="652" d="M49 340l11 66h65l51 326h301q51 0 89.5 -16.5t61 -46t36.5 -66.5t17.5 -82t1 -87t-9.5 -88q-30 -180 -100.5 -263t-200.5 -83h-312l54 340h-65zM220 125h150q124 0 162 239q17 94 9.5 148t-30 75t-65.5 21h-149l-32 -202h111l-10 -66h-112z" />
<glyph unicode="&#xd1;" horiz-adv-x="669" d="M61 0l116 732h140l208 -476l75 476h140l-116 -732h-138l-210 470l-74 -470h-141zM302 850q75 70 132 70q25 -1 54.5 -18t45.5 -17q23 -1 54 12t46 25l14 -59q-23 -21 -37.5 -32.5t-39.5 -23.5t-47 -12q-26 0 -57.5 17.5t-49.5 17.5q-19 0 -37.5 -6t-29 -11t-32.5 -18z " />
<glyph unicode="&#xd2;" horiz-adv-x="666" d="M103 375q9 56 21 102.5t25 81.5t31 62t34.5 46t40 32t43.5 20.5t48 11.5t51 5t55 1q40 0 71 -4t61.5 -14.5t51.5 -28.5t37.5 -47.5t24 -70t6 -97.5t-12.5 -128q-10 -68 -25.5 -121t-33.5 -90t-43 -62.5t-49.5 -41t-58.5 -23.5t-64.5 -10.5t-72.5 -2.5q-40 0 -70.5 3.5 t-61.5 13.5t-52 27t-38 46t-24.5 68t-6.5 95t12 126zM243 361q-9 -62 -11 -102t3.5 -67.5t22 -41.5t40 -19.5t62.5 -5.5q35 0 59.5 5.5t46.5 20.5t37 42t27 68t21 100q11 68 12 113.5t-5.5 72t-25 40t-39 17.5t-56.5 4q-27 0 -43.5 -1.5t-35.5 -6.5t-31.5 -15.5t-25.5 -28.5 t-22.5 -44.5t-18.5 -63.5t-17 -87zM311 936h119l77 -139h-91z" />
<glyph unicode="&#xd3;" horiz-adv-x="666" d="M103 375q9 56 21 102.5t25 81.5t31 62t34.5 46t40 32t43.5 20.5t48 11.5t51 5t55 1q40 0 71 -4t61.5 -14.5t51.5 -28.5t37.5 -47.5t24 -70t6 -97.5t-12.5 -128q-10 -68 -25.5 -121t-33.5 -90t-43 -62.5t-49.5 -41t-58.5 -23.5t-64.5 -10.5t-72.5 -2.5q-40 0 -70.5 3.5 t-61.5 13.5t-52 27t-38 46t-24.5 68t-6.5 95t12 126zM243 361q-9 -62 -11 -102t3.5 -67.5t22 -41.5t40 -19.5t62.5 -5.5q35 0 59.5 5.5t46.5 20.5t37 42t27 68t21 100q11 68 12 113.5t-5.5 72t-25 40t-39 17.5t-56.5 4q-27 0 -43.5 -1.5t-35.5 -6.5t-31.5 -15.5t-25.5 -28.5 t-22.5 -44.5t-18.5 -63.5t-17 -87zM416 797l113 139h123l-145 -139h-91z" />
<glyph unicode="&#xd4;" horiz-adv-x="666" d="M103 375q9 56 21 102.5t25 81.5t31 62t34.5 46t40 32t43.5 20.5t48 11.5t51 5t55 1q40 0 71 -4t61.5 -14.5t51.5 -28.5t37.5 -47.5t24 -70t6 -97.5t-12.5 -128q-10 -68 -25.5 -121t-33.5 -90t-43 -62.5t-49.5 -41t-58.5 -23.5t-64.5 -10.5t-72.5 -2.5q-40 0 -70.5 3.5 t-61.5 13.5t-52 27t-38 46t-24.5 68t-6.5 95t12 126zM243 361q-9 -62 -11 -102t3.5 -67.5t22 -41.5t40 -19.5t62.5 -5.5q35 0 59.5 5.5t46.5 20.5t37 42t27 68t21 100q11 68 12 113.5t-5.5 72t-25 40t-39 17.5t-56.5 4q-27 0 -43.5 -1.5t-35.5 -6.5t-31.5 -15.5t-25.5 -28.5 t-22.5 -44.5t-18.5 -63.5t-17 -87zM308 797l129 135h104l75 -135h-90l-42 65l-73 -65h-103z" />
<glyph unicode="&#xd5;" horiz-adv-x="666" d="M103 375q9 56 21 102.5t25 81.5t31 62t34.5 46t40 32t43.5 20.5t48 11.5t51 5t55 1q40 0 71 -4t61.5 -14.5t51.5 -28.5t37.5 -47.5t24 -70t6 -97.5t-12.5 -128q-10 -68 -25.5 -121t-33.5 -90t-43 -62.5t-49.5 -41t-58.5 -23.5t-64.5 -10.5t-72.5 -2.5q-40 0 -70.5 3.5 t-61.5 13.5t-52 27t-38 46t-24.5 68t-6.5 95t12 126zM243 361q-9 -62 -11 -102t3.5 -67.5t22 -41.5t40 -19.5t62.5 -5.5q35 0 59.5 5.5t46.5 20.5t37 42t27 68t21 100q11 68 12 113.5t-5.5 72t-25 40t-39 17.5t-56.5 4q-27 0 -43.5 -1.5t-35.5 -6.5t-31.5 -15.5t-25.5 -28.5 t-22.5 -44.5t-18.5 -63.5t-17 -87zM299 852q74 70 131 70q25 -1 54.5 -18t45.5 -17q23 -1 54.5 12t45.5 26l15 -60q-24 -21 -38.5 -32.5t-39.5 -23.5t-47 -12q-16 1 -31.5 6.5t-26 12t-23.5 11.5t-25 5q-20 0 -38.5 -5.5t-28.5 -11t-33 -18.5z" />
<glyph unicode="&#xd6;" horiz-adv-x="666" d="M103 375q9 56 21 102.5t25 81.5t31 62t34.5 46t40 32t43.5 20.5t48 11.5t51 5t55 1q40 0 71 -4t61.5 -14.5t51.5 -28.5t37.5 -47.5t24 -70t6 -97.5t-12.5 -128q-10 -68 -25.5 -121t-33.5 -90t-43 -62.5t-49.5 -41t-58.5 -23.5t-64.5 -10.5t-72.5 -2.5q-40 0 -70.5 3.5 t-61.5 13.5t-52 27t-38 46t-24.5 68t-6.5 95t12 126zM243 361q-9 -62 -11 -102t3.5 -67.5t22 -41.5t40 -19.5t62.5 -5.5q35 0 59.5 5.5t46.5 20.5t37 42t27 68t21 100q11 68 12 113.5t-5.5 72t-25 40t-39 17.5t-56.5 4q-27 0 -43.5 -1.5t-35.5 -6.5t-31.5 -15.5t-25.5 -28.5 t-22.5 -44.5t-18.5 -63.5t-17 -87zM285.5 856q3.5 24 24 41t44.5 17t38.5 -16.5t10.5 -41t-23.5 -42t-44 -17.5t-39 17.5t-11 41.5zM540.5 856q3.5 24 24 41t44.5 17t38.5 -16.5t10.5 -41t-23.5 -42t-44 -17.5t-39 17.5t-11 41.5z" />
<glyph unicode="&#xd7;" horiz-adv-x="461" d="M82 251l121 105l-88 105l91 80l88 -105l129 110l70 -84l-129 -112l88 -105l-90 -75l-86 102l-122 -108z" />
<glyph unicode="&#xd8;" horiz-adv-x="666" d="M43 0l73 86q-22 42 -26 115.5t12 176.5q8 56 20 102t25.5 81t31 62t34 45.5t40 31.5t43.5 20t48.5 11t51 5t55.5 1q126 0 179 -39l29 34h75l-64 -76q54 -90 20 -312q-11 -68 -26.5 -120.5t-33.5 -89.5t-43 -62.5t-49 -40t-58.5 -22.5t-64.5 -10.5t-73 -2.5q-67 0 -113 9 t-78 35l-34 -40h-74zM235 226l299 360q-25 22 -99 22q-31 0 -50 -2t-40 -10t-34 -24t-26.5 -43.5t-23.5 -68.5t-19 -99q-15 -91 -7 -135zM251 157q25 -32 107 -32q45 0 73.5 9t52 35t39 72t27.5 120q17 113 7 164z" />
<glyph unicode="&#xd9;" horiz-adv-x="653" d="M110 328l65 404h140l-66 -420q-17 -105 4.5 -146.5t99.5 -41.5t113 43.5t51 144.5l67 420h141l-64 -437q-9 -59 -25 -105.5t-38 -79.5t-48.5 -55.5t-61 -35.5t-71 -18.5t-82.5 -5.5q-34 0 -62 3.5t-55.5 13t-48 25.5t-36.5 41.5t-24 60t-8 82.5t9 107zM309 936h119 l77 -139h-91z" />
<glyph unicode="&#xda;" horiz-adv-x="653" d="M110 328l65 404h140l-66 -420q-17 -105 4.5 -146.5t99.5 -41.5t113 43.5t51 144.5l67 420h141l-64 -437q-9 -59 -25 -105.5t-38 -79.5t-48.5 -55.5t-61 -35.5t-71 -18.5t-82.5 -5.5q-34 0 -62 3.5t-55.5 13t-48 25.5t-36.5 41.5t-24 60t-8 82.5t9 107zM414 797l113 139 h122l-144 -139h-91z" />
<glyph unicode="&#xdb;" horiz-adv-x="653" d="M110 328l65 404h140l-66 -420q-17 -105 4.5 -146.5t99.5 -41.5t113 43.5t51 144.5l67 420h141l-64 -437q-9 -59 -25 -105.5t-38 -79.5t-48.5 -55.5t-61 -35.5t-71 -18.5t-82.5 -5.5q-34 0 -62 3.5t-55.5 13t-48 25.5t-36.5 41.5t-24 60t-8 82.5t9 107zM306 797l129 135 h104l75 -135h-90l-43 65l-72 -65h-103z" />
<glyph unicode="&#xdc;" horiz-adv-x="653" d="M110 328l65 404h140l-66 -420q-17 -105 4.5 -146.5t99.5 -41.5t113 43.5t51 144.5l67 420h141l-64 -437q-9 -59 -25 -105.5t-38 -79.5t-48.5 -55.5t-61 -35.5t-71 -18.5t-82.5 -5.5q-34 0 -62 3.5t-55.5 13t-48 25.5t-36.5 41.5t-24 60t-8 82.5t9 107zM283.5 856 q3.5 24 24 41t44.5 17t38.5 -16.5t10.5 -41t-24 -42t-44 -17.5t-38.5 17.5t-11 41.5zM538.5 856q3.5 24 24 41t44.5 17t38.5 -16.5t10.5 -41t-24 -42t-44 -17.5t-38.5 17.5t-11 41.5z" />
<glyph unicode="&#xdd;" horiz-adv-x="656" d="M139 732h151l84 -350l209 350h160l-321 -505l-36 -227h-140l36 227zM406 797l113 139h122l-144 -139h-91z" />
<glyph unicode="&#xde;" horiz-adv-x="545" d="M46 0q12 81 28 182.5t29 182.5t29 182t29 182h140l-22 -141h147q24 0 45 -5.5t43 -20t35.5 -39.5t20.5 -63.5t-2 -91.5q-5 -38 -13.5 -68.5t-20 -52.5t-23.5 -38t-28.5 -26t-29.5 -16.5t-32 -9.5t-31 -4t-31 -2q-94 -2 -146 20l-27 -171h-140zM229 275h104q23 0 36.5 3 t25.5 13t19 30t13 53q4 19 2 32.5t-3 23.5t-8 16.5t-11.5 10t-13.5 5t-15 2t-16 0.5h-103z" />
<glyph unicode="&#xdf;" horiz-adv-x="572" d="M46 0l90 566q7 45 25.5 82.5t50 68t82 47.5t115.5 17q69 0 117.5 -18.5t71 -48t29.5 -66.5t-3 -75.5t-31 -74t-50 -62.5q-11 -10 -35.5 -25t-37 -28t-15.5 -33q-3 -16 7 -28.5t26 -20t35 -19t34.5 -24t23.5 -35.5t3 -53l-5 -31q-22 -147 -191 -147q-63 0 -146 19l16 99 q88 -5 113 -5q26 0 45.5 13.5t24.5 42.5l4 20q2 16 -7.5 28t-25 19t-33.5 17t-33 21.5t-23 33t-4 50.5q5 34 17.5 57t32.5 41t60 43q48 34 55 85q4 24 -0.5 40t-17 24t-28 11t-39.5 3q-58 0 -88.5 -30t-43.5 -108l-81 -516h-140z" />
<glyph unicode="&#xe0;" d="M77 297q12 63 33.5 109t45 70.5t56 39.5t57 19t59.5 6q65 3 139 -12.5t109 -49.5l-70 -478h-108l-21 55q-13 -17 -38.5 -31t-58.5 -22.5t-64 -8.5q-40 0 -71 16.5t-53 52.5t-25.5 94t10.5 140zM202 740h119l77 -138h-91zM213 271q-14 -75 -2 -116.5t56 -41.5 q41 0 68.5 12t53.5 38l38 256q-24 8 -54 11t-52 -2q-21 -4 -34 -10t-28.5 -21t-26.5 -46.5t-19 -79.5z" />
<glyph unicode="&#xe1;" d="M77 297q12 63 33.5 109t45 70.5t56 39.5t57 19t59.5 6q65 3 139 -12.5t109 -49.5l-70 -478h-108l-21 55q-13 -17 -38.5 -31t-58.5 -22.5t-64 -8.5q-40 0 -71 16.5t-53 52.5t-25.5 94t10.5 140zM213 271q-14 -75 -2 -116.5t56 -41.5q41 0 68.5 12t53.5 38l38 256 q-24 8 -54 11t-52 -2q-21 -4 -34 -10t-28.5 -21t-26.5 -46.5t-19 -79.5zM312 602l112 138h123l-144 -138h-91z" />
<glyph unicode="&#xe2;" d="M77 297q12 63 33.5 109t45 70.5t56 39.5t57 19t59.5 6q65 3 139 -12.5t109 -49.5l-70 -478h-108l-21 55q-13 -17 -38.5 -31t-58.5 -22.5t-64 -8.5q-40 0 -71 16.5t-53 52.5t-25.5 94t10.5 140zM199 602l129 135h104l75 -135h-90l-43 65l-72 -65h-103zM213 271 q-14 -75 -2 -116.5t56 -41.5q41 0 68.5 12t53.5 38l38 256q-24 8 -54 11t-52 -2q-21 -4 -34 -10t-28.5 -21t-26.5 -46.5t-19 -79.5z" />
<glyph unicode="&#xe3;" d="M77 297q12 63 33.5 109t45 70.5t56 39.5t57 19t59.5 6q65 3 139 -12.5t109 -49.5l-70 -478h-108l-21 55q-13 -17 -38.5 -31t-58.5 -22.5t-64 -8.5q-40 0 -71 16.5t-53 52.5t-25.5 94t10.5 140zM193 657q75 70 132 70q19 -1 37 -9.5t33.5 -17t29.5 -8.5q22 -1 53.5 12 t46.5 25l14 -59q-23 -21 -38 -32.5t-40 -23.5t-47 -12q-25 1 -56.5 18t-49.5 17q-20 0 -38.5 -5.5t-28.5 -11t-33 -18.5zM213 271q-14 -75 -2 -116.5t56 -41.5q41 0 68.5 12t53.5 38l38 256q-24 8 -54 11t-52 -2q-21 -4 -34 -10t-28.5 -21t-26.5 -46.5t-19 -79.5z" />
<glyph unicode="&#xe4;" d="M77 297q12 63 33.5 109t45 70.5t56 39.5t57 19t59.5 6q65 3 139 -12.5t109 -49.5l-70 -478h-108l-21 55q-13 -17 -38.5 -31t-58.5 -22.5t-64 -8.5q-40 0 -71 16.5t-53 52.5t-25.5 94t10.5 140zM176 661q4 24 24 41t44 17q16 0 28.5 -7.5t18 -21t2.5 -29.5 q-3 -24 -23 -41.5t-45 -17.5q-15 0 -27.5 8t-18.5 21.5t-3 29.5zM213 271q-14 -75 -2 -116.5t56 -41.5q41 0 68.5 12t53.5 38l38 256q-24 8 -54 11t-52 -2q-21 -4 -34 -10t-28.5 -21t-26.5 -46.5t-19 -79.5zM431 661q4 24 24 41t44 17q16 0 28.5 -7.5t18 -21t2.5 -29.5 q-3 -24 -23 -41.5t-45 -17.5q-15 0 -27.5 8t-18.5 21.5t-3 29.5z" />
<glyph unicode="&#xe5;" d="M77 297q12 63 33.5 109t45 70.5t56 39.5t57 19t59.5 6q65 3 139 -12.5t109 -49.5l-70 -478h-108l-21 55q-13 -17 -38.5 -31t-58.5 -22.5t-64 -8.5q-40 0 -71 16.5t-53 52.5t-25.5 94t10.5 140zM213 271q-14 -75 -2 -116.5t56 -41.5q41 0 68.5 12t53.5 38l38 256 q-24 8 -54 11t-52 -2q-21 -4 -34 -10t-28.5 -21t-26.5 -46.5t-19 -79.5zM272 703q4 42 36 71.5t74 29.5t69.5 -29.5t23.5 -71.5q-3 -28 -18 -51.5t-39 -36.5t-51 -13q-43 0 -71 29t-24 72zM330.5 703q-1.5 -18 10 -30.5t29.5 -12.5t31.5 12.5t15 30.5t-9.5 30.5t-29 12.5 t-32 -12.5t-15.5 -30.5z" />
<glyph unicode="&#xe6;" horiz-adv-x="849" d="M55 299q9 46 22.5 83.5t28 62t34.5 42.5t36.5 27.5t40 15.5t40 8t41.5 3q28 2 62.5 -1t70 -10.5t60.5 -19.5q55 30 145 31q47 0 84.5 -7t69.5 -23.5t48.5 -47.5t13.5 -75q-3 -50 -22 -87t-46.5 -57.5t-62 -32.5t-68 -15t-65 -1.5t-52 5.5t-29.5 8q-10 -60 6.5 -81 t70.5 -22q88 -4 211 17l-17 -100q-125 -38 -271 -29q-86 4 -120 69q-30 -33 -86.5 -51t-106.5 -18q-85 0 -127 77.5t-12 228.5zM191 270q-14 -75 -3.5 -116.5t57.5 -41.5q36 -1 70 9.5t48 27.5q-4 58 10 141t36 127q-26 9 -57.5 12t-53.5 -1q-20 -4 -33 -10t-28.5 -21.5 t-26.5 -47t-19 -79.5zM518 300q4 0 10 -1t24.5 -2t35.5 -0.5t38.5 4.5t38 11.5t29 22t15.5 34.5q7 35 -11.5 47.5t-63.5 11.5q-20 0 -35.5 -4t-26.5 -9t-19.5 -17t-13 -19t-9.5 -25t-6.5 -25.5t-5.5 -28.5z" />
<glyph unicode="&#xe7;" horiz-adv-x="493" d="M79 282q12 67 29 114.5t36 74.5t45.5 42t50.5 19.5t57 4.5q144 0 239 -33l-13 -86q-95 6 -184 6q-19 0 -29 -0.5t-24 -5.5t-21.5 -15t-16.5 -27.5t-16 -45t-14 -67.5q-6 -50 -8 -81t9 -47.5t26.5 -22t42.5 -5.5q41 0 89.5 2t76.5 5l28 2l-14 -88q-20 -9 -43.5 -16 t-39.5 -10.5t-45.5 -5t-39 -2t-45 0t-40.5 0.5q-81 0 -120.5 71t-15.5 216zM128 -179l10 60l46 15q22 8 29 21.5t12 44.5h94q-12 -77 -41 -109t-93 -32h-57z" />
<glyph unicode="&#xe8;" horiz-adv-x="527" d="M79 300q10 53 21.5 88t30.5 66.5t47.5 49t70 27.5t100.5 10q46 0 82.5 -7t67 -23.5t46 -47.5t12.5 -75q-3 -50 -22 -87t-47 -57.5t-62.5 -32.5t-68 -15t-65 -1.5t-52 5.5t-29.5 8q-10 -60 6.5 -81t70.5 -22q92 -4 217 17l-17 -100q-126 -38 -277 -29q-187 9 -132 307z M209 740h119l77 -139h-91zM222 300q4 0 10.5 -1t24.5 -2t35 -0.5t38.5 4.5t37.5 11.5t29 22t16 34.5q7 35 -11.5 47.5t-62.5 11.5q-20 0 -36 -4t-26.5 -9t-19.5 -17t-13.5 -19t-9.5 -25t-6.5 -25.5t-5.5 -28.5z" />
<glyph unicode="&#xe9;" horiz-adv-x="527" d="M79 300q10 53 21.5 88t30.5 66.5t47.5 49t70 27.5t100.5 10q46 0 82.5 -7t67 -23.5t46 -47.5t12.5 -75q-3 -50 -22 -87t-47 -57.5t-62.5 -32.5t-68 -15t-65 -1.5t-52 5.5t-29.5 8q-10 -60 6.5 -81t70.5 -22q92 -4 217 17l-17 -100q-126 -38 -277 -29q-187 9 -132 307z M222 300q4 0 10.5 -1t24.5 -2t35 -0.5t38.5 4.5t37.5 11.5t29 22t16 34.5q7 35 -11.5 47.5t-62.5 11.5q-20 0 -36 -4t-26.5 -9t-19.5 -17t-13.5 -19t-9.5 -25t-6.5 -25.5t-5.5 -28.5zM314 601l113 139h122l-144 -139h-91z" />
<glyph unicode="&#xea;" horiz-adv-x="527" d="M79 300q10 53 21.5 88t30.5 66.5t47.5 49t70 27.5t100.5 10q46 0 82.5 -7t67 -23.5t46 -47.5t12.5 -75q-3 -50 -22 -87t-47 -57.5t-62.5 -32.5t-68 -15t-65 -1.5t-52 5.5t-29.5 8q-10 -60 6.5 -81t70.5 -22q92 -4 217 17l-17 -100q-126 -38 -277 -29q-187 9 -132 307z M206 601l129 135h104l75 -135h-90l-43 65l-72 -65h-103zM222 300q4 0 10.5 -1t24.5 -2t35 -0.5t38.5 4.5t37.5 11.5t29 22t16 34.5q7 35 -11.5 47.5t-62.5 11.5q-20 0 -36 -4t-26.5 -9t-19.5 -17t-13.5 -19t-9.5 -25t-6.5 -25.5t-5.5 -28.5z" />
<glyph unicode="&#xeb;" horiz-adv-x="527" d="M79 300q10 53 21.5 88t30.5 66.5t47.5 49t70 27.5t100.5 10q46 0 82.5 -7t67 -23.5t46 -47.5t12.5 -75q-3 -50 -22 -87t-47 -57.5t-62.5 -32.5t-68 -15t-65 -1.5t-52 5.5t-29.5 8q-10 -60 6.5 -81t70.5 -22q92 -4 217 17l-17 -100q-126 -38 -277 -29q-187 9 -132 307z M183 660q4 24 24 41t44.5 17t38.5 -16.5t10.5 -41t-23.5 -42t-44.5 -17.5t-39 17.5t-10.5 41.5zM222 300q4 0 10.5 -1t24.5 -2t35 -0.5t38.5 4.5t37.5 11.5t29 22t16 34.5q7 35 -11.5 47.5t-62.5 11.5q-20 0 -36 -4t-26.5 -9t-19.5 -17t-13.5 -19t-9.5 -25t-6.5 -25.5 t-5.5 -28.5zM438 660q4 24 24 41t44.5 17t38.5 -16.5t10.5 -41t-23.5 -42t-44.5 -17.5t-39 17.5t-10.5 41.5z" />
<glyph unicode="&#xec;" horiz-adv-x="226" d="M38 0l84 531h140l-84 -531h-140zM51 736h118l78 -138h-91z" />
<glyph unicode="&#xed;" horiz-adv-x="226" d="M38 0l84 531h140l-84 -531h-140zM155 598l113 138h122l-144 -138h-91z" />
<glyph unicode="&#xee;" horiz-adv-x="226" d="M38 0l84 531h140l-84 -531h-140zM46 598l129 135h104l75 -135h-90l-43 65l-72 -65h-103z" />
<glyph unicode="&#xef;" horiz-adv-x="226" d="M21 657q3 16 13 29.5t25 21t31 7.5q24 0 38.5 -17t10.5 -41t-24 -41.5t-44 -17.5t-38.5 17.5t-11.5 41.5zM38 0l84 531h140l-84 -531h-140zM276 657q2 12 8.5 22.5t16 18.5t21 12.5t23.5 4.5q24 0 38.5 -17t10.5 -41t-24 -41.5t-44 -17.5t-38.5 17.5t-11.5 41.5z" />
<glyph unicode="&#xf0;" horiz-adv-x="539" d="M70 274q22 135 75 196t153 61h57q59 0 74 -10q-8 61 -42 97l-122 -53l-19 57l77 33q-42 16 -123 13l18 115q165 0 247 -60l98 43l21 -58l-73 -31q88 -121 39 -432q-22 -136 -77 -190.5t-150 -54.5h-109q-66 0 -104 36t-44.5 96.5t4.5 141.5zM210 261q-11 -55 -6.5 -84 t16 -38t37.5 -9h64q25 0 39.5 8t27.5 37t22 86q15 87 6 114t-53 27h-60q-39 0 -59 -28t-34 -113z" />
<glyph unicode="&#xf1;" horiz-adv-x="550" d="M46 0l84 531h112l19 -57q36 24 53 33.5t52.5 21t73.5 11.5q159 0 129 -186l-56 -354h-140l56 356q11 72 -47 72q-17 0 -31.5 -2t-27 -5.5t-25.5 -9.5t-25 -13t-27 -16l-60 -382h-140zM210 655q74 70 131 70q25 -1 54.5 -18t45.5 -17q23 -1 54.5 12t45.5 26l15 -60 q-24 -21 -38.5 -32.5t-39.5 -23.5t-47 -12q-26 1 -57.5 18t-48.5 17q-20 0 -38.5 -5.5t-28.5 -11t-33 -18.5z" />
<glyph unicode="&#xf2;" horiz-adv-x="557" d="M77 272q13 82 33.5 133t55.5 81t80.5 41t115.5 11q132 0 178 -70.5t22 -223.5q-12 -75 -31 -122t-52 -76t-79 -40t-117 -11q-134 0 -181 66t-25 211zM215 736h119l77 -138h-91zM217 258q-6 -41 -6.5 -68t3.5 -43.5t16 -25t26.5 -11t39.5 -2.5q32 0 49.5 3.5t33.5 19 t25 45t18 82.5q9 54 10 85.5t-8.5 50.5t-27 25t-50.5 6t-52 -5.5t-34 -24t-24 -50t-19 -87.5z" />
<glyph unicode="&#xf3;" horiz-adv-x="557" d="M77 272q13 82 33.5 133t55.5 81t80.5 41t115.5 11q132 0 178 -70.5t22 -223.5q-12 -75 -31 -122t-52 -76t-79 -40t-117 -11q-134 0 -181 66t-25 211zM217 258q-6 -41 -6.5 -68t3.5 -43.5t16 -25t26.5 -11t39.5 -2.5q32 0 49.5 3.5t33.5 19t25 45t18 82.5q9 54 10 85.5 t-8.5 50.5t-27 25t-50.5 6t-52 -5.5t-34 -24t-24 -50t-19 -87.5zM324 598l112 138h123l-144 -138h-91z" />
<glyph unicode="&#xf4;" horiz-adv-x="557" d="M77 272q13 82 33.5 133t55.5 81t80.5 41t115.5 11q132 0 178 -70.5t22 -223.5q-12 -75 -31 -122t-52 -76t-79 -40t-117 -11q-134 0 -181 66t-25 211zM210 598l129 135h104l75 -135h-90l-43 65l-72 -65h-103zM217 258q-6 -41 -6.5 -68t3.5 -43.5t16 -25t26.5 -11 t39.5 -2.5q32 0 49.5 3.5t33.5 19t25 45t18 82.5q9 54 10 85.5t-8.5 50.5t-27 25t-50.5 6t-52 -5.5t-34 -24t-24 -50t-19 -87.5z" />
<glyph unicode="&#xf5;" horiz-adv-x="557" d="M77 272q13 82 33.5 133t55.5 81t80.5 41t115.5 11q132 0 178 -70.5t22 -223.5q-12 -75 -31 -122t-52 -76t-79 -40t-117 -11q-134 0 -181 66t-25 211zM203 653q75 69 132 69q20 0 37.5 -8.5t33 -17t29.5 -8.5q22 -1 53.5 12t46.5 25l14 -59q-23 -21 -37.5 -32.5 t-39.5 -23.5t-48 -12q-25 0 -56.5 17.5t-49.5 17.5q-19 -1 -37.5 -6.5t-29 -10.5t-32.5 -18zM217 258q-6 -41 -6.5 -68t3.5 -43.5t16 -25t26.5 -11t39.5 -2.5q32 0 49.5 3.5t33.5 19t25 45t18 82.5q9 54 10 85.5t-8.5 50.5t-27 25t-50.5 6t-52 -5.5t-34 -24t-24 -50 t-19 -87.5z" />
<glyph unicode="&#xf6;" horiz-adv-x="557" d="M77 272q13 82 33.5 133t55.5 81t80.5 41t115.5 11q132 0 178 -70.5t22 -223.5q-12 -75 -31 -122t-52 -76t-79 -40t-117 -11q-134 0 -181 66t-25 211zM191 657q4 24 24 41t44.5 17t39 -17t10.5 -41t-24 -41.5t-44 -17.5t-39 17.5t-11 41.5zM217 258q-6 -41 -6.5 -68 t3.5 -43.5t16 -25t26.5 -11t39.5 -2.5q32 0 49.5 3.5t33.5 19t25 45t18 82.5q9 54 10 85.5t-8.5 50.5t-27 25t-50.5 6t-52 -5.5t-34 -24t-24 -50t-19 -87.5zM446 657q4 24 24 41t44.5 17t39 -17t10.5 -41t-24 -41.5t-44 -17.5t-39 17.5t-11 41.5z" />
<glyph unicode="&#xf7;" horiz-adv-x="497" d="M84 294l19 118h422l-19 -118h-422zM210 155l11 67q3 24 28 24h74q24 0 20 -24l-11 -67q-4 -23 -28 -23h-73q-11 0 -17 6t-4 17zM262 478l10 67q3 25 28 25h74q24 0 20 -25l-11 -67q-3 -23 -28 -23h-73q-11 0 -16.5 6.5t-3.5 16.5z" />
<glyph unicode="&#xf8;" horiz-adv-x="559" d="M27 0l66 69q-36 62 -14 202q13 82 33 133t55 80.5t80.5 40.5t116.5 11q96 0 145 -31l25 26h77l-64 -66q41 -68 16 -220q-12 -76 -30.5 -123t-52 -76t-79.5 -40t-117 -11q-103 0 -154 34l-28 -29h-75zM218 196l195 210q-16 18 -66 18q-44 0 -65.5 -11.5t-36 -46 t-26.5 -108.5q-7 -43 -1 -62zM227 128q15 -20 70 -20q33 0 50 3.5t33 19t25 45t18 82.5q10 57 2 82z" />
<glyph unicode="&#xf9;" horiz-adv-x="549" d="M66 178l56 353h140l-56 -356q-7 -40 5.5 -55.5t41.5 -15.5q28 0 50.5 5t41.5 14.5t44 26.5l60 381h140l-85 -531h-112l-18 56q-49 -33 -86.5 -49t-92.5 -16q-159 0 -129 187zM215 736h119l77 -138h-91z" />
<glyph unicode="&#xfa;" horiz-adv-x="549" d="M66 178l56 353h140l-56 -356q-7 -40 5.5 -55.5t41.5 -15.5q28 0 50.5 5t41.5 14.5t44 26.5l60 381h140l-85 -531h-112l-18 56q-49 -33 -86.5 -49t-92.5 -16q-159 0 -129 187zM320 598l113 138h122l-144 -138h-91z" />
<glyph unicode="&#xfb;" horiz-adv-x="549" d="M66 178l56 353h140l-56 -356q-7 -40 5.5 -55.5t41.5 -15.5q28 0 50.5 5t41.5 14.5t44 26.5l60 381h140l-85 -531h-112l-18 56q-49 -33 -86.5 -49t-92.5 -16q-159 0 -129 187zM212 598l129 135h104l75 -135h-90l-43 65l-72 -65h-103z" />
<glyph unicode="&#xfc;" horiz-adv-x="549" d="M66 178l56 353h140l-56 -356q-7 -40 5.5 -55.5t41.5 -15.5q28 0 50.5 5t41.5 14.5t44 26.5l60 381h140l-85 -531h-112l-18 56q-49 -33 -86.5 -49t-92.5 -16q-159 0 -129 187zM189 657q4 24 24 41t44.5 17t38.5 -17t10.5 -41t-23.5 -41.5t-44.5 -17.5t-39 17.5t-10.5 41.5 zM444 657q4 24 24 41t44.5 17t38.5 -17t10.5 -41t-23.5 -41.5t-44.5 -17.5t-39 17.5t-10.5 41.5z" />
<glyph unicode="&#xfd;" horiz-adv-x="563" d="M84 531h145l33 -372q4 -36 51 -39l135 301q18 43 25 111h130q15 -71 -24 -157l-171 -375q-30 -66 -65.5 -117t-67 -80t-68 -49.5t-61.5 -28.5t-54 -13v98q61 33 100.5 80t71.5 110q-58 0 -94.5 33.5t-43.5 101.5zM314 594l113 138h122l-144 -138h-91z" />
<glyph unicode="&#xfe;" horiz-adv-x="554" d="M10 -270l167 1052h140l-49 -309q33 24 80 42.5t90 18.5q57 0 91.5 -38t42 -101.5t-3.5 -144.5q-7 -47 -15.5 -80.5t-24.5 -70.5t-38 -59.5t-57.5 -37.5t-81.5 -15q-37 0 -80 9.5t-74 27.5l-47 -294h-140zM212 116q40 -16 117 -19q17 0 30.5 6.5t26.5 23t23.5 50 t17.5 82.5q9 58 5 93t-16 49.5t-35 13.5q-68 -2 -128 -35z" />
<glyph unicode="&#xff;" horiz-adv-x="563" d="M84 531h145l33 -372q4 -36 51 -39l135 301q18 43 25 111h130q15 -71 -24 -157l-171 -375q-30 -66 -65.5 -117t-67 -80t-68 -49.5t-61.5 -28.5t-54 -13v98q61 33 100.5 80t71.5 110q-58 0 -94.5 33.5t-43.5 101.5zM184 642q4 24 24 41t44.5 17t39 -17t10.5 -41t-24 -41.5 t-44 -17.5q-16 0 -28 8t-18 21.5t-4 29.5zM439.5 642q3.5 24 23.5 41t44.5 17t39 -17t10.5 -41t-24 -41.5t-44 -17.5t-38.5 17.5t-11 41.5z" />
<glyph unicode="&#x152;" horiz-adv-x="1038" d="M87 375q9 56 21 102.5t25 81.5t30.5 62t34.5 46t40 32t43 20.5t48.5 11.5t51 5t55.5 1q65 0 111 -12t75 -44q43 56 137 51q246 -7 309 -16l-18 -116h-279q-33 0 -45 -14.5t-16 -41.5l-17 -112l282 -10l-17 -115l-286 -10l-19 -116q-1 -8 -1.5 -14.5t1 -11.5t2.5 -9 t5 -6.5t6 -4.5t7 -3t7.5 -2t9 -1h8.5h9h268l-18 -115q-12 -2 -35 -3.5t-51 -3t-58.5 -3t-58.5 -3t-51 -2.5t-36 -1l-14 -1q-34 -2 -66.5 9.5t-50.5 37.5q-39 -28 -88.5 -38t-120.5 -10q-40 0 -70 3.5t-61 13.5t-52 27t-38.5 46t-24.5 68t-6 95t12 126zM227 361 q-10 -62 -11.5 -102t3.5 -67.5t22 -41.5t40.5 -19.5t61.5 -5.5q35 0 60 5.5t46.5 20.5t36.5 42t27.5 68t21.5 100q11 68 11.5 113.5t-5.5 72t-25 40t-39.5 17.5t-56.5 4q-26 0 -43 -1.5t-36 -6.5t-31 -15.5t-25.5 -28.5t-22.5 -44.5t-18 -63.5t-17 -87z" />
<glyph unicode="&#x153;" horiz-adv-x="873" d="M71 273q13 82 33 133t55.5 80.5t80.5 40.5t116 11q110 0 156 -53q57 55 185 56q46 0 82.5 -7t67 -23.5t46 -47.5t12.5 -75q-3 -50 -22 -87t-46.5 -57.5t-62 -32.5t-68.5 -15t-65 -1.5t-52 5.5t-30 8q-10 -60 6.5 -81.5t70.5 -21.5q118 0 217 17l-16 -100 q-127 -38 -277 -29q-69 2 -100 48q-57 -46 -184 -46q-133 0 -180.5 66.5t-24.5 211.5zM211 258q-7 -41 -7.5 -68t3.5 -43.5t16.5 -25t27 -11t38.5 -2.5q33 0 50 3.5t33 19t25.5 45t18.5 82.5q8 54 9 85.5t-8 50.5t-26.5 25t-50.5 6q-44 0 -66 -12t-36.5 -46t-26.5 -109z M570 300q4 0 10.5 -1t25 -2t35.5 -0.5t38 4.5t37.5 11.5t29 22t16.5 34.5q6 35 -12 47.5t-63 12.5q-15 -1 -28.5 -3.5t-23 -5.5t-18 -11t-14 -12.5t-10.5 -16.5t-7.5 -17.5t-6 -20t-5 -20t-4.5 -22.5z" />
<glyph unicode="&#x178;" horiz-adv-x="656" d="M120 732h151l84 -350l209 350h160l-321 -505l-36 -227h-140l36 227zM255 854q4 24 24 41t44.5 17t38.5 -17t10.5 -41t-23.5 -41.5t-44.5 -17.5t-39 17.5t-10.5 41.5zM510 854q4 24 24 41t44.5 17t38.5 -17t10.5 -41t-23.5 -41.5t-44.5 -17.5t-39 17.5t-10.5 41.5z" />
<glyph unicode="&#x2c6;" horiz-adv-x="317" d="M50 531l129 135h104l76 -135h-91l-42 65l-73 -65h-103z" />
<glyph unicode="&#x2dc;" horiz-adv-x="421" d="M122 586q75 70 132 70q24 -1 54 -18t46 -17q22 -1 53.5 12t46.5 26l14 -60q-23 -21 -37.5 -32.5t-40 -23.5t-47.5 -12q-25 1 -56.5 18t-49.5 17q-12 0 -23.5 -2t-19 -4.5t-19.5 -8.5t-17.5 -9t-20.5 -11z" />
<glyph unicode="&#x2000;" horiz-adv-x="468" />
<glyph unicode="&#x2001;" horiz-adv-x="936" />
<glyph unicode="&#x2002;" horiz-adv-x="468" />
<glyph unicode="&#x2003;" horiz-adv-x="936" />
<glyph unicode="&#x2004;" horiz-adv-x="312" />
<glyph unicode="&#x2005;" horiz-adv-x="234" />
<glyph unicode="&#x2006;" horiz-adv-x="156" />
<glyph unicode="&#x2007;" horiz-adv-x="156" />
<glyph unicode="&#x2008;" horiz-adv-x="117" />
<glyph unicode="&#x2009;" horiz-adv-x="187" />
<glyph unicode="&#x200a;" horiz-adv-x="52" />
<glyph unicode="&#x2010;" horiz-adv-x="353" d="M61 231l18 118h314l-18 -118h-314z" />
<glyph unicode="&#x2011;" horiz-adv-x="353" d="M61 231l18 118h314l-18 -118h-314z" />
<glyph unicode="&#x2012;" horiz-adv-x="353" d="M61 231l18 118h314l-18 -118h-314z" />
<glyph unicode="&#x2013;" horiz-adv-x="453" d="M59 228l20 119h473l-20 -119h-473z" />
<glyph unicode="&#x2014;" horiz-adv-x="736" d="M61 230l19 119h696l-19 -119h-696z" />
<glyph unicode="&#x2018;" horiz-adv-x="258" d="M142 512l21 132q5 34 22 55.5t38 28.5t41 9.5t33 0.5l13 -2l-9 -56q-32 1 -38 -32l-3 -21h12q11 0 17.5 -6.5t4.5 -19.5l-14 -89q-5 -29 -32 -29h-86q-24 0 -20 29z" />
<glyph unicode="&#x2019;" horiz-adv-x="258" d="M143 486l9 56q14 0 23 6.5t11 12t3 13.5l4 21h-12q-11 0 -17.5 6.5t-4.5 19.5l15 89q4 29 30 29h86q26 0 21 -29l-21 -132q-6 -34 -23 -55.5t-37.5 -28.5t-40 -9.5t-33.5 -0.5z" />
<glyph unicode="&#x201a;" horiz-adv-x="258" d="M49 -109l8 55q15 0 23.5 7t10.5 12.5t4 13.5l3 21h-11q-12 0 -18 6.5t-4 19.5l14 89q5 29 31 29h86q25 0 21 -29l-22 -132q-5 -34 -22 -55.5t-37.5 -29t-40.5 -9.5t-33 0z" />
<glyph unicode="&#x201c;" horiz-adv-x="423" d="M137 511l20 132q6 34 23 55.5t37.5 28.5t40 9.5t33.5 0.5l13 -3l-8 -55q-32 1 -38 -32l-3 -21h11q12 0 18 -6.5t4 -19.5l-14 -89q-4 -29 -31 -29h-86q-25 0 -20 29zM314 511l20 132q6 34 23 55.5t37.5 28.5t40 9.5t33.5 0.5l13 -3l-8 -55q-32 1 -38 -32l-3 -21h11 q12 0 18 -6.5t4 -19.5l-14 -89q-4 -29 -31 -29h-86q-25 0 -20 29z" />
<glyph unicode="&#x201d;" horiz-adv-x="424" d="M137 485l9 56q14 0 23 6.5t11 12t3 13.5l4 21h-12q-11 0 -17.5 6.5t-3.5 19.5l14 89q4 29 30 29h87q25 0 20 -29l-21 -132q-5 -34 -22.5 -55.5t-38 -29t-40 -9.5t-32.5 0zM314 485l9 56q14 0 23 6.5t11 12t3 13.5l4 21h-12q-11 0 -17.5 6.5t-3.5 19.5l14 89q4 29 30 29 h87q25 0 20 -29l-21 -132q-5 -34 -22.5 -55.5t-38 -29t-40 -9.5t-32.5 0z" />
<glyph unicode="&#x201e;" horiz-adv-x="423" d="M43 -109l9 56q14 0 22.5 6.5t10.5 12t4 14.5l3 20h-11q-12 0 -18 7t-4 19l14 90q5 28 31 28h86q25 0 21 -28l-22 -133q-5 -33 -22 -55t-37.5 -29t-40.5 -9.5t-33 -0.5zM220 -109l9 56q14 0 22.5 6.5t10.5 12t4 14.5l3 20h-11q-12 0 -18 7t-4 19l14 90q5 28 31 28h86 q25 0 21 -28l-22 -133q-5 -33 -22 -55t-37.5 -29t-40.5 -9.5t-33 -0.5z" />
<glyph unicode="&#x2022;" horiz-adv-x="307" d="M115 322l18 118q3 16 13 25.5t26 9.5h113q34 0 29 -35l-18 -118q-5 -32 -41 -32h-113q-15 0 -22 8.5t-5 23.5z" />
<glyph unicode="&#x2026;" horiz-adv-x="783" d="M133 23l15 90q3 25 28 25h86q25 0 21 -25l-15 -90q-4 -23 -28 -23h-86q-11 0 -16.5 6.5t-4.5 16.5zM405 23l15 90q3 25 28 25h86q25 0 21 -25l-15 -90q-4 -23 -28 -23h-86q-11 0 -16.5 6.5t-4.5 16.5zM677 23l15 90q3 25 28 25h86q25 0 21 -25l-15 -90q-4 -23 -28 -23 h-86q-11 0 -16.5 6.5t-4.5 16.5z" />
<glyph unicode="&#x202f;" horiz-adv-x="187" />
<glyph unicode="&#x2039;" horiz-adv-x="288" d="M20 354l238 203l66 -77l-153 -129l111 -130l-84 -75z" />
<glyph unicode="&#x203a;" horiz-adv-x="358" d="M94 224l153 131l-110 129l86 73l175 -205l-240 -206z" />
<glyph unicode="&#x205f;" horiz-adv-x="234" />
<glyph unicode="&#x20ac;" horiz-adv-x="704" d="M56 250l11 68l79 8l10 68l-75 8l10 64l78 10q2 16 4.5 27.5t8 34t12.5 39t19 38.5t26.5 38.5t36 33.5t47 28t59.5 18t74 7q28 0 72 -4t96.5 -12.5t87.5 -19.5l-16 -102q-145 14 -227 14q-28 0 -50 -3.5t-37.5 -9t-27 -17t-18.5 -21t-12.5 -27t-8 -29.5t-6.5 -33l233 -8 l-11 -68l-235 -6l-10 -68l232 -8l-11 -68q-15 -1 -39.5 -1.5t-76.5 -1.5t-86 -2.5t-33 -2.5q-5 -24 -3 -43t5 -33t13 -23.5t19.5 -15.5t24 -9.5t28 -4.5t31.5 -1q40 0 99 5.5t98 11.5l39 5l-17 -100q-100 -40 -271 -40q-15 0 -29 1t-32.5 4t-34 9t-34 15.5t-31 22.5 t-25 31.5t-17.5 42.5t-7.5 54.5t4.5 67.5z" />
<glyph unicode="&#x2122;" horiz-adv-x="628" d="M38 652l12 80h281l-12 -80h-95l-42 -269h-91l42 269h-95zM293 383l93 349h93l26 -201l83 201h99l-13 -349h-91l11 184l-67 -184h-81l-17 184l-44 -184h-92z" />
<glyph unicode="&#xe000;" horiz-adv-x="530" d="M0 0v530h530v-530h-530z" />
<glyph unicode="&#xfb03;" horiz-adv-x="1007" d="M82 424l14 90l101 17l14 89q5 27 15 52t29 49.5t51.5 39.5t74.5 15q78 0 136 -24l-14 -83h-88q-12 0 -20.5 -2t-14.5 -4t-11.5 -9.5t-8 -11t-5.5 -15.5l-4 -16t-4 -20l-11 -60h224l6 40q14 94 82.5 153.5t168.5 61.5q56 1 128 -5.5t100 -18.5l-13 -83l-182 1 q-127 0 -145 -115l-5 -34l344 -10l-82 -521h-140l67 424h-207l-67 -424h-140l67 424h-223l-67 -424h-140l67 424h-97z" />
<glyph unicode="&#xfb04;" horiz-adv-x="1099" d="M82 424l14 90l102 17l14 89q4 27 14 52t29 49.5t51.5 39.5t75.5 15q77 0 135 -24l-14 -83h-88q-20 1 -32 -4t-19 -17.5t-10 -23t-7 -33.5l-11 -60h226l7 45q17 109 75.5 159t154.5 51l298 -2l-91 -573q-7 -59 -0.5 -76.5t30.5 -27.5q56 -21 63 -21l-13 -86h-99 q-75 0 -107.5 44t-16.5 145l77 490l-130 1q-45 0 -68 -22t-33 -82l-7 -45h120l-17 -107h-121l-67 -424h-140l67 424h-225l-67 -424h-140l67 424h-97z" />
</font>
</defs>
</svg>
