<?xml version="1.0" standalone="no"?>
<!DOCTYPE svg PUBLIC "-//W3C//DTD SVG 1.1//EN" "http://www.w3.org/Graphics/SVG/1.1/DTD/svg11.dtd" >
<svg xmlns="http://www.w3.org/2000/svg">
<metadata></metadata>
<defs>
<font id="architects_daughterregular" horiz-adv-x="194" >
<font-face units-per-em="1024" ascent="819" descent="-205" />
<missing-glyph horiz-adv-x="512" />
<glyph horiz-adv-x="1024" />
<glyph horiz-adv-x="1024" />
<glyph unicode="&#xd;" horiz-adv-x="865" />
<glyph unicode=" "  horiz-adv-x="512" />
<glyph unicode="&#x09;" horiz-adv-x="512" />
<glyph unicode="&#xa0;" horiz-adv-x="512" />
<glyph unicode="!" horiz-adv-x="173" d="M79 84q10 0 23 -0.5t25 -3.5t20 -9.5t8 -18.5q-8 -27 -25 -41.5t-35.5 -18t-34.5 2.5t-22 18.5t2.5 31t38.5 39.5zM138 1126q-3 -12 -4.5 -50.5t-2 -94t-0.5 -123.5t-0.5 -139t-1.5 -140.5t-3 -127.5t-5.5 -100.5t-9.5 -59.5h-84q0 103 4.5 206.5t9.5 207t9.5 207.5 t4.5 209z" />
<glyph unicode="&#x22;" horiz-adv-x="303" d="M184 777q0 16 -1 41.5t2 52.5t12.5 50t29.5 33l22 -20v-249l20 -42q-2 -2 -7.5 -5.5t-12 -6.5t-13 -5.5t-9.5 -2.5q-13 0 -21.5 11t-13 28t-6.5 36.5t-2.5 36.5t0 29t0.5 13zM69 768q0 16 -1 41.5t2 52.5t12 50t30 33l21 -20v-249l21 -42q-2 -2 -8 -5.5t-12.5 -7 t-12.5 -6t-9 -2.5q-14 0 -22 11t-13 28t-7 36.5t-2 37t0.5 29.5t0.5 13z" />
<glyph unicode="#" horiz-adv-x="816" d="M108 424q0 16 8.5 23.5t21.5 10.5t28 2t29 -3.5t24.5 -5t13.5 -2.5v111q-8 0 -28.5 2.5t-43.5 6t-44 7t-29 5.5q-17 9 -18 20.5t18 21.5q8 2 29 5t44 6.5t43.5 6t28.5 2.5v145q0 9 5 13.5t11.5 6.5t13.5 2.5t12 0.5t12 -0.5t13.5 -2.5t11 -6.5t4.5 -13.5v-137l125 13v166 h63l41 -166h220q0 -27 -14 -41.5t-35 -20.5t-47.5 -5.5t-50.5 3.5t-44 6.5t-29 3.5v-128q37 0 73 3.5l72 7l72 7t74 3.5v-26q0 -13 -19.5 -22t-49 -15t-65 -9.5t-68 -6.5t-57 -5t-32.5 -4q-2 -40 -4 -69t-11.5 -47.5t-30 -27.5t-58.5 -9v124q-67 5 -95 -2.5t-33.5 -22.5 t2.5 -33.5t12 -35.5t-4.5 -29.5t-47.5 -14.5h-11t-10 1q-2 50 -14 80t-28.5 46.5t-34.5 22.5t-33.5 8.5t-25.5 5t-10 12.5zM424 603q-10 0 -28 -2t-36 -5t-31 -7t-13 -8v-132q28 0 54 0.5t46.5 9t33 27t12.5 54.5q0 21 -1.5 33.5t-5.5 19t-11.5 8.5t-19.5 2z" />
<glyph unicode="$" horiz-adv-x="713" d="M319 242q4 -10 -14 -15t-41.5 -7t-44.5 -1.5t-24 0.5q-3 1 -5.5 9t-4.5 18t-4 19t-4 11q5 10 26 16t45.5 10t47 5.5t30.5 3.5v166h-29t-60 2t-74 8t-72 17.5t-55 30.5t-22 47q-7 34 4.5 63t34 53.5t53.5 43.5t63.5 33t63 23t52.5 12v290h61l42 -249h249v-52l-227 -32 l-1 -238h283q4 -54 -10.5 -91.5t-39.5 -63.5t-57 -42.5t-62.5 -29.5t-56 -25t-37.5 -28q1 -12 4.5 -41.5t6.5 -62.5t6 -62t5 -41v-13q0 -12 -15 -18.5t-34.5 -10t-38.5 -4.5t-27 -1zM597 466q-9 13 -31 17t-49 1.5t-53.5 -9.5t-42.5 -14l8 -108q17 5 45.5 14.5t55.5 23.5 t47 33t20 42zM114 590q0 -25 15.5 -36t37.5 -14.5t46 -2t40 1.5h14.5h22t21.5 0.5t15 0.5l-21 186q0 2 -9.5 3.5t-15.5 1.5q-24 0 -53 -12.5t-54 -33t-42 -45.5t-17 -50z" />
<glyph unicode="&#x26;" horiz-adv-x="858" d="M131 0q-9 -1 -32 4.5t-45.5 15.5t-37.5 24t-7 30l227 362q-27 45 -44 78.5t-26.5 64t-13.5 62.5t-4 73q4 67 28 121t57 90t70 52.5t67 8.5t48.5 -41.5t15 -97.5t-35 -160.5t-100.5 -229.5q0 -17 17 -41.5t43 -50.5t56.5 -52t59 -46t51.5 -33t32 -13q40 23 65 41.5t42 35 t29.5 32.5t27.5 35t35.5 42.5t54.5 54.5q2 0 9 -3t14.5 -7.5t13.5 -9t6 -6.5q-3 -4 -13 -23t-36.5 -51t-73 -76.5t-122.5 -99.5q62 -31 96 -49t50 -27t19 -11.5t3 -3.5q0 -12 -5.5 -19t-13.5 -10.5t-17.5 -4.5t-18.5 -1q-27 0 -49.5 10.5t-44 23t-43.5 23t-48 10.5 q-39 -20 -86 -44.5t-99 -45t-108 -32.5t-113 -5zM276 374q-14 -15 -37.5 -45.5t-48.5 -67.5t-47 -75.5t-33.5 -69t-8 -48t29.5 -12.5q52 0 96.5 7t86 20.5t83 34.5t87.5 48zM207 695q0 -26 2.5 -48.5t8 -43.5t15 -41.5t23.5 -42.5q32 18 54 59t35.5 89.5t19.5 97t6 81.5 q0 15 1 27.5t-2 21.5t-11 14t-26 5q-35 0 -59 -23.5t-39 -57t-21.5 -71.5t-6.5 -67z" />
<glyph unicode="'" horiz-adv-x="207" d="M104 768q27 9 40 2t15.5 -25.5t-3 -44t-15.5 -53t-22.5 -53t-24.5 -42.5l-60 -4z" />
<glyph unicode="(" horiz-adv-x="381" d="M19 451q0 26 6 66.5t16.5 90t26 103.5t35.5 106.5t43 100t49.5 83.5t55.5 57.5t60 21.5q14 0 25 -2.5t16 -18.5q-48 -68 -89.5 -131.5t-73 -130.5t-49.5 -140t-18 -159q0 -63 20 -121t43.5 -113.5t43.5 -110t20 -111.5q0 -9 -5 -13.5t-12 -7t-14 -3t-11 -0.5 q-35 0 -62.5 27t-48 68.5t-35.5 92.5t-24 99t-13.5 87.5t-4.5 58.5z" />
<glyph unicode=")" horiz-adv-x="450" d="M139 20q21 53 53 98.5t62 91t51.5 94.5t21.5 110q0 100 -23.5 175t-63 136.5t-92.5 115.5t-113 113q0 1 -1 8t-1 12q0 28 14.5 36.5t40.5 8.5q56 0 102 -32.5t82 -84.5t62.5 -117.5t43.5 -131.5t25.5 -126.5t8.5 -102.5q0 -26 -8 -68t-23.5 -89t-37.5 -94.5t-50 -86 t-61.5 -62.5t-71.5 -24q-5 0 -13 7.5t-8 12.5z" />
<glyph unicode="*" horiz-adv-x="650" d="M281 328q-22 -19 -42 -47t-41 -54.5t-46 -45.5t-58 -19q-5 0 -13 8t-8 13q12 22 29.5 54.5t36 69.5t34.5 75t25 71q0 1 0.5 5t0.5 6q0 18 -13 31t-32 24.5t-40 23t-37.5 27.5t-24.5 37.5t0 52.5q31 -1 54 -9t41 -18.5t33 -22.5t30 -20.5t32 -12.5t39 1l103 269 q4 10 12 15.5t18 8t20.5 3t19.5 0.5q0 -39 -6 -74.5t-13.5 -71t-13.5 -71.5t-6 -75q33 0 62.5 6.5t59 15t59 15t61.5 6.5q0 -40 -19 -62t-47 -35t-61 -21.5t-61 -21t-47 -33.5t-19 -59q0 -26 7 -51t15 -50t15 -50t7 -51q0 -22 -18 -30.5t-45 -19.5q-25 12 -35 38.5t-17 55 t-16.5 55t-34.5 38.5z" />
<glyph unicode="+" horiz-adv-x="671" d="M305 62q-2 27 -5 61.5t-7.5 71.5t-12 73t-17.5 65q-26 0 -51.5 -6.5t-51 -14t-52 -14.5t-54.5 -8q-15 0 -28 7t-13 26q0 15 18.5 22.5t46.5 11.5t60 6t60 5t46.5 9t18.5 18v207q0 9 5 13.5t12 7t14.5 3t11.5 0.5q22 0 28.5 -7.5t11.5 -36.5q2 -9 5.5 -33t7 -50.5t6 -50 t3.5 -32.5h274q0 -19 -16.5 -30.5t-43 -17.5t-58 -7.5t-62 -2t-56 -1.5t-38.5 -4q-5 -30 -1 -67t10 -75.5t10.5 -77t0.5 -71.5q-6 -5 -19 -10.5t-26.5 -8t-24 1t-13.5 17.5z" />
<glyph unicode="," horiz-adv-x="228" d="M60 108q8 16 17.5 18.5t23.5 2.5q9 0 18 -2.5t16 -8t9.5 -13.5t-1.5 -19q-7 -16 -18 -35.5t-23.5 -40t-25 -39.5t-21.5 -33q-3 -5 -11.5 -14t-20.5 -17t-25.5 -12t-25.5 1z" />
<glyph unicode="-" horiz-adv-x="397" d="M37 302q0 17 14.5 23.5t29.5 8.5q57 8 111.5 17.5t113.5 15.5q25 0 42.5 -8.5t23 -20t-1.5 -24t-30 -19.5l-240 -25q-8 0 -19 1t-20.5 4.5t-16.5 9.5t-7 17z" />
<glyph unicode="." horiz-adv-x="180" d="M57 -1q-25 3 -28 17.5t5.5 30.5t25 28t30.5 8q26 0 35.5 -11t9.5 -31q0 -15 -7.5 -23.5t-19 -12.5t-25.5 -5t-26 -1z" />
<glyph unicode="/" horiz-adv-x="582" d="M26 52q2 8 24.5 46t58.5 94.5t81.5 127t93 143t93 142t82.5 125t60.5 91t27.5 40.5q10 -6 2 -39t-30 -85.5t-55.5 -119t-74 -138.5t-85.5 -144.5t-90 -137t-87.5 -116t-77.5 -81.5q-9 0 -14 6.5t-7 15.5t-2 17.5v12.5z" />
<glyph unicode="0" horiz-adv-x="808" d="M48 238q3 51 16.5 110.5t36.5 118.5t55.5 113.5t75.5 96.5t96 67t117 25q84 0 145 -32.5t101 -85.5t59 -121.5t19 -141.5q0 -95 -31.5 -167.5t-88.5 -122t-135.5 -75t-172.5 -25.5q-46 0 -99 14t-97.5 43t-72.5 74.5t-24 108.5zM121 229q0 -53 21 -86t55.5 -51.5t77 -25 t86.5 -6.5q172 0 259 89t87 252q3 152 -73 232.5t-220 72.5q-41 7 -78.5 -18.5t-70 -69.5t-59 -100.5t-45.5 -111.5t-29.5 -102.5t-10.5 -74.5z" />
<glyph unicode="1" horiz-adv-x="164" d="M55 665q-2 28 10.5 35.5t29.5 7.5q14 0 26 -3t17 -20l-21 -642q-1 -12 -11.5 -21t-23.5 -12.5t-26.5 -1t-20.5 11.5q1 24 2.5 75t3.5 114.5t4 133.5t4 133.5t3.5 114t2.5 74.5z" />
<glyph unicode="2" horiz-adv-x="733" d="M48 62q42 37 94 93.5t101 120t88 128t54.5 119.5t1.5 93.5t-71 50.5q-36 0 -63.5 -10.5t-50 -26.5t-42 -35t-40.5 -35t-45 -26.5t-55 -10.5q1 41 33.5 80t80 69t103.5 46.5t105.5 11.5t84.5 -35t41 -93q0 -69 -23.5 -137t-60 -132t-82 -122t-88.5 -108q58 -5 116.5 11 t115.5 37t113.5 39.5t112.5 18.5q15 0 28.5 -7t13.5 -26t-13 -32t-33 -21t-43.5 -11.5t-44.5 -5.5t-36.5 -2t-18.5 -1q-11 -2 -39.5 -10.5t-67 -19.5t-83 -22.5t-89 -20.5t-84.5 -14t-68 -3t-41.5 13.5t-4.5 35.5z" />
<glyph unicode="3" horiz-adv-x="651" d="M185 31q71 18 129 47.5t100 64.5t67 71t29.5 66t-12 50.5t-58 23.5t-109 -14.5t-163.5 -63.5l-44 56q24 12 60 29t76 38t80.5 44t74.5 46t57.5 45t29 40t-10.5 31.5t-60 20.5q-55 0 -107 -11.5t-103.5 -25t-103 -24.5t-104.5 -11q0 7 0.5 17t3 20.5t8 19t16.5 12.5 q53 13 111.5 27.5t117 26.5t113.5 18.5t100 3.5t76.5 -18.5t43.5 -46.5q0 -33 -19 -64t-46 -59t-56.5 -52.5t-50.5 -43.5q82 -1 126 -21t57 -51t0.5 -70.5t-42.5 -79.5t-73 -77.5t-90.5 -65.5t-95.5 -42.5t-87 -8.5q-14 0 -27.5 7t-13.5 25z" />
<glyph unicode="4" horiz-adv-x="871" d="M471 244h-90.5t-75 0.5t-75 0.5h-90.5q-8 0 -16.5 1t-16 4t-12 9t-4.5 17q50 64 98 129t92.5 122.5t84.5 102.5t74 68t60.5 19.5t44.5 -42.5t25.5 -118t3.5 -208l276 4q0 -5 -1 -15.5t-4 -21t-7 -18.5t-10 -9l-232 -19q-9 -24 -14 -59t-8 -73.5t-4 -76.5t-1 -69 q-8 0 -24 -3.5t-32.5 -6t-30 -0.5t-16.5 14zM471 602q-27 -37 -66.5 -72.5t-77 -71t-67.5 -72t-38 -75.5q60 -1 121.5 6.5t127.5 14.5v270z" />
<glyph unicode="5" horiz-adv-x="906" d="M156 40q0 26 19.5 48t45.5 22v-22q30 0 68 1t77.5 6.5t77 16.5t66.5 31t47 50.5t18 75.5q0 43 -22.5 68.5t-55.5 38t-71.5 16t-71.5 3.5q-35 0 -67 -10t-63.5 -22t-63 -22t-64.5 -10h-19.5t-20 2.5t-16 8.5t-6.5 19q0 2 0.5 7t0.5 6q2 14 5 43t7 66t8.5 77.5t9 77.5 t7.5 66.5t5 43.5q5 16 16 18.5t25 2.5q24 0 32 -9t8.5 -23.5t-3 -32t-3.5 -33.5q88 0 175 18.5t173 41t172 41.5t174 19q13 0 24 -3t16 -20q-4 -15 -17 -25.5t-42 -20t-79 -20.5t-129 -27.5t-192 -40.5t-267 -59v-160q41 4 92 12t104.5 13t105 3t93.5 -18.5t69.5 -50.5 t33.5 -93q0 -53 -20 -94t-53.5 -72.5t-78 -53t-93 -35.5t-98 -20t-94.5 -6q-35 0 -50 7t-15 33z" />
<glyph unicode="6" horiz-adv-x="803" d="M27 366q0 49 16.5 103t45.5 105.5t68.5 98t86 82t97.5 56t103 20.5q18 0 30 -6.5t10 -36.5q-75 -14 -139.5 -55t-112 -100.5t-74.5 -132t-27 -148.5q0 -19 9 -54t24.5 -69t36.5 -59.5t45 -25.5q20 16 46 42.5t58 56.5t69.5 61t79.5 56t88.5 40.5t96.5 16.5q22 0 39 -10.5 t28.5 -27.5t17.5 -38t6 -41q-11 -80 -49 -138.5t-93 -96.5t-122 -55.5t-135.5 -13.5t-132 29t-112.5 71t-77.5 113.5t-26.5 156.5zM651 334q-25 0 -56 -14t-62.5 -36t-63 -49.5t-59 -54t-49 -49.5t-33.5 -36q46 -8 107 0.5t117 33.5t96.5 65.5t44.5 96.5q0 43 -42 43z" />
<glyph unicode="7" horiz-adv-x="788" d="M570 598q-67 0 -133.5 -4l-133 -8t-133.5 -6t-135 2q-13 6 -17.5 12.5t-4.5 17.5t4.5 18t17.5 13q88 -3 174.5 6.5t172 22.5t170.5 24.5t170 11.5q20 0 31 -11.5t9 -31.5q-56 -62 -111 -137.5t-95.5 -159t-60 -172t-3.5 -176.5l-104 -20q0 4 -1 14.5t-1.5 22t-1 21.5 t-0.5 15q-2 50 9 99.5t29.5 97t41 92.5t43.5 86.5t38 79t25 70.5z" />
<glyph unicode="8" horiz-adv-x="830" d="M28 186q0 32 19.5 62t43.5 57.5t43.5 52.5t19.5 46q0 15 -7 27t-15.5 23t-15.5 23.5t-7 29.5q0 45 20 80.5t53 62.5t75.5 46t86.5 31t86.5 17.5t75.5 5.5q34 0 74 -1.5t74.5 -12.5t57.5 -35.5t23 -69.5q-1 -41 -20.5 -74t-43.5 -59q34 -14 58 -27.5t39 -31.5t22 -44 t7 -63q0 -57 -20.5 -103.5t-55 -83.5t-80 -64.5t-96.5 -45.5t-104 -27t-102 -9q-30 0 -64.5 3.5t-69 11.5t-66.5 22t-56.5 35t-39.5 49t-15 66zM129 200q0 -47 24.5 -75t61 -42.5t79 -18.5t79.5 -4q65 0 127 17t110 51.5t77 86t29 120.5q-15 50 -62.5 74t-111 26.5t-134 -15 t-130.5 -49t-102 -75.5t-47 -96zM212 532q0 -37 24 -56.5t62 -19.5q22 -2 57 4t75 17.5t80.5 27t75 33.5t58 36.5t29.5 36.5q0 22 -10 39t-32 17q-25 12 -64 18.5t-83.5 5.5t-90.5 -10t-84 -28t-64.5 -49t-32.5 -72z" />
<glyph unicode="9" horiz-adv-x="729" d="M309 0q-16 3 -28 19t-12 39q46 28 94.5 61.5t88.5 76t67.5 96t32.5 122.5q-42 2 -86.5 -4t-88.5 -13.5t-87.5 -13.5t-85 -2.5t-79 18.5t-70.5 49q-24 33 -14.5 72.5t42 78.5t81 74t101.5 59t103.5 34t87.5 -1q78 -24 123.5 -69t64.5 -102.5t15 -123t-26 -131t-57.5 -126 t-79 -107t-92 -75.5t-95.5 -31zM155 483q40 -18 89.5 -23t101 -0.5t103.5 17.5t99 32q8 33 4 63.5t-19.5 55t-42 40.5t-63.5 18q-50 0 -99 -10t-87.5 -33.5t-62 -62.5t-23.5 -97z" />
<glyph unicode=":" horiz-adv-x="214" d="M96 158q0 19 17 36t36 17q24 0 34.5 -14t10 -30t-11.5 -29t-32 -12q-8 0 -17 1.5t-17.5 5t-14 10t-5.5 15.5zM56 397q-16 5 -17.5 15.5t6 21t19.5 18.5t23 9q39 -5 52 -23t6.5 -33t-30.5 -21t-59 13z" />
<glyph unicode=";" horiz-adv-x="159" d="M-28 -208q26 88 44.5 148.5t31 100t19.5 61t11 31.5t5 11.5t2 1.5q20 0 27.5 -13t7.5 -29q0 -38 -4.5 -83.5t-19.5 -89.5t-44.5 -81.5t-79.5 -57.5zM33 403q2 24 15.5 35t29 11t28.5 -11.5t14 -33.5q0 -9 -5 -20t-18 -11q-7 0 -17.5 1t-21 4t-18 9t-7.5 16z" />
<glyph unicode="&#x3c;" horiz-adv-x="609" d="M105 286q40 31 93.5 74t109 86t106.5 80.5t87 57.5q9 -1 15 -9t9.5 -19t3 -22.5t-4.5 -18.5l-294 -224q19 -9 53.5 -25.5t77.5 -37.5t89.5 -46t88.5 -53q-2 -2 -5.5 -10.5t-8 -18t-8.5 -18t-6 -8.5q-24 15 -59.5 29t-76.5 29t-83.5 31.5t-79.5 35t-65.5 40t-41.5 47.5z " />
<glyph unicode="=" horiz-adv-x="630" d="M88 217q0 5 8 13t13 8q50 8 87.5 13.5t69 9t60 6.5t59 7t65.5 10t81 15q29 0 37.5 -18.5t3.5 -44.5q-71 0 -125 -10t-104.5 -21.5t-103.5 -21t-121 -9.5q-15 0 -22.5 9t-7.5 34zM105 404q1 2 21 4.5t51 6t70.5 8t81 9t82 9.5t73.5 10q20 6 30.5 0t12.5 -18t-3.5 -25.5 t-17.5 -21.5l-364 -49q-6 0 -15.5 -0.5t-19.5 1t-17.5 6t-9.5 15.5z" />
<glyph unicode="&#x3e;" horiz-adv-x="604" d="M147 60q-42 16 -55 33.5t-5.5 35.5t31.5 37t56 39t68 40.5t67.5 41t54.5 42t29 42.5l-331 124l63 61q41 -29 77.5 -46t70 -27t65.5 -16.5t64 -15t64 -23t67 -39.5q-32 -39 -81.5 -78.5t-104 -80.5t-107.5 -83.5t-93 -86.5z" />
<glyph unicode="?" horiz-adv-x="647" d="M303 42q0 43 44 43q18 5 29.5 -1t17.5 -17t6 -25.5t-6 -25.5t-18 -17t-29 -1q-44 0 -44 44zM159 426q22 13 59.5 33t80 44.5t86.5 52.5t79 57t56.5 57.5t19 54t-32.5 47.5t-98 38q-45 0 -88 -6.5t-85.5 -15t-85 -15t-85.5 -6.5q-7 0 -15 5.5t-15.5 13.5t-13.5 18.5 t-8 19.5q96 31 185.5 42.5t165 6t133.5 -26t90 -53t34.5 -75t-31 -91.5t-108 -103t-197.5 -109l144 -41v-29q-11 -1 -38.5 -2.5t-61.5 -1t-69 4t-61 13t-38.5 25.5t-1.5 42z" />
<glyph unicode="@" horiz-adv-x="1335" d="M34 259q0 81 23 156.5t64.5 141.5t98 120.5t124 93.5t143 60.5t154.5 21.5q74 0 151 -17.5t140 -56t103 -99t40 -145.5q0 -40 -17.5 -69t-46 -47.5t-64.5 -26.5t-73.5 -6.5t-72.5 12.5t-61 30q-76 -64 -135 -89.5t-101 -23.5t-65.5 26t-26.5 58.5t14.5 74t58 73t104 55 t151.5 20.5q36 3 54.5 -6t28 -25.5t14 -36.5t12.5 -37t22.5 -29t44.5 -12q19 0 36 4t30.5 12.5t21.5 22.5t8 34q-6 53 -40 96.5t-83.5 75t-108 50t-112.5 23.5q-105 0 -201.5 -38t-170 -106.5t-117 -162.5t-43.5 -205q15 -45 43.5 -78.5t64 -57t76 -39t80.5 -25t76 -14.5 t64 -8q105 9 200.5 21t182.5 38t165.5 71.5t150.5 120.5q8 4 18.5 3.5t20.5 -4.5t17 -11.5t8 -17.5q-1 -42 -31.5 -77.5t-81.5 -65t-116 -52.5t-135 -40.5t-139 -28.5t-127.5 -17t-100.5 -6t-58 5q-41 0 -92.5 3.5t-104.5 14t-104 28.5t-91 46.5t-64 70t-24 97.5zM718 525 q-4 20 -26.5 24t-52.5 -3t-63 -23t-58 -36.5t-37.5 -44t-2.5 -44.5q10 -13 44 -9t73 22t74.5 47t48.5 67z" />
<glyph unicode="A" horiz-adv-x="820" d="M104 17q-4 -5 -16.5 -4t-25.5 6t-22.5 11.5t-7.5 11.5q10 27 31.5 84t48 128.5t56 150.5t56 150.5t47.5 128t31 84.5q8 23 11 42.5t9.5 33.5t20 21.5t42.5 7.5q36 -21 60 -49.5t42 -62t31.5 -70.5l27 -74t29 -73t38.5 -67q8 -12 23.5 -16t34 -4.5t38 1t35.5 -0.5 t26.5 -8.5t10.5 -22.5q4 -21 -4 -31t-22.5 -13.5t-33 -3t-34 1.5t-25.5 0.5t-8 -6.5q12 -37 26.5 -82t32.5 -90t39 -87t46 -72q-5 -6 -18 -17.5t-26.5 -22t-25 -17.5t-13.5 -4l-176 372l-341 -84q-5 -20 -13.5 -52.5t-20 -69t-26.5 -72t-34 -59.5zM374 728 q-6 -45 -22.5 -93.5t-37 -96t-41.5 -92t-37 -81.5q36 0 72 7.5t70 19t66 24.5t61 24q-3 14 -9 38.5t-14.5 53t-19 59.5t-24 58t-29.5 48t-35 31z" />
<glyph unicode="B" horiz-adv-x="910" d="M81 20q-3 80 -7.5 165t-7 177.5t-1.5 194.5t9 216q-14 0 -25 3t-11 24q0 15 11.5 22.5t31.5 7.5q74 16 154.5 19.5t156 -4.5t141 -26t109.5 -44t61 -59t-3.5 -71.5t-84.5 -81t-182 -86.5q154 -8 250 -30.5t145 -54t55.5 -69t-18 -77t-76 -78.5t-119 -72t-145.5 -58 t-157 -37t-153.5 -8.5t-133.5 27.5zM194 82q202 12 330.5 49t188 82.5t52 91t-78 74t-202 31.5t-320.5 -36zM305 769h-26t-45 -1.5t-45 -6t-25 -13.5l-13 -252q31 0 77 6.5t96.5 18.5t100.5 29t89.5 37t64.5 43t25 47q0 23 -18 38.5t-46 26t-62.5 16t-68 8t-61.5 3t-43 0.5z " />
<glyph unicode="C" horiz-adv-x="906" d="M27 312q0 103 37 197t101.5 165.5t152 114t189.5 42.5q41 0 68.5 -4.5t44.5 -19t24.5 -41.5t7.5 -72q-58 58 -121.5 72.5t-124 -3t-114 -62t-92 -104t-58 -129t-12.5 -136.5q0 -63 22.5 -110.5t61 -78.5t90.5 -46.5t111 -15.5q74 6 130 25t102.5 46t89 58.5t89.5 61.5 q9 0 18.5 -1t17.5 -4t13 -9.5t5 -18.5q-50 -44 -108 -88t-122.5 -78.5t-135 -55t-144.5 -18.5q-66 0 -128 22.5t-110 64t-76.5 99t-28.5 127.5z" />
<glyph unicode="D" horiz-adv-x="830" d="M48 797h17t26.5 -2.5t25 -8.5t14.5 -18q27 9 70 17t95 11.5t109.5 2t113.5 -11t106.5 -28.5t89 -50t61 -75t22.5 -105q5 -55 -17.5 -108.5t-64.5 -103.5t-99 -95t-120.5 -82t-130 -65.5t-126.5 -45t-110.5 -20.5t-81.5 8v780zM714 519q-7 61 -41 101.5t-84 64t-110.5 32 t-120.5 6.5t-114 -12.5t-91 -25.5v-596q41 0 98.5 17t120 47t124 71.5t110 89t78.5 100t30 105.5z" />
<glyph unicode="E" horiz-adv-x="757" d="M43 798q26 -7 71.5 -8.5t100 -0.5t114 3t113 2t97.5 -3.5t69 -12.5v-62q-34 -5 -93 -6t-126 -1.5t-134 -4t-117 -14.5q-9 -41 -13 -68.5t-5.5 -48t-1 -38.5t2 -38.5t3 -47.5t1.5 -66q64 0 124.5 6.5t120 15t119.5 15t123 6.5v-68l-478 -60l7 -205q94 0 170 5.5 t144.5 11.5t135.5 11.5t142 5.5q0 -11 -6 -26.5t-16 -28t-22.5 -19t-24.5 2.5q-69 -8 -152.5 -15.5t-169 -15t-165 -14t-139.5 -11.5z" />
<glyph unicode="F" horiz-adv-x="886" d="M118 208q-45 6 -59.5 16t-9 24t25.5 32t44 41q0 54 -10 106t-22.5 103.5t-22.5 103t-10 104.5q0 32 13 43t45 11q18 0 25.5 -6.5t10 -16.5t3 -21.5t3.5 -21.5t12 -16.5t28 -6.5q84 1 167.5 14t167 26.5t167 22.5t169.5 2q1 -24 5 -41.5t3.5 -29t-8.5 -15.5t-32 0 q-25 -1 -66.5 -2.5t-92 -4t-107 -6t-111.5 -8.5t-105 -12t-88 -16.5t-61 -21t-23 -26.5q0 -7 1 -27t3 -45t5.5 -52.5t8 -50t10.5 -37.5t13 -15q71 0 144 12t146.5 27t146.5 27t145 12q2 0 1.5 -9t-1.5 -20.5t-1.5 -21t1.5 -9.5q-31 -17 -83 -29t-113 -20.5t-124.5 -15.5 t-117.5 -15.5t-93 -19.5t-50 -27l-14 -245q-8 -8 -18.5 -10.5t-22 -2t-24 1.5t-24.5 1v214v0z" />
<glyph unicode="G" horiz-adv-x="886" d="M620 168q-36 -25 -78 -54.5t-87.5 -54.5t-93 -41.5t-95.5 -16.5t-91.5 19.5t-76.5 52.5t-52 76.5t-19 91.5q4 66 21.5 135t47 133t71.5 120t95.5 97.5t118.5 65t141 22.5q13 0 29 0.5t29.5 -2.5t22 -12.5t6.5 -29.5q-101 -5 -188 -46.5t-151.5 -110.5t-101.5 -162 t-37 -200q0 -42 13.5 -74t37 -53t56.5 -32t72 -11q19 0 50 7.5t66.5 20.5t71.5 31t65.5 39.5t48 45t18.5 47.5v185q-13 1 -39 -3t-58.5 -10t-67.5 -13.5t-67.5 -14.5t-59 -12.5t-40.5 -7.5q-7 3 -15.5 7.5t-9.5 13t10.5 22.5t44.5 36q2 1 27 5.5t63.5 10.5t85.5 13.5 t93.5 14.5t88 13t68.5 10q13 -2 31.5 1t35.5 2t28 -9.5t9 -34.5l-104 -42q-9 -30 -14 -70.5t-7 -86.5t-2 -95t0.5 -96.5t1 -91.5t0.5 -80q-7 -4 -24 -9.5t-35.5 -8t-34 0.5t-19.5 17v229v0z" />
<glyph unicode="H" horiz-adv-x="775" d="M70 332q-18 3 -31 9t-13 21q0 13 9.5 26t21 26.5t21.5 29t12 33.5q1 13 3 40.5t4.5 62.5t4.5 73.5t4 73.5t3.5 62.5t1.5 40.5q7 8 18.5 18.5t24 16.5t23.5 4.5t17 -18.5l-8 -394q4 1 28 1t59 0.5t77.5 2.5t82.5 6.5t73 11.5t51 19v395q3 8 14.5 12.5t26.5 6.5t29.5 2 t22.5 -1q0 -23 1.5 -72t3.5 -110t4.5 -129t4.5 -129t4 -110t3 -72q4 -66 17 -128.5t45 -120.5q-26 -9 -53.5 -15.5t-70.5 -6.5q-35 87 -47.5 185t-14.5 189q-52 1 -94 1.5t-82 -2.5t-82.5 -12.5t-94.5 -27.5q-7 -73 -2 -151t22 -160l-99 -50z" />
<glyph unicode="I" d="M48 20q-7 15 -10 52.5t-4.5 88t-0.5 110.5t2.5 120.5t3.5 117t4.5 100t3.5 70t1 27.5q15 9 26.5 15t26.5 6q9 0 19.5 -4t10.5 -17v-686q0 -13 -10.5 -17t-19.5 -4q-15 0 -26.5 6t-26.5 15z" />
<glyph unicode="J" horiz-adv-x="678" d="M11 228q0 15 7.5 30.5t19 29t25.5 22t28 8.5q1 -47 18.5 -83t47.5 -62t68.5 -42.5t81 -25t86 -10t82.5 3.5q22 11 34.5 46t18.5 85.5t7.5 111.5t0.5 123t-2 120t-0.5 103t5 72.5t15.5 27.5h84q0 -15 2.5 -52t4.5 -88t3.5 -112.5t-1 -125.5t-8.5 -126t-19.5 -115t-34 -92 t-51.5 -57q-29 -16 -76.5 -19.5t-102.5 4t-112.5 26t-106 46.5t-82.5 66t-43 85z" />
<glyph unicode="K" horiz-adv-x="775" d="M55 29q5 15 8.5 56t5.5 99t3.5 128t3.5 142t4.5 141.5t7.5 126.5t12 96.5t18 52.5q3 12 14.5 18t25.5 8.5t27 2.5h18q-1 -17 -2.5 -46.5t-3.5 -65.5t-4.5 -75.5t-5 -76t-4.5 -67.5t-3 -50q81 42 156.5 89.5t141.5 88t119.5 67.5t91.5 27q13 0 22.5 -10t9.5 -23 q0 -20 -23 -42.5t-61.5 -47.5t-87 -51.5t-99 -52.5t-99 -51.5t-87 -49t-61.5 -43.5t-23 -36q22 -14 74 -37t117 -52t134 -62.5t126.5 -66.5t94 -65t35.5 -59q0 -10 -6.5 -15t-15 -7t-17 -2h-12.5q-40 0 -76 13.5t-72.5 35t-75.5 49t-86 55.5t-103 54t-127 45v-250 q-3 -5 -23 -11t-42.5 -8t-39 3.5t-10.5 24.5z" />
<glyph unicode="L" horiz-adv-x="886" d="M69 26q11 43 17 113t9.5 152.5t4 170t0 165.5t-1 139t-0.5 91l100 -3l-12 -733l659 -18q21 -6 19 -22t-19 -31.5t-45.5 -25.5t-59.5 -4z" />
<glyph unicode="M" horiz-adv-x="1059" d="M906 62q-2 18 -6.5 55.5t-10.5 84.5t-12.5 99t-13 99t-11.5 84.5t-7 55.5q0 26 -1.5 47t-10 25.5t-26.5 -12.5t-50.5 -67t-82 -139t-120.5 -228q-7 -14 -19.5 -18.5t-27 4t-30 32t-27.5 65.5l-230 489q-8 -15 -15 -48t-13 -75.5t-11 -91t-9 -95t-7 -88t-5 -70.5 q-5 -32 -4.5 -62.5t2 -57t1.5 -48.5t-7.5 -36.5t-25 -21.5t-50.5 -4q-21 0 -32 10.5t-9 32.5q5 39 12 100.5t16 132t18 143t17 133t13 103t7 53.5q4 28 9 48t15 33t27 18.5t45 5.5q38 -19 70.5 -59t60.5 -90.5t53 -106t47.5 -105t44 -87t42.5 -52.5l250 435q34 25 59.5 17.5 t44.5 -39.5t33 -84t25 -114t19 -130.5t15.5 -133.5t15.5 -122.5t18 -98.5q7 -42 -6.5 -61.5t-33.5 -19.5t-40 16t-26 44z" />
<glyph unicode="N" horiz-adv-x="803" d="M638 4q-47 82 -107.5 165.5t-124.5 168t-127 168.5t-115 167q-9 -39 -14 -91t-7.5 -111t-3 -121.5t-0.5 -123t-1 -115.5t-4 -98q-17 -15 -30.5 -19t-32.5 -4q-18 0 -30 6.5t-10 36.5q6 51 11 117.5t8.5 140t5.5 151.5t3 151.5t1 140t-2 117.5q20 19 33 30.5t25.5 11.5 t27.5 -13t38 -44t58 -81t87 -124t125.5 -173.5t173.5 -228.5l24 622q13 25 27 34.5t37 9.5q21 0 30 -15.5t12 -36.5t1.5 -42t-1.5 -32q0 -39 1 -105t1.5 -144t0 -160.5t-3.5 -155.5t-9 -128.5t-17 -79.5z" />
<glyph unicode="O" horiz-adv-x="858" d="M28 374q0 86 29.5 157t80.5 121.5t121 78.5t151 28q78 0 151.5 -19.5t130.5 -60.5t91.5 -104.5t34.5 -152.5q0 -206 -96.5 -305t-297.5 -99q-85 0 -157.5 20t-125.5 62.5t-83 110t-30 163.5zM130 394q0 -149 74.5 -222t222.5 -73q74 0 135 23t104 64.5t66.5 99 t23.5 127.5t-30 119.5t-78 81t-109.5 45.5t-124.5 14q-56 0 -107.5 -22t-90.5 -59.5t-62.5 -88.5t-23.5 -109z" />
<glyph unicode="P" horiz-adv-x="816" d="M470 768q15 0 45 -2t66 -8t74 -16t69.5 -26t51.5 -39t20 -54q0 -68 -35.5 -118.5t-92.5 -87.5t-128 -61t-142.5 -38t-136 -19.5t-108.5 -5.5l-6 -280q0 -9 -13 -12t-30.5 -3t-33.5 1.5t-22 0.5q0 72 -0.5 143t0.5 148q7 94 10 166.5t13.5 125.5t33 88.5t67 57t116.5 30.5 t182 9zM173 565q-2 -15 -7 -36t-9.5 -43.5t-6 -44t4.5 -38t21.5 -25.5t44.5 -5q29 0 76 3.5t99.5 12t105.5 24t95.5 39t69.5 56t27 76.5q-7 32 -32.5 54.5t-63 35.5t-82.5 17.5t-91.5 1.5t-90.5 -13t-79 -26.5t-57 -39t-25 -49.5z" />
<glyph unicode="Q" horiz-adv-x="913" d="M34 289q0 96 27.5 186.5t81.5 160.5t132.5 112.5t180.5 42.5q99 5 170 -21.5t115.5 -74t65 -110.5t18.5 -131t-24 -135t-61 -122q-4 -19 4.5 -32t23.5 -22t33.5 -16.5t34 -16t24.5 -20t5 -28.5q-5 -3 -15 -7t-20 -7t-18 -5t-9 -1q-16 3 -29.5 12.5t-27 20t-27.5 19.5 t-30 11q-26 -24 -64 -43.5t-82.5 -33.5t-93 -21.5t-93.5 -7.5q-60 0 -117.5 22t-103 61t-73.5 92t-28 115zM136 321q0 -68 21 -114t58.5 -74t88.5 -40t112 -12q24 0 52.5 0.5t56.5 6t52 18.5t39 39l-228 208q-1 0 -1.5 3.5t-0.5 5.5q0 12 5 18.5t13 10t17 4.5t18 1 q34 0 64.5 -20t59 -47t57 -55.5t58.5 -45.5q25 40 38.5 74.5t19.5 68t7 69.5t1 79q-7 45 -21.5 81t-50.5 61.5t-101.5 38.5t-173.5 12q-41 0 -76.5 -20.5t-64.5 -53.5t-51.5 -75t-37.5 -85.5t-23 -84.5t-8 -72z" />
<glyph unicode="R" horiz-adv-x="913" d="M182 42q0 -10 -7.5 -15t-17 -7t-18.5 -2h-13q-26 0 -38 26t-15.5 74.5t-2 116.5t3 151t-1 179.5t-14.5 202.5q12 21 25.5 23t25.5 -6t22 -21t16 -22q31 30 86 45.5t119.5 19.5t131.5 -3.5t122 -23.5t91.5 -40t40 -54t-32.5 -65t-127 -73q-14 -6 -43 -16.5t-66 -23 t-76.5 -26.5t-75.5 -27.5t-63 -25t-38 -19.5q0 -6 5 -10.5t23.5 -15t56.5 -30.5t104 -56t165 -91.5t241 -137.5q5 -4 12.5 -9t14 -12t11.5 -14.5t5 -16.5q0 -13 -10 -19.5t-24 -9.5t-29 -3h-25q-15 0 -50.5 21t-84.5 53.5t-107 72.5t-118 78.5t-118 70t-106 48.5v-287z M164 664q-9 -14 -11.5 -37.5t1 -48.5t11 -47t17.5 -32q11 -4 42.5 2.5t74.5 19.5t92 31.5t93.5 39t80 41.5t51 39.5t7 33t-52.5 22.5q-22 0 -57.5 0.5t-76 -0.5t-83.5 -4t-80.5 -10.5t-66.5 -19.5t-42 -30z" />
<glyph unicode="S" horiz-adv-x="823" d="M19 114q0 12 8.5 23.5t19.5 21.5t21.5 17t14.5 10q2 -50 30.5 -76t73 -33.5t100 0t112.5 25t109 42.5t90.5 51.5t57 51.5t8.5 44l-519 116q-10 3 -24.5 10.5t-27.5 17t-22 21t-9 23.5q0 47 34.5 86t88.5 69.5t120 53.5t128 38.5t113.5 23.5t76.5 10q7 -3 23 -4.5 t31.5 -5.5t26 -11t6.5 -21q1 -18 -21 -30.5t-58.5 -21.5t-83 -15.5t-95.5 -14.5t-96 -18.5t-84.5 -26t-61 -37.5t-24.5 -54q0 -3 7.5 -6.5t29 -9.5t61 -16.5t104 -28t158 -44t222.5 -63.5q17 -39 9.5 -74t-33.5 -65.5t-66.5 -57.5t-87.5 -48.5t-97.5 -38t-97 -28t-85 -17 t-62.5 -4.5q-20 0 -58 7.5t-76 22.5t-66.5 36.5t-28.5 48.5z" />
<glyph unicode="T" horiz-adv-x="797" d="M288 617l-267 16q-5 0 -9 4.5t-6.5 11.5t-4 14t-1.5 12q0 17 11 33.5t27 16.5q91 -4 183 -12t184.5 -12t184 -1t181.5 20q7 -2 12 -12t8 -23t4.5 -26.5t1.5 -20.5q-62 -18 -108.5 -21.5t-90.5 -2.5t-90.5 2t-107.5 -8q-2 -33 -6.5 -79t-9 -99.5t-9.5 -111.5t-8 -113.5 t-4 -106t3 -89.5l-117 -9z" />
<glyph unicode="U" horiz-adv-x="719" d="M578 173q-51 -44 -93.5 -76.5t-85 -53t-88.5 -29.5t-104 -5q-78 9 -118 47.5t-54 96t-8 128.5t19.5 145.5t29 147t20.5 132.5q4 1 16 1.5t16 0.5q34 4 44 -18t6 -61.5t-17 -92t-25.5 -109t-19.5 -111.5t1.5 -100t37 -75.5t86.5 -36.5q80 -3 135 21.5t91 69t56.5 105.5 t31 131t14 145.5t5.5 149.5q6 19 16 27.5t22 9.5t25 -5t27 -16q6 -89 4.5 -177.5t-5 -178t-6.5 -180.5t0 -186q0 -14 -13 -18.5t-29.5 -3.5t-31.5 5.5t-18 9.5l13 160v0z" />
<glyph unicode="V" horiz-adv-x="802" d="M326 20q-16 43 -45 105.5t-64 131.5t-71 139t-65.5 129t-48 102t-18.5 58q0 5 9.5 12.5t21.5 13.5q14 7 32 15q44 -81 82.5 -161.5t75 -152.5t72 -133.5t73.5 -105.5q6 7 25.5 43t46 90t58.5 120.5t63 132.5t59 126t47 103q20 24 39 37.5t33 14t22.5 -12t8.5 -39.5 l-355 -779q-10 -6 -24 -9.5t-28.5 -3.5t-27.5 5.5t-21 18.5z" />
<glyph unicode="W" horiz-adv-x="1204" d="M913 83q-14 20 -35 61t-45 91.5t-50.5 104.5t-53 100.5t-51 79.5t-44.5 41q-15 -23 -34.5 -65.5t-41 -95t-43 -110.5t-41.5 -112.5t-36.5 -101.5t-27.5 -76l-78 4l-312 722q-6 13 0.5 22t17.5 13.5t24 6.5t20 2q19 0 28.5 -8t15 -20.5t9.5 -27.5t10 -29q15 -33 36 -80 t44 -98t47 -102t44.5 -93t36 -70t21.5 -34q52 130 89.5 220t64 148.5t42.5 90.5t25.5 47t14 18t6.5 3q16 0 37.5 -20t45 -53.5t49 -76.5t51 -89.5t49 -92.5t44 -85.5t36.5 -68.5t26 -41q16 51 31 112t28.5 127t25.5 134.5t23 133.5t20 124.5t17 108.5q31 0 48 -6t24.5 -17 t9 -26t1.5 -32q1 4 -3.5 -33t-14 -103t-23.5 -153.5t-32 -183.5t-40 -193.5t-47 -183.5q-25 -17 -41.5 -18t-28 9.5t-20.5 30.5t-19 44z" />
<glyph unicode="X" horiz-adv-x="768" d="M373 281q-32 -27 -61 -71t-58.5 -87t-61.5 -74t-71 -31q-38 0 -55 12t-11 53l237 281q-64 80 -108.5 136t-73 92.5t-44 56.5t-23 30t-8.5 12t-1 3q0 13 9.5 22t23 12.5t27.5 3t24 -5.5l240 -290l298 353l73 -59l-300 -356q29 -39 63 -69.5t68.5 -56.5t67 -49t57 -47 t39.5 -50.5t15 -58.5q-4 -29 -26 -39t-56 16z" />
<glyph unicode="Y" horiz-adv-x="684" d="M347 -23q-8 0 -22.5 5t-28 13t-22.5 18.5t-4 22.5q5 8 13 30t18 52.5t21 65.5t21.5 69.5t19.5 65.5t15 53l-334 341q-12 14 -9 22t12 12.5t19.5 5.5t14.5 1q17 0 33.5 -3t35.5 -12.5t42.5 -29t56 -53t76 -82.5t101.5 -119q38 111 66 182.5t50.5 114t41.5 60.5t39 21 q12 0 23.5 -2.5t16.5 -18.5q-39 -83 -74.5 -187t-73 -216t-78.5 -223.5t-90 -208.5z" />
<glyph unicode="Z" horiz-adv-x="1004" d="M962 20q-85 -6 -193.5 -12t-220 -9t-214.5 -2.5t-176.5 7.5t-106 20.5t-3.5 37.5l540 603q-66 4 -130 2.5t-127 -6t-126 -10t-127 -8.5q-10 0 -15.5 2t-8.5 9t-4 19t-2 33q69 7 149.5 14t164 12.5t166 9.5t156.5 7q17 0 33.5 -5t16.5 -27q-13 -38 -50 -89t-86 -108.5 t-105.5 -118.5t-110 -118t-99 -106.5t-72.5 -85.5q65 -13 155 -13.5t189.5 5.5t202.5 14.5t195 14.5l9 -92v0z" />
<glyph unicode="[" horiz-adv-x="544" d="M39 974q41 6 90.5 17.5t100.5 22.5t99.5 19.5t88.5 8.5q0 -8 1.5 -16.5t1.5 -16.5t-2 -14.5t-9 -10.5q-15 -4 -39.5 -9t-53.5 -11t-59.5 -13.5t-58 -15t-50 -16t-33.5 -17.5q-5 -116 4.5 -226.5t22 -220t24 -220t11.5 -226.5l318 43q0 -5 3.5 -19.5t6 -29.5t2.5 -27.5 t-7 -14.5l-420 -66z" />
<glyph unicode="\" horiz-adv-x="643" d="M553 -3q-98 111 -181.5 215t-149 192.5t-113 158t-74.5 112.5t-33 55t11 -14q0 12 5 19t13 10t17.5 4t18.5 1q48 -47 92.5 -104.5t87 -120.5t85 -127.5t88 -126.5t94 -118t103.5 -101q0 -25 -20.5 -40t-43.5 -15z" />
<glyph unicode="]" horiz-adv-x="692" d="M100 -53q48 3 94 3t86.5 3t74 10.5t57.5 25.5t37 48.5t13 79.5q0 96 -4.5 200t-12.5 210t-19 210t-25 199q-48 3 -92.5 -5t-88.5 -19.5t-88.5 -21.5t-92.5 -10q-4 0 -13 6.5t-16.5 17t-9 24.5t10.5 30q0 1 24 4.5t61.5 9t85 12.5t96 14t93 13t76.5 10q9 0 21.5 1.5 t25 0.5t22.5 -5.5t13 -17.5q-6 -107 -4.5 -236t8 -270t17.5 -288.5t24 -291.5q-12 -2 -48 -5t-84.5 -7t-103 -8t-102.5 -7.5t-84.5 -5.5t-47.5 -2q-2 0 -3 21t-1 47z" />
<glyph unicode="^" horiz-adv-x="393" d="M22 682q0 15 13 38t37 47.5t57.5 49t73.5 42.5q27 -17 47.5 -30.5t38.5 -30t36.5 -39.5t41.5 -60q8 -15 8.5 -28t-5.5 -21t-17.5 -9t-27.5 8q-18 13 -28 20t-16 11.5t-10.5 9.5t-13 13.5t-23 23.5t-40.5 41q-27 -19 -46.5 -35t-33.5 -31.5t-23.5 -31t-16.5 -33.5 q-23 0 -37.5 6.5t-14.5 38.5z" />
<glyph unicode="_" horiz-adv-x="879" d="M781 146q17 0 33 -4.5t16 -26.5q0 -15 -6 -27t-15 -26q-91 -2 -187.5 -7t-194.5 -12.5t-195.5 -18t-190.5 -24.5q0 1 -0.5 8t-0.5 15.5v15.5v8q69 29 161 41t192.5 18.5t201 13.5t186.5 26z" />
<glyph unicode="`" horiz-adv-x="220" d="M189 671l-21 -54q-32 22 -51 36t-30 25t-17 20.5t-10 22.5q-2 13 -0.5 25t7.5 18.5t15.5 5t22.5 -16.5z" />
<glyph unicode="a" horiz-adv-x="651" d="M525 207q-29 -45 -67 -81.5t-83.5 -62t-99 -37.5t-112.5 -7q-21 0 -45 5t-44.5 16t-33.5 29t-13 45q-11 56 4.5 113.5t48.5 111t81 99t102.5 77t112 45.5t111.5 4q41 0 64 -27t34.5 -72t14.5 -103.5t5 -120.5t5.5 -122.5t15.5 -110.5h-74q-5 34 -7.5 60t-4.5 48.5 t-5.5 43.5t-9.5 47zM449 474q-39 3 -80.5 -10.5t-80 -38t-72 -58t-58.5 -69.5t-38.5 -71.5t-11 -65.5t22.5 -51t62 -28q60 1 115.5 30.5t99 73t72.5 94t37.5 93.5t-7.5 72t-61 29z" />
<glyph unicode="b" horiz-adv-x="719" d="M237 9q-7 2 -25 1t-43 -1t-55.5 3t-62.5 13q-5 57 -7.5 125t-3 142t0 151.5t1 153t0 146.5t-2.5 133q-4 28 11.5 40t35 12t35.5 -10.5t13 -28.5l8 -540q39 51 95.5 97t117.5 79t122 49.5t109 8t78 -46t30 -110.5q0 -50 -23 -96t-61 -87.5t-86 -77.5t-99 -65.5t-100 -52.5 t-88 -38zM621 414q-8 37 -33.5 54t-62 17t-80 -15t-87.5 -41t-84.5 -61t-70.5 -76t-45.5 -86t-10.5 -90q-5 -16 18.5 -18.5t65 8.5t94.5 36t107.5 63.5t104.5 90.5t84 118z" />
<glyph unicode="c" horiz-adv-x="810" d="M27 197q-4 46 17 91.5t58.5 87t88 77t106.5 60.5t113.5 37.5t108.5 7.5q19 0 38 -2t33.5 -10t23.5 -23t9 -41q0 -13 -6.5 -23t-16 -19t-20.5 -16t-20 -14q-3 14 -6 26.5t-9.5 22t-17 15t-27.5 5.5q-59 -12 -127.5 -36.5t-126 -58.5t-92.5 -76.5t-27 -91.5q0 -44 17 -71 t44.5 -42t63 -20t72.5 -5q57 0 110.5 17t104.5 38t100 38t96 17q8 0 16.5 -1t15 -5.5t9 -13t-0.5 -23.5q-5 -18 -35.5 -36t-75 -34t-97 -30t-102 -24t-89 -15.5t-58.5 -5.5q-44 0 -95 10t-94.5 33t-72.5 60.5t-29 93.5z" />
<glyph unicode="d" horiz-adv-x="656" d="M513 138q-69 -53 -138.5 -88.5t-133.5 -42.5t-121.5 19.5t-102.5 98.5q-14 65 2 123t53 106t90 83.5t113 55.5t123.5 22t121.5 -17q0 15 1.5 46t3.5 70t4 82t4.5 82t4.5 69.5t3 45.5q2 24 5.5 44t12.5 35t24.5 23.5t41.5 8.5q0 -120 -7 -234t-12.5 -229.5t-5 -235.5 t16.5 -253q0 -29 -10.5 -41t-35.5 -12q-24 0 -36.5 15.5t-17 37t-4.5 45.5v41zM104 177q2 -46 26.5 -65.5t68.5 -11.5q21 0 64.5 11.5t90 30t87.5 41t58 45.5v166q0 15 -7.5 24t-19 13.5t-24 5.5t-21.5 1q-27 4 -62.5 -3.5t-73 -24t-73 -41t-62.5 -55t-42 -65.5t-10 -72z " />
<glyph unicode="e" horiz-adv-x="692" d="M27 164q-9 81 15.5 158t74 136t119.5 93.5t153 32.5q14 0 37.5 -4t50 -12.5t52 -21.5t45 -31t29.5 -40.5t5 -50.5q-41 -29 -94.5 -40t-109 -15.5t-108.5 -8t-92.5 -18.5t-61 -47.5t-13.5 -93.5q15 -55 49.5 -81t80 -31.5t97 5t101 27.5t92.5 36t71 31q13 0 22 -9.5 t9 -22.5q-25 -43 -76 -77t-115 -55t-133.5 -26t-130.5 10t-107 53t-62 103zM380 509q-18 0 -44 -4t-50 -14t-41.5 -26t-17.5 -41l248 41q-16 24 -41.5 34t-53.5 10z" />
<glyph unicode="f" horiz-adv-x="760" d="M65 207q-8 0 -16.5 7.5t-15.5 19t-11.5 25.5t-4.5 26l190 68q-17 143 -22 250t0 183t20 125t39 77.5t57 39t73 10.5q37 0 87.5 -21t97 -54t79 -73.5t32.5 -79.5q0 -3 -0.5 -9t-1.5 -12.5t-2 -12.5t-2 -8q-22 29 -53 62.5t-68 61.5t-78 46.5t-82 18.5q-42 0 -64 -29.5 t-31.5 -71.5t-10.5 -86.5t-1 -74.5q0 -83 5 -162t30 -159q54 0 107.5 6.5t108 14t110.5 14.5t114 8q3 0 4.5 -7.5t1.5 -19.5t0.5 -26t2.5 -27l-429 -52l23 -277l-102 4q0 66 -6.5 129.5t-17.5 128.5z" />
<glyph unicode="g" horiz-adv-x="660" d="M397 -451q39 1 64.5 13t41 32.5t22 47.5t5.5 59q-1 19 -0.5 58t1.5 88t2 102.5t2 102.5t1 87.5t-1 58.5q-36 -33 -81 -68.5t-98 -63.5t-114 -44.5t-130 -11.5q-37 0 -60 18t-23 56q2 43 20.5 93.5t49 101t70.5 98t85.5 83.5t94 57.5t96 21.5t91 -26.5t78.5 -85.5 q14 -202 18 -350t-1 -252.5t-18.5 -170.5t-34.5 -105t-49.5 -56t-64 -22.5t-77.5 -5.5t-89 -4h-48t-62.5 6.5t-54.5 22t-23 45.5zM440 453q-39 0 -81 -23t-81.5 -58t-72.5 -78t-54 -83.5t-27 -73t10 -46.5q15 -9 50 -2.5t78 24.5t89 47t84 64t62.5 75t24.5 81 q0 15 -7.5 28.5t-19 23.5t-26 15.5t-29.5 5.5z" />
<glyph unicode="h" horiz-adv-x="634" d="M516 30q0 48 -0.5 104t-5.5 105t-16 83.5t-32 39.5q-57 11 -102 15.5t-79 -2.5t-58.5 -29.5t-41.5 -65.5t-27.5 -109.5t-15.5 -161.5h-97q4 131 0.5 246.5t-7.5 216t-4.5 185.5t9.5 154q10 20 26 23.5t32 -4t28 -22.5t13 -31q-1 -11 -2 -36t-2 -58.5t-1.5 -72.5t0 -77.5 t2.5 -74t7 -61.5q33 22 67.5 39t72.5 26t81 10.5t94 -6.5q50 -26 78.5 -50.5t43 -53t19 -61t6 -74t4 -93.5t13.5 -117q-5 -9 -22 -15t-35.5 -6t-33 8t-14.5 26z" />
<glyph unicode="i" d="M146 587q9 -123 16 -261.5t12 -279.5q-5 -20 -20.5 -29t-33.5 -9.5t-33.5 5.5t-19.5 16v558h79zM30 757q0 23 13 33t31 11.5t36 -3.5t26 -12q9 -33 -3 -48t-31.5 -16.5t-40.5 8.5t-31 27z" />
<glyph unicode="j" horiz-adv-x="228" d="M-142 -358q0 1 2.5 8t5.5 15.5t6 15.5t3 8q21 -16 43 -31.5t46 -27.5t49 -19.5t52 -7.5q19 0 33.5 14.5t24 36.5t14.5 46.5t5 44.5q0 106 -8 207t-16.5 200.5t-14 200t-0.5 207.5q-3 17 5.5 28t22 17t28.5 8.5t24 2.5q-11 -81 -10.5 -172t7 -184t16 -184t15.5 -173.5 t5.5 -151.5t-13.5 -118t-41 -73.5t-78 -17.5q-23 0 -56 4.5t-66.5 16t-62 31t-41.5 48.5zM138 884q14 -11 18 -29.5t-1 -32.5t-19.5 -18t-36.5 16q0 9 1.5 20t5.5 21t12 16.5t20 6.5z" />
<glyph unicode="k" horiz-adv-x="786" d="M61 467q0 51 -3.5 102t-8 102t-8 101.5t-3.5 101.5q0 22 11 31t31 9h10.5t10.5 -1q13 -53 18.5 -111t9.5 -122.5t8 -135t14 -147.5q18 9 52 32.5t75.5 53.5t86.5 62.5t85.5 59t72 44t45.5 17.5q11 0 17.5 -5t13.5 -18q-41 -52 -93.5 -94.5t-108.5 -81.5t-111.5 -76.5 t-101.5 -79.5q83 -23 158.5 -47t146 -44.5t139 -35t137.5 -18.5q0 -15 -1 -26t-6 -19t-15.5 -12.5t-29.5 -5.5h-10q-45 13 -111.5 27.5t-142 30t-152 32.5t-140.5 34q0 -13 2.5 -38t3.5 -54t-1.5 -57.5t-13.5 -49.5t-32 -30t-56 2z" />
<glyph unicode="l" horiz-adv-x="201" d="M28 810q11 15 21.5 28.5t30.5 13.5q13 0 24 -31t19 -82.5t14 -117.5t10 -137t6.5 -141.5t4 -129t2 -100.5t0.5 -57q0 -18 -7.5 -29t-19 -17.5t-26 -8.5t-27.5 -2q-2 0 -5.5 0.5t-4.5 0.5q0 26 -1.5 79.5t-3.5 121t-4 142t-4.5 142t-5 121t-3.5 79.5q0 7 -2.5 25t-5.5 38 t-6.5 37.5t-5.5 24.5z" />
<glyph unicode="m" horiz-adv-x="996" d="M33 20q-1 41 2.5 103.5t6 134t2 144t-7.5 132.5q0 23 16 31.5t38 8.5q8 0 13.5 -19.5t9 -45t6.5 -50.5t6 -36q16 30 51 54t78 37.5t88.5 16t83.5 -9.5t62 -39.5t24 -74.5q16 30 56 59.5t90.5 52t104.5 35t98.5 10t72.5 -23.5t27 -66l27 -465q0 -2 -16.5 -5.5t-36.5 -4.5 t-37 1.5t-17 12.5q-2 55 1 115.5t3.5 122.5t-4 122.5t-22.5 114.5q-29 -2 -64.5 -8.5t-71.5 -23t-69.5 -47t-59.5 -82t-42.5 -126t-16.5 -179.5q-5 -17 -23.5 -22t-38.5 -3t-34.5 9.5t-11.5 15.5q9 52 15 92t8 74t0.5 64t-6.5 61.5t-13.5 67t-20.5 81.5q-67 0 -114.5 -18.5 t-79 -50t-49 -74.5t-25.5 -92t-8 -102t4 -105q-16 -6 -35.5 -13.5t-38.5 -7.5q-11 0 -17 4t-14 17z" />
<glyph unicode="n" horiz-adv-x="640" d="M505 492q7 16 -15 18.5t-60 -4.5t-85 -22t-89.5 -35.5t-74 -45.5t-38.5 -50l-1 -340h-83q-6 14 -9.5 44.5t-5.5 72t-2.5 90t0.5 98t3 97t4.5 86.5t5 65.5t5.5 35.5q11 8 25 15t28 7q18 -1 24.5 -23.5t6.5 -51t-3.5 -55.5t-3.5 -37q104 77 179 112t126.5 37t82.5 -24 t48 -72t22.5 -107.5t6.5 -129.5t0 -138.5t2 -134.5q-12 -6 -16.5 -7t-10 0.5t-14.5 3.5t-28 3q-12 49 -13.5 112t-0.5 129t-1 131t-15 120z" />
<glyph unicode="o" horiz-adv-x="720" d="M65 237q0 82 36 140.5t91 97.5t120 59.5t124 26.5q57 3 107 -14.5t86 -49.5t55.5 -76t14.5 -93q0 -82 -32.5 -143.5t-86.5 -103t-125.5 -62t-149.5 -20.5q-118 0 -179 55t-61 183zM151 207q0 -42 10.5 -67t31 -37.5t50 -16.5t68.5 -4q60 0 116 11.5t99 39t69 73t26 113.5 q0 35 -10 66.5t-30 55t-49 37.5t-66 14q-49 -8 -98 -18.5t-92 -38t-76 -81t-49 -147.5z" />
<glyph unicode="p" horiz-adv-x="713" d="M77 528q4 4 15 9t23 4.5t23 -9.5t16 -31q143 48 245 55.5t166 -14t92 -66t23 -100t-41.5 -116.5t-102 -115t-158 -95.5t-208.5 -58.5q0 -14 0.5 -44t1.5 -68t1.5 -80t1.5 -80.5t2.5 -69.5t3.5 -46q6 -46 -18 -65.5t-66 -14.5zM423 479q-39 0 -86 -9t-87.5 -30.5 t-66.5 -58t-23 -90.5v-216q139 31 228 73t136.5 87t58.5 89t-6 78.5t-58 55.5t-96 21z" />
<glyph unicode="q" horiz-adv-x="657" d="M525 103q-26 -24 -65 -44t-82 -34t-85.5 -21.5t-76.5 -7.5q-23 0 -52.5 5t-55.5 16.5t-44 31t-18 48.5q-4 57 12 110t47 98.5t75 82.5t95 62.5t106.5 38.5t110.5 11q36 0 66.5 -26t50.5 -59q0 -217 1 -429t15 -429h-19.5t-15 -0.5t-18 -0.5h-28.5zM140 140q0 -24 9 -37 t24 -18.5t34 -6t39 -0.5q42 0 85.5 8.5t79 28.5t58.5 54.5t23 85.5q0 11 3.5 37.5t4.5 54t-4 48.5t-21 21q-60 0 -119.5 -19t-107.5 -55t-78 -87t-30 -115z" />
<glyph unicode="r" horiz-adv-x="706" d="M34 572q0 19 13.5 25t29.5 6q26 0 41.5 -21.5t24 -50t12 -56t5.5 -39.5q37 34 83 63t102.5 49.5t126 30t155.5 4.5q27 6 40.5 -11.5t15.5 -41.5t-7.5 -47t-28.5 -27q-35 26 -84.5 33.5t-103 -0.5t-105.5 -29.5t-92.5 -54.5t-64 -76t-19.5 -93q0 -31 4 -60.5t8.5 -59 t8.5 -59t4 -59.5q-27 -2 -43.5 -7t-27.5 -4.5t-19 10t-18 38.5q-1 7 -5 42t-9.5 85t-12.5 109.5t-13.5 117t-12 106t-8.5 77.5z" />
<glyph unicode="s" horiz-adv-x="643" d="M173 20q71 23 132.5 54t103 61t56 55.5t-8 38.5t-88.5 8.5t-187 -34.5q-36 1 -64.5 14t-48.5 32t-30.5 41.5t-10.5 43.5q0 33 22.5 65.5t60.5 61.5t88 52.5t105 38t112.5 19t110.5 -5.5q30 0 35 -26.5t5 -85.5q-41 19 -88.5 27t-95.5 6t-93 -13.5t-79.5 -32t-56.5 -50.5 t-23 -68q0 -21 16.5 -27.5t39 -6t47 5t39.5 4.5q135 29 210 24t101 -32t8 -69.5t-69.5 -89.5t-130.5 -91.5t-175 -75.5q-5 0 -11 7.5t-12.5 17.5t-11.5 19t-8 12z" />
<glyph unicode="t" horiz-adv-x="518" d="M22 401l-2 86h187v323q4 12 14.5 22t22.5 15t25 1.5t22 -18.5q10 -41 14 -82.5t5 -83t1.5 -83t3.5 -81.5q19 3 44 3.5t50.5 1t50 1t44.5 2.5l-4 -90l-182 5q-1 -62 0 -114.5t2.5 -102.5t2.5 -102t1 -113q-41 -18 -62.5 -3.5t-30.5 48.5t-9 83t1.5 100.5t1.5 99.5t-9 82 h-194z" />
<glyph unicode="u" horiz-adv-x="650" d="M28 166q0 20 -3.5 56t-6 78.5t-2 86.5t7.5 79.5t22.5 58.5t44.5 23q35 -10 47.5 -26t11 -39t-12 -53t-21.5 -68.5t-17 -85t2 -102.5q9 -36 36.5 -55.5t65.5 -25t81.5 1t84.5 22t75 38t53 48.5q10 50 11 91.5t-2 80.5t-8 79.5t-6 89.5q38 16 60 -5t33.5 -65.5t15.5 -105.5 t4.5 -125.5t0.5 -125.5t5 -104q-27 -26 -56.5 -5t-45.5 91q-16 -14 -55 -34.5t-89.5 -36.5t-106 -23t-103.5 5t-83 48.5t-44 107.5z" />
<glyph unicode="v" horiz-adv-x="664" d="M45 484q-5 16 2 33t19.5 27t26.5 9.5t23 -18.5l210 -390q10 16 32 56.5t50 91.5t58.5 107t57 102t46 76t25.5 30q13 0 23 -6t16.5 -15.5t9 -20.5t1.5 -21q-54 -116 -93 -202t-67.5 -146.5t-47.5 -99t-34.5 -61t-28.5 -30.5t-28 -8q-20 0 -52.5 39t-73 105.5t-85.5 155 t-90 186.5z" />
<glyph unicode="w" horiz-adv-x="1035" d="M509 345q-27 -91 -45.5 -168.5t-37 -128.5t-42 -68.5t-61.5 11.5q-21 22 -48.5 65t-57 96t-58 110.5t-51 109t-36.5 91t-14 56.5q0 23 13.5 28.5t31 0.5t35 -16.5t25.5 -22.5q9 -13 21.5 -44t31 -78t43.5 -107.5t60 -132.5q16 25 31.5 61.5t30.5 76.5t29 79.5t28.5 71.5 t30 52t31.5 21q11 6 31.5 -12.5t46.5 -51.5t54.5 -75.5t55 -82.5t48.5 -73.5t34 -48.5q8 0 15.5 30t17 75t21.5 97t29 97t40.5 75t55.5 30q18 0 25.5 -13.5t5.5 -29.5q-14 -42 -31 -96.5t-34.5 -111.5t-36 -112.5t-36.5 -100t-35.5 -73t-32.5 -32.5q-12 -6 -29.5 8t-39 41 t-45.5 64t-49.5 77.5t-51.5 81t-50 73.5z" />
<glyph unicode="x" horiz-adv-x="602" d="M33 38q3 3 17 17.5t33 36t41 47.5t43 52t38.5 50t26.5 41q-59 65 -105 116q-20 22 -39 42.5t-33.5 37t-23.5 27l-9 10.5l73 78q38 -46 61.5 -76.5t39 -51t26 -34t21 -25.5t23.5 -26t35 -35q17 22 38 53.5t45 66.5t49 70t51 65q15 0 26.5 -6t19.5 -14.5t12.5 -18.5 t4.5 -19q-22 -48 -46.5 -83t-47 -63.5t-41 -54t-29.5 -55.5q30 -21 64 -53.5t64.5 -66t54 -62.5t33.5 -44q0 -5 -5.5 -14.5t-13.5 -19.5t-16.5 -18.5t-15.5 -11.5q-24 12 -50 41t-54.5 64t-59.5 70t-64 58q-18 -20 -45 -53t-56.5 -67.5t-57 -64.5t-46.5 -44q-7 -1 -19 1.5 t-24.5 7.5t-23.5 12.5t-15 16.5z" />
<glyph unicode="y" horiz-adv-x="702" d="M297 -471q-14 -34 -32.5 -47t-33.5 -11.5t-22.5 16t0.5 35.5q14 57 32.5 118t38.5 121t40 117.5t38 108.5q-11 11 -31.5 36.5t-46.5 59.5t-55.5 74.5t-58.5 81t-55.5 79t-45.5 69.5t-29 50.5t-7 23.5l47 48q23 -22 52 -53.5t59 -68t61 -75.5t59 -76.5t51.5 -71 t39.5 -58.5q19 41 29.5 64.5t18.5 44t17 43.5t25.5 63t44 102t73.5 161q7 3 21 4.5t27 -2t20.5 -14t3.5 -29.5l-381 -1014v0z" />
<glyph unicode="z" horiz-adv-x="634" d="M113 153q45 44 86 80t78.5 70t73.5 70t72 80q-44 2 -93 -2t-96 -9.5t-88.5 -10t-71 -4.5t-43 7t-4.5 24t27 30t35 13q5 0 10.5 1t19.5 3t39.5 5t69 7.5t109 10.5t160.5 13q39 -5 52 -20.5t6 -39.5t-29.5 -54.5t-55.5 -64.5t-72 -70t-78.5 -71.5t-75.5 -69t-63 -61.5 q44 -3 78.5 -3t64 1.5t57.5 3.5t58.5 2.5t66.5 -1t83 -7.5q7 0 15.5 -4.5t14 -14t7 -23.5t-5.5 -32q-42 5 -96.5 3t-112.5 -6t-116 -8.5t-106.5 -4.5t-84 6.5t-49.5 23.5t-1.5 48t59.5 79z" />
<glyph unicode="{" horiz-adv-x="451" d="M539 -173q-79 5 -130.5 28t-84 59.5t-49 83t-25 100t-12 111t-9.5 115.5q-8 15 -31.5 32.5t-50.5 39t-50.5 48.5t-31.5 61q4 31 14.5 52t24.5 36t30 26t31 21.5t28.5 23.5t21.5 32q-2 47 -7.5 107.5t-7 123.5t5.5 123.5t30.5 107.5t68 76t117.5 29v-68q-19 1 -38.5 -1.5 t-37 -17.5t-31.5 -48.5t-21.5 -93.5t-7 -152.5t11.5 -226.5q0 -27 -19.5 -43.5t-43 -31t-43 -29.5t-19.5 -38q-6 -12 0.5 -28.5t20 -34t31.5 -34.5t36 -30t33 -21t23 -7q-13 -123 -4.5 -202t29.5 -126.5t50.5 -69.5t59 -30t54.5 -8t38 -4l-5 -91v0z" />
<glyph unicode="|" horiz-adv-x="186" d="M65 1225h74v-1308q0 -2 -10 -2h-22.5t-24 -0.5t-13.5 -1.5z" />
<glyph unicode="}" horiz-adv-x="613" d="M35 -272l-5 90q13 4 39.5 4t57 8t61 29.5t52.5 68t30.5 125t-4.5 199.5q12 -1 40 16t55.5 41.5t45 51t8.5 44.5q0 15 -9.5 27t-24 21.5t-31.5 19t-31.5 20t-24 23t-9.5 30.5q6 126 -4 212.5t-30 143t-46 88.5t-52 48t-50 22t-38 10v67q76 0 128.5 -28t87.5 -73.5t54 -104 t28 -119.5t10 -120t-1 -106q13 -28 38 -49t51 -40.5t46.5 -40.5t23.5 -50q-2 -39 -26 -69.5t-54.5 -54t-58 -39t-35.5 -24.5q-7 -57 -10.5 -114t-12 -109.5t-25.5 -99t-51 -82t-87.5 -58.5t-135.5 -28z" />
<glyph unicode="~" horiz-adv-x="569" d="M263 657q-25 22 -44 37t-38.5 13.5t-43 -24t-59.5 -75.5q-4 0 -11 1t-14 4t-13 8t-8 13q19 60 56.5 106t79.5 63q17 7 32.5 1t31 -18.5t30 -29t30 -31.5t32 -25t34.5 -10q28 0 43.5 8.5t28.5 25t28.5 40.5t43.5 54q4 0 10.5 -2.5t12.5 -7t10 -9.5t4 -10q5 -28 -7 -55.5 t-35 -50.5t-54 -39t-63.5 -21.5t-63 2t-53.5 32.5z" />
<glyph horiz-adv-x="879" d="M143 30q0 20 23 32l394 686q5 9 11.5 13.5t14.5 0.5t17 -17t20 -39l-404 -707q-10 0 -23 0.5t-25 3.5t-20 9t-8 18zM642 81q-29 1 -46.5 18t-24 42t-2.5 53.5t18.5 51.5t39 36.5t58.5 9.5q16 0 42.5 -1t52.5 -7t46 -19t25 -37q7 -37 -15.5 -64.5t-57.5 -46t-73.5 -27.5 t-62.5 -9zM774 237q-27 0 -51.5 -3t-43 -13.5t-29 -30t-10.5 -51.5q27 0 51 4t42.5 15t29.5 30t11 49zM19 509q0 33 21 62t52 50t66.5 33.5t63.5 12.5q16 0 32.5 -2.5t29.5 -10t21 -20t8 -33.5q0 -30 -25 -56.5t-60.5 -46t-73.5 -31t-64 -11.5q-12 0 -24.5 2.5t-23 9 t-17 16.5t-6.5 25zM207 585q-11 0 -25 -4t-27.5 -11.5t-22.5 -18t-9 -22.5q0 -1 0.5 -5t0.5 -5l83 41v25z" />
<glyph unicode="&#xa1;" horiz-adv-x="173" d="M28 0zM80.1943 530.486q9.89844 0 22.7656 0.360352q12.8682 0.360352 24.7451 2.52148q11.8779 2.16113 19.7969 6.84375q7.91797 4.68262 7.91797 13.3271q-7.91797 19.4512 -24.7451 29.8965q-16.8262 10.4463 -35.1377 12.9678t-34.1484 -1.80176 q-15.8369 -4.32227 -21.7764 -13.3271q-5.93848 -9.00488 2.47461 -22.332q8.41406 -13.3271 38.1074 -28.4561zM138.594 -220.168q-2.96973 8.64453 -4.4541 36.3799q-1.48535 27.7354 -1.98047 67.7178q-0.494141 39.9814 -0.494141 88.9688t-0.495117 100.136 q-0.495117 51.1475 -1.48438 101.216q-0.990234 50.0674 -2.96973 91.8506t-5.44434 72.4004q-3.46387 30.6162 -9.40332 42.8633h-83.1436q0 -74.2012 4.4541 -148.763q4.4541 -74.5605 9.40332 -149.122t9.40332 -149.482t4.4541 -150.563z" />
<glyph unicode="&#xa2;" horiz-adv-x="810" d="M371 5q-17 -2 -31 -3.5t-22 -1.5q-44 0 -95 10t-94.5 33t-72.5 60.5t-29 93.5q-5 53 23.5 106t77.5 99t112.5 82t129.5 56v172h74l-1 -156q22 2 53 4t59 -4t48 -22.5t20 -51.5q0 -13 -6.5 -23t-16 -19t-20.5 -16t-20 -14q-6 30 -15 45t-23.5 19.5t-34 1t-44.5 -10.5 l-1 -368q39 12 76.5 27.5t74 30t72 24t70.5 9.5q8 0 16.5 -1t15 -5.5t9 -13t-0.5 -23.5q-5 -20 -39 -38.5t-82.5 -35.5t-105 -31t-106.5 -23v-100q0 -2 -10 -2h-22.5t-24 -0.5t-13.5 -1.5zM324 78q24 0 47 3l-1 361q-49 -18 -95.5 -42t-81.5 -52.5t-53.5 -61.5t-12.5 -70 q0 -44 17 -71t44.5 -42t63 -20t72.5 -5z" />
<glyph unicode="&#xa3;" horiz-adv-x="690" d="M-27 339q0 17 14.5 23.5t29.5 8.5q20 2 49.5 5.5t49.5 7.5q3 79 8 136t17 96.5t33.5 63t58.5 36.5q83 28 149.5 31.5t117 -8.5t85.5 -35.5t55.5 -48.5t26.5 -47t-1.5 -32t-28.5 -3t-55 40q-12 12 -39.5 28t-63.5 27.5t-76 15.5t-77 -6.5t-68.5 -40.5t-48.5 -85l-19 -154 q6 1 20.5 0.5t31 -1.5t31 -1.5t21.5 0.5q25 0 42.5 -8.5t23 -20t-1.5 -24t-30 -19.5l-139 -1l-34 -241q50 9 88 16t69.5 11t60.5 3.5t61 -5.5t71 -15t90 -27q8 -3 11 -10.5t0 -16t-14 -16t-31 -9.5q-19 -2 -38.5 2t-44 10t-56 11.5t-73.5 5.5q-28 0 -46 -3t-32.5 -8t-29 -11 t-36 -10.5t-53.5 -7.5t-81 -2q6 23 10 58t7 77t4.5 87.5t3.5 90.5l-60 -6q-8 0 -19 1t-20.5 4.5t-16.5 9.5t-7 17z" />
<glyph unicode="&#xa4;" horiz-adv-x="720" d="M-1 36q2 1 15 12t30 26t34.5 30t28.5 26q-49 56 -49 171q0 63 21.5 111.5t57.5 85.5q-20 19 -38 37l-31.5 31.5l-21.5 21.5l-8 8l90 84q35 -38 59.5 -65.5t42.5 -47.5q48 26 99.5 39.5t99.5 18.5q57 3 109 -16q9 10 22 26.5t27 33t27 32t22 24.5q18 0 32.5 -6.5t24.5 -16 t15.5 -20.5t5.5 -20q-6 -11 -16.5 -27.5t-21.5 -33t-22 -31.5t-17 -24q29 -32 44.5 -70.5t10.5 -83.5q0 -52 -13.5 -95.5t-37.5 -79.5q38 -36 67.5 -67.5t41.5 -47.5q0 -6 -7 -16.5t-16.5 -21t-20.5 -19.5t-19 -13q-28 12 -58.5 41.5t-64.5 65.5q-54 -38 -122.5 -57 t-143.5 -19q-28 0 -52.5 2.5t-46.5 8.5l-21 -18t-29.5 -24.5t-29 -23.5t-18.5 -14q-9 -1 -24 2t-30.5 8.5t-29 14t-18.5 17.5zM134 259q0 -42 10.5 -67t31 -37.5t50 -16.5t68.5 -4q60 0 116 11.5t99 39t69 73t26 113.5q0 35 -10 66.5t-30 55t-49 37.5t-66 14 q-49 -8 -98 -18.5t-92 -38t-76 -81t-49 -147.5z" />
<glyph unicode="&#xa5;" horiz-adv-x="684" d="M151 359q1 1 15.5 3t38.5 5t55 6t66 7q0 15 0.5 29t1.5 27l-334 341q-12 14 -4.5 25.5t22 20t29.5 13.5t19 5q20 -15 35.5 -25.5t31 -23t34.5 -30.5t47.5 -49t69 -77.5t98.5 -116.5q38 111 67 181.5t52.5 111.5t43 57.5t39.5 19.5q6 0 13.5 -5t14 -13t12 -17t8.5 -17 q-20 -42 -45 -89.5t-51 -99.5t-52 -108t-47 -116l-2 -32q28 4 53 7t48 7q20 6 30.5 0t12.5 -18t-3.5 -25.5t-17.5 -21.5l-126 -17l-3 -57q31 5 66.5 10.5t83.5 15.5q29 0 37.5 -18.5t3.5 -44.5q-59 -1 -105.5 -7.5t-88.5 -16.5l-10 -202q-3 -9 -17.5 -19t-30.5 -13t-30 5.5 t-17 35.5q3 6 5.5 22t3.5 39t2 51.5t1 60.5q-38 -8 -78 -13t-89 -5q-15 0 -22.5 9t-7.5 34q0 5 8 13t13 8q57 9 98.5 14.5t76.5 9.5v54l-138 -18q-6 0 -15.5 -0.5t-19.5 1t-17.5 6t-9.5 15.5z" />
<glyph unicode="&#xa6;" horiz-adv-x="164" d="M127 362l-10 -319q-1 -12 -11.5 -21t-23.5 -12.5t-26.5 -1t-20.5 11.5q1 20 2 55t2 80.5t2.5 98t3.5 108.5h82zM46 393q3 93 5.5 166t3.5 106q-2 28 10.5 35.5t29.5 7.5q14 0 26 -3t17 -20l-10 -293z" />
<glyph unicode="&#xa7;" horiz-adv-x="643" d="M81 86q60 10 116.5 25.5t104 33.5t82 37t51.5 35t13 28t-35 16t-91 -0.5t-156 -21.5q-36 1 -64.5 14t-48.5 32t-30.5 41.5t-10.5 43.5q0 42 34 81.5t89 72.5q-42 19 -65 51.5t-23 64.5q0 33 22.5 65.5t60.5 61.5t88 52.5t105 38t112.5 19t110.5 -5.5q30 0 35 -26.5 t5 -85.5q-41 18 -88.5 26.5t-95.5 6.5t-93 -13.5t-79.5 -32t-56.5 -50.5t-23 -68q0 -21 16.5 -27.5t39 -6t47 5t39.5 4.5q109 23 179 24t105.5 -14.5t40 -44t-16 -63.5t-64 -73.5t-103.5 -74.5q79 -8 111.5 -33.5t27.5 -59.5t-42 -72t-98 -72t-140 -59t-168 -32 q-5 0 -11 7.5t-12.5 17.5t-11.5 19t-8 12zM115 358q0 -14 7 -21t18 -10t25 -3t29 2q58 19 110.5 43.5t92.5 49.5t64.5 49t27.5 42q3 27 -21.5 36t-64 4t-87.5 -22t-90.5 -43t-73.5 -58.5t-37 -68.5z" />
<glyph unicode="&#xa8;" horiz-adv-x="475" d="M83 789q0 5 9.5 12.5t21.5 13.5q13 7 31 15q26 0 35.5 -11t9.5 -31q0 -15 -7.5 -23.5t-19 -12.5t-25 -5t-25.5 -1q-16 0 -23 9.5t-7 33.5zM263 789q0 5 9.5 12.5t21.5 13.5q14 7 32 15q26 0 35.5 -11t9.5 -31q0 -15 -7.5 -23.5t-19 -12.5t-25.5 -5t-26 -1q-16 0 -23 9.5 t-7 33.5z" />
<glyph unicode="&#xa9;" horiz-adv-x="808" d="M48 238q3 51 16.5 110.5t36.5 118.5t55.5 113.5t75.5 96.5t96 67t117 25q84 0 145 -32.5t101 -85.5t59 -121.5t19 -141.5q0 -95 -31.5 -167.5t-88.5 -122t-135.5 -75t-172.5 -25.5q-46 0 -99 14t-97.5 43t-72.5 74.5t-24 108.5zM121 229q0 -53 21 -86t55.5 -51.5t77 -25 t86.5 -6.5q172 0 259 89t87 252q3 152 -73 232.5t-220 72.5q-41 7 -78.5 -18.5t-70 -69.5t-59 -100.5t-45.5 -111.5t-29.5 -102.5t-10.5 -74.5zM205 308q-2 40 9.5 80t33 76.5t50.5 67.5t61 52.5t64.5 32.5t62.5 7q12 0 22.5 -2t19 -9t13.5 -20.5t5 -35.5t-13 -37t-23 -26 q-3 26 -9 43t-26 17q-33 -11 -72.5 -31.5t-72.5 -50t-53 -67t-15 -80.5q0 -39 9.5 -62.5t25.5 -36t36.5 -17t41.5 -4.5q32 0 62.5 14.5t60 32.5t57.5 32.5t55 14.5q10 0 18.5 -5.5t4.5 -30.5q-3 -16 -20 -31.5t-42.5 -29.5t-56 -26.5t-58.5 -21t-51 -13.5t-34 -5 q-25 0 -54 8.5t-54 28.5t-41.5 53t-16.5 82z" />
<glyph unicode="&#xaa;" horiz-adv-x="319" d="M15 159zM235.098 267.205q-12.7656 -24.3926 -29.4922 -44.1777q-16.7275 -19.7842 -36.7559 -33.6074q-20.0283 -13.8223 -43.5781 -20.3262q-23.5508 -6.50488 -49.5215 -3.79492q-9.24414 0 -19.8086 2.71094q-10.5645 2.70996 -19.5879 8.67188 q-9.02344 5.96289 -14.7461 15.7197t-5.72266 24.3926q-4.8418 30.3555 1.98145 61.5234q6.82227 31.168 21.3486 60.168q14.5264 28.999 35.6553 53.6631q21.1289 24.6631 45.1191 41.7383q23.9893 17.0742 49.3008 24.6631q25.3105 7.58887 49.0801 2.16797 q18.0479 0 28.1719 -14.6348q10.124 -14.6357 15.1865 -39.0283t6.38281 -56.1025t2.20117 -65.3174q0.879883 -33.6074 2.4209 -66.4014q1.54004 -32.7939 6.82324 -59.8975h-32.5742q-2.20117 18.4307 -3.30176 32.5234q-1.10059 14.0938 -1.98047 26.29t-2.4209 23.5791 t-4.18164 25.4766zM201.644 411.934q-17.167 1.62598 -35.4355 -5.69238q-18.2676 -7.31738 -35.2148 -20.5977q-16.9463 -13.2803 -31.6934 -31.4395q-14.7461 -18.1582 -25.751 -37.6719q-11.0039 -19.5146 -16.9463 -38.7568q-5.94238 -19.2432 -4.84277 -35.5049 q1.10059 -16.2617 9.9043 -27.6445t27.292 -15.1777q26.4111 0.541992 50.8408 16.5332q24.4307 15.9902 43.5791 39.5693q19.1475 23.5791 31.9131 50.9531t16.5068 50.6816q3.74121 23.3086 -3.30176 39.0283t-26.8506 15.7197z" />
<glyph unicode="&#xab;" horiz-adv-x="897" d="M105 286q40 31 93.5 74t109 86t106.5 80.5t87 57.5q9 -1 15 -9t9.5 -19t3 -22.5t-4.5 -18.5l-294 -224q19 -9 53.5 -25.5t77.5 -37.5t89.5 -46t88.5 -53q-2 -2 -5.5 -10.5t-8 -18t-8.5 -18t-6 -8.5q-24 15 -59.5 29t-76.5 29t-83.5 31.5t-79.5 35t-65.5 40t-41.5 47.5z M397 314q40 31 93.5 74t109 86t106.5 80.5t87 57.5q9 -1 15 -9t9.5 -19t3 -22.5t-4.5 -18.5l-294 -224q19 -9 53.5 -25.5t77.5 -37.5t89.5 -46t88.5 -53q-2 -2 -5.5 -10.5t-8 -18t-8.5 -18t-6 -8.5q-24 15 -59.5 29t-76.5 29t-83.5 31.5t-79.5 35t-65.5 40t-41.5 47.5z" />
<glyph unicode="&#xac;" horiz-adv-x="767" d="M716 151q-37 -4 -53 0.5t-20.5 24.5t-2 59.5t2.5 105.5l-552 -9l4 82q74 -3 160 4t171.5 13.5t165 8t142.5 -13.5q-4 -42 -5 -67t-1 -42v-29.5t-0.5 -29t-3.5 -41.5t-8 -66z" />
<glyph unicode="&#xad;" horiz-adv-x="397" d="M37 302q0 17 14.5 23.5t29.5 8.5q57 8 111.5 17.5t113.5 15.5q25 0 42.5 -8.5t23 -20t-1.5 -24t-30 -19.5l-240 -25q-8 0 -19 1t-20.5 4.5t-16.5 9.5t-7 17z" />
<glyph unicode="&#xae;" horiz-adv-x="808" d="M48 238q3 51 16.5 110.5t36.5 118.5t55.5 113.5t75.5 96.5t96 67t117 25q84 0 145 -32.5t101 -85.5t59 -121.5t19 -141.5q0 -95 -31.5 -167.5t-88.5 -122t-135.5 -75t-172.5 -25.5q-46 0 -99 14t-97.5 43t-72.5 74.5t-24 108.5zM316 205q0 -5 -4 -7.5t-9 -3t-9.5 -0.5 h-6.5q-21 0 -25.5 27.5t-3.5 75.5t2 113t-8 140q6 10 13 11t13 -3t11.5 -10t8.5 -10q16 14 44.5 21.5t61.5 9.5t67.5 -1.5t63 -11.5t47.5 -19t21 -25.5t-17 -31t-66 -34.5q-11 -5 -38.5 -13.5t-57.5 -18.5t-56 -19t-35 -15q0 -4 7 -7.5l37 -18.5t92 -46.5t172 -89.5l10 -7.5 t9 -9.5q47 80 47 200q3 152 -73 232.5t-220 72.5q-41 7 -78.5 -18.5t-70 -69.5t-59 -100.5t-45.5 -111.5t-29.5 -102.5t-10.5 -74.5q0 -53 21 -86t55.5 -51.5t77 -25t86.5 -6.5q198 0 285 119q-8 -2 -15.5 -1.5t-12.5 0.5q-12 0 -46.5 21t-79 49t-92 55t-84.5 39v-137z M306 501q-5 -6 -6 -17.5t1 -23.5t6 -22.5t9 -15.5q7 -2 33 4t58.5 16.5t65 23.5t52 26t20.5 23.5t-29 15.5h-48.5t-64 -2t-60 -8.5t-37.5 -19.5z" />
<glyph unicode="&#xaf;" horiz-adv-x="397" d="M37 699q0 17 14.5 23.5t29.5 8.5q57 8 111.5 17.5t113.5 15.5q25 0 42.5 -8.5t23 -20t-1.5 -24t-30 -19.5l-240 -25q-8 0 -19 1t-20.5 4.5t-16.5 9.5t-7 17z" />
<glyph unicode="&#xb0;" horiz-adv-x="281" d="M31 438q0 42 15 66.5t38 34.5t50 7t51 -17t41 -36.5t20 -50.5q0 -63 -26 -83.5t-77 -20.5q-16 0 -35.5 6t-36.5 18.5t-28.5 31.5t-11.5 44zM187 463q-21 23 -45 28t-41 -4.5t-21 -31t15 -52.5q23 -19 44.5 -21t35.5 8t18.5 29.5t-6.5 43.5z" />
<glyph unicode="&#xb1;" horiz-adv-x="671" d="M89 26q0 17 14.5 23.5t29.5 8.5q23 3 69 10.5t101 17.5q-2 27 -5 59t-7.5 65t-11.5 65t-16 58q-26 0 -51.5 -6.5t-51 -14t-52 -14.5t-54.5 -8q-15 0 -23 18t-8 37l240 50v207q0 9 5 13.5t12 7t14.5 3t11.5 0.5q22 0 28.5 -7.5t11.5 -36.5q2 -9 5.5 -33t7 -50.5t6 -50 t3.5 -32.5l233 27q0 -29 -2.5 -42.5t-23.5 -21t-69.5 -14.5t-139.5 -23q-5 -26 -2 -55.5t8 -60.5t10.5 -62.5t6.5 -61.5q60 11 111.5 19t77.5 11q25 0 42.5 -8.5t23 -20t-1.5 -24t-30 -19.5l-460 -66q-8 0 -19 1t-20.5 4.5t-16.5 9.5t-7 17z" />
<glyph unicode="&#xb2;" horiz-adv-x="480" d="M12 219zM29.9824 245.586q26.2344 19.4463 58.7158 49.1406q32.4805 29.6953 63.0879 63.0693q30.6064 33.374 54.9678 67.2734q24.3604 33.8994 34.042 62.8057q9.68262 28.9062 0.9375 49.1416q-8.74512 20.2344 -44.3486 26.541q-22.4873 0 -39.665 -5.51855 q-17.1768 -5.51855 -31.2314 -13.9277t-26.2344 -18.3945q-12.1807 -9.98633 -25.2979 -18.3955t-28.1084 -13.9277t-34.3555 -5.51855q0.625 21.5488 20.9258 42.0459t49.9707 36.2646t64.6494 24.4395t65.8994 6.04395q30.9189 -2.62793 52.7812 -18.3955 q21.8623 -15.7666 25.6094 -48.8779q0 -36.2646 -14.6787 -72.0039t-37.4775 -69.376t-51.2197 -64.1191q-28.4209 -30.4834 -55.2803 -56.7627q36.2285 -2.62793 72.7695 5.78125t72.1455 19.4463q35.6035 11.0371 70.8955 20.7607q35.292 9.72266 70.2715 9.72266 q9.36914 0 17.8018 -3.67871t8.43262 -13.665t-8.12012 -16.8184t-20.6123 -11.0371q-12.4932 -4.2041 -27.1719 -6.04395t-27.7969 -2.89062q-13.1172 -1.05078 -22.7988 -1.05078t-11.5557 -0.526367q-6.87109 -1.05078 -24.6729 -5.51855 q-17.8018 -4.4668 -41.8506 -10.248q-24.0479 -5.78125 -51.8447 -11.8262q-27.7959 -6.04395 -55.5918 -10.7734q-27.7969 -4.73047 -52.7822 -7.3584t-42.4746 -1.57715q-17.4902 1.05176 -25.9229 7.0957t-2.81055 18.6582z" />
<glyph unicode="&#xb3;" horiz-adv-x="420" d="M15 214zM118.611 232.811q42.4512 10.3408 77.1289 27.29q34.6787 16.9482 59.791 37.0566q25.1113 20.1084 40.0586 40.791t17.6387 37.9189q2.69043 17.2354 -7.1748 29.0127q-9.86621 11.7783 -34.6787 13.502t-65.1709 -8.33105q-40.3584 -10.0537 -97.7568 -36.4824 l-26.3076 32.1738q14.3496 6.89453 35.874 16.6611t45.4404 21.832q23.916 12.0645 48.1309 25.2783q24.2148 13.2148 44.5439 26.4287q20.3281 13.2139 34.3789 25.8535t17.3389 22.9805q3.28906 10.3418 -6.27734 18.0977t-35.874 11.7783q-32.8848 0 -63.9756 -6.60742 t-61.8828 -14.3633t-61.584 -14.0752q-30.792 -6.32031 -62.4805 -6.32031q0 4.02148 0.298828 9.7666q0.299805 5.74609 1.79395 11.7783q1.49512 6.03223 4.7832 10.916q3.28906 4.88281 9.86523 7.18164q31.6895 7.46875 66.666 15.7988q34.9775 8.33105 69.9541 15.2256 q34.9775 6.89355 67.8623 10.6279t59.79 2.01074q26.9053 -1.72266 45.7393 -10.6279t26.0088 -26.7158q0 -18.959 -11.3604 -36.7695t-27.5039 -33.8965q-16.1426 -16.0869 -33.7812 -30.1631q-17.6377 -14.0752 -30.1934 -24.9912q49.0273 -0.575195 75.335 -12.0654 t34.0811 -29.3008q7.77246 -17.8096 0.298828 -40.5039q-7.47461 -22.6934 -25.4111 -45.6748q-17.9365 -22.9805 -43.6465 -44.5254t-54.1104 -37.6309q-28.4004 -16.0869 -57.0996 -24.418q-28.6992 -8.33008 -52.0176 -4.88281q-8.37012 0 -16.4414 4.02148 q-8.07227 4.02148 -8.07227 14.3633z" />
<glyph unicode="&#xb4;" horiz-adv-x="220" d="M117 756q13 16 25 21t20 1.5t13 -13t5 -20.5q-3 -12 -7.5 -21.5t-15.5 -22.5t-32 -31.5t-55 -46.5l-39 35z" />
<glyph unicode="&#xb5;" horiz-adv-x="628" d="M558 4q-7 -32 -21.5 -36.5t-40.5 10.5q-2 1 -2.5 13t-0.5 24.5t-0.5 22.5t-2.5 9q-44 -35 -101.5 -40.5t-111 7.5t-95.5 37t-56 48q-1 -27 0.5 -55t2.5 -55t0.5 -51t-6.5 -41q-7 -20 -23 -29t-47 0q2 11 0.5 51.5t-4.5 98.5t-5.5 127t-2.5 136.5t4 127.5t14 100 q11 42 30.5 47.5t51.5 -23.5q-1 -47 -5 -86.5t-7 -78t-2 -79t10 -89.5q16 -26 46.5 -47.5t66.5 -36.5t74.5 -21t72 -1t58 24t32.5 54q9 56 9 103t-4 86t-9 69.5t-4.5 52.5t9 35.5t30.5 19.5q16 -17 27 -54.5t17.5 -87t8.5 -106t1 -110.5t-4.5 -100.5t-9.5 -75.5z" />
<glyph unicode="&#xb6;" horiz-adv-x="485" d="M437 -1q-2 0 -17 1t-33 2q-2 0 -2 39t1 98t2.5 127t3 127t1.5 98t-2 39q-5 0 -7.5 1t-6.5 1q-3 0 -5 -39t-3 -98t-2 -127.5t-1.5 -127.5t-1 -98l-0.5 -39q-8 0 -20 -1t-23.5 2.5t-19 14t-6.5 31.5q1 9 2 27t1.5 40.5t1 46.5t1 46t0.5 39.5t1 25.5q-117 23 -182.5 63.5 t-86 84.5t0 85.5t76.5 66.5t144 27t202 -33z" />
<glyph unicode="&#xb7;" horiz-adv-x="180" d="M19 300q6 30 23 41.5t35 9t33 -16.5t17 -35q0 -30 -12 -39.5t-37 -9.5q-8 0 -18 3.5t-19 9.5t-15.5 15.5t-6.5 21.5z" />
<glyph unicode="&#xb8;" horiz-adv-x="341" d="M54 -230q40 -4 79.5 3t69 18.5t44.5 25.5t7.5 25t-43.5 15.5t-108 -1.5q-15 0 -23.5 15t-13 36t-5.5 44t-1 40q-4 35 4.5 41.5t19.5 0t19 -19t3 -16.5q0 -17 -0.5 -32.5t1.5 -27.5t7.5 -19t16.5 -7q58 6 95.5 -1.5t56.5 -24t22 -39t-8 -45.5t-33.5 -43.5t-54 -33.5 t-70.5 -15t-82 12q-3 0 -3 6.5t0.5 15t1 16.5t-1.5 11z" />
<glyph unicode="&#xb9;" horiz-adv-x="144" d="M33 181zM48.7168 523.016q-1.55273 14.5693 8.15527 18.4717t22.9121 3.90234q10.873 0 20.1934 -1.56055q9.32031 -1.56152 13.2031 -10.4062l-16.3096 -334.049q-0.777344 -6.24414 -8.93262 -10.9268q-8.1543 -4.68262 -18.251 -6.50391t-20.582 -0.520508 t-15.9219 5.9834q0.776367 12.4883 1.94141 39.0244q1.16504 26.5371 2.71875 59.5771q1.55273 33.041 3.10645 69.4639t3.10645 69.4629q1.55371 33.041 2.71875 59.3174t1.94141 38.7637z" />
<glyph unicode="&#xba;" horiz-adv-x="348" d="M28 184zM28.6357 310.573q0 43.4473 16.4131 74.4434q16.4141 30.9961 41.4902 51.6602t54.7119 31.5264q29.6357 10.8613 56.5361 14.041q25.9873 1.58887 48.7842 -7.68359q22.7969 -9.27148 39.21 -26.2266q16.4141 -16.9551 25.3047 -40.2686t6.61133 -49.2764 q0 -43.4473 -14.8184 -76.0322q-14.8174 -32.5859 -39.4375 -54.5742q-24.6211 -21.9893 -57.2197 -32.8506q-32.5996 -10.8623 -68.1621 -10.8623q-53.7998 0 -81.6123 29.1416q-27.8115 29.1416 -27.8115 96.9619zM67.8457 294.678q0 -22.2529 4.78711 -35.499 t14.1338 -19.8691t22.7969 -8.74316q13.4502 -2.11914 31.2314 -2.11914q27.3564 0 52.8887 6.09375q25.5322 6.09277 45.1367 20.6641q19.6055 14.5703 31.46 38.6787q11.8535 24.1074 11.8535 60.1367q0 18.5449 -4.55859 35.2354q-4.55957 16.6904 -13.6787 29.1416 q-9.11816 12.4512 -22.3398 19.8691q-13.2227 7.41797 -30.0918 7.41797q-22.3408 -4.23926 -44.6816 -9.80273t-41.9453 -20.1338q-19.6055 -14.5703 -34.6514 -42.918q-15.0459 -28.3467 -22.3408 -78.1523z" />
<glyph unicode="&#xbb;" horiz-adv-x="837" d="M147 60q-42 16 -55 33.5t-5.5 35.5t31.5 37t56 39t68 40.5t67.5 41t54.5 42t29 42.5l-331 124l63 61q41 -29 77.5 -46t70 -27t65.5 -16.5t64 -15t64 -23t67 -39.5q-32 -39 -81.5 -78.5t-104 -80.5t-107.5 -83.5t-93 -86.5zM431 95q-42 16 -55 33.5t-5.5 35.5t31.5 37 t56 39t68 40.5t67.5 41t54.5 42t29 42.5l-331 124l63 61q41 -29 77.5 -46t70 -27t65.5 -16.5t64 -15t64 -23t67 -39.5q-32 -39 -81.5 -78.5t-104 -80.5t-107.5 -83.5t-93 -86.5z" />
<glyph unicode="&#xbc;" horiz-adv-x="794" d="M16 0zM91.9805 499.449q-1.41699 13.1562 7.44238 16.6797q8.8584 3.52344 20.9072 3.52344q9.92285 0 18.4277 -1.40918t12.0488 -9.39648l-14.8838 -301.644q-0.708984 -5.6377 -8.15039 -9.86621q-7.44238 -4.22852 -16.6553 -5.87305 q-9.21387 -1.64453 -18.7822 -0.469727q-9.56738 1.17383 -14.5293 5.40234q0.708984 11.2773 1.77246 35.2393q1.0625 23.9619 2.48047 53.7979q1.41699 29.835 2.83496 62.7246q1.41699 32.8896 2.83496 62.7246q1.41699 29.8359 2.48047 53.5625 q1.0625 23.7275 1.77148 35.0039zM16 42q2 8 24.5 46t58.5 94.5t81.5 127t93 143t93 142t82.5 125t60.5 91t27.5 40.5q10 -6 2 -39t-30 -85.5t-55.5 -119t-74 -138.5t-85.5 -144.5t-90 -137t-87.5 -116t-77.5 -81.5q-9 0 -14 6.5t-7 15.5t-2 17.5v12.5zM438.067 166.293 h-54.9668q-23.3828 0 -45.5518 0.283203t-45.5518 0.283203h-54.9668q-4.8584 0 -10.0215 0.566406q-5.16211 0.567383 -9.71777 2.26758q-4.55469 1.7002 -7.28809 5.10059t-2.7334 9.63574q30.3682 36.2734 59.5215 73.1133t56.1807 69.4297 q27.0283 32.5889 51.3223 58.0938q24.2949 25.5049 44.9443 38.541q20.6504 13.0352 36.7461 11.0518q16.0947 -1.9834 27.0273 -24.0879t15.4873 -66.8789q4.55566 -44.7754 2.12598 -117.889l167.632 2.2666q0 -2.83398 -0.607422 -8.78418 q-0.607422 -5.95117 -2.42969 -11.9023t-4.25098 -10.4854q-2.42969 -4.53418 -6.07422 -5.10156l-140.907 -10.7686q-5.4668 -13.6025 -8.50293 -33.4395q-3.03711 -19.8369 -4.85938 -41.6572q-1.82227 -21.8213 -2.42969 -43.3584t-0.607422 -39.1074 q-4.8584 0 -14.5762 -1.9834q-9.71777 -1.98438 -19.7393 -3.40137t-18.2207 -0.283203t-10.0215 7.93457zM438.067 369.197q-16.3994 -20.9707 -40.3896 -41.0908q-23.9912 -20.1211 -46.7666 -40.2412q-22.7764 -20.1201 -40.9971 -40.8076t-23.0801 -42.791 q36.4414 -0.567383 73.7949 3.68359q37.3525 4.25098 77.4385 8.21777v153.029z" />
<glyph unicode="&#xbd;" horiz-adv-x="830" d="M29 0zM48.1836 490.316q-1.53418 13.2344 8.05273 16.7793t22.626 3.54492q10.7373 0 19.9404 -1.41797q9.2041 -1.41797 13.0391 -9.45312l-16.1064 -303.445q-0.766602 -5.67188 -8.82031 -9.92578q-8.05273 -4.25391 -18.0234 -5.9082t-20.3252 -0.472656 q-10.3535 1.18164 -15.7227 5.43555q0.767578 11.3438 1.91797 35.4492t2.68359 54.1191q1.53418 30.0137 3.06836 63.0996t3.06738 63.0996q1.53418 30.0137 2.68457 53.8828t1.91797 35.2129zM29 52q2 8 24.5 46t58.5 94.5t81.5 127t93 143t93 142t82.5 125t60.5 91 t27.5 40.5q10 -6 2 -39t-30 -85.5t-55.5 -119t-74 -138.5t-85.5 -144.5t-90 -137t-87.5 -116t-77.5 -81.5q-9 0 -14 6.5t-7 15.5t-2 17.5v12.5zM259.252 47.6992q26.4707 21.9004 59.2432 55.3438q32.7734 33.4434 63.6553 71.0303q30.8828 37.5869 55.4619 75.7656 q24.5801 38.1787 34.3486 70.7344t0.945312 55.3447t-44.748 29.8916q-22.6885 0 -40.0205 -6.21484t-31.5127 -15.6855q-14.1797 -9.4707 -26.4697 -20.7178q-12.29 -11.2461 -25.5254 -20.7168t-28.3613 -15.6855q-15.126 -6.21582 -34.6631 -6.21582 q0.629883 24.2686 21.1133 47.3535q20.4824 23.085 50.4199 40.8428q29.9365 17.7578 65.2305 27.5244t66.4912 6.80664q31.1973 -2.95898 53.2559 -20.7168t25.8408 -55.0488q0 -40.8418 -14.8115 -81.0928q-14.8105 -40.25 -37.8145 -78.1328 q-23.0049 -37.8828 -51.6807 -72.2148q-28.6768 -34.3311 -55.7773 -63.9268q36.5547 -2.95996 73.4238 6.51074q36.8701 9.4707 72.7939 21.9014q35.9248 12.4307 71.5332 23.3809q35.6094 10.9502 70.9033 10.9502q9.4541 0 17.9619 -4.14355 q8.50879 -4.14355 8.50879 -15.3896t-8.19336 -18.9414t-20.7988 -12.4307q-12.6045 -4.73535 -27.415 -6.80664q-14.8115 -2.07129 -28.0459 -3.25586q-13.2354 -1.18359 -23.0049 -1.18359q-9.76855 0 -11.6592 -0.591797q-6.93262 -1.18359 -24.8945 -6.21484 q-17.9629 -5.03223 -42.2275 -11.543t-52.3105 -13.3184q-28.0459 -6.80664 -56.0918 -12.1338t-53.2559 -8.28711t-42.8574 -1.77539q-17.6465 1.18359 -26.1553 7.99023q-8.50781 6.80762 -2.83594 21.0137z" />
<glyph unicode="&#xbe;" horiz-adv-x="1104" d="M12 0zM133.236 199.101q49.9824 11.0908 90.8135 29.2676q40.8311 18.1758 70.3975 39.7412q29.5674 21.5654 47.167 43.7471q17.5996 22.1807 20.7676 40.665q3.16797 18.4854 -8.44824 31.1162q-11.6152 12.6309 -40.8311 14.4795q-29.2148 1.84863 -76.7334 -8.93457 q-47.5186 -10.7822 -115.101 -39.125l-30.9756 34.5039q16.8965 7.39355 42.2393 17.8682t53.5029 23.4141q28.1582 12.9395 56.6699 27.1104q28.5107 14.1719 52.4463 28.3428q23.9355 14.1719 40.4785 27.7275q16.5439 13.5547 20.416 24.6455t-7.3916 19.4092 q-11.2637 8.31738 -42.2393 12.6309q-38.7188 0 -75.3252 -7.08594q-36.6074 -7.08594 -72.8623 -15.4033q-36.2549 -8.31836 -72.5098 -15.0957q-36.2549 -6.77832 -73.5664 -6.77832q0 4.31348 0.352539 10.4746q0.351562 6.16211 2.11133 12.6318 q1.76074 6.46875 5.63184 11.7061q3.87207 5.2373 11.6162 7.70215q37.3105 8.00977 78.4932 16.9443q41.1836 8.93359 82.3662 16.3281q41.1826 7.39355 79.9014 11.3984t70.3984 2.15625q31.6787 -1.84863 53.8545 -11.3984q22.1748 -9.55078 30.623 -28.6514 q0 -20.333 -13.376 -39.4336t-32.3828 -36.3525q-19.0078 -17.252 -39.7754 -32.3477q-20.7666 -15.0957 -35.5508 -26.8027q57.7266 -0.616211 88.7012 -12.9395q30.9756 -12.3223 40.127 -31.4229q9.15234 -19.1016 0.352539 -43.4395t-29.9199 -48.9834 q-21.1191 -24.6465 -51.3896 -47.752q-30.2715 -23.1055 -63.7109 -40.3574q-33.4385 -17.252 -67.2295 -26.1865t-61.2461 -5.2373q-9.85547 0 -19.3594 4.31348q-9.50391 4.3125 -9.50391 15.4033zM252 27q2 8 24.5 46t58.5 94.5t81.5 127t93 143t93 142t82.5 125t60.5 91 t27.5 40.5q10 -6 2 -39t-30 -85.5t-55.5 -119t-74 -138.5t-85.5 -144.5t-90 -137t-87.5 -116t-77.5 -81.5q-9 0 -14 6.5t-7 15.5t-2 17.5v12.5zM645.272 186.744h-59.6172t-49.4062 0.321289q-24.0449 0.321289 -49.4062 0.321289h-59.6172q-5.27051 0 -10.8701 0.642578 q-5.59863 0.642578 -10.54 2.56934q-4.94043 1.92773 -7.9043 5.78125q-2.96484 3.85449 -2.96484 10.9209q32.9375 41.1133 64.5576 82.8691t60.9346 78.6934t55.665 65.8457q26.3496 28.9072 48.748 43.6826q22.3975 14.7754 39.8545 12.5264 q17.4561 -2.24805 29.3145 -27.3018q11.8574 -25.0527 16.7979 -75.8018q4.94043 -50.75 2.30566 -133.618l181.815 2.56934q0 -3.21191 -0.658203 -9.95703q-0.65918 -6.74512 -2.63574 -13.4902q-1.97559 -6.74512 -4.61133 -11.8848q-2.63477 -5.13867 -6.58691 -5.78125 l-152.831 -12.2061q-5.92871 -15.417 -9.22266 -37.9014q-3.29297 -22.4834 -5.26953 -47.2158t-2.63477 -49.1426q-0.65918 -24.4111 -0.65918 -44.3252q-5.26953 0 -15.8096 -2.24902q-10.54 -2.24805 -21.4102 -3.85449q-10.8691 -1.60547 -19.7627 -0.321289 q-8.89258 1.28516 -10.8691 8.99414zM645.272 416.722q-17.7861 -23.7686 -43.8066 -46.5732q-26.0215 -22.8057 -50.7246 -45.6104t-44.4658 -46.252q-19.7627 -23.4482 -25.0322 -48.501q39.5254 -0.642578 80.0381 4.1748q40.5137 4.81836 83.9912 9.31543v173.446z" />
<glyph unicode="&#xbf;" horiz-adv-x="647" d="M17 0zM310.606 638.594q0 -37.2734 44.5234 -37.2734q18.2139 -4.33398 29.8516 0.867188q11.6367 5.2002 17.708 14.7354t6.07129 22.1045q0 12.5684 -6.07129 22.1035t-18.2148 14.7363q-12.1426 5.2002 -29.3447 0.866211q-44.5234 0 -44.5234 -38.1396z M164.893 305.734q22.2617 -11.2686 60.208 -28.6055q37.9463 -17.3359 80.9521 -38.5732t87.5293 -45.5088q44.5234 -24.2705 79.9404 -49.4082t57.1729 -49.8428q21.7559 -24.7041 19.2256 -46.8076q-2.5293 -22.1045 -32.8867 -41.1738 q-30.3574 -19.0703 -99.166 -32.9395q-45.5361 0 -89.0479 5.63379q-43.5117 5.63477 -86.5176 13.0029q-43.0059 7.36719 -86.0117 13.002t-86.5176 5.63477q-7.08301 0 -15.1787 -4.76758q-8.09473 -4.76758 -15.6846 -11.7021q-7.58887 -6.93457 -13.6602 -16.0361 t-8.0957 -16.9033q97.1426 -26.8711 187.708 -36.8398t166.964 -5.20117t135.089 22.5371q58.6904 17.7705 91.0713 45.9424q32.3809 28.1709 34.9111 65.0107q2.5293 36.8408 -31.3691 79.3145q-33.8994 42.4746 -109.286 89.2822q-75.3867 46.8086 -199.851 94.4844 l145.714 35.5391v25.1377q-11.1309 0.867188 -38.958 2.16699q-27.8271 1.30078 -62.2314 0.867188q-34.4053 -0.433594 -69.8213 -3.4668q-35.417 -3.03418 -61.7266 -11.2695q-26.3096 -8.23438 -38.958 -22.1035t-1.51758 -36.4062z" />
<glyph unicode="&#xc0;" horiz-adv-x="820" d="M25 0zM97 10q-4 -5 -16.5 -4t-25.5 6t-22.5 11.5t-7.5 11.5q10 27 31.5 84t48 128.5t56 150.5t56 150.5t47.5 128t31 84.5q8 23 11 42.5t9.5 33.5t20 21.5t42.5 7.5q36 -21 60 -49.5t42 -62t31.5 -70.5l27 -74t29 -73t38.5 -67q8 -12 23.5 -16t34 -4.5t38 1t35.5 -0.5 t26.5 -8.5t10.5 -22.5q4 -21 -4 -31t-22.5 -13.5t-33 -3t-34 1.5t-25.5 0.5t-8 -6.5q12 -37 26.5 -82t32.5 -90t39 -87t46 -72q-5 -6 -18 -17.5t-26.5 -22t-25 -17.5t-13.5 -4l-176 372l-341 -84q-5 -20 -13.5 -52.5t-20 -69t-26.5 -72t-34 -59.5zM367 721 q-6 -45 -22.5 -93.5t-37 -96t-41.5 -92t-37 -81.5q36 0 72 7.5t70 19t66 24.5t61 24q-3 14 -9 38.5t-14.5 53t-19 59.5t-24 58t-29.5 48t-35 31zM447 985l-21 -54q-32 22 -51 36t-30 25t-17 20.5t-10 22.5q-2 13 -0.5 25t7.5 18.5t15.5 5t22.5 -16.5z" />
<glyph unicode="&#xc1;" horiz-adv-x="820" d="M32 0zM104 17q-4 -5 -16.5 -4t-25.5 6t-22.5 11.5t-7.5 11.5q10 27 31.5 84t48 128.5t56 150.5t56 150.5t47.5 128t31 84.5q8 23 11 42.5t9.5 33.5t20 21.5t42.5 7.5q36 -21 60 -49.5t42 -62t31.5 -70.5l27 -74t29 -73t38.5 -67q8 -12 23.5 -16t34 -4.5t38 1t35.5 -0.5 t26.5 -8.5t10.5 -22.5q4 -21 -4 -31t-22.5 -13.5t-33 -3t-34 1.5t-25.5 0.5t-8 -6.5q12 -37 26.5 -82t32.5 -90t39 -87t46 -72q-5 -6 -18 -17.5t-26.5 -22t-25 -17.5t-13.5 -4l-176 372l-341 -84q-5 -20 -13.5 -52.5t-20 -69t-26.5 -72t-34 -59.5zM374 728 q-6 -45 -22.5 -93.5t-37 -96t-41.5 -92t-37 -81.5q36 0 72 7.5t70 19t66 24.5t61 24q-3 14 -9 38.5t-14.5 53t-19 59.5t-24 58t-29.5 48t-35 31zM343 1075q13 16 25 21t20 1.5t13 -13t5 -20.5q-3 -12 -7.5 -21.5t-15.5 -22.5t-32 -31.5t-55 -46.5l-39 35z" />
<glyph unicode="&#xc2;" horiz-adv-x="820" d="M32 0zM104 17q-4 -5 -16.5 -4t-25.5 6t-22.5 11.5t-7.5 11.5q10 27 31.5 84t48 128.5t56 150.5t56 150.5t47.5 128t31 84.5q8 23 11 42.5t9.5 33.5t20 21.5t42.5 7.5q36 -21 60 -49.5t42 -62t31.5 -70.5l27 -74t29 -73t38.5 -67q8 -12 23.5 -16t34 -4.5t38 1t35.5 -0.5 t26.5 -8.5t10.5 -22.5q4 -21 -4 -31t-22.5 -13.5t-33 -3t-34 1.5t-25.5 0.5t-8 -6.5q12 -37 26.5 -82t32.5 -90t39 -87t46 -72q-5 -6 -18 -17.5t-26.5 -22t-25 -17.5t-13.5 -4l-176 372l-341 -84q-5 -20 -13.5 -52.5t-20 -69t-26.5 -72t-34 -59.5zM374 728 q-6 -45 -22.5 -93.5t-37 -96t-41.5 -92t-37 -81.5q36 0 72 7.5t70 19t66 24.5t61 24q-3 14 -9 38.5t-14.5 53t-19 59.5t-24 58t-29.5 48t-35 31zM197 889q0 15 13 38t37 47.5t57.5 49t73.5 42.5q27 -17 47.5 -30.5t38.5 -30t36.5 -39.5t41.5 -60q8 -15 8.5 -28t-5.5 -21 t-17.5 -9t-27.5 8q-18 13 -28 20t-16 11.5t-10.5 9.5t-13 13.5t-23 23.5t-40.5 41q-27 -19 -46.5 -35t-33.5 -31.5t-23.5 -31t-16.5 -33.5q-23 0 -37.5 6.5t-14.5 38.5z" />
<glyph unicode="&#xc3;" horiz-adv-x="820" d="M32 0zM104 17q-4 -5 -16.5 -4t-25.5 6t-22.5 11.5t-7.5 11.5q10 27 31.5 84t48 128.5t56 150.5t56 150.5t47.5 128t31 84.5q8 23 11 42.5t9.5 33.5t20 21.5t42.5 7.5q36 -21 60 -49.5t42 -62t31.5 -70.5l27 -74t29 -73t38.5 -67q8 -12 23.5 -16t34 -4.5t38 1t35.5 -0.5 t26.5 -8.5t10.5 -22.5q4 -21 -4 -31t-22.5 -13.5t-33 -3t-34 1.5t-25.5 0.5t-8 -6.5q12 -37 26.5 -82t32.5 -90t39 -87t46 -72q-5 -6 -18 -17.5t-26.5 -22t-25 -17.5t-13.5 -4l-176 372l-341 -84q-5 -20 -13.5 -52.5t-20 -69t-26.5 -72t-34 -59.5zM374 728 q-6 -45 -22.5 -93.5t-37 -96t-41.5 -92t-37 -81.5q36 0 72 7.5t70 19t66 24.5t61 24q-3 14 -9 38.5t-14.5 53t-19 59.5t-24 58t-29.5 48t-35 31zM396 946q-25 22 -44 37t-38.5 13.5t-43 -24t-59.5 -75.5q-4 0 -11 1t-14 4t-13 8t-8 13q19 60 56.5 106t79.5 63q17 7 32.5 1 t31 -18.5t30 -29t30 -31.5t32 -25t34.5 -10q28 0 43.5 8.5t28.5 25t28.5 40.5t43.5 54q8 0 16 -13.5t8 -23.5q5 -28 -6 -55t-32.5 -49t-51 -37t-60.5 -19.5t-60.5 3.5t-52.5 33z" />
<glyph unicode="&#xc4;" horiz-adv-x="820" d="M32 0zM104 17q-4 -5 -16.5 -4t-25.5 6t-22.5 11.5t-7.5 11.5q10 27 31.5 84t48 128.5t56 150.5t56 150.5t47.5 128t31 84.5q8 23 11 42.5t9.5 33.5t20 21.5t42.5 7.5q36 -21 60 -49.5t42 -62t31.5 -70.5l27 -74t29 -73t38.5 -67q8 -12 23.5 -16t34 -4.5t38 1t35.5 -0.5 t26.5 -8.5t10.5 -22.5q4 -21 -4 -31t-22.5 -13.5t-33 -3t-34 1.5t-25.5 0.5t-8 -6.5q12 -37 26.5 -82t32.5 -90t39 -87t46 -72q-5 -6 -18 -17.5t-26.5 -22t-25 -17.5t-13.5 -4l-176 372l-341 -84q-5 -20 -13.5 -52.5t-20 -69t-26.5 -72t-34 -59.5zM374 728 q-6 -45 -22.5 -93.5t-37 -96t-41.5 -92t-37 -81.5q36 0 72 7.5t70 19t66 24.5t61 24q-3 14 -9 38.5t-14.5 53t-19 59.5t-24 58t-29.5 48t-35 31zM258 978q0 5 9.5 12.5t21.5 13.5q13 7 31 15q26 0 35.5 -11t9.5 -31q0 -15 -7.5 -23.5t-19 -12.5t-25 -5t-25.5 -1 q-16 0 -23 9.5t-7 33.5zM438 978q0 5 9.5 12.5t21.5 13.5q14 7 32 15q26 0 35.5 -11t9.5 -31q0 -15 -7.5 -23.5t-19 -12.5t-25.5 -5t-26 -1q-16 0 -23 9.5t-7 33.5z" />
<glyph unicode="&#xc5;" horiz-adv-x="820" d="M32 0zM104 17q-4 -5 -16.5 -4t-25.5 6t-22.5 11.5t-7.5 11.5q10 27 31.5 84t48 128.5t56 150.5t56 150.5t47.5 128t31 84.5q8 23 11 42.5t9.5 33.5t20 21.5t42.5 7.5q36 -21 60 -49.5t42 -62t31.5 -70.5l27 -74t29 -73t38.5 -67q8 -12 23.5 -16t34 -4.5t38 1t35.5 -0.5 t26.5 -8.5t10.5 -22.5q4 -21 -4 -31t-22.5 -13.5t-33 -3t-34 1.5t-25.5 0.5t-8 -6.5q12 -37 26.5 -82t32.5 -90t39 -87t46 -72q-5 -6 -18 -17.5t-26.5 -22t-25 -17.5t-13.5 -4l-176 372l-341 -84q-5 -20 -13.5 -52.5t-20 -69t-26.5 -72t-34 -59.5zM374 728 q-6 -45 -22.5 -93.5t-37 -96t-41.5 -92t-37 -81.5q36 0 72 7.5t70 19t66 24.5t61 24q-3 14 -9 38.5t-14.5 53t-19 59.5t-24 58t-29.5 48t-35 31zM254 936q0 42 15 66.5t38 34.5t50 7t51 -17t41 -36.5t20 -50.5q0 -63 -26 -83.5t-77 -20.5q-16 0 -35.5 6t-36.5 18.5 t-28.5 31.5t-11.5 44zM410 961q-21 23 -45 28t-41 -4.5t-21 -31t15 -52.5q23 -19 44.5 -21t35.5 8t18.5 29.5t-6.5 43.5z" />
<glyph unicode="&#xc6;" horiz-adv-x="1122" d="M496 4q-16 2 -28 4.5t-14 4.5l-31 302l-220 -32q-5 -20 -13.5 -52.5t-20 -69t-26.5 -72t-34 -59.5q-4 -5 -15.5 -4t-24 5.5t-22.5 11t-10 12.5q-1 23 12.5 72.5t35.5 114t50 137t57 140t55.5 123t46.5 87.5q26 58 56 86.5t58.5 33.5t53 -9.5t39.5 -41.5q26 -7 65 -9.5 t83.5 -3t91.5 0t91 -1t81 -6t62 -13.5v-62q-34 -5 -78.5 -3.5t-94.5 3t-103 0t-103 -12.5q-9 -41 -13 -68.5t-5.5 -48t-1 -38.5t2 -38.5t3 -47.5t1.5 -66q64 0 110 4.5t88.5 10.5t88.5 10.5t109 4.5v-68l-387 -47l7 -205q62 0 109.5 1.5t86.5 4t73 5t68.5 5t74 4t89.5 1.5 q6 -3 4.5 -12t-10 -20.5t-24.5 -22t-39 -16.5q-138 -15 -276 -24t-259 -19v4zM427 733q-29 -44 -58.5 -90.5t-55 -93t-44.5 -90.5t-28 -81q36 0 60 3t44 7t41 7.5t50 5.5q-5 21 -3.5 55t3.5 77.5t1.5 94t-10.5 105.5z" />
<glyph unicode="&#xc7;" horiz-adv-x="906" d="M27 0zM27 312q0 103 37 197t101.5 165.5t152 114t189.5 42.5q41 0 68.5 -4.5t44.5 -19t24.5 -41.5t7.5 -72q-58 58 -121.5 72.5t-124 -3t-114 -62t-92 -104t-58 -129t-12.5 -136.5q0 -63 22.5 -110.5t61 -78.5t90.5 -46.5t111 -15.5q74 6 130 25t102.5 46t89 58.5 t89.5 61.5q9 0 18.5 -1t17.5 -4t13 -9.5t5 -18.5q-50 -44 -108 -88t-122.5 -78.5t-135 -55t-144.5 -18.5q-66 0 -128 22.5t-110 64t-76.5 99t-28.5 127.5zM330 -221q40 -4 79.5 3t69 18.5t44.5 25.5t7.5 25t-43.5 15.5t-108 -1.5q-15 0 -23.5 15t-13 36t-5.5 44t-1 40 q-4 35 4.5 41.5t19.5 0t19 -19t3 -16.5q0 -17 -0.5 -32.5t1.5 -27.5t7.5 -19t16.5 -7q58 6 95.5 -1.5t56.5 -24t22 -39t-8 -45.5t-33.5 -43.5t-54 -33.5t-70.5 -15t-82 12q-3 0 -3 6.5t0.5 15t1 16.5t-1.5 11z" />
<glyph unicode="&#xc8;" horiz-adv-x="757" d="M38 0zM43 798q26 -7 71.5 -8.5t100 -0.5t114 3t113 2t97.5 -3.5t69 -12.5v-62q-34 -5 -93 -6t-126 -1.5t-134 -4t-117 -14.5q-9 -41 -13 -68.5t-5.5 -48t-1 -38.5t2 -38.5t3 -47.5t1.5 -66q64 0 124.5 6.5t120 15t119.5 15t123 6.5v-68l-478 -60l7 -205q94 0 170 5.5 t144.5 11.5t135.5 11.5t142 5.5q0 -11 -6 -26.5t-16 -28t-22.5 -19t-24.5 2.5q-69 -8 -152.5 -15.5t-169 -15t-165 -14t-139.5 -11.5zM364 896l-21 -54q-32 22 -51 36t-30 25t-17 20.5t-10 22.5q-2 13 -0.5 25t7.5 18.5t15.5 5t22.5 -16.5z" />
<glyph unicode="&#xc9;" horiz-adv-x="757" d="M38 0zM43 798q26 -7 71.5 -8.5t100 -0.5t114 3t113 2t97.5 -3.5t69 -12.5v-62q-34 -5 -93 -6t-126 -1.5t-134 -4t-117 -14.5q-9 -41 -13 -68.5t-5.5 -48t-1 -38.5t2 -38.5t3 -47.5t1.5 -66q64 0 124.5 6.5t120 15t119.5 15t123 6.5v-68l-478 -60l7 -205q94 0 170 5.5 t144.5 11.5t135.5 11.5t142 5.5q0 -11 -6 -26.5t-16 -28t-22.5 -19t-24.5 2.5q-69 -8 -152.5 -15.5t-169 -15t-165 -14t-139.5 -11.5zM351 985q13 16 25 21t20 1.5t13 -13t5 -20.5q-3 -12 -7.5 -21.5t-15.5 -22.5t-32 -31.5t-55 -46.5l-39 35z" />
<glyph unicode="&#xca;" horiz-adv-x="757" d="M38 0zM43 798q26 -7 71.5 -8.5t100 -0.5t114 3t113 2t97.5 -3.5t69 -12.5v-62q-34 -5 -93 -6t-126 -1.5t-134 -4t-117 -14.5q-9 -41 -13 -68.5t-5.5 -48t-1 -38.5t2 -38.5t3 -47.5t1.5 -66q64 0 124.5 6.5t120 15t119.5 15t123 6.5v-68l-478 -60l7 -205q94 0 170 5.5 t144.5 11.5t135.5 11.5t142 5.5q0 -11 -6 -26.5t-16 -28t-22.5 -19t-24.5 2.5q-69 -8 -152.5 -15.5t-169 -15t-165 -14t-139.5 -11.5zM178 889q0 15 13 38t37 47.5t57.5 49t73.5 42.5q27 -17 47.5 -30.5t38.5 -30t36.5 -39.5t41.5 -60q8 -15 8.5 -28t-5.5 -21t-17.5 -9 t-27.5 8q-18 13 -28 20t-16 11.5t-10.5 9.5t-13 13.5t-23 23.5t-40.5 41q-27 -19 -46.5 -35t-33.5 -31.5t-23.5 -31t-16.5 -33.5q-23 0 -37.5 6.5t-14.5 38.5z" />
<glyph unicode="&#xcb;" horiz-adv-x="757" d="M38 0zM43 798q26 -7 71.5 -8.5t100 -0.5t114 3t113 2t97.5 -3.5t69 -12.5v-62q-34 -5 -93 -6t-126 -1.5t-134 -4t-117 -14.5q-9 -41 -13 -68.5t-5.5 -48t-1 -38.5t2 -38.5t3 -47.5t1.5 -66q64 0 124.5 6.5t120 15t119.5 15t123 6.5v-68l-478 -60l7 -205q94 0 170 5.5 t144.5 11.5t135.5 11.5t142 5.5q0 -11 -6 -26.5t-16 -28t-22.5 -19t-24.5 2.5q-69 -8 -152.5 -15.5t-169 -15t-165 -14t-139.5 -11.5zM208 884q0 5 9.5 12.5t21.5 13.5q13 7 31 15q26 0 35.5 -11t9.5 -31q0 -15 -7.5 -23.5t-19 -12.5t-25 -5t-25.5 -1q-16 0 -23 9.5t-7 33.5 zM388 884q0 5 9.5 12.5t21.5 13.5q14 7 32 15q26 0 35.5 -11t9.5 -31q0 -15 -7.5 -23.5t-19 -12.5t-25.5 -5t-26 -1q-16 0 -23 9.5t-7 33.5z" />
<glyph unicode="&#xcc;" d="M10 0zM48 20q-7 15 -10 52.5t-4.5 88t-0.5 110.5t2.5 120.5t3.5 117t4.5 100t3.5 70t1 27.5q15 9 26.5 15t26.5 6q9 0 19.5 -4t10.5 -17v-686q0 -13 -10.5 -17t-19.5 -4q-15 0 -26.5 6t-26.5 15zM140 852l-21 -54q-32 22 -51 36t-30 25t-17 20.5t-10 22.5q-2 13 -0.5 25 t7.5 18.5t15.5 5t22.5 -16.5z" />
<glyph unicode="&#xcd;" d="M15 0zM48 20q-7 15 -10 52.5t-4.5 88t-0.5 110.5t2.5 120.5t3.5 117t4.5 100t3.5 70t1 27.5q15 9 26.5 15t26.5 6q9 0 19.5 -4t10.5 -17v-686q0 -13 -10.5 -17t-19.5 -4q-15 0 -26.5 6t-26.5 15zM101 889q13 16 25 21t20 1.5t13 -13t5 -20.5q-3 -12 -7.5 -21.5 t-15.5 -22.5t-32 -31.5t-55 -46.5l-39 35z" />
<glyph unicode="&#xce;" d="M0 0zM48 20q-7 15 -10 52.5t-4.5 88t-0.5 110.5t2.5 120.5t3.5 117t4.5 100t3.5 70t1 27.5q15 9 26.5 15t26.5 6q9 0 19.5 -4t10.5 -17v-686q0 -13 -10.5 -17t-19.5 -4q-15 0 -26.5 6t-26.5 15zM-72 807q0 15 13 38t37 47.5t57.5 49t73.5 42.5q27 -17 47.5 -30.5 t38.5 -30t36.5 -39.5t41.5 -60q8 -15 8.5 -28t-5.5 -21t-17.5 -9t-27.5 8q-18 13 -28 20t-16 11.5t-10.5 9.5t-13 13.5t-23 23.5t-40.5 41q-27 -19 -46.5 -35t-33.5 -31.5t-23.5 -31t-16.5 -33.5q-23 0 -37.5 6.5t-14.5 38.5z" />
<glyph unicode="&#xcf;" d="M0 0zM48 20q-7 15 -10 52.5t-4.5 88t-0.5 110.5t2.5 120.5t3.5 117t4.5 100t3.5 70t1 27.5q15 9 26.5 15t26.5 6q9 0 19.5 -4t10.5 -17v-686q0 -13 -10.5 -17t-19.5 -4q-15 0 -26.5 6t-26.5 15zM-59 828q0 5 9.5 12.5t21.5 13.5q13 7 31 15q26 0 35.5 -11t9.5 -31 q0 -15 -7.5 -23.5t-19 -12.5t-25 -5t-25.5 -1q-16 0 -23 9.5t-7 33.5zM121 828q0 5 9.5 12.5t21.5 13.5q14 7 32 15q26 0 35.5 -11t9.5 -31q0 -15 -7.5 -23.5t-19 -12.5t-25.5 -5t-26 -1q-16 0 -23 9.5t-7 33.5z" />
<glyph unicode="&#xd0;" horiz-adv-x="873" d="M12 274q0 17 14.5 23.5t29.5 8.5q9 1 17.5 2t17.5 3v486h17t26.5 -2.5t25 -8.5t14.5 -18q27 9 70 17t95 11.5t109.5 2t113.5 -11t106.5 -28.5t89 -50t61 -75t22.5 -105q5 -55 -17.5 -108.5t-64.5 -103.5t-99 -95t-120.5 -82t-130 -65.5t-126.5 -45t-110.5 -20.5t-81.5 8 v226l-16 -1q-8 0 -19 1t-20.5 4.5t-16.5 9.5t-7 17zM757 519q-7 61 -41 101.5t-84 64t-110.5 32t-120.5 6.5t-114 -12.5t-91 -25.5v-357l42 6t43 5q25 0 42.5 -8.5t23 -20t-1.5 -24t-30 -19.5l-119 -13v-165q41 0 98.5 17t120 47t124 71.5t110 89t78.5 100t30 105.5z" />
<glyph unicode="&#xd1;" horiz-adv-x="803" d="M31 0zM638 4q-47 82 -107.5 165.5t-124.5 168t-127 168.5t-115 167q-9 -39 -14 -91t-7.5 -111t-3 -121.5t-0.5 -123t-1 -115.5t-4 -98q-17 -15 -30.5 -19t-32.5 -4q-18 0 -30 6.5t-10 36.5q6 51 11 117.5t8.5 140t5.5 151.5t3 151.5t1 140t-2 117.5q20 19 33 30.5 t25.5 11.5t27.5 -13t38 -44t58 -81t87 -124t125.5 -173.5t173.5 -228.5l24 622q13 25 27 34.5t37 9.5q21 0 30 -15.5t12 -36.5t1.5 -42t-1.5 -32q0 -39 1 -105t1.5 -144t0 -160.5t-3.5 -155.5t-9 -128.5t-17 -79.5zM383 972q-25 22 -44 37t-38.5 13.5t-43 -24t-59.5 -75.5 q-4 0 -11 1t-14 4t-13 8t-8 13q19 60 56.5 106t79.5 63q17 7 32.5 1t31 -18.5t30 -29t30 -31.5t32 -25t34.5 -10q28 0 43.5 8.5t28.5 25t28.5 40.5t43.5 54q8 0 16 -13.5t8 -23.5q5 -28 -6 -55t-32.5 -49t-51 -37t-60.5 -19.5t-60.5 3.5t-52.5 33z" />
<glyph unicode="&#xd2;" horiz-adv-x="858" d="M28 18zM28 374q0 86 29.5 157t80.5 121.5t121 78.5t151 28q78 0 151.5 -19.5t130.5 -60.5t91.5 -104.5t34.5 -152.5q0 -206 -96.5 -305t-297.5 -99q-85 0 -157.5 20t-125.5 62.5t-83 110t-30 163.5zM130 394q0 -149 74.5 -222t222.5 -73q74 0 135 23t104 64.5t66.5 99 t23.5 127.5t-30 119.5t-78 81t-109.5 45.5t-124.5 14q-56 0 -107.5 -22t-90.5 -59.5t-62.5 -88.5t-23.5 -109zM483 869l-21 -54q-32 22 -51 36t-30 25t-17 20.5t-10 22.5q-2 13 -0.5 25t7.5 18.5t15.5 5t22.5 -16.5z" />
<glyph unicode="&#xd3;" horiz-adv-x="858" d="M28 18zM28 374q0 86 29.5 157t80.5 121.5t121 78.5t151 28q78 0 151.5 -19.5t130.5 -60.5t91.5 -104.5t34.5 -152.5q0 -206 -96.5 -305t-297.5 -99q-85 0 -157.5 20t-125.5 62.5t-83 110t-30 163.5zM130 394q0 -149 74.5 -222t222.5 -73q74 0 135 23t104 64.5t66.5 99 t23.5 127.5t-30 119.5t-78 81t-109.5 45.5t-124.5 14q-56 0 -107.5 -22t-90.5 -59.5t-62.5 -88.5t-23.5 -109zM448 942q13 16 25 21t20 1.5t13 -13t5 -20.5q-3 -12 -7.5 -21.5t-15.5 -22.5t-32 -31.5t-55 -46.5l-39 35z" />
<glyph unicode="&#xd4;" horiz-adv-x="858" d="M28 18zM28 374q0 86 29.5 157t80.5 121.5t121 78.5t151 28q78 0 151.5 -19.5t130.5 -60.5t91.5 -104.5t34.5 -152.5q0 -206 -96.5 -305t-297.5 -99q-85 0 -157.5 20t-125.5 62.5t-83 110t-30 163.5zM130 394q0 -149 74.5 -222t222.5 -73q74 0 135 23t104 64.5t66.5 99 t23.5 127.5t-30 119.5t-78 81t-109.5 45.5t-124.5 14q-56 0 -107.5 -22t-90.5 -59.5t-62.5 -88.5t-23.5 -109zM255 815q0 15 13 38t37 47.5t57.5 49t73.5 42.5q27 -17 47.5 -30.5t38.5 -30t36.5 -39.5t41.5 -60q8 -15 8.5 -28t-5.5 -21t-17.5 -9t-27.5 8q-18 13 -28 20 t-16 11.5t-10.5 9.5t-13 13.5t-23 23.5t-40.5 41q-27 -19 -46.5 -35t-33.5 -31.5t-23.5 -31t-16.5 -33.5q-23 0 -37.5 6.5t-14.5 38.5z" />
<glyph unicode="&#xd5;" horiz-adv-x="858" d="M28 18zM28 374q0 86 29.5 157t80.5 121.5t121 78.5t151 28q78 0 151.5 -19.5t130.5 -60.5t91.5 -104.5t34.5 -152.5q0 -206 -96.5 -305t-297.5 -99q-85 0 -157.5 20t-125.5 62.5t-83 110t-30 163.5zM130 394q0 -149 74.5 -222t222.5 -73q74 0 135 23t104 64.5t66.5 99 t23.5 127.5t-30 119.5t-78 81t-109.5 45.5t-124.5 14q-56 0 -107.5 -22t-90.5 -59.5t-62.5 -88.5t-23.5 -109zM445 838q-25 22 -44 37t-38.5 13.5t-43 -24t-59.5 -75.5q-4 0 -11 1t-14 4t-13 8t-8 13q19 60 56.5 106t79.5 63q17 7 32.5 1t31 -18.5t30 -29t30 -31.5t32 -25 t34.5 -10q28 0 43.5 8.5t28.5 25t28.5 40.5t43.5 54q8 0 16 -13.5t8 -23.5q5 -28 -6 -55t-32.5 -49t-51 -37t-60.5 -19.5t-60.5 3.5t-52.5 33z" />
<glyph unicode="&#xd6;" horiz-adv-x="858" d="M28 18zM28 374q0 86 29.5 157t80.5 121.5t121 78.5t151 28q78 0 151.5 -19.5t130.5 -60.5t91.5 -104.5t34.5 -152.5q0 -206 -96.5 -305t-297.5 -99q-85 0 -157.5 20t-125.5 62.5t-83 110t-30 163.5zM130 394q0 -149 74.5 -222t222.5 -73q74 0 135 23t104 64.5t66.5 99 t23.5 127.5t-30 119.5t-78 81t-109.5 45.5t-124.5 14q-56 0 -107.5 -22t-90.5 -59.5t-62.5 -88.5t-23.5 -109zM285 850q0 5 9.5 12.5t21.5 13.5q13 7 31 15q26 0 35.5 -11t9.5 -31q0 -15 -7.5 -23.5t-19 -12.5t-25 -5t-25.5 -1q-16 0 -23 9.5t-7 33.5zM465 850q0 5 9.5 12.5 t21.5 13.5q14 7 32 15q26 0 35.5 -11t9.5 -31q0 -15 -7.5 -23.5t-19 -12.5t-25.5 -5t-26 -1q-16 0 -23 9.5t-7 33.5z" />
<glyph unicode="&#xd7;" horiz-adv-x="602" d="M103 122q4 3 23 24t42.5 49t46 56.5t32.5 47.5q-43 48 -76 85q-14 16 -28 31t-24.5 27t-17 19.5l-6.5 7.5l53 57q27 -34 44.5 -56t28.5 -37t18.5 -25t15 -19t17 -19t25.5 -25q12 16 27.5 39t32.5 48.5t35.5 51t37.5 47.5q21 0 33 -14.5t12 -27.5q-16 -35 -33.5 -60.5 t-33.5 -46t-29.5 -39.5t-21.5 -41q21 -15 45.5 -39t46.5 -48t39.5 -45.5t24.5 -31.5q0 -4 -4 -11t-9.5 -14t-12 -13t-11.5 -9q-17 9 -36 30t-39.5 46.5t-43 51t-46.5 42.5q-13 -15 -32.5 -39t-41 -49t-41.5 -47t-34 -32q-5 -1 -13.5 1t-17.5 6t-17 9.5t-11 11.5z" />
<glyph unicode="&#xd8;" horiz-adv-x="858" d="M28 0zM28 374q0 86 29.5 157t80.5 121.5t121 78.5t151 28q78 0 151.5 -19.5t130.5 -60.5t91.5 -104.5t34.5 -152.5q0 -206 -96.5 -305t-297.5 -99q-85 0 -157.5 20t-125.5 62.5t-83 110t-30 163.5zM130 394q0 -149 74.5 -222t222.5 -73q74 0 135 23t104 64.5t66.5 99 t23.5 127.5t-30 119.5t-78 81t-109.5 45.5t-124.5 14q-56 0 -107.5 -22t-90.5 -59.5t-62.5 -88.5t-23.5 -109zM138 10q2 8 24.5 46t58.5 94.5t81.5 127t93 143t93 142t82.5 125t60.5 91t27.5 40.5q10 -6 2 -39t-30 -85.5t-55.5 -119t-74 -138.5t-85.5 -144.5t-90 -137 t-87.5 -116t-77.5 -81.5q-9 0 -14 6.5t-7 15.5t-2 17.5v12.5z" />
<glyph unicode="&#xd9;" horiz-adv-x="719" d="M27 0zM578 173q-51 -44 -93.5 -76.5t-85 -53t-88.5 -29.5t-104 -5q-78 9 -118 47.5t-54 96t-8 128.5t19.5 145.5t29 147t20.5 132.5q4 1 16 1.5t16 0.5q34 4 44 -18t6 -61.5t-17 -92t-25.5 -109t-19.5 -111.5t1.5 -100t37 -75.5t86.5 -36.5q80 -3 135 21.5t91 69 t56.5 105.5t31 131t14 145.5t5.5 149.5q6 19 16 27.5t22 9.5t25 -5t27 -16q6 -89 4.5 -177.5t-5 -178t-6.5 -180.5t0 -186q0 -14 -13 -18.5t-29.5 -3.5t-31.5 5.5t-18 9.5l13 160v0zM414 805l-21 -54q-32 22 -51 36t-30 25t-17 20.5t-10 22.5q-2 13 -0.5 25t7.5 18.5t15.5 5 t22.5 -16.5z" />
<glyph unicode="&#xda;" horiz-adv-x="719" d="M27 0zM578 173q-51 -44 -93.5 -76.5t-85 -53t-88.5 -29.5t-104 -5q-78 9 -118 47.5t-54 96t-8 128.5t19.5 145.5t29 147t20.5 132.5q4 1 16 1.5t16 0.5q34 4 44 -18t6 -61.5t-17 -92t-25.5 -109t-19.5 -111.5t1.5 -100t37 -75.5t86.5 -36.5q80 -3 135 21.5t91 69 t56.5 105.5t31 131t14 145.5t5.5 149.5q6 19 16 27.5t22 9.5t25 -5t27 -16q6 -89 4.5 -177.5t-5 -178t-6.5 -180.5t0 -186q0 -14 -13 -18.5t-29.5 -3.5t-31.5 5.5t-18 9.5l13 160v0zM396 933q13 16 25 21t20 1.5t13 -13t5 -20.5q-3 -12 -7.5 -21.5t-15.5 -22.5t-32 -31.5 t-55 -46.5l-39 35z" />
<glyph unicode="&#xdb;" horiz-adv-x="719" d="M27 0zM578 173q-51 -44 -93.5 -76.5t-85 -53t-88.5 -29.5t-104 -5q-78 9 -118 47.5t-54 96t-8 128.5t19.5 145.5t29 147t20.5 132.5q4 1 16 1.5t16 0.5q34 4 44 -18t6 -61.5t-17 -92t-25.5 -109t-19.5 -111.5t1.5 -100t37 -75.5t86.5 -36.5q80 -3 135 21.5t91 69 t56.5 105.5t31 131t14 145.5t5.5 149.5q6 19 16 27.5t22 9.5t25 -5t27 -16q6 -89 4.5 -177.5t-5 -178t-6.5 -180.5t0 -186q0 -14 -13 -18.5t-29.5 -3.5t-31.5 5.5t-18 9.5l13 160v0zM202 841q0 15 13 38t37 47.5t57.5 49t73.5 42.5q27 -17 47.5 -30.5t38.5 -30t36.5 -39.5 t41.5 -60q8 -15 8.5 -28t-5.5 -21t-17.5 -9t-27.5 8q-18 13 -28 20t-16 11.5t-10.5 9.5t-13 13.5t-23 23.5t-40.5 41q-27 -19 -46.5 -35t-33.5 -31.5t-23.5 -31t-16.5 -33.5q-23 0 -37.5 6.5t-14.5 38.5z" />
<glyph unicode="&#xdc;" horiz-adv-x="719" d="M27 0zM578 173q-51 -44 -93.5 -76.5t-85 -53t-88.5 -29.5t-104 -5q-78 9 -118 47.5t-54 96t-8 128.5t19.5 145.5t29 147t20.5 132.5q4 1 16 1.5t16 0.5q34 4 44 -18t6 -61.5t-17 -92t-25.5 -109t-19.5 -111.5t1.5 -100t37 -75.5t86.5 -36.5q80 -3 135 21.5t91 69 t56.5 105.5t31 131t14 145.5t5.5 149.5q6 19 16 27.5t22 9.5t25 -5t27 -16q6 -89 4.5 -177.5t-5 -178t-6.5 -180.5t0 -186q0 -14 -13 -18.5t-29.5 -3.5t-31.5 5.5t-18 9.5l13 160v0zM228 858q0 5 9.5 12.5t21.5 13.5q13 7 31 15q26 0 35.5 -11t9.5 -31q0 -15 -7.5 -23.5 t-19 -12.5t-25 -5t-25.5 -1q-16 0 -23 9.5t-7 33.5zM408 858q0 5 9.5 12.5t21.5 13.5q14 7 32 15q26 0 35.5 -11t9.5 -31q0 -15 -7.5 -23.5t-19 -12.5t-25.5 -5t-26 -1q-16 0 -23 9.5t-7 33.5z" />
<glyph unicode="&#xdd;" horiz-adv-x="684" d="M35 0zM347 -23q-8 0 -22.5 5t-28 13t-22.5 18.5t-4 22.5q5 8 13 30t18 52.5t21 65.5t21.5 69.5t19.5 65.5t15 53l-334 341q-12 14 -9 22t12 12.5t19.5 5.5t14.5 1q17 0 33.5 -3t35.5 -12.5t42.5 -29t56 -53t76 -82.5t101.5 -119q38 111 66 182.5t50.5 114t41.5 60.5 t39 21q12 0 23.5 -2.5t16.5 -18.5q-39 -83 -74.5 -187t-73 -216t-78.5 -223.5t-90 -208.5zM401 959q13 16 25 21t20 1.5t13 -13t5 -20.5q-3 -12 -7.5 -21.5t-15.5 -22.5t-32 -31.5t-55 -46.5l-39 35z" />
<glyph unicode="&#xde;" horiz-adv-x="647" d="M132 31q0 -14 -10 -21.5t-22.5 -8.5t-25 5t-18.5 20l-3 197l-10 623q-4 28 11.5 40t35 12t35.5 -10.5t13 -28.5l6 -312q39 51 90.5 94t105.5 71.5t106 39t93 -3t66 -54t25 -113.5q0 -50 -23.5 -98.5t-63 -92t-90.5 -79.5t-106 -61t-109 -37t-100 -6zM557 569 q-11 49 -47 66.5t-83.5 9t-99.5 -38.5t-94 -75t-66.5 -101t-17.5 -116q-5 -16 14 -21.5t52.5 0.5t78.5 25.5t92 53t92 82.5t79 115z" />
<glyph unicode="&#xdf;" horiz-adv-x="910" d="M183 -181h-86q8 55 11 126t2.5 150.5t-3.5 164.5t-6.5 168t-6.5 160.5t-3 142.5v18t9 30t31.5 31.5t66.5 22.5q69 12 139 11t131.5 -12.5t110.5 -32.5t78 -49.5t33 -62t-25 -70.5t-95 -76t-177 -77q153 -8 249 -30.5t145 -53.5t56.5 -68.5t-17 -77t-75 -78t-117 -71.5 t-144 -58t-156.5 -38l-9 97q143 21 234 56t132 74.5t33.5 77.5t-62 64.5t-153.5 36t-241 -8.5l-6 132q54 11 107.5 25t97 32t70.5 40t27 49q0 23 -15 39.5t-38.5 28t-53 19t-58.5 11.5t-54 5.5t-40 1.5h-26t-45 -1.5t-45 -6t-25 -13.5z" />
<glyph unicode="&#xe0;" horiz-adv-x="651" d="M27 8zM525 207q-29 -45 -67 -81.5t-83.5 -62t-99 -37.5t-112.5 -7q-21 0 -45 5t-44.5 16t-33.5 29t-13 45q-11 56 4.5 113.5t48.5 111t81 99t102.5 77t112 45.5t111.5 4q41 0 64 -27t34.5 -72t14.5 -103.5t5 -120.5t5.5 -122.5t15.5 -110.5h-74q-5 34 -7.5 60t-4.5 48.5 t-5.5 43.5t-9.5 47zM449 474q-39 3 -80.5 -10.5t-80 -38t-72 -58t-58.5 -69.5t-38.5 -71.5t-11 -65.5t22.5 -51t62 -28q60 1 115.5 30.5t99 73t72.5 94t37.5 93.5t-7.5 72t-61 29zM393 671l-21 -54q-32 22 -51 36t-30 25t-17 20.5t-10 22.5q-2 13 -0.5 25t7.5 18.5t15.5 5 t22.5 -16.5z" />
<glyph unicode="&#xe1;" horiz-adv-x="651" d="M27 8zM525 207q-29 -45 -67 -81.5t-83.5 -62t-99 -37.5t-112.5 -7q-21 0 -45 5t-44.5 16t-33.5 29t-13 45q-11 56 4.5 113.5t48.5 111t81 99t102.5 77t112 45.5t111.5 4q41 0 64 -27t34.5 -72t14.5 -103.5t5 -120.5t5.5 -122.5t15.5 -110.5h-74q-5 34 -7.5 60t-4.5 48.5 t-5.5 43.5t-9.5 47zM449 474q-39 3 -80.5 -10.5t-80 -38t-72 -58t-58.5 -69.5t-38.5 -71.5t-11 -65.5t22.5 -51t62 -28q60 1 115.5 30.5t99 73t72.5 94t37.5 93.5t-7.5 72t-61 29zM337 756q13 16 25 21t20 1.5t13 -13t5 -20.5q-3 -12 -7.5 -21.5t-15.5 -22.5t-32 -31.5 t-55 -46.5l-39 35z" />
<glyph unicode="&#xe2;" horiz-adv-x="651" d="M27 8zM525 207q-29 -45 -67 -81.5t-83.5 -62t-99 -37.5t-112.5 -7q-21 0 -45 5t-44.5 16t-33.5 29t-13 45q-11 56 4.5 113.5t48.5 111t81 99t102.5 77t112 45.5t111.5 4q41 0 64 -27t34.5 -72t14.5 -103.5t5 -120.5t5.5 -122.5t15.5 -110.5h-74q-5 34 -7.5 60t-4.5 48.5 t-5.5 43.5t-9.5 47zM449 474q-39 3 -80.5 -10.5t-80 -38t-72 -58t-58.5 -69.5t-38.5 -71.5t-11 -65.5t22.5 -51t62 -28q60 1 115.5 30.5t99 73t72.5 94t37.5 93.5t-7.5 72t-61 29zM142 682q0 15 13 38t37 47.5t57.5 49t73.5 42.5q27 -17 47.5 -30.5t38.5 -30t36.5 -39.5 t41.5 -60q8 -15 8.5 -28t-5.5 -21t-17.5 -9t-27.5 8q-18 13 -28 20t-16 11.5t-10.5 9.5t-13 13.5t-23 23.5t-40.5 41q-27 -19 -46.5 -35t-33.5 -31.5t-23.5 -31t-16.5 -33.5q-23 0 -37.5 6.5t-14.5 38.5z" />
<glyph unicode="&#xe3;" horiz-adv-x="651" d="M27 8zM525 207q-29 -45 -67 -81.5t-83.5 -62t-99 -37.5t-112.5 -7q-21 0 -45 5t-44.5 16t-33.5 29t-13 45q-11 56 4.5 113.5t48.5 111t81 99t102.5 77t112 45.5t111.5 4q41 0 64 -27t34.5 -72t14.5 -103.5t5 -120.5t5.5 -122.5t15.5 -110.5h-74q-5 34 -7.5 60t-4.5 48.5 t-5.5 43.5t-9.5 47zM449 474q-39 3 -80.5 -10.5t-80 -38t-72 -58t-58.5 -69.5t-38.5 -71.5t-11 -65.5t22.5 -51t62 -28q60 1 115.5 30.5t99 73t72.5 94t37.5 93.5t-7.5 72t-61 29zM299 657q-25 22 -44 37t-38.5 13.5t-43 -24t-59.5 -75.5q-4 0 -11 1t-14 4t-13 8t-8 13 q19 60 56.5 106t79.5 63q17 7 32.5 1t31 -18.5t30 -29t30 -31.5t32 -25t34.5 -10q28 0 43.5 8.5t28.5 25t28.5 40.5t43.5 54q8 0 16 -13.5t8 -23.5q5 -28 -6 -55t-32.5 -49t-51 -37t-60.5 -19.5t-60.5 3.5t-52.5 33z" />
<glyph unicode="&#xe4;" horiz-adv-x="651" d="M27 8zM525 207q-29 -45 -67 -81.5t-83.5 -62t-99 -37.5t-112.5 -7q-21 0 -45 5t-44.5 16t-33.5 29t-13 45q-11 56 4.5 113.5t48.5 111t81 99t102.5 77t112 45.5t111.5 4q41 0 64 -27t34.5 -72t14.5 -103.5t5 -120.5t5.5 -122.5t15.5 -110.5h-74q-5 34 -7.5 60t-4.5 48.5 t-5.5 43.5t-9.5 47zM449 474q-39 3 -80.5 -10.5t-80 -38t-72 -58t-58.5 -69.5t-38.5 -71.5t-11 -65.5t22.5 -51t62 -28q60 1 115.5 30.5t99 73t72.5 94t37.5 93.5t-7.5 72t-61 29zM181 789q0 5 9.5 12.5t21.5 13.5q13 7 31 15q26 0 35.5 -11t9.5 -31q0 -15 -7.5 -23.5 t-19 -12.5t-25 -5t-25.5 -1q-16 0 -23 9.5t-7 33.5zM361 789q0 5 9.5 12.5t21.5 13.5q14 7 32 15q26 0 35.5 -11t9.5 -31q0 -15 -7.5 -23.5t-19 -12.5t-25.5 -5t-26 -1q-16 0 -23 9.5t-7 33.5z" />
<glyph unicode="&#xe5;" horiz-adv-x="651" d="M27 8zM525 207q-29 -45 -67 -81.5t-83.5 -62t-99 -37.5t-112.5 -7q-21 0 -45 5t-44.5 16t-33.5 29t-13 45q-11 56 4.5 113.5t48.5 111t81 99t102.5 77t112 45.5t111.5 4q41 0 64 -27t34.5 -72t14.5 -103.5t5 -120.5t5.5 -122.5t15.5 -110.5h-74q-5 34 -7.5 60t-4.5 48.5 t-5.5 43.5t-9.5 47zM449 474q-39 3 -80.5 -10.5t-80 -38t-72 -58t-58.5 -69.5t-38.5 -71.5t-11 -65.5t22.5 -51t62 -28q60 1 115.5 30.5t99 73t72.5 94t37.5 93.5t-7.5 72t-61 29zM231 575q0 42 15 66.5t38 34.5t50 7t51 -17t41 -36.5t20 -50.5q0 -63 -26 -83.5t-77 -20.5 q-16 0 -35.5 6t-36.5 18.5t-28.5 31.5t-11.5 44zM387 600q-21 23 -45 28t-41 -4.5t-21 -31t15 -52.5q23 -19 44.5 -21t35.5 8t18.5 29.5t-6.5 43.5z" />
<glyph unicode="&#xe6;" horiz-adv-x="1182" d="M27 0zM525 207q-29 -45 -67 -81.5t-83.5 -62t-99 -37.5t-112.5 -7q-21 0 -45 5t-44.5 16t-33.5 29t-13 45q-11 56 4.5 113.5t48.5 111t81 99t102.5 77t112 45.5t111.5 4q41 0 64 -27t34.5 -72t14.5 -103.5t5 -120.5t5.5 -122.5t15.5 -110.5h-74q-5 34 -7.5 60t-4.5 48.5 t-5.5 43.5t-9.5 47zM449 474q-39 3 -80.5 -10.5t-80 -38t-72 -58t-58.5 -69.5t-38.5 -71.5t-11 -65.5t22.5 -51t62 -28q60 1 115.5 30.5t99 73t72.5 94t37.5 93.5t-7.5 72t-61 29zM549 144q-9 81 15.5 158t74 136t119.5 93.5t153 32.5q14 0 37.5 -4t50 -12.5t52 -21.5 t45 -31t29.5 -40.5t5 -50.5q-41 -29 -94.5 -40t-109 -15.5t-108.5 -8t-92.5 -18.5t-61 -47.5t-13.5 -93.5q15 -55 49.5 -81t80 -31.5t97 5t101 27.5t92.5 36t71 31q13 0 22 -9.5t9 -22.5q-25 -43 -76 -77t-115 -55t-133.5 -26t-130.5 10t-107 53t-62 103zM902 489 q-18 0 -44 -4t-50 -14t-41.5 -26t-17.5 -41l248 41q-16 24 -41.5 34t-53.5 10z" />
<glyph unicode="&#xe7;" horiz-adv-x="810" d="M27 0zM27 197q-4 46 17 91.5t58.5 87t88 77t106.5 60.5t113.5 37.5t108.5 7.5q19 0 38 -2t33.5 -10t23.5 -23t9 -41q0 -13 -6.5 -23t-16 -19t-20.5 -16t-20 -14q-3 14 -6 26.5t-9.5 22t-17 15t-27.5 5.5q-59 -12 -127.5 -36.5t-126 -58.5t-92.5 -76.5t-27 -91.5 q0 -44 17 -71t44.5 -42t63 -20t72.5 -5q57 0 110.5 17t104.5 38t100 38t96 17q8 0 16.5 -1t15 -5.5t9 -13t-0.5 -23.5q-5 -18 -35.5 -36t-75 -34t-97 -30t-102 -24t-89 -15.5t-58.5 -5.5q-44 0 -95 10t-94.5 33t-72.5 60.5t-29 93.5zM213 -230q40 -4 79.5 3t69 18.5 t44.5 25.5t7.5 25t-43.5 15.5t-108 -1.5q-15 0 -23.5 15t-13 36t-5.5 44t-1 40q-4 35 4.5 41.5t19.5 0t19 -19t3 -16.5q0 -17 -0.5 -32.5t1.5 -27.5t7.5 -19t16.5 -7q58 6 95.5 -1.5t56.5 -24t22 -39t-8 -45.5t-33.5 -43.5t-54 -33.5t-70.5 -15t-82 12q-3 0 -3 6.5t0.5 15 t1 16.5t-1.5 11z" />
<glyph unicode="&#xe8;" horiz-adv-x="692" d="M27 0zM27 164q-9 81 15.5 158t74 136t119.5 93.5t153 32.5q14 0 37.5 -4t50 -12.5t52 -21.5t45 -31t29.5 -40.5t5 -50.5q-41 -29 -94.5 -40t-109 -15.5t-108.5 -8t-92.5 -18.5t-61 -47.5t-13.5 -93.5q15 -55 49.5 -81t80 -31.5t97 5t101 27.5t92.5 36t71 31q13 0 22 -9.5 t9 -22.5q-25 -43 -76 -77t-115 -55t-133.5 -26t-130.5 10t-107 53t-62 103zM380 509q-18 0 -44 -4t-50 -14t-41.5 -26t-17.5 -41l248 41q-16 24 -41.5 34t-53.5 10zM413 671l-21 -54q-32 22 -51 36t-30 25t-17 20.5t-10 22.5q-2 13 -0.5 25t7.5 18.5t15.5 5t22.5 -16.5z" />
<glyph unicode="&#xe9;" horiz-adv-x="692" d="M27 0zM27 164q-9 81 15.5 158t74 136t119.5 93.5t153 32.5q14 0 37.5 -4t50 -12.5t52 -21.5t45 -31t29.5 -40.5t5 -50.5q-41 -29 -94.5 -40t-109 -15.5t-108.5 -8t-92.5 -18.5t-61 -47.5t-13.5 -93.5q15 -55 49.5 -81t80 -31.5t97 5t101 27.5t92.5 36t71 31q13 0 22 -9.5 t9 -22.5q-25 -43 -76 -77t-115 -55t-133.5 -26t-130.5 10t-107 53t-62 103zM380 509q-18 0 -44 -4t-50 -14t-41.5 -26t-17.5 -41l248 41q-16 24 -41.5 34t-53.5 10zM357 756q13 16 25 21t20 1.5t13 -13t5 -20.5q-3 -12 -7.5 -21.5t-15.5 -22.5t-32 -31.5t-55 -46.5l-39 35z " />
<glyph unicode="&#xea;" horiz-adv-x="692" d="M27 0zM27 164q-9 81 15.5 158t74 136t119.5 93.5t153 32.5q14 0 37.5 -4t50 -12.5t52 -21.5t45 -31t29.5 -40.5t5 -50.5q-41 -29 -94.5 -40t-109 -15.5t-108.5 -8t-92.5 -18.5t-61 -47.5t-13.5 -93.5q15 -55 49.5 -81t80 -31.5t97 5t101 27.5t92.5 36t71 31q13 0 22 -9.5 t9 -22.5q-25 -43 -76 -77t-115 -55t-133.5 -26t-130.5 10t-107 53t-62 103zM380 509q-18 0 -44 -4t-50 -14t-41.5 -26t-17.5 -41l248 41q-16 24 -41.5 34t-53.5 10zM163 682q0 15 13 38t37 47.5t57.5 49t73.5 42.5q27 -17 47.5 -30.5t38.5 -30t36.5 -39.5t41.5 -60 q8 -15 8.5 -28t-5.5 -21t-17.5 -9t-27.5 8q-18 13 -28 20t-16 11.5t-10.5 9.5t-13 13.5t-23 23.5t-40.5 41q-27 -19 -46.5 -35t-33.5 -31.5t-23.5 -31t-16.5 -33.5q-23 0 -37.5 6.5t-14.5 38.5z" />
<glyph unicode="&#xeb;" horiz-adv-x="692" d="M27 0zM27 164q-9 81 15.5 158t74 136t119.5 93.5t153 32.5q14 0 37.5 -4t50 -12.5t52 -21.5t45 -31t29.5 -40.5t5 -50.5q-41 -29 -94.5 -40t-109 -15.5t-108.5 -8t-92.5 -18.5t-61 -47.5t-13.5 -93.5q15 -55 49.5 -81t80 -31.5t97 5t101 27.5t92.5 36t71 31q13 0 22 -9.5 t9 -22.5q-25 -43 -76 -77t-115 -55t-133.5 -26t-130.5 10t-107 53t-62 103zM380 509q-18 0 -44 -4t-50 -14t-41.5 -26t-17.5 -41l248 41q-16 24 -41.5 34t-53.5 10zM202 789q0 5 9.5 12.5t21.5 13.5q13 7 31 15q26 0 35.5 -11t9.5 -31q0 -15 -7.5 -23.5t-19 -12.5t-25 -5 t-25.5 -1q-16 0 -23 9.5t-7 33.5zM382 789q0 5 9.5 12.5t21.5 13.5q14 7 32 15q26 0 35.5 -11t9.5 -31q0 -15 -7.5 -23.5t-19 -12.5t-25.5 -5t-26 -1q-16 0 -23 9.5t-7 33.5z" />
<glyph unicode="&#xec;" d="M67 587v-558q4 -10 19.5 -16t33.5 -5.5t33.5 9.5t20.5 29q-5 141 -12 279.5t-16 261.5h-79zM165 736l-21 -54q-32 22 -51 36t-30 25t-17 20.5t-10 22.5q-2 13 -0.5 25t7.5 18.5t15.5 5t22.5 -16.5z" />
<glyph unicode="&#xed;" d="M146 587q9 -123 16 -261.5t12 -279.5q-5 -20 -20.5 -29t-33.5 -9.5t-33.5 5.5t-19.5 16v558h79zM127 799q13 16 25 21t20 1.5t13 -13t5 -20.5q-3 -12 -7.5 -21.5t-15.5 -22.5t-32 -31.5t-55 -46.5l-39 35z" />
<glyph unicode="&#xee;" d="M146 587q9 -123 16 -261.5t12 -279.5q-5 -20 -20.5 -29t-33.5 -9.5t-33.5 5.5t-19.5 16v558h79zM-86 682q0 15 13 38t37 47.5t57.5 49t73.5 42.5q27 -17 47.5 -30.5t38.5 -30t36.5 -39.5t41.5 -60q8 -15 8.5 -28t-5.5 -21t-17.5 -9t-27.5 8q-18 13 -28 20t-16 11.5 t-10.5 9.5t-13 13.5t-23 23.5t-40.5 41q-27 -19 -46.5 -35t-33.5 -31.5t-23.5 -31t-16.5 -33.5q-23 0 -37.5 6.5t-14.5 38.5z" />
<glyph unicode="&#xef;" d="M146 587q9 -123 16 -261.5t12 -279.5q-5 -20 -20.5 -29t-33.5 -9.5t-33.5 5.5t-19.5 16v558h79zM-47 789q0 5 9.5 12.5t21.5 13.5q13 7 31 15q26 0 35.5 -11t9.5 -31q0 -15 -7.5 -23.5t-19 -12.5t-25 -5t-25.5 -1q-16 0 -23 9.5t-7 33.5zM133 789q0 5 9.5 12.5t21.5 13.5 q14 7 32 15q26 0 35.5 -11t9.5 -31q0 -15 -7.5 -23.5t-19 -12.5t-25.5 -5t-26 -1q-16 0 -23 9.5t-7 33.5z" />
<glyph unicode="&#xf0;" horiz-adv-x="742" d="M362 561l85 43q-29 47 -69 76.5t-80 44.5q0 23 18 36t34 16q29 -14 54 -27.5t48 -28.5t46.5 -34t49.5 -44l91 65l52 -62l-87 -64q24 -47 42 -102.5t25 -113t2 -113t-26 -103t-60.5 -83t-100.5 -53.5q-37 -11 -88.5 -1.5t-104.5 33.5t-102.5 58t-82 72.5t-42.5 77t15 70.5 q49 50 105.5 67t119 14.5t132 -17.5t145.5 -30q-2 23 -9 47.5t-17 47.5t-21.5 44t-22.5 38l-99 -56zM182 290q0 -57 24 -95t62.5 -61.5t88 -33t100.5 -9.5q37 2 63.5 17.5t42.5 39.5t20 54.5t-4 62.5q-47 18 -99.5 31t-105 17.5t-102 -1t-90.5 -22.5z" />
<glyph unicode="&#xf1;" horiz-adv-x="640" d="M41 0zM505 492q7 16 -15 18.5t-60 -4.5t-85 -22t-89.5 -35.5t-74 -45.5t-38.5 -50l-1 -340h-83q-6 14 -9.5 44.5t-5.5 72t-2.5 90t0.5 98t3 97t4.5 86.5t5 65.5t5.5 35.5q11 8 25 15t28 7q18 -1 24.5 -23.5t6.5 -51t-3.5 -55.5t-3.5 -37q104 77 179 112t126.5 37 t82.5 -24t48 -72t22.5 -107.5t6.5 -129.5t0 -138.5t2 -134.5q-12 -6 -16.5 -7t-10 0.5t-14.5 3.5t-28 3q-12 49 -13.5 112t-0.5 129t-1 131t-15 120zM306 730q-25 22 -44 37t-38.5 13.5t-43 -24t-59.5 -75.5q-4 0 -11 1t-14 4t-13 8t-8 13q19 60 56.5 106t79.5 63 q17 7 32.5 1t31 -18.5t30 -29t30 -31.5t32 -25t34.5 -10q28 0 43.5 8.5t28.5 25t28.5 40.5t43.5 54q8 0 16 -13.5t8 -23.5q5 -28 -6 -55t-32.5 -49t-51 -37t-60.5 -19.5t-60.5 3.5t-52.5 33z" />
<glyph unicode="&#xf2;" horiz-adv-x="720" d="M65 0zM65 237q0 82 36 140.5t91 97.5t120 59.5t124 26.5q57 3 107 -14.5t86 -49.5t55.5 -76t14.5 -93q0 -82 -32.5 -143.5t-86.5 -103t-125.5 -62t-149.5 -20.5q-118 0 -179 55t-61 183zM151 207q0 -42 10.5 -67t31 -37.5t50 -16.5t68.5 -4q60 0 116 11.5t99 39t69 73 t26 113.5q0 35 -10 66.5t-30 55t-49 37.5t-66 14q-49 -8 -98 -18.5t-92 -38t-76 -81t-49 -147.5zM427 671l-21 -54q-32 22 -51 36t-30 25t-17 20.5t-10 22.5q-2 13 -0.5 25t7.5 18.5t15.5 5t22.5 -16.5z" />
<glyph unicode="&#xf3;" horiz-adv-x="720" d="M65 0zM65 237q0 82 36 140.5t91 97.5t120 59.5t124 26.5q57 3 107 -14.5t86 -49.5t55.5 -76t14.5 -93q0 -82 -32.5 -143.5t-86.5 -103t-125.5 -62t-149.5 -20.5q-118 0 -179 55t-61 183zM151 207q0 -42 10.5 -67t31 -37.5t50 -16.5t68.5 -4q60 0 116 11.5t99 39t69 73 t26 113.5q0 35 -10 66.5t-30 55t-49 37.5t-66 14q-49 -8 -98 -18.5t-92 -38t-76 -81t-49 -147.5zM371 756q13 16 25 21t20 1.5t13 -13t5 -20.5q-3 -12 -7.5 -21.5t-15.5 -22.5t-32 -31.5t-55 -46.5l-39 35z" />
<glyph unicode="&#xf4;" horiz-adv-x="720" d="M65 0zM65 237q0 82 36 140.5t91 97.5t120 59.5t124 26.5q57 3 107 -14.5t86 -49.5t55.5 -76t14.5 -93q0 -82 -32.5 -143.5t-86.5 -103t-125.5 -62t-149.5 -20.5q-118 0 -179 55t-61 183zM151 207q0 -42 10.5 -67t31 -37.5t50 -16.5t68.5 -4q60 0 116 11.5t99 39t69 73 t26 113.5q0 35 -10 66.5t-30 55t-49 37.5t-66 14q-49 -8 -98 -18.5t-92 -38t-76 -81t-49 -147.5zM177 682q0 15 13 38t37 47.5t57.5 49t73.5 42.5q27 -17 47.5 -30.5t38.5 -30t36.5 -39.5t41.5 -60q8 -15 8.5 -28t-5.5 -21t-17.5 -9t-27.5 8q-18 13 -28 20t-16 11.5 t-10.5 9.5t-13 13.5t-23 23.5t-40.5 41q-27 -19 -46.5 -35t-33.5 -31.5t-23.5 -31t-16.5 -33.5q-23 0 -37.5 6.5t-14.5 38.5z" />
<glyph unicode="&#xf5;" horiz-adv-x="720" d="M65 0zM65 237q0 82 36 140.5t91 97.5t120 59.5t124 26.5q57 3 107 -14.5t86 -49.5t55.5 -76t14.5 -93q0 -82 -32.5 -143.5t-86.5 -103t-125.5 -62t-149.5 -20.5q-118 0 -179 55t-61 183zM151 207q0 -42 10.5 -67t31 -37.5t50 -16.5t68.5 -4q60 0 116 11.5t99 39t69 73 t26 113.5q0 35 -10 66.5t-30 55t-49 37.5t-66 14q-49 -8 -98 -18.5t-92 -38t-76 -81t-49 -147.5zM333 657q-25 22 -44 37t-38.5 13.5t-43 -24t-59.5 -75.5q-4 0 -11 1t-14 4t-13 8t-8 13q19 60 56.5 106t79.5 63q17 7 32.5 1t31 -18.5t30 -29t30 -31.5t32 -25t34.5 -10 q28 0 43.5 8.5t28.5 25t28.5 40.5t43.5 54q8 0 16 -13.5t8 -23.5q5 -28 -6 -55t-32.5 -49t-51 -37t-60.5 -19.5t-60.5 3.5t-52.5 33z" />
<glyph unicode="&#xf6;" horiz-adv-x="720" d="M65 0zM65 237q0 82 36 140.5t91 97.5t120 59.5t124 26.5q57 3 107 -14.5t86 -49.5t55.5 -76t14.5 -93q0 -82 -32.5 -143.5t-86.5 -103t-125.5 -62t-149.5 -20.5q-118 0 -179 55t-61 183zM151 207q0 -42 10.5 -67t31 -37.5t50 -16.5t68.5 -4q60 0 116 11.5t99 39t69 73 t26 113.5q0 35 -10 66.5t-30 55t-49 37.5t-66 14q-49 -8 -98 -18.5t-92 -38t-76 -81t-49 -147.5zM216 789q0 5 9.5 12.5t21.5 13.5q13 7 31 15q26 0 35.5 -11t9.5 -31q0 -15 -7.5 -23.5t-19 -12.5t-25 -5t-25.5 -1q-16 0 -23 9.5t-7 33.5zM396 789q0 5 9.5 12.5t21.5 13.5 q14 7 32 15q26 0 35.5 -11t9.5 -31q0 -15 -7.5 -23.5t-19 -12.5t-25.5 -5t-26 -1q-16 0 -23 9.5t-7 33.5z" />
<glyph unicode="&#xf7;" horiz-adv-x="440" d="M72 139zM213 171q0 19 17 36t36 17q24 0 34.5 -14t10 -30t-11.5 -29t-32 -12q-8 0 -17 1.5t-17.5 5t-14 10t-5.5 15.5zM173 410q-16 5 -17.5 15.5t6 21t19.5 18.5t23 9q39 -5 52 -23t6.5 -33t-30.5 -21t-59 13zM72 302q0 17 14.5 23.5t29.5 8.5q57 8 111.5 17.5 t113.5 15.5q25 0 42.5 -8.5t23 -20t-1.5 -24t-30 -19.5l-240 -25q-8 0 -19 1t-20.5 4.5t-16.5 9.5t-7 17z" />
<glyph unicode="&#xf8;" horiz-adv-x="720" d="M65 0zM65 237q0 82 36 140.5t91 97.5t120 59.5t124 26.5q57 3 107 -14.5t86 -49.5t55.5 -76t14.5 -93q0 -82 -32.5 -143.5t-86.5 -103t-125.5 -62t-149.5 -20.5q-118 0 -179 55t-61 183zM151 207q0 -42 10.5 -67t31 -37.5t50 -16.5t68.5 -4q60 0 116 11.5t99 39t69 73 t26 113.5q0 35 -10 66.5t-30 55t-49 37.5t-66 14q-49 -8 -98 -18.5t-92 -38t-76 -81t-49 -147.5zM137.806 -6.08594q1.75391 6.44727 21.4893 37.0771q19.7363 30.6289 51.3125 76.1699q31.5771 45.54 71.4873 102.365q39.9092 56.8252 81.5732 115.263t81.5742 114.456 q39.9092 56.0195 72.3633 100.754t53.0664 73.3486q20.6133 28.6143 24.1221 32.6445q8.77051 -4.83594 1.75391 -31.4355q-7.01758 -26.5986 -26.3145 -68.915q-19.2969 -42.3174 -48.6807 -95.918t-64.9082 -111.635t-74.9951 -116.472t-78.9424 -110.426 q-39.4707 -51.9893 -76.749 -93.5t-67.9785 -65.6914q-7.89355 0 -12.2793 5.23926t-6.14062 12.4932q-1.75391 7.25488 -1.75391 14.1055v10.0762z" />
<glyph unicode="&#xf9;" horiz-adv-x="650" d="M16 5zM28 166q0 20 -3.5 56t-6 78.5t-2 86.5t7.5 79.5t22.5 58.5t44.5 23q35 -10 47.5 -26t11 -39t-12 -53t-21.5 -68.5t-17 -85t2 -102.5q9 -36 36.5 -55.5t65.5 -25t81.5 1t84.5 22t75 38t53 48.5q10 50 11 91.5t-2 80.5t-8 79.5t-6 89.5q38 16 60 -5t33.5 -65.5 t15.5 -105.5t4.5 -125.5t0.5 -125.5t5 -104q-27 -26 -56.5 -5t-45.5 91q-16 -14 -55 -34.5t-89.5 -36.5t-106 -23t-103.5 5t-83 48.5t-44 107.5zM392 671l-21 -54q-32 22 -51 36t-30 25t-17 20.5t-10 22.5q-2 13 -0.5 25t7.5 18.5t15.5 5t22.5 -16.5z" />
<glyph unicode="&#xfa;" horiz-adv-x="650" d="M16 5zM28 166q0 20 -3.5 56t-6 78.5t-2 86.5t7.5 79.5t22.5 58.5t44.5 23q35 -10 47.5 -26t11 -39t-12 -53t-21.5 -68.5t-17 -85t2 -102.5q9 -36 36.5 -55.5t65.5 -25t81.5 1t84.5 22t75 38t53 48.5q10 50 11 91.5t-2 80.5t-8 79.5t-6 89.5q38 16 60 -5t33.5 -65.5 t15.5 -105.5t4.5 -125.5t0.5 -125.5t5 -104q-27 -26 -56.5 -5t-45.5 91q-16 -14 -55 -34.5t-89.5 -36.5t-106 -23t-103.5 5t-83 48.5t-44 107.5zM336 756q13 16 25 21t20 1.5t13 -13t5 -20.5q-3 -12 -7.5 -21.5t-15.5 -22.5t-32 -31.5t-55 -46.5l-39 35z" />
<glyph unicode="&#xfb;" horiz-adv-x="650" d="M16 5zM28 166q0 20 -3.5 56t-6 78.5t-2 86.5t7.5 79.5t22.5 58.5t44.5 23q35 -10 47.5 -26t11 -39t-12 -53t-21.5 -68.5t-17 -85t2 -102.5q9 -36 36.5 -55.5t65.5 -25t81.5 1t84.5 22t75 38t53 48.5q10 50 11 91.5t-2 80.5t-8 79.5t-6 89.5q38 16 60 -5t33.5 -65.5 t15.5 -105.5t4.5 -125.5t0.5 -125.5t5 -104q-27 -26 -56.5 -5t-45.5 91q-16 -14 -55 -34.5t-89.5 -36.5t-106 -23t-103.5 5t-83 48.5t-44 107.5zM142 682q0 15 13 38t37 47.5t57.5 49t73.5 42.5q27 -17 47.5 -30.5t38.5 -30t36.5 -39.5t41.5 -60q8 -15 8.5 -28t-5.5 -21 t-17.5 -9t-27.5 8q-18 13 -28 20t-16 11.5t-10.5 9.5t-13 13.5t-23 23.5t-40.5 41q-27 -19 -46.5 -35t-33.5 -31.5t-23.5 -31t-16.5 -33.5q-23 0 -37.5 6.5t-14.5 38.5z" />
<glyph unicode="&#xfc;" horiz-adv-x="650" d="M16 5zM28 166q0 20 -3.5 56t-6 78.5t-2 86.5t7.5 79.5t22.5 58.5t44.5 23q35 -10 47.5 -26t11 -39t-12 -53t-21.5 -68.5t-17 -85t2 -102.5q9 -36 36.5 -55.5t65.5 -25t81.5 1t84.5 22t75 38t53 48.5q10 50 11 91.5t-2 80.5t-8 79.5t-6 89.5q38 16 60 -5t33.5 -65.5 t15.5 -105.5t4.5 -125.5t0.5 -125.5t5 -104q-27 -26 -56.5 -5t-45.5 91q-16 -14 -55 -34.5t-89.5 -36.5t-106 -23t-103.5 5t-83 48.5t-44 107.5zM181 789q0 5 9.5 12.5t21.5 13.5q13 7 31 15q26 0 35.5 -11t9.5 -31q0 -15 -7.5 -23.5t-19 -12.5t-25 -5t-25.5 -1 q-16 0 -23 9.5t-7 33.5zM361 789q0 5 9.5 12.5t21.5 13.5q14 7 32 15q26 0 35.5 -11t9.5 -31q0 -15 -7.5 -23.5t-19 -12.5t-25.5 -5t-26 -1q-16 0 -23 9.5t-7 33.5z" />
<glyph unicode="&#xfd;" horiz-adv-x="702" d="M29 0zM297 -471q-14 -34 -32.5 -47t-33.5 -11.5t-22.5 16t0.5 35.5q14 57 32.5 118t38.5 121t40 117.5t38 108.5q-11 11 -31.5 36.5t-46.5 59.5t-55.5 74.5t-58.5 81t-55.5 79t-45.5 69.5t-29 50.5t-7 23.5l47 48q23 -22 52 -53.5t59 -68t61 -75.5t59 -76.5t51.5 -71 t39.5 -58.5q19 41 29.5 64.5t18.5 44t17 43.5t25.5 63t44 102t73.5 161q7 3 21 4.5t27 -2t20.5 -14t3.5 -29.5l-381 -1014v0zM362 756q13 16 25 21t20 1.5t13 -13t5 -20.5q-3 -12 -7.5 -21.5t-15.5 -22.5t-32 -31.5t-55 -46.5l-39 35z" />
<glyph unicode="&#xfe;" horiz-adv-x="664" d="M30 727q24 10 40 11.5t26 -17.5t15 -65t8 -131q140 43 240 49t163.5 -13.5t91.5 -59.5t23.5 -89.5t-40 -103t-99 -100.5t-153.5 -81.5t-204 -46.5q2 -43 0.5 -87t4.5 -91q6 -46 -18 -65.5t-66 -14.5zM388 503q-39 0 -86 -9t-87.5 -30.5t-66.5 -58t-23 -90.5l6 -151 q139 31 227.5 68.5t135.5 75t57 73t-7.5 62.5t-59 43.5t-96.5 16.5z" />
<glyph unicode="&#xff;" horiz-adv-x="702" d="M29 0zM297 -471q-14 -34 -32.5 -47t-33.5 -11.5t-22.5 16t0.5 35.5q14 57 32.5 118t38.5 121t40 117.5t38 108.5q-11 11 -31.5 36.5t-46.5 59.5t-55.5 74.5t-58.5 81t-55.5 79t-45.5 69.5t-29 50.5t-7 23.5l47 48q23 -22 52 -53.5t59 -68t61 -75.5t59 -76.5t51.5 -71 t39.5 -58.5q19 41 29.5 64.5t18.5 44t17 43.5t25.5 63t44 102t73.5 161q7 3 21 4.5t27 -2t20.5 -14t3.5 -29.5l-381 -1014v0zM207 789q0 5 9.5 12.5t21.5 13.5q13 7 31 15q26 0 35.5 -11t9.5 -31q0 -15 -7.5 -23.5t-19 -12.5t-25 -5t-25.5 -1q-16 0 -23 9.5t-7 33.5z M387 789q0 5 9.5 12.5t21.5 13.5q14 7 32 15q26 0 35.5 -11t9.5 -31q0 -15 -7.5 -23.5t-19 -12.5t-25.5 -5t-26 -1q-16 0 -23 9.5t-7 33.5z" />
<glyph unicode="&#x152;" horiz-adv-x="1355" d="M650 93q-15 -19 -36.5 -38t-50.5 -34t-65 -24.5t-80 -9.5q-85 0 -156.5 24.5t-123.5 73.5t-81 121t-29 168q0 86 30.5 162.5t83.5 133.5t124 90.5t152 33.5q43 0 79 -11.5t64.5 -30.5t51.5 -44t41 -51l1 124q26 -7 71.5 -8.5t100 -0.5t114 3t113 2t97.5 -3.5t69 -12.5 v-62q-34 -5 -93 -6t-126 -1.5t-134 -4t-117 -14.5q-9 -40 -13 -68t-5.5 -48.5t-1 -38.5t2 -38.5t3 -47.5t1.5 -66q64 0 124.5 6.5t120 15t119.5 15t123 6.5v-68l-478 -60l7 -205q94 0 170 5.5t144.5 11.5t135.5 11.5t142 5.5q0 -11 -6 -26.5t-16 -28t-22.5 -19t-24.5 2.5 q-69 -8 -152.5 -15.5t-169 -15t-165 -14t-139.5 -11.5v110zM130 394q0 -74 18 -134t54 -103t90.5 -66t128.5 -23q53 0 92 15.5t67 41.5t45 60t26 72l2 245q-11 43 -29.5 81t-47 65.5t-67 43.5t-87.5 16q-56 0 -109 -27.5t-93.5 -71.5t-65 -100.5t-24.5 -114.5z" />
<glyph unicode="&#x153;" horiz-adv-x="1169" d="M30 211q0 82 36 140.5t91 97.5t120 59.5t124 26.5q74 4 117.5 -27t61.5 -82q48 78 127.5 125.5t177.5 45.5q14 0 37.5 -4t50 -12.5t52 -21.5t45 -31t29.5 -40.5t5 -50.5q-41 -29 -94.5 -40t-109 -15.5t-108.5 -8t-92.5 -18.5t-61 -47.5t-13.5 -93.5q15 -55 49.5 -81 t80 -31.5t97 5t101 27.5t92.5 36t71 31q13 0 22 -9.5t9 -22.5q-23 -39 -67 -71t-100.5 -53t-119 -30t-121 -2.5t-108.5 30.5t-80 69q-75 -139 -281 -139q-118 0 -179 55t-61 183zM116 181q0 -42 10.5 -67t31 -37.5t50 -16.5t68.5 -4q56 0 99.5 5.5t74 23.5t48.5 51.5 t22 88.5q0 7 0.5 13.5t1.5 13.5v11v71t-8 65.5t-27 48t-56 18.5q-49 -8 -98 -18.5t-92 -38t-76 -81t-49 -147.5zM876 522q-18 0 -44 -4t-50 -14t-41.5 -26t-17.5 -41l248 41q-16 24 -41.5 34t-53.5 10z" />
<glyph unicode="&#x178;" horiz-adv-x="684" d="M35 0zM347 -23q-8 0 -22.5 5t-28 13t-22.5 18.5t-4 22.5q5 8 13 30t18 52.5t21 65.5t21.5 69.5t19.5 65.5t15 53l-334 341q-12 14 -9 22t12 12.5t19.5 5.5t14.5 1q17 0 33.5 -3t35.5 -12.5t42.5 -29t56 -53t76 -82.5t101.5 -119q38 111 66 182.5t50.5 114t41.5 60.5 t39 21q12 0 23.5 -2.5t16.5 -18.5q-39 -83 -74.5 -187t-73 -216t-78.5 -223.5t-90 -208.5zM193 837q0 5 9.5 12.5t21.5 13.5q13 7 31 15q26 0 35.5 -11t9.5 -31q0 -15 -7.5 -23.5t-19 -12.5t-25 -5t-25.5 -1q-16 0 -23 9.5t-7 33.5zM373 837q0 5 9.5 12.5t21.5 13.5 q14 7 32 15q26 0 35.5 -11t9.5 -31q0 -15 -7.5 -23.5t-19 -12.5t-25.5 -5t-26 -1q-16 0 -23 9.5t-7 33.5z" />
<glyph unicode="&#x2c6;" horiz-adv-x="393" d="M22 682q0 15 13 38t37 47.5t57.5 49t73.5 42.5q27 -17 47.5 -30.5t38.5 -30t36.5 -39.5t41.5 -60q8 -15 8.5 -28t-5.5 -21t-17.5 -9t-27.5 8q-18 13 -28 20t-16 11.5t-10.5 9.5t-13 13.5t-23 23.5t-40.5 41q-27 -19 -46.5 -35t-33.5 -31.5t-23.5 -31t-16.5 -33.5 q-23 0 -37.5 6.5t-14.5 38.5z" />
<glyph unicode="&#x2da;" horiz-adv-x="281" d="M39 626q0 42 15 66.5t38 34.5t50 7t51 -17t41 -36.5t20 -50.5q0 -63 -26 -83.5t-77 -20.5q-16 0 -35.5 6t-36.5 18.5t-28.5 31.5t-11.5 44zM195 651q-21 23 -45 28t-41 -4.5t-21 -31t15 -52.5q23 -19 44.5 -21t35.5 8t18.5 29.5t-6.5 43.5z" />
<glyph unicode="&#x2dc;" horiz-adv-x="569" d="M263 657q-25 22 -44 37t-38.5 13.5t-43 -24t-59.5 -75.5q-4 0 -11 1t-14 4t-13 8t-8 13q19 60 56.5 106t79.5 63q17 7 32.5 1t31 -18.5t30 -29t30 -31.5t32 -25t34.5 -10q28 0 43.5 8.5t28.5 25t28.5 40.5t43.5 54q8 0 16 -13.5t8 -23.5q5 -28 -6 -55t-32.5 -49t-51 -37 t-60.5 -19.5t-60.5 3.5t-52.5 33z" />
<glyph unicode="&#x2000;" horiz-adv-x="631" />
<glyph unicode="&#x2001;" horiz-adv-x="1263" />
<glyph unicode="&#x2002;" horiz-adv-x="631" />
<glyph unicode="&#x2003;" horiz-adv-x="1263" />
<glyph unicode="&#x2004;" horiz-adv-x="421" />
<glyph unicode="&#x2005;" horiz-adv-x="315" />
<glyph unicode="&#x2006;" horiz-adv-x="210" />
<glyph unicode="&#x2007;" horiz-adv-x="210" />
<glyph unicode="&#x2008;" horiz-adv-x="157" />
<glyph unicode="&#x2009;" horiz-adv-x="252" />
<glyph unicode="&#x200a;" horiz-adv-x="70" />
<glyph unicode="&#x2010;" horiz-adv-x="397" d="M37 302q0 17 14.5 23.5t29.5 8.5q57 8 111.5 17.5t113.5 15.5q25 0 42.5 -8.5t23 -20t-1.5 -24t-30 -19.5l-240 -25q-8 0 -19 1t-20.5 4.5t-16.5 9.5t-7 17z" />
<glyph unicode="&#x2011;" horiz-adv-x="397" d="M37 302q0 17 14.5 23.5t29.5 8.5q57 8 111.5 17.5t113.5 15.5q25 0 42.5 -8.5t23 -20t-1.5 -24t-30 -19.5l-240 -25q-8 0 -19 1t-20.5 4.5t-16.5 9.5t-7 17z" />
<glyph unicode="&#x2012;" horiz-adv-x="397" d="M37 302q0 17 14.5 23.5t29.5 8.5q57 8 111.5 17.5t113.5 15.5q25 0 42.5 -8.5t23 -20t-1.5 -24t-30 -19.5l-240 -25q-8 0 -19 1t-20.5 4.5t-16.5 9.5t-7 17z" />
<glyph unicode="&#x2013;" horiz-adv-x="397" d="M37 302q0 17 14.5 23.5t29.5 8.5q57 8 111.5 17.5t113.5 15.5q25 0 42.5 -8.5t23 -20t-1.5 -24t-30 -19.5l-240 -25q-8 0 -19 1t-20.5 4.5t-16.5 9.5t-7 17z" />
<glyph unicode="&#x2014;" horiz-adv-x="526" d="M37 302q0 17 14.5 23.5t29.5 8.5q28 4 73 8t93 8.5t93.5 8.5t74.5 7q25 0 42 -8.5t23 -20t-1 -24t-30 -19.5l-349 -24q-8 0 -19 1t-20.5 4.5t-16.5 9.5t-7 17z" />
<glyph unicode="&#x2018;" horiz-adv-x="207" d="M104 768q27 9 40 2t15.5 -25.5t-3 -44t-15.5 -53t-22.5 -53t-24.5 -42.5l-60 -4z" />
<glyph unicode="&#x2019;" horiz-adv-x="207" d="M104 768q27 9 40 2t15.5 -25.5t-3 -44t-15.5 -53t-22.5 -53t-24.5 -42.5l-60 -4z" />
<glyph unicode="&#x201a;" horiz-adv-x="207" d="M114 233q27 9 40 2t15.5 -25.5t-3 -44t-15.5 -53t-22.5 -53t-24.5 -42.5l-60 -4z" />
<glyph unicode="&#x201c;" horiz-adv-x="303" d="M184 777q0 16 -1 41.5t2 52.5t12.5 50t29.5 33l22 -20v-249l20 -42q-2 -2 -7.5 -5.5t-12 -6.5t-13 -5.5t-9.5 -2.5q-13 0 -21.5 11t-13 28t-6.5 36.5t-2.5 36.5t0 29t0.5 13zM69 768q0 16 -1 41.5t2 52.5t12 50t30 33l21 -20v-249l21 -42q-2 -2 -8 -5.5t-12.5 -7 t-12.5 -6t-9 -2.5q-14 0 -22 11t-13 28t-7 36.5t-2 37t0.5 29.5t0.5 13z" />
<glyph unicode="&#x201d;" horiz-adv-x="303" d="M184 777q0 16 -1 41.5t2 52.5t12.5 50t29.5 33l22 -20v-249l20 -42q-2 -2 -7.5 -5.5t-12 -6.5t-13 -5.5t-9.5 -2.5q-13 0 -21.5 11t-13 28t-6.5 36.5t-2.5 36.5t0 29t0.5 13zM69 768q0 16 -1 41.5t2 52.5t12 50t30 33l21 -20v-249l21 -42q-2 -2 -8 -5.5t-12.5 -7 t-12.5 -6t-9 -2.5q-14 0 -22 11t-13 28t-7 36.5t-2 37t0.5 29.5t0.5 13z" />
<glyph unicode="&#x201e;" horiz-adv-x="359" d="M233 194q0 16 -1 41.5t2 52t12.5 49.5t29.5 34l22 -21v-249l20 -42q-2 -2 -7.5 -5.5t-12 -6.5t-13 -5.5t-9.5 -2.5q-13 0 -21.5 11t-13 28t-6.5 36.5t-2.5 36.5t0 29t0.5 14zM108 199q0 16 -1 41.5t2 52t12 49.5t30 34l21 -21v-249l21 -41q-2 -3 -8 -6.5t-12.5 -6.5 t-12.5 -5.5t-9 -2.5q-13 0 -21.5 11t-13.5 28t-7 36.5t-2 37t0.5 29.5t0.5 13z" />
<glyph unicode="&#x2022;" horiz-adv-x="246" d="M41 321q10 47 35.5 64.5t53.5 14t50.5 -25.5t25.5 -55q0 -23 -4.5 -38t-14 -23.5t-24 -11.5t-33.5 -3q-12 0 -27 5t-29 15t-23.5 24.5t-9.5 33.5z" />
<glyph unicode="&#x2026;" horiz-adv-x="541" d="M28 42q0 5 9.5 12.5t21.5 13.5q13 7 31 15q26 0 35.5 -11t9.5 -31q0 -15 -7.5 -23.5t-19 -12.5t-25.5 -5t-26 -1q-15 0 -22 9.5t-7 33.5zM208 42q0 5 9.5 12.5t21.5 13.5q13 7 31 15q26 0 35.5 -11t9.5 -31q0 -15 -7.5 -23.5t-19 -12.5t-25 -5t-25.5 -1q-16 0 -23 9.5 t-7 33.5zM388 42q0 5 9.5 12.5t21.5 13.5q14 7 32 15q26 0 35.5 -11t9.5 -31q0 -15 -7.5 -23.5t-19 -12.5t-25.5 -5t-26 -1q-16 0 -23 9.5t-7 33.5z" />
<glyph unicode="&#x202f;" horiz-adv-x="252" />
<glyph unicode="&#x2039;" horiz-adv-x="609" d="M105 286q40 31 93.5 74t109 86t106.5 80.5t87 57.5q9 -1 15 -9t9.5 -19t3 -22.5t-4.5 -18.5l-294 -224q19 -9 53.5 -25.5t77.5 -37.5t89.5 -46t88.5 -53q-2 -2 -5.5 -10.5t-8 -18t-8.5 -18t-6 -8.5q-24 15 -59.5 29t-76.5 29t-83.5 31.5t-79.5 35t-65.5 40t-41.5 47.5z " />
<glyph unicode="&#x203a;" horiz-adv-x="604" d="M147 60q-42 16 -55 33.5t-5.5 35.5t31.5 37t56 39t68 40.5t67.5 41t54.5 42t29 42.5l-331 124l63 61q41 -29 77.5 -46t70 -27t65.5 -16.5t64 -15t64 -23t67 -39.5q-32 -39 -81.5 -78.5t-104 -80.5t-107.5 -83.5t-93 -86.5z" />
<glyph unicode="&#x205f;" horiz-adv-x="315" />
<glyph unicode="&#x20ac;" horiz-adv-x="1018" d="M44 262q0 5 8 13t13 8q21 3 39 6.5t35 5.5v17q0 19 1.5 38t3.5 38l-46 -6q-6 0 -15.5 -0.5t-19.5 1t-17.5 6t-9.5 15.5l25 45q2 2 29.5 5t69.5 8q22 78 66 145t103.5 117t133 78.5t156.5 28.5q41 0 68.5 -4.5t44.5 -19t24.5 -41.5t7.5 -72q-86 48 -169 48t-152 -34.5 t-118.5 -96.5t-68.5 -138q48 5 96.5 11t87.5 12q20 6 30.5 0t12.5 -18t-3.5 -25.5t-17.5 -21.5l-220 -30q-2 -17 -2 -34.5t2 -34.5v-13t1 -12q27 3 53 6t54.5 7t61.5 9.5t75 14.5q29 0 37.5 -18.5t3.5 -44.5q-43 0 -79 -4.5t-68.5 -10.5t-62.5 -13t-61 -13q29 -81 102 -120 t168 -39q74 6 126.5 11.5t95.5 15.5t82 28t86 48q9 0 18.5 -1t17.5 -4t13 -9.5t5 -18.5q-99 -88 -220 -122.5t-269 -29.5q-55 0 -107.5 15.5t-96.5 45t-77 71t-49 92.5q-18 -2 -37 -3t-41 -1q-15 0 -22.5 9t-7.5 34z" />
<glyph unicode="&#x2122;" horiz-adv-x="1549" d="M1424 -25q-2 18 -6.5 55.5t-10.5 84.5t-12.5 99t-13 99t-11.5 84.5t-7 55.5q0 26 -1.5 47t-10 25.5t-26.5 -12.5t-50.5 -67t-82 -139t-120.5 -228q-7 -14 -19.5 -18.5t-27 4t-30 32t-27.5 65.5l-219 464q-5 -1 -10.5 -2t-10.5 -2q-7 -24 -12.5 -59t-10.5 -75t-9 -83 t-7.5 -84t-6 -77t-4.5 -61q-6 -32 -5 -62.5t2.5 -57t1.5 -48.5t-7.5 -36.5t-25 -21.5t-50.5 -4q-21 0 -32 10.5t-9 32.5l10 82.5t13 107.5t15 120t15 119.5t13.5 106.5t10.5 82q-26 0 -52 1t-53.5 1t-58 -1.5t-66.5 -6.5q-2 -33 -6.5 -79t-9 -99.5t-9.5 -111.5t-8 -113.5 t-4 -106t3 -89.5l-117 -9l39 617l-267 16q-5 0 -9 4.5t-6.5 11.5t-4 14t-1.5 12q0 17 11 33.5t27 16.5q75 -3 151 -9.5t151.5 -11t151.5 -6t151 4.5q8 34 26 48.5t63 14.5q43 0 78 -31t64 -79t53 -106.5t45 -114t40 -101.5t38 -68l250 435q34 31 60 27t45.5 -34t34 -81 t25 -114t18.5 -133t15 -138t14.5 -128t17.5 -104q7 -42 -6.5 -61.5t-33.5 -19.5t-40 16t-26 44z" />
<glyph unicode="&#x2212;" horiz-adv-x="397" d="M37 302q0 17 14.5 23.5t29.5 8.5q57 8 111.5 17.5t113.5 15.5q25 0 42.5 -8.5t23 -20t-1.5 -24t-30 -19.5l-240 -25q-8 0 -19 1t-20.5 4.5t-16.5 9.5t-7 17z" />
<glyph unicode="&#xe000;" horiz-adv-x="600" d="M0 600h600v-600h-600v600z" />
<glyph unicode="&#xfb01;" horiz-adv-x="876" d="M17 0zM65 207q-8 0 -16.5 7.5t-15.5 19t-11.5 25.5t-4.5 26l190 68q-17 143 -22 250t0 183t20 125t39 77.5t57 39t73 10.5q37 0 87.5 -21t97 -54t79 -73.5t32.5 -79.5q0 -3 -0.5 -9t-1.5 -12.5t-2 -12.5t-2 -8q-22 29 -53 62.5t-68 61.5t-78 46.5t-82 18.5 q-42 0 -64 -29.5t-31.5 -71.5t-10.5 -86.5t-1 -74.5q0 -83 5 -162t30 -159q54 0 107.5 6.5t108 14t110.5 14.5t114 8q3 0 4.5 -7.5t1.5 -19.5t0.5 -26t2.5 -27l-429 -52l23 -277l-102 4q0 66 -6.5 129.5t-17.5 128.5zM798 550q9 -123 16 -261.5t12 -279.5q-5 -20 -20.5 -29 t-33.5 -9.5t-33.5 5.5t-19.5 16v558h79zM682 720q0 23 13 33t31 11.5t36 -3.5t26 -12q9 -33 -3 -48t-31.5 -16.5t-40.5 8.5t-31 27z" />
<glyph unicode="&#xfb02;" horiz-adv-x="897" d="M17 8zM65 207q-8 0 -16.5 7.5t-15.5 19t-11.5 25.5t-4.5 26l190 68q-17 143 -22 250t0 183t20 125t39 77.5t57 39t73 10.5q37 0 87.5 -21t97 -54t79 -73.5t32.5 -79.5q0 -3 -0.5 -9t-1.5 -12.5t-2 -12.5t-2 -8q-22 29 -53 62.5t-68 61.5t-78 46.5t-82 18.5 q-42 0 -64 -29.5t-31.5 -71.5t-10.5 -86.5t-1 -74.5q0 -83 5 -162t30 -159q54 0 107.5 6.5t108 14t110.5 14.5t114 8q3 0 4.5 -7.5t1.5 -19.5t0.5 -26t2.5 -27l-429 -52l23 -277l-102 4q0 66 -6.5 129.5t-17.5 128.5zM706 828q11 15 21.5 28.5t30.5 13.5q13 0 24 -31 t19 -82.5t14 -117.5t10 -137t6.5 -141.5t4 -129t2 -100.5t0.5 -57q0 -18 -7.5 -29t-19 -17.5t-26 -8.5t-27.5 -2q-2 0 -5.5 0.5t-4.5 0.5q0 26 -1.5 79.5t-3.5 121t-4 142t-4.5 142t-5 121t-3.5 79.5q0 7 -2.5 25t-5.5 38t-6.5 37.5t-5.5 24.5z" />
<glyph horiz-adv-x="512" d="M0 0z" />
</font>
</defs>
</svg>
