<?xml version="1.0" standalone="no"?>
<!DOCTYPE svg PUBLIC "-//W3C//DTD SVG 1.1//EN" "http://www.w3.org/Graphics/SVG/1.1/DTD/svg11.dtd" >
<svg xmlns="http://www.w3.org/2000/svg">
<metadata></metadata>
<defs>
<font id="anudawregular" horiz-adv-x="844" >
<font-face units-per-em="1000" ascent="800" descent="-200" />
<missing-glyph horiz-adv-x="786" />
<glyph horiz-adv-x="1000" />
<glyph horiz-adv-x="1000" />
<glyph unicode="&#xd;" horiz-adv-x="786" />
<glyph unicode=" "  horiz-adv-x="786" />
<glyph unicode="&#x09;" horiz-adv-x="786" />
<glyph unicode="&#xa0;" horiz-adv-x="786" />
<glyph unicode="!" horiz-adv-x="644" d="M552 883q3 -6 -6 -22l-14 -22q-3 -9 -12 -26q-13 -8 -30 -26q-17 -71 -49 -194q-12 -45 -52 -164q0 -7 -1 -21q-7 -24 -34 -48q-29 -27 -54 -27q-3 0 -6.5 1.5t-6.5 1.5q-4 0 -15.5 -5.5t-15.5 -5.5q-15 0 -15 6q0 14 -2 18q-22 -11 -30 -11q-10 0 -16 6q-4 58 -7 225 q-4 135 -7 135q-2 0 -16 -4t-21 -4q-16 0 -16 10q0 12 21 31q14 11 28 23q-6 38 -2 49q7 18 30 33t37 15q16 0 16 -14q-1 -2 2 -4q30 23 50 23q12 0 13.5 -2.5t2.5 -14.5q1 -4 5 -4q-4 0 70 24t126 24q19 0 27 -6zM457 216q0 -16 -12 -28q-22 -25 -70 -71q-18 -11 -50 -36 q-43 -42 -102 -73q-62 -32 -104 -32q-19 0 -27 8q-5 44 83 145q92 103 147 103q14 0 18 -6q-1 -5 0 -15q34 21 74 21q11 0 15 -2t9 -8q7 0 19 -6zM410 809q-23 -5 -46 -9q-27 -6 -41 -18v-9q32 11 87 36zM399 748q-8 -3 -74 -31q5 -75 12 -212l30.5 122t31.5 121zM340 169 q-14 -5 -57 -37q-26 -24 -21 -29q14 6 50 32q23 21 28 34z" />
<glyph unicode="&#x22;" horiz-adv-x="749" d="M639 689q0 -56 -39 -113q-44 -64 -109 -75q-4 0 -14 -4.5t-16 -4.5q-16 0 -16 11q0 3 1 6q10 17 10 67q0 3 -13 83.5t-13 84.5q0 22 34 48q5 7 19.5 20.5t45.5 26.5q2 1 13 1q40 0 68 -44q9 -15 18 -47q11 -35 11 -60zM337 657q0 -53 -17 -100q-6 -19 -31.5 -38 t-45.5 -19q-11 0 -12 1q-4 3 -14 24q-11 -27 -35.5 -48t-46.5 -21q-15 0 -15 10q0 2 9 23t11 30q3 17 3 48q0 40 -16 140q0 2 -3.5 7.5t-3.5 8.5q0 21 31 41q27 17 41 17q20 0 25 -31q5 27 33 46.5t50 15.5q9 -9 10 -14l20 -72q7 -31 7 -69zM556 655q-3 53 -16 53 q-2 0 -4 -4v-17q0 -2 4 -33q5 -34 5 -49q4 7 8.5 14.5t2.5 35.5zM249 611q0 32 -6 56q-9 35 -18 69q-1 5 -4 9.5t-3 0.5q0 -3 4.5 -25t5.5 -29q6 -84 1 -130q7 5 14 11q6 18 6 38z" />
<glyph unicode="#" horiz-adv-x="850" d="M756 444q0 -22 -57 -56q8 -1 22 -6q-7 -30 -39 -42q-26 -8 -53 -16q3 -30 11 -86q1 -6 6.5 -24.5t5.5 -20.5q0 -18 -22 -35t-43 -15q-8 5 -9 11q-4 28 -15 87q-4 -9 -3 -22q1 -23 -21.5 -44t-44.5 -21q-4 0 -7 2t-7 8q-6 37 -15 129q-1 1 -5 1q-7 0 -53.5 -11t-58.5 -15 q13 -88 13 -84q0 -20 -21.5 -36t-36.5 -16q-10 0 -12 11q1 2 -1 4q-9 -10 -25.5 -17.5t-26.5 -5.5q-1 2 -4 5q-1 42 -14 87q-23 -11 -46 -23q-46 -24 -55 -24q-13 0 -13 8q0 4 11 19q-3 0 -9.5 -1t-9.5 -1q-12 0 -12 8q0 28 58 54q23 14 69 40q0 -1 -1 21q-1 28 -2 76 q-14 -9 -40 -28q-4 -7 -15 -21q-30 -27 -53 -27q-12 0 -12 11q0 6 8 19q0 1 -4 4.5t-4 6.5q0 13 18 26l28 18t45 29q9 5 27 18q3 80 3 70v75q0 17 4.5 36t26.5 34q19 14 33 14q2 0 6.5 -3.5t6.5 -3.5t13.5 5.5t14.5 5.5q15 0 17 -13q-1 -16 -2 -46q1 -38 5 -116 q40 18 121 51q-1 24 -7 79q0 3 -5.5 8t-5.5 8q0 16 25 31q22 14 32 14q18 0 23 -20q2 -17 5 -33q7 26 28 47q25 24 50 22q8 -7 8 -13q1 -31 5 -98q8 1 28 0l2.5 -2.5t6.5 -2.5q2 0 40.5 7t41.5 7q13 0 20 -4q5 -17 -36 -43q-37 -23 -53 -23q-7 0 -10.5 4t-6.5 4q1 0 -33 -5 q3 -37 8 -110l108 13q18 0 25 -4zM543 586q-2 26 -2 54q-11 0 -16 5q2 -39 2 -64q9 5 16 5zM672 383q-4 5 -4 9q-15 -2 -43 -6q0 -3 1.5 -8t1.5 -6q14 2 44 11zM551 422q-6 61 -6 104q-9 -5 -16 -5l2 -104q7 2 20 5zM555 358q0 5 -1 10.5l-1 5.5q-13 -4 -20 -4v-14q5 0 12 1 t10 1zM557 308h-10h-10v-7q7 2 20 7zM461 399q-2 14 0 104h-9q-54 -15 -59 -17q-34 -10 -57 -22q2 -39 5 -110q21 9 120 45zM463 342q-2 4 -2 12h-7l-105 -39q73 20 114 27z" />
<glyph unicode="$" horiz-adv-x="641" d="M540 338q0 -30 -19 -62q-5 -8 -14 -22q-8 -9 -34 -33q-22 -20 -22 -23q0 4 12 -38q1 -4 30 -76q26 -66 26 -74q0 -19 -24.5 -37.5t-45.5 -16.5q-14 44 -29 80q-4 -8 -5 -14q-3 -22 -26.5 -38.5t-43.5 -14.5q-1 2 -4 5q-3 41 -6 81q-4 45 -14 77q-42 -15 -69 -15 q-18 0 -33 5q-3 4 -10 9q-22 5 -44 9q-12 5 -12 29q0 40 38.5 85t84.5 60q3 1 21 0q-5 35 -17 92h-6q-14 0 -16 -10q-7 -25 -29 -44.5t-46 -24.5q-4 -1 -16.5 -5.5t-16.5 -4.5q-5 0 -18 8q-11 4 -30 21q-3 6 -8 19q-8 18 -8 59q0 141 126 240q-5 28 -18 58l-4.5 4.5 t-3.5 7.5q0 17 27 34q23 14 35 14q13 0 18 -12.5t10 -24.5q-2 12 0 36q4 17 29 32.5t39 11.5q1 -1 4 -5q1 -33 5 -101q22 2 46 2q32 0 41 -3q2 -1 4.5 -7.5t5.5 -6.5q2 0 5 1t6 1q7 0 9 -1q44 -52 44 -65q0 -16 -26.5 -44.5t-43.5 -32.5q-22 -5 -33 -5q-40 0 -40 38 q0 27 9 46q-6 -1 -20 -1v-12q1 -43 26 -154q19 -5 30.5 -5.5t34.5 -5.5q89 -42 89 -126zM466 298q0 17 -7 41q0 -6 1 -14q1 -6 0 -12q0 -10 -5 -27q-2 -8 -10.5 -22t-8.5 -15q0 -3 1.5 -5t1.5 -3q27 23 27 57zM271 448q-4 18 -19 73q-7 -31 -11 -86q9 2 30 13zM227 609 q0 3 -1 7.5t-1 6.5q-32 -24 -51 -80q-14 -44 -14 -79q0 -25 8 -51q-4 55 27 133q5 11 20 38q12 23 12 25zM309 215q-2 29 -11 87q-1 -3 -6.5 -12.5t-5.5 -11.5q0 -20 23 -63z" />
<glyph unicode="%" horiz-adv-x="921" d="M438 741q0 -8 -1 -24q-6 -22 -18 -38q-90 -121 -99 -131q-87 -100 -146 -100q-50 0 -50 37q0 3 4.5 19.5t5.5 21.5q15 75 83 157q71 87 131 87q15 0 20 -6q1 -3 -0.5 -11t-1.5 -12q19 12 40 12q28 0 32 -12zM757 762q0 -11 -30 -56q-17 -26 -35 -52q-39 -68 -125 -214 q-29 -48 -88 -140q-34 -51 -69 -102q-49 -80 -49 -120q0 -2 1 -4q12 6 23 6q19 0 19 -12q0 -29 -53 -54q-41 -20 -63 -20q-17 0 -27 6q0 15 5 39q6 30 7 41q-46 -46 -76 -46q-19 0 -19 16q0 14 102 180q69 114 211 343q147 231 215 231q17 0 17 -11q0 -5 -14 -26q6 0 17 3 t14 3q17 0 17 -11zM823 319q6 -42 -47 -127q-15 -25 -104 -120q-38 -41 -59 -55q-29 -20 -63 -20q-49 0 -49 36q0 18 24 66q36 70 84 139q91 133 148 133q17 0 17 -12q0 -5 -20 -32q7 0 19.5 3.5t15.5 3.5q16 0 34 -15zM346 675q-9 -8 -43 -48q-26 -30 -35 -31 q-44 -28 -44 -50v-18q20 9 62 59.5t60 87.5zM621 665q-40 -58 -135 -214q-50 -90 -116 -205q44 60 147 223q56 96 104 196zM727 249q-11 -12 -33 -47q-12 -29 -12 -33v-1q4 0 24 27q25 34 25 48q0 5 -4 6z" />
<glyph unicode="&#x26;" horiz-adv-x="723" d="M655 114q0 -19 -29.5 -38.5t-44.5 -19.5q-17 0 -24.5 17t-13.5 34q-1 -1 -1 -11q0 -11 5.5 -28.5t11.5 -21.5q8 0 22 -6q1 -19 -29 -43.5t-51 -24.5q-49 0 -49 108q0 -13 9 114q-61 -26 -175 -68q-18 -6 -57 -6h-28q-20 4 -20 21t61 81q31 32 63 65q-2 1 -7 1 q2 0 -45.5 -22.5t-92.5 -22.5q-42 0 -42 24q0 10 21 46l25 43q31 72 108 150t143 102q-6 0 -17 2q-7 10 -20 29q-26 35 -46 54q-7 3 -19 11q0 17 20 36q17 16 36 23q7 1 21 5q18 14 55 35q3 1 10 1q17 0 42 -36q18 -27 23 -41q9 -26 9 -43q0 -42 -19 -60q7 -3 21 -10 q3 -20 -26.5 -41.5t-50.5 -21.5q-3 0 -12 1.5t-12 1.5q-26 0 -67 -78q-37 -70 -37 -92q0 -5 10 -20q9 4 102 63q81 51 105 51q17 0 17 -11q0 -18 -32 -39q-18 -11 -37 -22q-21 -20 -59 -65q-5 -7 -12 -33.5t-7 -32.5q0 -19 5 -19q3 0 10.5 5t11.5 5q23 2 76 28q49 24 70 20 q5 -4 5 -10q0 5 -6 -17q8 -11 21 -37q11 -38 34 -113q1 -3 8 -11t7 -12zM242 315q-8 13 -1 55q-19 -34 -33 -55q26 1 34 0zM328 197q-6 29 -6 38q-31 -30 -43 -47h22q2 0 27 9z" />
<glyph unicode="'" horiz-adv-x="517" d="M369 657q0 -53 -17 -100q-6 -19 -31.5 -38t-45.5 -19q-11 0 -12 1q-4 3 -14 24q-11 -27 -35.5 -48t-46.5 -21q-15 0 -15 10q0 2 9 23t11 30q3 17 3 48q0 40 -16 140q0 2 -3.5 7.5t-3.5 8.5q0 21 31 41q27 17 41 17q20 0 25 -31q5 27 33 46.5t50 15.5q9 -9 10 -14l20 -72 q7 -31 7 -69zM281 611q0 32 -6 56q-9 35 -18 69q-1 5 -4 9.5t-3 0.5q0 -3 4.5 -25t5.5 -29q6 -84 1 -130q7 5 14 11q6 18 6 38z" />
<glyph unicode="(" horiz-adv-x="560" d="M448 40q0 -17 -22.5 -36t-41.5 -23q-2 -1 -19 -1q-33 45 -68 121q-37 -27 -57 -27q-27 0 -58 40q-22 30 -25 34q-14 20 -18 35q-11 47 -11 97q0 110 46 245q55 159 138 214q7 10 19 28q8 12 30 24.5t35 12.5q15 0 15 -11l-16 -36t-20 -52q-26 -118 -28 -186q0 -26 -5 -84 q-4 -54 -4 -55q0 -85 30 -178q15 -43 26 -65q7 -16 33 -58q21 -35 21 -39zM271 576v7h-5v-7h5zM266 576q-49 -168 -49 -248q0 -90 28 -117q14 7 14 14q0 -4 -6 40q-4 30 -4 68q0 95 17 243z" />
<glyph unicode=")" horiz-adv-x="583" d="M469 438q0 -220 -106 -400q-10 -15 -41 -30.5t-49 -15.5q-9 0 -14 4t-9 4q-3 0 -14 -7t-15 -9q-10 -3 -19 -3q-17 0 -17 17q0 2 9 42q10 44 13 64q15 130 15 223q0 202 -63 319q-4 6 -27 35q-18 23 -18 32q0 22 35 44q30 19 45 19q3 0 7 -1.5t7 -1.5t13 8.5t13 10.5 q22 12 40 12q25 0 69 -39q39 -36 62 -72l25 -57q39 -91 39 -198zM372 387q0 178 -104 295q50 -132 50 -304v-90t-13 -131q8 3 18.5 -2t7.5 -15q41 145 41 247z" />
<glyph unicode="*" horiz-adv-x="685" d="M586 507q3 -25 -26.5 -48t-55.5 -23q-15 0 -80 20q6 -66 6 -93q0 -33 -1 -38q-4 -23 -38 -46t-54 -19q-5 3 -5 11q0 2 3 17q3 11 0 17q-10 34 -36 104q-40 -60 -40 -73q0 -3 5.5 -7.5t5.5 -7.5q0 -24 -36 -44q-29 -17 -45 -17q-18 0 -25 11q-27 -13 -37 -13q-19 0 -19 13 q0 18 87 148q16 27 56 85q-5 12 -41 12q-8 0 -30.5 -15t-38.5 -15q-13 0 -27 11.5t-14 21.5q0 22 33 46q28 20 51 24l51 6q-47 109 -47 119q0 23 34 46q29 20 46 20q10 0 18 -9q42 44 77 39q18 -23 20 -67q2 -51 10 -71q103 77 141 77q6 0 16 -1q12 -15 12 -26 q0 -22 -44 -46q-24 -12 -47 -23q-4 -4 -66 -81v-16q42 -13 123 -37q19 -3 58 -12z" />
<glyph unicode="+" horiz-adv-x="909" d="M762 438q0 -21 -35 -45q-28 -19 -43 -22q-52 -11 -115 -15v-18q1 -3 20 -122t19 -123q0 -24 -35 -49.5t-59 -20.5q-12 10 -12 19q0 33 -5 52q-43 -41 -73 -41q-28 0 -33 69q-2 20 -5 60.5t-9 125.5l-1.5 1.5t-5.5 1.5q-28 0 -98 -25q-23 -19 -68 -43q-3 -1 -12 -1 q-23 0 -23 18q0 10 18 34q-9 2 -25 -1l-19 -3q-21 0 -21 12q0 27 45 55q38 25 56 25q3 0 9 -3t9 -3q17 0 130 38v236q0 19 36 41q33 20 47 20q3 0 8 -3t8 -3q1 0 23 18t44 18q8 0 11 -2q12 -15 13 -33q6 -191 -1 -244h20q3 0 76.5 12t77.5 12q22 0 22 -11q0 -8 -8 -23 q14 -8 14 -14z" />
<glyph unicode="," horiz-adv-x="594" d="M406 16v-30q-4 -37 -40 -70t-69 -33q-9 0 -18 8q-37 -30 -55 -30q-16 0 -16 11q0 3 13.5 26t16.5 33q9 26 9 55q0 26 -14 68q-4 11 -18 38q-12 23 -12 26q0 19 29 37q26 16 40 16q18 0 20 -12q36 15 43 15h10q6 -3 24 -22q37 -42 37 -136zM326 -18q-3 -7 -10 -30v-22 q0 -3 6 5t6 17q0 13 -2 30z" />
<glyph unicode="-" d="M724 473q1 -12 -13.5 -30.5t-31.5 -26.5q-7 -3 -21 -12q1 -3 1 -7q0 -20 -31.5 -42.5t-52.5 -22.5q-3 0 -37 4.5t-38 4.5q-1 0 -26 -4t-37 -4q-42 -1 -121 -23l-66 -24q-63 -22 -89 -22q-16 0 -32 9q-6 25 27 54t58 29q8 0 10 -1t3.5 -6t5.5 -5q10 0 149 49q-1 1 -12 1 q-72 -2 -150.5 -23t-70.5 -21q-21 0 -21 12q0 64 236 100q156 24 265 24q59 0 71 -2q8 0 24 -11z" />
<glyph unicode="." horiz-adv-x="682" d="M533 168q4 -14 -12 -37q-11 -14 -22 -22q-162 -115 -288 -115q-21 0 -31 6q-5 49 90 138.5t147 89.5q20 0 20 -12q0 -8 -13 -23t-22 -20q54 6 72 6q51 0 59 -11zM392 107q-63 -4 -56 -24q2 -6 9 -6q15 0 47 30z" />
<glyph unicode="/" horiz-adv-x="791" d="M779 791q0 -11 -21 -41l-30 -40v-4q12 7 21 7q18 0 18 -14q0 -7 -32 -51q-16 -26 -49 -74q-131 -163 -389 -490q2 -2 14 -3q7 -1 7 -10q0 -20 -36 -47q-27 -21 -42 -26q-20 -7 -35 -7q-18 0 -26 10q0 14 12 38q-5 0 -14.5 -2t-12.5 -2q-18 0 -18 12q0 6 18.5 39.5 t32.5 49.5q55 58 128 152q66 88 133 176q81 109 238 307q10 12 30.5 22.5t34.5 10.5q18 0 18 -13z" />
<glyph unicode="0" horiz-adv-x="793" d="M714 429q0 -151 -134 -271q-117 -105 -257 -129q-2 -2 0 -8q3 -7 3 -9q0 -5 -13 -36q-4 -10 -15 -30q-10 -13 -30 -24.5t-34 -11.5q-10 0 -16 6q-3 28 8 59q10 26 19 52q-13 3 -34.5 12.5t-27.5 13.5q-16 9 -23 20q-8 22 -24 62q-8 8 -22 24q-7 10 -16 30q-12 41 -12 84 q0 80 57 196q60 124 147 206q102 96 206 96q3 0 23 -3t23 -3q6 0 23 26q21 34 35 48q25 26 55 26q16 0 16 -12q0 -4 -33.5 -60.5t-33.5 -59.5q0 -1 17 -20q20 -22 30 -37q33 -51 54 -157q9 -46 9 -90zM576 585q-9 23 -22 40q-1 -1 -3.5 -4.5t-3.5 -5.5q18 -13 29 -30z M504 675q-26 17 -30 17q-15 0 -72 -39q-17 -11 -51 -47q-14 -15 -32 -56q71 96 162 94q6 0 13 13zM621 348v7h-5v-7h5zM450 559q-19 15 -31 15q-20 0 -44 -46q-19 -34 -21 -47q-15 -73 -15 -126q0 -36 4 -62q14 48 107 266zM531 363q0 70 -31 138q-117 -289 -117 -305 q0 -4 7 -11.5t11 -7.5q20 0 62.5 35.5t50.5 60.5t16 51q1 6 1 39zM616 345q-6 -45 -62 -109t-107 -90q16 -7 14 -17q68 37 112 97.5t43 118.5zM254 385v10h-5v-10h5zM264 177v10q-13 51 -15 67q-1 9 -1 53q0 64 1 78q-25 -121 -25 -144q0 -38 5 -45.5t16 -11.5q17 -6 19 -7z " />
<glyph unicode="1" horiz-adv-x="533" d="M422 245q0 -3 -2 -21.5t-2 -26.5q0 -26 -4 -79q-4 -23 -31 -42.5t-45 -19.5q-15 0 -15 11q-1 20 -3 23q-24 -21 -46 -15q1 -5 1 -9q0 -23 -27 -44.5t-48 -21.5q-9 0 -15 7v227q0 3 2 12.5t2 11.5q11 125 25 357q2 22 5 51v17q-12 -7 -25 -27q-19 -31 -21 -34 q-11 -13 -31 -25t-34 -12q-16 0 -16 10q0 11 23 45q38 55 94 107q68 62 102 57q6 -9 6 -22q0 -7 -2.5 -22.5t-1.5 -24.5q38 49 77 43q6 -4 4 -31q-3 -25 -6 -58v-10l18 -3q4 -2 10 -22t6 -31v-378z" />
<glyph unicode="2" horiz-adv-x="854" d="M783 191q1 -11 -13.5 -29.5t-29.5 -26.5q-8 -3 -23 -10q-1 0 -6 -14q22 2 66 -5q7 -23 -25.5 -49t-55.5 -26q-4 0 -41.5 3t-41.5 3q-119 0 -306 -35q-18 -4 -81 -20q-52 -14 -64 -14q-13 0 -28 10q4 18 17 35q-12 7 -16 7q-3 0 -12.5 -3t-13.5 -3q-18 0 -18 13 q0 38 84 68q13 5 11 22q-48 -31 -74 -31q-18 0 -27 9q-2 23 24 62q22 28 67 85q102 135 207 238q130 127 229 167q23 9 45 21q-22 61 -103 61q-55 0 -139.5 -29t-102.5 -53q5 -25 -26 -48.5t-58 -23.5q-17 0 -26 9q0 24 7 33q72 87 198 140q111 47 210 47q96 0 124 -53 q22 -42 22 -80q0 -46 -35 -118q-8 -16 -30 -32t-39 -20q-6 0 -17 -2q-79 -29 -177 -125q-80 -79 -148 -178q1 -2 3 -1q75 23 117 28q20 3 83 3q61 0 135 -8q93 -10 128 -27zM566 566q-85 -52 -186 -165q48 34 136 106q3 9 13 25q15 18 37 34zM400 84q-5 0 -14.5 2.5 t-12.5 2.5q1 0 -115 -22q-3 -1 -10 -9h13q2 -1 55 11q58 12 84 15zM301 273q-22 -14 -22 -21q0 -4 4 -4q6 0 18 25z" />
<glyph unicode="3" horiz-adv-x="757" d="M685 355q0 -106 -84 -197q-78 -84 -209 -138q-79 -33 -153 -32q-6 0 -20 -2.5t-17 -2.5q-28 0 -40 7q-3 1 -18 27q-6 5 -20 19q-26 24 -26 85q0 80 72 102q6 1 20 0q6 -6 3 -35q-3 -32 0 -42q4 -10 6 -10q3 0 20.5 8.5t20.5 8.5q16 0 16 -13q0 -3 -7 -16.5t-8 -18.5 q-1 -8 -4 -23q23 -19 51 -19q20 0 54.5 20t71.5 54q46 42 57 75q7 19 7 44q0 -3 1 19q2 16 -0.5 24.5t-9 24.5t-30.5 50q-47 52 -106 52q-6 0 -74 -42.5t-82 -42.5q-19 0 -19 14q0 10 14 42q-2 11 0 17q8 21 36 43q23 18 47 35.5t193 185.5q-5 2 -15 1q-22 -6 -66 -15 q-194 -28 -216 -28q-20 0 -20 11q0 12 22 34q-17 16 -17 18q0 16 24 35q17 14 34 21q6 2 66 13q26 6 79 17q110 18 165 17h123q6 -6 6 -12t-14 -26q6 0 17 3t14 3q16 0 16 -11q0 -14 -12 -24q-101 -84 -239 -223q79 15 87 15q79 0 131 -48t52 -124zM592 306q0 31 -15 64 q-17 39 -42 53q35 -61 35 -117q0 -52 -28 -99q-24 -40 -85 -100q135 70 135 199zM555 721q-20 -18 -69 -66q-30 -31 -39 -49q25 19 58 54q25 25 50 61z" />
<glyph unicode="4" horiz-adv-x="781" d="M710 345q-14 -45 -64 -59q-42 -7 -84 -13v-173q0 -3 2.5 -6.5t2.5 -6.5t-6 -52q-2 -17 -29 -35t-42 -18q-10 0 -16 6v274h-19q-3 0 -177 -20.5t-177 -20.5q-23 0 -23 15q0 29 65 58q-8 0 -24.5 -1.5t-18.5 -1.5q-14 0 -21 5q0 -1 2 17q-3 1 -11 7q2 13 15 30t26 33 q3 8 10 23q-6 15 -1 21q33 44 120 145q78 93 117 146q3 11 14 31q12 13 33 24.5t36 11.5q19 0 19 -10q0 -11 -32 -54v-3q4 4 71 42q8 9 23 24q16 12 47 26q3 1 12 1q18 0 18 -10q0 -3 -8 -15q-11 -15 -14 -21q-5 -9 -7 -43q-3 -48 -7 -103v-171q27 2 78 -5q0 -28 -29 -45 q14 -3 49 -2q32 1 47 -5q0 -7 -8 -21.5t-18 -17.5q9 -1 29 -7zM484 705q-34 -19 -68 -58q-26 -31 -51 -61q-81 -93 -127 -139q16 2 236 -1v134q2 59 10 125zM474 328h-56q-54 0 -52 1q-32 -4 -137 -19q-6 -9 -6 -14zM282 380h-31q0 -4 -25 -3q-35 1 -41 1q-4 -1 -16 -14 q33 4 113 16z" />
<glyph unicode="5" horiz-adv-x="810" d="M531 278q4 -35 -12 -63q-11 -21 -50 -56q25 28 39 62q11 27 23 57zM816 793q5 -19 -27 -43t-53 -24q-3 0 -11 3t-12 3h-34v-2q13 -1 26 -3q19 -2 27 -10q6 -20 -26 -45t-53 -25q-3 0 -9.5 2.5t-8.5 2.5q-42 7 -84 7q-49 0 -111 -11q-51 -10 -101 -20q1 -18 -1 -59 q-2 -45 -2 -41q0 -7 3 -7q4 0 5 1.5l1 1.5q29 14 78 14q19 0 52 -6q38 -7 49 -15q107 -83 107 -174q0 -75 -68 -160q-58 -74 -144 -129q-82 -53 -134 -53q-3 0 -54.5 -1.5t-54.5 -1.5q-62 0 -62 34q0 24 41 66q31 32 52 45q27 17 75 15q2 -1 5 -6q6 -66 25 -66q9 0 41 23 q41 31 68 87q25 53 25 99q0 31 -27 76q-31 52 -66 52q-29 0 -53 -14q-29 -17 -57 -22q3 -26 -24 -51.5t-54 -25.5q-17 0 -21 13q-1 4 -2 28l-3 369q0 22 34 44q30 18 46 18q12 0 14.5 -3t6.5 -25q15 12 30.5 23t33.5 11q14 0 21.5 -15.5t10.5 -15.5q-5 0 35 7q218 41 346 41 q64 0 78 -1q11 -1 21 -11zM244 625q-8 -36 -6 -66q2 -24 7 -62q7 44 6 70q-1 24 -7 58z" />
<glyph unicode="6" horiz-adv-x="687" d="M611 298q0 -83 -81 -165q-73 -74 -140 -85q-3 0 -26 -19q-28 -23 -58 -32h-25q-50 0 -85 32q-20 18 -66 84q-10 14 -16 31q-19 60 -19 96q0 55 19 112q77 229 233 353l44 44q2 5 8.5 14t28.5 24q26 17 72 17q18 0 43 -9q34 -13 34 -34q0 -33 -45 -54q-33 -16 -57 -16 q-18 0 -20.5 1t-12 6.5t-13.5 5.5q-24 0 -55 -77q-51 -132 -67 -236l2 -17q75 58 157 58q145 0 145 -134zM522 251q0 22 -14 54q-17 36 -38 45v-8q0 -4 2 -12t2 -10q4 -68 -3 -99q-2 -13 -16 -45.5t-14 -33.5q0 -3 5.5 -10t5.5 -9q70 51 70 128zM386 231q0 50 -18 94 q-4 10 -8 10t-7 -1.5t-6 -1.5q-10 0 -15 5q-21 -24 -25 -36q-2 -7 -2 -28q0 -73 32 -137h8q3 0 11 1.5t10 1.5q11 22 16 42q4 14 4 50zM259 523q-23 -44 -46 -107q-29 -82 -29 -128q0 -27 11.5 -64.5t21.5 -49.5q-6 65 -6 73q1 12 8 105q3 34 16 85z" />
<glyph unicode="7" horiz-adv-x="808" d="M789 774q0 -10 -22 -34q-16 -18 -32 -35q-11 -12 -29 -43q-45 -75 -98 -177q17 -6 54 -22q4 -20 -28.5 -44.5t-53.5 -24.5q-8 0 -14 3q-18 -35 -53 -112q-20 -55 -60 -167q-50 -133 -119 -133q-17 0 -17 15q0 3 14 37q18 42 23 56q1 2 -1 4q-34 -26 -53 -26q-10 0 -16 6 q-81 -92 -137 -92q-11 0 -23 9q-1 22 4 31q25 46 209 369h-15q-24 -9 -47 -17q-46 -18 -66 -18q-19 0 -19 12q0 15 28 41q26 23 42 27q39 10 118 30q8 2 17 18l12 24q29 45 57 90q34 53 72 90q-12 2 -65 2q-92 0 -242 -24q-3 0 -40 -10q-27 -6 -51 -6q-23 0 -34 6 q-2 13 15 31.5t34 27.5q-9 20 -9 18q0 23 32 46q29 20 49 20q3 0 12 -5.5t12 -5.5t33.5 5t41.5 5q19 1 120 1q118 0 191 -7q-1 0 36 1q26 1 31 -6q-1 -21 -11 -29q5 -10 16 -10l22 17t43 17q17 0 17 -11zM572 647q-62 -81 -105 -166h13q32 57 92 166zM438 405h-17 q-67 -114 -170 -298q28 7 39 5q34 71 148 293z" />
<glyph unicode="8" horiz-adv-x="716" d="M706 290q0 -46 -36 -106q-59 -101 -164 -153q-89 -45 -185 -45q-55 0 -116 22q-74 26 -93 67q-10 21 -10 57q0 61 55 140q52 73 128 131q-85 16 -85 103q0 60 53 140q9 17 27 45q105 113 225 113q151 0 151 -121q0 -85 -116 -184q6 -2 11.5 -4t5.5 -10q0 -7 -19 -33 q168 -15 168 -162zM560 639v15q0 13 -18.5 36t-35.5 29q-27 9 -39 9q-3 0 -14.5 -5t-14.5 -5q-17 -1 -46 -8q-62 -33 -62 -82q0 -22 31 -37q25 -12 47 -12q44 0 76 18q20 16 56 37q13 5 20 5zM548 587q-83 -81 -201 -81q-32 0 -39 2q6 -13 30 -24q21 -9 37 -9q41 0 98.5 36 t74.5 76zM611 260q7 14 2 32q-5 21 -16 34q0 -5 6 -24q6 -22 8 -42zM510 180q0 23 -10 59q-9 33 -17 47q-16 28 -44 45q-31 18 -45 18q-12 0 -36 -26t-28 -43q-6 -30 -6 -42q0 -39 47 -68q39 -24 73 -23h62q4 13 4 33zM467 72q-50 -1 -127 5q-54 11 -83 41t-29 69 q0 111 149 217q-53 -23 -110 -85q-69 -74 -69 -136q0 -36 12 -53q19 -27 79 -50q56 -21 94 -21q20 0 84 13z" />
<glyph unicode="9" horiz-adv-x="612" d="M554 658q0 -19 -12 -51q-15 -38 -17 -49q-1 -28 -4 -83q-7 -91 -45 -183q-8 -23 -27.5 -71t-46.5 -90q-49 -76 -89 -76q-15 0 -15 12q0 -1 25 51q8 8 21 22q25 39 48 116q5 10 13 29q22 82 31 137q-9 3 -10 -4.5t-2 -14.5l-24 -98q-18 -64 -37 -104q-41 -87 -86 -143 q-30 -37 -64 -53q-13 -8 -27 -15q-18 -9 -30 -9q-16 0 -16 10q0 6 32 49q9 16 35 49q15 6 39 23q21 19 35 62q19 63 22 73t8 34q10 34 15 73q3 33 7 67q2 12 24 30q3 1 1 5q-60 -34 -79 -42q-35 -14 -76 -14q-35 0 -42 3q-75 32 -75 100q0 100 86 186q76 76 166 95 q9 4 27 11q24 9 52 9q34 0 71 -22q42 -26 58 -65q8 -22 8 -59zM386 709q0 6 -5 23q-13 0 -36 -3q-11 -7 -31 -18q-29 -87 -29 -119q0 -18 7 -45t15 -36.5t29 -9.5q24 0 32 15q5 28 12 110q6 75 6 83zM233 688q-25 -15 -45 -63q-18 -44 -18 -78q0 -48 44 -71q-3 5 -7.5 31.5 t-4.5 39.5q0 59 31 141z" />
<glyph unicode=":" horiz-adv-x="566" d="M453 168q4 -14 -12 -37q-11 -14 -22 -22q-162 -115 -288 -115q-21 0 -31 6q-5 49 90 138.5t147 89.5q20 0 20 -12q0 -8 -13 -23t-22 -20q54 6 72 6q51 0 59 -11zM312 107q-63 -4 -56 -24q2 -6 9 -6q15 0 47 30zM454 542q4 -14 -13 -36q-10 -14 -22 -22 q-161 -115 -287 -115q-22 0 -31 6q-6 48 89 137.5t147 89.5q20 0 20 -11q0 -9 -12.5 -23.5t-21.5 -20.5q53 7 71 7q51 0 60 -12zM313 481q-64 -3 -56 -24q2 -6 8 -6q15 0 48 30z" />
<glyph unicode=";" horiz-adv-x="573" d="M485 516q4 -14 -12 -37q-11 -14 -22 -22q-162 -115 -288 -115q-21 0 -31 6q-5 49 90 138.5t147 89.5q20 0 20 -12q0 -8 -13 -23t-22 -20q54 6 72 6q51 0 59 -11zM344 455q-63 -4 -56 -24q2 -6 9 -6q15 0 47 30zM359 16q0 -19 -1 -30q-3 -37 -39.5 -70t-68.5 -33 q-9 0 -18 8q-37 -30 -56 -30q-16 0 -16 11q0 3 14 26t17 33q8 26 8 55q0 26 -14 68q-3 11 -17 38q-12 23 -12 26q0 19 29 37q25 16 40 16q17 0 20 -12q36 15 43 15h10q6 -3 24 -22q37 -42 37 -136zM278 -18q-3 -7 -10 -30v-22q0 -3 6 5t6 17q0 13 -2 30z" />
<glyph unicode="&#x3c;" horiz-adv-x="718" d="M638 84q0 -20 -31.5 -40.5t-46.5 -20.5q-7 0 -33 16q-13 9 -26 17q3 -18 -28.5 -42.5t-53.5 -24.5q-18 0 -68 45q-70 63 -124 145q-36 54 -46 71q-25 42 -33 69q-3 7 -9 19q-2 0 -8.5 -1.5t-10.5 -1.5q-18 0 -18 11t36 49q23 24 47 49q308 360 380 360q17 0 17 -11 q0 -9 -10 -22q-1 -1 -1 -4q14 -10 -1 -32q-13 -12 -36 -35l-116 -142q-71 -84 -129 -138q15 -108 170 -218q33 -24 119 -74q60 -34 60 -44z" />
<glyph unicode="=" horiz-adv-x="876" d="M730 523q0 -21 -34 -42q-28 -18 -42 -18q-7 0 -18 8.5t-22 12.5q-3 1 -40 1q-92 0 -237 -19t-152 -19q-18 0 -27 6q0 12 13 30q-9 1 -27 8q-1 12 12.5 29t29.5 23q72 29 187 46q105 15 204 15q104 0 147 -11q3 -14 -21 -39q2 -5 14.5 -13.5t12.5 -17.5zM789 257 q4 -19 -26.5 -42t-50.5 -23q-6 0 -41 16q-18 8 -35 16q-57 11 -89 11q-74 0 -234.5 -29.5l-160.5 -29.5q-19 0 -19 11q0 42 119 77q29 9 117 18q1 -1 -50 -1q-3 0 -16 -2t-18 -2q-49 -2 -115 -32q-12 -6 -23 -13q-14 -7 -25 -7q-10 0 -24 8q16 68 147 94q162 30 283 30 q161 0 161 -29q0 -5 -14 -26q53 -9 114 -45z" />
<glyph unicode="&#x3e;" horiz-adv-x="761" d="M702 412q0 -24 -56 -54q-3 -2 -23 -4q-88 -100 -176 -199q-152 -163 -197 -163q-16 0 -16 10q0 9 18 27.5t22 27.5q-42 -34 -66 -34q-26 0 -26 21q0 18 83 90q45 37 90 75q32 34 128 129q-54 45 -183 210q-106 134 -162 152q0 23 30 44q27 18 44 18q20 0 60 -29 q-4 25 28 50q30 22 53 22q6 0 9 -1q39 -73 98.5 -152t107.5 -122q37 -29 75 -57q59 -47 59 -61zM573 408q-1 1 -8 5t-8 5q0 -3 2.5 -11.5t2.5 -9.5zM357 151q-14 -11 -36 -33q-6 -14 6 -6q2 2 30 39z" />
<glyph unicode="?" horiz-adv-x="809" d="M725 730q0 -24 -20 -54q-15 -24 -109 -119q-25 -28 -79 -81q-45 -35 -102 -69q-45 -28 -79 -59q4 -1 21 -1q3 0 91.5 17t91.5 17q22 0 22 -11q0 -17 -23 -35q-17 -13 -33 -19q-3 -1 -44 -10t-81 -18q-55 -12 -90 -12q-49 0 -49 23q0 12 22 40q18 23 30 33q-8 6 -8 11 q0 11 24.5 35.5t27.5 32.5q34 83 61 225l-25 25l-5 -4q-32 -22 -51 -22q-24 0 -22 16t-1 16q-17 0 -17 -12q0 -3 8 -18.5t8 -18.5q0 -12 -16.5 -27.5t-16.5 -17.5q-1 -10 -5 -27q-18 -35 -53.5 -57t-68.5 -22q-42 0 -42 37q0 28 18 58q-9 2 -26 8q1 15 11 28q15 18 26 25 q175 118 324 145q48 9 96 9q51 0 107 -18q77 -26 77 -69zM562 189q0 -8 -10 -26q-38 -66 -111 -125q-63 -51 -132 -82q-37 -17 -78 -17q-47 0 -47 31q0 12 10 27.5t20 30.5q20 32 59.5 71.5t71.5 59.5q132 80 172 80q18 0 18 -9q0 -7 -7 -18l16 -4q13 -3 17 -12q1 -3 1 -7z M633 682q0 13 -9 21q-5 4 -27 16q12 -12 19 -33q5 -14 11 -29q6 19 6 25zM536 591q0 20 -16 51q-18 36 -39 43q-5 -50 -55 -204q34 25 67 49q43 33 43 61zM470 139h-12q-12 -4 -30 -15q-11 -13 -31 -32q-41 -27 -66 -27q-9 0 -17 8q-15 -20 -41 -59q6 -6 16 -6q36 0 101 49 q62 47 80 82z" />
<glyph unicode="@" horiz-adv-x="959" d="M844 466q0 -144 -124 -205q-7 -3 -28 -3q-5 9 -19 21q-29 11 -37 11q2 0 -58 -25.5t-110 -25.5q-40 0 -69 12q-18 7 -24 18q-3 8 -3 31q0 82 88 169.5t180 87.5q11 0 22 -1v36q-1 11 -6 31q-7 27 -15 27q-2 0 -15.5 -5.5t-17.5 -5.5q-19 0 -19 21q0 3 3 20q-30 7 -62 7 q-41 0 -55 -24q-21 -38 -61 -60q-8 -4 -36 -60q-22 -43 -33 -69q-13 -34 -21 -70q-6 -26 -6 -55q0 -76 54.5 -129t142.5 -54q9 0 39.5 -5t33.5 -5t22 5.5t22 5.5q16 0 16 -11q0 -9 -11 -20v-0.5v-0.5h4q18 0 75 32q6 10 24 28q22 17 43 24q3 1 13 1q18 0 18 -16 q0 -36 -81 -81q-163 -90 -316 -90q-44 0 -82 6q-17 5 -56 16q-9 5 -25 14q-44 22 -85 73.5t-45 92.5q-1 3 -3.5 12.5t-3.5 14.5q-3 31 -3 51q0 138 117 264.5t284 172.5q10 5 29 14t70 9q35 0 41 -1q12 -2 41 -16q13 -10 40 -28q18 -10 36 -19q32 -19 32 -32q0 -3 -7 -13 t-7 -13q0 4 21 -42q33 -76 33 -143zM659 436q0 17 -27 30q-23 12 -40 12q-22 0 -53 -12q-14 -5 -16 -13q-6 -20 -6 -37q0 -6 4 -22q4 -19 10 -22q22 -15 62 -15q34 0 43 12t17 38q6 22 6 29zM369 636q-51 -32 -100.5 -97t-57.5 -113q-6 -40 -6 -65q0 -52 29 -120 q-8 24 -8 57q0 65 28 135q9 17 23 46q35 82 92 157z" />
<glyph unicode="A" horiz-adv-x="896" d="M882 250q0 -34 -105 -79q37 -96 37 -111q0 -26 -32 -50.5t-59 -20.5q-14 40 -50 150q-222 -58 -340 -100q-13 -4 -37 -14q-13 -9 -25.5 -17t-27.5 -8q-17 0 -17 17q0 21 20 80.5t20 70.5q0 4 -1 5q-24 -51 -48 -101q-41 -72 -93 -72q-20 0 -20 13q0 6 20 72q21 72 38 113 q76 174 225 525q3 12 13 34q32 38 70 38q10 0 15 -11.5l5 -11.5q4 0 43 14.5t42 14.5q18 0 22 -13q43 -146 134 -439q77 17 80 17q23 0 23 -14q0 -17 -37 -47l-46 -34q8 -41 16 -41q3 0 48.5 15.5t49.5 15.5q17 0 17 -11zM626 313q-42 127 -78 260q-21 -58 -53 -142 q-8 -19 -92 -249q89 69 223 131zM657 197q-2 9 -6 22q-27 -15 -73 -39q13 3 40 8.5t39 8.5z" />
<glyph unicode="B" horiz-adv-x="789" d="M795 308q0 -96 -146 -189q-17 -11 -62 -30q-33 -15 -100 -41l-33 -13q-22 -9 -31 -9q-14 0 -15.5 9t-2.5 9q-2 0 -17.5 -4t-22.5 -4q-3 -23 -30.5 -43.5t-49.5 -20.5q-4 0 -8 1q-9 7 -13 21q-16 68 -24 164q-6 80 -11 159q-1 -9 -1 -64q0 -58 5 -95t5 -48q0 -16 -1 -21 q-3 -18 -29 -35.5t-41 -17.5q-17 0 -25 22q2 8 4 23q-6 32 -17 92l-18 150q-11 120 -11 261q0 75 7 94q15 48 79 52q4 -3 4 -10l-4 -21q-2 -13 2 -22q6 43 32 81q32 47 74 44q6 -12 9 -40q2 -31 6 -42q62 31 130 41q47 8 131 8q30 0 50 -6q8 -7 26 -22q26 -20 31 -25 q13 -13 13 -29q0 -38 -105 -120q-22 -17 -214 -162q1 -1 3 -1q61 28 92 36q43 12 96 12q82 0 140 -23q93 -36 93 -121zM565 672q0 4 -20 12q7 -64 -137 -181q-1 -3 -4 -9q53 29 137 127q4 6 13 23q11 21 11 28zM458 636q-27 21 -44 21q-2 0 -104 -24l3 -147q52 38 79 61 q51 43 65 75q0 5 1 14zM483 383v4h-7v-4h7zM476 383h-9q-26 0 -113 -39q-8 -3 -19 -13q57 18 141 52zM636 233q0 12 -23 26q-16 11 -46 27q-70 21 -98 21q-12 0 -146 -36v-36q0 -1 23 -168q25 29 45 43q31 21 97 56q74 39 91 39t17 -10q0 -9 -10 -23q50 39 50 61zM348 452 l-32 -30q10 -7 22.5 3.5t9.5 26.5z" />
<glyph unicode="C" horiz-adv-x="889" d="M872 203q0 -27 -81 -71q8 -1 25 -7q0 -10 -1 -13q-24 -50 -96 -70q-54 -12 -107 -24q-10 -2 -28 -5q-150 -32 -223 -32q-235 0 -235 204q0 73 66 215q59 128 188 241q133 117 251 139q8 4 25 9q72 15 96 15q37 0 92 -28q2 -21 -29 -43.5t-53 -22.5q-3 0 -14 4t-14 4 q-4 0 -13 -7.5t-11 -8.5q-154 -83 -239 -163q-67 -62 -88 -123q-26 -73 -26 -110q0 -3 4.5 -24t5.5 -30q2 -21 29.5 -54.5t51.5 -40.5q55 -18 108 -18q55 0 140 23q79 21 140 48q9 4 19 4q17 0 17 -11zM604 712q-15 -5 -26 -7q-45 -8 -109 -53q-29 -21 -72 -57 q-79 -85 -126 -189q79 143 333 306z" />
<glyph unicode="D" horiz-adv-x="832" d="M830 445q0 -50 -45 -121q-38 -60 -92 -115q-6 -6 -43 -69q-16 -29 -43.5 -51.5t-48.5 -22.5q-19 0 -19 16q0 7 3 17v4q-27 -13 -77 -45q-2 -10 -13 -28q-40 -37 -67 -37q-13 0 -12 0q-5 2 -11 17q-17 -25 -42.5 -42t-46.5 -14q-8 20 -12 59q-6 57 -9 73q-8 -31 -34 -49.5 t-54 -18.5q-9 10 -11 12q-4 59 -11 119q-22 181 -28 290.5t-6 232.5q0 69 1 74q2 18 30.5 38t45.5 20q15 0 15 -12q2 -22 3 -25q39 25 56 25q23 0 28 -22q3 -18 7 -37q93 40 174 40q106 0 221 -78q21 -9 64 -33q28 -22 40 -55q5 -12 13 -54q6 -13 15 -37q9 -39 9 -71z M709 485q0 26 -35 72q-27 34 -55 58q22 -45 44 -91q26 -56 34 -91q12 34 12 52zM616 313q0 49 -45 151q-41 92 -75.5 134.5t-87.5 42.5h-11q34 -141 60 -422q1 -17 0 -48q-2 -40 -2 -43q73 65 126 135q11 13 22 25q13 16 13 25zM353 268v14h-4v-14h4zM369 166q-6 31 -15 94 q0 -68 5 -194q0 14 6 51q5 34 4 49zM243 168q-3 -13 -2 -23q1 -14 5 -17q6 11 4 19t-7 21zM727 354q-3 -1 -13 -15q-5 -12 -14 -32q9 9 21 25q4 7 6 22zM613 220q-4 -5 -13 -16q-4 -6 -9 -18q7 5 16 15q3 5 6 19z" />
<glyph unicode="E" horiz-adv-x="870" d="M831 265q0 -20 -23.5 -36t-44.5 -19q-39 -6 -73 -20l-56 -22q12 -4 52 -5q33 -1 43 -11q0 -15 -12 -28q-20 -22 -57 -34l-60 -16q-71 -24 -221 -73q-68 -21 -72 -21q-19 0 -19 11q0 9 11 20q-5 1 -17.5 -1t-16.5 -2q-9 0 -9 6q-4 63 -12 97l-14 52q0 -7 4 -64 q2 -42 -1 -69q-2 -18 -34.5 -38.5t-50.5 -16.5q-22 50 -22 136q0 32 -4 94q-3 66 -4 97q-3 228 1 282q-14 -1 -25 5q-1 9 12.5 26t13.5 19q1 24 7 77q3 19 31 37t44 18q15 0 15 -12v-5.5v-4.5q0 -5 3 -5q4 0 14.5 4t14.5 4q17 0 20.5 -13t7.5 -13q1 0 42 14q46 16 75 22 q47 11 140 30q102 17 145 17q30 0 37 -9q-1 -13 -15 -32t-31 -27q16 0 47 1.5t32 1.5q36 0 50 -8q5 -26 -30 -53q-30 -25 -53 -25q-16 0 -17 8t-16 8q-49 0 -200 -36q-18 -4 -126 -43q0 -84 11 -133l176 36q135 26 213 26q17 0 26 -6q-3 -32 -36 -66t-65 -34q-4 -2 -12.5 -3 t-24.5 -3q-99 -24 -119 -30q-88 -26 -152 -62q8 -64 12 -89q9 -55 22 -98q73 34 123 53q56 22 108 37q38 15 77 30q61 23 90 23q16 0 25 -6zM498 717q-61 -7 -95 -16q-42 -11 -53 -13l3 -32q51 21 145 61zM594 155q-23 -4 -100 -33q-51 -22 -76 -41q26 9 93 31q38 12 83 43z " />
<glyph unicode="F" horiz-adv-x="780" d="M800 471q0 -19 -33 -42q-26 -19 -41 -22q-18 -1 -51 -4q-64 -10 -170 -43q-100 -31 -170 -60q1 -74 9 -212q1 -7 5.5 -33.5t4.5 -29.5q0 -23 -29.5 -44t-54.5 -21q-5 0 -9 1q-6 8 -18 54q-11 42 -14 42q-1 0 -23 -15q-26 -17 -45 -11q-4 7 -13 17q-6 1 -13 2.5t-9 7.5 q-1 26 -4 46q-7 36 -20 153q-6 90 -6 222q0 91 6 125q3 16 43 45q15 11 17 25q2 22 7 65q4 24 41 49.5t57 21.5q4 -6 6 -52q0 -12 2 -21q86 40 203 67q125 30 221 30q35 0 44 -6q4 -31 -50 -59q5 0 16.5 1.5t14.5 1.5q17 0 17 -11q0 -14 -27 -36q-22 -18 -36 -22 q-67 -18 -188 -62q-22 -6 -64 -20q-24 -9 -107 -47q1 -13 5 -61q4 -38 4 -59q0 -2 3 -7q22 11 64 29q166 47 264 60q7 1 27 6q17 4 21 4q18 0 18 -10q0 -34 -98 -71q-65 -25 -101 -38q2 -2 6 -1q159 47 221 49q5 0 16.5 3.5t14.5 3.5q16 0 16 -11zM508 747q-3 3 -11 3 q-19 0 -60 -13l-51 -14q-15 -5 -80 -24q3 -23 3 -31q77 34 95 42q61 26 104 37z" />
<glyph unicode="G" horiz-adv-x="974" d="M949 172q0 -4 -5 -13.5t-6 -13.5q-11 -38 -45.5 -71t-65.5 -33q-12 0 -17 3q-4 -9 -4 -16q2 -33 -33.5 -60.5t-63.5 -22.5q-12 31 -9 65q-3 2 -7 1q-142 -32 -240 -32q-157 0 -251 51q-17 9 -45 43.5t-34 53.5q-5 10 -12 31t-7 65q0 182 168 314q32 36 100 105 q46 44 117 87q66 40 115 56q56 19 154 19q49 0 81 -7q14 -7 39 -15q12 -16 12 -25q0 -23 -37 -47q-33 -20 -49 -20q-20 0 -27 12q0 3 -2.5 8.5t-33 11.5t-47.5 6q-68 0 -122 -16q-18 -6 -84 -45q2 -2 7 0l90 24q80 22 112 22q19 0 29 -6q-2 -30 -42 -54q-11 -7 -61 -29 q-192 -84 -230 -195q-7 -16 -17 -49q-8 -42 -8 -37q0 10 5 -30q0 -12 5 -35q26 -67 81 -94q42 -20 112 -20q67 0 126 23q0 93 -11 154q-84 -42 -171 -42q-32 0 -47 10q6 35 65 68q46 22 91 44q16 4 40 21q6 17 22 53q12 25 56 44q9 4 30 4q7 -15 9 -38q1 -26 3 -33 q11 2 28 7q37 23 56 23q17 0 20 -5q1 -9 2 -15.5t8 -6.5q3 0 9 1.5t10 1.5q20 0 20 -11q0 -17 -41 -49q8 -221 8 -242q14 9 28 9q17 0 17 -13zM471 595q-33 -8 -82 -34q-19 -10 -46 -30q-70 -88 -70 -208q10 67 65 144q57 81 133 128zM704 102l1 27l-9 1q-80 -15 -236 -37 q19 -13 68 -11q60 9 176 20z" />
<glyph unicode="H" horiz-adv-x="886" d="M840 32q0 -18 -23 -37t-42 -24h-20l-8 8l-42 299q-5 -84 -19 -239q-2 -19 -35 -39.5t-49 -15.5q-1 2 -5 6q-3 115 -11 295q-1 7 -5 15q-20 -5 -34 -5q-46 0 -106 -19l-102 -32q2 -68 7 -181q0 -4 5 -22t5 -22q0 -16 -20 -34.5t-38 -24.5q-10 -3 -27 -3q-15 26 -16 50 q-2 67 -6 207q-1 0 -1.5 1.5t-4.5 1.5q-18 0 -18 -22q0 -7 2.5 -19t2.5 -14v-105q0 -11 -26 -31q-21 -16 -31 -20q-13 -5 -31 -3q-12 10 -13 22q-17 137 -17 235q0 27 3 117l10 312q0 2 -4 8q-3 27 25.5 52t51.5 25q3 0 7.5 -3t6.5 -3q-2 0 5 4q35 31 63 25q11 -17 16 -46 q18 -105 27 -345q1 0 1.5 -1t4.5 -1q134 48 149 48h92v328q0 17 33 37q29 18 42 18q9 0 16 -6l-3 -133q0 -54 4 -113q7 19 13 67q8 57 11 66q4 19 31 37t43 18q19 0 19 -17v-186q0 -100 22 -271q14 -109 29 -218q1 -7 5.5 -25.5t4.5 -21.5zM484 382h-25q-30 1 -103 -22 q11 -7 5 -22q42 16 123 44zM233 359v21h-4v-21h4zM240 276v13h-12v-19q6 6 12 6z" />
<glyph unicode="I" horiz-adv-x="728" d="M652 69q3 -17 -23.5 -40t-44.5 -24q-46 0 -144 -6q-51 -6 -165 -22q-102 -15 -104 -15q-22 0 -31 6q-5 23 44 55q0 24 33 48q30 23 51 19v416q0 2 3 52q4 59 5 91q-27 -6 -94 -23q-58 -15 -61 -15q-19 0 -19 9q0 6 5 14q-6 1 -21 7q1 22 33 44q23 17 51 26q35 17 104 47 q0 29 33 54.5t56 20.5q6 -7 5 -23v-23q1 -5 4 -5q11 0 41 21.5t47 21.5q13 0 15 -6q0 -1 1 -21q14 0 42.5 1.5t29.5 1.5q30 0 43 -8q0 -14 -14 -30h34q20 0 30 -10q4 -20 -26.5 -42t-47.5 -22q-3 0 -9 2.5t-9 2.5q-24 0 -73 -5q-8 -191 -8 -299q0 -3 1 -26q0 -26 1 -37 q1 -65 22 -200q4 -2 19 -2q3 0 23.5 1.5t24.5 1.5q25 0 34 -6q0 -29 -29 -46q13 -3 43 -2.5t45 -4.5zM396 115q-16 95 -18 146q-8 -105 -9 -97v-55q11 2 27 6z" />
<glyph unicode="J" horiz-adv-x="865" d="M807 830q0 -14 -18 -30q-14 -12 -28 -23q12 -2 34 -8q0 -28 -39 -53q-33 -21 -65 -25q16 -83 31 -166q15 -90 15 -160q0 -131 -57 -254q-2 -18 -14 -51q-14 -20 -39 -37q-1 0 -43 -14q-13 -7 -42 -22q-48 -22 -119 -22q-80 0 -125 22q-78 38 -135 95q-69 69 -69 135 q0 27 1 29q19 51 118 109q96 56 159 56q33 0 41 -10q1 -9 -2 -26q-6 -13 -52 -68q-37 -44 -37 -72q0 -36 10.5 -57t42.5 -49t58 -36q20 -7 31 -7q46 0 46 216q0 70 -13 173q-17 140 -20 188q-52 1 -93 -1q-4 -1 -58.5 -21.5t-69.5 -20.5q-22 0 -22 12q0 18 24.5 43.5 t43.5 28.5q59 9 178 61q27 5 79 23q6 10 21 29q36 31 63 31q17 0 19 -15.5t12 -15.5q3 0 55.5 12.5t56.5 12.5q21 0 21 -12zM576 92q0 14 -4 28q-12 -32 -62 -73h16q50 -1 50 45zM297 328q-32 -4 -99 -45q-2 -5 -2 -11q0 -10 24 -67q-2 17 27 57z" />
<glyph unicode="K" horiz-adv-x="911" d="M834 35q4 -25 -32 -51q-31 -24 -55 -24q-10 0 -14 1q-16 17 -43 60q-20 30 -33 47q0 -8 8 -27t8 -22q0 -15 -22.5 -36t-41.5 -28q-15 -5 -35 -3q-88 191 -164 374q-13 -13 -22 -26q15 -7 15 -15q0 -4 -6 -19.5t-6 -19.5q0 7 5 -48q4 -47 14 -142q11 -7 11 -15 q0 -18 -30 -43q-22 -18 -40 -25q-7 -3 -37 -3q-2 1 -6 6q-8 101 -19 225l-5 5q-1 0 -4 3q-2 -25 0 -80q4 -63 4 -55q0 -38 -9 -51q-13 -22 -64 -44h-22q-12 18 -15 27q-52 159 -52 463q0 204 13 289q3 19 33.5 40t49.5 21q17 0 17 -19q0 -7 -2.5 -19t-3.5 -14v-8 q5 1 9.5 16.5t10.5 22.5q13 17 40.5 31.5t44.5 10.5q2 -2 5 -7q17 -97 35 -359q0 -6 4 -17q79 96 224 275q18 13 46 42q37 51 80 51q19 0 19 -13q0 -22 -35 -52q2 -4 1 -14q-27 -76 -172 -267q35 -71 111 -208q62 -82 165 -224q6 -4 17 -12zM282 263v32h-6v-32h6z" />
<glyph unicode="L" horiz-adv-x="834" d="M835 273q0 -15 -18 -31q-12 -10 -25 -20q3 -2 15 -4q7 -2 7 -10q0 -23 -47 -54l-58 -34q-12 -1 -31 -5q-79 -26 -141 -52q-68 -28 -100 -57q-3 -11 -14 -30q-28 -24 -37 -30q-18 -11 -40 -11q-3 0 -15.5 2t-18.5 2q-14 14 -9 26q-1 1 -7 1q-4 0 -31 -12.5t-31 -12.5 q-14 0 -18 12.5t-8 23.5q-8 0 -16 1q-12 0 -18 7q0 16 -3 41q-17 146 -34 293q-19 185 -19 309q0 57 1 60q7 25 39 45.5t53 17.5q5 19 28.5 41.5t42.5 27.5q16 4 20 4q18 0 18 -18q0 -3 -5.5 -19t-5.5 -23q-13 -124 -13 -134v-20h1q16 67 21 124q3 31 36 59q30 25 55 25 q14 0 16.5 -4.5t2.5 -18.5q0 -3 -6 -59q-7 -64 -9 -91q-16 -207 -16 -311q0 -47 21 -200q-2 -2 5 -2q353 153 389 153q23 0 23 -12z" />
<glyph unicode="M" horiz-adv-x="1281" d="M1208 57q0 -22 -37 -44q-31 -20 -44 -20q-16 0 -18 12q-3 21 -6 24q-10 -19 -33 -34.5t-41 -15.5q-13 0 -24 18q-8 15 -15 30q-12 21 -30 62q-42 159 -94 419q-179 -342 -179 -355q0 -2 5.5 -9t5.5 -14q0 -29 -37 -52q-30 -18 -49 -18q-3 0 -10.5 1.5t-10.5 1.5 q-7 0 -12 -8q-13 -18 -35.5 -33.5t-40.5 -15.5q-4 0 -8 1q-10 14 -11 26q1 17 -2 48q-24 110 -42 239q-25 182 -33 230q-22 -75 -55 -215q-47 -202 -47 -268q0 -3 5.5 -8.5t5.5 -9.5q0 -3 -2 -10.5t-2 -10.5q-1 -36 -33 -63q-28 -25 -52 -25q-10 0 -16 6q-5 113 32 284 q39 157 78 313q2 2 0 7q-14 -29 -40 -121q-53 -184 -81 -346q3 -7 4 -22q-9 -49 -35 -84q-28 -40 -64 -40q-17 0 -17 14q0 20 45 213q39 165 64 265q10 27 29 81q24 75 64 154q10 21 33 64q16 25 53 38q8 1 25 4q18 13 56 33q3 1 20 1q5 -5 11 -15q1 -3 -1.5 -11t-2.5 -9 q-2 -27 4 -72q30 -223 61 -411q29 86 46 130q29 69 70 145q2 2 32 36q69 77 121 124q19 10 50 27q11 12 37 32q44 24 69 24q11 0 19.5 -8.5t8.5 -15.5q0 -3 -10 -20.5t-10 -21.5q0 4 163 -428q5 -14 22 -84q41 -178 41 -169zM326 551v7h-5v-7h5zM767 595q-13 -10 -38 -45 q-13 -33 -27 -67q16 28 45 73q11 17 20 39zM826 577q-22 -32 -64 -108q-32 -65 -51 -123q26 36 68 121q39 78 47 110z" />
<glyph unicode="N" horiz-adv-x="785" d="M754 737q0 -18 -28.5 -38.5t-28.5 -23.5q-16 -81 -26 -168q-8 -68 -15 -137q-1 -5 -1 -66q0 -73 5.5 -100t5.5 -68q0 -34 -1 -39q-6 -28 -61 -52q4 -26 -32 -53q-32 -23 -55 -23q-20 0 -49 41l-30 48q-19 29 -83 145q-51 89 -149 265q-4 -12 -4 -27v-297q0 -29 11 -77 q6 -1 20 -8q3 -29 -32 -61t-65 -27q-7 6 -8 14q-14 71 -14 105v311q0 69 11 206q5 61 16 110q3 15 38 45q49 42 70 42t36 -32q59 -147 119 -294q77 -186 159 -309q1 1 1 9q-7 52 -17 148q-7 79 -15 231q-7 128 -7 143q0 35 7 46q11 18 56 38q2 1 20 1q1 -1 4 -6 q1 -56 6 -111q22 60 41 87q34 51 79 49q5 -7 11 -51q1 -2 3 -7t2 -9zM228 641q-7 11 -11 25q0 -5 -2 -17t-2 -17q7 3 15 9zM577 52q-2 4 -3.5 13t-2.5 13q-4 -2 -15 -12q14 -12 21 -14z" />
<glyph unicode="O" horiz-adv-x="850" d="M794 497q0 -75 -11 -131q-2 -11 -27 -101q-21 -75 -115 -165.5t-171 -109.5q-7 -6 -22 -15q-35 -18 -57 -18q-18 0 -31 8q-17 9 -23 10q-20 0 -57 7q-101 38 -149 122q-39 69 -39 158q0 110 58 218q79 147 191 225q5 7 13 19q31 45 91 71q19 9 32 9q16 0 16 -10 q0 -4 -12 -23q23 -2 61 0q48 2 60 2q53 0 88 -15q12 -5 45 -44q59 -67 59 -217zM710 453q0 81 -25 149q-34 92 -100 100q33 -104 40 -129q21 -77 34 -160q8 -22 21 -59q4 -21 9 -63q21 62 21 162zM682 264q-11 -9 -26 -28l-24 -80q40 60 50 108zM579 293q0 58 -3 67 q-65 167 -150 318l-40 -32q-25 -20 -30 -39q14 -2 14 -10l-3 -8q-12 -12 -28 -32q-7 -16 -17 -75q-16 -90 -16 -140q0 -52 6 -74q10 -43 56 -86q10 -10 61 -40q-1 -17 -22 -35q-15 -10 -29 -21q5 -12 18 -28q16 -20 28 -20q4 0 23 2.5t25 2.5q27 3 33 11q23 31 54 100 q20 47 20 139zM261 101q-10 26 -26 71q-3 22 -11 59q-20 69 -17 129q-10 -5 -26 -5q-5 -40 -5 -49q0 -52 21 -107q23 -63 64 -98z" />
<glyph unicode="P" horiz-adv-x="704" d="M717 615q0 -118 -112 -218q-100 -89 -242 -125q3 -72 15 -172q4 -1 13 -8q0 -4 -2.5 -11.5t-2.5 -13.5q0 -29 -30 -52t-58 -21q-9 9 -11 21q-13 74 -16 191q-4 132 -10 186q-7 -92 -7 -122v-143q0 -9 1 -28.5t1 -30.5q0 -85 -86 -93q-7 9 -14 26q-7 39 -17 110 q-10 118 -21 237q-4 57 -4 138q0 -1 1 18.5t1 50.5q1 36 1 107q0 20 30 42q28 19 46 19q22 0 22 -28q0 -10 -5 -17l1 -31q7 46 31 80q28 40 67 40q3 0 8.5 -2.5t8.5 -2.5q2 0 11.5 8t12.5 10q22 12 66 33q37 14 58 16q91 10 143 10q40 0 66 -25q30 -28 30 -78q0 -17 -3 -36 q-2 -10 2 -46q5 -40 5 -39zM613 638q0 4 -5 12.5t-5 11.5q-8 32 -43 63t-64 31q-3 0 -10.5 -2t-9.5 -2q46 -15 50 -18q58 -50 58 -120q0 -16 -3 -36q32 45 32 60zM490 563q0 23 -15 56.5t-33 45.5q-11 7 -32 13.5t-26 6.5h-42q6 -89 14 -258q26 31 56 41q12 1 30 4 q11 4 28 30t19 45q1 11 1 16zM620 544q-15 -16 -82 -86q-92 -96 -90 -96q5 0 45 19q49 23 69 45q30 33 58 118zM404 394q-49 -23 -49 -35q0 -5 5 -5q13 0 44 40z" />
<glyph unicode="Q" horiz-adv-x="1015" d="M1019 50q5 -20 -28.5 -45t-54.5 -25q-16 0 -54 26q-35 23 -54 44q-10 -11 -31 -34q-29 -27 -60 -27q-20 0 -68 45t-49 45q-20 0 -25 -3q-148 -108 -276 -108q-49 0 -100 22q-46 19 -94 117q-21 43 -21 113q0 -2 5 51q4 49 5 59q5 36 14 64q84 261 266 376 q59 37 97.5 50.5t86.5 13.5q86 0 154 -49q78 -57 102 -160q7 -29 7 -117q0 -50 -17 -106q-3 -14 -13 -44q-5 -10 -23 -42q-14 -26 -14 -30t18 -23q22 -25 27 -32q100 -135 200 -181zM733 568q-8 48 -54 105q-52 64 -108 74q-5 1 -20.5 6t-18.5 4h-18q10 -10 30 -25 q6 -2 31 -4q20 -1 26 -9q-3 -17 -14 -33q74 -87 111 -178q-3 3 -3 9q0 12 12 28t26 23zM722 437v8h-5v-8h5zM728 402l-3 34h-5l3 -34h5zM627 281v58q-1 -9 -5 20q-16 122 -123 252q-11 15 -21.5 28.5t-25.5 13.5q-4 0 -14.5 -2t-14.5 -2q-24 -110 -24 -245q0 -92 19 -186 q5 -28 32 -74q9 -15 17 -15l17.5 10.5t31.5 10.5q19 0 19 -13q0 -7 -6 -19q30 16 43 27q-8 11 -37 59q-30 53 -30 63q0 18 31 41t51 23q15 0 25 -17q7 -17 15 -33zM355 77q-55 65 -55 274q0 99 7 157q3 22 10 66q-45 -57 -74 -162q-25 -91 -25 -163q0 -18 15 -87 q5 -20 16 -30q53 -50 106 -55z" />
<glyph unicode="R" horiz-adv-x="815" d="M781 157q0 -25 -1 -33q-4 -33 -24 -62.5t-20 -28.5q0 -3 6 -17.5t6 -17.5q0 -14 -21 -33.5t-39 -26.5q-10 -3 -29 -3q-22 48 -148 312q-4 8 -28 42q-19 27 -19 41q0 6 2 9l4 6q2 2 -3 2q-3 0 -22 -12t-30 -23t-25 -32q-11 -17 -35 -31l-32 -19q0 -6 2 -19.5t2 -16.5v-169 q0 -12 -25.5 -31.5t-34.5 -21.5q-14 -4 -18 -4q-11 0 -17 7v160q-7 71 -19 215q0 -1 -3 -5q0 -17 -3 -55.5t-3 -39.5q0 -4 7 -109t7 -108q0 -19 -26 -40q-22 -19 -43 -24q-2 -1 -20 -1q-8 7 -9 15q-18 169 -23 351q0 60 -3 233q0 15 -4 43.5t-4 30.5q0 22 34 43q29 19 46 19 q8 0 12 -2q5 -7 11 -32q20 15 35 21q10 2 28 8q25 21 70 54q31 19 73 37q23 9 45 14q6 1 62 1t71 -5q35 -12 44 -61q0 -4 12 -19q18 -24 18 -60q0 -69 -37 -128q-22 -37 -87 -104q29 2 86 0q88 -14 136 -112q36 -76 36 -158zM521 678q0 9 -38 29q-34 18 -42 18q-5 0 -20 -6 t-18 -7q62 -2 111 -57q7 14 7 23zM680 156v9q-27 113 -83 159q27 -57 83 -168zM436 535q0 52 -31 74q-41 29 -79 29q-3 0 -16 -1.5t-19 -1.5v-20q0 -3 4 -34q5 -34 6 -45q5 -68 13 -203q42 60 121 180q1 2 1 22zM333 298h-17q4 -7 4 -16q3 6 13 16zM548 576q-7 -10 -20 -38 q-6 -17 -10 -36q13 11 28 32q2 9 2 42z" />
<glyph unicode="S" horiz-adv-x="770" d="M713 270q0 -79 -83 -156q-68 -64 -171 -110q-94 -41 -147 -41q-26 0 -46 7q-5 5 -16 13q-21 0 -60 11q-16 10 -16 42q0 60 66.5 131t116.5 71q20 0 20 -12q0 -4 -9.5 -19.5t-9.5 -19.5q0 -30 16 -59q15 -25 29 -50q38 13 66.5 44t28.5 63q0 38 -26 91.5t-61 78.5 q-11 2 -33 5q-2 0 -5 5.5t-7 5.5q-11 0 -44 -15q-3 -22 -33 -55.5t-56 -40.5q-7 -1 -36 -11q-23 -8 -28 -8q-7 0 -25 12q-9 4 -19 9q-16 9 -23 19q-3 10 -11 28q-11 25 -11 82q0 125 72 229q80 115 229 168q46 16 135 16q45 0 56 -4q3 -1 7 -10.5t8 -9.5q3 0 7 1.5t8 1.5 q9 0 13 -1q61 -73 61 -91q0 -22 -37 -62t-61 -45q-31 -7 -46 -7q-56 0 -56 53q0 38 13 63q1 -1 -25 -1q-3 0 -19 7.5t-20 7.5q-32 0 -65 -56q-59 -104 -65 -244l5 -5q20 20 78 38.5t101 18.5q77 0 109 -13q125 -54 125 -176zM322 701q-60 -23 -99.5 -97.5t-39.5 -157.5 q0 -35 11 -72q1 184 128 327zM610 216q0 23 -11 56q2 -13 2 -26q0 -70 -65 -140q74 47 74 110z" />
<glyph unicode="T" horiz-adv-x="787" d="M796 737q5 -17 -29.5 -46.5t-48.5 -29.5h-127q-10 0 -82 -15q8 -118 27 -340q6 -35 17 -105q7 -65 7 -128q0 -46 -9 -61q-13 -22 -68 -45h-23q-3 2 -7 7q0 44 -1.5 88.5t-10.5 95.5q-13 -64 -25 -142q-4 -27 -39 -54t-60 -27q-21 0 -26 13q-10 25 -16 64q-7 49 -7 132 v295l3 45q4 53 6 101q-13 4 -33 -11q-30 -23 -32 -24q-47 -23 -97 -23q-20 0 -29 10q4 52 100 83q74 24 97 41q5 3 -3 3q-3 0 -26 -9q-34 -11 -99 -37q-30 -18 -59 -35q-53 -31 -75 -31q-21 0 -21 13q0 22 45 51q25 15 51 29q66 42 115 62q21 7 41 13q26 9 40 20q4 12 15 32 q39 42 75 42q22 0 22 -12q0 -5 -4.5 -17t-4.5 -18q0 -4 2 -8q4 2 21 4q43 51 82 51q15 0 17 -8q1 -1 2 -25l151 7q89 0 96 -14q2 -11 -6 -28q11 -2 36 -9zM398 582v43h-12q-3 -62 -9 -184q21 153 21 141z" />
<glyph unicode="U" horiz-adv-x="729" d="M673 126q0 -61 -19 -88q-7 -10 -32 -26q-9 -2 -24 -11q-4 -10 -15 -28q-41 -43 -81 -39q-2 2 -6 7q1 45 -9 99q-52 -29 -89 -39.5t-93 -10.5q-80 0 -125 22q-17 8 -52 59q-46 68 -46 182q0 69 18 202q16 109 31 219q2 12 0 20q-2 3 -7 9q-3 20 27 44q26 22 50 26 q7 31 39 55q27 22 49 22q17 0 17 -15q0 10 -11 -49q-12 -67 -12 -221q0 -192 6 -266q7 -45 19 -130q4 -26 10 -82h24q16 1 16 -10q0 -3 -1 -8q3 -2 20 -2q28 0 66 11q35 11 44 20q-3 74 -27 245q-24 161 -24 248t7 127q3 21 38 43t55 17q7 -11 7 -32q-2 -35 -1 -41 q16 12 32.5 23.5t33.5 11.5q10 0 16.5 -9t6.5 -15v-125q0 -4 21 -232.5t21 -232.5zM189 248l-3 96h-5l3 -96h5z" />
<glyph unicode="V" horiz-adv-x="866" d="M879 838q0 -10 -15 -27q-10 -11 -19.5 -23t-24.5 -36q-1 -1 -111 -209q-81 -153 -144 -253q-9 -14 -27 -52q-22 -48 -22 -64q0 -3 6.5 -12.5t7.5 -13.5q2 -5 -2 -13q-5 -14 -6 -16q21 3 21 -19q0 -25 -30 -49.5t-57 -28.5q-38 -59 -92 -59q-33 0 -33 23q0 3 5.5 18 t6.5 20q-7 0 -18.5 -3.5t-14.5 -3.5q-24 0 -55 66q-14 35 -27 70q-60 126 -105 258q-27 63 -73 194q-22 77 -22 130q0 32 30 55.5t65 23.5q7 -14 7.5 -40.5t6.5 -37.5q0 14 3 41q3 21 36 42q29 19 47 19t22 -13q11 -27 86 -271q53 -175 115 -285q20 44 50 128q16 38 43 116 q23 82 90 234q9 22 29 58q33 39 74 39q21 0 21 -12q0 1 -20 -38q-16 -31 -53 -123q-9 -22 -19 -43q-9 -26 -11 -51q41 79 83 158q69 115 128 115q18 0 18 -12zM381 119l9 13q-22 42 -54 116l-11 -13q0 -13 24 -58z" />
<glyph unicode="W" horiz-adv-x="1076" d="M1080 796q0 7 -46 -145q-71 -236 -151 -440q-45 -114 -45 -108q0 -2 22 -41.5t22 -44.5q0 -23 -33 -44q-29 -18 -44 -18q-11 0 -14.5 5.5t-5.5 5.5q-4 0 -16.5 -4.5t-15.5 -4.5q-20 0 -21 10q0 -11 0 65q-11 -26 -40 -42.5t-54 -12.5q-25 38 -45 116q-9 15 -23 47 l-42 132q-35 113 -54 200q-16 -31 -62 -153q-49 -133 -49 -155q0 -29 14 -70q0 -1 5 -5.5t5 -10.5q0 -28 -29.5 -53.5t-52.5 -25.5q-3 0 -7 1t-7 1q4 0 -22.5 -26t-55.5 -26q-25 0 -34 34q-62 243 -123 622q-3 19 -15 78q-11 54 -11 57q0 16 24 36q21 18 43 24q5 1 16 2 q12 16 33 29.5t38 13.5q23 0 26 -12q6 -37 21 -112q30 -138 94 -413q0 -2 3 -7q123 308 123 313q0 11 -7 40q-1 4 -8 10.5t-7 10.5q0 24 44 54q12 3 33 12q19 23 55 54q9 5 25 11q5 1 21 1q6 -8 13 -26q5 -65 51 -242q16 -44 45 -132q44 -135 82 -216q12 31 38 106 q49 139 144 437q3 12 13 34q9 13 31.5 26t37.5 13q18 0 18 -11zM742 52q0 4 -25 57q-32 67 -40 88v-10q-1 -8 9.5 -39.5t9.5 -42.5q5 -10 20 -45q4 0 10 -2q14 -8 10 -15l3 2.5t3 6.5zM276 116q0 12 -20 98q-24 102 -44 137q4 -48 23 -128l30 -126q1 1 6 8t5 11z" />
<glyph unicode="X" horiz-adv-x="1000" d="M967 24q0 -27 -31.5 -51t-54.5 -24q-13 0 -19 7q0 2 3.5 9.5t3.5 12.5q0 24 -45 87q-36 -49 -79 -49h-16q-22 13 -72 63t-50 64q0 10 11 21l-123 139q-28 -58 -84 -176q2 -7 1 -19q-60 -142 -121 -142q-19 0 -19 22q0 18 12 41q15 31 16 36v3q-37 -36 -65 -36 q-18 0 -18 11q0 4 101.5 178t101.5 177q0 2 -108 103q-122 114 -171 168.5t-49 78.5q0 23 33 44q29 18 46 18q9 0 19 -6q31 42 72 42q24 0 74 -64q23 -30 69 -89q39 -45 115 -135q1 2 86 118q48 65 51 69q35 40 66 40q17 0 17 -14q0 -15 -18 -46q-14 -13 -43 -47 q-27 -42 -65 -116q-35 -68 -35 -75q0 -3 111 -116q144 -148 184 -190q24 -25 56 -75q37 -59 37 -82zM294 671q-11 18 -66 81q-11 5 -12 -5q7 -12 36 -38zM361 163l-13 -13l-5 -13q4 -4 10 2z" />
<glyph unicode="Y" horiz-adv-x="906" d="M924 722q0 -10 -45 -76q-25 -35 -50 -71q-103 -159 -304 -479q14 -7 14 -14q0 -20 -36 -49q-29 -23 -48 -31q-11 0 -30 -4q-21 -17 -66 -40q-2 -1 -15 -1q-27 0 -27 16q0 4 2 9q1 2 -2 5q-11 -6 -22 -6q-33 0 -33 43q0 21 12 44q11 20 23 40l39 69q27 49 84 145l-29 24 q0 6 4 14t4 11q0 5 -5 10q-36 42 -112 129q-26 29 -121 128q-75 79 -75 83q0 23 37 46q32 19 47 19q3 0 10 -4.5t10 -4.5l19.5 13.5t37.5 13.5q26 0 82 -62q8 -9 65 -79q68 -84 135 -169q63 80 125 159q104 127 154 127q20 0 20 -10q0 -3 -1 -6q-5 -2 2 -2q3 0 15 8t16 9 q10 4 20 4q17 0 17 -12t-38 -51q7 1 25.5 8.5t21.5 7.5q18 0 18 -14zM800 642l-4 1l-4 -7l4 -2zM789 631q-190 -230 -267 -372q16 4 37 15q44 60 117 178q93 148 113 179z" />
<glyph unicode="Z" horiz-adv-x="945" d="M925 798q0 -21 -15 -42q-26 -35 -112.5 -106.5t-113.5 -106.5q-58 -77 -129 -203q-113 -201 -118 -210q170 2 433 -5q7 -6 7 -13t-18 -31q9 -8 9 -16q0 -25 -35 -47q-29 -19 -48 -19q-4 0 -61 3t-60 3q-51 0 -93 -3q-145 -7 -230 -16q-4 -4 -14 -12q-27 -20 -47 -26 q-3 -1 -10 -1q-17 0 -17 11q0 7 8 19q-1 2 -8 2q-4 0 -40 -10t-39 -10q-19 0 -19 11q0 5 15 27q-65 -10 -64 -10q-20 0 -20 12q0 3 48 76q64 96 81 121q148 235 161 254q87 128 187 234q-8 5 -34 5q-37 0 -109 -15q-44 -9 -88 -19q-170 -29 -220 -29q-16 0 -26 6 q0 12 12 31.5t28 29.5q-13 0 -37 14q-3 20 29.5 45.5t55.5 25.5q3 0 12 -4.5t14 -4.5q3 0 28.5 5t34.5 6q139 13 178 12h248q5 -4 6 -14q0 -3 8 -3q3 0 26 10t27 10q3 0 10.5 -1.5t10.5 -1.5q4 0 17 3.5t18 4.5q24 4 66 4q37 0 47 -6zM813 728h-13q-18 -21 -48 -59 q35 33 61 59zM399 183q-13 -11 -36 -42q-11 -21 -11 -26q0 -3 2 -5t22 31q10 17 23 42zM261 120q-9 -3 -27 -19q-10 -12 -10 -22q16 2 22 14.5t15 26.5z" />
<glyph unicode="[" horiz-adv-x="528" d="M470 102q-3 -26 -32 -47t-56 -21q-3 0 -39 5.5t-39 5.5q-48 0 -74 -7q-20 -5 -90 -37q-18 -7 -30 -7q-18 0 -18 11q0 9 12.5 24.5t21.5 20.5q-6 9 -6 24q0 -2 11 33q7 23 7 97q0 85 -6 206q-2 45 -13 123q-5 38 -20 121q-13 74 -13 76q0 15 21.5 36t39.5 26q33 9 64 9 l159 3q20 0 20 -14q0 -16 -28.5 -38.5t-41.5 -23.5q-24 0 -74 -3q22 -107 44 -213q25 -124 25 -228q0 -107 -14 -165q40 0 81 -1q67 -2 88 -16z" />
<glyph unicode="\" horiz-adv-x="668" d="M671 53q0 -13 -19.5 -32t-39.5 -26q-8 -4 -29 -4q-48 63 -137 193h-3q56 -123 56 -124q0 -16 -20.5 -35t-38.5 -25q-11 -3 -29 -3q-25 45 -60 125l-271 617q0 21 30.5 44.5t50.5 23.5q5 0 32 -16q9 3 23 -2q28 -38 65 -103q58 -100 64 -110q16 -29 49 -89 q135 -235 253 -397q7 -2 18 -11q6 -11 6 -26z" />
<glyph unicode="]" horiz-adv-x="515" d="M430 99q0 -75 -139 -94q-22 -6 -43 -12q-39 -10 -62 -10h-43q-16 0 -26 6q0 26 45.5 64t70.5 38q18 0 16 -21h7q0 20 -11 56q-12 44 -14 59q-27 164 -27 315q0 109 7 166q1 12 27 58q-6 2 -34 2q-3 0 -32.5 -4t-33.5 -4q-18 0 -18 11q0 20 34 44q29 21 43 23q57 7 105 6 h116q7 -6 7 -16l-8 -69q-8 -72 -9 -108q-3 -67 -4 -144l-2 -102q0 -68 12 -178q4 -5 10 -16q6 -25 6 -70zM319 729q-19 -14 -19 -178q0 -22 8 -136q0 47 4 152q1 38 3 56q10 88 4 106z" />
<glyph unicode="^" horiz-adv-x="629" d="M541 553q0 -20 -29 -40q-15 -9 -29 -19q5 -7 5 -16q0 -24 -31.5 -47t-54.5 -19q-52 113 -120 198q-4 -2 -23 -25q9 -8 9 -12q0 -11 -41 -49l-46 -44q-29 -25 -53 -25q-16 0 -16 10q0 4 10 19q14 20 16 24q34 59 113 152q90 106 95 113q10 14 36 28t40 10q2 -7 7 -19 q6 -5 14 -16q16 -28 34 -75q17 -35 34 -69q30 -63 30 -79zM385 662q-6 26 -12 27q-1 -1 -4 -5.5t-4 -5.5z" />
<glyph unicode="_" horiz-adv-x="715" d="M747 -10q0 -10 -5 -15q-21 -23 -31.5 -28t-36.5 -5q-2 0 -65 4t-65 4h-292q-30 0 -93.5 -9t-93.5 -18q-9 -5 -28 -12q-2 -1 -13 -1t-18 4q-2 23 40 45q3 -1 -23 -1q-17 0 -17 8q0 12 18 26q14 12 25 16q4 1 38 6q49 8 148 24q60 7 177 14q97 6 110 6h181q4 -4 4 -8 q0 -14 -22 -29t-31 -15l-168 -1q-14 0 -41 -2q1 -1 153 -1q21 -1 145 -9q1 0 4 -3z" />
<glyph unicode="`" horiz-adv-x="479" d="M374 555q3 -17 -24 -36.5t-41 -19.5q-13 0 -22.5 8.5t-11.5 8.5t-16 -8.5t-27 -8.5q-19 0 -33 13q-32 29 -41 77q-4 23 -4 90q0 54 4 64q8 22 53 41q2 1 17 1q5 -8 5 -24q0 -20 2 -27q8 35 32.5 57t52.5 22q22 0 26 -10q0 -3 -1 -12q-3 -14 -17.5 -24.5t-16.5 -13.5 q-7 -22 -7 -64q0 -64 21 -94q3 -4 49 -40z" />
<glyph unicode="a" horiz-adv-x="896" d="M882 250q0 -34 -105 -79q37 -96 37 -111q0 -26 -32 -50.5t-59 -20.5q-14 40 -50 150q-222 -58 -340 -100q-13 -4 -37 -14q-13 -9 -25.5 -17t-27.5 -8q-17 0 -17 17q0 21 20 80.5t20 70.5q0 4 -1 5q-24 -51 -48 -101q-41 -72 -93 -72q-20 0 -20 13q0 6 20 72q21 72 38 113 q76 174 225 525q3 12 13 34q32 38 70 38q10 0 15 -11.5l5 -11.5q4 0 43 14.5t42 14.5q18 0 22 -13q43 -146 134 -439q77 17 80 17q23 0 23 -14q0 -17 -37 -47l-46 -34q8 -41 16 -41q3 0 48.5 15.5t49.5 15.5q17 0 17 -11zM626 313q-42 127 -78 260q-21 -58 -53 -142 q-8 -19 -92 -249q89 69 223 131zM657 197q-2 9 -6 22q-27 -15 -73 -39q13 3 40 8.5t39 8.5z" />
<glyph unicode="b" horiz-adv-x="789" d="M795 308q0 -96 -146 -189q-17 -11 -62 -30q-33 -15 -100 -41l-33 -13q-22 -9 -31 -9q-14 0 -15.5 9t-2.5 9q-2 0 -17.5 -4t-22.5 -4q-3 -23 -30.5 -43.5t-49.5 -20.5q-4 0 -8 1q-9 7 -13 21q-16 68 -24 164q-6 80 -11 159q-1 -9 -1 -64q0 -58 5 -95t5 -48q0 -16 -1 -21 q-3 -18 -29 -35.5t-41 -17.5q-17 0 -25 22q2 8 4 23q-6 32 -17 92l-18 150q-11 120 -11 261q0 75 7 94q15 48 79 52q4 -3 4 -10l-4 -21q-2 -13 2 -22q6 43 32 81q32 47 74 44q6 -12 9 -40q2 -31 6 -42q62 31 130 41q47 8 131 8q30 0 50 -6q8 -7 26 -22q26 -20 31 -25 q13 -13 13 -29q0 -38 -105 -120q-22 -17 -214 -162q1 -1 3 -1q61 28 92 36q43 12 96 12q82 0 140 -23q93 -36 93 -121zM565 672q0 4 -20 12q7 -64 -137 -181q-1 -3 -4 -9q53 29 137 127q4 6 13 23q11 21 11 28zM458 636q-27 21 -44 21q-2 0 -104 -24l3 -147q52 38 79 61 q51 43 65 75q0 5 1 14zM483 383v4h-7v-4h7zM476 383h-9q-26 0 -113 -39q-8 -3 -19 -13q57 18 141 52zM636 233q0 12 -23 26q-16 11 -46 27q-70 21 -98 21q-12 0 -146 -36v-36q0 -1 23 -168q25 29 45 43q31 21 97 56q74 39 91 39t17 -10q0 -9 -10 -23q50 39 50 61zM348 452 l-32 -30q10 -7 22.5 3.5t9.5 26.5z" />
<glyph unicode="c" horiz-adv-x="889" d="M872 203q0 -27 -81 -71q8 -1 25 -7q0 -10 -1 -13q-24 -50 -96 -70q-54 -12 -107 -24q-10 -2 -28 -5q-150 -32 -223 -32q-235 0 -235 204q0 73 66 215q59 128 188 241q133 117 251 139q8 4 25 9q72 15 96 15q37 0 92 -28q2 -21 -29 -43.5t-53 -22.5q-3 0 -14 4t-14 4 q-4 0 -13 -7.5t-11 -8.5q-154 -83 -239 -163q-67 -62 -88 -123q-26 -73 -26 -110q0 -3 4.5 -24t5.5 -30q2 -21 29.5 -54.5t51.5 -40.5q55 -18 108 -18q55 0 140 23q79 21 140 48q9 4 19 4q17 0 17 -11zM604 712q-15 -5 -26 -7q-45 -8 -109 -53q-29 -21 -72 -57 q-79 -85 -126 -189q79 143 333 306z" />
<glyph unicode="d" horiz-adv-x="832" d="M830 445q0 -50 -45 -121q-38 -60 -92 -115q-6 -6 -43 -69q-16 -29 -43.5 -51.5t-48.5 -22.5q-19 0 -19 16q0 7 3 17v4q-27 -13 -77 -45q-2 -10 -13 -28q-40 -37 -67 -37q-13 0 -12 0q-5 2 -11 17q-17 -25 -42.5 -42t-46.5 -14q-8 20 -12 59q-6 57 -9 73q-8 -31 -34 -49.5 t-54 -18.5q-9 10 -11 12q-4 59 -11 119q-22 181 -28 290.5t-6 232.5q0 69 1 74q2 18 30.5 38t45.5 20q15 0 15 -12q2 -22 3 -25q39 25 56 25q23 0 28 -22q3 -18 7 -37q93 40 174 40q106 0 221 -78q21 -9 64 -33q28 -22 40 -55q5 -12 13 -54q6 -13 15 -37q9 -39 9 -71z M709 485q0 26 -35 72q-27 34 -55 58q22 -45 44 -91q26 -56 34 -91q12 34 12 52zM616 313q0 49 -45 151q-41 92 -75.5 134.5t-87.5 42.5h-11q34 -141 60 -422q1 -17 0 -48q-2 -40 -2 -43q73 65 126 135q11 13 22 25q13 16 13 25zM353 268v14h-4v-14h4zM369 166q-6 31 -15 94 q0 -68 5 -194q0 14 6 51q5 34 4 49zM243 168q-3 -13 -2 -23q1 -14 5 -17q6 11 4 19t-7 21zM727 354q-3 -1 -13 -15q-5 -12 -14 -32q9 9 21 25q4 7 6 22zM613 220q-4 -5 -13 -16q-4 -6 -9 -18q7 5 16 15q3 5 6 19z" />
<glyph unicode="e" horiz-adv-x="870" d="M831 265q0 -20 -23.5 -36t-44.5 -19q-39 -6 -73 -20l-56 -22q12 -4 52 -5q33 -1 43 -11q0 -15 -12 -28q-20 -22 -57 -34l-60 -16q-71 -24 -221 -73q-68 -21 -72 -21q-19 0 -19 11q0 9 11 20q-5 1 -17.5 -1t-16.5 -2q-9 0 -9 6q-4 63 -12 97l-14 52q0 -7 4 -64 q2 -42 -1 -69q-2 -18 -34.5 -38.5t-50.5 -16.5q-22 50 -22 136q0 32 -4 94q-3 66 -4 97q-3 228 1 282q-14 -1 -25 5q-1 9 12.5 26t13.5 19q1 24 7 77q3 19 31 37t44 18q15 0 15 -12v-5.5v-4.5q0 -5 3 -5q4 0 14.5 4t14.5 4q17 0 20.5 -13t7.5 -13q1 0 42 14q46 16 75 22 q47 11 140 30q102 17 145 17q30 0 37 -9q-1 -13 -15 -32t-31 -27q16 0 47 1.5t32 1.5q36 0 50 -8q5 -26 -30 -53q-30 -25 -53 -25q-16 0 -17 8t-16 8q-49 0 -200 -36q-18 -4 -126 -43q0 -84 11 -133l176 36q135 26 213 26q17 0 26 -6q-3 -32 -36 -66t-65 -34q-4 -2 -12.5 -3 t-24.5 -3q-99 -24 -119 -30q-88 -26 -152 -62q8 -64 12 -89q9 -55 22 -98q73 34 123 53q56 22 108 37q38 15 77 30q61 23 90 23q16 0 25 -6zM498 717q-61 -7 -95 -16q-42 -11 -53 -13l3 -32q51 21 145 61zM594 155q-23 -4 -100 -33q-51 -22 -76 -41q26 9 93 31q38 12 83 43z " />
<glyph unicode="f" horiz-adv-x="780" d="M800 471q0 -19 -33 -42q-26 -19 -41 -22q-18 -1 -51 -4q-64 -10 -170 -43q-100 -31 -170 -60q1 -74 9 -212q1 -7 5.5 -33.5t4.5 -29.5q0 -23 -29.5 -44t-54.5 -21q-5 0 -9 1q-6 8 -18 54q-11 42 -14 42q-1 0 -23 -15q-26 -17 -45 -11q-4 7 -13 17q-6 1 -13 2.5t-9 7.5 q-1 26 -4 46q-7 36 -20 153q-6 90 -6 222q0 91 6 125q3 16 43 45q15 11 17 25q2 22 7 65q4 24 41 49.5t57 21.5q4 -6 6 -52q0 -12 2 -21q86 40 203 67q125 30 221 30q35 0 44 -6q4 -31 -50 -59q5 0 16.5 1.5t14.5 1.5q17 0 17 -11q0 -14 -27 -36q-22 -18 -36 -22 q-67 -18 -188 -62q-22 -6 -64 -20q-24 -9 -107 -47q1 -13 5 -61q4 -38 4 -59q0 -2 3 -7q22 11 64 29q166 47 264 60q7 1 27 6q17 4 21 4q18 0 18 -10q0 -34 -98 -71q-65 -25 -101 -38q2 -2 6 -1q159 47 221 49q5 0 16.5 3.5t14.5 3.5q16 0 16 -11zM508 747q-3 3 -11 3 q-19 0 -60 -13l-51 -14q-15 -5 -80 -24q3 -23 3 -31q77 34 95 42q61 26 104 37z" />
<glyph unicode="g" horiz-adv-x="974" d="M949 172q0 -4 -5 -13.5t-6 -13.5q-11 -38 -45.5 -71t-65.5 -33q-12 0 -17 3q-4 -9 -4 -16q2 -33 -33.5 -60.5t-63.5 -22.5q-12 31 -9 65q-3 2 -7 1q-142 -32 -240 -32q-157 0 -251 51q-17 9 -45 43.5t-34 53.5q-5 10 -12 31t-7 65q0 182 168 314q32 36 100 105 q46 44 117 87q66 40 115 56q56 19 154 19q49 0 81 -7q14 -7 39 -15q12 -16 12 -25q0 -23 -37 -47q-33 -20 -49 -20q-20 0 -27 12q0 3 -2.5 8.5t-33 11.5t-47.5 6q-68 0 -122 -16q-18 -6 -84 -45q2 -2 7 0l90 24q80 22 112 22q19 0 29 -6q-2 -30 -42 -54q-11 -7 -61 -29 q-192 -84 -230 -195q-7 -16 -17 -49q-8 -42 -8 -37q0 10 5 -30q0 -12 5 -35q26 -67 81 -94q42 -20 112 -20q67 0 126 23q0 93 -11 154q-84 -42 -171 -42q-32 0 -47 10q6 35 65 68q46 22 91 44q16 4 40 21q6 17 22 53q12 25 56 44q9 4 30 4q7 -15 9 -38q1 -26 3 -33 q11 2 28 7q37 23 56 23q17 0 20 -5q1 -9 2 -15.5t8 -6.5q3 0 9 1.5t10 1.5q20 0 20 -11q0 -17 -41 -49q8 -221 8 -242q14 9 28 9q17 0 17 -13zM471 595q-33 -8 -82 -34q-19 -10 -46 -30q-70 -88 -70 -208q10 67 65 144q57 81 133 128zM704 102l1 27l-9 1q-80 -15 -236 -37 q19 -13 68 -11q60 9 176 20z" />
<glyph unicode="h" horiz-adv-x="886" d="M840 32q0 -18 -23 -37t-42 -24h-20l-8 8l-42 299q-5 -84 -19 -239q-2 -19 -35 -39.5t-49 -15.5q-1 2 -5 6q-3 115 -11 295q-1 7 -5 15q-20 -5 -34 -5q-46 0 -106 -19l-102 -32q2 -68 7 -181q0 -4 5 -22t5 -22q0 -16 -20 -34.5t-38 -24.5q-10 -3 -27 -3q-15 26 -16 50 q-2 67 -6 207q-1 0 -1.5 1.5t-4.5 1.5q-18 0 -18 -22q0 -7 2.5 -19t2.5 -14v-105q0 -11 -26 -31q-21 -16 -31 -20q-13 -5 -31 -3q-12 10 -13 22q-17 137 -17 235q0 27 3 117l10 312q0 2 -4 8q-3 27 25.5 52t51.5 25q3 0 7.5 -3t6.5 -3q-2 0 5 4q35 31 63 25q11 -17 16 -46 q18 -105 27 -345q1 0 1.5 -1t4.5 -1q134 48 149 48h92v328q0 17 33 37q29 18 42 18q9 0 16 -6l-3 -133q0 -54 4 -113q7 19 13 67q8 57 11 66q4 19 31 37t43 18q19 0 19 -17v-186q0 -100 22 -271q14 -109 29 -218q1 -7 5.5 -25.5t4.5 -21.5zM484 382h-25q-30 1 -103 -22 q11 -7 5 -22q42 16 123 44zM233 359v21h-4v-21h4zM240 276v13h-12v-19q6 6 12 6z" />
<glyph unicode="i" horiz-adv-x="516" d="M398 111q4 -55 -7 -102q-4 -21 -37.5 -42.5t-55.5 -17.5q-9 16 -13 48l-6 55q-4 -33 -34.5 -63.5t-60.5 -30.5q-21 0 -27 15q-11 24 -17 81q-8 67 -8 183q0 73 2 110q6 138 22 397q2 18 35 40q30 20 48 20q12 0 17 -6q1 -10 -10 -204v-27q15 60 38 171q3 20 40 44 q34 22 51 22q12 0 17 -7l-17 -216v-365q0 -12 6 -96q6 -2 17 -9zM245 553v11h-5v-11h5z" />
<glyph unicode="j" horiz-adv-x="702" d="M638 104q1 -17 -21.5 -38.5t-39.5 -26.5q-10 0 -27 -4q-14 -14 -47 -40q-59 -39 -115 -39q-76 0 -162 55q-90 57 -142 144q-6 10 -6 50q0 56 56 130q51 67 123 120q26 19 46 12q1 -2 5 -6q-3 -104 22 -220q8 -47 17 -95q21 -86 52 -86q28 0 55 52q12 27 23 55 q10 23 10 24q0 3 -13 36q-17 40 -22 54q-15 45 -27 96q-16 72 -40 204q-21 118 -21 126q0 27 33 52q30 21 50 21q3 0 7 -1.5t7 -1.5q4 0 9.5 6t6.5 7q17 12 42 12q45 0 45 -27q0 -13 -33 -43l62 -246q29 -126 29 -226q0 -1 -4 -88q0 -5 -5 -18t-5 -17q0 -14 11 -25 q7 -2 19 -8zM511 88l-68 -60h4q18 -4 41 19t23 41zM242 135v12q1 4 -8 44q-10 49 -12 66q-3 32 -8 92q-43 -63 -43 -95t13 -52.5t58 -66.5z" />
<glyph unicode="k" horiz-adv-x="911" d="M834 35q4 -25 -32 -51q-31 -24 -55 -24q-10 0 -14 1q-16 17 -43 60q-20 30 -33 47q0 -8 8 -27t8 -22q0 -15 -22.5 -36t-41.5 -28q-15 -5 -35 -3q-88 191 -164 374q-13 -13 -22 -26q15 -7 15 -15q0 -4 -6 -19.5t-6 -19.5q0 7 5 -48q4 -47 14 -142q11 -7 11 -15 q0 -18 -30 -43q-22 -18 -40 -25q-7 -3 -37 -3q-2 1 -6 6q-8 101 -19 225l-5 5q-1 0 -4 3q-2 -25 0 -80q4 -63 4 -55q0 -38 -9 -51q-13 -22 -64 -44h-22q-12 18 -15 27q-52 159 -52 463q0 204 13 289q3 19 33.5 40t49.5 21q17 0 17 -19q0 -7 -2.5 -19t-3.5 -14v-8 q5 1 9.5 16.5t10.5 22.5q13 17 40.5 31.5t44.5 10.5q2 -2 5 -7q17 -97 35 -359q0 -6 4 -17q79 96 224 275q18 13 46 42q37 51 80 51q19 0 19 -13q0 -22 -35 -52q2 -4 1 -14q-27 -76 -172 -267q35 -71 111 -208q62 -82 165 -224q6 -4 17 -12zM282 263v32h-6v-32h6z" />
<glyph unicode="l" horiz-adv-x="834" d="M835 273q0 -15 -18 -31q-12 -10 -25 -20q3 -2 15 -4q7 -2 7 -10q0 -23 -47 -54l-58 -34q-12 -1 -31 -5q-79 -26 -141 -52q-68 -28 -100 -57q-3 -11 -14 -30q-28 -24 -37 -30q-18 -11 -40 -11q-3 0 -15.5 2t-18.5 2q-14 14 -9 26q-1 1 -7 1q-4 0 -31 -12.5t-31 -12.5 q-14 0 -18 12.5t-8 23.5q-8 0 -16 1q-12 0 -18 7q0 16 -3 41q-17 146 -34 293q-19 185 -19 309q0 57 1 60q7 25 39 45.5t53 17.5q5 19 28.5 41.5t42.5 27.5q16 4 20 4q18 0 18 -18q0 -3 -5.5 -19t-5.5 -23q-13 -124 -13 -134v-20h1q16 67 21 124q3 31 36 59q30 25 55 25 q14 0 16.5 -4.5t2.5 -18.5q0 -3 -6 -59q-7 -64 -9 -91q-16 -207 -16 -311q0 -47 21 -200q-2 -2 5 -2q353 153 389 153q23 0 23 -12z" />
<glyph unicode="m" horiz-adv-x="1281" d="M1208 57q0 -22 -37 -44q-31 -20 -44 -20q-16 0 -18 12q-3 21 -6 24q-10 -19 -33 -34.5t-41 -15.5q-13 0 -24 18q-8 15 -15 30q-12 21 -30 62q-42 159 -94 419q-179 -342 -179 -355q0 -2 5.5 -9t5.5 -14q0 -29 -37 -52q-30 -18 -49 -18q-3 0 -10.5 1.5t-10.5 1.5 q-7 0 -12 -8q-13 -18 -35.5 -33.5t-40.5 -15.5q-4 0 -8 1q-10 14 -11 26q1 17 -2 48q-24 110 -42 239q-25 182 -33 230q-22 -75 -55 -215q-47 -202 -47 -268q0 -3 5.5 -8.5t5.5 -9.5q0 -3 -2 -10.5t-2 -10.5q-1 -36 -33 -63q-28 -25 -52 -25q-10 0 -16 6q-5 113 32 284 q39 157 78 313q2 2 0 7q-14 -29 -40 -121q-53 -184 -81 -346q3 -7 4 -22q-9 -49 -35 -84q-28 -40 -64 -40q-17 0 -17 14q0 20 45 213q39 165 64 265q10 27 29 81q24 75 64 154q10 21 33 64q16 25 53 38q8 1 25 4q18 13 56 33q3 1 20 1q5 -5 11 -15q1 -3 -1.5 -11t-2.5 -9 q-2 -27 4 -72q30 -223 61 -411q29 86 46 130q29 69 70 145q2 2 32 36q69 77 121 124q19 10 50 27q11 12 37 32q44 24 69 24q11 0 19.5 -8.5t8.5 -15.5q0 -3 -10 -20.5t-10 -21.5q0 4 163 -428q5 -14 22 -84q41 -178 41 -169zM326 551v7h-5v-7h5zM767 595q-13 -10 -38 -45 q-13 -33 -27 -67q16 28 45 73q11 17 20 39zM826 577q-22 -32 -64 -108q-32 -65 -51 -123q26 36 68 121q39 78 47 110z" />
<glyph unicode="n" horiz-adv-x="785" d="M754 737q0 -18 -28.5 -38.5t-28.5 -23.5q-16 -81 -26 -168q-8 -68 -15 -137q-1 -5 -1 -66q0 -73 5.5 -100t5.5 -68q0 -34 -1 -39q-6 -28 -61 -52q4 -26 -32 -53q-32 -23 -55 -23q-20 0 -49 41l-30 48q-19 29 -83 145q-51 89 -149 265q-4 -12 -4 -27v-297q0 -29 11 -77 q6 -1 20 -8q3 -29 -32 -61t-65 -27q-7 6 -8 14q-14 71 -14 105v311q0 69 11 206q5 61 16 110q3 15 38 45q49 42 70 42t36 -32q59 -147 119 -294q77 -186 159 -309q1 1 1 9q-7 52 -17 148q-7 79 -15 231q-7 128 -7 143q0 35 7 46q11 18 56 38q2 1 20 1q1 -1 4 -6 q1 -56 6 -111q22 60 41 87q34 51 79 49q5 -7 11 -51q1 -2 3 -7t2 -9zM228 641q-7 11 -11 25q0 -5 -2 -17t-2 -17q7 3 15 9zM577 52q-2 4 -3.5 13t-2.5 13q-4 -2 -15 -12q14 -12 21 -14z" />
<glyph unicode="o" horiz-adv-x="850" d="M794 497q0 -75 -11 -131q-2 -11 -27 -101q-21 -75 -115 -165.5t-171 -109.5q-7 -6 -22 -15q-35 -18 -57 -18q-18 0 -31 8q-17 9 -23 10q-20 0 -57 7q-101 38 -149 122q-39 69 -39 158q0 110 58 218q79 147 191 225q5 7 13 19q31 45 91 71q19 9 32 9q16 0 16 -10 q0 -4 -12 -23q23 -2 61 0q48 2 60 2q53 0 88 -15q12 -5 45 -44q59 -67 59 -217zM710 453q0 81 -25 149q-34 92 -100 100q33 -104 40 -129q21 -77 34 -160q8 -22 21 -59q4 -21 9 -63q21 62 21 162zM682 264q-11 -9 -26 -28l-24 -80q40 60 50 108zM579 293q0 58 -3 67 q-65 167 -150 318l-40 -32q-25 -20 -30 -39q14 -2 14 -10l-3 -8q-12 -12 -28 -32q-7 -16 -17 -75q-16 -90 -16 -140q0 -52 6 -74q10 -43 56 -86q10 -10 61 -40q-1 -17 -22 -35q-15 -10 -29 -21q5 -12 18 -28q16 -20 28 -20q4 0 23 2.5t25 2.5q27 3 33 11q23 31 54 100 q20 47 20 139zM261 101q-10 26 -26 71q-3 22 -11 59q-20 69 -17 129q-10 -5 -26 -5q-5 -40 -5 -49q0 -52 21 -107q23 -63 64 -98z" />
<glyph unicode="p" horiz-adv-x="704" d="M717 615q0 -118 -112 -218q-100 -89 -242 -125q3 -72 15 -172q4 -1 13 -8q0 -4 -2.5 -11.5t-2.5 -13.5q0 -29 -30 -52t-58 -21q-9 9 -11 21q-13 74 -16 191q-4 132 -10 186q-7 -92 -7 -122v-143q0 -9 1 -28.5t1 -30.5q0 -85 -86 -93q-7 9 -14 26q-7 39 -17 110 q-10 118 -21 237q-4 57 -4 138q0 -1 1 18.5t1 50.5q1 36 1 107q0 20 30 42q28 19 46 19q22 0 22 -28q0 -10 -5 -17l1 -31q7 46 31 80q28 40 67 40q3 0 8.5 -2.5t8.5 -2.5q2 0 11.5 8t12.5 10q22 12 66 33q37 14 58 16q91 10 143 10q40 0 66 -25q30 -28 30 -78q0 -17 -3 -36 q-2 -10 2 -46q5 -40 5 -39zM613 638q0 4 -5 12.5t-5 11.5q-8 32 -43 63t-64 31q-3 0 -10.5 -2t-9.5 -2q46 -15 50 -18q58 -50 58 -120q0 -16 -3 -36q32 45 32 60zM490 563q0 23 -15 56.5t-33 45.5q-11 7 -32 13.5t-26 6.5h-42q6 -89 14 -258q26 31 56 41q12 1 30 4 q11 4 28 30t19 45q1 11 1 16zM620 544q-15 -16 -82 -86q-92 -96 -90 -96q5 0 45 19q49 23 69 45q30 33 58 118zM404 394q-49 -23 -49 -35q0 -5 5 -5q13 0 44 40z" />
<glyph unicode="q" horiz-adv-x="1015" d="M1019 50q5 -20 -28.5 -45t-54.5 -25q-16 0 -54 26q-35 23 -54 44q-10 -11 -31 -34q-29 -27 -60 -27q-20 0 -68 45t-49 45q-20 0 -25 -3q-148 -108 -276 -108q-49 0 -100 22q-46 19 -94 117q-21 43 -21 113q0 -2 5 51q4 49 5 59q5 36 14 64q84 261 266 376 q59 37 97.5 50.5t86.5 13.5q86 0 154 -49q78 -57 102 -160q7 -29 7 -117q0 -50 -17 -106q-3 -14 -13 -44q-5 -10 -23 -42q-14 -26 -14 -30t18 -23q22 -25 27 -32q100 -135 200 -181zM733 568q-8 48 -54 105q-52 64 -108 74q-5 1 -20.5 6t-18.5 4h-18q10 -10 30 -25 q6 -2 31 -4q20 -1 26 -9q-3 -17 -14 -33q74 -87 111 -178q-3 3 -3 9q0 12 12 28t26 23zM722 437v8h-5v-8h5zM728 402l-3 34h-5l3 -34h5zM627 281v58q-1 -9 -5 20q-16 122 -123 252q-11 15 -21.5 28.5t-25.5 13.5q-4 0 -14.5 -2t-14.5 -2q-24 -110 -24 -245q0 -92 19 -186 q5 -28 32 -74q9 -15 17 -15l17.5 10.5t31.5 10.5q19 0 19 -13q0 -7 -6 -19q30 16 43 27q-8 11 -37 59q-30 53 -30 63q0 18 31 41t51 23q15 0 25 -17q7 -17 15 -33zM355 77q-55 65 -55 274q0 99 7 157q3 22 10 66q-45 -57 -74 -162q-25 -91 -25 -163q0 -18 15 -87 q5 -20 16 -30q53 -50 106 -55z" />
<glyph unicode="r" horiz-adv-x="815" d="M781 157q0 -25 -1 -33q-4 -33 -24 -62.5t-20 -28.5q0 -3 6 -17.5t6 -17.5q0 -14 -21 -33.5t-39 -26.5q-10 -3 -29 -3q-22 48 -148 312q-4 8 -28 42q-19 27 -19 41q0 6 2 9l4 6q2 2 -3 2q-3 0 -22 -12t-30 -23t-25 -32q-11 -17 -35 -32l-32 -18q0 -6 2 -19.5t2 -16.5v-169 q0 -12 -25.5 -31.5t-34.5 -21.5q-14 -4 -18 -4q-11 0 -17 7v160q-7 71 -19 215q0 -1 -3 -5q0 -17 -3 -55.5t-3 -39.5q0 -4 7 -109t7 -108q0 -19 -26 -40q-22 -19 -43 -24q-2 -1 -20 -1q-8 7 -9 15q-18 169 -23 351q0 60 -3 233q0 15 -4 43.5t-4 30.5q0 22 34 43q29 19 46 19 q8 0 12 -2q5 -7 11 -32q20 15 35 21q10 2 28 8q25 21 70 54q31 19 73 37q23 9 45 14q6 1 62 1t71 -5q35 -12 44 -61q0 -4 12 -19q18 -24 18 -60q0 -69 -37 -128q-22 -37 -87 -104q29 2 86 0q88 -14 136 -112q36 -76 36 -158zM521 678q0 9 -38 29q-34 18 -42 18q-5 0 -20 -6 t-18 -7q62 -2 111 -57q7 14 7 23zM680 156v9q-27 113 -83 159q27 -57 83 -168zM436 535q0 52 -31 74q-41 29 -79 29q-3 0 -16 -1.5t-19 -1.5v-20q0 -3 4 -34q5 -34 6 -45q5 -68 13 -203q42 60 121 180q1 2 1 22zM333 298h-17q4 -7 4 -16q3 6 13 16zM548 576q-7 -10 -20 -38 q-6 -17 -10 -36q13 11 28 32q2 9 2 42z" />
<glyph unicode="s" horiz-adv-x="770" d="M713 270q0 -79 -83 -156q-68 -64 -171 -110q-94 -41 -147 -41q-26 0 -46 7q-5 5 -16 13q-21 0 -60 11q-16 10 -16 42q0 60 66.5 131t116.5 71q20 0 20 -12q0 -4 -9.5 -19.5t-9.5 -19.5q0 -30 16 -59q15 -25 29 -50q38 13 66.5 44t28.5 63q0 38 -26 91.5t-61 78.5 q-11 2 -33 5q-2 0 -5 5.5t-7 5.5q-11 0 -44 -15q-3 -22 -33 -55.5t-56 -40.5q-7 -1 -36 -11q-23 -8 -28 -8q-7 0 -25 12q-9 4 -19 9q-16 9 -23 19q-3 10 -11 28q-11 25 -11 82q0 125 72 229q80 115 229 168q46 16 135 16q45 0 56 -4q3 -1 7 -10.5t8 -9.5q3 0 7 1.5t8 1.5 q9 0 13 -1q61 -73 61 -91q0 -22 -37 -62t-61 -45q-31 -7 -46 -7q-56 0 -56 53q0 38 13 63q1 -1 -25 -1q-3 0 -19 7.5t-20 7.5q-32 0 -65 -56q-59 -104 -65 -244l5 -5q20 20 78 38.5t101 18.5q77 0 109 -13q125 -54 125 -176zM322 701q-60 -23 -99.5 -97.5t-39.5 -157.5 q0 -35 11 -72q1 184 128 327zM610 216q0 23 -11 56q2 -13 2 -26q0 -70 -65 -140q74 47 74 110z" />
<glyph unicode="t" horiz-adv-x="787" d="M796 737q5 -17 -29.5 -46.5t-48.5 -29.5h-127q-10 0 -82 -15q8 -118 27 -340q6 -35 17 -105q7 -65 7 -128q0 -46 -9 -61q-13 -22 -68 -45h-23q-3 2 -7 7q0 44 -1.5 88.5t-10.5 95.5q-13 -64 -25 -142q-4 -27 -39 -54t-60 -27q-21 0 -26 13q-10 25 -16 64q-7 49 -7 132 v295l3 45q4 53 6 101q-13 4 -33 -11q-30 -23 -32 -24q-47 -23 -97 -23q-20 0 -29 10q4 52 100 83q74 24 97 41q5 3 -3 3q-3 0 -26 -9q-34 -11 -99 -37q-30 -18 -59 -35q-53 -31 -75 -31q-21 0 -21 13q0 22 45 51q25 15 51 29q66 42 115 62q21 7 41 13q26 9 40 20q4 12 15 32 q39 42 75 42q22 0 22 -12q0 -5 -4.5 -17t-4.5 -18q0 -4 2 -8q4 2 21 4q43 51 82 51q15 0 17 -8q1 -1 2 -25l151 7q89 0 96 -14q2 -11 -6 -28q11 -2 36 -9zM398 582v43h-12q-3 -62 -9 -184q21 153 21 141z" />
<glyph unicode="u" horiz-adv-x="729" d="M673 126q0 -61 -19 -88q-7 -10 -32 -26q-9 -2 -24 -11q-4 -10 -15 -28q-41 -43 -81 -39q-2 2 -6 7q1 45 -9 99q-52 -29 -89 -39.5t-93 -10.5q-80 0 -125 22q-17 8 -52 59q-46 68 -46 182q0 69 18 202q16 109 31 219q2 12 0 20q-2 3 -7 9q-3 20 27 44q26 22 50 26 q7 31 39 55q27 22 49 22q17 0 17 -15q0 10 -11 -49q-12 -67 -12 -221q0 -192 6 -266q7 -45 19 -130q4 -26 10 -82h24q16 1 16 -10q0 -3 -1 -8q3 -2 20 -2q28 0 66 11q35 11 44 20q-3 74 -27 245q-24 161 -24 248t7 127q3 21 38 43t55 17q7 -11 7 -32q-2 -35 -1 -41 q16 12 32.5 23.5t33.5 11.5q10 0 16.5 -9t6.5 -15v-125q0 -4 21 -232.5t21 -232.5zM189 248l-3 96h-5l3 -96h5z" />
<glyph unicode="v" horiz-adv-x="866" d="M879 838q0 -10 -15 -27q-10 -11 -19.5 -23t-24.5 -36q-1 -1 -111 -209q-81 -153 -144 -253q-9 -14 -27 -52q-22 -48 -22 -64q0 -3 6.5 -12.5t7.5 -13.5q2 -5 -2 -13q-5 -14 -6 -16q21 3 21 -19q0 -25 -30 -49.5t-57 -28.5q-38 -59 -92 -59q-33 0 -33 23q0 3 5.5 18 t6.5 20q-7 0 -18.5 -3.5t-14.5 -3.5q-24 0 -55 66q-14 35 -27 70q-60 126 -105 258q-27 63 -73 194q-22 77 -22 130q0 32 30 55.5t65 23.5q7 -14 7.5 -40.5t6.5 -37.5q0 14 3 41q3 21 36 42q29 19 47 19t22 -13q11 -27 86 -271q53 -175 115 -285q20 44 50 128q16 38 43 116 q23 82 90 234q9 22 29 58q33 39 74 39q21 0 21 -12q0 1 -20 -38q-16 -31 -53 -123q-9 -22 -19 -43q-9 -26 -11 -51q41 79 83 158q69 115 128 115q18 0 18 -12zM381 119l9 13q-22 42 -54 116l-11 -13q0 -13 24 -58z" />
<glyph unicode="w" horiz-adv-x="1076" d="M1080 796q0 7 -46 -145q-71 -236 -151 -440q-45 -114 -45 -108q0 -2 22 -41.5t22 -44.5q0 -23 -33 -44q-29 -18 -44 -18q-11 0 -14.5 5.5t-5.5 5.5q-4 0 -16.5 -4.5t-15.5 -4.5q-20 0 -21 10q0 -11 0 65q-11 -26 -40 -42.5t-54 -12.5q-25 38 -45 116q-9 15 -23 47 l-42 132q-35 113 -54 200q-16 -31 -62 -153q-49 -133 -49 -155q0 -29 14 -70q0 -1 5 -5.5t5 -10.5q0 -28 -29.5 -53.5t-52.5 -25.5q-3 0 -7 1t-7 1q4 0 -22.5 -26t-55.5 -26q-25 0 -34 34q-62 243 -123 622q-3 19 -15 78q-11 54 -11 57q0 16 24 36q21 18 43 24q5 1 16 2 q12 16 33 29.5t38 13.5q23 0 26 -12q6 -37 21 -112q30 -138 94 -413q0 -2 3 -7q123 308 123 313q0 11 -7 40q-1 4 -8 10.5t-7 10.5q0 24 44 54q12 3 33 12q19 23 55 54q9 5 25 11q5 1 21 1q6 -8 13 -26q5 -65 51 -242q16 -44 45 -132q44 -135 82 -216q12 31 38 106 q49 139 144 437q3 12 13 34q9 13 31.5 26t37.5 13q18 0 18 -11zM742 52q0 4 -25 57q-32 67 -40 88v-10q-1 -8 9.5 -39.5t9.5 -42.5q5 -10 20 -45q4 0 10 -2q14 -8 10 -15l3 2.5t3 6.5zM276 116q0 12 -20 98q-24 102 -44 137q4 -48 23 -128l30 -126q1 1 6 8t5 11z" />
<glyph unicode="x" horiz-adv-x="1000" d="M967 24q0 -27 -31.5 -51t-54.5 -24q-13 0 -19 7q0 2 3.5 9.5t3.5 12.5q0 24 -45 87q-36 -49 -79 -49h-16q-22 13 -72 63t-50 64q0 10 11 21l-123 139q-28 -58 -84 -176q2 -7 1 -19q-60 -142 -121 -142q-19 0 -19 22q0 18 12 41q15 31 16 36v3q-37 -36 -65 -36 q-18 0 -18 11q0 4 101.5 178t101.5 177q0 2 -108 103q-122 114 -171 168.5t-49 78.5q0 23 33 44q29 18 46 18q9 0 19 -6q31 42 72 42q24 0 74 -64q23 -30 69 -89q39 -45 115 -135q1 2 86 118q48 65 51 69q35 40 66 40q17 0 17 -14q0 -15 -18 -46q-14 -13 -43 -47 q-27 -42 -65 -116q-35 -68 -35 -75q0 -3 111 -116q144 -148 184 -190q24 -25 56 -75q37 -59 37 -82zM294 671q-11 18 -66 81q-11 5 -12 -5q7 -12 36 -38zM361 163l-13 -13l-5 -13q4 -4 10 2z" />
<glyph unicode="y" horiz-adv-x="906" d="M924 722q0 -10 -45 -76q-25 -35 -50 -71q-103 -159 -304 -479q14 -7 14 -14q0 -20 -36 -49q-29 -23 -48 -31q-11 0 -30 -4q-21 -17 -66 -40q-2 -1 -15 -1q-27 0 -27 16q0 4 2 9q1 2 -2 5q-11 -6 -22 -6q-33 0 -33 43q0 21 12 44q11 20 23 40l39 69q27 49 84 145l-29 24 q0 6 4 14t4 11q0 5 -5 10q-36 42 -112 129q-26 29 -121 128q-75 79 -75 83q0 23 37 46q32 19 47 19q3 0 10 -4.5t10 -4.5l19.5 13.5t37.5 13.5q26 0 82 -62q9 -9 65 -79q68 -84 135 -169q63 80 125 159q104 127 154 127q20 0 20 -10q0 -3 -1 -6q-5 -2 2 -2q3 0 15 8t16 9 q10 4 20 4q17 0 17 -12t-38 -51q7 1 25.5 8.5t21.5 7.5q18 0 18 -14zM800 642l-4 1l-4 -7l4 -2zM789 631q-190 -230 -267 -372q16 4 37 15q44 60 117 178q93 148 113 179z" />
<glyph unicode="z" horiz-adv-x="945" d="M925 798q0 -21 -15 -42q-26 -35 -112.5 -106.5t-113.5 -106.5q-58 -77 -129 -203q-113 -201 -118 -210q170 2 433 -5q7 -6 7 -13t-18 -31q9 -8 9 -16q0 -25 -35 -47q-29 -19 -48 -19q-4 0 -61 3t-60 3q-51 0 -93 -3q-145 -7 -230 -16q-4 -4 -14 -12q-27 -20 -47 -26 q-3 -1 -10 -1q-17 0 -17 11q0 7 8 19q-1 2 -8 2q-4 0 -40 -10t-39 -10q-19 0 -19 11q0 5 15 27q-65 -10 -64 -10q-20 0 -20 12q0 3 48 76q64 96 81 121q148 235 161 254q87 128 187 234q-8 5 -34 5q-37 0 -109 -15q-44 -9 -88 -19q-170 -29 -220 -29q-16 0 -26 6 q0 12 12 31.5t28 29.5q-13 0 -37 14q-3 20 29.5 45.5t55.5 25.5q3 0 12 -4.5t14 -4.5q3 0 28.5 5t34.5 6q139 13 178 12h248q5 -4 6 -14q0 -3 8 -3q3 0 26 10t27 10q3 0 10.5 -1.5t10.5 -1.5q4 0 17 3.5t18 4.5q24 4 66 4q37 0 47 -6zM813 728h-13q-18 -21 -48 -59 q35 33 61 59zM399 183q-13 -11 -36 -42q-11 -21 -11 -26q0 -3 2 -5t22 31q10 17 23 42zM261 120q-9 -3 -27 -19q-10 -12 -10 -22q16 2 22 14.5t15 26.5z" />
<glyph unicode="{" horiz-adv-x="549" d="M478 668q2 -32 -68 -68q-1 0 -28 -18q-10 -7 -33 -7q-20 0 -120 36q-110 39 -110 59q0 14 31 45q-3 6 -6 20q-5 21 28 45t55 24t42 -16q35 -28 93 -61q77 -43 86 -49q11 -2 30 -10zM449 422q0 -22 -37 -45q-30 -20 -47 -22q-100 -10 -121 -9h-106q-7 6 -7 11q0 17 31 41 q28 23 41 23q45 0 136 6.5t88 6.5q22 0 22 -12zM442 263q3 -6 -3.5 -20.5t-12.5 -20.5q-95 -86 -180 -172q6 -31 -33 -57q-34 -24 -64 -24q-24 0 -24 13q0 25 83 105q46 45 91 89q0 1 0.5 1t-0.5 1h-5q-14 0 -82.5 -69t-102.5 -69q-19 0 -19 12q0 17 21 39l24 20 q113 113 220 154q27 10 55 10q11 0 32 -12z" />
<glyph unicode="|" horiz-adv-x="498" d="M381 25q0 -25 -27 -46.5t-54 -20.5q-10 8 -11 14q-11 65 -31 194q-3 57 -12 174q-1 -17 -1 -102q0 2 1 -68t1 -97q0 -5 5 -15t5 -13q0 -84 -67 -107h-19l-6 6q-8 120 -8 248q0 178 3 257q1 36 5 112l5 71v118q0 15 30 35q24 15 33 17q3 1 19 1q4 -7 5 -25v-28q0 -8 2 -14 q8 22 33 38q22 14 40 14t18 -18l-7 -62q-7 -66 -8 -97q-3 -60 -3 -149q0 -108 11 -206q6 -49 28 -196l5.5 -16.5t4.5 -18.5zM261 693v33h-5v-33h5z" />
<glyph unicode="}" horiz-adv-x="593" d="M513 785q0 -15 -37 -46q-20 -16 -41 -32q-24 -27 -119 -95q-100 -71 -124 -71q-17 0 -17 12q0 8 6 16q-9 1 -29 7q0 18 11 29q66 66 219 176q32 23 61 23q19 0 26 -14q16 6 24 6q20 0 20 -11zM505 431q1 -35 -64 -62q11 -1 31 -7q7 -21 -23 -45.5t-51 -24.5q-3 0 -7.5 3 t-7.5 3t-37.5 -3t-37.5 -3q-59 0 -166 12q-7 4 -7 21q0 52 143 110q121 50 163 50q23 0 31 -8q6 -12 -15 -36q6 -3 23 -2.5t25 -7.5zM467 19q0 -19 -30 -38.5t-45 -19.5t-23 9q-27 33 -86 92q-12 -1 -34 1q-23 13 -67 38q-8 3 -36 28q-32 28 -32 35q0 22 51 53q46 27 61 27 q10 0 21.5 -11t23.5 -23q32 -25 97 -82q99 -95 99 -109zM356 697l-3 3l-67 -49l2 -4zM283 643l-2 4l-6 -4v-3zM272 635l-1 4l-7 -4v-3zM422 366l-31 4q-13 -3 -33 -7q11 0 33 1.5t31 1.5z" />
<glyph unicode="~" horiz-adv-x="825" d="M694 716q0 -21 -37 -50q-19 -12 -38 -25q-48 -48 -93 -81q-12 -8 -31 -8q-26 0 -106 43q-9 5 -31.5 23.5t-24.5 18.5t-70.5 -34.5t-70.5 -34.5q-13 0 -13 10q0 5 7 21v3q-31 -40 -53 -40q-15 0 -15 11q0 17 38 61q61 72 136 113q7 4 26 4q18 0 20 -1q30 -19 95 -54 q77 -38 86 -38q3 0 63.5 48t76.5 48q11 0 11 -8q0 -3 -2.5 -10t-2.5 -9q0 -3 3 -3q2 0 6 1.5t6 1.5q14 0 14 -11zM292 675q-10 7 -16 7q-9 0 -41 -27q-26 -20 -35 -29.5t-12 -23.5q14 22 49 41q46 25 55 32z" />
<glyph unicode="&#xa3;" horiz-adv-x="987" d="M893 160q0 -6 -1 -9q-3 -9 -19 -22.5t-17 -18.5q-3 -10 -13 -27q-40 -35 -66 -35q9 0 -60 9q-7 1 -51 1q-198 0 -407 -68q-29 -9 -59 -24q-15 -8 -29.5 -17t-28.5 -9q-16 0 -16 14q0 17 12 26q94 75 156 170q26 40 95 180q-28 -1 -82 -15.5t-83 -14.5q-20 0 -20 10 q0 25 40 48q34 19 48 19q3 0 9 -1t9 -1q6 0 41 8q40 8 63 16q4 2 10 19q-5 2 -23 0q-24 -2 -80 -10q-50 -6 -53 -6q-15 0 -24 5q-6 24 43 52q44 26 66 26q3 0 8.5 -3t8.5 -3q7 0 41 7q10 0 20 1q14 0 16 5q13 44 39 126q25 70 51 99q10 12 53 36q10 10 38 31q34 20 65 20 q72 0 115 -111q10 -23 10 -68q0 -38 -6 -48q-10 -17 -59 -41h-21q-6 11 -5 33q0 27 -2 35q-24 110 -85 125q-4 -4 -9 -13q-40 -102 -74 -214v-10h114q2 1 27.5 -2t37.5 -4q2 -1 6 -5q-1 -23 -32 -46q7 -2 36 -3q21 0 39 -15q4 -20 -26.5 -42t-50.5 -22q-4 0 -14.5 4.5 t-14 5.5t-32.5 1q-24 0 -72 -3q-56 -4 -58 -8q-24 -76 -78 -229v-10l170 40q110 22 194 22q69 0 90 -16zM546 419v5h-9v-5h9zM380 176q-22 -39 -88 -117q12 2 31.5 12.5t23.5 16.5q12 15 33 88z" />
<glyph unicode="&#xa5;" horiz-adv-x="1092" d="M1033 512q0 -19 -31 -39q-26 -17 -40 -17q-5 0 -24 11l-19 11q-28 7 -55 11q-46 -82 -140 -142q-79 -51 -163 -71q3 -67 14 -160q4 -1 12 -7q0 -4 -2 -11.5t-2 -12.5q0 -27 -28 -48.5t-54 -18.5q-8 8 -10 18q-12 70 -15 178q-4 123 -10 173q-6 -85 -6 -113v-133 q0 -11 2 -32t2 -31q0 -56 -64 -78h-19q-9 7 -10 16q-27 192 -41 371q-67 -26 -118 -52q-6 -5 -20 -16q-21 -15 -44 -20q-6 0 -18 -2l-32 -9q-18 0 -18 10q0 24 79 65q-4 3 -14 3q-13 -1 -16 0q-8 2 -13 9q1 19 11 27q62 49 201 100q4 14 4 32v109q0 15 30 35q27 17 42 17 q19 0 19 -26q0 -9 -4 -16l1 -29q6 43 29 75q26 37 62 37q2 0 7.5 -2.5t8.5 -2.5q2 0 10.5 7.5t11.5 9.5q21 11 62 30q33 14 54 16q84 8 132 8q26 0 22 1q9 -1 30 -15q39 -24 39 -78q0 -18 -5 -37q-6 -23 6 -47q90 18 81 18q17 0 17 -10q0 -15 -30 -38q-25 -19 -37 -22 q-18 -6 -33 -6q1 -3 -2 -13q68 3 116 -14q7 -2 19.5 -13t12.5 -16zM793 616q-4 30 -35 66q-36 44 -73 44q-3 0 -10 -2t-9 -2q18 -5 46 -17q25 -18 40 -50q13 -28 14 -51q12 1 27 12zM671 586q-16 42 -36 55q-31 19 -55 18h-34l-3 -12q1 -62 4 -86q20 3 62 12.5t62 12.5z M791 486h-20q-60 -60 -129 -132q45 17 90 53q52 42 59 79zM600 455h-10q1 0 -36 -7v-28q18 18 46 35zM330 439l-4 9q-37 -14 -74 -27q-43 -19 -62 -41q60 23 140 59zM609 393q-10 -7 -34 -22q-12 -6 -15 -6l7 -17q6 0 26 15q13 14 16 30z" />
<glyph unicode="&#xa9;" horiz-adv-x="976" d="M868 504q0 -77 -11 -142q-6 -36 -23 -76q-57 -138 -209 -217q-127 -65 -258 -65q-89 0 -163 53q-83 60 -102 160q-6 30 -6 82q0 141 124.5 282.5t286.5 170.5q20 0 58 4l46 12h34q223 0 223 -264zM734 368q0 103 -86 205q-16 20 -49 50q-14 9 -56 28q-30 14 -40 26 q-64 -27 -141 -127q-89 -114 -89 -207q0 -39 54 -129q5 -7 20 -27q12 -16 12 -19q0 -16 -25 -35q-19 -14 -38 -22q38 -21 52 -26q50 -15 75 -15q45 0 135 24q23 5 64 23q6 3 13 7q51 50 78 121q21 58 21 123zM412 669q-21 -3 -72 -37q-68 -45 -115 -137q-43 -85 -43 -151 q0 -1 2 -22.5t2 -31.5q-4 50 20 106q17 38 64 112q57 92 142 161zM643 254q0 -7 -11 -22q-18 -23 -50 -40q-26 -11 -51 -23q-2 -1 -38 -13q-10 -3 -31 -3q-52 0 -88 59q-30 49 -30 94q0 103 66 172.5t158 69.5q15 0 24 -5q-3 -15 -13 -32q2 -3 2 -8q0 -16 -22 -34t-39 -21 q-10 -1 -35 -7q-9 -3 -21.5 -29t-12.5 -37q0 -21 18 -49q21 -31 46 -31q13 0 36 17.5t41 17.5q9 0 12.5 -2t3.5 -12q0 -31 -50 -58q-9 -5 -67 -28q17 -11 27 -11q3 0 9.5 3t10.5 4q23 4 45 19q30 20 45 20t15 -11zM200 240q3 -16 21 -54q14 -20 35 -29q-7 13 -28 45z M704 669q7 -7 28 -35q12 -19 27 -29q-3 12 -23 41q-16 16 -32 23z" />
<glyph unicode="&#xad;" d="M724 473q1 -12 -13.5 -30.5t-31.5 -26.5q-7 -3 -21 -12q1 -3 1 -7q0 -20 -31.5 -42.5t-52.5 -22.5q-3 0 -37 4.5t-38 4.5q-1 0 -26 -4t-37 -4q-42 -1 -121 -23l-66 -24q-63 -22 -89 -22q-16 0 -32 9q-6 25 27 54t58 29q8 0 10 -1t3.5 -6t5.5 -5q10 0 149 49q-1 1 -12 1 q-72 -2 -150.5 -23t-70.5 -21q-21 0 -21 12q0 64 236 100q156 24 265 24q59 0 71 -2q8 0 24 -11z" />
<glyph unicode="&#xae;" horiz-adv-x="1116" d="M1006 357q0 -53 -13 -118q-11 -57 -44 -98q-58 -72 -203 -111q-113 -31 -224 -31q-171 0 -284 81q-124 89 -124 243q0 74 30 155q11 22 35 68q10 22 37 58q59 82 200 149q34 16 121 33.5t132 17.5q19 0 19 -11q0 -5 -10 -21q12 0 38.5 3t28.5 3q261 0 261 -421zM654 442 q-17 -14 -47 -38q3 0 10 -2t10 -2q10 0 27 42zM602 463q0 10 -24 18q-19 6 -30 6q-4 0 -13.5 -2t-12.5 -2q-20 -23 -20 -26q0 -17 6 -59q20 10 41.5 21t38.5 28q14 13 14 16zM895 169q-9 -5 -21 -5q-15 0 -15 15q0 -5 13 54q2 12 2 20q0 10 -6 40q-19 -8 -39 -8 q-19 0 -19 11q-2 1 -7 3q-72 12 -205 28q-8 1 -27.5 4.5t-22.5 2.5h-27q0 -5 4 -20t4 -23q0 -22 -32 -46t-51 -18q-7 10 -14 41q-9 1 -13 8q-14 27 -41 76q-39 69 -39 84q0 17 32 40q29 22 40 19q11 22 32.5 39.5t42.5 17.5q22 0 22 -18q26 13 48 17q13 1 32 5q45 17 57 17 q24 0 39 -6q25 -10 45 -31t20 -40q0 -16 -23 -51.5t-38 -48.5q49 -7 155 -22q-35 84 -70 151q-9 19 -26 50q-61 111 -132 111q-4 0 -15 -1.5t-14 -1.5t-10 3t-10 3q-18 0 -100 -41q-20 -10 -45 -26q-52 -35 -78 -68q-17 -21 -31 -75t-14 -89q0 -70 43 -131.5t141 -92.5 q39 -12 69 -12q3 0 22 2.5t22 2.5q17 0 17 -11q0 -18 -30 -39q-26 -18 -40 -20q-30 -5 -85 -5q129 -17 122 -17q70 0 166 20q107 23 136 52q6 6 14 30zM422 698q-50 -11 -91 -41t-74 -92q-10 -18 -24 -48q-30 -92 -30 -147q0 -3 2 -19t2 -22q-3 113 75 240q49 79 140 129z M833 649q6 -15 28 -58q19 -36 34 -61q-1 11 -3 21q-6 25 -18 45q-19 31 -41 53z" />
<glyph unicode="&#x2000;" horiz-adv-x="444" />
<glyph unicode="&#x2001;" horiz-adv-x="889" />
<glyph unicode="&#x2002;" horiz-adv-x="444" />
<glyph unicode="&#x2003;" horiz-adv-x="889" />
<glyph unicode="&#x2004;" horiz-adv-x="296" />
<glyph unicode="&#x2005;" horiz-adv-x="222" />
<glyph unicode="&#x2006;" horiz-adv-x="148" />
<glyph unicode="&#x2007;" horiz-adv-x="148" />
<glyph unicode="&#x2008;" horiz-adv-x="111" />
<glyph unicode="&#x2009;" horiz-adv-x="177" />
<glyph unicode="&#x200a;" horiz-adv-x="49" />
<glyph unicode="&#x2010;" d="M724 473q1 -12 -13.5 -30.5t-31.5 -26.5q-7 -3 -21 -12q1 -3 1 -7q0 -20 -31.5 -42.5t-52.5 -22.5q-3 0 -37 4.5t-38 4.5q-1 0 -26 -4t-37 -4q-42 -1 -121 -23l-66 -24q-63 -22 -89 -22q-16 0 -32 9q-6 25 27 54t58 29q8 0 10 -1t3.5 -6t5.5 -5q10 0 149 49q-1 1 -12 1 q-72 -2 -150.5 -23t-70.5 -21q-21 0 -21 12q0 64 236 100q156 24 265 24q59 0 71 -2q8 0 24 -11z" />
<glyph unicode="&#x2011;" d="M724 473q1 -12 -13.5 -30.5t-31.5 -26.5q-7 -3 -21 -12q1 -3 1 -7q0 -20 -31.5 -42.5t-52.5 -22.5q-3 0 -37 4.5t-38 4.5q-1 0 -26 -4t-37 -4q-42 -1 -121 -23l-66 -24q-63 -22 -89 -22q-16 0 -32 9q-6 25 27 54t58 29q8 0 10 -1t3.5 -6t5.5 -5q10 0 149 49q-1 1 -12 1 q-72 -2 -150.5 -23t-70.5 -21q-21 0 -21 12q0 64 236 100q156 24 265 24q59 0 71 -2q8 0 24 -11z" />
<glyph unicode="&#x2012;" d="M724 473q1 -12 -13.5 -30.5t-31.5 -26.5q-7 -3 -21 -12q1 -3 1 -7q0 -20 -31.5 -42.5t-52.5 -22.5q-3 0 -37 4.5t-38 4.5q-1 0 -26 -4t-37 -4q-42 -1 -121 -23l-66 -24q-63 -22 -89 -22q-16 0 -32 9q-6 25 27 54t58 29q8 0 10 -1t3.5 -6t5.5 -5q10 0 149 49q-1 1 -12 1 q-72 -2 -150.5 -23t-70.5 -21q-21 0 -21 12q0 64 236 100q156 24 265 24q59 0 71 -2q8 0 24 -11z" />
<glyph unicode="&#x2013;" horiz-adv-x="747" d="M628 473q1 -12 -11.5 -30.5t-26.5 -26.5q-6 -3 -17 -12v-7q0 -20 -26 -42.5t-44 -22.5q-3 0 -31.5 4.5t-31.5 4.5q-1 0 -22 -4t-31 -4q-35 -1 -101 -23l-56 -24q-53 -22 -74 -22q-14 0 -27 9q-5 25 22.5 54t48.5 29q7 0 8.5 -1t3 -6t4.5 -5q8 0 125 49q-1 1 -10 1 q-60 -2 -126 -23t-59 -21q-18 0 -18 12q0 64 198 100q131 24 222 24q50 0 60 -2q7 0 20 -11z" />
<glyph unicode="&#x2014;" horiz-adv-x="1246" d="M1128 473q2 -12 -22.5 -30.5t-53.5 -26.5q-11 -3 -35 -12q2 -3 2 -7q0 -20 -53 -42.5t-88 -22.5q-5 0 -62 4.5t-64 4.5q-2 0 -43.5 -4t-62.5 -4q-70 -1 -203 -23l-110 -24q-106 -22 -150 -22q-26 0 -53 9q-10 25 45 54t97 29q14 0 17 -1t5.5 -6t9.5 -5q17 0 250 49 q-2 1 -20 1q-121 -2 -252.5 -23t-118.5 -21q-35 0 -35 12q0 64 396 100q262 24 445 24q98 0 119 -2q13 0 40 -11z" />
<glyph unicode="&#x202f;" horiz-adv-x="177" />
<glyph unicode="&#x205f;" horiz-adv-x="222" />
<glyph unicode="&#x2122;" horiz-adv-x="1014" d="M876 513q0 -14 -24 -28t-34 -12l-10 10q-24 67 -38 117q-7 -23 -41 -64q-37 -44 -57 -44h-13q0 1 -1.5 3t-1.5 6q0 -1 17 28q-1 -1 -22 -24q-17 -18 -43 -18q-22 61 -56 147q-5 -17 -17 -51q-10 -24 -27 -73q0 2 1 -19q0 -10 -21 -24t-32 -14t-11 10q-1 16 -3 19 q-24 -19 -39 -19q-11 0 -11 11q0 30 43 140q34 90 46 112q7 13 26 24q16 11 26 11q7 0 12 -10q20 15 32 15q17 0 8 -33q16 1 19 -16q2 -12 4.5 -23.5t36.5 -98.5q23 37 59 99q14 26 28 51q27 40 50 40h13q0 -1 1.5 -3t1.5 -5q0 -6 -17 -30l-2 -8q6 8 19 23q22 18 37 18 q11 0 11 -10q0 -3 -13 -32.5t-13 -32.5q0 12 11 -55q1 -9 4 -25q5 -20 24 -67q17 -43 17 -45zM407 767q0 -31 -94 -51q-4 -1 -14 -6q9 -14 16 -50q0 -3 8 -30q6 -23 21 -68q6 -15 19 -35q10 -17 10 -19q0 -12 -21.5 -26t-31.5 -14q-7 0 -13.5 10t-13.5 19q-28 -41 -61 -39 q-2 2 -5 6q-7 34 -14 98q-8 86 -10 99q-1 3 -5 8q0 2 2 8t2 8q-11 -2 -30 -8q-5 -2 -22 -12q-12 -7 -16 -7h-17q0 1 -1.5 3t-1.5 6q0 14 36 35q27 16 38 19q196 54 201 54h15q0 -1 1.5 -3t1.5 -5zM756 676q0 4 -1.5 8.5t-1.5 5.5q-50 -66 -61 -111q-1 -2 -4 -5.5t-3 -6.5 t3 -10t3 -9q65 123 65 128zM478 567q-6 -4 -13 -19q-1 -9 5 -14z" />
<glyph unicode="&#xe000;" horiz-adv-x="845" d="M0 845h845v-845h-845v845z" />
</font>
</defs>
</svg>
