<?xml version="1.0" standalone="no"?>
<!DOCTYPE svg PUBLIC "-//W3C//DTD SVG 1.1//EN" "http://www.w3.org/Graphics/SVG/1.1/DTD/svg11.dtd" >
<svg xmlns="http://www.w3.org/2000/svg">
<metadata></metadata>
<defs>
<font id="almendrabold_italic" horiz-adv-x="1204" >
<font-face units-per-em="2048" ascent="1638" descent="-410" />
<missing-glyph horiz-adv-x="337" />
<glyph unicode="&#x2e;&#x2e;&#x2e;" horiz-adv-x="1351" d="M43 190q21 38 51 64q7 10 21 20l39 33q25 20 28 23l19 12q21 15 41 25q0 -2 4 -2q43 -28 88 -80l14 -17q46 -57 47 -59q1 -1 4 -6t4 -8l5 -5q-43 -62 -98 -123.5t-101 -93.5l-4 -4q-46 40 -90 97q-9 12 -25.5 40t-26.5 41q-5 8 -11.5 23.5t-8.5 19.5zM494 190 q23 43 85 96t113 81q38 -24 86.5 -76.5t79.5 -100.5q-30 -49 -93.5 -118.5t-109.5 -102.5q-42 31 -89 98.5t-72 122.5zM944 190q23 43 85.5 96t113.5 81q25 -16 57 -46.5t60.5 -65t48.5 -65.5q-30 -49 -93.5 -118.5t-109.5 -102.5q-42 31 -89.5 98.5t-72.5 122.5z" />
<glyph unicode="&#xfb01;" horiz-adv-x="1198" d="M51 946q49 29 92 45q17 81 60.5 152t110.5 128t133 99t153 86l68 -22q71 -24 161.5 -43t157.5 -19l12 -31q-46 -48 -97.5 -122t-70.5 -129l-32 -3l-31 35q-42 49 -133 108.5t-152 63.5q-112 -75 -112 -176q0 -46 25 -74t71 -36q29 -4 133 -4q320 0 481 30l15 -26 q-24 -52 -36.5 -111.5t-23.5 -163.5q-14 -117 -21.5 -282.5t-4.5 -272.5q32 41 62.5 105.5t45 107t37.5 117.5l33 -8q-15 -82 -31.5 -148t-45 -144.5t-71 -140t-96.5 -98.5q-130 0 -186 61t-56 195q0 66 16.5 296.5t10.5 340.5q-127 23 -260 23q-23 -168 -23 -322 q0 -433 33 -563q-151 -85 -227 -186.5t-94 -227.5l-45 4q-4 27 -4 78q0 32 24 326t25 405q3 257 -17 502l-84 6z" />
<glyph unicode="&#xfb02;" horiz-adv-x="1212" d="M51 946q49 29 92 45q15 76 55 144.5t102 127t121.5 102t137.5 91.5l47 -22q129 -66 228 -66q70 0 159.5 21t159.5 51l16 -27q-50 -80 -74.5 -190.5t-37.5 -276.5q-37 -472 -33 -768q32 41 62.5 105.5t45 107t37.5 117.5l33 -8q-15 -82 -31.5 -148t-45 -144.5t-71 -140 t-96.5 -98.5q-130 0 -185.5 61t-55.5 195q0 92 21.5 358t21.5 363q0 64 -4 154l-35 43q-40 48 -120.5 97.5t-137.5 53.5q-41 -34 -66.5 -80.5t-25.5 -95.5q0 -46 25 -74t71 -36q30 3 51.5 7t53.5 13t53 14l12 -14q-30 -84 -37 -162q-101 18 -131 19q-23 -168 -23 -322 q0 -433 33 -563q-151 -85 -227 -186.5t-94 -227.5l-45 4q-4 27 -4 78q0 32 24 326t25 405q3 257 -17 502l-84 6z" />
<glyph horiz-adv-x="2048" />
<glyph horiz-adv-x="2048" />
<glyph unicode="&#xd;" horiz-adv-x="2048" />
<glyph unicode=" "  horiz-adv-x="337" />
<glyph unicode="&#x09;" horiz-adv-x="337" />
<glyph unicode="&#xa0;" horiz-adv-x="337" />
<glyph unicode="!" horiz-adv-x="530" d="M43 190q23 43 85.5 96t113.5 81q38 -24 86.5 -76.5t79.5 -100.5q-30 -49 -93.5 -118.5t-109.5 -102.5q-42 31 -89.5 98.5t-72.5 122.5zM197 487l32 908q52 24 128.5 44t119.5 17q50 -47 96 -141q-198 -431 -282 -817z" />
<glyph unicode="&#x22;" horiz-adv-x="684" d="M98 760l37 575q35 15 107 30.5t106 14.5l33 -34q-124 -234 -205 -576zM401 760l37 575q35 15 107 30.5t106 14.5l33 -34q-124 -234 -205 -576z" />
<glyph unicode="#" horiz-adv-x="1171" d="M76 295l59 127l92 -8q100 -10 127 -11l47 246l-231 6l-16 15l59 127l92 -9q76 -8 121 -10l80 424q72 0 123 15l8 -7q-51 -191 -98 -438q64 -4 194 -8l82 438q72 0 123 15l8 -7q-52 -194 -98 -440l-2 -8q83 -2 244 2l12 -10l-60 -121l-219 6l-47 -252q79 -2 236 2l12 -10 l-59 -121l-211 6l-86 -461h-11q-26 6 -59.5 21.5t-52.5 30.5q64 256 94 413l-193 4l-88 -469h-10q-26 6 -59.5 21.5t-52.5 30.5q71 292 96 419l-240 7zM469 397q59 -4 193 -8l49 254l-195 4z" />
<glyph unicode="$" horiz-adv-x="792" d="M8 164q64 58 125 127t94 129l29 -17q-8 -27 -8 -59q0 -44 23.5 -93.5t60.5 -88.5l22 282q-142 84 -190 125q-83 71 -84 133q0 47 38.5 100.5t99 100t123.5 83.5t122 63l12 155q45 5 66 13l8 -7q-15 -68 -23 -155q80 -23 160 -23q57 0 84 19l21 -23q-96 -111 -136 -233 l-20 -7l-53 39l-72 47l-12 -163q52 -30 84 -51t71.5 -52t58.5 -62.5t19 -64.5q0 -80 -57 -176t-132.5 -172t-158.5 -137l-10 -182l-11 -2q-47 14 -63 30l14 131q-84 15 -165 62.5t-121 103.5zM342 840q0 -39 96 -97l15 162q-43 17 -58 19q-20 -13 -36.5 -37.5t-16.5 -46.5z M391 117q40 35 71.5 96t31.5 109q0 30 -80 86z" />
<glyph unicode="%" horiz-adv-x="1554" d="M94 799q17 85 57.5 157t88.5 116.5t97 69.5t89 25h8q44 -1 217.5 -31t290.5 -30q76 0 118.5 14t76.5 64l14 20q99 4 166 25l6 -6q-164 -212 -334 -451l-692 -985h-10q-27 9 -57.5 33t-43.5 47q24 31 84 103.5t107.5 132.5t81.5 106l397 561q23 33 67 93.5t78 109t64 94.5 l-8 2q-64 -61 -139 -61q-41 0 -101 14.5t-103 28.5t-122 43l-6 -7q49 -49 84.5 -116t44.5 -135q-17 -86 -57.5 -159t-89.5 -118t-98.5 -69.5t-90.5 -24.5q-89 0 -179.5 103.5t-105.5 230.5zM338 786q0 -84 13.5 -153.5t41.5 -83.5q76 23 76 289q0 217 -55 245 q-76 -22 -76 -297zM840 303q17 85 57 157.5t88 117t97 69.5t89 25q90 0 181 -103t108 -229q-17 -86 -57.5 -159t-89.5 -118t-98.5 -69.5t-90.5 -24.5q-89 0 -179 103.5t-105 230.5zM1083 291q0 -83 14 -153.5t42 -84.5q75 23 75 289q0 218 -55 246q-76 -22 -76 -297z" />
<glyph unicode="&#x26;" horiz-adv-x="1396" d="M41 586q0 134 69.5 263.5t184 221.5t246.5 127l16 -2q10 -25 35 -97.5t46.5 -116t53.5 -77.5q55 69 96 176t41 193q0 11 -4 61l9 11q177 0 264 18q-24 -93 -57 -174t-70 -147.5t-88 -129t-101.5 -113t-121.5 -106t-137 -101t-158 -104.5q15 -81 38 -142t61 -110.5 t94.5 -75.5t131.5 -26q78 0 137 29q80 105 80 366q0 54 -6 101q-51 -3 -84 -17.5t-65 -46.5q-4 -16 -4 -32q0 -66 28 -109v-16q-37 -31 -76.5 -80.5t-62.5 -93.5q-35 0 -52.5 30.5t-17.5 71.5q0 152 100 279.5t255 191.5q128 -25 243 -25q230 0 273 64q4 16 4 33 q0 63 -29 108v17q37 31 76.5 80.5t62.5 93.5q35 0 52.5 -31t17.5 -72q0 -153 -79 -262t-230 -205q-52 18 -101 21q-12 -222 -165.5 -409.5t-370.5 -252.5q-307 0 -471 157.5t-164 459.5zM348 698q0 -80 6 -129q99 77 131 109q-48 187 -73 385q-34 -18 -49 -134.5t-15 -230.5 z" />
<glyph unicode="'" horiz-adv-x="380" d="M98 760l37 575q35 15 107 30.5t106 14.5l33 -34q-124 -234 -205 -576z" />
<glyph unicode="(" horiz-adv-x="606" d="M88 537q20 273 150.5 511.5t339.5 407.5l43 -33q-313 -389 -347 -886q-19 -257 37 -506.5t183 -440.5l-50 -30q-182 165 -279 429.5t-77 547.5z" />
<glyph unicode=")" horiz-adv-x="606" d="M-14 -408q312 388 346 887q19 258 -36.5 506.5t-182.5 439.5l49 31q182 -165 279 -429.5t77 -547.5q-20 -274 -150 -512.5t-339 -406.5z" />
<glyph unicode="*" horiz-adv-x="759" d="M88 952q3 20 45 74q-2 3 -19.5 22.5t-19.5 26.5l2 4q119 -4 219 41q-104 46 -211 43v4q4 7 23 28t20 22q-38 57 -38 71q16 9 81 -2q3 6 11.5 33t11.5 33h6q51 -108 129 -172q-6 118 -57 215l4 4q11 0 63 -13q26 60 43 70q15 -9 31 -70q4 1 32.5 7t35.5 6l4 -4 q-72 -108 -88 -215q89 67 151 174h6q9 -17 17 -68q62 12 78 2q0 -16 -47 -69q2 -3 12.5 -14t18.5 -21t10 -15l-3 -4q-104 3 -219 -45q102 -48 213 -45l2 -4q-4 -6 -47 -49q39 -50 39 -70q-17 -11 -80 0q-13 -39 -24 -61h-6q-45 98 -129 170q3 -114 57 -217l-2 -4q-7 0 -35 8 t-29 8q-27 -63 -45 -72q-7 4 -18.5 29.5t-16.5 44.5q-3 -1 -29.5 -7.5t-33.5 -6.5l-4 4q70 112 88 213q-83 -62 -152 -172h-6q-2 6 -7 32.5t-7 32.5q-62 -12 -80 -2z" />
<glyph unicode="+" horiz-adv-x="1179" d="M117 449l18 145q251 -12 375 -14v415l145 19l11 -13q-11 -300 -11 -421v-2q114 -3 224 -3q81 0 174 7l12 -13l-18 -135h-392q0 -247 19 -454l-144 -19l-20 14v459h-377z" />
<glyph unicode="," horiz-adv-x="450" d="M-10 -311q62 66 114 150t68 159q-37 37 -73.5 93t-55.5 99q23 43 85.5 96t113.5 81q38 -24 86.5 -76.5t79.5 -100.5q-25 -147 -136.5 -294.5t-251.5 -241.5z" />
<glyph unicode="-" horiz-adv-x="614" d="M49 475l12 135h95q212 0 393 21l16 -10l-12 -127l-485 -31z" />
<glyph unicode="." horiz-adv-x="450" d="M43 190q23 43 85.5 96t113.5 81q38 -24 86.5 -76.5t79.5 -100.5q-30 -49 -93.5 -118.5t-109.5 -102.5q-42 31 -89.5 98.5t-72.5 122.5z" />
<glyph unicode="/" horiz-adv-x="835" d="M14 -14q103 197 176 364l302 664q92 204 167 409q74 3 152 23l10 -8q-81 -159 -157 -326l-533 -1208h-14q-54 22 -103 82z" />
<glyph unicode="0" horiz-adv-x="935" d="M14 473q26 129 85 239t128.5 178t141.5 106t131 38q88 0 180.5 -72t159 -190t82.5 -244q-21 -104 -64 -196.5t-95.5 -157.5t-111.5 -112t-114.5 -70t-102.5 -23q-88 0 -180 71.5t-158 189t-82 243.5zM365 453q0 -128 22.5 -238t67.5 -137q61 22 88.5 145.5t27.5 308.5 q0 341 -92 394q-60 -22 -87 -153t-27 -320z" />
<glyph unicode="1" horiz-adv-x="702" d="M29 18q66 36 139 56q37 206 37 688q0 102 -8 176q-60 17 -131 55l6 35q117 -24 317 -24q176 0 266 20l11 -31q-50 -24 -79.5 -62t-48.5 -117.5t-25.5 -195.5t-6.5 -309q0 -133 12 -223q50 -50 113 -76l-13 -37q-115 27 -303 27q-189 0 -280 -18z" />
<glyph unicode="2" horiz-adv-x="802" d="M-43 -6q26 71 84 150.5t119 148t119.5 140t95.5 152t37 158.5q0 58 -15.5 89.5t-60.5 31.5q-35 0 -60 -10q-18 -38 -18 -94q0 -44 29 -68l-4 -16q-118 -54 -183 -119q-51 0 -51 61q0 73 32.5 141t87 120t122 92t141.5 63q145 0 236.5 -82.5t91.5 -222.5 q-29 -58 -98.5 -127t-139.5 -122.5t-151.5 -119t-122.5 -108.5q84 -16 225 -16q124 0 172 26q44 101 82 154l33 -17q-21 -51 -34 -131t-13 -139q0 -103 28 -143l-18 -29q-118 26 -266 42.5t-267 16.5q-150 0 -213 -43z" />
<glyph unicode="3" horiz-adv-x="794" d="M-66 -41q157 140 220 256l28 -16q-8 -27 -8 -60q0 -59 52.5 -127.5t111.5 -99.5q48 51 76 141.5t28 167.5q0 199 -159 199q-38 0 -68 -10l-14 41q188 141 286 333q-65 7 -120 7q-122 0 -172 -27q-40 -78 -82 -133l-33 16q47 117 47 250q0 84 -27 129l23 25 q113 -52 432 -52q113 0 205 15l20 -33q-107 -234 -325 -403v-9q146 0 225.5 -65t79.5 -201q0 -64 -31.5 -132.5t-80.5 -125.5t-113.5 -112.5t-123.5 -95.5t-118 -73q-92 7 -194 58.5t-146 111.5z" />
<glyph unicode="4" horiz-adv-x="962" d="M-43 141q226 280 510 842q82 5 180.5 19.5t147.5 31.5l16 -8q-32 -100 -54 -301.5t-26 -456.5q94 0 178 37l11 -12q-15 -38 -35 -193q-96 13 -156 13q0 -143 12 -232q52 -45 115 -67l-10 -43q-118 24 -293 24q-180 0 -293 -26l-10 41q50 29 141 59q22 111 27 244h-453z M229 281q84 -11 207 -11l33 512h-14q-89 -253 -226 -501z" />
<glyph unicode="5" horiz-adv-x="774" d="M-66 -41q157 140 220 256l28 -16q-8 -27 -8 -60q0 -59 52.5 -127.5t111.5 -99.5q48 51 76 141.5t28 167.5q0 99 -39.5 144t-134.5 45q-64 0 -151 -25l-27 16l29 379q6 112 -27 201l21 33q66 -15 174 -15q237 0 350 52l22 -25q-26 -43 -26 -129q0 -112 47 -229l-33 -17 q-31 34 -72 113q-50 27 -186 27q-85 0 -156 -11l-36 -225l8 -2l18 25q91 22 205 22q156 0 244 -74t88 -223q0 -64 -31.5 -132.5t-80.5 -125.5t-113.5 -112.5t-123.5 -95.5t-118 -73q-92 7 -194 58.5t-146 111.5z" />
<glyph unicode="6" horiz-adv-x="880" d="M41 371q0 118 40.5 232.5t110 209.5t163.5 179t200.5 147t222.5 108l29 -43q-447 -265 -447 -798q0 -47 0.5 -76t3.5 -67.5t9 -61.5t16 -45.5t26 -32.5t38 -10q41 0 63 22q16 75 16 174q0 45 -0.5 68.5t-2.5 60.5t-6.5 57t-13.5 44.5t-22 36.5t-32.5 21t-44.5 9v19 q79 86 137 168q78 0 135.5 -23t92.5 -62t55.5 -100t28 -126t7.5 -152q-84 -121 -207.5 -218.5t-257.5 -142.5q-360 0 -360 402z" />
<glyph unicode="7" horiz-adv-x="739" d="M14 -188q60 20 115 69q32 227 132 433t290 464q-106 13 -184 13q-143 0 -193 -27q-40 -78 -82 -133l-33 16q47 117 47 250q0 86 -26 129l22 25q113 -52 412 -52q143 0 231 19l23 -21q-318 -588 -324 -1132q71 -24 121 -58l-10 -40q-112 28 -258 28q-152 0 -270 -24z" />
<glyph unicode="8" horiz-adv-x="745" d="M29 238q0 101 62 198t155 156q-80 86 -125 166t-45 178q69 93 179.5 168.5t215.5 93.5q109 0 162 -39t53 -137q0 -90 -47.5 -177t-124.5 -159q48 -42 76 -70.5t61.5 -73t49.5 -94.5t16 -108q-47 -139 -149 -225.5t-261 -145.5q-278 0 -278 269zM244 295q0 -73 26 -123.5 t84 -50.5q59 0 95 29q16 44 16 108q0 37 -12 72t-39 72t-50 63t-63 67q-57 -80 -57 -237zM328 975q0 -65 30.5 -117.5t87.5 -109.5q27 102 27 192q0 109 -78 109q-25 0 -53 -11q-14 -22 -14 -63z" />
<glyph unicode="9" horiz-adv-x="880" d="M14 674q83 121 207 218t258 142q361 0 361 -401q0 -147 -61.5 -286.5t-166 -250t-234.5 -197t-276 -143.5l-28 43q222 131 334 333t112 466q0 48 -0.5 76t-3 67.5t-8.5 62t-16 45t-26 32.5t-38 10q-40 0 -63 -23q-17 -80 -17 -174q0 -44 0.5 -68.5t3 -60.5t7 -56.5 t13.5 -45t22 -37t32.5 -21t44.5 -8.5v-18q-79 -86 -137 -168q-78 0 -136 23t-93 62t-55.5 100t-28 126.5t-7.5 151.5z" />
<glyph unicode=":" horiz-adv-x="475" d="M43 190q23 43 85.5 96t113.5 81q38 -24 86.5 -76.5t79.5 -100.5q-30 -49 -93.5 -118.5t-109.5 -102.5q-42 31 -89.5 98.5t-72.5 122.5zM68 858q23 43 85 95.5t113 80.5q38 -24 86.5 -76t79.5 -100q-30 -49 -93.5 -118.5t-109.5 -102.5q-42 31 -89 98.5t-72 122.5z" />
<glyph unicode=";" horiz-adv-x="475" d="M-10 -311q62 66 114 150t68 159q-37 37 -73.5 93t-55.5 99q23 43 85.5 96t113.5 81q38 -24 86.5 -76.5t79.5 -100.5q-25 -147 -136.5 -294.5t-251.5 -241.5zM68 858q23 43 85 95.5t113 80.5q38 -24 86.5 -76t79.5 -100q-30 -49 -93.5 -118.5t-109.5 -102.5 q-42 31 -89 98.5t-72 122.5z" />
<glyph unicode="&#x3c;" horiz-adv-x="1179" d="M113 455l28 131q137 43 381 135q272 103 496 219l49 -135l-10 -21l-715 -264v-8l715 -262l10 -21l-53 -137q-196 99 -445 200t-456 163z" />
<glyph unicode="=" horiz-adv-x="1179" d="M115 291l18 135q347 -18 744 -18q95 0 174 6l12 -13l-19 -125h-913zM115 616l18 136q366 -19 744 -19q95 0 174 6l12 -12l-19 -125h-913z" />
<glyph unicode="&#x3e;" horiz-adv-x="1179" d="M113 229l10 21l715 262v8l-715 264l-10 21l49 135q227 -117 495 -219q244 -92 381 -135l29 -131q-207 -62 -456 -163t-445 -200z" />
<glyph unicode="?" horiz-adv-x="645" d="M12 1040q0 73 32.5 141t87 120t122 92t141.5 63q145 0 236.5 -82.5t91.5 -222.5q-15 -19 -31 -37.5t-36 -38t-35 -33.5t-41 -34.5t-38.5 -30.5t-44 -32.5t-40.5 -29t-44.5 -31t-41.5 -28.5q-20 -60 -41 -178.5t-27 -145.5l-127 -20l10 328q81 63 135 157.5t54 188.5 q0 100 -76 100q-34 0 -59 -10q-19 -40 -19 -94q0 -44 29 -68l-4 -16q-118 -54 -183 -119q-51 0 -51 61zM43 190q25 45 89 108.5t110 88.5q36 -22 82 -80t84 -117q-30 -49 -93.5 -118.5t-109.5 -102.5q-42 31 -89.5 98.5t-72.5 122.5z" />
<glyph unicode="@" horiz-adv-x="1746" d="M61 209q0 227 60.5 427.5t174 359.5t288.5 265.5t393 141.5q153 0 279.5 -33t224 -99.5t151.5 -176.5t54 -256q0 -191 -65.5 -367t-194.5 -311t-300 -191q-46 7 -79 43.5t-48.5 92t-21.5 108.5t-6 113l33 166l-35 4q-17 -85 -34 -148t-45.5 -140.5t-71 -138t-97.5 -100.5 q-135 0 -213 104t-78 253q0 228 141.5 418t364.5 290q119 0 268 -71q57 98 86 137l33 -10q-70 -185 -70 -578q0 -222 25 -393q121 107 185.5 291t64.5 358q0 257 -144 383.5t-411 126.5q-94 0 -194.5 -19.5t-172.5 -58.5q-120 -105 -208 -267t-130.5 -336.5t-42.5 -342.5 q0 -237 132.5 -377.5t365.5 -140.5q134 0 252 47l12 -29q-181 -120 -289 -143q-304 0 -470.5 152t-166.5 446zM748 381q0 -173 34 -201q71 95 122.5 300t51.5 343q-22 29 -42.5 42.5t-51.5 13.5q-34 0 -55 -15q-59 -239 -59 -483z" />
<glyph unicode="A" horiz-adv-x="1153" d="M-43 -14l434 1274q-56 17 -133 57l8 39q164 -23 396 -23q226 0 364 23l12 -10q-29 -121 -49 -404t-20 -545q0 -278 22 -397q-268 -8 -383 -31l-12 11q36 160 55 456q-47 13 -116 13q-75 3 -142 -13q-43 -173 -43 -311q0 -50 15 -127q-213 0 -383 -29zM422 592 q38 -14 119 -14q77 0 116 16q11 244 11 383q0 119 -9 233q-11 7 -36 7t-39 -7q-38 -56 -62 -180z" />
<glyph unicode="B" horiz-adv-x="1130" d="M57 1296l2 37q88 0 311.5 11.5t311.5 11.5q73 0 131.5 -12.5t106 -39.5t74 -75t26.5 -115q0 -117 -71.5 -206.5t-190.5 -143.5v-8q153 0 241 -66t88 -205q0 -74 -38 -144.5t-98.5 -126t-140.5 -104.5t-157.5 -83t-156.5 -58l-66 17q-145 37 -233 37q-41 0 -88 -9l-13 27 q44 47 58 162q36 330 36 733q0 216 -16 326q-70 11 -117 34zM489 393q0 -2 5 -217q45 -26 100 -26q75 0 115 32q32 98 32 224q0 63 -3.5 104.5t-16 82t-35 63.5t-61 37t-93.5 14l9 75q47 3 82 19q25 43 40 118.5t15 133.5q0 41 -2.5 67t-10.5 56.5t-28 45.5t-51 15 q-41 0 -68 -12q-29 -375 -29 -832z" />
<glyph unicode="C" horiz-adv-x="954" d="M61 479q0 557 572 885q82 -31 215 -31q79 0 121 13l14 -29q-55 -73 -87 -210.5t-32 -246.5h-35q-20 52 -38 156l-43 33q-45 34 -71 52.5t-75.5 42t-85.5 23.5q-52 -119 -82.5 -291.5t-30.5 -314.5q0 -78 10.5 -145.5t34.5 -131.5t72 -101.5t115 -37.5q55 99 55 256 q0 37 -6 64l14 10q126 3 256 23q-31 -157 -144.5 -306t-256.5 -223q-228 0 -360 139t-132 371z" />
<glyph unicode="D" horiz-adv-x="1220" d="M57 1296l2 37q88 0 281 11.5t281 11.5q285 0 411.5 -136t126.5 -429q0 -299 -182 -521t-479 -301l-64 17q-48 12 -123 24.5t-114 12.5q-41 0 -88 -9l-13 27q44 47 58 162q36 330 36 733q0 216 -16 326q-70 11 -117 34zM492 393q0 -123 10 -225q32 -18 86 -18 q101 0 149 43q41 87 63.5 229t22.5 262q0 50 -0.5 77.5t-2 80t-5.5 84t-11.5 78t-18 75.5t-27.5 62.5t-38 52t-50.5 31t-65.5 12.5q-46 0 -76 -12q-36 -369 -36 -832z" />
<glyph unicode="E" horiz-adv-x="960" d="M43 332q0 157 118 261t288 124v8q-127 17 -215.5 80.5t-88.5 169.5q102 134 235 241.5t271 147.5q186 0 312 -74q-89 -134 -119 -289h-19q-75 77 -138.5 118.5t-141.5 41.5q-30 0 -60 -6q-12 -30 -12 -82q0 -158 62.5 -229t216.5 -84l-13 -78q-166 0 -259 -78t-93 -235 q0 -102 49 -160.5t144 -58.5q83 0 125 32q18 50 18 109q0 50 -33 92l4 16q111 39 174 105q62 -11 62 -94q0 -73 -36 -145.5t-95 -129.5t-131 -100.5t-146 -65.5q-206 0 -342.5 100.5t-136.5 262.5z" />
<glyph unicode="F" horiz-adv-x="985" d="M63 1313l9 41q180 -21 501 -21q251 0 428 31l13 -23q-46 -52 -69 -142t-27 -181h-35q-20 62 -33 156q-94 43 -217 43q-33 0 -90 -11q-26 -183 -41 -422q39 -8 112 -8q123 0 226 35l10 -12q-14 -40 -31 -172q-143 20 -258 20q-42 0 -65 -4q-7 -161 -7 -264 q0 -80 9.5 -202.5t21.5 -176.5q-266 -7 -383 -31l-12 11q29 122 50.5 409.5t21.5 546.5q0 192 -11 324q-81 26 -123 53z" />
<glyph unicode="G" horiz-adv-x="1114" d="M61 479q0 557 572 885q41 -15 118.5 -23t137.5 -8q79 0 121 13l14 -29q-55 -73 -87 -210.5t-32 -246.5h-35q-22 56 -39 156l-43 33q-157 118 -272 118q-52 -119 -82.5 -291.5t-30.5 -314.5q0 -78 10.5 -145.5t34.5 -131.5t72 -101.5t115 -37.5q23 10 61 48l4 178 q0 69 -12 137q-61 15 -145 53l4 43q68 -9 139.5 -10.5t154 15t148.5 48.5l21 -14q-25 -57 -31 -119q-36 -290 -39 -624q-99 -115 -269 -212.5t-306 -97.5q-56 0 -94 18.5t-38 61.5q119 60 175 154h16q60 -60 137 -60q49 0 72 13q54 96 61 291q-68 -58 -141 -99 q-228 0 -360 139t-132 371z" />
<glyph unicode="H" horiz-adv-x="1343" d="M63 1296l3 37q119 0 176.5 1t141 7t167.5 19l12 -10q-40 -170 -61 -541q91 -21 184 -21q95 0 178 19q4 102 4 145q0 91 -6.5 209.5t-17.5 167.5q268 7 383 31l12 -10q-33 -147 -52.5 -434.5t-19.5 -522.5q0 -97 6 -219t17 -174q-256 -7 -383 -31l-12 11q24 106 41.5 290 t23.5 375q-85 14 -176 14q-103 0 -188 -14q-13 -123 -13 -266q0 -80 9.5 -202.5t21.5 -176.5q-266 -7 -383 -31l-12 11q29 122 50 409t21 547q0 206 -10 326q-70 11 -117 34z" />
<glyph unicode="I" horiz-adv-x="669" d="M63 1296l3 37q119 0 176.5 1t141 7t167.5 19l12 -10q-30 -126 -55 -423t-25 -548q0 -80 9.5 -202.5t21.5 -176.5q-266 -7 -383 -31l-12 11q29 122 50 409t21 547q0 206 -10 326q-70 11 -117 34z" />
<glyph unicode="J" horiz-adv-x="665" d="M-92 -379q71 67 120 146.5t76.5 171.5t40 177.5t19.5 198.5q22 354 22 621q0 206 -10 326q-70 11 -117 34l2 37q119 0 177 1t141.5 7t167.5 19l12 -10q-34 -151 -57 -442.5t-23 -514.5q0 -209 41 -366q-105 -128 -263.5 -244.5t-324.5 -194.5z" />
<glyph unicode="K" horiz-adv-x="1189" d="M63 1296l3 37q119 0 176.5 1t141 7t167.5 19l12 -10q-50 -207 -74 -664l129 150q156 178 156 426q0 11 -4 61l14 10q229 0 390 19q-53 -153 -158.5 -302.5t-233.5 -261.5q121 -271 209 -434q136 -248 213 -354q-212 -3 -397 -31l-14 4q-28 129 -88 307.5t-148 344.5 l-72 -54q-2 -66 -2 -192q0 -80 9.5 -202.5t21.5 -176.5q-266 -7 -383 -31l-12 11q29 122 50 409t21 547q0 206 -10 326q-70 11 -117 34z" />
<glyph unicode="L" horiz-adv-x="874" d="M63 1296l3 37q119 0 176.5 1t141 7t167.5 19l12 -10q-30 -127 -55 -414.5t-25 -536.5q0 -142 17 -264q54 -8 123 -8q151 0 256 39l10 -12q-28 -91 -35 -181q-159 27 -319 27q-252 0 -404 -31l-12 11q29 122 50 409t21 547q0 206 -10 326q-70 11 -117 34z" />
<glyph unicode="M" horiz-adv-x="1517" d="M2 -18q67 201 158.5 634.5t109.5 645.5q-66 11 -114 34l2 37q120 0 179 1t144.5 7t169.5 19l11 -10q-13 -47 -13 -93q0 -51 20.5 -190.5t49.5 -273.5l43 -201l14 4q-9 75 15 166l133 459q12 41 12 69q0 23 -6 35l6 14q41 -6 166 -6q49 0 141.5 9t130.5 20l15 -10 q-46 -242 -46 -789q0 -169 12.5 -330t30.5 -233q-307 -17 -370 -31l-15 11q22 115 35 304.5t13 379.5q0 166 -23 366h-8q-81 -248 -121 -407t-47.5 -224t-7.5 -149q-18 -6 -83.5 -22.5t-119.5 -33t-78 -32.5l-24 16q4 46 4 68q0 227 -144 772v-2l-8 -2q-90 -539 -94 -1014 q-175 -5 -281 -29z" />
<glyph unicode="N" horiz-adv-x="1308" d="M53 1296l2 37q125 0 191 1t165 7t181 19q35 -184 128.5 -444.5t188.5 -426.5l70 -122l6 2q0 361 -18 622t-35 342q169 9 254 31l12 -10q-30 -125 -52 -398.5t-22 -533.5q0 -236 31 -422q-13 -1 -103.5 -5.5t-174.5 -10.5t-103 -11l-14 7q-49 169 -140 403.5t-190 450.5 q-53 113 -88 159l-8 -4q0 -362 18 -636t35 -353q-166 -9 -254 -31l-12 11q29 121 49 406.5t20 547.5q0 184 -20 328q-70 11 -117 34z" />
<glyph unicode="O" d="M61 487q0 284 168 530t435 347q479 0 479 -518q0 -181 -77 -361.5t-215.5 -319.5t-307.5 -196q-228 0 -355 141t-127 377zM403 522q0 -74 10.5 -140t32 -121.5t58.5 -88.5t86 -33q58 0 100 23q55 111 83 300t28 349q0 381 -187 381q-60 0 -102 -23q-53 -135 -81 -311 t-28 -336z" />
<glyph unicode="P" horiz-adv-x="1101" d="M63 1296l3 37q92 0 299 11.5t299 11.5q78 0 140 -7.5t119 -28t95 -54t60 -87.5t22 -126q0 -85 -31 -156t-85 -120.5t-126.5 -84t-154.5 -51t-171 -16.5l7 75q108 0 161.5 71.5t53.5 219.5q0 246 -140 246q-46 0 -90 -12q-41 -284 -41 -846q0 -80 9.5 -202.5t21.5 -176.5 q-266 -7 -383 -31l-12 11q29 122 50 409t21 547q0 206 -10 326q-70 11 -117 34z" />
<glyph unicode="Q" d="M61 487q0 284 168 530t435 347q479 0 479 -518q0 -169 -67 -337.5t-188.5 -304.5t-273.5 -206q52 -17 128.5 -62.5t138.5 -88t137.5 -76t134.5 -33.5q41 0 61.5 48.5t20.5 104.5l8 15q49 3 109.5 20.5t105.5 40.5q25 -18 25 -45q0 -63 -80.5 -130t-191.5 -114t-224 -77.5 t-182 -30.5q-63 58 -107.5 95t-111 84t-131.5 71t-127 24q-96 0 -158 -49l-37 37q51 53 131 95.5t152 54.5q-170 36 -262.5 170.5t-92.5 334.5zM403 522q0 -74 10.5 -140t32 -121.5t58.5 -88.5t86 -33q58 0 100 23q55 111 83 300t28 349q0 381 -187 381q-60 0 -102 -23 q-53 -135 -81 -311t-28 -336z" />
<glyph unicode="R" horiz-adv-x="1210" d="M63 1296l3 37q92 0 299 11.5t299 11.5q78 0 140 -7.5t119 -28t95 -54t60 -87.5t22 -126q0 -124 -69 -215.5t-187 -147.5q81 -166 174 -336q37 -68 108.5 -183t112.5 -171q-212 -3 -397 -31l-15 4q-24 108 -93.5 295.5t-158.5 356.5h-51l6 75q105 0 164.5 74.5t59.5 216.5 q0 246 -140 246q-46 0 -90 -12q-41 -284 -41 -846q0 -80 9.5 -202.5t21.5 -176.5q-266 -7 -383 -31l-12 11q29 122 50 409t21 547q0 206 -10 326q-70 11 -117 34z" />
<glyph unicode="S" horiz-adv-x="946" d="M2 236q137 119 231 305l31 -13q-12 -42 -12 -92q0 -83 63 -164.5t144 -111.5q46 40 85.5 116.5t39.5 133.5q0 46 -36.5 88.5t-90.5 73.5t-118 66t-118 66.5t-90.5 75t-36.5 90.5q0 84 60.5 189t148.5 188t170 117q111 -31 283 -31q86 0 141 17l12 -27q-56 -74 -86 -194 t-30 -226h-35q-26 65 -41 156l-62 37q-140 86 -276 86q-23 -23 -23 -74q0 -54 51.5 -103t125.5 -87.5t148 -77.5t125.5 -89t51.5 -106q0 -106 -76 -244t-177.5 -250.5t-198.5 -181.5q-111 0 -209.5 57t-159.5 154z" />
<glyph unicode="T" horiz-adv-x="1081" d="M29 901q0 159 100.5 281t261.5 182q12 -1 236 -20t315 -19q52 0 76 8q65 68 115 109l26 -12q-71 -133 -96 -304l-47 15q-79 22 -217 33q-22 -164 -36.5 -385t-14.5 -410q0 -81 9.5 -203.5t20.5 -175.5q-266 -7 -383 -31l-12 11q29 122 50.5 409.5t21.5 546.5 q0 134 -6 260q-163 7 -236 -66q-4 -16 -4 -32q0 -64 29 -109v-16q-37 -31 -77 -80.5t-63 -93.5q-35 0 -52 30.5t-17 71.5z" />
<glyph unicode="U" horiz-adv-x="1312" d="M63 1296l3 37q119 0 178 1t144 7t169 19l12 -10q-30 -133 -51.5 -364t-21.5 -431q0 -45 0.5 -70t1.5 -66t4 -65t8.5 -56t14 -51t20 -38.5t28 -30t37.5 -14.5q55 39 111 106t90 140q14 238 14 526t-22 393q268 7 383 31l12 -10q-33 -147 -52.5 -434.5t-19.5 -522.5 q0 -97 6 -219t17 -174q-262 -12 -356 -31l-15 11q40 154 53 276l-8 2q-57 -105 -123.5 -176t-160.5 -113q-200 4 -282.5 117t-82.5 334q0 66 15.5 258.5t15.5 257.5q0 222 -25 326q-70 11 -117 34z" />
<glyph unicode="V" horiz-adv-x="1110" d="M59 1296l2 37q119 0 177 1t141.5 7t167.5 19l12 -10q-31 -138 -53.5 -392t-26.5 -565q0 -76 2 -121q18 -31 54 -59t69 -41q154 438 154 881q0 63 -15.5 131t-48.5 98v18q176 49 279 113q74 -37 101.5 -107t27.5 -171q0 -151 -42.5 -310t-118 -308.5t-163 -281.5 t-194.5 -262l-19 -4l-69 33q-17 8 -72.5 35.5t-85.5 40.5t-79 26t-91 13q-39 0 -66 -8l-10 28q57 46 66 158q28 350 28 641q0 206 -10 326q-70 11 -117 34z" />
<glyph unicode="W" horiz-adv-x="1593" d="M59 1296l2 37q119 0 177 1t141.5 7t167.5 19l12 -10q-31 -138 -53.5 -392t-26.5 -565q0 -76 2 -121q18 -31 54 -59t69 -41q154 438 154 881q0 224 -107 262l4 28q157 -10 398 -10q154 0 331.5 26.5t274.5 80.5l18 -23q-37 -44 -125 -102q33 -62 33 -180 q0 -306 -146.5 -619.5t-379.5 -542.5l-19 -4l-69 33q-152 69 -242 166q-68 -103 -145 -195l-19 -4l-69 33q-17 8 -72.5 35.5t-85.5 40.5t-79 26t-91 13q-39 0 -66 -8l-10 28q57 46 66 158q28 350 28 641q0 206 -10 326q-70 11 -117 34zM883 434q23 -73 91.5 -162t125.5 -100 q141 401 141 881q0 115 -32.5 168t-114.5 53q-4 0 -50 -4q8 -13 12.5 -59t4.5 -76q0 -340 -178 -701z" />
<glyph unicode="X" horiz-adv-x="1077" d="M-29 1296l2 37q319 0 508 29l11 -12q104 -389 149 -521q47 93 86 219t39 205q0 41 -10 70l8 10q196 0 315 31q-2 -40 -15.5 -85t-29.5 -83t-48 -89t-53.5 -83t-64.5 -86.5t-62.5 -77.5t-66 -77.5t-57.5 -67.5q72 -181 176 -361q37 -68 108.5 -183t112.5 -171 q-258 -4 -438 -31l-14 4q-118 409 -174 564q-48 -108 -88.5 -247t-40.5 -208q0 -41 10 -70l-8 -10q-197 0 -316 -31q3 59 34 134t69 140t99.5 149t100.5 133t99 120q-62 153 -154 332q-66 118 -172 283q-67 11 -115 34z" />
<glyph unicode="Y" horiz-adv-x="1077" d="M-29 1296l2 37q319 0 508 29l11 -12q19 -210 149 -590q44 85 84.5 247t40.5 246q0 41 -10 70l8 10q196 0 315 31q-4 -74 -42 -169.5t-97 -191.5t-117.5 -177t-120.5 -156q-10 -141 -10 -373q0 -154 31 -297q-266 -7 -383 -31l-12 11q24 99 43.5 276t25.5 346 q-86 225 -153 377q-85 186 -158 283q-67 11 -115 34z" />
<glyph unicode="Z" horiz-adv-x="997" d="M-57 -2q63 75 293 453l346 567l-7 6q-13 -8 -47 -16q-12 6 -38.5 20t-39.5 20t-33 14t-37.5 11.5t-35.5 3.5q-57 0 -57 -112q0 -22 4 -54l-6 -14q-48 -12 -105 -39.5t-96 -58.5q-33 16 -33 57q0 77 90 195.5t201.5 214t189.5 133.5q50 -31 115 -48.5t125 -17.5 q123 0 191 60l32 -21q-33 -42 -149 -232.5t-213 -371.5l-242 -455l8 -6q41 17 47 19q147 -95 252 -95q58 0 58 113q0 21 -4 53l6 15q109 28 200 98q33 -16 33 -57q0 -82 -97 -206t-223 -221t-210 -116q-214 125 -340 125q-95 0 -148 -64z" />
<glyph unicode="[" horiz-adv-x="655" d="M131 -416q30 127 85.5 912t43.5 936l16 10q138 -35 404 -31l-4 -51q-104 -3 -252 -41l-115 -1620q147 -40 246 -43l-2 -51q-266 4 -408 -31z" />
<glyph unicode="\" horiz-adv-x="581" d="M14 1421q87 28 138 58h12q51 -268 110 -496l175 -616q49 -183 118 -390q-43 -46 -118 -75h-15l-280 1040q-80 291 -140 479z" />
<glyph unicode="]" horiz-adv-x="655" d="M-25 -395l5 51q103 3 251 41l115 1620q-147 40 -246 43l2 51q266 -4 408 31l14 -10q-30 -127 -85.5 -912t-43.5 -936l-16 -10q-138 35 -404 31z" />
<glyph unicode="^" horiz-adv-x="1060" d="M92 606q119 208 193 362.5t188 436.5l109 20q118 -290 195 -454t192 -365l-70 -37l-369 557l-368 -557z" />
<glyph unicode="_" horiz-adv-x="1357" d="M14 -377l82 121q327 -25 826 -25q247 0 403 13l18 -17l-81 -112h-1225z" />
<glyph unicode="`" horiz-adv-x="569" d="M-82 1327q2 32 26 105.5t44 93.5q39 6 110 2q94 -170 389 -367l-28 -49z" />
<glyph unicode="a" horiz-adv-x="1069" d="M45 326q0 228 141.5 418t364.5 290q119 0 268 -71q57 98 86 137l33 -10q-70 -185 -70 -578q0 -217 17 -334q32 41 62.5 105.5t45 107t37.5 117.5l33 -8q-15 -82 -31.5 -148t-45 -144.5t-71 -140t-96.5 -98.5q-59 0 -102 18.5t-68 48t-39.5 77.5t-19 97t-4.5 116l32 166 l-34 4q-17 -85 -34 -148t-45.5 -140.5t-71 -138t-97.5 -100.5q-135 0 -213 104t-78 253zM362 381q0 -172 35 -201q71 95 122.5 300t51.5 343q-22 29 -42.5 42.5t-51.5 13.5q-34 0 -55 -15q-60 -243 -60 -483z" />
<glyph unicode="b" horiz-adv-x="1021" d="M-8 1307v36q124 0 274 25t260 72l17 -27q-91 -146 -99 -412l-8 -317q-11 -60 -37 -164l33 -2q15 69 29 121t38.5 117t52.5 112.5t70 92.5t93 73q266 -24 266 -303q0 -248 -136 -445.5t-372 -316.5l-65 17q-156 37 -242 37q-47 0 -94 -9l-13 27q44 47 62 177.5t18 402.5 v223q0 269 -24 428q-64 12 -123 35zM436 176q59 -51 109 -51q26 0 37 8q31 95 53 260t22 275q0 123 -39 155q-72 -96 -118.5 -274t-63.5 -344v-29z" />
<glyph unicode="c" horiz-adv-x="712" d="M41 342q0 209 129.5 390.5t333.5 301.5q96 -30 158 -30q38 0 59 8l12 -31q-92 -102 -106 -352h-37q-14 48 -23 102l-28 43q-20 30 -58.5 61.5t-66.5 32.5q-24 -87 -40 -212.5t-16 -219.5q0 -45 2.5 -77t11 -73t29 -68t52.5 -38q90 87 157 260l49 -10 q-33 -142 -103 -265.5t-173 -195.5q-158 4 -250 107.5t-92 265.5z" />
<glyph unicode="d" horiz-adv-x="884" d="M-4 1116q39 95 39 213q0 67 -8 119l36 6q14 -32 41.5 -56t69.5 -48q76 -43 248 -127l436 -219q9 -25 15 -71.5t6 -76.5q0 -270 -134.5 -516t-361.5 -371q-157 14 -239.5 125t-82.5 281q0 173 92 317.5t250 251.5q-187 117 -333 154zM379 440q0 -55 1.5 -88.5t9 -86 t27 -87t50.5 -49.5q52 94 82.5 280.5t30.5 325.5q0 29 -7 76q-30 40 -104 88l-37 -47q-53 -170 -53 -412z" />
<glyph unicode="e" horiz-adv-x="778" d="M41 362q0 118 49.5 236.5t131 212t193 155t228.5 68.5l29 -14q4 -29 12.5 -118.5t17.5 -147t25 -113.5q38 -7 80 -25v-32q-105 0 -237 -17.5t-210 -40.5q-1 -49 -0.5 -94.5t6.5 -88t16 -75.5t30.5 -56.5t48.5 -31.5q62 40 121 112t88 144l47 -16q-37 -123 -126.5 -251.5 t-189.5 -199.5q-171 0 -265.5 107t-94.5 286zM362 588q57 22 107 33v288q-35 -5 -60.5 -73t-35.5 -134t-11 -114z" />
<glyph unicode="f" horiz-adv-x="614" d="M51 946q49 29 92 45q15 76 55 144.5t102 127t121.5 102t137.5 91.5l47 -22q36 -17 86.5 -29t91.5 -12l13 -31q-39 -41 -76.5 -106t-58.5 -126l-33 -2l-31 56q-23 40 -61.5 73t-73.5 37q-41 -34 -66.5 -80.5t-25.5 -95.5q0 -46 25 -74t71 -36q30 3 51.5 7t53.5 13t53 14 l12 -14q-30 -84 -37 -162q-101 18 -131 19q-23 -168 -23 -322q0 -433 33 -563q-151 -85 -227 -186.5t-94 -227.5l-45 4q-4 27 -4 78q0 32 24 326t25 405q3 257 -17 502l-84 6z" />
<glyph unicode="g" horiz-adv-x="1026" d="M-188 -377q146 191 467 352q-110 22 -171 120.5t-61 230.5q0 228 141.5 418t364.5 290q58 -12 149.5 -21t151.5 -9q94 0 135 22l21 -27q-27 -29 -84 -75q-45 -287 -45 -586q0 -122 21 -248.5t56 -222.5q-81 -57 -141.5 -129.5t-126.5 -177.5l-63 30q-105 52 -250.5 91.5 t-251.5 39.5q-87 0 -153.5 -28t-127.5 -92zM295 -66q67 0 226 -36.5t227 -36.5q63 0 88 22q-109 66 -178.5 189.5t-69.5 253.5q4 22 33 166l-35 4q-49 -242 -112 -362.5t-179 -199.5zM365 381q0 -173 34 -201q71 95 122.5 300t51.5 343q-22 29 -42.5 42.5t-51.5 13.5 q-34 0 -55 -15q-59 -239 -59 -483z" />
<glyph unicode="h" horiz-adv-x="1093" d="M74 1434l39 14q16 -16 37 -42t35 -44t39.5 -53.5t33.5 -46.5q69 88 175.5 161.5t215.5 112.5l19 -33q-124 -79 -174.5 -206t-55.5 -324l-8 -289q-11 -60 -37 -164l33 -2q88 402 297 516q119 0 175 -60t56 -181q0 -109 -37.5 -312t-37.5 -313q98 110 172 340l32 -8 q-75 -398 -274 -531q-225 0 -225 187q0 75 31.5 269t31.5 269q0 109 -20 129q-75 -85 -137 -305t-62 -352q0 -80 16 -166q-175 0 -335 -31l-13 11q41 144 41 641q0 383 -13 548.5t-50 264.5z" />
<glyph unicode="i" horiz-adv-x="612" d="M14 967v37q321 0 482 30l14 -26q-24 -52 -36 -110.5t-23 -164.5q-14 -118 -21.5 -283.5t-5.5 -271.5q32 41 62.5 105.5t45 107t37.5 117.5l33 -8q-15 -82 -31.5 -148t-45 -144.5t-71 -140t-96.5 -98.5q-130 0 -185.5 61t-55.5 195q0 52 18.5 322t3.5 385q-84 17 -125 35z M154 1321q23 42 82 92t108 76q35 -22 81 -72t77 -96q-31 -47 -91.5 -112.5t-103.5 -96.5q-39 29 -83 92.5t-70 116.5z" />
<glyph unicode="j" horiz-adv-x="583" d="M14 967v37q310 0 471 30l15 -26q-23 -50 -38.5 -191.5t-15.5 -253.5q0 -433 33 -563q-151 -85 -227 -186.5t-94 -227.5l-45 4q-4 27 -4 78q0 32 24 326t25 405q1 131 -4.5 291t-14.5 242q-84 17 -125 35zM154 1321q23 42 82 92t108 76q35 -22 81 -72t77 -96 q-31 -47 -91.5 -112.5t-103.5 -96.5q-39 29 -83 92.5t-70 116.5z" />
<glyph unicode="k" horiz-adv-x="1089" d="M-10 1307v36q124 0 274 25t260 72l17 -27q-91 -146 -99 -412l-8 -317l-37 -164l33 -2q88 402 297 516q114 0 172.5 -59.5t58.5 -173.5q0 -91 -49 -163t-135 -118q23 -111 55 -212.5t62 -119.5q96 108 164 320l32 -8q-75 -398 -274 -531q-102 0 -156 44t-71 143 q-28 170 -39 311v20q32 3 53.5 16t33 29.5t17.5 47t7 54t1 64.5q0 34 -7 72.5t-21 52.5q-75 -85 -137 -305t-62 -352q0 -75 17 -166q-180 0 -340 -31l-13 11q41 144 41 641v223q0 269 -24 428q-64 12 -123 35z" />
<glyph unicode="l" horiz-adv-x="598" d="M-2 1307v36q125 0 278 25t263 72l16 -27q-50 -80 -75 -191.5t-38 -275.5q-37 -462 -32 -768q32 41 62.5 105.5t45 107t37.5 117.5l33 -8q-15 -82 -31.5 -148t-45 -144.5t-71 -140t-96.5 -98.5q-130 0 -186 61t-56 195q0 92 21.5 358t21.5 363q0 148 -24 326 q-64 12 -123 35z" />
<glyph unicode="m" horiz-adv-x="1585" d="M20 967v37q311 0 472 30l14 -26q-49 -123 -49 -324q-11 -60 -37 -164l33 -2q88 402 297 516q110 0 157 -53t47 -168q-35 -91 -69 -293l33 -2q18 83 40.5 152t57 142t85 130.5t113.5 91.5q119 0 175.5 -60t56.5 -181q0 -109 -38 -312.5t-38 -312.5q98 110 172 340l33 -8 q-75 -397 -275 -531q-225 0 -225 187q0 75 32 269t32 269q0 108 -21 129q-73 -84 -134 -296t-64 -349v-12q0 -80 16 -166q-162 0 -322 -31l-12 11q16 58 44 289t28 425q0 108 -21 129q-75 -85 -136.5 -305t-61.5 -352q0 -80 16 -166q-176 0 -336 -31l-12 11q41 143 41 524 q0 287 -19 428q-84 17 -125 35z" />
<glyph unicode="n" horiz-adv-x="1110" d="M10 967v37q310 0 471 30l15 -26q-50 -126 -50 -324q-13 -73 -36 -164l32 -2q88 402 297 516q119 0 175.5 -60t56.5 -181q0 -109 -38 -312.5t-38 -312.5q98 110 172 340l33 -8q-75 -397 -275 -531q-225 0 -225 187q0 75 32 269t32 269q0 108 -21 129q-75 -85 -137 -305 t-62 -352q0 -75 17 -166q-176 0 -336 -31l-12 11q41 144 41 524q0 287 -19 428q-84 17 -125 35z" />
<glyph unicode="o" horiz-adv-x="907" d="M41 369q0 203 132 385.5t327 279.5q184 0 275 -103.5t91 -295.5q0 -205 -132 -389.5t-328 -276.5q-175 0 -270 108.5t-95 291.5zM356 397q0 -41 0.5 -65.5t3 -61.5t8.5 -59.5t15.5 -45.5t25.5 -33.5t37 -10.5q23 0 50 10q24 91 38.5 230.5t14.5 244.5q0 40 -0.5 61.5 t-3 60t-8.5 61t-15.5 47t-26 36t-38.5 11.5q-20 0 -49 -11q-22 -88 -37 -231.5t-15 -243.5z" />
<glyph unicode="p" horiz-adv-x="1036" d="M14 967v37q310 0 471 30l15 -26q-49 -123 -49 -324l-37 -164l32 -2q15 69 29 121t38.5 117t52.5 112.5t70 92.5t93 73q266 -24 266 -303q0 -248 -136 -445.5t-372 -316.5l-65 17q1 -20 4 -48.5t7 -54t11.5 -73t12.5 -82.5l12 -76q-214 -19 -397 -92l-19 30 q60 95 79 146.5t22 146.5l4 140q-45 -3 -84 -17l-21 23q31 59 107 149l2 137q3 137 -4.5 337.5t-18.5 279.5q-84 17 -125 35zM451 176q59 -51 108 -51q26 0 37 8q31 96 53.5 260.5t22.5 274.5q0 123 -39 155q-72 -96 -118.5 -274t-63.5 -344v-29z" />
<glyph unicode="q" horiz-adv-x="1024" d="M45 326q0 228 141.5 418t364.5 290q58 -12 149.5 -21t151.5 -9q94 0 135 22l21 -27q-27 -29 -84 -75q-1 -5 -5.5 -35.5t-6.5 -43.5t-6.5 -47t-7 -61t-6 -71t-5.5 -89.5t-4 -104t-3 -128.5t-1 -149q0 -221 18 -379q78 0 117 -4l8 -31q-153 -38 -271.5 -88.5t-242.5 -134.5 l-27 22q55 85 69.5 158.5t20.5 240.5q1 36 2 56l13 291v2l32 164l-34 4q-17 -85 -34 -148t-45.5 -140.5t-71 -138t-97.5 -100.5q-135 0 -213 104t-78 253zM362 381q0 -172 35 -201q71 95 122.5 300t51.5 343q-22 29 -42.5 42.5t-51.5 13.5q-34 0 -55 -15q-60 -243 -60 -483z " />
<glyph unicode="r" horiz-adv-x="854" d="M10 967v37q310 0 471 30l15 -26q-50 -126 -50 -324q-13 -73 -36 -164l32 -2q34 160 102.5 304t172.5 212q97 -39 182 -39l12 -30q-46 -58 -76.5 -168.5t-35.5 -202.5h-37q-14 48 -23 102q-17 28 -50 60.5t-62 50.5q-69 -99 -126 -305t-57 -336q0 -75 17 -166 q-176 0 -336 -31l-12 11q41 144 41 524q0 287 -19 428q-84 17 -125 35z" />
<glyph unicode="s" horiz-adv-x="792" d="M8 164q64 58 125 127t94 129l29 -17q-8 -27 -8 -59q0 -61 43.5 -129t99.5 -98q42 37 72.5 90t30.5 100q0 25 -42.5 57t-103.5 65.5t-122 70t-103.5 83t-42.5 91.5q0 51 45.5 109.5t114 106.5t136.5 85.5t124 58.5q95 -30 186 -30q58 0 84 18l21 -23q-96 -111 -136 -233 l-20 -6l-53 39q-35 27 -92.5 59t-94.5 37q-20 -13 -36.5 -37.5t-16.5 -46.5q0 -25 40 -54.5t97 -59.5t114.5 -63.5t97.5 -77.5t40 -89q0 -65 -37.5 -140t-98 -141t-123.5 -120.5t-126 -96.5q-90 7 -181.5 57.5t-137.5 112.5z" />
<glyph unicode="t" horiz-adv-x="663" d="M51 946q95 41 188 112.5t138 147.5q50 9 106 29l19 -12q-19 -111 -19 -213q66 9 144 32l12 -14q-30 -84 -37 -162q-101 18 -131 19q-10 -52 -20 -152q-37 -286 -27 -555q51 50 98.5 137t73.5 172l33 -8q-11 -74 -33.5 -147.5t-55.5 -144t-80 -128.5t-102 -90 q-130 0 -185.5 61t-55.5 195q0 74 14 274.5t14 297.5q0 38 -4 104l-84 6z" />
<glyph unicode="u" horiz-adv-x="1120" d="M14 967v37q321 0 482 30l14 -26q-52 -122 -78 -319t-26 -355q0 -29 0.5 -45t4 -44t12.5 -44.5t23 -20.5q67 88 123 308t56 350q0 75 -17 166q181 0 336 30l12 -10q-41 -144 -41 -524q0 -192 17 -322q32 41 62.5 105.5t45 107t37.5 117.5l33 -8q-15 -82 -31.5 -148 t-45 -144.5t-71 -140t-96.5 -98.5q-59 0 -102 18t-68 47.5t-39.5 77.5t-19 96.5t-4.5 115.5q6 36 17.5 92t15.5 76l-35 4q-16 -71 -29 -122.5t-37.5 -119t-52 -116.5t-69.5 -95t-93 -74q-120 0 -186 78t-66 205q0 79 27.5 319.5t13.5 360.5q-84 17 -125 35z" />
<glyph unicode="v" horiz-adv-x="978" d="M20 967v37q329 0 490 30l14 -26q-17 -43 -27.5 -79t-21 -124.5t-10.5 -204.5q0 -243 8 -358q45 -88 70 -105q46 127 71 284t25 300q0 33 -1 57.5t-6 59.5t-13.5 59t-26 44.5t-41.5 27.5l6 35q112 0 235 20t205 61l25 -32q-28 -37 -102 -80q20 -67 20 -146 q0 -251 -137 -492.5t-332 -365.5l-31 17q-104 53 -164.5 70.5t-132.5 17.5q-21 0 -45 -4l-8 26q42 38 60 122t18 265q0 278 -23 449q-84 17 -125 35z" />
<glyph unicode="w" horiz-adv-x="1372" d="M20 967v37q329 0 490 30l14 -26q-17 -43 -27.5 -79t-21 -124.5t-10.5 -204.5q0 -243 8 -358q45 -88 70 -105q46 127 71 284t25 300q0 229 -86 256l6 35q145 -8 391 -8q112 0 235.5 20t205.5 61l24 -32q-28 -37 -102 -80q20 -67 20 -146q0 -251 -137 -492.5t-332 -365.5 l-30 17q-124 67 -195 149q-75 -93 -168 -166l-31 17q-104 53 -164.5 70.5t-132.5 17.5q-21 0 -45 -4l-8 26q42 38 60 122t18 265q0 278 -23 449q-84 17 -125 35zM774 365q15 -54 58 -124t83 -104q51 141 84 297t33 287q0 44 -2.5 74.5t-10.5 70t-28 61t-51 21.5t-61 -10 q12 -55 12 -111q0 -99 -34.5 -235.5t-82.5 -226.5z" />
<glyph unicode="x" horiz-adv-x="958" d="M-72 23q50 55 75.5 160t31.5 208h37q11 -39 22 -102l15 -17q41 -46 77 -59q31 56 49.5 150t18.5 196q0 24 -10 57q-43 141 -71 217.5t-50 98.5q-84 17 -125 35v37q328 0 489 30l15 -26q-18 -46 -9.5 -141t37.5 -193l27 -90h6q7 84 26.5 166t63 163.5t103.5 120.5 q52 -30 116 -30q39 0 60 8l12 -31q-50 -55 -75 -159.5t-31 -209.5h-37q-13 47 -23 103l-14 16q-42 47 -78 60q-36 -60 -57 -163.5t-21 -185.5q0 -10 4 -22q67 -209 109 -232q122 113 188 281l35 -10q-49 -162 -123 -284t-192 -206q-58 0 -100.5 15.5t-68.5 35.5t-49 67.5 t-34 81t-31 105.5l-39 144h-6q-16 -332 -184 -449q-54 31 -117 31q-38 0 -59 -8z" />
<glyph unicode="y" horiz-adv-x="1048" d="M-141 -377q76 100 200.5 190.5t259.5 157.5q-105 10 -162 86.5t-57 194.5q0 79 27.5 319.5t13.5 360.5q-84 17 -125 35v37q321 0 482 30l14 -26q-52 -122 -78 -319t-26 -355q0 -142 41 -154q67 88 122.5 307.5t55.5 350.5q0 75 -17 166q181 0 336 30l12 -10 q-40 -140 -40 -524q0 -188 18 -337t70 -296q-81 -57 -142.5 -130t-126.5 -177l-63 30q-105 52 -250.5 91.5t-251.5 39.5q-87 0 -153.5 -28t-127.5 -92zM342 -66q68 0 227 -36.5t226 -36.5q63 0 88 22q-109 66 -178.5 190t-69.5 251q6 36 17.5 92t15.5 76l-35 4 q-44 -219 -114.5 -350.5t-176.5 -211.5z" />
<glyph unicode="z" horiz-adv-x="811" d="M-29 -20q25 141 137 275t254 218q-60 37 -122 37q-32 0 -56 -8l-16 43q81 38 141 84.5t119 115.5q-127 31 -217 31q-41 0 -61 -10q-27 -62 -68 -111l-33 15q39 106 39 213q0 33 -7 85t-18 76l23 25q34 -23 94 -37.5t140.5 -20t124.5 -6.5t114 -1q113 0 186 8l11 -33 q-48 -78 -140 -165t-188 -157v-12q105 -13 174 -45q48 23 123 49l16 -33q-36 -16 -84 -49q113 -83 113 -239q0 -80 -43 -164t-116 -158t-146.5 -132t-155.5 -110q-93 19 -180 70.5t-139 120.5zM238 131q0 -64 41 -131t98 -88q38 43 58 130.5t20 162.5q0 151 -54 227 q-68 -56 -115.5 -144.5t-47.5 -156.5z" />
<glyph unicode="{" horiz-adv-x="614" d="M96 522q61 13 107 40.5t49 70.5q7 99 -9 267.5t-10 264.5q5 60 61.5 123t128 106.5t136.5 61.5l14 -37q-55 -28 -106.5 -84.5t-73.5 -113.5q-7 -98 21.5 -282.5t23.5 -264.5q-35 -66 -202 -162v-8q153 -94 178 -162q-6 -81 -61.5 -264.5t-61.5 -280.5q13 -57 57.5 -113.5 t95.5 -84.5l-18 -39q-62 19 -127.5 61.5t-113.5 105.5t-44 123q7 98 47.5 266.5t47.5 266.5q3 40 -38 65.5t-96 34.5z" />
<glyph unicode="|" horiz-adv-x="534" d="M188 1473q86 33 144 73l14 -2q-6 -591 -6 -1943q-54 -30 -113 -47l-20 8q0 982 -4 1327.5t-15 583.5z" />
<glyph unicode="}" horiz-adv-x="602" d="M41 -403q55 28 106.5 84.5t73.5 113.5q7 98 -21.5 282.5t-23.5 264.5q34 65 203 162v8q-153 94 -178 162q6 81 61.5 264.5t61.5 280.5q-13 56 -57.5 113t-96.5 85l18 39q62 -19 127.5 -62t113.5 -106t44 -123q-7 -97 -47 -265.5t-47 -266.5q-3 -40 38 -66t95 -35l6 -38 q-61 -13 -107 -40.5t-49 -70.5q-7 -99 9 -268t10 -265q-5 -60 -61.5 -123t-128 -106t-136.5 -61z" />
<glyph unicode="~" horiz-adv-x="1482" d="M43 406q78 120 223 230t269 124q136 -91 258 -142t247 -51q101 0 184 45t169 129l47 -39q-70 -111 -205 -215t-258 -139q-61 0 -143 28t-150.5 62t-151 62t-143.5 28q-174 0 -299 -161z" />
<glyph unicode="&#xa1;" horiz-adv-x="530" d="M-43 -303q203 443 283 809l94 10l-33 -899q-52 -24 -128.5 -44t-119.5 -17q-50 47 -96 141zM123 858q23 42 85 95t114 81q38 -24 86 -76t79 -100q-30 -49 -93 -118.5t-109 -102.5q-42 31 -89.5 98.5t-72.5 122.5z" />
<glyph unicode="&#xa2;" horiz-adv-x="727" d="M41 358q0 200 119.5 369.5t314.5 290.5l10 186q34 4 62 13l8 -7q-9 -62 -18 -186q75 -20 139 -20q38 0 59 8l13 -31q-50 -56 -76 -151t-31 -193h-37q-11 40 -22 102l-29 43q-13 16 -35 35l-39 -602q85 85 152 254l49 -10q-61 -262 -215 -412l-10 -233l-11 -2 q-39 13 -59 30l21 158l-3 -2q-169 5 -265.5 99.5t-96.5 260.5zM358 453q0 -170 64 -224l43 623q-21 12 -51 16q-25 -89 -40.5 -205.5t-15.5 -209.5z" />
<glyph unicode="&#xa3;" horiz-adv-x="823" d="M14 498l33 94h86q34 143 163 282.5t277 227.5q89 -31 213 -31q47 0 68 8l12 -30q-67 -59 -104.5 -154.5t-42.5 -198.5h-37q-13 47 -23 103l-28 43q-24 33 -68 63t-80 31q-24 -57 -43.5 -159t-19.5 -165v-12q68 3 256 21l16 -11l-35 -84l-243 -16q-9 -69 -42.5 -137 t-82.5 -115q85 -16 217 -16q73 0 119 20q4 7 18.5 34t20.5 37t18.5 29t24.5 33l32 -16q-47 -117 -47 -250q0 -101 29 -143l-19 -29q-96 26 -222 42.5t-238 16.5q-131 0 -193 -43l-20 21q49 49 77.5 128.5t28.5 153.5q0 38 -6 108.5t-6 107.5l-92 -5z" />
<glyph unicode="&#xa4;" horiz-adv-x="1161" d="M10 233q20 15 193 154q-51 73 -51 184q0 169 116 301q-181 173 -192 183q13 45 82 114h12l197 -211q126 87 270 113q153 0 250 -63l164 159q82 -29 131 -39l4 -10l-223 -194q49 -76 49 -193q0 -183 -140 -323l-6 -5q229 -206 258 -231l-4 -8q-41 -6 -137 -39l-207 203 q-101 -66 -221 -90q-166 0 -270 65l-211 -180h-13q-16 18 -32 52t-19 58zM332 659q0 -135 65.5 -210.5t194.5 -75.5q43 0 93 12t79 33q34 44 52 108.5t18 122.5q0 138 -65.5 212.5t-197.5 74.5q-43 0 -93 -12t-79 -33q-33 -44 -50 -109t-17 -123z" />
<glyph unicode="&#xa5;" horiz-adv-x="1067" d="M-14 1030l2 37q165 0 270.5 5t226.5 24l11 -13q4 -35 10 -72t12 -65.5t17 -67.5t17 -60.5t20.5 -63t20 -57t22 -60t20.5 -55.5q47 91 82 208t35 197q0 38 -11 70l9 10q184 0 303 31q-2 -43 -15 -88.5t-39.5 -95t-49 -87.5t-65 -93.5t-65 -84t-72.5 -87.5t-65 -77 q0 -2 -1 -6t-1 -6q156 5 199 10l6 -8q-25 -32 -35 -65l-176 -7q0 -5 -1 -25.5t-1 -41.5q154 5 198 10l7 -8q-25 -32 -35 -66l-170 -6q0 -125 30 -266q-233 -6 -354 -31l-12 11q35 147 51 278q-134 -4 -213 -14l-6 8q7 7 21.5 20.5t24.5 24t19 22.5l164 7l4 69 q-137 -5 -219 -14l-6 8q7 7 21.5 20.5t25 24.5t19.5 23l151 6q-42 93 -135 287q-77 162 -158 245q-62 10 -114 35z" />
<glyph unicode="&#xa6;" horiz-adv-x="534" d="M188 373q98 42 144 76l14 -3q-6 -591 -6 -843q-54 -30 -113 -47l-20 8q-1 263 -3.5 389.5t-7.5 225.5t-8 194zM188 1487q83 32 144 74l14 -2q-6 -591 -6 -852q-57 -32 -113 -48l-20 9q-1 263 -3.5 391.5t-7.5 231.5t-8 196z" />
<glyph unicode="&#xa7;" horiz-adv-x="872" d="M20 496q0 160 226 335q-107 93 -107 173q0 51 45.5 109.5t114 106.5t136.5 85.5t124 58.5q98 -31 186 -31q57 0 84 19l21 -23q-94 -109 -135 -233l-21 -6l-53 38q-36 28 -92.5 60t-93.5 37q-25 -14 -39.5 -44t-14.5 -61q0 -42 46.5 -89t113 -91t132.5 -90.5t112.5 -103 t46.5 -113.5q0 -157 -225 -338q106 -89 106 -170q0 -51 -45.5 -109.5t-114 -107t-136.5 -86t-124 -58.5q-98 31 -186 31q-58 0 -84 -18l-20 22q94 108 135 234l20 6l53 -39q35 -27 92.5 -59t94.5 -37q25 14 39 43.5t14 60.5q0 36 -33.5 75.5t-83.5 74t-108.5 75.5 t-108.5 79.5t-83.5 87t-33.5 96.5zM258 635q0 -25 14 -51t33.5 -47.5t53.5 -48.5t61.5 -46t71.5 -48.5t69 -47.5q53 62 53 148q0 29 -16.5 58t-53 60.5t-66.5 53.5t-85.5 59t-81.5 55q-53 -62 -53 -145z" />
<glyph unicode="&#xa8;" horiz-adv-x="829" d="M29 1335q23 42 82 92t108 76q35 -22 81 -72t77 -96q-31 -47 -91.5 -112.5t-103.5 -96.5q-39 29 -83 92.5t-70 116.5zM481 1335q23 41 82.5 91.5t108.5 76.5q35 -22 80.5 -71.5t76.5 -96.5q-32 -48 -91.5 -113t-102.5 -96q-39 29 -83.5 92.5t-70.5 116.5z" />
<glyph unicode="&#xa9;" horiz-adv-x="1517" d="M61 639q0 137 55.5 268.5t150 232.5t230 162.5t285.5 61.5q139 0 264 -53.5t215 -143.5t142.5 -215.5t52.5 -263.5q0 -137 -57 -268.5t-153 -230.5t-231 -159.5t-282 -60.5q-139 0 -263.5 52.5t-214 142t-142 213.5t-52.5 262zM170 643q0 -155 74.5 -286t204.5 -207 t286 -76q122 0 235.5 49t196 131.5t132 196t49.5 237.5q0 155 -76 286.5t-207 208.5t-287 77q-117 0 -228.5 -48.5t-195 -130.5t-134 -197t-50.5 -241zM422 555q0 151 99 308t231 235q103 -29 200 -29q41 0 74 8l10 -16q-67 -74 -67 -268h-37q-22 54 -31 100l-22 22 q-25 24 -70 43.5t-74 18.5q-35 -80 -56.5 -181t-21.5 -190q0 -248 144 -248q34 28 44.5 70t10.5 104q0 7 -4 31l6 6q28 2 94 14t90 21q-23 -110 -105.5 -208.5t-188.5 -151.5q-153 0 -239.5 81t-86.5 230z" />
<glyph unicode="&#xaa;" horiz-adv-x="899" d="M78 813q0 182 112.5 333.5t288.5 229.5q93 0 213 -55q48 80 70 109l26 -9q-55 -143 -55 -458q0 -175 12 -269q25 33 49.5 86.5t35 85t30.5 95.5l27 -7q-59 -330 -195 -424q-47 0 -81 14.5t-54 38t-31 61.5t-14.5 76.5t-3.5 92.5q2 9 11 59t13 74l-26 4 q-13 -68 -26.5 -119t-36.5 -112t-57 -109.5t-79 -79.5q-106 0 -167.5 82.5t-61.5 200.5zM334 862q0 -136 26 -153q54 74 93 230t39 263q-31 39 -70 39q-30 0 -45 -10q-43 -191 -43 -369z" />
<glyph unicode="&#xab;" horiz-adv-x="993" d="M70 547l4 51q261 134 501 385l48 -33l-287 -366l194 -406l-57 -35q-97 131 -193 230.5t-210 173.5zM461 547l4 51q136 69 245 150.5t216 193.5l53 -39l-252 -319l174 -365l-63 -37q-91 123 -175 206t-202 159z" />
<glyph unicode="&#xac;" horiz-adv-x="1179" d="M111 481l18 135q346 -18 702 -18q136 0 216 6l12 -12q0 -140 10 -412l-10 -12l-137 18v281h-795z" />
<glyph unicode="&#xad;" horiz-adv-x="614" d="M49 475l12 135h95q212 0 393 21l16 -10l-12 -127l-485 -31z" />
<glyph unicode="&#xae;" horiz-adv-x="888" d="M43 1008q0 173 121.5 295t294.5 122q163 0 275 -112t112 -275q0 -171 -122.5 -293t-293.5 -122q-164 0 -275.5 111.5t-111.5 273.5zM129 1024q0 -134 85 -226.5t218 -92.5q132 0 228 93.5t96 225.5q0 134 -83 224.5t-216 90.5t-230.5 -92t-97.5 -223zM256 1217l4 22 q40 0 115 3t98 3q69 0 102 -20.5t33 -71.5q0 -43 -23 -75t-63 -42l51 -92q25 -46 70 -110q-63 3 -133 -11l-4 2q-31 127 -68 203h-18l4 37q68 0 68 78q0 61 -41 61q-22 0 -35 -8q-13 -110 -13 -242q0 -91 7 -120q-76 0 -125 -9l-4 4q20 94 20 285q0 59 -6 88q-18 4 -39 15z " />
<glyph unicode="&#xaf;" horiz-adv-x="739" d="M0 1255l57 175l76 -9q110 -10 320 -10q114 0 264 10l22 -18l-57 -154l-662 -8z" />
<glyph unicode="&#xb0;" horiz-adv-x="745" d="M92 1042q0 126 85 214t216 110q119 0 192.5 -62t73.5 -174q0 -122 -77.5 -207t-204.5 -112q-122 0 -203.5 60t-81.5 171zM233 1102q0 -85 40.5 -133.5t121.5 -48.5q67 0 97 24q26 57 26 131q0 86 -40 134t-122 48q-66 0 -96 -24q-27 -59 -27 -131z" />
<glyph unicode="&#xb1;" horiz-adv-x="1179" d="M109 -6l18 125q366 -19 723 -19q114 0 194 6l13 -12l-19 -114h-913zM125 551l18 145q251 -12 375 -14v313l146 19l10 -13q-10 -182 -10 -319v-2q76 -2 223 -2q95 0 174 6l12 -12l-18 -135h-391q0 -157 18 -353l-143 -8l-21 4v357h-377z" />
<glyph unicode="&#xb2;" horiz-adv-x="802" d="M29 721q22 50 70 105t98.5 102t98.5 95t79 101t31 103q0 110 -95 110q-41 0 -78 -12q-12 -42 -12 -59q0 -18 6 -34t15 -20v-12q-34 -11 -80.5 -37.5t-67.5 -48.5q-8 0 -13 2t-7.5 3.5t-4 7.5t-1.5 8v11.5v12.5q0 88 114 217.5t217 155.5q161 0 234.5 -63t73.5 -216 q-43 -54 -104 -104t-134 -101.5t-111 -84.5q58 -17 134 -17q62 0 112 15q38 58 82 108l23 -12q-39 -99 -39 -213q0 -28 7.5 -70.5t18.5 -58.5l-14 -21q-96 18 -246.5 32.5t-234.5 14.5q-93 0 -140 -39z" />
<glyph unicode="&#xb3;" horiz-adv-x="739" d="M29 825q57 38 105.5 93.5t74.5 115.5l43 -16q-16 -31 -16 -53q0 -132 102 -166q39 27 57.5 83.5t18.5 116.5q0 53 -25.5 84t-75.5 31q-29 0 -53 -8l-10 33q93 58 145 168q-74 18 -121 18q-37 0 -55 -6q-27 -59 -53 -92l-31 10q33 79 33 174q0 71 -21 109l19 20 q36 -24 98 -36t108.5 -13.5t133.5 -1.5q96 0 168 10l8 -31q-81 -132 -242 -231v-6q55 0 100.5 -8.5t85.5 -27t62.5 -54t22.5 -84.5q0 -50 -29.5 -100.5t-73.5 -89.5t-101 -74.5t-105.5 -58t-92.5 -38.5q-78 0 -159.5 35t-120.5 94z" />
<glyph unicode="&#xb4;" horiz-adv-x="569" d="M82 1161q295 197 389 367q71 4 111 -2q20 -20 43.5 -93.5t25.5 -105.5l-540 -215z" />
<glyph unicode="&#xb6;" horiz-adv-x="1177" d="M43 1018q0 89 36 154.5t100 103t143.5 55t175.5 17.5q47 0 146.5 -7t137.5 -8l9 -10q-48 -221 -80 -657l-21 -295q-7 -100 -26 -186t-56 -165t-88 -134.5t-126.5 -88.5t-168.5 -33q-30 0 -50.5 19t-20.5 49q74 54 112 123l19 2q28 -25 80 -25q63 0 110 21q63 146 72 315 l22 342q-38 -6 -69 -6q-126 0 -229.5 50t-165.5 145.5t-62 218.5zM729 -23q26 69 44.5 199.5t43.5 489.5q36 485 72 667q172 13 274 53l15 -26q-83 -61 -137 -337.5t-54 -670.5q0 -238 31 -352q-167 0 -281 -31z" />
<glyph unicode="&#xb7;" horiz-adv-x="450" d="M43 586q23 42 85 95t114 81q38 -24 86.5 -76t79.5 -100q-30 -49 -93.5 -118.5t-109.5 -102.5q-42 31 -89.5 98.5t-72.5 122.5z" />
<glyph unicode="&#xb8;" horiz-adv-x="462" d="M2 -430q38 55 78 147l10 4q54 -81 154 -81q36 0 55 8q12 17 12 53q0 30 -15 49.5t-43.5 28t-55 11.5t-64.5 3l-14 10l119 232l92 4l-78 -117l8 -8q97 0 152 -54t45 -147q-43 -67 -109 -119t-139 -75q-49 0 -107 14.5t-100 36.5z" />
<glyph unicode="&#xb9;" horiz-adv-x="634" d="M49 733q64 36 117 55q1 5 5 33t6.5 46.5t6.5 58t6.5 76t4.5 91t2 113.5q0 24 -4 60.5t-5 56.5h-122l-5 4q0 38 5 53q203 39 340 140q16 1 51 4.5t43 3.5l4 -4q0 -3 -7 -53t-9.5 -72.5t-8.5 -78.5t-8.5 -98.5t-5 -102.5t-2.5 -118q0 -121 6 -192q49 -56 92 -76l-10 -37 q-86 23 -225 23q-166 0 -269 -21z" />
<glyph unicode="&#xba;" horiz-adv-x="802" d="M78 844q0 159 103 302t255 218q144 0 215.5 -81t71.5 -232q0 -160 -103.5 -305t-257.5 -216q-136 0 -210 85.5t-74 228.5zM328 870q0 -31 0.5 -49.5t2 -46.5t6 -44.5t11.5 -34t19 -25.5t28 -8q21 0 37 8q17 68 28 173t11 181q0 30 -0.5 46.5t-2 45.5t-6 46t-12 35.5 t-20 27t-29.5 8.5q-20 0 -36 -8q-15 -68 -26 -176.5t-11 -178.5z" />
<glyph unicode="&#xbb;" horiz-adv-x="993" d="M14 223l252 320l-174 364l64 37q91 -123 174.5 -205.5t201.5 -158.5l-4 -52q-135 -69 -244 -150.5t-216 -193.5zM371 176l286 367l-194 405l57 35q96 -130 192.5 -229.5t211.5 -173.5l-4 -52q-263 -135 -502 -385z" />
<glyph unicode="&#xbc;" horiz-adv-x="1638" d="M57 571q69 39 117 56q1 5 5 33t6.5 46.5t6.5 57.5t6.5 76t4.5 91t2 113q0 25 -3.5 61.5t-4.5 55.5h-123l-4 4q0 42 4 54q205 40 340 139q16 1 51 4.5t43 3.5l4 -4q0 -4 -6.5 -53t-9.5 -72t-8.5 -78.5t-8.5 -98t-5.5 -102.5t-2.5 -118q0 -122 6 -193q49 -56 92 -76 l-10 -36q-83 22 -225 22q-170 0 -268 -20zM188 16q261 297 379 445l453 571q99 121 309 416q68 -18 135 -21l11 -8q-82 -93 -318 -389l-891 -1128h-14q-7 6 -13 12.5t-11.5 15.5t-9 14.5t-9 18t-7.5 17t-7.5 19.5t-6.5 17zM791 266q116 133 199.5 256t156.5 273 q173 7 321 57l13 -6q-50 -119 -56 -510q83 0 136 45l26 -19q-33 -95 -43 -178q-58 9 -123 9q0 -37 6 -84q35 -41 95 -68l-11 -37q-86 23 -254 23q-134 0 -237 -21l-8 35q60 30 116 45q19 54 21 107h-340zM989 350q68 -12 162 -12l12 303h-10q-63 -155 -164 -291z" />
<glyph unicode="&#xbd;" horiz-adv-x="1638" d="M57 571q69 39 117 56q1 5 5 33t6.5 46.5t6.5 57.5t6.5 76t4.5 91t2 113q0 25 -3.5 61.5t-4.5 55.5h-123l-4 4q0 42 4 54q205 40 340 139q16 1 51 4.5t43 3.5l4 -4q0 -4 -6.5 -53t-9.5 -72t-8.5 -78.5t-8.5 -98t-5.5 -102.5t-2.5 -118q0 -122 6 -193q49 -56 92 -76 l-10 -36q-83 22 -225 22q-170 0 -268 -20zM188 16q261 297 379 445l453 571q99 121 309 416q68 -18 135 -21l11 -8q-82 -93 -318 -389l-891 -1128h-14q-7 6 -13 12.5t-11.5 15.5t-9 14.5t-9 18t-7.5 17t-7.5 19.5t-6.5 17zM893 23q22 50 70 105t98.5 101.5t98.5 94.5t79 101 t31 103q0 111 -94 111q-40 0 -78 -12q-13 -46 -13 -60q0 -17 6 -33t15 -20v-12q-34 -11 -80.5 -37.5t-67.5 -48.5q-8 0 -13 2t-7.5 3.5t-4 7.5t-1.5 8v11.5v12.5q0 57 53.5 139t132.5 149.5t146 84.5q161 0 234 -63t73 -216q-43 -54 -103.5 -104t-133.5 -102t-111 -85 q55 -16 133 -16q66 0 112 14q41 62 82 109l23 -13q-39 -99 -39 -213q0 -27 8 -70t19 -59l-15 -20q-96 18 -246.5 32.5t-234.5 14.5q-92 0 -139 -39z" />
<glyph unicode="&#xbe;" horiz-adv-x="1638" d="M29 662q57 38 105.5 93t74.5 115l43 -16q-16 -31 -16 -53q0 -132 102 -166q39 27 57.5 84t18.5 117q0 53 -25.5 83.5t-75.5 30.5q-29 0 -53 -8l-10 33q93 58 145 168q-74 18 -121 18q-37 0 -55 -6q-27 -59 -53 -92l-31 10q33 79 33 174q0 71 -21 109l19 20q36 -24 98 -36 t108.5 -13.5t133.5 -1.5q96 0 168 10l8 -30q-81 -133 -242 -232v-6q55 0 100.5 -8.5t85.5 -27t62.5 -54t22.5 -84.5q0 -50 -29.5 -100.5t-73.5 -89.5t-101 -74.5t-105.5 -58t-92.5 -38.5q-78 0 -159.5 35.5t-120.5 94.5zM188 16q261 297 379 445l453 571q99 121 309 416 q68 -18 135 -21l11 -8q-82 -93 -318 -389l-891 -1128h-14q-7 6 -13 12.5t-11.5 15.5t-9 14.5t-9 18t-7.5 17t-7.5 19.5t-6.5 17zM791 266q116 133 199.5 256t156.5 273q173 7 321 57l13 -6q-50 -119 -56 -510q83 0 136 45l26 -19q-33 -95 -43 -178q-58 9 -123 9q0 -37 6 -84 q35 -41 95 -68l-11 -37q-86 23 -254 23q-134 0 -237 -21l-8 35q60 30 116 45q19 54 21 107h-340zM989 350q68 -12 162 -12l12 303h-10q-63 -155 -164 -291z" />
<glyph unicode="&#xbf;" horiz-adv-x="645" d="M-78 -135q15 19 31 37.5t36 38t35 33.5t41 34.5t38.5 30.5t44 32.5t40.5 29t44.5 31t41.5 28.5q20 60 41 178.5t27 144.5l127 21l-10 -328q-81 -63 -135 -157.5t-54 -188.5q0 -100 76 -100q35 0 60 10q18 38 18 94q0 44 -29 68l4 16q118 54 183 119q51 0 51 -62 q0 -73 -32.5 -140.5t-87 -120t-122 -92t-141.5 -62.5q-145 0 -236.5 82.5t-91.5 222.5zM238 840q25 45 88.5 108t109.5 88q36 -22 82.5 -80t83.5 -116q-30 -49 -93.5 -119t-109.5 -103q-42 31 -88.5 98.5t-72.5 123.5z" />
<glyph unicode="&#xc0;" horiz-adv-x="1153" d="M-43 -14l434 1274q-56 17 -133 57l8 39q164 -23 396 -23q226 0 364 23l12 -10q-29 -121 -49 -404t-20 -545q0 -278 22 -397q-268 -8 -383 -31l-12 11q36 160 55 456q-47 13 -116 13q-75 3 -142 -13q-43 -173 -43 -311q0 -50 15 -127q-213 0 -383 -29zM225 1642 q0 35 18 113t38 98q39 6 110 2q27 -48 71.5 -92.5t109.5 -87t106.5 -66.5t115.5 -63q10 -5 15 -8l-23 -51zM422 592q38 -14 119 -14q77 0 116 16q11 244 11 383q0 119 -9 233q-11 7 -36 7t-39 -7q-38 -56 -62 -180z" />
<glyph unicode="&#xc1;" horiz-adv-x="1153" d="M-43 -14l434 1274q-56 17 -133 57l8 39q164 -23 396 -23q226 0 364 23l12 -10q-29 -121 -49 -404t-20 -545q0 -278 22 -397q-268 -8 -383 -31l-12 11q36 160 55 456q-47 13 -116 13q-75 3 -142 -13q-43 -173 -43 -311q0 -50 15 -127q-213 0 -383 -29zM422 592 q38 -14 119 -14q77 0 116 16q11 244 11 383q0 119 -9 233q-11 7 -36 7t-39 -7q-38 -56 -62 -180zM586 1538q184 98 262 155q109 80 156 162q71 4 110 -2q19 -19 37 -97.5t18 -113.5l-561 -155z" />
<glyph unicode="&#xc2;" horiz-adv-x="1153" d="M-43 -14l434 1274q-56 17 -133 57l8 39q164 -23 396 -23q226 0 364 23l12 -10q-29 -121 -49 -404t-20 -545q0 -278 22 -397q-268 -8 -383 -31l-12 11q36 160 55 456q-47 13 -116 13q-75 3 -142 -13q-43 -173 -43 -311q0 -50 15 -127q-213 0 -383 -29zM293 1538 q302 157 397 317h94q113 -190 357 -317l-23 -51l-422 123l-381 -123zM422 592q38 -14 119 -14q77 0 116 16q11 244 11 383q0 119 -9 233q-11 7 -36 7t-39 -7q-38 -56 -62 -180z" />
<glyph unicode="&#xc3;" horiz-adv-x="1153" d="M-43 -14l434 1274q-56 17 -133 57l8 39q164 -23 396 -23q226 0 364 23l12 -10q-29 -121 -49 -404t-20 -545q0 -278 22 -397q-268 -8 -383 -31l-12 11q36 160 55 456q-47 13 -116 13q-75 3 -142 -13q-43 -173 -43 -311q0 -50 15 -127q-213 0 -383 -29zM264 1559 q55 74 153.5 142.5t198.5 100.5q66 -43 148.5 -70.5t159.5 -27.5q101 0 170 72l49 -35q-133 -181 -287 -244q-51 0 -187.5 49t-187.5 49q-98 0 -166 -71zM422 592q38 -14 119 -14q77 0 116 16q11 244 11 383q0 119 -9 233q-11 7 -36 7t-39 -7q-38 -56 -62 -180z" />
<glyph unicode="&#xc4;" horiz-adv-x="1153" d="M-43 -14l434 1274q-56 17 -133 57l8 39q164 -23 396 -23q226 0 364 23l12 -10q-29 -121 -49 -404t-20 -545q0 -278 22 -397q-268 -8 -383 -31l-12 11q36 160 55 456q-47 13 -116 13q-75 3 -142 -13q-43 -173 -43 -311q0 -50 15 -127q-213 0 -383 -29zM311 1667 q23 41 82.5 91.5t108.5 76.5q35 -22 80.5 -71.5t76.5 -96.5q-32 -48 -91.5 -113t-102.5 -96q-39 29 -83.5 92.5t-70.5 116.5zM422 592q38 -14 119 -14q77 0 116 16q11 244 11 383q0 119 -9 233q-11 7 -36 7t-39 -7q-38 -56 -62 -180zM764 1667q23 42 82 92t108 76 q35 -22 81 -72t77 -96q-32 -48 -91.5 -113t-102.5 -96q-39 29 -83.5 92.5t-70.5 116.5z" />
<glyph unicode="&#xc5;" horiz-adv-x="1153" d="M-43 -14l434 1274q-56 17 -133 57l8 39q164 -23 396 -23q226 0 364 23l12 -10q-29 -121 -49 -404t-20 -545q0 -278 22 -397q-268 -8 -383 -31l-12 11q36 160 55 456q-47 13 -116 13q-75 3 -142 -13q-43 -173 -43 -311q0 -50 15 -127q-213 0 -383 -29zM422 592 q38 -14 119 -14q77 0 116 16q11 244 11 383q0 119 -9 233q-11 7 -36 7t-39 -7q-38 -56 -62 -180zM473 1581q0 97 76.5 167.5t189.5 102.5q191 0 191 -139q0 -101 -71.5 -172.5t-180.5 -103.5q-88 0 -146.5 37t-58.5 108zM606 1632q0 -45 28.5 -72.5t74.5 -27.5q36 0 63 18 q29 51 29 109q0 45 -28.5 72.5t-74.5 27.5q-36 0 -63 -18q-29 -51 -29 -109z" />
<glyph unicode="&#xc6;" horiz-adv-x="1437" d="M-43 -14l414 1274q-56 17 -133 57l8 39q164 -23 585 -23q395 0 572 31l12 -23q-46 -52 -69 -142t-27 -181h-35q-20 62 -33 156q-94 43 -196 43q-33 0 -90 -11q-24 -166 -41 -442q39 -8 112 -8q102 0 205 35l10 -13q-13 -35 -30 -172q-150 21 -238 21q-42 0 -65 -4 q-5 -87 -5 -97q0 -45 1 -78t5.5 -75.5t12 -72.5t22 -61t34 -50.5t49 -31.5t67.5 -12q55 78 55 195q0 36 -6 63l14 11q134 3 256 22q-25 -135 -143.5 -266.5t-257.5 -200.5q-123 0 -204 26.5t-129 86t-67.5 144.5t-19.5 212q0 94 6 183q-40 6 -84 6q-59 0 -108 -6 q-66 -352 -66 -496q0 -50 15 -127q-213 0 -383 -29zM444 762q41 -6 86 -6q59 0 84 4q4 122 4 176q0 144 -6 276q-10 5 -26 5q-12 0 -27 -5q-24 -35 -57 -182z" />
<glyph unicode="&#xc7;" horiz-adv-x="954" d="M61 479q0 557 572 885q82 -31 215 -31q79 0 121 13l14 -29q-55 -73 -87 -210.5t-32 -246.5h-35q-20 52 -38 156l-43 33q-34 25 -52 38t-54 35.5t-67.5 33.5t-58.5 11q-52 -119 -82.5 -291.5t-30.5 -314.5q0 -50 4.5 -96.5t14 -95t27 -87.5t42.5 -70.5t62 -49t82 -17.5 q27 49 41 120t14 136q0 37 -6 64l14 10q126 3 256 23q-20 -101 -76 -202.5t-137 -184.5t-172 -133l-37 -56l9 -8q97 0 151.5 -54t44.5 -147q-43 -67 -109 -119t-139 -75q-49 0 -106.5 14.5t-99.5 36.5q35 51 77 147l11 4q54 -81 153 -81q37 0 56 8q12 17 12 53 q0 30 -15 49.5t-43.5 28t-55 11.5t-64.5 3l-15 10l87 169q-199 21 -312 157t-113 350z" />
<glyph unicode="&#xc8;" horiz-adv-x="960" d="M43 332q0 157 118 261t288 124v8q-127 17 -215.5 80.5t-88.5 169.5q102 134 235 241.5t271 147.5q186 0 312 -74q-89 -134 -119 -289h-19q-75 77 -138.5 118.5t-141.5 41.5q-30 0 -60 -6q-12 -30 -12 -82q0 -158 62.5 -229t216.5 -84l-13 -78q-166 0 -259 -78t-93 -235 q0 -102 49 -160.5t144 -58.5q83 0 125 32q18 50 18 109q0 50 -33 92l4 16q111 39 174 105q62 -11 62 -94q0 -73 -36 -145.5t-95 -129.5t-131 -100.5t-146 -65.5q-206 0 -342.5 100.5t-136.5 262.5zM152 1642q0 35 18 113.5t37 97.5q39 6 110 2q27 -48 71.5 -92.5t109.5 -87 t106.5 -66.5t115.5 -63q10 -5 15 -8l-22 -51z" />
<glyph unicode="&#xc9;" horiz-adv-x="960" d="M43 332q0 157 118 261t288 124v8q-127 17 -215.5 80.5t-88.5 169.5q102 134 235 241.5t271 147.5q186 0 312 -74q-89 -134 -119 -289h-19q-75 77 -138.5 118.5t-141.5 41.5q-30 0 -60 -6q-12 -30 -12 -82q0 -158 62.5 -229t216.5 -84l-13 -78q-166 0 -259 -78t-93 -235 q0 -102 49 -160.5t144 -58.5q83 0 125 32q18 50 18 109q0 50 -33 92l4 16q111 39 174 105q62 -11 62 -94q0 -73 -36 -145.5t-95 -129.5t-131 -100.5t-146 -65.5q-206 0 -342.5 100.5t-136.5 262.5zM512 1538q184 98 262 155q109 80 156 162q71 4 110 -2q20 -20 38 -98 t18 -113l-561 -155z" />
<glyph unicode="&#xca;" horiz-adv-x="960" d="M43 332q0 157 118 261t288 124v8q-127 17 -215.5 80.5t-88.5 169.5q102 134 235 241.5t271 147.5q186 0 312 -74q-89 -134 -119 -289h-19q-75 77 -138.5 118.5t-141.5 41.5q-30 0 -60 -6q-12 -30 -12 -82q0 -158 62.5 -229t216.5 -84l-13 -78q-166 0 -259 -78t-93 -235 q0 -102 49 -160.5t144 -58.5q83 0 125 32q18 50 18 109q0 50 -33 92l4 16q111 39 174 105q62 -11 62 -94q0 -73 -36 -145.5t-95 -129.5t-131 -100.5t-146 -65.5q-206 0 -342.5 100.5t-136.5 262.5zM219 1538q302 157 397 317h95q113 -191 356 -317l-23 -51l-421 123 l-381 -123z" />
<glyph unicode="&#xcb;" horiz-adv-x="960" d="M43 332q0 157 118 261t288 124v8q-127 17 -215.5 80.5t-88.5 169.5q102 134 235 241.5t271 147.5q186 0 312 -74q-89 -134 -119 -289h-19q-75 77 -138.5 118.5t-141.5 41.5q-30 0 -60 -6q-12 -30 -12 -82q0 -158 62.5 -229t216.5 -84l-13 -78q-166 0 -259 -78t-93 -235 q0 -102 49 -160.5t144 -58.5q83 0 125 32q18 50 18 109q0 50 -33 92l4 16q111 39 174 105q62 -11 62 -94q0 -73 -36 -145.5t-95 -129.5t-131 -100.5t-146 -65.5q-206 0 -342.5 100.5t-136.5 262.5zM238 1667q23 42 82 92t108 76q35 -22 81 -72t77 -96q-31 -47 -91.5 -112.5 t-103.5 -96.5q-39 29 -83 92.5t-70 116.5zM690 1667q23 41 82.5 91.5t108.5 76.5q35 -22 80.5 -71.5t76.5 -96.5q-32 -48 -91.5 -113t-102.5 -96q-39 29 -83.5 92.5t-70.5 116.5z" />
<glyph unicode="&#xcc;" horiz-adv-x="669" d="M-121 1642q0 35 18 113.5t37 97.5q40 6 111 2q27 -48 71.5 -92.5t109.5 -87t106.5 -66.5t115.5 -63q10 -5 15 -8l-23 -51zM63 1296l3 37q119 0 176.5 1t141 7t167.5 19l12 -10q-30 -126 -55 -423t-25 -548q0 -80 9.5 -202.5t21.5 -176.5q-266 -7 -383 -31l-12 11 q29 122 50 409t21 547q0 206 -10 326q-70 11 -117 34z" />
<glyph unicode="&#xcd;" horiz-adv-x="669" d="M63 1296l3 37q119 0 176.5 1t141 7t167.5 19l12 -10q-30 -126 -55 -423t-25 -548q0 -80 9.5 -202.5t21.5 -176.5q-266 -7 -383 -31l-12 11q29 122 50 409t21 547q0 206 -10 326q-70 11 -117 34zM240 1538q56 30 77 41.5t75 42t82.5 52t68.5 52.5t67.5 63t46.5 66 q71 4 111 -2q19 -19 37 -97.5t18 -113.5l-561 -155z" />
<glyph unicode="&#xce;" horiz-adv-x="669" d="M-53 1538q302 157 397 317h94q113 -190 357 -317l-23 -51l-422 123l-381 -123zM63 1296l3 37q119 0 176.5 1t141 7t167.5 19l12 -10q-30 -126 -55 -423t-25 -548q0 -80 9.5 -202.5t21.5 -176.5q-266 -7 -383 -31l-12 11q29 122 50 409t21 547q0 206 -10 326 q-70 11 -117 34z" />
<glyph unicode="&#xcf;" horiz-adv-x="669" d="M-35 1667q23 41 82.5 91.5t108.5 76.5q35 -22 80.5 -71.5t76.5 -96.5q-32 -48 -91.5 -113t-102.5 -96q-39 29 -83.5 92.5t-70.5 116.5zM63 1296l3 37q119 0 176.5 1t141 7t167.5 19l12 -10q-30 -126 -55 -423t-25 -548q0 -80 9.5 -202.5t21.5 -176.5q-266 -7 -383 -31 l-12 11q29 122 50 409t21 547q0 206 -10 326q-70 11 -117 34zM418 1667q23 42 82 92t108 76q35 -22 81 -72t77 -96q-31 -47 -91.5 -112.5t-103.5 -96.5q-39 29 -83 92.5t-70 116.5z" />
<glyph unicode="&#xd0;" horiz-adv-x="1232" d="M14 633q49 45 72 100h113q4 140 4 203q0 209 -17 326q-69 11 -116 34l2 37q88 0 280.5 11.5t280.5 11.5q285 0 411.5 -136t126.5 -429q0 -299 -182 -521t-479 -301l-64 17q-48 12 -123 24.5t-114 12.5q-41 0 -88 -9l-12 27q43 46 57 162q22 213 31 432l-166 -14zM504 393 q0 -123 10 -225q32 -18 86 -18q102 0 150 43q41 87 63.5 229t22.5 262q0 49 -0.5 77.5t-2.5 80t-5.5 84t-11 78.5t-18.5 75.5t-28 62t-38 51.5t-50.5 31.5t-65.5 12.5q-45 0 -75 -12q-20 -223 -29 -469q129 12 215 28l12 -10q-31 -51 -51 -94l-180 -16q-4 -98 -4 -271z" />
<glyph unicode="&#xd1;" horiz-adv-x="1277" d="M53 1296l2 37q125 0 191 1t165 7t181 19q35 -184 128.5 -444.5t188.5 -426.5l70 -122l6 2q0 361 -18 622t-35 342q169 9 254 31l12 -10q-30 -125 -52 -398.5t-22 -533.5q0 -236 31 -422q-13 -1 -103.5 -5.5t-174.5 -10.5t-103 -11l-14 7q-49 169 -140 403.5t-190 450.5 q-53 113 -88 159l-8 -4q0 -362 18 -636t35 -353q-166 -9 -254 -31l-12 11q29 121 49 406.5t20 547.5q0 184 -20 328q-70 11 -117 34zM283 1559q55 74 153.5 142.5t198.5 100.5q66 -43 148.5 -70.5t158.5 -27.5q101 0 170 72l49 -35q-133 -181 -287 -244q-51 0 -187 49 t-187 49q-98 0 -166 -71z" />
<glyph unicode="&#xd2;" d="M61 487q0 284 168 530t435 347q479 0 479 -518q0 -181 -77 -361.5t-215.5 -319.5t-307.5 -196q-228 0 -355 141t-127 377zM193 1642q0 35 18 113.5t37 97.5q39 6 110 2q27 -48 71.5 -92.5t109.5 -87t106.5 -66.5t115.5 -63q10 -5 15 -8l-22 -51zM403 522q0 -74 10.5 -140 t32 -121.5t58.5 -88.5t86 -33q58 0 100 23q55 111 83 300t28 349q0 381 -187 381q-60 0 -102 -23q-53 -135 -81 -311t-28 -336z" />
<glyph unicode="&#xd3;" d="M61 487q0 284 168 530t435 347q479 0 479 -518q0 -181 -77 -361.5t-215.5 -319.5t-307.5 -196q-228 0 -355 141t-127 377zM403 522q0 -74 10.5 -140t32 -121.5t58.5 -88.5t86 -33q58 0 100 23q55 111 83 300t28 349q0 381 -187 381q-60 0 -102 -23q-53 -135 -81 -311 t-28 -336zM553 1538q184 98 262 155q109 80 156 162q71 4 110 -2q20 -20 38 -98t18 -113l-562 -155z" />
<glyph unicode="&#xd4;" d="M61 487q0 284 168 530t435 347q479 0 479 -518q0 -181 -77 -361.5t-215.5 -319.5t-307.5 -196q-228 0 -355 141t-127 377zM260 1538q302 157 397 317h95q113 -191 356 -317l-23 -51l-421 123l-381 -123zM403 522q0 -74 10.5 -140t32 -121.5t58.5 -88.5t86 -33 q58 0 100 23q55 111 83 300t28 349q0 381 -187 381q-60 0 -102 -23q-53 -135 -81 -311t-28 -336z" />
<glyph unicode="&#xd5;" d="M61 487q0 284 168 530t435 347q479 0 479 -518q0 -181 -77 -361.5t-215.5 -319.5t-307.5 -196q-228 0 -355 141t-127 377zM231 1559q54 74 153 142.5t200 100.5q66 -43 148.5 -70.5t158.5 -27.5q101 0 170 72l49 -35q-133 -181 -287 -244q-51 0 -187 49t-187 49 q-98 0 -166 -71zM403 522q0 -74 10.5 -140t32 -121.5t58.5 -88.5t86 -33q58 0 100 23q55 111 83 300t28 349q0 381 -187 381q-60 0 -102 -23q-53 -135 -81 -311t-28 -336z" />
<glyph unicode="&#xd6;" d="M61 487q0 284 168 530t435 347q479 0 479 -518q0 -181 -77 -361.5t-215.5 -319.5t-307.5 -196q-228 0 -355 141t-127 377zM279 1667q23 42 82 92t108 76q35 -22 81 -72t77 -96q-31 -47 -91.5 -112.5t-103.5 -96.5q-39 29 -83 92.5t-70 116.5zM403 522q0 -74 10.5 -140 t32 -121.5t58.5 -88.5t86 -33q58 0 100 23q55 111 83 300t28 349q0 381 -187 381q-60 0 -102 -23q-53 -135 -81 -311t-28 -336zM731 1667q23 41 82.5 91.5t108.5 76.5q35 -22 80.5 -71.5t76.5 -96.5q-32 -48 -91.5 -113t-102.5 -96q-39 29 -83.5 92.5t-70.5 116.5z" />
<glyph unicode="&#xd7;" horiz-adv-x="1179" d="M158 186q14 13 137.5 119t198.5 184l-316 314l107 102l16 -2q52 -59 295 -313l283 311l16 2l106 -98l-319 -311q58 -60 115 -112t129 -112.5t96 -81.5l-86 -110l-23 2l-327 319l-320 -321h-22z" />
<glyph unicode="&#xd8;" d="M61 487q0 284 168 530t435 347q79 0 151 -16q9 28 25 83.5t20 67.5q56 4 96 19l9 -9q-27 -57 -78 -182q256 -102 256 -481q0 -181 -77 -361.5t-215.5 -319.5t-307.5 -196q-81 0 -168 25l-62 -172h-12q-56 36 -70 65l64 138q-114 61 -174 180.5t-60 281.5zM403 522 q0 -94 19 -184l311 795q-46 59 -119 59q-60 0 -102 -23q-53 -135 -81 -311t-28 -336zM463 225q47 -86 127 -86q58 0 100 23q55 111 83 300t28 349q0 129 -25 227z" />
<glyph unicode="&#xd9;" horiz-adv-x="1312" d="M63 1296l3 37q119 0 178 1t144 7t169 19l12 -10q-30 -133 -51.5 -364t-21.5 -431q0 -45 0.5 -70t1.5 -66t4 -65t8.5 -56t14 -51t20 -38.5t28 -30t37.5 -14.5q55 39 111 106t90 140q14 238 14 526t-22 393q268 7 383 31l12 -10q-33 -147 -52.5 -434.5t-19.5 -522.5 q0 -97 6 -219t17 -174q-262 -12 -356 -31l-15 11q40 154 53 276l-8 2q-57 -105 -123.5 -176t-160.5 -113q-200 4 -282.5 117t-82.5 334q0 66 15.5 258.5t15.5 257.5q0 222 -25 326q-70 11 -117 34zM211 1642q0 35 18 113.5t37 97.5q40 6 111 2q27 -48 71.5 -92.5t109.5 -87 t106.5 -66.5t115.5 -63q10 -5 15 -8l-23 -51z" />
<glyph unicode="&#xda;" horiz-adv-x="1312" d="M63 1296l3 37q119 0 178 1t144 7t169 19l12 -10q-30 -133 -51.5 -364t-21.5 -431q0 -45 0.5 -70t1.5 -66t4 -65t8.5 -56t14 -51t20 -38.5t28 -30t37.5 -14.5q55 39 111 106t90 140q14 238 14 526t-22 393q268 7 383 31l12 -10q-33 -147 -52.5 -434.5t-19.5 -522.5 q0 -97 6 -219t17 -174q-262 -12 -356 -31l-15 11q40 154 53 276l-8 2q-57 -105 -123.5 -176t-160.5 -113q-200 4 -282.5 117t-82.5 334q0 66 15.5 258.5t15.5 257.5q0 222 -25 326q-70 11 -117 34zM571 1538q184 98 262 155q109 80 156 162q71 4 111 -2q19 -19 37 -97.5 t18 -113.5l-561 -155z" />
<glyph unicode="&#xdb;" horiz-adv-x="1312" d="M63 1296l3 37q119 0 178 1t144 7t169 19l12 -10q-30 -133 -51.5 -364t-21.5 -431q0 -45 0.5 -70t1.5 -66t4 -65t8.5 -56t14 -51t20 -38.5t28 -30t37.5 -14.5q55 39 111 106t90 140q14 238 14 526t-22 393q268 7 383 31l12 -10q-33 -147 -52.5 -434.5t-19.5 -522.5 q0 -97 6 -219t17 -174q-262 -12 -356 -31l-15 11q40 154 53 276l-8 2q-57 -105 -123.5 -176t-160.5 -113q-200 4 -282.5 117t-82.5 334q0 66 15.5 258.5t15.5 257.5q0 222 -25 326q-70 11 -117 34zM279 1538q302 157 397 317h94q113 -191 356 -317l-22 -51l-422 123 l-381 -123z" />
<glyph unicode="&#xdc;" horiz-adv-x="1312" d="M63 1296l3 37q119 0 178 1t144 7t169 19l12 -10q-30 -133 -51.5 -364t-21.5 -431q0 -45 0.5 -70t1.5 -66t4 -65t8.5 -56t14 -51t20 -38.5t28 -30t37.5 -14.5q55 39 111 106t90 140q14 238 14 526t-22 393q268 7 383 31l12 -10q-33 -147 -52.5 -434.5t-19.5 -522.5 q0 -97 6 -219t17 -174q-262 -12 -356 -31l-15 11q40 154 53 276l-8 2q-57 -105 -123.5 -176t-160.5 -113q-200 4 -282.5 117t-82.5 334q0 66 15.5 258.5t15.5 257.5q0 222 -25 326q-70 11 -117 34zM297 1667q23 42 82 92t108 76q35 -22 81 -72t77 -96q-32 -48 -91.5 -113 t-102.5 -96q-39 29 -83.5 92.5t-70.5 116.5zM750 1667q23 42 82 92t108 76q35 -22 81 -72t77 -96q-31 -47 -91.5 -112.5t-103.5 -96.5q-39 29 -83 92.5t-70 116.5z" />
<glyph unicode="&#xdd;" horiz-adv-x="1077" d="M-29 1296l2 37q319 0 508 29l11 -12q19 -210 149 -590q44 85 84.5 247t40.5 246q0 41 -10 70l8 10q196 0 315 31q-4 -74 -42 -169.5t-97 -191.5t-117.5 -177t-120.5 -156q-10 -141 -10 -373q0 -154 31 -297q-266 -7 -383 -31l-12 11q24 99 43.5 276t25.5 346 q-86 225 -153 377q-85 186 -158 283q-67 11 -115 34zM530 1540q48 26 65.5 35t64.5 36t70.5 42.5t63 43.5t63 50.5t49 52t42.5 58.5q67 4 111 -3q19 -19 37 -97t18 -113l-561 -156z" />
<glyph unicode="&#xde;" horiz-adv-x="1138" d="M63 1296l3 37q119 0 176.5 1t141 7t167.5 19l12 -10q-26 -110 -43 -281q86 4 121 4q78 0 140 -7.5t119 -28t95 -54t60 -87.5t22 -126q0 -98 -44.5 -180t-120 -135.5t-174 -83t-208.5 -29.5l7 76q103 0 148.5 75t45.5 216q0 40 -3 72t-12 65.5t-23.5 56t-40.5 37t-60 14.5 q-40 0 -82 -10q-27 -310 -27 -565q0 -80 9.5 -202.5t21.5 -176.5q-266 -7 -383 -31l-12 11q29 122 50 409t21 547q0 206 -10 326q-70 11 -117 34z" />
<glyph unicode="&#xdf;" horiz-adv-x="1101" d="M51 946q49 29 92 45q42 184 151 292.5t306 172.5q64 0 114.5 -5t102 -19.5t85.5 -39t55.5 -66t21.5 -97.5q0 -61 -27.5 -118.5t-66.5 -97.5t-78 -71.5t-66.5 -52.5t-27.5 -29q0 -31 40 -69t96.5 -76t113.5 -79t97 -92t40 -102q0 -131 -117.5 -275t-251.5 -198 q-92 41 -137 41q-27 0 -47 -10l-17 27q72 122 97 252h16q30 -42 84 -86.5t98 -57.5q70 66 70 125q0 23 -22.5 49.5t-59 53.5t-80.5 56.5t-88 63.5t-80.5 69.5t-59 80t-22.5 90.5v18q88 70 144.5 180.5t56.5 217.5q0 166 -143 166q-28 0 -70 -11q-25 -107 -25 -303v-428 q0 -433 33 -563q-151 -85 -227 -186.5t-94 -227.5l-45 4q-4 27 -4 78q0 32 24 326t25 405q3 257 -17 502l-84 6z" />
<glyph unicode="&#xe0;" horiz-adv-x="1069" d="M45 326q0 228 141.5 418t364.5 290q119 0 268 -71q57 98 86 137l33 -10q-70 -185 -70 -578q0 -217 17 -334q32 41 62.5 105.5t45 107t37.5 117.5l33 -8q-15 -82 -31.5 -148t-45 -144.5t-71 -140t-96.5 -98.5q-59 0 -102 18.5t-68 48t-39.5 77.5t-19 97t-4.5 116l32 166 l-34 4q-17 -85 -34 -148t-45.5 -140.5t-71 -138t-97.5 -100.5q-135 0 -213 104t-78 253zM113 1327q2 32 25.5 105.5t43.5 93.5q40 6 111 2q94 -170 389 -367l-29 -49zM362 381q0 -172 35 -201q71 95 122.5 300t51.5 343q-22 29 -42.5 42.5t-51.5 13.5q-34 0 -55 -15 q-60 -243 -60 -483z" />
<glyph unicode="&#xe1;" horiz-adv-x="1069" d="M45 326q0 228 141.5 418t364.5 290q119 0 268 -71q57 98 86 137l33 -10q-70 -185 -70 -578q0 -217 17 -334q32 41 62.5 105.5t45 107t37.5 117.5l33 -8q-15 -82 -31.5 -148t-45 -144.5t-71 -140t-96.5 -98.5q-59 0 -102 18.5t-68 48t-39.5 77.5t-19 97t-4.5 116l32 166 l-34 4q-17 -85 -34 -148t-45.5 -140.5t-71 -138t-97.5 -100.5q-135 0 -213 104t-78 253zM362 381q0 -172 35 -201q71 95 122.5 300t51.5 343q-22 29 -42.5 42.5t-51.5 13.5q-34 0 -55 -15q-60 -243 -60 -483zM416 1161q295 197 389 367q71 4 110 -2q20 -20 44 -93.5 t26 -105.5l-541 -215z" />
<glyph unicode="&#xe2;" horiz-adv-x="1069" d="M45 326q0 228 141.5 418t364.5 290q119 0 268 -71q57 98 86 137l33 -10q-70 -185 -70 -578q0 -217 17 -334q32 41 62.5 105.5t45 107t37.5 117.5l33 -8q-15 -82 -31.5 -148t-45 -144.5t-71 -140t-96.5 -98.5q-59 0 -102 18.5t-68 48t-39.5 77.5t-19 97t-4.5 116l32 166 l-34 4q-17 -85 -34 -148t-45.5 -140.5t-71 -138t-97.5 -100.5q-135 0 -213 104t-78 253zM145 1161q292 183 410 367h90q55 -100 140.5 -180t201.5 -158l-29 -49l-409 135l-375 -164zM362 381q0 -172 35 -201q71 95 122.5 300t51.5 343q-22 29 -42.5 42.5t-51.5 13.5 q-34 0 -55 -15q-60 -243 -60 -483z" />
<glyph unicode="&#xe3;" horiz-adv-x="1069" d="M45 326q0 228 141.5 418t364.5 290q119 0 268 -71q57 98 86 137l33 -10q-70 -185 -70 -578q0 -217 17 -334q32 41 62.5 105.5t45 107t37.5 117.5l33 -8q-15 -82 -31.5 -148t-45 -144.5t-71 -140t-96.5 -98.5q-59 0 -102 18.5t-68 48t-39.5 77.5t-19 97t-4.5 116l32 166 l-34 4q-17 -85 -34 -148t-45.5 -140.5t-71 -138t-97.5 -100.5q-135 0 -213 104t-78 253zM182 1231q55 74 154 143t199 101q76 -50 135 -74.5t131 -24.5q101 0 170 72l49 -35q-133 -181 -287 -244q-51 0 -167 49.5t-167 49.5q-97 0 -166 -72zM362 381q0 -172 35 -201 q71 95 122.5 300t51.5 343q-22 29 -42.5 42.5t-51.5 13.5q-34 0 -55 -15q-60 -243 -60 -483z" />
<glyph unicode="&#xe4;" horiz-adv-x="1069" d="M45 326q0 228 141.5 418t364.5 290q119 0 268 -71q57 98 86 137l33 -10q-70 -185 -70 -578q0 -217 17 -334q32 41 62.5 105.5t45 107t37.5 117.5l33 -8q-15 -82 -31.5 -148t-45 -144.5t-71 -140t-96.5 -98.5q-59 0 -102 18.5t-68 48t-39.5 77.5t-19 97t-4.5 116l32 166 l-34 4q-17 -85 -34 -148t-45.5 -140.5t-71 -138t-97.5 -100.5q-135 0 -213 104t-78 253zM162 1335q23 42 82 92t108 76q35 -22 81 -72t77 -96q-31 -47 -91.5 -112.5t-103.5 -96.5q-39 29 -83 92.5t-70 116.5zM362 381q0 -172 35 -201q71 95 122.5 300t51.5 343 q-22 29 -42.5 42.5t-51.5 13.5q-34 0 -55 -15q-60 -243 -60 -483zM614 1335q23 41 82.5 91.5t108.5 76.5q35 -22 81 -72t77 -96q-31 -47 -91.5 -112.5t-103.5 -96.5q-39 29 -83.5 92.5t-70.5 116.5z" />
<glyph unicode="&#xe5;" horiz-adv-x="1069" d="M45 326q0 228 141.5 418t364.5 290q119 0 268 -71q57 98 86 137l33 -10q-70 -185 -70 -578q0 -217 17 -334q32 41 62.5 105.5t45 107t37.5 117.5l33 -8q-15 -82 -31.5 -148t-45 -144.5t-71 -140t-96.5 -98.5q-59 0 -102 18.5t-68 48t-39.5 77.5t-19 97t-4.5 116l32 166 l-34 4q-17 -85 -34 -148t-45.5 -140.5t-71 -138t-97.5 -100.5q-135 0 -213 104t-78 253zM328 1257q0 97 77 168t189 103q190 0 190 -139q0 -101 -72 -173t-180 -104q-88 0 -146 37t-58 108zM362 381q0 -172 35 -201q71 95 122.5 300t51.5 343q-22 29 -42.5 42.5t-51.5 13.5 q-34 0 -55 -15q-60 -243 -60 -483zM461 1307q0 -46 28 -73.5t74 -27.5q35 0 64 19q28 49 28 108q0 46 -28 73.5t-74 27.5q-35 0 -64 -19q-28 -49 -28 -108z" />
<glyph unicode="&#xe6;" horiz-adv-x="1191" d="M41 285q0 124 52 246.5t139.5 220t201 172t236.5 110.5q94 -19 166 -61q72 40 159 61l31 -10q53 -200 104 -311q32 4 84 4l7 -31q-109 -38 -230.5 -98.5t-195.5 -120.5q6 -59 16 -104t29 -86.5t50 -65t73 -27.5q99 77 165 273l48 -13q-28 -132 -96 -263.5t-158 -209.5 q-159 0 -256.5 70.5t-135.5 220.5q-45 -83 -114.5 -164t-141.5 -129q-76 13 -130 59.5t-78.5 112t-24.5 144.5zM352 258q0 -52 19 -68q80 74 145 191q0 108 37.5 233.5t99.5 204.5v2q-16 37 -40 54.5t-64 17.5q-22 0 -37 -6q-67 -152 -113.5 -320.5t-46.5 -308.5zM788 659 q0 -35 3 -112q31 27 106 76l-51 270q-58 0 -58 -234z" />
<glyph unicode="&#xe7;" horiz-adv-x="712" d="M41 342q0 209 129.5 390.5t333.5 301.5q96 -30 158 -30q38 0 59 8l12 -31q-92 -102 -106 -352h-37q-14 48 -23 102l-28 43q-20 30 -58.5 61.5t-66.5 32.5q-24 -87 -40 -212.5t-16 -219.5q0 -45 2.5 -77t11 -73t29 -68t52.5 -38q90 87 157 260l49 -10q-32 -134 -96.5 -253 t-158.5 -193l-42 -62l9 -8q97 0 151.5 -54t44.5 -147q-43 -67 -109 -119t-139 -75q-49 0 -106.5 14.5t-99.5 36.5q35 51 77 147l11 4q54 -81 153 -81q37 0 56 8q12 17 12 53q0 30 -15 49.5t-43.5 28t-55 11.5t-64.5 3l-15 10l89 173q-130 24 -203.5 123t-73.5 243z" />
<glyph unicode="&#xe8;" horiz-adv-x="778" d="M33 1327q2 32 25.5 105.5t43.5 93.5q40 6 111 2q94 -170 389 -367l-29 -49zM41 362q0 118 49.5 236.5t131 212t193 155t228.5 68.5l29 -14q4 -29 12.5 -118.5t17.5 -147t25 -113.5q38 -7 80 -25v-32q-105 0 -237 -17.5t-210 -40.5q-1 -49 -0.5 -94.5t6.5 -88t16 -75.5 t30.5 -56.5t48.5 -31.5q62 40 121 112t88 144l47 -16q-37 -123 -126.5 -251.5t-189.5 -199.5q-171 0 -265.5 107t-94.5 286zM362 588q57 22 107 33v288q-35 -5 -60.5 -73t-35.5 -134t-11 -114z" />
<glyph unicode="&#xe9;" horiz-adv-x="778" d="M41 362q0 118 49.5 236.5t131 212t193 155t228.5 68.5l29 -14q4 -29 12.5 -118.5t17.5 -147t25 -113.5q38 -7 80 -25v-32q-105 0 -237 -17.5t-210 -40.5q-1 -49 -0.5 -94.5t6.5 -88t16 -75.5t30.5 -56.5t48.5 -31.5q62 40 121 112t88 144l47 -16q-37 -123 -126.5 -251.5 t-189.5 -199.5q-171 0 -265.5 107t-94.5 286zM336 1161q295 197 389 367q71 4 111 -2q20 -20 43.5 -93.5t25.5 -105.5l-540 -215zM362 588q57 22 107 33v288q-35 -5 -60.5 -73t-35.5 -134t-11 -114z" />
<glyph unicode="&#xea;" horiz-adv-x="778" d="M41 362q0 118 49.5 236.5t131 212t193 155t228.5 68.5l29 -14q4 -29 12.5 -118.5t17.5 -147t25 -113.5q38 -7 80 -25v-32q-105 0 -237 -17.5t-210 -40.5q-1 -49 -0.5 -94.5t6.5 -88t16 -75.5t30.5 -56.5t48.5 -31.5q62 40 121 112t88 144l47 -16q-37 -123 -126.5 -251.5 t-189.5 -199.5q-171 0 -265.5 107t-94.5 286zM66 1161q291 182 409 367h90q58 -105 150.5 -201t197.5 -166l-28 -49l-416 164l-375 -164zM362 588q57 22 107 33v288q-35 -5 -60.5 -73t-35.5 -134t-11 -114z" />
<glyph unicode="&#xeb;" horiz-adv-x="778" d="M41 362q0 118 49.5 236.5t131 212t193 155t228.5 68.5l29 -14q4 -29 12.5 -118.5t17.5 -147t25 -113.5q38 -7 80 -25v-32q-105 0 -237 -17.5t-210 -40.5q-1 -49 -0.5 -94.5t6.5 -88t16 -75.5t30.5 -56.5t48.5 -31.5q62 40 121 112t88 144l47 -16q-37 -123 -126.5 -251.5 t-189.5 -199.5q-171 0 -265.5 107t-94.5 286zM82 1335q23 42 82 92t108 76q35 -22 81 -72t77 -96q-32 -48 -91.5 -113t-102.5 -96q-39 29 -83.5 92.5t-70.5 116.5zM362 588q57 22 107 33v288q-35 -5 -60.5 -73t-35.5 -134t-11 -114zM535 1335q23 42 82 92t108 76 q35 -22 81 -72t77 -96q-31 -47 -91.5 -112.5t-103.5 -96.5q-39 29 -83 92.5t-70 116.5z" />
<glyph unicode="&#xec;" horiz-adv-x="612" d="M-150 1327q2 32 26 105.5t44 93.5q40 6 111 2q94 -170 389 -367l-29 -49zM14 967v37q321 0 482 30l14 -26q-24 -52 -36 -110.5t-23 -164.5q-14 -118 -22 -283.5t-5 -271.5q32 41 62.5 105.5t45 107t37.5 117.5l33 -8q-15 -82 -31.5 -148t-45 -144.5t-71 -140t-96.5 -98.5 q-130 0 -185.5 61t-55.5 195q0 52 18.5 322t3.5 385q-84 17 -125 35z" />
<glyph unicode="&#xed;" horiz-adv-x="612" d="M14 967v37q321 0 482 30l14 -26q-24 -52 -36 -110.5t-23 -164.5q-14 -118 -22 -283.5t-5 -271.5q32 41 62.5 105.5t45 107t37.5 117.5l33 -8q-15 -82 -31.5 -148t-45 -144.5t-71 -140t-96.5 -98.5q-130 0 -185.5 61t-55.5 195q0 52 18.5 322t3.5 385q-84 17 -125 35z M154 1161q295 197 389 367q71 4 110 -2q20 -20 44 -93.5t26 -105.5l-541 -215z" />
<glyph unicode="&#xee;" horiz-adv-x="612" d="M-117 1161q292 183 410 367h90q58 -105 150.5 -201t197.5 -166l-29 -49l-415 164l-375 -164zM14 967v37q321 0 482 30l14 -26q-24 -52 -36 -110.5t-23 -164.5q-14 -118 -22 -283.5t-5 -271.5q32 41 62.5 105.5t45 107t37.5 117.5l33 -8q-15 -82 -31.5 -148t-45 -144.5 t-71 -140t-96.5 -98.5q-130 0 -185.5 61t-55.5 195q0 52 18.5 322t3.5 385q-84 17 -125 35z" />
<glyph unicode="&#xef;" horiz-adv-x="612" d="M-100 1335q23 42 82 92t108 76q35 -22 81 -72t77 -96q-31 -47 -91.5 -112.5t-103.5 -96.5q-39 29 -83 92.5t-70 116.5zM14 967v37q321 0 482 30l14 -26q-24 -52 -36 -110.5t-23 -164.5q-14 -118 -22 -283.5t-5 -271.5q32 41 62.5 105.5t45 107t37.5 117.5l33 -8 q-15 -82 -31.5 -148t-45 -144.5t-71 -140t-96.5 -98.5q-130 0 -185.5 61t-55.5 195q0 52 18.5 322t3.5 385q-84 17 -125 35zM352 1335q23 41 82.5 91.5t108.5 76.5q35 -22 80.5 -71.5t76.5 -96.5q-32 -48 -91.5 -113t-102.5 -96q-39 29 -83.5 92.5t-70.5 116.5z" />
<glyph unicode="&#xf0;" horiz-adv-x="907" d="M41 299q0 206 116 348.5t322 210.5q38 -21 61.5 -50.5t51.5 -78.5h12q-41 194 -135 348l-209 -149l-18 4q9 66 2 100q16 11 76 49t100 66q-124 168 -311 274l26 41q242 -74 420 -217l27 21q12 9 82 63.5t96 73.5l14 -4q7 -45 25 -86l-178 -127q245 -242 245 -594 q0 -221 -122 -383t-338 -240q-182 0 -273.5 94t-91.5 236zM360 334q0 -34 1 -56.5t5.5 -57.5t13 -56t25.5 -37t41 -16q33 0 58 14q61 186 61 426q-8 62 -37 124t-71 62q-39 0 -60 -16q-37 -162 -37 -387z" />
<glyph unicode="&#xf1;" horiz-adv-x="1110" d="M10 967v37q310 0 471 30l15 -26q-50 -126 -50 -324q-13 -73 -36 -164l32 -2q88 402 297 516q119 0 175.5 -60t56.5 -181q0 -109 -38 -312.5t-38 -312.5q98 110 172 340l33 -8q-75 -397 -275 -531q-225 0 -225 187q0 75 32 269t32 269q0 108 -21 129q-75 -85 -137 -305 t-62 -352q0 -75 17 -166q-176 0 -336 -31l-12 11q41 144 41 524q0 287 -19 428q-84 17 -125 35zM256 1231q55 74 153.5 143t198.5 101q76 -50 135 -74.5t131 -24.5q101 0 170 72l50 -35q-133 -181 -287 -244q-51 0 -167 49.5t-167 49.5q-97 0 -166 -72z" />
<glyph unicode="&#xf2;" horiz-adv-x="907" d="M41 369q0 203 132 385.5t327 279.5q184 0 275 -103.5t91 -295.5q0 -205 -132 -389.5t-328 -276.5q-175 0 -270 108.5t-95 291.5zM63 1327q2 32 26 105.5t44 93.5q40 6 111 2q94 -170 389 -367l-29 -49zM356 397q0 -41 0.5 -65.5t3 -61.5t8.5 -59.5t15.5 -45.5t25.5 -33.5 t37 -10.5q23 0 50 10q24 91 38.5 230.5t14.5 244.5q0 40 -0.5 61.5t-3 60t-8.5 61t-15.5 47t-26 36t-38.5 11.5q-20 0 -49 -11q-22 -88 -37 -231.5t-15 -243.5z" />
<glyph unicode="&#xf3;" horiz-adv-x="907" d="M41 369q0 203 132 385.5t327 279.5q184 0 275 -103.5t91 -295.5q0 -205 -132 -389.5t-328 -276.5q-175 0 -270 108.5t-95 291.5zM356 397q0 -41 0.5 -65.5t3 -61.5t8.5 -59.5t15.5 -45.5t25.5 -33.5t37 -10.5q23 0 50 10q24 91 38.5 230.5t14.5 244.5q0 40 -0.5 61.5 t-3 60t-8.5 61t-15.5 47t-26 36t-38.5 11.5q-20 0 -49 -11q-22 -88 -37 -231.5t-15 -243.5zM367 1161q295 197 389 367q71 4 110 -2q20 -20 44 -93.5t26 -105.5l-541 -215z" />
<glyph unicode="&#xf4;" horiz-adv-x="907" d="M41 369q0 203 132 385.5t327 279.5q184 0 275 -103.5t91 -295.5q0 -205 -132 -389.5t-328 -276.5q-175 0 -270 108.5t-95 291.5zM96 1161q292 183 410 367h90q58 -105 150.5 -201t197.5 -166l-29 -49l-415 164l-375 -164zM356 397q0 -41 0.5 -65.5t3 -61.5t8.5 -59.5 t15.5 -45.5t25.5 -33.5t37 -10.5q23 0 50 10q24 91 38.5 230.5t14.5 244.5q0 40 -0.5 61.5t-3 60t-8.5 61t-15.5 47t-26 36t-38.5 11.5q-20 0 -49 -11q-22 -88 -37 -231.5t-15 -243.5z" />
<glyph unicode="&#xf5;" horiz-adv-x="907" d="M41 369q0 203 132 385.5t327 279.5q184 0 275 -103.5t91 -295.5q0 -205 -132 -389.5t-328 -276.5q-175 0 -270 108.5t-95 291.5zM133 1231q55 74 153.5 143t198.5 101q76 -49 135.5 -74t131.5 -25q101 0 170 72l49 -35q-133 -181 -287 -244q-51 0 -167 49.5t-167 49.5 q-97 0 -166 -72zM356 397q0 -41 0.5 -65.5t3 -61.5t8.5 -59.5t15.5 -45.5t25.5 -33.5t37 -10.5q23 0 50 10q24 91 38.5 230.5t14.5 244.5q0 40 -0.5 61.5t-3 60t-8.5 61t-15.5 47t-26 36t-38.5 11.5q-20 0 -49 -11q-22 -88 -37 -231.5t-15 -243.5z" />
<glyph unicode="&#xf6;" horiz-adv-x="907" d="M41 369q0 203 132 385.5t327 279.5q184 0 275 -103.5t91 -295.5q0 -205 -132 -389.5t-328 -276.5q-175 0 -270 108.5t-95 291.5zM113 1335q23 42 82 92t108 76q35 -22 81 -72t77 -96q-31 -47 -91.5 -112.5t-103.5 -96.5q-39 29 -83 92.5t-70 116.5zM356 397 q0 -41 0.5 -65.5t3 -61.5t8.5 -59.5t15.5 -45.5t25.5 -33.5t37 -10.5q23 0 50 10q24 91 38.5 230.5t14.5 244.5q0 40 -0.5 61.5t-3 60t-8.5 61t-15.5 47t-26 36t-38.5 11.5q-20 0 -49 -11q-22 -88 -37 -231.5t-15 -243.5zM565 1335q23 41 82.5 91.5t108.5 76.5 q35 -22 80.5 -71.5t76.5 -96.5q-32 -48 -91.5 -113t-102.5 -96q-39 29 -83.5 92.5t-70.5 116.5z" />
<glyph unicode="&#xf7;" horiz-adv-x="1179" d="M117 459l18 135q366 -19 744 -19q81 0 174 7l12 -13l-18 -125h-914zM475 219q0 42 36.5 78.5t78.5 36.5q43 0 77.5 -36t34.5 -79q0 -42 -35 -79.5t-77 -37.5q-41 0 -78 38t-37 79zM475 799q0 42 36.5 78t78.5 36q43 0 77.5 -35.5t34.5 -78.5q0 -42 -35 -79.5t-77 -37.5 q-41 0 -78 38t-37 79z" />
<glyph unicode="&#xf8;" horiz-adv-x="907" d="M41 369q0 203 132 385.5t327 279.5q60 0 110 -12q23 64 45 145q46 3 80 17l8 -8q-17 -33 -73 -172q196 -81 196 -369q0 -205 -132 -389.5t-328 -276.5q-68 0 -127 19l-64 -183h-10q-47 28 -60 54l72 153q-86 47 -131 139.5t-45 217.5zM356 369l174 446q-24 68 -73 68 q-20 0 -49 -11q-22 -88 -37 -231.5t-15 -243.5v-28zM367 215q21 -94 79 -94q23 0 50 10q24 91 38.5 230.5t14.5 244.5q0 51 -2 80z" />
<glyph unicode="&#xf9;" horiz-adv-x="1120" d="M14 967v37q321 0 482 30l14 -26q-52 -122 -78 -319t-26 -355q0 -29 0.5 -45t4 -44t12.5 -44.5t23 -20.5q67 88 123 308t56 350q0 75 -17 166q181 0 336 30l12 -10q-41 -144 -41 -524q0 -192 17 -322q32 41 62.5 105.5t45 107t37.5 117.5l33 -8q-15 -82 -31.5 -148 t-45 -144.5t-71 -140t-96.5 -98.5q-59 0 -102 18t-68 47.5t-39.5 77.5t-19 96.5t-4.5 115.5q6 36 17.5 92t15.5 76l-35 4q-16 -71 -29 -122.5t-37.5 -119t-52 -116.5t-69.5 -95t-93 -74q-120 0 -186 78t-66 205q0 79 27.5 319.5t13.5 360.5q-84 17 -125 35zM121 1327 q2 32 25.5 105.5t43.5 93.5q40 6 111 2q94 -170 389 -367l-28 -49z" />
<glyph unicode="&#xfa;" horiz-adv-x="1120" d="M14 967v37q321 0 482 30l14 -26q-52 -122 -78 -319t-26 -355q0 -29 0.5 -45t4 -44t12.5 -44.5t23 -20.5q67 88 123 308t56 350q0 75 -17 166q181 0 336 30l12 -10q-41 -144 -41 -524q0 -192 17 -322q32 41 62.5 105.5t45 107t37.5 117.5l33 -8q-15 -82 -31.5 -148 t-45 -144.5t-71 -140t-96.5 -98.5q-59 0 -102 18t-68 47.5t-39.5 77.5t-19 96.5t-4.5 115.5q6 36 17.5 92t15.5 76l-35 4q-16 -71 -29 -122.5t-37.5 -119t-52 -116.5t-69.5 -95t-93 -74q-120 0 -186 78t-66 205q0 79 27.5 319.5t13.5 360.5q-84 17 -125 35zM424 1161 q295 197 389 367q71 4 111 -2q20 -20 43.5 -93.5t25.5 -105.5l-540 -215z" />
<glyph unicode="&#xfb;" horiz-adv-x="1120" d="M14 967v37q321 0 482 30l14 -26q-52 -122 -78 -319t-26 -355q0 -29 0.5 -45t4 -44t12.5 -44.5t23 -20.5q67 88 123 308t56 350q0 75 -17 166q181 0 336 30l12 -10q-41 -144 -41 -524q0 -192 17 -322q32 41 62.5 105.5t45 107t37.5 117.5l33 -8q-15 -82 -31.5 -148 t-45 -144.5t-71 -140t-96.5 -98.5q-59 0 -102 18t-68 47.5t-39.5 77.5t-19 96.5t-4.5 115.5q6 36 17.5 92t15.5 76l-35 4q-16 -71 -29 -122.5t-37.5 -119t-52 -116.5t-69.5 -95t-93 -74q-120 0 -186 78t-66 205q0 79 27.5 319.5t13.5 360.5q-84 17 -125 35zM154 1161 q291 182 409 367h90q58 -105 150.5 -201t197.5 -166l-28 -49l-416 164l-375 -164z" />
<glyph unicode="&#xfc;" horiz-adv-x="1120" d="M14 967v37q321 0 482 30l14 -26q-52 -122 -78 -319t-26 -355q0 -29 0.5 -45t4 -44t12.5 -44.5t23 -20.5q67 88 123 308t56 350q0 75 -17 166q181 0 336 30l12 -10q-41 -144 -41 -524q0 -192 17 -322q32 41 62.5 105.5t45 107t37.5 117.5l33 -8q-15 -82 -31.5 -148 t-45 -144.5t-71 -140t-96.5 -98.5q-59 0 -102 18t-68 47.5t-39.5 77.5t-19 96.5t-4.5 115.5q6 36 17.5 92t15.5 76l-35 4q-16 -71 -29 -122.5t-37.5 -119t-52 -116.5t-69.5 -95t-93 -74q-120 0 -186 78t-66 205q0 79 27.5 319.5t13.5 360.5q-84 17 -125 35zM170 1335 q23 42 82 92t108 76q35 -22 81 -72t77 -96q-32 -48 -91.5 -113t-102.5 -96q-39 29 -83.5 92.5t-70.5 116.5zM623 1335q23 42 82 92t108 76q35 -22 81 -72t77 -96q-31 -47 -91.5 -112.5t-103.5 -96.5q-39 29 -83 92.5t-70 116.5z" />
<glyph unicode="&#xfd;" horiz-adv-x="1048" d="M-141 -377q76 100 200.5 190.5t259.5 157.5q-105 10 -162 86.5t-57 194.5q0 79 27.5 319.5t13.5 360.5q-84 17 -125 35v37q321 0 482 30l14 -26q-52 -122 -78 -319t-26 -355q0 -142 41 -154q67 88 122.5 307.5t55.5 350.5q0 75 -17 166q181 0 336 30l12 -10 q-40 -140 -40 -524q0 -188 18 -337t70 -296q-81 -57 -142.5 -130t-126.5 -177l-63 30q-105 52 -250.5 91.5t-251.5 39.5q-87 0 -153.5 -28t-127.5 -92zM342 -66q68 0 227 -36.5t226 -36.5q63 0 88 22q-109 66 -178.5 190t-69.5 251q6 36 17.5 92t15.5 76l-35 4 q-44 -219 -114.5 -350.5t-176.5 -211.5zM428 1161q295 197 389 367q71 4 111 -2q20 -20 43.5 -93.5t25.5 -105.5l-540 -215z" />
<glyph unicode="&#xfe;" horiz-adv-x="1034" d="M14 1307v36q124 0 274.5 25t260.5 72l16 -27q-90 -144 -98 -412l-18 -317l-37 -164l32 -2q15 69 29 121t38.5 117t52.5 112.5t70 92.5t93 73q266 -24 266 -303q0 -248 -136 -445.5t-372 -316.5l-65 17q1 -20 4 -48.5t7 -54t11.5 -73t12.5 -82.5l12 -76q-214 -19 -397 -92 l-19 30q60 95 79 146.5t22 146.5l4 140q-45 -3 -84 -17l-21 23q31 59 107 149l4 666q0 263 -25 428q-64 12 -123 35zM449 176q59 -51 108 -51q26 0 37 8q31 96 53.5 260.5t22.5 274.5q0 123 -39 155q-72 -96 -118.5 -274t-63.5 -344v-29z" />
<glyph unicode="&#xff;" horiz-adv-x="1048" d="M-141 -377q76 100 200.5 190.5t259.5 157.5q-105 10 -162 86.5t-57 194.5q0 79 27.5 319.5t13.5 360.5q-84 17 -125 35v37q321 0 482 30l14 -26q-52 -122 -78 -319t-26 -355q0 -142 41 -154q67 88 122.5 307.5t55.5 350.5q0 75 -17 166q181 0 336 30l12 -10 q-40 -140 -40 -524q0 -188 18 -337t70 -296q-81 -57 -142.5 -130t-126.5 -177l-63 30q-105 52 -250.5 91.5t-251.5 39.5q-87 0 -153.5 -28t-127.5 -92zM174 1335q23 41 82.5 91.5t108.5 76.5q35 -22 80.5 -71.5t76.5 -96.5q-32 -48 -91.5 -113t-102.5 -96q-39 29 -83.5 92.5 t-70.5 116.5zM342 -66q68 0 227 -36.5t226 -36.5q63 0 88 22q-109 66 -178.5 190t-69.5 251q6 36 17.5 92t15.5 76l-35 4q-44 -219 -114.5 -350.5t-176.5 -211.5zM627 1335q23 42 82 92t108 76q35 -22 81 -72t77 -96q-31 -47 -91.5 -112.5t-103.5 -96.5q-39 29 -83 92.5 t-70 116.5z" />
<glyph unicode="&#x152;" horiz-adv-x="1601" d="M61 487q0 189 68 363.5t199.5 311t306.5 202.5l4 -2l-2 2q188 -31 504 -31q249 0 426 31l12 -23q-46 -52 -69 -142t-27 -181h-35q-20 62 -33 156q-94 43 -196 43q-34 0 -91 -11q-24 -166 -41 -442q39 -8 113 -8q102 0 205 35l10 -13q-14 -40 -31 -172q-151 21 -237 21 q-43 0 -66 -4q-4 -70 -4 -97q0 -45 1 -78t5.5 -75.5t12 -72.5t22 -61t34 -50.5t49 -31.5t67.5 -12q55 78 55 195q0 36 -6 63l14 11q134 3 256 22q-25 -135 -143.5 -266.5t-257.5 -200.5q-148 0 -227 39t-121 127h-13q-102 -116 -282 -166q-228 0 -355 141t-127 377zM403 522 q0 -177 57 -277t171 -100q45 0 80 15q44 61 47 219l14 512q0 157 -22 264q-51 37 -136 37q-62 0 -102 -23q-53 -135 -81 -311t-28 -336z" />
<glyph unicode="&#x153;" horiz-adv-x="1275" d="M41 369q0 203 132 385.5t327 279.5q212 0 301 -143h6q161 132 334 143l28 -14q4 -33 10.5 -95t10.5 -100t13.5 -89.5t21.5 -94.5q38 -7 80 -25v-32q-105 0 -237 -17.5t-210 -40.5q-2 -70 0.5 -119t11.5 -101t31 -84t57 -42q62 40 121 112t88 144l47 -16 q-37 -123 -126 -251.5t-189 -199.5q-193 0 -287 137h-4q-99 -90 -202 -137q-175 0 -270 108.5t-95 291.5zM356 397q0 -41 0.5 -65.5t3 -61.5t8.5 -59.5t15.5 -45.5t25.5 -33.5t37 -10.5q23 0 50 10q24 91 38.5 230.5t14.5 244.5q0 40 -0.5 61.5t-3 60t-8.5 61t-15.5 47 t-26 36t-38.5 11.5q-20 0 -49 -11q-22 -88 -37 -231.5t-15 -243.5zM860 588q57 22 107 33v288q-35 -5 -60.5 -73t-35.5 -134t-11 -114z" />
<glyph unicode="&#x2c6;" horiz-adv-x="847" d="M0 1161q292 183 410 367h90q58 -105 150.5 -201t197.5 -166l-29 -49l-416 164l-374 -164z" />
<glyph unicode="&#x2dc;" horiz-adv-x="837" d="M29 1231q55 74 153.5 143t198.5 101q76 -50 135 -74.5t131 -24.5q101 0 170 72l49 -35q-133 -182 -286 -244q-51 0 -167 49.5t-167 49.5q-97 0 -166 -72z" />
<glyph unicode="&#x2000;" horiz-adv-x="929" />
<glyph unicode="&#x2001;" horiz-adv-x="1859" />
<glyph unicode="&#x2002;" horiz-adv-x="929" />
<glyph unicode="&#x2003;" horiz-adv-x="1859" />
<glyph unicode="&#x2004;" horiz-adv-x="619" />
<glyph unicode="&#x2005;" horiz-adv-x="464" />
<glyph unicode="&#x2006;" horiz-adv-x="309" />
<glyph unicode="&#x2007;" horiz-adv-x="309" />
<glyph unicode="&#x2008;" horiz-adv-x="232" />
<glyph unicode="&#x2009;" horiz-adv-x="371" />
<glyph unicode="&#x200a;" horiz-adv-x="103" />
<glyph unicode="&#x2010;" horiz-adv-x="614" d="M49 475l12 135h95q212 0 393 21l16 -10l-12 -127l-485 -31z" />
<glyph unicode="&#x2011;" horiz-adv-x="614" d="M49 475l12 135h95q212 0 393 21l16 -10l-12 -127l-485 -31z" />
<glyph unicode="&#x2012;" horiz-adv-x="614" d="M49 475l12 135h95q212 0 393 21l16 -10l-12 -127l-485 -31z" />
<glyph unicode="&#x2013;" horiz-adv-x="980" d="M14 508l80 121q230 -25 590 -25q146 0 266 10l17 -16l-80 -111h-850z" />
<glyph unicode="&#x2014;" horiz-adv-x="1452" d="M14 508l80 121q394 -25 924 -25q265 0 403 12l17 -16l-80 -113h-1321z" />
<glyph unicode="&#x2018;" horiz-adv-x="462" d="M43 858q25 148 136.5 295.5t250.5 241.5l31 -35q-62 -66 -114 -150t-68 -159q37 -37 73.5 -93t55.5 -100q-23 -42 -85 -95t-114 -81q-38 24 -86.5 76t-79.5 100z" />
<glyph unicode="&#x2019;" horiz-adv-x="462" d="M2 717q62 66 114 150t68 159q-37 37 -73.5 93t-55.5 100q23 42 85 95t114 81q38 -24 86.5 -76t79.5 -100q-25 -148 -136.5 -295.5t-250.5 -241.5z" />
<glyph unicode="&#x201a;" horiz-adv-x="450" d="M-10 -270q151 130 182 268q-37 37 -73.5 93t-55.5 99q23 43 85.5 96t113.5 81q38 -24 86.5 -76.5t79.5 -100.5q-25 -151 -134 -285.5t-254 -209.5z" />
<glyph unicode="&#x201c;" horiz-adv-x="882" d="M43 858q25 148 136.5 295.5t250.5 241.5l31 -35q-62 -66 -114 -150t-68 -159q37 -37 73.5 -93t55.5 -100q-23 -42 -85 -95t-114 -81q-38 24 -86.5 76t-79.5 100zM463 858q25 148 136.5 295.5t250.5 241.5l31 -35q-63 -66 -115 -150t-68 -159q37 -37 73.5 -93t55.5 -100 q-23 -43 -85 -95.5t-113 -80.5q-38 24 -86.5 76t-79.5 100z" />
<glyph unicode="&#x201d;" horiz-adv-x="882" d="M2 717q62 66 114 150t68 159q-37 37 -73.5 93t-55.5 100q23 42 85 95t114 81q38 -24 86.5 -76t79.5 -100q-25 -148 -136.5 -295.5t-250.5 -241.5zM422 717q62 66 114 150t68 159q-37 37 -73.5 93t-55.5 100q23 42 85 95t114 81q38 -24 86.5 -76t79.5 -100 q-25 -148 -136.5 -295.5t-250.5 -241.5z" />
<glyph unicode="&#x201e;" horiz-adv-x="870" d="M-10 -270q151 130 182 268q-37 37 -73.5 93t-55.5 99q23 43 85.5 96t113.5 81q38 -24 86.5 -76.5t79.5 -100.5q-25 -151 -134 -285.5t-254 -209.5zM410 -270q151 130 182 268q-37 37 -73.5 93t-55.5 99q23 43 85.5 96t113.5 81q38 -24 86 -76.5t79 -100.5 q-25 -151 -134 -285.5t-253 -209.5z" />
<glyph unicode="&#x2022;" horiz-adv-x="688" d="M43 561l6 31q114 74 185.5 137.5t132.5 159.5h32q40 -94 95.5 -156t150.5 -139l-4 -31q-108 -81 -183.5 -156t-138.5 -174h-30q-39 99 -97.5 173.5t-148.5 154.5z" />
<glyph unicode="&#x202f;" horiz-adv-x="371" />
<glyph unicode="&#x2039;" horiz-adv-x="636" d="M70 547l4 51q261 134 501 385l48 -33l-287 -366l194 -406l-57 -35q-97 131 -193 230.5t-210 173.5z" />
<glyph unicode="&#x203a;" horiz-adv-x="636" d="M14 176l287 367l-195 405l58 35q96 -131 192 -230t211 -173l-4 -52q-263 -135 -502 -385z" />
<glyph unicode="&#x205f;" horiz-adv-x="464" />
<glyph unicode="&#x20ac;" horiz-adv-x="849" d="M14 434q48 42 66 66l70 2h4q8 34 20 71q-80 -3 -139 -10l-6 8q5 5 20.5 20t25.5 25.5t19 22.5l105 4h2q62 139 172.5 260.5t242.5 198.5q99 -31 164 -31q39 0 60 8l12 -30q-50 -56 -75.5 -154.5t-31.5 -198.5h-36q-13 47 -23 103l-29 43q-19 29 -60.5 61t-70.5 33 q-32 -114 -55 -281q154 5 211 11l6 -9q-25 -32 -35 -65l-190 -6l-6 -68q169 6 211 10l6 -8q-26 -37 -35 -67l-182 -4q2 -112 28.5 -187.5t85.5 -81.5q91 89 158 260l49 -10q-33 -142 -103 -265.5t-173 -195.5q-172 4 -267.5 112t-95.5 286q0 44 4 69h-2l-121 -10z" />
<glyph unicode="&#xe000;" horiz-adv-x="1034" d="M0 0v1034h1034v-1034h-1034z" />
</font>
</defs>
</svg>
