<?xml version="1.0" standalone="no"?>
<!DOCTYPE svg PUBLIC "-//W3C//DTD SVG 1.1//EN" "http://www.w3.org/Graphics/SVG/1.1/DTD/svg11.dtd" >
<svg xmlns="http://www.w3.org/2000/svg">
<metadata></metadata>
<defs>
<font id="passion_oneblack" horiz-adv-x="570" >
<font-face units-per-em="1000" ascent="800" descent="-200" />
<missing-glyph horiz-adv-x="175" />
<glyph horiz-adv-x="1000" />
<glyph horiz-adv-x="1000" />
<glyph unicode="&#xd;" horiz-adv-x="1000" />
<glyph unicode=" "  horiz-adv-x="175" />
<glyph unicode="&#x09;" horiz-adv-x="175" />
<glyph unicode="&#xa0;" horiz-adv-x="175" />
<glyph unicode="!" horiz-adv-x="272" d="M20 615h242l-17 -439h-211zM30 59v31q0 37 21.5 52.5t71.5 15.5h31q55 0 76.5 -15.5t21.5 -52.5v-31q0 -38 -22 -53.5t-78 -15.5h-32q-49 0 -69.5 15t-20.5 54z" />
<glyph unicode="&#x22;" horiz-adv-x="487" d="M20 551v31q0 37 21.5 52.5t71.5 15.5h31q55 0 76.5 -15.5t21.5 -52.5v-34q0 -53 -24.5 -90.5t-78.5 -70.5h-78l29 95h-10q-33 0 -46.5 15t-13.5 54zM255 551v31q0 37 21.5 52.5t71.5 15.5h31q55 0 76.5 -15.5t21.5 -52.5v-34q0 -53 -24.5 -90.5t-78.5 -70.5h-78l29 95 h-10q-33 0 -46.5 15t-13.5 54z" />
<glyph unicode="#" horiz-adv-x="560" d="M8 141v146h58l3 22h-47v143h60l19 139h196l-15 -139h22l15 139h198l-15 -139h50v-143h-63l-2 -22h52v-146h-67l-15 -141h-195l15 141h-25l-15 -141h-203l18 141h-44zM263 282h24l4 32h-24z" />
<glyph unicode="$" horiz-adv-x="529" d="M0 410q0 78 38 131t111 75v77h232v-67q53 -5 132 -17l-19 -199l-223 34v-19q134 -18 196 -64.5t62 -158.5q0 -158 -147 -198v-68h-233v60q-50 4 -130 24l8 182l230 -44v18q-67 14 -109 28.5t-78.5 40.5t-53 66.5t-16.5 98.5z" />
<glyph unicode="%" horiz-adv-x="1051" d="M4 404q0 125 41 175.5t162 50.5q122 0 162.5 -50.5t40.5 -175.5q0 -124 -40.5 -173.5t-162.5 -49.5q-121 0 -162 49.5t-41 173.5zM196 298h25v194h-25v-194zM359 0l127 621h208l-128 -621h-207zM641 213q0 125 41 175.5t162 50.5q122 0 162.5 -50.5t40.5 -175.5 q0 -124 -40.5 -173.5t-162.5 -49.5q-121 0 -162 49.5t-41 173.5zM833 107h25v194h-25v-194z" />
<glyph unicode="&#x26;" horiz-adv-x="698" d="M0 179q0 68 29 105.5t86 60.5v4q-56 44 -56 111q0 171 255 171q123 0 188.5 -42t65.5 -121q0 -70 -30.5 -104t-103.5 -59v-4l51 -51h4v55h198v-53q0 -78 -41 -118l2 -4h50l-8 -140h-102q-86 0 -133 25h-8q-78 -25 -168 -25q-279 0 -279 189zM238 149q0 -19 20 -19h59 l-79 76v-57zM300 385h36v82h-36v-82z" />
<glyph unicode="'" horiz-adv-x="252" d="M10 551v31q0 37 21.5 52.5t71.5 15.5h31q55 0 76.5 -15.5t21.5 -52.5v-34q0 -53 -24.5 -90.5t-78.5 -70.5h-78l29 95h-10q-33 0 -46.5 15t-13.5 54z" />
<glyph unicode="(" horiz-adv-x="402" d="M12 254q0 125 48 218t150 173l196 -50q-118 -145 -118 -340q0 -187 118 -361l-204 -41q-94 87 -142 179t-48 222z" />
<glyph unicode=")" horiz-adv-x="402" d="M-4 -106q120 161 120 361q0 193 -120 339l197 51q101 -80 149 -174t48 -217q0 -125 -49 -220t-142 -181z" />
<glyph unicode="*" horiz-adv-x="486" d="M8 446l28 120l116 -19l11 93h165l8 -93l109 19l33 -120l-95 -30l68 -90l-127 -78l-78 82l-73 -81l-126 74l54 91z" />
<glyph unicode="+" horiz-adv-x="449" d="M15 188v190h112v120h194v-120h113v-190h-113v-101h-194v101h-112z" />
<glyph unicode="," horiz-adv-x="242" d="M10 59v31q0 37 21.5 52.5t71.5 15.5h31q55 0 76.5 -15.5t21.5 -52.5v-34q0 -53 -24.5 -90.5t-78.5 -70.5h-78l29 95h-10q-33 0 -46.5 15t-13.5 54z" />
<glyph unicode="-" horiz-adv-x="388" d="M15 146v194h358v-194h-358z" />
<glyph unicode="." horiz-adv-x="242" d="M10 59v31q0 37 21.5 52.5t71.5 15.5h31q55 0 76.5 -15.5t21.5 -52.5v-31q0 -38 -22 -53.5t-78 -15.5h-32q-49 0 -69.5 15t-20.5 54z" />
<glyph unicode="/" horiz-adv-x="383" d="M-10 -137l155 758h248l-156 -758h-247z" />
<glyph unicode="0" horiz-adv-x="583" d="M2 309q0 90 11.5 146.5t43 98t88 59.5t146.5 18t147 -18t88.5 -59.5t43 -98t11.5 -146.5q0 -89 -11.5 -145t-43 -97.5t-88.5 -59t-147 -17.5q-89 0 -146 17.5t-88.5 59t-43 97.5t-11.5 145zM276 157h36v278h-36v-278z" />
<glyph unicode="1" horiz-adv-x="359" d="M0 397v163l92 61h247v-621h-282v397h-57z" />
<glyph unicode="2" horiz-adv-x="505" d="M2 600q112 30 246 30q254 0 254 -190q0 -76 -28 -128t-89 -112v-6h115v-194h-476l-6 153q144 129 144 208q0 30 -30 30q-24 0 -111 -15z" />
<glyph unicode="3" horiz-adv-x="520" d="M0 598q127 32 254 32q126 0 190 -41.5t64 -132.5q0 -49 -15.5 -78.5t-54.5 -53.5v-4q80 -38 80 -138q0 -104 -62 -148t-209 -44q-113 0 -232 24l18 192q144 -16 155 -16q13 0 17.5 4t4.5 15q0 12 -5 15.5t-19 3.5h-136v147h136q11 0 15.5 4t4.5 14t-5 14t-19 4 q-29 0 -163 -21z" />
<glyph unicode="4" horiz-adv-x="577" d="M0 236l143 385h383v-358h51l-8 -166h-43v-97h-282v97h-229zM223 259h36v84h-36v-84z" />
<glyph unicode="5" horiz-adv-x="511" d="M8 231v390h467v-198h-226v-25q38 4 59 4q106 0 152.5 -40.5t46.5 -143.5q0 -110 -62 -169t-203 -59q-108 0 -230 25l14 193q182 -16 207 -16q9 0 12.5 3t3.5 12q0 16 -16 16z" />
<glyph unicode="6" horiz-adv-x="568" d="M2 286q0 180 90 257.5t284 77.5h160l-11 -198h-219q-27 0 -27 -23h68q117 0 172 -44t55 -149q0 -106 -65.5 -161.5t-210.5 -55.5q-155 0 -225.5 71.5t-70.5 224.5zM275 143h36v117h-36v-117z" />
<glyph unicode="7" horiz-adv-x="469" d="M0 397v224h465v-169l-118 -452h-327l120 397h-140z" />
<glyph unicode="8" horiz-adv-x="579" d="M4 173q0 100 95 135v6q-47 24 -67.5 55.5t-20.5 85.5q0 88 74.5 132t202.5 44q278 0 278 -172q0 -56 -18.5 -86.5t-67.5 -55.5v-6q52 -13 73.5 -44.5t21.5 -85.5q0 -99 -72 -145t-213 -46q-133 0 -209.5 44t-76.5 139zM274 129h36v123h-36v-123zM274 368h36v104h-36v-104 z" />
<glyph unicode="9" horiz-adv-x="568" d="M-6 399q0 222 276 222q159 0 227.5 -74.5t68.5 -231.5q0 -176 -90 -250.5t-284 -74.5h-160l11 192h221q14 0 19.5 5t5.5 18h-72q-112 0 -167.5 43.5t-55.5 150.5zM257 326h36v117h-36v-117z" />
<glyph unicode=":" horiz-adv-x="242" d="M10 59v31q0 37 21.5 52.5t71.5 15.5h31q55 0 76.5 -15.5t21.5 -52.5v-31q0 -38 -22 -53.5t-78 -15.5h-32q-49 0 -69.5 15t-20.5 54zM10 359v31q0 37 21.5 52.5t71.5 15.5h31q55 0 76.5 -15.5t21.5 -52.5v-31q0 -38 -22 -53.5t-78 -15.5h-32q-49 0 -69.5 15t-20.5 54z" />
<glyph unicode=";" horiz-adv-x="242" d="M10 59v31q0 37 21.5 52.5t71.5 15.5h31q55 0 76.5 -15.5t21.5 -52.5v-34q0 -53 -24.5 -90.5t-78.5 -70.5h-78l29 95h-10q-33 0 -46.5 15t-13.5 54zM10 359v31q0 37 21.5 52.5t71.5 15.5h31q55 0 76.5 -15.5t21.5 -52.5v-31q0 -38 -22 -53.5t-78 -15.5h-32q-49 0 -69.5 15 t-20.5 54z" />
<glyph unicode="&#x3c;" horiz-adv-x="342" d="M5 199v132l322 220v-229l-83 -56l83 -55v-232z" />
<glyph unicode="=" horiz-adv-x="448" d="M20 86v160h408v-160h-408zM20 270v159h408v-159h-408z" />
<glyph unicode="&#x3e;" horiz-adv-x="342" d="M15 -21v232l83 55l-83 56v229l322 -220v-132z" />
<glyph unicode="?" horiz-adv-x="392" d="M10 420v192q88 13 158 13q224 0 224 -187q0 -85 -31 -130.5t-108 -73.5v-59h-206v103q0 37 13.5 52.5t55.5 32.5q19 8 26.5 16.5t7.5 23.5q0 28 -30 28q-21 0 -110 -11zM39 59v31q0 37 21.5 52.5t71.5 15.5h31q55 0 76.5 -15.5t21.5 -52.5v-31q0 -38 -22 -53.5t-78 -15.5 h-32q-49 0 -69.5 15t-20.5 54z" />
<glyph unicode="@" horiz-adv-x="1052" d="M4 240q0 137 24.5 222.5t89 139.5t166 74.5t264.5 20.5q106 0 181.5 -8.5t132.5 -29.5t92 -51.5t56.5 -79.5t29.5 -108t8 -142q0 -87 -9 -138t-35.5 -87t-73.5 -49.5t-125 -13.5h-164q-61 0 -86 31h-4q-25 -31 -89 -31h-43q-83 0 -118.5 35.5t-35.5 120.5q0 96 23 119.5 t122 23.5h122v17h-264q0 113 53 149t213 36q138 0 193 -28t55 -107v-195h20v195q0 92 -62.5 124t-205.5 32q-179 0 -234.5 -42t-55.5 -183v-141q0 -101 41 -138.5t134 -37.5h384v-164q-181 -23 -306 -23q-102 0 -169 5.5t-127 23.5t-94 48t-59 82t-34.5 123.5t-9.5 174.5z M513 114h20v80h-20v-80z" />
<glyph unicode="A" horiz-adv-x="665" d="M-8 0l121 621h439l121 -621h-290l-16 95h-78l-17 -95h-280zM313 228h32v124h-32v-124z" />
<glyph unicode="B" horiz-adv-x="631" d="M20 0v621h378q217 0 217 -164q0 -51 -12.5 -79t-47.5 -48v-4q72 -28 72 -143q0 -90 -52 -136.5t-173 -46.5h-382zM300 127h32v123h-32v-123zM300 364h32v104h-32v-104z" />
<glyph unicode="C" horiz-adv-x="468" d="M6 315q0 171 81 243t254 72q44 0 119 -10l-17 -239q-40 5 -56 5q-27 0 -38 -14t-11 -68q0 -55 11.5 -70t40.5 -15q13 0 55 8l15 -227q-72 -10 -135 -10q-162 0 -240.5 76.5t-78.5 248.5z" />
<glyph unicode="D" horiz-adv-x="637" d="M20 0v621h275q183 0 259.5 -76.5t76.5 -220.5q0 -324 -342 -324h-269zM294 157h32v278h-32v-278z" />
<glyph unicode="E" horiz-adv-x="489" d="M20 0v621h469l-15 -204h-172v-36h168l-10 -166h-158v-36h183l-15 -179h-450z" />
<glyph unicode="F" horiz-adv-x="478" d="M20 0v621h458l-15 -204h-161v-36h158l-10 -161h-148v-220h-282z" />
<glyph unicode="G" horiz-adv-x="613" d="M6 313q0 160 76.5 238.5t254.5 78.5q103 0 245 -24l-26 -214q-189 18 -206 18q-16 0 -20.5 -5t-4.5 -22v-226h32v181h246v-338h-194l-10 26h-4q-52 -36 -136 -36q-253 0 -253 323z" />
<glyph unicode="H" horiz-adv-x="640" d="M20 0v621h284v-231h32v231h284v-621h-284v218h-32v-218h-284z" />
<glyph unicode="I" horiz-adv-x="322" d="M20 0v621h282v-621h-282z" />
<glyph unicode="J" horiz-adv-x="353" d="M0 171h51v450h282v-490q0 -78 -31 -109.5t-123 -31.5h-168z" />
<glyph unicode="K" horiz-adv-x="661" d="M35 0v621h282v-252h10l52 252h282l-68 -312l66 -309h-291l-41 216h-10v-216h-282z" />
<glyph unicode="L" horiz-adv-x="406" d="M20 0v621h282v-422h104l-14 -199h-372z" />
<glyph unicode="M" horiz-adv-x="817" d="M20 0l26 621h328l31 -226h14l26 226h336l26 -621h-241l-9 249h-9l-26 -249h-229l-23 249h-8l-11 -249h-231z" />
<glyph unicode="N" horiz-adv-x="652" d="M20 0v621h263l104 -201v201h245v-621h-256l-113 199v-199h-243z" />
<glyph unicode="O" horiz-adv-x="670" d="M6 313q0 168 76.5 242.5t254.5 74.5q176 0 251.5 -73.5t75.5 -236.5q0 -170 -78 -250t-254 -80q-173 0 -249.5 79t-76.5 244zM325 157h32v278h-32v-278z" />
<glyph unicode="P" horiz-adv-x="594" d="M20 0v621h299q142 0 208.5 -55t66.5 -171t-64 -169t-199 -53h-29v-173h-282zM298 318h32v124h-32v-124z" />
<glyph unicode="Q" horiz-adv-x="670" d="M6 313q0 168 76.5 242.5t254.5 74.5q176 0 251.5 -73.5t75.5 -236.5q0 -200 -146 -269v-4h135l-19 -155h-95q-117 0 -167 43l-65 55q-148 0 -224.5 82t-76.5 241zM325 157h32v278h-32v-278z" />
<glyph unicode="R" horiz-adv-x="623" d="M20 0v621h330q134 0 196 -49t62 -152q0 -100 -63 -156l83 -264h-272l-36 193h-18v-193h-282zM298 340h32v102h-32v-102z" />
<glyph unicode="S" horiz-adv-x="529" d="M0 410q0 104 66.5 162t189.5 58t257 -21l-19 -199l-223 34v-19q134 -18 196 -64.5t62 -158.5q0 -107 -65.5 -159.5t-201.5 -52.5q-117 0 -243 30l8 182l230 -44v18q-67 14 -109 28.5t-78.5 40.5t-53 66.5t-16.5 98.5z" />
<glyph unicode="T" horiz-adv-x="486" d="M0 419l10 202h476l-13 -202h-90v-419h-283v419h-100z" />
<glyph unicode="U" horiz-adv-x="644" d="M20 206v415h284v-444h32v444h288v-413q0 -218 -305 -218q-145 0 -222 54t-77 162z" />
<glyph unicode="V" horiz-adv-x="636" d="M0 621h292l24 -364h19l21 364h280l-91 -621h-446z" />
<glyph unicode="W" horiz-adv-x="816" d="M0 621h245l17 -252h12l23 252h235l22 -252h11l15 252h236l-47 -621h-315l-31 226h-14l-26 -226h-323z" />
<glyph unicode="X" horiz-adv-x="654" d="M-6 0l98 315l-86 306h296l28 -148h12l24 148h278l-77 -306l93 -315h-301l-32 150h-13l-34 -150h-286z" />
<glyph unicode="Y" horiz-adv-x="587" d="M-12 621h278l25 -204h12l25 204h271l-167 -460v-161h-282v162z" />
<glyph unicode="Z" horiz-adv-x="581" d="M2 621h563l8 -154l-166 -280h172v-187l-551 1l-8 154l186 262h-191z" />
<glyph unicode="[" horiz-adv-x="386" d="M44 -137v767h332v-144h-77v-480h77v-143h-332z" />
<glyph unicode="\" horiz-adv-x="383" d="M-10 621h248l155 -758h-247z" />
<glyph unicode="]" horiz-adv-x="386" d="M10 6h79v480h-79v144h332v-767h-332v143z" />
<glyph unicode="^" horiz-adv-x="500" d="M53 501l68 134h252l68 -134h-174l-16 36h-4l-16 -36h-178z" />
<glyph unicode="_" horiz-adv-x="400" d="M0 0h400v-137h-400v137z" />
<glyph unicode="`" horiz-adv-x="500" d="M105 641h234l64 -130h-179z" />
<glyph unicode="a" horiz-adv-x="547" d="M0 136q0 46 17 76.5t53.5 47.5t81.5 24t114 10v21l-228 -19l-19 176q149 19 283 19q115 0 169 -33t54 -112q0 -32 -2.5 -93t-2.5 -79q0 -24 25 -24l-14 -156q-60 -4 -96 -4q-90 0 -130 31h-5q-60 -31 -132 -31q-168 0 -168 146zM256 116h20v80h-20v-80z" />
<glyph unicode="b" horiz-adv-x="576" d="M16 0v630h255v-150q36 11 82 11q69 0 112.5 -14t67 -46.5t31.5 -73.5t8 -106q0 -134 -42.5 -197.5t-162.5 -63.5q-62 0 -134 29l-4 -19h-213zM269 131h20v190h-20v-190z" />
<glyph unicode="c" horiz-adv-x="388" d="M4 231q0 260 266 260q63 0 118 -10l-17 -204q-38 4 -45 4q-18 0 -26 -9.5t-8 -35.5q0 -31 7.5 -39.5t26.5 -8.5q8 0 46 4l11 -191q-66 -11 -116 -11q-134 0 -198.5 58.5t-64.5 182.5z" />
<glyph unicode="d" horiz-adv-x="583" d="M4 244q0 120 57.5 183.5t165.5 63.5q27 0 75 -8v147h255v-457q0 -23 24 -23l-14 -155q-67 -5 -93 -5q-90 0 -132 30h-5q-50 -30 -115 -30q-218 0 -218 254zM289 131h20v190h-20v-190z" />
<glyph unicode="e" horiz-adv-x="543" d="M2 237q0 254 289 254q139 0 194.5 -49.5t55.5 -143.5q0 -43 -8 -118h-265v-18q43 -5 91 -5q38 0 156 6l10 -151q-137 -22 -245 -22q-278 0 -278 247zM267 254h20v79h-20v-79z" />
<glyph unicode="f" horiz-adv-x="321" d="M0 325v149h27v19q0 76 40 111.5t133 35.5q48 0 136 -6l-9 -143h-42v-17h41l-6 -149h-31v-325h-262v325h-27z" />
<glyph unicode="g" horiz-adv-x="554" d="M2 88q0 67 75 91v5q-71 45 -71 139q0 87 57.5 127.5t171.5 40.5h319v-125h-51v-5q25 -27 25 -74q0 -75 -44.5 -110.5t-143.5 -35.5h-130v-18h199q72 0 105 -26t33 -80q0 -80 -75.5 -122t-218.5 -42q-59 0 -98 3.5t-75 13t-53 29.5t-17 52q0 40 40 58v4q-48 20 -48 75z M210 -7v-18h143v18h-143zM266 245h20v95h-20v-95z" />
<glyph unicode="h" d="M10 0v630h255v-165q55 26 135 26t120 -38.5t40 -103.5v-349h-267v299h-20v-299h-263z" />
<glyph unicode="i" horiz-adv-x="282" d="M10 0v464h262v-464h-262zM10 556v11q0 78 113 78h31q118 0 118 -78v-11q0 -79 -118 -79h-32q-112 0 -112 79z" />
<glyph unicode="j" horiz-adv-x="296" d="M0 0h24v464h262v-462q0 -78 -46.5 -108.5t-160.5 -30.5h-71zM19 557v11q0 78 113 78h31q118 0 118 -78v-11q0 -79 -118 -79h-32q-112 0 -112 79z" />
<glyph unicode="k" horiz-adv-x="561" d="M10 0v630h249v-339h10l34 188h263l-41 -196q-6 -29 -33 -43v-4q29 -10 34 -41l37 -195h-266l-28 177h-10v-177h-249z" />
<glyph unicode="l" horiz-adv-x="297" d="M10 125v505h259v-440q0 -24 26 -24l-8 -176h-101q-176 0 -176 135z" />
<glyph unicode="m" horiz-adv-x="858" d="M10 0v479h242l4 -27q78 39 145 39q79 0 124 -43q71 43 154 43q169 0 169 -137v-354h-267v299h-20v-299h-268v299h-20v-299h-263z" />
<glyph unicode="n" d="M10 0v479h242l4 -27q80 39 144 39q80 0 120 -38.5t40 -103.5v-349h-267v299h-20v-299h-263z" />
<glyph unicode="o" horiz-adv-x="568" d="M4 241q0 132 68.5 191t215.5 59q143 0 209.5 -58t66.5 -185q0 -138 -64.5 -198t-211.5 -60q-149 0 -216.5 60t-67.5 191zM276 131h20v190h-20v-190z" />
<glyph unicode="p" d="M10 -137v616h232l4 -20q50 32 121 32q115 0 157 -56t42 -186q0 -136 -46.5 -197.5t-174.5 -61.5q-29 0 -72 10v-137h-263zM263 131h20v190h-20v-190z" />
<glyph unicode="q" horiz-adv-x="572" d="M4 244q0 118 52 182.5t151 64.5q65 0 119 -30l3 18h233v-616h-263v136q-32 -9 -67 -9q-125 0 -176.5 63.5t-51.5 190.5zM289 131h20v190h-20v-190z" />
<glyph unicode="r" horiz-adv-x="349" d="M10 0v479h220l2 -25h4q30 29 111 29l-11 -206h-12q-28 0 -39.5 -10t-11.5 -39v-228h-263z" />
<glyph unicode="s" horiz-adv-x="464" d="M2 320q0 84 59.5 127.5t172.5 43.5q115 0 219 -19l-14 -160l-191 21v-14q57 -5 93.5 -13.5t65.5 -26.5t42 -48.5t13 -76.5q0 -164 -219 -164q-116 0 -233 19l7 156l205 -24v14q-56 8 -91.5 17t-67.5 26.5t-46.5 47.5t-14.5 74z" />
<glyph unicode="t" horiz-adv-x="345" d="M0 325v154h38l12 92h239v-92h54l-7 -154h-47v-135q0 -22 21 -22h24l-6 -168q-74 -10 -127 -10q-91 0 -132.5 33.5t-41.5 108.5v193h-27z" />
<glyph unicode="u" d="M10 127v352h266v-309h20v309h264v-479h-253v32h-4q-73 -42 -150 -42q-143 0 -143 137z" />
<glyph unicode="v" horiz-adv-x="554" d="M-10 479h275l15 -216h8l17 216h259l-96 -479h-381z" />
<glyph unicode="w" horiz-adv-x="728" d="M0 479h230l11 -186h8l14 186h209l14 -186h9l10 186h223l-57 -479h-280l-21 151h-6l-16 -151h-292z" />
<glyph unicode="x" horiz-adv-x="575" d="M0 0l85 234l-84 245h271l15 -135h8l15 135h262l-82 -244l85 -235h-269l-16 115h-8l-16 -115h-266z" />
<glyph unicode="y" horiz-adv-x="552" d="M-8 479h273l17 -227h8l20 227h250l-115 -486q-17 -69 -67 -99.5t-156 -30.5h-179l-18 169h62q13 0 13 14q0 7 -7 28z" />
<glyph unicode="z" horiz-adv-x="474" d="M2 479h458l8 -123l-115 -180h119v-176h-450l-8 130l121 171h-123z" />
<glyph unicode="{" horiz-adv-x="397" d="M0 181v142q45 0 56 3.5t11 22.5v139q0 78 38.5 110t133.5 32h148v-147h-76v-155q0 -31 -10.5 -46t-36.5 -28v-6q25 -12 36 -28t11 -45v-170h76v-142h-148q-92 0 -132 31t-40 103v158q0 18 -12 22t-55 4z" />
<glyph unicode="|" horiz-adv-x="278" d="M20 -137v758h238v-758h-238z" />
<glyph unicode="}" horiz-adv-x="397" d="M10 5h76v170q0 29 11.5 45t36.5 28v6q-27 13 -37.5 27.5t-10.5 46.5v155h-76v147h148q95 0 133.5 -32t38.5 -110v-139q0 -19 11 -22.5t56 -3.5v-142q-24 0 -33.5 -0.5t-19 -3t-12 -7.5t-2.5 -15v-158q0 -72 -40 -103t-132 -31h-148v142z" />
<glyph unicode="~" horiz-adv-x="500" d="M43 505v15q0 70 26.5 103t96.5 33q33 0 115 -24v24h180v-14q0 -72 -25.5 -104.5t-101.5 -32.5q-34 0 -110 24v-24h-181z" />
<glyph unicode="&#xa1;" horiz-adv-x="272" d="M10 -137l17 439h211l14 -439h-242zM20 388v31q0 38 22 53.5t78 15.5h32q49 0 69.5 -15t20.5 -54v-31q0 -37 -21.5 -52.5t-71.5 -15.5h-31q-55 0 -76.5 15.5t-21.5 52.5z" />
<glyph unicode="&#xa2;" horiz-adv-x="388" d="M4 231q0 153 95 217v89h222v-48q24 -1 67 -8l-17 -204q-38 4 -45 4q-18 0 -26 -9.5t-8 -35.5q0 -31 7.5 -39.5t26.5 -8.5q8 0 46 4l11 -191q-45 -7 -61 -9v-56h-223v90q-95 56 -95 205z" />
<glyph unicode="&#xa3;" horiz-adv-x="673" d="M20 119q0 67 36 101.5t98 34.5q11 0 43 -2v16h-110v115h75q-31 67 -31 101q0 145 190 145q77 0 249 -20l-19 -207l-131 15l-3 -6l15 -28h118l-9 -115h-91v-109h17v92h204v-73q0 -104 -41 -157t-153 -53q-62 0 -166 32h-4q-66 -25 -126 -25q-161 0 -161 143zM175 102h30 v20h-30v-20z" />
<glyph unicode="&#xa4;" horiz-adv-x="779" d="M48 468l31 53l120 -69q69 90 192 90q128 0 196 -88l114 67q6 -9 15 -26.5t15 -26.5l-117 -68q13 -45 13 -93q0 -52 -20 -110l120 -71q-7 -13 -17 -28t-15 -23l-120 71q-69 -74 -184 -74q-117 0 -185 76q-9 -5 -54 -31.5t-68 -40.5q-6 11 -10.5 18.5t-10 16t-9.5 15.5 l124 72q-17 54 -17 109q0 43 12 88zM219 305q0 -91 45 -137t127 -46q174 0 174 184q0 88 -43.5 136t-130.5 48q-172 0 -172 -185z" />
<glyph unicode="&#xa5;" horiz-adv-x="591" d="M-10 621h278l25 -204h12l25 204h271l-108 -296h49v-112h-89l-6 -15h95v-110h-108v-88h-282v88h-111v110h98l-5 15h-93v112h53z" />
<glyph unicode="&#xa6;" horiz-adv-x="278" d="M20 -137v354h238v-354h-238zM20 285v336h238v-336h-238z" />
<glyph unicode="&#xa7;" horiz-adv-x="494" d="M2 270q0 74 47 134q-10 29 -10 60q0 91 63.5 128.5t176.5 37.5q79 0 195 -17l-32 -166q-148 14 -169 14l-2 -10q119 -26 170 -71t51 -137q0 -75 -44 -143q12 -32 12 -66q0 -86 -59.5 -133t-174.5 -47q-107 0 -213 17l16 166q180 -19 205 -19l3 15q-128 34 -181.5 86.5 t-53.5 150.5zM188 265l115 -53l11 24l-115 54z" />
<glyph unicode="&#xa8;" horiz-adv-x="500" d="M41 573q0 38 22.5 52.5t76.5 14.5q58 0 79.5 -14.5t21.5 -52.5q0 -39 -21 -53t-80 -14q-55 0 -77 14t-22 53zM263 573q0 38 22.5 52.5t76.5 14.5q58 0 79.5 -14.5t21.5 -52.5q0 -39 -21 -53t-80 -14q-55 0 -77 14t-22 53z" />
<glyph unicode="&#xa9;" horiz-adv-x="1039" d="M10 240q0 114 19 194.5t56 134t101 84t144 42.5t196 12q148 0 239 -19t153 -72t86.5 -142.5t24.5 -233.5q0 -99 -10.5 -171t-36 -124.5t-60.5 -85t-92.5 -52t-124 -26.5t-161.5 -7q-104 0 -175.5 6.5t-135.5 25t-102.5 50.5t-67.5 84.5t-41 125.5t-12 174zM250 113 q0 -89 43 -122.5t138 -33.5h188q95 0 132.5 32t37.5 119v246q0 91 -43 124.5t-142 33.5h-183q-89 0 -130 -34.5t-41 -126.5v-238zM285 237q0 136 55 190.5t189 54.5q53 0 174 -9l-11 -186q-73 5 -106 5q-22 0 -30.5 -11t-8.5 -53q0 -44 9 -55.5t32 -11.5q44 0 107 7l8 -175 q-147 -11 -187 -11q-125 0 -178 58.5t-53 196.5z" />
<glyph unicode="&#xaa;" horiz-adv-x="416" d="M32 390q0 62 44.5 84.5t141.5 26.5v14l-159 -13l-14 123q112 14 198 14q81 0 118.5 -23t37.5 -79q0 -22 -1.5 -65t-1.5 -55q0 -17 17 -17l-9 -109q-31 -3 -68 -3q-63 0 -91 22h-3q-40 -22 -92 -22q-118 0 -118 102zM211 376h14v56h-14v-56z" />
<glyph unicode="&#xab;" horiz-adv-x="603" d="M0 210v39l127 185h217l-134 -201l134 -200h-227zM257 210v39l127 185h217l-134 -201l134 -200h-227z" />
<glyph unicode="&#xac;" horiz-adv-x="513" d="M15 186v194h473v-294h-215v100h-258z" />
<glyph unicode="&#xad;" horiz-adv-x="388" d="M15 146v194h358v-194h-358z" />
<glyph unicode="&#xae;" horiz-adv-x="1079" d="M10 240q0 114 19 194.5t56 134t101 84t144 42.5t196 12q163 0 262 -19t165 -72.5t91 -142t25 -233.5q0 -99 -11.5 -171t-39 -124.5t-66 -85t-100.5 -52t-134 -26.5t-174 -7q-104 0 -175.5 6.5t-135.5 25t-102.5 50.5t-67.5 84.5t-41 125.5t-12 174zM250 108 q0 -80 43 -115.5t138 -35.5h213q93 0 136 33h-205l-28 150h-15v-150h-222v489h291q95 0 138 -38t43 -120q0 -89 -45 -131l51 -194q41 36 41 112v246q0 84 -50.5 121t-149.5 37h-208q-91 0 -131 -36t-40 -121v-247zM529 258h25v82h-25v-82z" />
<glyph unicode="&#xaf;" horiz-adv-x="500" d="M71 497v124h359v-124h-359z" />
<glyph unicode="&#xb0;" horiz-adv-x="339" d="M5 495q0 66 39 98t124 32q89 0 127.5 -31.5t38.5 -98.5q0 -66 -38.5 -97t-127.5 -31q-85 0 -124 31t-39 97zM159 477h20v34h-20v-34z" />
<glyph unicode="&#xb1;" horiz-adv-x="449" d="M15 0v180h415v-180h-415zM15 268v190h112v110h194v-110h113v-190h-113v-75h-194v75h-112z" />
<glyph unicode="&#xb2;" horiz-adv-x="364" d="M10 609q81 21 173 21q177 0 177 -133q0 -53 -19.5 -90t-62.5 -78v-4h81v-136h-333l-4 107q100 90 100 146q0 21 -21 21q-11 0 -77 -11z" />
<glyph unicode="&#xb3;" horiz-adv-x="377" d="M10 608q88 22 178 22q178 0 178 -122q0 -34 -11 -55t-38 -37v-3q56 -27 56 -97q0 -72 -43.5 -103t-146.5 -31q-76 0 -163 17l13 134q18 -2 44.5 -5t41.5 -4.5t23 -1.5q15 0 15 13q0 14 -17 14h-95v102h95q14 0 14 13t-17 13t-114 -15z" />
<glyph unicode="&#xb4;" horiz-adv-x="500" d="M179 511l64 130h234l-119 -130h-179z" />
<glyph unicode="&#xb6;" horiz-adv-x="675" d="M6 391q0 128 53.5 182.5t176.5 54.5h419v-765h-194v611h-36v-611h-195v290q-121 0 -172.5 54.5t-51.5 183.5z" />
<glyph unicode="&#xb7;" horiz-adv-x="307" d="M20 288v31q0 37 28.5 53.5t87.5 16.5h28q64 0 93.5 -16.5t29.5 -53.5v-31q0 -38 -30 -54t-95 -16h-30q-58 0 -85 15t-27 55z" />
<glyph unicode="&#xb8;" horiz-adv-x="500" d="M107 -133l47 82q39 -27 84 -40l4 8l-57 25q-19 10 -19 26q0 18 20 36h118l-13 -17v-4q77 0 77 -62q0 -42 -33 -66t-94 -24q-74 0 -134 36z" />
<glyph unicode="&#xb9;" horiz-adv-x="257" d="M10 464v114l64 43h173v-435h-197v278h-40z" />
<glyph unicode="&#xba;" horiz-adv-x="424" d="M31 464q0 92 48 133.5t151 41.5q100 0 146.5 -40.5t46.5 -129.5q0 -96 -45.5 -138.5t-147.5 -42.5q-105 0 -152 42t-47 134zM221 387h14v133h-14v-133z" />
<glyph unicode="&#xbb;" horiz-adv-x="603" d="M2 32l134 201l-134 200h227l117 -177v-39l-127 -185h-217zM259 32l134 201l-134 200h227l117 -177v-39l-127 -185h-217z" />
<glyph unicode="&#xbc;" horiz-adv-x="872" d="M10 464v114l64 43h173v-435h-197v278h-40zM212 0l129 621h203l-130 -621h-202zM464 165l100 270h268v-251h36l-6 -116h-30v-68h-197v68h-161zM620 181h25v59h-25v-59z" />
<glyph unicode="&#xbd;" horiz-adv-x="864" d="M10 464v114l64 43h173v-435h-197v278h-40zM212 0l129 621h203l-130 -621h-202zM504 420q81 21 173 21q177 0 177 -133q0 -53 -19.5 -90t-62.5 -78v-4h81v-136h-333l-4 107q100 90 100 146q0 21 -21 21q-11 0 -77 -11z" />
<glyph unicode="&#xbe;" horiz-adv-x="972" d="M10 608q88 22 178 22q178 0 178 -122q0 -34 -11 -55t-38 -37v-3q56 -27 56 -97q0 -72 -43.5 -103t-146.5 -31q-76 0 -163 17l13 134q18 -2 44.5 -5t41.5 -4.5t23 -1.5q15 0 15 13q0 14 -17 14h-95v102h95q14 0 14 13t-17 13t-114 -15zM319 0l129 621h203l-130 -621h-202z M564 165l100 270h268v-251h36l-6 -116h-30v-68h-197v68h-161zM720 181h25v59h-25v-59z" />
<glyph unicode="&#xbf;" horiz-adv-x="392" d="M0 40q0 85 31 130.5t108 73.5v59h206v-103q0 -37 -13.5 -52.5t-55.5 -32.5q-19 -8 -26.5 -16.5t-7.5 -23.5q0 -28 30 -28q21 0 110 11v-192q-88 -13 -158 -13q-224 0 -224 187zM131 388v31q0 38 22 53.5t78 15.5h32q49 0 69.5 -15t20.5 -54v-31q0 -37 -21.5 -52.5 t-71.5 -15.5h-31q-55 0 -76.5 15.5t-21.5 52.5z" />
<glyph unicode="&#xc0;" horiz-adv-x="665" d="M-8 0l121 621h439l121 -621h-290l-16 95h-78l-17 -95h-280zM149 769h222l61 -124h-170zM313 228h32v124h-32v-124z" />
<glyph unicode="&#xc1;" horiz-adv-x="665" d="M-8 0l121 621h439l121 -621h-290l-16 95h-78l-17 -95h-280zM225 645l61 124h222l-113 -124h-170zM313 228h32v124h-32v-124z" />
<glyph unicode="&#xc2;" horiz-adv-x="665" d="M-8 0l121 621h439l121 -621h-290l-16 95h-78l-17 -95h-280zM145 636l65 127h239l65 -127h-165l-16 34h-3l-16 -34h-169zM313 228h32v124h-32v-124z" />
<glyph unicode="&#xc3;" horiz-adv-x="665" d="M-8 0l121 621h439l121 -621h-290l-16 95h-78l-17 -95h-280zM132 640v14q0 66 25.5 97.5t91.5 31.5q34 0 109 -23v23h171v-13q0 -69 -24 -99.5t-97 -30.5q-35 0 -104 23v-23h-172zM313 228h32v124h-32v-124z" />
<glyph unicode="&#xc4;" horiz-adv-x="665" d="M-8 0l121 621h439l121 -621h-290l-16 95h-78l-17 -95h-280zM128 704q0 36 21.5 50t72.5 14q55 0 75.5 -13.5t20.5 -50.5t-20 -50t-76 -13q-52 0 -73 13t-21 50zM313 228h32v124h-32v-124zM339 704q0 36 21 50t73 14q55 0 75.5 -13.5t20.5 -50.5t-20 -50t-76 -13 q-53 0 -73.5 13t-20.5 50z" />
<glyph unicode="&#xc5;" horiz-adv-x="665" d="M-8 0l121 621h93q-4 11 -4 29q0 49 30 66t99 17q72 0 101.5 -16t29.5 -62q0 -22 -4 -34h94l121 -621h-290l-16 95h-78l-17 -95h-280zM313 228h32v124h-32v-124zM322 621h20v55h-20v-55z" />
<glyph unicode="&#xc6;" horiz-adv-x="867" d="M-20 0l260 621h627l-15 -204h-172v-36h168l-10 -166h-158v-36h183l-15 -179h-450v95h-103l-37 -95h-278zM336 228h62v169h-4z" />
<glyph unicode="&#xc7;" horiz-adv-x="468" d="M6 315q0 171 81 243t254 72q44 0 119 -10l-17 -239q-40 5 -56 5q-27 0 -38 -14t-11 -68q0 -55 11.5 -70t40.5 -15q13 0 55 8l15 -227q-72 -10 -135 -10h-17l-2 -3v-4q77 0 77 -62q0 -42 -33 -66t-94 -24q-74 0 -134 36l47 82q39 -27 84 -40l4 8l-57 25q-19 10 -19 26 q0 18 20 36q-99 25 -147 100.5t-48 210.5z" />
<glyph unicode="&#xc8;" horiz-adv-x="489" d="M20 0v621h469l-15 -204h-172v-36h168l-10 -166h-158v-36h183l-15 -179h-450zM89 769h222l61 -124h-170z" />
<glyph unicode="&#xc9;" horiz-adv-x="489" d="M20 0v621h469l-15 -204h-172v-36h168l-10 -166h-158v-36h183l-15 -179h-450zM175 645l61 124h222l-113 -124h-170z" />
<glyph unicode="&#xca;" horiz-adv-x="489" d="M20 0v621h469l-15 -204h-172v-36h168l-10 -166h-158v-36h183l-15 -179h-450zM68 636l65 127h239l65 -127h-165l-16 34h-3l-16 -34h-169z" />
<glyph unicode="&#xcb;" horiz-adv-x="489" d="M20 0v621h469l-15 -204h-172v-36h168l-10 -166h-158v-36h183l-15 -179h-450zM59 704q0 36 21.5 50t72.5 14q55 0 75.5 -13.5t20.5 -50.5t-20 -50t-76 -13q-52 0 -73 13t-21 50zM270 704q0 36 21 50t73 14q55 0 75.5 -13.5t20.5 -50.5t-20 -50t-76 -13q-53 0 -73.5 13 t-20.5 50z" />
<glyph unicode="&#xcc;" horiz-adv-x="322" d="M-7 779h222l61 -124h-170zM20 0v621h282v-621h-282z" />
<glyph unicode="&#xcd;" horiz-adv-x="322" d="M20 0v621h282v-621h-282zM43 655l61 124h222l-113 -124h-170z" />
<glyph unicode="&#xce;" horiz-adv-x="322" d="M-25 646l65 127h239l65 -127h-165l-16 34h-3l-16 -34h-169zM20 0v621h282v-621h-282z" />
<glyph unicode="&#xcf;" horiz-adv-x="322" d="M-39 714q0 36 21.5 50t72.5 14q55 0 75.5 -13.5t20.5 -50.5t-20 -50t-76 -13q-52 0 -73 13t-21 50zM19 0v621h282v-621h-282zM172 714q0 36 21 50t73 14q55 0 75.5 -13.5t20.5 -50.5t-20 -50t-76 -13q-53 0 -73.5 13t-20.5 50z" />
<glyph unicode="&#xd0;" horiz-adv-x="637" d="M-15 195v204h35v222h275q183 0 259.5 -76.5t76.5 -220.5q0 -324 -342 -324h-269v195h-35zM292 157h36v278h-36v-278z" />
<glyph unicode="&#xd1;" horiz-adv-x="652" d="M20 0v621h263l104 -201v201h245v-621h-256l-113 199v-199h-243zM122 640v14q0 66 25.5 97.5t91.5 31.5q34 0 109 -23v23h171v-13q0 -69 -24 -99.5t-97 -30.5q-35 0 -104 23v-23h-172z" />
<glyph unicode="&#xd2;" horiz-adv-x="670" d="M6 313q0 168 76.5 242.5t254.5 74.5q176 0 251.5 -73.5t75.5 -236.5q0 -170 -78 -250t-254 -80q-173 0 -249.5 79t-76.5 244zM141 779h222l61 -124h-170zM325 157h32v278h-32v-278z" />
<glyph unicode="&#xd3;" horiz-adv-x="670" d="M6 313q0 168 76.5 242.5t254.5 74.5q176 0 251.5 -73.5t75.5 -236.5q0 -170 -78 -250t-254 -80q-173 0 -249.5 79t-76.5 244zM242 655l61 124h222l-113 -124h-170zM325 157h32v278h-32v-278z" />
<glyph unicode="&#xd4;" horiz-adv-x="670" d="M6 313q0 168 76.5 242.5t254.5 74.5q176 0 251.5 -73.5t75.5 -236.5q0 -170 -78 -250t-254 -80q-173 0 -249.5 79t-76.5 244zM145 646l65 127h239l65 -127h-165l-16 34h-3l-16 -34h-169zM325 157h32v278h-32v-278z" />
<glyph unicode="&#xd5;" horiz-adv-x="670" d="M6 313q0 168 76.5 242.5t254.5 74.5q176 0 251.5 -73.5t75.5 -236.5q0 -170 -78 -250t-254 -80q-173 0 -249.5 79t-76.5 244zM135 640v14q0 66 25.5 97.5t91.5 31.5q34 0 109 -23v23h171v-13q0 -69 -24 -99.5t-97 -30.5q-35 0 -104 23v-23h-172zM325 157h32v278h-32v-278 z" />
<glyph unicode="&#xd6;" horiz-adv-x="670" d="M6 313q0 168 76.5 242.5t254.5 74.5q176 0 251.5 -73.5t75.5 -236.5q0 -170 -78 -250t-254 -80q-173 0 -249.5 79t-76.5 244zM129 704q0 36 21.5 50t72.5 14q55 0 75.5 -13.5t20.5 -50.5t-20 -50t-76 -13q-52 0 -73 13t-21 50zM325 157h32v278h-32v-278zM340 704 q0 36 21 50t73 14q55 0 75.5 -13.5t20.5 -50.5t-20 -50t-76 -13q-53 0 -73.5 13t-20.5 50z" />
<glyph unicode="&#xd7;" horiz-adv-x="456" d="M8 367l136 137l84 -85l85 85l135 -137l-82 -83l76 -78l-135 -136l-79 79l-78 -78l-135 135l76 78z" />
<glyph unicode="&#xd8;" horiz-adv-x="670" d="M6 313q0 168 77 243t254 75q24 0 36 -1l20 43h262l-59 -124q68 -74 68 -229q0 -170 -78 -250t-254 -80h-8l-18 -38h-265l52 107q-87 76 -87 254zM323 157h36v278h-36v-278z" />
<glyph unicode="&#xd9;" horiz-adv-x="644" d="M20 206v415h284v-444h32v444h288v-413q0 -218 -305 -218q-145 0 -222 54t-77 162zM121 769h222l61 -124h-170z" />
<glyph unicode="&#xda;" horiz-adv-x="644" d="M20 206v415h284v-444h32v444h288v-413q0 -218 -305 -218q-145 0 -222 54t-77 162zM236 645l61 124h222l-113 -124h-170z" />
<glyph unicode="&#xdb;" horiz-adv-x="644" d="M20 206v415h284v-444h32v444h288v-413q0 -218 -305 -218q-145 0 -222 54t-77 162zM133 636l65 127h239l65 -127h-165l-16 34h-3l-16 -34h-169z" />
<glyph unicode="&#xdc;" horiz-adv-x="644" d="M20 206v415h284v-444h32v444h288v-413q0 -218 -305 -218q-145 0 -222 54t-77 162zM118 704q0 36 21.5 50t72.5 14q55 0 75.5 -13.5t20.5 -50.5t-20 -50t-76 -13q-52 0 -73 13t-21 50zM329 704q0 36 21 50t73 14q55 0 75.5 -13.5t20.5 -50.5t-20 -50t-76 -13 q-53 0 -73.5 13t-20.5 50z" />
<glyph unicode="&#xdd;" horiz-adv-x="546" d="M-6 621h278l25 -204h12l25 204h271l-167 -460v-161h-282v162zM212 645l61 124h222l-113 -124h-170z" />
<glyph unicode="&#xde;" horiz-adv-x="594" d="M20 0v621h282v-90h17q143 0 209 -54t66 -170t-64.5 -170t-198.5 -54h-29v-83h-282zM302 230h28v124h-28v-124z" />
<glyph unicode="&#xdf;" horiz-adv-x="613" d="M-6 327v138h33v6q0 92 70 135.5t212 43.5q288 0 288 -192q0 -50 -11.5 -78t-48.5 -50v-4q40 -17 56 -50t16 -93q0 -94 -50.5 -141.5t-166.5 -47.5q-27 0 -97 6v127h21v123h-21v114h21v104h-36v-468h-253v327h-33z" />
<glyph unicode="&#xe0;" horiz-adv-x="547" d="M0 136q0 46 17 76.5t53.5 47.5t81.5 24t114 10v21l-228 -19l-19 176q149 19 283 19q115 0 169 -33t54 -112q0 -32 -2.5 -93t-2.5 -79q0 -24 25 -24l-14 -156q-60 -4 -96 -4q-90 0 -130 31h-5q-60 -31 -132 -31q-168 0 -168 146zM91 641h234l64 -130h-179zM256 116h20v80 h-20v-80z" />
<glyph unicode="&#xe1;" horiz-adv-x="547" d="M0 136q0 46 17 76.5t53.5 47.5t81.5 24t114 10v21l-228 -19l-19 176q149 19 283 19q115 0 169 -33t54 -112q0 -32 -2.5 -93t-2.5 -79q0 -24 25 -24l-14 -156q-60 -4 -96 -4q-90 0 -130 31h-5q-60 -31 -132 -31q-168 0 -168 146zM185 511l64 130h234l-119 -130h-179z M256 116h20v80h-20v-80z" />
<glyph unicode="&#xe2;" horiz-adv-x="547" d="M0 136q0 46 17 76.5t53.5 47.5t81.5 24t114 10v21l-228 -19l-19 176q149 19 283 19q115 0 169 -33t54 -112q0 -32 -2.5 -93t-2.5 -79q0 -24 25 -24l-14 -156q-60 -4 -96 -4q-90 0 -130 31h-5q-60 -31 -132 -31q-168 0 -168 146zM78 501l68 134h252l68 -134h-174l-16 36 h-4l-16 -36h-178zM256 116h20v80h-20v-80z" />
<glyph unicode="&#xe3;" horiz-adv-x="547" d="M0 136q0 46 17 76.5t53.5 47.5t81.5 24t114 10v21l-228 -19l-19 176q149 19 283 19q115 0 169 -33t54 -112q0 -32 -2.5 -93t-2.5 -79q0 -24 25 -24l-14 -156q-60 -4 -96 -4q-90 0 -130 31h-5q-60 -31 -132 -31q-168 0 -168 146zM60 505v15q0 70 26.5 103t96.5 33 q33 0 115 -24v24h180v-14q0 -72 -25.5 -104.5t-101.5 -32.5q-34 0 -110 24v-24h-181zM256 116h20v80h-20v-80z" />
<glyph unicode="&#xe4;" horiz-adv-x="547" d="M0 136q0 46 17 76.5t53.5 47.5t81.5 24t114 10v21l-228 -19l-19 176q149 19 283 19q115 0 169 -33t54 -112q0 -32 -2.5 -93t-2.5 -79q0 -24 25 -24l-14 -156q-60 -4 -96 -4q-90 0 -130 31h-5q-60 -31 -132 -31q-168 0 -168 146zM64 573q0 38 22.5 52.5t76.5 14.5 q58 0 79.5 -14.5t21.5 -52.5q0 -39 -21 -53t-80 -14q-55 0 -77 14t-22 53zM256 116h20v80h-20v-80zM286 573q0 38 22.5 52.5t76.5 14.5q58 0 79.5 -14.5t21.5 -52.5q0 -39 -21 -53t-80 -14q-55 0 -77 14t-22 53z" />
<glyph unicode="&#xe5;" horiz-adv-x="547" d="M0 136q0 46 17 76.5t53.5 47.5t81.5 24t114 10v21l-228 -19l-19 176q149 19 283 19q115 0 169 -33t54 -112q0 -32 -2.5 -93t-2.5 -79q0 -24 25 -24l-14 -156q-60 -4 -96 -4q-90 0 -130 31h-5q-60 -31 -132 -31q-168 0 -168 146zM144 579q0 49 30 66t99 17q72 0 101.5 -16 t29.5 -62q0 -51 -29 -67t-102 -16q-69 0 -99 16t-30 62zM256 116h20v80h-20v-80zM264 550h20v55h-20v-55z" />
<glyph unicode="&#xe6;" horiz-adv-x="808" d="M0 136q0 46 17 76.5t53.5 47.5t81.5 24t114 10v21l-228 -19l-19 176q149 19 283 19q81 0 130 -16q51 16 124 16q139 0 194.5 -49.5t55.5 -143.5q0 -43 -8 -118h-265v-18q43 -5 91 -5q38 0 156 6l10 -151q-138 -22 -249 -22t-186 31h-5q-83 -31 -182 -31q-168 0 -168 146z M256 116h20v80h-20v-80zM532 254h20v79h-20v-79z" />
<glyph unicode="&#xe7;" horiz-adv-x="388" d="M4 231q0 260 266 260q63 0 118 -10l-17 -200q-42 4 -45 4q-18 0 -26 -9.5t-8 -39.5q0 -34 7.5 -43t26.5 -9q8 0 46 4l11 -187q-65 -11 -113 -11l-2 -3v-4q77 0 77 -62q0 -42 -33 -66t-94 -24q-74 0 -134 36l47 82q39 -27 84 -40l4 8l-57 25q-19 10 -19 26q0 17 17 34 q-156 40 -156 229z" />
<glyph unicode="&#xe8;" horiz-adv-x="543" d="M2 237q0 254 289 254q139 0 194.5 -49.5t55.5 -143.5q0 -43 -8 -118h-265v-18q43 -5 91 -5q38 0 156 6l10 -151q-137 -22 -245 -22q-278 0 -278 247zM97 641h234l64 -130h-179zM267 254h20v79h-20v-79z" />
<glyph unicode="&#xe9;" horiz-adv-x="543" d="M2 237q0 254 289 254q139 0 194.5 -49.5t55.5 -143.5q0 -43 -8 -118h-265v-18q43 -5 91 -5q38 0 156 6l10 -151q-137 -22 -245 -22q-278 0 -278 247zM189 511l64 130h234l-119 -130h-179zM267 254h20v79h-20v-79z" />
<glyph unicode="&#xea;" horiz-adv-x="543" d="M2 237q0 254 289 254q139 0 194.5 -49.5t55.5 -143.5q0 -43 -8 -118h-265v-18q43 -5 91 -5q38 0 156 6l10 -151q-137 -22 -245 -22q-278 0 -278 247zM82 501l68 134h252l68 -134h-174l-16 36h-4l-16 -36h-178zM267 254h20v79h-20v-79z" />
<glyph unicode="&#xeb;" horiz-adv-x="543" d="M2 237q0 254 289 254q139 0 194.5 -49.5t55.5 -143.5q0 -43 -8 -118h-265v-18q43 -5 91 -5q38 0 156 6l10 -151q-137 -22 -245 -22q-278 0 -278 247zM68 573q0 38 22.5 52.5t76.5 14.5q58 0 79.5 -14.5t21.5 -52.5q0 -39 -21 -53t-80 -14q-55 0 -77 14t-22 53zM267 254 h20v79h-20v-79zM290 573q0 38 22.5 52.5t76.5 14.5q58 0 79.5 -14.5t21.5 -52.5q0 -39 -21 -53t-80 -14q-55 0 -77 14t-22 53z" />
<glyph unicode="&#xec;" horiz-adv-x="282" d="M-38 641h234l64 -130h-179zM10 0v464h262v-464h-262z" />
<glyph unicode="&#xed;" horiz-adv-x="282" d="M10 0v464h262v-464h-262zM33 511l64 130h234l-119 -130h-179z" />
<glyph unicode="&#xee;" horiz-adv-x="282" d="M-48 501l68 134h252l68 -134h-174l-16 36h-4l-16 -36h-178zM13 0v464h262v-464h-262z" />
<glyph unicode="&#xef;" horiz-adv-x="282" d="M-68 573q0 38 22.5 52.5t76.5 14.5q58 0 79.5 -14.5t21.5 -52.5q0 -39 -21 -53t-80 -14q-55 0 -77 14t-22 53zM13 0v464h262v-464h-262zM154 573q0 38 22.5 52.5t76.5 14.5q58 0 79.5 -14.5t21.5 -52.5q0 -39 -21 -53t-80 -14q-55 0 -77 14t-22 53z" />
<glyph unicode="&#xf0;" d="M4 208q0 193 229 193q35 0 67 -4l1 3q-19 22 -47 35l-132 -38v93l21 6v5h-87v153q171 0 284 -33l135 52v-132l-22 -11q113 -104 113 -265q0 -133 -66 -204t-214 -71q-135 0 -208.5 54t-73.5 164zM275 131h20v130h-20v-130z" />
<glyph unicode="&#xf1;" d="M10 0v479h242l4 -27q80 39 144 39q80 0 120 -38.5t40 -103.5v-349h-267v299h-20v-299h-263zM70 505v15q0 70 26.5 103t96.5 33q33 0 115 -24v24h180v-14q0 -72 -25.5 -104.5t-101.5 -32.5q-34 0 -110 24v-24h-181z" />
<glyph unicode="&#xf2;" horiz-adv-x="568" d="M4 241q0 132 68.5 191t215.5 59q143 0 209.5 -58t66.5 -185q0 -138 -64.5 -198t-211.5 -60q-149 0 -216.5 60t-67.5 191zM94 641h234l64 -130h-179zM276 131h20v190h-20v-190z" />
<glyph unicode="&#xf3;" horiz-adv-x="568" d="M4 241q0 132 68.5 191t215.5 59q143 0 209.5 -58t66.5 -185q0 -138 -64.5 -198t-211.5 -60q-149 0 -216.5 60t-67.5 191zM181 511l64 130h234l-119 -130h-179zM276 131h20v190h-20v-190z" />
<glyph unicode="&#xf4;" horiz-adv-x="568" d="M4 241q0 132 68.5 191t215.5 59q143 0 209.5 -58t66.5 -185q0 -138 -64.5 -198t-211.5 -60q-149 0 -216.5 60t-67.5 191zM91 501l68 134h252l68 -134h-174l-16 36h-4l-16 -36h-178zM276 131h20v190h-20v-190z" />
<glyph unicode="&#xf5;" horiz-adv-x="568" d="M4 241q0 132 68.5 191t215.5 59q143 0 209.5 -58t66.5 -185q0 -138 -64.5 -198t-211.5 -60q-149 0 -216.5 60t-67.5 191zM71 505v15q0 70 26.5 103t96.5 33q33 0 115 -24v24h180v-14q0 -72 -25.5 -104.5t-101.5 -32.5q-34 0 -110 24v-24h-181zM276 131h20v190h-20v-190z " />
<glyph unicode="&#xf6;" horiz-adv-x="568" d="M4 241q0 132 68.5 191t215.5 59q143 0 209.5 -58t66.5 -185q0 -138 -64.5 -198t-211.5 -60q-149 0 -216.5 60t-67.5 191zM74 573q0 38 22.5 52.5t76.5 14.5q58 0 79.5 -14.5t21.5 -52.5q0 -39 -21 -53t-80 -14q-55 0 -77 14t-22 53zM276 131h20v190h-20v-190zM296 573 q0 38 22.5 52.5t76.5 14.5q58 0 79.5 -14.5t21.5 -52.5q0 -39 -21 -53t-80 -14q-55 0 -77 14t-22 53z" />
<glyph unicode="&#xf7;" horiz-adv-x="445" d="M15 186v194h415v-194h-415zM117 69v31q0 37 21.5 52.5t71.5 15.5h31q55 0 76.5 -15.5t21.5 -52.5v-31q0 -38 -22 -53.5t-78 -15.5h-32q-49 0 -69.5 15t-20.5 54zM117 468v31q0 37 21.5 52.5t71.5 15.5h31q55 0 76.5 -15.5t21.5 -52.5v-31q0 -38 -22 -53.5t-78 -15.5h-32 q-49 0 -69.5 15t-20.5 54z" />
<glyph unicode="&#xf8;" horiz-adv-x="568" d="M4 241q0 132 68.5 191t215.5 59h14l21 41h219l-48 -96q70 -58 70 -188q0 -138 -64.5 -198t-211.5 -60h-10l-20 -43h-221l45 94q-78 58 -78 200zM276 131h20v190h-20v-190z" />
<glyph unicode="&#xf9;" d="M10 127v352h266v-309h20v309h264v-479h-253v32h-4q-73 -42 -150 -42q-143 0 -143 137zM79 641h234l64 -130h-179z" />
<glyph unicode="&#xfa;" d="M10 127v352h266v-309h20v309h264v-479h-253v32h-4q-73 -42 -150 -42q-143 0 -143 137zM197 511l64 130h234l-119 -130h-179z" />
<glyph unicode="&#xfb;" d="M10 127v352h266v-309h20v309h264v-479h-253v32h-4q-73 -42 -150 -42q-143 0 -143 137zM89 501l68 134h252l68 -134h-174l-16 36h-4l-16 -36h-178z" />
<glyph unicode="&#xfc;" d="M10 127v352h266v-309h20v309h264v-479h-253v32h-4q-73 -42 -150 -42q-143 0 -143 137zM75 573q0 38 22.5 52.5t76.5 14.5q58 0 79.5 -14.5t21.5 -52.5q0 -39 -21 -53t-80 -14q-55 0 -77 14t-22 53zM297 573q0 38 22.5 52.5t76.5 14.5q58 0 79.5 -14.5t21.5 -52.5 q0 -39 -21 -53t-80 -14q-55 0 -77 14t-22 53z" />
<glyph unicode="&#xfd;" horiz-adv-x="602" d="M17 479h273l17 -227h8l20 227h250l-115 -486q-17 -69 -67 -99.5t-156 -30.5h-179l-18 169h62q13 0 13 14q0 7 -7 28zM214 511l64 130h234l-119 -130h-179z" />
<glyph unicode="&#xfe;" d="M10 -136v776h255v-162q43 13 98 13q114 0 158.5 -59t44.5 -183q0 -134 -44 -196.5t-161 -62.5q-45 0 -88 10v-136h-263zM263 131h20v190h-20v-190z" />
<glyph unicode="&#xff;" horiz-adv-x="602" d="M17 479h273l17 -227h8l20 227h250l-115 -486q-17 -69 -67 -99.5t-156 -30.5h-179l-18 169h62q13 0 13 14q0 7 -7 28zM99 573q0 38 22.5 52.5t76.5 14.5q58 0 79.5 -14.5t21.5 -52.5q0 -39 -21 -53t-80 -14q-55 0 -77 14t-22 53zM321 573q0 38 22.5 52.5t76.5 14.5 q58 0 79.5 -14.5t21.5 -52.5q0 -39 -21 -53t-80 -14q-55 0 -77 14t-22 53z" />
<glyph unicode="&#x152;" horiz-adv-x="825" d="M5 313q0 168 76.5 242.5t254.5 74.5q62 0 111 -9h378l-15 -204h-172v-36h168l-10 -166h-158v-36h183l-15 -179h-363q-55 -10 -112 -10q-173 0 -249.5 79t-76.5 244zM324 157h32v278h-32v-278z" />
<glyph unicode="&#x153;" horiz-adv-x="839" d="M4 241q0 132 68.5 191t215.5 59q93 0 149 -25q56 25 148 25q139 0 194.5 -49.5t55.5 -143.5q0 -43 -8 -118h-265v-18q43 -5 91 -5q38 0 156 6l10 -151q-138 -22 -245 -22q-83 0 -140 23q-53 -23 -146 -23q-149 0 -216.5 60t-67.5 191zM276 131h20v190h-20v-190zM561 254 h20v79h-20v-79z" />
<glyph unicode="&#x178;" horiz-adv-x="546" d="M-6 621h278l25 -204h12l25 204h271l-167 -460v-161h-282v162zM98 704q0 36 21.5 50t72.5 14q55 0 75.5 -13.5t20.5 -50.5t-20 -50t-76 -13q-52 0 -73 13t-21 50zM309 704q0 36 21 50t73 14q55 0 75.5 -13.5t20.5 -50.5t-20 -50t-76 -13q-53 0 -73.5 13t-20.5 50z" />
<glyph unicode="&#x2c6;" horiz-adv-x="500" d="M53 501l68 134h252l68 -134h-174l-16 36h-4l-16 -36h-178z" />
<glyph unicode="&#x2dc;" horiz-adv-x="500" d="M43 505v15q0 70 26.5 103t96.5 33q33 0 115 -24v24h180v-14q0 -72 -25.5 -104.5t-101.5 -32.5q-34 0 -110 24v-24h-181z" />
<glyph unicode="&#x2000;" horiz-adv-x="391" />
<glyph unicode="&#x2001;" horiz-adv-x="783" />
<glyph unicode="&#x2002;" horiz-adv-x="391" />
<glyph unicode="&#x2003;" horiz-adv-x="783" />
<glyph unicode="&#x2004;" horiz-adv-x="261" />
<glyph unicode="&#x2005;" horiz-adv-x="195" />
<glyph unicode="&#x2006;" horiz-adv-x="130" />
<glyph unicode="&#x2007;" horiz-adv-x="130" />
<glyph unicode="&#x2008;" horiz-adv-x="97" />
<glyph unicode="&#x2009;" horiz-adv-x="156" />
<glyph unicode="&#x200a;" horiz-adv-x="43" />
<glyph unicode="&#x2010;" horiz-adv-x="388" d="M15 146v194h358v-194h-358z" />
<glyph unicode="&#x2011;" horiz-adv-x="388" d="M15 146v194h358v-194h-358z" />
<glyph unicode="&#x2012;" horiz-adv-x="388" d="M15 146v194h358v-194h-358z" />
<glyph unicode="&#x2013;" horiz-adv-x="383" d="M15 146v194h353v-194h-353z" />
<glyph unicode="&#x2014;" horiz-adv-x="583" d="M15 146v194h553v-194h-553z" />
<glyph unicode="&#x2018;" horiz-adv-x="252" d="M10 455v34q0 53 24.5 90.5t78.5 70.5h78l-29 -95h10q33 0 46.5 -15t13.5 -54v-31q0 -37 -21.5 -52.5t-71.5 -15.5h-31q-55 0 -76.5 15.5t-21.5 52.5z" />
<glyph unicode="&#x2019;" horiz-adv-x="252" d="M20 551v31q0 37 21.5 52.5t71.5 15.5h31q55 0 76.5 -15.5t21.5 -52.5v-34q0 -53 -24.5 -90.5t-78.5 -70.5h-78l29 95h-10q-33 0 -46.5 15t-13.5 54z" />
<glyph unicode="&#x201a;" horiz-adv-x="252" d="M10 59v31q0 37 21.5 52.5t71.5 15.5h31q55 0 76.5 -15.5t21.5 -52.5v-34q0 -53 -24.5 -90.5t-78.5 -70.5h-78l29 95h-10q-33 0 -46.5 15t-13.5 54z" />
<glyph unicode="&#x201c;" horiz-adv-x="487" d="M10 455v34q0 53 24.5 90.5t78.5 70.5h78l-29 -95h10q33 0 46.5 -15t13.5 -54v-31q0 -37 -21.5 -52.5t-71.5 -15.5h-31q-55 0 -76.5 15.5t-21.5 52.5zM245 455v34q0 53 24.5 90.5t78.5 70.5h78l-29 -95h10q33 0 46.5 -15t13.5 -54v-31q0 -37 -21.5 -52.5t-71.5 -15.5h-31 q-55 0 -76.5 15.5t-21.5 52.5z" />
<glyph unicode="&#x201d;" horiz-adv-x="487" d="M20 551v31q0 37 21.5 52.5t71.5 15.5h31q55 0 76.5 -15.5t21.5 -52.5v-34q0 -53 -24.5 -90.5t-78.5 -70.5h-78l29 95h-10q-33 0 -46.5 15t-13.5 54zM255 551v31q0 37 21.5 52.5t71.5 15.5h31q55 0 76.5 -15.5t21.5 -52.5v-34q0 -53 -24.5 -90.5t-78.5 -70.5h-78l29 95 h-10q-33 0 -46.5 15t-13.5 54z" />
<glyph unicode="&#x201e;" horiz-adv-x="487" d="M10 59v31q0 37 21.5 52.5t71.5 15.5h31q55 0 76.5 -15.5t21.5 -52.5v-34q0 -53 -24.5 -90.5t-78.5 -70.5h-78l29 95h-10q-33 0 -46.5 15t-13.5 54zM245 59v31q0 37 21.5 52.5t71.5 15.5h31q55 0 76.5 -15.5t21.5 -52.5v-34q0 -53 -24.5 -90.5t-78.5 -70.5h-78l29 95h-10 q-33 0 -46.5 15t-13.5 54z" />
<glyph unicode="&#x2022;" horiz-adv-x="451" d="M72 301q0 129 154 129q78 0 115.5 -31.5t37.5 -97.5q0 -72 -36 -101.5t-117 -29.5q-78 0 -116 30.5t-38 100.5z" />
<glyph unicode="&#x2026;" horiz-adv-x="724" d="M10 59v31q0 37 21.5 52.5t71.5 15.5h31q55 0 76.5 -15.5t21.5 -52.5v-31q0 -38 -22 -53.5t-78 -15.5h-32q-49 0 -69.5 15t-20.5 54zM252 59v31q0 37 21.5 52.5t71.5 15.5h31q55 0 76.5 -15.5t21.5 -52.5v-31q0 -38 -22 -53.5t-78 -15.5h-32q-49 0 -69.5 15t-20.5 54z M492 59v31q0 37 21.5 52.5t71.5 15.5h31q55 0 76.5 -15.5t21.5 -52.5v-31q0 -38 -22 -53.5t-78 -15.5h-32q-49 0 -69.5 15t-20.5 54z" />
<glyph unicode="&#x202f;" horiz-adv-x="156" />
<glyph unicode="&#x2039;" horiz-adv-x="346" d="M0 210v39l127 185h217l-134 -201l134 -200h-227z" />
<glyph unicode="&#x203a;" horiz-adv-x="346" d="M2 32l134 201l-134 200h227l117 -177v-39l-127 -185h-217z" />
<glyph unicode="&#x205f;" horiz-adv-x="195" />
<glyph unicode="&#x20ac;" horiz-adv-x="536" d="M0 178v110h61v15h-61v112h63q17 113 89.5 164t220.5 51q64 0 161 -17l-19 -180q-99 11 -121 11q-51 0 -60 -29h180l-8 -112h-191v-15h189l-7 -110h-167q8 -25 61 -25q19 0 120 12l20 -159q-110 -16 -176 -16q-129 0 -198 41.5t-90 146.5h-67z" />
<glyph unicode="&#x2122;" horiz-adv-x="718" d="M2 506l5 115h270l-7 -115h-50v-236h-160v236h-58zM272 270l15 351h184l18 -128h8l14 128h189l16 -351h-137l-5 141h-5l-16 -141h-126l-13 141h-6l-5 -141h-131z" />
<glyph unicode="&#x25fc;" horiz-adv-x="480" d="M0 0v480h480v-480h-480z" />
<glyph unicode="&#xfb01;" horiz-adv-x="595" d="M0 325v149h27v9q0 157 183 157q52 0 103 -6l-6 -143h-22v-27h299v-464h-262v315h-33v-315h-262v325h-27zM323 556v11q0 78 113 78h31q118 0 118 -78v-11q0 -79 -118 -79h-32q-112 0 -112 79z" />
<glyph unicode="&#xfb02;" horiz-adv-x="609" d="M0 325v149h27v9q0 157 183 157q39 0 102 -9l-6 -140h-21v-27h39v176h257v-450q0 -24 26 -24l-8 -176h-101q-176 0 -176 135v190h-33v-315h-262v325h-27z" />
<glyph unicode="&#xfb03;" horiz-adv-x="889" d="M0 325v149h27v29q0 75 39.5 111t133.5 36q50 0 118 -6l-7 -153h-26v-17h37v29q0 75 39.5 111t133.5 36q62 0 113 -6l-6 -153h-22v-27h299v-464h-262v315h-33v-315h-262v325h-33v-325h-262v325h-27zM617 556v11q0 78 113 78h31q118 0 118 -78v-11q0 -79 -118 -79h-32 q-112 0 -112 79z" />
<glyph unicode="&#xfb04;" horiz-adv-x="904" d="M0 325v149h27v29q0 75 39.5 111t133.5 36q50 0 118 -6l-7 -153h-26v-17h37v29q0 75 39.5 111t133.5 36q62 0 113 -6l-6 -153h-22v-27h37v176h259v-450q0 -24 26 -24l-8 -176h-101q-176 0 -176 135v190h-33v-315h-262v325h-33v-325h-262v325h-27z" />
</font>
</defs>
</svg>
