<?xml version="1.0" standalone="no"?>
<!DOCTYPE svg PUBLIC "-//W3C//DTD SVG 1.1//EN" "http://www.w3.org/Graphics/SVG/1.1/DTD/svg11.dtd" >
<svg xmlns="http://www.w3.org/2000/svg">
<metadata></metadata>
<defs>
<font id="passion_onebold" horiz-adv-x="563" >
<font-face units-per-em="1000" ascent="800" descent="-200" />
<missing-glyph horiz-adv-x="190" />
<glyph horiz-adv-x="1000" />
<glyph horiz-adv-x="1000" />
<glyph unicode="&#xd;" horiz-adv-x="1000" />
<glyph unicode=" "  horiz-adv-x="190" />
<glyph unicode="&#x09;" horiz-adv-x="190" />
<glyph unicode="&#xa0;" horiz-adv-x="190" />
<glyph unicode="!" horiz-adv-x="330" d="M82 621h200l-15 -445h-173zM85 69q0 42 21.5 61.5t77.5 19.5q54 0 75 -19.5t21 -63.5q0 -38 -21.5 -57.5t-74.5 -19.5q-55 0 -77 19.5t-22 59.5z" />
<glyph unicode="&#x22;" horiz-adv-x="488" d="M36 405l69 93q-33 7 -47.5 23t-14.5 52q0 43 25 62.5t78 19.5q54 0 77 -22.5t23 -70.5q0 -58 -32.5 -96.5t-90.5 -73.5zM254 405l69 93q-33 7 -47.5 23t-14.5 52q0 43 25 62.5t78 19.5q54 0 77 -22.5t23 -70.5q0 -58 -32.5 -96.5t-90.5 -73.5z" />
<glyph unicode="#" horiz-adv-x="554" d="M20 149v136h78l5 27h-59v134h78l25 146h162l-22 -146h23l22 146h162l-22 -146h62v-134h-82l-5 -27h64v-136h-84l-23 -149h-159l21 149h-25l-23 -149h-167l25 149h-56zM258 280h28l7 37h-28z" />
<glyph unicode="$" horiz-adv-x="527" d="M32 421q0 157 149 198v91h167v-83q90 -9 130 -16l-23 -176q-125 25 -162 25q-41 0 -41 -24q0 -4 1.5 -7.5t6 -6t7.5 -4.5t11.5 -5t12.5 -5q7 -3 37.5 -15.5t46 -20t42.5 -25t41 -35.5t25.5 -47t11.5 -63q0 -78 -39 -130.5t-108 -69.5v-84h-167v77q-68 6 -131 22l14 169 q134 -34 181 -34q31 0 31 22q0 10 -7.5 16t-26.5 15q-10 5 -38 16.5t-47 20t-44.5 26t-41.5 36.5t-27.5 49.5t-11.5 67.5z" />
<glyph unicode="%" horiz-adv-x="929" d="M20 405q0 117 36 171.5t138 54.5q104 0 139.5 -54t35.5 -172q0 -117 -35.5 -170t-139.5 -53q-101 0 -137.5 53.5t-36.5 169.5zM161 399q0 -36 0.5 -51t4 -32.5t11 -23.5t20.5 -6q22 0 27 23.5t5 89.5v13v30.5t-1 24t-3.5 21t-6 14t-9.5 10t-15 2.5q-12 0 -19 -5.5 t-10 -22t-3.5 -30t-0.5 -44.5v-13zM292 0l198 621h148l-199 -621h-147zM560 213q0 117 36 171.5t138 54.5q104 0 139.5 -54t35.5 -172q0 -117 -35.5 -170t-139.5 -53q-101 0 -137.5 53.5t-36.5 169.5zM701 207q0 -36 0.5 -51t4 -32.5t11 -23.5t20.5 -6q22 0 27 23.5t5 89.5 v13v30.5t-1 24t-3.5 21t-6 14t-9.5 10t-15 2.5q-12 0 -19 -5.5t-10 -22t-3.5 -30t-0.5 -44.5v-13z" />
<glyph unicode="&#x26;" horiz-adv-x="694" d="M29 184q0 69 28.5 106.5t84.5 58.5q-50 56 -50 125q0 86 52 126.5t163 40.5q215 0 215 -163q0 -65 -24.5 -98t-93.5 -75l73 -79h5v94h158v-73q0 -74 -53 -114v-4h85l-18 -139h-94q-71 0 -117 30h-7q-33 -17 -69.5 -23.5t-106.5 -6.5q-120 0 -175.5 44.5t-55.5 149.5z M228 182q0 -49 51 -49h53v4l-86 87q-18 -11 -18 -42zM283 447q0 -4 0.5 -7.5t1.5 -6.5t3 -6t3 -5t4.5 -5.5t5 -4.5t6 -5.5t6.5 -5.5q18 14 24.5 22t6.5 22q0 30 -31 30q-30 0 -30 -28z" />
<glyph unicode="'" horiz-adv-x="252" d="M38 405l69 93q-33 7 -47.5 23t-14.5 52q0 43 25 62.5t78 19.5q54 0 77 -22.5t23 -70.5q0 -58 -32.5 -96.5t-90.5 -73.5z" />
<glyph unicode="(" horiz-adv-x="388" d="M24 254q0 125 47 218t145 173l156 -48q-118 -157 -118 -342q0 -176 118 -363l-162 -39q-91 89 -138.5 180.5t-47.5 220.5z" />
<glyph unicode=")" horiz-adv-x="388" d="M16 -108q119 173 119 363q0 183 -119 341l157 49q96 -80 143.5 -174.5t47.5 -216.5q0 -125 -48.5 -219.5t-138.5 -181.5z" />
<glyph unicode="*" horiz-adv-x="467" d="M24 464l32 118l100 -22l10 97h139l8 -97l93 21l37 -117l-92 -30l67 -91l-111 -64l-70 75l-67 -74l-111 64l56 89z" />
<glyph unicode="+" horiz-adv-x="476" d="M32 209v162h125v125h162v-125h125v-162h-125v-125h-162v125h-125z" />
<glyph unicode="," horiz-adv-x="306" d="M48 -99l69 93q-33 7 -47.5 23t-14.5 52q0 43 25 62.5t78 19.5q54 0 77 -22.5t23 -70.5q0 -58 -32.5 -96.5t-90.5 -73.5z" />
<glyph unicode="-" horiz-adv-x="403" d="M32 179v162h339v-162h-339z" />
<glyph unicode="." horiz-adv-x="291" d="M48 69q0 42 21.5 61.5t77.5 19.5q54 0 75 -19.5t21 -63.5q0 -38 -21.5 -57.5t-74.5 -19.5q-55 0 -77 19.5t-22 59.5z" />
<glyph unicode="/" horiz-adv-x="417" d="M-15 -142l242 758h205l-243 -758h-204z" />
<glyph unicode="0" horiz-adv-x="539" d="M20 309q0 82 10 137.5t37 99.5t76.5 64.5t125.5 20.5q77 0 127 -20.5t76.5 -64.5t36.5 -99t10 -138q0 -82 -10 -137t-36.5 -98.5t-76.5 -63.5t-127 -20q-75 0 -125 20.5t-76.5 63.5t-37 98t-10.5 137zM222 300q0 -51 1 -72.5t5.5 -46.5t15 -33.5t29.5 -8.5q32 0 39 33 t7 128v19q0 44 -1 63.5t-5.5 42.5t-15 31t-28.5 8q-12 0 -20 -3.5t-13 -14t-8 -19.5t-4.5 -29.5t-1.5 -34.5v-44v-19z" />
<glyph unicode="1" horiz-adv-x="325" d="M4 452v113l111 56h166v-621h-207v452h-70z" />
<glyph unicode="2" horiz-adv-x="469" d="M4 586q118 45 230 45q109 0 164 -50t55 -141q0 -83 -33.5 -142t-111.5 -140v-4h147v-154h-427l-10 108q10 10 45 44t47 46t38.5 40t37 43t25 36.5t20 39.5t5.5 35q0 48 -47 48q-44 0 -152 -29z" />
<glyph unicode="3" horiz-adv-x="469" d="M4 580q106 51 224 51q105 0 162.5 -46t57.5 -129q0 -46 -17 -76t-56 -52v-4q82 -36 82 -142q0 -92 -60 -142t-175 -50q-55 0 -97.5 9t-106.5 33l44 154q108 -33 137 -33q39 0 39 43q0 44 -46 44h-88v140h87q34 0 34 38q0 42 -40 42q-28 0 -136 -37z" />
<glyph unicode="4" horiz-adv-x="548" d="M8 240l218 376h247v-353h75l-8 -146h-67v-117h-207v117h-242zM197 259h74v130h-4z" />
<glyph unicode="5" horiz-adv-x="472" d="M30 21l16 171q135 -35 166 -35q24 0 33 11t9 34q0 43 -29 43q-15 0 -23 -16l-171 20v367h395v-159h-200v-65q27 8 61 8q169 0 169 -188q0 -222 -227 -222q-107 0 -199 31z" />
<glyph unicode="6" horiz-adv-x="512" d="M16 266q0 189 102 277t337 88l-13 -164q-173 0 -209 -81q32 7 78 7q94 0 145.5 -45.5t51.5 -140.5q0 -106 -56 -161.5t-181 -55.5q-127 0 -191 70.5t-64 205.5zM222 224q0 -89 51 -89q41 0 41 58q0 30 -11.5 43.5t-36.5 13.5t-42 -4q-2 -16 -2 -22z" />
<glyph unicode="7" horiz-adv-x="465" d="M2 447v169h459v-97l-192 -519h-231l184 447h-220z" />
<glyph unicode="8" horiz-adv-x="519" d="M14 173q0 52 20.5 83t63.5 51v4q-41 28 -59.5 62t-18.5 87q0 79 64 125t174 46q113 0 176 -44t63 -123q0 -55 -17 -87.5t-59 -60.5v-4q84 -40 84 -131q0 -93 -63 -142t-184 -49q-113 0 -178.5 47t-65.5 136zM216 179q0 -22 12 -35t33 -13q41 0 41 41q0 20 -12 33.5 t-41 31.5q-33 -26 -33 -58zM222 441q0 -20 11 -32t37 -29q37 29 37 54q0 45 -44 45q-41 0 -41 -38z" />
<glyph unicode="9" horiz-adv-x="509" d="M4 416q0 100 58 157.5t175 57.5q135 0 195.5 -65t60.5 -203q0 -94 -22.5 -161.5t-73 -116t-136.5 -72t-210 -23.5l8 151q99 0 146.5 19.5t67.5 64.5q-36 -6 -76 -6q-94 0 -143.5 46.5t-49.5 150.5zM197 414q0 -32 10.5 -46.5t35.5 -14.5q27 0 46 6v18q0 48 -9 70.5 t-41 22.5q-42 0 -42 -56z" />
<glyph unicode=":" horiz-adv-x="291" d="M48 69q0 42 21.5 61.5t77.5 19.5q54 0 75 -19.5t21 -63.5q0 -38 -21.5 -57.5t-74.5 -19.5q-55 0 -77 19.5t-22 59.5zM48 361q0 42 21.5 61.5t77.5 19.5q54 0 75 -19.5t21 -63.5q0 -38 -21.5 -57.5t-74.5 -19.5q-55 0 -77 19.5t-22 59.5z" />
<glyph unicode=";" horiz-adv-x="306" d="M48 -99l69 93q-33 7 -47.5 23t-14.5 52q0 43 25 62.5t78 19.5q54 0 77 -22.5t23 -70.5q0 -58 -32.5 -96.5t-90.5 -73.5zM55 361q0 42 21.5 61.5t77.5 19.5q54 0 75 -19.5t21 -63.5q0 -38 -21.5 -57.5t-74.5 -19.5q-55 0 -77 19.5t-22 59.5z" />
<glyph unicode="&#x3c;" horiz-adv-x="499" d="M32 207v154l435 172v-160l-238 -88l238 -96v-159z" />
<glyph unicode="=" horiz-adv-x="454" d="M36 93v147h382v-147h-382zM36 280v147h382v-147h-382z" />
<glyph unicode="&#x3e;" horiz-adv-x="499" d="M32 30v159l238 96l-238 88v160l435 -172v-154z" />
<glyph unicode="?" horiz-adv-x="395" d="M24 431v174q95 21 168 21q191 0 191 -182q0 -42 -9.5 -73t-31 -54.5t-43.5 -38.5t-57 -34v-68h-167v111q0 32 13.5 52t45.5 34q30 13 41.5 23t11.5 27q0 29 -34 29q-20 0 -129 -21zM61 69q0 42 21.5 61.5t77.5 19.5q54 0 75 -19.5t21 -63.5q0 -38 -21.5 -57.5 t-74.5 -19.5q-55 0 -77 19.5t-22 59.5z" />
<glyph unicode="@" horiz-adv-x="957" d="M24 240q0 197 126 312.5t353 115.5q208 0 319 -103.5t111 -285.5q0 -289 -266 -289q-52 0 -81.5 8.5t-54.5 30.5h-7q-48 -39 -122 -39q-71 0 -108.5 38.5t-37.5 106.5q0 84 56.5 117t179.5 42v18q0 18 -19 18q-51 0 -175 -31l-22 154q160 38 248 38q92 0 131.5 -34 t39.5 -107q0 -29 -3 -97t-3 -103q0 -22 24 -22q58 0 58 150q0 121 -64 185.5t-208 64.5q-167 0 -240 -73t-73 -217q0 -154 72 -218t220 -64q90 0 210 15v-129q-110 -22 -230 -22q-218 0 -326 104t-108 316zM446 147q0 -28 23 -28q29 0 29 30v38q-52 -7 -52 -40z" />
<glyph unicode="A" d="M0 0l129 621h305l129 -621h-210l-20 96h-111l-21 -96h-201zM237 225h81l-38 208h-4z" />
<glyph unicode="B" d="M40 0v621h279q112 0 165.5 -40t53.5 -123t-70 -128v-4q81 -37 81 -144q0 -182 -226 -182h-283zM253 124h29q27 0 36 11.5t9 47.5q0 38 -9.5 53.5t-35.5 15.5h-29v-128zM253 362h30q18 0 26.5 12t8.5 41q0 30 -8.5 43t-27.5 13h-29v-109z" />
<glyph unicode="C" horiz-adv-x="465" d="M20 305q0 159 66 242.5t215 83.5q87 0 174 -34l-33 -178q-99 29 -131 29q-41 0 -58 -34.5t-17 -109.5q0 -77 17 -111.5t61 -34.5q36 0 129 22l32 -159q-98 -31 -189 -31q-139 0 -202.5 79.5t-63.5 235.5z" />
<glyph unicode="D" horiz-adv-x="599" d="M40 0v621h246q159 0 225 -76.5t66 -220.5q0 -324 -296 -324h-241zM253 156h25q51 0 66 35t15 116q0 82 -16.5 116.5t-68.5 34.5h-21v-302z" />
<glyph unicode="E" horiz-adv-x="461" d="M40 0v621h410l-14 -165h-182v-75h159v-144h-159v-85h196l-14 -152h-396z" />
<glyph unicode="F" horiz-adv-x="440" d="M40 0v621h410l-14 -165h-182v-85h138v-144h-138v-227h-214z" />
<glyph unicode="G" horiz-adv-x="592" d="M21 306q0 158 63.5 241.5t214.5 83.5q112 0 212 -31l-33 -188q-112 31 -161 31q-48 0 -63.5 -32t-15.5 -102q0 -84 14.5 -120t61.5 -36q18 0 48 6v60h-50v138h236v-357h-151l-15 32h-4q-52 -42 -123 -42q-234 0 -234 316z" />
<glyph unicode="H" horiz-adv-x="613" d="M40 0v621h214v-232h108v232h211v-621h-211v219h-108v-219h-214z" />
<glyph unicode="I" horiz-adv-x="303" d="M46 0v621h211v-621h-211z" />
<glyph unicode="J" horiz-adv-x="326" d="M4 138h50q11 0 14.5 4t3.5 13v466h210v-491q0 -80 -41 -110t-153 -30h-73z" />
<glyph unicode="K" horiz-adv-x="552" d="M40 0v621h203v-246h11l79 246h229l-129 -323l119 -298h-235l-63 206h-11v-206h-203z" />
<glyph unicode="L" horiz-adv-x="413" d="M40 0v621h214v-460h173l-14 -161h-373z" />
<glyph unicode="M" horiz-adv-x="754" d="M38 0l24 621h266l47 -281h9l46 281h263l23 -621h-189v296h-5l-59 -296h-175l-58 296h-5v-296h-187z" />
<glyph unicode="N" horiz-adv-x="607" d="M40 0v621h211l118 -253h6v253h192v-621h-204l-126 245h-7v-245h-190z" />
<glyph unicode="O" horiz-adv-x="609" d="M20 313q0 168 66.5 243t219.5 75q152 0 217.5 -74t65.5 -237q0 -170 -67.5 -250t-219.5 -80q-149 0 -215.5 79t-66.5 244zM238 283q0 -84 13 -109t58 -25q43 0 54 24t11 107v46q0 82 -13 107.5t-56 25.5t-55 -25t-12 -107v-44z" />
<glyph unicode="P" horiz-adv-x="525" d="M40 0v621h242q123 0 179 -50t56 -165t-54 -163.5t-170 -48.5h-43v-194h-210zM246 323h26q23 0 31.5 16t8.5 54t-9.5 54t-35.5 16h-21v-140z" />
<glyph unicode="Q" horiz-adv-x="613" d="M18 313q0 168 67 243t219 75t217.5 -74t65.5 -237q0 -111 -28.5 -174.5t-94.5 -103.5v-4h142l-13 -141h-42q-97 0 -162 39l-89 54q-153 0 -217.5 81.5t-64.5 241.5zM236 283q0 -84 13 -109t58 -25q43 0 54 24t11 107v46q0 82 -13 107.5t-56 25.5t-55 -25t-12 -107v-44z " />
<glyph unicode="R" d="M40 0v621h265q116 0 171 -48.5t55 -151.5q0 -60 -19.5 -95.5t-60.5 -62.5l93 -263h-221l-62 214h-16v-214h-205zM241 336h25q23 0 32.5 13.5t9.5 49.5q0 32 -10 45t-31 13h-26v-121z" />
<glyph unicode="S" horiz-adv-x="483" d="M10 421q0 100 60 155t169 55q104 0 217 -20l-23 -176q-125 25 -162 25q-41 0 -41 -24q0 -4 1.5 -7.5t6 -6t7.5 -4.5t11.5 -5t12.5 -5q7 -3 37.5 -15.5t46 -20t42.5 -25t41 -35.5t25.5 -47t11.5 -63q0 -103 -59 -157.5t-173 -54.5q-107 0 -213 27l14 169q134 -34 181 -34 q31 0 31 22q0 10 -7.5 16t-26.5 15q-10 5 -38 16.5t-47 20t-44.5 26t-41.5 36.5t-27.5 49.5t-11.5 67.5z" />
<glyph unicode="T" horiz-adv-x="476" d="M-10 452l9 169h487l-12 -169h-132v-452h-213v452h-139z" />
<glyph unicode="U" horiz-adv-x="613" d="M42 206v415h218v-401q0 -54 49 -54q48 0 48 55v400h214v-413q0 -110 -69 -164t-198 -54q-262 0 -262 216z" />
<glyph unicode="V" horiz-adv-x="574" d="M10 621h231l48 -381h12l43 381h220l-120 -621h-307z" />
<glyph unicode="W" horiz-adv-x="754" d="M20 621h196l25 -285h9l38 285h189l42 -285h7l19 285h189l-66 -621h-238l-47 252h-8l-40 -252h-238z" />
<glyph unicode="X" horiz-adv-x="573" d="M0 0l120 316l-108 305h233l46 -174h8l51 174h208l-100 -306l115 -315h-229l-56 169h-9l-60 -169h-219z" />
<glyph unicode="Y" horiz-adv-x="536" d="M0 621h225l44 -228h6l42 228h219l-164 -424v-197h-213v198z" />
<glyph unicode="Z" horiz-adv-x="527" d="M12 621h487l7 -105l-180 -357h189v-159h-470l-7 107l192 343h-207z" />
<glyph unicode="[" horiz-adv-x="379" d="M52 -137v768h283v-141h-72v-487h72v-140h-283z" />
<glyph unicode="\" horiz-adv-x="417" d="M-15 616h205l242 -758h-204z" />
<glyph unicode="]" horiz-adv-x="380" d="M44 3h74v487h-74v141h284v-768h-284v140z" />
<glyph unicode="^" horiz-adv-x="500" d="M83 511l78 131h178l78 -131h-131l-35 52l-36 -52h-132z" />
<glyph unicode="_" horiz-adv-x="400" d="M0 -22h400v-115h-400v115z" />
<glyph unicode="`" horiz-adv-x="500" d="M110 647h201l68 -130h-142z" />
<glyph unicode="a" horiz-adv-x="499" d="M14 135q0 84 56.5 117t179.5 42v18q0 18 -19 18q-51 0 -175 -31l-31 158q143 34 257 34q92 0 131.5 -34t39.5 -107q0 -29 -3 -97t-3 -103q0 -14 10.5 -18.5t37.5 -4.5l-19 -133q-60 -4 -81 -4q-73 0 -106 39h-7q-48 -39 -122 -39q-71 0 -108.5 38.5t-37.5 106.5zM204 147 q0 -28 23 -28q29 0 29 30v38q-52 -7 -52 -40z" />
<glyph unicode="b" horiz-adv-x="522" d="M30 0v641h201v-170q42 20 92 20q111 0 147.5 -55.5t36.5 -184.5q0 -66 -7.5 -110.5t-27.5 -80.5t-58 -53t-97 -17q-72 0 -115 31l-8 -21h-164zM236 136q18 -4 32 -4q21 0 26 22.5t5 82.5q0 53 -6 76.5t-26 23.5q-13 0 -31 -8v-193z" />
<glyph unicode="c" horiz-adv-x="397" d="M15 231q0 117 58 188.5t169 71.5q81 0 153 -27l-21 -158q-78 28 -110 28q-23 0 -31.5 -24t-8.5 -72q0 -52 8 -74.5t32 -22.5q36 0 101 13l22 -139q-88 -25 -148 -25q-111 0 -167.5 64t-56.5 177z" />
<glyph unicode="d" horiz-adv-x="543" d="M15 244q0 120 48.5 183.5t139.5 63.5q52 0 84 -16v166h201v-491q0 -13 9.5 -18t33.5 -5l-18 -133q-52 -4 -86 -4q-78 0 -107 39h-4q-46 -39 -109 -39q-104 0 -148 66t-44 188zM224 239q0 -60 5 -82.5t25 -22.5q21 0 33 4v194q-17 7 -32 7q-20 0 -25.5 -23t-5.5 -77z" />
<glyph unicode="e" horiz-adv-x="501" d="M15 237q0 123 62.5 188.5t185.5 65.5q120 0 170.5 -50t50.5 -143q0 -37 -8 -112h-251q4 -54 66 -54q29 0 152 21l17 -135q-106 -28 -198 -28q-120 0 -183.5 66t-63.5 181zM221 277h72v16q0 37 -35 37q-21 0 -29 -13t-8 -40z" />
<glyph unicode="f" horiz-adv-x="332" d="M1 330v135h48v48q0 135 161 135q67 0 149 -5l-16 -157q-68 6 -77 6q-10 0 -10 -10v-17h85l-11 -135h-72v-330h-209v330h-48z" />
<glyph unicode="g" horiz-adv-x="513" d="M14 89q0 59 76 90q-70 50 -70 145q0 82 58 124.5t163 42.5h272v-122h-74v-4q31 -24 31 -71q0 -157 -202 -157h-63q-8 0 -8 -9t8 -9h159q128 0 128 -104q0 -162 -253 -162q-102 0 -158 23t-56 83q0 33 35 49v4q-46 24 -46 77zM190 -16v-6q0 -7 7 -7h114q9 0 9 7v6 q0 7 -9 7h-114q-7 0 -7 -7zM224 289q0 -51 28 -51q26 0 26 49q0 27 -6 39t-22 12q-26 0 -26 -49z" />
<glyph unicode="h" horiz-adv-x="539" d="M30 0v641h201v-192q61 42 135 42q136 0 136 -126v-365h-211v310q0 16 -13 16q-20 0 -40 -10v-316h-208z" />
<glyph unicode="i" horiz-adv-x="280" d="M33 570q0 85 107 85t107 -85q0 -44 -26.5 -63t-80.5 -19t-80.5 18.5t-26.5 63.5zM37 0v469h208v-469h-208z" />
<glyph unicode="j" horiz-adv-x="285" d="M-25 7h50q12 0 15 3t3 12v447h207v-473q0 -79 -40.5 -108.5t-151.5 -29.5h-66zM37 570q0 85 107 85t107 -85q0 -44 -26.5 -63t-80.5 -19t-80.5 18.5t-26.5 63.5z" />
<glyph unicode="k" horiz-adv-x="514" d="M30 0v641h205v-330h4l70 168h217l-112 -249q19 -41 55.5 -118.5t52.5 -111.5h-225l-58 157h-4v-157h-205z" />
<glyph unicode="l" horiz-adv-x="286" d="M32 124v517h205v-471q0 -27 37 -27l-15 -153h-82q-145 0 -145 134z" />
<glyph unicode="m" horiz-adv-x="795" d="M30 0v479h189l6 -31q67 43 138 43q85 0 119 -48q68 48 145 48q138 0 138 -136v-355h-211v310q0 16 -12 16q-16 0 -40 -10v-316h-211v310q0 16 -13 16q-18 0 -40 -10v-316h-208z" />
<glyph unicode="n" horiz-adv-x="532" d="M30 0v479h189l6 -31q63 43 137 43q140 0 140 -136v-355h-211v310q0 16 -13 16q-20 0 -40 -10v-316h-208z" />
<glyph unicode="o" horiz-adv-x="510" d="M15 241q0 132 58.5 191t184.5 59q123 0 180 -58t57 -185q0 -138 -55.5 -198t-181.5 -60q-127 0 -185 60t-58 191zM224 228q0 -64 5.5 -82.5t29.5 -18.5q18 0 23.5 18.5t5.5 77.5v28q0 58 -5.5 75.5t-26.5 17.5t-26.5 -17.5t-5.5 -74.5v-24z" />
<glyph unicode="p" horiz-adv-x="522" d="M30 -137v616h172l8 -22q47 34 113 34q108 0 146 -55.5t38 -186.5q0 -136 -41 -197.5t-154 -61.5q-37 0 -74 14v-141h-208zM236 136q18 -4 32 -4q21 0 26 22.5t5 82.5q0 53 -6 76.5t-26 23.5q-13 0 -31 -8v-193z" />
<glyph unicode="q" horiz-adv-x="526" d="M15 244q0 118 48.5 182.5t139.5 64.5q69 0 109 -34l9 22h172v-616h-208v145q-40 -18 -78 -18q-105 0 -148.5 63.5t-43.5 190.5zM224 239q0 -60 5 -82.5t25 -22.5q17 0 33 4v193q-20 8 -32 8q-20 0 -25.5 -23t-5.5 -77z" />
<glyph unicode="r" horiz-adv-x="378" d="M32 0v479h178l6 -32h4q24 22 55 30.5t91 8.5l-6 -166h-68q-30 0 -42 -11t-12 -41v-268h-206z" />
<glyph unicode="s" horiz-adv-x="403" d="M6 335q0 76 51.5 116t147.5 40q79 0 184 -20l-21 -151q-132 26 -160 26q-13 0 -13 -10q0 -8 17 -14q43 -14 72 -27t57 -33t42 -48t14 -65q0 -77 -45 -118t-148 -41q-88 0 -178 21l13 147q125 -30 166 -30q14 0 14 9t-16 15q-103 35 -150 74t-47 109z" />
<glyph unicode="t" horiz-adv-x="366" d="M1 338v135h63l13 89h185v-89h91v-135h-92v-185q0 -13 12 -13q1 0 79 4l-6 -144q-100 -10 -141 -10q-78 0 -114.5 29.5t-36.5 101.5v217h-53z" />
<glyph unicode="u" horiz-adv-x="539" d="M30 126v353h210v-314q0 -16 15 -16q14 0 38 10v320h209v-477h-200v25h-6q-58 -37 -124 -37q-142 0 -142 136z" />
<glyph unicode="v" horiz-adv-x="496" d="M-12 479h217l40 -256h7l44 256h204l-115 -479h-281z" />
<glyph unicode="w" horiz-adv-x="668" d="M2 479h194l18 -213h6l28 213h167l26 -213h7l20 213h187l-70 -479h-223l-34 164h-5l-32 -164h-219z" />
<glyph unicode="x" horiz-adv-x="496" d="M0 0l100 231q-5 12 -42.5 107t-56.5 141h227l21 -123h6q4 19 12.5 64t11.5 59h214l-98 -243l101 -236h-221l-28 119h-6l-26 -119h-215z" />
<glyph unicode="y" horiz-adv-x="503" d="M-8 479h220l42 -259h4q6 33 22.5 122t24.5 137h206l-139 -487q-21 -74 -64.5 -101.5t-142.5 -27.5h-120l-23 143h80q26 0 26 17q0 11 -5 28z" />
<glyph unicode="z" horiz-adv-x="446" d="M5 322v157h419l6 -105l-153 -225h157v-149h-419l-5 113l157 209h-162z" />
<glyph unicode="{" horiz-adv-x="394" d="M12 183v139q40 0 50 4t10 24v140q0 78 32.5 109.5t112.5 31.5h133v-144h-76v-158q0 -34 -9 -48t-33 -27v-6q22 -11 32 -27t10 -47v-172h76v-139h-133q-78 0 -111.5 30.5t-33.5 102.5v158q0 21 -10.5 25t-49.5 4z" />
<glyph unicode="|" horiz-adv-x="377" d="M90 -142v758h197v-758h-197z" />
<glyph unicode="}" horiz-adv-x="394" d="M44 2h76v172q0 31 10 47t32 27v6q-24 13 -33 27t-9 48v158h-76v144h133q80 0 112.5 -31.5t32.5 -109.5v-140q0 -20 9.5 -24t50.5 -4v-139q-39 0 -49.5 -4t-10.5 -25v-158q0 -72 -33.5 -102.5t-111.5 -30.5h-133v139z" />
<glyph unicode="~" horiz-adv-x="500" d="M82 503v13q0 67 22.5 101.5t79.5 34.5q30 0 116 -26v31h133v-12q0 -66 -21.5 -101t-85.5 -35q-37 0 -111 26v-32h-133z" />
<glyph unicode="&#xa1;" horiz-adv-x="330" d="M48 -137l15 445h173l12 -445h-200zM50 417q0 38 21.5 57.5t74.5 19.5q55 0 77 -19.5t22 -59.5q0 -42 -21.5 -61.5t-77.5 -19.5q-54 0 -75 19.5t-21 63.5z" />
<glyph unicode="&#xa2;" horiz-adv-x="416" d="M20 231q0 83 30.5 145.5t89.5 91.5v104h167v-85q43 -5 93 -23l-21 -158q-78 28 -110 28q-23 0 -31.5 -24t-8.5 -72q0 -52 8 -74.5t32 -22.5q36 0 101 13l22 -139q-41 -12 -85 -20v-77h-167v91q-120 52 -120 222z" />
<glyph unicode="&#xa3;" horiz-adv-x="601" d="M2 112q0 58 34.5 89.5t94.5 31.5q27 0 61 -8v47h-98v112h65q-24 50 -24 98q0 149 187 149q79 0 199 -30l-28 -172q-108 27 -117 27q-8 0 -8 -8t18 -64h105l-12 -112h-78v-52q0 -59 -18 -96q34 -13 37 -14v75h179q0 -113 -36.5 -167t-129.5 -54q-48 0 -80.5 8.5 t-76.5 29.5h-4q-55 -24 -114 -24q-70 0 -113 32t-43 102zM139 98q0 -19 22 -19q18 0 31 15q-19 22 -35 22q-18 0 -18 -18z" />
<glyph unicode="&#xa4;" horiz-adv-x="779" d="M48 468l31 53l120 -69q69 90 192 90q128 0 196 -88l114 67q6 -9 15 -26.5t15 -26.5l-117 -68q13 -45 13 -93q0 -52 -20 -110l120 -71q-7 -13 -17 -28t-15 -23l-120 71q-69 -74 -184 -74q-117 0 -185 76q-9 -5 -54 -31.5t-68 -40.5q-6 11 -10.5 18.5t-10 16t-9.5 15.5 l124 72q-17 54 -17 109q0 43 12 88zM219 305q0 -91 45 -137t127 -46q174 0 174 184q0 88 -43.5 136t-130.5 48q-172 0 -172 -185z" />
<glyph unicode="&#xa5;" horiz-adv-x="536" d="M0 621h225l44 -228h6l42 228h219l-115 -297h58v-109h-101l-6 -19h107v-107h-107v-89h-213v89h-109v107h109l-6 19h-103v109h61z" />
<glyph unicode="&#xa6;" horiz-adv-x="377" d="M90 -142v319h197v-319h-197zM90 325v291h197v-291h-197z" />
<glyph unicode="&#xa7;" horiz-adv-x="495" d="M28 272q0 78 52 135q-14 28 -14 59q0 84 57.5 129.5t149.5 45.5q69 0 166 -16l-28 -163q-95 19 -139 19q-13 0 -13 -12q0 -9 15.5 -18.5t38.5 -18.5t50 -25t50 -35.5t38.5 -51.5t15.5 -72q0 -83 -50 -149q11 -26 11 -67q0 -85 -51.5 -132t-150.5 -47q-74 0 -181 19 l14 168q116 -27 167 -27q17 0 17 20q0 12 -16 24t-40 23t-51.5 28.5t-51.5 37.5t-40 53t-16 73zM187 313q0 -35 23 -54.5t99 -58.5q0 32 -24.5 53.5t-97.5 59.5z" />
<glyph unicode="&#xa8;" horiz-adv-x="500" d="M82 576q0 32 20 48.5t55 16.5q80 0 80 -65q0 -34 -19.5 -50t-60.5 -16q-75 0 -75 66zM268 576q0 32 20 48.5t55 16.5q80 0 80 -65q0 -34 -19.5 -50t-60.5 -16q-75 0 -75 66z" />
<glyph unicode="&#xa9;" horiz-adv-x="979" d="M48 235q0 205 112.5 311t333.5 106q231 0 344 -108.5t113 -308.5q0 -209 -111.5 -312.5t-345.5 -103.5q-230 0 -338 103.5t-108 312.5zM239 231q0 -144 58.5 -206.5t200.5 -62.5q150 0 209 61.5t59 209.5q0 149 -58 209t-208 60q-138 0 -199.5 -62.5t-61.5 -208.5z M307 223q0 117 49 179t159 62q68 0 134 -26l-20 -131q-68 19 -99 19t-43.5 -24.5t-12.5 -79.5q0 -56 13 -81t46 -25q35 0 97 15l19 -117q-77 -24 -146 -24q-196 0 -196 233z" />
<glyph unicode="&#xaa;" horiz-adv-x="416" d="M44 389q0 59 39.5 82t125.5 30v12q0 13 -13 13q-35 0 -123 -22l-22 111q101 24 180 24q65 0 92.5 -24t27.5 -75q0 -20 -2 -67.5t-2 -72.5q0 -16 33 -16l-13 -93q-31 -3 -57 -3q-50 0 -74 27h-5q-34 -27 -85 -27q-49 0 -75.5 27t-26.5 74zM177 398q0 -20 16 -20 q20 0 20 21v27q-36 -6 -36 -28z" />
<glyph unicode="&#xab;" horiz-adv-x="585" d="M4 205v66l204 211l108 -69l-116 -171l119 -171l-117 -72zM250 205v66l204 211l108 -69l-116 -171l119 -171l-117 -72z" />
<glyph unicode="&#xac;" horiz-adv-x="488" d="M32 209v162h412v-267h-179v105h-233z" />
<glyph unicode="&#xad;" horiz-adv-x="403" d="M32 179v162h339v-162h-339z" />
<glyph unicode="&#xae;" horiz-adv-x="999" d="M48 235q0 205 112.5 311t333.5 106q231 0 344 -108.5t113 -308.5q0 -209 -111.5 -312.5t-345.5 -103.5q-230 0 -338 103.5t-108 312.5zM223 231q0 -142 64 -205.5t207 -63.5q120 0 185 40h-142l-42 158h-15v-158h-152v458h201q85 0 126 -36t41 -112q0 -45 -12 -71.5 t-40 -45.5l58 -176q68 61 68 214q0 147 -62.5 208t-213.5 61q-139 0 -205 -63.5t-66 -207.5zM477 249h24q16 0 23.5 10t7.5 37q0 43 -31 43h-24v-90z" />
<glyph unicode="&#xaf;" horiz-adv-x="500" d="M98 521v121h315v-121h-315z" />
<glyph unicode="&#xb0;" horiz-adv-x="344" d="M31 497q0 65 33 97t104 32q75 0 107.5 -31t32.5 -98q0 -66 -32.5 -96.5t-107.5 -30.5q-72 0 -104.5 30.5t-32.5 96.5zM148 498q0 -30 20 -30t20 29q0 16 -4.5 22t-15.5 6q-20 0 -20 -27z" />
<glyph unicode="&#xb1;" horiz-adv-x="476" d="M32 0v152h412v-152h-412zM32 276v162h125v117h162v-117h125v-162h-125v-95h-162v95h-125z" />
<glyph unicode="&#xb2;" horiz-adv-x="396" d="M37 599q81 32 161 32q76 0 114.5 -35t38.5 -99q0 -58 -23.5 -99.5t-77.5 -97.5v-3h102v-108h-298l-7 76q7 7 24.5 24t25.5 24.5t23 22.5t22 23.5t18 21.5t16.5 22t11.5 20t8.5 21t2.5 19q0 34 -33 34q-28 0 -106 -20z" />
<glyph unicode="&#xb3;" horiz-adv-x="405" d="M47 595q75 36 157 36q73 0 113.5 -32.5t40.5 -90.5q0 -32 -12 -52.5t-40 -36.5v-3q58 -26 58 -100q0 -64 -42 -99t-123 -35q-66 0 -142 29l30 108q78 -23 96 -23q28 0 28 30q0 31 -33 31h-61v98h61q23 0 23 27q0 29 -28 29q-17 0 -95 -26z" />
<glyph unicode="&#xb4;" horiz-adv-x="500" d="M173 517l64 130h214l-139 -130h-139z" />
<glyph unicode="&#xb6;" horiz-adv-x="657" d="M16 401q0 109 68 168.5t188 59.5h312v-766h-168v615h-24v-615h-169v324q-97 3 -152 58.5t-55 155.5z" />
<glyph unicode="&#xb7;" horiz-adv-x="394" d="M84 305q0 91 117 91q60 0 88 -21.5t28 -69.5q0 -50 -27.5 -70.5t-88.5 -20.5q-60 0 -88.5 21t-28.5 70z" />
<glyph unicode="&#xb8;" horiz-adv-x="500" d="M160 -138l37 71q46 -31 70 -31q7 0 7 6q0 4 -13 11l-26 12q-23 13 -23 32q0 20 22 37h89q-15 -15 -15 -21q0 -3 17.5 -10t35 -22.5t17.5 -40.5q0 -74 -109 -74q-65 0 -109 30z" />
<glyph unicode="&#xb9;" horiz-adv-x="306" d="M44 502v79l77 40h117v-435h-145v316h-49z" />
<glyph unicode="&#xba;" horiz-adv-x="424" d="M43 464q0 92 41 133.5t130 41.5q86 0 125.5 -40.5t39.5 -129.5q0 -96 -39 -138.5t-126 -42.5q-89 0 -130 42t-41 134zM190 455q0 -45 4 -58t20 -13q13 0 17 13t4 54v20q0 40 -4 52.5t-19 12.5q-14 0 -18 -12.5t-4 -52.5v-16z" />
<glyph unicode="&#xbb;" horiz-adv-x="585" d="M20 410l117 72l198 -206v-66l-204 -211l-108 69l116 171zM266 410l117 72l198 -206v-66l-204 -211l-108 69l116 171z" />
<glyph unicode="&#xbc;" horiz-adv-x="919" d="M44 502v79l77 40h117v-435h-145v316h-49zM228 0l198 621h148l-199 -621h-147zM499 168l152 263h173v-247h53l-6 -102h-47v-82h-145v82h-169zM631 181h52v91h-3z" />
<glyph unicode="&#xbd;" horiz-adv-x="896" d="M44 502v79l77 40h117v-435h-145v316h-49zM228 0l198 621h148l-199 -621h-147zM537 410q81 32 161 32q76 0 114.5 -35t38.5 -99q0 -58 -23.5 -99.5t-77.5 -97.5v-3h102v-108h-298l-7 76q7 7 24.5 24t25.5 24.5t23 22.5t22 23.5t18 21.5t16.5 22t11.5 20t8.5 21t2.5 19 q0 34 -33 34q-28 0 -106 -20z" />
<glyph unicode="&#xbe;" horiz-adv-x="981" d="M47 595q75 36 157 36q73 0 113.5 -32.5t40.5 -90.5q0 -32 -12 -52.5t-40 -36.5v-3q58 -26 58 -100q0 -64 -42 -99t-123 -35q-66 0 -142 29l30 108q78 -23 96 -23q28 0 28 30q0 31 -33 31h-61v98h61q23 0 23 27q0 29 -28 29q-17 0 -95 -26zM303 0l198 621h148l-199 -621 h-147zM561 168l152 263h173v-247h53l-6 -102h-47v-82h-145v82h-169zM693 181h52v91h-3z" />
<glyph unicode="&#xbf;" horiz-adv-x="395" d="M12 35q0 42 9.5 73t31 54.5t43.5 38.5t57 34v68h167v-111q0 -32 -13.5 -52t-45.5 -34q-30 -13 -41.5 -23t-11.5 -27q0 -29 34 -29q20 0 129 21v-174q-94 -21 -168 -21q-191 0 -191 182zM139 412q0 38 21.5 57.5t74.5 19.5q55 0 77 -19.5t22 -59.5q0 -42 -21.5 -61.5 t-77.5 -19.5q-54 0 -75 19.5t-21 63.5z" />
<glyph unicode="&#xc0;" d="M0 0l129 621h305l129 -621h-210l-20 96h-111l-21 -96h-201zM119 775h191l65 -124h-135zM237 225h81l-38 208h-4z" />
<glyph unicode="&#xc1;" d="M0 0l129 621h305l129 -621h-210l-20 96h-111l-21 -96h-201zM185 661l61 124h203l-132 -124h-132zM237 225h81l-38 208h-4z" />
<glyph unicode="&#xc2;" d="M0 0l129 621h305l129 -621h-210l-20 96h-111l-21 -96h-201zM120 655l74 125h169l74 -125h-124l-34 50l-34 -50h-125zM237 225h81l-38 208h-4z" />
<glyph unicode="&#xc3;" d="M0 0l129 621h305l129 -621h-210l-20 96h-111l-21 -96h-201zM110 638v12q0 64 21.5 96.5t75.5 32.5q28 0 110 -24v29h126v-11q0 -63 -20 -96t-81 -33q-34 0 -106 24v-30h-126zM237 225h81l-38 208h-4z" />
<glyph unicode="&#xc4;" d="M0 0l129 621h305l129 -621h-210l-20 96h-111l-21 -96h-201zM117 707q0 62 71 62q76 0 76 -62q0 -63 -76 -63q-71 0 -71 63zM237 225h81l-38 208h-4zM294 707q0 62 71 62q76 0 76 -62q0 -63 -76 -63q-71 0 -71 63z" />
<glyph unicode="&#xc5;" d="M0 0l129 621h54q-3 11 -3 23q0 80 97 80q98 0 98 -75q0 -17 -4 -28h63l129 -621h-210l-20 96h-111l-21 -96h-201zM242 225h73l-34 184h-4zM258 646q0 -24 15 -25h7q16 1 16 25q0 26 -19 26t-19 -26z" />
<glyph unicode="&#xc6;" horiz-adv-x="764" d="M-5 0l220 621h538l-14 -165h-182v-75h159v-144h-159v-85h196l-14 -152h-396v96h-107l-33 -96h-208zM272 225h71v208h-4z" />
<glyph unicode="&#xc7;" horiz-adv-x="470" d="M21 305q0 159 66 242.5t215 83.5q87 0 174 -34l-33 -178q-99 29 -131 29q-41 0 -58 -34.5t-17 -109.5q0 -77 17 -111.5t61 -34.5q36 0 129 22l32 -159q-84 -26 -160 -30q-6 -6 -6 -12q0 -3 17.5 -10t35 -22.5t17.5 -40.5q0 -74 -109 -74q-65 0 -109 30l37 71 q46 -31 70 -31q7 0 7 6q0 4 -13 11l-26 12q-23 13 -23 32t14 31q-108 16 -157.5 94.5t-49.5 216.5z" />
<glyph unicode="&#xc8;" horiz-adv-x="461" d="M40 0v621h410l-14 -165h-182v-75h159v-144h-159v-85h196l-14 -152h-396zM85 775h191l65 -124h-135z" />
<glyph unicode="&#xc9;" horiz-adv-x="461" d="M40 0v621h410l-14 -165h-182v-75h159v-144h-159v-85h196l-14 -152h-396zM161 651l61 124h203l-132 -124h-132z" />
<glyph unicode="&#xca;" horiz-adv-x="461" d="M40 0v621h410l-14 -165h-182v-75h159v-144h-159v-85h196l-14 -152h-396zM89 645l74 125h169l74 -125h-124l-34 50l-34 -50h-125z" />
<glyph unicode="&#xcb;" horiz-adv-x="461" d="M40 0v621h410l-14 -165h-182v-75h159v-144h-159v-85h196l-14 -152h-396zM84 707q0 62 71 62q76 0 76 -62q0 -63 -76 -63q-71 0 -71 63zM261 707q0 62 71 62q76 0 76 -62q0 -63 -76 -63q-71 0 -71 63z" />
<glyph unicode="&#xcc;" horiz-adv-x="303" d="M-8 785h191l65 -124h-135zM46 0v621h211v-621h-211z" />
<glyph unicode="&#xcd;" horiz-adv-x="303" d="M47 0v621h211v-621h-211zM62 661l61 124h203l-132 -124h-132z" />
<glyph unicode="&#xce;" horiz-adv-x="303" d="M-2 655l74 125h169l74 -125h-124l-34 50l-34 -50h-125zM48 0v621h211v-621h-211z" />
<glyph unicode="&#xcf;" horiz-adv-x="303" d="M-7 717q0 62 71 62q76 0 76 -62q0 -63 -76 -63q-71 0 -71 63zM50 0v621h211v-621h-211zM170 717q0 62 71 62q76 0 76 -62q0 -63 -76 -63q-71 0 -71 63z" />
<glyph unicode="&#xd0;" horiz-adv-x="599" d="M-9 235v138h49v248h246q159 0 225 -76.5t66 -220.5q0 -324 -296 -324h-241v235h-49zM253 156h25q51 0 66 35t15 116q0 82 -16.5 116.5t-68.5 34.5h-21v-85h45v-138h-45v-79z" />
<glyph unicode="&#xd1;" horiz-adv-x="607" d="M40 0v621h211l118 -253h6v253h192v-621h-204l-126 245h-7v-245h-190zM136 638v12q0 64 21.5 96.5t75.5 32.5q28 0 110 -24v29h126v-11q0 -63 -20 -96t-81 -33q-34 0 -106 24v-30h-126z" />
<glyph unicode="&#xd2;" horiz-adv-x="609" d="M20 313q0 168 66.5 243t219.5 75q152 0 217.5 -74t65.5 -237q0 -170 -67.5 -250t-219.5 -80q-149 0 -215.5 79t-66.5 244zM124 785h191l65 -124h-135zM238 283q0 -84 13 -109t58 -25q43 0 54 24t11 107v46q0 82 -13 107.5t-56 25.5t-55 -25t-12 -107v-44z" />
<glyph unicode="&#xd3;" horiz-adv-x="609" d="M20 313q0 168 66.5 243t219.5 75q152 0 217.5 -74t65.5 -237q0 -170 -67.5 -250t-219.5 -80q-149 0 -215.5 79t-66.5 244zM225 661l61 124h203l-132 -124h-132zM238 283q0 -84 13 -109t58 -25q43 0 54 24t11 107v46q0 82 -13 107.5t-56 25.5t-55 -25t-12 -107v-44z" />
<glyph unicode="&#xd4;" horiz-adv-x="609" d="M20 313q0 168 66.5 243t219.5 75q152 0 217.5 -74t65.5 -237q0 -170 -67.5 -250t-219.5 -80q-149 0 -215.5 79t-66.5 244zM146 655l74 125h169l74 -125h-124l-34 50l-34 -50h-125zM238 283q0 -84 13 -109t58 -25q43 0 54 24t11 107v46q0 82 -13 107.5t-56 25.5t-55 -25 t-12 -107v-44z" />
<glyph unicode="&#xd5;" horiz-adv-x="609" d="M20 313q0 168 66.5 243t219.5 75q152 0 217.5 -74t65.5 -237q0 -170 -67.5 -250t-219.5 -80q-149 0 -215.5 79t-66.5 244zM129 648v12q0 64 21.5 96.5t75.5 32.5q28 0 110 -24v29h126v-11q0 -63 -20 -96t-81 -33q-34 0 -106 24v-30h-126zM238 283q0 -84 13 -109t58 -25 q43 0 54 24t11 107v46q0 82 -13 107.5t-56 25.5t-55 -25t-12 -107v-44z" />
<glyph unicode="&#xd6;" horiz-adv-x="609" d="M20 313q0 168 66.5 243t219.5 75q152 0 217.5 -74t65.5 -237q0 -170 -67.5 -250t-219.5 -80q-149 0 -215.5 79t-66.5 244zM141 707q0 62 71 62q76 0 76 -62q0 -63 -76 -63q-71 0 -71 63zM238 283q0 -84 13 -109t58 -25q43 0 54 24t11 107v46q0 82 -13 107.5t-56 25.5 t-55 -25t-12 -107v-44zM318 707q0 62 71 62q76 0 76 -62q0 -63 -76 -63q-71 0 -71 63z" />
<glyph unicode="&#xd7;" horiz-adv-x="470" d="M32 202l88 88l-88 88l115 115l88 -88l88 88l115 -115l-88 -88l88 -88l-115 -115l-88 88l-88 -88z" />
<glyph unicode="&#xd8;" horiz-adv-x="609" d="M20 313q0 168 66.5 243t219.5 75q15 0 43 -2l24 52h209l-57 -126q64 -73 64 -235q0 -170 -67.5 -250t-219.5 -80q-6 0 -16 0.5t-14 0.5l-27 -60h-212l59 131q-72 76 -72 251zM238 283q0 -84 13 -109t58 -25q43 0 54 24t11 107v46q0 82 -13 107.5t-56 25.5t-55 -25 t-12 -107v-44z" />
<glyph unicode="&#xd9;" horiz-adv-x="601" d="M36 206v415h218v-401q0 -54 49 -54q48 0 48 55v400h214v-413q0 -110 -69 -164t-198 -54q-262 0 -262 216zM124 775h191l65 -124h-135z" />
<glyph unicode="&#xda;" horiz-adv-x="601" d="M36 206v415h218v-401q0 -54 49 -54q48 0 48 55v400h214v-413q0 -110 -69 -164t-198 -54q-262 0 -262 216zM236 651l61 124h203l-132 -124h-132z" />
<glyph unicode="&#xdb;" horiz-adv-x="601" d="M36 206v415h218v-401q0 -54 49 -54q48 0 48 55v400h214v-413q0 -110 -69 -164t-198 -54q-262 0 -262 216zM142 645l74 125h169l74 -125h-124l-34 50l-34 -50h-125z" />
<glyph unicode="&#xdc;" horiz-adv-x="601" d="M36 206v415h218v-401q0 -54 49 -54q48 0 48 55v400h214v-413q0 -110 -69 -164t-198 -54q-262 0 -262 216zM139 707q0 62 71 62q76 0 76 -62q0 -63 -76 -63q-71 0 -71 63zM316 707q0 62 71 62q76 0 76 -62q0 -63 -76 -63q-71 0 -71 63z" />
<glyph unicode="&#xdd;" horiz-adv-x="536" d="M0 621h225l44 -228h6l42 228h219l-164 -424v-197h-213v198zM201 651l61 124h203l-132 -124h-132z" />
<glyph unicode="&#xde;" horiz-adv-x="516" d="M40 0v621h210v-80h19q123 0 179 -50t56 -165t-54 -163.5t-170 -48.5h-30v-114h-210zM246 246h13q23 0 31.5 16t8.5 54t-9.5 54t-35.5 16h-8v-140z" />
<glyph unicode="&#xdf;" horiz-adv-x="567" d="M1 330v135h48v8q0 176 242 176q124 0 185.5 -48t61.5 -138q0 -47 -13.5 -74t-47.5 -50v-5q84 -38 84 -148q0 -192 -196 -192q-39 0 -88 6v145q15 -1 28 -1q46 0 46 47q0 30 -18.5 42.5t-55.5 12.5v137q53 0 53 52q0 53 -42 53q-29 0 -29 -29v-459h-210v330h-48z" />
<glyph unicode="&#xe0;" horiz-adv-x="501" d="M14 135q0 84 56.5 117t179.5 42v18q0 18 -19 18q-51 0 -175 -31l-31 158q143 34 257 34q92 0 131.5 -34t39.5 -107q0 -29 -3 -97t-3 -103q0 -14 10.5 -18.5t37.5 -4.5l-19 -133q-60 -4 -81 -4q-73 0 -106 39h-7q-48 -39 -122 -39q-71 0 -108.5 38.5t-37.5 106.5zM92 647 h201l68 -130h-142zM204 147q0 -28 23 -28q29 0 29 30v38q-52 -7 -52 -40z" />
<glyph unicode="&#xe1;" horiz-adv-x="501" d="M14 135q0 84 56.5 117t179.5 42v18q0 18 -19 18q-51 0 -175 -31l-31 158q143 34 257 34q92 0 131.5 -34t39.5 -107q0 -29 -3 -97t-3 -103q0 -14 10.5 -18.5t37.5 -4.5l-19 -133q-60 -4 -81 -4q-73 0 -106 39h-7q-48 -39 -122 -39q-71 0 -108.5 38.5t-37.5 106.5zM177 517 l64 130h214l-139 -130h-139zM204 147q0 -28 23 -28q29 0 29 30v38q-52 -7 -52 -40z" />
<glyph unicode="&#xe2;" horiz-adv-x="501" d="M14 135q0 84 56.5 117t179.5 42v18q0 18 -19 18q-51 0 -175 -31l-31 158q143 34 257 34q92 0 131.5 -34t39.5 -107q0 -29 -3 -97t-3 -103q0 -14 10.5 -18.5t37.5 -4.5l-19 -133q-60 -4 -81 -4q-73 0 -106 39h-7q-48 -39 -122 -39q-71 0 -108.5 38.5t-37.5 106.5zM79 511 l78 131h178l78 -131h-131l-35 52l-36 -52h-132zM204 147q0 -28 23 -28q29 0 29 30v38q-52 -7 -52 -40z" />
<glyph unicode="&#xe3;" horiz-adv-x="501" d="M14 135q0 84 56.5 117t179.5 42v18q0 18 -19 18q-51 0 -175 -31l-31 158q143 34 257 34q92 0 131.5 -34t39.5 -107q0 -29 -3 -97t-3 -103q0 -14 10.5 -18.5t37.5 -4.5l-19 -133q-60 -4 -81 -4q-73 0 -106 39h-7q-48 -39 -122 -39q-71 0 -108.5 38.5t-37.5 106.5zM66 503 v13q0 67 22.5 101.5t79.5 34.5q30 0 116 -26v31h133v-12q0 -66 -21.5 -101t-85.5 -35q-37 0 -111 26v-32h-133zM204 147q0 -28 23 -28q29 0 29 30v38q-52 -7 -52 -40z" />
<glyph unicode="&#xe4;" horiz-adv-x="501" d="M14 135q0 84 56.5 117t179.5 42v18q0 18 -19 18q-51 0 -175 -31l-31 158q143 34 257 34q92 0 131.5 -34t39.5 -107q0 -29 -3 -97t-3 -103q0 -14 10.5 -18.5t37.5 -4.5l-19 -133q-60 -4 -81 -4q-73 0 -106 39h-7q-48 -39 -122 -39q-71 0 -108.5 38.5t-37.5 106.5zM73 576 q0 32 20 48.5t55 16.5q80 0 80 -65q0 -34 -19.5 -50t-60.5 -16q-75 0 -75 66zM204 147q0 -28 23 -28q29 0 29 30v38q-52 -7 -52 -40zM259 576q0 32 20 48.5t55 16.5q80 0 80 -65q0 -34 -19.5 -50t-60.5 -16q-75 0 -75 66z" />
<glyph unicode="&#xe5;" horiz-adv-x="501" d="M14 135q0 84 56.5 117t179.5 42v18q0 18 -19 18q-51 0 -175 -31l-31 158q143 34 257 34q92 0 131.5 -34t39.5 -107q0 -29 -3 -97t-3 -103q0 -14 10.5 -18.5t37.5 -4.5l-19 -133q-60 -4 -81 -4q-73 0 -106 39h-7q-48 -39 -122 -39q-71 0 -108.5 38.5t-37.5 106.5zM143 584 q0 84 102 84q103 0 103 -79q0 -84 -103 -84q-50 0 -76 21t-26 58zM204 147q0 -28 23 -28q29 0 29 30v38q-52 -7 -52 -40zM225 586q0 -26 20 -26t20 26q0 28 -20 28t-20 -28z" />
<glyph unicode="&#xe6;" horiz-adv-x="731" d="M14 135q0 84 56.5 117t179.5 42v18q0 18 -19 18q-51 0 -175 -31l-31 158q143 34 255 34q62 0 101 -25q43 25 110 25q120 0 171.5 -50t51.5 -143q0 -31 -8 -112h-251q4 -55 65 -55q48 0 153 22l17 -135q-106 -28 -198 -28q-101 0 -159 49q-75 -49 -173 -49 q-71 0 -108.5 38.5t-37.5 106.5zM204 147q0 -28 23 -28q29 0 29 30v38q-52 -7 -52 -40zM451 277h72v15q0 38 -35 38q-37 0 -37 -53z" />
<glyph unicode="&#xe7;" horiz-adv-x="394" d="M12 231q0 117 58 188.5t169 71.5q81 0 153 -27l-21 -158q-78 28 -110 28q-23 0 -31.5 -24t-8.5 -72q0 -52 8 -74.5t32 -22.5q36 0 101 13l22 -139q-76 -23 -131 -25q-5 -7 -5 -11q0 -3 17.5 -10t35 -22.5t17.5 -40.5q0 -74 -109 -74q-65 0 -109 30l37 71q46 -31 70 -31 q7 0 7 6q0 4 -13 11l-26 12q-23 13 -23 32t18 34q-78 18 -118 79t-40 155z" />
<glyph unicode="&#xe8;" horiz-adv-x="498" d="M12 237q0 123 62.5 188.5t185.5 65.5q120 0 170.5 -50t50.5 -143q0 -37 -8 -112h-251q4 -54 66 -54q29 0 152 21l17 -135q-106 -28 -198 -28q-120 0 -183.5 66t-63.5 181zM96 647h201l68 -130h-142zM218 277h72v16q0 37 -35 37q-21 0 -29 -13t-8 -40z" />
<glyph unicode="&#xe9;" horiz-adv-x="498" d="M12 237q0 123 62.5 188.5t185.5 65.5q120 0 170.5 -50t50.5 -143q0 -37 -8 -112h-251q4 -54 66 -54q29 0 152 21l17 -135q-106 -28 -198 -28q-120 0 -183.5 66t-63.5 181zM177 517l64 130h214l-139 -130h-139zM218 277h72v16q0 37 -35 37q-21 0 -29 -13t-8 -40z" />
<glyph unicode="&#xea;" horiz-adv-x="498" d="M12 237q0 123 62.5 188.5t185.5 65.5q120 0 170.5 -50t50.5 -143q0 -37 -8 -112h-251q4 -54 66 -54q29 0 152 21l17 -135q-106 -28 -198 -28q-120 0 -183.5 66t-63.5 181zM89 511l78 131h178l78 -131h-131l-35 52l-36 -52h-132zM218 277h72v16q0 37 -35 37q-21 0 -29 -13 t-8 -40z" />
<glyph unicode="&#xeb;" horiz-adv-x="498" d="M12 237q0 123 62.5 188.5t185.5 65.5q120 0 170.5 -50t50.5 -143q0 -37 -8 -112h-251q4 -54 66 -54q29 0 152 21l17 -135q-106 -28 -198 -28q-120 0 -183.5 66t-63.5 181zM86 576q0 32 20 48.5t55 16.5q80 0 80 -65q0 -34 -19.5 -50t-60.5 -16q-75 0 -75 66zM218 277h72 v16q0 37 -35 37q-21 0 -29 -13t-8 -40zM272 576q0 32 20 48.5t55 16.5q80 0 80 -65q0 -34 -19.5 -50t-60.5 -16q-75 0 -75 66z" />
<glyph unicode="&#xec;" horiz-adv-x="280" d="M-30 647h201l68 -130h-142zM37 0v469h208v-469h-208z" />
<glyph unicode="&#xed;" horiz-adv-x="280" d="M38 0v469h208v-469h-208zM41 517l64 130h214l-139 -130h-139z" />
<glyph unicode="&#xee;" horiz-adv-x="280" d="M-26 511l78 131h178l78 -131h-131l-35 52l-36 -52h-132zM38 0v469h208v-469h-208z" />
<glyph unicode="&#xef;" horiz-adv-x="280" d="M-28 576q0 32 20 48.5t55 16.5q80 0 80 -65q0 -34 -19.5 -50t-60.5 -16q-75 0 -75 66zM37 0v469h208v-469h-208zM158 576q0 32 20 48.5t55 16.5q80 0 80 -65q0 -34 -19.5 -50t-60.5 -16q-75 0 -75 66z" />
<glyph unicode="&#xf0;" horiz-adv-x="521" d="M15 208q0 94 51.5 143t148.5 49q38 0 61 -4l4 4q-13 30 -40 47l-116 -53v97l15 9v4q-22 4 -74 4v147q137 0 237 -34l111 50v-117l-18 -11q111 -97 111 -278q0 -131 -62.5 -203t-190.5 -72q-117 0 -177.5 51.5t-60.5 166.5zM227 194q0 -40 6.5 -57t25.5 -17 q23 0 29.5 21.5t6.5 66.5q0 41 -6 58t-26 17q-22 0 -29 -22t-7 -67z" />
<glyph unicode="&#xf1;" horiz-adv-x="539" d="M30 0v479h189l6 -31q63 43 137 43q140 0 140 -136v-355h-211v310q0 16 -13 16q-20 0 -40 -10v-316h-208zM86 503v13q0 67 22.5 101.5t79.5 34.5q30 0 116 -26v31h133v-12q0 -66 -21.5 -101t-85.5 -35q-37 0 -111 26v-32h-133z" />
<glyph unicode="&#xf2;" horiz-adv-x="504" d="M12 241q0 132 58.5 191t184.5 59q123 0 180 -58t57 -185q0 -138 -55.5 -198t-181.5 -60q-127 0 -185 60t-58 191zM91 647h201l68 -130h-142zM221 228q0 -64 5.5 -82.5t29.5 -18.5q18 0 23.5 18.5t5.5 77.5v28q0 58 -5.5 75.5t-26.5 17.5t-26.5 -17.5t-5.5 -74.5v-24z" />
<glyph unicode="&#xf3;" horiz-adv-x="504" d="M12 241q0 132 58.5 191t184.5 59q123 0 180 -58t57 -185q0 -138 -55.5 -198t-181.5 -60q-127 0 -185 60t-58 191zM167 517l64 130h214l-139 -130h-139zM221 228q0 -64 5.5 -82.5t29.5 -18.5q18 0 23.5 18.5t5.5 77.5v28q0 58 -5.5 75.5t-26.5 17.5t-26.5 -17.5 t-5.5 -74.5v-24z" />
<glyph unicode="&#xf4;" horiz-adv-x="504" d="M12 241q0 132 58.5 191t184.5 59q123 0 180 -58t57 -185q0 -138 -55.5 -198t-181.5 -60q-127 0 -185 60t-58 191zM86 511l78 131h178l78 -131h-131l-35 52l-36 -52h-132zM221 228q0 -64 5.5 -82.5t29.5 -18.5q18 0 23.5 18.5t5.5 77.5v28q0 58 -5.5 75.5t-26.5 17.5 t-26.5 -17.5t-5.5 -74.5v-24z" />
<glyph unicode="&#xf5;" horiz-adv-x="504" d="M12 241q0 132 58.5 191t184.5 59q123 0 180 -58t57 -185q0 -138 -55.5 -198t-181.5 -60q-127 0 -185 60t-58 191zM72 503v13q0 67 22.5 101.5t79.5 34.5q30 0 116 -26v31h133v-12q0 -66 -21.5 -101t-85.5 -35q-37 0 -111 26v-32h-133zM221 228q0 -64 5.5 -82.5 t29.5 -18.5q18 0 23.5 18.5t5.5 77.5v28q0 58 -5.5 75.5t-26.5 17.5t-26.5 -17.5t-5.5 -74.5v-24z" />
<glyph unicode="&#xf6;" horiz-adv-x="504" d="M12 241q0 132 58.5 191t184.5 59q123 0 180 -58t57 -185q0 -138 -55.5 -198t-181.5 -60q-127 0 -185 60t-58 191zM82 576q0 32 20 48.5t55 16.5q80 0 80 -65q0 -34 -19.5 -50t-60.5 -16q-75 0 -75 66zM221 228q0 -64 5.5 -82.5t29.5 -18.5q18 0 23.5 18.5t5.5 77.5v28 q0 58 -5.5 75.5t-26.5 17.5t-26.5 -17.5t-5.5 -74.5v-24zM268 576q0 32 20 48.5t55 16.5q80 0 80 -65q0 -34 -19.5 -50t-60.5 -16q-75 0 -75 66z" />
<glyph unicode="&#xf7;" horiz-adv-x="476" d="M32 209v162h412v-162h-412zM144 90q0 42 21.5 61.5t77.5 19.5q54 0 75 -19.5t21 -63.5q0 -38 -21.5 -57.5t-74.5 -19.5q-55 0 -77 19.5t-22 59.5zM144 488q0 42 21.5 61.5t77.5 19.5q54 0 75 -19.5t21 -63.5q0 -38 -21.5 -57.5t-74.5 -19.5q-55 0 -77 19.5t-22 59.5z" />
<glyph unicode="&#xf8;" horiz-adv-x="510" d="M15 241q0 132 58.5 191t184.5 59q19 0 29 -1l26 58h169l-49 -110q62 -59 62 -190q0 -138 -55.5 -198t-181.5 -60q-17 0 -25 1l-27 -60h-172l49 109q-68 58 -68 201zM224 228q0 -64 5.5 -82.5t29.5 -18.5q18 0 23.5 18.5t5.5 77.5v28q0 58 -5.5 75.5t-26.5 17.5 t-26.5 -17.5t-5.5 -74.5v-24z" />
<glyph unicode="&#xf9;" horiz-adv-x="539" d="M30 126v353h210v-314q0 -16 15 -16q14 0 38 10v320h209v-477h-200v25h-6q-58 -37 -124 -37q-142 0 -142 136zM90 647h201l68 -130h-142z" />
<glyph unicode="&#xfa;" horiz-adv-x="539" d="M30 126v353h210v-314q0 -16 15 -16q14 0 38 10v320h209v-477h-200v25h-6q-58 -37 -124 -37q-142 0 -142 136zM197 517l64 130h214l-139 -130h-139z" />
<glyph unicode="&#xfb;" horiz-adv-x="539" d="M30 126v353h210v-314q0 -16 15 -16q14 0 38 10v320h209v-477h-200v25h-6q-58 -37 -124 -37q-142 0 -142 136zM98 511l78 131h178l78 -131h-131l-35 52l-36 -52h-132z" />
<glyph unicode="&#xfc;" horiz-adv-x="539" d="M30 126v353h210v-314q0 -16 15 -16q14 0 38 10v320h209v-477h-200v25h-6q-58 -37 -124 -37q-142 0 -142 136zM94 576q0 32 20 48.5t55 16.5q80 0 80 -65q0 -34 -19.5 -50t-60.5 -16q-75 0 -75 66zM280 576q0 32 20 48.5t55 16.5q80 0 80 -65q0 -34 -19.5 -50t-60.5 -16 q-75 0 -75 66z" />
<glyph unicode="&#xfd;" horiz-adv-x="519" d="M0 479h220l42 -259h4q6 33 22.5 122t24.5 137h206l-139 -487q-21 -74 -64.5 -101.5t-142.5 -27.5h-120l-23 143h80q26 0 26 17q0 11 -5 28zM191 517l64 130h214l-139 -130h-139z" />
<glyph unicode="&#xfe;" horiz-adv-x="519" d="M30 -137v778h201v-171q40 21 92 21q108 0 146 -55.5t38 -186.5q0 -136 -41 -197.5t-154 -61.5q-37 0 -74 14v-141h-208zM236 136q18 -4 32 -4q21 0 26 22.5t5 82.5q0 53 -6 76.5t-26 23.5q-13 0 -31 -8v-193z" />
<glyph unicode="&#xff;" horiz-adv-x="519" d="M0 479h220l42 -259h4q6 33 22.5 122t24.5 137h206l-139 -487q-21 -74 -64.5 -101.5t-142.5 -27.5h-120l-23 143h80q26 0 26 17q0 11 -5 28zM87 576q0 32 20 48.5t55 16.5q80 0 80 -65q0 -34 -19.5 -50t-60.5 -16q-75 0 -75 66zM273 576q0 32 20 48.5t55 16.5q80 0 80 -65 q0 -34 -19.5 -50t-60.5 -16q-75 0 -75 66z" />
<glyph unicode="&#x152;" horiz-adv-x="794" d="M20 313q0 168 66.5 243t219.5 75q52 0 100 -10h377l-14 -165h-182v-75h159v-144h-159v-85h196l-14 -152h-370q-48 -10 -97 -10q-149 0 -215.5 79t-66.5 244zM238 283q0 -84 13 -109t58 -25q35 0 48 15t16 61v150q-3 50 -17.5 67t-50.5 17q-43 0 -55 -25t-12 -107v-44z " />
<glyph unicode="&#x153;" horiz-adv-x="775" d="M15 241q0 132 58.5 191t184.5 59q86 0 139 -28q56 28 138 28q120 0 171.5 -50t51.5 -143q0 -31 -8 -112h-251q4 -55 65 -55q48 0 153 22l17 -135q-106 -28 -198 -28q-77 0 -134 30q-54 -30 -144 -30q-127 0 -185 60t-58 191zM224 228q0 -64 5.5 -82.5t29.5 -18.5 q18 0 23.5 18.5t5.5 77.5v28q0 58 -5.5 75.5t-26.5 17.5t-26.5 -17.5t-5.5 -74.5v-24zM495 277h72v15q0 38 -35 38q-37 0 -37 -53z" />
<glyph unicode="&#x178;" horiz-adv-x="536" d="M0 621h225l44 -228h6l42 228h219l-164 -424v-197h-213v198zM108 717q0 62 71 62q76 0 76 -62q0 -63 -76 -63q-71 0 -71 63zM285 717q0 62 71 62q76 0 76 -62q0 -63 -76 -63q-71 0 -71 63z" />
<glyph unicode="&#x2c6;" horiz-adv-x="500" d="M83 511l78 131h178l78 -131h-131l-35 52l-36 -52h-132z" />
<glyph unicode="&#x2dc;" horiz-adv-x="500" d="M82 503v13q0 67 22.5 101.5t79.5 34.5q30 0 116 -26v31h133v-12q0 -66 -21.5 -101t-85.5 -35q-37 0 -111 26v-32h-133z" />
<glyph unicode="&#x2000;" horiz-adv-x="397" />
<glyph unicode="&#x2001;" horiz-adv-x="794" />
<glyph unicode="&#x2002;" horiz-adv-x="397" />
<glyph unicode="&#x2003;" horiz-adv-x="794" />
<glyph unicode="&#x2004;" horiz-adv-x="264" />
<glyph unicode="&#x2005;" horiz-adv-x="198" />
<glyph unicode="&#x2006;" horiz-adv-x="132" />
<glyph unicode="&#x2007;" horiz-adv-x="132" />
<glyph unicode="&#x2008;" horiz-adv-x="99" />
<glyph unicode="&#x2009;" horiz-adv-x="158" />
<glyph unicode="&#x200a;" horiz-adv-x="44" />
<glyph unicode="&#x2010;" horiz-adv-x="403" d="M32 179v162h339v-162h-339z" />
<glyph unicode="&#x2011;" horiz-adv-x="403" d="M32 179v162h339v-162h-339z" />
<glyph unicode="&#x2012;" horiz-adv-x="403" d="M32 179v162h339v-162h-339z" />
<glyph unicode="&#x2013;" horiz-adv-x="407" d="M32 167v162h343v-162h-343z" />
<glyph unicode="&#x2014;" horiz-adv-x="600" d="M32 167v162h536v-162h-536z" />
<glyph unicode="&#x2018;" horiz-adv-x="270" d="M24 485q0 58 32.5 96.5t90.5 73.5l87 -13l-69 -93q33 -7 47.5 -23t14.5 -52q0 -43 -25 -62.5t-78 -19.5q-54 0 -77 23t-23 70z" />
<glyph unicode="&#x2019;" horiz-adv-x="270" d="M36 405l69 93q-33 7 -47.5 23t-14.5 52q0 43 25 62.5t78 19.5q54 0 77 -22.5t23 -70.5q0 -58 -32.5 -96.5t-90.5 -73.5z" />
<glyph unicode="&#x201a;" horiz-adv-x="270" d="M24 -102l69 93q-33 7 -47.5 23t-14.5 52q0 43 25 62.5t78 19.5q54 0 77 -23t23 -70q0 -58 -32.5 -96.5t-90.5 -73.5z" />
<glyph unicode="&#x201c;" horiz-adv-x="488" d="M24 485q0 58 32.5 96.5t90.5 73.5l87 -13l-69 -93q33 -7 47.5 -23t14.5 -52q0 -43 -25 -62.5t-78 -19.5q-54 0 -77 23t-23 70zM242 485q0 58 32.5 96.5t90.5 73.5l87 -13l-69 -93q33 -7 47.5 -23t14.5 -52q0 -43 -25 -62.5t-78 -19.5q-54 0 -77 23t-23 70z" />
<glyph unicode="&#x201d;" horiz-adv-x="488" d="M36 405l69 93q-33 7 -47.5 23t-14.5 52q0 43 25 62.5t78 19.5q54 0 77 -22.5t23 -70.5q0 -58 -32.5 -96.5t-90.5 -73.5zM254 405l69 93q-33 7 -47.5 23t-14.5 52q0 43 25 62.5t78 19.5q54 0 77 -22.5t23 -70.5q0 -58 -32.5 -96.5t-90.5 -73.5z" />
<glyph unicode="&#x201e;" horiz-adv-x="488" d="M24 -102l69 93q-33 7 -47.5 23t-14.5 52q0 43 25 62.5t78 19.5q54 0 77 -23t23 -70q0 -58 -32.5 -96.5t-90.5 -73.5zM242 -102l69 93q-33 7 -47.5 23t-14.5 52q0 43 25 62.5t78 19.5q54 0 77 -23t23 -70q0 -58 -32.5 -96.5t-90.5 -73.5z" />
<glyph unicode="&#x2022;" horiz-adv-x="413" d="M82 306q0 62 30.5 93t96.5 31q63 0 92.5 -30.5t29.5 -93.5q0 -127 -122 -127q-63 0 -95 30t-32 97z" />
<glyph unicode="&#x2026;" horiz-adv-x="775" d="M48 69q0 42 21.5 61.5t77.5 19.5q54 0 75 -19.5t21 -63.5q0 -38 -21.5 -57.5t-74.5 -19.5q-55 0 -77 19.5t-22 59.5zM296 69q0 42 21.5 61.5t77.5 19.5q54 0 75 -19.5t21 -63.5q0 -38 -21.5 -57.5t-74.5 -19.5q-55 0 -77 19.5t-22 59.5zM541 69q0 42 21.5 61.5t77.5 19.5 q54 0 75 -19.5t21 -63.5q0 -38 -21.5 -57.5t-74.5 -19.5q-55 0 -77 19.5t-22 59.5z" />
<glyph unicode="&#x202f;" horiz-adv-x="158" />
<glyph unicode="&#x2039;" horiz-adv-x="339" d="M4 205v66l204 211l108 -69l-116 -171l119 -171l-117 -72z" />
<glyph unicode="&#x203a;" horiz-adv-x="339" d="M20 410l117 72l198 -206v-66l-204 -211l-108 69l116 171z" />
<glyph unicode="&#x205f;" horiz-adv-x="198" />
<glyph unicode="&#x20ac;" horiz-adv-x="531" d="M16 192v98h50v19h-50v99h55q43 223 276 223q83 0 166 -30l-26 -168q-103 15 -130 15q-44 0 -57 -40h184l-13 -99h-191v-19h190l-12 -98h-165q15 -35 69 -35q16 0 110 10l26 -154q-87 -23 -166 -23q-105 0 -171 53t-87 149h-58z" />
<glyph unicode="&#x2122;" horiz-adv-x="656" d="M20 526l6 95h249l-6 -95h-62v-250h-118v250h-69zM275 276l12 345h150l17 -149h4l15 149h149l14 -345h-109v155h-6l-14 -155h-106l-14 155h-6v-155h-106z" />
<glyph unicode="&#x25fc;" horiz-adv-x="480" d="M0 0v480h480v-480h-480z" />
<glyph unicode="&#xfb01;" horiz-adv-x="589" d="M1 330v135h48v48q0 135 161 135q62 0 121 -3l-12 -156q-39 3 -53 3q-10 0 -10 -10v-17h297v-465h-208v330h-87v-330h-209v330h-48zM341 570q0 85 107 85t107 -85q0 -44 -26.5 -63t-80.5 -19t-80.5 18.5t-26.5 63.5z" />
<glyph unicode="&#xfb02;" horiz-adv-x="599" d="M1 330v135h48v48q0 135 161 135q37 0 121 -7l-12 -152q-34 3 -53 3q-10 0 -10 -10v-17h89v176h205v-471q0 -27 37 -27l-15 -153h-82q-145 0 -145 134v206h-87v-330h-209v330h-48z" />
<glyph unicode="&#xfb03;" horiz-adv-x="885" d="M1 330v135h48v48q0 135 161 135q39 0 129 -4l-14 -155q-39 3 -59 3q-10 0 -10 -10v-17h90v48q0 135 161 135q63 0 121 -3l-12 -156q-39 3 -53 3q-10 0 -10 -10v-17h297v-465h-208v330h-87v-330h-209v330h-88v-330h-209v330h-48zM637 570q0 85 107 85t107 -85 q0 -44 -26.5 -63t-80.5 -19t-80.5 18.5t-26.5 63.5z" />
<glyph unicode="&#xfb04;" horiz-adv-x="895" d="M1 330v135h48v48q0 135 161 135q39 0 129 -4l-14 -155q-39 3 -59 3q-10 0 -10 -10v-17h89v48q0 135 161 135q37 0 121 -7l-12 -152q-34 3 -53 3q-10 0 -10 -10v-17h89v176h205v-471q0 -27 37 -27l-15 -153h-82q-145 0 -145 134v206h-87v-330h-209v330h-87v-330h-209v330 h-48z" />
</font>
</defs>
</svg>
