<?xml version="1.0" standalone="no"?>
<!DOCTYPE svg PUBLIC "-//W3C//DTD SVG 1.1//EN" "http://www.w3.org/Graphics/SVG/1.1/DTD/svg11.dtd" >
<svg xmlns="http://www.w3.org/2000/svg">
<metadata></metadata>
<defs>
<font id="andadaregular" horiz-adv-x="560" >
<font-face units-per-em="1000" ascent="800" descent="-200" />
<missing-glyph horiz-adv-x="224" />
<glyph unicode="&#xa8;I" horiz-adv-x="363" d="M40 824q0 28 14 44t40 16q54 0 54 -60q0 -59 -54 -59t-54 59zM48 45l79 16q9 59 9 76v431q0 18 -9 76l-77 12l5 54q96 -5 116 -5l137 5l4 -59l-78 -7q-7 -49 -7 -106v-371q0 -57 7 -106l90 -7l-7 -59q-66 5 -146 5l-118 -5zM216 824q0 28 14 44t40 16q54 0 54 -60 q0 -59 -54 -59t-54 59z" />
<glyph unicode="&#xa8;O" horiz-adv-x="740" d="M42 352q0 168 84.5 268t243.5 100t243.5 -100t84.5 -268t-84.5 -267.5t-243.5 -99.5t-243.5 99.5t-84.5 267.5zM149 352q0 -138 57 -226t164 -88t164 88t57 226t-57 226.5t-164 88.5t-164 -88.5t-57 -226.5zM198 824q0 28 14 44t40 16q54 0 54 -60q0 -59 -54 -59t-54 59z M434 824q0 28 14 44t40 16q54 0 54 -60q0 -59 -54 -59t-54 59z" />
<glyph unicode="&#xb4;Y" horiz-adv-x="663" d="M6 651l5 54h109l147 5l4 -49l-79 -20q11 -49 43 -108l101 -189l115 234l28 63l-76 10l5 54h90l143 5l4 -49l-68 -17q-36 -47 -63 -99l-140 -272v-106q0 -57 7 -106l90 -7l-7 -59q-66 5 -146 5l-118 -5l-5 50l79 16q9 58 9 76v120l-155 299q-9 18 -23 39.5t-23 33.5 l-10 12zM222 798l229 100l30 -73q-132 -32 -151 -38l-88 -37z" />
<glyph unicode="&#xa8;i" horiz-adv-x="301" d="M-8 653q0 28 14 44t40 16q54 0 54 -60q0 -59 -54 -59t-54 59zM36 45l76 16q10 56 10 76v216l-10 76l-76 16l5 53q72 -4 92 -4h58l19 -18q-7 -103 -7 -153v-156l7 -106l78 -7l-7 -59q-49 5 -129 5l-111 -5zM168 653q0 28 14 44t40 16q54 0 54 -60q0 -59 -54 -59t-54 59z " />
<glyph unicode="&#xa8;o" horiz-adv-x="540" d="M40 246q0 118 59.5 187.5t170.5 69.5q113 0 171.5 -69t58.5 -188q0 -117 -59.5 -186.5t-170.5 -69.5t-170.5 69.5t-59.5 186.5zM106 653q0 28 14 44t40 16q54 0 54 -60q0 -59 -54 -59t-54 59zM134 246q0 -87 32 -143t104 -56t104 56t32 143t-32 143.5t-104 56.5 t-104 -56.5t-32 -143.5zM342 653q0 28 14 44t40 16q54 0 54 -60q0 -59 -54 -59t-54 59z" />
<glyph unicode="&#xb4;y" horiz-adv-x="539" d="M0 445l5 52q62 -3 82 -3l137 5l3 -58l-72 -7q13 -57 25 -85l99 -245l87 232q14 39 27 97l-73 12l5 52q67 -3 87 -3l115 5l3 -58l-53 -8q-36 -73 -52 -114l-206 -554l-161 11l8 58l40 -1q14 0 67 10q25 35 38 68l32 89l-143 333q-15 37 -51 100zM176 605l180 150l47 -60 q-106 -60 -121 -71l-73 -60z" />
<glyph unicode="&#xfb01;" horiz-adv-x="608" d="M36 45l76 16q10 56 10 76v303h-77l-3 42q46 14 80 29v86q0 80 45.5 126.5t130.5 46.5q13 0 31 -2.5t30 -5.5l12 -2l-11 -135l-53 3v36q0 14 -13 53h-3q-56 0 -72 -36t-16 -115l2 -72h293l19 -18q-7 -103 -7 -153v-156l7 -106l78 -7l-7 -59q-49 5 -129 5l-111 -5l-5 50 l76 16q10 56 10 76v216l-10 76q-39 11 -70 11h-146v-273l7 -106l98 -7l-7 -59q-69 5 -149 5l-111 -5zM401 655q0 29 15.5 47t43.5 18t43.5 -17t15.5 -48q0 -29 -15.5 -46.5t-43.5 -17.5t-43.5 17.5t-15.5 46.5z" />
<glyph unicode="&#xfb02;" horiz-adv-x="616" d="M36 45l76 16q10 56 10 76v303h-77l-3 42q9 3 28 8.5t30.5 10t21.5 10.5v86q0 80 45.5 126.5t130.5 46.5q32 0 84 -7t85 -7h31l19 -18q-7 -103 -7 -153v-418l7 -106l78 -7l-7 -59q-59 5 -139 5l-101 -5l-5 50l76 16q10 56 10 76v478q0 19 -11 85q-68 17 -120 17 q-26 0 -44 -7.5t-28 -19t-15.5 -33t-6.5 -40.5t-1 -51l2 -72h138l-5 -54h-135v-273l7 -106l98 -7l-7 -59q-69 5 -149 5l-111 -5z" />
<glyph horiz-adv-x="1000" />
<glyph horiz-adv-x="1000" />
<glyph unicode="&#xd;" horiz-adv-x="1000" />
<glyph unicode=" "  horiz-adv-x="224" />
<glyph unicode="&#x09;" horiz-adv-x="224" />
<glyph unicode="&#xa0;" horiz-adv-x="224" />
<glyph unicode="!" horiz-adv-x="229" d="M70 55q0 29 15.5 46.5t43.5 17.5t43.5 -17.5t15.5 -46.5t-15.5 -47t-43.5 -18t-43.5 17t-15.5 48zM79 713l90 7l19 -18q-25 -237 -25 -394l3 -85l-7 -6q-18 3 -72 3q1 36 1 66z" />
<glyph unicode="&#x22;" horiz-adv-x="299" d="M35 756h89l-13 -243l-58 3l1 94zM175 756h89l-13 -243l-58 3l1 94z" />
<glyph unicode="#" horiz-adv-x="570" d="M32 150v66l129 1l19 121l-128 -1v71h139l26 164l60 -10l-25 -154h111l26 164l60 -10l-25 -154h123v-66l-133 -2l-19 -121l132 2v-71h-143l-26 -165l-60 10l24 155h-110l-26 -165l-60 10l24 155h-118zM222 218l111 1l19 121l-111 -1z" />
<glyph unicode="$" horiz-adv-x="521" d="M50 39l15 150l62 -6l-1 -54q0 -8 10 -58q50 -19 96 -23l10 244l-30 14q-71 34 -114.5 76.5t-43.5 110.5q0 80 55.5 124t145.5 44h2l4 98l34 -3l-4 -97q55 -5 147 -28l-15 -144l-54 6l1 47q0 4 -13 49q-35 14 -68 18l-10 -228l29 -15l48 -27t42 -29t39 -37.5t23.5 -44.5 t10.5 -58q0 -82 -58 -128.5t-149 -49.5l-3 -82l-35 3l3 80q-49 3 -93.5 15t-65.5 22zM147 510q0 -36 25 -62t74 -52l9 213h-3q-46 0 -75.5 -26t-29.5 -73zM266 48q50 4 78.5 32.5t28.5 77.5q0 38 -25.5 65t-72.5 52z" />
<glyph unicode="%" horiz-adv-x="785" d="M41 493q0 75 39.5 124t110.5 49t110.5 -49t39.5 -124v-1q0 -75 -39.5 -124t-110.5 -49t-110.5 49t-39.5 125zM116 492q0 -50 17.5 -85t57.5 -35t57.5 35t17.5 86q0 50 -17.5 85t-57.5 35t-57.5 -35t-17.5 -86zM144 -17l434 738l50 -32l-433 -738zM423 163q0 75 39.5 124 t110.5 49t110.5 -49t39.5 -124v-1q0 -75 -39.5 -124t-110.5 -49t-110.5 49t-39.5 125zM498 162q0 -50 17.5 -85t57.5 -35t57.5 35t17.5 86q0 50 -17.5 85t-57.5 35t-57.5 -35t-17.5 -86z" />
<glyph unicode="&#x26;" horiz-adv-x="725" d="M50 190q0 122 125 196q-53 75 -53 136q0 72 49.5 106t132.5 34q34 0 83 -10.5t75 -20.5l-13 -140l-55 3q2 39 2 46l-10 48q-32 25 -82 25q-42 0 -68 -25t-26 -66q0 -34 21 -74t65.5 -89.5t82 -86t101.5 -95.5q16 42 16 102q0 17 -9 57l-68 6l6 58h91l122 5l5 -53l-77 -16 q-5 -35 -5 -69q0 -76 -32 -135l30 -28q3 -3 58 -43l79 -7l-7 -59q-49 5 -129 5h-21l-8 25l-46 46q-81 -81 -209 -81q-96 0 -161 54.5t-65 145.5zM139 197q0 -63 38.5 -105t99.5 -42q107 0 164 62q-19 18 -59.5 55.5t-63.5 59.5t-54 54t-53 58q-72 -55 -72 -142z" />
<glyph unicode="'" horiz-adv-x="159" d="M35 756h89l-13 -243l-58 3l1 94z" />
<glyph unicode="(" horiz-adv-x="271" d="M50 317q0 273 179 452l32 -26q-62 -91 -70 -112q-59 -156 -59 -314t59 -314q4 -9 21.5 -37t33.5 -52l15 -23l-32 -26q-179 179 -179 452z" />
<glyph unicode=")" horiz-adv-x="271" d="M10 -109q62 91 70 112q59 156 59 314t-59 314q-4 9 -21.5 37l-32.5 52l-16 23l32 26q179 -179 179 -452t-179 -452z" />
<glyph unicode="*" horiz-adv-x="409" d="M43 499l97 70l-48 38l-48 27l17 40l109 -50q9 56 9 61v56l43 5l12 -119q53 21 56 23l49 28l26 -35l-98 -70q38 -32 48 -37l49 -28l-17 -40l-110 49q-8 -50 -8 -61v-55l-43 -5l-12 119q-44 -17 -57 -23l-48 -28z" />
<glyph unicode="+" d="M22 218v75h220v218h70l2 -218h223v-70l-223 -3l3 -220h-75v220z" />
<glyph unicode="," horiz-adv-x="220" d="M34 -104q71 30 71 94q-26 2 -40.5 22t-14.5 48q0 30 16.5 49.5t45.5 19.5q63 0 63 -89q0 -60 -34.5 -111.5t-96.5 -64.5z" />
<glyph unicode="-" horiz-adv-x="282" d="M30 291h222l-5 -75h-215z" />
<glyph unicode="." horiz-adv-x="213" d="M40 59q0 31 17 50.5t47 19.5t47 -18.5t17 -51.5q0 -31 -17 -50t-47 -19t-47 19t-17 50z" />
<glyph unicode="/" horiz-adv-x="376" d="M7 -47l311 820l63 -20l-310 -820z" />
<glyph unicode="0" horiz-adv-x="580" d="M50 326q0 147 59 241.5t181 94.5t181 -94.5t59 -241.5t-59 -241.5t-181 -94.5t-181 94.5t-59 241.5zM149 326q0 -276 141 -276t141 276t-141 276t-141 -276z" />
<glyph unicode="1" horiz-adv-x="389" d="M24 507q117 92 137 108q5 4 16.5 18.5t20.5 26.5l10 12l47 -12q-7 -184 -7 -234v-259q0 -57 7 -106l82 -7l-7 -59q-53 5 -133 5l-135 -5l-5 50l99 16q9 59 9 76v387l-114 -59z" />
<glyph unicode="2" horiz-adv-x="515" d="M36 73q146 147 207 216t83 110t22 87q0 53 -32 86.5t-83 33.5q-52 0 -100 -28q-10 -32 -10 -51l2 -45l-55 -3l-13 147q91 36 186 36q93 0 146.5 -42.5t53.5 -118.5q0 -88 -62 -170.5t-252 -257.5h188q10 0 84 8l14 35l5 47l55 -4l-9 -142l-19 -20q-97 3 -121 3h-276z" />
<glyph unicode="3" horiz-adv-x="470" d="M13 -52q138 22 222.5 83t84.5 135q0 55 -37.5 89t-99.5 34l-69 -3l-14 48q193 24 193 151q0 59 -28 91t-80 32q-45 0 -79 -22q-10 -40 -10 -50l2 -45l-55 -3l-13 145q84 29 158 29q97 0 148 -42t51 -121q0 -55 -31 -97.5t-88 -66.5q71 -20 109 -63t38 -104 q0 -102 -106.5 -178t-277.5 -95z" />
<glyph unicode="4" horiz-adv-x="529" d="M5 254l360 485l69 -51q-124 -131 -139 -154l-187 -280l200 3v142l78 27v-164l92 6v-67h-92v-34q0 -57 7 -106l83 -7l-7 -59q-50 5 -130 5l-138 -5l-5 50l103 16q9 63 9 76v64h-259z" />
<glyph unicode="5" horiz-adv-x="462" d="M42 -52q131 19 210.5 73t79.5 145q0 64 -37.5 97.5t-108.5 33.5q-41 0 -96 -13l-37 21l17 329l19 18h68l243 10l6 -67q-178 -23 -208 -23h-64q-9 -127 -12 -217q41 9 82 9q104 0 163.5 -48.5t59.5 -139.5q0 -119 -101.5 -191.5t-265.5 -89.5z" />
<glyph unicode="6" horiz-adv-x="522" d="M45 246q0 81 26.5 160t77.5 149t134 121t187 71l12 -51q-94 -27 -163.5 -77.5t-107 -113t-55 -127t-17.5 -132.5q0 -80 35 -140t102 -60q58 0 92 45.5t34 108.5t-31.5 103.5t-90.5 40.5l-65 -5l-6 48q47 16 80 16q97 0 152.5 -53.5t55.5 -149.5q0 -91 -64 -151t-157 -60 q-110 0 -170.5 70.5t-60.5 186.5z" />
<glyph unicode="7" horiz-adv-x="506" d="M60 493l9 148l19 20q98 -9 122 -9h267l16 -39l-286 -718l-78 25l214 502q8 17 44 157h-168q-22 0 -85 -6q-12 -25 -14 -34l-5 -50z" />
<glyph unicode="8" horiz-adv-x="520" d="M40 164q0 102 141 183q-56 32 -87.5 72.5t-31.5 101.5q0 74 58 117.5t140 43.5q81 0 139.5 -44t58.5 -119q0 -96 -122 -171q67 -36 105.5 -79t38.5 -107q0 -82 -63 -127t-157 -45t-157 44.5t-63 129.5zM131 164q0 -57 36.5 -92t92.5 -35q54 0 91.5 34.5t37.5 88.5 q0 27 -10.5 49t-36 42.5t-44 32t-56.5 32.5q-6 2 -9 4q-102 -72 -102 -156zM149 523q0 -22 8.5 -42t18 -32.5t33 -29t36 -23.5t43.5 -24l1 -1q82 68 82 148q0 49 -32 82.5t-79 33.5q-44 0 -77.5 -33.5t-33.5 -78.5z" />
<glyph unicode="9" horiz-adv-x="525" d="M25 449q0 92 63.5 152.5t157.5 60.5q111 0 172.5 -72t61.5 -189q0 -84 -24.5 -162.5t-73.5 -148.5t-131.5 -122.5t-188.5 -74.5l-14 52q95 30 163 81.5t104 115t51.5 127t15.5 132.5q0 81 -35.5 142.5t-102.5 61.5q-58 0 -90 -45t-32 -111q0 -58 35.5 -100t90.5 -42 q41 0 62 3l7 -47q-35 -15 -78 -15q-94 0 -154 55t-60 146z" />
<glyph unicode=":" horiz-adv-x="203" d="M40 54q0 29 15.5 47t43.5 18t43.5 -17t15.5 -48q0 -29 -15.5 -46.5t-43.5 -17.5t-43.5 17.5t-15.5 46.5zM40 407q0 29 15.5 47t43.5 18t43.5 -17t15.5 -48q0 -29 -15.5 -46.5t-43.5 -17.5t-43.5 17.5t-15.5 46.5z" />
<glyph unicode=";" horiz-adv-x="220" d="M34 -104q71 30 71 94q-26 2 -40.5 22t-14.5 48q0 30 16.5 49.5t45.5 19.5q63 0 63 -89q0 -60 -34.5 -111.5t-96.5 -64.5zM52 407q0 29 15.5 47t43.5 18t43.5 -17t15.5 -48q0 -29 -15.5 -46.5t-43.5 -17.5t-43.5 17.5t-15.5 46.5z" />
<glyph unicode="&#x3c;" d="M102 247l302 266l53 -53l-253 -212l254 -210l-53 -53z" />
<glyph unicode="=" d="M52 119v66l455 5v-71h-455zM52 307v71h455v-66z" />
<glyph unicode="&#x3e;" d="M102 38l254 210l-253 212l53 53l302 -266l-303 -262z" />
<glyph unicode="?" horiz-adv-x="403" d="M33 688q85 39 157 39q102 0 161 -57.5t59 -159.5q0 -91 -63 -145t-159 -54l4 -88l-7 -6q-18 3 -68 3l-4 3v129l26 24q30 -4 51 -4q59 0 92.5 38.5t33.5 100.5q0 69 -32 114t-93 45q-50 0 -84 -26q-6 -21 -6 -58l2 -36h-58zM96 55q0 29 15.5 46.5t43.5 17.5t43.5 -17.5 t15.5 -46.5t-15.5 -47t-43.5 -18t-43.5 17t-15.5 48z" />
<glyph unicode="@" horiz-adv-x="912" d="M40 232q0 67 14 128t46 118t79.5 98t120 66t161.5 25q189 0 300 -101t111 -279q0 -109 -70.5 -195t-191.5 -96l-18 14l-13 69q-20 -37 -68 -63t-101 -26q-62 0 -98.5 36t-36.5 97q0 95 115 124q39 10 179 31v33q0 138 -94 138q-55 0 -93 -19q-9 -45 -9 -47v-36l-58 -3 l-11 135q90 24 181 24q95 0 130 -51.5t35 -160.5v-154l12 -91q45 10 75.5 51t42 89.5t11.5 100.5q0 149 -88.5 240t-241.5 91q-81 0 -143 -28.5t-96.5 -70.5t-56 -97.5t-28 -100.5t-6.5 -89q0 -86 18.5 -154t57 -120.5t104.5 -80.5t155 -28q16 0 63 10t87 20l39 10l16 -31 q-153 -71 -205 -71q-97 0 -173 27t-122.5 70t-77 102.5t-42 119.5t-11.5 126zM363 128q0 -35 19 -54.5t54 -19.5q50 0 87.5 32t45.5 81v60q-105 -17 -143 -27q-63 -16 -63 -72z" />
<glyph unicode="A" horiz-adv-x="664" d="M10 44l63 17l43 99l179 545l58 10l206 -566l39 -85l62 -10l-5 -54h-101l-143 -5l-4 49l73 20l-27 108l-21 60h-220l-32 -105l-10 -63l70 -10l-5 -54h-86l-135 -5zM230 282l182 4l-94 271z" />
<glyph unicode="B" horiz-adv-x="598" d="M48 45l73 16q9 59 9 76v431q0 18 -9 76l-71 12l5 54q74 -4 102 -5q28 0 85.5 5t89.5 5q81 0 135.5 -46t54.5 -126q0 -65 -38.5 -111.5t-100.5 -61.5v-7q77 -12 123.5 -58.5t46.5 -121.5q0 -85 -58.5 -136.5t-145.5 -51.5q-24 0 -88.5 2t-103.5 3l-104 -5zM221 167 q0 -72 6 -108q50 -6 91 -6q61 0 97.5 36t36.5 102q0 72 -48 109t-120 37h-11l7 57h7q62 0 102 36t40 101q0 59 -32.5 94.5t-85.5 35.5q-33 0 -83 -6q-7 -45 -7 -117v-371z" />
<glyph unicode="C" horiz-adv-x="610" d="M42 352q0 168 81.5 268t235.5 100q73 0 207 -34l-10 -148l-59 4v47q0 10 -12 50q-69 23 -126 23q-104 0 -159 -86.5t-55 -222.5t55 -223t158 -87q65 0 136 22q14 46 14 56l2 47l59 2l6 -151q-134 -34 -216 -34q-154 0 -235.5 99.5t-81.5 267.5z" />
<glyph unicode="D" horiz-adv-x="721" d="M42 45l79 16q9 59 9 76v431q0 18 -9 76l-77 12l5 54q64 -3 98 -5q26 1 88 5.5t99 4.5q165 0 255 -97t90 -266q0 -162 -92.5 -260t-252.5 -98q-18 0 -77 3t-92 3l-118 -5zM221 167q0 -82 7 -110q52 -4 107 -4q120 0 182.5 84t62.5 215q0 133 -62.5 218t-182.5 85 q-65 0 -107 -5q-7 -66 -7 -112v-371z" />
<glyph unicode="E" horiz-adv-x="588" d="M42 45l79 16q9 59 9 76v431q0 18 -9 76l-77 12l5 54q96 -5 116 -5h224l114 10l19 -18l7 -136l-58 -5q-7 57 -31 88q-55 5 -81 5h-131q-7 -74 -7 -111v-142q34 -2 43 -2h73l60 9l9 66l46 -5q-1 -64 -1 -84l3 -109l-48 -6l-9 67q-60 6 -80 6h-53q-18 0 -43 -3v-168 q0 -43 7 -110h144q38 0 87 9q19 26 21 37q1 4 7.5 31t7.5 36l55 -5l-15 -151l-19 -18q-94 4 -114 4h-237l-118 -5z" />
<glyph unicode="F" horiz-adv-x="552" d="M42 45l79 16q9 59 9 76v431q0 18 -9 76l-77 12l5 54q96 -5 116 -5h224l114 10l19 -18l7 -136l-58 -5q-7 57 -31 88q-55 5 -81 5h-131q-7 -74 -7 -111v-150q34 -2 43 -2h73l60 9l9 66l46 -5q-1 -64 -1 -84l3 -109l-48 -6l-9 67q-60 6 -80 6h-53q-18 0 -43 -3v-160 q0 -57 7 -106l100 -7l-7 -59q-76 5 -156 5l-118 -5z" />
<glyph unicode="G" horiz-adv-x="666" d="M42 352q0 168 86 268t248 100q78 0 220 -34l-11 -148l-58 6v45q0 9 -12 49q-81 24 -142 24q-112 0 -171 -86.5t-59 -222.5q0 -137 59 -223.5t171 -86.5q65 0 140 20q12 52 12 65v68l-10 71l-106 8l5 58h111l71 3l18 -17q-9 -103 -9 -153v-147q-142 -34 -229 -34 q-162 0 -248 99.5t-86 267.5z" />
<glyph unicode="H" horiz-adv-x="773" d="M42 45l79 16q9 59 9 76v431q0 18 -9 76l-77 12l5 54q96 -5 116 -5l137 5l4 -59l-78 -7q-7 -49 -7 -106v-160l331 5v185q0 18 -9 76l-77 12l5 54q96 -5 116 -5l137 5l4 -59l-78 -7q-7 -49 -7 -106v-371q0 -57 7 -106l90 -7l-7 -59q-66 5 -146 5l-118 -5l-5 50l79 16 q9 58 9 76v190h-331v-160q0 -57 7 -106l90 -7l-7 -59q-66 5 -146 5l-118 -5z" />
<glyph unicode="I" horiz-adv-x="363" d="M48 45l79 16q9 59 9 76v431q0 18 -9 76l-77 12l5 54q96 -5 116 -5l137 5l4 -59l-78 -7q-7 -49 -7 -106v-371q0 -57 7 -106l90 -7l-7 -59q-66 5 -146 5l-118 -5z" />
<glyph unicode="J" horiz-adv-x="332" d="M40 656l5 54q96 -5 116 -5l137 5l4 -59l-78 -7q-7 -49 -7 -106v-548q0 -27 -137 -190l-34 22q80 169 80 189v557q0 18 -9 76z" />
<glyph unicode="K" horiz-adv-x="698" d="M42 45l79 16q9 59 9 76v431q0 18 -9 76l-77 12l5 54q96 -5 116 -5l137 5l4 -59l-78 -7q-7 -49 -7 -106v-371q0 -57 7 -106l90 -7l-7 -59q-66 5 -146 5l-118 -5zM231 353l182 224l39 68l-54 11l5 54q86 -5 106 -5l127 5l4 -59l-76 -7q-52 -48 -102 -98l-132 -176 q24 -28 66.5 -76t78 -89t66.5 -76q16 -18 77 -68l70 -7l-7 -59q-61 5 -141 5l-128 -5l-5 50l59 14q-44 71 -70 105z" />
<glyph unicode="L" horiz-adv-x="534" d="M42 45l79 16q9 59 9 76v431q0 18 -9 76l-77 12l5 54q96 -5 116 -5l137 5l4 -59l-78 -7q-7 -49 -7 -106v-371q0 -57 7 -110h118q38 0 87 9q20 28 21 37q12 47 15 67l55 -5l-15 -151l-19 -18q-94 4 -114 4h-211l-118 -5z" />
<glyph unicode="M" horiz-adv-x="928" d="M27 45l78 16q1 4 5 19.5t7.5 30t4.5 21.5l26 437q0 47 -4 75l-82 12l5 54l138 -4h56l19 -21q43 -132 52 -156l133 -354l136 362l53 148l20 20h26l155 5l4 -59l-80 -7q-3 -18 -3 -75l34 -437q1 -7 16 -71l81 -7l-6 -59q-66 5 -146 5l-119 -5l-5 50l78 16q5 75 5 101 l-27 422l-219 -584h-36l-219 584l-24 -422q0 -21 5 -101l81 -7l-7 -59q-51 5 -129 5l-107 -5z" />
<glyph unicode="N" horiz-adv-x="761" d="M41 656l5 54q96 -5 116 -5l44 1l20 -21q82 -133 97 -155l262 -367v395q0 29 -9 83l-79 6l6 60l82 -2l156 5l5 -53l-79 -16q-15 -71 -15 -113v-231l-1 -304h-60l-394 563v-389q0 -57 7 -106l81 -7l-7 -59q-43 5 -123 5l-108 -5l-5 50l79 16q9 59 9 76v431q0 8 -9 76z" />
<glyph unicode="O" horiz-adv-x="740" d="M42 352q0 168 84.5 268t243.5 100t243.5 -100t84.5 -268t-84.5 -267.5t-243.5 -99.5t-243.5 99.5t-84.5 267.5zM149 352q0 -138 57 -226t164 -88t164 88t57 226t-57 226.5t-164 88.5t-164 -88.5t-57 -226.5z" />
<glyph unicode="P" horiz-adv-x="586" d="M42 45l79 16q9 59 9 76v431q0 18 -9 76l-77 12l5 54q65 -4 99 -5q26 0 93.5 5t91.5 5q105 0 164 -54t59 -159q0 -98 -70.5 -154.5t-175.5 -56.5q-61 0 -89 1v-125q0 -57 7 -106l94 -7l-7 -59q-70 5 -150 5l-118 -5zM221 345q52 -4 69 -4q80 0 126 41t46 120t-45.5 121 t-125.5 42q-20 0 -63 -5q-7 -61 -7 -122v-193z" />
<glyph unicode="Q" horiz-adv-x="745" d="M42 352q0 168 84.5 268t243.5 100t243.5 -100t84.5 -268q0 -134 -55 -226.5t-160 -124.5l87 -61q7 -5 46.5 -23t75.5 -33l36 -16l-59 -92l-262 211q-24 -2 -37 -2q-159 0 -243.5 99.5t-84.5 267.5zM149 352q0 -138 57 -226t164 -88t164 88t57 226t-57 226.5t-164 88.5 t-164 -88.5t-57 -226.5z" />
<glyph unicode="R" horiz-adv-x="646" d="M42 45l79 16q9 59 9 76v431q0 13 -9 76l-77 12l5 54q67 -3 100 -5q21 1 89 5.5t94 4.5q105 0 163 -52.5t58 -154.5q0 -71 -40 -120.5t-106 -71.5q75 -143 106 -185q9 -15 49 -70l72 -7l-7 -59q-78 5 -158 5q-42 92 -55 116l-98 185h-7q-61 0 -88 1v-135q0 -57 7 -106 l90 -7l-7 -59q-66 5 -146 5l-118 -5zM221 355q50 -4 68 -4q79 0 124.5 39.5t45.5 116.5t-45 117.5t-124 40.5q-11 0 -61 -6q-8 -50 -8 -121v-183z" />
<glyph unicode="S" horiz-adv-x="559" d="M50 38l15 154l66 -6v-48q0 -18 11 -66q68 -27 130 -27q61 0 96.5 32.5t35.5 92.5q0 38 -25.5 69t-63 50.5t-82 43.5t-82 47.5t-63 63.5t-25.5 91q0 87 60.5 136t156.5 49q74 0 202 -32l-14 -151l-59 6v44q0 6 -13 56q-51 22 -119 22q-49 0 -81.5 -29t-32.5 -82 q0 -32 19 -58t49.5 -45t67.5 -37.5t74 -39.5t67.5 -46t49.5 -62.5t19 -83.5q0 -96 -67 -146.5t-172 -50.5q-60 0 -115 13.5t-80 26.5z" />
<glyph unicode="T" horiz-adv-x="595" d="M10 553l7 144l19 18q94 -10 114 -10h295l114 10l19 -18l7 -144l-58 -5q-5 39 -11 62q-1 10 -20 34q-55 5 -81 5h-65q-7 -70 -7 -111v-371q0 -57 7 -106l90 -7l-7 -59q-66 5 -146 5l-118 -5l-5 50l79 16q9 59 9 76v431q0 7 -1.5 22.5t-4 34t-3.5 24.5h-63q-26 0 -81 -5 q-19 -24 -20 -34q-6 -23 -11 -62z" />
<glyph unicode="U" horiz-adv-x="727" d="M17 656l5 54q96 -5 116 -5l144 5l4 -59l-79 -7q-7 -52 -7 -111v-267q0 -99 44 -158t128 -59q87 0 132.5 59.5t45.5 157.5v297q0 11 -10 81l-78 12l5 54q86 -5 106 -5l131 5l4 -59l-79 -7q-7 -52 -7 -111v-267q0 -131 -66.5 -206t-192.5 -75t-192 75t-66 206v297 q0 13 -9 81z" />
<glyph unicode="V" horiz-adv-x="693" d="M-1 651l5 54h109l147 5l4 -49l-79 -20q8 -51 30 -108l147 -385l149 430l11 63l-76 10l5 54h90l143 5l4 -49l-68 -17q-27 -45 -46 -99l-190 -545h-61l-215 556q-6 16 -17 37.5t-19 34.5l-7 13z" />
<glyph unicode="W" horiz-adv-x="1011" d="M1 651l5 54h109l147 5l4 -49l-79 -20q12 -57 27 -108l115 -385l158 537h53l169 -537l123 430l11 63l-76 10l5 54h90l143 5l4 -49l-68 -17q-34 -60 -46 -99l-164 -545h-61l-167 506l-152 -506h-61l-183 556q-6 19 -16 40t-17 33l-7 12z" />
<glyph unicode="X" horiz-adv-x="718" d="M18 42l61 17q82 86 96 105l131 191l-144 203q-21 29 -62 83l-81 10l7 55q69 -1 89 -1l187 5l5 -47l-79 -22q29 -70 41 -86l95 -133l97 156q9 15 33 63l-78 10l7 55q52 -1 80 -1l172 5l5 -47l-69 -16q-62 -57 -79 -78l-129 -201l169 -236q22 -28 61 -68l79 -10l-7 -55 q-65 1 -80 1l-184 -5l-5 47l66 18q-25 56 -45 82l-113 159l-114 -169q-11 -17 -35 -68l80 -10l-7 -55q-58 1 -80 1l-165 -5z" />
<glyph unicode="Y" horiz-adv-x="663" d="M6 651l5 54h109l147 5l4 -49l-79 -20q11 -49 43 -108l101 -189l115 234l28 63l-76 10l5 54h90l143 5l4 -49l-68 -17q-36 -47 -63 -99l-140 -272v-106q0 -57 7 -106l90 -7l-7 -59q-66 5 -146 5l-118 -5l-5 50l79 16q9 58 9 76v120l-155 299q-9 18 -23 39.5t-23 33.5 l-10 12z" />
<glyph unicode="Z" horiz-adv-x="557" d="M27 57q82 114 112 162l190 301l70 126h-183q-31 0 -86 -5l-16 -34q-9 -34 -13 -84l-58 5l7 169l19 18q94 -10 114 -10h331l7 -56l-108 -155l-191 -303l-73 -132h203q38 0 88 9q18 24 20 35q10 38 15 77l55 -5l-15 -161l-19 -18q-94 4 -114 4h-348z" />
<glyph unicode="[" horiz-adv-x="265" d="M75 -102q10 172 10 192v461l-10 192l19 19l158 4l3 -43l-84 -12q-14 -60 -14 -110v-561q0 -22 3.5 -49.5t7.5 -44.5l3 -16l84 -12l-3 -43q-89 4 -158 4z" />
<glyph unicode="\" horiz-adv-x="398" d="M7 753l63 20l311 -820l-64 -20z" />
<glyph unicode="]" horiz-adv-x="265" d="M10 -82l84 12q14 60 14 110v561q0 22 -3.5 49.5t-6.5 43.5l-4 17l-84 12l3 43q89 -4 158 -4l19 -19q-10 -172 -10 -192v-461l10 -192l-19 -19l-158 -4z" />
<glyph unicode="^" d="M10 357l270 371l270 -371l-63 -44l-207 302l-207 -302z" />
<glyph unicode="_" horiz-adv-x="504" d="M0 -157h504l-5 -75h-497z" />
<glyph unicode="`" horiz-adv-x="360" d="M66 695l47 60l180 -150l-33 -41l-73 60z" />
<glyph unicode="a" horiz-adv-x="516" d="M45 118q0 111 134 133l160 27v33q0 138 -94 138q-53 0 -95 -20l-7 -42v-41l-58 -3l-11 136q90 24 181 24q89 0 127 -48.5t38 -163.5v-124q0 -22 2.5 -48.5t5.5 -42.5l2 -15l69 -7l-7 -59q-49 5 -129 5l-14 79q-19 -38 -64.5 -63.5t-94.5 -25.5q-67 0 -106 34.5t-39 93.5z M133 133q0 -38 19 -58.5t54 -20.5q50 0 87.5 32t45.5 81v60l-143 -27q-30 -5 -46.5 -23t-16.5 -44z" />
<glyph unicode="b" horiz-adv-x="554" d="M10 707l5 53q72 -4 92 -4h58l19 -18q-7 -103 -7 -153v-158q50 76 139 76q96 0 147 -69t51 -178q0 -111 -63 -188.5t-167 -77.5q-99 0 -196 36q8 91 8 111v478l-10 76zM177 167q0 -63 7 -109q46 -12 94 -12q52 0 85 30t46 74.5t13 103.5q0 188 -121 188q-59 0 -91.5 -50 t-32.5 -118v-107z" />
<glyph unicode="c" horiz-adv-x="466" d="M40 246q0 118 59 187.5t171 69.5q11 0 21.5 -1t19 -1.5t20 -3.5t17 -4t19 -5t18.5 -5.5t21 -7t21 -7.5l-10 -125l-58 3v36q0 10 -7 34q-36 30 -82 30q-70 0 -103 -58t-33 -142q0 -83 33 -137t103 -54q35 0 70 9t52 18l18 9l28 -47q-7 -6 -21 -15t-58 -24t-90 -15 q-112 0 -170.5 69t-58.5 187z" />
<glyph unicode="d" horiz-adv-x="563" d="M41 247q0 119 56.5 187.5t153.5 68.5q58 0 125 -24v136l-10 76l-88 16l5 53q84 -4 104 -4h58l19 -18q-7 -103 -7 -153v-418q0 -22 2.5 -48.5t4.5 -42.5l3 -15l69 -7l-7 -59q-49 5 -129 5l-14 80q-15 -34 -59.5 -62t-84.5 -28q-94 0 -147.5 68.5t-53.5 188.5zM133 246 q0 -89 31 -140.5t85 -51.5q60 0 93.5 40.5t33.5 112.5v199q-55 36 -115 36q-61 0 -94.5 -51.5t-33.5 -144.5z" />
<glyph unicode="e" horiz-adv-x="478" d="M40 245q0 117 55.5 187.5t162.5 70.5q192 0 192 -233l-17 -33h-299q2 -74 37.5 -128t98.5 -54q38 0 75 10.5t55 20.5l19 10l28 -46q-7 -7 -21 -17t-60 -26.5t-96 -16.5q-111 0 -170.5 69.5t-59.5 185.5zM135 287l222 17q1 15 1 20q0 56 -26.5 91.5t-77.5 35.5 q-105 0 -119 -164z" />
<glyph unicode="f" horiz-adv-x="351" d="M36 45l76 16q10 56 10 76v303h-77l-3 42q9 3 28 8.5t30.5 10t21.5 10.5v86q0 80 45.5 126.5t130.5 46.5q18 0 44 -2.5t42 -5.5l17 -2l-11 -135l-53 3v36q0 10 -12 52q-4 0 -14 0.5t-13 0.5q-26 0 -44 -7.5t-28 -19t-15.5 -33t-6.5 -40.5t-1 -51v-72h140l-5 -54h-135v-273 l7 -106l98 -7l-7 -59q-69 5 -149 5l-111 -5z" />
<glyph unicode="g" horiz-adv-x="505" d="M32 -90q0 29 91 101q-51 21 -51 73q0 20 72 80q-90 48 -90 158q0 82 53 131.5t140 49.5q57 0 105 -24l122 19v-58l-80 6q46 -48 46 -124q0 -82 -53 -131.5t-140 -49.5q-37 0 -68 9q-27 -31 -27 -42q0 -15 18.5 -21.5t75.5 -13.5q169 -22 193 -30q45 -14 45 -87 q0 -79 -74.5 -135t-179.5 -56q-198 0 -198 145zM118 -79q0 -51 34 -75t106 -24q62 0 101.5 28.5t39.5 74.5q0 23 -8.5 32.5t-30.5 12.5l-130 17q-40 5 -69 12q-43 -53 -43 -78zM141 322q0 -130 106 -130t106 130t-106 130t-106 -130z" />
<glyph unicode="h" horiz-adv-x="594" d="M19 45l77 16q10 45 10 76v478l-10 76l-76 16l5 53q72 -4 92 -4h58l19 -18q-7 -72 -7 -153v-158q51 76 143 76q97 0 133 -56.5t36 -170.5v-109l7 -106l78 -7l-7 -59q-49 5 -129 5l-102 -5l-5 50l67 16q10 44 10 76v139q0 166 -103 166q-58 0 -92.5 -46.5t-35.5 -121.5 v-107q0 -58 6 -106l78 -7l-7 -59q-49 5 -129 5l-111 -5z" />
<glyph unicode="i" horiz-adv-x="301" d="M36 45l76 16q10 56 10 76v216l-10 76l-76 16l5 53q72 -4 92 -4h58l19 -18q-7 -103 -7 -153v-156l7 -106l78 -7l-7 -59q-49 5 -129 5l-111 -5zM104 655q0 29 15.5 47t43.5 18t43.5 -17t15.5 -48q0 -29 -15.5 -46.5t-43.5 -17.5t-43.5 17.5t-15.5 46.5z" />
<glyph unicode="j" horiz-adv-x="279" d="M25 445l5 53q72 -4 92 -4h58l19 -18q-7 -103 -7 -153v-333q0 -18 -30 -74t-60 -104l-31 -47l-36 21q76 195 76 235v332l-10 76zM82 655q0 29 15.5 47t43.5 18t43.5 -17t15.5 -48q0 -29 -15.5 -46.5t-43.5 -17.5t-43.5 17.5t-15.5 46.5z" />
<glyph unicode="k" horiz-adv-x="572" d="M19 45l77 16q10 45 10 76v478l-10 76l-76 16l5 53q72 -4 92 -4h58l19 -18q-7 -72 -7 -153v-418q0 -58 6 -106l78 -7l-7 -59q-49 5 -129 5l-111 -5zM198 265l165 172l-43 8l5 52q67 -3 87 -3q36 0 67.5 1.5t45.5 2.5l14 1l3 -58l-75 -8q-74 -40 -99 -67l-81 -87l137 -150 q5 -5 19 -16t37.5 -28t33.5 -25l63 -6l-7 -59q-49 5 -129 5l-102 -2l-5 50l57 11q-28 31 -59.5 65t-72.5 77t-61 64z" />
<glyph unicode="l" horiz-adv-x="293" d="M19 45l77 16q10 45 10 76v478l-10 76l-76 16l5 53q72 -4 92 -4h58l19 -18q-7 -72 -7 -153v-418q0 -58 6 -106l78 -7l-7 -59q-49 5 -129 5l-111 -5z" />
<glyph unicode="m" horiz-adv-x="890" d="M36 45l76 16q8 48 10 71v221l-10 76l-76 16l5 53q72 -4 92 -4h36l19 -18l6 -64q20 39 59 65t91 26q109 0 139 -95q23 41 63.5 68t93.5 27q89 0 122 -56.5t33 -170.5v-109l7 -106l78 -7l-7 -59q-49 5 -129 5l-102 -5l-5 50l67 16q10 44 10 76v139q0 166 -91 166 q-54 0 -88 -44t-36 -115v-116l7 -106l78 -7l-7 -59q-49 5 -129 5l-102 -5l-5 50l67 16q10 44 10 76v139q0 166 -91 166q-56 0 -89.5 -47t-34.5 -121v-107l7 -106l78 -7l-7 -59q-49 5 -129 5l-111 -5z" />
<glyph unicode="n" horiz-adv-x="610" d="M36 45l76 16q8 48 10 71v221l-10 76l-76 16l5 53q72 -4 92 -4h36l19 -18l6 -64q20 38 59.5 64.5t92.5 26.5q97 0 133 -56.5t36 -170.5v-109l7 -106l78 -7l-7 -59q-49 5 -129 5l-102 -5l-5 50l67 16q10 44 10 76v139q0 166 -103 166q-58 0 -92.5 -46.5t-35.5 -121.5v-107 l7 -106l78 -7l-7 -59q-49 5 -129 5l-111 -5z" />
<glyph unicode="o" horiz-adv-x="540" d="M40 246q0 118 59.5 187.5t170.5 69.5q113 0 171.5 -69t58.5 -188q0 -117 -59.5 -186.5t-170.5 -69.5t-170.5 69.5t-59.5 186.5zM134 246q0 -87 32 -143t104 -56t104 56t32 143t-32 143.5t-104 56.5t-104 -56.5t-32 -143.5z" />
<glyph unicode="p" horiz-adv-x="559" d="M15 445l5 53q72 -4 92 -4h36l19 -18l6 -64q16 37 58 64t83 27q98 0 151.5 -64.5t53.5 -182.5q0 -115 -65 -190.5t-165 -75.5q-51 0 -107 25v-76l7 -106l98 -7l-7 -59q-68 5 -148 5l-102 -5l-5 50l66 16q10 48 10 71v449l-10 76zM182 86q53 -36 101 -36q71 0 108.5 52.5 t37.5 151.5q0 188 -123 188q-56 0 -90 -43.5t-34 -114.5v-198z" />
<glyph unicode="q" horiz-adv-x="543" d="M40 247q0 115 58 185.5t152 70.5q50 0 91.5 -7t122.5 -29q-8 -95 -8 -145v-383l7 -106l67 -7l-7 -59q-68 5 -148 5l-102 -5l-5 50l97 16q10 56 10 76v153q-22 -30 -61 -51t-73 -21q-94 0 -147.5 68.5t-53.5 188.5zM132 246q0 -89 31 -140.5t85 -51.5q58 0 91.5 38.5 t35.5 107.5v152q0 26 -7 79q-55 11 -108 11q-58 0 -93 -53.5t-35 -142.5z" />
<glyph unicode="r" horiz-adv-x="422" d="M36 45l76 16q10 56 10 76v216l-10 76l-76 16l5 53q72 -4 92 -4h36l19 -18l6 -66q57 93 161 93q16 0 33 -2.5t26 -4.5l9 -3l-10 -165l-58 3v53q0 8 -14 50h-4q-128 -1 -134 -150v-117l7 -106l98 -7l-7 -59q-69 5 -149 5l-111 -5z" />
<glyph unicode="s" horiz-adv-x="422" d="M42 29l11 136l58 -3v-38q0 -16 15 -59q31 -24 84 -24q91 0 91 76q0 29 -26 50.5t-63 38t-74.5 35t-63.5 51.5t-26 78q0 62 45.5 97.5t116.5 35.5q68 0 150 -17l-12 -143l-58 3v36q0 11 -14 57q-28 12 -67 12q-37 0 -59 -17.5t-22 -47.5q0 -28 26.5 -49.5t63.5 -38 t74.5 -35t64 -51t26.5 -76.5q0 -146 -176 -146q-44 0 -85.5 9.5t-60.5 19.5z" />
<glyph unicode="t" horiz-adv-x="344" d="M20 482q9 3 28 8.5t30.5 10t21.5 10.5l46 90l35 -4v-103h140l-5 -54h-135v-308q0 -78 54 -78q16 0 35.5 7t31.5 15l12 7l28 -41q-67 -52 -118 -52q-69 0 -96.5 40t-27.5 126v284h-77z" />
<glyph unicode="u" horiz-adv-x="592" d="M23 445l5 53q62 -4 82 -4h58l19 -18q-7 -103 -7 -153v-140q0 -129 99 -129q59 0 92.5 46t33.5 110v143l-10 76l-71 16l5 53q67 -4 87 -4h58l19 -18q-7 -103 -7 -153v-156q0 -22 2.5 -48.5t5.5 -42.5l2 -15l69 -7l-7 -59q-49 5 -129 5l-13 78q-51 -88 -155 -88 q-96 0 -129 56.5t-33 170.5v136l-10 76z" />
<glyph unicode="v" horiz-adv-x="530" d="M1 445l5 52q69 -3 89 -3l130 5l3 -58l-60 -7q19 -72 24 -85l86 -246l83 248q4 11 20 83l-75 11l5 52q64 -3 84 -3l123 5l3 -58l-55 -6q-31 -69 -50 -116l-115 -319h-67q-123 322 -131 344q-15 43 -41 90z" />
<glyph unicode="w" horiz-adv-x="800" d="M6 445l5 52q49 -3 69 -3l150 5l3 -58l-80 -7q19 -72 24 -85l86 -246l127 391h39l134 -391l83 248q4 11 20 83l-85 11l5 52q74 -3 94 -3q36 0 64 1t38 3l11 1l3 -58l-45 -6q-31 -69 -50 -116l-115 -319h-68l-118 335l-114 -335h-67q-123 322 -131 344q-15 43 -41 90z" />
<glyph unicode="x" horiz-adv-x="543" d="M12 45l62 16l81 88l68 97l-78 107l-73 82l-43 10l5 52q62 -3 82 -3l127 5l3 -58l-60 -7q16 -28 88 -132l55 85l25 46l-64 12l5 52q57 -3 77 -3l127 5l3 -58l-61 -8l-68 -80l-62 -95l81 -109l88 -90l61 -5l-7 -59q-53 5 -133 5l-102 -5l-5 50l62 15l-32 55l-62 86l-60 -86 l-31 -54l63 -7l-7 -59q-33 5 -113 5l-97 -5z" />
<glyph unicode="y" horiz-adv-x="539" d="M0 445l5 52q62 -3 82 -3l137 5l3 -58l-72 -7q13 -57 25 -85l99 -245l87 232q14 39 27 97l-73 12l5 52q67 -3 87 -3l115 5l3 -58l-53 -8q-36 -73 -52 -114l-206 -554l-161 11l8 58l40 -1q14 0 67 10q25 35 38 68l32 89l-143 333q-15 37 -51 100z" />
<glyph unicode="z" horiz-adv-x="460" d="M41 58q80 88 95 110l124 184q18 28 50 90h-122q-9 0 -53 -6q-22 -40 -24 -62l-4 -39l-58 4l5 139l18 19q75 -3 95 -3h242l7 -58l-86 -109l-122 -185q-13 -20 -50 -90h125q11 0 59 6q15 30 22 51q0 1 1 6.5t2.5 15.5t2.5 18l58 -6l-9 -127l-18 -19q-90 3 -110 3h-243z" />
<glyph unicode="{" horiz-adv-x="272" d="M35 306l4 29q9 0 35 15.5t33 29.5q0 53 -7.5 143.5t-15.5 154.5l-7 64l20 20l162 4l3 -43l-87 -12q-8 -90 -8 -110q0 -30 4.5 -122t4.5 -122q-9 -8 -23 -16t-23 -12l-10 -4v-9q36 -14 56 -32q0 -30 -4.5 -122t-4.5 -122l8 -110l87 -12l-3 -43q-93 4 -162 4l-20 20 q30 242 30 362q-7 14 -33.5 29.5t-38.5 15.5z" />
<glyph unicode="|" horiz-adv-x="279" d="M107 -113v873l65 -8v-874z" />
<glyph unicode="}" horiz-adv-x="272" d="M10 -82l87 12q8 90 8 110q0 30 -4.5 122t-4.5 122q9 8 23 16t23 12l10 4v9q-36 14 -56 32q0 30 4.5 122t4.5 122l-8 110l-87 12l3 43q93 -4 162 -4l20 -20q-30 -242 -30 -362q7 -14 33.5 -29.5t38.5 -15.5l-4 -29q-9 0 -35 -15.5t-33 -29.5q0 -53 7.5 -143.5t15.5 -154.5 l7 -64l-20 -20l-162 -4z" />
<glyph unicode="~" d="M47 213q2 4 6.5 11t17.5 25t25.5 32t29 25t30.5 11q37 0 128.5 -30t116.5 -30q13 0 31 13.5t30 27.5l11 14l40 -33q-2 -4 -6.5 -11t-17.5 -25t-25.5 -32t-29 -25t-30.5 -11q-31 0 -125 30t-120 30q-13 0 -31 -13.5t-30 -27.5l-11 -14z" />
<glyph unicode="&#xa1;" horiz-adv-x="229" d="M41 -209q25 237 25 394l-3 85l7 6q18 -3 72 -3q-1 -36 -1 -66l9 -427l-90 -7zM41 438q0 29 15.5 47t43.5 18t43.5 -17t15.5 -48q0 -29 -15.5 -46.5t-43.5 -17.5t-43.5 17.5t-15.5 46.5z" />
<glyph unicode="&#xa2;" horiz-adv-x="483" d="M40 323q0 115 56 184t162 73l5 109l34 -3l-4 -107q37 -2 134 -34l-10 -125l-58 3v36q0 10 -7 34q-30 24 -62 29l-15 -390q33 0 67 9t51 18l17 9l28 -47q-7 -6 -20.5 -15t-57 -24t-88.5 -15l-4 -109l-35 3l4 107q-97 10 -147 78t-50 177zM134 323q0 -73 26 -125t80 -63 l16 387q-43 -4 -71.5 -34.5t-39.5 -72t-11 -92.5z" />
<glyph unicode="&#xa3;" horiz-adv-x="571" d="M45 378l107 4v113q0 79 56 123t145 44q68 0 188 -32l-14 -147l-59 6v40q0 8 -12 56q-47 22 -104 22q-52 0 -80.5 -25.5t-28.5 -72.5v-123l212 10l2 -34l-214 -10v-72l217 10l2 -34l-219 -10v-79l7 -110h128q38 0 87 9q18 25 21 37q12 47 15 67l55 -5l-15 -151l-19 -18 q-94 4 -114 4h-221l-118 -5l-5 50l79 16q9 59 9 76v104l-100 -4l-2 35l102 4v72l-105 -5z" />
<glyph unicode="&#xa5;" horiz-adv-x="645" d="M5 599l7 54h99l154 5l5 -47l-78 -22q35 -78 42 -90l92 -153l118 199q3 5 19 45l-74 9l7 54h80l155 5l5 -47l-69 -19l-71 -79l-73 -122l101 5l1 -34l-123 -6l-38 -64v-9l163 7l2 -34l-165 -8v-81l7 -110l78 -6l-6 -55q-88 4 -159 4l-95 -4l-5 52l77 9q10 60 10 80v107 l-154 -7l-1 35l150 6l-42 70l-110 -5l-2 35l92 4l-85 141q-42 48 -60 67z" />
<glyph unicode="&#xa6;" horiz-adv-x="279" d="M107 -113v325l65 -7v-327zM107 400v360l65 -8v-360z" />
<glyph unicode="&#xa7;" horiz-adv-x="537" d="M80 568q0 71 50 111.5t128 40.5q62 0 166 -26l-12 -131l-47 5v33q0 7 -12 45q-46 19 -97 19q-34 0 -56.5 -21.5t-22.5 -59.5q0 -33 29 -59.5t70 -46.5t82.5 -41.5t70.5 -54t29 -74.5q0 -25 -18.5 -53t-42.5 -46l-29 17q18 21 18 46q0 34 -31.5 60t-76.5 45t-90 40.5 t-76.5 59.5t-31.5 91zM85 313q0 25 19 53.5t43 44.5l28 -17q-16 -19 -16 -43q0 -30 23 -54t57 -39.5t74 -35.5t74 -40.5t57 -55.5t23 -80q0 -78 -55 -119.5t-141 -41.5q-49 0 -94 11t-66 22l-21 11l12 136l55 -5v-39q0 -13 9 -54q51 -22 106 -22q43 0 68.5 23.5t25.5 67.5 q0 38 -29 66t-70 47t-82.5 38.5t-70.5 51.5t-29 74z" />
<glyph unicode="&#xa8;" horiz-adv-x="360" d="M8 653q0 28 14 44t40 16q54 0 54 -60q0 -59 -54 -59t-54 59zM244 653q0 28 14 44t40 16q54 0 54 -60q0 -59 -54 -59t-54 59z" />
<glyph unicode="&#xa9;" horiz-adv-x="845" d="M57 250q0 151 107.5 258t257.5 107q153 0 259.5 -106t106.5 -259q0 -149 -107.5 -257t-258.5 -108q-150 0 -257.5 106t-107.5 259zM101 250q0 -132 94.5 -226.5t226.5 -94.5q133 0 227 94.5t94 226.5t-94.5 226.5t-226.5 94.5q-133 0 -227 -93.5t-94 -227.5zM225 249 q0 101 53 161t152 60q43 0 132 -20l-7 -101l-41 3v32q0 7 -7 28q-44 11 -76 11q-59 0 -91 -48.5t-32 -124.5t32 -125t91 -49q39 0 81 10q9 20 9 32l1 33l42 1l3 -103q-89 -20 -137 -20q-100 0 -152.5 59.5t-52.5 160.5z" />
<glyph unicode="&#xaa;" horiz-adv-x="331" d="M26 527q0 70 82 83l93 15v19q0 68 -51 68q-32 0 -54 -11l-5 -25l1 -28l-42 -2l-9 95q59 16 113 16q118 0 118 -118v-78l6 -68l40 -4l-4 -42q-31 3 -100 3l-6 46q-28 -52 -91 -52q-42 0 -66.5 22.5t-24.5 60.5zM101 539q0 -42 39 -42q22 0 39 14t22 37v41l-64 -11 q-36 -8 -36 -39z" />
<glyph unicode="&#xab;" horiz-adv-x="416" d="M25 242l153 222l37 -25l-107 -197l107 -197l-37 -25zM188 242l150 218l36 -25l-104 -193l104 -193l-36 -25z" />
<glyph unicode="&#xac;" d="M55 236v71h455v-238h-71l2 171z" />
<glyph unicode="&#xad;" horiz-adv-x="282" d="M30 291h222l-5 -75h-215z" />
<glyph unicode="&#xae;" horiz-adv-x="845" d="M57 250q0 151 107.5 258t257.5 107q153 0 259.5 -106t106.5 -259q0 -149 -107.5 -257t-258.5 -108q-150 0 -257.5 106t-107.5 259zM101 250q0 -132 94.5 -226.5t226.5 -94.5q133 0 227 94.5t94 226.5t-94.5 226.5t-226.5 94.5q-133 0 -227 -93.5t-94 -227.5zM244 77 l50 13h1q0 3 1.5 12.5t2.5 18.5t1 13v251q0 5 -2.5 24t-2.5 20h-1l-47 4l4 34h49q15 0 62 3t63 3q64 0 99.5 -31t35.5 -92q0 -80 -79 -112q41 -80 61 -106q6 -11 30 -43l41 -5l-4 -37h-107l-12 33q-17 41 -18 43l-54 103h-53v-74q0 -20 3 -62l44 -6l-4 -37h-44l-114 -3z M365 262q13 -2 35 -2h11q85 7 85 89q0 44 -25.5 67t-70.5 23q-6 0 -32 -4q-3 -45 -3 -67v-106z" />
<glyph unicode="&#xaf;" horiz-adv-x="360" d="M19 596v53h322l-5 -53h-317z" />
<glyph unicode="&#xb0;" horiz-adv-x="360" d="M30 517q0 69 40.5 109t109.5 40q70 0 110.5 -40t40.5 -109t-40.5 -109t-110.5 -40q-69 0 -109.5 40t-40.5 109zM107 517q0 -43 18.5 -70.5t55.5 -27.5t55 28t18 70t-18 70t-55 28t-55.5 -27.5t-18.5 -70.5z" />
<glyph unicode="&#xb1;" d="M52 0v66l455 5v-71h-455zM52 301v70h192v191h65l2 -191h196v-65l-195 -2l2 -195h-70v194z" />
<glyph unicode="&#xb2;" horiz-adv-x="338" d="M20 504q119 109 154.5 153.5t35.5 85.5q0 29 -17.5 45.5t-46.5 16.5q-30 0 -58 -16q-6 -17 -6 -26l1 -27l-43 -3l-6 99q58 22 121 22q64 0 99.5 -27t35.5 -75q0 -51 -36.5 -98.5t-146.5 -142.5h92q5 0 14.5 1t22 2.5t19.5 2.5q8 19 8 26l4 25l42 -3l-5 -105l-16 -12 q-57 2 -70 2h-189z" />
<glyph unicode="&#xb3;" horiz-adv-x="307" d="M15 425q79 11 127.5 45.5t48.5 79.5q0 33 -19 51t-53 18l-41 -2l-9 39q109 15 109 93q0 60 -57 60q-23 0 -46 -10q-6 -25 -6 -30l1 -29l-43 -2l-8 98q54 18 105 18q133 0 133 -104q0 -64 -71 -97q40 -9 64 -36t24 -62q0 -64 -69.5 -111.5t-177.5 -57.5z" />
<glyph unicode="&#xb4;" horiz-adv-x="360" d="M66 605l180 150l47 -60q-106 -60 -121 -71l-73 -60z" />
<glyph unicode="&#xb6;" horiz-adv-x="556" d="M17 502q0 105 58.5 159t164.5 54q22 0 50 -3v-396l-27 -25q-105 0 -175.5 56.5t-70.5 154.5zM235 -48l96 22q9 41 9 103v610l19 18l151 5l5 -53l-79 -16h-1q-8 -64 -8 -73v-521l9 -119l-19 -18h-13l-164 -5z" />
<glyph unicode="&#xb7;" horiz-adv-x="213" d="M40 299q0 31 17 50.5t47 19.5t47 -18.5t17 -51.5q0 -31 -17 -50t-47 -19t-47 19t-17 50z" />
<glyph unicode="&#xb8;" horiz-adv-x="360" d="M105 -217l13 35q35 -11 58 -11q24 0 39 12.5t15 34.5q0 43 -47 43l-21 -1l-11 10l9 104h48l-14 -69q45 -1 73 -24t28 -63t-31 -64.5t-76 -24.5t-83 18z" />
<glyph unicode="&#xb9;" horiz-adv-x="262" d="M23 759q74 56 86 66l30 35l49 -7q-5 -113 -5 -143v-144q0 -50 6 -68l49 -4l-4 -47q-41 3 -103 3l-79 -3l-3 43l60 8l3 22q2 21 2 28v210l-71 -32z" />
<glyph unicode="&#xba;" horiz-adv-x="345" d="M24 599q0 75 38 116.5t110 41.5t110.5 -41.5t38.5 -116.5q0 -74 -38.5 -115.5t-110.5 -41.5t-110 41.5t-38 115.5zM105 599q0 -112 67 -112q68 0 68 112q0 113 -68 113q-67 0 -67 -113z" />
<glyph unicode="&#xbb;" horiz-adv-x="415" d="M42 48l104 193l-104 193l36 25l150 -218l-150 -218zM201 44l106 197l-106 197l37 25l153 -222l-153 -222z" />
<glyph unicode="&#xbc;" horiz-adv-x="739" d="M23 609q74 56 86 66l30 35l49 -7q-5 -113 -5 -143v-144q0 -50 6 -68l49 -4l-4 -47q-41 3 -103 3l-79 -3l-3 43l60 8l3 22q2 21 2 28v210l-71 -32zM100 -17l434 738l50 -32l-433 -738zM386 166l228 300l54 -43q-69 -70 -79 -84l-125 -173h114v71l66 24v-90l59 3v-54h-59 v-21q0 -11 1 -23t2.5 -19.5t1.5 -8.5l48 -4l-4 -47q-45 3 -105 3l-81 -3l-3 42l68 9q6 18 6 44v28h-154z" />
<glyph unicode="&#xbd;" horiz-adv-x="760" d="M23 609q74 56 86 66l30 35l49 -7q-5 -113 -5 -143v-144q0 -50 6 -68l49 -4l-4 -47q-41 3 -103 3l-79 -3l-3 43l60 8l3 22q2 21 2 28v210l-71 -32zM100 -17l434 738l50 -32l-433 -738zM432 54q119 114 154.5 160.5t35.5 88.5q0 30 -17.5 47.5t-46.5 17.5q-33 0 -61 -16 q-6 -16 -6 -36l1 -27l-43 -3l-6 109q58 22 124 22q64 0 99.5 -28t35.5 -78q0 -52 -36.5 -101.5t-146.5 -148.5h92q5 0 14.5 1t22 2.5t19.5 2.5q8 19 8 26l4 25l42 -3l-5 -105l-16 -12q-57 2 -70 2h-189z" />
<glyph unicode="&#xbe;" horiz-adv-x="754" d="M15 275q79 11 127.5 45.5t48.5 79.5q0 33 -19 51t-53 18l-41 -2l-9 39q109 15 109 93q0 60 -57 60q-23 0 -46 -10q-6 -25 -6 -30l1 -29l-43 -2l-8 98q54 18 105 18q133 0 133 -104q0 -64 -71 -97q40 -9 64 -36t24 -62q0 -64 -69.5 -111.5t-177.5 -57.5zM115 -17l434 738 l50 -32l-433 -738zM401 166l228 300l54 -43q-69 -70 -79 -84l-125 -173h114v71l66 24v-90l59 3v-54h-59v-21q0 -11 1.5 -23t2.5 -19.5t1 -8.5l48 -4l-4 -47q-45 3 -105 3l-81 -3l-3 42l68 9q6 18 6 44v28h-154z" />
<glyph unicode="&#xbf;" horiz-adv-x="403" d="M11 -17q0 91 63 145t159 54l-4 88l7 6q18 -3 68 -3l4 -3v-129l-26 -24q-30 4 -51 4q-59 0 -92.5 -38.5t-33.5 -100.5q0 -69 32 -114t93 -45q50 0 84 26q6 21 6 58l-2 36h58l12 -138q-84 -39 -157 -39q-102 0 -161 57.5t-59 159.5zM207 438q0 29 15.5 47t43.5 18t43.5 -17 t15.5 -48q0 -29 -15.5 -46.5t-43.5 -17.5t-43.5 17.5t-15.5 46.5z" />
<glyph unicode="&#xc0;" horiz-adv-x="664" d="M10 44l63 17l43 99l179 545l58 10l206 -566l39 -85l62 -10l-5 -54h-101l-143 -5l-4 49l73 20l-27 108l-21 60h-220l-32 -105l-10 -63l70 -10l-5 -54h-86l-135 -5zM182 825l30 73l229 -100l-20 -48l-88 37zM230 282l182 4l-94 271z" />
<glyph unicode="&#xc1;" horiz-adv-x="664" d="M10 44l63 17l43 99l179 545l58 10l206 -566l39 -85l62 -10l-5 -54h-101l-143 -5l-4 49l73 20l-27 108l-21 60h-220l-32 -105l-10 -63l70 -10l-5 -54h-86l-135 -5zM222 798l229 100l30 -73q-132 -32 -151 -38l-88 -37zM230 282l182 4l-94 271z" />
<glyph unicode="&#xc2;" horiz-adv-x="664" d="M10 44l63 17l43 99l179 545l58 10l206 -566l39 -85l62 -10l-5 -54h-101l-143 -5l-4 49l73 20l-27 108l-21 60h-220l-32 -105l-10 -63l70 -10l-5 -54h-86l-135 -5zM158 786l174 107l174 -107l-23 -39l-88 41l-63 25l-63 -25l-88 -41zM230 282l182 4l-94 271z" />
<glyph unicode="&#xc3;" horiz-adv-x="664" d="M10 44l63 17l43 99l179 545l58 10l206 -566l39 -85l62 -10l-5 -54h-101l-143 -5l-4 49l73 20l-27 108l-21 60h-220l-32 -105l-10 -63l70 -10l-5 -54h-86l-135 -5zM164 771q5 11 13 28t29.5 45t39.5 28q20 0 82.5 -20.5t82.5 -20.5q12 0 25.5 12.5t20.5 25.5l7 13l36 -21 q-5 -11 -13 -27.5t-30 -43.5t-40 -27q-20 0 -82 20.5t-82 20.5q-12 0 -25.5 -13.5t-20.5 -26.5l-7 -14zM230 282l182 4l-94 271z" />
<glyph unicode="&#xc4;" horiz-adv-x="664" d="M10 44l63 17l43 99l179 545l58 10l206 -566l39 -85l62 -10l-5 -54h-101l-143 -5l-4 49l73 20l-27 108l-21 60h-220l-32 -105l-10 -63l70 -10l-5 -54h-86l-135 -5zM160 824q0 28 14 44t40 16q54 0 54 -60q0 -59 -54 -59t-54 59zM230 282l182 4l-94 271zM396 824 q0 28 14 44t40 16q54 0 54 -60q0 -59 -54 -59t-54 59z" />
<glyph unicode="&#xc5;" horiz-adv-x="664" d="M10 44l63 17l43 99l179 545l58 10l206 -566l39 -85l62 -10l-5 -54h-101l-143 -5l-4 49l73 20l-27 108l-21 60h-220l-32 -105l-10 -63l70 -10l-5 -54h-86l-135 -5zM230 282l182 4l-94 271zM242 830q0 40 23 63t67 23t66.5 -23t22.5 -63q0 -39 -22.5 -62t-66.5 -23t-67 23 t-23 62zM291 830q0 -47 41 -47q42 0 42 47q0 48 -42 48q-41 0 -41 -48z" />
<glyph unicode="&#xc6;" horiz-adv-x="907" d="M-10 45l60 16q52 72 61 92l234 491l-78 12l5 54q96 -5 116 -5h299l114 10l19 -18l7 -136l-58 -5q-3 24 -11 54q-1 9 -20 33q-55 5 -81 5h-181q7 -78 11 -107l24 -155q56 -4 76 -4h48l60 9l9 66l46 -5q-1 -60 -1 -80l3 -109l-48 -6l-9 67q-60 6 -80 6h-28q-15 0 -67 -4 l24 -152l25 -117h122q37 0 87 9q17 24 21 37q12 47 15 67l55 -5l-15 -151l-19 -18q-94 4 -114 4h-218l-118 -5l-5 50l82 16q0 36 -5 69l-18 118h-214l-69 -146q-2 -5 -6 -20t-6 -21l82 -7l-7 -59q-51 5 -131 5l-93 -5zM250 299l181 3l-39 254l-7 28z" />
<glyph unicode="&#xc7;" horiz-adv-x="610" d="M42 352q0 168 81.5 268t235.5 100q73 0 207 -34l-10 -148l-59 4v47q0 10 -12 50q-69 23 -126 23q-104 0 -159 -86.5t-55 -222.5t55 -223t158 -87q65 0 136 22q14 46 14 56l2 47l59 2l6 -151q-113 -29 -183 -33l-9 -45q45 -1 73 -24t28 -63t-31 -64.5t-76 -24.5t-83 18 l13 35q35 -11 58 -11q24 0 39 12.5t15 34.5q0 43 -47 43l-21 -1l-11 10l7 80q-148 4 -226.5 102.5t-78.5 263.5z" />
<glyph unicode="&#xc8;" horiz-adv-x="588" d="M42 45l79 16q9 59 9 76v431q0 18 -9 76l-77 12l5 54q96 -5 116 -5h224l114 10l19 -18l7 -136l-58 -5q-7 57 -31 88q-55 5 -81 5h-131q-7 -74 -7 -111v-142q34 -2 43 -2h73l60 9l9 66l46 -5q-1 -64 -1 -84l3 -109l-48 -6l-9 67q-60 6 -80 6h-53q-18 0 -43 -3v-168 q0 -43 7 -110h144q38 0 87 9q19 26 21 37q1 4 7.5 31t7.5 36l55 -5l-15 -151l-19 -18q-94 4 -114 4h-237l-118 -5zM144 825l30 73l229 -100l-20 -48l-88 37z" />
<glyph unicode="&#xc9;" horiz-adv-x="588" d="M42 45l79 16q9 59 9 76v431q0 18 -9 76l-77 12l5 54q96 -5 116 -5h224l114 10l19 -18l7 -136l-58 -5q-7 57 -31 88q-55 5 -81 5h-131q-7 -74 -7 -111v-142q34 -2 43 -2h73l60 9l9 66l46 -5q-1 -64 -1 -84l3 -109l-48 -6l-9 67q-60 6 -80 6h-53q-18 0 -43 -3v-168 q0 -43 7 -110h144q38 0 87 9q19 26 21 37q1 4 7.5 31t7.5 36l55 -5l-15 -151l-19 -18q-94 4 -114 4h-237l-118 -5zM184 798l229 100l30 -73q-132 -32 -151 -38l-88 -37z" />
<glyph unicode="&#xca;" horiz-adv-x="588" d="M42 45l79 16q9 59 9 76v431q0 18 -9 76l-77 12l5 54q96 -5 116 -5h224l114 10l19 -18l7 -136l-58 -5q-7 57 -31 88q-55 5 -81 5h-131q-7 -74 -7 -111v-142q34 -2 43 -2h73l60 9l9 66l46 -5q-1 -64 -1 -84l3 -109l-48 -6l-9 67q-60 6 -80 6h-53q-18 0 -43 -3v-168 q0 -43 7 -110h144q38 0 87 9q19 26 21 37q1 4 7.5 31t7.5 36l55 -5l-15 -151l-19 -18q-94 4 -114 4h-237l-118 -5zM120 786l174 107l174 -107l-23 -39l-88 41l-63 25l-63 -25l-88 -41z" />
<glyph unicode="&#xcb;" horiz-adv-x="588" d="M42 45l79 16q9 59 9 76v431q0 18 -9 76l-77 12l5 54q96 -5 116 -5h224l114 10l19 -18l7 -136l-58 -5q-7 57 -31 88q-55 5 -81 5h-131q-7 -74 -7 -111v-142q34 -2 43 -2h73l60 9l9 66l46 -5q-1 -64 -1 -84l3 -109l-48 -6l-9 67q-60 6 -80 6h-53q-18 0 -43 -3v-168 q0 -43 7 -110h144q38 0 87 9q19 26 21 37q1 4 7.5 31t7.5 36l55 -5l-15 -151l-19 -18q-94 4 -114 4h-237l-118 -5zM122 824q0 28 14 44t40 16q54 0 54 -60q0 -59 -54 -59t-54 59zM358 824q0 28 14 44t40 16q54 0 54 -60q0 -59 -54 -59t-54 59z" />
<glyph unicode="&#xcc;" horiz-adv-x="363" d="M32 825l30 73l229 -100l-20 -48l-88 37zM48 45l79 16q9 59 9 76v431q0 18 -9 76l-77 12l5 54q96 -5 116 -5l137 5l4 -59l-78 -7q-7 -49 -7 -106v-371q0 -57 7 -106l90 -7l-7 -59q-66 5 -146 5l-118 -5z" />
<glyph unicode="&#xcd;" horiz-adv-x="363" d="M48 45l79 16q9 59 9 76v431q0 18 -9 76l-77 12l5 54q96 -5 116 -5l137 5l4 -59l-78 -7q-7 -49 -7 -106v-371q0 -57 7 -106l90 -7l-7 -59q-66 5 -146 5l-118 -5zM72 798l229 100l30 -73q-132 -32 -151 -38l-88 -37z" />
<glyph unicode="&#xce;" horiz-adv-x="363" d="M8 786l174 107l174 -107l-23 -39l-88 41l-63 25l-63 -25l-88 -41zM48 45l79 16q9 59 9 76v431q0 18 -9 76l-77 12l5 54q96 -5 116 -5l137 5l4 -59l-78 -7q-7 -49 -7 -106v-371q0 -57 7 -106l90 -7l-7 -59q-66 5 -146 5l-118 -5z" />
<glyph unicode="&#xd0;" horiz-adv-x="721" d="M42 45l79 16q9 59 9 76v200h-88v43h88v188q0 18 -9 76l-77 12l5 54q64 -3 98 -5q26 1 88 5.5t99 4.5q165 0 255 -97t90 -266q0 -162 -92.5 -260t-252.5 -98q-18 0 -77 3t-92 3l-118 -5zM221 167q0 -82 7 -110q52 -4 107 -4q120 0 182.5 84t62.5 215q0 133 -62.5 218 t-182.5 85q-65 0 -107 -5q-7 -66 -7 -112v-158h143l-5 -43h-138v-170z" />
<glyph unicode="&#xd1;" horiz-adv-x="761" d="M41 656l5 54q96 -5 116 -5l44 1l20 -21q82 -133 97 -155l262 -367v395q0 29 -9 83l-79 6l6 60l82 -2l156 5l5 -53l-79 -16q-15 -71 -15 -113v-231l-1 -304h-60l-394 563v-389q0 -57 7 -106l81 -7l-7 -59q-43 5 -123 5l-108 -5l-5 50l79 16q9 59 9 76v431q0 8 -9 76z M213 771q5 11 13 28t29.5 45t39.5 28q20 0 82.5 -20.5t82.5 -20.5q12 0 25 12.5t21 25.5l7 13l36 -21q-5 -11 -13 -27.5t-30 -43.5t-40 -27q-20 0 -82 20.5t-82 20.5q-12 0 -25 -13.5t-21 -26.5l-7 -14z" />
<glyph unicode="&#xd2;" horiz-adv-x="740" d="M42 352q0 168 84.5 268t243.5 100t243.5 -100t84.5 -268t-84.5 -267.5t-243.5 -99.5t-243.5 99.5t-84.5 267.5zM149 352q0 -138 57 -226t164 -88t164 88t57 226t-57 226.5t-164 88.5t-164 -88.5t-57 -226.5zM220 825l30 73l229 -100l-20 -48l-88 37z" />
<glyph unicode="&#xd3;" horiz-adv-x="740" d="M42 352q0 168 84.5 268t243.5 100t243.5 -100t84.5 -268t-84.5 -267.5t-243.5 -99.5t-243.5 99.5t-84.5 267.5zM149 352q0 -138 57 -226t164 -88t164 88t57 226t-57 226.5t-164 88.5t-164 -88.5t-57 -226.5zM260 798l229 100l30 -73q-132 -32 -151 -38l-88 -37z" />
<glyph unicode="&#xd4;" horiz-adv-x="740" d="M42 352q0 168 84.5 268t243.5 100t243.5 -100t84.5 -268t-84.5 -267.5t-243.5 -99.5t-243.5 99.5t-84.5 267.5zM149 352q0 -138 57 -226t164 -88t164 88t57 226t-57 226.5t-164 88.5t-164 -88.5t-57 -226.5zM196 786l174 107l174 -107l-23 -39l-88 41l-63 25l-63 -25 l-88 -41z" />
<glyph unicode="&#xd5;" horiz-adv-x="740" d="M42 352q0 168 84.5 268t243.5 100t243.5 -100t84.5 -268t-84.5 -267.5t-243.5 -99.5t-243.5 99.5t-84.5 267.5zM149 352q0 -138 57 -226t164 -88t164 88t57 226t-57 226.5t-164 88.5t-164 -88.5t-57 -226.5zM202 771q5 11 13 28t29.5 45t39.5 28q20 0 82.5 -20.5 t82.5 -20.5q12 0 25 12.5t20 25.5l8 13l36 -21q-5 -11 -13 -27.5t-30 -43.5t-40 -27q-20 0 -82 20.5t-82 20.5q-12 0 -25.5 -13.5t-20.5 -26.5l-7 -14z" />
<glyph unicode="&#xd7;" horiz-adv-x="538" d="M60 405l50 50l158 -156l156 158l53 -53l-156 -156l157 -154l-53 -53l-156 155l-157 -156l-50 50l155 158z" />
<glyph unicode="&#xd8;" horiz-adv-x="740" d="M42 352q0 168 84.5 268t243.5 100q85 0 152 -31l78 149l42 -23l-79 -150q135 -96 135 -313q0 -168 -84.5 -267.5t-243.5 -99.5q-84 0 -150 30l-80 -151l-40 23l79 151q-137 93 -137 314zM149 352q0 -156 68 -242l272 517q-51 40 -119 40q-107 0 -164 -88.5t-57 -226.5z M252 76q51 -38 118 -38q107 0 164 88t57 226q0 154 -67 240z" />
<glyph unicode="&#xd9;" horiz-adv-x="727" d="M17 656l5 54q96 -5 116 -5l144 5l4 -59l-79 -7q-7 -52 -7 -111v-267q0 -99 44 -158t128 -59q87 0 132.5 59.5t45.5 157.5v297q0 11 -10 81l-78 12l5 54q86 -5 106 -5l131 5l4 -59l-79 -7q-7 -52 -7 -111v-267q0 -131 -66.5 -206t-192.5 -75t-192 75t-66 206v297 q0 13 -9 81zM215 825l30 73l229 -100l-20 -48l-88 37z" />
<glyph unicode="&#xda;" horiz-adv-x="727" d="M17 656l5 54q96 -5 116 -5l144 5l4 -59l-79 -7q-7 -52 -7 -111v-267q0 -99 44 -158t128 -59q87 0 132.5 59.5t45.5 157.5v297q0 11 -10 81l-78 12l5 54q86 -5 106 -5l131 5l4 -59l-79 -7q-7 -52 -7 -111v-267q0 -131 -66.5 -206t-192.5 -75t-192 75t-66 206v297 q0 13 -9 81zM255 798l229 100l30 -73q-132 -32 -151 -38l-88 -37z" />
<glyph unicode="&#xdb;" horiz-adv-x="727" d="M17 656l5 54q96 -5 116 -5l144 5l4 -59l-79 -7q-7 -52 -7 -111v-267q0 -99 44 -158t128 -59q87 0 132.5 59.5t45.5 157.5v297q0 11 -10 81l-78 12l5 54q86 -5 106 -5l131 5l4 -59l-79 -7q-7 -52 -7 -111v-267q0 -131 -66.5 -206t-192.5 -75t-192 75t-66 206v297 q0 13 -9 81zM191 786l174 107l174 -107l-23 -39l-88 41l-63 25l-63 -25l-88 -41z" />
<glyph unicode="&#xdc;" horiz-adv-x="727" d="M17 656l5 54q96 -5 116 -5l144 5l4 -59l-79 -7q-7 -52 -7 -111v-267q0 -99 44 -158t128 -59q87 0 132.5 59.5t45.5 157.5v297q0 11 -10 81l-78 12l5 54q86 -5 106 -5l131 5l4 -59l-79 -7q-7 -52 -7 -111v-267q0 -131 -66.5 -206t-192.5 -75t-192 75t-66 206v297 q0 13 -9 81zM193 824q0 28 14 44t40 16q54 0 54 -60q0 -59 -54 -59t-54 59zM429 824q0 28 14 44t40 16q54 0 54 -60q0 -59 -54 -59t-54 59z" />
<glyph unicode="&#xde;" horiz-adv-x="585" d="M42 45l79 16q9 59 9 76v431q0 18 -9 76l-77 12l5 54q96 -5 116 -5l137 5l4 -59l-78 -7q-4 -24 -6 -77q76 6 110 6q106 0 164.5 -54t58.5 -159q0 -98 -70.5 -154.5t-175.5 -56.5q-32 0 -88 2q1 -57 7 -90l90 -7l-7 -59q-66 5 -146 5l-118 -5zM221 204q42 -5 68 -5 q80 0 126 41t46 120t-45.5 121t-125.5 42q-17 0 -69 -6v-313z" />
<glyph unicode="&#xdf;" horiz-adv-x="625" d="M34 45l79 16q9 59 9 76v303h-77l-3 42q9 3 28 8.5t30.5 10t21.5 10.5v66q0 93 53.5 143t148.5 50q87 0 146.5 -42t59.5 -119q0 -40 -15.5 -70t-38 -48.5t-44.5 -34t-37.5 -35.5t-15.5 -44t24 -44.5t58.5 -38t68.5 -37.5t58 -52.5t24 -72.5q0 -142 -163 -142 q-40 0 -79 9.5t-58 19.5l-19 10l11 136l58 -3v-38q0 -12 12 -60q26 -23 74 -23q79 0 79 76q0 29 -23.5 51.5t-57.5 39t-68 36t-57.5 51.5t-23.5 75q0 37 17 65t41 45t47.5 33.5t40.5 40t17 55.5q0 47 -38.5 74.5t-97.5 27.5q-73 0 -97 -39.5t-24 -125.5v-379q0 -63 6 -167 h-52l-118 -5z" />
<glyph unicode="&#xe0;" horiz-adv-x="516" d="M45 118q0 111 134 133l160 27v33q0 138 -94 138q-53 0 -95 -20l-7 -42v-41l-58 -3l-11 136q90 24 181 24q89 0 127 -48.5t38 -163.5v-124q0 -22 2.5 -48.5t5.5 -42.5l2 -15l69 -7l-7 -59q-49 5 -129 5l-14 79q-19 -38 -64.5 -63.5t-94.5 -25.5q-67 0 -106 34.5t-39 93.5z M114 695l47 60l180 -150l-33 -41l-73 60zM133 133q0 -38 19 -58.5t54 -20.5q50 0 87.5 32t45.5 81v60l-143 -27q-30 -5 -46.5 -23t-16.5 -44z" />
<glyph unicode="&#xe1;" horiz-adv-x="516" d="M45 118q0 111 134 133l160 27v33q0 138 -94 138q-53 0 -95 -20l-7 -42v-41l-58 -3l-11 136q90 24 181 24q89 0 127 -48.5t38 -163.5v-124q0 -22 2.5 -48.5t5.5 -42.5l2 -15l69 -7l-7 -59q-49 5 -129 5l-14 79q-19 -38 -64.5 -63.5t-94.5 -25.5q-67 0 -106 34.5t-39 93.5z M133 133q0 -38 19 -58.5t54 -20.5q50 0 87.5 32t45.5 81v60l-143 -27q-30 -5 -46.5 -23t-16.5 -44zM154 605l180 150l47 -60q-106 -60 -121 -71l-73 -60z" />
<glyph unicode="&#xe2;" horiz-adv-x="516" d="M45 118q0 111 134 133l160 27v33q0 138 -94 138q-53 0 -95 -20l-7 -42v-41l-58 -3l-11 136q90 24 181 24q89 0 127 -48.5t38 -163.5v-124q0 -22 2.5 -48.5t5.5 -42.5l2 -15l69 -7l-7 -59q-49 5 -129 5l-14 79q-19 -38 -64.5 -63.5t-94.5 -25.5q-67 0 -106 34.5t-39 93.5z M82 596l166 169l166 -169l-33 -32l-74 61l-59 43q-10 -7 -24.5 -17.5t-23 -16.5t-11.5 -9l-74 -61zM133 133q0 -38 19 -58.5t54 -20.5q50 0 87.5 32t45.5 81v60l-143 -27q-30 -5 -46.5 -23t-16.5 -44z" />
<glyph unicode="&#xe3;" horiz-adv-x="516" d="M45 118q0 111 134 133l160 27v33q0 138 -94 138q-53 0 -95 -20l-7 -42v-41l-58 -3l-11 136q90 24 181 24q89 0 127 -48.5t38 -163.5v-124q0 -22 2.5 -48.5t5.5 -42.5l2 -15l69 -7l-7 -59q-49 5 -129 5l-14 79q-19 -38 -64.5 -63.5t-94.5 -25.5q-67 0 -106 34.5t-39 93.5z M85 612q5 11 13 28t29.5 45t39.5 28q20 0 77.5 -20.5t77.5 -20.5q12 0 25 13t21 25l7 13l36 -21q-5 -11 -13 -27.5t-30 -43.5t-40 -27q-20 0 -77 20.5t-77 20.5q-12 0 -25 -13.5t-21 -27.5l-7 -13zM133 133q0 -38 19 -58.5t54 -20.5q50 0 87.5 32t45.5 81v60l-143 -27 q-30 -5 -46.5 -23t-16.5 -44z" />
<glyph unicode="&#xe4;" horiz-adv-x="516" d="M45 118q0 111 134 133l160 27v33q0 138 -94 138q-53 0 -95 -20l-7 -42v-41l-58 -3l-11 136q90 24 181 24q89 0 127 -48.5t38 -163.5v-124q0 -22 2.5 -48.5t5.5 -42.5l2 -15l69 -7l-7 -59q-49 5 -129 5l-14 79q-19 -38 -64.5 -63.5t-94.5 -25.5q-67 0 -106 34.5t-39 93.5z M76 653q0 28 14 44t40 16q54 0 54 -60q0 -59 -54 -59t-54 59zM133 133q0 -38 19 -58.5t54 -20.5q50 0 87.5 32t45.5 81v60l-143 -27q-30 -5 -46.5 -23t-16.5 -44zM312 653q0 28 14 44t40 16q54 0 54 -60q0 -59 -54 -59t-54 59z" />
<glyph unicode="&#xe5;" horiz-adv-x="516" d="M45 118q0 111 134 133l160 27v33q0 138 -94 138q-53 0 -95 -20l-7 -42v-41l-58 -3l-11 136q90 24 181 24q89 0 127 -48.5t38 -163.5v-124q0 -22 2.5 -48.5t5.5 -42.5l2 -15l69 -7l-7 -59q-49 5 -129 5l-14 79q-19 -38 -64.5 -63.5t-94.5 -25.5q-67 0 -106 34.5t-39 93.5z M133 133q0 -38 19 -58.5t54 -20.5q50 0 87.5 32t45.5 81v60l-143 -27q-30 -5 -46.5 -23t-16.5 -44zM158 665q0 40 23 63t67 23t66.5 -23t22.5 -63q0 -39 -22.5 -62t-66.5 -23t-67 23t-23 62zM207 665q0 -47 41 -47q42 0 42 47q0 48 -42 48q-41 0 -41 -48z" />
<glyph unicode="&#xe6;" horiz-adv-x="756" d="M40 123q0 51 29.5 83t85.5 41l179 30v34q0 138 -94 138q-55 0 -93 -19l-9 -47v-36l-58 -3l-11 135q90 24 181 24q103 0 138 -65q59 64 150 64q176 0 190 -192l-15 -38l-299 -34q3 -82 43.5 -132.5t102.5 -50.5q35 0 70 10.5t52 20.5l17 10l28 -46q-8 -7 -23.5 -17 t-61.5 -26.5t-92 -16.5q-134 0 -185 116q-68 -116 -180 -116q-67 0 -106 36t-39 97zM128 128q0 -35 19 -54.5t54 -19.5q56 0 94.5 46.5t38.5 114.5v11l-143 -26q-34 -7 -48.5 -23.5t-14.5 -48.5zM416 289l222 31v2q0 61 -27.5 94.5t-76.5 33.5q-51 0 -82 -42t-36 -119z" />
<glyph unicode="&#xe7;" horiz-adv-x="466" d="M40 246q0 118 59 187.5t171 69.5q11 0 21.5 -1t19 -1.5t20 -3.5t17 -4t19 -5t18.5 -5.5t21 -7t21 -7.5l-10 -125l-58 3v36q0 10 -7 34q-36 30 -82 30q-70 0 -103 -58t-33 -142q0 -83 33 -137t103 -54q35 0 70 9t52 18l18 9l28 -47q-6 -5 -18 -13t-50.5 -22.5t-78.5 -17.5 l-10 -50q45 -1 73 -24t28 -63t-31 -64.5t-76 -24.5t-83 18l13 35q35 -11 58 -11q24 0 39 12.5t15 34.5q0 43 -47 43l-21 -1l-11 10l7 85q-100 7 -152.5 75t-52.5 180z" />
<glyph unicode="&#xe8;" horiz-adv-x="478" d="M40 245q0 117 55.5 187.5t162.5 70.5q192 0 192 -233l-17 -33h-299q2 -74 37.5 -128t98.5 -54q38 0 75 10.5t55 20.5l19 10l28 -46q-7 -7 -21 -17t-60 -26.5t-96 -16.5q-111 0 -170.5 69.5t-59.5 185.5zM127 695l47 60l180 -150l-33 -41l-73 60zM135 287l222 17 q1 15 1 20q0 56 -26.5 91.5t-77.5 35.5q-105 0 -119 -164z" />
<glyph unicode="&#xe9;" horiz-adv-x="478" d="M40 245q0 117 55.5 187.5t162.5 70.5q192 0 192 -233l-17 -33h-299q2 -74 37.5 -128t98.5 -54q38 0 75 10.5t55 20.5l19 10l28 -46q-7 -7 -21 -17t-60 -26.5t-96 -16.5q-111 0 -170.5 69.5t-59.5 185.5zM135 287l222 17q1 15 1 20q0 56 -26.5 91.5t-77.5 35.5 q-105 0 -119 -164zM167 605l180 150l47 -60q-106 -60 -121 -71l-73 -60z" />
<glyph unicode="&#xea;" horiz-adv-x="478" d="M40 245q0 117 55.5 187.5t162.5 70.5q192 0 192 -233l-17 -33h-299q2 -74 37.5 -128t98.5 -54q38 0 75 10.5t55 20.5l19 10l28 -46q-7 -7 -21 -17t-60 -26.5t-96 -16.5q-111 0 -170.5 69.5t-59.5 185.5zM95 596l166 169l166 -169l-33 -32l-74 61l-59 43 q-10 -7 -24.5 -17.5t-23 -16.5t-11.5 -9l-74 -61zM135 287l222 17q1 15 1 20q0 56 -26.5 91.5t-77.5 35.5q-105 0 -119 -164z" />
<glyph unicode="&#xeb;" horiz-adv-x="478" d="M40 245q0 117 55.5 187.5t162.5 70.5q192 0 192 -233l-17 -33h-299q2 -74 37.5 -128t98.5 -54q38 0 75 10.5t55 20.5l19 10l28 -46q-7 -7 -21 -17t-60 -26.5t-96 -16.5q-111 0 -170.5 69.5t-59.5 185.5zM89 653q0 28 14 44t40 16q54 0 54 -60q0 -59 -54 -59t-54 59z M135 287l222 17q1 15 1 20q0 56 -26.5 91.5t-77.5 35.5q-105 0 -119 -164zM325 653q0 28 14 44t40 16q54 0 54 -60q0 -59 -54 -59t-54 59z" />
<glyph unicode="&#xec;" horiz-adv-x="301" d="M17 695l47 60l180 -150l-33 -41l-73 60zM36 45l76 16q10 56 10 76v216l-10 76l-76 16l5 53q72 -4 92 -4h58l19 -18q-7 -103 -7 -153v-156l7 -106l78 -7l-7 -59q-49 5 -129 5l-111 -5z" />
<glyph unicode="&#xed;" horiz-adv-x="301" d="M36 45l76 16q10 56 10 76v216l-10 76l-76 16l5 53q72 -4 92 -4h58l19 -18q-7 -103 -7 -153v-156l7 -106l78 -7l-7 -59q-49 5 -129 5l-111 -5zM57 605l180 150l47 -60q-106 -60 -121 -71l-73 -60z" />
<glyph unicode="&#xee;" horiz-adv-x="301" d="M-15 596l166 169l166 -169l-33 -32l-74 61l-59 43q-10 -7 -24.5 -17.5t-23 -16.5t-11.5 -9l-74 -61zM46 45l76 16q10 56 10 76v216l-10 76l-76 16l5 53q72 -4 92 -4h58l19 -18q-7 -103 -7 -153v-156l7 -106l78 -7l-7 -59q-49 5 -129 5l-111 -5z" />
<glyph unicode="&#xf0;" horiz-adv-x="543" d="M41 236q0 109 60 178t157 69q29 0 70 -16l-8 -45q-26 4 -53 4q-65 0 -98 -54.5t-33 -135.5t32.5 -135t101.5 -54q72 0 104.5 57.5t32.5 146.5q0 233 -102 363l-124 -64l-22 35l118 61q-46 46 -109 78l19 41q82 -32 144 -91l115 60l22 -37l-106 -54q69 -76 104 -178 t35 -213q0 -120 -60 -191t-171 -71q-106 0 -167.5 68t-61.5 178z" />
<glyph unicode="&#xf1;" horiz-adv-x="610" d="M36 45l76 16q8 48 10 71v221l-10 76l-76 16l5 53q72 -4 92 -4h36l19 -18l6 -64q20 38 59.5 64.5t92.5 26.5q97 0 133 -56.5t36 -170.5v-109l7 -106l78 -7l-7 -59q-49 5 -129 5l-102 -5l-5 50l67 16q10 44 10 76v139q0 166 -103 166q-58 0 -92.5 -46.5t-35.5 -121.5v-107 l7 -106l78 -7l-7 -59q-49 5 -129 5l-111 -5zM172 612q5 11 13 28t29.5 45t39.5 28q20 0 77.5 -20.5t77.5 -20.5q12 0 25.5 13t20.5 25l7 13l36 -21q-5 -11 -13 -27.5t-30 -43.5t-40 -27q-20 0 -77 20.5t-77 20.5q-12 0 -25 -13.5t-20 -27.5l-8 -13z" />
<glyph unicode="&#xf2;" horiz-adv-x="540" d="M40 246q0 118 59.5 187.5t170.5 69.5q113 0 171.5 -69t58.5 -188q0 -117 -59.5 -186.5t-170.5 -69.5t-170.5 69.5t-59.5 186.5zM134 246q0 -87 32 -143t104 -56t104 56t32 143t-32 143.5t-104 56.5t-104 -56.5t-32 -143.5zM144 695l47 60l180 -150l-33 -41l-73 60z" />
<glyph unicode="&#xf3;" horiz-adv-x="540" d="M40 246q0 118 59.5 187.5t170.5 69.5q113 0 171.5 -69t58.5 -188q0 -117 -59.5 -186.5t-170.5 -69.5t-170.5 69.5t-59.5 186.5zM134 246q0 -87 32 -143t104 -56t104 56t32 143t-32 143.5t-104 56.5t-104 -56.5t-32 -143.5zM184 605l180 150l47 -60q-106 -60 -121 -71 l-73 -60z" />
<glyph unicode="&#xf4;" horiz-adv-x="540" d="M40 246q0 118 59.5 187.5t170.5 69.5q113 0 171.5 -69t58.5 -188q0 -117 -59.5 -186.5t-170.5 -69.5t-170.5 69.5t-59.5 186.5zM112 596l166 169l166 -169l-33 -32l-74 61l-59 43q-10 -7 -24.5 -17.5t-23 -16.5t-11.5 -9l-74 -61zM134 246q0 -87 32 -143t104 -56t104 56 t32 143t-32 143.5t-104 56.5t-104 -56.5t-32 -143.5z" />
<glyph unicode="&#xf5;" horiz-adv-x="540" d="M40 246q0 118 59.5 187.5t170.5 69.5q113 0 171.5 -69t58.5 -188q0 -117 -59.5 -186.5t-170.5 -69.5t-170.5 69.5t-59.5 186.5zM115 612q5 11 13 28t29.5 45t39.5 28q20 0 77.5 -20.5t77.5 -20.5q12 0 25 13t21 25l7 13l36 -21q-5 -11 -13 -27.5t-30 -43.5t-40 -27 q-20 0 -77 20.5t-77 20.5q-12 0 -25 -13.5t-21 -27.5l-7 -13zM134 246q0 -87 32 -143t104 -56t104 56t32 143t-32 143.5t-104 56.5t-104 -56.5t-32 -143.5z" />
<glyph unicode="&#xf7;" d="M52 213v66l455 5v-71h-455zM228 70q0 29 15.5 47t43.5 18t43.5 -17t15.5 -48q0 -29 -15.5 -46.5t-43.5 -17.5t-43.5 17.5t-15.5 46.5zM228 423q0 29 15.5 47t43.5 18t43.5 -17t15.5 -48q0 -29 -15.5 -46.5t-43.5 -17.5t-43.5 17.5t-15.5 46.5z" />
<glyph unicode="&#xf8;" horiz-adv-x="540" d="M40 246q0 118 59.5 187.5t170.5 69.5q61 0 108 -22l62 117l40 -20l-64 -120q84 -66 84 -212q0 -117 -59.5 -186.5t-170.5 -69.5q-48 0 -93 15l-55 -104l-39 20l55 105q-98 65 -98 220zM134 246q0 -101 39 -154l173 329q-30 25 -76 25q-72 0 -104 -56.5t-32 -143.5z M207 62q25 -15 63 -15q72 0 104 56t32 143q0 83 -29 137z" />
<glyph unicode="&#xf9;" horiz-adv-x="592" d="M23 445l5 53q62 -4 82 -4h58l19 -18q-7 -103 -7 -153v-140q0 -129 99 -129q59 0 92.5 46t33.5 110v143l-10 76l-71 16l5 53q67 -4 87 -4h58l19 -18q-7 -103 -7 -153v-156q0 -22 2.5 -48.5t5.5 -42.5l2 -15l69 -7l-7 -59q-49 5 -129 5l-13 78q-51 -88 -155 -88 q-96 0 -129 56.5t-33 170.5v136l-10 76zM140 695l47 60l180 -150l-33 -41l-73 60z" />
<glyph unicode="&#xfa;" horiz-adv-x="592" d="M23 445l5 53q62 -4 82 -4h58l19 -18q-7 -103 -7 -153v-140q0 -129 99 -129q59 0 92.5 46t33.5 110v143l-10 76l-71 16l5 53q67 -4 87 -4h58l19 -18q-7 -103 -7 -153v-156q0 -22 2.5 -48.5t5.5 -42.5l2 -15l69 -7l-7 -59q-49 5 -129 5l-13 78q-51 -88 -155 -88 q-96 0 -129 56.5t-33 170.5v136l-10 76zM180 605l180 150l47 -60q-106 -60 -121 -71l-73 -60z" />
<glyph unicode="&#xfb;" horiz-adv-x="592" d="M23 445l5 53q62 -4 82 -4h58l19 -18q-7 -103 -7 -153v-140q0 -129 99 -129q59 0 92.5 46t33.5 110v143l-10 76l-71 16l5 53q67 -4 87 -4h58l19 -18q-7 -103 -7 -153v-156q0 -22 2.5 -48.5t5.5 -42.5l2 -15l69 -7l-7 -59q-49 5 -129 5l-13 78q-51 -88 -155 -88 q-96 0 -129 56.5t-33 170.5v136l-10 76zM108 596l166 169l166 -169l-33 -32l-74 61l-59 43q-10 -7 -24.5 -17.5t-23 -16.5t-11.5 -9l-74 -61z" />
<glyph unicode="&#xfc;" horiz-adv-x="592" d="M23 445l5 53q62 -4 82 -4h58l19 -18q-7 -103 -7 -153v-140q0 -129 99 -129q59 0 92.5 46t33.5 110v143l-10 76l-71 16l5 53q67 -4 87 -4h58l19 -18q-7 -103 -7 -153v-156q0 -22 2.5 -48.5t5.5 -42.5l2 -15l69 -7l-7 -59q-49 5 -129 5l-13 78q-51 -88 -155 -88 q-96 0 -129 56.5t-33 170.5v136l-10 76zM109 653q0 28 14 44t40 16q54 0 54 -60q0 -59 -54 -59t-54 59zM345 653q0 28 14 44t40 16q54 0 54 -60q0 -59 -54 -59t-54 59z" />
<glyph unicode="&#xfe;" horiz-adv-x="545" d="M1 707l5 53q72 -4 92 -4h58l19 -18l-7 -140v-171q14 27 53.5 51.5t78.5 24.5q98 0 151.5 -64.5t53.5 -182.5q0 -115 -65 -190.5t-165 -75.5q-51 0 -107 25v-76l7 -106l98 -7l-7 -59q-68 5 -148 5l-102 -5l-5 50l66 16q10 48 10 71v711l-10 76zM168 86q52 -36 101 -36 q71 0 108.5 52.5t37.5 151.5q0 188 -123 188q-55 0 -89.5 -48t-34.5 -120v-188z" />
<glyph unicode="&#xff;" horiz-adv-x="539" d="M0 445l5 52q62 -3 82 -3l137 5l3 -58l-72 -7q13 -57 25 -85l99 -245l87 232q14 39 27 97l-73 12l5 52q67 -3 87 -3l115 5l3 -58l-53 -8q-36 -73 -52 -114l-206 -554l-161 11l8 58l40 -1q14 0 67 10q25 35 38 68l32 89l-143 333q-15 37 -51 100zM98 653q0 28 14 44t40 16 q54 0 54 -60q0 -59 -54 -59t-54 59zM334 653q0 28 14 44t40 16q54 0 54 -60q0 -59 -54 -59t-54 59z" />
<glyph unicode="&#x152;" horiz-adv-x="981" d="M42 352q0 168 84.5 268t243.5 100q50 0 97 -11q60 -4 91 -4h224l114 10l19 -18l7 -136l-58 -5q-7 57 -31 88q-55 5 -81 5h-131q-7 -67 -7 -111v-144q34 -2 43 -2h73l60 9l9 66l46 -5q-1 -60 -1 -80l3 -109l-48 -6l-9 67q-60 6 -80 6h-53q-17 0 -43 -3v-170q0 -43 7 -110 h144q37 0 87 9q19 26 21 37q1 4 7.5 31t7.5 36l55 -5l-15 -151l-19 -18q-94 4 -114 4h-237q-31 0 -91 -4q-47 -11 -97 -11q-159 0 -243.5 99.5t-84.5 267.5zM149 352q0 -138 57 -226t164 -88q96 0 153 70v487q-61 72 -153 72q-107 0 -164 -88.5t-57 -226.5z" />
<glyph unicode="&#x153;" horiz-adv-x="829" d="M40 246q0 118 59.5 187.5t170.5 69.5q114 0 175 -73q57 73 164 73q192 0 192 -233l-17 -33h-299q3 -75 38 -128.5t98 -53.5q38 0 75 10.5t56 20.5l18 10l28 -46q-7 -7 -21 -17t-60 -26.5t-96 -16.5q-114 0 -176 75q-61 -75 -175 -75q-111 0 -170.5 69.5t-59.5 186.5z M134 246q0 -87 32 -143t104 -56t104 56t32 143t-32 143.5t-104 56.5t-104 -56.5t-32 -143.5zM486 288l222 16q1 15 1 20q0 56 -26.5 91.5t-77.5 35.5q-105 0 -119 -163z" />
<glyph unicode="&#x178;" horiz-adv-x="663" d="M6 651l5 54h109l147 5l4 -49l-79 -20q11 -49 43 -108l101 -189l115 234l28 63l-76 10l5 54h90l143 5l4 -49l-68 -17q-36 -47 -63 -99l-140 -272v-106q0 -57 7 -106l90 -7l-7 -59q-66 5 -146 5l-118 -5l-5 50l79 16q9 58 9 76v120l-155 299q-9 18 -23 39.5t-23 33.5 l-10 12zM160 824q0 28 14 44t40 16q54 0 54 -60q0 -59 -54 -59t-54 59zM396 824q0 28 14 44t40 16q54 0 54 -60q0 -59 -54 -59t-54 59z" />
<glyph unicode="&#x2c6;" horiz-adv-x="360" d="M14 596l166 169l166 -169l-33 -32l-74 61l-59 43q-10 -7 -24.5 -17.5t-23 -16.5t-11.5 -9l-74 -61z" />
<glyph unicode="&#x2dc;" horiz-adv-x="360" d="M17 612q5 11 13 28t29.5 45t39.5 28q20 0 77.5 -20.5t77.5 -20.5q12 0 25 13t21 25l7 13l36 -21q-5 -11 -13 -27.5t-30 -43.5t-40 -27q-20 0 -77 20.5t-77 20.5q-12 0 -25 -13.5t-21 -27.5l-7 -13z" />
<glyph unicode="&#x2000;" horiz-adv-x="458" />
<glyph unicode="&#x2001;" horiz-adv-x="916" />
<glyph unicode="&#x2002;" horiz-adv-x="458" />
<glyph unicode="&#x2003;" horiz-adv-x="916" />
<glyph unicode="&#x2004;" horiz-adv-x="305" />
<glyph unicode="&#x2005;" horiz-adv-x="229" />
<glyph unicode="&#x2006;" horiz-adv-x="152" />
<glyph unicode="&#x2007;" horiz-adv-x="152" />
<glyph unicode="&#x2008;" horiz-adv-x="114" />
<glyph unicode="&#x2009;" horiz-adv-x="183" />
<glyph unicode="&#x200a;" horiz-adv-x="50" />
<glyph unicode="&#x2010;" horiz-adv-x="282" d="M30 291h222l-5 -75h-215z" />
<glyph unicode="&#x2011;" horiz-adv-x="282" d="M30 291h222l-5 -75h-215z" />
<glyph unicode="&#x2012;" horiz-adv-x="282" d="M30 291h222l-5 -75h-215z" />
<glyph unicode="&#x2013;" horiz-adv-x="504" d="M0 291h504l-5 -75h-497z" />
<glyph unicode="&#x2014;" horiz-adv-x="1006" d="M0 291h1006l-5 -75h-999z" />
<glyph unicode="&#x2018;" horiz-adv-x="192" d="M29 603q0 56 35 105t95 62l7 -24q-69 -30 -69 -95q27 0 44 -18t17 -45q0 -28 -18.5 -48.5t-45.5 -20.5q-31 0 -48 24.5t-17 59.5z" />
<glyph unicode="&#x2019;" horiz-adv-x="192" d="M26 543q69 30 69 95q-27 0 -44 18t-17 45q0 28 18.5 48.5t45.5 20.5q31 0 48 -24.5t17 -59.5q0 -56 -35 -105t-95 -62z" />
<glyph unicode="&#x201a;" horiz-adv-x="216" d="M34 -105q69 30 69 95q-27 0 -44 18t-17 45q0 28 18.5 48.5t45.5 20.5q31 0 48 -24.5t17 -59.5q0 -56 -35 -105t-95 -62z" />
<glyph unicode="&#x201c;" horiz-adv-x="360" d="M35 603q0 56 35 105t95 62l7 -24q-69 -30 -69 -95q27 0 44 -18t17 -45q0 -28 -18.5 -48.5t-45.5 -20.5q-31 0 -48 24.5t-17 59.5zM195 603q0 56 35 105t95 62l7 -24q-69 -30 -69 -95q27 0 44 -18t17 -45q0 -28 -18.5 -48.5t-45.5 -20.5q-31 0 -48 24.5t-17 59.5z" />
<glyph unicode="&#x201d;" horiz-adv-x="370" d="M36 538q69 30 69 95q-27 0 -44 18t-17 45q0 28 18.5 48.5t45.5 20.5q31 0 48 -24.5t17 -59.5q0 -56 -35 -105t-95 -62zM197 538q69 30 69 95q-27 0 -44 18t-17 45q0 28 18.5 48.5t45.5 20.5q31 0 48 -24.5t17 -59.5q0 -56 -35 -105t-95 -62z" />
<glyph unicode="&#x201e;" horiz-adv-x="377" d="M34 -105q69 30 69 95q-27 0 -44 18t-17 45q0 28 18.5 48.5t45.5 20.5q31 0 48 -24.5t17 -59.5q0 -56 -35 -105t-95 -62zM195 -105q69 30 69 95q-27 0 -44 18t-17 45q0 28 18.5 48.5t45.5 20.5q31 0 48 -24.5t17 -59.5q0 -56 -35 -105t-95 -62z" />
<glyph unicode="&#x2022;" horiz-adv-x="230" d="M35 253q0 39 21 63t59 24t59 -23t21 -64q0 -39 -21 -62.5t-59 -23.5t-59 23.5t-21 62.5z" />
<glyph unicode="&#x2026;" horiz-adv-x="603" d="M40 59q0 30 16 48.5t45 18.5t45 -18t16 -49q0 -30 -16 -48t-45 -18t-45 18t-16 48zM238 59q0 30 16 48.5t45 18.5t45 -18t16 -49q0 -30 -16 -48t-45 -18t-45 18t-16 48zM436 59q0 30 16 48.5t45 18.5t45 -18t16 -49q0 -30 -16 -48t-45 -18t-45 18t-16 48z" />
<glyph unicode="&#x202f;" horiz-adv-x="183" />
<glyph unicode="&#x2039;" horiz-adv-x="257" d="M25 242l153 222l37 -25l-107 -197l107 -197l-37 -25z" />
<glyph unicode="&#x203a;" horiz-adv-x="257" d="M42 44l106 197l-106 197l37 25l153 -222l-153 -222z" />
<glyph unicode="&#x205f;" horiz-adv-x="229" />
<glyph unicode="&#x20ac;" horiz-adv-x="689" d="M45 378l99 4q15 130 92 205t209 75q70 0 200 -34l-11 -148l-61 6v45q0 10 -10 50q-65 23 -117 23q-83 0 -132.5 -59.5t-61.5 -157.5l203 9l2 -34l-209 -10v-28q0 -16 2 -44l210 10l2 -34l-208 -10q14 -93 63.5 -148t129.5 -55q59 0 125 22q13 43 13 56l2 47l61 2l6 -151 q-132 -34 -209 -34q-127 0 -203 68t-95 188l-95 -4l-2 35l93 4q-2 15 -2 47v24l-94 -4z" />
<glyph unicode="&#x2122;" horiz-adv-x="522" d="M3 646l3 56l6 7q31 -3 38 -3h109l37 3l7 -7l2 -56l-24 -1q0 8 -3 23q-2 2 -3 7q-10 2 -24 2h-17q-3 -18 -3 -25v-115q0 -26 3 -38l21 -2l-2 -27q-27 2 -66 2l-32 -2l-2 24l21 5q3 9 3 28v111q0 21 -3 39h-14q-13 0 -27 -2q-1 -2 -1 -5l-1 -2q-3 -15 -3 -23zM221 493l22 5 l5 18l8 144q0 8 -2 18l-21 4l1 25q19 -1 35 -3h49l7 -5q10 -37 14 -51l33 -101l35 107l13 45l7 7h35l43 1l1 -25l-21 -4v-18l10 -144q4 -15 5 -18l20 -3l-1 -25q-24 2 -60 2l-34 -2l-1 23l21 5q2 14 2 28l-6 115l-59 -169h-32l-57 169l-7 -115q0 -4 0.5 -14t0.5 -14l22 -3 l-2 -25q-14 2 -52 2l-33 -2z" />
<glyph unicode="&#xe000;" horiz-adv-x="500" d="M0 0v500h500v-500h-500z" />
</font>
</defs>
</svg>
