<?xml version="1.0" standalone="no"?>
<!DOCTYPE svg PUBLIC "-//W3C//DTD SVG 1.1//EN" "http://www.w3.org/Graphics/SVG/1.1/DTD/svg11.dtd" >
<svg xmlns="http://www.w3.org/2000/svg">
<metadata></metadata>
<defs>
<font id="playtimewithhottoddies3dRg" horiz-adv-x="682" >
<font-face units-per-em="1000" ascent="800" descent="-200" />
<missing-glyph horiz-adv-x="269" />
<glyph horiz-adv-x="1000" />
<glyph horiz-adv-x="1000" />
<glyph horiz-adv-x="333" />
<glyph unicode="&#xd;" horiz-adv-x="198" d="M106 387q-13 2 -26 1t-27 -1q-2 -14 -3 -28t-1 -28q-1 -80 -3.5 -159t-2.5 -159v-9q9 -1 26 -3t34 -1t30.5 6t17.5 18q2 9 3.5 36.5t2 64.5t0.5 79t-1 78.5t-2 63t-3 34.5q-11 2 -22.5 3.5t-22.5 3.5zM103 367q6 -1 12.5 -2t18.5 -3q1 -13 2 -41t1 -63t-0.5 -73t-1 -71 t-1.5 -56t-3 -28q-2 -6 -11.5 -8t-21.5 -2q-11 0 -21.5 1t-13.5 1q0 78 2.5 154.5t3.5 154.5q0 9 0.5 18t1.5 18q14 1 20 1q7 0 12 -1z" />
<glyph unicode=" "  horiz-adv-x="269" />
<glyph unicode="&#x09;" horiz-adv-x="269" />
<glyph unicode="&#xa0;" horiz-adv-x="269" />
<glyph unicode="!" horiz-adv-x="238" d="M110 132q-23 -3 -37.5 -19t-19 -36t3 -40.5t29.5 -32.5q24 -13 44 -7.5t33.5 21t18.5 37t0 40.5t-22.5 30t-49.5 7zM112 112q19 3 33.5 -8t19 -27t-3.5 -33.5t-32 -26.5q-19 -7 -34 5.5t-20 31t2.5 36.5t34.5 22zM113 192q9 -2 18.5 -1.5t19.5 1.5q2 14 3.5 27t1.5 27 q0 10 1 35t2.5 58.5t4 73.5t4.5 80q3 52 7 103.5t4 102.5v5q0 14 -8.5 19.5t-21.5 5.5q-12 0 -26.5 -4.5t-27.5 -10t-22 -11t-10 -8.5q-2 -5 -2 -41q0 -35 1.5 -86.5t3.5 -111.5t4.5 -113t5 -91.5t4.5 -47.5l2 -7q8 -1 15.5 -2t15.5 -3zM159 702v-2q0 -52 -4 -103.5 t-7 -102.5q-2 -40 -4.5 -80t-4 -73.5t-2.5 -59t-1 -35.5q0 -19 -3 -35q-9 -1 -17 0.5t-17 3.5q-2 16 -4.5 56.5t-5 92t-4.5 107.5t-3 103.5t-1.5 79.5t0.5 35q3 6 14.5 9.5t24.5 5t24.5 1t14.5 -2.5z" />
<glyph unicode="&#x22;" horiz-adv-x="350" d="M171 722l-4 36q-22 12 -41 12q-18 0 -42 -2q-8 -19 -10.5 -45.5t-2 -54.5t3 -55t4.5 -46q11 -2 21.5 -5.5t21.5 -1.5q19 -5 40 2q1 40 4.5 79.5t3.5 79.5zM151 725l3 8l-4 -4v-4q0 -37 -3 -73.5t-5 -74.5q-8 0 -18 5q-10 -3 -14 -2.5t-13 3.5q-2 17 -3.5 40t-2 46.5t1 45 t5.5 35.5q13 1 26 0.5t25 -5.5zM309 723l-6 35q-22 12 -41 12q-18 0 -42 -2q-8 -19 -10.5 -45.5t-2 -54.5t3 -55t5.5 -46q11 -2 21.5 -5.5t21.5 -1.5q19 -5 40 2q1 40 4 79.5t4 79.5zM288 724l3 9l-4 -4q-1 -38 -3.5 -76t-4.5 -76q-8 0 -20 5q-9 -3 -13 -2.5t-12 3.5 q-2 16 -4 39t-2.5 46.5t1 45t5.5 36.5q13 1 26 0.5t25 -5.5z" />
<glyph unicode="#" horiz-adv-x="548" d="M431 528l-4 9v10q0 7 -10.5 8t-25 -1.5t-28 -7t-18.5 -8.5q-9 -28 -14.5 -55t-10.5 -56h-54q5 27 11 58t4 59q-7 4 -19 6t-24.5 1t-24.5 -4.5t-18 -8.5q-9 -28 -14.5 -55.5t-10.5 -56.5h-23q-13 0 -26.5 -2t-26 -6t-18.5 -12q-6 -22 -8.5 -39.5t12.5 -37.5h71 q-3 -18 -6.5 -36.5t-6.5 -36.5q-9 0 -22.5 -0.5t-27 -2t-25.5 -6t-19 -11.5q-5 -22 -7.5 -39.5t12.5 -37.5h73q-2 -8 -5.5 -26t-5 -37t0.5 -36t12 -23q23 -2 40 -0.5t37 18.5q2 27 7 52.5t10 51.5h27t27 1q-2 -9 -5 -27t-5 -37t0 -35.5t11 -23.5q24 -2 41 -0.5t37 18.5 q2 27 7 53t10 53q20 1 40 1q21 0 41 3q12 1 17 13.5t6 27t-1 28t-5 17.5q-20 3 -40 3.5t-40 1.5l14 75q20 1 40 1t40 3q11 1 16.5 13t7 27t-0.5 28t-5 18q-21 3 -41 3.5t-41 1.5q1 9 3.5 22t5 27t4.5 28t2 25zM133 57q-2 9 -1 25.5t3.5 35t5.5 35.5t5 26h-86 q-5 11 -2.5 23.5t4.5 23.5q6 4 17.5 6t24.5 3t25 1h18h9q5 29 9.5 56.5t9.5 56.5h-84q-5 11 -2.5 23.5t5.5 23.5q5 4 16.5 6t24.5 3t25 1h18h8q6 30 11 60t15 59q3 2 9.5 3t14 2t14.5 1h11q-2 -31 -8 -62t-11 -62h94q6 29 11.5 59.5t14.5 59.5q7 2 23 4t26 1 q-1 -30 -7.5 -63t-11.5 -62q23 0 46.5 -0.5t46.5 -2.5q0 -5 -0.5 -13t-1.5 -16t-2.5 -14l-1.5 -6q-7 -2 -20 -2.5t-27 -0.5h-28h-20l-22 -115q23 0 45.5 -0.5t45.5 -2.5q0 -4 -0.5 -11.5t-1.5 -15t-2 -14t-1 -7.5h-2q-23 -4 -47 -4h-47q-5 -29 -11.5 -58t-9.5 -58 q-11 -8 -23 -8.5t-25 0.5q-2 9 -1 25.5t3.5 35t5.5 35.5t5 27q-22 -1 -43 -1h-43h-8q-5 -29 -11.5 -57t-9.5 -57q-11 -8 -23 -8.5t-25 0.5zM301 330q-3 -19 -6.5 -37t-6.5 -36h-52q4 18 7 36l6 36h26q13 0 26 1zM323 338l2 13q-21 -2 -42 -2h-42h-8q-5 -28 -10.5 -56 t-10.5 -56h94q4 26 8 51t9 50z" />
<glyph unicode="$" horiz-adv-x="593" d="M355 13q1 46 6 94q74 25 105 73.5t17 126.5q-6 31 -25 49.5t-44 29t-53.5 16.5t-52.5 13.5t-41 18t-20 31.5q9 28 30 43.5t46.5 21.5t53 4.5t50.5 -5.5q19 -4 26 -0.5t8.5 11t1.5 16.5q0 10 5 18q2 16 7 26t0 29q-20 14 -43.5 19.5t-46.5 5.5q1 11 1 20v21l2 2l-6 35 q-22 11 -41 11q-18 0 -41 -3q-10 -23 -12 -50t0 -52q-28 -10 -54.5 -26t-46.5 -38t-32.5 -49.5t-12.5 -60.5q0 -57 20.5 -85.5t52.5 -42.5q12 -5 38 -12t53 -16t47.5 -21t21.5 -27q1 -19 -13 -31t-34.5 -19t-42 -9t-34.5 -2q-14 0 -28.5 8t-28.5 19.5t-26 24t-22 22.5 q-12 -16 -18.5 -31t-10 -30t-5.5 -31t-6 -34q22 -16 39.5 -27t35.5 -17.5t38 -10t47 -3.5q2 -20 3 -39t3 -39q11 -2 22 -5.5t22 -1.5q19 -5 39 2v7zM442 547q-3 0 -6 0.5t-5 0.5q-28 6 -59.5 6.5t-60 -7.5t-51.5 -27t-33 -53q2 -28 19.5 -42.5t42 -23.5t53 -15t54 -15 t44 -24.5t23.5 -43.5q14 -76 -17.5 -117.5t-102.5 -63.5q-3 -26 -4.5 -50.5t-3.5 -50.5q-9 0 -19 5q-9 -3 -13 -2t-13 3q-2 20 -2.5 41t-2.5 41h-9q-25 0 -43.5 2t-35 7t-33 14t-36.5 23q5 21 8 44.5t13 42.5q10 -10 21.5 -21t24 -20t27 -15.5t29.5 -6.5q16 -1 40.5 2 t47.5 12t37.5 23t18 30.5t-5 32.5t-31.5 29q-21 11 -43.5 18t-44.5 13t-41.5 13.5t-34.5 21t-23.5 35t-8.5 55.5q0 33 13 58.5t34 45.5t47 33.5t53 22.5q-2 21 -2 49t7 49q14 2 26.5 1.5t23.5 -5.5l2 -15v-4q0 -34 -3 -65q23 1 48 -1.5t46 -15.5q1 -8 -3 -18t-6 -18 q-3 -7 -3.5 -16.5t-2.5 -17.5z" />
<glyph unicode="%" horiz-adv-x="705" d="M595 702q-8 13 -20.5 19.5t-26.5 9t-28.5 1t-26.5 -4.5q-14 -12 -36 -46.5t-49 -83.5t-57 -108t-59.5 -120.5t-57 -121t-50 -109t-38 -85t-20.5 -48.5q25 -19 49.5 -22t53.5 -6q23 48 47 95.5t47 95.5q33 67 64.5 134.5t64.5 134t69 132t77 128.5zM574 697 q-40 -62 -75 -126.5t-67 -130.5t-63 -132t-64 -132q-22 -45 -44 -88.5t-44 -88.5q-16 2 -34 3.5t-33 9.5q13 31 40 91t61 132.5t71.5 150t72.5 144.5t63.5 115.5t44.5 63.5q19 5 39.5 3t31.5 -15zM705 192q2 39 -6 77.5t-27 69t-49.5 48t-73.5 14.5q-35 -2 -65.5 -27.5 t-52 -64t-32 -85.5t-5 -91.5t30 -82.5t72.5 -59q17 -8 34 -9q41 -3 72.5 15t53.5 48t34 69t14 78zM685 193q-2 -38 -13.5 -73.5t-31 -62.5t-46.5 -42t-61 -13q-16 2 -28 7q-43 19 -64.5 53.5t-26 75t5 83t29 77.5t46.5 58t56 25q35 2 61 -12.5t43 -41t24.5 -61.5t5.5 -73z M490 216q12 52 33 74t41.5 19.5t36 -27t15.5 -65.5q0 -53 -20.5 -87.5t-45 -43t-45 13.5t-20.5 82q0 14 5 34zM470 220q-2 -9 -3.5 -18.5t-1.5 -19.5q0 -47 12.5 -74t31.5 -37.5t41.5 -4.5t41.5 25t31.5 51.5t12.5 74.5q0 47 -20.5 77t-48 35t-55.5 -20t-42 -89zM311 514 q2 39 -6 78t-26.5 69.5t-49 48.5t-73.5 15q-36 -2 -66.5 -27.5t-52 -64t-32 -85t-4.5 -91.5t30.5 -83t71.5 -59q17 -9 34 -10q41 -3 72.5 14.5t53.5 47.5t34 69t14 78zM291 515q-1 -20 -7 -45t-16 -49.5t-25 -46t-34.5 -35t-44 -16.5t-53.5 10q-43 19 -64.5 53.5t-26 75.5 t4.5 83t28.5 77t47 58t57.5 25q35 2 61 -13t42.5 -41.5t24 -61.5t5.5 -74zM97 540q11 51 32 73t41.5 20t36 -26.5t15.5 -65.5q0 -34 -9.5 -61.5t-24 -45t-31.5 -24t-31.5 1t-24 30.5t-9.5 64q0 14 5 34zM77 544q-2 -9 -3.5 -18.5t-1.5 -19.5q0 -48 12.5 -75t31.5 -37.5 t41 -4t41 26t31.5 51.5t12.5 74q0 46 -20.5 76.5t-48 35.5t-55 -20t-41.5 -89z" />
<glyph unicode="&#x26;" horiz-adv-x="700" d="M284 598q4 2 6 4q39 11 59.5 1.5t20.5 -29.5q0 -19 -23 -44.5t-71 -45.5q-12 10 -18 25t-6 30q0 16 6 30.5t19 23.5zM273 614l-8 -5q-19 -13 -27 -33t-6 -41t12.5 -41t28.5 -32q43 17 69.5 38t38 42t9.5 39.5t-15.5 30t-37.5 15t-57 -6.5q-2 -2 -3.5 -3t-3.5 -3zM202 -3 q37 -8 75 -4t75 16t70.5 30.5t61.5 41.5q26 -26 51.5 -49t55.5 -43l5 2q10 4 23.5 7.5t26 9t22.5 13.5t15 20q-44 36 -89.5 82t-89 96t-84 100.5t-75.5 95.5q24 16 48 29t43.5 28.5t33.5 37t19 54.5q1 9 -0.5 21t-5.5 23.5t-9.5 22t-12.5 16.5q-29 26 -67 40t-78 13.5 t-77 -16t-63 -46.5q-15 -18 -19.5 -41.5t-5.5 -44.5q-1 -24 3 -39t11 -26t15 -22t16 -28q-32 -29 -57.5 -56.5t-44 -58.5t-28.5 -68t-10 -83q0 -52 27 -92q7 -11 21.5 -27.5t29.5 -23.5q13 -12 32.5 -19.5t35.5 -11.5zM206 17q-15 3 -32.5 10.5t-29.5 18.5q-13 4 -25.5 18.5 t-19.5 24.5q-23 38 -23 82q0 46 10.5 81.5t29.5 65.5t45.5 57t58.5 56q-7 17 -15.5 30.5t-18.5 27.5q-8 13 -12 31.5t-3 38t6 37.5t15 30q22 27 55 40.5t69 14t70.5 -11.5t60.5 -36q5 -5 9.5 -13t7.5 -17.5t4.5 -19t0.5 -15.5q-8 -53 -48 -82q-25 -18 -52 -33.5t-52 -33.5 q34 -44 75 -95.5t85 -103.5t90 -99.5t90 -83.5q-14 -10 -31 -15t-33 -11q-29 22 -55.5 46.5t-51.5 50.5q-28 -23 -61 -43t-69 -33.5t-74 -18t-76 3.5zM412 162l2 -4q-21 -22 -54 -39.5t-67.5 -24t-65 1t-46.5 36.5q-14 23 -10.5 52.5t16 60t32 58.5t38.5 48q38 -49 77 -95 t78 -94zM435 164l1 1q-45 54 -89.5 107t-87.5 109q-19 -18 -43 -49t-42 -67t-23.5 -73.5t12.5 -69.5q16 -29 40 -40.5t51.5 -12t56 9t53.5 23t45.5 29t31.5 28.5z" />
<glyph unicode="'" horiz-adv-x="196" d="M171 722l-4 36q-22 12 -41 12q-18 0 -42 -2q-8 -19 -10.5 -45.5t-2 -54.5t3 -55t4.5 -46q11 -2 21.5 -5.5t21.5 -1.5q19 -5 40 2q1 40 4.5 79.5t3.5 79.5zM151 725l3 8l-4 -4v-4q0 -37 -3 -73.5t-5 -74.5q-8 0 -18 5q-10 -3 -14 -2.5t-13 3.5q-2 17 -3.5 40t-2 46.5t1 45 t5.5 35.5q13 1 26 0.5t25 -5.5z" />
<glyph unicode="(" horiz-adv-x="317" d="M34 368q1 -39 7.5 -77t12.5 -76q4 -29 20.5 -71.5t40.5 -85t54 -78t62 -49.5q13 0 27.5 4.5t26 13.5t16.5 22.5t-2 31.5q-40 43 -71 98t-49.5 116t-24.5 125t3 126t34 120t68 106q13 14 27 27.5t26 27.5q15 19 9 34t-21 24.5t-32.5 13t-24.5 0.5q-14 -7 -37 -31 t-46.5 -52.5t-43 -56t-26.5 -41.5q-32 -62 -44 -132.5t-13 -138.5zM235 -49q-28 13 -55 47t-49.5 74.5t-37.5 80.5t-19 66q-6 38 -13 76t-7 77v4q0 64 12.5 131t41.5 123q7 14 26 40.5t41 54t43 50t33 28.5q5 3 14 0t18 -8.5t15 -12.5t5 -11q-2 -5 -10 -14t-17.5 -18.5 l-18 -18l-12.5 -12.5q-66 -74 -92.5 -169t-19 -193.5t46 -191t101.5 -161.5q5 -17 -10 -29t-36 -13z" />
<glyph unicode=")" horiz-adv-x="317" d="M322 388q-1 38 -7 76l-12 76q-5 29 -21 71.5t-40 85.5t-54 78t-62 49q-12 0 -27 -4.5t-26.5 -13.5t-16.5 -22.5t2 -31.5q30 -32 56.5 -75t46.5 -90.5t32 -97t12 -92.5q0 -93 -22 -180t-85 -156q-13 -14 -27 -27t-26 -27q-16 -20 -9.5 -35t22.5 -24.5t33.5 -13t23.5 -0.5 q14 7 37 31t46 52.5t42 56t27 41.5q32 60 44 131t12 137v4zM122 804q28 -14 55 -47.5t49.5 -73.5t37.5 -80t19 -67q6 -38 12.5 -76t6.5 -76v-4q0 -64 -12 -131t-41 -124q-8 -14 -26.5 -40.5t-40.5 -54t-43.5 -50t-33.5 -28.5q-5 -3 -14 0.5t-17.5 9.5t-14.5 12.5t-5 9.5 q3 6 10.5 14.5t17 17.5t18 17.5t12.5 13.5q34 37 55.5 78.5t34.5 86t18 91.5t5 94q0 45 -12 95t-32 99.5t-47.5 93.5t-57.5 77q-5 17 10 29t36 13z" />
<glyph unicode="*" horiz-adv-x="334" d="M127 649q-8 5 -15 9.5t-15 9.5l-19 10l-11 4q-17 -12 -24 -23t-14 -31q12 -15 27 -25.5t31 -21.5q-14 -9 -28 -19t-28 -21q4 -10 5.5 -19.5t9.5 -17.5q2 -8 4 -11.5t8 -9.5q18 9 35.5 18.5t35.5 19.5q1 -21 1.5 -41.5t3.5 -40.5q11 -4 19 -7t20 0q8 -4 12.5 -3.5 t12.5 2.5l3 83q18 -10 36 -19.5t36 -17.5l14.5 14.5t10.5 17.5q6 5 8.5 10t4.5 13q-20 11 -38.5 23t-37.5 24q12 7 23.5 13t22.5 13h3l22 19v5q0 18 -8 30.5t-18 26.5q-20 -5 -38.5 -13.5t-35.5 -19.5q1 20 0.5 36t-3.5 36q-10 5 -17.5 7t-14.5 2.5t-15 -0.5t-19 -2 q-6 -20 -7.5 -40.5t-2.5 -42.5zM78 656q17 -10 34.5 -21t34.5 -22v50q0 26 6 51q9 1 16 1q8 0 16 -4q2 -23 1 -46l-2 -46q21 11 43 23.5t45 20.5l3 -4q10 -13 11 -26l-10 -8h-1q-19 -12 -38.5 -22.5t-39.5 -21.5q22 -14 43.5 -28.5t44.5 -28.5q-4 -6 -7 -11.5t-8 -10.5 q-23 11 -44.5 22.5t-42.5 23.5l-4 -97h-1l-3 1q-7 -2 -11 -2q-3 0 -9 2l-3 1q-2 25 -2.5 50t-2.5 50q-20 -11 -40.5 -22t-41.5 -22v2l-1 3q-6 7 -7 9.5t-3 10.5q17 13 35 24.5t36 22.5q-19 12 -38.5 24t-34.5 27q6 17 18 28z" />
<glyph unicode="+" horiz-adv-x="548" d="M485 342q-42 5 -84 5h-84q1 13 1.5 36t1.5 48q0 20 1 43t-2 43q-2 11 -16 13.5t-30.5 0.5t-31.5 -6.5t-18 -7.5q-8 -43 -9.5 -85t-3.5 -85h-38t-50 -1q-8 0 -21.5 -0.5t-27.5 -3t-26.5 -6.5t-17.5 -12q-2 -23 -0.5 -44.5t18.5 -40.5h159q-1 -15 -1.5 -39t-1.5 -49v-22 q0 -13 1 -27t4.5 -26.5t11.5 -18.5q23 -1 46 0t41 19q2 41 3.5 81.5t3.5 82.5h36q24 0 50 1q21 1 44 0.5t44 3.5q10 2 13 16t1 30.5t-6 31.5t-7 18zM299 511l1 -2q3 -43 1 -91t-4 -91h10q42 0 85.5 0.5t85.5 -4.5q1 -5 2 -13.5t1.5 -17.5t0.5 -17v-10l-3 -1 q-42 -5 -87.5 -4.5t-87.5 0.5h-10q-2 -44 -3 -87.5t-4 -87.5q-11 -8 -28 -8.5t-30 0.5q-2 6 -3.5 16.5t-2 21t-0.5 20.5v16q1 30 2 58t1 40v10h-170q-8 11 -8 27q0 17 1 30q11 5 34.5 7.5t50 3t50.5 0.5h36h10q2 45 3 89.5t8 89.5q4 1 13 2l18 2t16 1h11z" />
<glyph unicode="," horiz-adv-x="244" d="M37 -65q10 16 15.5 28.5t9.5 24.5t7.5 25.5t8.5 33.5q5 15 9 31.5t11 30.5q4 3 13 3.5t18.5 -0.5t19 -3.5t14.5 -5.5q5 -18 -4 -42.5t-24 -49t-31.5 -46.5t-27.5 -35q-10 1 -20 1.5t-19 3.5zM154 4q7 11 13.5 24.5t11 28t5 29.5t-4.5 29q-7 6 -19.5 10.5t-26.5 6t-27 0 t-21 -7.5q-3 -2 -4 -5t-3 -6q-14 -32 -21 -67t-19 -68q-4 -10 -10 -19t-11 -18q-6 -12 2 -18t21.5 -9t27 -3.5t16.5 -0.5q20 22 37.5 45t32.5 49z" />
<glyph unicode="-" horiz-adv-x="392" d="M28 307q2 -14 5.5 -24t13.5 -20q40 1 80 1.5t80 1.5q14 0 31.5 0.5t36 1t35.5 2t31 4.5q12 2 15 16t1.5 30.5t-6 31t-7.5 18.5q-42 6 -83 3.5t-83 -3.5q-11 0 -32.5 0.5t-44.5 -0.5t-43.5 -5.5t-28.5 -15.5q-1 -11 -1.5 -21t0.5 -21zM49 341q7 4 25 6t38.5 2.5t38.5 0.5 h27q39 1 77.5 4t77.5 -2q1 -5 2 -14t2 -18.5t1 -17.5v-9q-20 -3 -40 -3q-60 -4 -120.5 -4.5t-121.5 -2.5q-8 11 -8 28t1 30z" />
<glyph unicode="." horiz-adv-x="244" d="M110 132q-23 -3 -37.5 -19t-19 -36t3 -40.5t29.5 -32.5q24 -13 44 -7.5t33.5 21t18.5 37t0 40.5t-22.5 30t-49.5 7zM112 112q19 3 33.5 -8t19 -27t-3.5 -33.5t-32 -26.5q-19 -7 -34 5.5t-20 31t2.5 36.5t34.5 22z" />
<glyph unicode="/" horiz-adv-x="460" d="M457 702q-8 13 -20.5 19.5t-26.5 9t-28.5 1t-26.5 -4.5q-14 -12 -36 -46.5t-49 -83.5t-57 -108t-59.5 -120.5t-57 -121t-50 -109t-38 -85t-20.5 -48.5q25 -19 49 -22t53 -6q23 48 47 95.5t48 95.5q33 67 64.5 134.5t64.5 134t69 132t77 128.5zM436 697q-40 -62 -75 -126 t-67 -130t-63 -132.5t-64 -132.5q-22 -45 -44.5 -88.5t-44.5 -88.5q-16 2 -34 3.5t-32 9.5q13 31 40 91t61 132.5t71.5 150t72.5 144.5t63.5 115.5t44.5 63.5q19 5 39.5 3t31.5 -15z" />
<glyph unicode="0" horiz-adv-x="524" d="M384 669q-6 4 -16.5 9t-22 8.5t-23 5t-19.5 0.5q-21 5 -44.5 2.5t-47 -10t-44.5 -18t-36 -21.5q-37 -27 -62.5 -66t-41 -83.5t-22.5 -91.5t-6 -89q0 -21 1.5 -46.5t5 -52.5t10 -52.5t16.5 -44.5q18 -33 38.5 -59.5t46 -45t57 -29t72.5 -10.5q52 0 94 23.5t73.5 63.5 t52 93t29.5 111t7 117.5t-15.5 113.5t-39 99t-63.5 73zM372 653q49 -37 76 -100t33.5 -136t-6.5 -148t-43 -136t-77 -99.5t-109 -38.5q-37 0 -66 9t-52 26.5t-42 42t-36 56.5q-9 17 -15 40.5t-9.5 49t-5 50.5t-1.5 46q-1 42 5.5 86.5t21.5 87t39 79t58 61.5q14 10 33.5 20 t41.5 17t43.5 9t40.5 -3q6 1 16 0t20 -4t19.5 -7t14.5 -8zM133 167q-14 28 -20.5 69.5t-5 86.5t11.5 90.5t28.5 81.5t46.5 59.5t65 24.5q38 1 64 -19.5t40.5 -54t19.5 -76.5t3 -86t-11 -82t-22 -66q-19 -37 -42 -59t-64 -28q-38 -5 -67.5 10.5t-46.5 48.5zM115 159 q20 -40 55.5 -58.5t78.5 -12.5q48 7 75 33t47 66q12 24 21.5 64.5t12.5 86.5t-2 93t-21.5 85t-46 61t-76.5 22q-45 -2 -76.5 -27.5t-52 -65t-30.5 -88.5t-11.5 -97.5t5.5 -91.5t21 -70z" />
<glyph unicode="1" horiz-adv-x="295" d="M258 227q-1 66 -1.5 120.5t1 106t6.5 106t16 120.5q-16 4 -32 6.5t-33 -2.5q-37 -11 -70.5 -31t-67.5 -38q-9 -5 -19 -10.5t-19 -13t-15.5 -16.5t-7.5 -20q9 -22 19 -41t33 -29q18 9 35.5 18t34.5 19q-1 -31 -3 -61t-3 -61q-1 -35 0.5 -68.5t-1.5 -68.5h-2 q-1 -32 -2 -64.5t-1 -64.5q0 -33 1.5 -64t6.5 -64q15 -2 32 -6.5t33.5 -6t32 1.5t28.5 15zM149 243q4 40 2.5 78.5t0.5 78.5q1 39 3.5 78t3.5 78q-23 -13 -45.5 -25t-45.5 -24q-11 8 -19 23t-13 27q2 6 8 12t13.5 11.5t15.5 9.5l14 7q18 9 39 22.5t43.5 24.5t45 17.5 t43.5 2.5q-10 -62 -14.5 -114.5t-6 -103.5t-1 -104t1.5 -115l2 -208q-8 -6 -19.5 -6.5t-24 1.5t-24.5 4.5t-20 4.5q-4 28 -5 55.5t-1 55.5q0 55 3 109z" />
<glyph unicode="2" horiz-adv-x="549" d="M335 578v1q21 -2 40.5 -13t19.5 -35q0 -30 -15.5 -63.5t-41 -67.5t-57.5 -68t-65 -64t-64.5 -55.5t-54.5 -43.5q-26 -20 -46.5 -37t-31.5 -36.5t-11.5 -44.5t12.5 -61h7q50 0 99 2t100 1q8 0 16.5 1t17.5 1q53 -2 103.5 -5.5t104.5 0.5q12 11 16 22t4 26q0 11 -1.5 22 t-1.5 22q-2 6 -2.5 11t-1.5 10t-4 9.5t-12 7.5q-53 -9 -105 -6t-105 3q-11 0 -21.5 -0.5t-21.5 -1.5q58 63 124 118q33 28 66.5 63.5t58.5 76t36.5 86.5t-1.5 96q-7 25 -16.5 49t-28.5 44q-29 31 -71.5 43t-88.5 9.5t-89.5 -16.5t-73.5 -35q-9 -6 -17.5 -12.5t-16.5 -13.5 q-11 -9 -23 -19t-22 -21.5t-16.5 -25t-6.5 -29.5q12 -17 22.5 -32.5t28.5 -27.5q52 48 114 79t134 31h10zM462 99q2 -5 1.5 -10.5t1.5 -10.5q0 -9 1.5 -19.5t1.5 -20.5q0 -19 -8 -28q-51 -3 -100.5 0.5t-99.5 4.5q-8 0 -16.5 -1t-17.5 -1q-48 1 -96 -1t-96 -2q-9 28 -6 48.5 t14 36t29 29.5t38 29q25 19 57.5 45.5t66.5 57.5t67 66t58.5 70.5t41 71t15.5 67.5q0 18 -8 31t-21 21.5t-29 12t-32 3.5h-10v-1q-68 -2 -128.5 -31t-110.5 -73q-9 9 -16 19t-14 21q1 12 12 26.5t26 28t30.5 25.5t25.5 19q29 20 69.5 33t82.5 15t81 -9t64 -38 q16 -17 24.5 -38.5t14.5 -44.5q12 -45 1.5 -87.5t-33.5 -80.5t-56 -72t-66 -62q-82 -73 -155 -155q22 0 44 1.5t44 1.5q52 0 103.5 -3t103.5 5z" />
<glyph unicode="3" horiz-adv-x="565" d="M303 711q-29 2 -63 -5t-68 -19t-65.5 -28t-54.5 -31q-2 -9 -0.5 -27.5t6.5 -36.5t15 -30t27 -6q32 11 61.5 26t60.5 26q9 3 26 6.5t37.5 5.5t41.5 2q22 0 39.5 -4.5t29 -13.5t12.5 -25q1 -14 -10 -27.5t-29 -25.5t-40.5 -22t-44 -18t-40.5 -13t-30 -7q-17 -3 -28.5 -1.5 t-33.5 -5.5l5 -10q2 -5 0.5 -18.5t-2.5 -28.5t0 -27.5t9 -14.5h10h21t20.5 0.5t11.5 0.5q43 7 82.5 4.5t74.5 -25.5q26 -18 34.5 -43t2.5 -51.5t-25.5 -51t-49 -40t-67.5 -20t-81 9.5q-29 8 -55 21.5t-52 28.5q-12 7 -23.5 13t-24.5 11q-12 -20 -18 -31.5t-9.5 -21 t-5.5 -22.5t-5 -36q35 -18 74.5 -37t81.5 -32.5t84.5 -19t83.5 3.5q80 17 134 67t68 134q13 79 -14.5 129t-108.5 79q30 16 53 35.5t36.5 43.5t15 52.5t-11.5 62.5q-12 32 -33.5 53t-47.5 34t-56 19t-60 9zM177 417q7 1 13.5 0.5t13.5 -0.5q14 0 36 5t47.5 14t51 21.5 t45.5 27.5t32.5 32.5t11.5 35.5q-1 21 -14 34t-32.5 19.5t-43 7.5t-47 -1t-43.5 -6.5t-32 -8.5q-32 -11 -61.5 -26t-60.5 -26q-6 -2 -10.5 7.5t-7.5 22.5t-4 25t-1 15q22 15 52 29.5t62.5 25.5t65 17t60.5 3t54.5 -9t49 -17.5t40 -30t28.5 -45.5q15 -39 8.5 -68t-27 -51 t-49.5 -39t-59 -32q44 -14 77 -29t53 -37.5t26.5 -54.5t-1.5 -80q-13 -76 -62 -122t-124 -62q-38 -8 -77 -3.5t-77.5 17t-75 29.5t-68.5 34q2 14 3 23t3.5 16t6 15t11.5 20q3 -2 5.5 -3t5.5 -3q32 -18 63.5 -35t66.5 -28q48 -15 91 -9.5t76 24t54.5 47t28 59.5t-4 60.5 t-41.5 50.5q-26 17 -50 23t-49 6.5t-50 -2.5t-52 -3h-19h-1q0 15 1.5 30t0.5 30v5z" />
<glyph unicode="4" horiz-adv-x="553" d="M460 264q2 112 2 222q0 111 4 223q-26 7 -50 9t-50 -7q-35 -51 -70 -102.5t-73 -101.5q-11 -15 -28.5 -38t-38.5 -50t-42.5 -56.5t-40 -56.5t-32.5 -49.5t-19 -36.5q-8 -19 -8.5 -42.5t22.5 -34.5q75 -1 148 -1q74 0 149 3q-2 -38 -2 -75t6 -75q18 -2 35.5 -8t34.5 -5 q13 -2 26.5 0.5t18.5 16.5q2 38 3 75.5t3 75.5l67 3q7 28 12.5 51t1.5 38.5t-22 21.5t-57 0zM440 252v-12q4 1 16 3t25 3t24 0t14 -7q2 -5 1.5 -14t-2.5 -19t-5 -19.5t-4 -13.5l-70 -3q-2 -42 -3.5 -83t-3.5 -83q-3 -3 -11 -3t-12 1q-14 -1 -27.5 4t-26.5 7q-6 38 -4 76 l4 76q-79 -2 -157 -2.5t-158 0.5q-5 3 -6 9.5t-0.5 14t2.5 14.5t4 11q5 13 19 35.5t32.5 49.5t40 56t42 56t38 49.5t27.5 36.5q37 49 71 99t68 101q32 8 68 -2q-4 -111 -4 -221q0 -109 -2 -220zM171 251q39 69 86 132.5t92 129.5q-2 -55 -3.5 -109.5t-4.5 -108.5h-2v-10v-17 q0 -8 -1 -16q-14 -1 -36.5 -2.5t-47 -2t-47 0t-36.5 3.5zM359 275q5 77 7.5 153.5t4.5 153.5q-56 -84 -116.5 -166t-109.5 -170l4 -5q7 -9 37 -11.5t65 -2t66 3t40 3.5q1 10 1.5 20t0.5 21z" />
<glyph unicode="5" horiz-adv-x="525" d="M176 424q1 32 1.5 64t4.5 64q1 5 2 9t1 9q8 2 16 2h17q52 2 105 2.5t106 -1.5q11 0 16.5 6.5t8 15.5t2.5 19v18q0 12 0.5 20.5t-1.5 15.5t-8 13.5t-19 14.5q-41 4 -82.5 3t-82.5 -3t-82.5 -3.5t-82.5 2.5q-11 -3 -18 -17t-11 -33.5t-5 -42t-1 -43.5t0.5 -37.5t0.5 -23.5 q-2 -34 -3 -67t-3 -67q0 -8 2 -20.5t7 -23.5t13 -18.5t20 -5.5q26 4 47 10t41.5 11.5t43 9t50.5 2.5q23 -3 46 -10.5t37 -21.5q18 -19 20.5 -43t-5 -47t-24.5 -43.5t-38 -33.5q-28 -17 -57.5 -19.5t-60.5 -2.5q-30 0 -61 15.5t-51 35.5q-22 3 -29.5 -1t-17.5 -20 q-6 -2 -13 -8t-13 -14t-8.5 -16t0.5 -15t11 -16t17 -18t18 -16.5t14 -11.5q19 -15 48 -25t60.5 -15.5t62 -6t53.5 3.5q32 6 62 21.5t55 33.5q46 34 68.5 82t22 98.5t-22.5 97.5t-63.5 79t-101 43t-135.5 -11zM62 134q6 7 16 6q23 -21 56.5 -36.5t65.5 -15.5q34 0 66 3t62 21 q23 14 42.5 37.5t29 51t6 56.5t-26.5 54q-10 11 -24.5 18t-30.5 11.5t-32 6.5t-30 4v-2q-22 0 -42.5 -4t-40.5 -9.5l-40 -11t-41 -8.5q-6 -1 -9.5 5t-6 14.5t-3.5 16.5t-1 12q2 33 3 66.5t3 66.5q0 9 -0.5 35.5t1 56t5 54.5t11.5 32q40 -3 80 -2t80 3t80.5 3t80.5 -3 q8 -5 10.5 -8.5t3.5 -6.5q1 -4 1 -14t-0.5 -21t-2 -20.5t-2.5 -11.5q-1 -1 -20 -1h-46q-27 0 -59 0.5t-61 0.5q-28 0 -48.5 -2t-24.5 -5q-7 -6 -10.5 -31t-5 -54t-1.5 -55v-31l11 -16q37 22 85 20.5t92.5 -21.5t80 -55.5t48.5 -81.5t-3 -100t-74 -111q-21 -21 -50.5 -33.5 t-58.5 -17.5q-21 -4 -50 -3.5t-58.5 5.5t-56 14t-43.5 23q-6 4 -14 11.5t-16.5 15t-15 15t-8.5 12.5q0 3 3.5 7.5t8 9t9 8t7.5 4.5z" />
<glyph unicode="6" horiz-adv-x="562" d="M31 280l-1 -1v-4q0 -103 36 -170t90.5 -100t119 -33.5t121 31t96.5 94t45 153.5q3 46 -8 86.5t-34 71.5t-59.5 50.5t-84.5 24.5q-29 3 -59.5 -0.5t-57.5 -17.5q-10 -5 -24.5 -13t-25.5 -16q3 43 27 76.5t57 62.5q19 17 44 26.5t52 14.5t54 6.5t50 1.5q11 9 15 23.5 t2 29.5t-11 27t-24 17q-21 6 -52 3.5t-64 -9.5t-63 -17t-48 -20q-53 -30 -89.5 -75t-59 -98t-33 -111t-11.5 -114zM51 272q0 54 9.5 110.5t30.5 108.5t56 96t87 73q18 10 46 19.5t59 16t59.5 8.5t46.5 -3q8 -2 13.5 -9.5t7.5 -16t0.5 -17.5t-5.5 -14q-24 0 -51.5 -2 t-55 -7.5t-53 -15.5t-46.5 -28q-39 -35 -65.5 -76t-25.5 -96q-2 -17 8 -17t17 9l2 3q1 1 1 2q33 28 74 40t85 7q43 -4 75.5 -21.5t53.5 -45.5t30.5 -64.5t7.5 -79.5q-4 -66 -26 -115.5t-55.5 -82t-75 -48.5t-84.5 -14.5t-83.5 19t-72.5 52.5t-51.5 87t-19.5 121zM284 381 q26 4 50.5 -0.5t43.5 -16.5t30.5 -31t11.5 -44q0 -23 -6 -49t-17.5 -50t-27.5 -44t-36 -31q-11 -7 -24 -10t-27 -6q-55 -11 -85.5 17.5t-35.5 83.5q-4 43 5.5 75t27 54t41.5 35t49 17zM281 400q-29 -5 -56 -19t-47 -39t-30.5 -61t-6.5 -83q3 -31 13.5 -55.5t28.5 -41 t44 -22.5t59 0q14 3 28.5 6.5t28.5 11.5q23 13 41 35.5t30.5 49t19 54.5t6.5 53q0 31 -14.5 54t-37 37.5t-51 19t-56.5 0.5z" />
<glyph unicode="7" horiz-adv-x="524" d="M362 575l1 -1q-17 -31 -40 -76.5t-48 -98t-49 -108.5t-43 -108.5t-31 -98t-12 -76.5q0 -14 14 -20t32 -6.5t35 3t23 8.5q11 22 19 49q22 73 47 145.5t57 141.5q30 63 60.5 124.5t67.5 121.5q6 10 13.5 25.5t10.5 31.5t-1 30t-20 21q-209 1 -420 -6q-8 3 -12.5 -2.5 t-7 -14.5t-3.5 -18t-1 -12q-5 -32 1 -46.5t19 -18.5t32.5 -1t42.5 6q16 2 45 4t61 3.5t61 1t46 -3.5zM79 657q105 4 207 5.5t208 0.5q7 -5 7 -16q0 -10 -4 -22t-9.5 -23.5t-8.5 -16.5q-38 -60 -69 -122t-61 -126q-28 -59 -49.5 -120t-41.5 -123q-8 -22 -13.5 -44.5 t-16.5 -42.5q-4 -2 -13.5 -3.5t-20.5 -1.5t-20.5 1t-13.5 5q0 32 13 80t34 103t46.5 113.5t51 111t48 96t36.5 68.5l-4 5q-5 6 -23 9.5t-43 4t-53 -0.5t-52.5 -2.5t-43 -3.5t-23.5 -2q-16 -2 -32.5 -5t-32.5 -1q-7 1 -9 11t-1 22.5t3 24t4 15.5z" />
<glyph unicode="8" horiz-adv-x="583" d="M297 -40q42 0 86.5 13.5t82 40t63 63.5t29.5 84l1 1q0 6 1 12.5t1 12.5q0 65 -32.5 108.5t-86.5 72.5q-5 2 -10 4.5t-10 5.5q24 20 44.5 39t32.5 41.5t13.5 49.5t-11.5 63q-13 35 -31.5 59.5t-42.5 40t-54 24t-66 11.5q-18 2 -35.5 -1t-34.5 -7q-68 -14 -108 -51 t-52.5 -83.5t2 -97.5t55.5 -94q-8 -5 -15 -10.5t-13 -11.5q-54 -49 -74.5 -106t2.5 -130q14 -43 41 -72t62.5 -47t76.5 -26.5t83 -9.5v1zM539 170l-1 -1q-3 -49 -29 -85.5t-64 -60t-83 -34.5t-85 -8q-36 2 -71 10t-65 24.5t-52.5 42t-34.5 62.5q-22 66 -3.5 118t69.5 98 q14 12 23.5 18t26.5 13q-10 8 -19 16.5t-17 19.5q-32 42 -40 86t6 82t49.5 66.5t91.5 40.5q16 4 31.5 7t32.5 1q34 -3 62 -10.5t49.5 -21.5t38 -36t28.5 -53q5 -13 7.5 -22.5t2.5 -18.5t-1 -19t-4 -23q-2 -11 -14 -25.5t-27 -29.5t-30 -28t-24 -20q6 -10 9.5 -12.5 t13.5 -7.5q27 -14 50 -30t39.5 -36.5t26 -46.5t9.5 -59q0 -5 -0.5 -8.5t-1.5 -8.5zM312 603l1 1q17 -1 33.5 -6.5t29 -15.5t19.5 -23.5t6 -30.5t-12.5 -32.5t-28.5 -28t-36.5 -20.5t-36.5 -10t-30.5 -3t-25.5 2t-23 11t-21 23q-16 22 -15 41t11.5 33.5t28 26t37 19t36.5 11 t27 2.5zM304 623q-27 1 -60.5 -11.5t-58 -35t-32 -53t16.5 -65.5q12 -18 25 -27.5t27.5 -13t30.5 -3t36 2.5q18 2 40.5 11t42.5 23.5t34 33.5t15 41q1 25 -9.5 43.5t-27.5 30.5t-38.5 17.5t-40.5 6.5zM290 305q24 -1 50.5 -9t49.5 -22t38 -34t15 -45q0 -40 -22.5 -67 t-56 -41.5t-72.5 -16.5t-71 9.5t-52 36.5t-16 64q3 25 15 48t30.5 40t42 27.5t49.5 9.5zM290 325q-35 2 -59.5 -11t-48.5 -34q-43 -40 -49 -98q-5 -46 17.5 -76t59.5 -44t81 -12.5t82 18.5t64 49t26 78q0 32 -18 56t-44 40t-56.5 24.5t-54.5 9.5z" />
<glyph unicode="9" horiz-adv-x="562" d="M31 444q-3 -56 13 -98t44 -71t65.5 -44t77.5 -16.5t79.5 11t72.5 38.5q0 -20 -8 -41t-20 -40.5t-26.5 -36.5t-29.5 -29q-19 -17 -44 -26t-52 -13.5t-54 -6t-49 -1.5q-11 -9 -15 -23.5t-2 -28.5t10.5 -26t23.5 -17q18 -6 49.5 -4t65.5 9.5t64.5 17t46.5 18.5 q53 29 89.5 74t59 99t33 112.5t11.5 113.5l1 1v4q0 101 -36 166.5t-91 98t-119 32.5t-120.5 -31t-95.5 -92t-44 -150zM517 424l-1 -1q0 -52 -9.5 -109t-30.5 -109.5t-56 -97.5t-87 -73q-15 -9 -44 -18t-61 -16t-61 -9.5t-44 2.5q-8 3 -13 10t-7 15.5t-1 17t6 14.5 q24 0 51.5 2t55 7t53 15t45.5 27q32 28 58.5 69t31.5 86q1 7 0.5 14.5t-0.5 15.5v24l-17 -17q-30 -29 -67 -43.5t-75 -15.5t-74 12t-63.5 39t-43 65.5t-12.5 91.5q4 86 40.5 143t88 85t110.5 27t109 -32t83.5 -91t34.5 -150zM296 330q-25 -6 -49.5 -3.5t-45 12.5t-35 28 t-17.5 44q-3 22 -0.5 47.5t11 50t21.5 45t31 32.5q11 7 23.5 11t26.5 7q54 14 88 -12t45 -80q9 -41 4 -72t-19.5 -53.5t-36.5 -36.5t-47 -20zM301 310q28 7 53 23t42 42t23 61t-4 80q-7 30 -20.5 53.5t-33.5 38.5t-46.5 19.5t-58.5 -3.5q-13 -4 -27 -8.5t-27 -13.5 q-22 -14 -37.5 -37t-24.5 -50t-11.5 -55t0.5 -51q4 -32 21.5 -54t41.5 -34t53 -14.5t56 3.5z" />
<glyph unicode=":" horiz-adv-x="244" d="M110 132q-23 -3 -37.5 -19t-19 -36t3 -40.5t29.5 -32.5q24 -13 44 -7.5t33.5 21t18.5 37t0 40.5t-22.5 30t-49.5 7zM112 112q19 3 33.5 -8t19 -27t-3.5 -33.5t-32 -26.5q-19 -7 -34 5.5t-20 31t2.5 36.5t34.5 22zM115 416q-23 -3 -38 -19t-19 -36.5t4 -41t29 -32.5 q24 -13 44 -7.5t33.5 21.5t18.5 37.5t0 40.5t-22.5 30.5t-49.5 6.5zM117 396q19 3 33.5 -8t19 -27.5t-3 -33.5t-32.5 -27q-19 -8 -34 5t-20 31.5t2.5 37t34.5 22.5z" />
<glyph unicode=";" horiz-adv-x="244" d="M37 -65q10 16 15.5 28.5t9.5 24.5t7.5 25.5t8.5 33.5q5 15 9 31.5t11 30.5q4 3 13 3.5t18.5 -0.5t19 -3.5t14.5 -5.5q5 -18 -4 -42.5t-24 -49t-31.5 -46.5t-27.5 -35q-10 1 -20 1.5t-19 3.5zM154 4q7 11 13.5 24.5t11 28t5 29.5t-4.5 29q-7 6 -19.5 10.5t-26.5 6t-27 0 t-21 -7.5q-3 -2 -4 -5t-3 -6q-14 -32 -21 -67t-19 -68q-4 -10 -10 -19t-11 -18q-6 -12 2 -18t21.5 -9t27 -3.5t16.5 -0.5q20 22 37.5 45t32.5 49zM125 416q-23 -3 -38 -19t-19 -36.5t4 -41t29 -32.5q24 -13 44 -7.5t33.5 21.5t18.5 37.5t0 40.5t-22.5 30.5t-49.5 6.5z M127 396q19 3 33.5 -8t19 -27.5t-3 -33.5t-32.5 -27q-19 -8 -34 5t-20 31.5t2.5 37t34.5 22.5z" />
<glyph unicode="&#x3c;" horiz-adv-x="548" d="M345 80q40 -18 79 -35.5t78 -37.5q4 9 6 15.5t4 15.5q1 10 3 18.5t5 16.5t6.5 17.5t7.5 22.5q-18 9 -35.5 19t-35.5 19q-72 36 -144 67t-144 66q47 21 92.5 45t92.5 46l28 12l28 12q27 12 52 26.5t51 28.5q2 23 2 46t3 46q-11 4 -20 5t-20 -4q-36 -15 -71 -33t-70 -35 q-76 -35 -151 -70.5t-150 -72.5q-5 -26 -4 -52t1 -52q21 -11 42.5 -20t42.5 -20q56 -28 110 -57t111 -55zM353 98q-57 26 -111 55t-110 57q-18 9 -36.5 17t-36.5 17q-1 20 -1.5 39t2.5 39q72 36 145 70t146 69q7 3 29 14.5t47.5 24t47 22t27.5 9.5q-2 -16 -1.5 -32t-1.5 -33 q-9 -5 -18.5 -10.5t-18.5 -10.5q-26 -16 -54 -27.5t-56 -24.5q-57 -26 -112 -54.5t-113 -53.5q81 -41 163.5 -75.5t162.5 -76.5l57 -30q-4 -12 -7 -20.5t-5 -15.5t-3.5 -14.5l-3.5 -17.5q-34 17 -68.5 32t-69.5 31z" />
<glyph unicode="=" horiz-adv-x="548" d="M28 362q2 -13 5.5 -23t13.5 -20h59q36 0 77.5 -0.5t86 -1t85.5 0t75.5 2.5t57.5 5q11 2 13.5 16t1 30.5t-5.5 31t-7 18.5q-33 4 -73.5 6t-82.5 2t-82.5 -1t-73.5 -2q-11 0 -32.5 0.5t-45 -1t-43.5 -6t-28 -14.5q-1 -11 -1.5 -21.5t0.5 -21.5zM482 345l-3 -1 q-41 -5 -96.5 -6t-114 -0.5t-114.5 1.5t-98 0q-8 11 -8.5 27.5t1.5 29.5q8 4 25.5 6t37.5 3t38 1h28q31 1 70 2t80 1t80 -1.5t69 -4.5q1 -5 2.5 -13.5t2 -17t0.5 -16.5v-11zM28 202q2 -13 5.5 -23t13.5 -20h59q36 0 77.5 -0.5t86 -1t85.5 0t75.5 2t57.5 5.5q11 2 13.5 16 t1 30.5t-5.5 31t-7 18.5q-33 4 -73.5 6t-82.5 2t-82.5 -1t-73.5 -2q-11 0 -32.5 0.5t-45 -1t-43.5 -6t-28 -14.5q-1 -11 -1.5 -21.5t0.5 -21.5zM482 185l-3 -1q-41 -5 -96.5 -6t-114 -0.5t-114.5 1.5t-98 0q-8 11 -8.5 27.5t1.5 29.5q8 4 25.5 6t37.5 3t38 1h28q31 1 70 2 t80 1t80 -1.5t69 -4.5q1 -5 2.5 -13.5t2 -17t0.5 -16.5v-11z" />
<glyph unicode="&#x3e;" horiz-adv-x="548" d="M218 98q-35 -16 -69.5 -31t-68.5 -32l-3.5 17.5t-3.5 14.5t-5 15.5t-7 20.5l57 30q80 42 162.5 76.5t163.5 75.5q-58 25 -113 53.5t-112 54.5q-14 7 -28.5 12.5t-28.5 12.5q-24 10 -45.5 23t-44.5 25q-2 17 -1.5 33t-1.5 32q6 0 27.5 -9.5t47 -22t47.5 -24t29 -14.5 q73 -35 146 -69t145 -70q3 -20 2.5 -39t-1.5 -39q-18 -9 -36.5 -17t-36.5 -17q-56 -28 -110 -57t-111 -55zM226 80q57 26 111 55t110 57q21 11 42.5 20t42.5 20q0 26 1 52t-4 52q-75 37 -150 72.5t-151 70.5q-35 17 -70 35t-71 33q-11 5 -20 4t-20 -5q3 -23 3 -46t2 -46 q22 -11 46 -27q26 -16 55 -27.5t58 -24.5q48 -22 93 -46t92 -45q-72 -35 -144 -66t-144 -67q-18 -9 -35.5 -19t-35.5 -19l20 -59q4 -13 4 -22t8 -25q39 20 78 37.5t79 35.5z" />
<glyph unicode="?" horiz-adv-x="483" d="M128 220q5 -11 20 -20.5t32.5 -13.5t34 -0.5t24.5 17.5q0 6 -0.5 20.5t-0.5 30.5q0 17 1 31.5t3 21.5q4 13 18.5 26.5t32.5 26t36 23.5t29 19q38 26 64 57t36 65t2.5 70.5t-36.5 75.5q-22 29 -56.5 42t-67.5 16q-40 3 -82 -2.5t-80 -21.5t-70 -43t-53 -65q4 -8 9.5 -22.5 t13.5 -28t18.5 -22.5t22.5 -7q5 5 9 10.5t9 11.5q19 29 48.5 47t61 26.5t61.5 8.5q31 0 53 -8t32.5 -23t1.5 -36q-9 -23 -35 -43t-57 -40t-61.5 -40.5t-48.5 -43.5q-11 -13 -19 -34.5t-11.5 -45.5t-3 -47t8.5 -39zM71 536q-10 8 -19.5 28t-14.5 32q19 32 48.5 54.5 t64.5 36.5t73.5 19t74.5 2q32 -2 62 -14t48 -36q15 -20 24.5 -41t10.5 -45q1 -38 -13 -66t-36.5 -50t-50 -39.5t-52.5 -34t-44 -33t-25 -36.5q-2 -7 -3 -20.5t-1 -29.5q0 -15 0.5 -30t0.5 -24q-5 -4 -15.5 -4.5t-22 2t-21.5 8t-14 13.5q-6 13 -6.5 33.5t3 41.5t10.5 40.5 t16 30.5q12 15 30 29t38 27.5t40 26t37 23.5q19 13 36 31t24.5 38t1 40t-35.5 37q-26 15 -61 16t-69.5 -8.5t-65.5 -26.5t-50 -38q-6 -8 -11 -16.5t-12 -16.5zM178 133q-24 -3 -38.5 -19t-18.5 -36t3.5 -40.5t29.5 -32.5q26 -15 46 -9.5t33 21t17.5 37t-1.5 41t-23.5 31 t-47.5 7.5zM180 113q22 3 34 -5.5t16 -22t1 -28.5t-12 -26t-23 -14.5t-32 6.5q-15 9 -20.5 23t-3 28.5t13 25.5t26.5 13z" />
<glyph unicode="@" horiz-adv-x="741" d="M425 148q14 -29 40 -33.5t54.5 4.5t55 25.5t42.5 28.5q51 38 74.5 90.5t28.5 113.5q6 71 -19 124.5t-70 89t-104.5 53.5t-120.5 19q-93 2 -164 -29t-121 -82.5t-77.5 -117.5t-33 -134.5t11 -134t56 -114.5t101.5 -77t147 -22q16 1 37.5 2.5t44 4.5t43 7t35.5 10 q21 9 46.5 20.5t50.5 26t46.5 32.5t33.5 39q-5 17 -15 25t-27 12q-12 -13 -31 -25.5t-41 -24t-43 -20.5t-37 -15q-11 -4 -32 -8t-43.5 -8t-43.5 -6t-33 -2q-60 1 -103.5 24t-70.5 61t-38 89t-6 108q5 61 29 115t63 93.5t92 61.5t118 21q75 -2 125.5 -28t78 -65.5t33.5 -86.5 t-6.5 -90t-43 -77t-75.5 -47v7q1 30 7.5 64.5t9.5 69t0 68t-21 60.5q-31 49 -74.5 59t-86.5 -4t-79.5 -44.5t-53.5 -62.5q9 -11 19 -19.5t21 -16.5q28 29 57 49.5t73 18.5q22 -1 33 -9.5t14.5 -21t2 -28t-2.5 -30.5q-21 -2 -43 -1.5t-43 -2.5q-56 -7 -92 -27.5t-53.5 -47 t-17.5 -54.5t16 -51.5t47.5 -37.5t75.5 -12q27 2 52 8.5t51 12.5zM433 170q-15 -3 -29.5 -6.5t-29.5 -7.5q-51 -13 -88 -6.5t-57.5 24.5t-25 43t10 49.5t47.5 44t87 26.5q26 4 52 3.5t52 2.5q0 11 0.5 21t1.5 20q2 36 -12 60t-56 26t-73.5 -15.5t-59.5 -46.5q-4 3 -7.5 6 t-6.5 7q20 33 53.5 56t70.5 31t72 -2.5t58 -45.5q15 -25 17.5 -57t-1 -66t-9.5 -67t-7 -60q-1 -11 2.5 -19t14.5 -10q68 31 104 75.5t44 93.5t-8 97t-51 86t-86 61t-112 21q-72 -2 -129 -26t-98 -65t-65 -97t-30 -121q-5 -60 6.5 -114t40.5 -96t76.5 -67.5t114.5 -26.5 q13 0 35 2t45.5 6t44.5 8.5t33 9.5q15 5 36 14t42.5 19.5t41.5 23t33 24.5q9 -4 13 -13q-11 -17 -30.5 -32t-42.5 -28t-47 -23.5t-43 -18.5q-14 -6 -34 -9.5t-41.5 -6t-42.5 -4t-36 -2.5q-79 -6 -137 20.5t-94.5 73t-52 108t-10 126t32 127t73.5 111t114.5 78t155.5 27.5 q60 -1 115.5 -18t97 -50t64.5 -82t17 -114q-5 -58 -27 -106.5t-68 -83.5q-13 -10 -36.5 -25.5t-48.5 -24.5t-47.5 -5.5t-32.5 30.5zM343 285q29 8 54 9.5t35 -1.5q-2 -16 -3 -32t-6 -31q-2 -7 -23.5 -11.5t-47 -5t-47.5 3t-25 13.5q-4 11 3 20.5t18 16t23 11.5t19 7z M338 304q-12 -3 -28 -9.5t-28.5 -16.5t-19.5 -23.5t-2 -30.5q6 -18 33.5 -25t59.5 -6t59 9.5t31 21.5q5 19 6 38.5t3 39.5q-9 9 -24.5 11.5t-32.5 1t-32.5 -4.5t-24.5 -6z" />
<glyph unicode="A" horiz-adv-x="595" d="M426 567l-12 48t-18 43t-31.5 31t-51.5 12l-15 -3q-10 -10 -23 -14q-10 -11 -20 -20.5t-19 -20.5q-12 -15 -33 -59.5t-45.5 -104.5t-50.5 -127t-48 -127.5t-37.5 -106t-18.5 -61.5q2 -9 -2 -18t-4 -19q0 -12 7 -16t13 -12q19 -5 38 -4.5t38 0.5h5q31 45 48 96.5t34 102.5 q32 -2 63.5 -2.5t63.5 2.5q24 2 49 0.5t50 -1.5q19 -39 30.5 -81t34.5 -80q11 -20 21 -26t32 -9q21 13 38.5 21t37.5 25q-56 129 -98.5 261.5t-75.5 269.5zM315 681q27 0 42.5 -11t25 -28.5t14.5 -38.5t10 -41q32 -134 73.5 -264t95.5 -256q-13 -11 -27.5 -17t-28.5 -15 l-11 2q-7 1 -15.5 13.5t-17 31.5t-17 41.5t-16 44t-14 38.5t-11.5 25q-28 -1 -56.5 1t-56.5 0q-35 -3 -69.5 -2t-69.5 4q-17 -50 -33.5 -103t-44.5 -98q-15 0 -30 -0.5t-29 2.5q-2 2 -5 4l-6 4l-1 1v1q0 10 3.5 18t2.5 19q5 21 21 69t38.5 107.5t48.5 125t49.5 122t43 97.5 t28.5 53q8 10 17 18t17 17q13 5 22 14zM373 297q-14 -2 -33.5 -1.5t-40 1.5t-40 3t-34.5 5q20 58 40.5 114.5t44.5 112.5q16 -60 32.5 -117.5t30.5 -117.5zM394 297q-12 51 -26 101t-28 101q-7 22 -13 43.5t-14 43.5q-34 -73 -61 -146t-53 -149q20 -5 45 -8.5t51 -5.5 t51 -1.5t46 3.5z" />
<glyph unicode="B" horiz-adv-x="602" d="M446 361q21 15 42.5 31t39.5 35t29 42t11 52q0 34 -9 57t-25 40t-37 29.5t-46 25.5q-36 18 -82 27.5t-94 11t-94.5 -5t-83.5 -21.5q-14 -6 -18.5 -15t-6.5 -20q-2 -14 -1.5 -37.5t2 -49t3 -50t1.5 -41.5q0 -35 -3.5 -70.5t-3.5 -70.5q0 -81 -3 -157t3 -157q13 -14 33 -20 t37 -8q37 -6 82.5 -7t91.5 4.5t90.5 19t80.5 38t60.5 60.5t30.5 87q1 11 0 23q-3 31 -14 53.5t-28 39.5t-39.5 30t-48.5 24zM90 331q0 35 3.5 70.5t3.5 70.5q0 14 -1 40t-3 53q-2 28 -2.5 50.5t1.5 30.5q2 11 3.5 14.5t9.5 6.5q35 14 79.5 20.5t90 5t89 -11t77.5 -26.5 q25 -13 45 -24.5t33.5 -26.5t21 -34.5t7.5 -48.5q0 -28 -13 -51t-33 -41.5t-43 -34.5t-43 -30v-13q21 -8 43 -18t41.5 -23.5t33.5 -32.5t19 -46q2 -9 3.5 -18.5t-0.5 -19.5q-8 -59 -42.5 -97t-84 -60t-107 -29.5t-110.5 -4.5q-11 1 -28 2t-35.5 3.5t-34.5 6.5t-24 11 q-5 78 -2.5 153.5t2.5 152.5zM192 101q0 19 -0.5 42t-0.5 47t0.5 46t2.5 39q9 6 25 10t33.5 5.5t34.5 2t28 0.5q53 0 84 -13t44 -32.5t10 -43.5t-19 -45.5t-43 -38t-62 -21.5q-17 -2 -33 -2.5t-32 -0.5q-14 0 -36 1t-36 4zM172 94v-7q20 -8 45.5 -9.5t46.5 -1.5 q17 0 33.5 0.5t33.5 2.5q41 6 72.5 26t49.5 46t20.5 54.5t-13 52.5t-51 39.5t-94.5 15.5q-15 0 -34.5 -0.5t-39 -3t-37.5 -8.5t-30 -16q-2 -20 -2.5 -45t-0.5 -51q0 -25 0.5 -50t0.5 -45zM281 393l-5 3q-14 -9 -25.5 -12t-28.5 -2q-14 1 -17.5 5t-3.5 19q-1 42 -1 83t5 83 q13 16 34 20.5t44 4.5q33 0 61.5 -2.5t59.5 -17.5q35 -18 41 -47.5t-23 -57.5t-67 -45q-17 -8 -37 -19t-37 -15zM278 373q8 0 20 5q34 14 73 35t65 45q19 18 26 37.5t3 38t-17.5 34.5t-35.5 27q-32 17 -62.5 19.5t-66.5 2.5q-27 0 -53.5 -6.5t-44.5 -30.5q-5 -45 -5 -87 t1 -87q0 -21 8 -32t33 -12q14 -1 28 1t28 10z" />
<glyph unicode="C" horiz-adv-x="636" d="M398 582q48 -8 75.5 -36t47.5 -68q14 9 24 18.5t18 20t16.5 20.5t20.5 20v5q0 31 -12.5 56t-32.5 43.5t-45 31.5t-50 21q-37 11 -69 12t-61 -6t-57.5 -21t-59.5 -34q-44 -28 -79 -73.5t-58.5 -98.5t-34.5 -109.5t-8 -107.5q1 -12 2.5 -24t5.5 -25q-2 -11 1.5 -25t8.5 -28 q28 -77 79.5 -124t115.5 -64t135 -3t137 61q23 16 48 41t34 54q8 10 10.5 20.5t2.5 21.5v5q-10 8 -18 16t-16 14.5t-18 11t-25 6.5q-6 -14 -18 -29t-27 -29t-30 -26.5t-27 -19.5q-42 -26 -92 -31.5t-95 14.5q-36 16 -56 48.5t-27 71.5t-3 81t16 77q9 25 22 48.5t27 47.5 q29 50 71.5 77t100.5 18zM402 602q-33 5 -62 -0.5t-53 -20t-43.5 -36t-35.5 -48.5q-14 -23 -27 -48t-22 -52q-12 -35 -17 -79.5t2.5 -87.5t30 -79.5t64.5 -55.5q50 -23 105 -16t100 35q10 6 25 17.5t30 25t28 28t20 27.5q13 -5 24 -16t22 -20q-1 -16 -11 -27 q-11 -26 -32.5 -49.5t-43.5 -39.5q-52 -36 -112 -52t-117 -8t-106.5 40.5t-79.5 92.5q-4 8 -10 20.5t-11 26t-8 26.5t-1 22q-4 13 -5.5 25t-2.5 25q-3 48 7.5 102t33 105t55.5 94t74 70q30 19 57 32t54.5 19.5t56.5 5t63 -11.5q24 -7 46.5 -18.5t39.5 -27t28 -36.5t12 -46 q-14 -14 -25.5 -30t-26.5 -29q-20 37 -50.5 62t-75.5 33z" />
<glyph unicode="D" horiz-adv-x="672" d="M163 8q6 -2 11 -4q52 -12 105 -5t101.5 28.5t91 54t74.5 71.5q42 51 67.5 109.5t31.5 125.5q4 42 -4 86.5t-27 84.5t-49 72.5t-71 51.5q-42 20 -88.5 27.5t-91.5 7.5q-51 0 -108.5 -7.5t-105.5 -31.5q-5 -3 -8 -9.5t-5 -14t-3 -15.5t-2 -12q-8 -58 -7.5 -116.5 t-1.5 -117.5q-1 -40 -4 -87t-3.5 -94.5t4 -93t19.5 -83.5q17 -7 28 -15.5t32 -8.5q4 -2 14 -4zM167 28q-8 2 -14 4q-10 0 -16 1.5t-10.5 4.5t-9.5 6.5t-12 6.5q-13 34 -17 78t-3 90.5t4 92t4 82.5q0 6 0.5 27t1 49.5t1.5 60t3 59t5 47.5t7 25q44 23 98 29.5t105 6.5 q45 0 88.5 -7.5t83.5 -25.5q37 -17 65 -47t45.5 -67.5t25 -79t3.5 -81.5q-5 -64 -29 -119.5t-66 -105.5q-31 -37 -71 -68t-85.5 -51t-94.5 -27.5t-97 3.5q-4 3 -8 4t-7 2zM289 594q51 6 94.5 4.5t75.5 -16.5t50 -47.5t18 -88.5q1 -57 -18.5 -109.5t-55.5 -97.5 q-19 -24 -49 -49t-64 -42t-69 -22t-64 9q-2 25 -4.5 49.5t-4.5 49.5q-1 6 -2 32t-2 62.5t-1 77.5q0 42 2 79t6 64t11 35q16 6 38 7t39 3zM546 426h2v10q0 67 -21 105.5t-57 56.5t-83.5 20t-99.5 -4q-8 -1 -21 -2t-26.5 -2.5t-25.5 -4t-17 -8.5q-9 -9 -14 -37t-7.5 -65.5 t-2.5 -79.5t1 -79.5t2 -65.5t2 -38q2 -27 4.5 -54t4.5 -55q37 -21 78 -17t79.5 22.5t71.5 45.5t53 53q33 42 53 93.5t24 105.5z" />
<glyph unicode="E" horiz-adv-x="507" d="M496 647q0 23 -3 44q-17 6 -35 11t-36 5q-89 2 -175.5 -7t-173.5 -26q6 -23 5.5 -60t-3 -78.5t-5.5 -81t-3 -67.5q0 -35 -2.5 -70t-4 -70t-1 -70t6.5 -70q2 -11 2 -23q0 -11 2 -23q2 -11 5 -20.5t3 -20.5q12 -12 25.5 -17t30.5 -5q10 0 35.5 1.5t58 4t69 6t69 7.5t58 9 t35.5 10q10 13 12.5 22.5t0.5 18.5t-5.5 18.5t-3.5 21.5q-17 16 -53.5 19t-78.5 0t-82 -9t-62 -9q-2 43 -2.5 86t-2.5 87l39 2q7 7 35.5 10t63 4.5t67 2t46.5 3.5q4 7 6.5 19.5t2.5 25.5t-2.5 25t-8.5 20q-11 12 -43 11.5t-70 -5t-73.5 -7.5t-53.5 3q0 16 0.5 38.5t1.5 46 t3 45t5 35.5q29 5 58.5 5.5t58.5 3.5q24 2 49 4.5t53 7.5q3 1 9 1.5t13 0.5t13.5 -0.5t10.5 -0.5q15 0 21.5 5t8.5 13t1 17.5t-1 19.5zM476 647q0 -8 2 -19t-6 -16q-14 -2 -29.5 0.5t-29.5 -2.5l-2 -1q-24 -3 -47.5 -5.5t-47.5 -4.5q-34 -4 -65.5 -4.5t-65.5 -6.5 q-5 -17 -8 -42t-4.5 -52t-1.5 -53v-42v-4l3 -3q8 -7 27.5 -9t45 -0.5t53.5 4.5t52 5t41 2q18 0 22 -5q6 -6 7.5 -26t-2.5 -32q-16 -2 -46.5 -2.5t-62.5 -1.5t-60 -4t-38 -10l-53 -4q4 -54 4.5 -106.5t3.5 -106.5q13 1 36 4t50.5 6.5t56.5 7t55 4.5t46.5 -1t30.5 -9 q1 -8 4 -15t4.5 -13.5t1 -13.5t-5.5 -14q-10 -4 -33.5 -8t-54 -7.5t-65 -7t-66 -6t-57 -4t-37.5 -1.5q-11 0 -20 2.5t-16 8.5q-1 5 -1.5 9t-2.5 8q-4 17 -4.5 32.5t-3.5 32.5q-6 33 -6.5 67t1.5 69q4 72 6.5 143t6.5 143q2 37 3 71t-1 54q34 6 84.5 14t104.5 12.5t104.5 3.5 t85.5 -12q0 -7 0.5 -14t0.5 -15z" />
<glyph unicode="F" horiz-adv-x="479" d="M130 -15h-1v-1q5 2 12 2q8 0 15.5 0.5t14 2t9.5 7.5t5.5 27.5t5 51t4 63.5t3 65t2.5 56t2 37q5 4 18.5 6t28.5 3t28 1h19q10 0 26.5 -0.5t34 0.5t33.5 4t25 10q1 13 3.5 23.5t4 20.5t0.5 20.5t-7 24.5q-15 5 -27.5 6.5t-28.5 1.5h-4l-1 -1q-13 0 -35.5 -2.5t-46.5 -4.5 t-44.5 -2.5t-30.5 1.5q-2 7 -1.5 14.5t1.5 14.5q1 14 1 31t1 34.5t2.5 34t4.5 29.5q26 9 58.5 11t66.5 2.5t67.5 2.5t63.5 10q1 26 -2 45t-9 43q-10 14 -34 18.5t-51.5 4t-53.5 -3t-39 -2.5l-1 -1q-43 0 -86.5 -4.5t-85.5 -16.5q-4 -2 -7 -3t-7 -1q-15 -8 -20 -18 t-5.5 -21.5t2 -25t2.5 -28.5q0 -44 0.5 -87t1.5 -87q0 -22 -0.5 -45t2.5 -46q5 -34 0 -68t-5 -68q0 -46 1 -91t4 -91q12 -11 18 -14t10.5 -2.5t9 2t13.5 0.5zM163 7l-2 -1q-9 -1 -21.5 -0.5t-20.5 -4.5q-11 1 -15.5 -1.5t-13.5 5.5q-3 43 -4 86t-1 86q0 35 5 69t0 69 q-3 22 -2.5 45t0.5 45q-1 43 -1.5 86t-0.5 87q0 16 -3 33q-1 13 -1.5 23t11.5 17q2 1 3 1q2 0 4 1q41 14 87.5 18.5t89.5 4.5h4l1 1q9 0 31 2t46.5 3t45.5 -1.5t29 -9.5q4 -16 6.5 -31t2.5 -32q-12 -3 -35 -4.5t-50 -3t-56 -3t-53 -4t-40.5 -7t-19.5 -10.5q-3 -7 -5 -26.5 t-3 -41.5t-2 -41.5t-1 -27.5q0 -5 -1 -12.5t0 -15t3.5 -13.5t9.5 -8q9 -3 32 -2.5t49 2.5t50.5 4t37.5 2h4l1 1q22 0 37 -4q5 -15 1 -31t-6 -31q-8 -3 -21.5 -4t-29.5 -1h-29h-21q-9 0 -25.5 0.5t-34 -1.5t-32.5 -7t-21 -15q-2 -41 -3.5 -80t-3.5 -80q-3 -48 -6 -86.5 t-6 -49.5z" />
<glyph unicode="G" horiz-adv-x="688" d="M603 141q12 21 23 53.5t18.5 68t10.5 69t-2 57.5q-13 5 -48.5 5.5t-76 -1t-76 -4t-48.5 -3.5q-11 -1 -20 0t-17 1t-17 -1.5t-20 -7.5q-2 -7 -4 -22t-2 -31q0 -15 2 -29t10 -20q9 -7 34.5 -6.5t55 3.5t57 5.5t41.5 0.5q-3 -29 -14 -62.5t-29 -53.5q-21 -25 -58 -37 t-77 -11.5t-76 14t-56 39.5q-17 22 -31 45t-17 48t1.5 57t13 64.5t21 62t26.5 49.5q30 43 70.5 68t85 32t90.5 -5.5t88 -44.5q5 1 14 5.5t19 10t18.5 11.5t11.5 11q12 11 14 24q3 18 -8 33t-27.5 27t-35 21t-31.5 14q-76 32 -148.5 25.5t-135 -40t-112 -90t-79.5 -124.5 q-11 -26 -18 -65.5t-7.5 -82t6 -82t23.5 -64.5q14 -23 28.5 -45t33.5 -42q48 -51 115 -73t134.5 -15.5t128.5 41.5t97 97zM585 151q-33 -57 -89.5 -89.5t-120 -39t-126 14t-107.5 68.5q-17 19 -31.5 40.5t-28.5 42.5q-14 22 -20.5 59t-6 77t7 77.5t17.5 62.5 q29 66 76.5 119.5t106.5 85.5t127 38t139 -24q11 -5 28 -12.5t32 -18.5q3 -3 10.5 -9.5t13.5 -14.5t7 -16t-8 -14l-4 -6q-7 -6 -21 -14t-22 -12q-44 33 -93 44t-96 2.5t-90 -35.5t-74 -71q-20 -29 -32.5 -63.5t-21.5 -66.5q-10 -38 -13.5 -66t1 -52.5t17.5 -48.5t35 -53 q23 -30 63 -45.5t84.5 -16t85.5 13t66 41.5q12 14 20.5 31.5t14.5 37t9 39t5 37.5l-8 2q-15 5 -44.5 3.5t-60 -4.5t-55 -5.5t-30.5 2.5q-3 4 -3.5 14.5t0 21.5t1.5 21.5t2 14.5q5 2 10.5 2.5t12.5 0.5q30 -1 65.5 1.5l71 5t68.5 3.5t59 -3q3 -21 -0.5 -52t-11 -63t-18 -61 t-20.5 -47z" />
<glyph unicode="H" horiz-adv-x="621" d="M180 697q-9 1 -18 0.5t-21 -2.5h-1q0 1 -1 1l-2 1q-14 5 -18.5 -3.5t-6.5 -19.5q-12 -77 -20 -162t-12.5 -172.5t-5 -173t4.5 -162.5q9 -4 26.5 -6.5t36 -4t36 -2.5t28.5 -1q4 31 2.5 60t-1.5 60q0 35 1.5 68.5t1.5 68.5q0 9 6 11q12 5 41.5 9t63.5 7t65.5 5t47.5 3 q2 -4 2 -8q4 -34 2.5 -66t-3 -63.5t0 -64t11.5 -67.5q32 -2 57 2.5t53 18.5q3 21 2 40.5t-1 39.5v47q0 24 1 48q1 69 1 137t5 137q1 13 3.5 25t3.5 25q3 43 6.5 84.5t10.5 83.5q-1 5 0 10t1.5 10.5t-0.5 10t-7 8.5q-5 3 -19.5 2.5t-31 -3t-31 -6t-18.5 -5.5 q-8 -1 -13.5 -2.5t-8.5 -12.5q-6 -26 -9.5 -62t-5 -74.5t-2 -76t-1.5 -65.5v-17q0 -8 -2 -16q-1 -5 -18 -8.5t-38 -5.5t-39.5 -2.5t-22.5 -0.5q-27 -2 -56 -6.5t-55 -0.5q-8 15 -5.5 56t7.5 89.5t8.5 96t-0.5 75.5q-11 0 -21 0.5t-21 1.5zM132 677q8 -3 17 0q14 2 27.5 0.5 t27.5 -2.5q2 -27 -3 -74t-9.5 -95.5t-4 -89.5t12.5 -56q13 -3 29 -3t32.5 1.5t32.5 3.5t29 3q26 2 51 3t51 6q16 3 24 7.5t11 12t3 17.5v24q1 28 1.5 64.5t2 74.5t4.5 73t9 61q9 -2 16 4l1 1q19 2 37.5 6t36.5 4q-1 -5 -2 -11t0 -11q-7 -42 -10.5 -83t-6.5 -83 q-1 -13 -3.5 -25t-3.5 -25q-5 -69 -5 -138t-1 -138q0 -24 -0.5 -47.5t-0.5 -47.5q0 -17 1.5 -33t-0.5 -33q-36 -17 -76 -15q-8 30 -9 60.5t0.5 61l3 61t-1.5 60.5q-1 9 -4 14.5t-9 11.5q-18 -1 -52 -3t-70 -5t-67.5 -7.5t-45.5 -10.5q-11 -5 -14.5 -12.5t-3.5 -16.5 q0 -35 -1.5 -68.5t-1.5 -68.5q0 -25 1.5 -49.5t-0.5 -50.5q-9 1 -21.5 2l-25 2t-24 2.5t-18.5 2.5q-2 36 -2.5 90t0.5 116t3.5 127t6.5 123t9.5 105t12.5 73q2 6 2 12t1 12z" />
<glyph unicode="I" horiz-adv-x="263" d="M62 146q-2 -36 -1 -68.5t8 -67.5q17 -2 34.5 -7.5t34.5 -5.5q32 -5 55 14q6 173 7 343t6 342q-9 2 -25.5 3t-23.5 6q-21 2 -34.5 2.5t-33.5 -13.5q-7 -29 -7 -59v-59q0 -32 -3 -64t-3 -64q0 -42 -1.5 -83t-3.5 -83h-2v-10q0 -31 -2.5 -62.5t-4.5 -63.5zM89 262 q4 47 5.5 93t1.5 93q0 32 3 64t3 64v53t5 53q11 7 21 6t21 -3q8 -4 18 -4.5t19 -1.5q-5 -165 -6 -328.5t-7 -329.5q-7 -4 -16 -5t-17 1q-14 0 -27 4.5t-27 6.5q-5 29 -5 58t1.5 58.5t4 59t2.5 58.5z" />
<glyph unicode="J" horiz-adv-x="444" d="M400 660q-2 9 -4 17.5t-4 17.5q-10 3 -24 6t-28.5 4t-28.5 -0.5t-24 -8.5q-9 -6 -12 -32.5t-2.5 -57t2 -57.5t1.5 -35q0 -22 0.5 -55.5t-0.5 -72t-3.5 -79t-7.5 -77.5t-14 -67.5t-23 -48.5q-12 -15 -29 -16.5t-44 23.5q-11 10 -15.5 24t-5 29.5t1.5 30.5t4 27 q-27 6 -53.5 14.5t-54.5 1.5q-12 -14 -15.5 -39.5t-0.5 -53t11 -53t19 -37.5q17 -19 32.5 -33t32.5 -23.5t37 -15.5t47 -8q51 -4 86 16t57.5 55t35 81t18.5 93t7 91.5t1 76.5q0 8 1.5 15t1.5 15q2 50 1.5 99.5t-0.5 100.5q0 8 -1 16t-3 16zM380 655q2 -7 3 -13.5t1 -13.5 q0 -50 0.5 -99.5t-1.5 -100.5q0 -8 -1.5 -15t-1.5 -15q0 -29 -1 -70.5t-6 -86.5t-15.5 -89t-31 -78t-52 -53.5t-77.5 -15.5q-24 2 -42.5 7t-33.5 14t-29.5 22t-31.5 31q-9 9 -15 30t-9 44.5t-1.5 44.5t8.5 32q17 3 37 -2.5t37 -10.5q-2 -13 -2.5 -28t1.5 -30t8 -28.5 t17 -23.5q32 -29 58 -29t45 24q15 19 24.5 50.5t15.5 69.5t8.5 79.5t3.5 80.5t0.5 73.5t-0.5 58.5q0 9 -1 33t-1.5 51t0.5 50.5t5 31.5q5 4 14.5 5t20 0.5t21 -2t19.5 -4.5z" />
<glyph unicode="K" horiz-adv-x="588" d="M333 372h1q1 4 6 10q11 16 30.5 42t43.5 55.5t49 60.5t45.5 58.5t35 48.5t16.5 30q3 14 -8.5 22.5t-28 13t-33.5 4.5t-24 -3q-12 -5 -30.5 -23t-40.5 -44t-45.5 -56t-44.5 -59t-38 -52.5t-26 -36.5q-10 -14 -21 -27t-22 -27q2 84 4 166t4 166q-9 1 -26 1q-16 0 -23 5 q-11 2 -19 3.5t-15.5 1t-15.5 -3.5t-18 -10q-7 -30 -7 -60v-59q0 -32 -3 -64t-3 -64q0 -86 -6 -171l-1 -1v-4q0 -35 -3 -69.5t-5.5 -69t-2 -69t6.5 -69.5q17 -4 35 -9.5t35 -5.5q15 -2 29.5 1.5t25.5 14.5q3 43 6 86.5t1 87.5q13 17 25.5 33.5t28.5 30.5q8 -4 26 -21 t41.5 -41t49.5 -51.5t48.5 -52.5t39 -45t21.5 -28q10 -17 17 -22.5t28 -4.5q9 4 20.5 9.5t22 13t19 16t12.5 17.5q-13 30 -32 55.5t-41 49.5q-17 18 -45.5 47t-57.5 60.5t-53 61t-33 49.5zM89 291l1 1q6 88 6 179q0 32 3 64t3 64v54t5 53q11 6 21 5.5t21 -2.5q8 -5 18 -5.5 t19 -0.5q-4 -96 -5.5 -190t-2.5 -189q11 17 22.5 34t25.5 33q13 15 33 42.5t43.5 60t49 66.5t48.5 62.5t42.5 49t31.5 24.5q4 1 15.5 0.5t23 -3t20 -5.5t7.5 -7q-1 -6 -13.5 -23.5t-31 -42t-40.5 -52.5t-43 -54.5t-38 -48t-26 -33.5q-3 -4 -9.5 -11.5t-13 -16.5t-10 -18.5 t-0.5 -15.5l1 -3q5 -12 19 -30.5t30.5 -38.5t32.5 -38t25 -28q18 -20 39.5 -41t42.5 -44t39.5 -46.5t29.5 -47.5q-8 -11 -26.5 -21.5t-29.5 -15.5q-10 0 -12.5 1.5t-7.5 9.5l-4 7q-1 2 -2 3t-2 3q-8 10 -26.5 32t-42 48.5t-50.5 55t-51.5 52t-44 39t-29.5 16.5 q-22 -16 -37.5 -37t-31.5 -42q2 -44 -1 -86t-6 -85q-7 -5 -16 -6t-17 1q-14 -1 -27.5 3.5t-26.5 7.5q-5 32 -5 64t2.5 64.5t5.5 64.5t3 64z" />
<glyph unicode="L" horiz-adv-x="441" d="M58 172l1 -1q-2 -43 -4 -85.5t-2 -85.5v-5q7 -5 12 -7t9 -2q5 0 10 -0.5t11 -2.5q60 2 120.5 0.5t121.5 3.5q10 1 20 3t20 2q8 0 15.5 -1.5t15.5 -0.5q16 2 22.5 17t6 33t-6.5 35t-13 23l-6 7q-54 9 -108 3t-108 -7q-6 18 -7.5 57t0.5 88.5t5.5 105t8 106.5t8.5 94t6 67 q1 9 2.5 18t2 17t-2.5 16t-11 16q-26 3 -52 3h-51q-3 -5 -6 -10.5t-3 -12.5q1 -14 -1 -27.5t-4 -27.5q-2 -18 -3.5 -36t-3.5 -36q-8 -94 -16 -183.5t-9 -183.5zM75 183l3 -7q1 91 9 180.5t16 180.5q2 18 3 36t3 35q2 16 4.5 29.5t1.5 29.5l1 2q20 0 41 -0.5t41 -2.5 q5 -7 2 -22t-4 -23q-2 -25 -6.5 -70t-9 -99t-8.5 -112t-4.5 -109.5t2.5 -91.5t12 -58h6q27 0 53.5 2.5t53 4.5t53 2.5t53.5 -3.5l2 -4q8 -4 11 -16t2.5 -24.5t-3.5 -22.5t-7 -10q-3 -1 -6 -0.5t-7 0.5q-15 2 -28.5 0.5t-28.5 -3.5q-60 -4 -119.5 -3t-119.5 -1q-6 2 -12 1.5 t-12 1.5q0 44 2 86.5t4 86.5z" />
<glyph unicode="M" horiz-adv-x="784" d="M604 425q1 -27 2.5 -65t4 -80.5t5.5 -87.5t7.5 -86t10.5 -75t15 -56q28 -5 53.5 -1.5t51.5 14.5v7q0 18 -3 36t-5 36q-2 20 -3.5 41t-3.5 41q-5 69 -12 137.5t-10 137.5q-3 59 -2.5 117t3.5 117v3q0 11 -6 16q-6 13 -21 21t-33 11t-35 1t-27 -8q-9 -18 -16 -36.5 t-15 -36.5q-42 -98 -84.5 -195.5t-80.5 -197.5q-18 50 -38 98t-40 97q-16 42 -31 83t-30 83q-3 10 -6 22.5t-6 24.5t-8 23t-13 18q-11 2 -25.5 4t-28.5 2t-27.5 -2.5t-23.5 -9.5q-9 -28 -17 -82t-14.5 -121.5t-11.5 -141.5t-8 -141t-5 -120t-1 -79q3 -1 5.5 -2t4.5 -1l5 -1 q51 -9 107 -9q4 30 3.5 59t1.5 59q2 34 5 68t4 69q2 45 4.5 88.5t6.5 88.5q5 -16 15.5 -47.5t24 -69.5t28.5 -79t29.5 -76t27 -60t20.5 -32q3 -3 16 -2.5t28 3t28.5 5t16.5 3.5q6 6 19 34.5t30 67.5t35 83.5t33.5 83t26.5 66zM369 66q-9 10 -22.5 41t-30 74t-34.5 92.5 t-34 95.5t-29 84.5t-20 58.5l-10 -138t-7 -138q-1 -34 -4 -68t-5 -69q-1 -25 -0.5 -49t-2.5 -49q-22 2 -43.5 3.5t-42.5 5.5h-4q1 30 3.5 83.5t7 118.5t10 135t12 133t13 112.5t13.5 73.5q7 3 17.5 4t21.5 0.5t22 -1.5t18 -2q4 -5 7.5 -15t6.5 -21.5t5.5 -22t5.5 -17.5 q14 -42 29 -84t32 -84q24 -62 49 -122.5t47 -123.5q42 115 88.5 223.5l94.5 220.5q8 17 14.5 33.5t14.5 33.5q8 4 21 3.5t26 -3.5t23.5 -8.5t12.5 -11.5l3 -4v-2v-4q-3 -59 -3.5 -117t2.5 -117q3 -70 10 -139t12 -138q2 -20 3.5 -41t3.5 -41q2 -16 4.5 -31.5t3.5 -31.5 q-16 -6 -35 -8.5t-36 -0.5q-10 32 -17 95.5t-12 138.5t-8 150.5t-7 150.5l-17 -37q-6 -14 -8 -28t-7 -28q-4 -10 -15 -38t-26 -65t-32 -78.5t-33 -78.5t-28 -64t-17 -35q-16 -3 -33 -6t-34 -3v-1z" />
<glyph unicode="N" horiz-adv-x="605" d="M103 662h-3q-10 -33 -15.5 -87t-8.5 -112.5t-4 -114t-2 -93.5q-1 -64 -2.5 -124t2.5 -124q10 -4 26.5 -6.5t35 -4t36 -2.5t29.5 -1q4 31 2.5 60t-1.5 60q0 35 1.5 68.5t1.5 68.5q-1 48 -0.5 95t2.5 95q4 -10 8.5 -20t9.5 -19q22 -37 43 -73t42 -73q17 -30 31.5 -60.5 t29.5 -61t32.5 -59.5t39.5 -55v-3l3 -1l1 -1l2 1q29 -1 52.5 3.5t50.5 18.5q3 21 2 40.5t-1 39.5v47q0 24 1 48q1 69 1 137t5 137q1 13 3.5 25t3.5 25q3 43 6.5 84.5t10.5 83.5q-2 10 1.5 20.5t-7.5 18.5q-5 3 -17.5 2.5t-27.5 -2.5t-29.5 -4.5t-21.5 -2.5q-2 -2 -2.5 -3 l-0.5 -1l-0.5 -0.5t-1.5 -0.5q-8 -1 -13 -3t-8 -11q-3 -11 -5.5 -32t-4 -47.5t-3 -57t-2.5 -60.5t-1.5 -58t-1.5 -50q-1 -12 -1.5 -25.5t-2.5 -24.5l-1 -6q2 -19 2 -38q0 -18 -2 -36q-57 97 -113 194t-111 196q-20 0 -39 2t-39 -1q-8 1 -15.5 2t-10.5 -10zM459 35v6l-10 -3 q-21 25 -37 53t-30.5 57t-28 59t-29.5 58q-21 37 -42.5 73t-42.5 73q-10 17 -18 38q-8 20 -17 38l-19 38q-2 -69 -3.5 -137.5t-0.5 -137.5q0 -35 -1.5 -68.5t-1.5 -68.5q0 -25 1.5 -49.5t-0.5 -50.5q-23 2 -45 3.5t-44 5.5q-4 58 -2.5 116t2.5 117q1 36 2 91t3.5 112.5 t8 110t15.5 85.5q4 -1 7 -1.5t8 0.5q14 2 29 1l30 -2q62 -110 125 -218.5t127 -217.5q2 34 5.5 69.5t-1.5 70.5q2 5 2 9t1 9q3 36 3.5 72.5t1.5 73.5q1 30 2.5 60t3 56t4 45.5t5.5 29.5q5 0 7.5 0.5t6.5 3.5l2 1q18 2 36.5 6t37.5 4q-1 -5 -2 -10.5t0 -11.5 q-7 -42 -10.5 -83t-6.5 -83q-1 -13 -3.5 -25t-3.5 -25q-5 -69 -5 -138t-1 -138q-1 -24 -1 -48v-47q0 -17 1.5 -33t-0.5 -33q-17 -8 -35 -12t-36 -4z" />
<glyph unicode="O" d="M505 696q-8 5 -20.5 10t-27 8.5t-28 5t-23.5 -0.5q-23 5 -51 2.5t-57 -10t-55.5 -18.5t-45.5 -22q-42 -25 -73 -64.5t-51.5 -86t-30 -96.5t-8.5 -96q1 -49 8.5 -103t32.5 -99q42 -75 108.5 -112t152.5 -37q63 0 114 24.5t89.5 65.5t64.5 95.5t38 114.5t10 122t-18.5 118 t-48.5 102.5t-80 76.5zM495 680q61 -38 94.5 -103.5t41.5 -141.5t-8.5 -154t-54.5 -141t-96.5 -103t-135.5 -40q-81 0 -142.5 34t-100.5 105q-23 42 -30.5 92.5t-8.5 99.5q-1 44 8 92t28.5 92t48.5 81t68 60q18 11 43.5 21t53 17t54.5 9.5t48 -1.5q8 2 20.5 0.5t25.5 -4.5 t24.5 -7t18.5 -8zM192 171q-20 34 -28 79t-5 93.5t16.5 95.5t38 84.5t59.5 61.5t80 25q47 1 79 -20t51.5 -56t27.5 -79.5t5.5 -90.5t-14 -89t-29.5 -75q-24 -43 -55 -65t-80 -28q-45 -5 -84 10.5t-62 53.5zM174 161q26 -45 72 -62.5t94 -11.5q54 7 89 31.5t62 71.5 q17 31 29 76t15 94t-4.5 98t-29 88t-57.5 62.5t-91 21.5q-52 -2 -90.5 -27.5t-65 -66.5t-41 -91.5t-17.5 -102t6 -99.5t29 -82z" />
<glyph unicode="P" horiz-adv-x="547" d="M197 250h1l19 1q45 0 86.5 6t82.5 26q57 27 94.5 70t51 93.5t0 104.5t-60.5 103q-31 32 -62.5 47.5t-64.5 21t-69 5t-77 -0.5q-15 0 -30 -3.5t-30 -3.5q-11 0 -19 -1.5t-18 -6.5q-11 -5 -16.5 -24t-8 -41t-2.5 -43v-29q-2 -17 0 -33v-10l1 -3v-3q0 -131 -1 -262.5 t7 -262.5q8 -6 26.5 -11.5t39 -7t37 3.5t19.5 20q3 9 2.5 24t-1.5 25q-5 48 -6 95.5t-1 95.5v4zM95 525q2 4 -1 7v1v10q-2 15 0 32q0 26 0.5 52.5t7.5 51.5q5 15 12.5 18t23.5 3q15 0 30 3.5t30 3.5h74t75 -5q38 -5 72 -28t58 -58t34.5 -77.5t1 -86t-41.5 -83t-93 -68.5 q-39 -18 -79 -24t-82 -6l-20 -1h-6q-11 0 -12.5 -8t-1.5 -16q1 -49 1.5 -97t5.5 -96q1 -8 1.5 -21t-2.5 -20q-1 -8 -12.5 -9.5t-26 0t-27 4.5t-16.5 5q-4 61 -5 126t-1 130v130v127zM252 615l1 1q13 1 25 1h24q40 0 70 -20t43 -49t7 -63t-36 -62q-42 -38 -89.5 -53 t-103.5 -9q-2 27 -1 55t1 55q0 17 -1 35.5t-1 37.5q0 17 1.5 33.5t6.5 30.5q12 3 24.5 5t24.5 2h4zM244 635q-29 -1 -61 -11q-7 -20 -9.5 -39t-2.5 -41q0 -19 1 -37.5t1 -35.5q0 -32 -1 -63.5t3 -64.5q66 -8 120.5 6t104.5 60q36 33 42.5 73t-9.5 74.5t-50.5 57.5t-80.5 23 h-29q-14 0 -28 -1z" />
<glyph unicode="Q" d="M306 210q20 -23 40.5 -45.5t40.5 -45.5q-24 -9 -49 -12q-52 -7 -88 11t-58 52t-30.5 79.5t-5 94t19 96t40.5 85t59.5 61t77.5 24.5q48 1 80.5 -21t52.5 -58.5t27 -82.5t3.5 -93.5t-17 -91.5t-35.5 -77q-6 8 -19.5 24.5t-29.5 33t-32.5 29t-28.5 11.5q-17 -14 -33 -29.5 t-18 -41.5zM361 263q9 -4 24 -18.5t30.5 -32t29 -34.5t20.5 -25q14 18 30.5 61t27 96.5t11.5 110.5t-16 103.5t-56 76.5t-109 29q-52 -1 -90.5 -26.5t-65 -66t-41 -92t-17 -103t6 -99.5t28.5 -82q20 -35 49.5 -52t63 -21.5t68.5 2.5t65 22l-48 54t-49 54q3 13 15 24t23 19z M336 -23q76 0 142 40q31 -35 61 -70t65 -64l1 -1q7 -9 19.5 -1.5t24 21t20 27t9.5 16.5q-27 38 -59 72.5t-64 68.5q33 41 55.5 93.5t33 109.5t8.5 116.5t-18.5 113.5t-48.5 100t-80 77q-7 5 -20 10t-27.5 8.5t-28.5 5t-23 -0.5q-23 5 -51 2.5t-57 -10t-55.5 -18.5t-45.5 -22 q-42 -25 -73 -64.5t-51.5 -86t-30 -96.5t-8.5 -96q1 -24 2.5 -50.5t6 -52.5t12.5 -51.5t20 -47.5q43 -75 108.5 -112t152.5 -37zM616 -101q-38 32 -70 70t-64 74q-35 -23 -69.5 -34.5t-76.5 -11.5q-81 0 -142 34t-101 105q-23 41 -30.5 92.5t-8.5 99.5q-1 44 8 92t28.5 92 t48.5 81t68 60q18 11 43.5 21t53 17t54.5 9.5t48 -1.5q7 1 19.5 0t26 -4t25.5 -7t18 -8q49 -32 79.5 -78t44.5 -100t13.5 -112t-13 -113.5t-36 -105t-54.5 -85.5q32 -35 65 -70t62 -74q-3 -5 -8 -11t-11 -12.5t-12 -12t-9 -7.5z" />
<glyph unicode="R" horiz-adv-x="588" d="M79 502q0 -129 -2 -254.5t6 -255.5q8 -6 26.5 -12t39 -7t37 4t19.5 20q3 10 2.5 24.5t-1.5 24.5q-5 53 -6.5 106.5t0.5 106.5q12 2 23.5 1t23.5 0q16 -12 32.5 -31t32.5 -40.5t31 -42.5t29 -37q27 -30 53.5 -60t55.5 -59h4q7 0 23 1.5t33 3.5q16 2 33 6t25 20 q-22 42 -52.5 76t-59.5 69q-26 31 -46.5 64.5t-48.5 62.5q31 13 57.5 27t46 33t31.5 45.5t15 63.5t-12 76.5t-42 73t-62.5 56t-73.5 27.5q-41 5 -76 5h-75q-15 0 -30 -3.5t-30 -3.5q-20 0 -31 -5t-17.5 -14.5t-9 -23t-3.5 -30.5q0 -2 -1 -20t-1.5 -39t-0.5 -39t2 -20z M575 24q-7 -3 -18.5 -5.5t-24 -4.5t-24.5 -3t-19 -1q-26 27 -51 55.5t-50 57.5q-14 16 -31 38.5t-34.5 45t-35.5 42.5t-34 31q-8 -1 -16.5 -0.5t-16.5 0.5h-11q-6 0 -12.5 -1t-11.5 -4t-5 -10q-2 -55 -0.5 -110.5t6.5 -110.5q1 -8 1.5 -21t-2.5 -20q-1 -8 -13 -9.5t-26 0 t-27 4.5t-16 5q-8 125 -6 250t2 250l-2 -1q1 2 1 3v1q-2 14 -2 34t1 41t3 40t6 32q4 15 12 17.5t23 2.5t30 3.5t30 3.5h74t75 -5q34 -4 66 -25t56.5 -51t38.5 -66t11 -69q-3 -39 -18 -64.5t-37.5 -43.5t-51 -30.5t-60.5 -25.5q29 -26 49 -53t41 -58q15 -22 32.5 -42 t34.5 -40t33.5 -40.5t29.5 -42.5zM255 588l1 1q59 2 98.5 -15t58 -44.5t15.5 -58.5t-29 -56.5t-76 -39.5t-126 -6q-2 18 -2.5 48t0 61.5t2.5 60t5 42.5q12 3 24.5 5t24.5 2h4zM247 608q-29 -1 -61 -11q-6 -17 -8.5 -51t-3 -71.5t1 -72t3.5 -51.5q89 -11 147.5 5.5t89 46 t33.5 67t-19 69.5t-68 53t-114 17z" />
<glyph unicode="S" horiz-adv-x="593" d="M448 588q14 -2 27.5 -4.5t27.5 -3.5q11 11 17.5 24t12.5 27q2 16 1 31t-3 31q-32 15 -78 20.5t-96 -0.5t-99.5 -22.5t-88.5 -45.5t-63.5 -70t-24.5 -94q0 -36 8 -62.5t22 -45.5t33 -32t41 -22q13 -5 35 -10.5t47.5 -12.5t51.5 -15t48 -19t36 -24.5t16 -30.5 q3 -30 -19.5 -49.5t-55.5 -30.5t-67.5 -14.5t-54.5 -2.5q-22 1 -41.5 8.5t-37 18t-34 23.5t-33.5 26q-11 -12 -21 -26.5t-17 -31t-9 -34t3 -34.5q41 -26 84.5 -45.5t93.5 -21.5q54 -3 116.5 8.5t114.5 40t83 77.5t22 121q-4 27 -10 47.5t-28 40.5q-17 16 -44.5 28 t-58.5 20.5t-61 14.5t-53 11q-33 6 -60 27.5t-32 54.5q13 37 39.5 59.5t61 34t73.5 13.5t75 -3zM498 600l-24 4l-24 4q-37 5 -78.5 3t-79.5 -15t-68 -39.5t-45 -70.5q5 -44 36.5 -70t71.5 -34q21 -4 50 -10t59 -14t56.5 -19t41.5 -25q18 -17 23.5 -33.5t8.5 -42.5 q8 -64 -19.5 -108t-75.5 -71t-107 -38t-114 -8q-43 2 -83 19t-77 40q-2 10 -0.5 21.5t5.5 23.5t10 22.5t13 19.5q33 -26 66 -46.5t78 -22.5q24 -2 61.5 2.5t72.5 17.5q36 13 57.5 34t26 44.5t-10 47t-49.5 42.5q-28 15 -59.5 23.5t-62.5 16.5t-59.5 18t-50 27.5t-34.5 45.5 t-13 72q0 42 20.5 78t55 63t78 45.5t89 26.5t90 4.5t79.5 -19.5q3 -22 0 -42q-4 -9 -6.5 -19t-8.5 -18z" />
<glyph unicode="T" horiz-adv-x="488" d="M297 268q0 147 6 294l85 5q21 2 43.5 2.5t42.5 5.5q12 3 15 19t0 35t-8.5 35.5t-9.5 20.5q-66 6 -131 2t-131 -7q-13 -1 -44 -1q-30 0 -63 -2.5t-62 -8t-39 -17.5q0 -14 -1 -27t1 -26t7.5 -24.5t17.5 -20.5q38 2 76.5 2.5t76.5 2.5q-2 -23 -4.5 -69.5t-5 -103.5 t-4 -118.5t-1 -115.5t4.5 -94.5t13 -55.5q8 -14 27 -18t31 0q28 4 57 17q4 16 5 51.5t-0.5 76.5t-3 80t-1.5 60zM469 594h-4q-44 -8 -90.5 -9t-91.5 -3q-2 -79 -4 -157t-2 -157q0 -9 0.5 -23.5t1 -33t1 -39.5t1.5 -42q1 -39 1 -71t-2 -45q-23 -8 -44 -11q-7 -2 -19.5 -1 t-16.5 9q-8 13 -11.5 54.5t-4 97t1.5 119t5 122t5.5 105.5t4.5 69l-84 -2t-84 -3q-12 12 -12.5 33t0.5 36q10 6 36.5 9.5t56.5 5t56.5 2t38.5 1.5q63 3 126.5 7t126.5 -2q3 -5 4.5 -15.5t2.5 -21.5t1 -21t-1 -13z" />
<glyph unicode="U" horiz-adv-x="587" d="M108 655q-12 -2 -21 -5.5t-19 -10.5q-15 -92 -19 -182t-2 -182q0 -27 5 -60.5t16 -66.5t28 -61.5t41 -46.5q39 -29 91.5 -44.5t104.5 -12.5t97.5 27t72.5 75q28 54 41 112.5t14 118.5q1 17 0 34.5t0 34.5q6 103 6 207q0 17 0.5 34t-1.5 34q-58 1 -116 -3l-2 -6 q-1 -3 -2.5 -26.5t-2.5 -58t-1.5 -74.5t-1.5 -77t-1.5 -65.5t-0.5 -38.5q0 -15 -0.5 -36t-2.5 -42t-6.5 -40t-13.5 -32q-24 -37 -57 -54t-65.5 -14t-60.5 25.5t-43 64.5q-9 28 -13 70.5t-3.5 88t3.5 89.5t7 75l8 52t6 52q3 32 -8 41.5t-43 9.5q-9 -2 -17.5 -3t-17.5 -3z M111 635q9 2 17.5 3t16.5 3q10 0 18 -0.5t12 -11.5q1 -11 -1 -27t-4.5 -33t-5.5 -33.5t-4 -27.5q-4 -30 -7 -74.5t-3 -92.5q0 -47 4 -91t14 -73q16 -49 49 -74.5t70.5 -29t75.5 15.5t65 60q10 15 15.5 35.5t8 43t3 44t0.5 39.5q2 82 4 163.5t4 164.5q21 1 41 1.5t41 -0.5 q1 -12 0 -24t-1 -24q0 -103 -6 -205q-1 -18 0 -35.5t0 -35.5q-1 -58 -13.5 -114t-39.5 -107q-23 -45 -64.5 -67t-89 -25t-96 11.5t-86.5 41.5q-21 15 -36.5 41.5t-25.5 57t-15 62t-5 58.5q-1 88 2 176.5t17 175.5q5 3 11.5 4.5t13.5 3.5z" />
<glyph unicode="V" horiz-adv-x="555" d="M285 -17l28 4t28 3q10 14 22.5 44t25.5 68.5t26 81t25 83t21.5 74.5t15.5 55q20 71 50 139t50 139q-5 15 -19 25.5t-31.5 15t-35 3t-29.5 -10.5q-9 -20 -15.5 -41t-13.5 -43q-38 -109 -77 -217t-74 -218q-17 55 -33 103.5t-31.5 95.5t-30.5 96t-30 105q-3 11 -5.5 25 t-6 28t-9 26.5t-13.5 20.5q-11 3 -26 4t-31 -0.5t-30 -6.5t-22 -13q2 -31 13 -78.5t27 -103t35 -115t37.5 -114t35.5 -100t29 -73.5q3 -6 7.5 -21.5t10 -32t11 -31t10.5 -19.5q3 -3 11 -4t16.5 -0.5t16.5 2t11 1.5zM243 0l-1 2q-5 9 -8 19t-7 20q-14 43 -32.5 94t-38.5 106 t-40 112t-36.5 112t-29 105.5t-16.5 92.5q6 3 16.5 5.5t21.5 3t22 0t19 -1.5q4 -6 7.5 -17.5t6.5 -24.5t5.5 -25.5t4.5 -20.5q28 -99 59 -195.5t64 -193.5q6 -19 11.5 -37.5t10.5 -37.5q38 127 82.5 250t86.5 249q7 20 13 39t14 38q7 4 19 4.5t24 -2.5t22 -9t13 -13 q-20 -70 -49.5 -136.5t-49.5 -135.5q-4 -14 -10 -36t-14 -50l-17 -59.5t-19 -63.5q-19 -62 -37 -113t-30 -71q-21 -2 -43.5 -6.5t-43.5 -2.5z" />
<glyph unicode="W" horiz-adv-x="790" d="M226 217q-26 86 -48 172.5t-42 174.5q-3 11 -5 25t-5 28t-7.5 27t-11.5 22q-10 3 -24 4t-28.5 -1t-27 -7.5t-19.5 -14.5q4 -57 17.5 -112t27.5 -111q20 -82 42.5 -163.5t50.5 -161.5q2 -7 6 -22t8.5 -31.5t9 -31t8.5 -19.5t14.5 -8t23 -4t22.5 -1q11 0 15 2q5 2 8.5 4.5 t6.5 4.5l5 4q2 2 3 2.5t3 2.5q8 11 18 40.5t21 67t22 79.5t20 79t15 63.5t8 34.5q35 -134 81 -268q2 -8 5.5 -22.5t8.5 -30.5q4 -14 6.5 -24.5t7 -19t13 -13.5t24.5 -6q15 -1 23.5 0t14.5 3.5t12.5 6t17.5 7.5q7 12 17.5 42t22 69t23 83t21.5 83.5t17.5 70.5t10.5 43 q16 69 40 136.5t42 136.5q-3 14 -15.5 26t-28 18t-32.5 4.5t-29 -13.5q-8 -21 -13.5 -41.5t-11.5 -41.5q-29 -100 -59.5 -198t-56.5 -198q-11 44 -26 87t-26 87q-14 48 -24.5 97t-22.5 97q-6 25 -22.5 36t-34.5 10t-34 -13.5t-23 -33.5q-31 -91 -55.5 -183.5t-50.5 -185.5z M632 445q12 42 24.5 82t24.5 82q5 20 10 39t13 38q6 5 16 5.5t20.5 -3.5t19 -10.5t11.5 -14.5q-19 -68 -42 -134t-40 -135q-4 -16 -11.5 -46.5t-17 -68.5t-20.5 -79.5t-21.5 -78.5t-20 -65.5t-15.5 -40.5q-8 -3 -13 -7q-11 -5 -29 -6t-29 4q-3 4 -7.5 18t-9 30t-8 30.5 t-5.5 19.5q-29 88 -53.5 174.5t-47.5 176.5q-4 -19 -11.5 -55t-18 -80t-22 -92t-23.5 -91t-22.5 -75.5t-18.5 -45.5q-4 -2 -5 -4l-5 -4q-4 -4 -8 -6q-3 -1 -11.5 -0.5t-17.5 1.5t-16 2t-8 2q-3 3 -7 17t-8.5 30.5t-8.5 31t-6 19.5q-27 80 -49.5 161t-42.5 163 q-13 53 -26 105t-18 106q10 8 31.5 10t35.5 -2q4 -6 7 -17.5t5.5 -24.5t4.5 -25.5t4 -20.5q21 -91 44 -180t49 -177q5 -17 8.5 -33.5t6.5 -33.5q31 112 60 223t66 221q6 16 17.5 24.5t23.5 8.5t22 -7.5t13 -22.5q12 -49 23 -98t24 -98q15 -53 32.5 -105.5t28.5 -106.5l9 -43 q20 79 43 157z" />
<glyph unicode="X" horiz-adv-x="556" d="M452 483q32 43 62 80.5t67 75.5l-11 7q-11 6 -19 15t-16 17t-18.5 13t-27.5 4q-19 -15 -34.5 -32t-30.5 -36q-38 -49 -73.5 -98.5t-78.5 -94.5q-38 58 -67.5 121t-59.5 126q-26 -12 -52 -25t-49 -31q31 -78 67 -143.5t74 -140.5q-20 -30 -51.5 -71.5t-62.5 -86.5 t-55 -88.5t-29 -76.5q20 -10 50 -23.5t52 -15.5q22 25 44 58.5t43.5 68t43.5 65t45 49.5q20 -19 37 -40.5t34 -43.5q12 -15 29 -33.5t35.5 -36.5t37 -34t33.5 -28q16 -12 35.5 -8.5t38.5 15.5t34 28.5t23 29.5q-84 49 -144 116.5t-114 146.5q26 35 53 74t55 77zM436 495 q-29 -41 -58 -81.5t-58 -81.5q51 -77 112 -148t142 -122q-6 -7 -17 -17t-24.5 -18t-27 -11t-22.5 4q-15 11 -33 27t-36 33.5t-34.5 35t-27.5 32.5q-20 26 -40.5 51t-46.5 47q-26 -19 -49.5 -50t-46 -65.5t-44.5 -69t-44 -61.5q-13 3 -35 12t-37 17q7 29 32.5 71t56.5 86 t61.5 85t49.5 68q-35 69 -73.5 138t-67.5 141q16 11 33 20t34 17q32 -66 62.5 -129.5t72.5 -123.5q32 33 60.5 68.5t56.5 72.5q26 34 51 69.5t59 62.5q15 -1 28 -15.5t25 -24.5q-29 -30 -57.5 -66t-56.5 -74z" />
<glyph unicode="Y" horiz-adv-x="559" d="M262 397q-47 68 -85 140.5t-70 147.5q-14 3 -28 -0.5t-27.5 -9.5t-26.5 -13t-26 -11q0 -18 12.5 -49.5t31 -69t41.5 -77.5t45 -76t40 -64t27 -41q10 -60 7 -121.5t-1 -122.5v-16t1 -15q1 -9 14.5 -12.5t29.5 -3.5q17 0 32.5 2t20.5 3q13 3 20 7t9.5 10.5t2.5 15.5v21 q0 14 -0.5 32t-1.5 37q0 14 -1.5 35t-2.5 43.5t0 44t4 36.5q0 2 11.5 22t28 49.5t36 64t37.5 65.5t31.5 54.5t17.5 30.5q20 29 40.5 57t35.5 60q-12 16 -21.5 26.5t-20.5 17.5t-25 10.5t-34 5.5q-18 -18 -44 -56.5t-51.5 -81.5t-47.5 -83.5t-34 -62.5l-13.5 -27t-14.5 -25z M222 5q-3 35 -1.5 69t2 68.5t-0.5 69t-8 70.5q-9 13 -26 39.5t-37.5 60t-42.5 71.5t-40.5 73t-31.5 64.5t-16 46.5q15 7 36.5 18t36.5 11q33 -78 72.5 -151t88.5 -142h15q7 8 12.5 17t10.5 18q15 29 38 72t48.5 87.5t50.5 84t46 61.5q26 -3 39.5 -12t29.5 -30 q-14 -29 -32.5 -53.5t-35.5 -51.5q-4 -6 -18 -29.5t-32 -54.5t-38 -66.5t-37 -65.5t-28.5 -51.5t-12.5 -24.5q-3 -14 -4 -28t0 -27q2 -45 4 -88.5t2 -88.5q-1 -8 -0.5 -15t-1.5 -14q-6 -3 -18 -5.5t-25.5 -3.5t-25.5 -1t-19 2z" />
<glyph unicode="Z" horiz-adv-x="603" d="M18 85q-5 -16 -6.5 -26.5t-1 -20.5t3.5 -20.5t8 -25.5q9 -6 16.5 -8t15 -1t16 2.5t17.5 2.5q47 4 94 2t95 0q33 1 67 0t67.5 -2.5t66.5 -1.5q34 0 67 4q7 18 9 31t1.5 25.5t-3.5 25.5t-6 31q-40 12 -84.5 11.5t-90.5 -4l-92 -7t-89 1.5q31 49 76.5 109.5t96.5 121.5 t102.5 117t94.5 95q7 15 9 34t-3 37t-17.5 31.5t-33.5 17.5q-14 2 -50.5 4t-84.5 3t-102 0.5t-101.5 -2.5t-84 -6t-48.5 -10l2 -64q-3 -13 2.5 -28t7.5 -28q20 1 37.5 4t36.5 6q64 11 128.5 7.5t128.5 -9.5q-10 -12 -19.5 -24.5t-20.5 -24.5q-15 -17 -43.5 -49t-63.5 -72 t-72 -84t-68 -84t-53.5 -72.5t-27.5 -49.5zM38 79q4 16 25.5 47t52 70t67 82t70.5 82.5t62.5 72t44.5 49.5q18 20 34 40t34 39q-75 8 -151.5 13t-151.5 -7q-14 -2 -26.5 -5t-26.5 -4l-2 3q-2 8 -4.5 15t-0.5 15l-2 53q15 4 51.5 6.5t82 3.5t95.5 1q51 0 95.5 -0.5t78 -2.5 t44.5 -4q13 -3 22 -12t13.5 -22t4 -27t-6.5 -27q-47 -42 -101 -101t-106.5 -123.5t-99.5 -128.5t-80 -117l14 -3q42 -7 89.5 -4t94.5 7t91.5 5.5t81.5 -8.5q5 -22 8 -39t-5 -40q-60 -5 -126.5 -0.5t-127.5 2.5q-48 -2 -95.5 0t-95.5 -2q-10 -1 -23.5 -4.5t-23.5 1.5 q-4 12 -6 20t-2 15q0 8 2 17t6 22z" />
<glyph unicode="[" horiz-adv-x="317" d="M204 832q-26 0 -52.5 1.5t-52.5 1.5h-10q-1 -26 -5 -52t-6 -52q-5 -64 -5 -128t-3 -128q-4 -68 -4.5 -135t-2.5 -134q-2 -51 -3.5 -101.5t-0.5 -101.5q1 -19 1 -36t5 -35q13 -2 41.5 -5.5t59.5 -7t57 -4.5t35 2q11 3 18 14t6 22q2 11 0 21.5t-4 21.5q-26 6 -50.5 11.5 t-50.5 7.5v61q0 31 -1 62q-4 153 2.5 304t17.5 304q28 2 54 0t53 4q-1 21 -4 41t0 41q-11 5 -23 6t-24 -0.5t-24 -3.5t-24 -2zM204 812q17 0 40 4.5t39 0.5q-4 -2 -5 -8.5t0 -15t2.5 -16t1.5 -11.5q-26 -4 -52 -1.5t-52 -0.5q-12 -158 -19 -313t-3 -313q1 -33 1 -66v-66v-9 q26 -2 51.5 -7t51.5 -10q3 -15 2 -27q1 -5 -2 -10.5t-8 -7.5q-6 -2 -30 -0.5t-51.5 4.5t-53.5 6.5t-36 4.5q-1 5 -1.5 10.5t-0.5 11.5q-2 59 0 117t4 117q2 67 2.5 133.5t4.5 133.5q3 65 3 128q0 64 5 128q2 21 5.5 43t5.5 43q23 -1 47 -2t48 -1z" />
<glyph unicode="\" horiz-adv-x="460" d="M12 697q11 13 31.5 15t39.5 -3q16 -15 44.5 -63.5t63.5 -115.5t72.5 -144.5t71.5 -150t61 -132.5t40 -91q-14 -8 -32 -9.5t-34 -3.5q-22 45 -44.5 88.5t-44.5 88.5q-33 66 -64 132t-63 132t-67 130.5t-75 126.5zM-9 702l-3 -5q41 -63 77 -128.5t69 -132t64.5 -134 t64.5 -134.5q24 -48 48 -95.5t47 -95.5q29 3 53 6t49 22q-5 13 -20.5 48.5t-38 85t-50 109t-57 121t-59.5 120.5t-57 108t-49 83.5t-36 46.5q-12 3 -26.5 4.5t-28.5 -1t-27 -9t-20 -19.5z" />
<glyph unicode="]" horiz-adv-x="317" d="M157 -80q26 0 53 -1.5t53 -1.5h10q1 26 5 52t6 52q5 64 5 128t3 128q4 68 4.5 134.5t2.5 134.5q2 51 3.5 101.5t0.5 101.5q-1 19 -1 36t-5 35q-48 5 -95 10.5t-95 5.5h-2q-11 -5 -19 -15t-6 -24l2 -41q26 -6 51.5 -11t51.5 -9v-62q0 -30 1 -61q4 -153 -2.5 -304 t-17.5 -303q-28 -2 -54 0t-53 -6q1 -20 4 -39.5t0 -40.5q11 -5 22.5 -6t23.5 0.5t24 3.5t24 2zM157 -60q-7 0 -18 -1.5t-22.5 -2.5t-21.5 -2t-16 1q4 2 5 8.5t0 14.5t-2.5 15.5t-1.5 11.5q26 5 52 2.5t52 0.5q12 157 19 312t3 313q-1 33 -1 66v66v9q-26 3 -51.5 8t-51.5 10 l-2 27q-2 5 1.5 10t8.5 7q43 0 85.5 -4.5t85.5 -9.5q1 -5 1.5 -10.5t0.5 -11.5q2 -59 0 -117t-4 -117q-2 -67 -2.5 -134t-4.5 -133q-3 -65 -3 -129q0 -63 -5 -127q-2 -21 -5.5 -43t-5.5 -43l-48 2t-48 1z" />
<glyph unicode="^" horiz-adv-x="551" d="M117 441q-5 2 -10.5 3.5t-13.5 5.5q14 22 24 43q23 42 46 75.5t55 68.5l9 9t8 9q18 -2 35.5 0t35.5 1q23 -31 43.5 -64t43.5 -65q15 -20 32.5 -38.5t31.5 -39.5q-12 -5 -26 -8t-22 -1q-6 5 -10.5 10.5t-9.5 11.5q-30 35 -62 76.5t-55 80.5q-29 -29 -49 -60.5t-43 -65.5 q-8 -13 -14.5 -26.5t-15.5 -25.5q-5 0 -8.5 -0.5t-7.5 -0.5q-5 0 -8.5 0.5t-8.5 0.5zM114 422q5 -1 10 -1.5t10 -0.5q6 0 12.5 0.5t13.5 0.5q12 15 21 33q7 15 18 33t23 36t24 35t23 29q9 -14 26 -37t35 -47q14 -17 31.5 -40.5t34.5 -37.5q7 -6 19 -6q13 0 26 3.5t25 9 t19 9.5q-16 28 -36.5 50t-39.5 48q-24 34 -45.5 68.5t-47.5 68.5q-23 1 -45.5 -1t-45.5 1q-5 -8 -11 -15q-22 -22 -41.5 -46t-36.5 -50q-20 -29 -34.5 -62t-37.5 -60q12 -7 24 -13t26 -8z" />
<glyph unicode="_" horiz-adv-x="368" d="M-16 -148q2 -14 5.5 -24t13.5 -20q48 1 102.5 -0.5t100.5 -2.5q8 0 33 -0.5t53 -0.5t53.5 0.5t34.5 3.5q10 3 12 16.5t0 30t-6 30.5t-7 18q-17 2 -46.5 4t-61 3t-58.5 1.5t-38 0.5q-33 1 -64 1t-56 -2q-6 0 -16 -0.5t-20.5 -2t-19.5 -4.5t-14 -9q-1 -11 -1.5 -21.5 t0.5 -21.5zM372 -174q-12 -2 -24.5 -1.5t-24.5 -0.5q-78 -1 -155.5 1.5t-155.5 2.5q-8 11 -8.5 27.5t1.5 29.5q12 4 35.5 5.5t50 2t50 0t34.5 -0.5q30 0 60 -1t56 -2t46 -2t31 -2q1 -5 2.5 -13.5t2 -17.5t0.5 -17t-1 -11z" />
<glyph unicode="`" horiz-adv-x="290" d="M93 622q23 -20 37.5 -35.5t25.5 -44.5q13 5 30 10t26 15q8 9 5 24t-13 33.5t-24.5 37t-29 34.5t-26.5 26.5t-17 12.5q-10 4 -22.5 2t-24 -7t-21 -13t-14.5 -17q12 -26 29 -43t39 -35zM106 637q-17 14 -32.5 28.5t-25.5 33.5q8 9 25.5 15t27.5 3q9 -3 24.5 -20.5t31 -39 t28 -42.5t14.5 -31q0 -3 -4 -5.5t-9.5 -5t-11 -4t-6.5 -2.5q-11 23 -28 39.5t-34 30.5z" />
<glyph unicode="a" horiz-adv-x="422" d="M186 -7q26 1 49 8.5t46 14.5q5 -9 12.5 -16t12.5 -16q18 0 35.5 2.5t34.5 4.5v9q0 23 1.5 44.5t1.5 44.5l-3 -7l4 4q1 31 3.5 71.5t1.5 82.5t-8 80.5t-26 65.5q-25 36 -55.5 52t-62 17t-63 -11t-58 -32.5t-47.5 -46.5t-32 -54q16 -8 27 -19.5t28 -17.5q13 16 26.5 31.5 t31.5 27.5q15 10 34 15t36.5 4.5t31 -9t18.5 -25.5q5 -13 5 -27v-27q-22 -3 -43.5 -3.5t-43.5 -3.5t-50 -13t-53.5 -26t-43 -39.5t-17.5 -53.5q0 -39 13 -64.5t35.5 -41t51.5 -21.5t62 -6h2zM359 93v-4q0 -20 -1 -40l-2 -40q-10 -1 -19.5 -2.5t-19.5 -2.5q-5 6 -8 9t-5.5 6 t-4.5 7.5t-3 13.5q-27 -7 -55 -17t-57 -10h-2l-2 -1q-31 0 -57 5.5t-44.5 18.5t-28.5 35t-10 54q0 24 14.5 43t36.5 33t48 23t49 13q26 5 51 5q26 0 52 5q-1 19 -0.5 38.5t-4.5 38.5q-8 26 -27.5 37t-42 11.5t-45 -6.5t-37.5 -17t-27.5 -23t-23.5 -27q-7 5 -12.5 10.5 t-12.5 10.5q18 41 53 70t75.5 38.5t80.5 -2.5t68 -52q16 -24 22.5 -60t7.5 -75.5t-1.5 -78t-3.5 -66.5zM189 168q28 10 52.5 12.5t35.5 -0.5q0 -17 0.5 -33.5t-3.5 -33.5q-1 -5 -22 -9.5t-46.5 -6t-48.5 1t-27 12.5q-4 11 2 20.5t16 17t21.5 12.5t19.5 7zM182 187 q-12 -4 -27 -11t-26.5 -17.5t-17 -24t0.5 -29.5q4 -12 18.5 -18t34 -8.5t41.5 -1t41 5.5t32 11t15 15q4 20 3.5 39t-0.5 39v5q-11 7 -26.5 8.5t-32 -0.5t-31.5 -6t-25 -7z" />
<glyph unicode="b" horiz-adv-x="465" d="M131 -2q1 6 6 14q16 -8 38.5 -12.5t46 -6t45.5 0.5t36 7q44 15 75 50t47 78t15 89.5t-22 84.5t-62.5 61.5t-107.5 22.5q-23 -1 -50.5 -13.5t-48.5 -22.5q-2 17 -1 50.5t3 72.5q1 13 2 34.5t2.5 44t2 44t0.5 36.5q-8 8 -23 10t-30.5 0t-30.5 -6.5t-23 -9.5q-1 -17 0 -33 t-1 -33q-2 -35 -3 -70.5t-1 -70.5l-1 -1v-4q0 -52 -3 -103.5t-4.5 -103t-1 -103t8.5 -103.5q20 -11 41.5 -11.5t42.5 -0.5zM65 411l1 1v4q0 35 1 71.5t3 71.5q1 14 0.5 28t0.5 28q6 3 15.5 5t19.5 3t18 1q9 0 14 -1q0 -26 -3 -68.5t-5 -87t-1.5 -84t7.5 -59.5q16 7 31.5 14 t30.5 14q51 22 93 13.5t71.5 -37.5t43.5 -71.5t8 -87t-34 -85t-83 -65.5q-15 -7 -37.5 -8.5t-46 1.5t-45 10t-35.5 16q-5 -6 -10.5 -13t-8.5 -15q-12 0 -26 0.5t-25 4.5q-7 49 -7.5 98.5t1.5 99t5 99t3 99.5zM146 183q0 36 6 72q7 4 18 9q22 9 51 17.5t54.5 6t43.5 -19.5 t18 -58q0 -33 -21 -62q-14 -20 -42 -34t-56.5 -20.5t-50 -4t-21.5 16.5q0 20 -0.5 38.5t0.5 38.5zM126 183q-1 -19 -0.5 -38t0.5 -39q0 -16 10.5 -24t24.5 -11t29.5 -1.5t25.5 3.5q27 5 52 16t45 28t32 40t12 53q0 42 -16.5 64t-41.5 29.5t-55 3.5t-57 -15q-15 -6 -28 -11 t-25 -16q-4 -20 -6 -40.5t-2 -41.5z" />
<glyph unicode="c" horiz-adv-x="435" d="M378 318q7 19 9 40t-10 40q-21 10 -41 13t-43 2q-69 -2 -120.5 -28t-84.5 -66t-48.5 -88t-13 -94t22.5 -84.5t57.5 -59t93 -18.5t127.5 38q12 6 26.5 15t28 20t24.5 24t15 27q-1 26 -11 40.5t-34 25.5q-16 -15 -34 -29.5t-38 -26t-41.5 -18.5t-44.5 -7q-37 0 -58 15 t-28 38t-1 50.5t23 51.5t43.5 42t60.5 23q12 -3 24.5 -1.5t24.5 -1.5q9 1 19.5 -2t20 -4t18 3t13.5 20zM360 324q-3 -8 -8.5 -9t-12.5 0.5t-15.5 4t-15.5 1.5q-12 2 -24.5 0.5t-23.5 2.5q-42 -5 -73.5 -26t-50.5 -50t-25 -61.5t3.5 -59.5t35 -45t68.5 -18q48 0 88.5 24 t73.5 53q19 -11 21 -40q-4 -9 -13.5 -19.5t-21.5 -20t-24.5 -17.5t-22.5 -13q-67 -33 -117.5 -35t-84.5 16.5t-52 53.5t-19.5 76.5t13 85.5t45.5 80t78 59.5t111 25.5q19 1 36.5 -1t33.5 -10q6 -11 4 -26.5t-7 -31.5z" />
<glyph unicode="d" horiz-adv-x="468" d="M399 15q5 2 9 3.5t9 3.5q7 40 8.5 80t0.5 79.5t-2.5 79.5t-1.5 80q0 36 2.5 81t3.5 90.5t-0.5 89t-9.5 77.5q-23 3 -45.5 2.5t-45.5 -1.5q3 -25 0 -50q-5 -34 -5 -68q0 -33 -1 -67q0 -20 1 -40t-1 -40q-62 22 -121.5 5t-106.5 -63q-46 -45 -63 -96t-11 -97.5t32 -84 t66.5 -56t92.5 -14.5t109 42q1 -7 1 -14t2 -14q3 -12 12 -15.5t21 -3t24 4t20 6.5zM393 34q-4 -1 -11 -3t-14.5 -3.5t-14.5 -2.5t-10 0q-2 2 -3 10.5t-1.5 19t-1.5 20t-1 12.5l-14 -10q-54 -39 -103 -46.5t-87 8.5t-62.5 49.5t-30.5 76.5t10 89.5t58 88.5q35 34 82 52.5 t95 9.5q14 -2 26.5 -6.5t26.5 -9.5q3 15 4 29.5t1 30.5q-1 45 -1 89q0 45 6 90q1 8 1.5 16t0.5 16q13 1 26 1.5t27 -0.5q5 -26 5.5 -65.5t-0.5 -84.5q-2 -48 -3.5 -94t-1.5 -76q0 -77 4.5 -153t-7.5 -152q-4 -2 -6 -2zM269 326q13 1 24 -0.5t21 -7.5q3 -14 4.5 -35.5t1 -45 t-2.5 -44.5t-6 -34q-2 -7 -17.5 -16t-36.5 -15.5t-45.5 -8.5t-44.5 4.5t-32.5 24.5t-9.5 51q2 27 14.5 49.5t32.5 39.5t45 26.5t52 11.5zM267 346q-29 -2 -57 -13t-50.5 -29.5t-37.5 -45t-17 -57.5q-3 -40 12 -62t38.5 -32t52.5 -8.5t55 9t45 20t23 25.5q4 15 6.5 39t2.5 49 q0 26 -2 50t-6 39q-16 11 -31 14t-34 2z" />
<glyph unicode="e" horiz-adv-x="481" d="M133 161q21 0 56 1t73 4t72.5 8t54.5 14q13 6 20 18.5t10 28t2.5 31.5t-1.5 28q-4 44 -23 75t-47.5 49t-64 23t-72 -3t-71.5 -29t-62 -54q-28 -34 -43.5 -75.5t-15.5 -86.5q0 -81 35.5 -132.5t90 -74t119.5 -14.5t125 46q13 8 30.5 24.5t23.5 29.5q-10 19 -24 40 q-8 11 -15 21t-21 13q-12 -13 -24.5 -26t-26.5 -23t-30 -17t-36 -8q-21 -2 -43.5 2t-41 13t-32 24t-17.5 36q-1 5 -1.5 8t0.5 6zM390 121l1 -1q17 -23 31 -48q-6 -8 -20 -20.5t-21 -17.5q-57 -36 -117.5 -43t-110 13.5t-81 68t-31.5 120.5q0 41 14.5 79.5t40.5 70.5 q27 33 65 54t78.5 25.5t77.5 -9.5t62 -53q9 -15 14.5 -34t7 -39t-1 -39.5t-9.5 -35.5q-3 -7 -22 -11.5t-46.5 -8t-59 -5.5t-60 -3.5t-49 -2t-26.5 -0.5l-12 -8q-2 -9 -2.5 -15t1.5 -15q5 -27 22 -45.5t39.5 -29t47.5 -14.5t47 -2q40 3 68 23t52 46zM330 268q0 -6 -2 -10 q-10 -2 -39.5 -4t-61.5 -3.5t-58 -2.5t-28 0q-3 0 -5 2q5 33 22 55.5t39 34.5t46.5 13t44.5 -8t32 -28.5t10 -48.5zM350 266q3 36 -12 60.5t-39.5 36t-54.5 10t-57.5 -16t-47.5 -42.5t-24 -71q5 -6 8.5 -9.5t11.5 -5.5q3 -1 18.5 -0.5t37 1.5t46 2.5t46 3t37 3t18.5 2.5 q7 6 9 12t3 14z" />
<glyph unicode="f" horiz-adv-x="331" d="M255 326q20 0 39 1.5t39 6.5q4 7 5.5 20.5t0.5 27.5t-4 27t-9 19q-32 5 -65 5q-32 0 -65 -2q1 16 3.5 36.5t7.5 40.5t14 37t25 26q3 2 13 5.5t20.5 6t19 1t8.5 -8.5l10 -20t19 -10t28.5 3t28.5 6q8 14 10 24t-3 24q-11 27 -23 43t-27.5 24t-35.5 9t-47 0q-52 -3 -85 -27 t-52.5 -60t-28 -79t-10.5 -83q-9 0 -20.5 -0.5t-23.5 -3t-22 -6.5t-15 -12q-1 -23 0 -45t19 -40h4q14 0 28 0.5t28 0.5q0 -29 -2.5 -75t-3.5 -94t0 -91t7 -67q11 -2 22.5 -4.5t22.5 -4.5q13 -2 26.5 0t27.5 2q0 14 1.5 28t1.5 28q0 70 -1 140t1 140q14 1 30 0.5t33 0.5z M255 346q-21 -1 -41.5 -0.5t-41.5 -0.5q-2 -76 -1 -150.5t1 -149.5q0 -9 -1 -18t-2 -19l-12 -1q-15 -2 -26 1t-25 6q-3 20 -3.5 60t1.5 88q2 51 3.5 98.5t1.5 72.5v10h-10q-15 0 -30.5 -0.5t-30.5 -0.5q-8 11 -8.5 28t0.5 30q6 3 16.5 5t22.5 2.5t23 1t18 0.5q1 35 7 77 t22.5 79.5t46.5 63.5t81 29q22 1 38 0.5t29 -5t23 -15.5t19 -31q4 -9 7 -17t-2 -18q-11 -2 -22.5 -4.5t-22.5 -2.5q-4 1 -5.5 6t-3.5 8q-2 17 -16 21.5t-28 2.5q-39 -5 -60 -24.5t-30.5 -47t-12.5 -59.5t-6 -63q35 2 70.5 4t70.5 -3q1 -4 2 -11.5t1.5 -16.5t0.5 -18 q0 -8 -1 -13q-28 -5 -63 -5z" />
<glyph unicode="g" horiz-adv-x="476" d="M331 221q-5 -23 -11.5 -43t-11.5 -31q-40 -27 -71.5 -33.5t-54.5 1t-36.5 26t-16.5 42.5t5 50.5t28 48.5q16 18 38.5 28.5t46 12t45.5 -6t37 -26.5q6 -8 6.5 -26t-4.5 -43zM350 217q5 23 5.5 47.5t-10.5 37.5q-20 24 -46 33.5t-54 7t-53.5 -14.5t-43.5 -32 q-24 -27 -33 -58t-4.5 -59.5t21 -51t44 -32t65 -2t83.5 39.5q9 18 15.5 41.5t10.5 42.5zM425 128q2 21 2.5 41.5t1.5 40.5q2 50 4.5 99t7.5 98l-44 9q-11 9 -23 9q-11 0 -22 -5l-9 -26q-24 12 -50 21.5t-54 9.5q-62 0 -105.5 -24.5t-69.5 -63t-35 -85t-2 -91.5t29 -82.5 t59 -57.5t87.5 -16.5t114.5 40.5q1 -8 1.5 -14.5t0.5 -14.5q0 -60 -24.5 -95.5t-85.5 -40.5q-20 -2 -37 5t-31.5 18.5t-26.5 26t-22 28.5q-17 -17 -36 -31t-31 -35q11 -28 39 -52.5t55 -35.5q29 -11 61.5 -14.5t65 1t62 18t53.5 36.5q21 20 37 57t25 78.5t10 81.5t-8 66z M406 122q3 -33 2.5 -69.5t-6.5 -72t-19 -67.5t-36 -54q-21 -20 -48 -32t-56 -16.5t-59 -1.5t-57 13q-11 4 -22.5 11.5t-23 17t-20.5 19.5t-14 20q8 12 20 21t23 18q10 -14 22.5 -27t27.5 -23t32.5 -15.5t38.5 -3.5q71 7 99.5 49t28.5 107q0 16 -1.5 31.5t-2.5 31.5 q-20 -12 -43.5 -26t-48.5 -23t-50 -10.5t-49 10.5q-45 23 -69 59.5t-29.5 78t6 84t37 76.5t64 55.5t86.5 21.5q31 0 59.5 -12.5t54.5 -26.5l15 39q10 2 19 -7l32 -7q-3 -45 -5.5 -89.5t-4.5 -89.5q-1 -22 -1.5 -43t-2.5 -43l1 -2v-2z" />
<glyph unicode="h" horiz-adv-x="436" d="M344 5q11 2 21.5 3.5t21.5 2.5q14 26 16 54t3 57q1 51 -0.5 104t-21.5 101q-20 47 -50 66t-64 18t-68.5 -19t-61.5 -44q-2 68 -1 134.5t1 133.5q0 17 -1 30.5t-5 29.5q-11 2 -23 5t-23 0q-16 -2 -25.5 -3t-14 -4.5t-5.5 -11t-1 -23.5q0 -57 1.5 -112t1.5 -111 q0 -101 -1 -201t-1 -201v-2q5 -13 17 -18t26.5 -6t29.5 0.5t26 1.5v10v114q0 58 14 114q6 25 26 45t43 25.5t43 -9t28 -57.5q5 -27 5.5 -54t-1 -54t-4 -54.5t-2.5 -54.5q14 -7 24.5 -9.5t25.5 -0.5zM63 658q7 2 14 2t15 1q6 2 12.5 1t12.5 -3q2 -10 2.5 -21t0.5 -22 q0 -80 -0.5 -159t2.5 -159q21 24 53.5 50.5t67.5 37.5t68 -1.5t55 -65.5q9 -22 13.5 -46t6.5 -50q1 -14 1.5 -40.5t-0.5 -55.5t-4 -56t-9 -41q-14 -2 -29.5 -5t-30.5 2q2 52 6.5 104.5t-4.5 104.5q-9 51 -35 69.5t-55.5 13.5t-55 -29t-34.5 -58q-14 -54 -14 -111v-112 q-5 0 -13.5 -1t-17.5 -0.5t-17 2t-11 6.5q0 101 1 200.5t1 199.5q0 56 -1.5 111t-1.5 112v17z" />
<glyph unicode="i" horiz-adv-x="198" d="M108 447q23 3 38 19t19 36t-3.5 40.5t-29.5 32.5q-24 13 -44 7.5t-33.5 -21.5t-18.5 -37.5t0 -40t22.5 -30t49.5 -6.5zM106 467q-20 -3 -34 8t-18.5 27t3.5 33.5t32 26.5q19 7 34.5 -5.5t20.5 -31t-3 -36.5t-35 -22zM106 387q-13 2 -26 1t-27 -1q-2 -14 -3 -28t-1 -28 q-1 -80 -3.5 -159t-2.5 -159v-9q9 -1 26 -3t34 -1t30.5 6t17.5 18q2 9 3.5 36.5t2 64.5t0.5 79t-1 78.5t-2 63t-3 34.5q-11 2 -22.5 3.5t-22.5 3.5zM103 367q6 -1 12.5 -2t18.5 -3q1 -13 2 -41t1 -63t-0.5 -73t-1 -71t-1.5 -56t-3 -28q-2 -6 -11.5 -8t-21.5 -2 q-11 0 -21.5 1t-13.5 1q0 78 2.5 154.5t3.5 154.5q0 9 0.5 18t1.5 18q14 1 20 1q7 0 12 -1z" />
<glyph unicode="j" horiz-adv-x="262" d="M153 447q23 3 38 19t19 36t-3.5 40.5t-29.5 32.5q-24 13 -44 7.5t-33.5 -21.5t-18.5 -37.5t0 -40t22.5 -30t49.5 -6.5zM151 467q-20 -3 -34 8t-18.5 27t3.5 33.5t32 26.5q19 7 34.5 -5.5t20.5 -31t-3 -36.5t-35 -22zM-74 -172q-17 -2 -33 -6q-9 -14 -10.5 -24t3.5 -24 q11 -27 23 -43t28 -24t36 -10t47 0q26 2 46.5 8t42.5 24q35 29 53 67t26 80t8.5 86t1.5 85q0 10 0.5 28t1.5 40.5t1.5 48t0.5 51.5q0 12 0.5 34t0 46.5t-2 47.5t-4.5 37q-11 2 -22.5 4.5t-22.5 4.5q-13 2 -26.5 0t-27.5 -2q-1 -37 -2 -73t-1 -72q0 -86 1 -171t-10 -171 q-4 -29 -13 -55.5t-32 -39.5q-3 -2 -13 -5.5t-20.5 -5.5t-19 -1t-8.5 8q-4 10 -9.5 20t-19.5 10q-12 0 -24 -3zM-71 -191q5 1 10.5 1.5t11.5 0.5q3 -2 4.5 -6.5t3.5 -7.5q1 -17 15.5 -21.5t28.5 -2.5q27 3 45 13.5t29.5 26.5t18 37.5t9.5 47.5q11 86 10 171.5t-1 172.5 q0 32 1 63t2 63l12 1q15 2 25.5 -1t24.5 -6q3 -18 3.5 -58t-0.5 -88q-1 -52 -2 -99.5t-2 -69.5q-1 -38 -1.5 -79.5t-7 -82t-23 -77t-49.5 -63.5q-19 -16 -36 -21t-43 -7q-21 -1 -37.5 -0.5t-29 5.5t-22.5 16t-19 31q-4 9 -7 17t2 18q5 1 11 2t13 3z" />
<glyph unicode="k" horiz-adv-x="458" d="M346 172q-23 26 -42 50t-28 43q10 9 31 27t42.5 38.5t39.5 38.5t21 27q-2 7 -6.5 16t-11.5 18t-15 15t-16 7q-11 1 -28 -9.5t-35 -24.5t-33 -27.5t-21 -18.5q-23 -20 -46.5 -41.5t-49.5 -38.5q0 20 1.5 52.5t2.5 71t2 78.5t0.5 76.5t-2.5 65.5t-6 45q-14 13 -25.5 14 t-28.5 0l-34 -15q-8 -60 -10.5 -118t-3.5 -119q-2 -66 -2 -131q0 -64 2 -130q2 -40 -1.5 -78.5t3.5 -77.5q9 -12 18 -14t23 -4q12 -2 23.5 -3.5t20.5 1.5t14 12t5 29q-1 27 -1.5 53.5t-1.5 53.5q5 11 16 19t23 13q27 -13 51.5 -43.5t49.5 -61.5t51.5 -54.5t56.5 -23.5 q6 0 10.5 2t9.5 4q13 7 25 15.5t18 22.5q-3 5 -6 9t-7 8l-50 54t-49 54zM331 159q25 -28 49.5 -54t40.5 -44q3 -4 7 -7.5t7 -7.5q-2 -2 -7.5 -6t-12 -8t-12 -6.5t-8.5 -2.5q-16 0 -32.5 11.5t-33.5 29t-34 39.5t-35 42.5t-36.5 37.5t-37.5 25q-18 -7 -34.5 -18.5 t-24.5 -31.5l3 -111q0 -15 -2.5 -18.5t-4.5 -3.5q-3 -1 -11.5 -0.5t-18.5 2t-18.5 3.5t-10.5 4q-5 37 -1.5 74t1.5 74q-2 66 -2 130q0 65 2 131q1 56 3 111.5t9 111.5l20 9h16q9 0 16 -5q5 -20 5.5 -71.5t-0.5 -113.5q-1 -32 -2 -63.5t-1.5 -59t-1 -50.5t-0.5 -37v-14l13 4 q12 4 30.5 18t40 32.5t44.5 39.5t43.5 38.5t36.5 28.5t23 10q6 -1 16 -12.5t14 -21.5q-5 -6 -21 -21.5t-37 -35.5q-20 -18 -39.5 -35.5t-39.5 -35.5q12 -30 35 -59t44 -52z" />
<glyph unicode="l" horiz-adv-x="205" d="M48 99q-1 -20 -0.5 -40t3.5 -40q10 -13 19 -14t22 -3t24.5 -3.5t20.5 1.5t14 12t5 29q0 69 -1 137t-1 137q0 81 1.5 162.5t1.5 162.5q0 17 -6 34q-13 14 -25 14.5t-28 -0.5l-34 -15q-11 -85 -13 -165.5t-3 -165.5q-1 -61 0.5 -121.5t-0.5 -121.5zM68 99q2 61 0.5 121.5 t-0.5 121.5q1 80 2.5 159t11.5 158l20 9q8 1 16 1q9 0 15 -6q4 -9 4 -23q0 -81 -1.5 -162.5t-1.5 -162.5q0 -69 1 -137t1 -137q0 -15 -2.5 -18.5t-4.5 -4.5q-2 0 -11 0.5t-19 2t-18.5 3t-10.5 3.5q-2 18 -2.5 36t0.5 36z" />
<glyph unicode="m" horiz-adv-x="646" d="M359 358q-20 42 -47.5 57.5t-57.5 12.5t-59.5 -20.5t-54.5 -42.5q-2 17 -4.5 32.5t-6.5 31.5q-9 2 -19 3.5t-18 -2.5q-13 -2 -21.5 -2.5t-13.5 -3t-8 -9t-4 -19.5q-8 -88 -5 -182.5t3 -182.5v-2q5 -13 17 -18t26.5 -5.5t29.5 1t26 1.5v10v114t14 113q6 27 23 47 t36.5 24.5t36.5 -10.5t24 -56q5 -29 5.5 -58.5t-1 -59t-4 -59t-2.5 -58.5q15 -8 25.5 -9.5t21 -0.5t21 3t25.5 3q13 25 16 55t4 62t5 65t20 65q13 27 28.5 40t29 12t24.5 -16t16 -44t5.5 -58.5t-1 -59t-4 -59t-2.5 -58.5q19 -10 28.5 -13.5t16.5 -3.5q8 0 17.5 2.5t28.5 3.5 q7 13 11 30.5t6.5 36t3.5 36.5t1 32q1 51 -0.5 104t-21.5 101q-21 49 -51 68t-63 16t-66 -22.5t-60 -47.5zM346 339v-26q21 24 52 51t64 38.5t64.5 -0.5t54.5 -66q9 -22 13.5 -46t6.5 -50q1 -18 1 -49q0 -30 -1.5 -62t-5 -61t-9.5 -45q-12 -1 -18 -2.5t-11 -2t-11 1t-18 7.5 q1 28 3 56.5t3.5 57t1 57t-5.5 56.5q-7 40 -23.5 58.5t-36.5 18t-40.5 -17.5t-35.5 -46q-15 -31 -20.5 -63.5t-6.5 -64.5q0 -11 -0.5 -25.5t-2 -29.5t-4 -29.5t-6.5 -24.5q-15 -2 -30 -5t-30 2q0 15 3 45.5t4 67t-1 74t-11.5 67t-27 45.5t-47.5 10q-27 -6 -44.5 -25.5 t-27.5 -47t-14.5 -60t-5.5 -65t-0.5 -62t0.5 -49.5q-5 0 -13.5 -1t-18.5 -1q-9 0 -16.5 1.5t-10.5 6.5q0 86 -2 171t3 170q0 15 3 32v1q8 2 15 2q8 0 16 1q4 2 7 2q4 0 8 -1q5 -23 6.5 -47t2.5 -48q21 23 50 49t60.5 37.5t61.5 0t52 -63.5z" />
<glyph unicode="n" horiz-adv-x="434" d="M339 -3q11 2 21.5 4t21.5 4q7 12 10.5 28.5t5.5 33.5t3 34t1 31q1 51 -0.5 104t-21.5 101t-50.5 67t-64.5 17.5t-68.5 -20t-61.5 -44.5q-2 14 -4.5 26t-6.5 24q-7 1 -17.5 1.5t-21.5 -0.5t-20.5 -2.5t-15.5 -5.5q-5 -3 -6.5 -11.5t-2.5 -13.5q-4 -43 -4 -87t0.5 -89 t1.5 -89.5t0 -87.5q6 -13 18 -18t26 -6t29 0.5t26 1.5v10q0 57 0.5 114.5t14.5 113.5q6 25 26 45t42.5 25.5t42.5 -9t28 -57.5q5 -29 5.5 -58t-1 -58.5t-3.5 -59t-3 -58.5q13 -8 24 -10.5t26 -0.5zM62 385q7 2 21 3t25 1q8 -29 8 -55v-26q14 16 33.5 33.5t42 32t46.5 22.5 t46.5 5t42.5 -19.5t35 -52.5q9 -22 13.5 -46t6.5 -50q1 -17 1 -47q0 -29 -1 -60.5t-4 -60t-9 -42.5q-15 -2 -30 -6t-30 3q1 28 3 56.5t3.5 56.5t1 56.5t-5.5 56.5q-9 51 -35 69.5t-55 13.5t-54.5 -29t-34.5 -58q-14 -54 -14.5 -110t-0.5 -113q-5 0 -13.5 -1t-17.5 -0.5 t-17 2t-11 6.5q2 82 -1 164t2 164q0 15 3 30v1z" />
<glyph unicode="o" horiz-adv-x="479" d="M458 215q3 44 -8.5 87t-38 76t-69 51.5t-101.5 15.5q-50 -3 -93.5 -31t-74 -70.5t-45 -94t-6 -100.5t43 -90.5t101.5 -64.5q21 -8 48 -10q57 -3 100.5 16.5t74.5 52.5t48 75.5t20 86.5zM438 216q-3 -41 -18.5 -80.5t-44 -69.5t-68.5 -47t-92 -15q-19 1 -42 8 q-62 21 -93 59t-38 83t6.5 92t41.5 86t68 65t85 28q52 3 90.5 -14t62.5 -46.5t34.5 -68.5t7.5 -80zM131 241q14 41 36 65t47 33.5t50 6t45 -17t32.5 -35.5t12.5 -50q0 -36 -17 -66.5t-43 -51t-55.5 -29t-55.5 -0.5t-43 34t-17 75q0 9 3 18t5 18zM113 247q-4 -10 -7 -20.5 t-3 -21.5q0 -55 20 -85.5t50 -40.5t65.5 -2t65.5 30.5t50 57.5t20 78q0 36 -15 62.5t-39 41.5t-54 18t-59 -8.5t-54 -38.5t-40 -71z" />
<glyph unicode="p" horiz-adv-x="478" d="M145 15q8 -4 12 -5q24 -11 53 -9t56.5 12t52.5 24.5t42 28.5q42 35 65.5 75.5t23.5 96.5q0 77 -54 131q-14 15 -27.5 23t-27.5 13t-29 8.5t-33 9.5q-21 -4 -37 -7t-30.5 -7.5t-28.5 -12.5t-32 -22q0 11 1 21.5t1 21.5v9q-29 3 -58 1t-56 -13q-1 -15 0.5 -29.5t1.5 -29.5 q0 -27 0.5 -53.5t0.5 -53.5v-424v-4q0 -7 7 -16q17 -6 26.5 -9.5t18 -4.5t19.5 2t31 9l-3 97q-1 29 1 58.5t3 58.5zM62 -179v1v2v424q0 27 -0.5 53.5t-0.5 53.5q0 11 -1 22.5t-1 22.5q15 5 36 7t38 1q-2 -24 -1 -38.5t7 -38.5q13 17 25.5 27.5t31.5 21.5q20 11 40 15t41 8 q18 -6 32 -9t26 -8q22 -8 39.5 -24t30 -36t19 -43t6.5 -45q0 -51 -21.5 -87.5t-59.5 -68.5q-15 -13 -38 -26.5t-48.5 -23t-52 -11.5t-48.5 9q-3 0 -5 1q-6 3 -8.5 4.5t-5.5 3t-7 2t-11 1.5v-11q0 -33 -2.5 -66.5t-1.5 -66.5l3 -83q-12 -4 -19 -5t-13 0t-12.5 4t-17.5 7z M205 114q-32 -8 -57 3q-2 32 -2 66t5 66q4 27 20 41.5t37.5 20t45 2t44 -13t33.5 -23.5t13 -31q0 -30 -11.5 -52t-30.5 -37.5t-44 -25.5t-53 -16zM209 94q28 7 56 18t50 28.5t35.5 43t13.5 61.5q0 43 -28 62.5t-65 21.5t-73.5 -9.5t-53.5 -30.5q-9 -10 -12.5 -36t-4.5 -55.5 t0 -56t3 -37.5q20 -11 38.5 -13t40.5 3z" />
<glyph unicode="q" horiz-adv-x="481" d="M399 -183q6 -1 12 -0.5t12 1.5q1 22 0.5 44t-0.5 44q-1 131 4 258.5t15 258.5l-44 10q-11 8 -23 8q-11 0 -22 -5q-1 -10 -5 -19l-3 -6q-24 12 -50 21t-55 9q-50 0 -92.5 -25t-73 -64.5t-45.5 -87.5t-9.5 -94t34 -84t85.5 -58q24 -9 47 -9q24 0 47 5.5t44.5 15.5t41.5 22 q2 -59 -1 -116.5t-3 -116.5v-7q8 -3 13 -3.5t9 -0.5q5 0 9.5 0.5t12.5 0.5q10 2 19.5 0.5t20.5 -2.5zM400 -163q-11 1 -21.5 2t-21.5 0q-5 0 -10.5 -1t-11.5 -1q1 66 3.5 129.5t-1.5 129.5q-21 -12 -43.5 -25t-47 -21.5t-50 -10.5t-51.5 7q-47 17 -72 51t-31 76t6 86 t38.5 80t65.5 59t88 23q32 0 60.5 -12t55.5 -26q3 10 7.5 19t7.5 19q9 1 18 -6l31 -8q-9 -126 -13.5 -250.5t-3.5 -250.5q0 -17 0.5 -34.5t-0.5 -34.5h-3zM332 238q-5 -23 -11 -43t-11 -31q-29 -20 -63.5 -29t-63.5 -4q-30 6 -42 26.5t-12 46.5t10 52t24 42q16 18 38.5 29 t45.5 12.5t45 -6.5t38 -27q6 -6 6.5 -24.5t-4.5 -43.5zM352 234q4 23 4.5 47.5t-10.5 38.5q-20 23 -46.5 32.5t-54 7t-53 -14.5t-43.5 -33q-16 -17 -24.5 -38.5t-12.5 -42.5q-7 -38 0.5 -62.5t24.5 -38.5t41 -18t50 0t51.5 14t46.5 24q9 18 15.5 41.5t10.5 42.5z" />
<glyph unicode="r" horiz-adv-x="356" d="M152 366v6q-1 8 -2 15t-3 14q-6 21 -17 30t-24.5 11t-28.5 0.5t-30 -1.5q-2 -14 -3 -28t-1 -28q0 -97 -1.5 -192.5t-1.5 -192.5v-9q9 -1 25.5 -3t33.5 -1.5t31 6t18 18.5q4 12 4.5 40t0.5 59q0 30 -0.5 58t-0.5 44q9 19 24.5 41t34 41t39 32.5t40.5 15.5q12 2 24.5 0.5 t25.5 -0.5q4 9 7.5 20.5t4.5 23.5t-1.5 23t-9.5 19q-33 5 -58 4t-46.5 -8.5t-41.5 -21.5t-43 -36zM288 362q-25 -2 -49 -18t-44.5 -38t-37 -46.5t-25.5 -43.5v-2q0 -14 0.5 -43t0.5 -61t-1 -58t-4 -35q-2 -5 -11 -7t-20.5 -2.5t-22 0.5t-14.5 1q0 94 1.5 188t1.5 188 q0 9 0.5 18t1.5 19q4 0 7 0.5t7 0.5q22 2 33 -6t15.5 -21.5t4.5 -30.5q0 -16 1 -31h15q23 22 41.5 38.5t39 26.5t44.5 13t57 -2q4 -9 1.5 -24.5t-5.5 -23.5q-10 -1 -19 0t-19 0z" />
<glyph unicode="s" horiz-adv-x="424" d="M30 84q-4 -14 -6.5 -27t-6.5 -27q33 -18 66.5 -31.5t72.5 -15.5q21 -1 49.5 1.5t57.5 9.5t56.5 19t47.5 31t30 44.5t4 59.5q-4 20 -9 33t-23 27q-20 16 -53.5 24.5t-66.5 16t-59 17t-30 27.5q12 23 34 35t48 16t52.5 3t47.5 -4q16 -2 22 -1t8.5 5.5t3 12.5t4.5 19l1 2 q4 14 8.5 22t-1.5 26q-19 10 -51.5 14.5t-69.5 2t-75 -12.5t-68.5 -28.5t-50 -46.5t-19.5 -66q0 -39 17 -62.5t42.5 -37t55 -20t56 -12t44.5 -13.5t20 -23t-14 -24.5t-37.5 -14.5t-43 -6.5t-30.5 -1.5q-15 0 -29 6t-27 15t-25.5 19t-23.5 19q-12 -13 -18 -24t-11 -28z M356 362q-8 0 -12 1q-26 3 -56 4t-58.5 -5t-52.5 -21.5t-37 -44.5q2 -19 15.5 -31.5t33 -20.5t43.5 -13t47.5 -10t44 -11.5t33.5 -17.5q14 -11 17.5 -20t6.5 -28q5 -27 -3 -48.5t-25.5 -37.5t-41.5 -27t-50.5 -17.5t-54 -9t-50.5 -1.5q-31 2 -59 12t-56 25q4 17 7.5 36 t13.5 33q23 -18 47 -34.5t55 -17.5q14 0 39.5 2t50 9.5t41.5 21t14 36.5q-3 22 -21.5 33t-44.5 17.5t-56 12t-55 17t-41.5 31.5t-16.5 55q0 27 15.5 50t41 40.5t58 29t65.5 16t63.5 1.5t53.5 -14q0 -5 -3 -12.5t-5 -13.5q-4 -6 -4.5 -13.5t-2.5 -13.5z" />
<glyph unicode="t" horiz-adv-x="372" d="M258 326q19 0 37.5 1.5t36.5 6.5q5 7 6.5 20t1 27.5t-3.5 27.5t-8 19q-17 3 -35 4t-36 1q-14 0 -27.5 -0.5t-27.5 -1.5q2 48 4.5 94.5t1.5 94.5h-29t-21 -1.5t-21 -3.5t-28 -5q-13 -43 -12.5 -89t-1.5 -91q-8 0 -20 -0.5t-24 -2t-22.5 -5.5t-16.5 -11q-2 -23 -1 -45.5 t18 -41.5h4h29q15 0 30 1q0 -16 -0.5 -31t-1.5 -31q-2 -38 -3.5 -69t4 -59.5t21.5 -55t51 -54.5q22 -17 42 -22t46 -6q25 -1 42 1t29.5 9.5t23 21.5t22.5 38q-3 11 -11.5 22t-20 18t-24.5 8t-26 -7q-16 -10 -26 -11.5t-26 7.5q-23 12 -32 26.5t-8 39.5l2 78l2 78h60z M258 346h-80q-1 -45 -2 -88t-2 -88q-1 -31 11.5 -50.5t38.5 -33.5q23 -12 38.5 -9t33.5 15q12 7 28.5 -1t21.5 -22q-9 -19 -17.5 -29.5t-18.5 -16t-24 -6.5t-35 0q-24 1 -41 5t-35 19q-21 17 -35 33.5t-21.5 34.5t-10 38.5t-1.5 46.5q1 35 3 70.5t2 70.5v10q-19 0 -37 -0.5 t-37 -0.5q-8 11 -7.5 28t1.5 30q6 3 15.5 4.5t20.5 2.5t21 1h16h10q1 21 0.5 44.5t0 47.5t2.5 47t7 43q17 4 31.5 6.5t31.5 1.5q1 -48 -2 -95t-6 -95q39 3 77 3q30 0 59 -3q1 -5 2 -13t1.5 -17t0.5 -17q0 -7 -1 -11q-26 -6 -61 -6z" />
<glyph unicode="u" horiz-adv-x="445" d="M111 422q-11 -2 -22 -3.5t-22 -3.5q-7 -12 -11.5 -28t-7 -33.5t-4 -34.5t-1.5 -31q-1 -25 -2 -51.5t0 -52.5t5 -52t13 -50q19 -48 49 -67.5t64.5 -18.5t69 18.5t62.5 43.5q1 -13 3.5 -25t5.5 -25q9 -2 18.5 -3.5t18.5 2.5q13 1 21 1q9 0 14.5 2.5t8 9t4.5 19.5 q11 85 10.5 176t1.5 177q-5 13 -17 18.5t-26.5 6.5t-29.5 -0.5t-26 -1.5q1 -57 -1.5 -118.5t-18.5 -117.5q-7 -24 -27.5 -44t-43.5 -25.5t-43 8t-26 57.5q-8 59 -1 118t10 118q-13 7 -24 10t-25 1zM376 30q-8 -2 -16 -2t-16 -1q-4 -2 -7 -2t-8 1q-6 27 -6 55v26 q-14 -16 -34 -33t-42.5 -31t-46.5 -22t-47 -4.5t-42.5 20.5t-33.5 53q-8 22 -11.5 46t-4.5 50q-1 17 -0.5 47t2.5 61.5t6 59.5t11 43q15 2 29.5 5t30.5 -3q-5 -57 -11 -113t2 -113q7 -52 33 -70.5t55.5 -14t56 28t35.5 56.5q14 53 17.5 111t2.5 112q5 0 13.5 0.5t17.5 0 t17 -2.5t11 -6q-2 -82 -2.5 -164t-7.5 -164q-1 -8 -1.5 -15t-2.5 -15z" />
<glyph unicode="v" horiz-adv-x="420" d="M87 426q-17 1 -28.5 0.5t-21 -4.5t-19 -11.5t-21.5 -19.5q5 -10 8 -24q7 -39 17.5 -82.5t24 -87.5t29 -86t32.5 -78l10 -22t9 -22q24 4 47 1t47 1q29 60 53 121.5t52 122.5q23 48 50 92.5t46 94.5q-16 15 -36.5 26.5t-43.5 3.5q-7 -7 -21.5 -31.5t-32 -58.5t-36 -72.5 t-34.5 -71.5t-26.5 -55.5t-11.5 -26.5q-20 45 -32 91.5t-26 93.5q-8 26 -13.5 52t-15.5 52zM79 407q8 -23 12 -46t11 -46q10 -32 18 -60t16 -55t18.5 -54.5t26.5 -58.5q5 12 17 40t28.5 63.5t35.5 74.5t36.5 73.5t31.5 60t22 35.5q11 2 23.5 -3.5t22.5 -14.5 q-18 -45 -44 -86.5t-46 -86.5q-27 -58 -50.5 -117t-50.5 -117q-17 -2 -33 1t-33 1l-15 30q-34 72 -57.5 152t-40.5 158q-2 9 -3.5 18t-3.5 17q16 15 26.5 19t31.5 2z" />
<glyph unicode="w" horiz-adv-x="577" d="M513 450q-5 -5 -14.5 -22.5t-21.5 -43t-26 -56.5t-28 -61.5t-26 -58.5t-20 -48q-14 60 -23 117t-26 116q-14 2 -25 2.5t-20.5 -1t-20 -4.5t-23.5 -8q-26 -57 -44.5 -114.5t-38.5 -117.5q-15 42 -24.5 85.5t-21.5 87.5q-8 26 -12 52.5t-12 52.5q-18 1 -29 0.5t-20 -4 t-17.5 -11t-20.5 -20.5l6 -24q6 -40 15 -83.5t20.5 -87t25.5 -85.5t30 -79q5 -11 9 -21.5t8 -21.5q21 2 42 0t42 2q11 26 18 51.5t16 51.5q11 29 20 59.5t19 59.5q10 -43 17 -86.5t24 -85.5q5 -11 9 -22l8 -22q22 4 42.5 1t41.5 1q25 59 48.5 117t47.5 117q9 21 21 45t24 49 t22.5 49t15.5 44q-14 15 -34 26.5t-43 3.5zM526 434q9 2 21.5 -3.5t21.5 -14.5q-15 -45 -38 -87t-41 -86q-23 -57 -46 -112t-46 -112q-14 -1 -28 1t-28 1q-3 8 -6.5 15t-6.5 15q-9 23 -15 47.5t-11 50.5q-6 34 -13 66.5t-17 64.5q-17 -44 -31 -88.5t-29 -89.5 q-8 -23 -14.5 -45.5t-15.5 -45.5q-14 -2 -28 0t-28 2q-3 7 -6.5 14t-6.5 15q-31 73 -51.5 152.5t-34.5 157.5q-2 9 -3.5 18t-3.5 18q14 14 22.5 17.5t26.5 2.5q6 -23 10 -45.5t10 -45.5q8 -25 13.5 -50t11.5 -50q8 -32 19 -62.5t24 -61.5q23 69 44.5 138t50.5 135 q17 6 29.5 8.5t29.5 0.5q18 -62 27 -125t26 -125l9 -30q5 14 16 41.5t25.5 61.5t30.5 71.5t31.5 70.5t28 58.5t20.5 35.5z" />
<glyph unicode="x" horiz-adv-x="442" d="M204 285q-25 35 -44 72.5t-41 74.5q-20 -8 -45.5 -19t-41.5 -25q22 -51 46 -90t50 -86q-14 -17 -36 -43.5t-43 -55.5t-37 -57.5t-16 -49.5q7 -3 18.5 -7.5t23.5 -9t24 -7.5t20 -3q14 13 29 33.5t29.5 41.5t28.5 39t28 27q11 -9 20 -20l18 -22q13 -15 29 -27t30 -28 q3 -2 6.5 -4.5t6.5 -4.5q17 -13 35.5 -14.5t35 6t30.5 21.5t22 31q-29 17 -50.5 32.5t-40.5 32.5t-36.5 37.5t-36.5 46.5q9 16 29.5 42.5t44.5 53.5t47 50.5t38 35.5q-6 8 -15.5 17.5t-20.5 17t-23 11.5t-23 3q-9 -6 -21 -18t-24 -25t-22.5 -26t-16.5 -20q-14 -16 -27 -32.5 t-28 -31.5zM56 382q10 5 26.5 13t28.5 13q21 -38 41 -76t46 -73q13 5 20 11.5t16 17.5q12 13 26.5 32t30.5 37.5t31 35t28 25.5q9 0 23 -8.5t24 -17.5q-14 -12 -36.5 -36t-46.5 -52t-44 -54.5t-27 -44.5q19 -26 36 -47t35.5 -39.5t40 -35t48.5 -33.5q-12 -17 -34.5 -26.5 t-37.5 -1.5q-7 4 -12.5 8.5t-11.5 8.5q-10 11 -21 19t-22 18q-17 17 -30.5 35t-33.5 32q-15 -4 -32 -22.5t-34 -41t-32.5 -45t-27.5 -35.5q-14 3 -28.5 9t-28.5 11q4 17 21.5 43t38.5 54t42 53.5t33 40.5q-23 42 -49.5 84.5t-46.5 87.5z" />
<glyph unicode="y" horiz-adv-x="420" d="M149 56q2 -5 3.5 -9t3.5 -9q-7 -22 -21.5 -51.5t-32.5 -59t-37.5 -56t-37.5 -41.5l13 -34q14 -14 27.5 -26t36.5 -12h3q13 8 25.5 25t24.5 37.5t23 40t19 33.5q48 81 83.5 168t72.5 174q20 45 40 86.5t35 89.5q-4 16 -16 24t-27.5 9.5t-31.5 -2t-28 -9.5 q-31 -70 -57.5 -142t-57.5 -142q-24 43 -44 95.5t-31 98.5q-1 4 -3.5 16t-6 24.5t-7 23.5t-7.5 14q-5 3 -19 1.5t-30 -5.5t-31 -7.5t-21 -4.5q5 -38 20.5 -84.5t35.5 -94.5t41.5 -92.5t39.5 -78.5zM101 404q2 -6 3.5 -12.5t3.5 -13.5q18 -73 42 -139t64 -132 q35 77 64.5 155.5t64.5 156.5q6 2 15.5 4t19.5 2q11 0 20 -3t12 -10q-15 -44 -35 -85t-38 -83q-37 -87 -72 -173t-84 -167q-6 -11 -16 -29.5t-21 -37.5t-22.5 -35.5t-20.5 -23.5q-14 1 -24 10.5t-19 19.5l-7 16q17 16 36 43.5t37 57.5t32 60t21 53q-2 7 -4.5 13.5t-5.5 13.5 q-17 33 -37.5 74t-39 84.5t-34 86.5t-22.5 79q17 4 33.5 8.5t33.5 6.5z" />
<glyph unicode="z" horiz-adv-x="408" d="M13 59q-3 -11 -4.5 -18.5t-1 -14.5t2.5 -14.5t6 -18.5q15 -9 25 -7t26 3q32 2 64 1t64 0q46 1 93 -3t93 4q6 12 8 22t1.5 19t-3 19t-4.5 23q-28 8 -57.5 8.5t-59 -1.5t-59 -5t-58.5 -1q22 31 52 67t63 71.5t66 68.5t62 58q6 12 7.5 25.5t-3 26t-14 22t-25.5 12.5 q-10 2 -35.5 3.5t-59 2t-70.5 0t-70.5 -2.5t-58.5 -5t-34 -8l2 -43q-2 -10 2.5 -21.5t6.5 -21.5q14 0 28 2l28 4q39 6 78.5 5t78.5 -5q-12 -15 -33.5 -37.5t-47 -49t-52 -54.5t-49 -54t-38.5 -47.5t-20 -34.5zM33 53q3 10 17.5 29.5t35.5 43.5t45.5 51t48 51.5t42.5 44.5 t29 30q11 12 22 24.5t23 24.5q-51 5 -102 8.5t-102 -4.5q-9 -2 -18 -3.5t-19 -2.5q-2 5 -4 10.5t0 10.5l-2 32q11 3 36 4.5t56 2.5t65 1t64 -0.5t52.5 -1.5t30.5 -3q18 -4 24.5 -20.5t-1.5 -33.5q-33 -29 -69 -64.5t-70.5 -74.5t-66.5 -78.5t-56 -75.5l16 -2q28 -4 58.5 -2 t61 5t59.5 3.5t56 -5.5q3 -13 5 -24.5t-3 -24.5q-42 -6 -85.5 -1.5t-86.5 2.5q-32 -1 -65 0t-65 -1q-7 -1 -16 -2.5t-17 0.5q-5 14 -4.5 22t5.5 24z" />
<glyph unicode="{" horiz-adv-x="317" d="M261 739q7 2 14 3.5t15 3.5q1 12 -1 27.5t-8 27.5t-17 18t-28 1q-38 -12 -61.5 -28t-37 -38.5t-18 -52.5t-2.5 -70q2 -41 5 -84.5t0 -85.5q-1 -11 -8.5 -18.5t-18 -12.5t-22 -8.5t-19.5 -6.5q-11 -4 -15.5 -15.5t-4 -25t5 -25.5t12.5 -16q9 -5 20.5 -8t22 -7.5 t18.5 -11.5t9 -19q2 -42 -0.5 -85.5t-4.5 -84.5q-2 -40 2.5 -70t18 -52.5t37 -38.5t61.5 -28q17 -5 28 1t17 18t8 27.5t1 27.5q-9 2 -21.5 4.5t-24 7t-21 11t-13.5 17.5q-1 3 -1.5 29.5t-0.5 61.5q0 34 0.5 64.5t1.5 39.5q1 19 1.5 37.5t-2.5 36.5t-12 34t-26 29 q17 13 26 29t12 34t2.5 36.5t-1.5 37.5q-1 9 -1.5 39.5t-0.5 64.5q0 35 0.5 61.5t1.5 29.5q6 16 21.5 22.5t29.5 10.5zM256 759q-20 -5 -38 -15t-26 -30q-2 -3 -2.5 -13t-1 -23.5t-0.5 -30.5v-32q0 -35 0.5 -65.5t1.5 -40.5q1 -25 1.5 -44t-5 -34.5t-17.5 -29t-35 -27.5 q23 -14 35 -27.5t17.5 -29t5 -34.5t-1.5 -44q-1 -10 -1.5 -40.5t-0.5 -65.5v-33q0 -16 0.5 -29.5t1 -23.5t2.5 -13q9 -24 32.5 -33.5t46.5 -14.5q0 -6 -1.5 -14t-5 -14t-9 -9.5t-13.5 -0.5q-34 10 -55.5 24t-33 33.5t-15 46.5t-1.5 63q2 42 5 86.5t0 86.5q-2 18 -10 28 t-20 15.5t-25.5 9t-24.5 10.5q-4 2 -5.5 9t-1.5 15t1.5 14.5t3.5 7.5q12 4 26 8.5t26 11.5t20.5 17t9.5 26q3 42 0 86.5t-5 86.5q-2 36 1.5 63t15 46.5t33 33.5t55.5 24q8 3 13.5 -0.5t9 -9.5t5 -14t1.5 -14z" />
<glyph unicode="|" horiz-adv-x="317" d="M99 128q-2 -41 -1 -78t6 -77q14 -3 28 -8.5t29 -7.5q29 -6 47 18q5 198 5 394t5 394q-8 2 -20.5 3t-18.5 6q-18 5 -31 4.5t-27 -17.5q-6 -33 -6 -66v-67q0 -37 -2.5 -74t-2.5 -74q0 -49 -1.5 -97t-3.5 -97h-1v-10q0 -36 -2 -72.5t-3 -73.5zM124 264h1q2 54 3.5 107 t1.5 107q0 37 2.5 74t2.5 74q0 31 -0.5 62t4.5 62q6 7 12 7q7 0 18 -3q7 -5 14 -6t15 -2q-5 -192 -5 -382t-5 -382q-5 -5 -12 -6t-13 1q-11 1 -20.5 5t-20.5 7q-8 69 -3.5 137.5t5.5 137.5z" />
<glyph unicode="}" horiz-adv-x="317" d="M70 759l-15 3q1 6 2.5 13.5t4.5 14t8.5 10t13.5 0.5q34 -10 55.5 -24t33 -34t15 -47t2.5 -63l-4 -76t-2 -76v-11t1 -9q1 -16 9 -26.5t20 -17t26.5 -11t26.5 -8.5q2 -1 3.5 -7.5t1.5 -14.5t-1.5 -15t-5.5 -9t-8 -3.5t-9 -3.5q-21 -6 -33.5 -12t-19 -14t-9 -20t-2.5 -30 q0 -38 2 -76l4 -76q1 -36 -2.5 -63t-15 -47t-33 -34t-55.5 -24q-8 -3 -13.5 0.5t-8.5 10t-4.5 14t-2.5 13.5q23 4 46.5 14t32.5 34q2 6 3 35.5t1.5 64t0 65.5t-1.5 40q-2 24 -2 43t5 35t17 29.5t35 27.5q-23 14 -35 27.5t-17 29.5t-5 35t2 43q1 10 1.5 40.5t0.5 65.5 q0 16 -0.5 32.5t-1 30t-1.5 23.5t-2 13q-8 20 -26 30t-38 15zM66 739q14 -4 29 -10.5t21 -22.5q1 -3 1.5 -29.5t1.5 -61.5q0 -34 -0.5 -64.5t-1.5 -39.5q-1 -19 -1.5 -38t3 -36.5t11.5 -33.5t25 -29q-17 -13 -25 -29t-11.5 -33.5t-3 -36.5t1.5 -38q1 -10 1.5 -40t0.5 -64 q0 -33 -1 -60t-2 -31q-4 -11 -13.5 -17.5t-21.5 -11t-24 -7t-22 -4.5q0 -12 2 -27t8 -27t17 -18.5t28 -1.5q38 12 62 28t37.5 38.5t18 52.5t2.5 69l-4 76t-2 76v10t1 9q0 13 8 20t19 11t22.5 7t20.5 8q7 4 11.5 16t5 25.5t-4 25.5t-14.5 15q-10 4 -20.5 7t-20.5 8 q-11 5 -17 10t-8.5 10.5t-2.5 12.5v17q0 38 2 76l4 76q2 39 -2.5 69t-18 52.5t-37.5 38.5t-62 28q-17 5 -28 -1.5t-17 -18.5t-8 -27t-2 -27q8 -2 15.5 -3.5t15.5 -3.5z" />
<glyph unicode="~" horiz-adv-x="444" d="M405 433q-7 11 -16 15t-22 6q-18 -25 -31.5 -37t-27.5 -13.5t-31 5.5t-42 20q-24 13 -47 21.5t-44.5 9.5t-43.5 -8.5t-45 -32.5q-8 -8 -17 -17.5t-14 -19.5q-6 -11 -2 -21t12 -18t19 -14t19 -9q6 9 13 19t16 19t19 14.5t22 5.5q5 0 15 -3.5t21 -7.5t21.5 -8.5l17.5 -7.5 q36 -17 62.5 -24t49 -2.5t43.5 22.5t46 51q-3 9 -5.5 18t-7.5 17zM388 423q3 -5 4.5 -10.5t3.5 -10.5q-21 -28 -39 -42t-37 -16.5t-41.5 4.5t-53.5 21q-30 14 -51.5 22t-39.5 6.5t-34 -13.5t-35 -39q-10 3 -16 11q-11 11 -7 17.5t12 15.5q26 29 49.5 40t43.5 11 q21 0 40.5 -9t37.5 -19.5t36 -19.5t36 -9.5t37.5 10t41.5 39.5q9 -3 12 -9z" />
<glyph unicode="&#xa1;" horiz-adv-x="238" d="M127 492q26 4 39.5 17t17 30.5t-2 35.5t-17 32t-28 20t-35.5 -1q-26 -9 -38 -33t-10 -48t20 -41t54 -12zM125 512q-20 -3 -34 8.5t-18.5 28t3 33.5t31.5 26q19 7 34.5 -6t21 -31.5t-2 -36.5t-35.5 -22zM124 433q-10 2 -18.5 1t-18.5 -3q-2 -13 -3 -26t-2 -27 q-4 -110 -10.5 -219.5t-11.5 -220.5l-1 -14v-3q-1 -15 7.5 -20.5t21 -5t27.5 5t28 10.5t22 11.5t10 7.5q2 4 2 40q0 35 -1.5 86.5t-3.5 111t-4.5 112.5t-5 92t-4.5 48l-2 6l-16 4t-16 3zM79 -78v2l1 13q5 111 11.5 220.5t10.5 220.5q0 18 3 36q9 1 17.5 -0.5t16.5 -3.5 q2 -16 4.5 -56.5t4.5 -92.5t4.5 -108t3.5 -103t1.5 -79t-0.5 -35q-3 -7 -14 -10.5t-24.5 -5t-25 -1t-14.5 2.5z" />
<glyph unicode="&#xa2;" horiz-adv-x="409" d="M272 -75q1 19 3.5 38t4.5 38q13 4 34 12t43 19t40 24.5t24 28.5q-2 25 -12.5 36.5t-32.5 19.5q-35 -25 -74 -44.5t-84 -19.5q-37 0 -58 11.5t-28 29t-0.5 38.5t23 40t43 32.5t60.5 17.5q12 -2 24.5 -0.5t24.5 -1.5q9 1 19.5 -1.5t20.5 -3t18 2.5t13 17q6 17 9 32.5 t-11 32.5q-23 10 -45 11.5t-47 0.5q2 10 3 19.5t1 20.5l2 2l-6 36q-22 11 -41 11q-18 0 -41 -3q-11 -26 -12 -50t2 -52q-56 -17 -93.5 -47t-57 -66t-20.5 -73t16 -68.5t53 -52.5t91 -24q1 -17 3.5 -34t4.5 -34q11 -2 21.5 -4.5t21.5 -0.5q20 -7 40 2v7zM268 384v-4 q0 -16 -2 -32l-4 -32q25 0 51.5 0.5t50.5 -8.5q5 -8 3 -17q-3 -20 -8 -26t-13 -6q-7 0 -17 3t-22 2q-11 2 -23.5 0.5t-23.5 1.5q-42 -4 -73.5 -21t-50.5 -40t-25 -49t3.5 -48t35 -36.5t68.5 -14.5q46 0 86 18.5t75 43.5q19 -10 22 -30q-6 -12 -25 -24t-41.5 -21.5 t-43.5 -16.5t-31 -10q-1 -21 -3.5 -42t-4.5 -42q-8 -1 -18 4q-10 -3 -14 -2t-13 3q-2 15 -4 30.5t-2 30.5v10h-10q-51 1 -85 19t-50.5 46t-15 61.5t21 66t57.5 60.5t95 44q-3 24 -4.5 49t6.5 49q14 2 26.5 1.5t23.5 -5.5z" />
<glyph unicode="&#xa3;" horiz-adv-x="523" />
<glyph unicode="&#xa5;" horiz-adv-x="559" d="M262 397q-47 68 -85 140t-70 147q-13 3 -27 0t-27.5 -9t-27 -13t-26.5 -11q0 -25 18 -67t42.5 -87t49.5 -86t40 -65h-28q-17 0 -35 -1.5t-34 -6.5t-23 -14q-2 -21 -1 -34t19 -31h151q2 -18 3.5 -36t1.5 -36q-10 0 -35.5 0.5t-54 -1t-53 -6.5t-31.5 -16q-2 -21 -1 -34 t19 -31h155q-2 -25 -1.5 -50.5t2.5 -49.5q1 -11 19 -14t40 -1.5t41.5 7t23.5 10.5q3 4 4 18t1 30q0 17 -1 31.5t-1 19.5q13 0 34 0.5t44 0.5q20 1 40.5 0.5t39.5 3.5q10 2 12.5 13t1 23.5t-5.5 24t-7 15.5q-42 5 -81.5 5.5t-81.5 0.5q1 18 0.5 36t1.5 36h34q23 0 46 1 q20 0 41 -0.5t40 3.5q10 2 12.5 13t1 24.5t-6 25t-7.5 15.5q-29 5 -58 5.5t-58 0.5q29 53 58 105.5t61 103.5q20 29 40.5 57t35.5 60q-12 16 -21.5 26.5t-20.5 17.5t-25 10.5t-34 5.5q-19 -18 -44.5 -56.5t-51 -81.5t-47.5 -83.5t-34 -62.5l-13.5 -27t-14.5 -25zM482 125 l-2 -1q-42 -5 -85 -4t-86 0q2 -24 4.5 -53t-2.5 -53v-1q-4 -3 -15.5 -5t-25.5 -3.5t-28 -1.5q-13 0 -19 2q-3 29 -2.5 57t1.5 57h-167q-8 9 -7.5 17.5t1.5 19.5q10 5 33 7.5t48.5 3t48.5 0.5h34h10v10q0 26 -2 51t-5 51h-161q-8 9 -7.5 17.5t1.5 19.5q7 4 23.5 6t35 3 t34.5 1h25h18q-15 24 -41 66.5t-52.5 89t-47 89t-24.5 66.5q14 7 36.5 18t36.5 12q33 -78 72.5 -151.5t88.5 -142.5h15q7 8 12.5 17t10.5 18q15 29 38 72t48.5 88t50.5 84.5t46 60.5q26 -3 39.5 -11.5t29.5 -30.5q-14 -29 -32.5 -54t-35.5 -51q-38 -58 -70.5 -118.5 t-66.5 -120.5q35 -1 69.5 0t69.5 -4q3 -8 4.5 -21.5t0.5 -18.5l-2 -1q-40 -5 -81 -4t-81 1h-9q-3 -28 -3 -56t-1 -56h10q40 0 81 0.5t81 -4.5q2 -7 3.5 -20t0.5 -18z" />
<glyph unicode="&#xa8;" horiz-adv-x="326" d="M85 725q-21 -3 -33.5 -18.5t-16 -34t3.5 -37.5t25 -30q22 -14 40 -9.5t29.5 19t15.5 35.5t-1 39t-20.5 29t-42.5 7zM89 705q18 3 28 -5t13 -20t0.5 -26.5t-10.5 -24.5t-19.5 -13.5t-26.5 5.5q-12 8 -16.5 21t-2 26.5t11 24t22.5 12.5zM236 725q-21 -3 -34 -18.5 t-16 -34.5t4 -38t25 -30q22 -14 40 -9t29.5 20t15.5 35.5t-1 38.5t-20.5 29t-42.5 7zM240 705q18 3 28 -4.5t13 -20t0 -26.5t-10.5 -24t-19 -13.5t-26.5 5.5q-13 7 -17.5 20.5t-2 26.5t11.5 23.5t23 12.5z" />
<glyph unicode="&#xa9;" horiz-adv-x="570" d="M438 661q-33 20 -73.5 27t-78.5 5q-60 -3 -112.5 -34t-90 -78t-55.5 -104t-8 -111.5t52 -101t124 -71.5q59 -18 120.5 -3t113 51.5t87 89.5t43 111t-20 115.5t-101.5 103.5zM428 643q68 -42 93 -95t17.5 -106.5t-40.5 -102t-81 -82.5t-105 -47.5t-110 3.5 q-57 18 -93 46.5t-53.5 63.5t-18.5 74t11 77t35.5 73t55.5 62.5t70 44.5t79 19q35 2 72.5 -4.5t67.5 -25.5zM109 466q23 60 60 94.5t78.5 48.5t83.5 9t75.5 -25t54.5 -52t21 -73q0 -53 -28.5 -97t-71.5 -73.5t-93.5 -41.5t-93.5 -0.5t-71.5 50t-28.5 108.5q0 13 4.5 26.5 t9.5 25.5zM91 474q-6 -14 -11 -29t-5 -31q0 -77 31.5 -119t79 -56.5t103 -3t103 43t79 80.5t31.5 109q0 49 -24 86t-61.5 58.5t-84 25.5t-92 -12t-85.5 -53t-64 -99zM322 509q21 -2 33.5 -11.5t23.5 -26.5q17 6 24.5 14.5t20.5 17.5v5q0 14 -6.5 24.5t-17 18t-23 12 t-24.5 7.5q-35 8 -62.5 2.5t-58.5 -20.5q-21 -10 -39.5 -28.5t-31.5 -41.5t-18 -48t3 -49q-1 -10 5.5 -21t11.5 -19q13 -22 35.5 -34.5t49 -17.5t54.5 -2.5t52.5 10t43 20.5t25.5 29q6 5 6.5 11t0.5 14q-7 4 -11.5 7.5t-9 6t-9.5 4.5t-14 3q-8 -13 -22 -23t-26 -16 q-20 -9 -43.5 -11.5t-43.5 4.5t-29 22.5t-9 33.5q0 19 8.5 38.5t23 34.5t34 24t43.5 6zM324 529q-29 3 -53.5 -7.5t-42 -29.5t-26.5 -43t-8 -47t13 -42t38 -28q18 -7 39 -7t41 6t38.5 17t31.5 26q7 -3 14 -10q-9 -21 -39.5 -35.5t-67 -17.5t-71 7t-52.5 37q-2 5 -7.5 14 t-5.5 14q-2 8 -2.5 13t-1.5 9q-2 18 3.5 37.5t16.5 37.5t26 32t32 22q29 14 53 19t56 -3q7 -2 15.5 -4.5t17 -7t14.5 -11t8 -14.5l-9 -9t-9 -8q-24 28 -62 33z" />
<glyph unicode="&#xab;" horiz-adv-x="425" d="M180 434v6l-25 -4q-8 -10 -15 -19.5t-14 -20.5q-25 -40 -52 -77.5t-48 -79.5q6 -21 22.5 -45.5t36.5 -50.5t40 -51.5t32 -47.5l47 1q10 7 18.5 11t19.5 8l-111 171q11 14 27.5 37t32 49t28.5 51t16 43q-7 16 -23 20.5t-31 4.5h-1v-6zM182 420q7 0 17 -1.5t15 -6.5 q-5 -17 -18 -41.5t-29.5 -50t-33 -48t-26.5 -35.5q26 -42 52.5 -82t52.5 -82l-3 -1q-3 -2 -6 -3.5t-5 -3.5l-29 -1q-11 19 -29.5 42t-37 46.5t-33.5 45.5t-21 39q14 29 32.5 56.5t37.5 53.5q13 17 23.5 35.5t23.5 35.5zM350 434v6l-25 -4q-8 -10 -15 -19.5t-14 -20.5 q-25 -40 -52 -77.5t-48 -79.5q6 -21 22.5 -45.5t36.5 -50.5t40 -51.5t32 -47.5l47 1q10 7 18.5 11t19.5 8l-111 171q11 14 27.5 37t32 49t28.5 51t16 43q-7 16 -23 20.5t-31 4.5h-1v-6zM352 420q7 0 17 -1.5t15 -6.5q-5 -17 -18 -41.5t-29.5 -50t-33 -48t-26.5 -35.5 q26 -42 52.5 -82t52.5 -82l-3 -1q-3 -2 -6 -3.5t-5 -3.5l-29 -1q-11 19 -29.5 42t-37 46.5t-33.5 45.5t-21 39q14 29 32.5 56.5t37.5 53.5q13 17 23.5 35.5t23.5 35.5z" />
<glyph unicode="&#xad;" horiz-adv-x="392" d="M28 307q2 -14 5.5 -24t13.5 -20q40 1 80 1.5t80 1.5q14 0 31.5 0.5t36 1t35.5 2t31 4.5q12 2 15 16t1.5 30.5t-6 31t-7.5 18.5q-42 6 -83 3.5t-83 -3.5q-11 0 -32.5 0.5t-44.5 -0.5t-43.5 -5.5t-28.5 -15.5q-1 -11 -1.5 -21t0.5 -21zM49 341q7 4 25 6t38.5 2.5t38.5 0.5 h27q39 1 77.5 4t77.5 -2q1 -5 2 -14t2 -18.5t1 -17.5v-9q-20 -3 -40 -3q-60 -4 -120.5 -4.5t-121.5 -2.5q-8 11 -8 28t1 30z" />
<glyph unicode="&#xae;" horiz-adv-x="575" d="M441 661q-34 20 -74 27t-78 5q-60 -3 -112.5 -34t-90 -78t-55.5 -104t-8.5 -111.5t51.5 -101t125 -71.5q59 -18 120.5 -3t113 51.5t87 89.5t42.5 111t-20 115.5t-101 103.5zM431 643q68 -42 93 -95t17.5 -106.5t-40.5 -102t-81 -82.5t-104.5 -47.5t-110.5 3.5 q-77 23 -116 65.5t-47.5 93t9 102.5t52.5 95.5t84 72t104 31.5q35 2 72.5 -4.5t67.5 -25.5zM449 327q25 29 40 64.5t15 76.5q0 50 -24 87t-61.5 58t-84.5 25t-92.5 -12t-85 -53t-63.5 -99q-5 -13 -10 -28.5t-5 -31.5q0 -57 18 -95t48 -59t67.5 -26.5t77.5 2t78 27.5t68 50 q8 3 16 12zM325 351q14 -11 28 -21.5t29 -21.5h3h5q4 0 9 1q-42 -34 -94.5 -49.5t-98.5 -5.5t-77 48t-31 112q0 13 4 26t9 26q23 59 59.5 94t78 49t83.5 9t76 -24.5t55 -52t21 -73.5q0 -36 -13 -68t-36 -58q-10 10 -23 22t-25.5 23t-22.5 19.5t-15 13.5q49 15 62.5 40 t3.5 49t-37.5 43t-60.5 22q-9 1 -27.5 1.5t-38.5 0.5q-19 0 -37 -1.5t-27 -5.5q-6 -3 -9.5 -10t-5 -15t-1.5 -17v-13v-12q0 -1 0.5 -2t0.5 -3q0 -48 -1 -92.5t4 -92.5q4 -4 12.5 -6.5t18 -3.5t18.5 0t15 4q6 4 7.5 17t1 28.5t-2 30.5t-1.5 22h9t9 1q18 -10 32 -25.5 t31 -28.5zM419 330l-7 -1q-7 0 -13.5 -0.5t-10.5 -0.5q-13 10 -25.5 19t-25.5 20q-18 14 -33.5 30.5t-37.5 27.5q-8 -1 -16 -1h-16h-10q0 -26 2 -51t0 -50q-7 -2 -16.5 -1.5t-16.5 2.5q-4 43 -2.5 87.5t1.5 86.5v3l-1 1v2q0 3 -0.5 10t0 14t1.5 13.5t3 9.5q7 3 23 4t34 1 q19 0 36 -0.5t27 -1.5q12 -1 26 -6.5t26.5 -13.5t21 -19t10.5 -24q2 -16 -8.5 -27t-26 -18t-32.5 -11.5t-28 -7.5q31 -19 59.5 -45.5t55.5 -51.5zM275 522v1q24 -1 39 -5t24 -10t12 -11.5t2 -9.5q-1 -5 -7.5 -11t-19.5 -11t-33.5 -8t-49.5 -1q-1 14 -1 34t2 30q6 1 11.5 1.5 t10.5 0.5h10zM255 542q-7 -1 -13 -1.5t-13 -2.5q-5 -9 -6.5 -22t-1.5 -28q0 -14 1 -27.5t2 -22.5l8 -1q44 -4 74.5 2.5t47 18.5t19 26.5t-8.5 27.5t-36 22t-63 9h-10v-1z" />
<glyph unicode="&#xb0;" horiz-adv-x="326" d="M143 505q31 -1 58.5 9.5t48.5 28t33 41t11.5 47t-15 46t-46.5 39.5t-68.5 14.5t-67.5 -17.5q-49 -24 -65 -59t-6 -67.5t41 -56t76 -25.5zM143 525q-39 1 -65 20.5t-33 46.5t7 55t53 48q28 14 59.5 15.5t58.5 -12.5q34 -18 44 -48t-2 -58.5t-43.5 -48.5t-78.5 -18z M108 613q0 2 3 10q10 22 26 29.5t31 5.5t26 -10.5t11 -18.5q0 -15 -15 -28.5t-33.5 -18.5t-33.5 1.5t-15 29.5zM88 613q0 -34 21.5 -45t47 -6t47 23.5t21.5 43.5q0 18 -15.5 31.5t-37 16.5t-44 -7t-35.5 -39q-2 -3 -3.5 -8t-1.5 -10z" />
<glyph unicode="&#xb1;" horiz-adv-x="548" d="M28 32q2 -13 5.5 -23t13.5 -20h51h86t101.5 0.5t98.5 1t76 2.5t35 5q6 4 7 18t-1 29.5t-5.5 29t-6.5 16.5q-45 7 -90 6.5t-91 -0.5q2 36 3 71.5t3 71.5h37t50 1q20 1 43 0.5t44 3.5q10 2 13 16t1 30.5t-6 31.5t-7 18q-43 5 -85.5 5.5t-86.5 0.5q1 13 1.5 36t1.5 48 q0 20 1 43t-2 43q-2 11 -16 13.5t-30.5 0.5t-31.5 -6.5t-18 -7.5q-8 -43 -9.5 -85t-3.5 -85h-38t-50 -1q-8 0 -21 -0.5t-27.5 -3t-26.5 -6.5t-18 -12q-2 -23 -0.5 -44.5t18.5 -40.5h159q-1 -35 -3.5 -71t1.5 -71h-37t-47 -1q-8 0 -21 -0.5t-26.5 -3t-25.5 -6.5t-18 -12 q-1 -11 -1.5 -21t0.5 -21zM481 14q-5 -1 -22 -1.5t-43.5 -1t-60 -1t-70.5 -0.5q-36 0 -72 -0.5t-67 -0.5h-54h-36q-8 11 -8 27q0 17 1 30q10 5 33.5 7.5t49.5 3t49 0.5h35h12q-8 44 -5 86t3 86v10h-170q-8 11 -8 27q0 17 1 30q11 5 34.5 7.5t50 3t50.5 0.5h36h10 q2 45 3 89.5t8 89.5q4 1 12.5 2.5t17.5 2t17 0.5h11l1 -2q3 -43 1 -91t-4 -91h10q42 0 85.5 0.5t85.5 -4.5q1 -5 2 -13.5t1.5 -17.5t0.5 -17v-10l-3 -1q-42 -5 -87.5 -4.5t-87.5 0.5h-10q-2 -46 -3 -91.5t-5 -91.5h11q44 0 90 1t90 -5q3 -11 4.5 -30t-0.5 -29z" />
<glyph unicode="&#xb4;" horiz-adv-x="237" d="M139 637q-17 -14 -33.5 -30.5t-27.5 -39.5q-6 2 -15.5 5.5t-14.5 8.5q-4 4 1 15.5t14.5 26t22.5 31t25 30t21 23t12 10.5q10 3 28 -3.5t26 -14.5q-11 -19 -26.5 -33.5t-32.5 -28.5zM152 622q21 18 38.5 35t29.5 43q-4 9 -13.5 17t-21.5 13t-24.5 7t-22.5 -2 q-12 -4 -30 -23t-35.5 -43t-30.5 -46.5t-15 -34.5q-2 -11 5 -18.5t17.5 -13t22 -8.5t18.5 -6q11 29 25 45t37 35z" />
<glyph unicode="&#xb8;" horiz-adv-x="376" d="M66 -148q-14 -2 -21 -8t-11 -14t-5 -18t-1 -20q30 -15 52.5 -22t56.5 -10q11 -1 21.5 -2.5t21.5 -1.5q51 0 87 14.5t56 36t24.5 47.5t-7 49t-39.5 39.5t-72 19.5q7 19 13.5 36t10.5 37l-90 -1q-14 -36 -30 -69.5t-25 -71.5q7 0 29.5 0.5t47.5 -1t44.5 -7t19.5 -16.5 q0 -10 -9 -17t-21.5 -11t-25.5 -5.5t-20 -1.5q-9 0 -23 1.5t-29.5 4t-29.5 5.5t-22 7h-3zM67 -168q9 -4 23.5 -7t30 -5.5t30 -4t22.5 -1.5q12 0 28.5 2.5t31.5 9t25.5 17t10.5 26.5q0 18 -17 27.5t-39.5 13t-45.5 3.5h-33q8 27 20 51.5t23 49.5l51 1q-6 -18 -13.5 -35.5 t-12.5 -36.5q72 -2 102.5 -28t24.5 -57t-45 -56.5t-104 -25.5q-32 0 -68 7.5t-64 20.5q2 13 5 19t14 9z" />
<glyph unicode="&#xbb;" horiz-adv-x="425" d="M251 420l17 -2q6 -8 11.5 -16t10.5 -17q24 -38 50 -73.5t46 -74.5q-7 -18 -22.5 -40t-33.5 -45t-36 -45.5t-30 -42.5l-28 1q-3 2 -5.5 3t-5.5 3l-3 2q26 42 52.5 82t52.5 82q-11 13 -27.5 35.5t-32.5 48t-29.5 50t-18.5 41.5q5 5 15 6.5t17 1.5zM253 434v6h-1 q-15 0 -31 -4.5t-23 -20.5q4 -18 16.5 -43t28.5 -51t32.5 -49t27.5 -37l-111 -171q11 -4 19.5 -9t18.5 -10l46 -1q13 23 32.5 48l39 50t36.5 49.5t24 47.5q-17 32 -36.5 61.5t-40.5 58.5q-14 20 -25.5 39.5t-27.5 37.5l-25 4v-6zM81 420l17 -2q10 -13 22 -33 q24 -38 50 -73.5t46 -74.5q-7 -18 -22.5 -40t-33.5 -45t-36 -45.5t-30 -42.5l-28 1q-3 2 -5.5 3t-5.5 3l-3 2q26 42 52.5 82t52.5 82q-11 13 -27.5 35.5t-32.5 48t-29.5 50t-18.5 41.5q5 5 15 6.5t17 1.5zM83 434v6h-1q-15 0 -31 -4.5t-23 -20.5q4 -18 16.5 -43t28.5 -51 t32.5 -49t27.5 -37l-111 -171q11 -4 19.5 -9t18.5 -10l46 -1q13 23 32.5 48l39 50t36.5 49.5t24 47.5q-17 32 -36.5 61.5t-40.5 58.5q-14 20 -25.5 39.5t-27.5 37.5l-25 4v-6z" />
<glyph unicode="&#xbf;" horiz-adv-x="483" d="M351 410q-6 12 -20.5 21t-32 13t-33.5 0t-25 -17q0 -7 1 -21.5t1 -30.5t-1 -30.5t-3 -21.5q-4 -13 -18.5 -26.5t-32.5 -26.5t-36.5 -24t-28.5 -18q-38 -26 -64 -57t-36 -65t-2.5 -70.5t36.5 -75.5q22 -29 56.5 -42t66.5 -16q40 -3 82 2.5t80 21.5t70.5 42.5t52.5 64.5 q-3 9 -9 23t-13.5 27.5t-18 23t-22.5 7.5q-5 -5 -9 -10t-9 -11q-21 -30 -51 -48.5t-61.5 -27t-61.5 -8t-51.5 8.5t-31.5 23.5t-2 35.5q9 22 35 42.5t57 40.5t61.5 40.5t48.5 43.5q10 13 18.5 34.5t12 45.5t2.5 47t-8 39zM409 94q10 -8 19 -28t14 -31q-18 -32 -47.5 -55 t-65 -37t-74 -19t-74.5 -2q-31 2 -61 14t-48 36q-15 20 -24.5 41t-10.5 45q-1 38 13 66t36.5 50t50 39.5t52.5 34t44 33t25 36.5q2 7 3 21t1 29q0 16 -0.5 30.5t-1.5 23.5q5 4 16 4.5t22 -2t21 -8t14 -13.5q6 -13 6.5 -33.5t-3 -41.5t-10.5 -40.5t-16 -30.5q-12 -15 -30 -29 t-38 -27.5t-40.5 -26t-36.5 -23.5q-19 -13 -36 -31t-24.5 -38t-0.5 -40t36 -37q26 -15 61 -16t69.5 8t65.5 26.5t49 38.5q6 8 11.5 16.5t12.5 16.5zM302 497q23 3 38 19t19 36t-4 40.5t-29 32.5q-26 14 -46 9t-33 -20.5t-17.5 -37t1.5 -41t23.5 -31t47.5 -7.5zM300 517 q-22 -3 -34 5t-16 21.5t-1 29t12 26.5t23 14.5t32 -6.5q15 -8 20.5 -22.5t2.5 -28.5t-13 -25.5t-26 -13.5z" />
<glyph unicode="&#xc0;" horiz-adv-x="595" d="M313 692l-1 9l-14 -3q-10 -10 -23 -14q-10 -11 -20 -20.5t-19 -20.5q-12 -15 -33 -59.5t-45.5 -104.5t-50.5 -127t-48 -127.5t-37.5 -106t-18.5 -61.5q2 -9 -2 -18t-4 -19q0 -12 7 -16t13 -12q19 -5 38 -4.5t38 0.5h5q31 45 48 96.5t34 102.5q32 -2 63.5 -2.5t63.5 2.5 q24 2 49 0.5t50 -1.5q19 -39 30.5 -81t34.5 -80q11 -20 21 -26t32 -9q21 13 38.5 21t37.5 25q-56 129 -98.5 261.5t-75.5 269.5l-12 48t-18 43t-31.5 31t-51.5 12v-9zM315 681q27 0 42.5 -11t25 -28.5t14.5 -38.5t10 -41q32 -134 73.5 -264t95.5 -256q-13 -11 -27.5 -17 t-28.5 -15l-11 2q-7 1 -15.5 13.5t-17 31.5t-17 41.5t-16 44t-14 38.5t-11.5 25q-28 -1 -56.5 1t-56.5 0q-35 -3 -69.5 -2t-69.5 4q-17 -50 -33.5 -103t-44.5 -98q-15 0 -30 -0.5t-29 2.5q-2 2 -5 4l-6 4l-1 1v1q0 10 3.5 18t2.5 19q5 21 21 69t38.5 107.5t48.5 125 t49.5 122t43 97.5t28.5 53q8 10 17 18t17 17q13 5 22 14zM373 297q-14 -2 -33.5 -1.5t-40 1.5t-40 3t-34.5 5q20 58 40.5 114.5t44.5 112.5q16 -60 32.5 -117.5t30.5 -117.5zM394 297q-12 51 -26 101t-28 101q-7 22 -13 43.5t-14 43.5q-34 -73 -61 -146t-53 -149 q20 -5 45 -8.5t51 -5.5t51 -1.5t46 3.5zM443 762h5q-15 46 -43.5 85.5t-65.5 69.5q-9 8 -22.5 7.5t-27 -6.5t-24.5 -14.5t-15 -17.5q12 -26 30.5 -43.5t37 -33.5t35.5 -34.5t28 -46.5q6 2 15.5 4.5t19 6.5t17.5 9.5t10 13.5zM418 782l6 -14q-3 -5 -14.5 -9t-16.5 -6 q-11 22 -27 38.5t-33 31t-33.5 29t-26.5 33.5q7 8 25 14.5t28 3.5q27 -23 53 -56t40 -65h-1z" />
<glyph unicode="&#xc1;" horiz-adv-x="595" d="M313 692l-1 9l-14 -3q-10 -10 -23 -14q-10 -11 -20 -20.5t-19 -20.5q-12 -15 -33 -59.5t-45.5 -104.5t-50.5 -127t-48 -127.5t-37.5 -106t-18.5 -61.5q2 -9 -2 -18t-4 -19q0 -12 7 -16t13 -12q19 -5 38 -4.5t38 0.5h5q31 45 48 96.5t34 102.5q32 -2 63.5 -2.5t63.5 2.5 q24 2 49 0.5t50 -1.5q19 -39 30.5 -81t34.5 -80q11 -20 21 -26t32 -9q21 13 38.5 21t37.5 25q-56 129 -98.5 261.5t-75.5 269.5l-12 48t-18 43t-31.5 31t-51.5 12v-9zM315 681q27 0 42.5 -11t25 -28.5t14.5 -38.5t10 -41q32 -134 73.5 -264t95.5 -256q-13 -11 -27.5 -17 t-28.5 -15l-11 2q-7 1 -15.5 13.5t-17 31.5t-17 41.5t-16 44t-14 38.5t-11.5 25q-28 -1 -56.5 1t-56.5 0q-35 -3 -69.5 -2t-69.5 4q-17 -50 -33.5 -103t-44.5 -98q-15 0 -30 -0.5t-29 2.5q-2 2 -5 4l-6 4l-1 1v1q0 10 3.5 18t2.5 19q5 21 21 69t38.5 107.5t48.5 125 t49.5 122t43 97.5t28.5 53q8 10 17 18t17 17q13 5 22 14zM373 297q-14 -2 -33.5 -1.5t-40 1.5t-40 3t-34.5 5q20 58 40.5 114.5t44.5 112.5q16 -60 32.5 -117.5t30.5 -117.5zM394 297q-12 51 -26 101t-28 101q-7 22 -13 43.5t-14 43.5q-34 -73 -61 -146t-53 -149 q20 -5 45 -8.5t51 -5.5t51 -1.5t46 3.5zM257 782h-1q14 32 39.5 65t53.5 56q10 3 28 -3.5t25 -14.5q-11 -19 -27 -33.5t-33 -29t-33.5 -31t-26.5 -38.5q-5 2 -16.5 6t-14.5 9zM232 762q3 -8 11 -13.5t17.5 -9.5t19 -6.5t14.5 -4.5q10 28 27.5 46.5t36 34.5t37 33.5 t30.5 43.5q-4 9 -15 17.5t-24.5 14.5t-27 6.5t-22.5 -7.5q-37 -30 -65.5 -69.5t-43.5 -85.5h5z" />
<glyph unicode="&#xc2;" horiz-adv-x="595" d="M313 692l-1 9l-14 -3q-10 -10 -23 -14q-10 -11 -20 -20.5t-19 -20.5q-12 -15 -33 -59.5t-45.5 -104.5t-50.5 -127t-48 -127.5t-37.5 -106t-18.5 -61.5q2 -9 -2 -18t-4 -19q0 -12 7 -16t13 -12q19 -5 38 -4.5t38 0.5h5q31 45 48 96.5t34 102.5q32 -2 63.5 -2.5t63.5 2.5 q24 2 49 0.5t50 -1.5q19 -39 30.5 -81t34.5 -80q11 -20 21 -26t32 -9q21 13 38.5 21t37.5 25q-56 129 -98.5 261.5t-75.5 269.5l-12 48t-18 43t-31.5 31t-51.5 12v-9zM315 681q27 0 42.5 -11t25 -28.5t14.5 -38.5t10 -41q32 -134 73.5 -264t95.5 -256q-13 -11 -27.5 -17 t-28.5 -15l-11 2q-7 1 -15.5 13.5t-17 31.5t-17 41.5t-16 44t-14 38.5t-11.5 25q-28 -1 -56.5 1t-56.5 0q-35 -3 -69.5 -2t-69.5 4q-17 -50 -33.5 -103t-44.5 -98q-15 0 -30 -0.5t-29 2.5q-2 2 -5 4l-6 4l-1 1v1q0 10 3.5 18t2.5 19q5 21 21 69t38.5 107.5t48.5 125 t49.5 122t43 97.5t28.5 53q8 10 17 18t17 17q13 5 22 14zM373 297q-14 -2 -33.5 -1.5t-40 1.5t-40 3t-34.5 5q20 58 40.5 114.5t44.5 112.5q16 -60 32.5 -117.5t30.5 -117.5zM394 297q-12 51 -26 101t-28 101q-7 22 -13 43.5t-14 43.5q-34 -73 -61 -146t-53 -149 q20 -5 45 -8.5t51 -5.5t51 -1.5t46 3.5zM295 878q14 -2 28.5 -1t28.5 0q26 -26 49 -55t54 -49q1 -2 2 -3t2 -3q-11 -4 -23 -6t-20 0q-5 1 -18.5 13t-29 27t-29 29t-17.5 18q-25 -21 -40.5 -44t-37.5 -43q-17 -2 -28 0t-25 7q24 27 47 53.5t49 49.5q2 2 3.5 3t3.5 2zM275 764 q11 14 21.5 28.5t24.5 27.5q18 -19 37.5 -39t42.5 -34q9 -6 21 -6.5t24.5 2t24.5 7.5t21 9q-5 7 -11.5 13.5t-11.5 14.5q-32 22 -56.5 52t-52.5 58q-18 1 -36.5 0.5t-36.5 1.5l-4 -5l-2 -2q0 -1 -1 -2h-1l-2 -1q-34 -29 -62 -62.5t-58 -66.5q15 -6 25.5 -10t20.5 -6.5 t21.5 -3t27.5 0.5q12 11 23 23z" />
<glyph unicode="&#xc3;" horiz-adv-x="595" d="M313 692l-1 9l-14 -3q-10 -10 -23 -14q-10 -11 -20 -20.5t-19 -20.5q-12 -15 -33 -59.5t-45.5 -104.5t-50.5 -127t-48 -127.5t-37.5 -106t-18.5 -61.5q2 -9 -2 -18t-4 -19q0 -12 7 -16t13 -12q19 -5 38 -4.5t38 0.5h5q31 45 48 96.5t34 102.5q32 -2 63.5 -2.5t63.5 2.5 q24 2 49 0.5t50 -1.5q19 -39 30.5 -81t34.5 -80q11 -20 21 -26t32 -9q21 13 38.5 21t37.5 25q-56 129 -98.5 261.5t-75.5 269.5l-12 48t-18 43t-31.5 31t-51.5 12v-9zM315 681q27 0 42.5 -11t25 -28.5t14.5 -38.5t10 -41q32 -134 73.5 -264t95.5 -256q-13 -11 -27.5 -17 t-28.5 -15l-11 2q-7 1 -15.5 13.5t-17 31.5t-17 41.5t-16 44t-14 38.5t-11.5 25q-28 -1 -56.5 1t-56.5 0q-35 -3 -69.5 -2t-69.5 4q-17 -50 -33.5 -103t-44.5 -98q-15 0 -30 -0.5t-29 2.5q-2 2 -5 4l-6 4l-1 1v1q0 10 3.5 18t2.5 19q5 21 21 69t38.5 107.5t48.5 125 t49.5 122t43 97.5t28.5 53q8 10 17 18t17 17q13 5 22 14zM373 297q-14 -2 -33.5 -1.5t-40 1.5t-40 3t-34.5 5q20 58 40.5 114.5t44.5 112.5q16 -60 32.5 -117.5t30.5 -117.5zM394 297q-12 51 -26 101t-28 101q-7 22 -13 43.5t-14 43.5q-34 -73 -61 -146t-53 -149 q20 -5 45 -8.5t51 -5.5t51 -1.5t46 3.5zM319 785q29 -13 51 -18t41 -0.5t36.5 19t37.5 40.5q-5 13 -8 22.5t-8 15.5t-14.5 9.5t-25.5 6.5q-7 -9 -19 -23.5t-24 -14.5q-7 0 -20 6q-28 12 -50 22.5t-43 12.5t-42 -7.5t-47 -37.5q-14 -15 -15 -27.5t6.5 -22.5t21 -17t27.5 -12 q3 5 8 12.5t11 14.5t13 12t13 5q3 0 10 -2.5t14.5 -5.5t14.5 -6t11 -4zM327 803q-20 9 -34.5 14.5t-27 4.5t-24 -10t-25.5 -29q-5 2 -10 5t-9 7q-11 9 -8.5 15t10.5 14q31 33 56.5 37t48 -4.5t42.5 -21.5t40 -13q17 0 29.5 12t21.5 24q15 -3 18 -9t8 -19q-17 -21 -31 -31.5 t-29.5 -13.5t-33.5 2t-42 16z" />
<glyph unicode="&#xc4;" horiz-adv-x="595" d="M313 692l-1 9l-14 -3q-10 -10 -23 -14q-10 -11 -20 -20.5t-19 -20.5q-12 -15 -33 -59.5t-45.5 -104.5t-50.5 -127t-48 -127.5t-37.5 -106t-18.5 -61.5q2 -9 -2 -18t-4 -19q0 -12 7 -16t13 -12q19 -5 38 -4.5t38 0.5h5q31 45 48 96.5t34 102.5q32 -2 63.5 -2.5t63.5 2.5 q24 2 49 0.5t50 -1.5q19 -39 30.5 -81t34.5 -80q11 -20 21 -26t32 -9q21 13 38.5 21t37.5 25q-56 129 -98.5 261.5t-75.5 269.5l-12 48t-18 43t-31.5 31t-51.5 12v-9zM315 681q27 0 42.5 -11t25 -28.5t14.5 -38.5t10 -41q32 -134 73.5 -264t95.5 -256q-13 -11 -27.5 -17 t-28.5 -15l-11 2q-7 1 -15.5 13.5t-17 31.5t-17 41.5t-16 44t-14 38.5t-11.5 25q-28 -1 -56.5 1t-56.5 0q-35 -3 -69.5 -2t-69.5 4q-17 -50 -33.5 -103t-44.5 -98q-15 0 -30 -0.5t-29 2.5q-2 2 -5 4l-6 4l-1 1v1q0 10 3.5 18t2.5 19q5 21 21 69t38.5 107.5t48.5 125 t49.5 122t43 97.5t28.5 53q8 10 17 18t17 17q13 5 22 14zM373 297q-14 -2 -33.5 -1.5t-40 1.5t-40 3t-34.5 5q20 58 40.5 114.5t44.5 112.5q16 -60 32.5 -117.5t30.5 -117.5zM394 297q-12 51 -26 101t-28 101q-7 22 -13 43.5t-14 43.5q-34 -73 -61 -146t-53 -149 q20 -5 45 -8.5t51 -5.5t51 -1.5t46 3.5zM241 887q-21 -3 -33.5 -18.5t-15.5 -34.5t4 -38t25 -30q22 -14 40 -9t29.5 20t15.5 35.5t-1.5 38.5t-21 29t-42.5 7zM245 867q18 3 28 -4.5t13.5 -20t0.5 -26.5t-10.5 -24t-19.5 -13.5t-26 5.5q-13 7 -17.5 20.5t-2 26.5t11 23.5 t22.5 12.5zM392 887q-22 -3 -34 -18.5t-15 -34t4.5 -37.5t24.5 -30q22 -14 39.5 -9.5t29 19t15.5 35.5t-1 39t-20 29t-43 7zM396 867q18 3 28 -4.5t13 -20t0.5 -26.5t-10.5 -24.5t-19.5 -14t-25.5 5.5q-12 8 -17 21.5t-2.5 26.5t11 23.5t22.5 12.5z" />
<glyph unicode="&#xc5;" horiz-adv-x="595" d="M313 692l-1 9l-14 -3q-10 -10 -23 -14q-10 -11 -20 -20.5t-19 -20.5q-12 -15 -33 -59.5t-45.5 -104.5t-50.5 -127t-48 -127.5t-37.5 -106t-18.5 -61.5q2 -9 -2 -18t-4 -19q0 -12 7 -16t13 -12q19 -5 38 -4.5t38 0.5h5q31 45 48 96.5t34 102.5q32 -2 63.5 -2.5t63.5 2.5 q24 2 49 0.5t50 -1.5q19 -39 30.5 -81t34.5 -80q11 -20 21 -26t32 -9q21 13 38.5 21t37.5 25q-56 129 -98.5 261.5t-75.5 269.5l-12 48t-18 43t-31.5 31t-51.5 12v-9zM315 681q27 0 42.5 -11t25 -28.5t14.5 -38.5t10 -41q32 -134 73.5 -264t95.5 -256q-13 -11 -27.5 -17 t-28.5 -15l-11 2q-7 1 -15.5 13.5t-17 31.5t-17 41.5t-16 44t-14 38.5t-11.5 25q-28 -1 -56.5 1t-56.5 0q-35 -3 -69.5 -2t-69.5 4q-17 -50 -33.5 -103t-44.5 -98q-15 0 -30 -0.5t-29 2.5q-2 2 -5 4l-6 4l-1 1v1q0 10 3.5 18t2.5 19q5 21 21 69t38.5 107.5t48.5 125 t49.5 122t43 97.5t28.5 53q8 10 17 18t17 17q13 5 22 14zM373 297q-14 -2 -33.5 -1.5t-40 1.5t-40 3t-34.5 5q20 58 40.5 114.5t44.5 112.5q16 -60 32.5 -117.5t30.5 -117.5zM394 297q-12 51 -26 101t-28 101q-7 22 -13 43.5t-14 43.5q-34 -73 -61 -146t-53 -149 q20 -5 45 -8.5t51 -5.5t51 -1.5t46 3.5zM323 702q31 -1 59 9.5t48.5 28t33 41t12 47t-15 46t-46.5 39.5q-33 17 -69.5 14.5t-67.5 -17.5q-49 -24 -65 -59t-6 -67.5t41 -56t76 -25.5zM323 722q-39 2 -65 21.5t-33 46t7 55t53 47.5q29 14 60.5 15.5t58.5 -12.5 q34 -17 43.5 -47t-2.5 -58.5t-43 -49t-79 -18.5zM289 814q8 24 24 33t32 8t28 -9.5t12 -18.5q0 -16 -15 -29t-33.5 -18t-33.5 1.5t-15 29.5q0 1 0.5 1.5t0.5 1.5zM270 821q-2 -6 -2 -10q0 -34 21.5 -45t47 -6t47 23t21.5 44q0 19 -17 32.5t-39.5 15.5t-45 -10t-33.5 -44z " />
<glyph unicode="&#xc7;" horiz-adv-x="636" d="M201 -148q-27 -4 -33 -21.5t-6 -38.5q15 -8 28 -13t25 -8.5t25.5 -6t30.5 -4.5q63 -6 107 5.5t69.5 32.5t32.5 48t-3.5 51.5t-39 42.5t-74.5 22l4 10l4 10q30 5 65 18.5t68 34t59 47t37 57.5q9 11 11 22t2 25q-10 7 -18 15t-16 15t-18 11.5t-25 6.5q-6 -14 -18.5 -29 t-27 -29t-29.5 -26.5t-27 -19.5q-41 -25 -92 -31t-95 14q-36 17 -56 49t-27 71t-3 80.5t16 77.5q5 13 10.5 25t11.5 24q15 30 33.5 58t42 49t54 31t69.5 4q48 -8 75.5 -36t47.5 -68q14 9 24 18.5t18 20t16.5 20.5t20.5 20v5q0 23 -8.5 44.5t-23 40t-33 32.5t-38.5 22 q-42 17 -77.5 22.5t-69 0.5t-67 -20t-70.5 -39q-45 -29 -80 -74t-58 -98t-34 -109.5t-8 -107.5q1 -11 2.5 -24t5.5 -25q-2 -11 1.5 -25t8.5 -28q28 -77 82.5 -129.5t140.5 -64.5q-10 -22 -18.5 -43t-14.5 -44q6 0 29 0.5t48 -1t45 -7t20 -16.5q0 -10 -9 -17t-21.5 -11 t-25.5 -5.5t-20 -1.5q-9 0 -23.5 1.5t-29.5 4t-28.5 5.5t-21.5 7h-3zM201 -168q9 -4 23.5 -7t30 -5.5t29.5 -4t23 -1.5q12 0 28.5 2.5t31.5 9t25.5 17t10.5 26.5q0 18 -17 27.5t-39.5 13t-45.5 3.5h-33q8 22 17 42.5t19 41.5q-72 7 -125.5 38.5t-87.5 97.5q-4 8 -10 20.5 t-11 26t-8 26.5t-1 22q-4 13 -5.5 25t-2.5 25q-3 49 7.5 103t32.5 104.5t55 93.5t75 70q35 22 66.5 36.5t63 19t64.5 -0.5t72 -21q17 -7 33 -19t28.5 -27.5t20.5 -33.5t9 -37q-14 -13 -25.5 -29.5t-26.5 -29.5q-20 37 -50.5 62.5t-75.5 32.5q-33 5 -62 -0.5t-53 -20 t-43.5 -36t-35.5 -48.5q-14 -24 -27.5 -48.5t-21.5 -51.5q-12 -36 -17 -80t2.5 -87t30 -79.5t64.5 -55.5q24 -11 51 -15t54 -1t52.5 12t47.5 23q10 6 25 17.5t30 25t28 28t20 27.5q13 -4 24 -16t22 -20q-1 -8 -3 -14t-8 -13q-10 -32 -36.5 -57.5t-59.5 -44.5t-68 -31 t-63 -16q-5 -14 -10 -28.5t-10 -28.5q50 -1 80 -15t41.5 -34t5 -42.5t-30 -40t-63.5 -27.5t-95 -4q-29 3 -48 8t-43 16q1 12 4.5 19t14.5 9z" />
<glyph unicode="&#xc8;" horiz-adv-x="507" d="M496 647q0 23 -3 44q-17 6 -35 11t-36 5q-89 2 -175.5 -7t-173.5 -26q6 -23 5.5 -60t-3 -78.5t-5.5 -81t-3 -67.5q0 -35 -2.5 -70t-4 -70t-1 -70t6.5 -70q2 -11 2 -23q0 -11 2 -23q2 -11 5 -20.5t3 -20.5q12 -12 25.5 -17t30.5 -5q10 0 35.5 1.5t58 4t69 6t69 7.5t58 9 t35.5 10q10 13 12.5 22.5t0.5 18.5t-5.5 18.5t-3.5 21.5q-17 16 -53.5 19t-78.5 0t-82 -9t-62 -9q-2 43 -2.5 86t-2.5 87l39 2q7 7 35.5 10t63 4.5t67 2t46.5 3.5q4 7 6.5 19.5t2.5 25.5t-2.5 25t-8.5 20q-11 12 -43 11.5t-70 -5t-73.5 -7.5t-53.5 3q0 16 0.5 38.5t1.5 46 t3 45t5 35.5q29 5 58.5 5.5t58.5 3.5q24 2 49 4.5t53 7.5q3 1 9 1.5t13 0.5t13.5 -0.5t10.5 -0.5q15 0 21.5 5t8.5 13t1 17.5t-1 19.5zM476 647q0 -8 2 -19t-6 -16q-14 -2 -29.5 0.5t-29.5 -2.5l-2 -1q-24 -3 -47.5 -5.5t-47.5 -4.5q-34 -4 -65.5 -4.5t-65.5 -6.5 q-5 -17 -8 -42t-4.5 -52t-1.5 -53v-42v-4l3 -3q8 -7 27.5 -9t45 -0.5t53.5 4.5t52 5t41 2q18 0 22 -5q6 -6 7.5 -26t-2.5 -32q-16 -2 -46.5 -2.5t-62.5 -1.5t-60 -4t-38 -10l-53 -4q4 -54 4.5 -106.5t3.5 -106.5q13 1 36 4t50.5 6.5t56.5 7t55 4.5t46.5 -1t30.5 -9 q1 -8 4 -15t4.5 -13.5t1 -13.5t-5.5 -14q-10 -4 -33.5 -8t-54 -7.5t-65 -7t-66 -6t-57 -4t-37.5 -1.5q-11 0 -20 2.5t-16 8.5q-1 5 -1.5 9t-2.5 8q-4 17 -4.5 32.5t-3.5 32.5q-6 33 -6.5 67t1.5 69q4 72 6.5 143t6.5 143q2 37 3 71t-1 54q34 6 84.5 14t104.5 12.5t104.5 3.5 t85.5 -12q0 -7 0.5 -14t0.5 -15zM235 808q23 -19 37 -35t25 -45q7 3 18.5 6t22 8t17 12.5t4.5 19.5t-15.5 34.5t-30.5 46.5t-35 43t-30 23q-10 4 -22.5 2t-24.5 -7t-21.5 -13t-13.5 -17q13 -26 30 -43t39 -35zM248 823q-17 14 -33 28.5t-26 33.5q7 8 25 14.5t28 3.5 q9 -3 24.5 -20.5t31 -39.5t27.5 -42.5t14 -30.5q1 -3 -3 -6t-9.5 -5t-10.5 -3.5t-7 -2.5q-11 23 -27.5 39.5t-33.5 30.5z" />
<glyph unicode="&#xc9;" horiz-adv-x="507" d="M496 647q0 23 -3 44q-17 6 -35 11t-36 5q-89 2 -175.5 -7t-173.5 -26q6 -23 5.5 -60t-3 -78.5t-5.5 -81t-3 -67.5q0 -35 -2.5 -70t-4 -70t-1 -70t6.5 -70q2 -11 2 -23q0 -11 2 -23q2 -11 5 -20.5t3 -20.5q12 -12 25.5 -17t30.5 -5q10 0 35.5 1.5t58 4t69 6t69 7.5t58 9 t35.5 10q10 13 12.5 22.5t0.5 18.5t-5.5 18.5t-3.5 21.5q-17 16 -53.5 19t-78.5 0t-82 -9t-62 -9q-2 43 -2.5 86t-2.5 87l39 2q7 7 35.5 10t63 4.5t67 2t46.5 3.5q4 7 6.5 19.5t2.5 25.5t-2.5 25t-8.5 20q-11 12 -43 11.5t-70 -5t-73.5 -7.5t-53.5 3q0 16 0.5 38.5t1.5 46 t3 45t5 35.5q29 5 58.5 5.5t58.5 3.5q24 2 49 4.5t53 7.5q3 1 9 1.5t13 0.5t13.5 -0.5t10.5 -0.5q15 0 21.5 5t8.5 13t1 17.5t-1 19.5zM476 647q0 -8 2 -19t-6 -16q-14 -2 -29.5 0.5t-29.5 -2.5l-2 -1q-24 -3 -47.5 -5.5t-47.5 -4.5q-34 -4 -65.5 -4.5t-65.5 -6.5 q-5 -17 -8 -42t-4.5 -52t-1.5 -53v-42v-4l3 -3q8 -7 27.5 -9t45 -0.5t53.5 4.5t52 5t41 2q18 0 22 -5q6 -6 7.5 -26t-2.5 -32q-16 -2 -46.5 -2.5t-62.5 -1.5t-60 -4t-38 -10l-53 -4q4 -54 4.5 -106.5t3.5 -106.5q13 1 36 4t50.5 6.5t56.5 7t55 4.5t46.5 -1t30.5 -9 q1 -8 4 -15t4.5 -13.5t1 -13.5t-5.5 -14q-10 -4 -33.5 -8t-54 -7.5t-65 -7t-66 -6t-57 -4t-37.5 -1.5q-11 0 -20 2.5t-16 8.5q-1 5 -1.5 9t-2.5 8q-4 17 -4.5 32.5t-3.5 32.5q-6 33 -6.5 67t1.5 69q4 72 6.5 143t6.5 143q2 37 3 71t-1 54q34 6 84.5 14t104.5 12.5t104.5 3.5 t85.5 -12q0 -7 0.5 -14t0.5 -15zM193 782h-1q14 32 39.5 65t53.5 56q10 3 28 -3.5t25 -14.5q-11 -19 -27 -33.5t-33 -29t-33.5 -31t-26.5 -38.5q-5 2 -16.5 6t-14.5 9zM178 762l-9 14q-5 -11 2 -19t18 -14t23 -9.5t18 -5.5q10 28 27.5 46.5t36 34.5t37 33.5t30.5 43.5 q-4 9 -15 17.5t-24.5 14.5t-27 6.5t-22.5 -7.5q-37 -30 -65.5 -69.5t-43.5 -85.5h15z" />
<glyph unicode="&#xca;" horiz-adv-x="507" d="M496 647q0 23 -3 44q-17 6 -35 11t-36 5q-89 2 -175.5 -7t-173.5 -26q6 -23 5.5 -60t-3 -78.5t-5.5 -81t-3 -67.5q0 -35 -2.5 -70t-4 -70t-1 -70t6.5 -70q2 -11 2 -23q0 -11 2 -23q2 -11 5 -20.5t3 -20.5q12 -12 25.5 -17t30.5 -5q10 0 35.5 1.5t58 4t69 6t69 7.5t58 9 t35.5 10q10 13 12.5 22.5t0.5 18.5t-5.5 18.5t-3.5 21.5q-17 16 -53.5 19t-78.5 0t-82 -9t-62 -9q-2 43 -2.5 86t-2.5 87l39 2q7 7 35.5 10t63 4.5t67 2t46.5 3.5q4 7 6.5 19.5t2.5 25.5t-2.5 25t-8.5 20q-11 12 -43 11.5t-70 -5t-73.5 -7.5t-53.5 3q0 16 0.5 38.5t1.5 46 t3 45t5 35.5q29 5 58.5 5.5t58.5 3.5q24 2 49 4.5t53 7.5q3 1 9 1.5t13 0.5t13.5 -0.5t10.5 -0.5q15 0 21.5 5t8.5 13t1 17.5t-1 19.5zM476 647q0 -8 2 -19t-6 -16q-14 -2 -29.5 0.5t-29.5 -2.5l-2 -1q-24 -3 -47.5 -5.5t-47.5 -4.5q-34 -4 -65.5 -4.5t-65.5 -6.5 q-5 -17 -8 -42t-4.5 -52t-1.5 -53v-42v-4l3 -3q8 -7 27.5 -9t45 -0.5t53.5 4.5t52 5t41 2q18 0 22 -5q6 -6 7.5 -26t-2.5 -32q-16 -2 -46.5 -2.5t-62.5 -1.5t-60 -4t-38 -10l-53 -4q4 -54 4.5 -106.5t3.5 -106.5q13 1 36 4t50.5 6.5t56.5 7t55 4.5t46.5 -1t30.5 -9 q1 -8 4 -15t4.5 -13.5t1 -13.5t-5.5 -14q-10 -4 -33.5 -8t-54 -7.5t-65 -7t-66 -6t-57 -4t-37.5 -1.5q-11 0 -20 2.5t-16 8.5q-1 5 -1.5 9t-2.5 8q-4 17 -4.5 32.5t-3.5 32.5q-6 33 -6.5 67t1.5 69q4 72 6.5 143t6.5 143q2 37 3 71t-1 54q34 6 84.5 14t104.5 12.5t104.5 3.5 t85.5 -12q0 -7 0.5 -14t0.5 -15zM210 770q-6 -7 -8 -9q-17 -2 -28 0t-25 7l22 28t23 27q14 15 29.5 27.5t29.5 27.5q14 -2 28.5 -1t28.5 0q17 -16 30.5 -33.5t30.5 -33.5q11 -11 23.5 -21.5t23.5 -21.5q-12 -4 -24 -6t-21 0q-8 4 -21 15.5t-27 25t-26 26.5t-18 20 q-6 -5 -15 -13.5t-18 -18t-16.5 -19t-11.5 -15.5q-4 -4 -10 -12zM225 757q3 4 6 7t6 7q1 3 7.5 10.5t14 15.5t13.5 14.5t8 8.5q17 -19 37 -39t42 -34q9 -7 21 -7.5t25 2.5t25 8t21 9q-15 19 -32 33.5t-34 31.5t-32.5 36.5t-34.5 36.5q-18 1 -36.5 0.5t-36.5 1.5 q-8 -9 -16 -16.5t-17 -15.5q-31 -26 -50.5 -51.5t-46.5 -55.5q15 -6 25.5 -10t21 -6.5t22 -3t27.5 0.5q4 4 7.5 8t6.5 8z" />
<glyph unicode="&#xcb;" horiz-adv-x="507" d="M496 647q0 23 -3 44q-17 6 -35 11t-36 5q-89 2 -175.5 -7t-173.5 -26q6 -23 5.5 -60t-3 -78.5t-5.5 -81t-3 -67.5q0 -35 -2.5 -70t-4 -70t-1 -70t6.5 -70q2 -11 2 -23q0 -11 2 -23q2 -11 5 -20.5t3 -20.5q12 -12 25.5 -17t30.5 -5q10 0 35.5 1.5t58 4t69 6t69 7.5t58 9 t35.5 10q10 13 12.5 22.5t0.5 18.5t-5.5 18.5t-3.5 21.5q-17 16 -53.5 19t-78.5 0t-82 -9t-62 -9q-2 43 -2.5 86t-2.5 87l39 2q7 7 35.5 10t63 4.5t67 2t46.5 3.5q4 7 6.5 19.5t2.5 25.5t-2.5 25t-8.5 20q-11 12 -43 11.5t-70 -5t-73.5 -7.5t-53.5 3q0 16 0.5 38.5t1.5 46 t3 45t5 35.5q29 5 58.5 5.5t58.5 3.5q24 2 49 4.5t53 7.5q3 1 9 1.5t13 0.5t13.5 -0.5t10.5 -0.5q15 0 21.5 5t8.5 13t1 17.5t-1 19.5zM476 647q0 -8 2 -19t-6 -16q-14 -2 -29.5 0.5t-29.5 -2.5l-2 -1q-24 -3 -47.5 -5.5t-47.5 -4.5q-34 -4 -65.5 -4.5t-65.5 -6.5 q-5 -17 -8 -42t-4.5 -52t-1.5 -53v-42v-4l3 -3q8 -7 27.5 -9t45 -0.5t53.5 4.5t52 5t41 2q18 0 22 -5q6 -6 7.5 -26t-2.5 -32q-16 -2 -46.5 -2.5t-62.5 -1.5t-60 -4t-38 -10l-53 -4q4 -54 4.5 -106.5t3.5 -106.5q13 1 36 4t50.5 6.5t56.5 7t55 4.5t46.5 -1t30.5 -9 q1 -8 4 -15t4.5 -13.5t1 -13.5t-5.5 -14q-10 -4 -33.5 -8t-54 -7.5t-65 -7t-66 -6t-57 -4t-37.5 -1.5q-11 0 -20 2.5t-16 8.5q-1 5 -1.5 9t-2.5 8q-4 17 -4.5 32.5t-3.5 32.5q-6 33 -6.5 67t1.5 69q4 72 6.5 143t6.5 143q2 37 3 71t-1 54q34 6 84.5 14t104.5 12.5t104.5 3.5 t85.5 -12q0 -7 0.5 -14t0.5 -15zM191 887q-21 -3 -33.5 -18.5t-15.5 -34.5t4 -38t25 -30q22 -14 40 -9t29.5 20t15.5 35.5t-1.5 38.5t-21 29t-42.5 7zM195 867q18 3 28 -4.5t13.5 -20t0.5 -26.5t-10.5 -24t-19 -13.5t-26.5 5.5q-13 7 -17.5 20.5t-2 26.5t11 23.5t22.5 12.5z M342 887q-22 -3 -34 -18.5t-15 -34t4.5 -37.5t24.5 -30q22 -14 39.5 -9.5t29 19t15.5 35.5t-1 39t-20 29t-43 7zM346 867q18 3 28 -4.5t13 -20t0.5 -26.5t-10.5 -24.5t-19.5 -14t-25.5 5.5q-12 8 -17 21.5t-2.5 26.5t11 23.5t22.5 12.5z" />
<glyph unicode="&#xcc;" horiz-adv-x="263" d="M62 146q-2 -36 -1 -68.5t8 -67.5q17 -2 34.5 -7.5t34.5 -5.5q32 -5 55 14q6 173 7 343t6 342q-9 2 -25.5 3t-23.5 6q-21 2 -34.5 2.5t-33.5 -13.5q-7 -29 -7 -59v-59q0 -32 -3 -64t-3 -64q0 -42 -1.5 -83t-3.5 -83h-2v-10q0 -31 -2.5 -62.5t-4.5 -63.5zM89 262 q4 47 5.5 93t1.5 93q0 32 3 64t3 64v53t5 53q11 7 21 6t21 -3q8 -4 18 -4.5t19 -1.5q-5 -165 -6 -328.5t-7 -329.5q-7 -4 -16 -5t-17 1q-14 0 -27 4.5t-27 6.5q-5 29 -5 58t1.5 58.5t4 59t2.5 58.5zM257 762h5q-15 46 -43.5 85.5t-65.5 69.5q-9 8 -22.5 7.5t-27 -6.5 t-24.5 -14.5t-15 -17.5q12 -26 30.5 -43.5t37 -33.5t35.5 -34.5t28 -46.5q6 2 15.5 4.5t19 6.5t17.5 9.5t10 13.5zM232 782l6 -14q-3 -5 -14.5 -9t-16.5 -6q-11 22 -27 38.5t-33 31t-33.5 29t-26.5 33.5q7 8 25 14.5t28 3.5q27 -23 53 -56t40 -65h-1z" />
<glyph unicode="&#xcd;" horiz-adv-x="263" d="M62 146q-2 -36 -1 -68.5t8 -67.5q17 -2 34.5 -7.5t34.5 -5.5q32 -5 55 14q6 173 7 343t6 342q-9 2 -25.5 3t-23.5 6q-21 2 -34.5 2.5t-33.5 -13.5q-7 -29 -7 -59v-59q0 -32 -3 -64t-3 -64q0 -42 -1.5 -83t-3.5 -83h-2v-10q0 -31 -2.5 -62.5t-4.5 -63.5zM89 262 q4 47 5.5 93t1.5 93q0 32 3 64t3 64v53t5 53q11 7 21 6t21 -3q8 -4 18 -4.5t19 -1.5q-5 -165 -6 -328.5t-7 -329.5q-7 -4 -16 -5t-17 1q-14 0 -27 4.5t-27 6.5q-5 29 -5 58t1.5 58.5t4 59t2.5 58.5zM91 782h-1q14 32 39.5 65t53.5 56q10 3 28 -3.5t25 -14.5 q-11 -19 -27 -33.5t-33 -29t-33.5 -31t-26.5 -38.5q-5 2 -16.5 6t-14.5 9zM66 762q3 -8 11 -13.5t17.5 -9.5t19 -6.5t14.5 -4.5q10 28 27.5 46.5t36 34.5t37 33.5t30.5 43.5q-4 9 -15 17.5t-24.5 14.5t-27 6.5t-22.5 -7.5q-37 -30 -65.5 -69.5t-43.5 -85.5h5z" />
<glyph unicode="&#xce;" horiz-adv-x="263" d="M62 146q-2 -36 -1 -68.5t8 -67.5q17 -2 34.5 -7.5t34.5 -5.5q32 -5 55 14q6 173 7 343t6 342q-9 2 -25.5 3t-23.5 6q-21 2 -34.5 2.5t-33.5 -13.5q-7 -29 -7 -59v-59q0 -32 -3 -64t-3 -64q0 -42 -1.5 -83t-3.5 -83h-2v-10q0 -31 -2.5 -62.5t-4.5 -63.5zM89 262 q4 47 5.5 93t1.5 93q0 32 3 64t3 64v53t5 53q11 7 21 6t21 -3q8 -4 18 -4.5t19 -1.5q-5 -165 -6 -328.5t-7 -329.5q-7 -4 -16 -5t-17 1q-14 0 -27 4.5t-27 6.5q-5 29 -5 58t1.5 58.5t4 59t2.5 58.5zM88 770q-6 -7 -8 -9q-17 -2 -28 0t-25 7l22 28t23 27q14 15 29.5 27.5 t29.5 27.5q14 -2 28.5 -1t28.5 0q17 -16 30.5 -33.5t30.5 -33.5q11 -11 23.5 -21.5t23.5 -21.5q-12 -4 -24 -6t-21 0q-8 4 -21 15.5t-27 25t-26 26.5t-18 20q-6 -5 -15 -13.5t-18 -18t-16.5 -19t-11.5 -15.5q-4 -4 -10 -12zM103 757q3 4 6 7t6 7q1 3 7.5 10.5t14 15.5 t13.5 14.5t8 8.5q17 -19 37 -39t42 -34q9 -7 21 -7.5t25 2.5t25 8t21 9q-15 19 -32 33.5t-34 31.5t-32.5 36.5t-34.5 36.5q-18 1 -36.5 0.5t-36.5 1.5q-8 -9 -16 -16.5t-17 -15.5q-31 -26 -50.5 -51.5t-46.5 -55.5q15 -6 25.5 -10t21 -6.5t22 -3t27.5 0.5q4 4 7.5 8t6.5 8z " />
<glyph unicode="&#xcf;" horiz-adv-x="263" d="M62 146q-2 -36 -1 -68.5t8 -67.5q17 -2 34.5 -7.5t34.5 -5.5q32 -5 55 14q6 173 7 343t6 342q-9 2 -25.5 3t-23.5 6q-21 2 -34.5 2.5t-33.5 -13.5q-7 -29 -7 -59v-59q0 -32 -3 -64t-3 -64q0 -42 -1.5 -83t-3.5 -83h-2v-10q0 -31 -2.5 -62.5t-4.5 -63.5zM89 262 q4 47 5.5 93t1.5 93q0 32 3 64t3 64v53t5 53q11 7 21 6t21 -3q8 -4 18 -4.5t19 -1.5q-5 -165 -6 -328.5t-7 -329.5q-7 -4 -16 -5t-17 1q-14 0 -27 4.5t-27 6.5q-5 29 -5 58t1.5 58.5t4 59t2.5 58.5zM73 887q-21 -3 -33.5 -18.5t-15.5 -34.5t4 -38t25 -30q22 -14 40 -9 t29.5 20t15.5 35.5t-1.5 38.5t-21 29t-42.5 7zM77 867q18 3 28 -4.5t13.5 -20t0.5 -26.5t-10.5 -24t-19.5 -13.5t-26 5.5q-13 7 -17.5 20.5t-2 26.5t11 23.5t22.5 12.5zM224 887q-22 -3 -34 -18.5t-15 -34t4.5 -37.5t24.5 -30q20 -13 38 -8t29.5 19.5t16.5 35t0.5 38.5 t-20 29t-44.5 6zM228 867q14 2 26 -8t16.5 -24.5t-1.5 -30.5t-28 -25q-16 -6 -28.5 5.5t-16.5 28.5t2.5 34t29.5 20z" />
<glyph unicode="&#xd0;" horiz-adv-x="672" d="M47 323l21 1q-1 -29 -2 -67t0.5 -78t6.5 -77.5t16 -65.5q9 -3 15.5 -7.5t12.5 -8t13.5 -6t18.5 -2.5q6 -2 12.5 -3t12.5 -5q52 -13 105 -5.5t101.5 29t91 54t74.5 71.5q42 51 67.5 109.5t31.5 125.5q4 42 -4 86.5t-27 84.5t-49 72.5t-71 51.5q-42 20 -88 27.5t-92 7.5 q-51 0 -108.5 -7.5t-105.5 -31.5q-5 -2 -7.5 -8t-4.5 -13.5t-3 -14.5t-2 -11q-7 -51 -8.5 -102.5t-1.5 -102.5q-12 -1 -24 -4t-20 -13q-2 -23 -0.5 -45.5t18.5 -41.5zM56 343q-8 11 -8 28t1 30q8 5 21.5 6t22.5 2v28t1 45.5t2 54t3 53.5t4.5 44.5t6.5 26.5q45 23 99 30 t105 7q45 0 88.5 -7.5t83.5 -25.5q37 -17 65 -47t45.5 -67.5t25 -79t3.5 -81.5q-5 -64 -29 -119.5t-66 -105.5q-31 -37 -71 -68t-85.5 -51t-94.5 -27.5t-97 3.5q-7 5 -14.5 6t-14.5 4q-10 0 -16 1.5t-10.5 4t-9 6t-12.5 7.5q-10 27 -14 66t-5 80.5t0.5 80.5t3.5 66zM207 135 q-3 48 -7 95.5t-6 95.5q12 0 33 0.5t43 1t42 2t32 4.5q10 3 12.5 16.5t1 30t-5.5 31t-7 18.5q-38 5 -75.5 4t-75.5 -3q0 11 0.5 33t2 45t4.5 43.5t8 28.5q4 5 18.5 6.5t19.5 1.5q30 4 63 7.5t64 3t58.5 -7.5t48.5 -24t33.5 -46.5t12.5 -75.5q1 -57 -18.5 -109.5t-55.5 -97.5 q-19 -24 -49 -48.5t-64 -41.5t-69 -22.5t-64 8.5zM337 353h-2q-36 -6 -80 -6t-81 -1q1 -57 5.5 -112t7.5 -111q37 -21 78 -17t79.5 22.5t71.5 45.5t53 53q33 42 53 93.5t24 105.5h2v10q0 67 -21 105.5t-57 57t-83.5 20t-99.5 -4.5q-5 -1 -17 -2t-25 -2.5t-25 -3.5t-16 -4 q-12 -6 -18 -30.5t-9 -54t-3 -57.5v-40v-10q39 2 79 4.5t80 -2.5q1 -5 2.5 -14t2 -18t0.5 -17q0 -7 -1 -10z" />
<glyph unicode="&#xd1;" horiz-adv-x="650" d="M103 662h-3q-10 -33 -15.5 -87t-8.5 -112.5t-4 -114t-2 -93.5q-1 -64 -2.5 -124t2.5 -124q10 -4 26.5 -6.5t35 -4t36 -2.5t29.5 -1q4 31 2.5 60t-1.5 60q0 35 1.5 68.5t1.5 68.5q-1 48 -0.5 95t2.5 95q4 -10 8.5 -20t9.5 -19q22 -37 43 -73t42 -73q17 -30 31.5 -60.5 t29.5 -61t32.5 -59.5t39.5 -55v-3l3 -1l1 -1l2 1q29 -1 52.5 3.5t50.5 18.5q3 21 2 40.5t-1 39.5v47q0 24 1 48q1 69 1 137t5 137q1 13 3.5 25t3.5 25q3 43 6.5 84.5t10.5 83.5q-2 10 1.5 20.5t-7.5 18.5q-5 3 -17.5 2.5t-27.5 -2.5t-29.5 -4.5t-21.5 -2.5q-2 -2 -2.5 -3 l-0.5 -1l-0.5 -0.5t-1.5 -0.5q-8 -1 -13 -3t-8 -11q-3 -11 -5.5 -32t-4 -47.5t-3 -57t-2.5 -60.5t-1.5 -58t-1.5 -50q-1 -12 -1.5 -25.5t-2.5 -24.5l-1 -6q2 -19 2 -38q0 -18 -2 -36q-57 97 -113 194t-111 196q-20 0 -39 2t-39 -1q-8 1 -15.5 2t-10.5 -10zM459 35v6l-10 -3 q-21 25 -37 53t-30.5 57t-28 59t-29.5 58q-21 37 -42.5 73t-42.5 73q-10 17 -18 38q-8 20 -17 38l-19 38q-2 -69 -3.5 -137.5t-0.5 -137.5q0 -35 -1.5 -68.5t-1.5 -68.5q0 -25 1.5 -49.5t-0.5 -50.5q-23 2 -45 3.5t-44 5.5q-4 58 -2.5 116t2.5 117q1 36 2 91t3.5 112.5 t8 110t15.5 85.5q4 -1 7 -1.5t8 0.5q14 2 29 1l30 -2q62 -110 125 -218.5t127 -217.5q2 34 5.5 69.5t-1.5 70.5q2 5 2 9t1 9q3 36 3.5 72.5t1.5 73.5q1 30 2.5 60t3 56t4 45.5t5.5 29.5q5 0 7.5 0.5t6.5 3.5l2 1q18 2 36.5 6t37.5 4q-1 -5 -2 -10.5t0 -11.5 q-7 -42 -10.5 -83t-6.5 -83q-1 -13 -3.5 -25t-3.5 -25q-5 -69 -5 -138t-1 -138q-1 -24 -1 -48v-47q0 -17 1.5 -33t-0.5 -33q-17 -8 -35 -12t-36 -4zM319 785q29 -13 51 -18t41 -0.5t36.5 19t37.5 40.5q-5 13 -8 22.5t-8 15.5t-14.5 9.5t-25.5 6.5q-7 -9 -19 -23.5t-24 -14.5 q-7 0 -20 6q-28 12 -50 22.5t-43 12.5t-42 -7.5t-47 -37.5q-14 -15 -15 -27.5t6.5 -22.5t21 -17t27.5 -12q3 5 8 12.5t11 14.5t13 12t13 5q3 0 10 -2.5t14.5 -5.5t14.5 -6t11 -4zM327 803q-20 9 -34.5 14.5t-27 4.5t-24 -10t-25.5 -29q-5 2 -10 5t-9 7q-11 9 -8.5 15 t10.5 14q31 33 56.5 37t48 -4.5t42.5 -21.5t40 -13q17 0 29.5 12t21.5 24q15 -3 18 -9t8 -19q-17 -21 -31 -31.5t-29.5 -13.5t-33.5 2t-42 16z" />
<glyph unicode="&#xd2;" d="M505 696q-8 5 -20.5 10t-27 8.5t-28 5t-23.5 -0.5q-23 5 -51 2.5t-57 -10t-55.5 -18.5t-45.5 -22q-42 -25 -73 -64.5t-51.5 -86t-30 -96.5t-8.5 -96q1 -49 8.5 -103t32.5 -99q42 -75 108.5 -112t152.5 -37q63 0 114 24.5t89.5 65.5t64.5 95.5t38 114.5t10 122t-18.5 118 t-48.5 102.5t-80 76.5zM495 680q61 -38 94.5 -103.5t41.5 -141.5t-8.5 -154t-54.5 -141t-96.5 -103t-135.5 -40q-81 0 -142.5 34t-100.5 105q-23 42 -30.5 92.5t-8.5 99.5q-1 44 8 92t28.5 92t48.5 81t68 60q18 11 43.5 21t53 17t54.5 9.5t48 -1.5q8 2 20.5 0.5t25.5 -4.5 t24.5 -7t18.5 -8zM192 171q-20 34 -28 79t-5 93.5t16.5 95.5t38 84.5t59.5 61.5t80 25q47 1 79 -20t51.5 -56t27.5 -79.5t5.5 -90.5t-14 -89t-29.5 -75q-24 -43 -55 -65t-80 -28q-45 -5 -84 10.5t-62 53.5zM174 161q26 -45 72 -62.5t94 -11.5q54 7 89 31.5t62 71.5 q17 31 29 76t15 94t-4.5 98t-29 88t-57.5 62.5t-91 21.5q-52 -2 -90.5 -27.5t-65 -66.5t-41 -91.5t-17.5 -102t6 -99.5t29 -82zM372 808q23 -19 37 -35t25 -45q13 5 30 10t26 15q8 9 5 24.5t-13 33.5t-24.5 37t-29 34.5t-26 26t-16.5 12.5q-10 4 -22.5 2t-24.5 -7t-21.5 -13 t-13.5 -17q12 -26 29.5 -43t38.5 -35zM385 823q-17 14 -32.5 28.5t-26.5 33.5q8 8 26 14.5t28 3.5q9 -3 24.5 -20.5t31 -39.5t27.5 -42.5t14 -30.5q1 -3 -3.5 -5.5t-10 -5t-11 -4t-6.5 -2.5q-11 23 -27.5 39.5t-33.5 30.5z" />
<glyph unicode="&#xd3;" d="M505 696q-8 5 -20.5 10t-27 8.5t-28 5t-23.5 -0.5q-23 5 -51 2.5t-57 -10t-55.5 -18.5t-45.5 -22q-42 -25 -73 -64.5t-51.5 -86t-30 -96.5t-8.5 -96q1 -49 8.5 -103t32.5 -99q42 -75 108.5 -112t152.5 -37q63 0 114 24.5t89.5 65.5t64.5 95.5t38 114.5t10 122t-18.5 118 t-48.5 102.5t-80 76.5zM495 680q61 -38 94.5 -103.5t41.5 -141.5t-8.5 -154t-54.5 -141t-96.5 -103t-135.5 -40q-81 0 -142.5 34t-100.5 105q-23 42 -30.5 92.5t-8.5 99.5q-1 44 8 92t28.5 92t48.5 81t68 60q18 11 43.5 21t53 17t54.5 9.5t48 -1.5q8 2 20.5 0.5t25.5 -4.5 t24.5 -7t18.5 -8zM192 171q-20 34 -28 79t-5 93.5t16.5 95.5t38 84.5t59.5 61.5t80 25q47 1 79 -20t51.5 -56t27.5 -79.5t5.5 -90.5t-14 -89t-29.5 -75q-24 -43 -55 -65t-80 -28q-45 -5 -84 10.5t-62 53.5zM174 161q26 -45 72 -62.5t94 -11.5q54 7 89 31.5t62 71.5 q17 31 29 76t15 94t-4.5 98t-29 88t-57.5 62.5t-91 21.5q-52 -2 -90.5 -27.5t-65 -66.5t-41 -91.5t-17.5 -102t6 -99.5t29 -82zM407 823q-17 -14 -33.5 -30.5t-27.5 -39.5q-6 2 -15.5 5.5t-14.5 8.5q-4 4 1 15.5t14.5 26t22.5 31t25 30t21 23t12 10.5q10 3 28 -3.5t26 -14.5 q-11 -19 -26.5 -33.5t-32.5 -28.5zM420 808q21 18 38.5 35t29.5 43q-4 9 -13.5 17t-21.5 13t-24.5 7t-22.5 -2q-12 -4 -30 -23t-35.5 -43t-30.5 -46.5t-15 -34.5q-2 -11 5 -18.5t17.5 -13t22 -8.5t18.5 -6q11 29 25 45t37 35z" />
<glyph unicode="&#xd4;" d="M505 696q-8 5 -20.5 10t-27 8.5t-28 5t-23.5 -0.5q-23 5 -51 2.5t-57 -10t-55.5 -18.5t-45.5 -22q-42 -25 -73 -64.5t-51.5 -86t-30 -96.5t-8.5 -96q1 -49 8.5 -103t32.5 -99q42 -75 108.5 -112t152.5 -37q63 0 114 24.5t89.5 65.5t64.5 95.5t38 114.5t10 122t-18.5 118 t-48.5 102.5t-80 76.5zM495 680q61 -38 94.5 -103.5t41.5 -141.5t-8.5 -154t-54.5 -141t-96.5 -103t-135.5 -40q-81 0 -142.5 34t-100.5 105q-23 42 -30.5 92.5t-8.5 99.5q-1 44 8 92t28.5 92t48.5 81t68 60q18 11 43.5 21t53 17t54.5 9.5t48 -1.5q8 2 20.5 0.5t25.5 -4.5 t24.5 -7t18.5 -8zM192 171q-20 34 -28 79t-5 93.5t16.5 95.5t38 84.5t59.5 61.5t80 25q47 1 79 -20t51.5 -56t27.5 -79.5t5.5 -90.5t-14 -89t-29.5 -75q-24 -43 -55 -65t-80 -28q-45 -5 -84 10.5t-62 53.5zM174 161q26 -45 72 -62.5t94 -11.5q54 7 89 31.5t62 71.5 q17 31 29 76t15 94t-4.5 98t-29 88t-57.5 62.5t-91 21.5q-52 -2 -90.5 -27.5t-65 -66.5t-41 -91.5t-17.5 -102t6 -99.5t29 -82zM515 767q-11 -4 -23 -6t-20 0q-6 2 -20 14t-29 26.5t-28 28t-17 18.5q-23 -20 -40.5 -43t-37.5 -44q-17 -2 -28 0t-25 7l22 28t23 27 q14 14 29 27t29 28q14 -2 28.5 -1t29.5 0q26 -26 49 -55t54 -49q1 -2 2 -3t2 -3zM330 765q11 14 22 28.5t24 26.5q19 -19 38.5 -39t42.5 -34q9 -6 21 -6.5t24.5 2t24.5 7.5t21 9q-5 7 -11.5 13.5t-11.5 14.5q-32 22 -56.5 52t-52.5 58q-19 1 -37 0.5t-37 1.5 q-14 -17 -31.5 -31.5t-32.5 -30.5q-17 -18 -32.5 -38t-32.5 -39q14 -6 24.5 -10t21 -6.5t22 -3t27.5 0.5q6 6 11.5 12t10.5 12z" />
<glyph unicode="&#xd5;" d="M505 696q-8 5 -20.5 10t-27 8.5t-28 5t-23.5 -0.5q-23 5 -51 2.5t-57 -10t-55.5 -18.5t-45.5 -22q-42 -25 -73 -64.5t-51.5 -86t-30 -96.5t-8.5 -96q1 -49 8.5 -103t32.5 -99q42 -75 108.5 -112t152.5 -37q63 0 114 24.5t89.5 65.5t64.5 95.5t38 114.5t10 122t-18.5 118 t-48.5 102.5t-80 76.5zM495 680q61 -38 94.5 -103.5t41.5 -141.5t-8.5 -154t-54.5 -141t-96.5 -103t-135.5 -40q-81 0 -142.5 34t-100.5 105q-23 42 -30.5 92.5t-8.5 99.5q-1 44 8 92t28.5 92t48.5 81t68 60q18 11 43.5 21t53 17t54.5 9.5t48 -1.5q8 2 20.5 0.5t25.5 -4.5 t24.5 -7t18.5 -8zM192 171q-20 34 -28 79t-5 93.5t16.5 95.5t38 84.5t59.5 61.5t80 25q47 1 79 -20t51.5 -56t27.5 -79.5t5.5 -90.5t-14 -89t-29.5 -75q-24 -43 -55 -65t-80 -28q-45 -5 -84 10.5t-62 53.5zM174 161q26 -45 72 -62.5t94 -11.5q54 7 89 31.5t62 71.5 q17 31 29 76t15 94t-4.5 98t-29 88t-57.5 62.5t-91 21.5q-52 -2 -90.5 -27.5t-65 -66.5t-41 -91.5t-17.5 -102t6 -99.5t29 -82zM369 785q29 -13 51 -18t41 -0.5t36.5 19t37.5 40.5q-5 13 -8 22.5t-8 15.5t-14.5 9.5t-25.5 6.5q-7 -9 -19 -23.5t-24 -14.5q-7 0 -20 6 q-28 12 -50 22.5t-43 12.5t-42 -7.5t-47 -37.5q-14 -15 -15 -27.5t6.5 -22.5t21 -17t27.5 -12q3 5 8 12.5t11 14.5t13 12t13 5q3 0 10 -2.5t14.5 -5.5t14.5 -6t11 -4zM377 803q-20 9 -34.5 14.5t-27 4.5t-24 -10t-25.5 -29q-5 2 -10 5t-9 7q-11 9 -8.5 15t10.5 14 q31 33 56.5 37t48 -4.5t42.5 -21.5t40 -13q17 0 29.5 12t21.5 24q15 -3 18 -9t8 -19q-17 -21 -31 -31.5t-29.5 -13.5t-33.5 2t-42 16z" />
<glyph unicode="&#xd6;" d="M505 696q-8 5 -20.5 10t-27 8.5t-28 5t-23.5 -0.5q-23 5 -51 2.5t-57 -10t-55.5 -18.5t-45.5 -22q-42 -25 -73 -64.5t-51.5 -86t-30 -96.5t-8.5 -96q1 -49 8.5 -103t32.5 -99q42 -75 108.5 -112t152.5 -37q63 0 114 24.5t89.5 65.5t64.5 95.5t38 114.5t10 122t-18.5 118 t-48.5 102.5t-80 76.5zM495 680q61 -38 94.5 -103.5t41.5 -141.5t-8.5 -154t-54.5 -141t-96.5 -103t-135.5 -40q-81 0 -142.5 34t-100.5 105q-23 42 -30.5 92.5t-8.5 99.5q-1 44 8 92t28.5 92t48.5 81t68 60q18 11 43.5 21t53 17t54.5 9.5t48 -1.5q8 2 20.5 0.5t25.5 -4.5 t24.5 -7t18.5 -8zM192 171q-20 34 -28 79t-5 93.5t16.5 95.5t38 84.5t59.5 61.5t80 25q47 1 79 -20t51.5 -56t27.5 -79.5t5.5 -90.5t-14 -89t-29.5 -75q-24 -43 -55 -65t-80 -28q-45 -5 -84 10.5t-62 53.5zM174 161q26 -45 72 -62.5t94 -11.5q54 7 89 31.5t62 71.5 q17 31 29 76t15 94t-4.5 98t-29 88t-57.5 62.5t-91 21.5q-52 -2 -90.5 -27.5t-65 -66.5t-41 -91.5t-17.5 -102t6 -99.5t29 -82zM301 887q-21 -3 -33.5 -18.5t-15.5 -34.5t4 -38t25 -30q22 -14 40 -9t29.5 20t15.5 35.5t-1.5 38.5t-21 29t-42.5 7zM305 867q18 3 28 -4.5 t13.5 -20t0.5 -26.5t-10.5 -24t-19 -13.5t-26.5 5.5q-13 7 -17.5 20.5t-2 26.5t11 23.5t22.5 12.5zM452 887q-22 -3 -34 -18.5t-15 -34t4.5 -37.5t24.5 -30q22 -14 39.5 -9.5t29 19t15.5 35.5t-1 39t-20.5 29t-42.5 7zM456 867q18 3 28 -4.5t13 -20t0.5 -26.5t-10.5 -24.5 t-19.5 -14t-25.5 5.5q-12 8 -17 21.5t-2.5 26.5t11 23.5t22.5 12.5z" />
<glyph unicode="&#xd7;" horiz-adv-x="548" d="M215 420l-13.5 13.5t-18 17.5t-19 17t-16.5 12q-8 -3 -18.5 -12t-20 -20.5t-16.5 -23t-8 -20.5q23 -32 50.5 -61.5t54.5 -58.5q-11 -11 -28.5 -29.5t-35.5 -38.5q-5 -6 -15 -16t-19 -22t-15.5 -24.5t-4.5 -21.5q15 -17 30.5 -31t41.5 -13q29 31 58 61l58 60 q10 -11 25.5 -27t32.5 -32l14 -14t19.5 -17.5t22 -14t20.5 -3.5q17 16 33 33t17 43q-25 30 -51.5 57.5t-53.5 55.5q4 4 24.5 25t43.5 46t41.5 46.5t18.5 27.5q0 7 -8.5 17t-20 18.5t-23 14.5t-17.5 6q-35 -30 -66.5 -62t-63.5 -65q-9 10 -23 25t-30 31zM92 139q6 13 22.5 33 t36 41.5t38.5 40.5t29 30q-29 31 -58 61t-54 64q2 4 7 11t11 14t12 13.5t11 9.5q14 -11 30 -26t32 -32t31 -33.5t28 -29.5q34 34 67 68t70 66q8 -4 22.5 -16.5t18.5 -17.5l-2 -3q-28 -37 -64.5 -73t-68.5 -70q29 -29 57.5 -58.5t55.5 -60.5q-3 -14 -15.5 -27.5t-22.5 -23.5 l-3 2q-12 6 -29 21t-34.5 32.5t-33.5 34.5t-26 27q-32 -32 -63 -64t-62 -65q-13 2 -24 12t-19 19z" />
<glyph unicode="&#xd8;" d="M413 600q-58 -107 -112 -215.5t-107 -218.5q-22 33 -31 78t-6 94t17.5 97t39.5 86.5t60 63t79 25.5q29 1 60 -10zM436 600l5 9q-23 11 -43 16.5t-45 4.5q-61 -2 -104 -33.5t-69 -79.5t-36.5 -106.5t-7.5 -113.5t19 -100.5t43 -67.5q57 119 115.5 237t122.5 234zM297 124 q48 98 96.5 195.5t100.5 194.5q15 -35 20 -76.5t2 -83.5t-14 -82.5t-29 -71.5q-24 -43 -55 -65.5t-80 -27.5q-25 -3 -49 0q2 5 4 8.5t4 8.5zM279 132q-5 -10 -10 -19.5t-10 -19.5q22 -5 40 -6.5t41 0.5q54 6 89.5 31.5t61.5 71.5q23 40 34.5 87.5t11.5 95.5q0 49 -10.5 96.5 t-32.5 87.5q-57 -106 -109.5 -211.5t-105.5 -213.5zM618 737q-7 13 -19.5 19.5t-27 8.5t-29.5 1t-26 -4q-12 -10 -22.5 -24.5t-18.5 -28.5q-14 5 -34 9.5t-35 0.5q-23 3 -51 0.5t-57 -9.5t-55.5 -17.5t-45.5 -21.5q-42 -26 -73 -65.5t-51.5 -86t-30 -96t-8.5 -95.5 q1 -39 5.5 -77.5t15.5 -75t31 -69.5t52 -60q-10 -21 -19.5 -41.5t-17.5 -41.5q7 -10 19.5 -15.5t27 -8t29 -3.5t25.5 -3l14 30t15 31q70 -24 129.5 -18t108 33.5t85 73.5t60 101.5t33 118t4 123.5t-26.5 117t-59 99q14 23 28 45l28 44zM597 732l-28 -46l-28 -46 q27 -29 46 -75.5t28.5 -101t8 -114.5t-16.5 -115.5t-45 -103t-77 -79t-112.5 -42t-151.5 8.5q-8 -16 -15.5 -31.5t-15.5 -31.5q-13 2 -34 4t-32 8q9 22 19 43t19 42l-6 5q-41 33 -65 82.5t-33 107t-3 118.5t25 116t51 100.5t76 71.5q18 11 43.5 21t53 16.5t54.5 9.5t48 -1 q16 4 39.5 -2.5t39.5 -11.5q8 13 19 31t22 28q19 5 40 2.5t31 -14.5z" />
<glyph unicode="&#xd9;" horiz-adv-x="587" d="M108 655q-12 -2 -21 -5.5t-19 -10.5q-15 -92 -19 -182t-2 -182q0 -27 5 -60.5t16 -66.5t28 -61.5t41 -46.5q39 -29 91.5 -44.5t104.5 -12.5t97.5 27t72.5 75q28 54 41 112.5t14 118.5q1 17 0 34.5t0 34.5q6 103 6 207q0 17 0.5 34t-1.5 34q-58 1 -116 -3l-2 -6 q-1 -3 -2.5 -26.5t-2.5 -58t-1.5 -74.5t-1.5 -77t-1.5 -65.5t-0.5 -38.5q0 -15 -0.5 -36t-2.5 -42t-6.5 -40t-13.5 -32q-24 -37 -57 -54t-65.5 -14t-60.5 25.5t-43 64.5q-9 28 -13 70.5t-3.5 88t3.5 89.5t7 75l8 52t6 52q3 32 -8 41.5t-43 9.5q-9 -2 -17.5 -3t-17.5 -3z M111 635q9 2 17.5 3t16.5 3q10 0 18 -0.5t12 -11.5q1 -11 -1 -27t-4.5 -33t-5.5 -33.5t-4 -27.5q-4 -30 -7 -74.5t-3 -92.5q0 -47 4 -91t14 -73q16 -49 49 -74.5t70.5 -29t75.5 15.5t65 60q10 15 15.5 35.5t8 43t3 44t0.5 39.5q2 82 4 163.5t4 164.5q21 1 41 1.5t41 -0.5 q1 -12 0 -24t-1 -24q0 -103 -6 -205q-1 -18 0 -35.5t0 -35.5q-1 -58 -13.5 -114t-39.5 -107q-23 -45 -64.5 -67t-89 -25t-96 11.5t-86.5 41.5q-21 15 -36.5 41.5t-25.5 57t-15 62t-5 58.5q-1 88 2 176.5t17 175.5q5 3 11.5 4.5t13.5 3.5zM433 762h5q-15 46 -43.5 85.5 t-65.5 69.5q-9 8 -22.5 7.5t-27 -6.5t-24.5 -14.5t-15 -17.5q12 -26 30.5 -43.5t37 -33.5t35.5 -34.5t28 -46.5q6 2 15.5 4.5t19 6.5t17.5 9.5t10 13.5zM408 782l6 -14q-3 -5 -14.5 -9t-16.5 -6q-11 22 -27 38.5t-33 31t-33.5 29t-26.5 33.5q7 8 25 14.5t28 3.5 q27 -23 53 -56t40 -65h-1z" />
<glyph unicode="&#xda;" horiz-adv-x="587" d="M108 655q-12 -2 -21 -5.5t-19 -10.5q-15 -92 -19 -182t-2 -182q0 -27 5 -60.5t16 -66.5t28 -61.5t41 -46.5q39 -29 91.5 -44.5t104.5 -12.5t97.5 27t72.5 75q28 54 41 112.5t14 118.5q1 17 0 34.5t0 34.5q6 103 6 207q0 17 0.5 34t-1.5 34q-58 1 -116 -3l-2 -6 q-1 -3 -2.5 -26.5t-2.5 -58t-1.5 -74.5t-1.5 -77t-1.5 -65.5t-0.5 -38.5q0 -15 -0.5 -36t-2.5 -42t-6.5 -40t-13.5 -32q-24 -37 -57 -54t-65.5 -14t-60.5 25.5t-43 64.5q-9 28 -13 70.5t-3.5 88t3.5 89.5t7 75l8 52t6 52q3 32 -8 41.5t-43 9.5q-9 -2 -17.5 -3t-17.5 -3z M111 635q9 2 17.5 3t16.5 3q10 0 18 -0.5t12 -11.5q1 -11 -1 -27t-4.5 -33t-5.5 -33.5t-4 -27.5q-4 -30 -7 -74.5t-3 -92.5q0 -47 4 -91t14 -73q16 -49 49 -74.5t70.5 -29t75.5 15.5t65 60q10 15 15.5 35.5t8 43t3 44t0.5 39.5q2 82 4 163.5t4 164.5q21 1 41 1.5t41 -0.5 q1 -12 0 -24t-1 -24q0 -103 -6 -205q-1 -18 0 -35.5t0 -35.5q-1 -58 -13.5 -114t-39.5 -107q-23 -45 -64.5 -67t-89 -25t-96 11.5t-86.5 41.5q-21 15 -36.5 41.5t-25.5 57t-15 62t-5 58.5q-1 88 2 176.5t17 175.5q5 3 11.5 4.5t13.5 3.5zM343 823q-17 -14 -33.5 -30.5 t-27.5 -39.5q-2 1 -7 2.5t-10.5 3.5t-9.5 5t-3 6q2 10 14 30.5t27.5 42.5t31 39.5t24.5 20.5q10 3 28 -3.5t25 -14.5q-10 -19 -26 -33.5t-33 -28.5zM356 808q22 18 39 35t30 43q-4 9 -13.5 17t-21.5 13t-24.5 7t-22.5 -2q-12 -4 -30 -23t-35.5 -43t-30.5 -46.5t-15 -34.5 t4.5 -19.5t17 -12.5t21.5 -8t19 -6q11 29 25 45t37 35z" />
<glyph unicode="&#xdb;" horiz-adv-x="587" d="M108 655q-12 -2 -21 -5.5t-19 -10.5q-15 -92 -19 -182t-2 -182q0 -27 5 -60.5t16 -66.5t28 -61.5t41 -46.5q39 -29 91.5 -44.5t104.5 -12.5t97.5 27t72.5 75q28 54 41 112.5t14 118.5q1 17 0 34.5t0 34.5q6 103 6 207q0 17 0.5 34t-1.5 34q-58 1 -116 -3l-2 -6 q-1 -3 -2.5 -26.5t-2.5 -58t-1.5 -74.5t-1.5 -77t-1.5 -65.5t-0.5 -38.5q0 -15 -0.5 -36t-2.5 -42t-6.5 -40t-13.5 -32q-24 -37 -57 -54t-65.5 -14t-60.5 25.5t-43 64.5q-9 28 -13 70.5t-3.5 88t3.5 89.5t7 75l8 52t6 52q3 32 -8 41.5t-43 9.5q-9 -2 -17.5 -3t-17.5 -3z M111 635q9 2 17.5 3t16.5 3q10 0 18 -0.5t12 -11.5q1 -11 -1 -27t-4.5 -33t-5.5 -33.5t-4 -27.5q-4 -30 -7 -74.5t-3 -92.5q0 -47 4 -91t14 -73q16 -49 49 -74.5t70.5 -29t75.5 15.5t65 60q10 15 15.5 35.5t8 43t3 44t0.5 39.5q2 82 4 163.5t4 164.5q21 1 41 1.5t41 -0.5 q1 -12 0 -24t-1 -24q0 -103 -6 -205q-1 -18 0 -35.5t0 -35.5q-1 -58 -13.5 -114t-39.5 -107q-23 -45 -64.5 -67t-89 -25t-96 11.5t-86.5 41.5q-21 15 -36.5 41.5t-25.5 57t-15 62t-5 58.5q-1 88 2 176.5t17 175.5q5 3 11.5 4.5t13.5 3.5zM295 878q14 -2 28.5 -1t28.5 0 q26 -26 49 -55t54 -49q1 -2 2 -3t2 -3q-11 -4 -23 -6t-20 0q-5 1 -18.5 13t-29 27t-29 29t-17.5 18q-25 -21 -40.5 -44t-37.5 -43q-17 -2 -28 0t-25 7q24 27 47 53.5t49 49.5q2 2 3.5 3t3.5 2zM275 764q11 14 21.5 28.5t24.5 27.5q18 -19 37.5 -39t42.5 -34q9 -6 21 -6.5 t24.5 2t24.5 7.5t21 9q-5 7 -11.5 13.5t-11.5 14.5q-32 22 -56.5 52t-52.5 58q-18 1 -36.5 0.5t-36.5 1.5l-4 -5l-2 -2q0 -1 -1 -2h-1l-2 -1q-34 -29 -62 -62.5t-58 -66.5q15 -6 25.5 -10t20.5 -6.5t21.5 -3t27.5 0.5q12 11 23 23z" />
<glyph unicode="&#xdc;" horiz-adv-x="587" d="M108 655q-12 -2 -21 -5.5t-19 -10.5q-15 -92 -19 -182t-2 -182q0 -27 5 -60.5t16 -66.5t28 -61.5t41 -46.5q39 -29 91.5 -44.5t104.5 -12.5t97.5 27t72.5 75q28 54 41 112.5t14 118.5q1 17 0 34.5t0 34.5q6 103 6 207q0 17 0.5 34t-1.5 34q-58 1 -116 -3l-2 -6 q-1 -3 -2.5 -26.5t-2.5 -58t-1.5 -74.5t-1.5 -77t-1.5 -65.5t-0.5 -38.5q0 -15 -0.5 -36t-2.5 -42t-6.5 -40t-13.5 -32q-24 -37 -57 -54t-65.5 -14t-60.5 25.5t-43 64.5q-9 28 -13 70.5t-3.5 88t3.5 89.5t7 75l8 52t6 52q3 32 -8 41.5t-43 9.5q-9 -2 -17.5 -3t-17.5 -3z M111 635q9 2 17.5 3t16.5 3q10 0 18 -0.5t12 -11.5q1 -11 -1 -27t-4.5 -33t-5.5 -33.5t-4 -27.5q-4 -30 -7 -74.5t-3 -92.5q0 -47 4 -91t14 -73q16 -49 49 -74.5t70.5 -29t75.5 15.5t65 60q10 15 15.5 35.5t8 43t3 44t0.5 39.5q2 82 4 163.5t4 164.5q21 1 41 1.5t41 -0.5 q1 -12 0 -24t-1 -24q0 -103 -6 -205q-1 -18 0 -35.5t0 -35.5q-1 -58 -13.5 -114t-39.5 -107q-23 -45 -64.5 -67t-89 -25t-96 11.5t-86.5 41.5q-21 15 -36.5 41.5t-25.5 57t-15 62t-5 58.5q-1 88 2 176.5t17 175.5q5 3 11.5 4.5t13.5 3.5zM241 887q-21 -3 -33.5 -18.5 t-15.5 -34.5t4 -38t25 -30q22 -14 40 -9t29.5 20t15.5 35.5t-1.5 38.5t-21 29t-42.5 7zM245 867q18 3 28 -4.5t13.5 -20t0.5 -26.5t-10.5 -24t-19.5 -13.5t-26 5.5q-13 7 -17.5 20.5t-2 26.5t11 23.5t22.5 12.5zM392 887q-22 -3 -34 -18.5t-15 -34t4.5 -37.5t24.5 -30 q22 -14 39.5 -9.5t29 19t15.5 35.5t-1 39t-20 29t-43 7zM396 867q18 3 28 -4.5t13 -20t0.5 -26.5t-10.5 -24.5t-19.5 -14t-25.5 5.5q-12 8 -17 21.5t-2.5 26.5t11 23.5t22.5 12.5z" />
<glyph unicode="&#xdd;" horiz-adv-x="559" d="M262 397q-47 68 -85 140.5t-70 147.5q-14 3 -28 -0.5t-27.5 -9.5t-26.5 -13t-26 -11q0 -18 12.5 -49.5t31 -69t41.5 -77.5t45 -76t40 -64t27 -41q10 -60 7 -121.5t-1 -122.5v-16t1 -15q1 -9 14.5 -12.5t29.5 -3.5q17 0 32.5 2t20.5 3q13 3 20 7t9.5 10.5t2.5 15.5v21 q0 14 -0.5 32t-1.5 37q0 14 -1.5 35t-2.5 43.5t0 44t4 36.5q0 2 11.5 22t28 49.5t36 64t37.5 65.5t31.5 54.5t17.5 30.5q20 29 40.5 57t35.5 60q-12 16 -21.5 26.5t-20.5 17.5t-25 10.5t-34 5.5q-18 -18 -44 -56.5t-51.5 -81.5t-47.5 -83.5t-34 -62.5l-13.5 -27t-14.5 -25z M222 5q-3 35 -1.5 69t2 68.5t-0.5 69t-8 70.5q-9 13 -26 39.5t-37.5 60t-42.5 71.5t-40.5 73t-31.5 64.5t-16 46.5q15 7 36.5 18t36.5 11q33 -78 72.5 -151t88.5 -142h15q7 8 12.5 17t10.5 18q15 29 38 72t48.5 87.5t50.5 84t46 61.5q26 -3 39.5 -12t29.5 -30 q-14 -29 -32.5 -53.5t-35.5 -51.5q-4 -6 -18 -29.5t-32 -54.5t-38 -66.5t-37 -65.5t-28.5 -51.5t-12.5 -24.5q-3 -14 -4 -28t0 -27q2 -45 4 -88.5t2 -88.5q-1 -8 -0.5 -15t-1.5 -14q-6 -3 -18 -5.5t-25.5 -3.5t-25.5 -1t-19 2zM209 782h-1q14 32 39.5 65t53.5 56 q10 3 28 -3.5t25 -14.5q-11 -19 -27 -33.5t-33 -29t-33.5 -31t-26.5 -38.5q-5 2 -16.5 6t-14.5 9zM184 762q3 -8 11 -13.5t17.5 -9.5t19 -6.5t14.5 -4.5q10 28 27.5 46.5t36 34.5t37 33.5t30.5 43.5q-4 9 -15 17.5t-24.5 14.5t-27 6.5t-22.5 -7.5q-37 -30 -65.5 -69.5 t-43.5 -85.5h5z" />
<glyph unicode="&#xde;" horiz-adv-x="514" d="M161 16q1 29 2.5 58t1.5 58l4 -1q17 -2 35 -3t35 -1q57 -1 104 21.5t79 59t49 83.5t14.5 95t-25.5 93.5t-69 78.5q-13 9 -30 16.5t-35.5 12t-37 6.5t-33.5 1q-21 -1 -42 -1t-41 -4q0 26 0.5 53t1.5 54q-10 2 -24 2t-22 4l-6 3q-20 2 -33 2t-32 -13q-7 -29 -7 -59v-59 q0 -32 -3 -64t-3 -64q0 -42 -1.5 -83t-3.5 -83h-2v-10q0 -33 -2.5 -65.5t-4 -65.5t-0.5 -65.5t7 -65.5q17 -2 34.5 -8t34.5 -5q32 -5 55 14v5zM57 262q4 47 5.5 93t1.5 93q0 32 3 64t3 64v53t5 53q11 7 21 6t21 -3q7 -4 17.5 -4.5t18.5 -1.5q0 -26 -0.5 -52t-0.5 -52v-17 l14 7t12 4.5t12.5 2t16.5 0.5q43 3 90 -1t82 -29q42 -30 63 -71.5t23 -85.5t-13 -87t-44.5 -77t-72.5 -54.5t-96 -19.5q-6 0 -18 0.5t-25 1.5q-10 0 -16 0.5t-11 1.5t-10.5 4t-13.5 8q0 -36 -1 -71t-3 -71q-8 -4 -16.5 -5t-16.5 1q-14 -2 -27.5 3.5t-26.5 7.5q-5 29 -5 58 t1.5 58.5t4 59t2.5 58.5zM169 244l-1 5q-2 51 -0.5 102.5t1.5 103.5q20 24 53.5 29.5t65.5 -5t55 -35t23 -60.5q-1 -42 -14 -69t-33.5 -43.5t-44.5 -24t-46 -9t-38 0.5t-21 5zM148 341q0 -25 -1 -50t2 -50q1 -14 19.5 -21.5t44.5 -7t56.5 10.5t56.5 30.5t43 53t17 77.5 q0 44 -28 74t-66.5 41t-78.5 2.5t-64 -40.5v-3v-17q0 -11 -0.5 -27t-0.5 -35v-38z" />
<glyph unicode="&#xdf;" horiz-adv-x="520" d="M137 113q0 42 2 82t0 82q1 0 1 2q0 18 1 49t5 66t12 70.5t21.5 64.5t33.5 47t48 18h17q8 0 14.5 -2.5t11 -9t8.5 -18.5q6 -21 1.5 -35t-15.5 -25.5t-26 -21.5t-28.5 -21.5t-22.5 -26.5t-9 -36q0 -9 3 -22t9 -25t15 -20.5t20 -9.5q12 -7 28.5 -13t32 -12.5t29 -15 t20.5 -20.5q11 -18 15.5 -39t2.5 -41.5t-10.5 -39.5t-24.5 -32q-15 -12 -34 -17t-40 -7t-42 -2.5t-39 -4.5q-2 -18 -4 -35.5t-1 -36.5q26 -11 47 -13t48 -2q82 0 132.5 41t64.5 122q6 35 4 63.5t-12.5 52.5t-29.5 45t-48 41q-10 7 -20 12t-21 10q-3 1 -11 3.5t-17 5.5 t-16 6.5t-8 5.5q0 8 14 19.5t32 26.5t34.5 32.5t22.5 36.5q8 27 4 55.5t-17.5 53t-36 42t-51.5 23.5l-6 -1q-26 7 -48.5 3t-45.5 -12q-50 -16 -81 -46.5t-49.5 -69t-26 -83t-9.5 -88.5q-2 -59 -5 -117t-4 -117q-1 -38 -0.5 -75t8.5 -75q14 -4 26 -6t26 0q11 -4 22 -4 q12 0 23 2v85l1 1v29h-1zM117 92v-1v-75q-12 0 -23 4q-9 -1 -18 -0.5t-18 2.5q-4 16 -5 31.5t-2 31.5q-2 76 2.5 152t7.5 153q2 44 9.5 86t24.5 77.5t45.5 62.5t72.5 41q23 8 43 11.5t45 -2.5l6 1q23 -5 41.5 -20.5t29.5 -36t14 -44.5t-4 -47q-4 -14 -13.5 -25.5 t-22.5 -22.5q-6 -5 -20 -15.5t-26.5 -23t-18.5 -26t4 -23.5q4 -5 16 -9.5t26 -10t28.5 -11.5t24.5 -13q27 -18 44.5 -37t27 -40.5t11 -47t-4.5 -57.5q-25 -147 -177 -147q-21 0 -39 1.5t-36 7.5q0 21 3 41q19 3 39 3t38.5 1.5t36.5 7.5t35 20q19 16 30 38.5t13 46.5t-3 48.5 t-17 44.5q-9 15 -24 25t-32 17.5t-34.5 13.5t-31.5 15q-8 0 -14.5 6.5t-10.5 15.5t-6 19t-2 16q0 17 9.5 29.5t23 23.5t28.5 21.5t26.5 24t15.5 31t-3 42.5q-11 32 -28 38t-43 6q-33 0 -56.5 -19t-39.5 -48.5t-25.5 -67t-14 -75t-5.5 -70.5t0 -55h-1q2 -47 -0.5 -93 t-1.5 -93v-1z" />
<glyph unicode="&#xe0;" horiz-adv-x="422" d="M186 -7q26 1 49 8.5t46 14.5q5 -9 12.5 -16t12.5 -16q18 0 35.5 2.5t34.5 4.5v9q0 23 1.5 44.5t1.5 44.5l-3 -7l4 4q1 31 3.5 71.5t1.5 82.5t-8 80.5t-26 65.5q-25 36 -55.5 52t-62 17t-63 -11t-58 -32.5t-47.5 -46.5t-32 -54q16 -8 27 -19.5t28 -17.5q13 16 26.5 31.5 t31.5 27.5q15 10 34 15t36.5 4.5t31 -9t18.5 -25.5q5 -13 5 -27v-27q-22 -3 -43.5 -3.5t-43.5 -3.5t-50 -13t-53.5 -26t-43 -39.5t-17.5 -53.5q0 -39 13 -64.5t35.5 -41t51.5 -21.5t62 -6h2zM359 93v-4q0 -20 -1 -40l-2 -40q-10 -1 -19.5 -2.5t-19.5 -2.5q-5 6 -8 9t-5.5 6 t-4.5 7.5t-3 13.5q-27 -7 -55 -17t-57 -10h-2l-2 -1q-31 0 -57 5.5t-44.5 18.5t-28.5 35t-10 54q0 24 14.5 43t36.5 33t48 23t49 13q26 5 51 5q26 0 52 5q-1 19 -0.5 38.5t-4.5 38.5q-8 26 -27.5 37t-42 11.5t-45 -6.5t-37.5 -17t-27.5 -23t-23.5 -27q-7 5 -12.5 10.5 t-12.5 10.5q18 41 53 70t75.5 38.5t80.5 -2.5t68 -52q16 -24 22.5 -60t7.5 -75.5t-1.5 -78t-3.5 -66.5zM189 168q28 10 52.5 12.5t35.5 -0.5q0 -17 0.5 -33.5t-3.5 -33.5q-1 -5 -22 -9.5t-46.5 -6t-48.5 1t-27 12.5q-4 11 2 20.5t16 17t21.5 12.5t19.5 7zM182 187 q-12 -4 -27 -11t-26.5 -17.5t-17 -24t0.5 -29.5q4 -12 18.5 -18t34 -8.5t41.5 -1t41 5.5t32 11t15 15q4 20 3.5 39t-0.5 39v5q-11 7 -26.5 8.5t-32 -0.5t-31.5 -6t-25 -7zM182 549q23 -19 37 -35t25 -45q13 5 30 10t26 15q8 9 5 24.5t-13 33.5t-24.5 37t-29 34.5t-26 26 t-16.5 12.5q-10 4 -22.5 2t-24.5 -7t-21.5 -13t-13.5 -17q12 -26 29.5 -43t38.5 -35zM195 564q-17 14 -32.5 28.5t-26.5 33.5q8 8 26 14.5t28 3.5q9 -3 24.5 -20.5t31 -39.5t27.5 -42.5t14 -30.5q1 -3 -3.5 -5.5t-10 -5t-11 -4t-6.5 -2.5q-11 23 -27.5 39.5t-33.5 30.5z" />
<glyph unicode="&#xe1;" horiz-adv-x="422" d="M186 -7q26 1 49 8.5t46 14.5q5 -9 12.5 -16t12.5 -16q18 0 35.5 2.5t34.5 4.5v9q0 23 1.5 44.5t1.5 44.5l-3 -7l4 4q1 31 3.5 71.5t1.5 82.5t-8 80.5t-26 65.5q-25 36 -55.5 52t-62 17t-63 -11t-58 -32.5t-47.5 -46.5t-32 -54q16 -8 27 -19.5t28 -17.5q13 16 26.5 31.5 t31.5 27.5q15 10 34 15t36.5 4.5t31 -9t18.5 -25.5q5 -13 5 -27v-27q-22 -3 -43.5 -3.5t-43.5 -3.5t-50 -13t-53.5 -26t-43 -39.5t-17.5 -53.5q0 -39 13 -64.5t35.5 -41t51.5 -21.5t62 -6h2zM359 93v-4q0 -20 -1 -40l-2 -40q-10 -1 -19.5 -2.5t-19.5 -2.5q-5 6 -8 9t-5.5 6 t-4.5 7.5t-3 13.5q-27 -7 -55 -17t-57 -10h-2l-2 -1q-31 0 -57 5.5t-44.5 18.5t-28.5 35t-10 54q0 24 14.5 43t36.5 33t48 23t49 13q26 5 51 5q26 0 52 5q-1 19 -0.5 38.5t-4.5 38.5q-8 26 -27.5 37t-42 11.5t-45 -6.5t-37.5 -17t-27.5 -23t-23.5 -27q-7 5 -12.5 10.5 t-12.5 10.5q18 41 53 70t75.5 38.5t80.5 -2.5t68 -52q16 -24 22.5 -60t7.5 -75.5t-1.5 -78t-3.5 -66.5zM189 168q28 10 52.5 12.5t35.5 -0.5q0 -17 0.5 -33.5t-3.5 -33.5q-1 -5 -22 -9.5t-46.5 -6t-48.5 1t-27 12.5q-4 11 2 20.5t16 17t21.5 12.5t19.5 7zM182 187 q-12 -4 -27 -11t-26.5 -17.5t-17 -24t0.5 -29.5q4 -12 18.5 -18t34 -8.5t41.5 -1t41 5.5t32 11t15 15q4 20 3.5 39t-0.5 39v5q-11 7 -26.5 8.5t-32 -0.5t-31.5 -6t-25 -7zM227 564q-17 -14 -33.5 -30.5t-27.5 -39.5q-6 2 -15.5 5.5t-14.5 8.5q-4 4 1 15.5t14.5 26t22.5 31 t25 30t21 23t12 10.5q10 3 28 -3.5t26 -14.5q-11 -19 -26.5 -33.5t-32.5 -28.5zM240 549q21 18 38.5 35t29.5 43q-4 9 -13.5 17t-21.5 13t-24.5 7t-22.5 -2q-12 -4 -30 -23t-35.5 -43t-30.5 -46.5t-15 -34.5q-2 -11 5 -18.5t17.5 -13t22 -8.5t18.5 -6q11 29 25 45t37 35z " />
<glyph unicode="&#xe2;" horiz-adv-x="422" d="M186 -7q26 1 49 8.5t46 14.5q5 -9 12.5 -16t12.5 -16q18 0 35.5 2.5t34.5 4.5v9q0 23 1.5 44.5t1.5 44.5l-3 -7l4 4q1 31 3.5 71.5t1.5 82.5t-8 80.5t-26 65.5q-25 36 -55.5 52t-62 17t-63 -11t-58 -32.5t-47.5 -46.5t-32 -54q16 -8 27 -19.5t28 -17.5q13 16 26.5 31.5 t31.5 27.5q15 10 34 15t36.5 4.5t31 -9t18.5 -25.5q5 -13 5 -27v-27q-22 -3 -43.5 -3.5t-43.5 -3.5t-50 -13t-53.5 -26t-43 -39.5t-17.5 -53.5q0 -39 13 -64.5t35.5 -41t51.5 -21.5t62 -6h2zM359 93v-4q0 -20 -1 -40l-2 -40q-10 -1 -19.5 -2.5t-19.5 -2.5q-5 6 -8 9t-5.5 6 t-4.5 7.5t-3 13.5q-27 -7 -55 -17t-57 -10h-2l-2 -1q-31 0 -57 5.5t-44.5 18.5t-28.5 35t-10 54q0 24 14.5 43t36.5 33t48 23t49 13q26 5 51 5q26 0 52 5q-1 19 -0.5 38.5t-4.5 38.5q-8 26 -27.5 37t-42 11.5t-45 -6.5t-37.5 -17t-27.5 -23t-23.5 -27q-7 5 -12.5 10.5 t-12.5 10.5q18 41 53 70t75.5 38.5t80.5 -2.5t68 -52q16 -24 22.5 -60t7.5 -75.5t-1.5 -78t-3.5 -66.5zM189 168q28 10 52.5 12.5t35.5 -0.5q0 -17 0.5 -33.5t-3.5 -33.5q-1 -5 -22 -9.5t-46.5 -6t-48.5 1t-27 12.5q-4 11 2 20.5t16 17t21.5 12.5t19.5 7zM182 187 q-12 -4 -27 -11t-26.5 -17.5t-17 -24t0.5 -29.5q4 -12 18.5 -18t34 -8.5t41.5 -1t41 5.5t32 11t15 15q4 20 3.5 39t-0.5 39v5q-11 7 -26.5 8.5t-32 -0.5t-31.5 -6t-25 -7zM172 538q-8 -11 -16 -20t-16 -17q-19 -2 -29 -0.5t-24 7.5l22 28t23 27q14 14 29 27t29 27 q14 -1 29 0t29 0q16 -17 30 -34t31 -33q11 -11 23 -21.5t23 -21.5q-11 -4 -23.5 -6.5t-19.5 -0.5q-8 4 -21.5 16t-27.5 25.5t-26.5 26.5t-18.5 20q-14 -11 -24.5 -23.5t-21.5 -26.5zM170 503q12 14 22.5 28.5t24.5 28.5q18 -19 38 -39t42 -35q9 -6 21 -6.5t24.5 2.5 t24.5 7.5t21 7.5q-15 20 -31.5 35t-33.5 32t-33 36t-34 37q-19 1 -37.5 0t-37.5 0q-14 -17 -31 -30.5t-32 -29.5q-17 -18 -32.5 -38t-32.5 -39q16 -7 26 -11t19.5 -6.5t20.5 -2.5t29 1q12 10 22 22z" />
<glyph unicode="&#xe3;" horiz-adv-x="422" d="M186 -7q26 1 49 8.5t46 14.5q5 -9 12.5 -16t12.5 -16q18 0 35.5 2.5t34.5 4.5v9q0 23 1.5 44.5t1.5 44.5l-3 -7l4 4q1 31 3.5 71.5t1.5 82.5t-8 80.5t-26 65.5q-25 36 -55.5 52t-62 17t-63 -11t-58 -32.5t-47.5 -46.5t-32 -54q16 -8 27 -19.5t28 -17.5q13 16 26.5 31.5 t31.5 27.5q15 10 34 15t36.5 4.5t31 -9t18.5 -25.5q5 -13 5 -27v-27q-22 -3 -43.5 -3.5t-43.5 -3.5t-50 -13t-53.5 -26t-43 -39.5t-17.5 -53.5q0 -39 13 -64.5t35.5 -41t51.5 -21.5t62 -6h2zM359 93v-4q0 -20 -1 -40l-2 -40q-10 -1 -19.5 -2.5t-19.5 -2.5q-5 6 -8 9t-5.5 6 t-4.5 7.5t-3 13.5q-27 -7 -55 -17t-57 -10h-2l-2 -1q-31 0 -57 5.5t-44.5 18.5t-28.5 35t-10 54q0 24 14.5 43t36.5 33t48 23t49 13q26 5 51 5q26 0 52 5q-1 19 -0.5 38.5t-4.5 38.5q-8 26 -27.5 37t-42 11.5t-45 -6.5t-37.5 -17t-27.5 -23t-23.5 -27q-7 5 -12.5 10.5 t-12.5 10.5q18 41 53 70t75.5 38.5t80.5 -2.5t68 -52q16 -24 22.5 -60t7.5 -75.5t-1.5 -78t-3.5 -66.5zM189 168q28 10 52.5 12.5t35.5 -0.5q0 -17 0.5 -33.5t-3.5 -33.5q-1 -5 -22 -9.5t-46.5 -6t-48.5 1t-27 12.5q-4 11 2 20.5t16 17t21.5 12.5t19.5 7zM182 187 q-12 -4 -27 -11t-26.5 -17.5t-17 -24t0.5 -29.5q4 -12 18.5 -18t34 -8.5t41.5 -1t41 5.5t32 11t15 15q4 20 3.5 39t-0.5 39v5q-11 7 -26.5 8.5t-32 -0.5t-31.5 -6t-25 -7zM209 500q29 -14 51 -19t41.5 -0.5t37 19.5t37.5 41q-4 13 -7 22.5t-8.5 15.5t-15 9.5t-25.5 6.5 q-7 -9 -19 -23.5t-24 -14.5q-6 0 -20 7l-49.5 22t-43.5 11.5t-42.5 -8t-46.5 -36.5q-14 -15 -15 -27.5t6 -22t20 -17t27 -11.5q4 5 9.5 12.5t11.5 14t13 11.5t13 5q3 0 10 -2.5t14.5 -5.5t14.5 -6t10 -4zM217 518q-17 8 -30.5 14t-25.5 6t-24 -7t-25 -25l-5 -7q-12 5 -20 12 q-10 9 -7 14.5t10 13.5q21 22 39.5 31t35 8.5t31.5 -7t28.5 -14t26.5 -14t26 -6.5q17 0 29.5 12t21.5 24q15 -3 18.5 -9t7.5 -19q-16 -21 -30.5 -31.5t-30 -13.5t-34 2t-42.5 16z" />
<glyph unicode="&#xe4;" horiz-adv-x="422" d="M186 -7q26 1 49 8.5t46 14.5q5 -9 12.5 -16t12.5 -16q18 0 35.5 2.5t34.5 4.5v9q0 23 1.5 44.5t1.5 44.5l-3 -7l4 4q1 31 3.5 71.5t1.5 82.5t-8 80.5t-26 65.5q-25 36 -55.5 52t-62 17t-63 -11t-58 -32.5t-47.5 -46.5t-32 -54q16 -8 27 -19.5t28 -17.5q13 16 26.5 31.5 t31.5 27.5q15 10 34 15t36.5 4.5t31 -9t18.5 -25.5q5 -13 5 -27v-27q-22 -3 -43.5 -3.5t-43.5 -3.5t-50 -13t-53.5 -26t-43 -39.5t-17.5 -53.5q0 -39 13 -64.5t35.5 -41t51.5 -21.5t62 -6h2zM359 93v-4q0 -20 -1 -40l-2 -40q-10 -1 -19.5 -2.5t-19.5 -2.5q-5 6 -8 9t-5.5 6 t-4.5 7.5t-3 13.5q-27 -7 -55 -17t-57 -10h-2l-2 -1q-31 0 -57 5.5t-44.5 18.5t-28.5 35t-10 54q0 24 14.5 43t36.5 33t48 23t49 13q26 5 51 5q26 0 52 5q-1 19 -0.5 38.5t-4.5 38.5q-8 26 -27.5 37t-42 11.5t-45 -6.5t-37.5 -17t-27.5 -23t-23.5 -27q-7 5 -12.5 10.5 t-12.5 10.5q18 41 53 70t75.5 38.5t80.5 -2.5t68 -52q16 -24 22.5 -60t7.5 -75.5t-1.5 -78t-3.5 -66.5zM189 168q28 10 52.5 12.5t35.5 -0.5q0 -17 0.5 -33.5t-3.5 -33.5q-1 -5 -22 -9.5t-46.5 -6t-48.5 1t-27 12.5q-4 11 2 20.5t16 17t21.5 12.5t19.5 7zM182 187 q-12 -4 -27 -11t-26.5 -17.5t-17 -24t0.5 -29.5q4 -12 18.5 -18t34 -8.5t41.5 -1t41 5.5t32 11t15 15q4 20 3.5 39t-0.5 39v5q-11 7 -26.5 8.5t-32 -0.5t-31.5 -6t-25 -7zM142 625q-21 -3 -33.5 -18.5t-15.5 -34t4 -37.5t25 -30q22 -14 40 -9.5t29.5 19.5t15.5 35.5 t-1.5 38.5t-21 29t-42.5 7zM146 605q27 4 36.5 -13t5.5 -37.5t-19 -33.5t-37 0q-13 8 -17.5 21.5t-2 26.5t11 23.5t22.5 12.5zM293 625q-21 -3 -33.5 -18.5t-15.5 -34t4 -37.5t25 -30q21 -13 38.5 -8t29.5 19.5t17 35t0 38.5t-20.5 29t-44.5 6zM297 605q15 2 27 -8t16.5 -25 t-2 -30.5t-28.5 -24.5q-16 -6 -28.5 5.5t-16.5 28.5t2.5 34t29.5 20z" />
<glyph unicode="&#xe5;" horiz-adv-x="422" d="M186 -7q26 1 49 8.5t46 14.5q5 -9 12.5 -16t12.5 -16q18 0 35.5 2.5t34.5 4.5v9q0 23 1.5 44.5t1.5 44.5l-3 -7l4 4q1 31 3.5 71.5t1.5 82.5t-8 80.5t-26 65.5q-25 36 -55.5 52t-62 17t-63 -11t-58 -32.5t-47.5 -46.5t-32 -54q16 -8 27 -19.5t28 -17.5q13 16 26.5 31.5 t31.5 27.5q15 10 34 15t36.5 4.5t31 -9t18.5 -25.5q5 -13 5 -27v-27q-22 -3 -43.5 -3.5t-43.5 -3.5t-50 -13t-53.5 -26t-43 -39.5t-17.5 -53.5q0 -39 13 -64.5t35.5 -41t51.5 -21.5t62 -6h2zM359 93v-4q0 -20 -1 -40l-2 -40q-10 -1 -19.5 -2.5t-19.5 -2.5q-5 6 -8 9t-5.5 6 t-4.5 7.5t-3 13.5q-27 -7 -55 -17t-57 -10h-2l-2 -1q-31 0 -57 5.5t-44.5 18.5t-28.5 35t-10 54q0 24 14.5 43t36.5 33t48 23t49 13q26 5 51 5q26 0 52 5q-1 19 -0.5 38.5t-4.5 38.5q-8 26 -27.5 37t-42 11.5t-45 -6.5t-37.5 -17t-27.5 -23t-23.5 -27q-7 5 -12.5 10.5 t-12.5 10.5q18 41 53 70t75.5 38.5t80.5 -2.5t68 -52q16 -24 22.5 -60t7.5 -75.5t-1.5 -78t-3.5 -66.5zM189 168q28 10 52.5 12.5t35.5 -0.5q0 -17 0.5 -33.5t-3.5 -33.5q-1 -5 -22 -9.5t-46.5 -6t-48.5 1t-27 12.5q-4 11 2 20.5t16 17t21.5 12.5t19.5 7zM182 187 q-12 -4 -27 -11t-26.5 -17.5t-17 -24t0.5 -29.5q4 -12 18.5 -18t34 -8.5t41.5 -1t41 5.5t32 11t15 15q4 20 3.5 39t-0.5 39v5q-11 7 -26.5 8.5t-32 -0.5t-31.5 -6t-25 -7zM220 439q31 -1 59 9.5t49 28t33 41t12 46.5q0 24 -15 46.5t-47 39.5q-33 17 -69.5 14.5t-67.5 -17.5 q-49 -24 -65 -59t-6 -67.5t41 -56t76 -25.5zM220 459q-39 1 -65 20.5t-33 46.5t7 55t53 48q28 14 60 15.5t59 -12.5q34 -17 43.5 -47t-2.5 -58.5t-43 -49t-79 -18.5zM186 551q7 24 23 33t32.5 8t28.5 -9.5t12 -18.5q0 -16 -15 -29t-33.5 -18.5t-33.5 1t-15 29.5v1t1 3z M167 557q-2 -6 -2 -10q0 -23 10 -35t25.5 -15.5t33 0t33 13t25.5 23.5t10 31q0 19 -17.5 32.5t-40.5 15.5t-45 -10.5t-32 -44.5z" />
<glyph unicode="&#xe6;" horiz-adv-x="719" d="M189 168q28 10 52.5 12.5t35.5 -0.5q0 -17 0.5 -33.5t-3.5 -33.5q-1 -5 -22 -9.5t-46.5 -6t-48.5 1t-27 12.5q-4 11 2 20.5t16 17t21.5 12.5t19.5 7zM182 187q-12 -4 -27 -11t-26.5 -17.5t-17 -24t0.5 -29.5q4 -12 18.5 -18t34 -8.5t41.5 -1t41 5.5t32 11t15 15 q4 20 3.5 39t-0.5 39v5q-11 7 -26.5 8.5t-32 -0.5t-31.5 -6t-25 -7zM186 -7q27 1 55 8.5t51 17.5q14 5 25 14t23 17q33 -34 78 -48t92 -11t91 21t77 48q10 9 16 14t11 19q-5 10 -11.5 20t-12.5 19q-7 11 -14.5 21.5t-21.5 11.5q-25 -26 -51 -48t-66 -25q-21 -2 -43.5 2 t-41 13t-32 24t-17.5 36q-1 5 -1.5 8t0.5 6q21 0 56.5 1t73 4t72 8t54.5 14q14 6 21 18.5t9.5 28t2 31.5t-1.5 28q-3 42 -21 72.5t-45 49t-60.5 24.5t-69 0t-70.5 -24t-63 -49q-24 38 -54 54t-62 15.5t-64 -14.5t-59.5 -35t-48.5 -46.5t-30 -49.5q16 -8 27 -19.5t28 -17.5 q13 17 26.5 32t31.5 27q15 10 34 15t36.5 4.5t31 -9t18.5 -25.5q5 -13 5 -27v-27q-22 -3 -43.5 -3.5t-43.5 -3.5t-50 -13t-53.5 -26t-43 -39.5t-17.5 -53.5q0 -39 13 -64.5t35.5 -41t51.5 -21.5t62 -6h2zM650 141l1 -1q9 -11 16.5 -23.5t15.5 -24.5q-4 -4 -6 -7 q-33 -31 -76.5 -50.5t-89.5 -23t-90 11.5t-78 53q-9 -5 -17.5 -11.5t-16.5 -12.5q-12 -9 -27.5 -16t-32.5 -12t-34 -8t-31 -3h-2l-2 -1q-31 0 -57 5.5t-44.5 18.5t-28.5 35t-10 54q0 24 14.5 43t36.5 33t48 23t49 13q26 5 51 5q26 0 52 5q-1 19 -0.5 38.5t-4.5 38.5 q-8 26 -27 37t-42 11.5t-45.5 -6.5t-37.5 -17t-27.5 -23t-23.5 -27q-7 5 -12.5 10.5t-12.5 10.5q19 43 57 72t81 37t84 -9t67 -68q24 29 61.5 54t78.5 34.5t81.5 -3t70.5 -57.5q9 -15 14.5 -34t7 -39t-1 -39.5t-9.5 -35.5q-3 -7 -22 -11.5t-46.5 -8t-59 -5.5t-60 -3.5 t-49.5 -2t-26 -0.5l-12 -8q-2 -9 -2.5 -15t1.5 -15q5 -27 21.5 -45.5t39 -29t48 -14.5t47.5 -2q40 3 67.5 23t52.5 46zM590 288q0 -6 -2 -10q-10 -2 -39.5 -4t-61.5 -3.5t-58 -2.5t-28 0q-3 0 -5 2q5 33 22 55.5t39 34.5t46.5 13t44.5 -8t32 -28.5t10 -48.5zM610 286 q3 36 -12 60.5t-39.5 36t-54.5 10t-57.5 -16t-47.5 -43t-24 -70.5q5 -6 8.5 -9.5t11.5 -5.5q3 -1 18.5 -0.5t37 1.5t46 2.5t46 3t36.5 3t19 2.5q7 6 9 12t3 14z" />
<glyph unicode="&#xe7;" horiz-adv-x="435" d="M97 -148q-27 -4 -33 -22t-8 -38q38 -18 75 -27t79 -9q21 0 48.5 5t53 16.5t44.5 31t22 48.5q2 13 -0.5 21.5t-7.5 19.5q-17 36 -47.5 49t-63.5 15q2 7 5 13.5t5 13.5q16 5 40 15.5t46.5 25t41 32t24.5 37.5q-2 26 -11 40.5t-34 25.5q-16 -15 -34 -29.5t-37.5 -26 t-41 -18.5t-45.5 -7q-37 0 -58 15t-28 38t-1 50t23 51.5t43.5 42.5t60.5 23q12 -4 24 -1.5t24 -1.5q9 2 20 -1t21.5 -4.5t18.5 2.5t13 20q5 21 8 40.5t-10 39.5q-31 15 -68 16t-74.5 -8.5t-71 -27t-56.5 -38.5q-26 -24 -46 -52t-31 -63q-13 -41 -9.5 -82t21.5 -75.5 t50.5 -58t76.5 -29.5q-10 -22 -18 -43t-14 -44q6 0 29 0.5t48 -1t45 -7t20 -16.5q0 -10 -9 -17t-21.5 -11t-25.5 -5.5t-20 -1.5q-9 0 -23.5 1.5t-29.5 4t-28.5 5.5t-21.5 7h-3zM97 -168q9 -4 23.5 -7t30 -5.5t29.5 -4t23 -1.5q12 0 28.5 2.5t31.5 9t25.5 17t10.5 26.5 q0 18 -17 27.5t-39.5 13t-45.5 3.5h-33q7 22 16.5 42.5t18.5 41.5q-45 3 -79 22t-54.5 49t-25.5 69t9 82q11 32 28.5 58t43.5 49q21 19 51.5 35t64 24.5t66.5 8.5q34 0 60 -12q5 -10 4 -20.5t-3 -20.5q-5 -18 -9 -23t-10 -3.5t-15 5t-22 1.5q-12 3 -24.5 0.5t-23.5 2.5 q-42 -5 -73.5 -26t-50.5 -50t-25 -61.5t3.5 -59.5t35 -45t68.5 -18q48 0 88.5 24t73.5 53q20 -11 21 -40q-6 -17 -25 -32.5t-41.5 -28.5t-45.5 -22t-36 -13q-5 -16 -11 -31t-13 -31q18 0 36 -1.5t34 -6.5t30 -15.5t23 -29.5q5 -9 6 -15.5t0 -15.5q-2 -22 -17.5 -38t-37 -26 t-46.5 -14.5t-47 -4.5q-34 0 -67.5 7t-64.5 21q2 12 5 19t14 9z" />
<glyph unicode="&#xe8;" horiz-adv-x="481" d="M133 161q21 0 56 1t73 4t72.5 8t54.5 14q13 6 20 18.5t10 28t2.5 31.5t-1.5 28q-4 44 -23 75t-47.5 49t-64 23t-72 -3t-71.5 -29t-62 -54q-28 -34 -43.5 -75.5t-15.5 -86.5q0 -81 35.5 -132.5t90 -74t119.5 -14.5t125 46q13 8 30.5 24.5t23.5 29.5q-10 19 -24 40 q-8 11 -15 21t-21 13q-12 -13 -24.5 -26t-26.5 -23t-30 -17t-36 -8q-21 -2 -43.5 2t-41 13t-32 24t-17.5 36q-1 5 -1.5 8t0.5 6zM390 121l1 -1q17 -23 31 -48q-6 -8 -20 -20.5t-21 -17.5q-57 -36 -117.5 -43t-110 13.5t-81 68t-31.5 120.5q0 41 14.5 79.5t40.5 70.5 q27 33 65 54t78.5 25.5t77.5 -9.5t62 -53q9 -15 14.5 -34t7 -39t-1 -39.5t-9.5 -35.5q-3 -7 -22 -11.5t-46.5 -8t-59 -5.5t-60 -3.5t-49 -2t-26.5 -0.5l-12 -8q-2 -9 -2.5 -15t1.5 -15q5 -27 22 -45.5t39.5 -29t47.5 -14.5t47 -2q40 3 68 23t52 46zM330 268q0 -6 -2 -10 q-10 -2 -39.5 -4t-61.5 -3.5t-58 -2.5t-28 0q-3 0 -5 2q5 33 22 55.5t39 34.5t46.5 13t44.5 -8t32 -28.5t10 -48.5zM350 266q3 36 -12 60.5t-39.5 36t-54.5 10t-57.5 -16t-47.5 -42.5t-24 -71q5 -6 8.5 -9.5t11.5 -5.5q3 -1 18.5 -0.5t37 1.5t46 2.5t46 3t37 3t18.5 2.5 q7 6 9 12t3 14zM212 549q23 -19 37 -35t25 -45q7 3 18.5 6t22 8t17 12.5t4.5 19.5t-15.5 34.5t-30.5 46.5t-35 43t-30 23q-10 4 -22.5 2t-24.5 -7t-21.5 -13t-13.5 -17q13 -26 30 -43t39 -35zM225 564q-17 14 -33 28.5t-26 33.5q7 8 25 14.5t28 3.5q9 -3 24.5 -20.5 t31 -39.5t27.5 -42.5t14 -30.5q1 -3 -3 -6t-9.5 -5t-10.5 -3.5t-7 -2.5q-11 23 -27.5 39.5t-33.5 30.5z" />
<glyph unicode="&#xe9;" horiz-adv-x="481" d="M133 161q21 0 56 1t73 4t72.5 8t54.5 14q13 6 20 18.5t10 28t2.5 31.5t-1.5 28q-4 44 -23 75t-47.5 49t-64 23t-72 -3t-71.5 -29t-62 -54q-28 -34 -43.5 -75.5t-15.5 -86.5q0 -81 35.5 -132.5t90 -74t119.5 -14.5t125 46q13 8 30.5 24.5t23.5 29.5q-10 19 -24 40 q-8 11 -15 21t-21 13q-12 -13 -24.5 -26t-26.5 -23t-30 -17t-36 -8q-21 -2 -43.5 2t-41 13t-32 24t-17.5 36q-1 5 -1.5 8t0.5 6zM390 121l1 -1q17 -23 31 -48q-6 -8 -20 -20.5t-21 -17.5q-57 -36 -117.5 -43t-110 13.5t-81 68t-31.5 120.5q0 41 14.5 79.5t40.5 70.5 q27 33 65 54t78.5 25.5t77.5 -9.5t62 -53q9 -15 14.5 -34t7 -39t-1 -39.5t-9.5 -35.5q-3 -7 -22 -11.5t-46.5 -8t-59 -5.5t-60 -3.5t-49 -2t-26.5 -0.5l-12 -8q-2 -9 -2.5 -15t1.5 -15q5 -27 22 -45.5t39.5 -29t47.5 -14.5t47 -2q40 3 68 23t52 46zM330 268q0 -6 -2 -10 q-10 -2 -39.5 -4t-61.5 -3.5t-58 -2.5t-28 0q-3 0 -5 2q5 33 22 55.5t39 34.5t46.5 13t44.5 -8t32 -28.5t10 -48.5zM350 266q3 36 -12 60.5t-39.5 36t-54.5 10t-57.5 -16t-47.5 -42.5t-24 -71q5 -6 8.5 -9.5t11.5 -5.5q3 -1 18.5 -0.5t37 1.5t46 2.5t46 3t37 3t18.5 2.5 q7 6 9 12t3 14zM170 523h-1q14 32 39.5 65t53.5 56q10 3 28 -3.5t25 -14.5q-11 -19 -27 -33.5t-33 -29t-33.5 -31t-26.5 -38.5q-5 2 -16.5 6t-14.5 9zM155 503l-9 14q-5 -11 2 -19t18 -14t23 -9.5t18 -5.5q10 28 27.5 46.5t36 34.5t37 33.5t30.5 43.5q-4 9 -15 17.5 t-24.5 14.5t-27 6.5t-22.5 -7.5q-37 -30 -65.5 -69.5t-43.5 -85.5h15z" />
<glyph unicode="&#xea;" horiz-adv-x="481" d="M133 161q21 0 56 1t73 4t72.5 8t54.5 14q13 6 20 18.5t10 28t2.5 31.5t-1.5 28q-4 44 -23 75t-47.5 49t-64 23t-72 -3t-71.5 -29t-62 -54q-28 -34 -43.5 -75.5t-15.5 -86.5q0 -81 35.5 -132.5t90 -74t119.5 -14.5t125 46q13 8 30.5 24.5t23.5 29.5q-10 19 -24 40 q-8 11 -15 21t-21 13q-12 -13 -24.5 -26t-26.5 -23t-30 -17t-36 -8q-21 -2 -43.5 2t-41 13t-32 24t-17.5 36q-1 5 -1.5 8t0.5 6zM390 121l1 -1q17 -23 31 -48q-6 -8 -20 -20.5t-21 -17.5q-57 -36 -117.5 -43t-110 13.5t-81 68t-31.5 120.5q0 41 14.5 79.5t40.5 70.5 q27 33 65 54t78.5 25.5t77.5 -9.5t62 -53q9 -15 14.5 -34t7 -39t-1 -39.5t-9.5 -35.5q-3 -7 -22 -11.5t-46.5 -8t-59 -5.5t-60 -3.5t-49 -2t-26.5 -0.5l-12 -8q-2 -9 -2.5 -15t1.5 -15q5 -27 22 -45.5t39.5 -29t47.5 -14.5t47 -2q40 3 68 23t52 46zM330 268q0 -6 -2 -10 q-10 -2 -39.5 -4t-61.5 -3.5t-58 -2.5t-28 0q-3 0 -5 2q5 33 22 55.5t39 34.5t46.5 13t44.5 -8t32 -28.5t10 -48.5zM350 266q3 36 -12 60.5t-39.5 36t-54.5 10t-57.5 -16t-47.5 -42.5t-24 -71q5 -6 8.5 -9.5t11.5 -5.5q3 -1 18.5 -0.5t37 1.5t46 2.5t46 3t37 3t18.5 2.5 q7 6 9 12t3 14zM185 515q-4 -5 -7 -8l-6 -6q-20 -2 -29.5 -0.5t-24.5 7.5q17 20 32.5 40t34.5 38q9 9 19 16t18 15q14 -1 28.5 0t28.5 0q16 -17 30 -34t31 -33q11 -11 23 -21.5t23 -21.5q-11 -4 -23.5 -6.5t-19.5 -0.5q-8 4 -21 16t-27.5 25.5t-27 26.5t-18.5 20 q-19 -17 -33.5 -35.5t-30.5 -37.5zM200 502q12 14 23 29t25 29q19 -19 38.5 -39t41.5 -35q9 -6 21 -6.5t24.5 2.5t24.5 7.5t21 7.5q-15 20 -31.5 35t-33.5 32t-33 36t-34 37q-18 1 -36.5 0t-37.5 0q-3 -5 -9 -9q-36 -27 -62.5 -60.5t-57.5 -67.5q16 -7 26.5 -11t20 -6.5 t20.5 -2.5t29 1q5 5 10 10.5t10 10.5z" />
<glyph unicode="&#xeb;" horiz-adv-x="481" d="M133 161q21 0 56 1t73 4t72.5 8t54.5 14q13 6 20 18.5t10 28t2.5 31.5t-1.5 28q-4 44 -23 75t-47.5 49t-64 23t-72 -3t-71.5 -29t-62 -54q-28 -34 -43.5 -75.5t-15.5 -86.5q0 -81 35.5 -132.5t90 -74t119.5 -14.5t125 46q13 8 30.5 24.5t23.5 29.5q-10 19 -24 40 q-8 11 -15 21t-21 13q-12 -13 -24.5 -26t-26.5 -23t-30 -17t-36 -8q-21 -2 -43.5 2t-41 13t-32 24t-17.5 36q-1 5 -1.5 8t0.5 6zM390 121l1 -1q17 -23 31 -48q-6 -8 -20 -20.5t-21 -17.5q-57 -36 -117.5 -43t-110 13.5t-81 68t-31.5 120.5q0 41 14.5 79.5t40.5 70.5 q27 33 65 54t78.5 25.5t77.5 -9.5t62 -53q9 -15 14.5 -34t7 -39t-1 -39.5t-9.5 -35.5q-3 -7 -22 -11.5t-46.5 -8t-59 -5.5t-60 -3.5t-49 -2t-26.5 -0.5l-12 -8q-2 -9 -2.5 -15t1.5 -15q5 -27 22 -45.5t39.5 -29t47.5 -14.5t47 -2q40 3 68 23t52 46zM330 268q0 -6 -2 -10 q-10 -2 -39.5 -4t-61.5 -3.5t-58 -2.5t-28 0q-3 0 -5 2q5 33 22 55.5t39 34.5t46.5 13t44.5 -8t32 -28.5t10 -48.5zM350 266q3 36 -12 60.5t-39.5 36t-54.5 10t-57.5 -16t-47.5 -42.5t-24 -71q5 -6 8.5 -9.5t11.5 -5.5q3 -1 18.5 -0.5t37 1.5t46 2.5t46 3t37 3t18.5 2.5 q7 6 9 12t3 14zM162 625q-21 -3 -33.5 -18.5t-15.5 -34t4 -37.5t25 -30q22 -14 40 -9.5t29.5 19.5t15.5 35.5t-1.5 38.5t-21 29t-42.5 7zM166 605q27 4 36.5 -13t5.5 -37.5t-19 -33.5t-37 0q-13 8 -17.5 21.5t-2 26.5t11 23.5t22.5 12.5zM313 625q-21 -3 -33.5 -18.5 t-15.5 -34t4 -37.5t25 -30q21 -13 38.5 -8t29.5 19.5t17 35t0 38.5t-20.5 29t-44.5 6zM317 605q15 2 27 -8t16.5 -25t-2 -30.5t-28.5 -24.5q-16 -6 -28.5 5.5t-16.5 28.5t2.5 34t29.5 20z" />
<glyph unicode="&#xec;" horiz-adv-x="198" d="M106 387q-13 2 -26 1t-27 -1q-2 -14 -3 -28t-1 -28q-1 -80 -3.5 -159t-2.5 -159v-9q9 -1 26 -3t34 -1t30.5 6t17.5 18q2 9 3.5 36.5t2 64.5t0.5 79t-1 78.5t-2 63t-3 34.5q-11 2 -22.5 3.5t-22.5 3.5zM103 367q6 -1 12.5 -2t18.5 -3q1 -13 2 -41t1 -63t-0.5 -73t-1 -71 t-1.5 -56t-3 -28q-2 -6 -11.5 -8t-21.5 -2q-11 0 -21.5 1t-13.5 1q0 78 2.5 154.5t3.5 154.5q0 9 0.5 18t1.5 18q14 1 20 1q7 0 12 -1zM70 529q23 -19 37 -35t25 -45q13 5 30 10t26 15q8 9 5 24.5t-13 33.5t-24.5 37t-29 34.5t-26 26t-16.5 12.5q-10 4 -22.5 2t-24.5 -7 t-21.5 -13t-13.5 -17q12 -26 29.5 -43t38.5 -35zM83 544q-17 14 -32.5 28.5t-26.5 33.5q8 8 26 14.5t28 3.5q9 -3 24.5 -20.5t31 -39.5t27.5 -42.5t14 -30.5q1 -3 -3.5 -5.5t-10 -5t-11 -4t-6.5 -2.5q-11 23 -27.5 39.5t-33.5 30.5z" />
<glyph unicode="&#xed;" horiz-adv-x="198" d="M106 387q-13 2 -26 1t-27 -1q-2 -14 -3 -28t-1 -28q-1 -80 -3.5 -159t-2.5 -159v-9q9 -1 26 -3t34 -1t30.5 6t17.5 18q2 9 3.5 36.5t2 64.5t0.5 79t-1 78.5t-2 63t-3 34.5q-11 2 -22.5 3.5t-22.5 3.5zM103 367q6 -1 12.5 -2t18.5 -3q1 -13 2 -41t1 -63t-0.5 -73t-1 -71 t-1.5 -56t-3 -28q-2 -6 -11.5 -8t-21.5 -2q-11 0 -21.5 1t-13.5 1q0 78 2.5 154.5t3.5 154.5q0 9 0.5 18t1.5 18q14 1 20 1q7 0 12 -1zM115 544q-17 -14 -33.5 -30.5t-27.5 -39.5q-6 2 -15.5 5.5t-14.5 8.5q-4 4 1 15.5t14.5 26t22.5 31t25 30t21 23t12 10.5q10 3 28 -3.5 t26 -14.5q-11 -19 -26.5 -33.5t-32.5 -28.5zM128 529q21 18 38.5 35t29.5 43q-4 9 -13.5 17t-21.5 13t-24.5 7t-22.5 -2q-12 -4 -30 -23t-35.5 -43t-30.5 -46.5t-15 -34.5q-2 -11 5 -18.5t17.5 -13t22 -8.5t18.5 -6q11 29 25 45t37 35z" />
<glyph unicode="&#xee;" horiz-adv-x="198" d="M106 387q-13 2 -26 1t-27 -1q-2 -14 -3 -28t-1 -28q-1 -80 -3.5 -159t-2.5 -159v-9q9 -1 26 -3t34 -1t30.5 6t17.5 18q2 9 3.5 36.5t2 64.5t0.5 79t-1 78.5t-2 63t-3 34.5q-11 2 -22.5 3.5t-22.5 3.5zM103 367q6 -1 12.5 -2t18.5 -3q1 -13 2 -41t1 -63t-0.5 -73t-1 -71 t-1.5 -56t-3 -28q-2 -6 -11.5 -8t-21.5 -2q-11 0 -21.5 1t-13.5 1q0 78 2.5 154.5t3.5 154.5q0 9 0.5 18t1.5 18q14 1 20 1q7 0 12 -1zM70 518q-8 -11 -16 -20t-16 -17q-19 -2 -29 -0.5t-24 7.5l22 28t23 27q14 14 29 27t29 27q14 -1 29 0t29 0q16 -17 30 -34t31 -33 q11 -11 23 -21.5t23 -21.5q-11 -4 -23.5 -6.5t-19.5 -0.5q-8 4 -21.5 16t-27.5 25.5t-26.5 26.5t-18.5 20q-14 -11 -24.5 -23.5t-21.5 -26.5zM68 483q12 14 22.5 28.5t24.5 28.5q18 -19 38 -39t42 -35q9 -6 21 -6.5t24.5 2.5t24.5 7.5t21 7.5q-15 20 -31.5 35t-33.5 32 t-33 36t-34 37q-19 1 -37.5 0t-37.5 0q-14 -17 -31 -30.5t-32 -29.5q-17 -18 -32.5 -38t-32.5 -39q16 -7 26 -11t19.5 -6.5t20.5 -2.5t29 1q12 10 22 22z" />
<glyph unicode="&#xef;" horiz-adv-x="198" d="M106 387q-13 2 -26 1t-27 -1q-2 -14 -3 -28t-1 -28q-1 -80 -3.5 -159t-2.5 -159v-9q9 -1 26 -3t34 -1t30.5 6t17.5 18q2 9 3.5 36.5t2 64.5t0.5 79t-1 78.5t-2 63t-3 34.5q-11 2 -22.5 3.5t-22.5 3.5zM103 367q6 -1 12.5 -2t18.5 -3q1 -13 2 -41t1 -63t-0.5 -73t-1 -71 t-1.5 -56t-3 -28q-2 -6 -11.5 -8t-21.5 -2q-11 0 -21.5 1t-13.5 1q0 78 2.5 154.5t3.5 154.5q0 9 0.5 18t1.5 18q14 1 20 1q7 0 12 -1zM21 605q-21 -3 -33.5 -18.5t-15.5 -34t3.5 -37.5t24.5 -30q22 -14 40 -9.5t29.5 19t16 35.5t-1 39t-21 29t-42.5 7zM25 585q18 3 28 -5 t13 -20t0.5 -26.5t-10.5 -24.5t-19.5 -13.5t-26.5 5.5q-12 8 -16.5 21.5t-2 26.5t11 23.5t22.5 12.5zM172 605q-21 -3 -34 -18.5t-16 -34t4 -37.5t25 -30q22 -14 40 -9.5t29.5 19t16 35.5t-1 39t-21 29t-42.5 7zM176 585q18 3 28 -5t13 -20t0.5 -26.5t-10.5 -24.5 t-19.5 -13.5t-26.5 5.5q-13 8 -17.5 21.5t-2 26.5t11.5 23.5t23 12.5z" />
<glyph unicode="&#xf1;" horiz-adv-x="434" d="M339 -3q11 2 21.5 4t21.5 4q7 12 10.5 28.5t5.5 33.5t3 34t1 31q1 51 -0.5 104t-21.5 101t-50.5 67t-64.5 17.5t-68.5 -20t-61.5 -44.5q-2 14 -4.5 26t-6.5 24q-7 1 -17.5 1.5t-21.5 -0.5t-20.5 -2.5t-15.5 -5.5q-5 -3 -6.5 -11.5t-2.5 -13.5q-4 -43 -4 -87t0.5 -89 t1.5 -89.5t0 -87.5q6 -13 18 -18t26 -6t29 0.5t26 1.5v10q0 57 0.5 114.5t14.5 113.5q6 25 26 45t42.5 25.5t42.5 -9t28 -57.5q5 -29 5.5 -58t-1 -58.5t-3.5 -59t-3 -58.5q13 -8 24 -10.5t26 -0.5zM62 385q7 2 21 3t25 1q8 -29 8 -55v-26q14 16 33.5 33.5t42 32t46.5 22.5 t46.5 5t42.5 -19.5t35 -52.5q9 -22 13.5 -46t6.5 -50q1 -17 1 -47q0 -29 -1 -60.5t-4 -60t-9 -42.5q-15 -2 -30 -6t-30 3q1 28 3 56.5t3.5 56.5t1 56.5t-5.5 56.5q-9 51 -35 69.5t-55 13.5t-54.5 -29t-34.5 -58q-14 -54 -14.5 -110t-0.5 -113q-5 0 -13.5 -1t-17.5 -0.5 t-17 2t-11 6.5q2 82 -1 164t2 164q0 15 3 30v1zM209 500q29 -14 51 -19t41.5 -0.5t37 19.5t37.5 41q-4 13 -7 22.5t-8.5 15.5t-15 9.5t-25.5 6.5q-7 -9 -19 -23.5t-24 -14.5q-6 0 -20 7l-49.5 22t-43.5 11.5t-42.5 -8t-46.5 -36.5q-14 -15 -15 -27.5t6 -22t20 -17t27 -11.5 q4 5 9.5 12.5t11.5 14t13 11.5t13 5q3 0 10 -2.5t14.5 -5.5t14.5 -6t10 -4zM217 518q-17 8 -30.5 14t-25.5 6t-24 -7t-25 -25l-5 -7q-12 5 -20 12q-10 9 -7 14.5t10 13.5q21 22 39.5 31t35 8.5t31.5 -7t28.5 -14t26.5 -14t26 -6.5q17 0 29.5 12t21.5 24q15 -3 18.5 -9 t7.5 -19q-16 -21 -30.5 -31.5t-30 -13.5t-34 2t-42.5 16z" />
<glyph unicode="&#xf2;" horiz-adv-x="479" d="M458 215q3 44 -8.5 87t-38 76t-69 51.5t-101.5 15.5q-50 -3 -93.5 -31t-74 -70.5t-45 -94t-6 -100.5t43 -90.5t101.5 -64.5q21 -8 48 -10q57 -3 100.5 16.5t74.5 52.5t48 75.5t20 86.5zM438 216q-3 -41 -18.5 -80.5t-44 -69.5t-68.5 -47t-92 -15q-19 1 -42 8 q-62 21 -93 59t-38 83t6.5 92t41.5 86t68 65t85 28q52 3 90.5 -14t62.5 -46.5t34.5 -68.5t7.5 -80zM131 241q14 41 36 65t47 33.5t50 6t45 -17t32.5 -35.5t12.5 -50q0 -36 -17 -66.5t-43 -51t-55.5 -29t-55.5 -0.5t-43 34t-17 75q0 9 3 18t5 18zM113 247q-4 -10 -7 -20.5 t-3 -21.5q0 -55 20 -85.5t50 -40.5t65.5 -2t65.5 30.5t50 57.5t20 78q0 36 -15 62.5t-39 41.5t-54 18t-59 -8.5t-54 -38.5t-40 -71zM211 549q23 -19 37 -35t25 -45q7 3 18.5 6t22 8t17 12.5t4.5 19.5t-15.5 34.5t-30.5 46.5t-35 43t-30 23q-10 4 -22.5 2t-24.5 -7t-21.5 -13 t-13.5 -17q13 -26 30 -43t39 -35zM224 564q-17 14 -33 28.5t-26 33.5q7 8 25 14.5t28 3.5q9 -3 24.5 -20.5t31 -39.5t27.5 -42.5t14 -30.5q1 -3 -3 -6t-9.5 -5t-10.5 -3.5t-7 -2.5q-11 23 -27.5 39.5t-33.5 30.5z" />
<glyph unicode="&#xf3;" horiz-adv-x="479" d="M458 215q3 44 -8.5 87t-38 76t-69 51.5t-101.5 15.5q-50 -3 -93.5 -31t-74 -70.5t-45 -94t-6 -100.5t43 -90.5t101.5 -64.5q21 -8 48 -10q57 -3 100.5 16.5t74.5 52.5t48 75.5t20 86.5zM438 216q-3 -41 -18.5 -80.5t-44 -69.5t-68.5 -47t-92 -15q-19 1 -42 8 q-62 21 -93 59t-38 83t6.5 92t41.5 86t68 65t85 28q52 3 90.5 -14t62.5 -46.5t34.5 -68.5t7.5 -80zM131 241q14 41 36 65t47 33.5t50 6t45 -17t32.5 -35.5t12.5 -50q0 -36 -17 -66.5t-43 -51t-55.5 -29t-55.5 -0.5t-43 34t-17 75q0 9 3 18t5 18zM113 247q-4 -10 -7 -20.5 t-3 -21.5q0 -55 20 -85.5t50 -40.5t65.5 -2t65.5 30.5t50 57.5t20 78q0 36 -15 62.5t-39 41.5t-54 18t-59 -8.5t-54 -38.5t-40 -71zM169 523h-1q14 32 39.5 65t53.5 56q10 3 28 -3.5t25 -14.5q-11 -19 -27 -33.5t-33 -29t-33.5 -31t-26.5 -38.5q-5 2 -16.5 6t-14.5 9z M144 503q3 -8 11 -13.5t17.5 -9.5t19 -6.5t14.5 -4.5q10 28 27.5 46.5t36 34.5t37 33.5t30.5 43.5q-4 9 -15 17.5t-24.5 14.5t-27 6.5t-22.5 -7.5q-37 -30 -65.5 -69.5t-43.5 -85.5h5z" />
<glyph unicode="&#xf4;" horiz-adv-x="479" d="M458 215q3 44 -8.5 87t-38 76t-69 51.5t-101.5 15.5q-50 -3 -93.5 -31t-74 -70.5t-45 -94t-6 -100.5t43 -90.5t101.5 -64.5q21 -8 48 -10q57 -3 100.5 16.5t74.5 52.5t48 75.5t20 86.5zM438 216q-3 -41 -18.5 -80.5t-44 -69.5t-68.5 -47t-92 -15q-19 1 -42 8 q-62 21 -93 59t-38 83t6.5 92t41.5 86t68 65t85 28q52 3 90.5 -14t62.5 -46.5t34.5 -68.5t7.5 -80zM131 241q14 41 36 65t47 33.5t50 6t45 -17t32.5 -35.5t12.5 -50q0 -36 -17 -66.5t-43 -51t-55.5 -29t-55.5 -0.5t-43 34t-17 75q0 9 3 18t5 18zM113 247q-4 -10 -7 -20.5 t-3 -21.5q0 -55 20 -85.5t50 -40.5t65.5 -2t65.5 30.5t50 57.5t20 78q0 36 -15 62.5t-39 41.5t-54 18t-59 -8.5t-54 -38.5t-40 -71zM192 515q-3 -4 -6.5 -7.5l-6.5 -6.5q-20 -2 -29.5 -0.5t-24.5 7.5l22 28t23 27q14 15 29.5 27t29.5 27q14 -1 28.5 0t28.5 0 q17 -16 30.5 -33.5t30.5 -33.5q11 -11 23.5 -21.5t23.5 -21.5q-12 -4 -24 -6.5t-20 -0.5q-8 4 -21 16t-27 25.5t-26.5 26.5t-18.5 20q-20 -17 -34.5 -35t-30.5 -38zM208 502q12 15 22.5 30t24.5 28q19 -19 38.5 -39t41.5 -35q9 -6 21 -6.5t25 2.5t25 7.5t21 7.5 q-16 22 -32 35.5t-34 31.5q-17 17 -32.5 36.5t-34.5 36.5q-18 1 -36.5 0t-37.5 0q-10 -13 -23 -23.5t-25 -21.5q-23 -20 -42 -44.5t-39 -47.5q16 -7 26.5 -11t20 -6.5t20.5 -2.5t29 1q6 5 11 10.5t10 10.5z" />
<glyph unicode="&#xf5;" horiz-adv-x="479" d="M458 215q3 44 -8.5 87t-38 76t-69 51.5t-101.5 15.5q-50 -3 -93.5 -31t-74 -70.5t-45 -94t-6 -100.5t43 -90.5t101.5 -64.5q21 -8 48 -10q57 -3 100.5 16.5t74.5 52.5t48 75.5t20 86.5zM438 216q-3 -41 -18.5 -80.5t-44 -69.5t-68.5 -47t-92 -15q-19 1 -42 8 q-62 21 -93 59t-38 83t6.5 92t41.5 86t68 65t85 28q52 3 90.5 -14t62.5 -46.5t34.5 -68.5t7.5 -80zM131 241q14 41 36 65t47 33.5t50 6t45 -17t32.5 -35.5t12.5 -50q0 -36 -17 -66.5t-43 -51t-55.5 -29t-55.5 -0.5t-43 34t-17 75q0 9 3 18t5 18zM113 247q-4 -10 -7 -20.5 t-3 -21.5q0 -55 20 -85.5t50 -40.5t65.5 -2t65.5 30.5t50 57.5t20 78q0 36 -15 62.5t-39 41.5t-54 18t-59 -8.5t-54 -38.5t-40 -71zM239 520q29 -14 51 -19t41.5 -0.5t37 19.5t37.5 41q-4 13 -7 22.5t-8.5 15.5t-15 9.5t-25.5 6.5q-7 -9 -19 -23.5t-24 -14.5q-6 0 -20 7 l-49.5 22t-43.5 11.5t-42.5 -8t-46.5 -36.5q-14 -15 -15 -27.5t6 -22t20 -17t27 -11.5q4 5 9.5 12.5t11.5 14t13 11.5t13 5q3 0 10 -2.5t14.5 -5.5t14.5 -6t10 -4zM247 538q-17 8 -30.5 14t-25.5 6t-24 -7t-25 -25l-5 -7q-12 5 -20 12q-10 9 -7 14.5t10 13.5q21 22 39.5 31 t35 8.5t31.5 -7t28.5 -14t26.5 -14t26 -6.5q17 0 29.5 12t21.5 24q15 -3 18.5 -9t7.5 -19q-16 -21 -30.5 -31.5t-30 -13.5t-34 2t-42.5 16z" />
<glyph unicode="&#xf6;" horiz-adv-x="479" d="M458 215q3 44 -8.5 87t-38 76t-69 51.5t-101.5 15.5q-50 -3 -93.5 -31t-74 -70.5t-45 -94t-6 -100.5t43 -90.5t101.5 -64.5q21 -8 48 -10q57 -3 100.5 16.5t74.5 52.5t48 75.5t20 86.5zM438 216q-3 -41 -18.5 -80.5t-44 -69.5t-68.5 -47t-92 -15q-19 1 -42 8 q-62 21 -93 59t-38 83t6.5 92t41.5 86t68 65t85 28q52 3 90.5 -14t62.5 -46.5t34.5 -68.5t7.5 -80zM131 241q14 41 36 65t47 33.5t50 6t45 -17t32.5 -35.5t12.5 -50q0 -36 -17 -66.5t-43 -51t-55.5 -29t-55.5 -0.5t-43 34t-17 75q0 9 3 18t5 18zM113 247q-4 -10 -7 -20.5 t-3 -21.5q0 -55 20 -85.5t50 -40.5t65.5 -2t65.5 30.5t50 57.5t20 78q0 36 -15 62.5t-39 41.5t-54 18t-59 -8.5t-54 -38.5t-40 -71zM171 625q-21 -3 -33.5 -18.5t-15.5 -34t4 -37.5t25 -30q22 -14 40 -9.5t29.5 19.5t15.5 35.5t-1.5 38.5t-21 29t-42.5 7zM175 605 q27 4 36.5 -13t5.5 -37.5t-19 -33.5t-37 0q-13 8 -17.5 21.5t-2 26.5t11 23.5t22.5 12.5zM322 625q-21 -3 -33.5 -18.5t-15.5 -34t4 -37.5t25 -30q21 -13 38.5 -8t29.5 19.5t17 35t0 38.5t-20.5 29t-44.5 6zM326 605q15 2 27 -8t16.5 -25t-2 -30.5t-28.5 -24.5 q-16 -6 -28.5 5.5t-16.5 28.5t2.5 34t29.5 20z" />
<glyph unicode="&#xf7;" horiz-adv-x="548" d="M28 282q2 -13 5.5 -23t13.5 -20h59q36 0 77.5 -0.5t86 -1t85.5 0t75.5 2t57.5 5.5q11 2 13.5 16t1 30.5t-5.5 31t-7 18.5q-33 4 -73.5 6t-82.5 2t-82.5 -1t-73.5 -2q-11 0 -32.5 0.5t-45 -1t-43.5 -6t-28 -14.5q-1 -11 -1.5 -21.5t0.5 -21.5zM482 265l-3 -1 q-41 -5 -96.5 -6t-114 -0.5t-114.5 1.5t-98 0q-8 11 -8.5 27.5t1.5 29.5q8 4 25.5 6t37.5 3t38 1h28q31 1 70 2t80 1t80 -1.5t69 -4.5q1 -5 2.5 -13.5t2 -17t0.5 -16.5v-11zM260 218q-23 -3 -38 -19t-19 -36t4 -40.5t29 -32.5q23 -13 43 -7.5t33.5 21t19 37t0 40.5t-22.5 30 t-49 7zM262 198q19 3 33.5 -8t19 -27.5t-3.5 -33.5t-32 -26q-20 -7 -35 5.5t-20 31t3 36.5t35 22zM265 502q-23 -3 -37.5 -19t-19 -36.5t3 -41t29.5 -32.5q24 -13 44 -7.5t33.5 21.5t18.5 37.5t0 40.5t-22.5 30.5t-49.5 6.5zM267 482q19 3 33.5 -8t19 -27.5t-3 -33.5 t-32.5 -27q-19 -8 -34 5t-20 31.5t2.5 37t34.5 22.5z" />
<glyph unicode="&#xf8;" horiz-adv-x="479" d="M263 345q-32 -54 -62 -108t-59 -109q-21 28 -19.5 67t19.5 74t50 57.5t71 18.5zM288 347l7 11q-37 9 -70 0.5t-58.5 -29t-41.5 -50t-20.5 -62t5.5 -65.5t37 -59q34 65 68.5 128t72.5 126zM220 97q29 52 57.5 103.5t58.5 102.5q20 -27 19.5 -62t-17 -66.5t-47.5 -53.5 t-71 -24zM194 92l-7 -14q47 -3 92.5 20t72 61t26 85t-45.5 92q-36 -60 -70 -121t-68 -123zM395 482q-10 2 -20 0.5t-19 -3.5q-11 -8 -19 -19.5t-16 -22.5q-56 16 -107.5 3.5t-92 -44t-67.5 -77.5t-34 -96.5t9.5 -100t63.5 -88.5q-9 -17 -17.5 -33t-16.5 -33q7 -8 16 -12 t19.5 -6t21.5 -3t21 -2q6 13 12.5 25.5t13.5 24.5q60 -19 111.5 -7.5t90.5 43t63.5 78.5t30 97.5t-10 100.5t-56.5 88q11 16 21 31t21 30q-8 13 -16.5 18.5t-22.5 7.5zM393 462q12 -2 16 -6q-11 -16 -21.5 -32t-21.5 -33q43 -37 60 -84t13 -95.5t-27.5 -92t-61 -73 t-87.5 -38.5t-108 11q-18 -27 -30 -52q-8 1 -23 2t-22 6h-1q11 11 21.5 31t18.5 34q-50 39 -68.5 86.5t-12 94.5t33.5 89t67 70.5t89.5 39t100.5 -6.5q8 12 16 25t19 23q6 1 13.5 1.5t15.5 -0.5z" />
<glyph unicode="&#xf9;" horiz-adv-x="445" d="M111 422q-11 -2 -22 -3.5t-22 -3.5q-7 -12 -11.5 -28t-7 -33.5t-4 -34.5t-1.5 -31q-1 -25 -2 -51.5t0 -52.5t5 -52t13 -50q19 -48 49 -67.5t64.5 -18.5t69 18.5t62.5 43.5q1 -13 3.5 -25t5.5 -25q9 -2 18.5 -3.5t18.5 2.5q13 1 21 1q9 0 14.5 2.5t8 9t4.5 19.5 q11 85 10.5 176t1.5 177q-5 13 -17 18.5t-26.5 6.5t-29.5 -0.5t-26 -1.5q1 -57 -1.5 -118.5t-18.5 -117.5q-7 -24 -27.5 -44t-43.5 -25.5t-43 8t-26 57.5q-8 59 -1 118t10 118q-13 7 -24 10t-25 1zM376 30q-8 -2 -16 -2t-16 -1q-4 -2 -7 -2t-8 1q-6 27 -6 55v26 q-14 -16 -34 -33t-42.5 -31t-46.5 -22t-47 -4.5t-42.5 20.5t-33.5 53q-8 22 -11.5 46t-4.5 50q-1 17 -0.5 47t2.5 61.5t6 59.5t11 43q15 2 29.5 5t30.5 -3q-5 -57 -11 -113t2 -113q7 -52 33 -70.5t55.5 -14t56 28t35.5 56.5q14 53 17.5 111t2.5 112q5 0 13.5 0.5t17.5 0 t17 -2.5t11 -6q-2 -82 -2.5 -164t-7.5 -164q-1 -8 -1.5 -15t-2.5 -15zM328 503h5q-15 46 -43.5 85.5t-65.5 69.5q-9 8 -22.5 7.5t-27 -6.5t-24.5 -14.5t-15 -17.5q12 -26 30.5 -43.5t37 -33.5t35.5 -34.5t28 -46.5q6 2 15.5 4.5t19 6.5t17.5 9.5t10 13.5zM303 523l6 -14 q-3 -5 -14.5 -9t-16.5 -6q-11 22 -27 38.5t-33 31t-33.5 29t-26.5 33.5q7 8 25 14.5t28 3.5q27 -23 53 -56t40 -65h-1z" />
<glyph unicode="&#xfa;" horiz-adv-x="445" d="M111 422q-11 -2 -22 -3.5t-22 -3.5q-7 -12 -11.5 -28t-7 -33.5t-4 -34.5t-1.5 -31q-1 -25 -2 -51.5t0 -52.5t5 -52t13 -50q19 -48 49 -67.5t64.5 -18.5t69 18.5t62.5 43.5q1 -13 3.5 -25t5.5 -25q9 -2 18.5 -3.5t18.5 2.5q13 1 21 1q9 0 14.5 2.5t8 9t4.5 19.5 q11 85 10.5 176t1.5 177q-5 13 -17 18.5t-26.5 6.5t-29.5 -0.5t-26 -1.5q1 -57 -1.5 -118.5t-18.5 -117.5q-7 -24 -27.5 -44t-43.5 -25.5t-43 8t-26 57.5q-8 59 -1 118t10 118q-13 7 -24 10t-25 1zM376 30q-8 -2 -16 -2t-16 -1q-4 -2 -7 -2t-8 1q-6 27 -6 55v26 q-14 -16 -34 -33t-42.5 -31t-46.5 -22t-47 -4.5t-42.5 20.5t-33.5 53q-8 22 -11.5 46t-4.5 50q-1 17 -0.5 47t2.5 61.5t6 59.5t11 43q15 2 29.5 5t30.5 -3q-5 -57 -11 -113t2 -113q7 -52 33 -70.5t55.5 -14t56 28t35.5 56.5q14 53 17.5 111t2.5 112q5 0 13.5 0.5t17.5 0 t17 -2.5t11 -6q-2 -82 -2.5 -164t-7.5 -164q-1 -8 -1.5 -15t-2.5 -15zM248 564q-17 -14 -33.5 -30.5t-27.5 -39.5q-2 1 -7 2.5t-10.5 3.5t-9.5 5t-3 6q2 10 14 30.5t27.5 42.5t31 39.5t24.5 20.5q10 3 28 -3.5t25 -14.5q-10 -19 -26 -33.5t-33 -28.5zM261 549q22 18 39 35 t30 43q-4 9 -13.5 17t-21.5 13t-24.5 7t-22.5 -2q-12 -4 -30 -23t-35.5 -43t-30.5 -46.5t-15 -34.5t4.5 -19.5t17 -12.5t21.5 -8t19 -6q11 29 25 45t37 35z" />
<glyph unicode="&#xfb;" horiz-adv-x="445" d="M111 422q-11 -2 -22 -3.5t-22 -3.5q-7 -12 -11.5 -28t-7 -33.5t-4 -34.5t-1.5 -31q-1 -25 -2 -51.5t0 -52.5t5 -52t13 -50q19 -48 49 -67.5t64.5 -18.5t69 18.5t62.5 43.5q1 -13 3.5 -25t5.5 -25q9 -2 18.5 -3.5t18.5 2.5q13 1 21 1q9 0 14.5 2.5t8 9t4.5 19.5 q11 85 10.5 176t1.5 177q-5 13 -17 18.5t-26.5 6.5t-29.5 -0.5t-26 -1.5q1 -57 -1.5 -118.5t-18.5 -117.5q-7 -24 -27.5 -44t-43.5 -25.5t-43 8t-26 57.5q-8 59 -1 118t10 118q-13 7 -24 10t-25 1zM376 30q-8 -2 -16 -2t-16 -1q-4 -2 -7 -2t-8 1q-6 27 -6 55v26 q-14 -16 -34 -33t-42.5 -31t-46.5 -22t-47 -4.5t-42.5 20.5t-33.5 53q-8 22 -11.5 46t-4.5 50q-1 17 -0.5 47t2.5 61.5t6 59.5t11 43q15 2 29.5 5t30.5 -3q-5 -57 -11 -113t2 -113q7 -52 33 -70.5t55.5 -14t56 28t35.5 56.5q14 53 17.5 111t2.5 112q5 0 13.5 0.5t17.5 0 t17 -2.5t11 -6q-2 -82 -2.5 -164t-7.5 -164q-1 -8 -1.5 -15t-2.5 -15zM175 515q-4 -5 -7 -8l-6 -6q-20 -2 -29.5 -0.5t-24.5 7.5q17 20 32.5 40t34.5 38q9 9 19 16t18 15q14 -1 28.5 0t28.5 0q16 -17 30 -34t31 -33q11 -11 23 -21.5t23 -21.5q-11 -4 -23.5 -6.5t-19.5 -0.5 q-8 4 -21 16t-27.5 25.5t-27 26.5t-18.5 20q-19 -17 -33.5 -35.5t-30.5 -37.5zM190 502q12 14 23 29t25 29q19 -19 38.5 -39t41.5 -35q9 -6 21 -6.5t24.5 2.5t24.5 7.5t21 7.5q-15 20 -31.5 35t-33.5 32t-33 36t-34 37q-18 1 -36.5 0t-37.5 0q-3 -5 -9 -9 q-36 -27 -62.5 -60.5t-57.5 -67.5q16 -7 26.5 -11t20 -6.5t20.5 -2.5t29 1q5 5 10 10.5t10 10.5z" />
<glyph unicode="&#xfc;" horiz-adv-x="445" d="M111 422q-11 -2 -22 -3.5t-22 -3.5q-7 -12 -11.5 -28t-7 -33.5t-4 -34.5t-1.5 -31q-1 -25 -2 -51.5t0 -52.5t5 -52t13 -50q19 -48 49 -67.5t64.5 -18.5t69 18.5t62.5 43.5q1 -13 3.5 -25t5.5 -25q9 -2 18.5 -3.5t18.5 2.5q13 1 21 1q9 0 14.5 2.5t8 9t4.5 19.5 q11 85 10.5 176t1.5 177q-5 13 -17 18.5t-26.5 6.5t-29.5 -0.5t-26 -1.5q1 -57 -1.5 -118.5t-18.5 -117.5q-7 -24 -27.5 -44t-43.5 -25.5t-43 8t-26 57.5q-8 59 -1 118t10 118q-13 7 -24 10t-25 1zM376 30q-8 -2 -16 -2t-16 -1q-4 -2 -7 -2t-8 1q-6 27 -6 55v26 q-14 -16 -34 -33t-42.5 -31t-46.5 -22t-47 -4.5t-42.5 20.5t-33.5 53q-8 22 -11.5 46t-4.5 50q-1 17 -0.5 47t2.5 61.5t6 59.5t11 43q15 2 29.5 5t30.5 -3q-5 -57 -11 -113t2 -113q7 -52 33 -70.5t55.5 -14t56 28t35.5 56.5q14 53 17.5 111t2.5 112q5 0 13.5 0.5t17.5 0 t17 -2.5t11 -6q-2 -82 -2.5 -164t-7.5 -164q-1 -8 -1.5 -15t-2.5 -15zM161 625q-21 -3 -33.5 -18.5t-15.5 -34t4 -37.5t25 -30q22 -14 40 -9.5t29.5 19.5t15.5 35.5t-1 38.5t-20.5 29t-43.5 7zM165 605q27 4 36.5 -13t5.5 -37.5t-19 -33.5t-37 0q-13 8 -17.5 21.5t-2 27 t11 23.5t22.5 12zM312 625q-21 -3 -33.5 -18.5t-15.5 -34t4 -37.5t25 -30q22 -14 40 -9.5t29.5 19.5t15.5 35.5t-1.5 38.5t-21 29t-42.5 7zM316 605q27 4 36.5 -13t5.5 -37.5t-19 -33.5t-37 0q-13 8 -17.5 21.5t-2 26.5t11 23.5t22.5 12.5z" />
<glyph unicode="&#xfd;" horiz-adv-x="420" d="M149 56q2 -5 3.5 -9t3.5 -9q-7 -22 -21.5 -51.5t-32.5 -59t-37.5 -56t-37.5 -41.5l13 -34q14 -14 27.5 -26t36.5 -12h3q13 8 25.5 25t24.5 37.5t23 40t19 33.5q48 81 83.5 168t72.5 174q20 45 40 86.5t35 89.5q-4 16 -16 24t-27.5 9.5t-31.5 -2t-28 -9.5 q-31 -70 -57.5 -142t-57.5 -142q-24 43 -44 95.5t-31 98.5q-1 4 -3.5 16t-6 24.5t-7 23.5t-7.5 14q-5 3 -19 1.5t-30 -5.5t-31 -7.5t-21 -4.5q5 -38 20.5 -84.5t35.5 -94.5t41.5 -92.5t39.5 -78.5zM101 404q2 -6 3.5 -12.5t3.5 -13.5q18 -73 42 -139t64 -132 q35 77 64.5 155.5t64.5 156.5q6 2 15.5 4t19.5 2q11 0 20 -3t12 -10q-15 -44 -35 -85t-38 -83q-37 -87 -72 -173t-84 -167q-6 -11 -16 -29.5t-21 -37.5t-22.5 -35.5t-20.5 -23.5q-14 1 -24 10.5t-19 19.5l-7 16q17 16 36 43.5t37 57.5t32 60t21 53q-2 7 -4.5 13.5t-5.5 13.5 q-17 33 -37.5 74t-39 84.5t-34 86.5t-22.5 79q17 4 33.5 8.5t33.5 6.5zM227 564q-17 -14 -33.5 -30.5t-27.5 -39.5q-6 2 -15.5 5.5t-14.5 8.5q-4 4 1 15.5t14.5 26t22.5 31t25 30t21 23t12 10.5q10 3 28 -3.5t26 -14.5q-11 -19 -26.5 -33.5t-32.5 -28.5zM240 549 q21 18 38.5 35t29.5 43q-4 9 -13.5 17t-21.5 13t-24.5 7t-22.5 -2q-12 -4 -30 -23t-35.5 -43t-30.5 -46.5t-15 -34.5q-2 -11 5 -18.5t17.5 -13t22 -8.5t18.5 -6q11 29 25 45t37 35z" />
<glyph unicode="&#xfe;" horiz-adv-x="478" d="M145 15q8 -4 12 -5q24 -11 53 -9t56.5 12t52.5 24.5t42 28.5q42 35 65.5 75.5t23.5 96.5q0 77 -54 131q-14 15 -26.5 23.5t-25.5 13.5t-27.5 8.5t-32.5 7.5l-5 1q-21 -4 -37 -7t-30.5 -7.5t-28.5 -12.5t-32 -22q-2 20 -3 48.5t-1 60.5q0 40 1 77.5t1 60.5v9q-29 3 -58 1 t-56 -13q-3 -68 1.5 -132t4.5 -131q0 -134 -1 -265.5t2 -265.5v-4q0 -7 7 -16q17 -6 27 -10t18.5 -4.5t19 2t30.5 9.5q-2 54 -1 107t2 107zM62 -179v1v2q-2 134 -1.5 265.5t0.5 265.5q0 62 -4.5 124.5t-1.5 124.5q15 5 36 7t38 1q0 -24 -1 -58.5t-1 -70.5q0 -39 1.5 -76.5 t10.5 -75.5q13 17 26 28t31 21q20 11 40 15t41 8q9 -2 17.5 -4t16.5 -4q54 -13 86.5 -56.5t32.5 -100.5q0 -51 -21.5 -87.5t-59.5 -68.5q-15 -13 -38 -26.5t-48.5 -23t-51.5 -11.5t-48 9q-4 0 -6 1q-11 5 -14 7.5t-18 4.5v-12q0 -57 -1.5 -108t0.5 -108q-12 -4 -19 -5 t-13 0.5t-13 4t-17 6.5zM205 114q-32 -8 -57 3q-2 32 -2 66t5 66q4 27 20 41.5t37.5 20t45 2t44 -13t33.5 -23.5t13 -31q0 -30 -11.5 -52t-30.5 -37.5t-44 -25.5t-53 -16zM209 94q28 7 56 18t50 28.5t35.5 43t13.5 61.5q0 43 -28 62.5t-65 21.5t-73.5 -9.5t-53.5 -30.5 q-9 -10 -12.5 -36t-4.5 -55.5t0 -56t3 -37.5q20 -11 38.5 -13t40.5 3z" />
<glyph unicode="&#xff;" horiz-adv-x="420" d="M149 56q2 -5 3.5 -9t3.5 -9q-7 -22 -21.5 -51.5t-32.5 -59t-37.5 -56t-37.5 -41.5l13 -34q14 -14 27.5 -26t36.5 -12h3q13 8 25.5 25t24.5 37.5t23 40t19 33.5q48 81 83.5 168t72.5 174q20 45 40 86.5t35 89.5q-4 16 -16 24t-27.5 9.5t-31.5 -2t-28 -9.5 q-31 -70 -57.5 -142t-57.5 -142q-24 43 -44 95.5t-31 98.5q-1 4 -3.5 16t-6 24.5t-7 23.5t-7.5 14q-5 3 -19 1.5t-30 -5.5t-31 -7.5t-21 -4.5q5 -38 20.5 -84.5t35.5 -94.5t41.5 -92.5t39.5 -78.5zM101 404q2 -6 3.5 -12.5t3.5 -13.5q18 -73 42 -139t64 -132 q35 77 64.5 155.5t64.5 156.5q6 2 15.5 4t19.5 2q11 0 20 -3t12 -10q-15 -44 -35 -85t-38 -83q-37 -87 -72 -173t-84 -167q-6 -11 -16 -29.5t-21 -37.5t-22.5 -35.5t-20.5 -23.5q-14 1 -24 10.5t-19 19.5l-7 16q17 16 36 43.5t37 57.5t32 60t21 53q-2 7 -4.5 13.5t-5.5 13.5 q-17 33 -37.5 74t-39 84.5t-34 86.5t-22.5 79q17 4 33.5 8.5t33.5 6.5zM131 625q-21 -3 -33.5 -18.5t-15.5 -34t4 -37.5t25 -30q22 -14 40 -9.5t29.5 19.5t15.5 35.5t-1 38.5t-20.5 29t-43.5 7zM135 605q27 4 36.5 -13t5.5 -37.5t-19 -33.5t-37 0q-13 8 -17.5 21.5t-2 27 t11 23.5t22.5 12zM282 625q-21 -3 -33.5 -18.5t-15.5 -34t4 -37.5t25 -30q22 -14 40 -9.5t29.5 19.5t15.5 35.5t-1.5 38.5t-20.5 29t-43 7zM286 605q27 4 36.5 -13t5.5 -37.5t-19 -33.5t-37 0q-13 8 -17.5 21.5t-2 26.5t11 23.5t22.5 12.5z" />
<glyph unicode="&#x152;" horiz-adv-x="929" d="M905 647q0 23 -3 44q-17 6 -34.5 10.5t-36.5 5.5q-81 2 -163 -8.5t-163 -16.5q-48 -4 -95.5 -7.5t-93.5 -17.5q-57 -19 -108 -53.5t-90 -81t-64 -102.5t-31 -117q-4 -42 4 -84.5t27.5 -80t49.5 -68t70 -48.5q42 -19 88.5 -26t91.5 -7q30 0 60 4t60 4q14 0 44.5 1t69.5 3 t82.5 5.5t82.5 7.5t70 9.5t45 12.5q10 13 12.5 23t0.5 19t-5.5 18t-3.5 21q-11 11 -32 15.5t-46.5 5.5t-54 -1.5t-55.5 -6t-50.5 -7t-38.5 -5.5q-2 44 -1 86.5t1 86.5l35 2q7 7 35.5 10t63 4.5t67 2t46.5 3.5q4 7 6.5 19.5t2.5 25.5q0 14 -3 26t-9 19q-11 12 -42.5 11.5 t-69 -4.5t-73 -7.5t-53.5 1.5q1 42 -0.5 84t9.5 82q29 5 58.5 5.5t58.5 3.5q25 2 49.5 4.5t49.5 5.5q3 2 9.5 2.5t13.5 0.5h15h11q15 0 21.5 5t8.5 13t1 17.5t-1 19.5zM885 647q0 -8 2 -19t-6 -16q-2 -1 -3 -0.5t-3 0.5q-11 0 -28 0.5t-27 -3.5q-24 -3 -47.5 -5.5 t-47.5 -4.5q-34 -4 -65.5 -4.5t-65.5 -6.5q-14 -48 -13 -97t0 -98l4 -3q8 -6 28 -7t45.5 0.5t52.5 4.5t51 5t41 1.5t22 -5.5q5 -6 6.5 -26t-2.5 -32q-16 -2 -46.5 -2.5t-62.5 -1.5t-60 -4t-38 -10l-47 -4v-9q0 -51 -0.5 -101.5t2.5 -102.5q13 1 36 4t50.5 6.5t56.5 7t55 4.5 t46.5 -1t30.5 -9q1 -8 4 -15t4.5 -13.5t1 -13.5t-5.5 -14q-13 -6 -41.5 -10.5t-64.5 -8.5t-77 -7t-79 -5t-70 -3t-50 -1q-30 0 -60 -4t-60 -4q-44 0 -88.5 7t-83.5 24q-36 16 -64 44t-46 63.5t-25.5 75t-3.5 78.5q5 58 29 111t61 97.5t85.5 77t103.5 50.5q45 15 91.5 18.5 t93.5 6.5q81 6 162 16.5t162 8.5q12 0 25.5 -3t27.5 -8q0 -7 0.5 -14t0.5 -15zM379 108q-49 -6 -92 -5t-75.5 15.5t-51.5 45t-19 84.5q-1 55 19 104.5t55 92.5q19 23 49.5 46.5t64.5 39.5t68.5 20.5t63.5 -8.5q2 -23 4.5 -46.5t4.5 -46.5q1 -11 2 -39t1.5 -64t0 -75.5 t-2 -72.5t-5.5 -56t-11 -26l-2 -1q-18 -4 -37 -5t-37 -3zM122 268h-2v-10q0 -51 13.5 -83.5t36 -52.5t52.5 -28t63.5 -10t69 1t68.5 7q13 2 29 3.5t24 14.5q6 12 10 37.5t6 58.5t2.5 69.5t-0.5 70.5t-2 62.5t-2 43.5q-2 26 -4.5 51.5t-4.5 51.5q-36 20 -77 16.5t-79.5 -20.5 t-71.5 -43t-54 -51q-32 -39 -52.5 -88.5t-24.5 -100.5z" />
<glyph unicode="&#x153;" horiz-adv-x="800" d="M274 343q37 -8 56 -32.5t23 -55t-6.5 -62t-31.5 -53.5q-17 -18 -42 -29.5t-50.5 -13.5t-48.5 6t-36 31q-9 16 -12 34t-3 37q0 8 3 17q6 25 19 49.5t31.5 42.5t43 26.5t54.5 2.5zM278 363q-23 5 -47 1t-46.5 -18t-41 -38.5t-30.5 -60.5q-4 -10 -7 -20.5t-3 -21.5 q0 -20 3 -41t14 -40q17 -30 45 -40t58.5 -7t59 17t46.5 32q25 26 36.5 63t6.5 72.5t-28 64t-66 37.5zM214 -16q51 -3 96 15.5t80 54.5q28 -40 69.5 -60t87 -22.5t91.5 10t83 36.5q6 4 14 10.5t16 14.5t14.5 16t9.5 14q-5 10 -11.5 19.5t-12.5 19.5q-8 11 -15 21t-21 13 q-12 -13 -24.5 -26t-26.5 -23t-30 -17t-36 -8q-21 -2 -43.5 2t-41 13t-32 24t-17.5 36q-1 5 -1.5 8t0.5 6q8 0 30 0.5t51 1.5t61 3.5t60 7.5t48 12t25 18q18 38 14 78.5t-24.5 74.5t-54.5 58t-75.5 29t-87.5 -12.5t-91 -66.5q-19 25 -45 43.5t-56 28.5t-62 10t-62 -11 q-45 -16 -81 -48.5t-59.5 -74.5t-31.5 -89t4 -91t46 -81t95 -58q21 -8 47 -10zM720 121l1 -1q17 -23 31 -48q-6 -8 -20.5 -20.5t-20.5 -17.5q-39 -25 -84 -36t-88.5 -6t-82 28.5t-64.5 67.5q-20 -24 -45 -43t-53 -30t-59 -12.5t-62 9.5q-56 20 -86.5 54t-41 74.5t-3 83.5 t29 81.5t55 68.5t73.5 44q33 11 64.5 9.5t59.5 -13.5t52 -33.5t41 -48.5q42 52 85.5 73t82.5 19t71 -22.5t51.5 -51t24 -67.5t-11.5 -71q-3 -7 -22.5 -11.5t-46.5 -8t-59 -5.5t-60 -3.5t-49 -2t-26 -0.5l-12 -8q-2 -9 -2.5 -15t1.5 -15q5 -27 21.5 -45.5t39 -29t48 -14.5 t47.5 -2q40 3 68 23t52 46zM660 268q0 -6 -2 -10q-10 -2 -39.5 -4t-61.5 -3.5t-58 -2.5t-28 0q-3 0 -5 2q5 33 22 55.5t39 34.5t46.5 13t44.5 -8t32 -28.5t10 -48.5zM680 266q3 36 -12 60.5t-39.5 36t-54.5 10t-57.5 -16t-47.5 -42.5t-24 -71q5 -6 8.5 -9.5t11.5 -5.5 q3 -1 18.5 -0.5t37 1.5t46 2.5t46 3t36.5 3t19 2.5q7 6 9 12t3 14z" />
<glyph unicode="&#x178;" horiz-adv-x="559" d="M262 397q-47 68 -85 140.5t-70 147.5q-14 3 -28 -0.5t-27.5 -9.5t-26.5 -13t-26 -11q0 -18 12.5 -49.5t31 -69t41.5 -77.5t45 -76t40 -64t27 -41q10 -60 7 -121.5t-1 -122.5v-16t1 -15q1 -9 14.5 -12.5t29.5 -3.5q17 0 32.5 2t20.5 3q13 3 20 7t9.5 10.5t2.5 15.5v21 q0 14 -0.5 32t-1.5 37q0 14 -1.5 35t-2.5 43.5t0 44t4 36.5q0 2 11.5 22t28 49.5t36 64t37.5 65.5t31.5 54.5t17.5 30.5q20 29 40.5 57t35.5 60q-12 16 -21.5 26.5t-20.5 17.5t-25 10.5t-34 5.5q-18 -18 -44 -56.5t-51.5 -81.5t-47.5 -83.5t-34 -62.5l-13.5 -27t-14.5 -25z M222 5q-3 35 -1.5 69t2 68.5t-0.5 69t-8 70.5q-9 13 -26 39.5t-37.5 60t-42.5 71.5t-40.5 73t-31.5 64.5t-16 46.5q15 7 36.5 18t36.5 11q33 -78 72.5 -151t88.5 -142h15q7 8 12.5 17t10.5 18q15 29 38 72t48.5 87.5t50.5 84t46 61.5q26 -3 39.5 -12t29.5 -30 q-14 -29 -32.5 -53.5t-35.5 -51.5q-4 -6 -18 -29.5t-32 -54.5t-38 -66.5t-37 -65.5t-28.5 -51.5t-12.5 -24.5q-3 -14 -4 -28t0 -27q2 -45 4 -88.5t2 -88.5q-1 -8 -0.5 -15t-1.5 -14q-6 -3 -18 -5.5t-25.5 -3.5t-25.5 -1t-19 2zM191 887q-21 -3 -33.5 -18.5t-15.5 -34.5 t4 -38t25 -30q22 -14 40 -9t29.5 20t15.5 35.5t-1.5 38.5t-21 29t-42.5 7zM195 867q18 3 28 -4.5t13.5 -20t0.5 -26.5t-10.5 -24t-19 -13.5t-26.5 5.5q-13 7 -17.5 20.5t-2 26.5t11 23.5t22.5 12.5zM342 887q-22 -3 -34 -18.5t-15 -34t4.5 -37.5t24.5 -30q20 -13 38 -8 t29.5 19.5t16.5 35t0.5 38.5t-20 29t-44.5 6zM346 867q14 2 26 -8t16.5 -24.5t-1.5 -30.5t-28 -25q-16 -6 -28.5 5.5t-16.5 28.5t2.5 34t29.5 20z" />
<glyph unicode="&#x2c6;" horiz-adv-x="326" d="M297 600q-11 -4 -23.5 -6.5t-19.5 -0.5q-8 4 -21.5 16t-27.5 25.5t-26.5 26t-18.5 19.5q-23 -20 -40.5 -43t-37.5 -44q-17 0 -27 0.5t-26 7.5q12 14 22.5 28t22.5 27q14 14 29 27t29 27q14 -1 29 0t29 0q26 -26 49.5 -54.5t53.5 -50.5q2 -4 4 -5zM112 597q11 14 22 28.5 t25 26.5q18 -19 38 -38.5t42 -34.5q9 -6 21 -6.5t24.5 2.5t24.5 7.5t21 8.5q-5 7 -11.5 13.5t-11.5 14.5q-32 23 -56.5 53t-52.5 58q-19 1 -37.5 0t-37.5 0q-14 -17 -31 -30.5t-32 -29.5q-17 -18 -32.5 -38t-32.5 -38q16 -8 26.5 -12t19 -6t18.5 -2.5t27 -0.5h4q6 6 11.5 12 t10.5 12z" />
<glyph unicode="&#x2dc;" horiz-adv-x="326" d="M153 617q29 -14 51.5 -18.5t41.5 0t36.5 19t37.5 40.5q-5 14 -8 23t-8.5 15t-15 9.5t-26.5 6.5q-7 -10 -18 -24t-24 -14q-6 0 -19 6q-28 12 -50 22t-43 12t-42 -7.5t-47 -36.5q-14 -15 -15 -27.5t6 -22t20.5 -17t27.5 -11.5q3 5 8.5 12.5t11.5 14t12.5 11.5t12.5 5 q3 0 10 -2.5t14.5 -5.5t14.5 -6t11 -4zM161 635q-17 8 -31 13.5t-26 6t-24 -6.5t-25 -25l-5 -7q-5 2 -9.5 5t-9.5 7q-11 9 -8.5 14.5t10.5 13.5q32 33 58 37t48 -4.5t41.5 -21.5t39.5 -13q17 0 29.5 11.5t21.5 24.5q16 -3 19 -9t8 -19q-17 -21 -31 -31.5t-30 -13.5t-34 2 t-42 16z" />
<glyph unicode="&#x2000;" horiz-adv-x="463" />
<glyph unicode="&#x2001;" horiz-adv-x="927" />
<glyph unicode="&#x2002;" horiz-adv-x="463" />
<glyph unicode="&#x2003;" horiz-adv-x="927" />
<glyph unicode="&#x2004;" horiz-adv-x="309" />
<glyph unicode="&#x2005;" horiz-adv-x="231" />
<glyph unicode="&#x2006;" horiz-adv-x="154" />
<glyph unicode="&#x2007;" horiz-adv-x="154" />
<glyph unicode="&#x2008;" horiz-adv-x="115" />
<glyph unicode="&#x2009;" horiz-adv-x="185" />
<glyph unicode="&#x200a;" horiz-adv-x="51" />
<glyph unicode="&#x2010;" horiz-adv-x="392" d="M28 307q2 -14 5.5 -24t13.5 -20q40 1 80 1.5t80 1.5q14 0 31.5 0.5t36 1t35.5 2t31 4.5q12 2 15 16t1.5 30.5t-6 31t-7.5 18.5q-42 6 -83 3.5t-83 -3.5q-11 0 -32.5 0.5t-44.5 -0.5t-43.5 -5.5t-28.5 -15.5q-1 -11 -1.5 -21t0.5 -21zM49 341q7 4 25 6t38.5 2.5t38.5 0.5 h27q39 1 77.5 4t77.5 -2q1 -5 2 -14t2 -18.5t1 -17.5v-9q-20 -3 -40 -3q-60 -4 -120.5 -4.5t-121.5 -2.5q-8 11 -8 28t1 30z" />
<glyph unicode="&#x2011;" horiz-adv-x="392" d="M28 307q2 -14 5.5 -24t13.5 -20q40 1 80 1.5t80 1.5q14 0 31.5 0.5t36 1t35.5 2t31 4.5q12 2 15 16t1.5 30.5t-6 31t-7.5 18.5q-42 6 -83 3.5t-83 -3.5q-11 0 -32.5 0.5t-44.5 -0.5t-43.5 -5.5t-28.5 -15.5q-1 -11 -1.5 -21t0.5 -21zM49 341q7 4 25 6t38.5 2.5t38.5 0.5 h27q39 1 77.5 4t77.5 -2q1 -5 2 -14t2 -18.5t1 -17.5v-9q-20 -3 -40 -3q-60 -4 -120.5 -4.5t-121.5 -2.5q-8 11 -8 28t1 30z" />
<glyph unicode="&#x2012;" horiz-adv-x="392" d="M28 307q2 -14 5.5 -24t13.5 -20q40 1 80 1.5t80 1.5q14 0 31.5 0.5t36 1t35.5 2t31 4.5q12 2 15 16t1.5 30.5t-6 31t-7.5 18.5q-42 6 -83 3.5t-83 -3.5q-11 0 -32.5 0.5t-44.5 -0.5t-43.5 -5.5t-28.5 -15.5q-1 -11 -1.5 -21t0.5 -21zM49 341q7 4 25 6t38.5 2.5t38.5 0.5 h27q39 1 77.5 4t77.5 -2q1 -5 2 -14t2 -18.5t1 -17.5v-9q-20 -3 -40 -3q-60 -4 -120.5 -4.5t-121.5 -2.5q-8 11 -8 28t1 30z" />
<glyph unicode="&#x2013;" horiz-adv-x="634" d="M28 282q2 -13 5.5 -23t13.5 -20q121 2 241 0.5t241 2.5q14 1 29 1q16 0 30 2q11 2 13.5 15.5t1 30t-5.5 31.5t-7 19q-40 5 -78 5q-37 0 -77 1q-65 0 -129 0.5t-128 -1.5q-12 0 -33 0.5t-44 -1t-43 -6t-29 -14.5q-1 -11 -1.5 -21.5t0.5 -21.5zM582 265l-3 -1h-9t-10 -1 q-127 -6 -252.5 -4t-251.5 0q-8 11 -8.5 27.5t1.5 29.5q8 4 26 6t38 3t38 1h27q65 2 128.5 1.5t128.5 -0.5q35 -1 71 -0.5t71 -3.5q1 -5 2.5 -13t2 -16.5t1 -16.5t-0.5 -12z" />
<glyph unicode="&#x2014;" horiz-adv-x="775" d="M28 283q2 -14 5.5 -24t13.5 -20q164 3 327 0.5t327 3.5q9 1 19 1t19 2q10 1 12.5 15t0.5 30.5t-6 31t-6 18.5q-14 2 -46 3t-71.5 2t-82.5 1.5t-79 0.5h-59h-26h-33q-26 0 -62.5 -0.5t-78 -1.5t-78 -3.5t-63 -6.5t-32.5 -10q-1 -11 -1.5 -21.5t0.5 -21.5zM732 265 q-3 0 -6 -0.5t-6 -0.5q-75 -5 -160 -5.5t-171.5 0t-171.5 1t-161 -0.5q-8 11 -8.5 27t1.5 29q8 3 38 5t74 3.5t99.5 3t115.5 1.5q58 0 114.5 -0.5t104.5 -1t82.5 -1.5t49.5 -2q3 -11 5 -30t0 -28z" />
<glyph unicode="&#x2018;" horiz-adv-x="196" d="M63 645q15 -28 22.5 -49t8.5 -53q14 2 30 2q17 0 30 7q11 6 13 22t-1 36.5t-10 44t-15 44.5t-15 36.5t-11 21.5q-19 13 -45.5 8.5t-42.5 -18.5q2 -30 12 -53t24 -49zM81 654q-11 20 -20.5 40.5t-12.5 43.5q10 7 27 8.5t26 -3.5q8 -13 17 -36.5t16 -49.5t11 -49.5t2 -35.5 q0 -2 -5 -3.5t-10.5 -2.5t-11.5 -1h-7q-2 25 -11.5 47t-20.5 42z" />
<glyph unicode="&#x2019;" horiz-adv-x="196" d="M113 654q-11 -20 -20.5 -42t-11.5 -47q-7 0 -16.5 0.5t-14.5 3.5q-7 3 -6.5 17t5 33t11.5 40t14 39t12.5 30.5t6.5 14.5q9 5 26 3.5t27 -8.5q-3 -23 -12.5 -43.5t-20.5 -40.5zM131 645q14 26 24 49t12 53q-16 14 -42.5 18.5t-45.5 -8.5q-8 -12 -18.5 -37.5t-19 -54 t-13 -55t-1.5 -42.5q2 -10 11 -15t20 -7t22 -2q12 0 20 -1q1 32 8.5 53t22.5 49z" />
<glyph unicode="&#x201a;" horiz-adv-x="244" d="M37 -65q10 16 15.5 28.5t9.5 24.5t7.5 25.5t8.5 33.5q5 15 9 31.5t11 30.5q4 3 13 3.5t18.5 -0.5t19 -3.5t14.5 -5.5q5 -18 -4 -42.5t-24 -49t-31.5 -46.5t-27.5 -35q-10 1 -20 1.5t-19 3.5zM154 4q7 11 13.5 24.5t11 28t5 29.5t-4.5 29q-7 6 -19.5 10.5t-26.5 6t-27 0 t-21 -7.5q-3 -2 -4 -5t-3 -6q-14 -32 -21 -67t-19 -68q-4 -10 -10 -19t-11 -18q-6 -12 2 -18t21.5 -9t27 -3.5t16.5 -0.5q20 22 37.5 45t32.5 49z" />
<glyph unicode="&#x201c;" horiz-adv-x="356" d="M63 645q15 -28 22.5 -49t8.5 -53q14 2 30 2q17 0 30 7q11 6 13 22t-1 36.5t-10 44t-15 44.5t-15 36.5t-11 21.5q-19 13 -45.5 8.5t-42.5 -18.5q2 -30 12 -53t24 -49zM81 654q-11 20 -20.5 40.5t-12.5 43.5q10 7 27 8.5t26 -3.5q8 -13 17 -36.5t16 -49.5t11 -49.5t2 -35.5 q0 -2 -5 -3.5t-10.5 -2.5t-11.5 -1h-7q-2 25 -11.5 47t-20.5 42zM224 645q15 -28 22.5 -49t8.5 -53q14 2 30 2q17 0 30 7q16 8 14 38t-12 64.5t-22.5 64.5t-18.5 38q-19 13 -45.5 8.5t-42.5 -18.5q2 -30 12 -53t24 -49zM242 654q-11 20 -20.5 40.5t-12.5 43.5q10 7 27 8.5 t26 -3.5q7 -13 16 -36.5t16.5 -49.5t11.5 -49.5t2 -35.5q-5 -5 -16 -6t-18 -1q-2 25 -11.5 47t-20.5 42z" />
<glyph unicode="&#x201d;" horiz-adv-x="356" d="M274 654q-11 -20 -20.5 -42t-11.5 -47q-7 0 -16.5 0.5t-14.5 3.5q-8 4 -3.5 30t13.5 57t19 57t14 29q8 6 25.5 4.5t28.5 -8.5q-3 -23 -13 -43.5t-21 -40.5zM292 645q14 26 24 49t12 53q-7 6 -18 11t-23 7t-24 0.5t-21 -7.5q-10 -8 -20 -34.5t-18.5 -57.5t-13 -59 t-2.5 -39q2 -10 11 -15t20 -7t22 -2q12 0 20 -1q1 32 8.5 53t22.5 49zM113 654q-11 -20 -20.5 -42t-11.5 -47q-7 0 -16.5 0.5t-14.5 3.5q-7 3 -6.5 17t5 33t11.5 40t14 39t12.5 30.5t6.5 14.5q9 5 26 3.5t27 -8.5q-3 -23 -12.5 -43.5t-20.5 -40.5zM131 645q14 26 24 49 t12 53q-16 14 -42.5 18.5t-45.5 -8.5q-8 -12 -18.5 -37.5t-19 -54t-13 -55t-1.5 -42.5q2 -10 11 -15t20 -7t22 -2q12 0 20 -1q1 32 8.5 53t22.5 49z" />
<glyph unicode="&#x201e;" horiz-adv-x="397" d="M37 -65q10 16 15.5 28.5t9.5 24.5t7.5 25.5t8.5 33.5q5 15 9 31.5t11 30.5q4 3 13 3.5t18.5 -0.5t19 -3.5t14.5 -5.5q5 -18 -4 -42.5t-24 -49t-31.5 -46.5t-27.5 -35q-10 1 -20 1.5t-19 3.5zM154 4q7 11 13.5 24.5t11 28t5 29.5t-4.5 29q-7 6 -19.5 10.5t-26.5 6t-27 0 t-21 -7.5q-3 -2 -4 -5t-3 -6q-14 -32 -21 -67t-19 -68q-4 -10 -10 -19t-11 -18q-6 -12 2 -18t21.5 -9t27 -3.5t16.5 -0.5q20 22 37.5 45t32.5 49zM217 -65q10 16 15.5 28.5t9.5 24.5t7.5 25.5t8.5 33.5q5 15 9 31.5t11 30.5q4 3 13 3.5t18.5 -0.5t19 -3.5t14.5 -5.5 q5 -18 -4 -42.5t-24 -49t-31.5 -46.5t-27.5 -35q-10 1 -20 1.5t-19 3.5zM334 4q7 11 13.5 24.5t11 28t5 29.5t-4.5 29q-7 6 -19.5 10.5t-26.5 6t-27 0t-21 -7.5q-3 -2 -4 -5t-3 -6q-14 -32 -21 -67t-19 -68q-4 -10 -10 -19t-11 -18q-6 -12 2 -18t21.5 -9t27 -3.5t16.5 -0.5 q20 22 37.5 45t32.5 49z" />
</font>
</defs>
</svg>
