<?xml version="1.0" standalone="no"?>
<!DOCTYPE svg PUBLIC "-//W3C//DTD SVG 1.1//EN" "http://www.w3.org/Graphics/SVG/1.1/DTD/svg11.dtd" >
<svg xmlns="http://www.w3.org/2000/svg">
<metadata></metadata>
<defs>
<font id="bpdotsminusbold" horiz-adv-x="600" >
<font-face units-per-em="1000" ascent="800" descent="-200" />
<missing-glyph horiz-adv-x="500" />
<glyph horiz-adv-x="1000" />
<glyph horiz-adv-x="1000" />
<glyph unicode="&#xd;" horiz-adv-x="1000" />
<glyph unicode=" " />
<glyph unicode="!" d="M182 24v50h98v-50h-98zM182 118v50h98v-50h-98zM182 307v50h98v-50h-98zM182 401v50h98v-50h-98zM182 496v50h98v-50h-98zM182 590v50h98v-50h-98z" />
<glyph unicode="&#x22;" d="M162 401v50h97v-50h-97zM257 496v50h97v-50h-97zM257 590v50h97v-50h-97zM351 401v50h97v-50h-97zM445 496v50h98v-50h-98zM445 590v50h98v-50h-98z" />
<glyph unicode="#" d="M-7 212v51h475v-51h-475zM-7 401v50h475v-50h-475zM88 24v50h97v-50h-97zM88 118v50h97v-50h-97zM88 307v50h97v-50h-97zM88 496v50h97v-50h-97zM88 590v50h97v-50h-97zM277 24v50h97v-50h-97zM277 118v50h97v-50h-97zM277 307v50h97v-50h-97zM277 496v50h97v-50h-97z M277 590v50h97v-50h-97z" />
<glyph unicode="$" d="M-7 24v50h381v-50h-381zM-7 307v50h98v-50h-98zM88 212v51h286v-51h-286zM88 401v50h380v-50h-380zM182 -21h98v-50h-98v50zM182 118v50h98v-50h-98zM182 307v50h98v-50h-98zM182 496v50h98v-50h-98zM371 118v50h97v-50h-97z" />
<glyph unicode="%" d="M-8 24v50h97v-50h-97zM-8 118v50h97v-50h-97zM-8 496v50h192v-50h-192zM-8 590v50h192v-50h-192zM86 212v51h98v-51h-98zM86 307v50h98v-50h-98zM181 24v50h192v-50h-192zM181 118v50h192v-50h-192zM181 401v50h97v-50h-97zM275 496v50h98v-50h-98zM275 590v50h98v-50 h-98z" />
<glyph unicode="&#x26;" d="M-7 118v50h98v-50h-98zM-7 212v51h98v-51h-98zM-7 401v50h98v-50h-98zM-7 496v50h98v-50h-98zM88 24v50h192v-50h-192zM88 307v50h380v-50h-380zM88 590v50h192v-50h-192zM277 118v50h97v-50h-97zM277 212v51h97v-51h-97z" />
<glyph unicode="'" d="M257 401v50h97v-50h-97zM351 496v50h97v-50h-97zM351 590v50h97v-50h-97z" />
<glyph unicode="(" d="M184 118v50h97v-50h-97zM184 212v51h97v-51h-97zM184 307v50h97v-50h-97zM184 401v50h97v-50h-97zM184 496v50h97v-50h-97zM278 24v50h97v-50h-97zM278 590v50h97v-50h-97z" />
<glyph unicode=")" d="M184 24v50h97v-50h-97zM184 590v50h97v-50h-97zM278 118v50h97v-50h-97zM278 212v51h97v-51h-97zM278 307v50h97v-50h-97zM278 401v50h97v-50h-97zM278 496v50h97v-50h-97z" />
<glyph unicode="*" d="M-9 401v50h97v-50h-97zM-9 590v50h97v-50h-97zM85 496v50h97v-50h-97zM179 401v50h98v-50h-98zM179 590v50h98v-50h-98z" />
<glyph unicode="+" d="M-7 212v51h475v-51h-475zM182 24v50h98v-50h-98zM182 118v50h98v-50h-98zM182 307v50h98v-50h-98zM182 401v50h98v-50h-98z" />
<glyph unicode="," d="M86 -21h98v-50h-98v50zM181 24v50h97v-50h-97zM181 118v50h97v-50h-97z" />
<glyph unicode="-" d="M88 212v51h286v-51h-286z" />
<glyph unicode="." d="M182 24v50h98v-50h-98zM182 118v50h98v-50h-98z" />
<glyph unicode="/" d="M89 24v50h97v-50h-97zM89 118v50h97v-50h-97zM184 212v51h97v-51h-97zM184 307v50h97v-50h-97zM278 401v50h97v-50h-97zM373 496v50h97v-50h-97zM373 590v50h97v-50h-97z" />
<glyph unicode="0" d="M-7 118v50h192v-50h-192zM-7 212v51h98v-51h-98zM-7 307v50h98v-50h-98zM88 24v50h286v-50h-286zM88 401v50h286v-50h-286zM182 212v51h98v-51h-98zM277 307v50h191v-50h-191zM371 118v50h97v-50h-97zM371 212v51h97v-51h-97z" />
<glyph unicode="1" d="M-7 24v50h475v-50h-475zM-7 401v50h287v-50h-287zM182 118v50h98v-50h-98zM182 212v51h98v-51h-98zM182 307v50h98v-50h-98z" />
<glyph unicode="2" d="M-7 24v50h475v-50h-475zM-7 307v50h98v-50h-98zM88 118v50h97v-50h-97zM88 401v50h286v-50h-286zM182 212v51h192v-51h-192zM371 307v50h97v-50h-97z" />
<glyph unicode="3" d="M-7 -21h98v-50h-98v50zM-7 307v50h98v-50h-98zM88 -115h286v-50h-286v50zM88 118v50h286v-50h-286zM88 401v50h286v-50h-286zM371 -21h97v-50h-97v50zM371 24v50h97v-50h-97zM371 212v51h97v-51h-97zM371 307v50h97v-50h-97z" />
<glyph unicode="4" d="M-7 24v50h475v-50h-475zM-7 118v50h98v-50h-98zM88 212v51h97v-51h-97zM182 307v50h192v-50h-192zM277 -21h97v-50h-97v50zM277 -115h97v-50h-97v50zM277 118v50h97v-50h-97zM277 212v51h97v-51h-97zM277 401v50h97v-50h-97z" />
<glyph unicode="5" d="M-7 -115h381v-50h-381v50zM-7 118v50h381v-50h-381zM-7 212v51h98v-51h-98zM-7 307v50h98v-50h-98zM-7 401v50h475v-50h-475zM371 -21h97v-50h-97v50zM371 24v50h97v-50h-97z" />
<glyph unicode="6" d="M-7 118v50h98v-50h-98zM-7 212v51h98v-51h-98zM-7 307v50h381v-50h-381zM-7 401v50h98v-50h-98zM88 24v50h286v-50h-286zM88 496v50h97v-50h-97zM182 590v50h192v-50h-192zM371 118v50h97v-50h-97zM371 212v51h97v-51h-97z" />
<glyph unicode="7" d="M-7 401v50h475v-50h-475zM88 -21h97v-50h-97v50zM88 24v50h97v-50h-97zM88 -115h97v-50h-97v50zM182 118v50h98v-50h-98zM277 212v51h97v-51h-97zM371 307v50h97v-50h-97z" />
<glyph unicode="8" d="M-7 118v50h98v-50h-98zM-7 212v51h98v-51h-98zM-7 401v50h98v-50h-98zM-7 496v50h98v-50h-98zM88 24v50h286v-50h-286zM88 307v50h286v-50h-286zM88 590v50h286v-50h-286zM371 118v50h97v-50h-97zM371 212v51h97v-51h-97zM371 401v50h97v-50h-97zM371 496v50h97v-50h-97z " />
<glyph unicode="9" d="M-7 212v51h98v-51h-98zM-7 307v50h98v-50h-98zM88 -115h192v-50h-192v50zM88 118v50h380v-50h-380zM88 401v50h286v-50h-286zM277 -21h97v-50h-97v50zM371 24v50h97v-50h-97zM371 212v51h97v-51h-97zM371 307v50h97v-50h-97z" />
<glyph unicode=":" d="M182 24v50h98v-50h-98zM182 118v50h98v-50h-98zM182 307v50h98v-50h-98zM182 401v50h98v-50h-98z" />
<glyph unicode=";" d="M86 -21h98v-50h-98v50zM181 24v50h97v-50h-97zM181 118v50h97v-50h-97zM181 307v50h97v-50h-97zM181 401v50h97v-50h-97z" />
<glyph unicode="&#x3c;" d="M88 212v51h97v-51h-97zM182 118v50h98v-50h-98zM182 307v50h98v-50h-98zM277 24v50h97v-50h-97zM277 401v50h97v-50h-97z" />
<glyph unicode="=" d="M-7 118v50h475v-50h-475zM-7 307v50h475v-50h-475z" />
<glyph unicode="&#x3e;" d="M185 24v50h97v-50h-97zM185 401v50h97v-50h-97zM279 118v50h98v-50h-98zM279 307v50h98v-50h-98zM374 212v51h97v-51h-97z" />
<glyph unicode="?" d="M-7 496v50h98v-50h-98zM88 590v50h286v-50h-286zM182 24v50h98v-50h-98zM182 118v50h98v-50h-98zM182 307v50h192v-50h-192zM371 401v50h97v-50h-97zM371 496v50h97v-50h-97z" />
<glyph unicode="@" d="M-7 118v50h98v-50h-98zM-7 212v51h475v-51h-475zM-7 307v50h192v-50h-192zM-7 401v50h98v-50h-98zM-7 496v50h98v-50h-98zM88 24v50h380v-50h-380zM88 590v50h286v-50h-286zM182 401v50h286v-50h-286zM277 307v50h191v-50h-191zM371 496v50h97v-50h-97z" />
<glyph unicode="A" d="M-9 24v51h99v-51h-99zM-9 120v51h99v-51h-99zM-9 216v51h483v-51h-483zM-9 312v51h99v-51h-99zM-9 408v51h99v-51h-99zM-9 504v51h99v-51h-99zM87 600v51h291v-51h-291zM375 24v51h99v-51h-99zM375 120v51h99v-51h-99zM375 312v51h99v-51h-99zM375 408v51h99v-51h-99z M375 504v51h99v-51h-99z" />
<glyph unicode="B" d="M-9 24v51h387v-51h-387zM-9 120v51h99v-51h-99zM-9 216v51h99v-51h-99zM-9 312v51h387v-51h-387zM-9 408v51h99v-51h-99zM-9 504v51h99v-51h-99zM-9 600v51h387v-51h-387zM375 120v51h99v-51h-99zM375 216v51h99v-51h-99zM375 408v51h99v-51h-99zM375 504v51h99v-51h-99z " />
<glyph unicode="C" d="M-9 120v51h99v-51h-99zM-9 216v51h99v-51h-99zM-9 312v51h99v-51h-99zM-9 408v51h99v-51h-99zM-9 504v51h99v-51h-99zM87 24v51h291v-51h-291zM87 600v51h291v-51h-291zM375 120v51h99v-51h-99zM375 504v51h99v-51h-99z" />
<glyph unicode="D" d="M-9 24v51h387v-51h-387zM-9 120v51h99v-51h-99zM-9 216v51h99v-51h-99zM-9 312v51h99v-51h-99zM-9 408v51h99v-51h-99zM-9 504v51h99v-51h-99zM-9 600v51h387v-51h-387zM375 120v51h99v-51h-99zM375 216v51h99v-51h-99zM375 312v51h99v-51h-99zM375 408v51h99v-51h-99z M375 504v51h99v-51h-99z" />
<glyph unicode="E" d="M-9 24v51h483v-51h-483zM-9 120v51h99v-51h-99zM-9 216v51h99v-51h-99zM-9 312v51h387v-51h-387zM-9 408v51h99v-51h-99zM-9 504v51h99v-51h-99zM-9 600v51h483v-51h-483z" />
<glyph unicode="F" d="M-9 24v51h99v-51h-99zM-9 120v51h99v-51h-99zM-9 216v51h99v-51h-99zM-9 312v51h387v-51h-387zM-9 408v51h99v-51h-99zM-9 504v51h99v-51h-99zM-9 600v51h483v-51h-483z" />
<glyph unicode="G" d="M-9 120v51h99v-51h-99zM-9 216v51h99v-51h-99zM-9 312v51h99v-51h-99zM-9 408v51h99v-51h-99zM-9 504v51h99v-51h-99zM87 24v51h387v-51h-387zM87 600v51h291v-51h-291zM279 216v51h195v-51h-195zM375 120v51h99v-51h-99zM375 504v51h99v-51h-99z" />
<glyph unicode="H" d="M-9 24v51h99v-51h-99zM-9 120v51h99v-51h-99zM-9 216v51h99v-51h-99zM-9 312v51h483v-51h-483zM-9 408v51h99v-51h-99zM-9 504v51h99v-51h-99zM-9 600v51h99v-51h-99zM375 24v51h99v-51h-99zM375 120v51h99v-51h-99zM375 216v51h99v-51h-99zM375 408v51h99v-51h-99z M375 504v51h99v-51h-99zM375 600v51h99v-51h-99z" />
<glyph unicode="I" d="M-9 24v51h483v-51h-483zM-9 600v51h483v-51h-483zM183 120v51h99v-51h-99zM183 216v51h99v-51h-99zM183 312v51h99v-51h-99zM183 408v51h99v-51h-99zM183 504v51h99v-51h-99z" />
<glyph unicode="J" d="M-10 120v51h99v-51h-99zM-10 600v51h387v-51h-387zM86 24v51h195v-51h-195zM278 120v51h99v-51h-99zM278 216v51h99v-51h-99zM278 312v51h99v-51h-99zM278 408v51h99v-51h-99zM278 504v51h99v-51h-99z" />
<glyph unicode="K" d="M-9 24v51h99v-51h-99zM-9 120v51h99v-51h-99zM-9 216v51h99v-51h-99zM-9 312v51h291v-51h-291zM-9 408v51h99v-51h-99zM-9 504v51h99v-51h-99zM-9 600v51h99v-51h-99zM279 216v51h99v-51h-99zM279 408v51h99v-51h-99zM375 24v51h99v-51h-99zM375 120v51h99v-51h-99z M375 504v51h99v-51h-99zM375 600v51h99v-51h-99z" />
<glyph unicode="L" d="M-9 24v51h483v-51h-483zM-9 120v51h99v-51h-99zM-9 216v51h99v-51h-99zM-9 312v51h99v-51h-99zM-9 408v51h99v-51h-99zM-9 504v51h99v-51h-99zM-9 600v51h99v-51h-99z" />
<glyph unicode="M" d="M-9 24v51h99v-51h-99zM-9 120v51h99v-51h-99zM-9 216v51h99v-51h-99zM-9 312v51h99v-51h-99zM-9 408v51h195v-51h-195zM-9 504v51h195v-51h-195zM-9 600v51h99v-51h-99zM183 216v51h99v-51h-99zM183 312v51h99v-51h-99zM279 408v51h195v-51h-195zM279 504v51h195v-51 h-195zM375 24v51h99v-51h-99zM375 120v51h99v-51h-99zM375 216v51h99v-51h-99zM375 312v51h99v-51h-99zM375 600v51h99v-51h-99z" />
<glyph unicode="N" d="M-9 24v51h99v-51h-99zM-9 120v51h99v-51h-99zM-9 216v51h99v-51h-99zM-9 312v51h99v-51h-99zM-9 408v51h99v-51h-99zM-9 504v51h195v-51h-195zM-9 600v51h99v-51h-99zM183 312v51h99v-51h-99zM183 408v51h99v-51h-99zM279 216v51h195v-51h-195zM375 24v51h99v-51h-99z M375 120v51h99v-51h-99zM375 312v51h99v-51h-99zM375 408v51h99v-51h-99zM375 504v51h99v-51h-99zM375 600v51h99v-51h-99z" />
<glyph unicode="O" d="M-9 120v51h99v-51h-99zM-9 216v51h99v-51h-99zM-9 312v51h99v-51h-99zM-9 408v51h99v-51h-99zM-9 504v51h99v-51h-99zM87 24v51h291v-51h-291zM87 600v51h291v-51h-291zM375 120v51h99v-51h-99zM375 216v51h99v-51h-99zM375 312v51h99v-51h-99zM375 408v51h99v-51h-99z M375 504v51h99v-51h-99z" />
<glyph unicode="P" d="M-9 24v51h99v-51h-99zM-9 120v51h99v-51h-99zM-9 216v51h387v-51h-387zM-9 312v51h99v-51h-99zM-9 408v51h99v-51h-99zM-9 504v51h99v-51h-99zM-9 600v51h387v-51h-387zM375 312v51h99v-51h-99zM375 408v51h99v-51h-99zM375 504v51h99v-51h-99z" />
<glyph unicode="Q" d="M-9 120v51h99v-51h-99zM-9 216v51h99v-51h-99zM-9 312v51h99v-51h-99zM-9 408v51h99v-51h-99zM-9 504v51h99v-51h-99zM87 24v51h291v-51h-291zM87 600v51h291v-51h-291zM183 -21h99v-51h-99v51zM183 120v51h99v-51h-99zM279 -117h99v-51h-99v51zM375 120v51h99v-51h-99z M375 216v51h99v-51h-99zM375 312v51h99v-51h-99zM375 408v51h99v-51h-99zM375 504v51h99v-51h-99z" />
<glyph unicode="R" d="M-9 24v51h99v-51h-99zM-9 120v51h99v-51h-99zM-9 216v51h99v-51h-99zM-9 312v51h387v-51h-387zM-9 408v51h99v-51h-99zM-9 504v51h99v-51h-99zM-9 600v51h387v-51h-387zM279 216v51h99v-51h-99zM375 24v51h99v-51h-99zM375 120v51h99v-51h-99zM375 408v51h99v-51h-99z M375 504v51h99v-51h-99z" />
<glyph unicode="S" d="M-9 24v51h387v-51h-387zM-9 408v51h99v-51h-99zM-9 504v51h99v-51h-99zM87 312v51h291v-51h-291zM87 600v51h387v-51h-387zM375 120v51h99v-51h-99zM375 216v51h99v-51h-99z" />
<glyph unicode="T" d="M-9 600v51h483v-51h-483zM183 24v51h99v-51h-99zM183 120v51h99v-51h-99zM183 216v51h99v-51h-99zM183 312v51h99v-51h-99zM183 408v51h99v-51h-99zM183 504v51h99v-51h-99z" />
<glyph unicode="U" d="M-9 120v51h99v-51h-99zM-9 216v51h99v-51h-99zM-9 312v51h99v-51h-99zM-9 408v51h99v-51h-99zM-9 504v51h99v-51h-99zM-9 600v51h99v-51h-99zM87 24v51h291v-51h-291zM375 120v51h99v-51h-99zM375 216v51h99v-51h-99zM375 312v51h99v-51h-99zM375 408v51h99v-51h-99z M375 504v51h99v-51h-99zM375 600v51h99v-51h-99z" />
<glyph unicode="V" d="M-9 312v51h99v-51h-99zM-9 408v51h99v-51h-99zM-9 504v51h99v-51h-99zM-9 600v51h99v-51h-99zM87 120v51h99v-51h-99zM87 216v51h99v-51h-99zM183 24v51h99v-51h-99zM279 120v51h99v-51h-99zM279 216v51h99v-51h-99zM375 312v51h99v-51h-99zM375 408v51h99v-51h-99z M375 504v51h99v-51h-99zM375 600v51h99v-51h-99z" />
<glyph unicode="W" d="M-9 216v51h99v-51h-99zM-9 312v51h99v-51h-99zM-9 408v51h99v-51h-99zM-9 504v51h99v-51h-99zM-9 600v51h99v-51h-99zM87 24v51h99v-51h-99zM87 120v51h99v-51h-99zM183 216v51h99v-51h-99zM183 312v51h99v-51h-99zM183 408v51h99v-51h-99zM183 504v51h99v-51h-99z M279 24v51h99v-51h-99zM279 120v51h99v-51h-99zM375 216v51h99v-51h-99zM375 312v51h99v-51h-99zM375 408v51h99v-51h-99zM375 504v51h99v-51h-99zM375 600v51h99v-51h-99z" />
<glyph unicode="X" d="M-9 24v51h99v-51h-99zM-9 120v51h99v-51h-99zM-9 504v51h99v-51h-99zM-9 600v51h99v-51h-99zM87 216v51h99v-51h-99zM87 408v51h99v-51h-99zM183 312v51h99v-51h-99zM279 216v51h99v-51h-99zM279 408v51h99v-51h-99zM375 24v51h99v-51h-99zM375 120v51h99v-51h-99z M375 504v51h99v-51h-99zM375 600v51h99v-51h-99z" />
<glyph unicode="Y" d="M-9 408v51h99v-51h-99zM-9 504v51h99v-51h-99zM-9 600v51h99v-51h-99zM87 312v51h99v-51h-99zM183 24v51h99v-51h-99zM183 120v51h99v-51h-99zM183 216v51h99v-51h-99zM279 312v51h99v-51h-99zM375 408v51h99v-51h-99zM375 504v51h99v-51h-99zM375 600v51h99v-51h-99z " />
<glyph unicode="Z" d="M-9 24v51h483v-51h-483zM-9 120v51h99v-51h-99zM-9 600v51h483v-51h-483zM87 216v51h99v-51h-99zM183 312v51h99v-51h-99zM279 408v51h99v-51h-99zM375 504v51h99v-51h-99z" />
<glyph unicode="[" d="M184 24v50h191v-50h-191zM184 118v50h97v-50h-97zM184 212v51h97v-51h-97zM184 307v50h97v-50h-97zM184 401v50h97v-50h-97zM184 496v50h97v-50h-97zM184 590v50h191v-50h-191z" />
<glyph unicode="\" d="M89 496v50h97v-50h-97zM89 590v50h97v-50h-97zM184 401v50h97v-50h-97zM278 212v51h97v-51h-97zM278 307v50h97v-50h-97zM373 24v50h97v-50h-97zM373 118v50h97v-50h-97z" />
<glyph unicode="]" d="M184 24v50h191v-50h-191zM184 590v50h191v-50h-191zM278 118v50h97v-50h-97zM278 212v51h97v-51h-97zM278 307v50h97v-50h-97zM278 401v50h97v-50h-97zM278 496v50h97v-50h-97z" />
<glyph unicode="^" d="M88 590v50h97v-50h-97zM182 685v50h98v-50h-98zM277 590v50h97v-50h-97z" />
<glyph unicode="_" d="M-7 24v50h475v-50h-475z" />
<glyph unicode="`" d="M-9 685v50h97v-50h-97zM85 590v50h192v-50h-192z" />
<glyph unicode="a" d="M-7 118v50h98v-50h-98zM88 24v50h380v-50h-380zM88 212v51h380v-51h-380zM88 401v50h286v-50h-286zM371 118v50h97v-50h-97zM371 307v50h97v-50h-97z" />
<glyph unicode="b" d="M-7 24v50h381v-50h-381zM-7 118v50h98v-50h-98zM-7 212v51h98v-51h-98zM-7 307v50h193v-50h-193zM-7 401v50h95v-50h-95zM-7 496v50h98v-50h-98zM-7 590v50h98v-50h-98zM186 401v50h188v-50h-188zM371 118v50h97v-50h-97zM371 212v51h97v-51h-97zM371 307v50h97v-50h-97z " />
<glyph unicode="c" d="M-7 118v50h98v-50h-98zM-7 212v51h98v-51h-98zM-7 307v50h98v-50h-98zM88 24v50h286v-50h-286zM88 401v50h286v-50h-286zM371 118v50h97v-50h-97zM371 307v50h97v-50h-97z" />
<glyph unicode="d" d="M-7 118v50h98v-50h-98zM-7 212v51h98v-51h-98zM-7 307v50h98v-50h-98zM88 24v50h192v-50h-192zM88 401v50h380v-50h-380zM277 118v50h191v-50h-191zM371 24v50h97v-50h-97zM371 212v51h97v-51h-97zM371 307v50h97v-50h-97zM371 496v50h97v-50h-97zM371 590v50h97v-50h-97 z" />
<glyph unicode="e" d="M-7 118v50h98v-50h-98zM-7 212v51h475v-51h-475zM-7 307v50h98v-50h-98zM88 24v50h380v-50h-380zM88 401v50h286v-50h-286zM371 307v50h97v-50h-97z" />
<glyph unicode="f" d="M-7 24v50h475v-50h-475zM88 401v50h380v-50h-380zM182 118v50h98v-50h-98zM182 212v51h98v-51h-98zM182 307v50h98v-50h-98zM182 496v50h98v-50h-98zM277 590v50h191v-50h-191z" />
<glyph unicode="g" d="M-7 118v50h98v-50h-98zM-7 212v51h98v-51h-98zM-7 307v50h98v-50h-98zM88 24v50h192v-50h-192zM88 -115h286v-50h-286v50zM88 401v50h380v-50h-380zM277 118v50h191v-50h-191zM371 -21h97v-50h-97v50zM371 24v50h97v-50h-97zM371 212v51h97v-51h-97zM371 307v50h97v-50 h-97z" />
<glyph unicode="h" d="M-7 24v50h98v-50h-98zM-7 118v50h98v-50h-98zM-7 212v51h98v-51h-98zM-7 307v50h98v-50h-98zM-7 401v50h381v-50h-381zM-7 496v50h98v-50h-98zM-7 590v50h98v-50h-98zM371 24v50h97v-50h-97zM371 118v50h97v-50h-97zM371 212v51h97v-51h-97zM371 307v50h97v-50h-97z" />
<glyph unicode="i" d="M-7 24v50h475v-50h-475zM-7 401v50h287v-50h-287zM182 118v50h98v-50h-98zM182 212v51h98v-51h-98zM182 307v50h98v-50h-98zM182 590v50h98v-50h-98z" />
<glyph unicode="j" d="M-7 -21h98v-50h-98v50zM88 -115h286v-50h-286v50zM88 401v50h380v-50h-380zM371 -21h97v-50h-97v50zM371 24v50h97v-50h-97zM371 118v50h97v-50h-97zM371 212v51h97v-51h-97zM371 307v50h97v-50h-97zM371 590v50h97v-50h-97z" />
<glyph unicode="k" d="M-7 24v50h98v-50h-98zM-7 118v50h98v-50h-98zM-7 212v51h287v-51h-287zM-7 307v50h98v-50h-98zM-7 401v50h98v-50h-98zM-7 496v50h98v-50h-98zM-7 590v50h98v-50h-98zM277 118v50h97v-50h-97zM277 307v50h97v-50h-97zM277 401v50h97v-50h-97zM371 24v50h97v-50h-97z" />
<glyph unicode="l" d="M-7 24v50h475v-50h-475zM-7 590v50h287v-50h-287zM182 118v50h98v-50h-98zM182 212v51h98v-51h-98zM182 307v50h98v-50h-98zM182 401v50h98v-50h-98zM182 496v50h98v-50h-98z" />
<glyph unicode="m" d="M-7 24v50h98v-50h-98zM-7 118v50h98v-50h-98zM-7 212v51h98v-51h-98zM-7 307v50h475v-50h-475zM-7 401v50h98v-50h-98zM182 24v50h98v-50h-98zM182 118v50h98v-50h-98zM182 212v51h98v-51h-98zM182 401v50h98v-50h-98zM371 24v50h97v-50h-97zM371 118v50h97v-50h-97z M371 212v51h97v-51h-97zM371 401v50h97v-50h-97z" />
<glyph unicode="n" d="M-7 24v50h98v-50h-98zM-7 118v50h98v-50h-98zM-7 212v51h98v-51h-98zM-7 307v50h192v-50h-192zM-7 401v50h98v-50h-98zM182 401v50h192v-50h-192zM371 24v50h97v-50h-97zM371 118v50h97v-50h-97zM371 212v51h97v-51h-97zM371 307v50h97v-50h-97z" />
<glyph unicode="o" d="M-7 118v50h98v-50h-98zM-7 212v51h98v-51h-98zM-7 307v50h98v-50h-98zM88 24v50h286v-50h-286zM88 401v50h286v-50h-286zM371 118v50h97v-50h-97zM371 212v51h97v-51h-97zM371 307v50h97v-50h-97z" />
<glyph unicode="p" d="M-7 -21h98v-50h-98v50zM-7 24v50h381v-50h-381zM-7 -115h98v-50h-98v50zM-7 118v50h98v-50h-98zM-7 212v51h98v-51h-98zM-7 307v50h192v-50h-192zM-7 401v50h98v-50h-98zM182 401v50h192v-50h-192zM371 118v50h97v-50h-97zM371 212v51h97v-51h-97zM371 307v50h97v-50h-97 z" />
<glyph unicode="q" d="M-7 118v50h98v-50h-98zM-7 212v51h98v-51h-98zM-7 307v50h98v-50h-98zM88 24v50h192v-50h-192zM88 401v50h380v-50h-380zM277 118v50h191v-50h-191zM371 -21h97v-50h-97v50zM371 24v50h97v-50h-97zM371 -115h97v-50h-97v50zM371 212v51h97v-51h-97zM371 307v50h97v-50 h-97z" />
<glyph unicode="r" d="M-7 24v50h381v-50h-381zM-7 401v50h192v-50h-192zM88 118v50h97v-50h-97zM88 212v51h97v-51h-97zM88 307v50h192v-50h-192zM277 401v50h191v-50h-191z" />
<glyph unicode="s" d="M-7 24v50h381v-50h-381zM-7 307v50h98v-50h-98zM88 212v51h286v-51h-286zM88 401v50h380v-50h-380zM371 118v50h97v-50h-97z" />
<glyph unicode="t" d="M-7 401v50h475v-50h-475zM182 118v50h98v-50h-98zM182 212v51h98v-51h-98zM182 307v50h98v-50h-98zM182 496v50h98v-50h-98zM277 24v50h191v-50h-191z" />
<glyph unicode="u" d="M-7 118v50h98v-50h-98zM-7 212v51h98v-51h-98zM-7 307v50h98v-50h-98zM-7 401v50h98v-50h-98zM88 24v50h192v-50h-192zM277 118v50h191v-50h-191zM371 24v50h97v-50h-97zM371 212v51h97v-51h-97zM371 307v50h97v-50h-97zM371 401v50h97v-50h-97z" />
<glyph unicode="v" d="M-7 307v50h98v-50h-98zM-7 401v50h98v-50h-98zM88 118v50h97v-50h-97zM88 212v51h97v-51h-97zM182 24v50h98v-50h-98zM277 118v50h97v-50h-97zM277 212v51h97v-51h-97zM371 307v50h97v-50h-97zM371 401v50h97v-50h-97z" />
<glyph unicode="w" d="M-7 212v51h98v-51h-98zM-7 307v50h98v-50h-98zM-7 401v50h98v-50h-98zM88 24v50h97v-50h-97zM88 118v50h97v-50h-97zM182 212v51h98v-51h-98zM182 307v50h98v-50h-98zM277 24v50h97v-50h-97zM277 118v50h97v-50h-97zM371 212v51h97v-51h-97zM371 307v50h97v-50h-97z M371 401v50h97v-50h-97z" />
<glyph unicode="x" d="M-7 24v50h98v-50h-98zM-7 118v50h98v-50h-98zM-7 307v50h98v-50h-98zM-7 401v50h98v-50h-98zM88 212v51h286v-51h-286zM371 24v50h97v-50h-97zM371 118v50h97v-50h-97zM371 307v50h97v-50h-97zM371 401v50h97v-50h-97z" />
<glyph unicode="y" d="M-7 -115h192v-50h-192v50zM-7 307v50h98v-50h-98zM-7 401v50h98v-50h-98zM88 118v50h97v-50h-97zM88 212v51h97v-51h-97zM182 -21h98v-50h-98v50zM182 24v50h98v-50h-98zM277 118v50h97v-50h-97zM277 212v51h97v-51h-97zM371 307v50h97v-50h-97zM371 401v50h97v-50h-97z " />
<glyph unicode="z" d="M-7 24v50h475v-50h-475zM-7 401v50h475v-50h-475zM88 118v50h97v-50h-97zM182 212v51h98v-51h-98zM277 307v50h97v-50h-97z" />
<glyph unicode="{" d="M88 307v50h97v-50h-97zM182 118v50h98v-50h-98zM182 212v51h98v-51h-98zM182 401v50h98v-50h-98zM182 496v50h98v-50h-98zM277 24v50h97v-50h-97zM277 590v50h97v-50h-97z" />
<glyph unicode="|" d="M182 24v50h98v-50h-98zM182 118v50h98v-50h-98zM182 212v51h98v-51h-98zM182 307v50h98v-50h-98zM182 401v50h98v-50h-98zM182 496v50h98v-50h-98zM182 590v50h98v-50h-98z" />
<glyph unicode="}" d="M185 24v50h97v-50h-97zM185 590v50h97v-50h-97zM279 118v50h98v-50h-98zM279 212v51h98v-51h-98zM279 401v50h98v-50h-98zM279 496v50h98v-50h-98zM374 307v50h97v-50h-97z" />
<glyph unicode="~" d="M-7 307v50h98v-50h-98zM88 401v50h97v-50h-97zM182 307v50h98v-50h-98zM277 212v51h97v-51h-97zM371 307v50h97v-50h-97z" />
<glyph unicode="&#xa0;" />
<glyph unicode="&#xa1;" d="M182 47v50h98v-50h-98zM182 142v50h98v-50h-98zM182 236v50h98v-50h-98zM182 331v50h98v-50h-98zM182 519v50h98v-50h-98zM182 614v50h98v-50h-98z" />
<glyph unicode="&#xa2;" d="M-7 118v50h98v-50h-98zM-7 212v51h98v-51h-98zM-7 307v50h98v-50h-98zM88 24v50h286v-50h-286zM88 401v50h286v-50h-286zM182 -21h98v-50h-98v50zM182 118v50h98v-50h-98zM182 212v51h98v-51h-98zM182 307v50h98v-50h-98zM182 496v50h98v-50h-98zM371 118v50h97v-50h-97z M371 307v50h97v-50h-97z" />
<glyph unicode="&#xa3;" d="M-7 24v50h475v-50h-475zM-7 307v50h381v-50h-381zM88 118v50h97v-50h-97zM88 212v51h97v-51h-97zM88 401v50h97v-50h-97zM88 496v50h97v-50h-97zM182 590v50h192v-50h-192zM371 496v50h97v-50h-97z" />
<glyph unicode="&#xa4;" d="M-7 24v50h98v-50h-98zM-7 401v50h98v-50h-98zM88 118v50h286v-50h-286zM88 212v51h97v-51h-97zM88 307v50h286v-50h-286zM277 212v51h97v-51h-97zM371 24v50h97v-50h-97zM371 401v50h97v-50h-97z" />
<glyph unicode="&#xa5;" d="M-7 212v51h475v-51h-475zM-7 496v50h98v-50h-98zM-7 590v50h98v-50h-98zM88 401v50h97v-50h-97zM182 24v50h98v-50h-98zM182 118v50h98v-50h-98zM182 307v50h98v-50h-98zM277 401v50h97v-50h-97zM371 496v50h97v-50h-97zM371 590v50h97v-50h-97z" />
<glyph unicode="&#xa6;" d="M182 24v50h98v-50h-98zM182 118v50h98v-50h-98zM182 212v51h98v-51h-98zM182 401v50h98v-50h-98zM182 496v50h98v-50h-98zM182 590v50h98v-50h-98z" />
<glyph unicode="&#xa7;" d="M89 24v50h286v-50h-286zM89 307v50h97v-50h-97zM89 496v50h97v-50h-97zM184 212v51h191v-51h-191zM184 401v50h191v-50h-191zM184 590v50h286v-50h-286zM373 118v50h97v-50h-97zM373 307v50h97v-50h-97z" />
<glyph unicode="&#xa8;" d="M-7 590v50h98v-50h-98zM-7 685v50h98v-50h-98zM371 590v50h97v-50h-97zM371 685v50h97v-50h-97z" />
<glyph unicode="&#xa9;" d="M-7 118v50h98v-50h-98zM-7 212v51h192v-51h-192zM-7 307v50h98v-50h-98zM88 24v50h286v-50h-286zM88 401v50h286v-50h-286zM182 118v50h98v-50h-98zM182 307v50h98v-50h-98zM371 118v50h97v-50h-97zM371 212v51h97v-51h-97zM371 307v50h97v-50h-97z" />
<glyph unicode="&#xaa;" d="M-9 401v50h286v-50h-286zM85 307v50h192v-50h-192zM85 590v50h97v-50h-97zM179 496v50h98v-50h-98z" />
<glyph unicode="&#xab;" d="M-7 212v51h98v-51h-98zM88 118v50h97v-50h-97zM88 307v50h97v-50h-97zM182 24v50h98v-50h-98zM182 212v51h98v-51h-98zM182 401v50h98v-50h-98zM277 118v50h97v-50h-97zM277 307v50h97v-50h-97zM371 24v50h97v-50h-97zM371 401v50h97v-50h-97z" />
<glyph unicode="&#xac;" d="M-7 212v51h475v-51h-475zM371 24v50h97v-50h-97zM371 118v50h97v-50h-97z" />
<glyph unicode="&#xad;" d="M88 212v51h286v-51h-286z" />
<glyph unicode="&#xae;" d="M-7 307v50h98v-50h-98zM-7 401v50h98v-50h-98zM-7 496v50h98v-50h-98zM88 212v51h286v-51h-286zM88 590v50h286v-50h-286zM182 401v50h98v-50h-98zM182 496v50h286v-50h-286zM277 307v50h191v-50h-191zM371 401v50h97v-50h-97z" />
<glyph unicode="&#xaf;" d="M88 590v50h286v-50h-286z" />
<glyph unicode="&#xb0;" d="M-9 496v50h97v-50h-97zM85 401v50h97v-50h-97zM85 590v50h97v-50h-97zM179 496v50h98v-50h-98z" />
<glyph unicode="&#xb1;" d="M-7 24v50h475v-50h-475zM-7 307v50h475v-50h-475zM182 212v51h98v-51h-98zM182 401v50h98v-50h-98z" />
<glyph unicode="&#xb2;" d="M-11 307v50h192v-50h-192zM-11 401v50h97v-50h-97zM-11 590v50h97v-50h-97zM84 496v50h97v-50h-97z" />
<glyph unicode="&#xb3;" d="M-11 307v50h192v-50h-192zM-11 590v50h97v-50h-97zM84 401v50h97v-50h-97zM84 496v50h97v-50h-97z" />
<glyph unicode="&#xb4;" d="M88 590v50h192v-50h-192zM277 685v50h97v-50h-97z" />
<glyph unicode="&#xb5;" d="M-7 -21h98v-50h-98v50zM-7 24v50h287v-50h-287zM-7 -115h98v-50h-98v50zM-7 118v50h98v-50h-98zM-7 212v51h98v-51h-98zM-7 307v50h98v-50h-98zM-7 401v50h98v-50h-98zM277 118v50h191v-50h-191zM371 24v50h97v-50h-97zM371 212v51h97v-51h-97zM371 307v50h97v-50h-97z M371 401v50h97v-50h-97z" />
<glyph unicode="&#xb6;" d="M-7 401v50h287v-50h-287zM-7 496v50h287v-50h-287zM88 307v50h192v-50h-192zM88 590v50h192v-50h-192zM182 24v50h98v-50h-98zM182 118v50h98v-50h-98zM182 212v51h98v-51h-98zM371 24v50h97v-50h-97zM371 118v50h97v-50h-97zM371 212v51h97v-51h-97zM371 307v50h97v-50 h-97zM371 401v50h97v-50h-97zM371 496v50h97v-50h-97zM371 590v50h97v-50h-97z" />
<glyph unicode="&#xb7;" d="M85 212v51h97v-51h-97zM85 307v50h97v-50h-97z" />
<glyph unicode="&#xb8;" d="M86 -115h98v-50h-98v50zM181 -21h97v-50h-97v50z" />
<glyph unicode="&#xb9;" d="M-9 307v50h286v-50h-286zM-9 590v50h191v-50h-191zM85 401v50h97v-50h-97zM85 496v50h97v-50h-97z" />
<glyph unicode="&#xba;" d="M-9 496v50h97v-50h-97zM85 401v50h97v-50h-97zM85 590v50h97v-50h-97zM179 496v50h98v-50h-98z" />
<glyph unicode="&#xbb;" d="M-7 24v50h98v-50h-98zM-7 401v50h98v-50h-98zM88 118v50h97v-50h-97zM88 307v50h97v-50h-97zM182 24v50h98v-50h-98zM182 212v51h98v-51h-98zM182 401v50h98v-50h-98zM277 118v50h97v-50h-97zM277 307v50h97v-50h-97zM371 212v51h97v-51h-97z" />
<glyph unicode="&#xbc;" d="M-5 590v50h191v-50h-191zM89 24v50h97v-50h-97zM89 118v50h97v-50h-97zM89 401v50h97v-50h-97zM89 496v50h97v-50h-97zM184 212v51h97v-51h-97zM184 307v50h97v-50h-97zM278 401v50h97v-50h-97zM373 212v51h191v-51h-191zM373 496v50h97v-50h-97zM373 590v50h97v-50h-97z M467 24v50h97v-50h-97zM467 118v50h97v-50h-97zM467 307v50h97v-50h-97z" />
<glyph unicode="&#xbd;" d="M-5 590v50h191v-50h-191zM89 24v50h97v-50h-97zM89 118v50h97v-50h-97zM89 401v50h97v-50h-97zM89 496v50h97v-50h-97zM184 212v51h97v-51h-97zM184 307v50h97v-50h-97zM278 401v50h97v-50h-97zM373 24v50h191v-50h-191zM373 118v50h97v-50h-97zM373 307v50h97v-50h-97z M373 496v50h97v-50h-97zM373 590v50h97v-50h-97zM467 212v51h97v-51h-97z" />
<glyph unicode="&#xbe;" d="M-5 307v50h286v-50h-286zM-5 590v50h97v-50h-97zM89 24v50h97v-50h-97zM89 118v50h97v-50h-97zM89 401v50h97v-50h-97zM89 496v50h97v-50h-97zM184 212v51h97v-51h-97zM278 401v50h97v-50h-97zM373 212v51h191v-51h-191zM373 496v50h97v-50h-97zM373 590v50h97v-50h-97z M467 24v50h97v-50h-97zM467 118v50h97v-50h-97zM467 307v50h97v-50h-97z" />
<glyph unicode="&#xbf;" d="M-7 118v50h98v-50h-98zM-7 212v51h98v-51h-98zM88 24v50h286v-50h-286zM88 307v50h192v-50h-192zM182 496v50h98v-50h-98zM182 590v50h98v-50h-98zM371 118v50h97v-50h-97z" />
<glyph unicode="&#xc0;" d="M-9 24v51h99v-51h-99zM-9 120v51h99v-51h-99zM-9 216v51h483v-51h-483zM-9 312v51h99v-51h-99zM-9 408v51h99v-51h-99zM-9 504v51h99v-51h-99zM87 600v51h291v-51h-291zM87 912v51h99v-51h-99zM183 816v51h195v-51h-195zM375 24v51h99v-51h-99zM375 120v51h99v-51h-99z M375 312v51h99v-51h-99zM375 408v51h99v-51h-99zM375 504v51h99v-51h-99z" />
<glyph unicode="&#xc1;" d="M-9 24v51h99v-51h-99zM-9 120v51h99v-51h-99zM-9 216v51h483v-51h-483zM-9 312v51h99v-51h-99zM-9 408v51h99v-51h-99zM-9 504v51h99v-51h-99zM87 600v51h291v-51h-291zM87 816v51h195v-51h-195zM279 912v51h99v-51h-99zM375 24v51h99v-51h-99zM375 120v51h99v-51h-99z M375 312v51h99v-51h-99zM375 408v51h99v-51h-99zM375 504v51h99v-51h-99z" />
<glyph unicode="&#xc2;" d="M-9 24v51h99v-51h-99zM-9 120v51h99v-51h-99zM-9 216v51h483v-51h-483zM-9 312v51h99v-51h-99zM-9 408v51h99v-51h-99zM-9 504v51h99v-51h-99zM87 600v51h291v-51h-291zM87 816v51h99v-51h-99zM183 912v51h99v-51h-99zM279 816v51h99v-51h-99zM375 24v51h99v-51h-99z M375 120v51h99v-51h-99zM375 312v51h99v-51h-99zM375 408v51h99v-51h-99zM375 504v51h99v-51h-99z" />
<glyph unicode="&#xc3;" d="M-9 24v51h99v-51h-99zM-9 120v51h99v-51h-99zM-9 216v51h483v-51h-483zM-9 312v51h99v-51h-99zM-9 408v51h99v-51h-99zM-9 504v51h99v-51h-99zM-9 816v51h99v-51h-99zM87 600v51h291v-51h-291zM87 912v51h99v-51h-99zM183 816v51h195v-51h-195zM375 24v51h99v-51h-99z M375 120v51h99v-51h-99zM375 312v51h99v-51h-99zM375 408v51h99v-51h-99zM375 504v51h99v-51h-99zM375 912v51h99v-51h-99z" />
<glyph unicode="&#xc4;" d="M-9 24v51h99v-51h-99zM-9 120v51h99v-51h-99zM-9 216v51h483v-51h-483zM-9 312v51h99v-51h-99zM-9 408v51h99v-51h-99zM-9 504v51h99v-51h-99zM-9 816v51h99v-51h-99zM-9 912v51h99v-51h-99zM87 600v51h291v-51h-291zM375 24v51h99v-51h-99zM375 120v51h99v-51h-99z M375 312v51h99v-51h-99zM375 408v51h99v-51h-99zM375 504v51h99v-51h-99zM375 816v51h99v-51h-99zM375 912v51h99v-51h-99z" />
<glyph unicode="&#xc5;" d="M-9 24v51h99v-51h-99zM-9 120v51h99v-51h-99zM-9 216v51h483v-51h-483zM-9 312v51h99v-51h-99zM-9 408v51h99v-51h-99zM-9 504v51h99v-51h-99zM87 600v51h291v-51h-291zM87 912v51h99v-51h-99zM183 816v51h99v-51h-99zM183 1008v51h99v-51h-99zM279 912v51h99v-51h-99z M375 24v51h99v-51h-99zM375 120v51h99v-51h-99zM375 312v51h99v-51h-99zM375 408v51h99v-51h-99zM375 504v51h99v-51h-99z" />
<glyph unicode="&#xc6;" d="M-9 24v51h99v-51h-99zM-9 120v51h99v-51h-99zM-9 216v51h291v-51h-291zM-9 312v51h99v-51h-99zM-9 408v51h99v-51h-99zM-9 504v51h99v-51h-99zM87 600v51h387v-51h-387zM183 24v51h291v-51h-291zM183 120v51h99v-51h-99zM183 312v51h195v-51h-195zM183 408v51h99v-51h-99 zM183 504v51h99v-51h-99z" />
<glyph unicode="&#xc7;" d="M-9 120v51h99v-51h-99zM-9 216v51h99v-51h-99zM-9 312v51h99v-51h-99zM-9 408v51h99v-51h-99zM-9 504v51h99v-51h-99zM87 24v51h291v-51h-291zM87 -117h99v-51h-99v51zM87 600v51h291v-51h-291zM183 -21h99v-51h-99v51zM375 120v51h99v-51h-99zM375 504v51h99v-51h-99z " />
<glyph unicode="&#xc8;" d="M-9 24v51h483v-51h-483zM-9 120v51h99v-51h-99zM-9 216v51h99v-51h-99zM-9 312v51h387v-51h-387zM-9 408v51h99v-51h-99zM-9 504v51h99v-51h-99zM-9 600v51h483v-51h-483zM87 912v51h99v-51h-99zM183 816v51h195v-51h-195z" />
<glyph unicode="&#xc9;" d="M-9 24v51h483v-51h-483zM-9 120v51h99v-51h-99zM-9 216v51h99v-51h-99zM-9 312v51h387v-51h-387zM-9 408v51h99v-51h-99zM-9 504v51h99v-51h-99zM-9 600v51h483v-51h-483zM87 816v51h195v-51h-195zM279 912v51h99v-51h-99z" />
<glyph unicode="&#xca;" d="M-9 24v51h483v-51h-483zM-9 120v51h99v-51h-99zM-9 216v51h99v-51h-99zM-9 312v51h387v-51h-387zM-9 408v51h99v-51h-99zM-9 504v51h99v-51h-99zM-9 600v51h483v-51h-483zM87 816v51h99v-51h-99zM183 912v51h99v-51h-99zM279 816v51h99v-51h-99z" />
<glyph unicode="&#xcb;" d="M-9 24v51h483v-51h-483zM-9 120v51h99v-51h-99zM-9 216v51h99v-51h-99zM-9 312v51h387v-51h-387zM-9 408v51h99v-51h-99zM-9 504v51h99v-51h-99zM-9 600v51h483v-51h-483zM-9 816v51h99v-51h-99zM-9 912v51h99v-51h-99zM375 816v51h99v-51h-99zM375 912v51h99v-51h-99z " />
<glyph unicode="&#xcc;" d="M-9 24v51h483v-51h-483zM-9 600v51h483v-51h-483zM87 912v51h99v-51h-99zM183 120v51h99v-51h-99zM183 216v51h99v-51h-99zM183 312v51h99v-51h-99zM183 408v51h99v-51h-99zM183 504v51h99v-51h-99zM183 816v51h195v-51h-195z" />
<glyph unicode="&#xcd;" d="M-9 24v51h483v-51h-483zM-9 600v51h483v-51h-483zM87 816v51h195v-51h-195zM183 120v51h99v-51h-99zM183 216v51h99v-51h-99zM183 312v51h99v-51h-99zM183 408v51h99v-51h-99zM183 504v51h99v-51h-99zM279 912v51h99v-51h-99z" />
<glyph unicode="&#xce;" d="M-9 24v51h483v-51h-483zM-9 600v51h483v-51h-483zM87 816v51h99v-51h-99zM183 120v51h99v-51h-99zM183 216v51h99v-51h-99zM183 312v51h99v-51h-99zM183 408v51h99v-51h-99zM183 504v51h99v-51h-99zM183 912v51h99v-51h-99zM279 816v51h99v-51h-99z" />
<glyph unicode="&#xcf;" d="M-9 24v51h483v-51h-483zM-9 600v51h483v-51h-483zM-9 816v51h99v-51h-99zM-9 912v51h99v-51h-99zM183 120v51h99v-51h-99zM183 216v51h99v-51h-99zM183 312v51h99v-51h-99zM183 408v51h99v-51h-99zM183 504v51h99v-51h-99zM375 816v51h99v-51h-99zM375 912v51h99v-51h-99 z" />
<glyph unicode="&#xd0;" d="M-9 312v51h291v-51h-291zM87 24v51h291v-51h-291zM87 120v51h99v-51h-99zM87 216v51h99v-51h-99zM87 408v51h99v-51h-99zM87 504v51h99v-51h-99zM87 600v51h291v-51h-291zM375 120v51h99v-51h-99zM375 216v51h99v-51h-99zM375 312v51h99v-51h-99zM375 408v51h99v-51h-99z M375 504v51h99v-51h-99z" />
<glyph unicode="&#xd1;" d="M-9 24v51h99v-51h-99zM-9 120v51h99v-51h-99zM-9 216v51h99v-51h-99zM-9 312v51h99v-51h-99zM-9 408v51h99v-51h-99zM-9 504v51h195v-51h-195zM-9 600v51h99v-51h-99zM-9 816v51h99v-51h-99zM87 912v51h99v-51h-99zM183 312v51h99v-51h-99zM183 408v51h99v-51h-99z M183 816v51h195v-51h-195zM279 216v51h195v-51h-195zM375 24v51h99v-51h-99zM375 120v51h99v-51h-99zM375 312v51h99v-51h-99zM375 408v51h99v-51h-99zM375 504v51h99v-51h-99zM375 600v51h99v-51h-99zM375 912v51h99v-51h-99z" />
<glyph unicode="&#xd2;" d="M-9 120v51h99v-51h-99zM-9 216v51h99v-51h-99zM-9 312v51h99v-51h-99zM-9 408v51h99v-51h-99zM-9 504v51h99v-51h-99zM87 24v51h291v-51h-291zM87 600v51h291v-51h-291zM87 912v51h99v-51h-99zM183 816v51h195v-51h-195zM375 120v51h99v-51h-99zM375 216v51h99v-51h-99z M375 312v51h99v-51h-99zM375 408v51h99v-51h-99zM375 504v51h99v-51h-99z" />
<glyph unicode="&#xd3;" d="M-9 120v51h99v-51h-99zM-9 216v51h99v-51h-99zM-9 312v51h99v-51h-99zM-9 408v51h99v-51h-99zM-9 504v51h99v-51h-99zM87 24v51h291v-51h-291zM87 600v51h291v-51h-291zM87 816v51h195v-51h-195zM279 912v51h99v-51h-99zM375 120v51h99v-51h-99zM375 216v51h99v-51h-99z M375 312v51h99v-51h-99zM375 408v51h99v-51h-99zM375 504v51h99v-51h-99z" />
<glyph unicode="&#xd4;" d="M-9 120v51h99v-51h-99zM-9 216v51h99v-51h-99zM-9 312v51h99v-51h-99zM-9 408v51h99v-51h-99zM-9 504v51h99v-51h-99zM87 24v51h291v-51h-291zM87 600v51h291v-51h-291zM87 816v51h99v-51h-99zM183 912v51h99v-51h-99zM279 816v51h99v-51h-99zM375 120v51h99v-51h-99z M375 216v51h99v-51h-99zM375 312v51h99v-51h-99zM375 408v51h99v-51h-99zM375 504v51h99v-51h-99z" />
<glyph unicode="&#xd5;" d="M-9 120v51h99v-51h-99zM-9 216v51h99v-51h-99zM-9 312v51h99v-51h-99zM-9 408v51h99v-51h-99zM-9 504v51h99v-51h-99zM-9 816v51h99v-51h-99zM87 24v51h291v-51h-291zM87 600v51h291v-51h-291zM87 912v51h99v-51h-99zM183 816v51h195v-51h-195zM375 120v51h99v-51h-99z M375 216v51h99v-51h-99zM375 312v51h99v-51h-99zM375 408v51h99v-51h-99zM375 504v51h99v-51h-99zM375 912v51h99v-51h-99z" />
<glyph unicode="&#xd6;" d="M-9 120v51h99v-51h-99zM-9 216v51h99v-51h-99zM-9 312v51h99v-51h-99zM-9 408v51h99v-51h-99zM-9 504v51h99v-51h-99zM-9 816v51h99v-51h-99zM-9 912v51h99v-51h-99zM87 24v51h291v-51h-291zM87 600v51h291v-51h-291zM375 120v51h99v-51h-99zM375 216v51h99v-51h-99z M375 312v51h99v-51h-99zM375 408v51h99v-51h-99zM375 504v51h99v-51h-99zM375 816v51h99v-51h-99zM375 912v51h99v-51h-99z" />
<glyph unicode="&#xd7;" d="M-7 24v50h98v-50h-98zM-7 401v50h98v-50h-98zM88 118v50h97v-50h-97zM88 307v50h97v-50h-97zM182 212v51h98v-51h-98zM277 118v50h97v-50h-97zM277 307v50h97v-50h-97zM371 24v50h97v-50h-97zM371 401v50h97v-50h-97z" />
<glyph unicode="&#xd8;" d="M-9 120v51h197v-51h-197zM-9 216v51h99v-51h-99zM-9 312v51h99v-51h-99zM-9 408v51h99v-51h-99zM-9 504v51h99v-51h-99zM87 24v51h291v-51h-291zM87 600v51h291v-51h-291zM185 216v51h99v-51h-99zM185 312v51h99v-51h-99zM185 408v51h99v-51h-99zM281 504v51h193v-51 h-193zM375 120v51h99v-51h-99zM375 216v51h99v-51h-99zM375 312v51h99v-51h-99zM375 408v51h99v-51h-99z" />
<glyph unicode="&#xd9;" d="M-9 120v51h99v-51h-99zM-9 216v51h99v-51h-99zM-9 312v51h99v-51h-99zM-9 408v51h99v-51h-99zM-9 504v51h99v-51h-99zM-9 600v51h99v-51h-99zM87 24v51h291v-51h-291zM87 912v51h99v-51h-99zM183 816v51h195v-51h-195zM375 120v51h99v-51h-99zM375 216v51h99v-51h-99z M375 312v51h99v-51h-99zM375 408v51h99v-51h-99zM375 504v51h99v-51h-99zM375 600v51h99v-51h-99z" />
<glyph unicode="&#xda;" d="M-9 120v51h99v-51h-99zM-9 216v51h99v-51h-99zM-9 312v51h99v-51h-99zM-9 408v51h99v-51h-99zM-9 504v51h99v-51h-99zM-9 600v51h99v-51h-99zM87 24v51h291v-51h-291zM87 816v51h195v-51h-195zM279 912v51h99v-51h-99zM375 120v51h99v-51h-99zM375 216v51h99v-51h-99z M375 312v51h99v-51h-99zM375 408v51h99v-51h-99zM375 504v51h99v-51h-99zM375 600v51h99v-51h-99z" />
<glyph unicode="&#xdb;" d="M-9 120v51h99v-51h-99zM-9 216v51h99v-51h-99zM-9 312v51h99v-51h-99zM-9 408v51h99v-51h-99zM-9 504v51h99v-51h-99zM-9 600v51h99v-51h-99zM87 24v51h291v-51h-291zM87 816v51h99v-51h-99zM183 912v51h99v-51h-99zM279 816v51h99v-51h-99zM375 120v51h99v-51h-99z M375 216v51h99v-51h-99zM375 312v51h99v-51h-99zM375 408v51h99v-51h-99zM375 504v51h99v-51h-99zM375 600v51h99v-51h-99z" />
<glyph unicode="&#xdc;" d="M-9 120v51h99v-51h-99zM-9 216v51h99v-51h-99zM-9 312v51h99v-51h-99zM-9 408v51h99v-51h-99zM-9 504v51h99v-51h-99zM-9 600v51h99v-51h-99zM-9 816v51h99v-51h-99zM-9 912v51h99v-51h-99zM87 24v51h291v-51h-291zM375 120v51h99v-51h-99zM375 216v51h99v-51h-99z M375 312v51h99v-51h-99zM375 408v51h99v-51h-99zM375 504v51h99v-51h-99zM375 600v51h99v-51h-99zM375 816v51h99v-51h-99zM375 912v51h99v-51h-99z" />
<glyph unicode="&#xdd;" d="M-9 408v51h99v-51h-99zM-9 504v51h99v-51h-99zM-9 600v51h99v-51h-99zM87 312v51h99v-51h-99zM87 816v51h195v-51h-195zM183 24v51h99v-51h-99zM183 120v51h99v-51h-99zM183 216v51h99v-51h-99zM279 312v51h99v-51h-99zM279 912v51h99v-51h-99zM375 408v51h99v-51h-99z M375 504v51h99v-51h-99zM375 600v51h99v-51h-99z" />
<glyph unicode="&#xde;" d="M-9 24v51h99v-51h-99zM-9 120v51h99v-51h-99zM-9 216v51h387v-51h-387zM-9 312v51h99v-51h-99zM-9 408v51h99v-51h-99zM-9 504v51h387v-51h-387zM-9 600v51h99v-51h-99zM375 312v51h99v-51h-99zM375 408v51h99v-51h-99z" />
<glyph unicode="&#xdf;" d="M-7 24v50h98v-50h-98zM-7 118v50h98v-50h-98zM-7 212v51h98v-51h-98zM-7 307v50h98v-50h-98zM-7 401v50h98v-50h-98zM88 496v50h97v-50h-97zM182 24v50h192v-50h-192zM182 307v50h98v-50h-98zM182 590v50h98v-50h-98zM277 212v51h97v-51h-97zM277 401v50h97v-50h-97z M277 496v50h97v-50h-97zM371 118v50h97v-50h-97z" />
<glyph unicode="&#xe0;" d="M-7 118v50h98v-50h-98zM88 24v50h380v-50h-380zM88 212v51h380v-51h-380zM88 401v50h286v-50h-286zM88 685v50h97v-50h-97zM182 590v50h192v-50h-192zM371 118v50h97v-50h-97zM371 307v50h97v-50h-97z" />
<glyph unicode="&#xe1;" d="M-7 118v50h98v-50h-98zM88 24v50h380v-50h-380zM88 212v51h380v-51h-380zM88 401v50h286v-50h-286zM88 590v50h192v-50h-192zM277 685v50h97v-50h-97zM371 118v50h97v-50h-97zM371 307v50h97v-50h-97z" />
<glyph unicode="&#xe2;" d="M-7 118v50h98v-50h-98zM88 24v50h380v-50h-380zM88 212v51h380v-51h-380zM88 401v50h286v-50h-286zM371 118v50h97v-50h-97zM371 307v50h97v-50h-97z" />
<glyph unicode="&#xe3;" d="M-7 118v50h98v-50h-98zM-7 590v50h98v-50h-98zM88 24v50h380v-50h-380zM88 212v51h380v-51h-380zM88 401v50h286v-50h-286zM88 685v50h97v-50h-97zM182 590v50h192v-50h-192zM371 118v50h97v-50h-97zM371 307v50h97v-50h-97zM371 685v50h97v-50h-97z" />
<glyph unicode="&#xe4;" d="M-7 118v50h98v-50h-98zM-7 590v50h98v-50h-98zM-7 685v50h98v-50h-98zM88 24v50h380v-50h-380zM88 212v51h380v-51h-380zM88 401v50h286v-50h-286zM371 118v50h97v-50h-97zM371 307v50h97v-50h-97zM371 590v50h97v-50h-97zM371 685v50h97v-50h-97z" />
<glyph unicode="&#xe5;" d="M-7 118v50h98v-50h-98zM88 24v50h380v-50h-380zM88 212v51h380v-51h-380zM88 401v50h286v-50h-286zM88 685v50h97v-50h-97zM182 590v50h98v-50h-98zM182 779v50h98v-50h-98zM277 685v50h97v-50h-97zM371 118v50h97v-50h-97zM371 307v50h97v-50h-97z" />
<glyph unicode="&#xe6;" d="M-7 118v50h98v-50h-98zM88 24v50h380v-50h-380zM88 212v51h286v-51h-286zM88 401v50h97v-50h-97zM182 118v50h98v-50h-98zM182 307v50h98v-50h-98zM277 401v50h97v-50h-97zM371 307v50h97v-50h-97z" />
<glyph unicode="&#xe7;" d="M-7 118v50h98v-50h-98zM-7 212v51h98v-51h-98zM-7 307v50h98v-50h-98zM88 24v50h286v-50h-286zM88 -115h97v-50h-97v50zM88 401v50h286v-50h-286zM182 -21h98v-50h-98v50zM371 118v50h97v-50h-97zM371 307v50h97v-50h-97z" />
<glyph unicode="&#xe8;" d="M-7 118v50h98v-50h-98zM-7 212v51h475v-51h-475zM-7 307v50h98v-50h-98zM88 24v50h380v-50h-380zM88 401v50h286v-50h-286zM88 685v50h97v-50h-97zM182 590v50h192v-50h-192zM371 307v50h97v-50h-97z" />
<glyph unicode="&#xe9;" d="M-7 118v50h98v-50h-98zM-7 212v51h475v-51h-475zM-7 307v50h98v-50h-98zM88 24v50h380v-50h-380zM88 401v50h286v-50h-286zM88 590v50h192v-50h-192zM277 685v50h97v-50h-97zM371 307v50h97v-50h-97z" />
<glyph unicode="&#xea;" d="M-7 118v50h98v-50h-98zM-7 212v51h475v-51h-475zM-7 307v50h98v-50h-98zM88 24v50h380v-50h-380zM88 401v50h286v-50h-286zM88 590v50h97v-50h-97zM182 685v50h98v-50h-98zM277 590v50h97v-50h-97zM371 307v50h97v-50h-97z" />
<glyph unicode="&#xeb;" d="M-7 118v50h98v-50h-98zM-7 212v51h475v-51h-475zM-7 307v50h98v-50h-98zM-7 590v50h98v-50h-98zM-7 685v50h98v-50h-98zM88 24v50h380v-50h-380zM88 401v50h286v-50h-286zM371 307v50h97v-50h-97zM371 590v50h97v-50h-97zM371 685v50h97v-50h-97z" />
<glyph unicode="&#xec;" d="M-7 24v50h475v-50h-475zM-7 401v50h287v-50h-287zM159 673v50h97v-50h-97zM182 118v50h98v-50h-98zM182 212v51h98v-51h-98zM182 307v50h98v-50h-98zM253 579v50h192v-50h-192z" />
<glyph unicode="&#xed;" d="M-7 24v50h475v-50h-475zM-7 401v50h287v-50h-287zM159 579v50h191v-50h-191zM182 118v50h98v-50h-98zM182 212v51h98v-51h-98zM182 307v50h98v-50h-98zM348 673v50h97v-50h-97z" />
<glyph unicode="&#xee;" d="M-7 24v50h475v-50h-475zM-7 401v50h287v-50h-287zM159 579v50h97v-50h-97zM182 118v50h98v-50h-98zM182 212v51h98v-51h-98zM182 307v50h98v-50h-98zM253 673v50h97v-50h-97zM348 579v50h97v-50h-97z" />
<glyph unicode="&#xef;" d="M-7 24v50h475v-50h-475zM-7 401v50h287v-50h-287zM-7 590v50h98v-50h-98zM-7 685v50h98v-50h-98zM182 118v50h98v-50h-98zM182 212v51h98v-51h-98zM182 307v50h98v-50h-98zM371 590v50h97v-50h-97zM371 685v50h97v-50h-97z" />
<glyph unicode="&#xf0;" d="M-7 118v50h98v-50h-98zM-7 212v51h98v-51h-98zM88 24v50h286v-50h-286zM88 307v50h380v-50h-380zM88 590v50h192v-50h-192zM182 401v50h98v-50h-98zM277 496v50h97v-50h-97zM371 118v50h97v-50h-97zM371 212v51h97v-51h-97zM371 401v50h97v-50h-97zM371 590v50h97v-50 h-97z" />
<glyph unicode="&#xf1;" d="M-7 24v50h98v-50h-98zM-7 118v50h98v-50h-98zM-7 212v51h98v-51h-98zM-7 307v50h192v-50h-192zM-7 401v50h98v-50h-98zM-7 590v50h98v-50h-98zM88 685v50h97v-50h-97zM182 401v50h192v-50h-192zM182 590v50h192v-50h-192zM371 24v50h97v-50h-97zM371 118v50h97v-50h-97z M371 212v51h97v-51h-97zM371 307v50h97v-50h-97zM371 685v50h97v-50h-97z" />
<glyph unicode="&#xf2;" d="M-7 118v50h98v-50h-98zM-7 212v51h98v-51h-98zM-7 307v50h98v-50h-98zM88 24v50h286v-50h-286zM88 401v50h286v-50h-286zM88 685v50h97v-50h-97zM182 590v50h192v-50h-192zM371 118v50h97v-50h-97zM371 212v51h97v-51h-97zM371 307v50h97v-50h-97z" />
<glyph unicode="&#xf3;" d="M-7 118v50h98v-50h-98zM-7 212v51h98v-51h-98zM-7 307v50h98v-50h-98zM88 24v50h286v-50h-286zM88 401v50h286v-50h-286zM88 590v50h192v-50h-192zM277 685v50h97v-50h-97zM371 118v50h97v-50h-97zM371 212v51h97v-51h-97zM371 307v50h97v-50h-97z" />
<glyph unicode="&#xf4;" d="M-7 118v50h98v-50h-98zM-7 212v51h98v-51h-98zM-7 307v50h98v-50h-98zM88 24v50h286v-50h-286zM88 401v50h286v-50h-286zM88 590v50h97v-50h-97zM182 685v50h98v-50h-98zM277 590v50h97v-50h-97zM371 118v50h97v-50h-97zM371 212v51h97v-51h-97zM371 307v50h97v-50h-97z " />
<glyph unicode="&#xf5;" d="M-7 118v50h98v-50h-98zM-7 212v51h98v-51h-98zM-7 307v50h98v-50h-98zM-7 590v50h98v-50h-98zM88 24v50h286v-50h-286zM88 401v50h286v-50h-286zM88 685v50h97v-50h-97zM182 590v50h192v-50h-192zM371 118v50h97v-50h-97zM371 212v51h97v-51h-97zM371 307v50h97v-50h-97z M371 685v50h97v-50h-97z" />
<glyph unicode="&#xf6;" d="M-7 118v50h98v-50h-98zM-7 212v51h98v-51h-98zM-7 307v50h98v-50h-98zM-7 590v50h98v-50h-98zM-7 685v50h98v-50h-98zM88 24v50h286v-50h-286zM88 401v50h286v-50h-286zM371 118v50h97v-50h-97zM371 212v51h97v-51h-97zM371 307v50h97v-50h-97zM371 590v50h97v-50h-97z M371 685v50h97v-50h-97z" />
<glyph unicode="&#xf7;" d="M-7 212v51h475v-51h-475zM182 24v50h98v-50h-98zM182 401v50h98v-50h-98z" />
<glyph unicode="&#xf8;" d="M-7 118v50h98v-50h-98zM-7 212v51h98v-51h-98zM-7 307v50h98v-50h-98zM-6 -21h98v-50h-98v50zM88 24v50h286v-50h-286zM88 401v50h286v-50h-286zM182 118v50h98v-50h-98zM182 212v51h98v-51h-98zM277 307v50h191v-50h-191zM371 118v50h97v-50h-97zM371 212v51h97v-51h-97 zM371 496v50h97v-50h-97z" />
<glyph unicode="&#xf9;" d="M-7 118v50h98v-50h-98zM-7 212v51h98v-51h-98zM-7 307v50h98v-50h-98zM-7 401v50h98v-50h-98zM88 24v50h192v-50h-192zM88 685v50h97v-50h-97zM182 590v50h192v-50h-192zM277 118v50h191v-50h-191zM371 24v50h97v-50h-97zM371 212v51h97v-51h-97zM371 307v50h97v-50h-97z M371 401v50h97v-50h-97z" />
<glyph unicode="&#xfa;" d="M-7 118v50h98v-50h-98zM-7 212v51h98v-51h-98zM-7 307v50h98v-50h-98zM-7 401v50h98v-50h-98zM88 24v50h192v-50h-192zM88 590v50h192v-50h-192zM277 118v50h191v-50h-191zM277 685v50h97v-50h-97zM371 24v50h97v-50h-97zM371 212v51h97v-51h-97zM371 307v50h97v-50h-97z M371 401v50h97v-50h-97z" />
<glyph unicode="&#xfb;" d="M-7 118v50h98v-50h-98zM-7 212v51h98v-51h-98zM-7 307v50h98v-50h-98zM-7 401v50h98v-50h-98zM88 24v50h192v-50h-192zM88 590v50h97v-50h-97zM182 685v50h98v-50h-98zM277 118v50h191v-50h-191zM277 590v50h97v-50h-97zM371 24v50h97v-50h-97zM371 212v51h97v-51h-97z M371 307v50h97v-50h-97zM371 401v50h97v-50h-97z" />
<glyph unicode="&#xfc;" d="M-7 118v50h98v-50h-98zM-7 212v51h98v-51h-98zM-7 307v50h98v-50h-98zM-7 401v50h98v-50h-98zM-7 590v50h98v-50h-98zM-7 685v50h98v-50h-98zM88 24v50h192v-50h-192zM277 118v50h191v-50h-191zM371 24v50h97v-50h-97zM371 212v51h97v-51h-97zM371 307v50h97v-50h-97z M371 401v50h97v-50h-97zM371 590v50h97v-50h-97zM371 685v50h97v-50h-97z" />
<glyph unicode="&#xfd;" d="M-7 -115h192v-50h-192v50zM-7 307v50h98v-50h-98zM-7 401v50h98v-50h-98zM88 118v50h97v-50h-97zM88 212v51h97v-51h-97zM88 590v50h192v-50h-192zM182 -21h98v-50h-98v50zM182 24v50h98v-50h-98zM277 118v50h97v-50h-97zM277 212v51h97v-51h-97zM277 685v50h97v-50h-97z M371 307v50h97v-50h-97zM371 401v50h97v-50h-97z" />
<glyph unicode="&#xfe;" d="M-7 -21h98v-50h-98v50zM-7 24v50h381v-50h-381zM-7 -115h98v-50h-98v50zM-7 118v50h98v-50h-98zM-7 212v51h98v-51h-98zM-7 307v50h98v-50h-98zM-7 401v50h381v-50h-381zM-7 496v50h98v-50h-98zM-7 590v50h98v-50h-98zM371 118v50h97v-50h-97zM371 212v51h97v-51h-97z M371 307v50h97v-50h-97z" />
<glyph unicode="&#xff;" d="M-7 -115h192v-50h-192v50zM-7 307v50h98v-50h-98zM-7 401v50h98v-50h-98zM-7 590v50h98v-50h-98zM-7 685v50h98v-50h-98zM88 118v50h97v-50h-97zM88 212v51h97v-51h-97zM182 -21h98v-50h-98v50zM182 24v50h98v-50h-98zM277 118v50h97v-50h-97zM277 212v51h97v-51h-97z M371 307v50h97v-50h-97zM371 401v50h97v-50h-97zM371 590v50h97v-50h-97zM371 685v50h97v-50h-97z" />
<glyph unicode="&#x152;" d="M-9 120v51h99v-51h-99zM-9 216v51h99v-51h-99zM-9 312v51h99v-51h-99zM-9 408v51h99v-51h-99zM-9 504v51h99v-51h-99zM87 24v51h387v-51h-387zM87 600v51h387v-51h-387zM183 120v51h99v-51h-99zM183 216v51h99v-51h-99zM183 312v51h195v-51h-195zM183 408v51h99v-51h-99z M183 504v51h99v-51h-99z" />
<glyph unicode="&#x153;" d="M-7 118v50h98v-50h-98zM-7 212v51h98v-51h-98zM-7 307v50h98v-50h-98zM88 24v50h97v-50h-97zM88 401v50h97v-50h-97zM182 118v50h98v-50h-98zM182 212v51h286v-51h-286zM182 307v50h98v-50h-98zM277 24v50h191v-50h-191zM277 401v50h97v-50h-97zM371 307v50h97v-50h-97z " />
<glyph unicode="&#x178;" d="M-9 408v51h99v-51h-99zM-9 504v51h99v-51h-99zM-9 600v51h99v-51h-99zM-9 816v51h99v-51h-99zM-9 912v51h99v-51h-99zM87 312v51h99v-51h-99zM183 24v51h99v-51h-99zM183 120v51h99v-51h-99zM183 216v51h99v-51h-99zM279 312v51h99v-51h-99zM375 408v51h99v-51h-99z M375 504v51h99v-51h-99zM375 600v51h99v-51h-99zM375 816v51h99v-51h-99zM375 912v51h99v-51h-99z" />
<glyph unicode="&#x2c6;" d="M88 590v50h97v-50h-97zM182 685v50h98v-50h-98zM277 590v50h97v-50h-97z" />
<glyph unicode="&#x2dc;" d="M-7 590v50h98v-50h-98zM88 685v50h97v-50h-97zM182 590v50h192v-50h-192zM371 685v50h97v-50h-97z" />
<glyph unicode="&#x2000;" horiz-adv-x="529" />
<glyph unicode="&#x2001;" horiz-adv-x="1059" />
<glyph unicode="&#x2002;" horiz-adv-x="529" />
<glyph unicode="&#x2003;" horiz-adv-x="1059" />
<glyph unicode="&#x2004;" horiz-adv-x="353" />
<glyph unicode="&#x2005;" horiz-adv-x="264" />
<glyph unicode="&#x2006;" horiz-adv-x="176" />
<glyph unicode="&#x2007;" horiz-adv-x="176" />
<glyph unicode="&#x2008;" horiz-adv-x="132" />
<glyph unicode="&#x2009;" horiz-adv-x="211" />
<glyph unicode="&#x200a;" horiz-adv-x="58" />
<glyph unicode="&#x2010;" d="M88 212v51h286v-51h-286z" />
<glyph unicode="&#x2011;" d="M88 212v51h286v-51h-286z" />
<glyph unicode="&#x2012;" d="M88 212v51h286v-51h-286z" />
<glyph unicode="&#x2013;" d="M88 212v51h286v-51h-286z" />
<glyph unicode="&#x2014;" d="M-7 212v51h475v-51h-475z" />
<glyph unicode="&#x2018;" d="M184 401v50h97v-50h-97zM184 496v50h97v-50h-97zM278 590v50h97v-50h-97z" />
<glyph unicode="&#x2019;" d="M184 401v50h97v-50h-97zM278 496v50h97v-50h-97zM278 590v50h97v-50h-97z" />
<glyph unicode="&#x201a;" d="M184 -21h97v-50h-97v50zM278 24v50h97v-50h-97zM278 118v50h97v-50h-97z" />
<glyph unicode="&#x201c;" d="M89 401v50h97v-50h-97zM89 496v50h97v-50h-97zM184 590v50h97v-50h-97zM278 401v50h97v-50h-97zM278 496v50h97v-50h-97zM373 590v50h97v-50h-97z" />
<glyph unicode="&#x201d;" d="M89 401v50h97v-50h-97zM184 496v50h97v-50h-97zM184 590v50h97v-50h-97zM278 401v50h97v-50h-97zM373 496v50h97v-50h-97zM373 590v50h97v-50h-97z" />
<glyph unicode="&#x201e;" d="M89 -21h97v-50h-97v50zM184 24v50h97v-50h-97zM184 118v50h97v-50h-97zM278 -21h97v-50h-97v50zM373 24v50h97v-50h-97zM373 118v50h97v-50h-97z" />
<glyph unicode="&#x2022;" d="M-9 212v51h286v-51h-286zM-9 307v50h286v-50h-286zM-9 401v50h286v-50h-286z" />
<glyph unicode="&#x2026;" d="M-7 24v50h98v-50h-98zM-7 118v50h98v-50h-98zM182 24v50h98v-50h-98zM182 118v50h98v-50h-98zM371 24v50h97v-50h-97zM371 118v50h97v-50h-97z" />
<glyph unicode="&#x202f;" horiz-adv-x="211" />
<glyph unicode="&#x2039;" d="M88 212v51h97v-51h-97zM182 118v50h98v-50h-98zM182 307v50h98v-50h-98zM277 24v50h97v-50h-97zM277 401v50h97v-50h-97z" />
<glyph unicode="&#x203a;" d="M185 24v50h97v-50h-97zM185 401v50h97v-50h-97zM279 118v50h98v-50h-98zM279 307v50h98v-50h-98zM374 212v51h97v-51h-97z" />
<glyph unicode="&#x205f;" horiz-adv-x="264" />
<glyph unicode="&#x20ac;" d="M-7 212v51h287v-51h-287zM-7 401v50h381v-50h-381zM88 118v50h97v-50h-97zM88 307v50h97v-50h-97zM88 496v50h97v-50h-97zM182 24v50h286v-50h-286zM182 590v50h286v-50h-286z" />
<glyph unicode="&#x2122;" d="M-5 590v50h380v-50h-380zM89 401v50h97v-50h-97zM89 496v50h97v-50h-97zM278 401v50h97v-50h-97zM278 496v50h286v-50h-286zM467 401v50h97v-50h-97zM467 590v50h97v-50h-97z" />
<glyph unicode="&#xe000;" horiz-adv-x="450" d="M0 0v450h450v-450h-450z" />
</font>
</defs>
</svg>
