<?xml version="1.0" standalone="no"?>
<!DOCTYPE svg PUBLIC "-//W3C//DTD SVG 1.1//EN" "http://www.w3.org/Graphics/SVG/1.1/DTD/svg11.dtd" >
<svg xmlns="http://www.w3.org/2000/svg">
<metadata></metadata>
<defs>
<font id="volkhovbold_italic" horiz-adv-x="731" >
<font-face units-per-em="1000" ascent="800" descent="-200" />
<missing-glyph horiz-adv-x="233" />
<glyph horiz-adv-x="1000" />
<glyph horiz-adv-x="1000" />
<glyph unicode="&#xd;" horiz-adv-x="0" />
<glyph unicode=" "  horiz-adv-x="233" />
<glyph unicode="&#x09;" horiz-adv-x="233" />
<glyph unicode="&#xa0;" horiz-adv-x="233" />
<glyph unicode="!" horiz-adv-x="303" d="M19 78q0 37 25 61.5t60 24.5q37 0 61.5 -24.5t24.5 -61.5q0 -35 -24.5 -60t-61.5 -25q-35 0 -60 25t-25 60zM82 208l102 492h129l-142 -492h-89z" />
<glyph unicode="&#x22;" horiz-adv-x="378" d="M113 472l25 235h124l-79 -235h-70zM285 472l25 235h124l-80 -235h-69z" />
<glyph unicode="#" horiz-adv-x="572" d="M24 0l74 191h-73l19 83h87l68 172h-93l19 83h106l70 179h84l-71 -179h102l70 179h84l-71 -179h82l-18 -83h-96l-68 -172h101l-18 -83h-116l-75 -191h-83l75 191h-102l-75 -191h-82zM214 274h102l68 172h-102z" />
<glyph unicode="$" horiz-adv-x="576" d="M4 40l56 184h54v-151q37 -13 77 -16l64 259l-45 35q-38 30 -65 70.5t-27 92.5q0 89 75 142q66 45 159 50l18 71h77l-18 -72q78 -6 135 -29l-55 -184h-53v146q-15 3 -43 4l-62 -246q9 -6 28 -20.5t48 -40.5t49.5 -64t20.5 -84q0 -87 -66 -137t-180 -56l-19 -77h-76l19 78 q-95 7 -171 45zM231 539q0 -29 19 -56q15 -21 37 -39l48 194q-30 -7 -57 -21q-47 -26 -47 -78zM268 63q26 5 50 16q26 12 41 34.5t15 53.5q0 37 -27 69q-13 16 -28 30z" />
<glyph unicode="%" horiz-adv-x="751" d="M95 477q0 95 53.5 163t137.5 68q50 0 79 -27.5t29 -80.5q0 -95 -53.5 -163t-137.5 -68q-49 0 -78.5 27.5t-29.5 80.5zM97 0l504 700h86l-503 -700h-87zM189 471q0 -66 26 -66q39 0 62.5 65t23.5 136q0 65 -26 65q-39 0 -62.5 -62t-23.5 -138zM385 100q0 95 53.5 163 t137.5 68q50 0 79 -27.5t29 -80.5q0 -95 -53.5 -163t-137.5 -68q-49 0 -78.5 27.5t-29.5 80.5zM479 94q0 -66 26 -66q36 0 61 66t25 135q0 65 -26 65q-36 0 -61 -63t-25 -137z" />
<glyph unicode="&#x26;" horiz-adv-x="762" d="M15 171q0 96 74 162.5t183 79.5v2q-59 8 -90 44.5t-31 81.5q0 74 65 120.5t182 46.5q80 0 127.5 -25.5t47.5 -69.5q0 -43 -35.5 -65t-92.5 -22q-9 0 -13 1q11 33 11 60q0 29 -15.5 50t-43.5 21q-44 0 -70 -37t-26 -93q0 -93 101 -93l-6 -60q-82 -3 -154.5 -55.5 t-72.5 -136.5q0 -55 33 -84t90 -29q170 0 270 172h-18q-95 2 -133.5 -9t-74.5 -54l-33 23q60 128 256 125h33q122 0 145 70q18 -9 31 -27.5t13 -41.5q0 -38 -32.5 -62t-95.5 -24h-28q-56 -112 -150 -181t-223 -69q-109 0 -166.5 50.5t-57.5 128.5z" />
<glyph unicode="'" horiz-adv-x="204" d="M112 473l26 235h123l-79 -235h-70z" />
<glyph unicode="(" horiz-adv-x="340" d="M2 81q0 206 110.5 402.5t292.5 321.5l31 -42q-314 -277 -314 -697q0 -177 76 -332l-42 -38q-154 152 -154 385z" />
<glyph unicode=")" horiz-adv-x="342" d="M-117 -262q314 277 314 687q0 189 -76 342l43 38q71 -71 112 -173t41 -222q0 -205 -110 -396.5t-292 -317.5z" />
<glyph unicode="*" horiz-adv-x="488" d="M115 581l33 100l124 -54l-14 133h106l-14 -133l123 52l33 -98l-132 -29l90 -103l-85 -63l-68 119l-66 -119l-88 63l91 104z" />
<glyph unicode="+" horiz-adv-x="558" d="M65 316v82h188v188h82v-188h190v-82h-190v-189h-82v189h-188z" />
<glyph unicode="," horiz-adv-x="258" d="M-68 -129q83 68 117 150l-57 58q0 35 25.5 60t60.5 25q36 0 60.5 -24.5t24.5 -60.5q0 -74 -64.5 -144t-133.5 -106z" />
<glyph unicode="-" horiz-adv-x="358" d="M64 228v91h218v-91h-218z" />
<glyph unicode="." horiz-adv-x="256" d="M-6 78q0 37 26 61.5t59 24.5q37 0 61.5 -25.5t24.5 -60.5q0 -33 -25 -59t-61 -26q-34 0 -59.5 26.5t-25.5 58.5z" />
<glyph unicode="/" horiz-adv-x="457" d="M-38 0l467 700h95l-467 -700h-95z" />
<glyph unicode="0" horiz-adv-x="633" d="M51 219q0 125 44 236t129.5 182t192.5 71q95 0 143.5 -59.5t48.5 -165.5q0 -131 -44 -242t-128.5 -179.5t-192.5 -68.5q-97 0 -145 62t-48 164zM186 202q0 -158 71 -158q63 0 115 77t77 179.5t25 198.5q0 156 -71 156q-64 0 -115 -72t-76.5 -174t-25.5 -207z" />
<glyph unicode="1" horiz-adv-x="354" d="M50 0l152 594l-109 -44l-8 46l226 112h50l-177 -708h-134z" />
<glyph unicode="2" horiz-adv-x="540" d="M-22 0l14 60l270 288q36 40 59.5 71t36.5 56t18 46t5 42q0 93 -73 93q-36 0 -56 -27.5t-20 -72.5q0 -21 9 -61q-17 -3 -39 -3q-38 0 -66.5 21t-28.5 63q0 31 15 55.5t42 41.5t65 26t83 9t82.5 -10.5t64 -30.5t41 -48t14.5 -62q0 -38 -14.5 -74.5t-40.5 -71.5t-61.5 -70 t-76.5 -71l-188 -173h223l66 98h62l-68 -195h-438z" />
<glyph unicode="3" horiz-adv-x="552" d="M-13 56l23 50q95 -46 166 -46q74 0 123 43t49 106q0 125 -147 131l15 60q76 10 121.5 56.5t45.5 116.5q0 39 -20 62t-51 23q-37 0 -59 -24t-22 -68q0 -25 7 -52q-20 -4 -34 -4q-38 0 -66 18.5t-28 57.5q0 52 54.5 87t145.5 35q97 0 150.5 -39t53.5 -108 q0 -68 -52.5 -120.5t-137.5 -70.5v-2q75 -7 117.5 -50.5t42.5 -105.5q0 -97 -73.5 -158t-194.5 -61q-124 0 -229 63z" />
<glyph unicode="4" horiz-adv-x="554" d="M-20 177l14 53l467 477h79l-112 -449h74l-20 -81h-74l-44 -177h-127l44 177h-301zM120 258h181l61 242z" />
<glyph unicode="5" horiz-adv-x="518" d="M-38 35l33 48q47 -25 117 -25q89 0 151 59.5t62 147.5q0 54 -32.5 85.5t-90.5 31.5q-18 0 -40 -2t-39 -5l-24 18l102 307h199q63 0 85.5 7.5t45.5 31.5l41 -15q-19 -41 -32.5 -62t-36 -41.5t-53.5 -28t-78 -7.5h-142l-46 -143q49 16 98 16q91 0 137 -48t46 -124 q0 -116 -97 -204.5t-239 -88.5q-102 1 -167 42z" />
<glyph unicode="6" horiz-adv-x="558" d="M37 197q0 190 136.5 338.5t347.5 172.5l7 -57q-123 -32 -209 -107q-73 -64 -122 -166q86 55 156 55q80 0 120 -46.5t40 -122.5q0 -120 -78.5 -195.5t-203.5 -75.5q-90 0 -142 54.5t-52 149.5zM158 199q0 -67 23 -106.5t64 -39.5q54 0 92 58t38 130q0 51 -22.5 81 t-66.5 30q-47 0 -103 -31l-8 -4q-17 -61 -17 -118z" />
<glyph unicode="7" horiz-adv-x="456" d="M56 0q66 173 164.5 322.5t187.5 256.5h-238l-47 -69h-50l65 190h403l-14 -63q-226 -296 -333 -637h-138z" />
<glyph unicode="8" horiz-adv-x="574" d="M35 129q0 72 53.5 135.5t123.5 104.5q-73 66 -73 140q0 85 69.5 142t165.5 57q82 0 131 -34.5t49 -96.5q0 -64 -42.5 -113t-108.5 -87q41 -36 62 -69q26 -41 26 -93q0 -96 -77 -159t-194 -63q-79 0 -132 33.5t-53 102.5zM148 146q0 -41 25.5 -68t69.5 -27q57 0 97 36 t40 82q0 13 -3.5 25.5t-8 22.5t-14.5 23q-23 31 -93 87q-40 -29 -76.5 -78.5t-36.5 -102.5zM252 554q0 -13 3.5 -25.5t11.5 -25.5q21 -30 41.5 -48.5t31.5 -27.5t14 -11q93 71 93 147q0 40 -26 62.5t-65 22.5q-42 0 -73 -27t-31 -67z" />
<glyph unicode="9" horiz-adv-x="558" d="M58 49q123 32 202 101t128 171q-86 -54 -155 -54q-80 0 -120 46.5t-40 122.5q0 120 78.5 195.5t203.5 75.5q90 0 142 -54.5t52 -149.5q0 -190 -136.5 -338.5t-347.5 -172.5zM211 459q0 -51 22.5 -81t66.5 -30q47 0 103 31l8 4q17 60 17 118q0 67 -23 106.5t-64 39.5 q-54 0 -92 -58t-38 -130z" />
<glyph unicode=":" horiz-adv-x="311" d="M13 78q0 37 26 61.5t59 24.5q37 0 61.5 -25.5t24.5 -60.5q0 -33 -25 -59t-61 -26q-34 0 -59.5 26.5t-25.5 58.5zM99 393q0 37 26 61.5t59 24.5q37 0 61.5 -25.5t24.5 -60.5q0 -33 -25 -59t-61 -26q-34 0 -59.5 26.5t-25.5 58.5z" />
<glyph unicode=";" horiz-adv-x="310" d="M-43 -129q83 68 117 150l-57 58q0 35 25.5 60t60.5 25q36 0 60.5 -24.5t24.5 -60.5q0 -74 -64.5 -144t-133.5 -106zM105 393q0 37 26 61.5t59 24.5q37 0 61.5 -25.5t24.5 -60.5q0 -33 -25 -59t-61 -26q-34 0 -59.5 26.5t-25.5 58.5z" />
<glyph unicode="&#x3c;" horiz-adv-x="581" d="M61 321v73l429 231v-95l-319 -173l319 -171v-95z" />
<glyph unicode="=" horiz-adv-x="639" d="M95 223v82h459v-82h-459zM95 389v82h459v-82h-459z" />
<glyph unicode="&#x3e;" horiz-adv-x="579" d="M121 91v95l319 171l-319 173v95l429 -231v-73z" />
<glyph unicode="?" horiz-adv-x="488" d="M107 78q0 37 25 61.5t60 24.5q37 0 61.5 -24.5t24.5 -61.5q0 -35 -24.5 -60t-61.5 -25q-35 0 -60 25t-25 60zM115 594q0 53 56 83.5t154 30.5q83 0 134.5 -35t51.5 -98q0 -48 -30.5 -85t-74.5 -60.5t-88 -44t-74.5 -46t-30.5 -55.5q0 -17 10 -27.5t26 -10.5q25 0 50 19 l30 -38q-38 -38 -91 -38q-46 0 -76 27t-30 70q0 38 18 68.5t45 50t59 40.5l59 39q27 19 45 46.5t18 61.5q0 30 -17 47t-46 17q-32 0 -52 -25.5t-20 -70.5q0 -24 7 -56q-133 0 -133 90z" />
<glyph unicode="@" horiz-adv-x="886" d="M54 232q0 99 35.5 185.5t98.5 151t150 102t190 37.5q72 0 133.5 -22t106.5 -61t71 -92.5t26 -116.5q0 -72 -27.5 -131.5t-77 -102.5t-117.5 -66.5t-149 -23.5q-29 0 -29 23q0 16 12 46q-65 -69 -142 -69q-43 0 -67.5 25.5t-24.5 77.5q0 67 25.5 127.5t68.5 106t97.5 72.5 t113.5 27q87 0 155 -39l-118 -338q47 8 87 31.5t69.5 58t46.5 78t17 92.5q0 54 -21 99t-58 77.5t-88.5 50t-111.5 17.5q-85 0 -152.5 -35.5t-114.5 -93.5t-72 -132.5t-25 -152.5q0 -69 21 -124.5t60 -94t93.5 -59t120.5 -20.5q91 0 186 37l20 -38q-107 -59 -236 -59 q-73 0 -140.5 21.5t-119 65t-82.5 109t-31 153.5zM361 218q0 -55 32 -55q23 0 53.5 20.5t61.5 59.5l83 236q-17 3 -35 3q-38 0 -73 -22t-62 -58.5t-43.5 -84t-16.5 -99.5z" />
<glyph unicode="A" horiz-adv-x="663" d="M-82 0l11 41l91 22l380 637h83l46 -638l79 -21l-10 -41h-282l11 41l76 18l-10 137h-197l-80 -134l79 -21l-11 -41h-266zM234 260h154l-17 228z" />
<glyph unicode="B" horiz-adv-x="628" d="M-37 0l14 51l93 22l138 554l-80 22l12 51h261q192 0 192 -147q0 -69 -46.5 -118.5t-118.5 -67.5l-1 -3q61 -10 96.5 -49.5t35.5 -98.5q0 -102 -81.5 -159t-199.5 -57h-315zM201 76h61q68 1 115 42t47 104q0 50 -29.5 78.5t-83.5 28.5h-46zM281 397h33q61 1 102.5 44 t41.5 105q0 79 -87 79h-33z" />
<glyph unicode="C" horiz-adv-x="619" d="M46 239q0 87 29.5 170.5t82.5 150t133.5 107.5t173.5 41q54 0 103.5 -10t91.5 -30l-46 -185h-59l-6 149q-28 8 -60 8q-131 0 -220.5 -116t-89.5 -279q0 -88 36 -134t95 -46q42 0 73 9l115 152h58l-71 -184q-85 -49 -201 -49q-121 0 -179.5 68.5t-58.5 177.5z" />
<glyph unicode="D" horiz-adv-x="703" d="M-34 0l11 51l91 22l140 554l-81 22l13 51h246q149 0 222.5 -64.5t73.5 -182.5q0 -107 -37 -194t-101.5 -143t-149 -86t-182.5 -30h-246zM199 72h26q131 0 227.5 108.5t96.5 276.5q0 84 -48 127.5t-132 43.5h-31z" />
<glyph unicode="E" horiz-adv-x="591" d="M-35 0l11 49l94 24l138 554l-80 23l12 50h485l-51 -205h-57l-7 133h-172l-58 -237l183 20l-24 -104l-176 18l-63 -253h165l109 144h58l-81 -216h-486z" />
<glyph unicode="F" horiz-adv-x="549" d="M-35 0l13 51l92 22l138 554l-82 22l13 51h485l-51 -205h-58l-6 133h-171l-60 -237l189 21l-26 -106l-178 19l-63 -252l101 -22l-12 -51h-324z" />
<glyph unicode="G" horiz-adv-x="684" d="M46 236q0 197 125 334.5t321 137.5q92 0 186 -39l-46 -185h-58l-6 152q-40 7 -68 7q-140 0 -229 -119.5t-89 -281.5q0 -87 47 -134t122 -47q24 0 37.5 2t21.5 4l46 185l-98 34l9 41h307l-9 -41l-80 -35l-52 -209q-103 -49 -219 -49q-120 0 -194 60.5t-74 182.5z" />
<glyph unicode="H" horiz-adv-x="770" d="M-35 0l14 51l90 21l139 554l-82 23l13 51h305l-12 -51l-93 -22l-61 -242h260l61 241l-80 23l12 51h302l-12 -51l-92 -21l-139 -555l83 -22l-13 -51h-303l14 51l89 21l63 251h-261l-62 -250l84 -22l-13 -51h-306z" />
<glyph unicode="I" horiz-adv-x="379" d="M-35 0l13 51l92 22l137 554l-81 22l13 51h304l-13 -51l-93 -22l-137 -554l82 -22l-13 -51h-304z" />
<glyph unicode="J" horiz-adv-x="359" d="M-86 -106q62 42 102 99.5t65 156.5l119 476l-81 23l14 51h302l-13 -51l-91 -21l-119 -478q-27 -107 -106 -187.5t-172 -121.5z" />
<glyph unicode="K" horiz-adv-x="685" d="M-34 0l13 51l91 22l138 554l-81 22l12 51h305l-13 -51l-93 -23l-137 -554l82 -21l-13 -51h-304zM294 364l250 264l-57 21l12 51h258l-13 -51l-86 -20l-239 -245l48 -125q46 -122 74 -155.5t94 -52.5l-14 -58q-115 0 -172 49t-103 179z" />
<glyph unicode="L" horiz-adv-x="561" d="M-35 0l13 51l92 22l138 553l-82 23l13 51h304l-12 -51l-93 -23l-139 -554h171l103 144h58l-81 -216h-485z" />
<glyph unicode="M" horiz-adv-x="944" d="M-51 0l13 51l96 24l168 553l-78 21l13 51h206l76 -506l321 506h222l-13 -51l-88 -20l-109 -556l87 -22l-14 -51h-303l13 51l87 21l90 451l-337 -528h-53l-80 529l-134 -452l79 -21l-13 -51h-249z" />
<glyph unicode="N" horiz-adv-x="720" d="M-35 0l12 51l92 22l138 553l-80 23l12 51h157l221 -469l98 396l-80 22l13 51h247l-12 -51l-94 -22l-155 -627h-47l-237 503l-107 -431l81 -21l-12 -51h-247z" />
<glyph unicode="O" d="M45 233q0 123 50.5 230.5t147.5 176t218 68.5q123 0 188 -65.5t65 -175.5q0 -122 -50 -229.5t-146.5 -176t-218.5 -68.5q-124 0 -189 65t-65 175zM182 223q0 -76 30.5 -121t94.5 -45q66 0 119.5 40t85.5 103.5t49 135.5t17 141q0 76 -31.5 121.5t-95.5 45.5 q-65 0 -118 -40.5t-85 -104.5t-49 -135.5t-17 -140.5z" />
<glyph unicode="P" horiz-adv-x="596" d="M-35 0l13 51l92 22l139 554l-82 22l13 51h267q100 0 157 -44t57 -130q0 -125 -84.5 -196t-216.5 -71q-32 0 -72 5l-49 -194l111 -19l-13 -51h-332zM265 330q16 -1 32 -1q86 0 137.5 54.5t51.5 138.5q0 110 -121 110h-25z" />
<glyph unicode="Q" horiz-adv-x="732" d="M46 233q0 123 52 231.5t147.5 176t216.5 67.5q123 0 188 -65.5t65 -175.5q0 -122 -50 -229.5t-147 -176.5q-60 -42 -131 -58l28 -8q40 -11 110 -51.5t117 -40.5q51 0 106 52l40 -23q-37 -75 -75.5 -108.5t-85.5 -33.5q-35 0 -71.5 19t-95 74.5t-96.5 79.5q-34 22 -69 30 q-118 1 -183.5 65.5t-65.5 174.5zM183 223q0 -76 30.5 -121t94.5 -45q66 0 119.5 40t85.5 103.5t49 135.5t17 141q0 76 -31.5 121.5t-95.5 45.5q-65 0 -118 -40.5t-85 -104.5t-49 -135.5t-17 -140.5z" />
<glyph unicode="R" horiz-adv-x="650" d="M-35 0l13 51l92 22l139 553l-82 23l12 51h267q215 0 215 -157q0 -101 -65 -159q-52 -47 -126 -56l28 -96q24 -88 54 -130t92 -62l-12 -47q-109 3 -167 53t-88 151l-34 109h-45l-58 -233l82 -22l-12 -51h-305zM274 371h30q72 0 127 45t55 125q0 91 -107 91h-39z" />
<glyph unicode="S" horiz-adv-x="554" d="M-3 40l56 184h49v-153q47 -14 92 -14q73 0 115.5 28t42.5 82q0 36 -25 68t-61 58t-72 55t-61 71.5t-25 94.5q0 92 73.5 143t185.5 51q114 0 190 -32l-55 -184h-48v143q-44 8 -72 8q-59 0 -101 -24.5t-42 -79.5q0 -30 26 -61t63.5 -59t74.5 -60t63 -76.5t26 -95.5 q0 -91 -69 -142.5t-212 -51.5q-123 0 -214 47z" />
<glyph unicode="T" horiz-adv-x="589" d="M71 0l12 51l92 22l139 555h-117l-75 -140h-49l53 212h540l-53 -212h-48l-5 140h-117l-139 -555l82 -22l-13 -51h-302z" />
<glyph unicode="U" d="M85 169q0 41 15 100l88 358l-80 22l13 51h304l-13 -51l-93 -22l-90 -358q-13 -54 -13 -85q0 -47 32 -78t93 -31q75 0 129 52.5t76 141.5l89 358l-79 22l12 51h247l-13 -51l-93 -21l-89 -359q-68 -276 -316 -276q-105 0 -162 44t-57 132z" />
<glyph unicode="V" horiz-adv-x="659" d="M80 649l13 51h283l-13 -51l-73 -17l34 -450l247 446l-68 21l14 51h246l-13 -51l-95 -22l-352 -634h-92l-49 633z" />
<glyph unicode="W" horiz-adv-x="960" d="M80 649l12 51h285l-13 -51l-78 -18l19 -425l251 494h83l27 -489l204 418l-70 20l13 51h246l-12 -51l-95 -22l-310 -634h-91l-27 483l-244 -483h-91l-29 634z" />
<glyph unicode="X" horiz-adv-x="668" d="M-76 0l12 51l100 24l251 280l-95 269l-86 25l12 51h275l-12 -51l-59 -15l68 -190l161 187l-67 18l12 51h263l-11 -51l-103 -24l-228 -259l103 -293l86 -22l-12 -51h-276l12 51l58 14l-74 212l-182 -208l67 -18l-12 -51h-263z" />
<glyph unicode="Y" horiz-adv-x="627" d="M74 649l13 51h271l-12 -51l-61 -12l79 -229l175 222l-71 19l13 51h246l-14 -51l-83 -25l-238 -298l-63 -253l88 -22l-12 -51h-303l12 51l85 22l62 253l-106 301z" />
<glyph unicode="Z" horiz-adv-x="613" d="M-37 0l15 62l487 566h-238l-70 -133h-48l51 205h495l-15 -62l-488 -566h257l101 144h49l-81 -216h-515z" />
<glyph unicode="[" horiz-adv-x="334" d="M-16 -128l221 888h223l-13 -57h-116l-193 -774h116l-14 -57h-224z" />
<glyph unicode="\" horiz-adv-x="363" d="M156 -121v881h65v-881h-65z" />
<glyph unicode="]" horiz-adv-x="335" d="M-82 -128l13 57h116l193 774h-116l14 57h224l-221 -888h-223z" />
<glyph unicode="^" horiz-adv-x="559" d="M104 267l309 448h50l87 -448h-77l-60 337l-226 -337h-83z" />
<glyph unicode="_" horiz-adv-x="763" d="M51 -71h459v-71h-459v71z" />
<glyph unicode="`" horiz-adv-x="221" d="M-41 746q50 43 114 50l79 -194l-57 -28z" />
<glyph unicode="a" horiz-adv-x="584" d="M17 137q0 158 96 264t235 106q98 0 180 -46l-99 -382h98v-42q-77 -21 -123.5 -32.5t-74.5 -11.5q-37 0 -37 33q0 16 6 38l5 19q-79 -90 -170 -90q-53 0 -84.5 37t-31.5 107zM150 147q0 -75 42 -75q34 0 72.5 35t66.5 84l68 257q-15 5 -44 5q-81 0 -143 -96t-62 -210z" />
<glyph unicode="b" horiz-adv-x="558" d="M8 39l177 683h-97v41q159 44 192 44q42 0 42 -33q0 -12 -6 -38l-82 -319q79 90 170 90q53 0 84.5 -37t31.5 -107q0 -158 -96 -264t-235 -106q-99 0 -181 46zM138 52q15 -5 44 -5q81 0 143 96t62 210q0 75 -42 75q-34 0 -72.5 -35t-66.5 -84z" />
<glyph unicode="c" horiz-adv-x="468" d="M17 170q0 79 38 157.5t111.5 129t168.5 50.5q60 0 97 -21.5t37 -59.5q0 -39 -32 -63t-79 -24q-4 21 -8 49.5t-7 42.5t-9 20t-19 6q-59 0 -110 -81t-51 -198q0 -124 100 -124q54 0 121 27l13 -39q-33 -17 -55 -25.5t-56 -16t-80 -7.5q-84 0 -132 46t-48 131z" />
<glyph unicode="d" horiz-adv-x="582" d="M17 137q0 162 97.5 266t232.5 104q33 0 60 -6l54 220h-97v42q162 44 191 44q43 0 43 -30q0 -14 -11 -56l-158 -642h94v-42q-54 -16 -114.5 -30t-79.5 -14q-38 0 -38 31q0 18 11 60q-80 -91 -175 -91q-46 0 -78 35.5t-32 108.5zM149 151q0 -79 41 -79q36 0 73.5 34 t67.5 88l63 255q-16 4 -37 4q-58 0 -107.5 -50t-75 -118t-25.5 -134z" />
<glyph unicode="e" horiz-adv-x="481" d="M16 162q0 64 21.5 124.5t61 110t102 80t137.5 30.5q67 0 101 -28.5t34 -71.5q0 -88 -97 -144q-86 -49 -226 -71v-20q0 -54 24 -86t71 -32q55 0 125 25l13 -38q-89 -48 -191 -48q-83 0 -129.5 43.5t-46.5 125.5zM154 246q192 72 192 171q0 40 -39 40q-51 0 -98 -69 q-42 -61 -55 -142z" />
<glyph unicode="f" horiz-adv-x="371" d="M-306 -221q0 65 91 110q3 -10 27 -74.5t67 -64.5q41 0 76.5 46t57.5 138l124 510h-75l12 43l75 6l19 80q54 234 293 234q87 0 129 -23.5t42 -64.5q0 -32 -25 -61.5t-65 -47.5q-5 16 -30.5 78t-74.5 62q-19 0 -36 -6.5t-38 -26t-40.5 -62.5t-35.5 -107l-12 -48l146 12 l-17 -68h-142l-124 -512q-58 -240 -281 -240q-73 0 -118 22t-45 65z" />
<glyph unicode="g" horiz-adv-x="556" d="M-52 -219q0 65 91 108q16 -51 36.5 -95t55.5 -44q15 0 33 6.5t36.5 28.5t37 62.5t35.5 109.5l32 129q-83 -93 -176 -93q-48 0 -80 34.5t-32 109.5q0 80 26.5 147.5t71.5 117t105 77.5t127 28q98 0 178 -46l-133 -529q-60 -240 -282 -240q-73 0 -117.5 22t-44.5 67z M148 155q0 -83 43 -83q64 0 142 124l63 253q-15 4 -37 4q-49 0 -88 -30.5t-66.5 -75.5t-42 -97t-14.5 -95z" />
<glyph unicode="h" horiz-adv-x="585" d="M3 -7l182 729h-97v41q79 21 131.5 32.5t66.5 11.5q35 0 35 -30q0 -18 -6 -40l-87 -346q97 116 193 116q46 0 68.5 -26t22.5 -70q0 -51 -33 -164l-47 -167h97v-43q-80 -21 -132.5 -32.5t-69.5 -11.5q-35 0 -35 29q0 11 9 40l39 144q19 68 28 97.5t14.5 52t5.5 35.5 q0 26 -22 26q-28 0 -73 -35.5t-91 -96.5l-71 -285z" />
<glyph unicode="i" horiz-adv-x="332" d="M37 421v42q144 44 185 44q48 0 48 -35q0 -13 -10 -53l-85 -341h98v-41q-54 -17 -105 -30.5t-82 -13.5q-45 0 -45 39q0 14 8 48l86 341h-98zM171 649q0 36 25 60.5t60 24.5q36 0 60.5 -24.5t24.5 -60.5q0 -35 -24.5 -60t-60.5 -25q-35 0 -60 25t-25 60z" />
<glyph unicode="j" horiz-adv-x="318" d="M-294 -221q0 67 91 110q3 -10 27 -74.5t63 -64.5q36 0 77 45.5t69 161.5l113 465h-97v41q146 44 188 44q44 0 44 -38q0 -15 -8 -47l-120 -490q-17 -67 -47.5 -115.5t-70 -74.5t-80.5 -38t-87 -12q-73 0 -117.5 22.5t-44.5 64.5zM174 649q0 36 25 60.5t60 24.5 q36 0 60.5 -24.5t24.5 -60.5q0 -35 -24.5 -60t-60.5 -25q-35 0 -60 25t-25 60z" />
<glyph unicode="k" horiz-adv-x="542" d="M3 -7l182 728h-97v42q145 44 187 44q44 0 44 -36q0 -18 -8 -50l-180 -721zM214 260q171 78 171 143q0 25 -36 76q35 28 76 28q33 0 53 -19.5t20 -48.5q0 -56 -47 -100q-36 -34 -106 -77l31 -72q34 -83 55 -112.5t59 -44.5l-13 -40q-81 0 -123.5 20.5t-73.5 90.5z" />
<glyph unicode="l" horiz-adv-x="314" d="M22 32q0 12 9 48l160 641h-97v42q143 44 185 44q48 0 48 -36q0 -12 -10 -52l-161 -641h99v-41q-55 -17 -104.5 -30.5t-82.5 -13.5q-46 0 -46 39z" />
<glyph unicode="m" horiz-adv-x="878" d="M25 -7l108 428h-98v42q79 21 131.5 32.5t68.5 11.5q35 0 35 -30q0 -18 -6 -40l-11 -40q91 110 180 110q96 0 96 -100q0 -6 -1 -13q88 113 186 113q94 0 94 -100q0 -13 -3 -33t-10 -47q-18 -77 -72 -247h98v-43q-80 -21 -131.5 -32.5t-71.5 -11.5q-36 0 -36 29q0 8 10 43 l68 232q9 33 14 56t5 34q0 31 -22 31q-31 0 -82 -46q-36 -32 -68 -81l-79 -291l-128 -7l76 280q24 89 24 114q0 31 -24 31q-30 0 -83 -47q-34 -31 -67 -79l-73 -292z" />
<glyph unicode="n" horiz-adv-x="606" d="M25 -7l107 428h-96v42q79 21 131.5 32.5t66.5 11.5q35 0 35 -30q0 -19 -5 -40l-12 -44q95 114 191 114q46 0 68.5 -26t22.5 -70q0 -51 -33 -164l-48 -167h98v-43q-81 -21 -133.5 -32.5t-68.5 -11.5q-35 0 -35 29q0 11 9 40l67 242q8 28 13.5 51t5.5 36q0 26 -21 26 q-28 0 -73 -35.5t-91 -96.5l-71 -285z" />
<glyph unicode="o" horiz-adv-x="551" d="M18 176q0 61 23 120.5t64 106t98.5 75.5t126.5 29q84 0 132.5 -49.5t48.5 -134.5q0 -59 -21 -118t-61.5 -106t-98.5 -76.5t-133 -29.5q-179 0 -179 183zM153 158q0 -115 56 -115q41 0 72 30t51.5 75t31 97t10.5 96q0 116 -56 116q-28 0 -51 -15t-41 -39t-32 -55.5 t-23 -65t-13.5 -66t-4.5 -58.5z" />
<glyph unicode="p" horiz-adv-x="582" d="M-50 -300l183 721h-97v42q80 21 132.5 32.5t66.5 11.5q35 0 35 -30q0 -18 -6 -40l-5 -21q79 91 174 91q48 0 80 -35.5t32 -108.5q0 -159 -96.5 -264.5t-234.5 -105.5q-32 0 -62 6l-73 -284zM165 50q24 -4 39 -4q60 0 110 52t74.5 118.5t24.5 124.5q0 87 -43 87 q-64 0 -138 -118z" />
<glyph unicode="q" horiz-adv-x="556" d="M16 137q0 158 96.5 264t234.5 106q101 0 181 -46l-199 -755l-127 -13l100 390q-81 -90 -168 -90q-51 0 -84.5 34t-33.5 110zM149 159q0 -45 9.5 -66t32.5 -21q44 0 90 52q28 32 49 68l68 256q-18 5 -42 5q-58 0 -107.5 -50t-74.5 -117t-25 -127z" />
<glyph unicode="r" horiz-adv-x="459" d="M26 -7l108 429h-97v41q156 44 195 44q38 0 38 -29q0 -18 -10 -55l-8 -28q8 10 15 18q27 33 68 63.5t77 30.5q34 0 54 -18t20 -46q0 -38 -25 -73q-27 14 -49 25t-39 11q-42 0 -91 -53q-25 -26 -59 -75l-70 -278z" />
<glyph unicode="s" horiz-adv-x="449" d="M-12 84q0 32 23 53t64 42q14 -40 39.5 -87.5t73.5 -47.5q27 0 45.5 18t18.5 44q0 16 -5 29.5t-17 26.5t-21 21t-29 23l-27 21q-82 60 -82 146q0 60 52 97t143 37q76 0 118 -23.5t42 -59.5q0 -31 -25.5 -51t-66.5 -26q-17 39 -26 56t-27 34t-40 17q-25 0 -38 -15.5 t-13 -37.5q0 -45 75 -98q55 -41 81 -79.5t26 -87.5q0 -67 -58 -105t-149 -38q-84 0 -130.5 25t-46.5 66z" />
<glyph unicode="t" horiz-adv-x="378" d="M43 53q0 17 6 37l87 355h-81l8 39l85 7l23 85l129 15l-24 -93l130 11l-14 -64h-129l-81 -326q-2 -10 -2 -13q0 -20 20 -20q16 0 113 32l12 -40q-26 -15 -98 -50t-126 -35q-58 0 -58 60z" />
<glyph unicode="u" horiz-adv-x="607" d="M33 420v43q81 21 133.5 32.5t67.5 11.5q36 0 36 -30q0 -9 -9 -40l-67 -242q-8 -29 -13.5 -51.5t-5.5 -36.5q0 -25 21 -25q28 0 73 35.5t90 95.5l72 287l128 7l-107 -429h97v-41q-80 -21 -131.5 -32.5t-67.5 -11.5q-35 0 -35 29q0 19 6 40l12 45q-96 -114 -192 -114 q-91 0 -91 95q0 66 81 332h-98z" />
<glyph unicode="v" horiz-adv-x="555" d="M12 421v42q40 13 94 28.5t73 15.5q42 0 50 -40l65 -369q31 41 51 69q31 44 57.5 101t26.5 102q0 27 -14.5 43.5t-53.5 42.5q40 51 100 51q32 0 53.5 -19t21.5 -56q0 -62 -51.5 -154.5t-197.5 -277.5l-99 -7l-76 428h-100z" />
<glyph unicode="w" horiz-adv-x="824" d="M12 421v42q40 13 94 28.5t71 15.5q44 0 51 -40l62 -368q30 40 52 73q34 54 58 127l8 28l-30 173l122 7l72 -408q117 160 117 270q0 27 -15 44t-53 43q43 51 98 51q37 0 57 -20.5t20 -55.5q0 -145 -231 -431l-99 -7l-39 222l-37 -63q-18 -29 -47.5 -74t-55.5 -78l-101 -7 l-76 428h-98z" />
<glyph unicode="x" horiz-adv-x="568" d="M-30 54q0 26 14 62q59 -20 83 -20q25 0 48 13.5t70 79.5l32 45l-57 187h-103v42q40 13 94.5 28.5t70.5 15.5q40 0 52 -40l39 -131q67 90 106 127q45 44 86 44q31 0 48.5 -16.5t17.5 -45.5q0 -27 -13 -61q-59 20 -84 20q-31 0 -55 -19.5t-45 -49.5l-43 -60l61 -196h104 v-42q-40 -13 -93.5 -28.5t-71.5 -15.5q-41 0 -53 41l-43 140q-66 -89 -109 -132q-49 -49 -89 -49q-67 0 -67 61z" />
<glyph unicode="y" horiz-adv-x="551" d="M-1 -240q0 32 27.5 65t88.5 88q44 40 76 74l-78 434h-101v42q40 13 94 28.5t72 15.5q43 0 51 -40l65 -361q135 178 135 264q0 17 -11 33.5t-23 26.5t-34 26q43 51 103 51q31 0 52 -20t21 -55q0 -121 -221 -388l-136 -157q-18 -19 -32.5 -37.5t-18.5 -28.5t-4 -23 q0 -23 33 -59q-35 -39 -93 -39q-29 0 -47.5 16t-18.5 44z" />
<glyph unicode="z" horiz-adv-x="510" d="M-3 26l357 390q-45 -20 -113 -20h-57q-46 0 -64.5 -10.5t-36.5 -48.5l-43 8q26 108 40.5 135t51.5 27q22 0 96.5 -3.5t107.5 -3.5q75 0 130 7l27 -29l-375 -411q85 16 166 17q174 0 174 -91q0 -35 -22.5 -55t-61.5 -20l-31 1v6q0 38 -38 62t-114 24q-67 0 -163 -11z" />
<glyph unicode="{" horiz-adv-x="365" d="M20 292l13 52q54 3 88.5 25.5t48.5 78.5l42 169q36 143 171 143h74l-13 -53h-28q-42 0 -65 -22t-36 -73l-43 -171q-26 -105 -134 -124v-1q78 -15 78 -84q0 -22 -5 -39l-44 -173q-6 -27 -6 -44q0 -51 60 -51h28l-13 -53h-74q-52 0 -79 26t-27 72q0 22 6 46l43 169 q5 19 5 38q0 66 -90 69z" />
<glyph unicode="|" horiz-adv-x="331" d="M118 -240v1000h79v-1000h-79z" />
<glyph unicode="}" horiz-adv-x="365" d="M-81 -128l13 53h28q42 0 65 22t36 73l43 171q26 105 134 123v1q-78 16 -78 85q0 20 4 39l45 173q6 27 6 44q-11 51 -60 51h-28l13 53h75q52 0 79 -26t27 -72q0 -22 -6 -46l-43 -169q-5 -19 -5 -38q0 -65 90 -70l-13 -51q-54 -3 -88.5 -25.5t-48.5 -78.5l-42 -169 q-36 -143 -171 -143h-75z" />
<glyph unicode="~" horiz-adv-x="459" d="M110 653q10 9 27 22.5t60 36t75 22.5q38 0 74 -24t57 -24q57 0 112 34l23 -33l-26 -23q-16 -13 -58.5 -35.5t-76.5 -22.5q-40 0 -74 24t-58 24q-53 0 -112 -34z" />
<glyph unicode="&#xa1;" horiz-adv-x="283" d="M-39 -200l142 492h89l-102 -492h-129zM84 422q0 35 24.5 60t61.5 25q35 0 60 -25t25 -60q0 -37 -25 -61.5t-60 -24.5q-37 0 -61.5 24.5t-24.5 61.5z" />
<glyph unicode="&#xa2;" horiz-adv-x="504" d="M30 170q0 78 37 155.5t110 129.5q55 37 116 47l37 146h70l-36 -142q46 -2 81 -21q37 -23 37 -59q0 -39 -32 -63t-79 -24q-4 21 -8 49.5t-6.5 40t-6.5 18.5l-98 -393h15q54 0 121 27l13 -39q-32 -16 -54.5 -25t-51 -15t-58.5 -8l-33 -134h-70l34 137q-55 8 -90 42 q-48 46 -48 131zM167 178q0 -62 23 -92l88 355q-31 -18 -60 -63q-51 -83 -51 -200z" />
<glyph unicode="&#xa3;" horiz-adv-x="600" d="M-2 36q77 51 131 123.5t54 152.5q0 6 -1 14h-123l11 53l101 8q-3 12 -14.5 53t-11.5 79q0 85 69 136.5t172 51.5q93 0 149 -32t56 -90q0 -38 -29 -59.5t-81 -21.5h-14q6 26 6 56q0 45 -22.5 70t-61.5 25q-52 0 -82.5 -39t-30.5 -107q0 -31 13 -87q4 -14 6 -26l154 12 l-32 -82h-114q-1 -69 -42 -129q-26 -38 -70 -81h230l62 89h49l-71 -205h-456z" />
<glyph unicode="&#xa4;" horiz-adv-x="585" d="M32 173l78 66q-12 28 -12 70q0 95 77 181l-46 65l58 43l44 -62q61 41 133 41q60 0 104 -35l79 64l43 -56l-78 -65q11 -35 11 -65q0 -25 -6 -51.5t-17 -51.5t-26 -47.5t-33 -40.5l46 -66l-56 -43l-46 61q-59 -39 -124 -39q-66 0 -109 39l-76 -63zM191 331q0 -52 25 -83.5 t70 -31.5q28 0 53.5 15t44 39t29.5 54t11 60q0 51 -25 83.5t-70 32.5q-29 0 -54 -14.5t-44 -38.5t-29.5 -54.5t-10.5 -61.5z" />
<glyph unicode="&#xa5;" horiz-adv-x="715" d="M119 649l12 51h272l-13 -51l-64 -13l82 -231l181 224l-74 20l12 51h245l-11 -51l-81 -23l-203 -250l139 8l-30 -77h-163l-13 -49l176 10l-29 -77h-164l-29 -118l88 -22l-12 -51h-286l12 51l84 22l29 118h-144l13 52l146 8l14 56h-144l13 52l113 6l-97 264z" />
<glyph unicode="&#xa6;" horiz-adv-x="320" d="M113 160h79v-400h-79v400zM113 360v400h79v-400h-79z" />
<glyph unicode="&#xa7;" horiz-adv-x="524" d="M-2 -43l39 156h43l8 -122q31 -12 72 -12q61 0 96 24.5t35 66.5q0 30 -22 55t-122 85q-33 21 -56 52.5t-23 71.5q0 51 33.5 90t77.5 59q-13 11 -27.5 36t-14.5 64q0 80 68 128t170 48q87 0 151 -26l-39 -157h-43l-7 117q-33 7 -58 7q-52 0 -89.5 -22.5t-37.5 -64.5 q0 -30 23.5 -54t57.5 -42.5t68.5 -41t57.5 -55.5t23 -77q0 -55 -30.5 -91t-80.5 -63q11 -11 27 -34.5t18 -65.5q-1 -85 -72.5 -128.5t-172.5 -43.5q-107 2 -173 40zM183 364q0 -30 24 -54.5t55.5 -43.5t58.5 -37q36 38 36 83q0 39 -23 66.5t-101 67.5q-18 -11 -29 -24 q-21 -24 -21 -58z" />
<glyph unicode="&#xa8;" horiz-adv-x="489" d="M61 680q0 35 23 57.5t55 22.5q35 0 57.5 -22.5t22.5 -57.5q0 -32 -22.5 -55t-57.5 -23q-32 0 -55 23t-23 55zM281 680q0 35 23 57.5t55 22.5q35 0 57.5 -22.5t22.5 -57.5q0 -32 -22.5 -55t-57.5 -23q-32 0 -55 23t-23 55z" />
<glyph unicode="&#xa9;" horiz-adv-x="871" d="M77 357q0 77 29.5 145t80.5 119t119 81t145 30t145 -30t119 -81t81 -119t30 -145t-30 -145t-81 -119t-119 -80.5t-145 -29.5q-156 0 -265 109t-109 265zM153 357q0 -62 23 -116.5t63.5 -95t95 -63.5t116.5 -23t116.5 23.5t95 64t64 94.5t23.5 116t-23.5 116.5t-64 95 t-95 64t-116.5 23.5t-116 -23.5t-94.5 -64t-64 -95t-23.5 -116.5zM237 357q0 109 60 167.5t174 58.5q68 0 121 -25v-116h-48l-22 78q-42 3 -43 3q-66 0 -95.5 -41t-29.5 -125q0 -82 29 -123.5t93 -41.5h22.5t14.5 1l40 85h47l-16 -115q-61 -32 -123 -32q-106 0 -165 59 t-59 167z" />
<glyph unicode="&#xaa;" horiz-adv-x="409" d="M92 477q0 47 17 89t46 73.5t66.5 50t79.5 18.5q69 0 113 -29l-60 -233h59v-31q-40 -12 -71.5 -20t-51.5 -8q-28 0 -28 22q0 10 4 22l4 14q-43 -58 -102 -58q-76 0 -76 90zM186 491q0 -47 24 -47q17 0 39.5 22.5t40.5 57.5l38 143q-8 3 -22 3q-26 0 -48 -15.5t-38 -41 t-25 -57.5t-9 -65z" />
<glyph unicode="&#xab;" horiz-adv-x="477" d="M35 254l9 32l188 174h71l-143 -190l48 -190h-71zM218 256l6 28l151 147h66l-104 -161l18 -171h-67z" />
<glyph unicode="&#xac;" horiz-adv-x="597" d="M69 318v79h436v-274h-80v195h-356z" />
<glyph unicode="&#xad;" horiz-adv-x="403" d="M63 212v95h260v-95h-260z" />
<glyph unicode="&#xae;" horiz-adv-x="871" d="M77 357q0 77 29.5 145t80.5 119t119 81t145 30t145 -30t119 -81t81 -119t30 -145t-30 -145t-81 -119t-119 -80.5t-145 -29.5q-156 0 -265 109t-109 265zM153 357q0 -62 23 -116.5t63.5 -95t95 -63.5t116.5 -23q63 0 117 23.5t94.5 64t63.5 94.5t23 116t-23.5 116.5 t-64 95t-94.5 64t-116 23.5q-124 0 -211 -87t-87 -212zM263 149v41l49 13v313l-49 13v41h170q174 0 174 -119q0 -88 -92 -114l85 -134l48 -14v-40h-116l-105 179h-28v-125l56 -13v-41h-192zM399 379h28q90 0 90 72q0 66 -90 66h-28v-138z" />
<glyph unicode="&#xaf;" horiz-adv-x="0" />
<glyph unicode="&#xb0;" horiz-adv-x="382" d="M108 609q0 32 12 60t33 49t49 33t60 12t60 -12.5t49 -33.5t33.5 -49t12.5 -59q0 -32 -12.5 -60t-33.5 -49t-49 -33t-60 -12t-60 12t-49 33t-33 49t-12 60zM193 609q0 -28 20.5 -48.5t48.5 -20.5q29 0 49.5 20.5t20.5 48.5t-21 48.5t-49 20.5t-48.5 -20.5t-20.5 -48.5z " />
<glyph unicode="&#xb1;" horiz-adv-x="626" d="M72 0v82h449v-82h-449zM72 316v82h178v188h82v-188h189v-82h-189v-189h-82v189h-178z" />
<glyph unicode="&#xb2;" horiz-adv-x="382" d="M57 283l8 35q149 166 182 208q13 17 18.5 27t11.5 23t8 23.5t2 21.5q0 52 -38 52q-40 0 -40 -60q0 -22 3 -43q-38 1 -64 15.5t-26 43.5q0 36 38 57.5t96 21.5q57 0 91.5 -24.5t34.5 -67.5q0 -28 -16 -54.5t-36 -45.5q-124 -112 -164 -152h136l35 52h35l-49 -133h-266z " />
<glyph unicode="&#xb3;" horiz-adv-x="369" d="M60 310l15 36q45 -28 93 -28q43 0 68.5 23t25.5 61q0 33 -20.5 56t-61.5 26l7 40q44 1 69 31t25 72q0 48 -36 48q-22 0 -34 -17.5t-12 -46.5q0 -25 3 -41q-33 0 -57.5 14t-24.5 47q0 35 38.5 56t97.5 21q54 0 85.5 -22.5t31.5 -67.5q0 -43 -35 -74.5t-83 -39.5v-1 q46 -4 74 -31.5t28 -65.5q0 -63 -47.5 -97t-115.5 -34q-71 0 -134 35z" />
<glyph unicode="&#xb4;" horiz-adv-x="254" d="M37 595l84 199q65 -7 114 -50l-141 -177z" />
<glyph unicode="&#xb6;" horiz-adv-x="614" d="M98 517q0 97 75 170t199 73h307l-12 -48l-85 -20l-200 -804h-78l199 799h-70l-198 -799h-78l122 488h-9q-85 0 -128.5 37.5t-43.5 103.5z" />
<glyph unicode="&#xb7;" horiz-adv-x="313" d="M45 298q0 49 34 81t77 32q49 0 81 -33.5t32 -79.5q0 -43 -32.5 -77t-80.5 -34q-44 0 -77.5 34.5t-33.5 76.5z" />
<glyph unicode="&#xb8;" horiz-adv-x="333" d="M-1 -229l15 48q15 -3 37 -3q32 0 57.5 14t25.5 45q0 49 -59 49l44 85h64l-24 -50q35 -2 56.5 -19.5t21.5 -49.5q0 -62 -51.5 -95.5t-117.5 -33.5q-36 0 -69 10z" />
<glyph unicode="&#xb9;" horiz-adv-x="253" d="M94 283l87 343l-72 -30l-10 40l144 71h47l-106 -424h-90z" />
<glyph unicode="&#xba;" horiz-adv-x="396" d="M92 500q0 85 61.5 146.5t145.5 61.5q62 0 95 -31t33 -82q0 -84 -60.5 -146t-146.5 -62q-63 0 -95.5 31t-32.5 82zM193 486q0 -60 35 -60q38 0 68.5 61t30.5 122q0 31 -8 45.5t-28 14.5q-39 0 -68.5 -60t-29.5 -123z" />
<glyph unicode="&#xbb;" horiz-adv-x="479" d="M26 109l104 161l-18 171h66l71 -157l-7 -28l-149 -147h-67zM164 80l143 190l-48 190h71l101 -174l-7 -32l-188 -174h-72z" />
<glyph unicode="&#xbc;" horiz-adv-x="738" d="M67 0l467 700h95l-467 -700h-95zM115 283l87 343l-72 -30l-10 40l144 71h47l-106 -424h-90zM344 114l8 31l275 281h54l-64 -260h43l-13 -52h-44l-28 -113h-82l29 113h-178zM436 166h99l33 131z" />
<glyph unicode="&#xbd;" horiz-adv-x="811" d="M67 0l467 700h95l-467 -700h-95zM115 283l87 343l-72 -30l-10 40l144 71h47l-106 -424h-90zM414 1l8 35q149 166 182 208q13 17 18.5 27t11.5 23t8 23.5t2 21.5q0 52 -38 52q-40 0 -40 -60q0 -22 3 -43q-38 1 -64 15.5t-26 43.5q0 36 38 57.5t96 21.5q57 0 91.5 -24.5 t34.5 -67.5q0 -28 -16 -54.5t-36 -45.5q-124 -112 -164 -152h136l35 52h35l-49 -133h-266z" />
<glyph unicode="&#xbe;" horiz-adv-x="878" d="M66 310l15 36q45 -28 93 -28q43 0 68.5 23t25.5 61q0 33 -20.5 56t-61.5 26l7 40q44 1 69 31t25 72q0 48 -36 48q-22 0 -34 -17.5t-12 -46.5q0 -25 3 -41q-33 0 -57.5 14t-24.5 47q0 35 38.5 56t97.5 21q54 0 85.5 -22.5t31.5 -67.5q0 -43 -35 -74.5t-83 -39.5v-1 q46 -4 74 -31.5t28 -65.5q0 -63 -47.5 -97t-115.5 -34q-71 0 -134 35zM212 0l467 700h95l-467 -700h-95zM488 114l8 31l275 281h54l-64 -260h43l-13 -52h-44l-28 -113h-82l29 113h-178zM580 166h99l33 131z" />
<glyph unicode="&#xbf;" horiz-adv-x="478" d="M-50 -75q0 48 30.5 85t74.5 60.5t88 44t74.5 46t30.5 55.5q0 17 -10 27.5t-26 10.5q-25 0 -50 -19l-30 38q38 38 91 38q46 0 76 -27t30 -70q0 -38 -18 -68.5t-45 -50t-59 -40.5l-59 -39q-27 -19 -45 -46.5t-18 -61.5q0 -30 17 -47t46 -17q32 0 52 25.5t20 70.5 q0 24 -7 56q133 0 133 -90q0 -53 -56 -83.5t-154 -30.5q-83 0 -134.5 35t-51.5 98zM183 422q0 35 24.5 60t61.5 25q35 0 60 -25t25 -60q0 -37 -25 -61.5t-60 -24.5q-37 0 -61.5 24.5t-24.5 61.5z" />
<glyph unicode="&#xc0;" horiz-adv-x="663" d="M-82 0l11 41l91 22l380 637h83l46 -638l79 -21l-10 -41h-282l11 41l76 18l-10 137h-197l-80 -134l79 -21l-11 -41h-266zM234 260h154l-17 228zM282 828q14 32 37.5 60t48.5 36l158 -146l-24 -38z" />
<glyph unicode="&#xc1;" horiz-adv-x="663" d="M-82 0l11 41l91 22l380 637h83l46 -638l79 -21l-10 -41h-282l11 41l76 18l-10 137h-197l-80 -134l79 -21l-11 -41h-266zM234 260h154l-17 228zM350 768l162 148q25 -8 48.5 -36t37.5 -60l-225 -90z" />
<glyph unicode="&#xc2;" horiz-adv-x="663" d="M-82 0l11 41l91 22l380 637h83l46 -638l79 -21l-10 -41h-282l11 41l76 18l-10 137h-197l-80 -134l79 -21l-11 -41h-266zM234 260h154l-17 228zM244 796l154 122h109l97 -122l-68 -24l-96 65l-128 -65z" />
<glyph unicode="&#xc3;" horiz-adv-x="663" d="M-82 0l11 41l91 22l380 637h83l46 -638l79 -21l-10 -41h-282l11 41l76 18l-10 137h-197l-80 -134l79 -21l-11 -41h-266zM234 260h154l-17 228zM250 829q25 28 69.5 57.5t85.5 29.5q40 0 75 -26.5t66 -26.5q42 0 103 43l29 -43q-17 -22 -63 -54t-90 -32q-38 0 -77 26.5 t-65 26.5q-43 0 -102 -43z" />
<glyph unicode="&#xc4;" horiz-adv-x="663" d="M-82 0l11 41l91 22l380 637h83l46 -638l79 -21l-10 -41h-282l11 41l76 18l-10 137h-197l-80 -134l79 -21l-11 -41h-266zM234 260h154l-17 228zM270 846q0 35 23 57.5t55 22.5q35 0 57.5 -22.5t22.5 -57.5q0 -32 -22.5 -55t-57.5 -23q-32 0 -55 23t-23 55zM480 846 q0 35 23 57.5t55 22.5q35 0 57.5 -22.5t22.5 -57.5q0 -32 -22.5 -55t-57.5 -23q-32 0 -55 23t-23 55z" />
<glyph unicode="&#xc5;" horiz-adv-x="665" d="M-82 0l11 41l91 22l357 598q-4 3 -7 7q-36 35 -36 85t36 85t84 35q49 0 84.5 -35.5t35.5 -84.5q0 -50 -36 -85q-22 -23 -51 -31l42 -575l79 -21l-10 -41h-282l11 41l76 18l-10 137h-197l-80 -134l79 -21l-11 -41h-266zM234 260h154l-17 228zM402 753q0 -22 15 -36.5 t37 -14.5t36.5 14.5t14.5 36.5t-14.5 36t-36.5 14q-23 0 -37.5 -14t-14.5 -36z" />
<glyph unicode="&#xc6;" horiz-adv-x="1031" d="M-88 0l13 51l126 29l624 620h390l-51 -205h-48l-6 143h-180l-63 -251l186 19l-23 -94l-177 17l-64 -257h182l103 144h48l-81 -216h-487l13 51l91 22l30 123h-276l-131 -130l60 -15l-13 -51h-266zM327 260h228l74 296z" />
<glyph unicode="&#xc7;" horiz-adv-x="619" d="M46 239q0 87 29.5 170.5t82.5 150t133.5 107.5t173.5 41q54 0 103.5 -10t91.5 -30l-46 -185h-59l-6 149q-28 8 -60 8q-131 0 -220.5 -116t-89.5 -279q0 -88 36 -134t95 -46q42 0 73 9l115 152h58l-71 -184q-49 -29 -109 -41l-20 -42q35 -2 56.5 -19.5t21.5 -49.5 q0 -62 -51.5 -95.5t-117.5 -33.5q-36 0 -69 10l15 48q15 -3 37 -3q32 0 57.5 14t25.5 45q0 49 -59 49l36 70q-12 -1 -24 -1q-121 0 -179.5 68.5t-58.5 177.5z" />
<glyph unicode="&#xc8;" horiz-adv-x="591" d="M-35 0l11 49l94 24l138 554l-80 23l12 50h485l-51 -205h-57l-7 133h-172l-58 -237l183 20l-24 -104l-176 18l-63 -253h165l109 144h58l-81 -216h-486zM275 828q14 32 37.5 60t48.5 36l158 -146l-24 -38z" />
<glyph unicode="&#xc9;" horiz-adv-x="591" d="M-35 0l11 49l94 24l138 554l-80 23l12 50h485l-51 -205h-57l-7 133h-172l-58 -237l183 20l-24 -104l-176 18l-63 -253h165l109 144h58l-81 -216h-486zM353 768l162 148q25 -8 48.5 -36t37.5 -60l-225 -90z" />
<glyph unicode="&#xca;" horiz-adv-x="591" d="M-35 0l11 49l94 24l138 554l-80 23l12 50h485l-51 -205h-57l-7 133h-172l-58 -237l183 20l-24 -104l-176 18l-63 -253h165l109 144h58l-81 -216h-486zM247 777l154 122h109l97 -122l-68 -24l-96 65l-128 -65z" />
<glyph unicode="&#xcb;" horiz-adv-x="591" d="M-35 0l11 49l94 24l138 554l-80 23l12 50h485l-51 -205h-57l-7 133h-172l-58 -237l183 20l-24 -104l-176 18l-63 -253h165l109 144h58l-81 -216h-486zM283 846q0 35 23 57.5t55 22.5q35 0 57.5 -22.5t22.5 -57.5q0 -32 -22.5 -55t-57.5 -23q-32 0 -55 23t-23 55zM493 846 q0 35 23 57.5t55 22.5q35 0 57.5 -22.5t22.5 -57.5q0 -32 -22.5 -55t-57.5 -23q-32 0 -55 23t-23 55z" />
<glyph unicode="&#xcc;" horiz-adv-x="379" d="M-35 0l13 51l92 22l137 554l-81 22l13 51h304l-13 -51l-93 -22l-137 -554l82 -22l-13 -51h-304zM132 828q14 32 37.5 60t48.5 36l158 -146l-24 -38z" />
<glyph unicode="&#xcd;" horiz-adv-x="379" d="M-35 0l13 51l92 22l137 554l-81 22l13 51h304l-13 -51l-93 -22l-137 -554l82 -22l-13 -51h-304zM210 768l162 148q25 -8 48.5 -36t37.5 -60l-225 -90z" />
<glyph unicode="&#xce;" horiz-adv-x="379" d="M-35 0l13 51l92 22l137 554l-81 22l13 51h304l-13 -51l-93 -22l-137 -554l82 -22l-13 -51h-304zM124 796l154 122h109l97 -122l-68 -24l-96 65l-128 -65z" />
<glyph unicode="&#xcf;" horiz-adv-x="379" d="M-35 0l13 51l92 22l137 554l-81 22l13 51h304l-13 -51l-93 -22l-137 -554l82 -22l-13 -51h-304zM140 846q0 35 23 57.5t55 22.5q35 0 57.5 -22.5t22.5 -57.5q0 -32 -22.5 -55t-57.5 -23q-32 0 -55 23t-23 55zM350 846q0 35 23 57.5t55 22.5q35 0 57.5 -22.5t22.5 -57.5 q0 -32 -22.5 -55t-57.5 -23q-32 0 -55 23t-23 55z" />
<glyph unicode="&#xd0;" horiz-adv-x="703" d="M-34 0l11 51l91 22l61 243h-80v71h98l61 240l-81 22l13 51h246q149 0 222.5 -64.5t73.5 -182.5q0 -107 -37 -194t-101.5 -143t-149 -86t-182.5 -30h-246zM199 72h26q131 0 227.5 108.5t96.5 276.5q0 84 -48 127.5t-132 43.5h-31l-61 -241h140v-71h-157z" />
<glyph unicode="&#xd1;" horiz-adv-x="720" d="M-35 0l12 51l92 22l138 553l-80 23l12 51h157l221 -469l98 396l-80 22l13 51h247l-12 -51l-94 -22l-155 -627h-47l-237 503l-107 -431l81 -21l-12 -51h-247zM265 829q25 28 69.5 57.5t85.5 29.5q40 0 75 -26.5t66 -26.5q42 0 103 43l29 -43q-17 -22 -63 -54t-90 -32 q-38 0 -77 26.5t-65 26.5q-43 0 -102 -43z" />
<glyph unicode="&#xd2;" d="M45 233q0 123 50.5 230.5t147.5 176t218 68.5q123 0 188 -65.5t65 -175.5q0 -122 -50 -229.5t-146.5 -176t-218.5 -68.5q-124 0 -189 65t-65 175zM182 223q0 -76 30.5 -121t94.5 -45q66 0 119.5 40t85.5 103.5t49 135.5t17 141q0 76 -31.5 121.5t-95.5 45.5 q-65 0 -118 -40.5t-85 -104.5t-49 -135.5t-17 -140.5zM307 828q14 32 37.5 60t48.5 36l158 -146l-24 -38z" />
<glyph unicode="&#xd3;" d="M45 233q0 123 50.5 230.5t147.5 176t218 68.5q123 0 188 -65.5t65 -175.5q0 -122 -50 -229.5t-146.5 -176t-218.5 -68.5q-124 0 -189 65t-65 175zM182 223q0 -76 30.5 -121t94.5 -45q66 0 119.5 40t85.5 103.5t49 135.5t17 141q0 76 -31.5 121.5t-95.5 45.5 q-65 0 -118 -40.5t-85 -104.5t-49 -135.5t-17 -140.5zM375 768l162 148q25 -8 48.5 -36t37.5 -60l-225 -90z" />
<glyph unicode="&#xd4;" d="M45 233q0 123 50.5 230.5t147.5 176t218 68.5q123 0 188 -65.5t65 -175.5q0 -122 -50 -229.5t-146.5 -176t-218.5 -68.5q-124 0 -189 65t-65 175zM182 223q0 -76 30.5 -121t94.5 -45q66 0 119.5 40t85.5 103.5t49 135.5t17 141q0 76 -31.5 121.5t-95.5 45.5 q-65 0 -118 -40.5t-85 -104.5t-49 -135.5t-17 -140.5zM309 796l154 122h109l97 -122l-68 -24l-96 65l-128 -65z" />
<glyph unicode="&#xd5;" d="M45 233q0 123 50.5 230.5t147.5 176t218 68.5q123 0 188 -65.5t65 -175.5q0 -122 -50 -229.5t-146.5 -176t-218.5 -68.5q-124 0 -189 65t-65 175zM182 223q0 -76 30.5 -121t94.5 -45q66 0 119.5 40t85.5 103.5t49 135.5t17 141q0 76 -31.5 121.5t-95.5 45.5 q-65 0 -118 -40.5t-85 -104.5t-49 -135.5t-17 -140.5zM285 838q25 28 69.5 57.5t85.5 29.5q40 0 75 -26.5t66 -26.5q42 0 103 43l29 -43q-17 -22 -63 -54t-90 -32q-38 0 -77 26.5t-65 26.5q-43 0 -102 -43z" />
<glyph unicode="&#xd6;" d="M45 233q0 123 50.5 230.5t147.5 176t218 68.5q123 0 188 -65.5t65 -175.5q0 -122 -50 -229.5t-146.5 -176t-218.5 -68.5q-124 0 -189 65t-65 175zM182 223q0 -76 30.5 -121t94.5 -45q66 0 119.5 40t85.5 103.5t49 135.5t17 141q0 76 -31.5 121.5t-95.5 45.5 q-65 0 -118 -40.5t-85 -104.5t-49 -135.5t-17 -140.5zM315 846q0 35 23 57.5t55 22.5q35 0 57.5 -22.5t22.5 -57.5q0 -32 -22.5 -55t-57.5 -23q-32 0 -55 23t-23 55zM525 846q0 35 23 57.5t55 22.5q35 0 57.5 -22.5t22.5 -57.5q0 -32 -22.5 -55t-57.5 -23q-32 0 -55 23 t-23 55z" />
<glyph unicode="&#xd7;" horiz-adv-x="602" d="M97 195l163 162l-163 163l57 57l163 -162l163 163l57 -57l-163 -164l163 -163l-57 -57l-163 163l-162 -162z" />
<glyph unicode="&#xd8;" d="M45 233q0 123 50.5 230.5t147.5 176t218 68.5q40 0 75 -7l20 38h84l-34 -64q24 -14 43 -33q65 -65 65 -175q0 -122 -50 -229.5t-146.5 -176t-218.5 -68.5q-26 0 -49 3l-19 -36h-84l29 55q-55 22 -93 75.5t-38 142.5zM182 223q0 -76 30 -121l5 -7l284 540q-22 9 -50 9 q-65 0 -118 -40.5t-85 -104.5t-49 -135.5t-17 -140.5zM283 59q11 -2 24 -2q66 0 119.5 40t85.5 103.5t49 135.5t17 141q0 62 -21 104z" />
<glyph unicode="&#xd9;" d="M85 169q0 41 15 100l88 358l-80 22l13 51h304l-13 -51l-93 -22l-90 -358q-13 -54 -13 -85q0 -47 32 -78t93 -31q75 0 129 52.5t76 141.5l89 358l-79 22l12 51h247l-13 -51l-93 -21l-89 -359q-68 -276 -316 -276q-105 0 -162 44t-57 132zM303 828q14 32 37.5 60t48.5 36 l158 -146l-24 -38z" />
<glyph unicode="&#xda;" d="M85 169q0 41 15 100l88 358l-80 22l13 51h304l-13 -51l-93 -22l-90 -358q-13 -54 -13 -85q0 -47 32 -78t93 -31q75 0 129 52.5t76 141.5l89 358l-79 22l12 51h247l-13 -51l-93 -21l-89 -359q-68 -276 -316 -276q-105 0 -162 44t-57 132zM431 768l162 148q25 -8 48.5 -36 t37.5 -60l-225 -90z" />
<glyph unicode="&#xdb;" d="M85 169q0 41 15 100l88 358l-80 22l13 51h304l-13 -51l-93 -22l-90 -358q-13 -54 -13 -85q0 -47 32 -78t93 -31q75 0 129 52.5t76 141.5l89 358l-79 22l12 51h247l-13 -51l-93 -21l-89 -359q-68 -276 -316 -276q-105 0 -162 44t-57 132zM305 796l154 122h109l97 -122 l-68 -24l-96 65l-128 -65z" />
<glyph unicode="&#xdc;" d="M85 169q0 41 15 100l88 358l-80 22l13 51h304l-13 -51l-93 -22l-90 -358q-13 -54 -13 -85q0 -47 32 -78t93 -31q75 0 129 52.5t76 141.5l89 358l-79 22l12 51h247l-13 -51l-93 -21l-89 -359q-68 -276 -316 -276q-105 0 -162 44t-57 132zM311 846q0 35 23 57.5t55 22.5 q35 0 57.5 -22.5t22.5 -57.5q0 -32 -22.5 -55t-57.5 -23q-32 0 -55 23t-23 55zM521 846q0 35 23 57.5t55 22.5q35 0 57.5 -22.5t22.5 -57.5q0 -32 -22.5 -55t-57.5 -23q-32 0 -55 23t-23 55z" />
<glyph unicode="&#xdd;" horiz-adv-x="627" d="M74 649l13 51h271l-12 -51l-61 -12l79 -229l175 222l-71 19l13 51h246l-14 -51l-83 -25l-238 -298l-63 -253l88 -22l-12 -51h-303l12 51l85 22l62 253l-106 301zM354 768l162 148q25 -8 48.5 -36t37.5 -60l-225 -90z" />
<glyph unicode="&#xde;" horiz-adv-x="583" d="M-36 0l12 46l92 22l140 564l-81 22l11 46h304l-11 -46l-93 -22l-19 -79h41q101 0 159.5 -40.5t58.5 -123.5q0 -117 -89 -179.5t-218 -62.5h-54l-19 -79l82 -22l-11 -46h-305zM235 217h32q79 0 128.5 45t49.5 129q0 94 -115 94h-29z" />
<glyph unicode="&#xdf;" horiz-adv-x="629" d="M0 -7l150 580q32 126 106.5 180t186.5 54q84 0 133 -35t49 -98q0 -43 -17.5 -70.5t-43.5 -46.5t-57 -33t-57 -29t-43.5 -35.5t-17.5 -51.5q0 -53 43.5 -90t91.5 -74q19 -17 35.5 -44t16.5 -64q0 -69 -54 -106t-153 -37q-189 0 -189 82q0 30 20 52.5t62 51.5 q44 -82 70 -108.5t61 -26.5q31 0 49.5 17.5t18.5 44.5t-14 50.5t-35 39.5l-46 35q-18 13 -35 27.5t-30.5 31.5t-21.5 38.5t-8 50.5q0 45 22 74t58 50l70 38q34 18 56.5 47.5t22.5 72.5q0 42 -18.5 67t-54.5 25q-24 0 -45.5 -9.5t-41 -33t-37.5 -63t-33 -99.5l-142 -548z" />
<glyph unicode="&#xe0;" horiz-adv-x="584" d="M17 137q0 158 96 264t235 106q98 0 180 -46l-99 -382h98v-42q-77 -21 -123.5 -32.5t-74.5 -11.5q-37 0 -37 33q0 16 6 38l5 19q-79 -90 -170 -90q-53 0 -84.5 37t-31.5 107zM150 147q0 -75 42 -75q34 0 72.5 35t66.5 84l68 257q-15 5 -44 5q-81 0 -143 -96t-62 -210z M199 746q50 43 114 50l79 -194l-57 -28z" />
<glyph unicode="&#xe1;" horiz-adv-x="584" d="M17 137q0 158 96 264t235 106q98 0 180 -46l-99 -382h98v-42q-77 -21 -123.5 -32.5t-74.5 -11.5q-37 0 -37 33q0 16 6 38l5 19q-79 -90 -170 -90q-53 0 -84.5 37t-31.5 107zM150 147q0 -75 42 -75q34 0 72.5 35t66.5 84l68 257q-15 5 -44 5q-81 0 -143 -96t-62 -210z M277 595l84 199q65 -7 114 -50l-141 -177z" />
<glyph unicode="&#xe2;" horiz-adv-x="584" d="M17 137q0 158 96 264t235 106q98 0 180 -46l-99 -382h98v-42q-77 -21 -123.5 -32.5t-74.5 -11.5q-37 0 -37 33q0 16 6 38l5 19q-79 -90 -170 -90q-53 0 -84.5 37t-31.5 107zM150 147q0 -75 42 -75q34 0 72.5 35t66.5 84l68 257q-15 5 -44 5q-81 0 -143 -96t-62 -210z M153 594l161 194h113l71 -194l-73 -24l-68 139l-135 -139z" />
<glyph unicode="&#xe3;" horiz-adv-x="584" d="M17 137q0 158 96 264t235 106q98 0 180 -46l-99 -382h98v-42q-77 -21 -123.5 -32.5t-74.5 -11.5q-37 0 -37 33q0 16 6 38l5 19q-79 -90 -170 -90q-53 0 -84.5 37t-31.5 107zM150 147q0 -75 42 -75q34 0 72.5 35t66.5 84l68 257q-15 5 -44 5q-81 0 -143 -96t-62 -210z M154 665q20 29 60.5 58.5t79.5 29.5q34 0 69 -27t63 -27q22 0 42.5 10t54.5 34l29 -37q-21 -28 -65 -57.5t-84 -29.5q-33 0 -71 26.5t-61 26.5q-19 0 -36 -9t-51 -34z" />
<glyph unicode="&#xe4;" horiz-adv-x="584" d="M17 137q0 158 96 264t235 106q98 0 180 -46l-99 -382h98v-42q-77 -21 -123.5 -32.5t-74.5 -11.5q-37 0 -37 33q0 16 6 38l5 19q-79 -90 -170 -90q-53 0 -84.5 37t-31.5 107zM150 147q0 -75 42 -75q34 0 72.5 35t66.5 84l68 257q-15 5 -44 5q-81 0 -143 -96t-62 -210z M167 680q0 35 23 57.5t55 22.5q35 0 57.5 -22.5t22.5 -57.5q0 -32 -22.5 -55t-57.5 -23q-32 0 -55 23t-23 55zM387 680q0 35 23 57.5t55 22.5q35 0 57.5 -22.5t22.5 -57.5q0 -32 -22.5 -55t-57.5 -23q-32 0 -55 23t-23 55z" />
<glyph unicode="&#xe5;" horiz-adv-x="584" d="M17 137q0 158 96 264t235 106q98 0 180 -46l-99 -382h98v-42q-77 -21 -123.5 -32.5t-74.5 -11.5q-37 0 -37 33q0 16 6 38l5 19q-79 -90 -170 -90q-53 0 -84.5 37t-31.5 107zM150 147q0 -75 42 -75q34 0 72.5 35t66.5 84l68 257q-15 5 -44 5q-81 0 -143 -96t-62 -210z M246 690q0 50 36 85t84 35q49 0 84.5 -35.5t35.5 -84.5q0 -50 -35.5 -85t-84.5 -35q-48 0 -84 35t-36 85zM314 690q0 -22 15 -36.5t37 -14.5t36.5 14.5t14.5 36.5t-14.5 36t-36.5 14q-23 0 -37.5 -14t-14.5 -36z" />
<glyph unicode="&#xe6;" horiz-adv-x="767" d="M4 109q0 86 83 128t225 42q24 67 24 107q0 74 -68 74q-81 0 -83 -139q-41 0 -78.5 21t-37.5 63q0 51 54.5 76.5t127.5 25.5q116 0 166 -65q22 19 49 33q59 32 129 32q81 0 121.5 -28t40.5 -78q0 -58 -47.5 -99t-118.5 -60t-161 -22q-2 -20 -2 -33q0 -64 20 -99.5 t75 -35.5q65 0 136 27l11 -36q-100 -50 -216 -50q-98 0 -137 62q-11 -8 -15 -11l-22 -14q-17 -11 -29 -15.5t-30.5 -10.5t-38.5 -8.5t-42 -2.5q-64 0 -100 31.5t-36 84.5zM141 120q0 -25 13.5 -41t40.5 -16q54 0 104 39q-6 27 -6 60q0 31 5 62q-72 -1 -114 -30 q-43 -29 -43 -74zM439 276q88 12 139.5 50.5t51.5 86.5q0 21 -11.5 33.5t-30.5 12.5q-48 0 -90.5 -48.5t-58.5 -134.5z" />
<glyph unicode="&#xe7;" horiz-adv-x="468" d="M17 170q0 79 38 157.5t111.5 129t168.5 50.5q60 0 97 -21.5t37 -59.5q0 -39 -32 -63t-79 -24q-4 21 -8 49.5t-7 42.5t-9 20t-19 6q-59 0 -110 -81t-51 -198q0 -124 100 -124q54 0 121 27l13 -39q-33 -17 -55 -26q-19 -7 -46 -14l-21 -43q35 -2 56.5 -19.5t21.5 -49.5 q0 -62 -51.5 -95.5t-117.5 -33.5q-36 0 -69 10l15 48q15 -3 37 -3q32 0 57.5 14t25.5 45q0 49 -59 49l36 69h-21q-84 0 -132 46t-48 131z" />
<glyph unicode="&#xe8;" horiz-adv-x="481" d="M16 162q0 64 21.5 124.5t61 110t102 80t137.5 30.5q67 0 101 -28.5t34 -71.5q0 -88 -97 -144q-86 -49 -226 -71v-20q0 -54 24 -86t71 -32q55 0 125 25l13 -38q-89 -48 -191 -48q-83 0 -129.5 43.5t-46.5 125.5zM154 246q192 72 192 171q0 40 -39 40q-51 0 -98 -69 q-42 -61 -55 -142zM169 746q50 43 114 50l79 -194l-57 -28z" />
<glyph unicode="&#xe9;" horiz-adv-x="481" d="M16 162q0 64 21.5 124.5t61 110t102 80t137.5 30.5q67 0 101 -28.5t34 -71.5q0 -88 -97 -144q-86 -49 -226 -71v-20q0 -54 24 -86t71 -32q55 0 125 25l13 -38q-89 -48 -191 -48q-83 0 -129.5 43.5t-46.5 125.5zM154 246q192 72 192 171q0 40 -39 40q-51 0 -98 -69 q-42 -61 -55 -142zM286 595l84 199q65 -7 114 -50l-141 -177z" />
<glyph unicode="&#xea;" horiz-adv-x="481" d="M16 162q0 64 21.5 124.5t61 110t102 80t137.5 30.5q67 0 101 -28.5t34 -71.5q0 -88 -97 -144q-86 -49 -226 -71v-20q0 -54 24 -86t71 -32q55 0 125 25l13 -38q-89 -48 -191 -48q-83 0 -129.5 43.5t-46.5 125.5zM103 594l161 194h113l71 -194l-73 -24l-68 139l-135 -139z M154 246q192 72 192 171q0 40 -39 40q-51 0 -98 -69q-42 -61 -55 -142z" />
<glyph unicode="&#xeb;" horiz-adv-x="481" d="M16 162q0 64 21.5 124.5t61 110t102 80t137.5 30.5q67 0 101 -28.5t34 -71.5q0 -88 -97 -144q-86 -49 -226 -71v-20q0 -54 24 -86t71 -32q55 0 125 25l13 -38q-89 -48 -191 -48q-83 0 -129.5 43.5t-46.5 125.5zM117 680q0 35 23 57.5t55 22.5q35 0 57.5 -22.5t22.5 -57.5 q0 -32 -22.5 -55t-57.5 -23q-32 0 -55 23t-23 55zM154 246q192 72 192 171q0 40 -39 40q-51 0 -98 -69q-42 -61 -55 -142zM337 680q0 35 23 57.5t55 22.5q35 0 57.5 -22.5t22.5 -57.5q0 -32 -22.5 -55t-57.5 -23q-32 0 -55 23t-23 55z" />
<glyph unicode="&#xec;" horiz-adv-x="332" d="M37 421v42q144 44 185 44q48 0 48 -35q0 -13 -10 -53l-85 -341h98v-41q-55 -17 -103 -30.5t-84 -13.5q-46 0 -46 39q0 10 9 48l86 341h-98zM52 746q50 43 114 50l79 -194l-57 -28z" />
<glyph unicode="&#xed;" horiz-adv-x="332" d="M37 421v42q144 44 185 44q48 0 48 -35q0 -13 -10 -53l-85 -341h98v-41q-55 -17 -103 -30.5t-84 -13.5q-46 0 -46 39q0 10 9 48l86 341h-98zM160 595l84 199q65 -7 114 -50l-141 -177z" />
<glyph unicode="&#xee;" horiz-adv-x="332" d="M17 594l161 194h113l71 -194l-73 -24l-68 139l-135 -139zM37 421v42q144 44 185 44q48 0 48 -35q0 -13 -10 -53l-85 -341h98v-41q-55 -17 -103 -30.5t-84 -13.5q-46 0 -46 39q0 10 9 48l86 341h-98z" />
<glyph unicode="&#xef;" horiz-adv-x="332" d="M1 680q0 35 23 57.5t55 22.5q35 0 57.5 -22.5t22.5 -57.5q0 -32 -22.5 -55t-57.5 -23q-32 0 -55 23t-23 55zM37 421v42q144 44 185 44q48 0 48 -35q0 -13 -10 -53l-85 -341h98v-41q-55 -17 -103 -30.5t-84 -13.5q-46 0 -46 39q0 10 9 48l86 341h-98zM221 680 q0 35 23 57.5t55 22.5q35 0 57.5 -22.5t22.5 -57.5q0 -32 -22.5 -55t-57.5 -23q-32 0 -55 23t-23 55z" />
<glyph unicode="&#xf0;" horiz-adv-x="587" d="M18 186q0 125 100 210.5t246 85.5q17 0 36 -2q-1 21 -2 34q-2 22 -9.5 45t-15.5 38l-129 -78v78l89 53q-55 49 -144 49l15 59q132 0 211 -57l114 70v-78l-65 -40q32 -39 49 -88q22 -62 22 -158q0 -55 -9 -109t-32 -110.5t-58 -98.5t-92.5 -69t-129.5 -27q-92 0 -144 52.5 t-52 140.5zM153 163q0 -120 71 -120q42 0 76.5 37t55.5 97t32 129q9 59 11 119h-16q-60 0 -106.5 -25t-72 -65t-38.5 -84t-13 -88z" />
<glyph unicode="&#xf1;" horiz-adv-x="606" d="M25 -7l107 428h-96v42q79 21 131.5 32.5t66.5 11.5q35 0 35 -30q0 -19 -5 -40l-12 -44q95 114 191 114q46 0 68.5 -26t22.5 -70q0 -51 -33 -164l-48 -167h98v-43q-81 -21 -133.5 -32.5t-68.5 -11.5q-35 0 -35 29q0 11 9 40l67 242q8 28 13.5 51t5.5 36q0 26 -21 26 q-28 0 -73 -35.5t-91 -96.5l-71 -285zM172 665q20 29 60.5 58.5t79.5 29.5q34 0 69 -27t63 -27q22 0 42.5 10t54.5 34l29 -37q-21 -28 -65 -57.5t-84 -29.5q-33 0 -71 26.5t-61 26.5q-19 0 -36 -9t-51 -34z" />
<glyph unicode="&#xf2;" horiz-adv-x="551" d="M18 176q0 61 23 120.5t64 106t98.5 75.5t126.5 29q84 0 132.5 -49.5t48.5 -134.5q0 -59 -21 -118t-61.5 -106t-98.5 -76.5t-133 -29.5q-179 0 -179 183zM153 158q0 -115 56 -115q41 0 72 30t51.5 75t31 97t10.5 96q0 116 -56 116q-28 0 -51 -15t-41 -39t-32 -55.5 t-23 -65t-13.5 -66t-4.5 -58.5zM177 746q50 43 114 50l79 -194l-57 -28z" />
<glyph unicode="&#xf3;" horiz-adv-x="551" d="M18 176q0 61 23 120.5t64 106t98.5 75.5t126.5 29q84 0 132.5 -49.5t48.5 -134.5q0 -59 -21 -118t-61.5 -106t-98.5 -76.5t-133 -29.5q-179 0 -179 183zM153 158q0 -115 56 -115q41 0 72 30t51.5 75t31 97t10.5 96q0 116 -56 116q-28 0 -51 -15t-41 -39t-32 -55.5 t-23 -65t-13.5 -66t-4.5 -58.5zM275 595l84 199q65 -7 114 -50l-141 -177z" />
<glyph unicode="&#xf4;" horiz-adv-x="551" d="M18 176q0 61 23 120.5t64 106t98.5 75.5t126.5 29q84 0 132.5 -49.5t48.5 -134.5q0 -59 -21 -118t-61.5 -106t-98.5 -76.5t-133 -29.5q-179 0 -179 183zM153 158q0 -115 56 -115q41 0 72 30t51.5 75t31 97t10.5 96q0 116 -56 116q-28 0 -51 -15t-41 -39t-32 -55.5 t-23 -65t-13.5 -66t-4.5 -58.5zM161 594l161 194h113l71 -194l-73 -24l-68 139l-135 -139z" />
<glyph unicode="&#xf5;" horiz-adv-x="551" d="M18 176q0 61 23 120.5t64 106t98.5 75.5t126.5 29q84 0 132.5 -49.5t48.5 -134.5q0 -59 -21 -118t-61.5 -106t-98.5 -76.5t-133 -29.5q-179 0 -179 183zM122 665q20 29 60.5 58.5t79.5 29.5q34 0 69 -27t63 -27q22 0 42.5 10t54.5 34l29 -37q-21 -28 -65 -57.5t-84 -29.5 q-33 0 -71 26.5t-61 26.5q-19 0 -36 -9t-51 -34zM153 158q0 -115 56 -115q41 0 72 30t51.5 75t31 97t10.5 96q0 116 -56 116q-28 0 -51 -15t-41 -39t-32 -55.5t-23 -65t-13.5 -66t-4.5 -58.5z" />
<glyph unicode="&#xf6;" horiz-adv-x="551" d="M18 176q0 61 23 120.5t64 106t98.5 75.5t126.5 29q84 0 132.5 -49.5t48.5 -134.5q0 -59 -21 -118t-61.5 -106t-98.5 -76.5t-133 -29.5q-179 0 -179 183zM145 680q0 35 23 57.5t55 22.5q35 0 57.5 -22.5t22.5 -57.5q0 -32 -22.5 -55t-57.5 -23q-32 0 -55 23t-23 55z M153 158q0 -115 56 -115q41 0 72 30t51.5 75t31 97t10.5 96q0 116 -56 116q-28 0 -51 -15t-41 -39t-32 -55.5t-23 -65t-13.5 -66t-4.5 -58.5zM365 680q0 35 23 57.5t55 22.5q35 0 57.5 -22.5t22.5 -57.5q0 -32 -22.5 -55t-57.5 -23q-32 0 -55 23t-23 55z" />
<glyph unicode="&#xf7;" horiz-adv-x="554" d="M69 316v82h449v-82h-449zM207 167q0 37 26 61.5t59 24.5q37 0 61.5 -25.5t24.5 -60.5q0 -33 -25 -59t-61 -26q-34 0 -59.5 26.5t-25.5 58.5zM207 551q0 37 26 61.5t59 24.5q37 0 61.5 -25.5t24.5 -60.5q0 -33 -25 -59t-61 -26q-34 0 -59.5 26.5t-25.5 58.5z" />
<glyph unicode="&#xf8;" horiz-adv-x="551" d="M18 176q0 83 39 158.5t112 124t161 48.5q16 0 31 -2l35 64h76l-46 -85q20 -11 36 -27q49 -50 49 -134t-37.5 -158.5t-110.5 -123t-166 -48.5q-21 0 -39 3l-36 -67h-77l47 87q-74 42 -74 160zM153 158q0 -16 1 -30l179 326q-7 3 -15 3q-51 0 -90.5 -53t-57 -120 t-17.5 -126zM187 48q10 -5 22 -5q39 0 72 30t52.5 75.5t30 96t10.5 96.5q0 25 -3 44z" />
<glyph unicode="&#xf9;" horiz-adv-x="607" d="M33 420v43q81 21 133.5 32.5t67.5 11.5q36 0 36 -30q0 -9 -9 -40l-67 -242q-8 -29 -13.5 -51.5t-5.5 -36.5q0 -25 21 -25q28 0 73 35.5t90 95.5l72 287l128 7l-107 -429h97v-41q-80 -21 -131.5 -32.5t-67.5 -11.5q-35 0 -35 29q0 19 6 40l12 45q-96 -114 -192 -114 q-91 0 -91 95q0 66 81 332h-98zM215 746q50 43 114 50l79 -194l-57 -28z" />
<glyph unicode="&#xfa;" horiz-adv-x="607" d="M33 420v43q81 21 133.5 32.5t67.5 11.5q36 0 36 -30q0 -9 -9 -40l-67 -242q-8 -29 -13.5 -51.5t-5.5 -36.5q0 -25 21 -25q28 0 73 35.5t90 95.5l72 287l128 7l-107 -429h97v-41q-80 -21 -131.5 -32.5t-67.5 -11.5q-35 0 -35 29q0 19 6 40l12 45q-96 -114 -192 -114 q-91 0 -91 95q0 66 81 332h-98zM312 595l84 199q65 -7 114 -50l-141 -177z" />
<glyph unicode="&#xfb;" horiz-adv-x="607" d="M33 420v43q81 21 133.5 32.5t67.5 11.5q36 0 36 -30q0 -9 -9 -40l-67 -242q-8 -29 -13.5 -51.5t-5.5 -36.5q0 -25 21 -25q28 0 73 35.5t90 95.5l72 287l128 7l-107 -429h97v-41q-80 -21 -131.5 -32.5t-67.5 -11.5q-35 0 -35 29q0 19 6 40l12 45q-96 -114 -192 -114 q-91 0 -91 95q0 66 81 332h-98zM199 594l161 194h113l71 -194l-73 -24l-68 139l-135 -139z" />
<glyph unicode="&#xfc;" horiz-adv-x="607" d="M33 420v43q81 21 133.5 32.5t67.5 11.5q36 0 36 -30q0 -9 -9 -40l-67 -242q-8 -29 -13.5 -51.5t-5.5 -36.5q0 -25 21 -25q28 0 73 35.5t90 95.5l72 287l128 7l-107 -429h97v-41q-80 -21 -131.5 -32.5t-67.5 -11.5q-35 0 -35 29q0 19 6 40l12 45q-96 -114 -192 -114 q-91 0 -91 95q0 66 81 332h-98zM152 680q0 35 23 57.5t55 22.5q35 0 57.5 -22.5t22.5 -57.5q0 -32 -22.5 -55t-57.5 -23q-32 0 -55 23t-23 55zM372 680q0 35 23 57.5t55 22.5q35 0 57.5 -22.5t22.5 -57.5q0 -32 -22.5 -55t-57.5 -23q-32 0 -55 23t-23 55z" />
<glyph unicode="&#xfd;" horiz-adv-x="551" d="M-1 -240q0 32 27.5 65t88.5 88q44 40 76 74l-78 434h-101v42q40 13 94 28.5t72 15.5q43 0 51 -40l65 -361q135 178 135 264q0 17 -11 33.5t-23 26.5t-34 26q43 51 103 51q31 0 52 -20t21 -55q0 -121 -221 -388l-136 -157q-18 -19 -32.5 -37.5t-18.5 -28.5t-4 -23 q0 -23 33 -59q-35 -39 -93 -39q-29 0 -47.5 16t-18.5 44zM277 595l84 199q65 -7 114 -50l-141 -177z" />
<glyph unicode="&#xfe;" horiz-adv-x="561" d="M-65 -276l226 899h-98v41q79 21 131.5 32.5t66.5 11.5q36 0 36 -30q0 -14 -6 -40l-53 -222q79 91 174 91q48 0 80 -35.5t32 -108.5q0 -159 -96.5 -264.5t-234.5 -105.5q-36 0 -62 7l-67 -261zM144 51q24 -4 39 -4q60 0 110 51.5t74.5 118t24.5 124.5q0 87 -43 87 q-64 0 -138 -118z" />
<glyph unicode="&#xff;" horiz-adv-x="551" d="M-1 -240q0 32 27.5 65t88.5 88q44 40 76 74l-78 434h-101v42q40 13 94 28.5t72 15.5q43 0 51 -40l65 -361q135 178 135 264q0 17 -11 33.5t-23 26.5t-34 26q43 51 103 51q31 0 52 -20t21 -55q0 -121 -221 -388l-136 -157q-18 -19 -32.5 -37.5t-18.5 -28.5t-4 -23 q0 -23 33 -59q-35 -39 -93 -39q-29 0 -47.5 16t-18.5 44zM127 680q0 35 23 57.5t55 22.5q35 0 57.5 -22.5t22.5 -57.5q0 -32 -22.5 -55t-57.5 -23q-32 0 -55 23t-23 55zM347 680q0 35 23 57.5t55 22.5q35 0 57.5 -22.5t22.5 -57.5q0 -32 -22.5 -55t-57.5 -23q-32 0 -55 23 t-23 55z" />
<glyph unicode="&#x152;" horiz-adv-x="1017" d="M45 233q0 121 51 228.5t149.5 177t221.5 69.5q86 0 134 -45q21 -20 35 -43l21 80h394l-51 -205h-48l-6 133h-185l-61 -241l188 19l-22 -94l-180 17l-66 -257h188l102 144h48l-81 -216h-394l20 80q-86 -87 -214 -87q-244 0 -244 240zM181 213q0 -72 30.5 -114t90.5 -42 q56 0 104.5 31.5t79.5 80t53.5 107.5t32.5 113t10 98q0 73 -33 115t-92 42q-63 0 -117 -43.5t-87.5 -109.5t-52.5 -139.5t-19 -138.5z" />
<glyph unicode="&#x153;" horiz-adv-x="835" d="M18 176q0 136 89.5 233.5t223.5 97.5q57 0 95 -23t58 -59q31 29 72 50q62 32 132 32q140 0 140 -100q0 -45 -29 -81.5t-81 -62t-102.5 -40.5t-114.5 -29q-1 -7 -1 -22q0 -70 21 -95t72 -25q61 0 132 27l11 -36q-91 -50 -194 -50q-114 0 -152 74q-22 -22 -74 -48t-118 -26 q-89 0 -134.5 47t-45.5 136zM154 158q-1 -115 59 -115q46 0 85 52.5t58.5 120t19.5 125.5q0 116 -59 116q-40 0 -72.5 -31t-51.5 -78t-29 -97t-10 -93zM506 243q76 26 133.5 73.5t57.5 105.5q0 37 -33 37q-55 0 -98 -61.5t-60 -154.5z" />
<glyph unicode="&#x2c6;" horiz-adv-x="350" d="M-7 594l161 194h113l71 -194l-73 -24l-68 139l-135 -139z" />
<glyph unicode="&#x2dc;" horiz-adv-x="439" d="M28 665q20 29 60.5 58.5t79.5 29.5q34 0 69 -27t63 -27q22 0 42.5 10t54.5 34l29 -37q-21 -28 -65 -57.5t-84 -29.5q-33 0 -71 26.5t-61 26.5q-19 0 -36 -9t-51 -34z" />
<glyph unicode="&#x2000;" horiz-adv-x="463" />
<glyph unicode="&#x2001;" horiz-adv-x="926" />
<glyph unicode="&#x2002;" horiz-adv-x="463" />
<glyph unicode="&#x2003;" horiz-adv-x="926" />
<glyph unicode="&#x2004;" horiz-adv-x="308" />
<glyph unicode="&#x2005;" horiz-adv-x="231" />
<glyph unicode="&#x2006;" horiz-adv-x="154" />
<glyph unicode="&#x2007;" horiz-adv-x="154" />
<glyph unicode="&#x2008;" horiz-adv-x="115" />
<glyph unicode="&#x2009;" horiz-adv-x="185" />
<glyph unicode="&#x200a;" horiz-adv-x="51" />
<glyph unicode="&#x2010;" horiz-adv-x="358" d="M64 228v91h218v-91h-218z" />
<glyph unicode="&#x2011;" horiz-adv-x="358" d="M64 228v91h218v-91h-218z" />
<glyph unicode="&#x2012;" horiz-adv-x="358" d="M64 228v91h218v-91h-218z" />
<glyph unicode="&#x2013;" horiz-adv-x="616" d="M53 231v84h510v-84h-510z" />
<glyph unicode="&#x2014;" horiz-adv-x="1116" d="M53 231v83h1010v-83h-1010z" />
<glyph unicode="&#x2018;" horiz-adv-x="262" d="M88 484q0 74 64.5 144t133.5 106l33 -42q-83 -68 -117 -150l57 -58q0 -35 -25.5 -60t-60.5 -25q-36 0 -60.5 24.5t-24.5 60.5z" />
<glyph unicode="&#x2019;" horiz-adv-x="257" d="M76 441q83 68 117 150l-57 58q0 35 25.5 60t60.5 25q36 0 60.5 -24.5t24.5 -60.5q0 -74 -64.5 -144t-133.5 -106z" />
<glyph unicode="&#x201a;" horiz-adv-x="258" d="M-68 -129q83 68 117 150l-57 58q0 35 25.5 60t60.5 25q36 0 60.5 -24.5t24.5 -60.5q0 -74 -64.5 -144t-133.5 -106z" />
<glyph unicode="&#x201c;" horiz-adv-x="469" d="M88 484q0 74 64.5 144t133.5 106l33 -42q-83 -68 -117 -150l57 -58q0 -35 -25.5 -60t-60.5 -25q-36 0 -60.5 24.5t-24.5 60.5zM296 484q0 74 64.5 144t133.5 106l33 -42q-83 -68 -117 -150l57 -58q0 -35 -25.5 -60t-60.5 -25q-36 0 -60.5 24.5t-24.5 60.5z" />
<glyph unicode="&#x201d;" horiz-adv-x="465" d="M76 441q83 68 117 150l-57 58q0 35 25.5 60t60.5 25q36 0 60.5 -24.5t24.5 -60.5q0 -74 -64.5 -144t-133.5 -106zM284 441q83 68 117 150l-57 58q0 35 25.5 60t60.5 25q36 0 60.5 -24.5t24.5 -60.5q0 -74 -64.5 -144t-133.5 -106z" />
<glyph unicode="&#x201e;" horiz-adv-x="465" d="M-72 -155q83 68 117 150l-57 58q0 35 25.5 60t60.5 25q36 0 60.5 -24.5t24.5 -60.5q0 -74 -64.5 -144t-133.5 -106zM136 -155q83 68 117 150l-57 58q0 35 25.5 60t60.5 25q36 0 60.5 -24.5t24.5 -60.5q0 -74 -64.5 -144t-133.5 -106z" />
<glyph unicode="&#x2022;" horiz-adv-x="455" d="M72 356q0 73 51 121t116 48q73 0 121 -50t48 -119q0 -65 -48.5 -116t-120.5 -51q-66 0 -116.5 52t-50.5 115z" />
<glyph unicode="&#x202f;" horiz-adv-x="185" />
<glyph unicode="&#x2039;" horiz-adv-x="318" d="M35 254l9 32l188 174h71l-143 -190l48 -190h-71z" />
<glyph unicode="&#x203a;" horiz-adv-x="318" d="M3 80l144 190l-48 190h71l101 -174l-8 -32l-188 -174h-72z" />
<glyph unicode="&#x205f;" horiz-adv-x="231" />
<glyph unicode="&#x20ac;" horiz-adv-x="681" d="M34 238l15 53l49 3q4 43 17 86h-46l14 52l51 3q28 68 78 130t129.5 102.5t172.5 40.5q54 0 102.5 -10t70.5 -20l22 -10l-46 -185h-59l-6 149q-28 8 -60 8q-101 0 -172 -65.5t-98 -131.5l250 15l-30 -78h-242q-11 -38 -16 -79l236 14l-30 -77h-208q1 -83 36 -127 q36 -46 95 -46q41 0 73 9l115 152h58l-71 -184q-85 -49 -201 -49q-121 0 -180 68q-58 68 -58 177h-61z" />
<glyph unicode="&#x25fc;" horiz-adv-x="505" d="M0 0v505h505v-505h-505z" />
</font>
</defs>
</svg>
