<?xml version="1.0" standalone="no"?>
<!DOCTYPE svg PUBLIC "-//W3C//DTD SVG 1.1//EN" "http://www.w3.org/Graphics/SVG/1.1/DTD/svg11.dtd" >
<svg xmlns="http://www.w3.org/2000/svg">
<metadata></metadata>
<defs>
<font id="minotaurphatte" horiz-adv-x="367" >
<font-face units-per-em="1000" ascent="800" descent="-200" />
<missing-glyph horiz-adv-x="400" />
<glyph unicode="&#xd;" horiz-adv-x="1000" />
<glyph unicode=" "  horiz-adv-x="400" />
<glyph unicode="&#x09;" horiz-adv-x="400" />
<glyph unicode="&#xa0;" horiz-adv-x="400" />
<glyph unicode="&#x22;" horiz-adv-x="441" d="M205 510l-29 -52h-93l27 52h-89v190h184v-190zM422 511l-26 -53h-97l24 53h-90v189h189v-189z" />
<glyph unicode="$" horiz-adv-x="451" d="M268 700v-59h135l26 -197h-155q52 -13 91.5 -51.5t53.5 -92.5q7 -27 5.5 -55t-10.5 -54t-24 -49t-34 -39q-20 -17 -42.5 -27.5t-47.5 -15.5v-60h-87v56h-126l-28 198h149q-32 10 -62 29t-50 49q-15 18 -24 41.5t-11.5 49t1 50.5t13.5 48q18 44 55 74t82 41v64h90z" />
<glyph unicode="&#x26;" horiz-adv-x="550" d="M350 700l24 -199h-148l97 -136v83h198v-448h-320q-56 0 -99 34t-65 84q-11 24 -14 51.5t1 54t14 51t27 43.5q8 8 14.5 16t16.5 14q-27 23 -46 54.5t-25 68.5q-5 30 -1 59t16 54.5t31 47t44 36.5q18 13 38 19.5t41.5 9t44 3t43.5 0.5h68zM322 195v151l-101 -150z" />
<glyph unicode="'" horiz-adv-x="230" d="M207 698v-189l-25 -54h-96l24 53h-89v190h186z" />
<glyph unicode="(" horiz-adv-x="232" d="M214 700q-29 -42 -47.5 -91t-28.5 -101.5t-12.5 -108t-0.5 -110.5q3 -39 9.5 -78t17.5 -76t27 -71.5t40 -63.5h-102q-27 35 -44 75t-27.5 83t-15.5 88.5t-7 90.5q0 96 17.5 187.5t67.5 169.5l5 6h101z" />
<glyph unicode=")" horiz-adv-x="240" d="M25 0q29 42 47.5 91t28.5 101.5t12.5 108t0.5 110.5q-3 39 -9.5 78t-17.5 76t-27 71.5t-40 63.5h102q27 -35 44 -75t27.5 -83t15.5 -88.5t7 -90.5q0 -96 -18 -187.5t-67 -169.5l-5 -6h-101z" />
<glyph unicode="," horiz-adv-x="240" d="M212 190l1 -189l-25 -54h-96l24 53h-89v190h185z" />
<glyph unicode="-" d="M331 446v-189h-302v189h302z" />
<glyph unicode="." horiz-adv-x="238" d="M212 0h-189v189h189v-189z" />
<glyph unicode="/" horiz-adv-x="347" d="M334 701l-202 -701h-116l205 701h113v0z" />
<glyph unicode="0" horiz-adv-x="566" d="M381 696q63 -16 104.5 -59.5t50.5 -109.5l1 -51v-249q4 -53 -15 -101.5t-58 -79.5q-20 -18 -44 -27.5t-50.5 -13.5t-53.5 -4.5t-51 0.5q-42 -3 -87.5 5t-77.5 37q-35 28 -55 69.5t-19 91.5l1 317q5 57 40.5 100.5t85.5 63.5q20 8 42.5 11t46 3.5t46.5 -0.5t44 1zM335 502 h-111v-309h111v309z" />
<glyph unicode="1" horiz-adv-x="269" d="M235 0h-200v583l200 117v-700z" />
<glyph unicode="2" horiz-adv-x="454" d="M253 699q27 -2 52 -13t46.5 -28.5t38 -39.5t25.5 -46q9 -23 10.5 -47.5t-2.5 -48.5t-12 -47t-17 -43l-74 -189h105l-24 -197h-374l199 500h-199l28 199h198z" />
<glyph unicode="3" horiz-adv-x="433" d="M307 671q49 -29 75.5 -78.5t21.5 -110.5q-3 -40 -22 -73.5t-48 -58.5q37 -33 57 -81.5t11 -103.5q-10 -54 -46 -95t-87 -58q-26 -8 -51.5 -10t-51.5 -2t-53 1t-54 0l-24 195h166l-107 150l109 154h-172l28 200q30 -4 62.5 -2.5t64.5 1.5t63 -5.5t58 -22.5z" />
<glyph unicode="4" horiz-adv-x="507" d="M437 700l-122 -310h153v-390h-193l-1 192h-253l202 508h214v0z" />
<glyph unicode="5" horiz-adv-x="429" d="M404 499h-147q31 -57 66.5 -112t63.5 -114q10 -24 13 -51t-0.5 -53t-14 -50t-26.5 -43q-30 -38 -75 -58t-99 -16l-128 -2l-26 199h181l-181 302v199h348z" />
<glyph unicode="6" horiz-adv-x="566" d="M384 700h-206l-139 -429q-18 -41 -14 -91t29 -87q32 -50 85.5 -71.5t116.5 -19.5q20 0 41 -0.5t42 0t41 3.5t38 11q54 22 86.5 66.5t35.5 104.5q1 28 -4.5 53.5t-13.5 51t-17 50.5t-15 51l-204 1zM346 197h-122l60 193z" />
<glyph unicode="7" horiz-adv-x="497" d="M474 700l-240 -700h-211l174 501h-174l27 199h424v0z" />
<glyph unicode="8" horiz-adv-x="575" d="M539 581q10 -21 13.5 -45.5t1.5 -49.5t-10 -48.5t-21 -42.5q-10 -12 -19 -23t-22 -21q38 -31 58.5 -77.5t15.5 -97.5q-6 -53 -38 -95.5t-82 -63.5q-29 -13 -61.5 -15t-65.5 -1q-30 -1 -61 -0.5t-60.5 5.5t-55.5 16.5t-46 32.5q-20 18 -34.5 43t-21.5 53t-6 57.5t12 56.5 q10 23 24.5 45t33.5 38q-21 18 -37.5 42t-25.5 51t-9.5 57t9.5 60q9 29 26 54.5t40 45t51 31t59 11.5q54 0 106 1t103 -10q42 -10 73.5 -39.5t49.5 -70.5zM363 500h-139l68 -152l-67 -149h135l-67 151z" />
<glyph unicode="9" horiz-adv-x="558" d="M179 0h206l139 430q18 41 14 91t-29 87q-32 50 -85.5 71.5t-116.5 19.5q-20 0 -41 0.5t-42 0t-41 -3.5t-38 -11q-58 -20 -89 -65.5t-34 -105.5q-1 -28 4.5 -53.5t14 -51t17.5 -50.5t15 -51l204 -1zM217 504h122l-60 -193z" />
<glyph unicode=":" horiz-adv-x="250" d="M221 254h-194v194h194v-194zM221 194v-194h-194v194h194z" />
<glyph unicode=";" horiz-adv-x="261" d="M232 449v-196h-205v196h205v0zM232 197v-196l-29 -55h-101l26 54h-101v197h205v0z" />
<glyph unicode="?" horiz-adv-x="413" d="M365 600q13 -21 20 -48.5t6 -56t-9.5 -56t-24.5 -48.5q-7 -9 -16 -18.5t-17 -17.5v-3l-1 1l-72 -71v-30h-200v108l142 140v3h-170l26 197q25 -1 51.5 0.5t52.5 1.5q27 0 53 -2.5t51 -10.5q33 -11 62 -34.5t46 -54.5zM252 197v-197h-201v197h201z" />
<glyph unicode="A" horiz-adv-x="700" d="M683 0h-220l-108 229v0l-112 -229h-220l332 700z" />
<glyph unicode="B" horiz-adv-x="599" d="M391 700l18 -2q9 -1 21 -5t23 -8q7 -3 13.5 -6t12.5 -7q8 -5 15 -10t14 -11q65 -55 67 -146q0 -46 -19.5 -86.5t-54.5 -68.5v-2q11 -8 21.5 -20t18.5 -24q23 -33 29.5 -76t-4.5 -83q-2 -10 -6 -18.5t-8 -18.5q-5 -6 -6 -10q-11 -19 -26.5 -34.5t-32.5 -29.5 q-20 -13 -41 -21q-1 0 -2 -0.5t-2 -0.5q-15 -7 -38 -10q-7 -1 -13.5 -1.5t-13.5 -0.5h-27h-326v700h333h34zM380 504h-156l-1 -155v-149h149l-149 149z" />
<glyph unicode="C" horiz-adv-x="675" d="M638 587q10 -11 18 -21l-156 -120q-8 9 -16.5 17t-19.5 15q-2 2 -5 3t-5 4q-5 1 -8.5 3.5t-8.5 3.5q-22 11 -49 12.5t-51 -5.5q-19 -4 -35 -13t-32 -22q-4 -5 -9.5 -10t-9.5 -11q-16 -21 -24.5 -46t-7.5 -52v-7q0 -5 1 -6q-1 -1 0 -1.5t1 -1.5q0 -10 5 -25q7 -25 29 -53 q26 -29 61 -44q15 -7 32 -9.5t35 -2.5q16 2 32 5t30 11q19 10 38 26q1 2 2 2.5t2 2.5q8 8 10 11l157 -120q-48 -60 -114 -93.5t-142 -38.5q-91 -3 -167 29.5t-133 101.5q-31 40 -50.5 84t-25.5 95q-9 94 26 173.5t105 136.5q63 51 141 69.5t160 1.5q54 -12 100 -37.5 t84 -67.5z" />
<glyph unicode="D" horiz-adv-x="615" d="M208 700h-184v-700h196q51 0 99 9t91 31q37 19 69 46.5t56 61t40 72t22 79.5q9 63 -4 122t-43 110q-45 70 -116 113.5t-152 53.5zM298 497q12 -5 23.5 -11t22.5 -14q14 -11 24 -23.5t19 -26.5q2 -6 4.5 -11.5t4.5 -11.5q8 -27 8 -51q-1 -48 -28 -87q-12 -16 -27 -29 t-32 -21q-12 -7 -28 -11q-1 -1 -5 -1q-2 0 -4 -2q-8 -1 -16.5 -1.5t-16.5 -0.5h-10q-7 0 -10 1q-2 -2 -4 -0.5t-4 0.5v1v308q5 2 10 1t10 0q15 -1 30 -2.5t29 -6.5z" />
<glyph unicode="E" horiz-adv-x="534" d="M494 700l24 -200l-145 2l89 -149l-91 -157h147l-24 -196h-476l213 349v1l-213 350h476z" />
<glyph unicode="F" horiz-adv-x="542" d="M522 503h-149l154 -254h-213v-249h-201v449h57l-152 251h479z" />
<glyph unicode="G" horiz-adv-x="735" d="M476 684q41 -12 77 -34t68 -52l-139 -138l-4 4q-14 12 -30 21q-2 2 -3 2t-3 2q-30 16 -68 17t-70 -14q-42 -18 -67.5 -57t-25.5 -85q-1 -38 16.5 -71t48.5 -56q29 -22 66 -28.5t72 4.5l12 4t11 4q18 9 35 23q13 9 22 22l-1 1h-124v193h342l1 -3q16 -54 12.5 -112.5 t-24.5 -109.5q-12 -32 -31.5 -61t-44 -54t-53.5 -45t-60 -33q-30 -13 -64 -20t-69 -8t-69.5 4.5t-64.5 17.5q-37 13 -71 36t-62 52.5t-49 64.5t-32 72q-18 53 -15.5 113t22.5 111q18 49 50.5 90.5t76.5 72.5q48 33 103 50t117 15l14 -1q20 -4 39.5 -6.5t38.5 -7.5z" />
<glyph unicode="H" horiz-adv-x="644" d="M615 700h-198v-256h-191l-1 1v255h-199v-700h198v252h196v-252h195v700z" />
<glyph unicode="I" horiz-adv-x="244" d="M220 700h-196v-700h196v700z" />
<glyph unicode="J" horiz-adv-x="382" d="M353 700h-199v-501l-1 -1h-137l23 -198h116q26 1 49.5 6.5t43.5 15.5q45 24 74 68.5t31 98.5v511z" />
<glyph unicode="K" horiz-adv-x="597" d="M226 700h-200v-700h200l1 341l143 -341h209l-143 352l143 348h-209l-143 -345z" />
<glyph unicode="L" horiz-adv-x="443" d="M232 700v-500h198l-22 -200h-378v700h202z" />
<glyph unicode="M" horiz-adv-x="809" d="M791 0h-199l-59 203l-127 -200l-122 201l-59 -204h-205l200 695l186 -301l188 306z" />
<glyph unicode="N" horiz-adv-x="585" d="M560 700v-700l-342 279v0v-279h-196v700l335 -274v274h204h-1z" />
<glyph unicode="O" horiz-adv-x="755" d="M485 683q8 -2 14.5 -5t13.5 -5q48 -20 91 -54.5t72 -80.5q38 -60 50.5 -132.5t-7.5 -144.5q-9 -37 -27.5 -71.5t-43 -64t-55.5 -53t-65 -38.5q-59 -29 -128 -33q-110 -4 -198.5 45t-138.5 142q-17 30 -26.5 64.5t-12 71t2.5 72.5t17 69q20 60 64 111.5t101 80.5 q16 10 32 16q12 5 29 10q70 22 147 15q18 -2 35 -5.5t33 -9.5zM406 496l-16 2q-21 1 -42 -3q-5 0 -9.5 -2t-9.5 -2q-8 -4 -16.5 -7.5t-16.5 -9.5q-5 -1 -7 -4t-6 -5l-8 -6t-7 -8q-2 0 -2 -1l-2 -2q-1 -1 -2 -2.5t-3 -3.5q-2 -5 -5.5 -8.5t-5.5 -8.5q-2 -4 -4.5 -8t-4.5 -8 q-1 -5 -2.5 -9t-3.5 -9q-1 -5 -2.5 -9.5t-1.5 -10.5q-2 -1 -1 -1.5t1 -2.5q-3 -10 -1 -28v-3q4 -43 29 -75q3 -5 7 -9t7 -8q4 -4 8 -7q3 -3 4 -3q5 -5 8 -7t5 -3t4 -3q4 -2 7.5 -3.5t8.5 -3.5q5 -3 16 -7t19 -4q4 -2 6 -2q5 0 7 -1q3 1 6.5 0.5t6.5 0.5q22 0 42 6q4 2 6 2 q3 0 7 2q2 -2 2 0l2 2q3 0 5.5 2t6.5 3q5 5 11 8q3 2 6.5 4t6.5 4q4 6 8 7q3 4 6 7t6 7q7 8 12.5 16.5t10.5 19.5q3 6 4.5 12.5t3.5 12.5q9 42 -4 80q-6 24 -24 45q-15 21 -43 37q-12 8 -29 13q-5 2 -9 2.5t-8 2.5z" />
<glyph unicode="P" horiz-adv-x="575" d="M334 699q20 1 39 0t37 -6q24 -5 46.5 -17t41.5 -29t33.5 -38.5t21.5 -45.5q11 -32 9.5 -68t-14.5 -67q-3 -5 -5 -10.5t-5 -10.5t-7 -10.5l-12 -16.5t-22 -30.5t-37 -51.5h-239v-298h-197v699h310zM363 502h-141v-200z" />
<glyph unicode="Q" horiz-adv-x="753" d="M684 514q-24 48 -64.5 86.5t-88.5 62.5q-37 21 -82.5 30t-92 6.5t-91 -15.5t-79.5 -36q-41 -25 -74 -60.5t-55 -79t-32 -93.5t-4 -103q5 -50 24.5 -96t50.5 -83.5t70.5 -66t84.5 -44.5q35 -13 74 -17.5t78 -1t75.5 14.5t68.5 29l46 -47l142 138l-51 50q20 34 30 76.5 t10 86.5q0 45 -10 87t-30 76zM412 501q27 -7 49 -22.5t38 -35.5q15 -21 23 -47.5t7 -52.5l-34 33l-140 -138l37 -40q-46 -8 -87 12t-66 58q-12 16 -17.5 37.5t-6 43.5t5 43t16.5 38q22 36 61 57.5t87 17.5q4 1 12 -0.5t15 -3.5z" />
<glyph unicode="R" horiz-adv-x="605" d="M354 699q6 0 8 -1q5 2 10 0t10 -1q12 -1 23.5 -4t22.5 -7q13 -5 27 -12q41 -21 69 -60q25 -35 32 -78t-4 -85q-2 -5 -4 -10.5t-4 -10.5q-6 -17 -17 -33t-22 -30l-49 -69l131 -298h-232l-134 303l145 199h-151v-502h-192v699h331z" />
<glyph unicode="S" horiz-adv-x="412" d="M364 699l25 -196h-159q34 -53 67.5 -103.5t65.5 -101.5q15 -22 22 -49.5t6 -56t-9 -55.5t-24 -49q-25 -41 -68.5 -64t-92.5 -24h-148l-26 198h168q-34 52 -69 101t-72 102q-14 21 -20.5 47t-6.5 53q0 28 6.5 54t20.5 47q30 48 78 73.5t109 23.5h127z" />
<glyph unicode="T" horiz-adv-x="522" d="M472 699l26 -199h-137v-500h-200v500h-139l27 199h423v0z" />
<glyph unicode="U" horiz-adv-x="589" d="M227 196h135v504h200v-524q0 -29 -11.5 -55.5t-30 -48t-43.5 -37.5t-52 -25q-19 -7 -39.5 -8.5t-42.5 -1.5q-32 1 -65.5 0.5t-65 2t-60 12t-52.5 31.5q-30 24 -51 62t-21 83v509h199v-504z" />
<glyph unicode="V" horiz-adv-x="702" d="M21 700h220l108 -229l112 229h220l-332 -700z" />
<glyph unicode="W" horiz-adv-x="878" d="M226 196h113v504h196v-504h113v504h201v-409q0 -25 0.5 -50t-1.5 -49.5t-8 -48.5t-20 -47q-24 -41 -65.5 -65.5t-91.5 -28.5h-224t-222 -2q-64 3 -113 41.5t-67 97.5q-5 17 -6.5 35.5t-1.5 36.5v489h197v-504z" />
<glyph unicode="X" horiz-adv-x="640" d="M322 565l72 135h227l-186 -351l184 -349h-228l-69 131h-2l-70 -131h-229l185 350l-185 350h230z" />
<glyph unicode="Y" horiz-adv-x="630" d="M327 537l86 163h196l-200 -380v-320h-202v320l-189 380h225z" />
<glyph unicode="Z" horiz-adv-x="490" d="M467 700l-169 -502h170l-29 -198h-416l169 501l-169 1l25 198h419z" />
<glyph unicode="a" horiz-adv-x="530" d="M513 0h-165l-81 172l-84 -172h-165l249 525z" />
<glyph unicode="b" horiz-adv-x="452" d="M296 525h-25h-250v-525h244q11 0 21 -0.5t20 1.5q8 2 14.5 3.5t13.5 4.5q1 0 2 0.5l1 0.5q9 3 16 6.5t15 8.5q13 11 24.5 22.5t19.5 25.5q2 2 2.5 4t2.5 4q3 8 5.5 14t4.5 14q9 29 4 61.5t-22 57.5q-6 9 -14 18t-16 15v1q26 21 40.5 51.5t14.5 65.5q-2 67 -50 109 q-10 8 -22 16q-5 3 -9.5 5.5t-9.5 4.5q-8 2 -17 5.5t-16 3.5zM288 378l-118 -116l112 -112h-112v112l1 116h117z" />
<glyph unicode="c" horiz-adv-x="517" d="M483 440l7.5 -7.5t6.5 -8.5l-117 -90q-6 7 -12.5 13t-14.5 11q-2 2 -4 3t-4 3q-3 0 -6 2t-6 3q-17 8 -37 9t-38 -4q-26 -5 -51 -26q-2 -4 -6.5 -7.5t-7.5 -8.5q-25 -33 -24 -73q0 -7 1 -10q-1 -1 0 -1.5l1 -0.5q0 -12 3 -19q4 -11 9 -21t13 -19q19 -20 46 -33 q11 -5 23.5 -7t26.5 -2q12 2 24 4.5t23 7.5q15 8 28 20l3 3q6 6 8 9l117 -90q-36 -45 -85.5 -70.5t-106.5 -28.5q-68 -5 -125 21t-100 77q-23 30 -37.5 63t-19.5 71q-7 69 19.5 129.5t79.5 103.5q46 37 105 51.5t120 1.5q82 -19 138 -79z" />
<glyph unicode="d" horiz-adv-x="472" d="M160 525l55 -2q61 -7 115 -39.5t86 -85.5q23 -38 33 -82.5t3 -91.5q-9 -61 -46.5 -113.5t-94.5 -80.5q-32 -17 -68 -23.5t-74 -6.5h-147v525h138zM227 373q-11 4 -22 5t-22 1q-4 0 -7.5 0.5t-7.5 -0.5v-231v-1q2 1 3 -0.5t3 0.5q5 -1 15 -1q6 0 12.5 0.5t12.5 1.5 q1 2 3 1.5t4 0.5q5 2 10.5 3.5t10.5 4.5q13 6 24 16t20 22q19 27 21 65q0 20 -6 38q-2 5 -3.5 8.5t-3.5 8.5q-13 22 -32 38q-8 6 -17 10.5t-18 8.5z" />
<glyph unicode="e" horiz-adv-x="419" d="M377 525l18 -150l-109 1l67 -111l-68 -118h110l-18 -147h-357l160 262v0l-160 263h357z" />
<glyph unicode="f" horiz-adv-x="419" d="M396 377h-112l116 -190h-160v-187h-151v337h43l-114 188h359z" />
<glyph unicode="g" horiz-adv-x="573" d="M367 514q31 -9 58.5 -25.5t51.5 -39.5l-105 -104l-3 3q-11 9 -23 16q-1 1 -2 1t-2 2q-23 11 -51.5 12t-52.5 -10q-31 -14 -50 -43t-19 -64q-1 -28 12 -53t36 -42q22 -17 50 -21.5t54 3.5q5 2 9 3.5t8 2.5q13 7 26 17q9 8 17 17l-1 1h-93v144h257l1 -2q12 -41 9.5 -84.5 t-18.5 -81.5q-18 -48 -56 -86.5t-86 -58.5q-45 -20 -100 -21.5t-101 16.5q-28 10 -53.5 27.5t-46.5 39.5t-36.5 48t-23.5 54q-14 40 -12 85t17 83q14 38 38.5 69t56.5 54q36 25 77.5 38t87.5 11l11 -1q15 -3 29.5 -4.5t28.5 -5.5z" />
<glyph unicode="h" horiz-adv-x="492" d="M467 525v-525h-147v189h-147v-189h-148v525h149v-191l1 -1h143v192h149z" />
<glyph unicode="i" horiz-adv-x="189" d="M168 525v-525h-147v525h147z" />
<glyph unicode="j" horiz-adv-x="296" d="M271 525v-383q-2 -40 -23.5 -74t-55.5 -52q-30 -14 -70 -16h-87l-17 148h103v1v376h150z" />
<glyph unicode="k" horiz-adv-x="454" d="M172 525l1 -259l107 259h157l-108 -261l108 -264h-157l-107 256l-1 -256h-150v525h150z" />
<glyph unicode="l" horiz-adv-x="335" d="M172 525v-375h149l-17 -150h-283v525h151z" />
<glyph unicode="m" horiz-adv-x="618" d="M598 0h-149l-44 152l-96 -150l-91 151l-44 -153h-154l150 521l139 -226l141 230z" />
<glyph unicode="n" horiz-adv-x="453" d="M428 525v-525l-256 209v-209h-147v525l251 -206v206h153h-1z" />
<glyph unicode="o" horiz-adv-x="570" d="M366 512q5 -1 10.5 -3t10.5 -4q36 -15 68 -41t54 -61q29 -44 38 -98.5t-6 -108.5q-14 -56 -53 -102t-90 -69q-43 -21 -96 -24q-41 -3 -78.5 6t-70.5 27.5t-59.5 45.5t-44.5 61q-25 45 -29 101.5t15 106.5q14 45 47.5 83.5t76.5 60.5q6 3 11.5 6.5t12.5 5.5q11 6 21 7 q54 17 111 11q14 -2 26.5 -4t24.5 -7zM306 372l-12 1q-14 1 -31 -2q-4 0 -7.5 -1.5t-6.5 -1.5q-7 -3 -13.5 -5.5t-11.5 -7.5q-4 0 -5.5 -2t-4.5 -4t-6 -4.5t-5 -6.5q-1 0 -3 -2q-1 -2 -4 -5l-4 -6l-4 -6q-3 -6 -7 -12q-1 -4 -2 -7t-2 -7q-1 -3 -2 -6.5t-1 -8.5q-2 -1 -1 -1 t1 -2q-3 -9 -1 -21v-2q3 -32 22 -56q2 -4 5 -7t5 -6l3 -3t3 -2l3 -3q2 -2 3.5 -2.5t2.5 -2.5q2 -1 3.5 -1.5t3.5 -2.5q3 -2 5.5 -3t6.5 -3q3 0 5.5 -1.5t6.5 -2.5q10 -4 15 -4q2 -1 4 -1q3 0 5 -1q2 1 5 0.5t5 0.5q8 0 15.5 1t15.5 3q2 2 5 2t5 1l3 2q2 0 4 1.5t5 1.5 q3 4 8 6q2 2 5 3t5 3q1 4 6 6q6 6 9 10q11 13 17 27q2 5 3 9.5t3 9.5q8 29 -3 60q-2 9 -7 17.5t-11 16.5q-13 18 -32 27q-12 7 -22 10q-3 2 -7 2q-3 0 -6 2z" />
<glyph unicode="p" horiz-adv-x="449" d="M257 525q15 1 29 0t28 -5q36 -8 66.5 -34.5t41.5 -63.5q8 -24 7 -51t-11 -50l-4 -8l-4 -8l-5 -7.5t-9 -13t-16.5 -23t-27.5 -38.5h-179v-223h-148v525h232zM279 376h-106v-150z" />
<glyph unicode="q" horiz-adv-x="577" d="M517 385q-18 36 -49 65t-66 47q-28 15 -62 22t-69 5.5t-68.5 -11.5t-59.5 -27q-30 -19 -55 -45.5t-42 -59.5t-24.5 -70t-2.5 -77q4 -38 18.5 -72t38 -62.5t53 -50t63.5 -33.5q53 -19 113.5 -13.5t108.5 32.5l34 -35l107 103l-38 38q15 25 22.5 57t7.5 65t-7.5 65 t-22.5 57zM313 376q20 -5 36.5 -17t28.5 -27q11 -16 17 -35.5t5 -39.5l-25 25l-105 -104l28 -30q-35 -5 -65.5 9.5t-49.5 43.5q-17 25 -17.5 60.5t15.5 60.5q17 27 46 43t65 14q3 0 9.5 -1t11.5 -2z" />
<glyph unicode="r" horiz-adv-x="464" d="M269 525q5 0 6 -1q4 2 8 0.5t8 -1.5q9 0 17.5 -2.5t16.5 -5.5q10 -3 21 -9q31 -15 51 -45q19 -26 24.5 -58t-3.5 -64q-2 -4 -3 -8t-3 -8q-5 -13 -13 -24.5t-16 -22.5l-37 -53l99 -223h-175l-101 227l109 150h-113v-377h-144v525h248z" />
<glyph unicode="s" horiz-adv-x="314" d="M274 525l18 -147h-119q26 -40 51 -78.5t49 -76.5q11 -17 16 -37.5t4.5 -41.5t-6.5 -41.5t-18 -36.5q-19 -31 -51.5 -48t-69.5 -18h-111l-19 148h126q-26 39 -52 76t-54 77q-20 32 -20 75q0 44 20 76q23 35 59 54.5t81 18.5h96z" />
<glyph unicode="t" horiz-adv-x="396" d="M358 525l20 -149h-104v-376h-150v376h-104l20 149h318z" />
<glyph unicode="u" horiz-adv-x="451" d="M174 147h101v378h150v-393q0 -22 -8.5 -42t-22.5 -36t-32.5 -28t-38.5 -19q-14 -5 -29.5 -6t-32.5 -1q-24 1 -49 0.5t-48.5 1.5t-45 8.5t-39.5 23.5q-23 18 -38.5 47t-15.5 62v382h149v-378z" />
<glyph unicode="v" horiz-adv-x="536" d="M20 525h165l81 -172l84 172h165l-249 -525z" />
<glyph unicode="w" horiz-adv-x="679" d="M179 147h84v378h147v-378h85v378h151v-307q0 -38 -0.5 -74.5t-21.5 -71.5q-18 -31 -49 -49.5t-69 -21.5h-168t-166 -1q-48 2 -84.5 31t-50.5 73q-4 13 -5 26.5t-1 27.5v367h148v-378z" />
<glyph unicode="x" horiz-adv-x="501" d="M251 424l54 101h170l-140 -263l138 -262h-171l-51 98h-2l-52 -98h-172l139 262l-139 263h172z" />
<glyph unicode="y" horiz-adv-x="490" d="M255 403l64 122h147l-150 -285v-240h-151v240l-142 285h169z" />
<glyph unicode="z" horiz-adv-x="378" d="M353 525l-127 -377h128l-22 -148h-312l127 376h-127l19 149h314z" />
<glyph unicode="&#xad;" d="M331 446v-189h-302v189h302z" />
<glyph unicode="&#x2000;" horiz-adv-x="351" />
<glyph unicode="&#x2001;" horiz-adv-x="702" />
<glyph unicode="&#x2002;" horiz-adv-x="351" />
<glyph unicode="&#x2003;" horiz-adv-x="702" />
<glyph unicode="&#x2004;" horiz-adv-x="234" />
<glyph unicode="&#x2005;" horiz-adv-x="175" />
<glyph unicode="&#x2006;" horiz-adv-x="117" />
<glyph unicode="&#x2007;" horiz-adv-x="117" />
<glyph unicode="&#x2008;" horiz-adv-x="87" />
<glyph unicode="&#x2009;" horiz-adv-x="140" />
<glyph unicode="&#x200a;" horiz-adv-x="39" />
<glyph unicode="&#x2010;" d="M331 446v-189h-302v189h302z" />
<glyph unicode="&#x2011;" d="M331 446v-189h-302v189h302z" />
<glyph unicode="&#x2012;" d="M331 446v-189h-302v189h302z" />
<glyph unicode="&#x2013;" horiz-adv-x="565" d="M529 446v-189h-500v189h500z" />
<glyph unicode="&#x2014;" horiz-adv-x="1065" d="M1029 446v-189h-1000v189h1000z" />
<glyph unicode="&#x2018;" horiz-adv-x="238" d="M27 457v189l25 54h96l-24 -53h89v-190h-186z" />
<glyph unicode="&#x2019;" horiz-adv-x="244" d="M217 698v-189l-25 -54h-96l24 53h-89v190h186z" />
<glyph unicode="&#x201a;" horiz-adv-x="232" d="M207 190v-189l-25 -54h-96l24 53h-89v190h186z" />
<glyph unicode="&#x201c;" horiz-adv-x="451" d="M242 645l29 52h93l-27 -52h90v-191h-185v191zM24 644l26 53h98l-25 -53h91v-190h-190v190z" />
<glyph unicode="&#x201d;" horiz-adv-x="453" d="M211 507l-30 -52h-93l27 52h-89v191h185v-191zM429 508l-27 -53h-97l24 53h-90v190h190v-190z" />
<glyph unicode="&#x201e;" horiz-adv-x="451" d="M208 0l-30 -52h-93l27 52h-89v191h185v-191zM426 1l-27 -53h-97l24 53h-90v190h190v-190z" />
<glyph unicode="&#x202f;" horiz-adv-x="140" />
<glyph unicode="&#x205f;" horiz-adv-x="175" />
<glyph unicode="&#xe000;" horiz-adv-x="525" d="M0 525h525v-525h-525v525z" />
</font>
</defs>
</svg>
