<?xml version="1.0" standalone="no"?>
<!DOCTYPE svg PUBLIC "-//W3C//DTD SVG 1.1//EN" "http://www.w3.org/Graphics/SVG/1.1/DTD/svg11.dtd" >
<svg xmlns="http://www.w3.org/2000/svg">
<metadata></metadata>
<defs>
<font id="heuristicaregular" horiz-adv-x="1085" >
<font-face units-per-em="2048" ascent="1536" descent="-512" />
<missing-glyph horiz-adv-x="460" />
<glyph unicode="&#xfb01;" horiz-adv-x="1249" d="M61 922v82h158v36q0 223 122 351.5t343 128.5q165 0 262.5 -58t97.5 -131q0 -45 -36 -69.5t-76 -24.5q-43 0 -58 37q-30 84 -84 129t-128 45q-38 0 -70 -7t-66.5 -29.5t-58.5 -59.5t-39.5 -102t-15.5 -152v-94h299q57 0 116 3t95.5 6.5t82.5 8.5t60 6v-850q0 -29 1 -44.5 t7.5 -30t13.5 -20.5t28 -11.5t42 -7.5t62 -5v-59h-500v59q42 3 63 5t41.5 7.5t27.5 11t13.5 21t7 30t0.5 44.5v649q0 55 -13 75t-52 20h-395v-746q0 -30 1 -45t8 -29.5t15 -20t31.5 -11t47.5 -7.5t71 -4v-59h-520v59q42 3 63 5t41.5 7.5t27.5 11t13.5 21t7 30t0.5 44.5v744 h-158z" />
<glyph unicode="&#xfb02;" horiz-adv-x="1249" d="M61 922v82h158v43q0 232 111 346q121 127 336 127q156 0 256 -58l129 58l14 -13v-1329q0 -29 1 -44.5t7.5 -30t13.5 -20.5t28 -11.5t42 -7.5t62 -5v-59h-500v59q42 3 63 5t41.5 7.5t27.5 11t13.5 21t7 30t0.5 44.5v1112q-22 76 -82.5 117t-134.5 41q-33 0 -61 -6 t-56.5 -20.5t-50.5 -42.5t-39.5 -68.5t-26.5 -101t-9 -138.5v-67h250v-82h-250v-746q0 -22 0.5 -34.5t4 -26t7.5 -20t16 -14t23 -10t35 -5.5t46 -4t62 -3v-59h-540v59q42 3 63 5t41.5 7.5t27.5 11t13.5 21t7 30t0.5 44.5v744h-158z" />
<glyph unicode="&#xfb03;" horiz-adv-x="1902" d="M61 922v82h158v55q0 197 68 301q39 60 105.5 94.5t148.5 34.5q111 0 180.5 -47t69.5 -103q0 -42 -32 -67t-67 -25q-38 0 -55 35q-35 81 -67.5 108t-69.5 27q-11 0 -23 -3.5t-27 -17t-25.5 -35t-17 -62t-4.5 -93.5l9 -202h460v36q0 224 121.5 352t343.5 128q165 0 263 -58 t98 -131q0 -45 -36.5 -69.5t-76.5 -24.5q-42 0 -57 37q-29 84 -84 129t-129 45q-38 0 -70 -7t-66.5 -29.5t-58.5 -59.5t-39.5 -102t-15.5 -152v-94h299q74 0 139 4t140 12l75 8v-850q0 -29 1 -44.5t7.5 -30t13.5 -20.5t28 -11.5t42 -7.5t62 -5v-59h-500v59q42 3 63 5 t41.5 7.5t28 11t14 20.5t7 30t0.5 45v649q0 55 -13.5 75t-52.5 20h-395v-746q0 -30 1 -45t8 -29.5t15 -20t31.5 -11t47.5 -7.5t71 -4v-59h-520v59q42 3 63 5t41.5 7.5t27.5 11t13.5 21t7 30t0.5 44.5v744h-460v-746q0 -30 1 -45t8 -29.5t15 -20t31.5 -11t47.5 -7.5t71 -4 v-59h-520v59q42 3 63 5t41.5 7.5t27.5 11t13.5 21t7 30t0.5 44.5v744h-158z" />
<glyph unicode="&#xfb04;" horiz-adv-x="1902" d="M61 922v82h158v55q0 197 68 301q39 60 105.5 94.5t148.5 34.5q111 0 180.5 -47t69.5 -103q0 -42 -32 -67t-67 -25q-38 0 -55 35q-35 81 -67.5 108t-69.5 27q-11 0 -23 -3.5t-27 -17t-25.5 -35t-17 -62t-4.5 -93.5l9 -202h460v43q0 232 111 346q121 127 336 127 q156 0 256 -58l129 58l14 -13v-1329q0 -29 1 -44.5t7.5 -30t13.5 -20.5t28 -11.5t42 -7.5t62 -5v-59h-500v59q42 3 63 5t41.5 7.5t28 11t14 20.5t7 30t0.5 45v1112q-22 76 -82.5 117t-134.5 41q-40 0 -73 -8.5t-66 -33t-55 -65t-36 -109.5t-14 -161v-67h250v-82h-250v-746 q0 -30 1 -45t9 -29.5t17 -20t35.5 -11t53 -7.5t79.5 -4v-59h-541v59q42 3 63 5t41.5 7.5t27.5 11t13.5 21t7 30t0.5 44.5v744h-460v-746q0 -30 1 -45t8 -29.5t15 -20t31.5 -11t47.5 -7.5t71 -4v-59h-520v59q42 3 63 5t41.5 7.5t27.5 11t13.5 21t7 30t0.5 44.5v744h-158z" />
<glyph horiz-adv-x="0" />
<glyph unicode="&#xd;" horiz-adv-x="2048" />
<glyph unicode=" "  horiz-adv-x="460" />
<glyph unicode="&#x09;" horiz-adv-x="460" />
<glyph unicode="&#xa0;" horiz-adv-x="460" />
<glyph unicode="!" horiz-adv-x="495" d="M119 104q0 58 35.5 96t93.5 38q59 0 94 -38t35 -96q-2 -57 -36 -93t-93 -36q-58 0 -93.5 36.5t-35.5 92.5zM135 1311q-7 76 14 106.5t99 30.5q79 0 100 -30.5t14 -106.5l-86 -883h-59z" />
<glyph unicode="&#x22;" horiz-adv-x="937" d="M209 1411q-8 56 14 82.5t78 26.5t78 -26.5t14 -82.5l-71 -461h-41zM547 1411q-8 56 14 82.5t78 26.5t78 -26.5t14 -82.5l-72 -461h-41z" />
<glyph unicode="#" d="M23 475l24 94h217l68 273h-219l24 94h217l107 432h110l-106 -432h276l107 432h108l-106 -432h213l-21 -94h-215l-67 -273h213l-21 -94h-215l-116 -475h-111l119 475h-277l-116 -475h-113l119 475h-219zM375 569h276l68 273h-277z" />
<glyph unicode="$" d="M90 225q0 43 30.5 74t63.5 31q38 0 60 -45q101 -208 254 -213v565q-205 60 -294 154t-89 223q0 87 32.5 155.5t87 110t121.5 63t142 23.5v156h82v-154q168 -4 263 -70.5t95 -140.5q0 -40 -31.5 -62t-62.5 -22q-22 0 -34.5 9t-21.5 32q-70 172 -208 182v-497 q211 -60 314 -161t103 -263q0 -69 -19 -126t-49.5 -94.5t-71 -67t-79.5 -45.5t-80.5 -26t-69 -13t-48.5 -3v-209h-82v209q-110 3 -194.5 28.5t-128 62t-64.5 71t-21 63.5zM276 1069q0 -54 18.5 -95.5t54.5 -69t69 -43.5t80 -32v465q-36 0 -72.5 -12t-71 -37t-56.5 -70.5 t-22 -105.5zM580 72q32 -1 63.5 5.5t64 23.5t56.5 43t39.5 69t15.5 98q0 127 -62.5 195t-176.5 104v-538z" />
<glyph unicode="%" horiz-adv-x="1716" d="M102 1018q0 180 81 277.5t241 97.5q133 0 227 -70q26 -17 40.5 -22t47.5 -5h346q55 3 87 17t59 51l49 70l70 -43l-901 -1442l-74 55l766 1227h-420q27 -75 27 -213q0 -180 -81.5 -277.5t-242.5 -97.5q-160 0 -241 97.5t-81 277.5zM254 1018q0 -147 45 -228t125 -81 q82 0 127 80.5t45 228.5q0 155 -45.5 232t-126.5 77q-79 0 -124.5 -77t-45.5 -232zM969 350q0 180 80.5 277.5t240.5 97.5q161 0 242.5 -97.5t81.5 -277.5t-81.5 -277.5t-242.5 -97.5q-160 0 -240.5 97.5t-80.5 277.5zM1120 350q0 -147 45 -228t125 -81q82 0 127 80.5 t45 228.5q0 155 -45.5 232t-126.5 77q-79 0 -124.5 -77t-45.5 -232z" />
<glyph unicode="&#x26;" horiz-adv-x="1445" d="M94 360q0 58 19.5 110.5t45 89t71 75.5t78 61t85.5 54q-41 51 -66 89.5t-47 100.5t-22 127q0 135 95.5 230.5t238.5 95.5q129 0 216 -76t87 -207q0 -48 -17 -90t-41 -72t-68 -62t-79.5 -52.5t-93.5 -51.5q192 -235 430 -452q160 185 125 522q79 45 156 35 q33 -63 37 -115.5t-13 -95.5q-59 -173 -252 -397q78 -76 175 -150t163 -92l-10 -51l-43 4q-107 9 -189.5 33.5t-150.5 80.5l-57 46q-199 -175 -426 -175q-196 0 -321.5 102.5t-125.5 282.5zM293 401q0 -145 87.5 -235t221.5 -90q94 0 165 31t144 94q-273 247 -477 491 q-141 -123 -141 -291zM416 1118q0 -138 133 -287q188 130 188 291q0 87 -39.5 143t-113.5 56q-68 0 -118 -57t-50 -146z" />
<glyph unicode="'" horiz-adv-x="569" d="M193 1411q-8 56 14 82.5t78 26.5t78 -26.5t14 -82.5l-72 -461h-41z" />
<glyph unicode="(" horiz-adv-x="716" d="M215 578q0 86 6 166t21 164t37.5 156t58.5 136.5t82 111t108.5 74.5t137.5 31v-51q-42 -9 -82 -35.5t-82 -85.5t-73 -143.5t-51 -220t-20 -303.5q0 -142 14.5 -261t39.5 -201t55.5 -144t66 -99t68 -57t64.5 -27v-51q-75 3 -137.5 31t-108.5 74.5t-82 111.5t-58.5 137 t-37.5 156t-21 164t-6 166z" />
<glyph unicode=")" horiz-adv-x="716" d="M51 -211q32 7 64 27t68 57t66.5 99t55.5 144t39 201t14 261q0 168 -20 303.5t-50.5 220t-73 143.5t-82 85.5t-81.5 35.5v51q75 -3 137.5 -31t108.5 -74.5t82 -111t58.5 -136.5t37.5 -156t21 -164t6 -166t-6 -166t-21 -164t-37.5 -156t-58.5 -137t-82 -111.5t-108.5 -74.5 t-137.5 -31v51z" />
<glyph unicode="*" horiz-adv-x="843" d="M117 1286q43 62 98 14l156 -131q15 -14 23.5 -8t2.5 31l-39 192q-12 64 64 64q75 0 63 -64l-39 -192q-6 -25 3 -31t24 8l158 134q20 21 49 18.5t49 -35.5q18 -24 12.5 -51.5t-39.5 -40.5l-196 -78q-28 -9 -30 -20.5t24 -20.5l196 -80q34 -13 41.5 -41t-14.5 -59 q-21 -28 -47 -31t-51 21l-148 141q-21 18 -28.5 10t-2.5 -35l39 -190q8 -37 -7.5 -59.5t-55.5 -22.5t-56 22.5t-8 59.5l39 190q5 27 -2 35t-28 -10l-148 -139q-55 -51 -98 8q-21 31 -14 59t40 41l197 80q26 9 24 20.5t-30 20.5l-195 76q-36 14 -41 42t15 52z" />
<glyph unicode="+" horiz-adv-x="1167" d="M88 453v118h426v433h139v-433h426v-118h-426v-453h-139v453h-426z" />
<glyph unicode="," horiz-adv-x="542" d="M104 -250q119 130 119 238q0 46 -33.5 104.5t-33.5 93.5q0 42 27.5 72.5t72.5 30.5q59 0 99 -52t40 -133q0 -34 -10 -69t-21 -61.5t-37.5 -63t-40 -54.5t-50 -54.5t-46 -45.5l-47.5 -45z" />
<glyph unicode="-" horiz-adv-x="802" d="M152 442v144h501v-144h-501z" />
<glyph unicode="." horiz-adv-x="542" d="M143 104q0 58 35.5 96t93.5 38q59 0 94 -38t35 -96q-2 -57 -36 -93t-93 -36q-58 0 -93.5 36.5t-35.5 92.5z" />
<glyph unicode="/" horiz-adv-x="942" d="M188 -31l430 1479h138l-430 -1479h-138z" />
<glyph unicode="0" d="M84 684q0 126 15 231.5t49.5 195t87 151.5t130.5 96.5t177 34.5t177 -34.5t130.5 -96.5t86.5 -151.5t49 -195t15 -231.5t-15 -231.5t-49 -195t-86.5 -151.5t-130.5 -96.5t-177 -34.5t-177 34.5t-130.5 96.5t-87 151.5t-49.5 195t-15 231.5zM293 684q0 -133 12 -241.5 t39.5 -201t78 -143.5t120.5 -51t120.5 51t78 143.5t39.5 201t12 241.5t-12 241.5t-39.5 201t-78 143.5t-120.5 51t-120.5 -51t-78 -143.5t-39.5 -201t-12 -241.5z" />
<glyph unicode="1" d="M223 0v59l172 15q35 3 49 22q19 22 19 78v993q0 43 -11 60t-38 20l-191 23v51l422 72l10 -13v-1206q0 -56 16 -76.5t52 -23.5l172 -15v-59h-672z" />
<glyph unicode="2" d="M55 20q31 126 114 243.5t265 275.5q76 67 122 115.5t88 109.5t60.5 127.5t18.5 146.5q0 283 -203 283q-90 0 -151 -70t-88 -182q-6 -28 -19.5 -41.5t-40.5 -13.5q-34 0 -73 27.5t-39 74.5q0 41 28 88t79 90t135 71t184 28q84 0 154 -20.5t127.5 -63.5t89.5 -119.5 t32 -179.5q0 -62 -18 -117t-37.5 -91t-71 -84t-80.5 -70t-104 -76q-24 -18 -37 -27q-139 -100 -228.5 -203.5t-115.5 -185.5h524q67 0 101.5 23t64.5 102l57 -11l-69 -270h-848z" />
<glyph unicode="3" d="M55 209q0 50 37.5 81.5t71.5 31.5q43 0 61 -58q32 -94 99.5 -155.5t162.5 -61.5q119 0 193 79t74 251q0 140 -73.5 238t-199.5 98q-58 0 -116.5 -10.5t-61.5 -10.5q-37 0 -37 58q0 57 37 57q3 0 61.5 -10.5t116.5 -10.5q50 0 89 17.5t62.5 44.5t39 64.5t21 74t5.5 76.5 q0 48 -9 89.5t-30 81.5t-62 63.5t-99 23.5q-164 0 -238 -229q-12 -41 -51 -41q-28 0 -64 28t-36 70q0 35 26 75.5t73.5 79t127.5 64t176 25.5q175 0 286 -83t111 -245q0 -72 -28.5 -129.5t-74.5 -92t-92.5 -54t-92.5 -27.5v-8q38 -3 80 -15t91 -40t87.5 -67t64 -103 t25.5 -142q0 -195 -129.5 -303.5t-354.5 -108.5q-103 0 -188.5 24t-136 60.5t-78 75.5t-27.5 74z" />
<glyph unicode="4" d="M39 410q276 468 610 958h150v-905h211v-96h-211v-209q0 -51 12 -67t49 -21l92 -11v-59h-540v59l131 13q40 3 55.5 19.5t15.5 66.5v209h-557zM186 463h428v706h-4q-258 -404 -424 -706z" />
<glyph unicode="5" d="M82 209q0 47 36 77.5t72 30.5q42 0 58 -49q77 -221 258 -221q129 0 196.5 102.5t67.5 268.5q0 97 -24 170.5t-64.5 114.5t-87 61t-98.5 20q-82 0 -148.5 -35t-132.5 -110l-49 25l41 686l20 18h684l11 -16l-50 -140h-510q-31 0 -43 -11t-16 -48l-47 -383l4 -4 q51 46 134 77t165 31q190 0 307 -112.5t117 -321.5q0 -206 -124.5 -335.5t-366.5 -129.5q-77 0 -144.5 15.5t-115 40t-82.5 55.5t-51.5 62.5t-16.5 60.5z" />
<glyph unicode="6" d="M90 633q0 376 137.5 568t386.5 192q87 0 157 -22.5t109.5 -57t60 -70.5t20.5 -69q0 -40 -35.5 -66.5t-73.5 -26.5q-43 0 -53 43q-24 91 -73.5 144t-117.5 53q-71 0 -127 -36t-98.5 -110.5t-65.5 -198t-24 -288.5h4q55 68 140.5 122t193.5 54q171 0 281 -112.5t110 -313.5 q0 -213 -121 -338t-344 -125q-467 0 -467 658zM297 483q0 -194 68 -315t196 -121q126 0 191 97.5t65 263.5q0 167 -75.5 259.5t-180.5 92.5q-120 0 -192 -86.5t-72 -190.5z" />
<glyph unicode="7" d="M84 1081l63 287h852l19 -22q-25 -91 -63 -176.5t-68 -138t-88.5 -147.5t-91.5 -153q-168 -293 -154 -678q3 -78 -100 -78q-53 0 -82 18.5t-29 65.5q0 171 74.5 344t218.5 379q77 110 127 202t66.5 135t29.5 93h-553q-64 0 -93 -20t-52 -68l-21 -43h-55z" />
<glyph unicode="8" d="M86 373q0 147 78.5 240t191.5 120v6q-98 26 -161.5 105.5t-63.5 199.5q0 162 115 255.5t297 93.5q181 0 296 -93.5t115 -255.5q0 -121 -63 -200t-162 -105v-6q114 -27 192 -120t78 -240q0 -81 -25.5 -150t-77.5 -126t-142.5 -89.5t-210.5 -32.5t-210.5 32.5t-143 89.5 t-78 126t-25.5 150zM291 367q0 -142 64 -231t188 -89t188 89t64 231q0 144 -66 234.5t-186 90.5t-186 -90.5t-66 -234.5zM330 1049q0 -115 55 -199t158 -84t158 84t55 199q0 122 -55.5 197t-157.5 75t-157.5 -75t-55.5 -197z" />
<glyph unicode="9" d="M74 936q0 209 125 333t325 124q205 0 322 -138q131 -157 131 -516q0 -406 -135 -594q-122 -170 -371 -170q-88 0 -159.5 20.5t-112.5 53.5t-62.5 69.5t-21.5 71.5q0 44 31.5 74.5t64.5 30.5q44 0 57 -43q14 -42 29 -73.5t40 -64t63.5 -50t88.5 -17.5q175 0 240 238 q47 179 47 436h-4q-55 -79 -133 -125.5t-170 -46.5q-80 0 -151 25t-125.5 72t-86.5 122t-32 168zM279 993q0 -151 66.5 -243.5t184.5 -92.5q80 0 138.5 44t83.5 118q14 39 14 109q0 103 -26 190.5t-83 145t-135 57.5q-116 0 -179.5 -91t-63.5 -237z" />
<glyph unicode=":" horiz-adv-x="542" d="M143 104q0 58 35.5 96t93.5 38q59 0 94 -38t35 -96q-2 -57 -36 -93t-93 -36q-58 0 -93.5 36.5t-35.5 92.5zM143 870q0 58 35.5 96t93.5 38q59 0 94 -38t35 -96q-2 -57 -36 -93t-93 -36q-58 0 -93.5 36.5t-35.5 92.5z" />
<glyph unicode=";" horiz-adv-x="542" d="M104 -250q119 130 119 238q0 46 -33.5 104.5t-33.5 93.5q0 42 27.5 72.5t72.5 30.5q59 0 99 -52t40 -133q0 -34 -10 -69t-21 -61.5t-37.5 -63t-40 -54.5t-50 -54.5t-46 -45.5l-47.5 -45zM143 870q0 58 35.5 96t93.5 38q59 0 94 -38t35 -96q-2 -57 -36 -93t-93 -36 q-58 0 -93.5 36.5t-35.5 92.5z" />
<glyph unicode="&#x3c;" horiz-adv-x="1167" d="M94 430v164l979 428v-141l-858 -369l858 -369v-141z" />
<glyph unicode="=" horiz-adv-x="1167" d="M88 227v119h991v-119h-991zM88 678v119h991v-119h-991z" />
<glyph unicode="&#x3e;" horiz-adv-x="1167" d="M94 2v141l858 369l-858 369v141l979 -428v-164z" />
<glyph unicode="?" horiz-adv-x="796" d="M59 1210q0 23 10.5 51t36.5 62t64.5 61t101.5 45.5t140 18.5q144 0 233.5 -72t89.5 -207q0 -24 -4 -46.5t-9 -40.5t-16.5 -37.5t-18.5 -31.5t-24 -29.5t-24 -25t-27.5 -23t-25 -19t-25.5 -18.5t-22 -15q-156 -110 -156 -236q0 -40 15.5 -70.5t38.5 -46.5t45 -24t40 -8 q34 0 62 8l16 -41q-70 -57 -197 -57q-89 0 -154 53t-65 145q0 67 35.5 117.5t130.5 122.5q76 58 129 145t53 178q0 95 -32 151t-99 56q-127 0 -168 -219q-8 -49 -65 -49q-35 0 -72 25.5t-37 76.5zM262 102q0 57 35.5 93t91.5 36t91.5 -36t35.5 -93q0 -56 -36 -91.5 t-91 -35.5t-91 35.5t-36 91.5z" />
<glyph unicode="@" horiz-adv-x="1624" d="M94 621q0 152 45 285t124 231t183.5 169t225.5 106.5t248 35.5q142 0 261 -47t198.5 -128.5t123 -191t43.5 -233.5q0 -103 -38.5 -196t-102 -158t-147.5 -103.5t-173 -38.5q-70 0 -106.5 30t-36.5 99q0 64 29 152l-4 2q-23 -42 -60.5 -88t-86.5 -91t-110 -74.5 t-118 -29.5q-55 0 -95 39.5t-40 130.5q0 49 18 117.5t59.5 148.5t98.5 147t146.5 112t193.5 45q59 0 112 -27l9 16h133l-135 -528q-9 -30 -9 -53q0 -70 78 -70q68 0 133.5 57.5t107.5 153t42 197.5q0 166 -70 287t-186 180t-264 59q-120 0 -227.5 -40.5t-187 -110.5 t-138 -163t-88 -201t-29.5 -220q0 -81 17 -157.5t60.5 -155t109 -136.5t171 -94.5t238.5 -36.5q89 0 183 17.5t163 46.5l16 -52q-167 -92 -419 -92q-104 0 -204 25t-190 78t-157.5 128t-107.5 184t-40 237zM625 553q0 -104 69 -104q68 0 151.5 100t144.5 228t81 227 q-43 28 -96 28q-61 0 -118.5 -37.5t-98 -95t-71.5 -124t-46.5 -125t-15.5 -97.5z" />
<glyph unicode="A" horiz-adv-x="1300" d="M-59 0v59q50 2 78 8t49.5 24.5t33 40.5t29.5 69q60 154 221 610l215 606h152l434 -1235q12 -33 22 -52.5t21.5 -33.5t32 -20.5t41 -10t61.5 -6.5v-59h-524v59l92 9q48 4 59.5 24t-4.5 64l-137 391h-459q-103 -318 -125 -395q-13 -41 -2.5 -59.5t54.5 -22.5l106 -11v-59 h-450zM385 625h408l-203 585h-6q-6 -18 -83 -240.5t-116 -344.5z" />
<glyph unicode="B" horiz-adv-x="1323" d="M72 0v59q52 3 77 5t50 9t33 12.5t15.5 22.5t8 32.5t0.5 49.5v1037q0 34 -0.5 49.5t-8 32.5t-15.5 22.5t-33 12.5t-50 9t-77 5v59h592q250 0 362 -74q127 -85 127 -251q0 -119 -80.5 -203t-224.5 -113v-4q78 -11 142.5 -36.5t117 -69.5t82 -112.5t29.5 -156.5 q0 -397 -512 -397h-635zM459 229q0 -96 37 -126.5t159 -30.5q56 0 103.5 8.5t93 30.5t77.5 56t51 89.5t19 126.5q0 164 -102 254t-291 90h-147v-498zM459 799h137q342 0 342 280q0 61 -18.5 108.5t-48.5 77t-71.5 48t-84 26t-90.5 7.5q-82 0 -115.5 -8.5t-42 -27t-8.5 -67.5 v-444z" />
<glyph unicode="C" horiz-adv-x="1400" d="M98 698q0 330 187 539q92 103 240 157t337 54q132 0 245.5 -22.5t188.5 -57.5v-319h-61q-28 174 -128 250.5t-265 76.5q-111 0 -199.5 -38t-146.5 -101.5t-96.5 -150.5t-55 -181.5t-16.5 -199.5q0 -57 6 -115t21.5 -125t40 -126t65 -114.5t92 -95.5t125 -64t160.5 -24 q79 0 142.5 18.5t108.5 50t80 79.5t58 100.5t41 120.5h61l-29 -342q-76 -41 -203.5 -70t-246.5 -29q-383 0 -557 174q-94 94 -144.5 235.5t-50.5 319.5z" />
<glyph unicode="D" horiz-adv-x="1595" d="M72 0v59q52 3 77 5t50 9t33 12.5t15.5 22.5t8 32.5t0.5 49.5v1037q0 34 -0.5 49.5t-8 32.5t-15.5 22.5t-33 12.5t-50 9t-77 5v60h680q173 0 306 -40t214.5 -104.5t133.5 -155.5t71.5 -184t19.5 -201q0 -82 -10.5 -156t-35.5 -149.5t-65 -137.5t-102 -117t-142 -92.5 t-189.5 -59t-241.5 -21.5h-639zM459 256q0 -63 7.5 -97.5t33 -55t63 -26t109.5 -5.5q108 0 194.5 18t163.5 63.5t128 118.5t80.5 187.5t29.5 265.5q0 108 -17.5 198t-59 169.5t-106 134.5t-163.5 87t-226 32q-71 0 -109.5 -2.5t-68 -8t-40 -20t-15 -33t-4.5 -53.5v-973z" />
<glyph unicode="E" horiz-adv-x="1241" d="M72 0v59q52 3 77 5t50 9t33 12.5t15.5 22.5t8 32.5t0.5 49.5v1037q0 34 -0.5 49.5t-8 32.5t-15.5 22.5t-33 12.5t-50 9t-77 5v59h1034v-336h-62q-12 85 -27.5 132t-50.5 79.5t-88 43t-143 10.5h-200q-50 0 -63 -12.5t-13 -61.5v-496h286q44 0 74 3.5t51.5 14.5t33.5 21.5 t20.5 35t12 43.5t9.5 58h62v-432h-62q-6 40 -9.5 59t-12 44t-20.5 35.5t-33.5 21.5t-51.5 14.5t-74 3.5h-286v-452q0 -78 10 -109.5t41 -44.5q54 -20 213 -20q84 0 136.5 5.5t100 21.5t75.5 48t49.5 81.5t35.5 125.5h62l-25 -354h-1085z" />
<glyph unicode="F" horiz-adv-x="1187" d="M72 0v59q52 3 77 5t50 9t33 12.5t15.5 22.5t8 32.5t0.5 49.5v1037q0 34 -0.5 49.5t-8 32.5t-15.5 22.5t-33 12.5t-50 9t-77 5v59h1040v-327h-61q-12 83 -27.5 129t-51.5 76.5t-89.5 40.5t-145.5 10h-202q-51 0 -63.5 -11.5t-12.5 -62.5v-524h286q37 0 65 3.5t48 8.5 t34 18t22 23.5t14.5 34t9.5 40.5t8 52h62v-439h-62q-6 40 -9.5 59.5t-12 45t-20.5 36t-33.5 22t-51.5 15t-74 3.5h-286v-480q0 -33 0.5 -49t9.5 -33t18.5 -22.5t39.5 -12.5t59 -9t90 -5v-59h-604z" />
<glyph unicode="G" horiz-adv-x="1503" d="M98 682q0 311 154 514q92 119 249.5 185.5t379.5 66.5q122 0 243 -23.5t197 -60.5v-322h-61q-32 172 -131 253t-269 81q-117 0 -209.5 -38t-152 -101t-99 -150t-55.5 -178.5t-16 -193.5q0 -60 6 -118.5t22.5 -127t43 -128t70 -115.5t100.5 -96.5t138 -64.5t179 -24 t180 31q36 13 53 36.5t17 73.5v277q0 34 -3.5 51t-13 32.5t-35.5 22t-62 12t-103 9.5v59h565v-59q-101 -10 -123.5 -30t-22.5 -97v-404q-109 -35 -240.5 -60.5t-230.5 -25.5q-155 0 -281.5 28t-234.5 103q-116 82 -185 235.5t-69 346.5z" />
<glyph unicode="H" horiz-adv-x="1634" d="M72 0v59q52 3 77 5t50 9t33 12.5t15.5 22.5t8 32.5t0.5 49.5v1037q0 34 -0.5 49.5t-8 32.5t-15.5 22.5t-33 12.5t-50 9t-77 5v59h571v-59q-52 -3 -76.5 -5t-50 -9t-33 -12.5t-15.5 -22.5t-8.5 -33t-0.5 -49v-451h717v451q0 33 -0.5 49t-8 33t-15.5 22.5t-33.5 12.5 t-50.5 9t-77 5v59h572v-59q-52 -3 -76.5 -5.5t-50 -9t-33.5 -12t-16 -22.5t-8.5 -33t-0.5 -49v-1037q0 -33 0.5 -49t8.5 -33t16 -22.5t33.5 -12t50 -9t76.5 -5.5v-59h-572v59q39 3 60 4.5t44.5 5.5t33.5 6.5t21.5 10.5t14.5 14.5t7 22t4 29v38.5v508h-717v-508 q0 -33 0.5 -49t8.5 -33t15.5 -22.5t33 -12.5t50 -9t76.5 -5v-59h-571z" />
<glyph unicode="I" horiz-adv-x="714" d="M72 0v59q52 3 77 5t50 9t33 12.5t15.5 22.5t8 32.5t0.5 49.5v1037q0 34 -0.5 49.5t-8 32.5t-15.5 22.5t-33 12.5t-50 9t-77 5v59h571v-59q-52 -3 -76.5 -5t-50 -9t-33 -12.5t-15.5 -22.5t-8.5 -33t-0.5 -49v-1037q0 -33 0.5 -49t8.5 -33t15.5 -22.5t33 -12.5t50 -9 t76.5 -5v-59h-571z" />
<glyph unicode="J" horiz-adv-x="716" d="M0 -182q127 32 190 106q84 101 84 357v946q0 34 -0.5 49.5t-8 32.5t-15.5 22.5t-33 12.5t-50 9t-77 5v59h572v-59q-52 -3 -76.5 -5.5t-50 -9t-33.5 -12t-16 -22.5t-8.5 -33t-0.5 -49v-934q0 -70 -4 -121.5t-16.5 -107t-35 -96t-61 -77t-92.5 -61.5q-121 -56 -258 -63z " />
<glyph unicode="K" horiz-adv-x="1347" d="M72 0v59q52 3 77 5t50 9t33 12.5t15.5 22.5t8 32.5t0.5 49.5v1037q0 34 -0.5 49.5t-8 32.5t-15.5 22.5t-33 12.5t-50 9t-77 5v59h571v-59q-52 -3 -76.5 -5t-50 -9t-33 -12.5t-15.5 -22.5t-8.5 -33t-0.5 -49v-484q340 352 497 527q64 76 -2 82l-77 6v59h497v-59 q-88 -5 -139.5 -18t-87.5 -35.5t-94 -73.5q-211 -184 -418 -414q189 -285 493 -610q73 -77 126 -116t112 -52v-49l-129 6q-103 3 -186 41.5t-168 134.5q-214 241 -418 551l-2 8h-4v-541q0 -33 0.5 -49t8.5 -33t15.5 -22.5t33 -12.5t50 -9t76.5 -5v-59h-571z" />
<glyph unicode="L" horiz-adv-x="1163" d="M72 0v59q52 3 77 5t50 9t33 12.5t15.5 22.5t8 32.5t0.5 49.5v1037q0 34 -0.5 49.5t-8 32.5t-15.5 22.5t-33 12.5t-50 9t-77 5v59h583v-59q-55 -3 -81 -5t-53.5 -9t-35.5 -12.5t-16.5 -22.5t-9 -33t-0.5 -49v-981q0 -78 10 -109.5t41 -44.5q54 -20 219 -20q51 0 86.5 2 t73 9.5t63.5 20.5t51 34.5t42 53t30.5 75t22.5 100.5h61l-24 -367h-1063z" />
<glyph unicode="M" horiz-adv-x="1933" d="M68 1358v59h415q33 -81 73 -172t90 -201t77 -172l242 -546h4l245 548q174 383 236 543h412v-59q-52 -3 -76.5 -5.5t-50 -9t-33.5 -12t-16 -22.5t-8.5 -33t-0.5 -49v-1037q0 -33 0.5 -49t8.5 -33t16 -22.5t33.5 -12t50 -9t76.5 -5.5v-59h-572v59q39 3 60 4.5t44.5 5.5 t33.5 6.5t21.5 10.5t14.5 14.5t7 22t4 29v38.5v1039h-7l-534 -1204h-55l-529 1204h-4v-813q0 -159 14 -254q8 -60 46.5 -77.5t148.5 -25.5v-59h-485v59q89 7 124.5 25t43.5 78q14 95 14 254v811q0 34 -0.5 49.5t-8 32.5t-15.5 22.5t-33 12.5t-50 9t-77 5z" />
<glyph unicode="N" horiz-adv-x="1597" d="M70 1358v59h393q283 -404 799 -1130l4 -4v718q0 152 -15 254q-8 60 -46 77.5t-148 25.5v59h485v-59q-89 -7 -124.5 -25t-43.5 -78q-14 -95 -14 -254v-1001h-135q-279 398 -873 1233h-4v-817q0 -159 14 -254q8 -60 46.5 -77.5t148.5 -25.5v-59h-485v59q89 7 124.5 25 t43.5 78q14 95 14 254v811q0 34 -0.5 49.5t-8 32.5t-15.5 22.5t-33 12.5t-50 9t-77 5z" />
<glyph unicode="O" horiz-adv-x="1560" d="M98 709q0 347 175.5 543t506.5 196t506.5 -196t175.5 -543q0 -348 -175 -544t-507 -196t-507 196t-175 544zM328 709q0 -98 11.5 -186t43 -178.5t80.5 -155.5t130.5 -106.5t186.5 -41.5t186.5 41.5t131 106.5t81 155.5t43 178.5t11.5 186t-11.5 186t-43 178t-81 155.5 t-131 106.5t-186.5 41q-88 0 -160 -28t-120 -78.5t-82.5 -113.5t-53.5 -140.5t-27.5 -152t-8.5 -154.5z" />
<glyph unicode="P" horiz-adv-x="1228" d="M72 0v59q52 3 77 5t50 9t33 12.5t15.5 22.5t8 32.5t0.5 49.5v1037q0 34 -0.5 49.5t-8 32.5t-15.5 22.5t-33 12.5t-50 9t-77 5v59h571q533 0 533 -401q0 -92 -29.5 -165t-81 -120.5t-107 -76.5t-120.5 -46q-110 -26 -263 -26h-116v-392q0 -33 0.5 -49t9.5 -33t18.5 -22.5 t39.5 -12.5t59 -9t90 -5v-59h-604zM459 733q0 -55 27.5 -67.5t123.5 -12.5q69 0 128.5 19t109 58.5t78 109t28.5 161.5q0 166 -90 255.5t-250 89.5q-96 0 -125.5 -15.5t-29.5 -60.5v-537z" />
<glyph unicode="Q" horiz-adv-x="1560" d="M98 709q0 348 175 543.5t507 195.5q331 0 508 -199q174 -189 174 -540q0 -303 -133.5 -492.5t-386.5 -232.5q42 -76 119 -158q77 -84 147 -118t119 -34q33 0 53 2l6 -32q-62 -39 -172 -39q-160 0 -296.5 100t-217.5 268q-274 18 -428 195q-84 93 -129 232t-45 309z M328 709q0 -98 11.5 -186t43 -178.5t80.5 -155.5t130.5 -106.5t186.5 -41.5t186.5 41.5t131 106.5t81 155.5t43 178.5t11.5 186t-11.5 186t-43 178t-81 155.5t-131 106.5t-186.5 41q-88 0 -160 -28t-120 -78.5t-82.5 -113.5t-53.5 -140.5t-27.5 -152t-8.5 -154.5z" />
<glyph unicode="R" horiz-adv-x="1318" d="M72 0v59q52 3 77 5t50 9t33 12.5t15.5 22.5t8 32.5t0.5 49.5v1037q0 34 -0.5 49.5t-8 32.5t-15.5 22.5t-33 12.5t-50 9t-77 5v59h598q130 0 225.5 -26.5t150 -75t80 -110t25.5 -138.5q0 -142 -92 -236.5t-242 -123.5v-5q53 -13 94 -32.5t69.5 -47.5t48 -57t32.5 -70 t20.5 -77t14.5 -88q8 -60 18.5 -100t33 -80t62 -62.5t97.5 -28.5v-59h-166q-95 0 -151.5 40.5t-78.5 135.5q-13 52 -33 170.5t-26 142.5q-25 98 -88.5 138.5t-163.5 40.5h-141v-478q0 -66 1 -79t5 -19q2 -4 5.5 -7.5t9 -6t10.5 -4.5t14 -3.5t16 -2.5t19 -2.5t21 -2t25 -2 t27 -2.5v-59h-540zM459 739h162q311 0 311 310q0 87 -28.5 148t-77.5 92t-102 44t-116 13q-69 0 -99.5 -8.5t-40 -28.5t-9.5 -66v-504z" />
<glyph unicode="S" horiz-adv-x="1107" d="M102 420h66q39 -177 134.5 -278t236.5 -101q137 0 216 75.5t79 207.5q0 52 -21.5 99t-52 79t-73 60.5t-73.5 44t-65 28.5l-37 14q-86 31 -152 66t-121 83t-84.5 112.5t-29.5 142.5q0 98 38 175t104 124t149.5 71.5t179.5 24.5q105 0 200.5 -24.5t147.5 -65.5v-289h-63 q-25 156 -100.5 231.5t-207.5 75.5q-125 0 -193.5 -72t-68.5 -188q0 -87 70 -153.5t182 -108.5l66 -25q96 -35 165 -73t125.5 -90.5t84.5 -122.5t28 -158q0 -81 -29 -153.5t-87.5 -132.5t-158.5 -95t-231 -35q-115 0 -227 31.5t-176 91.5z" />
<glyph unicode="T" horiz-adv-x="1271" d="M45 1077v340h1182v-340h-62q-7 59 -14.5 97.5t-23 71t-35.5 50t-53.5 30t-76 16.5t-104.5 4h-121v-1156q0 -33 0.5 -49t10 -33t19.5 -22.5t41 -12.5t61.5 -9t93.5 -5v-59h-654v59q48 3 73 4.5t54 5.5t41 6.5t26.5 10.5t18.5 15t8 22t4.5 28.5t0.5 38.5v1156h-121 q-62 0 -104.5 -4t-76.5 -16.5t-54 -30t-35 -50t-23 -71t-15 -97.5h-61z" />
<glyph unicode="U" horiz-adv-x="1619" d="M59 1358v59h572v-59q-52 -3 -76.5 -5.5t-50 -9t-33.5 -12t-16 -22.5t-8.5 -33t-0.5 -49v-664q0 -274 93 -399q95 -123 270 -123q177 0 272 123q93 125 93 399v664q0 33 -0.5 49t-8 33t-15.5 22.5t-33.5 12.5t-50.5 9t-77 5v59h572v-59q-52 -3 -76.5 -5.5t-50 -9 t-33.5 -12t-16 -22.5t-8.5 -33t-0.5 -49v-705q0 -190 -55 -303q-116 -250 -512 -250q-393 0 -510 250q-55 110 -55 299v709q0 33 -0.5 49t-8 33t-15.5 22.5t-33.5 12.5t-50.5 9t-77 5z" />
<glyph unicode="V" horiz-adv-x="1298" d="M-37 1358v59h529v-59l-107 -10q-36 -3 -44 -19.5t5 -54.5q50 -155 180 -522l191 -527l4 -4l213 588q132 366 160 475q10 29 1 45t-46 19l-113 10v59h453v-59q-88 -5 -118 -21.5t-61 -85.5q-77 -172 -215 -544l-262 -707h-145l-232 655q-112 318 -213 582 q-30 79 -60.5 98.5t-119.5 22.5z" />
<glyph unicode="W" horiz-adv-x="1925" d="M-27 1358v59h514v-59l-102 -10q-38 -3 -46 -18t3 -66q151 -593 279 -1018h4l313 1134h154q136 -454 346 -1134h6l151 585q99 376 109 437q7 36 -2 55t-43 23l-127 12v59h469v-59q-98 -6 -129.5 -28t-61.5 -109q-13 -35 -32 -100.5t-52.5 -187t-56.5 -202.5l-205 -731 h-155q-163 574 -342 1135h-4l-322 -1135h-158l-174 653q-49 181 -162 572q-14 48 -24 71.5t-31.5 38t-44.5 17.5t-74 6z" />
<glyph unicode="X" horiz-adv-x="1277" d="M-39 0v59q99 9 133 26t86 85q48 65 188.5 273.5t178.5 263.5l-328 522q-37 59 -62.5 83.5t-59 34t-101.5 11.5v59h528v-59l-98 -10q-57 -6 -18 -70l256 -401h4q156 224 264 405q20 31 16 48t-35 20l-98 8v59h453v-59q-93 -5 -132 -25t-104 -100q-142 -175 -319 -436 l401 -621q31 -50 56 -71t61.5 -31t114.5 -15v-59h-582v59l113 13q66 7 32 59l-311 494h-4q-169 -261 -297 -496q-29 -48 22 -55l132 -15v-59h-490z" />
<glyph unicode="Y" horiz-adv-x="1204" d="M-25 1358v59h531v-59l-121 -12q-47 -6 -23 -62q123 -270 316 -618h4q230 449 299 616q25 61 -25 66l-110 10v59h448v-59q-71 -3 -105 -14.5t-54.5 -34t-59.5 -86.5q-47 -76 -145 -258.5t-176 -339.5q-27 -55 -27 -121v-314q0 -33 0.5 -48.5t9.5 -32.5t19 -23t39 -12.5 t59 -9t90 -5.5v-59h-637v59q60 3 90 5.5t59 9t39 12.5t19 23t9.5 32.5t0.5 48.5v306q0 62 -30 118q-126 255 -336 641q-33 63 -66.5 81.5t-116.5 21.5z" />
<glyph unicode="Z" horiz-adv-x="1249" d="M18 27q558 794 916 1319h-367q-73 0 -122 -4t-89 -16.5t-63 -31t-40.5 -52t-26 -74.5t-15.5 -103h-66v352h1047l12 -26q-577 -822 -915 -1319h413q102 0 165.5 6t117 23t84 50.5t51 84.5t31.5 129h66l-21 -365h-1167z" />
<glyph unicode="[" horiz-adv-x="675" d="M272 -262v1679h326v-55q-60 -3 -91.5 -6.5t-56.5 -9t-33.5 -19t-12 -30t-3.5 -48.5v-1343q0 -32 3.5 -48.5t12 -30t33.5 -19t56.5 -9t91.5 -6.5v-55h-326z" />
<glyph unicode="\" horiz-adv-x="942" d="M186 1448h138l432 -1479h-138z" />
<glyph unicode="]" horiz-adv-x="675" d="M78 -207q60 3 91.5 6.5t56 9t33 19t12 30t3.5 48.5v1343q0 32 -3.5 48.5t-12 30t-33 19t-56 9t-91.5 6.5v55h325v-1679h-325v55z" />
<glyph unicode="^" horiz-adv-x="1167" d="M115 467l401 901h146l391 -901h-146l-319 760l-328 -760h-145z" />
<glyph unicode="_" horiz-adv-x="1024" d="M0 -154h1024v-102h-1024v102z" />
<glyph unicode="`" horiz-adv-x="819" d="M100 1393q0 30 28 59t52 29q50 0 131 -84l244 -246l-31 -41l-309 172q-55 30 -85 56t-30 55z" />
<glyph unicode="a" horiz-adv-x="1071" d="M100 266q0 82 44.5 147.5t146.5 96.5q28 9 97.5 30t105.5 32.5t85.5 29.5t78.5 33.5t44 30.5v86q0 59 -15.5 101t-42 63t-55 30.5t-61.5 9.5q-152 0 -211 -200q-9 -30 -22 -44t-43 -14q-37 0 -76 26t-39 71q0 88 123 160.5t291 72.5q75 0 132 -11.5t92.5 -33t59 -46 t34.5 -58.5t14.5 -61t3.5 -62v-496q0 -161 71 -176q42 -11 105 2l12 -49q-124 -62 -241 -62q-51 0 -80.5 30.5t-53.5 92.5q-39 -25 -61.5 -38.5t-68 -37.5t-89.5 -35.5t-86 -11.5q-138 0 -216.5 84.5t-78.5 206.5zM307 295q0 -95 48.5 -153t140.5 -58q34 0 67 10t65.5 32 t53 65t20.5 102v289q-38 -25 -235 -99q-87 -33 -123.5 -75t-36.5 -113z" />
<glyph unicode="b" horiz-adv-x="1224" d="M41 1417v51l321 52l15 -13v-624q6 4 62 39.5t87 52t90 35t113 18.5q76 0 138 -22t102 -55.5t70 -81.5t46 -93t25 -97t11.5 -86.5t2.5 -68.5q0 -122 -27.5 -217.5t-73.5 -157t-112 -101.5t-139 -56.5t-158 -16.5q-104 0 -174 21t-137 59l-82 -80l-37 17v1323q0 57 -12 73 t-53 21zM377 334q0 -86 14 -129q28 -77 85.5 -117.5t139.5 -40.5q295 0 295 465q0 85 -13.5 153t-36.5 110.5t-50 72.5t-58.5 44.5t-56.5 20t-49 5.5q-178 0 -250 -144q-20 -41 -20 -117v-323z" />
<glyph unicode="c" horiz-adv-x="1015" d="M100 492q0 85 15.5 160.5t52.5 145.5t93 120t142.5 80t194.5 30q157 0 256.5 -61.5t99.5 -137.5q0 -52 -39.5 -78t-80.5 -26q-27 0 -40.5 12.5t-23.5 40.5q-66 178 -195 178q-115 0 -188.5 -106t-73.5 -322q0 -63 7.5 -121t28.5 -119t53.5 -105t87 -72.5t124.5 -28.5 q109 0 177.5 53t117.5 164l60 -29q-20 -78 -64.5 -137.5t-101 -92.5t-114 -49t-114.5 -16q-232 0 -353.5 131t-121.5 386z" />
<glyph unicode="d" horiz-adv-x="1224" d="M100 481q0 258 142 406q138 141 379 141q137 0 227 -49v336q0 57 -12.5 73t-53.5 21l-77 8v51l321 52l14 -13v-1329q0 -29 1 -44.5t7.5 -30t13.5 -20.5t28 -11.5t42 -7.5t62 -5v-59h-332l-16 14v101q-87 -71 -162.5 -105.5t-155.5 -34.5q-200 0 -314 138t-114 368z M313 506q0 -185 73.5 -302.5t209.5 -117.5q181 0 238 147q14 41 14 115v361q0 76 -19 118q-27 62 -82.5 95.5t-128.5 33.5q-152 0 -228.5 -121t-76.5 -329z" />
<glyph unicode="e" horiz-adv-x="1052" d="M100 494q0 157 50 275t158 188.5t263 70.5q77 0 140.5 -17t105.5 -43.5t74 -64t49.5 -74t28 -79t13.5 -73t3 -61.5q0 -46 -21.5 -61.5t-60.5 -15.5h-590q-1 -69 5 -130t26 -123t52.5 -106t88.5 -72t129 -28q112 0 180 57t117 160l62 -33q-98 -289 -400 -289 q-473 0 -473 519zM315 616h387q40 0 55 17t15 49q0 30 -3.5 60t-17 70.5t-35 70.5t-62.5 51.5t-95 21.5q-60 0 -106.5 -28t-71.5 -67t-41 -89.5t-20.5 -87.5t-4.5 -68z" />
<glyph unicode="f" horiz-adv-x="653" d="M61 922v82h158v71q0 212 68 316q39 59 107.5 94t152.5 35q115 0 182.5 -46.5t67.5 -103.5q0 -42 -33 -69t-68 -27q-38 0 -55 35q-35 82 -68 110.5t-71 28.5q-16 0 -31 -7t-32.5 -26.5t-27.5 -66.5t-8 -115l9 -229h250v-82h-250v-746q0 -22 0.5 -34.5t4 -26t7.5 -20 t16 -14t23 -10t35 -5.5t46 -4t62 -3v-59h-540v59q42 3 63 5t41.5 7.5t27.5 11t13.5 21t7 30t0.5 44.5v744h-158z" />
<glyph unicode="g" horiz-adv-x="1064" d="M86 -197q0 42 17.5 77.5t39 57t59.5 42t60.5 29t59.5 20.5v4q-73 7 -127 56t-54 104q0 109 189 182v4q-39 10 -75 31.5t-70 57t-55 91.5t-21 125q0 61 23 118.5t70 109.5t132.5 84t197.5 32q73 0 148 -17.5t117 -45.5l262 84l16 -19l-41 -129l-162 -24q27 -27 44.5 -79 t17.5 -114q0 -89 -36.5 -156t-98 -104.5t-132 -55.5t-147.5 -18q-46 0 -104 6q-19 -6 -40 -16.5t-43 -33.5t-22 -50q0 -88 170 -88h164q85 0 154.5 -16t124.5 -50t85.5 -93.5t30.5 -139.5q0 -75 -29 -137t-78 -103.5t-115 -70t-139 -41.5t-151 -13q-123 0 -220.5 30.5 t-159.5 99.5t-62 169zM281 -186q0 -109 81 -173.5t213 -64.5q56 0 107.5 15t93.5 44t67 76.5t25 106.5q0 56 -23 95.5t-66.5 61t-98 30.5t-125.5 9q-139 0 -206.5 -43t-67.5 -157zM317 684q0 -124 60 -193t151 -69q93 0 151 68.5t58 193.5q0 138 -60 205t-145 67 q-92 0 -153.5 -65.5t-61.5 -206.5z" />
<glyph unicode="h" horiz-adv-x="1243" d="M43 0v59q39 3 61 5t41.5 8t27.5 12.5t14 21t7 29.5t1 43v1137q0 54 -12.5 70t-53.5 22l-78 10v51l320 52l14 -13v-635q6 4 37 24.5t37.5 25t33.5 21.5t36 21.5t33 17.5t36.5 16.5t35 11.5t39.5 10.5t39 5t44 2.5q143 0 223 -85.5t80 -240.5v-524q0 -41 3 -60t21 -33 t44.5 -18t84.5 -8v-59h-499v59q59 4 85.5 8t44 18t20.5 33t3 60v484q0 256 -215 256q-79 0 -145 -42.5t-100 -107.5q-19 -37 -19 -111v-479q0 -75 24 -93t130 -26v-59h-498z" />
<glyph unicode="i" horiz-adv-x="595" d="M66 0v59q42 3 63 5t41.5 7.5t27.5 11t13.5 21t7 30t0.5 44.5v645q0 54 -12 70t-53 22l-78 11v51l321 51l15 -12v-838q0 -29 0.5 -44.5t7 -30t14 -20.5t28 -11.5t41.5 -7.5t62 -5v-59h-499zM188 1339q0 55 35 90t90 35t90 -35t35 -90t-35 -90t-90 -35t-90 35t-35 90z" />
<glyph unicode="j" horiz-adv-x="573" d="M-68 -446q95 23 150 57t82 88q53 104 53 375v749q0 52 -12.5 69t-52.5 23l-78 11v51l321 51l15 -12v-1002q0 -81 -8.5 -144.5t-30 -122t-57.5 -101t-92.5 -74.5t-133.5 -49q-90 -19 -151 -19zM188 1339q0 55 35 90t90 35t90 -35t35 -90t-35 -90t-90 -35t-90 35t-35 90z " />
<glyph unicode="k" horiz-adv-x="1073" d="M41 0v59q42 3 63 5t41.5 7.5t28 11t14 20.5t7 30t0.5 45v1137q0 57 -12.5 73t-53.5 21l-78 8v51l322 52l14 -13v-958h4q67 99 309 395q32 38 55 49t74 11h211v-58q-85 -9 -133.5 -28t-105.5 -60q-110 -80 -234 -223q-14 -16 -14.5 -27t8.5 -20q63 -89 168.5 -215 t196.5 -215q88 -88 176 -111v-57l-154 6q-125 8 -221 104q-83 86 -179 205t-157 215h-4v-342q0 -29 1 -44.5t7.5 -30t13.5 -20.5t28 -11.5t42 -7.5t62 -5v-59h-500z" />
<glyph unicode="l" horiz-adv-x="571" d="M41 0v59q42 3 63 5t41.5 7.5t28 11t14 20.5t7 30t0.5 45v1137q0 57 -12.5 73t-53.5 21l-78 8v51l322 52l14 -13v-1329q0 -29 1 -44.5t7.5 -30t13.5 -20.5t28 -11.5t42 -7.5t62 -5v-59h-500z" />
<glyph unicode="m" horiz-adv-x="1890" d="M66 0v59q42 3 63 5t41.5 7.5t27.5 11t13.5 21t7 30t0.5 44.5v645q0 54 -12 70t-53 22l-78 11v51l317 51l19 -156q100 74 153 101q106 55 205 55q102 0 166.5 -40.5t103.5 -117.5q9 6 61 42t86 56t95 40t119 20q146 0 225.5 -85t79.5 -241v-524q0 -29 1 -44.5t7.5 -30 t13.5 -20.5t28 -11.5t42 -7.5t62 -5v-59h-500v59q42 3 63 5t41.5 7.5t27.5 11t13.5 21t7 30t0.5 44.5v484q0 256 -206 256q-83 0 -146.5 -42t-87.5 -106q-14 -38 -14 -113v-479q0 -29 0.5 -44.5t7 -30t14 -20.5t28 -11.5t41.5 -7.5t62 -5v-59h-499v59q42 3 63 5t41.5 7.5 t27.5 11t13.5 21t7 30t0.5 44.5v484q0 44 -3.5 76t-15 68t-32 59t-57.5 38t-88 15q-81 0 -146 -43.5t-96 -108.5q-16 -33 -16 -109v-479q0 -29 0.5 -44.5t7 -30t14 -20.5t28 -11.5t41.5 -7.5t62 -5v-59h-499z" />
<glyph unicode="n" horiz-adv-x="1267" d="M66 0v59q42 3 63 5t41.5 7.5t27.5 11t13.5 21t7 30t0.5 44.5v645q0 54 -12 70t-53 22l-78 11v51l305 51l29 -156q12 7 51.5 33.5t52.5 34.5t46.5 27t52.5 26t49.5 17.5t59 14t60.5 3.5q142 0 221.5 -85.5t79.5 -240.5v-524q0 -29 1 -44.5t7.5 -30t13.5 -20.5t28 -11.5 t42 -7.5t62 -5v-59h-500v59q42 3 63 5t41.5 7.5t28 11t14 20.5t7 30t0.5 45v484q0 256 -215 256q-78 0 -144 -42.5t-100 -105.5q-20 -41 -20 -113v-479q0 -29 0.5 -44.5t7 -30t14 -20.5t28 -11.5t41.5 -7.5t62 -5v-59h-499z" />
<glyph unicode="o" horiz-adv-x="1181" d="M100 502q0 253 124 389.5t368 136.5t367.5 -136.5t123.5 -389.5t-123.5 -390t-367.5 -137t-368 137t-124 390zM313 502q0 -217 70.5 -336t208.5 -119t208 119t70 336t-70 335.5t-208 118.5t-208.5 -118.5t-70.5 -335.5z" />
<glyph unicode="p" horiz-adv-x="1245" d="M51 -412q60 4 85.5 7.5t44 17t21.5 32.5t3 62v1116q0 54 -12.5 70t-53.5 22l-78 11v51l310 51l26 -151q11 7 50.5 34.5t65 42t66 35t82 30t84.5 9.5q77 0 139.5 -21t103 -53t71 -79t46.5 -91t25.5 -97t12 -89t2.5 -74q0 -123 -27.5 -218.5t-73.5 -157t-113 -101.5 t-140 -56t-160 -16q-68 0 -134 14t-100 34v-316q0 -29 1 -44.5t9.5 -30t17 -20.5t33.5 -11.5t50 -7.5t74 -5v-59h-531v59zM397 322q0 -79 15 -125q25 -71 83.5 -110.5t137.5 -39.5q299 0 299 465q0 100 -20 176.5t-49 119t-67 68.5t-68.5 34t-59.5 8q-112 0 -191.5 -71 t-79.5 -190v-335z" />
<glyph unicode="q" horiz-adv-x="1210" d="M100 477q0 263 144 410q138 141 383 141q156 0 270 -63l88 63h55v-1321q0 -28 1 -44t8 -30.5t14.5 -20.5t28.5 -11.5t41 -7.5t61 -5v-59h-510v59q44 3 66 5t44.5 7.5t30 11.5t14.5 20.5t8 30t1 44.5v402q-89 -65 -165.5 -99.5t-156.5 -34.5q-192 0 -309 131t-117 371z M313 504q0 -120 29.5 -211.5t96.5 -149t165 -57.5q176 0 230 152q14 38 14 112v346q0 72 -17 119q-28 75 -83 108t-138 33q-101 0 -169 -61.5t-98 -160.5t-30 -230z" />
<glyph unicode="r" horiz-adv-x="796" d="M66 0v59q41 3 61.5 5t41 7.5t28 11.5t14 20.5t7.5 30t1 44.5v645q0 54 -12 70t-53 22l-78 11v51l311 51l25 -164q108 95 162.5 129.5t107.5 34.5q55 0 82 -30.5t27 -69.5q0 -47 -29 -81t-66 -34q-24 0 -41 10q-80 45 -127 45q-43 0 -79.5 -52t-36.5 -159v-479 q0 -29 1 -44.5t9.5 -30t17.5 -20.5t35.5 -11.5t52.5 -7.5t78 -5v-59h-540z" />
<glyph unicode="s" horiz-adv-x="892" d="M96 342h60q70 -295 299 -295q83 0 136.5 46.5t53.5 123.5q0 40 -15 73t-35.5 54t-54 40t-57.5 28t-59 20q-70 21 -121 44.5t-96 58.5t-68.5 84t-23.5 110q0 143 101 221t271 78q168 0 265 -70v-239h-60q-11 102 -69 169.5t-160 67.5q-79 0 -131.5 -44t-52.5 -121 q0 -33 16 -61t35.5 -45.5t55 -35t56 -24.5t56.5 -19q167 -52 244 -125t77 -202q0 -134 -102 -219t-281 -85q-94 0 -179.5 25.5t-139.5 73.5z" />
<glyph unicode="t" horiz-adv-x="704" d="M63 922v82h156l125 258h59v-258h265v-82h-265v-635q0 -109 38.5 -157t97.5 -48q79 0 145 27l16 -43q-145 -91 -262 -91q-26 0 -51.5 4t-59 18.5t-58 38.5t-41.5 69t-17 104v713h-148z" />
<glyph unicode="u" horiz-adv-x="1241" d="M53 926v51l322 51l14 -12v-697q0 -115 56.5 -174t150.5 -59q80 0 148.5 42t103.5 112q16 32 16 122v461q0 54 -12 70t-53 22l-78 11v51l321 51l15 -12v-838q0 -29 1 -44.5t8 -30t14 -20.5t28 -11.5t41 -7.5t61 -5v-59h-327l-21 123q-1 0 -75 -46.5t-148 -74t-152 -27.5 q-60 0 -110 15.5t-91.5 49.5t-65 96t-23.5 147v540q0 54 -12.5 70t-53.5 22z" />
<glyph unicode="v" horiz-adv-x="1032" d="M2 944v60h459v-60l-92 -10q-29 -3 -36.5 -17t3.5 -43q21 -61 62.5 -179t58.5 -167l125 -344h4l137 379q78 218 102 316q14 50 -30 55l-101 10v60h389v-60q-71 -3 -97.5 -18.5t-49.5 -69.5q-95 -216 -148 -360l-182 -496h-147l-158 442q-103 285 -154 410q-23 56 -47.5 71 t-97.5 21z" />
<glyph unicode="w" horiz-adv-x="1572" d="M-4 944v60h432v-60l-72 -6q-54 -6 -37 -61q23 -76 92 -318.5t111 -376.5h4l238 797h156q161 -510 256 -797h4q173 633 184 684q14 63 -29 68l-116 10v60h403v-60q-79 -5 -107 -24t-53 -95q-10 -31 -48.5 -150.5t-68.5 -212.5t-70.5 -225.5t-70.5 -236.5h-155 q-123 390 -252 780h-6l-242 -780h-156q-74 265 -262 856q-18 56 -43 70.5t-92 17.5z" />
<glyph unicode="x" horiz-adv-x="995" d="M2 0v59q74 5 112.5 21t75.5 67q90 119 240 338q-195 290 -262 383q-35 49 -61 61t-91 15v60h428v-60l-61 -6q-22 -3 -26.5 -17.5t8.5 -33.5l172 -256h2q105 163 163 258q26 42 -14 47l-80 8v60h381v-60q-76 -3 -107.5 -16.5t-70.5 -61.5q-132 -158 -227 -301 q130 -207 280 -422q36 -52 69.5 -66.5t108.5 -17.5v-59h-481v59l86 11q48 6 15 57l-183 285h-4q-134 -202 -180 -293q-23 -44 14 -49l86 -11v-59h-393z" />
<glyph unicode="y" horiz-adv-x="1036" d="M-10 944v60h469v-60l-88 -8q-32 -3 -37.5 -19.5t6.5 -44.5q111 -314 252 -686h4q180 493 227 678q9 31 3 49t-31 21l-107 10v60h393v-60q-74 -4 -98 -22t-53 -82q-48 -110 -167 -425t-212 -583q-30 -87 -63 -150t-60.5 -96.5t-60 -53t-55.5 -24t-52 -4.5q-61 0 -102 34 t-41 73q0 43 30 79t60 36q29 0 61 -29q43 -43 76 -43q51 0 90 86q49 104 49 174q0 53 -16 100q-36 105 -140.5 371.5t-181.5 452.5q-28 67 -54.5 85t-100.5 21z" />
<glyph unicode="z" horiz-adv-x="983" d="M39 31q367 504 645 901h-205q-86 0 -135.5 -9t-82.5 -37t-47.5 -69.5t-25.5 -116.5h-63v304h786l17 -29q-391 -542 -639 -903h264q171 0 238 48.5t92 192.5h63l-20 -313h-871z" />
<glyph unicode="{" horiz-adv-x="696" d="M162 547v61q107 -3 147 59t29 175l-21 192q-5 49 -6 88t3 86t20 81.5t42.5 65t72.5 46.5t108 16h53v-55q-61 -3 -99 -24.5t-52 -56t-17.5 -80.5t4.5 -97l17 -158q12 -127 12 -147q1 -112 -69 -164q-47 -34 -130 -51v-13q104 -21 151.5 -70.5t46.5 -112t-7 -138.5 q-3 -27 -4 -41l-17 -158q-8 -51 -4.5 -97t17.5 -80.5t52 -56t99 -24.5v-55h-53q-62 0 -108 16t-72.5 46.5t-42.5 65t-20 81.5t-3 86t6 88l21 192q13 118 -23.5 176t-152.5 58z" />
<glyph unicode="|" horiz-adv-x="466" d="M164 -512v2048h139v-2048h-139z" />
<glyph unicode="}" horiz-adv-x="696" d="M86 -207q61 3 99 24.5t52 56t17.5 80.5t-4.5 97l-17 158q-12 127 -12 147q-1 112 69 164q47 34 130 51v13q-104 21 -151.5 70.5t-46.5 112t7 138.5q3 27 4 41l17 158q8 51 4.5 97t-17.5 80.5t-52 56t-99 24.5v55h53q62 0 108 -16t72.5 -46.5t42.5 -65t20 -81.5t3 -86 t-6 -88l-21 -192q-13 -116 25.5 -175t151.5 -59v-61q-113 0 -151.5 -59t-25.5 -175l21 -192q5 -49 6 -88t-3 -86t-20 -81.5t-42.5 -65t-72.5 -46.5t-108 -16h-53v55z" />
<glyph unicode="~" horiz-adv-x="1167" d="M150 410q22 46 42 78t52 67.5t75.5 53.5t96.5 18q72 0 190 -47q6 -2 30 -11t32.5 -12t28 -9.5t30 -8.5t25 -4.5t26.5 -2.5q50 0 81 24t77 93l82 -51q-46 -101 -104.5 -154t-141.5 -53q-58 0 -191 47t-188 47q-56 0 -91 -30t-69 -97z" />
<glyph unicode="&#xa1;" horiz-adv-x="495" d="M119 899q2 57 36 93t93 36q58 0 93.5 -36.5t35.5 -92.5q0 -58 -35.5 -95.5t-93.5 -37.5q-59 0 -94 37.5t-35 95.5zM133 -307l86 882h60l81 -882q7 -76 -13.5 -106.5t-98.5 -30.5q-80 0 -101 30.5t-14 106.5z" />
<glyph unicode="&#xa2;" d="M76 709q0 107 24 192.5t66 143.5t101 98.5t125 60t143 23.5v155h81v-155q83 -1 149.5 -16t106 -37t65.5 -50.5t36 -53t10 -46.5q0 -43 -32.5 -69.5t-73.5 -26.5q-22 0 -36 11t-26 38q-25 56 -52.5 93.5t-55.5 54t-47.5 22.5t-43.5 8v-874q109 -2 186.5 39t141.5 153 l53 -33q-52 -129 -154 -194.5t-227 -67.5v-198h-81v198q-223 0 -341 135t-118 396zM276 729q0 -387 259 -442v868q-22 -2 -38 -4.5t-45 -13t-50.5 -27.5t-46.5 -49t-41 -75t-27 -109t-11 -148z" />
<glyph unicode="&#xa3;" d="M55 10l37 82q67 22 118 45.5t103 58t80.5 81t28.5 102.5q0 101 -70 217h-243v78h208q-36 65 -56 105.5t-42 110.5t-22 130q0 167 112.5 270t282.5 103q153 0 245.5 -68.5t92.5 -153.5q0 -39 -29.5 -62.5t-60.5 -23.5q-29 0 -41.5 8t-18.5 29q-28 94 -83.5 146.5 t-129.5 52.5q-89 0 -141.5 -60.5t-52.5 -154.5q0 -42 11.5 -89.5t22.5 -79.5t42 -92t43 -80.5t53 -90.5h311v-78h-278q3 -13 7 -27t4.5 -18t2 -9.5t1.5 -9.5t1 -10t2 -18t2 -27q0 -98 -53 -173t-172 -140v-8h461q18 0 32.5 2.5t28 10.5t22 13.5t20.5 20t17 21t18 25.5t17 25 l55 -18l-102 -256h-879z" />
<glyph unicode="&#xa4;" d="M86 207q-76 61 16 133l80 61q-94 119 -94 283t94 283l-80 61q-92 72 -16 133q38 29 67.5 21t59.5 -52l55 -79q99 94 275 94q175 0 274 -94l55 79q30 44 59.5 52t67.5 -21q76 -61 -16 -133l-80 -61q94 -119 94 -283t-94 -283l80 -61q92 -72 16 -133q-38 -29 -67.5 -21 t-59.5 52l-55 79q-99 -94 -274 -94q-176 0 -275 94l-55 -79q-30 -44 -59.5 -52t-67.5 21zM236 684q0 -151 87 -251.5t220 -100.5t220 100.5t87 251.5t-87 251.5t-220 100.5t-220 -100.5t-87 -251.5z" />
<glyph unicode="&#xa5;" d="M-4 1309v59h448v-59l-96 -9q-46 -6 -24 -51l251 -536q28 63 114 252t116 266q12 29 8.5 45.5t-29.5 19.5l-112 13v59h403v-59l-57 -9q-40 -6 -62 -24t-53 -70q-75 -122 -241 -493h307v-78h-336q-12 -27 -12 -113v-61h348v-78h-348v-205q0 -29 1 -43.5t8.5 -29.5 t17.5 -20.5t34.5 -12t53 -8.5t79.5 -5v-59h-575v59q51 3 80 5t53.5 8.5t34.5 12t17 21t8 29.5t1 43v205h-348v78h348v59q0 76 -20 115h-328v78h299l-248 512q-20 40 -40 57.5t-48 20.5z" />
<glyph unicode="&#xa6;" horiz-adv-x="466" d="M164 -358v716h139v-716h-139zM164 666v716h139v-716h-139z" />
<glyph unicode="&#xa7;" horiz-adv-x="1134" d="M94 778q0 100 48 197t130 176q3 50 23 99t58.5 95t108 74.5t159.5 28.5q111 0 193.5 -44.5t82.5 -107.5q0 -39 -27.5 -60.5t-60.5 -21.5q-35 0 -55 33q-74 129 -183 129q-72 0 -116.5 -46.5t-44.5 -108.5q0 -22 2 -37t16.5 -43.5t41 -54t79.5 -63t129 -77.5 q188 -99 274 -203.5t86 -259.5q0 -195 -143 -379q3 -139 -96 -239.5t-267 -100.5q-126 0 -219.5 51.5t-95.5 116.5q0 41 27.5 68t68.5 27q33 0 56 -39q51 -87 103.5 -117.5t117.5 -30.5t113.5 49t48.5 125q0 40 -11.5 73.5t-42.5 74t-95 85t-161 93.5q-103 52 -172.5 105 t-107 108t-53 108t-15.5 117zM201 854q0 -196 307 -358q153 -79 237.5 -147.5t120.5 -145.5q31 24 49.5 72t18.5 110q0 110 -80 212t-209 173q-15 9 -58.5 34t-58.5 34t-50.5 31t-50.5 34t-41 33t-39 38t-27 39.5t-23 45.5q-43 -31 -69.5 -87t-26.5 -118z" />
<glyph unicode="&#xa8;" horiz-adv-x="819" d="M74 1284q0 47 33 81t90 34t89.5 -34t32.5 -81q0 -48 -32.5 -82.5t-89.5 -34.5t-90 35t-33 82zM500 1284q0 47 33 81t90 34t89.5 -34t32.5 -81q0 -48 -32.5 -82.5t-89.5 -34.5t-90 35t-33 82z" />
<glyph unicode="&#xa9;" horiz-adv-x="1675" d="M92 709q0 151 59 288t159 235.5t238 157t290 58.5t290 -58.5t237.5 -157t158.5 -235.5t59 -288t-59 -288t-158.5 -236t-237.5 -157.5t-290 -58.5t-290 58.5t-238 157.5t-159 236t-59 288zM223 709q0 -178 81.5 -327t223 -235t310.5 -86t310.5 86t222.5 235t81 327 q0 134 -48 253.5t-129.5 206t-195.5 137t-241 50.5q-169 0 -310.5 -85.5t-223 -234.5t-81.5 -327zM449 713q0 191 111.5 302t320.5 111q76 0 151 -16.5t121 -46.5v-201h-41q-8 46 -21.5 80t-39 64.5t-69.5 46.5t-105 16q-90 0 -151 -48.5t-86.5 -122t-25.5 -167.5 q0 -55 8 -105.5t27.5 -99.5t50 -84.5t78.5 -57.5t109 -22q99 0 155 50.5t86 160.5h41l-22 -204q-87 -64 -281 -64q-110 0 -191.5 31t-130 87t-72 128.5t-23.5 161.5z" />
<glyph unicode="&#xaa;" horiz-adv-x="798" d="M82 727q0 54 34 90t128 68q1 0 237 80v77q0 56 -29 82.5t-69 26.5q-38 0 -72.5 -24t-54.5 -80q-4 -14 -11 -25.5t-19 -20t-27 -8.5q-29 0 -59.5 19.5t-30.5 46.5q0 38 38 72t104 55.5t142 21.5q61 0 105.5 -10.5t68 -26t37 -39.5t16.5 -43t3 -45v-315q0 -99 51 -111 q23 -5 65 0l6 -36q-93 -37 -170 -37q-69 0 -94 78q-3 -2 -27 -17.5t-37 -22.5t-37.5 -18.5t-48.5 -16.5t-48 -5q-96 0 -148.5 53t-52.5 131zM244 741q0 -55 31 -90.5t90 -36.5q20 2 38.5 9.5t37 22t29.5 42t11 62.5v159q-56 -14 -129 -43q-38 -14 -61 -30.5t-35 -40 t-12 -54.5z" />
<glyph unicode="&#xab;" horiz-adv-x="905" d="M84 489q0 21 10 31l307 371l41 -35l-161 -334q-9 -15 -9 -33t9 -36l161 -336l-41 -33l-307 373q-10 13 -10 32zM463 489q0 21 10 31l307 371l41 -35l-162 -334q-8 -13 -8 -33t8 -36l162 -336l-41 -33l-307 373q-10 13 -10 32z" />
<glyph unicode="&#xac;" horiz-adv-x="1167" d="M88 678v119h991v-588h-139v469h-852z" />
<glyph unicode="&#xad;" horiz-adv-x="802" d="M152 442v144h501v-144h-501z" />
<glyph unicode="&#xae;" horiz-adv-x="1675" d="M92 709q0 151 59 288t159 235.5t238 157t290 58.5t290 -58.5t237.5 -157t158.5 -235.5t59 -288t-59 -288t-158.5 -236t-237.5 -157.5t-290 -58.5t-290 58.5t-238 157.5t-159 236t-59 288zM223 709q0 -178 81.5 -327t223 -235t310.5 -86t310.5 86t222.5 235t81 327 q0 134 -48 253.5t-129.5 206t-195.5 137t-241 50.5q-169 0 -310.5 -85.5t-223 -234.5t-81.5 -327zM500 326v41l63 8q25 3 33 16t8 41v563q0 31 -8 44.5t-33 17.5l-63 8v41h368q267 0 267 -193q0 -81 -54 -130.5t-145 -63.5v-4q44 -11 74 -30t46.5 -47.5t24.5 -54t15 -65.5 q13 -79 55 -127q21 -21 72 -35v-30h-90q-64 0 -99 22t-51 66q-12 35 -21.5 82.5t-15.5 76t-20 57t-43 41.5t-76 13h-70v-252q0 -28 9.5 -41t35.5 -16l62 -8v-41h-344zM737 741h78q176 0 176 156q0 152 -162 152q-60 0 -76 -9t-16 -34v-265z" />
<glyph unicode="&#xaf;" horiz-adv-x="819" d="M115 1223v120h590v-120h-590z" />
<glyph unicode="&#xb0;" horiz-adv-x="716" d="M76 1110q0 116 83.5 199.5t198.5 83.5q116 0 199.5 -83.5t83.5 -199.5t-83.5 -199.5t-199.5 -83.5q-115 0 -198.5 83.5t-83.5 199.5zM190 1110q0 -77 50 -130.5t118 -53.5t118 53.5t50 130.5t-50 130.5t-118 53.5t-118 -53.5t-50 -130.5z" />
<glyph unicode="&#xb1;" horiz-adv-x="1167" d="M88 0v119h991v-119h-991zM88 637v119h428v383h139v-383h424v-119h-424v-404h-139v404h-428z" />
<glyph unicode="&#xb2;" horiz-adv-x="778" d="M66 578q23 162 272 333q164 113 164 281q0 64 -29 103.5t-84 39.5q-107 0 -141 -164q-5 -26 -16.5 -37.5t-36.5 -11.5q-34 0 -63.5 21.5t-29.5 52.5q0 76 78.5 136.5t214.5 60.5q133 0 208 -57t75 -167q0 -92 -62.5 -157t-209.5 -146q-148 -82 -187 -188h332 q47 0 70 15.5t45 56.5l47 -11l-56 -182h-573z" />
<glyph unicode="&#xb3;" horiz-adv-x="778" d="M74 698q0 36 29.5 63t62.5 27q35 0 47 -40q48 -148 162 -148q64 0 103.5 44t39.5 142q0 54 -16.5 91.5t-42 53t-45 21.5t-37.5 6q-37 0 -75.5 -7t-41.5 -7q-35 0 -35 47q0 49 35 49q3 0 41.5 -7t75.5 -7q58 0 85 46t27 110q0 23 -4.5 46t-15.5 49t-36 42t-60 16 q-52 0 -82.5 -38t-50.5 -115q-10 -37 -47 -37q-30 0 -57 21.5t-27 54.5q0 65 76.5 118.5t197.5 53.5q50 0 96 -10t87.5 -32.5t66 -63.5t24.5 -97q0 -46 -18 -81.5t-48 -56.5t-57.5 -33t-56.5 -18v-4q29 -2 62.5 -13.5t70 -34.5t60.5 -66.5t24 -100.5q0 -116 -87.5 -177.5 t-248.5 -61.5q-122 0 -203 45.5t-81 109.5z" />
<glyph unicode="&#xb4;" horiz-adv-x="819" d="M264 1151l244 246q81 84 131 84q24 0 52 -29t28 -59q0 -29 -30 -55t-85 -56l-309 -172z" />
<glyph unicode="&#xb5;" horiz-adv-x="1241" d="M53 926v51l322 51l14 -12v-697q0 -115 56.5 -174t150.5 -59q80 0 148.5 42t103.5 112q16 32 16 122v461q0 54 -12 70t-53 22l-78 11v51l321 51l15 -12v-838q0 -41 3 -60t21 -33t44.5 -18t84.5 -8v-59h-327l-21 123q-9 -4 -73.5 -47.5t-132 -72t-136.5 -28.5 q-75 0 -123 16.5t-88 51.5h-4v-68q0 -105 60 -223q51 -96 53 -131q3 -49 -48.5 -87t-99.5 -38q-35 0 -54 20.5t-19 75.5v1231q0 54 -12.5 70t-53.5 22z" />
<glyph unicode="&#xb6;" horiz-adv-x="1136" d="M131 954q0 203 119.5 333t320.5 130h25v-905h-33q-188 0 -310 125.5t-122 316.5zM537 -154l151 19q31 5 43 22t12 60v1470h340v-53l-139 -18q-31 -5 -43 -19.5t-12 -56.5v-1477h-352v53z" />
<glyph unicode="&#xb7;" horiz-adv-x="542" d="M143 514q0 58 35.5 95.5t93.5 37.5q59 0 94 -37.5t35 -95.5q-2 -57 -36 -93t-93 -36q-58 0 -93.5 36.5t-35.5 92.5z" />
<glyph unicode="&#xb8;" horiz-adv-x="819" d="M334 -412q81 0 130.5 27.5t49.5 87.5q0 104 -127 111l-8 14l94 172h84l-65 -113q33 -4 61.5 -14t57.5 -29t46 -54t17 -81q0 -45 -20.5 -79t-49 -52.5t-65.5 -30t-64 -15t-51 -3.5q-46 0 -90 6v53z" />
<glyph unicode="&#xb9;" horiz-adv-x="778" d="M166 557v45l113 10q43 3 43 54v579q0 44 -31 49l-125 17v39l293 43l14 -9v-718q0 -51 45 -54l111 -10v-45h-463z" />
<glyph unicode="&#xba;" horiz-adv-x="815" d="M72 874q0 161 84.5 247.5t249.5 86.5q168 0 252.5 -86.5t84.5 -247.5q0 -159 -84.5 -245t-252.5 -86q-165 0 -249.5 86t-84.5 245zM242 874q7 -274 164 -274q86 0 125 70.5t42 203.5q-3 135 -42 206t-125 71q-157 0 -164 -277z" />
<glyph unicode="&#xbb;" horiz-adv-x="905" d="M84 117l162 336q8 16 8 36t-8 33l-162 334l41 35l307 -371q10 -13 10 -31q0 -15 -10 -32l-307 -373zM463 117l162 336q8 16 8 36t-8 33l-162 334l41 35l307 -371q10 -13 10 -31q0 -15 -10 -32l-307 -373z" />
<glyph unicode="&#xbc;" horiz-adv-x="1761" d="M133 557v45l113 10q43 3 43 54v579q0 44 -31 49l-125 17v39l293 43l14 -9v-718q0 -51 45 -54l111 -10v-45h-463zM408 0l876 1423l78 -49l-881 -1429zM979 244q88 146 206.5 319.5t186.5 257.5h125v-545h131v-67h-131v-100q0 -51 45 -54l70 -10v-45h-402v45l93 10 q43 3 43 54v100h-345zM1090 276h256v406h-5q-143 -217 -251 -406z" />
<glyph unicode="&#xbd;" horiz-adv-x="1761" d="M119 557v45l112 10q43 3 43 54v579q0 44 -30 49l-125 17v39l293 43l14 -9v-718q0 -51 45 -54l111 -10v-45h-463zM352 0l877 1423l78 -49l-881 -1429zM1006 20q23 163 272 334q164 113 164 281q0 64 -29 103.5t-84 39.5q-107 0 -141 -164q-5 -26 -16.5 -37.5t-36.5 -11.5 q-34 0 -63.5 21.5t-29.5 52.5q0 76 78.5 136.5t214.5 60.5q133 0 208 -57t75 -167q0 -92 -62.5 -157t-209.5 -146q-148 -82 -187 -188h332q47 0 70 15.5t45 56.5l47 -11l-56 -182h-573z" />
<glyph unicode="&#xbe;" horiz-adv-x="1761" d="M102 698q0 36 29.5 63t63.5 27q35 0 47 -40q48 -148 161 -148q64 0 104 44t40 142q0 54 -16.5 91.5t-42 53t-45 21.5t-37.5 6q-37 0 -75.5 -7t-41.5 -7q-35 0 -35 47q0 49 35 49q3 0 41.5 -7t75.5 -7q58 0 85 46t27 110q0 23 -4.5 46t-16 49t-36.5 42t-60 16 q-52 0 -82.5 -38t-50.5 -115q-10 -37 -47 -37q-30 0 -57 21.5t-27 54.5q0 65 77 118.5t198 53.5q50 0 96 -10t87.5 -32.5t66 -63.5t24.5 -97q0 -46 -18 -81.5t-48 -56.5t-57.5 -33t-56.5 -18v-4q29 -2 62.5 -13.5t70 -34.5t60.5 -66.5t24 -100.5q0 -116 -87.5 -177.5 t-248.5 -61.5q-123 0 -204 45.5t-81 109.5zM465 0l876 1423l78 -49l-880 -1429zM1006 244q88 146 206.5 319.5t186.5 257.5h125v-545h131v-67h-131v-100q0 -51 45 -54l69 -10v-45h-401v45l92 10q43 3 43 54v100h-344zM1116 276h256v406h-4q-151 -228 -252 -406z" />
<glyph unicode="&#xbf;" horiz-adv-x="796" d="M61 -166q1 24 5.5 47t9.5 41.5t16.5 38t19 32t23.5 29t24 24.5t27 23t24.5 19t25.5 17.5t22 15.5q156 110 156 235q0 40 -15.5 71t-38.5 47t-45.5 24t-40.5 8q-33 0 -61 -8l-16 41q70 57 196 57q89 0 154 -53.5t65 -145.5q0 -67 -35.5 -116.5t-130.5 -122.5 q-76 -58 -129 -145.5t-53 -178.5q0 -95 32 -151t99 -56q127 0 168 219q9 50 66 50q35 0 71.5 -26t36.5 -77q0 -29 -18 -65.5t-55.5 -76t-110.5 -67t-168 -28.5q-144 0 -232.5 70.5t-91.5 207.5zM281 901q0 56 35 91.5t92 35.5t91 -35t36 -92q0 -56 -34.5 -92.5t-92.5 -36.5 q-56 0 -91.5 36.5t-35.5 92.5z" />
<glyph unicode="&#xc0;" horiz-adv-x="1300" d="M-59 0v59q50 2 78 8t49.5 24.5t33 40.5t29.5 69q60 154 221 610l215 606h152l434 -1235q12 -33 22 -52.5t21.5 -33.5t32 -20.5t41 -10t61.5 -6.5v-59h-524v59l92 9q48 4 59.5 24t-4.5 64l-137 391h-459q-103 -318 -125 -395q-13 -41 -2.5 -59.5t54.5 -22.5l106 -11v-59 h-450zM342 1716q-3 30 19.5 66t46.5 41q24 4 51 -7.5t82 -48.5l297 -202l-23 -45l-348 114q-72 23 -97 38.5t-28 43.5zM385 625h408l-203 585h-6q-6 -18 -83 -240.5t-116 -344.5z" />
<glyph unicode="&#xc1;" horiz-adv-x="1300" d="M-59 0v59q50 2 78 8t49.5 24.5t33 40.5t29.5 69q60 154 221 610l215 606h152l434 -1235q12 -33 22 -52.5t21.5 -33.5t32 -20.5t41 -10t61.5 -6.5v-59h-524v59l92 9q48 4 59.5 24t-4.5 64l-137 391h-459q-103 -318 -125 -395q-13 -41 -2.5 -59.5t54.5 -22.5l106 -11v-59 h-450zM385 625h408l-203 585h-6q-6 -18 -83 -240.5t-116 -344.5zM440 1565l297 202q55 37 82 48.5t51 7.5q24 -5 46.5 -41t19.5 -66q-3 -28 -28 -43.5t-97 -38.5l-348 -114z" />
<glyph unicode="&#xc2;" horiz-adv-x="1300" d="M-59 0v59q50 2 78 8t49.5 24.5t33 40.5t29.5 69q60 154 221 610l215 606h152l434 -1235q12 -33 22 -52.5t21.5 -33.5t32 -20.5t41 -10t61.5 -6.5v-59h-524v59l92 9q48 4 59.5 24t-4.5 64l-137 391h-459q-103 -318 -125 -395q-13 -41 -2.5 -59.5t54.5 -22.5l106 -11v-59 h-450zM338 1511l237 234l5 5q43 40 63 43q4 1 8 1q12 0 26.5 -8.5t22 -15t27.5 -25.5l238 -234l-27 -43l-219 125q-56 29 -68 29q-11 0 -67 -29l-219 -125zM385 625h408l-203 585h-6q-6 -18 -83 -240.5t-116 -344.5z" />
<glyph unicode="&#xc3;" horiz-adv-x="1300" d="M-59 0v59q50 2 78 8t49.5 24.5t33 40.5t29.5 69q60 154 221 610l215 606h152l434 -1235q12 -33 22 -52.5t21.5 -33.5t32 -20.5t41 -10t61.5 -6.5v-59h-524v59l92 9q48 4 59.5 24t-4.5 64l-137 391h-459q-103 -318 -125 -395q-13 -41 -2.5 -59.5t54.5 -22.5l106 -11v-59 h-450zM287 1507q13 26 19 37.5t21 37.5t26 39t30.5 33t37.5 29.5t43 17t52 7.5q48 0 160.5 -39t157.5 -39q41 0 67.5 19t71.5 75l41 -22q-50 -100 -97 -147.5t-116 -47.5q-45 0 -164 39t-164 39q-49 0 -80 -23.5t-67 -80.5zM385 625h408l-203 585h-6q-6 -18 -83 -240.5 t-116 -344.5z" />
<glyph unicode="&#xc4;" horiz-adv-x="1300" d="M-59 0v59q50 2 78 8t49.5 24.5t33 40.5t29.5 69q60 154 221 610l215 606h152l434 -1235q12 -33 22 -52.5t21.5 -33.5t32 -20.5t41 -10t61.5 -6.5v-59h-524v59l92 9q48 4 59.5 24t-4.5 64l-137 391h-459q-103 -318 -125 -395q-13 -41 -2.5 -59.5t54.5 -22.5l106 -11v-59 h-450zM319 1612q0 45 32 77.5t87 32.5q56 0 87.5 -32t31.5 -78t-32 -79.5t-87 -33.5q-54 0 -86.5 33.5t-32.5 79.5zM385 625h408l-203 585h-6q-6 -18 -83 -240.5t-116 -344.5zM745 1612q0 45 32 77.5t87 32.5q56 0 87.5 -32t31.5 -78t-32 -79.5t-87 -33.5q-54 0 -86.5 33.5 t-32.5 79.5z" />
<glyph unicode="&#xc5;" horiz-adv-x="1284" d="M-66 0v59q65 3 98.5 16.5t51 39t41.5 86.5q60 154 221 610l199 555q-127 41 -127 190q0 107 63.5 157t157.5 50t157.5 -50t63.5 -157q0 -151 -131 -192l418 -1182q12 -33 22 -52.5t21.5 -33.5t32 -20.5t41 -10t61.5 -6.5v-59h-524v59l92 9q48 4 59.5 24t-4.5 64l-137 391 h-459q-103 -318 -125 -395q-13 -41 -2.5 -59.5t54.5 -22.5l106 -11v-59h-451zM379 625h407l-202 585h-6q-6 -18 -83 -240.5t-116 -344.5zM537 1556q0 -139 102 -139t102 139q0 140 -102 140t-102 -140z" />
<glyph unicode="&#xc6;" horiz-adv-x="1794" d="M-129 0v59q86 8 119 24.5t67 74.5q50 84 102.5 180.5t126 235t130.5 241.5l252 461q19 37 13 52.5t-38 17.5l-154 12v59h1170v-336h-62q-12 85 -27.5 132t-50.5 79.5t-88 43t-143 10.5h-201q-49 0 -62 -13.5t-13 -60.5v-496h286q44 0 74 3.5t51.5 14.5t33.5 21.5t20.5 35 t12 43.5t9.5 58h62v-432h-62q-6 40 -9.5 59t-12 44t-20.5 35.5t-33.5 21.5t-51.5 14.5t-74 3.5h-286v-442q0 -70 12 -106.5t43 -51.5q56 -26 209 -26q69 0 115 3.5t90 14t72 29.5t52.5 51t40 76.5t27.5 107.5h62l-25 -354h-1081v59q38 3 59 4.5t44.5 5.5t33.5 7t21.5 11.5 t14.5 15.5t7 22.5t4 29.5v40v503h-352q-252 -485 -283 -567q-20 -51 31 -57l135 -15v-59h-473zM500 776h313v559h-12q-72 -131 -178 -330t-123 -229z" />
<glyph unicode="&#xc7;" horiz-adv-x="1392" d="M98 698q0 330 187 539q92 103 240 157t337 54q132 0 245.5 -22.5t188.5 -57.5v-319h-61q-28 174 -128 250.5t-265 76.5q-111 1 -199.5 -37t-146.5 -101.5t-96.5 -151t-55 -182t-16.5 -199.5q0 -57 6 -115t21.5 -125t40 -126t65 -114.5t92 -95.5t125 -64t160.5 -24 q79 0 142.5 18.5t108.5 50t80 79.5t58 100.5t41 120.5h61l-29 -342q-76 -41 -204 -70t-250 -29l-47 -82q33 -4 61.5 -14t57.5 -29t46 -54t17 -81q0 -45 -20.5 -79t-49 -52.5t-65.5 -30t-64 -15t-51 -3.5q-47 0 -90 6v53q81 0 130.5 27.5t49.5 87.5q0 104 -127 111l-8 14 l80 145q-316 13 -473 170q-94 94 -144.5 235.5t-50.5 319.5z" />
<glyph unicode="&#xc8;" horiz-adv-x="1241" d="M72 0v59q52 3 77 5t50 9t33 12.5t15.5 22.5t8 32.5t0.5 49.5v1037q0 34 -0.5 49.5t-8 32.5t-15.5 22.5t-33 12.5t-50 9t-77 5v59h1034v-336h-62q-12 85 -27.5 132t-50.5 79.5t-88 43t-143 10.5h-200q-50 0 -63 -12.5t-13 -61.5v-496h286q44 0 74 3.5t51.5 14.5t33.5 21.5 t20.5 35t12 43.5t9.5 58h62v-432h-62q-6 40 -9.5 59t-12 44t-20.5 35.5t-33.5 21.5t-51.5 14.5t-74 3.5h-286v-452q0 -78 10 -109.5t41 -44.5q54 -20 213 -20q84 0 136.5 5.5t100 21.5t75.5 48t49.5 81.5t35.5 125.5h62l-25 -354h-1085zM301 1716q-3 30 19.5 66t46.5 41 q24 4 51 -7.5t82 -48.5l297 -202l-23 -45l-348 114q-72 23 -97 38.5t-28 43.5z" />
<glyph unicode="&#xc9;" horiz-adv-x="1241" d="M72 0v59q52 3 77 5t50 9t33 12.5t15.5 22.5t8 32.5t0.5 49.5v1037q0 34 -0.5 49.5t-8 32.5t-15.5 22.5t-33 12.5t-50 9t-77 5v59h1034v-336h-62q-12 85 -27.5 132t-50.5 79.5t-88 43t-143 10.5h-200q-50 0 -63 -12.5t-13 -61.5v-496h286q44 0 74 3.5t51.5 14.5t33.5 21.5 t20.5 35t12 43.5t9.5 58h62v-432h-62q-6 40 -9.5 59t-12 44t-20.5 35.5t-33.5 21.5t-51.5 14.5t-74 3.5h-286v-452q0 -78 10 -109.5t41 -44.5q54 -20 213 -20q84 0 136.5 5.5t100 21.5t75.5 48t49.5 81.5t35.5 125.5h62l-25 -354h-1085zM475 1565l297 202q55 37 82 48.5 t51 7.5q24 -5 46.5 -41t19.5 -66q-3 -28 -28 -43.5t-97 -38.5l-348 -114z" />
<glyph unicode="&#xca;" horiz-adv-x="1241" d="M72 0v59q52 3 77 5t50 9t33 12.5t15.5 22.5t8 32.5t0.5 49.5v1037q0 34 -0.5 49.5t-8 32.5t-15.5 22.5t-33 12.5t-50 9t-77 5v59h1034v-336h-62q-12 85 -27.5 132t-50.5 79.5t-88 43t-143 10.5h-200q-50 0 -63 -12.5t-13 -61.5v-496h286q44 0 74 3.5t51.5 14.5t33.5 21.5 t20.5 35t12 43.5t9.5 58h62v-432h-62q-6 40 -9.5 59t-12 44t-20.5 35.5t-33.5 21.5t-51.5 14.5t-74 3.5h-286v-452q0 -78 10 -109.5t41 -44.5q54 -20 213 -20q84 0 136.5 5.5t100 21.5t75.5 48t49.5 81.5t35.5 125.5h62l-25 -354h-1085zM307 1511l238 234l5 5q43 40 63 43 q4 1 8 1t8 -0.5t8.5 -2.5t8 -4t8.5 -5.5t8 -5.5t8.5 -7t8 -7.5t9 -8.5t8.5 -8l238 -234l-27 -43l-219 125q-6 3 -18.5 10t-19 10t-15 6t-14.5 3q-12 0 -68 -29l-219 -125z" />
<glyph unicode="&#xcb;" horiz-adv-x="1241" d="M72 0v59q52 3 77 5t50 9t33 12.5t15.5 22.5t8 32.5t0.5 49.5v1037q0 34 -0.5 49.5t-8 32.5t-15.5 22.5t-33 12.5t-50 9t-77 5v59h1034v-336h-62q-12 85 -27.5 132t-50.5 79.5t-88 43t-143 10.5h-200q-50 0 -63 -12.5t-13 -61.5v-496h286q44 0 74 3.5t51.5 14.5t33.5 21.5 t20.5 35t12 43.5t9.5 58h62v-432h-62q-6 40 -9.5 59t-12 44t-20.5 35.5t-33.5 21.5t-51.5 14.5t-74 3.5h-286v-452q0 -78 10 -109.5t41 -44.5q54 -20 213 -20q84 0 136.5 5.5t100 21.5t75.5 48t49.5 81.5t35.5 125.5h62l-25 -354h-1085zM289 1612q0 45 32 77.5t87 32.5 q56 0 87 -32t31 -78t-31.5 -79.5t-86.5 -33.5q-54 0 -86.5 33.5t-32.5 79.5zM715 1612q0 45 32 77.5t87 32.5q56 0 87 -32t31 -78t-31.5 -79.5t-86.5 -33.5q-54 0 -86.5 33.5t-32.5 79.5z" />
<glyph unicode="&#xcc;" horiz-adv-x="714" d="M37 1716q-3 30 19 66t46 41q24 4 51.5 -7.5t82.5 -48.5l296 -202l-22 -45l-348 114q-72 23 -97 38.5t-28 43.5zM72 0v59q52 3 77 5t50 9t33 12.5t15.5 22.5t8 32.5t0.5 49.5v1037q0 34 -0.5 49.5t-8 32.5t-15.5 22.5t-33 12.5t-50 9t-77 5v59h571v-59q-52 -3 -76.5 -5 t-50 -9t-33 -12.5t-15.5 -22.5t-8.5 -33t-0.5 -49v-1037q0 -33 0.5 -49t8.5 -33t15.5 -22.5t33 -12.5t50 -9t76.5 -5v-59h-571z" />
<glyph unicode="&#xcd;" horiz-adv-x="714" d="M72 0v59q52 3 77 5t50 9t33 12.5t15.5 22.5t8 32.5t0.5 49.5v1037q0 34 -0.5 49.5t-8 32.5t-15.5 22.5t-33 12.5t-50 9t-77 5v59h571v-59q-52 -3 -76.5 -5t-50 -9t-33 -12.5t-15.5 -22.5t-8.5 -33t-0.5 -49v-1037q0 -33 0.5 -49t8.5 -33t15.5 -22.5t33 -12.5t50 -9 t76.5 -5v-59h-571zM182 1565l297 202q55 37 82 48.5t51 7.5q24 -5 46.5 -41t19.5 -66q-3 -28 -28 -43.5t-97 -38.5l-348 -114z" />
<glyph unicode="&#xce;" horiz-adv-x="714" d="M45 1511l238 234q2 2 8 7.5t8.5 8t7.5 7t7.5 6.5t7 5.5t7.5 5t7 4t7.5 3.5t7 1.5t7.5 0.5q12 0 26.5 -8.5t22 -15t27.5 -25.5l238 -234l-27 -43l-219 125q-56 29 -68 29q-11 0 -67 -29l-219 -125zM72 0v59q52 3 77 5t50 9t33 12.5t15.5 22.5t8 32.5t0.5 49.5v1037 q0 34 -0.5 49.5t-8 32.5t-15.5 22.5t-33 12.5t-50 9t-77 5v59h571v-59q-52 -3 -76.5 -5t-50 -9t-33 -12.5t-15.5 -22.5t-8.5 -33t-0.5 -49v-1037q0 -33 0.5 -49t8.5 -33t15.5 -22.5t33 -12.5t50 -9t76.5 -5v-59h-571z" />
<glyph unicode="&#xcf;" horiz-adv-x="714" d="M27 1612q0 45 32 77.5t86 32.5q56 0 87.5 -32t31.5 -78t-32 -79.5t-87 -33.5q-54 0 -86 33.5t-32 79.5zM72 0v59q52 3 77 5t50 9t33 12.5t15.5 22.5t8 32.5t0.5 49.5v1037q0 34 -0.5 49.5t-8 32.5t-15.5 22.5t-33 12.5t-50 9t-77 5v59h571v-59q-52 -3 -76.5 -5t-50 -9 t-33 -12.5t-15.5 -22.5t-8.5 -33t-0.5 -49v-1037q0 -33 0.5 -49t8.5 -33t15.5 -22.5t33 -12.5t50 -9t76.5 -5v-59h-571zM453 1612q0 45 32 77.5t86 32.5q56 0 87.5 -32t31.5 -78t-32 -79.5t-87 -33.5q-54 0 -86 33.5t-32 79.5z" />
<glyph unicode="&#xd0;" horiz-adv-x="1607" d="M41 698v78h227v451q0 34 -0.5 49.5t-8 32.5t-15.5 22.5t-33 12.5t-50 9t-77 5v59h680q189 -2 326 -44t235 -134q184 -178 184 -506q0 -193 -56 -335.5t-161.5 -228.5t-247 -127.5t-321.5 -41.5h-639v59q52 3 77 5t50 9t33 12.5t15.5 22.5t8 32.5t0.5 49.5v508h-227z M471 256q0 -63 7.5 -97.5t33 -55t63 -26t109.5 -5.5q108 0 194.5 18t163.5 63.5t128 118.5t80.5 187.5t29.5 265.5q0 108 -17 197t-57.5 168.5t-105 134t-163.5 87t-228 34.5q-71 0 -109.5 -2.5t-68 -8t-40.5 -20t-15.5 -33t-4.5 -53.5v-453h283v-78h-283v-442z" />
<glyph unicode="&#xd1;" horiz-adv-x="1597" d="M70 1358v59h393q283 -404 799 -1130l4 -4v718q0 152 -15 254q-8 60 -46 77.5t-148 25.5v59h485v-59q-89 -7 -124.5 -25t-43.5 -78q-14 -95 -14 -254v-1001h-135q-279 398 -873 1233h-4v-817q0 -159 14 -254q8 -60 46.5 -77.5t148.5 -25.5v-59h-485v59q89 7 124.5 25 t43.5 78q14 95 14 254v811q0 34 -0.5 49.5t-8 32.5t-15.5 22.5t-33 12.5t-50 9t-77 5zM446 1507q13 25 19 37.5t21 37.5t26.5 39t30.5 33t37.5 29t43.5 17.5t52 7.5q48 0 160.5 -39t156.5 -39q41 0 68.5 19t71.5 75l41 -22q-50 -100 -97 -147.5t-116 -47.5q-45 0 -164 39 t-164 39q-49 0 -81 -23.5t-67 -80.5z" />
<glyph unicode="&#xd2;" horiz-adv-x="1560" d="M98 709q0 347 175.5 543t506.5 196t506.5 -196t175.5 -543q0 -348 -175 -544t-507 -196t-507 196t-175 544zM328 709q0 -98 11.5 -186t43 -178.5t80.5 -155.5t130.5 -106.5t186.5 -41.5t186.5 41.5t131 106.5t81 155.5t43 178.5t11.5 186t-11.5 186t-43 178t-81 155.5 t-131 106.5t-186.5 41q-88 0 -160 -28t-120 -78.5t-82.5 -113.5t-53.5 -140.5t-27.5 -152t-8.5 -154.5zM436 1716q-3 30 19.5 66t46.5 41q24 4 51 -7.5t82 -48.5l297 -202l-23 -45l-348 114q-72 23 -97 38.5t-28 43.5z" />
<glyph unicode="&#xd3;" horiz-adv-x="1560" d="M98 709q0 347 175.5 543t506.5 196t506.5 -196t175.5 -543q0 -348 -175 -544t-507 -196t-507 196t-175 544zM328 709q0 -98 11.5 -186t43 -178.5t80.5 -155.5t130.5 -106.5t186.5 -41.5t186.5 41.5t131 106.5t81 155.5t43 178.5t11.5 186t-11.5 186t-43 178t-81 155.5 t-131 106.5t-186.5 41q-88 0 -160 -28t-120 -78.5t-82.5 -113.5t-53.5 -140.5t-27.5 -152t-8.5 -154.5zM578 1565l296 202q55 37 82.5 48.5t51.5 7.5q24 -5 46 -41t19 -66q-3 -28 -28 -43.5t-97 -38.5l-348 -114z" />
<glyph unicode="&#xd4;" horiz-adv-x="1560" d="M98 709q0 347 175.5 543t506.5 196t506.5 -196t175.5 -543q0 -348 -175 -544t-507 -196t-507 196t-175 544zM328 709q0 -98 11.5 -186t43 -178.5t80.5 -155.5t130.5 -106.5t186.5 -41.5t186.5 41.5t131 106.5t81 155.5t43 178.5t11.5 186t-11.5 186t-43 178t-81 155.5 t-131 106.5t-186.5 41q-88 0 -160 -28t-120 -78.5t-82.5 -113.5t-53.5 -140.5t-27.5 -152t-8.5 -154.5zM467 1511l238 234q2 2 8 7.5t8.5 8t7.5 7t7.5 6.5t7 5.5t7.5 5t7 4t7.5 3.5t7 1.5t7.5 0.5q12 0 26.5 -8.5t22 -15t27.5 -25.5l238 -234l-27 -43l-219 125 q-56 29 -68 29q-11 0 -67 -29l-219 -125z" />
<glyph unicode="&#xd5;" horiz-adv-x="1560" d="M98 709q0 347 175.5 543t506.5 196t506.5 -196t175.5 -543q0 -348 -175 -544t-507 -196t-507 196t-175 544zM328 709q0 -98 11.5 -186t43 -178.5t80.5 -155.5t130.5 -106.5t186.5 -41.5t186.5 41.5t131 106.5t81 155.5t43 178.5t11.5 186t-11.5 186t-43 178t-81 155.5 t-131 106.5t-186.5 41q-88 0 -160 -28t-120 -78.5t-82.5 -113.5t-53.5 -140.5t-27.5 -152t-8.5 -154.5zM416 1507q11 21 15 29t15.5 29t18.5 31t20 28t24 27.5t27.5 22t32 19t35.5 11t41 4.5q48 0 160.5 -39t157.5 -39q41 0 67.5 19t71.5 75l41 -22q-50 -100 -97 -147.5 t-116 -47.5q-45 0 -164 39t-164 39q-49 0 -80 -23.5t-67 -80.5z" />
<glyph unicode="&#xd6;" horiz-adv-x="1560" d="M98 709q0 347 175.5 543t506.5 196t506.5 -196t175.5 -543q0 -348 -175 -544t-507 -196t-507 196t-175 544zM328 709q0 -98 11.5 -186t43 -178.5t80.5 -155.5t130.5 -106.5t186.5 -41.5t186.5 41.5t131 106.5t81 155.5t43 178.5t11.5 186t-11.5 186t-43 178t-81 155.5 t-131 106.5t-186.5 41q-88 0 -160 -28t-120 -78.5t-82.5 -113.5t-53.5 -140.5t-27.5 -152t-8.5 -154.5zM449 1612q0 45 32 77.5t86 32.5q56 0 87.5 -32t31.5 -78t-32 -79.5t-87 -33.5q-54 0 -86 33.5t-32 79.5zM874 1612q0 45 32 77.5t87 32.5q56 0 87.5 -32t31.5 -78 t-32 -79.5t-87 -33.5q-54 0 -86.5 33.5t-32.5 79.5z" />
<glyph unicode="&#xd7;" horiz-adv-x="1167" d="M129 135l367 377l-367 373l84 94l371 -377l368 377l86 -94l-366 -373l366 -377l-86 -90l-368 377l-371 -377z" />
<glyph unicode="&#xd8;" horiz-adv-x="1560" d="M98 709q0 348 175 543.5t507 195.5q217 0 365 -86l94 151l70 -43l-97 -151q32 -22 76 -70q174 -189 174 -540q0 -348 -175 -544t-507 -196q-217 0 -366 88l-105 -166l-65 50l100 159q-28 20 -72 68q-84 93 -129 232t-45 309zM328 709q4 -298 104 -469l643 1013 q-110 123 -295 123q-88 0 -159.5 -28t-119.5 -78.5t-82 -113.5t-53 -141t-28 -151.5t-10 -154.5zM483 168q111 -127 297 -127q105 0 186.5 41.5t130 106.5t80 156t43.5 178.5t13 185.5q-4 304 -107 473z" />
<glyph unicode="&#xd9;" horiz-adv-x="1619" d="M59 1358v59h572v-59q-52 -3 -76.5 -5.5t-50 -9t-33.5 -12t-16 -22.5t-8.5 -33t-0.5 -49v-664q0 -274 93 -399q95 -123 270 -123q177 0 272 123q93 125 93 399v664q0 33 -0.5 49t-8 33t-15.5 22.5t-33.5 12.5t-50.5 9t-77 5v59h572v-59q-52 -3 -76.5 -5.5t-50 -9 t-33.5 -12t-16 -22.5t-8.5 -33t-0.5 -49v-705q0 -190 -55 -303q-116 -250 -512 -250q-393 0 -510 250q-55 110 -55 299v709q0 33 -0.5 49t-8 33t-15.5 22.5t-33.5 12.5t-50.5 9t-77 5zM440 1716q-3 30 19.5 66t46.5 41q24 4 51 -7.5t82 -48.5l297 -202l-23 -45l-348 114 q-72 23 -97 38.5t-28 43.5z" />
<glyph unicode="&#xda;" horiz-adv-x="1619" d="M59 1358v59h572v-59q-52 -3 -76.5 -5.5t-50 -9t-33.5 -12t-16 -22.5t-8.5 -33t-0.5 -49v-664q0 -274 93 -399q95 -123 270 -123q177 0 272 123q93 125 93 399v664q0 33 -0.5 49t-8 33t-15.5 22.5t-33.5 12.5t-50.5 9t-77 5v59h572v-59q-52 -3 -76.5 -5.5t-50 -9 t-33.5 -12t-16 -22.5t-8.5 -33t-0.5 -49v-705q0 -190 -55 -303q-116 -250 -512 -250q-393 0 -510 250q-55 110 -55 299v709q0 33 -0.5 49t-8 33t-15.5 22.5t-33.5 12.5t-50.5 9t-77 5zM629 1565l297 202q55 37 82 48.5t51 7.5q24 -5 46 -41t19 -66q-3 -28 -28 -43.5 t-97 -38.5l-348 -114z" />
<glyph unicode="&#xdb;" horiz-adv-x="1619" d="M59 1358v59h572v-59q-52 -3 -76.5 -5.5t-50 -9t-33.5 -12t-16 -22.5t-8.5 -33t-0.5 -49v-664q0 -274 93 -399q95 -123 270 -123q177 0 272 123q93 125 93 399v664q0 33 -0.5 49t-8 33t-15.5 22.5t-33.5 12.5t-50.5 9t-77 5v59h572v-59q-52 -3 -76.5 -5.5t-50 -9 t-33.5 -12t-16 -22.5t-8.5 -33t-0.5 -49v-705q0 -190 -55 -303q-116 -250 -512 -250q-393 0 -510 250q-55 110 -55 299v709q0 33 -0.5 49t-8 33t-15.5 22.5t-33.5 12.5t-50.5 9t-77 5zM498 1511l237 234l5 5q43 40 63 43q4 1 8 1q12 0 26.5 -8.5t22 -15t27.5 -25.5l237 -234 l-26 -43l-219 125q-56 29 -68 29t-68 -29l-219 -125z" />
<glyph unicode="&#xdc;" horiz-adv-x="1619" d="M59 1358v59h572v-59q-52 -3 -76.5 -5.5t-50 -9t-33.5 -12t-16 -22.5t-8.5 -33t-0.5 -49v-664q0 -274 93 -399q95 -123 270 -123q177 0 272 123q93 125 93 399v664q0 33 -0.5 49t-8 33t-15.5 22.5t-33.5 12.5t-50.5 9t-77 5v59h572v-59q-52 -3 -76.5 -5.5t-50 -9 t-33.5 -12t-16 -22.5t-8.5 -33t-0.5 -49v-705q0 -190 -55 -303q-116 -250 -512 -250q-393 0 -510 250q-55 110 -55 299v709q0 33 -0.5 49t-8 33t-15.5 22.5t-33.5 12.5t-50.5 9t-77 5zM479 1612q0 45 32 77.5t87 32.5q56 0 87.5 -32t31.5 -78t-32 -79.5t-87 -33.5 q-54 0 -86.5 33.5t-32.5 79.5zM905 1612q0 45 32 77.5t87 32.5q56 0 87.5 -32t31.5 -78t-32 -79.5t-87 -33.5q-54 0 -86.5 33.5t-32.5 79.5z" />
<glyph unicode="&#xdd;" horiz-adv-x="1204" d="M-25 1358v59h531v-59l-121 -12q-47 -6 -23 -62q123 -270 316 -618h4q230 449 299 616q25 61 -25 66l-110 10v59h448v-59q-71 -3 -105 -14.5t-54.5 -34t-59.5 -86.5q-47 -76 -145 -258.5t-176 -339.5q-27 -55 -27 -121v-314q0 -33 0.5 -48.5t9.5 -32.5t19 -23t39 -12.5 t59 -9t90 -5.5v-59h-637v59q60 3 90 5.5t59 9t39 12.5t19 23t9.5 32.5t0.5 48.5v306q0 62 -30 118q-126 255 -336 641q-33 63 -66.5 81.5t-116.5 21.5zM518 1565l297 202q55 37 82 48.5t51 7.5q24 -5 46.5 -41t19.5 -66q-3 -28 -28 -43.5t-97 -38.5l-348 -114z" />
<glyph unicode="&#xde;" horiz-adv-x="1214" d="M72 0v59q52 3 77 5t50 9t33 12.5t15.5 22.5t8 32.5t0.5 49.5v1037q0 34 -0.5 49.5t-8 32.5t-15.5 22.5t-33 12.5t-50 9t-77 5v59h571v-59q-52 -3 -76.5 -5t-50 -9t-33 -12.5t-15.5 -22.5t-8.5 -33t-0.5 -49v-94h166q241 0 360 -74q71 -44 112.5 -120t41.5 -171 q0 -88 -30 -157.5t-79.5 -113.5t-118 -72.5t-140.5 -40t-153 -11.5h-159v-183q0 -34 0.5 -49.5t9 -32.5t17 -22.5t36 -12.5t54.5 -9t83 -5v-59h-587zM459 528q0 -46 23 -65t98 -19q167 0 253.5 72.5t86.5 239.5q0 145 -82.5 225t-229.5 80q-91 0 -120 -13t-29 -63v-457z" />
<glyph unicode="&#xdf;" horiz-adv-x="1230" d="M45 0v59q42 3 63 5t41.5 7.5t28 11t14 20.5t7 30t0.5 45v754q0 162 25.5 270t88.5 178q120 140 346 140q100 0 176.5 -25.5t116.5 -61.5t65 -83t31.5 -81t6.5 -65q0 -94 -56 -166q-113 -15 -176 -65.5t-63 -132.5q0 -67 45 -120t162 -132q207 -141 207 -326 q0 -129 -89.5 -208t-236.5 -79q-111 0 -184.5 40t-73.5 94q0 31 23 54t53 23q32 0 47 -30q61 -109 159 -109q50 0 93 38.5t43 111.5q0 87 -46 149t-143 125q-107 71 -166 141t-59 164q0 104 61.5 174.5t178.5 102.5q45 48 45 147q0 108 -65 178t-163 70q-50 0 -90 -16.5 t-67 -43t-46.5 -69t-30 -84.5t-17 -100.5t-8 -106t-1.5 -110.5v-740q0 -29 1 -44.5t7.5 -30t13.5 -20.5t28 -11.5t42 -7.5t62 -5v-59h-500z" />
<glyph unicode="&#xe0;" horiz-adv-x="1071" d="M100 266q0 82 44.5 147.5t146.5 96.5q28 9 97.5 30t105.5 32.5t85.5 29.5t78.5 33.5t44 30.5v86q0 59 -15.5 101t-42 63t-55 30.5t-61.5 9.5q-152 0 -211 -200q-9 -30 -22 -44t-43 -14q-37 0 -76 26t-39 71q0 88 123 160.5t291 72.5q75 0 132 -11.5t92.5 -33t59 -46 t34.5 -58.5t14.5 -61t3.5 -62v-496q0 -161 71 -176q42 -11 105 2l12 -49q-124 -62 -241 -62q-51 0 -80.5 30.5t-53.5 92.5q-39 -25 -61.5 -38.5t-68 -37.5t-89.5 -35.5t-86 -11.5q-138 0 -216.5 84.5t-78.5 206.5zM227 1393q0 30 28 59t52 29q50 0 131 -84l244 -246l-31 -41 l-309 172q-55 30 -85 56t-30 55zM307 295q0 -95 48.5 -153t140.5 -58q34 0 67 10t65.5 32t53 65t20.5 102v289q-38 -25 -235 -99q-87 -33 -123.5 -75t-36.5 -113z" />
<glyph unicode="&#xe1;" horiz-adv-x="1071" d="M100 266q0 82 44.5 147.5t146.5 96.5q28 9 97.5 30t105.5 32.5t85.5 29.5t78.5 33.5t44 30.5v86q0 59 -15.5 101t-42 63t-55 30.5t-61.5 9.5q-152 0 -211 -200q-9 -30 -22 -44t-43 -14q-37 0 -76 26t-39 71q0 88 123 160.5t291 72.5q75 0 132 -11.5t92.5 -33t59 -46 t34.5 -58.5t14.5 -61t3.5 -62v-496q0 -161 71 -176q42 -11 105 2l12 -49q-124 -62 -241 -62q-51 0 -80.5 30.5t-53.5 92.5q-39 -25 -61.5 -38.5t-68 -37.5t-89.5 -35.5t-86 -11.5q-138 0 -216.5 84.5t-78.5 206.5zM307 295q0 -95 48.5 -153t140.5 -58q34 0 67 10t65.5 32 t53 65t20.5 102v289q-38 -25 -235 -99q-87 -33 -123.5 -75t-36.5 -113zM401 1151l244 246q81 84 131 84q24 0 52 -29t28 -59q0 -29 -30 -55t-85 -56l-309 -172z" />
<glyph unicode="&#xe2;" horiz-adv-x="1071" d="M100 266q0 82 44.5 147.5t146.5 96.5q28 9 97.5 30t105.5 32.5t85.5 29.5t78.5 33.5t44 30.5v86q0 59 -15.5 101t-42 63t-55 30.5t-61.5 9.5q-152 0 -211 -200q-9 -30 -22 -44t-43 -14q-37 0 -76 26t-39 71q0 88 123 160.5t291 72.5q75 0 132 -11.5t92.5 -33t59 -46 t34.5 -58.5t14.5 -61t3.5 -62v-496q0 -161 71 -176q42 -11 105 2l12 -49q-124 -62 -241 -62q-51 0 -80.5 30.5t-53.5 92.5q-39 -25 -61.5 -38.5t-68 -37.5t-89.5 -35.5t-86 -11.5q-138 0 -216.5 84.5t-78.5 206.5zM219 1151l240 272q18 19 26.5 27.5t21.5 16.5t25 8 q26 0 74 -52l240 -272l-39 -43l-211 158q-43 30 -64 30q-20 0 -63 -30l-211 -158zM307 295q0 -95 48.5 -153t140.5 -58q34 0 67 10t65.5 32t53 65t20.5 102v289q-38 -25 -235 -99q-87 -33 -123.5 -75t-36.5 -113z" />
<glyph unicode="&#xe3;" horiz-adv-x="1071" d="M100 266q0 82 44.5 147.5t146.5 96.5q28 9 97.5 30t105.5 32.5t85.5 29.5t78.5 33.5t44 30.5v86q0 59 -15.5 101t-42 63t-55 30.5t-61.5 9.5q-152 0 -211 -200q-9 -30 -22 -44t-43 -14q-37 0 -76 26t-39 71q0 88 123 160.5t291 72.5q75 0 132 -11.5t92.5 -33t59 -46 t34.5 -58.5t14.5 -61t3.5 -62v-496q0 -161 71 -176q42 -11 105 2l12 -49q-124 -62 -241 -62q-51 0 -80.5 30.5t-53.5 92.5q-39 -25 -61.5 -38.5t-68 -37.5t-89.5 -35.5t-86 -11.5q-138 0 -216.5 84.5t-78.5 206.5zM172 1180q18 36 27.5 53.5t32.5 51t44 50t54 31t71 14.5 q48 0 160.5 -38.5t157.5 -38.5q41 0 67.5 19t71.5 75l41 -23q-49 -97 -80 -131q-55 -63 -133 -63q-45 0 -163.5 38.5t-164.5 38.5q-49 0 -80 -23.5t-67 -80.5zM307 295q0 -95 48.5 -153t140.5 -58q34 0 67 10t65.5 32t53 65t20.5 102v289q-38 -25 -235 -99 q-87 -33 -123.5 -75t-36.5 -113z" />
<glyph unicode="&#xe4;" horiz-adv-x="1071" d="M100 266q0 82 44.5 147.5t146.5 96.5q28 9 97.5 30t105.5 32.5t85.5 29.5t78.5 33.5t44 30.5v86q0 59 -15.5 101t-42 63t-55 30.5t-61.5 9.5q-152 0 -211 -200q-9 -30 -22 -44t-43 -14q-37 0 -76 26t-39 71q0 88 123 160.5t291 72.5q75 0 132 -11.5t92.5 -33t59 -46 t34.5 -58.5t14.5 -61t3.5 -62v-496q0 -161 71 -176q42 -11 105 2l12 -49q-124 -62 -241 -62q-51 0 -80.5 30.5t-53.5 92.5q-39 -25 -61.5 -38.5t-68 -37.5t-89.5 -35.5t-86 -11.5q-138 0 -216.5 84.5t-78.5 206.5zM201 1284q0 47 33 81t90 34t89.5 -34t32.5 -81 q0 -48 -32.5 -82.5t-89.5 -34.5t-90 35t-33 82zM307 295q0 -95 48.5 -153t140.5 -58q34 0 67 10t65.5 32t53 65t20.5 102v289q-38 -25 -235 -99q-87 -33 -123.5 -75t-36.5 -113zM627 1284q0 47 33 81t90 34t89.5 -34t32.5 -81q0 -48 -32.5 -82.5t-89.5 -34.5t-90 35t-33 82z " />
<glyph unicode="&#xe5;" horiz-adv-x="1071" d="M100 266q0 82 44.5 147.5t146.5 96.5q28 9 97.5 30t105.5 32.5t85.5 29.5t78.5 33.5t44 30.5v86q0 59 -15.5 101t-42 63t-55 30.5t-61.5 9.5q-152 0 -211 -200q-9 -30 -22 -44t-43 -14q-37 0 -76 26t-39 71q0 88 123 160.5t291 72.5q75 0 132 -11.5t92.5 -33t59 -46 t34.5 -58.5t14.5 -61t3.5 -62v-496q0 -161 71 -176q42 -11 105 2l12 -49q-124 -62 -241 -62q-51 0 -80.5 30.5t-53.5 92.5q-39 -25 -61.5 -38.5t-68 -37.5t-89.5 -35.5t-86 -11.5q-138 0 -216.5 84.5t-78.5 206.5zM307 295q0 -95 48.5 -153t140.5 -58q34 0 67 10t65.5 32 t53 65t20.5 102v289q-38 -25 -235 -99q-87 -33 -123.5 -75t-36.5 -113zM315 1333q0 107 64 157t158 50t157.5 -50t63.5 -157t-63.5 -157t-157.5 -50t-158 50t-64 157zM434 1333q0 -139 103 -139q102 0 102 139q0 140 -102 140q-103 0 -103 -140z" />
<glyph unicode="&#xe6;" horiz-adv-x="1632" d="M100 266q0 82 44.5 147.5t146.5 96.5q28 9 97.5 30t105.5 32.5t85.5 29.5t78.5 33.5t44 30.5v90q0 57 -15.5 98t-42 62.5t-54.5 30.5t-60 9q-156 0 -215 -200q-9 -30 -21.5 -44t-39.5 -14q-39 0 -79 26t-40 71q0 88 123 160.5t295 72.5q210 0 285 -127q118 127 313 127 q77 0 140.5 -17t105.5 -43.5t74 -64t49.5 -74t28 -79t13.5 -73t3 -61.5q0 -46 -21.5 -61.5t-60.5 -15.5h-590q-1 -69 5 -130t26 -123t52.5 -106t88.5 -72t129 -28q112 0 180 57t117 160l61 -33q-97 -286 -399 -289q-273 -3 -379 179l-76 -56q-163 -119 -299 -123 q-141 0 -220 84t-79 207zM307 295q0 -95 48.5 -153t140.5 -58q33 0 66.5 10.5t66 33t53 65.5t20.5 100v289q-38 -25 -235 -99q-87 -33 -123.5 -75t-36.5 -113zM895 616h387q40 0 55 17t15 49q0 30 -3.5 60t-17 70.5t-35 70.5t-62.5 51.5t-95 21.5q-60 0 -106 -28t-71.5 -67 t-41 -89.5t-20.5 -87.5t-5 -68z" />
<glyph unicode="&#xe7;" horiz-adv-x="1015" d="M100 492q0 85 15.5 160.5t52.5 145.5t93 120t142.5 80t194.5 30q157 0 256.5 -61.5t99.5 -137.5q0 -52 -40.5 -78t-82.5 -26q-27 0 -40 12.5t-23 40.5q-66 178 -193 178q-115 0 -188.5 -106t-73.5 -322q0 -63 7.5 -121t28.5 -119t53.5 -105t87 -72.5t124.5 -28.5 q109 0 177.5 53t117.5 164l60 -29q-18 -71 -56.5 -126.5t-87.5 -88.5t-101 -51.5t-106 -23.5l-53 -93q33 -4 61.5 -14t58 -29t46.5 -54t17 -81q0 -45 -20.5 -79t-49 -52.5t-65.5 -30t-64 -15t-51 -3.5q-46 0 -90 6v53q81 0 130.5 27.5t49.5 87.5q0 104 -127 111l-8 14 l82 152q-212 9 -323.5 139t-111.5 373z" />
<glyph unicode="&#xe8;" horiz-adv-x="1052" d="M100 494q0 157 50 275t158 188.5t263 70.5q77 0 140.5 -17t105.5 -43.5t74 -64t49.5 -74t28 -79t13.5 -73t3 -61.5q0 -46 -21.5 -61.5t-60.5 -15.5h-590q-1 -69 5 -130t26 -123t52.5 -106t88.5 -72t129 -28q112 0 180 57t117 160l62 -33q-98 -289 -400 -289 q-473 0 -473 519zM248 1393q0 30 28 59t52 29q50 0 131 -84l243 -246l-30 -41l-310 172q-54 29 -84 55.5t-30 55.5zM315 616h387q40 0 55 17t15 49q0 30 -3.5 60t-17 70.5t-35 70.5t-62.5 51.5t-95 21.5q-60 0 -106.5 -28t-71.5 -67t-41 -89.5t-20.5 -87.5t-4.5 -68z" />
<glyph unicode="&#xe9;" horiz-adv-x="1052" d="M100 494q0 157 50 275t158 188.5t263 70.5q77 0 140.5 -17t105.5 -43.5t74 -64t49.5 -74t28 -79t13.5 -73t3 -61.5q0 -46 -21.5 -61.5t-60.5 -15.5h-590q-1 -69 5 -130t26 -123t52.5 -106t88.5 -72t129 -28q112 0 180 57t117 160l62 -33q-98 -289 -400 -289 q-473 0 -473 519zM315 616h387q40 0 55 17t15 49q0 30 -3.5 60t-17 70.5t-35 70.5t-62.5 51.5t-95 21.5q-60 0 -106.5 -28t-71.5 -67t-41 -89.5t-20.5 -87.5t-4.5 -68zM412 1151l243 246q81 84 131 84q24 0 52 -29t28 -59q0 -29 -30 -55.5t-84 -55.5l-310 -172z" />
<glyph unicode="&#xea;" horiz-adv-x="1052" d="M100 494q0 157 50 275t158 188.5t263 70.5q77 0 140.5 -17t105.5 -43.5t74 -64t49.5 -74t28 -79t13.5 -73t3 -61.5q0 -46 -21.5 -61.5t-60.5 -15.5h-590q-1 -69 5 -130t26 -123t52.5 -106t88.5 -72t129 -28q112 0 180 57t117 160l62 -33q-98 -289 -400 -289 q-473 0 -473 519zM246 1151l239 272q48 52 74 52t74 -52l239 -272l-38 -43l-211 158q-43 30 -64 30q-20 0 -63 -30l-211 -158zM315 616h387q40 0 55 17t15 49q0 30 -3.5 60t-17 70.5t-35 70.5t-62.5 51.5t-95 21.5q-60 0 -106.5 -28t-71.5 -67t-41 -89.5t-20.5 -87.5 t-4.5 -68z" />
<glyph unicode="&#xeb;" horiz-adv-x="1052" d="M100 494q0 157 50 275t158 188.5t263 70.5q77 0 140.5 -17t105.5 -43.5t74 -64t49.5 -74t28 -79t13.5 -73t3 -61.5q0 -46 -21.5 -61.5t-60.5 -15.5h-590q-1 -69 5 -130t26 -123t52.5 -106t88.5 -72t129 -28q112 0 180 57t117 160l62 -33q-98 -289 -400 -289 q-473 0 -473 519zM190 1284q0 47 33 81t90 34t90 -34t33 -81t-33 -82t-90 -35t-90 35t-33 82zM315 616h387q40 0 55 17t15 49q0 30 -3.5 60t-17 70.5t-35 70.5t-62.5 51.5t-95 21.5q-60 0 -106.5 -28t-71.5 -67t-41 -89.5t-20.5 -87.5t-4.5 -68zM616 1284q0 47 33 81t90 34 t90 -34t33 -81t-33 -82t-90 -35t-90 35t-33 82z" />
<glyph unicode="&#xec;" horiz-adv-x="595" d="M10 1393q0 30 28 59t52 29q50 0 131 -84l244 -246l-31 -41l-309 172q-55 30 -85 56t-30 55zM66 0v59q42 3 63 5t41.5 7.5t27.5 11t13.5 21t7 30t0.5 44.5v645q0 54 -12 70t-53 22l-78 11v51l321 51l15 -12v-838q0 -29 0.5 -44.5t7 -30t14 -20.5t28 -11.5t41.5 -7.5t62 -5 v-59h-499z" />
<glyph unicode="&#xed;" horiz-adv-x="595" d="M66 0v59q42 3 63 5t41.5 7.5t27.5 11t13.5 21t7 30t0.5 44.5v645q0 54 -12 70t-53 22l-78 11v51l321 51l15 -12v-838q0 -29 0.5 -44.5t7 -30t14 -20.5t28 -11.5t41.5 -7.5t62 -5v-59h-499zM113 1151l243 246q81 84 131 84q24 0 52 -29t28 -59q0 -29 -30 -55.5t-84 -55.5 l-310 -172z" />
<glyph unicode="&#xee;" horiz-adv-x="595" d="M-6 1151l242 272q18 19 26.5 27.5t21.5 16.5t25 8q26 0 74 -52l240 -272l-39 -43l-211 158q-43 30 -64 30q-20 0 -63 -30l-211 -158zM66 0v59q42 3 63 5t41.5 7.5t27.5 11t13.5 21t7 30t0.5 44.5v645q0 54 -12 70t-53 22l-78 11v51l321 51l15 -12v-838q0 -29 0.5 -44.5 t7 -30t14 -20.5t28 -11.5t41.5 -7.5t62 -5v-59h-499z" />
<glyph unicode="&#xef;" horiz-adv-x="595" d="M-39 1284q0 47 34 81t91 34t90 -34t33 -81t-33 -82t-90 -35t-91 35t-34 82zM66 0v59q42 3 63 5t41.5 7.5t27.5 11t13.5 21t7 30t0.5 44.5v645q0 54 -12 70t-53 22l-78 11v51l321 51l15 -12v-838q0 -29 0.5 -44.5t7 -30t14 -20.5t28 -11.5t41.5 -7.5t62 -5v-59h-499z M389 1284q0 47 33 81t90 34q58 0 90.5 -33.5t32.5 -81.5t-32.5 -82.5t-90.5 -34.5q-57 0 -90 35t-33 82z" />
<glyph unicode="&#xf0;" horiz-adv-x="1181" d="M100 502q0 251 126 388.5t372 137.5q37 0 107 -12l4 6q-73 99 -172 195l-267 -121l-51 73l250 111q-99 88 -229 186v19l88 35q136 -81 266 -185l268 125l51 -74l-243 -110q112 -91 194 -189q116 -139 166.5 -267.5t50.5 -297.5q0 -547 -493 -547q-239 0 -363.5 138.5 t-124.5 388.5zM313 502q0 -455 275 -455q77 0 132.5 32t87 93.5t46 142t14.5 187.5q0 120 -12 200.5t-43.5 140t-86 86.5t-138.5 27q-275 0 -275 -454z" />
<glyph unicode="&#xf1;" horiz-adv-x="1267" d="M66 0v59q42 3 63 5t41.5 7.5t27.5 11t13.5 21t7 30t0.5 44.5v645q0 54 -12 70t-53 22l-78 11v51l305 51l29 -156q12 7 51.5 33.5t52.5 34.5t46.5 27t52.5 26t49.5 17.5t59 14t60.5 3.5q142 0 221.5 -85.5t79.5 -240.5v-524q0 -29 1 -44.5t7.5 -30t13.5 -20.5t28 -11.5 t42 -7.5t62 -5v-59h-500v59q42 3 63 5t41.5 7.5t28 11t14 20.5t7 30t0.5 45v484q0 256 -215 256q-78 0 -144 -42.5t-100 -105.5q-20 -41 -20 -113v-479q0 -29 0.5 -44.5t7 -30t14 -20.5t28 -11.5t41.5 -7.5t62 -5v-59h-499zM270 1180q12 25 19 37.5t21.5 37.5t26 39 t30.5 32.5t37.5 28.5t43.5 17.5t52 7.5q48 0 160 -38.5t157 -38.5q41 0 67.5 19t71.5 75l41 -23q-49 -97 -80 -131q-55 -63 -133 -63q-45 0 -163 38.5t-164 38.5q-49 0 -81 -23.5t-67 -80.5z" />
<glyph unicode="&#xf2;" horiz-adv-x="1181" d="M100 502q0 253 124 389.5t368 136.5t367.5 -136.5t123.5 -389.5t-123.5 -390t-367.5 -137t-368 137t-124 390zM262 1393q0 30 28 59t52 29q50 0 131 -84l244 -246l-31 -41l-309 172q-55 30 -85 56t-30 55zM313 502q0 -217 70.5 -336t208.5 -119t208 119t70 336t-70 335.5 t-208 118.5t-208.5 -118.5t-70.5 -335.5z" />
<glyph unicode="&#xf3;" horiz-adv-x="1181" d="M100 502q0 253 124 389.5t368 136.5t367.5 -136.5t123.5 -389.5t-123.5 -390t-367.5 -137t-368 137t-124 390zM313 502q0 -217 70.5 -336t208.5 -119t208 119t70 336t-70 335.5t-208 118.5t-208.5 -118.5t-70.5 -335.5zM426 1151l244 246q81 84 131 84q24 0 52 -29 t28 -59q0 -29 -30 -55t-85 -56l-309 -172z" />
<glyph unicode="&#xf4;" horiz-adv-x="1181" d="M100 502q0 253 124 389.5t368 136.5t367.5 -136.5t123.5 -389.5t-123.5 -390t-367.5 -137t-368 137t-124 390zM279 1151l239 272q48 52 74 52t74 -52l239 -272l-39 -43l-211 158q-43 30 -63 30q-21 0 -64 -30l-211 -158zM313 502q0 -217 70.5 -336t208.5 -119t208 119 t70 336t-70 335.5t-208 118.5t-208.5 -118.5t-70.5 -335.5z" />
<glyph unicode="&#xf5;" horiz-adv-x="1181" d="M100 502q0 253 124 389.5t368 136.5t367.5 -136.5t123.5 -389.5t-123.5 -390t-367.5 -137t-368 137t-124 390zM227 1180q12 25 19 37.5t21.5 37.5t26 39t30.5 32.5t37.5 28.5t43.5 17.5t52 7.5q47 0 159.5 -38.5t157.5 -38.5q41 0 67.5 19t71.5 75l41 -23 q-49 -97 -80 -131q-55 -63 -133 -63q-45 0 -163 38.5t-164 38.5q-49 0 -81 -23.5t-67 -80.5zM313 502q0 -217 70.5 -336t208.5 -119t208 119t70 336t-70 335.5t-208 118.5t-208.5 -118.5t-70.5 -335.5z" />
<glyph unicode="&#xf6;" horiz-adv-x="1181" d="M100 502q0 253 124 389.5t368 136.5t367.5 -136.5t123.5 -389.5t-123.5 -390t-367.5 -137t-368 137t-124 390zM256 1284q0 47 33 81t90 34t90 -34t33 -81t-33 -82t-90 -35t-90 35t-33 82zM313 502q0 -217 70.5 -336t208.5 -119t208 119t70 336t-70 335.5t-208 118.5 t-208.5 -118.5t-70.5 -335.5zM682 1284q0 47 33 81t90 34t90 -34t33 -81t-33 -82t-90 -35t-90 35t-33 82z" />
<glyph unicode="&#xf7;" horiz-adv-x="1167" d="M88 453v118h991v-118h-991zM461 176q0 48 35.5 83.5t87.5 35.5q49 0 82.5 -35.5t33.5 -83.5q0 -52 -33 -87.5t-83 -35.5q-52 0 -87.5 35.5t-35.5 87.5zM461 852q0 48 35.5 83.5t87.5 35.5q49 0 82.5 -35.5t33.5 -83.5q0 -52 -33 -87.5t-83 -35.5q-52 0 -87.5 35.5 t-35.5 87.5z" />
<glyph unicode="&#xf8;" horiz-adv-x="1181" d="M100 502q0 253 123.5 389.5t366.5 136.5q141 0 244 -47l67 109l66 -43l-66 -105q180 -128 180 -440q0 -254 -123 -390.5t-368 -136.5q-155 0 -256 58l-74 -117l-63 47l69 113q-166 129 -166 426zM303 502q0 -185 49 -289l420 670q-67 73 -182 73q-143 0 -216.5 -119.5 t-70.5 -334.5zM397 135q73 -88 193 -88q147 0 218 118t71 337q0 201 -58 311z" />
<glyph unicode="&#xf9;" horiz-adv-x="1241" d="M53 926v51l322 51l14 -12v-697q0 -115 56.5 -174t150.5 -59q80 0 148.5 42t103.5 112q16 32 16 122v461q0 54 -12 70t-53 22l-78 11v51l321 51l15 -12v-838q0 -29 1 -44.5t8 -30t14 -20.5t28 -11.5t41 -7.5t61 -5v-59h-327l-21 123q-1 0 -75 -46.5t-148 -74t-152 -27.5 q-60 0 -110 15.5t-91.5 49.5t-65 96t-23.5 147v540q0 54 -12.5 70t-53.5 22zM250 1393q0 30 28 59t52 29q50 0 131 -84l244 -246l-31 -41l-309 172q-55 30 -85 56t-30 55z" />
<glyph unicode="&#xfa;" horiz-adv-x="1241" d="M53 926v51l322 51l14 -12v-697q0 -115 56.5 -174t150.5 -59q80 0 148.5 42t103.5 112q16 32 16 122v461q0 54 -12 70t-53 22l-78 11v51l321 51l15 -12v-838q0 -29 1 -44.5t8 -30t14 -20.5t28 -11.5t41 -7.5t61 -5v-59h-327l-21 123q-1 0 -75 -46.5t-148 -74t-152 -27.5 q-60 0 -110 15.5t-91.5 49.5t-65 96t-23.5 147v540q0 54 -12.5 70t-53.5 22zM475 1151l244 246q81 84 131 84q24 0 52 -29t28 -59q0 -29 -30 -55t-85 -56l-309 -172z" />
<glyph unicode="&#xfb;" horiz-adv-x="1241" d="M53 926v51l322 51l14 -12v-697q0 -115 56.5 -174t150.5 -59q80 0 148.5 42t103.5 112q16 32 16 122v461q0 54 -12 70t-53 22l-78 11v51l321 51l15 -12v-838q0 -29 1 -44.5t8 -30t14 -20.5t28 -11.5t41 -7.5t61 -5v-59h-327l-21 123q-1 0 -75 -46.5t-148 -74t-152 -27.5 q-60 0 -110 15.5t-91.5 49.5t-65 96t-23.5 147v540q0 54 -12.5 70t-53.5 22zM299 1151l240 272q18 19 26.5 27.5t21.5 16.5t25 8q26 0 74 -52l240 -272l-39 -43l-211 158q-43 30 -64 30q-20 0 -63 -30l-211 -158z" />
<glyph unicode="&#xfc;" horiz-adv-x="1241" d="M53 926v51l322 51l14 -12v-697q0 -115 56.5 -174t150.5 -59q80 0 148.5 42t103.5 112q16 32 16 122v461q0 54 -12 70t-53 22l-78 11v51l321 51l15 -12v-838q0 -29 1 -44.5t8 -30t14 -20.5t28 -11.5t41 -7.5t61 -5v-59h-327l-21 123q-1 0 -75 -46.5t-148 -74t-152 -27.5 q-60 0 -110 15.5t-91.5 49.5t-65 96t-23.5 147v540q0 54 -12.5 70t-53.5 22zM285 1284q0 47 33 81t90 34t89.5 -34t32.5 -81q0 -48 -32.5 -82.5t-89.5 -34.5t-90 35t-33 82zM711 1284q0 47 33 81t90 34t89.5 -34t32.5 -81q0 -48 -32.5 -82.5t-89.5 -34.5t-90 35t-33 82z" />
<glyph unicode="&#xfd;" horiz-adv-x="1036" d="M-10 944v60h469v-60l-88 -8q-32 -3 -37.5 -19.5t6.5 -44.5q111 -314 252 -686h4q180 493 227 678q9 31 3 49t-31 21l-107 10v60h393v-60q-74 -4 -98 -22t-53 -82q-48 -110 -167 -425t-212 -583q-30 -87 -63 -150t-60.5 -96.5t-60 -53t-55.5 -24t-52 -4.5q-61 0 -102 34 t-41 73q0 43 30 79t60 36q29 0 61 -29q43 -43 76 -43q51 0 90 86q49 104 49 174q0 53 -16 100q-36 105 -140.5 371.5t-181.5 452.5q-28 67 -54.5 85t-100.5 21zM434 1151l244 246q81 84 131 84q24 0 52 -29t28 -59q0 -29 -30 -55t-85 -56l-309 -172z" />
<glyph unicode="&#xfe;" horiz-adv-x="1241" d="M47 -412q59 4 85.5 8t44.5 18t21 33t3 60v1567q0 57 -12.5 73t-53.5 21l-78 8v51l322 52l14 -13v-585q11 6 64.5 40.5t85.5 52.5t89 36t109 18q77 0 139.5 -21t103 -53t71 -79t46.5 -91t25.5 -97t12 -89t2.5 -74q0 -123 -27.5 -218.5t-73.5 -157t-113 -101.5t-140 -56 t-160 -16q-68 0 -134 14t-100 34v-316q0 -33 3.5 -50t11.5 -31.5t31.5 -20.5t52.5 -10t86 -7v-59h-531v59zM393 322q0 -79 15 -125q25 -71 83.5 -110.5t137.5 -39.5q299 0 299 465q0 100 -20 176.5t-49 119t-67 68.5t-68.5 34t-59.5 8q-112 0 -191.5 -71t-79.5 -190v-335z " />
<glyph unicode="&#xff;" horiz-adv-x="1036" d="M-10 944v60h469v-60l-88 -8q-32 -3 -37.5 -19.5t6.5 -44.5q111 -314 252 -686h4q180 493 227 678q9 31 3 49t-31 21l-107 10v60h393v-60q-74 -4 -98 -22t-53 -82q-48 -110 -167 -425t-212 -583q-30 -87 -63 -150t-60.5 -96.5t-60 -53t-55.5 -24t-52 -4.5q-61 0 -102 34 t-41 73q0 43 30 79t60 36q29 0 61 -29q43 -43 76 -43q51 0 90 86q49 104 49 174q0 53 -16 100q-36 105 -140.5 371.5t-181.5 452.5q-28 67 -54.5 85t-100.5 21zM213 1284q0 47 33 81t90 34t90 -34t33 -81t-33 -82t-90 -35t-90 35t-33 82zM639 1284q0 47 33 81t90 34t90 -34 t33 -81t-33 -82t-90 -35t-90 35t-33 82z" />
<glyph unicode="&#x152;" horiz-adv-x="2099" d="M98 698q0 213 80 366t207 232q119 74 251 97.5t292 23.5h1036v-336h-61q-15 112 -43 165.5t-88 76.5t-179 23h-200q-48 0 -62 -15t-14 -59v-496h287q33 0 58 2t44.5 8t32.5 11.5t23.5 19t16 23.5t11 31.5t8 36t6.5 44.5h62v-432h-62q-4 30 -6.5 45t-8 37t-11 31.5 t-16 23.5t-23.5 19.5t-32.5 11.5t-44.5 8t-58 2h-287v-442q0 -70 12 -106.5t43 -51.5q56 -26 209 -26q69 0 115 3.5t90 14t72 29.5t52.5 51t40 76.5t27.5 107.5h62l-25 -354h-1097q-161 0 -290.5 22t-242.5 93q-130 82 -208.5 229.5t-78.5 353.5zM328 709q0 -95 15 -181 t54 -171t99.5 -146.5t158 -100t222.5 -38.5q133 0 185 22t52 86v1059q0 62 -56.5 84.5t-176.5 22.5q-126 0 -224.5 -36.5t-159 -96.5t-100 -144.5t-54.5 -172t-15 -187.5z" />
<glyph unicode="&#x153;" horiz-adv-x="1806" d="M100 502q0 253 123.5 389.5t366.5 136.5q129 0 226.5 -43.5t154.5 -120.5q130 164 354 164q77 0 140.5 -17t105.5 -43.5t74 -64t49.5 -74t28 -79t13.5 -73t3 -61.5q0 -46 -21.5 -61.5t-60.5 -15.5h-590q-1 -69 5 -130t26 -123t52.5 -106t88.5 -72t129 -28q112 0 180 57 t117 160l61 -33q-97 -286 -399 -289q-253 -3 -364 160q-125 -160 -373 -160q-242 0 -366 137t-124 390zM313 502q0 -216 70 -335.5t207 -119.5q139 0 208.5 118.5t69.5 336.5q0 217 -69.5 335.5t-208.5 118.5q-137 0 -207 -119t-70 -335zM1069 616h387q40 0 55 17t15 49 q0 30 -3.5 60t-17 70.5t-35 70.5t-62.5 51.5t-95 21.5q-60 0 -106.5 -28t-71.5 -67t-41 -89.5t-20.5 -87.5t-4.5 -68z" />
<glyph unicode="&#x178;" horiz-adv-x="1204" d="M-25 1358v59h531v-59l-121 -12q-47 -6 -23 -62q123 -270 316 -618h4q230 449 299 616q25 61 -25 66l-110 10v59h448v-59q-71 -3 -105 -14.5t-54.5 -34t-59.5 -86.5q-47 -76 -145 -258.5t-176 -339.5q-27 -55 -27 -121v-314q0 -33 0.5 -48.5t9.5 -32.5t19 -23t39 -12.5 t59 -9t90 -5.5v-59h-637v59q60 3 90 5.5t59 9t39 12.5t19 23t9.5 32.5t0.5 48.5v306q0 62 -30 118q-126 255 -336 641q-33 63 -66.5 81.5t-116.5 21.5zM307 1612q0 45 32 77.5t87 32.5q56 0 87.5 -32t31.5 -78t-32 -79.5t-87 -33.5q-54 0 -86.5 33.5t-32.5 79.5zM733 1612 q0 45 32 77.5t87 32.5q56 0 87.5 -32t31.5 -78t-32 -79.5t-87 -33.5q-54 0 -86.5 33.5t-32.5 79.5z" />
<glyph unicode="&#x2c6;" horiz-adv-x="819" d="M96 1151l240 272q48 52 74 52q25 0 73 -52l240 -272l-39 -43l-211 158q-43 30 -63 30q-21 0 -64 -30l-211 -158z" />
<glyph unicode="&#x2dc;" horiz-adv-x="819" d="M45 1180q18 36 27.5 53.5t32.5 51t44 50t54 31t71 14.5q48 0 160.5 -38.5t157.5 -38.5q41 0 67.5 19t71.5 75l41 -23q-49 -97 -80 -131q-55 -63 -133 -63q-45 0 -163.5 38.5t-164.5 38.5q-49 0 -80 -23.5t-67 -80.5z" />
<glyph unicode="&#x2000;" horiz-adv-x="912" />
<glyph unicode="&#x2001;" horiz-adv-x="1824" />
<glyph unicode="&#x2002;" horiz-adv-x="912" />
<glyph unicode="&#x2003;" horiz-adv-x="1824" />
<glyph unicode="&#x2004;" horiz-adv-x="608" />
<glyph unicode="&#x2005;" horiz-adv-x="456" />
<glyph unicode="&#x2006;" horiz-adv-x="304" />
<glyph unicode="&#x2007;" horiz-adv-x="304" />
<glyph unicode="&#x2008;" horiz-adv-x="228" />
<glyph unicode="&#x2009;" horiz-adv-x="364" />
<glyph unicode="&#x200a;" horiz-adv-x="101" />
<glyph unicode="&#x2010;" horiz-adv-x="802" d="M152 442v144h501v-144h-501z" />
<glyph unicode="&#x2011;" horiz-adv-x="802" d="M152 442v144h501v-144h-501z" />
<glyph unicode="&#x2012;" horiz-adv-x="802" d="M152 442v144h501v-144h-501z" />
<glyph unicode="&#x2013;" horiz-adv-x="1024" d="M0 453v118h1024v-118h-1024z" />
<glyph unicode="&#x2014;" horiz-adv-x="2048" d="M0 453v118h2048v-118h-2048z" />
<glyph unicode="&#x2018;" horiz-adv-x="569" d="M147 1155q0 51 22 104.5t62.5 105t75 87t82.5 80.5l35 -33q-113 -133 -113 -229q0 -38 34 -97t34 -96q0 -42 -26.5 -70t-71.5 -28q-54 0 -94 48t-40 128z" />
<glyph unicode="&#x2019;" horiz-adv-x="569" d="M147 999q113 133 113 230q0 38 -33.5 96.5t-33.5 95.5q0 42 26.5 70.5t71.5 28.5q54 0 93.5 -48.5t39.5 -128.5q0 -51 -21.5 -104.5t-63 -105t-75 -86.5t-82.5 -80z" />
<glyph unicode="&#x201a;" horiz-adv-x="569" d="M147 -223q113 133 113 229q0 38 -33.5 97t-33.5 96q0 42 26.5 70t71.5 28q54 0 93.5 -48t39.5 -128q0 -51 -22 -104.5t-62.5 -105t-75 -87t-82.5 -80.5z" />
<glyph unicode="&#x201c;" horiz-adv-x="937" d="M147 1155q0 51 22 104.5t62.5 105t75 87t82.5 80.5l35 -33q-113 -133 -113 -229q0 -38 34 -97t34 -96q0 -42 -26.5 -70t-71.5 -28q-54 0 -94 48t-40 128zM516 1155q0 51 22 104.5t62.5 105t75 87t82.5 80.5l35 -33q-113 -133 -113 -229q0 -38 34 -97t34 -96 q0 -42 -27 -70t-72 -28q-54 0 -93.5 48t-39.5 128z" />
<glyph unicode="&#x201d;" horiz-adv-x="937" d="M147 999q113 133 113 230q0 38 -33.5 96.5t-33.5 95.5q0 42 26.5 70.5t71.5 28.5q54 0 93.5 -48.5t39.5 -128.5q0 -51 -21.5 -104.5t-63 -105t-75 -86.5t-82.5 -80zM516 999q113 133 113 230q0 38 -34 96.5t-34 95.5q0 42 26.5 70.5t71.5 28.5q54 0 94 -48.5t40 -128.5 q0 -51 -21.5 -104.5t-63 -105t-75 -86.5t-82.5 -80z" />
<glyph unicode="&#x201e;" horiz-adv-x="937" d="M147 -223q113 133 113 229q0 38 -33.5 97t-33.5 96q0 42 26.5 70t71.5 28q54 0 93.5 -48t39.5 -128q0 -51 -22 -104.5t-62.5 -105t-75 -87t-82.5 -80.5zM516 -223q113 133 113 229q0 38 -34 97t-34 96q0 42 26.5 70t71.5 28q54 0 94 -48t40 -128q0 -51 -22 -104.5 t-62.5 -105t-75 -87t-82.5 -80.5z" />
<glyph unicode="&#x2022;" horiz-adv-x="837" d="M92 721q0 133 97 230.5t231 97.5q132 0 228.5 -97.5t96.5 -230.5q0 -135 -96.5 -231.5t-228.5 -96.5q-134 0 -231 96.5t-97 231.5z" />
<glyph unicode="&#x2026;" horiz-adv-x="2048" d="M213 104q0 58 35.5 96t93.5 38q59 0 94 -38t35 -96q-2 -57 -36 -93t-93 -36q-58 0 -93.5 36.5t-35.5 92.5zM895 104q0 58 35.5 96t93.5 38q59 0 94 -38t35 -96q-2 -57 -36 -93t-93 -36q-58 0 -93.5 36.5t-35.5 92.5zM1577 104q0 58 35.5 96t93.5 38q59 0 94 -38t35 -96 q-2 -57 -36 -93t-93 -36q-58 0 -93.5 36.5t-35.5 92.5z" />
<glyph unicode="&#x202f;" horiz-adv-x="364" />
<glyph unicode="&#x2039;" horiz-adv-x="526" d="M84 489q0 21 10 31l307 371l41 -35l-161 -334q-9 -15 -9 -33t9 -36l161 -336l-41 -33l-307 373q-10 13 -10 32z" />
<glyph unicode="&#x203a;" horiz-adv-x="526" d="M84 117l162 336q8 16 8 36t-8 33l-162 334l41 35l307 -371q10 -13 10 -31q0 -15 -10 -32l-307 -373z" />
<glyph unicode="&#x205f;" horiz-adv-x="456" />
<glyph unicode="&#x20ac;" d="M6 573l17 72h116v27q0 36 4 106h-137l17 72h129q15 113 50.5 207.5t93.5 171.5t148 120.5t203 43.5q86 0 181.5 -14t158.5 -44v-276h-61q-17 83 -45.5 137t-69 80t-80.5 35.5t-94 9.5q-82 0 -142.5 -64.5t-93 -167t-45.5 -239.5h473l-16 -72h-463q-2 -33 -2 -100v-33h436 l-16 -72h-416q6 -76 19 -146.5t37.5 -141t57.5 -122.5t82.5 -84t108.5 -32q125 0 191 72t110 243h62l-27 -309q-198 -78 -329 -78q-72 0 -137.5 15t-133.5 56.5t-119 106t-87.5 172.5t-45.5 248h-135z" />
<glyph unicode="&#x2122;" horiz-adv-x="2252" d="M92 1210v207h780v-207h-43q-17 97 -53 124.5t-143 27.5h-70v-668q0 -35 8 -48t36 -20.5t98 -11.5v-47h-443v47q69 4 97 11t36 21t8 48v668h-65q-112 0 -149 -27.5t-54 -124.5h-43zM944 567v47q61 5 87 17.5t30 46.5q6 61 6 151v461q0 48 -17 60.5t-98 19.5v47h312 q20 -49 44 -101.5t57 -122.5t48 -103l137 -291h4l138 293q126 269 149 325h305v-47q-80 -7 -97 -19.5t-17 -60.5v-596q0 -49 17 -61.5t97 -18.5v-47h-385v47q57 4 79.5 11.5t29 20.5t6.5 48v611h-8l-342 -715h-43l-340 715h-8v-476q0 -69 8 -151q4 -35 32.5 -46.5 t110.5 -17.5v-47h-342z" />
<glyph unicode="&#xe000;" horiz-adv-x="1003" d="M0 0v1004h1004v-1004h-1004z" />
</font>
</defs>
</svg>
