<?xml version="1.0" standalone="no"?>
<!DOCTYPE svg PUBLIC "-//W3C//DTD SVG 1.1//EN" "http://www.w3.org/Graphics/SVG/1.1/DTD/svg11.dtd" >
<svg xmlns="http://www.w3.org/2000/svg">
<metadata></metadata>
<defs>
<font id="veggieburgerbold" horiz-adv-x="628" >
<font-face units-per-em="1000" ascent="820" descent="-180" />
<missing-glyph horiz-adv-x="203" />
<glyph unicode="&#xfb01;" horiz-adv-x="492" d="M11 369q0 22 15.5 37t36.5 15h32q2 97 52.5 164t142.5 67q47 0 90 -21.5t70 -60.5q10 -15 10 -32q0 -22 -17 -41t-40 -19q-40 0 -52 47q-27 23 -61 23q-47 0 -68.5 -37.5t-22.5 -89.5h201q23 0 39 -15t16 -37v-324q0 -22 -15 -37.5t-37 -15.5t-37 15.5t-15 37.5v272h-152 v-272q0 -22 -15.5 -37.5t-36.5 -15.5q-22 0 -37 15.5t-15 37.5v272h-32q-21 0 -36.5 15.5t-15.5 36.5z" />
<glyph unicode="&#xfb02;" horiz-adv-x="504" d="M11 369q0 22 15.5 37t36.5 15h31q3 122 71 182q56 50 131 50q18 0 40.5 -2.5t50 -6.5t35.5 -5q19 -2 32 -17t13 -35v-542q0 -22 -15 -37t-37 -15q-21 0 -36.5 15t-15.5 37v496q-59 7 -61 7q-41 0 -68 -23q-33 -29 -35 -104h77q22 0 37 -15t15 -37q0 -21 -15 -36.5 t-37 -15.5h-77v-271q0 -21 -15.5 -36.5t-37.5 -15.5q-21 0 -36.5 15.5t-15.5 36.5v271h-31q-21 0 -36.5 15.5t-15.5 36.5z" />
<glyph horiz-adv-x="1000" />
<glyph horiz-adv-x="1000" />
<glyph unicode="&#xd;" horiz-adv-x="1000" />
<glyph unicode=" "  horiz-adv-x="203" />
<glyph unicode="&#x09;" horiz-adv-x="203" />
<glyph unicode="&#xa0;" horiz-adv-x="203" />
<glyph unicode="!" horiz-adv-x="182" d="M42 52q0 25 17.5 43t42.5 18t43 -18t18 -43q0 -26 -17.5 -43.5t-43.5 -17.5q-25 0 -42.5 18t-17.5 43zM46 194v399q0 23 16.5 39.5t39.5 16.5t39.5 -16.5t16.5 -39.5v-399q0 -23 -16.5 -39.5t-39.5 -16.5t-39.5 16.5t-16.5 39.5z" />
<glyph unicode="&#x22;" horiz-adv-x="275" d="M18 473v123q0 22 15 37.5t37 15.5t37 -15.5t15 -37.5v-123q0 -22 -15 -37t-37 -15t-37 15t-15 37zM153 473v123q0 22 15 37.5t37 15.5t37 -15.5t15 -37.5v-123q0 -22 -15 -37t-37 -15t-37 15t-15 37z" />
<glyph unicode="#" horiz-adv-x="570" d="M12 337q0 22 15 37t37 15h69l20 59h-32q-22 0 -37 15.5t-15 36.5q0 22 15 37t37 15h68l21 62q6 16 19.5 25.5t29.5 9.5q22 0 37.5 -15.5t15.5 -36.5q0 -8 -3 -17l-10 -28h60l21 62q6 16 19.5 25.5t29.5 9.5q23 0 38 -15t15 -36q0 -9 -3 -18l-9 -27h36q22 0 37 -15.5 t15 -37.5q0 -21 -15 -36.5t-37 -15.5h-73l-20 -59h36q22 0 37 -15t15 -37t-15 -37t-37 -15h-72l-29 -83q-12 -35 -49 -35q-22 0 -37 15.5t-15 36.5q0 9 3 17l17 49h-60l-29 -83q-5 -16 -19 -25.5t-30 -9.5q-22 0 -37 15.5t-15 36.5q0 9 3 17l17 49h-33q-22 0 -37 15t-15 37z M243 389h60l20 59h-60z" />
<glyph unicode="$" horiz-adv-x="354" d="M13 199q0 21 15.5 36.5t37.5 15.5t37 -15q7 -8 20 -15t29.5 -12t30.5 -5q20 0 31.5 9t11.5 23q0 5 -0.5 8t-4.5 10t-12 12t-24 12t-38 13q-29 7 -52 20t-38.5 30t-24 38t-8.5 45q0 47 26.5 78t69.5 41v53q0 22 15 37.5t37 15.5t37 -15.5t15 -37.5v-53q92 -20 92 -71 q0 -22 -16 -37t-37 -15q-14 0 -25 7q-39 22 -68 22q-42 0 -42 -25q0 -21 45 -32q158 -41 158 -156q0 -46 -29.5 -80t-77.5 -45v-66q0 -22 -15 -37t-37 -15t-37 15t-15 37v69q-59 16 -92 49q-15 15 -15 36z" />
<glyph unicode="%" horiz-adv-x="724" d="M20 396q0 87 68 171.5t152 84.5q51 0 80.5 -34.5t29.5 -85.5q0 -86 -68.5 -170t-150.5 -84q-50 0 -80.5 34t-30.5 84zM113 48q0 16 11 33l386 545q16 24 45 24q24 0 40.5 -17t16.5 -39q0 -18 -10 -32l-386 -546q-18 -24 -45 -24q-25 0 -41.5 17t-16.5 39zM123 401 q0 -18 14 -18q15 0 44 25q37 32 55 76q11 28 11 45q0 19 -13 19q-15 0 -46 -27q-37 -33 -53 -76q-12 -27 -12 -44zM374 107q0 87 68 171t152 84q51 0 80.5 -34.5t29.5 -85.5q0 -86 -68.5 -170t-150.5 -84q-50 0 -80.5 34.5t-30.5 84.5zM477 112q0 -19 14 -19q15 0 44 25 q36 31 55 77q11 27 11 45t-13 18q-14 0 -46 -26q-36 -33 -54 -76q-11 -28 -11 -44z" />
<glyph unicode="&#x26;" horiz-adv-x="456" d="M16 204q0 75 78 126q-16 26 -16 58q0 55 38 95t94 61v56q0 22 15.5 37.5t37.5 15.5q21 0 36.5 -15.5t15.5 -37.5v-36q11 1 34 1q24 0 36 -1q21 -2 35.5 -17t13.5 -35v-3q-1 -21 -16 -35.5t-36 -13.5h-3q-5 0 -15 0.5t-14 0.5q-105 0 -152 -43q-16 -16 -16 -27 q0 -14 20 -14q8 0 18 3q27 7 151 24q2 1 7 1q19 0 34 -13t18 -32v-7q0 -20 -13 -34.5t-32 -17.5l-98 -14q-70 -10 -115 -33q-51 -26 -51 -46q0 -22 63 -25q3 0 9 -0.5t10 -0.5q66 0 173 24q4 1 11 1q22 0 37 -15t15 -37q0 -18 -11 -32.5t-29 -18.5q-67 -13 -84 -16v-46 q0 -22 -15.5 -37.5t-36.5 -15.5q-22 0 -37.5 15.5t-15.5 37.5v36h-6q-34 0 -65 5.5t-60 19t-46 39.5t-17 62z" />
<glyph unicode="'" horiz-adv-x="140" d="M18 473v123q0 22 15 37.5t37 15.5t37 -15.5t15 -37.5v-123q0 -22 -15 -37t-37 -15t-37 15t-15 37z" />
<glyph unicode="(" horiz-adv-x="303" d="M11 265q0 111 47.5 216.5t135.5 190.5q16 16 39 16q24 0 40.5 -15.5t16.5 -39.5t-17 -41q-150 -145 -150 -329q0 -84 35 -157.5t103 -112.5q29 -16 29 -48q0 -23 -16.5 -40t-39.5 -17q-15 0 -29 8q-95 54 -144.5 154t-49.5 215z" />
<glyph unicode=")" horiz-adv-x="303" d="M14 -55q0 32 28 48q68 39 103 112.5t35 157.5q0 183 -149 329q-17 16 -17 41q0 24 16 39.5t40 15.5q22 0 39 -15q89 -86 136.5 -192t47.5 -216q0 -115 -50 -215t-145 -154q-14 -8 -29 -8q-23 0 -39 17t-16 40z" />
<glyph unicode="*" horiz-adv-x="305" d="M7 520q-1 18 11.5 30.5t29.5 12.5h26l-14 21q-7 12 -7 23q0 17 12.5 29.5t29.5 12.5q23 0 36 -19l24 -37l24 37q12 19 35 19q18 0 30 -12.5t12 -29.5q0 -13 -7 -23l-13 -20h20q17 0 29.5 -12.5t12.5 -29.5q1 -17 -11.5 -29.5t-29.5 -12.5h-27l17 -25q7 -12 7 -23 q0 -17 -12 -29.5t-30 -12.5q-23 0 -36 19l-21 32l-22 -32q-12 -19 -35 -19q-18 0 -30 12.5t-12 29.5q0 11 7 23l16 24h-30q-17 0 -29.5 12t-12.5 29z" />
<glyph unicode="+" horiz-adv-x="469" d="M15 273q0 22 15 37t37 15h115v125q0 21 15.5 36.5t36.5 15.5q22 0 37.5 -15.5t15.5 -36.5v-125h111q22 0 37.5 -15t15.5 -37t-15.5 -37t-37.5 -15h-111v-120q0 -22 -15.5 -37t-37.5 -15q-21 0 -36.5 15t-15.5 37v120h-115q-22 0 -37 15t-15 37z" />
<glyph unicode="," horiz-adv-x="161" d="M1 -82q0 23 16 36q21 18 33 48q-25 18 -25 50q0 25 18 43t43 18q30 0 47 -23t17 -66q0 -37 -20 -77t-49 -65q-13 -12 -32 -12t-33.5 14t-14.5 34z" />
<glyph unicode="-" horiz-adv-x="292" d="M26 249q0 23 16.5 39.5t39.5 16.5h128q23 0 39.5 -16.5t16.5 -39.5t-16.5 -39.5t-39.5 -16.5h-128q-23 0 -39.5 16.5t-16.5 39.5z" />
<glyph unicode="." horiz-adv-x="162" d="M26 52q0 25 17.5 43t42.5 18t43 -18t18 -43q0 -26 -17.5 -43.5t-43.5 -17.5q-25 0 -42.5 18t-17.5 43z" />
<glyph unicode="/" horiz-adv-x="525" d="M13 47q0 19 11 34l386 545q16 24 45 24q24 0 40.5 -16.5t16.5 -39.5q0 -18 -10 -32l-387 -546q-16 -24 -44 -24q-25 0 -41.5 16.5t-16.5 38.5z" />
<glyph unicode="0" horiz-adv-x="686" d="M26 226q0 101 57.5 200.5t153 163t196.5 63.5q104 0 164.5 -68.5t60.5 -172.5q0 -99 -57.5 -197.5t-153 -162t-196.5 -63.5q-102 0 -163.5 67.5t-61.5 169.5zM138 224q0 -55 29.5 -88.5t83.5 -33.5q106 0 200.5 102.5t94.5 210.5q0 56 -29 90.5t-84 34.5 q-108 0 -201.5 -103t-93.5 -213z" />
<glyph unicode="1" horiz-adv-x="318" d="M31 485q0 27 19 43l121 107q17 14 38 14q23 0 39.5 -16.5t16.5 -39.5v-543q0 -23 -16.5 -40t-39.5 -17t-40 17t-17 40v419l-28 -25q-16 -14 -36 -14q-23 0 -40 16t-17 39z" />
<glyph unicode="2" horiz-adv-x="519" d="M33 58q0 17 7 28q38 78 96 137t159 128q76 53 76 108q0 40 -33 61t-75 21q-66 0 -140 -47q-13 -8 -30 -8q-22 0 -39.5 16t-17.5 40q0 30 27 47q99 64 202 64q89 0 153.5 -53.5t64.5 -139.5q0 -116 -124 -201q-69 -47 -107 -78t-66 -69h239q23 0 39.5 -16.5t16.5 -39.5 t-16.5 -39.5t-39.5 -16.5h-336q-24 0 -40 17t-16 41z" />
<glyph unicode="3" horiz-adv-x="546" d="M23 552q0 33 29 49q95 51 173 51q69 -1 118 -42t49 -109q0 -37 -17 -60q57 -8 99.5 -54t42.5 -107q0 -55 -31 -102t-77.5 -78.5t-107 -55t-112.5 -36t-102 -18.5h-7q-23 0 -39.5 16t-16.5 40q0 22 14.5 37.5t35.5 17.5q133 17 232 67t99 111q0 29 -29 47t-84 18 q-51 0 -185 -39q-10 -2 -16 -2q-23 0 -39.5 16t-16.5 40q0 18 11.5 33.5t29.5 20.5q24 7 79 18t78 17q48 12 48 51q0 18 -15.5 29t-42.5 11q-49 0 -118 -37q-12 -6 -26 -6q-24 0 -40 16.5t-16 39.5z" />
<glyph unicode="4" horiz-adv-x="576" d="M16 200v1q-1 18 12 35l324 393q17 20 43 20q23 0 39.5 -16.5t16.5 -39.5q0 -21 -12 -36l-248 -300h158v114q0 23 16.5 39.5t39.5 16.5t39.5 -16.5t16.5 -39.5v-114h44q23 0 39.5 -16.5t16.5 -39.5t-16.5 -39.5t-39.5 -16.5h-44v-96q0 -23 -16.5 -39.5t-39.5 -16.5 t-39.5 16.5t-16.5 39.5v96h-277q-24 0 -40 16t-16 39z" />
<glyph unicode="5" horiz-adv-x="511" d="M23 47q0 21 15 37t36 18q37 3 81 12.5t97.5 27.5t89 49.5t35.5 71.5q0 37 -37 53.5t-79 16.5q-16 0 -31.5 -2t-33.5 -6t-28.5 -7t-32.5 -10t-29 -9q-8 -3 -17 -3q-23 0 -39.5 17t-16.5 39v234q0 23 16.5 39.5t39.5 16.5h277q23 0 39.5 -16.5t16.5 -39.5t-16.5 -40 t-39.5 -17h-221v-107q68 18 116 18q92 0 160 -45.5t68 -132.5q0 -67 -41.5 -120t-107.5 -83.5t-129 -46.5t-126 -22h-5q-24 0 -40.5 17t-16.5 40z" />
<glyph unicode="6" horiz-adv-x="606" d="M33 257q0 61 21.5 120t66.5 115.5t128 99t193 60.5q3 1 9 1q23 0 39.5 -16.5t16.5 -40.5q0 -20 -13.5 -35.5t-33.5 -19.5q-161 -26 -238 -104.5t-77 -171.5q0 -2 0.5 -7.5t0.5 -8.5q31 80 103 136t154 56q75 0 122.5 -48t47.5 -124q0 -107 -89 -193t-197 -86 q-110 0 -182 77t-72 190zM231 161q0 -59 56 -59q63 0 118 54t55 115q0 58 -56 58q-62 0 -117.5 -53.5t-55.5 -114.5z" />
<glyph unicode="7" horiz-adv-x="538" d="M23 586q0 23 16.5 39.5t39.5 16.5h382q23 0 39.5 -16t16.5 -39q0 -19 -9 -32l-358 -536q-17 -25 -46 -25q-24 0 -40.5 16t-16.5 40q0 16 9 31l300 449h-277q-23 0 -39.5 16.5t-16.5 39.5z" />
<glyph unicode="8" horiz-adv-x="616" d="M27 153v7q0 52 32 110.5t78 87.5q-23 13 -37.5 40.5t-14.5 55.5q0 82 74 140t158 58q64 0 110 -36.5t46 -99.5q0 -41 -25 -71q61 -7 102 -52t41 -106q0 -80 -57.5 -150.5t-139.5 -109t-160 -38.5q-83 0 -143 42t-64 122zM139 158q0 -30 29.5 -43.5t64.5 -13.5 q73 0 159.5 57.5t86.5 127.5q0 61 -92 61q-47 0 -104.5 -25.5t-100.5 -70.5t-43 -93zM197 456q0 -26 46 -26q37 0 77 25t40 59q0 26 -43 26q-35 1 -77.5 -25t-42.5 -59z" />
<glyph unicode="9" horiz-adv-x="606" d="M33 373q0 107 89 193t197 86q110 0 182 -77t72 -190q0 -61 -21.5 -120t-66.5 -115.5t-128 -99t-193 -60.5q-3 -1 -10 -1q-23 0 -39 16.5t-16 40.5q0 20 13.5 35.5t33.5 19.5q161 26 237.5 104.5t76.5 171.5v16q-31 -80 -103.5 -136t-153.5 -56q-76 0 -123 48t-47 124z M145 371q0 -28 15 -43t42 -15q62 0 117.5 53.5t55.5 114.5q0 59 -56 59q-63 0 -118.5 -54t-55.5 -115z" />
<glyph unicode=":" horiz-adv-x="162" d="M26 139q0 25 17.5 43t42.5 18q26 0 43.5 -18t17.5 -43t-17.5 -43t-43.5 -18q-25 0 -42.5 18t-17.5 43zM26 323q0 25 17.5 43t42.5 18q26 0 43.5 -18t17.5 -43t-18 -43t-43 -18t-42.5 18t-17.5 43z" />
<glyph unicode=";" horiz-adv-x="162" d="M1 4q0 21 16 36q20 16 33 48q-25 18 -25 49q0 25 17.5 43t43.5 18q30 0 47 -23t17 -66q0 -37 -20.5 -77t-48.5 -65q-13 -12 -32 -12q-20 0 -34 14.5t-14 34.5zM26 323q0 25 17.5 43t42.5 18q26 0 43.5 -18t17.5 -43t-18 -43t-43 -18t-42.5 18t-17.5 43z" />
<glyph unicode="&#x3c;" horiz-adv-x="446" d="M15 254q0 28 24 44l304 193q14 8 29 8q21 0 36 -15.5t15 -36.5q0 -30 -24 -44l-234 -149l234 -149q24 -16 24 -44q0 -21 -15.5 -36.5t-37.5 -15.5q-13 0 -27 8l-304 193q-24 14 -24 44z" />
<glyph unicode="=" horiz-adv-x="405" d="M23 168q0 22 15 37t37 15h255q22 0 37 -15t15 -37t-15 -37t-37 -15h-255q-22 0 -37 15t-15 37zM23 335q0 22 15 37.5t37 15.5h255q22 0 37 -15.5t15 -37.5q0 -21 -15 -36.5t-37 -15.5h-255q-22 0 -37 15.5t-15 36.5z" />
<glyph unicode="&#x3e;" horiz-adv-x="446" d="M23 61q0 29 24 44l234 149l-234 149q-24 14 -24 44q0 21 15 36.5t36 15.5q15 0 29 -8l303 -193q25 -16 25 -44q0 -30 -25 -44l-303 -193q-14 -8 -28 -8q-22 0 -37 15.5t-15 36.5z" />
<glyph unicode="?" horiz-adv-x="453" d="M16 548q0 31 28 47q36 22 93 39.5t99 17.5q83 0 144 -53t61 -133q0 -66 -48 -116.5t-115 -73.5q-31 -11 -42 -26t-11 -55v-2q0 -23 -16.5 -40t-39.5 -17t-39.5 17t-16.5 40v2q0 145 128 187q42 13 65 39.5t23 51.5q0 33 -25.5 51.5t-68.5 18.5q-25 0 -66 -14.5t-68 -29.5 q-12 -8 -29 -8q-22 0 -39 16.5t-17 40.5zM109 52q0 25 18 43t43 18t43 -18t18 -43t-18 -43t-43 -18q-26 0 -43.5 17.5t-17.5 43.5z" />
<glyph unicode="@" horiz-adv-x="872" d="M15 274q0 87 37.5 159t102 119.5t151 73.5t184.5 26q70 0 129.5 -15.5t101.5 -41.5t71.5 -61t43.5 -74t14 -80q0 -43 -12.5 -84t-37 -76t-64.5 -56.5t-90 -21.5q-42 0 -76.5 19t-54.5 53q-98 -70 -188 -70q-64 0 -105.5 36t-41.5 95q0 57 32.5 104t82.5 75t105.5 43 t106.5 15q40 0 91 -8q20 -4 32 -18t12 -32q0 -5 -2 -15q-1 -4 -11 -30.5t-15 -42t-10.5 -38t-5.5 -38.5q0 -26 13 -41t35 -15q44 0 72 42.5t28 103.5q0 68 -64.5 121.5t-191.5 53.5q-99 0 -181.5 -30.5t-136.5 -96t-54 -155.5q0 -93 70.5 -140t183.5 -47q87 0 181 36 q11 4 24 4q22 0 37 -15t15 -35q0 -34 -39 -50q-50 -19 -116 -28.5t-102 -9.5q-70 0 -132 16.5t-113.5 50t-81.5 90t-30 129.5zM283 277q0 -35 45 -35q15 0 33 4.5t39.5 14.5t47 27.5t51.5 40.5q6 33 25 89h-16q-53 0 -98 -15t-71.5 -37.5t-41 -46t-14.5 -42.5z" />
<glyph unicode="A" horiz-adv-x="631" d="M22 49q0 10 5 22l234 543q17 37 56 37q38 0 53 -34l236 -546q4 -9 4 -22q0 -24 -16.5 -40.5t-39.5 -16.5q-36 0 -51 34l-54 124h-265l-54 -124q-15 -34 -52 -34q-23 0 -39.5 16.5t-16.5 40.5zM229 255h175l-88 203z" />
<glyph unicode="B" horiz-adv-x="599" d="M46 49v501q0 35 31 51q111 53 192 51q65 0 110.5 -35.5t45.5 -99.5q0 -27 -16 -53q72 -12 120 -57t48 -115q0 -59 -34 -109t-85 -82t-117 -56.5t-122 -36.5t-109 -18h-7q-23 0 -40 17t-17 42zM158 102q149 28 228 84.5t79 106.5q0 35 -38.5 50.5t-79.5 15.5 q-83 0 -189 -43v-214zM158 427q45 16 104 28q22 4 36.5 19.5t14.5 32.5q0 34 -46 34q-42 0 -109 -27v-87z" />
<glyph unicode="C" horiz-adv-x="562" d="M24 252q0 85 40.5 157t107.5 119.5t142.5 78t156.5 44.5q3 1 10 1q23 0 39.5 -16.5t16.5 -39.5q0 -21 -13 -36.5t-34 -18.5q-46 -8 -92 -22.5t-94.5 -39t-84.5 -56t-59.5 -76t-23.5 -95.5q0 -65 40 -107.5t104 -42.5q79 0 173 68q16 11 32 11q24 0 40.5 -16.5t16.5 -40.5 q0 -28 -23 -45q-122 -89 -242 -89q-108 0 -180.5 75.5t-72.5 186.5z" />
<glyph unicode="D" horiz-adv-x="611" d="M46 46v502q0 36 34 51q118 53 226 53q118 0 199 -70t81 -187q0 -70 -30 -131.5t-78 -106t-111.5 -79.5t-127 -56t-127.5 -32q-2 0 -5.5 -0.5t-4.5 -0.5q-23 0 -39.5 16.5t-16.5 40.5zM158 103q150 39 232.5 126.5t82.5 167.5q0 69 -48 106t-119 37q-67 0 -148 -30v-407z " />
<glyph unicode="E" horiz-adv-x="437" d="M46 56v531q0 23 16.5 39.5t39.5 16.5h252q23 0 39.5 -16.5t16.5 -39.5t-16.5 -40t-39.5 -17h-196v-109h179q23 0 40 -16.5t17 -39.5t-17 -39.5t-40 -16.5h-179v-197h200q23 0 39.5 -16.5t16.5 -39.5t-16.5 -39.5t-39.5 -16.5h-256q-23 0 -39.5 16.5t-16.5 39.5z" />
<glyph unicode="F" horiz-adv-x="438" d="M46 50v536q0 23 16.5 39.5t39.5 16.5h257q23 0 39.5 -16.5t16.5 -39.5t-16.5 -40t-39.5 -17h-201v-108h170q23 0 39.5 -16.5t16.5 -39.5t-16.5 -39.5t-39.5 -16.5h-170v-259q0 -23 -16.5 -39.5t-39.5 -16.5t-39.5 16.5t-16.5 39.5z" />
<glyph unicode="G" horiz-adv-x="584" d="M24 241q0 70 26.5 132t70.5 107.5t102.5 81t121 57.5t128.5 33q3 1 10 1q23 0 39.5 -16.5t16.5 -40.5q0 -20 -13.5 -35.5t-33.5 -18.5q-61 -11 -120 -33t-114 -57.5t-88.5 -90t-33.5 -119.5q0 -64 37.5 -103.5t99.5 -39.5q71 0 158 65v54h-102q-23 0 -39.5 16.5 t-16.5 39.5t16.5 39.5t39.5 16.5h158q23 0 39.5 -16.5t16.5 -39.5v-225q0 -23 -16.5 -39.5t-39.5 -16.5q-21 0 -36.5 13.5t-18.5 34.5q-90 -51 -174 -51q-102 0 -168 73.5t-66 177.5z" />
<glyph unicode="H" horiz-adv-x="573" d="M46 50v541q0 23 16.5 40t39.5 17t39.5 -17t16.5 -40v-171h257v171q0 23 16.5 40t39.5 17t39.5 -17t16.5 -40v-541q0 -23 -16.5 -39.5t-39.5 -16.5t-39.5 16.5t-16.5 39.5v265h-257v-265q0 -23 -16.5 -39.5t-39.5 -16.5t-39.5 16.5t-16.5 39.5z" />
<glyph unicode="I" horiz-adv-x="204" d="M46 50v542q0 23 16.5 39.5t39.5 16.5t39.5 -16.5t16.5 -39.5v-542q0 -23 -16.5 -39.5t-39.5 -16.5t-39.5 16.5t-16.5 39.5z" />
<glyph unicode="J" horiz-adv-x="472" d="M13 97q0 23 16.5 39.5t39.5 16.5q24 0 41 -17q32 -34 86 -34q58 0 88.5 40t30.5 101v348q0 23 17 40t40 17t39.5 -17t16.5 -40v-348q0 -108 -65.5 -180.5t-168.5 -72.5q-100 0 -165 68q-16 18 -16 39z" />
<glyph unicode="K" horiz-adv-x="569" d="M46 49v542q0 23 16.5 40t39.5 17t39.5 -17t16.5 -40v-184l242 227q15 15 38 15q22 0 39 -16t17 -40t-18 -42l-207 -190l260 -273q15 -16 15 -39q0 -24 -17 -40t-40 -16q-24 0 -39 18l-290 308v-270q0 -23 -16.5 -40t-39.5 -17t-39.5 17t-16.5 40z" />
<glyph unicode="L" horiz-adv-x="423" d="M46 56v536q0 23 16.5 40t39.5 17t39.5 -17t16.5 -40v-480h186q23 0 40 -16.5t17 -39.5t-17 -39.5t-40 -16.5h-242q-23 0 -39.5 16.5t-16.5 39.5z" />
<glyph unicode="M" horiz-adv-x="715" d="M45 49v547q0 23 16.5 39.5t40.5 16.5q29 0 46 -25l210 -310l210 310q16 25 46 25q24 0 40 -16.5t16 -39.5v-547q0 -23 -16.5 -39.5t-39.5 -16.5t-39.5 16.5t-16.5 39.5v370l-154 -233q-18 -27 -47 -27q-28 0 -46 27l-154 233v-370q0 -23 -16.5 -39.5t-39.5 -16.5 t-39.5 16.5t-16.5 39.5z" />
<glyph unicode="N" horiz-adv-x="570" d="M46 49v548q0 24 16.5 40t40.5 16q29 0 46 -25l263 -397v362q0 23 16.5 39.5t39.5 16.5t39.5 -16.5t16.5 -39.5v-547q0 -23 -16.5 -39.5t-39.5 -16.5q-30 0 -46 25l-264 397v-363q0 -23 -16.5 -40t-39.5 -17t-39.5 17t-16.5 40z" />
<glyph unicode="O" d="M23 255q0 94 44.5 185t126.5 151.5t177 60.5q108 0 171 -78.5t62 -188.5q-1 -93 -45 -184t-126 -151.5t-177 -60.5q-107 0 -170 78.5t-63 187.5zM136 254q0 -62 30.5 -107t89.5 -45q95 0 165.5 92.5t70.5 191.5q0 63 -31 108.5t-90 45.5q-64 0 -119.5 -45t-85.5 -110.5 t-30 -130.5z" />
<glyph unicode="P" horiz-adv-x="517" d="M46 50v495q0 35 31 50q114 58 211 58q88 0 150 -45.5t62 -128.5q0 -60 -33 -108.5t-87.5 -79t-109 -48.5t-112.5 -28v-165q0 -23 -16.5 -39.5t-39.5 -16.5t-39.5 16.5t-16.5 39.5zM158 320q44 8 91.5 25.5t93 53.5t45.5 79q0 32 -29.5 47t-65.5 15q-61 0 -135 -31v-189z " />
<glyph unicode="Q" d="M23 255q0 94 44.5 185t126.5 151.5t177 60.5q108 0 171 -78.5t62 -188.5q0 -131 -85 -248l107 -112q15 -15 15 -36q0 -22 -15.5 -37t-37.5 -15q-20 0 -38 16l-102 108q-88 -72 -192 -72q-107 0 -170 78.5t-63 187.5zM136 254q0 -62 30.5 -107t89.5 -45q62 0 114 41 l-46 48q-14 14 -14 36t15 36.5t38 14.5q22 0 37 -16l40 -41q52 80 52 165q0 63 -31 108.5t-90 45.5q-64 0 -119.5 -45t-85.5 -110.5t-30 -130.5z" />
<glyph unicode="R" horiz-adv-x="544" d="M46 49v487q0 33 28 49q121 67 226 67q80 0 139.5 -46t59.5 -124q0 -70 -49.5 -121.5t-123.5 -71.5q79 -83 191 -206q15 -15 15 -37q0 -23 -16 -39.5t-40 -16.5t-41 18l-238 259q-15 17 -15 41q0 22 12.5 39.5t33.5 21.5q25 5 49 13t50.5 21.5t43 34.5t16.5 46 q0 26 -24.5 41t-63.5 15q-61 0 -141 -38v-453q0 -23 -16.5 -39.5t-39.5 -16.5t-39.5 16.5t-16.5 39.5z" />
<glyph unicode="S" horiz-adv-x="444" d="M16 475q1 79 61 128.5t140 49.5h2q82 0 168 -41q31 -16 31 -51q0 -23 -16.5 -39.5t-40.5 -16.5q-12 0 -24 6q-63 30 -118 30q-34 0 -62 -17t-28 -49q0 -25 19 -41.5t46 -23.5q55 -16 90 -34q63 -33 103 -84t40 -115q0 -82 -61 -135t-143 -53q-87 0 -175 54q-27 15 -27 48 q0 24 17 40t39 16q15 0 29 -8q61 -38 114 -38q37 0 66 20t29 56q0 54 -75 95q-32 18 -75 29q-65 18 -107 64t-42 110z" />
<glyph unicode="T" horiz-adv-x="526" d="M18 586q0 23 16.5 39.5t39.5 16.5h378q23 0 39.5 -16.5t16.5 -39.5t-16.5 -40t-39.5 -17h-133v-481q0 -23 -16.5 -39.5t-39.5 -16.5t-39.5 16.5t-16.5 39.5v481h-133q-23 0 -39.5 17t-16.5 40z" />
<glyph unicode="U" horiz-adv-x="573" d="M46 264v328q0 23 16.5 40t39.5 17t39.5 -17t16.5 -40v-328q0 -162 128 -162q129 0 129 162v328q0 23 16.5 40t39.5 17t39.5 -17t16.5 -40v-328q0 -126 -64 -200.5t-177 -74.5q-112 0 -176 74.5t-64 200.5z" />
<glyph unicode="V" horiz-adv-x="623" d="M18 592q0 23 16 39.5t39 16.5q38 0 52 -34l186 -431l186 431q14 34 52 34q23 0 39 -16.5t16 -39.5q0 -13 -4 -22l-235 -544q-15 -37 -53 -37q-40 0 -55 37l-235 544q-4 9 -4 22z" />
<glyph unicode="W" horiz-adv-x="904" d="M17 592q0 23 16.5 39.5t39.5 16.5q38 0 52 -34l186 -431l80 185l-87 202q-5 9 -5 22q0 23 16 39.5t39 16.5q38 0 53 -34l185 -431l186 431q14 34 52 34q23 0 39.5 -16.5t16.5 -39.5q0 -10 -5 -22l-234 -544q-15 -37 -54 -37t-55 37l-86 200l-87 -200q-15 -37 -53 -37 q-40 0 -55 37l-235 544q-5 12 -5 22z" />
<glyph unicode="X" horiz-adv-x="588" d="M21 49q0 18 10 32l194 270l-151 210q-11 16 -11 32q0 24 16.5 40.5t39.5 16.5q28 0 46 -24l129 -179l129 180q17 23 46 23q24 0 40 -16.5t16 -40.5q0 -16 -11 -32l-151 -210l194 -270q11 -14 11 -34q0 -22 -16.5 -38.5t-38.5 -16.5q-31 0 -47 24l-172 239l-172 -239 q-16 -24 -46 -24q-23 0 -39 16.5t-16 40.5z" />
<glyph unicode="Y" horiz-adv-x="542" d="M16 594q0 23 16 39.5t39 16.5q28 0 46 -22l156 -206l150 205q16 23 46 23q23 0 39.5 -16.5t16.5 -40.5q0 -16 -11 -32l-184 -251v-261q0 -23 -16.5 -39.5t-39.5 -16.5t-40 16.5t-17 39.5v259l-190 252q-11 14 -11 34z" />
<glyph unicode="Z" horiz-adv-x="502" d="M17 57q0 17 9 30l283 442h-213q-23 0 -40 16.5t-17 39.5t17 39.5t40 16.5h316q23 0 39.5 -16.5t16.5 -39.5q0 -17 -9 -30l-283 -442h254q23 0 39.5 -16.5t16.5 -39.5t-16.5 -39.5t-39.5 -16.5h-357q-23 0 -39.5 16.5t-16.5 39.5z" />
<glyph unicode="[" horiz-adv-x="249" d="M0 -97v770q0 22 16 38.5t39 16.5h129q23 0 38.5 -16.5t15.5 -38.5t-15.5 -38t-38.5 -16h-74v-661h74q23 0 38.5 -16.5t15.5 -38.5t-15.5 -38t-38.5 -16h-129q-23 0 -39 16t-16 38z" />
<glyph unicode="\" horiz-adv-x="510" d="M18 594q0 24 17 41.5t41 17.5q32 0 49 -27l357 -546q10 -15 10 -31q0 -25 -17 -42t-42 -17q-32 0 -49 27l-356 545q-10 14 -10 32z" />
<glyph unicode="]" horiz-adv-x="249" d="M10 -97q0 22 16 38.5t39 16.5h74v661h-74q-23 0 -39 16t-16 38t16 38.5t39 16.5h129q23 0 39 -16.5t16 -38.5v-770q0 -22 -16 -38t-39 -16h-129q-23 0 -39 16t-16 38z" />
<glyph unicode="^" horiz-adv-x="482" d="M13 306q0 15 8 29l171 291q16 27 49 27q32 0 49 -27l170 -292q8 -13 8 -28q0 -23 -16.5 -39.5t-39.5 -16.5q-33 0 -49 27l-122 209l-123 -208q-16 -28 -48 -28q-23 0 -40 16.5t-17 39.5z" />
<glyph unicode="_" horiz-adv-x="508" d="M-58 -93q0 25 17 42t41 17h508q24 0 41 -17t17 -42q0 -24 -17 -41t-41 -17h-508q-24 0 -41 17t-17 41z" />
<glyph unicode="`" horiz-adv-x="442" d="M123 614q0 18 12.5 31.5t30.5 13.5q13 0 26 -8l102 -71q19 -13 19 -36q0 -19 -12.5 -31.5t-31.5 -12.5q-14 0 -25 8l-102 70q-19 14 -19 36z" />
<glyph unicode="a" horiz-adv-x="504" d="M17 106q-1 73 83.5 126t249.5 62q-24 38 -100 38q-72 0 -123 -38q-14 -11 -31 -11q-21 0 -36.5 15.5t-15.5 37.5q0 26 20 41q72 55 186 55q102 0 159.5 -51t57.5 -142v-194q0 -21 -15 -36.5t-37 -15.5t-37 15.5t-15 36.5v8q-95 -64 -200 -64q-74 0 -110 34t-36 83z M128 113q0 -22 41 -22q85 0 194 74v34q-52 0 -143.5 -24t-91.5 -62z" />
<glyph unicode="b" horiz-adv-x="512" d="M37 45v551q0 22 15 37t37 15t37 -15t15 -37v-205q91 41 172 41q79 0 132 -42t53 -117q0 -52 -28 -97t-71 -76t-98.5 -54.5t-105.5 -36.5t-97 -19h-7q-23 0 -38.5 16t-15.5 39zM141 95q31 7 70.5 21.5t82.5 37t71.5 55t28.5 66.5q0 29 -26 41t-60 12q-71 0 -167 -51v-182z " />
<glyph unicode="c" horiz-adv-x="503" d="M17 150q0 65 42 118.5t108 85.5t129.5 50.5t124.5 26.5h7q21 0 36 -14.5t15 -36.5q0 -21 -12.5 -36t-32.5 -17q-35 -4 -82 -16t-101.5 -33t-92 -54.5t-37.5 -72.5q0 -31 28.5 -44t63.5 -13q85 0 191 57q12 6 24 6q21 0 37 -15t16 -37q0 -32 -28 -46q-129 -69 -241 -69 q-79 0 -137 42t-58 118z" />
<glyph unicode="d" horiz-adv-x="513" d="M17 139v3q0 49 24 92.5t61 74.5t85 55.5t93.5 39t90.5 22.5v171q0 22 15 37t37 15t37 -15t15 -37v-551q0 -21 -15 -36.5t-37 -15.5t-37 15t-15 38q-97 -57 -186 -57q-74 0 -121.5 38.5t-46.5 110.5zM121 140q-1 -27 18 -38.5t48 -11.5q80 0 184 71v159q-34 -7 -72.5 -21 t-80.5 -36t-69.5 -54.5t-27.5 -68.5z" />
<glyph unicode="e" horiz-adv-x="518" d="M16 164q0 79 56.5 142.5t134 94t154.5 30.5q55 0 96.5 -27.5t41.5 -79.5q0 -45 -29 -79.5t-71 -54t-96.5 -32t-97 -16.5t-81.5 -5q18 -50 93 -50q65 0 181 60q12 6 24 6q21 0 36.5 -15t15.5 -37q0 -32 -27 -46q-125 -66 -235 -66q-84 0 -140 46.5t-56 128.5zM142 226 q82 4 163.5 33t81.5 59q0 13 -27 13h-2q-59 0 -123 -29t-93 -76z" />
<glyph unicode="f" horiz-adv-x="385" d="M11 368q0 22 15 37t37 15h31q0 98 50.5 164t144.5 66q46 0 66 -13.5t20 -41.5q0 -21 -15 -36.5t-37 -15.5q-5 0 -16 1.5t-16 1.5h-1q-92 0 -92 -126h95q22 0 37 -15t15 -37t-15 -37t-37 -15h-95v-271q0 -21 -15 -36.5t-37 -15.5t-37 15.5t-15 36.5v271h-31q-22 0 -37 15 t-15 37z" />
<glyph unicode="g" horiz-adv-x="578" d="M19 233q0 56 42 103t99.5 71.5t110.5 24.5q35 0 67 -12l56 61q15 15 35 15q23 0 38 -14.5t15 -36.5q0 -23 -15 -39l-54 -57q8 -21 8 -41q0 -31 -18 -67q69 -5 114.5 -52.5t45.5 -117.5q0 -60 -35 -110t-88.5 -80.5t-113 -47t-113.5 -16.5q-83 1 -132.5 38t-49.5 97 q0 56 45 90t127 35h2q32 0 68 -6q44 -6 44 -49q0 -21 -13.5 -34t-35.5 -13q-7 0 -11 1q-28 4 -53 4q-69 0 -69 -27q0 -13 21 -22t59 -9q43 0 98 16.5t100.5 52.5t45.5 80q0 33 -31 56t-81 23q-33 0 -89 -20t-92 -20q-58 0 -102.5 32.5t-44.5 90.5zM125 236q0 -25 46 -25 q42 0 93.5 32t51.5 63q0 25 -42 25q-47 0 -98 -33t-51 -62z" />
<glyph unicode="h" horiz-adv-x="477" d="M37 45v551q0 22 15 37.5t37 15.5t37 -15.5t15 -37.5v-219q49 54 121 54q84 0 131 -55t47 -153v-178q0 -21 -15 -36.5t-37 -15.5t-37 15.5t-15 36.5v178q0 36 -7.5 59.5t-22 32t-23 10.5t-21.5 2q-31 0 -67 -24t-54 -67v-191q0 -21 -15 -36.5t-37 -15.5t-37 15.5t-15 36.5 z" />
<glyph unicode="i" horiz-adv-x="178" d="M31 594q0 24 17 41t41 17t41 -17t17 -41t-17 -41t-41 -17t-41 17t-17 41zM37 46v332q0 22 15 37t37 15t37 -15t15 -37v-332q0 -21 -15 -36.5t-37 -15.5t-37 15.5t-15 36.5z" />
<glyph unicode="j" horiz-adv-x="185" d="M-148 -122q0 23 15.5 37.5t36.5 14.5q9 0 27 -3.5t26 -3.5q86 0 86 97v357q0 22 15 37t37 15t37 -15t15 -37v-358q0 -90 -51 -145t-140 -55q-33 0 -66 9q-17 5 -27.5 19t-10.5 31zM38 594q0 24 17 41t41 17t41 -17t17 -41t-17 -41t-41 -17t-41 17t-17 41z" />
<glyph unicode="k" horiz-adv-x="441" d="M37 45v551q0 22 15 37.5t37 15.5t37 -15.5t15 -37.5v-289l169 112q15 9 33 9q21 0 35.5 -15t14.5 -36q0 -29 -21 -42l-124 -79l164 -177q13 -13 13 -34q0 -22 -15.5 -37t-36.5 -15q-23 0 -39 17l-193 209v-174q0 -22 -15 -37t-37 -15t-37 15t-15 37z" />
<glyph unicode="l" horiz-adv-x="178" d="M37 46v550q0 22 15 37.5t37 15.5t37 -15.5t15 -37.5v-550q0 -21 -15 -36.5t-37 -15.5t-37 15.5t-15 36.5z" />
<glyph unicode="m" horiz-adv-x="763" d="M37 45v334q0 22 15 37t37 15t37 -15t15 -37v-2q49 54 115 54q101 0 148 -78q56 78 144 78q83 0 130.5 -55.5t47.5 -152.5v-178q0 -21 -15.5 -36.5t-36.5 -15.5q-22 0 -37.5 15.5t-15.5 36.5v178q0 36 -7.5 59.5t-21.5 32t-22.5 10.5t-21.5 2q-30 0 -62.5 -23.5 t-51.5 -66.5v-192q0 -21 -15 -36.5t-37 -15.5t-37 15.5t-15 36.5v178q0 36 -7.5 59.5t-22 32t-23 10.5t-21.5 2q-30 0 -63.5 -24t-51.5 -67v-191q0 -21 -15 -36.5t-37 -15.5t-37 15.5t-15 36.5z" />
<glyph unicode="n" horiz-adv-x="477" d="M37 45v334q0 22 15 37t37 15t37 -15t15 -37v-2q49 54 121 54q84 0 131 -55t47 -153v-178q0 -21 -15 -36.5t-37 -15.5t-37 15.5t-15 36.5v178q0 36 -7.5 59.5t-22 32t-23 10.5t-21.5 2q-31 0 -67 -24t-54 -67v-191q0 -21 -15 -36.5t-37 -15.5t-37 15.5t-15 36.5z" />
<glyph unicode="o" horiz-adv-x="460" d="M17 153q-1 103 81.5 191.5t185.5 88.5q71 0 114 -47.5t43 -118.5q0 -103 -82 -190.5t-185 -87.5q-71 0 -114 47t-43 117zM121 155q0 -62 53 -62q59 0 111 57.5t52 117.5q0 61 -53 61q-58 0 -110.5 -57.5t-52.5 -116.5z" />
<glyph unicode="p" horiz-adv-x="509" d="M37 -127v447q0 31 28 46q126 66 232 66q78 0 135.5 -42.5t57.5 -118.5q0 -48 -23.5 -90.5t-60 -72.5t-84.5 -54t-92.5 -37.5t-88.5 -20.5v-123q0 -22 -15 -37t-37 -15t-37 15t-15 37zM141 93q29 7 67 21.5t80 37t70 54.5t28 65q0 30 -28 43.5t-63 13.5q-68 0 -154 -41 v-194z" />
<glyph unicode="q" horiz-adv-x="515" d="M17 148q0 64 41.5 117.5t106.5 86.5t128.5 52.5t123.5 26.5q2 0 4 0.5t3 0.5q23 0 39 -16.5t16 -39.5v-503q0 -21 -15.5 -36.5t-36.5 -15.5q-22 0 -37.5 15.5t-15.5 36.5v164q-94 -48 -171 -48q-79 0 -132.5 42t-53.5 117zM122 147q0 -30 26 -42t60 -12q71 0 166 51v178 q-32 -7 -70.5 -20.5t-81.5 -35t-71.5 -53.5t-28.5 -66z" />
<glyph unicode="r" horiz-adv-x="376" d="M36 45v331q0 22 15.5 37t37.5 15q21 0 36 -15t16 -37q14 23 41 39.5t60 16.5q62 0 109 -52q13 -15 13 -33q0 -22 -15 -37.5t-37 -15.5q-23 0 -40 17q-16 19 -40 19q-28 0 -55.5 -37t-35.5 -91v-157q0 -22 -15.5 -37t-36.5 -15q-22 0 -37.5 15t-15.5 37z" />
<glyph unicode="s" horiz-adv-x="354" d="M13 82q0 21 16 36.5t37 15.5q22 0 37 -16q11 -12 35 -21.5t45 -9.5q20 0 31.5 9t11.5 23q0 34 -79 54q-58 15 -90.5 50t-32.5 84q0 58 40 91t98 33q72 0 127 -31q27 -14 27 -45q0 -22 -16 -37t-37 -15q-13 0 -25 6q-41 23 -68 23q-42 0 -42 -25q0 -20 45 -33 q158 -39 158 -155q0 -56 -42 -93t-106 -37q-44 0 -87 15.5t-68 41.5q-15 15 -15 36z" />
<glyph unicode="t" horiz-adv-x="380" d="M15 369q0 22 15 37t37 15h26v136q0 22 15 37t37 15t37 -15t15 -37v-136h104q22 0 37 -15t15 -37t-15 -37t-37 -15h-104v-128q0 -51 20 -73t64 -22q9 0 23 2q2 0 4 0.5t4 0.5q22 0 37 -15.5t15 -37.5q0 -54 -85 -54q-92 0 -139 53.5t-47 145.5v128h-26q-22 0 -37 15 t-15 37z" />
<glyph unicode="u" horiz-adv-x="478" d="M37 198v178q0 22 15 37t37 15t37 -15t15 -37v-178q0 -36 7.5 -59t22 -31.5t23 -10.5t21.5 -2q31 0 67 24t54 67v190q0 22 15.5 37t36.5 15q22 0 37.5 -15t15.5 -37v-333q0 -22 -15.5 -37t-37.5 -15q-21 0 -36.5 15t-15.5 37v2q-50 -55 -121 -55q-83 0 -130.5 55.5 t-47.5 152.5z" />
<glyph unicode="v" horiz-adv-x="466" d="M17 375q0 21 15.5 36.5t37.5 15.5q34 0 46 -29l117 -248l116 248q14 29 49 29q21 0 36 -15t15 -36q0 -12 -6 -23l-160 -333q-16 -32 -51 -32t-49 32l-160 333q-6 11 -6 22z" />
<glyph unicode="w" horiz-adv-x="710" d="M17 375q0 21 15.5 36.5t37.5 15.5q34 0 46 -29l110 -237l80 233q12 35 49 35t49 -35l80 -233l110 236q14 30 47 30q22 0 37 -15t15 -38q0 -10 -5 -22l-161 -331q-14 -32 -51 -32q-17 0 -31 10.5t-20 26.5l-70 196l-70 -196q-13 -37 -52 -37q-34 0 -50 31l-160 333 q-6 11 -6 22z" />
<glyph unicode="x" horiz-adv-x="402" d="M17 45q0 16 10 31l104 142l-93 127q-10 13 -10 31q0 22 15 37t37 15q26 0 42 -22l79 -111l79 111q16 22 42 22q22 0 37.5 -15t15.5 -38q0 -16 -11 -30l-92 -127l103 -141q10 -14 10 -32q0 -21 -15.5 -36t-36.5 -15q-27 0 -42 21l-90 125l-89 -125q-15 -22 -42 -22 q-22 0 -37.5 15t-15.5 37z" />
<glyph unicode="y" horiz-adv-x="464" d="M-3 -125q0 22 15.5 37.5t36.5 15.5q7 0 19.5 -3t18.5 -3q54 0 92 83l2 6l-159 342q-5 12 -5 22q0 22 15 37t37 15q33 0 47 -30l121 -258l110 253q13 32 47 32q22 0 37.5 -15.5t15.5 -37.5q0 -10 -5 -20l-168 -387q-31 -70 -79 -108t-106 -39q-27 0 -54 9q-17 4 -27.5 18 t-10.5 31z" />
<glyph unicode="z" horiz-adv-x="415" d="M19 52q0 20 12 34l199 231h-152q-21 0 -36.5 15t-15.5 37q0 21 15.5 36.5t36.5 15.5h266q22 0 37 -15.5t15 -36.5t-13 -34l-198 -231h167q22 0 37 -15t15 -37t-15 -37t-37 -15h-281q-22 0 -37 15.5t-15 36.5z" />
<glyph unicode="{" horiz-adv-x="345" d="M-29 289q0 20 15 35.5t36 15.5q44 0 44 31q0 13 -7 38q-21 92 -21 141q0 98 58.5 137.5t189.5 39.5q23 0 39 -15.5t16 -37.5t-16 -38t-39 -16h-26q-55 0 -79 -9q-32 -13 -32 -61q0 -31 13 -89t13 -88q0 -58 -37 -84q37 -24 37 -84q0 -30 -13 -88t-13 -89q0 -39 17 -52.5 t59 -16.5q14 -1 44 -1h17q23 0 39 -16t16 -38t-16 -38t-39 -16q-132 0 -190 40.5t-58 137.5q0 49 21 141q8 30 8 44t-9.5 19.5t-35.5 5.5q-20 0 -35.5 15.5t-15.5 35.5z" />
<glyph unicode="|" horiz-adv-x="178" d="M37 46v550q0 22 15 37.5t37 15.5t37 -15.5t15 -37.5v-550q0 -21 -15 -36.5t-37 -15.5t-37 15.5t-15 36.5z" />
<glyph unicode="}" horiz-adv-x="345" d="M4 -96q0 22 16 38t40 16h16q30 0 44 1q43 3 60 17t17 52q0 31 -13.5 89t-13.5 88q0 59 37 84q-37 26 -37 84q0 30 13.5 88t13.5 89q0 48 -32 61q-25 9 -79 9h-26q-24 0 -40 16t-16 38t16 37.5t40 15.5q130 0 188.5 -39.5t58.5 -137.5q0 -57 -21 -141q-6 -28 -6 -38 q0 -31 43 -31q21 0 36.5 -15.5t15.5 -35.5t-16 -35.5t-36 -15.5q-26 0 -35.5 -5.5t-9.5 -19.5t8 -44q21 -84 21 -141q0 -98 -57.5 -138t-189.5 -40q-24 0 -40 16t-16 38z" />
<glyph unicode="~" horiz-adv-x="587" d="M17 297q0 16 6 28q64 128 168 128q43 0 81.5 -19t67.5 -38t50 -19q8 0 15 1.5t14 6t11.5 7t11.5 10t9.5 10t10 12t8.5 10.5q17 21 44 21q22 0 39.5 -16t17.5 -39q0 -14 -11 -33q-69 -103 -172 -103q-42 0 -80.5 20.5t-68.5 41t-51 20.5q-7 0 -14.5 -4.5t-12.5 -9.5 t-12 -15t-10.5 -16t-9.5 -17t-7 -13q-18 -28 -48 -28q-23 0 -40 15.5t-17 38.5z" />
<glyph unicode="&#xa1;" horiz-adv-x="182" d="M38 590q0 26 18 43.5t43 17.5t43 -18t18 -43t-18 -43t-43 -18t-43 18t-18 43zM43 49v399q0 23 16.5 39.5t39.5 16.5t39.5 -16.5t16.5 -39.5v-399q0 -23 -16.5 -39.5t-39.5 -16.5t-39.5 16.5t-16.5 39.5z" />
<glyph unicode="&#xa2;" horiz-adv-x="503" d="M17 282q0 140 189 222v92q0 22 15 37.5t37 15.5t37 -15.5t15 -37.5v-56q54 15 111 22h7q21 0 36 -14.5t15 -36.5q0 -20 -13 -35t-32 -17q-35 -5 -81.5 -17t-102 -33t-92.5 -54.5t-37 -71.5q0 -31 28.5 -44.5t63.5 -13.5q85 0 191 57q11 7 24 7q21 0 37 -15.5t16 -37.5 q0 -30 -28 -46q-75 -40 -143 -56v-90q0 -21 -15 -36.5t-37 -15.5t-37 15.5t-15 36.5v77q-77 2 -133 44t-56 117z" />
<glyph unicode="&#xa3;" horiz-adv-x="520" d="M12 342q0 23 16.5 39.5t39.5 16.5h35q-9 37 -9 73q0 82 61.5 131.5t146.5 49.5q80 0 160 -43q31 -15 31 -49q0 -23 -16.5 -40t-40.5 -17q-13 0 -26 7q-69 36 -107 36q-41 0 -69 -21.5t-28 -62.5q0 -21 13 -64h127q23 0 39.5 -16.5t16.5 -39.5t-16.5 -39.5t-39.5 -16.5 h-91q5 -30 5 -55q0 -59 -21 -119h202q23 0 39.5 -16.5t16.5 -39.5t-16.5 -39.5t-39.5 -16.5h-296q-24 0 -40.5 16.5t-16.5 39.5q0 20 13 36q21 24 34 62.5t13 76.5q0 29 -9 55h-71q-23 0 -39.5 16.5t-16.5 39.5z" />
<glyph unicode="&#xa5;" horiz-adv-x="542" d="M16 594q0 23 16.5 39.5t39.5 16.5q29 0 45 -22l156 -206l151 205q16 23 46 23q23 0 39 -16.5t16 -40.5q0 -18 -10 -32l-178 -242h34q23 0 40 -16.5t17 -39.5t-17 -39.5t-40 -16.5h-41v-37h41q23 0 40 -16.5t17 -39.5t-17 -39.5t-40 -16.5h-41v-9q0 -23 -16.5 -39.5 t-39.5 -16.5t-39.5 16.5t-16.5 39.5v9h-48q-23 0 -39.5 16.5t-16.5 39.5t16.5 39.5t39.5 16.5h48v37h-48q-23 0 -39.5 16.5t-16.5 39.5t16.5 39.5t39.5 16.5h40l-182 241q-12 15 -12 34z" />
<glyph unicode="&#xa6;" horiz-adv-x="178" d="M37 45v184q0 22 15 37t37 15t37 -15t15 -37v-184q0 -22 -15 -37t-37 -15t-37 15t-15 37zM37 412v184q0 22 15 37t37 15t37 -15t15 -37v-184q0 -22 -15 -37t-37 -15t-37 15t-15 37z" />
<glyph unicode="&#xa7;" horiz-adv-x="373" d="M15 -59q0 20 17.5 35.5t37.5 15.5q22 0 56.5 -34.5t57.5 -34.5q19 0 33 12.5t14 30.5q0 33 -45 62q-79 51 -124.5 118.5t-45.5 137.5v1q0 69 44 121q-38 46 -38 98q0 62 48 105t110 43q64 0 117.5 -41t53.5 -82q0 -21 -17 -36t-38 -15q-22 0 -56.5 34.5t-57.5 34.5 q-19 0 -33 -12.5t-14 -30.5q0 -32 46 -62q78 -51 123.5 -118.5t45.5 -136.5v-3q0 -68 -44 -120q38 -46 38 -97q0 -62 -47.5 -105.5t-110.5 -43.5t-117 41t-54 82zM127 285q0 -40 29 -81t66 -70q17 23 17 51q0 40 -29 81t-66 70q-17 -23 -17 -51z" />
<glyph unicode="&#xa8;" horiz-adv-x="442" d="M87 600q0 22 15 37t37 15t37.5 -15t15.5 -37t-15.5 -37.5t-37.5 -15.5t-37 15.5t-15 37.5zM250 600q0 22 15 37t37 15t37.5 -15t15.5 -37t-15.5 -37.5t-37.5 -15.5t-37 15.5t-15 37.5z" />
<glyph unicode="&#xa9;" horiz-adv-x="843" d="M27 275q0 108 69.5 198t172 138t207.5 48q88 0 164.5 -33.5t126 -101.5t49.5 -157q0 -107 -69.5 -197t-172 -138t-207.5 -48q-88 0 -164.5 33.5t-126 101.5t-49.5 156zM124 275q0 -92 73.5 -143.5t169.5 -51.5q80 0 160 35t136 103t56 150q0 91 -73.5 142.5t-169.5 51.5 q-59 0 -120.5 -21t-113.5 -57t-85 -91.5t-33 -117.5zM208 284q0 52 30 95t78.5 69t98 41.5t98.5 21.5q1 0 3 0.5t3 0.5q22 0 37 -15.5t15 -37.5q0 -20 -13 -34.5t-32 -16.5q-25 -3 -57 -11.5t-69.5 -23t-62.5 -38.5t-25 -52q0 -19 18 -27t39 -8q55 0 126 39q12 6 25 6 q22 0 37 -15.5t15 -36.5q0 -32 -27 -46q-95 -51 -176 -51q-66 0 -113.5 37.5t-47.5 102.5z" />
<glyph unicode="&#xaa;" horiz-adv-x="535" d="M22 454q0 53 47.5 96t117 66.5t134.5 35.5t112 12q22 0 37 -15t15 -37v-223q0 -21 -15 -35.5t-35 -14.5q-34 0 -47 32q-105 -38 -190 -38q-41 0 -79 10.5t-67.5 39t-29.5 71.5zM125 456q0 -23 74 -23q83 0 186 44v82h-2q-52 1 -155 -33.5t-103 -69.5z" />
<glyph unicode="&#xab;" horiz-adv-x="463" d="M9 239q0 19 13 35l125 140q15 17 39 17q22 0 37 -15t15 -37q0 -20 -13 -34l-94 -106l94 -106q13 -14 13 -35q0 -22 -15 -37t-37 -15t-39 17l-125 142q-13 16 -13 34zM217 239q0 21 13 35l125 140q15 17 38 17q22 0 37.5 -15t15.5 -37q0 -18 -14 -34l-93 -106l94 -106 q13 -14 13 -35q0 -22 -15 -37t-37 -15q-24 0 -39 17l-125 142q-13 14 -13 34z" />
<glyph unicode="&#xad;" horiz-adv-x="292" d="M26 249q0 23 16.5 39.5t39.5 16.5h128q23 0 39.5 -16.5t16.5 -39.5t-16.5 -39.5t-39.5 -16.5h-128q-23 0 -39.5 16.5t-16.5 39.5z" />
<glyph unicode="&#xae;" horiz-adv-x="843" d="M27 275q0 108 69.5 198t172 138t207.5 48q88 0 164.5 -33.5t126 -101.5t49.5 -157q0 -107 -69.5 -197t-172 -138t-207.5 -48q-88 0 -164.5 33.5t-126 101.5t-49.5 156zM124 275q0 -92 73.5 -143.5t169.5 -51.5q79 0 159 35t136.5 103t56.5 150q0 91 -73.5 142.5 t-169.5 51.5q-59 0 -120.5 -21t-113.5 -57t-85 -91.5t-33 -117.5zM313 197v245q0 22 15 37t37 15q17 0 32.5 -11t15.5 -29q35 34 83 34q63 0 106 -48q13 -15 13 -34q0 -22 -15.5 -37t-37.5 -15t-39 17q-14 18 -26 18q-32 0 -56 -28t-24 -60v-104q0 -22 -15 -37t-37 -15 t-37 15t-15 37z" />
<glyph unicode="&#xaf;" horiz-adv-x="428" d="M61 597q0 19 13 31.5t31 12.5h218q18 0 31 -12.5t13 -31.5q0 -18 -13 -31t-31 -13h-218q-18 0 -31 13t-13 31z" />
<glyph unicode="&#xb0;" horiz-adv-x="329" d="M29 517q0 57 46 97t104 40q50 0 85.5 -31t35.5 -80q0 -57 -46 -96.5t-104 -39.5q-50 0 -85.5 31t-35.5 79zM117 518q0 -23 33 -23q21 0 41.5 14t20.5 34q0 23 -33 23q-21 0 -41.5 -14t-20.5 -34z" />
<glyph unicode="&#xb2;" horiz-adv-x="410" d="M36 251v1q0 13 6 25q11 22 27.5 43t27 33t41.5 35.5t39 29t50 34.5q43 28 43 58q0 20 -17 30.5t-38 10.5h-1q-33 1 -84 -31q-14 -8 -28 -8q-20 0 -36 15t-16 37q0 28 24 44q70 44 143 44q65 0 111 -39.5t46 -102.5q0 -38 -25 -77t-73 -67q-10 -6 -27.5 -16t-26.5 -15.5 t-21 -14t-21 -17.5h149q21 0 36.5 -15.5t15.5 -36.5q0 -22 -15.5 -37t-36.5 -15h-241q-22 0 -36.5 15t-15.5 37z" />
<glyph unicode="&#xb3;" horiz-adv-x="413" d="M25 572q0 30 28 46q65 35 120 35q58 0 98 -38t40 -92q0 -28 -12 -45q38 -11 62.5 -40t24.5 -68q0 -48 -29.5 -85.5t-77 -59.5t-93 -34.5t-90.5 -17.5q-2 -1 -6 -1q-21 0 -36.5 15t-15.5 37q0 20 13.5 35t32.5 17q73 9 135.5 36t62.5 55q0 12 -11.5 19.5t-31.5 7.5 q-35 0 -64 -8l-77 -20q-5 -2 -13 -2q-21 0 -36 15.5t-15 37.5q0 19 11 32.5t29 17.5l77 18q33 7 44.5 14.5t11.5 20.5q0 28 -34 28h-1q-29 0 -70 -22q-12 -6 -25 -6q-22 0 -37 15t-15 37z" />
<glyph unicode="&#xb4;" horiz-adv-x="442" d="M125 544q0 23 19 36l102 71q13 8 26 8q18 0 30.5 -13.5t12.5 -31.5q0 -23 -19 -36l-102 -70q-11 -8 -25 -8q-18 0 -31 12.5t-13 31.5z" />
<glyph unicode="&#xb6;" horiz-adv-x="524" d="M15 483q0 82 60.5 125t137.5 43q111 0 238 -71q26 -14 26 -45v-490q0 -22 -15 -36.5t-36 -14.5t-36 14.5t-15 36.5v155q-37 6 -71 15v-170q0 -21 -15 -36t-36 -15t-36.5 15t-15.5 36v207q-76 36 -131 95t-55 136zM118 483q0 -59 83 -113v177q-37 -2 -60 -19t-23 -45z M304 322q38 -11 71 -17v199q-39 19 -71 28v-210z" />
<glyph unicode="&#xb7;" horiz-adv-x="162" d="M26 305q0 25 17.5 43t42.5 18t43 -18t18 -43t-17.5 -43t-43.5 -18q-25 0 -42.5 18t-17.5 43z" />
<glyph unicode="&#xb8;" horiz-adv-x="442" d="M124 -151q0 16 10.5 28.5t26.5 14.5q54 10 54 39q0 11 -5.5 19t-12.5 8q-19 0 -31.5 13t-12.5 32q0 18 12.5 31t31.5 13q45 0 74 -35t29 -81q0 -50 -40 -88t-92 -38q-18 0 -31 13t-13 31z" />
<glyph unicode="&#xb9;" horiz-adv-x="287" d="M31 531q0 28 22 43l93 66q13 8 29 10q22 0 37.5 -15.5t15.5 -37.5v-356q0 -22 -15 -37t-37 -15t-37 15t-15 37v256l-11 -8q-14 -9 -29 -9h-1q-21 0 -36.5 15t-15.5 36z" />
<glyph unicode="&#xba;" horiz-adv-x="506" d="M23 458q0 62 49.5 114t115 78t125.5 26q68 0 118 -34.5t50 -98.5q0 -62 -49.5 -114t-115 -78t-124.5 -26q-68 0 -118.5 34.5t-50.5 98.5zM128 458q0 -16 21.5 -22.5t42.5 -6.5q49 0 117 34.5t68 79.5q0 16 -22 22.5t-42 6.5q-49 0 -117 -34.5t-68 -79.5z" />
<glyph unicode="&#xbb;" horiz-adv-x="463" d="M17 98q0 19 14 35l94 106l-94 106q-13 14 -13 34q0 22 15 37t37 15t39 -17l124 -140q13 -14 13 -35q0 -20 -13 -34l-125 -142q-15 -17 -39 -17q-21 0 -36.5 15t-15.5 37zM225 98q0 21 13 35l94 106l-94 106q-13 16 -13 34q0 22 15.5 37t36.5 15q24 0 39 -17l125 -140 q13 -14 13 -35q0 -20 -13 -34l-125 -142q-15 -17 -39 -17q-22 0 -37 15t-15 37z" />
<glyph unicode="&#xbc;" horiz-adv-x="882" d="M31 531q0 28 22 43l93 66q13 8 29 10q22 0 37.5 -15.5t15.5 -37.5v-356q0 -22 -15 -37t-37 -15t-37 15t-15 37v256l-11 -8q-14 -9 -29 -9h-1q-21 0 -36.5 15t-15.5 36zM140 49q0 21 13 37l448 543q17 20 42 20q24 0 40.5 -16t16.5 -40q0 -20 -13 -36l-447 -543 q-17 -20 -43 -20q-24 0 -40.5 16t-16.5 39zM415 131q0 19 12 33l225 272q15 19 41 19q21 0 36 -15t15 -37q0 -21 -12 -33l-154 -187h83v45q0 22 15 37t37 15t37 -15t15 -37v-45h33q22 0 37 -15t15 -37t-15 -37t-37 -15h-33v-33q0 -22 -15 -37t-37 -15t-37 15t-15 37v33h-193 q-21 0 -37 14.5t-16 37.5z" />
<glyph unicode="&#xbd;" horiz-adv-x="946" d="M31 531q0 28 22 43l93 66q13 8 29 10q22 0 37.5 -15.5t15.5 -37.5v-356q0 -22 -15 -37t-37 -15t-37 15t-15 37v256l-11 -8q-14 -9 -29 -9h-1q-21 0 -36.5 15t-15.5 36zM140 49q0 21 13 37l448 543q17 20 42 20q24 0 40.5 -16t16.5 -40q0 -20 -13 -36l-447 -543 q-17 -20 -43 -20q-24 0 -40.5 16t-16.5 39zM569 52v1q0 13 6 26q16 33 45 63.5t52 48t74 52.5q9 7 14 10q43 29 43 58q0 21 -17.5 31.5t-37.5 10.5h-1q-33 0 -84 -31q-12 -8 -28 -8q-21 0 -36.5 15t-15.5 37q0 28 24 44q70 44 143 44q64 0 110.5 -39.5t46.5 -102.5 q0 -38 -25 -77.5t-73 -67.5q-10 -6 -27.5 -16t-26.5 -15.5t-21 -14t-21 -17.5h149q21 0 36.5 -15t15.5 -37t-15.5 -37t-36.5 -15h-241q-22 0 -36.5 15.5t-15.5 36.5z" />
<glyph unicode="&#xbe;" horiz-adv-x="958" d="M25 572q0 30 28 46q65 35 120 35q58 0 98 -38t40 -92q0 -28 -12 -45q38 -11 62.5 -40t24.5 -68q0 -48 -29.5 -85.5t-77 -59.5t-93 -34.5t-90.5 -17.5q-2 -1 -6 -1q-21 0 -36.5 15t-15.5 37q0 20 13.5 35t32.5 17q73 9 135.5 36t62.5 55q0 12 -11.5 19.5t-31.5 7.5 q-35 0 -64 -8l-77 -20q-5 -2 -13 -2q-21 0 -36 15.5t-15 37.5q0 18 11 32t29 18l77 18q33 7 44.5 14.5t11.5 20.5q0 28 -34 28h-1q-29 0 -70 -22q-12 -6 -25 -6q-22 0 -37 15t-15 37zM226 49q0 21 13 37l447 543q17 20 43 20q24 0 40.5 -16t16.5 -40q0 -20 -13 -36 l-447 -543q-17 -20 -43 -20q-24 0 -40.5 16t-16.5 39zM501 131q0 19 12 33l225 272q15 19 40 19q22 0 37 -15t15 -37q0 -19 -12 -33l-154 -187h83v45q0 22 15 37t37 15q21 0 36.5 -15t15.5 -37v-45h33q22 0 37 -15t15 -37t-15 -37t-37 -15h-33v-33q0 -22 -15.5 -37 t-36.5 -15q-22 0 -37 15t-15 37v33h-194q-20 0 -36 14.5t-16 37.5z" />
<glyph unicode="&#xbf;" horiz-adv-x="453" d="M12 176q0 66 48 116.5t115 73.5q31 11 42 26t11 55v2q0 23 16.5 40t39.5 17t39.5 -17t16.5 -40v-2q0 -145 -128 -187q-42 -13 -65 -39.5t-23 -51.5q0 -33 25.5 -51.5t68.5 -18.5q25 0 66 14.5t68 29.5q12 8 29 8q22 0 39 -16.5t17 -40.5q0 -31 -28 -47q-36 -22 -93 -39.5 t-99 -17.5q-83 0 -144 53t-61 133zM222 590q0 25 18 43t43 18t43 -17.5t18 -43.5q0 -25 -18 -43t-43 -18t-43 18t-18 43z" />
<glyph unicode="&#xc0;" horiz-adv-x="631" d="M22 49q0 10 5 22l234 543q17 37 56 37q38 0 53 -34l236 -546q4 -9 4 -22q0 -24 -16.5 -40.5t-39.5 -16.5q-36 0 -51 34l-54 124h-265l-54 -124q-15 -34 -52 -34q-23 0 -39.5 16.5t-16.5 40.5zM200 803q0 18 12.5 31t30.5 13q17 0 26 -8l103 -70q19 -14 19 -37 q0 -18 -13 -31t-32 -13q-12 0 -25 8l-102 71q-19 13 -19 36zM229 255h175l-88 203z" />
<glyph unicode="&#xc1;" horiz-adv-x="631" d="M22 49q0 10 5 22l234 543q17 37 56 37q38 0 53 -34l236 -546q4 -9 4 -22q0 -24 -16.5 -40.5t-39.5 -16.5q-36 0 -51 34l-54 124h-265l-54 -124q-15 -34 -52 -34q-23 0 -39.5 16.5t-16.5 40.5zM229 255h175l-88 203zM244 732q0 23 19 37l102 70q11 8 26 8q18 0 31 -13 t13 -31q0 -23 -19 -36l-103 -71q-11 -8 -25 -8q-18 0 -31 13t-13 31z" />
<glyph unicode="&#xc2;" horiz-adv-x="631" d="M22 49q0 10 5 22l234 543q17 37 56 37q38 0 53 -34l236 -546q4 -9 4 -22q0 -24 -16.5 -40.5t-39.5 -16.5q-36 0 -51 34l-54 124h-265l-54 -124q-15 -34 -52 -34q-23 0 -39.5 16.5t-16.5 40.5zM155 723q0 25 21 37l115 74q10 7 24 7q13 0 24 -7l116 -74q21 -12 21 -37 q0 -19 -13 -31.5t-32 -12.5q-13 0 -23 7l-93 59l-92 -59q-10 -7 -24 -7q-18 0 -31 12.5t-13 31.5zM229 255h175l-88 203z" />
<glyph unicode="&#xc3;" horiz-adv-x="631" d="M22 49q0 10 5 22l234 543q17 37 56 37q38 0 53 -34l236 -546q4 -9 4 -22q0 -24 -16.5 -40.5t-39.5 -16.5q-36 0 -51 34l-54 124h-265l-54 -124q-15 -34 -52 -34q-23 0 -39.5 16.5t-16.5 40.5zM132 739q0 12 5 21q42 76 104 76q33 0 91 -30q40 -22 56 -22q13 0 32 24 q12 18 34 18q19 0 32 -13t13 -32q0 -14 -8 -25q-44 -60 -104 -60q-38 0 -97 32q-34 19 -47 19q-8 0 -14 -6.5t-14 -22.5q-13 -23 -38 -23q-18 0 -31.5 13t-13.5 31zM229 255h175l-88 203z" />
<glyph unicode="&#xc4;" horiz-adv-x="631" d="M22 49q0 10 5 22l234 543q17 37 56 37q38 0 53 -34l236 -546q4 -9 4 -22q0 -24 -16.5 -40.5t-39.5 -16.5q-36 0 -51 34l-54 124h-265l-54 -124q-15 -34 -52 -34q-23 0 -39.5 16.5t-16.5 40.5zM181 743q0 22 15.5 37t37.5 15t37.5 -15t15.5 -37t-15.5 -37.5t-37.5 -15.5 t-37.5 15.5t-15.5 37.5zM229 255h175l-88 203zM344 743q0 22 15.5 37t37.5 15t37.5 -15t15.5 -37t-15.5 -37.5t-37.5 -15.5t-37.5 15.5t-15.5 37.5z" />
<glyph unicode="&#xc5;" horiz-adv-x="631" d="M22 49q0 10 5 22l219 506q-66 29 -66 99q0 57 46 97t104 40q50 0 85.5 -31t35.5 -80q0 -73 -69 -114l224 -517q4 -9 4 -22q0 -24 -16.5 -40.5t-39.5 -16.5q-36 0 -51 34l-54 124h-265l-54 -124q-15 -34 -52 -34q-23 0 -39.5 16.5t-16.5 40.5zM229 255h175l-88 203z M268 676q0 -23 33 -23q21 0 41.5 14.5t20.5 34.5q0 23 -33 23q-21 0 -41.5 -14.5t-20.5 -34.5z" />
<glyph unicode="&#xc6;" horiz-adv-x="789" d="M23 50q0 13 6 25l215 419q75 148 210 148h252q23 0 39.5 -16.5t16.5 -39.5t-16.5 -39.5t-39.5 -16.5h-196v-198h179q23 0 39.5 -16.5t16.5 -39.5t-16.5 -39.5t-39.5 -16.5h-179v-108h200q23 0 39.5 -16.5t16.5 -39.5t-16.5 -39.5t-39.5 -16.5h-256q-23 0 -39.5 16.5 t-16.5 39.5v164h-169l-100 -196q-16 -31 -50 -31q-23 0 -39.5 16.5t-16.5 40.5zM287 331h111v181q-9 -6 -22 -23t-22 -31l-9 -13z" />
<glyph unicode="&#xc7;" horiz-adv-x="562" d="M24 252q0 85 40.5 157t107.5 119.5t142.5 78t156.5 44.5q3 1 10 1q23 0 39.5 -16.5t16.5 -39.5q0 -21 -13 -36.5t-34 -18.5q-46 -8 -92 -22.5t-94.5 -39t-84.5 -56t-59.5 -76t-23.5 -95.5q0 -65 40 -107.5t104 -42.5q79 0 173 68q16 11 32 11q24 0 40.5 -16.5t16.5 -40.5 q0 -28 -23 -45q-73 -54 -145 -75q23 -31 23 -73q0 -50 -40 -88t-92 -38q-18 0 -31 13t-13 31q0 16 10.5 28.5t26.5 14.5q54 10 54 39q0 11 -5 19t-13 8q-34 0 -43 33q-99 10 -163 83.5t-64 177.5z" />
<glyph unicode="&#xc8;" horiz-adv-x="437" d="M46 56v531q0 23 16.5 39.5t39.5 16.5h252q23 0 39.5 -16.5t16.5 -39.5t-16.5 -40t-39.5 -17h-196v-109h179q23 0 40 -16.5t17 -39.5t-17 -39.5t-40 -16.5h-179v-197h200q23 0 39.5 -16.5t16.5 -39.5t-16.5 -39.5t-39.5 -16.5h-256q-23 0 -39.5 16.5t-16.5 39.5zM113 803 q0 18 12.5 31t30.5 13q15 0 26 -8l102 -70q19 -13 19 -37q0 -18 -13 -31t-31 -13q-12 0 -25 8l-102 71q-19 13 -19 36z" />
<glyph unicode="&#xc9;" horiz-adv-x="437" d="M46 56v531q0 23 16.5 39.5t39.5 16.5h252q23 0 39.5 -16.5t16.5 -39.5t-16.5 -40t-39.5 -17h-196v-109h179q23 0 40 -16.5t17 -39.5t-17 -39.5t-40 -16.5h-179v-197h200q23 0 39.5 -16.5t16.5 -39.5t-16.5 -39.5t-39.5 -16.5h-256q-23 0 -39.5 16.5t-16.5 39.5zM176 732 q0 23 19 37l102 70q11 8 26 8q18 0 31 -13t13 -31q0 -23 -19 -36l-103 -71q-11 -8 -25 -8q-18 0 -31 13t-13 31z" />
<glyph unicode="&#xca;" horiz-adv-x="437" d="M46 56v531q0 23 16.5 39.5t39.5 16.5h252q23 0 39.5 -16.5t16.5 -39.5t-16.5 -40t-39.5 -17h-196v-109h179q23 0 40 -16.5t17 -39.5t-17 -39.5t-40 -16.5h-179v-197h200q23 0 39.5 -16.5t16.5 -39.5t-16.5 -39.5t-39.5 -16.5h-256q-23 0 -39.5 16.5t-16.5 39.5zM68 733 q0 23 20 37l116 74q10 7 24 7q13 0 23 -7l117 -74q20 -12 20 -37q0 -19 -12.5 -31.5t-31.5 -12.5q-13 0 -24 7l-92 58l-92 -58q-10 -7 -24 -7q-18 0 -31 12.5t-13 31.5z" />
<glyph unicode="&#xcb;" horiz-adv-x="437" d="M46 56v531q0 23 16.5 39.5t39.5 16.5h252q23 0 39.5 -16.5t16.5 -39.5t-16.5 -40t-39.5 -17h-196v-109h179q23 0 40 -16.5t17 -39.5t-17 -39.5t-40 -16.5h-179v-197h200q23 0 39.5 -16.5t16.5 -39.5t-16.5 -39.5t-39.5 -16.5h-256q-23 0 -39.5 16.5t-16.5 39.5zM104 743 q0 22 15 37t37 15t37.5 -15t15.5 -37t-15.5 -37.5t-37.5 -15.5t-37 15.5t-15 37.5zM267 743q0 22 15 37t37 15t37.5 -15t15.5 -37t-15.5 -37.5t-37.5 -15.5t-37 15.5t-15 37.5z" />
<glyph unicode="&#xcc;" horiz-adv-x="204" d="M-22 803q0 18 12.5 31t30.5 13q15 0 26 -8l102 -70q19 -13 19 -37q0 -18 -13 -31t-31 -13q-12 0 -25 8l-102 71q-19 12 -19 36zM46 50v542q0 23 16.5 39.5t39.5 16.5t39.5 -16.5t16.5 -39.5v-542q0 -23 -16.5 -39.5t-39.5 -16.5t-39.5 16.5t-16.5 39.5z" />
<glyph unicode="&#xcd;" horiz-adv-x="204" d="M36 732q0 23 19 37l102 70q11 8 26 8q18 0 30.5 -13t12.5 -31q0 -24 -19 -36l-102 -71q-11 -8 -25 -8q-18 0 -31 13t-13 31zM46 50v542q0 23 16.5 39.5t39.5 16.5t39.5 -16.5t16.5 -39.5v-542q0 -23 -16.5 -39.5t-39.5 -16.5t-39.5 16.5t-16.5 39.5z" />
<glyph unicode="&#xce;" horiz-adv-x="204" d="M-58 733q0 23 20 37l116 74q10 7 23 7q14 0 24 -7l117 -74q20 -12 20 -37q0 -19 -12.5 -31.5t-31.5 -12.5q-13 0 -24 7l-92 58l-92 -58q-10 -7 -24 -7q-18 0 -31 12.5t-13 31.5zM46 50v542q0 23 16.5 39.5t39.5 16.5t39.5 -16.5t16.5 -39.5v-542q0 -23 -16.5 -39.5 t-39.5 -16.5t-39.5 16.5t-16.5 39.5z" />
<glyph unicode="&#xcf;" horiz-adv-x="204" d="M-32 743q0 22 15.5 37t37.5 15t37 -15t15 -37t-15 -37.5t-37 -15.5t-37.5 15.5t-15.5 37.5zM46 50v542q0 23 16.5 39.5t39.5 16.5t39.5 -16.5t16.5 -39.5v-542q0 -23 -16.5 -39.5t-39.5 -16.5t-39.5 16.5t-16.5 39.5zM131 743q0 22 15.5 37t37.5 15t37 -15t15 -37 t-15 -37.5t-37 -15.5t-37.5 15.5t-15.5 37.5z" />
<glyph unicode="&#xd0;" horiz-adv-x="665" d="M13 289q0 37 35 52l53 21v186q0 36 33 51q119 53 227 53q118 0 199 -70t81 -187q0 -70 -30 -131.5t-78 -106t-111.5 -79.5t-127 -56t-128.5 -32q-2 0 -5 -0.5t-4 -0.5q-23 0 -39.5 16.5t-16.5 40.5v195l-11 -4q-8 -4 -21 -4q-22 0 -39 15.5t-17 40.5zM213 103 q150 39 232.5 126.5t82.5 167.5q0 69 -48 106t-119 37q-69 0 -148 -30v-102l20 8q14 4 21 4q22 0 39 -15.5t17 -40.5q0 -39 -35 -52l-62 -25v-184z" />
<glyph unicode="&#xd1;" horiz-adv-x="570" d="M46 49v548q0 24 16.5 40t40.5 16q29 0 46 -25l263 -397v362q0 23 16.5 39.5t39.5 16.5t39.5 -16.5t16.5 -39.5v-547q0 -23 -16.5 -39.5t-39.5 -16.5q-30 0 -46 25l-264 397v-363q0 -23 -16.5 -40t-39.5 -17t-39.5 17t-16.5 40zM101 739q0 11 6 21q41 76 104 76 q33 0 91 -30q40 -22 55 -22q14 0 32 24q13 18 34 18q19 0 32.5 -13t13.5 -32q0 -15 -9 -25q-44 -60 -103 -60q-38 0 -97 32q-35 19 -48 19q-12 0 -28 -29q-13 -23 -38 -23q-18 0 -31.5 13t-13.5 31z" />
<glyph unicode="&#xd2;" d="M23 255q0 94 44.5 185t126.5 151.5t177 60.5q108 0 171 -78.5t62 -188.5q-1 -93 -45 -184t-126 -151.5t-177 -60.5q-107 0 -170 78.5t-63 187.5zM136 254q0 -62 30.5 -107t89.5 -45q95 0 165.5 92.5t70.5 191.5q0 63 -31 108.5t-90 45.5q-64 0 -119.5 -45t-85.5 -110.5 t-30 -130.5zM259 803q-1 18 12 31t31 13q15 0 26 -8l102 -70q19 -14 19 -37q0 -18 -13 -31t-31 -13q-14 0 -25 8l-102 71q-19 12 -19 36z" />
<glyph unicode="&#xd3;" d="M23 255q0 94 44.5 185t126.5 151.5t177 60.5q108 0 171 -78.5t62 -188.5q-1 -93 -45 -184t-126 -151.5t-177 -60.5q-107 0 -170 78.5t-63 187.5zM136 254q0 -62 30.5 -107t89.5 -45q95 0 165.5 92.5t70.5 191.5q0 63 -31 108.5t-90 45.5q-64 0 -119.5 -45t-85.5 -110.5 t-30 -130.5zM298 732q0 23 19 37l102 70q11 8 26 8q18 0 31 -13t13 -31q0 -23 -19 -36l-103 -71q-11 -8 -25 -8q-18 0 -31 13t-13 31z" />
<glyph unicode="&#xd4;" d="M23 255q0 94 44.5 185t126.5 151.5t177 60.5q108 0 171 -78.5t62 -188.5q-1 -93 -45 -184t-126 -151.5t-177 -60.5q-107 0 -170 78.5t-63 187.5zM136 254q0 -62 30.5 -107t89.5 -45q95 0 165.5 92.5t70.5 191.5q0 63 -31 108.5t-90 45.5q-64 0 -119.5 -45t-85.5 -110.5 t-30 -130.5zM204 733q0 23 20 37l116 74q10 7 23 7q14 0 24 -7l117 -74q20 -12 20 -37q0 -19 -13 -31.5t-31 -12.5q-13 0 -24 7l-93 58l-91 -58q-11 -7 -24 -7q-18 0 -31 12.5t-13 31.5z" />
<glyph unicode="&#xd5;" d="M23 255q0 94 44.5 185t126.5 151.5t177 60.5q108 0 171 -78.5t62 -188.5q-1 -93 -45 -184t-126 -151.5t-177 -60.5q-107 0 -170 78.5t-63 187.5zM136 254q0 -62 30.5 -107t89.5 -45q95 0 165.5 92.5t70.5 191.5q0 63 -31 108.5t-90 45.5q-64 0 -119.5 -45t-85.5 -110.5 t-30 -130.5zM190 739q0 9 5 21q42 76 104 76q33 0 91 -30q40 -22 56 -22q13 0 32 24q12 18 34 18q19 0 32.5 -13t13.5 -32q0 -12 -9 -25q-44 -60 -103 -60q-38 0 -97 32q-35 19 -48 19q-8 0 -13.5 -6t-14.5 -23q-13 -23 -38 -23q-18 0 -31.5 13t-13.5 31z" />
<glyph unicode="&#xd6;" d="M23 255q0 94 44.5 185t126.5 151.5t177 60.5q108 0 171 -78.5t62 -188.5q-1 -93 -45 -184t-126 -151.5t-177 -60.5q-107 0 -170 78.5t-63 187.5zM136 254q0 -62 30.5 -107t89.5 -45q95 0 165.5 92.5t70.5 191.5q0 63 -31 108.5t-90 45.5q-64 0 -119.5 -45t-85.5 -110.5 t-30 -130.5zM240 743q0 22 15 37t37 15t37.5 -15t15.5 -37t-15.5 -37.5t-37.5 -15.5t-37 15.5t-15 37.5zM403 743q0 22 15 37t37 15t37.5 -15t15.5 -37t-15.5 -37.5t-37.5 -15.5t-37 15.5t-15 37.5z" />
<glyph unicode="&#xd7;" horiz-adv-x="445" d="M19 114q0 22 15 37l115 115l-97 97q-16 15 -16 37q0 21 15.5 36.5t36.5 15.5q22 0 37 -15l98 -97l97 97q15 15 37 15q21 0 36.5 -15.5t15.5 -36.5q0 -22 -16 -37l-97 -97l115 -115q14 -14 16 -37q0 -21 -15 -36.5t-36 -15.5h-1q-22 0 -37 15l-115 115l-116 -115 q-15 -15 -36 -15q-22 0 -37 15.5t-15 36.5z" />
<glyph unicode="&#xd8;" d="M-13 -13q2 19 12 32l65 80q-41 71 -41 156q0 94 44.5 185t126.5 151.5t177 60.5q67 0 119 -33l62 76q16 18 37 18h1q21 0 36 -14.5t15 -35.5q0 -17 -12 -32l-69 -84q44 -68 44 -160v-2q0 -93 -44.5 -184t-126.5 -151.5t-177 -60.5q-67 0 -123 36l-57 -69q-14 -19 -36 -19 h-1q-21 0 -36.5 14t-15.5 35v1zM136 254q0 -34 8 -58l274 335q-21 9 -47 9q-64 0 -119.5 -45t-85.5 -110.5t-30 -130.5zM205 113q24 -11 51 -11q95 0 165.5 92.5t70.5 191.5q0 36 -10 66z" />
<glyph unicode="&#xd9;" horiz-adv-x="573" d="M46 264v328q0 23 16.5 40t39.5 17t39.5 -17t16.5 -40v-328q0 -162 128 -162q129 0 129 162v328q0 23 16.5 40t39.5 17t39.5 -17t16.5 -40v-328q0 -126 -64 -200.5t-177 -74.5q-112 0 -176 74.5t-64 200.5zM152 803q0 18 12.5 31t30.5 13q15 0 26 -8l102 -70 q19 -14 19 -37q0 -18 -13 -31t-31 -13q-14 0 -25 8l-102 71q-19 12 -19 36z" />
<glyph unicode="&#xda;" horiz-adv-x="573" d="M46 264v328q0 23 16.5 40t39.5 17t39.5 -17t16.5 -40v-328q0 -162 128 -162q129 0 129 162v328q0 23 16.5 40t39.5 17t39.5 -17t16.5 -40v-328q0 -126 -64 -200.5t-177 -74.5q-112 0 -176 74.5t-64 200.5zM240 732q0 23 19 37l102 70q11 8 26 8q18 0 30.5 -13t12.5 -31 q0 -24 -19 -36l-102 -71q-11 -8 -25 -8q-18 0 -31 13t-13 31z" />
<glyph unicode="&#xdb;" horiz-adv-x="573" d="M46 264v328q0 23 16.5 40t39.5 17t39.5 -17t16.5 -40v-328q0 -162 128 -162q129 0 129 162v328q0 23 16.5 40t39.5 17t39.5 -17t16.5 -40v-328q0 -126 -64 -200.5t-177 -74.5q-112 0 -176 74.5t-64 200.5zM126 733q0 23 21 37l115 74q10 7 24 7q13 0 24 -7l116 -74 q21 -12 21 -37q0 -19 -13 -31.5t-32 -12.5q-13 0 -23 7l-93 58l-92 -58q-10 -7 -24 -7q-18 0 -31 12.5t-13 31.5z" />
<glyph unicode="&#xdc;" horiz-adv-x="573" d="M46 264v328q0 23 16.5 40t39.5 17t39.5 -17t16.5 -40v-328q0 -162 128 -162q129 0 129 162v328q0 23 16.5 40t39.5 17t39.5 -17t16.5 -40v-328q0 -126 -64 -200.5t-177 -74.5q-112 0 -176 74.5t-64 200.5zM152 743q0 22 15.5 37t37.5 15t37 -15t15 -37t-15 -37.5 t-37 -15.5t-37.5 15.5t-15.5 37.5zM315 743q0 22 15.5 37t37.5 15t37 -15t15 -37t-15 -37.5t-37 -15.5t-37.5 15.5t-15.5 37.5z" />
<glyph unicode="&#xdd;" horiz-adv-x="542" d="M16 594q0 23 16 39.5t39 16.5q28 0 46 -22l156 -206l150 205q16 23 46 23q23 0 39.5 -16.5t16.5 -40.5q0 -16 -11 -32l-184 -251v-261q0 -23 -16.5 -39.5t-39.5 -16.5t-40 16.5t-17 39.5v259l-190 252q-11 14 -11 34z" />
<glyph unicode="&#xde;" horiz-adv-x="507" d="M46 45v552q0 22 16 38t38 16t38 -16t16 -38v-49q69 23 128 23q80 0 139.5 -43t59.5 -121q0 -57 -32 -104.5t-83.5 -77.5t-104.5 -49t-107 -28v-103q0 -23 -16 -38.5t-38 -15.5t-38 15.5t-16 38.5zM154 246q28 7 62 20t71 33t61.5 48.5t24.5 59.5q0 30 -27.5 43.5 t-60.5 13.5q-60 0 -131 -31v-187z" />
<glyph unicode="&#xdf;" horiz-adv-x="700" d="M7 367q0 21 15 36.5t37 15.5h36q12 99 77.5 166.5t164.5 67.5q66 0 114.5 -42t48.5 -108q0 -42 -22 -77q85 -8 141.5 -62.5t56.5 -137.5q0 -105 -88.5 -170.5t-196.5 -65.5q-67 0 -116 36.5t-49 99.5q0 60 44.5 96.5t105.5 36.5q43 0 91 -18q34 -13 34 -49 q0 -21 -15 -36.5t-37 -15.5q-11 0 -19 4q-29 11 -54 11q-16 0 -30.5 -7t-14.5 -22q0 -17 19.5 -24.5t39.5 -7.5q65 0 123.5 35.5t58.5 96.5q0 48 -34.5 75.5t-84.5 27.5q-14 0 -39 -5.5t-37 -5.5q-31 0 -49.5 17.5t-18.5 41.5q0 39 41 65q46 30 46 61q0 21 -18.5 33 t-40.5 12q-64 0 -102 -50t-38 -115v-338q0 -22 -15 -37t-37 -15t-37 15t-15 37v270h-34q-22 0 -37 15t-15 37z" />
<glyph unicode="&#xe0;" horiz-adv-x="504" d="M17 106q-1 73 83.5 126t249.5 62q-24 38 -100 38q-72 0 -123 -38q-14 -11 -31 -11q-21 0 -36.5 15.5t-15.5 37.5q0 26 20 41q72 55 186 55q102 0 159.5 -51t57.5 -142v-194q0 -21 -15 -36.5t-37 -15.5t-37 15.5t-15 36.5v8q-95 -64 -200 -64q-74 0 -110 34t-36 83z M128 113q0 -22 41 -22q85 0 194 74v34q-52 0 -143.5 -24t-91.5 -62zM133 614q0 18 12.5 31.5t30.5 13.5q13 0 26 -8l102 -71q19 -13 19 -36q0 -19 -13 -31.5t-31 -12.5q-14 0 -25 8l-102 70q-19 14 -19 36z" />
<glyph unicode="&#xe1;" horiz-adv-x="504" d="M17 106q-1 73 83.5 126t249.5 62q-24 38 -100 38q-72 0 -123 -38q-14 -11 -31 -11q-21 0 -36.5 15.5t-15.5 37.5q0 26 20 41q72 55 186 55q102 0 159.5 -51t57.5 -142v-194q0 -21 -15 -36.5t-37 -15.5t-37 15.5t-15 36.5v8q-95 -64 -200 -64q-74 0 -110 34t-36 83z M128 113q0 -22 41 -22q85 0 194 74v34q-52 0 -143.5 -24t-91.5 -62zM183 544q0 22 19 36l102 71q13 8 26 8q18 0 31 -13.5t12 -31.5q0 -23 -19 -36l-102 -70q-9 -8 -25 -8q-18 0 -31 12.5t-13 31.5z" />
<glyph unicode="&#xe2;" horiz-adv-x="504" d="M17 106q-1 73 83.5 126t249.5 62q-24 38 -100 38q-72 0 -123 -38q-14 -11 -31 -11q-21 0 -36.5 15.5t-15.5 37.5q0 26 20 41q72 55 186 55q102 0 159.5 -51t57.5 -142v-194q0 -21 -15 -36.5t-37 -15.5t-37 15.5t-15 36.5v8q-95 -64 -200 -64q-74 0 -110 34t-36 83z M80 547q0 23 21 37l115 74q12 7 24 7q10 0 24 -7l116 -74q21 -14 21 -37q0 -19 -13 -31.5t-32 -12.5q-13 0 -23 7l-93 58l-92 -58q-10 -7 -24 -7q-18 0 -31 12.5t-13 31.5zM128 113q0 -22 41 -22q85 0 194 74v34q-52 0 -143.5 -24t-91.5 -62z" />
<glyph unicode="&#xe3;" horiz-adv-x="504" d="M17 106q-1 73 83.5 126t249.5 62q-24 38 -100 38q-72 0 -123 -38q-14 -11 -31 -11q-21 0 -36.5 15.5t-15.5 37.5q0 26 20 41q72 55 186 55q102 0 159.5 -51t57.5 -142v-194q0 -21 -15 -36.5t-37 -15.5t-37 15.5t-15 36.5v8q-95 -64 -200 -64q-74 0 -110 34t-36 83z M68 557q0 11 6 21q41 76 104 76q34 0 91 -30q40 -22 55 -22q14 0 32 24q14 18 34 18q19 0 32.5 -13t13.5 -32q0 -15 -9 -25q-45 -60 -103 -60q-38 0 -97 32q-37 20 -48 20q-8 0 -13.5 -6.5t-14.5 -23.5q-13 -23 -38 -23q-18 0 -31.5 13t-13.5 31zM128 113q0 -22 41 -22 q85 0 194 74v34q-52 0 -143.5 -24t-91.5 -62z" />
<glyph unicode="&#xe4;" horiz-adv-x="504" d="M17 106q-1 73 83.5 126t249.5 62q-24 38 -100 38q-72 0 -123 -38q-14 -11 -31 -11q-21 0 -36.5 15.5t-15.5 37.5q0 26 20 41q72 55 186 55q102 0 159.5 -51t57.5 -142v-194q0 -21 -15 -36.5t-37 -15.5t-37 15.5t-15 36.5v8q-95 -64 -200 -64q-74 0 -110 34t-36 83z M106 600q0 22 15.5 37t37.5 15t37 -15t15 -37t-15 -37.5t-37 -15.5t-37.5 15.5t-15.5 37.5zM128 113q0 -22 41 -22q85 0 194 74v34q-52 0 -143.5 -24t-91.5 -62zM269 600q0 22 15.5 37t37.5 15t37 -15t15 -37t-15 -37.5t-37 -15.5t-37.5 15.5t-15.5 37.5z" />
<glyph unicode="&#xe5;" horiz-adv-x="504" d="M17 106q-1 73 83.5 126t249.5 62q-24 38 -100 38q-72 0 -123 -38q-14 -11 -31 -11q-21 0 -36.5 15.5t-15.5 37.5q0 26 20 41q72 55 186 55q102 0 159.5 -51t57.5 -142v-194q0 -21 -15 -36.5t-37 -15.5t-37 15.5t-15 36.5v8q-95 -64 -200 -64q-74 0 -110 34t-36 83z M115 589q0 57 46 96.5t104 39.5q50 0 85.5 -31t35.5 -80q0 -57 -46 -96.5t-104 -39.5q-50 0 -85.5 31t-35.5 80zM128 113q0 -22 41 -22q85 0 194 74v34q-52 0 -143.5 -24t-91.5 -62zM203 589q0 -23 33 -23q21 0 41.5 14t20.5 34q0 23 -33 23q-21 0 -41.5 -14t-20.5 -34z" />
<glyph unicode="&#xe6;" horiz-adv-x="887" d="M17 106q-1 62 77 114t199 52q50 0 94 -8q-49 68 -137 68q-72 0 -123 -38q-14 -11 -31 -11q-21 0 -36.5 15.5t-15.5 37.5q0 26 20 41q72 55 186 55q135 0 208 -87q52 41 119.5 63.5t130.5 22.5q55 0 96.5 -27.5t41.5 -79.5q0 -45 -29 -79.5t-71 -54t-96.5 -32t-97 -16.5 t-81.5 -5q18 -50 92 -50q67 0 182 60q12 6 24 6q21 0 36.5 -15t15.5 -37q0 -32 -28 -46q-123 -66 -234 -66q-113 0 -167 77q-49 -36 -113.5 -56.5t-115.5 -20.5q-74 0 -110 34t-36 83zM132 113q0 -22 37 -22q89 0 194 72v15q-16 4 -47 4q-66 0 -125 -18.5t-59 -50.5z M489 226q82 4 163.5 33t81.5 59q0 13 -27 13h-2q-59 0 -123 -29t-93 -76z" />
<glyph unicode="&#xe7;" horiz-adv-x="503" d="M17 150q0 65 42 118.5t108 85.5t129.5 50.5t124.5 26.5h7q21 0 36 -14.5t15 -36.5q0 -21 -12.5 -36t-32.5 -17q-35 -4 -82 -16t-101.5 -33t-92 -54.5t-37.5 -72.5q0 -31 28.5 -44t63.5 -13q85 0 191 57q12 6 24 6q21 0 37 -15t16 -37q0 -32 -28 -46q-62 -33 -121 -50 q26 -34 26 -78q0 -50 -40 -88t-91 -38q-19 0 -32 13t-13 31q0 16 10.5 28.5t26.5 14.5q54 10 54 39q0 11 -5.5 19t-12.5 8q-15 0 -26.5 9t-15.5 23h-1q-79 0 -137 42t-58 118z" />
<glyph unicode="&#xe8;" horiz-adv-x="518" d="M16 164q0 79 56.5 142.5t134 94t154.5 30.5q55 0 96.5 -27.5t41.5 -79.5q0 -45 -29 -79.5t-71 -54t-96.5 -32t-97 -16.5t-81.5 -5q18 -50 93 -50q65 0 181 60q12 6 24 6q21 0 36.5 -15t15.5 -37q0 -32 -27 -46q-125 -66 -235 -66q-84 0 -140 46.5t-56 128.5zM142 226 q82 4 163.5 33t81.5 59q0 13 -27 13h-2q-59 0 -123 -29t-93 -76zM181 614q0 18 13 31.5t31 13.5q13 0 26 -8l102 -71q19 -14 19 -36q0 -19 -13 -31.5t-31 -12.5q-16 0 -25 8l-103 70q-19 14 -19 36z" />
<glyph unicode="&#xe9;" horiz-adv-x="518" d="M16 164q0 79 56.5 142.5t134 94t154.5 30.5q55 0 96.5 -27.5t41.5 -79.5q0 -45 -29 -79.5t-71 -54t-96.5 -32t-97 -16.5t-81.5 -5q18 -50 93 -50q65 0 181 60q12 6 24 6q21 0 36.5 -15t15.5 -37q0 -32 -27 -46q-125 -66 -235 -66q-84 0 -140 46.5t-56 128.5zM142 226 q82 4 163.5 33t81.5 59q0 13 -27 13h-2q-59 0 -123 -29t-93 -76zM251 544q0 22 19 36l102 71q13 8 26 8q18 0 30.5 -13.5t12.5 -31.5q0 -23 -19 -36l-102 -70q-9 -8 -25 -8q-18 0 -31 12.5t-13 31.5z" />
<glyph unicode="&#xea;" horiz-adv-x="518" d="M16 164q0 79 56.5 142.5t134 94t154.5 30.5q55 0 96.5 -27.5t41.5 -79.5q0 -45 -29 -79.5t-71 -54t-96.5 -32t-97 -16.5t-81.5 -5q18 -50 93 -50q65 0 181 60q12 6 24 6q21 0 36.5 -15t15.5 -37q0 -32 -27 -46q-125 -66 -235 -66q-84 0 -140 46.5t-56 128.5zM142 226 q82 4 163.5 33t81.5 59q0 13 -27 13h-2q-59 0 -123 -29t-93 -76zM148 547q0 23 21 37l115 74q12 7 24 7q10 0 24 -7l116 -74q21 -14 21 -37q0 -19 -13 -31.5t-32 -12.5q-13 0 -23 7l-93 58l-92 -58q-10 -7 -24 -7q-18 0 -31 12.5t-13 31.5z" />
<glyph unicode="&#xeb;" horiz-adv-x="518" d="M16 164q0 79 56.5 142.5t134 94t154.5 30.5q55 0 96.5 -27.5t41.5 -79.5q0 -45 -29 -79.5t-71 -54t-96.5 -32t-97 -16.5t-81.5 -5q18 -50 93 -50q65 0 181 60q12 6 24 6q21 0 36.5 -15t15.5 -37q0 -32 -27 -46q-125 -66 -235 -66q-84 0 -140 46.5t-56 128.5zM142 226 q82 4 163.5 33t81.5 59q0 13 -27 13h-2q-59 0 -123 -29t-93 -76zM174 600q0 22 15.5 37t37.5 15t37 -15t15 -37t-15 -37.5t-37 -15.5t-37.5 15.5t-15.5 37.5zM337 600q0 22 15.5 37t37.5 15t37 -15t15 -37t-15 -37.5t-37 -15.5t-37.5 15.5t-15.5 37.5z" />
<glyph unicode="&#xec;" horiz-adv-x="178" d="M-6 614q0 18 12.5 31.5t30.5 13.5q13 0 26 -8l102 -71q19 -13 19 -36q0 -19 -13 -31.5t-31 -12.5q-14 0 -25 8l-102 70q-19 14 -19 36zM37 46v332q0 22 15 37t37 15t37 -15t15 -37v-332q0 -21 -15 -36.5t-37 -15.5t-37 15.5t-15 36.5z" />
<glyph unicode="&#xed;" horiz-adv-x="178" d="M-6 544q0 23 19 36l102 71q13 8 26 8q18 0 30.5 -13.5t12.5 -31.5q0 -23 -19 -36l-102 -70q-11 -8 -25 -8q-18 0 -31 12.5t-13 31.5zM37 46v332q0 22 15 37t37 15t37 -15t15 -37v-332q0 -21 -15 -36.5t-37 -15.5t-37 15.5t-15 36.5z" />
<glyph unicode="&#xee;" horiz-adv-x="178" d="M-71 547q0 23 20 37l116 74q12 7 23 7q12 0 24 -7l117 -74q20 -14 20 -37q0 -19 -13 -31.5t-31 -12.5q-13 0 -24 7l-93 58l-91 -58q-11 -7 -24 -7q-19 0 -31.5 12.5t-12.5 31.5zM37 46v332q0 22 15 37t37 15t37 -15t15 -37v-332q0 -21 -15 -36.5t-37 -15.5t-37 15.5 t-15 36.5z" />
<glyph unicode="&#xef;" horiz-adv-x="178" d="M-40 600q0 22 15 37t37 15t37.5 -15t15.5 -37t-15.5 -37.5t-37.5 -15.5t-37 15.5t-15 37.5zM37 46v332q0 22 15 37t37 15t37 -15t15 -37v-332q0 -21 -15 -36.5t-37 -15.5t-37 15.5t-15 36.5zM113 600q0 22 15.5 37t37.5 15t37 -15t15 -37t-15 -37.5t-37 -15.5t-37.5 15.5 t-15.5 37.5z" />
<glyph unicode="&#xf0;" horiz-adv-x="549" d="M24 171q0 42 20 82t59.5 74.5t104.5 58t148 30.5q-45 47 -97 75l-58 -59q-16 -17 -41 -17q-22 0 -38.5 16.5t-16.5 38.5q0 24 16 40l24 25q-20 6 -35 8q-19 4 -32 19.5t-13 35.5q0 23 16.5 39.5t39.5 16.5q7 0 11 -1q55 -11 101 -27l58 60q16 17 42 17q23 0 38.5 -17 t15.5 -41q0 -22 -16 -37l-31 -34q92 -58 138.5 -138.5t46.5 -166.5q0 -125 -86 -202t-214 -77q-94 0 -147.5 54t-53.5 127zM136 171q0 -31 24 -50t65 -19q85 0 136.5 46.5t51.5 121.5q0 15 -6 47q-125 -3 -198 -44t-73 -102z" />
<glyph unicode="&#xf1;" horiz-adv-x="477" d="M37 45v334q0 22 15 37t37 15t37 -15t15 -37v-2q49 54 121 54q84 0 131 -55t47 -153v-178q0 -21 -15 -36.5t-37 -15.5t-37 15.5t-15 36.5v178q0 36 -7.5 59.5t-22 32t-23 10.5t-21.5 2q-31 0 -67 -24t-54 -67v-191q0 -21 -15 -36.5t-37 -15.5t-37 15.5t-15 36.5zM55 557 q0 9 5 21q42 76 104 76q34 0 91 -30q40 -22 56 -22q13 0 32 24q12 18 34 18q19 0 32 -13t13 -32q0 -14 -8 -25q-45 -60 -104 -60q-38 0 -97 32q-35 20 -47 20q-6 0 -10.5 -4t-7.5 -8.5t-10 -17.5q-13 -23 -38 -23q-18 0 -31.5 13t-13.5 31z" />
<glyph unicode="&#xf2;" horiz-adv-x="460" d="M17 153q-1 103 81.5 191.5t185.5 88.5q71 0 114 -47.5t43 -118.5q0 -103 -82 -190.5t-185 -87.5q-71 0 -114 47t-43 117zM121 155q0 -62 53 -62q59 0 111 57.5t52 117.5q0 61 -53 61q-58 0 -110.5 -57.5t-52.5 -116.5zM133 614q0 18 12.5 31.5t30.5 13.5q13 0 26 -8 l102 -71q19 -13 19 -36q0 -19 -13 -31.5t-31 -12.5q-14 0 -25 8l-102 70q-19 14 -19 36z" />
<glyph unicode="&#xf3;" horiz-adv-x="460" d="M17 153q-1 103 81.5 191.5t185.5 88.5q71 0 114 -47.5t43 -118.5q0 -103 -82 -190.5t-185 -87.5q-71 0 -114 47t-43 117zM121 155q0 -62 53 -62q59 0 111 57.5t52 117.5q0 61 -53 61q-58 0 -110.5 -57.5t-52.5 -116.5zM212 544q0 22 19 36l102 71q13 8 26 8 q18 0 31 -13.5t13 -31.5q0 -22 -19 -36l-102 -70q-11 -8 -26 -8q-18 0 -31 12.5t-13 31.5z" />
<glyph unicode="&#xf4;" horiz-adv-x="460" d="M17 153q-1 103 81.5 191.5t185.5 88.5q71 0 114 -47.5t43 -118.5q0 -103 -82 -190.5t-185 -87.5q-71 0 -114 47t-43 117zM121 155q0 -62 53 -62q59 0 111 57.5t52 117.5q0 61 -53 61q-58 0 -110.5 -57.5t-52.5 -116.5zM129 547q0 23 20 37l116 74q12 7 23 7q12 0 24 -7 l117 -74q20 -14 20 -37q0 -19 -13 -31.5t-31 -12.5q-13 0 -24 7l-93 58l-91 -58q-11 -7 -24 -7q-19 0 -31.5 12.5t-12.5 31.5z" />
<glyph unicode="&#xf5;" horiz-adv-x="460" d="M17 153q-1 103 81.5 191.5t185.5 88.5q71 0 114 -47.5t43 -118.5q0 -103 -82 -190.5t-185 -87.5q-71 0 -114 47t-43 117zM78 557q0 9 5 21q42 76 104 76q33 0 91 -30q40 -22 56 -22q13 0 32 24q12 18 34 18q19 0 32 -13t13 -32q0 -14 -8 -25q-45 -60 -104 -60 q-39 0 -96 32q-37 20 -48 20q-6 0 -10.5 -4t-7.5 -8.5t-10 -17.5q-13 -23 -38 -23q-18 0 -31.5 13t-13.5 31zM121 155q0 -62 53 -62q59 0 111 57.5t52 117.5q0 61 -53 61q-58 0 -110.5 -57.5t-52.5 -116.5z" />
<glyph unicode="&#xf6;" horiz-adv-x="460" d="M17 153q-1 103 81.5 191.5t185.5 88.5q71 0 114 -47.5t43 -118.5q0 -103 -82 -190.5t-185 -87.5q-71 0 -114 47t-43 117zM121 155q0 -62 53 -62q59 0 111 57.5t52 117.5q0 61 -53 61q-58 0 -110.5 -57.5t-52.5 -116.5zM155 600q0 22 15 37t37 15t37.5 -15t15.5 -37 t-15.5 -37.5t-37.5 -15.5t-37 15.5t-15 37.5zM318 600q0 22 15 37t37 15t37.5 -15t15.5 -37t-15.5 -37.5t-37.5 -15.5t-37 15.5t-15 37.5z" />
<glyph unicode="&#xf7;" horiz-adv-x="449" d="M16 273q0 22 15.5 37t37.5 15h312q22 0 37 -15t15 -37t-15 -37t-37 -15h-312q-22 0 -37.5 15t-15.5 37zM155 125q0 24 17 41t41 17t41 -17t17 -41t-17 -41t-41 -17t-41 17t-17 41zM155 421q0 24 17 41t41 17t41 -17t17 -41t-17 -41t-41 -17t-41 17t-17 41z" />
<glyph unicode="&#xf8;" horiz-adv-x="460" d="M-20 -32q0 16 9 25l55 63q-27 44 -27 97q-1 103 81.5 191.5t185.5 88.5q40 0 74 -17l49 57q11 12 28 12q15 0 26 -11t11 -25q0 -15 -9 -24l-50 -58q28 -42 28 -100q0 -103 -82 -190.5t-185 -87.5q-43 0 -76 18l-54 -63q-11 -12 -28 -12q-15 0 -25.5 11t-10.5 25zM121 155 q0 -6 1 -10l159 184q-57 -1 -108.5 -58.5t-51.5 -115.5zM173 93h1q59 -1 111 57t52 118q0 8 -1 12z" />
<glyph unicode="&#xf9;" horiz-adv-x="478" d="M37 198v178q0 22 15 37t37 15t37 -15t15 -37v-178q0 -36 7.5 -59t22 -31.5t23 -10.5t21.5 -2q31 0 67 24t54 67v190q0 22 15.5 37t36.5 15q22 0 37.5 -15t15.5 -37v-333q0 -22 -15.5 -37t-37.5 -15q-21 0 -36.5 15t-15.5 37v2q-50 -55 -121 -55q-83 0 -130.5 55.5 t-47.5 152.5zM94 614q0 18 12.5 31.5t30.5 13.5q13 0 26 -8l102 -71q19 -13 19 -36q0 -19 -12.5 -31.5t-31.5 -12.5q-14 0 -25 8l-102 70q-19 14 -19 36z" />
<glyph unicode="&#xfa;" horiz-adv-x="478" d="M37 198v178q0 22 15 37t37 15t37 -15t15 -37v-178q0 -36 7.5 -59t22 -31.5t23 -10.5t21.5 -2q31 0 67 24t54 67v190q0 22 15.5 37t36.5 15q22 0 37.5 -15t15.5 -37v-333q0 -22 -15.5 -37t-37.5 -15q-21 0 -36.5 15t-15.5 37v2q-50 -55 -121 -55q-83 0 -130.5 55.5 t-47.5 152.5zM203 544q0 23 19 36l102 71q13 8 26 8q18 0 30.5 -13.5t12.5 -31.5q0 -22 -19 -36l-102 -70q-11 -8 -25 -8q-19 0 -31.5 12.5t-12.5 31.5z" />
<glyph unicode="&#xfb;" horiz-adv-x="478" d="M37 198v178q0 22 15 37t37 15t37 -15t15 -37v-178q0 -36 7.5 -59t22 -31.5t23 -10.5t21.5 -2q31 0 67 24t54 67v190q0 22 15.5 37t36.5 15q22 0 37.5 -15t15.5 -37v-333q0 -22 -15.5 -37t-37.5 -15q-21 0 -36.5 15t-15.5 37v2q-50 -55 -121 -55q-83 0 -130.5 55.5 t-47.5 152.5zM79 547q0 23 20 37l115 74q14 7 24 7q12 0 24 -7l117 -74q20 -14 20 -37q0 -19 -13 -31.5t-31 -12.5q-14 0 -24 7l-93 58l-91 -58q-11 -7 -24 -7q-19 0 -31.5 12.5t-12.5 31.5z" />
<glyph unicode="&#xfc;" horiz-adv-x="478" d="M37 198v178q0 22 15 37t37 15t37 -15t15 -37v-178q0 -36 7.5 -59t22 -31.5t23 -10.5t21.5 -2q31 0 67 24t54 67v190q0 22 15.5 37t36.5 15q22 0 37.5 -15t15.5 -37v-333q0 -22 -15.5 -37t-37.5 -15q-21 0 -36.5 15t-15.5 37v2q-50 -55 -121 -55q-83 0 -130.5 55.5 t-47.5 152.5zM97 600q0 22 15 37t37 15t37.5 -15t15.5 -37t-15.5 -37.5t-37.5 -15.5t-37 15.5t-15 37.5zM260 600q0 22 15 37t37 15t37.5 -15t15.5 -37t-15.5 -37.5t-37.5 -15.5t-37 15.5t-15 37.5z" />
<glyph unicode="&#xfd;" horiz-adv-x="464" d="M-3 -125q0 22 15.5 37.5t36.5 15.5q7 0 19.5 -3t18.5 -3q54 0 92 83l2 6l-159 342q-5 12 -5 22q0 22 15 37t37 15q33 0 47 -30l121 -258l110 253q13 32 47 32q22 0 37.5 -15.5t15.5 -37.5q0 -10 -5 -20l-168 -387q-31 -70 -79 -108t-106 -39q-27 0 -54 9q-17 4 -27.5 18 t-10.5 31z" />
<glyph unicode="&#xfe;" horiz-adv-x="509" d="M37 -127v723q0 21 15 36.5t37 15.5t37 -15.5t15 -36.5v-196q81 32 156 32q78 0 135.5 -42.5t57.5 -118.5q0 -48 -23.5 -90.5t-60 -72.5t-84.5 -54t-92.5 -37.5t-88.5 -20.5v-123q0 -22 -15 -37t-37 -15t-37 15t-15 37zM141 93q29 7 67 21.5t80 37t70 54.5t28 65 q0 30 -28 43.5t-63 13.5q-68 0 -154 -41v-194z" />
<glyph unicode="&#xff;" horiz-adv-x="464" d="M-3 -125q0 22 15.5 37.5t36.5 15.5q7 0 19.5 -3t18.5 -3q54 0 92 83l2 6l-159 342q-5 12 -5 22q0 22 15 37t37 15q33 0 47 -30l121 -258l110 253q13 32 47 32q22 0 37.5 -15.5t15.5 -37.5q0 -10 -5 -20l-168 -387q-31 -70 -79 -108t-106 -39q-27 0 -54 9q-17 4 -27.5 18 t-10.5 31zM98 600q0 22 15.5 37t37.5 15t37 -15t15 -37t-15 -37.5t-37 -15.5t-37.5 15.5t-15.5 37.5zM261 600q0 22 15.5 37t37.5 15t37 -15t15 -37t-15 -37.5t-37 -15.5t-37.5 15.5t-15.5 37.5z" />
<glyph unicode="&#x152;" horiz-adv-x="843" d="M23 255q0 94 44.5 185t126.5 151.5t177 60.5q55 0 101 -22q16 13 36 13h252q23 0 39.5 -16.5t16.5 -39.5t-16.5 -40t-39.5 -17h-190q26 -49 32 -109h141q23 0 39.5 -16.5t16.5 -39.5t-16.5 -39.5t-39.5 -16.5h-147q-11 -50 -32 -95v-102h200q23 0 39.5 -16.5t16.5 -39.5 t-16.5 -39.5t-39.5 -16.5h-256q-23 0 -39.5 16.5t-16.5 39.5v8q-90 -75 -196 -75q-107 0 -170 78.5t-63 187.5zM136 254q0 -62 30.5 -107t89.5 -45q95 0 165.5 92.5t70.5 191.5q0 63 -31 108.5t-90 45.5q-64 0 -119.5 -45t-85.5 -110.5t-30 -130.5z" />
<glyph unicode="&#x153;" horiz-adv-x="783" d="M17 153q-1 103 81.5 191.5t185.5 88.5q83 0 127 -64q102 62 215 62q55 0 96.5 -27.5t41.5 -79.5q0 -53 -38.5 -91.5t-99.5 -57.5t-115 -27.5t-107 -10.5q-2 -2 -4.5 -6.5t-3.5 -6.5q24 -37 85 -37q67 0 181 60q12 6 25 6q21 0 36.5 -15t15.5 -37q0 -32 -28 -46 q-123 -66 -235 -66q-95 0 -150 57q-72 -57 -152 -57q-71 0 -114 47t-43 117zM121 155q0 -62 53 -62q59 0 111 57.5t52 117.5q0 61 -53 61q-58 0 -110.5 -57.5t-52.5 -116.5zM438 229q78 9 145.5 35.5t67.5 53.5q0 13 -26 13h-2q-45 0 -95.5 -18t-86.5 -48q0 -18 -3 -36z" />
<glyph unicode="&#x178;" horiz-adv-x="542" d="M16 594q0 23 16 39.5t39 16.5q28 0 46 -22l156 -206l150 205q16 23 46 23q23 0 39.5 -16.5t16.5 -40.5q0 -16 -11 -32l-184 -251v-261q0 -23 -16.5 -39.5t-39.5 -16.5t-40 16.5t-17 39.5v259l-190 252q-11 14 -11 34zM137 743q0 22 15 37t37 15t37.5 -15t15.5 -37 t-15.5 -37.5t-37.5 -15.5t-37 15.5t-15 37.5zM300 743q0 22 15 37t37 15t37.5 -15t15.5 -37t-15.5 -37.5t-37.5 -15.5t-37 15.5t-15 37.5z" />
<glyph unicode="&#x2c6;" horiz-adv-x="442" d="M61 547q0 23 20 37l116 74q12 7 23 7q12 0 24 -7l117 -74q20 -14 20 -37q0 -19 -13 -31.5t-31 -12.5q-13 0 -24 7l-93 58l-91 -58q-11 -7 -24 -7q-18 0 -31 12.5t-13 31.5z" />
<glyph unicode="&#x2dc;" horiz-adv-x="442" d="M39 557q0 9 5 21q42 76 104 76q34 0 91 -30q41 -22 56 -22q13 0 32 24q12 18 34 18q19 0 32.5 -13t13.5 -32q0 -12 -9 -25q-45 -60 -103 -60q-38 0 -97 32q-37 20 -48 20q-6 0 -10.5 -4t-7.5 -8.5t-10 -17.5q-13 -23 -38 -23q-18 0 -31.5 13t-13.5 31z" />
<glyph unicode="&#x2000;" horiz-adv-x="425" />
<glyph unicode="&#x2001;" horiz-adv-x="851" />
<glyph unicode="&#x2002;" horiz-adv-x="425" />
<glyph unicode="&#x2003;" horiz-adv-x="851" />
<glyph unicode="&#x2004;" horiz-adv-x="283" />
<glyph unicode="&#x2005;" horiz-adv-x="212" />
<glyph unicode="&#x2006;" horiz-adv-x="141" />
<glyph unicode="&#x2007;" horiz-adv-x="141" />
<glyph unicode="&#x2008;" horiz-adv-x="106" />
<glyph unicode="&#x2009;" horiz-adv-x="170" />
<glyph unicode="&#x200a;" horiz-adv-x="47" />
<glyph unicode="&#x2010;" horiz-adv-x="292" d="M26 249q0 23 16.5 39.5t39.5 16.5h128q23 0 39.5 -16.5t16.5 -39.5t-16.5 -39.5t-39.5 -16.5h-128q-23 0 -39.5 16.5t-16.5 39.5z" />
<glyph unicode="&#x2011;" horiz-adv-x="292" d="M26 249q0 23 16.5 39.5t39.5 16.5h128q23 0 39.5 -16.5t16.5 -39.5t-16.5 -39.5t-39.5 -16.5h-128q-23 0 -39.5 16.5t-16.5 39.5z" />
<glyph unicode="&#x2012;" horiz-adv-x="292" d="M26 249q0 23 16.5 39.5t39.5 16.5h128q23 0 39.5 -16.5t16.5 -39.5t-16.5 -39.5t-39.5 -16.5h-128q-23 0 -39.5 16.5t-16.5 39.5z" />
<glyph unicode="&#x2013;" horiz-adv-x="437" d="M40 249q0 23 16.5 39.5t39.5 16.5h245q23 0 39.5 -16.5t16.5 -39.5t-16.5 -39.5t-39.5 -16.5h-245q-23 0 -39.5 16.5t-16.5 39.5z" />
<glyph unicode="&#x2014;" horiz-adv-x="565" d="M40 249q0 23 16.5 39.5t39.5 16.5h373q23 0 39.5 -16.5t16.5 -39.5t-16.5 -39.5t-39.5 -16.5h-373q-23 0 -39.5 16.5t-16.5 39.5z" />
<glyph unicode="&#x2018;" horiz-adv-x="166" d="M10 510q0 37 20.5 76.5t49.5 65.5q13 12 32 12q20 0 34 -14t14 -34q0 -22 -17 -37q-19 -17 -32 -48q25 -18 25 -49q0 -26 -18 -43.5t-43 -17.5q-30 0 -47.5 23t-17.5 66z" />
<glyph unicode="&#x2019;" horiz-adv-x="167" d="M7 458q0 22 17 36q20 19 32 48q-25 18 -25 50q0 25 18 43t43 18q30 0 47 -23t17 -67q0 -37 -20.5 -77t-48.5 -64q-14 -12 -32 -12q-20 0 -34 14t-14 34z" />
<glyph unicode="&#x201a;" horiz-adv-x="161" d="M1 -82q0 23 16 36q21 18 33 48q-25 18 -25 50q0 25 18 43t43 18q30 0 47 -23t17 -66q0 -37 -20 -77t-49 -65q-13 -12 -32 -12t-33.5 14t-14.5 34z" />
<glyph unicode="&#x201c;" horiz-adv-x="326" d="M10 510q0 37 20.5 76.5t49.5 65.5q13 12 32 12q20 0 34 -14t14 -34q0 -22 -17 -37q-19 -17 -32 -48q25 -18 25 -49q0 -26 -18 -43.5t-43 -17.5q-30 0 -47.5 23t-17.5 66zM169 510q0 37 20.5 77t49.5 65q14 12 31 12q20 0 34.5 -14t14.5 -34q0 -22 -17 -37 q-21 -18 -33 -48q26 -18 26 -49q0 -25 -18 -43t-43 -18q-30 0 -47.5 23t-17.5 66z" />
<glyph unicode="&#x201d;" horiz-adv-x="326" d="M7 458q0 22 17 36q20 19 32 48q-25 18 -25 50q0 25 18 43t43 18q30 0 47 -23t17 -67q0 -37 -20.5 -77t-48.5 -64q-14 -12 -32 -12q-20 0 -34 14t-14 34zM166 458q0 23 16 36q21 18 33 48q-25 18 -25 50q0 25 18 43t43 18q30 0 47 -23t17 -67q0 -37 -20.5 -77t-48.5 -64 q-14 -12 -32 -12q-20 0 -34 14t-14 34z" />
<glyph unicode="&#x201e;" horiz-adv-x="326" d="M7 -82q0 22 17 36q20 19 32 48q-25 18 -25 50q0 25 18 43t43 18q30 0 47 -23t17 -66q0 -37 -20 -77t-49 -65q-14 -12 -32 -12q-19 0 -33.5 14t-14.5 34zM166 -82q0 23 16 36q21 18 33 48q-25 18 -25 50q0 25 18 43t43 18q30 0 47 -23t17 -66q0 -37 -20 -77t-49 -65 q-14 -12 -32 -12q-20 0 -34 14t-14 34z" />
<glyph unicode="&#x2022;" horiz-adv-x="239" d="M19 281q0 42 29.5 71.5t71.5 29.5q41 0 70.5 -29.5t29.5 -71.5q0 -41 -29.5 -70.5t-70.5 -29.5q-42 0 -71.5 29.5t-29.5 70.5z" />
<glyph unicode="&#x2026;" horiz-adv-x="472" d="M26 52q0 25 17.5 43t42.5 18t43 -18t18 -43q0 -26 -17.5 -43.5t-43.5 -17.5q-25 0 -42.5 18t-17.5 43zM180 52q0 25 18 43t43 18t43 -18t18 -43t-18 -43t-43 -18t-43 17.5t-18 43.5zM335 52q0 25 18 43t43 18t43 -18t18 -43t-18 -43t-43 -18q-26 0 -43.5 17.5t-17.5 43.5 z" />
<glyph unicode="&#x202f;" horiz-adv-x="170" />
<glyph unicode="&#x2039;" horiz-adv-x="256" d="M9 239q0 19 13 35l125 140q15 17 39 17q22 0 37 -15t15 -37q0 -20 -13 -34l-94 -106l94 -106q13 -14 13 -35q0 -22 -15 -37t-37 -15t-39 17l-125 142q-13 16 -13 34z" />
<glyph unicode="&#x203a;" horiz-adv-x="256" d="M17 98q0 19 14 35l94 106l-94 106q-13 14 -13 34q0 22 15 37t37 15t39 -17l124 -140q13 -14 13 -35q0 -20 -13 -34l-125 -142q-15 -17 -39 -17q-21 0 -36.5 15t-15.5 37z" />
<glyph unicode="&#x205f;" horiz-adv-x="212" />
<glyph unicode="&#x20ac;" d="M13 214q0 23 16.5 39.5t39.5 16.5h21q1 23 6 48h-27q-23 0 -39.5 16.5t-16.5 39.5t16.5 39.5t39.5 16.5h74q58 88 166 144t228 77q3 1 10 1q23 0 39.5 -16.5t16.5 -39.5q-1 -21 -14 -36.5t-33 -18.5q-164 -29 -263 -111h94q23 0 39.5 -16.5t16.5 -39.5t-16.5 -39.5 t-39.5 -16.5h-175q-7 -20 -10 -48h185q23 0 39.5 -16.5t16.5 -39.5t-16.5 -39.5t-39.5 -16.5h-156q40 -56 114 -56q80 0 174 68q16 11 32 11q24 0 40.5 -16.5t16.5 -40.5q0 -28 -23 -45q-122 -89 -243 -89q-82 0 -146 46.5t-91 121.5h-36q-23 0 -39.5 16.5t-16.5 39.5z" />
<glyph unicode="&#x2122;" horiz-adv-x="723" d="M16 594q0 20 14 34t34 14h155q19 0 33.5 -14t14.5 -34t-14 -34t-34 -14h-32v-103q0 -20 -14 -34t-34 -14q-19 0 -33.5 14.5t-14.5 33.5v103h-27q-20 0 -34 14t-14 34zM292 443v152q0 19 14 33.5t34 14.5q12 0 23 -6q29 16 61 16q42 0 74 -27q37 27 78 27q56 0 89 -40.5 t33 -98.5v-71q0 -20 -14 -34t-34 -14t-34 14.5t-14 33.5v71q0 42 -26 42q-21 0 -32 -20q2 -14 2 -22v-71q0 -20 -14.5 -34t-34.5 -14q-19 0 -33.5 14.5t-14.5 33.5v71q0 42 -25 42q-24 0 -36 -26v-87q0 -20 -14 -34t-34 -14t-34 14.5t-14 33.5z" />
<glyph unicode="&#xe000;" horiz-adv-x="430" d="M0 0v430h430v-430h-430z" />
</font>
</defs>
</svg>
