<?xml version="1.0" standalone="no"?>
<!DOCTYPE svg PUBLIC "-//W3C//DTD SVG 1.1//EN" "http://www.w3.org/Graphics/SVG/1.1/DTD/svg11.dtd" >
<svg xmlns="http://www.w3.org/2000/svg">
<metadata></metadata>
<defs>
<font id="carbontyperegular" horiz-adv-x="1491" >
<font-face units-per-em="2048" ascent="1638" descent="-410" />
<missing-glyph horiz-adv-x="1502" />
<glyph horiz-adv-x="2048" />
<glyph horiz-adv-x="2048" />
<glyph unicode="&#xd;" horiz-adv-x="390" />
<glyph unicode=" "  horiz-adv-x="1502" />
<glyph unicode="&#x09;" horiz-adv-x="1502" />
<glyph unicode="&#xa0;" horiz-adv-x="1502" />
<glyph unicode="!" d="M325 1455q13 -108 0 -188l54 -57l-18 -37v-57v-132l54 -18q-18 -236 54 -415q113 80 180 151q-18 198 0 320l-36 19v113q13 19 0 37q59 151 54 264q-99 108 -216 113q-72 -80 -126 -113zM325 307q103 -626 414 0q-131 150 -252 150q-113 -61 -162 -150z" />
<glyph unicode="&#x22;" d="M448 1585q9 -113 -12 -190q24 -44 12 -83q44 -122 36 -226l11 -47q60 -18 107 -12q0 122 -12 202l36 59q-6 119 12 202q-39 95 -107 119zM828 1561v-59q-3 -92 0 -154h36q18 -158 0 -262q62 -127 142 12l-23 12q-18 158 71 261q3 164 -119 238q-68 -21 -107 -48z" />
<glyph unicode="#" horiz-adv-x="636" />
<glyph unicode="$" horiz-adv-x="1488" d="M344 1360q-287 -40 -173 -361q87 -98 173 -142q-12 -157 78 -251q16 20 32 16q-20 122 47 204l-31 63v63v125v47q19 251 0 424h-126q12 -110 0 -188zM579 1548q4 -90 -31 -173v-62q181 -59 94 -424q-66 -16 -94 -63q173 -106 63 -267q78 -82 -16 -157q-12 -125 -125 -94 q-51 110 15 188q-70 16 -47 79q-228 -353 -188 -63l-110 -16q63 -149 188 -204q-19 -172 16 -298q169 35 188 235q12 -321 236 -204q8 118 0 204q98 67 141 142q177 302 -173 486q12 28 32 32q-24 90 0 172v173q118 -31 204 32q-82 117 -204 109q55 208 -173 173h-16h16h-16 zM328 1187q-43 -102 -63 16zM799 496l16 -62h-94l31 15q-51 122 16 220q153 -59 31 -173z" />
<glyph unicode="%" horiz-adv-x="636" />
<glyph unicode="&#x26;" horiz-adv-x="1488" d="M359 1444l-54 -126q-104 -333 162 -468v-72q-104 -90 -198 -108q-154 -459 126 -594q135 -181 396 -18v90q-734 4 -234 594q108 -315 360 -450q-63 -81 -126 -126q108 0 198 36q99 -257 342 -180v90q-306 22 -252 198q-99 162 252 216q32 94 18 180q-315 72 -342 -324 l-72 -54q-135 130 -180 270q-95 72 -126 162q58 40 108 36q490 630 -270 702q-41 -54 -108 -54zM773 1210l18 -180q-414 -329 -288 216l72 36q117 -27 198 -72z" />
<glyph unicode="'" horiz-adv-x="1595" d="M776 1609q-122 -74 -119 -238q89 -103 71 -261l-23 -12q80 -139 142 -12q-18 104 0 262h36q3 62 0 154v59q-39 27 -107 48z" />
<glyph unicode="(" d="M849 1473l-14 -31l-172 -216q-14 -101 0 -170q-183 -579 201 -942l29 -108q107 -23 172 16l14 92q-291 220 -301 556q-94 467 287 818q-47 96 -129 108z" />
<glyph unicode=")" d="M506 1418q215 -96 219 -326q106 -63 55 -193q99 -63 41 -178q23 -100 -55 -148q-45 -315 -301 -430q3 -126 109 -148q72 -4 110 0q24 89 96 103q-4 119 13 208q69 26 96 74v45l14 44v59l27 30q-3 108 27 178l-13 89l27 74l-27 119q-45 137 -55 237l-41 15v44 q-17 15 -14 30q-41 78 -95 119q-18 77 -55 133h-151q-24 -104 -27 -178z" />
<glyph unicode="*" d="M665 1558q22 -31 0 -62q-127 9 -198 -74l37 -62q195 -28 -12 -124l-13 -87q121 -15 211 25q-34 -96 50 -136h49q22 77 62 124q115 -37 186 37q-139 118 0 235q-87 71 -198 25q-19 81 12 149q-87 21 -149 12z" />
<glyph unicode="+" horiz-adv-x="636" />
<glyph unicode="," d="M524 326l10 -77q142 -99 48 -193v-77q36 -12 48 -39h29q41 75 107 77q118 331 -49 464h-19h19h-19q-118 -58 -174 -155z" />
<glyph unicode="-" d="M1110 735.5q14 -34.5 -138 -174.5q-31 -4 -73 4t-184 3q-302 10 -205 -7l-137 2q-14 42 8.5 107.5t86.5 73.5q30 3 67 -5q82 -16 177 -7t239.5 23.5t158.5 -20z" />
<glyph unicode="." d="M354 223l-48 -48q81 -217 301 -193v36q226 187 73 434h-36q-73 15 -133 12q-136 -102 -157 -241z" />
<glyph unicode="/" d="M903 1474l-39 -13q-32 -117 -91 -195q-45 -162 -156 -260l-26 -78q-22 -74 -13 -143q-90 -61 -77 -168q-88 -13 -91 -91l91 13l-13 52l39 39q84 74 77 168l117 91q56 72 52 143h39q75 111 169 169q29 88 78 143q-6 101 -26 169q-65 3 -104 13zM306 409q42 -114 104 -13 q29 68 -26 104q-56 -49 -78 -91zM189 253l-13 -39l-117 -221l26 -52l156 65v104q68 81 65 182h-52z" />
<glyph unicode="0" horiz-adv-x="1515" d="M489 1460q-437 -472 -287 -1041l90 -18q17 -65 -54 -54v-72l125 -36q-53 -88 180 -251h144h125h54q37 166 216 144l18 89l17 18l54 36l-18 108q114 177 90 359l54 18v54q-20 27 -18 54v54q-55 106 -54 197q-109 144 -125 269q-130 17 -198 90q-96 -6 -179 18 q-135 -37 -234 -36zM1010 904q27 -17 54 0q63 -361 -126 -629q-140 -126 -287 -36q-47 -75 -90 0q-137 0 -144 144q-87 13 -143 54l36 54q-71 268 53 413q5 226 198 305q382 26 449 -305z" />
<glyph unicode="1" horiz-adv-x="1498" d="M59 1267q18 -27 18 -53l123 -18q149 18 263 0l18 -70l-18 -70q9 -132 0 -211v-53l35 -105q-17 -84 -17 -141q22 -167 0 -281q-132 -52 -281 0q-105 -92 -123 -193q250 -123 474 -53q325 -74 562 53q18 88 0 158q-171 -9 -298 35l-106 -35l-17 70q4 49 0 71v193v193l17 70 v53v70l35 36q0 87 18 140q-26 141 0 264q-220 118 -404 105q-321 18 -299 -228z" />
<glyph unicode="2" horiz-adv-x="1515" d="M525 1461q-220 -69 -363 -155q4 -121 -35 -208q108 -65 208 -69q143 143 329 86q69 83 121 -17q138 -35 17 -277q-368 -39 -606 -277l-17 -52q-17 -30 -35 -34l-34 -121q0 -156 -52 -260q277 -125 606 -86l34 52q221 -70 398 34q-30 108 -86 173q-368 -99 -692 -34 q60 225 259 259q160 152 363 139q22 73 87 86q212 619 -485 796z" />
<glyph unicode="3" horiz-adv-x="1515" d="M592 1452h-88q-32 -11 -58 0l-334 -29l-29 -58q25 -167 465 -160q-120 -178 -262 -247v-160l88 -58q189 91 378 73v-58q80 -44 0 -233l-73 -15q-142 -229 -393 -247q-83 -62 -189 -58q-47 -65 -43 -145l72 -73q77 11 131 44h146l29 58q254 76 363 276q266 214 44 596 q-109 11 -175 58q418 396 29 422l-72 58z" />
<glyph unicode="4" horiz-adv-x="1468" d="M171 1421l-15 -45q19 -15 15 -30v-45q-11 -161 0 -269v-45l-45 -105l-15 -90l-30 -15q-26 -131 -75 -210q4 -120 0 -195h45l45 -14h45l45 -15q206 29 344 15q15 18 30 14q-116 -396 165 -374q8 131 75 225q-180 198 150 149l15 180q-71 94 -180 60v45q-45 169 -30 300 q-67 52 -105 105q-209 -135 -75 -450q-168 -11 -269 0l-15 60q11 53 45 90q0 135 60 240v164q26 139 15 240q-87 71 -180 90z" />
<glyph unicode="5" horiz-adv-x="1513" d="M783 1466h-105l-89 -15q-239 19 -403 0q-15 -156 -60 -253q56 -101 0 -179q60 -75 30 -150l75 -59h104q280 227 508 -75q-79 -119 -45 -239l-135 -45q-227 -257 -537 -253l-74 -60q-8 -145 119 -164q119 104 254 119q280 109 403 344q41 123 119 194l-45 74 q64 414 -552 343q-26 265 537 224q64 157 -74 224q-8 -30 -30 -30z" />
<glyph unicode="6" horiz-adv-x="1515" d="M601 1461q-103 -107 -230 -138q-65 -169 -184 -261l-15 -122q-81 -250 -46 -476q53 7 107 0q58 80 61 169q70 -16 108 -46q88 138 230 61q284 -58 231 -384q-354 -307 -676 169q-123 -165 61 -276q58 -211 307 -108l62 -61q111 100 230 107q-8 89 62 123q7 104 61 169 q-92 618 -691 384q42 111 138 169v122l62 -15q80 226 307 230q57 50 123 62q-8 184 -200 153q-54 -42 -108 -31z" />
<glyph unicode="7" horiz-adv-x="1515" d="M74 1082q-27 -39 -31 -77l61 -31l77 16q50 353 384 307q230 23 215 -215q-88 -92 -108 -200q-452 -383 -337 -905h92q15 173 77 276q-58 54 -62 123q177 153 184 337l108 31q61 180 169 292q0 180 61 322q-54 61 -61 123h-62h-46q-92 19 -169 15h-46h-46h-46h-169h-153 q-127 -211 -92 -414z" />
<glyph unicode="8" horiz-adv-x="1506" d="M125 1002q112 -62 108 -170l62 46v-92q-232 -158 -247 -417q54 -62 93 -93q-112 -108 46 -139v-77q104 -8 154 -77l139 31l-15 108q-120 35 -232 15v93q-227 147 62 510h139q139 -24 231 -16l16 -108q181 -104 62 -185q77 -186 -186 -309v-46q93 -24 170 -16 q367 425 -62 757q66 42 124 61q-27 51 -31 93q147 108 62 247q-81 301 -386 278q-317 -93 -309 -494zM634 1156q70 -65 -15 -108q19 -38 46 -15q-38 -89 -92 -139q-151 -73 -216 77q-116 0 -108 108l-47 16q66 185 216 216l16 46q262 -50 200 -201z" />
<glyph unicode="9" horiz-adv-x="1515" d="M103 863q101 -86 135 -195q320 -76 557 45l46 -75q-166 -403 -543 -467q-75 -83 -60 -181q429 49 557 422q162 120 121 301l30 -15q83 245 -30 422q-8 350 -407 376q-467 -166 -406 -633zM585 1270q52 -79 150 -75q234 -520 -361 -407q-57 106 -121 166q-19 245 166 316 q90 -7 166 0z" />
<glyph unicode=":" horiz-adv-x="1403" d="M130 1005q110 -101 165 -202q91 42 146 55l128 55q5 101 55 165q-50 100 -55 219q-151 78 -311 55q-155 -155 -128 -347zM57 529q64 -371 366 -421q68 151 201 201q-32 110 0 238q-174 137 -329 147q-101 -138 -238 -165z" />
<glyph unicode=";" d="M513 1303q-15 -150 -47 -252q59 -56 63 -127l48 -15h47q146 31 253 15l16 111q63 122 47 237q-103 146 -253 142q-79 -87 -174 -111zM608 372q-55 -182 -31 -332q114 8 189 32q372 612 -63 789q-407 -308 -95 -489z" />
<glyph unicode="&#x3c;" horiz-adv-x="636" />
<glyph unicode="=" horiz-adv-x="636" />
<glyph unicode="&#x3e;" horiz-adv-x="636" />
<glyph unicode="?" d="M455 1479q-91 -78 -190 -76v-56q-162 -146 -208 -322q379 -218 379 246h57q113 31 208 38q96 -45 113 -133q290 -61 -303 -454v-209q91 -19 152 -19q54 141 57 247q503 137 322 606q-154 44 -228 151h-208q-73 -23 -151 -19zM663 2q171 90 151 284q-181 94 -340 76 q-230 -354 189 -360z" />
<glyph unicode="@" horiz-adv-x="579" />
<glyph unicode="A" horiz-adv-x="1498" d="M540 1488q-1 -174 -75 -298q18 -136 -56 -223q-15 -414 -167 -708q-175 -9 -224 -150q406 -182 671 0q10 209 -224 205l56 19h112q70 52 149 56v-56q-22 -64 0 -112q-37 -70 -37 -149q388 -180 596 37q-52 202 -261 205l-37 261q-100 201 -112 392h-112q33 51 75 74 q-6 67 -56 93q42 365 -261 373q-19 -22 -37 -19zM782 818q16 -43 0 -75q-41 -89 -56 37h-130l18 56q74 -28 168 -18zM912 333q-55 -86 -111 0h111z" />
<glyph unicode="B" horiz-adv-x="1501" d="M433 1231q44 -101 124 -158q62 61 88 141q84 13 124 70l53 -70q167 -5 282 -53q27 -102 35 -177l-70 -106q-146 18 -159 -106q18 -198 212 -123l53 -53q79 -133 35 -265q80 -22 141 -18q71 265 -141 406q66 173 71 301q70 286 -195 300l-17 70h-53h-71h-300h-53 q-124 27 -212 18q-362 -159 53 -177zM521 1055l-35 -53q27 -102 18 -194q17 -168 -36 -283q45 -203 18 -353q-176 53 -265 -88q239 -159 477 -18q516 -221 600 194l-53 18q-145 -62 -264 -35q-204 -80 -371 -36q66 137 53 283q-14 137 -71 229q71 53 124 0q35 80 123 53 q27 22 36 53l-283 18q40 124 0 212h-18h18h-35h17h-35h18h-36h18h-18z" />
<glyph unicode="C" horiz-adv-x="1504" d="M975 1439q-732 108 -791 -413q-166 -494 144 -844l18 -36q76 -63 108 -144q139 0 233 -18q27 18 54 18q135 4 234 36q103 148 234 215q112 301 -144 360l-36 -36q-41 -54 -36 -108l-162 -251q-193 -9 -323 18l-18 107q-189 95 -162 306l-36 -36q-13 305 144 521 q413 314 503 -198q103 -22 180 -72q13 113 72 198q-45 81 -36 162q85 80 36 179q-72 72 -144 90z" />
<glyph unicode="D" horiz-adv-x="1505" d="M18 1330l307 -72q-63 -316 36 -451q-13 -32 -36 -36l-18 -55q13 -275 -18 -451q-257 13 -253 -217l253 -36q144 23 253 -18q162 90 325 54q49 45 108 72q41 50 90 73q28 81 91 126l-36 145q103 40 72 361l54 18l-18 126q-32 18 -36 36q-54 231 -163 380q-122 27 -198 90 h-199h-54l-90 18h-55l-36 -18l-289 18q-72 -90 -90 -163zM903 1132q153 -59 126 -217q172 -190 18 -379q64 -118 -90 -145q-226 -176 -469 -108l-19 54q28 18 37 36l-37 73l37 36v72l-18 126l-19 109q59 103 0 198q28 86 0 163q95 126 217 180q163 -54 217 -198z" />
<glyph unicode="E" horiz-adv-x="1490" d="M1000 1456l-74 19q-194 -10 -313 -37q-148 23 -259 0q-138 37 -240 18q-32 -51 -73 -74l18 -92q171 46 277 -37q-32 -332 147 -571q-230 36 -147 -461q-318 41 -295 -185q32 -18 37 -37q170 46 332 0l36 37h74h148h55l129 -18q208 -46 369 -19l56 74q0 88 37 148 q-10 27 18 55q-55 147 -37 276l-147 37l-111 -73q0 -74 -56 -111q139 -231 -498 -203q-50 125 37 166l-18 74l-37 -37q28 120 148 92q-74 19 -93 74q208 28 351 0q32 55 74 92q-56 175 -19 332l-147 55q-74 -184 -148 -147q-37 -134 -185 -111q56 171 19 314l18 129 q342 -83 130 55h129q166 -37 295 0q4 -101 74 -147q-65 -139 73 -185q42 51 93 74q64 383 -203 461q-33 -32 -74 -37zM889 350q65 13 19 55z" />
<glyph unicode="F" horiz-adv-x="1499" d="M71 1382q93 -38 148 -93q84 37 149 -19q-9 -111 18 -204q-65 -363 38 -651q-61 -116 -56 -204q-335 -9 -297 -167q223 -89 408 0q358 -172 316 167h-130q-9 88 -149 111q140 52 242 38q79 93 186 93l18 55q-23 130 0 223q-28 149 0 279q-102 32 -111 111q-307 5 -335 130 q51 -9 56 -55h130q79 139 334 74q38 -65 93 -93q-28 -200 167 -223q84 284 -37 520l-315 19q-330 -65 -613 0q-200 0 -260 -111zM795 1028q-344 -18 -56 75q42 -28 56 -75zM665 954q-42 -111 -56 0h56zM739 936q70 -33 -18 -38zM665 583q232 -14 -130 -149q-9 135 0 223 q107 14 130 -74z" />
<glyph unicode="G" horiz-adv-x="1499" d="M91 901l-73 -36q60 -78 73 -147q-13 -399 276 -624q68 -37 91 -110h55l37 18q193 -9 330 19l92 55q114 -74 220 -55l37 91l-19 37l-18 55v55q-78 161 -92 294q175 64 147 202h-55q-92 0 -147 18h-55q-128 -32 -220 -18q-188 -78 18 -166q166 42 184 -128 q-138 -96 -165 -220q-326 -101 -440 147q-230 243 -37 770q518 335 587 -202l110 -18l73 73q-36 216 92 331v110q-174 82 -238 -37l-56 -18q-229 128 -440 91q-325 -238 -367 -587z" />
<glyph unicode="H" horiz-adv-x="1505" d="M54 1418l18 -187q68 28 126 0l36 -75l-36 -74q23 -131 54 -206l-54 -131q27 -70 36 -131q-40 -187 -18 -337q-180 -56 -198 -224q41 -37 54 -75q126 66 144 -56q113 56 216 56v75q63 -5 90 -56l72 56q118 9 181 -56q162 33 306 -19q63 75 126 19l18 131 q-162 219 -162 449q-99 168 36 280v150q-81 42 -90 131q121 60 216 56q-18 140 -54 243q-144 -9 -252 37q-325 -75 -577 19q-144 -98 -288 -75zM703 1381l-36 -150q333 -285 108 -262q-5 -261 -397 19q68 243 216 411q55 -46 109 -18zM793 670q63 -266 -54 -112l-18 -112 q144 -103 -72 -169l-37 -74q50 -131 -252 112l72 131q-36 196 144 224h217z" />
<glyph unicode="I" horiz-adv-x="1497" d="M72 1252q194 -48 345 -18q48 -107 17 -206q78 -130 18 -259q107 -254 -18 -500q-379 82 -310 -207q39 -21 52 -51l17 34h138q95 -60 190 -34l51 51q272 -30 483 18v172l-138 17h-276l17 35q-21 263 35 465q-69 246 -17 448q189 69 345 35q34 94 34 172l-69 35h-52l-34 17 q-341 -56 -604 17q-245 -52 -224 -241z" />
<glyph unicode="J" horiz-adv-x="1490" d="M442 1331q153 -104 306 -90q9 -45 0 -72l18 -54v-90l18 -54l-18 -54q27 -68 18 -144q9 -113 0 -163q58 -103 36 -216q-95 -121 -198 -162q-383 -54 -234 360q-95 99 -180 126q-190 -288 18 -612q180 -49 288 -108q135 68 252 72q72 63 126 90v54l36 36q13 99 0 198 q27 18 36 36v72v72v54v73v324l18 144q351 54 216 252l-36 -18l-126 18q-234 -23 -396 18q-171 -27 -198 -162z" />
<glyph unicode="K" horiz-adv-x="1517" d="M1287 1482q-136 -2 -219 -19q-82 -80 -183 -73q-288 139 -586 55q-49 -205 201 -220v-91q18 -138 0 -238l18 -73q2 -186 -18 -311l18 -275q-102 -23 -201 -18q-254 -336 549 -183l19 36q-50 74 -55 147q-146 -8 -202 91v147q48 98 55 219q319 34 293 -274q276 -62 0 -293 l18 -92h55l74 -18q219 52 402 18q47 108 37 202q-135 11 -220 0q-179 168 -219 366q-22 18 -19 36q-101 89 -146 183q152 462 586 513q-34 170 -220 183q-18 -21 -37 -18zM1031 1280q-78 -250 -275 -329q26 -137 -109 -147q-33 13 -37 37l73 55q-44 181 -18 329 q158 84 238 147q81 -36 128 -92z" />
<glyph unicode="L" horiz-adv-x="1517" d="M116 1445l-35 -90q44 -196 299 -128l-17 -72v-182l17 -55v-218l-17 -36l17 -55q-35 -213 0 -381q-180 -37 -299 -37q4 -100 -18 -145l88 -73q146 28 247 -36l53 36l53 19l70 -19l71 19h53h70h53h53h177l158 18l71 218q44 227 -53 418q-221 -73 -141 -400l-88 -91 q-221 -9 -406 73l-18 54l18 73q-22 132 0 236l-35 109l35 73q-31 254 35 454q252 -4 247 218l-53 19q-286 -28 -493 36q-106 -64 -212 -55z" />
<glyph unicode="M" horiz-adv-x="1520" d="M38 1363q98 -24 156 -98l-19 -97l19 -59q20 -157 -19 -274l39 -215q-15 -220 0 -352q-152 -69 -137 -215l137 -39l59 -20l156 39l39 -19h59l137 39q93 -10 176 19q122 -73 235 -58q166 48 293 -20v176l-39 20l-98 78v78q5 117 -39 215v78v59v59q68 274 39 508 q93 49 117 137q-229 78 -430 0l-19 -58l-20 -79l-20 -117q-9 -142 -97 -215q34 -176 -20 -313l-117 59l19 78q-73 230 -156 371q10 137 0 235l-313 137q-98 -64 -137 -137zM1055 952v-684l-137 -39q-73 425 98 782zM410 698q58 -103 78 -195q112 -93 117 -313l-137 -20 l-19 39l-98 157q39 293 0 489q49 -79 59 -157z" />
<glyph unicode="N" horiz-adv-x="1502" d="M73 1362q341 -9 284 -531l114 19q57 99 152 76q-28 204 76 341q-128 71 -114 209h-57q-171 52 -303 38q-162 -19 -152 -152zM851 1381q99 -47 133 -152q57 48 114 57q-48 -109 -57 -208q189 -204 151 265q219 -19 171 152h-152h-57h-246zM718 1021q43 76 -38 95zM680 893 q238 -183 73 109zM1060 755q57 -71 19 -152h94q57 180 -37 285zM376 793q-71 -109 0 -190q-104 -99 -19 -190q-61 -104 -57 -208q-113 4 -208 -19q33 -67 0 -133q33 -19 38 -57h57q199 24 341 0q95 57 152 76q-38 147 -228 190q52 303 -57 531h-19h19h-19zM832 527 q109 15 152 95q-128 19 -133 133h-76q57 -104 57 -228zM1136 546l-57 -38q23 -161 -152 -76q71 -185 57 -341q393 -199 170 455h-18h18h-18z" />
<glyph unicode="O" horiz-adv-x="1520" d="M64 713l56 -56q-79 -380 356 -675q736 -9 732 675v56l37 37q-28 174 0 300q-28 -4 -56 19l-19 112l-37 19q-24 19 -19 38l-38 18q-117 146 -206 225q-94 0 -150 19h-75q-511 -84 -581 -787zM889 1125l112 -19l-18 -93q201 -422 -113 -787l-94 -19q-501 47 -487 525 l-75 93q56 164 169 225q-5 108 37 188q136 14 188 93q295 33 281 -206z" />
<glyph unicode="P" horiz-adv-x="1527" d="M63 1404q72 -62 96 -133q133 0 229 -20q33 -148 -19 -267q33 -91 0 -172q81 -187 19 -344q52 -91 -19 -134q33 -81 19 -153q-249 29 -325 -153q153 -76 268 0q172 -91 477 0v96l-114 38q-105 -24 -172 19q47 196 19 344q81 53 153 77q291 -77 535 57v76q258 201 57 574 q-100 52 -153 134l-76 -19q-91 4 -172 57q-153 -10 -268 19q-229 -38 -401 0zM808 1309q115 38 210 19l58 -134q200 14 95 -344q-157 -201 -382 -134q-105 -148 -267 19l19 134v134q52 153 19 287q76 4 115 57z" />
<glyph unicode="Q" horiz-adv-x="1543" d="M694 1554q-192 40 -269 -100q-160 -24 -165 -159l-104 -20l-20 -60v-80l-21 -119q-26 -95 0 -160q-52 -115 -41 -220q124 -578 682 -678q20 -314 330 -339l104 -20q186 239 165 499l-41 20q-99 55 -186 79q20 180 165 240q-5 120 -62 199q145 569 -331 918h-144l-42 100z M714 1375q-51 -115 -82 20zM673 1255q429 65 372 -399q46 -494 -227 -379l-83 100q-196 -5 -331 -100l21 80q-191 10 -83 199q-77 190 0 359q-31 120 83 80l21 160q134 -30 227 -100zM549 237l83 60q268 -169 -83 -60zM1128 138q-104 -125 -62 20z" />
<glyph unicode="R" horiz-adv-x="1520" d="M612 1462h-56q-93 0 -149 19q-178 -47 -299 -56q61 -89 205 -113q10 -60 -18 -93q42 -193 37 -319l56 -19q-37 -108 -37 -187q107 -29 168 -57q466 66 448 -600q210 -108 373 -18q-14 220 -224 206q19 239 -149 356q121 150 280 206q32 99 74 150q-93 572 -597 507 l-75 56zM705 1312q122 33 224 19q66 -108 168 -131q19 -586 -578 -450q-164 -28 -75 169q-23 262 112 431q84 -14 149 -38zM52 169q5 -150 355 -132q149 -37 261 0q-5 164 -187 150q-84 164 0 300l-130 113q51 -436 -299 -431z" />
<glyph unicode="S" horiz-adv-x="1523" d="M855 1443q-575 156 -698 -320q5 -99 0 -151q95 -80 76 -189l151 -56l19 37l56 -56q264 19 453 -95q38 -184 -19 -339q-174 -99 -339 -95q-175 260 -416 359q-9 -43 -37 -57l37 -19l-75 -415q99 -14 170 19q-71 10 -19 95h94q330 -288 680 -38q99 -14 151 0q14 94 75 151 v56v57q-61 141 -75 245q-151 57 -246 151q-104 5 -188 38q-151 9 -189 132q-71 -38 -151 -19q-19 61 0 113q-80 66 38 132q66 227 339 132q80 -316 321 -283q-5 175 76 283q-85 137 -208 189z" />
<glyph unicode="T" horiz-adv-x="1517" d="M116 1442q29 -130 19 -231l174 19q-5 183 135 135q62 -10 115 0q-5 -145 97 -212q-15 -116 -58 -193q96 -265 0 -463l38 -308q-178 -39 -308 19q-68 -91 -58 -193l77 -19h77q155 5 270 58q222 -97 424 -19q24 207 -327 154l19 58q-106 352 -19 655l96 -77v154 q-241 -110 -154 251l77 -58q149 58 289 58q43 -164 -38 -289q57 -92 77 -174q226 48 135 463q72 29 96 77q-130 68 -174 193q-327 -82 -520 0q-217 -53 -386 0q-96 -58 -173 -58zM212 941q140 -44 154 58q-154 82 -231 192q-72 -544 77 -250z" />
<glyph unicode="U" horiz-adv-x="1501" d="M48 1431v-93q139 -14 223 -74l-19 -93v-149q20 -108 -18 -204l37 -93l-19 -74q32 -173 0 -315l19 -112q75 -52 93 -130h55l56 -18q127 -70 241 -93q149 51 223 148q93 -33 167 0l-37 260l18 56v93v74v93q-18 111 19 204q-24 105 -19 186q-1 234 223 260q-20 202 -538 129 l-56 -74q40 -120 149 -148q32 -171 0 -297q19 -130 55 -204l-37 -56q26 -136 -18 -223q12 -118 0 -204l-130 -130q-456 37 -297 1095q179 80 204 223l-37 18h-56h-56l-55 19q-127 -23 -223 0q-114 -24 -167 -74z" />
<glyph unicode="V" horiz-adv-x="1503" d="M384 1456q-199 0 -336 -36q9 -190 195 -194q0 -151 106 -213q0 -128 -18 -212l53 -35l18 -124l18 -124q35 -9 35 -36q36 -97 18 -194q71 -133 88 -266l71 -35q128 62 195 159v71l18 124l53 71q8 314 141 566q-9 137 36 230q84 31 159 18l53 177q-217 190 -584 17v-106 q230 -199 53 -442q58 -336 -106 -443q31 -93 17 -177q-132 155 -70 319q-76 97 -53 212q-133 111 -107 266q-84 199 107 247v142l-142 53z" />
<glyph unicode="W" horiz-adv-x="1494" d="M23 1349q135 -116 204 -204l-18 -75v-92l37 -75v-92l-19 -56v-56q23 -18 19 -37v-74q14 -33 37 -37v-260l18 -37q-14 -121 0 -204q339 -190 297 371l75 56q-5 125 111 148q107 -185 56 -352q74 -116 74 -242q144 -92 260 0q-19 344 92 594l-55 37q9 598 241 649l-19 112 q-181 0 -315 74l-111 -74l-19 -74q195 -89 111 -650q-83 -9 -111 -74q-116 144 -74 278h-93q32 33 74 37q-111 93 -204 149q-37 -88 -148 -93q79 -162 0 -297l-149 -18q-18 134 37 222q-102 126 -148 223q79 74 74 167q107 42 74 148q-199 0 -334 56zM747 755l37 74l18 -130 q-153 -23 -111 130zM468 606q112 -18 -18 -37z" />
<glyph unicode="X" horiz-adv-x="1500" d="M843 1513l-54 -90q117 -247 0 -288q36 -184 -72 -126q23 -85 -53 -107l18 125q-144 108 -180 234q63 63 126 72l-18 36l-36 108h-72l-36 18q-216 -54 -378 -36q27 -117 72 -198q108 41 198 18v-72q153 -162 198 -323q99 -5 161 -54l-35 -54l-162 -144q-23 -117 -108 -162 q-23 -130 -72 -216q-216 -9 -306 -162q324 -152 612 -36v90q-216 99 89 414q248 -207 54 -378v-144q509 -125 558 108q-85 140 -234 108v54q-108 68 -162 162q-18 126 -144 126l54 18q-94 94 0 180q9 166 144 233q50 248 270 234l36 54q-49 122 -108 198q-166 -27 -288 0 h-18h18h-36h18h-36h18h-36h18h-18z" />
<glyph unicode="Y" horiz-adv-x="1499" d="M49 1278q27 -48 35 -87q148 39 262 -35l17 -244q131 -87 122 -226q140 -131 87 -471q-331 161 -348 -140q52 -30 69 -69l53 17q274 -48 471 -17l69 52q88 -17 157 -17q13 74 70 87q-139 200 -366 139q9 493 261 854l18 122q139 -21 244 18q-22 96 -17 174 q-127 44 -210 53l-17 -35h-52l-53 17q-375 -61 -697 35q-201 -52 -175 -227zM642 825q-26 9 -35 35q-26 179 -122 296q131 61 175 140q331 -109 -18 -471z" />
<glyph unicode="Z" horiz-adv-x="1500" d="M127 1302q-74 -74 0 -129q-79 -194 92 -259q111 208 74 406h148l55 -18q194 41 332 0q-92 -115 -92 -240q-138 -37 -166 -166l-74 -37l-18 -129l203 73l-56 37l111 19q5 46 18 74l56 55v55l92 93l37 37l19 37q115 124 147 221q-134 69 -258 74q-102 -134 -554 0 q-203 -69 -166 -203zM958 545q36 -226 -148 -296q-263 -23 -425 37q5 204 148 296v74l-74 37q-46 -102 -148 -130q-55 -120 -147 -166q-19 -92 -74 -148q28 -106 0 -203q138 -13 221 -55l56 37l74 18h55h203h55l370 19l55 111l-18 73q32 250 0 425l-111 37z" />
<glyph unicode="[" horiz-adv-x="282" />
<glyph unicode="\" horiz-adv-x="318" />
<glyph unicode="]" horiz-adv-x="312" />
<glyph unicode="^" horiz-adv-x="330" />
<glyph unicode="_" horiz-adv-x="490" />
<glyph unicode="`" horiz-adv-x="357" />
<glyph unicode="a" horiz-adv-x="1509" d="M362 695v-70q-109 -75 -175 -141q28 -193 0 -350q399 -286 701 -18h106l35 -70q136 -4 245 -53l70 88q0 228 -210 211l-53 87q106 372 -70 667h-52l-123 17l-53 18l-315 17q-396 -217 -106 -403zM660 379q46 35 71 70q75 -122 -71 -70zM433 274q41 77 105 105 q229 -125 -105 -105z" />
<glyph unicode="b" horiz-adv-x="1489" d="M33 1323q58 -139 216 -162l18 -90q-9 -139 54 -252q-90 -278 18 -503q-32 -54 -72 -90q67 -72 0 -162l54 -72h54l126 36l107 -18q203 -40 360 0q247 373 162 755q-76 108 -90 216q-265 140 -414 18h-161q13 167 90 270q-77 63 -54 144q-32 18 -36 36q-126 9 -216 54 q-162 -40 -216 -180zM932 370q-31 -180 -198 -180q-233 112 -144 342q-152 -50 -35 36q-59 31 -54 90q36 -9 54 -36q94 9 89 90q144 -18 270 18q140 -185 18 -360z" />
<glyph unicode="c" horiz-adv-x="1495" d="M356 1081l34 -35l-121 -34q-60 -121 -138 -173l-17 -34l-69 -311q60 -99 69 -207l69 -35l-52 -52q255 -250 552 -207q453 147 225 501l-104 -35q30 -181 -138 -138q-60 -60 -138 -52q-375 164 -138 501q276 104 345 -173q285 -8 224 225q-94 289 -465 276 q-65 -26 -138 -17z" />
<glyph unicode="d" horiz-adv-x="1509" d="M507 1214q38 -17 51 -51q191 9 170 -187q-132 21 -204 85q-110 -72 -187 0q-55 -59 -119 -68q-30 -68 -85 -102q-13 -119 -51 -204l-34 -119l34 -51l-17 -51q17 -26 17 -51l34 -17q43 -191 102 -323h51l255 -85q234 123 459 34l85 34q43 94 -34 153q-55 55 -136 51l34 85 l-34 51q-13 94 34 170q-4 136 17 238l-17 34v136l17 340q-68 68 -85 153q-183 4 -306 34q-212 -132 -51 -289zM609 517l-17 -51q123 -264 -221 -221q-42 85 17 153l-119 51q64 68 119 102l17 51q136 -21 221 51q208 -161 -17 -136zM541 466h-51q13 -81 51 0z" />
<glyph unicode="e" horiz-adv-x="1509" d="M467 1046q-324 -78 -398 -485l52 -69q43 -286 242 -433v-52q308 -56 554 70v51q195 74 35 312q177 160 34 329q-142 329 -484 329q-31 -30 -35 -52zM727 734q-173 -199 -260 -69q-117 43 52 156q147 4 208 -87zM606 267q-122 13 -122 139q139 -13 243 51 q225 -56 -121 -190z" />
<glyph unicode="f" horiz-adv-x="1509" d="M473 1467q-71 -427 -338 -427q-31 -67 -71 -107q44 -133 320 -142l36 -107v-53q-22 -209 -18 -356q-187 4 -320 -71q9 -107 35 -178l125 -36h71l125 18l391 35l54 72q-76 178 -285 178l18 160q-174 418 231 409q-36 254 249 214q22 129 18 213q-125 196 -320 214h-36h-53 q-134 -36 -232 -36z" />
<glyph unicode="g" horiz-adv-x="1522" d="M796 1027q-439 80 -621 -248v-53q0 -89 18 -142v-89q-45 -239 -36 -390q-84 -62 -124 -142q18 -62 18 -124q102 -66 124 -159h142q151 -222 691 -36q5 45 18 71h89v195q80 138 -18 284q-137 22 -213 88q-146 -48 -230 54q35 102 142 53q26 115 106 177q13 98 53 177 q164 -53 284 18q0 155 -35 266q-165 18 -284 71h-36h36h-36q-40 -53 -88 -71zM707 690q-71 -71 -142 -106q-133 -40 -142 71q-4 128 124 159q142 0 160 -124zM618 70q147 75 266 -89v-142h-53l-35 18l-213 -35q-89 4 -142 35l-124 -18v178q137 -49 159 88l107 18 q40 -13 35 -53z" />
<glyph unicode="h" horiz-adv-x="1509" d="M53 1329l52 -87q78 -17 122 -69v-174l17 -53v-399l18 -53l-18 -226q-148 -26 -191 -156q191 -174 504 -105q9 100 35 157l-87 174q-78 -57 -139 0q9 117 122 87q-274 139 330 208q26 -156 -104 -173q61 -283 -104 -261l-18 -105q83 -43 122 -104q200 30 348 0 q30 57 87 70v52l52 69q-48 135 -226 105q91 404 -35 747q-122 22 -209 70q-65 -43 -139 -35q-56 -100 -156 -139l-35 -69q-4 108 69 173q-130 79 -17 192q-22 95 -17 174q-57 4 -53 69l-121 35q-166 -26 -209 -174zM679 355l-69 18q-5 -183 69 -18z" />
<glyph unicode="i" horiz-adv-x="1504" d="M343 1110q-310 -36 -278 -294q151 -41 278 -33l66 -114q-13 -147 32 -262q-102 -180 -294 -82q-37 -45 -82 -65q-28 -135 17 -229h49q286 0 474 -49l49 33q220 -13 376 16l65 164l-33 16q-32 78 -81 131q-127 -78 -246 33l-65 -17l-16 49v66l16 49v65l-16 33l16 49 l-16 327q-58 33 -66 98q213 78 82 245l33 99q-123 12 -196 65q-237 -168 -164 -393z" />
<glyph unicode="j" horiz-adv-x="1509" d="M636 1485q-88 -96 -176 -140q13 -216 176 -264v-53q-409 132 -475 -246q84 -18 141 0l281 -18q84 -202 70 -386q-52 -101 0 -176q-70 -136 -17 -282l-70 -17q57 -35 52 -106q-162 -26 -281 18q40 53 105 70q-65 110 -87 194q-141 22 -246 0l-18 -35q-31 -225 53 -405 l-35 -35q386 -110 667 53q49 162 36 299q17 30 52 35q-4 198 -52 334q65 347 0 615l-18 88q119 167 123 352l-35 -35q-62 149 -211 158q-18 -22 -35 -18z" />
<glyph unicode="k" horiz-adv-x="1503" d="M37 1340q17 -162 206 -154q18 -100 -17 -189q29 -70 17 -138l-17 -51q52 -298 0 -516q-116 -23 -189 -68v-172q103 -6 189 -35q94 8 172 -34q149 41 241 52q28 -18 34 -35l51 17q352 -44 602 35q0 136 -52 240q-388 -15 -481 344q103 80 155 172q186 3 309 68l17 121 l-17 17l17 -17l-17 17v34q-399 57 -722 -68l35 -52l-86 17l-17 52l-18 137q34 159 0 275l-206 86q-142 -59 -206 -155zM535 842q-64 -91 -68 0h68zM432 670l17 52q61 -33 -17 -52zM621 172l-17 69q-157 76 -34 206q160 -117 51 -275z" />
<glyph unicode="l" horiz-adv-x="1498" d="M59 1267q18 -27 18 -53l123 -18q149 18 263 0l18 -70l-18 -70q9 -132 0 -211v-53l35 -105q-17 -84 -17 -141q22 -167 0 -281q-132 -52 -281 0q-105 -92 -123 -193q250 -123 474 -53q325 -74 562 53q18 88 0 158q-171 -9 -298 35l-106 -35l-17 70q4 49 0 71v193v193l17 70 v53v70l35 36q0 87 18 140q-26 141 0 264q-220 118 -404 105q-321 18 -299 -228z" />
<glyph unicode="m" horiz-adv-x="1504" d="M434 1033l-51 -17q-147 51 -260 51q-30 -64 -86 -86q52 -125 155 -173q-47 -233 -17 -414l-34 17l-104 -242q104 -69 155 -121q199 26 346 -17q315 52 553 -52q86 52 155 69v52q44 73 35 138q-73 69 -121 104q0 86 -17 138q26 186 0 328q30 164 -52 294h-138h-52 q-99 -69 -207 -69q-95 82 -208 69zM486 601q151 0 69 -138q18 -182 -190 -173q-65 91 -52 207q26 173 156 156v103q91 -34 17 -155zM901 705l-17 -35q43 -203 0 -363q-134 18 -87 156q-56 134 52 242h52z" />
<glyph unicode="n" horiz-adv-x="1495" d="M88 966v-135q271 -51 135 -288q94 -233 -152 -322l-34 -68q229 -199 475 -101q8 97 33 169q-245 254 34 440l-67 51q84 5 135 34l17 -51l17 -34l34 -101q106 -47 136 -153q-43 -50 -34 -101q-77 12 -102 84q-85 -194 -51 -372q259 -64 509 0v50q21 123 0 221l-136 17 q-17 114 0 203q51 318 -136 542l-101 17q-161 -76 -288 -102q-157 94 -272 136q-118 -38 -152 -136z" />
<glyph unicode="o" horiz-adv-x="1495" d="M346 999l-120 -52q-56 -81 -120 -120q-5 -138 -69 -206l52 -69v-52q-48 -94 -35 -206q155 -138 207 -275q545 -138 756 378l-17 69q21 228 -17 395l-52 17q-39 43 -52 86l-34 18l-34 17l-207 103h-103q-94 -47 -155 -103zM501 689q172 35 224 -137q17 -215 -207 -241 q-30 -86 -103 69v-17v17v-17q-120 8 -103 103q-47 8 -69 34q35 129 18 224l189 34q38 -26 51 -69z" />
<glyph unicode="p" horiz-adv-x="1505" d="M262 838q145 -57 263 -70l-17 -88q17 -26 17 -53v-158l18 -70q-31 -269 0 -440l-53 -35q-453 -260 -35 -352q66 53 141 53q101 -62 211 -53q233 66 105 264q-22 -27 -35 17l-53 71q-114 -132 -105 123h53l17 -35h53l53 -36q132 14 228 -17q75 97 176 123l18 106 q114 211 88 404q-110 664 -510 404l-211 -17v53q-181 26 -299 70q-137 -106 -123 -264zM1159 574q-5 -101 -18 -175l18 -106l-71 35q-92 -246 -246 -35q-229 211 -18 422q220 18 335 -141z" />
<glyph unicode="q" horiz-adv-x="1504" d="M230 1048q-193 -322 -161 -627q201 -541 698 -358q45 -264 -197 -250l-18 -54q23 -18 18 -36q108 -89 144 -179h53q23 121 108 36q54 107 161 36q-27 89 18 143q-63 49 -143 54q18 134 -18 232q0 90 36 162l18 71l-36 143q58 215 18 394q26 41 35 108q-94 40 -107 125 q-81 -18 -90 -89l-340 143q-98 -67 -197 -54zM839 529q-85 -139 -54 -287l-161 18q-287 -282 -251 -18l-53 36q-139 282 107 502q246 18 412 -251z" />
<glyph unicode="r" horiz-adv-x="1507" d="M560 1001q-300 152 -489 0q46 -190 236 -186v-67q21 -17 17 -34v-388q-101 -29 -203 -33l-67 -34q0 -85 -17 -152l67 -67q228 25 405 -51h51q109 46 202 34q38 84 51 151q-17 85 0 152q-110 -33 -236 0q-118 430 269 489q17 -156 152 -185q101 84 152 185q-42 64 -34 135 l-33 17q-156 97 -270 135h-34q-126 -72 -219 -101z" />
<glyph unicode="s" horiz-adv-x="1490" d="M261 575l-123 -35q-26 -334 18 -545q127 4 228 53q273 -101 510 0q119 70 211 105q83 387 -246 510q88 52 176 0q87 259 -53 439q-295 -110 -563 0q-382 -206 -158 -527zM824 698q-233 -31 -194 105q158 5 194 -105zM806 259q-145 39 -176 -71l-17 71q-325 -44 -246 281 q808 -71 439 -281z" />
<glyph unicode="t" horiz-adv-x="1506" d="M272 1061q-144 40 -235 -91q45 -204 272 -163l36 -163l-55 -18q0 -90 -18 -145l55 -145v-126l36 -109l109 -90q380 -100 543 199q117 226 -145 253q-82 -231 -308 -235v72q-23 127 0 217q-23 145 0 254q113 -23 199 36q218 -50 290 145q-113 68 -163 163 q-181 -54 -308 -73l-36 55q100 176 -36 253q31 131 -109 145q-158 -190 -127 -434z" />
<glyph unicode="u" horiz-adv-x="1507" d="M798 1100l35 -34q-226 15 -241 -293q107 -50 138 -138q71 6 103 -34q-80 -97 -69 -207q-291 -217 -327 17q1 262 86 448h17h-17h34h-17h35h-18h18q-161 77 -52 155q-251 79 -465 17l-17 -120l207 -87q24 -168 -18 -292l52 -35l-52 -17q61 -174 18 -310l258 -172 q140 42 224 138q276 -190 516 -52q-64 100 -69 190l-172 34v52v51q28 15 34 35l18 69v51v52q-7 161 17 275q-28 71 -17 138l-172 69h-18h18h-35h17h-34h17h-34h17h-35h18h-18z" />
<glyph unicode="v" horiz-adv-x="1507" d="M41 860l33 -83q121 -12 183 -66l16 -67q137 -240 133 -481l67 -33l-34 -50q146 -108 299 -83q25 129 100 216q-17 203 99 348q-25 195 50 116q12 141 166 183q-4 95 -17 166l-49 33q-17 -21 -34 -17q-182 9 -315 -33l-50 33l-33 -33l-33 33q-187 -12 -315 17 q-229 -12 -266 -199zM472 730l161 141l125 -147l-127 -417z" />
<glyph unicode="w" horiz-adv-x="1498" d="M24 891q148 -160 261 -226v-121q26 -70 17 -139q9 -27 0 -53q78 -191 70 -347q386 -79 330 347q35 44 70 70q126 -165 121 -348l122 -69q69 56 139 69l17 174l-17 35q43 139 17 243l70 87q26 178 139 296q-39 104 -52 174q-213 34 -365 -53v-121q104 -109 35 -261 q-66 9 -122 -17q-226 456 -313 -87l-70 -18q-13 244 70 418q-74 56 -87 139q-100 0 -174 17q-235 -13 -278 -209zM998 578q-87 -226 -87 18zM998 352q-53 -13 -53 35z" />
<glyph unicode="x" horiz-adv-x="1497" d="M75 834q310 -53 496 -266q-22 -132 -142 -177q-71 -155 -230 -142l-89 -88v-142q324 -75 585 71v18v-18v18h53q111 -80 213 -89l35 -18l36 36q141 -5 248 35q-5 102 0 177q-355 23 -372 337q57 89 88 177q461 116 195 337q-279 9 -461 -71l-53 18l-142 35l-212 18 q-297 -62 -248 -266zM713 763q-45 -35 -89 18l53 53q89 -9 36 -71zM854 267q-44 -124 -159 -71q-22 85 53 124z" />
<glyph unicode="y" horiz-adv-x="1507" d="M1053 1082h-53q-191 -4 -320 -35q-333 71 -603 0l17 -196q147 -4 249 -53l-18 -35q93 -85 71 -196q182 -124 195 -337l89 -18q-146 -444 -390 -124h-107q-53 -107 -142 -160q93 -400 479 -355l54 88l71 -17q22 124 71 213q31 240 142 408l-36 54q125 186 125 373h53 q66 177 231 159l53 89l-53 124h-18h18h-18l-36 18l-71 18q-26 -18 -53 -18zM734 496l-71 -18q-14 89 0 142q-85 54 -54 143l-71 53l36 -18q89 62 177 71q200 -71 -17 -373z" />
<glyph unicode="z" d="M626 1054l-34 18l-35 -18l-52 -19q-202 33 -326 19q-129 -236 -69 -463q90 -41 172 -18q30 69 69 111q-48 240 275 148l-17 -56q-91 -101 -121 -203q-133 -83 -172 -185q-202 -97 -223 -278l-52 -18q13 -19 0 -37q82 -69 120 -148l121 37q120 -32 206 -19q237 102 448 37 l103 93q60 356 -86 444q-43 -32 -86 -37q4 -157 -35 -259l-68 37q-185 -79 -310 0q17 74 103 55q4 84 69 111q86 250 292 315q-4 102 52 148q-30 282 -327 222z" />
<glyph unicode="{" horiz-adv-x="420" />
<glyph unicode="|" horiz-adv-x="201" />
<glyph unicode="}" horiz-adv-x="360" />
<glyph unicode="~" horiz-adv-x="636" />
<glyph unicode="&#xa1;" horiz-adv-x="309" />
<glyph unicode="&#xa2;" horiz-adv-x="636" />
<glyph unicode="&#xa3;" horiz-adv-x="636" />
<glyph unicode="&#xa4;" horiz-adv-x="420" />
<glyph unicode="&#xa5;" horiz-adv-x="636" />
<glyph unicode="&#xa6;" horiz-adv-x="201" />
<glyph unicode="&#xa7;" horiz-adv-x="420" />
<glyph unicode="&#xa8;" horiz-adv-x="371" />
<glyph unicode="&#xa9;" horiz-adv-x="714" />
<glyph unicode="&#xaa;" horiz-adv-x="402" />
<glyph unicode="&#xab;" horiz-adv-x="540" />
<glyph unicode="&#xac;" horiz-adv-x="1395" />
<glyph unicode="&#xad;" d="M1110 735.5q14 -34.5 -138 -174.5q-31 -4 -73 4t-184 3q-302 10 -205 -7l-137 2q-14 42 8.5 107.5t86.5 73.5q30 3 67 -5q82 -16 177 -7t239.5 23.5t158.5 -20z" />
<glyph unicode="&#xae;" horiz-adv-x="747" />
<glyph unicode="&#xaf;" horiz-adv-x="360" />
<glyph unicode="&#xb0;" horiz-adv-x="285" />
<glyph unicode="&#xb1;" horiz-adv-x="636" />
<glyph unicode="&#xb2;" horiz-adv-x="300" />
<glyph unicode="&#xb3;" horiz-adv-x="300" />
<glyph unicode="&#xb4;" horiz-adv-x="462" />
<glyph unicode="&#xb6;" horiz-adv-x="450" />
<glyph unicode="&#xb7;" horiz-adv-x="207" />
<glyph unicode="&#xb8;" horiz-adv-x="321" />
<glyph unicode="&#xb9;" horiz-adv-x="300" />
<glyph unicode="&#xba;" horiz-adv-x="402" />
<glyph unicode="&#xbb;" horiz-adv-x="540" />
<glyph unicode="&#xbc;" horiz-adv-x="786" />
<glyph unicode="&#xbd;" horiz-adv-x="786" />
<glyph unicode="&#xbe;" horiz-adv-x="786" />
<glyph unicode="&#xbf;" horiz-adv-x="567" />
<glyph unicode="&#xc0;" horiz-adv-x="609" />
<glyph unicode="&#xc1;" horiz-adv-x="609" />
<glyph unicode="&#xc2;" horiz-adv-x="609" />
<glyph unicode="&#xc3;" horiz-adv-x="609" />
<glyph unicode="&#xc4;" horiz-adv-x="609" />
<glyph unicode="&#xc5;" horiz-adv-x="609" />
<glyph unicode="&#xc6;" horiz-adv-x="819" />
<glyph unicode="&#xc7;" horiz-adv-x="729" />
<glyph unicode="&#xc8;" horiz-adv-x="648" />
<glyph unicode="&#xc9;" horiz-adv-x="648" />
<glyph unicode="&#xca;" horiz-adv-x="648" />
<glyph unicode="&#xcb;" horiz-adv-x="648" />
<glyph unicode="&#xcc;" horiz-adv-x="234" />
<glyph unicode="&#xcd;" horiz-adv-x="234" />
<glyph unicode="&#xce;" horiz-adv-x="234" />
<glyph unicode="&#xcf;" horiz-adv-x="234" />
<glyph unicode="&#xd0;" horiz-adv-x="663" />
<glyph unicode="&#xd1;" horiz-adv-x="612" />
<glyph unicode="&#xd2;" horiz-adv-x="696" />
<glyph unicode="&#xd3;" horiz-adv-x="696" />
<glyph unicode="&#xd4;" horiz-adv-x="696" />
<glyph unicode="&#xd5;" horiz-adv-x="696" />
<glyph unicode="&#xd6;" horiz-adv-x="696" />
<glyph unicode="&#xd7;" horiz-adv-x="636" />
<glyph unicode="&#xd8;" horiz-adv-x="696" />
<glyph unicode="&#xd9;" horiz-adv-x="660" />
<glyph unicode="&#xda;" horiz-adv-x="660" />
<glyph unicode="&#xdb;" horiz-adv-x="660" />
<glyph unicode="&#xdc;" horiz-adv-x="660" />
<glyph unicode="&#xdd;" horiz-adv-x="526" />
<glyph unicode="&#xde;" horiz-adv-x="576" />
<glyph unicode="&#xdf;" horiz-adv-x="498" />
<glyph unicode="&#xe0;" horiz-adv-x="369" />
<glyph unicode="&#xe1;" horiz-adv-x="369" />
<glyph unicode="&#xe2;" horiz-adv-x="369" />
<glyph unicode="&#xe3;" horiz-adv-x="369" />
<glyph unicode="&#xe4;" horiz-adv-x="369" />
<glyph unicode="&#xe5;" horiz-adv-x="369" />
<glyph unicode="&#xe6;" horiz-adv-x="747" />
<glyph unicode="&#xe7;" horiz-adv-x="510" />
<glyph unicode="&#xe8;" horiz-adv-x="486" />
<glyph unicode="&#xe9;" horiz-adv-x="486" />
<glyph unicode="&#xea;" horiz-adv-x="486" />
<glyph unicode="&#xeb;" horiz-adv-x="486" />
<glyph unicode="&#xec;" horiz-adv-x="234" />
<glyph unicode="&#xed;" horiz-adv-x="234" />
<glyph unicode="&#xee;" horiz-adv-x="234" />
<glyph unicode="&#xef;" horiz-adv-x="234" />
<glyph unicode="&#xf0;" horiz-adv-x="483" />
<glyph unicode="&#xf1;" horiz-adv-x="384" />
<glyph unicode="&#xf2;" horiz-adv-x="366" />
<glyph unicode="&#xf3;" horiz-adv-x="366" />
<glyph unicode="&#xf4;" horiz-adv-x="366" />
<glyph unicode="&#xf5;" horiz-adv-x="366" />
<glyph unicode="&#xf6;" horiz-adv-x="366" />
<glyph unicode="&#xf7;" horiz-adv-x="636" />
<glyph unicode="&#xf8;" horiz-adv-x="366" />
<glyph unicode="&#xf9;" horiz-adv-x="342" />
<glyph unicode="&#xfa;" horiz-adv-x="342" />
<glyph unicode="&#xfb;" horiz-adv-x="342" />
<glyph unicode="&#xfc;" horiz-adv-x="342" />
<glyph unicode="&#xfd;" horiz-adv-x="393" />
<glyph unicode="&#xfe;" horiz-adv-x="348" />
<glyph unicode="&#xff;" horiz-adv-x="393" />
<glyph unicode="&#x152;" horiz-adv-x="954" />
<glyph unicode="&#x153;" horiz-adv-x="756" />
<glyph unicode="&#x178;" horiz-adv-x="526" />
<glyph unicode="&#x2c6;" horiz-adv-x="360" />
<glyph unicode="&#x2dc;" horiz-adv-x="483" />
<glyph unicode="&#x2000;" horiz-adv-x="827" />
<glyph unicode="&#x2001;" horiz-adv-x="1654" />
<glyph unicode="&#x2002;" horiz-adv-x="827" />
<glyph unicode="&#x2003;" horiz-adv-x="1654" />
<glyph unicode="&#x2004;" horiz-adv-x="551" />
<glyph unicode="&#x2005;" horiz-adv-x="413" />
<glyph unicode="&#x2006;" horiz-adv-x="275" />
<glyph unicode="&#x2007;" horiz-adv-x="275" />
<glyph unicode="&#x2008;" horiz-adv-x="206" />
<glyph unicode="&#x2009;" horiz-adv-x="330" />
<glyph unicode="&#x200a;" horiz-adv-x="91" />
<glyph unicode="&#x2010;" d="M1110 735.5q14 -34.5 -138 -174.5q-31 -4 -73 4t-184 3q-302 10 -205 -7l-137 2q-14 42 8.5 107.5t86.5 73.5q30 3 67 -5q82 -16 177 -7t239.5 23.5t158.5 -20z" />
<glyph unicode="&#x2011;" d="M1110 735.5q14 -34.5 -138 -174.5q-31 -4 -73 4t-184 3q-302 10 -205 -7l-137 2q-14 42 8.5 107.5t86.5 73.5q30 3 67 -5q82 -16 177 -7t239.5 23.5t158.5 -20z" />
<glyph unicode="&#x2012;" d="M1110 735.5q14 -34.5 -138 -174.5q-31 -4 -73 4t-184 3q-302 10 -205 -7l-137 2q-14 42 8.5 107.5t86.5 73.5q30 3 67 -5q82 -16 177 -7t239.5 23.5t158.5 -20z" />
<glyph unicode="&#x2013;" horiz-adv-x="684" />
<glyph unicode="&#x2014;" horiz-adv-x="894" />
<glyph unicode="&#x2018;" horiz-adv-x="1595" d="M776 1609q-122 -74 -119 -238q89 -103 71 -261l-23 -12q80 -139 142 -12q-18 104 0 262h36q3 62 0 154v59q-39 27 -107 48z" />
<glyph unicode="&#x2019;" horiz-adv-x="1595" d="M776 1609q-122 -74 -119 -238q89 -103 71 -261l-23 -12q80 -139 142 -12q-18 104 0 262h36q3 62 0 154v59q-39 27 -107 48z" />
<glyph unicode="&#x201a;" horiz-adv-x="234" />
<glyph unicode="&#x201c;" d="M448 1585q9 -113 -12 -190q24 -44 12 -83q44 -122 36 -226l11 -47q60 -18 107 -12q0 122 -12 202l36 59q-6 119 12 202q-39 95 -107 119zM828 1561v-59q-3 -92 0 -154h36q18 -158 0 -262q62 -127 142 12l-23 12q-18 158 71 261q3 164 -119 238q-68 -21 -107 -48z" />
<glyph unicode="&#x201d;" d="M448 1585q9 -113 -12 -190q24 -44 12 -83q44 -122 36 -226l11 -47q60 -18 107 -12q0 122 -12 202l36 59q-6 119 12 202q-39 95 -107 119zM828 1561v-59q-3 -92 0 -154h36q18 -158 0 -262q62 -127 142 12l-23 12q-18 158 71 261q3 164 -119 238q-68 -21 -107 -48z" />
<glyph unicode="&#x201e;" horiz-adv-x="402" />
<glyph unicode="&#x2022;" horiz-adv-x="387" />
<glyph unicode="&#x2026;" horiz-adv-x="792" />
<glyph unicode="&#x202f;" horiz-adv-x="330" />
<glyph unicode="&#x2039;" horiz-adv-x="321" />
<glyph unicode="&#x203a;" horiz-adv-x="321" />
<glyph unicode="&#x205f;" horiz-adv-x="413" />
<glyph unicode="&#x2122;" horiz-adv-x="681" />
<glyph unicode="&#xe000;" horiz-adv-x="1100" d="M0 1100h1100v-1100h-1100v1100z" />
</font>
</defs>
</svg>
