<?xml version="1.0" standalone="no"?>
<!DOCTYPE svg PUBLIC "-//W3C//DTD SVG 1.1//EN" "http://www.w3.org/Graphics/SVG/1.1/DTD/svg11.dtd" >
<svg xmlns="http://www.w3.org/2000/svg">
<metadata></metadata>
<defs>
<font id="gravitas_oneregular" horiz-adv-x="1689" >
<font-face units-per-em="2048" ascent="1638" descent="-410" />
<missing-glyph horiz-adv-x="756" />
<glyph horiz-adv-x="2048" />
<glyph horiz-adv-x="2048" />
<glyph unicode="&#xd;" horiz-adv-x="756" />
<glyph unicode=" "  horiz-adv-x="756" />
<glyph unicode="&#x09;" horiz-adv-x="756" />
<glyph unicode="&#xa0;" horiz-adv-x="756" />
<glyph unicode="!" horiz-adv-x="912" d="M457 564q-21 35 -46.5 72t-54.5 77q-39 55 -78.5 113.5t-71 120t-51 124t-19.5 124.5q0 68 25.5 117.5t69.5 81t102 46.5t124 15q64 0 122 -15t102 -46.5t69.5 -81t25.5 -117.5q0 -63 -20 -125.5t-51.5 -124t-70.5 -120t-78 -113.5q-28 -40 -53.5 -77t-45.5 -71zM197 231 q0 56 21 105.5t58 86t86 57.5t105 21q55 0 104 -21t86 -57.5t58 -86t21 -105.5t-21 -104.5t-58 -85.5t-86 -58t-104 -21q-56 0 -105 21t-86 58t-58 85.5t-21 104.5z" />
<glyph unicode="&#x22;" horiz-adv-x="960" d="M649 965q-8 56 -23.5 121t-33.5 134q-14 51 -26.5 101.5t-23 98t-16.5 91t-6 80.5q0 34 14 62t37.5 48t53 31t60.5 11t60.5 -11t52.5 -31t37.5 -48t14.5 -62q0 -37 -6.5 -80.5t-16.5 -91.5t-23.5 -98.5t-26.5 -101.5q-18 -69 -33 -133.5t-23 -120.5h-72zM239 965 q-8 56 -23.5 121t-33.5 134q-14 51 -26.5 101.5t-23 98t-16.5 91t-6 80.5q0 34 14 62t37.5 48t53 31t60.5 11t60.5 -11t52.5 -31t37.5 -48t14.5 -62q0 -37 -6.5 -80.5t-16.5 -91.5t-23.5 -98.5t-26.5 -101.5q-18 -69 -33 -133.5t-23 -120.5h-72z" />
<glyph unicode="#" horiz-adv-x="1480" d="M382 421h-259v124h292l84 316h-376v124h409l115 432h117l-115 -432h373l115 432h117l-115 -432h218v-124h-251l-84 -316h335v-124h-368l-112 -421h-117l112 421h-373l-112 -421h-117zM905 545l84 316h-373l-84 -316h373z" />
<glyph unicode="$" horiz-adv-x="1769" d="M184 544h67q30 -59 76 -126.5t111 -132t150 -119t193 -87.5v308l-24 7q-146 42 -254.5 96t-180 121t-107 148.5t-35.5 180.5q0 118 47 211t128 158.5t190.5 102t235.5 42.5v170h103v-172q29 -2 58 -5.5t59 -9.5v187h103v-212q73 -21 138.5 -51t113.5 -66l151 146h69v-435 h-63q-60 108 -164.5 193.5t-244.5 133.5v-290q115 -33 214 -74.5t172 -104t114.5 -151.5t41.5 -217q0 -101 -34.5 -192t-103 -162t-170 -117.5t-234.5 -58.5v-156h-103v152q-62 1 -117 9v-161h-103v182q-91 24 -176 69t-176 111l-170 -191h-75v563zM781 1378 q-27 -1 -58 -4.5t-58 -13.5t-45 -28t-18 -48q0 -72 179 -143v237zM884 1105q26 -8 55.5 -16.5t61.5 -17.5v289q-29 6 -58 10t-59 6v-271zM884 55q28 -5 57 -8t60 -5v285l-117 33v-305zM1104 44q30 3 60.5 9.5t55 18.5t40 31.5t15.5 47.5q0 44 -42 77t-129 65v-249z" />
<glyph unicode="%" horiz-adv-x="1861" d="M519 718q-110 0 -185 33.5t-121.5 87t-67 119t-20.5 129.5t20.5 129.5t67 118.5t121.5 86.5t185 33.5t185.5 -33.5t122 -86.5t67 -118.5t20.5 -129.5t-20.5 -129.5t-67 -119t-122 -87t-185.5 -33.5zM1555 1411l77 -79l-1309 -1309l-79 78zM519 787q43 0 66 25t33.5 67 t12.5 96t2 112q0 57 -2 111t-12.5 96t-33.5 67t-66 25q-42 0 -65 -25.5t-33.5 -67.5t-12.5 -95.5t-2 -110.5q0 -58 2 -112t12.5 -96t33.5 -67t65 -25zM948 331q0 64 20 129.5t66.5 118.5t121.5 86.5t185 33.5t185.5 -33.5t122 -86.5t67 -118.5t20.5 -129.5t-20.5 -129.5 t-67 -119t-122 -87t-185.5 -33.5t-185 33.5t-121.5 87t-66.5 119t-20 129.5zM1228 331q0 -58 2 -112t12.5 -96t33.5 -67t65 -25q43 0 66 25t33.5 67t12.5 96t2 112q0 57 -2 111t-12.5 96t-33.5 67t-66 25q-42 0 -65 -25.5t-33.5 -67.5t-12.5 -95.5t-2 -110.5z" />
<glyph unicode="&#x26;" horiz-adv-x="1866" d="M77 297q0 76 29 137.5t81.5 111t125.5 88t160 68.5q-37 45 -65 87.5t-47 84.5t-29 85t-10 89q0 79 32.5 152.5t96 130t157 90.5t215.5 34q53 0 109 -4t109 -15.5t99.5 -32t82 -53.5t56 -79.5t20.5 -109.5q0 -58 -17.5 -106.5t-49 -88.5t-75.5 -73t-96 -59 q69 -85 138 -162t135 -141l106 164q4 7 4 16q0 13 -13.5 21.5t-38 14t-58 8t-72.5 2.5v72h475v-72q-45 0 -75.5 -4t-51 -12.5t-34 -20t-23.5 -26.5q-39 -57 -76.5 -113t-75.5 -113q34 -31 63 -55t57 -40.5t55.5 -25.5t57.5 -9q54 0 88 33.5t34 102.5h64q9 -71 9 -130 q0 -103 -29.5 -175.5t-86 -118.5t-137.5 -67t-184 -21q-90 0 -166.5 23.5t-152.5 75.5q-35 -22 -78 -40.5t-97 -31.5t-120.5 -20t-147.5 -7q-128 0 -230 20.5t-174 61.5t-110.5 104t-38.5 149zM1020 885q35 31 62.5 69t46.5 79t29 84t10 85q0 33 -9.5 62t-27.5 51t-44 34.5 t-59 12.5q-27 0 -50.5 -13t-41.5 -35.5t-28.5 -53.5t-10.5 -67q0 -87 33.5 -164.5t89.5 -143.5zM477 529q0 -42 18.5 -91t49 -98t70 -94.5t82.5 -80t86.5 -55.5t81.5 -21t70.5 7.5t61.5 21.5q-47 40 -97.5 91t-107.5 115t-122 141t-140 168q-26 -21 -39.5 -46.5t-13.5 -57.5 z" />
<glyph unicode="'" horiz-adv-x="550" d="M231 1021q-31 130 -49 199q-14 51 -26.5 101.5t-23 98t-16.5 91t-6 80.5q0 34 14 62t37.5 48t53 31t60.5 11t60.5 -11t52.5 -31t37.5 -48t14.5 -62q0 -37 -6.5 -80.5t-16.5 -91.5t-23.5 -98.5t-26.5 -101.5q-18 -69 -33 -133.5t-23 -120.5h-72z" />
<glyph unicode="(" horiz-adv-x="980" d="M236 709q0 244 42 423.5t120 297.5t189.5 176t250.5 58v-69q-35 0 -60.5 -11.5t-43 -44.5t-29 -93.5t-17.5 -159t-8.5 -240t-2.5 -337.5t2.5 -338t8.5 -240.5t17.5 -159t29 -93.5t43 -44.5t60.5 -11.5v-69q-139 0 -250.5 58t-189.5 176.5t-120 298t-42 423.5z" />
<glyph unicode=")" horiz-adv-x="980" d="M142 -177q35 -1 60.5 10.5t43 44.5t29 93.5t17.5 159t8.5 240.5t2.5 338t-2.5 337.5t-8.5 240t-17.5 159t-29 93.5t-43 44.5t-60.5 11.5v69q139 0 250.5 -58t189.5 -176t120 -297.5t42 -423.5t-42 -423.5t-120 -298t-189.5 -176.5t-250.5 -58v70z" />
<glyph unicode="*" horiz-adv-x="1044" d="M522 737q-48 0 -77 29.5t-29 69.5t15 87t35 98q10 24 18 48.5t14 50.5q-18 -19 -35 -37.5t-33 -40.5q-15 -21 -35.5 -46.5t-44.5 -48.5t-50.5 -38.5t-53.5 -15.5q-23 0 -42 10t-33.5 26t-22.5 36t-8 41q0 40 26 64.5t63 38.5t77.5 20t68.5 9q25 3 50 8.5t50 13.5 q-47 14 -100 22q-33 4 -74 11t-76.5 21t-60 38t-24.5 63q0 22 8.5 42t23.5 35.5t34 25t40 9.5q24 0 50.5 -16.5t51.5 -40t46.5 -49t35.5 -43.5q17 -21 33.5 -40.5t34.5 -37.5q-7 25 -14.5 49.5t-17.5 49.5q-20 51 -35 98t-15 87t29 69.5t77 29.5t77 -29.5t29 -69.5 q0 -41 -16 -88t-36 -98q-19 -47 -31 -99q19 18 36.5 37t33.5 40q20 27 40.5 54t43 48.5t47.5 35t52 13.5q22 0 41.5 -10t34 -26t22.5 -36t8 -41q0 -38 -26.5 -62t-63.5 -38.5t-77 -21.5t-67 -11q-26 -4 -51.5 -9t-50.5 -13q26 -7 51 -11.5t51 -8.5q31 -5 71.5 -12.5 t76.5 -22t61 -38.5t25 -61q0 -22 -8.5 -42t-23.5 -35.5t-34 -25t-40 -9.5q-28 0 -55.5 16.5t-51.5 40.5t-43.5 50t-32.5 44q-15 21 -33 40t-36 36q11 -52 30 -98q20 -51 36 -98t16 -88q0 -40 -29 -69.5t-77 -29.5z" />
<glyph unicode="+" horiz-adv-x="1070" d="M473 591h-385v124h385v385h124v-385h386v-124h-386v-386h-124v386z" />
<glyph unicode="," horiz-adv-x="819" d="M137 255q0 51 21 96t56 78.5t82 52.5t100 19q63 0 115.5 -20t90.5 -58.5t59 -95.5t21 -131q0 -118 -38 -211t-100.5 -161.5t-143 -114t-166.5 -67.5l-29 39q77 29 129.5 72.5t84 88t45 84t13.5 60.5q0 26 -26 37t-65 17q-38 6 -81.5 15t-81 30.5t-62 61.5t-24.5 108z" />
<glyph unicode="-" horiz-adv-x="1075" d="M90 715h895v-124h-895v124z" />
<glyph unicode="." horiz-adv-x="813" d="M137 231q0 56 21 105.5t58 86t86 57.5t105 21q55 0 104 -21t86 -57.5t58 -86t21 -105.5t-21 -104.5t-58 -85.5t-86 -58t-104 -21q-56 0 -105 21t-86 58t-58 85.5t-21 104.5z" />
<glyph unicode="/" horiz-adv-x="945" d="M896 1535l100 -50l-947 -1969l-102 51z" />
<glyph unicode="0" horiz-adv-x="1800" d="M109 709q0 99 15.5 193t51.5 177t95.5 152t147.5 119t207 77.5t275 27.5q155 0 274 -27.5t207 -77.5t147 -119t95 -152t51.5 -177t15.5 -193t-15.5 -193.5t-51.5 -177.5t-95 -152t-147 -119t-207 -77.5t-274 -27.5t-274.5 27.5t-207.5 77.5t-147.5 119t-95.5 152 t-51.5 177t-15.5 194zM901 31q52 0 83.5 31t48.5 108.5t22.5 208t5.5 330.5q0 199 -5.5 329.5t-22.5 208t-48.5 108.5t-83.5 31q-53 0 -84.5 -31t-48.5 -108.5t-22.5 -208t-5.5 -329.5q0 -200 5.5 -330.5t22.5 -208t48.5 -108.5t84.5 -31z" />
<glyph unicode="1" horiz-adv-x="1172" d="M91 79h176v1165h-176v79q129 0 231 28t166 66h421v-1338h174v-79h-992v79z" />
<glyph unicode="2" horiz-adv-x="1644" d="M129 99q79 67 165 148t169 170t158.5 183t132.5 187.5t90.5 184t33.5 172.5q0 70 -19 116.5t-50.5 74t-73 38.5t-86.5 11q-55 0 -109 -9q45 -14 82.5 -36.5t64.5 -52t42 -65t15 -73.5q0 -51 -25.5 -95.5t-69 -78t-102.5 -52.5t-126 -19t-125.5 19t-102 52.5t-69 78 t-25.5 95.5q0 75 50 132.5t141.5 96t219.5 58.5t284 20q89 0 175 -10.5t163 -32.5t142.5 -56t113 -82t74.5 -110t27 -139q0 -82 -30 -148.5t-84.5 -119.5t-131 -94t-168 -72t-196.5 -54t-217 -39q-2 -2 -4 -10l-4 -16q-3 -10 -5 -22h741q12 15 23.5 34.5t21.5 39.5t18 39 t13 35l60 -3l-73 -595h-1324v99z" />
<glyph unicode="3" horiz-adv-x="1634" d="M90 270q0 51 25.5 95.5t69 77.5t102.5 52t126 19t125.5 -19t102 -52t69 -77.5t25.5 -95.5q0 -38 -14 -72t-39.5 -63t-60.5 -52t-77 -37q32 -6 63.5 -9t59.5 -3q56 0 101 14t77 48.5t49.5 92.5t17.5 147q0 77 -25 136t-71 100t-110 64t-143 28v108q74 6 138 33.5 t111.5 72.5t74.5 106t27 135q0 72 -18.5 122t-51.5 81t-77 45t-95 14q-39 0 -82 -3.5t-94 -18.5q55 -9 102.5 -31t82 -53.5t54 -71.5t19.5 -84q0 -51 -25.5 -95.5t-69 -77.5t-102 -52t-125.5 -19t-126 19t-102.5 52t-69 77.5t-25.5 95.5q0 75 47.5 136.5t135.5 106t213 69 t280 24.5q84 0 168.5 -9.5t162.5 -29t146 -50t118 -73t78.5 -97t28.5 -122.5q0 -165 -174.5 -249t-538.5 -88q171 -2 310.5 -21.5t239 -62.5t153.5 -112t54 -169q0 -106 -49 -183.5t-141 -127.5t-224 -74.5t-299 -24.5q-163 0 -297 19.5t-230 58t-148.5 96t-52.5 134.5z" />
<glyph unicode="4" horiz-adv-x="1540" d="M3 448l742 985h483v-985h213v-88h-213v-281h175v-79h-992v79h175v281h-583v88zM586 448v564l-421 -564h421z" />
<glyph unicode="5" horiz-adv-x="1657" d="M89 270q0 51 25.5 92.5t69 71t102 46t125.5 16.5t126 -16.5t102.5 -46t68.5 -71t25 -92.5q0 -41 -16.5 -77.5t-45.5 -67t-70 -53.5t-89 -35q36 -5 72 -7.5t66 -2.5q55 0 104 18.5t85 56t57 95t21 136.5q0 85 -25 144t-70 96t-107.5 53.5t-137.5 16.5q-81 0 -160 -17 t-146 -45l-48 58l101 778q75 -3 151 -10t154 -16q100 -11 199 -20t196 -9q103 0 198 14t180 51h60q2 -20 4 -44t3.5 -48t2 -46t0.5 -37q0 -104 -36 -171t-97.5 -106t-143 -54t-171.5 -15q-104 0 -211.5 13.5t-204.5 27.5q-75 11 -138 19.5t-108 8.5l-36 -289 q136 52 281 84.5t313 32.5q132 0 243.5 -23t193 -71.5t127 -125t45.5 -182.5q0 -125 -53.5 -209t-153.5 -135t-243.5 -73t-323.5 -22q-147 0 -269.5 14t-210.5 49t-137 94.5t-49 150.5z" />
<glyph unicode="6" d="M109 669q0 107 14.5 207t49 187.5t92.5 159.5t145 123.5t207 80t278 28.5q150 0 265 -20.5t193 -57.5t118 -88.5t40 -113.5q0 -49 -21 -87t-59 -64.5t-91 -40t-117 -13.5t-118.5 13.5t-94.5 40t-62.5 64.5t-22.5 87q0 80 56.5 127.5t159.5 62.5q-25 5 -55 7.5t-56 2.5 q-92 0 -148 -26t-87 -89t-41.5 -167.5t-12.5 -261.5q36 15 78.5 29.5t89.5 26t95.5 18t96.5 6.5q109 0 198 -31.5t152 -87.5t97.5 -134.5t34.5 -171.5q0 -61 -14 -124t-45.5 -121t-83.5 -109t-127.5 -88.5t-177.5 -59.5t-234 -22q-151 0 -268.5 23t-205.5 66t-148.5 105 t-98.5 140.5t-54.5 172.5t-16.5 200zM881 40q29 0 58 13t51.5 48.5t36.5 97t14 159.5q0 95 -10.5 165t-34.5 116.5t-63 69.5t-96 23q-45 0 -97 -13v-20q0 -162 3 -285t17 -206t42.5 -125.5t78.5 -42.5z" />
<glyph unicode="7" horiz-adv-x="1537" d="M404 238q0 70 27.5 133.5t75.5 121.5t111.5 111.5t136 103t149 95t149.5 88.5q91 53 163.5 103t112.5 98v62q-59 -69 -130 -112.5t-149 -67.5t-161 -32.5t-168 -8.5q-55 0 -109.5 2t-108.5 6t-104.5 6t-99.5 2q-26 0 -44 -12.5t-29.5 -31.5t-16.5 -42.5t-5 -45.5h-100 l28 624h80v-82q22 15 55 31t74.5 28.5t90.5 21t102 8.5q69 0 142.5 -12t148.5 -27q71 -14 141 -24.5t139 -10.5q74 0 144 17t134 64h93v-264q0 -14 -29 -64t-76 -124q-35 -54 -75 -118t-81 -132t-79.5 -137t-70 -134.5t-53 -124.5t-27.5 -105q-11 -78 -35 -133t-60.5 -90 t-86 -51t-109.5 -16q-58 0 -110.5 19.5t-92.5 55.5t-63.5 87t-23.5 114z" />
<glyph unicode="8" horiz-adv-x="1674" d="M105 318q0 56 24.5 101t67.5 80t102.5 61t129.5 44q-135 95 -192.5 199.5t-57.5 214.5q0 105 46 186t132.5 137t211.5 85t283 29q133 0 246.5 -19t196 -57t129.5 -95t47 -134q0 -100 -73.5 -169t-225.5 -103q83 -36 157.5 -80.5t131 -103t90 -132.5t33.5 -170 q0 -113 -56 -194.5t-160.5 -134t-254.5 -77t-338 -24.5q-78 0 -158 8t-154.5 25.5t-139.5 45.5t-113.5 67.5t-76.5 91.5t-28 118zM1021 942q54 45 78.5 106t24.5 127q0 49 -15 88t-42.5 65.5t-66.5 40.5t-86 14q-49 0 -86 -13t-62 -36t-37.5 -53.5t-12.5 -65.5 q0 -45 24.5 -83t66.5 -71t97.5 -62.5t116.5 -56.5zM488 291q0 -69 24 -119t62 -82t86.5 -47t98.5 -15t86 15.5t59.5 40t34.5 54.5t11 58q0 42 -27.5 80t-76.5 76t-116 77t-146 82q-47 -45 -71.5 -102t-24.5 -118z" />
<glyph unicode="9" d="M178 242q0 49 21 87t59 64t91 40t117 14t118.5 -14t94.5 -40t62.5 -64t22.5 -87q0 -80 -56.5 -127.5t-159.5 -62.5q25 -5 55 -7.5t56 -2.5q92 0 148 26t87 89t41.5 167.5t12.5 261.5q-36 -15 -78.5 -29.5t-89.5 -26t-95.5 -18t-96.5 -6.5q-110 0 -199 31.5t-152 87.5 t-97 134.5t-34 171.5q0 61 14 124t45.5 121t83.5 109t127.5 88.5t177.5 59.5t234 22q226 0 378.5 -50.5t244 -143.5t130.5 -223.5t39 -289.5q0 -107 -14.5 -207t-49 -187.5t-92.5 -159.5t-145 -123.5t-207 -80t-278 -28.5q-150 0 -265 20.5t-193 57.5t-118 88.5t-40 113.5z M852 685q45 0 97 13v20q0 162 -3 285t-17 206t-42.5 125.5t-78.5 42.5q-29 0 -58 -13t-51.5 -48.5t-36.5 -97.5t-14 -159q0 -95 10.5 -165t34.5 -116.5t63 -69.5t96 -23z" />
<glyph unicode=":" horiz-adv-x="813" d="M407 612q-56 0 -105 21t-86 58t-58 85.5t-21 104.5t21 105.5t58 86t86 57.5t105 21q55 0 104 -21t86 -57.5t58 -86t21 -105.5t-21 -104.5t-58 -85.5t-86 -58t-104 -21zM137 231q0 56 21 105.5t58 86t86 57.5t105 21q55 0 104 -21t86 -57.5t58 -86t21 -105.5t-21 -104.5 t-58 -85.5t-86 -58t-104 -21q-56 0 -105 21t-86 58t-58 85.5t-21 104.5z" />
<glyph unicode=";" horiz-adv-x="819" d="M409 612q-56 0 -105 21t-86 58t-58 85.5t-21 104.5t21 105.5t58 86t86 57.5t105 21q55 0 104 -21t86 -57.5t58 -86t21 -105.5t-21 -104.5t-58 -85.5t-86 -58t-104 -21zM137 255q0 51 21 96t56 78.5t82 52.5t100 19q63 0 115.5 -20t90.5 -58.5t59 -95.5t21 -131 q0 -118 -38 -211t-100.5 -161.5t-143 -114t-166.5 -67.5l-29 39q77 29 129.5 72.5t84 88t45 84t13.5 60.5q0 26 -26 37t-65 17q-38 6 -81.5 15t-81 30.5t-62 61.5t-24.5 108z" />
<glyph unicode="&#x3c;" horiz-adv-x="817" d="M96 609l503 483l88 -88l-412 -395l412 -395l-88 -88z" />
<glyph unicode="=" horiz-adv-x="1078" d="M91 875h895v-124h-895v124zM91 475h895v-124h-895v124z" />
<glyph unicode="&#x3e;" horiz-adv-x="817" d="M542 609l-412 395l88 88l503 -483l-503 -483l-88 88z" />
<glyph unicode="?" horiz-adv-x="1542" d="M646 545q0 49 16 100.5t39.5 104.5t51 107.5t51 109t39.5 109.5t16 109q0 88 -57.5 140.5t-163.5 52.5q-34 0 -79.5 -5t-89.5 -15q53 -9 99 -31.5t79.5 -54t52.5 -71t19 -82.5q0 -51 -25.5 -95.5t-69 -77.5t-102.5 -52t-125 -19q-67 0 -126 19t-102.5 52t-68.5 77.5 t-25 95.5q0 79 47 141.5t138 105.5t225 66t307 23q126 0 247 -23.5t216 -72.5t153 -125t58 -180q0 -78 -30 -136t-80.5 -100.5t-116 -73t-136.5 -53t-142.5 -39.5t-133.5 -32.5t-109.5 -33t-71.5 -41.5zM499 231q0 56 21 105.5t58 86t86 57.5t105 21q55 0 104 -21t86 -57.5 t58 -86t21 -105.5t-21 -104.5t-58 -85.5t-86 -58t-104 -21q-56 0 -105 21t-86 58t-58 85.5t-21 104.5z" />
<glyph unicode="@" horiz-adv-x="2454" d="M191 475q0 131 31.5 262.5t95 252t160 224.5t225.5 180.5t291 120.5t358 44q102 0 211.5 -20.5t213.5 -64.5t197 -112t162.5 -164t110.5 -220t41 -279q0 -97 -21.5 -189.5t-61 -174.5t-96 -150.5t-126.5 -118t-151.5 -77t-171.5 -27.5q-82 0 -140.5 21.5t-96 56 t-55.5 77.5t-19 85q-23 -52 -56 -96t-81 -76t-114 -50t-155 -18q-102 0 -184.5 33.5t-141 95.5t-90 149t-31.5 195q0 185 50.5 320t136.5 223t201 130.5t243 42.5q93 0 158 -24t107 -66t63.5 -99t27.5 -124l46 207h439q-21 -50 -42 -120t-40.5 -149.5t-36.5 -164.5 t-29.5 -164t-19.5 -148t-7 -117q0 -40 19 -56t45 -16q52 0 106.5 48t99.5 126.5t73.5 178t28.5 203.5q0 147 -58.5 272.5t-172 217.5t-279.5 144t-380 52q-138 0 -264 -27.5t-235.5 -80t-198.5 -128t-152 -172.5t-97.5 -213t-34.5 -249q0 -198 70 -338t195 -228.5 t297 -129.5t376 -41q180 0 321.5 24.5t255 63.5t203.5 89t167 101l49 -62q-38 -37 -90.5 -83t-120.5 -93t-151 -91.5t-182 -78.5t-214 -55t-247 -21q-125 0 -249.5 23.5t-239 72.5t-213.5 124.5t-172 179.5t-115 237.5t-42 298.5zM1028 368q0 -81 10 -132.5t26.5 -81.5 t38.5 -41.5t47 -11.5q45 0 92 46.5t86 131.5t63.5 204t24.5 263q0 61 -5.5 112t-18.5 87t-34 56t-51 20q-52 0 -102 -46.5t-89.5 -131.5t-63.5 -206t-24 -269z" />
<glyph unicode="A" horiz-adv-x="1891" d="M-15 79q81 0 124.5 11t55.5 40l515 1287h439l603 -1338h174v-79h-1134v79h193l-138 345h-440l-117 -291q-1 -3 -1 -8q0 -14 13.5 -22.5t38 -14t58 -7.5t73.5 -2v-79h-457v79zM786 503l-193 472l-185 -472h378z" />
<glyph unicode="B" horiz-adv-x="1927" d="M99 79h176v1260h-176v78h1011q130 0 242 -15.5t195 -55t130.5 -107t47.5 -170.5q0 -84 -33.5 -144.5t-104.5 -100t-183.5 -59.5t-269.5 -21q85 -1 169 -5.5t160 -17.5t141 -37.5t113 -64t75 -97.5t27 -138q0 -114 -43 -188.5t-124 -118t-198.5 -60.5t-267.5 -17h-1087v79 zM964 775q45 0 84 11t68 42.5t45.5 88t16.5 146.5t-16.5 145t-45.5 85.5t-68 41t-84 10.5v-570zM964 79q55 0 95 9.5t66.5 38.5t39.5 83.5t13 144.5q0 180 -52.5 262.5t-161.5 82.5v-621z" />
<glyph unicode="C" horiz-adv-x="1847" d="M118 675q0 166 53 309t159.5 247.5t265.5 164t371 59.5q154 0 286 -47t244 -152l123 184h69v-649h-78q-36 159 -97.5 264t-135 167.5t-153 88t-150.5 25.5q-34 0 -67.5 -5.5t-64.5 -25t-58 -56.5t-46.5 -100.5t-31 -156.5t-11.5 -224q0 -137 8.5 -241t26 -180t43 -126 t60 -80t77.5 -42.5t94 -12.5q100 0 187 30.5t154 96.5t110.5 170t56.5 250h88q-8 -141 -50.5 -263t-129.5 -213t-224 -143t-334 -52q-192 0 -348 52t-266.5 146.5t-170.5 225.5t-60 289z" />
<glyph unicode="D" horiz-adv-x="2024" d="M99 79h175v1260h-175v78h1115q159 0 287 -47.5t218 -138.5t138.5 -222.5t48.5 -299.5q0 -169 -48.5 -301t-138.5 -222.5t-218 -138t-287 -47.5h-1115v79zM964 79q47 0 85.5 9.5t67.5 35.5t50 70.5t34.5 114.5t20 168.5t6.5 231.5t-6.5 231t-20 168t-34.5 115t-50 70.5 t-67.5 35.5t-85.5 10v-1260z" />
<glyph unicode="E" horiz-adv-x="1852" d="M99 79h175v1260h-175v78h1549v-487h-68l-278 409h-338v-595h151l132 330h65v-740h-65l-132 332h-151v-587h373l290 455h69v-534h-1597v79z" />
<glyph unicode="F" horiz-adv-x="1677" d="M99 79h175v1260h-175v78h1502v-534h-68l-282 456h-287v-670h161l122 330h65v-741h-65l-122 332h-161v-511h250v-79h-1115v79z" />
<glyph unicode="G" horiz-adv-x="1921" d="M118 675q0 165 51.5 307.5t155 247.5t259 165t364.5 60q149 0 288.5 -45t260.5 -154l123 184h69v-649h-78q-36 159 -97.5 264t-135 167.5t-153 88t-150.5 25.5q-34 0 -67.5 -5.5t-64.5 -25t-58 -56.5t-46.5 -100.5t-31 -156.5t-11.5 -224q0 -198 8.5 -335t29 -221.5 t54 -122.5t83.5 -38q40 0 63 16t34 51.5t13.5 92t2.5 138.5v284h-186v79h952v-79h-161v-671h-62q-48 49 -98 68t-106 19q-54 0 -109 -12t-118 -28q-71 -17 -151.5 -32.5t-177.5 -15.5q-171 0 -309 56t-236 153t-151 227t-53 278z" />
<glyph unicode="H" horiz-adv-x="2239" d="M99 79h175v1260h-175v78h964v-78h-99v-541h312v541h-100v78h964v-78h-174v-1260h174v-79h-964v79h100v641h-312v-641h99v-79h-964v79z" />
<glyph unicode="I" horiz-adv-x="1237" d="M99 79h175v1260h-175v78h1039v-78h-174v-1260h174v-79h-1039v79z" />
<glyph unicode="J" horiz-adv-x="1314" d="M-24 240q0 39 17.5 73.5t49 60t75 40.5t94.5 15q52 0 95.5 -15t74.5 -40.5t48 -60t17 -73.5q0 -62 -41 -110t-111 -68q19 -8 42.5 -12t44.5 -4q41 0 69.5 15.5t46.5 41.5t26 60.5t8 73.5q0 47 -21.5 100t-47.5 107q-29 58 -52.5 113.5t-23.5 102.5v679h-175v78h1040v-78 h-175v-922q0 -134 -32.5 -221.5t-97 -139.5t-161 -73t-225.5 -21q-118 0 -224 19t-186.5 55t-127.5 87.5t-47 116.5z" />
<glyph unicode="K" horiz-adv-x="2102" d="M99 79h175v1260h-175v78h1039v-78h-174v-626l597 567q5 5 6 7.5t1 6.5q0 13 -23.5 22t-58.5 14t-75.5 7t-75.5 2v78h616v-78q-62 0 -105 -3t-73.5 -10.5t-51.5 -19t-40 -29.5l-200 -190l475 -1008h127v-79h-935v79h99l-238 558l-45 -43v-515h99v-79h-964v79z" />
<glyph unicode="L" horiz-adv-x="1654" d="M99 79h175v1260h-175v78h1039v-78h-174v-1260h318l251 455h68v-534h-1502v79z" />
<glyph unicode="M" horiz-adv-x="2209" d="M94 79q87 0 131 9.5t44 47.5v1203h-175v78h802l184 -592l194 592h836v-78h-175v-1260h175v-79h-1011v79h175v1050l-369 -1129h-184l-367 1116v-975q0 -42 43.5 -52t131.5 -10v-79h-435v79z" />
<glyph unicode="N" horiz-adv-x="1866" d="M46 79q43 0 83.5 2.5t71.5 8.5t49.5 17t18.5 29v1043l-122 160h-119v78h874l643 -847v710q0 18 -12.5 29.5t-36.5 18t-58 9t-77 2.5v78h453v-78q-86 0 -135 -11t-49 -48v-1280h-507l-769 1067v-926q0 -20 16.5 -32t45 -18.5t67.5 -9t83 -2.5v-79h-520v79z" />
<glyph unicode="O" horiz-adv-x="1950" d="M118 709q0 99 20.5 193t64 177t111.5 152t163 119t219 77.5t279 27.5t279 -27.5t219.5 -77.5t163.5 -119t111 -152t63.5 -177t20.5 -193t-20.5 -193.5t-63.5 -177.5t-111 -152t-163.5 -119t-219.5 -77.5t-279 -27.5t-279 27.5t-219 77.5t-163 119t-111.5 152t-64 177 t-20.5 194zM975 31q52 0 86.5 31t55.5 108.5t29.5 208t8.5 330.5q0 199 -8.5 329.5t-29.5 208t-55.5 108.5t-86.5 31t-86.5 -31t-55 -108.5t-29 -208t-8.5 -329.5q0 -200 8.5 -330.5t29 -208t55 -108.5t86.5 -31z" />
<glyph unicode="P" horiz-adv-x="1846" d="M99 79h175v1260h-175v78h1153q147 0 254 -35.5t177 -97.5t103.5 -147.5t33.5 -185.5q0 -101 -38.5 -184.5t-113 -143t-184 -92t-251.5 -32.5h-269v-420h174v-79h-1039v79zM964 571q58 0 99 26.5t66.5 74.5t37 115t11.5 149q0 105 -12 182.5t-37.5 127.5t-66 74.5 t-98.5 24.5v-774z" />
<glyph unicode="Q" horiz-adv-x="1951" d="M118 709q0 99 20.5 193t64 177t111.5 152t163 119t219 77.5t279 27.5t279 -27.5t219.5 -77.5t163.5 -119t111 -152t63.5 -177t20.5 -193q0 -119 -29.5 -230t-92.5 -204t-163 -163.5t-241 -109.5q13 -33 33 -61t49.5 -48.5t70.5 -32t97 -11.5q43 0 85 5t75 23.5t53.5 54 t20.5 95.5h61q4 -29 5.5 -55t1.5 -52q0 -87 -17 -154t-55 -112t-99 -68t-149 -23q-76 0 -131 16t-94.5 44.5t-65 67.5t-41 85t-23.5 96.5t-13 102.5q-45 -6 -93.5 -9.5t-101.5 -3.5q-155 0 -279 27.5t-219 77.5t-163 119t-111.5 152t-64 177t-20.5 194zM803 394 q35 38 84.5 60.5t104.5 22.5q53 0 91 -11.5t66 -31.5q6 117 6 275q0 199 -8.5 329.5t-29.5 208t-55.5 108.5t-86.5 31t-86.5 -31t-55 -108.5t-29 -208t-8.5 -329.5q0 -95 1.5 -172.5t5.5 -142.5zM809 317q8 -81 21.5 -136t33.5 -88.5t47.5 -47.5t63.5 -14q33 0 58.5 11.5 t45 38.5t33 71.5t22.5 109.5q-18 60 -57 97.5t-114 37.5q-44 0 -86 -22.5t-68 -57.5z" />
<glyph unicode="R" horiz-adv-x="2030" d="M99 79h175v1260h-175v78h1143q137 0 244.5 -22t181 -67.5t112 -115.5t38.5 -165q0 -83 -33.5 -148t-114 -110t-215 -69.5t-335.5 -25.5q180 -1 307 -17.5t207.5 -57t117.5 -109t37 -173.5q0 -29 -0.5 -49.5t-1.5 -48.5q-2 -29 -2 -44.5v-35.5q0 -31 8.5 -47t28.5 -16 q33 0 48 64t15 185h84v-32q0 -99 -18.5 -167t-66 -110t-127.5 -60.5t-203 -18.5q-118 0 -196 24.5t-124.5 72.5t-65.5 119t-19 164q0 102 -10.5 167t-32.5 102.5t-57.5 51.5t-84.5 14v-593h174v-79h-1039v79zM964 751q54 0 94 13t66.5 46t39.5 90.5t13 146.5t-13 145.5 t-39.5 89t-66.5 45t-94 12.5v-588z" />
<glyph unicode="S" horiz-adv-x="1769" d="M184 544h67q25 -49 62 -105.5t87 -112.5t114 -107.5t143 -90.5t174 -62.5t208 -23.5q33 0 74 3.5t77 15t60.5 33t24.5 57.5q0 38 -31.5 67.5t-95.5 57t-161.5 55.5t-229.5 63q-294 76 -435.5 212.5t-141.5 333.5q0 123 50.5 219t138 161.5t205 100t250.5 34.5 q68 0 142.5 -12t145.5 -33t134 -50.5t110 -64.5l151 146h69v-435h-63q-44 79 -113 147t-158 118t-197 79t-229 29q-23 0 -59 -1.5t-70.5 -10.5t-59.5 -28.5t-25 -54.5q0 -57 103.5 -109.5t308.5 -106.5q87 -23 168 -48.5t151.5 -58t128 -74t98.5 -97.5t63.5 -128t22.5 -166 q0 -109 -40 -206t-119.5 -170t-197.5 -115.5t-273 -42.5q-85 0 -160 13t-145.5 39t-139.5 65.5t-142 92.5l-170 -191h-75v563z" />
<glyph unicode="T" horiz-adv-x="1739" d="M350 79h174v1260h-144l-245 -494h-69v572h1607v-572h-70l-244 494h-145v-1260h175v-79h-1039v79z" />
<glyph unicode="U" horiz-adv-x="1893" d="M255 1339h-175v78h1039v-78h-174v-772q0 -94 10 -179t41.5 -149.5t90 -102.5t155.5 -38q37 0 76 7.5t75.5 28.5t69 58t57 95.5t38.5 141t14 195.5v656q0 29 -44.5 44t-131.5 15v78h435v-78q-86 0 -130 -15t-44 -44v-628q0 -182 -33.5 -312.5t-113 -214.5t-211 -123.5 t-327.5 -39.5q-136 0 -242 24t-186 67.5t-135 104t-89 133t-49.5 154.5t-15.5 169v725z" />
<glyph unicode="V" horiz-adv-x="1799" d="M142 1339h-147v78h1068v-78h-176l338 -874l303 812q3 9 3 16q0 13 -13.5 21.5t-38 14t-58 8t-73.5 2.5v78h466v-78q-88 0 -129.5 -14t-54.5 -48l-473 -1277h-429z" />
<glyph unicode="W" horiz-adv-x="2603" d="M136 1339h-141v78h1011v-78h-180l277 -820l150 504l-115 316h-66v78h936v-78h-180l275 -815l219 753q3 9 3 16q0 13 -13.5 21.5t-38 14t-58 8t-73.5 2.5v78h476v-78q-89 0 -131.5 -13.5t-53.5 -48.5l-378 -1277h-430l-315 868l-257 -868h-429z" />
<glyph unicode="X" horiz-adv-x="1913" d="M19 79q44 0 74.5 3.5t51.5 11t35 19.5t24 28l377 597l-359 601h-159v78h1078v-78h-160l296 -496l281 437q3 4 3 13q0 13 -13.5 21.5t-37.5 14t-57.5 8t-73.5 2.5v78h466v-78q-44 0 -75 -4t-52 -11.5t-34.5 -19t-23.5 -27.5l-330 -523l404 -675h160v-79h-1078v79h159 l-341 570l-329 -513q-3 -5 -3 -11q0 -14 13.5 -22.5t38 -14t58 -7.5t73.5 -2v-79h-466v79z" />
<glyph unicode="Y" horiz-adv-x="1770" d="M404 79h175v421l-431 839h-153v78h1068v-78h-170l325 -693l290 631q3 7 3 17q0 13 -13.5 21.5t-37.5 13.5t-57.5 7.5t-73.5 2.5v78h456v-78q-44 0 -74 -2.5t-49.5 -9.5t-31 -19t-20.5 -31l-341 -731v-467h175v-79h-1040v79z" />
<glyph unicode="Z" horiz-adv-x="1659" d="M85 76l738 1266h-369q-14 0 -33 -24t-40.5 -61.5t-43.5 -84.5t-42 -93.5t-36.5 -87.5t-25.5 -66h-106v492h1438v-75l-741 -1266h378q19 0 42.5 23.5t48 60.5t48.5 83t45 91.5t38 86t27 66.5h106v-487h-1472v76z" />
<glyph unicode="[" horiz-adv-x="980" d="M283 1644h602v-69h-161v-1733h161v-69h-602v1871z" />
<glyph unicode="\" horiz-adv-x="945" d="M-51 1485l100 50l949 -1968l-102 -51z" />
<glyph unicode="]" horiz-adv-x="980" d="M256 -158v1733h-161v69h602v-1871h-602v69h161z" />
<glyph unicode="^" horiz-adv-x="1366" d="M683 1177l534 -923l-107 -62l-427 738l-427 -738l-107 62z" />
<glyph unicode="_" horiz-adv-x="1528" d="M1538 -65v-114h-1548v114h1548z" />
<glyph unicode="`" horiz-adv-x="941" d="M567 1299q-35 12 -81.5 29t-97.5 36t-102 39t-95 38t-77 32.5t-47 22.5q-35 20 -51 49.5t-16 62.5q0 28 11 54.5t29.5 46.5t43.5 32t53 12q17 0 34 -4t34 -14q14 -9 43.5 -30.5t67 -51t80.5 -64.5t85.5 -69.5t80.5 -67t66 -56.5q22 -19 36 -30.5t19 -14.5l-50 -77 q-6 3 -23 9.5t-43 15.5z" />
<glyph unicode="a" horiz-adv-x="1842" d="M131 262q0 77 29 132.5t82 94t127 62t164.5 36.5t194.5 17.5t216 4.5v56q0 128 -17.5 205t-53 118t-87.5 53.5t-121 12.5q-37 0 -78.5 -6t-73.5 -14q46 -5 85 -23t67 -45t43.5 -60t15.5 -67q0 -42 -21 -79t-58 -64.5t-86 -43.5t-105 -16t-104.5 16t-85 43.5t-57.5 64.5 t-21 79q0 56 30.5 101t83 79.5t124 59.5t153.5 41t170.5 23.5t176.5 7.5q156 0 271.5 -21.5t192 -76t114.5 -149t38 -239.5v-419q0 -75 15.5 -115.5t57.5 -40.5q21 0 34.5 13.5t21 35.5t10.5 51t3 59v99h89v-99q0 -80 -20.5 -135t-71 -89t-135 -48.5t-212.5 -14.5 q-65 0 -121.5 7t-103 24t-80.5 45t-54 70q-30 -46 -80 -74.5t-108 -44.5t-117 -21.5t-108 -5.5q-117 0 -199 24.5t-133 65.5t-74 95.5t-23 114.5zM708 273q0 -74 27 -119.5t89 -45.5q52 0 86 37.5t34 100.5v271q-72 0 -118 -13t-72.5 -41.5t-36 -75.5t-9.5 -114z" />
<glyph unicode="b" horiz-adv-x="1856" d="M227 1440h-176v72h771v-458q51 42 126.5 69.5t186.5 27.5q161 0 280 -48.5t197 -130t116.5 -189.5t38.5 -227q0 -122 -41.5 -230t-126 -189t-212.5 -128t-302 -47q-108 0 -191.5 18t-148 47t-111.5 65.5t-80 72.5l-327 -203v1478zM812 363q0 -78 13 -135t35.5 -95 t54 -56.5t69.5 -18.5q48 0 80 27t52 86t28.5 154t8.5 231q0 135 -8.5 227.5t-27.5 150.5t-48.5 83.5t-72.5 25.5q-46 0 -80.5 -23.5t-57.5 -59.5t-34.5 -79t-11.5 -82v-436z" />
<glyph unicode="c" horiz-adv-x="1589" d="M89 567q0 131 53 239t146.5 184.5t221.5 118.5t279 42q190 0 326 -30.5t223.5 -79.5t128.5 -110t41 -121q0 -44 -21.5 -83t-59 -68t-87.5 -46t-108 -17t-109 16.5t-88.5 45t-59.5 66.5t-22 82q0 41 19.5 77.5t54 64.5t81 46t100.5 21q-57 21 -112.5 32.5t-102.5 11.5 q-77 0 -133 -20.5t-92.5 -76t-54.5 -153.5t-18 -253q0 -153 13.5 -249t43 -150.5t76 -74.5t112.5 -20q84 0 158 21t132.5 59.5t97.5 93t53 122.5h94q-10 -93 -57 -166.5t-124.5 -124.5t-182 -78t-228.5 -27q-195 0 -343.5 40.5t-248.5 118t-151 190t-51 256.5z" />
<glyph unicode="d" horiz-adv-x="1856" d="M89 556q0 119 38.5 227t117 189.5t197.5 130t280 48.5q110 0 186 -27.5t126 -69.5v386h-174v72h770v-1440h175v-72h-771v80q-41 -55 -115 -86.5t-197 -31.5q-161 0 -280 48t-197.5 130t-117 189.5t-38.5 226.5zM874 77q37 0 68 15.5t53.5 50t35.5 88.5t13 132v436 q0 39 -11 82t-34 79t-57.5 59.5t-80.5 23.5q-42 0 -72 -25.5t-49 -83.5t-28 -150.5t-9 -227.5q0 -136 8.5 -228t28.5 -147.5t53 -79.5t81 -24z" />
<glyph unicode="e" horiz-adv-x="1587" d="M89 567q0 134 55 242t152.5 184t231 117t289.5 41q120 0 217.5 -24t173 -65.5t130 -98.5t90 -123t52.5 -138.5t17 -145.5h-802q0 -153 13.5 -249t43 -150.5t76 -74.5t112.5 -20q84 0 158 21t132.5 59.5t97.5 93t53 122.5h94q-10 -93 -57 -166.5t-124.5 -124.5t-182 -78 t-228.5 -27q-195 0 -343.5 40.5t-248.5 118t-151 190t-51 256.5zM976 657q-3 125 -12 208t-26 133t-42 70.5t-60 20.5t-60.5 -20.5t-42.5 -70.5t-26 -133t-11 -208h280z" />
<glyph unicode="f" horiz-adv-x="1176" d="M70 72h176v874h-176v72h176v79q0 237 134 345t396 108q38 0 88 -5t102.5 -17t104 -32t91.5 -49.5t65 -70t25 -92.5q0 -39 -18 -73.5t-50.5 -60t-76.5 -40.5t-95 -15q-52 0 -96 15t-76 40.5t-50 60t-18 73.5q0 34 14 64.5t39 55t60 41.5t77 24q-48 12 -95 12 q-39 0 -73.5 -10.5t-60 -34t-40.5 -62t-15 -94.5q0 -37 12 -73t30.5 -69.5t40.5 -64t42 -55.5h234v-72h-196v-874h174v-72h-945v72z" />
<glyph unicode="g" horiz-adv-x="1649" d="M65 -223q0 48 49.5 94t163.5 86q-158 84 -158 247q0 48 15 93.5t46.5 85.5t80 71t114.5 50q-109 47 -165 120.5t-56 168.5q0 71 38.5 136t116.5 114.5t197 78.5t280 29q84 0 156.5 -8t135.5 -23q32 55 77 94t98.5 64t113.5 37t122 12q43 0 80 -12.5t64.5 -33.5t43.5 -49 t16 -60t-16 -60t-43.5 -49t-64.5 -33.5t-80 -12.5q-42 0 -79.5 12.5t-65.5 33.5t-44 49t-16 60q0 26 12 52q-43 -18 -81.5 -49t-65.5 -76q132 -45 200.5 -123.5t68.5 -182.5q0 -81 -42 -147t-122.5 -113t-198.5 -72.5t-269 -25.5q-190 0 -325 39q-57 -11 -79.5 -31 t-22.5 -41q0 -14 10 -28t38.5 -25t78.5 -18.5t131 -7.5h402q110 0 203 -18.5t160.5 -61t105.5 -113.5t38 -176q0 -90 -40.5 -162.5t-132 -123.5t-239.5 -78t-362 -27q-186 0 -316.5 17t-213 46t-120.5 68t-38 83zM787 497q38 0 63.5 16.5t40.5 52t21 91.5t6 136t-6 136 t-21 91.5t-40.5 52t-63.5 16.5t-63.5 -16.5t-40.5 -52t-21.5 -91.5t-6.5 -136t6.5 -136t21.5 -91.5t40.5 -52t63.5 -16.5zM225 -213q0 -15 6.5 -32t26 -34t55 -32t94.5 -27t144 -19t203 -7q141 0 250 12t183.5 32.5t113 49t38.5 61.5q0 48 -71 69.5t-205 21.5h-397 q-90 0 -165 10t-137 29q-77 -32 -108 -65.5t-31 -68.5z" />
<glyph unicode="h" horiz-adv-x="1937" d="M80 72h175v1368h-175v72h770v-527q32 39 77.5 70t100.5 52.5t117.5 32.5t128.5 11q136 0 224.5 -35.5t139.5 -101t71 -159t20 -208.5v-575h175v-72h-870v72h100v575q0 103 -6 168.5t-21 103t-40 52t-63 14.5t-67 -16t-48.5 -45t-29 -69t-9.5 -87v-696h99v-72h-869v72z " />
<glyph unicode="i" horiz-adv-x="1077" d="M542 1214q-58 0 -112 11.5t-95 37t-66 65.5t-25 98t25 98.5t66 66t95 37t112 11.5q57 0 111 -11.5t95 -37t66 -65.5t25 -98t-25 -98.5t-66 -66t-95 -37t-111 -11.5zM80 72h175v969h-175v72h770v-1041h175v-72h-945v72z" />
<glyph unicode="j" horiz-adv-x="1143" d="M612 1214q-58 0 -111.5 11.5t-95 37t-66 65.5t-24.5 98t24.5 98.5t66 66t95 37t111.5 11.5t111.5 -11.5t95 -37t66.5 -65.5t25 -98t-25 -98.5t-66.5 -66t-95 -37t-111.5 -11.5zM165 28q52 0 95.5 -15t75.5 -40.5t50 -60t18 -73.5q0 -33 -13.5 -63.5t-37.5 -54.5 t-58 -41.5t-74 -24.5q24 -8 57.5 -15t59.5 -7q46 0 77 17t49.5 44.5t26 62t7.5 70.5q0 38 -11 72t-28 64t-37 56t-39 49q-21 26 -34.5 47t-13.5 38v888h-174v72h769v-1097q0 -237 -133.5 -345t-395.5 -108q-94 0 -180.5 18t-152.5 53t-105 86.5t-39 118.5q0 39 18 73.5 t50.5 60t76.5 40.5t96 15z" />
<glyph unicode="k" horiz-adv-x="1828" d="M80 72h175v1368h-175v72h770v-926q28 26 67 63.5t82 79t85.5 83.5t77.5 77t58 60t28 33q3 4 3.5 6.5t0.5 5.5q0 13 -13.5 22t-38 14.5t-58 8t-73.5 2.5v72h608v-72q-42 0 -82.5 -2t-76.5 -8.5t-66.5 -19t-53.5 -33.5q-26 -23 -64.5 -60t-84.5 -82t-96.5 -94.5 t-98.5 -98.5q29 2 57 3t54 1q117 0 200.5 -16t137 -54.5t78 -102t24.5 -157.5v-15.5v-14t-0.5 -18.5t-1.5 -28t-1.5 -28t-0.5 -19v-15v-16q0 -27 9.5 -45.5t31.5 -18.5q15 0 26 10t18.5 33.5t11 62.5t3.5 97h84v-33q0 -99 -22 -159.5t-69.5 -93.5t-123 -43.5t-181.5 -10.5 q-118 0 -191.5 21.5t-114.5 63.5t-55.5 104t-14.5 143q0 100 -11 162.5t-47 86.5q-32 -33 -59.5 -60.5t-45.5 -47.5v-363h125v-72h-895v72z" />
<glyph unicode="l" horiz-adv-x="1077" d="M80 72h175v1368h-175v72h770v-1440h175v-72h-945v72z" />
<glyph unicode="m" horiz-adv-x="2778" d="M80 72h175v969h-175v72h770v-128q65 79 168 122.5t237 43.5q167 0 263 -53t141 -150q24 43 66 80t96 64.5t118 43t132 15.5q150 0 246.5 -33.5t153 -98t78 -158t21.5 -214.5v-575h175v-72h-870v72h100v575q0 103 -6 168.5t-21 103t-40 52t-63 14.5q-65 0 -101.5 -43.5 t-47.5 -115.5q8 -41 11 -85.5t3 -93.5v-575h99v-72h-794v72h100v575q0 103 -6 168.5t-21 103t-40 52t-63 14.5t-64 -16t-42 -45t-22.5 -69t-6.5 -87v-696h99v-72h-869v72z" />
<glyph unicode="n" horiz-adv-x="1937" d="M80 72h175v969h-175v72h770v-128q32 39 77.5 70t100.5 52.5t117.5 32.5t128.5 11q136 0 224.5 -35.5t139.5 -101t71 -159t20 -208.5v-575h175v-72h-870v72h100v575q0 103 -6 168.5t-21 103t-40 52t-63 14.5t-67 -16t-48.5 -45t-29 -69t-9.5 -87v-696h99v-72h-869v72z" />
<glyph unicode="o" d="M89 556q0 129 47 238t141 188.5t236 124t332 44.5t331.5 -44.5t235.5 -124t141 -188.5t47 -238t-47 -237.5t-141 -188t-235.5 -124t-331.5 -44.5t-332 44.5t-236 124t-141 188t-47 237.5zM845 24q38 0 65 25t44 86t24.5 163.5t7.5 257.5q0 156 -7.5 258.5t-24.5 163.5 t-44 86t-65 25q-39 0 -66 -25t-44 -86t-24.5 -163.5t-7.5 -258.5q0 -155 7.5 -257.5t24.5 -163.5t44 -86t66 -25z" />
<glyph unicode="p" horiz-adv-x="1885" d="M256 -327v1368h-175v72h770v-80q41 55 115.5 86.5t197.5 31.5q161 0 280 -48.5t197 -130t116.5 -189.5t38.5 -227t-38.5 -226.5t-116.5 -189.5t-197 -130t-280 -48q-111 0 -186.5 27.5t-126.5 69.5v-386h175v-72h-945v72h175zM841 314q0 -39 11.5 -82t34.5 -79 t57.5 -59.5t81.5 -23.5q42 0 72 25.5t48.5 83t27 150.5t8.5 227q0 137 -8.5 229t-28.5 148t-52 79.5t-80 23.5q-38 0 -69.5 -15.5t-54 -50t-35.5 -88.5t-13 -132v-436z" />
<glyph unicode="q" horiz-adv-x="1856" d="M89 556q0 123 41.5 231t126.5 189t213 128t302 47q107 0 191 -18t148.5 -47t111 -65.5t79.5 -72.5l328 203v-1478h175v-72h-945v72h174v386q-50 -42 -126 -69.5t-186 -27.5q-161 0 -280 48t-197.5 130t-117 189.5t-38.5 226.5zM861 70q46 0 80.5 23.5t57.5 59.5t34 79 t11 82v436q0 78 -13 135t-35.5 95t-53.5 56.5t-68 18.5q-48 0 -81 -26.5t-53 -86t-28.5 -154.5t-8.5 -232q0 -134 9 -227t28 -150.5t49 -83t72 -25.5z" />
<glyph unicode="r" horiz-adv-x="1584" d="M80 72h175v969h-175v72h770v-128q32 39 76 69.5t97.5 52t115 33t127.5 11.5q69 0 124 -17t94 -46.5t59.5 -70t20.5 -87.5q0 -45 -22.5 -85t-62 -70t-92.5 -47.5t-113 -17.5t-113 17.5t-92.5 47.5t-62.5 70t-23 85q0 23 6.5 45.5t17.5 42.5q-21 -10 -48.5 -30.5 t-51.5 -50.5t-40.5 -69.5t-16.5 -85.5v-710h194v-72h-964v72z" />
<glyph unicode="s" horiz-adv-x="1560" d="M123 436h74q43 -76 119 -145.5t171.5 -123t202.5 -85.5t213 -32q44 0 85 4.5t72 17t49.5 33.5t18.5 54q0 34 -30.5 56.5t-82.5 37.5t-119.5 25t-140.5 20q-132 17 -247 45t-200 77t-133.5 124t-48.5 186q0 102 45.5 180.5t126.5 132t192 81t242 27.5q62 0 125.5 -12 t123 -31.5t113 -45t96.5 -51.5l134 128h83v-394h-71q-41 69 -103.5 128t-141.5 102t-171 67.5t-192 24.5q-49 0 -90 -5t-71 -16t-46.5 -29t-16.5 -43q0 -34 25 -56t74.5 -38.5t122.5 -29.5t170 -28q123 -20 229 -49t183.5 -79t122 -127t44.5 -194q0 -95 -36.5 -171.5 t-108 -129.5t-176.5 -81.5t-241 -28.5q-64 0 -138 12.5t-146.5 36t-137.5 57t-110 75.5l-175 -166h-83v459z" />
<glyph unicode="t" horiz-adv-x="1237" d="M198 1041h-175v72h175q101 0 181.5 34.5t137 90t86.5 124.5t30 138h160v-387h322v-72h-322v-616q0 -107 11.5 -174.5t33 -105.5t51 -51.5t65.5 -13.5q35 0 68 15.5t58 50t40 90t15 136.5q0 19 -1 39.5t-3 42.5h84q3 -50 3 -91q0 -125 -34.5 -203.5t-98.5 -122.5 t-155.5 -60t-205.5 -16q-128 0 -226 25t-165 79.5t-101 140.5t-34 209v626z" />
<glyph unicode="u" horiz-adv-x="1909" d="M208 1041h-175v72h770v-647q0 -103 6 -168.5t21 -103t40 -52t63 -14.5t67 16t48.5 45t29 69t9.5 87v696h-147v72h742v-1041h174v-72h-769v128q-32 -39 -77.5 -70t-100 -52.5t-117 -32.5t-128.5 -11q-137 0 -225.5 35.5t-139.5 101t-71 158.5t-20 209v575z" />
<glyph unicode="v" horiz-adv-x="1568" d="M165 1041h-174v72h932v-72h-134l273 -677q21 55 46 120.5t50.5 132.5t49.5 130t43 113t31 83t14 39q3 7 3 12q0 13 -13.5 22t-38 14.5t-58 8t-73.5 2.5v72h466v-72q-44 0 -75.5 -3.5t-53 -11t-35 -19.5t-20.5 -29q-8 -17 -25 -61.5t-41 -106.5t-52.5 -137.5t-58.5 -155.5 t-59.5 -159t-55 -148t-45.5 -124t-31 -86h-429z" />
<glyph unicode="w" horiz-adv-x="2333" d="M165 1041h-174v72h894v-72h-87l183 -638l144 512l-44 126h-127v72h848v-72h-87l183 -638q16 56 34 118.5l36 125t34 120t29 103.5t21 75.5t10 35.5q2 8 2 13q0 13 -13.5 22t-37.5 14.5t-57.5 8t-73.5 2.5v72h466v-72q-44 0 -76 -3.5t-53.5 -11t-35 -19.5t-20.5 -29 t-21.5 -60t-33.5 -103.5t-41.5 -134.5t-45.5 -152t-46 -156.5t-43 -149t-36 -128t-25 -94.5h-429l-266 768l-222 -768h-429z" />
<glyph unicode="x" horiz-adv-x="1695" d="M0 72q44 0 74.5 4.5t51.5 12.5t34 19.5t24 26.5l335 459l-297 447h-175v72h961v-72h-134l249 -374q22 30 47 63.5t49 67t47 64.5t41 56t30 42t15 22q4 7 4 12q0 13 -13.5 22t-38 14.5t-58 8t-73.5 2.5v72h475v-72q-44 0 -74.5 -4.5t-51.5 -12.5t-34.5 -19.5t-23.5 -26.5 q-16 -23 -47.5 -66.5t-71.5 -98.5t-83.5 -115t-83.5 -114l341 -512h176v-72h-962v72h133l-293 440q-20 -27 -47.5 -64t-57 -77t-58.5 -80t-53 -73.5t-40.5 -57t-20.5 -29.5q-2 -4 -2.5 -6.5t-0.5 -5.5q0 -13 13.5 -22t38 -14.5t58 -8t73.5 -2.5v-72h-476v72z" />
<glyph unicode="y" horiz-adv-x="1571" d="M27 -248q0 39 19.5 73.5t53.5 60t79.5 40.5t97.5 15q50 0 95 -14t79.5 -38t54.5 -57t20 -71q0 -35 -17.5 -67t-49.5 -49q89 8 159.5 53.5t127.5 126.5l-581 1216h-174v72h932v-72h-134l264 -611l52.5 115.5t54 120t50.5 114t42.5 97.5t30 71t13.5 34q3 7 3 12 q0 13 -13.5 22t-38 14.5t-58 8t-73.5 2.5v72h466v-72q-44 0 -75.5 -3.5t-53.5 -11t-35 -19.5t-20 -29q-4 -10 -26.5 -61t-58.5 -130t-82 -180t-98 -211t-106 -222t-106 -214q-48 -95 -99.5 -169t-119 -124.5t-156.5 -77t-212 -26.5q-62 0 -118 10t-98 32t-66.5 58t-24.5 89z " />
<glyph unicode="z" horiz-adv-x="1651" d="M104 72l720 969h-352q-11 0 -29 -20t-39 -52t-43.5 -72.5t-43.5 -81t-38 -77.5t-27 -62h-97v437h1361v-72l-713 -969h370q17 0 39.5 21.5t47 55t49.5 75t47 82t39 75.5t27 56h96v-437h-1414v72z" />
<glyph unicode="{" horiz-adv-x="946" d="M272 86q0 41 1 81.5t3 92.5q3 75 3 140q0 55 -5.5 104.5t-20.5 86.5t-42 58.5t-71 21.5v74q44 0 71 21.5t42 58.5t20.5 86.5t5.5 104.5q0 65 -3 140q-2 52 -3 92.5t-1 81.5q0 109 40.5 173t116.5 97t185.5 43t247.5 10v-69q-56 0 -90.5 -10.5t-53.5 -37t-25.5 -71.5 t-6.5 -115q0 -46 1 -88.5t3 -84.5q2 -53 3 -92.5t1 -82.5q0 -67 -27.5 -117.5t-71.5 -86.5t-99.5 -58t-112.5 -32q57 -10 112.5 -32t99.5 -58t71.5 -86.5t27.5 -117.5q0 -43 -1 -82.5t-3 -92.5q-2 -42 -3 -84.5t-1 -88.5q0 -70 6.5 -115t25.5 -71.5t53.5 -37t90.5 -10.5v-69 q-138 0 -247.5 10t-185.5 43t-116.5 97t-40.5 173z" />
<glyph unicode="|" horiz-adv-x="527" d="M212 1824h103v-2414h-103v2414z" />
<glyph unicode="}" horiz-adv-x="946" d="M140 -168q69 21 88 47.5t25.5 71.5t6.5 115q0 46 -1 88.5t-3 84.5q-2 53 -3 92.5t-1 82.5q0 67 27.5 117.5t71.5 86.5t99.5 58t112.5 32q-57 10 -112.5 32t-99.5 58t-71.5 86.5t-27.5 117.5q0 43 1 82.5t3 92.5q2 42 3 84.5t1 88.5q0 70 -6.5 115t-25.5 71.5t-53.5 37 t-90.5 10.5v69q138 0 247.5 -10t185.5 -43t116.5 -97t40.5 -173q0 -41 -1 -81.5t-3 -92.5q-3 -75 -3 -140q0 -55 5.5 -104.5t20.5 -86.5t42 -58.5t71 -21.5v-74q-44 0 -71 -21.5t-42 -58.5t-20.5 -86.5t-5.5 -104.5q0 -65 3 -140q2 -52 3 -92.5t1 -81.5q0 -109 -40.5 -173 t-116.5 -97t-185.5 -43t-247.5 -10v69h56z" />
<glyph unicode="~" horiz-adv-x="1488" d="M141 699q31 36 77.5 71.5t101.5 63.5t114 45t115 17q65 0 117.5 -17.5t106.5 -39.5q49 -20 102.5 -35.5t120.5 -15.5q77 0 155.5 15.5t150.5 38.5l45 -54q-31 -36 -77.5 -71.5t-101.5 -63.5t-114.5 -45t-114.5 -17q-66 0 -120 18t-108 41q-48 20 -100.5 34.5t-118.5 14.5 q-77 0 -155.5 -15.5t-150.5 -38.5z" />
<glyph unicode="&#xa1;" horiz-adv-x="912" d="M467 517q-56 0 -105 21t-86 57.5t-58 86t-21 105.5q0 55 21 104t58 86t86 58t105 21q55 0 104 -21t86 -58t58 -86t21 -104q0 -56 -21 -105.5t-58 -86t-86 -57.5t-104 -21zM136 -177q0 62 19.5 124.5t51 124t71 120t78.5 113.5q29 40 54.5 77t46.5 72q20 -34 45.5 -71 t53.5 -77q39 -55 78 -113.5t70.5 -120t51.5 -124t20 -125.5q0 -68 -25.5 -117.5t-69.5 -81t-102 -46.5t-122 -15q-66 0 -124 15t-102 46.5t-69.5 81t-25.5 117.5z" />
<glyph unicode="&#xa2;" horiz-adv-x="1589" d="M89 567q0 131 53 239t146.5 184.5t221.5 118.5t279 42h14v152h103v-156q151 -10 264 -43.5t188 -80.5t112.5 -103.5t37.5 -113.5q0 -44 -22 -82t-59.5 -66.5t-87.5 -45t-107 -16.5q-58 0 -109 16.5t-88.5 45t-59.5 66.5t-22 82q0 41 19.5 77.5t54 64.5t81 46t100.5 21 q-69 20 -134.5 31t-114.5 11q-14 0 -27.5 -1t-25.5 -3v-990q8 -1 16.5 -1h17.5q84 0 158 21t132.5 59.5t97.5 93t53 122.5h94q-10 -90 -55 -162t-119.5 -123t-174.5 -79t-220 -31v-163h-103v164q-176 8 -309.5 52.5t-223.5 121.5t-135.5 185t-45.5 244zM803 1009 q-27 -23 -47.5 -60.5t-34 -92.5t-20 -129t-6.5 -171q0 -104 6 -181t19.5 -132.5t33.5 -91t49 -55.5v913z" />
<glyph unicode="&#xa3;" horiz-adv-x="1835" d="M132 187q0 52 21.5 90t57 63.5t81.5 38t95 12.5q25 0 53 -1.5t60 -3.5l-52 81h-284v103h222q-14 27 -28 55t-27 58h-167v103h132q-12 44 -19 90t-7 95q0 91 24.5 162.5t69.5 125t107 91t137 61t160 34t176 10.5q178 0 320 -26t241.5 -75t153 -119t53.5 -158 q0 -57 -27 -100.5t-70.5 -73t-98 -44.5t-109.5 -15q-63 0 -118.5 18t-96.5 49.5t-65 73.5t-24 90q0 46 20 87t56 71.5t87 48t114 17.5q23 0 45 -2.5t44 -8.5q-63 29 -156 49t-193 20q-75 0 -123.5 -18t-77 -49.5t-39.5 -74t-11 -92.5q0 -53 1.5 -96.5t4.5 -83t7 -77.5t9 -80 h331v-103h-325q1 -18 1 -37.5v-40.5v-18t-1 -17h325v-103h-334q-5 -31 -12 -59t-15 -55q85 -8 168.5 -13t161.5 -5q70 0 143.5 4t137 18.5t110.5 42t66 74.5h65q4 -35 6.5 -68t2.5 -62q0 -89 -21 -159.5t-68 -120t-122 -76t-183 -26.5q-81 0 -158.5 16t-149.5 42.5 t-139 59.5t-127 67q-74 -94 -152.5 -139.5t-178.5 -45.5q-68 0 -121.5 17.5t-91.5 47.5t-58 71t-20 89zM291 189q0 -37 12.5 -64t33.5 -45t48 -26.5t56 -8.5t56.5 8.5t49.5 25.5t35 42.5t13 58.5q0 34 -17 69q-51 29 -92.5 47.5t-71.5 18.5q-25 0 -47 -9t-39 -25.5 t-27 -39.5t-10 -52z" />
<glyph unicode="&#xa4;" horiz-adv-x="1382" d="M319 251q-51 63 -80 140.5t-29 165.5q0 85 27.5 161t76.5 138l-190 191l71 72l190 -191q63 52 140.5 81t165.5 29t165 -29t140 -81l191 191l71 -72l-191 -191q50 -62 77.5 -138t27.5 -161q0 -88 -29 -165.5t-81 -140.5l196 -195l-71 -71l-197 195q-62 -49 -138 -76.5 t-161 -27.5q-86 0 -162 27.5t-138 77.5l-196 -196l-71 71zM310 557q0 -79 30 -148.5t81.5 -121t121 -81.5t148.5 -30t148 30t121 81.5t82 121t30 148.5t-30 148t-82 121t-121 82t-148 30t-148.5 -30t-121 -82t-81.5 -121t-30 -148z" />
<glyph unicode="&#xa5;" horiz-adv-x="1770" d="M327 328h252v117h-252v103h235l-413 791h-154v78h1068v-78h-181l327 -720l299 658q2 5 2.5 9.5t0.5 7.5q0 13 -13.5 21.5t-37.5 13.5t-57.5 7.5t-73.5 2.5v78h456v-78q-44 0 -74 -2.5t-49.5 -9.5t-31 -19t-20.5 -31l-336 -729h244v-103h-249v-117h249v-103h-249v-146h175 v-79h-1040v79h175v146h-252v103z" />
<glyph unicode="&#xa6;" horiz-adv-x="527" d="M212 1824h103v-1114h-103v1114zM315 524v-1114h-103v1114h103z" />
<glyph unicode="&#xa7;" horiz-adv-x="1484" d="M139 63q0 32 15 60.5t41.5 49.5t62.5 33.5t79 12.5q42 0 78 -12.5t62 -33.5t41 -49.5t15 -60.5q0 -17 -5.5 -35.5t-17 -36.5t-30 -33.5t-43.5 -25.5q16 -8 49.5 -15.5t78 -14.5t98 -11t110.5 -4q139 0 216.5 32.5t77.5 82.5q0 31 -29.5 56.5t-80 46.5t-117 39t-140.5 34 q-128 27 -232 56t-178 72.5t-114.5 109t-40.5 166.5q0 57 18 110.5t52 100t83.5 85t111.5 65.5q-100 52 -151 126.5t-51 189.5q0 96 43.5 171.5t120 128.5t180 81t222.5 28q109 0 203 -19.5t163.5 -52.5t109 -77.5t39.5 -94.5q0 -32 -13.5 -60.5t-38.5 -49.5t-59.5 -33 t-77.5 -12q-42 0 -78.5 12t-62.5 33t-41 49.5t-15 60.5q0 16 6 35.5t20 37.5t35.5 32t53.5 20q-17 10 -42.5 18t-57.5 14t-68.5 9t-74.5 3q-60 0 -116 -9.5t-98.5 -27.5t-68.5 -43.5t-26 -58.5q0 -34 26.5 -60.5t74.5 -47.5t114 -38t144 -32q118 -24 215.5 -55t167 -78 t107.5 -115t38 -166q0 -111 -56 -193.5t-156 -133.5q52 -24 92.5 -55t68.5 -71.5t42.5 -92.5t14.5 -118q0 -96 -44 -170.5t-123 -125t-188.5 -77t-240.5 -26.5q-70 0 -134.5 6.5t-122.5 18t-107 26t-88 30.5q-81 34 -121.5 82t-40.5 101zM439 814q0 -30 28 -55.5t78 -47.5 t120.5 -42t156.5 -39q48 -11 92.5 -22t85.5 -24q28 13 44 31t16 44q0 33 -29 58.5t-78.5 46.5t-116 39.5t-142.5 37.5q-104 25 -190 56q-30 -14 -47.5 -34t-17.5 -49z" />
<glyph unicode="&#xa8;" horiz-adv-x="941" d="M757 1316q-37 0 -69 13.5t-55.5 37.5t-37 55.5t-13.5 67.5t13.5 68t37 56t55.5 37.5t69 13.5q36 0 67.5 -13.5t55.5 -37.5t37.5 -56t13.5 -68t-13.5 -67.5t-37.5 -55.5t-55.5 -37.5t-67.5 -13.5zM185 1316q-36 0 -68 13.5t-56 37.5t-37.5 55.5t-13.5 67.5t13.5 68 t37.5 56t56 37.5t68 13.5t68 -13.5t55.5 -37.5t37 -56t13.5 -68t-13.5 -67.5t-37 -55.5t-55.5 -37.5t-68 -13.5z" />
<glyph unicode="&#xa9;" horiz-adv-x="1789" d="M148 708q0 103 26.5 198.5t75 178.5t117 151t151 117t178 75.5t198.5 26.5t198.5 -26.5t178.5 -75.5t151 -117t117 -151t75.5 -178.5t26.5 -198.5t-26.5 -198.5t-75.5 -178t-117 -151t-151 -117t-178.5 -75t-198.5 -26.5q-155 0 -290.5 58.5t-237 160t-160 237 t-58.5 290.5zM241 708q0 -90 23.5 -173.5t66 -156t102 -132t132 -102t156 -66t173.5 -23.5t173.5 23.5t156 66t132 102t102 132t66 156t23.5 173.5t-23.5 173.5t-66 156t-102 132t-132 102t-156 66t-173.5 23.5t-173.5 -23.5t-156 -66t-132 -102t-102 -132t-66 -156 t-23.5 -173.5zM396 678q0 102 33 189.5t98 151t163 100t228 36.5q47 0 95 -9t93 -26.5t85 -43.5t71 -60l47 76h52v-343h-68q-22 97 -56.5 159.5t-76 99t-87 50.5t-89.5 14q-31 0 -61.5 -12.5t-55 -49t-39.5 -102.5t-15 -173q0 -116 13.5 -193t38.5 -122.5t61 -64.5t82 -19 q54 0 103.5 15.5t88 52.5t63.5 98t31 151h74q-5 -86 -30.5 -160.5t-79 -130t-138 -87.5t-205.5 -32q-118 0 -213.5 32t-163.5 89.5t-105 137.5t-37 176z" />
<glyph unicode="&#xaa;" horiz-adv-x="1192" d="M400 675q-66 0 -112.5 15.5t-75 40.5t-41.5 57t-13 66q0 65 36 105t98 62.5t145.5 30t178.5 7.5v22q0 71 -8.5 112.5t-26 62.5t-44 27t-61.5 6q-19 0 -49 -2.5t-54 -7.5q53 -5 86 -28t33 -62q0 -24 -12 -44.5t-32.5 -36t-48.5 -24.5t-59 -9t-58.5 9t-48 24.5t-32.5 36 t-12 44.5q0 43 37.5 74.5t97 51.5t133.5 30t148 10q88 0 153 -12t108 -43t64.5 -84t21.5 -135v-236q0 -43 9 -65.5t32 -22.5q12 0 19.5 7.5t12 20t6 28.5t1.5 33v56h61v-56q0 -42 -12 -74t-38.5 -53.5t-69.5 -32.5t-105 -11q-42 0 -79.5 3t-68 12t-53 25t-34.5 42 q-17 -26 -45.5 -42t-61 -25t-66 -12t-60.5 -3zM549 767q29 0 48 21.5t19 56.5v153q-41 0 -66.5 -7.5t-40.5 -24t-20.5 -42.5t-5.5 -64q0 -42 15.5 -67.5t50.5 -25.5z" />
<glyph unicode="&#xab;" horiz-adv-x="1522" d="M1409 1090l43 -42l-438 -492l438 -492l-43 -42l-819 534zM859 1090l43 -42l-438 -492l438 -492l-43 -42l-819 534z" />
<glyph unicode="&#xac;" horiz-adv-x="1264" d="M209 1113h895v-495h-124v371h-771v124z" />
<glyph unicode="&#xad;" horiz-adv-x="1075" d="M90 715h895v-124h-895v124z" />
<glyph unicode="&#xae;" horiz-adv-x="1789" d="M148 708q0 103 26.5 198.5t75 178.5t117 151t151 117t178 75.5t198.5 26.5t198.5 -26.5t178.5 -75.5t151 -117t117 -151t75.5 -178.5t26.5 -198.5t-26.5 -198.5t-75.5 -178t-117 -151t-151 -117t-178.5 -75t-198.5 -26.5q-155 0 -290.5 58.5t-237 160t-160 237 t-58.5 290.5zM241 708q0 -90 23.5 -173.5t66 -156t102 -132t132 -102t156 -66t173.5 -23.5t173.5 23.5t156 66t132 102t102 132t66 156t23.5 173.5t-23.5 173.5t-66 156t-102 132t-132 102t-156 66t-173.5 23.5t-173.5 -23.5t-156 -66t-132 -102t-102 -132t-66 -156 t-23.5 -173.5zM450 346h67v732h-67v68h570q160 0 241.5 -63.5t81.5 -173.5q0 -43 -15.5 -80t-55.5 -64.5t-109.5 -43.5t-177.5 -18q101 -1 169 -13t109 -36t58.5 -59.5t17.5 -82.5v-24.5t-2 -32.5q-1 -11 -1 -21v-21q0 -27 4 -47.5t17 -28.5v-56q-26 -15 -66 -22.5t-87 -7.5 q-65 0 -107.5 12.5t-68 40t-35.5 72t-10 108.5q0 63 -4.5 101t-16.5 59t-32 28t-50 7v-401h-430v68zM880 748q33 0 54 5t33.5 21.5t17.5 48.5t5 86t-5 87.5t-17.5 51.5t-33.5 24t-54 6v-330z" />
<glyph unicode="&#xaf;" horiz-adv-x="941" d="M23 1455h895v-164h-895v164z" />
<glyph unicode="&#xb0;" horiz-adv-x="955" d="M478 855q-74 0 -139.5 28t-114 77t-77 114.5t-28.5 139.5t28.5 139.5t77 114t114 76.5t139.5 28t139.5 -28t114 -76.5t76.5 -114t28 -139.5t-28 -139.5t-76.5 -114.5t-114 -77t-139.5 -28zM478 1018q40 0 76 15.5t63 42t42.5 62t15.5 76.5q0 40 -15.5 76t-42.5 62.5 t-63 42t-76 15.5t-75.5 -15.5t-62.5 -42t-42.5 -62.5t-15.5 -76q0 -41 15.5 -76.5t42.5 -62t62.5 -42t75.5 -15.5z" />
<glyph unicode="&#xb1;" horiz-adv-x="1073" d="M474 591h-385v124h385v385h124v-385h386v-124h-386v-386h-124v386zM89 124h895v-124h-895v124z" />
<glyph unicode="&#xb2;" horiz-adv-x="1111" d="M166 787q44 37 92.5 81.5t94.5 93t88 99.5t74 102t50.5 101t18.5 96q0 39 -10.5 63t-27.5 37.5t-40 18t-48 4.5q-21 0 -40 -3q42 -17 67.5 -48.5t25.5 -69.5q0 -29 -14 -54t-39 -44t-58 -29.5t-70 -10.5q-38 0 -70.5 10.5t-57 29.5t-38.5 44t-14 54q0 41 27 73t76 53.5 t118 33t154 11.5q75 0 150.5 -13t136 -41.5t98 -74.5t37.5 -112q0 -68 -39 -117.5t-104 -84t-150.5 -56.5t-179.5 -36q-3 -5 -4 -14l-2 -12h403q13 17 25 41t17 42l54 -2l-41 -333h-760v67z" />
<glyph unicode="&#xb3;" horiz-adv-x="1056" d="M404 763q14 -2 26.5 -3t24.5 -1q31 0 57 8t45 26t29.5 47.5t10.5 73.5q0 42 -15 74.5t-41.5 55t-63 35t-78.5 15.5v56q40 4 76 20t63.5 42.5t43.5 61t16 75.5q0 40 -11.5 65.5t-31 40.5t-45 21t-53.5 6q-18 0 -36.5 -1t-40.5 -6q26 -6 48.5 -18t39 -28.5t26 -37 t9.5 -42.5q0 -28 -14 -52t-38 -42t-56 -28.5t-68 -10.5q-38 0 -70 10.5t-55.5 28.5t-37 42t-13.5 52q0 40 26 74t74 58.5t116 38t152 13.5q68 0 139 -11.5t129 -36.5t95 -64.5t37 -95.5q0 -99 -103 -149.5t-302 -52.5q93 -1 172 -8.5t136 -28.5t89.5 -57.5t32.5 -94.5 t-29.5 -100t-83.5 -69.5t-129 -41t-165 -13.5q-89 0 -162 10.5t-125.5 31.5t-81 52t-28.5 73q0 28 13.5 52.5t37 42.5t55.5 28.5t69 10.5t69.5 -10.5t56.5 -28.5t37.5 -42.5t13.5 -52.5q0 -37 -24 -67t-64 -47z" />
<glyph unicode="&#xb4;" horiz-adv-x="941" d="M129 1351q5 3 19 14.5t36 30.5q28 24 66 56.5t80.5 67t85.5 69.5t80.5 64.5t66.5 51t44 30.5q17 10 34 14t34 4q28 0 52.5 -12t43.5 -32t30 -46.5t11 -54.5q0 -33 -16 -62.5t-51 -49.5q-14 -8 -47 -22.5t-77 -32.5t-95 -38t-102 -39t-97.5 -36t-81.5 -29 q-26 -9 -43 -15.5t-23 -9.5z" />
<glyph unicode="&#xb6;" horiz-adv-x="1390" d="M1035 1417h260v-78h-175v-1560h175v-79h-260v1717zM830 -221v660h-219q-124 0 -221.5 35.5t-165 99.5t-103.5 153.5t-36 196.5q0 97 35.5 186t103 157.5t165.5 109t222 40.5h311v-1717h-266v79h174z" />
<glyph unicode="&#xb7;" horiz-adv-x="813" d="M407 362q-56 0 -105 21t-86 58t-58 85.5t-21 104.5t21 105.5t58 86t86 57.5t105 21q55 0 104 -21t86 -57.5t58 -86t21 -105.5t-21 -104.5t-58 -85.5t-86 -58t-104 -21z" />
<glyph unicode="&#xb8;" horiz-adv-x="941" d="M441 0v-188q47 23 96.5 31.5t88.5 8.5q46 0 84 -12.5t65.5 -35.5t42.5 -54.5t15 -68.5q0 -92 -69 -146t-214 -54q-72 0 -138.5 10.5t-123 27.5t-101 37.5t-74.5 41.5l25 54q17 -10 49.5 -22.5t72 -24t82.5 -19t81 -7.5q28 0 51.5 4t40.5 14.5t26.5 28.5t9.5 46 q0 41 -24 63t-60 22q-11 0 -24.5 -2.5t-24.5 -7.5h-51v253h74z" />
<glyph unicode="&#xb9;" horiz-adv-x="836" d="M150 779h126v580h-126v64q53 0 108.5 7.5t106.5 20.5t95.5 30t76.5 36h81v-738h124v-59h-592v59z" />
<glyph unicode="&#xba;" horiz-adv-x="1144" d="M572 675q-218 0 -325 85.5t-107 253.5q0 169 107 255t325 86q217 0 324.5 -86.5t107.5 -254.5q0 -167 -107.5 -253t-324.5 -86zM572 721q22 0 37.5 12.5t25 45.5t13.5 89.5t4 145.5t-4 146.5t-13.5 90.5t-25 45.5t-37.5 12.5t-37 -12.5t-24.5 -45.5t-14 -90.5 t-4.5 -146.5t4.5 -145.5t14 -89.5t24.5 -45.5t37 -12.5z" />
<glyph unicode="&#xbb;" horiz-adv-x="1522" d="M1058 556l-438 492l43 42l819 -534l-819 -534l-43 42zM508 556l-438 492l43 42l819 -534l-819 -534l-43 42z" />
<glyph unicode="&#xbc;" horiz-adv-x="1956" d="M120 679h126v580h-126v64q53 0 108.5 7.5t106.5 20.5t95.5 30t76.5 36h81v-738h124v-59h-592v59zM1673 1411l77 -79l-1309 -1309l-79 78zM1042 249l451 548h238v-548h118v-53h-118v-137h97v-59h-536v59h97v137h-347v53zM1389 249v301l-243 -301h243z" />
<glyph unicode="&#xbd;" horiz-adv-x="2159" d="M100 679h126v580h-126v64q53 0 108.5 7.5t106.5 20.5t95.5 30t76.5 36h81v-738h124v-59h-592v59zM1639 1411l77 -79l-1309 -1309l-79 78zM1214 67q44 37 92.5 81.5t94.5 93t88 99.5t74 102t50.5 101t18.5 96q0 39 -10.5 63t-27.5 37.5t-40 18t-48 4.5q-21 0 -40 -3 q42 -17 67.5 -48.5t25.5 -69.5q0 -29 -14 -54t-39 -44t-58 -29.5t-70 -10.5q-38 0 -70.5 10.5t-57 29.5t-38.5 44t-14 54q0 41 27 73t76 53.5t118 33t154 11.5q75 0 150.5 -13t136 -41.5t98 -74.5t37.5 -112q0 -68 -39 -117.5t-104 -84t-150.5 -56.5t-179.5 -36 q-3 -5 -4 -14l-2 -12h403q13 17 25 41t17 42l54 -2l-41 -333h-760v67z" />
<glyph unicode="&#xbe;" horiz-adv-x="2079" d="M404 663q14 -2 26.5 -3t24.5 -1q31 0 57 8t45 26t29.5 47.5t10.5 73.5q0 42 -15 74.5t-41.5 55t-63 35t-78.5 15.5v56q40 4 76 20t63.5 42.5t43.5 61t16 75.5q0 40 -11.5 65.5t-31 40.5t-45 21t-53.5 6q-18 0 -36.5 -1t-40.5 -6q26 -6 48.5 -18t39 -28.5t26 -37 t9.5 -42.5q0 -28 -14 -52t-38 -42t-56 -28.5t-68 -10.5q-38 0 -70 10.5t-55.5 28.5t-37 42t-13.5 52q0 40 26 74t74 58.5t116 38t152 13.5q68 0 139 -11.5t129 -36.5t95 -64.5t37 -95.5q0 -99 -103 -149.5t-302 -52.5q93 -1 172 -8.5t136 -28.5t89.5 -57.5t32.5 -94.5 t-29.5 -100t-83.5 -69.5t-129 -41t-165 -13.5q-89 0 -162 10.5t-125.5 31.5t-81 52t-28.5 73q0 28 13.5 52.5t37 42.5t55.5 28.5t69 10.5t69.5 -10.5t56.5 -28.5t37.5 -42.5t13.5 -52.5q0 -37 -24 -67t-64 -47zM1786 1411l77 -79l-1309 -1309l-79 78zM1165 249l451 548h238 v-548h118v-53h-118v-137h97v-59h-536v59h97v137h-347v53zM1512 249v301l-243 -301h243z" />
<glyph unicode="&#xbf;" horiz-adv-x="1542" d="M773 517q-56 0 -104.5 21t-85.5 57.5t-58 86t-21 105.5q0 55 21 104t58 86t85.5 58t104.5 21t105 -21t86 -58t58 -86t21 -104q0 -56 -21 -105.5t-58 -86t-86 -57.5t-105 -21zM76 -36q0 78 30 136t80.5 100.5t116 73t136.5 53t142.5 39.5t133.5 32.5t109.5 33t71.5 41.5 q0 -49 -16 -100.5t-39.5 -104.5t-51 -107.5t-51 -109t-39.5 -109.5t-16 -109q0 -88 57.5 -140.5t163.5 -52.5q34 0 79.5 5t89.5 15q-53 9 -99 31.5t-79.5 54t-52.5 70.5t-19 83q0 51 25.5 95.5t69 77.5t102.5 52t125 19q67 0 126 -19t102.5 -52t68.5 -77.5t25 -95.5 q0 -79 -47 -141.5t-138 -105.5t-225 -66t-307 -23q-126 0 -247 23.5t-216 72.5t-153 125t-58 180z" />
<glyph unicode="&#xc0;" horiz-adv-x="1892" d="M549 1666q-44 17 -64.5 50.5t-20.5 71.5q0 28 10 55t28 48t42.5 33.5t53.5 12.5q14 0 27.5 -2.5t26.5 -7.5q15 -7 45.5 -23t70 -38t85.5 -48t92 -53t89 -52.5t78 -45.5q34 -20 57 -33.5t29 -16.5l-24 -69q-8 2 -39 7t-77 13q-41 7 -91 15t-101.5 17t-102 18.5t-93.5 18 t-75 16t-46 13.5zM-15 79q81 0 124.5 11t55.5 40l515 1287h439l603 -1338h174v-79h-1134v79h193l-138 345h-440l-117 -291q-1 -3 -1 -8q0 -14 13.5 -22.5t38 -14t58 -7.5t73.5 -2v-79h-457v79zM786 503l-193 472l-185 -472h378z" />
<glyph unicode="&#xc1;" horiz-adv-x="1892" d="M598 1617q6 3 29 16.5t57 33.5t77.5 45.5t89.5 52.5t92 53t85.5 48t70 38t45.5 23q13 5 26.5 7.5t27.5 2.5q28 0 52.5 -12.5t42.5 -33.5t28.5 -48t10.5 -55q0 -38 -20.5 -71.5t-64.5 -50.5q-15 -6 -46.5 -13.5t-74.5 -16t-93.5 -18t-102 -18.5t-101.5 -17t-91 -15 q-46 -8 -77 -13t-39 -7zM-15 79q81 0 124.5 11t55.5 40l515 1287h439l603 -1338h174v-79h-1134v79h193l-138 345h-440l-117 -291q-1 -3 -1 -8q0 -14 13.5 -22.5t38 -14t58 -7.5t73.5 -2v-79h-457v79zM786 503l-193 472l-185 -472h378z" />
<glyph unicode="&#xc2;" horiz-adv-x="1892" d="M401 1580l497 357l497 -357l-58 -76l-439 148l-440 -148zM-15 79q81 0 124.5 11t55.5 40l515 1287h439l603 -1338h174v-79h-1134v79h193l-138 345h-440l-117 -291q-1 -3 -1 -8q0 -14 13.5 -22.5t38 -14t58 -7.5t73.5 -2v-79h-457v79zM786 503l-193 472l-185 -472h378z " />
<glyph unicode="&#xc3;" horiz-adv-x="1892" d="M373 1596q6 65 28.5 119t59 93t87.5 60.5t114 21.5q60 0 123.5 -20t129.5 -45q63 -23 125 -41.5t122 -18.5q56 0 108 22t100 79l55 -35q-6 -65 -28.5 -119t-59 -93t-87.5 -60.5t-114 -21.5q-54 0 -112.5 17t-118.5 40q-68 26 -135.5 47t-133.5 21q-57 0 -109 -22t-99 -79 zM-15 79q81 0 124.5 11t55.5 40l515 1287h439l603 -1338h174v-79h-1134v79h193l-138 345h-440l-117 -291q-1 -3 -1 -8q0 -14 13.5 -22.5t38 -14t58 -7.5t73.5 -2v-79h-457v79zM786 503l-193 472l-185 -472h378z" />
<glyph unicode="&#xc4;" horiz-adv-x="1892" d="M1185 1523q-37 0 -69 13.5t-55.5 37.5t-37 55.5t-13.5 67.5t13.5 68t37 56t55.5 37.5t69 13.5q36 0 67.5 -13.5t55.5 -37.5t37.5 -56t13.5 -68t-13.5 -67.5t-37.5 -55.5t-55.5 -37.5t-67.5 -13.5zM613 1523q-36 0 -68 13.5t-56 37.5t-37.5 55.5t-13.5 67.5t13.5 68 t37.5 56t56 37.5t68 13.5t68 -13.5t55.5 -37.5t37 -56t13.5 -68t-13.5 -67.5t-37 -55.5t-55.5 -37.5t-68 -13.5zM-15 79q81 0 124.5 11t55.5 40l515 1287h439l603 -1338h174v-79h-1134v79h193l-138 345h-440l-117 -291q-1 -3 -1 -8q0 -14 13.5 -22.5t38 -14t58 -7.5t73.5 -2 v-79h-457v79zM786 503l-193 472l-185 -472h378z" />
<glyph unicode="&#xc5;" horiz-adv-x="1892" d="M-15 79q81 0 124.5 11t55.5 40l515 1287h136q-16 4 -31 11q-44 19 -77 52t-52 77.5t-19 94.5t19 94t52 77t77.5 52t94.5 19t94 -19t77 -52t52 -77t19 -94t-19 -94.5t-52 -77.5t-77 -52q-16 -7 -32 -11h177l603 -1338h174v-79h-1134v79h193l-138 345h-440l-117 -291 q-1 -3 -1 -8q0 -14 13.5 -22.5t38 -14t58 -7.5t73.5 -2v-79h-457v79zM786 503l-193 472l-185 -472h378zM880 1519q27 0 51.5 10.5t42.5 28.5t28.5 42.5t10.5 51.5t-10.5 51.5t-28.5 42.5t-42.5 28.5t-51.5 10.5t-51.5 -10.5t-42.5 -28.5t-28.5 -42.5t-10.5 -51.5t10.5 -51.5 t28.5 -42.5t42.5 -28.5t51.5 -10.5z" />
<glyph unicode="&#xc6;" horiz-adv-x="2433" d="M-15 79q81 0 123 11.5t57 39.5l690 1287h1374v-487h-68l-278 409h-338v-595h151l132 330h65v-740h-65l-132 332h-151v-587h373l290 455h69v-534h-1615v79h193v345h-435l-149 -290q-2 -6 -2 -9q0 -14 13.5 -22.5t38 -14t58 -7.5t73.5 -2v-79h-467v79zM855 503v752 l-391 -752h391z" />
<glyph unicode="&#xc7;" horiz-adv-x="1847" d="M118 675q0 166 53 309t159.5 247.5t265.5 164t371 59.5q154 0 286 -47t244 -152l123 184h69v-649h-78q-36 159 -97.5 264t-135 167.5t-153 88t-150.5 25.5q-34 0 -67.5 -5.5t-64.5 -25t-58 -56.5t-46.5 -100.5t-31 -156.5t-11.5 -224q0 -137 8.5 -241t26 -180t43 -126 t60 -80t77.5 -42.5t94 -12.5q100 0 187 30.5t154 96.5t110.5 170t56.5 250h88q-5 -90 -24 -173.5t-54.5 -156t-88.5 -132.5t-127 -104.5t-170 -71t-216 -31.5v-114q47 23 96.5 31.5t88.5 8.5q46 0 84 -12.5t65.5 -35.5t42.5 -54.5t15 -68.5q0 -92 -69 -146t-214 -54 q-72 0 -138.5 10.5t-123 27.5t-101 37.5t-74.5 41.5l25 54q17 -10 49.5 -22.5t72 -24t82.5 -19t81 -7.5q28 0 51.5 4t40.5 14.5t26.5 28.5t9.5 46q0 41 -24 63t-60 22q-11 0 -24.5 -2.5t-24.5 -7.5h-51v177q-189 2 -342 55t-261 147t-167 224.5t-59 286.5z" />
<glyph unicode="&#xc8;" horiz-adv-x="1852" d="M589 1666q-44 17 -64.5 50.5t-20.5 71.5q0 28 10 55t28 48t42.5 33.5t53.5 12.5q14 0 27.5 -2.5t26.5 -7.5q15 -7 45.5 -23t70 -38t85.5 -48t92 -53t89 -52.5t78 -45.5q34 -20 57 -33.5t29 -16.5l-24 -69q-8 2 -39 7t-77 13q-41 7 -91 15t-101.5 17t-102 18.5t-93.5 18 t-75 16t-46 13.5zM99 79h175v1260h-175v78h1549v-487h-68l-278 409h-338v-595h151l132 330h65v-740h-65l-132 332h-151v-587h373l290 455h69v-534h-1597v79z" />
<glyph unicode="&#xc9;" horiz-adv-x="1852" d="M638 1617q6 3 29 16.5t57 33.5t77.5 45.5t89.5 52.5t92 53t85.5 48t70 38t45.5 23q13 5 26.5 7.5t27.5 2.5q28 0 52.5 -12.5t42.5 -33.5t28.5 -48t10.5 -55q0 -38 -20.5 -71.5t-64.5 -50.5q-15 -6 -46.5 -13.5t-74.5 -16t-93.5 -18t-102 -18.5t-101.5 -17t-91 -15 q-46 -8 -77 -13t-39 -7zM99 79h175v1260h-175v78h1549v-487h-68l-278 409h-338v-595h151l132 330h65v-740h-65l-132 332h-151v-587h373l290 455h69v-534h-1597v79z" />
<glyph unicode="&#xca;" horiz-adv-x="1852" d="M441 1580l497 357l497 -357l-58 -76l-439 148l-440 -148zM99 79h175v1260h-175v78h1549v-487h-68l-278 409h-338v-595h151l132 330h65v-740h-65l-132 332h-151v-587h373l290 455h69v-534h-1597v79z" />
<glyph unicode="&#xcb;" horiz-adv-x="1852" d="M1225 1543q-37 0 -69 13.5t-55.5 37.5t-37 55.5t-13.5 67.5t13.5 68t37 56t55.5 37.5t69 13.5q36 0 67.5 -13.5t55.5 -37.5t37.5 -56t13.5 -68t-13.5 -67.5t-37.5 -55.5t-55.5 -37.5t-67.5 -13.5zM653 1543q-36 0 -68 13.5t-56 37.5t-37.5 55.5t-13.5 67.5t13.5 68 t37.5 56t56 37.5t68 13.5t68 -13.5t55.5 -37.5t37 -56t13.5 -68t-13.5 -67.5t-37 -55.5t-55.5 -37.5t-68 -13.5zM99 79h175v1260h-175v78h1549v-487h-68l-278 409h-338v-595h151l132 330h65v-740h-65l-132 332h-151v-587h373l290 455h69v-534h-1597v79z" />
<glyph unicode="&#xcc;" horiz-adv-x="1237" d="M272 1666q-44 17 -64.5 50.5t-20.5 71.5q0 28 10 55t28 48t42.5 33.5t53.5 12.5q14 0 27.5 -2.5t26.5 -7.5q15 -7 45.5 -23t70 -38t85.5 -48t92 -53t89 -52.5t78 -45.5q34 -20 57 -33.5t29 -16.5l-24 -69q-8 2 -39 7t-77 13q-41 7 -91 15t-101.5 17t-102 18.5t-93.5 18 t-75 16t-46 13.5zM99 79h175v1260h-175v78h1039v-78h-174v-1260h174v-79h-1039v79z" />
<glyph unicode="&#xcd;" horiz-adv-x="1237" d="M321 1617q6 3 29 16.5t57 33.5t77.5 45.5t89.5 52.5t92 53t85.5 48t70 38t45.5 23q13 5 26.5 7.5t27.5 2.5q28 0 52.5 -12.5t42.5 -33.5t28.5 -48t10.5 -55q0 -38 -20.5 -71.5t-64.5 -50.5q-14 -6 -46 -13.5t-75 -16t-93.5 -18t-102 -18.5t-101.5 -17t-91 -15 q-46 -8 -77 -13t-39 -7zM99 79h175v1260h-175v78h1039v-78h-174v-1260h174v-79h-1039v79z" />
<glyph unicode="&#xce;" horiz-adv-x="1237" d="M124 1580l497 357l497 -357l-58 -76l-439 148l-440 -148zM99 79h175v1260h-175v78h1039v-78h-174v-1260h174v-79h-1039v79z" />
<glyph unicode="&#xcf;" horiz-adv-x="1237" d="M908 1523q-37 0 -69 13.5t-55.5 37.5t-37 55.5t-13.5 67.5t13.5 68t37 56t55.5 37.5t69 13.5q36 0 67.5 -13.5t55.5 -37.5t37.5 -56t13.5 -68t-13.5 -67.5t-37.5 -55.5t-55.5 -37.5t-67.5 -13.5zM336 1523q-36 0 -68 13.5t-56 37.5t-37.5 55.5t-13.5 67.5t13.5 68 t37.5 56t56 37.5t68 13.5t68 -13.5t55.5 -37.5t37 -56t13.5 -68t-13.5 -67.5t-37 -55.5t-55.5 -37.5t-68 -13.5zM99 79h175v1260h-175v78h1039v-78h-174v-1260h174v-79h-1039v79z" />
<glyph unicode="&#xd0;" horiz-adv-x="2024" d="M99 79h175v538h-212v124h212v598h-175v78h1115q159 0 287 -47.5t218 -138.5t138.5 -222.5t48.5 -299.5q0 -169 -48.5 -301t-138.5 -222.5t-218 -138t-287 -47.5h-1115v79zM964 79q47 0 85.5 9.5t67.5 35.5t50 70.5t34.5 114.5t20 168.5t6.5 231.5t-6.5 231t-20 168 t-34.5 115t-50 70.5t-67.5 35.5t-85.5 10v-598h143v-124h-143v-538z" />
<glyph unicode="&#xd1;" horiz-adv-x="1866" d="M488 1596q6 65 28.5 119t59 93t87.5 60.5t114 21.5q60 0 123.5 -20t129.5 -45q63 -23 125 -41.5t122 -18.5q56 0 108 22t100 79l55 -35q-6 -65 -28.5 -119t-59 -93t-87.5 -60.5t-114 -21.5q-54 0 -112.5 17t-118.5 40q-68 26 -135.5 47t-133.5 21q-57 0 -109 -22t-99 -79 zM46 79q43 0 83.5 2.5t71.5 8.5t49.5 17t18.5 29v1043l-122 160h-119v78h874l643 -847v710q0 18 -12.5 29.5t-36.5 18t-58 9t-77 2.5v78h453v-78q-86 0 -135 -11t-49 -48v-1280h-507l-769 1067v-926q0 -20 16.5 -32t45 -18.5t67.5 -9t83 -2.5v-79h-520v79z" />
<glyph unicode="&#xd2;" horiz-adv-x="1950" d="M626 1666q-44 17 -64.5 50.5t-20.5 71.5q0 28 10 55t28 48t42.5 33.5t53.5 12.5q14 0 27.5 -2.5t26.5 -7.5q15 -7 45.5 -23t70 -38t85.5 -48t92 -53t89 -52.5t78 -45.5q34 -20 57 -33.5t29 -16.5l-24 -69q-8 2 -39 7t-77 13q-41 7 -91 15t-101.5 17t-102 18.5t-93.5 18 t-75 16t-46 13.5zM118 709q0 99 20.5 193t64 177t111.5 152t163 119t219 77.5t279 27.5t279 -27.5t219.5 -77.5t163.5 -119t111 -152t63.5 -177t20.5 -193t-20.5 -193.5t-63.5 -177.5t-111 -152t-163.5 -119t-219.5 -77.5t-279 -27.5t-279 27.5t-219 77.5t-163 119 t-111.5 152t-64 177t-20.5 194zM975 31q52 0 86.5 31t55.5 108.5t29.5 208t8.5 330.5q0 199 -8.5 329.5t-29.5 208t-55.5 108.5t-86.5 31t-86.5 -31t-55 -108.5t-29 -208t-8.5 -329.5q0 -200 8.5 -330.5t29 -208t55 -108.5t86.5 -31z" />
<glyph unicode="&#xd3;" horiz-adv-x="1950" d="M675 1617q6 3 29 16.5t57 33.5t77.5 45.5t89.5 52.5t92 53t85.5 48t70 38t45.5 23q13 5 26.5 7.5t27.5 2.5q28 0 52.5 -12.5t42.5 -33.5t28.5 -48t10.5 -55q0 -38 -20.5 -71.5t-64.5 -50.5q-15 -6 -46.5 -13.5t-74.5 -16t-93.5 -18t-102 -18.5t-101.5 -17t-91 -15 q-46 -8 -77 -13t-39 -7zM118 709q0 99 20.5 193t64 177t111.5 152t163 119t219 77.5t279 27.5t279 -27.5t219.5 -77.5t163.5 -119t111 -152t63.5 -177t20.5 -193t-20.5 -193.5t-63.5 -177.5t-111 -152t-163.5 -119t-219.5 -77.5t-279 -27.5t-279 27.5t-219 77.5t-163 119 t-111.5 152t-64 177t-20.5 194zM975 31q52 0 86.5 31t55.5 108.5t29.5 208t8.5 330.5q0 199 -8.5 329.5t-29.5 208t-55.5 108.5t-86.5 31t-86.5 -31t-55 -108.5t-29 -208t-8.5 -329.5q0 -200 8.5 -330.5t29 -208t55 -108.5t86.5 -31z" />
<glyph unicode="&#xd4;" horiz-adv-x="1950" d="M478 1580l497 357l497 -357l-58 -76l-439 148l-440 -148zM118 709q0 99 20.5 193t64 177t111.5 152t163 119t219 77.5t279 27.5t279 -27.5t219.5 -77.5t163.5 -119t111 -152t63.5 -177t20.5 -193t-20.5 -193.5t-63.5 -177.5t-111 -152t-163.5 -119t-219.5 -77.5 t-279 -27.5t-279 27.5t-219 77.5t-163 119t-111.5 152t-64 177t-20.5 194zM975 31q52 0 86.5 31t55.5 108.5t29.5 208t8.5 330.5q0 199 -8.5 329.5t-29.5 208t-55.5 108.5t-86.5 31t-86.5 -31t-55 -108.5t-29 -208t-8.5 -329.5q0 -200 8.5 -330.5t29 -208t55 -108.5 t86.5 -31z" />
<glyph unicode="&#xd5;" horiz-adv-x="1950" d="M450 1596q6 65 28.5 119t59 93t87.5 60.5t114 21.5q60 0 123.5 -20t129.5 -45q63 -23 125 -41.5t122 -18.5q56 0 108 22t100 79l55 -35q-6 -65 -28.5 -119t-59 -93t-87.5 -60.5t-114 -21.5q-54 0 -112.5 17t-118.5 40q-68 26 -135.5 47t-133.5 21q-57 0 -109 -22t-99 -79 zM118 709q0 99 20.5 193t64 177t111.5 152t163 119t219 77.5t279 27.5t279 -27.5t219.5 -77.5t163.5 -119t111 -152t63.5 -177t20.5 -193t-20.5 -193.5t-63.5 -177.5t-111 -152t-163.5 -119t-219.5 -77.5t-279 -27.5t-279 27.5t-219 77.5t-163 119t-111.5 152t-64 177 t-20.5 194zM975 31q52 0 86.5 31t55.5 108.5t29.5 208t8.5 330.5q0 199 -8.5 329.5t-29.5 208t-55.5 108.5t-86.5 31t-86.5 -31t-55 -108.5t-29 -208t-8.5 -329.5q0 -200 8.5 -330.5t29 -208t55 -108.5t86.5 -31z" />
<glyph unicode="&#xd6;" horiz-adv-x="1950" d="M1262 1523q-37 0 -69 13.5t-55.5 37.5t-37 55.5t-13.5 67.5t13.5 68t37 56t55.5 37.5t69 13.5q36 0 67.5 -13.5t55.5 -37.5t37.5 -56t13.5 -68t-13.5 -67.5t-37.5 -55.5t-55.5 -37.5t-67.5 -13.5zM690 1523q-36 0 -68 13.5t-56 37.5t-37.5 55.5t-13.5 67.5t13.5 68 t37.5 56t56 37.5t68 13.5t68 -13.5t55.5 -37.5t37 -56t13.5 -68t-13.5 -67.5t-37 -55.5t-55.5 -37.5t-68 -13.5zM118 709q0 99 20.5 193t64 177t111.5 152t163 119t219 77.5t279 27.5t279 -27.5t219.5 -77.5t163.5 -119t111 -152t63.5 -177t20.5 -193t-20.5 -193.5 t-63.5 -177.5t-111 -152t-163.5 -119t-219.5 -77.5t-279 -27.5t-279 27.5t-219 77.5t-163 119t-111.5 152t-64 177t-20.5 194zM975 31q52 0 86.5 31t55.5 108.5t29.5 208t8.5 330.5q0 199 -8.5 329.5t-29.5 208t-55.5 108.5t-86.5 31t-86.5 -31t-55 -108.5t-29 -208 t-8.5 -329.5q0 -200 8.5 -330.5t29 -208t55 -108.5t86.5 -31z" />
<glyph unicode="&#xd7;" horiz-adv-x="1073" d="M141 294l308 308l-308 308l88 88l307 -308l308 308l88 -88l-308 -308l309 -308l-88 -87l-309 308l-308 -308z" />
<glyph unicode="&#xd8;" horiz-adv-x="1950" d="M577 23q-123 44 -210 114.5t-142.5 160.5t-81 194.5t-25.5 216.5q0 99 20.5 193t64 177t111.5 152t163 119t219 77.5t279 27.5q78 0 147 -7t132 -21l141 293l100 -50l-131 -273q125 -43 214 -114t145.5 -161t82.5 -195.5t26 -217.5q0 -99 -20.5 -193.5t-63.5 -177.5 t-111 -152t-163.5 -119t-219.5 -77.5t-279 -27.5q-81 0 -152 8t-135 22l-140 -291l-102 51zM1132 1174q-9 59 -23 99.5t-33.5 65.5t-44.5 36t-56 11q-52 0 -86.5 -31t-55 -108.5t-29 -208t-8.5 -329.5q0 -126 3 -225zM816 258q9 -64 22.5 -107.5t33 -70t45 -38t58.5 -11.5 q52 0 86.5 31t55.5 108.5t29.5 208t8.5 330.5q0 70 -1 130.5t-3 114.5z" />
<glyph unicode="&#xd9;" horiz-adv-x="1893" d="M842 1666q-44 17 -64.5 50.5t-20.5 71.5q0 28 10 55t28 48t42.5 33.5t53.5 12.5q14 0 27.5 -2.5t26.5 -7.5q15 -7 45.5 -23t70 -38t85.5 -48t92 -53t89 -52.5t78 -45.5q34 -20 57 -33.5t29 -16.5l-24 -69q-8 2 -39 7t-77 13q-41 7 -91 15t-101.5 17t-102 18.5t-93.5 18 t-75 16t-46 13.5zM255 1339h-175v78h1039v-78h-174v-772q0 -94 10 -179t41.5 -149.5t90 -102.5t155.5 -38q37 0 76 7.5t75.5 28.5t69 58t57 95.5t38.5 141t14 195.5v656q0 29 -44.5 44t-131.5 15v78h435v-78q-86 0 -130 -15t-44 -44v-628q0 -182 -33.5 -312.5t-113 -214.5 t-211 -123.5t-327.5 -39.5q-136 0 -242 24t-186 67.5t-135 104t-89 133t-49.5 154.5t-15.5 169v725z" />
<glyph unicode="&#xda;" horiz-adv-x="1893" d="M891 1617q6 3 29 16.5t57 33.5t77.5 45.5t89.5 52.5t92 53t85.5 48t70 38t45.5 23q13 5 26.5 7.5t27.5 2.5q28 0 52.5 -12.5t42.5 -33.5t28.5 -48t10.5 -55q0 -38 -20.5 -71.5t-64.5 -50.5q-14 -6 -46 -13.5t-75 -16t-93.5 -18t-102 -18.5t-101.5 -17t-91 -15 q-46 -8 -77 -13t-39 -7zM255 1339h-175v78h1039v-78h-174v-772q0 -94 10 -179t41.5 -149.5t90 -102.5t155.5 -38q37 0 76 7.5t75.5 28.5t69 58t57 95.5t38.5 141t14 195.5v656q0 29 -44.5 44t-131.5 15v78h435v-78q-86 0 -130 -15t-44 -44v-628q0 -182 -33.5 -312.5 t-113 -214.5t-211 -123.5t-327.5 -39.5q-136 0 -242 24t-186 67.5t-135 104t-89 133t-49.5 154.5t-15.5 169v725z" />
<glyph unicode="&#xdb;" horiz-adv-x="1893" d="M694 1580l497 357l497 -357l-58 -76l-439 148l-440 -148zM255 1339h-175v78h1039v-78h-174v-772q0 -94 10 -179t41.5 -149.5t90 -102.5t155.5 -38q37 0 76 7.5t75.5 28.5t69 58t57 95.5t38.5 141t14 195.5v656q0 29 -44.5 44t-131.5 15v78h435v-78q-86 0 -130 -15 t-44 -44v-628q0 -182 -33.5 -312.5t-113 -214.5t-211 -123.5t-327.5 -39.5q-136 0 -242 24t-186 67.5t-135 104t-89 133t-49.5 154.5t-15.5 169v725z" />
<glyph unicode="&#xdc;" horiz-adv-x="1893" d="M1478 1523q-37 0 -69 13.5t-55.5 37.5t-37 55.5t-13.5 67.5t13.5 68t37 56t55.5 37.5t69 13.5q36 0 67.5 -13.5t55.5 -37.5t37.5 -56t13.5 -68t-13.5 -67.5t-37.5 -55.5t-55.5 -37.5t-67.5 -13.5zM906 1523q-36 0 -68 13.5t-56 37.5t-37.5 55.5t-13.5 67.5t13.5 68 t37.5 56t56 37.5t68 13.5t68 -13.5t55.5 -37.5t37 -56t13.5 -68t-13.5 -67.5t-37 -55.5t-55.5 -37.5t-68 -13.5zM255 1339h-175v78h1039v-78h-174v-772q0 -94 10 -179t41.5 -149.5t90 -102.5t155.5 -38q37 0 76 7.5t75.5 28.5t69 58t57 95.5t38.5 141t14 195.5v656 q0 29 -44.5 44t-131.5 15v78h435v-78q-86 0 -130 -15t-44 -44v-628q0 -182 -33.5 -312.5t-113 -214.5t-211 -123.5t-327.5 -39.5q-136 0 -242 24t-186 67.5t-135 104t-89 133t-49.5 154.5t-15.5 169v725z" />
<glyph unicode="&#xdd;" horiz-adv-x="1770" d="M916 1617q6 3 29 16.5t57 33.5t77.5 45.5t89.5 52.5t92 53t85.5 48t70 38t45.5 23q13 5 26.5 7.5t27.5 2.5q28 0 52.5 -12.5t42.5 -33.5t28.5 -48t10.5 -55q0 -38 -20.5 -71.5t-64.5 -50.5q-15 -6 -46.5 -13.5t-74.5 -16t-93.5 -18t-102 -18.5t-101.5 -17t-91 -15 q-46 -8 -77 -13t-39 -7zM404 79h175v421l-431 839h-153v78h1068v-78h-170l325 -693l290 631q3 7 3 17q0 13 -13.5 21.5t-37.5 13.5t-57.5 7.5t-73.5 2.5v78h456v-78q-44 0 -74 -2.5t-49.5 -9.5t-31 -19t-20.5 -31l-341 -731v-467h175v-79h-1040v79z" />
<glyph unicode="&#xde;" horiz-adv-x="1942" d="M99 79h175v1260h-175v78h1039v-78h-174v-122h250q159 0 287 -28t218 -88.5t138.5 -157t48.5 -234.5t-48.5 -235t-138.5 -158t-218 -88.5t-287 -27.5h-250v-121h174v-79h-1039v79zM964 279q71 0 121.5 30t82 85.5t46 135.5t14.5 179t-14.5 178.5t-46 135.5t-82 86 t-121.5 30v-860z" />
<glyph unicode="&#xdf;" horiz-adv-x="2076" d="M70 72h176v874h-176v72h176v45q0 139 46.5 232.5t138 150t227.5 80.5t315 24q345 0 510.5 -75.5t165.5 -218.5q0 -44 -17.5 -76.5t-46 -58t-64 -45t-70.5 -37.5q-29 -15 -56 -29t-48 -30.5t-33.5 -35.5t-12.5 -43q0 -25 17 -44t46 -34.5t67.5 -29t82.5 -27.5 q57 -18 118.5 -38t120 -45.5t111 -58.5t92 -76.5t62.5 -100t23 -129.5q0 -78 -30 -143.5t-88.5 -112.5t-145 -73.5t-199.5 -26.5q-61 0 -123.5 11.5t-121.5 34t-111.5 56t-93.5 76.5l-72 -163h-83v369h74q57 -78 114.5 -132t110.5 -87.5t100.5 -48t85.5 -14.5q50 0 80 21.5 t30 54.5q0 22 -14.5 42.5t-39 41t-58 41t-71.5 43.5q-60 36 -125.5 76.5t-120 91t-89.5 112t-35 138.5q0 43 9 81t24 72t34 65.5t39 61.5t39 60t33.5 62.5t23.5 67.5t9 75q0 54 -17 94t-45.5 65.5t-67 38t-81.5 12.5q-62 0 -103.5 -19.5t-66 -50.5t-34.5 -68.5t-10 -74.5 q0 -45 6.5 -78.5t14 -66.5t14 -71t6.5 -93v-959h-772v72z" />
<glyph unicode="&#xe0;" horiz-adv-x="1842" d="M619 1495q-35 20 -51 49.5t-16 62.5q0 28 11 54.5t29.5 46.5t43.5 32t53 12q17 0 34 -4t34 -14q14 -8 43.5 -30t67 -51.5t80.5 -64.5t85.5 -69.5t80.5 -67t66 -56.5q22 -19 36 -30.5t19 -14.5l-50 -77q-6 3 -23 9.5t-43 15.5q-35 12 -81.5 29t-97.5 36t-102 39t-95 38 t-77 32.5t-47 22.5zM131 262q0 77 29 132.5t82 94t127 62t164.5 36.5t194.5 17.5t216 4.5v56q0 128 -17.5 205t-53 118t-87.5 53.5t-121 12.5q-37 0 -78.5 -6t-73.5 -14q46 -5 85 -23t67 -45t43.5 -60t15.5 -67q0 -42 -21 -79t-58 -64.5t-86 -43.5t-105 -16t-104.5 16 t-85 43.5t-57.5 64.5t-21 79q0 56 30.5 101t83 79.5t124 59.5t153.5 41t170.5 23.5t176.5 7.5q156 0 271.5 -21.5t192 -76t114.5 -149t38 -239.5v-419q0 -75 15.5 -115.5t57.5 -40.5q21 0 34.5 13.5t21 35.5t10.5 51t3 59v99h89v-99q0 -80 -20.5 -135t-71 -89t-135 -48.5 t-212.5 -14.5q-65 0 -121.5 7t-103 24t-80.5 45t-54 70q-30 -46 -80 -74.5t-108 -44.5t-117 -21.5t-108 -5.5q-117 0 -199 24.5t-133 65.5t-74 95.5t-23 114.5zM708 273q0 -74 27 -119.5t89 -45.5q52 0 86 37.5t34 100.5v271q-72 0 -118 -13t-72.5 -41.5t-36 -75.5 t-9.5 -114z" />
<glyph unicode="&#xe1;" horiz-adv-x="1842" d="M615 1351q5 3 19 14.5t36 30.5q28 24 66 56.5t80.5 67t85.5 69.5t80.5 64.5t66.5 51t44 30.5q17 10 34 14t34 4q28 0 52.5 -12t43.5 -32t30 -46.5t11 -54.5q0 -33 -16 -62.5t-51 -49.5q-14 -8 -47 -22.5t-77 -32.5t-95 -38t-102 -39t-97.5 -36t-81.5 -29 q-26 -9 -43 -15.5t-23 -9.5zM131 262q0 77 29 132.5t82 94t127 62t164.5 36.5t194.5 17.5t216 4.5v56q0 128 -17.5 205t-53 118t-87.5 53.5t-121 12.5q-37 0 -78.5 -6t-73.5 -14q46 -5 85 -23t67 -45t43.5 -60t15.5 -67q0 -42 -21 -79t-58 -64.5t-86 -43.5t-105 -16 t-104.5 16t-85 43.5t-57.5 64.5t-21 79q0 56 30.5 101t83 79.5t124 59.5t153.5 41t170.5 23.5t176.5 7.5q156 0 271.5 -21.5t192 -76t114.5 -149t38 -239.5v-419q0 -75 15.5 -115.5t57.5 -40.5q21 0 34.5 13.5t21 35.5t10.5 51t3 59v99h89v-99q0 -80 -20.5 -135t-71 -89 t-135 -48.5t-212.5 -14.5q-65 0 -121.5 7t-103 24t-80.5 45t-54 70q-30 -46 -80 -74.5t-108 -44.5t-117 -21.5t-108 -5.5q-117 0 -199 24.5t-133 65.5t-74 95.5t-23 114.5zM708 273q0 -74 27 -119.5t89 -45.5q52 0 86 37.5t34 100.5v271q-72 0 -118 -13t-72.5 -41.5 t-36 -75.5t-9.5 -114z" />
<glyph unicode="&#xe2;" horiz-adv-x="1842" d="M428 1329l487 437l487 -437l-48 -66l-439 198l-440 -198zM131 262q0 77 29 132.5t82 94t127 62t164.5 36.5t194.5 17.5t216 4.5v56q0 128 -17.5 205t-53 118t-87.5 53.5t-121 12.5q-37 0 -78.5 -6t-73.5 -14q46 -5 85 -23t67 -45t43.5 -60t15.5 -67q0 -42 -21 -79 t-58 -64.5t-86 -43.5t-105 -16t-104.5 16t-85 43.5t-57.5 64.5t-21 79q0 56 30.5 101t83 79.5t124 59.5t153.5 41t170.5 23.5t176.5 7.5q156 0 271.5 -21.5t192 -76t114.5 -149t38 -239.5v-419q0 -75 15.5 -115.5t57.5 -40.5q21 0 34.5 13.5t21 35.5t10.5 51t3 59v99h89v-99 q0 -80 -20.5 -135t-71 -89t-135 -48.5t-212.5 -14.5q-65 0 -121.5 7t-103 24t-80.5 45t-54 70q-30 -46 -80 -74.5t-108 -44.5t-117 -21.5t-108 -5.5q-117 0 -199 24.5t-133 65.5t-74 95.5t-23 114.5zM708 273q0 -74 27 -119.5t89 -45.5q52 0 86 37.5t34 100.5v271 q-72 0 -118 -13t-72.5 -41.5t-36 -75.5t-9.5 -114z" />
<glyph unicode="&#xe3;" horiz-adv-x="1842" d="M415 1369q6 65 28.5 119t59 93t87.5 60.5t114 21.5q58 0 120.5 -19.5t127.5 -43.5q64 -23 127.5 -42.5t124.5 -19.5q56 0 108 22t100 79l55 -35q-6 -65 -28.5 -119t-59 -93t-87.5 -60.5t-114 -21.5q-54 0 -113 17t-119 40q-68 26 -135.5 47t-132.5 21q-57 0 -109 -22 t-99 -79zM131 262q0 77 29 132.5t82 94t127 62t164.5 36.5t194.5 17.5t216 4.5v56q0 128 -17.5 205t-53 118t-87.5 53.5t-121 12.5q-37 0 -78.5 -6t-73.5 -14q46 -5 85 -23t67 -45t43.5 -60t15.5 -67q0 -42 -21 -79t-58 -64.5t-86 -43.5t-105 -16t-104.5 16t-85 43.5 t-57.5 64.5t-21 79q0 56 30.5 101t83 79.5t124 59.5t153.5 41t170.5 23.5t176.5 7.5q156 0 271.5 -21.5t192 -76t114.5 -149t38 -239.5v-419q0 -75 15.5 -115.5t57.5 -40.5q21 0 34.5 13.5t21 35.5t10.5 51t3 59v99h89v-99q0 -80 -20.5 -135t-71 -89t-135 -48.5 t-212.5 -14.5q-65 0 -121.5 7t-103 24t-80.5 45t-54 70q-30 -46 -80 -74.5t-108 -44.5t-117 -21.5t-108 -5.5q-117 0 -199 24.5t-133 65.5t-74 95.5t-23 114.5zM708 273q0 -74 27 -119.5t89 -45.5q52 0 86 37.5t34 100.5v271q-72 0 -118 -13t-72.5 -41.5t-36 -75.5 t-9.5 -114z" />
<glyph unicode="&#xe4;" horiz-adv-x="1842" d="M1198 1316q-37 0 -69 13.5t-55.5 37.5t-37 55.5t-13.5 67.5t13.5 68t37 56t55.5 37.5t69 13.5q36 0 67.5 -13.5t55.5 -37.5t37.5 -56t13.5 -68t-13.5 -67.5t-37.5 -55.5t-55.5 -37.5t-67.5 -13.5zM626 1316q-36 0 -68 13.5t-56 37.5t-37.5 55.5t-13.5 67.5t13.5 68 t37.5 56t56 37.5t68 13.5t68 -13.5t55.5 -37.5t37 -56t13.5 -68t-13.5 -67.5t-37 -55.5t-55.5 -37.5t-68 -13.5zM131 262q0 77 29 132.5t82 94t127 62t164.5 36.5t194.5 17.5t216 4.5v56q0 128 -17.5 205t-53 118t-87.5 53.5t-121 12.5q-37 0 -78.5 -6t-73.5 -14 q46 -5 85 -23t67 -45t43.5 -60t15.5 -67q0 -42 -21 -79t-58 -64.5t-86 -43.5t-105 -16t-104.5 16t-85 43.5t-57.5 64.5t-21 79q0 56 30.5 101t83 79.5t124 59.5t153.5 41t170.5 23.5t176.5 7.5q156 0 271.5 -21.5t192 -76t114.5 -149t38 -239.5v-419q0 -75 15.5 -115.5 t57.5 -40.5q21 0 34.5 13.5t21 35.5t10.5 51t3 59v99h89v-99q0 -80 -20.5 -135t-71 -89t-135 -48.5t-212.5 -14.5q-65 0 -121.5 7t-103 24t-80.5 45t-54 70q-30 -46 -80 -74.5t-108 -44.5t-117 -21.5t-108 -5.5q-117 0 -199 24.5t-133 65.5t-74 95.5t-23 114.5zM708 273 q0 -74 27 -119.5t89 -45.5q52 0 86 37.5t34 100.5v271q-72 0 -118 -13t-72.5 -41.5t-36 -75.5t-9.5 -114z" />
<glyph unicode="&#xe5;" horiz-adv-x="1842" d="M915 1253q-50 0 -94.5 19t-77.5 52t-52 77.5t-19 94.5t19 94t52 77t77.5 52t94.5 19t94 -19t77 -52t52 -77t19 -94t-19 -94.5t-52 -77.5t-77 -52t-94 -19zM915 1363q27 0 51.5 10.5t42.5 28.5t28.5 42.5t10.5 51.5t-10.5 51.5t-28.5 42.5t-42.5 28.5t-51.5 10.5 t-51.5 -10.5t-42.5 -28.5t-28.5 -42.5t-10.5 -51.5t10.5 -51.5t28.5 -42.5t42.5 -28.5t51.5 -10.5zM131 262q0 77 29 132.5t82 94t127 62t164.5 36.5t194.5 17.5t216 4.5v56q0 128 -17.5 205t-53 118t-87.5 53.5t-121 12.5q-37 0 -78.5 -6t-73.5 -14q46 -5 85 -23t67 -45 t43.5 -60t15.5 -67q0 -42 -21 -79t-58 -64.5t-86 -43.5t-105 -16t-104.5 16t-85 43.5t-57.5 64.5t-21 79q0 56 30.5 101t83 79.5t124 59.5t153.5 41t170.5 23.5t176.5 7.5q156 0 271.5 -21.5t192 -76t114.5 -149t38 -239.5v-419q0 -75 15.5 -115.5t57.5 -40.5 q21 0 34.5 13.5t21 35.5t10.5 51t3 59v99h89v-99q0 -80 -20.5 -135t-71 -89t-135 -48.5t-212.5 -14.5q-65 0 -121.5 7t-103 24t-80.5 45t-54 70q-30 -46 -80 -74.5t-108 -44.5t-117 -21.5t-108 -5.5q-117 0 -199 24.5t-133 65.5t-74 95.5t-23 114.5zM708 273 q0 -74 27 -119.5t89 -45.5q52 0 86 37.5t34 100.5v271q-72 0 -118 -13t-72.5 -41.5t-36 -75.5t-9.5 -114z" />
<glyph unicode="&#xe6;" horiz-adv-x="2457" d="M136 262q0 77 29 132.5t82 94t127 62t164.5 36.5t194.5 17.5t216 4.5v56q0 128 -17.5 205t-53 118t-87.5 53.5t-121 12.5q-37 0 -78.5 -6t-73.5 -14q46 -5 85 -23t67 -45t43.5 -60t15.5 -67q0 -42 -21 -79t-58 -64.5t-86 -43.5t-105 -16t-104.5 16t-85 43.5t-57.5 64.5 t-21 79q0 56 30.5 101t83 79.5t124 59.5t153.5 41t170.5 23.5t176.5 7.5q129 0 229 -14.5t175 -49.5q158 64 354 64q120 0 217.5 -24t173 -65.5t130 -98.5t90 -123t52.5 -138.5t17 -145.5h-802q0 -153 13.5 -249t43 -150.5t76 -74.5t112.5 -20q84 0 158 21t132.5 59.5 t97.5 93t53 122.5h94q-5 -91 -51.5 -164.5t-125 -125t-185 -79t-230.5 -27.5q-162 0 -278 16t-197 45t-132.5 68t-83.5 86q-22 -44 -58 -77.5t-80.5 -57t-93.5 -39t-97.5 -25t-92 -13t-75.5 -3.5q-117 0 -199 24.5t-133 65.5t-74 95.5t-23 114.5zM1846 657q-3 125 -12 208 t-26 133t-42 70.5t-60 20.5t-60.5 -20.5t-42.5 -70.5t-26 -133t-11 -208h280zM713 273q0 -74 27 -119.5t89 -45.5q52 0 86 37.5t34 100.5v271q-72 0 -118 -13t-72.5 -41.5t-36 -75.5t-9.5 -114z" />
<glyph unicode="&#xe7;" horiz-adv-x="1589" d="M89 567q0 131 53 239t146.5 184.5t221.5 118.5t279 42q192 0 328.5 -32t223 -82.5t127 -111.5t40.5 -119q0 -44 -22 -82t-59.5 -66.5t-87.5 -45t-107 -16.5q-58 0 -109 16.5t-88.5 45t-59.5 66.5t-22 82q0 41 19.5 77.5t54 64.5t81 46t100.5 21q-48 17 -104 30.5 t-112 13.5q-75 0 -130.5 -20t-92.5 -75t-55.5 -153t-18.5 -255q0 -153 13.5 -249t43 -150.5t76 -74.5t112.5 -20q84 0 158 21t132.5 59.5t97.5 93t53 122.5h94q-10 -93 -57 -166.5t-124.5 -124.5t-182 -78t-228.5 -27q-5 0 -10 0.5t-10 0.5v-113q47 23 96.5 31.5t88.5 8.5 q46 0 84 -12.5t65.5 -35.5t42.5 -54.5t15 -68.5q0 -92 -69 -146t-214 -54q-72 0 -138.5 10.5t-123 27.5t-101 37.5t-74.5 41.5l25 54q17 -10 49.5 -22.5t72 -24t82.5 -19t81 -7.5q28 0 51.5 4t40.5 14.5t26.5 28.5t9.5 46q0 41 -24 63t-60 22q-11 0 -24.5 -2.5t-24.5 -7.5 h-51v180q-172 9 -303 54t-219 122t-133 184t-45 242z" />
<glyph unicode="&#xe8;" horiz-adv-x="1587" d="M536 1495q-35 20 -51 49.5t-16 62.5q0 28 11 54.5t29.5 46.5t43.5 32t53 12q17 0 34 -4t34 -14q14 -8 43.5 -30t67 -51.5t80.5 -64.5t85.5 -69.5t80.5 -67t66 -56.5q22 -19 36 -30.5t19 -14.5l-50 -77q-6 3 -23 9.5t-43 15.5q-35 12 -81.5 29t-97.5 36t-102 39t-95 38 t-77 32.5t-47 22.5zM89 567q0 134 55 242t152.5 184t231 117t289.5 41q120 0 217.5 -24t173 -65.5t130 -98.5t90 -123t52.5 -138.5t17 -145.5h-802q0 -153 13.5 -249t43 -150.5t76 -74.5t112.5 -20q84 0 158 21t132.5 59.5t97.5 93t53 122.5h94q-10 -93 -57 -166.5 t-124.5 -124.5t-182 -78t-228.5 -27q-195 0 -343.5 40.5t-248.5 118t-151 190t-51 256.5zM976 657q-3 125 -12 208t-26 133t-42 70.5t-60 20.5t-60.5 -20.5t-42.5 -70.5t-26 -133t-11 -208h280z" />
<glyph unicode="&#xe9;" horiz-adv-x="1587" d="M532 1351q5 3 19 14.5t36 30.5q28 24 66 56.5t80.5 67t85.5 69.5t80.5 64.5t66.5 51t44 30.5q17 10 34 14t34 4q28 0 52.5 -12t43.5 -32t30 -46.5t11 -54.5q0 -33 -16 -62.5t-51 -49.5q-14 -8 -47 -22.5t-77 -32.5t-95 -38t-102 -39t-97.5 -36t-81.5 -29 q-26 -9 -43 -15.5t-23 -9.5zM89 567q0 134 55 242t152.5 184t231 117t289.5 41q120 0 217.5 -24t173 -65.5t130 -98.5t90 -123t52.5 -138.5t17 -145.5h-802q0 -153 13.5 -249t43 -150.5t76 -74.5t112.5 -20q84 0 158 21t132.5 59.5t97.5 93t53 122.5h94q-10 -93 -57 -166.5 t-124.5 -124.5t-182 -78t-228.5 -27q-195 0 -343.5 40.5t-248.5 118t-151 190t-51 256.5zM976 657q-3 125 -12 208t-26 133t-42 70.5t-60 20.5t-60.5 -20.5t-42.5 -70.5t-26 -133t-11 -208h280z" />
<glyph unicode="&#xea;" horiz-adv-x="1587" d="M345 1329l487 437l487 -437l-48 -66l-439 198l-440 -198zM89 567q0 134 55 242t152.5 184t231 117t289.5 41q120 0 217.5 -24t173 -65.5t130 -98.5t90 -123t52.5 -138.5t17 -145.5h-802q0 -153 13.5 -249t43 -150.5t76 -74.5t112.5 -20q84 0 158 21t132.5 59.5t97.5 93 t53 122.5h94q-10 -93 -57 -166.5t-124.5 -124.5t-182 -78t-228.5 -27q-195 0 -343.5 40.5t-248.5 118t-151 190t-51 256.5zM976 657q-3 125 -12 208t-26 133t-42 70.5t-60 20.5t-60.5 -20.5t-42.5 -70.5t-26 -133t-11 -208h280z" />
<glyph unicode="&#xeb;" horiz-adv-x="1587" d="M1115 1316q-37 0 -69 13.5t-55.5 37.5t-37 55.5t-13.5 67.5t13.5 68t37 56t55.5 37.5t69 13.5q36 0 67.5 -13.5t55.5 -37.5t37.5 -56t13.5 -68t-13.5 -67.5t-37.5 -55.5t-55.5 -37.5t-67.5 -13.5zM543 1316q-36 0 -68 13.5t-56 37.5t-37.5 55.5t-13.5 67.5t13.5 68 t37.5 56t56 37.5t68 13.5t68 -13.5t55.5 -37.5t37 -56t13.5 -68t-13.5 -67.5t-37 -55.5t-55.5 -37.5t-68 -13.5zM89 567q0 134 55 242t152.5 184t231 117t289.5 41q120 0 217.5 -24t173 -65.5t130 -98.5t90 -123t52.5 -138.5t17 -145.5h-802q0 -153 13.5 -249t43 -150.5 t76 -74.5t112.5 -20q84 0 158 21t132.5 59.5t97.5 93t53 122.5h94q-10 -93 -57 -166.5t-124.5 -124.5t-182 -78t-228.5 -27q-195 0 -343.5 40.5t-248.5 118t-151 190t-51 256.5zM976 657q-3 125 -12 208t-26 133t-42 70.5t-60 20.5t-60.5 -20.5t-42.5 -70.5t-26 -133 t-11 -208h280z" />
<glyph unicode="&#xec;" horiz-adv-x="1077" d="M719 1298q-35 12 -81.5 29t-97.5 36t-102 39t-95 38t-77 32.5t-47 22.5q-35 20 -51 49.5t-16 62.5q0 28 11 54.5t29.5 46.5t43.5 32t53 12q17 0 34 -4t34 -14q15 -8 44 -30t66.5 -51.5t80.5 -64.5t85.5 -69.5t80.5 -67t66 -56.5q22 -19 36 -30.5t19 -14.5l-50 -77 q-6 3 -23 9.5t-43 15.5zM80 72h175v969h-175v72h770v-1041h175v-72h-945v72z" />
<glyph unicode="&#xed;" horiz-adv-x="1077" d="M215 1351q5 3 19 14.5t36 30.5q28 24 66 56.5t80.5 67t85.5 69.5t80.5 64.5t66.5 51t44 30.5q17 10 34 14t34 4q28 0 52.5 -12t43.5 -32t30 -46.5t11 -54.5q0 -33 -16 -62.5t-51 -49.5q-14 -8 -47 -22.5t-77 -32.5t-95 -38t-102 -39t-97.5 -36t-81.5 -29 q-26 -9 -43 -15.5t-23 -9.5zM80 72h175v969h-175v72h770v-1041h175v-72h-945v72z" />
<glyph unicode="&#xee;" horiz-adv-x="1077" d="M28 1329l487 437l487 -437l-48 -66l-439 198l-440 -198zM80 72h175v969h-175v72h770v-1041h175v-72h-945v72z" />
<glyph unicode="&#xef;" horiz-adv-x="1077" d="M798 1316q-37 0 -69 13.5t-55.5 37.5t-37 55.5t-13.5 67.5t13.5 68t37 56t55.5 37.5t69 13.5q36 0 67.5 -13.5t55.5 -37.5t37.5 -56t13.5 -68t-13.5 -67.5t-37.5 -55.5t-55.5 -37.5t-67.5 -13.5zM226 1316q-36 0 -68 13.5t-56 37.5t-37.5 55.5t-13.5 67.5t13.5 68 t37.5 56t56 37.5t68 13.5t68 -13.5t55.5 -37.5t37 -56t13.5 -68t-13.5 -67.5t-37 -55.5t-55.5 -37.5t-68 -13.5zM80 72h175v969h-175v72h770v-1041h175v-72h-945v72z" />
<glyph unicode="&#xf0;" horiz-adv-x="1622" d="M89 506q0 118 38 211.5t108.5 159t170.5 100t225 34.5q75 0 144.5 -11.5t128.5 -28.5q-20 113 -57 212.5t-101 181.5l-182 -183l-88 88l184 185q-59 50 -134 88t-172 62l26 60q116 -8 219 -27.5t195 -48.5l240 241l88 -88l-200 -201q148 -65 258.5 -157t184.5 -204.5 t111 -242t37 -268.5q0 -163 -34.5 -294t-119.5 -222.5t-228 -141t-360 -49.5q-132 0 -234 23.5t-177.5 63.5t-127.5 93.5t-83.5 114t-45.5 124.5t-14 125zM629 451q0 -128 13 -208t35 -125t51.5 -61.5t62.5 -16.5q43 0 70.5 30.5t43.5 91t22.5 150.5t6.5 208q0 88 -3 174 t-12 168q-44 10 -84 10q-51 0 -90 -24t-64.5 -75.5t-38.5 -131t-13 -190.5z" />
<glyph unicode="&#xf1;" horiz-adv-x="1937" d="M483 1369q6 65 28.5 119t59 93t87.5 60.5t114 21.5q58 0 120.5 -19.5t127.5 -43.5q64 -23 127.5 -42.5t124.5 -19.5q56 0 108 22t100 79l55 -35q-6 -65 -28.5 -119t-59 -93t-87.5 -60.5t-114 -21.5q-54 0 -113 17t-119 40q-68 26 -135.5 47t-132.5 21q-57 0 -109 -22 t-99 -79zM80 72h175v969h-175v72h770v-128q32 39 77.5 70t100.5 52.5t117.5 32.5t128.5 11q136 0 224.5 -35.5t139.5 -101t71 -159t20 -208.5v-575h175v-72h-870v72h100v575q0 103 -6 168.5t-21 103t-40 52t-63 14.5t-67 -16t-48.5 -45t-29 -69t-9.5 -87v-696h99v-72h-869 v72z" />
<glyph unicode="&#xf2;" d="M549 1495q-35 20 -51 49.5t-16 62.5q0 28 11 54.5t29.5 46.5t43.5 32t53 12q17 0 34 -4t34 -14q14 -8 43.5 -30t67 -51.5t80.5 -64.5t85.5 -69.5t80.5 -67t66 -56.5q22 -19 36 -30.5t19 -14.5l-50 -77q-6 3 -23 9.5t-43 15.5q-35 12 -81.5 29t-97.5 36t-102 39t-95 38 t-77 32.5t-47 22.5zM89 556q0 129 47 238t141 188.5t236 124t332 44.5t331.5 -44.5t235.5 -124t141 -188.5t47 -238t-47 -237.5t-141 -188t-235.5 -124t-331.5 -44.5t-332 44.5t-236 124t-141 188t-47 237.5zM845 24q38 0 65 25t44 86t24.5 163.5t7.5 257.5 q0 156 -7.5 258.5t-24.5 163.5t-44 86t-65 25q-39 0 -66 -25t-44 -86t-24.5 -163.5t-7.5 -258.5q0 -155 7.5 -257.5t24.5 -163.5t44 -86t66 -25z" />
<glyph unicode="&#xf3;" d="M545 1351q5 3 19 14.5t36 30.5q28 24 66 56.5t80.5 67t85.5 69.5t80.5 64.5t66.5 51t44 30.5q17 10 34 14t34 4q28 0 52.5 -12t43.5 -32t30 -46.5t11 -54.5q0 -33 -16 -62.5t-51 -49.5q-14 -8 -47 -22.5t-77 -32.5t-95 -38t-102 -39t-97.5 -36t-81.5 -29 q-26 -9 -43 -15.5t-23 -9.5zM89 556q0 129 47 238t141 188.5t236 124t332 44.5t331.5 -44.5t235.5 -124t141 -188.5t47 -238t-47 -237.5t-141 -188t-235.5 -124t-331.5 -44.5t-332 44.5t-236 124t-141 188t-47 237.5zM845 24q38 0 65 25t44 86t24.5 163.5t7.5 257.5 q0 156 -7.5 258.5t-24.5 163.5t-44 86t-65 25q-39 0 -66 -25t-44 -86t-24.5 -163.5t-7.5 -258.5q0 -155 7.5 -257.5t24.5 -163.5t44 -86t66 -25z" />
<glyph unicode="&#xf4;" d="M358 1329l487 437l487 -437l-48 -66l-439 198l-440 -198zM89 556q0 129 47 238t141 188.5t236 124t332 44.5t331.5 -44.5t235.5 -124t141 -188.5t47 -238t-47 -237.5t-141 -188t-235.5 -124t-331.5 -44.5t-332 44.5t-236 124t-141 188t-47 237.5zM845 24q38 0 65 25 t44 86t24.5 163.5t7.5 257.5q0 156 -7.5 258.5t-24.5 163.5t-44 86t-65 25q-39 0 -66 -25t-44 -86t-24.5 -163.5t-7.5 -258.5q0 -155 7.5 -257.5t24.5 -163.5t44 -86t66 -25z" />
<glyph unicode="&#xf5;" d="M345 1369q6 65 28.5 119t59 93t87.5 60.5t114 21.5q58 0 120.5 -19.5t127.5 -43.5q64 -23 127.5 -42.5t124.5 -19.5q56 0 108 22t100 79l55 -35q-6 -65 -28.5 -119t-59 -93t-87.5 -60.5t-114 -21.5q-54 0 -113 17t-119 40q-68 26 -135.5 47t-132.5 21q-57 0 -109 -22 t-99 -79zM89 556q0 129 47 238t141 188.5t236 124t332 44.5t331.5 -44.5t235.5 -124t141 -188.5t47 -238t-47 -237.5t-141 -188t-235.5 -124t-331.5 -44.5t-332 44.5t-236 124t-141 188t-47 237.5zM845 24q38 0 65 25t44 86t24.5 163.5t7.5 257.5q0 156 -7.5 258.5 t-24.5 163.5t-44 86t-65 25q-39 0 -66 -25t-44 -86t-24.5 -163.5t-7.5 -258.5q0 -155 7.5 -257.5t24.5 -163.5t44 -86t66 -25z" />
<glyph unicode="&#xf6;" d="M1128 1316q-37 0 -69 13.5t-55.5 37.5t-37 55.5t-13.5 67.5t13.5 68t37 56t55.5 37.5t69 13.5q36 0 67.5 -13.5t55.5 -37.5t37.5 -56t13.5 -68t-13.5 -67.5t-37.5 -55.5t-55.5 -37.5t-67.5 -13.5zM556 1316q-36 0 -68 13.5t-56 37.5t-37.5 55.5t-13.5 67.5t13.5 68 t37.5 56t56 37.5t68 13.5t68 -13.5t55.5 -37.5t37 -56t13.5 -68t-13.5 -67.5t-37 -55.5t-55.5 -37.5t-68 -13.5zM89 556q0 129 47 238t141 188.5t236 124t332 44.5t331.5 -44.5t235.5 -124t141 -188.5t47 -238t-47 -237.5t-141 -188t-235.5 -124t-331.5 -44.5t-332 44.5 t-236 124t-141 188t-47 237.5zM845 24q38 0 65 25t44 86t24.5 163.5t7.5 257.5q0 156 -7.5 258.5t-24.5 163.5t-44 86t-65 25q-39 0 -66 -25t-44 -86t-24.5 -163.5t-7.5 -258.5q0 -155 7.5 -257.5t24.5 -163.5t44 -86t66 -25z" />
<glyph unicode="&#xf7;" horiz-adv-x="1073" d="M536 760q-31 0 -58.5 12t-48 32t-32.5 47.5t-12 58.5t12 59t32.5 48t48 32t58.5 12t58.5 -12t47.5 -32t32 -48t12 -59t-12 -58.5t-32 -47.5t-47.5 -32t-58.5 -12zM89 635h895v-124h-895v124zM385 240q0 31 12 59t32.5 48t48 32t58.5 12t58.5 -12t47.5 -32t32 -48t12 -59 t-12 -58.5t-32 -47.5t-47.5 -32t-58.5 -12t-58.5 12t-48 32t-32.5 47.5t-12 58.5z" />
<glyph unicode="&#xf8;" d="M353 76q-134 80 -199 203.5t-65 276.5q0 129 47 238t141 188.5t236 124t332 44.5q112 0 206.5 -16t173.5 -46l166 193l84 -74l-145 -168q137 -80 203.5 -204.5t66.5 -279.5q0 -129 -47 -237.5t-141 -188t-235.5 -124t-331.5 -44.5q-115 0 -211 16.5t-176 46.5l-155 -181 l-85 76zM979 804q-6 81 -16.5 135.5t-27 88t-39 47.5t-51.5 14q-39 0 -66 -25t-44 -86t-24.5 -163.5t-7.5 -258.5v-73zM709 317q5 -84 16 -140t27.5 -90t39.5 -48.5t53 -14.5q38 0 65 25t44 86t24.5 163.5t7.5 257.5v42t-1 40z" />
<glyph unicode="&#xf9;" horiz-adv-x="1909" d="M629 1495q-35 20 -51 49.5t-16 62.5q0 28 11 54.5t29.5 46.5t43.5 32t53 12q17 0 34 -4t34 -14q14 -8 43.5 -30t67 -51.5t80.5 -64.5t85.5 -69.5t80.5 -67t66 -56.5q22 -19 36 -30.5t19 -14.5l-50 -77q-6 3 -23 9.5t-43 15.5q-35 12 -81.5 29t-97.5 36t-102 39t-95 38 t-77 32.5t-47 22.5zM208 1041h-175v72h770v-647q0 -103 6 -168.5t21 -103t40 -52t63 -14.5t67 16t48.5 45t29 69t9.5 87v696h-147v72h742v-1041h174v-72h-769v128q-32 -39 -77.5 -70t-100 -52.5t-117 -32.5t-128.5 -11q-137 0 -225.5 35.5t-139.5 101t-71 158.5t-20 209v575 z" />
<glyph unicode="&#xfa;" horiz-adv-x="1909" d="M625 1351q5 3 19 14.5t36 30.5q28 24 66 56.5t80.5 67t85.5 69.5t80.5 64.5t66.5 51t44 30.5q17 10 34 14t34 4q28 0 52.5 -12t43.5 -32t30 -46.5t11 -54.5q0 -33 -16 -62.5t-51 -49.5q-14 -8 -47 -22.5t-77 -32.5t-95 -38t-102 -39t-97.5 -36t-81.5 -29 q-26 -9 -43 -15.5t-23 -9.5zM208 1041h-175v72h770v-647q0 -103 6 -168.5t21 -103t40 -52t63 -14.5t67 16t48.5 45t29 69t9.5 87v696h-147v72h742v-1041h174v-72h-769v128q-32 -39 -77.5 -70t-100 -52.5t-117 -32.5t-128.5 -11q-137 0 -225.5 35.5t-139.5 101t-71 158.5 t-20 209v575z" />
<glyph unicode="&#xfb;" horiz-adv-x="1909" d="M438 1329l487 437l487 -437l-48 -66l-439 198l-440 -198zM208 1041h-175v72h770v-647q0 -103 6 -168.5t21 -103t40 -52t63 -14.5t67 16t48.5 45t29 69t9.5 87v696h-147v72h742v-1041h174v-72h-769v128q-32 -39 -77.5 -70t-100 -52.5t-117 -32.5t-128.5 -11 q-137 0 -225.5 35.5t-139.5 101t-71 158.5t-20 209v575z" />
<glyph unicode="&#xfc;" horiz-adv-x="1909" d="M1208 1316q-37 0 -69 13.5t-55.5 37.5t-37 55.5t-13.5 67.5t13.5 68t37 56t55.5 37.5t69 13.5q36 0 67.5 -13.5t55.5 -37.5t37.5 -56t13.5 -68t-13.5 -67.5t-37.5 -55.5t-55.5 -37.5t-67.5 -13.5zM636 1316q-36 0 -68 13.5t-56 37.5t-37.5 55.5t-13.5 67.5t13.5 68 t37.5 56t56 37.5t68 13.5t68 -13.5t55.5 -37.5t37 -56t13.5 -68t-13.5 -67.5t-37 -55.5t-55.5 -37.5t-68 -13.5zM208 1041h-175v72h770v-647q0 -103 6 -168.5t21 -103t40 -52t63 -14.5t67 16t48.5 45t29 69t9.5 87v696h-147v72h742v-1041h174v-72h-769v128 q-32 -39 -77.5 -70t-100 -52.5t-117 -32.5t-128.5 -11q-137 0 -225.5 35.5t-139.5 101t-71 158.5t-20 209v575z" />
<glyph unicode="&#xfd;" horiz-adv-x="1568" d="M750 1351q5 3 19 14.5t36 30.5q28 24 66 56.5t80.5 67t85.5 69.5t80.5 64.5t66.5 51t44 30.5q17 10 34 14t34 4q28 0 52.5 -12t43.5 -32t30 -46.5t11 -54.5q0 -33 -16 -62.5t-51 -49.5q-14 -8 -47 -22.5t-77 -32.5t-95 -38t-102 -39t-97.5 -36t-81.5 -29 q-26 -9 -43 -15.5t-23 -9.5zM27 -248q0 39 19.5 73.5t53.5 60t79.5 40.5t97.5 15q50 0 95 -14t79.5 -38t54.5 -57t20 -71q0 -35 -17.5 -67t-49.5 -49q89 8 159.5 53.5t127.5 126.5l-581 1216h-174v72h932v-72h-134l264 -611l52.5 115.5t54 120t50.5 114t42.5 97.5t30 71 t13.5 34q3 7 3 12q0 13 -13.5 22t-38 14.5t-58 8t-73.5 2.5v72h466v-72q-44 0 -75.5 -3.5t-53.5 -11t-35 -19.5t-20 -29q-4 -10 -26.5 -61t-58.5 -130t-82 -180t-98 -211t-106 -222t-106 -214q-48 -95 -99.5 -169t-119 -124.5t-156.5 -77t-212 -26.5q-62 0 -118 10t-98 32 t-66.5 58t-24.5 89z" />
<glyph unicode="&#xfe;" horiz-adv-x="1942" d="M299 -327v1767h-176v72h771v-479q41 55 115.5 86.5t197.5 31.5q161 0 280 -48.5t197 -130t116.5 -189.5t38.5 -227t-38.5 -226.5t-116.5 -189.5t-197 -130t-280 -48q-111 0 -186.5 27.5t-126.5 69.5v-386h175v-72h-945v72h175zM894 314q0 -39 10 -82t31 -79t54 -59.5 t80 -23.5q42 0 72 25.5t48.5 83t27 150.5t8.5 227q0 137 -8.5 229t-28.5 148t-52 79.5t-80 23.5q-38 0 -68 -15.5t-51 -50t-32 -88.5t-11 -132v-436z" />
<glyph unicode="&#xff;" horiz-adv-x="1568" d="M1205 1316q-37 0 -69 13.5t-55.5 37.5t-37 55.5t-13.5 67.5t13.5 68t37 56t55.5 37.5t69 13.5q36 0 67.5 -13.5t55.5 -37.5t37.5 -56t13.5 -68t-13.5 -67.5t-37.5 -55.5t-55.5 -37.5t-67.5 -13.5zM633 1316q-36 0 -68 13.5t-56 37.5t-37.5 55.5t-13.5 67.5t13.5 68 t37.5 56t56 37.5t68 13.5t68 -13.5t55.5 -37.5t37 -56t13.5 -68t-13.5 -67.5t-37 -55.5t-55.5 -37.5t-68 -13.5zM27 -248q0 39 19.5 73.5t53.5 60t79.5 40.5t97.5 15q50 0 95 -14t79.5 -38t54.5 -57t20 -71q0 -35 -17.5 -67t-49.5 -49q89 8 159.5 53.5t127.5 126.5 l-581 1216h-174v72h932v-72h-134l264 -611l52.5 115.5t54 120t50.5 114t42.5 97.5t30 71t13.5 34q3 7 3 12q0 13 -13.5 22t-38 14.5t-58 8t-73.5 2.5v72h466v-72q-44 0 -75.5 -3.5t-53.5 -11t-35 -19.5t-20 -29q-4 -10 -26.5 -61t-58.5 -130t-82 -180t-98 -211t-106 -222 t-106 -214q-48 -95 -99.5 -169t-119 -124.5t-156.5 -77t-212 -26.5q-62 0 -118 10t-98 32t-66.5 58t-24.5 89z" />
<glyph unicode="&#x152;" horiz-adv-x="2643" d="M118 709q0 149 46.5 278.5t149 225t265.5 150t396 54.5h1464v-487h-68l-278 409h-338v-595h151l132 330h65v-740h-65l-132 332h-151v-587h373l290 455h69v-534h-1512q-233 0 -396 55t-265.5 150.5t-149 225t-46.5 278.5zM945 69q35 0 61.5 10.5t46.5 37t34 73t22.5 117.5 t12 170t3.5 232t-3.5 232t-12 170t-22.5 117t-34 72.5t-46.5 37t-61.5 10.5t-61.5 -10.5t-46.5 -37t-33.5 -72.5t-22 -117t-12 -170t-3.5 -232t3.5 -232t12 -170t22 -117.5t33.5 -73t46.5 -37t61.5 -10.5z" />
<glyph unicode="&#x153;" horiz-adv-x="2436" d="M89 556q0 129 47 238t141 188.5t236 124t332 44.5q142 0 241.5 -33.5t166.5 -93.5q75 59 178 93t235 34q181 0 309.5 -42t211 -120t121 -188t38.5 -245h-802q0 -153 13.5 -249t43 -150.5t76 -74.5t112.5 -20q84 0 158 21t132.5 59.5t97.5 93t53 122.5h94 q-5 -91 -51.5 -164.5t-125 -125t-185 -79t-230.5 -27.5q-157 0 -272.5 37.5t-195.5 99.5q-67 -64 -169 -100.5t-250 -36.5q-190 0 -332 44.5t-236 124t-141 188t-47 237.5zM1825 657q-3 125 -12 208t-26 133t-42 70.5t-60 20.5t-60.5 -20.5t-42.5 -70.5t-26 -133t-11 -208 h280zM845 24q38 0 65 25t44 86t24.5 163.5t7.5 257.5q0 156 -7.5 258.5t-24.5 163.5t-44 86t-65 25q-39 0 -66 -25t-44 -86t-24.5 -163.5t-7.5 -258.5q0 -155 7.5 -257.5t24.5 -163.5t44 -86t66 -25z" />
<glyph unicode="&#x2c6;" horiz-adv-x="974" d="M0 1329l487 437l487 -437l-48 -66l-439 198l-440 -198z" />
<glyph unicode="&#x2dc;" horiz-adv-x="1052" d="M0 1369q6 65 28.5 119t59 93t87.5 60.5t114 21.5q58 0 120.5 -19.5t127.5 -43.5q64 -23 127.5 -42.5t124.5 -19.5q56 0 108 22t100 79l55 -35q-6 -65 -28.5 -119t-59 -93t-87.5 -60.5t-114 -21.5q-54 0 -113 17t-119 40q-68 26 -135.5 47t-132.5 21q-57 0 -109 -22 t-99 -79z" />
<glyph unicode="&#x2000;" horiz-adv-x="968" />
<glyph unicode="&#x2001;" horiz-adv-x="1937" />
<glyph unicode="&#x2002;" horiz-adv-x="968" />
<glyph unicode="&#x2003;" horiz-adv-x="1937" />
<glyph unicode="&#x2004;" horiz-adv-x="645" />
<glyph unicode="&#x2005;" horiz-adv-x="484" />
<glyph unicode="&#x2006;" horiz-adv-x="322" />
<glyph unicode="&#x2007;" horiz-adv-x="322" />
<glyph unicode="&#x2008;" horiz-adv-x="242" />
<glyph unicode="&#x2009;" horiz-adv-x="387" />
<glyph unicode="&#x200a;" horiz-adv-x="107" />
<glyph unicode="&#x2010;" horiz-adv-x="1075" d="M90 715h895v-124h-895v124z" />
<glyph unicode="&#x2011;" horiz-adv-x="1075" d="M90 715h895v-124h-895v124z" />
<glyph unicode="&#x2012;" horiz-adv-x="1075" d="M90 715h895v-124h-895v124z" />
<glyph unicode="&#x2013;" horiz-adv-x="1306" d="M141 745h1024v-114h-1024v114z" />
<glyph unicode="&#x2014;" horiz-adv-x="2330" d="M141 745h2048v-114h-2048v114z" />
<glyph unicode="&#x2018;" horiz-adv-x="684" d="M356 934q-63 0 -109.5 21.5t-76.5 57.5t-45 84t-15 102q0 108 32.5 195.5t84.5 155t115.5 116t125.5 77.5l29 -39q-88 -83 -140 -147.5t-52 -107.5q0 -26 22 -42t54 -29q31 -12 65 -27t62.5 -39.5t47 -61.5t18.5 -94q0 -34 -13.5 -73t-41 -72t-68.5 -55t-95 -22z" />
<glyph unicode="&#x2019;" horiz-adv-x="684" d="M187 973q88 83 140 147.5t52 107.5q0 26 -22 42t-54 29q-31 12 -65 27t-62.5 39.5t-47 61.5t-18.5 94q0 34 13.5 73t41 72t68.5 55t95 22q63 0 109.5 -21.5t76.5 -57.5t45 -84t15 -102q0 -108 -32.5 -195.5t-84.5 -155t-115.5 -116t-125.5 -77.5z" />
<glyph unicode="&#x201a;" horiz-adv-x="684" d="M275 -144q104 129 104 172q0 26 -22 42t-54 29q-31 12 -65 27t-62.5 39.5t-47 61.5t-18.5 94q0 34 13.5 73t41 72t68.5 55t95 22q63 0 109.5 -21.5t76.5 -57.5t45 -84t15 -102q0 -108 -32.5 -195.5t-84.5 -155t-115.5 -116t-125.5 -77.5l-29 39z" />
<glyph unicode="&#x201c;" horiz-adv-x="1234" d="M906 934q-63 0 -109.5 21.5t-76.5 57.5t-45 84t-15 102q0 108 32.5 195.5t84.5 155t115.5 116t125.5 77.5l29 -39q-88 -83 -140 -147.5t-52 -107.5q0 -26 22 -42t54 -29q31 -12 65 -27t62.5 -39.5t47 -61.5t18.5 -94q0 -34 -13.5 -73t-41 -72t-68.5 -55t-95 -22zM356 934 q-63 0 -109.5 21.5t-76.5 57.5t-45 84t-15 102q0 108 32.5 195.5t84.5 155t115.5 116t125.5 77.5l29 -39q-88 -83 -140 -147.5t-52 -107.5q0 -26 22 -42t54 -29q31 -12 65 -27t62.5 -39.5t47 -61.5t18.5 -94q0 -34 -13.5 -73t-41 -72t-68.5 -55t-95 -22z" />
<glyph unicode="&#x201d;" horiz-adv-x="1234" d="M737 973q88 83 140 147.5t52 107.5q0 26 -22 42t-54 29q-31 12 -65 27t-62.5 39.5t-47 61.5t-18.5 94q0 34 13.5 73t41 72t68.5 55t95 22q63 0 109.5 -21.5t76.5 -57.5t45 -84t15 -102q0 -108 -32.5 -195.5t-84.5 -155t-115.5 -116t-125.5 -77.5zM187 973 q88 83 140 147.5t52 107.5q0 26 -22 42t-54 29q-31 12 -65 27t-62.5 39.5t-47 61.5t-18.5 94q0 34 13.5 73t41 72t68.5 55t95 22q63 0 109.5 -21.5t76.5 -57.5t45 -84t15 -102q0 -108 -32.5 -195.5t-84.5 -155t-115.5 -116t-125.5 -77.5z" />
<glyph unicode="&#x201e;" horiz-adv-x="1244" d="M670 221q0 34 13.5 73t41 72t68.5 55t95 22q63 0 109.5 -21.5t76.5 -57.5t45 -84t15 -102q0 -108 -32.5 -195.5t-84.5 -155t-115.5 -116t-125.5 -77.5l-29 39q88 83 140 147.5t52 107.5q0 26 -22 42t-54 29q-31 12 -65 27t-62.5 39.5t-47 61.5t-18.5 94zM110 221 q0 34 13.5 73t41 72t68.5 55t95 22q63 0 109.5 -21.5t76.5 -57.5t45 -84t15 -102q0 -108 -32.5 -195.5t-84.5 -155t-115.5 -116t-125.5 -77.5l-29 39q88 83 140 147.5t52 107.5q0 26 -22 42t-54 29q-31 12 -65 27t-62.5 39.5t-47 61.5t-18.5 94z" />
<glyph unicode="&#x2022;" horiz-adv-x="973" d="M487 192q-72 0 -135.5 27.5t-111 75t-75 110.5t-27.5 135q0 73 27.5 136.5t75 110.5t111 74.5t135.5 27.5t135.5 -27.5t110.5 -74.5t74.5 -110.5t27.5 -136.5q0 -72 -27.5 -135t-74.5 -110.5t-110.5 -75t-135.5 -27.5z" />
<glyph unicode="&#x202f;" horiz-adv-x="387" />
<glyph unicode="&#x2039;" horiz-adv-x="972" d="M859 1090l43 -42l-438 -492l438 -492l-43 -42l-819 534z" />
<glyph unicode="&#x203a;" horiz-adv-x="972" d="M508 556l-438 492l43 42l819 -534l-819 -534l-43 42z" />
<glyph unicode="&#x205f;" horiz-adv-x="484" />
<glyph unicode="&#x20ac;" horiz-adv-x="1861" d="M-11 584h148q-2 22 -3.5 45t-1.5 46v38h-143v102h153q21 139 83.5 256.5t167.5 203t252 133t336 47.5q154 0 286 -47t244 -152l123 184h69v-649h-78q-36 159 -97.5 264t-135 167.5t-153 88t-150.5 25.5q-33 0 -65.5 -5.5t-63 -23t-57 -52t-46.5 -92t-32.5 -143 t-14.5 -205.5h362v-102h-362q1 -35 2 -67t3 -62h357v-102h-349q12 -117 37 -193.5t62 -121.5t86 -63t111 -18q100 0 187 30.5t154 96.5t110.5 170t56.5 250h88q-8 -141 -50.5 -263t-129.5 -213t-224 -143t-334 -52q-161 0 -297 37t-241.5 105t-177 164t-104.5 214h-168v102z " />
<glyph unicode="&#xe000;" horiz-adv-x="1115" d="M0 1115h1115v-1115h-1115v1115z" />
</font>
</defs>
</svg>
