<?xml version="1.0" standalone="no"?>
<!DOCTYPE svg PUBLIC "-//W3C//DTD SVG 1.1//EN" "http://www.w3.org/Graphics/SVG/1.1/DTD/svg11.dtd" >
<svg xmlns="http://www.w3.org/2000/svg">
<metadata></metadata>
<defs>
<font id="inderregular" horiz-adv-x="1195" >
<font-face units-per-em="2048" ascent="1638" descent="-410" />
<missing-glyph horiz-adv-x="682" />
<glyph horiz-adv-x="2048" />
<glyph horiz-adv-x="2048" />
<glyph unicode="&#xd;" horiz-adv-x="2048" />
<glyph horiz-adv-x="0" />
<glyph horiz-adv-x="0" />
<glyph horiz-adv-x="0" />
<glyph horiz-adv-x="0" />
<glyph horiz-adv-x="0" />
<glyph horiz-adv-x="0" />
<glyph horiz-adv-x="0" />
<glyph horiz-adv-x="0" />
<glyph unicode="&#x9;" horiz-adv-x="0" />
<glyph horiz-adv-x="0" />
<glyph horiz-adv-x="0" />
<glyph horiz-adv-x="0" />
<glyph horiz-adv-x="0" />
<glyph horiz-adv-x="0" />
<glyph horiz-adv-x="0" />
<glyph horiz-adv-x="0" />
<glyph horiz-adv-x="0" />
<glyph horiz-adv-x="0" />
<glyph horiz-adv-x="0" />
<glyph unicode=" "  horiz-adv-x="682" />
<glyph unicode="&#x09;" horiz-adv-x="682" />
<glyph unicode="&#xa0;" horiz-adv-x="682" />
<glyph unicode="!" horiz-adv-x="512" d="M117 102q0 59 38.5 93t100.5 34t101.5 -34t39.5 -93q0 -60 -39 -93.5t-102 -33.5q-62 0 -100.5 33.5t-38.5 93.5zM156 1450h200l-16 -1036h-168z" />
<glyph unicode="&#x22;" horiz-adv-x="853" d="M137 1530h206l-26 -542h-154zM507 1530h206l-26 -542h-154z" />
<glyph unicode="#" horiz-adv-x="1534" d="M122 340v148h262l72 384h-246v148h274l64 340h162l-64 -340h346l64 340h162l-65 -340h233v-148h-261l-72 -384h247v-148h-275l-64 -340h-162l64 340h-345l-64 -340h-162l64 340h-234zM546 488h345l73 384h-346z" />
<glyph unicode="$" d="M170 16v194q129 -35 363 -35q317 0 317 146q0 59 -53.5 96.5t-190.5 91.5l-122 48q-73 28 -125 57.5t-97 71.5t-68 99.5t-23 131.5q0 112 87.5 194t260.5 105v314h152v-306q140 -1 322 -18v-194q-169 37 -350 37q-149 0 -211 -40.5t-62 -99.5q0 -52 44.5 -92t146.5 -82 l137 -56q69 -28 114 -50t94 -55t77.5 -68t47 -85.5t18.5 -111.5q0 -113 -94.5 -195.5t-283.5 -105.5v-348h-152v340q-227 0 -349 16z" />
<glyph unicode="%" horiz-adv-x="1706" d="M116 1019q0 156 86.5 248t228.5 92q139 0 224.5 -92t85.5 -248q0 -159 -85 -249t-225 -90q-143 0 -229 90t-86 249zM276 1019q0 -100 41 -155.5t114 -55.5q71 0 110.5 55.5t39.5 155.5q0 98 -40 155t-110 57q-72 0 -113.5 -57t-41.5 -155zM366 0l787 1360h167l-787 -1360 h-167zM963 340q0 156 86.5 248t228.5 92q139 0 224.5 -92t85.5 -248q0 -159 -85 -249t-225 -90q-143 0 -229 90t-86 249zM1123 340q0 -100 41 -155.5t114 -55.5q71 0 110.5 55.5t39.5 155.5q0 98 -40 155t-110 57q-72 0 -113.5 -57t-41.5 -155z" />
<glyph unicode="&#x26;" horiz-adv-x="1364" d="M149 390q0 38 12 79.5t39.5 90t82.5 94t131 76.5v3q-105 42 -163.5 118.5t-58.5 171.5q0 55 15.5 105t55.5 99t100.5 85t159 58t223.5 22q170 0 276 -11v-180q-124 23 -276 23q-174 0 -263 -54t-89 -148q0 -195 286 -195h612v-170h-124v-657h-173l-7 127 q-67 -61 -176.5 -102t-214.5 -41q-205 0 -326.5 103t-121.5 303zM351 387q0 -119 74 -181t207 -62q106 0 195 34.5t149 92.5v387l-297 -1q-156 0 -242 -80.5t-86 -189.5z" />
<glyph unicode="'" horiz-adv-x="512" d="M153 1530h206l-26 -542h-154z" />
<glyph unicode="(" horiz-adv-x="683" d="M109 680q0 263 86.5 475t284.5 375h208q-184 -143 -288.5 -363t-104.5 -487t104.5 -487t288.5 -363h-208q-198 163 -284.5 375t-86.5 475z" />
<glyph unicode=")" horiz-adv-x="683" d="M-48 -170q184 143 288.5 363t104.5 487t-104.5 487t-288.5 363h208q198 -163 284.5 -375t86.5 -475t-86.5 -475t-284.5 -375h-208z" />
<glyph unicode="*" d="M140 1135l53 167l348 -149l-34 377h177l-33 -378l346 157l54 -168l-366 -89l247 -282l-143 -103l-193 315l-195 -321l-142 103l247 283z" />
<glyph unicode="+" horiz-adv-x="1194" d="M97 519v152h422v421h152v-421h429v-152h-429v-429h-152v429h-422z" />
<glyph unicode="," horiz-adv-x="512" d="M24 -223q88 0 122 53t34 170v186h193v-186q0 -195 -79.5 -291.5t-269.5 -96.5v165z" />
<glyph unicode="-" horiz-adv-x="1022" d="M170 518v154h680v-154h-680z" />
<glyph unicode="." horiz-adv-x="511" d="M117 102q0 59 38.5 93t100.5 34t101.5 -34t39.5 -93q0 -60 -39 -93.5t-102 -33.5q-62 0 -100.5 33.5t-38.5 93.5z" />
<glyph unicode="/" horiz-adv-x="854" d="M12 -170l648 1530h178l-648 -1530h-178z" />
<glyph unicode="0" horiz-adv-x="1365" d="M124 670q0 328 152 509t414 181q257 0 406.5 -181t149.5 -509t-149.5 -507t-406.5 -179q-262 0 -414 179t-152 507zM334 671q0 -535 356 -535q346 0 346 533q0 539 -346 539q-79 0 -140.5 -28t-101.5 -76.5t-66 -117.5t-37 -146.5t-11 -168.5z" />
<glyph unicode="1" horiz-adv-x="852" d="M128 840v202l447 318h111v-1360h-199v1085z" />
<glyph unicode="2" d="M136 0v92l423 429q173 178 233 265.5t60 184.5q0 211 -371 211q-93 0 -179 -14t-132 -28v192q168 28 311 28q105 0 191.5 -14.5t144.5 -38t102 -56.5t68.5 -66.5t40 -72.5t20 -69t4.5 -62q0 -65 -20.5 -127t-68 -131t-99 -129t-138.5 -152l-260 -266h585v-176h-915z" />
<glyph unicode="3" d="M141 17v189q46 -15 148 -26.5t209 -11.5q379 0 379 237q0 74 -41 121.5t-144.5 74t-275.5 26.5h-100v80l399 477h-545v176h869v-80l-419 -482v-3q466 -30 466 -390q0 -70 -20.5 -130.5t-65.5 -113.5t-112.5 -90t-166.5 -58.5t-223 -21.5q-89 0 -200 7.5t-157 18.5z" />
<glyph unicode="4" d="M57 333v75l555 952h236l-508 -851h479v278h202v-278h114v-176h-114v-333h-202v333h-762z" />
<glyph unicode="5" d="M141 17v194q51 -15 148 -26.5t181 -11.5q198 0 296 63.5t98 198.5q0 61 -19 104.5t-64 77t-125.5 50.5t-198.5 17h-279v672h821v-188h-629v-316h117q302 0 442.5 -99.5t140.5 -321.5q0 -94 -35 -172t-105.5 -139t-188 -95t-271.5 -34q-70 0 -177 7.5t-152 18.5z" />
<glyph unicode="6" horiz-adv-x="1365" d="M152 620v61q0 308 193.5 493.5t507.5 185.5q183 0 241 -11v-194q-97 30 -241 30q-248 0 -374.5 -126t-126.5 -335q73 55 176.5 90.5t214.5 35.5q216 0 345 -110.5t129 -315.5q0 -109 -46 -195.5t-121.5 -138.5t-167 -79t-188.5 -27q-264 0 -403 170t-139 466zM354 573 q0 -71 12.5 -134.5t39.5 -119.5t66.5 -96t98.5 -63.5t131 -23.5q139 0 230 74t91 204q0 129 -88 205.5t-238 76.5q-104 0 -200.5 -39t-142.5 -84z" />
<glyph unicode="7" d="M105 1183v176h1022v-80l-656 -1279h-230l621 1183h-757z" />
<glyph unicode="8" horiz-adv-x="1365" d="M159 375q0 53 23 111t78.5 118.5t135.5 95.5v3q-83 43 -140.5 127t-57.5 175q0 47 15.5 95.5t52 97.5t90.5 86.5t138 61t187 23.5q106 0 191.5 -23.5t139 -61t89.5 -87t50.5 -97t14.5 -95.5q0 -91 -57.5 -175t-140.5 -127v-3q80 -35 135.5 -95.5t78.5 -118.5t23 -111 q0 -179 -140 -285t-383 -106q-244 0 -383.5 106t-139.5 285zM361 375q0 -78 47.5 -134t118 -81t154.5 -26q84 0 155.5 25t119 81.5t47.5 134.5q0 102 -80.5 171.5t-240.5 69.5t-240.5 -69.5t-80.5 -171.5zM401 1005q0 -100 78.5 -167.5t201.5 -67.5q125 0 204 67.5t79 167.5 q0 88 -69 148.5t-212 60.5q-74 0 -130.5 -17.5t-88.5 -48t-47.5 -66.5t-15.5 -77z" />
<glyph unicode="9" horiz-adv-x="1365" d="M137 919q0 109 46 195.5t121.5 138.5t167 79t188.5 27q264 0 403 -170t139 -466v-61q0 -308 -193.5 -493.5t-507.5 -185.5q-183 0 -241 11v194q97 -30 241 -30q248 0 374.5 126t126.5 335q-73 -55 -176.5 -90.5t-214.5 -35.5q-216 0 -345 110.5t-129 315.5zM331 929 q0 -129 88 -205.5t238 -76.5q104 0 200.5 39t142.5 84q0 71 -12.5 134.5t-39.5 119.5t-66.5 96t-98.5 63.5t-131 23.5q-139 0 -230 -74t-91 -204z" />
<glyph unicode=":" horiz-adv-x="512" d="M117 102q0 59 38.5 93t100.5 34t101.5 -34t39.5 -93q0 -60 -39 -93.5t-102 -33.5q-62 0 -100.5 33.5t-38.5 93.5zM117 925q0 59 38.5 93t100.5 34t101.5 -34t39.5 -93q0 -60 -39 -93.5t-102 -33.5q-62 0 -100.5 33.5t-38.5 93.5z" />
<glyph unicode=";" horiz-adv-x="513" d="M24 -223q88 0 122 53t34 170v186h193v-186q0 -195 -79.5 -291.5t-269.5 -96.5v165zM116 925q0 59 38.5 93t100.5 34t101.5 -34t39.5 -93q0 -60 -39 -93.5t-102 -33.5q-62 0 -100.5 33.5t-38.5 93.5z" />
<glyph unicode="&#x3c;" horiz-adv-x="1190" d="M71 539v103l1003 432v-183l-744 -301l744 -300v-183z" />
<glyph unicode="=" horiz-adv-x="1194" d="M97 340v154h1003v-154h-1003zM97 695v154h1003v-154h-1003z" />
<glyph unicode="&#x3e;" horiz-adv-x="1190" d="M114 107v183l744 300l-744 301v183l1003 -432v-103z" />
<glyph unicode="?" horiz-adv-x="1023" d="M170 1212v188q147 0 269.5 -29.5t208 -81t145.5 -121.5t88 -150t28 -168q0 -50 -10.5 -98t-39 -99.5t-72 -90.5t-115.5 -66t-163 -32v-123h-170v282q52 -4 101 -4q269 0 269 231q0 79 -31 141.5t-82 102.5t-122 66.5t-145.5 38t-158.5 13.5zM293 96q0 56 36.5 88t94.5 32 q59 0 96 -32t37 -88t-37 -88t-96 -32q-58 0 -94.5 32t-36.5 88z" />
<glyph unicode="@" horiz-adv-x="2044" d="M109 421q0 185 74 353.5t198.5 290.5t295 194.5t356.5 72.5q169 0 314.5 -45.5t252 -126.5t182.5 -189.5t114 -236t38 -265.5q0 -128 -41.5 -243.5t-129.5 -194.5t-206 -79q-32 0 -71.5 11t-81 32.5t-77 58.5t-52.5 83q-15 -25 -37.5 -50t-59.5 -55t-91.5 -48.5 t-116.5 -18.5q-73 0 -140.5 24t-124.5 71.5t-91.5 131t-34.5 191.5q0 98 30.5 179.5t82 135.5t119.5 91.5t141 54.5t150 17q136 0 272 -17v-500q0 -94 48 -169.5t136 -75.5q92 0 149.5 93t57.5 278q0 114 -29.5 219t-90 195.5t-146 157.5t-205.5 105.5t-261 38.5 q-154 0 -293.5 -61t-240.5 -163.5t-161 -244t-60 -296.5q0 -157 56.5 -296t158.5 -242.5t254 -163.5t333 -60q89 0 188.5 17.5t138.5 37.5l-11 -162q-54 -20 -143 -36t-173 -16q-173 0 -326.5 47.5t-270 133t-201.5 200t-129 253t-44 287.5zM771 384q0 -62 15 -110.5 t37.5 -77.5t52 -48.5t56 -26.5t52.5 -7q132 0 206 143v438q-38 9 -104 9q-146 0 -230.5 -79.5t-84.5 -240.5z" />
<glyph unicode="A" horiz-adv-x="1365" d="M27 0l587 1392h137l587 -1392h-208l-141 350h-618l-140 -350h-204zM436 510h489l-244 610z" />
<glyph unicode="B" d="M170 0v1392h351q95 0 172 -15.5t128 -43t88 -62.5t57 -78.5t28.5 -85t8.5 -87.5q0 -94 -52.5 -167t-134.5 -122v-4q79 -22 136 -62.5t85.5 -89.5t41 -94t12.5 -91q0 -187 -145.5 -288.5t-385.5 -101.5h-390zM370 152h190q138 0 230.5 61.5t92.5 176.5q0 113 -70 178 t-222 65h-221v-481zM370 785h189q101 0 168.5 58.5t67.5 176.5q0 102 -62.5 161t-195.5 59h-167v-455z" />
<glyph unicode="C" d="M92 710q0 138 40.5 253t110 195t164 136t201.5 82t224 26q155 0 236 -14v-191q-71 22 -226 22q-268 0 -405 -135t-137 -374q0 -117 33 -213t98.5 -168.5t170.5 -112.5t241 -40q158 0 257 24v-192q-104 -18 -275 -18q-160 0 -294 46.5t-232 135.5t-152.5 226.5 t-54.5 311.5z" />
<glyph unicode="D" horiz-adv-x="1366" d="M154 0v1391h338q166 0 302.5 -42t239.5 -125.5t159.5 -218.5t56.5 -311t-55 -310.5t-156 -217.5t-236 -124.5t-301 -41.5h-348zM354 160h136q150 0 258 37t172.5 108t94.5 166.5t30 221.5q0 537 -566 537h-125v-1070z" />
<glyph unicode="E" d="M154 0v1392h899v-174h-699v-410h529v-168h-529v-464h699v-176h-899z" />
<glyph unicode="F" d="M154 0v1392h947v-174h-747v-410h577v-168h-577v-640h-200z" />
<glyph unicode="G" horiz-adv-x="1366" d="M132 710q0 138 40.5 253t110.5 195.5t165.5 136t204 81.5t227.5 26q172 0 270 -13v-192q-88 22 -268 22q-268 0 -405 -135t-137 -374q0 -93 20.5 -174.5t64 -150.5t106.5 -118.5t153 -77t199 -27.5q62 0 115 5v513h200v-666q-112 -30 -333 -30q-160 0 -294 47.5 t-232 137.5t-152.5 228.5t-54.5 312.5z" />
<glyph unicode="H" horiz-adv-x="1366" d="M154 0v1392h200v-550h658v550h200v-1392h-200v666h-658v-666h-200z" />
<glyph unicode="I" horiz-adv-x="512" d="M156 0v1392h200v-1392h-200z" />
<glyph unicode="J" horiz-adv-x="1024" d="M129 -5v193q42 -12 155 -12q193 0 287.5 124.5t94.5 403.5v511h-513v177h713v-688q0 -363 -149.5 -538.5t-470.5 -175.5q-50 0 -117 5z" />
<glyph unicode="K" d="M154 0v1392h199v-652l536 652h250l-571 -670l615 -722h-248l-582 694v-694h-199z" />
<glyph unicode="L" horiz-adv-x="1026" d="M154 0v1392h200v-1216h596v-176h-796z" />
<glyph unicode="M" horiz-adv-x="1536" d="M145 0v1392h128l496 -570l494 570h128v-1392h-200v1060l-59 -80l-363 -423l-363 422l-61 80v-1059h-200z" />
<glyph unicode="N" horiz-adv-x="1365" d="M153 0v1392h144q50 -71 318 -447.5t409 -579.5l-11 144v883h198v-1392h-143q-38 54 -312 438.5t-416 588.5l11 -174v-853h-198z" />
<glyph unicode="O" horiz-adv-x="1536" d="M109 694q0 214 84.5 377t234 250t341.5 87q292 0 475 -195t183 -519q0 -214 -84 -376t-233 -248t-341 -86q-293 0 -476.5 193.5t-183.5 516.5zM309 695q0 -108 28 -204t82.5 -172.5t144.5 -121.5t205 -45t205 45t144 121.5t81.5 171.5t27.5 203q0 86 -17 165t-53 149 t-89 121.5t-129.5 81.5t-169.5 30t-170 -30t-130 -81.5t-89.5 -121.5t-53.5 -148.5t-17 -163.5z" />
<glyph unicode="P" d="M170 0v1392h395q131 0 231.5 -27t159.5 -69t96 -101.5t50 -116.5t13 -123q0 -92 -27.5 -167t-75 -126.5t-114.5 -86t-143.5 -50t-163.5 -15.5h-221v-510h-200zM370 670h182q180 0 267.5 70.5t87.5 217.5q0 128 -82 201t-256 73h-199v-562z" />
<glyph unicode="Q" horiz-adv-x="1536" d="M109 694q0 214 84.5 377t234 250t341.5 87q292 0 475 -195t183 -519q0 -143 -38.5 -264.5t-108 -210t-167.5 -146.5t-217 -78l3 -3q68 -92 168.5 -138t216.5 -46q31 0 44 2v-193q-18 -3 -45 -3q-389 0 -582 366l5 6q-131 11 -241.5 65.5t-189 144.5t-122.5 218t-44 280z M309 695q0 -108 28 -204t82.5 -172.5t144.5 -121.5t205 -45t205 45t144 121.5t81.5 171.5t27.5 203q0 86 -17 165t-53 149t-89 121.5t-129.5 81.5t-169.5 30t-170 -30t-130 -81.5t-89.5 -121.5t-53.5 -148.5t-17 -163.5z" />
<glyph unicode="R" d="M170 0v1392h395q131 0 231.5 -27t159.5 -69t96 -101.5t50 -116.5t13 -123q0 -186 -102.5 -293.5t-275.5 -139.5q43 -137 141.5 -232.5t218.5 -99.5q38 -2 65 4v-194h-45q-116 0 -215 43t-168.5 117t-116.5 162.5t-70 187.5h-177v-510h-200zM370 670h182q180 0 267.5 70.5 t87.5 217.5q0 128 -82 201t-256 73h-199v-562z" />
<glyph unicode="S" d="M148 1049q0 154 141 253.5t411 99.5q176 0 320 -14v-191q-125 28 -320 28q-101 0 -173.5 -15t-110 -41t-53.5 -54t-16 -61q0 -70 42 -112.5t149 -93.5l263 -125q62 -29 106 -57.5t88.5 -71t68 -100.5t23.5 -129q0 -169 -146.5 -272t-439.5 -103q-169 0 -331 19v194 q142 -33 332 -33q203 0 294.5 54.5t91.5 135.5q0 61 -41 105t-138 88l-256 117q-46 21 -78.5 38.5t-79 52.5t-75.5 72t-50.5 93.5t-21.5 122.5z" />
<glyph unicode="T" d="M76 1216v176h1038v-176h-419v-1216h-200v1216h-419z" />
<glyph unicode="U" horiz-adv-x="1365" d="M154 559v833h200v-833q0 -403 329 -403q328 0 328 403v833h200v-833q0 -151 -39 -263.5t-110.5 -179.5t-166 -99.5t-212.5 -32.5q-119 0 -213.5 32.5t-166 99.5t-110.5 179.5t-39 263.5z" />
<glyph unicode="V" horiz-adv-x="1200" d="M-44 1392h208l437 -1144l435 1144h208l-548 -1392h-192z" />
<glyph unicode="W" horiz-adv-x="1877" d="M2 1392h208l269 -982l39 -173q59 231 181.5 653t144.5 502h192l279 -982l45 -180q56 233 174.5 659t139.5 503h200l-422 -1392h-192l-293 980l-33 125q-59 -220 -178 -618.5t-144 -486.5h-192z" />
<glyph unicode="X" d="M20 0l465 705l-440 687h223l329 -533l336 533h210l-448 -674l487 -718h-222l-374 570l-347 -570h-219z" />
<glyph unicode="Y" horiz-adv-x="1200" d="M0 1392h216l388 -622l380 622h216l-495 -784v-608h-208v606z" />
<glyph unicode="Z" d="M91 0v90l721 1133l-141 -5h-546v174h960v-90l-723 -1130l153 4h570v-176h-994z" />
<glyph unicode="[" horiz-adv-x="684" d="M161 -172v1734h441v-138h-260v-1458h262v-138h-443z" />
<glyph unicode="\" horiz-adv-x="854" d="M2 1360h178l648 -1530h-178z" />
<glyph unicode="]" horiz-adv-x="684" d="M79 -34h262v1458h-260v138h441v-1734h-443v138z" />
<glyph unicode="^" horiz-adv-x="1193" d="M34 340l502 1052h120l503 -1052h-217l-318 689l-28 89l-28 -89l-329 -689h-205z" />
<glyph unicode="_" d="M-10 -188h1215v-152h-1215v152z" />
<glyph unicode="`" horiz-adv-x="681" d="M92 1621h234l232 -367h-178z" />
<glyph unicode="a" horiz-adv-x="1194" d="M129 495q0 142 53 251.5t141.5 173.5t193.5 96t220 32q126 0 292 -16v-1032h-180l-8 119q-33 -45 -110 -89.5t-177 -44.5q-55 0 -109.5 14t-112.5 50.5t-102 92t-72.5 147t-28.5 206.5zM337 495q0 -83 17.5 -148t44 -103t62 -62.5t68 -33.5t65.5 -9q86 0 148 42.5 t87 89.5v614q-40 8 -102 8q-185 0 -287.5 -97t-102.5 -301z" />
<glyph unicode="b" horiz-adv-x="1192" d="M168 0v1488h200v-559q39 44 113 81.5t165 37.5q55 0 109.5 -13.5t113 -50t102 -91.5t72 -146t28.5 -206q0 -114 -35 -208.5t-94 -158t-138 -107t-164.5 -63t-176.5 -19.5q-137 0 -295 15zM369 147q40 -8 104 -8q184 0 287 98.5t103 303.5q0 83 -17.5 147.5t-44 102.5 t-62 62t-68 32.5t-65.5 8.5q-86 0 -149 -43t-88 -89v-615z" />
<glyph unicode="c" horiz-adv-x="1022" d="M109 528q0 102 32.5 188.5t87.5 147t129.5 102.5t157.5 62t172 20q143 0 200 -10v-178q-83 27 -198 27q-97 0 -171 -29t-117 -79.5t-64 -113.5t-21 -137q0 -78 19.5 -144t59.5 -120.5t110 -85t164 -30.5q61 0 129 10.5t97 23.5v-179q-61 -19 -228 -19q-259 0 -409 143 t-150 401z" />
<glyph unicode="d" horiz-adv-x="1194" d="M118 495q0 142 53 251.5t141.5 173.5t193.5 96t220 32q37 0 95 -4v444h199v-1488h-179l-8 119q-33 -45 -111.5 -90t-178.5 -45q-55 0 -109.5 14t-112.5 51t-102 92.5t-72.5 147t-28.5 206.5zM326 495q0 -83 17.5 -148t44 -103.5t62 -63t68 -33.5t65.5 -9q86 0 149 43 t88 90v615q-40 8 -104 8q-185 0 -287.5 -97.5t-102.5 -301.5z" />
<glyph unicode="e" horiz-adv-x="1025" d="M71 537q0 97 28.5 181.5t76.5 144t110 102t129.5 63t134.5 20.5q132 0 226.5 -61t139.5 -163.5t45 -236.5v-78h-682q0 -55 9 -103t34 -97t64 -83.5t103.5 -56t148.5 -21.5q151 0 266 31v-169q-111 -26 -267 -26q-566 0 -566 553zM284 656h477q0 96 -57.5 167t-166.5 71 q-115 0 -184 -70.5t-69 -167.5z" />
<glyph unicode="f" horiz-adv-x="684" d="M56 879v94l124 59v110q0 42 3 75t12.5 72.5t26.5 68.5t47 58t70.5 47t100 29.5t134.5 11.5q66 0 105 -8v-158q-41 12 -107 12q-109 0 -150.5 -44t-41.5 -137v-137h258v-153h-258v-879h-200v879h-124z" />
<glyph unicode="g" horiz-adv-x="1194" d="M88 509q-1 107 37.5 197.5t102 152.5t147 105.5t173 63.5t180.5 20q181 0 292 -16v-982q0 -132 -33 -224t-97.5 -144.5t-148 -75t-196.5 -22.5q-164 0 -228 20v178q29 -13 97 -23.5t129 -10.5q161 -2 219 64.5t58 237.5v53q-43 -45 -123 -81.5t-186 -36.5 q-53 0 -107.5 15t-112 53.5t-101.5 96t-72.5 150.5t-29.5 209zM293 509q0 -88 19 -155.5t48 -107t68.5 -65t74 -34t70.5 -8.5q89 0 156 43t91 89v615q-40 8 -102 8q-88 0 -163 -23.5t-134.5 -69t-93.5 -120.5t-34 -172z" />
<glyph unicode="h" horiz-adv-x="1194" d="M155 0v1488h200v-567q80 62 168.5 94.5t166.5 32.5q185 0 273 -113t88 -371v-564h-200v564q0 170 -58.5 241t-173.5 71q-148 0 -264 -101v-775h-200z" />
<glyph unicode="i" horiz-adv-x="513" d="M128 1332q0 56 35.5 87t92.5 31q59 0 95.5 -31t36.5 -87t-36.5 -87t-95.5 -31q-56 0 -92 31.5t-36 86.5zM154 0v1032h200v-1032h-200z" />
<glyph unicode="j" horiz-adv-x="512" d="M-59 -256q27 -8 53 -8q86 0 124 54.5t38 190.5v1051h200v-1052q0 -396 -343 -396q-22 0 -72 6v154zM128 1333q0 56 35.5 87t92.5 31q59 0 95.5 -31t36.5 -87t-36.5 -87t-95.5 -31q-56 0 -92 31.5t-36 86.5z" />
<glyph unicode="k" horiz-adv-x="1024" d="M170 0v1487h200v-917l418 462h238l-445 -468l468 -564h-244l-435 526v-526h-200z" />
<glyph unicode="l" horiz-adv-x="683" d="M198 390v1098h200v-1097q0 -136 38 -190.5t124 -54.5q26 0 53 8v-154q-50 -6 -72 -6q-343 0 -343 396z" />
<glyph unicode="m" horiz-adv-x="1878" d="M160 0v1032h184l14 -113q72 59 165.5 94t182.5 35q187 0 282 -158q174 158 364 158q189 0 274.5 -114.5t85.5 -378.5v-555h-200v548q0 177 -54 252.5t-169 75.5q-135 0 -246 -96v-780h-200v556q0 178 -52 249t-171 71q-146 0 -261 -101l1 -775h-200z" />
<glyph unicode="n" d="M155 0v1032h185l14 -112q80 63 169.5 95.5t167.5 32.5q184 0 272 -113t88 -371v-564h-200v564q0 171 -58 241.5t-173 70.5q-149 0 -265 -101v-775h-200z" />
<glyph unicode="o" horiz-adv-x="1194" d="M88 518q0 123 42 225.5t113.5 169t164 103.5t194.5 37q101 0 191 -37t159.5 -104t110 -169t40.5 -225q0 -122 -41 -224t-110 -169t-160 -104t-191 -37q-102 0 -194.5 37t-163.5 104t-113 169t-42 224zM296 518q0 -75 17 -140.5t52 -120.5t95.5 -87t140.5 -32 q76 0 134.5 32t92.5 87t50.5 120.5t16.5 140.5t-17.5 141.5t-52 121t-92 86.5t-131.5 32q-102 0 -173 -56t-102 -140t-31 -185z" />
<glyph unicode="p" horiz-adv-x="1196" d="M170 -400v1432h180l8 -118q33 45 110.5 89.5t178.5 44.5q54 0 109 -14.5t112.5 -51.5t101.5 -92.5t72 -145.5t28 -203q0 -114 -35 -208.5t-93.5 -158t-137 -107t-164 -63t-176.5 -19.5q-67 0 -94 1v-386h-200zM370 148q40 -8 104 -8q184 0 286 98t102 303 q0 83 -17.5 147.5t-44.5 102.5t-63 62t-68 32.5t-65 8.5q-83 0 -146.5 -42.5t-87.5 -89.5v-614z" />
<glyph unicode="q" horiz-adv-x="1196" d="M120 495q0 142 53 251.5t141.5 173.5t193.5 96t220 32q126 0 292 -16v-1432h-200v274l13 245q-33 -45 -110.5 -89.5t-177.5 -44.5q-55 0 -109.5 14t-112.5 50.5t-102 92t-72.5 147t-28.5 206.5zM328 495q0 -83 17.5 -148t44 -103t62 -62.5t68 -33.5t65.5 -9 q86 0 148 42.5t87 89.5v614q-40 8 -102 8q-185 0 -287.5 -97t-102.5 -301z" />
<glyph unicode="r" horiz-adv-x="853" d="M169 0v1032h192l8 -143q45 55 136 107t194 52q73 0 112 -10v-189q-55 16 -148 16q-106 0 -183 -46t-111 -97v-722h-200z" />
<glyph unicode="s" horiz-adv-x="1024" d="M155 2v177q127 -31 264 -31q268 0 268 113q0 42 -26.5 69.5t-92.5 60.5l-146 67q-69 34 -110.5 59.5t-80 61.5t-55.5 80.5t-17 102.5q0 125 120 205.5t343 80.5q118 0 228 -16v-171q-130 23 -226 23q-83 0 -138 -11.5t-79 -31.5t-32 -38t-8 -41q0 -35 27 -62.5t91 -61.5 l147 -71q50 -26 76 -40t62 -37.5t54 -43.5t37 -48.5t26.5 -62t7.5 -74.5q0 -122 -127 -199.5t-349 -77.5q-139 0 -264 18z" />
<glyph unicode="t" horiz-adv-x="853" d="M75 879v94l148 59l48 256h152v-256h320v-153h-320v-488q0 -134 44.5 -189.5t133.5 -55.5q91 0 137 16v-160q-38 -8 -156 -8q-82 0 -145.5 23t-103 61t-65 90.5t-35.5 106.5t-10 115v489h-148z" />
<glyph unicode="u" d="M152 458v574h200v-564q0 -96 12.5 -157.5t41 -95.5t66 -46.5t94.5 -12.5q151 0 262 97v779h200v-1032h-180l-18 109q-73 -62 -162 -93.5t-165 -31.5q-189 0 -270 106.5t-81 367.5z" />
<glyph unicode="v" horiz-adv-x="1021" d="M14 1032h215l281 -837l282 837h214l-395 -1032h-201z" />
<glyph unicode="w" horiz-adv-x="1707" d="M16 1032h213l265 -820l268 820h208l271 -817l252 817h198l-347 -1032h-206l-278 782l-263 -782h-206z" />
<glyph unicode="x" horiz-adv-x="1025" d="M21 0l378 518l-355 514h227l246 -373l263 373h224l-384 -513l375 -519h-226l-263 376l-258 -376h-227z" />
<glyph unicode="y" horiz-adv-x="1025" d="M51 1032h213l298 -822l267 822h211l-424 -1159q-17 -47 -38.5 -86t-57.5 -78t-81 -65.5t-110.5 -43t-144.5 -16.5q-22 0 -72 6v154q27 -8 53 -8q65 0 115.5 17.5t86.5 53t60 74.5t48 95z" />
<glyph unicode="z" horiz-adv-x="1025" d="M89 0v116l600 756h-563v160h819v-116l-609 -756h631v-160h-878z" />
<glyph unicode="{" horiz-adv-x="1023" d="M172 625v145h71q74 0 120.5 14.5t81.5 55.5t50 115t15 192v61q0 36 0.5 58.5t4 57t10 56.5t18.5 50.5t29.5 46.5t44 37.5t60.5 30.5t80 18t102 7q68 0 107 -8v-142q-41 12 -117 12q-45 0 -76.5 -9t-49.5 -23.5t-27.5 -40.5t-12.5 -51.5t-3 -64.5v-104q0 -194 -47 -287 t-164 -143v-19q117 -50 164 -146.5t47 -291.5v-104q0 -39 3 -64.5t12.5 -51.5t27.5 -40.5t49.5 -23.5t76.5 -9q76 0 117 12v-142q-39 -8 -107 -8q-56 0 -102 7t-80 18t-60.5 30.5t-44 37.5t-29.5 46.5t-18.5 50.5t-10 56.5t-4 57t-0.5 58.5v61q0 118 -15 193t-50 116.5 t-81.5 56.5t-120.5 15h-71z" />
<glyph unicode="|" horiz-adv-x="511" d="M165 -170v1530h180v-1530h-180z" />
<glyph unicode="}" horiz-adv-x="1023" d="M95 -29q41 -12 117 -12q45 0 76.5 9t49.5 23.5t27.5 40.5t12.5 51.5t3 64.5v104q0 195 47 291.5t164 146.5v19q-117 50 -164 143t-47 287v104q0 39 -3 64.5t-12.5 51.5t-27.5 40.5t-49.5 23.5t-76.5 9q-76 0 -117 -12v142q39 8 107 8q56 0 102 -7t80 -18t60.5 -30.5 t44 -37.5t29.5 -46.5t18.5 -50.5t10 -56.5t4 -57t0.5 -58.5v-61q0 -118 15 -192t50 -115t81.5 -55.5t120.5 -14.5h71v-145h-71q-74 0 -120.5 -15t-81.5 -56.5t-50 -116.5t-15 -193v-61q0 -36 -0.5 -58.5t-4 -57t-10 -56.5t-18.5 -50.5t-29.5 -46.5t-44 -37.5t-60.5 -30.5 t-80 -18t-102 -7q-68 0 -107 8v142z" />
<glyph unicode="~" d="M20 551q0 153 84.5 243t211.5 90q24 0 46.5 -3t40 -6.5t40 -13t35.5 -15t38 -20.5t35.5 -21.5t41 -26.5t41.5 -27q14 -9 54.5 -38t62.5 -42.5t58 -27t69 -13.5q59 0 97.5 52t38.5 129h160q0 -153 -84.5 -243t-211.5 -90q-45 0 -85.5 9t-85.5 33t-70 39t-80 52 q-14 9 -48 32t-46 31t-37.5 23t-39.5 20t-33 10t-37 5q-59 0 -97.5 -52t-38.5 -129h-160z" />
<glyph unicode="&#xa1;" horiz-adv-x="512" d="M117 950q0 60 39 93.5t102 33.5q62 0 100.5 -33.5t38.5 -93.5q0 -59 -38.5 -93t-100.5 -34t-101.5 34t-39.5 93zM158 -398l16 1036h168l16 -1036h-200z" />
<glyph unicode="&#xa2;" horiz-adv-x="1024" d="M99 528q0 99 33.5 183t92.5 143t135 98.5t167 59.5v348h152v-330q3 0 10 0.5t11 0.5q158 0 224 -10v-178q-77 27 -224 27q-104 0 -183 -27.5t-125.5 -76t-69 -108.5t-22.5 -130q0 -76 22 -140t67.5 -115.5t122 -80.5t178.5 -29q163 0 242 34v-179q-75 -18 -252 -18h-1 v-340h-152v352q-204 36 -316 168t-112 348z" />
<glyph unicode="&#xa3;" d="M56 0v170q56 0 105 21t89 63t63 112.5t23 161.5h-254v152h254v40q0 44 3 83t15 92.5t32 97.5t57.5 89.5t87.5 76.5t126 51t170 20q111 0 201 -10l1 -179q-99 19 -202 19q-80 0 -136.5 -20t-87.5 -49.5t-48.5 -77.5t-22 -89t-4.5 -100v-44h340v-152h-342q-9 -116 -57 -208 t-112 -146v-4h703v-170h-1004z" />
<glyph unicode="&#xa4;" d="M20 131l232 231q-69 104 -69 233q0 127 69 231l-231 232l131 132l236 -236q96 56 206 56q111 0 208 -57l237 236l131 -130l-232 -234q69 -106 69 -230q0 -126 -70 -231l233 -232l-132 -131l-236 234q-95 -56 -208 -56t-208 56l-235 -235zM326 595q1 -110 79.5 -187 t189.5 -77t190 77t79 187q0 109 -79 186t-190 77t-190 -77t-79 -186z" />
<glyph unicode="&#xa5;" d="M-16 1232h223l388 -434l391 434h220l-515 -592h377v-154h-377v-162h377v-154h-377v-170h-192v170h-377v154h377v162h-377v154h377z" />
<glyph unicode="&#xa6;" horiz-adv-x="511" d="M165 -170v669h180v-669h-180zM165 690v670h180v-670h-180z" />
<glyph unicode="&#xa7;" horiz-adv-x="1023" d="M70 651q0 91 75.5 168t203.5 126q-93 52 -142 112t-49 151q0 136 114.5 226t330.5 90q99 0 222 -16v-183q-137 23 -228 23q-247 0 -247 -148q0 -108 150 -166l163 -63q146 -56 216.5 -129t70.5 -193q0 -92 -76.5 -169t-204.5 -124q94 -52 143.5 -112.5t49.5 -151.5 q0 -136 -114.5 -226t-330.5 -90q-99 0 -222 16v183q137 -23 228 -23q65 0 111.5 9t72.5 22.5t40.5 34.5t18.5 39.5t4 42.5q0 52 -40 96t-110 70l-163 63q-146 56 -216.5 129t-70.5 193zM254 651q0 -27 10 -52.5t33.5 -53.5t72 -52.5t117.5 -40.5q138 12 208.5 69.5 t70.5 127.5q0 28 -9 52t-32 51.5t-73 52.5t-123 44q-71 -6 -125.5 -26.5t-86 -49t-47.5 -59.5t-16 -63z" />
<glyph unicode="&#xa8;" horiz-adv-x="850" d="M70 1326q0 54 33.5 83t87.5 29q56 0 91 -29t35 -83q0 -53 -35 -82.5t-91 -29.5q-53 0 -87 29.5t-34 82.5zM535 1326q0 54 33.5 83t87.5 29q56 0 91 -29t35 -83q0 -53 -35 -82.5t-91 -29.5q-53 0 -87 29.5t-34 82.5z" />
<glyph unicode="&#xa9;" horiz-adv-x="1869" d="M136 567q0 162 63 309t170 253.5t255 169.5t310 63t310 -63t255 -169.5t170.5 -253.5t63.5 -309t-63.5 -309t-170.5 -253t-255 -169t-310 -63t-310 63t-255 169t-170 253t-63 309zM288 567q0 -177 86.5 -326.5t235 -236.5t324.5 -87q132 0 251.5 51.5t206 138.5 t138 207.5t51.5 252.5t-51.5 252.5t-138 208t-206.5 139t-251 51.5t-251 -51.5t-206.5 -139t-137.5 -208t-51 -252.5zM517 582q0 104 42.5 186.5t113.5 133t158.5 76.5t182.5 26q76 0 166 -10v-152q-90 20 -159 20q-156 0 -241.5 -75t-85.5 -205q0 -134 81.5 -219t235.5 -85 q116 0 180 26v-156q-68 -16 -192 -16q-212 0 -347 120.5t-135 329.5z" />
<glyph unicode="&#xaa;" horiz-adv-x="1023" d="M109 903q0 96 28.5 175t76 132t111 89.5t132 53t139.5 16.5q131 0 254 -15v-844h-151l-7 111q-30 -44 -91.5 -81t-153.5 -37q-45 0 -89.5 13t-90 43t-80 74.5t-56.5 114.5t-22 155zM289 903q0 -75 19 -129.5t50.5 -82t63.5 -40t65 -12.5q73 0 120.5 38t71.5 84v456 q-36 8 -93 8q-138 0 -217.5 -79.5t-79.5 -242.5z" />
<glyph unicode="&#xab;" horiz-adv-x="1706" d="M221 475v118l611 402v-196l-420 -266l420 -273v-196zM835 475v118l611 402v-196l-420 -266l420 -273v-196z" />
<glyph unicode="&#xac;" horiz-adv-x="1194" d="M97 686v164h923v-510h-154v346h-769z" />
<glyph unicode="&#xad;" horiz-adv-x="1229" />
<glyph unicode="&#xae;" horiz-adv-x="1869" d="M136 567q0 162 63 309t170 253.5t255 169.5t310 63t310 -63t255 -169.5t170.5 -253.5t63.5 -309t-63.5 -309t-170.5 -253t-255 -169t-310 -63t-310 63t-255 169t-170 253t-63 309zM288 567q0 -177 86.5 -326.5t235 -236.5t324.5 -87q132 0 251.5 51.5t206 138.5 t138 207.5t51.5 252.5t-51.5 252.5t-138 208t-206.5 139t-251 51.5t-251 -51.5t-206.5 -139t-137.5 -208t-51 -252.5zM625 170v850h265q113 0 193 -23t122 -64t60 -86.5t18 -101.5q0 -114 -67.5 -182t-201.5 -84q65 -170 236 -170q36 0 49 2v-143h-34q-88 0 -159 26 t-117.5 71.5t-76 97t-45.5 112.5h-93v-305h-149zM774 605h116q120 0 180.5 29.5t60.5 110.5q0 72 -59 106.5t-182 34.5h-116v-281z" />
<glyph unicode="&#xaf;" horiz-adv-x="681" d="M69 1240v152h542v-152h-542z" />
<glyph unicode="&#xb0;" horiz-adv-x="852" d="M94 1033q0 136 97 231.5t234 95.5t234 -95.5t97 -231.5t-97 -231.5t-234 -95.5t-234 95.5t-97 231.5zM246 1033q0 -76 52.5 -129.5t126.5 -53.5t126.5 53.5t52.5 129.5t-52.5 129.5t-126.5 53.5t-126.5 -53.5t-52.5 -129.5z" />
<glyph unicode="&#xb1;" horiz-adv-x="1194" d="M97 519v152h422v421h152v-421h429v-152h-429v-359h399v-154h-943v154h392v359h-422z" />
<glyph unicode="&#xb2;" horiz-adv-x="853" d="M94 510v92l159 126q168 133 222.5 207.5t54.5 149.5q0 62 -49.5 101t-162.5 39q-45 0 -111.5 -11.5t-91.5 -21.5v158q79 19 203 19q94 0 166 -19t113.5 -48t68 -68.5t35.5 -75t9 -73.5q0 -75 -55.5 -154t-172.5 -182l-87 -77v-8h354v-154h-655z" />
<glyph unicode="&#xb3;" horiz-adv-x="853" d="M92 536v156q122 -38 264 -38q113 0 176.5 31t63.5 90q0 68 -65.5 94t-217.5 26h-82v80l239 240h-370v145h640v-80l-273 -262v-3q308 -23 308 -240q0 -116 -104.5 -190.5t-314.5 -74.5q-155 0 -264 26z" />
<glyph unicode="&#xb4;" horiz-adv-x="1192" d="M509 1254l232 367h234l-288 -367h-178z" />
<glyph unicode="&#xb6;" horiz-adv-x="1196" d="M75 935q0 176 124.5 300.5t300.5 124.5h156v-1h218v1h156v-1700h-156v1553h-218v-1553h-156v850q-176 0 -300.5 124.5t-124.5 300.5z" />
<glyph unicode="&#xb7;" horiz-adv-x="512" d="M117 723q0 59 38.5 93t100.5 34t101.5 -34t39.5 -93q0 -60 -39 -93.5t-102 -33.5q-62 0 -100.5 33.5t-38.5 93.5z" />
<glyph unicode="&#xb8;" horiz-adv-x="1021" d="M486 -362q45 -9 87 -9q161 0 161 96q0 29 -26 42.5t-86 13.5h-120v303h144v-175h34q101 0 159.5 -45t58.5 -134q0 -106 -90.5 -172.5t-220.5 -66.5q-64 0 -101 8v139z" />
<glyph unicode="&#xb9;" horiz-adv-x="683" d="M55 960v180l318 228h104v-859h-171v624z" />
<glyph unicode="&#xba;" horiz-adv-x="1025" d="M103 935q0 205 115.5 319.5t291.5 114.5q177 0 292.5 -114.5t115.5 -319.5q0 -136 -55.5 -235.5t-146.5 -148t-206 -48.5q-176 0 -291.5 114.5t-115.5 317.5zM281 935q0 -81 21.5 -145t75 -106.5t132.5 -42.5q117 0 173.5 83.5t56.5 210.5q0 126 -58.5 211t-171.5 85 q-79 0 -132.5 -42.5t-75 -107t-21.5 -146.5z" />
<glyph unicode="&#xbb;" horiz-adv-x="1705" d="M281 64v196l420 273l-420 266v196l611 -402v-118zM895 64v196l420 273l-420 266v196l611 -402v-118z" />
<glyph unicode="&#xbc;" horiz-adv-x="854" d="M54 -69l338 579h206l-319 -517h228v177h172v-177h104v-137h-104v-197h-172v197h-453v75zM163 1130v180l318 228h104v-859h-171v624z" />
<glyph unicode="&#xbd;" horiz-adv-x="853" d="M124 -247l159 126q168 133 222.5 207.5t54.5 149.5q0 62 -49.5 101t-162.5 39q-45 0 -111.5 -11.5t-91.5 -21.5v158q79 19 203 19q94 0 166 -19t113.5 -48t68 -68.5t35.5 -75t9 -73.5q0 -75 -55.5 -154t-172.5 -182l-87 -77v-8h354v-154h-655v92zM163 1130v180l318 228 h104v-859h-171v624z" />
<glyph unicode="&#xbe;" horiz-adv-x="854" d="M54 -69l338 579h206l-319 -517h228v177h172v-177h104v-137h-104v-197h-172v197h-453v75zM98 705v156q122 -38 264 -38q113 0 176.5 31t63.5 90q0 68 -65.5 94t-217.5 26h-82v80l239 240h-370v145h640v-80l-273 -262v-3q308 -23 308 -240q0 -116 -104.5 -190.5 t-314.5 -74.5q-155 0 -264 26z" />
<glyph unicode="&#xbf;" horiz-adv-x="1024" d="M170 202q0 50 10.5 98t39 99.5t72 90.5t115.5 66t163 32v123h170v-282q-52 4 -101 4q-269 0 -269 -231q0 -79 31 -141.5t82 -102.5t122 -66.5t145.5 -38t158.5 -13.5v-188q-147 0 -269.5 29.5t-208 81t-145.5 121.5t-88 150t-28 168zM522 956q0 56 37 88t96 32 q58 0 94.5 -32t36.5 -88t-36.5 -88t-94.5 -32q-59 0 -96 32t-37 88z" />
<glyph unicode="&#xc0;" horiz-adv-x="1365" d="M27 0l587 1392h137l587 -1392h-208l-141 350h-618l-140 -350h-204zM350 1897h234l232 -367h-178zM436 510h489l-244 610z" />
<glyph unicode="&#xc1;" horiz-adv-x="1365" d="M27 0l587 1392h137l587 -1392h-208l-141 350h-618l-140 -350h-204zM436 510h489l-244 610zM546 1530l232 367h234l-288 -367h-178z" />
<glyph unicode="&#xc2;" horiz-adv-x="1365" d="M27 0l587 1392h137l587 -1392h-208l-141 350h-618l-140 -350h-204zM355 1553v192l324 230l324 -230v-192l-324 214zM436 510h489l-244 610z" />
<glyph unicode="&#xc3;" horiz-adv-x="1365" d="M27 0l587 1392h137l587 -1392h-208l-141 350h-618l-140 -350h-204zM265 1602q0 113 68.5 187t167.5 74q22 0 43.5 -5t36.5 -10.5t37.5 -19.5t32 -20.5t36 -26.5t34.5 -26q6 -4 24.5 -18.5t28 -21t25.5 -15.5t31 -13t31 -4q36 0 60 28t24 79h152q0 -113 -68.5 -187 t-167.5 -74q-39 0 -81 16.5t-67 33.5t-62 46q-12 9 -33 26.5t-31 24.5t-25.5 16.5t-29.5 13t-31 3.5q-36 0 -60 -28t-24 -79h-152zM436 510h489l-244 610z" />
<glyph unicode="&#xc4;" horiz-adv-x="1365" d="M27 0l587 1392h137l587 -1392h-208l-141 350h-618l-140 -350h-204zM316 1670q0 54 33.5 83t87.5 29q56 0 91 -29t35 -83q0 -53 -35 -82.5t-91 -29.5q-53 0 -87 29.5t-34 82.5zM436 510h489l-244 610zM781 1670q0 54 33.5 83t87.5 29q56 0 91 -29t35 -83q0 -53 -35 -82.5 t-91 -29.5q-53 0 -87 29.5t-34 82.5z" />
<glyph unicode="&#xc5;" horiz-adv-x="1365" d="M27 0l587 1392h137l587 -1392h-208l-141 350h-618l-140 -350h-204zM404 1771q0 112 80.5 190.5t195.5 78.5t196 -78.5t81 -190.5t-81 -190t-196 -78t-195.5 78t-80.5 190zM436 510h489l-244 610zM532 1771q0 -65 43 -110.5t105 -45.5t105.5 45.5t43.5 110.5t-43.5 111 t-105.5 46t-105 -46t-43 -111z" />
<glyph unicode="&#xc6;" horiz-adv-x="1872" d="M20 0l903 1392h832v-174h-566v-410h396v-168h-396v-464h566v-176h-766v350h-521l-224 -350h-224zM570 510h419v655z" />
<glyph unicode="&#xc7;" d="M92 710q0 138 40.5 253t110 195t164 136t201.5 82t224 26q155 0 236 -14v-191q-71 22 -226 22q-268 0 -405 -135t-137 -374q0 -117 33 -213t98.5 -168.5t170.5 -112.5t241 -40q158 0 257 24v-192q-104 -18 -275 -18q-25 0 -49 1v-82h34q101 0 159.5 -45t58.5 -134 q0 -106 -90.5 -172.5t-220.5 -66.5q-64 0 -101 8v139q45 -9 87 -9q161 0 161 96q0 29 -26 42.5t-86 13.5h-120v228q-122 24 -220.5 81t-170 144t-110.5 208t-39 268z" />
<glyph unicode="&#xc8;" d="M154 0v1392h899v-174h-699v-410h529v-168h-529v-464h699v-176h-899zM285 1897h234l232 -367h-178z" />
<glyph unicode="&#xc9;" d="M154 0v1392h899v-174h-699v-410h529v-168h-529v-464h699v-176h-899zM481 1530l232 367h234l-288 -367h-178z" />
<glyph unicode="&#xca;" d="M154 0v1392h899v-174h-699v-410h529v-168h-529v-464h699v-176h-899zM290 1553v192l324 230l324 -230v-192l-324 214z" />
<glyph unicode="&#xcb;" d="M154 0v1392h899v-174h-699v-410h529v-168h-529v-464h699v-176h-899zM270 1670q0 54 33.5 83t87.5 29q56 0 91 -29t35 -83q0 -53 -35 -82.5t-91 -29.5q-53 0 -87 29.5t-34 82.5zM735 1670q0 54 33.5 83t87.5 29q56 0 91 -29t35 -83q0 -53 -35 -82.5t-91 -29.5 q-53 0 -87 29.5t-34 82.5z" />
<glyph unicode="&#xcc;" horiz-adv-x="512" d="M-74 1897h234l232 -367h-178zM156 0v1392h200v-1392h-200z" />
<glyph unicode="&#xcd;" horiz-adv-x="512" d="M122 1530l232 367h234l-288 -367h-178zM156 0v1392h200v-1392h-200z" />
<glyph unicode="&#xce;" horiz-adv-x="512" d="M-69 1553v192l324 230l324 -230v-192l-324 214zM156 0v1392h200v-1392h-200z" />
<glyph unicode="&#xcf;" horiz-adv-x="512" d="M-108 1670q0 54 33.5 83t87.5 29q56 0 91 -29t35 -83q0 -53 -35 -82.5t-91 -29.5q-53 0 -87 29.5t-34 82.5zM156 0v1392h200v-1392h-200zM357 1670q0 54 33.5 83t87.5 29q56 0 91 -29t35 -83q0 -53 -35 -82.5t-91 -29.5q-53 0 -87 29.5t-34 82.5z" />
<glyph unicode="&#xd0;" horiz-adv-x="1366" d="M29 666v154h125v571h338q166 0 302.5 -42t239.5 -125.5t159.5 -218.5t56.5 -311t-55 -310.5t-156 -217.5t-236 -124.5t-301 -41.5h-348v666h-125zM354 160h136q150 0 258 37t172.5 108t94.5 166.5t30 221.5q0 537 -566 537h-125v-410h355v-154h-355v-506z" />
<glyph unicode="&#xd1;" horiz-adv-x="1365" d="M153 0v1392h144q50 -71 318 -447.5t409 -579.5l-11 144v883h198v-1392h-143q-38 54 -312 438.5t-416 588.5l11 -174v-853h-198zM283 1602q0 113 68.5 187t167.5 74q22 0 43.5 -5t36.5 -10.5t37.5 -19.5t32 -20.5t36 -26.5t34.5 -26q6 -4 24.5 -18.5t28 -21t25.5 -15.5 t31 -13t31 -4q36 0 60 28t24 79h152q0 -113 -68.5 -187t-167.5 -74q-39 0 -81 16.5t-67 33.5t-62 46q-12 9 -33 26.5t-31 24.5t-25.5 16.5t-29.5 13t-31 3.5q-36 0 -60 -28t-24 -79h-152z" />
<glyph unicode="&#xd2;" horiz-adv-x="1536" d="M109 694q0 214 84.5 377t234 250t341.5 87q292 0 475 -195t183 -519q0 -214 -84 -376t-233 -248t-341 -86q-293 0 -476.5 193.5t-183.5 516.5zM309 695q0 -108 28 -204t82.5 -172.5t144.5 -121.5t205 -45t205 45t144 121.5t81.5 171.5t27.5 203q0 86 -17 165t-53 149 t-89 121.5t-129.5 81.5t-169.5 30t-170 -30t-130 -81.5t-89.5 -121.5t-53.5 -148.5t-17 -163.5zM438 1897h234l232 -367h-178z" />
<glyph unicode="&#xd3;" horiz-adv-x="1536" d="M109 694q0 214 84.5 377t234 250t341.5 87q292 0 475 -195t183 -519q0 -214 -84 -376t-233 -248t-341 -86q-293 0 -476.5 193.5t-183.5 516.5zM309 695q0 -108 28 -204t82.5 -172.5t144.5 -121.5t205 -45t205 45t144 121.5t81.5 171.5t27.5 203q0 86 -17 165t-53 149 t-89 121.5t-129.5 81.5t-169.5 30t-170 -30t-130 -81.5t-89.5 -121.5t-53.5 -148.5t-17 -163.5zM634 1530l232 367h234l-288 -367h-178z" />
<glyph unicode="&#xd4;" horiz-adv-x="1536" d="M109 694q0 214 84.5 377t234 250t341.5 87q292 0 475 -195t183 -519q0 -214 -84 -376t-233 -248t-341 -86q-293 0 -476.5 193.5t-183.5 516.5zM309 695q0 -108 28 -204t82.5 -172.5t144.5 -121.5t205 -45t205 45t144 121.5t81.5 171.5t27.5 203q0 86 -17 165t-53 149 t-89 121.5t-129.5 81.5t-169.5 30t-170 -30t-130 -81.5t-89.5 -121.5t-53.5 -148.5t-17 -163.5zM443 1553v192l324 230l324 -230v-192l-324 214z" />
<glyph unicode="&#xd5;" horiz-adv-x="1536" d="M109 694q0 214 84.5 377t234 250t341.5 87q292 0 475 -195t183 -519q0 -214 -84 -376t-233 -248t-341 -86q-293 0 -476.5 193.5t-183.5 516.5zM309 695q0 -108 28 -204t82.5 -172.5t144.5 -121.5t205 -45t205 45t144 121.5t81.5 171.5t27.5 203q0 86 -17 165t-53 149 t-89 121.5t-129.5 81.5t-169.5 30t-170 -30t-130 -81.5t-89.5 -121.5t-53.5 -148.5t-17 -163.5zM353 1602q0 113 68.5 187t167.5 74q22 0 43.5 -5t36.5 -10.5t37.5 -19.5t32 -20.5t36 -26.5t34.5 -26q6 -4 24.5 -18.5t28 -21t25.5 -15.5t31 -13t31 -4q36 0 60 28t24 79h152 q0 -113 -68.5 -187t-167.5 -74q-39 0 -81 16.5t-67 33.5t-62 46q-12 9 -33 26.5t-31 24.5t-25.5 16.5t-29.5 13t-31 3.5q-36 0 -60 -28t-24 -79h-152z" />
<glyph unicode="&#xd6;" horiz-adv-x="1536" d="M109 694q0 214 84.5 377t234 250t341.5 87q292 0 475 -195t183 -519q0 -214 -84 -376t-233 -248t-341 -86q-293 0 -476.5 193.5t-183.5 516.5zM309 695q0 -108 28 -204t82.5 -172.5t144.5 -121.5t205 -45t205 45t144 121.5t81.5 171.5t27.5 203q0 86 -17 165t-53 149 t-89 121.5t-129.5 81.5t-169.5 30t-170 -30t-130 -81.5t-89.5 -121.5t-53.5 -148.5t-17 -163.5zM404 1670q0 54 33.5 83t87.5 29q56 0 91 -29t35 -83q0 -53 -35 -82.5t-91 -29.5q-53 0 -87 29.5t-34 82.5zM869 1670q0 54 33.5 83t87.5 29q56 0 91 -29t35 -83 q0 -53 -35 -82.5t-91 -29.5q-53 0 -87 29.5t-34 82.5z" />
<glyph unicode="&#xd7;" horiz-adv-x="1194" d="M147 250l337 337l-337 337l111 111l337 -337l337 337l111 -111l-337 -337l337 -337l-111 -111l-337 337l-337 -337z" />
<glyph unicode="&#xd8;" horiz-adv-x="1536" d="M94 -12l170 222q-155 190 -155 484q0 161 49 295t136 226t209 142.5t266 50.5q196 0 347 -91l143 187l130 -100l-145 -191q88 -94 135.5 -226.5t47.5 -292.5q0 -214 -84 -376t-233 -248t-341 -86q-221 0 -384 113l-161 -209zM309 695q0 -86 17 -164.5t54 -148t90 -120.5 t130 -80.5t169 -29.5q67 0 125.5 15.5t104.5 43t83.5 66.5t64.5 86t45 101t26.5 111t8.5 118q0 86 -17 165t-53 149t-89 121.5t-129.5 81.5t-169.5 30t-170 -30t-130 -81.5t-89.5 -121.5t-53.5 -148.5t-17 -163.5z" />
<glyph unicode="&#xd9;" horiz-adv-x="1365" d="M154 559v833h200v-833q0 -403 329 -403q328 0 328 403v833h200v-833q0 -151 -39 -263.5t-110.5 -179.5t-166 -99.5t-212.5 -32.5q-119 0 -213.5 32.5t-166 99.5t-110.5 179.5t-39 263.5zM352 1897h234l232 -367h-178z" />
<glyph unicode="&#xda;" horiz-adv-x="1365" d="M154 559v833h200v-833q0 -403 329 -403q328 0 328 403v833h200v-833q0 -151 -39 -263.5t-110.5 -179.5t-166 -99.5t-212.5 -32.5q-119 0 -213.5 32.5t-166 99.5t-110.5 179.5t-39 263.5zM548 1530l232 367h234l-288 -367h-178z" />
<glyph unicode="&#xdb;" horiz-adv-x="1365" d="M154 559v833h200v-833q0 -403 329 -403q328 0 328 403v833h200v-833q0 -151 -39 -263.5t-110.5 -179.5t-166 -99.5t-212.5 -32.5q-119 0 -213.5 32.5t-166 99.5t-110.5 179.5t-39 263.5zM357 1553v192l324 230l324 -230v-192l-324 214z" />
<glyph unicode="&#xdc;" horiz-adv-x="1365" d="M154 559v833h200v-833q0 -403 329 -403q328 0 328 403v833h200v-833q0 -151 -39 -263.5t-110.5 -179.5t-166 -99.5t-212.5 -32.5q-119 0 -213.5 32.5t-166 99.5t-110.5 179.5t-39 263.5zM318 1670q0 54 33.5 83t87.5 29q56 0 91 -29t35 -83q0 -53 -35 -82.5t-91 -29.5 q-53 0 -87 29.5t-34 82.5zM783 1670q0 54 33.5 83t87.5 29q56 0 91 -29t35 -83q0 -53 -35 -82.5t-91 -29.5q-53 0 -87 29.5t-34 82.5z" />
<glyph unicode="&#xdd;" horiz-adv-x="1200" d="M0 1392h216l388 -622l380 622h216l-495 -784v-608h-208v606zM466 1530l232 367h234l-288 -367h-178z" />
<glyph unicode="&#xde;" d="M170 0v1392h200v-230h193q131 0 231.5 -27t159.5 -69t96 -101.5t50 -116.5t13 -123q0 -92 -27.5 -167t-75 -126.5t-114.5 -86t-143.5 -50t-163.5 -15.5h-221l2 -280h-200zM368 440h182q180 0 267.5 70.5t87.5 217.5q0 128 -82 201t-256 73h-199v-562z" />
<glyph unicode="&#xdf;" horiz-adv-x="1190" d="M156 0v1034q0 219 116.5 341.5t352.5 122.5q101 0 179.5 -25t124.5 -67t69.5 -94t23.5 -110q0 -34 -6.5 -64t-15.5 -52.5t-27.5 -46.5t-33.5 -40t-43 -37.5t-46 -33.5t-52 -35q-33 -22 -43 -29t-29 -21.5t-24.5 -25.5t-5.5 -23q0 -27 17 -47.5t73 -52.5l95 -55 q55 -32 90.5 -55.5t72.5 -55.5t57.5 -63t33.5 -73t13 -91q0 -62 -24.5 -116.5t-74 -100.5t-135 -73t-197.5 -27q-84 0 -208 18v177q119 -31 208 -31q70 0 117.5 15t68.5 40.5t29 48.5t8 49q0 48 -27.5 89.5t-100.5 81.5l-89 48q-68 37 -103 59t-67.5 55t-44.5 72t-12 94 q0 28 9.5 53t20.5 42t37.5 39.5t41.5 33t52.5 35t52.5 34.5q29 20 44.5 31.5t37.5 33.5t32.5 46.5t10.5 53.5q0 21 -9.5 43.5t-31 46t-65.5 38.5t-105 15q-58 0 -102 -12.5t-84 -45t-61 -96.5t-21 -158v-1033h-200z" />
<glyph unicode="&#xe0;" horiz-adv-x="1194" d="M129 495q0 142 53 251.5t141.5 173.5t193.5 96t220 32q126 0 292 -16v-1032h-180l-8 119q-33 -45 -110 -89.5t-177 -44.5q-55 0 -109.5 14t-112.5 50.5t-102 92t-72.5 147t-28.5 206.5zM337 495q0 -83 17.5 -148t44 -103t62 -62.5t68 -33.5t65.5 -9q86 0 148 42.5 t87 89.5v614q-40 8 -102 8q-185 0 -287.5 -97t-102.5 -301zM353 1621h234l232 -367h-178z" />
<glyph unicode="&#xe1;" horiz-adv-x="1194" d="M129 495q0 142 53 251.5t141.5 173.5t193.5 96t220 32q126 0 292 -16v-1032h-180l-8 119q-33 -45 -110 -89.5t-177 -44.5q-55 0 -109.5 14t-112.5 50.5t-102 92t-72.5 147t-28.5 206.5zM337 495q0 -83 17.5 -148t44 -103t62 -62.5t68 -33.5t65.5 -9q86 0 148 42.5 t87 89.5v614q-40 8 -102 8q-185 0 -287.5 -97t-102.5 -301zM592 1254l232 367h234l-288 -367h-178z" />
<glyph unicode="&#xe2;" horiz-adv-x="1194" d="M129 495q0 142 53 251.5t141.5 173.5t193.5 96t220 32q126 0 292 -16v-1032h-180l-8 119q-33 -45 -110 -89.5t-177 -44.5q-55 0 -109.5 14t-112.5 50.5t-102 92t-72.5 147t-28.5 206.5zM337 495q0 -83 17.5 -148t44 -103t62 -62.5t68 -33.5t65.5 -9q86 0 148 42.5 t87 89.5v614q-40 8 -102 8q-185 0 -287.5 -97t-102.5 -301zM356 1222v192l324 230l324 -230v-192l-324 214z" />
<glyph unicode="&#xe3;" horiz-adv-x="1194" d="M129 495q0 142 53 251.5t141.5 173.5t193.5 96t220 32q126 0 292 -16v-1032h-180l-8 119q-33 -45 -110 -89.5t-177 -44.5q-55 0 -109.5 14t-112.5 50.5t-102 92t-72.5 147t-28.5 206.5zM264 1263q0 113 68.5 187t167.5 74q22 0 43.5 -5t36.5 -10.5t37.5 -19.5t32 -20.5 t36 -26.5t34.5 -26q6 -4 24.5 -18.5t28 -21t25.5 -15.5t31 -13t31 -4q36 0 60 28t24 79h152q0 -113 -68.5 -187t-167.5 -74q-39 0 -81 16.5t-67 33.5t-62 46q-12 9 -33 26.5t-31 24.5t-25.5 16.5t-29.5 13t-31 3.5q-36 0 -60 -28t-24 -79h-152zM337 495q0 -83 17.5 -148 t44 -103t62 -62.5t68 -33.5t65.5 -9q86 0 148 42.5t87 89.5v614q-40 8 -102 8q-185 0 -287.5 -97t-102.5 -301z" />
<glyph unicode="&#xe4;" horiz-adv-x="1194" d="M129 495q0 142 53 251.5t141.5 173.5t193.5 96t220 32q126 0 292 -16v-1032h-180l-8 119q-33 -45 -110 -89.5t-177 -44.5q-55 0 -109.5 14t-112.5 50.5t-102 92t-72.5 147t-28.5 206.5zM329 1326q0 54 33.5 83t87.5 29q56 0 91 -29t35 -83q0 -53 -35 -82.5t-91 -29.5 q-53 0 -87 29.5t-34 82.5zM337 495q0 -83 17.5 -148t44 -103t62 -62.5t68 -33.5t65.5 -9q86 0 148 42.5t87 89.5v614q-40 8 -102 8q-185 0 -287.5 -97t-102.5 -301zM794 1326q0 54 33.5 83t87.5 29q56 0 91 -29t35 -83q0 -53 -35 -82.5t-91 -29.5q-53 0 -87 29.5t-34 82.5z " />
<glyph unicode="&#xe5;" horiz-adv-x="1194" d="M129 495q0 142 53 251.5t141.5 173.5t193.5 96t220 32q126 0 292 -16v-1032h-180l-8 119q-33 -45 -110 -89.5t-177 -44.5q-55 0 -109.5 14t-112.5 50.5t-102 92t-72.5 147t-28.5 206.5zM337 495q0 -83 17.5 -148t44 -103t62 -62.5t68 -33.5t65.5 -9q86 0 148 42.5 t87 89.5v614q-40 8 -102 8q-185 0 -287.5 -97t-102.5 -301zM402 1489q0 112 80.5 190.5t195.5 78.5t196 -78.5t81 -190.5t-81 -190t-196 -78t-195.5 78t-80.5 190zM540 1487q0 -61 40 -103t98 -42t98.5 42t40.5 103q0 62 -40.5 105t-98.5 43t-98 -43t-40 -105z" />
<glyph unicode="&#xe6;" horiz-adv-x="1703" d="M92 323q0 73 31.5 130.5t84.5 95t126 62.5t151.5 35.5t166.5 10.5h116v44q0 88 -64.5 138t-194.5 50q-54 0 -98.5 -2t-80 -7t-54 -8.5t-50 -10.5t-38.5 -9v159q148 37 344 37q274 0 360 -140q64 67 154 103.5t174 36.5q190 0 290.5 -121.5t100.5 -338.5v-78h-655 q0 -361 314 -361q171 0 286 31v-169q-110 -26 -287 -26q-292 0 -417 200q-65 -101 -163.5 -150.5t-242.5 -49.5q-43 0 -88.5 10t-94 35t-86 62.5t-61.5 97t-24 133.5zM292 323q0 -94 57 -139t132 -45q54 0 105 16t97 48.5t74 90t28 132.5v83h-133q-83 0 -145.5 -9 t-112.5 -29t-76 -57.5t-26 -90.5zM861 871q1 1 1 2q-1 0 -1 -2zM956 657h455q0 107 -51 172.5t-153 65.5q-104 0 -177.5 -72t-73.5 -166z" />
<glyph unicode="&#xe7;" horiz-adv-x="1022" d="M109 528q0 102 32.5 188.5t87.5 147t129.5 102.5t157.5 62t172 20q143 0 200 -10v-178q-83 27 -198 27q-97 0 -171 -29t-117 -79.5t-64 -113.5t-21 -137q0 -78 19.5 -144t59.5 -120.5t110 -85t164 -30.5q61 0 129 10.5t97 23.5v-179q-61 -19 -228 -19q-20 0 -39 1v-76h34 q101 0 159.5 -45t58.5 -134q0 -106 -90.5 -172.5t-220.5 -66.5q-64 0 -101 8v139q45 -9 87 -9q161 0 161 96q0 29 -26 42.5t-86 13.5h-120v225q-178 45 -277 179.5t-99 342.5z" />
<glyph unicode="&#xe8;" horiz-adv-x="1025" d="M71 537q0 97 28.5 181.5t76.5 144t110 102t129.5 63t134.5 20.5q132 0 226.5 -61t139.5 -163.5t45 -236.5v-78h-682q0 -55 9 -103t34 -97t64 -83.5t103.5 -56t148.5 -21.5q151 0 266 31v-169q-111 -26 -267 -26q-566 0 -566 553zM260 1621h234l232 -367h-178zM284 656 h477q0 96 -57.5 167t-166.5 71q-115 0 -184 -70.5t-69 -167.5z" />
<glyph unicode="&#xe9;" horiz-adv-x="1025" d="M71 537q0 97 28.5 181.5t76.5 144t110 102t129.5 63t134.5 20.5q132 0 226.5 -61t139.5 -163.5t45 -236.5v-78h-682q0 -55 9 -103t34 -97t64 -83.5t103.5 -56t148.5 -21.5q151 0 266 31v-169q-111 -26 -267 -26q-566 0 -566 553zM284 656h477q0 96 -57.5 167t-166.5 71 q-115 0 -184 -70.5t-69 -167.5zM499 1254l232 367h234l-288 -367h-178z" />
<glyph unicode="&#xea;" horiz-adv-x="1025" d="M71 537q0 97 28.5 181.5t76.5 144t110 102t129.5 63t134.5 20.5q132 0 226.5 -61t139.5 -163.5t45 -236.5v-78h-682q0 -55 9 -103t34 -97t64 -83.5t103.5 -56t148.5 -21.5q151 0 266 31v-169q-111 -26 -267 -26q-566 0 -566 553zM263 1222v192l324 230l324 -230v-192 l-324 214zM284 656h477q0 96 -57.5 167t-166.5 71q-115 0 -184 -70.5t-69 -167.5z" />
<glyph unicode="&#xeb;" horiz-adv-x="1025" d="M71 537q0 97 28.5 181.5t76.5 144t110 102t129.5 63t134.5 20.5q132 0 226.5 -61t139.5 -163.5t45 -236.5v-78h-682q0 -55 9 -103t34 -97t64 -83.5t103.5 -56t148.5 -21.5q151 0 266 31v-169q-111 -26 -267 -26q-566 0 -566 553zM236 1326q0 54 33.5 83t87.5 29 q56 0 91 -29t35 -83q0 -53 -35 -82.5t-91 -29.5q-53 0 -87 29.5t-34 82.5zM284 656h477q0 96 -57.5 167t-166.5 71q-115 0 -184 -70.5t-69 -167.5zM701 1326q0 54 33.5 83t87.5 29q56 0 91 -29t35 -83q0 -53 -35 -82.5t-91 -29.5q-53 0 -87 29.5t-34 82.5z" />
<glyph unicode="&#xec;" horiz-adv-x="509" d="M-71 1621h234l232 -367h-178zM154 0v1032h200v-1032h-200z" />
<glyph unicode="&#xed;" horiz-adv-x="509" d="M154 0v1032h200v-1032h-200zM168 1254l232 367h234l-288 -367h-178z" />
<glyph unicode="&#xee;" horiz-adv-x="509" d="M-68 1222v192l324 230l324 -230v-192l-324 214zM154 0v1032h200v-1032h-200z" />
<glyph unicode="&#xef;" horiz-adv-x="509" d="M-95 1326q0 54 33.5 83t87.5 29q56 0 91 -29t35 -83q0 -53 -35 -82.5t-91 -29.5q-53 0 -87 29.5t-34 82.5zM154 0v1032h200v-1032h-200zM370 1326q0 54 33.5 83t87.5 29q56 0 91 -29t35 -83q0 -53 -35 -82.5t-91 -29.5q-53 0 -87 29.5t-34 82.5z" />
<glyph unicode="&#xf0;" horiz-adv-x="1198" d="M100 458q0 88 27 164t73.5 131t108 94t131.5 58.5t143 19.5q92 0 180 -30t134 -98h4q-38 224 -214 398l-269 -115l-47 144l184 79q-115 79 -262 140l177 87q150 -59 265 -150l269 115l47 -145l-195 -83q247 -278 247 -701q0 -256 -140 -419t-362 -163q-135 0 -247.5 55 t-183 164.5t-70.5 254.5zM308 459q0 -62 17.5 -118t51.5 -102t92 -73t132 -27q64 0 116 20.5t86 53.5t57 75.5t33 85.5t10 85q0 126 -82 215.5t-220 89.5q-142 0 -217.5 -87t-75.5 -218z" />
<glyph unicode="&#xf1;" d="M155 0v1032h185l14 -112q80 63 169.5 95.5t167.5 32.5q184 0 272 -113t88 -371v-564h-200v564q0 171 -58 241.5t-173 70.5q-149 0 -265 -101v-775h-200zM184 1263q0 113 68.5 187t167.5 74q22 0 43.5 -5t36.5 -10.5t37.5 -19.5t32 -20.5t36 -26.5t34.5 -26 q6 -4 24.5 -18.5t28 -21t25.5 -15.5t31 -13t31 -4q36 0 60 28t24 79h152q0 -113 -68.5 -187t-167.5 -74q-39 0 -81 16.5t-67 33.5t-62 46q-12 9 -33 26.5t-31 24.5t-25.5 16.5t-29.5 13t-31 3.5q-36 0 -60 -28t-24 -79h-152z" />
<glyph unicode="&#xf2;" horiz-adv-x="1194" d="M88 518q0 123 42 225.5t113.5 169t164 103.5t194.5 37q101 0 191 -37t159.5 -104t110 -169t40.5 -225q0 -122 -41 -224t-110 -169t-160 -104t-191 -37q-102 0 -194.5 37t-163.5 104t-113 169t-42 224zM268 1621h234l232 -367h-178zM296 518q0 -75 17 -140.5t52 -120.5 t95.5 -87t140.5 -32q76 0 134.5 32t92.5 87t50.5 120.5t16.5 140.5t-17.5 141.5t-52 121t-92 86.5t-131.5 32q-102 0 -173 -56t-102 -140t-31 -185z" />
<glyph unicode="&#xf3;" horiz-adv-x="1194" d="M88 518q0 123 42 225.5t113.5 169t164 103.5t194.5 37q101 0 191 -37t159.5 -104t110 -169t40.5 -225q0 -122 -41 -224t-110 -169t-160 -104t-191 -37q-102 0 -194.5 37t-163.5 104t-113 169t-42 224zM296 518q0 -75 17 -140.5t52 -120.5t95.5 -87t140.5 -32 q76 0 134.5 32t92.5 87t50.5 120.5t16.5 140.5t-17.5 141.5t-52 121t-92 86.5t-131.5 32q-102 0 -173 -56t-102 -140t-31 -185zM507 1254l232 367h234l-288 -367h-178z" />
<glyph unicode="&#xf4;" horiz-adv-x="1194" d="M88 518q0 123 42 225.5t113.5 169t164 103.5t194.5 37q101 0 191 -37t159.5 -104t110 -169t40.5 -225q0 -122 -41 -224t-110 -169t-160 -104t-191 -37q-102 0 -194.5 37t-163.5 104t-113 169t-42 224zM271 1222v192l324 230l324 -230v-192l-324 214zM296 518 q0 -75 17 -140.5t52 -120.5t95.5 -87t140.5 -32q76 0 134.5 32t92.5 87t50.5 120.5t16.5 140.5t-17.5 141.5t-52 121t-92 86.5t-131.5 32q-102 0 -173 -56t-102 -140t-31 -185z" />
<glyph unicode="&#xf5;" horiz-adv-x="1194" d="M88 518q0 123 42 225.5t113.5 169t164 103.5t194.5 37q101 0 191 -37t159.5 -104t110 -169t40.5 -225q0 -122 -41 -224t-110 -169t-160 -104t-191 -37q-102 0 -194.5 37t-163.5 104t-113 169t-42 224zM179 1263q0 113 68.5 187t167.5 74q22 0 43.5 -5t36.5 -10.5 t37.5 -19.5t32 -20.5t36 -26.5t34.5 -26q6 -4 24.5 -18.5t28 -21t25.5 -15.5t31 -13t31 -4q36 0 60 28t24 79h152q0 -113 -68.5 -187t-167.5 -74q-39 0 -81 16.5t-67 33.5t-62 46q-12 9 -33 26.5t-31 24.5t-25.5 16.5t-29.5 13t-31 3.5q-36 0 -60 -28t-24 -79h-152zM296 518 q0 -75 17 -140.5t52 -120.5t95.5 -87t140.5 -32q76 0 134.5 32t92.5 87t50.5 120.5t16.5 140.5t-17.5 141.5t-52 121t-92 86.5t-131.5 32q-102 0 -173 -56t-102 -140t-31 -185z" />
<glyph unicode="&#xf6;" horiz-adv-x="1194" d="M88 518q0 123 42 225.5t113.5 169t164 103.5t194.5 37q101 0 191 -37t159.5 -104t110 -169t40.5 -225q0 -122 -41 -224t-110 -169t-160 -104t-191 -37q-102 0 -194.5 37t-163.5 104t-113 169t-42 224zM244 1326q0 54 33.5 83t87.5 29q56 0 91 -29t35 -83q0 -53 -35 -82.5 t-91 -29.5q-53 0 -87 29.5t-34 82.5zM296 518q0 -75 17 -140.5t52 -120.5t95.5 -87t140.5 -32q76 0 134.5 32t92.5 87t50.5 120.5t16.5 140.5t-17.5 141.5t-52 121t-92 86.5t-131.5 32q-102 0 -173 -56t-102 -140t-31 -185zM709 1326q0 54 33.5 83t87.5 29q56 0 91 -29 t35 -83q0 -53 -35 -82.5t-91 -29.5q-53 0 -87 29.5t-34 82.5z" />
<glyph unicode="&#xf7;" horiz-adv-x="1194" d="M127 519v154h943v-154h-943zM455 222q0 59 38.5 93t100.5 34t101.5 -34t39.5 -93q0 -60 -39 -93.5t-102 -33.5q-62 0 -100.5 33.5t-38.5 93.5zM455 969q0 59 38.5 93t100.5 34t101.5 -34t39.5 -93q0 -60 -39 -93.5t-102 -33.5q-62 0 -100.5 33.5t-38.5 93.5z" />
<glyph unicode="&#xf8;" horiz-adv-x="1194" d="M76 0l132 163q-120 144 -120 355q0 123 42 225.5t113.5 169t164 103.5t194.5 37q147 0 266 -74l128 157l127 -104l-132 -163q112 -143 112 -351q0 -122 -41 -224t-110 -169t-160 -104t-191 -37q-146 0 -268 72l-130 -160zM296 518q0 -59 10.5 -113t33.5 -103t58 -85 t87 -57.5t116 -21.5q62 0 112 21.5t83.5 57.5t56 85t32.5 103t10 113t-10.5 113.5t-34 103.5t-57 85.5t-83 57.5t-108.5 21q-62 0 -113.5 -21t-86.5 -57.5t-59.5 -85.5t-35.5 -103.5t-11 -113.5z" />
<glyph unicode="&#xf9;" d="M152 458v574h200v-564q0 -96 12.5 -157.5t41 -95.5t66 -46.5t94.5 -12.5q151 0 262 97v779h200v-1032h-180l-18 109q-73 -62 -162 -93.5t-165 -31.5q-189 0 -270 106.5t-81 367.5zM269 1621h234l232 -367h-178z" />
<glyph unicode="&#xfa;" d="M152 458v574h200v-564q0 -96 12.5 -157.5t41 -95.5t66 -46.5t94.5 -12.5q151 0 262 97v779h200v-1032h-180l-18 109q-73 -62 -162 -93.5t-165 -31.5q-189 0 -270 106.5t-81 367.5zM508 1254l232 367h234l-288 -367h-178z" />
<glyph unicode="&#xfb;" d="M152 458v574h200v-564q0 -96 12.5 -157.5t41 -95.5t66 -46.5t94.5 -12.5q151 0 262 97v779h200v-1032h-180l-18 109q-73 -62 -162 -93.5t-165 -31.5q-189 0 -270 106.5t-81 367.5zM272 1222v192l324 230l324 -230v-192l-324 214z" />
<glyph unicode="&#xfc;" d="M152 458v574h200v-564q0 -96 12.5 -157.5t41 -95.5t66 -46.5t94.5 -12.5q151 0 262 97v779h200v-1032h-180l-18 109q-73 -62 -162 -93.5t-165 -31.5q-189 0 -270 106.5t-81 367.5zM245 1326q0 54 33.5 83t87.5 29q56 0 91 -29t35 -83q0 -53 -35 -82.5t-91 -29.5 q-53 0 -87 29.5t-34 82.5zM710 1326q0 54 33.5 83t87.5 29q56 0 91 -29t35 -83q0 -53 -35 -82.5t-91 -29.5q-53 0 -87 29.5t-34 82.5z" />
<glyph unicode="&#xfd;" horiz-adv-x="1025" d="M51 1032h213l298 -822l267 822h211l-424 -1159q-17 -47 -38.5 -86t-57.5 -78t-81 -65.5t-110.5 -43t-144.5 -16.5q-22 0 -72 6v154q27 -8 53 -8q65 0 115.5 17.5t86.5 53t60 74.5t48 95zM474 1254l232 367h234l-288 -367h-178z" />
<glyph unicode="&#xfe;" horiz-adv-x="1192" d="M168 -385v1883h202v-565q21 24 51 47t92.5 47t131.5 24q55 0 109.5 -14t112.5 -50.5t102 -92t72.5 -147t28.5 -206.5q0 -114 -35 -208.5t-94 -158t-138 -107t-164.5 -63t-176.5 -19.5q-67 0 -94 1v-371h-200zM368 147q40 -8 104 -8q184 0 287 98.5t103 303.5 q0 83 -17.5 148t-44 103t-62 62.5t-68 33.5t-65.5 9q-86 0 -149 -43t-88 -89v-618z" />
<glyph unicode="&#xff;" horiz-adv-x="1025" d="M51 1032h213l298 -822l267 822h211l-424 -1159q-17 -47 -38.5 -86t-57.5 -78t-81 -65.5t-110.5 -43t-144.5 -16.5q-22 0 -72 6v154q27 -8 53 -8q65 0 115.5 17.5t86.5 53t60 74.5t48 95zM211 1326q0 54 33.5 83t87.5 29q56 0 91 -29t35 -83q0 -53 -35 -82.5t-91 -29.5 q-53 0 -87 29.5t-34 82.5zM676 1326q0 54 33.5 83t87.5 29q56 0 91 -29t35 -83q0 -53 -35 -82.5t-91 -29.5q-53 0 -87 29.5t-34 82.5z" />
<glyph unicode="&#x152;" horiz-adv-x="1702" d="M109 694q0 213 97 373t264 242.5t381 82.5h766v-174h-566v-410h396v-168h-396v-464h566v-176h-766q-214 0 -381 81.5t-264 240.5t-97 372zM309 695q0 -108 33 -201.5t97.5 -167t170 -116t241.5 -42.5v1055q-144 0 -251.5 -42.5t-169.5 -117.5t-91.5 -167t-29.5 -201z" />
<glyph unicode="&#x153;" horiz-adv-x="1700" d="M71 518q0 123 37.5 225t101 169t146.5 104t176 37q108 0 200 -49.5t153 -142.5q62 95 152.5 141t187.5 46q132 0 224.5 -61t135.5 -163t43 -237v-78h-647q0 -55 8 -103t29.5 -97t56.5 -83.5t94 -56t136 -21.5q151 0 266 31v-169q-111 -26 -267 -26q-298 0 -423 186 q-61 -90 -152.5 -138t-197.5 -48q-93 0 -176 37t-146.5 104t-100.5 169t-37 224zM279 518q0 -75 13.5 -140.5t42 -120.5t79 -87t117.5 -32q66 0 116.5 32t79.5 87t43.5 120.5t14.5 140.5q0 101 -25.5 185t-84.5 140t-143 56q-85 0 -144 -56.5t-84 -139.5t-25 -185zM981 656 h447q0 97 -54 167.5t-162 70.5q-103 0 -167 -71t-64 -167z" />
<glyph unicode="&#x178;" horiz-adv-x="1200" d="M0 1392h216l388 -622l380 622h216l-495 -784v-608h-208v606zM236 1670q0 54 33.5 83t87.5 29q56 0 91 -29t35 -83q0 -53 -35 -82.5t-91 -29.5q-53 0 -87 29.5t-34 82.5zM701 1670q0 54 33.5 83t87.5 29q56 0 91 -29t35 -83q0 -53 -35 -82.5t-91 -29.5q-53 0 -87 29.5 t-34 82.5z" />
<glyph unicode="&#x2c6;" horiz-adv-x="1021" d="M186 1222v192l324 230l324 -230v-192l-324 214z" />
<glyph unicode="&#x2dc;" horiz-adv-x="1021" d="M94 1263q0 113 68.5 187t167.5 74q22 0 43.5 -5t36.5 -10.5t37.5 -19.5t32 -20.5t36 -26.5t34.5 -26q6 -4 24.5 -18.5t28 -21t25.5 -15.5t31 -13t31 -4q36 0 60 28t24 79h152q0 -113 -68.5 -187t-167.5 -74q-39 0 -81 16.5t-67 33.5t-62 46q-12 9 -33 26.5t-31 24.5 t-25.5 16.5t-29.5 13t-31 3.5q-36 0 -60 -28t-24 -79h-152z" />
<glyph unicode="&#x2000;" horiz-adv-x="1020" />
<glyph unicode="&#x2001;" horiz-adv-x="2040" />
<glyph unicode="&#x2002;" horiz-adv-x="1020" />
<glyph unicode="&#x2003;" horiz-adv-x="2040" />
<glyph unicode="&#x2004;" horiz-adv-x="680" />
<glyph unicode="&#x2005;" horiz-adv-x="510" />
<glyph unicode="&#x2006;" horiz-adv-x="340" />
<glyph unicode="&#x2007;" horiz-adv-x="340" />
<glyph unicode="&#x2008;" horiz-adv-x="255" />
<glyph unicode="&#x2009;" horiz-adv-x="408" />
<glyph unicode="&#x200a;" horiz-adv-x="113" />
<glyph unicode="&#x2010;" horiz-adv-x="1022" d="M170 518v154h680v-154h-680z" />
<glyph unicode="&#x2011;" horiz-adv-x="1022" d="M170 518v154h680v-154h-680z" />
<glyph unicode="&#x2012;" horiz-adv-x="1022" d="M170 518v154h680v-154h-680z" />
<glyph unicode="&#x2013;" d="M170 519v152h850v-152h-850z" />
<glyph unicode="&#x2014;" horiz-adv-x="1880" d="M170 519v152h1530v-152h-1530z" />
<glyph unicode="&#x2018;" horiz-adv-x="512" d="M109 1020v122q0 195 79.5 291.5t269.5 96.5v-160q-87 0 -121.5 -55.5t-34.5 -172.5v-122h-193z" />
<glyph unicode="&#x2019;" horiz-adv-x="512" d="M109 1020v160q87 0 121.5 55.5t34.5 172.5v122h193v-122q0 -195 -79.5 -291.5t-269.5 -96.5z" />
<glyph unicode="&#x201a;" horiz-adv-x="512" d="M15 -181q87 0 121.5 55.5t34.5 172.5v122h193v-122q0 -195 -79.5 -291.5t-269.5 -96.5v160z" />
<glyph unicode="&#x201c;" horiz-adv-x="1023" d="M170 1020v122q0 195 79.5 291.5t269.5 96.5v-160q-87 0 -121.5 -55.5t-34.5 -172.5v-122h-193zM585 1020v122q0 195 79.5 291.5t269.5 96.5v-160q-87 0 -121.5 -55.5t-34.5 -172.5v-122h-193z" />
<glyph unicode="&#x201d;" horiz-adv-x="1024" d="M86 1020v160q87 0 121.5 55.5t34.5 172.5v122h193v-122q0 -195 -79.5 -291.5t-269.5 -96.5zM501 1020v160q87 0 121.5 55.5t34.5 172.5v122h193v-122q0 -195 -79.5 -291.5t-269.5 -96.5z" />
<glyph unicode="&#x201e;" horiz-adv-x="1024" d="M86 -180q87 0 121.5 55.5t34.5 172.5v122h193v-122q0 -195 -79.5 -291.5t-269.5 -96.5v160zM501 -180q87 0 121.5 55.5t34.5 172.5v122h193v-122q0 -195 -79.5 -291.5t-269.5 -96.5v160z" />
<glyph unicode="&#x2022;" horiz-adv-x="853" d="M120 647q0 127 89.5 217t215.5 90t216.5 -90t90.5 -217q0 -125 -90.5 -215t-216.5 -90t-215.5 90t-89.5 215z" />
<glyph unicode="&#x2026;" horiz-adv-x="1533" d="M117 102q0 59 38.5 93t100.5 34t101.5 -34t39.5 -93q0 -60 -39 -93.5t-102 -33.5q-62 0 -100.5 33.5t-38.5 93.5zM628 102q0 59 38.5 93t100.5 34t101.5 -34t39.5 -93q0 -60 -39 -93.5t-102 -33.5q-62 0 -100.5 33.5t-38.5 93.5zM1139 102q0 59 38.5 93t100.5 34 t101.5 -34t39.5 -93q0 -60 -39 -93.5t-102 -33.5q-62 0 -100.5 33.5t-38.5 93.5z" />
<glyph unicode="&#x202f;" horiz-adv-x="408" />
<glyph unicode="&#x2039;" horiz-adv-x="1024" d="M170 475v118l611 402v-196l-429 -266l429 -273v-196z" />
<glyph unicode="&#x203a;" horiz-adv-x="1024" d="M239 64v196l429 273l-429 266v196l611 -402v-118z" />
<glyph unicode="&#x205f;" horiz-adv-x="510" />
<glyph unicode="&#x20ac;" d="M0 356l65 154h111q-6 48 -6 101q0 35 3 69h-173l65 153h139q44 130 141 221.5t223.5 134.5t273.5 43q163 0 260 -15v-190q-97 30 -260 30q-162 0 -273 -58t-164 -166h589l-66 -153h-566q-4 -29 -4 -69q0 -58 8 -101h484l-66 -154h-357q123 -186 441 -186q76 0 159 12 t115 27v-195q-91 -22 -274 -22q-238 0 -410.5 91.5t-243.5 272.5h-214z" />
<glyph unicode="&#x2122;" horiz-adv-x="1877" d="M145 1208v152h668v-152h-249v-698h-171v698h-248zM932 510v851h104l295 -370l296 370h104v-851h-172v534q-31 -43 -68 -87t-87.5 -100.5t-72.5 -82.5l-166 190l-61 80v-534h-172z" />
<glyph unicode="&#xe000;" horiz-adv-x="1030" d="M0 0v1030h1030v-1030h-1030z" />
<glyph unicode="&#xfb01;" d="M46 879v94l123 60l1 105q1 61 7 105.5t29.5 96t64.5 84t115.5 54.5t177.5 22q63 0 102 -8v-158q-41 12 -104 12q-109 0 -150.5 -44t-41.5 -137v-133h650v-1032h-200v879h-450v-879h-200v879h-124zM792 1332q0 56 35.5 87t92.5 31q59 0 95.5 -31t36.5 -87t-36.5 -87 t-95.5 -31q-56 0 -92 31.5t-36 86.5z" />
<glyph unicode="&#xfb02;" horiz-adv-x="1363" d="M46 879v94l124 60v73q0 66 10 118t40.5 105.5t81.5 89.5t139 58.5t206 22.5q209 0 402 -40v-2h1v-1067q0 -136 38 -190.5t124 -54.5q26 0 53 8v-154q-50 -6 -72 -6q-343 0 -343 396v935q-114 21 -202 21q-148 0 -213 -52.5t-65 -184.5v-77h250v-153h-250v-879h-200v879 h-124z" />
</font>
</defs>
</svg>
