<?xml version="1.0" standalone="no"?>
<!DOCTYPE svg PUBLIC "-//W3C//DTD SVG 1.1//EN" "http://www.w3.org/Graphics/SVG/1.1/DTD/svg11.dtd" >
<svg xmlns="http://www.w3.org/2000/svg">
<metadata></metadata>
<defs>
<font id="notmarykateregular" horiz-adv-x="879" >
<font-face units-per-em="1000" ascent="800" descent="-200" />
<missing-glyph horiz-adv-x="235" />
<glyph horiz-adv-x="1000" />
<glyph horiz-adv-x="1000" />
<glyph unicode="&#xd;" horiz-adv-x="235" />
<glyph unicode=" "  horiz-adv-x="235" />
<glyph unicode="&#x09;" horiz-adv-x="235" />
<glyph unicode="&#xa0;" horiz-adv-x="235" />
<glyph unicode="!" horiz-adv-x="340" d="M325 688q-42 -22 -42 -68l-34 -338q0 -49 45 -69l-4 -7q-21 7 -56 7h-120q-36 0 -57 -7l-4 7q42 20 42 68l-34 338q0 49 -45 69l4 6q22 -7 56 -7h188q30 0 57 7zM282 78q0 -46 -33 -78.5t-78 -32.5q-46 0 -78.5 32.5t-32.5 78.5t32.5 78.5t78.5 32.5q45 0 78 -32.5 t33 -78.5z" />
<glyph unicode="&#x22;" horiz-adv-x="426" d="M415 648q0 -28 -20 -61q-22 -36 -24 -54q-12 -82 -53 -82q-42 0 -52 83q-3 19 -25 54q-19 32 -19 60q0 40 28 68t68 28q39 0 68 -28t29 -68zM205 648q0 -28 -20 -61q-22 -36 -24 -54q-12 -82 -53 -82q-42 0 -52 83q-3 19 -25 54q-19 32 -19 60q0 40 28 68t68 28 q39 0 68 -28t29 -68z" />
<glyph unicode="#" horiz-adv-x="798" d="M788 553q-2 -5 -3 -14l-33 -155q-1 -4 -2 -12l-8 -10q-5 13 -15 13h-116l-13 -60h117q10 0 20 13l4 -10q-3 -6 -4 -14l-32 -155q-2 -10 -2 -11l-8 -10q-5 12 -15 12h-117l-24 -117q-3 -10 8 -17l-10 -6h-181l-8 6q13 7 16 18l24 116h-59l-25 -117q-3 -11 9 -17l-11 -6 h-181l-8 6q13 6 16 18l25 116h-117q-11 0 -21 -12l-3 10q2 6 2 11l33 155q1 5 3 14l7 10q4 -13 15 -13h117l13 60h-117q-11 0 -20 -13l-4 10l3 12l32 155q1 5 3 14l7 9q5 -12 16 -12h117l24 117q3 10 -9 17l11 6h181l8 -6q-14 -7 -16 -17l-24 -117h59l25 117q2 11 -9 17 l11 6h180l9 -6q-14 -6 -16 -17l-25 -117h117q9 0 20 12zM436 375h-60l-13 -60h60z" />
<glyph unicode="$" horiz-adv-x="546" d="M534 643q-17 -15 -32 -46l-63 -125q-16 -30 -20 -54h-8q1 45 -41 69q-46 25 -85 23t-35 -14q1 -11 33 -28q13 -7 75 -35q103 -47 138 -113q21 -43 21 -90q0 -61 -35.5 -109.5t-92.5 -70.5v-86q0 -48 45 -69l-4 -6q-21 7 -55 7h-140q-31 0 -57 -7l-4 6q42 22 42 68v85 q-50 14 -117 55q-18 10 -38 10q-24 0 -44 -14l-4 7q19 18 35 44l72 120q15 27 23 53l8 -1q-4 -46 37 -71q64 -40 108 -43q49 -3 49 22q0 5 -3 11q-2 3 -12 11q-17 12 -43 24q-82 37 -104 51q-80 50 -100 117q-8 24 -8 49q0 64 39 112.5t102 67.5v41q0 49 -44 69l4 7 q21 -7 55 -7h140q36 0 57 7l4 -7q-43 -21 -43 -68v-48q3 -1 45 -21q28 -13 47 -13q27 0 49 17z" />
<glyph unicode="%" horiz-adv-x="772" d="M755 165q0 -68 -48.5 -116.5t-116.5 -48.5t-116.5 48.5t-48.5 116.5t48.5 117t116.5 49t116.5 -49t48.5 -117zM674 687l-413 -687h-163l413 687h163zM348 522q0 -68 -49 -116.5t-117 -48.5t-116.5 48.5t-48.5 116.5t48.5 116.5t116.5 48.5t117 -48.5t49 -116.5zM614 165 q0 25 -24 25q-25 0 -25 -25q0 -24 25 -24q24 0 24 24zM207 522q0 24 -25 24q-24 0 -24 -24q0 -25 24 -25q25 0 25 25z" />
<glyph unicode="&#x26;" horiz-adv-x="776" d="M765 139q-19 -12 -41 -37l-92 -105q-22 -25 -32 -48l-8 1q2 9 2 19q0 35 -26 58l-81 71q-114 -121 -230 -121q-101 0 -173.5 71.5t-72.5 171.5q0 117 85 202q-20 40 -20 87q0 93 74 152q69 56 164 56q14 0 38 -4t34 -4q38 0 61 31l5 -5q-11 -19 -18 -53l-29 -137 q-8 -36 -5 -57l-8 -3q-12 58 -80 58q-63 0 -63 -34q0 -24 38 -24q9 0 18 1l162 -142l29 36q14 22 14 44q0 17 -7 32l7 3q16 -23 40 -42l109 -87q27 -22 48 -30l-2 -8q-10 3 -20 3q-28 0 -51 -21q-9 -8 -36 -43l83 -73q21 -18 49 -18q18 0 33 7zM357 212l-120 104 q-53 -38 -53 -96q0 -29 22 -49.5t51 -20.5q40 0 100 62z" />
<glyph unicode="'" horiz-adv-x="213" d="M203 648q0 -28 -20 -61q-21 -36 -24 -54q-12 -82 -53 -82t-52 83q-3 19 -24 54q-20 32 -20 60q0 40 28 68t68 28t68.5 -28t28.5 -68z" />
<glyph unicode="(" horiz-adv-x="390" d="M379 -53q-22 -11 -47 -34l-103 -95q-25 -23 -35 -43l-8 2q6 15 6 30q0 30 -19 50q-162 173 -162 405q0 233 162 406q19 20 19 50q0 15 -6 30l8 2q10 -20 35 -43l103 -95q25 -23 47 -34l-2 -8q-11 4 -23 4q-32 0 -55 -24q-115 -120 -115 -288q0 -167 115 -287 q23 -24 56 -24q11 0 22 3z" />
<glyph unicode=")" horiz-adv-x="390" d="M11 -53q22 -11 47 -34l103 -95q25 -23 35 -43l8 2q-6 15 -6 30q0 30 19 50q162 173 162 405q0 233 -162 406q-19 20 -19 50q0 15 6 30l-8 2q-10 -20 -35 -43l-103 -95q-25 -23 -47 -34l2 -8q11 4 23 4q32 0 55 -24q115 -120 115 -288q0 -167 -115 -287q-23 -24 -56 -24 q-11 0 -22 3z" />
<glyph unicode="*" horiz-adv-x="498" d="M475 483q-10 -10 -21 -29l-45 -77q-11 -19 -14 -34h-5q1 26 -24 45l-73 54l11 -89q4 -32 28 -44l-2 -4q-12 4 -35 4l-90 1q-20 0 -36 -5l-3 4q23 11 27 44l11 88l-71 -53q-27 -20 -24 -47h-5q-3 13 -14 33l-44 78q-7 11 -23 29l3 4q22 -15 51 -2l83 36l-82 36 q-31 13 -53 -3l-2 4q10 10 21 29l45 77q11 19 14 34h5q-1 -26 24 -45l71 -53l-10 87q-4 33 -28 44l2 5q13 -5 36 -5h89q21 0 36 5l3 -5q-23 -12 -27 -43l-11 -90l72 54q27 20 24 47h5q3 -13 14 -33l44 -78q10 -18 23 -29l-3 -4q-21 14 -51 1l-81 -35l80 -35q31 -13 53 3z " />
<glyph unicode="," horiz-adv-x="250" d="M239 55q4 -73 -36.5 -134t-107.5 -85l-31 65q56 19 84 69q-12 -3 -26 -3q-46 0 -78.5 32.5t-32.5 78.5t32.5 78.5t78.5 32.5q56 0 87 -42q27 -36 30 -92z" />
<glyph unicode="-" horiz-adv-x="351" d="M335 219l-7 -4q-20 42 -68 42h-168q-49 0 -69 -45l-7 4q7 21 7 56v139q0 37 -7 58l7 4q21 -43 68 -43h168q48 0 69 45l7 -4q-7 -20 -7 -55l-1 -140q0 -34 8 -57z" />
<glyph unicode="." horiz-adv-x="273" d="M248 78q0 -46 -32.5 -78.5t-78.5 -32.5t-78.5 32.5t-32.5 78.5t32.5 78.5t78.5 32.5t78.5 -32.5t32.5 -78.5z" />
<glyph unicode="0" horiz-adv-x="661" d="M645 344q0 -137 -88 -240q-92 -108 -226 -108q-135 0 -227 108q-87 103 -87 240t87 240q92 108 227 108q134 0 226 -108q88 -103 88 -240zM472 344q0 65 -37 117q-41 58 -104 58t-104 -58q-37 -52 -37 -117q0 -66 37 -117q41 -58 104 -58t104 58q37 51 37 117z" />
<glyph unicode="1" horiz-adv-x="344" d="M329 0l-4 -7q-23 7 -56 7h-140q-36 0 -57 -7l-4 7q43 21 43 68v510h-95v17q69 5 137 40q9 4 123 73l8 -7v-632q0 -51 45 -69z" />
<glyph unicode="2" horiz-adv-x="615" d="M601 -38l-7 -4q-22 42 -68 42h-390l202 374q19 37 19 72q0 41 -28 60q-14 9 -31 9t-34 -11q-32 -20 -32 -60q0 -28 19 -49l-6 -5q-17 15 -48 30l-126 60q-29 13 -55 17l-1 8q48 2 68 44q28 62 86.5 100t126.5 38q67 0 122.5 -31t85.5 -90q27 -53 27 -118q0 -81 -41 -156 l-65 -119h100q48 0 69 45l7 -4q-8 -20 -8 -55v-140q0 -35 8 -57z" />
<glyph unicode="3" horiz-adv-x="552" d="M539 227q0 -108 -81 -182t-189 -74q-94 0 -169 57q-22 16 -48 16q-19 0 -35 -9l-3 7q17 11 40 40l86 110q21 28 29 50l8 -1q-2 -8 -2 -16q0 -37 30 -60q26 -21 64 -21q37 0 67 23.5t30 59.5q0 30 -23 53t-54 28l-103 18l73 188h-115q-49 0 -69 -45l-7 4q6 22 7 56l1 140 q0 32 -8 57l7 4q20 -43 68 -43h369l-96 -246q56 -35 89.5 -92t33.5 -122z" />
<glyph unicode="4" horiz-adv-x="695" d="M684 133l-7 -4q-19 45 -69 45h-71v-105q0 -51 45 -69l-4 -7q-22 7 -56 7h-140q-36 0 -57 -7l-4 7q43 21 43 68v106h-353l452 513h55q33 0 57 8l4 -7q-42 -22 -42 -68v-273h72q48 0 68 42l7 -4q-7 -21 -7 -57v-140q0 -34 7 -55zM381 343v84l-74 -84h74z" />
<glyph unicode="5" horiz-adv-x="581" d="M570 473l-7 -4q-20 45 -69 45h-144l-8 -43q77 -22 126 -75q57 -60 64 -147q9 -114 -72 -196t-197 -82q-95 0 -168 56q-19 15 -44 15q-20 0 -37 -10l-3 7q18 13 39 40l84 111q21 28 29 51l8 -1q-1 -7 -1 -14q0 -39 28.5 -60.5t64.5 -21.5q38 0 67.5 23.5t29.5 59.5 q0 42 -37 65q-32 21 -75 18l-112 -9l70 386h289q46 0 68 43l7 -4q-8 -24 -8 -57v-140q0 -35 8 -56z" />
<glyph unicode="6" horiz-adv-x="508" d="M495 229q0 -99 -71 -170.5t-170 -71.5q-101 0 -171 72.5t-70 173.5q0 124 73 256q63 114 166 211q23 22 23 55q0 12 -3 23l8 2q11 -22 34 -46l97 -101q24 -25 43 -36l-2 -7q-14 6 -29 6q-30 0 -52 -21q-49 -47 -92 -106q91 -9 153.5 -78.5t62.5 -161.5zM322 229 q0 28 -20 48t-48 20t-47.5 -20t-19.5 -48q0 -29 19.5 -49t47.5 -20t48 20t20 49z" />
<glyph unicode="7" horiz-adv-x="558" d="M549 687l-316 -650q-8 -16 -8 -34q0 -27 18 -48l-7 -4q-17 17 -46 31l-126 61q-34 16 -54 19l-1 8q48 0 68 42l196 402h-172q-49 0 -69 -45l-6 4q7 22 7 56v140q0 31 -7 57l7 4q21 -43 67 -43h449z" />
<glyph unicode="8" horiz-adv-x="551" d="M534 203q0 -100 -81 -168q-76 -65 -177 -65q-102 0 -178 65q-80 68 -80 168q0 99 81 169q-43 51 -43 119q0 86 68 145q64 56 152 56q87 0 152 -56q68 -59 68 -145q0 -66 -43 -119q81 -70 81 -169zM322 491q0 13 -16.5 20.5t-30.5 7.5q-15 0 -29 -7q-18 -8 -18 -21t18 -21 q14 -7 29 -7q14 0 30.5 7.5t16.5 20.5zM341 165q19 16 19 38q0 21 -19 38q-26 22 -66 22q-39 0 -64 -22q-20 -17 -20 -38t20 -38q25 -22 64 -22t66 22z" />
<glyph unicode="9" horiz-adv-x="502" d="M206 -10q-29 -23 -29 -60q0 -7 1 -15l-8 -1q-7 22 -29 49l-86 110q-22 29 -40 40l3 7q18 -9 37 -9q25 0 45 16q55 42 102 96q-83 17 -137.5 84.5t-54.5 152.5q0 99 71 170t170 71q101 0 171 -72t70 -173q0 -124 -92 -261q-78 -116 -194 -205zM318 453q3 28 -14.5 50 t-45.5 25t-50 -15.5t-25 -46.5q-2 -28 15.5 -50t45.5 -25t49.5 15t24.5 47z" />
<glyph unicode=":" horiz-adv-x="250" d="M239 372q0 -46 -33 -78.5t-78 -32.5q-46 0 -78.5 32.5t-32.5 78.5t32.5 78.5t78.5 32.5q45 0 78 -32.5t33 -78.5zM234 78q0 -46 -33 -78.5t-78 -32.5q-46 0 -78.5 32.5t-32.5 78.5t32.5 78.5t78.5 32.5q45 0 78 -32.5t33 -78.5z" />
<glyph unicode=";" horiz-adv-x="250" d="M236 372q0 -46 -32.5 -78.5t-78.5 -32.5t-78.5 32.5t-32.5 78.5t32.5 78.5t78.5 32.5t78.5 -32.5t32.5 -78.5zM239 55q4 -73 -36.5 -134t-107.5 -85l-31 65q55 19 84 69q-12 -3 -26 -3q-46 0 -78.5 32.5t-32.5 78.5t32.5 78.5t78.5 32.5q56 0 87 -42q27 -36 30 -92z" />
<glyph unicode="?" horiz-adv-x="517" d="M503 492q0 -68 -49 -133q-31 -40 -30 -64q1 -68 45 -87l-4 -7q-21 7 -55 7h-140q-31 0 -57 -7l-4 7q42 20 42 67v20q0 55 18 95q12 26 48 73q11 16 11 32q0 39 -42 39q-34 0 -45 -29q-6 -14 -6 -29q0 -30 21 -52l-6 -5q-16 14 -49 28l-129 54q-28 11 -56 15l-1 8 q47 2 65 45q24 62 81.5 100t124.5 38q59 0 112 -32.5t81 -85.5q24 -47 24 -97zM444 78q0 -46 -33 -78.5t-78 -32.5q-46 0 -78.5 32.5t-32.5 78.5t32.5 78.5t78.5 32.5q45 0 78 -32.5t33 -78.5z" />
<glyph unicode="@" horiz-adv-x="823" d="M766 423q1 132 -93 208q-87 71 -221 69q-146 -2 -249.5 -104.5t-113.5 -249.5q-10 -143 84.5 -246t237.5 -104q175 -1 301 90l24 -33q-135 -98 -312 -98q-188 0 -303 116q-104 105 -104 252q0 85 37 166t105 140q127 111 306 111q149 0 245 -88t96 -226q0 -116 -70 -207 q-66 -86 -157 -86q-80 0 -97 83q-69 -77 -150 -77q-59 0 -92 54q-22 37 -22 86q0 93 68 178t151 85q23 0 46 -8q41 -15 56 -50l13 45l98 -1l-84 -290q-2 -5 -2 -11q0 -19 13.5 -34.5t30.5 -15.5q6 0 11 2q65 20 108 99q38 71 39 145zM506 458q-4 12 -17 24.5t-23 12.5 q-43 0 -85 -60q-33 -47 -47 -97q-9 -32 -9 -69q0 -79 47 -79q32 0 69 43q30 34 43 66q2 10 7 30q21 68 21 91q0 19 -6 38z" />
<glyph unicode="A" d="M868 99q-24 -5 -53 -22l-121 -72q-28 -17 -44 -34l-6 4q13 19 13 44q0 21 -10 38l-27 45h-362l-26 -45q-11 -18 -11 -39q0 -25 14 -43l-7 -4q-13 15 -44 34l-120 72q-29 17 -53 22v8q47 -3 71 37l356 606l358 -606q24 -40 72 -37v-8zM518 275l-79 134l-79 -134h158z" />
<glyph unicode="B" horiz-adv-x="631" d="M620 225q0 -92 -64.5 -158.5t-156.5 -66.5h-331q-32 0 -53 -7l-4 7q45 19 45 66v556q0 43 -42 66l4 6q26 -7 57 -7h299q84 0 142 -60t58 -145q0 -48 -22 -94q68 -66 68 -163zM401 482q0 32 -27 32h-143v-63h143q27 0 27 31zM447 225q0 22 -13 37.5t-35 15.5h-168v-105 h168q21 0 34.5 15t13.5 37z" />
<glyph unicode="C" horiz-adv-x="672" d="M657 65l-4 -7q-19 12 -39 12q-23 0 -57 -21q-86 -54 -188 -54q-145 0 -249 102t-104 246t104 246.5t249 102.5q93 0 175 -47q33 -19 56 -19q21 0 41 14l4 -7q-17 -14 -35 -46l-69 -122q-17 -30 -21 -51l-8 -1q4 49 -53 82q-42 24 -90 24q-73 0 -126.5 -51t-53.5 -125 q0 -73 53.5 -124t126.5 -51q51 0 96 28q59 37 52 84h8q6 -24 23 -51l73 -119q19 -31 36 -45z" />
<glyph unicode="D" horiz-adv-x="680" d="M664 343q0 -142 -93 -241q-96 -102 -237 -102h-258q-30 0 -56 -8l-4 6q45 20 45 71v551q0 46 -42 68l4 6q26 -7 57 -7h254q141 0 237 -102q93 -100 93 -242zM491 343q0 70 -44 120.5t-113 50.5h-100v-341h100q69 0 113 50t44 120z" />
<glyph unicode="E" horiz-adv-x="581" d="M566 -41l-7 -4q-21 45 -69 45h-414q-34 0 -56 -7l-4 7q45 18 45 69v551q0 46 -42 68l4 6q26 -7 57 -7h409q49 0 69 45l7 -4q-7 -21 -7 -55v-140q0 -37 7 -57l-7 -4q-21 42 -68 42h-255v-78h167q47 0 68 43l7 -4q-7 -26 -7 -57v-140q0 -34 7 -56l-6 -4q-20 45 -69 45h-167 v-90h256q46 0 68 42l7 -4q-9 -23 -8 -57l1 -140q0 -35 7 -55z" />
<glyph unicode="F" horiz-adv-x="576" d="M562 476l-7 -4q-22 42 -68 42h-256v-78h168q47 0 68 43l7 -4q-8 -24 -8 -57v-140q0 -30 8 -56l-7 -4q-20 45 -69 45h-167v-194q0 -51 45 -69l-4 -7q-23 7 -56 7h-140q-31 0 -57 -7l-4 7q43 20 43 71v549q0 46 -43 68l4 6q26 -7 57 -7h410q48 0 69 45l7 -4q-8 -20 -8 -55 v-140q0 -35 8 -57z" />
<glyph unicode="G" horiz-adv-x="757" d="M744 0l-4 -7q-21 7 -55 7h-140q-31 0 -57 -7l-4 7q26 12 37 40q-76 -38 -158 -38q-145 0 -247.5 103t-102.5 248t102.5 247.5t247.5 102.5q143 0 245 -100q38 -37 67 -37q12 0 27 5l2 -8q-23 -11 -45 -33l-100 -97q-25 -24 -36 -45l-8 2q5 13 5 26q0 30 -33 63 q-51 51 -124 51t-125 -52t-52 -125q0 -74 52 -126t125 -52q59 0 105.5 34t46.5 73q0 30 -31 58l4 7q21 -7 57 -7h140q34 0 55 7l4 -7q-45 -21 -45 -69v-202q0 -50 45 -69z" />
<glyph unicode="H" horiz-adv-x="737" d="M725 0l-3 -7q-22 7 -56 7h-140q-31 0 -57 -7l-4 7q43 21 43 68v193h-278v-192q0 -50 44 -69l-3 -7q-22 7 -56 7h-140q-31 0 -57 -7l-4 7q43 21 43 68v551q0 48 -45 69l4 6q21 -7 55 -7h140q31 0 57 7l4 -6q-42 -22 -42 -68v-186h278v185q0 48 -45 69l4 6q21 -7 55 -7h140 q31 0 57 7l4 -6q-42 -22 -42 -68v-551q0 -50 44 -69z" />
<glyph unicode="I" horiz-adv-x="289" d="M276 0l-4 -7q-21 7 -56 7h-139q-32 0 -58 -7l-3 7q42 20 42 68v551q0 49 -45 69l4 6q21 -7 56 -7h139q32 0 58 7l4 -6q-43 -21 -43 -68v-551q0 -50 45 -69z" />
<glyph unicode="J" horiz-adv-x="567" d="M563 688q-43 -22 -43 -68v-401q0 -104 -75 -176.5t-180 -72.5q-104 0 -178 70q-22 21 -52 21q-15 0 -29 -6l-2 8q18 9 43 35l97 101q23 24 34 46l8 -2q-3 -11 -3 -23q0 -32 24 -54.5t58 -22.5t58 21.5t24 54.5v400q0 49 -45 69l4 6q22 -7 56 -7h140q31 0 57 7z" />
<glyph unicode="K" horiz-adv-x="658" d="M649 112q-25 -13 -47 -33l-102 -96q-26 -24 -36 -42l-7 2q6 14 6 29q0 31 -20 52l-216 233v-188q0 -51 45 -69l-4 -7q-21 7 -56 7h-139q-32 0 -58 -7l-4 7q43 21 43 68v551q0 48 -45 69l4 6q21 -7 55 -7h140q33 0 57 7l4 -6q-42 -22 -42 -68l1 -110l207 156q31 23 31 61 q0 8 -2 16l7 1q6 -19 28 -48l84 -112q22 -30 40 -42l-3 -7q-16 8 -34 8q-25 0 -46 -15l-194 -145l224 -242q22 -24 56 -24q11 0 22 3z" />
<glyph unicode="L" horiz-adv-x="567" d="M554 -39l-7 -4q-21 43 -68 43h-401q-32 0 -58 -7l-4 7q43 21 43 68v551q0 48 -45 69l4 6q21 -7 55 -7h140q32 0 57 7l4 -6q-42 -22 -42 -68v-447h246q50 0 69 45l7 -4q-7 -21 -7 -56v-139q0 -32 7 -58z" />
<glyph unicode="M" horiz-adv-x="820" d="M808 0l-4 -7q-23 7 -56 7h-140q-31 0 -57 -7l-4 7q43 21 43 68v344l-180 -179l-179 182v-346q0 -50 44 -69l-3 -7q-23 7 -56 7h-140q-31 0 -57 -7l-4 7q43 21 43 68v551q0 48 -45 69l4 6q21 -7 55 -7h140q30 0 57 7l4 -6q-24 -12 -36 -37l173 -174l173 173q-12 25 -38 38 l4 6q21 -7 55 -7h140q30 0 57 7l4 -6q-42 -22 -42 -68v-551q0 -51 45 -69z" />
<glyph unicode="N" horiz-adv-x="753" d="M740 0l-4 -6q-21 7 -55 7h-140q-31 0 -57 -7l-4 6q24 12 37 39l-285 345v-315q0 -48 45 -69l-4 -6q-21 7 -55 7h-140q-33 0 -57 -7l-4 6q42 22 42 68v551q0 51 -45 69l4 7q21 -7 56 -7h140q30 0 57 7l4 -7q-27 -12 -37 -40l285 -346v317q0 50 -45 69l4 7q21 -7 55 -7h140 q30 0 57 7l4 -7q-42 -20 -42 -68v-551q0 -49 44 -69z" />
<glyph unicode="O" horiz-adv-x="740" d="M721 341q0 -145 -103 -247.5t-247 -102.5q-145 0 -248 102.5t-103 247.5t103 248t248 103q144 0 247 -103t103 -248zM548 341q0 73 -52.5 125.5t-124.5 52.5q-74 0 -126 -52t-52 -126q0 -73 52 -125t126 -52q72 0 124.5 52t52.5 125z" />
<glyph unicode="P" horiz-adv-x="613" d="M598 457q0 -94 -65 -161.5t-159 -67.5h-140v-159q0 -51 45 -69l-4 -7q-21 7 -56 7h-139q-32 0 -58 -7l-4 7q43 20 43 68v551q0 48 -45 69l4 6q21 -7 55 -7h299q94 0 159 -67.5t65 -162.5zM425 457q0 24 -14 40.5t-37 16.5h-140v-113h140q23 0 37 16.5t14 39.5z" />
<glyph unicode="Q" horiz-adv-x="733" d="M717 341q0 -128 -83 -227l8 -8q17 -17 41 -17q11 0 20 4l2 -6q-15 -7 -34 -26l-75 -75q-20 -20 -27 -35l-6 2q3 9 3 18q0 24 -17 41l-19 19q-75 -40 -163 -40q-145 0 -248 102.5t-103 247.5t103 248t248 103t247.5 -103t102.5 -248zM544 341q0 73 -52 125.5t-125 52.5 t-125.5 -52t-52.5 -126q0 -73 52.5 -125t125.5 -52q9 0 29 2l-8 8q-17 17 -41 17q-10 0 -20 -4l-2 6q15 7 34 26l75 75q17 17 27 34l6 -1q-3 -9 -3 -19q0 -24 16 -40l30 -30q34 45 34 103z" />
<glyph unicode="R" horiz-adv-x="702" d="M691 118q-21 -11 -45 -33l-102 -96q-25 -24 -36 -45l-8 2q5 13 5 27q0 30 -21 52l-225 238h-30v-194q0 -49 45 -69l-4 -6q-21 7 -56 7h-139q-32 0 -58 -7l-4 6q43 22 43 68v551q0 50 -45 69l4 7q24 -8 55 -8h298q87 0 147 -62.5t60 -149.5q0 -57 -28 -107t-76 -78 l138 -145q23 -24 56 -24q12 0 24 4zM402 475q0 39 -34 39h-139v-78h139q34 0 34 39z" />
<glyph unicode="S" horiz-adv-x="593" d="M586 658q-17 -14 -34 -44l-70 -121q-16 -28 -23 -53h-8q3 47 -37 71q-53 31 -107 29q-19 -1 -33 -6q-22 -8 -22 -25q0 -20 47 -45q9 -5 86 -40q53 -24 83 -46q49 -35 73 -81h1q23 -47 23 -97q0 -82 -53 -139q-78 -83 -202 -76q-104 6 -218 81q-18 12 -40 12t-42 -12l-3 7 q17 13 36 42l77 117q19 28 25 52h8q-5 -47 34 -73q76 -50 133 -53q68 -3 73 36q3 24 -24 43q-19 13 -53 28q-24 10 -98 46q-15 8 -23 14q-117 72 -117 181q0 52 28 100q58 100 191 108q104 6 205 -54q16 -9 36 -9q24 0 44 14z" />
<glyph unicode="T" horiz-adv-x="640" d="M623 476l-7 -4q-21 42 -68 42h-141v-445q0 -50 45 -69l-4 -7q-21 7 -55 7h-140q-33 0 -57 -7l-4 7q42 20 42 68v446h-140q-49 0 -69 -45l-7 4q6 20 7 56l1 139q0 33 -8 58l7 4q19 -43 68 -43h454q48 0 69 45l7 -4q-7 -21 -7 -55v-140q0 -37 7 -57z" />
<glyph unicode="U" horiz-adv-x="698" d="M688 688q-42 -22 -42 -68v-346q0 -121 -87 -205t-209 -84q-121 0 -208 84t-87 205v345q0 48 -45 69l4 6q21 -7 55 -7h140q31 0 57 7l4 -6q-42 -22 -42 -68v-346q0 -50 36 -83t86 -33q51 0 87 32.5t36 83.5v345q0 48 -45 69l4 6q21 -7 55 -7h140q31 0 57 7z" />
<glyph unicode="V" horiz-adv-x="839" d="M836 608q-49 5 -74 -37l-342 -580l-343 580q-25 42 -73 37v8q20 4 51 22l121 71q28 17 45 35l7 -4q-12 -19 -12 -42q0 -20 10 -38l194 -328l194 328q10 17 10 38q0 23 -13 42l7 4q19 -19 46 -35l120 -71q30 -18 52 -22v-8z" />
<glyph unicode="W" horiz-adv-x="1035" d="M1031 619q-49 2 -70 -43l-273 -576l-170 217l-169 -217l-274 576q-21 45 -71 43l1 8q21 3 53 18l126 60q32 15 49 31l6 -5q-16 -20 -16 -47q0 -17 7 -32l156 -325l132 170l132 -169l155 324q7 15 7 32q0 27 -16 47l7 5q16 -16 48 -31l126 -60q32 -15 54 -18v-8z" />
<glyph unicode="X" horiz-adv-x="793" d="M792 98q-21 -10 -46 -33l-102 -95q-23 -22 -37 -44l-7 2q4 13 4 26q0 31 -20 53l-188 202l-188 -202q-20 -22 -20 -52q0 -14 5 -27l-8 -2q-10 19 -37 44l-102 95q-24 23 -45 33l1 8q12 -4 25 -4q32 0 55 24l196 209l-191 205q-22 24 -55 24q-13 0 -25 -4l-2 8q20 8 46 32 l102 95q24 22 37 45l8 -2q-5 -14 -5 -28q0 -29 20 -51l183 -197l183 197q21 23 21 52q0 14 -5 27l7 2q13 -23 37 -45l103 -95q27 -25 45 -32l-2 -8q-12 4 -24 4q-34 0 -56 -24l-191 -205l196 -209q23 -24 55 -24q13 0 25 4z" />
<glyph unicode="Y" horiz-adv-x="724" d="M721 582l-1 -7q-10 2 -20 2q-34 0 -57 -25l-196 -219v-266q0 -49 45 -69l-4 -6q-21 7 -55 7h-140q-31 0 -57 -7l-4 7q43 21 43 67v270l-194 216q-23 25 -57 25q-10 0 -19 -2l-2 7q23 11 47 33l104 93q25 22 36 42l8 -2q-7 -15 -7 -31q0 -29 19 -50l152 -170l152 170 q19 21 19 51q0 15 -6 30l7 2q11 -20 36 -42l104 -93q24 -22 47 -33z" />
<glyph unicode="Z" horiz-adv-x="610" d="M599 687l-268 -514h189q47 0 67 42l7 -4q-7 -24 -7 -57v-140q0 -34 7 -55l-6 -4q-21 45 -69 45h-483l268 514h-217q-49 0 -69 -45l-7 4q7 20 7 56l1 139q0 33 -8 58l7 4q20 -43 68 -43h513z" />
<glyph unicode="_" horiz-adv-x="500" d="M502 -98h-504v78h504v-78z" />
<glyph unicode="`" horiz-adv-x="373" d="M331 796l-25 -70l-263 72l32 99z" />
<glyph unicode="a" d="M11 0zM868 99q-24 -5 -53 -22l-121 -72q-28 -17 -44 -34l-6 4q13 19 13 44q0 21 -10 38l-27 45h-362l-26 -45q-11 -18 -11 -39q0 -25 14 -43l-7 -4q-13 15 -44 34l-120 72q-29 17 -53 22v8q47 -3 71 37l356 606l358 -606q24 -40 72 -37v-8zM518 275l-79 134l-79 -134h158 z" />
<glyph unicode="b" horiz-adv-x="631" d="M11 0zM620 225q0 -92 -64.5 -158.5t-156.5 -66.5h-331q-32 0 -53 -7l-4 7q45 19 45 66v556q0 43 -42 66l4 6q26 -7 57 -7h299q84 0 142 -60t58 -145q0 -48 -22 -94q68 -66 68 -163zM401 482q0 32 -27 32h-143v-63h143q27 0 27 31zM447 225q0 22 -13 37.5t-35 15.5h-168 v-105h168q21 0 34.5 15t13.5 37z" />
<glyph unicode="c" horiz-adv-x="672" d="M16 0zM657 65l-4 -7q-19 12 -39 12q-23 0 -57 -21q-86 -54 -188 -54q-145 0 -249 102t-104 246t104 246.5t249 102.5q93 0 175 -47q33 -19 56 -19q21 0 41 14l4 -7q-17 -14 -35 -46l-69 -122q-17 -30 -21 -51l-8 -1q4 49 -53 82q-42 24 -90 24q-73 0 -126.5 -51 t-53.5 -125q0 -73 53.5 -124t126.5 -51q51 0 96 28q59 37 52 84h8q6 -24 23 -51l73 -119q19 -31 36 -45z" />
<glyph unicode="d" horiz-adv-x="680" d="M16 0zM664 343q0 -142 -93 -241q-96 -102 -237 -102h-258q-30 0 -56 -8l-4 6q45 20 45 71v551q0 46 -42 68l4 6q26 -7 57 -7h254q141 0 237 -102q93 -100 93 -242zM491 343q0 70 -44 120.5t-113 50.5h-100v-341h100q69 0 113 50t44 120z" />
<glyph unicode="e" horiz-adv-x="581" d="M17 0zM567 -41l-7 -4q-21 45 -69 45h-414q-34 0 -56 -7l-4 7q45 18 45 69v551q0 46 -42 68l4 6q26 -7 57 -7h409q49 0 69 45l7 -4q-7 -21 -7 -55v-140q0 -37 7 -57l-7 -4q-21 42 -68 42h-255v-78h167q47 0 68 43l7 -4q-7 -26 -7 -57v-140q0 -34 7 -56l-6 -4 q-20 45 -69 45h-167v-90h256q46 0 68 42l7 -4q-9 -23 -8 -57l1 -140q0 -35 7 -55z" />
<glyph unicode="f" horiz-adv-x="576" d="M15 0zM562 476l-7 -4q-22 42 -68 42h-256v-78h168q47 0 68 43l7 -4q-8 -24 -8 -57v-140q0 -30 8 -56l-7 -4q-20 45 -69 45h-167v-194q0 -51 45 -69l-4 -7q-23 7 -56 7h-140q-31 0 -57 -7l-4 7q43 20 43 71v549q0 46 -43 68l4 6q26 -7 57 -7h410q48 0 69 45l7 -4 q-8 -20 -8 -55v-140q0 -35 8 -57z" />
<glyph unicode="g" horiz-adv-x="757" d="M13 0zM744 0l-4 -7q-21 7 -55 7h-140q-31 0 -57 -7l-4 7q26 12 37 40q-76 -38 -158 -38q-145 0 -247.5 103t-102.5 248t102.5 247.5t247.5 102.5q143 0 245 -100q38 -37 67 -37q12 0 27 5l2 -8q-23 -11 -45 -33l-100 -97q-25 -24 -36 -45l-8 2q5 13 5 26q0 30 -33 63 q-51 51 -124 51t-125 -52t-52 -125q0 -74 52 -126t125 -52q59 0 105.5 34t46.5 73q0 30 -31 58l4 7q21 -7 57 -7h140q34 0 55 7l4 -7q-45 -21 -45 -69v-202q0 -50 45 -69z" />
<glyph unicode="h" horiz-adv-x="737" d="M12 0zM725 0l-3 -7q-22 7 -56 7h-140q-31 0 -57 -7l-4 7q43 21 43 68v193h-278v-192q0 -50 44 -69l-3 -7q-22 7 -56 7h-140q-31 0 -57 -7l-4 7q43 21 43 68v551q0 48 -45 69l4 6q21 -7 55 -7h140q31 0 57 7l4 -6q-42 -22 -42 -68v-186h278v185q0 48 -45 69l4 6 q21 -7 55 -7h140q31 0 57 7l4 -6q-42 -22 -42 -68v-551q0 -50 44 -69z" />
<glyph unicode="i" horiz-adv-x="289" d="M13 0zM276 0l-4 -7q-21 7 -56 7h-139q-32 0 -58 -7l-3 7q42 20 42 68v551q0 49 -45 69l4 6q21 -7 56 -7h139q32 0 58 7l4 -6q-43 -21 -43 -68v-551q0 -50 45 -69z" />
<glyph unicode="j" horiz-adv-x="567" d="M4 0zM563 688q-43 -22 -43 -68v-401q0 -104 -75 -176.5t-180 -72.5q-104 0 -178 70q-22 21 -52 21q-15 0 -29 -6l-2 8q18 9 43 35l97 101q23 24 34 46l8 -2q-3 -11 -3 -23q0 -32 24 -54.5t58 -22.5t58 21.5t24 54.5v400q0 49 -45 69l4 6q22 -7 56 -7h140q31 0 57 7z" />
<glyph unicode="k" horiz-adv-x="658" d="M9 0zM649 112q-25 -13 -47 -33l-102 -96q-26 -24 -36 -42l-7 2q6 14 6 29q0 31 -20 52l-216 233v-188q0 -51 45 -69l-4 -7q-21 7 -56 7h-139q-32 0 -58 -7l-4 7q43 21 43 68v551q0 48 -45 69l4 6q21 -7 55 -7h140q33 0 57 7l4 -6q-42 -22 -42 -68l1 -110l207 156 q31 23 31 61q0 8 -2 16l7 1q6 -19 28 -48l84 -112q22 -30 40 -42l-3 -7q-16 8 -34 8q-25 0 -46 -15l-194 -145l224 -242q22 -24 56 -24q11 0 22 3z" />
<glyph unicode="l" horiz-adv-x="567" d="M14 0zM554 -39l-7 -4q-21 43 -68 43h-401q-32 0 -58 -7l-4 7q43 21 43 68v551q0 48 -45 69l4 6q21 -7 55 -7h140q32 0 57 7l4 -6q-42 -22 -42 -68v-447h246q50 0 69 45l7 -4q-7 -21 -7 -56v-139q0 -32 7 -58z" />
<glyph unicode="m" horiz-adv-x="820" d="M13 0zM808 0l-4 -7q-23 7 -56 7h-140q-31 0 -57 -7l-4 7q43 21 43 68v344l-180 -179l-179 182v-346q0 -50 44 -69l-3 -7q-23 7 -56 7h-140q-31 0 -57 -7l-4 7q43 21 43 68v551q0 48 -45 69l4 6q21 -7 55 -7h140q30 0 57 7l4 -6q-24 -12 -36 -37l173 -174l173 173 q-12 25 -38 38l4 6q21 -7 55 -7h140q30 0 57 7l4 -6q-42 -22 -42 -68v-551q0 -51 45 -69z" />
<glyph unicode="n" horiz-adv-x="753" d="M14 0zM740 0l-4 -6q-21 7 -55 7h-140q-31 0 -57 -7l-4 6q24 12 37 39l-285 345v-315q0 -48 45 -69l-4 -6q-21 7 -55 7h-140q-33 0 -57 -7l-4 6q42 22 42 68v551q0 51 -45 69l4 7q21 -7 56 -7h140q30 0 57 7l4 -7q-27 -12 -37 -40l285 -346v317q0 50 -45 69l4 7 q21 -7 55 -7h140q30 0 57 7l4 -7q-42 -20 -42 -68v-551q0 -49 44 -69z" />
<glyph unicode="o" horiz-adv-x="740" d="M21 0zM722 341q0 -145 -103 -247.5t-247 -102.5q-145 0 -248 102.5t-103 247.5t103 248t248 103q144 0 247 -103t103 -248zM549 341q0 73 -52.5 125.5t-124.5 52.5q-74 0 -126 -52t-52 -126q0 -73 52 -125t126 -52q72 0 124.5 52t52.5 125z" />
<glyph unicode="p" horiz-adv-x="613" d="M16 0zM598 457q0 -94 -65 -161.5t-159 -67.5h-140v-159q0 -51 45 -69l-4 -7q-21 7 -56 7h-139q-32 0 -58 -7l-4 7q43 20 43 68v551q0 48 -45 69l4 6q21 -7 55 -7h299q94 0 159 -67.5t65 -162.5zM425 457q0 24 -14 40.5t-37 16.5h-140v-113h140q23 0 37 16.5t14 39.5z" />
<glyph unicode="q" horiz-adv-x="733" d="M16 0zM717 341q0 -128 -83 -227l8 -8q17 -17 41 -17q11 0 20 4l2 -6q-15 -7 -34 -26l-75 -75q-20 -20 -27 -35l-6 2q3 9 3 18q0 24 -17 41l-19 19q-75 -40 -163 -40q-145 0 -248 102.5t-103 247.5t103 248t248 103t247.5 -103t102.5 -248zM544 341q0 73 -52 125.5 t-125 52.5t-125.5 -52t-52.5 -126q0 -73 52.5 -125t125.5 -52q9 0 29 2l-8 8q-17 17 -41 17q-10 0 -20 -4l-2 6q15 7 34 26l75 75q17 17 27 34l6 -1q-3 -9 -3 -19q0 -24 16 -40l30 -30q34 45 34 103z" />
<glyph unicode="r" horiz-adv-x="702" d="M11 0zM691 118q-21 -11 -45 -33l-102 -96q-25 -24 -36 -45l-8 2q5 13 5 27q0 30 -21 52l-225 238h-30v-194q0 -49 45 -69l-4 -6q-21 7 -56 7h-139q-32 0 -58 -7l-4 6q43 22 43 68v551q0 50 -45 69l4 7q24 -8 55 -8h298q87 0 147 -62.5t60 -149.5q0 -57 -28 -107t-76 -78 l138 -145q23 -24 56 -24q12 0 24 4zM402 475q0 39 -34 39h-139v-78h139q34 0 34 39z" />
<glyph unicode="s" horiz-adv-x="593" d="M7 0zM586 658q-17 -14 -34 -44l-70 -121q-16 -28 -23 -53h-8q3 47 -37 71q-53 31 -107 29q-19 -1 -33 -6q-22 -8 -22 -25q0 -20 47 -45q9 -5 86 -40q53 -24 83 -46q49 -35 73 -81h1q23 -47 23 -97q0 -82 -53 -139q-78 -83 -202 -76q-104 6 -218 81q-18 12 -40 12t-42 -12 l-3 7q17 13 36 42l77 117q19 28 25 52h8q-5 -47 34 -73q76 -50 133 -53q68 -3 73 36q3 24 -24 43q-19 13 -53 28q-24 10 -98 46q-15 8 -23 14q-117 72 -117 181q0 52 28 100q58 100 191 108q104 6 205 -54q16 -9 36 -9q24 0 44 14z" />
<glyph unicode="t" horiz-adv-x="640" d="M18 0zM623 476l-7 -4q-21 42 -68 42h-141v-445q0 -50 45 -69l-4 -7q-21 7 -55 7h-140q-33 0 -57 -7l-4 7q42 20 42 68v446h-140q-49 0 -69 -45l-7 4q6 20 7 56l1 139q0 33 -8 58l7 4q19 -43 68 -43h454q48 0 69 45l7 -4q-7 -21 -7 -55v-140q0 -37 7 -57z" />
<glyph unicode="u" horiz-adv-x="698" d="M10 0zM688 688q-42 -22 -42 -68v-346q0 -121 -87 -205t-209 -84q-121 0 -208 84t-87 205v345q0 48 -45 69l4 6q21 -7 55 -7h140q31 0 57 7l4 -6q-42 -22 -42 -68v-346q0 -50 36 -83t86 -33q51 0 87 32.5t36 83.5v345q0 48 -45 69l4 6q21 -7 55 -7h140q31 0 57 7z" />
<glyph unicode="v" horiz-adv-x="839" d="M4 0zM836 608q-49 5 -74 -37l-342 -580l-343 580q-25 42 -73 37v8q20 4 51 22l121 71q28 17 45 35l7 -4q-12 -19 -12 -42q0 -20 10 -38l194 -328l194 328q10 17 10 38q0 23 -13 42l7 4q19 -19 46 -35l120 -71q30 -18 52 -22v-8z" />
<glyph unicode="w" horiz-adv-x="1035" d="M4 0zM1031 619q-49 2 -70 -43l-273 -576l-170 217l-169 -217l-274 576q-21 45 -71 43l1 8q21 3 53 18l126 60q32 15 49 31l6 -5q-16 -20 -16 -47q0 -17 7 -32l156 -325l132 170l132 -169l155 324q7 15 7 32q0 27 -16 47l7 5q16 -16 48 -31l126 -60q32 -15 54 -18v-8z" />
<glyph unicode="x" horiz-adv-x="793" d="M1 0zM792 98q-21 -10 -46 -33l-102 -95q-23 -22 -37 -44l-7 2q4 13 4 26q0 31 -20 53l-188 202l-188 -202q-20 -22 -20 -52q0 -14 5 -27l-8 -2q-10 19 -37 44l-102 95q-24 23 -45 33l1 8q12 -4 25 -4q32 0 55 24l196 209l-191 205q-22 24 -55 24q-13 0 -25 -4l-2 8 q20 8 46 32l102 95q24 22 37 45l8 -2q-5 -14 -5 -28q0 -29 20 -51l183 -197l183 197q21 23 21 52q0 14 -5 27l7 2q13 -23 37 -45l103 -95q27 -25 45 -32l-2 -8q-12 4 -24 4q-34 0 -56 -24l-191 -205l196 -209q23 -24 55 -24q13 0 25 4z" />
<glyph unicode="y" horiz-adv-x="724" d="M3 0zM721 582l-1 -7q-10 2 -20 2q-34 0 -57 -25l-196 -219v-266q0 -49 45 -69l-4 -6q-21 7 -55 7h-140q-31 0 -57 -7l-4 7q43 21 43 67v270l-194 216q-23 25 -57 25q-10 0 -19 -2l-2 7q23 11 47 33l104 93q25 22 36 42l8 -2q-7 -15 -7 -31q0 -29 19 -50l152 -170l152 170 q19 21 19 51q0 15 -6 30l7 2q11 -20 36 -42l104 -93q24 -22 47 -33z" />
<glyph unicode="z" horiz-adv-x="610" d="M11 0zM599 687l-268 -514h189q47 0 67 42l7 -4q-7 -24 -7 -57v-140q0 -34 7 -55l-6 -4q-21 45 -69 45h-483l268 514h-217q-49 0 -69 -45l-7 4q7 20 7 56l1 139q0 33 -8 58l7 4q20 -43 68 -43h513z" />
<glyph unicode="&#xa1;" horiz-adv-x="340" d="M15 -168q42 22 42 68l34 338q0 49 -45 69l4 7q21 -7 56 -7h120q36 0 57 7l4 -7q-42 -20 -42 -68l34 -338q0 -49 45 -69l-4 -6q-22 7 -56 7h-188q-31 0 -57 -7zM58 442q0 46 32.5 78.5t78.5 32.5t78.5 -32.5t32.5 -78.5t-32.5 -78.5t-78.5 -32.5t-78.5 32.5t-32.5 78.5z " />
<glyph unicode="&#xa2;" horiz-adv-x="470" d="M449 74l-5 -6q-23 25 -56 25q-12 0 -23 -4q-1 0 -7 -2v-18q0 -50 45 -69l-4 -7q-21 7 -55 7h-140q-36 0 -57 -7l-4 7q42 20 42 68v25q-73 29 -118 94.5t-45 143.5t45 142.5t118 94.5v51q0 49 -44 69l4 7q20 -8 55 -8h140q33 0 57 8l4 -7q-43 -22 -43 -68v-46q3 0 7 -2 q11 -3 22 -3q35 0 57 25l5 -6q-13 -19 -23 -50l-43 -134q-11 -34 -11 -56l-8 -2q-5 30 -29 48.5t-54 18.5q-36 0 -61 -23.5t-25 -58.5t25.5 -59t60.5 -24q30 0 54 18.5t29 49.5l8 -2q0 -23 11 -57l43 -133q10 -31 23 -50z" />
<glyph unicode="&#xa3;" horiz-adv-x="714" d="M706 665q-15 -15 -29 -48l-58 -127q-14 -30 -17 -55l-8 -1q-2 49 -55 72q-40 18 -96 18q-50 0 -83 -24q-36 -26 -38 -72h105q49 0 69 45l6 -4q-7 -22 -7 -56v-140q0 -31 7 -57l-7 -4q-21 43 -67 43h-106v-82h252q48 0 69 45l7 -4q-8 -20 -8 -55v-140q0 -35 8 -57l-7 -4 q-22 42 -68 42h-426v255h-64q-50 0 -69 -45l-7 4q7 21 7 55v140q0 36 -7 57l7 4q20 -42 68 -42h65q2 118 89 195q84 74 205 74q94 0 178 -38q14 -7 30 -7q29 0 51 19z" />
<glyph unicode="&#xa4;" horiz-adv-x="741" d="M728 65l-3 -7q-20 12 -39 12q-25 0 -58 -21q-86 -54 -188 -54q-120 0 -215 72.5t-125 184.5h-86l41 77h33q-2 14 0 29h-55l41 77h26q30 112 125 184.5t215 72.5q92 0 175 -47q32 -19 55 -19q22 0 42 14l4 -7q-19 -17 -35 -46l-68 -122q-17 -29 -22 -51l-7 -1q4 48 -54 82 q-42 24 -90 24q-101 0 -153 -84h257l-41 -77h-242q-2 -15 0 -29h225l-41 -77h-158q52 -84 153 -84q52 0 97 28q57 36 52 84h7q6 -24 23 -51l73 -119q17 -28 36 -45z" />
<glyph unicode="&#xa5;" horiz-adv-x="790" d="M754 582l-1 -7q-10 2 -20 2q-34 0 -57 -25l-107 -120h118v-76h-187l-20 -23v-7h207v-76h-207v-183q0 -49 45 -69l-4 -6q-21 7 -55 7h-140q-31 0 -57 -7l-4 7q43 21 43 67v184h-205v76h205v10l-18 20h-187v76h119l-108 120q-23 25 -57 25q-10 0 -19 -2l-2 7q23 11 47 33 l104 93q25 22 36 42l8 -2q-7 -15 -7 -31q0 -29 19 -50l152 -170l152 170q19 21 19 51q0 15 -6 30l7 2q11 -20 36 -42l104 -93q24 -22 47 -33z" />
<glyph unicode="&#xa8;" horiz-adv-x="316" d="M292 778q0 -25 -17.5 -42t-41.5 -17q-25 0 -42 17t-17 42t17 42t42 17q24 0 41.5 -17t17.5 -42zM139 778q0 -25 -15.5 -42t-38.5 -17q-25 0 -42.5 17t-17.5 42t17.5 42t42.5 17q23 0 38.5 -17t15.5 -42z" />
<glyph unicode="&#xaa;" horiz-adv-x="462" d="M446 365q-12 -3 -27 -11l-60 -36q-14 -9 -22 -17l-3 2q14 20 1 41l-13 22h-181l-13 -22q-13 -22 1 -41l-3 -2q-7 7 -22 17l-60 36q-15 8 -27 11v4q24 -2 36 18l178 303l179 -303q12 -20 36 -18v-4zM271 453l-40 67l-39 -67h79z" />
<glyph unicode="&#xab;" horiz-adv-x="573" d="M556 104h-180l-139 236l139 236h180l-139 -236zM336 104h-180l-139 236l139 236h180l-139 -236z" />
<glyph unicode="&#xad;" horiz-adv-x="351" d="M335 219l-7 -4q-20 42 -68 42h-168q-49 0 -69 -45l-7 4q7 21 7 56v139q0 37 -7 58l7 4q21 -43 68 -43h168q48 0 69 45l7 -4q-7 -20 -7 -55l-1 -140q0 -34 8 -57z" />
<glyph unicode="&#xb4;" horiz-adv-x="373" d="M331 798l-263 -72l-25 70l256 101z" />
<glyph unicode="&#xb7;" horiz-adv-x="250" d="M236 372q0 -46 -32.5 -78.5t-78.5 -32.5t-78.5 32.5t-32.5 78.5t32.5 78.5t78.5 32.5t78.5 -32.5t32.5 -78.5z" />
<glyph unicode="&#xb8;" horiz-adv-x="316" d="M279 -149q0 -50 -45 -80q-39 -25 -93 -25q-61 0 -104 32l47 61q21 -16 48 -16q56 0 56 27q0 22 -95 19l31 158h79l-17 -84q93 -15 93 -92z" />
<glyph unicode="&#xba;" horiz-adv-x="405" d="M378 553q0 -72 -51.5 -123.5t-123.5 -51.5q-73 0 -124.5 51.5t-51.5 123.5t51.5 124t124.5 52q72 0 123.5 -52t51.5 -124zM291 553q0 37 -26 63t-62 26q-37 0 -63 -26t-26 -63q0 -36 26 -62t63 -26q36 0 62 26t26 62z" />
<glyph unicode="&#xbb;" horiz-adv-x="573" d="M17 104h180l139 236l-139 236h-180l139 -236zM237 104h180l139 236l-139 236h-180l139 -236z" />
<glyph unicode="&#xbf;" horiz-adv-x="517" d="M17 52q0 68 49 133q30 40 30 64q-1 68 -45 87l4 7q21 -7 55 -7h140q31 0 57 7l4 -7q-42 -20 -42 -67v-20q0 -55 -19 -95q-11 -26 -47 -73q-12 -16 -12 -32q0 -39 43 -39q33 0 45 29q6 14 6 29q0 30 -21 52l6 5q15 -14 49 -28l129 -54q27 -11 56 -15l1 -8q-48 -2 -65 -45 q-25 -62 -82 -100t-124 -38q-60 0 -112.5 32.5t-80.5 85.5q-24 47 -24 97zM76 466q0 46 32.5 78.5t78.5 32.5t78.5 -32.5t32.5 -78.5t-32.5 -78.5t-78.5 -32.5t-78.5 32.5t-32.5 78.5z" />
<glyph unicode="&#xc0;" d="M11 0zM868 99q-24 -5 -53 -22l-121 -72q-28 -17 -44 -34l-6 4q13 19 13 44q0 21 -10 38l-27 45h-362l-26 -45q-11 -18 -11 -39q0 -25 14 -43l-7 -4q-13 15 -44 34l-120 72q-29 17 -53 22v8q47 -3 71 37l356 606l358 -606q24 -40 72 -37v-8zM518 275l-79 134l-79 -134h158 zM485 827l-25 -70l-263 72l32 99z" />
<glyph unicode="&#xc1;" d="M11 0zM868 99q-24 -5 -53 -22l-121 -72q-28 -17 -44 -34l-6 4q13 19 13 44q0 21 -10 38l-27 45h-362l-26 -45q-11 -18 -11 -39q0 -25 14 -43l-7 -4q-13 15 -44 34l-120 72q-29 17 -53 22v8q47 -3 71 37l356 606l358 -606q24 -40 72 -37v-8zM518 275l-79 134l-79 -134h158 zM668 837l-263 -72l-25 70l256 101z" />
<glyph unicode="&#xc2;" d="M11 0zM868 99q-24 -5 -53 -22l-121 -72q-28 -17 -44 -34l-6 4q13 19 13 44q0 21 -10 38l-27 45h-362l-26 -45q-11 -18 -11 -39q0 -25 14 -43l-7 -4q-13 15 -44 34l-120 72q-29 17 -53 22v8q47 -3 71 37l356 606l358 -606q24 -40 72 -37v-8zM518 275l-79 134l-79 -134h158 zM606 732h-104l-66 61l-65 -61h-104l169 170z" />
<glyph unicode="&#xc3;" d="M11 0zM868 99q-24 -5 -53 -22l-121 -72q-28 -17 -44 -34l-6 4q13 19 13 44q0 21 -10 38l-27 45h-362l-26 -45q-11 -18 -11 -39q0 -25 14 -43l-7 -4q-13 15 -44 34l-120 72q-29 17 -53 22v8q47 -3 71 37l356 606l358 -606q24 -40 72 -37v-8zM518 275l-79 134l-79 -134h158 zM612 807l-29 -21q-34 -24 -78 -24q-24 0 -45 8l-57 22q-22 8 -46 -9l-28 -20l-45 62l28 20q38 27 76 27q21 0 43 -8l57 -22q26 -10 50 6l30 21z" />
<glyph unicode="&#xc4;" d="M11 0zM868 99q-24 -5 -53 -22l-121 -72q-28 -17 -44 -34l-6 4q13 19 13 44q0 21 -10 38l-27 45h-362l-26 -45q-11 -18 -11 -39q0 -25 14 -43l-7 -4q-13 15 -44 34l-120 72q-29 17 -53 22v8q47 -3 71 37l356 606l358 -606q24 -40 72 -37v-8zM518 275l-79 134l-79 -134h158 zM576 825q0 -25 -17.5 -42t-41.5 -17q-25 0 -42 17t-17 42t17 42t42 17q24 0 41.5 -17t17.5 -42zM423 825q0 -25 -15.5 -42t-38.5 -17q-25 0 -42.5 17t-17.5 42t17.5 42t42.5 17q23 0 38.5 -17t15.5 -42z" />
<glyph unicode="&#xc5;" d="M11 0zM868 99q-24 -5 -53 -22l-121 -72q-28 -17 -44 -34l-6 4q13 19 13 44q0 21 -10 38l-27 45h-362l-26 -45q-11 -18 -11 -39q0 -25 14 -43l-7 -4q-13 15 -44 34l-120 72q-29 17 -53 22v8q47 -3 71 37l356 606l358 -606q24 -40 72 -37v-8zM518 275l-79 134l-79 -134h158 zM552 824q0 -47 -33 -80.5t-80 -33.5t-80.5 33.5t-33.5 80.5t33.5 80t80.5 33t80 -33t33 -80zM495 824q0 23 -16.5 39.5t-39.5 16.5t-39.5 -16.5t-16.5 -39.5t16.5 -39.5t39.5 -16.5t39.5 16.5t16.5 39.5z" />
<glyph unicode="&#xc6;" horiz-adv-x="993" d="M989 -39l-7 -4q-23 43 -68 43h-382q-31 0 -57 -7l-4 7q42 20 42 68v31h-238l-58 -70q-18 -21 -18 -48q0 -18 9 -34l-7 -3q-13 19 -39 41l-108 88q-28 22 -49 31l1 8q9 -2 18 -2q35 0 58 27l423 516q-13 24 -36 35l3 6q22 -7 56 -7h385q48 0 69 45l7 -4q-8 -20 -8 -55 v-140q0 -35 8 -57l-7 -4q-22 42 -68 42h-228v-80h136q48 0 69 44l7 -3q-7 -22 -7 -56v-140q0 -36 7 -57l-7 -4q-21 43 -68 43h-137v-88h227q49 0 69 45l7 -4q-8 -20 -8 -56v-139q0 -34 8 -58zM513 272v118l-96 -118h96z" />
<glyph unicode="&#xc7;" horiz-adv-x="672" d="M16 0zM657 65l-4 -7q-19 12 -39 12q-23 0 -57 -21q-86 -54 -188 -54q-145 0 -249 102t-104 246t104 246.5t249 102.5q93 0 175 -47q33 -19 56 -19q21 0 41 14l4 -7q-17 -14 -35 -46l-69 -122q-17 -30 -21 -51l-8 -1q4 49 -53 82q-42 24 -90 24q-73 0 -126.5 -51 t-53.5 -125q0 -73 53.5 -124t126.5 -51q51 0 96 28q59 37 52 84h8q6 -24 23 -51l73 -119q19 -31 36 -45zM479 -149q0 -50 -45 -80q-39 -25 -93 -25q-61 0 -104 32l47 61q21 -16 48 -16q56 0 56 27q0 22 -95 19l31 158h79l-17 -84q93 -15 93 -92z" />
<glyph unicode="&#xc8;" horiz-adv-x="581" d="M16 0zM566 -41l-7 -4q-21 45 -69 45h-414q-34 0 -56 -7l-4 7q45 18 45 69v551q0 46 -42 68l4 6q26 -7 57 -7h409q49 0 69 45l7 -4q-7 -21 -7 -55v-140q0 -37 7 -57l-7 -4q-21 42 -68 42h-255v-78h167q47 0 68 43l7 -4q-7 -26 -7 -57v-140q0 -34 7 -56l-6 -4 q-20 45 -69 45h-167v-90h256q46 0 68 42l7 -4q-9 -23 -8 -57l1 -140q0 -35 7 -55zM356 796l-25 -70l-263 72l32 99z" />
<glyph unicode="&#xc9;" horiz-adv-x="581" d="M16 0zM566 -41l-7 -4q-21 45 -69 45h-414q-34 0 -56 -7l-4 7q45 18 45 69v551q0 46 -42 68l4 6q26 -7 57 -7h409q49 0 69 45l7 -4q-7 -21 -7 -55v-140q0 -37 7 -57l-7 -4q-21 42 -68 42h-255v-78h167q47 0 68 43l7 -4q-7 -26 -7 -57v-140q0 -34 7 -56l-6 -4 q-20 45 -69 45h-167v-90h256q46 0 68 42l7 -4q-9 -23 -8 -57l1 -140q0 -35 7 -55zM556 798l-263 -72l-25 70l256 101z" />
<glyph unicode="&#xca;" horiz-adv-x="581" d="M16 0zM566 -41l-7 -4q-21 45 -69 45h-414q-34 0 -56 -7l-4 7q45 18 45 69v551q0 46 -42 68l4 6q26 -7 57 -7h409q49 0 69 45l7 -4q-7 -21 -7 -55v-140q0 -37 7 -57l-7 -4q-21 42 -68 42h-255v-78h167q47 0 68 43l7 -4q-7 -26 -7 -57v-140q0 -34 7 -56l-6 -4 q-20 45 -69 45h-167v-90h256q46 0 68 42l7 -4q-9 -23 -8 -57l1 -140q0 -35 7 -55zM466 732h-104l-66 61l-65 -61h-104l169 170z" />
<glyph unicode="&#xcb;" horiz-adv-x="581" d="M16 0zM566 -41l-7 -4q-21 45 -69 45h-414q-34 0 -56 -7l-4 7q45 18 45 69v551q0 46 -42 68l4 6q26 -7 57 -7h409q49 0 69 45l7 -4q-7 -21 -7 -55v-140q0 -37 7 -57l-7 -4q-21 42 -68 42h-255v-78h167q47 0 68 43l7 -4q-7 -26 -7 -57v-140q0 -34 7 -56l-6 -4 q-20 45 -69 45h-167v-90h256q46 0 68 42l7 -4q-9 -23 -8 -57l1 -140q0 -35 7 -55zM432 778q0 -25 -17.5 -42t-41.5 -17q-25 0 -42 17t-17 42t17 42t42 17q24 0 41.5 -17t17.5 -42zM279 778q0 -25 -15.5 -42t-38.5 -17q-25 0 -42.5 17t-17.5 42t17.5 42t42.5 17 q23 0 38.5 -17t15.5 -42z" />
<glyph unicode="&#xcc;" horiz-adv-x="289" d="M0 0zM276 0l-4 -7q-21 7 -56 7h-139q-32 0 -58 -7l-3 7q42 20 42 68v551q0 49 -45 69l4 6q21 -7 56 -7h139q32 0 58 7l4 -6q-43 -21 -43 -68v-551q0 -50 45 -69zM181 796l-25 -70l-263 72l32 99z" />
<glyph unicode="&#xcd;" horiz-adv-x="289" d="M13 0zM276 0l-4 -7q-21 7 -56 7h-139q-32 0 -58 -7l-3 7q42 20 42 68v551q0 49 -45 69l4 6q21 -7 56 -7h139q32 0 58 7l4 -6q-43 -21 -43 -68v-551q0 -50 45 -69zM381 798l-263 -72l-25 70l256 101z" />
<glyph unicode="&#xce;" horiz-adv-x="289" d="M0 0zM276 0l-4 -7q-21 7 -56 7h-139q-32 0 -58 -7l-3 7q42 20 42 68v551q0 49 -45 69l4 6q21 -7 56 -7h139q32 0 58 7l4 -6q-43 -21 -43 -68v-551q0 -50 45 -69zM311 732h-104l-66 61l-65 -61h-104l169 170z" />
<glyph unicode="&#xcf;" horiz-adv-x="289" d="M10 0zM276 0l-4 -7q-21 7 -56 7h-139q-32 0 -58 -7l-3 7q42 20 42 68v551q0 49 -45 69l4 6q21 -7 56 -7h139q32 0 58 7l4 -6q-43 -21 -43 -68v-551q0 -50 45 -69zM277 778q0 -25 -17.5 -42t-41.5 -17q-25 0 -42 17t-17 42t17 42t42 17q24 0 41.5 -17t17.5 -42zM124 778 q0 -25 -15.5 -42t-38.5 -17q-25 0 -42.5 17t-17.5 42t17.5 42t42.5 17q23 0 38.5 -17t15.5 -42z" />
<glyph unicode="&#xd0;" horiz-adv-x="702" d="M686 343q0 -142 -94 -241q-96 -102 -236 -102h-259q-31 0 -55 -8l-4 6q45 21 45 71v236h-66v77h66v238q0 46 -43 68l4 6q26 -7 57 -7h255q141 0 235.5 -101t94.5 -243zM513 343q0 70 -44 120.5t-113 50.5h-100v-132h75v-77h-75v-132h100q69 0 113 50t44 120z" />
<glyph unicode="&#xd1;" horiz-adv-x="753" d="M14 0zM740 0l-4 -6q-21 7 -55 7h-140q-31 0 -57 -7l-4 6q24 12 37 39l-285 345v-315q0 -48 45 -69l-4 -6q-21 7 -55 7h-140q-33 0 -57 -7l-4 6q42 22 42 68v551q0 51 -45 69l4 7q21 -7 56 -7h140q30 0 57 7l4 -7q-27 -12 -37 -40l285 -346v317q0 50 -45 69l4 7 q21 -7 55 -7h140q30 0 57 7l4 -7q-42 -20 -42 -68v-551q0 -49 44 -69zM541 768l-29 -21q-34 -24 -78 -24q-24 0 -45 8l-57 22q-22 8 -46 -9l-28 -20l-45 62l28 20q38 27 76 27q21 0 43 -8l57 -22q26 -10 50 6l30 21z" />
<glyph unicode="&#xd2;" horiz-adv-x="740" d="M20 0zM721 341q0 -145 -103 -247.5t-247 -102.5q-145 0 -248 102.5t-103 247.5t103 248t248 103q144 0 247 -103t103 -248zM548 341q0 73 -52.5 125.5t-124.5 52.5q-74 0 -126 -52t-52 -126q0 -73 52 -125t126 -52q72 0 124.5 52t52.5 125zM426 796l-25 -70l-263 72 l32 99z" />
<glyph unicode="&#xd3;" horiz-adv-x="740" d="M20 0zM721 341q0 -145 -103 -247.5t-247 -102.5q-145 0 -248 102.5t-103 247.5t103 248t248 103q144 0 247 -103t103 -248zM548 341q0 73 -52.5 125.5t-124.5 52.5q-74 0 -126 -52t-52 -126q0 -73 52 -125t126 -52q72 0 124.5 52t52.5 125zM591 798l-263 -72l-25 70 l256 101z" />
<glyph unicode="&#xd4;" horiz-adv-x="740" d="M20 0zM721 341q0 -145 -103 -247.5t-247 -102.5q-145 0 -248 102.5t-103 247.5t103 248t248 103q144 0 247 -103t103 -248zM548 341q0 73 -52.5 125.5t-124.5 52.5q-74 0 -126 -52t-52 -126q0 -73 52 -125t126 -52q72 0 124.5 52t52.5 125zM539 721h-104l-66 61l-65 -61 h-104l169 170z" />
<glyph unicode="&#xd5;" horiz-adv-x="740" d="M20 0zM721 341q0 -145 -103 -247.5t-247 -102.5q-145 0 -248 102.5t-103 247.5t103 248t248 103q144 0 247 -103t103 -248zM548 341q0 73 -52.5 125.5t-124.5 52.5q-74 0 -126 -52t-52 -126q0 -73 52 -125t126 -52q72 0 124.5 52t52.5 125zM541 768l-29 -21 q-34 -24 -78 -24q-24 0 -45 8l-57 22q-22 8 -46 -9l-28 -20l-45 62l28 20q38 27 76 27q21 0 43 -8l57 -22q26 -10 50 6l30 21z" />
<glyph unicode="&#xd6;" horiz-adv-x="740" d="M20 0zM721 341q0 -145 -103 -247.5t-247 -102.5q-145 0 -248 102.5t-103 247.5t103 248t248 103q144 0 247 -103t103 -248zM548 341q0 73 -52.5 125.5t-124.5 52.5q-74 0 -126 -52t-52 -126q0 -73 52 -125t126 -52q72 0 124.5 52t52.5 125zM506 778q0 -25 -17.5 -42 t-41.5 -17q-25 0 -42 17t-17 42t17 42t42 17q24 0 41.5 -17t17.5 -42zM353 778q0 -25 -15.5 -42t-38.5 -17q-25 0 -42.5 17t-17.5 42t17.5 42t42.5 17q23 0 38.5 -17t15.5 -42z" />
<glyph unicode="&#xd8;" horiz-adv-x="735" d="M718 341q0 -145 -102.5 -247.5t-247.5 -102.5q-91 0 -171 44l-56 -79l-62 45l56 79q-118 105 -118 261q0 145 103 248t248 103q90 0 170 -44l56 78l62 -44l-56 -79q118 -103 118 -262zM545 341q0 70 -46 119l-200 -282q33 -14 69 -14q73 0 125 52t52 125zM437 505 q-34 14 -69 14q-73 0 -125.5 -52t-52.5 -126q0 -66 46 -119z" />
<glyph unicode="&#xd9;" horiz-adv-x="698" d="M10 0zM688 688q-42 -22 -42 -68v-346q0 -121 -87 -205t-209 -84q-121 0 -208 84t-87 205v345q0 48 -45 69l4 6q21 -7 55 -7h140q31 0 57 7l4 -6q-42 -22 -42 -68v-346q0 -50 36 -83t86 -33q51 0 87 32.5t36 83.5v345q0 48 -45 69l4 6q21 -7 55 -7h140q31 0 57 7zM396 796 l-25 -70l-263 72l32 99z" />
<glyph unicode="&#xda;" horiz-adv-x="698" d="M10 0zM688 688q-42 -22 -42 -68v-346q0 -121 -87 -205t-209 -84q-121 0 -208 84t-87 205v345q0 48 -45 69l4 6q21 -7 55 -7h140q31 0 57 7l4 -6q-42 -22 -42 -68v-346q0 -50 36 -83t86 -33q51 0 87 32.5t36 83.5v345q0 48 -45 69l4 6q21 -7 55 -7h140q31 0 57 7zM581 798 l-263 -72l-25 70l256 101z" />
<glyph unicode="&#xdb;" horiz-adv-x="698" d="M10 0zM688 688q-42 -22 -42 -68v-346q0 -121 -87 -205t-209 -84q-121 0 -208 84t-87 205v345q0 48 -45 69l4 6q21 -7 55 -7h140q31 0 57 7l4 -6q-42 -22 -42 -68v-346q0 -50 36 -83t86 -33q51 0 87 32.5t36 83.5v345q0 48 -45 69l4 6q21 -7 55 -7h140q31 0 57 7zM518 720 h-104l-66 61l-65 -61h-104l169 170z" />
<glyph unicode="&#xdc;" horiz-adv-x="698" d="M10 0zM688 688q-42 -22 -42 -68v-346q0 -121 -87 -205t-209 -84q-121 0 -208 84t-87 205v345q0 48 -45 69l4 6q21 -7 55 -7h140q31 0 57 7l4 -6q-42 -22 -42 -68v-346q0 -50 36 -83t86 -33q51 0 87 32.5t36 83.5v345q0 48 -45 69l4 6q21 -7 55 -7h140q31 0 57 7zM484 773 q0 -25 -17.5 -42t-41.5 -17q-25 0 -42 17t-17 42t17 42t42 17q24 0 41.5 -17t17.5 -42zM331 773q0 -25 -15.5 -42t-38.5 -17q-25 0 -42.5 17t-17.5 42t17.5 42t42.5 17q23 0 38.5 -17t15.5 -42z" />
<glyph unicode="&#xdd;" horiz-adv-x="724" d="M3 0zM721 582l-1 -7q-10 2 -20 2q-34 0 -57 -25l-196 -219v-266q0 -49 45 -69l-4 -6q-21 7 -55 7h-140q-31 0 -57 -7l-4 7q43 21 43 67v270l-194 216q-23 25 -57 25q-10 0 -19 -2l-2 7q23 11 47 33l104 93q25 22 36 42l8 -2q-7 -15 -7 -31q0 -29 19 -50l152 -170l152 170 q19 21 19 51q0 15 -6 30l7 2q11 -20 36 -42l104 -93q24 -22 47 -33zM606 798l-263 -72l-25 70l256 101z" />
<glyph unicode="&#xde;" horiz-adv-x="609" d="M596 346q0 -94 -65.5 -161.5t-158.5 -67.5h-140v-48q0 -51 45 -69l-4 -7q-21 7 -56 7h-139q-32 0 -58 -7l-4 7q43 20 43 68v551q0 48 -45 69l4 6q21 -7 55 -7h140q32 0 57 7l4 -6q-42 -22 -42 -68v-44h140q94 0 159 -67.5t65 -162.5zM423 346q0 24 -14 40.5t-37 16.5 h-140v-113h140q23 0 37 16.5t14 39.5z" />
<glyph unicode="&#xdf;" horiz-adv-x="927" d="M913 658q-16 -13 -34 -44l-71 -121q-17 -29 -22 -53h-8v5q2 45 -47 72q-40 23 -90 23q-62 0 -62 -31q0 -26 81 -62q109 -48 151 -82q81 -67 81 -166q0 -95 -72 -156q-68 -59 -165 -59q-81 0 -172 45q-63 -45 -147 -45q-107 0 -237 82q-19 12 -40 12q-22 0 -42 -12l-3 7 q17 13 36 42l77 117q19 28 25 52h8v-8q0 -42 34 -65q78 -53 139 -53q67 0 67 41q0 21 -24 38q-18 13 -53 28q-61 27 -98 46q-140 74 -140 195q0 93 73 152q68 57 163 57q85 0 171 -46q64 45 148 45q92 0 188 -54q17 -10 36 -10q24 0 45 15zM719 200q0 20 -23 36t-53 29 q-61 27 -105 50q4 -6 10 -18h1q28 -55 23 -119q47 -20 81 -20q66 0 66 42zM439 400q-37 52 -34 120q-42 20 -83 20q-63 0 -63 -31q0 -20 47 -45q45 -20 133 -64z" />
<glyph unicode="&#xe0;" d="M11 0zM868 99q-24 -5 -53 -22l-121 -72q-28 -17 -44 -34l-6 4q13 19 13 44q0 21 -10 38l-27 45h-362l-26 -45q-11 -18 -11 -39q0 -25 14 -43l-7 -4q-13 15 -44 34l-120 72q-29 17 -53 22v8q47 -3 71 37l356 606l358 -606q24 -40 72 -37v-8zM518 275l-79 134l-79 -134h158 zM501 826l-25 -70l-263 72l32 99z" />
<glyph unicode="&#xe1;" d="M11 0zM868 99q-24 -5 -53 -22l-121 -72q-28 -17 -44 -34l-6 4q13 19 13 44q0 21 -10 38l-27 45h-362l-26 -45q-11 -18 -11 -39q0 -25 14 -43l-7 -4q-13 15 -44 34l-120 72q-29 17 -53 22v8q47 -3 71 37l356 606l358 -606q24 -40 72 -37v-8zM518 275l-79 134l-79 -134h158 zM666 838l-263 -72l-25 70l256 101z" />
<glyph unicode="&#xe2;" d="M11 0zM868 99q-24 -5 -53 -22l-121 -72q-28 -17 -44 -34l-6 4q13 19 13 44q0 21 -10 38l-27 45h-362l-26 -45q-11 -18 -11 -39q0 -25 14 -43l-7 -4q-13 15 -44 34l-120 72q-29 17 -53 22v8q47 -3 71 37l356 606l358 -606q24 -40 72 -37v-8zM518 275l-79 134l-79 -134h158 zM606 732h-104l-66 61l-65 -61h-104l169 170z" />
<glyph unicode="&#xe3;" d="M11 0zM868 99q-24 -5 -53 -22l-121 -72q-28 -17 -44 -34l-6 4q13 19 13 44q0 21 -10 38l-27 45h-362l-26 -45q-11 -18 -11 -39q0 -25 14 -43l-7 -4q-13 15 -44 34l-120 72q-29 17 -53 22v8q47 -3 71 37l356 606l358 -606q24 -40 72 -37v-8zM518 275l-79 134l-79 -134h158 zM611 804l-29 -21q-34 -24 -78 -24q-24 0 -45 8l-57 22q-22 8 -46 -9l-28 -20l-45 62l28 20q38 27 76 27q21 0 43 -8l57 -22q26 -10 50 6l30 21z" />
<glyph unicode="&#xe4;" d="M11 0zM868 99q-24 -5 -53 -22l-121 -72q-28 -17 -44 -34l-6 4q13 19 13 44q0 21 -10 38l-27 45h-362l-26 -45q-11 -18 -11 -39q0 -25 14 -43l-7 -4q-13 15 -44 34l-120 72q-29 17 -53 22v8q47 -3 71 37l356 606l358 -606q24 -40 72 -37v-8zM518 275l-79 134l-79 -134h158 zM572 800q0 -25 -17.5 -42t-41.5 -17q-25 0 -42 17t-17 42t17 42t42 17q24 0 41.5 -17t17.5 -42zM419 800q0 -25 -15.5 -42t-38.5 -17q-25 0 -42.5 17t-17.5 42t17.5 42t42.5 17q23 0 38.5 -17t15.5 -42z" />
<glyph unicode="&#xe5;" d="M11 0zM868 99q-24 -5 -53 -22l-121 -72q-28 -17 -44 -34l-6 4q13 19 13 44q0 21 -10 38l-27 45h-362l-26 -45q-11 -18 -11 -39q0 -25 14 -43l-7 -4q-13 15 -44 34l-120 72q-29 17 -53 22v8q47 -3 71 37l356 606l358 -606q24 -40 72 -37v-8zM518 275l-79 134l-79 -134h158 zM547 824q0 -47 -33 -80.5t-80 -33.5t-80.5 33.5t-33.5 80.5t33.5 80t80.5 33t80 -33t33 -80zM490 824q0 23 -16.5 39.5t-39.5 16.5t-39.5 -16.5t-16.5 -39.5t16.5 -39.5t39.5 -16.5t39.5 16.5t16.5 39.5z" />
<glyph unicode="&#xe6;" horiz-adv-x="993" d="M5 0zM989 -39l-7 -4q-23 43 -68 43h-382q-31 0 -57 -7l-4 7q42 20 42 68v31h-238l-58 -70q-18 -21 -18 -48q0 -18 9 -34l-7 -3q-13 19 -39 41l-108 88q-28 22 -49 31l1 8q9 -2 18 -2q35 0 58 27l423 516q-13 24 -36 35l3 6q22 -7 56 -7h385q48 0 69 45l7 -4 q-8 -20 -8 -55v-140q0 -35 8 -57l-7 -4q-22 42 -68 42h-228v-80h136q48 0 69 44l7 -3q-7 -22 -7 -56v-140q0 -36 7 -57l-7 -4q-21 43 -68 43h-137v-88h227q49 0 69 45l7 -4q-8 -20 -8 -56v-139q0 -34 8 -58zM513 272v118l-96 -118h96z" />
<glyph unicode="&#xe7;" horiz-adv-x="672" d="M16 0zM16 0zM657 65l-4 -7q-19 12 -39 12q-23 0 -57 -21q-86 -54 -188 -54q-145 0 -249 102t-104 246t104 246.5t249 102.5q93 0 175 -47q33 -19 56 -19q21 0 41 14l4 -7q-17 -14 -35 -46l-69 -122q-17 -30 -21 -51l-8 -1q4 49 -53 82q-42 24 -90 24q-73 0 -126.5 -51 t-53.5 -125q0 -73 53.5 -124t126.5 -51q51 0 96 28q59 37 52 84h8q6 -24 23 -51l73 -119q19 -31 36 -45zM479 -149q0 -50 -45 -80q-39 -25 -93 -25q-61 0 -104 32l47 61q21 -16 48 -16q56 0 56 27q0 22 -95 19l31 158h79l-17 -84q93 -15 93 -92z" />
<glyph unicode="&#xe8;" horiz-adv-x="581" d="M17 0zM17 0zM567 -41l-7 -4q-21 45 -69 45h-414q-34 0 -56 -7l-4 7q45 18 45 69v551q0 46 -42 68l4 6q26 -7 57 -7h409q49 0 69 45l7 -4q-7 -21 -7 -55v-140q0 -37 7 -57l-7 -4q-21 42 -68 42h-255v-78h167q47 0 68 43l7 -4q-7 -26 -7 -57v-140q0 -34 7 -56l-6 -4 q-20 45 -69 45h-167v-90h256q46 0 68 42l7 -4q-9 -23 -8 -57l1 -140q0 -35 7 -55zM371 796l-25 -70l-263 72l32 99z" />
<glyph unicode="&#xe9;" horiz-adv-x="581" d="M17 0zM17 0zM567 -41l-7 -4q-21 45 -69 45h-414q-34 0 -56 -7l-4 7q45 18 45 69v551q0 46 -42 68l4 6q26 -7 57 -7h409q49 0 69 45l7 -4q-7 -21 -7 -55v-140q0 -37 7 -57l-7 -4q-21 42 -68 42h-255v-78h167q47 0 68 43l7 -4q-7 -26 -7 -57v-140q0 -34 7 -56l-6 -4 q-20 45 -69 45h-167v-90h256q46 0 68 42l7 -4q-9 -23 -8 -57l1 -140q0 -35 7 -55zM536 798l-263 -72l-25 70l256 101z" />
<glyph unicode="&#xea;" horiz-adv-x="581" d="M17 0zM17 0zM567 -41l-7 -4q-21 45 -69 45h-414q-34 0 -56 -7l-4 7q45 18 45 69v551q0 46 -42 68l4 6q26 -7 57 -7h409q49 0 69 45l7 -4q-7 -21 -7 -55v-140q0 -37 7 -57l-7 -4q-21 42 -68 42h-255v-78h167q47 0 68 43l7 -4q-7 -26 -7 -57v-140q0 -34 7 -56l-6 -4 q-20 45 -69 45h-167v-90h256q46 0 68 42l7 -4q-9 -23 -8 -57l1 -140q0 -35 7 -55zM456 732h-104l-66 61l-65 -61h-104l169 170z" />
<glyph unicode="&#xeb;" horiz-adv-x="581" d="M17 0zM17 0zM567 -41l-7 -4q-21 45 -69 45h-414q-34 0 -56 -7l-4 7q45 18 45 69v551q0 46 -42 68l4 6q26 -7 57 -7h409q49 0 69 45l7 -4q-7 -21 -7 -55v-140q0 -37 7 -57l-7 -4q-21 42 -68 42h-255v-78h167q47 0 68 43l7 -4q-7 -26 -7 -57v-140q0 -34 7 -56l-6 -4 q-20 45 -69 45h-167v-90h256q46 0 68 42l7 -4q-9 -23 -8 -57l1 -140q0 -35 7 -55zM432 778q0 -25 -17.5 -42t-41.5 -17q-25 0 -42 17t-17 42t17 42t42 17q24 0 41.5 -17t17.5 -42zM279 778q0 -25 -15.5 -42t-38.5 -17q-25 0 -42.5 17t-17.5 42t17.5 42t42.5 17 q23 0 38.5 -17t15.5 -42z" />
<glyph unicode="&#xec;" horiz-adv-x="289" d="M0 0zM276 0l-4 -7q-21 7 -56 7h-139q-32 0 -58 -7l-3 7q42 20 42 68v551q0 49 -45 69l4 6q21 -7 56 -7h139q32 0 58 7l4 -6q-43 -21 -43 -68v-551q0 -50 45 -69zM191 796l-25 -70l-263 72l32 99z" />
<glyph unicode="&#xed;" horiz-adv-x="289" d="M13 0zM276 0l-4 -7q-21 7 -56 7h-139q-32 0 -58 -7l-3 7q42 20 42 68v551q0 49 -45 69l4 6q21 -7 56 -7h139q32 0 58 7l4 -6q-43 -21 -43 -68v-551q0 -50 45 -69zM406 798l-263 -72l-25 70l256 101z" />
<glyph unicode="&#xee;" horiz-adv-x="289" d="M0 0zM276 0l-4 -7q-21 7 -56 7h-139q-32 0 -58 -7l-3 7q42 20 42 68v551q0 49 -45 69l4 6q21 -7 56 -7h139q32 0 58 7l4 -6q-43 -21 -43 -68v-551q0 -50 45 -69zM316 732h-104l-66 61l-65 -61h-104l169 170z" />
<glyph unicode="&#xef;" horiz-adv-x="289" d="M10 0zM276 0l-4 -7q-21 7 -56 7h-139q-32 0 -58 -7l-3 7q42 20 42 68v551q0 49 -45 69l4 6q21 -7 56 -7h139q32 0 58 7l4 -6q-43 -21 -43 -68v-551q0 -50 45 -69zM277 778q0 -25 -17.5 -42t-41.5 -17q-25 0 -42 17t-17 42t17 42t42 17q24 0 41.5 -17t17.5 -42zM124 778 q0 -25 -15.5 -42t-38.5 -17q-25 0 -42.5 17t-17.5 42t17.5 42t42.5 17q23 0 38.5 -17t15.5 -42z" />
<glyph unicode="&#xf0;" horiz-adv-x="702" d="M17 0zM686 343q0 -142 -94 -241q-96 -102 -236 -102h-259q-31 0 -55 -8l-4 6q45 21 45 71v236h-66v77h66v238q0 46 -43 68l4 6q26 -7 57 -7h255q141 0 235.5 -101t94.5 -243zM513 343q0 70 -44 120.5t-113 50.5h-100v-132h75v-77h-75v-132h100q69 0 113 50t44 120z" />
<glyph unicode="&#xf1;" horiz-adv-x="753" d="M14 0zM740 0l-4 -6q-21 7 -55 7h-140q-31 0 -57 -7l-4 6q24 12 37 39l-285 345v-315q0 -48 45 -69l-4 -6q-21 7 -55 7h-140q-33 0 -57 -7l-4 6q42 22 42 68v551q0 51 -45 69l4 7q21 -7 56 -7h140q30 0 57 7l4 -7q-27 -12 -37 -40l285 -346v317q0 50 -45 69l4 7 q21 -7 55 -7h140q30 0 57 7l4 -7q-42 -20 -42 -68v-551q0 -49 44 -69zM541 768l-29 -21q-34 -24 -78 -24q-24 0 -45 8l-57 22q-22 8 -46 -9l-28 -20l-45 62l28 20q38 27 76 27q21 0 43 -8l57 -22q26 -10 50 6l30 21z" />
<glyph unicode="&#xf2;" horiz-adv-x="740" d="M20 0zM721 341q0 -145 -103 -247.5t-247 -102.5q-145 0 -248 102.5t-103 247.5t103 248t248 103q144 0 247 -103t103 -248zM548 341q0 73 -52.5 125.5t-124.5 52.5q-74 0 -126 -52t-52 -126q0 -73 52 -125t126 -52q72 0 124.5 52t52.5 125zM421 796l-25 -70l-263 72 l32 99z" />
<glyph unicode="&#xf3;" horiz-adv-x="740" d="M20 0zM721 341q0 -145 -103 -247.5t-247 -102.5q-145 0 -248 102.5t-103 247.5t103 248t248 103q144 0 247 -103t103 -248zM548 341q0 73 -52.5 125.5t-124.5 52.5q-74 0 -126 -52t-52 -126q0 -73 52 -125t126 -52q72 0 124.5 52t52.5 125zM621 798l-263 -72l-25 70 l256 101z" />
<glyph unicode="&#xf4;" horiz-adv-x="740" d="M20 0zM721 341q0 -145 -103 -247.5t-247 -102.5q-145 0 -248 102.5t-103 247.5t103 248t248 103q144 0 247 -103t103 -248zM548 341q0 73 -52.5 125.5t-124.5 52.5q-74 0 -126 -52t-52 -126q0 -73 52 -125t126 -52q72 0 124.5 52t52.5 125zM539 716h-104l-66 61l-65 -61 h-104l169 170z" />
<glyph unicode="&#xf5;" horiz-adv-x="740" d="M20 0zM721 341q0 -145 -103 -247.5t-247 -102.5q-145 0 -248 102.5t-103 247.5t103 248t248 103q144 0 247 -103t103 -248zM548 341q0 73 -52.5 125.5t-124.5 52.5q-74 0 -126 -52t-52 -126q0 -73 52 -125t126 -52q72 0 124.5 52t52.5 125zM541 768l-29 -21 q-34 -24 -78 -24q-24 0 -45 8l-57 22q-22 8 -46 -9l-28 -20l-45 62l28 20q38 27 76 27q21 0 43 -8l57 -22q26 -10 50 6l30 21z" />
<glyph unicode="&#xf6;" horiz-adv-x="740" d="M20 0zM721 341q0 -145 -103 -247.5t-247 -102.5q-145 0 -248 102.5t-103 247.5t103 248t248 103q144 0 247 -103t103 -248zM548 341q0 73 -52.5 125.5t-124.5 52.5q-74 0 -126 -52t-52 -126q0 -73 52 -125t126 -52q72 0 124.5 52t52.5 125zM502 778q0 -25 -17.5 -42 t-41.5 -17q-25 0 -42 17t-17 42t17 42t42 17q24 0 41.5 -17t17.5 -42zM349 778q0 -25 -15.5 -42t-38.5 -17q-25 0 -42.5 17t-17.5 42t17.5 42t42.5 17q23 0 38.5 -17t15.5 -42z" />
<glyph unicode="&#xf8;" horiz-adv-x="735" d="M17 0zM718 341q0 -145 -102.5 -247.5t-247.5 -102.5q-91 0 -171 44l-56 -79l-62 45l56 79q-118 105 -118 261q0 145 103 248t248 103q90 0 170 -44l56 78l62 -44l-56 -79q118 -103 118 -262zM545 341q0 70 -46 119l-200 -282q33 -14 69 -14q73 0 125 52t52 125zM437 505 q-34 14 -69 14q-73 0 -125.5 -52t-52.5 -126q0 -66 46 -119z" />
<glyph unicode="&#xf9;" horiz-adv-x="698" d="M10 0zM688 688q-42 -22 -42 -68v-346q0 -121 -87 -205t-209 -84q-121 0 -208 84t-87 205v345q0 48 -45 69l4 6q21 -7 55 -7h140q31 0 57 7l4 -6q-42 -22 -42 -68v-346q0 -50 36 -83t86 -33q51 0 87 32.5t36 83.5v345q0 48 -45 69l4 6q21 -7 55 -7h140q31 0 57 7zM396 796 l-25 -70l-263 72l32 99z" />
<glyph unicode="&#xfa;" horiz-adv-x="698" d="M10 0zM688 688q-42 -22 -42 -68v-346q0 -121 -87 -205t-209 -84q-121 0 -208 84t-87 205v345q0 48 -45 69l4 6q21 -7 55 -7h140q31 0 57 7l4 -6q-42 -22 -42 -68v-346q0 -50 36 -83t86 -33q51 0 87 32.5t36 83.5v345q0 48 -45 69l4 6q21 -7 55 -7h140q31 0 57 7zM606 798 l-263 -72l-25 70l256 101z" />
<glyph unicode="&#xfb;" horiz-adv-x="698" d="M10 0zM688 688q-42 -22 -42 -68v-346q0 -121 -87 -205t-209 -84q-121 0 -208 84t-87 205v345q0 48 -45 69l4 6q21 -7 55 -7h140q31 0 57 7l4 -6q-42 -22 -42 -68v-346q0 -50 36 -83t86 -33q51 0 87 32.5t36 83.5v345q0 48 -45 69l4 6q21 -7 55 -7h140q31 0 57 7zM519 715 h-104l-66 61l-65 -61h-104l169 170z" />
<glyph unicode="&#xfc;" horiz-adv-x="698" d="M10 0zM688 688q-42 -22 -42 -68v-346q0 -121 -87 -205t-209 -84q-121 0 -208 84t-87 205v345q0 48 -45 69l4 6q21 -7 55 -7h140q31 0 57 7l4 -6q-42 -22 -42 -68v-346q0 -50 36 -83t86 -33q51 0 87 32.5t36 83.5v345q0 48 -45 69l4 6q21 -7 55 -7h140q31 0 57 7zM484 774 q0 -25 -17.5 -42t-41.5 -17q-25 0 -42 17t-17 42t17 42t42 17q24 0 41.5 -17t17.5 -42zM331 774q0 -25 -15.5 -42t-38.5 -17q-25 0 -42.5 17t-17.5 42t17.5 42t42.5 17q23 0 38.5 -17t15.5 -42z" />
<glyph unicode="&#xfd;" horiz-adv-x="724" d="M3 0zM721 582l-1 -7q-10 2 -20 2q-34 0 -57 -25l-196 -219v-266q0 -49 45 -69l-4 -6q-21 7 -55 7h-140q-31 0 -57 -7l-4 7q43 21 43 67v270l-194 216q-23 25 -57 25q-10 0 -19 -2l-2 7q23 11 47 33l104 93q25 22 36 42l8 -2q-7 -15 -7 -31q0 -29 19 -50l152 -170l152 170 q19 21 19 51q0 15 -6 30l7 2q11 -20 36 -42l104 -93q24 -22 47 -33zM606 798l-263 -72l-25 70l256 101z" />
<glyph unicode="&#xfe;" horiz-adv-x="609" d="M14 0zM596 346q0 -94 -65.5 -161.5t-158.5 -67.5h-140v-48q0 -51 45 -69l-4 -7q-21 7 -56 7h-139q-32 0 -58 -7l-4 7q43 20 43 68v551q0 48 -45 69l4 6q21 -7 55 -7h140q32 0 57 7l4 -6q-42 -22 -42 -68v-44h140q94 0 159 -67.5t65 -162.5zM423 346q0 24 -14 40.5 t-37 16.5h-140v-113h140q23 0 37 16.5t14 39.5z" />
<glyph unicode="&#xff;" horiz-adv-x="724" d="M3 0zM721 582l-1 -7q-10 2 -20 2q-34 0 -57 -25l-196 -219v-266q0 -49 45 -69l-4 -6q-21 7 -55 7h-140q-31 0 -57 -7l-4 7q43 21 43 67v270l-194 216q-23 25 -57 25q-10 0 -19 -2l-2 7q23 11 47 33l104 93q25 22 36 42l8 -2q-7 -15 -7 -31q0 -29 19 -50l152 -170l152 170 q19 21 19 51q0 15 -6 30l7 2q11 -20 36 -42l104 -93q24 -22 47 -33zM496 777q0 -25 -17.5 -42t-41.5 -17q-25 0 -42 17t-17 42t17 42t42 17q24 0 41.5 -17t17.5 -42zM343 777q0 -25 -15.5 -42t-38.5 -17q-25 0 -42.5 17t-17.5 42t17.5 42t42.5 17q23 0 38.5 -17t15.5 -42z " />
<glyph unicode="&#x152;" horiz-adv-x="1170" d="M1154 -41l-6 -4q-21 45 -69 45h-414q-35 0 -56 -7l-4 7q45 18 45 69v67q-49 -67 -122 -105q-76 -40 -162 -40q-145 0 -247.5 102.5t-102.5 247.5t102.5 248t247.5 103q86 0 162 -39q73 -39 122 -106v73q0 47 -43 68l4 6q26 -7 58 -7h409q48 0 69 45l7 -4q-7 -20 -7 -55 l-1 -140q0 -34 8 -57l-7 -4q-20 42 -68 42h-256v-78h168q47 0 68 43l7 -4q-7 -21 -7 -57v-140q0 -34 7 -56l-7 -4q-20 45 -69 45h-167v-90h257q47 0 67 42l7 -4q-7 -24 -7 -57v-140q0 -34 7 -55zM544 341q0 74 -52 126t-126 52q-73 0 -125 -52.5t-52 -125.5t52 -125t125 -52 t125.5 52t52.5 125z" />
<glyph unicode="&#x153;" horiz-adv-x="1170" d="M16 0zM1154 -41l-6 -4q-21 45 -69 45h-414q-35 0 -56 -7l-4 7q45 18 45 69v67q-49 -67 -122 -105q-76 -40 -162 -40q-145 0 -247.5 102.5t-102.5 247.5t102.5 248t247.5 103q86 0 162 -39q73 -39 122 -106v73q0 47 -43 68l4 6q26 -7 58 -7h409q48 0 69 45l7 -4 q-7 -20 -7 -55l-1 -140q0 -34 8 -57l-7 -4q-20 42 -68 42h-256v-78h168q47 0 68 43l7 -4q-7 -21 -7 -57v-140q0 -34 7 -56l-7 -4q-20 45 -69 45h-167v-90h257q47 0 67 42l7 -4q-7 -24 -7 -57v-140q0 -34 7 -55zM544 341q0 74 -52 126t-126 52q-73 0 -125 -52.5t-52 -125.5 t52 -125t125 -52t125.5 52t52.5 125z" />
<glyph unicode="&#x178;" horiz-adv-x="724" d="M3 0zM721 582l-1 -7q-10 2 -20 2q-34 0 -57 -25l-196 -219v-266q0 -49 45 -69l-4 -6q-21 7 -55 7h-140q-31 0 -57 -7l-4 7q43 21 43 67v270l-194 216q-23 25 -57 25q-10 0 -19 -2l-2 7q23 11 47 33l104 93q25 22 36 42l8 -2q-7 -15 -7 -31q0 -29 19 -50l152 -170l152 170 q19 21 19 51q0 15 -6 30l7 2q11 -20 36 -42l104 -93q24 -22 47 -33zM499 769q0 -25 -17.5 -42t-41.5 -17q-25 0 -42 17t-17 42t17 42t42 17q24 0 41.5 -17t17.5 -42zM346 769q0 -25 -15.5 -42t-38.5 -17q-25 0 -42.5 17t-17.5 42t17.5 42t42.5 17q23 0 38.5 -17t15.5 -42z " />
<glyph unicode="&#x2c6;" horiz-adv-x="373" d="M356 732h-104l-66 61l-65 -61h-104l169 170z" />
<glyph unicode="&#x2da;" horiz-adv-x="297" d="M262 824q0 -47 -33 -80.5t-80 -33.5t-80.5 33.5t-33.5 80.5t33.5 80t80.5 33t80 -33t33 -80zM205 824q0 23 -16.5 39.5t-39.5 16.5t-39.5 -16.5t-16.5 -39.5t16.5 -39.5t39.5 -16.5t39.5 16.5t16.5 39.5z" />
<glyph unicode="&#x2dc;" horiz-adv-x="373" d="M351 768l-29 -21q-34 -24 -78 -24q-24 0 -45 8l-57 22q-22 8 -46 -9l-28 -20l-45 62l28 20q38 27 76 27q21 0 43 -8l57 -22q26 -10 50 6l30 21z" />
<glyph unicode="&#x2000;" horiz-adv-x="468" />
<glyph unicode="&#x2001;" horiz-adv-x="937" />
<glyph unicode="&#x2002;" horiz-adv-x="468" />
<glyph unicode="&#x2003;" horiz-adv-x="937" />
<glyph unicode="&#x2004;" horiz-adv-x="312" />
<glyph unicode="&#x2005;" horiz-adv-x="234" />
<glyph unicode="&#x2006;" horiz-adv-x="156" />
<glyph unicode="&#x2007;" horiz-adv-x="156" />
<glyph unicode="&#x2008;" horiz-adv-x="117" />
<glyph unicode="&#x2009;" horiz-adv-x="187" />
<glyph unicode="&#x200a;" horiz-adv-x="52" />
<glyph unicode="&#x2010;" horiz-adv-x="351" d="M335 219l-7 -4q-20 42 -68 42h-168q-49 0 -69 -45l-7 4q7 21 7 56v139q0 37 -7 58l7 4q21 -43 68 -43h168q48 0 69 45l7 -4q-7 -20 -7 -55l-1 -140q0 -34 8 -57z" />
<glyph unicode="&#x2011;" horiz-adv-x="351" d="M335 219l-7 -4q-20 42 -68 42h-168q-49 0 -69 -45l-7 4q7 21 7 56v139q0 37 -7 58l7 4q21 -43 68 -43h168q48 0 69 45l7 -4q-7 -20 -7 -55l-1 -140q0 -34 8 -57z" />
<glyph unicode="&#x2012;" horiz-adv-x="351" d="M335 219l-7 -4q-20 42 -68 42h-168q-49 0 -69 -45l-7 4q7 21 7 56v139q0 37 -7 58l7 4q21 -43 68 -43h168q48 0 69 45l7 -4q-7 -20 -7 -55l-1 -140q0 -34 8 -57z" />
<glyph unicode="&#x2013;" horiz-adv-x="500" d="M485 219l-7 -4q-21 42 -68 42h-318q-49 0 -69 -45l-7 4q7 21 7 56v139q0 37 -7 58l7 4q20 -43 68 -43h318q48 0 69 45l7 -4q-7 -20 -7 -55l-1 -140q-1 -34 8 -57z" />
<glyph unicode="&#x2014;" horiz-adv-x="1000" d="M985 219l-7 -4q-21 42 -68 42h-818q-49 0 -69 -45l-7 4q7 21 7 56v139q0 37 -7 58l7 4q20 -43 68 -43h818q48 0 69 45l7 -4q-7 -20 -7 -55l-1 -140q-1 -34 8 -57z" />
<glyph unicode="&#x2018;" horiz-adv-x="240" d="M18 564q-3 65 32.5 118t94.5 74l27 -57q-48 -15 -74 -60q14 2 23 2q41 0 69.5 -28.5t28.5 -69.5q0 -40 -28.5 -68.5t-69.5 -28.5q-48 0 -76 37q-24 32 -27 81z" />
<glyph unicode="&#x2019;" horiz-adv-x="240" d="M220 628q4 -65 -31.5 -118t-95.5 -74l-27 57q49 15 74 60q-14 -2 -23 -2q-40 0 -69 29t-29 69t29 68.5t69 28.5q49 0 77 -37q24 -32 26 -81z" />
<glyph unicode="&#x201a;" horiz-adv-x="250" d="M239 55q4 -73 -36.5 -134t-107.5 -85l-31 65q55 19 84 69q-12 -3 -26 -3q-46 0 -78.5 32.5t-32.5 78.5t32.5 78.5t78.5 32.5q56 0 87 -42q27 -36 30 -92z" />
<glyph unicode="&#x201c;" horiz-adv-x="456" d="M18 564q-3 65 32.5 118t94.5 74l27 -57q-48 -15 -74 -60q14 2 23 2q41 0 69.5 -28.5t28.5 -69.5q0 -40 -28.5 -68.5t-69.5 -28.5q-48 0 -76 37q-24 32 -27 81zM238 564q-3 65 32.5 118t94.5 74l27 -57q-48 -15 -74 -60q14 2 23 2q41 0 69.5 -28.5t28.5 -69.5 q0 -40 -28.5 -68.5t-69.5 -28.5q-48 0 -76 37q-24 32 -27 81z" />
<glyph unicode="&#x201d;" horiz-adv-x="456" d="M438 628q4 -65 -31.5 -118t-95.5 -74l-27 57q49 15 74 60q-14 -2 -23 -2q-40 0 -69 29t-29 69t29 68.5t69 28.5q49 0 77 -37q24 -32 26 -81zM218 628q4 -65 -31.5 -118t-95.5 -74l-27 57q49 15 74 60q-14 -2 -23 -2q-40 0 -69 29t-29 69t29 68.5t69 28.5q49 0 77 -37 q24 -32 26 -81z" />
<glyph unicode="&#x201e;" horiz-adv-x="510" d="M494 55q4 -73 -36.5 -134t-107.5 -85l-31 65q55 19 84 69q-12 -3 -26 -3q-46 0 -78.5 32.5t-32.5 78.5t32.5 78.5t78.5 32.5q56 0 87 -42q27 -36 30 -92zM244 55q4 -73 -36.5 -134t-107.5 -85l-31 65q55 19 84 69q-12 -3 -26 -3q-46 0 -78.5 32.5t-32.5 78.5t32.5 78.5 t78.5 32.5q56 0 87 -42q27 -36 30 -92z" />
<glyph unicode="&#x2022;" horiz-adv-x="336" d="M318 354q0 -62 -44 -106t-106 -44t-106 44t-44 106t44 106t106 44t106 -44t44 -106z" />
<glyph unicode="&#x2026;" horiz-adv-x="885" d="M834 78q0 -46 -33 -78.5t-78 -32.5q-46 0 -78.5 32.5t-32.5 78.5t32.5 78.5t78.5 32.5q45 0 78 -32.5t33 -78.5zM554 78q0 -46 -33 -78.5t-78 -32.5q-46 0 -78.5 32.5t-32.5 78.5t32.5 78.5t78.5 32.5q45 0 78 -32.5t33 -78.5zM274 78q0 -46 -33 -78.5t-78 -32.5 q-46 0 -78.5 32.5t-32.5 78.5t32.5 78.5t78.5 32.5q45 0 78 -32.5t33 -78.5z" />
<glyph unicode="&#x202f;" horiz-adv-x="187" />
<glyph unicode="&#x2039;" horiz-adv-x="351" d="M335 104h-180l-139 236l139 236h180l-139 -236z" />
<glyph unicode="&#x203a;" horiz-adv-x="351" d="M17 104h180l139 236l-139 236h-180l139 -236z" />
<glyph unicode="&#x205f;" horiz-adv-x="234" />
<glyph unicode="&#xe000;" horiz-adv-x="740" d="M0 740h740v-740h-740v740z" />
<glyph horiz-adv-x="740" d="M0 0z" />
</font>
</defs>
</svg>
