<?xml version="1.0" standalone="no"?>
<!DOCTYPE svg PUBLIC "-//W3C//DTD SVG 1.1//EN" "http://www.w3.org/Graphics/SVG/1.1/DTD/svg11.dtd" >
<svg xmlns="http://www.w3.org/2000/svg">
<metadata></metadata>
<defs>
<font id="hetilicabold" horiz-adv-x="821" >
<font-face units-per-em="1000" ascent="750" descent="-250" />
<missing-glyph horiz-adv-x="220" />
<glyph horiz-adv-x="1000" />
<glyph horiz-adv-x="1000" />
<glyph unicode="&#xd;" horiz-adv-x="220" />
<glyph unicode=" "  horiz-adv-x="220" />
<glyph unicode="&#x09;" horiz-adv-x="220" />
<glyph unicode="&#xa0;" horiz-adv-x="220" />
<glyph unicode="!" horiz-adv-x="391" d="M350 745q18 0 27 -15v-13q-1 -5 -1.5 -11t-1.5 -11q-12 -105 -24.5 -208t-24.5 -208q-10 -18 -29 -31q-7 -5 -13.5 -9t-13.5 -8q-25 -15 -52 -25.5t-55 -18.5q-22 -6 -45 -10t-46 -2q-18 0 -27 15q0 8 1 13q0 5 0.5 11t1.5 12q12 104 24.5 207t24.5 208q10 18 30 32 q6 4 12.5 8t13.5 9q25 14 52 25t55 19q22 5 45 9.5t46 1.5zM300 112q3 -17 -11 -28q-5 -5 -9.5 -8.5t-9.5 -8.5q-22 -16 -46 -27.5t-50 -21.5q-25 -9 -51 -15t-53 -8q-21 -3 -43 5l-9 9v52q-3 17 11 28q5 5 9.5 8.5t9.5 8.5q22 16 46 28t50 21q25 9 51 15.5t53 8.5 q11 1 21.5 0t21.5 -6l9 -9v-52z" />
<glyph unicode="#" horiz-adv-x="939" d="M919 310q16 0 14 -13.5t-10.5 -30t-19 -31t-12.5 -17.5q-16 -18 -33 -34t-36 -30q-9 -6 -19.5 -12.5t-21.5 -9.5l-2 -14l-2 -14q-11 -20 -29 -32q-7 -5 -13.5 -9t-13.5 -8q-49 -28 -107 -44q-22 -6 -45 -10t-46 -1q-19 0 -27 14v6.5t1 6.5q3 26 6.5 51.5t7.5 51.5h-117 q-1 -7 -1.5 -13t-1.5 -13q-11 -20 -30 -32q-7 -5 -13 -9t-13 -8q-49 -28 -107 -44q-22 -6 -45.5 -10t-46.5 -1q-19 0 -27 14q1 3 1 6.5v6.5q4 26 7.5 51.5t6.5 51.5h-130q-16 0 -14 13.5t10.5 30t19 31t12.5 17.5q16 18 33 34t36 30q12 8 26.5 16t28.5 8h1h2q2 20 5 39t5 39 h-139q-16 0 -14.5 13.5t10.5 30t19.5 31t12.5 17.5q15 17 32 33t37 30q11 8 25.5 16t29.5 8h12l3 27q12 20 30 32q7 4 13 8t13 9q26 14 52.5 25t54.5 19q22 6 45.5 10t46.5 1q18 0 27 -14q0 -4 -0.5 -7t-0.5 -7q-4 -26 -7 -51.5t-7 -51.5h112h4q1 7 2 13.5t2 13.5 q5 10 12.5 17.5t16.5 14.5q7 4 13.5 8t13.5 9q25 14 52 25t55 19q22 6 45 10t46 1q18 0 27 -14q0 -9 -1 -14q-3 -26 -6.5 -51.5t-7.5 -51.5h105q16 0 14 -13.5t-10.5 -30t-19.5 -31t-13 -16.5q-31 -38 -68 -64q-7 -5 -15 -10t-16 -9q-3 -20 -6 -41l-6 -42h114zM429 388 q-2 -20 -5 -39t-5 -39h116q3 20 5.5 39t5.5 39h-117z" />
<glyph unicode="$" horiz-adv-x="351" d="M302 360h5.5t10 -1t9.5 -2.5t4 -5.5q-1 -33 -11.5 -66t-25.5 -62q-8 -14 -16.5 -27t-21.5 -23q-13 -9 -27 -16t-28 -12t-29.5 -9t-29.5 -4h-31h-16.5t-12.5 8q-3 8 4.5 14.5t12.5 10.5q10 8 21 13l22 10q3 6 5.5 12t5.5 12q7 17 12.5 35.5t8.5 38.5h-125h-6.5t-9.5 0.5 t-9 2.5t-4 5q1 33 11.5 66t25.5 62q7 14 16 27.5t22 23.5q12 9 26.5 15.5t28.5 11.5t29.5 9.5t29.5 4.5h31h15.5t13.5 -8q2 -8 -5 -15t-12 -10q-10 -8 -21 -13.5t-23 -10.5q-2 -5 -5 -11t-5 -12q-7 -18 -13 -36.5t-8 -37.5h125zM181 539q-2 -1 -11 -3.5t-20 -4.5t-19.5 -2 t-8.5 6v180q0 7 5.5 13t13 10.5t15.5 7.5t13 5q2 1 11.5 3.5t20.5 4.5t19.5 2t8.5 -6v-181q0 -7 -5.5 -12.5t-13 -10t-16 -7.5t-13.5 -5zM169 107q2 1 11.5 3.5t20.5 4.5t19.5 2t8.5 -6v-181q0 -7 -5.5 -12.5t-13 -10t-16 -7.5t-13.5 -5q-2 -1 -11 -3.5t-20 -4.5t-19.5 -2 t-8.5 6v180q0 7 5.5 13t13 10.5t15.5 7.5t13 5z" />
<glyph unicode="%" horiz-adv-x="956" d="M936 283q3 -22 3 -47t-10 -45q-16 -32 -43 -50q-39 -28 -85.5 -47.5t-94.5 -26.5q-22 -4 -46 -5.5t-45 9.5q-10 5 -17.5 12t-13.5 15q-14 18 -22 39t-12 43q-3 22 -2.5 47t9.5 46l2 2q-6 -5 -11.5 -10t-11.5 -10q-67 -60 -133.5 -120t-134.5 -121q-12 -11 -34.5 -12.5 t-37.5 -1.5q-29 0 -58 4t-57 12q-6 1 -26.5 8t-40.5 17t-30.5 22t3.5 25q5 5 9 8.5t9 8.5q72 64 142 127t142 127q-55 -26 -113 -35q-22 -3 -46.5 -4.5t-44.5 8.5q-10 5 -17.5 12.5t-13.5 15.5q-14 17 -22.5 38.5t-11.5 43.5t-3 47t10 45q16 32 43 50q39 28 85.5 47.5 t94.5 26.5q22 4 46 5.5t45 -9.5q10 -5 17.5 -12t13.5 -15q14 -18 22 -39t12 -43q2 -19 2.5 -39.5t-4.5 -39.5q54 49 107.5 97t107.5 96q12 11 34.5 13t37.5 2q29 0 58 -4t57 -12q6 -2 26.5 -8.5t40.5 -16.5t30.5 -22.5t-3.5 -25.5q-5 -4 -9 -8t-9 -8q-61 -55 -121.5 -109 t-121.5 -109q33 19 69 32t72 18q22 3 46.5 4.5t44.5 -8.5q10 -5 17.5 -12.5t13.5 -15.5q14 -17 22 -38.5t12 -43.5z" />
<glyph unicode="&#x26;" horiz-adv-x="907" d="M1010 -31q15 -12 7 -26.5t-25 -27.5t-36.5 -23t-27.5 -13q-26 -11 -54 -21t-56 -14q-16 -2 -29.5 -3.5t-29.5 0.5q-5 2 -8.5 3t-8.5 3q-57 44 -112 89t-109 91q-29 -11 -55.5 -19.5t-55.5 -15.5q-53 -15 -105.5 -23t-107.5 -3q-32 0 -64 8.5t-58 23.5q-25 15 -43.5 37.5 t-27 49t-5.5 54.5t21 54q26 41 65 71.5t80 56.5q7 5 15 9t14 9q-6 8 -14 17.5t-15 20.5q-11 15 -22 32t-16 35q-4 17 -2.5 34.5t5.5 34.5q5 23 16 43.5t28 35.5q35 35 79 59.5t90 39.5q44 17 89 26.5t91 14.5q63 9 126 0q24 -5 48.5 -11t44.5 -21q15 -14 27 -29t14 -35 q0 -48 -27 -88q-26 -35 -61 -60t-73 -47q-24 -14 -48 -25l-48 -22l9 -9q15 -17 32.5 -33t34.5 -34q7 16 25.5 28t29.5 19q53 26 111 44q7 2 28.5 7t43.5 6t37.5 -5t9.5 -26q-17 -63 -50.5 -115.5t-80.5 -96.5q64 -55 127 -107t127 -103zM477 481q12 21 17 47q0 21 -14 44 l-22 12t-22 11q-5 0 -10 1.5t-10 1.5q0 -7 -1.5 -13t-1.5 -10q0 -24 9 -44.5t23 -40.5q5 -7 8.5 -11t5.5 -9q2 0 4.5 1.5t4.5 1.5l3 3h3q0 2 1.5 2.5t1.5 2.5zM381 106q8 -2 18.5 -4t19.5 -2h5h15q-39 33 -76.5 67.5t-74.5 72.5q0 -5 -1.5 -7.5t-1.5 -7.5q0 -22 9.5 -44.5 t25.5 -39.5q24 -26 61 -35z" />
<glyph unicode="'" horiz-adv-x="456" d="M398 690q11 -5 24.5 -14.5t13.5 -24.5q0 -36 -10 -71.5t-28 -67.5t-43 -59t-55 -45q-17 -10 -35.5 -12t-37.5 -2q-29 0 -57.5 4t-57.5 12q-22 5 -44 13.5t-41 22.5l-7.5 7.5t-6.5 9.5t-1.5 10t7.5 9q43 27 74 70q21 33 34 72.5t13 78.5q0 7 6 11.5t14.5 7t16.5 4t12 1.5 q26 3 53.5 1.5t53.5 -6.5t52 -12.5t50 -19.5z" />
<glyph unicode="(" horiz-adv-x="386" d="M330 -7q4 -1 10 -3t12 -5t10 -7.5t4 -10.5t-4 -10t-10 -7t-12 -5t-10 -3q-20 -7 -42 -9t-44 -2q-45 0 -91 9.5t-83 38.5q-18 15 -28.5 34t-15 41t-5.5 45t-1 44v449q0 26 4 49.5t15 46.5q8 17 20 29.5t29 23.5q33 22 75.5 28.5t80.5 7.5q22 0 44 -2.5t42 -8.5q4 -1 10 -3 t12 -5.5t10 -7.5t4 -10t-4 -10t-10 -7.5t-12 -5.5t-10 -3q-6 -2 -12.5 -3t-12.5 -3q-2 0 -2 -1q-17 -13 -28 -35q-13 -33 -12.5 -69.5t0.5 -71.5v-180v-178q0 -35 -0.5 -70.5t12.5 -67.5q11 -21 28 -35l2 -1q13 -2 25 -6z" />
<glyph unicode=")" horiz-adv-x="386" d="M315 730q19 -15 29 -34.5t15 -41.5t6 -44.5t1 -44.5v-448q0 -26 -4 -49.5t-15 -46.5q-8 -17 -20.5 -29.5t-28.5 -23.5q-33 -23 -75.5 -29.5t-80.5 -6.5q-22 0 -44 2.5t-42 8.5q-4 1 -10 3t-12 5t-10 7.5t-4 10.5t4 10t10 7t12 5t10 3q12 5 25 6l2 2q17 13 27 34 q14 34 13.5 70.5t-0.5 71.5v179v179q0 35 0.5 70t-12.5 68q-5 10 -12 18.5t-16 15.5l-2 2q-14 2 -25 6q-4 1 -10 3t-12 5t-10 7t-4 10t4 10.5t10 7.5t12 5t10 3q20 6 42 8.5t44 2.5q45 0 91 -9.5t82 -38.5z" />
<glyph unicode="*" horiz-adv-x="551" d="M531 412q11 0 10 -9.5t-7.5 -21t-14.5 -22t-9 -12.5q-21 -26 -48 -45q-3 -2 -5.5 -3.5t-5.5 -3.5l28 -28q5 -6 1 -15.5t-6 -14.5q-8 -14 -17.5 -26t-21.5 -24q-11 -11 -22.5 -20t-25.5 -17q-5 -3 -15 -7t-15 2q-7 7 -14 13.5t-14 14.5q-2 -3 -3.5 -5.5t-3.5 -5.5 q-19 -26 -45 -49q-2 -2 -12.5 -9.5t-22 -13.5t-21 -7t-9.5 10v101v54q-31 -30 -61 -61q-11 -11 -23 -20t-26 -17q-5 -3 -14.5 -7t-15.5 2t-2 16t7 15q8 14 17 25.5t20 22.5q15 15 30.5 30t30.5 31h-155q-11 0 -10 9.5t7 21t13.5 22t9.5 12.5q20 24 49 45q3 2 5.5 3.5 t5.5 3.5q-8 7 -14.5 14t-13.5 14q-6 6 -2 15.5t7 14.5q8 14 17 26t20 23q24 24 49 38q5 3 15 7t16 -2q7 -7 13.5 -14t14.5 -14q2 5 7 11q19 26 45 49q2 1 12.5 8.5t22 14t21 7.5t9.5 -10v-101v-54q15 15 30.5 30t29.5 30q24 24 49 38q5 3 15 7t16 -2q5 -6 1 -16l-6 -15 q-14 -26 -39 -49l-29 -29t-30 -31h155v0z" />
<glyph unicode="+" horiz-adv-x="506" d="M486 404q10 0 9 -8.5t-7 -19t-13 -20t-8 -11.5q-20 -23 -44 -41q-8 -5 -17 -10.5t-19 -5.5h-76v-76q0 -9 -5.5 -18.5t-10.5 -17.5q-8 -12 -19 -23t-22 -21q-2 -2 -11.5 -8.5t-20 -12.5t-19 -7t-8.5 9v92v83h-175q-10 0 -9 8.5t6.5 19.5t12 20.5t8.5 11.5q21 24 45 41 q7 5 16 10t19 5h77v77q0 10 5 19t10 16q17 24 41 45q2 1 11.5 8t20.5 12.5t19.5 6.5t8.5 -9v-92v-83h175v0z" />
<glyph unicode="," horiz-adv-x="362" d="M304 160q11 -5 24.5 -14.5t13.5 -24.5q0 -36 -10 -71.5t-28 -67.5t-43 -59t-55 -45q-17 -10 -36 -12t-37 -2q-29 0 -58 4t-57 12q-22 5 -44.5 13.5t-40.5 22.5l-7.5 7.5t-7 9.5t-1.5 10t7 9q44 26 75 70q21 33 34 72.5t13 78.5q0 7 6 11.5t14.5 7t16.5 4t12 1.5 q26 3 53.5 1.5t53.5 -6.5t52 -12.5t50 -19.5z" />
<glyph unicode="-" horiz-adv-x="611" d="M72 327h-12.5t-15.5 1t-14.5 4t-9.5 10t0 13.5t8.5 12.5t11.5 11t10 8q22 16 46 28t50 21q24 8 51 16t53 8h6h283h13t16 -1t14.5 -4t8.5 -10q3 -7 0 -13.5t-8.5 -12.5t-11.5 -11t-10 -8q-22 -16 -46 -28t-49 -21q-24 -9 -51.5 -16.5t-53.5 -7.5h-6h-283v0z" />
<glyph unicode="." horiz-adv-x="362" d="M304 161q4 -2 11 -6t14 -9.5t11 -11.5t2 -12q-7 -26 -13 -52t-13 -52q-2 -7 -7.5 -11t-13 -6.5t-15 -4t-13.5 -1.5q-26 -3 -53.5 -1.5t-53.5 6.5t-52 12.5t-50 19.5l-11 5.5t-13.5 9t-11 11.5t-2.5 13q7 26 13.5 51.5t12.5 51.5q4 14 21 18t28 5q26 4 53.5 2t53.5 -7 t52 -12t50 -19z" />
<glyph unicode="/" horiz-adv-x="673" d="M653 675q1 -1 8.5 -5t15 -9.5t12.5 -12t1 -12.5l-198 -297l-107 -160.5l-107 -160.5q-6 -16 -24 -19q-6 -2 -12 -2.5t-13 -2.5q-26 -3 -53.5 -1t-53.5 7t-52 12t-50 19q-2 1 -9.5 5.5t-15 10t-12 12t-1.5 11.5l198 297l107 160.5l107 160.5q7 16 25 19q6 2 12 2.5t12 2.5 q27 3 54 1.5t53 -6.5t52.5 -12.5t50.5 -19.5z" />
<glyph unicode="0" horiz-adv-x="673" d="M680 381q2 -14 4.5 -28.5t2.5 -28.5q0 -100 -60 -176q-20 -26 -47 -47.5t-56 -36.5q-55 -29 -116 -50.5t-124 -23.5q-36 -1 -72 4.5t-68 23.5q-28 15 -50.5 38t-39.5 49q-26 42 -38.5 89.5t-16.5 97t-1 99t8 96.5q3 26 16 48t31 41t39.5 34t43.5 27q35 19 73.5 35t79 27 t81.5 15t82 -1q32 -3 62.5 -14t54.5 -33q21 -19 38 -41.5t28 -48.5q14 -32 23 -66t14 -69l4 -30zM282 521q-3 -44 -2 -91.5t9.5 -93.5t26 -88.5t49.5 -76.5q13 -14 26 -21q5 14 8 29t5 30q1 20 -2 39t-5 39q-3 22 -6 43.5t-8 42.5q-9 45 -25 88.5t-48 78.5q-5 5 -11.5 9.5 t-12.5 9.5q-2 -10 -2.5 -19t-1.5 -19z" />
<glyph unicode="1" horiz-adv-x="448" d="M446 704q15 -7 9 -22q-5 -44 -9 -87.5t-9 -87.5q-11 -105 -21.5 -208.5t-21.5 -209.5q-10 -19 -30 -31q-26 -20 -58 -34t-69 -26.5t-72 -12.5h-13t-16 1t-14.5 4t-9.5 10q-2 9 2 14q4 44 8 86.5t9 86.5q7 67 13.5 133.5t14.5 132.5q-9 -4 -18 -7t-17 -7q-26 -9 -52 -15.5 t-53 -8.5h-13t-16 1t-14.5 4.5t-8.5 9.5q-3 7 0 13.5t8.5 12.5t11.5 11t10 8l207 162q35 27 80 44t88 25q17 3 37.5 4.5t36.5 -6.5z" />
<glyph unicode="2" horiz-adv-x="658" d="M682 222q19 0 17.5 -16.5t-12.5 -37t-24 -39t-16 -21.5q-19 -22 -40 -42t-45 -37q-14 -10 -31.5 -19.5t-36.5 -9.5h-20h-417q-12 0 -15.5 6.5t-1.5 16.5t8 22.5t13 24.5q2 5 5 9.5t6 8.5q1 0 2 1q7 10 11.5 16t6.5 8q13 15 26.5 29t28.5 27q35 39 68 79t62 82 q14 22 25 44t14 48q1 33 -6.5 66.5t-27.5 59.5q-7 -25 -8 -45q2 -16 -12 -27q-5 -4 -9.5 -8t-9.5 -9q-21 -16 -45.5 -27.5t-49.5 -20.5t-51.5 -15.5t-52.5 -8.5q-2 0 -10.5 -0.5t-18 1t-17 4.5t-7.5 10q2 32 9 62q8 33 23.5 63.5t38.5 55.5q26 27 58.5 48t67.5 36 q48 21 100.5 36.5t106.5 14.5q25 0 50.5 -3.5t48 -12t42 -23t34.5 -36.5q17 -26 23.5 -56.5t4.5 -60.5q-1 -14 -1.5 -28t-5.5 -28q-4 -12 -9.5 -23t-12.5 -22q-21 -35 -45.5 -67t-50.5 -64q-15 -18 -30 -36.5t-31 -35.5h270v0z" />
<glyph unicode="3" horiz-adv-x="710" d="M723 420q1 -29 -2.5 -57.5t-8.5 -56.5q-7 -32 -17 -62.5t-25 -59.5q-24 -44 -57.5 -77t-76.5 -58q-50 -29 -113 -50.5t-126.5 -26t-122.5 14t-101 71.5q-26 32 -40.5 72.5t-16.5 81.5q-1 15 9 25.5t21 19.5q22 16 46 27.5t50 21.5q25 9 51 15.5t53 8.5h11t17 -1 t16.5 -4.5t7.5 -9.5q2 -44 19 -87.5t46 -75.5q17 -16 35 -26q19 38 28.5 80t13.5 84q1 19 0 39q0 2 -0.5 4t-0.5 4h-38h-66q-4 0 -14.5 0.5t-21 3t-16 8t0.5 16.5q10 17 16 34t8 36q2 33 -6 66t-28 59l-4 -22l-4 -22q2 -17 -11 -28q-5 -4 -9.5 -8t-9.5 -8q-22 -17 -46 -28.5 t-50 -20.5q-25 -9 -51 -15.5t-53 -8.5h-10.5t-18 1t-16.5 4.5t-7 9.5q2 35 10 69t26 64q20 34 48 60t61 46.5t69.5 35t73.5 24.5q40 11 82.5 16t84.5 -1q23 -4 45.5 -11.5t40.5 -21.5q29 -22 44.5 -52.5t19.5 -65.5q2 -17 2 -33t-2 -33q-3 -23 -10 -41h75h17t20 -1.5 t17.5 -6t10.5 -13.5q4 -12 4 -29z" />
<glyph unicode="4" horiz-adv-x="590" d="M569 709q19 0 27 -14q0 -3 -0.5 -6.5t-0.5 -6.5l-18 -174q-2 -17 -3.5 -34.5t-3.5 -34.5l1 -1q2 -7 -3 -18q-8 -83 -16.5 -165t-17.5 -165q-11 -20 -29 -32q-14 -10 -28.5 -18.5t-30.5 -15.5q-32 -14 -69 -26.5t-72 -12.5h-13t-16 1t-14.5 4t-8.5 10q-3 6 1 15q5 43 9 86 t9 86q3 34 6.5 67t6.5 66h-265h-10.5t-18 1t-16.5 4t-7 10q2 52 4 103t4 103q-2 17 12 28q5 5 9.5 8.5t9.5 8.5q21 16 45.5 28t49.5 21q26 9 52 15.5t53 8.5h10.5t18 -1t16.5 -4.5t7 -9.5q-2 -48 -4 -95.5t-4 -95.5h48q4 38 7.5 76t7.5 76q6 10 13 18t17 14q7 5 13 9t13 8 q52 29 107 44q22 6 45.5 10t46.5 1z" />
<glyph unicode="5" horiz-adv-x="708" d="M723 456q4 -12 4 -29q1 -55 -11 -113q-6 -32 -16 -62.5t-26 -59.5q-46 -86 -134 -136q-50 -29 -112.5 -50.5t-126.5 -25.5t-123 14.5t-101 71.5q-25 32 -40 72t-17 81q-1 16 9 26.5t22 18.5q21 16 45.5 28t49.5 21t51.5 15.5t52.5 8.5h11.5t17.5 -1t16.5 -4t7.5 -10 q2 -44 19 -87.5t46 -75.5q15 -16 35 -26q18 38 28 80.5t13 84.5q2 18 0 38q0 6 -1 9h-387h-10.5t-18 1t-16.5 4t-7 9q4 57 7.5 114t8.5 114q-3 17 11 28q5 5 9.5 8.5t9.5 8.5q14 10 28.5 18t29.5 16q32 14 69 26.5t73 12.5h20h418h12.5t15.5 -1t14.5 -4t9.5 -10q2 -7 -1 -14 t-8 -13t-11.5 -10.5t-10.5 -7.5q-21 -17 -45.5 -28.5t-49.5 -20.5q-24 -9 -51 -16.5t-53 -7.5h-21h-195q-2 -24 -3 -47.5t-3 -47.5h371q7 0 17 0.5t19.5 -1t17 -6t10.5 -14.5zM466 345q21 -5 21.5 -2.5t-10.5 2.5h-11z" />
<glyph unicode="6" horiz-adv-x="664" d="M644 394q19 -35 26.5 -75t1.5 -80q-3 -19 -12 -36.5t-20 -33.5q-9 -14 -18.5 -27t-21.5 -24q-17 -17 -35.5 -30.5t-38.5 -26.5q-33 -20 -69 -34.5t-73 -25.5q-26 -8 -53 -13t-53 -6q-28 -1 -54 2t-52 13q-32 12 -57 34t-44 50.5t-32.5 60t-22.5 62.5q-12 38 -20 77.5 t-11 80.5v5v1q0 20 0.5 41t3.5 42t9 40.5t18 37.5q40 63 108 98q50 26 102.5 45.5t109.5 27.5q38 5 76 6t78 -1q21 -2 41 -4.5t40 -9.5q8 -2 16 -7t10 -13q3 -10 -2 -18t-10 -15q-14 -17 -36 -29.5t-42 -20.5q-52 -25 -110 -36q-17 -3 -37.5 -4.5t-36.5 6.5q-10 6 -10 13 q0 1 -1 1q-8 2 -16 2.5t-16 1.5q-8 -23 -10 -49q-1 -8 -1 -14.5t-1 -14.5h1q53 8 108 12.5t109 -5.5q25 -5 50 -12.5t45 -23.5q19 -14 35.5 -32t27.5 -39zM315 577l1 1v1q0 -1 -1 -2zM283 362q2 -4 2.5 -8t1.5 -9q13 -51 33.5 -100.5t55.5 -88.5q8 -6 11 -9q2 5 3 10t2 11 q2 44 -13.5 87t-44.5 75q-23 22 -51 32z" />
<glyph unicode="7" horiz-adv-x="629" d="M660 435q3 -7 0 -13.5t-8.5 -12.5t-11.5 -11t-10 -8q-17 -13 -35.5 -22.5t-38.5 -17.5q-7 -66 -13.5 -131.5t-13.5 -131.5q-11 -20 -29 -32q-14 -10 -28.5 -18t-30.5 -15q-32 -15 -69 -27t-72 -12q-5 0 -13 -0.5t-16 0.5t-14.5 4t-8.5 10q-3 6 1 15q5 44 9 86.5t9 86.5 q3 33 6.5 66t6.5 66h-170h-13t-16 1t-14.5 4t-8.5 10q-3 7 0 14t8.5 13t11.5 10.5l10 7.5q22 17 46 28.5t49 20.5q24 9 51.5 16.5t53.5 7.5h6q3 31 6 61.5t6 62.5q-83 -2 -165 -3.5t-165 -3.5h-13t-16 1t-14.5 4t-8.5 10q-3 7 0 13.5t8.5 12.5t11.5 11t10 8q22 16 46 28 t50 21q24 9 51 16t53 8q97 2 192.5 3.5t192.5 3.5q21 3 43 -5q14 -8 8 -23l-18 -174q-2 -14 -3 -27.5t-3 -27.5h42h13t16 -1t14.5 -4t8.5 -10z" />
<glyph unicode="8" horiz-adv-x="706" d="M720 313q6 -39 0 -77q-4 -19 -13.5 -36.5t-20.5 -33.5q-45 -67 -116 -107q-67 -39 -142 -59q-26 -8 -53 -13t-53 -5q-33 -1 -65.5 3.5t-62.5 18.5q-22 10 -39.5 25t-32.5 33q-27 33 -42.5 73.5t-24.5 82.5q-6 30 -4.5 61t16.5 59q16 28 39 51q-15 8 -31 21t-30 26.5 t-25 30.5q-10 14 -14 28t-2 32q1 16 11 30.5t23.5 27t28.5 22.5l27 18q50 30 107 50t114 28q41 7 82.5 9t82.5 -5q30 -5 60 -13.5t56 -25.5q17 -12 35 -29.5t20 -40.5q2 -27 -7 -49.5t-26 -42.5q-10 -12 -22 -22q1 -1 3 -1q23 -9 41 -24q33 -28 53.5 -65.5t26.5 -80.5z M332 362q0 -25 6.5 -50t14.5 -48q9 -29 23 -56t34 -50q10 -10 23 -18q2 7 4 13.5t3 14.5q2 44 -12 87t-43 75q-11 10 -23.5 18t-26.5 13q-1 1 -3 1zM288 615q0 -15 3.5 -29.5t8.5 -27.5q11 -35 33 -62q4 -2 7 -5t7 -5q2 4 2.5 8t1.5 8q1 26 -7 50.5t-25 43.5q-14 13 -29 18 q-1 0 -2 1z" />
<glyph unicode="9" horiz-adv-x="668" d="M679 333q-1 -20 -1.5 -41.5t-3 -42.5t-8.5 -40.5t-18 -37.5q-40 -61 -109 -98q-49 -26 -102 -45.5t-109 -27.5q-39 -5 -77 -5.5t-77 1.5q-44 2 -81 13q-8 2 -16 7.5t-10 13.5q-3 10 1.5 17.5t10.5 15.5q14 17 36 29t41 21q26 12 54 21t57 14q16 3 37 5t37 -6q8 -5 10 -14 h1q8 -2 16 -3l16 -2q4 12 6 24.5t4 25.5q1 8 1 14.5v14.5q-53 -9 -108.5 -13.5t-108.5 5.5q-26 5 -50.5 13t-45.5 23q-39 30 -62 71q-19 35 -27 75.5t-1 79.5q3 20 11.5 37t19.5 33q10 14 19.5 27t20.5 24q35 34 75 58q33 20 69 34.5t73 25.5q25 8 52.5 12.5t53.5 6.5 q27 1 53.5 -2t52.5 -13q32 -12 57 -34.5t43.5 -50.5t32.5 -60t23 -62q12 -38 20 -78t11 -80v-6zM208 586h1q-17 -3 -12.5 -2t11.5 2zM272 533q-2 -44 13.5 -87t44.5 -75q22 -21 50 -33q-1 5 -1.5 9t-2.5 8q-12 51 -32.5 100.5t-56.5 88.5l-5 5t-6 5q-2 -5 -2.5 -10.5 t-1.5 -10.5zM348 123l-1 -1q1 0 1 1z" />
<glyph unicode=":" horiz-adv-x="413" d="M304 161q4 -2 11 -6t13.5 -9.5t10.5 -11.5t3 -12q-7 -26 -13 -52t-13 -52q-4 -14 -21 -18t-28 -5q-26 -3 -53.5 -1.5t-53.5 6.5t-52 12.5t-50 19.5l-11 5.5t-13.5 9t-11 11.5t-2.5 13q7 26 13 51.5t13 51.5q4 14 21 18t28 5q26 4 53.5 2t53.5 -7t52 -12t50 -19zM356 573 l11 -5.5t13.5 -9t10.5 -11.5t2 -13q-6 -26 -12.5 -51.5t-12.5 -51.5q-4 -14 -21 -18t-28 -6q-27 -3 -54 -1.5t-53 6.5t-52.5 12.5t-50.5 19.5l-11 5.5t-13.5 9t-10.5 11.5t-2 13q6 26 12.5 51.5t12.5 51.5q4 14 21 18t28 6q27 3 54 1t53 -7t52.5 -12t50.5 -19z" />
<glyph unicode=";" horiz-adv-x="413" d="M356 573l11 -5.5t13.5 -9t10.5 -11.5t2 -13q-6 -26 -12.5 -51.5t-12.5 -51.5q-4 -14 -21 -18t-28 -6q-27 -3 -54 -1.5t-53 6.5t-52.5 12.5t-50.5 19.5l-11 5.5t-13.5 9t-10.5 11.5t-2 13q6 26 12.5 51.5t12.5 51.5q4 14 21 18t28 6q27 3 54 1t53 -7t52.5 -12t50.5 -19z M355 161q11 -5 24.5 -14.5t13.5 -24.5q0 -36 -10 -71.5t-28 -67.5t-43 -59t-55 -45q-17 -10 -36 -12t-37 -2q-29 0 -58 4t-57 12q-22 5 -44.5 13.5t-40.5 22.5l-7.5 7.5t-7 9.5t-1.5 10t7 9q44 26 75 70q21 33 34 72.5t13 78.5q0 7 6 11.5t14.5 7t16.5 4t12 1.5 q26 3 53.5 1.5t53.5 -6.5t52 -12.5t50 -19.5z" />
<glyph unicode="&#x3c;" horiz-adv-x="590" d="M558 658q7 -4 14.5 -12t-2.5 -17q-3 -2 -9 -8q-75 -67 -148.5 -133t-148.5 -133q61 -69 121 -136.5t121 -136.5q10 -12 -0.5 -20t-28 -13.5t-35 -8.5t-21.5 -3q-49 -3 -94 4q-13 2 -29.5 6.5t-26.5 15.5q-63 71 -125.5 141.5t-125.5 141.5q-9 10 0 20q3 2 9 8 q78 69 154 137.5t153 137.5q11 10 26 14.5t30 7.5q46 8 93 3q19 -2 37.5 -5t35.5 -11z" />
<glyph unicode="=" horiz-adv-x="579" d="M20 407q-16 0 -14 13.5t10.5 30t19.5 31t13 17.5q15 18 32 34t36 29q12 8 26.5 16.5t28.5 8.5h1h386q16 0 14 -13.5t-10.5 -30t-19.5 -31t-13 -17.5q-31 -38 -68 -64q-12 -8 -26.5 -16t-28.5 -8h-1h-386zM559 381q16 0 14 -13.5t-10.5 -30t-19.5 -31t-13 -17.5 q-31 -38 -68 -64q-12 -8 -26.5 -16t-28.5 -8h-1h-386q-16 0 -14 13.5t10.5 30t19.5 31t13 17.5q29 35 68 63q12 8 26.5 16.5t28.5 8.5h1h386z" />
<glyph unicode="&#x3e;" horiz-adv-x="591" d="M571 346q-2 -2 -4.5 -4t-5.5 -4q-77 -69 -153 -137.5t-153 -137.5q-11 -11 -26 -15.5t-30 -6.5q-44 -7 -94 -4q-18 2 -36.5 5.5t-35.5 11.5q-7 4 -14.5 12t1.5 16q4 3 10 9q75 66 148.5 132.5t148.5 133.5q-61 69 -121 136.5t-121 135.5q-11 12 -0.5 20.5t28 13.5t35.5 8 t22 3q47 5 94 -3q13 -2 29.5 -6.5t26.5 -15.5q63 -72 125.5 -142t125.5 -141q9 -10 0 -20z" />
<glyph unicode="?" horiz-adv-x="600" d="M580 655q22 -26 25.5 -59.5t0.5 -66.5l-4 -26t-7 -26q-4 -14 -14 -31q-9 -14 -18 -28.5t-21 -25.5q-41 -36 -87 -60v-75q0 -16 -9.5 -26t-21.5 -19q-21 -16 -45.5 -28t-49.5 -21t-51.5 -15.5t-52.5 -8.5h-11.5t-17.5 1t-16.5 4.5t-7.5 9.5v129q0 16 9.5 26t21.5 19 q14 10 28.5 18t29.5 16q21 9 45 18q3 7 6 14.5t5 15.5q7 23 8 44q2 26 -4 52t-23 46q-17 -33 -24 -69q-10 -19 -29 -32q-7 -4 -13 -8t-13 -9q-26 -14 -52.5 -25t-54.5 -19q-22 -5 -45.5 -9.5t-46.5 -1.5q-14 2 -21.5 8t-4.5 20q5 26 15 50.5t24 47.5q17 29 38.5 53t48.5 44 q43 33 96 56q36 15 73.5 28t76.5 18q27 4 57 5.5t58.5 -2.5t54 -16t44.5 -36zM400 103q8 -2 21.5 -8.5t13.5 -17.5v-52q0 -11 -13.5 -17t-21.5 -8q-21 -7 -43 -9t-43 -2q-22 0 -44 2t-42 9q-4 1 -10 3t-12 5t-10 7t-4 10v52q0 6 4 10t10 7.5t12 5.5t10 3q20 6 42 8t44 2 q21 0 43 -2t43 -8z" />
<glyph unicode="@" horiz-adv-x="988" d="M912 133q10 7 23.5 15.5t25.5 13.5t21 4t10 -14q0 -14 -8 -29t-16 -26q-14 -19 -30 -37t-34 -32q-60 -47 -126.5 -77.5t-139.5 -47.5q-57 -14 -116.5 -23.5t-118.5 -3.5q-46 4 -93.5 17.5t-91 35.5t-81.5 52.5t-65 69.5q-26 35 -41.5 78.5t-10.5 88.5q5 63 31.5 121 t61.5 109q44 66 100 122.5t120 103.5q49 35 104 63.5t115 42.5q51 12 103.5 14t103.5 -14q45 -14 84.5 -38t68.5 -62q28 -36 43 -80.5t13 -89.5q-2 -56 -21 -107q-21 -54 -58 -96.5t-82 -77.5q-43 -32 -91.5 -42.5t-100.5 -4.5q-35 4 -69 11t-69 11q-14 -7 -28.5 -13.5 t-28.5 -12.5q-24 -10 -51 -18t-53 -11q53 -40 118 -66q66 -25 136 -29q31 -2 61.5 1t60.5 8q74 12 143 36q10 3 19 6.5t18 7.5q2 1 3 1t3 1q2 2 4.5 2.5t5.5 2.5q10 4 20 11q1 0 1.5 0.5t1.5 0.5q3 3 5 4q5 4 4 3t-8 -6zM201 382q-7 -50 10 -102q2 -5 4.5 -10t4.5 -10 q11 43 34 81.5t52 70.5q23 27 49.5 52.5t56.5 46.5t63.5 35t70.5 18q49 6 94 -9q10 -4 20.5 -7.5t18.5 -11.5q4 -4 4 -10t-1.5 -12.5t-4.5 -12.5t-5 -9q-11 -19 -24.5 -36t-28.5 -32q-16 -15 -32.5 -29t-36.5 -24q-7 -4 -21 -9.5t-22 2.5q-4 4 -9 6.5t-10 4.5q-22 8 -46 10 t-47 0v-1q-2 -19 2 -33q6 -11 18 -19q14 -4 28 -4t28 2q13 2 25 5.5t24 8.5l10 4l10 4q3 2 7 3.5t6 2.5q8 4 14.5 7t13.5 8q14 8 27 10t29 0q38 -6 75.5 -14t75.5 -10q1 45 -14 90q-21 51 -60 88t-90 57q-42 15 -86 18.5t-89 -3.5q-15 -2 -30 -6t-29 -9l-33 -12l-2 -2 q-4 -2 -7.5 -3.5t-7.5 -3.5q-7 -4 -14 -7.5t-14 -7.5q0 -1 -1 -1q-3 -2 -6.5 -4.5t-7.5 -4.5q-2 -2 -8 -6q0 -2 -2 -2q-2 -2 -4.5 -4t-4.5 -4l-16 -16q-1 -2 -5 -6q0 -1 -1 -2q-2 -4 -5 -7t-5 -7l-3 -6q-1 -1 -3 -5q-5 -8 -9 -16.5t-8 -16.5q-1 0 -1 -1l-6 -15 q-5 -13 -9 -25.5t-6 -26.5z" />
<glyph unicode="A" horiz-adv-x="690" d="M701 106q2 -7 -1 -13.5t-8 -12.5t-11.5 -11t-10.5 -8q-21 -16 -45.5 -27.5t-49.5 -20.5q-25 -10 -51.5 -16t-52.5 -8q-5 0 -12.5 -0.5t-16 1t-15 4.5t-8.5 10q-10 32 -19 65t-19 66q-7 25 -14 49.5t-14 49.5h-127q-11 -35 -21 -70.5t-20 -70.5q-5 -16 -24 -28.5 t-32 -20.5q-25 -14 -52 -25t-55 -19q-6 -2 -27.5 -6.5t-43 -5.5t-37 4.5t-10.5 24.5q35 120 70.5 238.5t79.5 235.5q6 15 11.5 30t12.5 29q16 34 46 58q28 23 59 42t64 35t69.5 28.5t72.5 17.5q25 4 51.5 5.5t49.5 -9.5q23 -10 32.5 -33.5t17.5 -45.5q10 -28 18.5 -55.5 t17.5 -56.5q33 -107 64 -214t61 -216zM230 603h1h-1zM339 326q-8 25 -15 50t-15 51q-5 14 -8.5 28t-8.5 28q-8 -26 -16.5 -51t-16.5 -50l-18 -57q5 1 8.5 1h8.5h81z" />
<glyph unicode="B" horiz-adv-x="673" d="M695 615q-14 -22 -31.5 -39t-38.5 -34q-38 -31 -80.5 -56t-87.5 -47q43 -2 83 -6q28 -4 58 -9.5t55 -19.5q20 -11 28.5 -30.5t-5.5 -40.5q-27 -41 -65 -70.5t-80 -55.5t-84.5 -48.5t-87.5 -43.5q-51 -25 -102.5 -47t-104.5 -42l-24 -9q-2 0 -3 -1h-1q-14 -5 -27.5 -9 t-27.5 -7q-28 -5 -50 -5h-10.5t-11.5 2h-3q0 1 -1 1h-1q-11 3 -14 12q-3 8 1 15q6 82 15 169q8 70 15.5 139.5t19.5 138.5l8 48t12 47q10 29 33 46.5t47 33.5q46 30 98 50t107 24q7 0 14 0.5t15 0.5q65 3 131 0q30 -1 60.5 -3t59.5 -9l30 -8t29 -12q9 -5 18.5 -13t11.5 -18 q3 -11 0.5 -22.5t-8.5 -21.5zM388 578q-18 4 -36 6l-36 4l-9 -54q-3 -17 -5.5 -33.5t-4.5 -33.5l33 15q5 3 11.5 6.5t10.5 5.5q7 4 13.5 7.5t12.5 8.5q3 1 7 5q5 3 9 6.5t9 6.5q2 2 3.5 4t3.5 4q6 6 8 9q2 2 4 8q-1 4 -5 10q-6 5 -13.5 8.5t-15.5 6.5zM391 253q2 2 3.5 4 t3.5 4q1 2 1.5 3.5t1.5 3.5q-2 6 -4 9q-13 10 -31 15q-20 5 -41.5 7.5t-42.5 4.5h-4q-4 -32 -7 -64.5t-6 -65.5l8 4l8 4t7 3q17 9 32.5 18t32.5 20q2 1 8 5q5 5 11 8.5t11 8.5zM387 248q4 3 7 5.5t-8 -5.5h1z" />
<glyph unicode="C" horiz-adv-x="676" d="M700 93q2 -6 -1 -13t-8 -13t-11.5 -11t-10.5 -8q-21 -16 -45.5 -27.5t-49.5 -20.5q-24 -9 -51 -17t-53 -7q-48 0 -93.5 9.5t-90.5 29.5q-43 19 -83 46.5t-75 62t-62.5 74.5t-45.5 84q-17 43 -23.5 89t4.5 92q10 43 36 77t60 62q24 20 51.5 36t55.5 30q31 14 64 26t66 20 q47 11 98 18.5t100 -4.5q29 -8 53.5 -20.5t40.5 -41.5q21 -37 34.5 -78t25.5 -83q2 -7 -0.5 -13.5t-8 -12.5t-11.5 -11t-10 -8q-22 -16 -46 -27.5t-50 -20.5q-25 -9 -51 -15.5t-53 -8.5q-5 0 -12.5 -0.5t-16 1t-15 4.5t-8.5 10l-20 64t-24 63q-5 12 -11.5 24.5t-14.5 23.5 q-14 10 -30 18q-11 -19 -17.5 -39.5t-8.5 -41.5q-2 -38 6.5 -74.5t24.5 -70.5t37.5 -65.5t46.5 -58.5q44 -45 97.5 -78t113.5 -51q13 -4 28 -6q5 -1 10.5 -1.5t10.5 -0.5q1 -1 2 -1q12 1 26 -1t19 -14zM272 601q-6 -2 -8 -3t9 3h-1z" />
<glyph unicode="D" horiz-adv-x="701" d="M794 633q8 -25 3.5 -54t-15.5 -52q-16 -35 -38.5 -66t-49.5 -59.5t-56 -54.5t-58 -50q-61 -51 -126 -96t-132 -87q-29 -19 -58.5 -36.5t-59.5 -34.5q-49 -28 -108 -43q-21 -6 -44.5 -10t-46.5 -2q-11 0 -20 7q-5 3 -6 7q-1 0 -1 1q-2 6 1 13q2 28 4.5 55.5t5.5 55.5 q7 70 14 139.5t17 138.5q5 30 9.5 59.5t10.5 58.5q4 19 10 39.5t21 34.5q48 42 110 73.5t124 39.5q27 4 54.5 6.5t54.5 4.5q74 5 150 3.5t148 -24.5q25 -8 49 -24.5t33 -42.5zM394 315q23 22 44.5 45.5t40.5 49.5q14 20 24 42.5t13 46.5q0 14 -3.5 27.5t-12.5 24.5 q-12 10 -26 16.5t-29 11.5q-45 10 -92 12q-4 1 -14 1h-19h-1q-4 -17 -6.5 -32.5t-5.5 -32.5q-12 -78 -20.5 -156t-16.5 -156l24 18q16 11 31 23t29 24q5 4 8.5 7t8.5 7l1 1q5 5 11 10t11 10z" />
<glyph unicode="E" horiz-adv-x="651" d="M641 222q13 0 16 -8t-0.5 -19.5t-11 -26t-15.5 -27t-15 -21.5t-9 -11q-38 -46 -85 -79q-14 -10 -32 -20t-36 -10h-7h-342q-26 -6 -50 -6q-21 -3 -43 5q-14 7 -8 23q4 47 8 93t9 93q3 28 6 55.5t6 56.5q-1 5 1 11q5 39 10 77.5t12 76.5q4 22 8.5 44.5t12.5 43.5 q11 26 33 42t45 31q45 29 95.5 49.5t104.5 23.5h22.5t23.5 -7h266q19 0 17.5 -16.5t-12.5 -37t-24 -39t-16 -21.5q-19 -22 -40 -41.5t-45 -36.5q-14 -11 -31.5 -20.5t-36.5 -9.5h-153q-2 -7 -2.5 -22t-1.5 -22h249q19 0 17 -13.5t-12.5 -31t-23.5 -33t-16 -18.5 q-19 -22 -40.5 -41.5t-44.5 -36.5q-14 -11 -32 -8.5t-36 2.5h-86q0 -3 -0.5 -9t-1 -13t-0.5 -13v-9h347v0z" />
<glyph unicode="F" horiz-adv-x="590" d="M666 700q19 0 17.5 -16.5t-12.5 -37t-24 -39t-16 -21.5q-19 -22 -40 -41.5t-45 -36.5q-14 -11 -31.5 -20.5t-36.5 -9.5h-153q-2 -7 -2.5 -22t-1.5 -22h249q19 0 17 -13.5t-12.5 -31t-23.5 -33t-16 -18.5q-19 -22 -40.5 -41.5t-44.5 -36.5q-14 -11 -32 -20.5t-36 -9.5h-86 q-3 -33 -6 -65.5t-6 -65.5q2 -7 -1 -13.5t-8 -12.5t-11 -11t-10 -8q-22 -16 -46 -27.5t-50 -20.5q-24 -9 -51 -16.5t-53 -7.5q-21 -3 -43 5q-14 7 -8 23q4 47 8 93t9 93q7 70 15 139t20 138q4 22 8.5 44.5t12.5 43.5q11 26 33 42t45 31q45 29 95.5 49.5t104.5 23.5h22.5 t23.5 -7h266v0z" />
<glyph unicode="G" horiz-adv-x="699" d="M679 357q13 -10 23.5 -23.5t9.5 -30.5q0 -17 -2.5 -33t-6.5 -32q-11 -56 -24.5 -110.5t-27.5 -109.5q-2 -8 -9 -15t-15.5 -13.5t-17 -11.5t-14.5 -9q-25 -14 -52 -24.5t-55 -18.5q-7 -2 -28 -6.5t-42.5 -6t-37 4t-10.5 24.5q5 17 9 35t9 35q-2 -1 -3.5 -1.5t-3.5 -1.5 q-24 -8 -51.5 -16t-53.5 -8q-53 1 -103.5 13t-95.5 41q-39 26 -71 63t-51 81q-20 46 -23.5 97.5t8.5 100.5q9 38 30 72.5t49 61.5q48 47 105 79t120 56q51 20 108 33.5t113 14.5q19 0 38 -0.5t37 -5.5l28 -8t25 -14t17.5 -19t9.5 -23q6 -23 8 -47l4 -48q1 -15 -9 -25.5 t-21 -19.5q-22 -16 -46.5 -27.5t-49.5 -21.5q-25 -9 -51.5 -15t-52.5 -8q-3 0 -11.5 -0.5t-17.5 0.5t-16 4.5t-7 9.5q-2 23 -4 45.5t-7 44.5q-2 8 -4.5 15.5t-7.5 13.5q-9 8 -23 13l-21 3l-3 -3q-3 -2 -5 -5q-13 -13 -25 -28q-30 -49 -36 -109q-3 -61 17.5 -118t62.5 -102 q52 -52 122 -75q5 19 8.5 37.5t5.5 38.5q-2 17 -10 30q-6 5 -12.5 8t-13.5 6l-18 3h-1q-11 0 -23 2t-16 13q-3 6 0 13t8.5 13t11.5 11t10 8q22 16 46 27.5t49 21.5q24 8 51.5 16t53.5 7q28 0 58.5 -3.5t54.5 -19.5zM370 248q-8 0 -6.5 0.5t6.5 -0.5z" />
<glyph unicode="H" horiz-adv-x="892" d="M872 684q18 0 27 -14q-1 -5 -1 -14q-5 -36 -8.5 -72t-8.5 -73q-12 -106 -24 -210.5t-24 -210.5q-11 -20 -29 -32q-14 -10 -28.5 -18.5t-30.5 -15.5q-32 -14 -69 -26.5t-72 -12.5h-13t-16 1t-14.5 4t-8.5 10q-3 6 1 15l8 72t8 71t8 69.5t8 69.5q-15 -3 -30 -3h-20h-245 l-24 -204q-11 -20 -29 -32q-29 -21 -58 -34q-32 -14 -69.5 -26.5t-72.5 -12.5h-12.5t-15.5 1t-14.5 4t-9.5 10q-3 6 1 15q5 36 8.5 72t7.5 71q13 106 25 211t24 211q11 20 29 32q13 7 26 17q26 14 52.5 25t55.5 19q21 6 44.5 10t46.5 1q18 0 27 -14q0 -4 -0.5 -7t-0.5 -7 l-8 -72t-8 -73q-3 -21 -5.5 -42t-4.5 -42h10h285q5 38 9 76.5t8 76.5q6 10 13 18t17 14q7 4 13 8t13 9q25 14 52 25t55 19q22 6 45.5 10t46.5 1z" />
<glyph unicode="I" horiz-adv-x="354" d="M331 684q18 0 27 -14q0 -4 -0.5 -7t-0.5 -6q-4 -37 -8 -73t-8 -73q-12 -106 -24.5 -210.5t-24.5 -210.5q-11 -20 -29 -32q-14 -10 -28.5 -18t-29.5 -15q-32 -15 -69.5 -27.5t-72.5 -12.5h-12.5t-15.5 1t-14.5 4t-9.5 10q-3 6 1 15q5 36 8.5 72t7.5 72q13 106 25 210.5 t24 210.5q11 20 29 32q7 5 13.5 8.5t12.5 8.5q53 29 108 44q21 6 44.5 10t46.5 1z" />
<glyph unicode="J" horiz-adv-x="580" d="M593 685q0 -4 -0.5 -7t-0.5 -7q-8 -75 -16 -150.5t-16 -150.5q0 -4 -1 -6v-1q-13 -68 -52 -124.5t-93 -99.5q-40 -32 -86.5 -56.5t-94.5 -41.5q-46 -17 -94.5 -28.5t-98.5 -12.5h-12.5t-15.5 1t-14.5 4t-9.5 10q-2 7 1 13.5t8 12.5t11.5 11t10.5 8q21 16 45.5 28t49.5 21 q20 7 41.5 13.5t42.5 8.5q20 20 35 41q34 51 46 115q8 78 16 154t16 154q6 10 13 18t17 14q7 4 13 8t13 9q52 29 107 44q22 6 45.5 10t46.5 1q18 0 27 -14z" />
<glyph unicode="K" horiz-adv-x="798" d="M847 -24q3 -6 -0.5 -13t-9 -13.5t-12 -11.5t-9.5 -7q-21 -16 -45.5 -28t-49.5 -21t-51.5 -15.5t-52.5 -8.5q-12 0 -28.5 1t-24.5 14q-12 23 -24 45l-24 44q-51 94 -101.5 185.5t-101.5 184.5h-1q-7 -60 -13.5 -120t-14.5 -120q-11 -20 -29 -32q-14 -10 -28.5 -18 t-29.5 -16q-32 -14 -69.5 -26.5t-72.5 -12.5h-12.5t-15.5 1t-14.5 4t-9.5 10q-3 6 1 15q5 36 8.5 72t7.5 71q13 106 25 211t24 211q11 20 29 32q13 7 26 17q53 29 108 44q21 6 44.5 10t46.5 1q18 0 27 -14q0 -4 -0.5 -7t-0.5 -7l-8 -72t-8 -73q-2 -10 -2 -15q38 40 75 79.5 t74 79.5q6 6 15.5 9t20 4.5t20.5 1.5h17q29 0 58 -4t57 -12q7 -2 27.5 -8t39.5 -16t29.5 -22.5t-2.5 -26.5q-39 -42 -78.5 -83t-78.5 -83q9 -17 18.5 -33t18.5 -33q51 -94 102 -187.5t103 -187.5z" />
<glyph unicode="L" horiz-adv-x="626" d="M641 222q19 0 17.5 -16.5t-12.5 -37t-24 -39t-16 -21.5q-19 -22 -40 -41.5t-45 -36.5q-14 -10 -31.5 -20t-36.5 -10h-6h-340q-20 -5 -45 -7h-7h-13t-16 1t-14.5 4t-9.5 10q-3 6 1 15q5 36 8.5 72t8.5 71q12 106 24 211t24 211q11 20 30 32q6 4 12.5 8t13.5 9q25 14 52 25 t55 19q22 6 45 10t46 1q18 0 27 -14v-14q-5 -36 -9 -72t-8 -73q-8 -75 -17 -148.5t-17 -148.5h343v0z" />
<glyph unicode="M" horiz-adv-x="883" d="M894 97q1 -16 -9.5 -26.5t-21.5 -18.5q-21 -17 -45.5 -28.5t-49.5 -20.5q-26 -9 -52 -15.5t-53 -8.5h-11t-17 1t-16.5 4t-7.5 10l-12 174q-2 27 -4 53.5t-4 53.5q-9 -11 -20 -18.5t-24 -15.5q-53 -29 -108 -44q-21 -6 -44.5 -10t-46.5 -1q-19 0 -27 14q-2 5 -4.5 9 t-5.5 9q-5 10 -10.5 20t-10.5 20q-5 -44 -8.5 -87t-7.5 -87q-11 -20 -29 -32q-7 -5 -13.5 -9t-12.5 -8q-26 -15 -52.5 -25.5t-55.5 -18.5q-21 -6 -44.5 -10t-46.5 -1q-19 0 -27 14q0 3 0.5 6.5t0.5 6.5q4 47 8 93t9 94l16 138t20 138q4 23 8 45t12 43q11 26 33 42.5t45 30.5 q38 26 80.5 43.5t88.5 25.5q7 1 19.5 3t25 2t23 -3.5t15.5 -12.5q2 -5 5 -9t5 -9q23 -45 47 -89t48 -89q17 27 34 53.5t34 53.5q11 17 24.5 27.5t30.5 20.5q26 15 53 25.5t55 18.5q22 6 45 10t46 2q18 0 27 -15q3 -44 6.5 -87t6.5 -87q8 -105 15 -209t15 -209z" />
<glyph unicode="N" horiz-adv-x="944" d="M930 687q18 0 27 -15q0 -8 -1 -13q-4 -36 -8 -72.5t-8 -72.5q-12 -106 -24 -211t-24 -211q-10 -19 -30 -31q-14 -11 -28.5 -19t-29.5 -15q-32 -14 -69 -26.5t-73 -12.5q-15 0 -28 1t-24 14q-64 76 -127 151.5t-126 151.5q-14 17 -28.5 33.5t-28.5 33.5 q-8 -71 -14.5 -140.5t-12.5 -140.5q-10 -18 -29 -31q-7 -5 -13.5 -9t-12.5 -8q-26 -15 -52.5 -25.5t-54.5 -18.5q-22 -6 -45.5 -10t-46.5 -2q-18 0 -27 15q0 3 0.5 6.5t0.5 6.5q4 47 8 93t9 93q8 70 16 139t20 138q4 22 8 44.5t12 43.5q11 26 33 42t45 31q39 26 81 43.5 t88 25.5q10 2 21.5 3.5t22.5 1.5t21.5 -3.5t17.5 -12.5h1q63 -76 126 -151.5t127 -151.5q3 -3 4 -5q5 48 11 96.5t11 96.5q5 10 12.5 17.5t16.5 14.5q7 4 13.5 8t13.5 9q25 14 52 24.5t55 18.5q22 6 45 10t46 2z" />
<glyph unicode="O" d="M801 578q27 -43 35 -90.5t3 -97.5q-10 -84 -55.5 -149.5t-110.5 -113.5t-142.5 -79.5t-151.5 -47.5q-62 -14 -124 -11h-11t-11 1q-28 3 -54.5 9.5t-51.5 17.5q-43 19 -78 51.5t-56 74.5q-24 47 -28.5 98.5t7 101.5t36.5 96t61 82q62 63 140 104t162 65q70 20 143.5 24 t142.5 -20q45 -16 82.5 -45.5t61.5 -70.5zM387 574q-16 4 -35 6q-2 0 -4.5 0.5t-4.5 0.5q-2 -2 -3 -2l-6 -6l-8 -8t-8 -9q-5 -6 -10 -12.5t-10 -12.5q-45 -68 -52 -147q-2 -54 15 -103.5t53 -89.5q43 -43 104 -62q16 -4 34 -6q3 -1 10 -1q2 2 3 2l6 6l8 8t8 9l10 12t10 13 q42 64 51 141q1 2 1 5q2 54 -15 104t-53 90q-43 43 -104 62z" />
<glyph unicode="P" horiz-adv-x="661" d="M731 652q3 -11 0.5 -22.5t-9.5 -21.5q-14 -22 -31.5 -39t-37.5 -34q-43 -35 -92 -62.5t-99 -51.5q-75 -37 -151 -66q-8 -66 -13.5 -131t-11.5 -131q-11 -20 -29 -32q-13 -7 -26 -17q-52 -29 -107 -44q-22 -6 -45.5 -10t-46.5 -1q-18 0 -27 14q0 4 0.5 7t0.5 6 q4 43 7.5 85.5t8.5 85.5q7 70 15 139.5t19 139.5q4 23 8.5 47t12.5 47q10 29 32.5 46.5t47.5 33.5q45 30 97 50.5t107 23.5q8 0 14.5 0.5t14.5 0.5q66 3 131 0q30 -1 60.5 -3t59.5 -9q15 -4 30.5 -8t29.5 -12q9 -5 18 -12.5t12 -18.5zM358 476q5 2 11 5.5t11 5.5 q6 4 12.5 7.5t13.5 8.5q2 1 3.5 2t3.5 3q5 3 9 6.5t8 6.5l8 8q2 2 4 4.5t4 4.5q1 2 3 8q-2 6 -4 10q-7 5 -14.5 8.5t-15.5 6.5q-17 4 -35 6l-36 4q-3 -14 -5.5 -27t-4.5 -27q-2 -17 -4.5 -33.5t-5.5 -33.5q20 8 34 16z" />
<glyph unicode="Q" horiz-adv-x="805" d="M837 45q7 -2 9 -7t0.5 -11t-5 -11.5t-6.5 -8.5q-16 -17 -36.5 -28.5t-41.5 -21.5q-54 -25 -110 -35q-19 -4 -37 -4t-37 6q-61 19 -121.5 38t-121.5 38q-55 -8 -112 -4t-108 27q-42 19 -77.5 51.5t-56.5 74.5q-24 48 -28.5 99.5t7 101.5t37 96t61.5 82q61 63 139.5 104 t162.5 64q70 20 143.5 24t142.5 -20q45 -15 82 -45t62 -70q27 -44 34.5 -91t2.5 -98q-11 -94 -65 -164t-131 -120q53 -17 105.5 -33.5t105.5 -33.5zM230 391q-2 -54 14.5 -104t52.5 -90q43 -42 104 -62q18 -5 35 -6h4.5t5.5 -1q2 2 2 3q2 1 6 5l17 17q5 6 10 12.5t10 13.5 q20 32 33 67.5t18 73.5v4q2 54 -14.5 104.5t-52.5 90.5q-46 43 -104 62q-9 2 -17.5 3t-17.5 3h-10q-1 -1 -1.5 -1t-1.5 -1q-1 -2 -5 -6q-5 -4 -8.5 -8t-8.5 -9l-10 -12t-10 -13q-21 -33 -34 -70t-17 -76z" />
<glyph unicode="R" horiz-adv-x="819" d="M858 54q3 -6 0 -13t-8.5 -13.5t-12 -11.5t-9.5 -7q-22 -16 -46 -27.5t-49 -21.5q-26 -9 -52 -15.5t-53 -8.5q-12 0 -28 1t-24 14q-12 23 -24 45t-25 44l-180 330q-10 -4 -19.5 -8t-20.5 -8q-14 -131 -24 -261q-11 -20 -30 -32q-7 -5 -13 -9t-13 -8q-25 -15 -52 -25.5 t-55 -18.5q-22 -6 -45.5 -10t-46.5 -1q-19 0 -27 14q1 3 1 6.5v6.5q4 43 7.5 85t8.5 85q7 70 15 140t19 139q5 24 9 48t12 47q10 29 32.5 46t47.5 34q46 30 97.5 50t106.5 23q8 1 15 1t14 1q66 1 132 0l60 -4t59 -9q15 -3 30.5 -7t29.5 -12q9 -5 18 -13t12 -19t0.5 -22.5 t-8.5 -20.5q-29 -41 -70 -74q-9 -8 -18.5 -14.5t-19.5 -13.5q11 -20 21 -38.5t21 -38.5q52 -94 103 -187.5t102 -187.5zM331 527q-3 -17 -5.5 -34t-4.5 -34q8 4 16.5 8t16.5 8q5 3 11.5 6.5t10.5 5.5q7 4 13 7.5t13 7.5q3 3 7 5q5 4 9 7t9 7l7 7q2 2 4 4.5t4 4.5l3 9 q0 4 -4 10q-12 9 -30 14q-17 5 -35 7t-36 3q-6 -25 -9 -53z" />
<glyph unicode="S" horiz-adv-x="673" d="M694 222q2 -11 2 -21.5t-5 -21.5q-15 -38 -40.5 -67.5t-54.5 -55.5q-31 -29 -67.5 -45.5t-75.5 -24.5t-79.5 -8.5t-80.5 3.5q-35 4 -71 10.5t-70 20.5q-28 11 -55.5 25t-44.5 39q-7 11 -2.5 23t9.5 21q11 19 24.5 36t28.5 32q16 16 32.5 29.5t36.5 24.5l8 4t12.5 5t13 2 t9.5 -4q14 -22 36.5 -35.5t45.5 -22.5q33 -13 68 -20.5t71 -11.5q-7 5 -14 10.5t-14 10.5q-29 20 -61 35.5t-65 28.5q-24 9 -48.5 17t-48.5 19q-29 13 -56 27.5t-53 32.5q-24 17 -46.5 39t-36.5 49q-5 11 -10 24.5t-5 26.5q0 14 4.5 27.5t11.5 25.5q16 28 38.5 55t49.5 49.5 t57 39t63 24.5q37 10 75 13.5t76 2.5q38 -2 76 -6.5t74 -15.5q31 -9 61.5 -22t53.5 -37q7 -8 2 -22.5t-9 -21.5q-11 -19 -24.5 -36t-28.5 -32q-16 -15 -32.5 -29t-36.5 -24q-7 -4 -21 -9.5t-22 2.5q-14 14 -31 24t-36 18q-38 14 -79 22t-83 10q19 -17 40 -31 q29 -20 61 -35.5t65 -28.5q27 -11 53.5 -20t52.5 -21q32 -14 63 -31.5t58 -39.5q26 -22 46.5 -48.5t28.5 -59.5z" />
<glyph unicode="T" horiz-adv-x="727" d="M791 677q20 0 18 -16.5t-12.5 -37t-24 -38.5t-16.5 -21q-37 -46 -85 -79q-14 -10 -31.5 -20t-35.5 -10h-106q-11 -89 -20.5 -177t-20.5 -177q2 -9 -4 -17.5t-14 -15.5l-6 -6t-7 -5q-16 -12 -34 -21.5t-37 -17.5q-28 -12 -59.5 -22t-61.5 -11h-8q-5 0 -12.5 -0.5 t-15.5 0.5t-14.5 4.5t-9.5 10.5q-3 5 1 14q3 22 5.5 44t4.5 44q11 89 20.5 176.5t20.5 176.5h-241q-20 0 -17.5 16.5t13 37t23.5 39t16 21.5q19 22 40.5 41.5t44.5 36.5q14 10 32 20t36 10h203h415v0z" />
<glyph unicode="U" horiz-adv-x="771" d="M784 678q0 -4 -0.5 -7t-0.5 -6q-8 -76 -16 -151.5t-16 -150.5q0 -4 -1 -6q-1 -7 -2 -13t-3 -12q-16 -59 -50.5 -106.5t-80.5 -85.5q-29 -25 -62 -45t-68 -36q-44 -20 -90 -35.5t-94 -23.5t-100 -7t-97 22q-32 15 -53.5 43.5t-31.5 61.5q-9 31 -10.5 64t0 66t5.5 66.5 t7 65.5q5 52 9.5 103t9.5 103q11 20 29 32q7 5 13.5 8.5t13.5 8.5q49 28 107 44q22 6 45 10t46 1q18 0 27 -14q0 -9 -1 -13q-7 -79 -15 -158t-14 -158q-1 -24 -0.5 -49.5t5 -50t13.5 -47.5t25 -42q22 -20 51 -30q2 0 4.5 -0.5t4.5 -0.5q3 2 9 8q11 13 22 28q34 51 46 115 q8 78 16 154t16 154q6 10 13 18t17 14q7 5 13 8.5t13 8.5q52 29 107 44q22 6 45.5 10t46.5 1q18 0 27 -14z" />
<glyph unicode="V" horiz-adv-x="704" d="M794 684q4 0 10 -2t11 -5.5t7 -8.5t-2 -11q-34 -56 -68 -111t-68 -111q-54 -87 -106 -172.5t-106 -172.5q-10 -17 -24.5 -28t-31.5 -21q-49 -28 -107 -44q-22 -6 -45 -10t-46 -1q-18 0 -27 14q-17 45 -34.5 89t-34.5 89q-38 98 -75 194.5t-75 194.5q-3 6 0 13t8.5 13 t12 11t10.5 8q21 16 45.5 27.5t49.5 21.5q25 9 51.5 15.5t52.5 8.5h13t16 -1t14.5 -4.5t8.5 -9.5q17 -45 34.5 -89t34.5 -89q16 -41 31.5 -81.5t31.5 -81.5q38 63 76.5 125.5t77.5 125.5q10 17 24 28t31 21q53 29 108 44q21 6 44.5 10t46.5 1z" />
<glyph unicode="W" horiz-adv-x="928" d="M822 687q7 2 28 6.5t42 6t36.5 -4t11.5 -24.5q-8 -38 -16 -77t-16 -77q-21 -104 -42 -206.5t-43 -206.5q-11 -20 -29 -32q-7 -5 -13.5 -8.5t-12.5 -8.5q-53 -29 -108 -44q-21 -6 -44.5 -10t-46.5 -1q-18 0 -27 14q-2 2 -2.5 4.5t-2.5 4.5q-22 38 -44 75l-44 74 q-9 -17 -18.5 -34t-19.5 -34q-9 -17 -24 -28.5t-31 -20.5q-53 -29 -108 -44q-21 -6 -44.5 -10t-46.5 -1q-18 0 -27 14q-10 40 -20 79.5t-20 79.5q-26 103 -51 204t-50 204q-2 7 1 13.5t8 12.5t10.5 11t10.5 8q22 16 46 28t49 21q26 9 52 15.5t53 8.5h12t16 -1t15 -4t9 -10 l39 -159q8 -31 15.5 -61.5t15.5 -61.5q10 11 21.5 19.5t24.5 15.5q49 28 107 44q22 6 45.5 10t46.5 1q16 0 27 -14q1 -3 5 -9q7 -10 11 -20q8 37 15 73t15 72q11 20 30 32q6 5 12.5 8.5t13.5 8.5q49 28 107 44z" />
<glyph unicode="X" horiz-adv-x="769" d="M778 99q4 -5 0.5 -12t-9.5 -13.5t-12.5 -12t-7.5 -6.5q-21 -15 -44.5 -26.5t-47.5 -19.5q-24 -9 -49 -15t-51 -8q-14 -1 -26.5 1t-23.5 13l-135 153q-68 -71 -136 -139q-5 -6 -14 -8.5t-19 -4t-20 -1.5h-16q-28 0 -56 4t-54 11q-6 1 -26 7.5t-38.5 16t-28.5 21.5t3 25 q62 63 122.5 124.5t122.5 124.5q-52 59 -103.5 116.5t-102.5 116.5q-5 4 -1.5 11t9.5 13.5t12.5 11.5t8.5 7q20 15 43.5 26.5t47.5 20.5q24 8 49 14.5t51 8.5q15 1 27 -1.5t23 -13.5q31 -35 61.5 -69.5t61.5 -69.5q26 26 50.5 51t49.5 51q6 6 15 8.5t19 4t19.5 1.5h16.5 q28 0 55.5 -4t54.5 -11q6 -2 26 -8t38 -15.5t28 -21.5t-3 -25q-52 -54 -103.5 -106.5t-104.5 -106.5q55 -62 109 -123t109 -122z" />
<glyph unicode="Y" horiz-adv-x="751" d="M693 627q6 -2 26 -8t38.5 -15.5t28.5 -21.5t-3 -25q-66 -68 -132.5 -135t-132.5 -136q-67 -68 -133.5 -135.5t-133.5 -136.5q-6 -6 -15 -8.5t-19 -4t-19.5 -1.5h-16.5q-28 0 -55.5 4t-54.5 11q-6 1 -26 7.5t-38 15.5t-28 21t3 26q61 63 122 124.5t122 124.5 q-51 59 -102.5 116.5t-103.5 116.5q-4 4 -0.5 11t9.5 13.5t12 11.5t8 7q21 15 44.5 26.5t47.5 19.5q23 9 48.5 15t51.5 8q14 2 26.5 -0.5t23.5 -13.5q31 -35 61.5 -69.5t61.5 -69.5q25 26 50 51t50 51q11 11 33.5 12.5t35.5 1.5q28 0 56 -4t54 -11z" />
<glyph unicode="Z" horiz-adv-x="740" d="M753 212q19 0 17 -16t-12 -35.5t-22.5 -36.5t-15.5 -20q-37 -43 -82 -76q-14 -9 -31 -18.5t-34 -9.5h-142h-425q-12 0 -15 7.5t0.5 19t10.5 25t15 25.5t14.5 21t8.5 11q5 5 9 10t9 10v2q2 3 3.5 5.5t3.5 5.5q21 27 42 54.5t42 55.5q38 50 75 98.5t74 98.5h-311 q-19 0 -17 15.5t12.5 35t23 37t14.5 20.5q38 44 82 75q14 10 31 19.5t34 9.5h142h425q12 0 15 -7.5t-0.5 -19t-10.5 -25t-15 -25.5t-14.5 -21t-8.5 -11q-5 -5 -9 -10t-9 -10v-2q-3 -5 -7 -11l-84 -111q-38 -49 -75 -97.5t-74 -98.5h311v0z" />
<glyph unicode="[" horiz-adv-x="386" d="M330 13q4 -1 10 -3t12 -5t10 -7.5t4 -10.5t-4 -10t-10 -7t-12 -5t-10 -3q-20 -7 -42 -9t-44 -2h-103q-21 0 -43 2t-43 9q-8 2 -21.5 8t-13.5 17v331v391q0 11 13.5 17t21.5 8q21 7 43 9t43 2h103q22 0 44 -2t42 -9q4 -1 10 -3t12 -5t10 -7t4 -10t-4 -10.5t-10 -7.5 t-12 -5t-10 -3q-16 -5 -33 -7t-34 -3v-295v-354q17 -1 34 -3.5t33 -7.5z" />
<glyph unicode="\" horiz-adv-x="674" d="M-10 609q-4 6 -0.5 13t9.5 13.5t12 11.5t9 7q22 17 46 28.5t50 20.5q25 9 51 15.5t53 8.5q14 1 29 -0.5t23 -14.5l198 -297l107 -160.5l107 -160.5q4 -6 0.5 -13t-9.5 -13.5t-12 -11.5t-9 -7q-22 -16 -46 -28t-50 -21q-25 -9 -51 -15.5t-53 -8.5q-14 -1 -29 0.5t-23 14.5 q-50 75 -99 149t-99 149q-54 81 -107 160t-107 160z" />
<glyph unicode="]" horiz-adv-x="386" d="M331 729q8 -2 21.5 -8t13.5 -17v-331v-391q0 -11 -13.5 -17t-21.5 -8q-21 -7 -43 -9t-43 -2h-103q-22 0 -44 2t-42 9q-4 1 -10 3t-12 5t-10 7t-4 10t4 10.5t10 7.5t12 5t10 3q16 5 33 7.5t34 3.5v294v355q-17 1 -34 3t-33 7q-4 1 -10 3t-12 5t-10 7.5t-4 10.5t4 10t10 7 t12 5t10 3q20 7 42 9t44 2h103q21 0 43 -2t43 -9z" />
<glyph unicode="_" horiz-adv-x="837" d="M817 57q3 -7 0 -13.5t-8.5 -12.5t-11.5 -11t-10 -8q-22 -16 -46 -28t-49 -21q-24 -9 -51.5 -16.5t-53.5 -7.5h-86h-429h-12.5t-15.5 1t-14.5 4t-9.5 10t0 13.5t8.5 12.5t11.5 11t10 8q22 16 46 28t50 21q24 8 51 16t53 8h86h429h13t16 -1t14.5 -4t8.5 -10z" />
<glyph unicode="`" horiz-adv-x="357" d="M97 749q-17 16 -33 31.5t-33 32.5q-7 7 -10.5 17.5t9.5 17.5q14 7 32.5 5t32.5 -4q26 -5 51 -13t48 -19q20 -9 37.5 -20t32.5 -25q31 -33 64 -64q7 -7 10.5 -17.5t-7.5 -16.5q-15 -8 -33.5 -6.5t-33.5 5.5q-26 5 -50.5 12.5t-48.5 17.5q-18 9 -36 20t-32 26z" />
<glyph unicode="a" horiz-adv-x="690" d="M701 106q2 -7 -1 -13.5t-8 -12.5t-11.5 -11t-10.5 -8q-21 -16 -45.5 -27.5t-49.5 -20.5q-25 -10 -51.5 -16t-52.5 -8q-5 0 -12.5 -0.5t-16 1t-15 4.5t-8.5 10q-10 32 -19 65t-19 66q-7 25 -14 49.5t-14 49.5h-127q-11 -35 -21 -70.5t-20 -70.5q-5 -16 -24 -28.5 t-32 -20.5q-25 -14 -52 -25t-55 -19q-6 -2 -27.5 -6.5t-43 -5.5t-37 4.5t-10.5 24.5q35 120 70.5 238.5t79.5 235.5q6 15 11.5 30t12.5 29q16 34 46 58q28 23 59 42t64 35t69.5 28.5t72.5 17.5q25 4 51.5 5.5t49.5 -9.5q23 -10 32.5 -33.5t17.5 -45.5q10 -28 18.5 -55.5 t17.5 -56.5q33 -107 64 -214t61 -216zM230 603h1h-1zM339 326q-8 25 -15 50t-15 51q-5 14 -8.5 28t-8.5 28q-8 -26 -16.5 -51t-16.5 -50l-18 -57q5 1 8.5 1h8.5h81z" />
<glyph unicode="b" horiz-adv-x="673" d="M695 615q-14 -22 -31.5 -39t-38.5 -34q-38 -31 -80.5 -56t-87.5 -47q43 -2 83 -6q28 -4 58 -9.5t55 -19.5q20 -11 28.5 -30.5t-5.5 -40.5q-27 -41 -65 -70.5t-80 -55.5t-84.5 -48.5t-87.5 -43.5q-51 -25 -102.5 -47t-104.5 -42l-24 -9q-2 0 -3 -1h-1q-14 -5 -27.5 -9 t-27.5 -7q-28 -5 -50 -5h-10.5t-11.5 2h-3q0 1 -1 1h-1q-11 3 -14 12q-3 8 1 15q6 82 15 169q8 70 15.5 139.5t19.5 138.5l8 48t12 47q10 29 33 46.5t47 33.5q46 30 98 50t107 24q7 0 14 0.5t15 0.5q65 3 131 0q30 -1 60.5 -3t59.5 -9l30 -8t29 -12q9 -5 18.5 -13t11.5 -18 q3 -11 0.5 -22.5t-8.5 -21.5zM388 578q-18 4 -36 6l-36 4l-9 -54q-3 -17 -5.5 -33.5t-4.5 -33.5l33 15q5 3 11.5 6.5t10.5 5.5q7 4 13.5 7.5t12.5 8.5q3 1 7 5q5 3 9 6.5t9 6.5q2 2 3.5 4t3.5 4q6 6 8 9q2 2 4 8q-1 4 -5 10q-6 5 -13.5 8.5t-15.5 6.5zM391 253q2 2 3.5 4 t3.5 4q1 2 1.5 3.5t1.5 3.5q-2 6 -4 9q-13 10 -31 15q-20 5 -41.5 7.5t-42.5 4.5h-4q-4 -32 -7 -64.5t-6 -65.5l8 4l8 4t7 3q17 9 32.5 18t32.5 20q2 1 8 5q5 5 11 8.5t11 8.5zM387 248q4 3 7 5.5t-8 -5.5h1z" />
<glyph unicode="c" horiz-adv-x="676" d="M700 93q2 -6 -1 -13t-8 -13t-11.5 -11t-10.5 -8q-21 -16 -45.5 -27.5t-49.5 -20.5q-24 -9 -51 -17t-53 -7q-48 0 -93.5 9.5t-90.5 29.5q-43 19 -83 46.5t-75 62t-62.5 74.5t-45.5 84q-17 43 -23.5 89t4.5 92q10 43 36 77t60 62q24 20 51.5 36t55.5 30q31 14 64 26t66 20 q47 11 98 18.5t100 -4.5q29 -8 53.5 -20.5t40.5 -41.5q21 -37 34.5 -78t25.5 -83q2 -7 -0.5 -13.5t-8 -12.5t-11.5 -11t-10 -8q-22 -16 -46 -27.5t-50 -20.5q-25 -9 -51 -15.5t-53 -8.5q-5 0 -12.5 -0.5t-16 1t-15 4.5t-8.5 10l-20 64t-24 63q-5 12 -11.5 24.5t-14.5 23.5 q-14 10 -30 18q-11 -19 -17.5 -39.5t-8.5 -41.5q-2 -38 6.5 -74.5t24.5 -70.5t37.5 -65.5t46.5 -58.5q44 -45 97.5 -78t113.5 -51q13 -4 28 -6q5 -1 10.5 -1.5t10.5 -0.5q1 -1 2 -1q12 1 26 -1t19 -14zM272 601q-6 -2 -8 -3t9 3h-1z" />
<glyph unicode="d" horiz-adv-x="701" d="M794 633q8 -25 3.5 -54t-15.5 -52q-16 -35 -38.5 -66t-49.5 -59.5t-56 -54.5t-58 -50q-61 -51 -126 -96t-132 -87q-29 -19 -58.5 -36.5t-59.5 -34.5q-49 -28 -108 -43q-21 -6 -44.5 -10t-46.5 -2q-11 0 -20 7q-5 3 -6 7q-1 0 -1 1q-2 6 1 13q2 28 4.5 55.5t5.5 55.5 q7 70 14 139.5t17 138.5q5 30 9.5 59.5t10.5 58.5q4 19 10 39.5t21 34.5q48 42 110 73.5t124 39.5q27 4 54.5 6.5t54.5 4.5q74 5 150 3.5t148 -24.5q25 -8 49 -24.5t33 -42.5zM394 315q23 22 44.5 45.5t40.5 49.5q14 20 24 42.5t13 46.5q0 14 -3.5 27.5t-12.5 24.5 q-12 10 -26 16.5t-29 11.5q-45 10 -92 12q-4 1 -14 1h-19h-1q-4 -17 -6.5 -32.5t-5.5 -32.5q-12 -78 -20.5 -156t-16.5 -156l24 18q16 11 31 23t29 24q5 4 8.5 7t8.5 7l1 1q5 5 11 10t11 10z" />
<glyph unicode="e" horiz-adv-x="651" d="M641 222q13 0 16 -8t-0.5 -19.5t-11 -26t-15.5 -27t-15 -21.5t-9 -11q-38 -46 -85 -79q-14 -10 -32 -20t-36 -10h-7h-342q-26 -6 -50 -6q-21 -3 -43 5q-14 7 -8 23q4 47 8 93t9 93q3 28 6 55.5t6 56.5q-1 5 1 11q5 39 10 77.5t12 76.5q4 22 8.5 44.5t12.5 43.5 q11 26 33 42t45 31q45 29 95.5 49.5t104.5 23.5h22.5t23.5 -7h266q19 0 17.5 -16.5t-12.5 -37t-24 -39t-16 -21.5q-19 -22 -40 -41.5t-45 -36.5q-14 -11 -31.5 -20.5t-36.5 -9.5h-153q-2 -7 -2.5 -22t-1.5 -22h249q19 0 17 -13.5t-12.5 -31t-23.5 -33t-16 -18.5 q-19 -22 -40.5 -41.5t-44.5 -36.5q-14 -11 -32 -8.5t-36 2.5h-86q0 -3 -0.5 -9t-1 -13t-0.5 -13v-9h347v0z" />
<glyph unicode="f" horiz-adv-x="590" d="M666 700q19 0 17.5 -16.5t-12.5 -37t-24 -39t-16 -21.5q-19 -22 -40 -41.5t-45 -36.5q-14 -11 -31.5 -20.5t-36.5 -9.5h-153q-2 -7 -2.5 -22t-1.5 -22h249q19 0 17 -13.5t-12.5 -31t-23.5 -33t-16 -18.5q-19 -22 -40.5 -41.5t-44.5 -36.5q-14 -11 -32 -20.5t-36 -9.5h-86 q-3 -33 -6 -65.5t-6 -65.5q2 -7 -1 -13.5t-8 -12.5t-11 -11t-10 -8q-22 -16 -46 -27.5t-50 -20.5q-24 -9 -51 -16.5t-53 -7.5q-21 -3 -43 5q-14 7 -8 23q4 47 8 93t9 93q7 70 15 139t20 138q4 22 8.5 44.5t12.5 43.5q11 26 33 42t45 31q45 29 95.5 49.5t104.5 23.5h22.5 t23.5 -7h266v0z" />
<glyph unicode="g" horiz-adv-x="699" d="M679 357q13 -10 23.5 -23.5t9.5 -30.5q0 -17 -2.5 -33t-6.5 -32q-11 -56 -24.5 -110.5t-27.5 -109.5q-2 -8 -9 -15t-15.5 -13.5t-17 -11.5t-14.5 -9q-25 -14 -52 -24.5t-55 -18.5q-7 -2 -28 -6.5t-42.5 -6t-37 4t-10.5 24.5q5 17 9 35t9 35q-2 -1 -3.5 -1.5t-3.5 -1.5 q-24 -8 -51.5 -16t-53.5 -8q-53 1 -103.5 13t-95.5 41q-39 26 -71 63t-51 81q-20 46 -23.5 97.5t8.5 100.5q9 38 30 72.5t49 61.5q48 47 105 79t120 56q51 20 108 33.5t113 14.5q19 0 38 -0.5t37 -5.5l28 -8t25 -14t17.5 -19t9.5 -23q6 -23 8 -47l4 -48q1 -15 -9 -25.5 t-21 -19.5q-22 -16 -46.5 -27.5t-49.5 -21.5q-25 -9 -51.5 -15t-52.5 -8q-3 0 -11.5 -0.5t-17.5 0.5t-16 4.5t-7 9.5q-2 23 -4 45.5t-7 44.5q-2 8 -4.5 15.5t-7.5 13.5q-9 8 -23 13l-21 3l-3 -3q-3 -2 -5 -5q-13 -13 -25 -28q-30 -49 -36 -109q-3 -61 17.5 -118t62.5 -102 q52 -52 122 -75q5 19 8.5 37.5t5.5 38.5q-2 17 -10 30q-6 5 -12.5 8t-13.5 6l-18 3h-1q-11 0 -23 2t-16 13q-3 6 0 13t8.5 13t11.5 11t10 8q22 16 46 27.5t49 21.5q24 8 51.5 16t53.5 7q28 0 58.5 -3.5t54.5 -19.5zM370 248q-8 0 -6.5 0.5t6.5 -0.5z" />
<glyph unicode="h" horiz-adv-x="892" d="M872 684q18 0 27 -14q-1 -5 -1 -14q-5 -36 -8.5 -72t-8.5 -73q-12 -106 -24 -210.5t-24 -210.5q-11 -20 -29 -32q-14 -10 -28.5 -18.5t-30.5 -15.5q-32 -14 -69 -26.5t-72 -12.5h-13t-16 1t-14.5 4t-8.5 10q-3 6 1 15l8 72t8 71t8 69.5t8 69.5q-15 -3 -30 -3h-20h-245 l-24 -204q-11 -20 -29 -32q-29 -21 -58 -34q-32 -14 -69.5 -26.5t-72.5 -12.5h-12.5t-15.5 1t-14.5 4t-9.5 10q-3 6 1 15q5 36 8.5 72t7.5 71q13 106 25 211t24 211q11 20 29 32q13 7 26 17q26 14 52.5 25t55.5 19q21 6 44.5 10t46.5 1q18 0 27 -14q0 -4 -0.5 -7t-0.5 -7 l-8 -72t-8 -73q-3 -21 -5.5 -42t-4.5 -42h10h285q5 38 9 76.5t8 76.5q6 10 13 18t17 14q7 4 13 8t13 9q25 14 52 25t55 19q22 6 45.5 10t46.5 1z" />
<glyph unicode="i" horiz-adv-x="354" d="M331 684q18 0 27 -14q0 -4 -0.5 -7t-0.5 -6q-4 -37 -8 -73t-8 -73q-12 -106 -24.5 -210.5t-24.5 -210.5q-11 -20 -29 -32q-14 -10 -28.5 -18t-29.5 -15q-32 -15 -69.5 -27.5t-72.5 -12.5h-12.5t-15.5 1t-14.5 4t-9.5 10q-3 6 1 15q5 36 8.5 72t7.5 72q13 106 25 210.5 t24 210.5q11 20 29 32q7 5 13.5 8.5t12.5 8.5q53 29 108 44q21 6 44.5 10t46.5 1z" />
<glyph unicode="j" horiz-adv-x="580" d="M593 685q0 -4 -0.5 -7t-0.5 -7q-8 -75 -16 -150.5t-16 -150.5q0 -4 -1 -6v-1q-13 -68 -52 -124.5t-93 -99.5q-40 -32 -86.5 -56.5t-94.5 -41.5q-46 -17 -94.5 -28.5t-98.5 -12.5h-12.5t-15.5 1t-14.5 4t-9.5 10q-2 7 1 13.5t8 12.5t11.5 11t10.5 8q21 16 45.5 28t49.5 21 q20 7 41.5 13.5t42.5 8.5q20 20 35 41q34 51 46 115q8 78 16 154t16 154q6 10 13 18t17 14q7 4 13 8t13 9q52 29 107 44q22 6 45.5 10t46.5 1q18 0 27 -14z" />
<glyph unicode="k" horiz-adv-x="798" d="M847 -24q3 -6 -0.5 -13t-9 -13.5t-12 -11.5t-9.5 -7q-21 -16 -45.5 -28t-49.5 -21t-51.5 -15.5t-52.5 -8.5q-12 0 -28.5 1t-24.5 14q-12 23 -24 45l-24 44q-51 94 -101.5 185.5t-101.5 184.5h-1q-7 -60 -13.5 -120t-14.5 -120q-11 -20 -29 -32q-14 -10 -28.5 -18 t-29.5 -16q-32 -14 -69.5 -26.5t-72.5 -12.5h-12.5t-15.5 1t-14.5 4t-9.5 10q-3 6 1 15q5 36 8.5 72t7.5 71q13 106 25 211t24 211q11 20 29 32q13 7 26 17q53 29 108 44q21 6 44.5 10t46.5 1q18 0 27 -14q0 -4 -0.5 -7t-0.5 -7l-8 -72t-8 -73q-2 -10 -2 -15q38 40 75 79.5 t74 79.5q6 6 15.5 9t20 4.5t20.5 1.5h17q29 0 58 -4t57 -12q7 -2 27.5 -8t39.5 -16t29.5 -22.5t-2.5 -26.5q-39 -42 -78.5 -83t-78.5 -83q9 -17 18.5 -33t18.5 -33q51 -94 102 -187.5t103 -187.5z" />
<glyph unicode="l" horiz-adv-x="626" d="M641 222q19 0 17.5 -16.5t-12.5 -37t-24 -39t-16 -21.5q-19 -22 -40 -41.5t-45 -36.5q-14 -10 -31.5 -20t-36.5 -10h-6h-340q-20 -5 -45 -7h-7h-13t-16 1t-14.5 4t-9.5 10q-3 6 1 15q5 36 8.5 72t8.5 71q12 106 24 211t24 211q11 20 30 32q6 4 12.5 8t13.5 9q25 14 52 25 t55 19q22 6 45 10t46 1q18 0 27 -14v-14q-5 -36 -9 -72t-8 -73q-8 -75 -17 -148.5t-17 -148.5h343v0z" />
<glyph unicode="m" horiz-adv-x="883" d="M894 97q1 -16 -9.5 -26.5t-21.5 -18.5q-21 -17 -45.5 -28.5t-49.5 -20.5q-26 -9 -52 -15.5t-53 -8.5h-11t-17 1t-16.5 4t-7.5 10l-12 174q-2 27 -4 53.5t-4 53.5q-9 -11 -20 -18.5t-24 -15.5q-53 -29 -108 -44q-21 -6 -44.5 -10t-46.5 -1q-19 0 -27 14q-2 5 -4.5 9 t-5.5 9q-5 10 -10.5 20t-10.5 20q-5 -44 -8.5 -87t-7.5 -87q-11 -20 -29 -32q-7 -5 -13.5 -9t-12.5 -8q-26 -15 -52.5 -25.5t-55.5 -18.5q-21 -6 -44.5 -10t-46.5 -1q-19 0 -27 14q0 3 0.5 6.5t0.5 6.5q4 47 8 93t9 94l16 138t20 138q4 23 8 45t12 43q11 26 33 42.5t45 30.5 q38 26 80.5 43.5t88.5 25.5q7 1 19.5 3t25 2t23 -3.5t15.5 -12.5q2 -5 5 -9t5 -9q23 -45 47 -89t48 -89q17 27 34 53.5t34 53.5q11 17 24.5 27.5t30.5 20.5q26 15 53 25.5t55 18.5q22 6 45 10t46 2q18 0 27 -15q3 -44 6.5 -87t6.5 -87q8 -105 15 -209t15 -209z" />
<glyph unicode="n" horiz-adv-x="944" d="M930 687q18 0 27 -15q0 -8 -1 -13q-4 -36 -8 -72.5t-8 -72.5q-12 -106 -24 -211t-24 -211q-10 -19 -30 -31q-14 -11 -28.5 -19t-29.5 -15q-32 -14 -69 -26.5t-73 -12.5q-15 0 -28 1t-24 14q-64 76 -127 151.5t-126 151.5q-14 17 -28.5 33.5t-28.5 33.5 q-8 -71 -14.5 -140.5t-12.5 -140.5q-10 -18 -29 -31q-7 -5 -13.5 -9t-12.5 -8q-26 -15 -52.5 -25.5t-54.5 -18.5q-22 -6 -45.5 -10t-46.5 -2q-18 0 -27 15q0 3 0.5 6.5t0.5 6.5q4 47 8 93t9 93q8 70 16 139t20 138q4 22 8 44.5t12 43.5q11 26 33 42t45 31q39 26 81 43.5 t88 25.5q10 2 21.5 3.5t22.5 1.5t21.5 -3.5t17.5 -12.5h1q63 -76 126 -151.5t127 -151.5q3 -3 4 -5q5 48 11 96.5t11 96.5q5 10 12.5 17.5t16.5 14.5q7 4 13.5 8t13.5 9q25 14 52 24.5t55 18.5q22 6 45 10t46 2z" />
<glyph unicode="o" d="M801 578q27 -43 35 -90.5t3 -97.5q-10 -84 -55.5 -149.5t-110.5 -113.5t-142.5 -79.5t-151.5 -47.5q-62 -14 -124 -11h-11t-11 1q-28 3 -54.5 9.5t-51.5 17.5q-43 19 -78 51.5t-56 74.5q-24 47 -28.5 98.5t7 101.5t36.5 96t61 82q62 63 140 104t162 65q70 20 143.5 24 t142.5 -20q45 -16 82.5 -45.5t61.5 -70.5zM387 574q-16 4 -35 6q-2 0 -4.5 0.5t-4.5 0.5q-2 -2 -3 -2l-6 -6l-8 -8t-8 -9q-5 -6 -10 -12.5t-10 -12.5q-45 -68 -52 -147q-2 -54 15 -103.5t53 -89.5q43 -43 104 -62q16 -4 34 -6q3 -1 10 -1q2 2 3 2l6 6l8 8t8 9l10 12t10 13 q42 64 51 141q1 2 1 5q2 54 -15 104t-53 90q-43 43 -104 62z" />
<glyph unicode="p" horiz-adv-x="661" d="M731 652q3 -11 0.5 -22.5t-9.5 -21.5q-14 -22 -31.5 -39t-37.5 -34q-43 -35 -92 -62.5t-99 -51.5q-75 -37 -151 -66q-8 -66 -13.5 -131t-11.5 -131q-11 -20 -29 -32q-13 -7 -26 -17q-52 -29 -107 -44q-22 -6 -45.5 -10t-46.5 -1q-18 0 -27 14q0 4 0.5 7t0.5 6 q4 43 7.5 85.5t8.5 85.5q7 70 15 139.5t19 139.5q4 23 8.5 47t12.5 47q10 29 32.5 46.5t47.5 33.5q45 30 97 50.5t107 23.5q8 0 14.5 0.5t14.5 0.5q66 3 131 0q30 -1 60.5 -3t59.5 -9q15 -4 30.5 -8t29.5 -12q9 -5 18 -12.5t12 -18.5zM358 476q5 2 11 5.5t11 5.5 q6 4 12.5 7.5t13.5 8.5q2 1 3.5 2t3.5 3q5 3 9 6.5t8 6.5l8 8q2 2 4 4.5t4 4.5q1 2 3 8q-2 6 -4 10q-7 5 -14.5 8.5t-15.5 6.5q-17 4 -35 6l-36 4q-3 -14 -5.5 -27t-4.5 -27q-2 -17 -4.5 -33.5t-5.5 -33.5q20 8 34 16z" />
<glyph unicode="q" horiz-adv-x="805" d="M837 45q7 -2 9 -7t0.5 -11t-5 -11.5t-6.5 -8.5q-16 -17 -36.5 -28.5t-41.5 -21.5q-54 -25 -110 -35q-19 -4 -37 -4t-37 6q-61 19 -121.5 38t-121.5 38q-55 -8 -112 -4t-108 27q-42 19 -77.5 51.5t-56.5 74.5q-24 48 -28.5 99.5t7 101.5t37 96t61.5 82q61 63 139.5 104 t162.5 64q70 20 143.5 24t142.5 -20q45 -15 82 -45t62 -70q27 -44 34.5 -91t2.5 -98q-11 -94 -65 -164t-131 -120q53 -17 105.5 -33.5t105.5 -33.5zM230 391q-2 -54 14.5 -104t52.5 -90q43 -42 104 -62q18 -5 35 -6h4.5t5.5 -1q2 2 2 3q2 1 6 5l17 17q5 6 10 12.5t10 13.5 q20 32 33 67.5t18 73.5v4q2 54 -14.5 104.5t-52.5 90.5q-46 43 -104 62q-9 2 -17.5 3t-17.5 3h-10q-1 -1 -1.5 -1t-1.5 -1q-1 -2 -5 -6q-5 -4 -8.5 -8t-8.5 -9l-10 -12t-10 -13q-21 -33 -34 -70t-17 -76z" />
<glyph unicode="r" horiz-adv-x="819" d="M858 54q3 -6 0 -13t-8.5 -13.5t-12 -11.5t-9.5 -7q-22 -16 -46 -27.5t-49 -21.5q-26 -9 -52 -15.5t-53 -8.5q-12 0 -28 1t-24 14q-12 23 -24 45t-25 44l-180 330q-10 -4 -19.5 -8t-20.5 -8q-14 -131 -24 -261q-11 -20 -30 -32q-7 -5 -13 -9t-13 -8q-25 -15 -52 -25.5 t-55 -18.5q-22 -6 -45.5 -10t-46.5 -1q-19 0 -27 14q1 3 1 6.5v6.5q4 43 7.5 85t8.5 85q7 70 15 140t19 139q5 24 9 48t12 47q10 29 32.5 46t47.5 34q46 30 97.5 50t106.5 23q8 1 15 1t14 1q66 1 132 0l60 -4t59 -9q15 -3 30.5 -7t29.5 -12q9 -5 18 -13t12 -19t0.5 -22.5 t-8.5 -20.5q-29 -41 -70 -74q-9 -8 -18.5 -14.5t-19.5 -13.5q11 -20 21 -38.5t21 -38.5q52 -94 103 -187.5t102 -187.5zM331 527q-3 -17 -5.5 -34t-4.5 -34q8 4 16.5 8t16.5 8q5 3 11.5 6.5t10.5 5.5q7 4 13 7.5t13 7.5q3 3 7 5q5 4 9 7t9 7l7 7q2 2 4 4.5t4 4.5l3 9 q0 4 -4 10q-12 9 -30 14q-17 5 -35 7t-36 3q-6 -25 -9 -53z" />
<glyph unicode="s" horiz-adv-x="673" d="M694 222q2 -11 2 -21.5t-5 -21.5q-15 -38 -40.5 -67.5t-54.5 -55.5q-31 -29 -67.5 -45.5t-75.5 -24.5t-79.5 -8.5t-80.5 3.5q-35 4 -71 10.5t-70 20.5q-28 11 -55.5 25t-44.5 39q-7 11 -2.5 23t9.5 21q11 19 24.5 36t28.5 32q16 16 32.5 29.5t36.5 24.5l8 4t12.5 5t13 2 t9.5 -4q14 -22 36.5 -35.5t45.5 -22.5q33 -13 68 -20.5t71 -11.5q-7 5 -14 10.5t-14 10.5q-29 20 -61 35.5t-65 28.5q-24 9 -48.5 17t-48.5 19q-29 13 -56 27.5t-53 32.5q-24 17 -46.5 39t-36.5 49q-5 11 -10 24.5t-5 26.5q0 14 4.5 27.5t11.5 25.5q16 28 38.5 55t49.5 49.5 t57 39t63 24.5q37 10 75 13.5t76 2.5q38 -2 76 -6.5t74 -15.5q31 -9 61.5 -22t53.5 -37q7 -8 2 -22.5t-9 -21.5q-11 -19 -24.5 -36t-28.5 -32q-16 -15 -32.5 -29t-36.5 -24q-7 -4 -21 -9.5t-22 2.5q-14 14 -31 24t-36 18q-38 14 -79 22t-83 10q19 -17 40 -31 q29 -20 61 -35.5t65 -28.5q27 -11 53.5 -20t52.5 -21q32 -14 63 -31.5t58 -39.5q26 -22 46.5 -48.5t28.5 -59.5z" />
<glyph unicode="t" horiz-adv-x="727" d="M791 677q20 0 18 -16.5t-12.5 -37t-24 -38.5t-16.5 -21q-37 -46 -85 -79q-14 -10 -31.5 -20t-35.5 -10h-106q-11 -89 -20.5 -177t-20.5 -177q2 -9 -4 -17.5t-14 -15.5l-6 -6t-7 -5q-16 -12 -34 -21.5t-37 -17.5q-28 -12 -59.5 -22t-61.5 -11h-8q-5 0 -12.5 -0.5 t-15.5 0.5t-14.5 4.5t-9.5 10.5q-3 5 1 14q3 22 5.5 44t4.5 44q11 89 20.5 176.5t20.5 176.5h-241q-20 0 -17.5 16.5t13 37t23.5 39t16 21.5q19 22 40.5 41.5t44.5 36.5q14 10 32 20t36 10h203h415v0z" />
<glyph unicode="u" horiz-adv-x="771" d="M784 678q0 -4 -0.5 -7t-0.5 -6q-8 -76 -16 -151.5t-16 -150.5q0 -4 -1 -6q-1 -7 -2 -13t-3 -12q-16 -59 -50.5 -106.5t-80.5 -85.5q-29 -25 -62 -45t-68 -36q-44 -20 -90 -35.5t-94 -23.5t-100 -7t-97 22q-32 15 -53.5 43.5t-31.5 61.5q-9 31 -10.5 64t0 66t5.5 66.5 t7 65.5q5 52 9.5 103t9.5 103q11 20 29 32q7 5 13.5 8.5t13.5 8.5q49 28 107 44q22 6 45 10t46 1q18 0 27 -14q0 -9 -1 -13q-7 -79 -15 -158t-14 -158q-1 -24 -0.5 -49.5t5 -50t13.5 -47.5t25 -42q22 -20 51 -30q2 0 4.5 -0.5t4.5 -0.5q3 2 9 8q11 13 22 28q34 51 46 115 q8 78 16 154t16 154q6 10 13 18t17 14q7 5 13 8.5t13 8.5q52 29 107 44q22 6 45.5 10t46.5 1q18 0 27 -14z" />
<glyph unicode="v" horiz-adv-x="704" d="M794 684q4 0 10 -2t11 -5.5t7 -8.5t-2 -11q-34 -56 -68 -111t-68 -111q-54 -87 -106 -172.5t-106 -172.5q-10 -17 -24.5 -28t-31.5 -21q-49 -28 -107 -44q-22 -6 -45 -10t-46 -1q-18 0 -27 14q-17 45 -34.5 89t-34.5 89q-38 98 -75 194.5t-75 194.5q-3 6 0 13t8.5 13 t12 11t10.5 8q21 16 45.5 27.5t49.5 21.5q25 9 51.5 15.5t52.5 8.5h13t16 -1t14.5 -4.5t8.5 -9.5q17 -45 34.5 -89t34.5 -89q16 -41 31.5 -81.5t31.5 -81.5q38 63 76.5 125.5t77.5 125.5q10 17 24 28t31 21q53 29 108 44q21 6 44.5 10t46.5 1z" />
<glyph unicode="w" horiz-adv-x="928" d="M822 687q7 2 28 6.5t42 6t36.5 -4t11.5 -24.5q-8 -38 -16 -77t-16 -77q-21 -104 -42 -206.5t-43 -206.5q-11 -20 -29 -32q-7 -5 -13.5 -8.5t-12.5 -8.5q-53 -29 -108 -44q-21 -6 -44.5 -10t-46.5 -1q-18 0 -27 14q-2 2 -2.5 4.5t-2.5 4.5q-22 38 -44 75l-44 74 q-9 -17 -18.5 -34t-19.5 -34q-9 -17 -24 -28.5t-31 -20.5q-53 -29 -108 -44q-21 -6 -44.5 -10t-46.5 -1q-18 0 -27 14q-10 40 -20 79.5t-20 79.5q-26 103 -51 204t-50 204q-2 7 1 13.5t8 12.5t10.5 11t10.5 8q22 16 46 28t49 21q26 9 52 15.5t53 8.5h12t16 -1t15 -4t9 -10 l39 -159q8 -31 15.5 -61.5t15.5 -61.5q10 11 21.5 19.5t24.5 15.5q49 28 107 44q22 6 45.5 10t46.5 1q16 0 27 -14q1 -3 5 -9q7 -10 11 -20q8 37 15 73t15 72q11 20 30 32q6 5 12.5 8.5t13.5 8.5q49 28 107 44z" />
<glyph unicode="x" horiz-adv-x="769" d="M778 99q4 -5 0.5 -12t-9.5 -13.5t-12.5 -12t-7.5 -6.5q-21 -15 -44.5 -26.5t-47.5 -19.5q-24 -9 -49 -15t-51 -8q-14 -1 -26.5 1t-23.5 13l-135 153q-68 -71 -136 -139q-5 -6 -14 -8.5t-19 -4t-20 -1.5h-16q-28 0 -56 4t-54 11q-6 1 -26 7.5t-38.5 16t-28.5 21.5t3 25 q62 63 122.5 124.5t122.5 124.5q-52 59 -103.5 116.5t-102.5 116.5q-5 4 -1.5 11t9.5 13.5t12.5 11.5t8.5 7q20 15 43.5 26.5t47.5 20.5q24 8 49 14.5t51 8.5q15 1 27 -1.5t23 -13.5q31 -35 61.5 -69.5t61.5 -69.5q26 26 50.5 51t49.5 51q6 6 15 8.5t19 4t19.5 1.5h16.5 q28 0 55.5 -4t54.5 -11q6 -2 26 -8t38 -15.5t28 -21.5t-3 -25q-52 -54 -103.5 -106.5t-104.5 -106.5q55 -62 109 -123t109 -122z" />
<glyph unicode="y" horiz-adv-x="751" d="M693 627q6 -2 26 -8t38.5 -15.5t28.5 -21.5t-3 -25q-66 -68 -132.5 -135t-132.5 -136q-67 -68 -133.5 -135.5t-133.5 -136.5q-6 -6 -15 -8.5t-19 -4t-19.5 -1.5h-16.5q-28 0 -55.5 4t-54.5 11q-6 1 -26 7.5t-38 15.5t-28 21t3 26q61 63 122 124.5t122 124.5 q-51 59 -102.5 116.5t-103.5 116.5q-4 4 -0.5 11t9.5 13.5t12 11.5t8 7q21 15 44.5 26.5t47.5 19.5q23 9 48.5 15t51.5 8q14 2 26.5 -0.5t23.5 -13.5q31 -35 61.5 -69.5t61.5 -69.5q25 26 50 51t50 51q11 11 33.5 12.5t35.5 1.5q28 0 56 -4t54 -11z" />
<glyph unicode="z" horiz-adv-x="740" d="M753 212q19 0 17 -16t-12 -35.5t-22.5 -36.5t-15.5 -20q-37 -43 -82 -76q-14 -9 -31 -18.5t-34 -9.5h-142h-425q-12 0 -15 7.5t0.5 19t10.5 25t15 25.5t14.5 21t8.5 11q5 5 9 10t9 10v2q2 3 3.5 5.5t3.5 5.5q21 27 42 54.5t42 55.5q38 50 75 98.5t74 98.5h-311 q-19 0 -17 15.5t12.5 35t23 37t14.5 20.5q38 44 82 75q14 10 31 19.5t34 9.5h142h425q12 0 15 -7.5t-0.5 -19t-10.5 -25t-15 -25.5t-14.5 -21t-8.5 -11q-5 -5 -9 -10t-9 -10v-2q-3 -5 -7 -11l-84 -111q-38 -49 -75 -97.5t-74 -98.5h311v0z" />
<glyph unicode="{" horiz-adv-x="459" d="M404 13q8 -2 21.5 -8.5t13.5 -17.5q0 -12 -13.5 -18t-21.5 -8q-21 -6 -43 -8.5t-43 -2.5q-26 0 -55.5 3t-58 11.5t-52.5 24t-37 41.5q-16 29 -19 59t-3 62v76v49q0 11 -2 16q-12 23 -31.5 42t-39.5 36q-9 10 0 20q20 17 39.5 37t31.5 43q5 12 3.5 26.5t-1.5 27.5v53 q0 27 7.5 54.5t24.5 48.5q17 20 40 32.5t48.5 19.5t52.5 9.5t52 2.5q21 1 43 -1.5t43 -8.5q8 -2 21.5 -8.5t13.5 -17.5t-13.5 -17.5t-21.5 -8.5q-13 -4 -28 -6q-1 -1 -2 -1q-17 -15 -27 -34q-7 -19 -9 -39t-2 -40v-52q0 -11 1 -22t-3 -21q-11 -26 -29.5 -47t-38.5 -40 q24 -21 47 -49t23 -61v-130q0 -23 1.5 -44.5t9.5 -42.5q5 -9 12 -17.5t15 -15.5l2 -1q7 -2 14 -3t14 -3zM360 674q-2 -1 1 0h-1zM359 21q-2 0 -2 0.5t2 -0.5z" />
<glyph unicode="}" horiz-adv-x="459" d="M55 682q-8 2 -21.5 8.5t-13.5 17.5q0 12 13.5 18t21.5 8q21 6 43 8.5t43 2.5q25 0 55 -3t58.5 -11.5t52 -24.5t37.5 -41q16 -29 19 -59t3 -62v-76v-49q0 -11 2 -16q12 -23 31.5 -42t39.5 -36q9 -10 0 -20q-20 -17 -39.5 -37t-31.5 -43q-5 -12 -3.5 -26.5t1.5 -27.5v-53 q0 -27 -7.5 -54.5t-24.5 -48.5q-17 -20 -40 -32.5t-48.5 -19.5t-52.5 -9.5t-52 -2.5q-21 -1 -43 1.5t-43 8.5q-8 2 -21.5 8.5t-13.5 17.5t13.5 17.5t21.5 8.5q13 4 28 6q1 1 2 1q17 15 27 34q7 19 9 39t2 40v52q0 11 -1 22t3 21q11 26 29.5 47t38.5 40q-24 21 -47 49t-23 61 v130q0 23 -1.5 44.5t-9.5 42.5q-5 9 -12 17.5t-15 15.5l-2 1q-7 2 -14 3t-14 3zM99 21h-1q3 1 1 0zM100 674q2 -1 2 -0.5t-2 0.5z" />
<glyph unicode="~" horiz-adv-x="768" d="M778 493q1 -8 -2 -17.5t-8 -18.5t-10.5 -17.5t-9.5 -14.5q-33 -47 -79 -85q-5 -4 -22 -17t-36 -23t-35 -12t-20 16q-5 9 -14 15.5t-19 11.5q-36 13 -74 8l-21 -6l-2 -2q-8 -3 -16 -8q-2 -1 -3.5 -2t-3.5 -2l-2 -2q-8 -5 -15.5 -10t-15.5 -10q-48 -30 -98.5 -55.5 t-108.5 -29.5q-24 -2 -52.5 1.5t-54 14t-44 29.5t-23.5 48q-1 8 2 17.5t8 18.5t10.5 17.5t9.5 14.5q17 24 36.5 45t42.5 40q5 4 22 17t36.5 23.5t35.5 12t19 -17.5q0 -2 1 -2q8 -17 22 -28.5t31 -19.5q23 -8 47 -9.5t47 0.5q7 2 13 3.5t13 4.5q2 1 5 1.5t5 1.5l1 1 q15 7 32 17q2 2 6 4q38 25 77 49.5t83 36.5q36 10 77 8t74 -22q12 -8 21 -19.5t12 -26.5zM386 441l-2 -1z" />
<glyph unicode="&#xa1;" horiz-adv-x="391" d="M325 565q21 0 29 -14v-11q-2 -7 -2.5 -12.5t-0.5 -10.5q-13 -105 -25.5 -207t-25.5 -205q-5 -11 -12.5 -19t-16.5 -15q-6 -5 -12.5 -7.5t-12.5 -6.5q-26 -15 -53 -26t-55 -20q-22 -6 -45 -9.5t-46 -1.5q-16 0 -26 14v14q2 7 2.5 12t0.5 11q13 103 25.5 206t25.5 206 q10 18 29 31q11 8 25 17q26 15 53 25.5t55 17.5q22 6 44.5 11t43.5 0zM379 679q0 -17 -11 -29q-7 -4 -11 -8l-9 -9q-21 -15 -45.5 -26t-48.5 -22q-26 -8 -51.5 -14.5t-53.5 -8.5q-19 -4 -42 6l-9 9v51q-2 8 1.5 15.5t9.5 12.5q8 8 20 17q22 15 45 27.5t49 20.5q26 9 51 16 t51 7q24 4 43 -6q2 -2 5.5 -4t5.5 -4v-51z" />
<glyph unicode="&#xab;" horiz-adv-x="848" d="M841 658q7 -4 14.5 -12t-2.5 -17q-3 -2 -9 -8q-75 -67 -148.5 -133t-148.5 -133q61 -69 121 -136.5t121 -136.5q10 -12 -0.5 -20t-28 -13.5t-35 -8.5t-21.5 -3q-49 -3 -94 4q-13 2 -29.5 6.5t-26.5 15.5q-63 71 -125.5 141.5t-125.5 141.5q-9 10 0 20q3 2 9 8 q78 69 154 137.5t153 137.5q11 10 26 14.5t30 7.5q46 8 93 3q19 -2 37.5 -5t35.5 -11zM238 355q61 -69 121 -136.5t120 -136.5q10 -12 0 -20t-27.5 -13.5t-35.5 -8.5t-22 -3q-49 -3 -93 4q-13 2 -30 6.5t-26 15.5q-63 71 -125.5 141.5t-125.5 141.5q-9 10 0 20q3 2 9 8 q77 69 153.5 137.5t153.5 137.5q11 10 26 14.5t30 7.5q46 8 93 3q18 -2 37 -5t36 -11q7 -4 14.5 -12t-2.5 -17q-3 -2 -9 -8q-75 -67 -148.5 -133t-148.5 -133z" />
<glyph unicode="&#xac;" horiz-adv-x="735" d="M663 440h10.5t17.5 -1t16.5 -4t7.5 -10v-103q0 -16 -9.5 -26t-21.5 -19q-21 -17 -45.5 -28.5t-49.5 -20.5t-51.5 -15.5t-52.5 -8.5h-11.5t-17.5 1t-16.5 4t-7.5 10v88h-359h-13t-16 1t-14.5 4t-9.5 10q-2 7 1 13.5t8 12.5t11.5 11t10.5 8q21 16 45.5 28t49.5 21 q24 8 51 16t53 8h7h406v0z" />
<glyph unicode="&#xad;" horiz-adv-x="611" d="M72 327h-12.5t-15.5 1t-14.5 4t-9.5 10t0 13.5t8.5 12.5t11.5 11t10 8q22 16 46 28t50 21q24 8 51 16t53 8h6h283h13t16 -1t14.5 -4t8.5 -10q3 -7 0 -13.5t-8.5 -12.5t-11.5 -11t-10 -8q-22 -16 -46 -28t-49 -21q-24 -9 -51.5 -16.5t-53.5 -7.5h-6h-283v0z" />
<glyph unicode="&#xb0;" horiz-adv-x="328" d="M311 531q0 -6 -0.5 -12t-2.5 -10q-12 -45 -45 -69q-11 -8 -25 -14.5t-27 -8.5q-26 -6 -53 -7.5t-55 5.5q-32 3 -54 25q-11 11 -17.5 23.5t-11.5 25.5q-5 19 -5 39.5t3.5 41.5t10 41.5t14.5 39.5q9 22 29.5 33t41.5 16q35 8 71.5 9t68.5 -12q13 -7 24.5 -15t18.5 -19 q6 -11 10.5 -22t6.5 -24q4 -30 0 -60q0 -6 -0.5 -12.5t-2.5 -13.5zM163 634q-6 -18 -11.5 -38t-7.5 -40t1 -39.5t12 -36.5q2 -5 4.5 -7t4.5 -4q4 4 6.5 10t4.5 13q2 8 4 16.5t2 17.5q2 8 3 17t3 20q0 20 -1.5 38.5t-10.5 38.5q-6 6 -8 11l-4 -8t-2 -9z" />
<glyph unicode="&#xb4;" horiz-adv-x="357" d="M262 749q-14 -15 -32 -26t-36 -20q-24 -10 -48.5 -17.5t-50.5 -12.5q-15 -4 -33.5 -5.5t-33.5 6.5q-11 6 -7.5 16.5t10.5 17.5q33 31 64 64q15 14 32.5 25t37.5 20q23 11 48 19t51 13q14 2 32.5 4t32.5 -5q13 -7 9.5 -17.5t-10.5 -17.5q-17 -17 -33 -32.5t-33 -31.5z" />
<glyph unicode="&#xba;" horiz-adv-x="328" d="M311 531q0 -6 -0.5 -12t-2.5 -10q-12 -45 -45 -69q-11 -8 -25 -14.5t-27 -8.5q-26 -6 -53 -7.5t-55 5.5q-32 3 -54 25q-11 11 -17.5 23.5t-11.5 25.5q-5 19 -5 39.5t3.5 41.5t10 41.5t14.5 39.5q9 22 29.5 33t41.5 16q35 8 71.5 9t68.5 -12q13 -7 24.5 -15t18.5 -19 q6 -11 10.5 -22t6.5 -24q4 -30 0 -60q0 -6 -0.5 -12.5t-2.5 -13.5zM163 634q-6 -18 -11.5 -38t-7.5 -40t1 -39.5t12 -36.5q2 -5 4.5 -7t4.5 -4q4 4 6.5 10t4.5 13q2 8 4 16.5t2 17.5q2 8 3 17t3 20q0 20 -1.5 38.5t-10.5 38.5q-6 6 -8 11l-4 -8t-2 -9z" />
<glyph unicode="&#xbb;" horiz-adv-x="873" d="M854 366q9 -10 0 -20q-2 -2 -4.5 -4t-4.5 -4q-77 -69 -153 -137.5t-154 -137.5q-11 -11 -26 -15.5t-29 -6.5q-45 -7 -94 -4q-18 2 -37 5.5t-36 11.5l-7.5 5t-7 6.5t-2.5 8t5 8.5l9 9q75 66 148.5 132.5t148.5 133.5q-60 69 -120.5 136.5t-120.5 135.5q-11 12 -0.5 20.5 t28 13.5t35.5 8t22 3q47 5 93 -3q13 -2 30 -6.5t26 -15.5q63 -72 125.5 -142t125.5 -141zM571 346q-2 -2 -4.5 -4t-5.5 -4q-77 -69 -153 -137.5t-153 -137.5q-11 -11 -26 -15.5t-30 -6.5q-44 -7 -94 -4q-18 2 -36.5 5.5t-35.5 11.5q-7 4 -14.5 12t1.5 16q4 3 10 9 q75 66 148.5 132.5t148.5 133.5q-61 69 -121 136.5t-121 135.5q-11 12 -0.5 20.5t28 13.5t35.5 8t22 3q47 5 94 -3q13 -2 29.5 -6.5t26.5 -15.5q63 -72 125.5 -142t125.5 -141q9 -10 0 -20z" />
<glyph unicode="&#xbf;" horiz-adv-x="600" d="M579 325q13 -2 20 -8t5 -21q-6 -26 -16.5 -50.5t-23.5 -46.5q-17 -30 -38 -53.5t-47 -42.5q-45 -35 -97 -57q-34 -15 -72 -27t-76 -19q-28 -3 -57.5 -5t-58 2t-54 16t-44.5 35q-21 28 -25.5 61t0.5 65q2 13 4 25.5t7 25.5q2 8 6 16.5t8 14.5q9 15 17.5 29t19.5 25 q20 17 42.5 32t46.5 28v74q0 17 9 27t22 19q20 15 44 27.5t50 20.5q23 9 50 16t53 7q3 1 12 1.5t18 -1t16.5 -5t7.5 -9.5v-128q0 -15 -10.5 -25t-21.5 -21q-15 -8 -28.5 -16.5t-28.5 -14.5q-11 -5 -22.5 -10t-22.5 -10q-8 -11 -12 -29q-4 -11 -5 -21t-3 -21q0 -28 5.5 -53.5 t22.5 -46.5q7 17 12.5 34t10.5 34q9 22 29 32q14 9 25 17q26 15 53 26t55 19q22 5 45 9.5t47 2.5zM200 598q-7 2 -20.5 8.5t-13.5 17.5v51q0 6 4 10.5t9.5 7.5t11.5 5l9 3q21 6 42.5 8.5t42.5 2.5q22 0 44 -2.5t42 -8.5q4 -1 10.5 -3t12.5 -5t10 -7.5t4 -10.5v-51 q0 -6 -4 -10t-10 -7.5t-12.5 -5.5t-10.5 -3q-20 -6 -42 -8.5t-44 -2.5q-21 0 -42.5 2.5t-42.5 8.5z" />
<glyph unicode="&#xc0;" horiz-adv-x="690" d="M0 0zM701 106q2 -7 -1 -13.5t-8 -12.5t-11.5 -11t-10.5 -8q-21 -16 -45.5 -27.5t-49.5 -20.5q-25 -10 -51.5 -16t-52.5 -8q-5 0 -12.5 -0.5t-16 1t-15 4.5t-8.5 10q-10 32 -19 65t-19 66q-7 25 -14 49.5t-14 49.5h-127q-11 -35 -21 -70.5t-20 -70.5q-5 -16 -24 -28.5 t-32 -20.5q-25 -14 -52 -25t-55 -19q-6 -2 -27.5 -6.5t-43 -5.5t-37 4.5t-10.5 24.5q35 120 70.5 238.5t79.5 235.5q6 15 11.5 30t12.5 29q16 34 46 58q28 23 59 42t64 35t69.5 28.5t72.5 17.5q25 4 51.5 5.5t49.5 -9.5q23 -10 32.5 -33.5t17.5 -45.5q10 -28 18.5 -55.5 t17.5 -56.5q33 -107 64 -214t61 -216zM230 603h1h-1zM339 326q-8 25 -15 50t-15 51q-5 14 -8.5 28t-8.5 28q-8 -26 -16.5 -51t-16.5 -50l-18 -57q5 1 8.5 1h8.5h81zM169 836q-17 16 -33 31.5t-33 32.5q-7 7 -10.5 17.5t9.5 17.5q14 7 32.5 5t32.5 -4q26 -5 51 -13t48 -19 q20 -9 37.5 -20t32.5 -25q31 -33 64 -64q7 -7 10.5 -17.5t-7.5 -16.5q-15 -8 -33.5 -6.5t-33.5 5.5q-26 5 -50.5 12.5t-48.5 17.5q-18 9 -36 20t-32 26z" />
<glyph unicode="&#xc1;" horiz-adv-x="750" d="M761 106q2 -7 -1 -13.5t-8 -12.5t-11.5 -11t-10.5 -8q-21 -16 -45.5 -27.5t-49.5 -20.5q-25 -10 -51.5 -16t-52.5 -8q-5 0 -12.5 -0.5t-16 1t-15 4.5t-8.5 10q-10 32 -19 65t-19 66q-7 25 -14 49.5t-14 49.5h-127q-11 -35 -21 -70.5t-20 -70.5q-5 -16 -24 -28.5 t-32 -20.5q-25 -14 -52 -25t-55 -19q-6 -2 -27.5 -6.5t-43 -5.5t-37 4.5t-10.5 24.5q35 120 70.5 238.5t79.5 235.5q6 15 11.5 30t12.5 29q16 34 46 58q28 23 59 42t64 35t69.5 28.5t72.5 17.5q25 4 51.5 5.5t49.5 -9.5q23 -10 32.5 -33.5t17.5 -45.5q10 -28 18.5 -55.5 t17.5 -56.5q33 -107 64 -214t61 -216zM290 603h1h-1zM399 326q-8 25 -15 50t-15 51q-5 14 -8.5 28t-8.5 28q-8 -26 -16.5 -51t-16.5 -50l-18 -57q5 1 8.5 1h8.5h81zM457 827q-14 -15 -32 -26t-36 -20q-24 -10 -48.5 -17.5t-50.5 -12.5q-15 -4 -33.5 -5.5t-33.5 6.5 q-11 6 -7.5 16.5t10.5 17.5q33 31 64 64q15 14 32.5 25t37.5 20q23 11 48 19t51 13q14 2 32.5 4t32.5 -5q13 -7 9.5 -17.5t-10.5 -17.5q-17 -17 -33 -32.5t-33 -31.5z" />
<glyph unicode="&#xc3;" horiz-adv-x="690" d="M0 0zM701 106q2 -7 -1 -13.5t-8 -12.5t-11.5 -11t-10.5 -8q-21 -16 -45.5 -27.5t-49.5 -20.5q-25 -10 -51.5 -16t-52.5 -8q-5 0 -12.5 -0.5t-16 1t-15 4.5t-8.5 10q-10 32 -19 65t-19 66q-7 25 -14 49.5t-14 49.5h-127q-11 -35 -21 -70.5t-20 -70.5q-5 -16 -24 -28.5 t-32 -20.5q-25 -14 -52 -25t-55 -19q-6 -2 -27.5 -6.5t-43 -5.5t-37 4.5t-10.5 24.5q35 120 70.5 238.5t79.5 235.5q6 15 11.5 30t12.5 29q16 34 46 58q28 23 59 42t64 35t69.5 28.5t72.5 17.5q25 4 51.5 5.5t49.5 -9.5q23 -10 32.5 -33.5t17.5 -45.5q10 -28 18.5 -55.5 t17.5 -56.5q33 -107 64 -214t61 -216zM230 603h1h-1zM339 326q-8 25 -15 50t-15 51q-5 14 -8.5 28t-8.5 28q-8 -26 -16.5 -51t-16.5 -50l-18 -57q5 1 8.5 1h8.5h81zM49 734q-19 0 -17 16.5t13 37t23.5 38.5t14.5 21q20 21 41 41.5t44 35.5q15 11 32 21t36 10h6h402 q19 0 17 -16.5t-12.5 -37t-23.5 -39t-15 -21.5q-20 -21 -41 -41t-44 -35q-15 -11 -31.5 -21t-36.5 -10h-6h-402v0z" />
<glyph unicode="&#xc8;" horiz-adv-x="651" d="M3 0zM641 222q13 0 16 -8t-0.5 -19.5t-11 -26t-15.5 -27t-15 -21.5t-9 -11q-38 -46 -85 -79q-14 -10 -32 -20t-36 -10h-7h-342q-26 -6 -50 -6q-21 -3 -43 5q-14 7 -8 23q4 47 8 93t9 93q3 28 6 55.5t6 56.5q-1 5 1 11q5 39 10 77.5t12 76.5q4 22 8.5 44.5t12.5 43.5 q11 26 33 42t45 31q45 29 95.5 49.5t104.5 23.5h22.5t23.5 -7h266q19 0 17.5 -16.5t-12.5 -37t-24 -39t-16 -21.5q-19 -22 -40 -41.5t-45 -36.5q-14 -11 -31.5 -20.5t-36.5 -9.5h-153q-2 -7 -2.5 -22t-1.5 -22h249q19 0 17 -13.5t-12.5 -31t-23.5 -33t-16 -18.5 q-19 -22 -40.5 -41.5t-44.5 -36.5q-14 -11 -32 -8.5t-36 2.5h-86q0 -3 -0.5 -9t-1 -13t-0.5 -13v-9h347v0zM243 821q-17 16 -33 31.5t-33 32.5q-7 7 -10.5 17.5t9.5 17.5q14 7 32.5 5t32.5 -4q26 -5 51 -13t48 -19q20 -9 37.5 -20t32.5 -25q31 -33 64 -64q7 -7 10.5 -17.5 t-7.5 -16.5q-15 -8 -33.5 -6.5t-33.5 5.5q-26 5 -50.5 12.5t-48.5 17.5q-18 9 -36 20t-32 26z" />
<glyph unicode="&#xc9;" horiz-adv-x="651" d="M641 222q13 0 16 -8t-0.5 -19.5t-11 -26t-15.5 -27t-15 -21.5t-9 -11q-38 -46 -85 -79q-14 -10 -32 -20t-36 -10h-7h-342q-26 -6 -50 -6q-21 -3 -43 5q-14 7 -8 23q4 47 8 93t9 93q3 28 6 55.5t6 56.5q-1 5 1 11q5 39 10 77.5t12 76.5q4 22 8.5 44.5t12.5 43.5 q11 26 33 42t45 31q45 29 95.5 49.5t104.5 23.5h22.5t23.5 -7h266q19 0 17.5 -16.5t-12.5 -37t-24 -39t-16 -21.5q-19 -22 -40 -41.5t-45 -36.5q-14 -11 -31.5 -20.5t-36.5 -9.5h-153q-2 -7 -2.5 -22t-1.5 -22h249q19 0 17 -13.5t-12.5 -31t-23.5 -33t-16 -18.5 q-19 -22 -40.5 -41.5t-44.5 -36.5q-14 -11 -32 -8.5t-36 2.5h-86q0 -3 -0.5 -9t-1 -13t-0.5 -13v-9h347zM489 832q-14 -15 -32 -26t-36 -20q-24 -10 -48.5 -17.5t-50.5 -12.5q-15 -4 -33.5 -5.5t-33.5 6.5q-11 6 -7.5 16.5t10.5 17.5q33 31 64 64q15 14 32.5 25t37.5 20 q23 11 48 19t51 13q14 2 32.5 4t32.5 -5q13 -7 9.5 -17.5t-10.5 -17.5q-17 -17 -33 -32.5t-33 -31.5z" />
<glyph unicode="&#xcc;" horiz-adv-x="354" d="M11 0zM331 684q18 0 27 -14q0 -4 -0.5 -7t-0.5 -6q-4 -37 -8 -73t-8 -73q-12 -106 -24.5 -210.5t-24.5 -210.5q-11 -20 -29 -32q-14 -10 -28.5 -18t-29.5 -15q-32 -15 -69.5 -27.5t-72.5 -12.5h-12.5t-15.5 1t-14.5 4t-9.5 10q-3 6 1 15q5 36 8.5 72t7.5 72 q13 106 25 210.5t24 210.5q11 20 29 32q7 5 13.5 8.5t12.5 8.5q53 29 108 44q21 6 44.5 10t46.5 1zM96 807q-17 16 -33 31.5t-33 32.5q-7 7 -10.5 17.5t9.5 17.5q14 7 32.5 5t32.5 -4q26 -5 51 -13t48 -19q20 -9 37.5 -20t32.5 -25q31 -33 64 -64q7 -7 10.5 -17.5 t-7.5 -16.5q-15 -8 -33.5 -6.5t-33.5 5.5q-26 5 -50.5 12.5t-48.5 17.5q-18 9 -36 20t-32 26z" />
<glyph unicode="&#xcd;" horiz-adv-x="354" d="M331 684q18 0 27 -14q0 -4 -0.5 -7t-0.5 -6q-4 -37 -8 -73t-8 -73q-12 -106 -24.5 -210.5t-24.5 -210.5q-11 -20 -29 -32q-14 -10 -28.5 -18t-29.5 -15q-32 -15 -69.5 -27.5t-72.5 -12.5h-12.5t-15.5 1t-14.5 4t-9.5 10q-3 6 1 15q5 36 8.5 72t7.5 72q13 106 25 210.5 t24 210.5q11 20 29 32q7 5 13.5 8.5t12.5 8.5q53 29 108 44q21 6 44.5 10t46.5 1zM339 828q-14 -15 -32 -26t-36 -20q-24 -10 -48.5 -17.5t-50.5 -12.5q-15 -4 -33.5 -5.5t-33.5 6.5q-11 6 -7.5 16.5t10.5 17.5q33 31 64 64q15 14 32.5 25t37.5 20q23 11 48 19t51 13 q14 2 32.5 4t32.5 -5q13 -7 9.5 -17.5t-10.5 -17.5q-17 -17 -33 -32.5t-33 -31.5z" />
<glyph unicode="&#xd1;" horiz-adv-x="944" d="M929 680q11 0 17 -4t11 -10v-14q-5 -36 -8.5 -72t-8.5 -70q-13 -107 -24 -210.5t-24 -208.5q-7 -8 -13.5 -16.5t-15.5 -14.5q-14 -9 -29 -17.5t-30 -16.5q-30 -13 -67 -25t-72 -12q-15 0 -28.5 0.5t-22.5 13.5q-64 75 -127 150t-125 150q-15 17 -28.5 32.5t-27.5 32.5 q-7 -68 -13 -137.5t-13 -139.5q-6 -8 -13 -16.5t-15 -14.5q-7 -5 -13 -9t-13 -8q-26 -15 -53 -25.5t-54 -17.5q-22 -6 -45 -9.5t-46 -1.5q-16 0 -25 14v14q4 45 8 91t9 93q12 138 33 272q5 23 10 45t13 43q8 26 30.5 42.5t46.5 31.5q38 26 80 42.5t87 25.5q9 1 20.5 2.5 t22.5 1t21 -3.5t18 -12q62 -75 124.5 -150t124.5 -150q2 0 3 -2t3 -4q4 50 10 97t12 96q10 18 29 31q11 8 25 17q26 13 53 23.5t55 19.5q21 6 43.5 9.5t44.5 1.5zM243 734q-19 0 -17 16.5t13 37t23.5 38.5t14.5 21q20 21 41 41.5t44 35.5q15 11 32 21t36 10h6h402 q19 0 17 -16.5t-12.5 -37t-23.5 -39t-15 -21.5q-20 -21 -41 -41t-44 -35q-15 -11 -31.5 -21t-36.5 -10h-6h-402z" />
<glyph unicode="&#xd2;" d="M0 0zM801 578q27 -43 35 -90.5t3 -97.5q-10 -84 -55.5 -149.5t-110.5 -113.5t-142.5 -79.5t-151.5 -47.5q-62 -14 -124 -11h-11t-11 1q-28 3 -54.5 9.5t-51.5 17.5q-43 19 -78 51.5t-56 74.5q-24 47 -28.5 98.5t7 101.5t36.5 96t61 82q62 63 140 104t162 65 q70 20 143.5 24t142.5 -20q45 -16 82.5 -45.5t61.5 -70.5zM387 574q-16 4 -35 6q-2 0 -4.5 0.5t-4.5 0.5q-2 -2 -3 -2l-6 -6l-8 -8t-8 -9q-5 -6 -10 -12.5t-10 -12.5q-45 -68 -52 -147q-2 -54 15 -103.5t53 -89.5q43 -43 104 -62q16 -4 34 -6q3 -1 10 -1q2 2 3 2l6 6l8 8 t8 9l10 12t10 13q42 64 51 141q1 2 1 5q2 54 -15 104t-53 90q-43 43 -104 62zM328 829q-17 16 -33 31.5t-33 32.5q-7 7 -10.5 17.5t9.5 17.5q14 7 32.5 5t32.5 -4q26 -5 51 -13t48 -19q20 -9 37.5 -20t32.5 -25q31 -33 64 -64q7 -7 10.5 -17.5t-7.5 -16.5q-15 -8 -33.5 -6.5 t-33.5 5.5q-26 5 -50.5 12.5t-48.5 17.5q-18 9 -36 20t-32 26z" />
<glyph unicode="&#xd3;" d="M801 578q27 -43 35 -90.5t3 -97.5q-10 -84 -55.5 -149.5t-110.5 -113.5t-142.5 -79.5t-151.5 -47.5q-62 -14 -124 -11h-11t-11 1q-28 3 -54.5 9.5t-51.5 17.5q-43 19 -78 51.5t-56 74.5q-24 47 -28.5 98.5t7 101.5t36.5 96t61 82q62 63 140 104t162 65q70 20 143.5 24 t142.5 -20q45 -16 82.5 -45.5t61.5 -70.5zM387 574q-16 4 -35 6q-2 0 -4.5 0.5t-4.5 0.5q-2 -2 -3 -2l-6 -6l-8 -8t-8 -9q-5 -6 -10 -12.5t-10 -12.5q-45 -68 -52 -147q-2 -54 15 -103.5t53 -89.5q43 -43 104 -62q16 -4 34 -6q3 -1 10 -1q2 2 3 2l6 6l8 8t8 9l10 12t10 13 q42 64 51 141q1 2 1 5q2 54 -15 104t-53 90q-43 43 -104 62zM551 830q-14 -15 -32 -26t-36 -20q-24 -10 -48.5 -17.5t-50.5 -12.5q-15 -4 -33.5 -5.5t-33.5 6.5q-11 6 -7.5 16.5t10.5 17.5q33 31 64 64q15 14 32.5 25t37.5 20q23 11 48 19t51 13q14 2 32.5 4t32.5 -5 q13 -7 9.5 -17.5t-10.5 -17.5q-17 -17 -33 -32.5t-33 -31.5z" />
<glyph unicode="&#xd5;" d="M0 0zM801 578q27 -43 35 -90.5t3 -97.5q-10 -84 -55.5 -149.5t-110.5 -113.5t-142.5 -79.5t-151.5 -47.5q-62 -14 -124 -11h-11t-11 1q-28 3 -54.5 9.5t-51.5 17.5q-43 19 -78 51.5t-56 74.5q-24 47 -28.5 98.5t7 101.5t36.5 96t61 82q62 63 140 104t162 65 q70 20 143.5 24t142.5 -20q45 -16 82.5 -45.5t61.5 -70.5zM387 574q-16 4 -35 6q-2 0 -4.5 0.5t-4.5 0.5q-2 -2 -3 -2l-6 -6l-8 -8t-8 -9q-5 -6 -10 -12.5t-10 -12.5q-45 -68 -52 -147q-2 -54 15 -103.5t53 -89.5q43 -43 104 -62q16 -4 34 -6q3 -1 10 -1q2 2 3 2l6 6l8 8 t8 9l10 12t10 13q42 64 51 141q1 2 1 5q2 54 -15 104t-53 90q-43 43 -104 62zM114 734q-19 0 -17 16.5t13 37t23.5 38.5t14.5 21q20 21 41 41.5t44 35.5q15 11 32 21t36 10h6h402q19 0 17 -16.5t-12.5 -37t-23.5 -39t-15 -21.5q-20 -21 -41 -41t-44 -35q-15 -11 -31.5 -21 t-36.5 -10h-6h-402v0z" />
<glyph unicode="&#xd9;" horiz-adv-x="771" d="M7 0zM784 678q0 -4 -0.5 -7t-0.5 -6q-8 -76 -16 -151.5t-16 -150.5q0 -4 -1 -6q-1 -7 -2 -13t-3 -12q-16 -59 -50.5 -106.5t-80.5 -85.5q-29 -25 -62 -45t-68 -36q-44 -20 -90 -35.5t-94 -23.5t-100 -7t-97 22q-32 15 -53.5 43.5t-31.5 61.5q-9 31 -10.5 64t0 66 t5.5 66.5t7 65.5q5 52 9.5 103t9.5 103q11 20 29 32q7 5 13.5 8.5t13.5 8.5q49 28 107 44q22 6 45 10t46 1q18 0 27 -14q0 -9 -1 -13q-7 -79 -15 -158t-14 -158q-1 -24 -0.5 -49.5t5 -50t13.5 -47.5t25 -42q22 -20 51 -30q2 0 4.5 -0.5t4.5 -0.5q3 2 9 8q11 13 22 28 q34 51 46 115q8 78 16 154t16 154q6 10 13 18t17 14q7 5 13 8.5t13 8.5q52 29 107 44q22 6 45.5 10t46.5 1q18 0 27 -14zM303 749q-17 16 -33 31.5t-33 32.5q-7 7 -10.5 17.5t9.5 17.5q14 7 32.5 5t32.5 -4q26 -5 51 -13t48 -19q20 -9 37.5 -20t32.5 -25q31 -33 64 -64 q7 -7 10.5 -17.5t-7.5 -16.5q-15 -8 -33.5 -6.5t-33.5 5.5q-26 5 -50.5 12.5t-48.5 17.5q-18 9 -36 20t-32 26z" />
<glyph unicode="&#xda;" horiz-adv-x="771" d="M784 678q0 -4 -0.5 -7t-0.5 -6q-8 -76 -16 -151.5t-16 -150.5q0 -4 -1 -6q-1 -7 -2 -13t-3 -12q-16 -59 -50.5 -106.5t-80.5 -85.5q-29 -25 -62 -45t-68 -36q-44 -20 -90 -35.5t-94 -23.5t-100 -7t-97 22q-32 15 -53.5 43.5t-31.5 61.5q-9 31 -10.5 64t0 66t5.5 66.5 t7 65.5q5 52 9.5 103t9.5 103q11 20 29 32q7 5 13.5 8.5t13.5 8.5q49 28 107 44q22 6 45 10t46 1q18 0 27 -14q0 -9 -1 -13q-7 -79 -15 -158t-14 -158q-1 -24 -0.5 -49.5t5 -50t13.5 -47.5t25 -42q22 -20 51 -30q2 0 4.5 -0.5t4.5 -0.5q3 2 9 8q11 13 22 28q34 51 46 115 q8 78 16 154t16 154q6 10 13 18t17 14q7 5 13 8.5t13 8.5q52 29 107 44q22 6 45.5 10t46.5 1q18 0 27 -14zM544 829q-14 -15 -32 -26t-36 -20q-24 -10 -48.5 -17.5t-50.5 -12.5q-15 -4 -33.5 -5.5t-33.5 6.5q-11 6 -7.5 16.5t10.5 17.5q33 31 64 64q15 14 32.5 25t37.5 20 q23 11 48 19t51 13q14 2 32.5 4t32.5 -5q13 -7 9.5 -17.5t-10.5 -17.5q-17 -17 -33 -32.5t-33 -31.5z" />
<glyph unicode="&#xdd;" horiz-adv-x="751" d="M0 0zM693 627q6 -2 26 -8t38.5 -15.5t28.5 -21.5t-3 -25q-66 -68 -132.5 -135t-132.5 -136q-67 -68 -133.5 -135.5t-133.5 -136.5q-6 -6 -15 -8.5t-19 -4t-19.5 -1.5h-16.5q-28 0 -55.5 4t-54.5 11q-6 1 -26 7.5t-38 15.5t-28 21t3 26q61 63 122 124.5t122 124.5 q-51 59 -102.5 116.5t-103.5 116.5q-4 4 -0.5 11t9.5 13.5t12 11.5t8 7q21 15 44.5 26.5t47.5 19.5q23 9 48.5 15t51.5 8q14 2 26.5 -0.5t23.5 -13.5q31 -35 61.5 -69.5t61.5 -69.5q25 26 50 51t50 51q11 11 33.5 12.5t35.5 1.5q28 0 56 -4t54 -11zM590 749q-14 -15 -32 -26 t-36 -20q-24 -10 -48.5 -17.5t-50.5 -12.5q-15 -4 -33.5 -5.5t-33.5 6.5q-11 6 -7.5 16.5t10.5 17.5q33 31 64 64q15 14 32.5 25t37.5 20q23 11 48 19t51 13q14 2 32.5 4t32.5 -5q13 -7 9.5 -17.5t-10.5 -17.5q-17 -17 -33 -32.5t-33 -31.5z" />
<glyph unicode="&#xe0;" horiz-adv-x="690" d="M0 0zM701 106q2 -7 -1 -13.5t-8 -12.5t-11.5 -11t-10.5 -8q-21 -16 -45.5 -27.5t-49.5 -20.5q-25 -10 -51.5 -16t-52.5 -8q-5 0 -12.5 -0.5t-16 1t-15 4.5t-8.5 10q-10 32 -19 65t-19 66q-7 25 -14 49.5t-14 49.5h-127q-11 -35 -21 -70.5t-20 -70.5q-5 -16 -24 -28.5 t-32 -20.5q-25 -14 -52 -25t-55 -19q-6 -2 -27.5 -6.5t-43 -5.5t-37 4.5t-10.5 24.5q35 120 70.5 238.5t79.5 235.5q6 15 11.5 30t12.5 29q16 34 46 58q28 23 59 42t64 35t69.5 28.5t72.5 17.5q25 4 51.5 5.5t49.5 -9.5q23 -10 32.5 -33.5t17.5 -45.5q10 -28 18.5 -55.5 t17.5 -56.5q33 -107 64 -214t61 -216zM230 603h1h-1zM339 326q-8 25 -15 50t-15 51q-5 14 -8.5 28t-8.5 28q-8 -26 -16.5 -51t-16.5 -50l-18 -57q5 1 8.5 1h8.5h81zM169 836q-17 16 -33 31.5t-33 32.5q-7 7 -10.5 17.5t9.5 17.5q14 7 32.5 5t32.5 -4q26 -5 51 -13t48 -19 q20 -9 37.5 -20t32.5 -25q31 -33 64 -64q7 -7 10.5 -17.5t-7.5 -16.5q-15 -8 -33.5 -6.5t-33.5 5.5q-26 5 -50.5 12.5t-48.5 17.5q-18 9 -36 20t-32 26z" />
<glyph unicode="&#xe1;" horiz-adv-x="750" d="M761 106q2 -7 -1 -13.5t-8 -12.5t-11.5 -11t-10.5 -8q-21 -16 -45.5 -27.5t-49.5 -20.5q-25 -10 -51.5 -16t-52.5 -8q-5 0 -12.5 -0.5t-16 1t-15 4.5t-8.5 10q-10 32 -19 65t-19 66q-7 25 -14 49.5t-14 49.5h-127q-11 -35 -21 -70.5t-20 -70.5q-5 -16 -24 -28.5 t-32 -20.5q-25 -14 -52 -25t-55 -19q-6 -2 -27.5 -6.5t-43 -5.5t-37 4.5t-10.5 24.5q35 120 70.5 238.5t79.5 235.5q6 15 11.5 30t12.5 29q16 34 46 58q28 23 59 42t64 35t69.5 28.5t72.5 17.5q25 4 51.5 5.5t49.5 -9.5q23 -10 32.5 -33.5t17.5 -45.5q10 -28 18.5 -55.5 t17.5 -56.5q33 -107 64 -214t61 -216zM290 603h1h-1zM399 326q-8 25 -15 50t-15 51q-5 14 -8.5 28t-8.5 28q-8 -26 -16.5 -51t-16.5 -50l-18 -57q5 1 8.5 1h8.5h81zM457 827q-14 -15 -32 -26t-36 -20q-24 -10 -48.5 -17.5t-50.5 -12.5q-15 -4 -33.5 -5.5t-33.5 6.5 q-11 6 -7.5 16.5t10.5 17.5q33 31 64 64q15 14 32.5 25t37.5 20q23 11 48 19t51 13q14 2 32.5 4t32.5 -5q13 -7 9.5 -17.5t-10.5 -17.5q-17 -17 -33 -32.5t-33 -31.5z" />
<glyph unicode="&#xe3;" horiz-adv-x="690" d="M0 0zM701 106q2 -7 -1 -13.5t-8 -12.5t-11.5 -11t-10.5 -8q-21 -16 -45.5 -27.5t-49.5 -20.5q-25 -10 -51.5 -16t-52.5 -8q-5 0 -12.5 -0.5t-16 1t-15 4.5t-8.5 10q-10 32 -19 65t-19 66q-7 25 -14 49.5t-14 49.5h-127q-11 -35 -21 -70.5t-20 -70.5q-5 -16 -24 -28.5 t-32 -20.5q-25 -14 -52 -25t-55 -19q-6 -2 -27.5 -6.5t-43 -5.5t-37 4.5t-10.5 24.5q35 120 70.5 238.5t79.5 235.5q6 15 11.5 30t12.5 29q16 34 46 58q28 23 59 42t64 35t69.5 28.5t72.5 17.5q25 4 51.5 5.5t49.5 -9.5q23 -10 32.5 -33.5t17.5 -45.5q10 -28 18.5 -55.5 t17.5 -56.5q33 -107 64 -214t61 -216zM230 603h1h-1zM339 326q-8 25 -15 50t-15 51q-5 14 -8.5 28t-8.5 28q-8 -26 -16.5 -51t-16.5 -50l-18 -57q5 1 8.5 1h8.5h81zM49 734q-19 0 -17 16.5t13 37t23.5 38.5t14.5 21q20 21 41 41.5t44 35.5q15 11 32 21t36 10h6h402 q19 0 17 -16.5t-12.5 -37t-23.5 -39t-15 -21.5q-20 -21 -41 -41t-44 -35q-15 -11 -31.5 -21t-36.5 -10h-6h-402v0z" />
<glyph unicode="&#xe8;" horiz-adv-x="651" d="M3 0zM641 222q13 0 16 -8t-0.5 -19.5t-11 -26t-15.5 -27t-15 -21.5t-9 -11q-38 -46 -85 -79q-14 -10 -32 -20t-36 -10h-7h-342q-26 -6 -50 -6q-21 -3 -43 5q-14 7 -8 23q4 47 8 93t9 93q3 28 6 55.5t6 56.5q-1 5 1 11q5 39 10 77.5t12 76.5q4 22 8.5 44.5t12.5 43.5 q11 26 33 42t45 31q45 29 95.5 49.5t104.5 23.5h22.5t23.5 -7h266q19 0 17.5 -16.5t-12.5 -37t-24 -39t-16 -21.5q-19 -22 -40 -41.5t-45 -36.5q-14 -11 -31.5 -20.5t-36.5 -9.5h-153q-2 -7 -2.5 -22t-1.5 -22h249q19 0 17 -13.5t-12.5 -31t-23.5 -33t-16 -18.5 q-19 -22 -40.5 -41.5t-44.5 -36.5q-14 -11 -32 -8.5t-36 2.5h-86q0 -3 -0.5 -9t-1 -13t-0.5 -13v-9h347v0zM243 821q-17 16 -33 31.5t-33 32.5q-7 7 -10.5 17.5t9.5 17.5q14 7 32.5 5t32.5 -4q26 -5 51 -13t48 -19q20 -9 37.5 -20t32.5 -25q31 -33 64 -64q7 -7 10.5 -17.5 t-7.5 -16.5q-15 -8 -33.5 -6.5t-33.5 5.5q-26 5 -50.5 12.5t-48.5 17.5q-18 9 -36 20t-32 26z" />
<glyph unicode="&#xe9;" horiz-adv-x="651" d="M641 222q13 0 16 -8t-0.5 -19.5t-11 -26t-15.5 -27t-15 -21.5t-9 -11q-38 -46 -85 -79q-14 -10 -32 -20t-36 -10h-7h-342q-26 -6 -50 -6q-21 -3 -43 5q-14 7 -8 23q4 47 8 93t9 93q3 28 6 55.5t6 56.5q-1 5 1 11q5 39 10 77.5t12 76.5q4 22 8.5 44.5t12.5 43.5 q11 26 33 42t45 31q45 29 95.5 49.5t104.5 23.5h22.5t23.5 -7h266q19 0 17.5 -16.5t-12.5 -37t-24 -39t-16 -21.5q-19 -22 -40 -41.5t-45 -36.5q-14 -11 -31.5 -20.5t-36.5 -9.5h-153q-2 -7 -2.5 -22t-1.5 -22h249q19 0 17 -13.5t-12.5 -31t-23.5 -33t-16 -18.5 q-19 -22 -40.5 -41.5t-44.5 -36.5q-14 -11 -32 -8.5t-36 2.5h-86q0 -3 -0.5 -9t-1 -13t-0.5 -13v-9h347zM489 832q-14 -15 -32 -26t-36 -20q-24 -10 -48.5 -17.5t-50.5 -12.5q-15 -4 -33.5 -5.5t-33.5 6.5q-11 6 -7.5 16.5t10.5 17.5q33 31 64 64q15 14 32.5 25t37.5 20 q23 11 48 19t51 13q14 2 32.5 4t32.5 -5q13 -7 9.5 -17.5t-10.5 -17.5q-17 -17 -33 -32.5t-33 -31.5z" />
<glyph unicode="&#xec;" horiz-adv-x="354" d="M11 0zM331 684q18 0 27 -14q0 -4 -0.5 -7t-0.5 -6q-4 -37 -8 -73t-8 -73q-12 -106 -24.5 -210.5t-24.5 -210.5q-11 -20 -29 -32q-14 -10 -28.5 -18t-29.5 -15q-32 -15 -69.5 -27.5t-72.5 -12.5h-12.5t-15.5 1t-14.5 4t-9.5 10q-3 6 1 15q5 36 8.5 72t7.5 72 q13 106 25 210.5t24 210.5q11 20 29 32q7 5 13.5 8.5t12.5 8.5q53 29 108 44q21 6 44.5 10t46.5 1zM96 807q-17 16 -33 31.5t-33 32.5q-7 7 -10.5 17.5t9.5 17.5q14 7 32.5 5t32.5 -4q26 -5 51 -13t48 -19q20 -9 37.5 -20t32.5 -25q31 -33 64 -64q7 -7 10.5 -17.5 t-7.5 -16.5q-15 -8 -33.5 -6.5t-33.5 5.5q-26 5 -50.5 12.5t-48.5 17.5q-18 9 -36 20t-32 26z" />
<glyph unicode="&#xed;" horiz-adv-x="354" d="M331 684q18 0 27 -14q0 -4 -0.5 -7t-0.5 -6q-4 -37 -8 -73t-8 -73q-12 -106 -24.5 -210.5t-24.5 -210.5q-11 -20 -29 -32q-14 -10 -28.5 -18t-29.5 -15q-32 -15 -69.5 -27.5t-72.5 -12.5h-12.5t-15.5 1t-14.5 4t-9.5 10q-3 6 1 15q5 36 8.5 72t7.5 72q13 106 25 210.5 t24 210.5q11 20 29 32q7 5 13.5 8.5t12.5 8.5q53 29 108 44q21 6 44.5 10t46.5 1zM339 828q-14 -15 -32 -26t-36 -20q-24 -10 -48.5 -17.5t-50.5 -12.5q-15 -4 -33.5 -5.5t-33.5 6.5q-11 6 -7.5 16.5t10.5 17.5q33 31 64 64q15 14 32.5 25t37.5 20q23 11 48 19t51 13 q14 2 32.5 4t32.5 -5q13 -7 9.5 -17.5t-10.5 -17.5q-17 -17 -33 -32.5t-33 -31.5z" />
<glyph unicode="&#xf1;" horiz-adv-x="944" d="M929 680q11 0 17 -4t11 -10v-14q-5 -36 -8.5 -72t-8.5 -70q-13 -107 -24 -210.5t-24 -208.5q-7 -8 -13.5 -16.5t-15.5 -14.5q-14 -9 -29 -17.5t-30 -16.5q-30 -13 -67 -25t-72 -12q-15 0 -28.5 0.5t-22.5 13.5q-64 75 -127 150t-125 150q-15 17 -28.5 32.5t-27.5 32.5 q-7 -68 -13 -137.5t-13 -139.5q-6 -8 -13 -16.5t-15 -14.5q-7 -5 -13 -9t-13 -8q-26 -15 -53 -25.5t-54 -17.5q-22 -6 -45 -9.5t-46 -1.5q-16 0 -25 14v14q4 45 8 91t9 93q12 138 33 272q5 23 10 45t13 43q8 26 30.5 42.5t46.5 31.5q38 26 80 42.5t87 25.5q9 1 20.5 2.5 t22.5 1t21 -3.5t18 -12q62 -75 124.5 -150t124.5 -150q2 0 3 -2t3 -4q4 50 10 97t12 96q10 18 29 31q11 8 25 17q26 13 53 23.5t55 19.5q21 6 43.5 9.5t44.5 1.5zM243 734q-19 0 -17 16.5t13 37t23.5 38.5t14.5 21q20 21 41 41.5t44 35.5q15 11 32 21t36 10h6h402 q19 0 17 -16.5t-12.5 -37t-23.5 -39t-15 -21.5q-20 -21 -41 -41t-44 -35q-15 -11 -31.5 -21t-36.5 -10h-6h-402z" />
<glyph unicode="&#xf2;" d="M0 0zM801 578q27 -43 35 -90.5t3 -97.5q-10 -84 -55.5 -149.5t-110.5 -113.5t-142.5 -79.5t-151.5 -47.5q-62 -14 -124 -11h-11t-11 1q-28 3 -54.5 9.5t-51.5 17.5q-43 19 -78 51.5t-56 74.5q-24 47 -28.5 98.5t7 101.5t36.5 96t61 82q62 63 140 104t162 65 q70 20 143.5 24t142.5 -20q45 -16 82.5 -45.5t61.5 -70.5zM387 574q-16 4 -35 6q-2 0 -4.5 0.5t-4.5 0.5q-2 -2 -3 -2l-6 -6l-8 -8t-8 -9q-5 -6 -10 -12.5t-10 -12.5q-45 -68 -52 -147q-2 -54 15 -103.5t53 -89.5q43 -43 104 -62q16 -4 34 -6q3 -1 10 -1q2 2 3 2l6 6l8 8 t8 9l10 12t10 13q42 64 51 141q1 2 1 5q2 54 -15 104t-53 90q-43 43 -104 62zM328 829q-17 16 -33 31.5t-33 32.5q-7 7 -10.5 17.5t9.5 17.5q14 7 32.5 5t32.5 -4q26 -5 51 -13t48 -19q20 -9 37.5 -20t32.5 -25q31 -33 64 -64q7 -7 10.5 -17.5t-7.5 -16.5q-15 -8 -33.5 -6.5 t-33.5 5.5q-26 5 -50.5 12.5t-48.5 17.5q-18 9 -36 20t-32 26z" />
<glyph unicode="&#xf3;" d="M801 578q27 -43 35 -90.5t3 -97.5q-10 -84 -55.5 -149.5t-110.5 -113.5t-142.5 -79.5t-151.5 -47.5q-62 -14 -124 -11h-11t-11 1q-28 3 -54.5 9.5t-51.5 17.5q-43 19 -78 51.5t-56 74.5q-24 47 -28.5 98.5t7 101.5t36.5 96t61 82q62 63 140 104t162 65q70 20 143.5 24 t142.5 -20q45 -16 82.5 -45.5t61.5 -70.5zM387 574q-16 4 -35 6q-2 0 -4.5 0.5t-4.5 0.5q-2 -2 -3 -2l-6 -6l-8 -8t-8 -9q-5 -6 -10 -12.5t-10 -12.5q-45 -68 -52 -147q-2 -54 15 -103.5t53 -89.5q43 -43 104 -62q16 -4 34 -6q3 -1 10 -1q2 2 3 2l6 6l8 8t8 9l10 12t10 13 q42 64 51 141q1 2 1 5q2 54 -15 104t-53 90q-43 43 -104 62zM551 830q-14 -15 -32 -26t-36 -20q-24 -10 -48.5 -17.5t-50.5 -12.5q-15 -4 -33.5 -5.5t-33.5 6.5q-11 6 -7.5 16.5t10.5 17.5q33 31 64 64q15 14 32.5 25t37.5 20q23 11 48 19t51 13q14 2 32.5 4t32.5 -5 q13 -7 9.5 -17.5t-10.5 -17.5q-17 -17 -33 -32.5t-33 -31.5z" />
<glyph unicode="&#xf5;" d="M0 0zM801 578q27 -43 35 -90.5t3 -97.5q-10 -84 -55.5 -149.5t-110.5 -113.5t-142.5 -79.5t-151.5 -47.5q-62 -14 -124 -11h-11t-11 1q-28 3 -54.5 9.5t-51.5 17.5q-43 19 -78 51.5t-56 74.5q-24 47 -28.5 98.5t7 101.5t36.5 96t61 82q62 63 140 104t162 65 q70 20 143.5 24t142.5 -20q45 -16 82.5 -45.5t61.5 -70.5zM387 574q-16 4 -35 6q-2 0 -4.5 0.5t-4.5 0.5q-2 -2 -3 -2l-6 -6l-8 -8t-8 -9q-5 -6 -10 -12.5t-10 -12.5q-45 -68 -52 -147q-2 -54 15 -103.5t53 -89.5q43 -43 104 -62q16 -4 34 -6q3 -1 10 -1q2 2 3 2l6 6l8 8 t8 9l10 12t10 13q42 64 51 141q1 2 1 5q2 54 -15 104t-53 90q-43 43 -104 62zM114 734q-19 0 -17 16.5t13 37t23.5 38.5t14.5 21q20 21 41 41.5t44 35.5q15 11 32 21t36 10h6h402q19 0 17 -16.5t-12.5 -37t-23.5 -39t-15 -21.5q-20 -21 -41 -41t-44 -35q-15 -11 -31.5 -21 t-36.5 -10h-6h-402v0z" />
<glyph unicode="&#xf7;" horiz-adv-x="413" d="M20 0zM304 161q4 -2 11 -6t13.5 -9.5t10.5 -11.5t3 -12q-7 -26 -13 -52t-13 -52q-4 -14 -21 -18t-28 -5q-26 -3 -53.5 -1.5t-53.5 6.5t-52 12.5t-50 19.5l-11 5.5t-13.5 9t-11 11.5t-2.5 13q7 26 13 51.5t13 51.5q4 14 21 18t28 5q26 4 53.5 2t53.5 -7t52 -12t50 -19z M356 573l11 -5.5t13.5 -9t10.5 -11.5t2 -13q-6 -26 -12.5 -51.5t-12.5 -51.5q-4 -14 -21 -18t-28 -6q-27 -3 -54 -1.5t-53 6.5t-52.5 12.5t-50.5 19.5l-11 5.5t-13.5 9t-10.5 11.5t-2 13q6 26 12.5 51.5t12.5 51.5q4 14 21 18t28 6q27 3 54 1t53 -7t52.5 -12t50.5 -19z" />
<glyph unicode="&#xf9;" horiz-adv-x="771" d="M7 0zM784 678q0 -4 -0.5 -7t-0.5 -6q-8 -76 -16 -151.5t-16 -150.5q0 -4 -1 -6q-1 -7 -2 -13t-3 -12q-16 -59 -50.5 -106.5t-80.5 -85.5q-29 -25 -62 -45t-68 -36q-44 -20 -90 -35.5t-94 -23.5t-100 -7t-97 22q-32 15 -53.5 43.5t-31.5 61.5q-9 31 -10.5 64t0 66 t5.5 66.5t7 65.5q5 52 9.5 103t9.5 103q11 20 29 32q7 5 13.5 8.5t13.5 8.5q49 28 107 44q22 6 45 10t46 1q18 0 27 -14q0 -9 -1 -13q-7 -79 -15 -158t-14 -158q-1 -24 -0.5 -49.5t5 -50t13.5 -47.5t25 -42q22 -20 51 -30q2 0 4.5 -0.5t4.5 -0.5q3 2 9 8q11 13 22 28 q34 51 46 115q8 78 16 154t16 154q6 10 13 18t17 14q7 5 13 8.5t13 8.5q52 29 107 44q22 6 45.5 10t46.5 1q18 0 27 -14zM303 749q-17 16 -33 31.5t-33 32.5q-7 7 -10.5 17.5t9.5 17.5q14 7 32.5 5t32.5 -4q26 -5 51 -13t48 -19q20 -9 37.5 -20t32.5 -25q31 -33 64 -64 q7 -7 10.5 -17.5t-7.5 -16.5q-15 -8 -33.5 -6.5t-33.5 5.5q-26 5 -50.5 12.5t-48.5 17.5q-18 9 -36 20t-32 26z" />
<glyph unicode="&#xfa;" horiz-adv-x="771" d="M784 678q0 -4 -0.5 -7t-0.5 -6q-8 -76 -16 -151.5t-16 -150.5q0 -4 -1 -6q-1 -7 -2 -13t-3 -12q-16 -59 -50.5 -106.5t-80.5 -85.5q-29 -25 -62 -45t-68 -36q-44 -20 -90 -35.5t-94 -23.5t-100 -7t-97 22q-32 15 -53.5 43.5t-31.5 61.5q-9 31 -10.5 64t0 66t5.5 66.5 t7 65.5q5 52 9.5 103t9.5 103q11 20 29 32q7 5 13.5 8.5t13.5 8.5q49 28 107 44q22 6 45 10t46 1q18 0 27 -14q0 -9 -1 -13q-7 -79 -15 -158t-14 -158q-1 -24 -0.5 -49.5t5 -50t13.5 -47.5t25 -42q22 -20 51 -30q2 0 4.5 -0.5t4.5 -0.5q3 2 9 8q11 13 22 28q34 51 46 115 q8 78 16 154t16 154q6 10 13 18t17 14q7 5 13 8.5t13 8.5q52 29 107 44q22 6 45.5 10t46.5 1q18 0 27 -14zM544 829q-14 -15 -32 -26t-36 -20q-24 -10 -48.5 -17.5t-50.5 -12.5q-15 -4 -33.5 -5.5t-33.5 6.5q-11 6 -7.5 16.5t10.5 17.5q33 31 64 64q15 14 32.5 25t37.5 20 q23 11 48 19t51 13q14 2 32.5 4t32.5 -5q13 -7 9.5 -17.5t-10.5 -17.5q-17 -17 -33 -32.5t-33 -31.5z" />
<glyph unicode="&#xfd;" horiz-adv-x="751" d="M0 0zM693 627q6 -2 26 -8t38.5 -15.5t28.5 -21.5t-3 -25q-66 -68 -132.5 -135t-132.5 -136q-67 -68 -133.5 -135.5t-133.5 -136.5q-6 -6 -15 -8.5t-19 -4t-19.5 -1.5h-16.5q-28 0 -55.5 4t-54.5 11q-6 1 -26 7.5t-38 15.5t-28 21t3 26q61 63 122 124.5t122 124.5 q-51 59 -102.5 116.5t-103.5 116.5q-4 4 -0.5 11t9.5 13.5t12 11.5t8 7q21 15 44.5 26.5t47.5 19.5q23 9 48.5 15t51.5 8q14 2 26.5 -0.5t23.5 -13.5q31 -35 61.5 -69.5t61.5 -69.5q25 26 50 51t50 51q11 11 33.5 12.5t35.5 1.5q28 0 56 -4t54 -11zM590 749q-14 -15 -32 -26 t-36 -20q-24 -10 -48.5 -17.5t-50.5 -12.5q-15 -4 -33.5 -5.5t-33.5 6.5q-11 6 -7.5 16.5t10.5 17.5q33 31 64 64q15 14 32.5 25t37.5 20q23 11 48 19t51 13q14 2 32.5 4t32.5 -5q13 -7 9.5 -17.5t-10.5 -17.5q-17 -17 -33 -32.5t-33 -31.5z" />
<glyph unicode="&#x2dc;" horiz-adv-x="873" d="M140 734q-19 0 -17 16.5t13 37t23.5 38.5t14.5 21q20 21 41 41.5t44 35.5q15 11 32 21t36 10h6h402q19 0 17 -16.5t-12.5 -37t-23.5 -39t-15 -21.5q-20 -21 -41 -41t-44 -35q-15 -11 -31.5 -21t-36.5 -10h-6h-402v0z" />
<glyph unicode="&#x2000;" horiz-adv-x="477" />
<glyph unicode="&#x2001;" horiz-adv-x="955" />
<glyph unicode="&#x2002;" horiz-adv-x="477" />
<glyph unicode="&#x2003;" horiz-adv-x="955" />
<glyph unicode="&#x2004;" horiz-adv-x="318" />
<glyph unicode="&#x2005;" horiz-adv-x="238" />
<glyph unicode="&#x2006;" horiz-adv-x="159" />
<glyph unicode="&#x2007;" horiz-adv-x="159" />
<glyph unicode="&#x2008;" horiz-adv-x="119" />
<glyph unicode="&#x2009;" horiz-adv-x="191" />
<glyph unicode="&#x200a;" horiz-adv-x="53" />
<glyph unicode="&#x2010;" horiz-adv-x="611" d="M72 327h-12.5t-15.5 1t-14.5 4t-9.5 10t0 13.5t8.5 12.5t11.5 11t10 8q22 16 46 28t50 21q24 8 51 16t53 8h6h283h13t16 -1t14.5 -4t8.5 -10q3 -7 0 -13.5t-8.5 -12.5t-11.5 -11t-10 -8q-22 -16 -46 -28t-49 -21q-24 -9 -51.5 -16.5t-53.5 -7.5h-6h-283v0z" />
<glyph unicode="&#x2011;" horiz-adv-x="611" d="M72 327h-12.5t-15.5 1t-14.5 4t-9.5 10t0 13.5t8.5 12.5t11.5 11t10 8q22 16 46 28t50 21q24 8 51 16t53 8h6h283h13t16 -1t14.5 -4t8.5 -10q3 -7 0 -13.5t-8.5 -12.5t-11.5 -11t-10 -8q-22 -16 -46 -28t-49 -21q-24 -9 -51.5 -16.5t-53.5 -7.5h-6h-283v0z" />
<glyph unicode="&#x2012;" horiz-adv-x="611" d="M72 327h-12.5t-15.5 1t-14.5 4t-9.5 10t0 13.5t8.5 12.5t11.5 11t10 8q22 16 46 28t50 21q24 8 51 16t53 8h6h283h13t16 -1t14.5 -4t8.5 -10q3 -7 0 -13.5t-8.5 -12.5t-11.5 -11t-10 -8q-22 -16 -46 -28t-49 -21q-24 -9 -51.5 -16.5t-53.5 -7.5h-6h-283v0z" />
<glyph unicode="&#x2013;" horiz-adv-x="536" d="M65 327h-11.5t-13.5 1t-12.5 4t-8.5 10q-2 7 0.5 13.5t7.5 12.5t10 11l8 8q20 16 40.5 28t43.5 21q21 8 44.5 16t46.5 8h5h246h12t14 -1t12.5 -4t7.5 -10t-0.5 -13.5t-7.5 -12.5t-10 -11l-8 -8q-20 -16 -40.5 -28t-42.5 -21q-21 -9 -45 -16.5t-47 -7.5h-5h-246v0z" />
<glyph unicode="&#x2014;" horiz-adv-x="1036" d="M111 327h-22t-27 1t-25 4t-16 10q-6 7 -0.5 13.5t15 12.5t20 11t17.5 8q38 16 80 28t87 21q42 8 89 16t92 8h11h493h22.5t27.5 -1t25.5 -4t14.5 -10q6 -7 0.5 -13.5t-15 -12.5t-20 -11t-17.5 -8q-38 -16 -80 -28t-85 -21q-42 -9 -90 -16.5t-93 -7.5h-11h-493v0z" />
<glyph unicode="&#x201c;" horiz-adv-x="715" d="M686 669q9 -6 15 -16.5t-6 -20.5q-8 -6 -18 -8.5t-21 -4.5q-22 -14 -38 -39q-25 -38 -42 -81t-28 -88q-4 -14 -21 -18t-28 -5q-26 -3 -53.5 -1.5t-53.5 6.5q-19 4 -38 8.5t-37 11.5q0 -1 -0.5 -1t-0.5 -1q-2 -7 -7.5 -11t-13 -6.5t-15 -4t-13.5 -1.5q-26 -3 -53.5 -1.5 t-53.5 6.5t-52 12.5t-50 19.5l-11 5.5t-13.5 9t-11 11.5t-2.5 13q16 61 44 121q11 23 25 46t32 43q26 28 61 37t73 10q29 1 58 -3.5t57 -12.5q5 -1 9 -2t9 -3q22 12 47.5 16t51.5 5q29 1 58 -3.5t57 -12.5q21 -5 43.5 -13.5t40.5 -22.5zM653 619h-6h6zM653 619h3h-3z" />
<glyph unicode="&#x201d;" horiz-adv-x="674" d="M516 735q30 -18 55.5 -44.5t44 -58t28.5 -67t10 -71.5q0 -16 -9 -26t-21 -19q-22 -16 -46 -28t-50 -21q-25 -9 -51 -15.5t-53 -8.5h-10.5t-17.5 1t-16.5 4.5t-7.5 9.5q0 11 -1 21t-3 21q-34 -19 -71 -33q-26 -9 -52 -15.5t-53 -8.5h-10.5t-17.5 1t-16.5 4.5t-7.5 9.5 q0 51 -20 100.5t-54 86.5q-11 11 -22 19.5t-24 16.5q-11 7 -10.5 15.5t8.5 17.5t20.5 18.5t25 17t22.5 12.5l14 7q54 25 110 35q15 2 37.5 4.5t36.5 -6.5q13 -8 24 -16t22 -19l2 2q54 25 110 35q15 2 37.5 4.5t36.5 -6.5z" />
<glyph unicode="&#x2022;" horiz-adv-x="362" d="M119 468q5 5 15.5 14t23.5 7q26 -4 52.5 -7t52.5 -7q14 -2 18.5 -11.5t5.5 -16.5q3 -14 1 -29.5t-7 -29.5t-12.5 -28.5t-19.5 -28.5l-5.5 -5.5t-9 -7.5t-11.5 -6.5t-13 -1.5q-26 4 -52 7.5t-53 6.5q-14 2 -18 12t-5 16q-4 14 -2 29.5t7 29.5q5 15 12 29t20 28z" />
<glyph unicode="&#x202f;" horiz-adv-x="191" />
<glyph unicode="&#x2039;" horiz-adv-x="590" d="M558 658q7 -4 14.5 -12t-2.5 -17q-3 -2 -9 -8q-75 -67 -148.5 -133t-148.5 -133q61 -69 121 -136.5t121 -136.5q10 -12 -0.5 -20t-28 -13.5t-35 -8.5t-21.5 -3q-49 -3 -94 4q-13 2 -29.5 6.5t-26.5 15.5q-63 71 -125.5 141.5t-125.5 141.5q-9 10 0 20q3 2 9 8 q78 69 154 137.5t153 137.5q11 10 26 14.5t30 7.5q46 8 93 3q19 -2 37.5 -5t35.5 -11z" />
<glyph unicode="&#x203a;" horiz-adv-x="591" d="M571 346q-2 -2 -4.5 -4t-5.5 -4q-77 -69 -153 -137.5t-153 -137.5q-11 -11 -26 -15.5t-30 -6.5q-44 -7 -94 -4q-18 2 -36.5 5.5t-35.5 11.5q-7 4 -14.5 12t1.5 16q4 3 10 9q75 66 148.5 132.5t148.5 133.5q-61 69 -121 136.5t-121 135.5q-11 12 -0.5 20.5t28 13.5t35.5 8 t22 3q47 5 94 -3q13 -2 29.5 -6.5t26.5 -15.5q63 -72 125.5 -142t125.5 -141q9 -10 0 -20z" />
<glyph unicode="&#x205f;" horiz-adv-x="238" />
<glyph unicode="&#xe000;" horiz-adv-x="680" d="M0 680h680v-680h-680v680z" />
<glyph horiz-adv-x="680" d="M0 0z" />
</font>
</defs>
</svg>
