<?xml version="1.0" standalone="no"?>
<!DOCTYPE svg PUBLIC "-//W3C//DTD SVG 1.1//EN" "http://www.w3.org/Graphics/SVG/1.1/DTD/svg11.dtd" >
<svg xmlns="http://www.w3.org/2000/svg">
<metadata></metadata>
<defs>
<font id="gongnormal" horiz-adv-x="621" >
<font-face units-per-em="1000" ascent="800" descent="-200" />
<missing-glyph horiz-adv-x="518" />
<glyph horiz-adv-x="1000" />
<glyph horiz-adv-x="1000" />
<glyph unicode="&#xd;" horiz-adv-x="518" />
<glyph unicode=" "  horiz-adv-x="518" />
<glyph unicode="&#x09;" horiz-adv-x="518" />
<glyph unicode="&#xa0;" horiz-adv-x="518" />
<glyph unicode="!" horiz-adv-x="408" d="M348 803q0 -3 -5.5 -10t-6.5 -8q-8 -22 -19 -81q-5 -25 -14 -81q-16 -143 -16 -183v-97q0 -5 -123 -128q-43 37 -48 47q-4 7 -4 39q0 85 18 248q3 9 6 26q6 49 10 70q8 45 20 72q5 11 67.5 73.5t66.5 62.5q5 0 26.5 -22.5t21.5 -27.5zM315 126q0 -12 -16 -30 q-42 -45 -65 -68q-53 -52 -70 -60l-49 50q18 18 29 31q1 3 2 8q116 120 122 120q5 0 46 -44q1 -3 1 -7z" />
<glyph unicode="&#x22;" horiz-adv-x="583" d="M264 789q0 -2 -8.5 -28t-10.5 -37q-11 -92 -11 -116q0 -18 1 -32q-97 -101 -101 -101q-12 0 -45 43q-1 1 -1 12q0 46 13 127l18 63q2 7 -6 13l110 103q4 0 40 -39q1 -3 1 -8zM512 797q0 -2 -8.5 -28t-10.5 -37q-11 -92 -11 -116q0 -18 1 -32q-97 -101 -101 -101 q-12 0 -45 43q-1 1 -1 12q0 46 13 127l18 63q2 7 -6 13l110 103q4 0 40 -39q1 -3 1 -8z" />
<glyph unicode="#" horiz-adv-x="782" d="M720 377q-20 -24 -58 -57q-14 -8 -38 -8q-2 0 -4 1.5t-4 1.5q-40 0 -90 -19q1 -8 5 -30t4 -25q0 -8 -24 -33q-18 -17 -35 -34l-24 24q-4 49 -13 89q-29 -7 -83 -15q0 -4 2 -15t2 -14t-27.5 -30.5t-30.5 -27.5q-4 0 -14 8.5t-12.5 14.5t-2.5 47h-12q-4 -1 -12 -4 q-44 -9 -81 -9q-16 0 -19 2l-21 21q38 42 60 59q-1 0 11 0q36 0 72 9l-6 54q1 2 -4 2q-3 0 -51 -16t-51 -16q-10 0 -31 23q41 47 60 59q6 0 15 2q30 8 52 20q0 7 -4 24.5t-4 26.5q0 21 21 41l38 32q10 -5 23 -22q4 -26 14 -80q33 9 96 23q-4 19 1 53q8 16 31.5 37t28.5 21 q6 0 17.5 -16t10.5 -24q-3 0 -6 -5v-49q28 0 75 5q5 1 11 6q23 -22 23 -26q0 -5 -18 -25q-20 -24 -40 -36q-9 -5 -26 -3q-24 2 -29 1q1 -24 4 -69q31 4 102 14q62 10 64 10q9 0 9.5 -0.5zM439 362q-2 19 -4 39q-1 23 4 30q-45 -8 -91 -19q3 -38 8 -65q37 8 83 15z" />
<glyph unicode="$" horiz-adv-x="766" d="M701 637q0 -7 -45 -53q-39 -38 -78 -77q-22 30 -107 30q-51 0 -103 -30q-56 -32 -81 -81q6 0 89 10q67 8 123 8q113 0 148 -16q13 -6 29.5 -24t16.5 -23q0 -12 -151 -163v-91q0 -2 -125 -127q-11 9 -52 49q5 8 5 22q0 15 -1 17q-28 -14 -83.5 -40.5t-83.5 -39.5l-49 49 q128 135 134 135q3 0 3 -2.5t3 -2.5q9 0 171 84q-8 2 -45 2q-113 0 -199 -19q-1 0 -63 -18q-1 0 -8 -4.5t-10 -4.5q-4 0 -53 51q-1 3 -1 11q0 46 119 175q22 23 141 141q0 1 -4 4.5t-5 7.5q-11 29 -11 45q0 8 111 120q8 8 12 8q5 0 22 -15.5t25 -28.5q1 -1 3.5 -21.5 t9.5 -20.5q3 0 17.5 2.5t17.5 2.5q31 0 71 -8q4 -1 15 -6.5t14 -5.5t3.5 2.5t3.5 2.5q4 0 50 -49q1 -3 1 -8z" />
<glyph unicode="%" horiz-adv-x="839" d="M441 619q0 -16 -1 -19q-5 -19 -67 -82q-67 -68 -95 -68q-20 0 -47 23t-34 44q-3 9 -3 28q0 29 10 53q13 34 39 67q35 45 75 77q1 1 22 1q15 0 22 -1q6 -4 5 -4q3 0 7.5 6t7.5 6q9 0 27 -26q17 -22 19 -30q4 -11 9 -35q4 -41 4 -40zM788 750q0 -9 -18 -27q-11 -12 -23 -23 q-48 -61 -146 -183q-30 -42 -88 -117q-90 -101 -256 -297l-112 -112q-45 43 -45 48t51 64q81 95 82 97q51 53 129 142q60 78 182 235q22 30 74 94q22 27 61 65q32 31 65 62q44 -41 44 -48zM676 225q0 -29 -41 -74q-38 -37 -76 -75q-8 -8 -19 -12q-33 -12 -54 -12 q-29 0 -58 33q-26 30 -26 52t10 40q13 25 51 64q42 41 67 53q10 0 28 3q4 5 13 13q2 1 11 1q35 0 64.5 -26.5t29.5 -59.5zM351 585q0 41 -7 61q-5 12 -18 12q-3 0 -11 -1.5t-11 -1.5q-8 -9 -15.5 -33t-7.5 -39q0 -8 4.5 -22.5t9.5 -16.5q24 -7 23 -7q7 0 19 8.5t14 17.5v22z M589 186q0 6 -8 27q-21 8 -26 8q-3 0 -14 -11t-15 -14q-12 14 -19 14q-16 0 -16 -35q0 -36 32 -36q66 0 66 47z" />
<glyph unicode="&#x26;" horiz-adv-x="627" d="M566 86q0 -3 -74 -78q-19 9 -31 28q0 5 -2 16q-26 80 -12 162q-2 2 -8 2q8 0 -36 -10q-37 -5 -108 -16q-12 -4 -35 -11q-42 -12 -87 -12q-34 0 -70 14q-7 3 -23 21.5t-16 24.5q0 11 81 82q6 5 54 32q-8 5 -18 6q-32 3 -66.5 34t-34.5 57t32 59l66 60q8 8 88 18 q74 10 111 10q44 0 73 -11q1 28 2 81q1 40 9 67q6 19 31 39l42 34q28 -24 30 -26t2 -18q0 -3 -2.5 -26t-2.5 -33q-2 -39 -6 -68q-1 -13 0 -63q2 -39 -6 -59.5t-33 -41.5q-20 -17 -41 -34q-33 35 -69 46q-26 8 -75 8q-30 0 -141 -13q0 -2 5 -5q62 -23 119 -33q23 1 70 -7 q9 -9 28 -27q-37 -43 -39 -45q-24 -25 -40 -36q-14 -3 -41 -10q-14 -6 -64 -30q3 -2 14 -2q3 0 140.5 27t141.5 27q6 0 19.5 -14t12.5 -22q-3 -12 -6 -35q-3 -68 3 -113q1 -8 7 -30t6 -26z" />
<glyph unicode="'" horiz-adv-x="407" d="M321 797q0 -2 -8.5 -28t-10.5 -37q-11 -92 -11 -116q0 -18 1 -32q-97 -101 -101 -101q-12 0 -45 43q-1 1 -1 12q0 46 13 127l18 63q2 7 -6 13l110 103q4 0 40 -39q1 -3 1 -8z" />
<glyph unicode="(" horiz-adv-x="583" d="M546 113q0 -3 -115 -118h-99q-3 0 -26 11q-28 15 -38 19q-24 10 -61 45q-36 32 -55 61q-7 18 -23 53q-33 62 -33 180q0 32 10 62q0 2 25 64q5 7 15 22q45 67 81 98t93 93q47 50 74 68q39 26 88 26q13 0 15 -1q44 -34 44 -46q0 -4 -43 -48q-45 -48 -71 -68q-10 0 -30 -2 q-31 -5 -53 -12q-4 -1 -32 -37q-35 -47 -51 -118q-1 -3 -1 -45q0 -117 56 -213q8 -13 47 -27q16 -10 37 -21h104q42 -42 42 -46z" />
<glyph unicode=")" horiz-adv-x="596" d="M518 444q0 -154 -41 -237q-2 -4 -36 -40q-62 -65 -69 -72q-39 -39 -67 -62l-21 -6q-6 -7 -19 -16q-36 -16 -47 -16q-3 0 -52 49q37 41 117 116q9 7 42 14q13 37 18.5 68t6.5 59l2 111q0 18 -18 85q-4 15 -12 27q-4 4 -54 47q-18 17 -54 40q-16 6 -49 15q-12 -2 -35 2 q-11 6 -25 22q-12 13 -23 25q38 40 117 117q4 4 22 4q16 0 31 -5q30 -10 35 -11q17 -4 75 -53q48 -41 70 -62q46 -43 58 -66q6 -19 19 -54q9 -27 9 -101z" />
<glyph unicode="*" horiz-adv-x="561" d="M473 765q0 -4 -22.5 -28.5t-40.5 -36.5q-7 -3 -21 -11q-57 -52 -57 -58q0 -3 63.5 -61.5t63.5 -61.5q0 -2 -66 -68q-6 6 -60 53q3 -22 -2 -60q-9 -15 -30 -34q-17 -15 -35 -31q-17 9 -28 30l-1 150q-23 -17 -39 -43q-11 -20 -23 -40q-10 -15 -32 -35q-18 -17 -35 -33 l-28 27q14 36 60 86q42 42 84 85q-18 18 -91 89q-2 0 -6 2.5t-13 11t-12 12.5l73 73q22 -23 67 -67q1 1 3 4q1 3 -7 11q66 66 71 66q10 0 29 -24q-2 -23 -6 -46l2 -33q3 3 60 57q41 39 51 39q4 0 16 -10t12 -15z" />
<glyph unicode="+" horiz-adv-x="675" d="M583 424q0 -5 -38 -44q-41 -42 -70 -68h-28q1 -4 5 -29q3 -20 3 -32q0 -37 -44 -80q-36 -32 -72 -63l-24 16q-17 13 -20 26q-7 26 -7 70q1 56 -1 71q-16 -2 -61 -8q-41 -6 -43 -6q-12 0 -26 16q-24 25 -28 29q27 29 55 58q33 35 58 52q8 5 24 5h28q0 8 -2.5 26t-2.5 26 q0 15 6 26q16 29 62 71q41 37 48 37q6 0 24.5 -17t20.5 -30q5 -47 -3 -116q80 7 74 7q18 0 20 -1q12 -8 27 -23t15 -19z" />
<glyph unicode="," horiz-adv-x="482" d="M394 140q0 -2 -38 -49q-10 -11 -99 -125q-9 -10 -53 -54q-47 -46 -52 -46q-3 0 -41 38q25 25 73 86q52 65 77 91q1 2 0 5q91 95 95 95t37 -36q1 -2 1 -5z" />
<glyph unicode="-" d="M533 459q-68 -73 -125 -123q-108 0 -172 -1q-45 0 -64 -1t-15 -1q-3 0 -52 50l130 130q3 -4 11 -7h241z" />
<glyph unicode="." horiz-adv-x="468" d="M351 94q0 -4 -101 -106q-66 57 -106 119q100 99 104 99q11 0 54 -54q49 -59 49 -58z" />
<glyph unicode="/" horiz-adv-x="781" d="M724 742q0 -9 -20 -29l-29 -29q-119 -166 -262 -344q-7 -12 -20 -33q-32 -52 -86 -148q-6 -5 -14 -15q-4 -14 -17 -36q-3 -3 -117 -118q-50 47 -50 55q0 -2 9 18q1 6 5 16l105 168q4 9 12 23q24 27 67 79q64 80 115 150q31 49 104 146q10 12 148 151q50 -44 50 -54z" />
<glyph unicode="0" horiz-adv-x="806" d="M742 393q0 -84 -57 -159q-35 -46 -166 -168q-15 -14 -49 -34q-62 -38 -121 -38q-53 0 -95 25q-45 26 -98 92q-13 16 -22 39q-8 20 -8 133q0 128 5 172q13 105 61 176q31 44 153 153q12 11 31 11q7 0 18 -5.5t12 -9.5q8 7 15 14q4 3 14 3q43 0 86 -15q37 -14 110 -92 q111 -119 111 -297zM529 527q-14 26 -52 73q-23 20 -73 28q-27 4 -25 4q-7 0 -21 -14q-15 14 -22 19q-7 -5 -15 -15q-13 -33 -22.5 -101.5t-9.5 -120.5v-102q79 75 240 229zM577 322q0 57 -20 131q-44 -40 -88 -79q-53 -48 -80 -84q-3 -4 -79 -88q37 -43 110 -43q53 0 94 24 q12 6 28 16q35 45 35 123z" />
<glyph unicode="1" horiz-adv-x="433" d="M345 735q0 -2 -8 -54q-9 -58 -11 -80q-19 -168 -19 -206v-210q0 -3 -3.5 -6.5t-3.5 -6.5q0 -2 2 -27q2 -18 -4 -27q-18 -28 -56 -63l-64 -60q-44 41 -44 42q-5 7 -5 37v33q5 5 5 7v209q0 2 10 98q11 110 16 161q-20 -15 -28 -15q-2 0 -52 50q37 41 131 127q16 14 48 30.5 t38 16.5q10 0 47 -43q1 -2 1 -13z" />
<glyph unicode="2" horiz-adv-x="906" d="M852 146q0 -5 -63.5 -70t-68.5 -65q-2 0 -7 6h-351q-3 0 -106.5 -8.5t-106.5 -8.5q-15 0 -16 1q-15 11 -34 30.5t-19 23.5q0 2 29 57q115 216 457 497q-7 1 -41 1q-57 0 -72 -1q-42 -4 -69 -21q-33 -22 -97 -90q-57 -61 -59 -61t-28.5 26.5t-26.5 30.5q0 22 50.5 72 t101.5 102q60 60 107 92q20 13 61 21q82 16 116 16q31 0 61 -6q10 -3 49 -20q8 -3 35 -28q32 -29 32 -41q0 -17 -110 -122q-105 -102 -135 -120q-135 -81 -244 -265q207 9 394 9q-3 0 22.5 1.5t43.5 0.5q27 -1 42 -6t34 -26t19 -28z" />
<glyph unicode="3" horiz-adv-x="884" d="M816 310q0 -33 -17 -59q-26 -40 -82 -98q-59 -62 -108 -98q-11 -7 -40 -16q-25 -7 -49 -14q-85 -28 -181 -28q-44 0 -113 3q-75 2 -126 24l-50 50q1 1 68 67q62 60 68 60q3 0 7.5 -3.5t7.5 -3.5q35 -8 104 -17l110 -2q105 0 224 41q0 24 -2 36q-10 64 -37 88 q-24 21 -74 21q-62 0 -150 -17q-2 0 -34 -13q-27 -10 -49 -10q-14 0 -29 17q-27 28 -31 32q45 58 122 163q19 28 53 82q-6 1 -15 1l-106 -13q-4 -2 -10 -6q2 -1 -24 -1q-13 0 -30 18q-27 29 -32 33q11 10 62 66q38 41 67 60q3 2 82 12q95 12 150 12q18 0 23 -4 q45 -36 45 -48q0 -7 -61 -96q-56 -83 -85 -122q22 2 79 7q52 4 54 4q59 0 115 -50q42 -37 72 -92q22 -39 22 -86z" />
<glyph unicode="4" horiz-adv-x="827" d="M766 396q0 -13 -121 -119q0 -47 7 -140q1 -3 6.5 -11t5.5 -11q0 -6 -50.5 -57.5t-69.5 -63.5q-19 14 -46 46q-5 12 -8 71q-1 10 -4 35q-2 22 -2 25v108h-374l-46 46q50 50 90 122q24 44 61 132t58 128q17 30 67 75q45 41 52 41q3 0 24.5 -21.5t21.5 -24.5t-6 -14 q-8 -14 -10 -17l-60 -144q-48 -105 -94 -161q1 -2 216 0v149q0 16 10 72.5t14 60.5q18 21 65 66.5t50 45.5q4 0 28 -24t24 -28q0 -3 -6 -10.5t-7 -10.5q-3 -6 -7 -35q-4 -20 -10 -64q-3 -31 -3 -80q0 2 0 -12v-39q0 17 0 -93h51q11 13 22 19q15 -13 42 -43q9 -11 9 -19z" />
<glyph unicode="5" horiz-adv-x="699" d="M650 724q0 -5 -61.5 -66.5t-66.5 -61.5q-3 0 -6 1q-8 5 -21 6q-145 17 -178 17q-28 0 -34 -5v-61q14 6 41 15q85 19 107 19q93 0 165 -119q9 -15 9 -56q0 -47 -22.5 -98.5t-65.5 -105.5q-49 -59 -157 -167q-136 -134 -169 -134q-4 0 -55 51q45 51 151 157q13 -13 16 -13 q21 0 82 100q15 24 29 62q14 43 14 70q0 43 -17 58.5t-61 15.5q-59 0 -131 -30q-21 -9 -47 -28q-21 -16 -23 -16q-3 0 -24 20t-28 31q-1 1 -1 24q0 3 4 35.5t4 36.5v237q126 125 130 125q8 0 51 -50q70 5 105 5q25 0 161 -14q18 -2 53 -13q13 -9 29.5 -26t16.5 -22z" />
<glyph unicode="6" horiz-adv-x="796" d="M733 382q0 -64 -27 -125q-5 -11 -51 -57q-28 -29 -85 -85q-18 -17 -39 -34q-64 -51 -133 -78q-56 -22 -98 -22t-98 44q-122 94 -122 249q0 66 24 158q9 35 39 91q6 9 17 29.5t35 65.5q28 48 100 123q68 71 115 105q16 12 56 12q5 0 27.5 -23t22.5 -28t-46 -53t-74 -72 q-10 1 -29 -4q-6 -4 -21 -32q-20 -38 -37 -73q-10 -19 -26 -59q-27 -89 -27 -167q0 -30 7 -60q87 96 176 156q104 70 182 70q20 0 23 -1q18 -6 47.5 -34.5t35.5 -48t6 -47.5zM560 307q0 2 -1.5 14t-1.5 18h-27q-24 1 -86 -27q-23 -10 -52 -26q-25 -13 -65 -48 q-37 -31 -37 -34q0 -16 35 -34q31 -15 49 -15q14 0 45 6q28 5 80 30q34 15 41 24q20 24 20 92z" />
<glyph unicode="7" horiz-adv-x="699" d="M630 758q0 -4 -21.5 -165t-21.5 -164q0 -4 10.5 -15.5t10.5 -14.5t-13 -16t-16 -19.5t-5 -34.5q-2 -18 -5.5 -54t-10.5 -100q-1 -4 1 -44q1 -29 -9 -41q-22 -28 -62 -66q-34 -32 -67 -64q-13 11 -55 53l3 4t4 7q4 103 20 234q-42 -2 -126 -15q-9 -2 -36 -9q-23 -6 -29 -6 q-13 0 -30 18q-28 30 -33 34q45 46 90 91q67 67 74 67q3 0 11 -8t12 -8q3 0 19 3t22 4q12 1 25 1q17 2 24 10q11 80 23 167v17h-155q-4 0 -74 -12t-74 -12q-21 0 -32 13q-27 31 -38 39q32 35 65 69q39 41 68 61q18 2 54 5q19 2 62 10q39 8 41 8h213l8 8q53 -44 53 -55z" />
<glyph unicode="8" horiz-adv-x="710" d="M643 326q0 -1 -9 -44q-22 -93 -69 -151q-22 -28 -124 -125q-9 -8 -36 -26q-53 -34 -125 -34q-55 0 -91.5 21.5t-87.5 83.5q-7 10 -11.5 31t-4.5 45q0 125 161 271q-56 25 -93 63q-40 41 -40 80q0 53 64.5 119.5t130.5 131.5q15 16 34 24q53 21 98 21q23 0 36 -6 q9 -4 25.5 -20.5t18.5 -16.5q4 0 4.5 1t3.5 1q17 0 47 -31q20 -21 39 -43q11 -13 17.5 -33t6.5 -39q0 -32 -40 -73q-33 -33 -67 -66q17 -16 47 -48q9 -10 35 -63q30 -58 30 -74zM464 592q-2 6 -6 17l-8 -7q-22 18 -49 52q-8 9 -37 9q-10 0 -38 -5q-31 -5 -33 -9 q-6 -16 -6 -32q0 -19 3.5 -27.5t31.5 -15.5q24 -6 41 -6q38 0 101 24zM469 248q0 11 -19.5 53.5t-25.5 46.5q-10 -11 -30 -28q-11 11 -21.5 22t-21.5 11q-9 0 -32 -11.5t-26 -17.5q-34 -61 -34 -121q0 -52 11 -62q27 -23 87 -23q43 0 73 13q9 4 25 58q14 48 14 59z" />
<glyph unicode="9" horiz-adv-x="777" d="M703 685q0 -3 -16.5 -143t-16.5 -143v-260q0 -3 -3.5 -7t-4.5 -7q1 -8 1 -25q-126 -129 -131 -129q-9 0 -55 52q-1 2 -1 14q0 3 4 12t4 14q3 263 1 266q-45 -50 -101 -87q-65 -41 -111 -41q-12 0 -34 6q-37 10 -84 49q-50 40 -66 76q-9 20 -9 84q0 53 13 92q14 43 32 71 q9 13 22 27q126 135 182 175q78 56 169 56q111 0 176 -83q-1 -6 -6 -17q36 -37 36 -39q0 -1 -1 -4v-9zM520 629q-34 22 -103 22q-18 0 -71 -9q-9 -2 -28 -9q-13 -4 -32 -18q-20 -37 -20 -119q0 -14 4 -59q2 -17 5 -20q19 -17 63 -30q2 -1 15 -1q30 0 62 16q20 9 46 26 q31 36 42 72q7 25 9 76q1 10 8 53z" />
<glyph unicode=":" horiz-adv-x="397" d="M319 134q0 -4 -101 -106q-66 57 -106 119q100 99 104 99q11 0 54 -54q49 -59 49 -58zM320 504q0 -4 -101 -106q-66 56 -106 119q100 99 103 99q11 0 55 -54q49 -60 49 -58z" />
<glyph unicode=";" horiz-adv-x="449" d="M383 354q0 -4 -102 -106q-65 57 -105 119q100 99 103 99q11 0 55 -54q49 -59 49 -58zM388 140q0 -2 -38 -49q-10 -11 -99 -125q-9 -10 -53 -54q-47 -46 -52 -46q-3 0 -41 38q25 25 73 86q52 65 77 91q1 2 0 5q91 95 95 95t37 -36q1 -2 1 -5z" />
<glyph unicode="&#x3c;" horiz-adv-x="740" d="M677 116q0 -5 -37 -44q-40 -42 -70 -68q-4 -3 -21 -3l-46 25q-19 7 -54 25q-21 18 -63 50q-35 25 -103 70q-21 13 -76 34q-22 8 -59 28q-52 42 -52 64q0 21 14 41q22 31 31 55q20 50 56 88q76 80 151 159q123 121 195 144q4 1 14.5 7t13.5 6q5 0 24 -20t19 -24 q0 -5 -38 -45q-41 -44 -72 -69q-14 -11 -61.5 -28.5t-91.5 -71.5q-38 -45 -56 -91q-9 -23 -23.5 -44t-16.5 -29q32 -12 93 -41q41 -26 170 -122q2 -2 100 -52q7 1 19 -1q12 -8 26 -23.5t14 -19.5z" />
<glyph unicode="=" horiz-adv-x="545" d="M472 479q0 -4 -91 -94h-7q-3 0 -30.5 5t-29.5 5h-163q-8 7 -38 38q30 33 94 94q8 7 23 7q3 0 5 -3t5 -3h123q45 0 71 -11q6 -2 22 -18.5t16 -19.5zM466 308q0 -4 -31 -37q-34 -36 -60 -56q-1 -1 -27 -1q-2 0 -59 3t-60 3h-41q-59 -8 -49 -8q-6 0 -44 38q22 24 43 48 q30 31 52 47q12 1 35 3q32 3 69 3q109 0 138 -6q4 -1 19 -17.5t15 -19.5z" />
<glyph unicode="&#x3e;" horiz-adv-x="770" d="M698 477q0 -13 -91 -114q-59 -64 -118 -129q-43 -46 -96 -108q-23 -35 -81 -90q-52 -49 -59 -49q-3 0 -26 24t-23 25q0 3 9.5 13.5t11.5 13.5q10 17 41 49q24 23 46 47t61 66q16 16 45 46q26 31 104 118q8 9 8 17t-20 30q-16 16 -31 33q-20 25 -39 49q-28 33 -46 46 q-65 47 -130 64q-4 1 -38 1q-45 0 -65 -5q-5 -2 -7 -5.5t-15 -3.5t-28 16q-25 27 -31 32q39 42 122 121q3 3 32 7q51 6 75 6q52 0 146 -55q63 -37 175 -172l40 -46q28 -33 28 -47z" />
<glyph unicode="?" horiz-adv-x="879" d="M805 742q0 -39 -97 -153q-76 -88 -112 -119q4 -1 13.5 1.5t11.5 2.5q4 0 29.5 -24.5t25.5 -29.5q0 -7 -59.5 -67t-61.5 -60q-3 0 -5 3t-5 3q-50 0 -99 -19q-27 -11 -87 -44q-54 -30 -57 -30q-1 0 -51 50q55 58 168 169q36 29 72 57q59 50 78 81q16 21 32 43q31 44 31 59 q0 38 -104 38q-58 0 -100 -13q-37 -12 -103 -50q-51 -29 -51 -44q0 -8 31 -36q-27 -31 -74 -77q-58 -58 -69 -58q-8 0 -34 24.5t-29 31t-3 19.5q0 26 6 34q30 43 106 120t136 126q46 37 132 75q55 24 128 24q16 0 63 -6q40 -5 89 -49t49 -82zM555 124q0 -4 -42.5 -48 t-77.5 -76q-7 -2 -20 -7q-14 -10 -45 -27l-50 50l96 96q65 63 89 63q5 0 27.5 -23t22.5 -28z" />
<glyph unicode="@" horiz-adv-x="792" d="M740 202q-25 -31 -30 -37q-21 -22 -44 -40q-3 -2 -44 -16q-17 -7 -51 -19q-154 -40 -213 -40q-48 0 -76 16q-90 52 -146 142q-51 83 -51 162q0 25 21 64q11 25 39 68q60 68 89 98q74 76 110 87q51 16 100 16q41 0 79 -5q56 -7 114 -45q71 -47 71 -102q0 -24 -14 -63 q-8 -22 -74 -81q-15 -13 -60 -23q-5 -1 -16 -6q3 -16 -1 -45q-8 -15 -25.5 -30.5t-33.5 -29.5q-24 15 -26 41q0 20 1 41q-2 1 -5 1q-9 0 -85 -20q4 -10 -20 -34q-42 -41 -42 -42l-23 23v78q0 3 -4.5 39.5t-4.5 39.5q0 22 15 36q43 41 45 44q1 -1 7 -6t8 -5q-2 0 38 25t64 25 q33 0 67 -61q5 -14 18 -44q34 7 68 15q17 6 17 46q0 22 -11 43q-6 10 -60 35q-60 27 -148 27q-136 0 -201 -130q-11 -20 -21.5 -41.5t-10.5 -43.5q0 -90 60 -174q68 -96 165 -96q19 0 65 6q86 11 205 54q9 3 26 11q2 1 10.5 10t12.5 9q3 0 26 -23zM445 431q-8 26 -20 43 q-25 4 -62 -18q0 -9 2 -27.5t2 -26.5q18 14 78 29z" />
<glyph unicode="A" horiz-adv-x="808" d="M757 751q0 -3 -22 -130t-22 -130v-275q0 -35 16 -113q1 -5 8 -16t7 -14q0 -5 -60.5 -66t-65.5 -61q-12 0 -52 49q-12 15 -21 71q-9 49 -8 73v151h-14q-58 -2 -151 -16q-31 -5 -84 -19q-1 -42 6 -72q2 -12 12 -42q8 -26 8 -30q0 -3 -126 -129q-20 15 -49 50q-13 25 -23 91 q-4 29 -4 102q0 255 76 471q3 9 67.5 73.5t70.5 64.5q2 0 15 -13t16 -13h225q37 0 129 -6q5 -1 25.5 -22.5t20.5 -28.5zM570 620v11q-17 -2 -248 0q0 -2 -19 -109q-12 -62 -12 -110q114 35 253 47q4 28 16 98q10 60 10 63z" />
<glyph unicode="B" horiz-adv-x="796" d="M813 528q0 -67 -140 -210q-86 -88 -191 -174q-42 -34 -160 -99q-30 -14 -82 -40q-3 -3 -21 -16t-21 -13q-5 0 -25.5 18.5t-31.5 33.5t-15 40q-50 272 -50 446q0 90 6 133q0 20 10 53q20 27 58 62q31 28 63 56q6 -6 10 -9q9 0 29 -1.5t22 -1.5q52 0 126 3q31 1 138 9 q5 1 19 4.5t17 3.5q4 0 26.5 -22.5t22.5 -27.5q0 -12 -93 -97q-65 -57 -129 -115q1 -2 3 -1q156 43 277 43q85 0 115 -44q1 -3 14 -15q3 -4 3 -19zM381 645q-26 -1 -67 -2q-44 -3 -66 -1l-4 4v-133q47 44 137 132zM642 439h-74q-56 0 -169 -26q-99 -22 -141 -39v-12 q1 14 30 -199h9l196 108q119 76 149 168z" />
<glyph unicode="C" horiz-adv-x="800" d="M767 329q0 -5 -41 -47q-43 -45 -68 -66q-19 -10 -51 -31q-41 -31 -111 -88q-75 -61 -114 -81q-45 -23 -102 -23q-35 0 -54 18q-34 30 -54 50q-41 41 -52 67q-28 64 -32 109q-8 97 -8 113q0 102 31 195q15 46 40 79.5t70 79.5q54 56 93 82q12 8 52 8q32 0 55 -8 q40 -14 79 -49q35 -31 82.5 -80t47.5 -53q0 -6 -106 -113q-5 -5 -13 -5q-10 0 -45 44l-40 51q-68 58 -130 58q-12 0 -15 -3q-6 -6 -12.5 -24.5t-16.5 -55.5q-15 -66 -15 -137q0 -188 62 -252q16 -16 53 -16q58 0 111 30q32 18 99 75q74 62 127 96q31 21 33 21q4 0 24.5 -20 t20.5 -24z" />
<glyph unicode="D" horiz-adv-x="771" d="M790 675q0 -16 -29 -70q-15 -27 -30 -55q-63 -123 -205 -281q-79 -88 -273 -279q-29 21 -49 46q-2 8 -6 22q-8 14 -18 43q-23 129 -36 236q-7 59 -8 115q-1 94 3 118q-5 1 -12 -1q-10 -2 -11 -2q-5 0 -52 47q29 30 58 61q35 36 63 56q6 5 21.5 5.5t21.5 3.5q13 13 37 33 q19 -19 20 -19l23 6q50 14 142 26q89 11 142 11q72 0 105 -17t61 -46q32 -34 32 -59zM626 604q0 6 -5 14q-53 16 -102 16q-50 0 -125 -9q-47 -7 -94 -13v-123q0 -37 18 -159q12 -74 23 -148q50 45 151 183q71 97 123 207q11 25 11 32z" />
<glyph unicode="E" horiz-adv-x="781" d="M749 513q0 -4 -122 -127h-182q-28 0 -157 -13v-10q0 -6 13 -56q15 -56 26 -88q8 -20 27 -51q32 15 34 15q3 0 3 -1t3 -1t31 10q33 11 48 15q138 35 192 35q4 0 13 3.5t12 3.5q5 0 27 -21.5t22 -26.5q0 -6 -54 -63q-57 -59 -76 -67q-10 -4 -33 -5q-32 -1 -38 -2 q-17 -2 -114 -27q-20 -3 -64 -19q-4 -3 -26.5 -26t-26.5 -23q2 0 -13 7q-26 12 -62 47.5t-55 65.5q-10 17 -25 52q-23 58 -39.5 150.5t-16.5 165.5q0 111 11 198q2 26 4 51q4 31 20 53q21 33 72 81q47 44 54 44q4 0 23 -19t28 -31q-5 -20 -5 -22q24 5 112 5q-3 0 21 2 q23 1 40 0q25 -1 39.5 -6t33.5 -26.5t19 -27.5t-126 -131q-10 11 -16 12q-24 3 -34 3q8 0 -25 0q-33 -1 -94 -1q4 -3 3 -16q-4 -34 -4 -59q0 -27 26 -27q199 23 233 23h174q44 -45 44 -49z" />
<glyph unicode="F" horiz-adv-x="683" d="M701 528q0 -5 -60 -67.5t-64 -62.5q-3 0 -8.5 2.5t-8.5 2.5q-6 0 -12 -4q-51 0 -245 -19q0 -1 -1.5 -2t-1.5 -5q0 -3 2 -12.5t3 -13.5q3 -74 72 -222q4 -9 21.5 -32t17.5 -25q0 -5 -62.5 -66.5t-67.5 -61.5q-4 0 -22.5 18t-27.5 30q-35 46 -65 117q-28 66 -38 116 q-10 59 -17 134q-12 142 -12 132q0 92 23 209q2 11 0 21q121 126 128 126l19 -17t25 -17q3 0 87.5 12t87.5 12q15 0 17 -1q48 -37 48 -49q0 -8 -41 -54q-47 -54 -83 -73q-22 -12 -62 -12q-55 1 -64 0q-7 -10 -7 -24v-83q12 -2 53 8q50 13 63 15q141 21 226 16q1 0 3.5 2.5 t6.5 2.5q14 0 22 -6q45 -36 45 -47z" />
<glyph unicode="G" horiz-adv-x="921" d="M874 219q0 -4 -48 -53.5t-79 -77.5q-18 -13 -54 -41l-5 5q-142 -69 -183 -85q-109 -43 -187 -43q-60 0 -84 16q-52 35 -95 103t-51 121q-8 57 -8 104q0 150 59 280q54 121 96 158l119 119q46 44 86 44q49 0 120 -51q33 -24 109 -93q66 -59 66 -65q0 -7 -122 -129 q-91 86 -139 121q-72 52 -120 48q-103 -158 -103 -359q0 -161 68 -233q1 -1 27 -9q22 -6 48 -6q103 0 240 72q-4 51 -4 165q-53 -23 -188 -113q-24 -16 -27 -16q-4 0 -29.5 23.5t-25.5 28.5q0 4 58.5 63t63.5 59q3 0 2.5 -1.5t2.5 -1.5t17 11q19 14 23 16q55 34 110 69 q68 39 111 44q6 4 8 4q5 0 24.5 -17.5t26.5 -31.5l-3 -46q-8 -107 1 -172q4 2 19 18q50 -41 50 -48z" />
<glyph unicode="H" horiz-adv-x="806" d="M750 528q0 -3 -33 -36.5t-33 -35.5q0 -7 9 -86q11 -88 18 -129q3 -20 17 -63.5t14 -46.5q0 -4 -62.5 -67.5t-67.5 -63.5t-24 18t-27 30q1 8 -1 24q-25 64 -35 146q-10 87 -19 174h-30q-34 0 -113.5 -15.5t-98.5 -23.5q17 -88 48 -209q5 -21 13 -37q1 -2 8 -10.5t7 -12.5 q0 -5 -62.5 -68t-67.5 -63t-28.5 22.5t-29.5 35.5q-14 27 -28 95q-15 53 -38 158q-6 34 -6 113q0 95 22 263l16 47q4 16 18 45q27 36 142 145q49 -48 49 -51t-9 -17q-10 -17 -14 -26q-25 -59 -29 -94q-14 -131 -14 -149q0 -23 15 -23q1 0 89 20q96 22 141 30v127q-2 7 -3 14 q-2 14 -2 26q0 28 10 48q16 32 59 68q35 29 71 59q14 -11 29 -23.5t18 -25t3 -31.5q0 -25 -5 -61q-2 -17 -5 -34v-152q8 -1 21 -5q13 -10 30.5 -27t17.5 -22z" />
<glyph unicode="I" horiz-adv-x="719" d="M663 137q-28 -33 -56 -67q-36 -41 -68 -59q-15 -8 -131 -18q-192 -17 -232 -17q-18 0 -19 1q-10 7 -30 28t-20 29t60 66.5t60 66.5q0 2 -15 105q-16 115 -22 168q0 198 3 200q-27 -3 -78 3q-12 4 -26 22l-24 28q134 134 137 134t6.5 -3.5t6.5 -3.5h290q46 -46 46 -50 q0 -6 -43 -52q-46 -50 -81 -75q-9 -6 -27 -4q-33 3 -32 3v-122q15 -118 46 -356h12q3 0 90 10.5t91 10.5q7 0 27 -20q14 -14 29 -28z" />
<glyph unicode="J" horiz-adv-x="940" d="M921 787q-30 -34 -60 -67q-38 -41 -69 -65q-2 -2 -20 -2q-8 0 -13 -1q30 -74 55 -179q28 -114 28 -175q0 -3 -3 -26q-3 -26 -4 -36q-3 -41 -68 -109q-52 -51 -104 -101q-12 -14 -30 -23q-73 -36 -174 -36q-43 0 -84 6q-18 6 -55 15q-70 14 -154.5 95t-84.5 137q0 8 78 86 q75 75 100 95q44 34 101 34q27 0 32 -4q14 -10 32 -29t18 -25q0 -4 -130 -134l-6 6l-23 -2q13 -19 25 -28q89 -66 233 -66q88 0 111 19q4 28 4 45q0 93 -45 246q-19 65 -67 166q-47 -8 -166 -32q-99 -20 -103 -20q-21 0 -33 13q-27 31 -38 41q33 35 65 70q40 42 70 61 q21 1 60 7q23 6 69 17q22 3 63 11q31 5 87 19q4 1 12.5 11t12.5 10q3 0 10.5 -7t11.5 -7q1 0 28.5 5t40.5 5q81 4 91 4q38 0 46 -4q13 -6 50 -46z" />
<glyph unicode="K" horiz-adv-x="853" d="M797 292q0 -23 -6 -69.5t-6 -62.5t4 -26q-121 -124 -130 -124q-4 0 -23.5 16.5t-29.5 30.5v25q0 3 6.5 65.5t6.5 65.5q0 49 -17 99q-22 10 -52 10q-48 0 -123 -32q-68 -31 -121 -72q10 -56 24 -91q2 -5 14 -22.5t12 -21.5t-125 -129q-74 61 -90 125q-61 249 -61 397 q0 97 14 200q4 31 16 45q22 27 61 65q33 31 65 62q49 -49 49 -54q0 -3 -6 -17.5t-7 -22.5q-13 -106 -13 -199q0 -51 10 -144l4 -5q19 25 129 167q34 45 107 133q48 46 145 142q49 -49 49 -51q0 -4 -30 -38q-38 -43 -46 -53q-82 -103 -114 -145q-71 -92 -105 -144v-3 q120 84 221 84q89 0 138 -74q12 -17 21 -59t9 -73z" />
<glyph unicode="L" horiz-adv-x="852" d="M868 191q0 -6 -127 -132h-98q-7 -2 -22 -5q-83 -12 -176 -39q-74 -23 -147 -45q-63 -18 -65 -18q-4 0 -27.5 21.5t-34.5 36.5q0 7 -4 22q-41 96 -59 192q-28 151 -28 289q0 91 9.5 125t45.5 71q55 54 111 108q50 -51 50 -54t-7.5 -13.5t-8.5 -14.5q-14 -46 -14 -140 q0 -230 61 -420q5 -16 15 -29q14 2 59 14q32 11 93 32q26 7 109 28q101 25 122 25h93q50 -51 50 -54z" />
<glyph unicode="M" horiz-adv-x="1212" d="M1151 113q0 -6 -124 -130q-2 2 -35 30q-21 18 -28 34q2 9 -15 99q-10 46 -26 135q-7 28 -21 83q-8 30 -19 81q-3 26 -6 53q-4 33 -17 58q-47 -67 -80 -161q-19 -51 -56 -163q0 -1 -5 -35q-4 -25 -12 -36q-23 -32 -71.5 -77.5t-54.5 -45.5q-7 0 -26 16q-22 17 -28.5 34.5 t-7 55t-4.5 54.5q-31 106 -93 212q-72 122 -133 144v-112q3 -28 7 -85q2 -22 5 -68q3 -53 12 -161q1 -3 8 -14.5t7 -14.5q0 -5 -126 -131q-33 31 -39 38q-25 28 -27 43q-7 69 -12 165q-1 23 -9 107q-3 38 -3 130q0 114 15 211q-2 11 2 29q26 32 73 77.5t52 45.5q8 0 47 -45 l6 -18l15 -3q90 -24 190 -141q83 -96 130 -199q46 98 138 193q174 182 185 182q5 0 24.5 -17.5t24.5 -30t32 -125.5q2 -12 20 -112q5 -33 15 -71q15 -56 24 -101q10 -49 29 -141q4 -17 7 -55q0 -2 5 -7.5t5 -9.5z" />
<glyph unicode="N" horiz-adv-x="923" d="M856 549q0 -101 -14 -234q-15 -155 -35.5 -185t-76.5 -81q-51 -47 -56 -47q-7 0 -55 49q0 3 -2 8q-39 44 -123 133q-31 33 -86 102q-48 66 -148 200q-1 -7 -1 -38q0 -108 28 -209q8 -29 26 -84q3 -6 16.5 -22.5t13.5 -19.5q0 -5 -64.5 -70t-69.5 -65q-9 0 -39 35t-37 51 t-40 139q-18 67 -18 233q0 83 2 103q9 114 23 173q1 3 64 65.5t70 62.5q4 0 18 -14q14 14 18 14q5 0 28 -23t23 -29q0 -2 -5.5 -7t-5.5 -9q0 -1 50 -79q161 -248 300 -402q2 2 3 13q12 138 12 166q0 41 -28 163q-5 23 -37 51q70 76 125 127q4 4 14 4t32 -21q18 -17 24 -28 q51 -85 51 -225z" />
<glyph unicode="O" horiz-adv-x="965" d="M897 481q0 -14 -16 -56q-28 -75 -113 -171q-50 -55 -168 -168q-29 -28 -90 -55q-92 -41 -140 -41q-61 0 -117 34t-126 115q-17 19 -22 30q-25 52 -25 127q0 104 78 219q58 86 178 202q-24 22 -24 40q0 5 49 54.5t81 74.5q1 2 27 2q145 0 284 -128q144 -131 144 -279z M713 401q0 26 -6.5 64t-32.5 84.5t-55 72.5q-15 13 -76.5 43.5t-73.5 30.5q-3 0 -10 -6t-9 -6q-42 -11 -52 -21q-135 -142 -135 -285q0 -63 17 -112q14 -41 76 -72q40 -20 93 -20q58 0 129 36q25 12 59 32q20 20 47 72q29 56 29 87z" />
<glyph unicode="P" horiz-adv-x="800" d="M807 717q0 -44 -36 -85q-152 -174 -317 -272q-41 -25 -93 -46q-88 -38 -90 -38q7 -78 25 -126q6 -15 26.5 -35t20.5 -23q0 -2 -130 -132q-50 40 -75 89q-19 38 -28 92q-6 46 -13 94t-7 165q0 80 10 164q1 4 4 18t3 16q0 1 -13.5 13.5t-13.5 17.5l39 42q0 2 1 7 q50 52 120 118q10 -10 14 -10q-5 0 50 23q111 49 234 49q98 0 174 -34q33 -14 62 -43q33 -34 33 -64zM638 657q-95 34 -172 34q-43 0 -98 -9q-65 -11 -96 -28q-15 -106 -16 -228l11 -3q77 23 91 28q54 18 113 48q37 18 90 53q28 19 66 48q17 20 11 57z" />
<glyph unicode="Q" horiz-adv-x="939" d="M901 98q0 -4 -46 -52q-49 -51 -77 -74q-1 -1 -24 -1q-85 0 -181 84q-66 -55 -112 -74.5t-108 -19.5q-70 0 -114 24q-56 31 -121 120q-2 2 -15 37q-23 59 -23 143q0 170 71 289q30 49 98 119q65 67 112 98q11 8 99 22q75 11 104 11q125 0 229 -131q17 -22 37 -61 q24 -48 24 -122q0 -46 -8 -90q-28 -136 -133 -230q36 -35 96 -40q15 2 45 -2q13 -6 30 -25t17 -25zM679 430q0 34 -6 61q-4 13 -12 36q-5 12 -13 32q-18 48 -74 71q-40 16 -88 16q-13 0 -62 -7q-15 -2 -40 -10q-6 -4 -18 -17t-14 -13q-4 0 -30 26q-26 -26 -47 -122 q-20 -86 -20 -141q0 -72 23 -136q17 -48 35 -60q42 -27 118 -27q32 0 54 3q-32 41 -73 108l65 65q38 39 66 58q4 4 39 4q5 0 27.5 -23t22.5 -28q0 -3 -10.5 -14t-10.5 -14q0 -8 30 -44q9 24 21 66q17 80 17 110z" />
<glyph unicode="R" horiz-adv-x="939" d="M885 277q0 -19 -24 -195q5 -16 1 -43q-22 -34 -75 -84q-49 -46 -55 -46q-9 0 -52 51q-1 1 -1 14l13 89t13 135q0 105 -34 143q-7 8 -28 9q-65 5 -58 5q-107 0 -267 -55q9 -38 19 -65q14 -38 31 -68q7 -11 31 -40q21 -25 21 -28q0 -5 -62.5 -67t-67.5 -62q-6 0 -43.5 41.5 t-52.5 65t-36 78.5q-8 27 -23 79q-23 77 -23 222q0 107 12 151q7 24 10 52q4 6 11 17q1 7 8 21q35 42 142 143q42 -42 45 -42t16 5.5t18 6.5q104 25 182 25q50 0 67 -7q7 -3 31.5 -27t28.5 -35.5t4 -19.5q0 -19 -23 -45q-34 -41 -188 -195q2 -2 6 0q119 28 180 28 q42 0 84 -12q20 -5 57 -41q34 -33 51 -61q12 -19 22 -68q9 -45 9 -75zM505 654q-14 4 -30 4q-17 0 -148 -20q-20 -2 -32 -10q-4 -33 -4 -94q0 -58 4 -90q21 21 126 119q62 57 84 91z" />
<glyph unicode="S" horiz-adv-x="830" d="M819 610q0 -3 -123 -126q-19 15 -48 48q-9 32 -36 95q-6 10 -38 20q-54 16 -85 16q-43 0 -76 -10q-24 -8 -32 -11q-20 -9 -30 -19q-37 -38 -70 -136q-32 -94 -32 -157q0 -50 12 -67q26 -1 39 3q63 19 177 78q78 41 154 41q42 0 60 -6q13 -4 39 -30q30 -29 30 -45 q0 -26 -87 -115q-67 -68 -103 -97q-31 -25 -96 -73q-70 -53 -74 -53q-3 0 -51 49q41 43 127 124q5 5 56 40q40 29 46 39h-26q-55 0 -135 -38q-138 -65 -151 -70q-44 -17 -67 -17q-26 0 -47 21l-54 54q-6 7 -13 41q-5 30 -5 47q0 55 27 142.5t61 139.5q12 19 40 57 q123 132 176 171q85 64 178 64q30 0 60 -6q45 -9 90 -40q37 -26 53.5 -51t36.5 -73q17 -43 17 -50z" />
<glyph unicode="T" horiz-adv-x="817" d="M890 761q0 -7 -63 -70.5t-66 -63.5t-14 3.5t-16 3.5q-56 8 -165 18q-12 -28 -13 -45q-9 -134 -9 -176q0 -132 40 -257q0 -12 5 -33q2 -6 17 -24.5t15 -22.5q0 -12 -126 -131q-8 -6 -15 -6q-3 0 -26 21.5t-37 38.5q-1 7 -4 22q-5 8 -12 25q0 9 -2 30q-6 12 -15 38 q0 5 -21 131q-4 24 -4 89q0 154 21 222q4 23 14 68q-1 2 -10 2q-54 0 -160 -29q-3 -1 -38 -14q-26 -9 -38 -9t-30.5 18.5t-36.5 37.5q1 0 86 83q53 52 57 52q3 0 5.5 -3t6.5 -3q3 0 45 14q46 15 60 18q135 28 291 28q37 0 79 -6l56 -10q23 -1 68 -7q6 -1 30.5 -24.5 t24.5 -28.5z" />
<glyph unicode="U" horiz-adv-x="843" d="M802 110q-41 -44 -130 -132q-57 44 -82 101q-17 48 -33 95q-77 -63 -155 -126q-105 -78 -166 -78q-28 0 -67 39q-35 35 -50 69q-19 44 -19 206q0 335 53 439q16 31 59 69l70 60q51 -42 51 -51q0 -2 -7 -24q-8 -25 -11 -36q-37 -194 -37 -377q0 -79 7 -141q5 -46 12 -65 q2 -5 9 -13q21 -2 78 22q9 5 28 15t68 47.5t49 45.5q0 -12 -23 117q-6 38 -7 61q-3 20 -6 55q-1 21 -17 136q0 3 -7.5 12t-7.5 12q0 16 59 77l76 76q14 -12 29 -23q17 -15 20.5 -23.5t11.5 -70.5q17 -138 35 -276q27 -160 79 -278q7 -16 31 -40z" />
<glyph unicode="V" horiz-adv-x="849" d="M778 767q0 -71 -63 -246q-35 -90 -70 -181q-15 -24 -42 -71q-30 -59 -96 -171q-20 -30 -61 -69q-35 -33 -71 -66q-118 95 -178 231q-35 78 -66 226q-51 245 -51 275q0 19 1 20.5t132 132.5q21 -17 32 -28q22 -21 26 -34q-2 -9 -3 -27q3 -30 13 -85q22 -106 43 -211 q39 -160 98 -258q17 22 36 57q8 13 17 38q13 35 30 80q11 27 30 82q13 35 36 107q3 13 14 69q0 4 1 31q0 20 6 30q24 34 77 84q50 45 57 45q8 0 48 -47q4 -5 4 -14z" />
<glyph unicode="W" horiz-adv-x="1222" d="M1246 837q0 -31 -14 -80q-9 -33 -19 -66q-11 -40 -35 -121q-7 -26 -37 -103q-10 -26 -41 -96q-11 -24 -30 -67l-30 -60q-18 -38 -47 -75q-20 -26 -84 -90q-82 -82 -105 -82q-6 0 -28.5 20t-31.5 36q-30 53 -66 174q-19 62 -47 190q-27 -77 -82 -242q-13 -39 -66 -93 q-48 -47 -95 -93q-32 29 -64 57q-45 42 -72 76q-18 23 -51 108q-26 66 -35 91q-21 56 -29 91q-8 29 -22 89q-10 48 -19 96q-13 65 -13 101q0 18 12 28q30 31 61 62q57 57 65 57q6 0 28.5 -21t28.5 -35q3 -9 0 -26q-4 -21 -3 -27q36 -270 141 -485q1 1 3 5q26 105 79 298 q20 66 56 163q0 8 2 20q2 1 133 133q21 -17 56 -53q6 -10 8 -29q3 -24 4 -30q26 -84 64 -266q32 -159 67 -252q26 51 78 173q15 41 53 174q42 142 42 163q0 11 -1 13q-6 8 -18 18q-6 5 -6 20q0 13 14 27q116 116 122 116q9 0 37 -29.5t32.5 -39.5t4.5 -38z" />
<glyph unicode="X" horiz-adv-x="1074" d="M1023 137q0 -8 -133 -141q-34 26 -56 54q-2 7 -5 17q-11 23 -42 67q-13 14 -128 124q-84 80 -127 131l-114 -114q-103 -105 -103 -115q0 -1 19 -22q-45 -47 -89 -94q-49 -50 -85 -50q-10 0 -33 21q-15 17 -31 33q58 74 99 118q19 19 173 177q106 109 106 113 q0 3 -92.5 123.5t-92.5 122.5t124 126q9 9 16 9q9 0 36 -25.5t28 -31.5q4 -21 55 -87q36 -44 71 -89q35 36 108 105q17 17 67 51q62 43 81 43q16 0 25 -7q48 -37 48 -51q0 -6 -65 -72t-70 -66q-2 0 -9 3t-10 3q-19 0 -64 -33l-60 -44q53 -61 151 -161q202 -179 202 -238z " />
<glyph unicode="Y" horiz-adv-x="759" d="M788 798l-17 -29q-18 -33 -25 -47q-125 -267 -180 -442q-5 -16 -17 -87q-7 -39 -7 -42t5 -11.5t5 -11.5q0 -12 -122 -126q-9 -9 -15 -9q-2 0 -23 20t-29 31q-1 1 -1 18q0 30 22 132q6 19 18 58q-3 0 -8 3q-81 8 -217 163q-30 35 -50 93q-10 30 -26 103q-20 92 -20 90 q0 5 63 65.5t68 60.5q4 0 21.5 -16t26.5 -29q2 -4 7 -35q7 -24 17 -69q9 -76 48 -142q50 -86 127 -102q6 -1 12 -4q27 64 80 182q17 43 55 113q25 32 75 79t55 47q7 0 29.5 -26.5t22.5 -29.5z" />
<glyph unicode="Z" horiz-adv-x="957" d="M876 125q0 -4 -122 -125q-6 -6 -13 -6q-2 0 -24.5 4.5t-33.5 5.5q-98 6 -171 6q-65 0 -96 -2q-27 -2 -85 -8q-54 -6 -56 -6h-159l-52 52q23 35 67 106q46 80 154 196q-4 2 -28 2q-28 0 -38 -8l-58 58q126 133 136 133q3 0 70.5 -4t69.5 -4h21q39 39 118 114q-9 2 -66 2 q-3 0 -82 -4t-83 -4h-109q-3 0 -7 -4t-7 -4t-64 61q30 36 60 73q40 49 76 56q84 18 177 18q51 0 102.5 -5.5t43.5 -5.5q112 0 184 -7q50 -45 50 -51q0 -5 -49 -55t-83 -80q-20 -12 -57 -37q-54 -39 -88 -71q17 -1 50 -8q13 -5 37 -29q20 -22 20 -25q0 -5 -62 -69t-67 -64 q-2 0 -16.5 4t-25.5 5q-73 7 -115 7q-36 -41 -113 -163q8 -2 41 -2q1 0 52 6q56 5 81 7q67 3 136 3q61 0 137 -4q24 -1 47 -2q32 -3 50 -11q14 -6 32 -25.5t18 -25.5z" />
<glyph unicode="[" horiz-adv-x="699" d="M641 128q-29 -33 -57 -65q-36 -41 -67 -61q-28 -2 -84 -5q-39 -3 -122 -13q-76 -9 -78 -9q-4 0 -34.5 28t-46.5 48q-11 14 -24 49t-17 57q-15 76 -15 102q0 103 3 152q10 190 48.5 256t124.5 121q4 2 37 5.5t40 3.5h224q6 0 54 -48q-44 -48 -123 -127h-200q-5 0 -8 -5 q-18 -85 -19 -125q-3 -57 -3 -144q0 -97 44 -193q218 22 243 22q29 0 34 -4q23 -22 46 -45z" />
<glyph unicode="\" horiz-adv-x="764" d="M704 102q0 -4 -58.5 -62.5t-63.5 -58.5t-24.5 17.5t-29.5 31.5q-3 10 -9 25q-24 34 -60 96q-12 27 -41 69q-40 58 -43 64q-20 31 -60 95q-11 20 -32 61q-15 26 -28 47q-84 139 -157 219q0 -1 0 4t59 64.5t64 59.5q4 0 26 -20.5t36 -38.5q42 -53 95 -133q11 -17 102 -176 q23 -40 85 -132q49 -73 65 -110q0 -1 39 -58q35 -52 35 -64z" />
<glyph unicode="]" horiz-adv-x="715" d="M621 170q1 -50 -8 -65q-7 -11 -46 -51q-44 -44 -77 -72q-13 -10 -34 -13h-91q-104 0 -150 9q-24 1 -70 12q-11 5 -26 22q-11 14 -23 27q14 18 67 70q57 57 64 57q-5 0 30 -4q4 -2 10 -6q98 -15 110 -16h71v513h-25q-6 -1 -19.5 -3.5t-86.5 -20.5q-57 -14 -85 -14 q-21 0 -28 8q-31 32 -39 39l56 64q38 42 68 59q31 4 93 15l62 16q47 11 70 11q52 0 62 -4t22 -18t23 -27v-608z" />
<glyph unicode="^" horiz-adv-x="525" d="M465 593q0 -3 -99 -104q-40 30 -110 154q-56 -61 -135 -137q-41 39 -41 44q0 2 19.5 23.5t24.5 29.5q12 16 32 35l164 159q4 0 21 -16t27 -30q25 -36 61 -94.5t36 -63.5z" />
<glyph unicode="_" horiz-adv-x="612" d="M563 92q-41 -43 -111 -113h-201q-3 0 -60.5 -5t-60.5 -5q-27 0 -32 4q-21 21 -43 42q13 16 61 63q52 53 58 53q3 0 16 -1.5t16 -1.5t36.5 3.5t36.5 3.5h235q5 0 49 -43z" />
<glyph unicode="`" horiz-adv-x="422" d="M357 558q0 -3 -47.5 -51t-51.5 -48q-13 0 -43 39q0 5 -5 16q-14 17 -38 55q-7 15 -20 45q-23 55 -23 78q0 3 48.5 51t51.5 48q4 0 19.5 -14.5t18.5 -22.5q4 -15 11 -43q12 -38 41 -96q1 -2 21 -28q17 -22 17 -29z" />
<glyph unicode="a" horiz-adv-x="808" d="M757 751q0 -3 -22 -130t-22 -130v-275q0 -35 16 -113q1 -5 8 -16t7 -14q0 -5 -60.5 -66t-65.5 -61q-12 0 -52 49q-12 15 -21 71q-9 49 -8 73v151h-14q-58 -2 -151 -16q-31 -5 -84 -19q-1 -42 6 -72q2 -12 12 -42q8 -26 8 -30q0 -3 -126 -129q-20 15 -49 50q-13 25 -23 91 q-4 29 -4 102q0 255 76 471q3 9 67.5 73.5t70.5 64.5q2 0 15 -13t16 -13h225q37 0 129 -6q5 -1 25.5 -22.5t20.5 -28.5zM570 620v11q-17 -2 -248 0q0 -2 -19 -109q-12 -62 -12 -110q114 35 253 47q4 28 16 98q10 60 10 63z" />
<glyph unicode="b" horiz-adv-x="796" d="M813 528q0 -67 -140 -210q-86 -88 -191 -174q-42 -34 -160 -99q-30 -14 -82 -40q-3 -3 -21 -16t-21 -13q-5 0 -25.5 18.5t-31.5 33.5t-15 40q-50 272 -50 446q0 90 6 133q0 20 10 53q20 27 58 62q31 28 63 56q6 -6 10 -9q9 0 29 -1.5t22 -1.5q52 0 126 3q31 1 138 9 q5 1 19 4.5t17 3.5q4 0 26.5 -22.5t22.5 -27.5q0 -12 -93 -97q-65 -57 -129 -115q1 -2 3 -1q156 43 277 43q85 0 115 -44q1 -3 14 -15q3 -4 3 -19zM381 645q-26 -1 -67 -2q-44 -3 -66 -1l-4 4v-133q47 44 137 132zM642 439h-74q-56 0 -169 -26q-99 -22 -141 -39v-12 q1 14 30 -199h9l196 108q119 76 149 168z" />
<glyph unicode="c" horiz-adv-x="800" d="M767 329q0 -5 -41 -47q-43 -45 -68 -66q-19 -10 -51 -31q-41 -31 -111 -88q-75 -61 -114 -81q-45 -23 -102 -23q-35 0 -54 18q-34 30 -54 50q-41 41 -52 67q-28 64 -32 109q-8 97 -8 113q0 102 31 195q15 46 40 79.5t70 79.5q54 56 93 82q12 8 52 8q32 0 55 -8 q40 -14 79 -49q35 -31 82.5 -80t47.5 -53q0 -6 -106 -113q-5 -5 -13 -5q-10 0 -45 44l-40 51q-68 58 -130 58q-12 0 -15 -3q-6 -6 -12.5 -24.5t-16.5 -55.5q-15 -66 -15 -137q0 -188 62 -252q16 -16 53 -16q58 0 111 30q32 18 99 75q74 62 127 96q31 21 33 21q4 0 24.5 -20 t20.5 -24z" />
<glyph unicode="d" horiz-adv-x="771" d="M790 675q0 -16 -29 -70q-15 -27 -30 -55q-63 -123 -205 -281q-79 -88 -273 -279q-29 21 -49 46q-2 8 -6 22q-8 14 -18 43q-23 129 -36 236q-7 59 -8 115q-1 94 3 118q-5 1 -12 -1q-10 -2 -11 -2q-5 0 -52 47q29 30 58 61q35 36 63 56q6 5 21.5 5.5t21.5 3.5q13 13 37 33 q19 -19 20 -19l23 6q50 14 142 26q89 11 142 11q72 0 105 -17t61 -46q32 -34 32 -59zM626 604q0 6 -5 14q-53 16 -102 16q-50 0 -125 -9q-47 -7 -94 -13v-123q0 -37 18 -159q12 -74 23 -148q50 45 151 183q71 97 123 207q11 25 11 32z" />
<glyph unicode="e" horiz-adv-x="781" d="M749 513q0 -4 -122 -127h-182q-28 0 -157 -13v-10q0 -6 13 -56q15 -56 26 -88q8 -20 27 -51q32 15 34 15q3 0 3 -1t3 -1t31 10q33 11 48 15q138 35 192 35q4 0 13 3.5t12 3.5q5 0 27 -21.5t22 -26.5q0 -6 -54 -63q-57 -59 -76 -67q-10 -4 -33 -5q-32 -1 -38 -2 q-17 -2 -114 -27q-20 -3 -64 -19q-4 -3 -26.5 -26t-26.5 -23q2 0 -13 7q-26 12 -62 47.5t-55 65.5q-10 17 -25 52q-23 58 -39.5 150.5t-16.5 165.5q0 111 11 198q2 26 4 51q4 31 20 53q21 33 72 81q47 44 54 44q4 0 23 -19t28 -31q-5 -20 -5 -22q24 5 112 5q-3 0 21 2 q23 1 40 0q25 -1 39.5 -6t33.5 -26.5t19 -27.5t-126 -131q-10 11 -16 12q-24 3 -34 3q8 0 -25 0q-33 -1 -94 -1q4 -3 3 -16q-4 -34 -4 -59q0 -27 26 -27q199 23 233 23h174q44 -45 44 -49z" />
<glyph unicode="f" horiz-adv-x="683" d="M701 528q0 -5 -60 -67.5t-64 -62.5q-3 0 -8.5 2.5t-8.5 2.5q-6 0 -12 -4q-51 0 -245 -19q0 -1 -1.5 -2t-1.5 -5q0 -3 2 -12.5t3 -13.5q3 -74 72 -222q4 -9 21.5 -32t17.5 -25q0 -5 -62.5 -66.5t-67.5 -61.5q-4 0 -22.5 18t-27.5 30q-35 46 -65 117q-28 66 -38 116 q-10 59 -17 134q-12 142 -12 132q0 92 23 209q2 11 0 21q121 126 128 126l19 -17t25 -17q3 0 87.5 12t87.5 12q15 0 17 -1q48 -37 48 -49q0 -8 -41 -54q-47 -54 -83 -73q-22 -12 -62 -12q-55 1 -64 0q-7 -10 -7 -24v-83q12 -2 53 8q50 13 63 15q141 21 226 16q1 0 3.5 2.5 t6.5 2.5q14 0 22 -6q45 -36 45 -47z" />
<glyph unicode="g" horiz-adv-x="921" d="M874 219q0 -4 -48 -53.5t-79 -77.5q-18 -13 -54 -41l-5 5q-142 -69 -183 -85q-109 -43 -187 -43q-60 0 -84 16q-52 35 -95 103t-51 121q-8 57 -8 104q0 150 59 280q54 121 96 158l119 119q46 44 86 44q49 0 120 -51q33 -24 109 -93q66 -59 66 -65q0 -7 -122 -129 q-91 86 -139 121q-72 52 -120 48q-103 -158 -103 -359q0 -161 68 -233q1 -1 27 -9q22 -6 48 -6q103 0 240 72q-4 51 -4 165q-53 -23 -188 -113q-24 -16 -27 -16q-4 0 -29.5 23.5t-25.5 28.5q0 4 58.5 63t63.5 59q3 0 2.5 -1.5t2.5 -1.5t17 11q19 14 23 16q55 34 110 69 q68 39 111 44q6 4 8 4q5 0 24.5 -17.5t26.5 -31.5l-3 -46q-8 -107 1 -172q4 2 19 18q50 -41 50 -48z" />
<glyph unicode="h" horiz-adv-x="806" d="M750 528q0 -3 -33 -36.5t-33 -35.5q0 -7 9 -86q11 -88 18 -129q3 -20 17 -63.5t14 -46.5q0 -4 -62.5 -67.5t-67.5 -63.5t-24 18t-27 30q1 8 -1 24q-25 64 -35 146q-10 87 -19 174h-30q-34 0 -113.5 -15.5t-98.5 -23.5q17 -88 48 -209q5 -21 13 -37q1 -2 8 -10.5t7 -12.5 q0 -5 -62.5 -68t-67.5 -63t-28.5 22.5t-29.5 35.5q-14 27 -28 95q-15 53 -38 158q-6 34 -6 113q0 95 22 263l16 47q4 16 18 45q27 36 142 145q49 -48 49 -51t-9 -17q-10 -17 -14 -26q-25 -59 -29 -94q-14 -131 -14 -149q0 -23 15 -23q1 0 89 20q96 22 141 30v127q-2 7 -3 14 q-2 14 -2 26q0 28 10 48q16 32 59 68q35 29 71 59q14 -11 29 -23.5t18 -25t3 -31.5q0 -25 -5 -61q-2 -17 -5 -34v-152q8 -1 21 -5q13 -10 30.5 -27t17.5 -22z" />
<glyph unicode="i" horiz-adv-x="423" d="M350 104q0 -4 -59 -64t-64 -60t-24 16.5t-28 31.5q-5 8 -30 81q-10 25 -26 73q-3 14 -7 103q-6 109 -6 170q0 108 7 148q2 21 5 42q4 25 12 41q0 7 5.5 19t63.5 67.5t67 55.5t30 -22.5t21 -25.5q-11 -13 -27 -52q-15 -84 -15 -195q0 -149 15 -273q3 -22 31.5 -89.5 t28.5 -66.5z" />
<glyph unicode="j" horiz-adv-x="902" d="M827 296q0 -3 -3 -27t-3 -33q-3 -41 -67 -108l-102 -100q-12 -13 -30 -22q-72 -36 -172 -36q-42 0 -82 7q-18 5 -54 14q-69 14 -152 93.5t-83 134.5q0 8 77 85q74 74 98 93q43 34 100 34q26 0 31 -4q14 -10 31.5 -29t17.5 -24q0 -4 -128 -132l-5 6l-23 -2q13 -19 24 -27 q88 -65 229 -65q87 0 110 18q3 28 3 45q0 64 -38 223q-11 44 -49 134q-8 20 -35 71q-23 44 -23 47q0 4 65 69t68 65q5 0 26 -20.5t28 -33.5q57 -112 86 -200q16 -46 26 -99q6 -20 15 -60q14 -77 14 -117z" />
<glyph unicode="k" horiz-adv-x="853" d="M797 292q0 -23 -6 -69.5t-6 -62.5t4 -26q-121 -124 -130 -124q-4 0 -23.5 16.5t-29.5 30.5v25q0 3 6.5 65.5t6.5 65.5q0 49 -17 99q-22 10 -52 10q-48 0 -123 -32q-68 -31 -121 -72q10 -56 24 -91q2 -5 14 -22.5t12 -21.5t-125 -129q-74 61 -90 125q-61 249 -61 397 q0 97 14 200q4 31 16 45q22 27 61 65q33 31 65 62q49 -49 49 -54q0 -3 -6 -17.5t-7 -22.5q-13 -106 -13 -199q0 -51 10 -144l4 -5q19 25 129 167q34 45 107 133q48 46 145 142q49 -49 49 -51q0 -4 -30 -38q-38 -43 -46 -53q-82 -103 -114 -145q-71 -92 -105 -144v-3 q120 84 221 84q89 0 138 -74q12 -17 21 -59t9 -73z" />
<glyph unicode="l" horiz-adv-x="852" d="M868 191q0 -6 -127 -132h-98q-7 -2 -22 -5q-83 -12 -176 -39q-74 -23 -147 -45q-63 -18 -65 -18q-4 0 -27.5 21.5t-34.5 36.5q0 7 -4 22q-41 96 -59 192q-28 151 -28 289q0 91 9.5 125t45.5 71q55 54 111 108q50 -51 50 -54t-7.5 -13.5t-8.5 -14.5q-14 -46 -14 -140 q0 -230 61 -420q5 -16 15 -29q14 2 59 14q32 11 93 32q26 7 109 28q101 25 122 25h93q50 -51 50 -54z" />
<glyph unicode="m" horiz-adv-x="1212" d="M1151 113q0 -6 -124 -130q-2 2 -35 30q-21 18 -28 34q2 9 -15 99q-10 46 -26 135q-7 28 -21 83q-8 30 -19 81q-3 26 -6 53q-4 33 -17 58q-47 -67 -80 -161q-19 -51 -56 -163q0 -1 -5 -35q-4 -25 -12 -36q-23 -32 -71.5 -77.5t-54.5 -45.5q-7 0 -26 16q-22 17 -28.5 34.5 t-7.5 53.5q0 40 -4 56q-31 106 -93 212q-72 122 -133 144v-112q3 -28 7 -85q2 -22 5 -68q3 -53 12 -161q1 -3 8 -14.5t7 -14.5q0 -5 -126 -131q-33 31 -39 38q-25 28 -27 43q-7 69 -12 165q-1 23 -9 107q-3 38 -3 130q0 114 15 211q-2 11 2 29q26 32 73 77.5t52 45.5 q8 0 47 -45l6 -18l15 -3q90 -24 190 -141q83 -96 130 -199q46 98 138 193q174 182 185 182q5 0 24.5 -17.5t24.5 -30t32 -125.5q2 -12 20 -112q5 -33 15 -71q15 -56 24 -101q10 -49 29 -141q4 -17 7 -55q0 -2 5 -7.5t5 -9.5z" />
<glyph unicode="n" horiz-adv-x="923" d="M856 549q0 -101 -14 -234q-15 -155 -35.5 -185t-76.5 -81q-51 -47 -56 -47q-7 0 -55 49q0 3 -2 8q-39 44 -123 133q-31 33 -86 102q-48 66 -148 200q-1 -7 -1 -38q0 -108 28 -209q8 -29 26 -84q3 -6 16.5 -22.5t13.5 -19.5q0 -5 -64.5 -70t-69.5 -65q-9 0 -39 35t-37 51 t-40 139q-18 67 -18 233q0 83 2 103q9 114 23 173q1 3 64 65.5t70 62.5q4 0 18 -14q14 14 18 14q5 0 28 -23t23 -29q0 -2 -5.5 -7t-5.5 -9q0 -1 50 -79q161 -248 300 -402q2 2 3 13q12 138 12 166q0 41 -28 163q-5 23 -37 51q70 76 125 127q4 4 14 4t32 -21q18 -17 24 -28 q51 -85 51 -225z" />
<glyph unicode="o" horiz-adv-x="965" d="M897 481q0 -14 -16 -56q-28 -75 -113 -171q-50 -55 -168 -168q-29 -28 -90 -55q-92 -41 -140 -41q-61 0 -117 34t-126 115q-17 19 -22 30q-25 52 -25 127q0 104 78 219q58 86 178 202q-24 22 -24 40q0 5 49 54.5t81 74.5q1 2 27 2q145 0 284 -128q144 -131 144 -279z M713 401q0 26 -6.5 64t-32.5 84.5t-55 72.5q-15 13 -76.5 43.5t-73.5 30.5q-3 0 -10 -6t-9 -6q-42 -11 -52 -21q-135 -142 -135 -285q0 -63 17 -112q14 -41 76 -72q40 -20 93 -20q58 0 129 36q25 12 59 32q20 20 47 72q29 56 29 87z" />
<glyph unicode="p" horiz-adv-x="800" d="M807 717q0 -44 -36 -85q-152 -174 -317 -272q-41 -25 -93 -46q-88 -38 -90 -38q7 -78 25 -126q6 -15 26.5 -35t20.5 -23q0 -2 -130 -132q-50 40 -75 89q-19 38 -28 92q-6 46 -13 94t-7 165q0 80 10 164q1 4 4 18t3 16q0 1 -13.5 13.5t-13.5 17.5l39 42q0 2 1 7 q50 52 120 118q10 -10 14 -10q-5 0 50 23q111 49 234 49q98 0 174 -34q33 -14 62 -43q33 -34 33 -64zM638 657q-95 34 -172 34q-43 0 -98 -9q-65 -11 -96 -28q-15 -106 -16 -228l11 -3q77 23 92 28q53 18 112 48q37 18 90 53q28 19 66 48q17 20 11 57z" />
<glyph unicode="q" horiz-adv-x="939" d="M901 98q0 -4 -46 -52q-49 -51 -77 -74q-1 -1 -24 -1q-85 0 -181 84q-66 -55 -112 -74.5t-108 -19.5q-70 0 -114 24q-56 31 -121 120q-2 2 -15 37q-23 59 -23 143q0 170 71 289q30 49 98 119q65 67 112 98q11 8 99 22q75 11 104 11q125 0 229 -131q17 -22 37 -61 q24 -48 24 -122q0 -46 -8 -90q-28 -136 -133 -230q36 -35 96 -40q15 2 45 -2q13 -6 30 -25t17 -25zM679 430q0 34 -6 61q-4 13 -12 36q-5 12 -13 32q-18 48 -74 71q-40 16 -88 16q-13 0 -62 -7q-15 -2 -40 -10q-6 -4 -18 -17t-14 -13q-4 0 -30 26q-26 -26 -47 -122 q-20 -86 -20 -141q0 -72 23 -136q17 -48 35 -60q42 -27 118 -27q32 0 54 3q-32 41 -73 108l65 65q38 39 66 58q4 4 39 4q5 0 27.5 -23t22.5 -28q0 -3 -10.5 -14t-10.5 -14q0 -8 30 -44q9 24 21 66q17 80 17 110z" />
<glyph unicode="r" horiz-adv-x="939" d="M885 277q0 -19 -24 -195q5 -16 1 -43q-22 -34 -75 -84q-49 -46 -55 -46q-9 0 -52 51q-1 1 -1 14l13 89t13 135q0 105 -34 143q-7 8 -28 9q-65 5 -58 5q-107 0 -267 -55q9 -38 19 -65q14 -38 31 -68q7 -11 31 -40q21 -25 21 -28q0 -5 -62.5 -67t-67.5 -62q-6 0 -43.5 41.5 t-52.5 65t-36 78.5q-8 27 -23 79q-23 77 -23 222q0 107 12 151q7 24 10 52q4 6 11 17q1 7 8 21q35 42 142 143q42 -42 45 -42t16 5.5t18 6.5q104 25 182 25q50 0 67 -7q7 -3 31.5 -27t28.5 -35.5t4 -19.5q0 -19 -23 -45q-34 -41 -188 -195q2 -2 6 0q119 28 180 28 q42 0 84 -12q20 -5 57 -41q34 -33 51 -61q12 -19 22 -68q9 -45 9 -75zM505 654q-14 4 -30 4q-17 0 -148 -20q-20 -2 -32 -10q-4 -33 -4 -94q0 -58 4 -90q21 21 126 119q62 57 84 91z" />
<glyph unicode="s" horiz-adv-x="830" d="M819 610q0 -3 -123 -126q-19 15 -48 48q-9 32 -36 95q-6 10 -38 20q-54 16 -85 16q-43 0 -76 -10q-24 -8 -32 -11q-20 -9 -30 -19q-37 -38 -70 -136q-32 -94 -32 -157q0 -50 12 -67q26 -1 39 3q63 19 177 78q78 41 154 41q42 0 60 -6q13 -4 39 -30q30 -29 30 -45 q0 -26 -87 -115q-67 -68 -103 -97q-31 -25 -96 -73q-70 -53 -74 -53q-3 0 -51 49q41 43 127 124q5 5 56 40q40 29 46 39h-26q-55 0 -135 -38q-138 -65 -151 -70q-44 -17 -67 -17q-26 0 -47 21l-54 54q-6 7 -13 41q-5 30 -5 47q0 55 27 142.5t61 139.5q12 19 40 57 q123 132 176 171q85 64 178 64q30 0 60 -6q45 -9 90 -40q37 -26 53.5 -51t36.5 -73q17 -43 17 -50z" />
<glyph unicode="t" horiz-adv-x="817" d="M890 761q0 -7 -63 -70.5t-66 -63.5t-14 3.5t-16 3.5q-56 8 -165 18q-12 -28 -13 -45q-9 -134 -9 -176q0 -132 40 -257q0 -12 5 -33q2 -6 17 -24.5t15 -22.5q0 -12 -126 -131q-8 -6 -15 -6q-3 0 -26 21.5t-37 38.5q-1 7 -4 22q-5 8 -12 25q0 9 -2 30q-6 12 -15 38 q0 5 -21 131q-4 24 -4 89q0 154 21 222q4 23 14 68q-1 2 -10 2q-54 0 -160 -29q-3 -1 -38 -14q-26 -9 -38 -9t-30.5 18.5t-36.5 37.5q1 0 86 83q53 52 57 52q3 0 5.5 -3t6.5 -3q3 0 45 14q46 15 60 18q135 28 291 28q37 0 79 -6l56 -10q23 -1 68 -7q6 -1 30.5 -24.5 t24.5 -28.5z" />
<glyph unicode="u" horiz-adv-x="843" d="M802 110q-41 -44 -130 -132q-57 44 -82 101q-17 48 -33 95q-77 -63 -155 -126q-105 -78 -166 -78q-28 0 -67 39q-35 35 -50 69q-19 44 -19 206q0 335 53 439q16 31 59 69l70 60q51 -42 51 -51q0 -2 -7 -24q-8 -25 -11 -36q-37 -194 -37 -377q0 -79 7 -141q5 -46 12 -65 q2 -5 9 -13q21 -2 78 22q9 5 28 15t68 47.5t49 45.5q0 -12 -23 117q-6 38 -7 61q-3 20 -6 55q-1 21 -17 136q0 3 -7.5 12t-7.5 12q0 16 59 77l76 76q14 -12 29 -23q17 -15 20.5 -23.5t11.5 -70.5q17 -138 35 -276q27 -160 79 -278q7 -16 31 -40z" />
<glyph unicode="v" horiz-adv-x="849" d="M778 767q0 -71 -63 -246q-35 -90 -70 -181q-15 -24 -42 -71q-30 -59 -96 -171q-20 -30 -61 -69q-35 -33 -71 -66q-118 95 -178 231q-35 78 -66 226q-51 245 -51 275q0 19 1 20.5t132 132.5q21 -17 32 -28q22 -21 26 -34q-2 -9 -3 -27q3 -30 13 -85q22 -106 43 -211 q39 -160 98 -258q17 22 36 57q8 13 17 38q13 35 30 80q11 27 30 82q13 35 36 107q3 13 14 69q0 4 1 31q0 20 6 30q24 34 77 84q50 45 57 45q8 0 48 -47q4 -5 4 -14z" />
<glyph unicode="w" horiz-adv-x="1222" d="M1246 837q0 -31 -14 -80q-9 -33 -19 -66q-11 -40 -35 -121q-7 -26 -37 -103q-10 -26 -41 -96q-11 -24 -30 -67l-30 -60q-18 -38 -47 -75q-20 -26 -84 -90q-82 -82 -105 -82q-6 0 -28.5 20t-31.5 36q-30 53 -66 174q-19 62 -47 190q-27 -77 -82 -242q-13 -39 -66 -93 q-48 -47 -95 -93q-32 29 -64 57q-45 42 -72 76q-18 23 -51 108q-26 66 -35 91q-21 56 -29 91q-8 29 -22 89q-10 48 -19 96q-13 65 -13 101q0 18 12 28q30 31 61 62q57 57 65 57q6 0 28.5 -21t28.5 -35q3 -9 0 -26q-4 -21 -3 -27q36 -270 141 -485q1 1 3 5q26 105 79 298 q20 66 56 163q0 8 2 20q2 1 133 133q21 -17 56 -53q6 -10 8 -29q3 -24 4 -30q26 -84 64 -266q32 -159 67 -252q26 51 78 173q15 41 53 174q42 142 42 163q0 11 -1 13q-6 8 -18 18q-6 5 -6 20q0 13 14 27q116 116 122 116q9 0 37 -29.5t32.5 -39.5t4.5 -38z" />
<glyph unicode="x" horiz-adv-x="1074" d="M1023 137q0 -8 -133 -141q-34 26 -56 54q-2 7 -5 17q-11 23 -42 67q-13 14 -128 124q-84 80 -127 131l-114 -114q-103 -105 -103 -115q0 -1 19 -22q-45 -47 -89 -94q-49 -50 -85 -50q-10 0 -33 21q-15 17 -31 33q58 74 99 118q19 19 173 177q106 109 106 113 q0 3 -92.5 123.5t-92.5 122.5t124 126q9 9 16 9q9 0 36 -25.5t28 -31.5q4 -21 55 -87q36 -44 71 -89q35 36 108 105q17 17 67 51q62 43 81 43q16 0 25 -7q48 -37 48 -51q0 -6 -65 -72t-70 -66q-2 0 -9 3t-10 3q-19 0 -64 -33l-60 -44q53 -61 151 -161q202 -179 202 -238z " />
<glyph unicode="y" horiz-adv-x="759" d="M788 798l-17 -29q-18 -33 -25 -47q-125 -267 -180 -442q-5 -16 -17 -87q-7 -39 -7 -42t5 -11.5t5 -11.5q0 -12 -122 -126q-9 -9 -15 -9q-2 0 -23 20t-29 31q-1 1 -1 18q0 30 22 132q6 19 18 58q-3 0 -8 3q-81 8 -217 163q-30 35 -50 93q-10 30 -26 103q-20 92 -20 90 q0 5 63 65.5t68 60.5q4 0 21.5 -16t26.5 -29q2 -4 7 -35q7 -24 17 -69q9 -76 48 -142q50 -86 127 -102q6 -1 12 -4q27 64 80 182q17 43 55 113q25 32 75 79t55 47q7 0 29.5 -26.5t22.5 -29.5z" />
<glyph unicode="z" horiz-adv-x="957" d="M876 125q0 -4 -122 -125q-6 -6 -13 -6q-2 0 -24.5 4.5t-33.5 5.5q-98 6 -171 6q-65 0 -96 -2q-27 -2 -85 -8q-54 -6 -56 -6h-159l-52 52q23 35 67 106q46 80 154 196q-4 2 -28 2q-28 0 -38 -8l-58 58q126 133 136 133q3 0 70.5 -4t69.5 -4h21q39 39 118 114q-9 2 -66 2 q-3 0 -82 -4t-83 -4h-109q-3 0 -7 -4t-7 -4t-64 61q30 36 60 73q40 49 76 56q84 18 177 18q51 0 102.5 -5.5t43.5 -5.5q112 0 184 -7q50 -45 50 -51q0 -5 -49 -55t-83 -80q-20 -12 -57 -37q-54 -39 -88 -71q17 -1 50 -8q13 -5 37 -29q20 -22 20 -25q0 -5 -62 -69t-67 -64 q-2 0 -16.5 4t-25.5 5q-73 7 -115 7q-36 -41 -113 -163q8 -2 41 -2q1 0 52 6q56 5 81 7q67 3 136 3q61 0 137 -4q24 -1 47 -2q32 -3 50 -11q14 -6 32 -25.5t18 -25.5z" />
<glyph unicode="{" horiz-adv-x="515" d="M447 646q0 -4 -57.5 -62.5t-62.5 -58.5q-2 0 -62 43q-66 48 -90 62l-47 47q15 19 64 68q53 52 60 52q14 0 153 -105q11 -8 26.5 -25t15.5 -21zM457 410l-52 -66q-34 -41 -65 -54q-35 -13 -109 -13q-25 0 -52.5 1.5t-24.5 1.5q-7 0 -31.5 22.5t-24.5 30.5q0 12 114 119 q4 4 14 4q3 0 12.5 -4t13.5 -4q3 0 32.5 4t32.5 4h95zM450 187q-27 -31 -54 -61q-35 -38 -63 -58q-16 -3 -45 -12q-30 -20 -91 -54q-5 -2 -14 -2q-10 0 -26 16q-29 29 -29 30q34 38 114 116q8 1 22 7q94 64 130 64q12 0 26.5 -15.5t29.5 -30.5z" />
<glyph unicode="|" horiz-adv-x="508" d="M381 78q0 -2 -129 -131q-18 18 -52 51v235q-3 12 -7 37q-1 17 -1 130v128q4 33 8 72v102q125 125 130 125q2 0 51 -48v-701z" />
<glyph unicode="}" horiz-adv-x="591" d="M464 749q0 -10 -120 -124q-4 0 -13 -2q-12 -4 -31 -15q-1 -1 -50 -38q-40 -30 -47 -30q-3 0 -53 49q124 132 130 132q4 0 3 -1.5t3 -1.5q3 0 8.5 5.5t7.5 6.5q26 19 52 39q39 28 58 28q5 0 28.5 -21.5t23.5 -26.5zM503 450q0 -6 -41 -51q-46 -51 -80 -73q-13 -9 -73 -9 h-129q-13 0 -29 18q-27 28 -31 32q112 127 134 127q3 0 42 -1.5t42 -1.5h74q7 1 20.5 4.5t16.5 3.5q19 0 54 -49zM457 122q0 -5 -60.5 -65.5t-64.5 -60.5q-21 0 -92 41q-14 13 -43 37q-13 7 -36 22q-1 0 -49 49q116 124 126 124q9 0 46 -30q21 -17 42.5 -32.5t57.5 -31.5 q11 -1 29 -7q12 -8 28 -24.5t16 -21.5z" />
<glyph unicode="~" horiz-adv-x="670" d="M601 712q0 -3 -49 -51t-77 -72q-13 -11 -33 -17q-16 -4 -34 -4q-34 0 -81 38q-42 34 -68 75q-26 -1 -62 -37q-47 -47 -60 -54q-41 40 -41 45q0 4 41 42q23 23 65 57q19 19 54 53q11 10 29 21t34 11q26 0 66 -55q6 -12 21 -33q13 -12 46 -25q1 -1 16 -1q36 0 66.5 23.5 t27.5 23.5q2 0 20.5 -18.5t18.5 -21.5z" />
<glyph unicode="&#xa3;" horiz-adv-x="1031" d="M952 590q0 -6 -111 -117q-18 14 -57 55q2 4 3 14q-10 28 -15 38q-10 21 -22 29q-50 31 -81 31q-10 0 -11 -3q-11 -19 -46 -105q-13 -32 -18 -50q39 1 124 -6q15 2 43 -2q10 -5 23 -19q10 -12 20 -23q-35 -40 -111 -114q-1 -1 -27 -1q-3 0 -41.5 3.5t-41.5 3.5 q-25 0 -60 -5q-55 -100 -100 -144q15 2 51 6q33 5 35 5h355q31 0 43 -6t27.5 -23t15.5 -22q0 -11 -109 -113q-1 -1 -11 -1q-3 0 -49 3.5t-49 3.5h-275q-2 0 -20 -3t-27.5 -3.5t-79.5 -8.5q-55 -6 -92 -14q-60 -13 -98 -13q-29 0 -33 3l-42 42q2 2 55 58q36 39 63 56 q27 3 78 15q22 8 63 28q4 3 22 35q34 61 49 93q-2 1 -5 1t-7 -4.5t-7 -4.5q-18 0 -37 16q-8 6 -39 37q18 20 62 65q52 51 60 51q2 0 9.5 -1t10.5 -1q13 0 14 2q8 21 26 63q7 14 21 45q9 21 29 52q39 41 77 81q60 60 87 71q19 8 42 8q51 0 116 -53.5t85 -111.5q13 -40 13 -42 z" />
<glyph unicode="&#xa5;" horiz-adv-x="1136" d="M1093 569q0 -7 -46 -57q-51 -56 -82 -73q-27 0 -98 -12q-10 -13 -30 -35q-44 -49 -138 -140q-27 -23 -91 -53q-54 -26 -101 -40q4 -14 12.5 -25t8.5 -13q0 -6 -125 -131q-22 17 -30 24q-21 18 -30 33q-8 24 -26 71q-32 75 -60 204q-115 -68 -123 -68q-7 0 -30.5 23.5 t-23.5 29.5q0 5 60.5 66.5t65.5 61.5q3 0 3.5 -2.5t3.5 -2.5q2 0 37 23q1 15 3.5 47t2.5 34q0 5 -44 48q20 16 54 57q-3 13 1 34q25 32 74 78q46 45 51 45q14 0 53 -55q75 13 148 13q89 0 139 -6q12 -5 34 -14q44 -16 90.5 -54t70.5 -79q61 6 84 9q5 0 17.5 4.5t15.5 4.5 q4 0 26.5 -22.5t22.5 -27.5zM748 526q-68 41 -91 46q-30 6 -142 6q-52 0 -85 -3q-3 -22 -3 -71q0 -106 27 -185q113 4 185 34q64 28 74 39q17 19 27 59t8 75z" />
<glyph unicode="&#xa9;" horiz-adv-x="783" d="M714 389q0 -33 -1 -40q-9 -60 -89 -147t-143 -102q-8 -6 -30 -16q-29 -9 -79 -9q-197 0 -252 168q-8 26 -8 99q0 45 2 56q4 18 32 91q1 2 27 33q3 8 9 19l64 64q46 42 80 55q9 5 29 14q42 11 58 11q5 0 48 -9q4 -6 15 -14q22 -2 65 -9q18 -4 54 -15q39 -20 65 -69 q17 -20 37 -60q17 -80 17 -120zM614 349q0 47 -4 65q-4 22 -13 54q-4 9 -36 57q-9 13 -18 15q-16 4 -46 13q-34 8 -74 8q-23 0 -30 -1l-6 -4q-3 0 -14.5 14.5t-14.5 14.5l-50 -12q-4 -2 -10 -6q-46 -17 -54 -40q-28 -76 -30 -85.5t-2 -57.5q0 -110 40 -156q45 -52 162 -52 q51 0 62 3q20 5 56 21q33 15 40 20q29 22 41 83q1 5 1 46zM565 353q0 -7 -18 -28q-54 -62 -79 -82q-38 -29 -79 -29q-29 0 -61 16q-37 19 -61 52q-3 10 -9 31q-7 18 -7 38q0 21 15 48q4 14 17 39q34 44 69 68q12 9 44 9q20 0 56 -13q43 -15 43 -31q0 -4 -34 -38t-39 -34 q-3 0 -32 9t-32 9q-2 0 -7 -4q0 -28 7 -58q0 -7 4 -18q20 -22 69 -22q34 0 58 19q23 24 46 47q30 -22 30 -28z" />
<glyph unicode="&#xad;" d="M533 459q-68 -73 -125 -123q-108 0 -172 -1q-45 0 -64 -1t-15 -1q-3 0 -52 50l130 130q3 -4 11 -7h241z" />
<glyph unicode="&#xae;" horiz-adv-x="669" d="M599 399q0 -55 -1 -60q-6 -34 -22 -55q-33 -46 -48 -64q-34 -39 -69 -63q-16 -3 -45 -12q-34 -13 -48 -15q-4 -1 -37 -1q-72 0 -134 35q-29 18 -44 27.5t-28 30.5q-9 17 -18 35q-7 12 -17 38q-3 11 -3 68q0 53 0.5 56.5t11.5 30.5q5 16 23 47q36 43 84 83q17 13 53 41 q2 1 25 12q15 8 51 8q21 0 32 -1q2 -2 7 -5q45 -5 72 -14q15 -6 44 -19q40 -28 101 -122q8 -13 9 -22.5t1 -58.5zM516 353v71q0 6 -30 49.5t-38 47.5q-48 25 -75 25q-3 0 -9.5 2.5t-8.5 2.5q-15 0 -42 1q-3 2 -7 5q-43 3 -33 3q-15 0 -48 -20q-7 -6 -19 -17q-7 -4 -15 -11 q-26 -45 -26 -67q0 -78 2 -104q3 -29 22 -57q22 -33 54 -41q-3 56 -13 166q-5 5 -12 15q19 21 59 57q14 10 43.5 17t56.5 7q22 0 34 -5q16 -6 34 -25t18 -37q0 -31 -57 -84q43 3 110 -1zM383 402q0 21 -39 21q-3 0 -15 -1.5t-16 -1.5q8 -49 7 -84q5 9 37 29q26 17 26 37z M503 268q-30 5 -81 5q-71 0 -94 -7q0 -6 2.5 -19t2.5 -19q0 -10 -5 -16l71 -2q29 9 59 18q37 13 45 40z" />
<glyph unicode="&#x2000;" horiz-adv-x="472" />
<glyph unicode="&#x2001;" horiz-adv-x="944" />
<glyph unicode="&#x2002;" horiz-adv-x="472" />
<glyph unicode="&#x2003;" horiz-adv-x="944" />
<glyph unicode="&#x2004;" horiz-adv-x="314" />
<glyph unicode="&#x2005;" horiz-adv-x="236" />
<glyph unicode="&#x2006;" horiz-adv-x="157" />
<glyph unicode="&#x2007;" horiz-adv-x="157" />
<glyph unicode="&#x2008;" horiz-adv-x="118" />
<glyph unicode="&#x2009;" horiz-adv-x="188" />
<glyph unicode="&#x200a;" horiz-adv-x="52" />
<glyph unicode="&#x2010;" d="M533 459q-68 -73 -125 -123q-108 0 -172 -1q-45 0 -64 -1t-15 -1q-3 0 -52 50l130 130q3 -4 11 -7h241z" />
<glyph unicode="&#x2011;" d="M533 459q-68 -73 -125 -123q-108 0 -172 -1q-45 0 -64 -1t-15 -1q-3 0 -52 50l130 130q3 -4 11 -7h241z" />
<glyph unicode="&#x2012;" d="M533 459q-68 -73 -125 -123q-108 0 -172 -1q-45 0 -64 -1t-15 -1q-3 0 -52 50l130 130q3 -4 11 -7h241z" />
<glyph unicode="&#x2013;" horiz-adv-x="693" d="M605 459q-79 -73 -146 -123q-126 0 -201 -1q-53 0 -75 -1t-17 -1q-4 0 -61 50l152 130q3 -4 13 -7h281z" />
<glyph unicode="&#x2014;" horiz-adv-x="1193" d="M1105 459q-159 -73 -292 -123q-252 0 -402 -1q-105 0 -149.5 -1t-35.5 -1q-7 0 -121 50l304 130q7 -4 25 -7h564z" />
<glyph unicode="&#x202f;" horiz-adv-x="188" />
<glyph unicode="&#x205f;" horiz-adv-x="236" />
<glyph unicode="&#x2122;" horiz-adv-x="809" d="M715 619q0 -2 -55 -57q-39 38 -51 64q-12 19 -32 55q-8 -8 -15 -25q-9 -21 -13 -26q-7 -13 -23.5 -28t-31.5 -28q-28 20 -43 53q-12 30 -25 60q-14 -17 -32 -49q-3 -13 -13 -34q-1 -1 -53 -54q-21 22 -21 27q0 9 33 64q13 22 41 65q5 7 41 41.5t39 34.5t12 -9t13 -15 q10 -25 32 -75q6 10 19 29q8 10 37 38q33 32 39 32q3 0 13.5 -9.5t12.5 -15.5q5 -17 19 -51q4 -9 57 -87zM335 747q-20 -22 -54 -54q-10 -1 -30 -4q-2 0 -6 -4v-87l-52 -52q-2 1 -23 21v115l-9 1q-5 0 -17 -1t-14 -1q-10 0 -12 2q-10 9 -19 19q20 23 56 55q13 -1 36 3 q3 2 14 14t14 12q2 0 11 -10t13 -12h18q3 0 25.5 3t25.5 3q5 0 23 -23z" />
<glyph unicode="&#xe000;" horiz-adv-x="835" d="M0 835h835v-835h-835v835z" />
</font>
</defs>
</svg>
