<?xml version="1.0" standalone="no"?>
<!DOCTYPE svg PUBLIC "-//W3C//DTD SVG 1.1//EN" "http://www.w3.org/Graphics/SVG/1.1/DTD/svg11.dtd" >
<svg xmlns="http://www.w3.org/2000/svg">
<metadata></metadata>
<defs>
<font id="kreonbold" horiz-adv-x="499" >
<font-face units-per-em="1000" ascent="800" descent="-200" />
<missing-glyph horiz-adv-x="240" />
<glyph horiz-adv-x="1000" />
<glyph horiz-adv-x="1000" />
<glyph unicode="&#xd;" horiz-adv-x="240" />
<glyph unicode=" "  horiz-adv-x="240" />
<glyph unicode="&#x09;" horiz-adv-x="240" />
<glyph unicode="&#xa0;" horiz-adv-x="240" />
<glyph unicode="!" horiz-adv-x="276" d="M97 247l-39 428l144 14l21 -38l-48 -404h-78zM70 63q0 28 20 47t47.5 19t47 -19t19.5 -47t-19.5 -47.5t-47 -19.5t-47.5 19.5t-20 47.5z" />
<glyph unicode="&#x22;" horiz-adv-x="371" d="M28 689l123 10l17 -30l-29 -227h-75zM199 689l123 10l17 -30l-29 -227h-75z" />
<glyph unicode="#" horiz-adv-x="675" d="M355 512h78l52 158h110l13 -14l-47 -144h75q6 0 6 -8v-97h-116l-39 -119h107q6 0 6 -9v-96h-147l-44 -135h-107l-16 13l40 122h-82l-45 -135h-107l-16 13l41 122h-70l-18 71l18 34h105l40 119h-114l-18 72l18 33h150l53 158h109l14 -14zM280 288h80l39 119h-79z" />
<glyph unicode="$" horiz-adv-x="511" d="M214 -154v152q-75 6 -167 44l-14 190h87l31 -117q42 -14 91 -14t75.5 23t26.5 67q0 51 -76 85q-21 10 -51.5 22.5t-65 30.5t-59.5 42q-55 51 -55 132q0 76 52 126q49 47 125 59v119h99v-115q76 -6 139 -31l15 -187h-84l-45 103q-29 11 -70 11t-67.5 -18t-26.5 -57 q0 -37 40 -62q20 -12 48 -24.5t62 -29.5q71 -36 114 -82.5t43 -111.5q0 -86 -49 -139q-43 -47 -119 -62v-156h-99z" />
<glyph unicode="%" horiz-adv-x="823" d="M593 242.5q-12 -25.5 -12 -63t12 -63.5t37.5 -26t38 26t12.5 63.5t-12.5 63t-38 25.5t-37.5 -25.5zM465 180q0 77 47 129.5t119 52.5q73 0 117 -48q47 -51 47 -134q0 -77 -47 -131q-45 -53 -117 -53t-119 53t-47 131zM254 0h-124l-10 13l444 678h124l10 -14zM156 579.5 q-12 -25.5 -12 -63t12 -63.5t37.5 -26t38 26t12.5 63.5t-12.5 63t-38 25.5t-37.5 -25.5zM28 517q0 77 47 129.5t119 52.5q73 0 118 -49q46 -50 46 -133q0 -77 -46 -131q-46 -53 -118 -53t-119 53t-47 131z" />
<glyph unicode="&#x26;" horiz-adv-x="710" d="M439 587q0 -107 -117 -209q12 -14 23.5 -28t26.5 -30q43 -48 75 -80q16 34 24 74h-47l-21 85h191l15 -16q-16 -116 -74 -218l-4 -8q51 -49 67 -58l44 49l76 -96q-14 -19 -42 -36.5t-83 -17.5q-92 0 -147 55q-71 -57 -172 -57q-103 0 -170 50q-76 58 -76 166.5t116 187.5 q-56 82 -56 155q0 119 94 163q37 17 94 17q78 0 120.5 -41t42.5 -107zM208 320q-49 -49 -49 -110q0 -47 33 -80q34 -34 83.5 -34t91.5 34q-63 65 -115 135zM252 471q64 59 64 109q0 24 -14 39.5t-39.5 15.5t-40 -17t-14.5 -40q0 -41 44 -107z" />
<glyph unicode="'" horiz-adv-x="203" d="M30 659l123 10l17 -30l-29 -227h-75z" />
<glyph unicode="(" horiz-adv-x="310" d="M183 291q0 -214 99 -453h-126q-109 228 -109 452q0 144 39 282q27 93 70 170h126q-64 -121 -90 -303q-9 -69 -9 -148z" />
<glyph unicode=")" horiz-adv-x="311" d="M264 290q0 -222 -110 -452h-126q99 239 99 453q0 140 -33 274q-24 99 -66 177h126q45 -80 66 -154q44 -154 44 -298z" />
<glyph unicode="*" horiz-adv-x="367" d="M206 608l83 71l50 -44l-10 -33l-104 -34l109 -36l-15 -64l-32 -9l-81 69l21 -107l-63 -21l-23 24l20 103l-81 -71l-53 45l11 32l99 33l-102 36l13 67l33 8l80 -70l-21 108l64 21l23 -24zM178 559l11 1l4 7l-5 9l-9 -1l-5 -9z" />
<glyph unicode="+" horiz-adv-x="431" d="M258 558v-158h142v-86h-142v-173h-74l-13 7v166h-142v73l7 13h135v158h87z" />
<glyph unicode="," horiz-adv-x="234" d="M178 133q8 -32 8 -75.5t-8 -75.5t-20 -60q-22 -52 -55 -95l-84 39l-3 11l51 112l-26 125z" />
<glyph unicode="-" horiz-adv-x="423" d="M53 250v82l18 12h292q6 0 6 -7v-87h-316z" />
<glyph unicode="." horiz-adv-x="211" d="M38 63q0 28 20 47t47.5 19t47 -19t19.5 -47t-19.5 -47.5t-47 -19.5t-47.5 19.5t-20 47.5z" />
<glyph unicode="/" horiz-adv-x="486" d="M148 0h-125l-3 13l318 678h128l-1 -14z" />
<glyph unicode="0" horiz-adv-x="590" d="M37 343q0 233 137 317q49 30 120 30q132 0 200 -108q59 -94 59 -239q0 -144 -59 -238q-67 -109 -200 -109q-132 0 -200 109q-57 92 -57 238zM175 343q0 -100 17 -147t40.5 -71t62 -24t62 24t36.5 60q22 61 22 158t-17.5 145.5t-41 72.5t-62 24t-62 -24t-36.5 -60 q-21 -58 -21 -158z" />
<glyph unicode="1" horiz-adv-x="365" d="M347 38l-1 -37h-309l-3 82l99 15v457l-93 -17l-20 87l229 69l15 -9v-592l85 -13q0 -6 -1 -18z" />
<glyph unicode="2" horiz-adv-x="538" d="M53 0l-15 81q14 17 41.5 45.5t60 64t67 76t61.5 81.5q64 93 64 144.5t-24.5 71.5t-53.5 20q-46 0 -68 -10l-44 -104l-128 65q60 107 171 142q38 12 76.5 12t75 -10.5t65.5 -32.5q68 -52 68 -146q0 -124 -169 -299q-30 -31 -55.5 -55.5t-41.5 -40.5h187l41 110h78 l-22 -215h-435z" />
<glyph unicode="3" horiz-adv-x="522" d="M17 535q85 155 247 155q81 0 138 -45q68 -53 68 -140q0 -56 -30 -100q-32 -46 -82 -56q51 -11 76 -34q50 -46 50 -114q0 -97 -76 -155q-66 -50 -155 -50q-80 0 -147 26q-49 19 -81 51l71 103q32 -30 69 -53t77.5 -23t59.5 12t29 28q15 23 15 43.5t-5 38t-20 32.5 q-36 36 -119 36h-67v105h47q149 0 149 105q0 43 -30 66q-25 19 -49 19q-50 0 -68 -7l-46 -108z" />
<glyph unicode="4" horiz-adv-x="539" d="M500 62q0 -53 3 -62h-351v83l143 15v89h-262l-38 88l283 416h147v-399h78v-105h-78v-93l75 -13v-19zM295 292v257l-178 -257h178z" />
<glyph unicode="5" horiz-adv-x="517" d="M173 372q-44 0 -99 -17v303l30 33h363v-106h-262v-115q18 2 54 2t80.5 -16t76.5 -46q67 -63 67 -170q0 -114 -75 -180q-72 -64 -188 -64q-132 0 -209 77l60 98q39 -47 95 -65q20 -6 45.5 -6t50.5 10t44 28q39 40 39 99q0 64 -49 101q-46 34 -123 34z" />
<glyph unicode="6" horiz-adv-x="554" d="M202 664q52 27 106.5 27.5t88 -11.5t56.5 -28q34 -25 60 -64l-115 -74l-49 68q-18 5 -40 5t-44.5 -12.5t-42.5 -38.5q-45 -60 -50 -158q23 26 62 41t78.5 15t76 -12.5t65.5 -37.5q68 -59 68 -162q0 -101 -62 -164q-60 -62 -166 -62q-135 0 -202 110q-56 93 -56 244 q0 145 77 241q37 46 89 73zM189 207q30 -106 103 -106q50 0 71.5 33t21.5 71t-9 58.5t-23 34.5q-28 29 -66.5 29t-68 -29t-29.5 -91z" />
<glyph unicode="7" horiz-adv-x="455" d="M129 567l-21 -113h-84v237h416l18 -26l-207 -665h-136l-11 20l220 547h-195z" />
<glyph unicode="8" horiz-adv-x="545" d="M149 376q-80 57 -80 145q0 87 68 135q57 40 139 40q81 0 138 -39q66 -46 66 -129q0 -50 -28 -87.5t-68 -66.5q64 -36 85 -62q43 -53 43 -110t-20 -94t-54 -62q-69 -51 -168 -51q-100 0 -166 47q-71 52 -71 142q0 63 30.5 113t85.5 79zM193 264q-22 -32 -22 -66t13 -53.5 t30 -28.5q29 -16 51.5 -16t40 5t32.5 17q36 27 36 76q0 59 -76 98q-23 12 -47 24q-36 -24 -58 -56zM282 424q73 56 73 108q0 30 -19.5 54t-59.5 24t-60.5 -22.5t-20.5 -58t25 -60.5t62 -45z" />
<glyph unicode="9" horiz-adv-x="543" d="M367 289q-45 -40 -114 -40q-97 0 -153 53q-61 56 -61 156q0 101 57 164q61 69 175 69q118 0 181 -105q54 -92 54 -248q0 -146 -70 -242q-75 -100 -202 -100q-96 0 -174 52q-21 13 -33 25l71 94q67 -63 145 -66q91 3 115 111q7 35 9 77zM262 354q29 0 59.5 19t44.5 54 q-7 114 -57 147q-19 12 -45 12t-43 -11.5t-27 -28.5q-19 -32 -19 -79.5t21 -80t66 -32.5z" />
<glyph unicode=":" horiz-adv-x="241" d="M54 193q0 28 20 47t47.5 19t47 -19t19.5 -47t-19.5 -47.5t-47 -19.5t-47.5 19.5t-20 47.5zM74 408q-20 20 -20 47.5t20 47t47.5 19.5t47 -19.5t19.5 -47t-19.5 -47.5t-47 -20t-47.5 20z" />
<glyph unicode=";" horiz-adv-x="248" d="M186 133q8 -32 8 -75.5t-8 -75.5t-20 -60q-22 -52 -55 -95l-84 39l-3 11l51 112l-26 125zM78 248q-20 20 -20 47.5t20 47t47.5 19.5t47 -19.5t19.5 -47t-19.5 -47.5t-47 -20t-47.5 20z" />
<glyph unicode="&#x3c;" horiz-adv-x="415" d="M356 471l-226 -132l226 -133v-131l-327 204v121l327 203v-132z" />
<glyph unicode="=" horiz-adv-x="463" d="M54 304h355v-99h-355v99zM54 460h355v-100h-355v100z" />
<glyph unicode="&#x3e;" horiz-adv-x="415" d="M59 603l327 -203v-121l-327 -204v131l226 133l-226 132v132z" />
<glyph unicode="?" horiz-adv-x="429" d="M226 247l1 -11l-99 -1q-10 25 -10 61t11 58.5t27 41t35 34t35 30.5q38 37 38 72.5t-20 51t-41 15.5q-44 0 -65 -8l-25 -96h-81l16 175q93 32 174 32t130 -41.5t49 -109.5q0 -107 -87 -179q-55 -45 -71.5 -70.5t-16.5 -54.5zM111 63q0 28 19.5 47t47.5 19t47 -19t19 -47 t-19 -47.5t-47 -19.5t-47.5 19.5t-19.5 47.5z" />
<glyph unicode="@" horiz-adv-x="879" d="M548 132q-42 -31 -112 -31q-75 0 -131 45q-70 58 -70 162q0 117 84 176q61 42 132.5 42t123.5 -26l27 9l33 -11v-254q0 -28 9 -33.5t19 -5.5t21 9.5t21 29.5q24 48 24 113.5t-19 110t-55 76.5q-77 68 -206 68q-122 0 -206 -76q-90 -83 -90 -216q0 -138 89 -220 q83 -77 218 -77q80 0 126 21l23 -4l-36 -116q-52 -16 -132.5 -16t-155 27t-130.5 79.5t-89.5 129.5t-33.5 177.5t37 176.5t97.5 127.5t137.5 77.5t157 26t151 -26t124 -73.5t83.5 -113.5t30.5 -135t-16 -118.5t-44 -85.5q-58 -77 -145 -77q-65 0 -97 32zM459 186q29 0 56 19 q-1 7 -1 13v214q-22 10 -50 10q-50 0 -77.5 -32.5t-27.5 -95t26.5 -95.5t73.5 -33z" />
<glyph unicode="A" horiz-adv-x="621" d="M349 0v75l80 21l-36 122h-196l-38 -126l88 -16v-76h-239l-13 78l55 18l198 594h124l201 -594l46 -18l-10 -78h-260zM228 323h121l-53 225z" />
<glyph unicode="B" horiz-adv-x="596" d="M55 0l-14 85l64 15v493l-70 7v90h277q103 0 165 -52q59 -50 59 -129q0 -64 -40 -109q-32 -37 -72 -47q64 -17 102 -56t38 -110q0 -138 -132 -175q-41 -12 -90 -12h-287zM427 199q0 96 -133 96h-58v-190h74q82 0 108 49q9 18 9 45zM373 426q26 26 26 59.5t-9.5 50.5 t-25.5 28q-32 21 -83 21h-45v-185h59q52 0 78 26z" />
<glyph unicode="C" horiz-adv-x="587" d="M417.5 568q-5.5 12 -8.5 15t-43 3t-77 -16.5t-65 -47.5q-60 -68 -62 -174q2 -110 58 -178q58 -69 150 -69q41 0 82 15t70 44l42 -89q-46 -52 -139 -69q-30 -6 -79 -6t-110 21t-107 63q-101 94 -101 254q0 166 104 266q94 91 226 91q87 0 169 -24l20 -207h-81 q-21 46 -32 71t-16.5 37z" />
<glyph unicode="D" horiz-adv-x="637" d="M39 88l65 13v493l-63 8v88h178q281 0 361 -190q26 -63 26 -147q0 -170 -86.5 -261.5t-257.5 -91.5h-209zM235 105l19 -1q106 0 160.5 62.5t54.5 182.5t-60 178t-174 58v-480z" />
<glyph unicode="E" horiz-adv-x="555" d="M497 690l19 -204h-78l-41 99h-162v-178h152v-105h-152v-197h169l37 99h79l-21 -204h-446l-14 88l65 13v493l-63 7v89h456z" />
<glyph unicode="F" horiz-adv-x="528" d="M398 0h-345l-14 88l65 13v493l-63 7v89h456l19 -205h-76l-43 100h-162v-178h152v-105h-152v-197l170 -26z" />
<glyph unicode="G" horiz-adv-x="620" d="M411 98q20 0 30 2v129l-103 14l18 81h216v-315q-91 -13 -176.5 -13t-149.5 20t-112 62q-107 92 -107 259q0 164 99 261q96 94 248 94q81 0 148 -18q17 -5 25 -7l18 -206h-81l-51 123q-27 3 -65 3t-76 -17.5t-66 -50.5q-62 -71 -62 -182q0 -107 63 -172q65 -67 184 -67z " />
<glyph unicode="H" horiz-adv-x="702" d="M665 68l-1 -53v-15h-246l-15 89l58 13v200h-225v-203l63 -12v-19l1 -53v-15h-245l-15 89l65 13v490l-63 7v91h244l15 -93l-65 -12v-178h225v185l-56 7v91h247l15 -93l-75 -12v-486l73 -12v-19z" />
<glyph unicode="I" horiz-adv-x="348" d="M312 68l-1 -53v-15h-260l-14 89l70 13v490l-68 7v91h260l15 -93l-76 -12v-486l74 -12v-19z" />
<glyph unicode="J" horiz-adv-x="397" d="M304 175q0 -104 -50 -147q-37 -32 -95 -32q-65 0 -128 41q-17 11 -29 22l70 101q29 -23 49.5 -36.5t34.5 -13.5q17 0 17 26v449l-80 12l15 93h264v-91l-68 -7v-417z" />
<glyph unicode="K" horiz-adv-x="635" d="M304 68l1 -53v-15h-254l-14 89l70 13v490l-68 5v93h253l15 -90l-69 -15v-240l201 240l-77 16v89h252v-89l-39 -8q-31 -40 -63 -77q-69 -78 -110 -125l162 -294l54 -10v-87h-158l-146 291q-39 -44 -76 -89v-103l66 -12v-19z" />
<glyph unicode="L" horiz-adv-x="524" d="M295 690l15 -91l-75 -14v-480h169l37 99h79l-21 -204h-446l-14 88l65 13v493l-63 7v89h254z" />
<glyph unicode="M" horiz-adv-x="895" d="M250 87l1 -47v-40h-200l-6 87l59 8v495l-55 6v94h257l144 -512l145 512h239l15 -93l-55 -12v-491l51 -7v-87h-212l-9 90l44 13v493l-167 -583h-134l-163 576v-491z" />
<glyph unicode="N" horiz-adv-x="727" d="M262 65l-1 -52v-13h-208l-16 87l69 13v490l-64 7v93h256l227 -594v496l-58 7v91h215l15 -93l-67 -12v-585h-202l-217 562v-458l51 -16v-23z" />
<glyph unicode="O" horiz-adv-x="655" d="M328 -4q-138 0 -217 98q-75 93 -75 251t75 251q78 97 217 97q140 0 216 -97q75 -94 75 -251t-75 -251q-77 -98 -216 -98zM173 343q0 -103 42 -172q42 -70 113 -70q70 0 112 70q42 69 42 172q0 105 -42 174q-43 71 -112 71q-70 0 -113 -71q-42 -69 -42 -174z" />
<glyph unicode="P" horiz-adv-x="585" d="M238 327q165 0 188 79q8 25 8 57q0 56 -34 89t-107 33h-55v-258zM37 86l70 14v492l-68 7v91h250q209 0 265 -134q17 -43 17 -96q0 -110 -71 -172q-75 -66 -215 -66h-47v-108q0 -8 4.5 -9.5t14.5 -3t28.5 -3.5t37.5 -5t37 -5.5t30 -4.5l-6 -83h-333z" />
<glyph unicode="Q" horiz-adv-x="655" d="M314 -15l208 -76l7 -38l-94 -98l-176 155zM328 -4q-138 0 -217 98q-75 93 -75 251t75 251q78 97 217 97q140 0 216 -97q75 -94 75 -251t-75 -251q-77 -98 -216 -98zM173 343q0 -103 42 -172q42 -70 113 -70q70 0 112 70q42 69 42 172q0 105 -42 174q-43 71 -112 71 q-70 0 -113 -71q-42 -69 -42 -174z" />
<glyph unicode="R" horiz-adv-x="612" d="M572 465q0 -144 -139 -201l88 -167l63 -10v-87h-169l-104 234q-35 -3 -73 -3v-136l52 -8v-87h-243l-9 85l69 14v493l-68 7v91h245q143 0 218 -63q70 -60 70 -162zM238 337q6 -1 15 -1h18q83 0 127 37q39 33 39 89q0 63 -41 90q-47 32 -158 32v-247z" />
<glyph unicode="S" horiz-adv-x="528" d="M342.5 145.5q9.5 15.5 9.5 36.5t-7.5 35.5t-23.5 26.5q-19 15 -76.5 42t-90.5 45t-58 41q-52 51 -52 132q0 84 68 138q65 50 166 50q94 0 190 -27l15 -190h-84l-49 106q-39 6 -80 6t-65.5 -22t-24.5 -48t13 -41.5t33 -27.5q24 -15 78.5 -40.5t87.5 -46t54 -44.5 q43 -47 43 -109.5t-22 -101.5t-57 -64q-66 -46 -170 -46q-92 0 -204 45l20 193l84 -7l8 -111q13 -3 35.5 -9t48.5 -6t47 4.5t37.5 14.5t26 25.5z" />
<glyph unicode="T" horiz-adv-x="615" d="M128 80l115 22v483h-113l-43 -100h-77l19 205h555l22 -204h-76l-44 99h-114v-483l116 -22l-10 -80h-340z" />
<glyph unicode="U" horiz-adv-x="670" d="M353 101q126 0 126 150v342l-64 9v88h228v-91l-59 -13v-338q0 -117 -59 -184.5t-172 -67.5q-145 0 -207 66q-58 62 -58 186v344l-67 9v89h269v-88l-71 -11v-341q0 -75 29.5 -112t104.5 -37z" />
<glyph unicode="V" horiz-adv-x="639" d="M244 690l14 -79l-77 -17l157 -464q3 11 14 42q25 73 56 167l33 98q16 48 30 89.5t22 67.5l-91 18v78h233v-89l-37 -7l-207 -594h-141l-210 594l-36 7v89h240z" />
<glyph unicode="W" horiz-adv-x="985" d="M988 690v-88l-78 -20l-110 -582h-168l-141 506l-136 -506h-174l-110 587l-55 13v90h244l17 -79l-70 -10l82 -458l154 534h142l149 -548l78 472l-84 13l11 76h249z" />
<glyph unicode="X" horiz-adv-x="594" d="M577 690v-90l-41 -8l-166 -258q63 -109 143 -241l64 -22v-71h-271v71l57 6l-90 155l-90 -156l55 -6v-70h-225v71l46 8l157 252l-150 260l-42 12v87h253l14 -78l-70 -15q14 -25 38 -67t53 -94l100 159l-58 18v77h223z" />
<glyph unicode="Y" horiz-adv-x="583" d="M242 690l15 -79l-71 -14l124 -216l112 219l-61 11v79h221v-88l-44 -11l-178 -340v-155l115 -23l-9 -73h-341l-10 73l114 23v156l-191 339l-40 10v89h244z" />
<glyph unicode="Z" horiz-adv-x="562" d="M28 79l337 506h-221l-19 -110h-78v215h460l20 -93q-49 -84 -143.5 -224.5t-124 -185.5t-54.5 -82h215l18 110h80v-215h-471z" />
<glyph unicode="[" horiz-adv-x="336" d="M194 640v-742h152v-79q0 -8 -7 -8h-258l-7 12v891l7 12h258q7 0 7 -7v-79h-152z" />
<glyph unicode="\" horiz-adv-x="486" d="M21 676l-1 14h128l318 -677l-3 -13h-125z" />
<glyph unicode="]" horiz-adv-x="336" d="M-10 640v79q0 7 6 7h258l8 -12v-881l-8 -12h-258q-6 0 -6 8v79h151v732h-151z" />
<glyph unicode="^" horiz-adv-x="514" d="M82 561l171 165h37l172 -166l-7 -12h-86l-98 68l-98 -68h-85z" />
<glyph unicode="_" horiz-adv-x="553" d="M0 -86v73l11 13h536q6 0 6 -7v-79h-553z" />
<glyph unicode="`" horiz-adv-x="338" d="M240 447l-183 144l77 91l35 -17l112 -177z" />
<glyph unicode="a" horiz-adv-x="463" d="M286 44q-48 -48 -112 -48q-68 0 -108 38q-37 36 -37 87.5t23 81.5t58 49q66 34 164 36v79q0 11 -15.5 20.5t-36.5 9.5q-34 0 -42 -3l-26 -74l-124 54q20 49 72 82q55 35 121 35q115 0 157 -85q15 -30 15 -76v-225q0 -22 18 -22l15 2l18 -56q-38 -33 -80 -33q-56 0 -80 48 zM274 204q-121 -6 -121 -66q0 -17 11 -31.5t36.5 -14.5t45.5 15t28 32v65z" />
<glyph unicode="b" d="M184 472q38 19 85 19t83 -16.5t62 -47.5q54 -64 54 -176q0 -136 -70 -201q-59 -54 -153 -54q-57 0 -96 21l-53 -21l-32 27v628l-52 -3l-11 68l149 20l34 -35v-229zM184 103q20 -13 61 -13t70 37.5t29 117t-27.5 116t-67.5 36.5t-65 -18v-276z" />
<glyph unicode="c" horiz-adv-x="431" d="M408 52q-54 -56 -159 -56q-87 0 -147 56q-72 66 -72 181q0 136 72 204q56 54 146 54q75 0 124 -39q25 -20 43 -50l-121 -65l-43 60q-46 0 -71.5 -43t-25.5 -116q0 -101 63 -135q22 -12 48 -12t44 5.5t32.5 13t24.5 16t16 13.5q2 -7 6 -19t8 -25t7 -25t5 -18z" />
<glyph unicode="d" horiz-adv-x="514" d="M246 491q36 0 68 -13v170h-51l-11 68l148 21l35 -37v-595q0 -22 19 -22q10 0 22 6l19 -52q-17 -23 -56 -36q-15 -5 -33 -5q-56 0 -79 42q-36 -42 -106 -42q-85 0 -137 63q-53 65 -53 175q0 136 73 204q57 53 142 53zM314 378q-22 20 -59 20q-68 0 -91 -83 q-9 -32 -9 -92.5t23.5 -96t65.5 -35.5q21 0 43 14t27 35v238z" />
<glyph unicode="e" horiz-adv-x="454" d="M156 198q14 -107 121 -107q46 0 74 17.5t46 34.5l23 -87q-28 -37 -106 -54q-26 -6 -63 -6t-77.5 15t-72.5 45q-71 67 -71 183q0 122 72 192q60 60 151 60q69 0 117 -33q54 -38 54 -104q0 -79 -65 -120q-58 -37 -152 -37h-27q-13 0 -24 1zM157 282q5 -1 15 -1h18 q73 0 101 36q10 13 10 34.5t-13 33t-32 11.5t-36 -9t-30 -25q-29 -32 -33 -80z" />
<glyph unicode="f" horiz-adv-x="359" d="M316 63l-1 -63h-256l-14 63l54 13v324h-72l-15 81l7 10h81v50q0 99 50 150q42 43 111 43q61 0 115 -40q20 -16 38 -41l-114 -69l-40 55q-23 0 -31.5 -12.5t-8.5 -34.5v-101h114q5 0 5 -6v-85h-119v-326z" />
<glyph unicode="g" horiz-adv-x="503" d="M112 155q-79 50 -79 147q0 86 63 140q57 49 133.5 49t131.5 -43l109 55l23 -3l11 -99l-93 -11q21 -40 21 -86.5t-17.5 -80.5t-45.5 -57q-55 -44 -137 -44h-14q-6 0 -12 1l-18 -27l2 -14l102 -21q157 -33 157 -142q0 -87 -69 -141q-64 -50 -165 -50q-87 0 -141 43 q-52 42 -52 106q0 83 77 129q-24 26 -24 70t37 79zM232 397q-55 0 -70 -56q-5 -16 -5 -43t18 -54.5t57.5 -27.5t57.5 27.5t18 54.5t-4.5 43t-13.5 29q-20 27 -58 27zM170 -34q-39 -25 -39 -59q0 -39 57 -53q22 -6 48.5 -6t46 4t35.5 11q35 15 35 39q0 15 -17.5 23t-44 14 t-59 11.5t-62.5 15.5z" />
<glyph unicode="h" horiz-adv-x="547" d="M526 64l-1 -64h-225v64l50 11v256q0 62 -62 62q-41 0 -76 -27q-8 -6 -11 -10v-281l57 -11l-1 -64h-222l-12 64l57 13v571h-52l-10 68l148 21l35 -37v-245q19 14 51 25t64 11t60 -8t49 -24q46 -35 46 -100v-283z" />
<glyph unicode="i" horiz-adv-x="288" d="M89.5 611.5q-21.5 21.5 -21.5 51t21.5 51t51.5 21.5t51 -21.5t21 -51t-21 -51t-51 -21.5t-51.5 21.5zM26 466l149 26l34 -36v-381l55 -11v-64h-221l-11 64l56 13v321h-51z" />
<glyph unicode="j" horiz-adv-x="264" d="M27 -148q13 -13 29 -13t19.5 16t3.5 40v503h-51l-11 68l148 26l35 -36v-559q0 -101 -52 -141q-31 -24 -81 -24q-53 0 -94 35zM73.5 611.5q-21.5 21.5 -21.5 51t21.5 51t51 21.5t51 -21.5t21.5 -51t-21.5 -51t-51 -21.5t-51 21.5z" />
<glyph unicode="k" horiz-adv-x="509" d="M248 64l-1 -64h-212l-12 64l57 13v571h-52l-10 68l148 21l35 -37v-428l128 141h-53l-10 78h177l35 -65l-139 -139l107 -214l47 -11l1 -62h-151l-93 198l-49 -49v-74z" />
<glyph unicode="l" horiz-adv-x="284" d="M200 700v-621l65 -16v-63h-231l-11 63l56 14v571h-52l-11 68l149 21z" />
<glyph unicode="m" horiz-adv-x="821" d="M531 64l-1 -64h-220v64l48 11v256q0 62 -62 62q-41 0 -76 -27q-8 -6 -11 -10v-281l57 -12l-1 -63h-222l-13 63l58 14v321h-51l-11 68l148 26l35 -37q19 14 51 25t65 11q82 0 123 -47q65 47 149 47q104 0 139 -73q12 -25 12 -59v-283l51 -12l-1 -64h-227v63l56 12v256 q0 62 -62 62q-41 0 -75 -27q-9 -6 -12 -10v-282z" />
<glyph unicode="n" horiz-adv-x="555" d="M26 466l148 26l35 -37q19 14 51 25t64 11t60 -8t49 -24q46 -35 46 -100v-286l55 -9l-1 -64h-225v64l50 11v256q0 62 -62 62q-41 0 -76 -27q-8 -6 -11 -10v-281l57 -12l-1 -63h-222l-11 64l56 13v321h-51z" />
<glyph unicode="o" d="M29 246q0 114 69 183q62 62 151 62q90 0 152 -62q69 -69 69 -183q0 -116 -69 -186q-62 -64 -152 -64q-89 0 -151 64q-69 70 -69 186zM153 240q0 -116 59 -142q17 -8 37 -8q69 0 89 80q8 28 8 70q0 120 -60 148q-17 9 -37 9q-67 0 -89 -85q-7 -30 -7 -72z" />
<glyph unicode="p" horiz-adv-x="515" d="M319 -208l-1 -65h-273l-16 63l51 15v597l-51 -7l-13 72l150 24l23 -23q43 23 93 23t86 -16.5t62 -47.5q54 -64 54 -176q0 -136 -70 -201q-59 -54 -153 -54q-30 0 -60 8v-186zM201 103q19 -13 60 -13t70 37.5t29 117t-27 116t-67 36.5t-65 -18v-276z" />
<glyph unicode="q" d="M237 491q60 0 106 -21l58 23l34 -24v-650l55 -19v-73h-288l-11 63l123 24v210q-34 -28 -84.5 -28t-86.5 17.5t-61 48.5q-51 65 -51 171q0 141 79 209q32 29 67.5 39t59.5 10zM314 377q-21 21 -62 21q-66 0 -88 -76q-9 -30 -9 -77q0 -85 30 -124q23 -30 62 -30q22 0 42 16 t25 42v228z" />
<glyph unicode="r" horiz-adv-x="428" d="M331 64l1 -64h-288l-15 64l60 16v321l-51 -4l-11 68q13 2 33.5 6t41.5 8q56 11 64 12l34 -52q20 25 48 38.5t63 13.5t70.5 -20.5t49.5 -66.5l-121 -63l-30 50q-25 0 -44 -23q-26 -31 -26 -82v-187q0 -1 15.5 -5.5t36.5 -10.5q50 -15 69 -19z" />
<glyph unicode="s" horiz-adv-x="412" d="M145 159l26 -65q9 -3 27 -3t27 2.5t17 8.5q17 12 17 31t-10.5 29.5t-25.5 17.5t-31 12t-26 10q-70 28 -98 64.5t-28 73t13 63t37 45.5q51 43 123 43q96 0 148 -65q14 -18 22 -34l-127 -51l-24 51q-10 5 -24 5q-44 0 -44 -38q0 -15 16 -26t40 -22t52.5 -24t52.5 -31 q56 -42 56 -106q0 -71 -54 -114q-51 -39 -124 -39q-68 0 -121 37q-47 32 -65 76z" />
<glyph unicode="t" horiz-adv-x="345" d="M91 164l2 236h-76l-15 81l7 10h85q1 61 1 107t1 61l107 23l9 -16v-175h101q5 0 5 -6v-85h-106v-261q0 -31 8 -38.5t23 -7.5q30 0 66 29q1 -4 5 -15t8 -23q10 -33 12 -43q-14 -15 -46.5 -30t-64 -15t-54 6.5t-39.5 22.5q-39 35 -39 113v26z" />
<glyph unicode="u" horiz-adv-x="539" d="M437 -4q-59 0 -81 48q-23 -25 -58 -36.5t-68 -11.5q-71 0 -113 36.5t-42 113.5v252h-51l-11 67l148 27l35 -38v-285q0 -39 18.5 -58t47.5 -19t52 16t31 36v257l-45 -3l-12 67l143 27l35 -38v-349q0 -22 16 -22l14 2l19 -56q-6 -7 -26.5 -20t-51.5 -13z" />
<glyph unicode="v" horiz-adv-x="497" d="M189 0l-132 407h-50l-8 72l168 12l108 -364l104 280h-42l-9 72l148 12l19 -36l-167 -455h-139z" />
<glyph unicode="w" horiz-adv-x="741" d="M132 0l-84 407h-36l-7 72l152 12l69 -360l88 343h143l85 -347l70 280h-35l-8 72l130 12l22 -36l-115 -455h-157l-79 322l-80 -322h-158z" />
<glyph unicode="x" horiz-adv-x="471" d="M26 0v73h42l97 170l-96 175h-42v73h142l87 -156l79 156h110v-73h-42l-98 -171l97 -174h42v-73h-146l-80 145l-80 -145h-112z" />
<glyph unicode="y" horiz-adv-x="498" d="M496 455q-16 -44 -70 -198t-72 -205.5t-33.5 -95.5t-27.5 -76.5t-22 -59t-27.5 -48t-35.5 -32.5q-24 -14 -58 -14q-44 0 -88 23q-18 9 -33 23l54 84q43 -36 59 -36t27.5 13t23.5 46l22 60l-169 468h-38l-8 72l150 12l130 -372q19 53 37.5 103.5t35 95.5t31.5 89h-46 l-8 73l146 11z" />
<glyph unicode="z" horiz-adv-x="421" d="M38 96l208 301h-128l-12 -68h-68v162h344v-96l-202 -298h121l12 66h69v-163h-343z" />
<glyph unicode="{" horiz-adv-x="367" d="M109 49l4 91q0 44 -35 70q-32 24 -76 24v82q44 0 76 24q35 26 35 68l-4 95q0 97 33 147q41 63 143 63q55 0 91 -15l-36 -116l-78 33q-20 -8 -25 -38.5t-5 -69.5l1 -81q0 -110 -53 -136q-18 -10 -43 -13l-8 -3q59 -7 81.5 -40t22.5 -110l-1 -80q0 -96 30 -108l78 34 l36 -117q-36 -15 -91.5 -15t-89.5 17.5t-53 46.5q-33 48 -33 147z" />
<glyph unicode="|" horiz-adv-x="270" d="M195 689v-890h-120v890h120z" />
<glyph unicode="}" horiz-adv-x="368" d="M259 503l-4 -95q0 -42 35 -68q32 -24 76 -24v-82q-44 0 -76 -24q-35 -26 -35 -70l4 -91q0 -99 -33 -147q-43 -64 -143 -64q-53 0 -92 15l37 117l78 -34q19 8 24.5 39t5.5 69l-1 80q0 77 22.5 110t73.5 39l8 3q-35 4 -52.5 13.5t-28.5 26.5q-23 35 -23 110l1 81 q0 39 -5 69.5t-25 38.5l-78 -33l-37 116q39 15 93 15t88.5 -17t53.5 -46q33 -50 33 -147z" />
<glyph unicode="~" horiz-adv-x="436" d="M343 697l81 -75q-58 -79 -121 -79q-33 0 -73 23q-15 8 -30.5 15t-40.5 7t-42 -17t-23 -37l-74 45v18q10 31 34 52q46 40 98 40t118 -42q12 -8 19 -8z" />
<glyph unicode="&#xa1;" horiz-adv-x="264" d="M168 241l48 -404l-21 -38l-144 14l39 428h78zM63 425q0 28 20 47.5t47.5 19.5t47 -19.5t19.5 -47.5t-19.5 -47t-47 -19t-47.5 19t-20 47z" />
<glyph unicode="&#xa2;" horiz-adv-x="438" d="M405 52q-36 -38 -102 -51v-201h-121v205q-107 31 -142 139q-13 39 -13 93.5t13 98t34 73.5q41 56 108 74v206h121v-205q66 -16 100 -68q7 -10 9 -14l-121 -65l-43 60q-46 0 -71.5 -43t-25.5 -116q0 -101 63 -135q22 -12 48 -12t44 5.5t32.5 13t24.5 16t16 13.5 q2 -7 6 -19t8 -25t7 -25t5 -18z" />
<glyph unicode="&#xa3;" horiz-adv-x="528" d="M163 451l-1 57q0 96 54 144q47 40 117 40t141 -53l-91 -101l-42 48q-34 0 -43 -24q-6 -19 -6 -77v-37q0 -17 -1 -35h125q7 0 7 -8v-87h-140q-11 -102 -39 -175q35 -7 72 -20q64 -21 77 -21l36 42l69 -110q-35 -38 -113 -38q-49 0 -96.5 15.5t-70.5 22.5t-50 7t-43.5 -14 t-21.5 -31l-75 7l-3 45q12 28 47 65q64 68 83 205h-65v86l8 9h64q1 9 1 18v20z" />
<glyph unicode="&#xa4;" horiz-adv-x="585" d="M462 445q27 -46 27 -98.5t-25 -96.5l78 -78l-75 -74l-77 77q-45 -25 -97.5 -25t-96.5 25l-77 -77l-75 74l78 78q-25 44 -25 98t26 98l-79 79l75 75l80 -81q46 24 94 24t94 -24l80 81l75 -75zM201 346q0 -41 25 -66.5t66.5 -25.5t66.5 25.5t25 66.5t-25 66.5t-66.5 25.5 t-66.5 -25.5t-25 -66.5z" />
<glyph unicode="&#xa5;" horiz-adv-x="634" d="M269 691l15 -79l-71 -14l125 -180l111 183l-61 11v79h221v-88l-44 -11l-170 -277h99v-89h-107v-14h107v-89h-107v-27l115 -23l-9 -73h-341l-10 73l114 23v27h-117v89h117v14h-117v89h109l-183 277l-40 10v89h244z" />
<glyph unicode="&#xa6;" horiz-adv-x="275" d="M77 286v404h121v-404h-121zM77 -247v399h121v-399h-121z" />
<glyph unicode="&#xa7;" horiz-adv-x="512" d="M108 387q-56 52 -56 125q0 78 60 128q61 52 156 52q93 0 189 -27l15 -191h-84l-45 115q-35 8 -73.5 8t-59.5 -19.5t-21 -45t11.5 -41.5t31.5 -29q19 -12 82 -41t89.5 -48.5t40.5 -39.5q26 -35 26 -89.5t-52 -104.5q45 -43 45 -102.5t-20.5 -95.5t-54.5 -59 q-62 -43 -165 -43q-58 0 -104 13t-87 29l20 194l84 -8l9 -121q48 -12 87.5 -12t67 17t27.5 48.5t-20.5 50t-51 33.5t-66.5 30t-67 37q-71 50 -71 126q0 63 57 111zM317 203q17 17 17 36.5t-16.5 33t-40.5 25t-40.5 18.5t-34.5 15q-15 -17 -15 -36t12 -31t31 -22t41 -18.5 t33.5 -14.5t12.5 -6z" />
<glyph unicode="&#xa8;" horiz-adv-x="417" d="M52 531q0 29 20 49t48.5 20t48.5 -20t20 -49t-20 -48.5t-48.5 -19.5t-48.5 19.5t-20 48.5zM230 531q0 29 19.5 49t48.5 20t48 -20t19 -49t-19 -48.5t-48 -19.5t-48.5 19.5t-19.5 48.5z" />
<glyph unicode="&#xa9;" horiz-adv-x="752" d="M30 373q0 71 27 134t74 110t110 74.5t134 27.5t134 -27.5t110.5 -74.5t75 -110t27.5 -134t-27.5 -134t-75 -110t-110.5 -74.5t-134 -27.5t-134 27.5t-110 74.5t-74 110t-27 134zM160 374q0 -45 17 -84.5t47 -69.5q63 -63 152 -63q90 0 152 63q63 65 63 154q0 87 -63 152 q-62 63 -152 63q-89 0 -152.5 -63.5t-63.5 -151.5zM323.5 312.5q26.5 -23.5 58 -23.5t65.5 17l35 -86q-45 -29 -88.5 -29t-77 13t-58.5 36q-55 51 -55 131q0 86 55 139q50 48 129 48q34 0 67 -6l9 -139h-55l-15 46q-5 1 -9 1h-7q-40 0 -60 -24.5t-20 -62t26.5 -61z" />
<glyph unicode="&#xaa;" horiz-adv-x="385" d="M33 643q30 81 143 81q114 0 137 -82q7 -24 6.5 -38t-0.5 -19v-86q0 -8 2 -8h7l14 2l18 -60q-34 -29 -71 -29t-61 31q-32 -34 -90 -34q-39 0 -70 23q-36 27 -36 66t17 59t43 31q43 18 117 18v12q0 10 -6.5 22.5t-25.5 12.5q-13 0 -22 -5l-9 -23zM209 545q-73 0 -73 -35 q0 -8 6 -18t29.5 -10t37.5 19v44z" />
<glyph unicode="&#xab;" horiz-adv-x="469" d="M281 486l-148 -149l147 -147l-66 -67l-213 216l213 214zM436 465l-127 -128l126 -126l-66 -67l-193 195l193 193z" />
<glyph unicode="&#xac;" horiz-adv-x="572" d="M411 375h-370v93l10 12h452l13 -13v-200q0 -7 -8 -7h-97v115z" />
<glyph unicode="&#xad;" horiz-adv-x="429" d="M459 314h-489v105h489v-105z" />
<glyph unicode="&#xae;" horiz-adv-x="752" d="M30 373q0 71 27 134t74 110t110 74.5t134 27.5t134 -27.5t110.5 -74.5t75 -110t27.5 -134t-27.5 -134t-75 -110t-110.5 -74.5t-134 -27.5t-134 27.5t-110 74.5t-74 110t-27 134zM160 374q0 -45 17 -84.5t47 -69.5q63 -63 152 -63q90 0 152 63q63 65 63 154q0 87 -63 152 q-62 63 -152 63q-89 0 -152.5 -63.5t-63.5 -151.5zM267 469q-15 1 -21 3v68h107q83 0 123 -36q34 -30 34 -86.5t-48 -86.5l23 -62l27 -4v-57h-99l-30 99q-9 -1 -18 -1h-19v-38l41 -11v-49h-138l-2 51l20 8v202zM346 379q69 0 78 27q2 8 2 22t-16 26t-64 12v-87z" />
<glyph unicode="&#xaf;" horiz-adv-x="443" d="M57 726h329v-97h-329v97z" />
<glyph unicode="&#xb0;" horiz-adv-x="346" d="M172 724q64 0 106 -46q40 -44 40 -114q0 -73 -40 -118q-42 -45 -106.5 -45t-104 45t-39.5 116t40 116.5t104 45.5zM172 633q-39 0 -39 -69q0 -73 39 -73q23 0 34 29q7 16 7 44q0 42 -19 61q-8 8 -22 8z" />
<glyph unicode="&#xb1;" horiz-adv-x="453" d="M271 517v-116h133v-97h-133v-117h-94v117h-131v74l16 23h115v116h94zM404 51h-358v74l16 23h342v-97z" />
<glyph unicode="&#xb2;" horiz-adv-x="336" d="M58 402l-17 59q9 10 33 29t48 41q63 56 63 88q0 20 -10.5 26t-18.5 6t-20 -3l-20 -41l-89 28q26 67 100 87q22 6 42.5 6t41.5 -6t39 -18q40 -28 40 -77q0 -75 -90 -129q-20 -13 -32 -21h57l18 36h53l-11 -111h-227z" />
<glyph unicode="&#xb3;" horiz-adv-x="323" d="M62 511q35 -35 83 -35q18 0 29 9t11 24.5t-13.5 23t-59.5 7.5v52q57 0 64 25q2 7 2 14.5t-7.5 14t-18 6.5t-15 -1.5t-8.5 -2.5l-15 -27l-83 29q17 41 54.5 59.5t71 18.5t54.5 -6.5t37 -18.5q35 -26 35 -61.5t-17.5 -51t-36.5 -20.5q26 -7 37 -17q24 -22 24 -52.5t-12 -49 t-32 -29.5q-36 -20 -87.5 -20t-84.5 14.5t-46 26.5z" />
<glyph unicode="&#xb4;" horiz-adv-x="348" d="M52 513l129 164l37 15l78 -109l-197 -124z" />
<glyph unicode="&#xb6;" horiz-adv-x="656" d="M430 0v591h-53v-487q0 -27 -31 -63q-25 -30 -69 -58l-80 105l62 42v169q-106 2 -170 59q-62 54 -62 142q0 76 49 128q60 63 170 63h349v-100h-34v-591h-131z" />
<glyph unicode="&#xb7;" horiz-adv-x="243" d="M54 399h118l18 -20v-155h-136v175z" />
<glyph unicode="&#xb8;" horiz-adv-x="415" d="M134 -82l34 97h103l-18 -56q71 -14 95 -68q9 -20 9 -46.5t-11 -50t-32 -41.5q-47 -39 -122 -39q-42 0 -72.5 9t-55.5 18l50 97l72 -48q37 0 56 27q7 10 7 28.5t-17.5 35.5t-60.5 17l-13 1z" />
<glyph unicode="&#xb9;" horiz-adv-x="260" d="M46 447l38 8v197l-49 -8l-9 45l149 38l17 -12l-3 -48v-209l37 -9v-47h-177z" />
<glyph unicode="&#xba;" horiz-adv-x="354" d="M69.5 440q-39.5 41 -39.5 124t39.5 122.5t106.5 39.5t107.5 -39.5t40.5 -122.5t-40.5 -124t-107.5 -41t-106.5 41zM141.5 612q-6.5 -20 -6.5 -51.5t6.5 -50t34.5 -18.5t35.5 18.5t7.5 50t-7.5 51.5t-35.5 20t-34.5 -20z" />
<glyph unicode="&#xbb;" horiz-adv-x="469" d="M256 553l213 -216l-213 -214l-66 67l147 147l-148 149zM100 532l193 -195l-193 -193l-66 67l126 126l-127 128z" />
<glyph unicode="&#xbc;" horiz-adv-x="757" d="M254 0h-125l-3 13l318 678h128l-1 -14zM725 101h-45v-35l46 -8v-58h-240l-6 49l84 14v38h-170v80l170 219h116v-215h45v-84zM45 371l46 7v230l-54 -8l-8 66l164 48l13 -12v-321l42 -8v-58h-203v56zM564 185v84l-74 -84h74z" />
<glyph unicode="&#xbd;" horiz-adv-x="784" d="M472 -1l-19 69q7 9 22.5 25t34.5 36t39 41.5t36 42.5q37 49 37 67q0 11 -6.5 17.5t-18.5 6.5t-17 -2l-18 -53l-117 45q26 56 68 80.5t77 24.5t61 -5.5t45 -18.5q44 -29 44 -91q0 -49 -52 -118q-38 -50 -76 -78h67l24 61h52l-16 -150h-267zM263 0h-125l-3 13l318 678h128 l-1 -14zM45 371l46 7v230l-54 -8l-8 66l164 48l13 -12v-321l38 -8v-58h-199v56z" />
<glyph unicode="&#xbe;" horiz-adv-x="805" d="M317 0h-125l-3 13l318 678h128l-1 -14zM771 101h-45v-35l46 -8v-58h-240l-6 49l84 14v38h-170v80l177 219h109v-215h45v-84zM143 554l15 -1q57 0 57 36q0 12 -9.5 22t-24.5 10q-17 0 -29 -6l-18 -50l-108 40q17 52 66 83q45 27 99 27q98 0 129 -57q12 -21 12 -50 t-13 -52.5t-36 -32.5q27 -17 35 -26q21 -23 21 -56t-13 -57t-36 -40q-43 -31 -106 -31q-94 0 -147 50l57 81q20 -19 42 -28t36.5 -9t29.5 8t15 28t-12.5 29.5t-42.5 9.5l-19 -1v73zM610 185v84l-74 -84h74z" />
<glyph unicode="&#xbf;" horiz-adv-x="407" d="M295 253q9 -23 9 -60.5t-10.5 -59.5t-27 -38.5t-35 -30.5t-35.5 -28q-37 -32 -37 -67t18 -51.5t41 -16.5q44 0 58 9l26 95h71l-16 -175q-32 -11 -68.5 -21.5t-84 -10.5t-81 12.5t-55.5 33.5q-46 42 -46 106q0 101 86 172q54 44 70.5 69t16.5 52v9zM312 425 q0 -28 -19.5 -47t-47.5 -19t-47 19t-19 47t19 47.5t47 19.5t47.5 -19.5t19.5 -47.5z" />
<glyph unicode="&#xc0;" horiz-adv-x="621" d="M349 0v75l80 21l-36 122h-196l-38 -126l88 -16v-76h-239l-13 78l55 18l198 595h124l201 -595l46 -18l-10 -78h-260zM228 323h121l-53 226zM377 724l-183 144l77 91l35 -17l112 -177z" />
<glyph unicode="&#xc1;" horiz-adv-x="621" d="M349 0v75l80 21l-36 122h-196l-38 -126l88 -16v-76h-239l-13 78l55 18l198 595h124l201 -595l46 -18l-10 -78h-260zM228 323h121l-53 226zM187 795l129 164l37 15l78 -109l-197 -124z" />
<glyph unicode="&#xc2;" horiz-adv-x="621" d="M115 737l171 166h37l172 -167l-8 -12h-86l-97 58l-98 -58h-85zM349 0v75l80 21l-36 122h-196l-38 -126l88 -16v-76h-239l-13 78l55 18l198 595h124l201 -595l46 -18l-10 -78h-260zM228 323h121l-53 226z" />
<glyph unicode="&#xc3;" horiz-adv-x="621" d="M433 881l81 -76q-22 -30 -55 -54t-62 -24t-45.5 7t-31.5 15.5t-30.5 15.5t-40.5 7t-42 -17.5t-23 -36.5l-74 44v19q10 31 34 52q46 40 98 40t118 -42q12 -8 19 -8zM349 0v75l80 21l-36 122h-196l-38 -126l88 -16v-76h-239l-13 78l55 18l198 595h124l201 -595l46 -18 l-10 -78h-260zM228 323h121l-53 226z" />
<glyph unicode="&#xc4;" horiz-adv-x="621" d="M349 0v75l80 21l-36 122h-196l-38 -126l88 -16v-76h-239l-13 78l55 18l198 594h124l201 -594l46 -18l-10 -78h-260zM228 323h121l-53 225zM155 804q0 29 20 49t48.5 20t48.5 -20t20 -49t-20 -48.5t-48.5 -19.5t-48.5 19.5t-20 48.5zM333 804q0 29 19.5 49t48.5 20t48 -20 t19 -49t-19 -48.5t-48 -19.5t-48.5 19.5t-19.5 48.5z" />
<glyph unicode="&#xc5;" horiz-adv-x="617" d="M407 740q0 -45 -29 -74l193 -570l46 -18l-10 -78h-260v75l80 21l-36 122h-196l-38 -126l88 -16v-76h-239l-13 78l55 18l186 560q-39 30 -39 84q0 45 30.5 75.5t75.5 30.5q46 0 75 -30q31 -33 31 -76zM226 323h121l-53 226zM262 740q0 -18 10 -28.5t28.5 -10.5t28.5 10.5 t10 28.5t-10 28.5t-28.5 10.5t-28.5 -10.5t-10 -28.5z" />
<glyph unicode="&#xc6;" horiz-adv-x="803" d="M1 0l-13 78l53 18l225 595h479l20 -204h-79l-40 99h-162v-178h152v-105h-152v-198h169l37 99h78l-21 -204h-434l-15 88l55 13v159h-138l-63 -168l88 -16v-76h-239zM342 596l-87 -231h98v230z" />
<glyph unicode="&#xc7;" horiz-adv-x="589" d="M419.5 568q-5.5 12 -8.5 15t-43 3t-77 -16.5t-65 -47.5q-60 -68 -60 -174q0 -110 56 -178q58 -69 150 -69q41 0 82 15t70 44l42 -89q-23 -28 -67.5 -47.5t-95.5 -25.5l-12 -39q71 -14 95 -68q9 -20 9 -46.5t-11 -50t-32 -41.5q-47 -39 -122 -39q-42 0 -72.5 9t-55.5 18 l50 97l72 -48q37 0 56 27q7 10 7 28.5t-17.5 35.5t-60.5 17l-13 1l-24 19l29 83q-119 19 -192 102q-79 90 -79 231q0 166 104 266q94 91 226 91q87 0 169 -24l20 -207h-81q-21 46 -32 71t-16.5 37z" />
<glyph unicode="&#xc8;" horiz-adv-x="555" d="M497 691l19 -204h-78l-41 99h-162v-178h152v-105h-152v-198h169l37 99h79l-21 -204h-446l-14 88l65 13v494l-63 7v89h456zM353 724l-183 144l77 91l35 -17l112 -177z" />
<glyph unicode="&#xc9;" horiz-adv-x="555" d="M497 690l19 -204h-78l-41 99h-162v-178h152v-105h-152v-197h169l37 99h79l-21 -204h-446l-14 88l65 13v493l-63 7v89h456zM205 795l129 164l37 15l78 -109l-197 -124z" />
<glyph unicode="&#xca;" horiz-adv-x="555" d="M92 737l171 166h37l172 -167l-7 -12h-86l-98 58l-97 -58h-85zM497 691l19 -204h-78l-41 99h-162v-178h152v-105h-152v-198h169l37 99h79l-21 -204h-446l-14 88l65 13v494l-63 7v89h456z" />
<glyph unicode="&#xcb;" horiz-adv-x="555" d="M497 691l19 -204h-78l-41 99h-162v-178h152v-105h-152v-198h169l37 99h79l-21 -204h-446l-14 88l65 13v494l-63 7v89h456zM131 804q0 29 20 49t48.5 20t48.5 -20t20 -49t-20 -48.5t-48.5 -19.5t-48.5 19.5t-20 48.5zM309 804q0 29 19.5 49t48.5 20t48 -20t19 -49 t-19 -48.5t-48 -19.5t-48.5 19.5t-19.5 48.5z" />
<glyph unicode="&#xcc;" horiz-adv-x="348" d="M312 68l-1 -53v-15h-260l-14 89l70 13v491l-68 7v91h260l15 -93l-76 -12v-487l74 -12v-19zM241 724l-183 144l77 91l35 -17l112 -177z" />
<glyph unicode="&#xcd;" horiz-adv-x="348" d="M312 68l-1 -53v-15h-260l-14 89l70 13v491l-68 7v91h260l15 -93l-76 -12v-487l74 -12v-19zM71 795l129 164l37 15l78 -109l-197 -124z" />
<glyph unicode="&#xce;" horiz-adv-x="348" d="M312 68l-1 -53v-15h-260l-14 89l70 13v491l-68 7v91h260l15 -93l-76 -12v-487l74 -12v-19zM-14 737l171 166h37l172 -167l-7 -12h-86l-98 58l-98 -58h-85z" />
<glyph unicode="&#xcf;" horiz-adv-x="348" d="M312 68l-1 -53v-15h-260l-14 89l70 13v491l-68 7v91h260l15 -93l-76 -12v-487l74 -12v-19zM23 804q0 29 20 49t48.5 20t48.5 -20t20 -49t-20 -48.5t-48.5 -19.5t-48.5 19.5t-20 48.5zM201 804q0 29 19.5 49t48.5 20t48 -20t19 -49t-19 -48.5t-48 -19.5t-48.5 19.5 t-19.5 48.5z" />
<glyph unicode="&#xd0;" horiz-adv-x="639" d="M41 88l65 13v208h-92v82l14 12h78v192l-63 8v88h179q280 0 360 -189q26 -64 26 -148q0 -169 -87 -261.5t-256 -92.5h-217zM237 105l19 -1q106 0 161 63t55 183q0 236 -235 236v-183h125q7 0 7 -7v-87h-132v-204z" />
<glyph unicode="&#xd1;" horiz-adv-x="727" d="M262 65l-1 -52v-13h-208l-16 87l69 13v490l-64 7v93h256l227 -594v496l-58 7v91h215l15 -93l-67 -12v-585h-202l-217 562v-458l51 -16v-23zM486 881l81 -76q-22 -30 -55 -54t-62 -24t-45.5 7t-31.5 15.5t-30.5 15.5t-40.5 7t-42 -17.5t-23 -36.5l-74 44v19q10 31 34 52 q46 40 98 40t117 -42q13 -8 20 -8z" />
<glyph unicode="&#xd2;" horiz-adv-x="655" d="M328 -4q-138 0 -217 98q-75 93 -75 251t75 251q78 97 217 97q140 0 216 -97q75 -94 75 -251t-75 -251q-77 -98 -216 -98zM173 343q0 -103 42 -172q42 -70 113 -70q70 0 112 70q42 69 42 172q0 105 -42 174q-43 71 -112 71q-70 0 -113 -71q-42 -69 -42 -174zM388 724 l-183 144l77 91l35 -17l112 -177z" />
<glyph unicode="&#xd3;" horiz-adv-x="655" d="M328 -4q-138 0 -217 98q-75 93 -75 251t75 251q78 97 217 97q140 0 216 -97q75 -94 75 -251t-75 -251q-77 -98 -216 -98zM173 343q0 -103 42 -172q42 -70 113 -70q70 0 112 70q42 69 42 172q0 105 -42 174q-43 71 -112 71q-70 0 -113 -71q-42 -69 -42 -174zM229 795 l129 164l37 15l78 -109l-197 -124z" />
<glyph unicode="&#xd4;" horiz-adv-x="655" d="M147 737l171 166h37l172 -167l-7 -12h-86l-98 58l-98 -58h-85zM328 -4q-138 0 -217 98q-75 93 -75 251t75 251q78 97 217 97q140 0 216 -97q75 -94 75 -251t-75 -251q-77 -98 -216 -98zM173 343q0 -103 42 -172q42 -70 113 -70q70 0 112 70q42 69 42 172q0 105 -42 174 q-43 71 -112 71q-70 0 -113 -71q-42 -69 -42 -174z" />
<glyph unicode="&#xd5;" horiz-adv-x="655" d="M443 881l81 -76q-21 -30 -54 -54t-62.5 -24t-46 7t-31.5 15.5t-30.5 15.5t-40.5 7t-41.5 -17.5t-23.5 -36.5l-73 44v19q11 32 33 52q46 40 98 40q53 0 118 -42q13 -8 20 -8zM328 -4q-138 0 -217 98q-75 93 -75 251t75 251q78 97 217 97q140 0 216 -97q75 -94 75 -251 t-75 -251q-77 -98 -216 -98zM173 343q0 -103 42 -172q42 -70 113 -70q70 0 112 70q42 69 42 172q0 105 -42 174q-43 71 -112 71q-70 0 -113 -71q-42 -69 -42 -174z" />
<glyph unicode="&#xd6;" horiz-adv-x="655" d="M328 -4q-138 0 -217 98q-75 93 -75 251t75 251q78 97 217 97q140 0 216 -97q75 -94 75 -251t-75 -251q-77 -98 -216 -98zM173 343q0 -103 42 -172q42 -70 113 -70q70 0 112 70q42 69 42 172q0 105 -42 174q-43 71 -112 71q-70 0 -113 -71q-42 -69 -42 -174zM174 804 q0 29 20 49t48.5 20t48.5 -20t20 -49t-20 -48.5t-48.5 -19.5t-48.5 19.5t-20 48.5zM352 804q0 29 19.5 49t48.5 20t48 -20t19 -49t-19 -48.5t-48 -19.5t-48.5 19.5t-19.5 48.5z" />
<glyph unicode="&#xd7;" horiz-adv-x="465" d="M35 201l127 127l-127 127l70 70l127 -127l127 128l71 -70l-127 -128l127 -126l-71 -71l-127 126l-127 -127z" />
<glyph unicode="&#xd8;" horiz-adv-x="655" d="M515 627q104 -94 104 -282q0 -157 -75 -251q-77 -98 -216 -98q-50 0 -94 14l-33 -73h-125l-4 23l53 117q-89 93 -89 268q0 158 75 251q78 97 217 97q40 0 75 -9l33 73h127v-24zM453 492l-173 -381q21 -10 52 -10t59.5 18.5t48.5 51.5q42 69 42 163.5t-29 157.5zM184 439 q-11 -45 -11 -104.5t18 -113.5l166 363q-13 4 -39 4t-54.5 -19t-48.5 -52t-31 -78z" />
<glyph unicode="&#xd9;" horiz-adv-x="670" d="M353 101q126 0 126 150v343l-64 9v88h228v-91l-59 -13v-339q0 -117 -59 -184.5t-172 -67.5q-145 0 -207 66q-58 62 -58 186v345l-67 9v89h269v-88l-71 -11v-342q0 -75 29.5 -112t104.5 -37zM395 724l-183 144l77 91l35 -17l112 -177z" />
<glyph unicode="&#xda;" horiz-adv-x="670" d="M353 101q126 0 126 150v343l-64 9v88h228v-91l-59 -13v-339q0 -117 -59 -184.5t-172 -67.5q-145 0 -207 66q-58 62 -58 186v345l-67 9v89h269v-88l-71 -11v-342q0 -75 29.5 -112t104.5 -37zM247 795l129 164l37 15l78 -109l-197 -124z" />
<glyph unicode="&#xdb;" horiz-adv-x="670" d="M151 737l171 166h37l172 -167l-7 -12h-86l-98 58l-98 -58h-85zM353 101q126 0 126 150v343l-64 9v88h228v-91l-59 -13v-339q0 -117 -59 -184.5t-172 -67.5q-145 0 -207 66q-58 62 -58 186v345l-67 9v89h269v-88l-71 -11v-342q0 -75 29.5 -112t104.5 -37z" />
<glyph unicode="&#xdc;" horiz-adv-x="670" d="M353 101q126 0 126 150v342l-64 9v88h228v-91l-59 -13v-338q0 -117 -59 -184.5t-172 -67.5q-145 0 -207 66q-58 62 -58 186v344l-67 9v89h269v-88l-71 -11v-341q0 -75 29.5 -112t104.5 -37zM193 804q0 29 20 49t48.5 20t48.5 -20t20 -49t-20 -48.5t-48.5 -19.5 t-48.5 19.5t-20 48.5zM371 804q0 29 19.5 49t48.5 20t48 -20t19 -49t-19 -48.5t-48 -19.5t-48.5 19.5t-19.5 48.5z" />
<glyph unicode="&#xdd;" horiz-adv-x="583" d="M242 691l15 -79l-71 -14l124 -216l112 219l-61 11v79h221v-88l-44 -11l-178 -341v-155l115 -23l-9 -73h-341l-10 73l114 23v156l-191 340l-40 10v89h244zM232 795l129 164l37 15l78 -109l-197 -124z" />
<glyph unicode="&#xde;" horiz-adv-x="556" d="M240 558l36 1q131 0 202 -57q67 -55 67 -150t-66 -149q-70 -57 -200 -57h-19q-9 0 -20 1v-48l114 -12v-87h-314v89l68 13v491l-68 7v91h261l14 -93l-75 -12v-28zM409 352q0 48 -32 70q-40 29 -137 31v-202q141 0 162 61q7 19 7 40z" />
<glyph unicode="&#xdf;" horiz-adv-x="562" d="M132.5 680.5q53.5 54.5 147.5 54.5q141 0 184 -93q16 -34 16 -80.5t-15.5 -75.5t-33.5 -47.5t-33.5 -30.5t-15.5 -22t4 -16.5t12 -13.5t21 -15.5t36 -25.5t42 -36.5t30 -38.5q20 -33 20 -74.5t-14 -72t-39 -52.5q-50 -45 -132 -45q-49 0 -78 9.5t-45 14.5l51 121l56 -51 q39 0 64 32q11 14 11 38t-11.5 42.5t-28.5 34t-37.5 29.5t-37.5 30q-40 38 -40 76t14 58.5t31.5 37.5t31.5 37t14 53.5t-20.5 57.5t-49.5 24t-44.5 -9t-24.5 -24q-18 -28 -18 -75v-532h-164l-7 72l50 11v448q0 95 53.5 149.5z" />
<glyph unicode="&#xe0;" horiz-adv-x="463" d="M413 83q-18 0 -18 22v225q0 83 -54 126q-44 35 -118 35q-66 0 -121 -35q-52 -33 -72 -82l124 -54l26 74q8 3 35.5 3t43 -9.5t15.5 -20.5v-79q-160 -4 -222 -85q-23 -30 -23 -66t9.5 -60.5t27.5 -42.5q40 -38 108 -38q64 0 112 48q24 -48 80 -48q42 0 80 33l-18 56z M246 107q-20 -15 -45.5 -15t-36.5 14.5t-11 32.5t12 30.5t30 20.5q28 11 79 14v-65q-8 -17 -28 -32zM282 509l-193 121l77 106l36 -14l126 -161z" />
<glyph unicode="&#xe1;" horiz-adv-x="463" d="M286 44q-48 -48 -112 -48q-68 0 -108 38q-37 36 -37 87.5t23 81.5t58 49q66 34 164 36v79q0 11 -15.5 20.5t-36.5 9.5q-34 0 -42 -3l-26 -74l-124 54q20 49 72 82q55 35 121 35q115 0 157 -85q15 -30 15 -76v-225q0 -22 18 -22l15 2l18 -56q-38 -33 -80 -33q-56 0 -80 48 zM274 204q-121 -6 -121 -66q0 -17 11 -31.5t36.5 -14.5t45.5 15t28 32v65zM112 561l126 161l36 14l77 -106l-193 -121z" />
<glyph unicode="&#xe2;" horiz-adv-x="463" d="M79 541l134 159h32l134 -160l-6 -11h-78l-67 52l-67 -52h-77zM286 44q-48 -48 -112 -48q-68 0 -108 38q-37 36 -37 87.5t23 81.5t58 49q66 34 164 36v79q0 11 -15.5 20.5t-36.5 9.5q-34 0 -42 -3l-26 -74l-124 54q20 49 72 82q55 35 121 35q115 0 157 -85q15 -30 15 -76 v-225q0 -22 18 -22l15 2l18 -56q-38 -33 -80 -33q-56 0 -80 48zM274 204q-121 -6 -121 -66q0 -17 11 -31.5t36.5 -14.5t45.5 15t28 32v65z" />
<glyph unicode="&#xe3;" horiz-adv-x="463" d="M388 627q-51 -73 -101 -73q-25 0 -50 14t-38.5 20.5t-34.5 6.5t-35.5 -15.5t-19.5 -32.5l-64 42l1 19q20 50 71 73q20 9 43.5 9t41.5 -6.5t33 -14t26 -15t17 -8.5l36 51zM286 44q-48 -48 -112 -48q-68 0 -108 38q-37 36 -37 87.5t23 81.5t58 49q66 34 164 36v79 q0 11 -15.5 20.5t-36.5 9.5q-34 0 -42 -3l-26 -74l-124 54q20 49 72 82q55 35 121 35q115 0 157 -85q15 -30 15 -76v-225q0 -22 18 -22l15 2l18 -56q-38 -33 -80 -33q-56 0 -80 48zM274 204q-121 -6 -121 -66q0 -17 11 -31.5t36.5 -14.5t45.5 15t28 32v65z" />
<glyph unicode="&#xe4;" horiz-adv-x="463" d="M70 634q0 26 18 44t44 18t44 -18t18 -44t-18 -44t-44 -18t-44 18t-18 44zM231 634q0 26 18 44t44 18t44 -18t18 -44t-18 -44t-44 -18t-44 18t-18 44zM286 44q-48 -48 -112 -48q-68 0 -108 38q-37 36 -37 87.5t23 81.5t58 49q66 34 164 36v79q0 11 -15.5 20.5t-36.5 9.5 q-34 0 -42 -3l-26 -74l-124 54q20 49 72 82q55 35 121 35q115 0 157 -85q15 -30 15 -76v-225q0 -22 18 -22l15 2l18 -56q-38 -33 -80 -33q-56 0 -80 48zM274 204q-121 -6 -121 -66q0 -17 11 -31.5t36.5 -14.5t45.5 15t28 32v65z" />
<glyph unicode="&#xe5;" horiz-adv-x="463" d="M118 630q0 23 8 42.5t22 33.5q31 31 76 31t75.5 -30.5t30.5 -75.5t-30.5 -75.5t-75.5 -30.5t-75.5 30.5t-30.5 74.5zM181 631q0 -20 11.5 -31.5t31.5 -11.5t31.5 11.5t11.5 31.5t-11.5 31.5t-31.5 11.5t-31.5 -11.5t-11.5 -31.5zM286 44q-48 -48 -112 -48q-68 0 -108 38 q-37 36 -37 87.5t23 81.5t58 49q66 34 164 36v79q0 11 -15.5 20.5t-36.5 9.5q-34 0 -42 -3l-26 -74l-124 54q20 49 72 82q55 35 121 35q115 0 157 -85q15 -30 15 -76v-225q0 -22 18 -22l15 2l18 -56q-38 -33 -80 -33q-56 0 -80 48zM274 204q-121 -6 -121 -66q0 -17 11 -31.5 t36.5 -14.5t45.5 15t28 32v65z" />
<glyph unicode="&#xe6;" horiz-adv-x="698" d="M356 442q58 49 143 49q66 0 115 -37q53 -40 53 -100q0 -85 -65 -124q-54 -33 -149 -33h-27q-13 0 -24 1q6 -45 33.5 -76t81.5 -31q50 0 103 34q14 9 23 18l23 -87q-26 -34 -105 -54q-27 -6 -58 -6q-116 0 -178 79q-26 -33 -66 -56t-80 -23t-67 10t-46 28q-37 36 -37 87.5 t23 81.5t58 49q66 34 164 36v79q0 11 -15.5 20.5t-36.5 9.5q-34 0 -42 -3l-26 -74l-124 54q20 49 72 82q55 35 121 35q86 0 133 -49zM403 282q5 -1 15 -1h18q72 0 100 36q10 13 10 34.5t-12.5 33.5t-31.5 12t-36 -9.5t-30 -25.5q-29 -32 -33 -80zM274 204q-121 -6 -121 -66 q0 -17 11 -31.5t37 -14.5t46 15.5t27 32.5v64z" />
<glyph unicode="&#xe7;" horiz-adv-x="431" d="M267 -38q76 -17 76 -87q0 -41 -33 -68.5t-94 -27.5q-48 0 -91 18l34 74l55 -40q27 0 44 19q8 8 8 23q0 49 -70 49l-12 16l21 62q-119 25 -159 138q-15 41 -15 105.5t20 114t51 79.5q57 54 147 54q75 0 125 -39q24 -20 42 -50l-121 -65l-43 60q-46 0 -71.5 -43t-25.5 -116 q0 -101 63 -135q22 -12 48 -12t44 5.5t32.5 13t24.5 16t16 13.5q2 -7 6 -19t8 -25t7 -25t5 -18q-47 -47 -130 -55z" />
<glyph unicode="&#xe8;" horiz-adv-x="454" d="M248 491q-35 0 -75 -14.5t-71 -45.5q-72 -70 -72 -192q0 -116 71 -183q64 -60 156 -60q55 0 105 21q41 17 58 39l-23 87q-18 -17 -46 -34.5t-66 -17.5t-60 8.5t-36 22.5q-27 27 -33 76q11 -1 24 -1h27q94 0 152 37q65 41 65 120q0 66 -54 104q-48 33 -122 33zM295 509 l-193 121l77 106l36 -14l126 -161zM157 282q4 48 33 80q29 34 65 34q20 0 33 -11.5t13 -33t-10 -34.5t-26 -21q-30 -15 -75 -15h-18q-10 0 -15 1z" />
<glyph unicode="&#xe9;" horiz-adv-x="454" d="M156 198q14 -107 121 -107q46 0 74 17.5t46 34.5l23 -87q-28 -37 -106 -54q-26 -6 -63 -6t-77.5 15t-72.5 45q-71 67 -71 183q0 122 72 192q60 60 151 60q69 0 117 -33q54 -38 54 -104q0 -79 -65 -120q-58 -37 -152 -37h-27q-13 0 -24 1zM135 561l126 161l36 14l77 -106 l-193 -121zM157 282q5 -1 15 -1h18q73 0 101 36q10 13 10 34.5t-13 33t-32 11.5t-36 -9t-30 -25q-29 -32 -33 -80z" />
<glyph unicode="&#xea;" horiz-adv-x="454" d="M156 198q14 -107 121 -107q46 0 74 17.5t46 34.5l23 -87q-28 -37 -106 -54q-26 -6 -63 -6t-77.5 15t-72.5 45q-71 67 -71 183q0 122 72 192q60 60 151 60q69 0 117 -33q54 -38 54 -104q0 -79 -65 -120q-58 -37 -152 -37h-27q-13 0 -24 1zM103 541l133 159h33l134 -160 l-6 -11h-78l-67 52l-67 -52h-77zM157 282q5 -1 15 -1h18q73 0 101 36q10 13 10 34.5t-13 33t-32 11.5t-36 -9t-30 -25q-29 -32 -33 -80z" />
<glyph unicode="&#xeb;" horiz-adv-x="454" d="M156 198q14 -107 121 -107q46 0 74 17.5t46 34.5l23 -87q-28 -37 -106 -54q-26 -6 -63 -6t-77.5 15t-72.5 45q-71 67 -71 183q0 122 72 192q60 60 151 60q69 0 117 -33q54 -38 54 -104q0 -79 -65 -120q-58 -37 -152 -37h-27q-13 0 -24 1zM263 634q0 26 18 44t44 18 t44 -18t18 -44t-18 -44t-44 -18t-44 18t-18 44zM102 634q0 26 18 44t44 18t44 -18t18 -44t-18 -44t-44 -18t-44 18t-18 44zM157 282q5 -1 15 -1h18q73 0 101 36q10 13 10 34.5t-13 33t-32 11.5t-36 -9t-30 -25q-29 -32 -33 -80z" />
<glyph unicode="&#xec;" horiz-adv-x="288" d="M175 492l-149 -26l11 -68h51v-321l-56 -13l11 -64h221v64l-55 11v381zM215 509l-193 121l77 106l36 -14l126 -161z" />
<glyph unicode="&#xed;" horiz-adv-x="288" d="M26 466l149 26l34 -36v-381l55 -11v-64h-221l-11 64l56 13v321h-51zM26 561l126 161l36 14l77 -106l-193 -121z" />
<glyph unicode="&#xee;" horiz-adv-x="288" d="M-4 541l133 159h33l134 -160l-6 -11h-78l-67 52l-67 -52h-77zM26 466l149 26l34 -36v-381l55 -11v-64h-221l-11 64l56 13v321h-51z" />
<glyph unicode="&#xef;" horiz-adv-x="288" d="M-4 634q0 26 18 44t44 18t44 -18t18 -44t-18 -44t-44 -18t-44 18t-18 44zM147 634q0 26 18 44t44 18t44 -18t18 -44t-18 -44t-44 -18t-44 18t-18 44zM26 466l149 26l34 -36v-381l55 -11v-64h-221l-11 64l56 13v321h-51z" />
<glyph unicode="&#xf0;" horiz-adv-x="545" d="M203 582q-25 14 -70 33l52 121q74 -28 128 -67l83 66l66 -102l-63 -38q111 -120 111 -269q0 -119 -47 -210q-39 -73 -115 -104q-40 -16 -92.5 -16t-94.5 18t-71 48q-61 65 -61 156q0 104 57 170.5t150 66.5q84 0 133 -47q-24 67 -86 118l-113 -67l-37 67zM263 101 q104 0 118 153q-7 52 -44 79q-31 23 -66.5 23t-57 -11.5t-34.5 -30.5q-24 -34 -24 -89q0 -49 29 -85q33 -39 79 -39z" />
<glyph unicode="&#xf1;" horiz-adv-x="555" d="M465 628q-51 -73 -100 -73q-24 0 -50 14t-39.5 20.5t-34.5 6.5t-35.5 -15.5t-19.5 -32.5l-64 42l1 19q20 50 71 73q21 9 44 9t41 -6.5t33 -14t26 -15t17 -8.5l37 51zM26 466l148 26l35 -37q19 14 51 25t64 11t60 -8t49 -24q46 -35 46 -100v-286l55 -9l-1 -64h-225v64 l50 11v256q0 62 -62 62q-41 0 -76 -27q-8 -6 -11 -10v-281l57 -12l-1 -63h-222l-11 64l56 13v321h-51z" />
<glyph unicode="&#xf2;" d="M29 246q0 -116 69 -186q62 -64 151 -64q90 0 152 64q69 70 69 186q0 114 -69 183q-62 62 -152 62q-89 0 -151 -62q-69 -69 -69 -183zM153 240q0 119 59 148q17 9 37 9q68 0 89 -85q8 -30 8 -72q0 -117 -60 -142q-17 -8 -37 -8q-68 0 -89 80q-7 28 -7 70zM310 509 l-193 121l77 106l36 -14l126 -161z" />
<glyph unicode="&#xf3;" d="M29 246q0 114 69 183q62 62 151 62q90 0 152 -62q69 -69 69 -183q0 -116 -69 -186q-62 -64 -152 -64q-89 0 -151 64q-69 70 -69 186zM153 240q0 -116 59 -142q17 -8 37 -8q69 0 89 80q8 28 8 70q0 120 -60 148q-17 9 -37 9q-67 0 -89 -85q-7 -30 -7 -72zM143 561l126 161 l36 14l77 -106l-193 -121z" />
<glyph unicode="&#xf4;" d="M96 541l133 159h33l134 -160l-6 -11h-78l-67 52l-67 -52h-77zM29 246q0 114 69 183q62 62 151 62q90 0 152 -62q69 -69 69 -183q0 -116 -69 -186q-62 -64 -152 -64q-89 0 -151 64q-69 70 -69 186zM153 240q0 -116 59 -142q17 -8 37 -8q69 0 89 80q8 28 8 70 q0 120 -60 148q-17 9 -37 9q-67 0 -89 -85q-7 -30 -7 -72z" />
<glyph unicode="&#xf5;" d="M436 627q-51 -73 -101 -73q-25 0 -50 14t-38.5 20.5t-34.5 6.5t-35.5 -15.5t-19.5 -32.5l-64 42l1 19q20 50 71 73q20 9 43.5 9t41.5 -6.5t33 -14t26 -15t17 -8.5l36 51zM29 246q0 114 69 183q62 62 151 62q90 0 152 -62q69 -69 69 -183q0 -116 -69 -186 q-62 -64 -152 -64q-89 0 -151 64q-69 70 -69 186zM153 240q0 -116 59 -142q17 -8 37 -8q69 0 89 80q8 28 8 70q0 120 -60 148q-17 9 -37 9q-67 0 -89 -85q-7 -30 -7 -72z" />
<glyph unicode="&#xf6;" d="M105 634q0 26 18 44t44 18t44 -18t18 -44t-18 -44t-44 -18t-44 18t-18 44zM267 634q0 26 18 44t44 18t44 -18t18 -44t-18 -44t-44 -18t-44 18t-18 44zM29 246q0 114 69 183q62 62 151 62q90 0 152 -62q69 -69 69 -183q0 -116 -69 -186q-62 -64 -152 -64q-89 0 -151 64 q-69 70 -69 186zM153 240q0 -116 59 -142q17 -8 37 -8q69 0 89 80q8 28 8 70q0 120 -60 148q-17 9 -37 9q-67 0 -89 -85q-7 -30 -7 -72z" />
<glyph unicode="&#xf7;" horiz-adv-x="419" d="M136 84q0 28 19.5 47t47.5 19t47 -19t19 -47t-19 -47.5t-47 -19.5t-47.5 19.5t-19.5 47.5zM155.5 358q-19.5 20 -19.5 47.5t19.5 46.5t47.5 19t47 -19t19 -46.5t-19 -47.5t-47 -20t-47.5 20zM32 294h355v-100h-355v100z" />
<glyph unicode="&#xf8;" d="M107 51q-78 71 -78 195q0 114 69 183q62 62 151 62q18 0 36 -3l40 97h118l-1 -13l-54 -132q82 -68 82 -194q0 -116 -69 -186q-62 -64 -152 -64q-20 0 -40 4l-42 -105h-115l-3 13zM338 170q8 28 8 70.5t-9 74.5l-88 -225q69 0 89 80zM160 312q-7 -30 -7 -69.5t6 -64.5 l89 219q-66 0 -88 -85z" />
<glyph unicode="&#xf9;" horiz-adv-x="539" d="M482 83q-16 0 -16 22v349l-35 38l-143 -27l12 -67l45 3v-257q-8 -20 -31 -36t-52 -16t-47.5 19t-18.5 58v285l-35 38l-148 -27l11 -67h51v-252q0 -77 42 -113.5t113 -36.5q33 0 68 11.5t58 36.5q22 -48 81 -48q31 0 51.5 13t26.5 20l-19 56zM304 509l-193 121l77 106 l36 -14l126 -161z" />
<glyph unicode="&#xfa;" horiz-adv-x="539" d="M437 -4q-59 0 -81 48q-23 -25 -58 -36.5t-68 -11.5q-71 0 -113 36.5t-42 113.5v252h-51l-11 67l148 27l35 -38v-285q0 -39 18.5 -58t47.5 -19t52 16t31 36v257l-45 -3l-12 67l143 27l35 -38v-349q0 -22 16 -22l14 2l19 -56q-6 -7 -26.5 -20t-51.5 -13zM137 561l126 161 l36 14l77 -106l-193 -121z" />
<glyph unicode="&#xfb;" horiz-adv-x="539" d="M112 541l133 159h33l134 -160l-6 -11h-78l-67 52l-67 -52h-77zM437 -4q-59 0 -81 48q-23 -25 -58 -36.5t-68 -11.5q-71 0 -113 36.5t-42 113.5v252h-51l-11 67l148 27l35 -38v-285q0 -39 18.5 -58t47.5 -19t52 16t31 36v257l-45 -3l-12 67l143 27l35 -38v-349 q0 -22 16 -22l14 2l19 -56q-6 -7 -26.5 -20t-51.5 -13z" />
<glyph unicode="&#xfc;" horiz-adv-x="539" d="M121 634q0 26 18 44t44 18t44 -18t18 -44t-18 -44t-44 -18t-44 18t-18 44zM283 634q0 26 18 44t44 18t44 -18t18 -44t-18 -44t-44 -18t-44 18t-18 44zM437 -4q-59 0 -81 48q-23 -25 -58 -36.5t-68 -11.5q-71 0 -113 36.5t-42 113.5v252h-51l-11 67l148 27l35 -38v-285 q0 -39 18.5 -58t47.5 -19t52 16t31 36v257l-45 -3l-12 67l143 27l35 -38v-349q0 -22 16 -22l14 2l19 -56q-6 -7 -26.5 -20t-51.5 -13z" />
<glyph unicode="&#xfd;" d="M496 455q-16 -44 -70 -198t-72 -205.5t-33.5 -95.5t-27.5 -76.5t-22 -59t-27.5 -48t-35.5 -32.5q-24 -14 -58 -14q-44 0 -88 23q-18 9 -33 23l54 84q43 -36 59 -36t27.5 13t23.5 46l22 60l-169 468h-38l-8 72l150 12l130 -372q19 53 37.5 103.5t35 95.5t31.5 89h-46 l-8 73l146 11zM123 561l126 161l36 14l77 -106l-193 -121z" />
<glyph unicode="&#xfe;" horiz-adv-x="501" d="M186 472q38 19 85 19t83 -16.5t62 -47.5q54 -64 54 -176q0 -136 -70 -201q-59 -54 -153 -54q-30 0 -63 7l2 -10v-175l119 -26v-65h-284l-6 63l51 15v843h-52l-11 68l149 20l34 -35v-229zM186 103q20 -13 61 -13t70 37.5t29 117t-27.5 116t-67.5 36.5t-65 -18v-276z" />
<glyph unicode="&#xff;" d="M496 455q-16 -44 -70 -198t-72 -205.5t-33.5 -95.5t-27.5 -76.5t-22 -59t-27.5 -48t-35.5 -32.5q-24 -14 -58 -14q-44 0 -88 23q-18 9 -33 23l54 84q43 -36 59 -36t27.5 13t23.5 46l22 60l-169 468h-38l-8 72l150 12l130 -372q19 53 37.5 103.5t35 95.5t31.5 89h-46 l-8 73l146 11zM110 634q0 26 18 44t44 18t44 -18t18 -44t-18 -44t-44 -18t-44 18t-18 44zM271 634q0 26 18 44t44 18t44 -18t18 -44t-18 -44t-44 -18t-44 18t-18 44z" />
<glyph unicode="&#x152;" horiz-adv-x="879" d="M377 0l-49 -1q-139 0 -217 97q-75 92 -75 249q0 152 81 250q79 96 201 96h503l19 -204h-78l-41 99h-162v-178h152v-105h-152v-198h169l37 99h79l-21 -204h-446zM428 562q-24 24 -73.5 24t-82.5 -18.5t-55 -51.5q-44 -66 -44 -173q0 -169 95 -221q33 -18 66 -18 q64 0 94 25v433z" />
<glyph unicode="&#x153;" horiz-adv-x="770" d="M408 421q64 70 161 70q69 0 117 -33q54 -38 54 -104q0 -79 -65 -120q-58 -37 -152 -37h-27q-13 0 -24 1q14 -107 121 -107q46 0 74 17.5t46 34.5l23 -87q-28 -37 -106 -54q-26 -6 -57 -6q-101 0 -167 70q-64 -70 -157 -70q-89 0 -151 64q-69 70 -69 186q0 114 69 183 q62 62 154 62t156 -70zM153 240q0 -116 59 -142q17 -8 37 -8q69 0 89 80q8 28 8 70q0 120 -60 148q-17 9 -37 9q-67 0 -89 -85q-7 -30 -7 -72zM473 282q5 -1 15 -1h18q73 0 101 36q10 13 10 34.5t-13 33t-32 11.5t-36 -9t-30 -25q-29 -32 -33 -80z" />
<glyph unicode="&#x2000;" horiz-adv-x="487" />
<glyph unicode="&#x2001;" horiz-adv-x="974" />
<glyph unicode="&#x2002;" horiz-adv-x="487" />
<glyph unicode="&#x2003;" horiz-adv-x="974" />
<glyph unicode="&#x2004;" horiz-adv-x="324" />
<glyph unicode="&#x2005;" horiz-adv-x="243" />
<glyph unicode="&#x2006;" horiz-adv-x="162" />
<glyph unicode="&#x2007;" horiz-adv-x="162" />
<glyph unicode="&#x2008;" horiz-adv-x="121" />
<glyph unicode="&#x2009;" horiz-adv-x="194" />
<glyph unicode="&#x200a;" horiz-adv-x="54" />
<glyph unicode="&#x2010;" horiz-adv-x="423" d="M53 250v82l18 12h292q6 0 6 -7v-87h-316z" />
<glyph unicode="&#x2011;" horiz-adv-x="423" d="M53 250v82l18 12h292q6 0 6 -7v-87h-316z" />
<glyph unicode="&#x2012;" horiz-adv-x="423" d="M53 250v82l18 12h292q6 0 6 -7v-87h-316z" />
<glyph unicode="&#x2013;" horiz-adv-x="476" d="M53 396h371v-95h-371v95z" />
<glyph unicode="&#x2014;" horiz-adv-x="626" d="M53 396h521v-95h-521v95z" />
<glyph unicode="&#x2018;" horiz-adv-x="219" d="M185 697l-35 -128l41 -120l-130 -47q-13 32 -18.5 71.5t-5.5 63.5t5 53t13 56q15 49 38 89l88 -28z" />
<glyph unicode="&#x2019;" horiz-adv-x="220" d="M184 738q10 -40 10 -85t-8 -78.5t-20 -64.5q-23 -58 -55 -99l-84 39l-3 11l51 122l-26 125z" />
<glyph unicode="&#x201a;" horiz-adv-x="237" d="M171 204q21 -84 21 -122t-8 -71.5t-20 -64.5q-23 -58 -55 -99l-84 39l-3 11l51 122l-37 155z" />
<glyph unicode="&#x201c;" horiz-adv-x="401" d="M372 687l-46 -125l44 -153l-133 -36q-2 4 -6 21t-9 38q-12 50 -12 80t6.5 62.5t17.5 61.5q20 57 49 97l85 -36zM200 689l-47 -142l46 -165l-133 -36q-9 18 -19 76.5t-10 81.5t7 58t18 68q20 63 48 105l86 -35z" />
<glyph unicode="&#x201d;" horiz-adv-x="397" d="M178 720q17 -68 17 -104t-8 -69.5t-20 -64.5q-23 -58 -55 -99l-84 39l-3 11l51 122l-33 135zM350 740q19 -76 19 -114t-8 -74.5t-21 -69.5q-25 -69 -56 -109l-84 39l-3 11l53 140l-35 147z" />
<glyph unicode="&#x201e;" horiz-adv-x="408" d="M168 204q21 -84 21 -122t-8 -71.5t-20 -64.5q-23 -58 -55 -99l-84 39l-3 11l51 122l-37 155zM191 -113l53 140l-39 167l135 30q10 -39 16.5 -81.5t6.5 -66.5t-8 -60.5t-21 -69.5q-25 -69 -56 -109l-84 39z" />
<glyph unicode="&#x2022;" horiz-adv-x="273" d="M35 383q0 41 29 72q29 30 72 30q42 0 72 -30t30 -72q0 -43 -30 -71q-31 -30 -72 -30q-42 0 -71.5 29.5t-29.5 71.5z" />
<glyph unicode="&#x202f;" horiz-adv-x="194" />
<glyph unicode="&#x2039;" horiz-adv-x="327" d="M2 314l263 236l5 -2v-131l-119 -117l119 -116v-131l-6 -3l-262 238v26z" />
<glyph unicode="&#x203a;" horiz-adv-x="327" d="M325 288l-262 -238l-6 3v131l119 116l-119 117v131l5 2l263 -236v-26z" />
<glyph unicode="&#x205f;" horiz-adv-x="243" />
<glyph unicode="&#x20ac;" horiz-adv-x="620" d="M590 65q-79 -69 -190 -69q-228 0 -286 209h-83v99h68q-1 8 -1 17v29h-67v100h78q25 115 103 180q73 61 177 61q87 0 169 -24q15 -117 20 -176h-81l-52 89q-8 1 -17.5 3.5t-28.5 2.5q-124 0 -155 -136h242v-102h-253q0 -22 2 -44h251v-99h-231q38 -104 146 -104 q51 0 91 18.5t61 36.5z" />
<glyph unicode="&#xe000;" horiz-adv-x="490" d="M0 490h490v-490h-490v490z" />
</font>
</defs>
</svg>
