<?xml version="1.0" standalone="no"?>
<!DOCTYPE svg PUBLIC "-//W3C//DTD SVG 1.1//EN" "http://www.w3.org/Graphics/SVG/1.1/DTD/svg11.dtd" >
<svg xmlns="http://www.w3.org/2000/svg">
<metadata></metadata>
<defs>
<font id="league_gothicitalic" horiz-adv-x="354" >
<font-face units-per-em="1000" ascent="735" descent="-265" />
<missing-glyph horiz-adv-x="154" />
<glyph horiz-adv-x="0" />
<glyph unicode="&#xd;" horiz-adv-x="154" />
<glyph horiz-adv-x="0" />
<glyph horiz-adv-x="0" />
<glyph unicode=" "  horiz-adv-x="154" />
<glyph unicode="&#x09;" horiz-adv-x="154" />
<glyph unicode="&#xa0;" horiz-adv-x="154" />
<glyph unicode="!" horiz-adv-x="189" d="M42 0l23 111h105l-23 -111h-105zM105 198l87 537h117l-141 -537h-63z" />
<glyph unicode="&#x22;" horiz-adv-x="271" d="M163 465l42 269h105l-72 -269h-75zM295 465l42 269h105l-72 -269h-75z" />
<glyph unicode="#" horiz-adv-x="602" d="M69 214l33 95h97l45 126h-96l33 95h96l72 205h96l-72 -205h127l72 205h96l-72 -205h94l-33 -95h-94l-45 -126h93l-33 -95h-93l-74 -214h-96l74 214h-127l-74 -214h-96l74 214h-97zM295 309h127l45 126h-127z" />
<glyph unicode="$" horiz-adv-x="338" d="M55 175l95 6q-7 -39 3 -65t41 -26q23 0 40 25.5t23 56t3 51.5q-5 21 -12 42l-9 21q-2 4 -5 10.5t-4 9.5t-8.5 16t-10 17.5t-9.5 17.5t-10 19.5l-9 19.5t-9.5 21t-7.5 20.5t-6.5 22t-5 21t-3.5 22.5q-5 51 20 115q37 92 124 113l13 64h60l-12 -61q97 -10 85 -138l-96 -12 q3 29 -4 45.5t-28 15.5q-10 0 -18.5 -5.5t-15 -13.5t-11.5 -19t-8 -21t-5 -20q-9 -37 10 -84q18 -46 39 -81q5 -8 12 -24t12 -24q28 -60 34 -110q3 -23 -4 -62q-15 -72 -54.5 -122.5t-103.5 -57.5l-23 -106h-60l23 108q-58 11 -79 61q-18 48 -6 111z" />
<glyph unicode="%" horiz-adv-x="489" d="M77 0l426 735h64l-423 -735h-67zM121 402q-6 18 0 43l45 213q9 42 49 72q16 13 47 13q44 0 58 -43q6 -16 1 -42l-45 -213q-11 -46 -48 -73q-16 -13 -47 -13q-47 0 -60 43zM181 445q-7 -27 12 -27q16 0 23 27l45 213q6 27 -11 27q-9 0 -16.5 -8.5t-7.5 -18.5zM324 34 q-6 18 0 43l45 213q9 43 49 73q16 13 47 13q44 0 58 -43q6 -17 1 -43l-45 -213q-11 -44 -48 -72q-16 -13 -47 -13q-46 0 -60 42zM384 77q-4 -9 -0.5 -18.5t12.5 -9.5q8 0 15 9.5t8 18.5l45 213q6 27 -11 27q-10 0 -17 -8.5t-7 -18.5z" />
<glyph unicode="&#x26;" horiz-adv-x="417" d="M56 154q13 57 44.5 104.5t84.5 108.5q-30 107 -7 216q22 88 83 135q31 25 83 25q86 0 98 -80q14 -92 -52 -181q-40 -54 -96 -111q22 -93 43 -139q9 17 45 103l82 -16q-5 -23 -26 -74q-31 -66 -56 -101q15 -21 23 -26q8 -9 14 -11l-24 -115q-6 0 -13 4q-43 19 -75 64 q-73 -68 -137 -68q-62 0 -95 47.5t-19 114.5zM161 156q-5 -30 4 -50t30 -20q28 0 70 42q-28 64 -55 144q-36 -42 -49 -116zM267 524q0 -21 7 -61q65 75 75 123q18 71 -23 71q-27 0 -43 -37q-18 -37 -16 -96z" />
<glyph unicode="'" horiz-adv-x="151" d="M142 466l42 269h105l-72 -269h-75z" />
<glyph unicode="(" horiz-adv-x="274" d="M83 138q-9 167 75 355q62 137 181 283l71 -41q-89 -96 -159 -249q-66 -141 -72.5 -298.5t52.5 -291.5l-87 -41q-54 126 -61 283z" />
<glyph unicode=")" horiz-adv-x="274" d="M-2 -104q87 97 158 249q38 80 56 170q32 150 2 303q-18 70 -38 117l87 41q27 -65 43 -138t18.5 -158t-16.5 -165q-17 -82 -60 -177q-64 -144 -180 -283z" />
<glyph unicode="*" horiz-adv-x="331" d="M165 611l37 72l72 -34l10 86h75l-28 -86l88 34l5 -72l-87 -17l42 -67l-73 -39l-22 74l-53 -74l-55 39l70 67z" />
<glyph unicode="+" horiz-adv-x="518" d="M103 317l18 84h181l36 169h84l-36 -169h181l-18 -84h-181l-36 -169h-84l36 169h-181z" />
<glyph unicode="," horiz-adv-x="151" d="M-5 -130l62 130h-35l23 111h105l-23 -111l-83 -130h-49z" />
<glyph unicode="-" horiz-adv-x="217" d="M83 222l20 95h145l-20 -95h-145z" />
<glyph unicode="." horiz-adv-x="157" d="M26 0l23 111h105l-23 -111h-105z" />
<glyph unicode="/" horiz-adv-x="352" d="M-11 -72l436 807h79l-434 -807h-81z" />
<glyph unicode="0" d="M65 151l92 433q11 44 34 79q28 37 60.5 58.5t82.5 21.5q46 0 74 -21.5t35 -58.5q10 -31 2 -79l-92 -433q-12 -45 -35 -80q-27 -35 -55 -54q-35 -25 -88 -25q-93 0 -109 79q-10 33 -1 80zM173 151q-6 -20 0 -37t24 -17q34 0 48 54l92 433q11 54 -25 54t-47 -54z" />
<glyph unicode="1" horiz-adv-x="232" d="M84 0l122 576h-72l15 69q51 10 102 52q19 19 32 38h65l-156 -735h-108z" />
<glyph unicode="2" horiz-adv-x="357" d="M27 0l22 107q52 60 123 155q51 69 93 145q47 86 62 146q8 41 7 60q-5 30 -24 30q-20 0 -35 -27q-13 -27 -20 -63l-11 -51h-108l11 51q19 87 61 138.5t123 51.5q114 0 114 -111q0 -32 -8 -72q-20 -95 -116 -247q-78 -120 -150 -206h171l-22 -107h-293z" />
<glyph unicode="3" horiz-adv-x="335" d="M58 106q0 41 13 106h106q-16 -72 -12 -99q1 -26 22 -26q24 0 37 31q14 41 24 95q4 20 7 30q10 46 -5 66.5t-59 22.5h-9l19 90q18 1 31 3.5t23 6.5t16.5 9.5t11.5 13.5q11 16 21 66q1 7 4.5 22t5.5 25t4 24t2 24q0 32 -23 32q-19 0 -30 -25t-28 -100h-106q5 28 11.5 50.5 t16.5 49.5t24 47t32.5 37.5t44 26.5t55.5 9q85 0 106 -72q12 -44 1 -86q-17 -78 -39 -123t-54 -71l-2 -1q22 -21 29 -57t3.5 -67t-13.5 -78q0 -1 -5 -21q-9 -39 -36 -84q-54 -91 -140 -91q-109 0 -109 114z" />
<glyph unicode="4" horiz-adv-x="334" d="M46 160l20 95l260 480h108l-102 -480h50l-20 -95h-50l-34 -160h-99l34 160h-167zM158 255h75l53 252h-6l-10 -22z" />
<glyph unicode="5" horiz-adv-x="344" d="M71 67q-12 48 10 147h108l-6 -29q-13 -57 -10 -77q3 -22 22 -22q24 0 42 51q7 22 12 47l34 164q12 54 -22 54q-16 0 -32 -18.5t-22 -35.5h-91l83 387h261l-23 -107h-168l-33 -153q28 17 45 22q12 5 23 3q71 0 88 -67q10 -42 -1 -85l-34 -164q-18 -79 -47 -121 q-50 -71 -135 -71q-89 0 -104 75z" />
<glyph unicode="6" horiz-adv-x="342" d="M64 151l88 418q22 78 43 107q50 67 135 67q76 0 100 -50.5t4 -123.5l-9 -46h-108q16 71 16 100q0 26 -23 26q-20 0 -30 -19q-13 -23 -20 -61l-27 -131q34 18 57 18q63 0 83 -46t4 -109l-31 -150q-13 -56 -41 -92q-50 -67 -134 -67q-86 0 -106 67q-13 39 -1 92zM165 119 q-3 -13 5 -23t21 -10q15 0 26 11.5t14 21.5l47 220q1 10 -5 21.5t-21 11.5q-29 0 -40 -30z" />
<glyph unicode="7" horiz-adv-x="288" d="M56 0l243 628h-162l23 107h272l-23 -108l-241 -627h-112z" />
<glyph unicode="8" horiz-adv-x="340" d="M54 106q0 39 5 51l18 86q20 91 87 145q-40 48 -21 135l13 62q0 2 1.5 6.5l4 12t4.5 14.5q18 61 79 103q31 22 82 22q84 0 105 -72q5 -19 5 -53q-1 -17 -5 -33l-13 -62q-18 -85 -79 -135q45 -51 25 -145l-18 -86q-2 -7 -5 -19q-9 -33 -33 -70q-21 -33 -57 -54.5t-84 -21.5 q-56 0 -85 31t-29 83zM166 152q-5 -24 -1 -42.5t24 -18.5q8 0 14 1.5t11 6.5l8 8t6.5 11.5t4.5 11t4 13t3 11.5q12 39 27 144q0 32 -27 32q-8 0 -14.5 -2t-11.5 -7.5t-8 -8.5t-6.5 -13t-4.5 -12.5t-4.5 -15.5t-3.5 -15q-16 -61 -21 -104zM246 499q-6 -23 -4.5 -43t20.5 -20 q12 0 21.5 10t13 19.5t8.5 27.5q1 3 1 4q5 24 12 50q9 46 11 76q0 25 -22 25q-11 0 -19.5 -8.5t-12 -18.5t-8.5 -28q-15 -49 -21 -94z" />
<glyph unicode="9" horiz-adv-x="342" d="M63 166l10 46h108q-17 -76 -17 -100q0 -26 23 -26q19 0 31 19q10 17 19 61l29 138q-34 -18 -58 -18q-44 0 -67.5 23.5t-24.5 58t5 73.5l31 143q9 52 40 93q51 66 134 66q85 0 106 -66q12 -36 2 -93l-89 -418q-19 -74 -43 -106q-50 -68 -135 -68q-76 0 -99.5 49.5 t-4.5 124.5zM221 403q-3 -9 4 -21t22 -12q29 0 40 30l45 216q1 6 -0.5 12.5t-8 13.5t-17.5 7q-15 0 -26 -11.5t-14 -21.5z" />
<glyph unicode=":" horiz-adv-x="177" d="M36 0l23 111h105l-23 -111h-105zM128 436l24 111h105l-24 -111h-105z" />
<glyph unicode=";" horiz-adv-x="177" d="M8 -130l63 130h-35l23 111h105l-23 -111l-83 -130h-50zM128 436l24 111h105l-24 -111h-105z" />
<glyph unicode="&#x3c;" horiz-adv-x="517" d="M103 317l16 78l495 232l-21 -97l-378 -174l304 -174l-20 -97z" />
<glyph unicode="=" horiz-adv-x="517" d="M85 233l18 84h445l-18 -84h-445zM125 422l18 84h445l-18 -84h-445z" />
<glyph unicode="&#x3e;" horiz-adv-x="517" d="M54 85l20 97l378 174l-304 174l21 97l395 -232l-16 -78z" />
<glyph unicode="?" horiz-adv-x="315" d="M97 0l23 111h105l-23 -111h-105zM142 615q15 26 40 53t64 49.5t76 21.5q75 -1 96 -56q13 -37 4 -84q-4 -19 -14.5 -39t-19.5 -32.5t-28 -35.5q-16 -22 -26 -32q-56 -71 -70 -137l-26 -125h-93l26 125q14 67 50 132q19 33 64 89q29 35 38 55q7 15 1 30.5t-24 15.5 q-23 0 -46 -24.5t-33 -46.5z" />
<glyph unicode="@" horiz-adv-x="426" d="M63 148l92 434q11 52 58 99q62 62 159 62t134 -62q26 -46 15 -99l-82 -387h-80l-4 27q-28 -33 -62 -33q-38 0 -50 23t-3 61l50 237q7 37 29.5 60t59.5 23q34 0 48 -33l4 22q7 24 -8 47q-21 30 -68 30q-45 0 -81 -30q-22 -22 -29 -47l-92 -434q-6 -25 9 -46q20 -29 68 -29 q56 0 89 31l65 -42q-68 -70 -171 -70q-96 0 -133 61q-28 44 -17 95zM320 280q-6 -26 17 -26q25 0 30 26l47 222q6 26 -18 26q-23 0 -29 -26z" />
<glyph unicode="A" horiz-adv-x="374" d="M10 0l267 735h132l-45 -735h-105l11 150h-104l-51 -150h-105zM206 264h74q2 23 9 112.5t10 138.5h-6l-7 -19z" />
<glyph unicode="B" horiz-adv-x="364" d="M40 0l156 735h95q101 0 139.5 -45t15.5 -150q-11 -55 -33 -87t-66 -65q33 -21 42 -74t-5 -106q-19 -87 -65 -142q-55 -62 -146 -66h-133zM170 107q33 0 51 11q37 24 53 102q10 45 6 69q-8 42 -41 44h-21zM239 432q43 0 66.5 22.5t34.5 75.5q8 38 3 58q-6 25 -20 32.5 t-42 7.5z" />
<glyph unicode="C" horiz-adv-x="346" d="M65 151l92 433q11 44 34 79q28 37 60.5 58.5t82.5 21.5q46 0 74 -21.5t35 -58.5q10 -31 2 -79l-22 -101h-101l22 101q5 24 -2 39t-28 15q-22 0 -39 -27q-7 -17 -10 -27l-92 -433q-4 -23 2 -38.5t24 -15.5q23 0 35 14t18 40l21 101h101l-21 -101q-12 -45 -35 -80 q-27 -35 -55 -54q-35 -25 -88 -25q-93 0 -109 79q-10 33 -1 80z" />
<glyph unicode="D" horiz-adv-x="372" d="M40 0l156 735h85q76 0 114.5 -17t52.5 -59q19 -65 -30 -292q-26 -121 -46 -186.5t-48 -104.5q-30 -41 -76.5 -58.5t-122.5 -17.5h-85zM170 108q31 0 48 7.5t30 32.5q20 39 41 140q11 51 34 161q22 103 18 139q-2 24 -15.5 31.5t-44.5 7.5z" />
<glyph unicode="E" horiz-adv-x="307" d="M40 0l156 735h247l-24 -111h-139l-41 -193h100l-25 -118h-100l-43 -202h139l-23 -111h-247z" />
<glyph unicode="F" horiz-adv-x="301" d="M40 0l156 735h257l-24 -111h-149l-41 -193h100l-23 -111h-100l-68 -320h-108z" />
<glyph unicode="G" horiz-adv-x="360" d="M60 71q-7 33 5 80l92 433q11 44 34 79q28 37 60.5 58.5t82.5 21.5q46 0 74 -21.5t35 -58.5q10 -31 2 -79l-24 -113h-108l24 113q11 54 -25 54t-47 -54l-94 -442q-6 -20 0 -37t24 -17q35 0 48 54l28 133h-43l19 91h151l-77 -366h-64l-6 35q-43 -43 -93 -43q-86 0 -98 79z " />
<glyph unicode="H" horiz-adv-x="380" d="M40 0l156 735h108l-65 -304h84l65 304h108l-156 -735h-108l68 320h-84l-68 -320h-108z" />
<glyph unicode="I" horiz-adv-x="188" d="M40 0l156 735h108l-156 -735h-108z" />
<glyph unicode="J" horiz-adv-x="207" d="M4 -7l23 106q31 -4 52 18q11 10 17 36l124 582h108l-128 -599q-14 -71 -63 -109.5t-133 -33.5z" />
<glyph unicode="K" horiz-adv-x="375" d="M40 0l156 735h108l-55 -257h4l8 12l142 245h105l-151 -242l8 -493h-105l-7 320v15h-3q-9 -15 -27 -43.5t-20 -31.5l-55 -260h-108z" />
<glyph unicode="L" horiz-adv-x="295" d="M40 0l156 735h108l-135 -635h143l-21 -100h-251z" />
<glyph unicode="M" horiz-adv-x="484" d="M40 0l156 735h132l-8 -336l-3 -39h2l13 39l136 336h132l-156 -735h-100l104 493h-6l-10 -31l-167 -462h-46q3 45 14 221.5t17 271.5h-6l-104 -493h-100z" />
<glyph unicode="N" horiz-adv-x="395" d="M40 0l156 735h96q2 -37 11 -186.5t14 -230.5h6l89 417h99l-156 -735h-96q-2 37 -11.5 186.5t-14.5 230.5h-6l-88 -417h-99z" />
<glyph unicode="O" d="M65 151l92 433q11 44 34 79q28 37 60.5 58.5t82.5 21.5q46 0 74 -21.5t35 -58.5q10 -31 2 -79l-92 -433q-12 -45 -35 -80q-27 -35 -55 -54q-35 -25 -88 -25q-93 0 -109 79q-10 33 -1 80zM173 151q-6 -20 0 -37t24 -17q34 0 48 54l92 433q11 54 -25 54t-47 -54z" />
<glyph unicode="P" horiz-adv-x="352" d="M40 0l156 735h108q90 0 128.5 -57.5t14.5 -162.5q-26 -115 -97 -173q-59 -48 -140 -48l-62 -294h-108zM233 404q51 0 71 23q19 19 33 84q16 55 5 84.5t-62 29.5z" />
<glyph unicode="Q" horiz-adv-x="356" d="M65 151l92 433q11 44 34 79q28 37 60.5 58.5t82.5 21.5q46 0 74 -21.5t35 -58.5q10 -31 2 -79l-92 -433q-8 -38 -41 -89q12 -21 37 -26l-19 -92q-77 0 -99 57q-29 -9 -56 -9q-93 0 -109 79q-10 33 -1 80zM173 151q-6 -20 0 -37t24 -17q34 0 48 54l92 433q11 54 -25 54 t-47 -54z" />
<glyph unicode="R" horiz-adv-x="361" d="M40 0l156 735h108q95 0 128 -52.5t11 -159.5q-28 -126 -96 -167l-6 -356h-108l9 310h-29l-65 -310h-108zM235 410q34 0 54 16q35 28 49 93q14 67 -9 94q-13 15 -48 15z" />
<glyph unicode="S" horiz-adv-x="343" d="M57 58q-16 44 4 148l108 10q-28 -125 25 -125q42 0 61 81q7 34 -11 81q-10 23 -32 71t-33 74q-24 54 -29 114q-3 22 4 59q14 69 60.5 120t116.5 52q89 1 111 -65q16 -53 -1 -130l-108 -10q22 106 -21 106q-37 -1 -52 -73q-7 -35 10 -79q15 -39 39 -88q26 -51 46 -112 q19 -63 7 -115q-42 -185 -189 -185q-95 0 -116 66z" />
<glyph unicode="T" horiz-adv-x="316" d="M104 0l132 624h-102l24 111h312l-24 -111h-102l-132 -624h-108z" />
<glyph unicode="U" horiz-adv-x="366" d="M71 151l124 584h108l-124 -584q-6 -20 0 -37t24 -17q35 0 48 54l124 584h108l-124 -584q-12 -45 -35 -80q-27 -35 -55 -54q-35 -25 -88 -25q-93 0 -109 79q-10 33 -1 80z" />
<glyph unicode="V" horiz-adv-x="350" d="M121 0l44 735h105q-3 -39 -15.5 -195t-19.5 -240h6q30 84 84 241t67 194h105l-268 -735h-108z" />
<glyph unicode="W" horiz-adv-x="496" d="M101 0l57 735h100l-38 -382l-4 -24h8l9 24l127 382h78q-4 -37 -17 -182.5t-21 -223.5h8q26 79 73 224.5t59 181.5h100l-255 -735h-84q2 31 11.5 173.5t15.5 217.5h-4q-28 -76 -78.5 -219.5t-60.5 -171.5h-84z" />
<glyph unicode="X" horiz-adv-x="360" d="M8 0l201 386l-43 349h106q2 -24 6 -62t7.5 -71.5t6.5 -61.5h4q15 28 33 61.5t38 71.5t33 62h106l-191 -349l37 -386h-106l-16 219v9h-4l-4 -9l-108 -219h-106z" />
<glyph unicode="Y" horiz-adv-x="342" d="M117 0l66 313l-20 422h106l4 -235l1 -7h2l5 7l104 235h106l-200 -422l-66 -313h-108z" />
<glyph unicode="Z" horiz-adv-x="306" d="M10 0l24 116l278 512h-145l23 107h262l-23 -107l-283 -521h172l-22 -107h-286z" />
<glyph unicode="[" horiz-adv-x="263" d="M17 -104l179 839h195l-21 -96h-99l-137 -647h99l-21 -96h-195z" />
<glyph unicode="\" horiz-adv-x="387" d="M179 826h79l106 -914h-82z" />
<glyph unicode="]" horiz-adv-x="263" d="M5 -104l21 96h99l137 647h-99l21 96h195l-179 -839h-195z" />
<glyph unicode="^" horiz-adv-x="538" d="M109 395l259 340h114l113 -340h-97l-89 265l-203 -265h-97z" />
<glyph unicode="_" horiz-adv-x="591" d="M2 -159l18 84h519l-18 -84h-519z" />
<glyph unicode="`" horiz-adv-x="500" d="M297 727h105l33 -90h-78z" />
<glyph unicode="a" horiz-adv-x="333" d="M50 127q17 81 71 135q34 34 92 62q48 22 55 33l13 60q7 15 3.5 32.5t-20.5 17.5q-10 0 -17 -5t-12 -15.5t-7.5 -18t-5.5 -23t-4 -19.5h-101l4 23q13 58 61 103q49 43 106 43q50 0 79.5 -36t17.5 -88l-71 -336q-11 -49 -13 -95h-99q-5 10 -4 23.5t4 20.5h-7 q-9 -12 -22 -23t-32.5 -20t-37.5 -9q-30 0 -45 25q-24 35 -8 110zM151 112q5 -21 19 -21q17 0 31.5 9.5t17.5 23.5l30 140q-76 -29 -96 -122q-4 -11 -2 -30z" />
<glyph unicode="b" horiz-adv-x="335" d="M40 0l156 735h101l-48 -224q36 28 60 37q13 7 29 7q37 0 53 -36q11 -33 3 -71l-74 -349q-9 -39 -33 -70q-33 -37 -68 -37q-32 0 -71 44l-7 -36h-101zM166 120q-2 -9 1 -17t8.5 -12t13 -4t15 4t12.5 12t7 17l65 307q3 14 -3 23.5t-17 9.5t-22.5 -10.5t-14.5 -22.5z" />
<glyph unicode="c" horiz-adv-x="315" d="M64 154l51 239q18 86 64 127q39 35 99 35q71 0 93 -37t4 -120l-9 -43h-101l14 66q5 25 1 34.5t-21 9.5q-28 0 -37 -44l-63 -295q-9 -44 19 -44q17 0 25 9.5t13 34.5l16 76h101l-11 -53q-17 -81 -52.5 -119t-110.5 -38q-58 0 -85 35q-28 42 -10 127z" />
<glyph unicode="d" horiz-adv-x="335" d="M57 99l74 349q10 44 34 71q29 36 66 36q32 0 71 -44l48 224h101l-156 -735h-101l7 36q-32 -25 -59 -37q-14 -7 -30 -7q-39 0 -51 37q-13 29 -4 70zM162 120q-2 -9 0 -17t7.5 -12t12.5 -4q6 0 12 2.5t11 7t9 10.5t5 13l65 307q3 12 -4.5 22.5t-18.5 10.5t-21 -9.5 t-13 -23.5z" />
<glyph unicode="e" horiz-adv-x="322" d="M60 136l59 275q22 79 82 122q28 22 79 22q82 0 99 -71q8 -33 1 -70l-33 -159h-167l-26 -119q-9 -55 26 -55q24 0 37 27q7 9 10 28l13 60h94l-13 -63q-23 -80 -81 -119q-31 -22 -80 -22q-83 0 -99 72q-7 33 -1 72zM196 334h73l17 77q11 56 -24 56t-49 -56z" />
<glyph unicode="f" horiz-adv-x="232" d="M61 0l96 456h-51l20 91h51l3 15q20 82 38 110q42 67 116 67q25 0 34 -4l11 -3l-18 -87q-1 1 -4 1q-4 0 -13 1.5t-13 1.5q-13 0 -22 -10t-12.5 -21.5t-8.5 -30.5t-7 -26l-3 -14h51l-20 -91h-51l-96 -456h-101z" />
<glyph unicode="g" horiz-adv-x="342" d="M-13 -90q10 46 96 83q-59 17 -45 73q2 12 11 25t21 23.5t24.5 19.5t23.5 14q-32 24 -34 74q-2 28 1 45l32 149q22 76 80 117q28 22 77 22q67 0 91 -50q18 16 46 33t47 17l-19 -90q-39 0 -61 -12v-13q-2 -9 -1 -11v-5q-1 -2 -1 -5l-33 -155q-13 -47 -40 -78.5t-56.5 -44 t-62.5 -12.5h-9q-8 0 -10 1q-16 -12 -19 -25q1 -5 0 -8t3.5 -6t6.5 -5t8.5 -4t10 -3.5t11 -3t11 -2l10.5 -1.5t9 -1q138 -18 113 -127q-15 -68 -69.5 -104t-133.5 -36q-74 2 -112.5 24t-26.5 82zM88 -73q-3 -17 11 -27.5t47 -10.5q28 0 54.5 9.5t30.5 27.5q2 11 -0.5 18 t-11 11t-15 6t-19.5 4l-50 10q-42 -22 -47 -48zM183 262q-6 -18 -1.5 -33.5t20.5 -15.5q19 0 33 24q6 16 8 25l32 150q6 17 1 33.5t-21 16.5q-17 0 -27.5 -15t-12.5 -35z" />
<glyph unicode="h" horiz-adv-x="337" d="M40 0l156 735h101l-50 -234q6 3 14 11q1 1 16 12t22 15.5t19.5 10t21.5 5.5q37 0 51 -36q11 -33 3 -71l-95 -448h-101l92 433q5 24 -19 24q-22 0 -39 -26l-91 -431h-101z" />
<glyph unicode="i" horiz-adv-x="181" d="M40 0l116 547h101l-116 -547h-101zM174 634l22 101h101l-22 -101h-101z" />
<glyph unicode="j" horiz-adv-x="178" d="M-60 -182l20 93q1 -1 4 -1q4 0 11.5 -1.5t11.5 -1.5q10 0 18 5.5t13.5 20.5t7 20t6.5 24q0 4 2 10l119 560h101l-119 -561q-19 -78 -37 -108q-41 -66 -115 -66q-34 0 -39 5q-3 0 -4 1zM171 634l22 101h101l-22 -101h-101z" />
<glyph unicode="k" horiz-adv-x="313" d="M40 0l156 735h101l-74 -349h5l9 18l80 143h91l-111 -178l14 -369h-97l-4 221v8h-5q-4 -6 -8 -12.5t-8.5 -14.5t-7.5 -13l-40 -189h-101z" />
<glyph unicode="l" horiz-adv-x="181" d="M40 0l156 735h101l-156 -735h-101z" />
<glyph unicode="m" horiz-adv-x="499" d="M40 0l116 547h101l-10 -46q6 3 14 11q34 25 54 36q13 7 27 7q46 0 56 -61q3 2 9 7.5t10 7.5q23 20 57 38q18 8 28 8q37 0 51 -36q11 -33 3 -71l-95 -448h-95l92 433q5 24 -22 24q-23 0 -44 -26l-91 -431h-95l92 433q5 24 -22 24q-23 0 -44 -26l-91 -431h-101z" />
<glyph unicode="n" horiz-adv-x="337" d="M40 0l116 547h101l-10 -46q6 3 14 11q1 1 16 12t22 15.5t19.5 10t21.5 5.5q37 0 51 -36q11 -33 3 -71l-95 -448h-101l92 433q5 24 -19 24q-22 0 -39 -26l-91 -431h-101z" />
<glyph unicode="o" horiz-adv-x="321" d="M59 136l59 275q23 81 80 122q28 22 79 22q82 0 99 -71q8 -33 1 -70l-59 -281q-23 -80 -80 -119q-31 -22 -80 -22q-60 0 -84.5 39.5t-14.5 104.5zM154 136q-14 -55 23 -55q24 0 37 27q8 12 9 28l59 275q13 56 -23 56q-24 0 -37 -28q-8 -12 -9 -28z" />
<glyph unicode="p" horiz-adv-x="335" d="M0 -188l156 735h101l-8 -36q36 28 60 37q13 7 29 7q37 0 53 -36q11 -33 3 -71l-74 -349q-9 -39 -33 -70q-33 -37 -68 -37q-32 0 -71 44l-47 -224h-101zM166 120q-2 -12 5 -22.5t18 -10.5q7 0 14.5 4t12.5 12t7 17l65 307q3 14 -3 23.5t-17 9.5q-12 0 -23 -9.5t-14 -23.5z " />
<glyph unicode="q" horiz-adv-x="335" d="M57 99l74 349q10 44 34 71q29 36 66 36q32 0 71 -44l8 36h101l-156 -735h-101l47 224q-32 -25 -59 -37q-14 -7 -30 -7q-39 0 -51 37q-13 29 -4 70zM162 120q-2 -9 0 -17t7.5 -12t12.5 -4q11 0 23 10.5t14 22.5l65 307q2 9 -1 17t-8.5 12t-13.5 4q-11 0 -21 -9.5 t-13 -23.5z" />
<glyph unicode="r" horiz-adv-x="246" d="M40 0l116 547h101l-13 -61q11 27 43.5 48t71.5 21l-23 -112q-11 4 -27 4q-33 0 -55 -17q-25 -18 -33 -50l-80 -380h-101z" />
<glyph unicode="s" horiz-adv-x="308" d="M51 159h94q-17 -83 30 -83q35 0 49 66q5 22 -7 44.5t-36 52.5q-2 2 -6 7q-9 11 -14 17.5t-13.5 18.5t-12.5 20.5t-9.5 21.5t-7 24.5t-1 27t3.5 31.5q13 61 52 104t102 44q72 1 93 -38t5 -110h-94q15 64 -19 64q-30 0 -45 -64q-5 -22 11 -51q10 -17 32 -45t36 -47.5 t22.5 -52t1.5 -69.5q-14 -62 -55.5 -106t-105.5 -44q-71 0 -97 47.5t-9 119.5z" />
<glyph unicode="t" horiz-adv-x="245" d="M98 176l59 280h-51l20 91h51l28 135h101l-28 -135h69l-20 -91h-69l-57 -272q-9 -38 -9 -57q2 -33 21 -33q6 0 17 1.5t15 1.5t6 1l-21 -99q-21 -7 -55 -7q-31 0 -51 12t-28 29t-9 44t2 48.5t9 50.5z" />
<glyph unicode="u" horiz-adv-x="337" d="M59 99l95 448h101l-92 -433q-6 -24 19 -24q17 0 38 26l92 431h101l-116 -547h-101l9 46q-3 -2 -13 -10q-32 -25 -51 -36q-19 -8 -29 -8q-38 0 -50 37q-12 30 -3 70z" />
<glyph unicode="v" horiz-adv-x="294" d="M97 0l27 547h98q-3 -30 -17 -156.5t-21 -195.5h8q22 69 62.5 197t49.5 155h98l-205 -547h-100z" />
<glyph unicode="w" horiz-adv-x="442" d="M91 0l35 547h92q-3 -27 -14.5 -141t-17.5 -176h6l12 31l103 286h60q-2 -27 -9.5 -141t-11.5 -176h6l11 31l93 286h92l-197 -547h-84q1 24 7.5 129.5t10.5 162.5h-4l-12 -31l-94 -261h-84z" />
<glyph unicode="x" horiz-adv-x="302" d="M8 0l153 282l-29 265h95l9 -128l-1 -15h2q13 28 39 80t31 63h95l-143 -265l35 -282h-98l-12 138v15h-2l-6 -15l-70 -138h-98z" />
<glyph unicode="y" horiz-adv-x="310" d="M-25 -194l19 90q1 -1 6 -1q1 -2 18 -0.5t29 9.5q44 27 54 80l27 563h99q-3 -32 -15.5 -163.5t-20.5 -200.5h4l8 28l112 336h99l-222 -588q-26 -68 -67 -106q-52 -49 -106 -49h-12q-8 0 -32 2z" />
<glyph unicode="z" horiz-adv-x="260" d="M6 0l17 82l218 373h-117l20 92h224l-18 -82l-218 -373h139l-19 -92h-246z" />
<glyph unicode="{" horiz-adv-x="336" d="M76 221l17 80q56 0 79 68l41 194q22 106 75.5 144t176.5 36l-17 -84q-68 0 -97 -19.5t-42 -76.5l-41 -194q-14 -70 -85 -108q27 -19 37 -44.5t2 -63.5l-41 -194q-13 -59 9.5 -77.5t87.5 -18.5l-17 -84q-40 -1 -67.5 1.5t-51.5 9.5t-37.5 20t-21.5 33t-7 48.5t9 67.5 l41 194q6 15 -4 38q-13 29 -46 30z" />
<glyph unicode="|" horiz-adv-x="174" d="M-13 -250l228 1076h94l-229 -1076h-93z" />
<glyph unicode="}" horiz-adv-x="336" d="M-18 -221l17 84q68 0 96.5 20t41.5 76l41 194q14 68 85 108q-54 37 -39 108l41 194q13 59 -9.5 77.5t-87.5 18.5l17 84q40 1 68 -1.5t52 -9.5t37 -19.5t21 -32.5t7 -49t-9 -68l-41 -194q-7 -16 4 -39q9 -29 45 -29l-17 -80q-35 -1 -58 -30q-9 -12 -20 -38l-41 -194 q-22 -106 -75 -144t-176 -36z" />
<glyph unicode="~" horiz-adv-x="625" d="M195 660q44 79 116 127q38 23 80 23q36 0 72 -16q6 -3 52 -34q42 -35 78 -35q24 0 47.5 16t36 32t28.5 41l60 -28q-53 -87 -116 -128q-35 -23 -76 -23q-26 0 -50 8.5t-35.5 15.5t-36.5 25q-45 36 -79 36q-45 0 -85 -44q-20 -22 -32 -44z" />
<glyph horiz-adv-x="305" d="M131 494l23 111l83 130h50l-63 -130h35l-23 -111h-105zM279 494l23 111l83 130h50l-63 -130h35l-23 -111h-105z" />
<glyph horiz-adv-x="305" d="M131 494l62 130h-35l24 111h105l-24 -111l-82 -130h-50zM279 494l62 130h-35l24 111h105l-24 -111l-82 -130h-50z" />
<glyph unicode="&#xa1;" horiz-adv-x="189" d="M-3 -188l140 537h63l-87 -537h-116zM134 436l24 111h105l-24 -111h-105z" />
<glyph unicode="&#xa2;" horiz-adv-x="311" d="M84 248l51 239q31 145 136 160l25 118h60l-25 -119q46 -8 60.5 -43t-0.5 -111l-9 -43h-92l14 66q9 44 -27 44q-35 0 -44 -44l-63 -295q-9 -44 26 -44q36 0 45 44l16 76h92l-11 -53q-17 -76 -47 -112t-79 -43l-31 -148h-60l31 147q-99 15 -68 161z" />
<glyph unicode="&#xa3;" horiz-adv-x="399" d="M8 31q30 47 76 82q23 17 49 22q25 41 39 97q8 38 3 85h-92l14 67h72l-1 10q0 4 -1.5 18.5t-1.5 19.5t-1 18t-1.5 19t-1 17t-0.5 17t0.5 15.5t1 16t1.5 13.5t2 13q14 73 61.5 127t120.5 55q89 1 118 -60q22 -51 3 -136h-104q20 96 -36 96q-21 0 -40 -27q-17 -24 -23 -65.5 t-5 -72.5t6 -82v-12h103l-14 -67h-85q2 -46 -3.5 -73t-20.5 -61q-15 -32 -33 -58q18 -9 30 -18q11 -10 29 -11q14 1 31 22q15 18 29 71l89 -11q-25 -90 -68.5 -138t-93.5 -48q-4 0 -9 0.5t-8.5 1.5t-8.5 3l-7.5 3t-8 4t-7.5 4t-8.5 4.5t-7.5 4.5q-42 25 -58 25 q-20 0 -37.5 -15.5t-28.5 -34.5z" />
<glyph unicode="&#xa5;" horiz-adv-x="352" d="M71 166l14 67h86l14 67h-86l15 67h72l-18 368h106l4 -235l1 -7h2l5 7l104 235h106l-174 -368h72l-15 -67h-86l-14 -67h86l-14 -67h-86l-35 -166h-108l35 166h-86z" />
<glyph unicode="&#xa8;" horiz-adv-x="500" d="M268 637l21 98h93l-21 -98h-93zM409 637l21 98h93l-21 -98h-93z" />
<glyph unicode="&#xa9;" horiz-adv-x="803" d="M104 367q35 159 166 266q136 110 288 110q157 0 243 -110q89 -110 54 -266q-35 -158 -167 -265q-134 -110 -289 -110q-153 0 -242 110q-87 112 -53 265zM162 367q-19 -87 9.5 -160.5t92.5 -115t147 -41.5q68 0 134 27t116.5 71.5t86.5 101.5t49 117q28 132 -46 225 q-71 93 -205 93q-136 0 -246.5 -96t-137.5 -222zM356 238l55 259q11 50 56 81q23 15 59 15q55 0 69 -48q6 -24 2 -48l-13 -61h-67l13 61q4 13 -0.5 22t-16.5 9t-20.5 -9.5t-10.5 -21.5l-55 -259q-5 -31 17 -31q9 0 16 4.5t11 11.5t4 15l13 61h67l-13 -61q-10 -33 -28 -55 t-39 -31.5t-45 -9.5q-59 0 -73 48q-7 22 -1 48z" />
<glyph unicode="&#xad;" horiz-adv-x="217" d="M83 222l20 95h145l-20 -95h-145z" />
<glyph unicode="&#xae;" horiz-adv-x="803" d="M104 367q35 159 166 266q136 110 288 110q157 0 243 -110q89 -110 54 -266q-35 -158 -167 -265q-134 -110 -289 -110q-153 0 -242 110q-87 112 -53 265zM162 367q-19 -87 9.5 -160.5t92.5 -115t147 -41.5q68 0 134 27t116.5 71.5t86.5 101.5t49 117q28 132 -46 225 q-71 93 -205 93q-136 0 -246.5 -96t-137.5 -222zM337 153l91 429h96q113 0 86 -126q-8 -38 -21 -61.5t-45 -46.5l11 -195h-74l-8 178h-27l-38 -178h-71zM459 393h22q28 0 41.5 16.5t19.5 45.5q8 26 1 45t-35 19h-22z" />
<glyph unicode="&#xaf;" horiz-adv-x="500" d="M289 642l17 79h194l-17 -79h-194z" />
<glyph unicode="&#xb4;" horiz-adv-x="500" d="M335 637l71 90h105l-98 -90h-78z" />
<glyph unicode="&#xb7;" horiz-adv-x="105" d="M67 317l23 111h105l-23 -111h-105z" />
<glyph unicode="&#xb8;" horiz-adv-x="500" d="M179 -188l33 65h-31l15 69h84l-15 -69l-35 -65h-51z" />
<glyph unicode="&#xbf;" horiz-adv-x="315" d="M5 -89q0 54 27 93q24 34 65 84q54 66 69 136l27 125h93l-27 -125q-14 -67 -50 -132q-19 -33 -64 -89q-29 -35 -38 -55q-2 -6 -2 -12q0 -34 26 -34q36 0 79 71l78 -41q-34 -50 -62 -74q-57 -51 -117 -50q-75 1 -95 57q-9 23 -9 46zM205 436l24 111h105l-24 -111h-105z" />
<glyph unicode="&#xc0;" horiz-adv-x="374" d="M10 0l267 735h132l-45 -735h-105l11 150h-104l-51 -150h-105zM206 264h74q2 23 9 112.5t10 138.5h-6l-7 -19zM258 890h105l33 -90h-78z" />
<glyph unicode="&#xc1;" horiz-adv-x="374" d="M10 0l267 735h132l-45 -735h-105l11 150h-104l-51 -150h-105zM206 264h74q2 23 9 112.5t10 138.5h-6l-7 -19zM313 800l71 90h105l-98 -90h-78z" />
<glyph unicode="&#xc2;" horiz-adv-x="374" d="M10 0l267 735h132l-45 -735h-105l11 150h-104l-51 -150h-105zM206 264h74q2 23 9 112.5t10 138.5h-6l-7 -19zM235 800l88 90h107l50 -90h-92l-24 35l-37 -35h-92z" />
<glyph unicode="&#xc3;" horiz-adv-x="374" d="M10 0l267 735h132l-45 -735h-105l11 150h-104l-51 -150h-105zM206 264h74q2 23 9 112.5t10 138.5h-6l-7 -19zM259 797l16 74q30 19 57 19q16 0 44 -9t40 -10q8 0 16.5 2t14 4t13 5l12.5 5l-16 -74q-24 -19 -57 -19q-17 0 -42.5 9t-41.5 10q-11 0 -20 -2.5t-20 -7 t-16 -6.5z" />
<glyph unicode="&#xc4;" horiz-adv-x="374" d="M10 0l267 735h132l-45 -735h-105l11 150h-104l-51 -150h-105zM206 264h74q2 23 9 112.5t10 138.5h-6l-7 -19zM240 800l20 98h93l-20 -98h-93zM381 800l20 98h93l-20 -98h-93z" />
<glyph unicode="&#xc5;" horiz-adv-x="374" d="M10 0l267 735h132l-45 -735h-105l11 150h-104l-51 -150h-105zM206 264h74q2 23 9 112.5t10 138.5h-6l-7 -19zM295 860q7 30 33 50t57 20t48.5 -20t10.5 -50q-6 -30 -32 -50t-57 -20t-48.5 20t-11.5 50zM333 860q-3 -14 6.5 -24.5t23.5 -10.5t27.5 10.5t16.5 24.5t-6 24.5 t-23 10.5t-28 -10.5t-17 -24.5z" />
<glyph unicode="&#xc6;" horiz-adv-x="537" d="M8 0l361 735h304l-24 -111h-139l-41 -193h100l-25 -118h-100l-43 -202h139l-23 -111h-247l31 150h-111l-75 -150h-107zM248 264h78l53 251h-5z" />
<glyph unicode="&#xc7;" horiz-adv-x="346" d="M65 151l92 433q11 44 34 79q28 37 60.5 58.5t82.5 21.5q46 0 74 -21.5t35 -58.5q10 -31 2 -79l-22 -101h-101l22 101q5 24 -2 39t-28 15q-22 0 -39 -27q-7 -17 -10 -27l-92 -433q-4 -23 2 -38.5t24 -15.5q23 0 35 14t18 40l21 101h101l-21 -101q-12 -45 -35 -80 q-27 -35 -55 -54q-35 -25 -88 -25q-93 0 -109 79q-10 33 -1 80zM102 -188l33 65h-31l15 69h84l-15 -69l-35 -65h-51z" />
<glyph unicode="&#xc8;" horiz-adv-x="307" d="M40 0l156 735h247l-24 -111h-139l-41 -193h100l-25 -118h-100l-43 -202h139l-23 -111h-247zM243 890h105l33 -90h-78z" />
<glyph unicode="&#xc9;" horiz-adv-x="307" d="M40 0l156 735h247l-24 -111h-139l-41 -193h100l-25 -118h-100l-43 -202h139l-23 -111h-247zM285 800l71 90h105l-98 -90h-78z" />
<glyph unicode="&#xca;" horiz-adv-x="307" d="M40 0l156 735h247l-24 -111h-139l-41 -193h100l-25 -118h-100l-43 -202h139l-23 -111h-247zM211 800l88 90h107l50 -90h-92l-24 35l-37 -35h-92z" />
<glyph unicode="&#xcb;" horiz-adv-x="307" d="M40 0l156 735h247l-24 -111h-139l-41 -193h100l-25 -118h-100l-43 -202h139l-23 -111h-247zM216 800l20 98h93l-20 -98h-93zM357 800l20 98h93l-20 -98h-93z" />
<glyph unicode="&#xcc;" horiz-adv-x="196" d="M48 0l156 735h108l-156 -735h-108zM186 890h105l33 -90h-78z" />
<glyph unicode="&#xcd;" horiz-adv-x="196" d="M40 0l156 735h108l-156 -735h-108zM212 800l71 90h105l-98 -90h-78z" />
<glyph unicode="&#xce;" horiz-adv-x="181" d="M36 0l156 735h108l-156 -735h-108zM138 800l88 90h107l50 -90h-92l-24 35l-37 -35h-92z" />
<glyph unicode="&#xcf;" horiz-adv-x="182" d="M37 0l156 735h108l-156 -735h-108zM144 800l20 98h93l-20 -98h-93zM285 800l20 98h93l-20 -98h-93z" />
<glyph unicode="&#xd0;" horiz-adv-x="372" d="M40 0l68 320h-30l23 111h30l65 304h85q76 0 114.5 -17t52.5 -59q19 -65 -30 -292q-26 -121 -46 -186.5t-48 -104.5q-30 -41 -76.5 -58.5t-122.5 -17.5h-85zM170 108q31 0 48 7.5t30 32.5q20 39 41 140q11 51 34 161q22 103 18 139q-2 24 -15.5 31.5t-44.5 7.5l-42 -196 h41l-23 -111h-41z" />
<glyph unicode="&#xd1;" horiz-adv-x="395" d="M40 0l156 735h96q2 -37 11 -186.5t14 -230.5h6l89 417h99l-156 -735h-96q-2 37 -11.5 186.5t-14.5 230.5h-6l-88 -417h-99zM270 797l16 74q30 19 57 19q16 0 44 -9t40 -10q8 0 16.5 2t14 4t13 5l12.5 5l-16 -74q-24 -19 -57 -19q-17 0 -42.5 9t-41.5 10q-11 0 -20 -2.5 t-20 -7t-16 -6.5z" />
<glyph unicode="&#xd2;" d="M65 151l92 433q11 44 34 79q28 37 60.5 58.5t82.5 21.5q46 0 74 -21.5t35 -58.5q10 -31 2 -79l-92 -433q-12 -45 -35 -80q-27 -35 -55 -54q-35 -25 -88 -25q-93 0 -109 79q-10 33 -1 80zM173 151q-6 -20 0 -37t24 -17q34 0 48 54l92 433q11 54 -25 54t-47 -54zM248 890 h105l33 -90h-78z" />
<glyph unicode="&#xd3;" d="M65 151l92 433q11 44 34 79q28 37 60.5 58.5t82.5 21.5q46 0 74 -21.5t35 -58.5q10 -31 2 -79l-92 -433q-12 -45 -35 -80q-27 -35 -55 -54q-35 -25 -88 -25q-93 0 -109 79q-10 33 -1 80zM173 151q-6 -20 0 -37t24 -17q34 0 48 54l92 433q11 54 -25 54t-47 -54zM309 800 l71 90h105l-98 -90h-78z" />
<glyph unicode="&#xd4;" d="M65 151l92 433q11 44 34 79q28 37 60.5 58.5t82.5 21.5q46 0 74 -21.5t35 -58.5q10 -31 2 -79l-92 -433q-12 -45 -35 -80q-27 -35 -55 -54q-35 -25 -88 -25q-93 0 -109 79q-10 33 -1 80zM173 151q-6 -20 0 -37t24 -17q34 0 48 54l92 433q11 54 -25 54t-47 -54zM225 800 l88 90h107l50 -90h-92l-24 35l-37 -35h-92z" />
<glyph unicode="&#xd5;" d="M65 151l92 433q11 44 34 79q28 37 60.5 58.5t82.5 21.5q46 0 74 -21.5t35 -58.5q10 -31 2 -79l-92 -433q-12 -45 -35 -80q-27 -35 -55 -54q-35 -25 -88 -25q-93 0 -109 79q-10 33 -1 80zM173 151q-6 -20 0 -37t24 -17q34 0 48 54l92 433q11 54 -25 54t-47 -54zM249 797 l16 74q30 19 57 19q16 0 44 -9t40 -10q11 0 20 2.5t20.5 7.5t15.5 6l-16 -74q-24 -19 -57 -19q-17 0 -42.5 9t-41.5 10q-11 0 -20 -2.5t-20 -7t-16 -6.5z" />
<glyph unicode="&#xd6;" d="M65 151l92 433q11 44 34 79q28 37 60.5 58.5t82.5 21.5q46 0 74 -21.5t35 -58.5q10 -31 2 -79l-92 -433q-12 -45 -35 -80q-27 -35 -55 -54q-35 -25 -88 -25q-93 0 -109 79q-10 33 -1 80zM173 151q-6 -20 0 -37t24 -17q34 0 48 54l92 433q11 54 -25 54t-47 -54zM230 800 l20 98h93l-20 -98h-93zM371 800l20 98h93l-20 -98h-93z" />
<glyph unicode="&#xd8;" d="M26 -10l40 77q-11 31 -3 71q0 3 2 13l92 433q11 44 34 79q28 37 60.5 58.5t82.5 21.5q46 0 73 -21l12 23h60l-38 -73q7 -21 7 -60q-1 -5 -1 -14q0 -4 -2 -14l-92 -433q-12 -45 -35 -80q-27 -35 -55 -54q-35 -25 -88 -25q-47 0 -74 21l-12 -23h-63zM173 151q-6 -20 0 -37 t24 -17q35 0 48 54l50 238zM216 355l122 234q2 9 0 29q-5 20 -26 20q-36 0 -47 -54z" />
<glyph unicode="&#xd9;" horiz-adv-x="366" d="M71 151l124 584h108l-124 -584q-6 -20 0 -37t24 -17q35 0 48 54l124 584h108l-124 -584q-12 -45 -35 -80q-27 -35 -55 -54q-35 -25 -88 -25q-93 0 -109 79q-10 33 -1 80zM260 890h105l33 -90h-78z" />
<glyph unicode="&#xda;" horiz-adv-x="366" d="M71 151l124 584h108l-124 -584q-6 -20 0 -37t24 -17q35 0 48 54l124 584h108l-124 -584q-12 -45 -35 -80q-27 -35 -55 -54q-35 -25 -88 -25q-93 0 -109 79q-10 33 -1 80zM320 800l71 90h105l-98 -90h-78z" />
<glyph unicode="&#xdb;" horiz-adv-x="366" d="M71 151l124 584h108l-124 -584q-6 -20 0 -37t24 -17q35 0 48 54l124 584h108l-124 -584q-12 -45 -35 -80q-27 -35 -55 -54q-35 -25 -88 -25q-93 0 -109 79q-10 33 -1 80zM231 800l88 90h107l50 -90h-92l-24 35l-37 -35h-92z" />
<glyph unicode="&#xdc;" horiz-adv-x="366" d="M71 151l124 584h108l-124 -584q-6 -20 0 -37t24 -17q35 0 48 54l124 584h108l-124 -584q-12 -45 -35 -80q-27 -35 -55 -54q-35 -25 -88 -25q-93 0 -109 79q-10 33 -1 80zM236 800l20 98h93l-20 -98h-93zM377 800l20 98h93l-20 -98h-93z" />
<glyph unicode="&#xdd;" horiz-adv-x="344" d="M118 0l66 313l-20 422h106l4 -235l1 -7h2l5 7l104 235h106l-200 -422l-66 -313h-108zM294 800l71 90h105l-98 -90h-78z" />
<glyph unicode="&#xde;" d="M40 0l156 735h107l-25 -118h1q90 0 128.5 -57.5t14.5 -162.5q-26 -115 -97 -173q-59 -48 -140 -48l-37 -176h-108zM208 286q51 0 71 23q19 19 33 84q16 55 5 84.5t-62 29.5z" />
<glyph unicode="&#xdf;" horiz-adv-x="358" d="M32 0l128 603q13 61 56 100.5t110 39.5q62 0 89.5 -37.5t13.5 -101.5q-12 -53 -61 -85q31 -20 38 -73q8 -61 -15 -165q-35 -170 -91 -232q-45 -49 -131 -49l19 94q36 0 54 33q24 40 48 154q16 76 19 103q4 36 1 59q-5 35 -40 35l15 69q18 0 33 15.5t21 41.5q5 21 -3 35 t-29 14q-18 0 -30 -14t-16 -36l-128 -603h-101z" />
<glyph unicode="&#xe0;" horiz-adv-x="333" d="M50 127q17 81 71 135q34 34 92 62q48 22 55 33l13 60q7 15 3.5 32.5t-20.5 17.5q-10 0 -17 -5t-12 -15.5t-7.5 -18t-5.5 -23t-4 -19.5h-101l4 23q13 58 61 103q49 43 106 43q50 0 79.5 -36t17.5 -88l-71 -336q-11 -49 -13 -95h-99q-5 10 -4 23.5t4 20.5h-7 q-9 -12 -22 -23t-32.5 -20t-37.5 -9q-30 0 -45 25q-24 35 -8 110zM151 112q5 -21 19 -21q17 0 31.5 9.5t17.5 23.5l30 140q-76 -29 -96 -122q-4 -11 -2 -30zM204 727h105l33 -90h-78z" />
<glyph unicode="&#xe1;" horiz-adv-x="333" d="M50 127q17 81 71 135q34 34 92 62q48 22 55 33l13 60q7 15 3.5 32.5t-20.5 17.5q-10 0 -17 -5t-12 -15.5t-7.5 -18t-5.5 -23t-4 -19.5h-101l4 23q13 58 61 103q49 43 106 43q50 0 79.5 -36t17.5 -88l-71 -336q-11 -49 -13 -95h-99q-5 10 -4 23.5t4 20.5h-7 q-9 -12 -22 -23t-32.5 -20t-37.5 -9q-30 0 -45 25q-24 35 -8 110zM151 112q5 -21 19 -21q17 0 31.5 9.5t17.5 23.5l30 140q-76 -29 -96 -122q-4 -11 -2 -30zM264 637l71 90h105l-98 -90h-78z" />
<glyph unicode="&#xe2;" horiz-adv-x="333" d="M50 127q17 81 71 135q34 34 92 62q48 22 55 33l13 60q7 15 3.5 32.5t-20.5 17.5q-10 0 -17 -5t-12 -15.5t-7.5 -18t-5.5 -23t-4 -19.5h-101l4 23q13 58 61 103q49 43 106 43q50 0 79.5 -36t17.5 -88l-71 -336q-11 -49 -13 -95h-99q-5 10 -4 23.5t4 20.5h-7 q-9 -12 -22 -23t-32.5 -20t-37.5 -9q-30 0 -45 25q-24 35 -8 110zM151 112q5 -21 19 -21q17 0 31.5 9.5t17.5 23.5l30 140q-76 -29 -96 -122q-4 -11 -2 -30zM179 637l88 90h107l50 -90h-92l-24 35l-37 -35h-92z" />
<glyph unicode="&#xe3;" horiz-adv-x="333" d="M50 127q17 81 71 135q34 34 92 62q48 22 55 33l13 60q7 15 3.5 32.5t-20.5 17.5q-10 0 -17 -5t-12 -15.5t-7.5 -18t-5.5 -23t-4 -19.5h-101l4 23q13 58 61 103q49 43 106 43q50 0 79.5 -36t17.5 -88l-71 -336q-11 -49 -13 -95h-99q-5 10 -4 23.5t4 20.5h-7 q-9 -12 -22 -23t-32.5 -20t-37.5 -9q-30 0 -45 25q-24 35 -8 110zM151 112q5 -21 19 -21q17 0 31.5 9.5t17.5 23.5l30 140q-76 -29 -96 -122q-4 -11 -2 -30zM205 637l16 74q30 19 57 19q16 0 44 -9t40 -10q11 0 20 2.5t20.5 7.5t15.5 6l-16 -74q-24 -19 -57 -19 q-17 0 -42.5 9t-41.5 10q-11 0 -20 -2.5t-20 -7t-16 -6.5z" />
<glyph unicode="&#xe4;" horiz-adv-x="333" d="M50 127q17 81 71 135q34 34 92 62q48 22 55 33l13 60q7 15 3.5 32.5t-20.5 17.5q-10 0 -17 -5t-12 -15.5t-7.5 -18t-5.5 -23t-4 -19.5h-101l4 23q13 58 61 103q49 43 106 43q50 0 79.5 -36t17.5 -88l-71 -336q-11 -49 -13 -95h-99q-5 10 -4 23.5t4 20.5h-7 q-9 -12 -22 -23t-32.5 -20t-37.5 -9q-30 0 -45 25q-24 35 -8 110zM151 112q5 -21 19 -21q17 0 31.5 9.5t17.5 23.5l30 140q-76 -29 -96 -122q-4 -11 -2 -30zM185 637l21 98h93l-21 -98h-93zM326 637l21 98h93l-21 -98h-93z" />
<glyph unicode="&#xe5;" horiz-adv-x="333" d="M50 127q17 81 71 135q34 34 92 62q48 22 55 33l13 60q7 15 3.5 32.5t-20.5 17.5q-10 0 -17 -5t-12 -15.5t-7.5 -18t-5.5 -23t-4 -19.5h-101l4 23q13 58 61 103q49 43 106 43q50 0 79.5 -36t17.5 -88l-71 -336q-11 -49 -13 -95h-99q-5 10 -4 23.5t4 20.5h-7 q-9 -12 -22 -23t-32.5 -20t-37.5 -9q-30 0 -45 25q-24 35 -8 110zM151 112q5 -21 19 -21q17 0 31.5 9.5t17.5 23.5l30 140q-76 -29 -96 -122q-4 -11 -2 -30zM239 694q7 30 33 50t57 20t48.5 -20t10.5 -50t-32.5 -50t-56.5 -20t-49 20t-11 50zM277 694q-3 -14 6.5 -24.5 t23.5 -10.5t27.5 10.5t16.5 24.5q2 9 -1.5 17.5t-11.5 13t-17 4.5q-14 0 -27.5 -10.5t-16.5 -24.5z" />
<glyph unicode="&#xe6;" horiz-adv-x="483" d="M50 127q17 81 71 135q34 34 92 62q48 22 55 33l13 60q7 15 3.5 32.5t-20.5 17.5q-10 0 -17 -5t-12 -15.5t-7.5 -18t-5.5 -23t-4 -19.5h-101l4 23q13 58 61 103q49 43 106 43q44 0 69 -25q38 25 84 25q82 0 99 -71q8 -33 1 -70l-33 -159h-167l-26 -119q-9 -55 26 -55 q24 0 37 27q7 9 10 28l13 60h94l-13 -63q-23 -80 -81 -119q-31 -22 -80 -22q-76 0 -97 64q-62 -64 -121 -64q-30 0 -45 25q-24 35 -8 110zM151 112q5 -21 19 -21q17 0 31.5 9.5t17.5 23.5l30 140q-76 -29 -96 -122q-4 -11 -2 -30zM357 334h73l17 77q11 56 -24 56t-49 -56z " />
<glyph unicode="&#xe7;" horiz-adv-x="315" d="M64 154l51 239q18 86 64 127q39 35 99 35q71 0 93 -37t4 -120l-9 -43h-101l14 66q5 25 1 34.5t-21 9.5q-28 0 -37 -44l-63 -295q-9 -44 19 -44q17 0 25 9.5t13 34.5l16 76h101l-11 -53q-17 -81 -52.5 -119t-110.5 -38q-58 0 -85 35q-28 42 -10 127zM87 -188l33 65h-31 l15 69h84l-15 -69l-35 -65h-51z" />
<glyph unicode="&#xe8;" horiz-adv-x="322" d="M60 136l59 275q22 79 82 122q28 22 79 22q82 0 99 -71q8 -33 1 -70l-33 -159h-167l-26 -119q-9 -55 26 -55q24 0 37 27q7 9 10 28l13 60h94l-13 -63q-23 -80 -81 -119q-31 -22 -80 -22q-83 0 -99 72q-7 33 -1 72zM196 334h73l17 77q11 56 -24 56t-49 -56zM204 727h105 l33 -90h-78z" />
<glyph unicode="&#xe9;" horiz-adv-x="322" d="M60 136l59 275q22 79 82 122q28 22 79 22q82 0 99 -71q8 -33 1 -70l-33 -159h-167l-26 -119q-9 -55 26 -55q24 0 37 27q7 9 10 28l13 60h94l-13 -63q-23 -80 -81 -119q-31 -22 -80 -22q-83 0 -99 72q-7 33 -1 72zM196 334h73l17 77q11 56 -24 56t-49 -56zM264 637l71 90 h105l-98 -90h-78z" />
<glyph unicode="&#xea;" horiz-adv-x="322" d="M60 136l59 275q22 79 82 122q28 22 79 22q82 0 99 -71q8 -33 1 -70l-33 -159h-167l-26 -119q-9 -55 26 -55q24 0 37 27q7 9 10 28l13 60h94l-13 -63q-23 -80 -81 -119q-31 -22 -80 -22q-83 0 -99 72q-7 33 -1 72zM174 637l88 90h107l50 -90h-92l-24 35l-37 -35h-92z M196 334h73l17 77q11 56 -24 56t-49 -56z" />
<glyph unicode="&#xeb;" horiz-adv-x="322" d="M60 136l59 275q22 79 82 122q28 22 79 22q82 0 99 -71q8 -33 1 -70l-33 -159h-167l-26 -119q-9 -55 26 -55q24 0 37 27q7 9 10 28l13 60h94l-13 -63q-23 -80 -81 -119q-31 -22 -80 -22q-83 0 -99 72q-7 33 -1 72zM179 637l21 98h93l-21 -98h-93zM196 334h73l17 77 q11 56 -24 56t-49 -56zM320 637l21 98h93l-21 -98h-93z" />
<glyph unicode="&#xec;" horiz-adv-x="181" d="M40 0l116 547h101l-116 -547h-101zM138 727h105l33 -90h-78z" />
<glyph unicode="&#xed;" horiz-adv-x="181" d="M40 0l116 547h101l-116 -547h-101zM175 637l71 90h105l-98 -90h-78z" />
<glyph unicode="&#xee;" horiz-adv-x="181" d="M40 0l116 547h101l-116 -547h-101zM103 637l88 90h107l50 -90h-92l-24 35l-37 -35h-92z" />
<glyph unicode="&#xef;" horiz-adv-x="182" d="M40 0l116 547h101l-116 -547h-101zM109 637l21 98h93l-21 -98h-93zM250 637l21 98h93l-21 -98h-93z" />
<glyph unicode="&#xf0;" horiz-adv-x="329" d="M65 136l61 283q4 34 26 76q31 60 86 60q30 0 68 -38q6 60 -4 99l-47 -35l-20 31l58 43q-4 7 -6 14l-5 10q-4 4 -4 8l63 49l6 -9l4 -4q4 -8 10 -17l54 40l20 -32l-58 -43q41 -94 15 -218l-68 -320q-23 -80 -80 -119q-31 -22 -80 -22q-60 0 -84.5 39.5t-14.5 104.5z M160 136q-7 -20 -1.5 -37.5t24.5 -17.5q24 0 37 27q8 12 9 28l59 275q13 56 -23 56q-24 0 -37 -28q-8 -12 -9 -28z" />
<glyph unicode="&#xf1;" horiz-adv-x="337" d="M40 0l116 547h101l-10 -46q6 3 14 11q1 1 16 12t22 15.5t19.5 10t21.5 5.5q37 0 51 -36q11 -33 3 -71l-95 -448h-101l92 433q5 24 -19 24q-22 0 -39 -26l-91 -431h-101zM207 637l16 74q30 19 57 19q16 0 44 -9t40 -10q11 0 20 2.5t20.5 7.5t15.5 6l-16 -74 q-24 -19 -57 -19q-17 0 -42.5 9t-41.5 10q-11 0 -20 -2.5t-20 -7t-16 -6.5z" />
<glyph unicode="&#xf2;" horiz-adv-x="321" d="M59 136l59 275q23 81 80 122q28 22 79 22q82 0 99 -71q8 -33 1 -70l-59 -281q-23 -80 -80 -119q-31 -22 -80 -22q-60 0 -84.5 39.5t-14.5 104.5zM154 136q-14 -55 23 -55q24 0 37 27q8 12 9 28l59 275q13 56 -23 56q-24 0 -37 -28q-8 -12 -9 -28zM202 727h105l33 -90h-78 z" />
<glyph unicode="&#xf3;" horiz-adv-x="321" d="M59 136l59 275q23 81 80 122q28 22 79 22q82 0 99 -71q8 -33 1 -70l-59 -281q-23 -80 -80 -119q-31 -22 -80 -22q-60 0 -84.5 39.5t-14.5 104.5zM154 136q-14 -55 23 -55q24 0 37 27q8 12 9 28l59 275q13 56 -23 56q-24 0 -37 -28q-8 -12 -9 -28zM262 637l71 90h105 l-98 -90h-78z" />
<glyph unicode="&#xf4;" horiz-adv-x="321" d="M59 136l59 275q23 81 80 122q28 22 79 22q82 0 99 -71q8 -33 1 -70l-59 -281q-23 -80 -80 -119q-31 -22 -80 -22q-60 0 -84.5 39.5t-14.5 104.5zM154 136q-14 -55 23 -55q24 0 37 27q8 12 9 28l59 275q13 56 -23 56q-24 0 -37 -28q-8 -12 -9 -28zM173 637l88 90h107 l50 -90h-92l-24 35l-37 -35h-92z" />
<glyph unicode="&#xf5;" horiz-adv-x="321" d="M59 136l59 275q23 81 80 122q28 22 79 22q82 0 99 -71q8 -33 1 -70l-59 -281q-23 -80 -80 -119q-31 -22 -80 -22q-60 0 -84.5 39.5t-14.5 104.5zM154 136q-14 -55 23 -55q24 0 37 27q8 12 9 28l59 275q13 56 -23 56q-24 0 -37 -28q-8 -12 -9 -28zM199 637l16 74 q30 19 57 19q16 0 44 -9t40 -10q11 0 20 2.5t20.5 7.5t15.5 6l-16 -74q-24 -19 -57 -19q-17 0 -42.5 9t-41.5 10q-11 0 -20 -2.5t-20 -7t-16 -6.5z" />
<glyph unicode="&#xf6;" horiz-adv-x="321" d="M59 136l59 275q23 81 80 122q28 22 79 22q82 0 99 -71q8 -33 1 -70l-59 -281q-23 -80 -80 -119q-31 -22 -80 -22q-60 0 -84.5 39.5t-14.5 104.5zM154 136q-14 -55 23 -55q24 0 37 27q8 12 9 28l59 275q13 56 -23 56q-24 0 -37 -28q-8 -12 -9 -28zM179 637l21 98h93 l-21 -98h-93zM320 637l21 98h93l-21 -98h-93z" />
<glyph unicode="&#xf8;" horiz-adv-x="321" d="M52 -38l28 59q-25 28 -25 73q0 25 4 42l59 275q23 81 80 122q28 22 79 22q24 0 51 -9l18 39h37l-28 -59q18 -20 25 -71q0 -20 -3 -41l-59 -281q-23 -80 -80 -119q-31 -22 -80 -22q-26 0 -48 8l-19 -38h-39zM154 96q4 -15 23 -15q24 0 37 27q8 12 9 28l42 197zM171 213 l111 237q-5 17 -23 17q-24 0 -37 -28q-8 -12 -9 -28z" />
<glyph unicode="&#xf9;" horiz-adv-x="337" d="M59 99l95 448h101l-92 -433q-6 -24 19 -24q17 0 38 26l92 431h101l-116 -547h-101l9 46q-3 -2 -13 -10q-32 -25 -51 -36q-19 -8 -29 -8q-38 0 -50 37q-12 30 -3 70zM209 727h105l33 -90h-78z" />
<glyph unicode="&#xfa;" horiz-adv-x="337" d="M59 99l95 448h101l-92 -433q-6 -24 19 -24q17 0 38 26l92 431h101l-116 -547h-101l9 46q-3 -2 -13 -10q-32 -25 -51 -36q-19 -8 -29 -8q-38 0 -50 37q-12 30 -3 70zM269 637l71 90h105l-98 -90h-78z" />
<glyph unicode="&#xfb;" horiz-adv-x="337" d="M59 99l95 448h101l-92 -433q-6 -24 19 -24q17 0 38 26l92 431h101l-116 -547h-101l9 46q-3 -2 -13 -10q-32 -25 -51 -36q-19 -8 -29 -8q-38 0 -50 37q-12 30 -3 70zM181 637l88 90h107l50 -90h-92l-24 35l-37 -35h-92z" />
<glyph unicode="&#xfc;" horiz-adv-x="337" d="M59 99l95 448h101l-92 -433q-6 -24 19 -24q17 0 38 26l92 431h101l-116 -547h-101l9 46q-3 -2 -13 -10q-32 -25 -51 -36q-19 -8 -29 -8q-38 0 -50 37q-12 30 -3 70zM187 637l21 98h93l-21 -98h-93zM328 637l21 98h93l-21 -98h-93z" />
<glyph unicode="&#xfd;" horiz-adv-x="310" d="M-25 -194l19 90q1 -1 6 -1q1 -2 18 -0.5t29 9.5q44 27 54 80l27 563h99q-3 -32 -15.5 -163.5t-20.5 -200.5h4l8 28l112 336h99l-222 -588q-26 -68 -67 -106q-52 -49 -106 -49h-12q-8 0 -32 2zM248 637l71 90h105l-98 -90h-78z" />
<glyph unicode="&#xfe;" horiz-adv-x="335" d="M0 -188l196 923h101l-48 -224q36 28 60 37q13 7 29 7q37 0 53 -36q11 -33 3 -71l-74 -349q-9 -39 -33 -70q-33 -37 -68 -37q-32 0 -71 44l-47 -224h-101zM166 120q-2 -12 5 -22.5t18 -10.5q7 0 14.5 4t12.5 12t7 17l65 307q3 14 -3 23.5t-17 9.5q-12 0 -23 -9.5 t-14 -23.5z" />
<glyph unicode="&#xff;" horiz-adv-x="310" d="M-25 -194l19 90q1 -1 6 -1q1 -2 18 -0.5t29 9.5q44 27 54 80l27 563h99q-3 -32 -15.5 -163.5t-20.5 -200.5h4l8 28l112 336h99l-222 -588q-26 -68 -67 -106q-52 -49 -106 -49h-12q-8 0 -32 2zM173 637l21 98h93l-21 -98h-93zM314 637l21 98h93l-21 -98h-93z" />
<glyph unicode="&#x152;" horiz-adv-x="480" d="M65 151l92 433q10 41 34 75q52 76 142 76h283l-24 -111h-139l-41 -193h100l-25 -118h-100l-43 -202h139l-23 -111h-283q-66 0 -96.5 42t-15.5 109zM173 151q-6 -20 0 -37t24 -17q35 0 48 54l93 440q4 11 -1 29t-25 18q-36 0 -47 -54z" />
<glyph unicode="&#x153;" horiz-adv-x="486" d="M59 136l59 275q23 81 80 122q28 22 79 22q52 0 78 -29q39 29 89 29q82 0 99 -71q8 -33 1 -70l-33 -159h-167l-26 -122q-5 -18 2 -35t24 -17q24 0 37 27q7 9 10 28l13 60h94l-13 -63q-23 -80 -81 -119q-31 -22 -80 -22q-52 0 -77 28q-40 -28 -89 -28q-60 0 -84.5 39.5 t-14.5 104.5zM154 136q-7 -20 -1.5 -37.5t24.5 -17.5q24 0 37 27q8 12 9 28l59 275q13 56 -23 56q-24 0 -37 -28q-8 -12 -9 -28zM360 334h73l17 77q11 56 -24 56q-31 0 -49 -53z" />
<glyph unicode="&#x178;" horiz-adv-x="344" d="M118 0l66 313l-20 422h106l4 -235l1 -7h2l5 7l104 235h106l-200 -422l-66 -313h-108zM225 800l20 98h93l-20 -98h-93zM366 800l20 98h93l-20 -98h-93z" />
<glyph unicode="&#x2c6;" horiz-adv-x="499" d="M262 637l88 90h107l50 -90h-92l-24 35l-37 -35h-92z" />
<glyph unicode="&#x2dc;" horiz-adv-x="500" d="M288 637l16 74q30 19 57 19q12 0 27.5 -4.5t30.5 -9t26 -5.5q11 0 20 2.5t20.5 7.5t15.5 6l-16 -74q-24 -19 -57 -19q-17 0 -42.5 9t-41.5 10q-11 0 -20 -2.5t-20 -7t-16 -6.5z" />
<glyph unicode="&#x2000;" horiz-adv-x="465" />
<glyph unicode="&#x2001;" horiz-adv-x="930" />
<glyph unicode="&#x2002;" horiz-adv-x="465" />
<glyph unicode="&#x2003;" horiz-adv-x="930" />
<glyph unicode="&#x2004;" horiz-adv-x="310" />
<glyph unicode="&#x2005;" horiz-adv-x="232" />
<glyph unicode="&#x2006;" horiz-adv-x="155" />
<glyph unicode="&#x2007;" horiz-adv-x="155" />
<glyph unicode="&#x2008;" horiz-adv-x="116" />
<glyph unicode="&#x2009;" horiz-adv-x="186" />
<glyph unicode="&#x200a;" horiz-adv-x="51" />
<glyph unicode="&#x2010;" horiz-adv-x="217" d="M83 222l20 95h145l-20 -95h-145z" />
<glyph unicode="&#x2011;" horiz-adv-x="217" d="M83 222l20 95h145l-20 -95h-145z" />
<glyph unicode="&#x2012;" horiz-adv-x="217" d="M83 222l20 95h145l-20 -95h-145z" />
<glyph unicode="&#x2013;" horiz-adv-x="394" d="M103 317l20 95h322l-20 -95h-322z" />
<glyph unicode="&#x2014;" horiz-adv-x="475" d="M103 317l20 95h403l-20 -95h-403z" />
<glyph unicode="&#x2018;" horiz-adv-x="151" d="M129 494l23 111l83 130h50l-63 -130h35l-23 -111h-105z" />
<glyph unicode="&#x2019;" horiz-adv-x="151" d="M127 494l62 130h-35l24 111h105l-24 -111l-82 -130h-50z" />
<glyph unicode="&#x201a;" horiz-adv-x="151" d="M-5 -130l62 130h-35l23 111h105l-23 -111l-83 -130h-49z" />
<glyph unicode="&#x201c;" horiz-adv-x="305" d="M131 494l23 111l83 130h50l-63 -130h35l-23 -111h-105zM279 494l23 111l83 130h50l-63 -130h35l-23 -111h-105z" />
<glyph unicode="&#x201d;" horiz-adv-x="305" d="M131 494l62 130h-35l24 111h105l-24 -111l-82 -130h-50zM279 494l62 130h-35l24 111h105l-24 -111l-82 -130h-50z" />
<glyph unicode="&#x201e;" horiz-adv-x="305" d="M-1 -130l62 130h-35l23 111h105l-23 -111l-83 -130h-49zM146 -130l63 130h-35l23 111h105l-23 -111l-83 -130h-50z" />
<glyph unicode="&#x2022;" horiz-adv-x="324" d="M124 399q10 48 53 84.5t96 36.5q50 0 79 -35q17 -22 19 -49.5t-4.5 -47.5t-17.5 -37q-49 -75 -128 -75q-52 0 -79 36q-28 34 -18 87z" />
<glyph unicode="&#x2026;" horiz-adv-x="471" d="M26 0l23 111h105l-23 -111h-105zM183 0l23 111h105l-23 -111h-105zM340 0l23 111h105l-23 -111h-105z" />
<glyph unicode="&#x202f;" horiz-adv-x="186" />
<glyph unicode="&#x205f;" horiz-adv-x="232" />
<glyph unicode="&#x20ac;" horiz-adv-x="397" d="M82 267l14 67h52l15 67h-52l14 67h52l25 116q11 44 34 79q28 37 60.5 58.5t82.5 21.5q46 0 74 -21.5t35 -58.5q10 -31 2 -79l-9 -41h-101l9 41q5 24 -2 39t-28 15q-22 0 -39 -27q-7 -17 -10 -27l-25 -116h114l-14 -67h-114l-15 -67h114l-14 -67h-114l-24 -116 q-4 -23 2 -38.5t24 -15.5q23 0 35 14t18 40l8 41h101l-8 -41q-12 -45 -35 -80q-27 -35 -55 -54q-35 -25 -88 -25q-93 0 -109 79q-10 33 -1 80l24 116h-52z" />
<glyph unicode="&#x2122;" horiz-adv-x="458" d="M172 401l60 283h-51l11 51h157l-11 -51h-51l-60 -283h-55zM300 401l71 334h67v-156h3l66 156h67l-71 -334h-51l46 219l-84 -219h-25l7 219l-46 -219h-50z" />
<glyph unicode="&#xe000;" horiz-adv-x="545" d="M0 0v545h545v-545h-545z" />
<glyph unicode="&#xfb01;" horiz-adv-x="377" d="M61 0l96 456h-51l20 91h51l3 15q20 82 39 112q40 68 123 68q33 0 49 -4q3 -1 11 -1q2 0 5.5 -0.5t5.5 -1.5l-19 -90q-30 6 -53 6q-28 0 -45 -35q-5 -9 -9 -28.5t-6 -26.5l-3 -14h175l-116 -547h-101l96 456h-74l-96 -456h-101z" />
<glyph unicode="&#xfb02;" horiz-adv-x="377" d="M61 0l96 456h-51l20 91h51l3 15q1 3 4.5 18t5.5 23t6.5 22t10 26t12.5 23q40 68 123 68q33 0 49 -4q3 -1 11 -1q2 0 5.5 -0.5t5.5 -1.5h80l-156 -735h-101l137 649q-16 2 -32 2q-28 0 -45 -35q-5 -9 -9 -28.5t-6 -26.5l-3 -14h51l-20 -91h-51l-96 -456h-101z" />
</font>
</defs>
</svg>
