<?xml version="1.0" standalone="no"?>
<!DOCTYPE svg PUBLIC "-//W3C//DTD SVG 1.1//EN" "http://www.w3.org/Graphics/SVG/1.1/DTD/svg11.dtd" >
<svg xmlns="http://www.w3.org/2000/svg">
<metadata></metadata>
<defs>
<font id="dayposterblackregular" horiz-adv-x="753" >
<font-face units-per-em="1000" ascent="800" descent="-200" />
<missing-glyph horiz-adv-x="374" />
<glyph horiz-adv-x="1000" />
<glyph horiz-adv-x="1000" />
<glyph unicode="&#xd;" horiz-adv-x="374" />
<glyph unicode=" "  horiz-adv-x="374" />
<glyph unicode="&#x09;" horiz-adv-x="374" />
<glyph unicode="&#xa0;" horiz-adv-x="374" />
<glyph unicode="!" horiz-adv-x="319" d="M265 802l-42 -608h-168l-42 608h252zM250 75q0 -38 -33 -65.5t-78 -27.5q-46 0 -78.5 27.5t-32.5 65.5t32.5 65.5t78.5 27.5q45 0 78 -27.5t33 -65.5z" />
<glyph unicode="&#x22;" horiz-adv-x="440" d="M376 802l-33 -238h-130l-20 146q-6 -39 -20 -146h-130l-32 238h365z" />
<glyph unicode="$" horiz-adv-x="591" d="M584 586h-198l124 -186q35 -52 35 -118q0 -78 -49 -137.5t-123 -75.5v-70h-152v65h-132l-79 151h195l-122 189q-33 51 -33 115q0 77 48.5 136.5t122.5 75.5v71h152v-65h161z" />
<glyph unicode="&#x26;" horiz-adv-x="823" d="M807 345l-85 -145h-294l56 114zM591 151q-33 -75 -110 -122t-172 -47q-124 0 -212 76.5t-88 183.5q0 71 42 133q40 59 109 93q-44 21 -71.5 63.5t-27.5 94.5q0 73 51 124.5t124 51.5h264l33 -108h-172v-188h156l-33 -125h-123v-230h230z" />
<glyph unicode="'" horiz-adv-x="269" d="M205 802l-33 -238h-130l-32 238h195z" />
<glyph unicode="(" horiz-adv-x="386" d="M327 -142q-153 -1 -241 172q-70 138 -70 300t70 300q88 173 241 172v-151h-64v-652h64v-141z" />
<glyph unicode=")" horiz-adv-x="380" d="M16 -142q152 -1 240 172q71 138 71 300t-71 300q-88 173 -240 172v-151h64v-652h-64v-141z" />
<glyph unicode="*" horiz-adv-x="484" d="M423 564l-52 -91l-97 56v-112h-105v112l-97 -56l-52 90l98 57l-97 56l51 90l97 -56v112h105v-113l97 57l52 -91l-97 -55z" />
<glyph unicode="," horiz-adv-x="262" d="M242 75q0 -19 -12 -41l-80 -145h-123l57 102q-64 25 -64 84q0 38 32.5 65.5t78.5 27.5t78.5 -27.5t32.5 -65.5z" />
<glyph unicode="-" horiz-adv-x="356" d="M286 325h-272v151h272v-151z" />
<glyph unicode="." horiz-adv-x="262" d="M242 75q0 -38 -32.5 -65.5t-78.5 -27.5t-78.5 27.5t-32.5 65.5t32.5 65.5t78.5 27.5t78.5 -27.5t32.5 -65.5z" />
<glyph unicode="/" horiz-adv-x="434" d="M282 838h140l-300 -934h-140z" />
<glyph unicode="0" horiz-adv-x="790" d="M737 392q0 -170 -105 -290t-253 -120t-252.5 120t-104.5 290t104.5 290t252.5 120t253 -120t105 -290zM442 150v501h-125v-501h125z" />
<glyph unicode="1" horiz-adv-x="536" d="M467 -1h-343v652h-102l37 151h408v-803z" />
<glyph unicode="2" horiz-adv-x="644" d="M599 150l-79 -151l-498 -1v219q0 64 35 118l206 316h-240l50 151h308q90 0 154 -64t64 -154q0 -63 -33 -115l-204 -319h237z" />
<glyph unicode="3" horiz-adv-x="654" d="M635 235q0 -98 -73.5 -167t-176.5 -69h-305l-63 151h245v212h-182v135h182v154h-245l63 151h305q79 0 136 -53.5t57 -128.5q0 -52 -30 -96t-78 -68q72 -24 118.5 -84.5t46.5 -136.5z" />
<glyph unicode="4" horiz-adv-x="789" d="M801 275l-60 -151h-88v-125h-343v125h-294v138l335 540h302v-527h148zM310 275v174l-108 -174h108z" />
<glyph unicode="5" horiz-adv-x="672" d="M634 248q0 -103 -73.5 -176t-175.5 -73h-305l-63 151h244v212h-181v440h350l63 -151h-193v-154h85q102 0 175.5 -73t73.5 -176z" />
<glyph unicode="6" horiz-adv-x="762" d="M717 299q0 -131 -102.5 -224t-245.5 -93q-144 0 -246 93t-102 224q0 55 29 127l151 376h250l-74 -185q141 -3 240.5 -95.5t99.5 -222.5zM420 125v362h-103v-362h103z" />
<glyph unicode="7" horiz-adv-x="630" d="M675 802l-322 -803h-344l263 652h-257l71 151h589z" />
<glyph unicode="8" horiz-adv-x="791" d="M740 299q0 -131 -106 -224t-254 -93q-149 0 -254.5 93t-105.5 224q0 157 141 252q-8 21 -8 51q0 83 66.5 141.5t160.5 58.5q93 0 160 -58.5t67 -141.5q0 -25 -8 -51q141 -95 141 -252zM433 540v128h-107v-128h107zM433 129v261h-107v-261h107z" />
<glyph unicode="9" horiz-adv-x="765" d="M714 481q0 -56 -29 -127l-145 -356h-250l68 165q-142 3 -241 95.5t-99 222.5q0 131 102 224t246 93q143 0 245.5 -93t102.5 -224zM418 313v352h-103v-352h103z" />
<glyph unicode=":" horiz-adv-x="262" d="M242 415q0 -38 -32.5 -65.5t-78.5 -27.5t-78.5 27.5t-32.5 65.5t32.5 65.5t78.5 27.5t78.5 -27.5t32.5 -65.5zM242 75q0 -38 -32.5 -65.5t-78.5 -27.5t-78.5 27.5t-32.5 65.5t32.5 65.5t78.5 27.5t78.5 -27.5t32.5 -65.5z" />
<glyph unicode=";" horiz-adv-x="272" d="M242 415q0 -38 -32.5 -65.5t-78.5 -27.5t-78.5 27.5t-32.5 65.5t32.5 65.5t78.5 27.5t78.5 -27.5t32.5 -65.5zM252 75q0 -19 -12 -41l-80 -145h-123l57 102q-64 25 -64 84q0 38 32.5 65.5t78.5 27.5t78.5 -27.5t32.5 -65.5z" />
<glyph unicode="?" horiz-adv-x="631" d="M595 585q0 -98 -81 -169l-151 -133v-89h-210v107q0 54 9 92q5 21 26 75l69 183h-240l50 151h312q89 0 152.5 -64t63.5 -153zM371 75q0 -38 -33 -65.5t-78 -27.5q-46 0 -78.5 27.5t-32.5 65.5t32.5 65.5t78.5 27.5q45 0 78 -27.5t33 -65.5z" />
<glyph unicode="@" horiz-adv-x="871" d="M825 401q0 -110 -70 -229h-280q-28 -7 -64 -7q-90 0 -154 47.5t-64 114.5t64 114.5t154 47.5q12 0 32 -2v62h-193l20 87h150q96 0 164 -68t68 -164v-140h50q31 63 31 137q0 128 -91.5 219.5t-219.5 91.5t-219.5 -91.5t-91.5 -219.5q0 -129 91.5 -220.5t219.5 -91.5 q92 0 168 50l49 -78q-100 -64 -217 -64q-166 0 -284.5 118.5t-118.5 285.5t118.5 285t284.5 118q167 0 285 -118t118 -285zM443 250v161h-65v-161h65z" />
<glyph unicode="A" horiz-adv-x="840" d="M828 0h-360q-2 6 -44 125h-184l-44 -125h-184l286 803h246zM372 274l-40 111l-39 -111h79z" />
<glyph unicode="B" horiz-adv-x="777" d="M752 235q0 -98 -73.5 -167t-176.5 -69h-477v803h477q79 0 135.5 -53.5t56.5 -128.5q0 -52 -29.5 -96t-77.5 -68q73 -24 119 -84.5t46 -136.5zM446 497v154h-94v-154h94zM446 150v212h-94v-212h94z" />
<glyph unicode="C" horiz-adv-x="743" d="M718 150l-33 -151h-259q-165 0 -283 118t-118 284q0 165 117.5 283t283.5 118h259l33 -151h-332v-501h332z" />
<glyph unicode="D" horiz-adv-x="805" d="M780 401q0 -166 -117.5 -284t-283.5 -118h-354v803h354q165 0 283 -118t118 -283zM479 150v501h-125v-501h125z" />
<glyph unicode="E" horiz-adv-x="652" d="M606 150l-36 -151h-547v803h547l36 -151h-240v-204h161l36 -151h-197v-146h240z" />
<glyph unicode="F" horiz-adv-x="633" d="M608 651h-240v-204h161l36 -151h-197v-297h-343v803h547z" />
<glyph unicode="G" horiz-adv-x="823" d="M798 -1l-131 53q-105 -70 -230 -70q-170 0 -291 120.5t-121 289.5t121 289.5t291 120.5h272l32 -151h-347v-501h99v254h305v-405z" />
<glyph unicode="H" horiz-adv-x="901" d="M833 -1h-343v320h-124v-320h-343v803h343v-330h124v330h343v-803z" />
<glyph unicode="I" horiz-adv-x="429" d="M360 -1h-343v803h343v-803z" />
<glyph unicode="J" horiz-adv-x="597" d="M572 223q0 -99 -99.5 -170t-239.5 -71q-96 0 -180 37l-28 177h204v606h343v-579z" />
<glyph unicode="K" horiz-adv-x="905" d="M905 -1h-369l-168 314v-314h-343v803h343v-260l198 260h224l-208 -273z" />
<glyph unicode="L" horiz-adv-x="633" d="M608 150l-36 -151h-547v803h343v-652h240z" />
<glyph unicode="M" horiz-adv-x="981" d="M912 -1h-344v327l-153 -289h-89l-138 255v-293h-166v803h244l173 -290l165 290h308v-803z" />
<glyph unicode="N" horiz-adv-x="771" d="M746 -1h-192l-332 291v-291h-197v803h176l347 -311v311h198v-803z" />
<glyph unicode="O" horiz-adv-x="878" d="M853 392q0 -169 -121.5 -289.5t-292.5 -120.5t-292.5 120.5t-121.5 289.5t121.5 289.5t292.5 120.5t292.5 -120.5t121.5 -289.5zM501 150v501h-124v-501h124z" />
<glyph unicode="P" horiz-adv-x="739" d="M714 542q0 -107 -76.5 -184t-183.5 -77h-86v-282h-343v803h429q107 0 183.5 -76.5t76.5 -183.5zM461 425v226h-93v-226h93z" />
<glyph unicode="Q" horiz-adv-x="868" d="M859 392q0 -189 -146 -311l78 -82h-230q-59 -17 -119 -17q-172 0 -294.5 120t-122.5 290t122.5 290t294.5 120t294.5 -120t122.5 -290zM504 150v501h-124v-501h124z" />
<glyph unicode="R" horiz-adv-x="893" d="M893 -1h-349l-175 290v-290h-344v803h467q92 0 157 -65t65 -157q0 -58 -28.5 -108t-76.5 -80zM461 425v226h-92v-226h92z" />
<glyph unicode="S" horiz-adv-x="627" d="M602 217q0 -90 -64 -154t-153 -64h-281l-79 151h237l-204 319q-33 52 -33 115q0 90 64.5 154t153.5 64h308l50 -151h-240l207 -316q34 -52 34 -118z" />
<glyph unicode="T" horiz-adv-x="848" d="M836 651h-240v-652h-343v652h-241l37 151h750z" />
<glyph unicode="U" horiz-adv-x="747" d="M722 331q0 -144 -102.5 -246.5t-246.5 -102.5q-143 0 -245.5 102.5t-102.5 246.5v471h351v-656h124v656h222v-471z" />
<glyph unicode="V" horiz-adv-x="880" d="M870 802l-277 -803h-284l-299 803h383l143 -384l132 384h202z" />
<glyph unicode="W" horiz-adv-x="1184" d="M1174 802l-237 -803h-246l-103 343l-102 -343h-234l-242 803h368l91 -307l94 307h225l82 -271l89 271h215z" />
<glyph unicode="X" horiz-adv-x="888" d="M911 -1h-396l-122 199l-149 -199h-237l281 372l-264 431h397l86 -141l105 141h237l-237 -314z" />
<glyph unicode="Y" horiz-adv-x="884" d="M872 802l-253 -457v-346h-319v320l-288 483h383l143 -240l132 240h202z" />
<glyph unicode="Z" horiz-adv-x="751" d="M801 802l-337 -652h291l-37 -151h-713l337 652h-291l36 151h714z" />
<glyph unicode="]" horiz-adv-x="374" />
<glyph unicode="_" horiz-adv-x="467" d="M500 -101h-500v81h500v-81z" />
<glyph unicode="`" horiz-adv-x="260" d="M269 696h-85l-162 190h157z" />
<glyph unicode="a" horiz-adv-x="702" d="M690 -1h-299q-2 5 -37 104h-152l-37 -104h-153l238 667h204zM311 227l-33 92l-32 -92h65z" />
<glyph unicode="b" horiz-adv-x="654" d="M632 194q0 -81 -61 -138.5t-147 -57.5h-396v667h396q66 0 112.5 -44.5t46.5 -106.5q0 -44 -24 -80.5t-64 -55.5q60 -21 98.5 -71t38.5 -113zM378 412v127h-78v-127h78zM378 124v176h-78v-176h78z" />
<glyph unicode="c" horiz-adv-x="616" d="M601 124l-27 -126h-215q-137 0 -235 98t-98 236q0 137 97.5 235t235.5 98h215l27 -126h-276v-415h276z" />
<glyph unicode="d" horiz-adv-x="671" d="M652 332q0 -138 -98 -236t-235 -98h-294v667h294q137 0 235 -98t98 -235zM402 124v415h-104v-415h104z" />
<glyph unicode="e" horiz-adv-x="534" d="M509 124l-30 -126h-454v667h454l30 -126h-199v-169h133l30 -125h-163v-121h199z" />
<glyph unicode="f" horiz-adv-x="528" d="M510 539h-200v-169h134l30 -125h-164v-247h-284v667h454z" />
<glyph unicode="g" horiz-adv-x="686" d="M666 -3l-109 44q-87 -58 -191 -58q-141 0 -241.5 99.5t-100.5 240.5t100.5 240.5t241.5 99.5h226l27 -125h-288v-416h82v211h253v-336z" />
<glyph unicode="h" horiz-adv-x="736" d="M704 -2h-284v266h-103v-266h-285v667h285v-274h103v274h284v-667z" />
<glyph unicode="i" horiz-adv-x="351" d="M318 -2h-285v667h285v-667z" />
<glyph unicode="j" horiz-adv-x="524" d="M494 183q0 -83 -82.5 -141.5t-198.5 -58.5q-80 0 -150 30l-23 147h169v503h285v-480z" />
<glyph unicode="k" horiz-adv-x="755" d="M755 -2h-306l-139 261v-261h-285v667h285v-216l164 216h186l-173 -227z" />
<glyph unicode="l" horiz-adv-x="539" d="M515 124l-30 -126h-454v667h285v-541h199z" />
<glyph unicode="m" horiz-adv-x="823" d="M781 -2h-286v272l-127 -240h-74l-114 211v-243h-138v667h203l143 -241l137 241h256v-667z" />
<glyph unicode="n" horiz-adv-x="675" d="M643 -2h-160l-275 242v-242h-164v667h146l288 -258v258h165v-667z" />
<glyph unicode="o" horiz-adv-x="737" d="M712 323q0 -141 -100.5 -240.5t-242.5 -99.5t-243 99.5t-101 240.5t101 240.5t243 99.5t242.5 -99.5t100.5 -240.5zM420 122v416h-103v-416h103z" />
<glyph unicode="p" horiz-adv-x="617" d="M597 449q0 -89 -63.5 -153t-151.5 -64h-72v-234h-285v667h357q88 0 151.5 -63.5t63.5 -152.5zM387 352v187h-77v-187h77z" />
<glyph unicode="q" d="M723 323q0 -157 -122 -258l65 -68h-191q-48 -14 -98 -14q-144 0 -245.5 99.5t-101.5 240.5t101.5 240.5t245.5 99.5q143 0 244.5 -99.5t101.5 -240.5zM428 122v416h-103v-416h103z" />
<glyph unicode="r" horiz-adv-x="745" d="M756 -2h-289l-146 241v-241h-285v667h387q76 0 130.5 -54.5t54.5 -130.5q0 -102 -87 -156zM398 352v187h-77v-187h77z" />
<glyph unicode="s" horiz-adv-x="531" d="M506 179q0 -74 -53 -127.5t-127 -53.5h-233l-66 126h197l-170 264q-27 43 -27 96q0 74 53.5 127.5t127.5 53.5h256l41 -126h-199l172 -262q28 -43 28 -98z" />
<glyph unicode="t" horiz-adv-x="709" d="M697 539h-199v-541h-285v541h-200l31 126h622z" />
<glyph unicode="u" horiz-adv-x="629" d="M604 272q0 -119 -85.5 -204t-204.5 -85t-204 85t-85 204v391h291v-544h103v544h185v-391z" />
<glyph unicode="v" horiz-adv-x="734" d="M724 665l-230 -667h-236l-248 667h318l119 -319l109 319h168z" />
<glyph unicode="w" horiz-adv-x="986" d="M976 665l-197 -667h-204l-85 285l-85 -285h-194l-201 667h305l76 -255l78 255h187l68 -225l74 225h178z" />
<glyph unicode="x" horiz-adv-x="783" d="M767 -2h-329l-101 165l-124 -165h-197l234 309l-220 358h330l71 -117l87 117h197l-197 -261z" />
<glyph unicode="y" horiz-adv-x="734" d="M724 665l-210 -380v-287h-265v266l-239 401h318l119 -199l109 199h168z" />
<glyph unicode="z" horiz-adv-x="691" d="M676 665l-280 -541h241l-30 -126h-592l280 541h-242l30 126h593z" />
<glyph unicode="&#xa1;" horiz-adv-x="316" d="M32 -138l42 608h168l42 -608h-252zM47 589q0 38 32.5 65.5t78.5 27.5t78.5 -27.5t32.5 -65.5t-32.5 -65.5t-78.5 -27.5t-78.5 27.5t-32.5 65.5z" />
<glyph unicode="&#xa2;" horiz-adv-x="570" d="M536 272l-41 -148h-135v-125h-151v146q-78 32 -127 103t-49 157q0 87 49 158t127 103v136h151v-115h135l41 -148h-176v-267h176z" />
<glyph unicode="&#xa3;" horiz-adv-x="720" d="M688 150l-36 -151h-547v364h-73v75h73v123q0 100 99.5 170.5t239.5 70.5q98 0 180 -37l28 -131h-204v-196h105v-75h-105v-213h240z" />
<glyph unicode="&#xa4;" horiz-adv-x="742" d="M733 802l-68 -151h-231v-154h158l-33 -75h-125v-43h106l-33 -76h-73v-153h167v-151h-126q-140 0 -248.5 86t-141.5 218h-75l34 76h30q-2 10 -2 21t2 22h-62l34 75h39q33 133 141.5 219t248.5 86h258z" />
<glyph unicode="&#xa5;" horiz-adv-x="880" d="M869 802l-168 -305h126v-75h-167l-24 -43h191v-76h-210v-304h-319v304h-246v76h209l-25 43h-184v75h139l-181 305h383l142 -240l133 240h201z" />
<glyph unicode="&#xa8;" horiz-adv-x="400" d="M383 779q0 -34 -24.5 -58.5t-58.5 -24.5t-58.5 24.5t-24.5 58.5t24.5 58.5t58.5 24.5q35 0 59 -24t24 -59zM183 779q0 -34 -24.5 -58.5t-58.5 -24.5t-58.5 24.5t-24.5 58.5t24.5 58.5t58.5 24.5q35 0 59 -24t24 -59z" />
<glyph unicode="&#xaa;" horiz-adv-x="436" d="M422 415h-180q0 3 -22 62h-92l-22 -62h-92l143 401h123zM194 552l-20 55l-19 -55h39z" />
<glyph unicode="&#xab;" horiz-adv-x="586" d="M547 291l-90 -90l-199 200l199 199l90 -90l-110 -109zM327 291l-90 -90l-199 200l199 199l90 -90l-110 -109z" />
<glyph unicode="&#xad;" horiz-adv-x="356" d="M286 325h-272v151h272v-151z" />
<glyph unicode="&#xb4;" horiz-adv-x="291" d="M269 886l-162 -190h-85l90 190h157z" />
<glyph unicode="&#xb7;" horiz-adv-x="308" d="M265 415q0 -38 -32.5 -65.5t-78.5 -27.5t-78.5 27.5t-32.5 65.5t32.5 65.5t78.5 27.5t78.5 -27.5t32.5 -65.5z" />
<glyph unicode="&#xb8;" horiz-adv-x="293" d="M271 -147q0 -52 -47.5 -82.5t-118.5 -30.5q-57 0 -84 5v84q17 -9 84 -9q27 0 44.5 9.5t17.5 23.5t-18 23.5t-44 9.5q-23 0 -39 -8v153h69v-67q61 -8 98.5 -37t37.5 -74z" />
<glyph unicode="&#xba;" horiz-adv-x="502" d="M458 613q0 -85 -60.5 -145t-146.5 -60q-85 0 -146 60t-61 145t61 145t146 60q86 0 146.5 -60t60.5 -145zM282 492v251h-62v-251h62z" />
<glyph unicode="&#xbb;" horiz-adv-x="583" d="M14 291l90 -90l199 200l-199 199l-90 -90l110 -109zM234 291l90 -90l199 200l-199 199l-90 -90l110 -109z" />
<glyph unicode="&#xbf;" horiz-adv-x="627" d="M24 79q0 98 81 169l151 133v89h210v-107q0 -54 -9 -92q-5 -21 -26 -75l-69 -183h240l-50 -151h-312q-89 0 -152.5 64t-63.5 153zM248 589q0 38 33 65.5t78 27.5q46 0 78.5 -27.5t32.5 -65.5t-32.5 -65.5t-78.5 -27.5q-45 0 -78 27.5t-33 65.5z" />
<glyph unicode="&#xc0;" horiz-adv-x="814" d="M0 0zM815 0h-360q-2 6 -44 125h-184l-44 -125h-184l286 803h246zM359 274l-40 111l-39 -111h79zM459 816h-85l-162 190h157z" />
<glyph unicode="&#xc1;" horiz-adv-x="814" d="M0 0zM815 0h-360q-2 6 -44 125h-184l-44 -125h-184l286 803h246zM359 274l-40 111l-39 -111h79zM609 1006l-162 -190h-85l90 190h157z" />
<glyph unicode="&#xc2;" horiz-adv-x="814" d="M0 0zM815 0h-360q-2 6 -44 125h-184l-44 -125h-184l286 803h246zM359 274l-40 111l-39 -111h79zM578 815h-82l-89 92l-90 -92h-82l98 187h147z" />
<glyph unicode="&#xc3;" horiz-adv-x="814" d="M0 0zM815 0h-360q-2 6 -44 125h-184l-44 -125h-184l286 803h246zM359 274l-40 111l-39 -111h79zM595 961q-19 -61 -38 -86q-29 -41 -78 -41q-31 0 -79 15q-36 11 -62 4q-27 -7 -34 -36h-63q19 61 38 87q30 40 79 40q31 0 78 -14q38 -12 61 -6q26 6 34 37h64z" />
<glyph unicode="&#xc4;" horiz-adv-x="814" d="M0 0zM815 0h-360q-2 6 -44 125h-184l-44 -125h-184l286 803h246zM359 274l-40 111l-39 -111h79zM583 899q0 -34 -24.5 -58.5t-58.5 -24.5t-58.5 24.5t-24.5 58.5t24.5 58.5t58.5 24.5q35 0 59 -24t24 -59zM383 899q0 -34 -24.5 -58.5t-58.5 -24.5t-58.5 24.5t-24.5 58.5 t24.5 58.5t58.5 24.5q35 0 59 -24t24 -59z" />
<glyph unicode="&#xc5;" horiz-adv-x="814" d="M0 0zM815 0h-360q-2 6 -44 125h-184l-44 -125h-184l286 803h246zM359 274l-40 111l-39 -111h79zM555 968q0 -61 -43.5 -104.5t-105.5 -43.5q-61 0 -105 43.5t-44 104.5q0 62 43.5 105.5t105.5 43.5t105.5 -43.5t43.5 -105.5zM475 968q0 29 -20 49t-49 20t-49 -20t-20 -49 q0 -28 20.5 -48t48.5 -20q29 0 49 20t20 48z" />
<glyph unicode="&#xc6;" horiz-adv-x="1129" d="M1099 150l-36 -151h-547v125h-167l-59 -125h-260l378 803h655l36 -151h-240v-204h161l36 -151h-197v-146h240zM516 273v207l-97 -207h97z" />
<glyph unicode="&#xc7;" horiz-adv-x="734" d="M23 0zM716 150l-33 -151h-259q-165 0 -283 118t-118 284q0 165 117.5 283t283.5 118h259l33 -151h-332v-501h332zM611 -147q0 -52 -47.5 -82.5t-118.5 -30.5q-57 0 -84 5v84q17 -9 84 -9q27 0 44.5 9.5t17.5 23.5t-18 23.5t-44 9.5q-23 0 -39 -8v153h69v-67 q61 -8 98.5 -37t37.5 -74z" />
<glyph unicode="&#xc8;" horiz-adv-x="652" d="M35 0zM618 150l-36 -151h-547v803h547l36 -151h-240v-204h161l36 -151h-197v-146h240zM369 816h-85l-162 190h157z" />
<glyph unicode="&#xc9;" horiz-adv-x="652" d="M35 0zM618 150l-36 -151h-547v803h547l36 -151h-240v-204h161l36 -151h-197v-146h240zM499 1006l-162 -190h-85l90 190h157z" />
<glyph unicode="&#xca;" horiz-adv-x="652" d="M35 0zM618 150l-36 -151h-547v803h547l36 -151h-240v-204h161l36 -151h-197v-146h240zM488 815h-82l-89 92l-90 -92h-82l98 187h147z" />
<glyph unicode="&#xcb;" horiz-adv-x="652" d="M35 0zM618 150l-36 -151h-547v803h547l36 -151h-240v-204h161l36 -151h-197v-146h240zM513 899q0 -34 -24.5 -58.5t-58.5 -24.5t-58.5 24.5t-24.5 58.5t24.5 58.5t58.5 24.5q35 0 59 -24t24 -59zM313 899q0 -34 -24.5 -58.5t-58.5 -24.5t-58.5 24.5t-24.5 58.5t24.5 58.5 t58.5 24.5q35 0 59 -24t24 -59z" />
<glyph unicode="&#xcc;" horiz-adv-x="429" d="M22 0zM386 -1h-343v803h343v-803zM269 816h-85l-162 190h157z" />
<glyph unicode="&#xcd;" horiz-adv-x="429" d="M43 0zM386 -1h-343v803h343v-803zM419 1006l-162 -190h-85l90 190h157z" />
<glyph unicode="&#xce;" horiz-adv-x="429" d="M43 0zM386 -1h-343v803h343v-803zM388 815h-82l-89 92l-90 -92h-82l98 187h147z" />
<glyph unicode="&#xcf;" horiz-adv-x="429" d="M30 0zM386 -1h-343v803h343v-803zM396 899q0 -34 -24.5 -58.5t-58.5 -24.5t-58.5 24.5t-24.5 58.5t24.5 58.5t58.5 24.5q35 0 59 -24t24 -59zM196 899q0 -34 -24.5 -58.5t-58.5 -24.5t-58.5 24.5t-24.5 58.5t24.5 58.5t58.5 24.5q35 0 59 -24t24 -59z" />
<glyph unicode="&#xd0;" horiz-adv-x="885" d="M852 401q0 -166 -117.5 -284t-283.5 -118h-354v326h-65v151h65v326h354q165 0 283 -118t118 -283zM551 150v501h-124v-175h63v-151h-63v-175h124z" />
<glyph unicode="&#xd1;" horiz-adv-x="808" d="M50 0zM771 -1h-192l-332 291v-291h-197v803h176l347 -311v311h198v-803zM605 961q-19 -61 -38 -86q-29 -41 -78 -41q-31 0 -79 15q-36 11 -62 4q-27 -7 -34 -36h-63q19 61 38 87q30 40 79 40q31 0 78 -14q38 -12 61 -6q26 6 34 37h64z" />
<glyph unicode="&#xd2;" horiz-adv-x="901" d="M41 0zM869 392q0 -169 -121.5 -289.5t-292.5 -120.5t-292.5 120.5t-121.5 289.5t121.5 289.5t292.5 120.5t292.5 -120.5t121.5 -289.5zM517 150v501h-124v-501h124zM489 816h-85l-162 190h157z" />
<glyph unicode="&#xd3;" horiz-adv-x="901" d="M41 0zM869 392q0 -169 -121.5 -289.5t-292.5 -120.5t-292.5 120.5t-121.5 289.5t121.5 289.5t292.5 120.5t292.5 -120.5t121.5 -289.5zM517 150v501h-124v-501h124zM649 1006l-162 -190h-85l90 190h157z" />
<glyph unicode="&#xd4;" horiz-adv-x="901" d="M41 0zM869 392q0 -169 -121.5 -289.5t-292.5 -120.5t-292.5 120.5t-121.5 289.5t121.5 289.5t292.5 120.5t292.5 -120.5t121.5 -289.5zM517 150v501h-124v-501h124zM620 810h-82l-89 92l-90 -92h-82l98 187h147z" />
<glyph unicode="&#xd5;" horiz-adv-x="901" d="M41 0zM869 392q0 -169 -121.5 -289.5t-292.5 -120.5t-292.5 120.5t-121.5 289.5t121.5 289.5t292.5 120.5t292.5 -120.5t121.5 -289.5zM517 150v501h-124v-501h124zM635 961q-19 -61 -38 -86q-29 -41 -78 -41q-31 0 -79 15q-36 11 -62 4q-27 -7 -34 -36h-63q19 61 38 87 q30 40 79 40q31 0 78 -14q38 -12 61 -6q26 6 34 37h64z" />
<glyph unicode="&#xd6;" horiz-adv-x="901" d="M41 0zM869 392q0 -169 -121.5 -289.5t-292.5 -120.5t-292.5 120.5t-121.5 289.5t121.5 289.5t292.5 120.5t292.5 -120.5t121.5 -289.5zM517 150v501h-124v-501h124zM634 900q0 -34 -24.5 -58.5t-58.5 -24.5t-58.5 24.5t-24.5 58.5t24.5 58.5t58.5 24.5q35 0 59 -24 t24 -59zM434 900q0 -34 -24.5 -58.5t-58.5 -24.5t-58.5 24.5t-24.5 58.5t24.5 58.5t58.5 24.5q35 0 59 -24t24 -59z" />
<glyph unicode="&#xd8;" horiz-adv-x="912" d="M881 710l-85 -85q74 -104 74 -233q0 -169 -121.5 -289.5t-292.5 -120.5q-128 0 -232 71l-86 -86l-107 107l85 85q-74 104 -74 233q0 169 121.5 289.5t292.5 120.5q128 0 232 -71l86 87zM518 561v90h-124v-214zM518 150v197l-124 -125v-72h124z" />
<glyph unicode="&#xd9;" horiz-adv-x="783" d="M44 0zM741 331q0 -144 -102.5 -246.5t-246.5 -102.5q-143 0 -245.5 102.5t-102.5 246.5v471h351v-656h124v656h222v-471zM469 816h-85l-162 190h157z" />
<glyph unicode="&#xda;" horiz-adv-x="783" d="M44 0zM741 331q0 -144 -102.5 -246.5t-246.5 -102.5q-143 0 -245.5 102.5t-102.5 246.5v471h351v-656h124v656h222v-471zM599 1006l-162 -190h-85l90 190h157z" />
<glyph unicode="&#xdb;" horiz-adv-x="783" d="M44 0zM741 331q0 -144 -102.5 -246.5t-246.5 -102.5q-143 0 -245.5 102.5t-102.5 246.5v471h351v-656h124v656h222v-471zM588 815h-82l-89 92l-90 -92h-82l98 187h147z" />
<glyph unicode="&#xdc;" horiz-adv-x="783" d="M44 0zM741 331q0 -144 -102.5 -246.5t-246.5 -102.5q-143 0 -245.5 102.5t-102.5 246.5v471h351v-656h124v656h222v-471zM593 899q0 -34 -24.5 -58.5t-58.5 -24.5t-58.5 24.5t-24.5 58.5t24.5 58.5t58.5 24.5q35 0 59 -24t24 -59zM393 899q0 -34 -24.5 -58.5t-58.5 -24.5 t-58.5 24.5t-24.5 58.5t24.5 58.5t58.5 24.5q35 0 59 -24t24 -59z" />
<glyph unicode="&#xdd;" horiz-adv-x="814" d="M0 0zM837 802l-253 -457v-346h-319v320l-288 483h383l143 -240l132 240h202zM649 1006l-162 -190h-85l90 190h157z" />
<glyph unicode="&#xde;" horiz-adv-x="742" d="M716 417q0 -107 -77 -184t-184 -77h-85v-157h-343v803h343v-125h85q107 0 184 -76.5t77 -183.5zM462 300v226h-92v-226h92z" />
<glyph unicode="&#xdf;" horiz-adv-x="1126" d="M1096 217q0 -90 -63.5 -154t-153.5 -64h-281l-41 78q-66 -78 -167 -78h-280l-80 151h237l-204 319q-32 50 -32 115q0 90 64 154t154 64h308l22 -68q66 68 158 68h308l50 -151h-239l205 -316q35 -54 35 -118zM756 150l-204 319q-33 52 -33 115q0 34 11 67h-163l206 -316 q35 -54 35 -118q0 -34 -11 -67h159z" />
<glyph unicode="&#xe0;" horiz-adv-x="714" d="M696 -1h-299q-1 5 -36 104h-153l-37 -104h-152l237 667h204zM318 227l-34 92l-32 -92h66zM399 696h-85l-162 190h157z" />
<glyph unicode="&#xe1;" horiz-adv-x="714" d="M696 -1h-299q-1 5 -36 104h-153l-37 -104h-152l237 667h204zM318 227l-34 92l-32 -92h66zM569 886l-162 -190h-85l90 190h157z" />
<glyph unicode="&#xe2;" horiz-adv-x="714" d="M696 -1h-299q-1 5 -36 104h-153l-37 -104h-152l237 667h204zM318 227l-34 92l-32 -92h66zM528 695h-82l-89 92l-90 -92h-82l98 187h147z" />
<glyph unicode="&#xe3;" horiz-adv-x="714" d="M696 -1h-299q-1 5 -36 104h-153l-37 -104h-152l237 667h204zM318 227l-34 92l-32 -92h66zM545 831q-19 -61 -38 -86q-29 -41 -78 -41q-31 0 -79 15q-36 11 -62 4q-27 -7 -34 -36h-63q19 61 38 87q30 40 79 40q31 0 78 -14q38 -12 61 -6q26 6 34 37h64z" />
<glyph unicode="&#xe4;" horiz-adv-x="714" d="M696 -1h-299q-1 5 -36 104h-153l-37 -104h-152l237 667h204zM318 227l-34 92l-32 -92h66zM537 776q0 -34 -24.5 -58.5t-58.5 -24.5t-58.5 24.5t-24.5 58.5t24.5 58.5t58.5 24.5t58.5 -24.5t24.5 -58.5zM337 776q0 -34 -24.5 -58.5t-58.5 -24.5t-58.5 24.5t-24.5 58.5 t24.5 58.5t58.5 24.5t58.5 -24.5t24.5 -58.5z" />
<glyph unicode="&#xe5;" horiz-adv-x="714" d="M696 -1h-299q-1 5 -36 104h-153l-37 -104h-152l237 667h204zM318 227l-34 92l-32 -92h66zM505 838q0 -61 -43.5 -104.5t-105.5 -43.5q-61 0 -105 43.5t-44 104.5q0 62 43.5 105.5t105.5 43.5t105.5 -43.5t43.5 -105.5zM425 838q0 29 -20 49t-49 20t-49 -20t-20 -49 q0 -28 20.5 -48t48.5 -20q29 0 49 20t20 48z" />
<glyph unicode="&#xe6;" horiz-adv-x="934" d="M925 124l-30 -126h-454v104h-139l-49 -104h-215l313 667h544l30 -126h-199v-169h133l30 -125h-163v-121h199zM441 226v171l-80 -171h80z" />
<glyph unicode="&#xe7;" horiz-adv-x="616" d="M601 124l-27 -126h-215q-137 0 -235 98t-98 236q0 137 97.5 235t235.5 98h215l27 -126h-276v-415h276zM531 -147q0 -52 -47.5 -82.5t-118.5 -30.5q-57 0 -84 5v84q17 -9 84 -9q27 0 44.5 9.5t17.5 23.5t-18 23.5t-44 9.5q-23 0 -39 -8v153h69v-67q61 -8 98.5 -37 t37.5 -74z" />
<glyph unicode="&#xe8;" horiz-adv-x="534" d="M509 124l-30 -126h-454v667h454l30 -126h-199v-169h133l30 -125h-163v-121h199zM319 696h-85l-162 190h157z" />
<glyph unicode="&#xe9;" horiz-adv-x="534" d="M509 124l-30 -126h-454v667h454l30 -126h-199v-169h133l30 -125h-163v-121h199zM459 886l-162 -190h-85l90 190h157z" />
<glyph unicode="&#xea;" horiz-adv-x="534" d="M509 124l-30 -126h-454v667h454l30 -126h-199v-169h133l30 -125h-163v-121h199zM428 695h-82l-89 92l-90 -92h-82l98 187h147z" />
<glyph unicode="&#xeb;" horiz-adv-x="534" d="M509 124l-30 -126h-454v667h454l30 -126h-199v-169h133l30 -125h-163v-121h199zM433 779q0 -34 -24.5 -58.5t-58.5 -24.5t-58.5 24.5t-24.5 58.5t24.5 58.5t58.5 24.5q35 0 59 -24t24 -59zM233 779q0 -34 -24.5 -58.5t-58.5 -24.5t-58.5 24.5t-24.5 58.5t24.5 58.5 t58.5 24.5q35 0 59 -24t24 -59z" />
<glyph unicode="&#xec;" horiz-adv-x="351" d="M318 -2h-285v667h285v-667zM239 696h-85l-162 190h157z" />
<glyph unicode="&#xed;" horiz-adv-x="351" d="M318 -2h-285v667h285v-667zM379 886l-162 -190h-85l90 190h157z" />
<glyph unicode="&#xee;" horiz-adv-x="351" d="M318 -2h-285v667h285v-667zM347 693h-82l-89 92l-90 -92h-82l98 187h147z" />
<glyph unicode="&#xef;" horiz-adv-x="351" d="M318 -2h-285v667h285v-667zM360 772q0 -34 -24.5 -58.5t-58.5 -24.5t-58.5 24.5t-24.5 58.5t24.5 58.5t58.5 24.5t58.5 -24.5t24.5 -58.5zM160 772q0 -34 -24.5 -58.5t-58.5 -24.5t-58.5 24.5t-24.5 58.5t24.5 58.5t58.5 24.5t58.5 -24.5t24.5 -58.5z" />
<glyph unicode="&#xf0;" horiz-adv-x="723" d="M713 332q0 -138 -97.5 -236t-235.5 -98h-294v271h-54v125h54v271h294q137 0 235 -98t98 -235zM463 124v415h-103v-145h52v-125h-52v-145h103z" />
<glyph unicode="&#xf1;" horiz-adv-x="675" d="M643 -2h-160l-275 242v-242h-164v667h146l288 -258v258h165v-667zM525 831q-19 -61 -38 -86q-29 -41 -78 -41q-31 0 -79 15q-36 11 -62 4q-27 -7 -34 -36h-63q19 61 38 87q30 40 79 40q31 0 78 -14q38 -12 61 -6q26 6 34 37h64z" />
<glyph unicode="&#xf2;" d="M724 323q0 -141 -101 -240.5t-243 -99.5t-242.5 99.5t-100.5 240.5t100.5 240.5t242.5 99.5t243 -99.5t101 -240.5zM432 122v416h-103v-416h103zM429 696h-85l-162 190h157z" />
<glyph unicode="&#xf3;" d="M724 323q0 -141 -101 -240.5t-243 -99.5t-242.5 99.5t-100.5 240.5t100.5 240.5t242.5 99.5t243 -99.5t101 -240.5zM432 122v416h-103v-416h103zM569 886l-162 -190h-85l90 190h157z" />
<glyph unicode="&#xf4;" d="M724 323q0 -141 -101 -240.5t-243 -99.5t-242.5 99.5t-100.5 240.5t100.5 240.5t242.5 99.5t243 -99.5t101 -240.5zM432 122v416h-103v-416h103zM548 680h-82l-89 92l-90 -92h-82l98 187h147z" />
<glyph unicode="&#xf5;" d="M724 323q0 -141 -101 -240.5t-243 -99.5t-242.5 99.5t-100.5 240.5t100.5 240.5t242.5 99.5t243 -99.5t101 -240.5zM432 122v416h-103v-416h103zM555 821q-19 -61 -38 -86q-29 -41 -78 -41q-31 0 -79 15q-36 11 -62 4q-27 -7 -34 -36h-63q19 61 38 87q30 40 79 40 q31 0 78 -14q38 -12 61 -6q26 6 34 37h64z" />
<glyph unicode="&#xf6;" d="M724 323q0 -141 -101 -240.5t-243 -99.5t-242.5 99.5t-100.5 240.5t100.5 240.5t242.5 99.5t243 -99.5t101 -240.5zM432 122v416h-103v-416h103zM557 776q0 -34 -24.5 -58.5t-58.5 -24.5t-58.5 24.5t-24.5 58.5t24.5 58.5t58.5 24.5q35 0 59 -24.5t24 -58.5zM357 776 q0 -34 -24.5 -58.5t-58.5 -24.5t-58.5 24.5t-24.5 58.5t24.5 58.5t58.5 24.5q35 0 59 -24.5t24 -58.5z" />
<glyph unicode="&#xf7;" />
<glyph unicode="&#xf8;" d="M746 587l-71 -71q61 -86 61 -193q0 -141 -100.5 -240.5t-242.5 -99.5q-106 0 -193 59l-71 -72l-89 89l71 71q-62 86 -62 193q0 141 101 240.5t243 99.5q106 0 192 -59l72 73zM444 463v75h-103v-178zM444 122v164l-103 -104v-60h103z" />
<glyph unicode="&#xf9;" horiz-adv-x="670" d="M625 272q0 -119 -85 -204t-204 -85t-204 85t-85 204v391h291v-544h103v544h184v-391zM399 696h-85l-162 190h157z" />
<glyph unicode="&#xfa;" horiz-adv-x="670" d="M625 272q0 -119 -85 -204t-204 -85t-204 85t-85 204v391h291v-544h103v544h184v-391zM559 886l-162 -190h-85l90 190h157z" />
<glyph unicode="&#xfb;" horiz-adv-x="670" d="M625 272q0 -119 -85 -204t-204 -85t-204 85t-85 204v391h291v-544h103v544h184v-391zM518 695h-82l-89 92l-90 -92h-82l98 187h147z" />
<glyph unicode="&#xfc;" horiz-adv-x="670" d="M625 272q0 -119 -85 -204t-204 -85t-204 85t-85 204v391h291v-544h103v544h184v-391zM513 779q0 -34 -24.5 -58.5t-58.5 -24.5t-58.5 24.5t-24.5 58.5t24.5 58.5t58.5 24.5q35 0 59 -24t24 -59zM313 779q0 -34 -24.5 -58.5t-58.5 -24.5t-58.5 24.5t-24.5 58.5t24.5 58.5 t58.5 24.5q35 0 59 -24t24 -59z" />
<glyph unicode="&#xfd;" horiz-adv-x="739" d="M726 665l-210 -380v-287h-265v266l-239 401h318l119 -199l109 199h168zM589 886l-162 -190h-85l90 190h157z" />
<glyph unicode="&#xfe;" horiz-adv-x="626" d="M609 345q0 -89 -63.5 -152.5t-152.5 -63.5h-71v-131h-284v667h284v-104h71q89 0 152.5 -63.5t63.5 -152.5zM399 248v188h-77v-188h77z" />
<glyph unicode="&#xff;" horiz-adv-x="739" d="M726 665l-210 -380v-287h-265v266l-239 401h318l119 -199l109 199h168zM583 779q0 -34 -24.5 -58.5t-58.5 -24.5t-58.5 24.5t-24.5 58.5t24.5 58.5t58.5 24.5q35 0 59 -24t24 -59zM383 779q0 -34 -24.5 -58.5t-58.5 -24.5t-58.5 24.5t-24.5 58.5t24.5 58.5t58.5 24.5 q35 0 59 -24t24 -59z" />
<glyph unicode="&#x152;" horiz-adv-x="1212" d="M1182 150l-37 -151h-546v13q-76 -30 -155 -30q-171 0 -292.5 120.5t-121.5 289.5t121.5 289.5t292.5 120.5q79 0 155 -30v30h546l37 -151h-240v-204h160l36 -151h-196v-146h240zM506 150v501h-124v-501h124z" />
<glyph unicode="&#x153;" horiz-adv-x="1001" d="M984 122l-30 -125h-454v11q-63 -25 -128 -25q-142 0 -243 99.5t-101 240.5t101 240.5t243 99.5q65 0 128 -25v25h454l30 -125h-199v-169h133l30 -126h-163v-121h199zM423 122v416h-103v-416h103z" />
<glyph unicode="&#x178;" horiz-adv-x="814" d="M0 0zM837 802l-253 -457v-346h-319v320l-288 483h383l143 -240l132 240h202zM683 899q0 -34 -24.5 -58.5t-58.5 -24.5t-58.5 24.5t-24.5 58.5t24.5 58.5t58.5 24.5q35 0 59 -24t24 -59zM483 899q0 -34 -24.5 -58.5t-58.5 -24.5t-58.5 24.5t-24.5 58.5t24.5 58.5 t58.5 24.5q35 0 59 -24t24 -59z" />
<glyph unicode="&#x2c6;" horiz-adv-x="373" d="M358 705h-82l-89 92l-90 -92h-82l98 187h147z" />
<glyph unicode="&#x2da;" horiz-adv-x="332" d="M315 838q0 -61 -43.5 -104.5t-105.5 -43.5q-61 0 -105 43.5t-44 104.5q0 62 43.5 105.5t105.5 43.5t105.5 -43.5t43.5 -105.5zM235 838q0 29 -20 49t-49 20t-49 -20t-20 -49q0 -28 20.5 -48t48.5 -20q29 0 49 20t20 48z" />
<glyph unicode="&#x2dc;" horiz-adv-x="376" d="M365 841q-19 -61 -38 -86q-29 -41 -78 -41q-31 0 -79 15q-36 11 -62 4q-27 -7 -34 -36h-63q19 61 38 87q30 40 79 40q31 0 78 -14q38 -12 61 -6q26 6 34 37h64z" />
<glyph unicode="&#x2000;" horiz-adv-x="558" />
<glyph unicode="&#x2001;" horiz-adv-x="1117" />
<glyph unicode="&#x2002;" horiz-adv-x="558" />
<glyph unicode="&#x2003;" horiz-adv-x="1117" />
<glyph unicode="&#x2004;" horiz-adv-x="372" />
<glyph unicode="&#x2005;" horiz-adv-x="279" />
<glyph unicode="&#x2006;" horiz-adv-x="186" />
<glyph unicode="&#x2007;" horiz-adv-x="186" />
<glyph unicode="&#x2008;" horiz-adv-x="139" />
<glyph unicode="&#x2009;" horiz-adv-x="223" />
<glyph unicode="&#x200a;" horiz-adv-x="62" />
<glyph unicode="&#x2010;" horiz-adv-x="356" d="M286 325h-272v151h272v-151z" />
<glyph unicode="&#x2011;" horiz-adv-x="356" d="M286 325h-272v151h272v-151z" />
<glyph unicode="&#x2012;" horiz-adv-x="356" d="M286 325h-272v151h272v-151z" />
<glyph unicode="&#x2013;" horiz-adv-x="557" d="M544 325h-532v151h532v-151z" />
<glyph unicode="&#x2014;" horiz-adv-x="1057" d="M1044 325h-1032v151h1032v-151z" />
<glyph unicode="&#x2018;" horiz-adv-x="287" d="M62 590l95 238h100v-238h-195z" />
<glyph unicode="&#x2019;" horiz-adv-x="199" d="M197 828l-95 -238h-100v238h195z" />
<glyph unicode="&#x201a;" horiz-adv-x="234" d="M214 168l-95 -238h-100v238h195z" />
<glyph unicode="&#x201c;" horiz-adv-x="427" d="M59 590l95 238h100v-125l50 125h100v-238h-345z" />
<glyph unicode="&#x201d;" horiz-adv-x="330" d="M338 828l-95 -238h-100v125l-50 -125h-100v238h345z" />
<glyph unicode="&#x201e;" horiz-adv-x="383" d="M364 168l-95 -238h-100v125l-50 -125h-100v238h345z" />
<glyph unicode="&#x2022;" horiz-adv-x="331" d="M288 330q0 -50 -36 -86.5t-87 -36.5q-50 0 -86.5 36.5t-36.5 86.5t36.5 86.5t86.5 36.5q51 0 87 -36.5t36 -86.5z" />
<glyph unicode="&#x2026;" horiz-adv-x="700" d="M658 75q0 -38 -29 -65.5t-68 -27.5q-41 0 -69.5 27.5t-28.5 65.5t28.5 65.5t69.5 27.5q39 0 68 -27.5t29 -65.5zM448 75q0 -38 -29 -65.5t-68 -27.5q-41 0 -69.5 27.5t-28.5 65.5t28.5 65.5t69.5 27.5q39 0 68 -27.5t29 -65.5zM238 75q0 -38 -29 -65.5t-68 -27.5 q-41 0 -69.5 27.5t-28.5 65.5t28.5 65.5t69.5 27.5q39 0 68 -27.5t29 -65.5z" />
<glyph unicode="&#x202f;" horiz-adv-x="223" />
<glyph unicode="&#x2039;" horiz-adv-x="370" d="M329 291l-90 -90l-199 200l199 199l90 -90l-110 -109z" />
<glyph unicode="&#x203a;" horiz-adv-x="373" d="M21 291l90 -90l199 200l-199 199l-90 -90l110 -109z" />
<glyph unicode="&#x205f;" horiz-adv-x="279" />
<glyph unicode="&#x20ac;" horiz-adv-x="690" d="M706 802l-68 -151h-231v-154h158l-33 -75h-125v-43h106l-33 -76h-73v-153h167v-151h-126q-139 0 -247.5 86t-142.5 218h-75l34 76h30q-1 10 -1 21t1 22h-62l34 75h39q34 133 142.5 219t247.5 86h258z" />
<glyph unicode="&#xe000;" horiz-adv-x="665" d="M0 665h665v-665h-665v665z" />
<glyph horiz-adv-x="665" d="M0 0z" />
</font>
</defs>
</svg>
